<?xml version="1.0" encoding="UTF-8" standalone="no"?>
<svg xmlns:ffdec="https://www.free-decompiler.com/flash" xmlns:xlink="http://www.w3.org/1999/xlink" ffdec:objectType="frame" height="30.1px" width="30.0px" xmlns="http://www.w3.org/2000/svg">
  <g transform="matrix(1.0, 0.0, 0.0, 1.0, 0.0, 0.0)">
    <use ffdec:characterId="1" height="30.0" transform="matrix(1.0, 0.0, 0.0, 1.0, 0.0, 0.0)" width="30.0" xlink:href="#shape0"/>
    <use ffdec:characterId="3" height="30.0" transform="matrix(1.0, 0.0, 0.0, 1.0, 0.0, 0.1)" width="30.0" xlink:href="#sprite0"/>
  </g>
  <defs>
    <g id="shape0" transform="matrix(1.0, 0.0, 0.0, 1.0, 0.0, 0.0)">
      <path d="M0.0 0.0 L30.0 0.0 30.0 30.0 0.0 30.0 0.0 0.0" fill="#33cc66" fill-opacity="0.0" fill-rule="evenodd" stroke="none"/>
    </g>
    <g id="sprite0" transform="matrix(1.0, 0.0, 0.0, 1.0, 0.0, 0.0)">
      <use ffdec:characterId="2" height="30.0" transform="matrix(1.0, 0.0, 0.0, 1.0, 0.0, 0.0)" width="30.0" xlink:href="#shape1"/>
    </g>
    <g id="shape1" transform="matrix(1.0, 0.0, 0.0, 1.0, 0.0, 0.0)">
      <path d="M26.7 0.0 Q30.0 0.0 30.0 3.3 L30.0 26.7 Q30.0 30.0 26.7 30.0 L3.3 30.0 Q0.0 30.0 0.0 26.7 L0.0 3.3 Q0.0 0.0 3.3 0.0 L26.7 0.0" fill="#ec6002" fill-rule="evenodd" stroke="none"/>
      <path d="M25.3 14.5 L26.45 18.6 23.1 22.8 24.6 24.15 22.7 25.75 19.6 25.05 17.9 26.1 16.75 25.25 14.95 25.25 14.25 26.5 12.05 26.5 9.6 25.4 9.6 24.5 4.5 22.2 3.55 19.0 5.3 17.35 5.35 17.35 7.25 18.0 5.5 16.05 5.5 11.4 9.1 13.4 9.65 9.2 12.6 10.95 12.6 8.6 15.95 3.55 19.35 7.7 19.75 12.1 21.35 9.1 21.35 9.0 24.05 8.3 25.8 11.45 25.8 11.5 24.75 14.7 25.3 14.5 M12.6 10.95 L12.6 13.35 14.4 20.7 17.6 16.65 19.4 18.15 19.5 18.15 19.9 14.25 19.75 12.1 M16.75 25.25 L20.55 21.95 20.0 18.65 19.4 18.15 M19.5 18.15 L21.6 15.6 24.75 14.7 M14.95 25.25 L14.45 23.95 13.45 24.4 12.1 23.65 9.6 24.5 M14.4 20.7 L14.4 23.85 14.45 23.95 M19.6 25.05 L23.1 22.8 M9.1 13.4 L10.65 14.3 10.7 14.4 12.45 19.85 12.95 19.1 14.4 20.7 M7.25 18.0 L12.1 23.65 11.75 20.85 12.45 19.85" fill="none" stroke="#ffffff" stroke-linecap="round" stroke-linejoin="round" stroke-width="3.5"/>
      <path d="M24.8 11.1 L25.8 11.55 24.75 14.75 23.95 14.2 24.8 11.1 M26.2 17.6 L26.45 18.65 23.15 22.85 20.85 24.3 20.8 24.2 25.95 18.25 23.5 17.9 23.8 17.35 26.2 17.6 M22.7 25.8 L19.6 25.1 20.55 24.5 20.85 24.3 21.35 24.65 22.7 25.8 M19.3 7.6 L19.4 7.7 19.75 12.15 19.95 14.25 19.45 18.2 19.05 16.6 18.45 8.6 19.3 7.6 M10.75 14.4 L11.65 15.1 11.9 15.8 12.8 18.7 12.5 18.25 Q12.2 17.9 11.75 17.8 L11.15 15.75 10.95 15.15 10.75 14.4 M14.95 18.95 L13.7 9.55 15.65 9.55 14.95 13.0 14.95 18.95 M21.85 15.55 L23.2 16.2 21.4 17.95 20.65 17.75 20.5 17.75 20.2 17.85 19.95 17.6 21.6 15.6 21.85 15.55 M20.45 20.9 L20.6 22.0 16.8 25.3 19.75 20.65 19.9 20.7 20.1 20.8 20.45 20.9 M12.0 22.45 L13.25 23.3 13.35 23.25 14.4 22.2 14.4 23.85 14.25 24.05 13.45 24.45 12.15 23.6 12.0 22.45 M7.95 19.85 L8.55 19.55 12.15 23.6 11.55 23.3 7.95 19.85" fill="#57d2ba" fill-rule="evenodd" stroke="none"/>
      <path d="M23.8 10.65 L24.8 11.1 23.95 14.2 22.1 14.85 22.65 12.15 23.8 10.65 M24.05 23.7 L24.6 24.2 22.7 25.8 21.35 24.65 24.05 23.7 M19.6 25.1 L17.95 26.1 17.45 25.8 21.45 21.8 23.5 17.9 25.95 18.25 20.8 24.2 20.55 24.5 19.6 25.1 M10.65 25.85 L9.65 25.45 9.65 24.9 12.5 25.3 14.55 24.3 14.85 25.0 12.95 26.0 10.65 25.85 M9.65 24.55 L6.75 23.3 8.3 23.3 11.55 23.3 6.6 20.6 7.95 19.85 11.55 23.3 12.15 23.6 9.65 24.55 M9.15 13.45 L9.4 11.4 10.4 14.15 9.15 13.45 M19.05 16.6 L17.35 15.2 16.8 9.35 18.45 8.6 19.05 16.6 M21.4 17.95 L21.75 18.25 Q22.25 18.7 22.25 19.35 22.25 19.95 21.75 20.4 21.3 20.9 20.65 20.9 L20.45 20.9 20.1 20.8 19.9 20.7 19.75 20.65 19.55 20.4 19.2 19.85 19.55 20.4 19.75 20.65 16.8 25.3 17.15 22.1 19.2 19.85 19.1 19.35 Q19.1 18.75 19.5 18.3 L19.55 18.25 Q19.9 17.9 20.2 17.85 L20.5 17.75 20.65 17.75 21.4 17.95 M14.4 22.2 L13.35 23.25 13.25 23.3 12.0 22.45 11.8 21.2 11.75 20.9 13.1 22.05 13.25 21.95 14.4 20.7 14.4 22.2 M11.75 17.8 L11.4 17.75 10.85 17.9 10.8 17.95 10.85 17.9 11.4 17.75 11.75 17.8 Q12.2 17.9 12.5 18.25 L12.8 18.7 12.95 19.1 12.8 18.7 11.9 15.8 12.55 13.35 14.4 20.7 12.95 19.1 12.95 19.15 12.95 19.35 12.5 20.4 11.8 20.85 11.6 20.9 11.4 20.9 Q10.8 20.9 10.3 20.4 9.85 19.95 9.85 19.35 9.85 19.0 10.0 18.75 L10.3 18.25 Q10.5 18.0 10.8 17.95 L9.9 15.9 11.15 15.75 11.75 17.8" fill="#096c93" fill-rule="evenodd" stroke="none"/>
      <path d="M23.15 22.85 L24.05 23.7 21.35 24.65 20.85 24.3 23.15 22.85 M17.45 25.8 L16.8 25.3 14.9 25.3 14.85 25.0 14.55 24.3 14.4 23.85 14.55 24.3 12.5 25.3 9.65 24.9 9.65 24.55 12.15 23.6 13.45 24.45 14.25 24.05 14.4 23.85 17.15 22.1 16.8 25.3 20.6 22.0 20.45 20.9 20.65 20.9 Q21.3 20.9 21.75 20.4 22.25 19.95 22.25 19.35 22.25 18.7 21.75 18.25 L21.4 17.95 23.2 16.2 23.2 17.25 23.8 17.35 23.5 17.9 21.45 21.8 17.45 25.8 M6.75 23.3 L5.35 22.6 6.2 21.2 8.3 23.3 6.75 23.3 M5.4 17.4 L7.3 18.0 8.55 19.55 7.95 19.85 6.6 20.6 5.4 17.4 M13.9 6.55 L15.95 3.5 16.8 9.35 17.35 5.25 19.3 7.6 18.45 8.6 16.8 9.35 17.35 15.2 19.05 16.6 19.45 18.2 19.95 14.25 19.75 12.15 20.35 11.0 20.5 14.85 22.65 12.15 22.1 14.85 23.95 14.2 24.75 14.75 21.85 15.55 21.6 15.6 19.95 17.6 20.2 17.85 Q19.9 17.9 19.55 18.25 L19.5 18.3 Q19.1 18.75 19.1 19.35 L19.2 19.85 17.15 22.1 17.65 16.65 19.45 18.25 19.5 18.3 19.45 18.25 17.65 16.65 14.4 20.7 13.25 21.95 13.1 22.05 11.75 20.9 11.8 20.85 12.5 20.4 12.95 19.35 12.95 19.15 12.95 19.1 14.4 20.7 12.55 13.35 14.95 18.95 14.95 13.0 16.15 16.8 16.8 9.35 13.9 6.55 M19.95 17.6 L19.45 18.2 19.45 18.25 19.95 17.6" fill="#10a2d5" fill-rule="evenodd" stroke="none"/>
      <path d="M24.6 9.25 L25.8 11.5 25.8 11.55 24.8 11.1 23.8 10.65 24.6 9.25 M14.9 25.3 L14.3 26.45 12.1 26.45 10.65 25.85 12.95 26.0 14.85 25.0 14.9 25.3 M3.55 19.0 L3.55 18.95 5.35 17.4 5.4 17.4 6.6 20.6 3.55 19.0 M7.3 18.0 L5.55 16.05 7.9 16.0 10.0 18.75 Q9.85 19.0 9.85 19.35 9.85 19.95 10.3 20.4 10.8 20.9 11.4 20.9 L11.6 20.9 11.8 21.2 12.0 22.45 12.15 23.6 8.55 19.55 7.3 18.0 M5.55 11.45 L9.15 13.45 10.4 14.15 10.75 14.4 10.95 15.15 7.85 15.1 5.55 11.45 M9.7 9.25 L12.55 11.0 12.55 13.35 11.9 15.8 11.65 15.1 9.7 9.25 M15.95 3.5 L17.35 5.25 16.8 9.35 15.95 3.5 M22.65 12.15 L20.5 14.85 22.25 10.15 23.8 10.65 22.65 12.15 M17.15 22.1 L14.4 23.85 14.4 22.2 14.4 20.7 17.15 22.1 M6.6 20.6 L11.55 23.3 8.3 23.3 6.2 21.2 6.6 20.6" fill="#4edbef" fill-rule="evenodd" stroke="none"/>
      <path d="M24.6 9.25 L23.8 10.65 22.25 10.15 20.5 14.85 20.35 11.0 21.35 9.15 21.35 9.05 24.05 8.3 24.6 9.25 M24.75 14.75 L25.25 14.55 26.2 17.6 23.8 17.35 23.2 17.25 23.2 16.2 21.85 15.55 24.75 14.75 M5.35 22.6 L4.5 22.25 3.55 19.0 6.6 20.6 6.2 21.2 5.35 22.6 M5.55 16.05 L5.55 11.45 7.85 15.1 10.95 15.15 11.15 15.75 9.9 15.9 10.8 17.95 Q10.5 18.0 10.3 18.25 L10.0 18.75 7.9 16.0 5.55 16.05 M9.4 11.4 L9.7 9.25 11.65 15.1 10.75 14.4 10.65 14.3 10.4 14.15 9.4 11.4 M12.55 11.0 L12.55 8.65 13.9 6.55 16.8 9.35 16.15 16.8 14.95 13.0 15.65 9.55 13.7 9.55 14.95 18.95 12.55 13.35 12.55 11.0 M17.65 16.65 L17.15 22.1 14.4 20.7 17.65 16.65 M11.75 20.9 L11.8 21.2 11.6 20.9 11.8 20.85 11.75 20.9" fill="#bcf7fb" fill-rule="evenodd" stroke="none"/>
      <path d="M25.8 11.55 L25.8 11.5 24.6 9.25 24.05 8.3 21.35 9.05 21.35 9.15 20.35 11.0 19.75 12.15 19.4 7.7 19.3 7.6 17.35 5.25 15.95 3.5 13.9 6.55 12.55 8.65 12.55 11.0 12.55 13.35 14.4 20.7 12.95 19.1 M25.8 11.55 L24.75 14.75 25.25 14.55 26.2 17.6 26.45 18.65 23.15 22.85 24.05 23.7 24.6 24.2 22.7 25.8 19.6 25.1 17.95 26.1 17.45 25.8 16.8 25.3 14.9 25.3 14.3 26.45 12.1 26.45 10.65 25.85 9.65 25.45 9.65 24.9 9.65 24.55 6.75 23.3 5.35 22.6 4.5 22.25 3.55 19.0 3.55 18.95 5.35 17.4 5.4 17.4 7.3 18.0 5.55 16.05 5.55 11.45 9.15 13.45 9.4 11.4 9.7 9.25 12.55 11.0 M10.4 14.15 L9.15 13.45 M10.4 14.15 L10.65 14.3 10.75 14.4 10.95 15.15 11.15 15.75 11.75 17.8 M19.45 18.2 L19.95 14.25 19.75 12.15 M20.85 24.3 L23.15 22.85 M20.45 20.9 L20.6 22.0 16.8 25.3 M14.4 23.85 L14.55 24.3 14.85 25.0 14.9 25.3 M19.95 17.6 L21.6 15.6 21.85 15.55 24.75 14.75 M19.5 18.3 L19.45 18.25 17.65 16.65 14.4 20.7 14.4 22.2 14.4 23.85 M19.45 18.25 L19.95 17.6 M12.0 22.45 L12.15 23.6 13.45 24.45 14.25 24.05 M11.75 20.9 L11.8 21.2 12.0 22.45 M20.55 24.5 L20.85 24.3 M20.55 24.5 L19.6 25.1 M8.55 19.55 L7.3 18.0 M11.8 20.85 L11.75 20.9 M12.15 23.6 L8.55 19.55 M12.15 23.6 L9.65 24.55" fill="none" stroke="#469eb4" stroke-linecap="round" stroke-linejoin="round" stroke-width="0.5"/>
      <path d="M21.4 17.95 L21.75 18.25 Q22.25 18.7 22.25 19.35 22.25 19.95 21.75 20.4 21.3 20.9 20.65 20.9 L20.45 20.9 20.1 20.8 M20.2 17.85 L20.5 17.75 20.65 17.75 21.4 17.95 M20.2 17.85 Q19.9 17.9 19.55 18.25 L19.5 18.3 Q19.1 18.75 19.1 19.35 L19.2 19.85 19.55 20.4 19.75 20.65 19.9 20.7 M10.8 17.95 L10.85 17.9 11.4 17.75 11.75 17.8 Q12.2 17.9 12.5 18.25 L12.8 18.7 12.95 19.1 12.95 19.15 12.95 19.35 12.5 20.4 11.8 20.85 11.6 20.9 11.4 20.9 Q10.8 20.9 10.3 20.4 9.85 19.95 9.85 19.35 9.85 19.0 10.0 18.75 L10.3 18.25 Q10.5 18.0 10.8 17.95 Z" fill="none" stroke="#ffffff" stroke-linecap="round" stroke-linejoin="round" stroke-width="1.0"/>
      <path d="M20.7 23.55 L19.7 23.35 Q19.3 23.2 19.3 23.0 L19.45 22.65 19.7 22.55 20.7 22.4 21.75 22.55 21.95 22.65 22.15 23.0 21.75 23.35 20.7 23.55 M12.4 23.5 L11.35 23.7 10.3 23.5 9.85 23.1 Q9.85 22.85 10.1 22.7 L10.3 22.6 11.35 22.45 12.4 22.6 12.6 22.7 12.8 23.1 12.4 23.5" fill="#ffffff" fill-rule="evenodd" stroke="none"/>
    </g>
  </defs>
</svg>
