<?xml version="1.0" encoding="UTF-8" standalone="no"?>
<svg xmlns:ffdec="https://www.free-decompiler.com/flash" xmlns:xlink="http://www.w3.org/1999/xlink" ffdec:objectType="frame" height="30.0px" width="30.0px" xmlns="http://www.w3.org/2000/svg">
  <g transform="matrix(1.0, 0.0, 0.0, 1.0, 0.0, 0.0)">
    <use ffdec:characterId="1" height="30.0" transform="matrix(1.0, 0.0, 0.0, 1.0, 0.0, 0.0)" width="30.0" xlink:href="#shape0"/>
    <use ffdec:characterId="5" height="30.0" transform="matrix(1.0, 0.0, 0.0, 1.0, 0.0, 0.0)" width="30.0" xlink:href="#sprite0"/>
  </g>
  <defs>
    <g id="shape0" transform="matrix(1.0, 0.0, 0.0, 1.0, 0.0, 0.0)">
      <path d="M0.0 0.0 L30.0 0.0 30.0 30.0 0.0 30.0 0.0 0.0" fill="#33cc66" fill-opacity="0.0" fill-rule="evenodd" stroke="none"/>
    </g>
    <g id="sprite0" transform="matrix(1.0, 0.0, 0.0, 1.0, 0.0, 0.1)">
      <use ffdec:characterId="2" height="30.0" transform="matrix(1.0, 0.0, 0.0, 1.0, 0.0, -0.1)" width="30.0" xlink:href="#shape1"/>
      <filter id="filter0">
        <feColorMatrix in="SourceGraphic" result="filterResult0" type="matrix" values="0 0 0 0 0.2,0 0 0 0 1.0,0 0 0 0 1.0,0 0 0 1 0"/>
        <feConvolveMatrix divisor="9.0" in="filterResult0" kernelMatrix="1 1 1 1 1 1 1 1 1" order="3 3" result="filterResult1"/>
        <feComposite in="SourceGraphic" in2="filterResult1" operator="over" result="filterResult2"/>
      </filter>
      <use ffdec:characterId="4" filter="url(#filter0)" height="130.2" transform="matrix(0.2036, 0.0, 0.0, 0.2036, 3.3446, 1.3946)" width="117.5" xlink:href="#sprite1"/>
    </g>
    <g id="shape1" transform="matrix(1.0, 0.0, 0.0, 1.0, 0.0, 0.1)">
      <path d="M3.3 -0.1 L26.7 -0.1 Q30.0 -0.1 30.0 3.2 L30.0 26.6 Q30.0 29.9 26.7 29.9 L3.3 29.9 Q0.0 29.9 0.0 26.6 L0.0 3.2 Q0.0 -0.1 3.3 -0.1" fill="#000033" fill-rule="evenodd" stroke="none"/>
    </g>
    <g id="sprite1" transform="matrix(1.0, 0.0, 0.0, 1.0, 1.5, 1.5)">
      <use ffdec:characterId="3" height="130.2" transform="matrix(1.0, 0.0, 0.0, 1.0, -1.5, -1.5)" width="117.5" xlink:href="#shape2"/>
    </g>
    <g id="shape2" transform="matrix(1.0, 0.0, 0.0, 1.0, 1.5, 1.5)">
      <path d="M80.35 7.5 L84.1 7.35 84.95 7.3 Q87.85 7.2 90.5 8.2 92.3 8.85 94.0 9.65 L99.4 12.5 Q101.25 13.55 102.9 14.8 L104.5 17.7 107.45 23.2 110.05 29.25 111.9 35.05 113.45 40.7 114.5 46.25 113.35 47.7 109.55 52.5 108.7 53.55 108.45 53.85 106.1 56.45 103.7 54.7 101.2 52.85 Q99.85 51.8 99.05 50.35 L98.9 50.75 95.5 54.9 95.05 55.45 93.9 55.15 91.45 54.3 91.25 54.2 90.25 53.6 92.9 52.55 94.9 51.8 94.9 51.75 95.1 51.45 95.4 50.75 95.5 50.6 95.55 50.55 96.0 49.55 97.35 46.55 97.9 45.15 98.05 44.5 98.55 42.65 94.4 40.2 Q93.2 39.5 91.9 38.95 L89.0 37.6 88.8 37.55 88.75 37.6 Q88.45 37.7 88.1 37.9 87.35 38.2 86.6 38.7 L84.3 40.15 84.5 38.4 84.55 38.2 84.75 37.3 84.9 36.5 84.45 35.85 84.1 35.4 85.4 35.0 88.45 34.7 89.0 34.55 89.4 34.45 89.3 34.3 89.05 34.0 Q87.9 32.7 87.25 31.0 L84.6 24.4 Q83.45 21.3 82.6 18.15 81.6 14.55 81.05 10.9 L80.35 7.5" fill="#1e2d43" fill-rule="evenodd" stroke="none"/>
      <path d="M106.1 56.45 L105.8 56.75 Q103.25 58.45 102.25 59.25 L101.75 59.8 99.95 58.55 96.6 55.9 96.15 55.55 95.05 55.45 95.5 54.9 98.9 50.75 99.05 50.35 Q99.85 51.8 101.2 52.85 L103.7 54.7 106.1 56.45 M77.05 7.75 L77.25 7.95 77.9 7.8 80.35 7.5 81.05 10.9 Q81.6 14.55 82.6 18.15 83.45 21.3 84.6 24.4 L87.25 31.0 Q87.9 32.7 89.05 34.0 L89.3 34.3 89.4 34.45 89.0 34.55 88.45 34.7 85.4 35.0 84.1 35.4 83.15 34.05 82.4 32.8 80.7 29.6 78.95 25.55 78.95 25.5 78.2 23.15 77.7 20.8 77.2 17.95 77.0 16.25 76.75 12.1 76.85 9.05 77.05 7.75" fill="#2d475e" fill-rule="evenodd" stroke="none"/>
      <path d="M101.75 59.8 L101.7 59.95 101.6 60.65 101.7 63.5 101.75 63.95 100.75 63.1 100.5 62.9 98.35 61.2 95.25 58.6 Q93.95 57.55 92.95 56.4 92.3 56.55 91.8 56.85 90.7 57.6 89.5 57.95 L85.55 59.3 82.15 60.05 81.2 60.35 78.85 60.85 75.55 61.3 72.85 61.45 71.0 61.4 70.05 61.3 69.05 60.65 Q67.6 59.5 66.7 57.9 L66.7 57.8 Q66.7 57.1 66.85 56.5 67.25 54.75 68.0 53.15 L68.35 52.45 70.6 48.95 71.25 48.05 73.3 45.55 75.5 43.2 75.9 42.75 78.25 40.55 Q79.1 39.75 80.1 39.1 L80.2 39.0 80.75 38.5 80.0 37.15 78.7 34.7 78.2 33.6 77.9 33.05 77.55 32.3 76.3 29.6 75.55 28.0 75.05 26.45 74.35 23.65 74.3 23.65 74.15 23.1 73.55 19.45 73.4 18.45 73.35 17.65 73.0 14.2 72.9 11.2 72.95 8.85 71.9 7.75 69.45 5.1 67.0 2.1 66.25 0.85 66.25 0.55 66.8 0.2 70.65 3.55 72.9 5.1 77.05 7.75 76.85 9.05 76.75 12.1 77.0 16.25 77.2 17.95 77.7 20.8 78.2 23.15 78.95 25.5 78.95 25.55 80.7 29.6 82.4 32.8 83.15 34.05 84.1 35.4 84.45 35.85 84.9 36.5 84.75 37.3 84.55 38.2 84.5 38.4 84.3 40.15 83.9 40.45 82.5 41.5 80.95 42.65 80.0 43.55 77.65 45.7 75.2 48.35 74.6 49.1 72.1 52.25 71.4 53.3 70.05 55.55 69.25 57.3 70.65 58.1 71.55 58.05 74.35 57.9 77.9 57.45 81.8 56.5 85.55 55.35 88.95 54.15 89.1 54.05 90.25 53.6 91.25 54.2 91.45 54.3 93.9 55.15 95.05 55.45 96.15 55.55 96.6 55.9 99.95 58.55 101.75 59.8" fill="#4c6293" fill-rule="evenodd" stroke="none"/>
      <path d="M84.3 40.15 L86.6 38.7 Q87.35 38.2 88.1 37.9 88.45 37.7 88.75 37.6 L88.8 37.55 89.0 37.6 91.9 38.95 Q93.2 39.5 94.4 40.2 L98.55 42.65 98.05 44.5 97.9 45.15 97.35 46.55 96.0 49.55 95.55 50.55 95.1 50.6 95.0 50.6 94.65 50.5 94.6 50.5 92.1 50.2 89.75 49.75 87.2 49.05 Q86.8 47.35 87.05 45.7 L87.4 44.0 87.5 43.55 88.0 41.3 88.25 40.95 88.25 40.75 88.25 40.65 88.25 40.55 88.4 39.7 88.5 39.35 88.7 38.05 87.4 40.25 87.05 40.8 86.3 42.35 85.75 42.7 84.25 43.8 82.5 45.25 79.9 47.6 78.75 48.65 77.35 50.1 74.5 53.35 74.5 53.4 72.95 55.5 72.8 55.75 75.65 56.2 78.95 55.95 83.35 55.0 85.85 54.35 87.1 54.05 88.35 53.65 90.85 52.9 92.25 52.5 Q92.7 52.25 93.1 52.15 L93.5 51.9 93.55 51.85 93.65 51.8 94.3 51.45 95.1 51.45 94.9 51.75 94.9 51.8 92.9 52.55 90.25 53.6 89.1 54.05 88.95 54.15 85.55 55.35 81.8 56.5 77.9 57.45 74.35 57.9 71.55 58.05 70.65 58.1 69.25 57.3 70.05 55.55 71.4 53.3 72.1 52.25 74.6 49.1 75.2 48.35 77.65 45.7 80.0 43.55 80.95 42.65 82.5 41.5 83.9 40.45 84.3 40.15" fill="#348ccc" fill-rule="evenodd" stroke="none"/>
      <path d="M95.5 50.6 L95.4 50.75 95.1 51.45 94.3 51.45 93.65 51.8 93.55 51.85 93.5 51.9 93.1 52.15 Q92.7 52.25 92.25 52.5 L90.85 52.9 88.35 53.65 87.1 54.05 85.85 54.35 83.35 55.0 78.95 55.95 75.65 56.2 72.8 55.75 72.95 55.5 74.5 53.4 74.5 53.35 77.35 50.1 78.75 48.65 79.9 47.6 82.5 45.25 84.25 43.8 85.75 42.7 86.3 42.35 87.05 40.8 87.4 40.25 88.7 38.05 88.5 39.35 88.4 39.7 88.25 40.35 88.25 40.55 88.25 40.65 88.25 40.75 88.15 41.0 86.3 42.35 85.9 43.45 Q85.7 43.7 85.75 43.95 L84.8 47.0 84.3 49.25 84.3 49.5 82.85 50.45 79.9 52.45 78.05 53.6 76.3 54.6 77.65 54.25 79.4 53.65 82.1 52.7 85.3 51.65 88.05 51.85 90.85 51.7 93.95 51.45 94.5 50.65 94.65 50.5 95.0 50.6 95.1 50.6 95.5 50.6" fill="#4fbdee" fill-rule="evenodd" stroke="none"/>
      <path d="M88.0 41.3 L87.5 43.55 87.4 44.0 87.05 45.7 Q86.8 47.35 87.2 49.05 L89.75 49.75 92.1 50.2 94.6 50.5 94.65 50.5 94.5 50.65 93.95 51.45 90.85 51.7 88.05 51.85 85.3 51.65 82.1 52.7 79.4 53.65 77.65 54.25 76.3 54.6 78.05 53.6 79.9 52.45 82.85 50.45 84.3 49.5 84.3 49.25 84.8 47.0 85.75 43.95 Q85.7 43.7 85.9 43.45 L86.3 42.35 88.15 41.0 88.0 41.3" fill="#80fbff" fill-rule="evenodd" stroke="none"/>
      <path d="M101.75 63.95 L101.65 65.1 101.6 65.15 101.1 65.45 100.65 65.75 Q98.35 66.9 95.5 67.25 L95.1 67.35 90.0 67.9 Q89.35 68.15 88.8 68.5 L87.8 68.95 Q87.55 69.1 87.35 69.2 L87.2 69.3 87.15 69.25 85.85 68.85 84.3 68.35 83.5 68.1 80.95 67.2 80.8 67.15 80.0 66.8 78.15 66.7 76.65 66.5 76.4 66.5 72.1 65.35 Q70.35 64.5 68.7 63.45 L68.35 63.3 66.7 62.0 64.55 60.2 Q62.95 58.85 61.7 57.15 L61.5 56.85 59.0 53.25 58.65 52.8 57.35 50.55 61.35 47.45 62.3 46.6 65.2 44.5 65.9 44.1 67.65 43.15 68.45 42.75 Q70.75 41.6 73.25 40.85 L78.65 39.35 80.2 39.0 80.1 39.1 Q79.1 39.75 78.25 40.55 L75.9 42.75 75.5 43.2 73.3 45.55 71.25 48.05 70.6 48.95 68.35 52.45 68.0 53.15 Q67.25 54.75 66.85 56.5 66.7 57.1 66.7 57.8 L66.7 57.9 Q67.6 59.5 69.05 60.65 L70.05 61.3 71.0 61.4 72.85 61.45 Q71.7 62.3 70.85 63.25 72.45 63.0 74.0 62.25 L74.8 62.2 78.9 61.7 80.25 61.6 84.35 61.0 84.45 60.9 87.15 60.2 87.95 60.0 88.75 59.75 91.5 58.95 91.7 58.9 92.0 58.85 Q92.85 59.0 93.7 59.55 L94.9 60.3 98.3 61.9 100.5 62.9 100.75 63.1 101.75 63.95 M84.3 70.9 L82.6 71.9 79.55 73.9 75.15 76.85 70.8 79.8 69.05 79.4 65.2 78.15 64.2 77.8 63.45 77.35 62.65 77.0 62.05 76.7 61.85 76.6 61.4 76.35 59.45 75.45 56.1 73.1 56.0 73.05 54.0 71.3 53.1 70.4 51.35 68.55 50.85 68.15 49.8 66.85 48.85 65.6 47.75 63.5 47.55 62.85 46.7 60.6 46.5 60.2 51.05 55.95 51.7 55.35 54.85 52.65 56.1 51.6 56.5 52.45 56.6 52.75 Q57.3 54.35 58.35 55.8 L58.8 56.35 59.15 56.85 60.8 58.9 63.9 62.05 64.2 62.3 64.95 62.95 64.8 62.9 64.75 62.85 64.75 63.05 64.85 63.2 64.9 63.4 65.95 64.8 64.25 66.4 62.85 67.55 62.2 68.15 61.25 68.8 59.25 70.3 57.8 71.5 Q59.85 69.95 62.05 68.8 L62.4 68.6 Q62.95 68.35 63.45 68.05 L63.9 67.85 Q65.55 66.85 67.4 66.55 L67.85 66.5 Q69.6 66.65 71.25 67.15 L71.4 67.2 73.05 67.55 73.2 67.6 73.35 67.65 73.5 67.65 76.55 68.45 78.5 68.8 79.8 69.0 80.6 69.1 83.2 70.35 83.6 70.55 84.3 70.9 M68.3 81.25 L67.05 81.85 64.65 82.95 64.3 83.1 62.25 83.3 58.05 83.55 53.3 83.2 51.05 81.9 50.05 81.25 48.9 80.55 44.95 77.45 43.4 76.0 40.75 73.4 39.85 72.45 37.55 69.5 37.8 69.2 38.25 68.7 43.0 63.75 43.35 63.35 44.85 61.9 45.15 63.05 45.4 63.55 45.6 63.95 Q46.55 65.9 47.85 67.75 L48.35 68.35 48.5 68.7 49.25 69.45 49.85 70.05 50.3 70.55 50.6 71.0 Q51.65 72.35 53.0 73.5 L53.25 73.7 53.4 73.85 53.8 74.2 51.35 76.15 49.55 77.85 49.7 77.85 51.75 77.15 Q52.3 76.85 52.8 76.7 L54.0 76.2 54.1 76.15 56.05 76.8 57.15 77.05 58.25 77.35 59.2 77.45 59.4 77.55 59.5 77.65 63.3 79.4 66.25 80.5 67.9 81.1 68.3 81.25 M73.2 93.85 L73.4 94.0 74.2 94.6 72.75 94.5 Q71.6 94.4 71.15 95.3 L71.1 95.85 71.35 100.45 71.55 101.55 72.2 103.45 72.05 103.85 70.7 105.6 69.5 106.05 69.35 106.1 69.1 106.2 68.85 105.15 Q68.65 104.25 68.8 103.35 L69.0 100.75 Q68.95 98.9 69.3 97.05 L69.8 95.35 Q70.1 94.7 70.75 94.25 71.35 93.8 72.15 93.75 L73.2 93.85 M77.35 112.7 L76.2 114.05 Q74.75 115.5 73.7 117.1 L72.1 119.4 Q71.75 119.35 71.5 118.8 L71.1 117.1 70.9 114.7 71.25 110.85 71.45 109.1 71.55 108.9 70.45 107.2 71.4 106.85 73.45 106.9 Q73.95 106.85 73.95 107.25 L74.0 108.1 Q74.65 110.0 75.95 111.5 76.6 112.25 77.35 112.7 M17.3 112.05 Q16.6 110.4 16.25 108.65 L15.95 107.45 15.9 107.25 15.65 106.25 15.45 105.2 15.5 105.05 15.65 105.35 18.45 108.6 Q19.75 109.7 21.3 110.4 21.75 110.55 22.2 110.85 23.55 111.65 24.9 111.8 L25.05 111.85 25.4 112.15 26.0 113.0 26.15 113.25 26.3 113.4 26.4 113.6 26.75 113.25 27.2 112.4 27.3 112.2 27.5 111.85 28.8 109.55 29.05 109.75 31.1 111.0 30.35 112.15 29.7 113.25 28.75 114.55 28.4 114.8 25.1 115.0 23.3 114.75 21.2 114.2 Q19.15 113.25 17.35 112.1 L17.3 112.05 M1.2 88.7 L0.9 87.35 0.7 86.55 0.75 86.5 1.3 86.65 2.5 86.7 Q4.75 86.35 6.4 84.8 L7.35 84.1 7.55 84.4 5.45 87.1 4.55 88.2 3.15 88.7 Q2.1 88.9 1.2 88.7 M8.6 69.75 L9.75 68.65 11.6 67.1 Q12.3 68.0 12.8 69.15 13.7 71.05 13.85 73.15 14.0 74.5 13.75 75.8 L13.65 75.95 12.7 77.4 11.5 79.1 10.2 80.85 9.5 81.85 9.05 82.45 8.5 83.2 8.3 82.85 Q8.4 82.5 8.65 82.3 L9.35 81.3 10.45 79.45 10.7 79.2 11.0 78.55 11.1 78.35 11.2 78.1 11.4 77.55 11.35 77.3 11.65 76.45 11.75 76.05 11.7 75.15 11.65 74.8 11.5 73.55 11.5 73.35 11.6 73.1 12.05 69.95 11.75 69.4 11.4 69.35 Q9.95 69.25 8.6 69.75 M34.95 63.85 Q34.5 62.35 34.35 60.85 L33.85 58.15 Q33.45 56.4 33.3 54.5 L33.25 54.3 33.1 53.65 33.5 52.85 33.75 52.45 36.1 47.45 36.25 47.2 37.25 45.0 37.95 44.2 38.15 43.95 38.15 43.9 38.4 43.95 38.75 44.1 39.5 44.3 Q40.3 44.55 40.95 45.1 L41.2 45.2 Q41.8 45.35 41.65 45.75 L41.75 46.05 41.95 47.3 41.8 48.05 Q41.5 48.85 41.55 49.7 L41.5 51.2 Q41.4 51.85 41.45 52.4 L41.45 52.45 41.5 55.05 41.55 55.6 41.55 55.75 40.2 57.5 35.8 63.45 35.25 64.3 35.1 64.45 34.95 63.85 M40.25 41.45 Q41.1 41.35 41.6 40.25 L42.3 38.7 44.6 34.9 44.65 34.8 Q46.2 31.8 47.1 28.45 L47.75 25.55 48.1 22.75 48.05 19.3 48.2 19.1 49.35 19.1 Q51.55 19.15 53.5 20.1 L54.1 20.4 Q54.75 20.6 55.35 21.1 L55.6 21.4 56.25 22.55 56.65 23.3 56.7 23.65 Q56.95 25.05 55.8 26.4 L55.55 27.0 54.2 29.9 Q53.1 31.85 52.6 33.85 L52.55 34.05 Q52.0 35.85 51.7 37.75 L50.85 41.9 50.7 42.7 50.35 45.1 48.6 47.15 46.1 50.15 45.8 50.5 44.2 52.5 44.1 52.65 44.0 52.45 44.0 49.6 43.95 48.5 43.75 47.25 43.75 46.95 43.05 45.35 42.0 43.65 41.75 43.2 40.25 41.45 M53.5 12.6 L54.95 10.95 58.25 7.5 61.3 4.75 61.7 4.25 64.35 4.1 65.25 4.35 67.6 4.9 68.1 5.1 69.75 6.9 70.15 7.75 Q71.5 11.1 70.9 14.85 L70.75 15.85 69.9 19.0 69.85 19.05 68.85 22.3 67.45 24.1 63.9 28.4 61.75 31.1 59.9 33.45 Q58.05 35.6 56.35 37.85 L56.15 38.05 56.3 36.65 56.85 34.1 57.0 33.5 57.7 31.15 58.8 28.15 60.65 24.45 62.5 21.75 61.55 20.8 60.35 19.5 58.0 17.2 55.65 15.15 Q54.35 14.05 53.5 12.6 M55.7 50.65 Q54.0 51.45 52.45 52.6 L50.65 54.0 51.85 52.6 52.15 52.25 55.15 48.95 55.7 50.65 M80.0 37.15 L77.35 37.4 Q71.65 38.3 66.55 41.15 L66.0 41.5 70.45 38.25 Q71.7 37.35 73.1 36.6 75.45 35.3 77.4 33.55 L77.9 33.05 78.2 33.6 78.7 34.7 80.0 37.15 M14.3 77.75 L15.25 76.7 15.6 76.2 15.75 76.1 Q17.45 76.1 18.9 76.85 L19.35 77.2 Q20.35 77.75 21.15 78.45 L22.75 80.05 24.05 81.9 25.1 83.95 Q25.85 85.35 25.95 86.85 L25.15 87.45 23.45 88.9 23.0 89.3 22.15 90.1 21.4 90.75 20.75 91.25 20.5 91.35 Q20.05 91.45 19.6 91.8 L20.85 89.9 21.15 89.5 21.6 88.4 21.95 87.1 22.05 86.6 21.95 86.25 21.45 84.3 21.15 82.55 20.2 79.25 19.7 78.15 19.6 78.0 19.45 77.9 18.75 77.45 18.55 77.35 17.85 77.1 17.7 77.1 15.8 77.35 15.0 77.6 14.3 77.75 M4.2 91.45 L4.2 91.65 Q4.6 94.1 6.55 95.45 L9.3 97.1 10.3 97.4 11.95 97.2 12.3 97.1 14.3 96.5 14.45 96.35 14.6 96.35 14.95 96.55 15.15 96.75 15.35 96.75 14.15 98.85 13.65 100.05 11.4 99.65 Q9.2 99.1 6.95 98.15 5.15 97.35 4.65 95.3 L4.35 94.1 3.95 91.95 3.95 91.85 4.2 91.45 M26.45 89.8 L26.6 89.65 26.75 89.55 28.35 89.35 29.6 89.2 31.75 89.25 Q33.55 89.3 35.15 90.2 37.0 91.2 38.55 92.55 L41.4 95.25 Q42.5 96.75 43.0 98.65 L43.45 101.45 43.5 101.6 43.5 102.05 Q43.05 102.1 42.6 102.3 L42.45 102.35 42.45 102.3 42.0 102.45 40.25 103.0 Q38.4 103.9 36.75 104.95 L36.6 105.1 36.25 105.3 34.7 106.55 34.25 107.05 33.75 107.65 33.0 108.55 32.3 109.35 31.35 107.35 31.5 107.2 31.9 106.65 31.95 106.55 32.0 106.35 32.65 105.3 33.15 104.45 33.2 104.1 33.4 103.7 34.35 100.85 34.55 100.15 35.15 97.6 35.2 97.3 35.35 96.55 35.8 94.8 36.0 92.3 35.1 90.85 35.0 90.75 34.8 90.65 34.5 90.55 32.1 89.85 28.4 89.5 27.55 89.5 26.65 89.7 26.45 89.8 M27.15 116.65 Q27.0 116.35 27.2 116.25 27.4 116.05 27.55 116.05 L28.6 115.85 29.45 115.75 Q30.9 118.4 32.9 120.6 L32.65 120.45 31.7 119.95 Q29.9 119.05 28.3 117.7 L27.4 117.05 27.15 116.65" fill="#7490b5" fill-rule="evenodd" stroke="none"/>
      <path d="M74.2 94.6 L75.3 95.5 Q74.2 96.6 73.95 98.25 73.8 99.4 73.95 100.55 74.1 101.9 74.65 103.1 L72.65 104.55 70.7 105.6 72.05 103.85 72.2 103.45 71.55 101.55 71.35 100.45 71.1 95.85 71.15 95.3 Q71.6 94.4 72.75 94.5 L74.2 94.6 M79.2 109.55 L79.1 110.05 78.9 110.45 78.85 110.7 77.35 112.7 Q76.6 112.25 75.95 111.5 74.65 110.0 74.0 108.1 L73.95 107.25 Q73.95 106.85 73.45 106.9 L71.4 106.85 71.55 106.75 72.05 106.45 Q73.85 105.65 75.25 104.5 L75.65 105.05 76.95 106.75 78.1 108.35 78.8 109.1 79.2 109.55 M0.75 86.5 L0.6 85.45 1.95 85.8 2.65 85.9 3.3 85.8 4.55 85.45 5.7 84.8 7.1 83.65 7.3 84.0 7.35 84.1 6.4 84.8 Q4.75 86.35 2.5 86.7 L1.3 86.65 0.75 86.5 M7.8 70.65 L8.6 69.75 Q9.95 69.25 11.4 69.35 L11.75 69.4 12.05 69.95 11.6 73.1 11.5 73.35 11.5 73.55 11.65 74.8 11.7 75.15 11.75 76.05 11.65 76.45 11.35 77.3 11.4 77.55 11.2 78.1 11.1 78.35 11.0 78.55 10.7 79.2 10.45 79.45 9.35 81.3 8.65 82.3 Q8.4 82.5 8.3 82.85 L8.0 82.6 8.35 82.15 8.8 81.6 9.2 81.15 9.4 80.85 10.15 79.6 10.65 78.4 10.7 78.3 11.0 77.1 11.15 76.35 11.1 76.3 11.15 75.85 Q11.4 74.75 10.85 73.7 L10.75 73.45 10.05 72.4 9.8 72.1 8.15 70.85 7.8 70.65 M38.15 43.9 L40.25 41.45 41.75 43.2 42.0 43.65 43.05 45.35 43.75 46.95 43.75 47.25 43.95 48.5 44.0 49.6 44.0 52.45 44.1 52.65 44.1 52.9 44.05 53.8 44.2 55.3 44.15 56.2 44.3 57.6 44.3 58.95 44.85 61.9 43.35 63.35 43.0 63.75 38.25 68.7 37.8 69.2 37.55 69.5 37.35 69.2 35.85 66.4 35.55 65.5 35.15 64.45 35.1 64.45 35.25 64.3 35.8 63.45 40.2 57.5 41.55 55.75 41.55 55.6 41.5 55.05 41.45 52.45 41.45 52.4 Q41.4 51.85 41.5 51.2 L41.55 49.7 Q41.5 48.85 41.8 48.05 L41.95 47.3 41.75 46.05 41.65 45.75 Q41.8 45.35 41.2 45.2 L40.95 45.1 Q40.3 44.55 39.5 44.3 L38.75 44.1 38.4 43.95 38.15 43.9 M48.2 19.1 L49.05 17.95 51.35 15.05 53.3 17.2 55.6 19.45 57.5 21.2 57.95 21.95 58.2 22.45 58.55 24.1 58.6 25.3 57.45 27.15 Q56.45 29.05 55.85 31.1 L55.15 33.65 54.9 34.7 54.25 38.65 53.95 40.7 53.8 42.55 53.75 43.95 53.95 44.6 54.4 46.4 54.65 47.25 54.95 48.3 55.15 48.95 52.15 52.25 51.85 52.6 50.65 54.0 52.45 52.6 Q54.0 51.45 55.7 50.65 L56.1 51.6 54.85 52.65 51.7 55.35 51.05 55.95 46.5 60.2 46.1 58.25 46.05 57.1 45.95 56.55 45.85 55.5 45.85 54.7 45.8 54.55 45.75 53.25 45.8 52.45 45.8 50.5 46.1 50.15 48.6 47.15 50.35 45.1 50.7 42.7 50.85 41.9 51.7 37.75 Q52.0 35.85 52.55 34.05 L52.6 33.85 Q53.1 31.85 54.2 29.9 L55.55 27.0 55.8 26.4 Q56.95 25.05 56.7 23.65 L56.65 23.3 56.25 22.55 55.6 21.4 55.35 21.1 Q54.75 20.6 54.1 20.4 L53.5 20.1 Q51.55 19.15 49.35 19.1 L48.2 19.1 M61.7 4.25 L66.5 0.0 66.8 0.2 66.25 0.55 66.25 0.85 67.0 2.1 69.45 5.1 71.9 7.75 72.95 8.85 72.9 11.2 73.0 14.2 73.35 17.65 73.4 18.45 73.55 19.45 74.15 23.1 74.3 23.65 74.35 23.65 75.05 26.45 75.55 28.0 76.3 29.6 77.55 32.3 77.9 33.05 77.4 33.55 Q75.45 35.3 73.1 36.6 71.7 37.35 70.45 38.25 L66.0 41.5 66.55 41.15 Q71.65 38.3 77.35 37.4 L80.0 37.15 80.75 38.5 80.2 39.0 78.65 39.35 73.25 40.85 Q70.75 41.6 68.45 42.75 L67.65 43.15 65.9 44.1 65.2 44.5 62.3 46.6 61.35 47.45 57.35 50.55 56.95 50.0 56.95 49.85 56.9 49.75 56.3 47.25 55.9 45.25 55.8 45.05 55.65 42.5 Q55.65 41.6 55.8 40.7 L56.15 38.05 56.35 37.85 Q58.05 35.6 59.9 33.45 L61.75 31.1 63.9 28.4 67.45 24.1 68.85 22.3 69.85 19.05 69.9 19.0 70.75 15.85 70.9 14.85 Q71.5 11.1 70.15 7.75 L69.75 6.9 68.1 5.1 67.6 4.9 65.25 4.35 64.35 4.1 61.7 4.25 M100.5 62.9 L98.3 61.9 94.9 60.3 93.7 59.55 Q92.85 59.0 92.0 58.85 L91.7 58.9 91.5 58.95 88.75 59.75 87.95 60.0 87.15 60.2 84.45 60.9 84.35 61.0 80.25 61.6 78.9 61.7 74.8 62.2 74.0 62.25 Q72.45 63.0 70.85 63.25 71.7 62.3 72.85 61.45 L75.55 61.3 78.85 60.85 81.2 60.35 82.15 60.05 85.55 59.3 89.5 57.95 Q90.7 57.6 91.8 56.85 92.3 56.55 92.95 56.4 93.95 57.55 95.25 58.6 L98.35 61.2 100.5 62.9 M60.6 41.45 L59.65 42.45 58.1 44.25 60.1 42.4 63.4 39.65 67.1 36.9 68.4 35.9 Q69.95 34.8 71.65 34.0 L72.95 33.35 73.7 32.9 74.35 32.3 Q75.25 31.5 75.85 30.5 L74.8 27.15 74.05 24.4 73.4 25.55 72.4 27.15 70.15 30.35 67.85 33.25 67.35 33.85 65.3 36.35 62.4 39.6 60.6 41.45 M52.2 48.55 L50.05 51.95 49.6 52.5 47.65 55.0 50.5 52.55 50.8 52.3 54.15 49.55 54.25 49.45 54.2 49.15 53.8 47.25 53.5 45.85 53.15 46.35 52.85 47.2 52.2 48.55 M14.3 77.75 L15.0 77.6 15.8 77.35 17.7 77.1 17.85 77.1 18.55 77.35 18.75 77.45 19.45 77.9 19.6 78.0 19.7 78.15 20.2 79.25 21.15 82.55 21.45 84.3 21.95 86.25 22.05 86.6 21.95 87.1 21.6 88.4 21.15 89.5 20.85 89.9 19.6 91.8 19.5 91.95 17.75 93.8 17.65 94.0 17.55 93.85 17.4 93.55 17.15 93.1 17.65 92.65 20.0 89.35 20.7 87.95 20.8 87.35 Q21.15 86.3 20.85 85.35 L20.65 84.8 20.35 83.9 20.1 83.15 19.15 81.5 18.9 81.1 17.3 79.9 16.7 79.6 Q16.25 79.3 15.7 79.3 L14.8 79.2 12.85 79.4 13.8 78.35 14.3 77.75 M4.2 91.45 L4.15 91.3 4.3 91.15 5.15 92.65 5.3 92.9 6.0 93.5 6.25 93.9 7.05 94.5 8.65 95.15 9.05 95.35 9.6 95.55 11.4 95.85 11.8 95.75 12.95 95.7 13.7 95.5 14.3 95.25 14.5 95.1 15.2 94.7 Q15.25 94.6 15.35 94.6 L16.1 95.8 15.6 96.45 15.35 96.75 15.15 96.75 14.95 96.55 14.6 96.35 14.45 96.35 14.3 96.5 12.3 97.1 11.95 97.2 10.3 97.4 9.3 97.1 6.55 95.45 Q4.6 94.1 4.2 91.65 L4.2 91.45 M26.45 89.8 L26.65 89.7 27.55 89.5 28.4 89.5 32.1 89.85 34.5 90.55 34.8 90.65 35.0 90.75 35.1 90.85 36.0 92.3 35.8 94.8 35.35 96.55 35.2 97.3 35.15 97.6 34.55 100.15 34.35 100.85 33.4 103.7 33.2 104.1 33.15 104.45 32.65 105.3 32.0 106.35 31.95 106.55 31.9 106.65 31.5 107.2 31.35 107.35 32.3 109.35 30.05 107.35 29.05 106.25 29.1 106.2 29.5 105.95 30.35 104.85 30.8 104.35 30.9 104.2 31.3 103.65 32.15 102.4 32.8 100.9 32.95 100.3 33.15 99.05 33.15 98.3 33.1 97.95 32.95 96.95 32.55 95.75 31.9 94.35 30.6 92.5 30.15 92.1 29.35 91.65 28.15 90.8 27.5 90.5 27.1 90.35 26.0 90.05 26.25 89.9 26.4 89.85 26.45 89.8 M64.95 62.95 L65.0 63.0 65.05 63.0 65.3 63.25 67.55 64.75 68.15 65.2 69.75 66.15 70.0 66.35 70.2 66.5 Q71.15 66.75 72.05 67.15 L72.7 67.35 73.2 67.6 73.05 67.55 71.4 67.2 71.25 67.15 Q69.6 66.65 67.85 66.5 L67.4 66.55 Q65.55 66.85 63.9 67.85 L63.45 68.05 Q62.95 68.35 62.4 68.6 L62.05 68.8 Q59.85 69.95 57.8 71.5 L59.25 70.3 61.25 68.8 62.2 68.15 62.85 67.55 64.25 66.4 65.95 64.8 64.9 63.4 64.85 63.2 64.75 63.05 64.75 62.85 64.8 62.9 64.95 62.95 M43.6 57.8 L43.45 57.1 43.25 57.75 42.8 58.7 42.15 60.05 41.7 60.7 41.65 60.75 40.9 61.95 40.25 62.95 40.75 62.45 41.4 61.85 41.95 61.35 42.6 60.65 43.6 59.5 43.8 59.2 43.75 58.55 43.6 57.8 M53.8 74.2 L55.45 75.4 58.7 77.25 59.2 77.45 58.25 77.35 57.15 77.05 56.05 76.8 54.1 76.15 54.0 76.2 52.8 76.7 Q52.3 76.85 51.75 77.15 L49.7 77.85 49.55 77.85 51.35 76.15 53.8 74.2 M28.8 109.55 L27.5 111.85 27.3 112.2 27.2 112.4 26.75 113.25 26.4 113.6 26.3 113.4 26.15 113.25 26.0 113.0 25.4 112.15 25.05 111.85 24.9 111.8 Q23.55 111.65 22.2 110.85 21.75 110.55 21.3 110.4 19.75 109.7 18.45 108.6 L15.65 105.35 15.5 105.05 15.45 104.7 15.5 104.85 16.05 105.45 17.85 107.0 18.45 107.45 20.1 108.1 21.3 108.5 22.65 108.55 23.25 108.45 23.55 108.45 24.75 108.35 24.9 108.25 26.75 107.5 28.4 109.2 28.8 109.55" fill="#b8d5e5" fill-rule="evenodd" stroke="none"/>
      <path d="M87.15 69.25 Q85.4 69.15 84.75 69.95 L84.5 70.35 84.3 70.9 83.6 70.55 83.2 70.35 80.6 69.1 79.8 69.0 78.5 68.8 76.55 68.45 73.5 67.65 73.35 67.65 73.2 67.6 72.7 67.35 72.05 67.15 Q71.15 66.75 70.2 66.5 L70.0 66.35 69.75 66.15 68.15 65.2 67.55 64.75 65.3 63.25 65.05 63.0 65.0 63.0 64.95 62.95 64.2 62.3 63.9 62.05 60.8 58.9 59.15 56.85 58.8 56.35 58.35 55.8 Q57.3 54.35 56.6 52.75 L56.5 52.45 56.1 51.6 55.7 50.65 55.15 48.95 54.95 48.3 54.65 47.25 54.4 46.4 53.95 44.6 53.75 43.95 53.8 42.55 53.95 40.7 54.25 38.65 54.9 34.7 55.15 33.65 55.85 31.1 Q56.45 29.05 57.45 27.15 L58.6 25.3 58.55 24.1 58.2 22.45 57.95 21.95 57.5 21.2 55.6 19.45 53.3 17.2 51.35 15.05 52.5 14.6 Q53.3 14.25 53.5 12.6 54.35 14.05 55.65 15.15 L58.0 17.2 60.35 19.5 61.55 20.8 62.5 21.75 60.65 24.45 58.8 28.15 57.7 31.15 57.0 33.5 56.85 34.1 56.3 36.65 56.15 38.05 55.8 40.7 Q55.65 41.6 55.65 42.5 L55.8 45.05 55.9 45.25 56.3 47.25 56.9 49.75 56.95 49.85 56.95 50.0 57.35 50.55 58.65 52.8 59.0 53.25 61.5 56.85 61.7 57.15 Q62.95 58.85 64.55 60.2 L66.7 62.0 68.35 63.3 68.7 63.45 Q70.35 64.5 72.1 65.35 L76.4 66.5 76.65 66.5 78.15 66.7 80.0 66.8 80.8 67.15 80.95 67.2 83.5 68.1 84.3 68.35 85.85 68.85 87.15 69.25 M70.8 79.8 Q68.35 79.95 68.35 80.5 L68.3 81.25 67.9 81.1 66.25 80.5 63.3 79.4 59.5 77.65 59.4 77.55 59.2 77.45 58.7 77.25 55.45 75.4 53.8 74.2 53.4 73.85 53.25 73.7 53.0 73.5 Q51.65 72.35 50.6 71.0 L50.3 70.55 49.85 70.05 49.25 69.45 48.5 68.7 48.35 68.35 47.85 67.75 Q46.55 65.9 45.6 63.95 L45.4 63.55 45.15 63.05 44.85 61.9 44.3 58.95 44.3 57.6 44.15 56.2 44.2 55.3 44.05 53.8 44.1 52.9 44.1 52.65 44.2 52.5 45.8 50.5 45.8 52.45 45.75 53.25 45.8 54.55 45.85 54.7 45.85 55.5 45.95 56.55 46.05 57.1 46.1 58.25 46.5 60.2 46.7 60.6 47.55 62.85 47.75 63.5 48.85 65.6 49.8 66.85 50.85 68.15 51.35 68.55 53.1 70.4 54.0 71.3 56.0 73.05 56.1 73.1 59.45 75.45 61.4 76.35 61.85 76.6 62.05 76.7 62.65 77.0 63.45 77.35 64.2 77.8 65.2 78.15 69.05 79.4 70.8 79.8" fill="#45608b" fill-rule="evenodd" stroke="none"/>
      <path d="M60.6 41.45 L62.4 39.6 65.3 36.35 67.35 33.85 67.85 33.25 70.15 30.35 72.4 27.15 73.4 25.55 74.05 24.4 74.8 27.15 75.85 30.5 Q75.25 31.5 74.35 32.3 L73.7 32.9 72.95 33.35 71.65 34.0 Q69.95 34.8 68.4 35.9 L67.1 36.9 63.4 39.65 60.1 42.4 58.1 44.25 59.65 42.45 60.6 41.45 M52.2 48.55 L52.85 47.2 53.15 46.35 53.5 45.85 53.8 47.25 54.2 49.15 54.25 49.45 54.15 49.55 50.8 52.3 50.5 52.55 47.65 55.0 49.6 52.5 50.05 51.95 52.2 48.55 M43.6 57.8 L43.75 58.55 43.8 59.2 43.6 59.5 42.6 60.65 41.95 61.35 41.4 61.85 40.75 62.45 40.25 62.95 40.9 61.95 41.65 60.75 41.7 60.7 42.15 60.05 42.8 58.7 43.25 57.75 43.45 57.1 43.6 57.8" fill="#ffffff" fill-rule="evenodd" stroke="none"/>
      <path d="M64.65 82.95 L65.3 83.1 Q66.8 86.1 69.15 88.55 L69.55 88.95 68.15 90.0 65.75 92.0 63.15 94.6 60.75 97.25 60.45 97.55 58.95 97.95 56.1 98.6 52.0 99.25 51.2 99.35 50.2 96.75 49.95 96.1 48.6 93.15 48.25 92.3 47.6 91.35 47.05 90.65 45.2 88.75 42.9 86.9 Q41.15 85.6 39.05 84.65 L36.45 83.7 33.3 82.7 32.8 81.45 32.5 80.9 31.3 78.9 29.6 76.65 26.35 73.6 Q24.8 72.3 23.1 71.25 L20.4 69.6 20.4 69.25 20.05 65.5 19.45 63.3 18.4 60.05 20.45 60.45 26.05 61.55 26.9 61.5 33.25 58.85 33.25 59.1 33.45 60.05 33.8 60.95 34.15 62.05 34.55 62.95 34.9 63.8 34.95 63.85 35.1 64.45 35.15 64.45 35.55 65.5 35.85 66.4 37.35 69.2 37.55 69.5 39.85 72.45 40.75 73.4 43.4 76.0 44.95 77.45 48.9 80.55 50.05 81.25 51.05 81.9 53.3 83.2 58.05 83.55 62.25 83.3 64.3 83.1 64.65 82.95" fill="#701f1c" fill-rule="evenodd" stroke="none"/>
      <path d="M17.95 60.05 L18.2 60.1 18.4 60.05 19.45 63.3 20.05 65.5 20.4 69.25 20.4 69.6 23.1 71.25 Q24.8 72.3 26.35 73.6 L29.6 76.65 31.3 78.9 32.5 80.9 32.8 81.45 33.0 82.65 33.3 82.7 36.45 83.7 39.05 84.65 Q41.15 85.6 42.9 86.9 L45.2 88.75 47.05 90.65 47.6 91.35 48.4 93.05 46.05 90.7 45.4 90.0 43.9 88.85 42.75 88.25 40.65 87.3 40.15 87.1 38.35 86.5 37.65 86.25 Q36.35 85.75 35.05 85.6 L33.4 85.4 32.8 85.35 32.9 85.25 33.0 85.1 32.85 84.25 32.75 84.15 32.3 82.4 32.6 82.55 32.4 82.15 32.3 82.05 32.15 81.75 31.95 81.4 31.55 81.15 31.3 80.8 29.95 79.5 28.35 78.15 27.2 77.05 23.45 74.55 23.15 74.4 19.5 74.3 16.6 74.35 16.55 74.05 16.85 73.4 Q17.7 71.95 18.15 70.35 L18.7 68.35 18.95 67.15 Q19.1 64.9 18.65 62.8 L17.95 60.05" fill="#e1928e" fill-rule="evenodd" stroke="none"/>
      <path d="M69.55 88.95 L69.6 89.0 69.15 89.4 69.15 89.7 69.0 90.25 68.6 92.7 66.3 94.95 63.9 97.75 Q62.3 99.85 61.05 102.25 L60.55 103.2 60.45 103.35 59.1 104.2 58.85 104.35 54.7 105.05 Q52.15 105.65 49.85 106.7 L47.5 105.65 47.35 104.75 47.3 104.5 46.65 101.15 Q46.0 97.9 44.2 95.05 42.4 92.15 39.6 90.05 37.9 88.75 35.7 88.3 32.65 87.5 28.55 88.3 L28.4 88.2 28.25 86.55 28.25 86.4 Q27.8 83.75 26.5 81.45 L25.15 79.55 22.8 77.15 21.9 76.6 Q20.7 75.85 18.5 75.25 L17.9 75.05 16.85 74.8 16.75 74.75 16.6 74.35 19.5 74.3 23.15 74.4 23.45 74.55 27.2 77.05 28.35 78.15 29.95 79.5 31.3 80.8 31.55 81.15 31.95 81.4 32.15 81.75 32.3 82.05 32.3 82.4 32.75 84.15 32.85 84.25 33.0 85.1 32.9 85.25 32.8 85.35 33.4 85.4 35.05 85.6 Q36.35 85.75 37.65 86.25 L38.35 86.5 40.15 87.1 40.65 87.3 42.75 88.25 43.9 88.85 45.4 90.0 46.05 90.7 48.4 93.05 47.6 91.35 48.25 92.3 48.6 93.15 49.95 96.1 50.2 96.75 51.2 99.35 52.0 99.25 56.1 98.6 58.95 97.95 60.45 97.55 60.75 97.25 63.15 94.6 65.75 92.0 68.15 90.0 69.55 88.95 M13.75 65.3 L13.4 64.65 15.3 62.1 Q16.3 60.9 17.6 60.0 L17.95 60.05 18.65 62.8 Q19.1 64.9 18.95 67.15 L18.7 68.35 18.15 70.35 Q17.7 71.95 16.85 73.4 L16.55 74.05 16.2 72.9 15.5 70.25 14.7 67.5 13.75 65.3" fill="#b34342" fill-rule="evenodd" stroke="none"/>
      <path d="M79.15 99.1 L79.15 99.25 79.75 100.05 80.2 101.3 79.45 102.35 79.85 103.65 80.0 106.1 80.0 106.6 79.45 107.3 79.35 107.5 79.1 107.75 78.95 107.6 77.95 106.55 77.45 105.85 76.95 105.2 76.5 104.45 76.0 103.55 75.7 102.7 75.35 101.75 Q75.2 101.3 75.2 100.85 L75.1 99.95 75.05 99.2 75.1 97.85 75.2 97.45 76.55 98.0 Q76.0 98.8 76.05 99.8 L76.25 100.8 Q76.4 101.2 76.8 101.4 L77.3 101.35 78.05 100.8 78.55 100.15 79.15 99.1 M0.0 80.2 L0.2 79.65 Q0.2 79.25 0.35 78.8 0.65 78.1 1.1 77.35 L1.65 76.3 Q2.8 74.35 4.8 73.1 L5.0 72.95 5.15 73.0 5.2 73.0 6.45 73.2 7.4 73.75 Q7.85 74.25 7.9 74.8 8.0 76.0 7.7 77.15 L7.55 77.85 6.95 79.9 6.15 81.4 4.35 83.65 4.15 83.9 3.35 84.15 3.2 84.1 Q2.15 84.5 1.25 83.75 L0.95 83.5 0.35 82.5 0.0 80.2 M10.15 82.45 L11.7 82.1 12.3 82.0 13.3 81.95 14.8 82.35 15.75 83.25 Q16.4 84.05 16.6 85.0 L16.8 85.8 16.7 87.0 16.2 88.65 15.3 90.3 15.05 90.8 13.05 93.2 12.8 93.5 12.6 93.75 12.3 93.85 11.25 93.9 10.9 93.8 9.75 93.55 9.45 93.5 7.9 92.85 6.9 91.7 6.65 91.15 6.45 90.55 Q6.3 88.7 6.85 87.15 L6.9 87.0 7.25 86.25 Q7.55 85.5 8.0 84.85 L8.9 83.75 9.15 83.5 9.9 82.75 9.95 82.65 10.15 82.45 M10.2 85.0 L9.6 84.4 9.3 84.3 9.05 84.7 8.75 85.25 8.75 85.55 Q8.75 86.35 9.25 86.95 L11.05 88.95 11.5 89.55 12.85 90.8 Q13.15 91.1 13.35 90.8 13.7 90.2 13.65 89.65 L13.35 89.15 12.95 88.8 11.6 87.1 11.2 86.5 10.2 85.0 M5.6 79.15 L5.35 78.65 5.1 78.45 4.7 77.95 3.8 76.65 3.4 76.25 3.3 76.0 3.2 76.15 2.9 76.65 2.85 76.85 2.75 77.85 2.9 78.3 3.15 78.9 3.25 79.45 3.35 79.6 Q3.55 80.25 4.1 80.9 L4.6 81.55 4.65 81.65 5.45 79.9 5.6 79.15 M22.3 106.55 L20.75 106.35 Q18.7 105.85 17.6 104.0 L17.55 103.95 17.2 103.05 17.2 102.95 16.9 100.75 16.95 99.9 17.0 99.25 17.5 97.35 Q17.85 96.25 18.45 95.35 L18.6 95.15 18.8 94.95 19.4 94.25 19.95 93.8 21.65 92.45 22.3 92.1 23.05 92.0 Q24.95 91.95 26.55 93.0 28.25 94.15 28.7 96.05 29.05 97.7 28.75 99.3 28.55 100.7 27.7 101.8 L27.55 102.1 27.05 102.75 26.0 103.9 Q25.2 104.75 24.2 105.4 L22.95 106.1 22.3 106.55 M19.25 96.9 L20.2 98.5 Q21.0 100.05 22.35 101.2 L22.8 101.55 23.8 102.25 24.65 102.95 24.9 103.2 25.2 103.45 25.6 102.05 25.5 101.65 25.45 101.45 25.0 100.85 24.45 100.35 24.15 99.95 21.4 96.6 21.2 96.25 20.75 95.8 20.55 95.55 20.45 95.45 20.4 95.45 19.5 96.1 Q18.95 96.5 19.25 96.9 M78.55 100.15 L77.35 102.15 77.2 102.4 77.45 102.8 77.65 103.0 78.05 104.15 78.25 104.1 79.45 102.35 78.55 100.15" fill="#b1c8d8" fill-rule="evenodd" stroke="none"/>
      <path d="M69.15 89.7 Q70.85 92.1 73.2 93.85 L72.15 93.75 Q71.35 93.8 70.75 94.25 70.1 94.7 69.8 95.35 L69.3 97.05 Q68.95 98.9 69.0 100.75 L68.8 103.35 Q68.65 104.25 68.85 105.15 L69.1 106.2 69.35 106.1 69.5 106.05 70.7 105.6 72.65 104.55 74.65 103.1 Q74.1 101.9 73.95 100.55 73.8 99.4 73.95 98.25 74.2 96.6 75.3 95.5 L76.0 96.1 76.6 96.7 76.35 96.6 75.8 96.7 Q75.4 96.7 75.35 97.1 L75.2 97.45 75.1 97.85 75.05 99.2 75.1 99.95 75.2 100.85 Q75.2 101.3 75.35 101.75 L75.7 102.7 76.0 103.55 76.5 104.45 76.95 105.2 77.45 105.85 77.95 106.55 78.95 107.6 79.1 107.75 79.35 107.5 79.45 107.3 79.45 108.1 79.2 109.55 78.8 109.1 78.1 108.35 76.95 106.75 75.65 105.05 75.25 104.5 Q73.85 105.65 72.05 106.45 L71.55 106.75 71.4 106.85 70.45 107.2 71.55 108.9 71.45 109.1 71.25 110.85 70.9 114.7 71.1 117.1 71.5 118.8 Q71.75 119.35 72.1 119.4 L71.2 120.7 68.6 123.85 Q67.5 125.15 67.25 124.5 66.2 123.5 65.5 122.2 L64.7 120.45 Q64.3 119.4 64.2 118.2 L64.4 116.0 Q64.7 114.0 65.75 112.3 L67.0 110.3 68.45 108.1 68.4 108.05 66.45 106.5 65.5 105.75 63.0 104.15 Q61.8 103.45 60.55 103.2 L61.05 102.25 Q62.3 99.85 63.9 97.75 L66.3 94.95 68.6 92.7 69.0 90.25 69.15 89.7 M47.3 104.5 L46.55 105.6 45.35 107.1 45.25 107.25 44.9 107.55 Q44.35 107.8 43.9 108.15 43.15 108.5 42.5 108.8 L38.55 110.7 35.85 112.0 35.45 112.2 35.3 112.15 35.35 112.95 Q35.4 115.05 35.85 117.15 L35.9 117.55 35.95 117.7 Q36.6 117.95 37.15 118.45 L38.15 119.45 39.3 120.75 Q39.9 121.45 40.05 122.5 40.0 123.15 40.3 123.95 40.5 124.75 39.95 124.95 37.05 126.45 33.75 127.05 L33.35 127.2 31.75 126.5 30.9 126.2 Q28.5 125.1 26.35 123.5 L25.7 123.05 25.45 122.9 22.05 120.35 21.2 119.6 20.75 118.9 18.45 114.65 18.25 114.25 Q17.6 113.15 17.3 112.05 L17.35 112.1 Q19.15 113.25 21.2 114.2 L23.3 114.75 25.1 115.0 28.4 114.8 28.75 114.55 29.7 113.25 30.35 112.15 31.1 111.0 29.05 109.75 28.8 109.55 28.4 109.2 26.75 107.5 24.9 108.25 24.75 108.35 23.55 108.45 23.25 108.45 22.65 108.55 21.3 108.5 20.1 108.1 18.45 107.45 17.85 107.0 16.05 105.45 15.5 104.85 15.45 104.7 15.4 104.45 15.35 104.85 15.5 105.05 15.45 105.2 15.65 106.25 15.9 107.25 15.95 107.45 15.2 107.35 13.75 107.2 13.35 107.2 12.95 107.1 Q11.85 107.05 10.95 106.4 L9.65 105.3 8.0 103.9 7.05 103.0 6.05 101.85 5.6 101.5 4.1 97.65 3.85 96.6 3.2 94.75 3.2 94.6 2.9 93.4 2.85 93.15 2.6 92.85 1.8 91.2 1.7 90.95 1.35 89.25 1.2 88.7 Q2.1 88.9 3.15 88.7 L4.55 88.2 5.45 87.1 7.55 84.4 7.35 84.1 7.3 84.0 7.1 83.65 5.7 84.8 4.55 85.45 3.3 85.8 2.65 85.9 1.95 85.8 0.6 85.45 Q0.4 83.95 0.35 82.5 L0.95 83.5 1.25 83.75 Q2.15 84.5 3.2 84.1 L3.35 84.15 4.15 83.9 4.2 83.85 4.65 83.65 6.25 82.5 6.95 81.8 7.0 81.75 8.0 80.65 8.55 79.95 9.6 77.65 9.6 77.55 9.75 76.65 9.7 76.2 9.6 75.2 Q9.65 74.05 8.7 73.5 L8.35 73.25 8.2 73.1 7.55 72.6 7.25 72.45 6.95 72.3 6.3 72.25 7.55 70.85 7.8 70.65 8.15 70.85 9.8 72.1 10.05 72.4 10.75 73.45 10.85 73.7 Q11.4 74.75 11.15 75.85 L11.1 76.3 11.15 76.35 11.0 77.1 10.7 78.3 10.65 78.4 10.15 79.6 9.4 80.85 9.2 81.15 8.8 81.6 8.35 82.15 8.0 82.6 8.3 82.85 8.5 83.2 9.05 82.45 9.5 81.85 10.2 80.85 11.5 79.1 12.7 77.4 13.65 75.95 13.75 75.8 Q14.0 74.5 13.85 73.15 13.7 71.05 12.8 69.15 12.3 68.0 11.6 67.1 L12.15 66.55 13.75 65.3 14.7 67.5 15.5 70.25 16.2 72.9 16.55 74.05 16.6 74.35 16.75 74.75 16.85 74.8 17.9 75.05 18.5 75.25 Q20.7 75.85 21.9 76.6 L22.8 77.15 25.15 79.55 26.5 81.45 Q27.8 83.75 28.25 86.4 L28.25 86.55 28.4 88.2 28.55 88.3 Q32.65 87.5 35.7 88.3 37.9 88.75 39.6 90.05 42.4 92.15 44.2 95.05 46.0 97.9 46.65 101.15 L47.3 104.5 M19.6 91.8 Q20.05 91.45 20.5 91.35 L20.75 91.25 21.4 90.75 22.15 90.1 23.0 89.3 23.45 88.9 25.15 87.45 25.95 86.85 Q25.85 85.35 25.1 83.95 L24.05 81.9 22.75 80.05 21.15 78.45 Q20.35 77.75 19.35 77.2 L18.9 76.85 Q17.45 76.1 15.75 76.1 L15.6 76.2 15.25 76.7 14.3 77.75 13.8 78.35 12.85 79.4 14.8 79.2 15.7 79.3 Q16.25 79.3 16.7 79.6 L17.3 79.9 18.9 81.1 19.15 81.5 20.1 83.15 20.35 83.9 20.65 84.8 20.85 85.35 Q21.15 86.3 20.8 87.35 L20.7 87.95 20.0 89.35 17.65 92.65 17.15 93.1 17.4 93.55 17.55 93.85 17.65 94.0 17.75 94.2 17.95 94.05 18.15 93.75 18.15 93.7 18.65 93.15 19.6 91.8 M12.6 93.75 L13.35 93.5 15.9 91.85 17.1 90.65 17.85 89.9 18.8 88.4 19.3 87.2 19.6 86.55 19.6 85.45 Q19.5 84.7 19.05 83.85 L18.95 83.6 17.6 82.05 17.25 81.75 16.45 81.2 Q15.9 80.75 15.3 80.7 L14.85 80.6 14.8 80.55 Q14.65 80.55 14.6 80.65 L13.9 80.7 13.5 80.85 12.2 81.35 10.45 82.25 10.15 82.45 9.95 82.65 9.9 82.75 9.15 83.5 8.9 83.75 8.0 84.85 Q7.55 85.5 7.25 86.25 L6.9 87.0 6.85 87.15 Q6.3 88.7 6.45 90.55 L6.65 91.15 6.9 91.7 7.9 92.85 9.45 93.5 9.75 93.55 10.9 93.8 11.25 93.9 12.3 93.85 12.6 93.75 M15.35 96.75 L15.6 96.45 16.1 95.8 15.35 94.6 Q15.25 94.6 15.2 94.7 L14.5 95.1 14.3 95.25 13.7 95.5 12.95 95.7 11.8 95.75 11.4 95.85 9.6 95.55 9.05 95.35 8.65 95.15 7.05 94.5 6.25 93.9 6.0 93.5 5.3 92.9 5.15 92.65 4.3 91.15 4.15 91.3 4.2 91.45 3.95 91.85 3.95 91.95 4.35 94.1 4.65 95.3 Q5.15 97.35 6.95 98.15 9.2 99.1 11.4 99.65 L13.65 100.05 14.15 98.85 15.35 96.75 M22.3 92.1 L21.65 92.45 19.95 93.8 19.4 94.25 18.8 94.95 18.6 95.15 18.45 95.35 Q17.85 96.25 17.5 97.35 L17.0 99.25 16.95 99.9 16.9 100.75 17.2 102.95 17.2 103.05 17.55 103.95 17.6 104.0 Q18.7 105.85 20.75 106.35 L22.3 106.55 Q23.75 106.45 25.05 105.7 L25.35 105.6 25.5 105.5 Q27.3 104.5 28.8 103.2 L28.8 103.15 28.95 103.05 30.45 101.05 30.65 100.65 31.15 98.15 31.2 97.5 31.1 96.75 30.85 95.85 30.8 95.8 30.75 95.35 30.7 95.2 30.6 95.0 30.4 94.7 30.25 94.45 29.95 94.15 29.3 93.6 29.2 93.4 29.1 93.25 28.9 93.05 28.8 93.0 28.35 92.8 27.5 92.2 27.15 92.0 26.5 91.75 26.0 91.65 25.45 91.5 24.25 91.5 23.65 91.6 Q22.9 91.6 22.3 92.05 L22.3 92.1 M43.5 102.05 L43.5 101.6 43.45 101.45 43.0 98.65 Q42.5 96.75 41.4 95.25 L38.55 92.55 Q37.0 91.2 35.15 90.2 33.55 89.3 31.75 89.25 L29.6 89.2 28.35 89.35 26.75 89.55 26.6 89.65 26.45 89.8 26.4 89.85 26.25 89.9 26.0 90.05 27.1 90.35 27.5 90.5 28.15 90.8 29.35 91.65 30.15 92.1 30.6 92.5 31.9 94.35 32.55 95.75 32.95 96.95 33.1 97.95 33.15 98.3 33.15 99.05 32.95 100.3 32.8 100.9 32.15 102.4 31.3 103.65 30.9 104.2 30.8 104.35 30.35 104.85 29.5 105.95 29.1 106.2 29.05 106.25 30.05 107.35 32.3 109.35 33.0 108.55 33.75 107.65 34.25 107.05 34.7 106.55 36.25 105.3 36.6 105.1 36.75 104.95 Q38.4 103.9 40.25 103.0 L42.0 102.45 42.45 102.3 42.45 102.35 42.6 102.3 42.65 102.3 43.05 102.2 43.5 102.25 43.5 102.05 M27.15 116.65 L27.4 117.05 28.3 117.7 Q29.9 119.05 31.7 119.95 L32.65 120.45 32.9 120.6 Q30.9 118.4 29.45 115.75 L28.6 115.85 27.55 116.05 Q27.4 116.05 27.2 116.25 27.0 116.35 27.15 116.65" fill="#556893" fill-rule="evenodd" stroke="none"/>
      <path d="M77.1 96.95 L77.95 97.7 78.55 98.4 79.05 99.0 79.15 99.1 78.55 100.15 78.05 100.8 77.3 101.35 76.8 101.4 Q76.4 101.2 76.25 100.8 L76.05 99.8 Q76.0 98.8 76.55 98.0 L75.2 97.45 75.35 97.1 Q75.4 96.7 75.8 96.7 L76.35 96.6 76.6 96.7 77.1 96.95 M80.2 101.3 L80.45 102.05 80.65 103.0 80.65 104.8 80.45 105.6 80.1 106.3 80.0 106.6 80.0 106.1 79.85 103.65 79.45 102.35 80.2 101.3 M5.0 72.95 L5.15 72.9 6.1 72.5 6.95 72.3 7.25 72.45 7.55 72.6 8.2 73.1 8.35 73.25 8.7 73.5 Q9.65 74.05 9.6 75.2 L9.7 76.2 9.75 76.65 9.6 77.55 9.6 77.65 8.55 79.95 8.0 80.65 7.0 81.75 6.95 81.8 6.25 82.5 4.65 83.65 4.2 83.85 4.15 83.9 4.35 83.65 6.15 81.4 6.95 79.9 7.55 77.85 7.7 77.15 Q8.0 76.0 7.9 74.8 7.85 74.25 7.4 73.75 L6.45 73.2 5.2 73.0 5.15 73.0 5.0 72.95 M10.15 82.45 L10.45 82.25 12.2 81.35 13.5 80.85 13.9 80.7 14.6 80.65 Q14.65 80.55 14.8 80.55 L14.85 80.6 15.3 80.7 Q15.9 80.75 16.45 81.2 L17.25 81.75 17.6 82.05 18.95 83.6 19.05 83.85 Q19.5 84.7 19.6 85.45 L19.6 86.55 19.3 87.2 18.8 88.4 17.85 89.9 17.1 90.65 15.9 91.85 13.35 93.5 12.6 93.75 12.8 93.5 13.05 93.2 15.05 90.8 15.3 90.3 16.2 88.65 16.7 87.0 16.8 85.8 16.6 85.0 Q16.4 84.05 15.75 83.25 L14.8 82.35 13.3 81.95 12.3 82.0 11.7 82.1 10.15 82.45 M22.3 92.1 L22.3 92.05 22.75 91.8 23.65 91.6 24.25 91.5 25.45 91.5 26.0 91.65 26.5 91.75 27.15 92.0 27.5 92.2 28.35 92.8 28.8 93.0 28.9 93.05 29.1 93.25 29.2 93.4 29.3 93.6 29.95 94.15 30.25 94.45 30.4 94.7 30.6 95.0 30.7 95.2 30.75 95.35 30.8 95.8 30.85 95.85 31.1 96.75 31.2 97.5 31.15 98.15 30.65 100.65 30.45 101.05 28.95 103.05 28.8 103.15 28.8 103.2 Q27.3 104.5 25.5 105.5 L25.35 105.6 25.05 105.7 Q23.75 106.45 22.3 106.55 L22.95 106.1 24.2 105.4 Q25.2 104.75 26.0 103.9 L27.05 102.75 27.55 102.1 27.7 101.8 Q28.55 100.7 28.75 99.3 29.05 97.7 28.7 96.05 28.25 94.15 26.55 93.0 24.95 91.95 23.05 92.0 L22.3 92.1" fill="#e6f5f8" fill-rule="evenodd" stroke="none"/>
      <path d="M5.6 79.15 L5.45 79.9 4.65 81.65 4.6 81.55 4.1 80.9 Q3.55 80.25 3.35 79.6 L3.25 79.45 3.15 78.9 2.9 78.3 2.75 77.85 2.85 76.85 2.9 76.65 3.2 76.15 3.3 76.0 3.4 76.25 3.8 76.65 4.7 77.95 5.1 78.45 5.35 78.65 5.6 79.15 M10.2 85.0 L11.2 86.5 11.6 87.1 12.95 88.8 13.35 89.15 13.65 89.65 Q13.7 90.2 13.35 90.8 13.15 91.1 12.85 90.8 L11.5 89.55 11.05 88.95 9.25 86.95 Q8.75 86.35 8.75 85.55 L8.75 85.25 9.05 84.7 9.3 84.3 9.6 84.4 10.2 85.0 M19.25 96.9 Q18.95 96.5 19.5 96.1 L20.4 95.45 20.45 95.45 20.55 95.55 20.75 95.8 21.2 96.25 21.4 96.6 24.15 99.95 24.45 100.35 25.0 100.85 25.45 101.45 25.5 101.65 25.6 102.05 25.2 103.45 24.9 103.2 24.65 102.95 23.8 102.25 22.8 101.55 22.35 101.2 Q21.0 100.05 20.2 98.5 L19.25 96.9 M79.45 102.35 L78.25 104.1 78.05 104.15 77.65 103.0 77.45 102.8 77.2 102.4 77.35 102.15 78.55 100.15 79.45 102.35" fill="#7886a6" fill-rule="evenodd" stroke="none"/>
      <path d="M80.35 7.5 L84.1 7.35 84.95 7.3 Q87.85 7.2 90.5 8.2 92.3 8.85 94.0 9.65 L99.4 12.5 Q101.25 13.55 102.9 14.8 L104.5 17.7 107.45 23.2 110.05 29.25 111.9 35.05 113.45 40.7 114.5 46.25 113.35 47.7 109.55 52.5 108.7 53.55 108.45 53.85 106.1 56.45 105.8 56.75 Q103.25 58.45 102.25 59.25 L101.75 59.8 101.7 59.95 101.6 60.65 101.7 63.5 101.75 63.95 101.65 65.1 101.6 65.15 101.1 65.45 100.65 65.75 Q98.35 66.9 95.5 67.25 L95.1 67.35 90.0 67.9 Q89.35 68.15 88.8 68.5 L87.8 68.95 Q87.55 69.1 87.35 69.2 L87.2 69.3 87.15 69.25 Q85.4 69.15 84.75 69.95 L84.5 70.35 84.3 70.9 82.6 71.9 79.55 73.9 75.15 76.85 70.8 79.8 Q68.35 79.95 68.35 80.5 L68.3 81.25 67.05 81.85 64.65 82.95 65.3 83.1 Q66.8 86.1 69.15 88.55 L69.55 88.95 69.6 89.0 69.15 89.4 69.15 89.7 Q70.85 92.1 73.2 93.85 L73.4 94.0 74.2 94.6 75.3 95.5 76.0 96.1 76.6 96.7 76.85 96.85 77.1 96.95 77.95 97.7 78.55 98.4 79.05 99.0 79.15 99.1 79.15 99.25 79.75 100.05 80.2 101.3 80.45 102.05 80.65 103.0 80.65 104.8 80.45 105.6 80.1 106.3 80.0 106.6 79.45 107.3 79.45 108.1 79.2 109.55 79.1 110.05 78.9 110.45 78.85 110.7 77.35 112.7 76.2 114.05 Q74.75 115.5 73.7 117.1 L72.1 119.4 71.2 120.7 68.6 123.85 Q67.5 125.15 67.25 124.5 66.2 123.5 65.5 122.2 L64.7 120.45 Q64.3 119.4 64.2 118.2 L64.4 116.0 Q64.7 114.0 65.75 112.3 L67.0 110.3 68.45 108.1 68.4 108.05 66.45 106.5 65.5 105.75 63.0 104.15 Q61.8 103.45 60.55 103.2 L60.45 103.35 59.1 104.2 58.85 104.35 54.7 105.05 Q52.15 105.65 49.85 106.7 L47.5 105.65 47.35 104.75 47.3 104.5 46.55 105.6 45.35 107.1 45.25 107.25 44.9 107.55 Q44.35 107.8 43.9 108.15 43.15 108.5 42.5 108.8 L38.55 110.7 35.85 112.0 35.45 112.2 35.3 112.15 35.35 112.95 Q35.4 115.05 35.85 117.15 L35.9 117.55 35.95 117.7 Q36.6 117.95 37.15 118.45 L38.15 119.45 39.3 120.75 Q39.9 121.45 40.05 122.5 40.0 123.15 40.3 123.95 40.5 124.75 39.95 124.95 37.05 126.45 33.75 127.05 L33.35 127.2 31.75 126.5 30.9 126.2 Q28.5 125.1 26.35 123.5 L25.7 123.05 25.45 122.9 22.05 120.35 21.2 119.6 20.75 118.9 18.45 114.65 18.25 114.25 Q17.6 113.15 17.3 112.05 16.6 110.4 16.25 108.65 L15.95 107.45 15.2 107.35 13.75 107.2 13.35 107.2 12.95 107.1 Q11.85 107.05 10.95 106.4 L9.65 105.3 8.0 103.9 7.05 103.0 6.05 101.85 5.6 101.5 4.1 97.65 3.85 96.6 3.2 94.75 3.2 94.6 2.9 93.4 2.85 93.15 2.6 92.85 1.8 91.2 1.7 90.95 1.35 89.25 1.2 88.7 0.9 87.35 0.7 86.55 0.75 86.5 0.6 85.45 Q0.4 83.95 0.35 82.5 L0.2 82.0 0.05 81.45 0.0 80.2 0.2 79.65 Q0.2 79.25 0.35 78.8 0.65 78.1 1.1 77.35 L1.65 76.3 Q2.8 74.35 4.8 73.1 L5.0 72.95 5.15 72.9 6.1 72.5 6.3 72.25 7.55 70.85 7.8 70.65 8.6 69.75 9.75 68.65 11.6 67.1 12.15 66.55 13.75 65.3 13.4 64.65 15.3 62.1 Q16.3 60.9 17.6 60.0 L17.95 60.05 18.2 60.1 18.4 60.05 20.45 60.45 26.05 61.55 26.9 61.5 33.25 58.85 33.25 59.1 33.45 60.05 33.8 60.95 34.15 62.05 34.55 62.95 34.9 63.8 34.95 63.85 Q34.5 62.35 34.35 60.85 L33.85 58.15 Q33.45 56.4 33.3 54.5 L33.25 54.3 33.1 53.65 33.5 52.85 33.75 52.45 36.1 47.45 36.25 47.2 37.25 45.0 37.95 44.2 38.15 43.95 38.15 43.9 40.25 41.45 Q41.1 41.35 41.6 40.25 L42.3 38.7 44.6 34.9 44.65 34.8 Q46.2 31.8 47.1 28.45 L47.75 25.55 48.1 22.75 48.05 19.3 48.2 19.1 49.05 17.95 51.35 15.05 52.5 14.6 Q53.3 14.25 53.5 12.6 L54.95 10.95 58.25 7.5 61.3 4.75 61.7 4.25 66.5 0.0 66.8 0.2 70.65 3.55 72.9 5.1 77.05 7.75 77.25 7.95 77.9 7.8 80.35 7.5 81.05 10.9 Q81.6 14.55 82.6 18.15 83.45 21.3 84.6 24.4 L87.25 31.0 Q87.9 32.7 89.05 34.0 L89.3 34.3 89.4 34.45 89.0 34.55 88.45 34.7 85.4 35.0 84.1 35.4 84.45 35.85 84.9 36.5 84.75 37.3 84.55 38.2 84.5 38.4 84.3 40.15 86.6 38.7 Q87.35 38.2 88.1 37.9 88.45 37.7 88.75 37.6 L88.8 37.55 89.0 37.6 91.9 38.95 Q93.2 39.5 94.4 40.2 L98.55 42.65 98.05 44.5 97.9 45.15 97.35 46.55 96.0 49.55 95.55 50.55 95.5 50.6 95.4 50.75 95.1 51.45 94.9 51.75 94.9 51.8 92.9 52.55 90.25 53.6 91.25 54.2 91.45 54.3 93.9 55.15 95.05 55.45 95.5 54.9 98.9 50.75 99.05 50.35 Q99.85 51.8 101.2 52.85 L103.7 54.7 106.1 56.45 M72.85 61.45 Q71.7 62.3 70.85 63.25 72.45 63.0 74.0 62.25 L74.8 62.2 78.9 61.7 80.25 61.6 84.35 61.0 84.45 60.9 87.15 60.2 87.95 60.0 88.75 59.75 91.5 58.95 91.7 58.9 92.0 58.85 Q92.85 59.0 93.7 59.55 L94.9 60.3 98.3 61.9 100.5 62.9 100.75 63.1 101.75 63.95 M72.85 61.45 L71.0 61.4 70.05 61.3 69.05 60.65 Q67.6 59.5 66.7 57.9 L66.7 57.8 Q66.7 57.1 66.85 56.5 67.25 54.75 68.0 53.15 L68.35 52.45 70.6 48.95 71.25 48.05 73.3 45.55 75.5 43.2 75.9 42.75 78.25 40.55 Q79.1 39.75 80.1 39.1 L80.2 39.0 78.65 39.35 73.25 40.85 Q70.75 41.6 68.45 42.75 L67.65 43.15 65.9 44.1 65.2 44.5 62.3 46.6 61.35 47.45 57.35 50.55 58.65 52.8 59.0 53.25 61.5 56.85 61.7 57.15 Q62.95 58.85 64.55 60.2 L66.7 62.0 68.35 63.3 68.7 63.45 Q70.35 64.5 72.1 65.35 L76.4 66.5 76.65 66.5 78.15 66.7 80.0 66.8 80.8 67.15 80.95 67.2 83.5 68.1 84.3 68.35 85.85 68.85 87.15 69.25 M73.2 67.6 L73.35 67.65 73.5 67.65 76.55 68.45 78.5 68.8 79.8 69.0 80.6 69.1 83.2 70.35 83.6 70.55 84.3 70.9 M77.9 33.05 L77.55 32.3 76.3 29.6 75.55 28.0 75.05 26.45 74.35 23.65 74.3 23.65 74.15 23.1 73.55 19.45 73.4 18.45 73.35 17.65 73.0 14.2 72.9 11.2 72.95 8.85 71.9 7.75 69.45 5.1 67.0 2.1 66.25 0.85 66.25 0.55 66.8 0.2 M61.7 4.25 L64.35 4.1 65.25 4.35 67.6 4.9 68.1 5.1 69.75 6.9 70.15 7.75 Q71.5 11.1 70.9 14.85 L70.75 15.85 69.9 19.0 69.85 19.05 68.85 22.3 67.45 24.1 63.9 28.4 61.75 31.1 59.9 33.45 Q58.05 35.6 56.35 37.85 L56.15 38.05 55.8 40.7 Q55.65 41.6 55.65 42.5 L55.8 45.05 55.9 45.25 56.3 47.25 56.9 49.75 56.95 49.85 56.95 50.0 57.35 50.55 M48.2 19.1 L49.35 19.1 Q51.55 19.15 53.5 20.1 L54.1 20.4 Q54.75 20.6 55.35 21.1 L55.6 21.4 56.25 22.55 56.65 23.3 56.7 23.65 Q56.95 25.05 55.8 26.4 L55.55 27.0 54.2 29.9 Q53.1 31.85 52.6 33.85 L52.55 34.05 Q52.0 35.85 51.7 37.75 L50.85 41.9 50.7 42.7 50.35 45.1 48.6 47.15 46.1 50.15 45.8 50.5 M46.5 60.2 L51.05 55.95 51.7 55.35 54.85 52.65 56.1 51.6 56.5 52.45 56.6 52.75 Q57.3 54.35 58.35 55.8 L58.8 56.35 59.15 56.85 60.8 58.9 63.9 62.05 64.2 62.3 64.95 62.95 64.8 62.9 64.75 62.85 64.75 63.05 64.85 63.2 64.9 63.4 65.95 64.8 64.25 66.4 62.85 67.55 62.2 68.15 61.25 68.8 59.25 70.3 57.8 71.5 Q59.85 69.95 62.05 68.8 L62.4 68.6 Q62.95 68.35 63.45 68.05 L63.9 67.85 Q65.55 66.85 67.4 66.55 L67.85 66.5 Q69.6 66.65 71.25 67.15 L71.4 67.2 73.05 67.55 73.2 67.6 M38.15 43.9 L38.4 43.95 38.75 44.1 39.5 44.3 Q40.3 44.55 40.95 45.1 L41.2 45.2 Q41.8 45.35 41.65 45.75 L41.75 46.05 41.95 47.3 41.8 48.05 Q41.5 48.85 41.55 49.7 L41.5 51.2 Q41.4 51.85 41.45 52.4 L41.45 52.45 41.5 55.05 41.55 55.6 41.55 55.75 40.2 57.5 35.8 63.45 35.25 64.3 35.1 64.45 35.15 64.45 35.55 65.5 35.85 66.4 37.35 69.2 37.55 69.5 39.85 72.45 40.75 73.4 43.4 76.0 44.95 77.45 48.9 80.55 50.05 81.25 51.05 81.9 53.3 83.2 58.05 83.55 62.25 83.3 64.3 83.1 64.65 82.95 M60.6 41.45 L62.4 39.6 65.3 36.35 67.35 33.85 67.85 33.25 70.15 30.35 72.4 27.15 73.4 25.55 74.05 24.4 74.8 27.15 75.85 30.5 Q75.25 31.5 74.35 32.3 L73.7 32.9 72.95 33.35 71.65 34.0 Q69.95 34.8 68.4 35.9 L67.1 36.9 63.4 39.65 60.1 42.4 58.1 44.25 59.65 42.45 60.6 41.45 M80.0 37.15 L77.35 37.4 Q71.65 38.3 66.55 41.15 L66.0 41.5 70.45 38.25 Q71.7 37.35 73.1 36.6 75.45 35.3 77.4 33.55 L77.9 33.05 M80.0 37.15 L80.75 38.5 80.2 39.0 M32.8 81.45 L32.5 80.9 31.3 78.9 29.6 76.65 26.35 73.6 Q24.8 72.3 23.1 71.25 L20.4 69.6 20.4 69.25 20.05 65.5 19.45 63.3 18.4 60.05 M35.1 64.45 L34.95 63.85 M7.8 70.65 L8.15 70.85 9.8 72.1 10.05 72.4 10.75 73.45 10.85 73.7 Q11.4 74.75 11.15 75.85 L11.1 76.3 11.15 76.35 11.0 77.1 10.7 78.3 10.65 78.4 10.15 79.6 9.4 80.85 9.2 81.15 8.8 81.6 8.35 82.15 8.0 82.6 8.3 82.85 8.5 83.2 9.05 82.45 9.5 81.85 10.2 80.85 11.5 79.1 12.7 77.4 13.65 75.95 13.75 75.8 Q14.0 74.5 13.85 73.15 13.7 71.05 12.8 69.15 12.3 68.0 11.6 67.1 M4.15 83.9 L4.2 83.85 4.65 83.65 6.25 82.5 6.95 81.8 7.0 81.75 8.0 80.65 8.55 79.95 9.6 77.65 9.6 77.55 9.75 76.65 9.7 76.2 9.6 75.2 Q9.65 74.05 8.7 73.5 L8.35 73.25 8.2 73.1 7.55 72.6 7.25 72.45 6.95 72.3 6.1 72.5 M4.15 83.9 L3.35 84.15 3.2 84.1 Q2.15 84.5 1.25 83.75 L0.95 83.5 0.35 82.5 0.0 80.2 M6.95 72.3 L6.3 72.25 M13.75 65.3 L14.7 67.5 15.5 70.25 16.2 72.9 16.55 74.05 16.6 74.35 16.75 74.75 16.85 74.8 17.9 75.05 18.5 75.25 Q20.7 75.85 21.9 76.6 L22.8 77.15 25.15 79.55 26.5 81.45 Q27.8 83.75 28.25 86.4 L28.25 86.55 28.4 88.2 28.55 88.3 Q32.65 87.5 35.7 88.3 37.9 88.75 39.6 90.05 42.4 92.15 44.2 95.05 46.0 97.9 46.65 101.15 L47.3 104.5 M47.6 91.35 L47.05 90.65 45.2 88.75 42.9 86.9 Q41.15 85.6 39.05 84.65 L36.45 83.7 33.3 82.7 32.8 81.45 M19.6 91.8 Q20.05 91.45 20.5 91.35 L20.75 91.25 21.4 90.75 22.15 90.1 23.0 89.3 23.45 88.9 25.15 87.45 25.95 86.85 Q25.85 85.35 25.1 83.95 L24.05 81.9 22.75 80.05 21.15 78.45 Q20.35 77.75 19.35 77.2 L18.9 76.85 Q17.45 76.1 15.75 76.1 L15.6 76.2 15.25 76.7 14.3 77.75 15.0 77.6 15.8 77.35 17.7 77.1 17.85 77.1 18.55 77.35 18.75 77.45 19.45 77.9 19.6 78.0 19.7 78.15 20.2 79.25 21.15 82.55 21.45 84.3 21.95 86.25 22.05 86.6 21.95 87.1 21.6 88.4 21.15 89.5 20.85 89.9 19.6 91.8 18.65 93.15 18.15 93.7 18.15 93.75 17.95 94.05 17.75 94.2 17.65 94.0 17.55 93.85 17.4 93.55 17.15 93.1 17.65 92.65 20.0 89.35 20.7 87.95 20.8 87.35 Q21.15 86.3 20.85 85.35 L20.65 84.8 20.35 83.9 20.1 83.15 19.15 81.5 18.9 81.1 17.3 79.9 16.7 79.6 Q16.25 79.3 15.7 79.3 L14.8 79.2 12.85 79.4 13.8 78.35 14.3 77.75 M12.6 93.75 L13.35 93.5 15.9 91.85 17.1 90.65 17.85 89.9 18.8 88.4 19.3 87.2 19.6 86.55 19.6 85.45 Q19.5 84.7 19.05 83.85 L18.95 83.6 17.6 82.05 17.25 81.75 16.45 81.2 Q15.9 80.75 15.3 80.7 L14.85 80.6 14.8 80.55 Q14.65 80.55 14.6 80.65 L13.9 80.7 13.5 80.85 12.2 81.35 10.45 82.25 10.15 82.45 9.95 82.65 9.9 82.75 9.15 83.5 8.9 83.75 8.0 84.85 Q7.55 85.5 7.25 86.25 L6.9 87.0 6.85 87.15 Q6.3 88.7 6.45 90.55 L6.65 91.15 6.9 91.7 7.9 92.85 9.45 93.5 9.75 93.55 10.9 93.8 11.25 93.9 12.3 93.85 12.6 93.75 M7.35 84.1 L7.3 84.0 7.1 83.65 5.7 84.8 4.55 85.45 3.3 85.8 2.65 85.9 1.95 85.8 0.6 85.45 M7.35 84.1 L7.55 84.4 5.45 87.1 4.55 88.2 3.15 88.7 Q2.1 88.9 1.2 88.7 M15.35 96.75 L15.6 96.45 16.1 95.8 15.35 94.6 Q15.25 94.6 15.2 94.7 L14.5 95.1 14.3 95.25 13.7 95.5 12.95 95.7 11.8 95.75 11.4 95.85 9.6 95.55 9.05 95.35 8.65 95.15 7.05 94.5 6.25 93.9 6.0 93.5 5.3 92.9 5.15 92.65 4.3 91.15 4.15 91.3 4.2 91.45 3.95 91.85 3.95 91.95 4.35 94.1 4.65 95.3 Q5.15 97.35 6.95 98.15 9.2 99.1 11.4 99.65 L13.65 100.05 14.15 98.85 15.35 96.75 M22.3 106.55 L20.75 106.35 Q18.7 105.85 17.6 104.0 L17.55 103.95 17.2 103.05 17.2 102.95 16.9 100.75 16.95 99.9 17.0 99.25 17.5 97.35 Q17.85 96.25 18.45 95.35 L18.6 95.15 18.8 94.95 19.4 94.25 19.95 93.8 21.65 92.45 22.3 92.1 22.3 92.05 Q22.9 91.6 23.65 91.6 L24.25 91.5 25.45 91.5 26.0 91.65 26.5 91.75 27.15 92.0 27.5 92.2 28.35 92.8 28.8 93.0 28.9 93.05 29.1 93.25 29.2 93.4 29.3 93.6 29.95 94.15 30.25 94.45 30.4 94.7 30.6 95.0 30.7 95.2 30.75 95.35 30.8 95.8 30.85 95.85 31.1 96.75 31.2 97.5 31.15 98.15 30.65 100.65 30.45 101.05 28.95 103.05 28.8 103.15 28.8 103.2 Q27.3 104.5 25.5 105.5 L25.35 105.6 25.05 105.7 Q23.75 106.45 22.3 106.55 M43.5 102.05 L43.5 101.6 43.45 101.45 43.0 98.65 Q42.5 96.75 41.4 95.25 L38.55 92.55 Q37.0 91.2 35.15 90.2 33.55 89.3 31.75 89.25 L29.6 89.2 28.35 89.35 26.75 89.55 26.6 89.65 26.45 89.8 26.4 89.85 26.25 89.9 26.0 90.05 27.1 90.35 27.5 90.5 28.15 90.8 29.35 91.65 30.15 92.1 30.6 92.5 31.9 94.35 32.55 95.75 32.95 96.95 33.1 97.95 33.15 98.3 33.15 99.05 32.95 100.3 32.8 100.9 32.15 102.4 31.3 103.65 30.9 104.2 30.8 104.35 30.35 104.85 29.5 105.95 29.1 106.2 29.05 106.25 30.05 107.35 32.3 109.35 33.0 108.55 33.75 107.65 34.25 107.05 34.7 106.55 36.25 105.3 36.6 105.1 36.75 104.95 Q38.4 103.9 40.25 103.0 L42.0 102.45 42.45 102.3 42.45 102.35 42.6 102.3 42.65 102.3 43.05 102.2 43.5 102.25 43.5 102.05 M46.5 60.2 L46.7 60.6 47.55 62.85 47.75 63.5 48.85 65.6 49.8 66.85 50.85 68.15 51.35 68.55 53.1 70.4 54.0 71.3 56.0 73.05 56.1 73.1 59.45 75.45 61.4 76.35 61.85 76.6 62.05 76.7 62.65 77.0 63.45 77.35 64.2 77.8 65.2 78.15 69.05 79.4 70.8 79.8 M69.55 88.95 L68.15 90.0 65.75 92.0 63.15 94.6 60.75 97.25 60.45 97.55 58.95 97.95 56.1 98.6 52.0 99.25 51.2 99.35 50.2 96.75 49.95 96.1 48.6 93.15 48.25 92.3 47.6 91.35 M76.6 96.7 L77.1 96.95 M75.2 97.45 L76.55 98.0 Q76.0 98.8 76.05 99.8 L76.25 100.8 Q76.4 101.2 76.8 101.4 L77.3 101.35 78.05 100.8 78.55 100.15 77.35 102.15 77.2 102.4 77.45 102.8 77.65 103.0 78.05 104.15 78.25 104.1 79.45 102.35 M28.8 109.55 L28.4 109.2 26.75 107.5 24.9 108.25 24.75 108.35 23.55 108.45 23.25 108.45 22.65 108.55 21.3 108.5 20.1 108.1 18.45 107.45 17.85 107.0 16.05 105.45 15.5 104.85 15.45 104.7 15.4 104.45 15.35 104.85 15.5 105.05 15.45 105.2 15.65 106.25 15.9 107.25 15.95 107.45 M28.8 109.55 L29.05 109.75 31.1 111.0 30.35 112.15 29.7 113.25 28.75 114.55 28.4 114.8 25.1 115.0 23.3 114.75 21.2 114.2 Q19.15 113.25 17.35 112.1 L17.3 112.05 M27.15 116.65 L27.4 117.05 28.3 117.7 Q29.9 119.05 31.7 119.95 L32.65 120.45 32.9 120.6 Q30.9 118.4 29.45 115.75 L28.6 115.85 27.55 116.05 Q27.4 116.05 27.2 116.25 27.0 116.35 27.15 116.65 Z" fill="none" stroke="#000066" stroke-linecap="round" stroke-linejoin="round" stroke-width="3.0"/>
      <path d="M18.4 60.05 L20.45 60.45 26.05 61.55 26.9 61.5 33.25 58.85 33.25 59.1 33.45 60.05 33.8 60.95 34.15 62.05 34.55 62.95 34.9 63.8 35.4 64.55 35.85 65.35 36.4 66.2 36.95 66.95 37.45 67.65 37.95 68.35 39.15 69.75 39.75 70.4 40.45 71.0 40.95 71.6 42.05 72.65 43.15 73.75 44.3 74.7 45.5 75.6 46.75 76.45 47.6 76.9 48.25 77.2 49.2 77.7 49.95 78.2 50.8 78.65 51.8 79.1 53.9 80.0 56.2 80.9 57.45 81.2 Q58.15 81.5 58.75 81.6 L60.0 82.0 61.3 82.3 62.5 82.6 63.7 82.8 64.65 82.95 65.3 83.1 Q66.8 86.1 69.15 88.55 L69.55 88.95 68.15 90.0 65.75 92.0 63.15 94.6 60.75 97.25 60.45 97.55 58.95 97.95 56.1 98.6 52.0 99.25 51.2 99.35 50.2 96.75 49.95 96.1 48.6 93.15 48.25 92.3 47.6 91.35 47.05 90.65 45.2 88.75 42.9 86.9 Q41.15 85.6 39.05 84.65 L36.45 83.7 33.3 82.7 32.8 81.45 32.5 80.9 31.3 78.9 29.6 76.65 26.35 73.6 Q24.8 72.3 23.1 71.25 L20.4 69.6 20.4 69.25 20.05 65.5 19.45 63.3 18.4 60.05" fill="#701f1c" fill-rule="evenodd" stroke="none"/>
      <path d="M17.95 60.05 L18.2 60.1 18.4 60.05 19.45 63.3 20.05 65.5 20.4 69.25 20.4 69.6 23.1 71.25 Q24.8 72.3 26.35 73.6 L29.6 76.65 31.3 78.9 32.5 80.9 32.8 81.45 33.0 82.65 33.3 82.7 36.45 83.7 39.05 84.65 Q41.15 85.6 42.9 86.9 L45.2 88.75 47.05 90.65 47.6 91.35 48.4 93.05 46.05 90.7 45.4 90.0 43.9 88.85 42.75 88.25 40.65 87.3 40.15 87.1 38.35 86.5 37.65 86.25 Q36.35 85.75 35.05 85.6 L33.4 85.4 32.8 85.35 32.9 85.25 33.0 85.1 32.85 84.25 32.75 84.15 32.3 82.4 32.6 82.55 32.4 82.15 32.3 82.05 32.15 81.75 31.95 81.4 31.55 81.15 31.3 80.8 29.95 79.5 28.35 78.15 27.2 77.05 23.45 74.55 23.15 74.4 19.5 74.3 16.6 74.35 16.55 74.05 16.85 73.4 Q17.7 71.95 18.15 70.35 L18.7 68.35 18.95 67.15 Q19.1 64.9 18.65 62.8 L17.95 60.05" fill="#e1928e" fill-rule="evenodd" stroke="none"/>
      <path d="M69.55 88.95 L69.6 89.0 69.15 89.4 69.15 89.7 69.0 90.25 68.6 92.7 66.3 94.95 63.9 97.75 Q62.3 99.85 61.05 102.25 L60.55 103.2 60.45 103.35 59.1 104.2 58.85 104.35 54.7 105.05 Q52.15 105.65 49.85 106.7 L47.5 105.65 47.35 104.75 47.3 104.5 46.65 101.15 Q46.0 97.9 44.2 95.05 42.4 92.15 39.6 90.05 37.9 88.75 35.7 88.3 32.65 87.5 28.55 88.3 L28.4 88.2 28.25 86.55 28.25 86.4 Q27.8 83.75 26.5 81.45 L25.15 79.55 22.8 77.15 21.9 76.6 Q20.7 75.85 18.5 75.25 L17.9 75.05 16.85 74.8 16.75 74.75 16.6 74.35 19.5 74.3 23.15 74.4 23.45 74.55 27.2 77.05 28.35 78.15 29.95 79.5 31.3 80.8 31.55 81.15 31.95 81.4 32.15 81.75 32.3 82.05 32.3 82.4 32.75 84.15 32.85 84.25 33.0 85.1 32.9 85.25 32.8 85.35 33.4 85.4 35.05 85.6 Q36.35 85.75 37.65 86.25 L38.35 86.5 40.15 87.1 40.65 87.3 42.75 88.25 43.9 88.85 45.4 90.0 46.05 90.7 48.4 93.05 47.6 91.35 48.25 92.3 48.6 93.15 49.95 96.1 50.2 96.75 51.2 99.35 52.0 99.25 56.1 98.6 58.95 97.95 60.45 97.55 60.75 97.25 63.15 94.6 65.75 92.0 68.15 90.0 69.55 88.95 M13.75 65.3 L13.4 64.65 15.3 62.1 Q16.3 60.9 17.6 60.0 L17.95 60.05 18.65 62.8 Q19.1 64.9 18.95 67.15 L18.7 68.35 18.15 70.35 Q17.7 71.95 16.85 73.4 L16.55 74.05 16.2 72.9 15.5 70.25 14.7 67.5 13.75 65.3" fill="#b34342" fill-rule="evenodd" stroke="none"/>
      <path d="M79.15 99.1 L79.15 99.25 79.75 100.05 80.2 101.3 79.45 102.35 79.85 103.65 80.0 106.1 80.0 106.6 79.45 107.3 79.35 107.5 79.1 107.75 78.95 107.6 77.95 106.55 77.45 105.85 76.95 105.2 76.5 104.45 76.0 103.55 75.7 102.7 75.35 101.75 Q75.2 101.3 75.2 100.85 L75.1 99.95 75.05 99.2 75.1 97.85 75.2 97.45 76.55 98.0 Q76.0 98.8 76.05 99.8 L76.25 100.8 Q76.4 101.2 76.8 101.4 L77.3 101.35 78.05 100.8 78.55 100.15 79.15 99.1 M0.0 80.2 L0.2 79.65 Q0.2 79.25 0.35 78.8 0.65 78.1 1.1 77.35 L1.65 76.3 Q2.8 74.35 4.8 73.1 L5.0 72.95 5.15 73.0 5.2 73.0 6.45 73.2 7.4 73.75 Q7.85 74.25 7.9 74.8 8.0 76.0 7.7 77.15 L7.55 77.85 6.95 79.9 6.15 81.4 4.35 83.65 4.15 83.9 3.35 84.15 3.2 84.1 Q2.15 84.5 1.25 83.75 L0.95 83.5 0.35 82.5 0.0 80.2 M10.15 82.45 L11.7 82.1 12.3 82.0 13.3 81.95 14.8 82.35 15.75 83.25 Q16.4 84.05 16.6 85.0 L16.8 85.8 16.7 87.0 16.2 88.65 15.3 90.3 15.05 90.8 13.05 93.2 12.8 93.5 12.6 93.75 12.3 93.85 11.25 93.9 10.9 93.8 9.75 93.55 9.45 93.5 7.9 92.85 6.9 91.7 6.65 91.15 6.45 90.55 Q6.3 88.7 6.85 87.15 L6.9 87.0 7.25 86.25 Q7.55 85.5 8.0 84.85 L8.9 83.75 9.15 83.5 9.9 82.75 9.95 82.65 10.15 82.45 M10.2 85.0 L9.6 84.4 9.3 84.3 9.05 84.7 8.75 85.25 8.75 85.55 Q8.75 86.35 9.25 86.95 L11.05 88.95 11.5 89.55 12.85 90.8 Q13.15 91.1 13.35 90.8 13.7 90.2 13.65 89.65 L13.35 89.15 12.95 88.8 11.6 87.1 11.2 86.5 10.2 85.0 M5.6 79.15 L5.35 78.65 5.1 78.45 4.7 77.95 3.8 76.65 3.4 76.25 3.3 76.0 3.2 76.15 2.9 76.65 2.85 76.85 2.75 77.85 2.9 78.3 3.15 78.9 3.25 79.45 3.35 79.6 Q3.55 80.25 4.1 80.9 L4.6 81.55 4.65 81.65 5.45 79.9 5.6 79.15 M22.3 106.55 L20.75 106.35 Q18.7 105.85 17.6 104.0 L17.55 103.95 17.2 103.05 17.2 102.95 16.9 100.75 16.95 99.9 17.0 99.25 17.5 97.35 Q17.85 96.25 18.45 95.35 L18.6 95.15 18.8 94.95 19.4 94.25 19.95 93.8 21.65 92.45 22.3 92.1 23.05 92.0 Q24.95 91.95 26.55 93.0 28.25 94.15 28.7 96.05 29.05 97.7 28.75 99.3 28.55 100.7 27.7 101.8 L27.55 102.1 27.05 102.75 26.0 103.9 Q25.2 104.75 24.2 105.4 L22.95 106.1 22.3 106.55 M19.25 96.9 L20.2 98.5 Q21.0 100.05 22.35 101.2 L22.8 101.55 23.8 102.25 24.65 102.95 24.9 103.2 25.2 103.45 25.6 102.05 25.5 101.65 25.45 101.45 25.0 100.85 24.45 100.35 24.15 99.95 21.4 96.6 21.2 96.25 20.75 95.8 20.55 95.55 20.45 95.45 20.4 95.45 19.5 96.1 Q18.95 96.5 19.25 96.9 M78.25 104.1 L79.45 102.35 78.55 100.15 77.35 102.15 77.2 102.4 77.45 102.8 77.65 103.0 78.05 104.15 78.25 104.1" fill="#b1c8d8" fill-rule="evenodd" stroke="none"/>
      <path d="M74.2 94.6 L75.3 95.5 Q74.2 96.6 73.95 98.25 73.8 99.4 73.95 100.55 74.1 101.9 74.65 103.1 L72.65 104.55 70.7 105.6 72.05 103.85 72.2 103.45 71.55 101.55 71.35 100.45 71.1 95.85 71.15 95.3 Q71.6 94.4 72.75 94.5 L74.2 94.6 M79.2 109.55 L79.1 110.05 78.9 110.45 78.85 110.7 77.35 112.7 Q76.6 112.25 75.95 111.5 74.65 110.0 74.0 108.1 L73.95 107.25 Q73.95 106.85 73.45 106.9 L71.4 106.85 71.55 106.75 72.05 106.45 Q73.85 105.65 75.25 104.5 L75.65 105.05 76.95 106.75 78.1 108.35 78.8 109.1 79.2 109.55 M0.75 86.5 L0.6 85.45 1.95 85.8 2.65 85.9 3.3 85.8 4.55 85.45 5.7 84.8 7.1 83.65 7.3 84.0 7.35 84.1 6.4 84.8 Q4.75 86.35 2.5 86.7 L1.3 86.65 0.75 86.5 M7.8 70.65 L8.6 69.75 Q9.95 69.25 11.4 69.35 L11.75 69.4 12.05 69.95 11.6 73.1 11.5 73.35 11.5 73.55 11.65 74.8 11.7 75.15 11.75 76.05 11.65 76.45 11.35 77.3 11.4 77.55 11.2 78.1 11.1 78.35 11.0 78.55 10.7 79.2 10.45 79.45 9.35 81.3 8.65 82.3 Q8.4 82.5 8.3 82.85 L8.0 82.6 8.35 82.15 8.8 81.6 9.2 81.15 9.4 80.85 10.15 79.6 10.65 78.4 10.7 78.3 11.0 77.1 11.15 76.35 11.1 76.3 11.15 75.85 Q11.4 74.75 10.85 73.7 L10.75 73.45 10.05 72.4 9.8 72.1 8.15 70.85 7.8 70.65 M14.3 77.75 L15.0 77.6 15.8 77.35 17.7 77.1 17.85 77.1 18.55 77.35 18.75 77.45 19.45 77.9 19.6 78.0 19.7 78.15 20.2 79.25 21.15 82.55 21.45 84.3 21.95 86.25 22.05 86.6 21.95 87.1 21.6 88.4 21.15 89.5 20.85 89.9 19.6 91.8 19.5 91.95 17.75 93.8 17.65 94.0 17.55 93.85 17.4 93.55 17.15 93.1 17.65 92.65 20.0 89.35 20.7 87.95 20.8 87.35 Q21.15 86.3 20.85 85.35 L20.65 84.8 20.35 83.9 20.1 83.15 19.15 81.5 18.9 81.1 17.3 79.9 16.7 79.6 Q16.25 79.3 15.7 79.3 L14.8 79.2 12.85 79.4 13.8 78.35 14.3 77.75 M4.2 91.45 L4.15 91.3 4.3 91.15 5.15 92.65 5.3 92.9 6.0 93.5 6.25 93.9 7.05 94.5 8.65 95.15 9.05 95.35 9.6 95.55 11.4 95.85 11.8 95.75 12.95 95.7 13.7 95.5 14.3 95.25 14.5 95.1 15.2 94.7 Q15.25 94.6 15.35 94.6 L16.1 95.8 15.6 96.45 15.35 96.75 15.15 96.75 14.95 96.55 14.6 96.35 14.45 96.35 14.3 96.5 12.3 97.1 11.95 97.2 10.3 97.4 9.3 97.1 6.55 95.45 Q4.6 94.1 4.2 91.65 L4.2 91.45 M26.45 89.8 L26.65 89.7 27.55 89.5 28.4 89.5 32.1 89.85 34.5 90.55 34.8 90.65 35.0 90.75 35.1 90.85 36.0 92.3 35.8 94.8 35.35 96.55 35.2 97.3 35.15 97.6 34.55 100.15 34.35 100.85 33.4 103.7 33.2 104.1 33.15 104.45 32.65 105.3 32.0 106.35 31.95 106.55 31.9 106.65 31.5 107.2 31.35 107.35 32.3 109.35 30.05 107.35 29.05 106.25 29.1 106.2 29.5 105.95 30.35 104.85 30.8 104.35 30.9 104.2 31.3 103.65 32.15 102.4 32.8 100.9 32.95 100.3 33.15 99.05 33.15 98.3 33.1 97.95 32.95 96.95 32.55 95.75 31.9 94.35 30.6 92.5 30.15 92.1 29.35 91.65 28.15 90.8 27.5 90.5 27.1 90.35 26.0 90.05 Q26.15 89.9 26.25 89.9 L26.4 89.85 26.45 89.8 M28.8 109.55 L27.5 111.85 27.3 112.2 27.2 112.4 26.75 113.25 26.4 113.6 26.3 113.4 26.15 113.25 26.0 113.0 25.4 112.15 25.05 111.85 24.9 111.8 Q23.55 111.65 22.2 110.85 21.75 110.55 21.3 110.4 19.75 109.7 18.45 108.6 L15.65 105.35 15.5 105.05 15.45 104.7 15.5 104.85 16.05 105.45 17.85 107.0 18.45 107.45 20.1 108.1 21.3 108.5 22.65 108.55 23.25 108.45 23.55 108.45 24.75 108.35 24.9 108.25 26.75 107.5 28.4 109.2 28.8 109.55" fill="#b8d5e5" fill-rule="evenodd" stroke="none"/>
      <path d="M69.15 89.7 Q70.85 92.1 73.2 93.85 L72.15 93.75 Q71.35 93.8 70.75 94.25 70.1 94.7 69.8 95.35 L69.3 97.05 Q68.95 98.9 69.0 100.75 L68.8 103.35 Q68.65 104.25 68.85 105.15 L69.1 106.2 69.35 106.1 69.5 106.05 70.7 105.6 72.65 104.55 74.65 103.1 Q74.1 101.9 73.95 100.55 73.8 99.4 73.95 98.25 74.2 96.6 75.3 95.5 L76.0 96.1 76.6 96.7 76.35 96.6 75.8 96.7 Q75.4 96.7 75.35 97.1 L75.2 97.45 75.1 97.85 75.05 99.2 75.1 99.95 75.2 100.85 Q75.2 101.3 75.35 101.75 L75.7 102.7 76.0 103.55 76.5 104.45 76.95 105.2 77.45 105.85 77.95 106.55 78.95 107.6 79.1 107.75 79.35 107.5 79.45 107.3 79.45 108.1 79.2 109.55 78.8 109.1 78.1 108.35 76.95 106.75 75.65 105.05 75.25 104.5 Q73.85 105.65 72.05 106.45 L71.55 106.75 71.4 106.85 70.45 107.2 71.55 108.9 71.45 109.1 71.25 110.85 70.9 114.7 71.1 117.1 71.5 118.8 Q71.75 119.35 72.1 119.4 L71.2 120.7 68.6 123.85 Q67.5 125.15 67.25 124.5 66.2 123.5 65.5 122.2 L64.7 120.45 Q64.3 119.4 64.2 118.2 L64.4 116.0 Q64.7 114.0 65.75 112.3 L67.0 110.3 68.45 108.1 68.4 108.05 66.45 106.5 65.5 105.75 63.0 104.15 Q61.8 103.45 60.55 103.2 L61.05 102.25 Q62.3 99.85 63.9 97.75 L66.3 94.95 68.6 92.7 69.0 90.25 69.15 89.7 M47.3 104.5 L46.55 105.6 45.35 107.1 45.25 107.25 44.9 107.55 Q44.35 107.8 43.9 108.15 43.15 108.5 42.5 108.8 L38.55 110.7 35.85 112.0 35.45 112.2 35.3 112.15 35.35 112.95 Q35.4 115.05 35.85 117.15 L35.9 117.55 35.95 117.7 Q36.6 117.95 37.15 118.45 L38.15 119.45 39.3 120.75 Q39.9 121.45 40.05 122.5 40.0 123.15 40.3 123.95 40.5 124.75 39.95 124.95 37.05 126.45 33.75 127.05 L33.35 127.2 31.75 126.5 30.9 126.2 Q28.5 125.1 26.35 123.5 L25.7 123.05 25.45 122.9 22.05 120.35 21.2 119.6 20.75 118.9 18.45 114.65 18.25 114.25 Q17.6 113.15 17.3 112.05 L17.35 112.1 Q19.15 113.25 21.2 114.2 L23.3 114.75 25.1 115.0 28.4 114.8 28.75 114.55 29.7 113.25 30.35 112.15 31.1 111.0 29.05 109.75 28.8 109.55 28.4 109.2 26.75 107.5 24.9 108.25 24.75 108.35 23.55 108.45 23.25 108.45 22.65 108.55 21.3 108.5 20.1 108.1 18.45 107.45 17.85 107.0 16.05 105.45 15.5 104.85 15.45 104.7 15.4 104.45 15.35 104.85 15.5 105.05 15.45 105.2 15.65 106.25 15.9 107.25 15.95 107.45 15.2 107.35 13.75 107.2 13.35 107.2 12.95 107.1 Q11.85 107.05 10.95 106.4 L9.65 105.3 8.0 103.9 7.05 103.0 6.05 101.85 5.6 101.5 4.1 97.65 3.85 96.6 3.2 94.75 3.2 94.6 2.9 93.4 2.85 93.15 2.6 92.85 1.8 91.2 1.7 90.95 1.35 89.25 1.2 88.7 Q2.1 88.9 3.15 88.7 L4.55 88.2 5.45 87.1 7.55 84.4 7.35 84.1 7.3 84.0 7.1 83.65 5.7 84.8 4.55 85.45 3.3 85.8 2.65 85.9 1.95 85.8 0.6 85.45 Q0.4 83.95 0.35 82.5 L0.95 83.5 1.25 83.75 Q2.15 84.5 3.2 84.1 L3.35 84.15 4.15 83.9 4.2 83.85 4.65 83.65 6.25 82.5 6.95 81.8 7.0 81.75 8.0 80.65 8.55 79.95 9.6 77.65 9.6 77.55 9.75 76.65 9.7 76.2 9.6 75.2 Q9.65 74.05 8.7 73.5 L8.35 73.25 8.2 73.1 7.55 72.6 7.25 72.45 6.95 72.3 6.3 72.25 7.55 70.85 7.8 70.65 8.15 70.85 9.8 72.1 10.05 72.4 10.75 73.45 10.85 73.7 Q11.4 74.75 11.15 75.85 L11.1 76.3 11.15 76.35 11.0 77.1 10.7 78.3 10.65 78.4 10.15 79.6 9.4 80.85 9.2 81.15 8.8 81.6 8.35 82.15 8.0 82.6 8.3 82.85 8.5 83.2 9.05 82.45 9.5 81.85 10.2 80.85 11.5 79.1 12.7 77.4 13.65 75.95 13.75 75.8 Q14.0 74.5 13.85 73.15 13.7 71.05 12.8 69.15 12.3 68.0 11.6 67.1 L12.15 66.55 13.75 65.3 14.7 67.5 15.5 70.25 16.2 72.9 16.55 74.05 16.6 74.35 16.75 74.75 16.85 74.8 17.9 75.05 18.5 75.25 Q20.7 75.85 21.9 76.6 L22.8 77.15 25.15 79.55 26.5 81.45 Q27.8 83.75 28.25 86.4 L28.25 86.55 28.4 88.2 28.55 88.3 Q32.65 87.5 35.7 88.3 37.9 88.75 39.6 90.05 42.4 92.15 44.2 95.05 46.0 97.9 46.65 101.15 L47.3 104.5 M19.6 91.8 Q20.05 91.45 20.5 91.35 L20.75 91.25 21.4 90.75 22.15 90.1 23.0 89.3 23.45 88.9 25.15 87.45 25.95 86.85 Q25.85 85.35 25.1 83.95 L24.05 81.9 22.75 80.05 21.15 78.45 Q20.35 77.75 19.35 77.2 L18.9 76.85 Q17.45 76.1 15.75 76.1 L15.6 76.2 15.25 76.7 14.3 77.75 13.8 78.35 12.85 79.4 14.8 79.2 15.7 79.3 Q16.25 79.3 16.7 79.6 L17.3 79.9 18.9 81.1 19.15 81.5 20.1 83.15 20.35 83.9 20.65 84.8 20.85 85.35 Q21.15 86.3 20.8 87.35 L20.7 87.95 20.0 89.35 17.65 92.65 17.15 93.1 17.4 93.55 17.55 93.85 17.65 94.0 17.75 94.2 17.95 94.05 18.15 93.75 18.15 93.7 18.65 93.15 19.6 91.8 M12.6 93.75 L13.35 93.5 15.9 91.85 17.1 90.65 17.85 89.9 18.8 88.4 19.3 87.2 19.6 86.55 19.6 85.45 Q19.5 84.7 19.05 83.85 L18.95 83.6 17.6 82.05 17.25 81.75 16.45 81.2 Q15.9 80.75 15.3 80.7 L14.85 80.6 14.8 80.55 Q14.65 80.55 14.6 80.65 L13.9 80.7 13.5 80.85 12.2 81.35 10.45 82.25 10.15 82.45 9.95 82.65 9.9 82.75 9.15 83.5 8.9 83.75 8.0 84.85 Q7.55 85.5 7.25 86.25 L6.9 87.0 6.85 87.15 Q6.3 88.7 6.45 90.55 L6.65 91.15 6.9 91.7 7.9 92.85 9.45 93.5 9.75 93.55 10.9 93.8 11.25 93.9 12.3 93.85 12.6 93.75 M15.35 96.75 L15.6 96.45 16.1 95.8 15.35 94.6 Q15.25 94.6 15.2 94.7 L14.5 95.1 14.3 95.25 13.7 95.5 12.95 95.7 11.8 95.75 11.4 95.85 9.6 95.55 9.05 95.35 8.65 95.15 7.05 94.5 6.25 93.9 6.0 93.5 5.3 92.9 5.15 92.65 4.3 91.15 4.15 91.3 4.2 91.45 3.95 91.85 3.95 91.95 4.35 94.1 4.65 95.3 Q5.15 97.35 6.95 98.15 9.2 99.1 11.4 99.65 L13.65 100.05 14.15 98.85 15.35 96.75 M22.3 92.1 L21.65 92.45 19.95 93.8 19.4 94.25 18.8 94.95 18.6 95.15 18.45 95.35 Q17.85 96.25 17.5 97.35 L17.0 99.25 16.95 99.9 16.9 100.75 17.2 102.95 17.2 103.05 17.55 103.95 17.6 104.0 Q18.7 105.85 20.75 106.35 L22.3 106.55 Q23.75 106.45 25.05 105.7 L25.35 105.6 25.5 105.5 Q27.3 104.5 28.8 103.2 L28.8 103.15 28.95 103.05 30.45 101.05 30.65 100.65 31.15 98.15 31.2 97.5 31.1 96.75 30.85 95.85 30.8 95.8 30.75 95.35 30.7 95.2 30.6 95.0 30.4 94.7 30.25 94.45 29.95 94.15 29.3 93.6 29.2 93.4 29.1 93.25 28.9 93.05 28.8 93.0 28.35 92.8 27.5 92.2 27.15 92.0 26.5 91.75 26.0 91.65 25.45 91.5 24.25 91.5 23.65 91.6 Q22.9 91.6 22.3 92.05 L22.3 92.1 M43.5 102.05 L43.5 101.6 43.45 101.45 43.0 98.65 Q42.5 96.75 41.4 95.25 L38.55 92.55 Q37.0 91.2 35.15 90.2 33.55 89.3 31.75 89.25 L29.6 89.2 28.35 89.35 26.75 89.55 26.6 89.65 26.45 89.8 26.4 89.85 26.25 89.9 Q26.15 89.9 26.0 90.05 L27.1 90.35 27.5 90.5 28.15 90.8 29.35 91.65 30.15 92.1 30.6 92.5 31.9 94.35 32.55 95.75 32.95 96.95 33.1 97.95 33.15 98.3 33.15 99.05 32.95 100.3 32.8 100.9 32.15 102.4 31.3 103.65 30.9 104.2 30.8 104.35 30.35 104.85 29.5 105.95 29.1 106.2 29.05 106.25 30.05 107.35 32.3 109.35 33.0 108.55 33.75 107.65 34.25 107.05 34.7 106.55 36.25 105.3 36.6 105.1 36.75 104.95 Q38.4 103.9 40.25 103.0 L42.0 102.45 42.45 102.3 42.45 102.35 42.6 102.3 42.65 102.3 43.05 102.2 43.5 102.25 43.5 102.05 M27.15 116.65 L27.4 117.05 28.3 117.7 Q29.9 119.05 31.7 119.95 L32.65 120.45 32.9 120.6 Q30.9 118.4 29.45 115.75 L28.6 115.85 27.55 116.05 Q27.4 116.05 27.2 116.25 27.0 116.35 27.15 116.65" fill="#556893" fill-rule="evenodd" stroke="none"/>
      <path d="M73.2 93.85 L73.4 94.0 74.2 94.6 72.75 94.5 Q71.6 94.4 71.15 95.3 L71.1 95.85 71.35 100.45 71.55 101.55 72.2 103.45 72.05 103.85 70.7 105.6 69.5 106.05 69.35 106.1 69.1 106.2 68.85 105.15 Q68.65 104.25 68.8 103.35 L69.0 100.75 Q68.95 98.9 69.3 97.05 L69.8 95.35 Q70.1 94.7 70.75 94.25 71.35 93.8 72.15 93.75 L73.2 93.85 M77.35 112.7 L76.2 114.05 Q74.75 115.5 73.7 117.1 L72.1 119.4 Q71.75 119.35 71.5 118.8 L71.1 117.1 70.9 114.7 71.25 110.85 71.45 109.1 71.55 108.9 70.45 107.2 71.4 106.85 73.45 106.9 Q73.95 106.85 73.95 107.25 L74.0 108.1 Q74.65 110.0 75.95 111.5 76.6 112.25 77.35 112.7 M17.3 112.05 Q16.6 110.4 16.25 108.65 L15.95 107.45 15.9 107.25 15.65 106.25 15.45 105.2 15.5 105.05 15.65 105.35 18.45 108.6 Q19.75 109.7 21.3 110.4 21.75 110.55 22.2 110.85 23.55 111.65 24.9 111.8 L25.05 111.85 25.4 112.15 26.0 113.0 26.15 113.25 26.3 113.4 26.4 113.6 26.75 113.25 27.2 112.4 27.3 112.2 27.5 111.85 28.8 109.55 29.05 109.75 31.1 111.0 30.35 112.15 29.7 113.25 28.75 114.55 28.4 114.8 25.1 115.0 23.3 114.75 21.2 114.2 Q19.15 113.25 17.35 112.1 L17.3 112.05 M1.2 88.7 L0.9 87.35 0.7 86.55 0.75 86.5 1.3 86.65 2.5 86.7 Q4.75 86.35 6.4 84.8 L7.35 84.1 7.55 84.4 5.45 87.1 4.55 88.2 3.15 88.7 Q2.1 88.9 1.2 88.7 M8.6 69.75 L9.75 68.65 11.6 67.1 Q12.3 68.0 12.8 69.15 13.7 71.05 13.85 73.15 14.0 74.5 13.75 75.8 L13.65 75.95 12.7 77.4 11.5 79.1 10.2 80.85 9.5 81.85 9.05 82.45 8.5 83.2 8.3 82.85 Q8.4 82.5 8.65 82.3 L9.35 81.3 10.45 79.45 10.7 79.2 11.0 78.55 11.1 78.35 11.2 78.1 11.4 77.55 11.35 77.3 11.65 76.45 11.75 76.05 11.7 75.15 11.65 74.8 11.5 73.55 11.5 73.35 11.6 73.1 12.05 69.95 11.75 69.4 11.4 69.35 Q9.95 69.25 8.6 69.75 M14.3 77.75 L15.25 76.7 15.6 76.2 15.75 76.1 Q17.45 76.1 18.9 76.85 L19.35 77.2 Q20.35 77.75 21.15 78.45 L22.75 80.05 24.05 81.9 25.1 83.95 Q25.85 85.35 25.95 86.85 L25.15 87.45 23.45 88.9 23.0 89.3 22.15 90.1 21.4 90.75 20.75 91.25 20.5 91.35 Q20.05 91.45 19.6 91.8 L20.85 89.9 21.15 89.5 21.6 88.4 21.95 87.1 22.05 86.6 21.95 86.25 21.45 84.3 21.15 82.55 20.2 79.25 19.7 78.15 19.6 78.0 19.45 77.9 18.75 77.45 18.55 77.35 17.85 77.1 17.7 77.1 15.8 77.35 15.0 77.6 14.3 77.75 M4.2 91.45 L4.2 91.65 Q4.6 94.1 6.55 95.45 L9.3 97.1 10.3 97.4 11.95 97.2 12.3 97.1 14.3 96.5 14.45 96.35 14.6 96.35 14.95 96.55 15.15 96.75 15.35 96.75 14.15 98.85 13.65 100.05 11.4 99.65 Q9.2 99.1 6.95 98.15 5.15 97.35 4.65 95.3 L4.35 94.1 3.95 91.95 3.95 91.85 4.2 91.45 M26.45 89.8 L26.6 89.65 26.75 89.55 28.35 89.35 29.6 89.2 31.75 89.25 Q33.55 89.3 35.15 90.2 37.0 91.2 38.55 92.55 L41.4 95.25 Q42.5 96.75 43.0 98.65 L43.45 101.45 43.5 101.6 43.5 102.05 Q43.05 102.1 42.6 102.3 L42.45 102.35 42.45 102.3 42.0 102.45 40.25 103.0 Q38.4 103.9 36.75 104.95 L36.6 105.1 36.25 105.3 34.7 106.55 34.25 107.05 33.75 107.65 33.0 108.55 32.3 109.35 31.35 107.35 31.5 107.2 31.9 106.65 31.95 106.55 32.0 106.35 32.65 105.3 33.15 104.45 33.2 104.1 33.4 103.7 34.35 100.85 34.55 100.15 35.15 97.6 35.2 97.3 35.35 96.55 35.8 94.8 36.0 92.3 35.1 90.85 35.0 90.75 34.8 90.65 34.5 90.55 32.1 89.85 28.4 89.5 27.55 89.5 26.65 89.7 26.45 89.8 M27.15 116.65 Q27.0 116.35 27.2 116.25 27.4 116.05 27.55 116.05 L28.6 115.85 29.45 115.75 Q30.9 118.4 32.9 120.6 L32.65 120.45 31.7 119.95 Q29.9 119.05 28.3 117.7 L27.4 117.05 27.15 116.65" fill="#7490b5" fill-rule="evenodd" stroke="none"/>
      <path d="M77.1 96.95 L77.95 97.7 78.55 98.4 79.05 99.0 79.15 99.1 78.55 100.15 78.05 100.8 77.3 101.35 76.8 101.4 Q76.4 101.2 76.25 100.8 L76.05 99.8 Q76.0 98.8 76.55 98.0 L75.2 97.45 75.35 97.1 Q75.4 96.7 75.8 96.7 L76.35 96.6 76.6 96.7 77.1 96.95 M80.2 101.3 L80.45 102.05 80.65 103.0 80.65 104.8 80.45 105.6 80.1 106.3 80.0 106.6 80.0 106.1 79.85 103.65 79.45 102.35 80.2 101.3 M5.0 72.95 L5.15 72.9 6.1 72.5 6.95 72.3 7.25 72.45 7.55 72.6 8.2 73.1 8.35 73.25 8.7 73.5 Q9.65 74.05 9.6 75.2 L9.7 76.2 9.75 76.65 9.6 77.55 9.6 77.65 8.55 79.95 8.0 80.65 7.0 81.75 6.95 81.8 6.25 82.5 4.65 83.65 4.2 83.85 4.15 83.9 4.35 83.65 6.15 81.4 6.95 79.9 7.55 77.85 7.7 77.15 Q8.0 76.0 7.9 74.8 7.85 74.25 7.4 73.75 L6.45 73.2 5.2 73.0 5.15 73.0 5.0 72.95 M10.15 82.45 L10.45 82.25 12.2 81.35 13.5 80.85 13.9 80.7 14.6 80.65 Q14.65 80.55 14.8 80.55 L14.85 80.6 15.3 80.7 Q15.9 80.75 16.45 81.2 L17.25 81.75 17.6 82.05 18.95 83.6 19.05 83.85 Q19.5 84.7 19.6 85.45 L19.6 86.55 19.3 87.2 18.8 88.4 17.85 89.9 17.1 90.65 15.9 91.85 13.35 93.5 12.6 93.75 12.8 93.5 13.05 93.2 15.05 90.8 15.3 90.3 16.2 88.65 16.7 87.0 16.8 85.8 16.6 85.0 Q16.4 84.05 15.75 83.25 L14.8 82.35 13.3 81.95 12.3 82.0 11.7 82.1 10.15 82.45 M22.3 92.1 L22.3 92.05 22.75 91.8 23.65 91.6 24.25 91.5 25.45 91.5 26.0 91.65 26.5 91.75 27.15 92.0 27.5 92.2 28.35 92.8 28.8 93.0 28.9 93.05 29.1 93.25 29.2 93.4 29.3 93.6 29.95 94.15 30.25 94.45 30.4 94.7 30.6 95.0 30.7 95.2 30.75 95.35 30.8 95.8 30.85 95.85 31.1 96.75 31.2 97.5 31.15 98.15 30.65 100.65 30.45 101.05 28.95 103.05 28.8 103.15 28.8 103.2 Q27.3 104.5 25.5 105.5 L25.35 105.6 25.05 105.7 Q23.75 106.45 22.3 106.55 L22.95 106.1 24.2 105.4 Q25.2 104.75 26.0 103.9 L27.05 102.75 27.55 102.1 27.7 101.8 Q28.55 100.7 28.75 99.3 29.05 97.7 28.7 96.05 28.25 94.15 26.55 93.0 24.95 91.95 23.05 92.0 L22.3 92.1" fill="#e6f5f8" fill-rule="evenodd" stroke="none"/>
      <path d="M5.6 79.15 L5.45 79.9 4.65 81.65 4.6 81.55 4.1 80.9 Q3.55 80.25 3.35 79.6 L3.25 79.45 3.15 78.9 2.9 78.3 2.75 77.85 2.85 76.85 2.9 76.65 3.2 76.15 3.3 76.0 3.4 76.25 3.8 76.65 4.7 77.95 5.1 78.45 5.35 78.65 5.6 79.15 M10.2 85.0 L11.2 86.5 11.6 87.1 12.95 88.8 13.35 89.15 13.65 89.65 Q13.7 90.2 13.35 90.8 13.15 91.1 12.85 90.8 L11.5 89.55 11.05 88.95 9.25 86.95 Q8.75 86.35 8.75 85.55 L8.75 85.25 9.05 84.7 9.3 84.3 9.6 84.4 10.2 85.0 M19.25 96.9 Q18.95 96.5 19.5 96.1 L20.4 95.45 20.45 95.45 20.55 95.55 20.75 95.8 21.2 96.25 21.4 96.6 24.15 99.95 24.45 100.35 25.0 100.85 25.45 101.45 25.5 101.65 25.6 102.05 25.2 103.45 24.9 103.2 24.65 102.95 23.8 102.25 22.8 101.55 22.35 101.2 Q21.0 100.05 20.2 98.5 L19.25 96.9 M78.25 104.1 L78.05 104.15 77.65 103.0 77.45 102.8 77.2 102.4 77.35 102.15 78.55 100.15 79.45 102.35 78.25 104.1" fill="#7886a6" fill-rule="evenodd" stroke="none"/>
      <path d="M18.4 60.05 L20.45 60.45 26.05 61.55 26.9 61.5 33.25 58.85 33.25 59.1 33.45 60.05 33.8 60.95 34.15 62.05 34.55 62.95 34.9 63.8 35.4 64.55 35.85 65.35 36.4 66.2 36.95 66.95 37.45 67.65 37.95 68.35 39.15 69.75 39.75 70.4 40.45 71.0 40.95 71.6 42.05 72.65 43.15 73.75 44.3 74.7 45.5 75.6 46.75 76.45 47.6 76.9 48.25 77.2 49.2 77.7 49.95 78.2 50.8 78.65 51.8 79.1 53.9 80.0 56.2 80.9 57.45 81.2 Q58.15 81.5 58.75 81.6 L60.0 82.0 61.3 82.3 62.5 82.6 63.7 82.8 64.65 82.95 65.3 83.1 Q66.8 86.1 69.15 88.55 L69.55 88.95 69.6 89.0 69.15 89.4 69.15 89.7 M60.55 103.2 L60.45 103.35 59.1 104.2 58.85 104.35 54.7 105.05 Q52.15 105.65 49.85 106.7 L47.5 105.65 47.35 104.75 47.3 104.5 M13.75 65.3 L13.4 64.65 15.3 62.1 Q16.3 60.9 17.6 60.0 L17.95 60.05 18.2 60.1 18.4 60.05" fill="none" stroke="#560710" stroke-linecap="round" stroke-linejoin="round" stroke-width="1.0"/>
      <path d="M69.15 89.7 Q70.85 92.1 73.2 93.85 L73.4 94.0 74.2 94.6 75.3 95.5 76.0 96.1 76.6 96.7 76.85 96.85 77.1 96.95 77.95 97.7 78.55 98.4 79.05 99.0 79.15 99.1 79.15 99.25 79.75 100.05 80.2 101.3 80.45 102.05 80.65 103.0 80.65 104.8 80.45 105.6 80.1 106.3 80.0 106.6 79.45 107.3 79.45 108.1 79.2 109.55 79.1 110.05 78.9 110.45 78.85 110.7 77.35 112.7 76.2 114.05 Q74.75 115.5 73.7 117.1 L72.1 119.4 71.2 120.7 68.6 123.85 Q67.5 125.15 67.25 124.5 66.2 123.5 65.5 122.2 L64.7 120.45 Q64.3 119.4 64.2 118.2 L64.4 116.0 Q64.7 114.0 65.75 112.3 L67.0 110.3 68.45 108.1 68.4 108.05 66.45 106.5 65.5 105.75 63.0 104.15 Q61.8 103.45 60.55 103.2 M47.3 104.5 L46.55 105.6 45.35 107.1 45.25 107.25 44.9 107.55 Q44.35 107.8 43.9 108.15 43.15 108.5 42.5 108.8 L38.55 110.7 35.85 112.0 35.45 112.2 35.3 112.15 35.35 112.95 Q35.4 115.05 35.85 117.15 L35.9 117.55 35.95 117.7 Q36.6 117.95 37.15 118.45 L38.15 119.45 39.3 120.75 Q39.9 121.45 40.05 122.5 40.0 123.15 40.3 123.95 40.5 124.75 39.95 124.95 37.05 126.45 33.75 127.05 L33.35 127.2 31.75 126.5 30.9 126.2 Q28.5 125.1 26.35 123.5 L25.7 123.05 25.45 122.9 22.05 120.35 21.2 119.6 20.75 118.9 18.45 114.65 18.25 114.25 Q17.6 113.15 17.3 112.05 16.6 110.4 16.25 108.65 L15.95 107.45 15.2 107.35 13.75 107.2 13.35 107.2 12.95 107.1 Q11.85 107.05 10.95 106.4 L9.65 105.3 8.0 103.9 7.05 103.0 6.05 101.85 5.6 101.5 4.1 97.65 3.85 96.6 3.2 94.75 3.2 94.6 2.9 93.4 2.85 93.15 2.6 92.85 1.8 91.2 1.7 90.95 1.35 89.25 1.2 88.7 0.9 87.35 0.7 86.55 0.75 86.5 0.6 85.45 Q0.4 83.95 0.35 82.5 L0.2 82.0 0.05 81.45 0.0 80.2 0.2 79.65 Q0.2 79.25 0.35 78.8 0.65 78.1 1.1 77.35 L1.65 76.3 Q2.8 74.35 4.8 73.1 L5.0 72.95 5.15 72.9 6.1 72.5 6.3 72.25 7.55 70.85 7.8 70.65 8.6 69.75 9.75 68.65 11.6 67.1 12.15 66.55 13.75 65.3 M6.95 72.3 L6.1 72.5 M0.35 82.5 L0.0 80.2 M6.95 72.3 L6.3 72.25 M76.6 96.7 L77.1 96.95" fill="none" stroke="#384974" stroke-linecap="round" stroke-linejoin="round" stroke-width="1.0"/>
      <path d="M80.35 7.5 L84.1 7.35 84.95 7.3 Q87.85 7.2 90.5 8.2 92.3 8.85 94.0 9.65 L99.4 12.5 Q101.25 13.55 102.9 14.8 L104.5 17.7 107.45 23.2 110.05 29.25 111.9 35.05 113.45 40.7 114.5 46.25 113.35 47.7 109.55 52.5 108.7 53.55 108.45 53.85 106.1 56.45 103.7 54.7 101.2 52.85 Q99.85 51.8 99.05 50.35 L98.9 50.75 95.5 54.9 95.05 55.45 93.9 55.15 91.45 54.3 91.25 54.2 90.25 53.6 92.9 52.55 94.9 51.8 94.9 51.75 95.1 51.45 95.4 50.75 95.5 50.6 95.55 50.55 96.0 49.55 97.35 46.55 97.9 45.15 98.05 44.5 98.55 42.65 94.4 40.2 Q93.2 39.5 91.9 38.95 L89.0 37.6 88.8 37.55 88.75 37.6 Q88.45 37.7 88.1 37.9 87.35 38.2 86.6 38.7 L84.3 40.15 84.5 38.4 84.55 38.2 84.75 37.3 84.9 36.5 84.45 35.85 84.1 35.4 85.4 35.0 88.45 34.7 89.0 34.55 89.4 34.45 89.3 34.3 89.05 34.0 Q87.9 32.7 87.25 31.0 L84.6 24.4 Q83.45 21.3 82.6 18.15 81.6 14.55 81.05 10.9 L80.35 7.5" fill="#1e2d43" fill-rule="evenodd" stroke="none"/>
      <path d="M106.1 56.45 L105.8 56.75 Q103.25 58.45 102.25 59.25 L101.75 59.8 99.95 58.55 96.6 55.9 96.15 55.55 95.05 55.45 95.5 54.9 98.9 50.75 99.05 50.35 Q99.85 51.8 101.2 52.85 L103.7 54.7 106.1 56.45 M77.05 7.75 L77.25 7.95 77.9 7.8 80.35 7.5 81.05 10.9 Q81.6 14.55 82.6 18.15 83.45 21.3 84.6 24.4 L87.25 31.0 Q87.9 32.7 89.05 34.0 L89.3 34.3 89.4 34.45 89.0 34.55 88.45 34.7 85.4 35.0 84.1 35.4 83.15 34.05 82.4 32.8 80.7 29.6 78.95 25.55 78.95 25.5 78.2 23.15 77.7 20.8 77.2 17.95 77.0 16.25 76.75 12.1 76.85 9.05 77.05 7.75" fill="#2d475e" fill-rule="evenodd" stroke="none"/>
      <path d="M101.75 59.8 L101.7 59.95 101.6 60.65 101.7 63.5 101.75 63.95 100.75 63.1 100.5 62.9 98.35 61.2 95.25 58.6 Q93.95 57.55 92.95 56.4 92.3 56.55 91.8 56.85 90.7 57.6 89.5 57.95 L85.55 59.3 82.15 60.05 81.2 60.35 78.85 60.85 75.55 61.3 72.85 61.45 71.0 61.4 70.05 61.3 69.05 60.65 Q67.6 59.5 66.7 57.9 L66.7 57.8 Q66.7 57.1 66.85 56.5 67.25 54.75 68.0 53.15 L68.35 52.45 70.6 48.95 71.25 48.05 73.3 45.55 75.5 43.2 75.9 42.75 78.25 40.55 Q79.1 39.75 80.1 39.1 L80.2 39.0 80.75 38.5 80.0 37.15 78.7 34.7 78.2 33.6 77.9 33.05 77.55 32.3 76.3 29.6 75.55 28.0 75.05 26.45 74.35 23.65 74.3 23.65 74.15 23.1 73.55 19.45 73.4 18.45 73.35 17.65 73.0 14.2 72.9 11.2 72.95 8.85 71.9 7.75 69.45 5.1 67.0 2.1 66.25 0.85 66.25 0.55 66.8 0.2 70.65 3.55 72.9 5.1 77.05 7.75 76.85 9.05 76.75 12.1 77.0 16.25 77.2 17.95 77.7 20.8 78.2 23.15 78.95 25.5 78.95 25.55 80.7 29.6 82.4 32.8 83.15 34.05 84.1 35.4 84.45 35.85 84.9 36.5 84.75 37.3 84.55 38.2 84.5 38.4 84.3 40.15 83.9 40.45 82.5 41.5 80.95 42.65 80.0 43.55 77.65 45.7 75.2 48.35 74.6 49.1 72.1 52.25 71.4 53.3 70.05 55.55 69.25 57.3 70.65 58.1 71.55 58.05 74.35 57.9 77.9 57.45 81.8 56.5 85.55 55.35 88.95 54.15 89.1 54.05 90.25 53.6 91.25 54.2 91.45 54.3 93.9 55.15 95.05 55.45 96.15 55.55 96.6 55.9 99.95 58.55 101.75 59.8" fill="#4c6293" fill-rule="evenodd" stroke="none"/>
      <path d="M84.3 40.15 L86.6 38.7 Q87.35 38.2 88.1 37.9 88.45 37.7 88.75 37.6 L88.8 37.55 89.0 37.6 91.9 38.95 Q93.2 39.5 94.4 40.2 L98.55 42.65 98.05 44.5 97.9 45.15 97.35 46.55 96.0 49.55 95.55 50.55 95.1 50.6 95.0 50.6 94.65 50.5 94.6 50.5 92.1 50.2 89.75 49.75 87.2 49.05 Q86.8 47.35 87.05 45.7 L87.4 44.0 87.5 43.55 88.0 41.3 88.25 40.95 88.25 40.75 88.25 40.65 88.25 40.55 88.4 39.7 88.5 39.35 88.7 38.05 87.4 40.25 87.05 40.8 86.3 42.35 85.75 42.7 84.25 43.8 82.5 45.25 79.9 47.6 78.75 48.65 77.35 50.1 74.5 53.35 74.5 53.4 72.95 55.5 72.8 55.75 75.65 56.2 78.95 55.95 83.35 55.0 85.85 54.35 87.1 54.05 88.35 53.65 90.85 52.9 92.25 52.5 Q92.7 52.25 93.1 52.15 L93.5 51.9 93.55 51.85 93.65 51.8 94.3 51.45 95.1 51.45 94.9 51.75 94.9 51.8 92.9 52.55 90.25 53.6 89.1 54.05 88.95 54.15 85.55 55.35 81.8 56.5 77.9 57.45 74.35 57.9 71.55 58.05 70.65 58.1 69.25 57.3 70.05 55.55 71.4 53.3 72.1 52.25 74.6 49.1 75.2 48.35 77.65 45.7 80.0 43.55 80.95 42.65 82.5 41.5 83.9 40.45 84.3 40.15" fill="#348ccc" fill-rule="evenodd" stroke="none"/>
      <path d="M95.5 50.6 L95.4 50.75 95.1 51.45 94.3 51.45 93.65 51.8 93.55 51.85 93.5 51.9 93.1 52.15 Q92.7 52.25 92.25 52.5 L90.85 52.9 88.35 53.65 87.1 54.05 85.85 54.35 83.35 55.0 78.95 55.95 75.65 56.2 72.8 55.75 72.95 55.5 74.5 53.4 74.5 53.35 77.35 50.1 78.75 48.65 79.9 47.6 82.5 45.25 84.25 43.8 85.75 42.7 86.3 42.35 87.05 40.8 87.4 40.25 88.7 38.05 88.5 39.35 88.4 39.7 88.25 40.35 88.25 40.55 88.25 40.65 88.25 40.75 88.15 41.0 86.3 42.35 85.9 43.45 Q85.7 43.7 85.75 43.95 L84.8 47.0 84.3 49.25 84.3 49.5 82.85 50.45 79.9 52.45 78.05 53.6 76.3 54.6 77.65 54.25 79.4 53.65 82.1 52.7 85.3 51.65 88.05 51.85 90.85 51.7 93.95 51.45 94.5 50.65 94.65 50.5 95.0 50.6 95.1 50.6 95.5 50.6" fill="#4fbdee" fill-rule="evenodd" stroke="none"/>
      <path d="M88.0 41.3 L87.5 43.55 87.4 44.0 87.05 45.7 Q86.8 47.35 87.2 49.05 L89.75 49.75 92.1 50.2 94.6 50.5 94.65 50.5 94.5 50.65 93.95 51.45 90.85 51.7 88.05 51.85 85.3 51.65 82.1 52.7 79.4 53.65 77.65 54.25 76.3 54.6 78.05 53.6 79.9 52.45 82.85 50.45 84.3 49.5 84.3 49.25 84.8 47.0 85.75 43.95 Q85.7 43.7 85.9 43.45 L86.3 42.35 88.15 41.0 88.0 41.3" fill="#80fbff" fill-rule="evenodd" stroke="none"/>
      <path d="M101.75 63.95 L101.65 65.1 101.6 65.15 101.1 65.45 100.65 65.75 Q98.35 66.9 95.5 67.25 L95.1 67.35 90.0 67.9 Q89.35 68.15 88.8 68.5 L87.8 68.95 Q87.55 69.1 87.35 69.2 L87.2 69.3 87.15 69.25 85.85 68.85 84.3 68.35 83.5 68.1 80.95 67.2 80.8 67.15 80.0 66.8 78.15 66.7 76.65 66.5 76.4 66.5 72.1 65.35 Q70.35 64.5 68.7 63.45 L68.35 63.3 66.7 62.0 64.55 60.2 Q62.95 58.85 61.7 57.15 L61.5 56.85 59.0 53.25 58.65 52.8 57.35 50.55 61.35 47.45 62.3 46.6 65.2 44.5 65.9 44.1 67.65 43.15 68.45 42.75 Q70.75 41.6 73.25 40.85 L78.65 39.35 80.2 39.0 80.1 39.1 Q79.1 39.75 78.25 40.55 L75.9 42.75 75.5 43.2 73.3 45.55 71.25 48.05 70.6 48.95 68.35 52.45 68.0 53.15 Q67.25 54.75 66.85 56.5 66.7 57.1 66.7 57.8 L66.7 57.9 Q67.6 59.5 69.05 60.65 L70.05 61.3 71.0 61.4 72.85 61.45 Q71.7 62.3 70.85 63.25 72.45 63.0 74.0 62.25 L74.8 62.2 78.9 61.7 80.25 61.6 84.35 61.0 84.45 60.9 87.15 60.2 87.95 60.0 88.75 59.75 91.5 58.95 91.7 58.9 92.0 58.85 Q92.85 59.0 93.7 59.55 L94.9 60.3 98.3 61.9 100.5 62.9 100.75 63.1 101.75 63.95 M84.3 70.9 L82.6 71.9 79.55 73.9 75.15 76.85 70.8 79.8 69.05 79.4 65.2 78.15 64.2 77.8 63.45 77.35 62.65 77.0 62.05 76.7 61.85 76.6 61.4 76.35 59.45 75.45 56.1 73.1 56.0 73.05 54.0 71.3 53.1 70.4 51.35 68.55 50.85 68.15 49.8 66.85 48.85 65.6 47.75 63.5 47.55 62.85 46.7 60.6 46.5 60.2 51.05 55.95 51.7 55.35 54.85 52.65 56.1 51.6 56.5 52.45 56.6 52.75 Q57.3 54.35 58.35 55.8 L58.8 56.35 59.15 56.85 60.8 58.9 63.9 62.05 64.2 62.3 64.95 62.95 64.8 62.9 64.75 62.85 64.75 63.05 64.85 63.2 64.9 63.4 65.95 64.8 64.25 66.4 62.85 67.55 62.2 68.15 61.25 68.8 59.25 70.3 57.8 71.5 Q59.85 69.95 62.05 68.8 L62.4 68.6 Q62.95 68.35 63.45 68.05 L63.9 67.85 Q65.55 66.85 67.4 66.55 L67.85 66.5 Q69.6 66.65 71.25 67.15 L71.4 67.2 73.05 67.55 73.2 67.6 73.35 67.65 73.5 67.65 76.55 68.45 78.5 68.8 79.8 69.0 80.6 69.1 83.2 70.35 83.6 70.55 84.3 70.9 M68.3 81.25 L67.05 81.85 Q65.65 82.5 64.3 83.1 L62.25 83.3 58.05 83.55 53.3 83.2 51.05 81.9 50.05 81.25 48.9 80.55 44.95 77.45 43.4 76.0 40.75 73.4 39.85 72.45 37.55 69.5 37.8 69.2 38.25 68.7 43.0 63.75 43.35 63.35 44.85 61.9 45.15 63.05 45.4 63.55 45.6 63.95 Q46.55 65.9 47.85 67.75 L48.35 68.35 48.5 68.7 49.25 69.45 49.85 70.05 50.3 70.55 50.6 71.0 Q51.65 72.35 53.0 73.5 L53.25 73.7 53.4 73.85 53.8 74.2 51.35 76.15 49.55 77.85 49.7 77.85 51.75 77.15 Q52.3 76.85 52.8 76.7 L54.0 76.2 54.1 76.15 56.05 76.8 57.15 77.05 58.25 77.35 59.2 77.45 59.4 77.55 59.5 77.65 63.3 79.4 66.25 80.5 67.9 81.1 68.3 81.25 M35.1 64.45 Q34.55 62.7 34.35 60.85 L33.85 58.15 Q33.45 56.4 33.3 54.5 L33.25 54.3 33.1 53.65 33.5 52.85 33.75 52.45 36.1 47.45 36.25 47.2 37.25 45.0 37.95 44.2 38.15 43.95 38.15 43.9 38.4 43.95 38.75 44.1 39.5 44.3 Q40.3 44.55 40.95 45.1 L41.2 45.2 Q41.8 45.35 41.65 45.75 L41.75 46.05 41.95 47.3 41.8 48.05 Q41.5 48.85 41.55 49.7 L41.5 51.2 Q41.4 51.85 41.45 52.4 L41.45 52.45 41.5 55.05 41.55 55.6 41.55 55.75 40.2 57.5 35.8 63.45 35.1 64.45 M40.25 41.45 Q41.1 41.35 41.6 40.25 L42.3 38.7 44.6 34.9 44.65 34.8 Q46.2 31.8 47.1 28.45 L47.75 25.55 48.1 22.75 48.05 19.3 48.2 19.1 49.35 19.1 Q51.55 19.15 53.5 20.1 L54.1 20.4 Q54.75 20.6 55.35 21.1 L55.6 21.4 56.25 22.55 56.65 23.3 56.7 23.65 Q56.95 25.05 55.8 26.4 L55.55 27.0 54.2 29.9 Q53.1 31.85 52.6 33.85 L52.55 34.05 Q52.0 35.85 51.7 37.75 L50.85 41.9 50.7 42.7 50.35 45.1 48.6 47.15 46.1 50.15 45.8 50.5 44.2 52.5 44.1 52.65 44.0 52.45 44.0 49.6 43.95 48.5 43.75 47.25 43.75 46.95 43.05 45.35 42.0 43.65 41.75 43.2 40.25 41.45 M53.5 12.6 L54.95 10.95 58.25 7.5 61.3 4.75 61.7 4.25 64.35 4.1 65.25 4.35 67.6 4.9 68.1 5.1 69.75 6.9 70.15 7.75 Q71.5 11.1 70.9 14.85 L70.75 15.85 69.9 19.0 69.85 19.05 68.85 22.3 67.45 24.1 63.9 28.4 61.75 31.1 59.9 33.45 Q58.05 35.6 56.35 37.85 L56.15 38.05 56.3 36.65 56.85 34.1 57.0 33.5 57.7 31.15 58.8 28.15 60.65 24.45 62.5 21.75 61.55 20.8 60.35 19.5 58.0 17.2 55.65 15.15 Q54.35 14.05 53.5 12.6 M55.7 50.65 Q54.0 51.45 52.45 52.6 L50.65 54.0 51.85 52.6 52.15 52.25 55.15 48.95 55.7 50.65 M80.0 37.15 L77.35 37.4 Q71.65 38.3 66.55 41.15 L66.0 41.5 70.45 38.25 Q71.7 37.35 73.1 36.6 75.45 35.3 77.4 33.55 L77.9 33.05 78.2 33.6 78.7 34.7 80.0 37.15" fill="#7490b5" fill-rule="evenodd" stroke="none"/>
      <path d="M37.55 69.5 L37.35 69.2 35.85 66.4 35.55 65.5 35.15 64.45 35.1 64.45 35.8 63.45 40.2 57.5 41.55 55.75 41.55 55.6 41.5 55.05 41.45 52.45 41.45 52.4 Q41.4 51.85 41.5 51.2 L41.55 49.7 Q41.5 48.85 41.8 48.05 L41.95 47.3 41.75 46.05 41.65 45.75 Q41.8 45.35 41.2 45.2 L40.95 45.1 Q40.3 44.55 39.5 44.3 L38.75 44.1 38.4 43.95 38.15 43.9 40.25 41.45 41.75 43.2 42.0 43.65 43.05 45.35 43.75 46.95 43.75 47.25 43.95 48.5 44.0 49.6 44.0 52.45 44.1 52.65 44.1 52.9 44.05 53.8 44.2 55.3 44.15 56.2 44.3 57.6 44.3 58.95 44.85 61.9 43.35 63.35 43.0 63.75 38.25 68.7 37.8 69.2 37.55 69.5 M48.2 19.1 L49.05 17.95 51.35 15.05 53.3 17.2 55.6 19.45 57.5 21.2 57.95 21.95 58.2 22.45 58.55 24.1 58.6 25.3 57.45 27.15 Q56.45 29.05 55.85 31.1 L55.15 33.65 54.9 34.7 54.25 38.65 53.95 40.7 53.8 42.55 53.75 43.95 53.95 44.6 54.4 46.4 54.65 47.25 54.95 48.3 55.15 48.95 52.15 52.25 51.85 52.6 50.65 54.0 52.45 52.6 Q54.0 51.45 55.7 50.65 L56.1 51.6 54.85 52.65 51.7 55.35 51.05 55.95 46.5 60.2 46.1 58.25 46.05 57.1 45.95 56.55 45.85 55.5 45.85 54.7 45.8 54.55 45.75 53.25 45.8 52.45 45.8 50.5 46.1 50.15 48.6 47.15 50.35 45.1 50.7 42.7 50.85 41.9 51.7 37.75 Q52.0 35.85 52.55 34.05 L52.6 33.85 Q53.1 31.85 54.2 29.9 L55.55 27.0 55.8 26.4 Q56.95 25.05 56.7 23.65 L56.65 23.3 56.25 22.55 55.6 21.4 55.35 21.1 Q54.75 20.6 54.1 20.4 L53.5 20.1 Q51.55 19.15 49.35 19.1 L48.2 19.1 M61.7 4.25 L66.5 0.0 66.8 0.2 66.25 0.55 66.25 0.85 67.0 2.1 69.45 5.1 71.9 7.75 72.95 8.85 72.9 11.2 73.0 14.2 73.35 17.65 73.4 18.45 73.55 19.45 74.15 23.1 74.3 23.65 74.35 23.65 75.05 26.45 75.55 28.0 76.3 29.6 77.55 32.3 77.9 33.05 77.4 33.55 Q75.45 35.3 73.1 36.6 71.7 37.35 70.45 38.25 L66.0 41.5 66.55 41.15 Q71.65 38.3 77.35 37.4 L80.0 37.15 80.75 38.5 80.2 39.0 78.65 39.35 73.25 40.85 Q70.75 41.6 68.45 42.75 L67.65 43.15 65.9 44.1 65.2 44.5 62.3 46.6 61.35 47.45 57.35 50.55 56.95 50.0 56.95 49.85 56.9 49.75 56.3 47.25 55.9 45.25 55.8 45.05 55.65 42.5 Q55.65 41.6 55.8 40.7 L56.15 38.05 56.35 37.85 Q58.05 35.6 59.9 33.45 L61.75 31.1 63.9 28.4 67.45 24.1 68.85 22.3 69.85 19.05 69.9 19.0 70.75 15.85 70.9 14.85 Q71.5 11.1 70.15 7.75 L69.75 6.9 68.1 5.1 67.6 4.9 65.25 4.35 64.35 4.1 61.7 4.25 M100.5 62.9 L98.3 61.9 94.9 60.3 93.7 59.55 Q92.85 59.0 92.0 58.85 L91.7 58.9 91.5 58.95 88.75 59.75 87.95 60.0 87.15 60.2 84.45 60.9 84.35 61.0 80.25 61.6 78.9 61.7 74.8 62.2 74.0 62.25 Q72.45 63.0 70.85 63.25 71.7 62.3 72.85 61.45 L75.55 61.3 78.85 60.85 81.2 60.35 82.15 60.05 85.55 59.3 89.5 57.95 Q90.7 57.6 91.8 56.85 92.3 56.55 92.95 56.4 93.95 57.55 95.25 58.6 L98.35 61.2 100.5 62.9 M60.6 41.45 L59.65 42.45 58.1 44.25 60.1 42.4 63.4 39.65 67.1 36.9 68.4 35.9 Q69.95 34.8 71.65 34.0 L72.95 33.35 73.7 32.9 74.35 32.3 Q75.25 31.5 75.85 30.5 L74.8 27.15 74.05 24.4 73.4 25.55 72.4 27.15 70.15 30.35 67.85 33.25 67.35 33.85 65.3 36.35 62.4 39.6 60.6 41.45 M52.2 48.55 L50.05 51.95 49.6 52.5 47.65 55.0 50.5 52.55 50.8 52.3 54.15 49.55 54.25 49.45 54.2 49.15 53.8 47.25 53.5 45.85 53.15 46.35 52.85 47.2 52.2 48.55 M64.95 62.95 L65.0 63.0 65.05 63.0 65.3 63.25 67.55 64.75 68.15 65.2 69.75 66.15 70.0 66.35 70.2 66.5 Q71.15 66.75 72.05 67.15 L72.7 67.35 73.2 67.6 73.05 67.55 71.4 67.2 71.25 67.15 Q69.6 66.65 67.85 66.5 L67.4 66.55 Q65.55 66.85 63.9 67.85 L63.45 68.05 Q62.95 68.35 62.4 68.6 L62.05 68.8 Q59.85 69.95 57.8 71.5 L59.25 70.3 61.25 68.8 62.2 68.15 62.85 67.55 64.25 66.4 65.95 64.8 64.9 63.4 64.85 63.2 64.75 63.05 64.75 62.85 64.8 62.9 64.95 62.95 M53.8 74.2 L55.45 75.4 58.7 77.25 59.2 77.45 58.25 77.35 57.15 77.05 56.05 76.8 54.1 76.15 54.0 76.2 52.8 76.7 Q52.3 76.85 51.75 77.15 L49.7 77.85 49.55 77.85 51.35 76.15 53.8 74.2 M43.6 57.8 L43.45 57.1 43.25 57.75 42.8 58.7 42.15 60.05 41.7 60.7 41.65 60.75 40.9 61.95 40.25 62.95 40.75 62.45 41.4 61.85 41.95 61.35 42.6 60.65 43.6 59.5 43.8 59.2 43.75 58.55 43.6 57.8" fill="#b8d5e5" fill-rule="evenodd" stroke="none"/>
      <path d="M87.15 69.25 Q85.4 69.15 84.75 69.95 L84.5 70.35 84.3 70.9 83.6 70.55 83.2 70.35 80.6 69.1 79.8 69.0 78.5 68.8 76.55 68.45 73.5 67.65 73.35 67.65 73.2 67.6 72.7 67.35 72.05 67.15 Q71.15 66.75 70.2 66.5 L70.0 66.35 69.75 66.15 68.15 65.2 67.55 64.75 65.3 63.25 65.05 63.0 65.0 63.0 64.95 62.95 64.2 62.3 63.9 62.05 60.8 58.9 59.15 56.85 58.8 56.35 58.35 55.8 Q57.3 54.35 56.6 52.75 L56.5 52.45 56.1 51.6 55.7 50.65 55.15 48.95 54.95 48.3 54.65 47.25 54.4 46.4 53.95 44.6 53.75 43.95 53.8 42.55 53.95 40.7 54.25 38.65 54.9 34.7 55.15 33.65 55.85 31.1 Q56.45 29.05 57.45 27.15 L58.6 25.3 58.55 24.1 58.2 22.45 57.95 21.95 57.5 21.2 55.6 19.45 53.3 17.2 51.35 15.05 52.5 14.6 Q53.3 14.25 53.5 12.6 54.35 14.05 55.65 15.15 L58.0 17.2 60.35 19.5 61.55 20.8 62.5 21.75 60.65 24.45 58.8 28.15 57.7 31.15 57.0 33.5 56.85 34.1 56.3 36.65 56.15 38.05 55.8 40.7 Q55.65 41.6 55.65 42.5 L55.8 45.05 55.9 45.25 56.3 47.25 56.9 49.75 56.95 49.85 56.95 50.0 57.35 50.55 58.65 52.8 59.0 53.25 61.5 56.85 61.7 57.15 Q62.95 58.85 64.55 60.2 L66.7 62.0 68.35 63.3 68.7 63.45 Q70.35 64.5 72.1 65.35 L76.4 66.5 76.65 66.5 78.15 66.7 80.0 66.8 80.8 67.15 80.95 67.2 83.5 68.1 84.3 68.35 85.85 68.85 87.15 69.25 M70.8 79.8 Q68.35 79.95 68.35 80.5 L68.3 81.25 67.9 81.1 66.25 80.5 63.3 79.4 59.5 77.65 59.4 77.55 59.2 77.45 58.7 77.25 55.45 75.4 53.8 74.2 53.4 73.85 53.25 73.7 53.0 73.5 Q51.65 72.35 50.6 71.0 L50.3 70.55 49.85 70.05 49.25 69.45 48.5 68.7 48.35 68.35 47.85 67.75 Q46.55 65.9 45.6 63.95 L45.4 63.55 45.15 63.05 44.85 61.9 44.3 58.95 44.3 57.6 44.15 56.2 44.2 55.3 44.05 53.8 44.1 52.9 44.1 52.65 44.2 52.5 45.8 50.5 45.8 52.45 45.75 53.25 45.8 54.55 45.85 54.7 45.85 55.5 45.95 56.55 46.05 57.1 46.1 58.25 46.5 60.2 46.7 60.6 47.55 62.85 47.75 63.5 48.85 65.6 49.8 66.85 50.85 68.15 51.35 68.55 53.1 70.4 54.0 71.3 56.0 73.05 56.1 73.1 59.45 75.45 61.4 76.35 61.85 76.6 62.05 76.7 62.65 77.0 63.45 77.35 64.2 77.8 65.2 78.15 69.05 79.4 70.8 79.8" fill="#45608b" fill-rule="evenodd" stroke="none"/>
      <path d="M60.6 41.45 L62.4 39.6 65.3 36.35 67.35 33.85 67.85 33.25 70.15 30.35 72.4 27.15 73.4 25.55 74.05 24.4 74.8 27.15 75.85 30.5 Q75.25 31.5 74.35 32.3 L73.7 32.9 72.95 33.35 71.65 34.0 Q69.95 34.8 68.4 35.9 L67.1 36.9 63.4 39.65 60.1 42.4 58.1 44.25 59.65 42.45 60.6 41.45 M52.2 48.55 L52.85 47.2 53.15 46.35 53.5 45.85 53.8 47.25 54.2 49.15 54.25 49.45 54.15 49.55 50.8 52.3 50.5 52.55 47.65 55.0 49.6 52.5 50.05 51.95 52.2 48.55 M43.6 57.8 L43.75 58.55 43.8 59.2 43.6 59.5 42.6 60.65 41.95 61.35 41.4 61.85 40.75 62.45 40.25 62.95 40.9 61.95 41.65 60.75 41.7 60.7 42.15 60.05 42.8 58.7 43.25 57.75 43.45 57.1 43.6 57.8" fill="#ffffff" fill-rule="evenodd" stroke="none"/>
      <path d="M80.35 7.5 L84.1 7.35 84.95 7.3 Q87.85 7.2 90.5 8.2 92.3 8.85 94.0 9.65 L99.4 12.5 Q101.25 13.55 102.9 14.8 L104.5 17.7 107.45 23.2 110.05 29.25 111.9 35.05 113.45 40.7 114.5 46.25 113.35 47.7 109.55 52.5 108.7 53.55 108.45 53.85 106.1 56.45 105.8 56.75 Q103.25 58.45 102.25 59.25 L101.75 59.8 M77.05 7.75 L77.25 7.95 77.9 7.8 80.35 7.5" fill="none" stroke="#1e2d54" stroke-linecap="round" stroke-linejoin="round" stroke-width="1.0"/>
      <path d="M101.75 59.8 L101.7 59.95 101.6 60.65 101.7 63.5 101.75 63.95 101.65 65.1 101.6 65.15 101.1 65.45 100.65 65.75 Q98.35 66.9 95.5 67.25 L95.1 67.35 90.0 67.9 Q89.35 68.15 88.8 68.5 L87.8 68.95 M87.35 69.2 L87.2 69.3 87.15 69.25 Q85.4 69.15 84.75 69.95 L84.5 70.35 84.3 70.9 82.6 71.9 79.55 73.9 75.15 76.85 70.8 79.8 Q68.35 79.95 68.35 80.5 L68.3 81.25 67.05 81.85 Q65.65 82.5 64.3 83.1 L62.25 83.3 58.05 83.55 53.3 83.2 51.05 81.9 50.05 81.25 48.9 80.55 44.95 77.45 43.4 76.0 40.75 73.4 39.85 72.45 37.55 69.5 37.35 69.2 35.85 66.4 35.55 65.5 35.15 64.45 35.1 64.45 Q34.55 62.7 34.35 60.85 L33.85 58.15 Q33.45 56.4 33.3 54.5 L33.25 54.3 33.1 53.65 33.5 52.85 33.75 52.45 36.1 47.45 36.25 47.2 37.25 45.0 37.95 44.2 38.15 43.95 38.15 43.9 40.25 41.45 Q41.1 41.35 41.6 40.25 L42.3 38.7 44.6 34.9 44.65 34.8 Q46.2 31.8 47.1 28.45 L47.75 25.55 48.1 22.75 48.05 19.3 48.2 19.1 49.05 17.95 51.35 15.05 52.5 14.6 Q53.3 14.25 53.5 12.6 L54.95 10.95 58.25 7.5 61.3 4.75 61.7 4.25 66.5 0.0 66.8 0.2 70.65 3.55 72.9 5.1 77.05 7.75" fill="none" stroke="#384974" stroke-linecap="round" stroke-linejoin="round" stroke-width="1.0"/>
    </g>
  </defs>
</svg>
