<?xml version="1.0" encoding="UTF-8" standalone="no"?>
<svg xmlns:ffdec="https://www.free-decompiler.com/flash" xmlns:xlink="http://www.w3.org/1999/xlink" ffdec:objectType="frame" height="30.0px" width="30.0px" xmlns="http://www.w3.org/2000/svg">
  <g transform="matrix(1.0, 0.0, 0.0, 1.0, 0.0, 0.0)">
    <use ffdec:characterId="1" height="30.0" transform="matrix(1.0, 0.0, 0.0, 1.0, 0.0, 0.0)" width="30.0" xlink:href="#shape0"/>
  </g>
  <defs>
    <g id="shape0" transform="matrix(1.0, 0.0, 0.0, 1.0, 0.0, 0.0)">
      <path d="M0.0 0.0 L30.0 0.0 30.0 30.0 0.0 30.0 0.0 0.0" fill="#33cc66" fill-opacity="0.0" fill-rule="evenodd" stroke="none"/>
      <path d="M3.3 0.0 L26.7 0.0 Q30.0 0.0 30.0 3.3 L30.0 26.7 Q30.0 30.0 26.7 30.0 L3.3 30.0 Q0.0 30.0 0.0 26.7 L0.0 3.3 Q0.0 0.0 3.3 0.0" fill="#ff99ff" fill-rule="evenodd" stroke="none"/>
      <path d="M17.7 11.3 L17.45 10.95 17.4 10.8 Q17.4 10.45 17.85 9.85 L18.05 9.75 19.1 9.8 Q19.9 10.35 20.15 11.05 20.45 11.95 20.05 12.6 19.8 13.05 18.9 13.2 L17.3 13.0 16.55 12.7 Q15.0 11.6 14.6 10.05 L14.4 8.9 14.55 8.25 14.5 8.35 Q13.95 9.05 13.75 9.8 L13.65 10.05 13.55 10.3 13.45 11.7 Q13.7 13.3 15.35 14.7 L16.45 15.6 16.7 15.75 Q18.9 17.15 20.7 17.15 22.85 17.05 24.15 15.0 24.75 14.15 24.9 13.15 L24.95 12.1 23.85 9.05 Q23.55 8.05 23.75 7.35 L24.55 6.75 25.55 5.9 Q26.25 4.85 26.3 3.9 26.4 3.1 26.0 1.8 26.0 2.75 25.65 3.2 24.45 5.2 21.2 5.3 L19.6 5.25 16.85 5.1 Q16.0 5.35 15.3 6.45 14.7 7.35 14.55 8.25" fill="none" stroke="#ffffff" stroke-linecap="round" stroke-linejoin="round" stroke-width="3.5"/>
      <path d="M14.85 7.95 Q15.0 7.05 15.6 6.2 16.3 5.05 17.15 4.75 L19.85 4.95 21.5 4.95 Q24.75 4.85 25.9 2.9 26.3 2.4 26.3 1.5 26.65 2.8 26.6 3.55 26.5 4.55 25.8 5.6 25.6 6.0 24.8 6.5 L24.0 7.05 Q23.8 7.75 24.15 8.7 L25.25 11.75 25.15 12.85 Q25.0 13.8 24.45 14.65 23.1 16.7 21.0 16.8 19.15 16.85 16.95 15.4 L16.75 15.3 15.6 14.4 Q14.0 13.0 13.7 11.4 L13.8 10.0 13.95 9.7 14.2 10.4 14.25 10.75 14.25 10.8 14.9 12.25 16.2 14.05 17.4 15.05 Q19.05 16.1 20.9 15.75 22.8 15.5 23.95 13.8 L24.25 13.1 24.4 12.55 24.2 11.85 23.2 8.0 23.15 7.1 23.35 5.95 23.6 6.15 Q24.3 6.6 24.75 5.85 25.1 5.4 24.65 5.15 L24.15 5.35 23.95 5.25 23.8 5.2 Q22.9 4.8 22.2 5.65 L22.0 6.0 21.8 6.3 Q20.75 6.95 19.45 6.65 L18.6 6.5 17.9 6.3 17.25 6.3 16.75 6.9 16.4 7.55 Q16.0 8.55 16.15 9.65 16.35 11.2 17.65 11.95 L17.75 12.05 19.0 12.25 19.75 11.7 Q20.0 11.2 19.6 10.25 L19.55 10.2 18.35 10.1 18.15 10.25 17.8 10.5 17.75 10.6 17.65 10.55 Q17.65 10.15 18.15 9.55 L18.3 9.45 19.35 9.55 Q20.15 10.05 20.45 10.75 20.75 11.65 20.35 12.25 20.05 12.75 19.15 12.9 L17.55 12.7 16.85 12.35 Q15.25 11.3 14.85 9.75 14.65 9.1 14.75 8.55 L14.85 7.95" fill="#27d2f0" fill-rule="evenodd" stroke="none"/>
      <path d="M14.0 9.45 L14.75 8.05 14.85 7.95 14.75 8.55 Q14.65 9.1 14.85 9.75 15.25 11.3 16.85 12.35 L17.55 12.7 19.15 12.9 Q20.05 12.75 20.35 12.25 20.75 11.65 20.45 10.75 20.15 10.05 19.35 9.55 L18.3 9.45 18.15 9.55 Q17.65 10.15 17.65 10.55 L17.75 10.6 17.8 10.5 18.15 10.25 18.35 10.1 19.55 10.2 19.6 10.25 Q20.0 11.2 19.75 11.7 L19.0 12.25 17.75 12.05 17.65 11.95 Q16.35 11.2 16.15 9.65 16.0 8.55 16.4 7.55 L16.75 6.9 17.25 6.3 17.9 6.3 18.6 6.5 19.45 6.65 Q20.75 6.95 21.8 6.3 L22.0 6.0 22.2 5.65 Q22.9 4.8 23.8 5.2 L23.95 5.25 24.15 5.35 24.65 5.15 Q25.1 5.4 24.75 5.85 24.3 6.6 23.6 6.15 L23.35 5.95 23.15 7.1 23.2 8.0 24.2 11.85 24.4 12.55 24.25 13.1 23.95 13.8 Q22.8 15.5 20.9 15.75 19.05 16.1 17.4 15.05 L16.2 14.05 14.9 12.25 14.25 10.8 14.25 10.75 14.2 10.4 14.25 10.5 14.3 10.5 14.8 11.2 16.0 12.9 16.05 13.2 16.15 13.35 17.35 14.45 Q18.6 15.2 19.85 15.3 21.65 15.3 22.75 13.6 23.55 12.35 23.4 11.35 L23.1 10.65 23.05 10.6 Q22.35 9.1 22.15 8.1 L22.15 7.75 22.15 7.35 22.05 7.3 Q21.15 6.8 20.4 7.05 20.1 7.15 19.65 7.55 L18.5 7.35 17.4 6.95 17.15 7.25 16.95 7.5 Q16.1 8.95 16.4 10.2 L16.55 10.6 17.5 11.7 17.75 11.9 18.75 11.95 19.2 11.65 19.4 11.4 Q19.65 11.0 19.5 10.8 L19.2 10.5 19.15 10.4 19.05 10.4 18.8 10.3 18.7 10.4 18.4 10.45 Q18.4 10.4 18.3 10.5 L18.3 10.7 18.4 10.7 18.5 11.1 17.5 11.2 Q17.0 10.8 16.85 9.95 16.75 9.1 17.1 8.6 17.5 7.95 18.1 7.95 L18.25 8.05 18.45 8.05 18.8 8.25 19.05 8.25 19.6 8.3 19.65 8.25 19.75 8.1 Q19.95 7.95 20.3 7.85 L20.2 8.05 20.3 8.4 20.4 8.55 20.6 8.65 20.85 8.45 21.05 7.95 21.15 7.95 21.65 8.5 21.65 8.6 Q21.75 9.0 21.5 9.2 L21.9 9.65 22.15 10.9 21.65 12.6 21.55 12.65 21.35 12.85 21.3 12.9 Q20.6 13.45 19.6 13.65 L17.35 13.45 16.95 13.2 16.1 12.45 16.1 12.4 14.65 10.55 14.3 10.0 14.2 9.85 14.0 9.45 M18.0 11.0 Q17.75 10.95 17.75 10.6 17.75 10.95 18.0 11.0" fill="#3af9ff" fill-rule="evenodd" stroke="none"/>
      <path d="M13.95 9.7 L14.0 9.45 14.2 9.85 14.3 10.0 14.65 10.55 16.1 12.4 16.1 12.45 16.95 13.2 17.35 13.45 19.6 13.65 Q20.6 13.45 21.3 12.9 L21.35 12.85 21.55 12.65 21.65 12.6 22.15 10.9 21.9 9.65 21.5 9.2 Q21.75 9.0 21.65 8.6 L21.65 8.5 21.15 7.95 21.05 7.95 21.05 7.75 20.75 7.5 20.3 7.7 20.3 7.85 Q19.95 7.95 19.75 8.1 L19.65 8.25 19.6 8.3 19.05 8.25 18.8 8.25 18.45 8.05 18.25 8.05 18.1 7.95 Q17.5 7.95 17.1 8.6 16.75 9.1 16.85 9.95 17.0 10.8 17.5 11.2 L18.5 11.1 18.4 10.7 18.3 10.7 18.3 10.5 Q18.4 10.4 18.4 10.45 L18.7 10.4 18.65 10.4 18.6 10.6 18.8 10.9 19.2 10.85 19.25 10.7 19.2 10.6 19.15 10.4 19.2 10.5 19.5 10.8 Q19.65 11.0 19.4 11.4 L19.2 11.65 18.75 11.95 17.75 11.9 17.5 11.7 16.55 10.6 16.4 10.2 Q16.1 8.95 16.95 7.5 L17.15 7.25 17.4 6.95 18.5 7.35 19.65 7.55 Q20.1 7.15 20.4 7.05 21.15 6.8 22.05 7.3 L22.15 7.35 22.15 7.75 22.15 8.1 Q22.35 9.1 23.05 10.6 L23.1 10.65 23.4 11.35 Q23.55 12.35 22.75 13.6 21.65 15.3 19.85 15.3 18.6 15.2 17.35 14.45 L16.15 13.35 16.05 13.2 16.0 12.9 14.8 11.2 14.3 10.5 14.25 10.5 14.2 10.4 13.95 9.7" fill="#8afffb" fill-rule="evenodd" stroke="none"/>
      <path d="M20.3 7.85 L20.3 7.7 20.75 7.5 21.05 7.75 21.05 7.95 20.85 8.45 20.6 8.65 20.4 8.55 20.3 8.4 20.2 8.05 20.3 7.85 M19.15 10.4 L19.2 10.6 19.25 10.7 19.2 10.85 18.8 10.9 18.6 10.6 18.65 10.4 18.7 10.4 18.8 10.3 19.05 10.4 19.15 10.4" fill="#ffffff" fill-rule="evenodd" stroke="none"/>
      <path d="M14.85 7.95 Q15.0 7.05 15.6 6.2 16.3 5.05 17.15 4.75 L19.85 4.95 21.5 4.95 Q24.75 4.85 25.9 2.9 26.3 2.4 26.3 1.5 26.65 2.8 26.6 3.55 26.5 4.55 25.8 5.6 25.6 6.0 24.8 6.5 L24.0 7.05 Q23.8 7.75 24.15 8.7 L25.25 11.75 25.15 12.85 Q25.0 13.8 24.45 14.65 23.1 16.7 21.0 16.8 19.15 16.85 16.95 15.4 L16.75 15.3 15.6 14.4 Q14.0 13.0 13.7 11.4 L13.8 10.0 13.95 9.7 M14.85 7.95 L14.75 8.55 Q14.65 9.1 14.85 9.75 15.25 11.3 16.85 12.35 L17.55 12.7 19.15 12.9 Q20.05 12.75 20.35 12.25 20.75 11.65 20.45 10.75 20.15 10.05 19.35 9.55 L18.3 9.45 18.15 9.55 Q17.65 10.15 17.65 10.55 L17.75 10.6" fill="none" stroke="#1249a8" stroke-linecap="round" stroke-linejoin="round" stroke-width="1.0"/>
      <path d="M13.95 9.7 L14.0 9.45 14.75 8.05 14.85 7.95 M17.75 10.6 Q17.75 10.95 18.0 11.0" fill="none" stroke="#1249a8" stroke-linecap="round" stroke-linejoin="round" stroke-width="0.5"/>
      <path d="M23.65 7.95 L23.1 7.65 21.95 7.25 20.6 7.35 20.3 7.6 19.65 7.95 18.45 7.65 16.3 7.85 Q15.3 8.3 14.7 9.65 L14.85 8.8 Q15.1 7.9 15.45 7.5 L15.8 7.1 15.95 7.05 16.45 6.55 Q16.9 6.2 17.75 6.05 L19.35 5.75 20.4 5.75 21.05 6.0 22.25 6.45 23.0 7.1 23.4 7.65 23.65 7.95 M15.75 13.1 L16.65 13.0 Q17.35 12.8 17.5 13.0 18.1 13.5 18.6 13.8 L20.3 13.9 20.75 13.5 21.3 13.0 22.45 12.75 23.65 12.35 22.6 13.5 21.9 13.75 21.35 13.85 20.7 14.15 20.4 14.8 20.0 15.15 19.6 14.95 19.35 14.8 19.15 14.8 19.05 15.05 18.8 15.2 18.5 14.95 18.4 14.8 Q18.3 14.65 18.0 14.8 L17.7 14.95 Q17.5 15.05 17.45 14.8 L17.3 14.6 17.2 14.0 16.65 13.6 16.2 13.35 15.75 13.1" fill="#ffffd5" fill-rule="evenodd" stroke="none"/>
      <path d="M14.7 9.65 Q15.3 8.3 16.3 7.85 L18.45 7.65 19.65 7.95 20.3 7.6 20.6 7.35 21.95 7.25 23.1 7.65 23.65 7.95 24.15 9.75 Q24.35 11.1 23.7 12.25 L23.65 12.35 22.45 12.75 21.3 13.0 20.75 13.5 20.3 13.9 18.6 13.8 Q18.1 13.5 17.5 13.0 17.35 12.8 16.65 13.0 L15.75 13.1 Q14.85 12.3 14.7 10.9 14.55 10.3 14.7 9.65 M18.6 10.3 L18.6 9.75 18.3 8.65 Q18.0 8.1 17.35 8.0 16.65 7.95 16.2 8.5 15.65 9.0 15.55 9.85 15.45 10.7 15.8 11.35 16.2 12.0 16.9 12.1 17.5 12.2 18.1 11.6 L18.15 11.6 18.2 11.5 18.4 11.1 18.6 10.55 18.6 10.4 18.6 10.3 M20.1 8.6 Q19.75 9.35 19.8 10.2 19.95 11.05 20.55 11.6 21.1 12.15 21.75 12.0 22.45 11.95 22.85 11.15 23.25 10.55 23.15 9.65 23.0 8.8 22.45 8.25 21.85 7.75 21.2 7.8 20.5 7.95 20.1 8.6 M19.65 13.5 L19.85 13.35 19.9 13.0 19.55 12.55 19.1 12.35 Q18.85 12.45 18.65 12.65 18.4 12.95 18.4 13.2 18.4 13.4 18.65 13.35 L19.05 13.3 19.15 13.3 19.35 13.35 19.65 13.5" fill="#cccccc" fill-rule="evenodd" stroke="none"/>
      <path d="M18.2 11.5 L18.15 11.6 18.1 11.6 Q17.5 12.2 16.9 12.1 16.2 12.0 15.8 11.35 15.45 10.7 15.55 9.85 15.65 9.0 16.2 8.5 16.65 7.95 17.35 8.0 18.0 8.1 18.3 8.65 L18.6 9.75 18.6 10.3 18.3 9.25 Q18.0 8.8 17.45 8.85 16.85 8.95 16.55 9.45 16.2 9.9 16.45 10.8 16.65 11.75 17.4 11.7 L18.2 11.5 M20.1 8.6 Q20.5 7.95 21.2 7.8 21.85 7.75 22.45 8.25 23.0 8.8 23.15 9.65 23.25 10.55 22.85 11.15 22.45 11.95 21.75 12.0 21.1 12.15 20.55 11.6 19.95 11.05 19.8 10.2 19.75 9.35 20.1 8.6 M21.0 8.6 L20.15 9.2 Q19.85 9.65 20.0 10.3 20.1 10.95 20.5 11.35 20.95 11.75 21.45 11.6 21.95 11.6 22.25 11.05 L22.45 9.9 Q22.35 9.25 21.9 8.9 21.5 8.5 21.0 8.6" fill="#8c8c8c" fill-rule="evenodd" stroke="none"/>
      <path d="M18.6 10.3 L18.6 10.4 18.6 10.55 18.4 11.1 18.2 11.5 17.4 11.7 Q16.65 11.75 16.45 10.8 16.2 9.9 16.55 9.45 16.85 8.95 17.45 8.85 18.0 8.8 18.3 9.25 L18.6 10.3 M21.0 8.6 Q21.5 8.5 21.9 8.9 22.35 9.25 22.45 9.9 L22.25 11.05 Q21.95 11.6 21.45 11.6 20.95 11.75 20.5 11.35 20.1 10.95 20.0 10.3 19.85 9.65 20.15 9.2 L21.0 8.6 M19.65 13.5 L19.35 13.35 19.15 13.3 19.05 13.3 18.65 13.35 Q18.4 13.4 18.4 13.2 18.4 12.95 18.65 12.65 18.85 12.45 19.1 12.35 L19.55 12.55 19.9 13.0 19.85 13.35 19.65 13.5" fill="#555555" fill-rule="evenodd" stroke="none"/>
      <path d="M23.65 7.95 L23.4 7.65 23.0 7.1 22.25 6.45 21.05 6.0 20.4 5.75 19.35 5.75 17.75 6.05 Q16.9 6.2 16.45 6.55 L15.95 7.05 15.8 7.1 15.45 7.5 Q15.1 7.9 14.85 8.8 L14.7 9.65 Q14.55 10.3 14.7 10.9 14.85 12.3 15.75 13.1 L16.2 13.35 16.65 13.6 17.2 14.0 17.3 14.6 17.45 14.8 Q17.5 15.05 17.7 14.95 L18.0 14.8 Q18.3 14.65 18.4 14.8 L18.5 14.95 18.8 15.2 19.05 15.05 19.15 14.8 19.35 14.8 19.6 14.95 20.0 15.15 20.4 14.8 20.7 14.15 21.35 13.85 21.9 13.75 22.6 13.5 23.65 12.35 23.7 12.25 Q24.35 11.1 24.15 9.75 L23.65 7.95" fill="none" stroke="#666666" stroke-linecap="round" stroke-linejoin="round" stroke-width="1.0"/>
      <path d="M18.2 11.5 L18.15 11.6 18.1 11.6 Q17.5 12.2 16.9 12.1 16.2 12.0 15.8 11.35 15.45 10.7 15.55 9.85 15.65 9.0 16.2 8.5 16.65 7.95 17.35 8.0 18.0 8.1 18.3 8.65 L18.6 9.75 18.6 10.3 18.6 10.4 18.6 10.55 18.4 11.1 18.2 11.5 M20.1 8.6 Q20.5 7.95 21.2 7.8 21.85 7.75 22.45 8.25 23.0 8.8 23.15 9.65 23.25 10.55 22.85 11.15 22.45 11.95 21.75 12.0 21.1 12.15 20.55 11.6 19.95 11.05 19.8 10.2 19.75 9.35 20.1 8.6 M19.65 13.5 L19.35 13.35 19.15 13.3 19.05 13.3 18.65 13.35 Q18.4 13.4 18.4 13.2 18.4 12.95 18.65 12.65 18.85 12.45 19.1 12.35 L19.55 12.55 19.9 13.0 19.85 13.35 19.65 13.5 Z" fill="none" stroke="#666666" stroke-linecap="round" stroke-linejoin="round" stroke-width="0.5"/>
      <path d="M11.95 19.0 L12.15 19.35 12.15 19.5 11.6 20.4 11.45 20.55 Q11.0 20.8 10.4 20.35 9.65 19.75 9.45 18.95 9.25 18.05 9.75 17.5 10.05 17.05 10.95 16.95 11.75 16.95 12.5 17.3 L13.25 17.75 Q14.7 18.95 14.9 20.55 L14.95 21.75 14.75 22.35 14.85 22.25 15.75 20.9 15.8 20.7 15.95 20.4 16.2 19.05 Q16.1 17.4 14.65 15.85 L13.65 14.85 13.4 14.7 Q11.35 13.05 9.55 12.85 7.45 12.75 5.9 14.65 5.25 15.45 5.0 16.45 L4.8 17.45 5.55 20.6 Q5.75 21.6 5.5 22.3 L4.6 22.8 3.55 23.55 Q2.8 24.55 2.55 25.5 2.45 26.25 2.65 27.55 2.75 26.65 3.15 26.2 4.55 24.35 7.8 24.6 L9.4 24.8 12.15 25.25 Q13.0 25.05 13.85 24.05 14.5 23.25 14.75 22.35" fill="none" stroke="#ffffff" stroke-linecap="round" stroke-linejoin="round" stroke-width="3.5"/>
      <path d="M15.2 22.35 L14.25 24.05 Q13.45 25.1 12.55 25.3 L9.9 24.8 8.25 24.6 Q5.0 24.4 3.6 26.2 3.2 26.75 3.1 27.65 2.9 26.25 3.05 25.55 3.25 24.55 4.0 23.6 4.3 23.2 5.15 22.8 L6.0 22.3 Q6.25 21.65 6.0 20.65 L5.25 17.5 Q5.2 17.0 5.45 16.45 5.7 15.5 6.35 14.7 7.85 12.8 9.95 12.95 11.8 13.1 13.8 14.75 L14.05 14.85 15.1 15.9 Q16.55 17.45 16.65 19.1 L16.4 20.4 16.2 20.7 16.1 20.0 16.05 19.65 16.05 19.55 15.55 18.1 14.45 16.15 13.4 15.0 Q11.85 13.85 9.95 14.0 8.05 14.05 6.75 15.6 L6.35 16.25 6.15 16.8 6.3 17.5 6.85 21.45 6.8 22.35 6.5 23.5 6.3 23.25 Q5.65 22.75 5.1 23.45 4.75 23.85 5.15 24.15 5.3 24.0 5.6 24.0 L5.8 24.05 6.0 24.2 Q6.8 24.7 7.6 23.9 L7.85 23.55 8.05 23.3 10.45 23.2 Q10.8 23.25 11.3 23.45 L11.95 23.7 12.55 23.75 13.15 23.2 13.6 22.6 Q14.1 21.65 14.05 20.55 14.05 19.0 12.8 18.05 L12.7 18.0 11.5 17.7 Q10.95 17.8 10.7 18.15 10.4 18.6 10.7 19.6 L10.75 19.6 Q11.25 20.05 11.9 19.85 L12.15 19.75 12.5 19.55 12.55 19.4 12.6 19.5 12.05 20.45 Q12.0 20.45 11.9 20.55 L10.85 20.35 Q10.1 19.75 9.9 19.05 9.65 18.1 10.15 17.5 10.5 17.05 11.4 16.95 12.2 16.95 13.0 17.4 13.3 17.5 13.65 17.75 15.1 19.0 15.35 20.6 L15.35 21.8 15.2 22.35" fill="#27d2f0" fill-rule="evenodd" stroke="none"/>
      <path d="M16.15 20.95 L15.3 22.3 15.2 22.35 15.35 21.8 15.35 20.6 Q15.1 19.0 13.65 17.75 13.3 17.5 13.0 17.4 12.2 16.95 11.4 16.95 10.5 17.05 10.15 17.5 9.65 18.1 9.9 19.05 10.1 19.75 10.85 20.35 L11.9 20.55 Q12.0 20.45 12.05 20.45 L12.6 19.5 12.55 19.4 12.5 19.55 12.15 19.75 11.9 19.85 Q11.25 20.05 10.75 19.6 L10.7 19.6 Q10.4 18.6 10.7 18.15 10.95 17.8 11.5 17.7 L12.7 18.0 12.8 18.05 Q14.05 19.0 14.05 20.55 14.1 21.65 13.6 22.6 L13.15 23.2 12.55 23.75 11.95 23.7 11.3 23.45 Q10.8 23.25 10.45 23.2 L8.05 23.3 7.85 23.55 7.6 23.9 Q6.8 24.7 6.0 24.2 L5.8 24.05 5.6 24.0 Q5.3 24.0 5.15 24.15 4.75 23.85 5.1 23.45 5.65 22.75 6.3 23.25 L6.5 23.5 6.8 22.35 6.85 21.45 6.3 17.5 6.15 16.8 6.35 16.25 6.75 15.6 Q8.05 14.05 9.95 14.0 11.85 13.85 13.4 15.0 L14.45 16.15 15.55 18.1 16.05 19.55 16.05 19.65 16.1 20.0 16.0 19.85 15.55 19.15 14.5 17.35 14.55 17.0 14.45 16.9 13.3 15.65 Q12.2 14.8 10.95 14.55 9.2 14.35 7.95 15.9 6.95 17.1 7.0 18.05 L7.25 18.85 7.95 21.45 7.9 21.8 7.9 22.2 7.95 22.25 Q8.75 22.85 9.55 22.7 L10.35 22.25 11.5 22.6 12.55 23.1 12.75 22.8 13.05 22.6 Q14.0 21.25 13.85 19.95 L13.75 19.55 Q13.5 18.8 12.95 18.4 L12.65 18.15 11.7 18.0 Q11.4 18.05 11.2 18.25 L11.0 18.45 Q10.7 18.8 10.85 19.1 L11.1 19.4 11.15 19.45 11.25 19.55 11.45 19.6 11.6 19.55 11.9 19.55 12.0 19.5 12.0 19.35 12.05 19.3 11.95 19.3 Q11.75 19.1 11.85 18.85 12.2 18.4 12.9 18.85 13.35 19.35 13.4 20.15 L13.0 21.5 Q12.55 22.1 11.95 22.0 L11.8 21.9 11.6 21.9 11.25 21.65 11.0 21.65 10.5 21.55 10.4 21.55 10.3 21.75 9.8 21.9 9.85 21.7 9.85 21.35 9.75 21.2 9.55 21.05 9.25 21.25 Q9.05 21.5 9.0 21.7 L8.9 21.7 Q8.55 21.4 8.5 21.1 L8.45 21.0 Q8.4 20.6 8.65 20.4 L8.3 19.95 Q8.1 19.4 8.2 18.7 8.4 17.7 8.95 17.05 L9.0 16.95 9.2 16.85 9.25 16.75 Q10.05 16.3 11.05 16.2 12.35 16.15 13.25 16.65 L13.65 16.9 14.4 17.75 14.4 17.85 Q14.95 18.4 15.6 19.85 L15.95 20.35 16.0 20.55 16.15 20.95 M12.35 19.05 Q12.55 19.05 12.55 19.4 12.55 19.05 12.35 19.05" fill="#3af9ff" fill-rule="evenodd" stroke="none"/>
      <path d="M16.2 20.7 L16.15 20.95 16.0 20.55 15.95 20.35 15.6 19.85 Q14.95 18.4 14.4 17.85 L14.4 17.75 13.65 16.9 13.25 16.65 Q12.35 16.15 11.05 16.2 10.05 16.3 9.25 16.75 L9.2 16.85 9.0 16.95 8.95 17.05 Q8.4 17.7 8.2 18.7 8.1 19.4 8.3 19.95 L8.65 20.4 Q8.4 20.6 8.45 21.0 L8.5 21.1 Q8.55 21.4 8.9 21.7 L9.0 21.7 9.0 21.9 9.25 22.2 9.7 22.05 9.8 21.9 10.3 21.75 10.4 21.55 10.5 21.55 11.0 21.65 11.25 21.65 11.6 21.9 11.8 21.9 11.95 22.0 Q12.55 22.1 13.0 21.5 L13.4 20.15 Q13.35 19.35 12.9 18.85 12.2 18.4 11.85 18.85 11.75 19.1 11.95 19.3 L12.05 19.3 12.0 19.35 12.0 19.5 11.9 19.55 11.6 19.55 11.65 19.5 11.7 19.3 11.5 19.0 Q11.3 18.8 11.15 19.0 L11.1 19.2 11.1 19.3 11.15 19.45 11.1 19.4 10.85 19.1 Q10.7 18.8 11.0 18.45 L11.2 18.25 Q11.4 18.05 11.7 18.0 L12.65 18.15 12.95 18.4 Q13.5 18.8 13.75 19.55 L13.85 19.95 Q14.0 21.25 13.05 22.6 L12.75 22.8 12.55 23.1 11.5 22.6 10.35 22.25 9.55 22.7 Q8.75 22.85 7.95 22.25 L7.9 22.2 7.9 21.8 7.95 21.45 7.25 18.85 7.0 18.05 Q6.95 17.1 7.95 15.9 9.2 14.35 10.95 14.55 12.2 14.8 13.3 15.65 L14.45 16.9 14.55 17.0 14.5 17.35 15.55 19.15 16.0 19.85 16.1 20.0 16.2 20.7" fill="#8afffb" fill-rule="evenodd" stroke="none"/>
      <path d="M11.15 19.45 L11.1 19.3 11.1 19.2 11.15 19.0 Q11.3 18.8 11.5 19.0 L11.7 19.3 11.65 19.5 11.6 19.55 11.45 19.6 11.25 19.55 11.15 19.45 M9.8 21.9 L9.7 22.05 9.25 22.2 9.0 21.9 9.0 21.7 Q9.05 21.5 9.25 21.25 L9.55 21.05 9.75 21.2 9.85 21.35 9.85 21.7 9.8 21.9" fill="#ffffff" fill-rule="evenodd" stroke="none"/>
      <path d="M15.2 22.35 L14.25 24.05 Q13.45 25.1 12.55 25.3 L9.9 24.8 8.25 24.6 Q5.0 24.4 3.6 26.2 3.2 26.75 3.1 27.65 2.9 26.25 3.05 25.55 3.25 24.55 4.0 23.6 4.3 23.2 5.15 22.8 L6.0 22.3 Q6.25 21.65 6.0 20.65 L5.25 17.5 Q5.2 17.0 5.45 16.45 5.7 15.5 6.35 14.7 7.85 12.8 9.95 12.95 11.8 13.1 13.8 14.75 L14.05 14.85 15.1 15.9 Q16.55 17.45 16.65 19.1 L16.4 20.4 16.2 20.7 M15.2 22.35 L15.35 21.8 15.35 20.6 Q15.1 19.0 13.65 17.75 13.3 17.5 13.0 17.4 12.2 16.95 11.4 16.95 10.5 17.05 10.15 17.5 9.65 18.1 9.9 19.05 10.1 19.75 10.85 20.35 L11.9 20.55 Q12.0 20.45 12.05 20.45 L12.6 19.5 12.55 19.4" fill="none" stroke="#1249a8" stroke-linecap="round" stroke-linejoin="round" stroke-width="1.0"/>
      <path d="M16.2 20.7 L16.15 20.95 15.3 22.3 15.2 22.35 M12.55 19.4 Q12.55 19.05 12.35 19.05" fill="none" stroke="#1249a8" stroke-linecap="round" stroke-linejoin="round" stroke-width="0.5"/>
      <path d="M14.8 18.2 L13.9 17.95 Q13.2 17.9 13.1 17.65 L12.4 16.5 Q11.8 15.85 10.8 15.8 L10.3 16.0 9.55 16.3 8.35 16.15 7.1 16.05 Q7.95 15.35 8.6 15.35 L9.25 15.4 9.8 15.5 10.55 15.4 11.05 14.9 11.1 14.95 Q11.25 14.7 11.5 14.75 L11.85 15.05 12.05 15.3 12.2 15.35 12.25 15.35 12.4 15.2 12.7 15.15 12.9 15.5 12.9 15.65 13.3 15.75 13.6 15.75 13.8 16.0 13.85 16.25 13.75 16.85 14.1 17.4 14.45 17.8 14.8 18.2 M5.55 20.15 L6.0 20.65 6.9 21.4 Q7.5 21.85 8.2 21.8 L8.55 21.7 9.3 21.6 Q9.65 21.65 10.35 22.3 11.05 23.0 12.4 22.9 13.45 22.85 14.55 21.8 L14.1 22.55 13.1 23.55 12.6 23.75 12.4 23.8 11.8 24.05 10.35 24.05 8.75 23.8 7.85 23.45 7.3 22.95 6.35 22.05 5.9 21.2 5.7 20.55 5.55 20.15" fill="#ffffd5" fill-rule="evenodd" stroke="none"/>
      <path d="M7.1 16.05 L8.35 16.15 9.55 16.3 10.3 16.0 10.8 15.8 Q11.8 15.85 12.4 16.5 L13.1 17.65 Q13.2 17.9 13.9 17.95 L14.8 18.2 Q15.35 19.25 15.0 20.65 L14.55 21.8 Q13.45 22.85 12.4 22.9 11.05 23.0 10.35 22.3 9.65 21.65 9.3 21.6 L8.55 21.7 8.2 21.8 Q7.5 21.85 6.9 21.4 L6.0 20.65 5.55 20.15 Q5.45 19.35 5.8 18.3 6.0 16.95 7.05 16.15 L7.1 16.05 M11.0 16.5 Q10.85 16.5 10.85 16.8 L11.05 17.35 11.4 17.7 11.95 17.55 12.3 17.2 Q12.4 17.0 12.15 16.95 L11.75 16.8 11.7 16.8 11.5 16.7 11.3 16.4 11.0 16.5 M8.8 17.1 Q8.05 16.9 7.5 17.5 6.85 17.9 6.65 18.75 6.5 19.65 6.8 20.35 7.15 21.0 7.8 21.15 8.5 21.3 9.15 20.8 9.75 20.3 9.95 19.45 10.1 18.55 9.75 17.85 9.45 17.15 8.8 17.1 M11.95 18.8 L11.55 19.1 11.15 19.55 11.1 19.65 11.1 19.75 10.9 20.3 Q10.65 20.85 10.85 21.45 10.9 22.05 11.45 22.35 L12.75 22.3 13.8 21.3 Q14.2 20.55 14.1 19.8 13.95 19.05 13.4 18.7 L12.05 18.75 12.0 18.7 11.95 18.8" fill="#cccccc" fill-rule="evenodd" stroke="none"/>
      <path d="M11.0 16.5 L11.3 16.4 11.5 16.7 11.7 16.8 11.75 16.8 12.15 16.95 Q12.4 17.0 12.3 17.2 L11.95 17.55 11.4 17.7 11.05 17.35 10.85 16.8 Q10.85 16.5 11.0 16.5 M11.1 19.75 L11.1 19.65 11.15 19.55 11.55 19.1 11.95 18.8 12.75 18.9 Q13.45 19.15 13.3 20.1 13.2 21.0 12.7 21.35 L11.65 21.55 Q11.15 21.45 11.05 20.9 10.9 20.35 11.1 19.75 M9.3 20.25 L8.3 20.5 7.55 19.95 Q7.2 19.4 7.4 18.8 7.55 18.15 8.0 17.75 8.5 17.35 8.9 17.55 9.45 17.6 9.7 18.15 9.95 18.6 9.8 19.25 L9.3 20.25" fill="#555555" fill-rule="evenodd" stroke="none"/>
      <path d="M8.8 17.1 Q9.45 17.15 9.75 17.85 10.1 18.55 9.95 19.45 9.75 20.3 9.15 20.8 8.5 21.3 7.8 21.15 7.15 21.0 6.8 20.35 6.5 19.65 6.65 18.75 6.85 17.9 7.5 17.5 8.05 16.9 8.8 17.1 M11.95 18.8 L12.0 18.7 12.05 18.75 13.4 18.7 Q13.95 19.05 14.1 19.8 14.2 20.55 13.8 21.3 L12.75 22.3 11.45 22.35 Q10.9 22.05 10.85 21.45 10.65 20.85 10.9 20.3 L11.1 19.75 Q10.9 20.35 11.05 20.9 11.15 21.45 11.65 21.55 L12.7 21.35 Q13.2 21.0 13.3 20.1 13.45 19.15 12.75 18.9 L11.95 18.8 M9.3 20.25 L9.8 19.25 Q9.95 18.6 9.7 18.15 9.45 17.6 8.9 17.55 8.5 17.35 8.0 17.75 7.55 18.15 7.4 18.8 7.2 19.4 7.55 19.95 L8.3 20.5 9.3 20.25" fill="#8c8c8c" fill-rule="evenodd" stroke="none"/>
      <path d="M7.1 16.05 L7.05 16.15 Q6.0 16.95 5.8 18.3 5.45 19.35 5.55 20.15 L5.7 20.55 5.9 21.2 6.35 22.05 7.3 22.95 7.85 23.45 8.75 23.8 10.35 24.05 11.8 24.05 12.4 23.8 12.6 23.75 13.1 23.55 14.1 22.55 14.55 21.8 15.0 20.65 Q15.35 19.25 14.8 18.2 L14.45 17.8 14.1 17.4 13.75 16.85 13.85 16.25 13.8 16.0 13.6 15.75 13.3 15.75 12.9 15.65 12.9 15.5 12.7 15.15 12.4 15.2 12.25 15.35 12.2 15.35 12.05 15.3 11.85 15.05 11.5 14.75 Q11.25 14.7 11.1 14.95 L11.05 14.9 10.55 15.4 9.8 15.5 9.25 15.4 8.6 15.35 Q7.95 15.35 7.1 16.05" fill="none" stroke="#666666" stroke-linecap="round" stroke-linejoin="round" stroke-width="1.0"/>
      <path d="M11.0 16.5 L11.3 16.4 11.5 16.7 11.7 16.8 11.75 16.8 12.15 16.95 Q12.4 17.0 12.3 17.2 L11.95 17.55 11.4 17.7 11.05 17.35 10.85 16.8 Q10.85 16.5 11.0 16.5 M8.8 17.1 Q9.45 17.15 9.75 17.85 10.1 18.55 9.95 19.45 9.75 20.3 9.15 20.8 8.5 21.3 7.8 21.15 7.15 21.0 6.8 20.35 6.5 19.65 6.65 18.75 6.85 17.9 7.5 17.5 8.05 16.9 8.8 17.1 M11.1 19.75 L11.1 19.65 11.15 19.55 11.55 19.1 11.95 18.8 12.0 18.7 12.05 18.75 13.4 18.7 Q13.95 19.05 14.1 19.8 14.2 20.55 13.8 21.3 L12.75 22.3 11.45 22.35 Q10.9 22.05 10.85 21.45 10.65 20.85 10.9 20.3 L11.1 19.75 Z" fill="none" stroke="#666666" stroke-linecap="round" stroke-linejoin="round" stroke-width="0.5"/>
    </g>
  </defs>
</svg>
