<?xml version="1.0" encoding="UTF-8" standalone="no"?>
<svg xmlns:ffdec="https://www.free-decompiler.com/flash" xmlns:xlink="http://www.w3.org/1999/xlink" ffdec:objectType="frame" height="30.15px" width="30.0px" xmlns="http://www.w3.org/2000/svg">
  <g transform="matrix(1.0, 0.0, 0.0, 1.0, 0.0, 0.0)">
    <use ffdec:characterId="1" height="30.0" transform="matrix(1.0, 0.0, 0.0, 1.0, 0.0, 0.0)" width="30.0" xlink:href="#shape0"/>
    <use ffdec:characterId="5" height="30.0" transform="matrix(1.0, 0.0, 0.0, 1.0, 0.0, 0.15)" width="30.0" xlink:href="#sprite0"/>
  </g>
  <defs>
    <g id="shape0" transform="matrix(1.0, 0.0, 0.0, 1.0, 0.0, 0.0)">
      <path d="M0.0 0.0 L30.0 0.0 30.0 30.0 0.0 30.0 0.0 0.0" fill="#33cc66" fill-opacity="0.0" fill-rule="evenodd" stroke="none"/>
    </g>
    <g id="sprite0" transform="matrix(1.0, 0.0, 0.0, 1.0, 0.0, -0.05)">
      <use ffdec:characterId="2" height="30.0" transform="matrix(1.0, 0.0, 0.0, 1.0, 0.0, 0.05)" width="30.0" xlink:href="#shape1"/>
      <use ffdec:characterId="4" height="220.85" transform="matrix(0.1051, -0.0018, 0.001, 0.0596, 8.5755, 2.469)" width="122.15" xlink:href="#sprite1"/>
    </g>
    <g id="shape1" transform="matrix(1.0, 0.0, 0.0, 1.0, 0.0, -0.05)">
      <path d="M0.0 3.35 Q0.0 0.05 3.3 0.05 L26.7 0.05 Q30.0 0.05 30.0 3.35 L30.0 26.75 Q30.0 30.05 26.7 30.05 L3.3 30.05 Q0.0 30.05 0.0 26.75 L0.0 3.35" fill="#a56db4" fill-rule="evenodd" stroke="none"/>
      <path d="M20.65 10.9 L20.75 10.95 22.3 12.25 23.25 13.15 23.7 13.8 Q24.55 15.2 24.75 17.3 25.2 19.9 23.9 21.95 L23.75 22.25 Q22.7 24.05 21.5 24.35 L20.05 24.9 19.05 25.0 17.55 25.6 17.05 26.85 16.9 26.85 Q16.8 27.4 16.1 27.45 L15.2 27.15 14.8 26.85 14.4 26.85 14.35 26.85 14.1 27.3 13.75 27.6 Q13.25 27.6 13.0 27.05 L12.9 26.85 Q12.6 26.55 12.05 26.85 L11.45 27.1 Q11.0 27.3 10.75 26.85 L10.6 26.45 10.25 25.3 9.2 24.5 8.25 24.15 7.35 23.6 Q5.5 22.15 5.1 19.45 4.9 18.35 5.1 17.0 L5.5 15.4 Q6.0 13.7 6.7 13.0 7.1 12.45 7.45 12.25 7.5 12.05 7.7 12.0 L8.8 11.15 9.3 10.9 8.9 10.6 9.6 9.6 9.6 9.55 11.05 10.25 11.1 10.2 11.15 10.2 11.2 10.05 11.0 9.65 10.85 9.55 10.8 9.55 15.4 2.5 18.65 9.25 18.6 9.3 18.35 9.45 18.35 9.5 18.05 9.95 18.3 10.05 18.55 10.1 20.1 8.95 20.95 10.65 20.65 10.9 Z" fill="none" stroke="#ffffff" stroke-linecap="round" stroke-linejoin="round" stroke-width="3.5"/>
      <path d="M5.35 17.05 L5.7 15.45 Q6.2 13.75 6.9 13.05 7.3 12.5 7.65 12.3 7.7 12.1 7.9 12.05 L9.0 11.2 Q9.9 10.6 11.8 10.3 13.55 9.75 15.05 9.7 L17.1 9.7 18.5 10.1 Q19.7 10.3 20.95 11.0 L22.5 12.3 23.45 13.25 23.85 13.85 22.75 13.35 20.45 12.5 Q18.9 12.2 17.65 12.8 17.35 12.8 16.85 13.25 L15.6 13.9 Q15.0 14.15 13.15 13.35 11.2 12.6 8.7 13.65 6.65 14.55 5.35 17.05 M23.9 22.3 Q22.9 24.1 21.7 24.4 L20.25 24.95 19.2 25.1 Q18.25 25.3 17.8 25.65 17.35 26.3 17.2 26.95 L17.1 26.95 Q17.0 27.45 16.35 27.5 L15.4 27.2 15.0 26.95 14.65 26.95 14.55 26.95 14.3 27.35 13.9 27.65 Q13.45 27.65 13.2 27.1 L13.1 26.95 Q12.8 26.6 12.2 26.95 L11.65 27.15 Q11.2 27.35 10.95 26.95 L10.8 26.5 10.45 25.35 9.4 24.55 8.45 24.2 7.55 23.65 9.4 23.5 Q10.8 23.15 11.15 23.5 L13.35 25.0 16.95 25.15 17.85 24.4 19.05 23.5 Q20.2 23.0 21.5 22.9 22.75 22.85 23.9 22.3" fill="#ffffd5" fill-rule="evenodd" stroke="none"/>
      <path d="M5.35 17.05 Q6.65 14.55 8.7 13.65 11.2 12.6 13.15 13.35 15.0 14.15 15.6 13.9 L16.85 13.25 Q17.35 12.8 17.65 12.8 18.9 12.2 20.45 12.5 L22.75 13.35 23.85 13.85 Q24.7 15.25 24.9 17.35 25.4 19.95 24.1 22.0 L23.9 22.3 Q22.75 22.85 21.5 22.9 20.2 23.0 19.05 23.5 L17.85 24.4 16.95 25.15 13.35 25.0 11.15 23.5 Q10.8 23.15 9.4 23.5 L7.55 23.65 Q5.7 22.2 5.35 19.5 5.05 18.4 5.35 17.05 M22.9 17.1 Q22.5 15.45 21.45 14.4 20.2 13.45 18.8 13.65 17.35 13.85 16.6 15.2 15.75 16.45 15.95 18.15 16.3 19.75 17.45 20.85 18.65 21.85 20.05 21.55 21.5 21.5 22.2 20.0 23.0 18.8 22.9 17.1 M13.45 18.4 L13.55 17.25 Q13.45 16.1 12.8 15.2 12.15 14.2 10.8 13.95 9.4 13.9 8.45 14.9 7.3 15.9 7.15 17.5 6.9 19.05 7.7 20.4 8.5 21.55 9.85 21.75 11.2 21.95 12.35 20.85 L12.4 20.85 12.45 20.8 12.6 20.65 13.1 19.95 13.45 18.8 13.45 18.6 13.45 18.4 M14.55 24.0 L15.0 24.2 15.6 24.4 16.05 24.2 Q16.4 24.0 16.1 23.5 L15.35 22.65 Q14.85 22.2 14.5 22.3 L13.6 22.85 Q13.1 23.35 13.1 23.8 13.1 24.25 13.6 24.2 L14.3 24.1 14.55 24.0" fill="#cccccc" fill-rule="evenodd" stroke="none"/>
      <path d="M22.9 17.1 Q23.0 18.8 22.2 20.0 21.5 21.5 20.05 21.55 18.65 21.85 17.45 20.85 16.3 19.75 15.95 18.15 15.75 16.45 16.6 15.2 17.35 13.85 18.8 13.65 20.2 13.45 21.45 14.4 22.5 15.45 22.9 17.1 M21.4 17.6 Q21.25 16.4 20.25 15.65 19.45 15.0 18.45 15.2 17.35 15.3 16.7 16.3 16.05 17.1 16.35 18.4 16.6 19.55 17.35 20.25 18.3 21.05 19.25 20.85 20.3 20.8 20.95 19.75 21.6 18.8 21.4 17.6 M12.45 20.8 L12.4 20.85 12.35 20.85 Q11.2 21.95 9.85 21.75 8.5 21.55 7.7 20.4 6.9 19.05 7.15 17.5 7.3 15.9 8.45 14.9 9.4 13.9 10.8 13.95 12.15 14.2 12.8 15.2 13.45 16.1 13.55 17.25 L13.45 18.4 Q13.35 17.2 12.8 16.4 12.15 15.45 10.95 15.55 9.8 15.75 9.2 16.6 8.55 17.6 9.0 19.25 9.35 21.05 10.95 21.05 L12.6 20.6 12.45 20.8" fill="#8c8c8c" fill-rule="evenodd" stroke="none"/>
      <path d="M21.4 17.6 Q21.6 18.8 20.95 19.75 20.3 20.8 19.25 20.85 18.3 21.05 17.35 20.25 16.6 19.55 16.35 18.4 16.05 17.1 16.7 16.3 17.35 15.3 18.45 15.2 19.45 15.0 20.25 15.65 21.25 16.4 21.4 17.6 M13.45 18.4 L13.45 18.6 13.45 18.8 13.1 19.95 12.6 20.65 12.6 20.6 10.95 21.05 Q9.35 21.05 9.0 19.25 8.55 17.6 9.2 16.6 9.8 15.75 10.95 15.55 12.15 15.45 12.8 16.4 13.35 17.2 13.45 18.4 M14.55 24.0 L14.3 24.1 13.6 24.2 Q13.1 24.25 13.1 23.8 13.1 23.35 13.6 22.85 L14.5 22.3 Q14.85 22.2 15.35 22.65 L16.1 23.5 Q16.4 24.0 16.05 24.2 L15.6 24.4 15.0 24.2 14.55 24.0" fill="#555555" fill-rule="evenodd" stroke="none"/>
      <path d="M23.85 13.85 L23.45 13.25 22.5 12.3 20.95 11.0 Q19.7 10.3 18.5 10.1 L17.1 9.7 15.05 9.7 Q13.55 9.75 11.8 10.3 9.9 10.6 9.0 11.2 L7.9 12.05 Q7.7 12.1 7.65 12.3 7.3 12.5 6.9 13.05 6.2 13.75 5.7 15.45 L5.35 17.05 Q5.05 18.4 5.35 19.5 5.7 22.2 7.55 23.65 L8.45 24.2 9.4 24.55 10.45 25.35 10.8 26.5 10.95 26.95 Q11.2 27.35 11.65 27.15 L12.2 26.95 Q12.8 26.6 13.1 26.95 L13.2 27.1 Q13.45 27.65 13.9 27.65 L14.3 27.35 14.55 26.95 14.65 26.95 15.0 26.95 15.4 27.2 16.35 27.5 Q17.0 27.45 17.1 26.95 L17.2 26.95 Q17.35 26.3 17.8 25.65 18.25 25.3 19.2 25.1 L20.25 24.95 21.7 24.4 Q22.9 24.1 23.9 22.3 L24.1 22.0 Q25.4 19.95 24.9 17.35 24.7 15.25 23.85 13.85" fill="none" stroke="#666666" stroke-linecap="round" stroke-linejoin="round" stroke-width="1.0"/>
      <path d="M22.9 17.1 Q23.0 18.8 22.2 20.0 21.5 21.5 20.05 21.55 18.65 21.85 17.45 20.85 16.3 19.75 15.95 18.15 15.75 16.45 16.6 15.2 17.35 13.85 18.8 13.65 20.2 13.45 21.45 14.4 22.5 15.45 22.9 17.1 M12.45 20.8 L12.4 20.85 12.35 20.85 Q11.2 21.95 9.85 21.75 8.5 21.55 7.7 20.4 6.9 19.05 7.15 17.5 7.3 15.9 8.45 14.9 9.4 13.9 10.8 13.95 12.15 14.2 12.8 15.2 13.45 16.1 13.55 17.25 L13.45 18.4 13.45 18.6 13.45 18.8 13.1 19.95 12.6 20.65 12.45 20.8 12.6 20.6 M14.55 24.0 L14.3 24.1 13.6 24.2 Q13.1 24.25 13.1 23.8 13.1 23.35 13.6 22.85 L14.5 22.3 Q14.85 22.2 15.35 22.65 L16.1 23.5 Q16.4 24.0 16.05 24.2 L15.6 24.4 15.0 24.2 14.55 24.0 Z" fill="none" stroke="#666666" stroke-linecap="round" stroke-linejoin="round" stroke-width="0.5"/>
    </g>
    <g id="sprite1" transform="matrix(1.0, 0.0, 0.0, 1.0, 4.0, 4.0)">
      <use ffdec:characterId="3" height="220.85" transform="matrix(1.0, 0.0, 0.0, 1.0, -4.0, -4.0)" width="122.15" xlink:href="#shape2"/>
    </g>
    <g id="shape2" transform="matrix(1.0, 0.0, 0.0, 1.0, 4.0, 4.0)">
      <path d="M21.1 128.1 Q21.75 126.7 21.75 125.45 21.75 123.05 19.7 119.5 L18.75 118.0 18.7 117.9 18.5 117.6 61.95 2.65 57.0 48.15 35.2 108.6 51.05 99.65 34.3 138.95 21.1 128.1" fill="#f4d500" fill-rule="evenodd" stroke="none"/>
      <path d="M61.95 2.65 L62.95 0.0 92.85 114.5 92.6 114.8 Q91.5 116.1 90.3 118.0 L89.8 118.8 Q86.9 123.6 86.75 127.15 L86.75 127.45 Q86.75 129.0 88.1 131.45 L88.45 132.1 93.85 125.75 91.9 153.35 110.65 125.3 114.15 139.2 106.2 148.3 103.55 159.1 51.1 212.85 50.75 212.45 51.25 190.95 51.3 189.4 75.25 163.5 72.8 156.75 72.3 157.35 51.3 99.95 51.45 98.8 51.45 98.7 57.0 48.15 61.95 2.65 M51.05 99.65 L51.2 99.6 51.3 99.95 51.45 116.1 51.35 115.75 35.9 158.0 35.5 157.5 29.75 149.5 34.3 138.95 51.05 99.65 M36.1 158.45 L36.9 159.45 37.2 160.1 52.0 178.2 67.85 159.05 67.75 158.7 70.9 157.9 72.05 157.65 51.55 182.25 51.45 182.15 44.65 171.6 36.1 158.45 M91.9 153.35 L91.6 153.75 91.75 155.0 91.9 153.35" fill="#e19c01" fill-rule="evenodd" stroke="none"/>
      <path d="M57.0 48.15 L51.45 98.7 51.45 98.8 51.05 99.65 35.2 108.6 57.0 48.15" fill="#fffdca" fill-rule="evenodd" stroke="none"/>
      <path d="M51.3 99.95 L72.3 157.35 72.8 156.75 75.25 163.5 51.3 189.4 51.45 182.3 51.55 182.25 72.05 157.65 70.9 157.9 67.75 158.7 51.45 116.1 51.3 99.95 M29.75 149.5 L35.5 157.5 35.85 158.05 35.85 158.1 36.1 158.45 44.65 171.6 39.3 169.3 34.25 167.15 26.7 156.6 27.35 155.1 29.7 149.6 29.75 149.5" fill="#f1d601" fill-rule="evenodd" stroke="none"/>
      <path d="M35.9 158.0 L51.35 115.75 51.45 116.1 67.75 158.7 67.85 159.05 52.0 178.2 37.2 160.1 36.9 159.45 35.9 158.0" fill="#11f0db" fill-rule="evenodd" stroke="none"/>
      <path d="M6.75 117.5 L6.9 117.15 20.35 129.35 20.8 128.6 29.55 149.2 29.7 149.6 27.35 155.1 23.3 150.75 6.75 117.5" fill="#d18e02" fill-rule="evenodd" stroke="none"/>
      <path d="M20.8 128.6 L21.1 128.1 34.3 138.95 29.75 149.5 29.55 149.2 20.8 128.6" fill="#f6d401" fill-rule="evenodd" stroke="none"/>
      <path d="M50.75 212.45 L12.15 165.25 10.0 148.5 0.0 134.7 6.75 117.5 23.3 150.75 27.35 155.1 26.7 156.6 34.25 167.15 50.65 190.1 51.25 190.95 50.75 212.45" fill="#f3d501" fill-rule="evenodd" stroke="none"/>
      <path d="M44.65 171.6 L51.45 182.15 51.45 182.3 51.3 189.4 50.65 190.1 34.25 167.15 39.3 169.3 44.65 171.6" fill="#ffffc9" fill-rule="evenodd" stroke="none"/>
      <path d="M93.85 125.75 L106.85 110.35 110.65 125.3 91.9 153.35 93.85 125.75" fill="#f5d602" fill-rule="evenodd" stroke="none"/>
      <path d="M61.95 2.65 L62.95 0.0 92.85 114.5 92.6 114.8 Q91.5 116.1 90.3 118.0 L89.8 118.8 Q86.9 123.6 86.75 127.15 L86.75 127.45 Q86.75 129.0 88.1 131.45 L88.45 132.1 93.85 125.75 106.85 110.35 110.65 125.3 114.15 139.2 106.2 148.3 103.55 159.1 51.1 212.85 50.75 212.45 12.15 165.25 10.0 148.5 0.0 134.7 6.75 117.5 6.9 117.15 20.35 129.35 20.8 128.6 21.1 128.1 Q21.75 126.7 21.75 125.45 21.75 123.05 19.7 119.5 L18.75 118.0 18.7 117.9 18.5 117.6 61.95 2.65" fill="none" stroke="#996600" stroke-linecap="round" stroke-linejoin="round" stroke-width="8.0"/>
      <path d="M35.9 158.0 L51.35 115.75 51.45 116.1 67.75 158.7 67.85 159.05 52.0 178.2 37.2 160.1 M36.1 158.45 L35.85 158.1 35.85 158.05 35.9 158.0 M36.9 159.45 L36.1 158.45" fill="none" stroke="#996600" stroke-linecap="round" stroke-linejoin="round" stroke-width="1.5"/>
    </g>
  </defs>
</svg>
