<?xml version="1.0" encoding="UTF-8" standalone="no"?>
<svg xmlns:ffdec="https://www.free-decompiler.com/flash" xmlns:xlink="http://www.w3.org/1999/xlink" ffdec:objectType="frame" height="30.1px" width="30.0px" xmlns="http://www.w3.org/2000/svg">
  <g transform="matrix(1.0, 0.0, 0.0, 1.0, 0.0, 0.0)">
    <use ffdec:characterId="1" height="30.0" transform="matrix(1.0, 0.0, 0.0, 1.0, 0.0, 0.0)" width="30.0" xlink:href="#shape0"/>
    <use ffdec:characterId="5" height="30.0" transform="matrix(1.0, 0.0, 0.0, 1.0, 0.0, 0.1)" width="30.0" xlink:href="#sprite0"/>
  </g>
  <defs>
    <g id="shape0" transform="matrix(1.0, 0.0, 0.0, 1.0, 0.0, 0.0)">
      <path d="M0.0 0.0 L30.0 0.0 30.0 30.0 0.0 30.0 0.0 0.0" fill="#33cc66" fill-opacity="0.0" fill-rule="evenodd" stroke="none"/>
    </g>
    <g id="sprite0" transform="matrix(1.0, 0.0, 0.0, 1.0, 0.0, 0.0)">
      <use ffdec:characterId="2" height="30.0" transform="matrix(1.0, 0.0, 0.0, 1.0, 0.0, 0.0)" width="30.0" xlink:href="#shape1"/>
      <use ffdec:characterId="4" height="51.25" transform="matrix(0.3822, 0.0, 0.0, 0.3822, 4.0589, 5.2089)" width="57.2" xlink:href="#sprite1"/>
    </g>
    <g id="shape1" transform="matrix(1.0, 0.0, 0.0, 1.0, 0.0, 0.0)">
      <path d="M3.3 0.0 L26.7 0.0 Q30.0 0.0 30.0 3.3 L30.0 26.7 Q30.0 30.0 26.7 30.0 L3.3 30.0 Q0.0 30.0 0.0 26.7 L0.0 3.3 Q0.0 0.0 3.3 0.0" fill="#f4c402" fill-rule="evenodd" stroke="none"/>
      <path d="M22.95 6.1 L23.25 6.2 23.85 6.75 24.25 7.3 24.65 8.2 24.6 8.55 24.55 8.9 24.45 9.2 24.45 9.25 24.75 9.7 25.5 11.05 25.75 11.9 Q24.95 13.9 24.25 14.75 L23.8 15.2 23.35 15.35 23.3 15.35 23.3 15.5 23.25 15.9 22.9 16.9 22.75 17.2 22.7 17.3 22.3 17.85 23.1 19.1 Q23.9 20.55 23.9 21.3 L23.95 21.85 22.5 23.15 Q20.15 24.65 16.5 24.6 L14.2 24.4 11.75 23.7 Q11.0 23.45 9.9 22.65 L8.65 21.5 Q9.0 20.45 9.5 19.5 L10.1 18.5 10.05 18.5 9.4 18.2 8.9 17.55 8.55 16.6 8.5 16.35 7.9 16.35 5.9 15.35 Q4.2 14.35 4.25 13.3 L4.6 10.95 4.65 10.9 5.65 9.9 6.15 9.5 6.8 9.0 6.65 8.6 Q6.75 8.2 7.2 7.55 L8.5 6.2 8.65 6.1 9.1 5.9 9.45 5.75 9.65 5.7 11.4 6.4 12.3 6.8 13.1 7.1 14.75 6.25 15.85 5.75 Q16.8 5.35 17.4 5.4 17.9 5.4 18.8 5.9 L19.2 6.15 19.55 6.4 19.7 6.45 20.35 6.85 20.45 6.9 20.95 6.7 21.5 6.5 22.75 6.05 22.95 6.1 Z" fill="none" stroke="#ffffff" stroke-linecap="round" stroke-linejoin="round" stroke-width="3.0"/>
    </g>
    <g id="sprite1" transform="matrix(1.0, 0.0, 0.0, 1.0, 0.5, 0.5)">
      <use ffdec:characterId="3" height="51.25" transform="matrix(1.0, 0.0, 0.0, 1.0, -0.5, -0.5)" width="57.2" xlink:href="#shape2"/>
    </g>
    <g id="shape2" transform="matrix(1.0, 0.0, 0.0, 1.0, 0.5, 0.5)">
      <path d="M49.7 2.15 Q50.5 2.6 51.3 3.6 L52.25 5.0 53.4 7.3 53.25 8.2 53.05 9.15 52.6 9.4 Q49.0 11.05 46.1 11.7 L45.95 11.75 46.3 10.55 46.95 9.1 48.2 6.05 48.4 5.65 49.7 2.15 M30.3 0.9 Q32.8 -0.05 34.35 0.0 35.7 0.0 38.05 1.3 L39.1 2.0 40.05 2.6 40.35 2.75 42.05 3.85 41.55 7.05 41.35 8.0 40.75 7.45 40.55 7.25 Q39.3 6.25 37.7 5.5 L37.55 5.45 35.95 4.85 35.65 4.85 35.35 4.9 35.05 3.5 34.95 3.15 34.8 2.65 34.25 1.65 34.05 1.5 33.65 1.55 32.2 0.65 30.3 0.9 M21.0 4.85 L21.4 5.25 Q22.15 6.0 22.3 7.15 L22.25 7.15 21.15 6.25 20.45 5.6 19.6 4.9 19.4 4.7 18.3 3.8 Q20.05 4.15 21.0 4.85" fill="#f5f0e1" fill-rule="evenodd" stroke="none"/>
      <path d="M53.05 9.15 L52.85 9.95 52.8 10.1 52.45 11.15 50.85 14.65 47.85 14.2 44.8 13.85 43.95 13.7 43.95 13.65 43.9 13.25 44.45 12.4 45.5 10.65 45.8 10.1 46.85 7.65 47.55 5.85 48.85 1.8 Q49.3 1.9 49.7 2.15 L48.4 5.65 48.2 6.05 46.95 9.1 46.3 10.55 45.95 11.75 46.1 11.7 Q49.0 11.05 52.6 9.4 L53.05 9.15 M49.65 27.45 Q49.5 28.7 48.8 30.1 L48.4 30.9 47.3 30.3 45.7 29.6 45.5 27.8 45.2 25.2 Q45.75 24.8 46.6 24.85 47.45 24.85 48.4 25.9 L49.65 27.45 M13.65 0.95 L14.05 0.85 18.7 2.65 21.1 3.65 21.3 3.7 23.1 4.5 27.4 2.2 Q29.05 1.4 30.3 0.9 L32.2 0.65 33.65 1.55 33.05 1.65 32.5 1.6 Q29.85 1.65 26.55 3.55 L25.95 3.95 Q23.9 5.15 22.95 6.2 L25.3 9.3 26.55 10.75 Q25.9 11.6 25.35 12.6 L19.8 7.0 19.05 6.25 13.65 0.95 M42.05 3.85 L42.35 4.0 42.4 4.0 42.35 6.9 42.25 9.1 41.35 8.0 41.55 7.05 42.05 3.85 M21.0 4.85 Q20.05 4.15 18.3 3.8 L19.4 4.7 19.6 4.9 20.45 5.6 21.15 6.25 22.25 7.15 22.3 7.15 Q22.15 6.0 21.4 5.25 L21.0 4.85 M19.7 27.55 Q19.4 28.85 19.4 29.9 L19.4 30.2 Q18.1 30.7 17.55 31.1 L16.55 31.7 14.25 30.35 Q12.45 29.1 12.5 27.8 L12.65 27.6 12.8 27.35 Q14.8 25.2 17.0 23.95 L18.1 24.85 19.95 25.95 19.7 27.55" fill="#d1e3ff" fill-rule="evenodd" stroke="none"/>
      <path d="M52.8 10.1 L53.65 11.3 55.6 14.85 Q54.5 15.15 54.2 15.45 L53.05 16.8 53.05 16.85 50.15 19.3 49.95 19.6 48.05 23.1 48.7 23.65 51.2 25.65 50.0 26.1 49.8 26.0 48.8 25.15 47.85 24.3 47.2 23.75 46.85 23.55 Q47.85 22.45 48.65 20.4 L49.1 19.1 49.75 16.55 50.4 15.45 50.75 14.75 50.85 14.65 52.45 11.15 52.8 10.1 M11.15 28.7 L9.6 28.7 9.5 28.7 Q10.2 26.9 11.1 25.7 L12.25 24.3 Q13.7 22.8 15.8 21.6 L15.9 21.6 15.75 21.2 Q14.85 18.6 14.15 18.45 11.7 17.7 9.1 16.25 5.75 14.3 3.6 11.75 L4.95 10.75 Q5.85 9.95 6.7 9.4 8.4 12.1 11.45 14.5 L12.7 15.35 13.75 16.0 16.8 17.9 17.0 18.95 Q17.7 21.35 18.5 21.75 18.1 21.85 17.8 22.05 L16.35 22.9 16.35 22.95 14.65 24.1 13.55 25.15 Q11.65 27.05 11.4 28.75 L11.15 28.7 M42.8 30.85 L42.9 30.9 42.25 31.95 42.0 32.3 41.15 33.35 39.45 35.2 37.9 36.6 35.85 38.4 Q34.6 39.25 33.4 39.25 32.1 39.2 28.45 35.65 L24.9 32.0 24.85 31.95 24.8 31.85 24.5 30.85 24.7 30.85 25.7 30.8 26.4 30.9 Q27.8 33.4 30.4 35.3 32.25 36.7 33.8 37.05 L34.0 36.95 Q39.0 34.8 40.6 31.9 L40.7 31.8 41.45 30.5 42.25 30.7 42.8 30.85" fill="#434286" fill-rule="evenodd" stroke="none"/>
      <path d="M49.8 26.0 L49.8 26.4 49.65 27.45 48.4 25.9 Q47.45 24.85 46.6 24.85 45.75 24.8 45.2 25.2 L45.5 27.8 45.7 29.6 47.3 30.3 48.4 30.9 48.25 31.2 47.25 32.6 45.4 31.85 44.4 31.4 42.9 30.9 42.8 30.85 42.9 30.55 44.15 27.55 44.7 25.95 Q45.0 24.85 45.25 24.75 L47.2 23.75 47.85 24.3 48.8 25.15 49.8 26.0 M15.25 34.25 L15.1 34.3 Q14.3 34.3 13.5 33.55 12.85 32.95 12.2 31.75 11.55 30.55 11.25 29.35 L11.15 28.7 11.4 28.75 Q11.65 27.05 13.55 25.15 L14.65 24.1 16.35 22.95 16.35 22.9 17.8 22.05 Q20.8 22.85 22.65 25.7 24.0 27.85 24.7 30.85 L24.5 30.85 23.35 31.0 Q21.2 31.45 18.65 32.55 L17.65 33.05 15.25 34.25 M6.7 9.4 L6.25 8.45 Q6.5 7.3 7.75 5.65 9.4 3.5 11.05 2.15 L11.5 1.85 Q11.9 1.6 12.65 1.3 L13.65 0.95 19.05 6.25 19.8 7.0 25.35 12.6 24.95 13.45 20.05 13.4 12.95 15.25 12.7 15.35 11.45 14.5 Q8.4 12.1 6.7 9.4 M42.4 4.0 L43.65 3.45 45.1 2.85 Q48.0 1.7 48.35 1.7 L48.85 1.8 47.55 5.85 46.85 7.65 45.8 10.1 45.5 10.65 44.45 12.4 43.9 13.25 43.75 12.65 43.2 10.85 42.25 9.1 42.35 6.9 42.4 4.0 M33.65 1.55 L34.05 1.5 34.25 1.65 34.8 2.65 34.95 3.15 35.05 3.5 35.35 4.9 33.65 5.1 Q31.8 5.55 30.2 6.65 28.3 8.05 26.55 10.75 L25.3 9.3 22.95 6.2 Q23.9 5.15 25.95 3.95 L26.55 3.55 Q29.85 1.65 32.5 1.6 L33.05 1.65 33.65 1.55 M19.7 27.55 L19.95 25.95 18.1 24.85 17.0 23.95 Q14.8 25.2 12.8 27.35 L12.65 27.6 12.5 27.8 Q12.45 29.1 14.25 30.35 L16.55 31.7 17.55 31.1 Q18.1 30.7 19.4 30.2 L19.4 29.9 Q19.4 28.85 19.7 27.55" fill="#8f93ee" fill-rule="evenodd" stroke="none"/>
      <path d="M35.35 4.9 L35.65 4.85 35.95 4.85 37.55 5.45 37.7 5.5 Q39.3 6.25 40.55 7.25 L40.75 7.45 41.35 8.0 42.25 9.1 43.2 10.85 43.75 12.65 43.9 13.25 43.95 13.65 43.95 13.7 44.8 13.85 47.85 14.2 50.85 14.65 50.75 14.75 50.4 15.45 44.3 14.7 44.15 14.7 42.25 18.25 Q40.7 21.1 40.7 21.45 L41.4 22.3 42.7 21.55 Q43.6 20.85 43.8 20.9 44.25 20.9 44.6 21.75 L44.1 22.35 44.05 22.3 43.45 21.8 Q42.95 21.8 42.3 22.5 L41.25 23.2 Q40.8 23.15 40.4 22.65 40.05 22.1 40.1 21.5 40.1 21.15 41.8 18.15 L43.55 14.7 43.05 13.0 42.9 12.65 40.55 8.4 40.25 8.0 Q38.3 5.6 35.65 5.55 33.25 5.5 30.75 7.35 28.0 9.45 25.9 13.4 L25.7 13.8 25.35 14.1 24.45 14.0 24.25 14.05 Q29.4 18.7 29.35 21.1 29.3 23.1 27.5 23.05 L26.05 22.85 Q25.55 22.85 25.55 23.7 L25.55 23.9 24.6 23.6 Q24.55 22.75 25.0 22.25 L26.6 22.1 Q28.6 22.6 28.65 20.6 L28.45 19.7 28.2 19.4 28.0 19.1 27.3 18.15 26.1 16.4 Q24.1 15.05 23.55 14.2 L19.9 14.15 19.4 14.3 Q15.85 15.2 13.75 16.0 L12.7 15.35 12.95 15.25 20.05 13.4 24.95 13.45 25.35 12.6 Q25.9 11.6 26.55 10.75 28.3 8.05 30.2 6.65 31.8 5.55 33.65 5.1 L35.35 4.9" fill="#85429f" fill-rule="evenodd" stroke="none"/>
      <path d="M40.8 10.35 L40.65 11.15 Q39.85 13.7 39.0 14.6 38.95 14.6 38.85 14.7 L38.8 14.65 Q38.45 13.8 37.5 12.5 L37.45 14.2 37.45 15.15 37.4 16.2 37.3 18.35 37.05 20.6 36.65 23.2 36.0 27.0 35.6 29.05 34.95 31.5 35.1 30.65 Q35.65 27.45 35.75 23.85 L35.7 19.95 35.75 18.95 35.85 16.8 35.9 16.55 35.75 9.05 35.7 8.05 35.65 7.3 35.6 6.6 35.85 6.6 36.35 6.6 Q37.0 6.65 37.5 6.95 38.1 7.2 38.6 7.6 L40.1 9.3 40.45 9.8 40.8 10.35 M37.6 30.45 L37.5 30.55 37.6 28.75 37.6 28.45 38.25 27.5 39.55 26.25 38.75 28.7 37.6 30.45" fill="#83f8f2" fill-rule="evenodd" stroke="none"/>
      <path d="M50.4 15.45 L49.75 16.55 49.1 19.1 47.2 21.15 Q45.05 22.25 44.65 23.25 L44.0 25.5 43.35 26.85 43.4 26.3 Q42.15 27.55 41.65 28.5 L41.3 29.2 40.95 29.75 Q40.05 31.05 34.5 34.35 L34.95 31.5 35.6 29.05 36.0 27.0 36.65 23.2 37.05 20.6 37.3 18.35 37.4 16.2 37.45 15.15 37.45 14.2 37.5 12.5 Q38.45 13.8 38.8 14.65 L38.85 14.7 Q38.95 14.6 39.0 14.6 39.85 13.7 40.65 11.15 L40.8 10.35 41.2 11.05 41.75 12.3 41.45 13.6 41.05 14.6 41.0 14.75 39.5 17.5 39.05 18.1 38.95 18.2 38.95 18.35 39.05 18.3 38.85 19.45 38.75 19.8 38.45 21.55 38.4 22.05 39.4 17.95 42.4 15.0 42.4 15.05 41.3 17.45 40.95 18.1 39.3 21.9 Q39.3 23.0 39.75 23.55 40.25 24.1 41.6 24.15 42.45 24.15 43.4 23.15 L44.1 22.35 44.6 21.75 Q44.25 20.9 43.8 20.9 43.6 20.85 42.7 21.55 L41.4 22.3 40.7 21.45 Q40.7 21.1 42.25 18.25 L44.15 14.7 44.3 14.7 50.4 15.45 M26.8 14.2 L26.8 14.15 26.9 14.15 27.2 13.65 27.3 13.5 27.65 12.8 27.9 12.45 28.05 12.65 28.65 13.35 29.25 14.2 30.45 15.75 31.7 17.5 31.7 17.55 31.85 17.8 32.0 17.95 32.05 18.35 32.2 18.85 32.15 18.85 32.3 19.8 32.9 22.8 32.45 21.05 31.6 18.5 30.85 17.85 30.35 17.4 28.2 15.5 27.9 15.25 27.15 14.6 26.8 14.2 M49.35 22.7 L49.8 22.3 51.2 21.75 52.85 20.95 Q52.4 22.25 51.6 23.25 L50.45 24.15 49.75 23.8 49.15 23.4 48.8 23.15 49.35 22.7 M42.9 30.9 L44.4 31.4 45.4 31.85 46.0 32.35 45.2 32.45 Q43.9 32.45 43.6 32.8 L39.65 35.6 41.6 33.15 42.9 30.9 M3.5 24.25 Q3.55 23.75 4.65 22.55 L5.8 21.0 5.9 20.95 6.15 20.65 6.4 20.3 7.15 20.25 Q7.75 20.25 7.9 19.9 L7.9 20.05 7.75 20.75 7.45 21.75 7.4 22.0 7.55 21.85 8.15 21.15 Q8.5 20.8 8.65 20.8 L10.5 21.2 12.6 21.65 12.9 21.55 12.9 21.8 11.15 23.75 10.85 24.1 Q8.9 26.35 8.6 26.3 L3.5 24.25 M17.65 33.05 L18.65 32.55 Q21.2 31.45 23.35 31.0 L24.1 31.45 24.7 32.35 25.8 33.75 27.2 35.2 Q26.7 35.05 24.85 33.75 L22.95 32.6 17.65 33.05 M37.6 30.45 L38.75 28.7 39.55 26.25 38.25 27.5 37.6 28.45 37.6 28.75 37.5 30.55 37.6 30.45" fill="#58b7f7" fill-rule="evenodd" stroke="none"/>
      <path d="M40.8 10.35 L40.45 9.8 40.1 9.3 38.6 7.6 Q38.1 7.2 37.5 6.95 37.0 6.65 36.35 6.6 L35.85 6.6 35.6 6.6 33.65 7.0 31.3 8.5 Q29.35 10.1 27.9 12.45 L27.65 12.8 27.3 13.5 27.2 13.65 26.9 14.15 26.8 14.15 26.8 14.2 26.75 14.3 26.65 14.95 28.65 17.1 29.7 18.4 30.15 19.05 Q30.95 20.3 30.95 20.95 30.9 21.85 29.6 23.05 28.2 24.15 27.25 24.15 L26.0 23.95 25.55 23.9 25.55 23.7 Q25.55 22.85 26.05 22.85 L27.5 23.05 Q29.3 23.1 29.35 21.1 29.4 18.7 24.25 14.05 L24.45 14.0 25.35 14.1 25.7 13.8 25.9 13.4 Q28.0 9.45 30.75 7.35 33.25 5.5 35.65 5.55 38.3 5.6 40.25 8.0 L40.55 8.4 42.9 12.65 43.05 13.0 43.55 14.7 41.8 18.15 Q40.1 21.15 40.1 21.5 40.05 22.1 40.4 22.65 40.8 23.15 41.25 23.2 L42.3 22.5 Q42.95 21.8 43.45 21.8 L44.05 22.3 44.1 22.35 43.4 23.15 Q42.45 24.15 41.6 24.15 40.25 24.1 39.75 23.55 39.3 23.0 39.3 21.9 L40.95 18.1 41.3 17.45 42.4 15.05 42.4 15.0 42.25 14.5 42.3 14.25 42.2 13.8 42.1 13.35 41.75 12.3 41.2 11.05 40.8 10.35" fill="#f781f5" fill-rule="evenodd" stroke="none"/>
      <path d="M55.6 14.85 Q56.2 16.25 56.2 17.05 53.35 24.05 51.2 25.65 L48.7 23.65 48.05 23.1 49.95 19.6 50.15 19.3 53.05 16.85 53.05 16.8 54.2 15.45 Q54.5 15.15 55.6 14.85 M47.25 32.6 L49.35 35.8 Q51.4 39.6 51.4 41.6 L51.5 43.0 Q49.7 45.05 47.7 46.4 41.55 50.45 32.0 50.25 L26.0 49.75 Q23.85 49.4 19.65 47.9 17.7 47.2 14.75 45.1 12.45 43.45 11.5 42.1 12.45 39.45 13.75 36.9 L15.25 34.25 17.65 33.05 22.95 32.6 24.85 33.75 Q26.7 35.05 27.2 35.2 L25.8 33.75 24.7 32.35 24.1 31.45 23.35 31.0 24.5 30.85 24.8 31.85 24.85 31.95 24.9 32.0 28.45 35.65 Q32.1 39.2 33.4 39.25 34.6 39.25 35.85 38.4 L37.9 36.6 39.45 35.2 41.15 33.35 42.0 32.3 42.25 31.95 42.9 30.9 41.6 33.15 39.65 35.6 43.6 32.8 Q43.9 32.45 45.2 32.45 L46.0 32.35 45.4 31.85 47.25 32.6 M9.5 28.7 L4.35 26.05 Q-0.1 23.4 0.0 20.7 L0.85 14.55 1.0 14.4 3.6 11.75 Q5.75 14.3 9.1 16.25 11.7 17.7 14.15 18.45 14.85 18.6 15.75 21.2 L15.9 21.6 15.8 21.6 Q13.7 22.8 12.25 24.3 L11.1 25.7 Q10.2 26.9 9.5 28.7 M49.1 19.1 L48.65 20.4 Q47.85 22.45 46.85 23.55 L45.35 24.2 44.45 24.5 44.0 25.5 44.65 23.25 Q45.05 22.25 47.2 21.15 L49.1 19.1 M35.6 6.6 L35.65 7.3 35.7 8.05 35.75 9.05 35.9 16.55 35.85 16.8 35.75 18.95 35.7 19.95 35.75 23.85 Q35.65 27.45 35.1 30.65 L34.95 31.5 34.5 34.35 Q40.05 31.05 40.95 29.75 L41.3 29.2 41.65 28.5 Q42.15 27.55 43.4 26.3 L43.35 26.85 43.0 27.55 42.25 29.1 42.1 29.35 41.45 30.5 40.7 31.8 40.6 31.9 Q39.0 34.8 34.0 36.95 L33.8 37.05 Q32.25 36.7 30.4 35.3 27.8 33.4 26.4 30.9 L25.8 29.6 25.6 29.15 24.05 26.1 Q22.9 24.25 21.8 23.45 L18.5 21.75 Q17.7 21.35 17.0 18.95 L16.8 17.9 13.75 16.0 Q15.85 15.2 19.4 14.3 L19.9 14.15 23.55 14.2 Q24.1 15.05 26.1 16.4 L27.3 18.15 28.0 19.1 28.2 19.4 28.45 19.7 28.65 20.6 Q28.6 22.6 26.6 22.1 L25.0 22.25 Q24.55 22.75 24.6 23.6 L25.55 23.9 26.0 23.95 27.25 24.15 Q28.2 24.15 29.6 23.05 30.9 21.85 30.95 20.95 30.95 20.3 30.15 19.05 L29.7 18.4 28.65 17.1 26.65 14.95 26.75 14.3 26.8 14.2 27.15 14.6 27.9 15.25 28.2 15.5 30.35 17.4 30.85 17.85 31.6 18.5 32.45 21.05 32.9 22.8 32.3 19.8 32.15 18.85 32.2 18.85 32.05 18.35 32.0 17.95 31.85 17.8 31.7 17.55 31.7 17.5 30.45 15.75 29.25 14.2 28.65 13.35 28.05 12.65 27.9 12.45 Q29.35 10.1 31.3 8.5 L33.65 7.0 35.6 6.6 M41.75 12.3 L42.1 13.35 42.2 13.8 42.3 14.25 42.25 14.5 42.4 15.0 39.4 17.95 38.4 22.05 38.45 21.55 38.75 19.8 38.85 19.45 39.05 18.3 38.95 18.35 38.95 18.2 39.05 18.1 39.5 17.5 41.0 14.75 41.05 14.6 41.45 13.6 41.75 12.3 M49.35 22.7 L48.8 23.15 49.15 23.4 49.75 23.8 50.45 24.15 51.6 23.25 Q52.4 22.25 52.85 20.95 L51.2 21.75 49.8 22.3 49.35 22.7 M3.5 24.25 L8.6 26.3 Q8.9 26.35 10.85 24.1 L11.15 23.75 12.9 21.8 12.9 21.55 12.6 21.65 10.5 21.2 8.65 20.8 Q8.5 20.8 8.15 21.15 L7.55 21.85 7.4 22.0 7.45 21.75 7.75 20.75 7.9 20.05 7.9 19.9 Q7.75 20.25 7.15 20.25 L6.4 20.3 6.15 20.65 5.9 20.95 5.8 21.0 4.65 22.55 Q3.55 23.75 3.5 24.25" fill="#3f5be2" fill-rule="evenodd" stroke="none"/>
      <path d="M46.85 23.55 L47.2 23.75 45.25 24.75 Q45.0 24.85 44.7 25.95 L44.15 27.55 42.9 30.55 42.8 30.85 42.25 30.7 41.45 30.5 42.1 29.35 42.25 29.1 43.0 27.55 43.35 26.85 44.0 25.5 44.45 24.5 45.35 24.2 46.85 23.55 M26.4 30.9 L25.7 30.8 24.7 30.85 Q24.0 27.85 22.65 25.7 20.8 22.85 17.8 22.05 18.1 21.85 18.5 21.75 L21.8 23.45 Q22.9 24.25 24.05 26.1 L25.6 29.15 25.8 29.6 26.4 30.9" fill="#5660c4" fill-rule="evenodd" stroke="none"/>
      <path d="M49.7 2.15 Q50.5 2.6 51.3 3.6 L52.25 5.0 53.4 7.3 53.25 8.2 53.05 9.15 52.85 9.95 52.8 10.1 M49.8 26.0 L49.8 26.4 49.65 27.45 Q49.5 28.7 48.8 30.1 L48.4 30.9 48.25 31.2 47.25 32.6 M15.1 34.3 Q14.3 34.3 13.5 33.55 12.85 32.95 12.2 31.75 11.55 30.55 11.25 29.35 L11.15 28.7 M6.7 9.4 L6.25 8.45 Q6.5 7.3 7.75 5.65 9.4 3.5 11.05 2.15 L11.5 1.85 Q11.9 1.6 12.65 1.3 L13.65 0.95 14.05 0.85 18.7 2.65 21.1 3.65 M21.3 3.7 L23.1 4.5 27.4 2.2 Q29.05 1.4 30.3 0.9 32.8 -0.05 34.35 0.0 35.7 0.0 38.05 1.3 L39.1 2.0 40.05 2.6 40.35 2.75 42.05 3.85 42.35 4.0 42.4 4.0 43.65 3.45 45.1 2.85 Q48.0 1.7 48.35 1.7 L48.85 1.8 Q49.3 1.9 49.7 2.15" fill="none" stroke="#4a5577" stroke-linecap="round" stroke-linejoin="round" stroke-width="1.0"/>
      <path d="M52.8 10.1 L53.65 11.3 55.6 14.85 Q56.2 16.25 56.2 17.05 53.35 24.05 51.2 25.65 L50.0 26.1 49.8 26.0 M47.25 32.6 L49.35 35.8 Q51.4 39.6 51.4 41.6 L51.5 43.0 Q49.7 45.05 47.7 46.4 41.55 50.45 32.0 50.25 L26.0 49.75 Q23.85 49.4 19.65 47.9 17.7 47.2 14.75 45.1 12.45 43.45 11.5 42.1 12.45 39.45 13.75 36.9 L15.25 34.25 15.1 34.3 M11.15 28.7 L9.6 28.7 9.5 28.7 4.35 26.05 Q-0.1 23.4 0.0 20.7 L0.85 14.55 1.0 14.4 3.6 11.75 4.95 10.75 Q5.85 9.95 6.7 9.4" fill="none" stroke="#212854" stroke-linecap="round" stroke-linejoin="round" stroke-width="1.0"/>
    </g>
  </defs>
</svg>
