<?xml version="1.0" encoding="UTF-8" standalone="no"?>
<svg xmlns:ffdec="https://www.free-decompiler.com/flash" xmlns:xlink="http://www.w3.org/1999/xlink" ffdec:objectType="frame" height="30.1px" width="30.0px" xmlns="http://www.w3.org/2000/svg">
  <g transform="matrix(1.0, 0.0, 0.0, 1.0, 0.0, 0.0)">
    <use ffdec:characterId="1" height="30.0" transform="matrix(1.0, 0.0, 0.0, 1.0, 0.0, 0.0)" width="30.0" xlink:href="#shape0"/>
    <use ffdec:characterId="5" height="30.0" transform="matrix(1.0, 0.0, 0.0, 1.0, 0.0, 0.1)" width="30.0" xlink:href="#sprite0"/>
  </g>
  <defs>
    <g id="shape0" transform="matrix(1.0, 0.0, 0.0, 1.0, 0.0, 0.0)">
      <path d="M0.0 0.0 L30.0 0.0 30.0 30.0 0.0 30.0 0.0 0.0" fill="#33cc66" fill-opacity="0.0" fill-rule="evenodd" stroke="none"/>
    </g>
    <g id="sprite0" transform="matrix(1.0, 0.0, 0.0, 1.0, 0.0, 0.0)">
      <use ffdec:characterId="2" height="30.0" transform="matrix(1.0, 0.0, 0.0, 1.0, 0.0, 0.0)" width="30.0" xlink:href="#shape1"/>
      <use ffdec:characterId="4" height="41.45" transform="matrix(0.4872, 0.0, 0.0, 0.4872, 2.0064, 4.9064)" width="53.45" xlink:href="#sprite1"/>
    </g>
    <g id="shape1" transform="matrix(1.0, 0.0, 0.0, 1.0, 0.0, 0.0)">
      <path d="M0.0 26.7 L0.0 3.3 Q0.0 0.0 3.3 0.0 L26.7 0.0 Q30.0 0.0 30.0 3.3 L30.0 26.7 Q30.0 30.0 26.7 30.0 L3.3 30.0 Q0.0 30.0 0.0 26.7" fill="#6699cc" fill-rule="evenodd" stroke="none"/>
      <path d="M22.75 5.15 L22.8 6.1 Q22.8 7.3 23.55 8.2 23.95 8.65 24.85 9.3 L25.3 9.6 26.3 10.3 26.6 10.6 27.05 11.0 27.2 11.25 Q27.8 12.1 27.8 13.2 L27.6 14.4 26.65 16.15 26.6 16.2 26.5 16.35 25.0 18.0 24.45 18.45 23.9 19.0 23.1 19.6 22.85 19.8 22.45 20.1 21.85 20.55 20.95 21.15 20.4 21.55 20.05 22.2 19.8 22.6 19.7 22.65 19.6 22.85 19.4 23.1 19.0 23.55 19.0 23.65 18.9 23.75 18.8 23.8 18.1 24.6 17.9 24.8 17.9 24.85 17.85 24.9 17.35 24.55 16.75 24.1 16.4 23.8 15.95 23.3 15.9 23.3 15.75 23.1 14.9 22.2 14.35 21.65 13.95 21.35 12.5 20.65 11.0 20.1 10.65 20.05 10.35 19.9 10.3 19.9 9.1 19.55 8.5 19.4 8.0 19.3 5.7 18.7 4.75 18.4 4.5 18.35 4.05 18.2 3.9 18.15 2.45 17.2 Q2.2 16.9 2.25 16.55 2.3 14.25 4.75 11.05 L4.9 10.8 6.55 8.9 7.2 8.3 6.95 7.35 6.7 6.2 7.45 6.6 8.4 7.2 11.05 9.0 12.3 10.05 12.2 10.15 12.05 10.3 11.65 10.8 10.7 12.4 Q10.35 13.3 10.35 14.05 10.3 14.65 10.7 15.05 L10.8 15.15 11.05 15.3 11.35 15.45 11.55 15.5 11.6 15.35 11.75 14.8 Q12.1 13.9 12.75 13.2 L13.95 12.15 14.15 12.05 13.7 13.95 13.65 14.3 13.65 14.4 13.75 14.3 14.35 13.65 Q14.85 13.15 15.35 12.85 L16.0 12.55 Q16.3 12.35 16.7 12.3 L16.7 12.25 16.95 10.15 17.1 9.15 17.15 8.6 17.95 5.35 18.0 5.2 18.35 6.0 19.3 9.2 19.3 9.35 19.45 10.05 19.5 10.25 19.85 12.45 20.45 12.7 20.5 12.75 20.75 12.9 20.85 12.95 21.5 13.6 21.3 12.55 21.0 11.75 21.05 11.75 22.0 12.4 22.25 12.65 22.9 13.55 22.95 13.6 23.25 14.25 23.4 14.1 23.7 13.3 23.45 12.55 23.4 12.4 23.2 12.1 22.3 11.15 21.15 10.35 21.4 9.45 21.45 9.2 22.45 5.8 22.75 5.15 Z" fill="none" stroke="#ffffff" stroke-linecap="round" stroke-linejoin="round" stroke-width="3.0"/>
    </g>
    <g id="sprite1" transform="matrix(1.0, 0.0, 0.0, 1.0, 0.5, 0.5)">
      <use ffdec:characterId="3" height="41.45" transform="matrix(1.0, 0.0, 0.0, 1.0, -0.5, -0.5)" width="53.45" xlink:href="#shape2"/>
    </g>
    <g id="shape2" transform="matrix(1.0, 0.0, 0.0, 1.0, 0.5, 0.5)">
      <path d="M48.05 15.0 Q47.8 14.15 47.15 13.35 L45.75 11.8 44.25 10.65 41.45 8.35 41.75 5.5 41.95 4.65 Q41.95 6.8 42.2 8.2 L42.3 8.3 42.45 8.4 45.3 10.65 46.35 11.55 47.55 12.6 48.0 13.15 48.25 13.6 48.9 15.0 48.95 15.45 49.0 15.6 49.15 17.15 49.0 18.3 48.55 19.15 48.25 19.65 47.3 20.95 46.7 21.6 46.3 22.05 45.45 22.85 45.0 23.3 43.85 24.25 43.7 24.85 43.7 24.9 42.95 27.4 42.8 27.8 42.4 27.8 42.05 25.5 41.95 25.55 41.25 25.9 40.95 26.05 Q39.9 27.8 37.45 30.1 L36.7 30.85 36.55 30.9 36.45 31.15 35.75 33.3 35.5 33.75 35.25 34.2 35.0 34.6 34.4 35.6 35.35 33.4 35.5 32.85 Q36.05 31.5 35.95 30.7 L36.4 30.3 39.0 27.75 Q40.25 26.3 40.55 25.3 L41.3 24.85 40.5 23.75 39.55 22.5 39.4 22.4 Q39.1 22.4 38.75 22.75 L38.6 22.85 38.7 22.55 38.95 21.95 39.05 21.65 39.05 21.55 39.2 21.15 39.3 20.7 39.55 20.6 39.9 20.45 40.1 20.3 40.5 20.75 41.0 21.45 41.05 21.55 41.2 21.7 41.9 23.25 42.3 24.3 42.5 25.2 42.6 25.7 42.8 26.95 42.9 26.55 43.15 25.25 43.25 24.65 43.45 23.8 43.45 23.5 43.5 23.05 43.6 21.8 43.55 20.95 43.5 20.8 43.35 19.75 43.15 18.65 43.15 18.6 43.4 18.3 Q43.95 17.65 44.0 16.7 L43.55 15.1 Q44.5 16.15 45.1 18.1 L44.4 22.4 44.3 22.45 44.4 22.45 44.4 22.4 45.25 22.1 45.35 22.0 46.55 20.65 47.15 19.9 47.6 19.3 Q48.4 17.95 48.45 16.85 48.45 15.9 48.05 15.0 M17.6 20.5 L18.1 20.8 18.65 21.05 19.1 21.2 18.7 23.45 Q18.55 24.2 18.55 25.05 L18.9 27.8 19.1 27.4 19.2 27.15 19.3 27.05 19.6 26.5 20.1 25.5 20.5 24.65 21.75 22.9 21.8 22.85 22.8 21.95 22.9 21.85 23.15 21.85 23.3 21.85 24.2 21.9 24.15 22.0 Q20.85 25.95 20.85 26.2 L21.35 26.8 23.2 27.1 Q24.1 28.5 25.95 29.95 L28.55 32.0 28.6 32.15 29.3 34.0 29.45 34.4 29.95 35.5 29.7 35.3 29.5 35.1 28.95 34.45 28.85 34.3 28.5 33.3 27.95 32.35 27.85 32.3 26.05 31.1 23.05 28.05 22.9 27.9 22.45 27.85 19.6 27.25 19.5 27.4 19.25 27.9 19.35 27.95 19.0 29.4 18.4 27.75 18.2 26.9 17.95 26.9 15.4 26.3 14.8 26.05 12.6 25.05 12.05 24.75 11.65 24.45 10.4 23.5 9.3 22.3 8.85 21.65 Q8.15 20.4 8.15 19.0 L8.25 18.65 8.25 18.4 Q8.45 17.05 9.4 15.1 10.65 12.55 12.65 10.7 L13.6 9.85 12.45 7.8 11.7 6.6 11.7 6.55 11.8 6.6 12.7 7.55 13.0 7.8 14.5 9.7 13.75 10.4 13.5 10.65 13.35 10.8 Q13.05 11.15 12.9 11.45 11.0 13.7 10.0 15.8 9.25 17.3 9.1 18.5 L9.0 19.05 Q9.0 20.75 10.0 22.15 L10.35 22.6 11.7 22.95 13.5 23.4 Q13.95 23.4 15.55 22.1 L16.05 21.7 17.7 22.3 18.55 22.3 16.7 21.25 17.6 20.5" fill="#9a4a0a" fill-rule="evenodd" stroke="none"/>
      <path d="M48.9 15.0 L48.25 13.6 48.0 13.15 47.55 12.6 46.35 11.55 45.3 10.65 42.45 8.4 42.3 8.3 42.2 8.2 Q41.95 6.8 41.95 4.65 L41.75 5.5 41.45 8.35 44.25 10.65 45.75 11.8 47.15 13.35 Q47.8 14.15 48.05 15.0 L47.95 15.9 Q47.5 14.55 44.7 11.9 42.35 9.7 40.7 9.1 L40.25 10.25 Q43.5 13.6 43.5 14.35 L43.4 14.85 43.05 14.25 41.15 12.3 Q39.85 11.2 38.85 10.6 L39.35 8.75 39.45 8.3 41.45 1.3 42.1 0.0 42.2 1.9 Q42.15 4.4 43.75 6.25 44.55 7.15 46.45 8.45 L47.35 9.1 49.35 10.55 50.0 11.15 50.9 12.0 51.2 12.45 Q52.5 14.2 52.45 16.45 L52.05 18.9 Q51.4 20.6 50.05 22.55 L49.95 22.6 49.75 22.95 46.7 26.35 Q46.9 25.3 48.2 23.25 49.7 20.95 49.85 18.35 L49.85 18.05 49.85 17.65 Q49.35 21.15 43.7 24.9 L43.7 24.85 43.85 24.25 45.0 23.3 45.45 22.85 46.3 22.05 46.7 21.6 47.3 20.95 48.25 19.65 48.55 19.15 49.0 18.3 49.15 17.15 49.0 15.6 48.9 15.0 M10.65 2.95 L12.6 4.15 18.1 7.9 20.65 10.0 20.4 10.25 20.1 10.55 19.35 11.5 Q18.05 13.1 17.35 14.8 L17.35 14.85 17.05 15.1 Q15.8 16.6 15.8 18.25 L15.7 18.25 15.25 16.35 16.2 13.9 17.95 9.95 16.3 8.3 15.85 7.85 12.25 4.45 10.65 2.95 M35.35 10.05 L35.45 10.45 36.15 14.9 Q36.0 15.9 35.55 16.5 L34.95 15.65 34.65 15.0 34.65 15.5 35.3 17.35 Q35.65 18.5 36.15 18.5 36.8 18.5 37.45 17.25 L37.95 15.85 38.15 15.95 38.3 18.4 38.25 19.1 37.3 21.25 37.15 21.65 36.7 22.45 35.75 21.85 33.65 20.8 33.75 20.75 33.6 20.6 33.6 17.05 33.8 15.25 34.1 10.25 Q34.1 9.5 34.35 8.8 L34.35 8.65 35.35 10.05 M29.3 20.6 L29.35 19.3 30.05 16.95 30.5 17.55 Q31.35 18.75 31.3 19.95 31.3 20.2 30.55 20.25 29.7 20.25 29.3 20.6 M11.7 6.6 L12.45 7.8 13.6 9.85 12.65 10.7 Q10.65 12.55 9.4 15.1 8.45 17.05 8.25 18.4 L8.25 18.65 8.2 17.9 Q8.25 15.6 10.55 12.35 L12.85 9.55 12.25 7.75 11.7 6.6" fill="#fff98e" fill-rule="evenodd" stroke="none"/>
      <path d="M48.05 15.0 Q48.45 15.9 48.45 16.85 48.4 17.95 47.6 19.3 L47.15 19.9 46.55 20.65 45.35 22.0 45.25 22.1 44.4 22.4 44.4 22.45 44.3 22.45 44.4 22.4 45.1 18.1 Q44.5 16.15 43.55 15.1 L43.4 14.85 43.5 14.35 Q43.5 13.6 40.25 10.25 L40.7 9.1 Q42.35 9.7 44.7 11.9 47.5 14.55 47.95 15.9 L48.05 15.0 M39.55 22.5 L40.5 23.75 41.3 24.85 40.55 25.3 Q40.25 26.3 39.0 27.75 L36.4 30.3 35.95 30.7 Q36.05 31.5 35.5 32.85 L35.35 33.4 34.4 35.6 35.0 34.6 35.25 34.2 35.5 33.75 35.75 33.3 36.45 31.15 36.55 30.9 36.7 30.85 37.45 30.1 Q39.9 27.8 40.95 26.05 L41.25 25.9 41.95 25.55 42.05 25.5 42.4 27.8 42.8 27.8 42.95 27.4 43.7 24.9 Q49.35 21.15 49.85 17.65 L49.85 18.05 49.85 18.35 Q49.7 20.95 48.2 23.25 46.9 25.3 46.7 26.35 L45.6 27.3 44.45 28.35 42.8 29.65 42.3 30.05 41.45 30.65 40.2 31.6 38.4 32.8 37.25 33.6 36.55 34.95 36.0 35.75 35.85 35.9 35.6 36.25 35.25 36.75 34.4 37.75 34.35 37.9 34.15 38.1 34.0 38.25 32.55 39.9 32.15 40.3 32.7 37.25 32.95 36.2 33.45 32.55 Q37.0 29.55 38.3 26.9 L38.9 24.75 39.5 22.6 39.55 22.5 M0.0 23.35 Q0.1 18.65 5.1 12.1 L5.5 11.6 8.8 7.7 10.15 6.45 9.7 4.45 9.2 2.1 10.65 2.95 12.25 4.45 15.85 7.85 16.3 8.3 17.95 9.95 16.2 13.9 15.25 16.35 15.7 18.25 15.8 18.25 Q15.8 16.6 17.05 15.1 L17.35 14.85 Q16.6 16.65 16.6 18.25 16.55 19.45 17.35 20.3 L17.6 20.5 16.7 21.25 16.6 21.25 16.05 20.95 15.9 20.8 15.7 20.65 Q14.75 19.95 14.75 19.55 L14.75 19.25 10.75 18.75 9.1 18.5 Q9.25 17.3 10.0 15.8 11.0 13.7 12.9 11.45 13.05 11.15 13.35 10.8 L13.5 10.65 13.75 10.4 14.5 9.7 13.0 7.8 12.7 7.55 11.8 6.6 11.7 6.55 11.7 6.6 12.25 7.75 12.85 9.55 10.55 12.35 Q8.25 15.6 8.2 17.9 L8.25 18.65 8.15 19.0 Q8.15 20.4 8.85 21.65 L9.3 22.3 10.4 23.5 11.65 24.45 12.05 24.75 12.6 25.05 14.8 26.05 15.4 26.3 17.95 26.9 18.2 26.9 18.4 27.75 15.6 27.1 Q12.5 26.15 9.45 23.45 L6.2 23.05 4.2 22.7 3.15 22.8 Q3.55 24.45 4.6 25.25 L6.1 26.0 Q4.5 25.4 2.65 24.95 L0.45 24.2 Q0.15 23.95 0.0 23.35 M26.9 15.8 L28.2 15.1 29.7 14.6 29.7 14.5 29.75 14.55 31.1 16.65 31.45 17.45 31.5 17.7 32.3 20.6 32.3 20.8 31.3 20.85 Q30.4 20.95 29.55 21.4 28.55 21.55 28.05 22.1 L27.9 22.35 27.8 22.25 27.65 22.35 27.35 22.65 27.1 22.15 26.85 21.5 27.55 20.75 27.7 20.6 27.45 18.75 27.3 18.05 26.9 15.8 M30.65 7.0 Q31.3 3.4 32.25 0.35 L32.6 2.55 30.85 6.55 30.65 7.0 M29.7 35.3 L30.25 36.05 30.1 36.05 Q29.0 35.25 28.15 34.0 L26.4 32.0 24.05 29.85 Q22.8 28.6 21.9 28.4 L19.35 27.95 19.25 27.9 19.5 27.4 19.6 27.25 22.45 27.85 22.9 27.9 23.05 28.05 26.05 31.1 27.85 32.3 27.95 32.35 28.5 33.3 28.85 34.3 28.95 34.45 29.5 35.1 29.7 35.3 M30.2 29.45 L27.7 28.0 28.6 29.25 29.4 30.45 29.8 31.05 Q30.1 31.6 30.0 31.9 L30.0 31.8 Q28.95 31.3 25.95 27.75 23.1 24.3 23.15 23.8 L24.35 22.1 24.5 21.95 24.7 21.95 24.8 22.2 24.9 22.4 24.9 22.45 24.95 22.6 26.2 24.8 26.6 25.3 27.8 27.0 28.65 27.85 30.2 29.45 M29.3 20.6 Q29.7 20.25 30.55 20.25 31.3 20.2 31.3 19.95 31.35 18.75 30.5 17.55 L30.05 16.95 29.35 19.3 29.3 20.6" fill="#e6ac4a" fill-rule="evenodd" stroke="none"/>
      <path d="M42.9 26.55 L42.8 26.95 Q42.75 23.45 41.95 20.3 L41.8 19.5 Q40.65 15.85 38.65 13.5 39.6 13.95 40.55 14.8 L41.1 15.3 42.45 17.15 42.55 20.05 42.9 26.55 M24.0 14.35 L24.45 14.15 Q23.9 15.35 23.55 18.0 L23.45 18.75 Q21.95 18.85 20.75 21.45 L20.25 22.55 19.95 23.45 20.35 21.8 20.55 21.35 Q21.7 17.6 24.0 14.35" fill="#83f8f2" fill-rule="evenodd" stroke="none"/>
      <path d="M43.15 18.65 L43.35 19.75 43.5 20.8 43.55 20.95 43.6 21.8 43.5 23.05 43.45 23.5 43.45 23.8 43.25 24.65 43.15 25.25 42.9 26.55 42.55 20.05 42.45 17.15 42.55 17.25 43.15 18.65 M23.45 18.75 L23.45 18.8 23.4 18.95 23.2 21.65 22.9 21.85 22.8 21.95 21.8 22.85 21.75 22.9 20.5 24.65 20.1 25.5 19.6 26.5 19.3 27.05 Q19.55 25.25 19.95 23.45 L20.25 22.55 20.75 21.45 Q21.95 18.85 23.45 18.75" fill="#58b7f7" fill-rule="evenodd" stroke="none"/>
      <path d="M42.8 26.95 L42.6 25.7 42.5 25.2 42.3 24.3 41.9 23.25 41.2 21.7 41.05 21.55 41.0 21.45 40.5 20.75 40.1 20.3 40.0 20.15 39.85 19.95 39.65 18.15 39.5 17.25 39.15 15.1 38.5 13.45 38.65 13.5 Q40.65 15.85 41.8 19.5 L41.95 20.3 Q42.75 23.45 42.8 26.95 M19.1 21.2 L19.2 20.85 19.55 19.75 Q20.25 17.9 21.6 16.45 22.85 14.95 24.0 14.35 21.7 17.6 20.55 21.35 L20.35 21.8 19.95 23.45 Q19.55 25.25 19.3 27.05 L19.2 27.15 19.1 27.4 18.9 27.8 18.55 25.05 Q18.55 24.2 18.7 23.45 L19.1 21.2" fill="#3f5be2" fill-rule="evenodd" stroke="none"/>
      <path d="M32.25 0.35 L32.35 0.05 33.05 1.65 Q34.15 4.45 35.0 8.25 L35.05 8.6 35.35 10.05 34.35 8.65 34.35 8.8 Q34.1 9.5 34.1 10.25 L33.8 15.25 33.6 17.05 33.25 9.0 33.2 8.2 32.6 2.55 32.25 0.35 M36.15 14.9 L37.35 15.5 37.5 15.6 37.95 15.85 37.45 17.25 Q36.8 18.5 36.15 18.5 35.65 18.5 35.3 17.35 L34.65 15.5 34.65 15.0 34.95 15.65 35.55 16.5 Q36.0 15.9 36.15 14.9" fill="#f5f0e1" fill-rule="evenodd" stroke="none"/>
      <path d="M40.1 20.3 L39.9 20.45 39.55 20.6 39.3 20.7 39.2 21.15 39.05 21.55 39.05 21.65 38.95 21.95 38.7 22.55 38.6 22.85 38.75 22.75 Q39.1 22.4 39.4 22.4 L39.55 22.5 39.5 22.6 38.9 24.75 38.3 26.9 Q37.0 29.55 33.45 32.55 L32.95 36.2 32.7 37.25 32.15 40.3 32.1 40.35 32.05 40.45 31.0 39.8 29.8 38.9 29.05 38.25 28.1 37.2 28.05 37.2 27.7 36.75 26.0 34.9 24.85 33.8 24.0 33.25 21.05 31.8 17.95 30.65 17.3 30.5 16.6 30.2 16.55 30.2 14.05 29.55 12.85 29.25 11.8 28.95 7.1 27.8 5.1 27.2 4.65 27.05 3.75 26.7 3.45 26.6 Q1.25 25.7 0.45 24.7 -0.05 24.1 0.0 23.4 L0.0 23.35 Q0.15 23.95 0.45 24.2 L2.65 24.95 Q4.5 25.4 6.1 26.0 L4.6 25.25 Q3.55 24.45 3.15 22.8 L4.2 22.7 6.2 23.05 9.45 23.45 Q12.5 26.15 15.6 27.1 L18.4 27.75 19.0 29.4 19.35 27.95 21.9 28.4 Q22.8 28.6 24.05 29.85 L26.4 32.0 28.15 34.0 Q29.0 35.25 30.1 36.05 L30.25 36.05 29.7 35.3 29.95 35.5 29.45 34.4 29.3 34.0 28.6 32.15 28.55 32.0 25.95 29.95 Q24.1 28.5 23.2 27.1 L21.35 26.8 20.85 26.2 Q20.85 25.95 24.15 22.0 L24.2 21.9 23.3 21.85 23.15 21.85 23.2 21.65 23.4 18.95 23.6 18.75 24.9 17.4 Q25.9 16.4 26.9 15.8 L27.3 18.05 27.45 18.75 27.7 20.6 27.55 20.75 26.85 21.5 27.1 22.15 27.35 22.65 27.65 22.35 27.8 22.25 27.9 22.35 28.05 22.1 Q28.55 21.55 29.55 21.4 30.4 20.95 31.3 20.85 L32.3 20.8 32.3 20.6 31.5 17.7 31.45 17.45 31.1 16.65 29.75 14.55 29.7 14.5 30.2 10.25 30.2 10.2 30.5 8.15 30.65 7.0 30.85 6.55 32.6 2.55 33.2 8.2 33.25 9.0 33.6 17.05 33.6 20.6 33.75 20.75 33.65 20.8 35.75 21.85 36.7 22.45 37.15 21.65 37.3 21.25 38.25 19.1 38.3 18.4 38.15 15.95 39.5 17.25 39.65 18.15 39.85 19.95 40.0 20.15 40.1 20.3 M27.8 27.0 L26.6 25.3 26.2 24.8 24.95 22.6 24.9 22.45 24.9 22.4 24.8 22.2 24.7 21.95 24.5 21.95 24.35 22.1 23.15 23.8 Q23.1 24.3 25.95 27.75 28.95 31.3 30.0 31.8 L30.0 31.9 Q30.1 31.6 29.8 31.05 L29.4 30.45 28.6 29.25 27.7 28.0 30.2 29.45 30.35 29.6 32.5 31.3 32.75 31.45 Q33.15 31.45 33.8 30.95 L35.1 29.7 Q36.5 28.05 37.3 26.45 L36.45 25.15 36.4 25.1 35.2 23.85 34.2 23.2 Q33.4 22.85 32.65 22.85 31.45 22.8 29.9 24.4 L29.9 24.45 29.05 25.3 27.8 27.0 M16.7 21.25 L18.55 22.3 17.7 22.3 16.05 21.7 15.55 22.1 Q13.95 23.4 13.5 23.4 L11.7 22.95 10.35 22.6 10.0 22.15 Q9.0 20.75 9.0 19.05 L9.1 18.5 10.75 18.75 14.75 19.25 14.75 19.55 Q14.75 19.95 15.7 20.65 L15.9 20.8 16.05 20.95 16.6 21.25 16.7 21.25" fill="#d67703" fill-rule="evenodd" stroke="none"/>
      <path d="M27.8 27.0 L29.05 25.3 29.9 24.45 29.9 24.4 Q31.45 22.8 32.65 22.85 33.4 22.85 34.2 23.2 L35.2 23.85 36.4 25.1 36.45 25.15 37.3 26.45 Q36.5 28.05 35.1 29.7 L33.8 30.95 Q33.15 31.45 32.75 31.45 L32.5 31.3 30.35 29.6 30.2 29.45 28.65 27.85 27.8 27.0 M33.3 24.6 Q32.65 24.25 32.25 24.25 L31.2 24.55 30.05 25.3 30.0 25.45 29.8 25.6 29.6 25.95 30.15 25.85 Q31.3 25.85 31.75 26.65 L31.9 27.55 Q31.9 28.45 31.15 29.05 L31.15 29.1 32.5 30.05 Q33.8 30.05 35.3 26.9 35.35 26.45 35.05 26.05 L35.15 25.7 Q35.15 24.95 34.4 24.6 L34.2 24.5 33.75 24.35 Q33.65 24.35 33.5 24.5 L33.35 24.55 33.3 24.6" fill="#c81f18" fill-rule="evenodd" stroke="none"/>
      <path d="M35.05 26.05 Q35.35 26.45 35.3 26.9 33.8 30.05 32.5 30.05 L31.15 29.1 31.15 29.05 Q31.9 28.45 31.9 27.55 L31.75 26.65 Q31.3 25.85 30.15 25.85 L29.6 25.95 29.8 25.6 30.0 25.45 30.05 25.3 31.2 24.55 32.25 24.25 Q32.65 24.25 33.3 24.6 33.0 24.9 33.0 25.35 33.0 25.75 33.5 26.05 L34.25 26.25 35.05 26.05 M34.2 27.3 L33.9 28.1 33.9 28.5 34.35 28.1 34.65 27.35 34.2 27.3" fill="#fd4962" fill-rule="evenodd" stroke="none"/>
      <path d="M35.05 26.05 L34.25 26.25 33.5 26.05 Q33.0 25.75 33.0 25.35 33.0 24.9 33.3 24.6 L33.35 24.55 33.5 24.5 Q33.65 24.35 33.75 24.35 L34.2 24.5 34.4 24.6 Q35.15 24.95 35.15 25.7 L35.05 26.05 M34.2 27.3 L34.65 27.35 34.35 28.1 33.9 28.5 33.9 28.1 34.2 27.3" fill="#ffd3d5" fill-rule="evenodd" stroke="none"/>
      <path d="M43.55 15.1 L44.0 16.7 Q43.95 17.65 43.4 18.3 L43.15 18.6 43.15 18.65 M43.4 14.85 L43.05 14.25 41.15 12.3 Q39.85 11.2 38.85 10.6 L39.35 8.75 39.45 8.3 41.45 1.3 42.1 0.0 42.2 1.9 Q42.15 4.4 43.75 6.25 44.55 7.15 46.45 8.45 L47.35 9.1 49.35 10.55 50.0 11.15 50.9 12.0 51.2 12.45 Q52.5 14.2 52.45 16.45 L52.05 18.9 Q51.4 20.6 50.05 22.55 L49.95 22.6 49.75 22.95 46.7 26.35 45.6 27.3 44.45 28.35 42.8 29.65 42.3 30.05 41.45 30.65 40.2 31.6 38.4 32.8 37.25 33.6 36.55 34.95 36.0 35.75 35.85 35.9 35.6 36.25 35.25 36.75 34.4 37.75 34.35 37.9 34.15 38.1 34.0 38.25 32.55 39.9 32.15 40.3 32.1 40.35 32.05 40.45 31.0 39.8 29.8 38.9 29.05 38.25 28.1 37.2 28.05 37.2 27.7 36.75 26.0 34.9 24.85 33.8 24.0 33.25 21.05 31.8 17.95 30.65 17.3 30.5 16.6 30.2 16.55 30.2 14.05 29.55 12.85 29.25 11.8 28.95 7.1 27.8 5.1 27.2 4.65 27.05 3.75 26.7 3.45 26.6 Q1.25 25.7 0.45 24.7 -0.05 24.1 0.0 23.4 L0.0 23.35 Q0.1 18.65 5.1 12.1 L5.5 11.6 8.8 7.7 10.15 6.45 9.7 4.45 9.2 2.1 10.65 2.95 12.6 4.15 18.1 7.9 20.65 10.0 20.4 10.25 20.1 10.55 19.35 11.5 Q18.05 13.1 17.35 14.8 L17.35 14.85 Q16.6 16.65 16.6 18.25 16.55 19.45 17.35 20.3 L17.6 20.5 18.1 20.8 18.65 21.05 M23.45 18.75 L23.45 18.8 23.4 18.95 23.6 18.75 24.9 17.4 Q25.9 16.4 26.9 15.8 L28.2 15.1 29.7 14.6 29.7 14.5 30.2 10.25 30.2 10.2 30.5 8.15 30.65 7.0 Q31.3 3.4 32.25 0.35 L32.35 0.05 33.05 1.65 Q34.15 4.45 35.0 8.25 L35.05 8.6 35.35 10.05 35.45 10.45 36.15 14.9 37.35 15.5 37.5 15.6 37.95 15.85 38.15 15.95 39.5 17.25 M43.4 14.85 L43.55 15.1" fill="none" stroke="#662200" stroke-linecap="round" stroke-linejoin="round" stroke-width="1.0"/>
      <path d="M18.65 21.05 L19.1 21.2 19.2 20.85 19.55 19.75 Q20.25 17.9 21.6 16.45 22.85 14.95 24.0 14.35 L24.45 14.15 Q23.9 15.35 23.55 18.0 L23.45 18.75 M39.5 17.25 L39.15 15.1 38.5 13.45 38.65 13.5 Q39.6 13.95 40.55 14.8 L41.1 15.3 42.45 17.15 42.55 17.25 43.15 18.65" fill="none" stroke="#212854" stroke-linecap="round" stroke-linejoin="round" stroke-width="1.0"/>
    </g>
  </defs>
</svg>
