<?xml version="1.0" encoding="UTF-8" standalone="no"?>
<svg xmlns:ffdec="https://www.free-decompiler.com/flash" xmlns:xlink="http://www.w3.org/1999/xlink" ffdec:objectType="frame" height="30.0px" width="30.0px" xmlns="http://www.w3.org/2000/svg">
  <g transform="matrix(1.0, 0.0, 0.0, 1.0, 0.0, 0.0)">
    <use ffdec:characterId="1" height="30.0" transform="matrix(1.0, 0.0, 0.0, 1.0, 0.0, 0.0)" width="30.0" xlink:href="#shape0"/>
    <use ffdec:characterId="3" height="30.0" transform="matrix(1.0, 0.0, 0.0, 1.0, 0.0, 0.0)" width="30.0" xlink:href="#sprite0"/>
  </g>
  <defs>
    <g id="shape0" transform="matrix(1.0, 0.0, 0.0, 1.0, 0.0, 0.0)">
      <path d="M0.0 0.0 L30.0 0.0 30.0 30.0 0.0 30.0 0.0 0.0" fill="#33cc66" fill-opacity="0.0" fill-rule="evenodd" stroke="none"/>
    </g>
    <g id="sprite0" transform="matrix(1.0, 0.0, 0.0, 1.0, 0.0, 0.1)">
      <use ffdec:characterId="2" height="30.0" transform="matrix(1.0, 0.0, 0.0, 1.0, 0.0, -0.1)" width="30.0" xlink:href="#shape1"/>
    </g>
    <g id="shape1" transform="matrix(1.0, 0.0, 0.0, 1.0, 0.0, 0.1)">
      <path d="M3.3 -0.1 L26.7 -0.1 27.95 0.05 Q30.0 0.6 30.0 3.2 L30.0 26.6 29.8 28.05 Q29.15 29.9 26.7 29.9 L3.3 29.9 Q0.85 29.9 0.2 28.05 L0.0 26.6 0.0 3.2 Q0.0 0.6 2.05 0.05 L3.3 -0.1" fill="#33ff66" fill-rule="evenodd" stroke="none"/>
      <path d="M11.35 11.75 L12.15 10.6 13.4 10.3 13.9 10.0 14.4 9.7 14.85 9.75 15.05 9.8 15.2 9.65 15.35 9.5 15.75 9.95 16.1 10.35 16.65 10.05 16.7 10.05 16.95 9.8 16.9 9.45 16.85 9.4 16.65 9.2 16.6 8.65 17.0 8.55 17.4 8.5 17.65 8.55 17.65 8.1 18.1 8.0 18.4 7.85 18.4 7.7 18.3 7.65 18.0 7.45 18.0 7.4 18.3 7.1 18.7 7.05 18.85 7.05 20.05 6.75 21.3 6.4 Q22.55 6.4 23.3 7.3 L23.65 7.75 24.0 8.2 24.15 8.45 24.4 9.0 24.3 9.5 24.2 9.7 24.0 10.35 24.2 11.45 24.5 12.05 24.4 12.6 24.35 13.2 24.5 13.35 24.7 13.4 24.65 13.45 Q24.4 13.65 24.3 14.0 L23.95 14.55 22.85 15.6 23.25 15.75 21.8 16.4 21.5 16.5 21.45 16.5 20.8 17.0 20.75 17.0 21.3 16.5 21.3 16.45 21.65 16.1 21.65 16.05 21.4 16.05 20.9 16.1 20.8 16.05 20.75 15.95 21.1 15.55 21.4 15.3 21.4 15.25 21.15 15.1 20.65 15.05 18.65 15.4 17.6 15.8 Q17.4 15.9 17.15 16.2 L16.85 16.55 16.35 16.85 16.0 17.05 15.75 17.45 15.3 18.25 15.2 18.45 15.05 18.6 13.95 19.3 Q14.05 18.3 14.3 17.85 L14.1 17.6 14.05 17.55 13.65 18.05 13.3 18.25 13.25 17.9 12.7 18.5 12.3 18.85 12.2 18.85 12.1 19.0 11.8 19.7 11.7 20.1 11.65 20.3 11.7 20.35 11.85 20.6 12.0 20.9 11.6 21.45 11.2 22.05 11.3 22.4 11.4 22.85 11.45 23.85 10.85 23.35 10.55 23.0 10.45 23.05 10.25 23.15 10.0 22.8 Q9.85 22.6 9.85 22.05 L9.85 21.85 9.5 22.45 9.35 22.8 9.35 23.3 9.4 23.65 9.05 23.85 8.6 24.15 8.5 24.55 8.45 25.05 8.45 25.1 8.5 25.75 8.3 25.15 8.3 25.05 7.9 23.85 7.7 23.5 7.35 23.15 6.15 21.95 6.25 21.75 6.3 21.45 6.15 20.65 6.0 20.4 5.65 20.2 5.5 20.25 5.35 20.25 5.4 20.1 5.4 19.95 5.4 19.5 5.35 19.3 5.7 19.0 6.0 18.6 6.05 18.6 6.2 18.4 6.4 18.25 6.55 17.75 6.55 17.65 6.05 17.5 5.65 17.4 5.7 17.4 5.95 17.35 6.05 17.3 6.5 17.05 7.55 16.2 8.4 16.2 9.05 16.1 9.2 16.05 10.0 15.5 10.1 15.15 10.15 14.75 10.35 13.5 10.4 13.15 10.65 12.6 11.35 11.75 Z" fill="none" stroke="#ffffff" stroke-linecap="round" stroke-linejoin="round" stroke-width="3.0"/>
      <path d="M10.4 13.15 L10.65 12.6 11.35 11.75 12.15 10.6 13.4 10.3 13.9 10.0 14.4 9.7 14.85 9.75 14.85 9.8 15.05 9.85 Q14.5 9.9 14.1 10.35 L13.8 10.75 13.45 11.0 13.4 11.05 14.3 10.8 14.9 10.5 14.75 11.1 14.8 11.35 14.8 12.05 14.95 12.35 14.2 12.9 13.6 13.5 12.9 13.75 12.55 13.8 Q12.35 13.85 12.15 14.05 L11.85 14.25 11.8 14.25 12.0 13.9 12.15 13.7 12.2 13.65 12.15 13.65 12.15 13.7 12.1 13.7 11.9 13.6 11.8 13.5 11.1 14.05 10.55 14.7 10.55 14.05 10.6 13.6 10.5 13.3 10.4 13.15 M12.85 14.75 L13.1 14.75 13.35 14.65 13.55 14.35 13.95 14.0 14.8 13.65 15.85 13.2 16.05 12.9 16.35 12.5 16.75 11.9 17.0 11.65 17.0 11.85 17.3 11.75 17.35 11.65 17.75 11.65 18.2 11.55 18.4 11.5 18.2 11.95 18.0 12.4 18.1 12.55 17.45 12.75 17.35 13.05 17.5 13.35 Q16.95 13.65 16.35 14.1 L16.15 14.25 16.05 14.3 15.95 14.35 15.85 14.4 15.9 14.4 15.4 14.7 16.35 14.65 17.25 14.5 18.1 14.15 18.6 13.9 19.35 13.95 20.15 14.05 Q19.7 14.15 17.95 15.15 L16.0 16.25 15.85 16.1 15.5 16.0 14.3 16.15 13.85 16.3 13.75 16.3 14.25 15.8 14.35 15.45 Q14.35 15.1 13.3 15.05 13.25 15.05 12.65 15.35 L12.45 15.2 12.15 15.15 12.1 15.15 12.85 14.75 M20.5 10.75 Q20.35 11.0 20.15 11.9 L20.05 11.75 19.95 11.5 19.65 11.45 19.1 11.55 19.85 11.15 20.55 10.55 20.6 10.5 20.65 10.5 20.55 10.65 20.5 10.75 M20.8 14.0 Q21.55 13.65 22.0 13.6 L22.8 13.5 22.45 13.2 21.95 12.8 22.2 12.8 22.55 12.9 22.85 12.85 23.3 13.0 23.7 13.1 23.25 13.5 23.1 13.75 23.25 13.85 23.25 13.9 22.0 14.05 21.8 13.95 21.5 13.9 21.15 14.0 20.65 14.05 20.8 14.0 M11.4 16.6 L11.9 16.7 12.1 16.7 12.35 16.7 13.15 16.55 11.6 17.65 10.4 18.2 10.8 17.65 10.7 17.6 10.55 17.6 9.8 18.2 9.65 18.45 9.65 18.35 9.65 18.2 9.7 18.0 10.05 17.4 10.25 17.05 10.45 16.8 10.6 16.55 10.7 16.3 10.8 16.3 11.1 16.45 11.4 16.6 M9.5 16.7 L9.25 17.05 8.6 17.3 8.45 17.35 8.65 17.2 8.7 17.2 9.2 16.75 9.25 16.7 8.95 16.7 8.85 16.65 8.8 16.6 8.9 16.6 9.4 16.5 9.65 16.4 9.5 16.7 M8.65 18.55 L8.55 18.95 8.6 19.3 8.05 19.95 8.0 20.0 Q7.8 20.35 7.7 21.05 L7.75 21.25 7.95 20.95 7.95 21.35 8.05 21.85 8.0 21.65 7.85 21.45 7.8 21.5 7.8 21.75 8.4 23.0 8.1 22.75 7.7 22.15 7.4 20.9 7.45 20.95 7.45 20.7 7.4 20.7 7.15 20.55 6.9 20.4 6.8 20.35 6.75 20.2 6.6 19.8 6.25 19.6 6.25 19.55 7.3 19.2 7.45 18.8 7.5 18.6 7.85 18.55 8.0 18.55 8.4 18.55 8.65 18.55" fill="#ca956b" fill-rule="evenodd" stroke="none"/>
      <path d="M14.85 9.75 L15.05 9.8 15.2 9.65 15.35 9.5 15.75 9.95 16.1 10.35 16.65 10.05 16.55 10.2 16.55 10.25 17.25 10.05 18.3 9.8 18.4 9.8 17.05 10.9 Q16.75 11.15 16.05 11.4 L16.05 11.3 16.05 11.25 15.75 10.85 15.2 10.4 15.2 10.45 15.25 10.55 15.2 10.95 15.2 11.1 15.25 11.85 15.3 12.25 14.6 13.2 14.4 13.3 14.3 13.4 14.2 13.45 13.1 14.05 12.95 14.25 12.85 14.45 12.15 14.7 12.0 14.75 11.65 14.9 11.45 15.45 11.4 15.7 11.5 15.6 11.6 15.55 11.7 15.55 11.9 15.65 11.95 15.75 11.75 16.1 11.5 16.2 11.15 16.1 11.0 16.0 10.9 16.1 10.65 16.1 10.55 16.25 10.35 16.35 9.95 16.9 9.45 17.55 8.3 17.95 8.15 18.05 7.6 18.25 8.2 18.2 8.3 18.2 8.9 18.25 9.05 19.0 9.15 19.25 9.0 19.65 8.8 20.0 8.7 20.15 8.75 20.1 8.75 20.15 8.7 20.15 8.6 20.35 8.4 20.55 8.3 20.65 8.3 20.8 8.3 20.9 8.45 21.45 8.6 21.95 8.75 22.2 8.65 21.7 8.55 21.1 8.65 20.9 8.75 20.75 9.7 21.15 10.05 21.0 10.45 20.8 10.95 20.4 11.4 20.1 11.65 20.6 11.8 20.8 11.45 21.45 Q11.15 21.9 11.15 22.2 L11.3 23.5 10.8 23.1 10.55 22.75 10.55 22.7 10.45 22.85 10.4 22.95 10.15 22.2 10.05 21.65 Q9.3 22.15 9.3 22.75 L9.3 23.15 9.35 23.45 Q9.05 23.5 8.7 23.85 L8.25 24.35 8.1 23.8 7.25 22.7 6.5 21.65 6.55 21.15 6.45 20.4 Q6.3 20.15 5.95 20.15 L5.4 19.6 5.4 19.55 5.4 19.5 6.2 18.65 Q6.65 18.25 6.8 17.55 L6.15 17.35 5.95 17.35 6.05 17.3 6.5 17.05 7.55 16.2 8.4 16.2 9.05 16.1 9.2 16.05 10.0 15.5 10.1 15.15 10.15 14.75 10.35 13.5 10.4 13.15 10.5 13.3 10.6 13.6 10.55 14.05 10.55 14.7 11.1 14.05 11.8 13.5 11.9 13.6 12.1 13.7 12.15 13.7 12.15 13.65 12.2 13.65 12.15 13.7 12.0 13.9 11.8 14.25 11.85 14.25 12.15 14.05 Q12.35 13.85 12.55 13.8 L12.9 13.75 13.6 13.5 14.2 12.9 14.95 12.35 14.8 12.05 14.8 11.35 14.75 11.1 14.9 10.5 14.3 10.8 13.4 11.05 13.45 11.0 13.8 10.75 14.1 10.35 Q14.5 9.9 15.05 9.85 L14.85 9.8 14.85 9.75 M21.5 16.5 L21.45 16.5 20.8 17.0 20.75 17.0 21.3 16.5 21.55 16.4 21.7 16.2 21.8 16.0 21.7 15.95 21.3 15.95 21.05 16.0 20.9 16.0 21.35 15.55 21.6 15.2 Q21.6 14.95 21.2 14.95 L20.35 14.9 18.4 15.3 17.25 15.8 16.5 16.6 15.8 16.95 15.0 18.35 14.2 19.05 14.15 19.05 14.15 18.9 14.3 18.25 14.4 17.7 14.25 17.55 14.05 17.35 13.85 17.7 13.55 18.0 13.45 17.85 13.35 17.6 12.65 18.35 11.9 18.75 11.6 18.9 11.1 19.1 10.7 19.4 Q10.4 19.6 10.25 19.7 L9.95 20.0 9.65 20.1 9.35 20.15 9.15 20.1 9.05 20.1 9.1 20.0 9.15 19.9 9.25 19.75 9.5 19.5 9.65 19.1 9.65 18.45 9.8 18.2 10.55 17.6 10.7 17.6 10.8 17.65 10.4 18.2 11.6 17.65 13.15 16.55 12.35 16.7 12.1 16.7 11.9 16.7 11.4 16.6 11.45 16.6 11.7 16.5 11.85 16.4 12.05 16.2 12.15 16.1 12.2 16.0 12.2 15.95 12.3 15.7 12.2 15.5 11.95 15.35 11.8 15.4 11.85 15.25 12.0 14.95 12.1 14.95 12.55 14.8 12.85 14.75 12.1 15.15 12.15 15.15 12.45 15.2 12.65 15.35 Q13.25 15.05 13.3 15.05 14.35 15.1 14.35 15.45 L14.25 15.8 13.75 16.3 13.85 16.3 14.3 16.15 15.5 16.0 15.85 16.1 16.0 16.25 17.95 15.15 Q19.7 14.15 20.15 14.05 L19.35 13.95 18.6 13.9 18.1 14.15 17.25 14.5 16.35 14.65 15.4 14.7 15.9 14.4 16.5 14.25 17.15 14.2 17.8 13.8 18.3 13.55 19.4 13.65 19.7 13.55 20.2 13.4 20.9 13.3 21.45 13.3 21.45 13.15 21.4 13.0 22.1 13.25 22.1 13.2 21.5 12.85 21.0 12.75 20.55 12.8 20.05 12.9 19.7 12.85 19.15 12.65 19.25 12.6 19.65 12.45 19.65 12.4 18.3 12.65 18.05 12.65 17.6 12.95 17.65 13.0 17.7 13.05 17.75 13.1 17.75 13.15 16.65 13.95 16.15 14.25 16.35 14.1 Q16.95 13.65 17.5 13.35 L17.35 13.05 17.45 12.75 18.1 12.55 18.0 12.4 18.2 11.95 18.4 11.5 18.2 11.55 17.75 11.65 17.35 11.65 17.3 11.75 17.0 11.85 17.0 11.65 17.15 11.45 17.3 11.4 17.7 11.35 18.9 11.1 18.9 11.15 18.8 11.45 21.1 9.2 21.5 9.55 21.6 9.6 21.7 10.0 22.0 10.7 21.4 10.8 21.0 11.3 20.9 11.85 20.7 12.05 20.85 12.1 21.2 12.05 21.7 11.9 22.55 11.75 23.3 11.8 23.05 11.25 23.05 10.85 22.85 10.6 22.75 10.4 22.7 10.15 23.45 10.75 23.85 11.05 23.9 11.05 24.2 11.85 24.3 12.05 24.35 12.1 24.25 12.25 24.05 12.7 24.0 13.1 24.1 13.3 24.3 13.4 23.85 14.45 23.55 14.75 23.25 14.95 22.95 15.35 22.75 15.6 22.9 15.75 22.0 16.2 21.55 16.4 21.5 16.5 M20.8 14.0 L20.65 14.05 21.15 14.0 21.5 13.9 21.8 13.95 22.0 14.05 23.25 13.9 23.25 13.85 23.1 13.75 23.25 13.5 23.7 13.1 23.3 13.0 22.85 12.85 22.55 12.9 22.2 12.8 21.95 12.8 22.45 13.2 22.8 13.5 22.0 13.6 Q21.55 13.65 20.8 14.0 M20.5 10.75 L20.55 10.65 20.65 10.5 20.6 10.5 20.55 10.55 19.85 11.15 19.1 11.55 19.65 11.45 19.95 11.5 20.05 11.75 20.15 11.9 Q20.35 11.0 20.5 10.75 M23.3 11.8 L23.35 11.85 23.35 11.8 23.3 11.8 M8.65 18.55 L8.4 18.55 8.0 18.55 7.85 18.55 7.5 18.6 7.45 18.8 7.3 19.2 6.25 19.55 6.25 19.6 6.6 19.8 6.75 20.2 6.8 20.35 6.9 20.4 7.15 20.55 7.4 20.7 7.45 20.7 7.45 20.95 7.4 20.9 7.7 22.15 8.1 22.75 8.4 23.0 7.8 21.75 7.8 21.5 7.85 21.45 8.0 21.65 8.05 21.85 7.95 21.35 7.95 20.95 7.75 21.25 7.7 21.05 Q7.8 20.35 8.0 20.0 L8.05 19.95 8.6 19.3 8.55 18.95 8.65 18.55 M9.5 16.7 L9.65 16.4 9.4 16.5 8.9 16.6 8.8 16.6 8.85 16.65 8.95 16.7 9.25 16.7 9.2 16.75 8.7 17.2 8.65 17.2 8.45 17.35 8.6 17.3 9.25 17.05 9.5 16.7" fill="#925d31" fill-rule="evenodd" stroke="none"/>
      <path d="M16.65 10.05 L16.7 10.05 16.95 9.8 16.9 9.45 16.85 9.4 16.65 9.2 16.6 8.65 17.0 8.55 17.4 8.5 17.65 8.55 17.65 8.1 18.1 8.0 18.4 7.85 18.4 7.7 18.3 7.65 18.0 7.45 18.0 7.4 18.3 7.1 18.8 7.4 19.9 7.7 20.3 7.85 20.25 7.9 20.05 8.05 19.9 8.25 20.15 8.3 20.35 8.35 20.45 8.3 20.5 8.3 20.15 9.1 19.85 9.9 20.65 9.0 21.7 8.0 21.8 8.15 22.0 8.45 21.7 8.9 22.1 9.6 22.45 10.45 22.5 10.25 22.35 8.55 22.75 9.2 23.15 9.5 24.3 9.5 24.2 9.7 24.0 10.35 24.2 11.45 24.5 12.05 24.4 12.6 24.35 13.2 24.5 13.35 24.7 13.4 24.65 13.45 Q24.4 13.65 24.3 14.0 L23.95 14.55 22.85 15.6 23.25 15.75 21.8 16.4 21.5 16.5 21.55 16.4 22.0 16.2 22.9 15.75 22.75 15.6 22.95 15.35 23.25 14.95 23.55 14.75 23.85 14.45 24.3 13.4 24.1 13.3 24.0 13.1 24.05 12.7 24.25 12.25 24.35 12.1 24.3 12.05 24.2 11.85 23.9 11.05 23.85 11.05 23.45 10.75 22.7 10.15 22.75 10.4 22.85 10.6 23.05 10.85 23.05 11.25 23.3 11.8 22.55 11.75 21.7 11.9 21.2 12.05 20.85 12.1 20.7 12.05 20.9 11.85 21.0 11.3 21.4 10.8 22.0 10.7 21.7 10.0 21.6 9.6 21.5 9.55 21.1 9.2 18.8 11.45 18.9 11.15 18.9 11.1 17.7 11.35 17.3 11.4 17.15 11.45 Q17.25 11.35 17.3 11.35 L17.35 11.3 17.25 11.3 17.05 11.45 16.9 11.55 16.65 11.75 16.1 12.5 15.65 13.1 14.1 13.8 13.5 14.15 13.45 14.15 13.25 14.45 13.25 14.55 13.05 14.55 12.2 14.75 11.9 14.85 11.7 15.25 11.6 15.55 11.7 15.5 11.85 15.5 12.0 15.5 12.2 15.7 12.0 16.05 Q11.75 16.4 11.5 16.4 L11.1 16.3 11.1 16.25 10.9 16.1 11.0 16.0 11.15 16.1 11.5 16.2 11.75 16.1 11.95 15.75 11.9 15.65 11.7 15.55 11.6 15.55 11.5 15.6 11.4 15.7 11.45 15.45 11.65 14.9 12.0 14.75 12.15 14.7 12.85 14.45 12.95 14.25 13.1 14.05 14.2 13.45 14.3 13.4 14.4 13.3 14.6 13.2 15.3 12.25 15.25 11.85 15.2 11.1 15.2 10.95 15.25 10.55 15.2 10.45 15.2 10.4 15.75 10.85 16.05 11.25 16.05 11.3 16.05 11.4 Q16.75 11.15 17.05 10.9 L18.4 9.8 18.3 9.8 17.25 10.05 16.55 10.25 16.55 10.2 16.65 10.05 M21.3 16.5 L21.3 16.45 21.65 16.1 21.65 16.05 21.4 16.05 20.9 16.1 20.8 16.05 20.75 15.95 21.1 15.55 21.4 15.3 21.4 15.25 21.15 15.1 20.65 15.05 18.65 15.4 17.6 15.8 Q17.4 15.9 17.15 16.2 L16.85 16.55 16.35 16.85 16.0 17.05 15.75 17.45 15.3 18.25 15.2 18.45 15.05 18.6 13.95 19.3 Q14.05 18.3 14.3 17.85 L14.1 17.6 14.05 17.55 13.65 18.05 13.3 18.25 13.25 17.9 12.7 18.5 12.3 18.85 12.2 18.85 11.55 19.05 Q11.3 19.2 10.8 19.5 L10.25 19.9 9.65 20.2 9.4 20.15 9.35 20.15 9.65 20.1 9.95 20.0 10.25 19.7 Q10.4 19.6 10.7 19.4 L11.1 19.1 11.6 18.9 11.9 18.75 12.65 18.35 13.35 17.6 13.45 17.85 13.55 18.0 13.85 17.7 14.05 17.35 14.25 17.55 14.4 17.7 14.3 18.25 14.15 18.9 14.15 19.05 14.2 19.05 15.0 18.35 15.8 16.95 16.5 16.6 17.25 15.8 18.4 15.3 20.35 14.9 21.2 14.95 Q21.6 14.95 21.6 15.2 L21.35 15.55 20.9 16.0 21.05 16.0 21.3 15.95 21.7 15.95 21.8 16.0 21.7 16.2 21.55 16.4 21.3 16.5 M12.1 19.0 L11.8 19.7 11.7 20.1 11.65 20.3 11.7 20.35 11.85 20.6 12.0 20.9 11.6 21.45 11.2 22.05 11.3 22.4 11.4 22.85 11.45 23.85 10.85 23.35 10.55 23.0 10.45 23.05 10.25 23.15 10.0 22.8 Q9.85 22.6 9.85 22.05 L9.85 21.85 9.5 22.45 9.35 22.8 9.35 23.3 9.4 23.65 9.05 23.85 8.6 24.15 8.5 24.55 8.45 25.05 8.45 25.1 8.5 25.75 8.3 25.15 8.3 25.05 7.9 23.85 7.7 23.5 7.35 23.15 6.15 21.95 6.25 21.75 6.3 21.45 6.15 20.65 6.0 20.4 5.65 20.2 5.5 20.25 5.35 20.25 5.4 20.1 5.4 19.95 5.4 19.6 5.95 20.15 Q6.3 20.15 6.45 20.4 L6.55 21.15 6.5 21.65 7.25 22.7 8.1 23.8 8.25 24.35 8.7 23.85 Q9.05 23.5 9.35 23.45 L9.3 23.15 9.3 22.75 Q9.3 22.15 10.05 21.65 L10.15 22.2 10.4 22.95 10.45 22.85 10.55 22.7 10.55 22.75 10.8 23.1 11.3 23.5 11.15 22.2 Q11.15 21.9 11.45 21.45 L11.8 20.8 11.65 20.6 11.4 20.1 10.95 20.4 10.45 20.8 10.05 21.0 9.7 21.15 8.75 20.75 8.65 20.9 8.55 21.1 8.65 21.7 8.75 22.2 8.6 21.95 8.45 21.45 8.3 20.9 8.3 20.8 8.3 20.65 8.4 20.55 8.6 20.35 8.7 20.15 8.75 20.15 8.7 20.3 8.75 20.3 8.9 20.25 8.95 20.25 9.15 20.2 9.35 20.3 9.65 20.4 9.85 20.3 9.95 20.3 9.95 20.25 10.05 20.2 Q10.15 20.1 10.2 20.1 L10.85 19.6 Q11.6 19.15 12.1 19.0 M5.4 19.5 L5.35 19.3 5.7 19.0 6.0 18.6 6.05 18.6 6.2 18.4 6.4 18.25 6.55 17.75 6.55 17.65 6.05 17.5 5.65 17.4 5.7 17.4 5.95 17.35 6.15 17.35 6.8 17.55 Q6.65 18.25 6.2 18.65 L5.4 19.5 M10.55 16.25 L10.5 16.35 10.15 16.9 9.8 17.45 9.45 18.25 9.45 18.65 9.45 18.75 9.3 19.5 8.75 20.1 8.7 20.15 8.8 20.0 9.0 19.65 9.15 19.25 9.05 19.0 8.9 18.25 8.3 18.2 8.2 18.2 7.6 18.25 8.15 18.05 8.3 17.95 9.45 17.55 9.95 16.9 10.35 16.35 10.55 16.25 M15.9 14.4 L15.85 14.4 15.95 14.35 16.05 14.3 16.15 14.25 16.65 13.95 17.75 13.15 17.75 13.1 17.7 13.05 17.65 13.0 17.6 12.95 18.05 12.65 18.3 12.65 19.65 12.4 19.65 12.45 19.25 12.6 19.15 12.65 19.7 12.85 20.05 12.9 20.55 12.8 21.0 12.75 21.5 12.85 22.1 13.2 22.1 13.25 21.4 13.0 21.45 13.15 21.45 13.3 20.9 13.3 20.2 13.4 19.7 13.55 19.4 13.65 18.3 13.55 17.8 13.8 17.15 14.2 16.5 14.25 15.9 14.4" fill="#663f20" fill-rule="evenodd" stroke="none"/>
      <path d="M12.2 18.85 L12.1 19.0 Q11.6 19.15 10.85 19.6 L10.2 20.1 Q10.15 20.1 10.05 20.2 L9.95 20.25 9.95 20.3 9.85 20.3 9.65 20.4 9.35 20.3 9.15 20.2 8.95 20.25 8.9 20.25 8.75 20.3 8.7 20.3 8.75 20.15 8.75 20.1 9.3 19.5 9.45 18.75 9.45 18.65 9.45 18.25 9.8 17.45 10.15 16.9 10.5 16.35 10.55 16.25 10.65 16.1 10.9 16.1 11.1 16.25 11.1 16.3 11.5 16.4 Q11.75 16.4 12.0 16.05 L12.2 15.7 12.0 15.5 11.85 15.5 11.7 15.5 11.6 15.55 11.7 15.25 11.9 14.85 12.2 14.75 13.05 14.55 13.25 14.55 13.25 14.45 13.45 14.15 13.5 14.15 14.1 13.8 15.65 13.1 16.1 12.5 16.65 11.75 16.9 11.55 17.05 11.45 17.25 11.3 17.35 11.3 17.3 11.35 Q17.25 11.35 17.15 11.45 L17.0 11.65 16.75 11.9 16.35 12.5 16.05 12.9 15.85 13.2 14.8 13.65 13.95 14.0 13.55 14.35 13.35 14.65 13.1 14.75 12.85 14.75 12.55 14.8 12.1 14.95 12.0 14.95 11.85 15.25 11.8 15.4 11.95 15.35 12.2 15.5 12.3 15.7 12.2 15.95 12.2 16.0 12.15 16.1 12.05 16.2 11.85 16.4 11.7 16.5 11.45 16.6 11.4 16.6 11.1 16.45 10.8 16.3 10.7 16.3 10.6 16.55 10.45 16.8 10.25 17.05 10.05 17.4 9.7 18.0 9.65 18.2 9.65 18.35 9.65 18.45 9.65 19.1 9.5 19.5 9.25 19.75 9.15 19.9 9.1 20.0 9.05 20.1 9.15 20.1 9.35 20.15 9.4 20.15 9.65 20.2 10.25 19.9 10.8 19.5 Q11.3 19.2 11.55 19.05 L12.2 18.85" fill="#462105" fill-rule="evenodd" stroke="none"/>
      <path d="M18.3 7.1 L18.7 7.05 18.85 7.05 20.05 6.75 21.3 6.4 Q22.55 6.4 23.3 7.3 L23.65 7.75 24.0 8.2 24.15 8.45 24.4 9.0 24.3 9.5 23.15 9.5 22.75 9.2 22.35 8.55 22.5 10.25 22.45 10.45 22.1 9.6 21.7 8.9 22.0 8.45 21.8 8.15 21.7 8.0 20.65 9.0 19.85 9.9 20.15 9.1 20.5 8.3 20.45 8.3 20.35 8.35 20.15 8.3 19.9 8.25 20.05 8.05 20.25 7.9 20.3 7.85 19.9 7.7 18.8 7.4 18.3 7.1" fill="#462004" fill-rule="evenodd" stroke="none"/>
      <path d="M10.4 13.15 L10.65 12.6 11.35 11.75 12.15 10.6 13.4 10.3 13.9 10.0 14.4 9.7 14.85 9.75 15.05 9.8 15.2 9.65 15.35 9.5 15.75 9.95 16.1 10.35 16.65 10.05 16.7 10.05 16.95 9.8 16.9 9.45 16.85 9.4 16.65 9.2 16.6 8.65 17.0 8.55 17.4 8.5 17.65 8.55 17.65 8.1 18.1 8.0 18.4 7.85 18.4 7.7 18.3 7.65 18.0 7.45 18.0 7.4 18.3 7.1 18.7 7.05 18.85 7.05 20.05 6.75 21.3 6.4 Q22.55 6.4 23.3 7.3 L23.65 7.75 24.0 8.2 24.15 8.45 24.4 9.0 24.3 9.5 24.2 9.7 24.0 10.35 24.2 11.45 24.5 12.05 24.4 12.6 24.35 13.2 24.5 13.35 24.7 13.4 24.65 13.45 Q24.4 13.65 24.3 14.0 L23.95 14.55 22.85 15.6 23.25 15.75 21.8 16.4 21.5 16.5 21.45 16.5 20.8 17.0 20.75 17.0 21.3 16.5 21.3 16.45 21.65 16.1 21.65 16.05 21.4 16.05 20.9 16.1 20.8 16.05 20.75 15.95 21.1 15.55 21.4 15.3 21.4 15.25 21.15 15.1 20.65 15.05 18.65 15.4 17.6 15.8 Q17.4 15.9 17.15 16.2 L16.85 16.55 16.35 16.85 16.0 17.05 15.75 17.45 15.3 18.25 15.2 18.45 15.05 18.6 13.95 19.3 Q14.05 18.3 14.3 17.85 L14.1 17.6 14.05 17.55 13.65 18.05 13.3 18.25 13.25 17.9 12.7 18.5 12.3 18.85 12.2 18.85 12.1 19.0 11.8 19.7 11.7 20.1 11.65 20.3 11.7 20.35 11.85 20.6 12.0 20.9 11.6 21.45 11.2 22.05 11.3 22.4 11.4 22.85 11.45 23.85 10.85 23.35 10.55 23.0 10.45 23.05 10.25 23.15 10.0 22.8 Q9.85 22.6 9.85 22.05 L9.85 21.85 9.5 22.45 9.35 22.8 9.35 23.3 9.4 23.65 9.05 23.85 8.6 24.15 8.5 24.55 8.45 25.05 8.45 25.1 8.5 25.75 8.3 25.15 8.3 25.05 7.9 23.85 7.7 23.5 7.35 23.15 6.15 21.95 6.25 21.75 6.3 21.45 6.15 20.65 6.0 20.4 5.65 20.2 5.5 20.25 5.35 20.25 5.4 20.1 5.4 19.95 5.4 19.6 M5.4 19.55 L5.4 19.5 5.35 19.3 5.7 19.0 6.0 18.6 6.05 18.6 6.2 18.4 6.4 18.25 6.55 17.75 6.55 17.65 6.05 17.5 5.65 17.4 5.7 17.4 5.95 17.35 6.05 17.3 6.5 17.05 7.55 16.2 8.4 16.2 9.05 16.1 9.2 16.05 10.0 15.5 10.1 15.15 10.15 14.75 10.35 13.5 10.4 13.15" fill="none" stroke="#321601" stroke-linecap="round" stroke-linejoin="round" stroke-width="0.5"/>
    </g>
  </defs>
</svg>
