<?xml version="1.0" encoding="UTF-8" standalone="no"?>
<svg xmlns:ffdec="https://www.free-decompiler.com/flash" xmlns:xlink="http://www.w3.org/1999/xlink" ffdec:objectType="frame" height="30.1px" width="30.0px" xmlns="http://www.w3.org/2000/svg">
  <g transform="matrix(1.0, 0.0, 0.0, 1.0, 0.0, 0.0)">
    <use ffdec:characterId="1" height="30.0" transform="matrix(1.0, 0.0, 0.0, 1.0, 0.0, 0.0)" width="30.0" xlink:href="#shape0"/>
    <use ffdec:characterId="5" height="30.0" transform="matrix(1.0, 0.0, 0.0, 1.0, 0.0, 0.1)" width="30.0" xlink:href="#sprite0"/>
  </g>
  <defs>
    <g id="shape0" transform="matrix(1.0, 0.0, 0.0, 1.0, 0.0, 0.0)">
      <path d="M0.0 0.0 L30.0 0.0 30.0 30.0 0.0 30.0 0.0 0.0" fill="#33cc66" fill-opacity="0.0" fill-rule="evenodd" stroke="none"/>
    </g>
    <g id="sprite0" transform="matrix(1.0, 0.0, 0.0, 1.0, 0.0, 0.0)">
      <use ffdec:characterId="2" height="30.0" transform="matrix(1.0, 0.0, 0.0, 1.0, 0.0, 0.0)" width="30.0" xlink:href="#shape1"/>
      <use ffdec:characterId="4" height="227.6" transform="matrix(0.1054, 0.0, 0.0, 0.1054, 5.2419, 3.3919)" width="192.55" xlink:href="#sprite1"/>
    </g>
    <g id="shape1" transform="matrix(1.0, 0.0, 0.0, 1.0, 0.0, 0.0)">
      <path d="M3.3 30.0 Q0.0 30.0 0.0 26.7 L0.0 3.3 Q0.0 0.0 3.3 0.0 L26.7 0.0 Q30.0 0.0 30.0 3.3 L30.0 26.7 Q30.0 30.0 26.7 30.0 L3.3 30.0" fill="#6699cc" fill-rule="evenodd" stroke="none"/>
      <path d="M16.15 3.55 L16.2 3.6 Q18.0 5.1 19.5 7.2 L20.55 8.65 20.5 8.85 20.3 9.65 20.25 10.5 20.4 10.8 21.75 12.6 Q22.7 13.55 23.75 14.1 24.2 14.35 25.4 14.8 L25.4 15.25 25.35 15.6 25.15 16.4 24.9 16.35 Q23.75 16.2 22.85 16.9 21.95 17.6 21.8 18.85 L21.75 19.25 Q21.7 19.9 21.95 20.35 L22.0 20.4 22.2 20.7 22.1 20.75 21.9 20.85 20.75 21.4 20.15 20.95 19.95 20.8 19.85 20.75 19.05 20.45 Q18.35 20.6 17.45 21.05 L16.0 21.95 15.4 22.45 15.25 22.8 15.05 23.4 14.75 24.65 14.7 25.0 14.6 26.15 14.65 26.9 14.65 27.0 14.65 27.05 14.7 27.25 14.3 27.0 14.2 26.9 11.35 24.35 Q10.35 23.25 9.7 21.6 L9.5 21.05 Q9.1 19.95 8.85 18.4 L5.65 19.55 5.45 19.65 Q5.85 18.65 6.2 18.0 7.4 15.6 10.0 13.1 L9.3 13.0 8.4 12.9 9.35 12.15 10.6 11.3 10.7 11.3 10.85 11.3 11.6 11.45 11.7 11.5 12.2 11.25 13.3 10.5 14.3 9.75 14.3 9.8 14.35 9.65 14.4 9.65 14.4 9.6 14.3 9.1 14.2 8.7 14.1 8.15 15.15 6.7 Q15.95 5.4 16.15 3.95 L16.15 3.55 Z" fill="none" stroke="#ffffff" stroke-linecap="round" stroke-linejoin="round" stroke-width="3.0"/>
    </g>
    <g id="sprite1" transform="matrix(1.0, 0.0, 0.0, 1.0, 1.5, 1.5)">
      <use ffdec:characterId="3" height="227.6" transform="matrix(1.0, 0.0, 0.0, 1.0, -1.5, -1.5)" width="192.55" xlink:href="#shape2"/>
    </g>
    <g id="shape2" transform="matrix(1.0, 0.0, 0.0, 1.0, 1.5, 1.5)">
      <path d="M102.15 0.35 Q119.05 14.45 133.65 34.4 138.95 41.65 143.25 48.35 L142.75 50.1 Q141.5 54.75 141.05 57.7 140.55 61.45 140.65 65.9 L141.9 68.75 Q146.7 77.5 154.8 85.75 163.65 94.8 173.6 99.9 177.85 102.1 189.55 106.55 L189.5 110.65 189.1 114.1 Q188.8 116.4 186.85 121.75 L184.9 121.35 Q173.95 119.85 165.4 126.6 156.7 133.3 155.1 144.95 L154.8 148.6 Q154.5 154.9 156.7 159.2 L157.05 159.75 Q157.9 161.4 159.15 162.55 158.75 162.7 158.3 162.95 156.55 161.8 155.5 160.65 152.2 157.05 148.55 150.85 L147.4 148.75 145.85 145.85 146.0 144.75 Q147.45 134.45 153.7 124.75 158.8 116.9 163.95 115.0 L164.1 113.9 Q164.45 111.35 164.2 106.45 L164.15 105.4 163.9 102.8 158.55 102.25 154.7 101.6 150.0 100.65 147.7 100.0 Q140.05 97.8 133.7 94.25 129.1 91.6 124.75 88.0 122.85 74.15 116.2 62.4 112.7 56.3 108.55 51.9 101.8 44.8 93.15 42.0 95.5 38.8 97.55 34.3 100.7 27.3 101.7 20.1 103.25 9.25 102.15 0.35 M91.25 188.0 L88.25 200.05 87.9 203.4 Q87.0 209.9 87.0 214.05 L87.5 221.45 87.45 222.25 87.5 222.75 87.75 224.6 84.3 222.1 Q76.7 210.9 66.65 194.2 60.85 184.6 55.95 175.85 49.65 164.6 44.5 154.75 L46.7 145.95 51.4 128.85 41.2 127.9 34.25 127.45 44.75 111.55 Q52.8 100.0 58.75 92.6 L58.45 85.25 49.15 84.4 49.8 73.4 51.3 73.5 58.5 75.0 54.95 80.55 61.65 80.75 61.85 80.8 66.9 81.8 67.75 85.25 66.4 86.8 Q62.8 91.25 56.05 100.35 50.8 107.3 41.4 121.5 L39.0 125.2 45.65 123.35 48.75 122.65 53.4 121.65 54.95 121.3 57.8 133.45 62.55 153.05 63.35 156.35 64.35 160.35 Q68.1 174.85 72.35 187.3 L72.85 188.85 72.95 189.05 76.55 198.8 77.15 197.0 78.35 192.65 80.1 187.25 Q81.9 182.1 83.8 177.95 92.2 159.55 107.4 147.0 119.45 145.75 129.65 147.2 L135.55 148.2 136.8 150.8 Q138.25 154.1 138.95 157.0 L135.65 156.2 125.7 154.0 118.95 153.45 Q117.15 154.25 103.3 164.9 L93.6 172.5 92.3 179.55 91.25 188.0 M104.35 78.95 Q104.3 89.1 108.6 96.75 113.8 106.15 122.85 108.05 L124.45 108.3 126.95 108.6 Q134.95 109.2 141.05 105.9 L143.25 106.75 141.3 108.05 Q134.5 112.35 127.55 113.25 L123.25 113.45 119.95 113.2 Q108.5 111.6 102.1 100.35 97.1 91.75 97.05 80.3 L100.15 79.4 104.35 78.95" fill="#e3f4fe" fill-rule="evenodd" stroke="none"/>
      <path d="M158.3 162.95 Q157.4 163.4 156.35 163.95 L156.05 164.1 145.5 169.1 139.6 164.75 Q138.55 164.1 137.5 163.55 L136.7 163.05 Q133.25 161.15 129.1 159.95 122.5 161.75 114.1 165.8 105.85 169.85 100.05 174.4 97.05 176.7 94.7 179.25 L93.0 182.65 Q92.25 184.45 91.25 188.0 L92.3 179.55 93.6 172.5 103.3 164.9 Q117.15 154.25 118.95 153.45 L125.7 154.0 135.65 156.2 138.95 157.0 Q138.25 154.1 136.8 150.8 L135.55 148.2 136.4 148.35 138.2 148.8 Q138.8 148.95 139.3 149.25 L139.85 149.0 143.6 147.15 143.4 146.4 Q142.95 143.45 143.35 139.85 L143.55 137.85 Q145.25 125.55 153.2 118.45 L155.55 116.55 Q158.1 114.6 160.35 113.9 L160.85 111.8 Q161.25 109.05 160.7 106.9 L152.4 105.2 150.65 104.75 146.85 103.8 143.25 106.75 141.05 105.9 143.25 104.4 143.7 104.1 144.75 103.2 Q138.2 101.2 135.15 99.4 128.1 95.1 120.95 88.0 L118.95 85.95 117.95 81.5 Q116.6 76.6 114.05 70.5 112.15 66.05 108.95 62.4 L108.0 61.35 106.75 64.7 Q105.05 69.65 104.85 70.95 104.3 75.1 104.35 78.95 L100.15 79.4 97.05 80.3 Q96.95 75.85 97.65 70.95 98.8 62.65 103.05 57.15 101.75 56.1 100.3 55.3 94.3 51.75 88.6 50.8 L87.25 53.4 85.1 57.2 83.9 52.6 83.05 48.55 82.3 43.55 Q89.6 34.25 92.3 29.75 99.7 17.4 101.6 3.8 L101.7 0.0 102.15 0.35 Q103.25 9.25 101.7 20.1 100.7 27.3 97.55 34.3 95.5 38.8 93.15 42.0 101.8 44.8 108.55 51.9 112.7 56.3 116.2 62.4 122.85 74.15 124.75 88.0 129.1 91.6 133.7 94.25 140.05 97.8 147.7 100.0 L150.0 100.65 154.7 101.6 158.55 102.25 163.9 102.8 164.15 105.4 164.2 106.45 Q164.45 111.35 164.1 113.9 L163.95 115.0 Q158.8 116.9 153.7 124.75 147.45 134.45 146.0 144.75 L145.85 145.85 147.4 148.75 148.55 150.85 Q152.2 157.05 155.5 160.65 156.55 161.8 158.3 162.95 M84.3 222.1 L83.15 221.25 Q67.6 209.75 56.1 197.2 46.65 186.75 40.4 170.9 L38.5 165.8 Q35.0 155.6 32.2 140.5 L2.2 151.7 0.0 152.6 Q4.2 143.25 7.5 136.75 18.8 114.35 43.2 90.6 L36.6 89.7 28.05 88.6 37.3 81.6 49.25 73.3 49.8 73.4 49.15 84.4 58.45 85.25 58.75 92.6 Q52.8 100.0 44.75 111.55 L34.25 127.45 41.2 127.9 51.4 128.85 46.7 145.95 44.5 154.75 Q49.65 164.6 55.95 175.85 60.85 184.6 66.65 194.2 76.7 210.9 84.3 222.1" fill="#95b6c9" fill-rule="evenodd" stroke="none"/>
      <path d="M58.5 75.0 L59.35 75.25 64.05 72.8 Q69.4 69.8 74.6 65.9 79.55 62.35 83.9 58.5 L84.25 58.95 84.8 57.9 84.95 57.5 85.15 57.35 85.1 57.2 87.25 53.4 88.6 50.8 Q94.3 51.75 100.3 55.3 101.75 56.1 103.05 57.15 98.8 62.65 97.65 70.95 96.95 75.85 97.05 80.3 97.1 91.75 102.1 100.35 108.5 111.6 119.95 113.2 L123.25 113.45 127.55 113.25 Q134.5 112.35 141.3 108.05 L143.25 106.75 146.85 103.8 150.65 104.75 152.4 105.2 160.7 106.9 Q161.25 109.05 160.85 111.8 L160.35 113.9 Q158.1 114.6 155.55 116.55 L153.2 118.45 Q145.25 125.55 143.55 137.85 L143.35 139.85 Q142.95 143.45 143.4 146.4 L143.6 147.15 139.85 149.0 139.3 149.25 Q138.8 148.95 138.2 148.8 L136.4 148.35 135.55 148.2 129.65 147.2 Q119.45 145.75 107.4 147.0 92.2 159.55 83.8 177.95 81.9 182.1 80.1 187.25 L78.35 192.65 77.15 197.0 76.55 198.8 72.95 189.05 72.85 188.85 72.35 187.3 Q68.1 174.85 64.35 160.35 L63.35 156.35 62.55 153.05 57.8 133.45 54.95 121.3 53.4 121.65 48.75 122.65 45.65 123.35 39.0 125.2 41.4 121.5 Q50.8 107.3 56.05 100.35 62.8 91.25 66.4 86.8 L67.75 85.25 66.9 81.8 61.85 80.8 61.65 80.75 54.95 80.55 58.5 75.0 M104.35 78.95 Q104.3 75.1 104.85 70.95 105.05 69.65 106.75 64.7 L108.0 61.35 108.95 62.4 Q112.15 66.05 114.05 70.5 116.6 76.6 117.95 81.5 L118.95 85.95 120.95 88.0 Q128.1 95.1 135.15 99.4 138.2 101.2 144.75 103.2 L143.7 104.1 143.25 104.4 141.05 105.9 Q134.95 109.2 126.95 108.6 L124.45 108.3 122.85 108.05 Q113.8 106.15 108.6 96.75 104.3 89.1 104.35 78.95 M91.0 82.45 L85.1 84.95 Q82.65 86.2 80.7 87.45 74.7 93.65 69.7 99.9 68.45 103.9 67.35 109.1 65.0 119.1 63.4 130.7 63.0 133.55 62.75 136.65 68.2 158.6 76.75 179.45 82.3 170.3 89.1 161.7 97.15 151.55 106.35 143.2 110.35 143.15 114.15 143.35 L133.25 145.0 134.15 145.1 139.7 145.8 Q139.6 142.45 140.1 138.7 141.75 126.9 146.45 120.45 149.55 116.2 154.95 113.35 L153.75 109.15 152.65 109.0 Q146.2 112.25 142.15 113.7 134.65 116.45 128.1 116.75 L122.5 116.45 Q106.75 114.3 100.2 101.5 96.75 95.0 95.65 86.55 95.2 83.15 95.2 80.9 L91.0 82.45 M106.55 79.0 L106.75 81.85 Q107.5 88.3 110.75 94.25 115.35 102.4 126.4 105.25 L131.0 106.1 Q135.2 106.7 140.0 105.45 L137.45 104.4 Q127.7 100.3 120.4 94.65 115.9 91.25 111.5 86.4 111.2 83.05 110.55 79.95 109.6 79.35 107.95 79.1 L106.55 79.0" fill="#b41223" fill-rule="evenodd" stroke="none"/>
      <path d="M91.0 82.45 L95.2 80.9 Q95.2 83.15 95.65 86.55 96.75 95.0 100.2 101.5 106.75 114.3 122.5 116.45 L128.1 116.75 Q134.65 116.45 142.15 113.7 146.2 112.25 152.65 109.0 L153.75 109.15 154.95 113.35 Q149.55 116.2 146.45 120.45 141.75 126.9 140.1 138.7 139.6 142.45 139.7 145.8 L134.15 145.1 133.25 145.0 114.15 143.35 Q110.35 143.15 106.35 143.2 97.15 151.55 89.1 161.7 82.3 170.3 76.75 179.45 68.2 158.6 62.75 136.65 63.0 133.55 63.4 130.7 65.0 119.1 67.35 109.1 68.45 103.9 69.7 99.9 74.7 93.65 80.7 87.45 82.65 86.2 85.1 84.95 L91.0 82.45 M106.55 79.0 L107.95 79.1 Q109.6 79.35 110.55 79.95 111.2 83.05 111.5 86.4 115.9 91.25 120.4 94.65 127.7 100.3 137.45 104.4 L140.0 105.45 Q135.2 106.7 131.0 106.1 L126.4 105.25 Q115.35 102.4 110.75 94.25 107.5 88.3 106.75 81.85 L106.55 79.0" fill="#e92d2e" fill-rule="evenodd" stroke="none"/>
      <path d="M102.15 0.35 Q119.05 14.45 133.65 34.4 138.95 41.65 143.25 48.35 L142.75 50.1 Q141.5 54.75 141.05 57.7 140.55 61.45 140.65 65.9 L141.9 68.75 Q146.7 77.5 154.8 85.75 163.65 94.8 173.6 99.9 177.85 102.1 189.55 106.55 L189.5 110.65 189.1 114.1 Q188.8 116.4 186.85 121.75 L184.9 121.35 Q173.95 119.85 165.4 126.6 156.7 133.3 155.1 144.95 L154.8 148.6 Q154.5 154.9 156.7 159.2 L157.05 159.75 Q157.9 161.4 159.15 162.55 158.75 162.7 158.3 162.95 157.4 163.4 156.35 163.95 L156.05 164.1 145.5 169.1 139.6 164.75 Q138.55 164.1 137.5 163.55 L136.7 163.05 Q133.25 161.15 129.1 159.95 122.5 161.75 114.1 165.8 105.85 169.85 100.05 174.4 97.05 176.7 94.7 179.25 L93.0 182.65 Q92.25 184.45 91.25 188.0 L88.25 200.05 87.9 203.4 Q87.0 209.9 87.0 214.05 L87.5 221.45 87.45 222.25 87.5 222.75 87.75 224.6 84.3 222.1 83.15 221.25 Q67.6 209.75 56.1 197.2 46.65 186.75 40.4 170.9 L38.5 165.8 Q35.0 155.6 32.2 140.5 L2.2 151.7 0.0 152.6 Q4.2 143.25 7.5 136.75 18.8 114.35 43.2 90.6 L36.6 89.7 28.05 88.6 37.3 81.6 49.25 73.3 49.8 73.4 51.3 73.5 58.5 75.0 59.35 75.25 64.05 72.8 Q69.4 69.8 74.6 65.9 79.55 62.35 83.9 58.5 M85.15 57.35 L85.1 57.2 83.9 52.6 83.05 48.55 82.3 43.55 Q89.6 34.25 92.3 29.75 99.7 17.4 101.6 3.8 L101.7 0.0 102.15 0.35" fill="none" stroke="#660000" stroke-linecap="round" stroke-linejoin="round" stroke-width="3.0"/>
      <path d="M83.9 58.5 L84.5 57.95 84.95 57.5 85.15 57.35" fill="none" stroke="#8a1528" stroke-linecap="round" stroke-linejoin="round" stroke-width="1.0"/>
    </g>
  </defs>
</svg>
