<?xml version="1.0" encoding="UTF-8" standalone="no"?>
<svg xmlns:ffdec="https://www.free-decompiler.com/flash" xmlns:xlink="http://www.w3.org/1999/xlink" ffdec:objectType="frame" height="30.0px" width="30.0px" xmlns="http://www.w3.org/2000/svg">
  <g transform="matrix(1.0, 0.0, 0.0, 1.0, 0.0, 0.0)">
    <use ffdec:characterId="1" height="30.0" transform="matrix(1.0, 0.0, 0.0, 1.0, 0.0, 0.0)" width="30.0" xlink:href="#shape0"/>
    <use ffdec:characterId="3" height="30.0" transform="matrix(1.0, 0.0, 0.0, 1.0, 0.0, 0.0)" width="30.0" xlink:href="#sprite0"/>
  </g>
  <defs>
    <g id="shape0" transform="matrix(1.0, 0.0, 0.0, 1.0, 0.0, 0.0)">
      <path d="M0.0 0.0 L30.0 0.0 30.0 30.0 0.0 30.0 0.0 0.0" fill="#33cc66" fill-opacity="0.0" fill-rule="evenodd" stroke="none"/>
    </g>
    <g id="sprite0" transform="matrix(1.0, 0.0, 0.0, 1.0, 0.0, 0.1)">
      <use ffdec:characterId="2" height="30.0" transform="matrix(1.0, 0.0, 0.0, 1.0, 0.0, -0.1)" width="30.0" xlink:href="#shape1"/>
    </g>
    <g id="shape1" transform="matrix(1.0, 0.0, 0.0, 1.0, 0.0, 0.1)">
      <path d="M3.3 -0.1 L26.7 -0.1 Q30.0 -0.1 30.0 3.2 L30.0 26.6 Q30.0 29.9 26.7 29.9 L3.3 29.9 Q0.0 29.9 0.0 26.6 L0.0 3.2 Q0.0 -0.1 3.3 -0.1" fill="#cc3300" fill-rule="evenodd" stroke="none"/>
      <path d="M21.1 9.35 L21.05 9.85 21.0 9.95 20.6 11.25 20.55 11.35 19.75 10.3 Q17.85 7.85 16.1 6.45 L13.35 4.5 11.45 3.45 11.2 3.3 11.4 4.15 12.05 9.25 12.0 9.25 11.3 9.1 11.35 9.2 11.75 10.55 10.55 10.1 Q9.35 9.6 8.85 9.1 L8.85 9.15 8.8 9.55 8.6 12.05 8.65 13.1 8.55 13.05 8.45 13.05 8.3 13.0 5.9 12.9 5.85 12.9 5.95 13.0 6.25 13.4 7.35 14.75 8.85 16.8 8.75 16.8 8.25 16.9 7.5 17.05 5.2 16.0 Q5.55 17.1 6.3 18.2 L6.65 18.8 6.75 18.95 6.15 18.9 5.35 18.95 6.4 20.65 6.9 21.3 8.2 22.7 9.0 23.3 8.4 23.55 8.2 23.65 6.55 24.1 Q7.8 25.05 8.6 25.4 L9.7 25.75 10.0 25.8 10.15 25.85 10.6 25.85 11.35 25.8 12.45 26.05 13.9 26.2 13.4 24.8 13.3 24.55 13.6 24.4 14.95 24.2 15.05 24.2 15.95 24.2 17.75 26.05 19.5 27.0 19.7 27.1 19.7 27.05 19.75 27.0 19.75 26.95 19.75 26.85 19.8 26.9 19.8 26.95 19.9 26.95 19.9 26.9 20.85 25.9 22.1 23.95 22.3 23.9 22.95 23.95 22.8 24.85 24.4 23.55 25.25 22.4 25.6 21.65 24.85 22.0 24.95 21.6 25.5 19.7 25.8 18.0 25.75 18.0 25.6 18.0 25.5 18.0 25.45 18.0 25.0 18.05 25.25 17.5 25.45 16.7 25.5 16.4 25.65 15.4 25.7 14.0 25.6 12.0 25.55 11.7 25.45 11.85 25.45 11.9 25.35 12.15 25.35 12.2 25.15 12.55 24.85 12.95 24.1 13.8 23.8 14.15 23.2 14.6 23.1 13.95 22.75 12.65 22.05 10.9 21.45 9.7 21.15 9.2 21.1 9.35 Z" fill="none" stroke="#ffffff" stroke-linecap="round" stroke-linejoin="round" stroke-width="3.0"/>
      <path d="M16.05 8.35 L15.95 8.2 15.8 8.0 16.95 9.2 18.35 10.9 19.45 12.55 20.0 13.75 20.75 15.4 20.55 15.35 19.5 15.2 19.3 15.2 19.05 15.2 19.2 16.25 19.25 16.55 19.65 16.8 20.8 17.55 21.55 18.2 21.85 17.8 21.9 17.65 22.1 17.3 22.1 19.0 21.9 21.0 21.9 21.05 21.55 22.6 19.9 23.35 19.7 23.45 19.75 24.45 19.8 25.55 19.8 25.65 19.75 25.65 19.6 25.65 19.55 25.65 19.5 25.7 19.45 25.7 19.3 25.65 19.35 25.6 19.2 25.6 18.6 24.35 17.8 22.9 18.9 22.2 19.2 22.05 20.15 21.55 20.4 21.4 20.5 20.3 20.55 20.1 20.55 19.7 20.55 19.25 18.4 17.9 17.85 17.55 17.65 15.05 18.25 14.55 18.45 14.35 18.85 14.0 18.2 12.2 17.75 11.15 16.05 8.35 M18.6 14.7 L18.3 15.0 18.3 16.1 18.4 17.2 20.05 18.35 21.15 19.05 20.95 21.0 20.85 21.7 18.6 22.95 18.75 23.35 19.45 25.3 19.15 23.2 20.75 22.35 21.25 22.05 Q21.85 19.75 21.85 18.15 L21.5 18.7 20.05 17.75 18.85 16.95 18.75 15.15 18.7 15.05 Q18.8 14.95 18.95 14.95 L19.45 14.85 20.05 14.95 20.15 15.0 19.3 13.1 17.55 10.3 18.95 13.0 19.3 14.2 18.6 14.7" fill="#faf871" fill-rule="evenodd" stroke="none"/>
      <path d="M16.95 9.2 L15.8 8.0 15.95 8.2 16.05 8.35 15.8 8.15 15.5 7.8 15.5 7.85 16.75 11.2 17.6 13.8 16.8 14.7 17.0 17.3 17.05 18.9 Q17.6 19.1 18.35 19.45 L19.45 20.05 19.5 20.3 19.55 20.65 18.45 21.45 16.55 22.75 16.5 22.8 17.2 24.05 18.05 25.05 17.65 24.8 16.85 24.15 Q15.8 22.85 14.85 21.15 L14.7 21.05 13.7 20.7 12.75 20.35 12.55 20.35 12.45 20.3 11.7 20.0 11.0 19.7 11.9 19.95 12.85 20.2 14.4 20.4 14.25 20.05 14.6 19.15 Q13.1 17.25 10.1 15.3 L7.7 13.85 Q10.15 14.75 12.35 16.0 14.55 17.25 16.25 18.75 L15.65 14.25 15.05 11.7 16.1 12.95 16.25 13.25 16.0 12.55 14.9 9.15 Q13.5 5.85 11.45 3.45 L13.35 4.5 Q16.05 6.3 18.4 9.4 21.2 13.0 21.7 15.7 L21.75 15.35 21.95 12.85 21.8 11.1 21.75 10.9 Q22.7 12.65 23.0 14.4 L23.15 15.3 23.15 15.35 23.15 15.65 23.15 15.8 23.1 15.95 23.1 16.15 23.1 16.3 23.1 16.35 23.05 16.5 23.1 16.55 23.1 16.6 23.05 16.6 23.05 16.65 23.05 16.7 23.0 17.25 23.25 16.45 24.5 14.6 25.4 12.45 25.5 13.8 Q25.6 16.6 24.1 19.25 L24.85 18.8 25.4 18.4 25.05 19.6 24.85 20.0 24.2 20.85 23.25 21.6 22.75 22.55 22.55 22.95 22.55 22.9 22.65 22.05 22.75 21.75 22.65 21.95 21.8 23.35 21.5 23.75 20.25 25.15 19.85 25.5 19.85 24.5 19.9 23.5 21.3 22.9 21.75 22.65 22.05 21.35 22.25 18.95 22.2 17.0 21.55 17.9 20.95 17.45 19.4 16.35 19.35 15.8 19.3 15.4 20.05 15.4 21.05 15.55 19.6 12.5 Q18.85 11.1 16.95 9.2 M25.45 11.9 L25.45 11.85 25.55 11.7 25.5 11.85 25.4 12.45 25.35 12.3 25.45 11.9" fill="#fdf904" fill-rule="evenodd" stroke="none"/>
      <path d="M16.05 8.35 L17.75 11.15 18.2 12.2 18.85 14.0 18.45 14.35 18.25 14.55 17.65 15.05 17.85 17.55 18.4 17.9 20.55 19.25 20.55 19.7 20.55 20.1 20.5 20.3 20.4 21.4 20.15 21.55 19.2 22.05 18.9 22.2 17.8 22.9 18.6 24.35 19.2 25.6 19.45 26.1 19.6 26.4 19.65 26.55 18.75 25.25 18.55 24.95 18.5 24.9 17.2 22.75 18.4 22.0 20.15 20.9 20.15 19.95 20.15 19.8 19.25 19.1 Q18.3 18.4 17.4 17.95 L17.25 16.55 17.15 14.95 17.3 14.8 17.75 14.4 18.3 13.9 18.05 13.25 17.2 11.35 15.5 7.85 15.5 7.8 15.8 8.15 16.05 8.35 M23.1 16.55 L23.05 16.5 23.1 16.35 23.1 16.3 23.1 16.15 23.1 15.95 23.15 15.8 23.15 15.65 23.15 15.35 23.15 15.3 23.1 13.95 23.2 14.6 23.8 14.15 24.1 13.8 24.85 12.95 25.15 12.55 25.35 12.2 25.35 12.15 25.45 11.9 25.35 12.3 25.15 12.95 24.65 14.05 23.4 15.9 23.25 16.05 23.2 16.1 23.15 16.3 23.1 16.45 23.1 16.55 M20.6 11.25 L21.0 9.95 21.05 9.85 21.1 9.35 21.2 9.8 21.25 10.0 21.65 12.75 21.65 13.05 21.6 14.1 21.35 13.2 20.85 11.8 20.6 11.25 M25.45 16.7 L25.25 17.5 25.0 18.05 25.45 18.0 25.5 18.0 25.6 18.0 25.75 18.0 25.55 18.05 25.5 18.1 25.45 18.15 25.3 18.2 24.65 18.6 25.05 17.75 25.1 17.55 25.45 16.7" fill="#e88118" fill-rule="evenodd" stroke="none"/>
      <path d="M19.8 25.65 L19.8 25.55 19.85 25.55 19.85 25.5 20.25 25.15 21.5 23.75 21.8 23.35 22.65 21.95 22.75 21.75 22.65 22.05 22.55 22.9 22.55 22.95 22.75 22.55 23.25 21.6 24.2 20.85 24.85 20.0 25.05 19.6 25.4 18.4 24.85 18.8 24.1 19.25 Q25.6 16.6 25.5 13.8 L25.4 12.45 24.5 14.6 23.25 16.45 23.0 17.25 23.05 16.7 23.05 16.65 23.05 16.6 23.1 16.6 23.1 16.55 23.1 16.45 23.15 16.3 23.2 16.1 23.25 16.05 23.4 15.9 24.65 14.05 25.15 12.95 25.35 12.3 25.4 12.45 25.5 11.85 25.55 11.7 25.6 12.0 25.7 14.0 25.65 15.4 25.5 16.4 25.45 16.7 25.1 17.55 25.05 17.75 24.65 18.6 25.3 18.2 25.45 18.15 25.5 18.1 25.55 18.05 25.75 18.0 25.8 18.0 25.5 19.7 24.95 21.6 24.85 22.0 25.6 21.65 25.25 22.4 24.4 23.55 23.45 24.05 23.55 23.55 23.65 23.4 22.45 23.45 22.15 23.5 21.4 24.75 20.2 26.3 19.8 26.75 19.8 26.1 19.8 25.95 19.8 25.65 M23.15 15.3 L23.0 14.4 Q22.7 12.65 21.75 10.9 L21.8 11.1 21.95 12.85 21.75 15.35 21.7 15.7 Q21.2 13.0 18.4 9.4 16.05 6.3 13.35 4.5 L16.1 6.45 Q17.85 7.85 19.75 10.3 L20.55 11.35 20.6 11.25 20.85 11.8 21.35 13.2 21.6 14.1 21.65 13.05 21.65 12.75 21.25 10.0 21.2 9.8 21.1 9.35 21.15 9.2 21.45 9.7 22.05 10.9 22.75 12.65 23.1 13.95 23.15 15.3 M11.45 3.45 Q13.5 5.85 14.9 9.15 L16.0 12.55 16.25 13.25 16.1 12.95 15.05 11.7 15.65 14.25 16.25 18.75 Q14.55 17.25 12.35 16.0 10.15 14.75 7.7 13.85 L10.1 15.3 Q13.1 17.25 14.6 19.15 L14.25 20.05 14.4 20.4 12.85 20.2 11.9 19.95 11.0 19.7 11.7 20.0 12.45 20.3 12.55 20.35 12.75 20.35 13.7 20.7 14.7 21.05 14.85 21.15 Q15.8 22.85 16.85 24.15 L17.65 24.8 18.05 25.05 17.2 24.05 16.5 22.8 16.55 22.75 18.45 21.45 19.55 20.65 19.5 20.3 19.45 20.05 18.35 19.45 Q17.6 19.1 17.05 18.9 L17.0 17.3 16.8 14.7 17.6 13.8 16.75 11.2 15.5 7.85 17.2 11.35 18.05 13.25 18.3 13.9 17.75 14.4 17.3 14.8 17.15 14.95 17.25 16.55 17.4 17.95 Q18.3 18.4 19.25 19.1 L20.15 19.8 20.15 19.95 20.15 20.9 18.4 22.0 17.2 22.75 18.5 24.9 18.55 24.95 18.75 25.25 19.65 26.55 19.75 26.8 19.75 26.85 19.75 26.95 19.75 27.0 19.7 27.05 19.7 27.1 19.5 27.0 19.7 26.85 18.65 26.35 Q17.7 25.7 16.4 24.0 L15.85 23.9 14.5 23.85 14.15 23.65 13.55 22.7 12.7 22.05 11.55 21.25 11.4 22.25 11.3 23.15 10.45 22.3 Q9.45 21.2 8.85 19.95 L10.9 20.3 11.05 20.35 9.45 17.3 Q7.9 14.7 5.9 12.9 L8.3 13.0 8.45 13.05 Q9.55 13.4 10.95 14.15 L12.05 14.85 13.85 16.25 Q13.4 15.4 13.1 14.2 L13.05 14.15 13.05 14.1 12.9 13.65 12.15 9.9 12.1 9.85 11.35 9.2 11.3 9.1 12.0 9.25 12.05 9.25 11.4 4.15 11.2 3.3 11.45 3.45 M19.9 26.9 L19.9 26.95 19.8 26.95 19.8 26.9 19.9 26.9" fill="#ffcb19" fill-rule="evenodd" stroke="none"/>
      <path d="M24.4 23.55 L22.8 24.85 22.95 23.95 22.3 23.9 22.1 23.95 20.85 25.9 19.9 26.9 19.8 26.9 19.75 26.85 19.75 26.8 19.8 26.75 20.2 26.3 21.4 24.75 22.15 23.5 22.45 23.45 23.65 23.4 23.55 23.55 23.45 24.05 24.4 23.55 M19.5 27.0 L17.75 26.05 15.95 24.2 15.05 24.2 14.95 24.2 13.6 24.4 13.3 24.55 13.4 24.8 13.9 26.2 12.45 26.05 11.35 25.8 10.6 25.85 10.15 25.85 10.0 25.8 9.7 25.75 8.6 25.4 Q7.8 25.05 6.55 24.1 L6.95 24.0 10.05 23.6 9.85 23.55 Q9.2 23.35 8.4 22.8 L8.2 22.7 6.9 21.3 6.4 20.65 5.35 18.95 6.15 18.9 6.75 18.95 6.65 18.8 7.9 18.9 9.05 19.1 10.0 19.4 10.05 19.4 10.05 19.35 9.5 17.95 9.25 17.45 8.75 16.8 8.85 16.8 7.35 14.75 6.25 13.4 5.95 13.0 5.85 12.9 5.9 12.9 Q7.9 14.7 9.45 17.3 L11.05 20.35 10.9 20.3 8.85 19.95 Q9.45 21.2 10.45 22.3 L11.3 23.15 11.4 22.25 11.55 21.25 12.7 22.05 13.55 22.7 14.15 23.65 14.5 23.85 15.85 23.9 16.4 24.0 Q17.7 25.7 18.65 26.35 L19.7 26.85 19.5 27.0 M8.85 9.15 L8.85 9.1 Q9.35 9.6 10.55 10.1 L11.75 10.55 11.35 9.2 12.1 9.85 12.15 9.9 12.9 13.65 13.05 14.1 13.05 14.15 12.5 13.1 11.9 12.2 11.35 11.55 9.7 9.95 8.85 9.15" fill="#e39010" fill-rule="evenodd" stroke="none"/>
      <path d="M6.95 24.0 L8.2 23.65 8.4 23.55 9.0 23.3 8.2 22.7 8.4 22.8 Q9.2 23.35 9.85 23.55 L10.05 23.6 6.95 24.0 M6.65 18.8 L6.3 18.2 Q5.55 17.1 5.2 16.0 L7.5 17.05 8.25 16.9 8.75 16.8 9.25 17.45 9.5 17.95 10.05 19.35 10.05 19.4 10.0 19.4 9.05 19.1 7.9 18.9 6.65 18.8 M8.45 13.05 L8.55 13.05 8.65 13.1 8.6 12.05 8.8 9.55 8.85 9.15 9.7 9.95 11.35 11.55 11.9 12.2 12.5 13.1 13.05 14.15 13.1 14.2 Q13.4 15.4 13.85 16.25 L12.05 14.85 10.95 14.15 Q9.55 13.4 8.45 13.05" fill="#cd620f" fill-rule="evenodd" stroke="none"/>
      <path d="M19.8 25.55 L19.75 24.45 19.7 23.45 19.9 23.35 21.55 22.6 21.9 21.05 21.9 21.0 22.1 19.0 22.1 17.3 21.9 17.65 21.85 17.8 21.55 18.2 20.8 17.55 19.65 16.8 19.25 16.55 19.2 16.25 19.05 15.2 19.3 15.2 19.5 15.2 20.55 15.35 20.75 15.4 20.0 13.75 19.45 12.55 18.35 10.9 16.95 9.2 Q18.85 11.1 19.6 12.5 L21.05 15.55 20.05 15.4 19.3 15.4 19.35 15.8 19.4 16.35 20.95 17.45 21.55 17.9 22.2 17.0 22.25 18.95 22.05 21.35 21.75 22.65 21.3 22.9 19.9 23.5 19.85 24.5 19.85 25.5 19.85 25.55 19.8 25.55" fill="#f5ae24" fill-rule="evenodd" stroke="none"/>
      <path d="M18.6 14.7 L19.3 14.2 18.95 13.0 17.55 10.3 19.3 13.1 20.15 15.0 20.05 14.95 19.45 14.85 18.95 14.95 Q18.8 14.95 18.7 15.05 L18.75 15.15 18.85 16.95 20.05 17.75 21.5 18.7 21.85 18.15 Q21.85 19.75 21.25 22.05 L20.75 22.35 19.15 23.2 19.45 25.3 18.75 23.35 18.6 22.95 20.85 21.7 20.95 21.0 21.15 19.05 20.05 18.35 18.4 17.2 18.3 16.1 18.3 15.0 18.6 14.7" fill="#fffde2" fill-rule="evenodd" stroke="none"/>
      <path d="M19.2 25.6 L19.35 25.6 19.3 25.65 19.45 25.7 19.5 25.7 19.55 25.65 19.6 25.65 19.75 25.65 19.8 25.65 19.8 25.95 19.8 26.1 19.8 26.75 19.75 26.8 19.65 26.55 19.6 26.4 19.45 26.1 19.2 25.6" fill="#fff642" fill-rule="evenodd" stroke="none"/>
      <path d="M13.35 4.5 L11.45 3.45 11.2 3.3 11.4 4.15 12.05 9.25 12.0 9.25 11.3 9.1 11.35 9.2 11.75 10.55 10.55 10.1 Q9.35 9.6 8.85 9.1 L8.85 9.15 8.8 9.55 8.6 12.05 8.65 13.1 8.55 13.05 8.45 13.05 8.3 13.0 5.9 12.9 5.85 12.9 5.95 13.0 6.25 13.4 7.35 14.75 8.85 16.8 8.75 16.8 8.25 16.9 7.5 17.05 5.2 16.0 Q5.55 17.1 6.3 18.2 L6.65 18.8 6.75 18.95 6.15 18.9 5.35 18.95 6.4 20.65 6.9 21.3 8.2 22.7 9.0 23.3 8.4 23.55 8.2 23.65 6.95 24.0 6.55 24.1 Q7.8 25.05 8.6 25.4 L9.7 25.75 10.0 25.8 10.15 25.85 10.6 25.85 11.35 25.8 M20.6 11.25 L21.0 9.95 21.05 9.85 21.1 9.35 21.15 9.2 21.45 9.7 22.05 10.9 22.75 12.65 23.1 13.95 23.2 14.6 23.8 14.15 24.1 13.8 24.85 12.95 25.15 12.55 25.35 12.2 M25.35 12.15 L25.45 11.9 25.45 11.85 25.55 11.7 25.6 12.0 25.7 14.0 25.65 15.4 25.5 16.4 25.45 16.7 25.25 17.5 25.0 18.05 25.45 18.0 25.5 18.0 25.6 18.0 25.75 18.0 25.8 18.0 25.5 19.7 24.95 21.6 24.85 22.0 25.6 21.65 25.25 22.4 24.4 23.55 M19.8 26.95 L19.8 27.0 19.75 27.05 19.7 27.05 19.7 27.1 M20.6 11.25 L20.55 11.35 19.75 10.3 Q17.85 7.85 16.1 6.45 L13.35 4.5" fill="none" stroke="#912f00" stroke-linecap="round" stroke-linejoin="round" stroke-width="0.5"/>
      <path d="M24.4 23.55 L22.8 24.85 22.95 23.95 22.3 23.9 22.1 23.95 20.85 25.9 19.9 26.9 19.9 26.95 19.8 26.95 M19.7 27.1 L19.5 27.0 17.75 26.05 15.95 24.2 15.05 24.2 14.95 24.2 13.6 24.4 13.3 24.55 13.4 24.8 13.9 26.2 12.45 26.05 11.35 25.8" fill="none" stroke="#b84a05" stroke-linecap="round" stroke-linejoin="round" stroke-width="0.5"/>
    </g>
  </defs>
</svg>
