<?xml version="1.0" encoding="UTF-8" standalone="no"?>
<svg xmlns:ffdec="https://www.free-decompiler.com/flash" xmlns:xlink="http://www.w3.org/1999/xlink" ffdec:objectType="frame" height="30.0px" width="30.0px" xmlns="http://www.w3.org/2000/svg">
  <g transform="matrix(1.0, 0.0, 0.0, 1.0, 0.0, 0.0)">
    <use ffdec:characterId="1" height="30.0" transform="matrix(1.0, 0.0, 0.0, 1.0, 0.0, 0.0)" width="30.0" xlink:href="#shape0"/>
    <use ffdec:characterId="5" height="30.0" transform="matrix(1.0, 0.0, 0.0, 1.0, 0.0, 0.0)" width="30.0" xlink:href="#sprite0"/>
  </g>
  <defs>
    <g id="shape0" transform="matrix(1.0, 0.0, 0.0, 1.0, 0.0, 0.0)">
      <path d="M0.0 0.0 L30.0 0.0 30.0 30.0 0.0 30.0 0.0 0.0" fill="#33cc66" fill-opacity="0.0" fill-rule="evenodd" stroke="none"/>
    </g>
    <g id="sprite0" transform="matrix(1.0, 0.0, 0.0, 1.0, 0.0, 0.1)">
      <use ffdec:characterId="2" height="30.0" transform="matrix(1.0, 0.0, 0.0, 1.0, 0.0, -0.1)" width="30.0" xlink:href="#shape1"/>
      <use ffdec:characterId="4" height="56.5" transform="matrix(0.3792, 0.0, 0.0, 0.3792, 5.7104, 4.9673)" width="51.05" xlink:href="#sprite1"/>
    </g>
    <g id="shape1" transform="matrix(1.0, 0.0, 0.0, 1.0, 0.0, 0.1)">
      <path d="M3.3 -0.1 L26.7 -0.1 Q30.0 -0.1 30.0 3.2 L30.0 26.6 Q30.0 29.9 26.7 29.9 L3.3 29.9 Q0.0 29.9 0.0 26.6 L0.0 3.2 Q0.0 -0.1 3.3 -0.1 M18.3 17.0 L18.3 17.05 18.45 16.8 18.55 16.65 18.35 16.85 18.3 17.0 M18.7 16.55 L18.65 16.65 18.75 16.65 18.75 16.6 18.7 16.55 M13.35 17.7 L13.3 17.7 13.25 17.75 13.1 17.8 13.4 17.8 13.35 17.7" fill="#2f93d9" fill-rule="evenodd" stroke="none"/>
      <path d="M15.95 7.0 L16.05 6.5 Q15.95 5.85 15.2 5.45 L15.0 5.35 14.1 5.1 12.75 5.1 11.5 5.4 11.5 5.45 11.3 5.45 10.95 5.65 10.95 5.7 10.9 5.7 Q10.7 5.75 10.6 5.9 L9.95 6.55 9.8 6.95 9.8 7.2 9.95 7.5 10.3 7.95 10.45 8.1 11.2 8.4 11.25 8.4 12.25 8.55 12.95 8.55 13.15 8.5 14.05 8.4 14.25 8.3 14.35 8.25 14.5 8.2 15.3 7.8 15.45 7.65 15.7 7.45 15.85 7.45 16.0 7.45 16.1 7.45 16.6 7.5 17.25 7.55 Q18.35 7.75 19.3 8.2 L19.5 8.25 20.75 8.9 21.45 9.45 22.15 10.1 22.4 10.4 22.45 10.4 Q24.95 13.05 24.95 16.75 24.95 18.7 24.25 20.3 L23.45 21.8 23.3 22.05 22.65 22.8 22.25 23.3 22.15 23.35 21.4 24.05 19.0 25.5 16.55 26.0 15.45 26.1 Q13.25 26.1 11.5 25.25 10.0 24.6 8.75 23.35 5.95 20.6 5.95 16.75 5.95 14.3 7.05 12.35 7.7 11.1 8.75 10.1 L9.5 9.4 9.8 9.2 10.25 8.9 Q10.4 8.8 10.7 8.6 L11.05 8.45 11.05 8.4 11.2 8.4" fill="none" stroke="#ffffff" stroke-linecap="round" stroke-linejoin="round" stroke-width="3.0"/>
    </g>
    <g id="sprite1" transform="matrix(1.0, 0.0, 0.0, 1.0, 0.5, 0.35)">
      <use ffdec:characterId="3" height="56.5" transform="matrix(1.0, 0.0, 0.0, 1.0, -0.5, -0.35)" width="51.05" xlink:href="#shape2"/>
    </g>
    <g id="shape2" transform="matrix(1.0, 0.0, 0.0, 1.0, 0.5, 0.35)">
      <path d="M38.95 10.4 L40.85 11.8 42.7 13.5 43.35 14.2 43.5 14.25 Q50.05 21.25 50.05 30.95 50.05 36.15 48.25 40.45 46.1 38.85 43.35 37.8 L40.85 37.1 Q37.2 36.7 33.55 37.75 L32.15 38.15 30.55 38.8 29.3 39.3 23.8 40.25 Q20.15 40.35 16.85 38.7 L16.5 38.6 Q15.1 36.85 14.0 34.8 L13.8 34.4 13.65 34.2 Q13.1 32.15 13.1 29.85 L13.1 29.45 13.2 27.0 Q13.3 24.75 13.65 22.5 14.2 19.3 15.3 16.2 L16.45 14.55 16.65 14.35 16.8 14.05 17.05 13.7 17.65 13.0 19.35 13.15 20.85 13.3 21.25 13.35 21.7 13.4 22.15 13.55 22.45 13.65 Q22.05 14.9 22.05 16.35 22.05 19.1 23.45 21.1 L22.25 24.55 22.05 25.7 22.1 26.7 Q22.8 27.9 24.5 27.75 25.05 27.7 25.45 27.25 L25.8 27.0 Q26.2 25.3 26.9 23.9 L30.05 24.4 33.45 23.85 33.75 25.0 34.1 26.35 34.6 28.85 35.4 29.2 35.65 29.3 35.65 29.55 37.6 29.65 38.75 28.85 38.65 28.05 38.2 23.95 37.75 22.15 39.5 21.1 39.8 19.7 40.7 20.25 42.6 21.4 45.6 24.55 Q46.1 24.75 46.5 24.2 L46.0 22.1 45.3 21.2 43.35 19.0 39.8 15.95 Q39.35 12.7 37.75 10.9 38.3 10.6 38.95 10.4 M24.5 10.35 L24.0 10.25 22.95 10.2 21.7 10.2 20.85 10.2 20.5 10.2 21.75 9.35 22.8 8.6 Q23.65 8.1 24.5 7.75 L24.95 8.1 25.2 8.3 25.65 8.65 25.85 8.8 26.0 8.95 26.2 9.1 25.4 9.55 24.5 10.35 M30.75 8.3 L30.7 8.25 30.5 8.05 29.85 7.45 30.2 7.55 32.1 7.75 32.4 7.8 35.15 8.4 34.35 8.8 34.25 8.8 30.75 8.3 M37.15 32.2 Q36.8 32.5 36.8 32.9 36.8 33.5 37.7 34.25 L38.1 34.1 38.45 32.9 38.3 32.1 37.15 32.2" fill="#39c7ff" fill-rule="evenodd" stroke="none"/>
      <path d="M25.75 6.35 L26.2 6.35 26.45 6.35 26.85 6.35 28.05 6.5 29.7 6.7 Q32.65 7.2 35.3 8.4 L35.75 8.6 Q37.4 9.35 38.95 10.4 38.3 10.6 37.75 10.9 37.55 10.9 37.4 11.05 L37.2 11.1 Q37.05 11.1 37.0 11.2 L34.55 12.5 34.9 12.7 35.25 12.95 34.75 13.05 35.6 13.5 37.0 14.2 39.45 15.7 39.8 15.95 43.35 19.0 45.3 21.2 46.0 22.1 46.5 24.2 Q46.1 24.75 45.6 24.55 L42.6 21.4 40.7 20.25 39.8 19.7 39.1 19.2 38.1 18.5 35.75 16.3 35.65 16.2 35.95 16.9 37.0 19.7 37.75 22.15 38.2 23.95 38.65 28.05 38.75 28.85 37.6 29.65 35.65 29.55 35.65 29.3 35.4 29.2 34.6 28.85 34.1 26.35 33.75 25.0 33.45 23.85 31.05 16.55 Q29.65 18.15 28.6 20.25 L28.25 21.1 27.05 23.55 26.9 23.9 Q26.2 25.3 25.8 27.0 L25.45 27.25 Q25.05 27.7 24.5 27.75 22.8 27.9 22.1 26.7 L22.05 25.7 22.25 24.55 23.45 21.1 24.6 17.95 24.7 17.8 Q25.55 15.8 26.9 14.35 L23.8 13.85 22.45 13.65 22.15 13.55 21.7 13.4 21.25 13.35 20.85 13.2 20.85 13.3 19.35 13.15 17.65 13.0 17.05 13.7 16.8 14.05 16.65 14.35 Q16.85 12.7 19.25 10.7 20.9 9.2 21.9 8.75 L22.05 8.65 22.5 8.5 Q23.65 8.05 24.6 7.35 L25.1 7.0 25.75 6.35 M27.85 10.5 L28.95 11.55 24.4 11.25 24.25 11.25 23.65 11.3 23.55 11.3 23.2 11.4 21.55 11.65 21.35 11.65 21.05 12.15 20.9 12.5 22.3 12.6 22.85 12.65 23.1 12.65 23.8 12.7 23.9 12.8 28.65 13.85 28.8 14.05 28.25 14.4 Q27.25 15.7 25.65 18.8 L25.55 19.2 24.9 21.05 25.1 21.65 25.4 22.25 25.85 22.1 26.1 21.8 26.45 21.4 26.7 20.85 26.9 20.5 Q29.1 16.5 30.75 15.65 L30.7 15.95 30.85 15.7 30.55 14.95 30.75 14.95 31.2 15.35 31.25 15.25 31.45 15.7 Q32.3 17.0 33.35 19.35 L34.1 21.25 34.25 21.65 35.25 23.2 35.5 23.6 36.0 24.3 36.3 24.05 36.2 23.4 36.2 22.85 35.85 20.5 Q35.4 17.95 34.4 15.65 L34.2 15.15 34.6 15.45 35.45 15.95 35.1 15.3 35.3 15.3 38.65 17.7 39.85 18.5 40.2 18.75 41.45 19.65 41.35 19.0 40.85 18.4 39.85 17.25 39.5 16.9 39.25 16.65 Q37.35 14.8 35.1 13.65 L34.1 13.2 33.55 12.95 33.9 12.85 33.65 12.65 33.45 12.5 Q34.2 12.0 35.1 11.55 L35.25 11.45 36.5 10.95 34.45 9.85 33.5 10.6 Q32.5 11.2 31.6 11.25 L32.05 10.7 31.8 10.85 30.55 9.5 30.15 9.1 27.95 9.0 27.75 9.1 28.25 9.45 Q29.3 10.4 29.35 11.05 L29.35 11.25 27.6 10.25 26.2 9.1 26.0 8.95 25.85 8.8 25.65 8.65 25.2 8.3 24.95 8.1 24.5 7.75 Q23.65 8.1 22.8 8.6 L21.75 9.35 20.5 10.2 20.85 10.2 21.7 10.2 22.95 10.2 24.0 10.25 24.5 10.35 24.85 10.35 24.95 10.35 28.2 10.85 27.85 10.5 M34.25 8.8 L34.35 8.8 35.15 8.4 32.4 7.8 32.1 7.75 30.2 7.55 29.85 7.45 30.5 8.05 30.7 8.25 30.75 8.3 32.3 10.0 Q33.2 9.3 34.25 8.8 M24.7 22.45 L24.6 22.35 24.6 22.45 24.7 22.45 M27.5 22.45 L27.05 23.2 27.25 23.05 27.5 22.45 M34.9 24.8 L34.75 24.6 34.75 24.8 34.9 24.8" fill="#2f93d9" fill-rule="evenodd" stroke="none"/>
      <path d="M27.6 10.25 L29.35 11.25 29.35 11.05 Q29.3 10.4 28.25 9.45 L27.75 9.1 27.95 9.0 30.15 9.1 30.55 9.5 31.8 10.85 32.05 10.7 31.6 11.25 Q32.5 11.2 33.5 10.6 L34.45 9.85 36.5 10.95 35.25 11.45 35.1 11.55 Q34.2 12.0 33.45 12.5 L33.65 12.65 33.9 12.85 33.55 12.95 34.1 13.2 35.1 13.65 Q37.35 14.8 39.25 16.65 L39.5 16.9 39.85 17.25 40.85 18.4 41.35 19.0 41.45 19.65 40.2 18.75 39.85 18.5 38.65 17.7 35.3 15.3 35.1 15.3 35.45 15.95 34.6 15.45 34.2 15.15 34.4 15.65 Q35.4 17.95 35.85 20.5 L36.2 22.85 36.2 23.4 36.3 24.05 36.0 24.3 35.5 23.6 35.25 23.2 34.25 21.65 34.1 21.25 33.35 19.35 Q32.3 17.0 31.45 15.7 L31.25 15.25 31.2 15.35 30.75 14.95 30.55 14.95 30.85 15.7 30.7 15.95 30.75 15.65 Q29.1 16.5 26.9 20.5 L26.7 20.85 26.45 21.4 26.1 21.8 25.85 22.1 25.4 22.25 25.1 21.65 24.9 21.05 25.55 19.2 25.65 18.8 Q27.25 15.7 28.25 14.4 L28.8 14.05 28.65 13.85 23.9 12.8 23.8 12.7 23.1 12.65 22.85 12.65 22.3 12.6 20.9 12.5 21.05 12.15 21.35 11.65 21.55 11.65 23.2 11.4 23.55 11.3 23.65 11.3 24.25 11.25 24.4 11.25 28.95 11.55 27.85 10.5 27.6 10.25" fill="#5bff8e" fill-rule="evenodd" stroke="none"/>
      <path d="M48.25 40.45 Q47.4 42.45 46.2 44.25 L45.8 44.9 Q41.65 47.3 37.05 48.6 30.5 50.45 24.15 47.55 L21.9 46.4 18.2 43.0 Q16.1 39.55 14.25 35.7 L14.0 34.8 Q15.1 36.85 16.5 38.6 L16.85 38.7 Q20.15 40.35 23.8 40.25 L29.3 39.3 30.55 38.8 32.15 38.15 33.55 37.75 Q37.2 36.7 40.85 37.1 L43.35 37.8 Q46.1 38.85 48.25 40.45 M14.55 53.4 Q10.65 51.65 7.35 48.35 0.0 41.15 0.0 30.95 0.0 24.6 2.85 19.35 L2.4 21.1 Q1.75 23.7 1.5 26.3 0.8 31.65 2.6 36.7 4.05 40.6 6.0 44.2 8.05 47.8 11.0 50.6 12.6 52.2 14.55 53.4 M36.0 40.1 Q36.3 40.9 37.15 40.9 38.3 40.9 38.3 39.5 38.3 38.15 37.15 38.25 35.95 38.35 35.95 39.5 L36.0 40.1" fill="#f79771" fill-rule="evenodd" stroke="none"/>
      <path d="M45.8 44.9 L44.0 47.05 42.85 48.25 42.7 48.35 40.7 50.2 Q37.75 52.55 34.4 53.95 31.25 55.15 27.85 55.5 L25.05 55.65 Q19.3 55.65 14.55 53.4 12.6 52.2 11.0 50.6 8.05 47.8 6.0 44.2 4.05 40.6 2.6 36.7 0.8 31.65 1.5 26.3 1.75 23.7 2.4 21.1 L2.85 19.35 Q4.6 16.2 7.35 13.5 L9.45 11.65 Q9.25 21.95 11.7 29.35 12.5 31.95 13.65 34.2 L13.8 34.4 14.0 34.8 14.25 35.7 Q16.1 39.55 18.2 43.0 L21.9 46.4 24.15 47.55 Q30.5 50.45 37.05 48.6 41.65 47.3 45.8 44.9" fill="#fb3a4b" fill-rule="evenodd" stroke="none"/>
      <path d="M37.75 10.9 Q39.35 12.7 39.8 15.95 L39.45 15.7 37.0 14.2 35.6 13.5 34.75 13.05 35.25 12.95 34.9 12.7 34.55 12.5 37.0 11.2 Q37.05 11.1 37.2 11.1 L37.4 11.05 Q37.55 10.9 37.75 10.9 M39.8 19.7 L39.5 21.1 37.75 22.15 37.0 19.7 35.95 16.9 35.65 16.2 35.75 16.3 38.1 18.5 39.1 19.2 39.8 19.7 M33.45 23.85 L30.05 24.4 26.9 23.9 27.05 23.55 28.25 21.1 28.6 20.25 Q29.65 18.15 31.05 16.55 L33.45 23.85 M23.45 21.1 Q22.05 19.1 22.05 16.35 22.05 14.9 22.45 13.65 L23.8 13.85 26.9 14.35 Q25.55 15.8 24.7 17.8 L24.6 17.95 23.45 21.1 M27.85 10.5 L28.2 10.85 24.95 10.35 24.85 10.35 24.5 10.35 25.4 9.55 26.2 9.1 27.6 10.25 27.85 10.5 M34.25 8.8 Q33.2 9.3 32.3 10.0 L30.75 8.3 34.25 8.8" fill="#b7f2fc" fill-rule="evenodd" stroke="none"/>
      <path d="M13.8 8.95 L11.95 8.1 11.45 7.8 Q10.75 7.35 10.5 6.65 L10.2 5.75 10.2 5.15 Q10.3 4.6 10.55 4.1 L11.45 3.2 12.95 1.95 13.1 1.9 13.1 1.8 14.15 1.3 14.3 1.3 14.4 1.25 Q13.55 2.0 12.95 3.0 12.15 4.1 12.25 5.45 12.25 6.15 12.8 6.65 13.5 7.25 14.4 7.45 L17.0 7.7 Q19.25 7.75 21.35 6.9 L24.4 5.6 25.2 4.95 Q25.95 4.25 25.85 3.35 L25.55 2.45 24.5 1.25 23.85 0.95 21.4 0.35 22.05 0.2 22.65 0.15 23.5 0.0 24.5 0.85 26.65 2.95 27.25 3.55 27.25 4.0 26.9 4.75 26.85 4.8 26.45 5.15 26.3 5.5 26.25 5.65 26.2 5.65 25.75 6.35 25.1 7.0 24.6 7.35 Q23.65 8.05 22.5 8.5 L22.05 8.65 21.9 8.75 21.25 8.85 18.95 9.3 18.55 9.35 16.65 9.45 13.9 9.0 13.8 8.95 M26.3 5.5 L26.55 3.85 Q26.35 2.25 24.5 1.25 26.35 2.25 26.55 3.85 L26.3 5.5" fill="#ba6707" fill-rule="evenodd" stroke="none"/>
      <path d="M24.5 1.25 L25.55 2.45 25.85 3.35 Q25.95 4.25 25.2 4.95 L24.4 5.6 21.35 6.9 Q19.25 7.75 17.0 7.7 L14.4 7.45 Q13.5 7.25 12.8 6.65 12.25 6.15 12.25 5.45 12.15 4.1 12.95 3.0 13.55 2.0 14.4 1.25 L17.15 0.9 21.2 0.35 21.4 0.35 23.85 0.95 24.5 1.25 M23.45 2.95 L23.45 2.7 Q23.3 1.6 22.05 1.45 16.8 0.9 16.8 2.7 L17.0 3.55 Q17.75 4.25 20.3 4.25 L22.15 4.1 Q23.45 4.1 23.45 3.2 L23.45 2.95 M15.4 5.5 L16.1 4.8 15.9 4.25 Q14.9 4.25 14.7 5.1 L15.4 5.5" fill="#fba737" fill-rule="evenodd" stroke="none"/>
      <path d="M23.45 2.95 L23.3 2.6 23.1 2.35 21.75 2.3 21.0 2.35 20.75 2.6 20.75 3.15 Q20.75 4.0 21.0 3.9 L22.15 4.1 20.3 4.25 Q17.75 4.25 17.0 3.55 L16.8 2.7 Q16.8 0.9 22.05 1.45 23.3 1.6 23.45 2.7 L23.45 2.95 M15.4 5.5 L14.7 5.1 Q14.9 4.25 15.9 4.25 L16.1 4.8 15.4 5.5" fill="#fff8b4" fill-rule="evenodd" stroke="none"/>
      <path d="M22.15 4.1 L21.0 3.9 Q20.75 4.0 20.75 3.15 L20.75 2.6 21.0 2.35 21.75 2.3 23.1 2.35 23.3 2.6 23.45 2.95 23.45 3.2 Q23.45 4.1 22.15 4.1" fill="#fdfdfd" fill-rule="evenodd" stroke="none"/>
      <path d="M9.45 11.65 L10.2 11.1 11.2 10.4 12.5 9.55 13.45 9.1 13.5 9.0 13.7 8.95 13.8 8.95 13.9 9.0 16.65 9.45 18.55 9.35 18.95 9.3 21.25 8.85 21.9 8.75 Q20.9 9.2 19.25 10.7 16.85 12.7 16.65 14.35 L16.45 14.55 15.3 16.2 Q14.2 19.3 13.65 22.5 13.3 24.75 13.2 27.0 L13.1 29.45 13.1 29.85 Q13.1 32.15 13.65 34.2 12.5 31.95 11.7 29.35 9.25 21.95 9.45 11.65" fill="#2a76d8" fill-rule="evenodd" stroke="none"/>
      <path d="M21.25 13.35 L20.85 13.3 20.85 13.2 21.25 13.35 M24.7 22.45 L24.6 22.45 24.6 22.35 24.7 22.45 M27.5 22.45 L27.25 23.05 27.05 23.2 27.5 22.45 M34.9 24.8 L34.75 24.8 34.75 24.6 34.9 24.8" fill="#e0fbff" fill-rule="evenodd" stroke="none"/>
      <path d="M37.15 32.2 L38.3 32.1 38.45 32.9 38.1 34.1 37.7 34.25 Q36.8 33.5 36.8 32.9 36.8 32.5 37.15 32.2" fill="#94ebfc" fill-rule="evenodd" stroke="none"/>
      <path d="M36.0 40.1 L35.95 39.5 Q35.95 38.35 37.15 38.25 38.3 38.15 38.3 39.5 38.3 40.9 37.15 40.9 36.3 40.9 36.0 40.1" fill="#ffc4ad" fill-rule="evenodd" stroke="none"/>
      <path d="M38.95 10.4 L40.85 11.8 42.7 13.5 43.35 14.2 43.5 14.25 Q50.05 21.25 50.05 30.95 50.05 36.15 48.25 40.45 M35.75 8.6 Q37.4 9.35 38.95 10.4" fill="none" stroke="#336cb6" stroke-linecap="round" stroke-linejoin="round" stroke-width="1.0"/>
      <path d="M48.25 40.45 Q47.4 42.45 46.2 44.25 L45.8 44.9" fill="none" stroke="#db7424" stroke-linecap="round" stroke-linejoin="round" stroke-width="1.0"/>
      <path d="M45.8 44.9 L44.0 47.05 42.85 48.25 42.7 48.35 40.7 50.2 Q37.75 52.55 34.4 53.95 31.25 55.15 27.85 55.5 L25.05 55.65 Q19.3 55.65 14.55 53.4 M2.85 19.35 Q4.6 16.2 7.35 13.5 L9.45 11.65 10.2 11.1 11.2 10.4 12.5 9.55 13.45 9.1 13.5 9.0 13.7 8.95 13.8 8.95" fill="none" stroke="#660000" stroke-linecap="round" stroke-linejoin="round" stroke-width="1.0"/>
      <path d="M25.75 6.35 L26.2 6.35 26.45 6.35 26.85 6.35 28.05 6.5 29.7 6.7 Q32.65 7.2 35.3 8.4 L35.75 8.6" fill="none" stroke="#003366" stroke-linecap="round" stroke-linejoin="round" stroke-width="1.0"/>
      <path d="M13.8 8.95 L11.95 8.1 11.45 7.8 Q10.75 7.35 10.5 6.65 L10.2 5.75 10.2 5.15 Q10.3 4.6 10.55 4.1 11.05 3.15 12.25 2.3 L12.95 1.95 13.1 1.9 13.1 1.8 14.15 1.3 14.3 1.3 14.4 1.25 14.6 1.1 Q16.1 0.5 17.9 0.25 L21.4 0.35 23.85 0.95 24.5 1.25 Q26.35 2.25 26.55 3.85 L26.3 5.5 26.25 5.65 M25.75 6.35 L25.1 7.0 24.6 7.35 Q23.65 8.05 22.5 8.5 L22.05 8.65 21.9 8.75 21.25 8.85 18.95 9.3 18.55 9.35 16.65 9.45 13.9 9.0 13.8 8.95" fill="none" stroke="#ad5300" stroke-linecap="round" stroke-linejoin="round" stroke-width="1.0"/>
      <path d="M14.55 53.4 Q10.65 51.65 7.35 48.35 0.0 41.15 0.0 30.95 0.0 24.6 2.85 19.35" fill="none" stroke="#934000" stroke-linecap="round" stroke-linejoin="round" stroke-width="1.0"/>
    </g>
  </defs>
</svg>
