<?xml version="1.0" encoding="UTF-8" standalone="no"?>
<svg xmlns:ffdec="https://www.free-decompiler.com/flash" xmlns:xlink="http://www.w3.org/1999/xlink" ffdec:objectType="frame" height="30.1px" width="31.75px" xmlns="http://www.w3.org/2000/svg">
  <g transform="matrix(1.0, 0.0, 0.0, 1.0, 1.75, 0.0)">
    <use ffdec:characterId="1" height="30.0" transform="matrix(1.0, 0.0, 0.0, 1.0, 0.0, 0.0)" width="30.0" xlink:href="#shape0"/>
    <use ffdec:characterId="5" height="30.0" transform="matrix(1.0, 0.0, 0.0, 1.0, -1.75, 0.1)" width="31.75" xlink:href="#sprite0"/>
  </g>
  <defs>
    <g id="shape0" transform="matrix(1.0, 0.0, 0.0, 1.0, 0.0, 0.0)">
      <path d="M0.0 0.0 L30.0 0.0 30.0 30.0 0.0 30.0 0.0 0.0" fill="#33cc66" fill-opacity="0.0" fill-rule="evenodd" stroke="none"/>
    </g>
    <g id="sprite0" transform="matrix(1.0, 0.0, 0.0, 1.0, 1.75, 0.0)">
      <use ffdec:characterId="2" height="30.0" transform="matrix(1.0, 0.0, 0.0, 1.0, 0.0, 0.0)" width="30.0" xlink:href="#shape1"/>
      <filter id="filter0">
        <feColorMatrix in="SourceGraphic" result="filterResult0" type="matrix" values="0 0 0 0 1.0,0 0 0 0 1.0,0 0 0 0 0.4,0 0 0 1 0"/>
        <feConvolveMatrix divisor="25.0" in="filterResult0" kernelMatrix="1 1 1 1 1 1 1 1 1 1 1 1 1 1 1 1 1 1 1 1 1 1 1 1 1" order="5 5" result="filterResult1"/>
        <feComposite in="SourceGraphic" in2="filterResult1" operator="over" result="filterResult2"/>
      </filter>
      <use ffdec:characterId="4" filter="url(#filter0)" height="77.7" transform="matrix(0.265, 0.071, -0.071, 0.265, 3.7545, 1.398)" width="95.2" xlink:href="#sprite1"/>
    </g>
    <g id="shape1" transform="matrix(1.0, 0.0, 0.0, 1.0, 0.0, 0.0)">
      <path d="M3.3 0.0 L26.7 0.0 Q30.0 0.0 30.0 3.3 L30.0 26.7 Q30.0 30.0 26.7 30.0 L3.3 30.0 Q0.0 30.0 0.0 26.7 L0.0 3.3 Q0.0 0.0 3.3 0.0" fill="#999999" fill-rule="evenodd" stroke="none"/>
    </g>
    <g id="sprite1" transform="matrix(1.0, 0.0, 0.0, 1.0, 0.75, 0.75)">
      <use ffdec:characterId="3" height="77.7" transform="matrix(1.0, 0.0, 0.0, 1.0, -0.75, -0.75)" width="95.2" xlink:href="#shape2"/>
    </g>
    <g id="shape2" transform="matrix(1.0, 0.0, 0.0, 1.0, 0.75, 0.75)">
      <path d="M36.55 16.6 L39.6 20.75 39.5 20.7 37.9 20.05 Q35.05 18.55 27.35 10.55 L26.4 9.65 24.55 9.05 24.05 8.45 25.3 8.8 26.4 9.55 36.55 16.6 M3.9 2.9 L24.55 9.05 26.9 11.85 Q32.65 18.4 37.7 20.95 L40.3 22.1 40.75 22.1 43.1 24.75 40.9 24.7 Q38.15 24.45 33.9 22.65 L3.9 2.9 M40.0 18.9 L46.95 23.7 44.9 24.45 46.05 25.7 Q46.85 26.3 47.65 27.05 L48.45 27.65 49.65 28.55 Q49.25 26.7 49.25 25.25 L67.45 37.75 67.35 39.85 66.75 39.8 Q65.3 39.5 63.5 38.6 60.8 37.2 53.2 31.35 L52.1 30.45 49.65 28.55 50.25 30.9 50.5 31.6 54.05 34.3 Q57.7 36.9 60.8 38.5 L62.2 39.1 63.95 39.8 59.15 39.3 51.7 34.45 50.5 31.6 49.75 30.95 47.85 29.35 47.45 28.95 45.55 27.3 43.1 24.75 44.9 24.45 Q42.4 21.95 40.0 18.9 M81.3 40.05 L81.25 40.45 Q81.15 41.9 80.6 43.15 79.85 44.65 78.5 44.75 L76.95 44.6 76.0 44.2 Q74.85 43.6 73.5 42.3 L72.5 41.3 72.05 40.7 71.4 30.6 79.85 35.8 81.3 40.05 M71.85 43.55 L84.65 50.65 Q84.85 51.2 84.95 51.0 L82.65 57.1 81.2 60.7 80.55 62.5 77.75 62.4 74.45 61.35 74.4 61.3 73.2 60.65 72.8 60.15 71.55 58.45 70.65 57.05 69.4 60.95 67.35 68.15 68.85 69.05 68.9 69.05 69.5 69.35 Q71.8 70.7 75.7 72.65 L76.45 73.0 75.6 75.1 64.8 69.7 71.85 43.55 M71.35 29.9 L71.35 30.45 70.2 31.15 70.35 30.5 71.35 29.9" fill="#f3d600" fill-rule="evenodd" stroke="none"/>
      <path d="M24.55 9.05 L26.4 9.65 27.35 10.55 Q35.05 18.55 37.9 20.05 L39.5 20.7 39.6 20.75 36.55 16.6 40.0 18.9 Q42.4 21.95 44.9 24.45 L43.1 24.75 40.75 22.1 40.3 22.1 37.7 20.95 Q32.65 18.4 26.9 11.85 L24.55 9.05 M26.4 9.55 L25.3 8.8 25.9 9.0 26.4 9.55 M67.35 39.85 L67.35 40.15 63.95 39.8 62.2 39.1 60.8 38.5 Q57.7 36.9 54.05 34.3 L50.5 31.6 50.25 30.9 49.65 28.55 52.1 30.45 53.2 31.35 Q60.8 37.2 63.5 38.6 65.3 39.5 66.75 39.8 L67.35 39.85" fill="#e19a02" fill-rule="evenodd" stroke="none"/>
      <path d="M36.55 16.6 L26.4 9.55 25.9 9.0 28.6 9.95 29.3 10.45 29.4 10.55 67.55 36.65 67.45 37.75 49.25 25.25 Q49.25 26.7 49.65 28.55 L48.45 27.65 47.65 27.05 Q46.85 26.3 46.05 25.7 L44.9 24.45 46.95 23.7 40.0 18.9 36.55 16.6 M24.05 8.45 L24.55 9.05 3.9 2.9 2.45 1.9 0.4 0.6 0.0 0.0 24.05 8.45 M33.9 22.65 Q38.15 24.45 40.9 24.7 L43.1 24.75 45.55 27.3 47.45 28.95 47.85 29.35 49.75 30.95 50.5 31.6 51.7 34.45 33.9 22.65" fill="#fcffc6" fill-rule="evenodd" stroke="none"/>
      <path d="M72.05 40.7 L72.5 41.3 73.5 42.3 Q74.85 43.6 76.0 44.2 L76.95 44.6 78.5 44.75 Q79.85 44.65 80.6 43.15 81.15 41.9 81.25 40.45 L81.3 40.05 84.25 49.15 84.65 50.65 71.85 43.55 72.2 42.5 72.05 40.7 M79.85 35.8 L71.4 30.6 71.35 30.45 71.35 29.9 79.65 35.05 79.85 35.8" fill="#fbfec5" fill-rule="evenodd" stroke="none"/>
      <path d="M3.9 2.9 L33.9 22.65 51.7 34.45 59.15 39.3 58.45 39.2 65.85 49.4 65.5 50.55 Q63.75 48.4 58.55 45.1 L50.35 40.5 Q47.35 39.0 43.85 37.55 39.75 35.8 34.95 34.2 34.2 32.1 29.55 28.4 25.35 25.05 23.3 23.95 20.3 22.45 15.05 21.35 L2.45 1.9 3.9 2.9 M72.05 40.7 L72.2 42.5 71.85 43.55 64.8 69.7 75.6 75.1 73.65 76.2 63.0 70.75 65.0 57.1 68.9 43.0 68.6 37.35 70.2 31.15 71.35 30.45 71.4 30.6 72.05 40.7 M84.65 50.65 L84.25 49.15 85.95 50.25 85.65 54.45 85.0 57.6 84.55 58.6 84.2 58.35 82.65 57.1 84.95 51.0 Q84.85 51.2 84.65 50.65 M65.35 51.15 L64.35 55.25 29.15 33.2 32.25 34.4 40.3 37.3 43.25 38.45 Q47.85 40.2 51.65 42.15 53.15 42.9 55.95 44.6 L60.6 47.3 64.45 50.25 65.35 51.15 M76.45 73.0 L75.7 72.65 Q71.8 70.7 69.5 69.35 L68.9 69.05 68.85 69.05 67.35 68.15 69.4 60.95 70.65 57.05 71.55 58.45 72.8 60.15 73.2 60.65 74.4 61.3 74.45 61.35 77.75 62.4 80.55 62.5 76.45 73.0 M90.95 53.4 L93.05 55.45 Q93.9 57.55 93.6 59.65 92.0 62.15 89.95 61.45 90.7 58.65 90.9 55.4 L90.95 53.4 M87.3 51.0 L89.55 52.5 89.35 55.9 Q89.15 59.1 88.6 60.75 L88.15 60.4 87.75 60.2 Q87.25 59.7 86.95 59.75 L86.9 59.8 86.3 59.5 86.0 59.35 86.1 59.2 Q86.95 57.1 87.15 53.55 L87.3 51.0 M31.35 31.4 L32.9 33.5 29.55 32.45 26.45 31.55 18.4 26.45 16.6 23.75 Q20.8 24.65 23.6 26.05 28.6 28.65 31.35 31.4" fill="#e19c01" fill-rule="evenodd" stroke="none"/>
      <path d="M67.45 37.75 L67.55 36.65 68.6 37.35 68.9 43.0 65.0 57.1 64.0 56.5 64.35 55.25 65.35 51.15 65.5 50.55 65.85 49.4 58.45 39.2 59.15 39.3 63.95 39.8 67.35 40.15 67.35 39.85 67.45 37.75 M68.0 42.9 L67.3 41.65 61.05 40.45 65.7 46.95 68.0 42.9 68.1 43.1 68.0 42.85 68.0 42.9" fill="#a15f01" fill-rule="evenodd" stroke="none"/>
      <path d="M68.0 42.9 L65.7 46.95 61.05 40.45 67.3 41.65 68.0 42.9" fill="#66fdf6" fill-rule="evenodd" stroke="none"/>
      <path d="M65.5 50.55 L65.35 51.15 64.45 50.25 60.6 47.3 55.95 44.6 Q53.15 42.9 51.65 42.15 47.85 40.2 43.25 38.45 L40.3 37.3 32.25 34.4 29.15 33.2 64.35 55.25 64.0 56.5 17.85 27.35 14.65 23.4 0.4 0.6 2.45 1.9 15.05 21.35 Q20.3 22.45 23.3 23.95 25.35 25.05 29.55 28.4 34.2 32.1 34.95 34.2 39.75 35.8 43.85 37.55 47.35 39.0 50.35 40.5 L58.55 45.1 Q63.75 48.4 65.5 50.55 M31.35 31.4 Q28.6 28.65 23.6 26.05 20.8 24.65 16.6 23.75 L18.4 26.45 26.45 31.55 29.55 32.45 32.9 33.5 31.35 31.4" fill="#a25f04" fill-rule="evenodd" stroke="none"/>
      <path d="M81.2 60.7 L82.65 57.1 84.2 58.35 84.55 58.6 85.0 57.6 85.65 54.45 85.95 50.25 87.3 51.0 87.15 53.55 Q86.95 57.1 86.1 59.2 L86.0 59.35 86.3 59.5 86.9 59.8 87.1 59.9 86.95 59.75 Q87.25 59.7 87.75 60.2 L88.15 60.4 88.6 60.75 Q89.15 59.1 89.35 55.9 L89.55 52.5 90.95 53.4 90.9 55.4 Q90.7 58.65 89.95 61.45 92.0 62.15 93.6 59.65 93.25 62.5 91.75 64.45 90.55 65.1 89.05 64.85 L88.95 64.85 Q88.0 64.75 86.85 64.15 L81.2 60.7" fill="#a56003" fill-rule="evenodd" stroke="none"/>
      <path d="M25.3 8.8 L24.05 8.45 0.0 0.0 0.4 0.6 14.65 23.4 17.85 27.35 64.0 56.5 65.0 57.1 68.9 43.0 68.6 37.35 67.55 36.65 29.4 10.55 M29.3 10.45 L28.6 9.95 25.9 9.0 25.3 8.8 M84.65 50.65 L84.25 49.15 81.3 40.05 79.85 35.8 79.65 35.05 71.35 29.9 70.35 30.5 70.2 31.15 68.6 37.35 M76.45 73.0 L80.55 62.5 81.2 60.7 82.65 57.1 84.95 51.0 Q84.85 51.2 84.65 50.65 M65.0 57.1 L63.0 70.75 73.65 76.2 75.6 75.1 76.45 73.0 M93.6 59.65 Q93.9 57.55 93.05 55.45 L90.95 53.4 89.55 52.5 87.3 51.0 85.95 50.25 84.25 49.15 M93.6 59.65 Q93.25 62.5 91.75 64.45 90.55 65.1 89.05 64.85 L88.95 64.85 Q88.0 64.75 86.85 64.15 L81.2 60.7" fill="none" stroke="#601f0b" stroke-linecap="round" stroke-linejoin="round" stroke-width="1.5"/>
    </g>
  </defs>
</svg>
