<?xml version="1.0" encoding="UTF-8" standalone="no"?>
<svg xmlns:ffdec="https://www.free-decompiler.com/flash" xmlns:xlink="http://www.w3.org/1999/xlink" ffdec:objectType="frame" height="32.05px" width="30.3px" xmlns="http://www.w3.org/2000/svg">
  <g transform="matrix(1.0, 0.0, 0.0, 1.0, 0.0, 0.0)">
    <use ffdec:characterId="1" height="30.0" transform="matrix(1.0, 0.0, 0.0, 1.0, 0.0, 0.0)" width="30.0" xlink:href="#shape0"/>
    <use ffdec:characterId="5" height="32.05" transform="matrix(1.0, 0.0, 0.0, 1.0, 0.0, 0.0)" width="30.3" xlink:href="#sprite0"/>
  </g>
  <defs>
    <g id="shape0" transform="matrix(1.0, 0.0, 0.0, 1.0, 0.0, 0.0)">
      <path d="M0.0 0.0 L30.0 0.0 30.0 30.0 0.0 30.0 0.0 0.0" fill="#33cc66" fill-opacity="0.0" fill-rule="evenodd" stroke="none"/>
    </g>
    <g id="sprite0" transform="matrix(1.0, 0.0, 0.0, 1.0, 0.0, 0.1)">
      <use ffdec:characterId="2" height="30.0" transform="matrix(1.0, 0.0, 0.0, 1.0, 0.0, -0.1)" width="30.0" xlink:href="#shape1"/>
      <filter id="filter0">
        <feColorMatrix in="SourceGraphic" result="filterResult0" type="matrix" values="0 0 0 0 1.0,0 0 0 0 1.0,0 0 0 0 0.2,0 0 0 1 0"/>
        <feConvolveMatrix divisor="25.0" in="filterResult0" kernelMatrix="1 1 1 1 1 1 1 1 1 1 1 1 1 1 1 1 1 1 1 1 1 1 1 1 1" order="5 5" result="filterResult1"/>
        <feComposite in="SourceGraphic" in2="filterResult1" operator="over" result="filterResult2"/>
      </filter>
      <use ffdec:characterId="4" filter="url(#filter0)" height="81.05" transform="matrix(0.2677, 0.1575, -0.1575, 0.2677, 13.2848, 0.2622)" width="63.5" xlink:href="#sprite1"/>
    </g>
    <g id="shape1" transform="matrix(1.0, 0.0, 0.0, 1.0, 0.0, 0.1)">
      <path d="M3.3 -0.1 L26.7 -0.1 Q30.0 -0.1 30.0 3.2 L30.0 26.6 Q30.0 29.9 26.7 29.9 L3.3 29.9 Q0.0 29.9 0.0 26.6 L0.0 3.2 Q0.0 -0.1 3.3 -0.1" fill="#6699cc" fill-rule="evenodd" stroke="none"/>
    </g>
    <g id="sprite1" transform="matrix(1.0, 0.0, 0.0, 1.0, 1.5, 1.5)">
      <use ffdec:characterId="3" height="81.05" transform="matrix(1.0, 0.0, 0.0, 1.0, -1.5, -1.5)" width="63.5" xlink:href="#shape2"/>
    </g>
    <g id="shape2" transform="matrix(1.0, 0.0, 0.0, 1.0, 1.5, 1.5)">
      <path d="M54.0 5.05 L53.3 5.35 51.8 6.0 Q50.3 6.6 49.3 7.1 L48.7 6.9 49.9 6.05 51.45 5.0 51.95 4.7 54.0 5.05 M48.55 4.0 L46.8 5.35 46.7 5.45 45.95 6.0 Q43.6 5.25 41.55 4.85 L43.25 2.95 47.25 3.75 48.55 4.0 M41.0 2.5 L39.05 4.35 38.7 4.3 37.6 4.2 37.25 4.15 35.5 4.25 34.8 4.4 34.4 4.75 32.0 7.15 31.8 7.35 Q30.6 8.55 29.85 8.5 L28.55 8.3 27.55 8.1 27.0 7.95 26.4 7.8 23.25 7.2 24.15 4.8 24.7 3.6 24.0 3.45 22.4 6.3 21.9 7.15 21.6 7.75 21.5 7.7 21.2 7.35 21.1 7.3 20.25 6.5 19.3 7.9 18.5 7.9 19.65 5.9 21.2 3.45 21.55 2.95 23.75 0.0 26.2 0.1 28.9 0.9 27.9 1.8 26.3 3.85 Q25.15 5.4 25.15 6.4 L30.85 6.7 35.15 2.55 36.5 1.4 37.65 1.7 41.0 2.5" fill="#fbef65" fill-rule="evenodd" stroke="none"/>
      <path d="M48.7 6.9 L49.3 7.1 Q50.3 6.6 51.8 6.0 L53.3 5.35 54.0 5.05 54.3 5.1 54.5 5.2 Q58.0 7.8 60.5 14.45 L59.9 14.0 57.25 12.15 56.65 11.1 Q55.4 8.9 54.05 7.6 L53.65 7.55 51.15 7.85 51.05 7.85 51.05 7.9 51.05 8.3 50.55 9.45 49.25 10.05 49.2 10.05 Q46.6 12.95 44.15 16.5 L43.6 17.25 40.4 22.3 40.15 22.75 39.65 23.65 40.5 21.15 41.5 18.95 Q42.5 16.85 43.4 15.5 L41.4 15.0 41.15 14.95 39.8 14.6 40.8 13.6 41.45 13.0 Q43.4 11.0 45.7 9.15 L48.45 7.1 48.7 6.9 M41.55 4.85 Q43.6 5.25 45.95 6.0 L45.8 6.15 43.05 8.35 40.0 10.95 38.85 12.0 36.85 13.9 34.9 13.5 Q35.65 12.1 37.3 10.05 L39.45 7.3 40.0 6.7 41.4 5.0 41.55 4.85 M39.05 4.35 L39.05 4.4 35.7 7.55 35.4 7.8 35.05 8.15 32.95 10.5 31.15 12.75 29.7 12.4 25.7 11.6 25.5 11.55 24.4 11.35 24.1 11.3 20.45 10.6 20.1 10.55 21.6 7.75 21.9 7.15 22.4 6.3 24.0 3.45 24.7 3.6 24.15 4.8 23.25 7.2 26.4 7.8 27.0 7.95 27.55 8.1 28.55 8.3 29.85 8.5 Q30.6 8.55 31.8 7.35 L32.0 7.15 34.4 4.75 34.8 4.4 35.5 4.25 37.25 4.15 37.6 4.2 38.7 4.3 39.05 4.35" fill="#feffad" fill-rule="evenodd" stroke="none"/>
      <path d="M51.95 4.7 L51.45 5.0 49.9 6.05 48.7 6.9 48.45 7.1 45.7 9.15 Q43.4 11.0 41.45 13.0 L40.8 13.6 39.8 14.6 39.65 14.85 38.55 16.05 38.25 16.4 36.95 18.15 36.2 19.15 35.45 18.85 35.4 18.85 34.2 18.5 34.05 18.45 31.25 18.05 31.1 18.3 Q29.95 19.75 28.9 21.7 L27.7 23.95 26.9 25.75 26.65 26.35 25.85 28.35 25.45 29.35 Q23.65 34.25 22.15 40.35 L21.95 41.2 21.9 41.25 20.85 46.0 20.85 46.25 20.4 48.2 21.55 49.75 22.2 50.5 22.2 50.55 22.1 50.85 21.4 54.2 21.2 55.25 Q20.4 59.65 20.2 64.4 L20.15 65.45 20.15 66.2 19.65 66.0 19.05 65.75 18.7 65.65 18.6 65.6 18.55 64.7 18.55 64.6 18.55 63.95 18.45 61.0 Q18.55 59.65 19.2 56.15 L19.45 54.85 19.9 52.55 19.9 52.15 19.75 51.95 19.1 51.15 18.45 50.4 18.3 50.2 17.15 49.05 17.35 47.8 17.4 47.65 Q17.55 46.5 17.85 45.45 L17.9 45.05 19.1 40.1 19.1 40.05 21.2 32.8 22.35 29.6 23.4 26.8 22.3 24.85 21.85 24.0 20.95 22.0 20.65 21.45 20.6 21.35 20.75 20.9 21.35 18.8 22.0 17.15 22.05 16.95 22.75 15.15 25.4 15.3 24.85 16.85 24.65 17.4 24.6 17.55 23.6 20.6 Q23.55 21.0 25.2 22.75 L25.25 22.8 25.3 22.9 25.35 22.8 25.55 22.35 27.2 18.95 28.2 17.1 28.85 16.1 29.25 15.45 29.65 14.8 30.9 13.05 31.15 12.75 32.95 10.5 35.05 8.15 35.4 7.8 35.7 7.55 39.05 4.4 39.05 4.35 41.0 2.5 41.35 2.55 41.45 2.55 41.3 2.75 39.55 4.55 34.15 10.1 32.55 11.8 31.6 13.15 31.05 13.9 30.15 15.15 29.5 16.25 28.0 18.6 Q26.8 20.45 25.7 22.75 L25.05 24.15 22.65 20.9 Q23.05 18.75 23.7 17.25 L23.85 16.9 22.8 16.95 Q22.35 17.7 21.85 19.1 L21.05 21.65 Q21.65 23.15 23.1 25.05 L24.1 26.35 23.0 29.2 22.85 29.65 22.2 31.6 22.1 31.85 20.8 36.6 19.8 40.4 18.85 45.4 18.4 48.85 18.8 49.25 19.2 49.65 20.45 51.0 19.9 53.0 Q19.1 56.8 18.75 62.25 L18.75 64.85 19.15 65.05 19.65 65.3 19.9 59.85 Q20.25 54.75 20.85 52.0 L21.0 51.6 Q21.15 50.8 21.45 50.05 L20.9 49.7 19.35 48.25 19.85 45.7 20.95 40.85 22.1 37.15 24.2 31.15 24.8 29.45 25.4 27.9 26.25 25.8 27.75 22.2 Q28.85 19.55 29.9 17.75 L30.75 16.65 33.2 17.3 35.2 17.85 36.05 18.0 37.25 16.55 37.45 16.2 38.45 15.05 38.8 14.55 41.05 12.15 Q43.3 9.8 45.4 8.2 46.1 7.65 47.65 6.8 L49.3 5.9 47.65 5.5 47.55 5.5 46.5 6.4 42.65 9.65 40.65 11.5 38.65 13.4 37.75 14.25 36.4 15.8 33.45 14.85 32.45 14.55 33.5 13.35 36.5 9.9 37.05 9.25 40.25 5.8 41.05 4.9 43.05 2.9 43.25 2.95 41.55 4.85 41.4 5.0 40.0 6.7 39.45 7.3 37.3 10.05 Q35.65 12.1 34.9 13.5 L34.8 13.6 34.5 14.25 35.55 14.65 36.0 14.85 36.75 14.0 36.85 13.9 38.85 12.0 40.0 10.95 43.05 8.35 45.8 6.15 45.95 6.0 46.7 5.45 46.8 5.35 48.55 4.0 49.35 4.15 50.1 4.3 51.95 4.7" fill="#038adc" fill-rule="evenodd" stroke="none"/>
      <path d="M51.15 7.85 L53.65 7.55 54.05 7.6 Q55.4 8.9 56.65 11.1 L57.25 12.15 56.45 11.55 Q55.55 10.25 54.55 9.65 54.15 9.4 53.75 9.3 L53.55 9.2 Q52.55 8.5 51.15 7.85 M22.3 24.85 L23.4 26.8 22.35 29.6 21.2 32.8 19.1 40.05 17.95 39.55 17.25 39.3 15.8 38.7 Q12.55 37.35 10.75 36.7 L11.35 34.45 Q12.55 30.0 14.1 26.25 L15.05 24.0 16.7 20.75 16.5 20.65 15.8 20.3 14.15 19.35 14.9 17.8 16.45 14.9 19.25 10.35 20.6 8.2 19.4 7.9 19.3 7.9 20.25 6.5 21.1 7.3 21.2 7.35 21.5 7.7 21.6 7.75 20.1 10.55 20.45 10.6 19.6 12.4 17.0 17.95 18.35 19.55 17.5 22.1 17.0 23.7 16.95 24.1 19.3 24.25 19.55 24.3 22.3 24.85 M17.85 45.45 Q17.55 46.5 17.4 47.65 L17.35 47.8 17.15 49.05 18.3 50.2 18.45 50.4 19.1 51.15 19.75 51.95 19.9 52.15 19.9 52.55 19.45 54.85 15.6 53.85 15.3 53.8 Q9.1 51.9 5.1 48.7 L4.75 50.55 Q4.05 55.15 3.9 57.25 L3.9 58.05 Q6.6 59.95 11.6 61.75 15.0 63.0 18.2 63.85 L18.55 63.95 18.55 64.6 18.55 64.7 18.6 65.6 18.7 65.65 19.05 65.75 19.65 66.0 20.15 66.2 20.15 65.45 20.2 64.4 22.7 64.95 22.75 66.55 22.75 68.6 22.9 71.6 Q23.05 73.55 23.35 74.05 L24.1 72.95 24.15 72.8 24.15 73.0 23.8 77.3 22.55 77.85 22.0 78.05 Q21.85 78.05 17.95 76.25 L14.55 74.7 15.35 67.3 9.75 64.55 3.95 61.45 2.8 60.8 2.9 57.3 3.05 54.5 3.55 51.1 3.75 49.75 3.05 49.3 1.25 48.1 0.15 47.35 0.0 47.3 0.15 45.85 0.6 46.15 2.3 47.2 3.7 47.95 4.8 48.55 5.1 48.7 4.85 48.5 3.8 47.6 1.7 45.2 2.3 42.3 2.65 40.95 3.1 39.05 3.35 39.15 4.9 39.3 6.85 39.65 6.5 40.35 6.3 43.5 7.0 43.85 8.95 44.55 9.05 44.6 9.45 42.45 15.15 44.55 15.9 44.85 17.85 45.45 M21.2 55.25 L21.4 54.2 22.1 50.85 22.2 50.55 22.2 50.5 21.55 49.75 20.4 48.2 20.85 46.25 22.45 46.55 23.0 46.7 24.15 46.9 25.8 47.1 26.25 48.15 Q26.8 49.65 26.75 50.5 L25.3 54.35 24.65 55.85 23.3 55.65 21.2 55.25 M21.95 41.2 L22.15 40.35 Q23.65 34.25 25.45 29.35 L25.85 28.35 26.65 26.35 26.9 25.75 28.2 26.05 31.5 26.75 34.75 27.4 34.95 30.05 34.9 33.05 32.0 39.95 28.5 43.2 26.15 42.65 24.75 42.2 23.85 41.9 22.15 41.35 21.95 41.2" fill="#ffa720" fill-rule="evenodd" stroke="none"/>
      <path d="M40.15 22.75 L40.4 22.3 40.4 23.2 40.15 22.75 M53.75 9.3 Q54.15 9.4 54.55 9.65 55.55 10.25 56.45 11.55 L53.65 9.3 53.6 9.25 53.75 9.3" fill="#cd7000" fill-rule="evenodd" stroke="none"/>
      <path d="M46.5 6.4 L47.55 5.5 47.65 5.5 49.3 5.9 47.65 6.8 Q47.05 6.55 46.5 6.4 M38.8 14.55 L38.45 15.05 37.45 16.2 37.25 16.55 36.05 18.0 35.2 17.85 33.2 17.3 30.75 16.65 29.9 17.75 Q28.85 19.55 27.75 22.2 L26.25 25.8 25.4 27.9 24.8 29.45 24.2 31.15 22.1 37.15 20.95 40.85 20.1 40.5 19.8 40.4 20.8 36.6 22.1 31.85 22.2 31.6 22.85 29.65 23.0 29.2 24.1 26.35 23.1 25.05 Q21.65 23.15 21.05 21.65 L21.85 19.1 Q22.35 17.7 22.8 16.95 L23.85 16.9 23.7 17.25 Q23.05 18.75 22.65 20.9 L25.05 24.15 25.7 22.75 Q26.8 20.45 28.0 18.6 L29.5 16.25 30.15 15.15 31.05 13.9 31.6 13.15 33.5 13.35 32.45 14.55 33.45 14.85 36.4 15.8 37.75 14.25 38.45 14.5 38.8 14.55 M19.85 45.7 L19.35 48.25 20.9 49.7 21.45 50.05 Q21.15 50.8 21.0 51.6 L20.85 52.0 Q20.25 54.75 19.9 59.85 L19.65 65.3 19.15 65.05 18.75 64.85 18.75 62.25 Q19.1 56.8 19.9 53.0 L20.45 51.0 19.2 49.65 18.8 49.25 18.4 48.85 18.85 45.4 19.85 45.7 M39.55 4.55 L41.3 2.75 41.45 2.55 42.85 2.9 43.05 2.9 41.05 4.9 40.55 4.8 39.55 4.55" fill="#a6fdff" fill-rule="evenodd" stroke="none"/>
      <path d="M20.95 40.85 L19.85 45.7 18.85 45.4 19.8 40.4 20.1 40.5 20.95 40.85 M31.6 13.15 L32.55 11.8 34.15 10.1 39.55 4.55 40.55 4.8 41.05 4.9 40.25 5.8 37.05 9.25 36.5 9.9 33.5 13.35 31.6 13.15" fill="#fffeff" fill-rule="evenodd" stroke="none"/>
      <path d="M47.65 6.8 Q46.1 7.65 45.4 8.2 43.3 9.8 41.05 12.15 L38.8 14.55 38.45 14.5 37.75 14.25 38.65 13.4 40.65 11.5 42.65 9.65 46.5 6.4 Q47.05 6.55 47.65 6.8" fill="#fffbf4" fill-rule="evenodd" stroke="none"/>
      <path d="M39.8 14.6 L41.15 14.95 41.4 15.0 43.4 15.5 Q42.5 16.85 41.5 18.95 L40.5 21.15 39.65 23.65 38.7 25.25 37.3 28.0 34.9 33.05 34.95 30.05 34.75 27.4 31.5 26.75 28.2 26.05 26.9 25.75 27.7 23.95 28.9 21.7 Q29.95 19.75 31.1 18.3 L31.25 18.05 34.05 18.45 34.2 18.5 35.4 18.85 35.45 18.85 36.2 19.15 36.95 18.15 38.25 16.4 38.55 16.05 39.65 14.85 39.8 14.6 M31.15 12.75 L30.9 13.05 29.65 14.8 29.25 15.45 28.85 16.1 28.2 17.1 27.2 18.95 25.55 22.35 25.35 22.8 25.3 22.9 25.25 22.8 25.2 22.75 Q23.55 21.0 23.6 20.6 L24.6 17.55 24.65 17.4 24.85 16.85 25.4 15.3 22.75 15.15 22.05 16.95 22.0 17.15 21.35 18.8 20.75 20.9 20.6 21.35 20.65 21.45 20.95 22.0 21.85 24.0 22.3 24.85 19.55 24.3 19.3 24.25 16.95 24.1 17.0 23.7 17.5 22.1 18.35 19.55 17.0 17.95 19.6 12.4 20.45 10.6 24.1 11.3 24.4 11.35 25.5 11.55 25.7 11.6 29.7 12.4 31.15 12.75 M19.1 40.05 L19.1 40.1 17.9 45.05 17.85 45.45 15.9 44.85 15.15 44.55 9.45 42.45 9.9 40.35 10.35 38.35 10.75 36.7 Q12.55 37.35 15.8 38.7 L17.25 39.3 17.95 39.55 19.1 40.05 M19.45 54.85 L19.2 56.15 Q18.55 59.65 18.45 61.0 L18.55 63.95 18.2 63.85 Q15.0 63.0 11.6 61.75 6.6 59.95 3.9 58.05 L3.9 57.25 Q4.05 55.15 4.75 50.55 L5.1 48.7 Q9.1 51.9 15.3 53.8 L15.6 53.85 19.45 54.85 M20.2 64.4 Q20.4 59.65 21.2 55.25 L23.3 55.65 24.65 55.85 25.3 54.35 26.75 50.5 Q26.8 49.65 26.25 48.15 L25.8 47.1 24.15 46.9 23.0 46.7 22.45 46.55 20.85 46.25 20.85 46.0 21.9 41.25 21.95 41.2 22.15 41.35 23.85 41.9 24.75 42.2 26.15 42.65 28.5 43.2 32.0 39.95 30.65 43.6 29.45 47.2 Q28.05 51.65 26.95 56.25 25.1 64.25 24.15 72.8 L24.1 72.95 23.35 74.05 Q23.05 73.55 22.9 71.6 L22.75 68.6 22.75 66.55 22.7 64.95 20.2 64.4 M0.15 45.85 L0.45 43.6 Q0.95 39.9 1.85 37.05 L2.6 35.45 4.6 36.05 4.95 36.15 7.35 37.05 6.85 39.65 4.9 39.3 3.35 39.15 3.1 39.05 2.65 40.95 2.3 42.3 1.7 45.2 3.8 47.6 4.85 48.5 5.1 48.7 4.8 48.55 3.7 47.95 2.3 47.2 0.6 46.15 0.15 45.85" fill="#ffe370" fill-rule="evenodd" stroke="none"/>
      <path d="M48.7 6.9 L49.3 7.1 Q50.3 6.6 51.8 6.0 L53.3 5.35 54.0 5.05 51.95 4.7 50.1 4.3 49.35 4.15 48.55 4.0 47.25 3.75 43.25 2.95 43.05 2.9 42.85 2.9 41.45 2.55 41.35 2.55 41.0 2.5 37.65 1.7 36.5 1.4 35.15 2.55 30.85 6.7 25.15 6.4 Q25.15 5.4 26.3 3.85 L27.9 1.8 28.9 0.9 26.2 0.1 23.75 0.0 21.55 2.95 21.2 3.45 19.65 5.9 18.5 7.9 19.3 7.9 19.4 7.9 20.6 8.2 19.25 10.35 16.45 14.9 14.9 17.8 14.15 19.35 15.8 20.3 16.5 20.65 16.7 20.75 15.05 24.0 14.1 26.25 Q12.55 30.0 11.35 34.45 L10.75 36.7 10.35 38.35 9.9 40.35 9.45 42.45 9.05 44.6 8.95 44.55 7.0 43.85 6.3 43.5 6.5 40.35 6.85 39.65 7.35 37.05 4.95 36.15 4.6 36.05 2.6 35.45 1.85 37.05 Q0.95 39.9 0.45 43.6 L0.15 45.85 0.0 47.3 0.15 47.35 1.25 48.1 3.05 49.3 3.75 49.75 3.55 51.1 3.05 54.5 2.9 57.3 2.8 60.8 3.95 61.45 9.75 64.55 15.35 67.3 14.55 74.7 17.95 76.25 Q21.85 78.05 22.0 78.05 L22.55 77.85 23.8 77.3 24.15 73.0 24.15 72.8 Q25.1 64.25 26.95 56.25 28.05 51.65 29.45 47.2 L30.65 43.6 32.0 39.95 34.9 33.05 37.3 28.0 38.7 25.25 39.65 23.65 40.15 22.75 40.4 22.3 43.6 17.25 44.15 16.5 Q46.6 12.95 49.2 10.05 L49.25 10.05 50.55 9.45 51.05 8.3 51.05 7.9 51.05 7.85 51.15 7.85 53.65 7.55 54.05 7.6 Q55.4 8.9 56.65 11.1 L57.25 12.15 59.9 14.0 60.5 14.45 Q58.0 7.8 54.5 5.2 L54.3 5.1 54.0 5.05 M48.7 6.9 L48.45 7.1 45.7 9.15 Q43.4 11.0 41.45 13.0 L40.8 13.6 39.8 14.6 41.15 14.95 41.4 15.0 43.4 15.5 Q42.5 16.85 41.5 18.95 L40.5 21.15 39.65 23.65 M40.4 23.2 L40.15 22.75" fill="none" stroke="#660000" stroke-linecap="round" stroke-linejoin="round" stroke-width="3.0"/>
      <path d="M54.3 5.25 L53.6 5.55 Q52.8 5.9 52.1 6.2 L49.6 7.3 49.0 7.1 50.2 6.25 51.75 5.2 52.25 4.9 54.3 5.25 M48.85 4.2 L47.1 5.55 47.0 5.65 46.25 6.2 41.85 5.05 43.55 3.15 47.55 3.95 48.85 4.2 M41.3 2.7 L39.35 4.55 39.0 4.5 37.9 4.4 37.55 4.35 35.8 4.45 35.1 4.6 34.7 4.95 32.3 7.35 32.1 7.55 Q30.9 8.75 30.15 8.7 L28.85 8.5 27.85 8.3 27.3 8.15 26.7 8.0 23.55 7.4 24.45 5.0 25.0 3.8 24.3 3.65 22.7 6.5 22.2 7.35 21.9 7.95 21.8 7.9 21.5 7.55 21.4 7.5 20.55 6.7 19.6 8.1 18.8 8.1 19.95 6.1 21.5 3.65 21.85 3.15 24.05 0.2 26.5 0.3 29.2 1.1 28.2 2.0 26.6 4.05 Q25.45 5.6 25.45 6.6 L31.15 6.9 35.45 2.75 36.8 1.6 37.95 1.9 41.3 2.7" fill="#fbef65" fill-rule="evenodd" stroke="none"/>
      <path d="M49.0 7.1 L49.6 7.3 52.1 6.2 Q52.8 5.9 53.6 5.55 L54.3 5.25 54.6 5.3 54.8 5.4 Q58.3 8.0 60.8 14.65 L60.2 14.2 57.55 12.35 56.95 11.3 Q55.7 9.1 54.35 7.8 L53.95 7.75 51.45 8.05 51.35 8.05 51.35 8.1 51.35 8.5 50.85 9.65 49.55 10.25 49.5 10.25 Q46.9 13.15 44.45 16.7 L43.9 17.45 40.7 22.5 40.45 22.95 39.95 23.85 40.8 21.35 41.8 19.15 Q42.8 17.05 43.7 15.7 L41.7 15.2 41.45 15.15 40.1 14.8 41.1 13.8 41.75 13.2 Q43.7 11.2 46.0 9.35 L48.75 7.3 49.0 7.1 M41.85 5.05 L46.25 6.2 46.1 6.35 Q44.7 7.4 43.35 8.55 L40.3 11.15 39.15 12.2 37.15 14.1 35.2 13.7 Q35.95 12.3 37.6 10.25 L39.75 7.5 40.3 6.9 41.7 5.2 41.85 5.05 M39.35 4.55 L39.35 4.6 36.0 7.75 35.7 8.0 35.35 8.35 33.25 10.7 31.45 12.95 30.0 12.6 26.0 11.8 25.8 11.75 24.7 11.55 24.4 11.5 20.75 10.8 20.4 10.75 21.9 7.95 22.2 7.35 22.7 6.5 24.3 3.65 25.0 3.8 24.45 5.0 23.55 7.4 26.7 8.0 27.3 8.15 27.85 8.3 28.85 8.5 30.15 8.7 Q30.9 8.75 32.1 7.55 L32.3 7.35 34.7 4.95 35.1 4.6 35.8 4.45 37.55 4.35 37.9 4.4 39.0 4.5 39.35 4.55" fill="#feffad" fill-rule="evenodd" stroke="none"/>
      <path d="M52.25 4.9 L51.75 5.2 50.2 6.25 49.0 7.1 48.75 7.3 46.0 9.35 Q43.7 11.2 41.75 13.2 L41.1 13.8 40.1 14.8 39.95 15.05 38.85 16.25 38.55 16.6 37.25 18.35 36.5 19.35 35.75 19.05 35.7 19.05 34.5 18.7 34.35 18.65 31.55 18.25 31.4 18.5 Q30.25 19.95 29.2 21.9 L28.0 24.15 27.2 25.95 26.95 26.55 26.15 28.55 25.75 29.55 Q23.95 34.45 22.45 40.55 L22.25 41.4 22.2 41.45 21.15 46.2 21.15 46.45 20.7 48.4 21.85 49.95 22.5 50.7 22.5 50.75 22.4 51.05 21.7 54.4 21.5 55.45 Q20.7 59.85 20.5 64.6 L20.45 65.65 20.45 66.4 19.95 66.2 19.35 65.95 19.0 65.85 18.9 65.8 18.85 64.9 18.85 64.8 18.85 64.15 18.75 61.2 Q18.85 59.85 19.5 56.35 L19.75 55.05 20.2 52.75 20.2 52.35 20.05 52.15 19.4 51.35 18.75 50.6 18.6 50.4 17.45 49.25 17.65 48.0 17.7 47.85 Q17.85 46.7 18.15 45.65 L18.2 45.25 19.4 40.3 19.4 40.25 21.5 33.0 22.65 29.8 23.7 27.0 22.6 25.05 22.15 24.2 21.25 22.2 20.95 21.65 20.9 21.55 21.05 21.1 21.65 19.0 22.3 17.35 22.35 17.15 23.05 15.35 25.7 15.5 25.15 17.05 24.95 17.6 24.9 17.75 23.9 20.8 Q23.85 21.2 25.5 22.95 L25.55 23.0 25.6 23.1 25.65 23.0 25.85 22.55 27.5 19.15 28.5 17.3 29.15 16.3 29.55 15.65 29.95 15.0 Q30.5 14.15 31.2 13.25 L31.45 12.95 33.25 10.7 35.35 8.35 35.7 8.0 36.0 7.75 39.35 4.6 39.35 4.55 41.3 2.7 41.65 2.75 41.75 2.75 41.6 2.95 39.85 4.75 34.45 10.3 32.85 12.0 31.9 13.35 31.35 14.1 30.45 15.35 29.8 16.45 28.3 18.8 Q27.1 20.65 26.0 22.95 L25.35 24.35 22.95 21.1 Q23.35 18.95 24.0 17.45 L24.15 17.1 23.1 17.15 Q22.65 17.9 22.15 19.3 L21.35 21.85 Q21.95 23.35 23.4 25.25 L24.4 26.55 23.3 29.4 23.15 29.85 22.5 31.8 22.4 32.05 21.1 36.8 20.1 40.6 19.15 45.6 18.7 49.05 19.1 49.45 19.5 49.85 20.75 51.2 20.2 53.2 Q19.4 57.0 19.05 62.45 L19.05 65.05 19.45 65.25 19.95 65.5 20.2 60.05 Q20.55 54.95 21.15 52.2 L21.3 51.8 Q21.45 51.0 21.75 50.25 L21.2 49.9 19.65 48.45 20.15 45.9 Q20.55 43.7 21.25 41.05 L22.4 37.35 24.5 31.35 25.1 29.65 25.7 28.1 26.55 26.0 28.05 22.4 Q29.15 19.75 30.2 17.95 30.55 17.35 31.05 16.85 L33.5 17.5 35.5 18.05 36.35 18.2 37.55 16.75 37.75 16.4 38.75 15.25 39.1 14.75 41.35 12.35 Q43.6 10.0 45.7 8.4 L47.95 7.0 49.6 6.1 47.95 5.7 47.85 5.7 46.8 6.6 42.95 9.85 40.95 11.7 38.95 13.6 38.05 14.45 36.7 16.0 33.75 15.05 32.75 14.75 33.8 13.55 36.8 10.1 37.35 9.45 40.55 6.0 41.35 5.1 43.35 3.1 43.55 3.15 41.85 5.05 41.7 5.2 40.3 6.9 39.75 7.5 37.6 10.25 Q35.95 12.3 35.2 13.7 L35.1 13.8 34.8 14.45 35.85 14.85 36.3 15.05 37.05 14.2 37.15 14.1 39.15 12.2 40.3 11.15 43.35 8.55 Q44.7 7.4 46.1 6.35 L46.25 6.2 47.0 5.65 47.1 5.55 48.85 4.2 49.65 4.35 50.4 4.5 52.25 4.9" fill="#038adc" fill-rule="evenodd" stroke="none"/>
      <path d="M51.45 8.05 L53.95 7.75 54.35 7.8 Q55.7 9.1 56.95 11.3 L57.55 12.35 56.75 11.75 Q55.85 10.45 54.85 9.85 54.45 9.6 54.05 9.5 L53.85 9.4 51.45 8.05 M22.6 25.05 L23.7 27.0 22.65 29.8 21.5 33.0 19.4 40.25 18.25 39.75 17.55 39.5 16.1 38.9 11.05 36.9 11.65 34.65 Q12.85 30.2 14.4 26.45 L15.35 24.2 17.0 20.95 16.8 20.85 16.1 20.5 14.45 19.55 15.2 18.0 16.75 15.1 19.55 10.55 20.9 8.4 19.7 8.1 19.6 8.1 20.55 6.7 21.4 7.5 21.5 7.55 21.8 7.9 21.9 7.95 20.4 10.75 20.75 10.8 19.9 12.6 17.3 18.15 18.65 19.75 17.8 22.3 17.3 23.9 17.25 24.3 19.6 24.45 19.85 24.5 22.6 25.05 M18.15 45.65 Q17.85 46.7 17.7 47.85 L17.65 48.0 17.45 49.25 18.6 50.4 18.75 50.6 19.4 51.35 20.05 52.15 20.2 52.35 20.2 52.75 19.75 55.05 15.9 54.05 15.6 54.0 Q9.4 52.1 5.4 48.9 L5.05 50.75 Q4.35 55.35 4.2 57.45 L4.2 58.25 Q6.9 60.15 11.9 61.95 15.3 63.2 18.5 64.05 L18.85 64.15 18.85 64.8 18.85 64.9 18.9 65.8 19.0 65.85 19.35 65.95 19.95 66.2 20.45 66.4 20.45 65.65 20.5 64.6 23.0 65.15 23.05 66.75 23.05 68.8 23.2 71.8 Q23.35 73.75 23.65 74.25 L24.4 73.15 24.45 73.0 24.45 73.2 24.1 77.5 22.85 78.05 22.3 78.25 18.25 76.45 14.85 74.9 15.65 67.5 10.05 64.75 4.25 61.65 3.1 61.0 3.2 57.5 3.35 54.7 3.85 51.3 4.05 49.95 3.35 49.5 1.55 48.3 0.45 47.55 0.3 47.5 0.45 46.05 0.9 46.35 2.6 47.4 4.0 48.15 5.1 48.75 5.4 48.9 5.15 48.7 4.1 47.8 2.0 45.4 2.6 42.5 2.95 41.15 3.4 39.25 3.65 39.35 5.2 39.5 7.15 39.85 6.8 40.55 6.6 43.7 7.3 44.05 9.25 44.75 9.35 44.8 9.75 42.65 15.45 44.75 16.2 45.05 18.15 45.65 M21.5 55.45 L21.7 54.4 22.4 51.05 22.5 50.75 22.5 50.7 21.85 49.95 20.7 48.4 21.15 46.45 22.75 46.75 23.3 46.9 24.45 47.1 26.1 47.3 26.55 48.35 Q27.1 49.85 27.05 50.7 L25.6 54.55 24.95 56.05 23.6 55.85 21.5 55.45 M22.25 41.4 L22.45 40.55 Q23.95 34.45 25.75 29.55 L26.15 28.55 26.95 26.55 27.2 25.95 28.5 26.25 31.8 26.95 35.05 27.6 35.25 30.25 35.2 33.25 32.3 40.15 28.8 43.4 26.45 42.85 25.05 42.4 24.15 42.1 22.45 41.55 22.25 41.4" fill="#ffa720" fill-rule="evenodd" stroke="none"/>
      <path d="M40.45 22.95 L40.7 22.5 40.7 23.4 40.45 22.95 M54.05 9.5 Q54.45 9.6 54.85 9.85 55.85 10.45 56.75 11.75 L53.95 9.5 53.9 9.45 54.05 9.5" fill="#cd7000" fill-rule="evenodd" stroke="none"/>
      <path d="M46.8 6.6 L47.85 5.7 47.95 5.7 49.6 6.1 47.95 7.0 46.8 6.6 M39.1 14.75 L38.75 15.25 37.75 16.4 37.55 16.75 36.35 18.2 35.5 18.05 33.5 17.5 31.05 16.85 Q30.55 17.35 30.2 17.95 29.15 19.75 28.05 22.4 L26.55 26.0 25.7 28.1 25.1 29.65 24.5 31.35 22.4 37.35 21.25 41.05 20.4 40.7 20.1 40.6 21.1 36.8 22.4 32.05 22.5 31.8 23.15 29.85 23.3 29.4 24.4 26.55 23.4 25.25 Q21.95 23.35 21.35 21.85 L22.15 19.3 Q22.65 17.9 23.1 17.15 L24.15 17.1 24.0 17.45 Q23.35 18.95 22.95 21.1 L25.35 24.35 26.0 22.95 Q27.1 20.65 28.3 18.8 L29.8 16.45 30.45 15.35 31.35 14.1 31.9 13.35 33.8 13.55 32.75 14.75 33.75 15.05 36.7 16.0 38.05 14.45 38.75 14.7 39.1 14.75 M20.15 45.9 L19.65 48.45 21.2 49.9 21.75 50.25 Q21.45 51.0 21.3 51.8 L21.15 52.2 Q20.55 54.95 20.2 60.05 L19.95 65.5 19.45 65.25 19.05 65.05 19.05 62.45 Q19.4 57.0 20.2 53.2 L20.75 51.2 19.5 49.85 19.1 49.45 18.7 49.05 19.15 45.6 20.15 45.9 M39.85 4.75 L41.6 2.95 41.75 2.75 43.15 3.1 43.35 3.1 41.35 5.1 40.85 5.0 39.85 4.75" fill="#a6fdff" fill-rule="evenodd" stroke="none"/>
      <path d="M21.25 41.05 Q20.55 43.7 20.15 45.9 L19.15 45.6 20.1 40.6 20.4 40.7 21.25 41.05 M31.9 13.35 L32.85 12.0 34.45 10.3 39.85 4.75 40.85 5.0 41.35 5.1 40.55 6.0 37.35 9.45 36.8 10.1 33.8 13.55 31.9 13.35" fill="#fffeff" fill-rule="evenodd" stroke="none"/>
      <path d="M47.95 7.0 L45.7 8.4 Q43.6 10.0 41.35 12.35 L39.1 14.75 38.75 14.7 38.05 14.45 38.95 13.6 40.95 11.7 42.95 9.85 46.8 6.6 47.95 7.0" fill="#fffbf4" fill-rule="evenodd" stroke="none"/>
      <path d="M40.1 14.8 L41.45 15.15 41.7 15.2 43.7 15.7 Q42.8 17.05 41.8 19.15 L40.8 21.35 39.95 23.85 39.0 25.45 37.6 28.2 35.2 33.25 35.25 30.25 35.05 27.6 31.8 26.95 28.5 26.25 27.2 25.95 28.0 24.15 29.2 21.9 Q30.25 19.95 31.4 18.5 L31.55 18.25 34.35 18.65 34.5 18.7 35.7 19.05 35.75 19.05 36.5 19.35 37.25 18.35 38.55 16.6 38.85 16.25 39.95 15.05 40.1 14.8 M31.45 12.95 L31.2 13.25 Q30.5 14.15 29.95 15.0 L29.55 15.65 29.15 16.3 28.5 17.3 27.5 19.15 25.85 22.55 25.65 23.0 25.6 23.1 25.55 23.0 25.5 22.95 Q23.85 21.2 23.9 20.8 L24.9 17.75 24.95 17.6 25.15 17.05 25.7 15.5 23.05 15.35 22.35 17.15 22.3 17.35 21.65 19.0 21.05 21.1 20.9 21.55 20.95 21.65 21.25 22.2 22.15 24.2 22.6 25.05 19.85 24.5 19.6 24.45 17.25 24.3 17.3 23.9 17.8 22.3 18.65 19.75 17.3 18.15 19.9 12.6 20.75 10.8 24.4 11.5 24.7 11.55 25.8 11.75 26.0 11.8 30.0 12.6 31.45 12.95 M19.4 40.25 L19.4 40.3 18.2 45.25 18.15 45.65 16.2 45.05 15.45 44.75 9.75 42.65 10.2 40.55 10.65 38.55 11.05 36.9 16.1 38.9 17.55 39.5 18.25 39.75 19.4 40.25 M19.75 55.05 L19.5 56.35 Q18.85 59.85 18.75 61.2 L18.85 64.15 18.5 64.05 Q15.3 63.2 11.9 61.95 6.9 60.15 4.2 58.25 L4.2 57.45 Q4.35 55.35 5.05 50.75 L5.4 48.9 Q9.4 52.1 15.6 54.0 L15.9 54.05 19.75 55.05 M20.5 64.6 Q20.7 59.85 21.5 55.45 L23.6 55.85 24.95 56.05 25.6 54.55 27.05 50.7 Q27.1 49.85 26.55 48.35 L26.1 47.3 24.45 47.1 23.3 46.9 22.75 46.75 21.15 46.45 21.15 46.2 22.2 41.45 22.25 41.4 22.45 41.55 24.15 42.1 25.05 42.4 26.45 42.85 28.8 43.4 32.3 40.15 30.95 43.8 29.75 47.4 Q28.35 51.85 27.25 56.45 25.4 64.45 24.45 73.0 L24.4 73.15 23.65 74.25 Q23.35 73.75 23.2 71.8 L23.05 68.8 23.05 66.75 23.0 65.15 20.5 64.6 M0.45 46.05 L0.75 43.8 Q1.25 40.1 2.15 37.25 L2.9 35.65 4.9 36.25 5.25 36.35 7.65 37.25 7.15 39.85 5.2 39.5 3.65 39.35 3.4 39.25 2.95 41.15 2.6 42.5 2.0 45.4 4.1 47.8 5.15 48.7 5.4 48.9 5.1 48.75 4.0 48.15 2.6 47.4 0.9 46.35 0.45 46.05" fill="#ffe370" fill-rule="evenodd" stroke="none"/>
      <path d="M54.3 5.25 L52.25 4.9 50.4 4.5 49.65 4.35 48.85 4.2 47.55 3.95 43.55 3.15 43.35 3.1 43.15 3.1 41.75 2.75 41.65 2.75 41.3 2.7 37.95 1.9 36.8 1.6 35.45 2.75 31.15 6.9 25.45 6.6 Q25.45 5.6 26.6 4.05 L28.2 2.0 29.2 1.1 26.5 0.3 24.05 0.2 21.85 3.15 21.5 3.65 19.95 6.1 18.8 8.1 19.6 8.1 19.7 8.1 20.9 8.4 19.55 10.55 16.75 15.1 15.2 18.0 14.45 19.55 16.1 20.5 16.8 20.85 17.0 20.95 15.35 24.2 14.4 26.45 Q12.85 30.2 11.65 34.65 L11.05 36.9 10.65 38.55 10.2 40.55 9.75 42.65 9.35 44.8 9.25 44.75 7.3 44.05 6.6 43.7 6.8 40.55 7.15 39.85 7.65 37.25 5.25 36.35 4.9 36.25 2.9 35.65 2.15 37.25 Q1.25 40.1 0.75 43.8 L0.45 46.05 0.3 47.5 0.45 47.55 1.55 48.3 3.35 49.5 4.05 49.95 3.85 51.3 3.35 54.7 3.2 57.5 3.1 61.0 4.25 61.65 10.05 64.75 15.65 67.5 14.85 74.9 18.25 76.45 22.3 78.25 22.85 78.05 24.1 77.5 24.45 73.2 24.45 73.0 Q25.4 64.45 27.25 56.45 28.35 51.85 29.75 47.4 L30.95 43.8 32.3 40.15 35.2 33.25 37.6 28.2 39.0 25.45 39.95 23.85 40.45 22.95 40.7 23.4 M60.8 14.65 Q58.3 8.0 54.8 5.4 L54.6 5.3 54.3 5.25" fill="none" stroke="#a64d00" stroke-linecap="round" stroke-linejoin="round" stroke-width="1.0"/>
    </g>
  </defs>
</svg>
