<?xml version="1.0" encoding="UTF-8" standalone="no"?>
<svg xmlns:ffdec="https://www.free-decompiler.com/flash" xmlns:xlink="http://www.w3.org/1999/xlink" ffdec:objectType="frame" height="30.0px" width="30.0px" xmlns="http://www.w3.org/2000/svg">
  <g transform="matrix(1.0, 0.0, 0.0, 1.0, 0.0, 0.0)">
    <use ffdec:characterId="1" height="30.0" transform="matrix(1.0, 0.0, 0.0, 1.0, 0.0, 0.0)" width="30.0" xlink:href="#shape0"/>
    <use ffdec:characterId="5" height="30.0" transform="matrix(1.0, 0.0, 0.0, 1.0, 0.0, 0.0)" width="30.0" xlink:href="#sprite0"/>
  </g>
  <defs>
    <g id="shape0" transform="matrix(1.0, 0.0, 0.0, 1.0, 0.0, 0.0)">
      <path d="M0.0 0.0 L30.0 0.0 30.0 30.0 0.0 30.0 0.0 0.0" fill="#33cc66" fill-opacity="0.0" fill-rule="evenodd" stroke="none"/>
    </g>
    <g id="sprite0" transform="matrix(1.0, 0.0, 0.0, 1.0, 0.0, 0.1)">
      <use ffdec:characterId="2" height="30.0" transform="matrix(1.0, 0.0, 0.0, 1.0, 0.0, -0.1)" width="30.0" xlink:href="#shape1"/>
      <filter id="filter0">
        <feColorMatrix in="SourceGraphic" result="filterResult0" type="matrix" values="0 0 0 0 1.0,0 0 0 0 1.0,0 0 0 0 0.6,0 0 0 1 0"/>
        <feConvolveMatrix divisor="25.0" in="filterResult0" kernelMatrix="1 1 1 1 1 1 1 1 1 1 1 1 1 1 1 1 1 1 1 1 1 1 1 1 1" order="5 5" result="filterResult1"/>
        <feComposite in="SourceGraphic" in2="filterResult1" operator="over" result="filterResult2"/>
      </filter>
      <use ffdec:characterId="4" filter="url(#filter0)" height="38.7" transform="matrix(0.5939, 0.0, 0.0, 0.5939, 2.5592, 5.0592)" width="37.45" xlink:href="#sprite1"/>
    </g>
    <g id="shape1" transform="matrix(1.0, 0.0, 0.0, 1.0, 0.0, 0.1)">
      <path d="M3.3 -0.1 L26.7 -0.1 Q30.0 -0.1 30.0 3.2 L30.0 26.6 Q30.0 29.9 26.7 29.9 L3.3 29.9 Q0.0 29.9 0.0 26.6 L0.0 3.2 Q0.0 -0.1 3.3 -0.1" fill="#660000" fill-rule="evenodd" stroke="none"/>
    </g>
    <g id="sprite1" transform="matrix(1.0, 0.0, 0.0, 1.0, 1.5, 1.5)">
      <use ffdec:characterId="3" height="38.7" transform="matrix(1.0, 0.0, 0.0, 1.0, -1.5, -1.5)" width="37.45" xlink:href="#shape2"/>
    </g>
    <g id="shape2" transform="matrix(1.0, 0.0, 0.0, 1.0, 1.5, 1.5)">
      <path d="M19.35 10.35 L0.0 0.0 13.8 2.9 14.05 3.0 21.75 4.85 24.5 5.55 24.9 5.7 28.45 6.6 28.65 6.65 28.85 6.75 33.55 8.1 34.45 8.35 31.85 16.2 31.85 15.25 30.65 15.7 27.8 16.85 28.55 14.85 29.3 13.05 29.5 12.45 29.75 11.85 30.2 10.75 30.1 10.65 30.4 10.55 30.0 10.65 29.65 10.55 30.4 9.95 31.95 8.85 Q31.0 7.95 28.7 6.8 L28.65 6.8 24.3 8.4 20.75 7.0 21.3 7.65 21.65 8.1 22.5 9.05 21.15 9.55 19.35 10.35 M19.2 4.9 L16.2 4.6 15.1 4.4 12.1 4.0 12.05 4.0 14.2 6.2 16.85 8.85 18.2 7.7 21.35 5.2 19.2 4.9 M22.3 27.1 L20.9 26.25 19.35 25.5 Q16.75 24.1 14.0 23.15 L13.8 23.05 12.25 22.55 15.8 17.3 15.95 17.25 15.85 17.35 15.05 20.35 Q15.85 20.0 17.75 19.5 L19.1 19.1 19.2 19.1 19.55 19.0 19.35 19.25 19.35 19.35 19.1 19.65 19.65 20.4 19.6 20.45 16.7 21.7 19.35 24.1 20.1 24.85 21.05 25.9 22.3 27.1" fill="#f7e97f" fill-rule="evenodd" stroke="none"/>
      <path d="M31.85 16.2 L30.65 19.65 30.55 19.8 30.5 20.45 33.25 35.3 23.2 27.7 23.2 27.65 22.7 27.35 22.3 27.1 21.05 25.9 20.1 24.85 19.35 24.1 16.7 21.7 19.6 20.45 19.65 20.4 19.1 19.65 19.35 19.35 19.35 19.25 19.55 19.0 19.2 19.1 19.1 19.1 17.75 19.5 Q15.85 20.0 15.05 20.35 L15.85 17.35 15.95 17.25 16.1 16.85 19.35 11.35 19.75 10.6 19.35 10.35 21.15 9.55 22.5 9.05 24.6 11.8 23.2 13.7 22.15 15.25 19.85 18.55 25.35 14.3 21.55 18.55 22.0 19.35 19.65 20.4 19.75 20.55 20.65 21.6 30.2 32.55 26.9 19.8 26.9 19.5 26.95 19.4 27.8 17.1 27.8 16.85 25.5 17.9 26.55 15.65 28.0 12.6 27.8 12.4 29.55 11.1 29.75 11.85 29.5 12.45 29.3 13.05 28.55 14.85 27.8 16.85 30.65 15.7 31.85 15.25 31.85 16.2 M24.3 8.4 L28.65 6.8 28.7 6.8 Q31.0 7.95 31.95 8.85 L30.4 9.95 29.65 10.55 29.4 10.4 27.75 9.75 24.3 8.4 M19.2 4.9 L21.35 5.2 18.2 7.7 16.85 8.85 14.2 6.2 12.05 4.0 12.1 4.0 15.1 4.4 16.2 4.6 19.2 4.9" fill="#fcd34a" fill-rule="evenodd" stroke="none"/>
      <path d="M29.65 10.55 L30.0 10.65 30.1 10.65 30.2 10.75 29.75 11.85 29.55 11.1 27.8 12.4 26.75 11.45 25.5 10.2 25.75 11.45 26.1 13.45 25.35 14.3 27.8 12.4 28.0 12.6 26.55 15.65 25.5 17.9 23.2 18.85 22.0 19.35 21.55 18.55 25.35 14.3 19.85 18.55 22.15 15.25 23.2 13.7 24.6 11.8 22.5 9.05 21.65 8.1 21.3 7.65 20.75 7.0 24.3 8.4 27.75 9.75 29.4 10.4 29.65 10.55 M25.5 17.9 L27.8 16.85 27.8 17.1 26.95 19.4 26.9 19.5 26.9 19.8 30.2 32.55 20.65 21.6 19.75 20.55 19.65 20.4 22.0 19.35 23.65 21.8 26.55 25.35 25.95 21.7 25.3 18.4 25.5 17.9" fill="#ff942c" fill-rule="evenodd" stroke="none"/>
      <path d="M25.35 14.3 L26.1 13.45 25.75 11.45 25.5 10.2 26.75 11.45 27.8 12.4 25.35 14.3 M22.0 19.35 L23.2 18.85 25.5 17.9 25.3 18.4 25.95 21.7 26.55 25.35 23.65 21.8 22.0 19.35" fill="#b15801" fill-rule="evenodd" stroke="none"/>
      <path d="M19.35 10.35 L0.0 0.0 13.8 2.9 14.05 3.0 21.75 4.85 24.5 5.55 24.9 5.7 28.45 6.6 28.65 6.65 28.85 6.75 33.55 8.1 34.45 8.35 31.85 16.2 30.65 19.65 30.55 19.8 30.5 20.45 33.25 35.3 33.3 35.7 M15.95 17.25 L16.1 16.85 19.35 11.35 19.75 10.6 19.35 10.35 M15.95 17.25 L15.8 17.3 12.25 22.55 13.8 23.05 14.0 23.15 Q16.75 24.1 19.35 25.5 L20.9 26.25 22.3 27.1 22.7 27.35 23.2 27.7 33.25 35.3 M23.2 27.65 L22.7 27.35" fill="none" stroke="#ff6600" stroke-linecap="round" stroke-linejoin="round" stroke-width="3.0"/>
      <path d="M29.65 10.55 L30.4 9.95 31.95 8.85 Q31.0 7.95 28.7 6.8 L28.65 6.8 24.3 8.4 20.75 7.0 21.3 7.65 21.65 8.1 22.5 9.05 21.15 9.55 19.35 10.35 0.0 0.0 13.8 2.9 14.05 3.0 21.75 4.85 24.5 5.55 24.9 5.7 28.45 6.6 28.65 6.65 28.85 6.75 33.55 8.1 34.45 8.35 31.85 16.2 31.85 15.25 30.65 15.7 27.8 16.85 28.55 14.85 29.3 13.05 29.5 12.45 29.75 11.85 30.2 10.75 30.1 10.65 30.4 10.55 30.0 10.65 29.65 10.55 M19.2 4.9 L16.2 4.6 15.1 4.4 12.1 4.0 12.05 4.0 14.2 6.2 16.85 8.85 18.2 7.7 21.35 5.2 19.2 4.9 M15.95 17.25 L15.85 17.35 15.05 20.35 Q15.85 20.0 17.75 19.5 L19.1 19.1 19.2 19.1 19.55 19.0 19.35 19.25 19.35 19.35 19.1 19.65 19.65 20.4 19.6 20.45 16.7 21.7 19.35 24.1 20.1 24.85 21.05 25.9 22.3 27.1 20.9 26.25 19.35 25.5 Q16.75 24.1 14.0 23.15 L13.8 23.05 12.25 22.55 15.8 17.3 15.95 17.25" fill="#f7e97f" fill-rule="evenodd" stroke="none"/>
      <path d="M24.3 8.4 L28.65 6.8 28.7 6.8 Q31.0 7.95 31.95 8.85 L30.4 9.95 29.65 10.55 29.4 10.4 27.75 9.75 24.3 8.4 M29.75 11.85 L29.5 12.45 29.3 13.05 28.55 14.85 27.8 16.85 30.65 15.7 31.85 15.25 31.85 16.2 30.65 19.65 30.55 19.8 30.5 20.45 33.25 35.3 23.2 27.7 23.2 27.65 22.7 27.35 22.3 27.1 21.05 25.9 20.1 24.85 19.35 24.1 16.7 21.7 19.6 20.45 19.65 20.4 19.1 19.65 19.35 19.35 19.35 19.25 19.55 19.0 19.2 19.1 19.1 19.1 17.75 19.5 Q15.85 20.0 15.05 20.35 L15.85 17.35 15.95 17.25 16.1 16.85 19.35 11.35 19.75 10.6 19.35 10.35 21.15 9.55 22.5 9.05 24.6 11.8 23.2 13.7 22.15 15.25 19.85 18.55 25.35 14.3 21.55 18.55 22.0 19.35 19.65 20.4 19.75 20.55 20.65 21.6 30.2 32.55 26.9 19.8 26.9 19.5 26.95 19.4 27.8 17.1 27.8 16.85 25.5 17.9 26.55 15.65 28.0 12.6 27.8 12.4 29.55 11.1 29.75 11.85 M19.2 4.9 L21.35 5.2 18.2 7.7 16.85 8.85 14.2 6.2 12.05 4.0 12.1 4.0 15.1 4.4 16.2 4.6 19.2 4.9" fill="#fcd34a" fill-rule="evenodd" stroke="none"/>
      <path d="M29.65 10.55 L30.0 10.65 30.1 10.65 30.2 10.75 29.75 11.85 29.55 11.1 27.8 12.4 26.75 11.45 25.5 10.2 25.75 11.45 26.1 13.45 25.35 14.3 27.8 12.4 28.0 12.6 26.55 15.65 25.5 17.9 23.2 18.85 22.0 19.35 21.55 18.55 25.35 14.3 19.85 18.55 22.15 15.25 23.2 13.7 24.6 11.8 22.5 9.05 21.65 8.1 21.3 7.65 20.75 7.0 24.3 8.4 27.75 9.75 29.4 10.4 29.65 10.55 M25.5 17.9 L27.8 16.85 27.8 17.1 26.95 19.4 26.9 19.5 26.9 19.8 30.2 32.55 20.65 21.6 19.75 20.55 19.65 20.4 22.0 19.35 23.65 21.8 26.55 25.35 25.95 21.7 25.3 18.4 25.5 17.9" fill="#ff942c" fill-rule="evenodd" stroke="none"/>
      <path d="M25.35 14.3 L26.1 13.45 25.75 11.45 25.5 10.2 26.75 11.45 27.8 12.4 25.35 14.3 M22.0 19.35 L23.2 18.85 25.5 17.9 25.3 18.4 25.95 21.7 26.55 25.35 23.65 21.8 22.0 19.35" fill="#b15801" fill-rule="evenodd" stroke="none"/>
      <path d="M31.85 16.2 L34.45 8.35 33.55 8.1 28.85 6.75 28.65 6.65 28.45 6.6 24.9 5.7 24.5 5.55 21.75 4.85 14.05 3.0 13.8 2.9 0.0 0.0 19.35 10.35 19.75 10.6 19.35 11.35 16.1 16.85 15.95 17.25 15.8 17.3 12.25 22.55 13.8 23.05 14.0 23.15 Q16.75 24.1 19.35 25.5 L20.9 26.25 22.3 27.1" fill="none" stroke="#fffeb4" stroke-linecap="round" stroke-linejoin="round" stroke-width="1.0"/>
      <path d="M31.85 16.2 L30.65 19.65 30.55 19.8 30.5 20.45 33.25 35.3 33.3 35.7 M22.3 27.1 L22.7 27.35 23.2 27.65 M23.2 27.7 L33.25 35.3 M22.7 27.35 L23.2 27.7" fill="none" stroke="#fff3a1" stroke-linecap="round" stroke-linejoin="round" stroke-width="1.0"/>
    </g>
  </defs>
</svg>
