<?xml version="1.0" encoding="UTF-8" standalone="no"?>
<svg xmlns:ffdec="https://www.free-decompiler.com/flash" xmlns:xlink="http://www.w3.org/1999/xlink" ffdec:objectType="frame" height="30.1px" width="30.0px" xmlns="http://www.w3.org/2000/svg">
  <g transform="matrix(1.0, 0.0, 0.0, 1.0, 0.0, 0.0)">
    <use ffdec:characterId="1" height="30.0" transform="matrix(1.0, 0.0, 0.0, 1.0, 0.0, 0.0)" width="30.0" xlink:href="#shape0"/>
    <use ffdec:characterId="5" height="30.0" transform="matrix(1.0, 0.0, 0.0, 1.0, 0.0, 0.1)" width="30.0" xlink:href="#sprite0"/>
  </g>
  <defs>
    <g id="shape0" transform="matrix(1.0, 0.0, 0.0, 1.0, 0.0, 0.0)">
      <path d="M0.0 0.0 L30.0 0.0 30.0 30.0 0.0 30.0 0.0 0.0" fill="#33cc66" fill-opacity="0.0" fill-rule="evenodd" stroke="none"/>
    </g>
    <g id="sprite0" transform="matrix(1.0, 0.0, 0.0, 1.0, 0.0, 0.0)">
      <use ffdec:characterId="2" height="30.0" transform="matrix(1.0, 0.0, 0.0, 1.0, 0.0, 0.0)" width="30.0" xlink:href="#shape1"/>
      <filter id="filter0">
        <feColorMatrix in="SourceGraphic" result="filterResult0" type="matrix" values="0 0 0 0 1.0,0 0 0 0 1.0,0 0 0 0 0.4,0 0 0 1 0"/>
        <feConvolveMatrix divisor="25.0" in="filterResult0" kernelMatrix="1 1 1 1 1 1 1 1 1 1 1 1 1 1 1 1 1 1 1 1 1 1 1 1 1" order="5 5" result="filterResult1"/>
        <feConvolveMatrix divisor="25.0" in="filterResult1" kernelMatrix="1 1 1 1 1 1 1 1 1 1 1 1 1 1 1 1 1 1 1 1 1 1 1 1 1" order="5 5" result="filterResult2"/>
        <feConvolveMatrix divisor="25.0" in="filterResult2" kernelMatrix="1 1 1 1 1 1 1 1 1 1 1 1 1 1 1 1 1 1 1 1 1 1 1 1 1" order="5 5" result="filterResult3"/>
        <feComposite in="SourceGraphic" in2="filterResult3" operator="over" result="filterResult4"/>
      </filter>
      <use ffdec:characterId="4" filter="url(#filter0)" height="43.5" transform="matrix(0.5178, -0.0609, 0.0609, 0.5178, 3.0607, 5.2715)" width="44.4" xlink:href="#sprite1"/>
    </g>
    <g id="shape1" transform="matrix(1.0, 0.0, 0.0, 1.0, 0.0, 0.0)">
      <path d="M3.3 0.0 L26.7 0.0 Q30.0 0.0 30.0 3.3 L30.0 26.7 Q30.0 30.0 26.7 30.0 L3.3 30.0 Q0.0 30.0 0.0 26.7 L0.0 3.3 Q0.0 0.0 3.3 0.0" fill="#999999" fill-rule="evenodd" stroke="none"/>
    </g>
    <g id="sprite1" transform="matrix(1.0, 0.0, 0.0, 1.0, 0.5, 0.5)">
      <use ffdec:characterId="3" height="43.5" transform="matrix(1.0, 0.0, 0.0, 1.0, -0.5, -0.5)" width="44.4" xlink:href="#shape2"/>
    </g>
    <g id="shape2" transform="matrix(1.0, 0.0, 0.0, 1.0, 0.5, 0.5)">
      <path d="M22.35 9.45 L23.05 8.25 23.15 8.0 23.75 7.05 23.8 6.95 24.55 5.6 25.0 4.8 25.25 4.4 25.3 4.3 25.35 4.2 25.4 4.25 25.6 4.25 26.1 4.35 26.2 4.35 29.4 4.55 31.8 4.4 32.85 4.0 35.6 2.95 38.85 1.7 39.4 1.45 40.45 1.05 41.9 0.55 42.45 0.35 43.05 0.15 43.15 0.1 43.2 0.1 43.4 0.0 43.25 0.3 43.2 0.4 43.15 0.45 43.1 0.55 43.0 0.75 42.65 1.3 42.1 2.35 41.8 2.9 41.0 4.4 40.55 5.35 40.55 5.4 40.2 6.05 38.15 10.85 37.8 11.8 37.45 12.65 37.3 13.0 37.25 13.2 37.2 13.3 37.05 13.75 36.95 13.9 36.9 14.1 36.75 14.5 36.75 15.1 36.7 15.3 36.7 16.1 36.6 18.5 36.4 18.6 36.35 18.6 36.25 18.65 35.85 18.85 35.5 19.0 34.7 19.35 34.45 19.45 33.5 19.9 31.7 20.7 31.15 20.95 30.85 21.05 30.75 21.15 30.1 21.45 29.9 21.5 29.9 21.55 29.8 21.55 29.8 21.6 29.75 21.6 29.65 21.65 29.6 21.65 29.8 21.0 30.05 19.95 30.5 18.0 31.1 15.35 26.7 11.7 25.65 10.7 25.05 6.2 22.6 9.4 22.35 9.45 M36.25 18.65 L35.8 15.65 35.55 13.85 35.45 13.15 35.45 13.1 34.05 15.1 31.05 19.7 31.5 19.6 36.25 18.65 M26.3 8.55 L25.75 9.9 25.7 10.1 25.7 10.3 25.95 10.5 27.45 11.85 31.15 14.95 Q32.0 14.4 33.2 13.75 L34.5 13.0 35.4 12.5 35.8 12.25 35.9 12.15 Q37.4 9.2 39.35 6.0 L39.65 5.45 42.95 0.4 34.5 4.15 32.4 5.1 31.45 5.55 31.45 5.5 29.7 5.25 27.65 4.85 25.5 4.45 25.5 4.55 25.5 4.7 25.75 5.35 26.25 6.65 26.65 7.65 26.6 7.85 26.45 8.15 26.35 8.35 26.3 8.55" fill="#ed4d33" fill-rule="evenodd" stroke="none"/>
      <path d="M31.45 5.55 L32.4 5.1 34.5 4.15 42.95 0.4 39.65 5.45 39.35 6.0 Q37.4 9.2 35.9 12.15 L35.8 12.25 35.4 12.5 34.5 13.0 33.2 13.75 Q32.0 14.4 31.15 14.95 L27.45 11.85 25.95 10.5 25.7 10.3 25.7 10.1 25.75 9.9 26.3 8.55 26.55 8.65 29.8 10.05 30.55 10.35 33.35 9.0 37.15 7.15 38.85 3.7 34.05 4.9 31.5 5.55 31.45 5.55 M26.25 6.65 L25.75 5.35 25.5 4.7 25.5 4.55 25.5 4.45 27.65 4.85 29.7 5.25 27.0 6.3 26.25 6.65" fill="#ffffff" fill-rule="evenodd" stroke="none"/>
      <path d="M36.25 18.65 L31.5 19.6 31.05 19.7 34.05 15.1 35.45 13.1 35.45 13.15 35.55 13.85 35.8 15.65 36.25 18.65 M31.45 5.55 L31.5 5.55 34.05 4.9 38.85 3.7 37.15 7.15 33.35 9.0 30.55 10.35 29.8 10.05 26.55 8.65 26.3 8.55 26.35 8.35 26.45 8.15 26.6 7.85 26.65 7.65 26.25 6.65 27.0 6.3 29.7 5.25 31.45 5.5 31.45 5.55" fill="#ea9da7" fill-rule="evenodd" stroke="none"/>
      <path d="M11.8 13.5 L14.35 12.95 17.8 12.6 18.75 12.2 19.05 12.1 21.15 11.25 22.1 10.85 Q22.95 10.5 23.65 10.3 L24.35 10.05 25.7 10.95 26.0 11.15 28.4 13.35 27.6 13.25 26.45 13.15 25.9 13.15 24.3 13.95 25.4 14.55 Q26.65 15.35 27.3 16.35 L26.15 15.75 25.35 15.45 24.7 15.55 22.0 16.05 21.8 16.1 21.4 16.2 20.05 15.55 18.9 15.0 18.1 14.65 16.2 13.8 11.8 13.5 M23.6 21.25 L23.9 19.5 23.65 18.4 23.55 18.05 23.25 17.3 23.3 17.3 25.35 16.75 25.6 16.85 26.65 17.45 27.65 17.05 28.0 16.9 28.15 16.85 29.05 16.45 27.35 18.55 27.3 18.6 25.0 22.9 24.85 23.2 22.8 26.95 24.0 23.45 24.25 22.75 25.05 19.9 24.65 20.25 24.0 20.85 23.75 21.15 23.6 21.25" fill="#fffac2" fill-rule="evenodd" stroke="none"/>
      <path d="M22.35 9.45 L22.6 9.4 23.35 9.3 23.6 9.45 24.35 10.05 23.65 10.3 Q22.95 10.5 22.1 10.85 L21.15 11.25 19.05 12.1 18.75 12.2 17.8 12.6 14.35 12.95 11.8 13.5 11.3 13.45 9.85 13.5 Q5.4 16.35 0.65 20.2 L0.4 20.4 0.9 19.55 1.45 19.05 9.8 12.3 12.5 11.45 14.1 11.0 17.25 10.25 21.4 9.55 22.35 9.45 M27.3 16.35 Q26.65 15.35 25.4 14.55 L24.3 13.95 25.9 13.15 26.45 13.15 27.6 13.25 28.4 13.35 30.1 15.15 30.25 15.3 29.85 15.45 28.9 15.9 27.5 16.45 27.3 16.35 M23.75 21.15 L24.0 20.85 24.65 20.25 25.05 19.9 24.25 22.75 24.0 23.45 22.8 26.95 24.85 23.2 25.0 22.9 27.3 18.6 27.35 18.55 29.05 16.45 29.55 16.25 26.15 23.2 26.1 23.3 Q23.05 29.15 20.5 32.95 L22.9 24.6 23.5 22.2 23.75 21.15 M0.75 29.55 L1.3 28.2 1.6 27.5 2.5 25.25 5.15 23.25 14.65 15.9 14.85 15.95 10.8 19.3 3.7 25.45 2.8 27.0 1.8 28.6 0.75 29.55" fill="#ffe55f" fill-rule="evenodd" stroke="none"/>
      <path d="M22.6 9.4 L25.05 6.2 25.65 10.7 26.7 11.7 31.1 15.35 30.5 18.0 30.05 19.95 29.8 21.0 29.6 21.65 28.75 22.05 27.35 22.7 27.85 21.7 30.1 17.15 30.35 16.65 30.75 15.9 30.65 15.75 30.25 15.3 30.1 15.15 28.4 13.35 26.0 11.15 25.7 10.95 24.35 10.05 23.6 9.45 23.35 9.3 22.6 9.4" fill="#741600" fill-rule="evenodd" stroke="none"/>
      <path d="M11.8 13.5 L16.2 13.8 18.1 14.65 18.9 15.0 20.05 15.55 21.4 16.2 21.8 16.1 22.0 16.05 24.7 15.55 25.35 15.45 26.15 15.75 27.3 16.35 27.5 16.45 28.9 15.9 29.85 15.45 30.25 15.3 30.65 15.75 29.55 16.25 29.05 16.45 28.15 16.85 28.0 16.9 27.65 17.05 26.65 17.45 25.6 16.85 25.35 16.75 23.3 17.3 23.25 17.3 23.55 18.05 23.65 18.4 23.9 19.5 23.6 21.25 23.4 22.1 23.25 22.5 21.1 28.9 19.8 32.35 17.75 37.2 16.25 39.55 14.85 41.65 13.75 42.5 15.6 37.75 17.3 33.0 17.2 24.55 17.0 24.5 14.8 23.5 13.9 23.45 Q11.0 24.75 7.1 27.0 L0.8 30.85 0.3 31.2 0.0 31.45 0.75 29.55 1.8 28.6 3.4 27.15 3.7 26.85 8.5 22.45 Q13.0 18.5 16.45 16.4 L14.85 15.95 14.65 15.9 14.85 15.75 13.6 15.5 10.9 15.2 9.25 15.25 Q5.9 16.8 1.75 19.5 L0.65 20.2 Q5.4 16.35 9.85 13.5 L11.3 13.45 11.8 13.5 M21.85 19.75 L21.8 18.25 19.65 17.55 17.55 16.8 17.25 16.9 16.85 17.5 15.85 19.1 15.8 19.15 15.85 19.5 16.1 20.8 16.5 22.3 16.65 22.35 Q18.35 23.05 19.9 23.0 L19.9 23.05 20.3 22.85 20.6 22.45 21.8 20.95 21.85 20.8 21.85 19.75" fill="#a8460a" fill-rule="evenodd" stroke="none"/>
      <path d="M30.65 15.75 L30.75 15.9 30.35 16.65 30.1 17.15 27.85 21.7 27.35 22.7 27.0 23.4 26.2 24.85 Q23.05 30.75 19.45 36.1 L16.6 40.2 16.15 40.6 15.35 41.25 14.85 41.65 16.25 39.55 17.75 37.2 19.8 32.35 21.1 28.9 23.25 22.5 23.4 22.1 23.6 21.25 23.75 21.15 23.5 22.2 22.9 24.6 20.5 32.95 Q23.05 29.15 26.1 23.3 L26.15 23.2 29.55 16.25 30.65 15.75 M14.85 15.95 L16.45 16.4 Q13.0 18.5 8.5 22.45 L3.7 26.85 3.4 27.15 1.8 28.6 2.8 27.0 3.7 25.45 10.8 19.3 14.85 15.95" fill="#f79c12" fill-rule="evenodd" stroke="none"/>
      <path d="M21.85 19.75 L21.85 20.8 21.8 20.95 20.6 22.45 20.3 22.85 19.9 23.05 19.9 23.0 Q18.35 23.05 16.65 22.35 L16.5 22.3 16.1 20.8 15.85 19.5 15.8 19.15 15.85 19.1 16.85 17.5 17.25 16.9 17.55 16.8 19.65 17.55 21.8 18.25 21.85 19.75" fill="#722b00" fill-rule="evenodd" stroke="none"/>
      <path d="M36.25 18.65 L36.35 18.6 36.4 18.6 36.6 18.5 36.7 16.1 36.7 15.3 36.75 15.1 36.75 14.5 36.9 14.1 36.95 13.9 37.05 13.75 37.2 13.3 37.25 13.2 37.3 13.0 37.45 12.65 37.8 11.8 38.15 10.85 40.2 6.05 40.55 5.4 40.55 5.35 41.0 4.4 41.8 2.9 42.1 2.35 42.65 1.3 43.0 0.75 43.1 0.55 43.15 0.45 43.2 0.4 43.25 0.3 43.4 0.0 43.2 0.1 43.15 0.1 43.05 0.15 42.45 0.35 41.9 0.55 40.45 1.05 39.4 1.45 38.85 1.7 35.6 2.95 32.85 4.0 31.8 4.4 29.4 4.55 26.2 4.35 26.1 4.35 25.6 4.25 25.4 4.25 25.35 4.2 25.3 4.3 25.25 4.4 25.0 4.8 24.55 5.6 23.8 6.95 23.75 7.05 23.15 8.0 23.05 8.25 22.35 9.45 22.6 9.4 23.35 9.3 23.6 9.45 24.35 10.05 25.7 10.95 26.0 11.15 28.4 13.35 30.1 15.15 30.25 15.3 30.65 15.75 30.75 15.9 30.35 16.65 30.1 17.15 27.85 21.7 27.35 22.7 28.75 22.05 29.6 21.65 29.65 21.65 29.75 21.6 29.8 21.6 29.8 21.55 M29.9 21.55 L29.9 21.5 30.1 21.45 30.75 21.15 30.85 21.05 31.15 20.95 31.7 20.7 33.5 19.9 34.45 19.45 34.7 19.35 35.5 19.0 35.85 18.85 36.25 18.65 M0.65 20.2 L0.4 20.4 0.9 19.55 1.45 19.05 9.8 12.3 12.5 11.45 14.1 11.0 17.25 10.25 21.4 9.55 22.35 9.45 M27.35 22.7 L27.0 23.4 26.2 24.85 Q23.05 30.75 19.45 36.1 L16.6 40.2 16.15 40.6 15.35 41.25 14.85 41.65 13.75 42.5 15.6 37.75 17.3 33.0 17.2 24.55 17.0 24.5 14.8 23.5 13.9 23.45 Q11.0 24.75 7.1 27.0 L0.8 30.85 0.3 31.2 0.0 31.45 0.75 29.55 1.3 28.2 1.6 27.5 2.5 25.25 5.15 23.25 14.65 15.9 14.85 15.75 13.6 15.5 10.9 15.2 9.25 15.25 Q5.9 16.8 1.75 19.5 L0.65 20.2" fill="none" stroke="#660000" stroke-linecap="round" stroke-linejoin="round" stroke-width="1.0"/>
      <path d="M21.45 10.9 L23.05 8.25 23.15 8.0 23.75 7.05 23.8 6.95 24.55 5.6 25.0 4.8 25.25 4.4 25.3 4.3 25.35 4.2 25.4 4.25 25.6 4.25 26.1 4.35 26.2 4.35 29.4 4.55 31.8 4.4 32.85 4.0 35.6 2.95 38.85 1.7 39.4 1.45 40.45 1.05 41.9 0.55 42.45 0.35 43.05 0.15 43.15 0.1 43.2 0.1 43.4 0.0 43.25 0.3 43.2 0.4 43.15 0.45 43.1 0.55 43.0 0.75 42.65 1.3 42.1 2.35 41.8 2.9 41.0 4.4 40.55 5.35 40.55 5.4 40.2 6.05 38.15 10.85 37.8 11.8 37.45 12.65 37.3 13.0 37.25 13.2 37.2 13.3 37.05 13.75 36.95 13.9 36.9 14.1 36.75 14.5 36.75 15.1 36.7 15.3 36.7 16.1 36.6 18.5 36.4 18.6 36.35 18.6 36.25 18.65 35.85 18.85 35.5 19.0 34.7 19.35 34.45 19.45 33.5 19.9 31.7 20.7 31.15 20.95 30.85 21.05 30.75 21.15 30.1 21.45 29.9 21.5 29.9 21.55 29.8 21.55 29.8 21.6 29.75 21.6 29.65 21.65 29.6 21.65 29.8 21.0 30.05 19.95 30.5 18.0 31.1 15.35 26.7 11.7 25.65 10.7 25.05 6.2 21.65 10.6 21.45 10.9 M36.25 18.65 L35.8 15.65 35.55 13.85 35.45 13.15 35.45 13.1 34.05 15.1 31.05 19.7 31.5 19.6 36.25 18.65 M26.3 8.55 L25.75 9.9 25.7 10.1 25.7 10.3 25.95 10.5 27.45 11.85 31.15 14.95 Q32.0 14.4 33.2 13.75 L34.5 13.0 35.4 12.5 35.8 12.25 35.9 12.15 Q37.4 9.2 39.35 6.0 L39.65 5.45 42.95 0.4 34.5 4.15 32.4 5.1 31.45 5.55 31.45 5.5 29.7 5.25 27.65 4.85 25.5 4.45 25.5 4.55 25.5 4.7 25.75 5.35 26.25 6.65 26.65 7.65 26.6 7.85 26.45 8.15 26.35 8.35 26.3 8.55" fill="#ed4d33" fill-rule="evenodd" stroke="none"/>
      <path d="M31.45 5.55 L32.4 5.1 34.5 4.15 42.95 0.4 39.65 5.45 39.35 6.0 Q37.4 9.2 35.9 12.15 L35.8 12.25 35.4 12.5 34.5 13.0 33.2 13.75 Q32.0 14.4 31.15 14.95 L27.45 11.85 25.95 10.5 25.7 10.3 25.7 10.1 25.75 9.9 26.3 8.55 26.55 8.65 29.8 10.05 30.55 10.35 33.35 9.0 37.15 7.15 38.85 3.7 34.05 4.9 31.5 5.55 31.45 5.55 M26.25 6.65 L25.75 5.35 25.5 4.7 25.5 4.55 25.5 4.45 27.65 4.85 29.7 5.25 27.0 6.3 26.25 6.65" fill="#ffffff" fill-rule="evenodd" stroke="none"/>
      <path d="M36.25 18.65 L31.5 19.6 31.05 19.7 34.05 15.1 35.45 13.1 35.45 13.15 35.55 13.85 35.8 15.65 36.25 18.65 M31.45 5.55 L31.5 5.55 34.05 4.9 38.85 3.7 37.15 7.15 33.35 9.0 30.55 10.35 29.8 10.05 26.55 8.65 26.3 8.55 26.35 8.35 26.45 8.15 26.6 7.85 26.65 7.65 26.25 6.65 27.0 6.3 29.7 5.25 31.45 5.5 31.45 5.55" fill="#ea9da7" fill-rule="evenodd" stroke="none"/>
      <path d="M21.45 10.9 L21.65 10.6 25.05 6.2 25.65 10.7 26.7 11.7 31.1 15.35 30.5 18.0 30.05 19.95 29.8 21.0 29.6 21.65 28.75 22.05 25.55 23.55 24.6 23.0 22.5 21.4 Q20.35 19.5 19.55 18.1 L20.15 14.9 20.15 14.75 20.75 11.8 21.15 11.2 21.3 11.05 21.35 11.0 21.45 10.9" fill="#741600" fill-rule="evenodd" stroke="none"/>
      <path d="M36.25 18.65 L36.35 18.6 36.4 18.6 36.6 18.5 36.7 16.1 36.7 15.3 36.75 15.1 36.75 14.5 36.9 14.1 36.95 13.9 37.05 13.75 37.2 13.3 37.25 13.2 37.3 13.0 37.45 12.65 37.8 11.8 38.15 10.85 40.2 6.05 40.55 5.4 40.55 5.35 41.0 4.4 41.8 2.9 42.1 2.35 42.65 1.3 43.0 0.75 43.1 0.55 43.15 0.45 43.2 0.4 43.25 0.3 43.4 0.0 43.2 0.1 43.15 0.1 43.05 0.15 42.45 0.35 41.9 0.55 40.45 1.05 39.4 1.45 38.85 1.7 35.6 2.95 32.85 4.0 31.8 4.4 29.4 4.55 26.2 4.35 26.1 4.35 25.6 4.25 25.4 4.25 25.35 4.2 25.3 4.3 25.25 4.4 25.0 4.8 24.55 5.6 23.8 6.95 23.75 7.05 23.15 8.0 23.05 8.25 21.45 10.9 21.35 11.0 21.3 11.05 21.15 11.2 20.75 11.8 20.15 14.75 20.15 14.9 19.55 18.1 Q20.35 19.5 22.5 21.4 L24.6 23.0 25.55 23.55 28.75 22.05 29.6 21.65 29.65 21.65 29.75 21.6 29.8 21.6 29.8 21.55 M29.9 21.55 L29.9 21.5 30.1 21.45 30.75 21.15 30.85 21.05 31.15 20.95 31.7 20.7 33.5 19.9 34.45 19.45 34.7 19.35 35.5 19.0 35.85 18.85 36.25 18.65" fill="none" stroke="#720800" stroke-linecap="round" stroke-linejoin="round" stroke-width="0.5"/>
      <path d="M24.35 10.05 L23.65 10.3 Q22.95 10.5 22.1 10.85 L19.05 12.1 18.75 12.2 17.8 12.6 14.35 12.95 11.8 13.5 11.3 13.45 9.85 13.5 Q5.4 16.35 0.65 20.2 L0.4 20.4 0.9 19.55 1.45 19.05 9.8 12.3 12.5 11.45 14.1 11.0 17.25 10.25 21.4 9.55 23.35 9.3 23.6 9.45 24.35 10.05 M27.3 16.35 Q26.65 15.35 25.4 14.55 L24.3 13.95 25.9 13.15 26.45 13.15 27.6 13.25 28.4 13.35 30.1 15.15 30.25 15.3 29.85 15.45 28.9 15.9 27.5 16.45 27.3 16.35 M0.75 29.55 L1.3 28.2 1.6 27.5 2.5 25.25 5.15 23.25 14.65 15.9 14.85 15.95 10.8 19.3 3.7 25.45 2.8 27.0 1.8 28.6 0.75 29.55 M23.75 21.15 L24.0 20.85 24.65 20.25 25.05 19.9 24.0 23.45 22.8 26.95 25.0 22.9 27.3 18.6 27.35 18.55 29.05 16.45 29.55 16.25 26.15 23.2 20.5 32.95 22.9 24.6 23.75 21.15" fill="#ffe55f" fill-rule="evenodd" stroke="none"/>
      <path d="M24.35 10.05 L25.7 10.95 26.0 11.15 28.4 13.35 27.6 13.25 26.45 13.15 25.9 13.15 24.3 13.95 25.4 14.55 Q26.65 15.35 27.3 16.35 L26.15 15.75 25.35 15.45 24.7 15.55 22.0 16.05 21.8 16.1 21.4 16.2 18.9 15.0 18.1 14.65 16.2 13.8 11.8 13.5 14.35 12.95 17.8 12.6 18.75 12.2 19.05 12.1 22.1 10.85 Q22.95 10.5 23.65 10.3 L24.35 10.05 M23.6 21.25 L23.9 19.5 23.65 18.4 23.55 18.05 23.25 17.3 23.3 17.3 25.35 16.75 25.6 16.85 26.65 17.45 27.65 17.05 28.0 16.9 28.15 16.85 29.05 16.45 27.35 18.55 27.3 18.6 25.0 22.9 22.8 26.95 24.0 23.45 25.05 19.9 24.65 20.25 24.0 20.85 23.75 21.15 23.6 21.25" fill="#fffac2" fill-rule="evenodd" stroke="none"/>
      <path d="M11.8 13.5 L16.2 13.8 18.1 14.65 18.9 15.0 21.4 16.2 21.8 16.1 22.0 16.05 24.7 15.55 25.35 15.45 26.15 15.75 27.3 16.35 27.5 16.45 28.9 15.9 29.85 15.45 30.25 15.3 30.65 15.75 29.55 16.25 29.05 16.45 28.15 16.85 28.0 16.9 27.65 17.05 26.65 17.45 25.6 16.85 25.35 16.75 23.3 17.3 23.25 17.3 23.55 18.05 23.65 18.4 23.9 19.5 23.6 21.25 23.25 22.5 21.1 28.9 19.8 32.35 17.75 37.2 16.25 39.55 14.85 41.65 13.75 42.5 15.6 37.75 17.3 33.0 17.2 24.55 17.0 24.5 14.8 23.5 13.9 23.45 Q11.0 24.75 7.1 27.0 L0.8 30.85 0.3 31.2 0.0 31.45 0.75 29.55 1.8 28.6 3.4 27.15 3.7 26.85 8.5 22.45 Q13.0 18.5 16.45 16.4 L14.85 15.95 14.65 15.9 14.85 15.75 13.6 15.5 10.9 15.2 9.25 15.25 Q5.9 16.8 1.75 19.5 L0.65 20.2 Q5.4 16.35 9.85 13.5 L11.3 13.45 11.8 13.5 M21.85 19.75 L21.8 18.25 17.55 16.8 17.25 16.9 16.85 17.5 15.85 19.1 15.8 19.15 15.85 19.5 16.1 20.8 16.5 22.3 16.65 22.35 Q18.35 23.05 19.9 23.0 L19.9 23.05 20.3 22.85 20.6 22.45 21.8 20.95 21.85 19.75" fill="#a8460a" fill-rule="evenodd" stroke="none"/>
      <path d="M30.65 15.75 L30.75 15.9 30.35 16.65 30.1 17.15 27.85 21.7 27.0 23.4 26.2 24.85 Q23.05 30.75 19.45 36.1 L16.6 40.2 16.15 40.6 15.35 41.25 14.85 41.65 16.25 39.55 17.75 37.2 19.8 32.35 21.1 28.9 23.25 22.5 23.6 21.25 23.75 21.15 22.9 24.6 20.5 32.95 26.15 23.2 29.55 16.25 30.65 15.75 M14.85 15.95 L16.45 16.4 Q13.0 18.5 8.5 22.45 L3.7 26.85 3.4 27.15 1.8 28.6 2.8 27.0 3.7 25.45 10.8 19.3 14.85 15.95" fill="#f79c12" fill-rule="evenodd" stroke="none"/>
      <path d="M21.85 19.75 L21.8 20.95 20.6 22.45 20.3 22.85 19.9 23.05 19.9 23.0 Q18.35 23.05 16.65 22.35 L16.5 22.3 16.1 20.8 15.85 19.5 15.8 19.15 15.85 19.1 16.85 17.5 17.25 16.9 17.55 16.8 21.8 18.25 21.85 19.75" fill="#722b00" fill-rule="evenodd" stroke="none"/>
      <path d="M28.4 13.35 L26.0 11.15 25.7 10.95 24.35 10.05 23.6 9.45 23.35 9.3 21.4 9.55 17.25 10.25 14.1 11.0 12.5 11.45 9.8 12.3 1.45 19.05 0.9 19.55 0.4 20.4 0.65 20.2 1.75 19.5 Q5.9 16.8 9.25 15.25 L10.9 15.2 13.6 15.5 14.85 15.75 14.65 15.9 5.15 23.25 2.5 25.25 1.6 27.5 1.3 28.2 0.75 29.55 0.0 31.45 0.3 31.2 0.8 30.85 7.1 27.0 Q11.0 24.75 13.9 23.45 L14.8 23.5 17.0 24.5 17.2 24.55 17.3 33.0 15.6 37.75 13.75 42.5 14.85 41.65 15.35 41.25 16.15 40.6 16.6 40.2 19.45 36.1 Q23.05 30.75 26.2 24.85 L27.0 23.4 27.85 21.7 30.1 17.15 30.35 16.65 30.75 15.9 30.65 15.75 30.25 15.3 30.1 15.15 28.4 13.35 Z" fill="none" stroke="#7b2100" stroke-linecap="round" stroke-linejoin="round" stroke-width="0.5"/>
    </g>
  </defs>
</svg>
