<?xml version="1.0" encoding="UTF-8" standalone="no"?>
<svg xmlns:ffdec="https://www.free-decompiler.com/flash" xmlns:xlink="http://www.w3.org/1999/xlink" ffdec:objectType="frame" height="30.1px" width="30.0px" xmlns="http://www.w3.org/2000/svg">
  <g transform="matrix(1.0, 0.0, 0.0, 1.0, 0.0, 0.0)">
    <use ffdec:characterId="1" height="30.0" transform="matrix(1.0, 0.0, 0.0, 1.0, 0.0, 0.0)" width="30.0" xlink:href="#shape0"/>
    <use ffdec:characterId="5" height="30.0" transform="matrix(1.0, 0.0, 0.0, 1.0, 0.0, 0.1)" width="30.0" xlink:href="#sprite0"/>
  </g>
  <defs>
    <g id="shape0" transform="matrix(1.0, 0.0, 0.0, 1.0, 0.0, 0.0)">
      <path d="M0.0 0.0 L30.0 0.0 30.0 30.0 0.0 30.0 0.0 0.0" fill="#33cc66" fill-opacity="0.0" fill-rule="evenodd" stroke="none"/>
    </g>
    <g id="sprite0" transform="matrix(1.0, 0.0, 0.0, 1.0, 0.0, 0.0)">
      <use ffdec:characterId="2" height="30.0" transform="matrix(1.0, 0.0, 0.0, 1.0, 0.0, 0.0)" width="30.0" xlink:href="#shape1"/>
      <filter id="filter0">
        <feColorMatrix in="SourceGraphic" result="filterResult0" type="matrix" values="0 0 0 0 1.0,0 0 0 0 1.0,0 0 0 0 0.0,0 0 0 1 0"/>
        <feConvolveMatrix divisor="4.0" in="filterResult0" kernelMatrix="1 1 1 1" order="2 2" result="filterResult1"/>
        <feComposite in="SourceGraphic" in2="filterResult1" operator="over" result="filterResult2"/>
      </filter>
      <use ffdec:characterId="4" filter="url(#filter0)" height="69.9" transform="matrix(0.2171, 0.0, 0.0, 0.2171, 2.7915, 8.5915)" width="119.4" xlink:href="#sprite1"/>
    </g>
    <g id="shape1" transform="matrix(1.0, 0.0, 0.0, 1.0, 0.0, 0.0)">
      <path d="M0.0 3.3 Q0.0 0.0 3.3 0.0 L26.7 0.0 Q30.0 0.0 30.0 3.3 L30.0 26.7 Q30.0 30.0 26.7 30.0 L3.3 30.0 Q0.0 30.0 0.0 26.7 L0.0 3.3" fill="#999999" fill-rule="evenodd" stroke="none"/>
    </g>
    <g id="sprite1" transform="matrix(1.0, 0.0, 0.0, 1.0, 0.5, 0.5)">
      <use ffdec:characterId="3" height="69.9" transform="matrix(1.0, 0.0, 0.0, 1.0, -0.5, -0.5)" width="119.4" xlink:href="#shape2"/>
    </g>
    <g id="shape2" transform="matrix(1.0, 0.0, 0.0, 1.0, 0.5, 0.5)">
      <path d="M115.95 23.1 L112.2 22.2 Q111.55 22.2 110.55 22.85 L109.3 23.45 Q108.6 23.45 107.95 22.95 107.1 22.35 106.55 22.2 104.8 26.2 104.0 26.95 102.45 28.25 96.0 30.85 89.8 26.7 82.2 22.25 61.2 8.55 42.85 3.7 65.55 -0.1 89.2 2.55 97.7 7.35 109.05 17.0 L115.95 23.1 M93.75 12.0 Q93.75 9.2 91.4 6.9 L91.35 6.85 Q89.0 4.6 85.7 4.25 L84.35 4.15 Q82.85 4.15 81.55 4.65 80.75 4.9 80.05 5.4 L79.75 5.65 Q77.75 7.35 77.75 9.95 77.75 12.75 80.05 14.95 82.4 17.25 85.7 17.7 88.55 18.05 90.7 16.85 L91.35 16.4 91.55 16.3 Q93.75 14.7 93.75 12.0" fill="#c94c00" fill-rule="evenodd" stroke="none"/>
      <path d="M117.45 24.55 Q114.65 23.45 113.2 23.45 L113.05 23.5 112.65 23.55 111.05 22.95 109.15 24.2 106.45 23.25 105.1 27.4 Q102.25 28.3 99.35 29.8 L96.8 31.35 96.0 30.85 Q102.45 28.25 104.0 26.95 104.8 26.2 106.55 22.2 107.1 22.35 107.95 22.95 108.6 23.45 109.3 23.45 L110.55 22.85 Q111.55 22.2 112.2 22.2 L115.95 23.1 117.45 24.55 M89.2 2.55 Q65.55 -0.1 42.85 3.7 L39.15 2.8 Q53.0 -1.6 86.1 0.95 L89.2 2.55" fill="#f97d41" fill-rule="evenodd" stroke="none"/>
      <path d="M96.0 30.85 L96.8 31.35 99.35 29.8 Q102.25 28.3 105.1 27.4 L106.45 23.25 109.15 24.2 111.05 22.95 112.65 23.55 113.05 23.5 113.2 23.45 Q114.65 23.45 117.45 24.55 L118.4 25.45 110.25 34.35 99.05 46.25 90.05 51.25 83.45 54.8 93.35 38.05 Q94.95 34.3 94.0 31.65 L93.95 31.45 Q93.55 30.45 92.75 29.6 L91.8 28.85 82.2 22.25 Q89.8 26.7 96.0 30.85" fill="#5a210e" fill-rule="evenodd" stroke="none"/>
      <path d="M93.35 11.85 Q93.35 9.35 91.2 7.3 L91.05 7.15 Q89.05 5.3 86.2 4.95 L86.15 4.95 Q87.7 5.95 89.05 7.95 L89.4 8.45 Q91.5 11.85 91.55 15.55 93.35 14.15 93.35 11.85 M93.75 12.0 Q93.75 14.7 91.55 16.3 L91.35 16.4 90.7 16.85 Q88.55 18.05 85.7 17.7 82.4 17.25 80.05 14.95 77.75 12.75 77.75 9.95 77.75 7.35 79.75 5.65 L80.05 5.4 Q80.75 4.9 81.55 4.65 82.85 4.15 84.35 4.15 L85.7 4.25 Q89.0 4.6 91.35 6.85 L91.4 6.9 Q93.75 9.2 93.75 12.0 M82.7 5.25 Q81.85 5.5 81.15 6.0 79.1 7.55 79.1 10.05 79.1 12.55 81.15 14.5 83.25 16.55 86.2 16.95 88.75 17.25 90.65 16.15 90.2 11.75 88.65 9.05 L88.3 8.55 Q86.2 5.5 82.7 5.25" fill="#3c3636" fill-rule="evenodd" stroke="none"/>
      <path d="M93.35 11.85 Q93.35 14.15 91.55 15.55 91.5 11.85 89.4 8.45 L89.05 7.95 Q87.7 5.95 86.15 4.95 L86.2 4.95 Q89.05 5.3 91.05 7.15 L91.2 7.3 Q93.35 9.35 93.35 11.85 M92.2 10.2 L92.15 10.0 Q91.5 7.4 89.1 6.15 L89.05 6.2 Q90.65 8.5 92.2 10.2 M82.7 5.25 Q86.2 5.5 88.3 8.55 L88.65 9.05 Q90.2 11.75 90.65 16.15 88.75 17.25 86.2 16.95 83.25 16.55 81.15 14.5 79.1 12.55 79.1 10.05 79.1 7.55 81.15 6.0 81.85 5.5 82.7 5.25 M83.8 9.35 L83.8 9.3 Q84.55 7.95 83.1 7.5 L82.75 7.6 82.25 7.95 Q81.9 8.1 81.85 8.5 80.25 16.3 86.4 13.2 L86.3 13.0 83.8 9.35 M38.4 65.5 L38.45 65.6 38.0 65.75 34.95 66.2 Q34.6 65.5 34.75 64.7 34.85 64.15 35.35 64.1 L35.55 64.35 Q36.55 65.4 38.4 65.5" fill="#626262" fill-rule="evenodd" stroke="none"/>
      <path d="M92.2 10.2 Q90.65 8.5 89.05 6.2 L89.1 6.15 Q91.5 7.4 92.15 10.0 L92.2 10.2 M82.25 7.95 L82.75 7.6 83.1 7.5 Q84.55 7.95 83.8 9.3 L83.8 9.35 83.6 9.5 Q82.45 10.0 82.15 8.85 82.0 8.3 82.25 7.95" fill="#c9c7c8" fill-rule="evenodd" stroke="none"/>
      <path d="M83.8 9.35 L86.3 13.0 86.4 13.2 Q80.25 16.3 81.85 8.5 81.9 8.1 82.25 7.95 82.0 8.3 82.15 8.85 82.45 10.0 83.6 9.5 L83.8 9.35" fill="#797979" fill-rule="evenodd" stroke="none"/>
      <path d="M82.2 22.25 L91.8 28.85 92.75 29.6 Q93.55 30.45 93.95 31.45 L89.05 33.9 90.6 32.35 90.0 32.5 Q87.1 33.2 85.1 34.85 59.95 14.3 35.6 6.8 L32.7 5.95 33.25 5.55 Q33.9 5.05 34.7 4.65 36.6 3.6 39.15 2.8 L42.85 3.7 Q61.2 8.55 82.2 22.25" fill="#ff8f00" fill-rule="evenodd" stroke="none"/>
      <path d="M93.95 31.45 L94.0 31.65 Q94.95 34.3 93.35 38.05 L83.45 54.8 75.45 68.35 66.6 68.9 64.45 68.9 Q63.1 68.4 62.0 67.7 L61.55 67.75 55.6 64.95 39.2 57.35 39.3 57.0 32.85 64.7 30.95 66.95 25.75 67.65 Q29.8 57.7 37.2 52.65 L60.8 65.9 63.95 67.5 68.95 67.05 78.4 49.95 82.2 42.2 84.95 36.55 85.0 36.35 Q87.4 35.2 89.05 33.9 L93.95 31.45 M65.2 60.0 L64.25 61.45 Q50.15 55.1 38.5 44.0 L40.15 43.6 Q52.65 54.0 65.2 60.0 M24.25 57.45 L22.95 58.75 Q13.8 50.55 7.15 38.2 18.55 22.6 35.8 14.8 L37.7 15.65 Q22.45 22.55 11.95 38.0 17.65 49.95 24.25 57.45" fill="#a65700" fill-rule="evenodd" stroke="none"/>
      <path d="M84.95 36.55 L82.2 42.2 83.25 35.3 Q58.25 14.15 33.25 8.3 15.35 20.1 0.9 38.05 L0.0 35.55 Q5.4 26.6 32.5 6.1 L32.7 5.95 35.6 6.8 Q59.95 14.3 85.1 34.85 87.1 33.2 90.0 32.5 L90.6 32.35 89.05 33.9 Q87.4 35.2 85.0 36.35 L84.8 36.45 84.95 36.55" fill="#fff862" fill-rule="evenodd" stroke="none"/>
      <path d="M82.2 42.2 L78.4 49.95 68.95 67.05 63.95 67.5 60.8 65.9 37.2 52.65 Q29.8 57.7 25.75 67.65 L24.7 67.8 Q5.6 49.35 0.9 38.05 15.35 20.1 33.25 8.3 58.25 14.15 83.25 35.3 L82.2 42.2 M65.2 60.0 L73.4 47.3 77.9 39.35 57.95 24.85 37.7 15.65 35.8 14.8 Q18.55 22.6 7.15 38.2 13.8 50.55 22.95 58.75 L24.25 57.45 38.35 43.85 38.5 44.0 Q50.15 55.1 64.25 61.45 L65.2 60.0" fill="#fac809" fill-rule="evenodd" stroke="none"/>
      <path d="M37.7 15.65 L57.95 24.85 77.9 39.35 73.4 47.3 65.2 60.0 Q52.65 54.0 40.15 43.6 L38.5 44.0 38.35 43.85 24.25 57.45 Q17.65 49.95 11.95 38.0 22.45 22.55 37.7 15.65" fill="#1b1b1b" fill-rule="evenodd" stroke="none"/>
      <path d="M32.85 64.7 L39.3 57.0 39.2 57.35 55.6 64.95 55.15 66.15 53.3 66.45 50.25 66.85 39.45 67.7 34.05 67.65 32.9 64.8 32.85 64.7 M38.4 65.5 Q36.55 65.4 35.55 64.35 L35.35 64.1 Q34.85 64.15 34.75 64.7 34.6 65.5 34.95 66.2 L38.0 65.75 38.45 65.6 38.4 65.5 M45.6 64.6 Q43.5 64.7 41.75 65.35 L42.35 65.35 Q46.35 65.25 45.6 64.6" fill="#434343" fill-rule="evenodd" stroke="none"/>
      <path d="M45.6 64.6 Q46.35 65.25 42.35 65.35 L41.75 65.35 Q43.5 64.7 45.6 64.6" fill="#787d80" fill-rule="evenodd" stroke="none"/>
      <path d="M117.45 24.55 L115.95 23.1 109.05 17.0 Q97.7 7.35 89.2 2.55 L86.1 0.95 Q53.0 -1.6 39.15 2.8 M83.45 54.8 L90.05 51.25 99.05 46.25 110.25 34.35 118.4 25.45 117.45 24.55" fill="none" stroke="#4a0c00" stroke-linecap="round" stroke-linejoin="round" stroke-width="1.0"/>
      <path d="M25.75 67.65 L30.95 66.95 32.85 64.7 39.3 57.0 39.2 57.35 55.6 64.95 61.55 67.75 62.0 67.7 Q63.1 68.4 64.45 68.9 L66.6 68.9 75.45 68.35 83.45 54.8 M0.9 38.05 L0.0 35.55 Q5.4 26.6 32.5 6.1 L32.7 5.95 33.25 5.55 Q33.9 5.05 34.7 4.65 36.6 3.6 39.15 2.8 M25.75 67.65 L24.7 67.8 Q5.6 49.35 0.9 38.05" fill="none" stroke="#a84900" stroke-linecap="round" stroke-linejoin="round" stroke-width="1.0"/>
      <path d="M55.6 64.95 L55.15 66.15 53.3 66.45 50.25 66.85 39.45 67.7 34.05 67.65 32.9 64.8 32.85 64.7" fill="none" stroke="#272121" stroke-linecap="round" stroke-linejoin="round" stroke-width="1.0"/>
    </g>
  </defs>
</svg>
