<?xml version="1.0" encoding="UTF-8" standalone="no"?>
<svg xmlns:ffdec="https://www.free-decompiler.com/flash" xmlns:xlink="http://www.w3.org/1999/xlink" ffdec:objectType="frame" height="30.1px" width="30.0px" xmlns="http://www.w3.org/2000/svg">
  <g transform="matrix(1.0, 0.0, 0.0, 1.0, 0.0, 0.0)">
    <use ffdec:characterId="1" height="30.0" transform="matrix(1.0, 0.0, 0.0, 1.0, 0.0, 0.0)" width="30.0" xlink:href="#shape0"/>
    <use ffdec:characterId="5" height="30.0" transform="matrix(1.0, 0.0, 0.0, 1.0, 0.0, 0.1)" width="30.0" xlink:href="#sprite0"/>
  </g>
  <defs>
    <g id="shape0" transform="matrix(1.0, 0.0, 0.0, 1.0, 0.0, 0.0)">
      <path d="M0.0 0.0 L30.0 0.0 30.0 30.0 0.0 30.0 0.0 0.0" fill="#33cc66" fill-opacity="0.0" fill-rule="evenodd" stroke="none"/>
    </g>
    <g id="sprite0" transform="matrix(1.0, 0.0, 0.0, 1.0, 0.0, 0.0)">
      <use ffdec:characterId="2" height="30.0" transform="matrix(1.0, 0.0, 0.0, 1.0, 0.0, 0.0)" width="30.0" xlink:href="#shape1"/>
      <filter id="filter0">
        <feColorMatrix in="SourceGraphic" result="filterResult0" type="matrix" values="0 0 0 0 0.4,0 0 0 0 1.0,0 0 0 0 1.0,0 0 0 1 0"/>
        <feConvolveMatrix divisor="4.0" in="filterResult0" kernelMatrix="1 1 1 1" order="2 2" result="filterResult1"/>
        <feComposite in="SourceGraphic" in2="filterResult1" operator="over" result="filterResult2"/>
      </filter>
      <use ffdec:characterId="4" filter="url(#filter0)" height="56.0" transform="matrix(0.3857, 0.0, 0.0, 0.3857, 1.5572, 4.4072)" width="61.9" xlink:href="#sprite1"/>
    </g>
    <g id="shape1" transform="matrix(1.0, 0.0, 0.0, 1.0, 0.0, 0.0)">
      <path d="M3.3 30.0 Q0.0 30.0 0.0 26.7 L0.0 3.3 Q0.0 0.0 3.3 0.0 L26.7 0.0 Q30.0 0.0 30.0 3.3 L30.0 26.7 Q30.0 30.0 26.7 30.0 L3.3 30.0" fill="#999999" fill-rule="evenodd" stroke="none"/>
    </g>
    <g id="sprite1" transform="matrix(1.0, 0.0, 0.0, 1.0, 0.5, 0.5)">
      <use ffdec:characterId="3" height="56.0" transform="matrix(1.0, 0.0, 0.0, 1.0, -0.5, -0.5)" width="61.9" xlink:href="#shape2"/>
    </g>
    <g id="shape2" transform="matrix(1.0, 0.0, 0.0, 1.0, 0.5, 0.5)">
      <path d="M42.65 40.0 L44.45 40.85 46.75 41.5 Q47.65 41.5 56.85 36.8 L55.95 35.0 57.25 35.0 Q58.7 36.35 59.8 39.0 L60.9 42.05 59.35 43.1 Q56.25 45.1 52.55 46.65 L47.5 48.45 42.35 47.0 Q41.15 46.5 40.65 46.0 40.05 45.4 39.95 44.4 L39.95 44.0 Q40.4 42.95 41.6 41.55 L42.65 40.25 42.65 40.0 M43.9 43.0 Q43.9 47.0 46.9 47.0 47.5 47.0 49.15 45.9 L50.4 45.0 50.4 42.5 Q49.65 42.45 48.15 43.45 46.65 44.55 45.9 44.5 L44.35 42.9 43.9 43.0" fill="#f7871b" fill-rule="evenodd" stroke="none"/>
      <path d="M42.65 40.0 Q42.4 38.95 40.85 36.7 L34.85 28.85 36.3 25.0 43.9 25.0 48.1 25.6 Q52.3 28.2 55.8 34.8 L55.95 35.0 56.85 36.8 Q47.65 41.5 46.75 41.5 L44.45 40.85 42.65 40.0 M59.35 43.1 L60.05 45.85 Q56.1 51.5 52.85 53.55 50.55 55.0 47.15 55.0 L44.55 54.85 Q43.3 54.5 42.7 53.0 L42.2 47.0 42.35 47.0 47.5 48.45 52.55 46.65 Q56.25 45.1 59.35 43.1 M45.85 52.1 L46.15 52.35 Q50.35 53.4 51.6 49.85 L50.6 49.95 Q47.65 50.65 45.85 52.1" fill="#bab3c5" fill-rule="evenodd" stroke="none"/>
      <path d="M43.9 43.0 L44.35 42.9 45.9 44.5 Q46.65 44.55 48.15 43.45 49.65 42.45 50.4 42.5 L50.4 45.0 49.15 45.9 Q47.5 47.0 46.9 47.0 43.9 47.0 43.9 43.0" fill="#ffb42a" fill-rule="evenodd" stroke="none"/>
      <path d="M45.85 52.1 Q47.65 50.65 50.6 49.95 L51.6 49.85 Q50.35 53.4 46.15 52.35 L45.85 52.1" fill="#fbfef7" fill-rule="evenodd" stroke="none"/>
      <path d="M55.95 35.0 L57.25 35.0 Q58.7 36.35 59.8 39.0 L60.9 42.05 59.35 43.1 M42.35 47.0 Q41.15 46.5 40.65 46.0 40.05 45.4 39.95 44.4 L39.95 44.0 Q40.4 42.95 41.6 41.55 L42.65 40.25 42.65 40.0" fill="none" stroke="#bd4b03" stroke-linecap="round" stroke-linejoin="round" stroke-width="1.0"/>
      <path d="M55.95 35.0 L55.8 34.8 Q52.3 28.2 48.1 25.6 L43.9 25.0 36.3 25.0 34.85 28.85 40.85 36.7 Q42.4 38.95 42.65 40.0 M59.35 43.1 L60.05 45.85 Q56.1 51.5 52.85 53.55 50.55 55.0 47.15 55.0 L44.55 54.85 Q43.3 54.5 42.7 53.0 L42.2 47.0 42.35 47.0" fill="none" stroke="#8f85b7" stroke-linecap="round" stroke-linejoin="round" stroke-width="1.0"/>
      <path d="M53.2 8.2 L52.65 6.9 52.1 6.05 Q49.75 11.1 46.5 11.1 44.8 11.1 42.85 9.8 L41.7 8.9 Q42.6 11.05 42.7 16.65 L42.05 17.1 42.0 16.55 42.0 14.3 41.95 13.3 41.9 12.7 41.9 12.65 41.6 11.0 41.5 10.8 41.5 10.7 41.4 10.45 40.85 9.2 40.2 8.05 38.65 5.95 38.1 5.35 37.35 4.55 35.85 3.2 35.0 3.35 35.75 1.55 35.8 1.5 Q40.8 0.25 45.85 0.0 48.25 1.25 50.5 2.75 L52.75 4.4 56.3 7.65 56.15 12.4 56.1 13.5 55.15 13.2 54.7 13.1 Q54.65 10.3 54.2 8.75 L53.9 7.95 53.75 7.7 53.2 8.2 M2.2 22.3 L5.35 17.4 5.9 17.45 7.95 17.95 9.15 18.35 9.4 18.8 12.45 25.2 13.0 26.45 12.9 26.4 12.85 26.35 11.7 25.3 9.65 25.8 9.75 25.25 9.75 24.8 9.75 24.35 Q9.55 23.2 8.75 21.6 L8.5 21.1 8.15 20.55 Q6.45 18.9 5.95 18.9 L5.6 18.95 5.25 19.3 5.15 20.2 Q5.15 21.05 5.6 22.2 L5.6 22.25 5.8 22.6 6.85 23.85 Q8.3 25.45 9.25 25.8 L9.45 25.9 8.05 26.6 Q6.8 27.5 6.45 28.7 L6.05 28.05 2.2 22.3 M7.95 17.95 L9.4 18.8 7.95 17.95" fill="#ffb62a" fill-rule="evenodd" stroke="none"/>
      <path d="M42.7 16.65 Q42.6 11.05 41.7 8.9 L42.85 9.8 Q44.8 11.1 46.5 11.1 49.75 11.1 52.1 6.05 L52.65 6.9 53.2 8.2 Q47.95 12.85 42.7 16.65" fill="#ffe564" fill-rule="evenodd" stroke="none"/>
      <path d="M53.2 8.2 L53.75 7.7 53.9 7.95 54.2 8.75 Q54.65 10.3 54.7 13.1 L55.15 13.2 56.1 13.5 56.15 12.4 Q57.15 12.55 58.65 13.2 L59.05 14.05 Q59.9 16.2 59.9 18.1 59.9 21.0 58.9 23.05 L58.2 24.35 56.1 24.55 55.55 25.35 53.6 24.85 Q50.45 23.95 47.35 22.35 L46.9 22.1 42.3 19.05 40.95 17.9 40.4 17.3 40.35 17.25 40.5 14.2 40.5 13.9 40.5 13.2 40.5 12.95 40.5 12.65 40.4 10.75 39.95 9.7 Q39.25 8.15 38.2 6.75 L37.55 5.9 36.85 5.15 34.95 3.4 34.9 3.35 35.0 3.35 35.85 3.2 37.35 4.55 38.1 5.35 38.65 5.95 40.2 8.05 40.85 9.2 41.4 10.45 41.5 10.7 41.5 10.8 41.6 11.0 41.9 12.65 41.9 12.7 41.95 13.3 42.0 14.3 42.0 16.55 42.05 17.1 42.7 16.65 Q47.95 12.85 53.2 8.2" fill="#f7871b" fill-rule="evenodd" stroke="none"/>
      <path d="M34.9 3.35 L34.95 3.4 36.85 5.15 37.55 5.9 38.2 6.75 Q39.25 8.15 39.95 9.7 L40.4 10.75 40.5 12.65 40.5 12.95 40.5 13.2 40.5 13.9 40.5 14.2 40.35 17.25 40.4 17.3 30.5 32.5 29.35 34.3 Q24.75 34.1 20.15 32.55 L18.1 31.85 Q16.85 28.2 14.85 24.2 L13.4 21.45 11.75 18.65 11.1 17.7 12.1 16.55 12.35 16.25 12.75 15.8 13.2 16.25 14.05 17.25 14.3 17.75 14.55 18.0 14.85 18.2 15.4 18.8 15.7 19.2 Q18.2 22.25 20.5 25.7 L20.75 26.25 21.05 26.95 21.65 28.6 21.9 29.25 22.05 29.3 22.35 29.95 Q23.75 30.75 25.9 31.35 L26.7 31.6 Q30.05 28.65 32.1 24.8 L33.65 21.65 33.3 18.9 33.0 17.25 32.75 16.3 32.7 16.1 32.65 15.9 Q30.45 15.25 28.25 13.65 L27.85 13.75 27.8 13.7 28.05 13.5 26.1 11.85 Q23.7 9.65 22.6 7.8 23.6 7.15 24.65 6.6 26.45 5.65 28.5 4.95 L32.5 3.8 34.9 3.35 M36.3 15.85 L37.0 15.45 39.1 13.1 39.1 12.3 35.7 12.55 35.25 12.95 32.75 15.45 Q32.85 15.95 33.3 16.3 L35.1 16.3 35.95 16.0 36.3 15.85 M14.7 20.55 L14.55 20.85 14.8 20.55 14.7 20.55 M18.7 27.15 L18.95 27.3 18.85 27.35 18.7 27.15 18.6 27.0 18.3 26.6 18.3 26.7 18.8 27.35 Q18.05 27.75 17.7 28.5 L18.0 28.65 Q20.7 28.8 20.1 27.0 L19.75 27.05 20.05 26.5 20.1 26.4 20.0 26.45 19.95 26.55 19.7 27.05 19.6 27.05 19.05 27.25 18.95 27.3 18.7 27.1 18.7 27.15 M18.7 26.3 L18.95 26.9 18.7 26.2 18.7 26.3" fill="#40c4ea" fill-rule="evenodd" stroke="none"/>
      <path d="M40.4 17.3 L40.95 17.9 42.3 19.05 46.9 22.1 47.35 22.35 Q50.45 23.95 53.6 24.85 L55.55 25.35 Q53.85 27.65 51.1 29.3 L48.4 28.75 47.9 28.65 43.6 27.9 42.9 27.85 41.45 27.75 41.2 29.5 40.65 34.55 41.45 34.7 41.9 34.8 42.2 35.1 Q42.6 35.7 42.6 36.3 L42.55 36.95 40.9 38.1 Q38.15 39.9 36.6 40.3 L35.7 40.3 30.3 39.55 27.25 38.9 27.15 38.9 25.6 38.55 27.3 38.65 27.05 38.1 27.0 38.05 26.35 37.05 25.2 35.55 22.0 34.7 18.95 33.7 18.7 33.6 16.75 33.0 16.05 30.95 15.25 28.8 15.0 28.15 14.35 26.75 14.3 26.6 13.95 25.9 13.55 25.05 13.4 24.8 12.8 23.55 12.3 22.6 11.4 21.05 10.95 20.3 10.4 19.45 10.35 19.4 10.05 19.0 10.5 18.5 10.55 18.4 11.1 17.7 11.75 18.65 13.4 21.45 14.85 24.2 Q16.85 28.2 18.1 31.85 L20.15 32.55 Q24.75 34.1 29.35 34.3 L30.5 32.5 40.4 17.3 M21.9 8.15 L22.35 7.9 22.6 7.8 Q23.7 9.65 26.1 11.85 L28.05 13.5 27.8 13.7 27.85 13.75 28.25 13.65 Q30.45 15.25 32.65 15.9 L32.7 16.1 32.75 16.3 33.0 17.25 33.3 18.9 33.65 21.65 32.1 24.8 Q30.05 28.65 26.7 31.6 L25.9 31.35 Q23.75 30.75 22.35 29.95 L22.05 29.3 23.05 29.8 25.3 30.8 26.8 31.45 30.1 27.05 32.3 23.95 32.3 23.5 32.3 23.15 32.25 19.8 32.1 18.3 31.8 18.2 30.75 17.8 27.95 16.25 25.4 14.0 24.3 12.75 23.15 11.1 23.05 11.0 22.35 9.55 Q22.05 8.85 21.9 8.15" fill="#2978b0" fill-rule="evenodd" stroke="none"/>
      <path d="M13.2 16.25 L14.85 13.8 15.3 13.25 Q18.35 10.35 21.9 8.15 22.05 8.85 22.35 9.55 L23.05 11.0 23.15 11.1 24.3 12.75 25.4 14.0 27.95 16.25 30.75 17.8 31.8 18.2 Q30.2 19.65 28.8 21.85 L27.8 23.6 20.85 26.25 20.5 25.7 Q18.2 22.25 15.7 19.2 L15.4 18.8 14.85 18.2 14.05 17.25 13.2 16.25" fill="#fbfef7" fill-rule="evenodd" stroke="none"/>
      <path d="M20.85 26.25 L27.8 23.6 28.8 21.85 Q30.2 19.65 31.8 18.2 L32.1 18.3 32.25 19.8 32.3 23.15 32.3 23.5 32.3 23.95 30.1 27.05 26.8 31.45 25.3 30.8 23.05 29.8 20.85 26.25" fill="#bab3c5" fill-rule="evenodd" stroke="none"/>
      <path d="M36.3 15.85 L35.95 16.0 35.1 16.3 33.3 16.3 Q32.85 15.95 32.75 15.45 L35.25 12.95 35.7 12.55 39.1 12.3 39.1 13.1 37.0 15.45 36.3 15.85 M18.7 26.3 L18.7 26.2 18.95 26.9 18.7 26.3 M18.3 26.6 L18.6 27.0 18.7 27.15 18.7 27.1 18.95 27.3 19.05 27.25 19.6 27.05 19.7 27.05 19.95 26.55 20.0 26.45 20.1 26.4 20.05 26.5 19.75 27.05 20.1 27.0 Q20.7 28.8 18.0 28.65 L17.7 28.5 Q18.05 27.75 18.8 27.35 L18.3 26.7 18.3 26.6 M18.7 27.15 L18.85 27.35 18.95 27.3 18.7 27.15" fill="#d4f8ff" fill-rule="evenodd" stroke="none"/>
      <path d="M25.6 38.55 L24.0 38.45 19.75 37.95 17.9 37.6 Q15.8 37.1 14.4 36.45 L12.0 34.95 Q11.05 34.4 9.9 34.35 L9.75 34.3 9.35 34.3 8.3 34.4 7.05 34.55 7.0 34.4 6.4 33.35 4.6 30.25 4.55 30.2 4.45 30.05 4.4 29.9 4.15 29.5 3.4 28.2 2.65 27.0 1.1 24.35 1.0 24.2 1.85 22.85 3.4 25.1 5.85 29.25 6.3 30.15 6.6 30.7 6.8 31.1 7.4 32.35 8.3 32.35 10.05 32.85 Q11.7 33.45 14.45 34.75 L16.75 35.85 18.4 36.25 19.5 36.6 24.55 37.25 26.35 37.05 27.0 38.05 27.05 38.1 27.3 38.65 25.6 38.55" fill="#d25c00" fill-rule="evenodd" stroke="none"/>
      <path d="M1.85 22.85 L2.2 22.3 6.05 28.05 6.45 28.7 Q6.3 29.15 6.3 29.7 L6.3 30.15 5.85 29.25 3.4 25.1 1.85 22.85 M9.45 25.9 L9.25 25.8 Q8.3 25.45 6.85 23.85 L5.8 22.6 5.6 22.25 5.6 22.2 Q5.15 21.05 5.15 20.2 L5.25 19.3 5.6 18.95 5.95 18.9 Q6.45 18.9 8.15 20.55 L8.5 21.1 8.75 21.6 Q9.55 23.2 9.75 24.35 L9.75 24.8 9.75 25.25 9.65 25.8 9.55 25.9 9.45 25.9 M12.9 26.4 L13.0 26.45 13.05 26.55 12.9 26.4" fill="#ffb42a" fill-rule="evenodd" stroke="none"/>
      <path d="M9.15 18.35 L9.8 18.6 10.05 19.0 10.35 19.4 10.4 19.45 10.95 20.3 11.4 21.05 12.3 22.6 12.8 23.55 13.4 24.8 13.55 25.05 13.95 25.9 14.3 26.6 14.35 26.75 15.0 28.15 15.25 28.8 16.05 30.95 16.75 33.0 18.7 33.6 18.95 33.7 22.0 34.7 25.2 35.55 26.35 37.05 24.55 37.25 19.5 36.6 18.4 36.25 16.75 35.85 14.45 34.75 Q11.7 33.45 10.05 32.85 L8.3 32.35 7.4 32.35 6.8 31.1 8.5 31.5 Q10.4 31.5 13.7 29.1 L13.95 28.95 13.05 26.55 13.0 26.45 12.45 25.2 9.4 18.8 9.15 18.35 M9.4 18.8 L10.4 19.45 9.4 18.8" fill="#ef8422" fill-rule="evenodd" stroke="none"/>
      <path d="M14.85 18.2 L14.55 18.0 14.3 17.75 14.05 17.25 14.85 18.2" fill="#b3c9c6" fill-rule="evenodd" stroke="none"/>
      <path d="M9.65 25.8 L11.7 25.3 12.85 26.35 12.9 26.4 13.05 26.55 13.95 28.95 13.7 29.1 Q10.4 31.5 8.5 31.5 L6.8 31.1 6.6 30.7 6.3 30.15 6.3 29.7 Q6.3 29.15 6.45 28.7 6.8 27.5 8.05 26.6 L9.45 25.9 9.55 25.9 9.65 25.8" fill="#ffdd61" fill-rule="evenodd" stroke="none"/>
      <path d="M1.95 32.35 L1.85 32.2 1.45 31.55 1.4 31.45 1.25 31.2 0.85 30.45 0.75 30.3 0.7 30.15 0.4 29.65 0.3 29.4 0.25 29.3 0.15 29.1 0.0 28.8 0.05 28.45 Q0.3 26.8 0.7 25.4 L0.75 25.2 1.1 24.35 2.65 27.0 3.4 28.2 4.15 29.5 4.4 29.9 4.45 30.05 4.55 30.2 4.6 30.25 4.45 30.35 1.95 32.35" fill="#fbfcf7" fill-rule="evenodd" stroke="none"/>
      <path d="M7.0 34.4 L3.7 34.35 3.2 34.15 3.0 34.05 2.95 33.95 1.95 32.35 4.45 30.35 4.6 30.25 6.4 33.35 7.0 34.4" fill="#baaaaa" fill-rule="evenodd" stroke="none"/>
      <path d="M23.05 29.8 L22.05 29.3 21.9 29.25 21.65 28.6 21.05 26.95 20.75 26.25 20.5 25.7 20.85 26.25 23.05 29.8" fill="#9db0ae" fill-rule="evenodd" stroke="none"/>
      <path d="M56.15 12.4 L56.3 7.65 52.75 4.4 50.5 2.75 Q48.25 1.25 45.85 0.0 40.8 0.25 35.8 1.5 L35.75 1.55 35.0 3.35 M55.55 25.35 L56.1 24.55 58.2 24.35 58.9 23.05 Q59.9 21.0 59.9 18.1 59.9 16.2 59.05 14.05 L58.65 13.2 Q57.15 12.55 56.15 12.4 M25.6 38.55 L24.0 38.45 19.75 37.95 17.9 37.6 Q15.8 37.1 14.4 36.45 L12.0 34.95 Q11.05 34.4 9.9 34.35 L9.75 34.3 9.35 34.3 8.3 34.4 7.05 34.55 7.0 34.4 M1.0 24.2 L1.85 22.85 2.2 22.3 5.35 17.4 5.85 16.65 7.6 17.7 7.95 17.95 9.4 18.8 10.4 19.45 M27.3 38.65 L25.6 38.55" fill="none" stroke="#bd4b03" stroke-linecap="round" stroke-linejoin="round" stroke-width="1.0"/>
      <path d="M55.55 25.35 Q53.85 27.65 51.1 29.3 L48.4 28.75 47.9 28.65 43.6 27.9 42.9 27.85 41.45 27.75 41.2 29.5 40.65 34.55 41.45 34.7 41.9 34.8 42.2 35.1 Q42.6 35.7 42.6 36.3 L42.55 36.95 40.9 38.1 Q38.15 39.9 36.6 40.3 L35.7 40.3 30.3 39.55 27.25 38.9 M27.15 38.9 L25.6 38.55 M10.05 19.0 L10.5 18.5 10.55 18.4 11.1 17.7 12.1 16.55 12.35 16.25 12.75 15.8 13.2 16.25 M21.9 8.15 L22.35 7.9 22.6 7.8 Q23.6 7.15 24.65 6.6 26.45 5.65 28.5 4.95 L32.5 3.8 34.9 3.35" fill="none" stroke="#1d415f" stroke-linecap="round" stroke-linejoin="round" stroke-width="1.0"/>
      <path d="M7.0 34.4 L3.7 34.35 3.2 34.15 3.0 34.05 2.95 33.95 1.95 32.35 1.85 32.2 1.45 31.55 1.4 31.45 1.25 31.2 0.85 30.45 0.75 30.3 0.7 30.15 0.4 29.65 0.3 29.4 0.25 29.3 0.15 29.1 0.0 28.8 0.05 28.45 Q0.3 26.8 0.7 25.4 L0.75 25.2 1.1 24.35 M13.2 16.25 L14.85 13.8 15.3 13.25 Q18.35 10.35 21.9 8.15" fill="none" stroke="#8f85b7" stroke-linecap="round" stroke-linejoin="round" stroke-width="1.0"/>
    </g>
  </defs>
</svg>
