<?xml version="1.0" encoding="UTF-8" standalone="no"?>
<svg xmlns:ffdec="https://www.free-decompiler.com/flash" xmlns:xlink="http://www.w3.org/1999/xlink" ffdec:objectType="frame" height="30.1px" width="30.0px" xmlns="http://www.w3.org/2000/svg">
  <g transform="matrix(1.0, 0.0, 0.0, 1.0, 0.0, 0.0)">
    <use ffdec:characterId="1" height="30.0" transform="matrix(1.0, 0.0, 0.0, 1.0, 0.0, 0.0)" width="30.0" xlink:href="#shape0"/>
    <use ffdec:characterId="5" height="30.0" transform="matrix(1.0, 0.0, 0.0, 1.0, 0.0, 0.1)" width="30.0" xlink:href="#sprite0"/>
  </g>
  <defs>
    <g id="shape0" transform="matrix(1.0, 0.0, 0.0, 1.0, 0.0, 0.0)">
      <path d="M0.0 0.0 L30.0 0.0 30.0 30.0 0.0 30.0 0.0 0.0" fill="#33cc66" fill-opacity="0.0" fill-rule="evenodd" stroke="none"/>
    </g>
    <g id="sprite0" transform="matrix(1.0, 0.0, 0.0, 1.0, 0.0, 0.0)">
      <use ffdec:characterId="2" height="30.0" transform="matrix(1.0, 0.0, 0.0, 1.0, 0.0, 0.0)" width="30.0" xlink:href="#shape1"/>
      <filter id="filter0">
        <feColorMatrix in="SourceGraphic" result="filterResult0" type="matrix" values="0 0 0 0 0.4,0 0 0 0 1.0,0 0 0 0 1.0,0 0 0 1 0"/>
        <feConvolveMatrix divisor="4.0" in="filterResult0" kernelMatrix="1 1 1 1" order="2 2" result="filterResult1"/>
        <feComposite in="SourceGraphic" in2="filterResult1" operator="over" result="filterResult2"/>
      </filter>
      <use ffdec:characterId="4" filter="url(#filter0)" height="90.6" transform="matrix(0.2489, -0.0867, 0.0867, 0.2489, 3.4829, 7.1175)" width="72.15" xlink:href="#sprite1"/>
    </g>
    <g id="shape1" transform="matrix(1.0, 0.0, 0.0, 1.0, 0.0, 0.0)">
      <path d="M26.7 30.0 L3.3 30.0 Q0.0 30.0 0.0 26.7 L0.0 3.3 Q0.0 0.0 3.3 0.0 L26.7 0.0 Q30.0 0.0 30.0 3.3 L30.0 26.7 Q30.0 30.0 26.7 30.0" fill="#999999" fill-rule="evenodd" stroke="none"/>
    </g>
    <g id="sprite1" transform="matrix(1.0, 0.0, 0.0, 1.0, 0.2, 0.2)">
      <use ffdec:characterId="3" height="116.85" transform="matrix(0.7753, 0.0, 0.0, 0.7753, -0.1923, -0.1801)" width="93.05" xlink:href="#shape2"/>
    </g>
    <g id="shape2" transform="matrix(1.0, 0.0, 0.0, 1.0, 46.55, 58.4)">
      <path d="M9.05 21.9 L9.2 24.1 9.2 25.85 8.5 23.95 7.5 21.2 5.4 16.3 5.4 14.75 5.4 11.0 5.3 8.3 5.1 3.75 4.7 -2.85 4.65 -3.55 4.95 -6.4 5.1 -13.85 5.3 -16.9 6.05 -11.55 6.55 -4.75 7.1 3.95 7.25 8.2 7.5 16.0 8.6 20.1 9.05 21.9" fill="#6994cb" fill-rule="evenodd" stroke="none"/>
      <path d="M5.65 -17.35 Q5.7 -14.55 6.15 -11.8 L7.1 -4.5 7.95 4.45 8.45 9.55 8.95 19.4 9.05 21.9 8.6 20.1 7.5 16.0 7.25 8.2 7.1 3.95 6.55 -4.75 6.05 -11.55 5.3 -16.9 5.4 -18.25 5.65 -17.35 M2.8 -0.1 L3.45 5.35 4.05 10.45 5.25 17.5 3.3 14.4 2.9 9.15 2.85 5.8 2.8 5.35 2.2 -1.6 2.8 -0.1" fill="#daf6fa" fill-rule="evenodd" stroke="none"/>
      <path d="M5.65 -17.35 L6.5 -13.85 7.85 -8.0 8.7 -4.0 10.6 4.45 11.4 8.45 12.85 14.75 13.35 17.3 15.0 23.65 17.35 32.85 17.35 32.9 17.3 35.85 17.05 42.35 12.9 38.0 11.45 36.45 Q11.2 37.3 11.1 38.25 L10.85 38.95 Q8.6 37.25 6.75 35.05 L5.1 33.3 4.9 30.0 4.0 20.85 3.35 14.75 3.3 14.4 5.25 17.5 4.05 10.45 3.45 5.35 2.8 -0.1 4.05 3.75 5.3 8.3 5.4 11.0 5.4 14.75 5.4 16.3 7.5 21.2 8.5 23.95 9.2 25.85 9.2 24.1 9.05 21.9 8.95 19.4 8.45 9.55 7.95 4.45 7.1 -4.5 6.15 -11.8 Q5.7 -14.55 5.65 -17.35" fill="#385faa" fill-rule="evenodd" stroke="none"/>
      <path d="M3.3 14.4 L3.35 14.75 4.0 20.85 4.9 30.0 5.1 33.3 6.75 35.05 Q8.6 37.25 10.85 38.95 L11.1 38.25 Q11.2 37.3 11.45 36.45 L12.9 38.0 17.05 42.35 17.3 35.85 17.35 32.9 17.35 32.85 15.0 23.65 13.35 17.3 12.85 14.75 11.4 8.45 10.6 4.45 8.7 -4.0 7.85 -8.0 6.5 -13.85 5.65 -17.35 5.4 -18.25 5.3 -16.9 5.1 -13.85 4.95 -6.4 4.65 -3.55 4.7 -2.85 5.1 3.75 5.3 8.3 4.05 3.75 2.8 -0.1 2.2 -1.6 2.8 5.35 2.85 5.8 2.9 9.15 3.3 14.4 Z" fill="none" stroke="#1a3e5f" stroke-linecap="round" stroke-linejoin="round" stroke-width="0.5"/>
      <path d="M-34.05 -14.45 L-30.85 -7.0 -28.1 -0.3 -26.55 3.75 -22.95 13.55 -20.85 19.4 -20.75 19.7 -20.6 20.15 -18.4 28.6 -16.6 35.0 -18.3 32.15 -21.7 27.25 -24.75 23.35 -26.95 15.95 -28.75 10.05 -31.55 0.4 -32.3 -2.45 -33.1 -8.0 -34.05 -14.45 M-29.65 22.9 L-27.95 26.75 -26.65 29.5 -23.7 36.1 -22.2 39.5 -21.65 41.45 -20.75 44.55 -20.4 45.95 Q-23.35 39.4 -27.65 33.9 L-28.45 31.8 -29.85 27.0 -31.9 20.85 -32.35 19.65 -31.9 20.15 -29.65 22.9" fill="#daf6fa" fill-rule="evenodd" stroke="none"/>
      <path d="M-20.75 19.7 L-20.85 19.4 -22.95 13.55 -26.55 3.75 -28.1 -0.3 -30.85 -7.0 -34.05 -14.45 -34.1 -15.0 -1.35 34.4 3.55 40.55 3.85 43.8 Q4.15 47.8 4.0 51.85 L3.9 54.8 1.45 53.75 1.45 56.5 1.45 58.2 -3.7 56.75 -10.55 55.15 -14.5 54.4 -19.15 53.45 -19.6 52.65 -18.55 48.3 -18.65 48.1 -20.7 42.95 -22.2 39.5 -23.7 36.1 -26.65 29.5 -27.95 26.75 -29.65 22.9 -29.5 22.95 -23.45 30.5 -22.2 32.15 -19.05 43.4 -17.85 48.1 Q-17.15 46.1 -15.8 44.15 L-14.3 41.7 -13.75 40.85 -13.2 39.85 -16.4 31.6 -20.75 19.7" fill="#385faa" fill-rule="evenodd" stroke="none"/>
      <path d="M-20.75 19.7 L-16.4 31.6 -13.2 39.85 -13.75 40.85 -14.3 41.7 -15.8 44.15 Q-17.15 46.1 -17.85 48.1 L-19.05 43.4 -22.2 32.15 -23.0 29.3 -24.75 23.35 -21.7 27.25 -18.3 32.15 -16.6 35.0 -18.4 28.6 -20.6 20.15 -20.75 19.7 M-22.2 39.5 L-20.7 42.95 -18.65 48.1 -18.55 48.3 -19.6 52.65 -21.85 47.2 -25.5 38.9 -27.2 34.95 -27.65 33.9 Q-23.35 39.4 -20.4 45.95 L-20.75 44.55 -21.65 41.45 -22.2 39.5" fill="#6994cb" fill-rule="evenodd" stroke="none"/>
      <path d="M-22.2 32.15 L-23.45 30.5 -29.5 22.95 -29.65 22.9 -31.9 20.15 -32.35 19.65 -31.9 20.85 -29.85 27.0 -28.45 31.8 -27.65 33.9 -27.2 34.95 -25.5 38.9 -21.85 47.2 -19.6 52.65 -19.15 53.45 -14.5 54.4 -10.55 55.15 -3.7 56.75 1.45 58.2 1.45 56.5 1.45 53.75 3.9 54.8 4.0 51.85 Q4.15 47.8 3.85 43.8 L3.55 40.55 -1.35 34.4 -34.1 -15.0 -34.05 -14.45 -33.1 -8.0 -32.3 -2.45 -31.55 0.4 -28.75 10.05 -26.95 15.95 -24.75 23.35 -23.0 29.3 -22.2 32.15 Z" fill="none" stroke="#1a3e5f" stroke-linecap="round" stroke-linejoin="round" stroke-width="0.5"/>
      <path d="M9.45 17.4 L9.45 15.45 9.05 -5.4 8.65 -15.05 7.95 -23.7 7.3 -31.25 6.85 -37.6 6.45 -47.0 6.35 -50.75 6.85 -48.65 7.4 -45.2 7.8 -42.65 8.85 -36.55 9.35 -33.4 9.8 -30.45 9.95 -30.1 11.15 -22.3 17.45 11.65 20.8 13.5 22.0 14.25 23.25 15.05 22.9 14.9 21.55 14.3 20.45 13.9 19.4 13.45 18.55 13.25 18.05 13.2 17.65 13.0 17.5 13.0 Q19.25 15.15 19.25 15.8 L19.05 15.8 18.3 15.75 16.45 12.95 16.1 12.9 14.7 12.8 12.85 12.75 12.55 12.7 11.6 12.6 14.9 16.15 14.75 16.3 14.7 16.35 14.45 16.5 14.0 16.85 12.25 15.45 10.85 13.3 10.6 14.05 9.45 17.4" fill="#f5ffb2" fill-rule="evenodd" stroke="none"/>
      <path d="M6.85 -48.65 L7.1 -47.65 9.2 -38.75 10.4 -33.35 11.8 -27.0 13.35 -20.0 15.1 -12.5 15.35 -11.3 14.1 -15.25 13.2 -18.35 11.55 -24.1 10.85 -26.65 10.25 -29.0 9.95 -30.1 9.8 -30.45 9.35 -33.4 8.85 -36.55 7.8 -42.65 7.4 -45.2 6.85 -48.65 M9.8 24.6 L9.45 17.4 10.6 14.05 10.85 13.3 12.25 15.45 14.0 16.85 14.45 16.5 14.7 16.35 14.9 16.2 16.55 17.3 17.25 17.5 Q17.7 17.5 18.0 17.1 L18.2 16.7 18.3 15.75 17.55 15.75 15.55 15.85 15.15 16.0 15.0 16.1 14.9 16.15 11.6 12.6 12.55 12.7 12.85 12.75 14.7 12.8 16.1 12.9 16.45 12.95 18.3 15.75 19.05 15.8 19.25 15.8 Q19.25 15.15 17.5 13.0 L17.65 13.0 18.05 13.2 18.55 13.25 19.4 13.45 20.45 13.9 21.55 14.3 22.9 14.9 23.25 15.05 25.1 16.2 25.9 16.8 26.4 17.15 26.9 17.6 Q28.45 19.0 29.75 20.7 L29.85 21.0 Q28.8 19.6 27.35 18.55 L26.45 17.95 23.9 16.85 22.5 16.45 21.5 16.2 20.2 16.05 19.4 15.85 19.25 15.8 19.25 15.95 19.25 16.4 19.0 17.6 18.95 17.65 20.8 19.2 22.95 21.6 21.9 21.45 21.85 21.4 21.65 21.2 21.55 21.15 21.3 20.9 21.25 20.75 21.1 20.6 20.55 19.9 20.0 19.35 19.7 19.1 Q19.5 18.9 19.15 18.85 L18.35 18.55 18.0 18.45 17.45 18.45 Q16.35 18.3 15.5 17.8 L14.35 17.1 14.0 16.85 13.5 17.2 13.15 17.5 12.9 17.65 12.6 18.0 11.9 18.95 Q11.05 20.4 10.75 22.05 L10.6 22.55 10.45 22.85 10.3 23.35 10.3 23.55 10.25 24.05 10.05 24.25 9.95 24.4 9.8 24.6" fill="#fae86a" fill-rule="evenodd" stroke="none"/>
      <path d="M15.35 -11.3 L16.95 -4.45 18.85 3.25 20.0 8.1 Q22.2 9.55 24.1 11.5 L29.75 17.45 31.95 19.95 36.0 25.4 Q37.95 28.25 39.5 31.3 41.65 35.8 43.45 40.45 44.75 43.85 45.6 47.4 L46.2 50.9 46.25 51.55 41.15 50.2 38.7 49.5 37.5 45.6 37.35 44.65 37.4 44.05 Q37.55 42.65 38.15 41.35 L38.3 40.95 Q38.35 40.5 38.75 40.25 L37.2 37.65 35.0 33.95 34.5 33.15 34.4 32.9 34.05 32.85 33.35 32.25 Q32.2 31.3 30.85 30.65 L30.25 30.4 29.15 30.0 28.0 29.85 27.85 29.45 26.1 25.85 25.0 24.3 23.6 22.4 22.95 21.6 24.1 21.85 25.8 22.25 26.6 22.6 28.25 23.35 Q30.1 24.1 31.7 25.3 33.45 26.5 34.85 28.15 L36.95 30.85 38.75 33.75 40.55 37.15 41.55 39.4 42.7 42.55 43.0 43.35 43.1 43.7 43.35 44.85 43.65 46.1 43.9 47.75 Q44.0 46.15 43.45 44.65 L43.45 44.55 43.35 44.35 43.35 44.3 43.1 43.65 43.0 43.1 41.9 39.7 40.6 35.85 39.6 33.55 38.3 31.05 36.65 28.55 33.0 23.6 31.15 21.45 29.0 19.35 27.0 17.6 26.4 17.15 25.9 16.8 25.85 16.55 Q24.65 15.7 23.25 15.05 L22.0 14.25 20.8 13.5 17.45 11.65 11.15 -22.3 9.95 -30.1 10.25 -29.0 10.85 -26.65 11.55 -24.1 13.2 -18.35 14.1 -15.25 15.35 -11.3 M37.5 49.15 L33.1 47.75 25.2 44.8 25.1 44.1 25.1 43.2 25.05 40.0 25.0 39.3 25.1 37.6 25.2 37.0 25.4 35.85 25.6 35.15 26.1 34.0 26.25 33.65 26.4 33.2 26.55 32.9 27.3 32.1 27.35 32.0 27.85 31.9 28.2 31.6 Q28.55 31.1 29.3 31.15 30.25 31.3 31.25 31.8 L32.65 32.85 33.2 33.3 33.65 33.9 34.1 34.4 34.55 35.15 35.15 35.95 37.05 39.45 37.3 40.0 37.55 40.4 Q36.65 41.9 36.55 43.7 L36.7 46.2 37.5 49.15 M24.25 44.4 L22.6 43.7 Q19.75 39.9 16.5 36.5 L12.8 32.7 10.1 30.35 9.9 26.05 11.2 24.65 12.45 23.6 Q13.35 22.95 14.35 22.5 L14.95 22.2 15.65 21.9 16.35 21.7 18.05 21.4 20.8 21.35 21.9 21.45 21.95 21.55 22.45 22.2 22.95 23.05 23.15 23.25 23.35 23.55 23.45 23.75 23.9 24.55 24.1 24.8 24.45 25.3 24.65 25.5 25.1 26.15 25.2 26.35 25.35 26.6 25.4 26.8 25.6 27.1 25.95 27.85 26.3 28.6 27.0 30.0 27.1 30.2 26.55 30.7 26.3 30.8 25.95 31.25 25.85 31.5 25.0 32.8 24.35 34.4 24.1 35.75 24.1 40.0 24.1 41.45 24.25 44.4" fill="#ce7030" fill-rule="evenodd" stroke="none"/>
      <path d="M38.7 49.5 L37.5 49.15 36.7 46.2 36.55 43.7 Q36.65 41.9 37.55 40.4 L37.3 40.0 37.05 39.45 35.15 35.95 34.55 35.15 34.1 34.4 33.65 33.9 33.2 33.3 32.65 32.85 31.25 31.8 Q30.25 31.3 29.3 31.15 28.55 31.1 28.2 31.6 L27.85 31.9 27.35 32.0 27.3 32.1 26.55 32.9 26.4 33.2 26.25 33.65 26.1 34.0 25.6 35.15 25.4 35.85 25.2 37.0 25.1 37.6 25.0 39.3 25.05 40.0 25.1 43.2 25.1 44.1 25.2 44.8 24.95 44.65 24.25 44.4 24.1 41.45 24.1 40.0 24.1 35.75 24.35 34.4 25.0 32.8 25.85 31.5 25.95 31.25 26.3 30.8 26.55 30.7 27.1 30.2 27.0 30.0 26.3 28.6 25.95 27.85 25.6 27.1 25.4 26.8 25.35 26.6 25.2 26.35 25.1 26.15 24.65 25.5 24.45 25.3 24.1 24.8 23.9 24.55 23.45 23.75 23.35 23.55 23.15 23.25 22.95 23.05 22.45 22.2 21.95 21.55 21.9 21.45 22.95 21.6 20.8 19.2 18.95 17.65 19.0 17.6 19.25 16.4 19.25 15.95 19.25 15.8 19.4 15.85 20.2 16.05 21.5 16.2 22.5 16.45 23.9 16.85 26.45 17.95 27.35 18.55 Q28.8 19.6 29.85 21.0 L29.75 20.7 Q28.45 19.0 26.9 17.6 L26.4 17.15 27.0 17.6 29.0 19.35 31.15 21.45 33.0 23.6 36.65 28.55 38.3 31.05 39.6 33.55 40.6 35.85 41.9 39.7 43.0 43.1 43.1 43.65 43.35 44.3 43.35 44.35 43.45 44.55 43.45 44.65 Q44.0 46.15 43.9 47.75 L43.65 46.1 43.35 44.85 43.1 43.7 43.0 43.35 42.7 42.55 41.55 39.4 40.55 37.15 38.75 33.75 36.95 30.85 34.85 28.15 Q33.45 26.5 31.7 25.3 30.1 24.1 28.25 23.35 L26.6 22.6 25.8 22.25 24.1 21.85 22.95 21.6 23.6 22.4 25.0 24.3 26.1 25.85 27.85 29.45 28.0 29.85 29.15 30.0 30.25 30.4 30.85 30.65 Q32.2 31.3 33.35 32.25 L34.05 32.85 34.5 33.15 35.0 33.95 37.2 37.65 38.75 40.25 Q38.35 40.5 38.3 40.95 L38.15 41.35 Q37.55 42.65 37.4 44.05 L37.35 44.65 37.5 45.6 38.7 49.5 M9.9 26.05 L9.8 24.6 9.95 24.4 10.05 24.25 10.25 24.05 10.3 23.55 10.3 23.35 10.45 22.85 10.6 22.55 10.75 22.05 Q11.05 20.4 11.9 18.95 L12.6 18.0 12.9 17.65 13.15 17.5 13.5 17.2 14.0 16.85 14.35 17.1 15.5 17.8 Q16.35 18.3 17.45 18.45 L18.0 18.45 18.35 18.55 19.15 18.85 Q19.5 18.9 19.7 19.1 L20.0 19.35 20.55 19.9 21.1 20.6 21.25 20.75 21.3 20.9 21.55 21.15 21.65 21.2 21.85 21.4 21.9 21.45 20.8 21.35 18.05 21.4 16.35 21.7 15.65 21.9 14.95 22.2 14.55 22.3 14.35 22.5 Q13.35 22.95 12.45 23.6 L11.2 24.65 9.9 26.05 M18.3 15.75 L18.2 16.7 18.0 17.1 Q17.7 17.5 17.25 17.5 L16.55 17.3 14.9 16.2 14.9 16.15 15.0 16.1 15.15 16.0 15.55 15.85 17.55 15.75 18.3 15.75" fill="#f6bc59" fill-rule="evenodd" stroke="none"/>
      <path d="M9.45 17.4 L9.45 15.45 9.05 -5.4 8.65 -15.05 7.95 -23.7 7.3 -31.25 6.85 -37.6 6.45 -47.0 6.35 -50.75 6.85 -48.65 7.1 -47.65 9.2 -38.75 10.4 -33.35 11.8 -27.0 13.35 -20.0 15.1 -12.5 15.35 -11.3 16.95 -4.45 18.85 3.25 20.0 8.1 Q22.2 9.55 24.1 11.5 L29.75 17.45 31.95 19.95 36.0 25.4 Q37.95 28.25 39.5 31.3 41.65 35.8 43.45 40.45 44.75 43.85 45.6 47.4 L46.2 50.9 46.25 51.55 41.15 50.2 38.7 49.5 37.5 49.15 33.1 47.75 25.2 44.8 24.95 44.65 24.25 44.4 22.6 43.7 Q19.75 39.9 16.5 36.5 L12.8 32.7 10.1 30.35 9.9 26.05 9.8 24.6 9.45 17.4 Z" fill="none" stroke="#7e2b14" stroke-linecap="round" stroke-linejoin="round" stroke-width="0.5"/>
      <path d="M-46.0 -57.6 L-45.3 -56.15 -41.3 -47.85 -37.3 -39.65 -34.95 -34.5 -32.95 -29.95 -32.8 -29.75 -32.75 -29.7 -32.7 -29.55 -32.65 -29.5 -32.35 -28.7 -29.55 -22.55 -26.9 -16.5 -24.15 -10.1 -21.5 -4.05 -19.05 1.4 -16.95 6.1 Q-11.55 7.75 -8.2 9.2 -6.35 10.0 -5.1 10.7 L-0.25 13.65 Q2.15 15.05 4.25 16.85 L5.6 18.0 Q2.5 16.05 -0.85 14.65 L-1.45 14.4 -6.35 12.35 Q-8.85 11.35 -11.5 10.95 L-11.55 11.35 -11.65 11.8 -11.8 12.15 -11.9 12.5 -12.45 13.35 -12.55 13.5 -12.35 15.5 -12.15 16.5 -11.45 18.15 -10.5 19.4 -10.15 19.75 -10.75 20.65 -12.15 18.6 -12.55 17.9 -13.5 15.8 -13.75 14.75 -14.75 14.4 -16.55 13.25 -17.2 12.55 -17.7 11.85 -18.25 11.2 -18.35 10.95 -18.7 11.0 -18.95 12.25 -18.7 15.8 -18.2 18.7 -18.2 18.95 -19.15 15.95 -20.75 11.4 -23.0 4.65 -26.8 -6.3 -34.05 -26.75 -37.1 -35.25 -39.9 -42.5 -42.25 -48.4 -44.1 -52.8 -46.3 -58.15 -46.0 -57.6 M-17.15 11.1 L-16.2 12.1 -14.4 13.15 Q-13.7 13.25 -13.35 12.6 L-13.05 11.85 -12.7 11.05 -12.6 10.75 -15.7 10.65 -17.5 10.8 -17.15 11.1" fill="#f5ffb2" fill-rule="evenodd" stroke="none"/>
      <path d="M-32.65 -29.5 L-32.7 -29.55 -32.75 -29.7 -32.8 -29.75 -32.95 -29.95 -34.95 -34.5 -37.3 -39.65 -41.3 -47.85 -45.3 -56.15 -46.0 -57.6 Q-44.2 -54.9 -42.85 -51.95 L-41.25 -48.6 -36.75 -39.65 -33.75 -33.85 -30.55 -27.45 -27.2 -20.65 -23.65 -13.4 -22.6 -11.2 -24.8 -15.1 -29.15 -23.05 -32.65 -29.5 M-18.2 18.95 L-18.2 18.7 -18.7 15.8 -18.95 12.25 -18.7 11.0 -18.35 10.95 -18.25 11.2 -17.7 11.85 -17.2 12.55 -16.55 13.25 -14.75 14.4 -13.75 14.75 -13.5 15.8 -12.55 17.9 -12.15 18.6 -10.75 20.65 -10.15 19.75 -10.5 19.4 -11.45 18.15 -12.15 16.5 -12.35 15.5 -12.55 13.5 -12.45 13.35 -11.9 12.5 -11.8 12.15 -11.65 11.8 -11.55 11.35 -11.5 10.95 Q-8.85 11.35 -6.35 12.35 L-1.45 14.4 3.5 17.85 Q5.65 19.65 7.25 21.85 L9.25 24.8 9.4 25.05 Q9.2 25.4 8.6 24.35 L8.3 23.85 Q6.15 21.25 3.25 19.6 L1.9 18.9 Q0.05 18.1 -1.85 17.6 L-5.1 17.45 -5.85 17.6 -9.05 19.0 -10.05 19.65 -10.15 19.75 -8.5 21.4 -8.2 21.7 Q-6.8 22.95 -5.1 23.75 L-4.55 24.05 -3.35 24.0 -3.0 24.05 -1.9 24.3 -1.75 24.3 Q0.25 24.8 2.05 25.85 L3.6 27.2 4.2 27.7 5.05 29.05 5.0 29.05 3.9 29.0 3.7 29.05 3.55 28.7 2.75 27.65 0.3 26.05 -0.05 25.9 -1.0 25.75 -1.3 25.7 -3.35 25.3 Q-4.4 25.35 -5.1 25.8 L-5.65 26.4 -5.75 26.85 -5.8 27.2 -5.7 29.05 -5.65 29.3 -5.0 31.1 -4.8 31.45 -4.75 31.6 -5.65 32.1 -5.75 31.9 -6.1 31.3 Q-6.9 29.5 -7.2 27.55 -7.4 26.5 -7.05 25.7 L-6.2 24.65 -6.25 24.6 -7.95 23.4 -8.15 23.25 -8.3 23.15 -8.95 22.6 -9.85 21.55 -10.75 20.65 Q-11.75 22.2 -11.95 24.1 L-12.3 25.55 -12.45 26.25 Q-12.3 28.65 -11.55 30.9 L-10.9 33.3 -10.85 33.75 -12.2 36.05 -18.2 18.95 M-17.15 11.1 L-17.5 10.8 -15.7 10.65 -12.6 10.75 -12.7 11.05 -13.05 11.85 -13.35 12.6 Q-13.7 13.25 -14.4 13.15 L-16.2 12.1 -17.15 11.1" fill="#fae86a" fill-rule="evenodd" stroke="none"/>
      <path d="M-32.65 -29.5 L-29.15 -23.05 -24.8 -15.1 -22.6 -11.2 -20.15 -6.45 -16.6 0.2 -13.95 5.0 -13.55 5.1 -10.9 6.0 -9.65 6.45 -9.35 6.55 -2.85 9.85 Q0.75 11.8 4.05 14.3 7.65 17.1 10.95 20.3 L14.05 23.7 19.4 30.55 21.55 33.9 24.8 40.4 25.8 42.65 26.15 44.05 27.15 48.6 27.75 52.75 27.85 53.9 28.25 57.4 25.85 56.75 24.0 56.2 24.0 55.9 23.0 53.1 21.3 49.6 20.0 47.55 18.2 45.6 17.35 44.8 14.45 41.95 14.25 41.8 10.45 41.55 9.75 41.35 Q7.65 40.9 5.85 39.85 L5.7 39.75 5.5 39.35 5.0 37.75 4.75 37.25 4.65 37.0 4.7 36.6 4.95 36.1 5.1 35.15 5.3 33.9 5.35 31.65 5.25 29.8 5.25 29.5 5.25 29.45 5.1 29.05 5.85 29.15 8.0 29.7 10.1 30.3 10.6 30.4 Q11.45 30.5 12.25 30.9 15.1 32.45 17.55 34.4 19.45 36.6 21.05 39.1 23.3 42.65 25.1 46.5 L26.8 50.5 26.15 48.05 25.2 44.85 24.25 42.0 22.6 38.9 17.8 31.0 Q15.1 26.85 11.5 23.4 L5.6 18.0 4.25 16.85 Q2.15 15.05 -0.25 13.65 L-5.1 10.7 Q-6.35 10.0 -8.2 9.2 -11.55 7.75 -16.95 6.1 L-19.05 1.4 -21.5 -4.05 -24.15 -10.1 -26.9 -16.5 -29.55 -22.55 -32.35 -28.7 -32.65 -29.5 M-4.7 31.55 L-3.65 31.0 -2.5 30.55 -1.9 30.35 Q-1.05 29.8 -0.15 29.8 L1.75 29.65 2.55 29.35 3.7 29.05 4.0 29.3 4.3 30.3 4.35 30.85 4.35 32.15 4.35 32.85 4.25 34.0 4.2 34.35 4.0 35.25 3.55 36.1 3.35 36.2 2.5 36.3 -1.3 35.15 -1.6 35.0 -1.8 34.85 -2.3 34.5 -2.9 33.9 -3.0 33.75 -3.65 33.15 -3.75 32.85 -3.95 32.6 -4.05 32.5 -4.45 31.95 -4.45 31.9 -4.7 31.55 M-5.4 32.45 L-5.35 32.85 -4.8 33.6 -4.75 33.65 -4.7 33.75 -4.55 34.25 -4.35 34.4 -3.6 35.05 -2.75 35.6 -2.1 35.95 1.7 37.0 2.25 37.2 3.35 37.3 4.35 38.9 4.95 40.0 5.35 41.25 5.25 42.2 5.15 43.05 Q5.15 44.55 5.5 46.1 L5.7 47.15 6.1 48.95 Q2.8 46.15 -0.85 43.95 -4.3 41.85 -8.0 40.25 L-11.15 39.05 -11.45 38.25 -11.95 36.8 -11.35 36.2 -10.4 35.45 -5.65 32.1 -5.45 32.35 -5.4 32.45 M22.55 55.65 L18.65 54.35 10.15 51.25 8.3 50.55 7.95 49.75 7.8 49.3 7.05 47.3 Q6.5 46.15 6.35 44.9 L6.3 42.2 Q6.3 41.7 6.7 41.8 L6.75 41.8 7.25 41.85 7.65 41.95 7.9 42.0 8.5 42.25 9.4 42.55 10.7 42.75 11.75 43.0 14.3 43.2 16.4 45.2 17.7 46.7 Q19.1 48.25 20.2 49.95 21.2 51.65 21.85 53.45 L22.55 55.65" fill="#ce7030" fill-rule="evenodd" stroke="none"/>
      <path d="M-1.45 14.4 L-0.85 14.65 Q2.5 16.05 5.6 18.0 L11.5 23.4 Q15.1 26.85 17.8 31.0 L22.6 38.9 24.25 42.0 25.2 44.85 26.15 48.05 26.8 50.5 25.1 46.5 Q23.3 42.65 21.05 39.1 19.45 36.6 17.55 34.4 15.1 32.45 12.25 30.9 11.45 30.5 10.6 30.4 L10.1 30.3 8.0 29.7 5.85 29.15 5.1 29.05 5.05 29.05 4.2 27.7 3.6 27.2 2.05 25.85 Q0.25 24.8 -1.75 24.3 L-1.9 24.3 -3.0 24.05 -3.35 24.0 -4.55 24.05 -5.1 23.75 Q-6.8 22.95 -8.2 21.7 L-8.5 21.4 -10.15 19.75 -10.05 19.65 -9.05 19.0 -5.85 17.6 -5.1 17.45 -1.85 17.6 Q0.05 18.1 1.9 18.9 L3.25 19.6 Q6.15 21.25 8.3 23.85 L8.6 24.35 Q9.2 25.4 9.4 25.05 L9.25 24.8 7.25 21.85 Q5.65 19.65 3.5 17.85 L-1.45 14.4 M-12.2 36.05 L-10.85 33.75 -10.9 33.3 -11.55 30.9 Q-12.3 28.65 -12.45 26.25 L-12.3 25.55 -11.95 24.1 Q-11.75 22.2 -10.75 20.65 L-9.85 21.55 -8.95 22.6 -8.3 23.15 -8.15 23.25 -7.95 23.4 -6.25 24.6 -6.2 24.65 -7.05 25.7 Q-7.4 26.5 -7.2 27.55 -6.9 29.5 -6.1 31.3 L-5.75 31.9 -5.65 32.1 -4.75 31.6 -4.7 31.6 -4.55 31.9 -4.45 31.9 -4.45 31.95 -4.05 32.5 -3.95 32.6 -3.75 32.85 -3.65 33.15 -3.0 33.75 -2.9 33.9 -2.3 34.5 -1.8 34.85 -1.6 35.0 -1.3 35.15 2.5 36.3 3.35 36.2 3.55 36.1 4.0 35.25 4.2 34.35 4.25 34.0 4.35 32.85 4.35 32.15 4.35 30.85 4.3 30.3 4.0 29.3 3.9 29.0 5.0 29.05 5.05 29.05 5.25 29.45 5.25 29.5 5.25 29.8 5.35 31.65 5.3 33.9 5.1 35.15 4.95 36.1 4.7 36.6 4.65 37.0 4.75 37.25 5.0 37.75 5.5 39.35 Q5.15 39.4 5.45 39.55 L5.7 39.75 5.85 39.85 Q7.65 40.9 9.75 41.35 L10.45 41.55 14.25 41.8 14.45 41.95 17.35 44.8 18.2 45.6 20.0 47.55 21.3 49.6 23.0 53.1 24.0 55.9 24.0 56.2 22.55 55.65 21.85 53.45 Q21.2 51.65 20.2 49.95 19.1 48.25 17.7 46.7 L16.4 45.2 14.3 43.2 11.75 43.0 10.7 42.75 9.4 42.55 8.5 42.25 7.9 42.0 7.65 41.95 7.25 41.85 6.75 41.8 6.7 41.8 Q6.3 41.7 6.3 42.2 L6.35 44.9 Q6.5 46.15 7.05 47.3 L7.8 49.3 7.95 49.75 8.3 50.55 7.55 50.25 6.2 49.0 6.1 48.95 5.7 47.15 5.5 46.1 Q5.15 44.55 5.15 43.05 L5.25 42.2 5.35 41.25 4.95 40.0 4.35 38.9 3.35 37.3 2.25 37.2 1.7 37.0 -2.1 35.95 -2.75 35.6 -3.6 35.05 -4.35 34.4 -4.55 34.25 -4.7 33.75 -4.75 33.65 -4.8 33.6 -4.9 33.4 -5.4 32.45 -5.45 32.35 -5.65 32.1 -10.4 35.45 -11.35 36.2 -11.95 36.8 -12.2 36.05 M-5.0 31.1 L-5.65 29.3 -5.7 29.05 -5.8 27.2 -5.75 26.85 -5.65 26.4 -5.1 25.8 Q-4.4 25.35 -3.35 25.3 L-1.3 25.7 -1.0 25.75 -0.05 25.9 0.3 26.05 2.75 27.65 3.55 28.7 3.7 29.05 2.55 29.35 1.75 29.65 -0.15 29.8 Q-1.05 29.8 -1.9 30.35 L-2.5 30.55 -3.65 31.0 -4.7 31.55 -5.0 31.1" fill="#f6bc59" fill-rule="evenodd" stroke="none"/>
      <path d="M-22.6 -11.2 L-23.65 -13.4 -27.2 -20.65 -30.55 -27.45 -33.75 -33.85 -36.75 -39.65 -41.25 -48.6 -42.85 -51.95 Q-44.2 -54.9 -46.0 -57.6 L-46.3 -58.15 -44.1 -52.8 -42.25 -48.4 -39.9 -42.5 -37.1 -35.25 -34.05 -26.75 -26.8 -6.3 -23.0 4.65 -20.75 11.4 -19.15 15.95 -18.2 18.95 -12.2 36.05 -11.95 36.8 -11.45 38.25 -11.15 39.05 -8.0 40.25 Q-4.3 41.85 -0.85 43.95 2.8 46.15 6.1 48.95 L6.2 49.0 7.55 50.25 8.3 50.55 10.15 51.25 18.65 54.35 22.55 55.65 24.0 56.2 25.85 56.75 28.25 57.4 27.85 53.9 27.75 52.75 27.15 48.6 26.15 44.05 25.8 42.65 24.8 40.4 21.55 33.9 19.4 30.55 14.05 23.7 10.95 20.3 Q7.65 17.1 4.05 14.3 0.75 11.8 -2.85 9.85 L-9.35 6.55 -9.65 6.45 -10.9 6.0 -13.55 5.1 -13.95 5.0 -16.6 0.2 -20.15 -6.45 -22.6 -11.2 Z" fill="none" stroke="#7e2b14" stroke-linecap="round" stroke-linejoin="round" stroke-width="0.5"/>
    </g>
  </defs>
</svg>
