<?xml version="1.0" encoding="UTF-8" standalone="no"?>
<svg xmlns:ffdec="https://www.free-decompiler.com/flash" xmlns:xlink="http://www.w3.org/1999/xlink" ffdec:objectType="frame" height="30.0px" width="30.0px" xmlns="http://www.w3.org/2000/svg">
  <g transform="matrix(1.0, 0.0, 0.0, 1.0, 0.0, 0.0)">
    <use ffdec:characterId="1" height="30.0" transform="matrix(1.0, 0.0, 0.0, 1.0, 0.0, 0.0)" width="30.0" xlink:href="#shape0"/>
    <use ffdec:characterId="3" height="30.0" transform="matrix(1.0, 0.0, 0.0, 1.0, 0.0, 0.0)" width="30.0" xlink:href="#sprite0"/>
  </g>
  <defs>
    <g id="shape0" transform="matrix(1.0, 0.0, 0.0, 1.0, 0.0, 0.0)">
      <path d="M0.0 0.0 L30.0 0.0 30.0 30.0 0.0 30.0 0.0 0.0" fill="#33cc66" fill-opacity="0.0" fill-rule="evenodd" stroke="none"/>
    </g>
    <g id="sprite0" transform="matrix(1.0, 0.0, 0.0, 1.0, 0.0, 0.1)">
      <use ffdec:characterId="2" height="30.0" transform="matrix(1.0, 0.0, 0.0, 1.0, 0.0, -0.1)" width="30.0" xlink:href="#shape1"/>
    </g>
    <g id="shape1" transform="matrix(1.0, 0.0, 0.0, 1.0, 0.0, 0.1)">
      <path d="M3.3 -0.1 L26.7 -0.1 Q30.0 -0.1 30.0 3.2 L30.0 26.6 Q30.0 29.9 26.7 29.9 L3.3 29.9 Q0.0 29.9 0.0 26.6 L0.0 3.2 Q0.0 -0.1 3.3 -0.1" fill="#ffcc66" fill-rule="evenodd" stroke="none"/>
      <path d="M11.95 8.0 L9.6 8.7 9.25 8.85 9.25 10.15 10.0 11.5 10.05 11.6 11.35 15.0 11.5 15.3 12.1 17.15 13.05 18.85 13.05 18.9 13.6 23.35 13.6 23.9 13.5 24.4 17.0 22.1 17.0 21.7 17.6 21.45 Q19.1 20.2 20.4 18.6 L20.6 18.35 20.25 18.05 20.15 17.9 22.1 15.15 21.4 14.45 22.8 12.45 22.45 9.7 22.25 9.0 22.2 8.9 22.15 8.85 Q18.15 6.9 13.25 7.7 L13.1 7.75 13.05 7.75 12.9 7.8 11.95 8.0 Z" fill="none" stroke="#ffffff" stroke-linecap="round" stroke-linejoin="round" stroke-width="3.0"/>
      <path d="M12.9 7.8 L13.05 7.75 13.1 7.75 13.25 7.7 15.85 7.65 17.4 7.85 18.0 7.95 19.35 8.25 20.45 8.7 21.45 9.15 21.5 9.3 19.7 8.65 16.8 8.1 15.0 8.05 12.15 8.4 10.2 8.85 9.55 9.05 9.5 9.0 9.6 8.95 11.4 8.25 12.9 7.8 M9.3 10.25 L9.25 10.15 9.25 8.9 9.5 9.0 9.5 9.05 9.45 9.15 9.35 9.85 9.3 10.15 9.3 10.25" fill="#a5c732" fill-rule="evenodd" stroke="none"/>
      <path d="M9.55 9.05 L10.2 8.85 12.15 8.4 15.0 8.05 16.8 8.1 19.7 8.65 21.5 9.3 21.05 9.55 20.6 9.35 20.4 9.3 18.9 8.95 17.5 8.75 17.2 8.7 16.85 8.7 16.1 8.65 16.05 8.65 13.9 8.65 13.75 8.65 13.15 8.65 13.1 8.7 12.0 8.85 9.95 9.3 9.9 9.3 9.75 9.2 9.6 9.05 9.55 9.05" fill="#419d14" fill-rule="evenodd" stroke="none"/>
      <path d="M9.95 9.3 L12.0 8.85 13.1 8.7 13.15 8.65 13.75 8.65 13.9 8.65 16.05 8.65 16.1 8.65 16.85 8.7 17.2 8.7 17.45 8.75 18.75 9.15 18.8 9.15 20.45 9.75 20.65 9.85 20.8 9.9 21.1 11.25 21.15 12.55 20.95 13.0 20.9 12.65 20.45 10.0 20.1 9.85 17.85 9.25 14.7 9.35 14.05 9.45 13.65 9.65 13.0 10.05 12.95 10.05 12.8 10.35 12.75 10.65 13.85 10.9 16.1 10.55 16.0 10.45 15.8 10.35 15.85 10.3 16.0 10.25 16.45 10.35 16.65 10.4 17.6 10.9 17.75 11.1 18.7 12.55 18.9 13.0 18.15 12.75 Q17.6 12.25 15.7 11.9 L12.85 11.55 10.65 11.45 10.5 11.1 10.15 10.6 9.95 10.3 9.85 10.15 9.85 10.05 9.9 9.35 9.95 9.3" fill="#ad423c" fill-rule="evenodd" stroke="none"/>
      <path d="M12.9 7.8 L11.4 8.25 9.6 8.95 9.5 9.0 9.25 8.9 9.25 8.85 9.6 8.7 11.95 8.0 12.9 7.8 M21.45 9.15 L20.45 8.7 19.35 8.25 18.0 7.95 17.4 7.85 15.85 7.65 13.25 7.7 Q18.15 6.9 22.15 8.85 L22.2 8.9 22.1 8.95 21.6 9.25 21.45 9.15" fill="#fdf8e5" fill-rule="evenodd" stroke="none"/>
      <path d="M9.55 9.05 L9.6 9.05 9.75 9.2 9.9 9.3 9.95 9.3 9.9 9.35 9.75 9.4 9.7 10.0 9.7 10.25 9.3 10.15 9.35 9.85 9.45 9.15 9.5 9.05 9.55 9.05" fill="#439f0c" fill-rule="evenodd" stroke="none"/>
      <path d="M21.55 14.25 L21.4 14.45 21.15 14.55 21.05 14.55 21.15 14.75 21.45 15.2 21.45 15.25 20.7 16.35 19.55 17.7 19.9 17.7 20.25 17.75 20.15 17.9 20.25 18.05 20.1 18.05 19.75 18.05 19.95 18.4 19.9 18.4 19.9 18.45 19.8 18.6 19.65 18.45 19.75 18.6 19.45 19.05 18.1 20.55 16.95 21.55 17.0 21.7 17.0 21.9 16.7 22.0 16.55 22.05 16.45 22.1 16.35 22.2 15.35 22.95 15.25 23.05 15.2 23.05 15.05 23.15 14.8 23.3 13.75 23.85 14.7 23.2 14.75 23.2 14.9 23.05 14.95 23.0 15.1 22.9 16.25 21.9 16.35 21.75 16.45 21.6 16.6 21.4 18.0 20.2 19.15 18.95 19.6 18.4 19.35 18.1 19.45 18.1 19.15 17.75 19.15 17.7 19.85 16.8 20.7 15.55 20.9 15.25 20.7 14.95 20.6 14.75 20.35 14.4 20.45 14.25 20.65 13.65 20.95 13.0 21.15 12.55 21.1 11.25 20.8 9.9 20.65 9.85 20.45 9.75 18.8 9.15 18.75 9.15 17.45 8.75 17.2 8.7 17.5 8.75 18.9 8.95 20.4 9.3 20.6 9.35 21.05 9.55 21.05 9.6 21.15 9.75 21.55 11.0 21.65 12.7 21.0 14.25 21.25 14.25 21.3 14.25 21.55 14.25 M9.9 9.35 L9.85 10.05 9.85 10.15 9.85 10.25 9.7 10.25 9.7 10.0 9.75 9.4 9.9 9.35" fill="#09553b" fill-rule="evenodd" stroke="none"/>
      <path d="M10.05 11.6 L10.0 11.5 9.3 10.25 9.3 10.15 9.7 10.25 9.85 10.25 9.85 10.15 9.95 10.3 10.15 10.6 10.5 11.1 10.65 11.45 10.05 11.6" fill="#0b5033" fill-rule="evenodd" stroke="none"/>
      <path d="M13.05 18.85 L12.1 17.15 11.5 15.3 11.35 15.0 10.05 11.6 10.65 11.45 10.7 11.65 10.8 11.85 10.9 12.15 10.95 12.3 11.3 13.45 11.7 14.75 11.8 15.05 11.95 15.35 12.3 16.3 12.7 17.4 12.75 17.45 12.85 17.65 13.25 18.95 13.05 18.85" fill="#0c5037" fill-rule="evenodd" stroke="none"/>
      <path d="M10.65 11.45 L12.85 11.55 15.7 11.9 Q17.6 12.25 18.15 12.75 L18.9 13.0 19.6 13.45 20.25 14.05 20.2 14.25 20.05 14.5 19.35 13.9 19.15 13.8 18.95 13.65 18.4 13.5 Q17.35 12.7 15.25 12.25 L12.95 11.85 12.65 11.75 11.6 11.55 10.8 11.6 10.7 11.65 10.65 11.45 M11.8 15.05 L13.45 15.35 15.35 15.9 16.4 16.25 16.55 16.3 16.75 16.35 17.65 16.7 19.05 17.6 19.1 17.65 19.15 17.75 19.45 18.1 19.35 18.1 19.05 17.85 18.9 17.75 Q18.15 17.2 17.1 16.75 L16.5 16.5 15.9 16.25 14.7 15.95 11.95 15.35 11.8 15.05" fill="#662b1d" fill-rule="evenodd" stroke="none"/>
      <path d="M11.8 15.05 L11.7 14.75 11.3 13.45 10.95 12.3 10.9 12.15 10.8 11.85 10.7 11.65 10.8 11.6 11.6 11.55 12.65 11.75 12.95 11.85 15.25 12.25 Q17.35 12.7 18.4 13.5 L18.95 13.65 18.5 14.35 17.8 15.4 16.9 16.25 16.75 16.35 16.55 16.3 16.4 16.25 15.35 15.9 13.45 15.35 11.8 15.05" fill="#b1413f" fill-rule="evenodd" stroke="none"/>
      <path d="M18.9 13.0 L18.7 12.55 17.75 11.1 17.6 10.9 16.65 10.4 16.45 10.35 16.0 10.25 15.85 10.3 15.8 10.35 16.0 10.45 16.1 10.55 13.85 10.9 12.75 10.65 12.8 10.35 12.95 10.05 13.0 10.05 13.65 9.65 14.05 9.45 14.7 9.35 17.85 9.25 20.1 9.85 20.45 10.0 20.9 12.65 20.8 12.85 20.4 13.65 20.25 14.05 19.6 13.45 18.9 13.0 M19.05 18.2 Q19.1 18.95 17.95 19.95 L16.95 20.7 16.35 21.05 15.65 20.4 14.95 19.4 14.65 18.0 14.65 17.55 Q14.8 17.15 15.3 17.0 L15.4 16.95 16.0 16.9 17.25 17.1 18.5 17.75 18.75 17.9 18.9 18.05 19.05 18.2 M15.05 20.7 L15.45 20.95 15.65 21.15 15.85 21.4 15.85 21.85 15.65 22.25 15.05 22.8 Q14.9 22.5 14.9 21.75 14.8 20.8 15.05 20.7" fill="#c7642d" fill-rule="evenodd" stroke="none"/>
      <path d="M22.2 8.9 L22.25 9.0 22.45 9.7 22.8 12.45 21.55 14.25 21.3 14.25 21.25 14.25 21.55 13.7 22.05 12.7 21.95 11.0 21.5 9.3 21.6 9.25 22.1 8.95 22.2 8.9 M21.4 14.45 L22.1 15.15 22.0 15.3 21.95 15.3 21.5 15.25 21.45 15.2 21.15 14.75 21.05 14.55 21.15 14.55 21.4 14.45" fill="#a3c441" fill-rule="evenodd" stroke="none"/>
      <path d="M21.05 9.55 L21.5 9.3 21.95 11.0 22.05 12.7 21.55 13.7 21.25 14.25 21.0 14.25 21.65 12.7 21.55 11.0 21.15 9.75 21.05 9.6 21.05 9.55" fill="#47a217" fill-rule="evenodd" stroke="none"/>
      <path d="M22.0 15.3 L20.25 17.75 19.9 17.7 19.55 17.7 20.7 16.35 21.45 15.25 21.5 15.25 21.95 15.3 22.0 15.3" fill="#3b7e1f" fill-rule="evenodd" stroke="none"/>
      <path d="M20.9 12.65 L20.95 13.0 20.65 13.65 20.45 14.25 20.25 14.05 20.4 13.65 20.8 12.85 20.9 12.65" fill="#ad473b" fill-rule="evenodd" stroke="none"/>
      <path d="M20.25 14.05 L20.45 14.25 20.35 14.4 20.2 14.65 20.05 14.5 20.2 14.25 20.25 14.05" fill="#5a261b" fill-rule="evenodd" stroke="none"/>
      <path d="M16.75 16.35 L16.9 16.25 17.8 15.4 18.5 14.35 18.95 13.65 19.15 13.8 19.35 13.9 20.05 14.5 20.2 14.65 20.35 14.4 20.6 14.75 20.7 14.95 20.9 15.25 20.7 15.55 19.85 16.8 19.15 17.7 19.1 17.65 19.05 17.6 17.65 16.7 16.75 16.35" fill="#c8632b" fill-rule="evenodd" stroke="none"/>
      <path d="M19.35 18.1 L19.6 18.4 19.15 18.95 18.0 20.2 16.6 21.4 16.45 21.6 16.4 21.55 15.95 21.0 14.7 19.8 Q14.1 19.25 13.45 19.0 L13.25 18.95 12.85 17.65 12.75 17.45 12.7 17.4 12.3 16.3 11.95 15.35 14.7 15.95 15.9 16.25 16.5 16.5 17.1 16.75 Q18.15 17.2 18.9 17.75 L19.05 17.85 19.35 18.1 M14.75 23.2 L14.7 23.2 13.75 23.85 13.65 22.75 13.55 21.55 13.7 21.75 14.45 22.7 14.75 23.2 M18.9 18.05 L18.75 17.9 18.5 17.75 17.25 17.1 16.0 16.9 15.4 16.95 15.3 17.0 Q14.8 17.15 14.65 17.55 L14.65 18.0 14.95 19.4 15.65 20.4 16.35 21.05 16.95 20.7 17.95 19.95 Q19.1 18.95 19.05 18.2 L19.0 17.95 18.9 18.05" fill="#b1413d" fill-rule="evenodd" stroke="none"/>
      <path d="M20.4 18.6 Q19.1 20.2 17.6 21.45 L17.0 21.7 16.95 21.55 18.1 20.55 19.45 19.05 19.75 18.6 19.8 18.6 19.9 18.45 20.0 18.45 20.35 18.6 20.4 18.6 M16.6 22.35 L13.5 24.4 13.6 23.9 13.75 23.85 14.8 23.3 15.05 23.15 15.2 23.05 15.25 23.05 15.35 22.95 16.35 22.2 16.45 22.1 16.55 22.25 16.6 22.35" fill="#449e0b" fill-rule="evenodd" stroke="none"/>
      <path d="M20.25 18.05 L20.6 18.35 20.4 18.6 20.35 18.6 20.0 18.45 19.95 18.4 19.75 18.05 20.1 18.05 20.25 18.05" fill="#9dc139" fill-rule="evenodd" stroke="none"/>
      <path d="M16.35 21.75 L16.25 21.9 15.1 22.9 14.95 23.0 14.85 22.9 14.5 22.35 13.45 21.15 13.45 20.6 13.3 19.15 Q14.4 19.55 15.4 20.5 L16.3 21.6 16.35 21.75 M19.05 18.2 L18.9 18.05 19.0 17.95 19.05 18.2 M15.05 20.7 Q14.8 20.8 14.9 21.75 14.9 22.5 15.05 22.8 L15.65 22.25 15.85 21.85 15.85 21.4 15.65 21.15 15.45 20.95 15.05 20.7" fill="#af3f3b" fill-rule="evenodd" stroke="none"/>
      <path d="M16.45 21.6 L16.35 21.75 16.3 21.6 15.4 20.5 Q14.4 19.55 13.3 19.15 L13.25 18.95 13.45 19.0 Q14.1 19.25 14.7 19.8 L15.95 21.0 16.4 21.55 16.45 21.6 M14.95 23.0 L14.9 23.05 14.75 23.2 14.45 22.7 13.7 21.75 13.55 21.55 13.5 21.5 13.45 21.25 13.45 21.15 14.5 22.35 14.85 22.9 14.95 23.0" fill="#742f28" fill-rule="evenodd" stroke="none"/>
      <path d="M17.0 21.9 L17.0 22.1 16.6 22.35 16.55 22.25 16.45 22.1 16.55 22.05 16.7 22.0 17.0 21.9" fill="#9cc23b" fill-rule="evenodd" stroke="none"/>
      <path d="M13.6 23.9 L13.6 23.35 13.3 20.65 13.25 20.6 13.05 18.9 13.05 18.85 13.25 18.95 13.3 19.15 13.45 20.6 13.45 21.15 13.45 21.25 13.5 21.5 13.55 21.55 13.65 22.75 13.75 23.85 13.6 23.9" fill="#0c501f" fill-rule="evenodd" stroke="none"/>
      <path d="M13.25 7.7 L13.1 7.75 13.05 7.75 12.9 7.8 11.95 8.0 9.6 8.7 9.25 8.85 9.25 8.9 9.25 10.15 9.3 10.25 10.0 11.5 10.05 11.6 11.35 15.0 11.5 15.3 12.1 17.15 13.05 18.85 13.05 18.9 13.25 20.6 M13.25 7.7 Q18.15 6.9 22.15 8.85 L22.2 8.9 22.25 9.0 22.45 9.7 22.8 12.45 21.55 14.25 21.4 14.45 22.1 15.15 22.0 15.3 20.25 17.75 20.15 17.9 20.25 18.05 20.6 18.35 20.4 18.6 Q19.1 20.2 17.6 21.45 L17.0 21.7 17.0 21.9 17.0 22.1 16.6 22.35 13.5 24.4 13.6 23.9 13.6 23.35 13.3 20.65" fill="none" stroke="#031f14" stroke-linecap="round" stroke-linejoin="round" stroke-width="1.0"/>
    </g>
  </defs>
</svg>
