<?xml version="1.0" encoding="UTF-8" standalone="no"?>
<svg xmlns:ffdec="https://www.free-decompiler.com/flash" xmlns:xlink="http://www.w3.org/1999/xlink" ffdec:objectType="frame" height="30.1px" width="30.0px" xmlns="http://www.w3.org/2000/svg">
  <g transform="matrix(1.0, 0.0, 0.0, 1.0, 0.0, 0.0)">
    <use ffdec:characterId="1" height="30.0" transform="matrix(1.0, 0.0, 0.0, 1.0, 0.0, 0.0)" width="30.0" xlink:href="#shape0"/>
    <use ffdec:characterId="6" height="30.0" transform="matrix(1.0, 0.0, 0.0, 1.0, 0.0, 0.1)" width="30.0" xlink:href="#sprite0"/>
  </g>
  <defs>
    <g id="shape0" transform="matrix(1.0, 0.0, 0.0, 1.0, 0.0, 0.0)">
      <path d="M0.0 0.0 L30.0 0.0 30.0 30.0 0.0 30.0 0.0 0.0" fill="#33cc66" fill-opacity="0.0" fill-rule="evenodd" stroke="none"/>
    </g>
    <g id="sprite0" transform="matrix(1.0, 0.0, 0.0, 1.0, 0.0, 0.0)">
      <use ffdec:characterId="2" height="30.0" transform="matrix(1.0, 0.0, 0.0, 1.0, 0.0, 0.0)" width="30.0" xlink:href="#shape1"/>
      <filter id="filter0">
        <feColorMatrix in="SourceGraphic" result="filterResult0" type="matrix" values="0 0 0 0 1.0,0 0 0 0 1.0,0 0 0 0 0.0,0 0 0 1 0"/>
        <feConvolveMatrix divisor="4.0" in="filterResult0" kernelMatrix="1 1 1 1" order="2 2" result="filterResult1"/>
        <feComposite in="SourceGraphic" in2="filterResult1" operator="over" result="filterResult2"/>
      </filter>
      <use ffdec:characterId="5" filter="url(#filter0)" height="82.6" transform="matrix(-0.255, -0.0301, 0.0301, -0.255, 25.1689, 26.7229)" width="87.15" xlink:href="#sprite1"/>
    </g>
    <g id="shape1" transform="matrix(1.0, 0.0, 0.0, 1.0, 0.0, 0.0)">
      <path d="M0.0 3.3 Q0.0 0.0 3.3 0.0 L26.7 0.0 Q30.0 0.0 30.0 3.3 L30.0 26.7 Q30.0 30.0 26.7 30.0 L3.3 30.0 Q0.0 30.0 0.0 26.7 L0.0 3.3" fill="#999999" fill-rule="evenodd" stroke="none"/>
    </g>
    <g id="sprite1" transform="matrix(1.0, 0.0, 0.0, 1.0, 6.1, -7.1)">
      <use ffdec:characterId="4" height="264.75" transform="matrix(0.312, 0.0, 0.0, 0.312, -6.106, 7.094)" width="279.4" xlink:href="#sprite2"/>
    </g>
    <g id="sprite2" transform="matrix(1.0, 0.0, 0.0, 1.0, 0.5, 0.5)">
      <use ffdec:characterId="3" height="264.75" transform="matrix(1.0, 0.0, 0.0, 1.0, -0.5, -0.5)" width="279.4" xlink:href="#shape2"/>
    </g>
    <g id="shape2" transform="matrix(1.0, 0.0, 0.0, 1.0, 0.5, 0.5)">
      <path d="M141.0 7.75 Q126.9 4.45 118.35 4.75 117.55 4.6 117.0 5.45 L117.0 6.75 Q117.0 14.05 123.85 19.4 L121.0 18.4 Q102.25 11.85 96.8 11.15 L90.05 10.2 86.85 9.75 83.95 10.0 Q82.9 10.35 82.15 10.75 81.35 11.1 80.45 13.95 79.55 16.75 82.15 28.15 84.7 39.55 91.85 55.05 L95.3 62.65 81.95 55.65 Q75.85 48.15 68.25 41.3 L68.9 44.45 69.7 49.75 Q59.75 45.6 53.85 44.95 L47.5 44.25 Q41.15 44.25 39.1 48.55 37.7 55.95 40.15 65.2 42.6 74.45 45.0 80.45 L47.75 87.6 55.2 101.95 Q59.1 108.85 64.55 116.45 70.1 124.2 77.25 132.75 82.5 139.0 92.95 149.0 100.25 154.3 109.65 159.95 L115.6 163.45 Q131.05 172.25 138.85 174.1 L135.2 171.45 Q130.05 167.6 125.0 163.1 L116.85 155.35 Q96.65 134.85 89.55 116.45 95.0 124.2 99.75 129.85 115.1 147.85 130.75 155.75 137.15 159.0 147.35 163.0 157.05 166.85 163.85 168.8 169.5 182.95 173.85 204.7 179.55 233.55 179.1 248.45 L156.1 252.5 Q136.95 255.25 122.35 255.25 L105.9 254.75 102.3 254.1 110.75 250.95 113.7 249.6 114.9 249.0 111.75 249.0 Q99.9 249.0 82.85 246.5 L68.85 244.2 68.7 244.2 66.5 243.35 60.2 240.85 55.0 238.55 Q44.3 233.45 38.8 228.35 L48.55 232.5 Q56.85 235.55 64.85 237.35 67.3 235.2 69.6 232.45 L72.45 228.85 72.95 228.1 72.55 228.05 Q64.2 226.9 55.8 224.25 51.9 223.0 48.0 221.45 27.55 213.2 19.95 200.5 L21.0 200.05 20.15 198.65 Q22.85 196.6 28.35 195.4 L26.65 193.75 26.35 193.45 26.1 193.15 Q18.0 184.95 14.5 178.25 10.1 170.1 7.5 163.45 2.15 149.65 0.6 138.4 L0.55 137.8 Q0.05 133.85 0.0 130.25 L0.0 130.2 0.0 129.75 Q0.0 123.95 0.75 120.8 L0.85 120.5 1.05 119.7 Q2.0 117.95 3.15 116.9 4.0 116.05 4.95 115.6 6.25 115.0 7.35 114.8 L7.6 114.75 Q13.2 114.75 18.85 115.95 23.2 116.85 27.55 118.5 L28.95 119.05 Q32.8 120.55 36.6 122.6 44.85 127.05 49.75 132.1 L46.2 130.2 Q39.9 127.05 34.3 125.6 29.05 124.25 24.4 124.3 22.9 124.6 22.4 125.45 21.9 126.3 21.75 129.25 22.45 143.15 29.3 157.95 33.8 167.5 45.9 175.15 53.6 180.0 61.55 181.85 56.75 176.35 56.25 166.0 55.75 155.6 57.9 152.85 61.35 163.8 68.35 169.9 L71.7 172.4 Q79.25 177.25 90.0 177.25 L99.85 175.95 Q81.5 159.75 68.7 147.55 48.2 127.9 42.1 118.45 38.15 112.3 35.8 106.75 32.25 98.45 32.25 91.5 L32.3 91.15 Q36.25 97.35 46.7 102.0 L47.5 102.35 Q42.25 94.75 37.85 83.2 34.15 73.45 31.95 63.0 30.05 53.9 30.75 48.2 31.25 45.75 32.45 44.35 33.8 42.7 36.95 41.3 L38.1 41.05 41.75 40.75 Q53.15 40.75 66.6 44.45 L65.5 41.3 63.6 35.0 Q64.45 35.4 67.15 37.8 L68.4 38.95 70.6 40.85 75.8 44.5 82.35 48.4 80.95 45.85 Q79.85 44.05 76.5 36.0 L74.9 31.9 Q73.4 27.8 73.0 25.35 71.75 19.85 71.75 15.0 L71.9 10.15 72.85 7.85 Q73.75 5.65 76.15 4.75 L79.0 4.25 89.55 5.15 93.65 5.9 107.65 9.0 Q101.45 1.65 109.0 0.0 L118.6 1.65 Q130.25 3.95 141.0 7.75 M23.0 31.35 Q23.0 29.25 24.15 27.75 25.3 26.25 28.15 26.0 31.0 25.75 33.15 28.15 30.55 28.2 28.65 29.35 25.5 31.15 25.5 35.35 L25.5 35.4 24.45 34.55 Q23.0 33.15 23.0 31.35 M39.25 30.85 L40.75 28.45 Q41.35 27.65 43.45 27.75 45.55 27.85 46.05 29.05 L46.85 31.5 Q46.05 31.65 44.2 31.0 L40.95 30.8 39.25 30.85 M21.0 200.05 Q22.5 202.25 25.0 204.65 30.85 210.4 42.7 216.45 54.5 222.45 63.45 223.85 L73.9 225.25 82.4 225.55 96.05 224.65 102.3 223.45 99.75 223.5 Q91.45 223.5 77.7 220.75 L74.3 220.0 Q81.0 219.8 91.0 218.05 99.25 216.65 104.35 214.95 L96.0 216.45 89.85 217.25 73.7 216.7 Q58.4 215.6 47.25 212.3 33.65 208.25 22.4 199.5 L21.0 200.05 M14.5 68.25 L17.7 76.65 Q21.4 85.7 24.9 90.7 L25.55 91.6 27.0 88.65 27.5 87.6 27.0 92.4 26.95 93.35 26.7 96.95 26.5 104.1 26.5 105.35 26.55 110.6 23.8 105.05 Q21.25 99.55 18.35 91.9 14.85 82.65 14.0 72.3 13.75 69.2 13.75 65.95 L14.5 68.25 M2.25 127.25 Q2.25 134.8 4.3 146.2 4.65 148.25 5.35 150.25 10.3 165.45 14.55 174.45 18.05 181.9 26.45 191.5 L32.0 195.95 36.1 198.75 Q39.35 200.15 43.5 201.25 L47.1 202.1 Q42.7 200.1 38.55 197.95 34.4 195.8 28.6 189.4 22.8 183.0 18.15 173.1 13.45 163.2 9.9 148.15 L8.65 142.15 Q7.7 137.4 7.55 131.1 7.35 124.8 9.95 121.8 12.55 118.75 14.35 118.1 L17.3 116.75 12.05 116.45 Q8.05 116.3 6.95 117.0 5.85 117.6 4.7 118.65 3.5 119.65 2.4 123.25 2.25 125.2 2.25 127.25 M24.25 94.3 L24.35 93.5 23.7 92.5 Q18.5 84.5 15.75 77.5 17.95 87.9 23.8 100.05 23.9 97.0 24.25 94.3 M35.7 183.6 Q31.9 180.5 29.75 178.2 34.7 186.4 43.0 193.0 L44.85 194.4 Q50.0 198.25 54.6 200.2 L54.9 197.5 55.8 192.6 Q53.8 192.2 51.55 190.85 49.3 189.45 47.25 187.7 L45.1 187.85 42.2 188.0 Q39.5 186.65 35.7 183.6 M31.25 196.25 L30.25 195.65 30.9 196.35 31.25 196.25 M21.8 219.7 L19.2 217.45 Q17.8 215.55 18.3 214.65 18.75 213.7 20.4 214.4 23.05 215.35 27.6 219.25 L28.7 220.2 Q29.55 222.05 28.85 222.95 28.15 223.85 26.55 223.5 L21.8 219.7 M64.25 199.75 L61.8 200.15 Q61.5 200.55 61.5 201.0 61.5 201.7 61.9 202.2 62.45 202.9 63.75 203.25 L66.0 203.5 67.75 203.5 Q68.5 203.4 68.5 202.5 68.5 201.0 66.5 200.25 L64.25 199.75 M100.0 261.5 Q100.0 262.45 98.3 263.1 L94.25 263.75 90.15 263.1 Q88.5 262.45 88.5 261.5 88.5 260.55 90.15 259.9 91.85 259.25 94.25 259.25 96.65 259.25 98.3 259.9 100.0 260.55 100.0 261.5 M65.05 239.25 L70.0 240.5 78.0 242.25 106.25 244.75 Q116.8 244.75 130.85 242.5 124.75 246.6 115.75 251.5 L138.5 250.0 147.4 248.85 153.45 247.2 150.55 241.95 148.8 239.0 Q146.3 234.95 144.1 232.0 L141.25 228.65 Q123.1 235.55 111.45 237.7 100.25 239.75 80.35 239.75 L70.25 239.55 65.05 239.25 M69.0 256.2 Q69.0 255.5 70.35 254.95 L73.65 254.45 Q75.6 254.45 76.95 254.95 78.3 255.5 78.3 256.2 78.3 256.9 76.95 257.4 L73.65 257.95 Q71.7 257.95 70.35 257.4 69.0 256.9 69.0 256.2" fill="#eca764" fill-rule="evenodd" stroke="none"/>
      <path d="M219.5 86.55 Q211.75 72.55 197.9 57.75 184.0 42.9 167.95 34.6 154.75 28.95 147.45 27.0 140.1 25.0 130.25 23.75 L120.95 22.4 Q123.45 23.75 126.2 25.75 L130.0 28.85 128.55 28.05 124.95 26.7 Q121.75 25.5 113.25 25.5 L109.2 25.95 Q107.75 26.35 106.35 27.0 105.15 28.4 105.25 30.95 105.3 33.5 107.55 39.05 105.6 39.2 104.35 39.9 L103.75 40.25 Q102.4 41.2 102.0 43.0 102.0 48.35 106.7 54.4 109.7 58.2 114.5 62.25 L116.55 63.95 118.95 69.6 Q126.55 87.05 129.5 91.5 131.55 94.6 134.75 98.3 137.3 100.95 141.8 103.15 146.35 105.3 152.35 105.95 161.35 122.0 190.25 159.5 207.2 181.5 245.35 209.8 256.6 218.15 265.95 224.4 259.8 226.8 250.2 229.9 231.85 235.85 210.4 241.3 193.7 245.5 179.1 248.45 179.55 233.55 173.85 204.7 169.5 182.95 163.85 168.8 157.05 166.85 147.35 163.0 137.15 159.0 130.75 155.75 115.1 147.85 99.75 129.85 95.0 124.2 89.55 116.45 96.65 134.85 116.85 155.35 L125.0 163.1 Q130.05 167.6 135.2 171.45 L138.85 174.1 Q131.05 172.25 115.6 163.45 L109.65 159.95 Q100.25 154.3 92.95 149.0 82.5 139.0 77.25 132.75 70.1 124.2 64.55 116.45 59.1 108.85 55.2 101.95 L47.75 87.6 45.0 80.45 Q42.6 74.45 40.15 65.2 37.7 55.95 39.1 48.55 41.15 44.25 47.5 44.25 L53.85 44.95 Q59.75 45.6 69.7 49.75 L68.9 44.45 68.25 41.3 Q75.85 48.15 81.95 55.65 L95.3 62.65 91.85 55.05 Q84.7 39.55 82.15 28.15 79.55 16.75 80.45 13.95 81.35 11.1 82.15 10.75 82.9 10.35 83.95 10.0 L86.85 9.75 90.05 10.2 96.8 11.15 Q102.25 11.85 121.0 18.4 L123.85 19.4 Q117.0 14.05 117.0 6.75 L117.0 5.45 Q117.55 4.6 118.35 4.75 126.9 4.45 141.0 7.75 179.15 21.35 205.3 53.95 209.85 59.55 214.0 65.75 221.35 77.7 221.0 88.75 L219.5 86.55 M101.4 17.75 L104.4 18.05 101.25 16.35 Q98.5 15.25 95.65 15.25 L90.85 15.75 Q87.35 16.25 86.95 20.55 86.55 24.85 87.45 27.75 88.35 30.65 90.7 35.55 93.05 40.4 97.65 44.5 L95.25 36.75 Q93.9 32.45 93.9 28.0 93.9 23.2 94.45 21.75 L95.2 20.35 Q97.0 17.75 101.4 17.75 M68.25 55.7 Q63.35 52.35 57.05 52.25 L56.75 52.25 53.8 52.65 Q51.95 53.3 50.65 55.8 49.35 58.25 49.8 61.8 L50.95 61.15 Q53.85 59.6 56.5 59.6 L57.7 59.7 Q57.65 59.4 58.65 57.2 59.6 54.95 63.75 55.6 67.1 56.15 69.7 57.25 L70.85 57.75 69.8 56.8 68.25 55.7 M54.8 67.6 Q53.35 69.9 52.8 72.25 59.2 92.4 69.95 109.9 81.3 128.35 94.55 139.3 L90.9 134.4 Q82.35 122.55 75.0 108.5 61.8 83.3 58.3 63.55 56.4 65.05 54.8 67.6 M62.1 64.1 L61.8 64.25 60.75 64.8 60.85 66.3 Q61.0 68.75 61.8 71.45 62.35 73.4 63.25 75.45 L64.2 74.9 64.3 74.85 63.75 70.65 63.3 63.65 Q62.75 63.8 62.1 64.1 M82.45 95.8 L83.9 99.7 86.6 105.6 86.95 105.3 88.5 103.75 88.5 101.45 85.4 97.4 83.2 94.15 80.9 90.1 Q81.4 92.7 82.45 95.8 M24.25 94.3 Q23.9 97.0 23.8 100.05 17.95 87.9 15.75 77.5 18.5 84.5 23.7 92.5 L24.35 93.5 24.25 94.3" fill="#fef6b8" fill-rule="evenodd" stroke="none"/>
      <path d="M68.25 55.7 L69.8 56.8 70.85 57.75 69.7 57.25 Q67.1 56.15 63.75 55.6 59.6 54.95 58.65 57.2 57.65 59.4 57.7 59.7 L56.5 59.6 Q53.85 59.6 50.95 61.15 L49.8 61.8 Q49.35 58.25 50.65 55.8 51.95 53.3 53.8 52.65 L56.75 52.25 57.05 52.25 Q63.35 52.35 68.25 55.7 M101.4 17.75 Q97.0 17.75 95.2 20.35 L94.45 21.75 Q93.9 23.2 93.9 28.0 93.9 32.45 95.25 36.75 L97.65 44.5 Q93.05 40.4 90.7 35.55 88.35 30.65 87.45 27.75 86.55 24.85 86.95 20.55 87.35 16.25 90.85 15.75 L95.65 15.25 Q98.5 15.25 101.25 16.35 L104.4 18.05 101.4 17.75 M62.1 64.1 Q62.75 63.8 63.3 63.65 L63.75 70.65 64.3 74.85 64.2 74.9 63.25 75.45 Q62.35 73.4 61.8 71.45 61.0 68.75 60.85 66.3 L60.75 64.8 61.8 64.25 62.1 64.1 M54.8 67.6 Q56.4 65.05 58.3 63.55 61.8 83.3 75.0 108.5 82.35 122.55 90.9 134.4 L94.55 139.3 Q81.3 128.35 69.95 109.9 59.2 92.4 52.8 72.25 53.35 69.9 54.8 67.6 M82.45 95.8 Q81.4 92.7 80.9 90.1 L83.2 94.15 85.4 97.4 88.5 101.45 88.5 103.75 86.95 105.3 86.6 105.6 83.9 99.7 82.45 95.8" fill="#fcfef9" fill-rule="evenodd" stroke="none"/>
      <path d="M265.95 224.4 Q256.6 218.15 245.35 209.8 207.2 181.5 190.25 159.5 161.35 122.0 152.35 105.95 146.35 105.3 141.8 103.15 137.3 100.95 134.75 98.3 131.55 94.6 129.5 91.5 126.55 87.05 118.95 69.6 L116.55 63.95 114.5 62.25 Q109.7 58.2 106.7 54.4 102.0 48.35 102.0 43.0 102.4 41.2 103.75 40.25 L104.35 39.9 Q105.6 39.2 107.55 39.05 105.3 33.5 105.25 30.95 105.15 28.4 106.35 27.0 107.75 26.35 109.2 25.95 L113.25 25.5 Q121.75 25.5 124.95 26.7 L128.55 28.05 130.0 28.85 126.2 25.75 Q123.45 23.75 120.95 22.4 L130.25 23.75 Q140.1 25.0 147.45 27.0 154.75 28.95 167.95 34.6 184.0 42.9 197.9 57.75 211.75 72.55 219.5 86.55 186.55 39.35 134.1 28.55 L132.8 29.0 Q131.95 29.3 131.95 30.65 L131.95 31.35 132.0 31.85 Q132.35 34.25 135.0 36.95 137.65 39.6 139.2 40.65 136.85 39.5 134.2 38.3 121.25 32.45 112.55 31.4 110.15 31.05 109.35 32.15 108.75 32.45 108.75 33.35 108.75 36.4 109.4 39.25 109.85 41.3 110.65 43.2 112.35 47.45 115.95 52.2 L113.75 50.5 Q111.95 49.1 109.7 48.05 L108.85 47.7 108.65 47.6 Q108.5 48.1 108.5 48.75 108.5 52.55 113.75 57.35 L119.3 61.8 Q120.2 64.7 121.45 67.55 125.9 77.85 134.75 87.1 141.05 93.65 145.4 96.0 146.95 96.8 148.0 95.7 150.75 92.65 149.75 75.25 155.05 92.3 163.4 106.05 173.35 122.5 187.75 134.25 219.45 173.9 261.5 197.75 287.5 209.9 273.5 221.0 270.8 222.45 265.95 224.4 M160.15 49.75 L153.1 46.35 Q147.25 43.65 143.55 43.7 143.65 40.55 144.35 38.25 152.5 41.05 157.15 45.8 158.8 47.55 160.15 49.75 M143.0 68.3 L142.45 65.35 Q144.3 65.75 145.3 66.4 147.0 67.5 147.0 69.85 147.0 72.05 145.0 73.5 L142.95 73.4 143.0 68.3" fill="#f7a55c" fill-rule="evenodd" stroke="none"/>
      <path d="M21.0 200.05 L22.4 199.5 Q33.65 208.25 47.25 212.3 58.4 215.6 73.7 216.7 L89.85 217.25 96.0 216.45 104.35 214.95 Q99.25 216.65 91.0 218.05 81.0 219.8 74.3 220.0 L77.7 220.75 Q91.45 223.5 99.75 223.5 L102.3 223.45 96.05 224.65 82.4 225.55 73.9 225.25 63.45 223.85 Q54.5 222.45 42.7 216.45 30.85 210.4 25.0 204.65 22.5 202.25 21.0 200.05 M2.25 127.25 Q2.25 125.2 2.4 123.25 3.5 119.65 4.7 118.65 5.85 117.6 6.95 117.0 8.05 116.3 12.05 116.45 L17.3 116.75 14.35 118.1 Q12.55 118.75 9.95 121.8 7.35 124.8 7.55 131.1 7.7 137.4 8.65 142.15 L9.9 148.15 Q13.45 163.2 18.15 173.1 22.8 183.0 28.6 189.4 34.4 195.8 38.55 197.95 42.7 200.1 47.1 202.1 L43.5 201.25 Q39.35 200.15 36.1 198.75 L32.0 195.95 26.45 191.5 Q18.05 181.9 14.55 174.45 10.3 165.45 5.35 150.25 4.65 148.25 4.3 146.2 2.25 134.8 2.25 127.25 M35.7 183.6 Q39.5 186.65 42.2 188.0 L45.1 187.85 47.25 187.7 Q49.3 189.45 51.55 190.85 53.8 192.2 55.8 192.6 L54.9 197.5 54.6 200.2 Q50.0 198.25 44.85 194.4 L43.0 193.0 Q34.7 186.4 29.75 178.2 31.9 180.5 35.7 183.6 M64.25 199.75 L66.5 200.25 Q68.5 201.0 68.5 202.5 68.5 203.4 67.75 203.5 L66.0 203.5 63.75 203.25 Q62.45 202.9 61.9 202.2 61.5 201.7 61.5 201.0 61.5 200.55 61.8 200.15 L64.25 199.75 M65.05 239.25 L70.25 239.55 80.35 239.75 Q100.25 239.75 111.45 237.7 123.1 235.55 141.25 228.65 L144.1 232.0 Q146.3 234.95 148.8 239.0 L150.55 241.95 153.45 247.2 147.4 248.85 138.5 250.0 115.75 251.5 Q124.75 246.6 130.85 242.5 116.8 244.75 106.25 244.75 L78.0 242.25 70.0 240.5 65.05 239.25" fill="#fff5be" fill-rule="evenodd" stroke="none"/>
      <path d="M265.95 224.4 Q270.8 222.45 273.5 221.0 287.5 209.9 261.5 197.75 219.45 173.9 187.75 134.25 173.35 122.5 163.4 106.05 155.05 92.3 149.75 75.25 150.75 92.65 148.0 95.7 146.95 96.8 145.4 96.0 141.05 93.65 134.75 87.1 125.9 77.85 121.45 67.55 120.2 64.7 119.3 61.8 L113.75 57.35 Q108.5 52.55 108.5 48.75 108.5 48.1 108.65 47.6 L108.85 47.7 109.7 48.05 Q111.95 49.1 113.75 50.5 L115.95 52.2 Q112.35 47.45 110.65 43.2 109.85 41.3 109.4 39.25 108.75 36.4 108.75 33.35 108.75 32.45 109.35 32.15 110.15 31.05 112.55 31.4 121.25 32.45 134.2 38.3 136.85 39.5 139.2 40.65 137.65 39.6 135.0 36.95 132.35 34.25 132.0 31.85 L131.95 31.35 131.95 30.65 Q131.95 29.3 132.8 29.0 L134.1 28.55 Q186.55 39.35 219.5 86.55 L221.0 88.75 Q221.35 77.7 214.0 65.75 209.85 59.55 205.3 53.95 179.15 21.35 141.0 7.75 130.25 3.95 118.6 1.65 L109.0 0.0 Q101.45 1.65 107.65 9.0 L93.65 5.9 89.55 5.15 79.0 4.25 76.15 4.75 Q73.75 5.65 72.85 7.85 L71.9 10.15 71.75 15.0 Q71.75 19.85 73.0 25.35 73.4 27.8 74.9 31.9 L76.5 36.0 Q79.85 44.05 80.95 45.85 L82.35 48.4 75.8 44.5 70.6 40.85 68.4 38.95 67.15 37.8 Q64.45 35.4 63.6 35.0 L65.5 41.3 66.6 44.45 Q53.15 40.75 41.75 40.75 L38.1 41.05 36.95 41.3 Q33.8 42.7 32.45 44.35 31.25 45.75 30.75 48.2 30.05 53.9 31.95 63.0 34.15 73.45 37.85 83.2 42.25 94.75 47.5 102.35 L46.7 102.0 Q36.25 97.35 32.3 91.15 L32.25 91.5 Q32.25 98.45 35.8 106.75 38.15 112.3 42.1 118.45 48.2 127.9 68.7 147.55 81.5 159.75 99.85 175.95 L90.0 177.25 Q79.25 177.25 71.7 172.4 L68.35 169.9 Q61.35 163.8 57.9 152.85 55.75 155.6 56.25 166.0 56.75 176.35 61.55 181.85 53.6 180.0 45.9 175.15 33.8 167.5 29.3 157.95 22.45 143.15 21.75 129.25 21.9 126.3 22.4 125.45 22.9 124.6 24.4 124.3 29.05 124.25 34.3 125.6 39.9 127.05 46.2 130.2 L49.75 132.1 Q44.85 127.05 36.6 122.6 32.8 120.55 28.95 119.05 L27.55 118.5 Q23.2 116.85 18.85 115.95 13.2 114.75 7.6 114.75 L7.35 114.8 Q6.25 115.0 4.95 115.6 4.0 116.05 3.15 116.9 2.0 117.95 1.05 119.7 L0.85 120.5 M179.1 248.45 Q193.7 245.5 210.4 241.3 231.85 235.85 250.2 229.9 259.8 226.8 265.95 224.4 M23.0 31.35 Q23.0 33.15 24.45 34.55 L25.5 35.4 25.5 35.35 Q25.5 31.15 28.65 29.35 30.55 28.2 33.15 28.15 31.0 25.75 28.15 26.0 25.3 26.25 24.15 27.75 23.0 29.25 23.0 31.35 M39.25 30.85 L40.75 28.45 Q41.35 27.65 43.45 27.75 45.55 27.85 46.05 29.05 L46.85 31.5 Q46.05 31.65 44.2 31.0 L40.95 30.8 39.25 30.85 M0.75 120.8 Q0.0 123.95 0.0 129.75 L0.0 130.2 0.0 130.25 Q0.05 133.85 0.55 137.8 M0.6 138.4 Q2.15 149.65 7.5 163.45 10.1 170.1 14.5 178.25 18.0 184.95 26.1 193.15 M26.35 193.45 L26.65 193.75 28.35 195.4 Q22.85 196.6 20.15 198.65 L19.3 199.35 19.95 200.5 Q27.55 213.2 48.0 221.45 51.9 223.0 55.8 224.25 64.2 226.9 72.55 228.05 L72.95 228.1 72.45 228.85 69.6 232.45 Q67.3 235.2 64.85 237.35 56.85 235.55 48.55 232.5 L38.8 228.35 Q44.3 233.45 55.0 238.55 L60.2 240.85 66.5 243.35 68.7 244.2 68.85 244.2 82.85 246.5 Q99.9 249.0 111.75 249.0 L114.9 249.0 113.7 249.6 110.75 250.95 102.3 254.1 105.9 254.75 122.35 255.25 Q136.95 255.25 156.1 252.5 L179.1 248.45 M14.5 68.25 L13.75 65.95 Q13.75 69.2 14.0 72.3 14.85 82.65 18.35 91.9 21.25 99.55 23.8 105.05 L26.55 110.6 26.5 105.35 26.5 104.1 26.7 96.95 26.95 93.35 27.0 92.4 27.5 87.6 27.0 88.65 25.55 91.6 24.9 90.7 Q21.4 85.7 17.7 76.65 L14.5 68.25 M21.8 219.7 L26.55 223.5 Q28.15 223.85 28.85 222.95 29.55 222.05 28.7 220.2 L27.6 219.25 Q23.05 215.35 20.4 214.4 18.75 213.7 18.3 214.65 17.8 215.55 19.2 217.45 L21.8 219.7 M100.0 261.5 Q100.0 262.45 98.3 263.1 L94.25 263.75 90.15 263.1 Q88.5 262.45 88.5 261.5 88.5 260.55 90.15 259.9 91.85 259.25 94.25 259.25 96.65 259.25 98.3 259.9 100.0 260.55 100.0 261.5 M69.0 256.2 Q69.0 255.5 70.35 254.95 L73.65 254.45 Q75.6 254.45 76.95 254.95 78.3 255.5 78.3 256.2 78.3 256.9 76.95 257.4 L73.65 257.95 Q71.7 257.95 70.35 257.4 69.0 256.9 69.0 256.2 M160.15 49.75 L153.1 46.35 Q147.25 43.65 143.55 43.7 143.65 40.55 144.35 38.25 152.5 41.05 157.15 45.8 158.8 47.55 160.15 49.75 M143.0 68.3 L142.95 73.4 145.0 73.5 Q147.0 72.05 147.0 69.85 147.0 67.5 145.3 66.4 144.3 65.75 142.45 65.35 L143.0 68.3 Z" fill="none" stroke="#aa7848" stroke-linecap="round" stroke-linejoin="round" stroke-width="1.0"/>
    </g>
  </defs>
</svg>
