<?xml version="1.0" encoding="UTF-8" standalone="no"?>
<svg xmlns:ffdec="https://www.free-decompiler.com/flash" xmlns:xlink="http://www.w3.org/1999/xlink" ffdec:objectType="frame" height="33.6px" width="30.0px" xmlns="http://www.w3.org/2000/svg">
  <g transform="matrix(1.0, 0.0, 0.0, 1.0, 0.0, 0.2)">
    <use ffdec:characterId="1" height="30.0" transform="matrix(1.0, 0.0, 0.0, 1.0, 0.0, 0.0)" width="30.0" xlink:href="#shape0"/>
    <use ffdec:characterId="6" height="411.65" transform="matrix(0.0817, 0.0, 0.0, 0.0817, 1.5293, -0.2082)" width="343.5" xlink:href="#sprite0"/>
  </g>
  <defs>
    <g id="shape0" transform="matrix(1.0, 0.0, 0.0, 1.0, 0.0, 0.0)">
      <path d="M0.0 0.0 L30.0 0.0 30.0 30.0 0.0 30.0 0.0 0.0" fill="#33cc66" fill-opacity="0.0" fill-rule="evenodd" stroke="none"/>
      <path d="M0.0 3.3 Q0.0 0.0 3.3 0.0 L26.7 0.0 Q30.0 0.0 30.0 3.3 L30.0 26.7 Q30.0 30.0 26.7 30.0 L3.3 30.0 Q0.0 30.0 0.0 26.7 L0.0 3.3" fill="#7089af" fill-rule="evenodd" stroke="none"/>
    </g>
    <g id="sprite0" transform="matrix(1.0, 0.0, 0.0, 1.0, 7.6, 32.55)">
      <use ffdec:characterId="2" height="71.75" transform="matrix(4.4595, -2.5746, 2.5746, 4.4595, -7.5805, 59.1036)" width="35.6" xlink:href="#shape1"/>
      <filter id="filter0">
        <feColorMatrix in="SourceGraphic" result="filterResult0" type="matrix" values="0 0 0 0 1.0,0 0 0 0 1.0,0 0 0 0 1.0,0 0 0 1 0"/>
        <feComposite in="SourceGraphic" in2="filterResult0" operator="over" result="filterResult1"/>
      </filter>
      <use ffdec:characterId="4" filter="url(#filter0)" height="35.8" transform="matrix(4.4595, -2.5746, 2.5746, 4.4595, 81.1741, 106.2383)" width="17.85" xlink:href="#sprite1"/>
      <use ffdec:characterId="5" height="28.15" transform="matrix(4.4595, -2.5746, 2.5746, 4.4595, 37.4912, 75.8933)" width="25.8" xlink:href="#shape3"/>
    </g>
    <g id="shape1" transform="matrix(1.0, 0.0, 0.0, 1.0, 17.8, 35.85)">
      <path d="M8.15 -34.35 L9.15 -35.3 9.2 -35.3 9.35 -33.9 9.45 -32.95 9.45 -32.3 9.5 -31.9 9.2 -31.4 9.05 -31.15 8.55 -30.2 8.45 -30.1 7.8 -28.75 7.15 -27.2 6.85 -26.45 7.2 -28.1 7.4 -29.0 7.6 -29.95 7.8 -31.0 7.8 -31.1 7.95 -31.95 8.15 -33.65 8.15 -34.35 M-16.95 -34.1 L-15.8 -33.75 -14.45 -33.15 -13.65 -32.8 -12.95 -31.2 -12.5 -30.35 -12.1 -29.5 -11.7 -28.75 -11.25 -27.95 -10.55 -26.85 -10.5 -26.75 -9.85 -25.75 -9.75 -25.6 -9.75 -25.4 -9.85 -25.5 -11.05 -26.55 -11.2 -26.7 -11.5 -27.0 -12.6 -28.15 -13.25 -28.85 -13.6 -29.3 -13.8 -29.65 -14.45 -30.5 -15.1 -31.35 -16.15 -32.95 -16.6 -33.55 -16.95 -34.1 M2.9 -32.45 L3.0 -32.4 4.05 -32.2 4.55 -32.05 4.65 -32.0 4.1 -31.85 2.95 -31.55 2.9 -32.45" fill="#65ecff" fill-rule="evenodd" stroke="none"/>
      <path d="M-13.65 -32.8 L-12.9 -32.45 -11.45 -31.7 -11.05 -31.5 -10.85 -30.8 -10.55 -29.8 -10.4 -29.2 -10.25 -28.45 -9.95 -26.95 -9.95 -26.9 -9.75 -25.6 -9.55 -25.2 -9.75 -25.4 -9.75 -25.6 -9.85 -25.75 -10.5 -26.75 -10.55 -26.85 -11.25 -27.95 -11.7 -28.75 -12.1 -29.5 -12.5 -30.35 -12.95 -31.2 -13.65 -32.8 M-8.8 -30.75 L-8.8 -30.85 -8.9 -31.05 -6.8 -31.7 -5.75 -31.9 -5.15 -31.0 -5.55 -30.8 -5.8 -30.8 -7.2 -30.75 -7.85 -30.75 -8.8 -30.75 M4.65 -32.0 L4.85 -31.95 4.9 -31.0 4.9 -29.6 4.95 -28.35 4.55 -28.55 3.25 -29.15 3.2 -29.35 3.15 -29.65 2.95 -30.45 2.95 -30.9 2.95 -31.5 2.95 -31.55 4.1 -31.85 4.65 -32.0 M6.75 -32.9 L7.0 -33.2 7.8 -33.95 8.15 -34.35 8.15 -33.65 7.95 -31.95 7.8 -31.1 7.8 -31.0 7.6 -29.95 7.4 -29.0 7.2 -28.1 6.85 -26.45 6.8 -26.25 6.8 -27.35 6.85 -28.2 6.85 -29.85 6.85 -30.15 6.85 -31.1 6.8 -32.25 6.75 -32.9 M16.0 -6.25 L16.2 -6.0 15.7 -4.55 15.5 -4.1 15.5 -4.0 15.35 -3.55 15.25 -3.95 15.05 -4.5 15.05 -4.6 14.5 -5.9 14.15 -6.5 13.05 -8.0 12.4 -8.95 11.8 -9.65 11.75 -9.8 11.35 -10.4 12.2 -9.85 13.2 -9.1 13.35 -8.95 15.35 -7.0 15.4 -6.95 15.9 -6.45 16.0 -6.25 M-10.85 -4.45 L-11.2 -2.85 -11.25 -2.65 -11.35 -1.9 -11.35 -1.8 -11.4 -1.4 -11.4 -0.9 -11.7 -1.4 -11.7 -1.45 -12.2 -2.3 -13.0 -3.55 -13.3 -3.95 -13.3 -4.0 -13.0 -4.55 -12.65 -5.15 -12.25 -5.65 -9.95 -8.05 -8.2 -9.55 -8.55 -8.9 -8.85 -8.25 Q-9.85 -7.25 -10.45 -5.75 L-10.85 -4.45" fill="#3bb8ff" fill-rule="evenodd" stroke="none"/>
      <path d="M9.5 -31.9 L9.5 -31.85 9.55 -31.15 9.55 -30.85 9.6 -30.2 9.6 -29.8 9.65 -27.8 9.65 -26.9 9.65 -26.8 9.9 -25.75 10.1 -25.35 10.4 -24.55 11.0 -23.6 11.45 -23.1 12.35 -22.4 12.9 -20.85 13.3 -19.6 13.3 -19.55 13.85 -17.95 14.35 -16.35 14.35 -16.3 14.6 -15.45 14.8 -14.95 15.2 -13.6 15.05 -12.8 14.9 -12.35 14.7 -12.05 14.5 -11.95 Q14.05 -11.9 13.65 -12.2 L13.05 -12.75 12.25 -13.65 12.1 -13.85 11.75 -14.4 11.7 -14.45 11.45 -14.7 11.3 -14.9 11.1 -15.15 10.2 -14.9 8.4 -14.5 7.5 -14.45 7.25 -14.85 7.05 -15.2 6.25 -16.5 6.25 -16.55 6.3 -16.65 6.25 -17.35 6.25 -17.55 6.15 -18.3 5.9 -19.6 5.65 -20.35 5.55 -20.45 4.7 -21.65 4.1 -22.2 4.05 -22.25 4.0 -22.3 3.25 -22.65 2.85 -22.8 1.45 -22.9 1.5 -22.75 1.6 -21.75 1.6 -21.45 0.5 -20.55 0.05 -20.15 -1.05 -19.1 -1.6 -18.5 -3.2 -16.75 -3.45 -16.4 -4.2 -15.4 -5.35 -13.45 -6.35 -13.45 -7.3 -13.5 -8.0 -13.65 -8.05 -13.55 -8.3 -13.3 -8.75 -12.85 -8.85 -12.8 -9.45 -12.3 -10.25 -11.8 Q-11.0 -11.4 -11.85 -11.15 L-12.6 -11.0 -13.75 -10.9 -15.35 -11.1 Q-16.1 -11.25 -16.7 -11.85 L-16.9 -12.0 -16.85 -14.05 -16.9 -15.0 -17.1 -17.5 -17.15 -18.25 -17.3 -19.2 -16.1 -21.3 -15.75 -22.65 -15.75 -22.8 -15.8 -24.0 -16.2 -25.45 -17.1 -27.3 -17.25 -27.5 -17.25 -27.65 -17.25 -28.7 -17.25 -29.4 -17.25 -30.45 -17.2 -31.4 -17.1 -33.15 -16.95 -34.1 -16.6 -33.55 -16.15 -32.95 -15.1 -31.35 -14.45 -30.5 -13.8 -29.65 -13.6 -29.3 -13.25 -28.85 -12.6 -28.15 -11.5 -27.0 -11.2 -26.7 -11.05 -26.55 -9.85 -25.5 -9.75 -25.4 -9.55 -25.2 -9.75 -25.6 -9.95 -26.9 -9.95 -26.95 -10.25 -28.45 -10.4 -29.2 -10.55 -29.8 -10.85 -30.8 -11.05 -31.5 -10.55 -31.2 -10.05 -30.0 -9.9 -29.85 -9.25 -28.7 -8.4 -27.3 -8.35 -27.25 -7.35 -25.9 -6.5 -24.75 -5.6 -24.45 -5.25 -24.3 -4.9 -24.2 -5.05 -24.35 -5.7 -25.15 -6.7 -26.6 -7.25 -27.55 -7.45 -27.85 -8.15 -29.2 -8.5 -30.0 -8.8 -30.75 -7.85 -30.75 -7.2 -30.75 -5.8 -30.8 -5.55 -30.8 -5.15 -31.0 -5.05 -30.85 -5.0 -30.8 -4.75 -30.4 -4.45 -30.05 -3.4 -28.65 -3.1 -28.35 -2.85 -28.0 -1.85 -26.95 -1.35 -26.6 -0.3 -25.95 1.25 -25.0 1.35 -24.95 1.6 -24.85 1.7 -25.05 1.8 -25.25 2.45 -26.8 2.85 -28.05 2.95 -28.75 2.95 -29.1 2.95 -29.2 2.95 -29.35 2.95 -29.85 2.95 -30.45 3.15 -29.65 3.2 -29.35 3.25 -29.15 4.55 -28.55 4.95 -28.35 4.9 -28.1 4.85 -26.9 4.6 -25.35 4.55 -24.95 4.8 -25.4 4.95 -25.6 5.55 -26.5 5.65 -27.4 5.85 -28.85 5.9 -29.75 5.95 -30.35 6.0 -31.05 6.0 -31.6 6.0 -32.15 6.75 -32.9 6.8 -32.25 6.85 -31.1 6.85 -30.15 6.85 -29.85 6.85 -28.2 6.8 -27.35 6.8 -26.25 6.8 -26.1 6.85 -26.45 7.15 -27.2 7.8 -28.75 8.45 -30.1 8.55 -30.2 9.05 -31.15 9.2 -31.4 9.5 -31.9 M16.15 -10.8 L16.4 -10.2 16.6 -9.7 17.05 -8.35 17.2 -8.05 17.2 -7.55 17.25 -7.2 17.25 -7.0 17.3 -5.9 16.65 -4.65 16.0 -3.45 16.0 -3.4 15.85 -3.2 15.45 -2.3 15.35 -2.2 15.05 -1.35 14.8 -0.7 14.7 -0.35 13.4 -0.85 13.25 -0.9 Q12.75 -1.1 12.2 -1.35 L10.15 -2.5 10.1 -2.6 9.35 -3.15 9.45 -3.3 9.65 -3.75 9.8 -4.0 10.05 -4.6 10.2 -5.15 Q10.55 -6.35 10.45 -7.65 L10.35 -8.45 10.05 -9.6 9.6 -10.85 10.95 -12.5 11.45 -11.65 11.65 -11.35 11.7 -11.25 12.1 -10.5 12.2 -10.45 12.65 -9.85 12.8 -9.65 13.4 -9.15 13.5 -9.05 14.55 -8.95 14.7 -9.0 15.25 -9.45 15.8 -10.1 15.85 -10.2 16.15 -10.8 M-10.55 2.35 L-10.65 2.35 -10.85 2.3 -10.9 2.15 -10.95 2.0 -11.25 1.05 -11.45 0.7 -12.05 -0.65 -12.2 -0.95 -12.8 -2.0 -13.55 -3.3 -13.75 -3.55 -13.8 -3.65 -14.2 -4.3 -14.7 -5.1 -15.25 -5.95 -16.1 -7.0 -15.85 -8.35 -15.7 -8.25 -14.5 -7.9 -13.9 -7.9 -13.25 -7.9 -11.4 -8.15 -10.85 -8.25 -10.7 -8.35 Q-10.3 -8.55 -10.0 -8.8 L-9.25 -9.55 -8.65 -10.3 -8.25 -10.9 -7.6 -10.5 -6.95 -10.15 -6.9 -10.1 -4.55 -9.0 -4.5 -9.0 -4.85 -7.1 -4.85 -6.65 -4.85 -6.4 -4.8 -6.0 -4.8 -5.9 -4.4 -3.65 -4.25 -3.25 Q-3.95 -2.45 -3.25 -1.9 L-3.2 -1.85 Q-3.25 -1.5 -3.55 -1.3 L-4.3 -0.7 -5.15 -0.05 -5.5 0.15 -6.85 0.9 -7.9 1.45 -9.15 1.95 -9.4 2.0 -10.35 2.35 -10.55 2.35 M16.0 -6.25 L15.9 -6.45 15.4 -6.95 15.35 -7.0 13.35 -8.95 13.2 -9.1 12.2 -9.85 11.35 -10.4 11.75 -9.8 11.8 -9.65 12.4 -8.95 13.05 -8.0 14.15 -6.5 14.5 -5.9 15.05 -4.6 15.05 -4.5 15.25 -3.95 15.35 -3.55 15.5 -4.0 15.5 -4.1 15.7 -4.55 16.2 -6.0 16.0 -6.25 M-10.85 -4.45 L-10.45 -5.75 Q-9.85 -7.25 -8.85 -8.25 L-8.55 -8.9 -8.2 -9.55 -9.95 -8.05 -12.25 -5.65 -12.65 -5.15 -13.0 -4.55 -13.3 -4.0 -13.3 -3.95 -13.0 -3.55 -12.2 -2.3 -11.7 -1.45 -11.7 -1.4 -11.4 -0.9 -11.4 -1.4 -11.35 -1.8 -11.35 -1.9 -11.25 -2.65 -11.2 -2.85 -10.85 -4.45" fill="#0e7aeb" fill-rule="evenodd" stroke="none"/>
      <path d="M15.55 -0.05 L15.5 -0.05 14.3 -0.05 12.85 -0.15 11.65 -0.35 11.7 2.45 11.7 3.05 11.7 3.45 11.3 3.1 11.15 2.95 10.95 2.75 10.75 2.55 10.6 2.4 10.45 2.25 9.6 1.5 9.5 1.65 9.3 2.0 9.05 2.35 9.05 0.3 8.95 -0.85 8.9 -2.0 7.9 -3.0 7.9 -3.2 7.9 -3.4 7.9 -3.75 8.0 -3.6 8.1 -3.45 8.15 -3.35 8.7 -2.75 8.75 -2.7 8.85 -2.65 9.15 -2.35 9.2 -2.3 10.1 -1.9 11.6 -1.25 12.65 -0.9 12.85 -0.8 13.4 -0.65 14.7 -0.25 14.7 -0.35 15.35 -0.1 15.55 -0.05 M10.1 2.9 L10.45 3.3 10.85 3.7 11.65 4.5 11.6 5.55 11.55 7.6 11.45 8.65 11.4 9.55 11.0 14.95 10.4 19.2 10.25 20.6 9.8 23.75 9.65 24.65 9.45 25.95 8.9 29.1 8.5 31.7 8.4 32.05 7.6 34.7 7.35 35.4 6.1 33.1 4.45 30.05 3.9 29.05 3.3 27.6 2.9 26.8 2.3 25.5 0.95 22.55 0.3 20.85 -1.1 17.05 -1.3 16.4 -1.75 15.05 -2.05 14.2 -3.3 10.2 -3.3 10.15 -3.7 8.95 -4.2 7.25 -4.25 7.0 -3.65 6.35 -2.25 4.75 -2.1 4.5 -1.25 6.4 -0.75 7.65 -0.65 7.85 0.25 10.2 0.75 11.65 0.75 11.75 1.9 14.85 2.2 15.6 2.65 16.7 3.95 19.6 5.15 22.35 5.85 24.05 5.85 24.2 5.9 24.25 6.2 25.25 6.65 26.55 7.15 28.35 7.25 28.6 7.8 25.2 8.25 20.3 8.6 13.15 8.7 10.55 8.8 7.3 8.85 6.7 8.95 5.25 9.0 3.6 9.0 3.45 9.0 3.35 9.3 3.1 9.5 2.9 9.6 2.8 9.7 2.7 10.0 2.8 10.1 2.9 M-5.75 -31.9 L-4.7 -32.75 -4.1 -33.1 -2.7 -34.05 -2.1 -34.45 -1.05 -35.05 -0.7 -35.25 -0.4 -35.35 -0.15 -35.2 1.05 -34.25 1.95 -33.4 2.75 -32.6 2.9 -32.45 2.95 -31.55 2.95 -31.5 2.95 -30.9 2.95 -30.45 2.95 -29.85 2.95 -29.35 2.95 -29.2 2.95 -29.1 2.95 -28.75 2.45 -27.55 1.85 -26.4 1.5 -26.0 1.35 -26.25 0.85 -27.1 0.7 -28.2 0.6 -28.95 0.55 -29.05 0.3 -30.6 0.3 -30.75 0.15 -31.4 -0.3 -33.6 -0.5 -34.55 -1.55 -33.8 -2.75 -32.8 -4.0 -31.85 -4.65 -31.45 -5.15 -31.0 -5.75 -31.9 M2.45 -16.65 L2.1 -17.75 Q2.0 -18.05 2.05 -18.3 L3.3 -17.55 4.15 -16.75 4.95 -15.8 5.7 -14.8 5.7 -13.85 5.55 -12.95 5.2 -11.7 4.9 -10.65 4.9 -10.55 5.2 -8.25 5.45 -3.95 5.55 -3.5 5.55 -2.45 5.55 -2.25 5.65 -0.45 5.65 0.3 5.7 1.4 5.7 3.65 5.7 4.55 5.7 5.2 5.45 7.25 5.3 5.35 5.25 4.7 5.0 1.7 4.95 1.3 4.75 -0.3 4.6 -1.8 4.45 -3.1 4.45 -3.35 4.4 -3.55 3.9 -7.85 3.9 -7.95 3.9 -8.2 3.9 -8.3 3.85 -8.45 3.85 -8.6 3.65 -10.05 3.65 -10.1 3.55 -10.95 3.2 -13.4 2.9 -14.9 2.65 -16.1 2.45 -16.65 M-8.75 1.95 L-7.3 1.5 -5.0 0.65 -4.5 0.45 -4.45 0.4 -4.1 0.25 -3.2 -0.15 -2.85 -0.35 -2.35 -0.7 -1.75 -1.1 -1.2 -1.6 -0.55 -2.3 -0.35 -2.7 -0.05 -1.65 -0.05 -1.5 0.05 -1.15 -0.7 -0.75 -3.8 0.65 -4.5 0.85 -6.55 1.55 -8.75 1.95 M5.55 8.75 L5.75 8.25 6.2 7.8 6.2 8.0 6.2 9.6 6.05 11.15 5.95 11.65 5.85 11.2 5.85 11.15 5.65 9.8 5.55 8.75 M-4.65 2.65 L-3.25 2.6 -3.0 2.6 -2.75 2.6 -4.05 3.8 -4.6 4.3 -4.65 4.4 -6.1 5.7 -6.15 5.75 -6.35 5.6 -7.25 5.05 -9.8 3.05 -6.8 2.7 -4.65 2.65" fill="#ffffff" fill-rule="evenodd" stroke="none"/>
      <path d="M2.95 -28.75 L2.85 -28.05 2.45 -26.8 1.8 -25.25 1.7 -25.05 1.6 -24.85 1.35 -24.95 1.25 -25.0 -0.3 -25.95 -1.35 -26.6 -1.85 -26.95 -2.85 -28.0 -3.1 -28.35 -3.4 -28.65 -4.45 -30.05 -4.75 -30.4 -5.0 -30.8 -5.05 -30.85 -5.15 -31.0 -4.65 -31.45 -4.0 -31.85 -2.75 -32.8 -1.55 -33.8 -0.5 -34.55 -0.3 -33.6 0.15 -31.4 0.3 -30.75 0.3 -30.6 0.55 -29.05 0.6 -28.95 0.7 -28.2 0.85 -27.1 1.35 -26.25 1.5 -26.0 1.85 -26.4 2.45 -27.55 2.95 -28.75" fill="#b3e1ff" fill-rule="evenodd" stroke="none"/>
      <path d="M15.2 -13.6 L15.35 -13.15 15.8 -11.9 15.7 -11.6 15.3 -10.8 15.15 -10.6 14.75 -10.3 14.2 -10.2 14.1 -10.2 Q13.7 -10.2 13.4 -10.45 L13.25 -10.55 12.45 -11.4 12.45 -11.45 12.3 -11.65 11.4 -12.9 11.25 -13.15 11.1 -13.45 11.05 -13.5 10.75 -13.9 10.7 -14.0 10.65 -14.1 10.35 -14.45 10.3 -14.5 8.9 -14.4 7.55 -14.4 7.5 -14.45 8.4 -14.5 10.2 -14.9 11.1 -15.15 11.3 -14.9 11.45 -14.7 11.7 -14.45 11.75 -14.4 12.1 -13.85 12.25 -13.65 13.05 -12.75 13.65 -12.2 Q14.05 -11.9 14.5 -11.95 L14.7 -12.05 14.9 -12.35 15.05 -12.8 15.2 -13.6 M-16.95 -10.55 L-16.9 -11.45 -16.9 -12.0 -16.7 -11.85 Q-16.1 -11.25 -15.35 -11.1 L-13.75 -10.9 -12.6 -11.0 -11.85 -11.15 Q-11.0 -11.4 -10.25 -11.8 L-9.45 -12.3 -8.85 -12.8 -8.75 -12.85 -8.3 -13.3 -8.05 -13.55 -8.0 -13.65 -7.3 -13.5 -6.35 -13.45 -5.35 -13.45 -5.0 -13.45 -4.8 -13.45 -5.05 -13.4 -5.3 -13.4 -5.45 -13.35 -5.55 -13.35 -5.8 -13.35 -7.55 -13.15 -7.6 -13.05 -7.85 -12.8 -8.25 -12.35 -8.35 -12.3 -8.45 -12.2 -9.3 -11.35 -9.65 -11.0 -10.5 -10.25 Q-11.2 -9.6 -12.1 -9.25 L-13.45 -9.1 -14.8 -9.4 -15.25 -9.55 -15.8 -9.8 -16.6 -10.25 -16.75 -10.35 -16.95 -10.55" fill="#774eec" fill-rule="evenodd" stroke="none"/>
      <path d="M15.8 -11.9 L15.85 -11.7 15.9 -11.6 16.1 -10.85 16.15 -10.8 15.85 -10.2 15.8 -10.1 15.25 -9.45 14.7 -9.0 14.55 -8.95 13.5 -9.05 13.4 -9.15 12.8 -9.65 12.65 -9.85 12.2 -10.45 12.1 -10.5 11.7 -11.25 11.65 -11.35 11.45 -11.65 10.95 -12.5 9.6 -10.85 10.05 -9.6 10.35 -8.45 10.45 -7.65 Q10.55 -6.35 10.2 -5.15 L10.05 -4.6 9.8 -4.0 9.65 -3.75 9.45 -3.3 9.35 -3.15 9.25 -3.25 9.35 -3.7 9.4 -3.85 9.5 -4.35 9.65 -4.95 9.75 -6.05 9.6 -7.7 9.45 -8.25 9.25 -8.8 8.9 -9.5 8.65 -9.8 8.35 -10.25 9.35 -11.4 10.65 -13.0 10.55 -13.15 10.4 -13.4 10.15 -13.7 10.1 -13.75 10.0 -13.9 9.95 -13.95 9.4 -13.85 8.6 -13.8 7.25 -13.6 6.6 -14.75 6.4 -15.15 6.1 -15.65 5.95 -15.8 5.6 -16.35 4.95 -17.1 4.85 -17.25 4.0 -18.25 3.5 -18.7 3.3 -19.0 3.05 -19.1 2.7 -19.25 2.0 -19.3 1.9 -19.3 0.75 -18.5 0.25 -18.05 -0.9 -17.05 -1.35 -16.6 -1.5 -16.45 -3.3 -14.35 -4.55 -12.6 -5.45 -12.7 -6.15 -12.75 -6.65 -12.75 -7.25 -12.7 -7.35 -12.55 -7.45 -12.4 -7.55 -12.2 -7.65 -11.95 -7.75 -11.8 -7.75 -11.75 -6.75 -10.95 -6.25 -10.65 -4.3 -9.55 -3.3 -9.05 -3.1 -8.95 -3.3 -8.5 -3.6 -7.85 -3.7 -7.3 -3.85 -6.7 -3.85 -6.5 -3.95 -5.4 -3.75 -3.45 -3.65 -3.1 -3.2 -1.85 -3.25 -1.9 Q-3.95 -2.45 -4.25 -3.25 L-4.4 -3.65 -4.8 -5.9 -4.8 -6.0 -4.85 -6.4 -4.85 -6.65 -4.85 -7.1 -4.5 -9.0 -4.55 -9.0 -6.9 -10.1 -6.95 -10.15 -7.6 -10.5 -8.25 -10.9 -8.65 -10.3 -9.25 -9.55 -10.0 -8.8 Q-10.3 -8.55 -10.7 -8.35 L-10.85 -8.25 -11.4 -8.15 -13.25 -7.9 -13.9 -7.9 -14.5 -7.9 -15.7 -8.25 -15.85 -8.35 -16.1 -7.0 -15.25 -5.95 -14.2 -4.3 -13.8 -3.65 -13.75 -3.55 -13.55 -3.3 -12.8 -2.0 -12.2 -0.95 -12.05 -0.65 -11.45 0.7 -11.25 1.05 -10.95 2.0 -10.9 2.15 -10.85 2.3 -11.15 2.2 -11.2 2.15 -11.25 2.1 -11.85 2.05 -11.9 1.95 -12.35 1.3 -13.15 0.3 -13.2 0.2 -14.25 -1.35 -14.8 -2.2 -14.95 -2.6 -14.95 -2.65 -15.9 -4.45 -16.2 -5.1 -17.1 -7.1 -17.1 -7.15 -17.05 -8.45 -17.05 -8.9 -17.0 -9.1 -16.95 -10.55 -16.75 -10.35 -16.6 -10.25 -15.8 -9.8 -15.25 -9.55 -14.8 -9.4 -13.45 -9.1 -12.1 -9.25 Q-11.2 -9.6 -10.5 -10.25 L-9.65 -11.0 -9.3 -11.35 -8.45 -12.2 -8.35 -12.3 -8.25 -12.35 -7.85 -12.8 -7.6 -13.05 -7.55 -13.15 -5.8 -13.35 -5.55 -13.35 -5.45 -13.35 -5.3 -13.4 -5.05 -13.4 -4.8 -13.45 -5.0 -13.45 -4.35 -14.4 -3.3 -15.75 -2.6 -16.45 -1.95 -17.2 -1.25 -17.9 0.1 -19.05 0.55 -19.4 0.95 -19.8 1.2 -19.85 1.9 -20.05 2.55 -20.1 2.8 -20.1 2.9 -20.05 3.15 -19.9 4.3 -18.85 5.65 -17.4 5.7 -17.35 5.7 -17.3 6.05 -16.85 6.25 -16.5 7.05 -15.2 7.25 -14.85 7.5 -14.45 7.25 -14.4 7.55 -14.4 8.9 -14.4 10.3 -14.5 10.35 -14.45 10.65 -14.1 10.7 -14.0 10.75 -13.9 11.05 -13.5 11.1 -13.45 11.25 -13.15 11.4 -12.9 12.3 -11.65 12.45 -11.45 12.45 -11.4 13.25 -10.55 13.4 -10.45 Q13.7 -10.2 14.1 -10.2 L14.2 -10.2 14.75 -10.3 15.15 -10.6 15.3 -10.8 15.7 -11.6 15.8 -11.9 M17.3 -5.9 L17.3 -5.75 17.3 -4.7 17.3 -4.3 17.05 -3.65 17.0 -3.45 16.35 -1.65 15.85 -0.45 15.7 -0.2 15.55 -0.05 15.35 -0.1 14.7 -0.35 14.8 -0.7 15.05 -1.35 15.35 -2.2 15.45 -2.3 15.85 -3.2 16.0 -3.4 16.0 -3.45 16.65 -4.65 17.3 -5.9" fill="#1236af" fill-rule="evenodd" stroke="none"/>
      <path d="M10.4 -13.4 L10.55 -13.15 10.65 -13.0 9.35 -11.4 8.35 -10.25 8.65 -9.8 8.9 -9.5 9.25 -8.8 9.45 -8.25 9.6 -7.7 9.75 -6.05 9.65 -4.95 9.5 -4.35 9.4 -3.85 9.35 -3.7 9.25 -3.25 9.35 -3.15 10.1 -2.6 10.15 -2.5 12.2 -1.35 Q12.75 -1.1 13.25 -0.9 L13.4 -0.85 14.7 -0.35 14.7 -0.25 13.4 -0.65 12.85 -0.8 12.65 -0.9 11.6 -1.25 10.1 -1.9 9.2 -2.3 9.15 -2.35 8.85 -2.65 8.75 -2.7 8.7 -2.75 8.15 -3.35 8.1 -3.45 8.0 -3.6 7.9 -3.75 7.9 -3.4 7.9 -3.2 7.9 -3.0 7.9 -2.05 7.9 -1.7 7.9 -0.75 7.9 0.1 7.95 0.65 7.95 3.35 7.95 3.9 7.95 3.95 7.95 4.35 8.0 5.5 8.0 7.05 7.95 9.05 7.9 9.95 7.9 10.45 7.85 11.1 7.65 13.7 7.3 15.6 6.6 18.2 5.95 17.1 5.5 16.2 4.3 13.4 4.2 13.0 3.9 12.05 3.75 11.75 3.4 10.55 3.3 10.45 3.15 9.8 2.3 7.05 2.2 6.75 2.05 6.2 1.9 5.55 1.6 4.5 1.35 3.55 1.25 3.25 0.85 1.95 0.6 0.8 0.4 0.25 0.3 -0.25 0.05 -1.15 -0.05 -1.5 -0.05 -1.65 -0.35 -2.7 -0.55 -2.3 -1.2 -1.6 -1.75 -1.1 -2.35 -0.7 -2.85 -0.35 -3.2 -0.15 -4.1 0.25 -4.45 0.4 -4.5 0.45 -5.0 0.65 -7.3 1.5 -8.75 1.95 -9.45 2.15 -10.0 2.25 -10.35 2.35 -9.4 2.0 -9.15 1.95 -7.9 1.45 -6.85 0.9 -5.5 0.15 -5.15 -0.05 -4.3 -0.7 -3.55 -1.3 Q-3.25 -1.5 -3.2 -1.85 L-3.65 -3.1 -3.75 -3.45 -3.95 -5.4 -3.85 -6.5 -3.85 -6.7 -3.7 -7.3 -3.6 -7.85 -3.3 -8.5 -3.1 -8.95 -3.3 -9.05 -4.3 -9.55 -6.25 -10.65 -6.75 -10.95 -7.75 -11.75 -7.75 -11.8 -7.65 -11.95 -7.55 -12.2 -7.45 -12.4 -6.4 -11.55 -5.75 -11.05 -4.05 -10.05 -3.2 -9.65 -2.8 -9.5 -1.5 -8.9 -1.3 -8.85 -1.0 -8.75 -0.7 -8.65 -0.6 -8.1 -0.6 -8.05 -0.55 -7.9 -0.5 -7.6 -0.4 -6.9 -0.15 -5.05 0.0 -4.2 0.3 -2.65 0.5 -1.8 0.5 -1.7 0.55 -1.5 0.8 -0.4 0.9 0.0 1.05 0.65 1.35 1.95 1.65 3.05 1.8 3.45 2.05 4.6 2.35 5.7 2.45 6.0 2.55 6.4 2.65 6.85 3.45 9.6 3.5 9.8 3.75 10.45 4.05 11.55 4.2 11.85 4.2 12.1 4.6 13.2 5.7 15.55 6.3 16.5 6.85 14.8 7.2 13.6 7.35 11.45 7.4 10.7 7.4 10.65 7.45 9.2 7.5 7.3 7.5 6.85 7.45 4.6 7.45 4.25 7.45 4.0 7.45 3.65 7.4 1.65 7.4 0.75 7.4 -0.3 7.45 -0.7 7.45 -2.0 7.45 -3.0 7.45 -3.35 7.45 -3.5 7.45 -4.2 7.45 -5.75 7.4 -7.6 7.35 -9.2 7.3 -9.25 7.25 -9.8 7.25 -9.85 7.7 -10.25 7.9 -10.5 8.05 -10.6 9.15 -11.8 10.1 -13.0 10.4 -13.4" fill="#6c8dd5" fill-rule="evenodd" stroke="none"/>
      <path d="M-7.45 -12.4 L-7.35 -12.55 -7.25 -12.7 -6.65 -12.75 -6.15 -12.75 -5.45 -12.7 -4.55 -12.6 -3.3 -14.35 -1.5 -16.45 -1.35 -16.6 -0.9 -17.05 0.25 -18.05 0.75 -18.5 1.9 -19.3 2.0 -19.3 2.7 -19.25 3.05 -19.1 3.3 -19.0 3.5 -18.7 4.0 -18.25 4.85 -17.25 4.95 -17.1 5.6 -16.35 5.95 -15.8 6.1 -15.65 6.4 -15.15 6.6 -14.75 7.25 -13.6 8.6 -13.8 9.4 -13.85 9.95 -13.95 10.0 -13.9 10.1 -13.75 10.15 -13.7 10.4 -13.4 10.1 -13.0 9.15 -11.8 8.05 -10.6 7.9 -10.5 7.7 -10.25 7.25 -9.85 7.25 -9.8 7.3 -9.25 7.35 -9.2 7.4 -7.6 7.45 -5.75 7.45 -4.2 7.45 -3.5 7.45 -3.35 7.45 -3.0 7.45 -2.0 7.45 -0.7 7.4 -0.3 7.4 0.75 7.4 1.65 7.45 3.65 7.45 4.0 7.45 4.25 7.45 4.6 7.5 6.85 7.5 7.3 7.45 9.2 7.4 10.65 7.4 10.7 7.35 11.45 7.2 13.6 6.85 14.8 6.3 16.5 5.7 15.55 4.6 13.2 4.2 12.1 4.2 11.85 4.05 11.55 3.75 10.45 3.5 9.8 3.45 9.6 2.65 6.85 2.55 6.4 2.45 6.0 2.35 5.7 2.05 4.6 1.8 3.45 1.65 3.05 1.35 1.95 1.05 0.65 0.9 0.0 0.8 -0.4 0.55 -1.5 0.5 -1.7 0.5 -1.8 0.3 -2.65 0.0 -4.2 -0.15 -5.05 -0.4 -6.9 -0.5 -7.6 -0.55 -7.9 -0.6 -8.05 -0.6 -8.1 -0.7 -8.65 -1.0 -8.75 -1.3 -8.85 -1.5 -8.9 -2.8 -9.5 -3.2 -9.65 -4.05 -10.05 -5.75 -11.05 -6.4 -11.55 -7.45 -12.4 M5.7 -13.85 L5.7 -14.8 4.95 -15.8 4.15 -16.75 3.3 -17.55 2.05 -18.3 Q2.0 -18.05 2.1 -17.75 L2.45 -16.65 1.75 -16.4 -0.25 -14.7 -0.95 -13.9 -2.15 -11.65 Q-0.85 -10.75 -0.25 -9.6 L-0.05 -9.25 0.3 -8.5 0.45 -8.25 0.45 -8.6 0.45 -9.5 Q0.45 -10.2 0.9 -10.85 L1.65 -11.5 2.0 -11.5 3.05 -10.85 3.1 -10.75 3.5 -10.0 3.7 -9.25 3.85 -8.6 3.85 -8.45 3.9 -8.3 3.9 -8.2 3.9 -7.95 3.9 -7.85 4.4 -3.55 4.45 -3.35 4.4 -3.1 4.3 -1.65 4.1 -0.35 4.1 -0.15 3.7 0.55 3.45 0.6 2.9 0.1 2.9 0.05 2.45 -0.8 1.85 -2.2 1.6 -3.2 1.05 -4.85 1.4 -3.3 1.6 -2.3 1.65 -2.1 1.95 -0.55 2.0 -0.2 2.15 0.3 2.5 1.9 2.7 2.6 3.0 3.95 Q3.05 3.4 3.4 2.9 L3.55 2.9 4.05 3.45 4.3 4.0 4.5 4.95 4.4 5.85 4.1 6.8 3.9 6.8 3.55 6.5 4.0 8.15 4.25 9.1 4.6 10.15 4.9 11.1 5.05 11.55 5.4 12.45 5.5 12.65 5.85 13.7 6.05 14.1 6.15 14.2 6.4 13.3 6.55 12.0 6.6 10.95 6.65 10.4 6.7 9.45 6.8 7.65 6.8 6.55 6.8 4.55 6.85 4.2 6.85 1.35 6.85 0.95 6.85 -0.6 6.85 -0.65 6.85 -2.3 6.9 -2.8 6.95 -3.65 6.95 -4.0 7.0 -6.05 7.0 -7.9 7.0 -8.55 6.95 -9.1 6.8 -10.05 6.5 -11.4 6.5 -11.55 6.3 -12.15 5.7 -13.85" fill="#00dbff" fill-rule="evenodd" stroke="none"/>
      <path d="M3.25 -22.65 L4.0 -22.3 4.05 -22.25 4.1 -22.2 4.7 -21.65 5.55 -20.45 5.65 -20.35 5.9 -19.6 6.15 -18.3 6.25 -17.55 6.25 -17.35 6.3 -16.65 6.25 -16.55 6.25 -16.5 6.05 -16.85 5.7 -17.3 5.7 -17.35 5.65 -17.4 4.3 -18.85 3.15 -19.9 2.9 -20.05 2.8 -20.1 2.55 -20.1 1.9 -20.05 1.2 -19.85 0.95 -19.8 0.55 -19.4 0.1 -19.05 -1.25 -17.9 -1.95 -17.2 -2.6 -16.45 -3.3 -15.75 -4.35 -14.4 -5.0 -13.45 -5.35 -13.45 -4.2 -15.4 -3.45 -16.4 -3.2 -16.75 -1.6 -18.5 -1.05 -19.1 0.05 -20.15 0.5 -20.55 1.6 -21.45 1.6 -21.75 1.5 -22.75 1.7 -21.8 1.9 -21.15 1.9 -21.05 2.4 -21.65 2.5 -21.75 2.8 -21.95 2.9 -22.0 2.9 -22.05 3.2 -22.15 3.3 -22.15 3.4 -22.2 3.75 -22.25 3.25 -22.65" fill="#39b6ff" fill-rule="evenodd" stroke="none"/>
      <path d="M3.2 -22.15 L2.9 -22.05 2.9 -22.0 2.8 -21.95 2.5 -21.75 2.4 -21.65 1.9 -21.05 1.9 -21.15 1.7 -21.8 1.5 -22.75 1.45 -22.9 2.85 -22.8 3.25 -22.65 3.75 -22.25 3.4 -22.2 3.2 -22.15" fill="#66edff" fill-rule="evenodd" stroke="none"/>
      <path d="M2.45 -16.65 L2.65 -16.1 2.9 -14.9 3.2 -13.4 3.55 -10.95 3.65 -10.1 3.65 -10.05 3.85 -8.6 3.7 -9.25 3.5 -10.0 3.1 -10.75 3.05 -10.85 2.0 -11.5 1.65 -11.5 0.9 -10.85 Q0.45 -10.2 0.45 -9.5 L0.45 -8.6 0.45 -8.25 0.3 -8.5 -0.05 -9.25 -0.25 -9.6 Q-0.85 -10.75 -2.15 -11.65 L-0.95 -13.9 -0.25 -14.7 1.75 -16.4 2.45 -16.65 M4.45 -3.35 L4.45 -3.1 4.6 -1.8 4.75 -0.3 4.95 1.3 5.0 1.7 5.25 4.7 5.3 5.35 5.45 7.25 5.7 5.2 5.7 4.55 5.7 3.65 5.7 1.4 5.65 0.3 5.65 -0.45 5.55 -2.25 5.55 -2.45 5.55 -3.5 5.45 -3.95 5.2 -8.25 4.9 -10.55 4.9 -10.65 5.2 -11.7 5.55 -12.95 5.7 -13.85 6.3 -12.15 6.5 -11.55 6.5 -11.4 6.8 -10.05 6.95 -9.1 7.0 -8.55 7.0 -7.9 7.0 -6.05 6.95 -4.0 6.95 -3.65 6.9 -2.8 6.85 -2.3 6.85 -0.65 6.85 -0.6 6.85 0.95 6.85 1.35 6.85 4.2 6.8 4.55 6.8 6.55 6.8 7.65 6.7 9.45 6.65 10.4 6.6 10.95 6.55 12.0 6.4 13.3 6.15 14.2 6.05 14.1 5.85 13.7 5.5 12.65 5.4 12.45 5.05 11.55 4.9 11.1 4.6 10.15 4.25 9.1 4.0 8.15 3.55 6.5 3.9 6.8 4.1 6.8 4.4 5.85 4.5 4.95 4.3 4.0 4.05 3.45 3.55 2.9 3.4 2.9 Q3.05 3.4 3.0 3.95 L2.7 2.6 2.5 1.9 2.15 0.3 2.0 -0.2 1.95 -0.55 1.65 -2.1 1.6 -2.3 1.4 -3.3 1.05 -4.85 1.6 -3.2 1.85 -2.2 2.45 -0.8 2.9 0.05 2.9 0.1 3.45 0.6 3.7 0.55 4.1 -0.15 4.1 -0.35 4.3 -1.65 4.4 -3.1 4.45 -3.35 M5.55 8.75 L5.65 9.8 5.85 11.15 5.85 11.2 5.95 11.65 6.05 11.15 6.2 9.6 6.2 8.0 6.2 7.8 5.75 8.25 5.55 8.75" fill="#46ffff" fill-rule="evenodd" stroke="none"/>
      <path d="M15.5 -0.05 L15.25 0.15 15.2 0.2 15.15 0.3 15.05 1.1 14.7 1.9 14.35 2.65 13.95 3.3 13.4 4.2 12.65 4.25 12.25 3.9 11.7 3.45 11.7 3.05 11.7 2.45 11.65 -0.35 12.85 -0.15 14.3 -0.05 15.5 -0.05 M11.65 4.5 L11.7 4.55 12.45 5.25 12.75 5.55 12.65 7.6 12.65 7.65 12.65 7.85 12.5 8.6 12.25 11.4 11.75 16.05 11.4 18.5 11.15 20.15 10.55 23.6 10.15 25.45 9.3 28.8 8.5 31.7 8.9 29.1 9.45 25.95 9.65 24.65 9.8 23.75 10.25 20.6 10.4 19.2 11.0 14.95 11.4 9.55 11.45 8.65 11.55 7.6 11.6 5.55 11.65 4.5 M3.9 29.05 L3.1 27.5 2.65 26.7 1.15 23.65 -0.4 20.35 -1.25 18.5 -2.0 16.7 -2.65 15.15 -2.75 14.85 -2.85 14.65 -3.05 14.1 -3.45 13.1 -3.75 12.2 -4.25 10.85 -4.7 9.6 -4.8 9.25 -4.9 9.05 -5.25 8.05 -5.1 7.85 -4.4 7.2 -4.4 7.15 -4.25 7.0 -4.2 7.25 -3.7 8.95 -3.3 10.15 -3.3 10.2 -2.05 14.2 -1.75 15.05 -1.3 16.4 -1.1 17.05 0.3 20.85 0.95 22.55 2.3 25.5 2.9 26.8 3.3 27.6 3.9 29.05 M-2.1 4.5 L-1.9 4.25 -2.0 4.2 -1.85 4.2 -1.55 4.25 -0.05 4.9 0.35 5.05 0.85 5.3 1.7 5.55 1.9 5.55 2.05 6.2 2.2 6.75 2.3 7.05 3.15 9.8 3.3 10.45 3.4 10.55 3.75 11.75 3.9 12.05 4.2 13.0 4.3 13.4 5.5 16.2 5.95 17.1 6.6 18.2 7.3 15.6 7.65 13.7 7.85 11.1 7.9 10.45 7.9 9.95 7.95 9.05 8.0 7.05 8.0 5.5 7.95 4.35 8.15 4.2 8.5 3.9 8.75 3.7 8.75 3.65 9.0 3.35 9.0 3.45 9.0 3.6 8.95 5.25 8.85 6.7 8.8 7.3 8.7 10.55 8.6 13.15 8.25 20.3 7.8 25.2 7.25 28.6 7.15 28.35 6.65 26.55 6.2 25.25 5.9 24.25 5.85 24.2 5.85 24.05 5.15 22.35 3.95 19.6 2.65 16.7 2.2 15.6 1.9 14.85 0.75 11.75 0.75 11.65 0.25 10.2 -0.65 7.85 -0.75 7.65 -1.25 6.4 -2.1 4.5 M-5.15 6.4 L-5.6 6.75 -5.85 6.9 -6.5 6.85 -6.7 6.85 -6.9 6.7 -8.6 5.2 -8.65 5.15 -10.3 3.4 -10.45 2.45 -10.55 2.35 -10.35 2.35 -10.0 2.25 -9.45 2.15 -8.75 1.95 -6.55 1.55 -4.5 0.85 -3.8 0.65 -0.7 -0.75 0.05 -1.15 0.3 -0.25 0.4 0.25 0.6 0.8 0.85 1.95 1.25 3.25 1.35 3.55 1.6 4.5 0.2 4.05 Q-0.1 3.9 -0.35 3.85 L-1.85 3.1 -2.0 3.05 -2.55 3.55 -2.85 3.85 -3.3 4.35 -4.6 5.85 -5.15 6.4 M7.95 3.35 L7.95 0.65 7.9 0.1 7.9 -0.75 7.9 -1.7 7.9 -2.05 7.9 -3.0 8.9 -2.0 8.95 -0.85 9.05 0.3 9.05 2.35 7.95 3.35 M-4.65 2.65 L-6.8 2.7 -9.8 3.05 -7.25 5.05 -6.35 5.6 -6.15 5.75 -6.1 5.7 -4.65 4.4 -4.6 4.3 -4.05 3.8 -2.75 2.6 -3.0 2.6 -3.25 2.6 -4.65 2.65" fill="#b1deff" fill-rule="evenodd" stroke="none"/>
      <path d="M10.95 2.75 L10.7 2.6 10.1 2.0 10.1 2.8 10.1 2.9 10.0 2.8 9.7 2.7 9.6 2.8 9.5 2.9 9.3 3.1 9.0 3.35 8.75 3.65 8.75 3.7 8.5 3.9 8.15 4.2 7.95 4.35 7.95 3.95 7.95 3.9 7.95 3.35 9.05 2.35 9.3 2.0 9.5 1.65 9.6 1.5 10.45 2.25 10.6 2.4 10.75 2.55 10.95 2.75 M-2.0 4.2 L-2.35 3.9 -2.5 3.8 -4.05 5.5 -4.1 5.5 -4.6 5.95 -5.15 6.4 -4.6 5.85 -3.3 4.35 -2.85 3.85 -2.55 3.55 -2.0 3.05 -1.85 3.1 -0.35 3.85 Q-0.1 3.9 0.2 4.05 L1.6 4.5 1.9 5.55 1.7 5.55 0.85 5.3 0.35 5.05 -0.05 4.9 -1.55 4.25 -1.85 4.2 -2.0 4.2" fill="#6a8bd2" fill-rule="evenodd" stroke="none"/>
      <path d="M8.15 -34.35 L9.15 -35.3 9.2 -35.3 9.35 -33.9 9.45 -32.95 9.45 -32.3 9.5 -31.9 9.5 -31.85 9.55 -31.15 9.55 -30.85 9.6 -30.2 9.6 -29.8 9.65 -27.8 9.65 -26.9 9.65 -26.8 9.9 -25.75 10.1 -25.35 10.4 -24.55 11.0 -23.6 11.45 -23.1 12.35 -22.4 12.9 -20.85 13.3 -19.6 13.3 -19.55 13.85 -17.95 14.35 -16.35 14.35 -16.3 14.6 -15.45 14.8 -14.95 15.2 -13.6 15.35 -13.15 15.8 -11.9 15.85 -11.7 15.9 -11.6 16.1 -10.85 16.15 -10.8 16.4 -10.2 16.6 -9.7 17.05 -8.35 17.2 -8.05 17.2 -7.55 17.25 -7.2 17.25 -7.0 17.3 -5.9 17.3 -5.75 17.3 -4.7 17.3 -4.3 17.05 -3.65 17.0 -3.45 16.35 -1.65 15.85 -0.45 15.7 -0.2 15.55 -0.05 15.5 -0.05 M-10.55 2.35 L-10.65 2.35 -10.85 2.3 -11.15 2.2 -11.2 2.15 -11.25 2.1 -11.85 2.05 -11.9 1.95 -12.35 1.3 -13.15 0.3 -13.2 0.2 -14.25 -1.35 -14.8 -2.2 -14.95 -2.6 -14.95 -2.65 -15.9 -4.45 -16.2 -5.1 -17.1 -7.1 -17.1 -7.15 -17.05 -8.45 -17.05 -8.9 -17.0 -9.1 -16.95 -10.55 -16.9 -11.45 -16.9 -12.0 -16.85 -14.05 -16.9 -15.0 -17.1 -17.5 -17.15 -18.25 -17.3 -19.2 -16.1 -21.3 -15.75 -22.65 -15.75 -22.8 -15.8 -24.0 -16.2 -25.45 -17.1 -27.3 -17.25 -27.5 -17.25 -27.65 -17.25 -28.7 -17.25 -29.4 -17.25 -30.45 -17.2 -31.4 -17.1 -33.15 -16.95 -34.1 -15.8 -33.75 -14.45 -33.15 -13.65 -32.8 -12.9 -32.45 -11.45 -31.7 -11.05 -31.5 -10.55 -31.2 -10.05 -30.0 -9.9 -29.85 -9.25 -28.7 -8.4 -27.3 -8.35 -27.25 -7.35 -25.9 -6.5 -24.75 -5.6 -24.45 -5.25 -24.3 -4.9 -24.2 -5.05 -24.35 -5.7 -25.15 -6.7 -26.6 -7.25 -27.55 -7.45 -27.85 -8.15 -29.2 -8.5 -30.0 -8.8 -30.75 -8.8 -30.85 -8.9 -31.05 -6.8 -31.7 -5.75 -31.9 M2.9 -32.45 L3.0 -32.4 4.05 -32.2 4.55 -32.05 4.65 -32.0 4.85 -31.95 4.9 -31.0 4.9 -29.6 4.95 -28.35 4.9 -28.1 4.85 -26.9 4.6 -25.35 4.55 -24.95 4.8 -25.4 4.95 -25.6 5.55 -26.5 5.65 -27.4 5.85 -28.85 5.9 -29.75 5.95 -30.35 6.0 -31.05 6.0 -31.6 6.0 -32.15 6.75 -32.9 7.0 -33.2 7.8 -33.95 8.15 -34.35" fill="none" stroke="#244cd0" stroke-linecap="round" stroke-linejoin="round" stroke-width="1.0"/>
      <path d="M15.5 -0.05 L15.25 0.15 15.2 0.2 15.15 0.3 15.05 1.1 14.7 1.9 14.35 2.65 13.95 3.3 13.4 4.2 12.65 4.25 12.25 3.9 11.7 3.45 11.3 3.1 11.15 2.95 M10.95 2.75 L10.7 2.6 10.1 2.0 10.1 2.8 10.1 2.9 10.45 3.3 10.85 3.7 11.65 4.5 11.7 4.55 12.45 5.25 12.75 5.55 12.65 7.6 12.65 7.65 12.65 7.85 12.5 8.6 12.25 11.4 11.75 16.05 11.4 18.5 11.15 20.15 10.55 23.6 10.15 25.45 9.3 28.8 8.5 31.7 8.4 32.05 7.6 34.7 7.35 35.4 6.1 33.1 4.45 30.05 3.9 29.05 3.1 27.5 2.65 26.7 1.15 23.65 -0.4 20.35 -1.25 18.5 -2.0 16.7 -2.65 15.15 -2.75 14.85 -2.85 14.65 -3.05 14.1 -3.45 13.1 -3.75 12.2 -4.25 10.85 -4.7 9.6 -4.8 9.25 -4.9 9.05 -5.25 8.05 -5.1 7.85 -4.4 7.2 -4.4 7.15 -4.25 7.0 -3.65 6.35 -2.25 4.75 -2.1 4.5 -1.9 4.25 -2.0 4.2 -2.35 3.9 -2.5 3.8 -4.05 5.5 -4.1 5.5 -4.6 5.95 -5.15 6.4 -5.6 6.75 -5.85 6.9 -6.5 6.85 -6.7 6.85 -6.9 6.7 -8.6 5.2 -8.65 5.15 -10.3 3.4 -10.45 2.45 -10.55 2.35 M-5.75 -31.9 L-4.7 -32.75 -4.1 -33.1 -2.7 -34.05 -2.1 -34.45 -1.05 -35.05 -0.7 -35.25 -0.4 -35.35 -0.15 -35.2 1.05 -34.25 1.95 -33.4 2.75 -32.6 2.9 -32.45" fill="none" stroke="#446faa" stroke-linecap="round" stroke-linejoin="round" stroke-width="1.0"/>
    </g>
    <g id="sprite1" transform="matrix(1.0, 0.0, 0.0, 1.0, 8.9, 17.9)">
      <use ffdec:characterId="3" height="35.8" transform="matrix(1.0, 0.0, 0.0, 1.0, -8.9, -17.9)" width="17.85" xlink:href="#shape2"/>
    </g>
    <g id="shape2" transform="matrix(1.0, 0.0, 0.0, 1.0, 8.9, 17.9)">
      <path d="M8.95 -12.0 L8.65 -11.6 7.7 -10.4 6.6 -9.2 6.45 -9.1 6.25 -8.85 5.8 -8.45 5.8 -8.4 5.85 -7.85 5.9 -7.8 5.95 -6.2 6.0 -4.35 6.0 -2.8 6.0 -2.1 6.0 -1.95 6.0 -1.6 6.0 -0.6 6.0 0.7 5.95 1.1 5.95 2.15 5.95 3.05 6.0 5.05 6.0 5.4 6.0 5.65 6.0 6.0 6.05 8.25 6.05 8.7 6.0 10.6 5.95 12.05 5.95 12.1 5.9 12.85 5.75 15.0 5.4 16.2 4.85 17.9 4.25 16.95 3.15 14.6 2.75 13.5 2.75 13.25 2.6 12.95 2.3 11.85 2.05 11.2 2.0 11.0 1.2 8.25 1.1 7.8 1.0 7.4 0.9 7.1 0.6 6.0 0.35 4.85 0.2 4.45 -0.1 3.35 -0.4 2.05 -0.55 1.4 -0.65 1.0 -0.9 -0.1 -0.95 -0.3 -0.95 -0.4 -1.15 -1.25 -1.45 -2.8 -1.6 -3.65 -1.85 -5.5 -1.95 -6.2 -2.0 -6.5 -2.05 -6.65 -2.05 -6.7 -2.15 -7.25 -2.45 -7.35 -2.75 -7.45 -2.95 -7.5 -4.25 -8.1 -4.65 -8.25 -5.5 -8.65 -7.2 -9.65 -7.85 -10.15 -8.9 -11.0 -8.8 -11.15 -8.7 -11.3 -8.1 -11.35 -7.6 -11.35 -6.9 -11.3 -6.0 -11.2 -4.75 -12.95 -2.95 -15.05 -2.8 -15.2 -2.35 -15.65 -1.2 -16.65 -0.7 -17.1 0.45 -17.9 0.55 -17.9 1.25 -17.85 1.6 -17.7 1.85 -17.6 2.05 -17.3 2.55 -16.85 3.4 -15.85 3.5 -15.7 4.15 -14.95 4.5 -14.4 4.65 -14.25 4.95 -13.75 5.15 -13.35 5.8 -12.2 7.15 -12.4 7.95 -12.45 8.5 -12.55 8.55 -12.5 8.65 -12.35 8.7 -12.3 8.95 -12.0 M4.25 -12.45 L4.25 -13.4 3.5 -14.4 2.7 -15.35 1.85 -16.15 0.6 -16.9 Q0.55 -16.65 0.65 -16.35 L1.0 -15.25 0.3 -15.0 Q-0.85 -14.3 -1.7 -13.3 L-2.4 -12.5 -3.6 -10.25 Q-2.3 -9.35 -1.7 -8.2 L-1.5 -7.85 -1.15 -7.1 -1.0 -6.85 -1.0 -7.2 -1.0 -8.1 -0.55 -9.45 0.2 -10.1 0.55 -10.1 Q1.2 -10.1 1.6 -9.45 L1.65 -9.35 2.05 -8.6 2.25 -7.85 2.4 -7.2 2.4 -7.05 2.45 -6.9 2.45 -6.8 2.45 -6.55 2.45 -6.45 2.95 -2.15 3.0 -1.95 2.95 -1.7 2.85 -0.25 2.65 1.05 2.65 1.25 2.25 1.95 2.0 2.0 1.45 1.5 1.45 1.45 1.0 0.6 0.4 -0.8 0.15 -1.8 -0.4 -3.45 -0.05 -1.9 0.15 -0.9 0.2 -0.7 0.5 0.85 0.55 1.2 0.7 1.7 1.05 3.3 1.25 4.0 1.55 5.35 Q1.6 4.8 1.95 4.3 L2.1 4.3 2.6 4.85 2.85 5.4 3.05 6.35 2.95 7.25 2.65 8.2 2.45 8.2 2.1 7.9 2.55 9.55 2.8 10.5 3.15 11.55 3.45 12.5 3.6 12.95 3.95 13.85 4.05 14.05 4.4 15.1 4.6 15.5 4.7 15.6 4.95 14.7 5.1 13.4 5.15 12.35 5.2 11.8 5.25 10.85 5.35 9.05 5.35 7.95 5.35 5.95 5.4 5.6 5.4 2.75 5.4 2.35 5.4 0.8 5.4 0.75 5.4 -0.9 5.45 -1.4 5.5 -2.25 5.5 -2.6 5.55 -4.65 5.55 -6.5 5.55 -7.15 5.5 -7.7 5.35 -8.65 5.05 -10.0 5.05 -10.15 4.85 -10.75 4.25 -12.45" fill="#00dbff" fill-rule="evenodd" stroke="none"/>
      <path d="M1.0 -15.25 L0.65 -16.35 Q0.55 -16.65 0.6 -16.9 L1.85 -16.15 2.7 -15.35 3.5 -14.4 4.25 -13.4 4.25 -12.45 4.1 -11.55 3.75 -10.3 3.45 -9.25 3.45 -9.15 3.75 -6.85 4.0 -2.55 4.1 -2.1 4.1 -1.05 4.1 -0.85 4.2 0.95 4.2 1.7 4.25 2.8 4.25 5.05 4.25 5.95 4.25 6.6 4.0 8.65 3.85 6.75 3.8 6.1 3.55 3.1 3.5 2.7 3.3 1.1 3.15 -0.4 3.0 -1.7 3.0 -1.95 2.95 -2.15 2.45 -6.45 2.45 -6.55 2.45 -6.8 2.45 -6.9 2.4 -7.05 2.4 -7.2 2.2 -8.65 2.2 -8.7 2.1 -9.55 1.75 -12.0 1.45 -13.5 1.2 -14.7 1.0 -15.25 M4.75 9.2 L4.75 9.4 4.75 11.0 4.6 12.55 4.5 13.05 4.4 12.6 4.4 12.55 4.2 11.2 4.1 10.15 4.3 9.65 4.75 9.2" fill="#ffffff" fill-rule="evenodd" stroke="none"/>
      <path d="M1.0 -15.25 L1.2 -14.7 1.45 -13.5 1.75 -12.0 2.1 -9.55 2.2 -8.7 2.2 -8.65 2.4 -7.2 2.25 -7.85 2.05 -8.6 1.65 -9.35 1.6 -9.45 Q1.2 -10.1 0.55 -10.1 L0.2 -10.1 -0.55 -9.45 -1.0 -8.1 -1.0 -7.2 -1.0 -6.85 -1.15 -7.1 -1.5 -7.85 -1.7 -8.2 Q-2.3 -9.35 -3.6 -10.25 L-2.4 -12.5 -1.7 -13.3 Q-0.85 -14.3 0.3 -15.0 L1.0 -15.25 M3.0 -1.95 L3.0 -1.7 3.15 -0.4 3.3 1.1 3.5 2.7 3.55 3.1 3.8 6.1 3.85 6.75 4.0 8.65 4.25 6.6 4.25 5.95 4.25 5.05 4.25 2.8 4.2 1.7 4.2 0.95 4.1 -0.85 4.1 -1.05 4.1 -2.1 4.0 -2.55 3.75 -6.85 3.45 -9.15 3.45 -9.25 3.75 -10.3 4.1 -11.55 4.25 -12.45 4.85 -10.75 5.05 -10.15 5.05 -10.0 5.35 -8.65 5.5 -7.7 5.55 -7.15 5.55 -6.5 5.55 -4.65 5.5 -2.6 5.5 -2.25 5.45 -1.4 5.4 -0.9 5.4 0.75 5.4 0.8 5.4 2.35 5.4 2.75 5.4 5.6 5.35 5.95 5.35 7.95 5.35 9.05 5.25 10.85 5.2 11.8 5.15 12.35 5.1 13.4 4.95 14.7 4.7 15.6 4.6 15.5 4.4 15.1 4.05 14.05 3.95 13.85 3.6 12.95 3.45 12.5 3.15 11.55 2.8 10.5 2.55 9.55 2.1 7.9 2.45 8.2 2.65 8.2 2.95 7.25 3.05 6.35 2.85 5.4 2.6 4.85 2.1 4.3 1.95 4.3 Q1.6 4.8 1.55 5.35 L1.25 4.0 1.05 3.3 0.7 1.7 0.55 1.2 0.5 0.85 0.2 -0.7 0.15 -0.9 -0.05 -1.9 -0.4 -3.45 0.15 -1.8 0.4 -0.8 1.0 0.6 1.45 1.45 1.45 1.5 2.0 2.0 2.25 1.95 2.65 1.25 2.65 1.05 2.85 -0.25 2.95 -1.7 3.0 -1.95 M4.75 9.2 L4.3 9.65 4.1 10.15 4.2 11.2 4.4 12.55 4.4 12.6 4.5 13.05 4.6 12.55 4.75 11.0 4.75 9.4 4.75 9.2" fill="#46ffff" fill-rule="evenodd" stroke="none"/>
    </g>
    <g id="shape3" transform="matrix(1.0, 0.0, 0.0, 1.0, 11.85, 28.65)">
      <path d="M-7.4 -25.55 L-7.0 -25.85 Q-3.6 -28.1 0.5 -28.15 L1.75 -28.1 3.45 -27.65 4.65 -27.2 4.95 -27.1 4.95 -27.05 5.15 -26.95 5.4 -26.75 5.55 -26.65 6.45 -25.95 7.0 -25.45 8.15 -24.3 8.8 -23.55 8.95 -23.3 9.45 -22.45 9.95 -21.3 10.25 -20.5 10.35 -20.35 10.75 -18.65 10.8 -17.8 10.9 -17.15 10.9 -17.05 10.9 -17.0 10.95 -16.75 10.9 -16.9 10.9 -17.0 10.85 -17.15 10.4 -18.45 9.8 -19.85 9.65 -20.2 9.3 -20.75 8.85 -20.45 7.8 -19.8 7.5 -20.65 7.2 -21.25 7.1 -21.55 7.15 -21.45 7.45 -21.3 7.55 -21.25 7.65 -21.25 7.75 -21.3 7.9 -21.35 8.0 -21.4 8.1 -21.45 8.2 -21.65 8.15 -22.45 8.1 -22.6 8.0 -22.9 7.75 -22.35 7.7 -22.3 7.15 -22.15 7.0 -22.25 7.0 -22.3 6.85 -22.5 6.8 -22.6 6.65 -22.95 6.5 -23.2 6.3 -23.95 6.3 -24.0 6.25 -24.15 6.25 -24.25 6.2 -24.4 5.75 -25.3 5.4 -25.75 5.35 -25.85 4.7 -26.0 4.35 -25.7 4.35 -25.6 4.35 -25.25 3.5 -25.1 3.65 -25.05 4.25 -24.85 4.35 -24.8 4.75 -24.6 4.95 -24.9 5.0 -24.9 5.45 -24.85 5.5 -24.8 5.55 -24.7 5.75 -24.45 5.8 -24.35 5.95 -23.95 6.0 -23.95 6.0 -23.9 6.05 -23.8 6.05 -23.6 6.1 -23.35 6.2 -22.95 6.3 -22.7 6.35 -22.55 5.7 -23.1 4.8 -23.65 4.7 -23.7 3.55 -24.25 2.7 -24.6 2.3 -24.6 2.05 -24.65 2.0 -24.85 1.95 -25.0 2.1 -25.25 3.15 -26.25 3.45 -26.6 3.6 -26.75 3.7 -26.9 3.25 -27.05 3.2 -27.05 2.8 -27.15 2.45 -27.3 2.3 -27.3 2.3 -27.25 2.15 -27.15 1.95 -26.95 1.85 -26.9 1.85 -26.85 1.5 -26.8 1.45 -26.8 1.35 -26.9 0.95 -27.15 0.6 -27.3 -0.05 -27.2 -0.55 -27.2 -0.7 -27.15 -0.75 -27.15 -0.9 -27.0 -2.75 -26.8 -3.0 -26.75 -6.1 -26.05 -7.4 -25.55" fill="#fffff2" fill-rule="evenodd" stroke="none"/>
      <path d="M-0.9 -27.0 L-0.75 -27.15 -0.7 -27.15 -0.55 -27.2 -0.05 -27.2 0.6 -27.3 0.95 -27.15 1.35 -26.9 1.45 -26.8 1.5 -26.8 1.85 -26.85 1.85 -26.9 1.95 -26.95 2.15 -27.15 2.3 -27.25 2.5 -27.1 2.45 -26.95 2.45 -26.9 2.2 -26.55 2.05 -26.45 1.95 -26.3 1.6 -25.95 1.35 -25.65 1.15 -25.85 0.85 -26.05 0.65 -26.25 0.55 -26.35 0.4 -26.5 -0.05 -26.6 -0.3 -26.65 -0.85 -27.0 -0.9 -27.0 M-0.55 -25.15 L-0.6 -25.15 -0.65 -25.1 -0.9 -25.0 -1.0 -24.95 -2.15 -24.55 -2.2 -24.65 -2.25 -24.7 -2.3 -24.8 -2.35 -24.9 -2.55 -25.1 -2.8 -25.3 -3.0 -25.4 -3.05 -25.4 -3.6 -25.3 -4.35 -24.35 -4.6 -23.9 -4.65 -23.7 -5.05 -22.15 -5.1 -21.85 -5.25 -21.45 -5.3 -21.35 -5.4 -21.15 -5.45 -21.05 -5.45 -20.95 -5.55 -20.75 -5.75 -20.55 -5.75 -20.5 -5.85 -20.45 -5.95 -20.45 -6.25 -20.45 -6.45 -20.45 -6.65 -20.45 -7.2 -20.6 -7.55 -20.75 -8.1 -21.1 -8.25 -21.4 -8.25 -21.45 -8.3 -21.6 -8.45 -22.05 -8.35 -22.0 -8.15 -21.85 -8.05 -21.85 -7.65 -21.8 -7.55 -21.75 -7.25 -21.75 -7.0 -21.75 -6.65 -21.85 Q-6.35 -21.9 -6.2 -22.05 L-6.15 -22.1 -5.7 -22.6 -5.65 -22.7 -5.6 -22.85 -5.6 -23.05 -5.5 -23.3 -5.45 -23.5 -5.45 -23.65 -5.25 -24.25 -4.7 -25.3 -4.55 -25.6 -4.4 -25.8 -4.35 -25.9 -4.15 -26.1 -4.05 -26.15 -3.85 -26.2 -3.3 -26.3 -2.8 -26.25 -2.7 -26.2 -2.65 -26.15 -2.35 -25.95 -2.2 -25.85 -1.95 -25.6 -1.85 -25.55 -1.8 -25.45 -1.75 -25.4 -1.7 -25.3 -1.7 -25.25 -1.6 -25.25 -1.2 -25.25 -0.1 -25.3 -0.55 -25.15 M7.1 -21.55 L7.05 -21.6 7.0 -21.6 6.9 -21.7 7.1 -21.55 M6.6 -22.15 L6.5 -22.25 6.5 -22.3 6.85 -21.85 6.65 -22.1 6.6 -22.15 M-6.4 -14.1 L-5.95 -13.8 -6.6 -13.9 -6.8 -13.9 -7.35 -14.1 -7.85 -14.25 -8.55 -14.6 -8.55 -14.65 -8.65 -14.7 -8.6 -15.4 -8.6 -15.45 -8.55 -15.75 -8.45 -16.25 -8.4 -16.25 -8.4 -16.3 -8.25 -16.5 -8.25 -16.6 -7.8 -17.1 -7.75 -17.2 -7.8 -17.25 -7.9 -17.35 -8.1 -17.65 -8.3 -18.1 -8.55 -18.7 -8.6 -19.0 -7.25 -18.2 -6.75 -18.05 -6.85 -17.95 -7.0 -17.7 -7.1 -17.5 -7.2 -17.35 -7.4 -16.65 -7.4 -16.15 -7.35 -15.7 -7.3 -15.5 -7.25 -15.35 -7.0 -14.85 -6.85 -14.55 -6.75 -14.3 -6.6 -14.2 -6.4 -14.1" fill="#df591e" fill-rule="evenodd" stroke="none"/>
      <path d="M11.05 -16.2 L11.05 -16.0 11.05 -15.65 9.75 -13.85 9.15 -13.3 8.75 -13.0 9.2 -12.35 9.65 -11.75 9.15 -12.35 9.0 -12.5 8.0 -13.75 8.0 -13.8 8.1 -13.8 9.55 -14.75 10.45 -15.55 11.05 -16.2 M12.35 -7.25 L13.35 -5.45 13.45 -5.25 13.0 -5.7 10.3 -8.15 9.4 -9.0 8.9 -9.45 8.4 -9.95 6.7 -11.6 6.5 -11.8 5.35 -13.05 5.95 -13.65 6.5 -14.45 Q7.05 -15.45 7.25 -16.6 L7.25 -16.75 7.3 -17.05 7.3 -17.15 7.25 -18.35 7.1 -19.6 6.5 -21.25 6.25 -21.65 4.9 -22.75 3.65 -23.45 3.6 -23.5 3.2 -23.6 0.9 -24.05 0.1 -24.05 -0.4 -23.9 -2.0 -23.1 -3.65 -21.95 -4.15 -21.5 -4.5 -21.2 -4.65 -21.0 -4.75 -20.8 -5.15 -19.95 -5.35 -19.4 -5.4 -19.2 -5.2 -17.3 -4.7 -16.0 -4.6 -15.85 -4.6 -15.8 -4.35 -15.5 -4.2 -15.25 -4.15 -15.2 -3.5 -14.55 -3.35 -14.5 Q-2.35 -13.65 -1.2 -12.9 L-1.1 -12.85 -0.95 -12.75 -1.7 -11.65 -2.7 -10.45 -4.3 -8.75 -4.6 -8.45 -5.8 -7.1 -6.1 -6.7 -7.5 -5.2 -7.9 -4.8 -7.65 -5.15 -7.6 -5.25 -7.05 -6.2 -6.85 -6.55 -5.9 -8.2 -5.45 -8.9 -4.3 -10.95 -4.15 -11.2 -4.05 -11.4 -4.05 -11.6 -4.0 -11.75 -4.05 -12.5 -4.1 -13.15 -5.25 -13.4 -6.1 -13.7 -6.55 -13.85 -7.25 -13.95 -7.4 -14.0 -7.5 -14.0 -7.9 -14.05 -8.8 -14.55 -8.9 -14.6 -8.9 -14.65 Q-9.3 -14.95 -9.1 -15.4 L-9.1 -15.6 -9.05 -15.75 -9.05 -15.8 -9.0 -15.9 -9.05 -15.9 -9.1 -15.95 -9.3 -16.3 -9.65 -17.5 -9.75 -18.15 -9.75 -19.1 -9.7 -19.8 -9.65 -19.95 -9.65 -20.25 -9.3 -21.8 -9.05 -22.4 -8.95 -22.6 -8.95 -22.7 -7.9 -23.95 -7.1 -24.75 -7.05 -24.75 -6.65 -25.05 -6.35 -25.3 -5.9 -25.55 -5.85 -25.6 -5.6 -25.7 -5.25 -25.9 -5.0 -26.05 -4.85 -26.15 -4.45 -26.25 -4.05 -26.45 -2.85 -26.6 -1.6 -26.6 -1.15 -26.4 -1.05 -26.4 -1.0 -26.35 -0.9 -26.25 -0.85 -26.15 -0.7 -26.1 -0.4 -25.85 0.05 -25.55 Q0.35 -25.35 0.6 -25.25 L0.85 -25.25 0.7 -25.2 0.6 -25.25 0.05 -25.25 -0.55 -25.15 -0.1 -25.3 -1.2 -25.25 -1.6 -25.25 -1.7 -25.25 -1.7 -25.3 -1.75 -25.4 -1.8 -25.45 -1.85 -25.55 -1.95 -25.6 -2.2 -25.85 -2.35 -25.95 -2.65 -26.15 -2.7 -26.2 -2.8 -26.25 -3.3 -26.3 -3.85 -26.2 -4.05 -26.15 -4.15 -26.1 -4.35 -25.9 -4.4 -25.8 -4.55 -25.6 -4.7 -25.3 -5.25 -24.25 -5.45 -23.65 -5.45 -23.5 -5.5 -23.3 -5.6 -23.05 -5.6 -22.85 -5.65 -22.7 -5.7 -22.6 -6.15 -22.1 -6.2 -22.05 Q-6.35 -21.9 -6.65 -21.85 L-7.0 -21.75 -7.25 -21.75 -7.55 -21.75 -7.65 -21.8 -8.05 -21.85 -8.15 -21.85 -8.35 -22.0 -8.45 -22.05 -8.3 -21.6 -8.55 -21.85 -8.6 -21.9 -8.65 -21.8 -8.6 -21.0 -8.2 -20.5 -8.0 -20.35 -7.9 -20.25 Q-7.3 -19.9 -6.65 -19.9 L-6.15 -20.05 -5.9 -20.4 -5.75 -20.5 -5.75 -20.55 -5.55 -20.75 -5.45 -20.95 -5.45 -21.05 -5.4 -21.15 -5.3 -21.35 -5.25 -21.45 -4.85 -22.35 -4.3 -23.4 -4.0 -23.8 -3.85 -24.05 -3.65 -24.3 -3.4 -24.6 Q-3.05 -24.55 -2.8 -24.3 L-2.55 -24.1 -2.5 -24.0 -2.3 -23.75 -2.1 -23.9 -1.05 -24.3 -0.15 -24.6 1.2 -24.7 1.65 -24.65 2.05 -24.65 2.3 -24.6 2.7 -24.6 3.55 -24.25 4.7 -23.7 4.8 -23.65 5.7 -23.1 6.35 -22.55 6.3 -22.7 6.2 -22.95 6.1 -23.35 6.05 -23.6 6.05 -23.8 6.0 -23.9 6.0 -23.95 5.95 -23.95 5.8 -24.35 5.75 -24.45 5.55 -24.7 5.5 -24.8 5.45 -24.85 5.0 -24.9 4.95 -24.9 4.75 -24.6 4.35 -24.8 4.25 -24.85 3.65 -25.05 3.5 -25.1 4.35 -25.25 4.35 -25.6 4.35 -25.7 4.7 -26.0 5.35 -25.85 5.4 -25.75 5.75 -25.3 6.2 -24.4 6.25 -24.25 6.25 -24.15 6.3 -24.0 6.3 -23.95 6.5 -23.2 6.65 -22.95 6.8 -22.6 6.85 -22.5 7.0 -22.3 7.0 -22.25 7.15 -22.15 7.7 -22.3 7.75 -22.35 8.0 -22.9 8.1 -22.6 8.15 -22.45 8.2 -21.65 8.1 -21.45 8.0 -21.4 7.9 -21.35 7.75 -21.3 7.65 -21.25 7.55 -21.25 7.45 -21.3 7.15 -21.45 7.1 -21.55 7.2 -21.25 7.5 -20.65 7.8 -19.8 7.8 -19.75 7.8 -19.55 7.95 -18.1 7.9 -16.8 7.9 -16.7 7.9 -16.65 7.85 -16.45 7.7 -15.2 7.6 -15.05 7.6 -15.0 7.65 -15.05 7.85 -15.25 Q8.45 -15.8 8.55 -16.55 L8.6 -16.75 8.6 -16.85 8.65 -17.25 8.65 -17.3 8.55 -17.85 7.95 -19.3 Q8.55 -19.5 9.05 -19.95 L9.25 -20.1 9.4 -20.2 9.4 -20.15 9.05 -18.85 8.75 -18.35 9.45 -17.4 9.55 -17.05 9.55 -17.0 9.6 -16.9 9.75 -16.05 9.5 -15.75 8.95 -15.4 7.55 -14.8 7.15 -13.95 7.05 -13.75 6.9 -13.45 7.05 -13.3 7.45 -12.85 7.95 -12.15 8.4 -11.7 8.45 -11.55 9.45 -10.4 10.05 -9.75 10.2 -9.6 10.65 -9.2 11.2 -8.6 11.65 -8.05 12.35 -7.25 M2.3 -27.25 L2.3 -27.3 2.45 -27.3 2.8 -27.15 3.2 -27.05 3.15 -27.0 2.9 -26.65 2.75 -26.5 2.65 -26.35 2.45 -26.15 2.15 -25.85 2.0 -25.75 1.85 -25.55 1.75 -25.5 1.65 -25.5 1.6 -25.55 1.35 -25.65 1.6 -25.95 1.95 -26.3 2.05 -26.45 2.2 -26.55 2.45 -26.9 2.45 -26.95 2.5 -27.1 2.3 -27.25 M6.6 -22.15 L6.65 -22.1 6.85 -21.85 6.5 -22.3 6.5 -22.25 6.6 -22.15 M7.1 -21.55 L6.9 -21.7 7.0 -21.6 7.05 -21.6 7.1 -21.55 M-6.85 -17.95 L-6.75 -18.05 -7.25 -18.2 -8.6 -19.0 -8.55 -18.7 -8.3 -18.1 -8.1 -17.65 -7.9 -17.35 -7.8 -17.25 -7.75 -17.2 -7.8 -17.1 -8.25 -16.6 -8.25 -16.5 -8.4 -16.3 -8.4 -16.25 -8.45 -16.25 -8.55 -15.75 -8.6 -15.45 -8.6 -15.4 -8.65 -14.7 -8.55 -14.65 -8.55 -14.6 -7.85 -14.25 -7.35 -14.1 -6.8 -13.9 -6.6 -13.9 -5.95 -13.8 -6.4 -14.1 -6.45 -14.2 -6.45 -14.25 -6.65 -14.75 -6.7 -14.85 -6.7 -14.9 -6.75 -15.05 -6.8 -15.65 -6.8 -15.85 -6.8 -16.15 -6.4 -17.2 -6.25 -17.35 -6.35 -17.75 -6.35 -17.8 Q-6.45 -18.05 -6.7 -18.0 L-6.85 -17.95" fill="#ff8c00" fill-rule="evenodd" stroke="none"/>
      <path d="M10.95 -16.75 L11.05 -16.2 10.45 -15.55 9.55 -14.75 8.1 -13.8 8.0 -13.8 8.0 -13.75 9.0 -12.5 9.15 -12.35 9.65 -11.75 9.8 -11.5 10.05 -11.0 10.7 -9.95 10.85 -9.7 11.1 -9.25 11.75 -8.3 12.35 -7.25 11.65 -8.05 11.2 -8.6 10.65 -9.2 10.2 -9.6 10.05 -9.75 9.45 -10.4 8.45 -11.55 8.4 -11.7 7.95 -12.15 7.45 -12.85 7.05 -13.3 6.9 -13.45 7.05 -13.75 7.15 -13.95 7.55 -14.8 8.95 -15.4 9.5 -15.75 9.75 -16.05 9.6 -16.9 9.55 -17.0 9.55 -17.05 9.45 -17.4 8.75 -18.35 9.05 -18.85 9.4 -20.15 9.4 -20.2 9.25 -20.1 9.05 -19.95 Q8.55 -19.5 7.95 -19.3 L8.55 -17.85 8.65 -17.3 8.65 -17.25 8.6 -16.85 8.6 -16.75 8.55 -16.55 Q8.45 -15.8 7.85 -15.25 L7.65 -15.05 7.7 -15.2 7.9 -16.65 7.9 -16.7 7.9 -16.8 7.95 -18.1 7.8 -19.55 7.8 -19.75 7.8 -19.8 8.85 -20.45 9.3 -20.75 9.65 -20.2 9.8 -19.85 10.4 -18.45 10.85 -17.15 10.9 -17.0 10.9 -16.9 10.95 -16.75 M-7.9 -4.8 L-7.95 -4.65 -8.25 -4.35 -9.4 -3.05 -11.2 -1.0 -10.9 -1.4 -9.3 -4.3 -9.25 -4.35 -9.1 -4.65 -8.25 -6.2 -7.4 -7.7 -7.1 -8.2 -6.5 -9.25 -5.65 -10.75 -7.2 -11.5 -7.9 -11.8 -8.0 -11.85 -8.7 -12.35 -8.9 -12.5 -9.05 -12.65 -11.1 -14.2 -11.15 -14.25 -11.25 -14.65 -11.35 -15.95 -11.25 -17.65 -11.05 -18.85 -10.95 -19.4 -10.85 -19.85 -9.95 -22.35 -9.9 -22.4 -9.65 -22.95 -8.75 -24.35 -8.55 -24.6 -8.3 -24.85 -8.25 -24.9 -7.95 -25.1 -7.4 -25.55 -6.1 -26.05 -3.0 -26.75 -2.75 -26.8 -0.9 -27.0 -0.85 -27.0 -0.3 -26.65 -0.05 -26.6 0.4 -26.5 0.55 -26.35 0.65 -26.25 0.85 -26.05 1.15 -25.85 1.35 -25.65 1.6 -25.55 1.65 -25.5 1.75 -25.5 1.85 -25.55 2.0 -25.75 2.15 -25.85 2.45 -26.15 2.65 -26.35 2.75 -26.5 2.9 -26.65 3.15 -27.0 3.2 -27.05 3.25 -27.05 3.7 -26.9 3.6 -26.75 3.45 -26.6 3.15 -26.25 2.1 -25.25 1.95 -25.0 2.0 -24.85 2.05 -24.65 1.65 -24.65 1.2 -24.7 -0.15 -24.6 -1.05 -24.3 -2.1 -23.9 -2.3 -23.75 -2.5 -24.0 -2.55 -24.1 -2.8 -24.3 Q-3.05 -24.55 -3.4 -24.6 L-3.65 -24.3 -3.85 -24.05 -4.0 -23.8 -4.3 -23.4 -4.85 -22.35 -5.25 -21.45 -5.1 -21.85 -5.05 -22.15 -4.65 -23.7 -4.6 -23.9 -4.35 -24.35 -3.6 -25.3 -3.05 -25.4 -3.0 -25.4 -2.8 -25.3 -2.55 -25.1 -2.35 -24.9 -2.3 -24.8 -2.25 -24.7 -2.2 -24.65 -2.15 -24.55 -1.0 -24.95 -0.9 -25.0 -0.65 -25.1 -0.6 -25.15 -0.55 -25.15 0.05 -25.25 0.6 -25.25 0.7 -25.2 0.85 -25.25 0.6 -25.25 Q0.35 -25.35 0.05 -25.55 L-0.4 -25.85 -0.7 -26.1 -0.85 -26.15 -0.9 -26.25 -1.0 -26.35 -1.05 -26.4 -1.15 -26.4 -1.6 -26.6 -2.85 -26.6 -4.05 -26.45 -4.45 -26.25 -4.85 -26.15 -5.0 -26.05 -5.25 -25.9 -5.6 -25.7 -5.85 -25.6 -5.9 -25.55 -6.35 -25.3 -6.65 -25.05 -7.05 -24.75 -7.1 -24.75 -7.9 -23.95 -8.95 -22.7 -8.95 -22.6 -9.05 -22.4 -9.3 -21.8 -9.65 -20.25 -9.65 -19.95 -9.7 -19.8 -9.75 -19.1 -9.75 -18.15 -9.65 -17.5 -9.3 -16.3 -9.1 -15.95 -9.05 -15.9 -9.0 -15.9 -9.05 -15.8 -9.05 -15.75 -9.1 -15.6 -9.1 -15.4 Q-9.3 -14.95 -8.9 -14.65 L-8.9 -14.6 -8.8 -14.55 -7.9 -14.05 -7.5 -14.0 -7.4 -14.0 -7.25 -13.95 -6.55 -13.85 -6.1 -13.7 -5.25 -13.4 -4.1 -13.15 -4.05 -12.5 -4.0 -11.75 -4.05 -11.6 -4.05 -11.4 -4.15 -11.2 -4.3 -10.95 -5.45 -8.9 -5.9 -8.2 -6.85 -6.55 -7.05 -6.2 -7.6 -5.25 -7.65 -5.15 -7.9 -4.8 M-8.3 -21.6 L-8.25 -21.45 -8.25 -21.4 -8.1 -21.1 -7.55 -20.75 -7.2 -20.6 -6.65 -20.45 -6.45 -20.45 -6.25 -20.45 -5.95 -20.45 -5.85 -20.45 -5.75 -20.5 -5.9 -20.4 -6.15 -20.05 -6.65 -19.9 Q-7.3 -19.9 -7.9 -20.25 L-8.0 -20.35 -8.2 -20.5 -8.6 -21.0 -8.65 -21.8 -8.6 -21.9 -8.55 -21.85 -8.3 -21.6 M-6.4 -14.1 L-6.6 -14.2 -6.75 -14.3 -6.85 -14.55 -7.0 -14.85 -7.25 -15.35 -7.3 -15.5 -7.35 -15.7 -7.4 -16.15 -7.4 -16.65 -7.2 -17.35 -7.1 -17.5 -7.0 -17.7 -6.85 -17.95 -6.7 -18.0 Q-6.45 -18.05 -6.35 -17.8 L-6.35 -17.75 -6.4 -17.2 -6.8 -16.15 -6.8 -15.85 -6.8 -15.65 -6.75 -15.05 -6.7 -14.9 -6.7 -14.85 -6.65 -14.75 -6.45 -14.25 -6.45 -14.2 -6.4 -14.1" fill="#ffe65d" fill-rule="evenodd" stroke="none"/>
      <path d="M-7.4 -25.55 L-7.0 -25.85 Q-3.6 -28.1 0.5 -28.15 L1.75 -28.1 3.45 -27.65 4.65 -27.2 4.95 -27.1 5.0 -27.05 5.2 -26.95 5.35 -26.85 5.4 -26.75 5.55 -26.65 6.45 -25.95 7.0 -25.45 8.15 -24.3 8.8 -23.55 8.95 -23.3 9.45 -22.45 9.95 -21.3 10.25 -20.5 10.35 -20.35 10.75 -18.65 10.8 -17.8 10.9 -17.15 10.9 -17.05 10.9 -17.0 10.95 -16.75 11.05 -16.2 11.05 -16.0 11.05 -15.65 9.75 -13.85 9.15 -13.3 8.75 -13.0 9.2 -12.35 9.65 -11.75 9.8 -11.5 10.05 -11.0 10.7 -9.95 10.85 -9.7 11.1 -9.25 11.75 -8.3 12.35 -7.25 13.35 -5.45 13.45 -5.25 13.0 -5.7 10.3 -8.15 9.4 -9.0 8.9 -9.45 8.4 -9.95 6.7 -11.6 6.5 -11.8 5.35 -13.05 5.95 -13.65 6.5 -14.45 Q7.05 -15.45 7.25 -16.6 L7.25 -16.75 7.3 -17.05 7.3 -17.15 7.25 -18.35 7.1 -19.6 6.5 -21.25 6.25 -21.65 4.9 -22.75 3.65 -23.45 3.6 -23.5 3.2 -23.6 0.9 -24.05 0.1 -24.05 -0.4 -23.9 -2.0 -23.1 -3.65 -21.95 -4.15 -21.5 -4.5 -21.2 -4.65 -21.0 -4.75 -20.8 -5.15 -19.95 -5.35 -19.4 -5.4 -19.2 -5.2 -17.3 -4.7 -16.0 -4.6 -15.85 -4.6 -15.8 -4.35 -15.5 -4.2 -15.25 -4.15 -15.2 -3.5 -14.55 -3.35 -14.5 Q-2.35 -13.65 -1.2 -12.9 L-1.1 -12.85 -0.95 -12.75 -1.7 -11.65 -2.7 -10.45 -4.3 -8.75 -4.6 -8.45 -5.8 -7.1 -6.1 -6.7 -7.5 -5.2 -7.9 -4.8 -7.95 -4.65 -8.25 -4.35 -9.4 -3.05 -11.2 -1.0 -10.9 -1.4 -9.3 -4.3 -9.25 -4.35 -9.1 -4.65 -8.25 -6.2 -7.4 -7.7 -7.1 -8.2 -6.5 -9.25 -5.65 -10.75 -7.2 -11.5 -7.9 -11.8 -8.0 -11.85 -8.7 -12.35 -8.9 -12.5 -9.05 -12.65 -11.1 -14.2 -11.15 -14.25 -11.25 -14.65 -11.35 -15.95 -11.25 -17.65 -11.05 -18.85 -10.95 -19.4 -10.85 -19.85 -9.95 -22.35 -9.9 -22.4 -9.65 -22.95 -8.75 -24.35 -8.55 -24.6 -8.3 -24.85 -8.25 -24.9 -7.95 -25.1 -7.4 -25.55 M4.95 -27.1 L4.95 -27.05 5.0 -27.05 M4.95 -27.05 L5.15 -26.95 5.4 -26.75" fill="none" stroke="#9c5c1c" stroke-linecap="round" stroke-linejoin="round" stroke-width="1.0"/>
    </g>
  </defs>
</svg>
