<?xml version="1.0" encoding="UTF-8" standalone="no"?>
<svg xmlns:ffdec="https://www.free-decompiler.com/flash" xmlns:xlink="http://www.w3.org/1999/xlink" ffdec:objectType="frame" height="30.1px" width="30.0px" xmlns="http://www.w3.org/2000/svg">
  <g transform="matrix(1.0, 0.0, 0.0, 1.0, 0.0, 0.0)">
    <use ffdec:characterId="1" height="30.0" transform="matrix(1.0, 0.0, 0.0, 1.0, 0.0, 0.0)" width="30.0" xlink:href="#shape0"/>
    <use ffdec:characterId="5" height="30.0" transform="matrix(1.0, 0.0, 0.0, 1.0, 0.0, 0.1)" width="30.0" xlink:href="#sprite0"/>
  </g>
  <defs>
    <g id="shape0" transform="matrix(1.0, 0.0, 0.0, 1.0, 0.0, 0.0)">
      <path d="M0.0 0.0 L30.0 0.0 30.0 30.0 0.0 30.0 0.0 0.0" fill="#33cc66" fill-opacity="0.0" fill-rule="evenodd" stroke="none"/>
    </g>
    <g id="sprite0" transform="matrix(1.0, 0.0, 0.0, 1.0, 0.0, 0.0)">
      <use ffdec:characterId="2" height="30.0" transform="matrix(1.0, 0.0, 0.0, 1.0, 0.0, 0.0)" width="30.0" xlink:href="#shape1"/>
      <use ffdec:characterId="4" height="57.1" transform="matrix(-0.092, -0.1594, 0.1594, -0.092, 15.0826, 28.3014)" width="141.4" xlink:href="#sprite1"/>
    </g>
    <g id="shape1" transform="matrix(1.0, 0.0, 0.0, 1.0, 0.0, 0.0)">
      <path d="M26.7 0.0 Q30.0 0.0 30.0 3.3 L30.0 26.7 Q30.0 30.0 26.7 30.0 L3.3 30.0 Q0.0 30.0 0.0 26.7 L0.0 3.3 Q0.0 0.0 3.3 0.0 L26.7 0.0" fill="#5b6171" fill-rule="evenodd" stroke="none"/>
    </g>
    <g id="sprite1" transform="matrix(1.0, 0.0, 0.0, 1.0, 1.0, 1.0)">
      <use ffdec:characterId="3" height="57.1" transform="matrix(1.0, 0.0, 0.0, 1.0, -1.0, -1.0)" width="141.4" xlink:href="#shape2"/>
    </g>
    <g id="shape2" transform="matrix(1.0, 0.0, 0.0, 1.0, 1.0, 1.0)">
      <path d="M63.35 12.55 L60.0 12.95 57.85 13.3 55.6 13.7 53.45 14.05 51.25 14.45 50.35 14.6 49.25 14.8 45.85 15.45 43.8 15.85 43.45 15.85 43.9 15.6 44.65 15.15 47.75 13.25 50.5 11.75 51.4 11.3 53.6 10.3 57.0 8.8 60.55 7.55 63.85 6.45 66.25 5.75 68.35 5.2 61.35 4.2 54.55 3.6 54.0 3.6 51.45 3.55 50.75 3.5 48.7 3.6 46.45 3.7 43.25 4.15 41.0 4.55 40.65 4.6 41.1 4.3 42.45 3.45 Q43.7 2.75 45.0 2.2 L48.65 0.8 49.4 0.6 51.9 0.25 53.0 0.15 55.2 0.05 56.0 0.05 Q60.0 -0.05 64.0 0.15 L71.4 0.65 77.3 1.5 76.05 3.15 Q73.35 6.15 70.15 8.55 L66.6 10.75 63.35 12.55" fill="#548ef2" fill-rule="evenodd" stroke="none"/>
      <path d="M49.4 0.6 L48.65 0.8 45.0 2.2 Q43.7 2.75 42.45 3.45 L41.1 4.3 40.65 4.6 41.0 4.55 43.25 4.15 46.45 3.7 48.7 3.6 50.75 3.5 51.45 3.55 54.0 3.6 54.55 3.6 61.35 4.2 68.35 5.2 66.25 5.75 63.85 6.45 60.55 7.55 57.0 8.8 53.6 10.3 51.4 11.3 50.5 11.75 47.75 13.25 44.65 15.15 43.9 15.6 43.45 15.85 43.8 15.85 45.85 15.45 49.25 14.8 50.35 14.6 51.25 14.45 53.45 14.05 55.6 13.7 57.85 13.3 60.0 12.95 63.35 12.55 62.95 12.7 67.2 12.8 71.55 13.2 76.65 14.05 82.0 15.1 87.7 16.35 90.8 17.1 95.3 18.85 99.75 20.6 Q102.0 21.4 104.3 22.35 L108.75 24.25 111.3 25.4 110.4 25.15 106.3 24.2 101.95 23.3 97.7 22.6 93.6 21.95 87.05 21.1 83.3 20.45 78.35 20.0 73.05 19.8 67.9 19.8 66.05 19.85 65.25 19.9 61.55 19.05 54.55 17.9 49.35 17.35 46.55 17.15 43.25 17.0 38.75 16.9 32.75 17.1 30.0 17.45 30.55 17.1 35.1 14.25 39.2 11.3 33.75 11.15 26.75 11.5 20.55 12.45 18.35 12.95 19.55 12.15 23.45 9.95 27.4 7.95 Q29.6 6.9 31.85 6.05 36.45 4.2 41.2 2.6 L46.05 1.15 46.65 1.05 47.7 0.85 49.4 0.6" fill="#3659aa" fill-rule="evenodd" stroke="none"/>
      <path d="M65.25 19.9 L66.05 19.85 67.9 19.8 73.05 19.8 78.35 20.0 83.3 20.45 87.05 21.1 93.6 21.95 97.7 22.6 101.95 23.3 106.3 24.2 110.4 25.15 111.3 25.4 113.05 26.2 117.1 28.2 Q120.4 29.8 123.65 31.55 L124.2 31.85 125.35 32.7 Q128.2 34.65 130.75 36.85 L134.95 40.7 139.4 45.2 138.8 45.35 131.9 47.5 130.35 48.0 Q129.25 48.3 127.85 49.2 126.45 50.1 125.05 50.6 123.65 51.0 122.75 51.35 L119.45 52.3 112.65 53.75 107.9 54.35 103.4 54.8 99.05 55.05 96.45 55.1 95.35 55.0 94.6 54.95 96.5 54.6 99.8 53.95 103.45 53.15 107.05 52.15 110.65 50.9 114.15 49.55 115.1 49.1 113.8 48.5 110.7 46.4 110.0 45.85 109.45 45.25 107.0 43.35 106.3 42.85 104.2 41.25 101.7 39.5 98.95 37.45 95.85 35.35 92.65 33.4 90.0 31.85 87.6 30.8 86.15 30.2 84.2 29.4 81.4 28.45 78.4 27.55 75.5 26.8 72.7 26.1 70.05 25.5 69.1 25.3 67.7 25.1 66.15 24.9 62.65 24.6 58.9 24.2 54.85 24.0 50.95 24.0 47.1 24.15 43.5 24.35 40.3 24.55 37.55 24.85 35.2 25.15 34.25 25.3 35.95 24.65 40.85 23.1 43.15 22.5 48.05 21.5 48.85 21.4 49.65 21.3 50.2 21.2 50.4 21.15 58.2 20.35 62.75 20.0 65.25 19.9" fill="#4fe6f1" fill-rule="evenodd" stroke="none"/>
      <path d="M34.25 25.3 L35.2 25.15 37.55 24.85 40.3 24.55 43.5 24.35 47.1 24.15 50.95 24.0 54.85 24.0 58.9 24.2 62.65 24.6 66.15 24.9 67.7 25.1 69.1 25.3 70.05 25.5 72.7 26.1 75.5 26.8 78.4 27.55 81.4 28.45 84.2 29.4 86.15 30.2 87.6 30.8 90.0 31.85 92.65 33.4 95.85 35.35 98.95 37.45 101.7 39.5 104.2 41.25 106.3 42.85 107.0 43.35 109.5 45.45 110.0 45.85 110.7 46.4 113.8 48.5 115.1 49.1 114.15 49.55 110.65 50.9 107.05 52.15 103.45 53.15 99.8 53.95 96.5 54.6 94.6 54.95 90.4 54.5 85.5 53.7 80.6 52.6 75.5 51.0 70.45 49.2 67.35 43.8 Q65.7 41.25 63.85 38.85 L60.5 35.05 59.9 34.5 59.45 34.0 55.85 30.6 54.7 29.55 52.6 28.45 Q50.15 27.1 47.5 26.45 L46.45 26.25 41.85 25.5 40.05 25.4 Q37.15 25.25 34.25 25.5 L33.5 25.55 34.25 25.3" fill="#1bb7f0" fill-rule="evenodd" stroke="none"/>
      <path d="M18.35 12.95 L20.55 12.45 26.75 11.5 33.75 11.15 39.2 11.3 35.1 14.25 30.55 17.1 30.0 17.45 32.75 17.1 38.75 16.9 43.25 17.0 46.55 17.15 49.35 17.35 54.55 17.9 61.55 19.05 65.25 19.9 62.75 20.0 58.2 20.35 50.4 21.15 50.2 21.2 49.65 21.3 48.85 21.4 48.05 21.5 43.15 22.5 40.85 23.1 35.95 24.65 34.25 25.3 33.5 25.55 33.0 25.7 32.4 26.05 Q30.6 27.05 28.9 28.15 26.35 29.8 23.95 31.65 22.15 33.0 20.55 34.6 15.7 33.45 0.0 28.9 5.4 22.1 8.25 19.9 L13.05 16.35 18.35 12.95" fill="#d55c87" fill-rule="evenodd" stroke="none"/>
      <path d="M70.45 49.2 L70.35 49.15 65.5 47.15 64.6 46.8 61.45 45.4 60.6 45.1 55.65 43.55 50.35 41.95 44.8 40.35 42.0 39.55 39.5 38.9 37.0 38.2 34.4 37.55 29.7 36.4 21.7 34.8 20.55 34.6 Q22.15 33.0 23.95 31.65 26.35 29.8 28.9 28.15 30.6 27.05 32.4 26.05 L33.5 25.55 34.25 25.5 Q37.15 25.25 40.05 25.4 L41.85 25.5 46.45 26.25 47.5 26.45 Q50.15 27.1 52.6 28.45 L54.7 29.55 55.85 30.6 59.45 34.0 59.9 34.5 60.5 35.05 63.85 38.85 Q65.7 41.25 67.35 43.8 L70.45 49.2" fill="#6081f5" fill-rule="evenodd" stroke="none"/>
      <path d="M63.35 12.55 L66.6 10.75 70.15 8.55 Q73.35 6.15 76.05 3.15 L77.3 1.5 71.4 0.65 64.0 0.15 Q60.0 -0.05 56.0 0.05 L55.2 0.05 53.0 0.15 51.9 0.25 49.4 0.6 47.7 0.85 46.65 1.05 46.05 1.15 41.2 2.6 Q36.45 4.2 31.85 6.05 29.6 6.9 27.4 7.95 L23.45 9.95 19.55 12.15 18.35 12.95 M111.3 25.4 L108.75 24.25 104.3 22.35 Q102.0 21.4 99.75 20.6 L95.3 18.85 90.8 17.1 87.7 16.35 82.0 15.1 76.65 14.05 71.55 13.2 67.2 12.8 62.95 12.7 63.35 12.55" fill="none" stroke="#0e4077" stroke-linecap="round" stroke-linejoin="round" stroke-width="2.0"/>
      <path d="M94.6 54.95 L95.35 55.0 96.45 55.1 99.05 55.05 103.4 54.8 107.9 54.35 112.65 53.75 119.45 52.3 122.75 51.35 Q123.65 51.0 125.05 50.6 126.45 50.1 127.85 49.2 129.25 48.3 130.35 48.0 L131.9 47.5 138.8 45.35 139.4 45.2 134.95 40.7 130.75 36.85 Q128.2 34.65 125.35 32.7 L124.2 31.85 123.65 31.55 Q120.4 29.8 117.1 28.2 L113.05 26.2 111.3 25.4 M94.6 54.95 L90.4 54.5 85.5 53.7 80.6 52.6 75.5 51.0 70.45 49.2 70.35 49.15 65.5 47.15 64.6 46.8 61.45 45.4 60.6 45.1 55.65 43.55 50.35 41.95 44.8 40.35 42.0 39.55 39.5 38.9 37.0 38.2 34.4 37.55 29.7 36.4 21.7 34.8 20.55 34.6" fill="none" stroke="#075ba8" stroke-linecap="round" stroke-linejoin="round" stroke-width="2.0"/>
      <path d="M20.55 34.6 Q15.7 33.45 0.0 28.9 5.4 22.1 8.25 19.9 L13.05 16.35 18.35 12.95" fill="none" stroke="#543880" stroke-linecap="round" stroke-linejoin="round" stroke-width="2.0"/>
    </g>
  </defs>
</svg>
