<?xml version="1.0" encoding="UTF-8" standalone="no"?>
<svg xmlns:ffdec="https://www.free-decompiler.com/flash" xmlns:xlink="http://www.w3.org/1999/xlink" ffdec:objectType="frame" height="30.3px" width="30.0px" xmlns="http://www.w3.org/2000/svg">
  <g transform="matrix(1.0, 0.0, 0.0, 1.0, 0.0, 0.0)">
    <use ffdec:characterId="1" height="30.0" transform="matrix(1.0, 0.0, 0.0, 1.0, 0.0, 0.0)" width="30.0" xlink:href="#shape0"/>
    <filter id="filter0">
      <feColorMatrix in="SourceGraphic" result="filterResult0" type="matrix" values="0 0 0 0 0.4,0 0 0 0 1.0,0 0 0 0 1.0,0 0 0 1 0"/>
      <feConvolveMatrix divisor="4.0" in="filterResult0" kernelMatrix="1 1 1 1" order="2 2" result="filterResult1"/>
      <feComposite in="SourceGraphic" in2="filterResult1" operator="over" result="filterResult2"/>
    </filter>
    <use ffdec:characterId="3" filter="url(#filter0)" height="91.75" transform="matrix(0.2138, 0.1234, -0.1234, 0.2138, 12.1674, 0.4801)" width="82.75" xlink:href="#sprite0"/>
  </g>
  <defs>
    <g id="shape0" transform="matrix(1.0, 0.0, 0.0, 1.0, 0.0, 0.0)">
      <path d="M0.0 0.0 L30.0 0.0 30.0 30.0 0.0 30.0 0.0 0.0" fill="#33cc66" fill-opacity="0.0" fill-rule="evenodd" stroke="none"/>
      <path d="M0.0 26.7 L0.0 3.3 Q0.0 0.0 3.3 0.0 L26.7 0.0 Q30.0 0.0 30.0 3.3 L30.0 26.7 Q30.0 30.0 26.7 30.0 L3.3 30.0 Q0.0 30.0 0.0 26.7" fill="#7089af" fill-rule="evenodd" stroke="none"/>
    </g>
    <g id="sprite0" transform="matrix(1.0, 0.0, 0.0, 1.0, -17.5, 18.85)">
      <use ffdec:characterId="2" height="91.75" transform="matrix(1.0, 0.0, 0.0, 1.0, 17.5, -18.85)" width="82.75" xlink:href="#shape1"/>
    </g>
    <g id="shape1" transform="matrix(1.0, 0.0, 0.0, 1.0, -17.5, 18.85)">
      <path d="M90.55 52.6 L90.75 53.2 91.05 53.95 91.85 55.75 92.35 56.5 93.0 57.45 93.5 58.05 94.3 58.95 94.7 59.35 94.75 59.35 95.8 59.85 96.5 60.05 96.7 60.1 98.6 60.35 99.75 60.4 99.7 61.55 98.85 63.5 97.55 65.2 96.2 66.45 95.15 67.2 95.15 67.1 95.05 66.3 94.9 65.55 94.85 65.35 94.65 64.85 94.2 64.45 Q93.2 63.55 91.75 63.3 L91.15 63.2 90.45 63.1 90.3 63.1 90.0 63.15 89.95 63.15 88.35 62.5 88.15 62.4 87.8 62.25 87.2 61.45 87.0 61.25 86.35 60.6 85.8 60.0 85.25 59.55 83.0 58.0 82.45 57.75 81.45 57.3 80.4 57.0 78.7 57.0 78.55 57.0 76.95 56.95 75.7 56.85 73.25 56.35 72.4 56.15 71.05 56.35 69.3 55.9 68.5 55.75 67.75 55.75 66.15 55.75 64.55 55.75 62.55 55.5 60.3 55.25 60.05 55.2 59.85 55.15 58.25 54.85 58.15 54.75 Q58.0 54.55 58.95 53.95 L59.8 53.25 59.5 52.85 59.4 52.6 58.05 51.45 57.7 51.25 56.75 50.6 56.6 50.5 55.6 49.85 54.2 49.05 52.85 48.5 51.55 48.0 50.7 47.75 50.35 46.9 51.15 46.9 52.7 46.95 54.1 47.0 55.85 47.25 57.7 47.6 59.5 48.15 60.2 48.45 61.1 48.85 62.7 49.6 63.4 50.25 64.3 50.9 65.9 52.1 67.1 53.0 Q69.3 54.7 72.05 55.7 L73.25 56.05 75.35 55.9 77.5 55.65 77.4 54.3 77.3 53.35 77.25 52.95 76.85 52.9 74.35 52.6 71.8 51.95 69.9 51.25 69.35 50.85 68.95 50.55 68.3 50.05 67.5 49.2 66.9 48.6 66.55 48.2 66.4 48.0 66.25 47.85 66.05 47.45 64.95 45.6 64.7 44.85 63.7 42.45 63.2 41.0 62.85 39.4 62.15 39.45 61.75 39.5 60.75 39.55 Q60.1 39.65 59.6 39.95 L59.85 40.9 60.05 41.65 60.8 43.6 61.7 45.65 62.45 47.05 62.75 47.6 63.0 48.0 63.15 48.1 62.2 47.2 60.2 44.7 59.0 42.8 58.55 41.95 58.0 40.85 57.15 39.3 56.0 38.55 55.1 38.0 54.8 37.85 54.5 37.75 55.2 37.95 55.8 38.1 56.95 38.05 58.05 38.05 60.1 38.1 62.7 38.25 62.75 38.25 63.4 38.35 63.65 38.35 63.65 38.85 63.8 39.4 63.8 39.8 64.0 40.95 64.3 42.2 64.7 43.55 64.95 44.2 65.25 44.95 65.4 45.3 65.9 46.25 66.15 46.8 66.3 47.0 66.8 47.65 67.05 47.95 67.6 48.6 67.95 48.95 68.25 49.2 68.65 49.6 69.05 49.95 69.4 50.1 69.6 50.25 70.65 50.75 70.7 50.75 71.7 50.9 72.15 51.0 72.8 51.05 74.05 51.15 75.35 51.15 76.7 51.15 78.1 50.95 79.25 50.8 79.45 50.75 80.75 50.55 81.3 50.35 81.5 50.35 81.6 50.4 83.95 52.1 84.0 52.15 86.3 53.7 87.8 54.7 87.9 54.8 89.25 55.75 89.95 56.25 90.15 54.3 90.2 53.5 90.25 52.95 90.25 52.7 90.3 50.85 90.4 50.3 90.4 52.25 90.45 52.35 90.55 52.6 M90.2 72.25 L90.0 72.4 90.0 72.1 89.9 70.55 89.5 68.05 88.15 68.15 86.5 68.15 84.85 68.2 84.2 68.2 83.4 68.15 82.05 68.1 80.95 68.05 79.2 67.75 79.1 67.7 79.2 67.65 80.55 66.6 80.3 66.45 81.05 65.25 81.2 65.0 81.35 64.25 81.3 63.45 81.2 63.15 81.05 63.1 Q79.85 62.35 78.55 61.95 L76.85 61.55 76.6 61.5 76.2 61.45 74.35 61.5 73.2 61.5 71.55 61.55 71.2 61.55 68.8 61.25 69.2 61.2 71.8 61.05 72.15 61.0 75.4 60.8 77.75 60.75 78.35 60.75 79.25 60.8 81.6 61.55 82.95 62.15 Q83.15 63.1 82.75 64.0 L82.25 64.7 80.9 66.3 80.55 66.6 82.75 67.4 84.55 67.65 85.0 67.65 Q87.75 67.9 90.45 67.75 L90.75 67.75 90.7 69.9 90.4 71.6 90.2 72.25 M92.85 62.55 L93.6 62.35 94.95 61.5 93.95 61.2 92.8 61.0 90.25 61.4 91.6 61.95 91.75 62.05 91.85 62.65 91.9 62.75 92.3 62.75 92.7 62.65 92.85 62.55" fill="#b92d6a" fill-rule="evenodd" stroke="none"/>
      <path d="M63.65 38.35 L63.4 38.35 62.75 38.25 62.7 38.25 60.1 38.1 58.05 38.05 56.95 38.05 56.0 37.45 54.3 36.5 53.35 36.0 53.15 35.9 51.4 35.2 51.35 35.15 Q50.4 34.55 49.4 34.1 L47.7 33.2 46.3 32.5 45.45 32.15 45.2 32.05 44.8 31.9 43.35 31.45 41.85 30.85 41.2 30.5 40.45 29.0 40.2 27.95 40.45 27.95 43.6 27.4 45.85 26.8 46.25 26.65 47.55 27.7 48.0 28.05 48.2 28.2 49.7 29.35 50.1 29.65 52.0 31.0 54.6 32.7 56.9 34.0 57.65 34.65 58.95 35.55 59.1 35.6 61.5 37.1 63.5 38.25 63.65 38.35 M54.5 37.75 L54.8 37.85 55.1 38.0 56.0 38.55 57.15 39.3 58.0 40.85 58.55 41.95 59.0 42.8 60.2 44.7 62.2 47.2 63.15 48.1 63.0 48.0 62.75 47.6 62.45 47.05 61.7 45.65 60.8 43.6 60.05 41.65 59.85 40.9 59.6 39.95 Q60.1 39.65 60.75 39.55 L61.75 39.5 62.15 39.45 62.85 39.4 63.2 41.0 63.7 42.45 64.7 44.85 64.95 45.6 66.05 47.45 66.25 47.85 66.4 48.0 66.55 48.2 66.9 48.6 67.5 49.2 68.3 50.05 68.95 50.55 69.35 50.85 69.9 51.25 71.8 51.95 74.35 52.6 76.85 52.9 77.25 52.95 77.3 53.35 77.4 54.3 77.5 55.65 75.35 55.9 73.25 56.05 72.05 55.7 Q69.3 54.7 67.1 53.0 L65.9 52.1 64.3 50.9 63.4 50.25 62.7 49.6 61.1 48.85 60.2 48.45 59.5 48.15 57.7 47.6 55.85 47.25 54.1 47.0 52.7 46.95 51.15 46.9 50.35 46.9 50.15 46.4 49.15 44.45 48.2 42.8 47.7 42.05 47.05 41.15 46.9 40.9 46.25 40.6 Q45.9 38.35 45.85 36.15 L47.05 36.25 49.8 36.6 51.4 36.85 52.95 37.25 54.5 37.75 M71.05 56.35 L72.4 56.15 73.25 56.35 75.7 56.85 76.95 56.95 78.55 57.0 78.7 57.0 80.4 57.0 81.45 57.3 82.45 57.75 83.0 58.0 85.25 59.55 85.8 60.0 86.35 60.6 87.0 61.25 87.2 61.45 87.8 62.25 88.15 62.4 88.35 62.5 89.95 63.15 88.15 63.7 86.95 63.8 88.3 64.3 89.15 64.65 90.45 65.2 92.55 65.25 Q93.65 65.45 94.65 66.0 L94.75 66.05 94.9 66.1 94.95 66.1 94.9 65.55 95.05 66.3 95.15 67.1 95.15 67.2 96.2 66.45 97.55 65.2 98.85 63.5 99.7 61.55 99.65 62.3 99.65 63.3 99.2 64.4 98.7 65.8 98.3 66.25 96.4 68.25 94.15 70.15 91.65 71.7 90.2 72.25 90.4 71.6 90.7 69.9 90.75 67.75 90.45 67.75 Q87.75 67.9 85.0 67.65 L84.55 67.65 82.75 67.4 80.55 66.6 80.9 66.3 82.25 64.7 82.75 64.0 Q83.15 63.1 82.95 62.15 L81.6 61.55 79.25 60.8 78.35 60.75 77.75 60.75 75.4 60.8 72.15 61.0 71.8 61.05 69.2 61.2 68.8 61.25 67.5 61.0 68.65 60.5 70.7 59.3 72.1 58.05 72.6 57.1 72.7 57.0 72.0 56.7 71.05 56.35 M62.05 45.3 L62.45 46.15 62.5 46.2 62.85 46.8 63.25 47.75 63.35 48.0 63.35 48.1 63.45 48.6 63.5 48.85 63.5 49.0 63.6 49.2 63.6 49.3 63.85 49.65 64.0 49.8 64.4 50.2 64.8 50.6 64.95 50.65 65.1 50.65 65.25 50.65 65.95 49.25 65.8 48.65 65.5 48.0 65.45 47.75 65.35 47.45 64.95 47.2 64.75 47.05 64.2 46.8 63.9 46.55 63.65 46.35 62.6 45.4 62.35 45.1 61.3 43.65 62.05 45.3" fill="#f34576" fill-rule="evenodd" stroke="none"/>
      <path d="M89.95 63.15 L90.0 63.15 90.3 63.1 90.45 63.1 91.15 63.2 91.75 63.3 Q93.2 63.55 94.2 64.45 L94.65 64.85 94.85 65.35 94.9 65.55 94.95 66.1 94.9 66.1 94.75 66.05 94.65 66.0 Q93.65 65.45 92.55 65.25 L90.45 65.2 89.15 64.65 88.3 64.3 86.95 63.8 88.15 63.7 89.95 63.15 M62.45 46.15 L62.05 45.3 61.3 43.65 62.35 45.1 62.6 45.4 63.65 46.35 63.9 46.55 64.2 46.8 64.75 47.05 64.95 47.2 65.35 47.45 65.45 47.75 65.5 48.0 65.8 48.65 65.95 49.25 65.25 50.65 65.1 50.65 64.95 50.65 64.8 50.6 64.4 50.2 64.0 49.8 63.85 49.65 63.6 49.3 63.6 49.2 63.5 49.0 63.5 48.85 63.45 48.6 63.35 48.1 63.35 48.0 63.25 47.75 62.85 46.8 62.5 46.2 62.45 46.15" fill="#ff9ac9" fill-rule="evenodd" stroke="none"/>
      <path d="M65.25 28.35 L66.4 28.35 68.95 28.45 70.2 28.5 71.1 29.65 71.15 29.7 72.35 31.2 73.3 32.15 73.95 32.85 75.55 34.35 77.35 35.9 77.9 36.3 79.1 37.3 80.15 38.05 80.65 38.45 82.1 39.5 82.7 39.9 83.0 40.1 84.15 40.85 84.75 41.25 84.7 39.8 84.7 39.55 84.7 39.0 84.5 36.8 84.5 36.4 84.35 35.15 84.15 33.35 84.1 32.95 83.95 31.6 83.7 29.7 83.35 27.95 83.25 27.35 83.0 26.2 82.75 25.2 82.55 24.0 83.35 22.25 84.25 19.5 84.5 18.0 84.65 16.35 84.8 14.75 84.9 14.95 85.35 16.35 85.75 18.1 86.2 20.15 86.6 22.15 86.85 24.1 87.1 25.65 87.15 25.75 87.15 25.95 87.3 27.7 87.45 30.5 87.45 31.35 87.4 32.5 87.5 32.95 87.9 34.1 87.95 35.3 87.95 35.85 88.05 37.45 88.05 37.5 88.05 38.5 88.15 39.2 88.2 40.25 88.25 41.1 88.35 42.6 88.35 43.0 88.35 44.85 88.35 45.0 88.3 46.75 88.25 48.4 88.25 48.5 88.2 49.55 88.2 49.85 88.2 50.1 87.95 52.95 87.9 53.45 86.2 51.3 85.85 50.9 85.15 49.95 83.15 47.6 82.5 46.8 81.7 45.8 81.1 45.15 80.05 43.95 79.65 43.5 78.55 42.3 78.25 41.95 78.15 41.85 77.9 41.6 77.6 41.25 76.85 40.5 76.3 39.95 76.2 39.75 75.1 38.6 74.75 38.15 73.8 37.15 72.35 35.65 71.0 34.1 70.6 33.65 69.6 32.65 68.25 31.3 68.05 31.05 67.1 30.05 66.05 29.1 65.25 28.35" fill="#a092cd" fill-rule="evenodd" stroke="none"/>
      <path d="M90.4 50.3 L90.3 50.85 90.25 52.7 90.25 52.95 90.2 53.5 90.15 54.3 89.95 56.25 89.25 55.75 87.9 54.8 87.8 54.7 86.3 53.7 84.0 52.15 83.95 52.1 81.6 50.4 81.5 50.35 80.6 49.7 79.55 48.65 78.9 48.0 78.25 47.3 77.6 46.6 77.0 45.9 76.2 44.95 75.7 44.4 75.0 43.5 74.75 43.1 74.45 42.85 73.4 41.4 73.25 41.15 72.55 40.35 72.1 39.75 71.85 39.5 71.35 39.4 69.8 39.25 68.45 39.1 68.15 39.05 68.05 39.05 67.8 39.05 67.1 38.9 67.05 38.9 66.35 38.85 65.65 38.7 64.45 38.5 65.75 38.65 66.5 38.65 68.4 38.5 70.2 38.3 69.7 37.2 68.95 35.45 68.7 34.85 68.65 34.7 67.1 34.4 64.2 33.75 63.0 33.5 62.3 33.35 60.2 32.75 57.85 32.1 55.5 31.25 52.95 30.3 50.5 29.4 50.45 29.35 48.2 28.2 48.0 28.05 47.55 27.7 46.25 26.65 49.25 25.6 49.5 25.7 51.1 26.25 53.15 26.7 54.55 27.05 55.5 27.15 58.1 27.6 60.9 27.95 63.65 28.2 65.25 28.35 66.05 29.1 67.1 30.05 68.05 31.05 68.25 31.3 69.6 32.65 70.6 33.65 71.0 34.1 72.35 35.65 73.8 37.15 74.75 38.15 75.1 38.6 76.2 39.75 76.3 39.95 76.85 40.5 77.9 41.6 78.15 41.85 78.25 41.95 78.55 42.3 79.65 43.5 80.05 43.95 81.1 45.15 81.7 45.8 82.5 46.8 83.15 47.6 85.15 49.95 85.85 50.9 86.2 51.3 87.9 53.45 87.95 52.95 88.2 50.1 88.2 49.85 88.2 49.55 88.25 48.5 88.25 48.4 88.3 46.75 88.35 45.0 88.35 44.85 88.35 43.0 88.35 42.6 88.25 41.1 88.2 40.25 88.15 39.2 88.05 38.5 88.05 37.5 88.05 37.45 87.95 35.85 87.95 35.3 87.9 34.1 88.2 35.25 88.3 35.55 88.75 37.2 89.0 38.25 89.05 38.45 89.35 39.8 89.4 39.95 89.5 40.75 89.65 42.2 89.65 42.45 89.9 44.05 89.95 44.55 90.0 45.6 90.25 48.45 90.25 48.65 90.4 50.3" fill="#e7dcfc" fill-rule="evenodd" stroke="none"/>
      <path d="M48.2 28.2 L50.45 29.35 50.5 29.4 52.95 30.3 55.5 31.25 57.85 32.1 60.2 32.75 62.3 33.35 63.0 33.5 64.2 33.75 67.1 34.4 68.65 34.7 68.7 34.85 68.95 35.45 69.7 37.2 70.2 38.3 68.4 38.5 66.5 38.65 65.75 38.65 64.45 38.5 64.2 38.5 63.7 38.35 63.65 38.35 63.5 38.25 61.5 37.1 59.1 35.6 58.95 35.55 57.65 34.65 56.9 34.0 54.6 32.7 52.0 31.0 50.1 29.65 49.7 29.35 48.2 28.2" fill="#fafff4" fill-rule="evenodd" stroke="none"/>
      <path d="M56.95 38.05 L55.8 38.1 55.2 37.95 54.5 37.75 52.95 37.25 51.4 36.85 49.8 36.6 47.05 36.25 45.85 36.15 Q45.9 38.35 46.25 40.6 L44.45 39.6 42.95 38.9 41.15 38.35 40.3 38.15 39.25 37.95 37.55 37.75 35.8 37.7 32.95 38.1 31.8 38.35 Q30.0 36.15 29.55 35.25 L28.45 32.9 27.3 30.05 26.9 28.4 26.75 26.85 26.45 24.25 26.55 22.65 26.6 22.7 27.0 23.05 28.45 24.5 29.6 25.6 30.8 26.75 32.1 27.8 33.45 28.75 35.95 30.3 37.95 31.4 39.0 31.9 40.95 32.35 42.45 32.65 43.6 32.85 44.2 32.95 44.55 33.0 45.4 33.25 46.65 33.55 49.15 34.3 50.85 34.95 51.25 35.1 51.35 35.15 51.4 35.2 51.45 35.2 53.15 35.9 53.35 36.0 54.3 36.5 56.0 37.45 56.95 38.05 M26.55 22.65 L27.0 23.05 26.55 22.65" fill="#9e1b5f" fill-rule="evenodd" stroke="none"/>
      <path d="M51.35 35.15 L51.25 35.1 50.85 34.95 49.15 34.3 46.65 33.55 45.4 33.25 44.55 33.0 44.2 32.95 42.45 32.65 40.95 32.35 39.0 31.9 37.95 31.4 35.95 30.3 33.45 28.75 32.1 27.8 30.8 26.75 29.6 25.6 28.45 24.5 27.0 23.05 27.45 23.45 29.5 25.05 Q30.7 25.95 32.05 26.6 L33.6 27.2 35.15 27.6 36.7 27.85 39.1 28.05 39.65 28.0 40.2 27.95 40.45 29.0 41.2 30.5 41.85 30.85 43.35 31.45 44.8 31.9 45.2 32.05 45.45 32.15 46.3 32.5 47.7 33.2 49.4 34.1 Q50.4 34.55 51.35 35.15" fill="#ff9ec6" fill-rule="evenodd" stroke="none"/>
      <path d="M81.5 50.35 L81.3 50.35 80.75 50.55 79.45 50.75 79.25 50.8 78.1 50.95 76.7 51.15 75.35 51.15 74.05 51.15 72.8 51.05 72.15 51.0 71.7 50.9 70.7 50.75 70.65 50.75 69.6 50.25 69.4 50.1 69.05 49.95 68.65 49.6 68.25 49.2 67.95 48.95 67.6 48.6 67.05 47.95 66.8 47.65 66.3 47.0 66.15 46.8 65.9 46.25 65.4 45.3 65.25 44.95 64.95 44.2 64.7 43.55 64.3 42.2 64.0 40.95 63.8 39.8 63.8 39.4 63.65 38.85 63.65 38.35 63.7 38.35 64.2 38.5 64.45 38.5 65.65 38.7 66.35 38.85 67.05 38.9 67.1 38.9 67.1 38.95 67.8 39.05 68.05 39.05 68.15 39.05 68.45 39.1 69.8 39.25 71.35 39.4 71.85 39.5 72.1 39.75 72.55 40.35 73.25 41.15 73.4 41.4 74.45 42.85 74.75 43.1 75.0 43.5 75.7 44.4 76.2 44.95 77.0 45.9 77.6 46.6 78.25 47.3 78.9 48.0 79.55 48.65 80.6 49.7 81.5 50.35 M68.15 40.1 L67.2 40.0 66.35 39.95 65.65 39.8 65.45 39.8 65.5 40.6 65.65 41.4 65.9 42.5 66.2 43.4 66.35 43.75 66.7 44.6 66.9 45.05 67.5 46.15 67.5 46.25 68.15 47.3 68.85 48.1 69.05 48.4 69.15 48.4 69.75 48.85 70.4 49.15 70.75 49.3 71.15 49.45 71.7 49.55 72.85 49.75 73.35 49.85 74.2 49.85 75.55 49.9 76.8 49.85 77.65 49.85 78.4 49.8 78.35 49.7 77.95 49.05 77.65 48.5 77.55 48.4 77.0 47.9 76.4 47.35 76.2 47.2 75.7 46.65 75.0 45.85 74.8 45.6 74.3 45.05 73.65 44.25 73.6 44.15 73.25 43.7 72.9 43.35 72.35 42.45 71.95 41.8 71.8 41.65 71.0 40.5 71.0 40.4 70.9 40.35 70.1 40.25 69.15 40.2 68.15 40.1" fill="#6f2759" fill-rule="evenodd" stroke="none"/>
      <path d="M68.15 40.1 L69.15 40.2 70.1 40.25 70.9 40.35 71.0 40.4 71.0 40.5 71.8 41.65 71.95 41.8 72.35 42.45 72.9 43.35 73.25 43.7 73.6 44.15 73.65 44.25 74.3 45.05 74.8 45.6 75.0 45.85 75.7 46.65 76.2 47.2 76.4 47.35 77.0 47.9 77.55 48.4 77.65 48.5 77.95 49.05 78.35 49.7 78.4 49.8 77.65 49.85 76.8 49.85 75.55 49.9 74.2 49.85 73.35 49.85 72.85 49.75 71.7 49.55 71.15 49.45 70.75 49.3 70.4 49.15 69.75 48.85 69.15 48.4 69.05 48.4 68.85 48.1 68.15 47.3 67.5 46.25 67.5 46.15 66.9 45.05 66.7 44.6 66.35 43.75 66.2 43.4 65.9 42.5 65.65 41.4 65.5 40.6 65.45 39.8 65.65 39.8 66.35 39.95 67.2 40.0 68.15 40.1 M71.45 45.85 L72.5 46.0 73.15 46.4 73.3 46.5 73.6 46.8 73.85 47.2 74.1 47.75 74.25 48.0 74.25 48.05 74.2 48.25 74.2 48.35 73.95 48.7 73.45 49.05 72.8 49.3 72.5 49.45 72.6 49.45 73.8 49.5 74.35 49.5 75.15 49.45 77.05 49.25 76.5 48.8 76.45 48.75 75.95 48.3 75.3 47.55 75.25 47.5 74.35 46.5 73.95 46.0 73.4 45.3 72.95 44.7 72.9 44.6 72.55 44.0 72.15 43.45 71.45 42.3 71.35 42.15 71.2 41.9 70.5 41.65 69.45 41.35 69.05 41.25 67.7 40.9 67.2 40.85 67.1 40.8 Q67.2 41.95 67.45 42.6 L67.6 43.1 67.85 43.85 67.8 44.0 67.75 44.3 67.85 45.0 68.25 45.85 68.9 46.65 69.0 46.8 69.6 47.05 70.25 47.2 70.85 47.0 71.2 46.65 71.45 46.25 71.45 45.85" fill="#f8db53" fill-rule="evenodd" stroke="none"/>
      <path d="M67.85 43.85 L67.6 43.1 67.45 42.6 Q67.2 41.95 67.1 40.8 L67.2 40.85 67.7 40.9 69.05 41.25 69.45 41.35 70.5 41.65 71.2 41.9 71.35 42.15 71.45 42.3 72.15 43.45 72.55 44.0 72.9 44.6 72.95 44.7 73.4 45.3 73.95 46.0 74.35 46.5 75.25 47.5 75.3 47.55 75.95 48.3 76.45 48.75 76.5 48.8 77.05 49.25 75.15 49.45 74.35 49.5 73.8 49.5 72.6 49.45 72.5 49.45 72.8 49.3 73.45 49.05 73.95 48.7 74.2 48.35 74.2 48.25 74.25 48.05 74.25 48.0 74.1 47.75 73.85 47.2 73.6 46.8 73.3 46.5 73.15 46.4 72.5 46.0 71.45 45.85 71.4 45.75 71.3 45.5 71.15 45.25 70.7 44.75 70.65 44.7 70.0 44.2 69.3 43.85 68.65 43.65 68.5 43.6 68.25 43.6 68.1 43.65 67.85 43.85" fill="#fffd8f" fill-rule="evenodd" stroke="none"/>
      <path d="M71.45 45.85 L71.45 46.25 71.2 46.65 70.85 47.0 70.25 47.2 69.6 47.05 69.0 46.8 68.9 46.65 68.25 45.85 67.85 45.0 67.75 44.3 67.8 44.0 67.85 43.85 68.1 43.65 68.25 43.6 68.5 43.6 68.65 43.65 69.3 43.85 70.0 44.2 70.65 44.7 70.7 44.75 71.15 45.25 71.3 45.5 71.4 45.75 71.45 45.85" fill="#f4ffeb" fill-rule="evenodd" stroke="none"/>
      <path d="M92.85 62.55 L92.7 62.65 92.3 62.75 91.9 62.75 91.85 62.65 91.75 62.05 91.6 61.95 90.25 61.4 92.8 61.0 93.95 61.2 94.95 61.5 93.6 62.35 92.85 62.55" fill="#651f5b" fill-rule="evenodd" stroke="none"/>
      <path d="M99.7 61.55 L99.75 60.4 98.6 60.35 96.7 60.1 96.5 60.05 95.8 59.85 94.75 59.35 94.7 59.35 94.3 58.95 93.5 58.05 93.0 57.45 92.35 56.5 91.85 55.75 91.05 53.95 90.75 53.2 90.55 52.6 M50.35 46.9 L50.7 47.75 51.55 48.0 52.85 48.5 54.2 49.05 55.6 49.85 56.6 50.5 56.75 50.6 57.7 51.25 58.05 51.45 59.4 52.6 59.5 52.85 59.8 53.25 58.95 53.95 Q58.0 54.55 58.15 54.75 L58.25 54.85 59.85 55.15 60.05 55.2 60.3 55.25 62.55 55.5 64.55 55.75 66.15 55.75 67.75 55.75 68.5 55.75 69.3 55.9 71.05 56.35 72.0 56.7 72.7 57.0 72.6 57.1 72.1 58.05 70.7 59.3 68.65 60.5 67.5 61.0 68.8 61.25 71.2 61.55 71.55 61.55 73.2 61.5 74.35 61.5 76.2 61.45 74.95 61.45 74.35 61.5 M99.7 61.55 L99.65 62.3 99.65 63.3 99.2 64.4 98.7 65.8 98.3 66.25 96.4 68.25 94.15 70.15 91.65 71.7 90.2 72.25 90.0 72.4 90.0 72.1 89.9 70.55 89.5 68.05 88.15 68.15 86.5 68.15 84.85 68.2 84.2 68.2 83.4 68.15 82.05 68.1 80.95 68.05 79.2 67.75 79.1 67.7 78.8 67.5 Q80.0 66.85 80.3 66.45 L81.05 65.25 81.2 65.0 81.35 64.25 81.3 63.45 81.2 63.15 81.05 63.1 Q79.85 62.35 78.55 61.95 L76.85 61.55 76.6 61.5 76.2 61.45 M27.0 23.05 L26.55 22.65 26.45 24.25 26.75 26.85 26.9 28.4 27.3 30.05 28.45 32.9 29.55 35.25 Q30.0 36.15 31.8 38.35 L32.95 38.1 35.8 37.7 37.55 37.75 39.25 37.95 40.3 38.15 41.15 38.35 42.95 38.9 44.45 39.6 46.25 40.6 46.9 40.9 47.05 41.15 47.7 42.05 48.2 42.8 49.15 44.45 50.15 46.4 50.35 46.9 M40.2 27.95 L40.45 27.95 43.6 27.4 45.85 26.8 46.25 26.65 M40.2 27.95 L39.65 28.0 39.1 28.05 36.7 27.85 35.15 27.6 33.6 27.2 32.05 26.6 Q30.7 25.95 29.5 25.05 L27.45 23.45 27.0 23.05" fill="none" stroke="#640a36" stroke-linecap="round" stroke-linejoin="round" stroke-width="1.0"/>
      <path d="M90.55 52.6 L90.45 52.35 90.4 52.25 90.4 50.3 90.25 48.65 90.25 48.45 90.0 45.6 89.95 44.55 89.9 44.05 89.65 42.45 89.65 42.2 89.5 40.75 89.4 39.95 89.35 39.8 89.05 38.45 89.0 38.25 88.75 37.2 88.3 35.55 88.2 35.25 87.9 34.1 87.5 32.95 87.4 32.5 87.45 31.35 87.45 30.5 87.3 27.7 87.15 25.95 87.15 25.75 87.1 25.65 86.85 24.1 86.6 22.15 86.2 20.15 85.75 18.1 85.35 16.35 84.9 14.95 84.8 14.75 84.65 16.35 84.5 18.0 84.25 19.5 83.35 22.25 82.55 24.0 82.75 25.2 83.0 26.2 83.25 27.35 83.35 27.95 83.7 29.7 83.95 31.6 84.1 32.95 84.15 33.35 84.35 35.15 84.5 36.4 84.5 36.8 84.7 39.0 84.7 39.55 84.7 39.8 84.75 41.25 84.15 40.85 83.0 40.1 82.7 39.9 82.1 39.5 80.65 38.45 80.15 38.05 79.1 37.3 77.9 36.3 77.35 35.9 75.55 34.35 73.95 32.85 73.3 32.15 72.35 31.2 71.15 29.7 71.1 29.65 70.2 28.5 68.95 28.45 66.4 28.35 65.25 28.35 63.65 28.2 60.9 27.95 58.1 27.6 55.5 27.15 54.55 27.05 53.15 26.7 51.1 26.25 49.5 25.7 49.25 25.6 46.25 26.65" fill="none" stroke="#4f518a" stroke-linecap="round" stroke-linejoin="round" stroke-width="1.0"/>
      <path d="M18.25 -3.95 L18.35 -4.8 Q18.65 -7.15 20.05 -9.55 L20.85 -10.8 22.8 -12.75 25.0 -14.45 Q25.65 -14.85 26.3 -15.2 L28.0 -15.95 31.35 -17.15 33.05 -17.65 35.6 -18.35 37.15 -18.35 38.8 -18.35 40.55 -18.35 43.55 -18.15 44.8 -18.0 45.05 -17.95 41.3 -17.65 39.35 -17.3 36.1 -16.3 35.15 -15.85 34.75 -15.7 32.8 -14.45 31.2 -13.05 30.95 -12.8 30.7 -12.5 29.25 -10.95 27.9 -9.0 26.9 -6.7 26.85 -6.6 26.7 -3.95 Q26.7 -2.45 26.85 -1.0 L26.95 -0.45 27.25 1.0 27.65 2.1 29.5 5.6 29.9 6.3 30.3 6.75 31.3 8.1 32.7 9.5 33.2 9.95 34.9 11.45 37.55 13.55 38.75 14.5 40.05 15.4 41.35 16.3 42.55 17.05 42.65 17.1 44.9 18.3 45.0 18.35 45.6 18.65 45.95 18.85 46.65 19.1 45.95 18.9 45.85 18.85 43.15 17.75 42.15 17.3 41.9 17.15 41.1 16.75 39.0 15.7 36.9 14.55 36.85 14.5 36.45 14.25 35.05 13.1 33.05 11.45 32.2 10.65 31.4 9.95 30.35 8.95 29.2 7.8 28.45 7.1 28.15 6.7 27.45 5.9 26.3 3.8 25.4 2.1 24.85 0.8 24.75 0.5 24.05 -1.25 23.5 -2.9 23.1 -4.65 22.9 -6.1 22.9 -8.45 Q22.95 -9.2 23.15 -9.95 L23.5 -10.9 21.45 -9.15 19.95 -7.25 Q19.15 -6.15 18.6 -4.9 L18.25 -3.95 M55.5 -17.3 L55.05 -17.4 57.65 -17.85 60.5 -17.9 64.05 -17.55 65.15 -17.25 67.45 -16.6 Q69.4 -15.95 71.25 -14.75 L74.75 -12.65 74.75 -12.6 76.25 -11.65 77.3 -10.8 78.75 -9.6 78.85 -9.5 80.8 -7.4 81.7 -6.25 83.9 -3.1 84.5 -2.15 85.65 -0.25 85.8 0.0 86.0 0.65 86.45 2.2 86.7 3.05 86.85 3.65 86.35 2.65 86.2 2.25 85.5 0.85 85.35 0.6 84.1 -1.4 82.9 -3.1 82.6 -3.5 82.75 -3.0 83.45 -1.35 83.5 -1.15 83.95 0.1 83.95 0.25 84.15 1.25 84.35 2.35 84.35 2.6 84.4 2.85 84.5 3.7 84.5 3.95 84.6 5.5 84.55 8.3 84.4 10.85 84.3 12.25 84.3 12.0 84.15 9.6 84.15 9.35 83.9 7.0 83.45 4.45 83.25 3.65 83.2 3.35 83.15 3.3 83.15 3.15 83.05 2.7 83.0 2.5 82.9 2.25 82.8 1.7 82.2 -0.3 82.1 -0.65 81.45 -2.35 81.45 -2.4 81.15 -2.75 80.6 -3.55 79.5 -5.2 77.85 -7.4 76.25 -9.0 74.5 -10.55 74.2 -10.8 73.0 -11.75 72.75 -11.9 72.55 -12.05 72.05 -12.4 72.0 -12.4 71.7 -12.6 71.1 -12.9 70.35 -13.35 70.0 -13.55 67.95 -14.45 65.9 -15.2 63.9 -15.85 62.55 -16.2 61.95 -16.35 58.45 -17.05 55.75 -17.3 55.5 -17.3" fill="#ffffd4" fill-rule="evenodd" stroke="none"/>
      <path d="M45.05 -17.95 L47.0 -17.55 46.65 -17.4 45.25 -16.9 Q44.15 -16.45 43.15 -15.8 L41.4 -14.5 39.75 -12.65 39.6 -12.45 38.85 -10.95 38.65 -10.2 Q37.3 -10.0 36.05 -9.35 L34.1 -8.3 32.4 -7.0 30.45 -4.95 30.35 -4.75 29.65 -3.6 29.5 -3.25 Q29.2 -2.5 29.2 -1.7 29.15 -1.2 29.25 -0.65 29.65 2.45 31.25 5.15 L31.5 5.5 Q32.35 7.0 33.35 8.35 L34.1 9.35 35.55 11.1 40.05 15.4 38.75 14.5 37.55 13.55 34.9 11.45 33.2 9.95 32.7 9.5 31.3 8.1 30.3 6.75 29.9 6.3 29.5 5.6 27.65 2.1 27.25 1.0 26.95 -0.45 26.85 -1.0 Q26.7 -2.45 26.7 -3.95 L26.85 -6.6 26.9 -6.7 27.9 -9.0 29.25 -10.95 30.7 -12.5 31.2 -13.05 31.75 -13.55 32.95 -14.45 35.15 -15.85 36.1 -16.3 39.35 -17.3 41.3 -17.65 45.05 -17.95 M74.2 -6.1 L73.35 -7.15 71.85 -8.85 71.05 -9.6 70.9 -9.65 69.6 -10.8 67.8 -12.35 64.85 -14.05 63.9 -14.5 61.2 -15.7 Q58.45 -16.8 55.5 -17.3 L55.75 -17.3 58.45 -17.05 61.95 -16.35 62.55 -16.2 63.9 -15.85 65.9 -15.2 67.95 -14.45 70.0 -13.55 70.35 -13.35 71.1 -12.9 71.7 -12.6 71.85 -12.5 72.0 -12.4 72.05 -12.4 72.55 -12.05 72.75 -11.9 73.0 -11.75 74.2 -10.8 74.5 -10.55 76.25 -9.0 77.85 -7.4 79.5 -5.2 80.6 -3.55 81.15 -2.75 81.45 -2.4 81.45 -2.35 82.1 -0.65 82.2 -0.3 82.3 0.1 82.8 1.7 82.9 2.25 83.0 2.5 83.05 2.7 83.15 3.15 83.15 3.3 83.2 3.35 83.25 3.65 83.45 4.45 83.9 7.0 84.15 9.35 83.45 6.4 82.9 4.2 82.75 3.45 82.25 1.95 82.1 1.65 80.95 -0.7 79.35 -2.75 77.3 -4.5 75.2 -5.7 74.2 -6.1 M81.85 22.05 L81.9 22.15 82.9 19.85 83.55 18.3 84.25 16.35 84.35 16.15 84.65 15.05 84.55 15.7 84.5 16.1 84.35 16.5 84.1 17.3 83.75 18.85 83.3 20.5 82.3 23.15 82.4 23.35 82.4 23.45 82.65 24.4 82.9 25.4 83.15 26.65 83.2 26.7 83.45 27.95 83.75 29.5 83.8 29.6 83.95 31.0 84.2 32.55 84.4 34.05 84.5 35.6 84.55 37.0 84.6 39.45 84.6 40.0 84.6 40.1 84.6 40.2 84.6 40.4 84.6 41.15 83.8 40.5 83.45 40.25 82.9 40.0 81.75 39.25 80.6 38.5 79.8 37.85 78.95 37.15 78.0 36.35 77.1 35.45 75.9 34.35 75.3 33.65 75.25 33.6 74.6 33.0 74.05 32.3 73.4 31.65 72.85 31.0 72.6 30.7 72.3 30.3 71.4 29.2 70.65 28.45 70.6 28.35 67.55 27.85 66.55 27.7 65.1 27.5 63.25 27.2 62.25 26.95 61.15 26.65 60.9 26.65 60.35 26.4 59.65 26.25 58.75 26.1 58.0 25.95 56.65 25.65 55.85 25.45 56.7 25.55 57.7 25.7 58.35 25.8 58.6 25.8 59.55 25.85 60.45 25.95 61.25 25.95 62.1 26.0 62.15 26.0 62.45 26.1 63.7 26.4 64.85 26.7 65.75 26.8 66.5 26.9 67.2 27.05 67.85 27.1 69.95 27.4 71.0 27.6 71.25 27.85 71.7 28.45 72.3 29.15 72.9 29.9 73.3 30.4 73.45 30.6 74.1 31.25 74.75 31.85 75.8 32.9 76.1 33.2 76.7 33.8 77.25 34.2 78.0 34.95 79.2 35.85 79.8 36.3 80.45 36.85 80.95 37.25 81.95 38.05 82.3 38.35 82.65 38.55 82.9 38.8 83.8 39.4 83.85 39.4 83.85 38.65 83.7 36.2 83.6 34.75 83.45 33.3 83.3 31.8 83.05 30.3 82.95 29.95 82.75 28.95 82.45 27.6 82.35 27.05 82.2 26.35 81.9 25.3 81.7 24.45 81.5 23.75 81.45 23.45 81.75 22.4 81.85 22.05" fill="#da6d27" fill-rule="evenodd" stroke="none"/>
      <path d="M86.85 3.65 L86.95 4.3 86.9 4.85 86.75 6.65 86.4 8.5 86.0 10.35 85.5 12.25 85.45 12.4 84.9 14.4 84.65 15.05 84.35 16.15 84.25 16.35 83.55 18.3 82.9 19.85 81.9 22.15 81.85 22.05 82.1 21.3 82.75 19.0 83.45 16.5 83.45 16.4 84.1 13.55 84.25 12.7 84.25 12.65 84.3 12.25 84.4 10.85 84.55 8.3 84.6 5.5 84.5 3.95 84.5 3.7 84.4 2.85 84.35 2.6 84.35 2.35 84.15 1.25 83.95 0.25 83.95 0.1 83.95 0.05 83.5 -1.15 83.45 -1.35 82.75 -3.0 82.6 -3.5 82.9 -3.1 84.1 -1.4 85.35 0.6 85.5 0.85 86.2 2.25 86.35 2.65 86.85 3.65 M21.35 7.9 Q20.25 6.1 19.5 4.2 L19.2 3.4 18.25 0.2 18.0 -1.7 18.25 -3.95 18.6 -4.9 Q19.15 -6.15 19.95 -7.25 L21.45 -9.15 23.5 -10.9 23.15 -9.95 Q22.95 -9.2 22.9 -8.45 L22.9 -6.1 23.1 -4.65 23.5 -2.9 24.05 -1.25 24.75 0.5 24.85 0.8 25.4 2.1 26.3 3.8 27.45 5.9 28.15 6.7 28.45 7.1 29.2 7.8 30.35 8.95 31.4 9.95 32.2 10.65 33.05 11.45 35.05 13.1 36.45 14.25 36.85 14.5 36.9 14.55 39.0 15.7 41.1 16.75 41.9 17.15 42.15 17.3 43.15 17.75 45.85 18.85 45.95 18.9 46.65 19.1 46.8 19.2 48.0 19.8 49.15 20.45 49.3 20.5 51.0 21.25 52.05 21.75 55.2 23.1 55.9 23.35 57.75 24.1 60.25 25.15 60.9 25.45 62.1 26.0 61.25 25.95 60.45 25.95 59.55 25.85 58.6 25.8 58.35 25.8 57.7 25.7 56.7 25.55 55.85 25.45 55.75 25.45 55.35 25.35 55.3 25.35 55.1 25.3 55.05 25.25 53.85 24.9 53.05 24.65 52.95 24.65 52.65 24.55 51.4 24.25 50.25 23.95 49.25 23.7 49.15 23.7 48.0 23.35 46.1 22.8 45.75 22.7 43.35 21.85 41.35 21.1 40.65 20.8 39.15 20.15 37.4 19.4 36.05 18.8 34.5 18.05 33.05 17.3 31.9 16.65 30.05 15.4 27.95 13.8 27.8 13.65 25.95 12.2 24.1 10.5 23.4 9.85 22.3 8.8 21.35 7.9" fill="#ffe67c" fill-rule="evenodd" stroke="none"/>
      <path d="M38.65 -10.2 L38.3 -8.85 38.1 -6.75 38.1 -6.1 38.15 -4.25 38.35 -3.1 38.85 -0.9 39.25 0.2 39.7 1.1 39.85 1.4 41.2 3.55 41.9 4.6 42.7 5.9 44.15 7.8 44.8 8.6 46.9 10.9 47.6 11.65 48.0 11.95 49.35 12.95 50.5 13.8 51.0 14.1 52.95 15.5 54.65 16.6 56.65 17.9 60.6 20.15 62.0 20.9 62.25 21.0 64.85 22.2 65.9 22.7 67.55 23.4 68.55 23.85 69.45 24.15 71.25 24.65 71.85 24.8 73.75 27.05 74.6 28.05 75.8 29.4 76.25 29.95 78.45 32.05 78.5 32.05 79.7 33.05 80.7 33.8 81.75 34.45 81.7 33.25 81.35 30.7 81.05 29.25 80.65 27.65 80.25 26.15 79.8 24.7 79.0 22.4 78.7 21.55 78.95 20.55 79.5 18.15 79.55 17.8 79.75 16.35 79.9 15.15 79.9 15.05 79.85 14.25 79.85 12.7 79.75 11.4 79.65 9.75 79.55 8.6 79.55 8.5 79.4 7.5 79.3 6.6 78.95 4.9 78.95 4.8 78.7 3.75 78.55 3.2 78.45 2.9 77.75 0.8 76.85 -1.25 76.2 -2.75 76.05 -3.05 75.55 -3.9 74.85 -5.1 74.6 -5.4 74.45 -5.65 74.2 -6.1 75.2 -5.7 77.3 -4.5 79.35 -2.75 80.95 -0.7 82.1 1.65 82.25 1.95 82.75 3.45 82.9 4.2 83.45 6.4 84.15 9.35 84.15 9.6 84.3 12.0 84.3 12.25 84.25 12.65 84.25 12.7 84.1 13.55 83.45 16.4 83.45 16.5 82.75 19.0 82.1 21.3 81.85 22.05 81.75 22.4 81.45 23.45 81.5 23.75 81.7 24.45 81.9 25.3 82.2 26.35 82.35 27.05 82.45 27.6 82.75 28.95 82.95 29.95 83.05 30.3 83.3 31.8 83.45 33.3 83.6 34.75 83.7 36.2 83.85 38.65 83.85 39.4 83.8 39.4 82.9 38.8 82.65 38.55 82.3 38.35 81.95 38.05 80.95 37.25 80.45 36.85 79.8 36.3 79.2 35.85 78.0 34.95 77.25 34.2 76.7 33.8 76.1 33.2 75.8 32.9 74.75 31.85 74.1 31.25 73.45 30.6 73.3 30.4 72.9 29.9 72.3 29.15 71.7 28.45 71.25 27.85 71.0 27.6 69.95 27.4 67.85 27.1 67.2 27.05 66.5 26.9 65.75 26.8 64.85 26.7 63.7 26.4 62.45 26.1 62.15 26.0 62.1 26.0 60.9 25.45 60.25 25.15 57.75 24.1 55.9 23.35 55.2 23.1 52.05 21.75 51.0 21.25 49.3 20.5 49.15 20.45 48.0 19.8 46.8 19.2 46.65 19.1 46.0 18.8 45.0 18.35 44.9 18.3 42.65 17.1 42.55 17.05 41.35 16.3 40.05 15.4 35.55 11.1 34.1 9.35 33.35 8.35 Q32.35 7.0 31.5 5.5 L31.25 5.15 Q29.65 2.45 29.25 -0.65 29.15 -1.2 29.2 -1.7 29.2 -2.5 29.5 -3.25 L29.65 -3.6 30.35 -4.75 30.45 -4.95 32.4 -7.0 34.1 -8.3 36.05 -9.35 Q37.3 -10.0 38.65 -10.2 M86.95 4.3 L86.95 4.45 87.1 5.4 87.25 7.65 87.35 9.3 87.35 11.3 87.35 11.65 87.3 12.15 87.25 13.65 87.15 15.05 87.05 15.9 86.8 18.1 86.7 18.8 86.45 20.45 86.2 22.05 85.85 23.85 85.55 25.4 85.4 25.85 85.15 26.9 85.2 27.35 85.35 28.1 85.4 28.65 85.45 28.85 85.8 31.2 86.25 35.1 86.5 38.7 86.5 41.25 86.5 43.4 86.35 46.45 83.85 44.55 82.8 43.8 80.15 41.75 78.8 40.7 77.45 39.55 76.1 38.35 74.75 37.1 73.5 35.85 72.7 34.95 72.35 34.55 71.25 33.4 69.75 31.85 69.6 31.7 68.8 30.95 68.65 30.95 65.6 30.85 62.7 30.8 59.95 30.55 57.1 30.1 54.95 29.8 54.75 29.75 51.25 29.05 46.65 27.35 45.7 26.95 45.25 26.75 Q41.9 25.45 38.6 23.85 L37.4 23.2 34.45 21.5 33.7 21.05 33.4 20.85 30.15 18.25 26.55 14.65 26.45 14.55 22.85 10.15 22.75 10.0 21.35 7.9 22.3 8.8 23.4 9.85 24.1 10.5 25.95 12.2 27.8 13.65 27.95 13.8 30.05 15.4 31.9 16.65 33.05 17.3 34.5 18.05 36.05 18.8 37.4 19.4 39.15 20.15 40.65 20.8 41.35 21.1 43.35 21.85 45.75 22.7 46.1 22.8 48.0 23.35 49.15 23.7 49.25 23.7 50.25 23.95 51.4 24.25 52.65 24.55 52.95 24.65 53.05 24.65 53.85 24.9 55.05 25.25 55.1 25.3 55.3 25.35 55.35 25.35 55.75 25.45 55.85 25.45 56.65 25.65 58.0 25.95 58.75 26.1 59.65 26.25 60.35 26.4 60.9 26.65 61.15 26.65 62.25 26.95 63.25 27.2 65.1 27.5 66.55 27.7 67.55 27.85 70.6 28.35 70.65 28.45 71.4 29.2 72.3 30.3 72.6 30.7 72.85 31.0 73.4 31.65 74.05 32.3 74.6 33.0 75.25 33.6 75.3 33.65 75.9 34.35 77.1 35.45 78.0 36.35 78.95 37.15 79.8 37.85 80.6 38.5 81.75 39.25 82.9 40.0 83.45 40.25 83.8 40.5 84.6 41.15 84.6 40.4 84.6 40.2 84.6 40.1 84.6 40.0 84.6 39.45 84.55 37.0 84.5 35.6 84.4 34.05 84.2 32.55 83.95 31.0 83.8 29.6 83.75 29.5 83.45 27.95 83.2 26.7 83.15 26.65 82.9 25.4 82.65 24.4 82.4 23.45 82.4 23.35 82.3 23.15 83.3 20.5 83.75 18.85 84.1 17.3 84.35 16.5 84.5 16.1 84.55 15.7 84.65 15.05 84.9 14.4 85.45 12.4 85.5 12.25 86.0 10.35 86.4 8.5 86.75 6.65 86.9 4.85 86.95 4.3 M76.2 -2.75 L75.55 -3.9 76.2 -2.75" fill="#ffa972" fill-rule="evenodd" stroke="none"/>
      <path d="M18.25 -3.95 L18.35 -4.8 Q18.65 -7.15 20.05 -9.55 L20.85 -10.8 22.8 -12.75 25.0 -14.45 Q25.65 -14.85 26.3 -15.2 L28.0 -15.95 31.35 -17.15 33.05 -17.65 35.6 -18.35 37.15 -18.35 38.8 -18.35 40.55 -18.35 43.55 -18.15 44.8 -18.0 45.05 -17.95 47.0 -17.55 M55.05 -17.4 L57.65 -17.85 60.5 -17.9 64.05 -17.55 65.15 -17.25 67.45 -16.6 Q69.4 -15.95 71.25 -14.75 L74.75 -12.65 74.75 -12.6 76.25 -11.65 77.3 -10.8 78.75 -9.6 78.85 -9.5 80.8 -7.4 81.7 -6.25 83.9 -3.1 84.5 -2.15 85.65 -0.25 85.8 0.0 86.0 0.65 86.45 2.2 86.7 3.05 86.85 3.65 86.95 4.3 86.95 4.45 87.1 5.4 87.25 7.65 87.35 9.3 87.35 11.3 87.35 11.65 87.3 12.15 87.25 13.65 87.15 15.05 87.05 15.9 86.8 18.1 86.7 18.8 86.45 20.45 86.2 22.05 M45.7 26.95 L45.25 26.75 Q41.9 25.45 38.6 23.85 L37.4 23.2 34.45 21.5 33.7 21.05 33.4 20.85 30.15 18.25 26.55 14.65 26.45 14.55 22.85 10.15 22.75 10.0 21.35 7.9 Q20.25 6.1 19.5 4.2 L19.2 3.4 18.25 0.2 18.0 -1.7 18.25 -3.95" fill="none" stroke="#c25a1a" stroke-linecap="round" stroke-linejoin="round" stroke-width="1.0"/>
      <path d="M47.0 -17.55 L46.65 -17.4 45.25 -16.9 Q44.15 -16.45 43.15 -15.8 L41.4 -14.5 39.75 -12.65 39.6 -12.45 38.85 -10.95 38.65 -10.2 38.3 -8.85 38.1 -6.75 38.1 -6.1 38.15 -4.25 38.35 -3.1 38.85 -0.9 39.25 0.2 39.7 1.1 39.85 1.4 41.2 3.55 41.9 4.6 42.7 5.9 44.15 7.8 44.8 8.6 46.9 10.9 47.6 11.65 48.0 11.95 49.35 12.95 50.5 13.8 51.0 14.1 52.95 15.5 54.65 16.6 56.65 17.9 60.6 20.15 62.0 20.9 62.25 21.0 64.85 22.2 65.9 22.7 67.55 23.4 68.55 23.85 69.45 24.15 71.25 24.65 71.85 24.8 73.75 27.05 74.6 28.05 75.8 29.4 76.25 29.95 78.45 32.05 78.5 32.05 79.7 33.05 80.7 33.8 81.75 34.45 81.7 33.25 81.35 30.7 81.05 29.25 80.65 27.65 80.25 26.15 79.8 24.7 79.0 22.4 78.7 21.55 78.95 20.55 79.5 18.15 79.55 17.8 79.75 16.35 79.9 15.15 79.9 15.05 79.85 14.25 79.85 12.7 79.75 11.4 79.65 9.75 79.55 8.6 79.4 7.5 79.2 6.25 78.95 5.0 78.95 4.8 78.7 3.75 78.55 3.2 78.45 2.9 77.75 0.8 76.85 -1.25 76.2 -2.75 76.05 -3.05 75.55 -3.9 74.6 -5.4 74.45 -5.65 74.2 -6.1 73.35 -7.15 71.85 -8.85 71.05 -9.6 70.9 -9.65 69.6 -10.8 67.8 -12.35 64.85 -14.05 63.9 -14.5 61.2 -15.7 Q58.45 -16.8 55.5 -17.3 L55.05 -17.4 M86.2 22.05 L85.85 23.85 85.55 25.4 85.4 25.85 85.15 26.9 85.2 27.35 85.35 28.1 85.4 28.65 85.45 28.85 85.8 31.2 86.25 35.1 86.5 38.7 86.5 41.25 86.5 43.4 86.35 46.45 83.85 44.55 82.8 43.8 80.15 41.75 78.8 40.7 77.45 39.55 76.1 38.35 74.75 37.1 73.5 35.85 72.7 34.95 72.35 34.55 71.25 33.4 69.75 31.85 69.6 31.7 68.8 30.95 68.65 30.95 65.6 30.85 62.7 30.8 59.95 30.55 57.1 30.1 54.95 29.8 54.75 29.75 51.25 29.05 46.65 27.35 45.7 26.95 M74.6 -5.4 L74.85 -5.1 75.55 -3.9 76.2 -2.75 M78.7 3.75 L78.95 4.8 78.95 4.9 79.3 6.6 79.4 7.5 79.55 8.5 79.55 8.6" fill="none" stroke="#9f3914" stroke-linecap="round" stroke-linejoin="round" stroke-width="1.0"/>
    </g>
  </defs>
</svg>
