<?xml version="1.0" encoding="UTF-8" standalone="no"?>
<svg xmlns:ffdec="https://www.free-decompiler.com/flash" xmlns:xlink="http://www.w3.org/1999/xlink" ffdec:objectType="frame" height="30.0px" width="30.0px" xmlns="http://www.w3.org/2000/svg">
  <g transform="matrix(1.0, 0.0, 0.0, 1.0, 0.0, 0.0)">
    <use ffdec:characterId="1" height="30.0" transform="matrix(1.0, 0.0, 0.0, 1.0, 0.0, 0.0)" width="30.0" xlink:href="#shape0"/>
    <use ffdec:characterId="3" height="282.3" transform="matrix(0.0817, 0.0, 0.0, 0.0817, 2.7502, 4.463)" width="288.05" xlink:href="#sprite0"/>
  </g>
  <defs>
    <g id="shape0" transform="matrix(1.0, 0.0, 0.0, 1.0, 0.0, 0.0)">
      <path d="M0.0 0.0 L30.0 0.0 30.0 30.0 0.0 30.0 0.0 0.0" fill="#33cc66" fill-opacity="0.0" fill-rule="evenodd" stroke="none"/>
      <path d="M0.0 26.7 L0.0 3.3 Q0.0 0.0 3.3 0.0 L26.7 0.0 Q30.0 0.0 30.0 3.3 L30.0 26.7 Q30.0 30.0 26.7 30.0 L3.3 30.0 Q0.0 30.0 0.0 26.7" fill="#666666" fill-rule="evenodd" stroke="none"/>
    </g>
    <g id="sprite0" transform="matrix(1.0, 0.0, 0.0, 1.0, -7.35, -24.65)">
      <use ffdec:characterId="2" height="282.3" transform="matrix(1.0, 0.0, 0.0, 1.0, 7.35, 24.65)" width="288.05" xlink:href="#shape1"/>
    </g>
    <g id="shape1" transform="matrix(1.0, 0.0, 0.0, 1.0, -7.35, -24.65)">
      <path d="M293.9 210.0 L294.9 211.35 195.6 199.75 186.4 205.1 183.4 183.25 Q181.1 168.65 177.65 149.85 173.15 153.3 168.1 157.55 151.7 171.3 135.25 186.1 104.75 213.75 73.95 245.0 L18.8 300.25 7.85 306.45 136.05 129.85 Q158.55 130.3 181.25 130.4 L182.25 130.45 201.75 77.65 277.9 65.65 241.7 95.05 239.15 97.4 Q233.65 102.4 228.5 106.05 203.05 127.15 196.3 132.2 L189.05 140.3 232.0 139.8 259.1 139.35 257.8 145.5 262.1 154.05 236.8 151.75 232.5 151.35 229.15 150.95 185.5 148.7 Q197.7 158.05 215.1 168.6 233.65 179.85 258.1 192.4 L262.8 194.4 293.9 210.0" fill="#feab27" fill-rule="evenodd" stroke="none"/>
      <path d="M293.9 210.0 L262.8 194.4 258.1 192.4 271.0 190.85 Q264.95 180.5 236.8 151.75 L262.1 154.05 293.9 210.0 M259.1 139.35 L232.0 139.8 Q234.6 136.2 236.6 132.7 239.65 128.35 242.5 123.35 255.75 101.4 255.5 89.75 254.3 90.05 241.7 95.05 L277.9 65.65 Q268.3 102.5 259.1 139.35 M18.8 300.25 L73.95 245.0 Q104.75 213.75 135.25 186.1 151.7 171.3 168.1 157.55 173.15 153.3 177.65 149.85 181.1 168.65 183.4 183.25 L186.4 205.1 18.8 300.25" fill="#fcda37" fill-rule="evenodd" stroke="none"/>
      <path d="M258.1 192.4 Q233.65 179.85 215.1 168.6 197.7 158.05 185.5 148.7 L229.15 150.95 232.5 151.35 236.8 151.75 Q264.95 180.5 271.0 190.85 L258.1 192.4 M232.0 139.8 L189.05 140.3 196.3 132.2 Q203.05 127.15 228.5 106.05 233.65 102.4 239.15 97.4 L241.7 95.05 Q254.3 90.05 255.5 89.75 255.75 101.4 242.5 123.35 239.65 128.35 236.6 132.7 234.6 136.2 232.0 139.8" fill="#f9ff85" fill-rule="evenodd" stroke="none"/>
      <path d="M201.75 77.65 L182.25 130.45 181.25 130.4 Q154.55 77.95 128.05 25.15 L201.75 77.65" fill="#ffb320" fill-rule="evenodd" stroke="none"/>
      <path d="M181.25 130.4 Q158.55 130.3 136.05 129.85 L137.25 128.25 Q132.5 76.75 128.05 25.15 154.55 77.95 181.25 130.4" fill="#ee8b13" fill-rule="evenodd" stroke="none"/>
      <path d="M186.4 205.1 L195.6 199.75 294.9 211.35 293.9 210.0 262.1 154.05 257.8 145.5 259.1 139.35 Q268.3 102.5 277.9 65.65 L201.75 77.65 128.05 25.15 Q132.5 76.75 137.25 128.25 L136.05 129.85 7.85 306.45 18.8 300.25 186.4 205.1 Z" fill="none" stroke="#a83c1e" stroke-linecap="round" stroke-linejoin="round" stroke-width="1.0"/>
    </g>
  </defs>
</svg>
