<?xml version="1.0" encoding="UTF-8" standalone="no"?>
<svg xmlns:ffdec="https://www.free-decompiler.com/flash" xmlns:xlink="http://www.w3.org/1999/xlink" ffdec:objectType="frame" height="30.0px" width="30.0px" xmlns="http://www.w3.org/2000/svg">
  <g transform="matrix(1.0, 0.0, 0.0, 1.0, 0.0, 0.0)">
    <use ffdec:characterId="1" height="30.0" transform="matrix(1.0, 0.0, 0.0, 1.0, 0.0, 0.0)" width="30.0" xlink:href="#shape0"/>
    <use ffdec:characterId="3" height="30.0" transform="matrix(1.0, 0.0, 0.0, 1.0, 0.0, 0.0)" width="30.0" xlink:href="#sprite0"/>
    <filter id="filter0">
      <feColorMatrix in="SourceGraphic" result="filterResult0" type="matrix" values="0 0 0 0 1.0,0 0 0 0 1.0,0 0 0 0 0.0,0 0 0 1 0"/>
      <feConvolveMatrix divisor="9.0" in="filterResult0" kernelMatrix="1 1 1 1 1 1 1 1 1" order="3 3" result="filterResult1"/>
      <feComposite in="SourceGraphic" in2="filterResult1" operator="over" result="filterResult2"/>
    </filter>
    <use ffdec:characterId="7" filter="url(#filter0)" height="144.8" transform="matrix(0.1711, 0.0, 0.0, 0.1711, 2.4717, 2.6144)" width="146.25" xlink:href="#sprite1"/>
  </g>
  <defs>
    <g id="shape0" transform="matrix(1.0, 0.0, 0.0, 1.0, 0.0, 0.0)">
      <path d="M0.0 0.0 L30.0 0.0 30.0 30.0 0.0 30.0 0.0 0.0" fill="#33cc66" fill-opacity="0.0" fill-rule="evenodd" stroke="none"/>
    </g>
    <g id="sprite0" transform="matrix(1.0, 0.0, 0.0, 1.0, 0.0, 0.1)">
      <use ffdec:characterId="2" height="30.0" transform="matrix(1.0, 0.0, 0.0, 1.0, 0.0, -0.1)" width="30.0" xlink:href="#shape1"/>
    </g>
    <g id="shape1" transform="matrix(1.0, 0.0, 0.0, 1.0, 0.0, 0.1)">
      <path d="M3.3 -0.1 L26.7 -0.1 Q30.0 -0.1 30.0 3.2 L30.0 26.6 Q30.0 29.9 26.7 29.9 L3.3 29.9 Q0.0 29.9 0.0 26.6 L0.0 3.2 Q0.0 -0.1 3.3 -0.1" fill="#49517a" fill-rule="evenodd" stroke="none"/>
    </g>
    <g id="sprite1" transform="matrix(1.0, 0.0, 0.0, 1.0, 0.75, 0.5)">
      <use ffdec:characterId="4" height="137.25" transform="matrix(1.0, 0.0, 0.0, 1.0, 12.35, -0.5)" width="121.6" xlink:href="#shape2"/>
      <use ffdec:characterId="5" height="33.35" transform="matrix(1.0, 0.0, 0.0, 1.0, 95.7, 110.95)" width="49.8" xlink:href="#shape3"/>
      <use ffdec:characterId="6" height="46.25" transform="matrix(1.0, 0.0, 0.0, 1.0, -0.75, 83.95)" width="64.3" xlink:href="#shape4"/>
    </g>
    <g id="shape2" transform="matrix(1.0, 0.0, 0.0, 1.0, 60.8, 70.55)">
      <path d="M10.0 -66.9 L14.05 -65.55 Q15.15 -64.35 15.15 -63.25 15.15 -61.85 13.25 -60.8 12.6 -60.4 11.65 -60.1 L8.0 -60.7 8.25 -61.45 8.15 -62.0 7.75 -63.0 7.2 -64.0 Q6.35 -62.55 6.0 -61.2 L6.0 -61.05 2.6 -61.6 1.7 -61.7 Q1.8 -63.55 0.55 -64.85 L2.95 -65.6 2.9 -64.5 3.3 -64.3 3.75 -64.25 Q4.35 -64.25 4.55 -64.65 L3.85 -65.8 6.6 -66.4 10.0 -66.9" fill="#ab1437" fill-rule="evenodd" stroke="none"/>
      <path d="M2.95 -65.6 L3.0 -67.15 3.65 -66.1 3.85 -65.8 4.55 -64.65 Q4.35 -64.25 3.75 -64.25 L3.3 -64.3 2.9 -64.5 2.95 -65.6" fill="#dba13e" fill-rule="evenodd" stroke="none"/>
      <path d="M3.85 -65.8 L3.65 -66.1 3.0 -67.15 2.95 -65.6 0.55 -64.85 -1.05 -66.1 Q-5.75 -68.75 -12.1 -68.75 L-14.6 -68.65 -14.75 -68.65 -11.95 -69.15 -0.65 -69.95 7.0 -67.85 10.0 -66.9 6.6 -66.4 3.85 -65.8" fill="#8b0053" fill-rule="evenodd" stroke="none"/>
      <path d="M6.0 -61.05 L6.0 -61.2 Q6.35 -62.55 7.2 -64.0 L7.75 -63.0 8.15 -62.0 8.25 -61.45 8.0 -60.7 7.85 -60.6 7.1 -60.1 6.45 -60.3 Q6.1 -60.6 6.0 -61.05 M7.1 -54.7 L6.7 -54.5 Q6.1 -54.5 6.1 -55.45 6.1 -56.25 6.25 -56.1 7.3 -56.5 7.3 -55.3 L7.1 -54.7" fill="#fed11c" fill-rule="evenodd" stroke="none"/>
      <path d="M11.65 -60.1 L9.2 -59.5 Q8.45 -58.1 8.45 -56.3 L8.55 -55.45 7.2 -54.1 Q5.1 -51.9 3.55 -49.75 1.85 -52.9 1.85 -56.85 L1.95 -59.3 2.2 -60.5 2.6 -61.6 6.0 -61.05 Q6.1 -60.6 6.45 -60.3 L7.1 -60.1 7.85 -60.6 8.0 -60.7 11.65 -60.1 M7.1 -54.7 L7.3 -55.3 Q7.3 -56.5 6.25 -56.1 6.1 -56.25 6.1 -55.45 6.1 -54.5 6.7 -54.5 L7.1 -54.7" fill="#de1827" fill-rule="evenodd" stroke="none"/>
      <path d="M1.7 -61.7 L2.6 -61.6 2.2 -60.5 1.95 -59.3 1.85 -56.85 Q1.85 -52.9 3.55 -49.75 5.2 -46.6 8.6 -44.3 L9.75 -43.55 11.3 -42.7 10.25 -40.0 8.6 -35.75 8.5 -35.45 Q4.2 -36.8 0.8 -39.1 -6.0 -43.7 -6.65 -50.35 L0.45 -58.3 1.55 -60.8 1.7 -61.7 M1.05 -49.65 Q1.8 -49.65 1.8 -50.8 1.8 -51.75 1.3 -52.25 L0.75 -52.55 0.7 -52.55 0.6 -52.45 -0.05 -52.1 -0.05 -52.05 -0.1 -51.4 0.15 -50.15 Q0.45 -49.7 1.05 -49.65" fill="#ba103d" fill-rule="evenodd" stroke="none"/>
      <path d="M1.05 -49.65 Q0.45 -49.7 0.15 -50.15 L-0.1 -51.4 -0.05 -52.05 -0.05 -52.1 0.6 -52.45 0.7 -52.55 0.75 -52.55 1.3 -52.25 Q1.8 -51.75 1.8 -50.8 1.8 -49.65 1.05 -49.65" fill="#fbc436" fill-rule="evenodd" stroke="none"/>
      <path d="M8.55 -55.45 Q9.0 -52.55 12.65 -50.0 L16.5 -47.2 14.85 -46.5 12.15 -45.15 10.35 -44.05 9.75 -43.55 8.6 -44.3 Q5.2 -46.6 3.55 -49.75 5.1 -51.9 7.2 -54.1 L8.55 -55.45" fill="#e11d27" fill-rule="evenodd" stroke="none"/>
      <path d="M16.5 -47.2 L19.15 -45.2 22.85 -43.5 Q23.4 -42.05 25.35 -40.05 L27.75 -37.85 23.25 -37.5 21.5 -37.25 19.8 -38.35 Q14.2 -41.1 11.3 -42.7 L9.75 -43.55 10.35 -44.05 12.15 -45.15 14.85 -46.5 16.5 -47.2" fill="#e83f18" fill-rule="evenodd" stroke="none"/>
      <path d="M21.5 -37.25 L23.25 -37.5 27.75 -37.85 31.85 -34.1 32.85 -31.85 32.9 -31.65 33.65 -29.05 33.35 -28.65 32.95 -27.9 Q33.1 -26.8 34.0 -26.7 L34.2 -22.8 34.2 -22.7 34.2 -21.85 33.6 -22.15 32.75 -22.6 30.0 -24.0 Q28.3 -24.85 26.05 -25.4 L26.15 -26.95 Q26.15 -33.05 22.4 -36.5 L21.5 -37.25 M29.25 -28.2 Q29.25 -27.7 29.65 -27.4 L30.1 -27.3 Q31.05 -27.3 31.05 -28.3 L31.05 -28.35 30.75 -28.95 30.3 -29.3 30.05 -29.4 29.95 -29.35 29.9 -29.3 29.4 -28.8 29.25 -28.2" fill="#f75320" fill-rule="evenodd" stroke="none"/>
      <path d="M22.85 -43.5 L31.35 -39.55 Q35.3 -37.2 37.4 -33.35 L37.8 -32.6 Q39.05 -29.95 39.4 -26.75 L38.25 -28.3 37.35 -29.2 34.75 -31.0 34.75 -31.35 34.65 -31.1 33.65 -29.15 33.65 -29.05 32.9 -31.65 32.85 -31.85 31.85 -34.1 27.75 -37.85 25.35 -40.05 Q23.4 -42.05 22.85 -43.5" fill="#c8241a" fill-rule="evenodd" stroke="none"/>
      <path d="M21.5 -37.25 L22.4 -36.5 Q26.15 -33.05 26.15 -26.95 L26.05 -25.4 25.6 -22.65 22.55 -22.85 21.7 -22.85 Q21.7 -27.4 19.65 -31.35 L18.3 -33.6 Q13.35 -33.95 9.15 -35.25 L8.6 -35.4 8.5 -35.45 8.6 -35.75 10.25 -40.0 11.3 -42.7 Q14.2 -41.1 19.8 -38.35 L21.5 -37.25" fill="#be152c" fill-rule="evenodd" stroke="none"/>
      <path d="M29.25 -28.2 L29.4 -28.8 29.9 -29.3 29.95 -29.35 30.05 -29.4 30.3 -29.3 30.75 -28.95 31.05 -28.35 31.05 -28.3 Q31.05 -27.3 30.1 -27.3 L29.65 -27.4 Q29.25 -27.7 29.25 -28.2" fill="#ffdf33" fill-rule="evenodd" stroke="none"/>
      <path d="M33.65 -29.05 L33.65 -29.15 34.65 -31.1 34.75 -31.35 34.75 -31.0 34.8 -28.85 34.8 -26.95 34.15 -26.7 34.0 -26.7 Q33.1 -26.8 32.95 -27.9 L33.35 -28.65 33.65 -29.05 M11.8 -19.55 L12.25 -19.25 12.6 -18.4 12.4 -17.85 11.95 -17.55 Q11.7 -17.55 11.5 -17.8 11.15 -18.1 11.15 -18.55 L11.2 -18.8 11.45 -19.3 11.75 -19.5 11.8 -19.55 M32.4 -18.65 L32.6 -18.7 32.9 -18.55 33.25 -18.5 Q33.75 -18.3 33.75 -17.65 L33.55 -16.85 Q33.25 -16.3 32.65 -16.3 32.25 -16.3 32.0 -16.6 31.75 -16.95 31.75 -17.4 L32.0 -18.2 32.4 -18.65" fill="#ffcc1b" fill-rule="evenodd" stroke="none"/>
      <path d="M39.4 -26.75 L39.55 -24.15 39.3 -21.6 Q39.05 -19.0 37.9 -17.3 L36.2 -14.95 36.25 -14.65 35.9 -14.25 35.4 -17.35 35.15 -18.85 34.2 -21.05 34.2 -21.85 34.2 -22.7 34.2 -22.8 34.0 -26.7 34.15 -26.7 34.8 -26.95 34.8 -28.85 34.75 -31.0 37.35 -29.2 38.25 -28.3 39.4 -26.75" fill="#ca1a27" fill-rule="evenodd" stroke="none"/>
      <path d="M8.5 -35.45 L8.6 -35.4 9.15 -35.25 8.65 -35.05 Q4.15 -33.4 1.3 -30.4 L-1.45 -32.25 -4.5 -34.35 Q-10.3 -39.25 -10.3 -46.0 L-9.55 -47.0 -6.65 -50.35 Q-6.0 -43.7 0.8 -39.1 4.2 -36.8 8.5 -35.45" fill="#cf1e32" fill-rule="evenodd" stroke="none"/>
      <path d="M9.15 -35.25 Q13.35 -33.95 18.3 -33.6 L19.65 -31.35 Q21.7 -27.4 21.7 -22.85 L21.7 -22.75 17.2 -24.15 Q12.35 -25.5 9.6 -25.5 L8.95 -25.5 6.6 -25.4 6.3 -26.2 5.5 -27.75 1.3 -30.4 Q4.15 -33.4 8.65 -35.05 L9.15 -35.25" fill="#e11919" fill-rule="evenodd" stroke="none"/>
      <path d="M1.3 -30.4 L5.5 -27.75 6.3 -26.2 6.6 -25.4 Q7.5 -23.15 7.5 -20.6 L7.5 -19.75 7.05 -16.65 Q4.1 -18.4 1.0 -18.65 L1.15 -20.85 1.15 -21.05 0.9 -23.45 -0.55 -24.0 -2.15 -24.65 -4.7 -25.8 -1.45 -32.25 1.3 -30.4" fill="#fd5318" fill-rule="evenodd" stroke="none"/>
      <path d="M6.6 -25.4 L8.95 -25.5 9.6 -25.5 Q12.35 -25.5 17.2 -24.15 L21.7 -22.75 Q21.7 -16.8 20.15 -9.9 L19.45 -6.8 20.1 -5.05 19.4 -3.75 19.15 -4.15 17.6 -6.75 16.05 -9.1 Q13.3 -12.3 9.2 -14.8 L6.95 -16.0 6.85 -16.05 7.05 -16.65 7.5 -19.75 7.5 -20.6 Q7.5 -23.15 6.6 -25.4 M11.8 -19.55 L11.75 -19.5 11.45 -19.3 11.2 -18.8 11.15 -18.55 Q11.15 -18.1 11.5 -17.8 11.7 -17.55 11.95 -17.55 L12.4 -17.85 12.6 -18.4 12.25 -19.25 11.8 -19.55" fill="#f52116" fill-rule="evenodd" stroke="none"/>
      <path d="M1.15 -21.05 L1.15 -20.85 1.0 -18.65 0.35 -16.2 Q-4.1 -17.55 -7.85 -18.1 L-10.55 -18.4 -17.1 -18.4 -19.05 -18.3 -25.35 -17.05 -29.45 -15.75 -31.5 -14.95 -30.15 -17.55 -29.65 -18.8 -28.8 -20.9 -28.3 -21.05 -21.6 -22.4 -14.65 -22.9 Q-8.55 -22.9 1.15 -21.05" fill="#bd1234" fill-rule="evenodd" stroke="none"/>
      <path d="M1.15 -21.05 Q-8.55 -22.9 -14.65 -22.9 L-21.6 -22.4 -28.3 -21.05 -28.8 -20.9 -27.65 -24.6 -29.15 -26.7 -26.2 -27.4 -16.85 -28.7 -9.7 -29.2 -8.8 -28.4 Q-7.1 -27.0 -4.7 -25.8 L-2.15 -24.65 -0.55 -24.0 0.9 -23.45 1.15 -21.05" fill="#d9170b" fill-rule="evenodd" stroke="none"/>
      <path d="M7.05 -16.65 L6.85 -16.05 6.25 -14.05 Q5.05 -10.8 2.75 -7.15 L1.9 -5.75 0.55 -6.85 -0.55 -7.85 -3.05 -10.3 -1.35 -12.75 Q-0.3 -14.45 0.35 -16.2 L1.0 -18.65 Q4.1 -18.4 7.05 -16.65" fill="#ff5f11" fill-rule="evenodd" stroke="none"/>
      <path d="M6.85 -16.05 L6.95 -16.0 9.2 -14.8 Q13.3 -12.3 16.05 -9.1 L17.6 -6.75 12.65 -0.2 9.5 4.15 9.25 4.4 7.3 7.15 Q6.55 4.05 6.65 2.6 4.55 2.45 1.65 0.2 L-0.75 -2.1 -0.7 -2.25 1.9 -5.75 2.75 -7.15 Q5.05 -10.8 6.25 -14.05 L6.85 -16.05" fill="#ff4016" fill-rule="evenodd" stroke="none"/>
      <path d="M-3.05 -10.3 L-0.55 -7.85 0.55 -6.85 1.9 -5.75 -0.7 -2.25 -0.75 -2.1 Q-2.25 4.05 -2.35 10.85 L-5.5 11.1 -16.4 10.25 -15.9 9.1 -13.8 7.9 -12.25 7.3 -12.8 5.25 -13.65 3.1 -15.0 3.85 -13.75 0.05 -13.4 -0.95 Q-9.3 -3.65 -5.8 -7.2 L-3.05 -10.3" fill="#fd7119" fill-rule="evenodd" stroke="none"/>
      <path d="M17.6 -6.75 L19.15 -4.15 19.4 -3.75 Q17.7 -0.55 17.15 1.45 16.4 3.85 16.0 7.35 L15.6 12.5 Q12.1 9.2 9.5 4.8 L9.25 4.4 9.5 4.15 12.65 -0.2 17.6 -6.75" fill="#ff4319" fill-rule="evenodd" stroke="none"/>
      <path d="M19.4 -3.75 L20.1 -5.05 20.15 -5.15 21.85 -11.6 23.65 -11.75 Q25.7 -11.75 29.25 -10.3 L31.5 -9.3 30.95 -8.25 28.95 -4.6 27.3 -1.75 26.9 -0.7 26.2 1.05 25.9 1.85 25.1 6.2 25.1 6.25 23.0 5.9 Q21.0 5.9 18.15 6.65 L16.0 7.35 Q16.4 3.85 17.15 1.45 17.7 -0.55 19.4 -3.75" fill="#fea515" fill-rule="evenodd" stroke="none"/>
      <path d="M21.7 -22.85 L22.55 -22.85 25.6 -22.65 Q24.7 -19.2 22.6 -14.95 L21.85 -11.6 20.15 -5.15 20.1 -5.05 19.45 -6.8 20.15 -9.9 Q21.7 -16.8 21.7 -22.75 L21.7 -22.85" fill="#ce1328" fill-rule="evenodd" stroke="none"/>
      <path d="M25.6 -22.65 L26.05 -25.4 Q28.3 -24.85 30.0 -24.0 L32.75 -22.6 33.6 -22.15 34.2 -21.85 34.2 -21.05 Q33.9 -15.2 31.9 -10.3 L31.5 -9.3 29.25 -10.3 Q25.7 -11.75 23.65 -11.75 L21.85 -11.6 22.6 -14.95 Q24.7 -19.2 25.6 -22.65 M32.4 -18.65 L32.0 -18.2 31.75 -17.4 Q31.75 -16.95 32.0 -16.6 32.25 -16.3 32.65 -16.3 33.25 -16.3 33.55 -16.85 L33.75 -17.65 Q33.75 -18.3 33.25 -18.5 L32.9 -18.55 32.6 -18.7 32.4 -18.65" fill="#ff6419" fill-rule="evenodd" stroke="none"/>
      <path d="M34.2 -21.05 L35.15 -18.85 35.4 -17.35 35.9 -14.25 34.7 -12.9 32.5 -10.3 30.95 -8.25 31.5 -9.3 31.9 -10.3 Q33.9 -15.2 34.2 -21.05" fill="#de2022" fill-rule="evenodd" stroke="none"/>
      <path d="M36.25 -14.65 Q36.95 -12.15 38.3 -10.25 34.2 -6.55 30.35 -1.5 27.65 2.0 25.1 6.2 L25.9 1.85 26.2 1.05 26.9 -0.7 27.3 -1.75 28.95 -4.6 30.95 -8.25 32.5 -10.3 34.7 -12.9 35.9 -14.25 36.25 -14.65" fill="#c5182b" fill-rule="evenodd" stroke="none"/>
      <path d="M38.3 -10.25 Q39.95 -7.9 42.6 -6.45 43.8 -5.8 45.5 -5.15 46.45 -3.15 46.7 -0.8 41.25 1.0 35.9 3.95 L32.5 6.0 Q29.8 7.75 27.65 9.65 L27.2 10.0 24.25 12.95 24.85 7.85 25.1 6.25 25.1 6.2 Q27.65 2.0 30.35 -1.5 34.2 -6.55 38.3 -10.25" fill="#ff280d" fill-rule="evenodd" stroke="none"/>
      <path d="M46.7 -0.8 L46.75 0.55 Q46.75 5.95 45.4 11.35 44.55 10.8 42.25 10.3 L39.8 9.85 Q37.3 9.85 34.75 10.6 L33.6 10.95 Q32.7 11.3 31.75 11.75 29.5 12.85 28.25 14.3 L27.8 10.95 27.65 9.65 Q29.8 7.75 32.5 6.0 L35.9 3.95 Q41.25 1.0 46.7 -0.8 M48.5 20.15 L49.75 20.3 52.2 19.85 Q51.9 22.6 50.05 27.2 L48.8 30.15 47.4 32.55 41.5 35.6 40.8 35.95 36.0 38.2 33.4 38.9 31.5 39.4 28.25 40.1 22.6 40.9 23.45 38.55 26.05 30.05 26.05 29.95 27.1 28.65 27.55 28.1 30.0 25.25 Q31.95 26.75 34.75 26.75 L36.55 26.65 41.55 25.4 Q44.5 24.35 46.15 22.95 L45.65 21.65 48.5 20.15" fill="#ff5f1c" fill-rule="evenodd" stroke="none"/>
      <path d="M45.4 11.35 L45.35 11.8 44.85 13.65 Q45.2 19.3 48.5 20.15 L45.65 21.65 Q41.5 23.45 36.95 23.45 L35.95 23.4 Q34.35 23.15 32.85 22.05 L32.8 22.0 Q30.35 20.2 30.35 17.25 30.35 14.5 32.25 12.7 32.95 12.0 33.75 11.65 34.25 11.35 34.9 11.2 L34.75 10.6 Q37.3 9.85 39.8 9.85 L42.25 10.3 Q44.55 10.8 45.4 11.35" fill="#ff2814" fill-rule="evenodd" stroke="none"/>
      <path d="M45.65 21.65 L46.15 22.95 Q44.5 24.35 41.55 25.4 L36.55 26.65 34.75 26.75 Q31.95 26.75 30.0 25.25 29.15 24.55 28.45 23.55 26.7 21.15 26.7 18.2 26.7 16.0 28.25 14.3 29.5 12.85 31.75 11.75 32.7 11.3 33.6 10.95 L34.75 10.6 34.9 11.2 Q34.25 11.35 33.75 11.65 32.95 12.0 32.25 12.7 30.35 14.5 30.35 17.25 30.35 20.2 32.8 22.0 L32.85 22.05 Q34.35 23.15 35.95 23.4 L36.95 23.45 Q41.5 23.45 45.65 21.65" fill="#fb921d" fill-rule="evenodd" stroke="none"/>
      <path d="M52.2 19.85 L53.1 19.45 54.05 19.0 52.95 24.2 51.85 29.3 51.35 31.3 50.4 32.25 48.8 30.15 50.05 27.2 Q51.9 22.6 52.2 19.85" fill="#f94f11" fill-rule="evenodd" stroke="none"/>
      <path d="M54.05 19.0 L56.75 16.9 59.7 13.1 Q60.3 15.25 60.3 18.3 60.3 22.85 57.4 28.75 L56.9 29.9 56.75 29.85 54.6 29.4 53.4 29.2 51.85 29.3 52.95 24.2 54.05 19.0" fill="#d10d3f" fill-rule="evenodd" stroke="none"/>
      <path d="M56.9 29.9 Q54.7 34.0 51.6 36.7 L49.4 38.0 49.25 37.5 48.7 36.05 48.05 34.45 50.4 32.25 51.35 31.3 51.85 29.3 53.4 29.2 54.6 29.4 56.75 29.85 56.9 29.9" fill="#d60d1f" fill-rule="evenodd" stroke="none"/>
      <path d="M41.5 35.6 L47.4 32.55 48.8 30.15 50.4 32.25 48.05 34.45 44.35 37.55 41.8 39.55 41.8 39.1 41.5 35.6" fill="#fe6a22" fill-rule="evenodd" stroke="none"/>
      <path d="M49.4 38.0 Q48.6 38.45 48.0 38.8 45.4 40.35 43.65 41.9 L42.75 42.7 41.4 41.9 41.2 41.8 40.8 41.55 39.9 41.05 41.8 39.55 44.35 37.55 48.05 34.45 48.7 36.05 49.25 37.5 49.4 38.0" fill="#f01b15" fill-rule="evenodd" stroke="none"/>
      <path d="M33.4 38.9 L36.0 38.2 40.8 35.95 41.5 35.6 41.8 39.1 41.8 39.55 39.9 41.05 38.75 41.9 36.45 43.5 36.25 43.55 35.35 41.9 35.2 41.6 33.4 38.9" fill="#fb741a" fill-rule="evenodd" stroke="none"/>
      <path d="M42.75 42.7 L41.95 43.5 41.55 44.0 41.35 44.0 Q39.65 44.1 37.6 45.55 L37.4 45.65 37.2 45.85 36.85 44.8 36.45 43.5 38.75 41.9 39.9 41.05 40.8 41.55 41.2 41.8 41.4 41.9 42.75 42.7" fill="#fe410a" fill-rule="evenodd" stroke="none"/>
      <path d="M41.55 44.0 L40.75 45.05 Q40.6 46.8 40.6 49.0 40.6 51.65 41.75 56.2 L42.8 59.75 36.6 62.3 33.6 63.4 32.1 63.95 31.5 64.15 27.2 65.7 25.7 66.2 25.7 65.5 25.7 65.4 25.8 63.25 26.05 63.25 28.2 62.95 Q29.8 62.55 31.5 61.75 L33.75 60.55 34.1 60.35 34.65 60.0 36.3 58.85 36.55 58.15 36.75 57.45 Q37.15 55.75 37.15 54.35 L36.95 52.55 36.75 51.6 36.0 49.6 35.85 49.3 35.2 47.8 35.4 47.45 Q36.0 46.65 37.2 45.85 L37.4 45.65 37.6 45.55 Q39.65 44.1 41.35 44.0 L41.55 44.0" fill="#f85415" fill-rule="evenodd" stroke="none"/>
      <path d="M30.0 25.25 L27.55 28.1 27.1 28.65 26.05 29.95 25.75 28.65 25.2 26.15 25.05 25.25 Q24.1 20.15 24.1 16.9 L24.25 12.95 27.2 10.0 27.65 9.65 27.8 10.95 28.25 14.3 Q26.7 16.0 26.7 18.2 26.7 21.15 28.45 23.55 29.15 24.55 30.0 25.25" fill="#ff4226" fill-rule="evenodd" stroke="none"/>
      <path d="M24.25 12.95 L24.1 16.9 Q24.1 20.15 25.05 25.25 L22.25 24.45 17.65 23.45 17.6 23.45 Q17.45 25.8 16.75 28.65 L16.65 28.95 16.65 28.65 16.5 27.65 16.15 25.05 16.0 24.05 15.4 18.95 15.6 12.5 16.0 7.35 18.15 6.65 Q21.0 5.9 23.0 5.9 L25.1 6.25 24.85 7.85 24.25 12.95" fill="#fdc115" fill-rule="evenodd" stroke="none"/>
      <path d="M7.3 7.15 L9.25 4.4 9.5 4.8 Q12.1 9.2 15.6 12.5 L15.4 18.95 16.0 24.05 16.15 25.05 16.5 27.65 16.65 28.65 16.65 28.95 16.05 31.2 14.95 28.65 12.1 21.45 9.65 14.9 9.55 14.45 Q8.05 10.05 7.3 7.15" fill="#ff5b1b" fill-rule="evenodd" stroke="none"/>
      <path d="M-0.75 -2.1 L1.65 0.2 Q4.55 2.45 6.65 2.6 6.55 4.05 7.3 7.15 8.05 10.05 9.55 14.45 L9.65 14.9 9.55 14.95 Q6.65 16.6 1.65 20.6 L-1.3 23.1 -1.8 18.65 -2.35 11.85 -2.35 10.85 Q-2.25 4.05 -0.75 -2.1" fill="#fe791a" fill-rule="evenodd" stroke="none"/>
      <path d="M-1.3 23.1 L1.65 20.6 Q6.65 16.6 9.55 14.95 L9.65 14.9 12.1 21.45 14.95 28.65 16.05 31.2 14.75 34.7 13.05 38.7 11.3 41.9 10.35 43.2 10.45 43.35 9.4 43.65 8.95 43.8 9.2 42.55 9.3 42.05 9.35 41.9 10.25 37.55 3.4 34.3 0.7 33.0 -0.45 29.25 -0.55 28.65 -1.3 23.1" fill="#f58f0f" fill-rule="evenodd" stroke="none"/>
      <path d="M26.05 29.95 L26.05 30.05 23.45 38.55 22.6 40.9 22.2 41.9 Q20.75 45.4 19.45 47.35 L18.65 48.5 Q17.05 48.4 15.15 47.4 L14.15 46.9 Q11.75 45.5 10.45 43.35 L10.35 43.2 11.3 41.9 13.05 38.7 14.75 34.7 16.05 31.2 16.65 28.95 16.75 28.65 Q17.45 25.8 17.6 23.45 L17.65 23.45 22.25 24.45 25.05 25.25 25.2 26.15 25.75 28.65 26.05 29.95" fill="#fcf217" fill-rule="evenodd" stroke="none"/>
      <path d="M0.7 33.0 L3.4 34.3 1.55 35.7 0.75 36.25 -6.7 41.9 -7.25 42.35 -7.2 43.2 -8.6 42.7 -9.05 41.9 -11.1 38.1 -7.95 34.4 -7.05 33.4 -4.6 30.2 0.7 33.0" fill="#ffac14" fill-rule="evenodd" stroke="none"/>
      <path d="M-7.2 43.2 L-7.25 42.35 -6.7 41.9 0.75 36.25 1.55 35.7 3.4 34.3 10.25 37.55 9.35 41.9 9.3 42.05 9.2 42.55 8.95 43.8 8.85 44.15 7.35 50.8 7.25 51.2 6.6 53.5 6.3 53.05 Q3.05 53.8 -2.0 55.65 L-6.5 49.95 -6.75 47.9 -7.2 43.2" fill="#fff94b" fill-rule="evenodd" stroke="none"/>
      <path d="M8.95 43.8 L9.4 43.65 10.45 43.35 Q11.75 45.5 14.15 46.9 L15.15 47.4 14.5 49.15 14.1 50.45 13.15 50.35 10.6 50.55 Q9.1 50.75 8.5 51.3 L7.95 51.1 7.35 50.8 8.85 44.15 8.95 43.8" fill="#f37a0f" fill-rule="evenodd" stroke="none"/>
      <path d="M15.15 47.4 Q17.05 48.4 18.65 48.5 L19.45 47.35 22.35 47.95 28.0 48.4 27.1 50.45 26.05 52.95 25.05 53.7 Q23.6 54.65 22.3 54.65 L21.7 54.65 Q20.65 54.45 19.7 53.65 18.6 52.7 18.05 51.3 L17.45 51.4 17.25 51.2 Q16.9 50.9 16.35 50.9 L16.2 50.9 15.85 51.05 15.15 50.7 14.1 50.45 14.5 49.15 15.15 47.4" fill="#fb9517" fill-rule="evenodd" stroke="none"/>
      <path d="M22.6 40.9 L28.25 40.1 31.5 39.4 33.4 38.9 35.2 41.6 35.35 41.9 36.25 43.55 32.4 46.0 31.75 46.35 31.5 46.5 31.3 46.6 30.25 45.8 29.35 45.4 29.55 45.0 29.35 45.4 28.0 48.4 22.35 47.95 19.45 47.35 Q20.75 45.4 22.2 41.9 L22.6 40.9" fill="#c0f81b" fill-rule="evenodd" stroke="none"/>
      <path d="M27.1 50.45 L28.0 48.4 29.35 45.4 30.25 45.8 31.3 46.6 31.5 46.5 31.75 46.35 31.95 47.35 32.25 48.35 32.45 49.1 32.85 50.35 33.25 51.45 Q33.2 52.9 32.6 54.2 L32.25 54.8 31.25 52.95 31.5 52.8 31.75 52.1 31.5 51.55 31.4 51.45 31.05 51.35 30.35 51.5 Q30.15 51.75 30.1 52.1 L28.95 51.55 28.25 51.15 27.1 50.45" fill="#f5b50d" fill-rule="evenodd" stroke="none"/>
      <path d="M32.4 46.0 L36.25 43.55 36.45 43.5 36.85 44.8 37.2 45.85 Q36.0 46.65 35.4 47.45 L35.2 47.8 35.85 49.3 36.0 49.6 36.75 51.6 36.55 51.75 35.8 52.55 35.35 53.1 34.9 52.25 Q33.5 49.75 32.85 47.85 L32.4 46.0" fill="#ff671d" fill-rule="evenodd" stroke="none"/>
      <path d="M31.75 46.35 L32.4 46.0 32.85 47.85 Q33.5 49.75 34.9 52.25 L35.35 53.1 35.65 53.5 34.55 55.9 32.7 58.3 32.55 58.5 31.5 59.4 Q29.1 61.2 26.05 61.2 L25.7 61.2 25.0 61.2 25.6 60.3 26.3 59.25 27.2 58.05 27.1 57.8 27.55 57.8 28.8 57.55 28.85 57.55 29.6 57.35 30.35 56.85 31.5 55.85 32.25 54.8 32.6 54.2 Q33.2 52.9 33.25 51.45 L32.85 50.35 32.45 49.1 32.25 48.35 31.95 47.35 31.75 46.35" fill="#fad31c" fill-rule="evenodd" stroke="none"/>
      <path d="M32.55 58.5 L32.7 58.3 34.55 55.9 35.65 53.5 35.35 53.1 35.8 52.55 36.55 51.75 36.75 51.6 36.95 52.55 37.15 54.35 Q37.15 55.75 36.75 57.45 L36.55 58.15 36.3 58.85 34.65 60.0 34.1 60.35 33.75 60.55 32.55 58.5" fill="#ff4717" fill-rule="evenodd" stroke="none"/>
      <path d="M30.1 52.1 Q30.15 51.75 30.35 51.5 L31.05 51.35 31.4 51.45 31.5 51.55 31.75 52.1 31.5 52.8 31.25 52.95 30.55 53.1 Q30.1 53.1 30.1 52.2 L30.1 52.1" fill="#fff02d" fill-rule="evenodd" stroke="none"/>
      <path d="M26.05 52.95 L27.1 50.45 28.25 51.15 28.95 51.55 30.1 52.1 30.1 52.2 Q30.1 53.1 30.55 53.1 L31.25 52.95 32.25 54.8 31.5 55.85 30.35 56.85 29.6 57.35 28.85 57.55 28.8 57.55 27.55 57.8 27.1 57.8 26.35 55.75 25.7 53.75 26.05 52.95" fill="#fdc22a" fill-rule="evenodd" stroke="none"/>
      <path d="M25.8 63.25 L25.45 63.25 23.75 63.05 23.75 62.9 25.0 61.2 25.7 61.2 26.05 61.2 Q29.1 61.2 31.5 59.4 L32.55 58.5 33.75 60.55 31.5 61.75 Q29.8 62.55 28.2 62.95 L26.05 63.25 25.8 63.25" fill="#ff831f" fill-rule="evenodd" stroke="none"/>
      <path d="M21.7 54.65 L22.3 54.65 Q23.6 54.65 25.05 53.7 L26.05 52.95 25.7 53.75 26.35 55.75 27.1 57.8 27.2 58.05 26.3 59.25 23.15 59.0 22.9 58.0 22.55 56.4 21.65 56.55 21.7 55.85 21.7 54.9 21.7 54.65" fill="#fddb0a" fill-rule="evenodd" stroke="none"/>
      <path d="M17.45 51.4 L18.05 51.3 Q18.6 52.7 19.7 53.65 20.65 54.45 21.7 54.65 L21.7 54.9 21.7 55.85 21.65 56.55 17.55 57.15 16.65 55.15 15.05 55.25 14.95 55.25 15.6 53.65 16.3 53.8 16.95 53.7 Q17.65 53.4 17.7 52.3 L17.45 51.4" fill="#ffd01f" fill-rule="evenodd" stroke="none"/>
      <path d="M26.3 59.25 L25.6 60.3 25.0 61.2 23.75 62.9 23.7 61.2 22.25 61.25 21.1 61.35 21.15 59.9 21.15 58.2 13.9 60.6 11.55 61.4 9.55 58.15 6.6 53.5 7.25 51.2 8.55 53.1 9.6 54.55 10.2 55.45 11.2 55.45 14.95 55.25 15.05 55.25 16.65 55.15 17.55 57.15 21.65 56.55 22.55 56.4 22.9 58.0 23.15 59.0 26.3 59.25" fill="#e66718" fill-rule="evenodd" stroke="none"/>
      <path d="M15.85 51.05 L16.2 50.9 16.35 50.9 Q16.9 50.9 17.25 51.2 L17.45 51.4 17.7 52.3 Q17.65 53.4 16.95 53.7 L16.3 53.8 15.6 53.65 15.3 53.3 Q15.15 52.95 15.15 52.4 15.15 51.65 15.5 51.3 15.65 51.1 15.85 51.05" fill="#fbf545" fill-rule="evenodd" stroke="none"/>
      <path d="M14.1 50.45 L15.15 50.7 15.85 51.05 Q15.65 51.1 15.5 51.3 15.15 51.65 15.15 52.4 15.15 52.95 15.3 53.3 L15.6 53.65 14.95 55.25 11.2 55.45 10.2 55.45 9.6 54.55 8.55 53.1 7.25 51.2 7.35 50.8 7.95 51.1 8.5 51.3 Q9.1 50.75 10.6 50.55 L13.15 50.35 14.1 50.45" fill="#ffdb0e" fill-rule="evenodd" stroke="none"/>
      <path d="M-42.9 -38.65 Q-42.5 -37.4 -41.15 -36.35 -39.45 -34.95 -37.0 -34.55 L-35.0 -34.35 -38.05 -31.9 -39.9 -32.05 -40.75 -32.0 -40.9 -32.3 Q-44.1 -32.6 -44.1 -35.1 -44.1 -36.1 -43.35 -37.75 L-42.9 -38.65" fill="#bb2234" fill-rule="evenodd" stroke="none"/>
      <path d="M-28.8 -20.9 L-29.65 -18.8 -30.15 -17.55 -31.5 -14.95 -32.2 -14.65 -37.3 -11.85 -38.25 -14.1 -38.55 -14.65 Q-34.95 -17.6 -33.5 -19.4 -32.85 -20.25 -32.65 -20.85 L-32.5 -21.35 -32.3 -22.9 Q-32.3 -24.1 -32.8 -25.3 L-33.2 -26.1 Q-34.2 -27.9 -35.95 -28.7 L-39.95 -29.0 -45.65 -28.55 Q-49.4 -29.8 -49.4 -32.25 -49.4 -34.95 -47.1 -37.1 -45.4 -38.65 -43.05 -39.4 L-42.9 -38.65 -43.35 -37.75 Q-44.1 -36.1 -44.1 -35.1 -44.1 -32.6 -40.9 -32.3 L-40.75 -32.0 -39.9 -32.05 -38.05 -31.9 Q-34.75 -31.5 -32.0 -29.45 -30.5 -28.35 -29.15 -26.7 L-27.65 -24.6 -28.8 -20.9" fill="#be0c30" fill-rule="evenodd" stroke="none"/>
      <path d="M-54.2 -2.7 L-48.65 -6.8 -39.35 -14.0 -38.55 -14.65 -38.25 -14.1 -37.3 -11.85 -38.4 -11.15 Q-43.2 -7.8 -46.25 -3.85 L-47.1 -2.7 -48.4 -0.65 Q-49.25 0.8 -49.55 2.2 L-49.8 3.6 Q-53.25 2.35 -55.5 0.9 L-55.0 -0.65 -54.2 -2.7" fill="#c91039" fill-rule="evenodd" stroke="none"/>
      <path d="M-48.75 17.65 L-52.8 16.55 Q-60.05 13.85 -60.25 9.05 -60.45 4.25 -59.4 2.2 -58.65 0.75 -57.35 -0.4 L-56.25 -1.2 -54.2 -2.7 -55.0 -0.65 -55.5 0.9 Q-56.85 5.05 -56.85 7.6 -56.05 9.3 -54.05 10.5 -50.8 12.4 -49.5 12.5 L-48.8 17.2 -48.75 17.65" fill="#a50737" fill-rule="evenodd" stroke="none"/>
      <path d="M-44.6 41.95 L-44.6 41.9 -46.6 38.65 -45.75 35.5 Q-44.95 32.15 -44.55 28.65 -44.15 25.2 -44.15 21.6 -44.15 19.7 -44.3 18.2 L-45.75 18.05 -48.75 17.65 -48.8 17.2 -49.5 12.5 -49.95 6.9 -49.8 3.6 -49.55 2.2 Q-49.25 0.8 -48.4 -0.65 L-47.1 -2.7 -46.85 -2.2 -45.2 1.95 -46.35 4.7 Q-46.95 6.65 -46.95 8.75 L-46.65 12.35 Q-45.95 16.2 -43.6 18.1 -42.75 18.85 -40.45 19.7 L-41.55 26.75 -41.6 26.9 -41.85 28.65 -43.45 37.35 -44.55 41.9 -44.6 41.95" fill="#c4102b" fill-rule="evenodd" stroke="none"/>
      <path d="M-47.1 -2.7 L-46.25 -3.85 Q-43.2 -7.8 -38.4 -11.15 L-37.3 -11.85 -32.2 -14.65 Q-34.65 -12.6 -36.55 -9.85 L-38.4 -6.85 -39.75 -4.1 -41.9 -2.25 Q-44.0 -0.2 -45.2 1.95 L-46.85 -2.2 -47.1 -2.7" fill="#b01534" fill-rule="evenodd" stroke="none"/>
      <path d="M-9.7 -29.2 L-16.85 -28.7 -26.2 -27.4 -29.15 -26.7 Q-30.5 -28.35 -32.0 -29.45 -34.75 -31.5 -38.05 -31.9 L-35.0 -34.35 -30.3 -34.1 -19.6 -34.85 -13.55 -35.7 -13.1 -34.3 Q-12.05 -31.4 -9.7 -29.2 M-26.2 -30.25 L-27.2 -30.5 -27.5 -30.4 Q-27.85 -30.1 -27.85 -29.4 L-27.7 -28.65 -27.2 -28.05 -26.65 -27.8 -26.45 -27.8 Q-25.4 -27.8 -25.4 -28.9 -25.4 -29.75 -26.2 -30.25" fill="#d40f20" fill-rule="evenodd" stroke="none"/>
      <path d="M-10.3 -46.0 Q-10.3 -39.25 -4.5 -34.35 L-1.45 -32.25 -4.7 -25.8 Q-7.1 -27.0 -8.8 -28.4 L-9.7 -29.2 Q-12.05 -31.4 -13.1 -34.3 L-13.55 -35.7 -12.0 -35.95 Q-13.15 -41.9 -10.3 -46.0" fill="#e2534f" fill-rule="evenodd" stroke="none"/>
      <path d="M-26.2 -30.25 Q-25.4 -29.75 -25.4 -28.9 -25.4 -27.8 -26.45 -27.8 L-26.65 -27.8 -27.2 -28.05 -27.7 -28.65 -27.85 -29.4 Q-27.85 -30.1 -27.5 -30.4 L-27.2 -30.5 -26.2 -30.25" fill="#f5c527" fill-rule="evenodd" stroke="none"/>
      <path d="M-29.45 -15.75 L-25.35 -17.05 -19.05 -18.3 -17.1 -18.4 -10.55 -18.4 -7.85 -18.1 -13.8 -16.45 -17.6 -15.05 Q-21.0 -13.65 -23.6 -11.95 L-25.1 -10.95 -25.65 -10.55 -26.1 -10.3 -27.4 -12.35 -29.45 -15.75" fill="#fd3212" fill-rule="evenodd" stroke="none"/>
      <path d="M-31.5 -14.95 L-29.45 -15.75 -27.4 -12.35 -26.1 -10.3 -30.6 -6.5 -31.0 -6.15 Q-32.7 -4.4 -33.25 -3.25 L-33.65 -3.25 -34.45 -3.25 -38.85 -2.25 -40.7 -1.6 -39.75 -4.1 -38.4 -6.85 -36.55 -9.85 Q-34.65 -12.6 -32.2 -14.65 L-31.5 -14.95" fill="#ea361f" fill-rule="evenodd" stroke="none"/>
      <path d="M-7.85 -18.1 Q-4.1 -17.55 0.35 -16.2 -0.3 -14.45 -1.35 -12.75 -3.75 -13.2 -7.9 -12.65 -13.4 -11.9 -18.7 -9.55 -23.15 -7.55 -26.45 -5.65 L-31.75 -2.05 Q-31.55 -4.0 -30.75 -6.1 L-30.6 -6.5 -26.1 -10.3 -25.65 -10.55 -25.1 -10.95 -23.6 -11.95 Q-21.0 -13.65 -17.6 -15.05 L-13.8 -16.45 -7.85 -18.1" fill="#e81d19" fill-rule="evenodd" stroke="none"/>
      <path d="M-30.6 -6.5 L-30.75 -6.1 Q-31.55 -4.0 -31.75 -2.05 L-31.95 0.05 Q-31.95 5.25 -30.3 8.55 L-31.25 8.45 -33.85 8.9 -34.65 9.15 Q-34.3 10.65 -34.3 13.7 L-34.3 13.8 Q-35.75 11.5 -39.35 6.5 L-39.7 6.05 -41.75 2.75 Q-41.45 0.6 -40.7 -1.6 L-38.85 -2.25 -34.45 -3.25 -33.65 -3.25 -33.25 -3.25 Q-32.7 -4.4 -31.0 -6.15 L-30.6 -6.5" fill="#f92f17" fill-rule="evenodd" stroke="none"/>
      <path d="M-31.75 -2.05 L-26.45 -5.65 Q-25.6 -1.0 -22.35 7.85 L-20.6 12.3 -20.8 13.4 -20.15 13.6 -21.05 15.9 -21.6 17.3 -23.35 20.95 -25.15 24.35 -26.9 27.1 -28.1 28.65 -29.05 29.6 -29.25 31.9 Q-29.25 34.95 -28.15 37.1 -30.65 35.2 -31.55 31.85 L-32.1 28.65 -32.15 27.45 -29.65 24.65 -29.15 24.0 -28.95 23.85 Q-27.8 22.25 -26.6 18.6 -25.6 15.55 -25.45 14.4 L-26.65 13.3 Q-29.2 10.7 -30.25 8.65 L-30.3 8.55 Q-31.95 5.25 -31.95 0.05 L-31.75 -2.05" fill="#ff2a26" fill-rule="evenodd" stroke="none"/>
      <path d="M-26.45 -5.65 Q-23.15 -7.55 -18.7 -9.55 -13.4 -11.9 -7.9 -12.65 -3.75 -13.2 -1.35 -12.75 L-3.05 -10.3 -5.8 -7.2 Q-9.3 -3.65 -13.4 -0.95 L-13.75 0.05 -15.0 3.85 Q-17.7 5.45 -19.25 7.0 L-19.95 9.2 -20.0 9.5 -20.6 12.3 -22.35 7.85 Q-25.6 -1.0 -26.45 -5.65" fill="#fd301b" fill-rule="evenodd" stroke="none"/>
      <path d="M-45.2 1.95 Q-44.0 -0.2 -41.9 -2.25 L-39.75 -4.1 -40.7 -1.6 Q-41.45 0.6 -41.75 2.75 L-39.7 6.05 -39.35 6.5 Q-35.75 11.5 -34.3 13.8 L-34.7 18.75 -34.75 19.05 Q-35.35 22.7 -36.55 25.35 L-37.05 26.4 -41.55 26.75 -40.45 19.7 Q-42.75 18.85 -43.6 18.1 -45.95 16.2 -46.65 12.35 L-46.95 8.75 Q-46.95 6.65 -46.35 4.7 L-45.2 1.95" fill="#cd1829" fill-rule="evenodd" stroke="none"/>
      <path d="M0.7 33.0 L-4.6 30.2 -5.55 29.7 -7.5 28.65 -18.55 22.45 -17.45 18.7 -17.2 17.65 -17.45 16.35 -17.4 15.0 -17.4 14.85 Q-17.2 12.5 -16.55 10.55 L-16.4 10.25 -5.5 11.1 -2.35 10.85 -2.35 11.85 -1.8 18.65 -1.3 23.1 -0.55 28.65 -0.45 29.25 0.7 33.0" fill="#fe5417" fill-rule="evenodd" stroke="none"/>
      <path d="M-15.0 3.85 L-13.65 3.1 -12.8 5.25 -12.25 7.3 -13.8 7.9 -15.9 9.1 -16.4 10.25 -16.55 10.55 Q-17.2 12.5 -17.4 14.85 L-17.45 14.8 Q-19.25 14.0 -20.0 13.7 L-20.15 13.6 -20.8 13.4 -20.6 12.3 -20.0 9.5 -19.95 9.2 -19.25 7.0 Q-17.7 5.45 -15.0 3.85" fill="#fe5f0e" fill-rule="evenodd" stroke="none"/>
      <path d="M-17.4 14.85 L-17.4 15.0 -17.45 16.35 -17.2 17.65 -17.45 18.7 -18.55 22.45 -18.65 22.8 -19.1 24.15 Q-20.1 26.8 -21.15 28.65 L-25.15 24.35 -23.35 20.95 -21.6 17.3 -21.05 15.9 -20.15 13.6 -20.0 13.7 Q-19.25 14.0 -17.45 14.8 L-17.4 14.85" fill="#f27612" fill-rule="evenodd" stroke="none"/>
      <path d="M-4.6 30.2 L-7.05 33.4 -7.95 34.4 -11.1 38.1 -12.6 35.5 -14.05 33.0 -15.15 31.0 -16.5 28.65 -19.1 24.15 -18.65 22.8 -18.55 22.45 -7.5 28.65 -5.55 29.7 -4.6 30.2" fill="#ffe00b" fill-rule="evenodd" stroke="none"/>
      <path d="M-34.3 13.8 L-34.3 13.7 Q-34.3 10.65 -34.65 9.15 L-33.85 8.9 -31.25 8.45 -30.3 8.55 -30.25 8.65 Q-29.2 10.7 -26.65 13.3 L-25.45 14.4 Q-25.6 15.55 -26.6 18.6 -27.8 22.25 -28.95 23.85 L-30.65 22.1 Q-32.85 19.9 -34.75 19.05 L-34.7 18.75 -34.3 13.8" fill="#ff3211" fill-rule="evenodd" stroke="none"/>
      <path d="M-28.95 23.85 L-29.15 24.0 -29.65 24.65 -32.15 27.45 -32.1 28.65 -31.55 31.85 -33.4 34.4 -35.3 37.9 Q-36.35 35.85 -37.05 33.25 L-36.75 30.45 -36.5 27.15 -36.5 26.3 -36.55 25.35 Q-35.35 22.7 -34.75 19.05 -32.85 19.9 -30.65 22.1 L-28.95 23.85" fill="#fe3b1f" fill-rule="evenodd" stroke="none"/>
      <path d="M-26.9 27.1 L-25.15 24.35 -21.15 28.65 -23.0 31.0 -23.45 31.45 -23.1 32.3 -25.8 32.5 -26.35 29.9 -25.9 28.65 -25.8 28.5 -26.25 27.95 -26.9 27.1" fill="#ff9223" fill-rule="evenodd" stroke="none"/>
      <path d="M-28.15 37.1 Q-29.25 34.95 -29.25 31.9 L-29.05 29.6 -28.1 28.65 -26.9 27.1 -26.25 27.95 -25.8 28.5 -25.9 28.65 -26.35 29.9 -26.65 33.2 -26.25 36.3 -26.05 37.35 -26.75 36.65 -26.25 38.05 -26.15 38.35 -25.35 40.25 Q-27.15 39.05 -28.1 37.2 L-28.15 37.1" fill="#ffaa1d" fill-rule="evenodd" stroke="none"/>
      <path d="M-26.35 29.9 L-25.8 32.5 -25.15 34.4 Q-24.15 37.15 -23.35 38.2 L-24.2 38.85 -25.85 37.5 -26.05 37.35 -26.25 36.3 -26.65 33.2 -26.35 29.9" fill="#f68914" fill-rule="evenodd" stroke="none"/>
      <path d="M-14.05 33.0 L-12.6 35.5 -15.05 36.75 -15.1 36.75 -18.1 38.15 -19.4 37.2 -20.0 36.65 Q-22.15 34.65 -23.1 32.3 L-23.45 31.45 -23.0 31.0 Q-20.5 31.95 -16.85 32.55 L-15.2 32.8 -14.05 33.0" fill="#f77712" fill-rule="evenodd" stroke="none"/>
      <path d="M-25.8 32.5 L-23.1 32.3 Q-22.15 34.65 -20.0 36.65 L-21.85 37.45 -23.35 38.2 Q-24.15 37.15 -25.15 34.4 L-25.8 32.5" fill="#fdad16" fill-rule="evenodd" stroke="none"/>
      <path d="M-19.1 24.15 L-16.5 28.65 -15.15 31.0 -14.05 33.0 -15.2 32.8 -16.85 32.55 Q-20.5 31.95 -23.0 31.0 L-21.15 28.65 Q-20.1 26.8 -19.1 24.15" fill="#ff5b10" fill-rule="evenodd" stroke="none"/>
      <path d="M-36.55 25.35 L-36.5 26.3 -36.5 27.15 -36.75 30.45 -37.05 33.25 Q-36.35 35.85 -35.3 37.9 L-35.9 39.1 -36.4 38.75 -36.4 38.65 -36.2 37.75 Q-36.2 36.75 -36.75 36.3 L-37.35 36.05 -37.7 36.2 -37.9 36.35 -38.1 36.5 -38.2 36.95 Q-40.0 34.8 -40.9 32.4 L-38.4 28.65 -37.8 27.7 -37.05 26.4 -36.55 25.35" fill="#da131a" fill-rule="evenodd" stroke="none"/>
      <path d="M-11.8 50.55 L-15.85 53.55 -21.95 58.5 -26.1 56.75 Q-34.75 52.8 -40.5 46.9 L-42.3 41.9 -43.45 37.35 -41.85 28.65 -41.6 26.9 -41.55 26.75 -37.05 26.4 -37.8 27.7 -38.4 28.65 -40.9 32.4 Q-40.0 34.8 -38.2 36.95 L-38.3 37.55 -38.0 38.9 -37.3 39.4 Q-36.75 39.4 -36.4 38.75 L-35.9 39.1 -35.3 37.9 -34.35 39.55 -33.7 40.4 -31.7 41.2 -28.45 41.55 -23.95 41.05 -21.75 41.9 -19.95 42.35 -20.1 41.9 -20.3 41.55 -19.3 41.9 -17.95 42.6 Q-16.55 43.55 -15.25 44.9 L-14.95 45.25 Q-12.95 47.55 -11.8 50.55" fill="#fe3c18" fill-rule="evenodd" stroke="none"/>
      <path d="M-38.2 36.95 L-38.1 36.5 -37.9 36.35 -37.7 36.2 -37.35 36.05 -36.75 36.3 Q-36.2 36.75 -36.2 37.75 L-36.4 38.65 -36.4 38.75 Q-36.75 39.4 -37.3 39.4 L-38.0 38.9 -38.3 37.55 -38.2 36.95" fill="#ffe430" fill-rule="evenodd" stroke="none"/>
      <path d="M-31.55 31.85 Q-30.65 35.2 -28.15 37.1 L-28.1 37.2 Q-27.15 39.05 -25.35 40.25 L-23.95 41.05 -28.45 41.55 -31.7 41.2 -33.7 40.4 -34.35 39.55 -35.3 37.9 -33.4 34.4 -31.55 31.85" fill="#f94012" fill-rule="evenodd" stroke="none"/>
      <path d="M-26.05 37.35 L-25.85 37.5 -24.2 38.85 -23.35 38.2 -21.85 37.45 -20.0 36.65 -19.4 37.2 -20.6 37.6 Q-21.6 38.05 -22.15 38.45 L-22.4 38.6 -22.55 39.25 -22.75 40.0 -21.8 40.3 -20.85 40.55 -20.75 40.55 -20.3 41.55 -20.1 41.9 -19.95 42.35 -21.75 41.9 -23.95 41.05 -25.35 40.25 -26.15 38.35 -26.25 38.05 -26.75 36.65 -26.05 37.35" fill="#fff712" fill-rule="evenodd" stroke="none"/>
      <path d="M-20.3 41.55 L-20.75 40.55 -20.85 40.55 -21.8 40.3 -22.75 40.0 -22.55 39.25 -22.4 38.6 -22.15 38.45 Q-21.6 38.05 -20.6 37.6 L-19.4 37.2 -18.1 38.15 -17.15 38.8 -15.15 39.95 -12.95 41.0 -13.4 41.9 -14.95 45.25 -15.25 44.9 Q-16.55 43.55 -17.95 42.6 L-19.3 41.9 -20.3 41.55" fill="#f9ba1f" fill-rule="evenodd" stroke="none"/>
      <path d="M-11.1 38.1 L-9.05 41.9 -8.6 42.7 -10.7 41.9 -12.6 41.1 -12.95 41.0 -15.15 39.95 -17.15 38.8 -18.1 38.15 -15.1 36.75 -15.05 36.75 -12.6 35.5 -11.1 38.1" fill="#ff8c15" fill-rule="evenodd" stroke="none"/>
      <path d="M-8.6 42.7 L-7.2 43.2 -6.75 47.9 -6.5 49.95 -8.1 47.95 -11.8 50.55 Q-12.95 47.55 -14.95 45.25 L-13.4 41.9 -12.95 41.0 -12.6 41.1 -10.7 41.9 -8.6 42.7" fill="#ffcb30" fill-rule="evenodd" stroke="none"/>
      <path d="M-55.5 0.9 Q-53.25 2.35 -49.8 3.6 L-49.95 6.9 -49.5 12.5 Q-50.8 12.4 -54.05 10.5 -56.05 9.3 -56.85 7.6 -56.85 5.05 -55.5 0.9" fill="#d10b2c" fill-rule="evenodd" stroke="none"/>
      <path d="M10.0 -66.9 L14.05 -65.55 Q15.15 -64.35 15.15 -63.25 15.15 -61.85 13.25 -60.8 12.6 -60.4 11.65 -60.1 L9.2 -59.5 Q8.45 -58.1 8.45 -56.3 L8.55 -55.45 Q9.0 -52.55 12.65 -50.0 L16.5 -47.2 19.15 -45.2 M10.0 -66.9 L7.0 -67.85 -0.65 -69.95 M-14.75 -68.65 L-14.6 -68.65 -12.1 -68.75 Q-5.75 -68.75 -1.05 -66.1 L0.55 -64.85 Q1.8 -63.55 1.7 -61.7 L1.55 -60.8 0.45 -58.3" fill="none" stroke="#4b092d" stroke-linecap="round" stroke-linejoin="round" stroke-width="1.0"/>
      <path d="M19.15 -45.2 L22.85 -43.5 31.35 -39.55 Q35.3 -37.2 37.4 -33.35 L37.8 -32.6 Q39.05 -29.95 39.4 -26.75 L39.55 -24.15 39.3 -21.6 Q39.05 -19.0 37.9 -17.3" fill="none" stroke="#300a45" stroke-linecap="round" stroke-linejoin="round" stroke-width="1.0"/>
      <path d="M37.9 -17.3 L36.2 -14.95 36.25 -14.65 Q36.95 -12.15 38.3 -10.25 39.95 -7.9 42.6 -6.45 43.8 -5.8 45.5 -5.15 46.45 -3.15 46.7 -0.8 L46.75 0.55 Q46.75 5.95 45.4 11.35 L45.35 11.8 44.85 13.65 M-44.3 18.2 L-45.75 18.05 -48.75 17.65 -52.8 16.55 Q-60.05 13.85 -60.25 9.05 -60.45 4.25 -59.4 2.2 -58.65 0.75 -57.35 -0.4 L-56.25 -1.2 M-32.5 -21.35 L-32.3 -22.9 Q-32.3 -24.1 -32.8 -25.3 L-33.2 -26.1 Q-34.2 -27.9 -35.95 -28.7" fill="none" stroke="#430032" stroke-linecap="round" stroke-linejoin="round" stroke-width="1.0"/>
      <path d="M44.85 13.65 Q45.2 19.3 48.5 20.15 L49.75 20.3 52.2 19.85 53.1 19.45 54.05 19.0 56.75 16.9 59.7 13.1" fill="none" stroke="#5d0a3c" stroke-linecap="round" stroke-linejoin="round" stroke-width="1.0"/>
      <path d="M59.7 13.1 Q60.3 15.25 60.3 18.3 60.3 22.85 57.4 28.75 L56.9 29.9 Q54.7 34.0 51.6 36.7 L49.4 38.0 Q48.6 38.45 48.0 38.8 45.4 40.35 43.65 41.9 L42.75 42.7 41.95 43.5 41.55 44.0 40.75 45.05" fill="none" stroke="#3d061b" stroke-linecap="round" stroke-linejoin="round" stroke-width="1.0"/>
      <path d="M25.8 63.25 L25.45 63.25 23.75 63.05 23.7 63.0 23.45 62.95 M37.2 45.85 L37.4 45.65 37.6 45.55 Q39.65 44.1 41.35 44.0 L41.55 44.0 M37.2 45.85 Q36.0 46.65 35.4 47.45 L35.2 47.8 35.85 49.3 36.0 49.6 36.75 51.6 36.95 52.55 37.15 54.35 Q37.15 55.75 36.75 57.45 L36.55 58.15 36.3 58.85 34.65 60.0 34.1 60.35 33.75 60.55 31.5 61.75 Q29.8 62.55 28.2 62.95 L26.05 63.25 25.8 63.25" fill="none" stroke="#f4251f" stroke-linecap="round" stroke-linejoin="round" stroke-width="1.0"/>
      <path d="M40.75 45.05 Q40.6 46.8 40.6 49.0 40.6 51.65 41.75 56.2 L42.8 59.75 36.6 62.3 33.6 63.4 32.1 63.95 31.5 64.15 27.2 65.7 25.7 66.2 M-21.95 58.5 L-26.1 56.75 Q-34.75 52.8 -40.5 46.9 L-44.6 41.95 -44.6 41.9 -46.6 38.65 -45.75 35.5 Q-44.95 32.15 -44.55 28.65 -44.15 25.2 -44.15 21.6 -44.15 19.7 -44.3 18.2" fill="none" stroke="#6b012a" stroke-linecap="round" stroke-linejoin="round" stroke-width="1.0"/>
      <path d="M26.05 52.95 L27.1 50.45 28.0 48.4 29.35 45.4 29.55 45.0 M27.1 57.8 L27.2 58.05 26.3 59.25 25.6 60.3 25.0 61.2 23.75 62.9 23.7 63.0 M26.05 52.95 L25.7 53.75 26.35 55.75 27.1 57.8" fill="none" stroke="#a61103" stroke-linecap="round" stroke-linejoin="round" stroke-width="1.0"/>
      <path d="M23.75 62.9 L23.7 61.2 22.25 61.25 21.1 61.35 21.15 59.9 21.15 58.2 13.9 60.6 11.55 61.4 9.55 58.15 6.6 53.5 6.3 53.05 Q3.05 53.8 -2.0 55.65 L-6.5 49.95 -8.1 47.95 M23.75 63.05 L23.75 62.9" fill="none" stroke="#f40b29" stroke-linecap="round" stroke-linejoin="round" stroke-width="1.0"/>
      <path d="M-0.65 -69.95 L-11.95 -69.15 -14.75 -68.65" fill="none" stroke="#370d3f" stroke-linecap="round" stroke-linejoin="round" stroke-width="1.0"/>
      <path d="M-35.95 -28.7 L-39.95 -29.0 -45.65 -28.55 Q-49.4 -29.8 -49.4 -32.25 -49.4 -34.95 -47.1 -37.1 -45.4 -38.65 -43.05 -39.4 L-42.9 -38.65 Q-42.5 -37.4 -41.15 -36.35 -39.45 -34.95 -37.0 -34.55" fill="none" stroke="#400130" stroke-linecap="round" stroke-linejoin="round" stroke-width="1.0"/>
      <path d="M-31.5 -14.95 L-29.45 -15.75 -25.35 -17.05 -19.05 -18.3 -17.1 -18.4 -10.55 -18.4 -7.85 -18.1 M-49.8 3.6 L-49.55 2.2 Q-49.25 0.8 -48.4 -0.65 L-47.1 -2.7 -46.25 -3.85 Q-43.2 -7.8 -38.4 -11.15 L-37.3 -11.85 -32.2 -14.65 -31.5 -14.95 M-49.5 12.5 L-49.95 6.9 -49.8 3.6 M-49.5 12.5 L-48.8 17.2 -48.75 17.65" fill="none" stroke="#8c0911" stroke-linecap="round" stroke-linejoin="round" stroke-width="1.0"/>
      <path d="M-56.25 -1.2 L-54.2 -2.7 -48.65 -6.8 -39.35 -14.0 -38.55 -14.65 Q-34.95 -17.6 -33.5 -19.4 -32.85 -20.25 -32.65 -20.85 L-32.5 -21.35" fill="none" stroke="#400219" stroke-linecap="round" stroke-linejoin="round" stroke-width="1.0"/>
      <path d="M-37.0 -34.55 L-35.0 -34.35 -30.3 -34.1 -19.6 -34.85 -13.55 -35.7 -12.0 -35.95" fill="none" stroke="#4b0035" stroke-linecap="round" stroke-linejoin="round" stroke-width="1.0"/>
      <path d="M-6.65 -50.35 L-9.55 -47.0 -10.3 -46.0 Q-13.15 -41.9 -12.0 -35.95 M-6.65 -50.35 L0.45 -58.3" fill="none" stroke="#3f0038" stroke-linecap="round" stroke-linejoin="round" stroke-width="1.0"/>
      <path d="M-8.1 47.95 L-11.8 50.55 -15.85 53.55 -21.95 58.5" fill="none" stroke="#c90513" stroke-linecap="round" stroke-linejoin="round" stroke-width="1.0"/>
    </g>
    <g id="shape3" transform="matrix(1.0, 0.0, 0.0, 1.0, 24.9, 16.65)">
      <path d="M10.15 -12.85 L10.7 -14.35 10.8 -14.55 11.45 -16.05 13.5 -15.95 15.1 -15.8 Q14.75 -14.75 14.75 -14.0 L14.8 -13.75 16.65 -13.9 19.9 -13.4 18.5 -12.25 18.75 -11.65 15.55 -11.5 15.45 -12.45 11.95 -12.75 10.15 -12.85" fill="#f00b0e" fill-rule="evenodd" stroke="none"/>
      <path d="M11.45 -16.05 L10.8 -14.55 10.7 -14.35 10.15 -12.85 7.95 -12.95 3.45 -12.65 -1.35 -11.6 -2.65 -11.15 -3.2 -11.95 -3.45 -12.35 -4.55 -14.05 Q2.0 -16.15 10.1 -16.15 L11.45 -16.05" fill="#f30a0e" fill-rule="evenodd" stroke="none"/>
      <path d="M10.15 -12.85 L11.95 -12.75 15.45 -12.45 15.55 -11.5 15.55 -11.0 Q15.55 -9.85 14.8 -8.3 L14.5 -7.65 14.2 -7.75 12.9 -8.05 8.65 -8.7 4.65 -8.4 4.65 -8.8 Q4.65 -10.25 4.0 -11.7 L3.45 -12.65 7.95 -12.95 10.15 -12.85" fill="#e82c0f" fill-rule="evenodd" stroke="none"/>
      <path d="M19.9 -13.4 L16.65 -13.9 14.8 -13.75 14.75 -14.0 Q14.75 -14.75 15.1 -15.8 L17.65 -15.5 18.1 -15.35 Q20.95 -14.4 22.4 -12.95 24.4 -10.85 24.4 -8.15 24.4 -5.4 21.45 -2.2 18.7 0.7 15.0 2.4 L15.9 0.0 17.0 -4.0 Q16.65 -4.9 15.65 -5.7 L13.9 -6.7 14.2 -7.75 14.5 -7.65 14.8 -8.3 16.75 -7.35 18.35 -6.25 18.5 -5.2 18.75 -2.25 20.2 -3.4 21.05 -5.3 22.3 -8.9 21.55 -11.1 20.65 -13.1 19.9 -13.4 M17.3 -2.8 L17.0 -4.0 17.3 -2.8" fill="#e10215" fill-rule="evenodd" stroke="none"/>
      <path d="M13.9 -6.7 L10.55 -7.25 Q7.65 -7.25 4.35 -6.25 L3.9 -6.15 2.25 -5.5 1.7 -7.85 4.65 -8.4 8.65 -8.7 12.9 -8.05 14.2 -7.75 13.9 -6.7" fill="#b31315" fill-rule="evenodd" stroke="none"/>
      <path d="M2.25 -5.5 Q-0.6 -4.35 -0.7 -2.6 L0.05 -2.5 -1.2 -1.8 -2.9 -0.8 -4.15 -1.85 -3.75 -2.65 -2.55 -4.95 Q-1.6 -6.65 -0.85 -7.1 L-0.6 -7.2 1.7 -7.85 2.25 -5.5 M-4.6 -0.7 L-3.75 -0.2 -5.05 0.65 -4.6 -0.7" fill="#de120b" fill-rule="evenodd" stroke="none"/>
      <path d="M-2.65 -11.15 L-1.35 -11.6 3.45 -12.65 4.0 -11.7 Q4.65 -10.25 4.65 -8.8 L4.65 -8.4 1.7 -7.85 -0.6 -7.2 -0.85 -7.1 Q-1.6 -6.65 -2.55 -4.95 L-2.75 -5.45 -2.95 -6.05 -3.5 -9.0 -3.75 -10.7 -2.65 -11.15" fill="#fe6610" fill-rule="evenodd" stroke="none"/>
      <path d="M0.05 -2.5 Q2.6 -2.25 4.45 -0.3 L2.7 0.35 Q1.35 0.9 0.5 1.4 L0.4 1.5 Q-0.2 1.1 -0.9 0.65 L-1.85 0.05 -2.9 -0.8 -1.2 -1.8 0.05 -2.5" fill="#ca0c18" fill-rule="evenodd" stroke="none"/>
      <path d="M15.55 -11.5 L18.75 -11.65 18.85 -11.3 19.45 -8.45 19.6 -7.6 18.5 -5.2 18.35 -6.25 16.75 -7.35 14.8 -8.3 Q15.55 -9.85 15.55 -11.0 L15.55 -11.5" fill="#c30f2c" fill-rule="evenodd" stroke="none"/>
      <path d="M18.75 -11.65 L18.5 -12.25 19.9 -13.4 20.65 -13.1 21.55 -11.1 22.3 -8.9 21.05 -5.3 20.2 -3.4 18.75 -2.25 18.5 -5.2 19.6 -7.6 19.45 -8.45 18.85 -11.3 18.75 -11.65" fill="#b41357" fill-rule="evenodd" stroke="none"/>
      <path d="M4.45 -0.3 L5.35 0.7 Q6.65 2.55 7.15 4.5 6.05 6.8 3.6 9.3 L-0.75 12.9 -0.95 11.65 -1.1 10.25 1.55 8.25 1.75 6.5 1.85 5.2 1.55 5.3 -0.85 5.75 -3.2 6.2 -3.05 5.4 -1.55 5.05 1.35 4.35 1.95 4.15 2.0 4.2 Q2.35 4.5 2.75 4.5 L3.4 4.35 3.65 3.8 3.65 3.65 3.65 3.25 3.55 3.1 3.45 2.85 2.9 2.3 1.9 2.05 1.75 2.15 0.55 1.55 0.45 1.5 0.4 1.5 0.5 1.4 Q1.35 0.9 2.7 0.35 L4.45 -0.3" fill="#ab0b25" fill-rule="evenodd" stroke="none"/>
      <path d="M1.75 2.15 L1.9 2.05 2.9 2.3 3.45 2.85 3.55 3.1 3.65 3.25 3.65 3.65 3.65 3.8 3.4 4.35 2.75 4.5 Q2.35 4.5 2.0 4.2 L1.95 4.15 1.6 3.6 1.5 3.15 1.45 2.8 1.5 2.35 1.75 2.15" fill="#fff835" fill-rule="evenodd" stroke="none"/>
      <path d="M1.75 2.15 L1.5 2.35 1.45 2.8 1.5 3.15 0.9 2.75 0.15 2.25 -0.25 2.0 -1.5 1.2 -2.05 0.85 -3.75 -0.2 -4.6 -0.7 -4.15 -1.85 -2.9 -0.8 -1.85 0.05 -0.9 0.65 Q-0.2 1.1 0.4 1.5 L0.45 1.5 0.55 1.55 1.75 2.15" fill="#fd602b" fill-rule="evenodd" stroke="none"/>
      <path d="M-2.05 0.85 L-1.5 1.2 -0.25 2.0 0.15 2.25 0.9 2.75 1.5 3.15 1.6 3.6 1.2 3.7 -1.6 4.4 -2.9 4.75 -2.05 0.85" fill="#e7130f" fill-rule="evenodd" stroke="none"/>
      <path d="M1.95 4.15 L1.35 4.35 -1.55 5.05 -3.05 5.4 -3.65 5.55 -7.8 6.75 -7.95 6.8 -8.45 7.0 -8.15 6.65 -7.75 6.1 -7.65 6.0 -2.9 4.75 -1.6 4.4 1.2 3.7 1.6 3.6 1.95 4.15" fill="#f2421d" fill-rule="evenodd" stroke="none"/>
      <path d="M-3.05 5.4 L-3.2 6.2 -0.85 5.75 1.55 5.3 1.85 5.2 1.75 6.5 1.55 8.25 -1.1 10.25 -4.15 12.1 -4.35 11.75 -5.45 10.0 -7.8 6.95 -7.95 6.8 -7.8 6.75 -3.65 5.55 -3.05 5.4" fill="#eb1412" fill-rule="evenodd" stroke="none"/>
      <path d="M-11.0 -7.25 Q-11.8 -8.7 -11.9 -10.8 L-9.2 -12.2 -7.25 -10.45 -6.8 -10.05 -5.75 -9.15 -6.55 -7.45 -8.65 -7.2 -9.8 -7.15 -11.0 -7.25" fill="#f57313" fill-rule="evenodd" stroke="none"/>
      <path d="M-13.55 2.65 L-12.5 1.8 -10.65 0.25 -10.45 -1.4 -10.15 -4.1 -10.2 -5.95 -10.95 -7.15 -11.0 -7.25 -9.8 -7.15 -8.65 -7.2 -6.55 -7.45 -7.5 -4.75 -8.9 0.05 -12.4 2.1 -12.9 2.3 -13.55 2.65" fill="#fd591c" fill-rule="evenodd" stroke="none"/>
      <path d="M-4.55 -14.05 L-3.45 -12.35 -3.2 -11.95 -2.65 -11.15 -3.75 -10.7 -5.5 -9.75 -5.75 -9.15 -6.8 -10.05 -7.25 -10.45 -9.2 -12.2 Q-7.0 -13.3 -4.55 -14.05" fill="#fa3a09" fill-rule="evenodd" stroke="none"/>
      <path d="M-4.15 -1.85 L-4.6 -0.7 -5.05 0.65 -5.5 2.75 -6.25 3.65 -6.15 3.45 -5.9 2.65 -6.5 3.4 -6.9 3.85 -8.15 -0.45 -8.9 0.05 -7.5 -4.75 -6.55 -7.45 -5.75 -9.15 -5.5 -9.75 -3.75 -10.7 -3.5 -9.0 -2.95 -6.05 -2.75 -5.45 -2.55 -4.95 -3.75 -2.65 -4.15 -1.85 M-5.55 -4.95 Q-4.8 -4.95 -4.8 -6.2 -4.8 -7.3 -5.4 -7.1 -6.0 -6.95 -6.0 -5.75 -6.0 -4.95 -5.55 -4.95" fill="#ff9422" fill-rule="evenodd" stroke="none"/>
      <path d="M-5.55 -4.95 Q-6.0 -4.95 -6.0 -5.75 -6.0 -6.95 -5.4 -7.1 -4.8 -7.3 -4.8 -6.2 -4.8 -4.95 -5.55 -4.95" fill="#ffdc24" fill-rule="evenodd" stroke="none"/>
      <path d="M-3.75 -0.2 L-2.05 0.85 -2.9 4.75 -7.65 6.0 -7.55 5.75 -6.7 4.55 -6.3 3.7 -6.25 3.65 -5.5 2.75 -5.05 0.65 -3.75 -0.2" fill="#fa181a" fill-rule="evenodd" stroke="none"/>
      <path d="M-9.65 2.5 L-8.8 2.65 Q-8.6 2.8 -8.55 3.25 L-8.55 3.4 Q-8.55 3.85 -8.9 4.3 -9.25 4.75 -9.65 4.75 -10.35 4.75 -10.35 3.65 L-10.25 3.15 Q-10.1 2.65 -9.65 2.5" fill="#fff420" fill-rule="evenodd" stroke="none"/>
      <path d="M-8.9 0.05 L-8.15 -0.45 -6.9 3.85 -7.6 4.45 -9.5 5.75 -9.6 5.8 -11.0 6.6 -12.4 2.1 -8.9 0.05 M-9.65 2.5 Q-10.1 2.65 -10.25 3.15 L-10.35 3.65 Q-10.35 4.75 -9.65 4.75 -9.25 4.75 -8.9 4.3 -8.55 3.85 -8.55 3.4 L-8.55 3.25 Q-8.6 2.8 -8.8 2.65 L-9.65 2.5" fill="#ff8916" fill-rule="evenodd" stroke="none"/>
      <path d="M-7.65 6.0 L-7.75 6.1 -8.15 6.65 -8.45 7.0 -10.25 8.9 -11.0 9.5 Q-12.15 9.45 -12.55 8.9 L-12.8 8.0 -12.75 7.65 -12.6 7.15 -11.0 6.6 -9.6 5.8 -9.5 5.75 -7.6 4.45 -6.9 3.85 -6.5 3.4 -5.9 2.65 -6.15 3.45 -6.25 3.65 -6.3 3.7 -6.7 4.55 -7.55 5.75 -7.65 6.0" fill="#ebf822" fill-rule="evenodd" stroke="none"/>
      <path d="M-8.45 7.0 L-7.95 6.8 -7.8 6.95 -5.45 10.0 -4.35 11.75 -5.15 12.1 -5.9 12.4 -8.15 13.0 -11.35 13.55 -12.3 11.2 -13.25 9.2 -12.55 8.9 Q-12.15 9.45 -11.0 9.5 L-10.25 8.9 -8.45 7.0" fill="#fa2811" fill-rule="evenodd" stroke="none"/>
      <path d="M-0.75 12.9 L-3.0 14.2 -4.75 15.0 -5.2 15.15 -11.5 16.15 -11.0 14.9 -11.35 13.55 -8.15 13.0 -5.9 12.4 -5.15 12.1 -4.35 11.75 -4.15 12.1 -1.1 10.25 -0.95 11.65 -0.75 12.9" fill="#e21013" fill-rule="evenodd" stroke="none"/>
      <path d="M-16.45 4.35 Q-15.4 3.85 -14.4 3.2 L-13.55 2.65 -12.9 2.3 -12.4 2.1 -11.0 6.6 -12.6 7.15 -12.75 7.65 -12.95 7.15 -13.6 6.05 -14.2 5.35 Q-15.85 6.0 -16.9 6.4 L-17.9 6.8 -18.8 6.25 -17.0 4.8 -16.5 4.4 -16.45 4.35" fill="#f7970d" fill-rule="evenodd" stroke="none"/>
      <path d="M-16.9 6.4 Q-15.85 6.0 -14.2 5.35 L-13.6 6.05 -12.95 7.15 -12.75 7.65 -12.8 8.0 -12.55 8.9 -13.25 9.2 -14.55 9.6 -17.25 10.15 Q-16.95 8.35 -16.9 6.4" fill="#ffc217" fill-rule="evenodd" stroke="none"/>
      <path d="M-22.0 12.5 Q-23.65 10.7 -24.4 8.0 L-23.25 5.6 -22.05 5.65 Q-19.25 5.65 -16.45 4.35 L-16.5 4.4 -17.0 4.8 -18.8 6.25 -17.9 6.8 -16.9 6.4 Q-16.95 8.35 -17.25 10.15 L-17.3 10.15 -17.9 10.15 -21.0 9.85 -21.85 11.95 -22.0 12.5" fill="#fcd025" fill-rule="evenodd" stroke="none"/>
      <path d="M-14.65 16.1 Q-17.2 15.75 -19.55 14.45 L-18.65 13.7 Q-17.55 14.6 -15.65 15.6 L-14.65 16.1 M-17.25 10.15 L-14.55 9.6 -13.25 9.2 -12.3 11.2 -11.35 13.55 -12.9 13.6 -17.55 13.25 -17.9 10.15 -17.3 10.15 -17.25 10.15" fill="#f1530a" fill-rule="evenodd" stroke="none"/>
      <path d="M-11.5 16.15 L-12.85 16.2 -14.65 16.1 -15.65 15.6 Q-17.55 14.6 -18.65 13.7 L-19.4 12.95 -18.8 12.8 Q-18.2 13.1 -17.8 13.2 L-17.55 13.25 -12.9 13.6 -11.35 13.55 -11.0 14.9 -11.5 16.15" fill="#ed241a" fill-rule="evenodd" stroke="none"/>
      <path d="M-19.55 14.45 L-19.95 14.2 Q-21.15 13.5 -22.0 12.5 L-21.85 11.95 -21.0 9.85 -17.9 10.15 -17.55 13.25 -17.8 13.2 Q-18.2 13.1 -18.8 12.8 L-19.4 12.95 -18.65 13.7 -19.55 14.45" fill="#ff5e1a" fill-rule="evenodd" stroke="none"/>
      <path d="M15.1 -15.8 L13.5 -15.95 11.45 -16.05 10.1 -16.15 Q2.0 -16.15 -4.55 -14.05 -7.0 -13.3 -9.2 -12.2 L-11.9 -10.8 Q-11.8 -8.7 -11.0 -7.25 L-10.95 -7.15 -10.2 -5.95 M15.1 -15.8 L17.65 -15.5 18.1 -15.35" fill="none" stroke="#c52702" stroke-linecap="round" stroke-linejoin="round" stroke-width="1.0"/>
      <path d="M18.1 -15.35 Q20.95 -14.4 22.4 -12.95 24.4 -10.85 24.4 -8.15 24.4 -5.4 21.45 -2.2 18.7 0.7 15.0 2.4 L15.9 0.0 17.0 -4.0 Q16.65 -4.9 15.65 -5.7 L13.9 -6.7 10.55 -7.25 Q7.65 -7.25 4.35 -6.25 L3.9 -6.15 2.25 -5.5 Q-0.6 -4.35 -0.7 -2.6 L0.05 -2.5 Q2.6 -2.25 4.45 -0.3 L5.35 0.7 Q6.65 2.55 7.15 4.5 6.05 6.8 3.6 9.3 L-0.75 12.9 -3.0 14.2 -4.75 15.0 M17.0 -4.0 L17.3 -2.8" fill="none" stroke="#620027" stroke-linecap="round" stroke-linejoin="round" stroke-width="1.0"/>
      <path d="M-24.4 8.0 L-23.25 5.6 -22.05 5.65 Q-19.25 5.65 -16.45 4.35 -15.4 3.85 -14.4 3.2 L-13.55 2.65 -12.5 1.8 -10.65 0.25 -10.45 -1.4 -10.15 -4.1 -10.2 -5.95" fill="none" stroke="#e32f0c" stroke-linecap="round" stroke-linejoin="round" stroke-width="1.0"/>
      <path d="M-4.75 15.0 L-5.2 15.15 -11.5 16.15 -12.85 16.2 -14.65 16.1 Q-17.2 15.75 -19.55 14.45 L-19.95 14.2 Q-21.15 13.5 -22.0 12.5 -23.65 10.7 -24.4 8.0" fill="none" stroke="#821d11" stroke-linecap="round" stroke-linejoin="round" stroke-width="1.0"/>
    </g>
    <g id="shape4" transform="matrix(1.0, 0.0, 0.0, 1.0, 32.15, 23.1)">
      <path d="M-6.55 -17.0 L-5.6 -16.8 -4.4 -16.5 Q-4.4 -15.95 -4.0 -15.5 L-3.95 -15.45 Q-3.5 -15.0 -3.0 -15.0 -2.5 -15.0 -2.2 -15.35 -2.0 -15.55 -1.95 -15.85 -1.1 -14.65 -1.1 -13.3 L-1.1 -13.1 Q-1.2 -10.55 -3.85 -5.7 L-4.45 -4.65 -5.05 -5.8 -6.5 -7.5 -8.8 -9.35 -7.55 -13.55 -6.85 -15.95 -6.55 -17.0 M2.45 -8.45 L2.3 -8.5 2.7 -11.35 2.65 -13.1 Q2.25 -17.6 -0.1 -19.7 -2.1 -21.5 -3.85 -22.35 1.6 -22.2 3.7 -20.0 5.05 -18.55 5.05 -16.45 5.05 -15.05 4.25 -13.0 L3.15 -10.55 2.45 -8.45" fill="#ea1a1a" fill-rule="evenodd" stroke="none"/>
      <path d="M1.25 -13.15 L0.7 -13.15 -1.1 -13.1 -1.1 -13.3 Q-1.1 -14.65 -1.95 -15.85 L-1.95 -16.05 -2.4 -16.85 -2.65 -17.1 -3.65 -17.6 -3.9 -17.5 -4.05 -17.25 -4.15 -17.1 -4.4 -16.55 -4.4 -16.5 -5.6 -16.8 -6.55 -17.0 -8.4 -17.25 -9.15 -17.2 Q-9.05 -18.05 -8.55 -18.85 L-8.25 -19.15 -7.4 -22.15 -5.15 -22.3 Q-2.45 -21.2 -0.75 -18.6 0.85 -16.1 1.25 -13.15" fill="#f73d14" fill-rule="evenodd" stroke="none"/>
      <path d="M-1.1 -13.1 L0.7 -13.15 1.25 -13.15 1.35 -11.35 1.05 -9.5 1.0 -9.05 1.7 -8.65 2.3 -8.5 2.45 -8.45 2.3 -7.95 2.25 -7.8 2.15 -7.5 2.05 -7.25 1.65 -5.1 1.5 -4.0 1.5 -3.95 0.65 -5.5 -0.55 -3.65 Q-1.45 -2.05 -1.7 -0.4 L-2.5 -0.15 -4.45 0.55 -4.25 -0.1 -3.55 -1.8 -3.0 -2.7 -3.75 -2.15 -3.85 -2.05 -4.5 -1.1 -5.05 0.05 -5.0 -1.4 -4.95 -1.5 -4.55 -4.45 -4.45 -4.65 -3.85 -5.7 Q-1.2 -10.55 -1.1 -13.1" fill="#f53818" fill-rule="evenodd" stroke="none"/>
      <path d="M1.25 -13.15 Q0.85 -16.1 -0.75 -18.6 -2.45 -21.2 -5.15 -22.3 L-4.5 -22.35 -3.85 -22.35 Q-2.1 -21.5 -0.1 -19.7 2.25 -17.6 2.65 -13.1 L2.7 -11.35 2.3 -8.5 1.7 -8.65 1.0 -9.05 1.05 -9.5 1.35 -11.35 1.25 -13.15" fill="#ff6221" fill-rule="evenodd" stroke="none"/>
      <path d="M-1.7 -0.4 Q-1.45 -2.05 -0.55 -3.65 L0.65 -5.5 1.5 -3.95 Q1.7 -1.55 2.6 0.05 L2.85 0.45 0.5 2.4 -1.5 4.05 Q-1.85 2.75 -1.85 1.2 L-1.7 -0.4" fill="#e41c26" fill-rule="evenodd" stroke="none"/>
      <path d="M-27.55 -1.2 L-27.9 -1.4 Q-31.4 -3.1 -31.4 -7.25 -31.4 -10.1 -29.8 -12.45 L-28.05 -14.35 -27.35 -14.85 Q-27.5 -13.35 -27.05 -12.3 -26.95 -9.95 -26.15 -8.25 L-25.7 -7.5 -25.35 -7.0 -26.75 -3.55 -27.55 -1.2" fill="#89004d" fill-rule="evenodd" stroke="none"/>
      <path d="M-27.35 -14.85 L-26.7 -15.3 Q-24.65 -16.75 -22.0 -17.9 L-21.05 -18.3 -18.05 -15.45 -21.25 -14.1 Q-24.8 -12.45 -26.25 -11.2 L-26.5 -11.45 -27.05 -12.3 Q-27.5 -13.35 -27.35 -14.85" fill="#c51c3b" fill-rule="evenodd" stroke="none"/>
      <path d="M-25.35 -7.0 L-25.7 -7.5 -26.15 -8.25 Q-26.95 -9.95 -27.05 -12.3 L-26.5 -11.45 -26.25 -11.2 Q-24.8 -12.45 -21.25 -14.1 L-18.05 -15.45 -16.65 -15.9 -16.85 -14.95 -17.1 -13.05 -17.3 -10.55 -17.2 -9.85 -17.15 -9.45 -17.0 -8.55 -19.15 -7.6 Q-21.6 -6.45 -22.7 -5.2 -24.3 -5.65 -25.35 -7.0" fill="#b60a3a" fill-rule="evenodd" stroke="none"/>
      <path d="M-14.3 -5.7 Q-16.45 -5.5 -18.3 -4.8 -21.65 -3.5 -21.65 -1.0 L-21.4 0.05 Q-25.25 -0.15 -27.55 -1.2 L-26.75 -3.55 -25.35 -7.0 Q-24.3 -5.65 -22.7 -5.2 -21.6 -6.45 -19.15 -7.6 L-17.0 -8.55 -17.15 -9.45 -17.2 -9.85 Q-16.05 -10.5 -13.65 -10.55 L-13.8 -9.45 -14.3 -5.7" fill="#ac014d" fill-rule="evenodd" stroke="none"/>
      <path d="M-7.4 -22.15 L-8.25 -19.15 -8.55 -18.85 Q-9.05 -18.05 -9.15 -17.2 -12.85 -17.1 -16.65 -15.9 L-18.05 -15.45 -21.05 -18.3 -15.1 -20.4 -13.0 -21.1 -12.6 -21.15 -9.5 -21.95 -7.4 -22.15" fill="#e82930" fill-rule="evenodd" stroke="none"/>
      <path d="M-9.15 -17.2 L-8.4 -17.25 -6.55 -17.0 -6.85 -15.95 -7.55 -13.55 -8.8 -9.35 -9.55 -9.7 -10.1 -10.0 -10.4 -10.05 -13.5 -10.55 -13.65 -10.55 Q-16.05 -10.5 -17.2 -9.85 L-17.3 -10.55 -17.1 -13.05 -16.85 -14.95 -16.65 -15.9 Q-12.85 -17.1 -9.15 -17.2" fill="#da101e" fill-rule="evenodd" stroke="none"/>
      <path d="M-4.4 -16.5 L-4.4 -16.55 -4.15 -17.1 -4.05 -17.25 -3.9 -17.5 -3.65 -17.6 -2.65 -17.1 -2.4 -16.85 -1.95 -16.05 -1.95 -15.85 Q-2.0 -15.55 -2.2 -15.35 -2.5 -15.0 -3.0 -15.0 -3.5 -15.0 -3.95 -15.45 L-4.0 -15.5 Q-4.4 -15.95 -4.4 -16.5" fill="#fff12d" fill-rule="evenodd" stroke="none"/>
      <path d="M-9.55 -9.7 Q-9.2 -9.45 -9.2 -9.1 L-9.4 -8.55 Q-9.75 -8.05 -10.65 -8.05 -11.25 -8.05 -11.75 -8.35 -12.4 -8.65 -12.4 -9.2 L-12.15 -9.75 -12.0 -9.85 Q-11.7 -10.1 -11.2 -10.15 L-11.05 -10.15 -10.4 -10.05 -10.1 -10.0 -9.55 -9.7" fill="#fbe927" fill-rule="evenodd" stroke="none"/>
      <path d="M-4.45 -4.65 L-4.55 -4.45 -4.95 -1.5 -5.05 -1.45 -5.85 -1.7 -7.3 -2.0 -8.15 -1.9 -8.1 -2.5 Q-8.1 -3.7 -8.6 -4.95 L-8.7 -5.15 Q-10.25 -5.8 -12.6 -5.8 L-14.3 -5.7 -13.8 -9.45 -13.65 -10.55 -13.5 -10.55 -10.4 -10.05 -11.05 -10.15 -11.2 -10.15 Q-11.7 -10.1 -12.0 -9.85 L-12.15 -9.75 -12.4 -9.2 Q-12.4 -8.65 -11.75 -8.35 -11.25 -8.05 -10.65 -8.05 -9.75 -8.05 -9.4 -8.55 L-9.2 -9.1 Q-9.2 -9.45 -9.55 -9.7 L-8.8 -9.35 -6.5 -7.5 -5.05 -5.8 -4.45 -4.65" fill="#c80c3e" fill-rule="evenodd" stroke="none"/>
      <path d="M-13.2 8.45 L-13.15 7.25 Q-12.95 4.8 -11.65 2.5 -10.5 0.25 -8.9 -1.1 L-8.15 -1.65 -8.15 -1.9 -7.3 -2.0 -5.85 -1.7 -5.05 -1.45 -6.35 -0.35 Q-8.55 1.7 -9.95 4.6 L-10.15 6.8 -13.2 8.45" fill="#a70b33" fill-rule="evenodd" stroke="none"/>
      <path d="M-5.0 -1.4 L-5.05 0.05 -5.05 0.15 -5.3 0.85 Q-5.75 2.45 -5.75 4.2 L-5.7 5.0 -5.5 5.65 -5.5 5.95 -5.5 6.1 Q-5.65 6.9 -7.05 7.65 L-6.9 8.65 -8.05 7.95 -9.45 6.5 -10.15 6.8 -9.95 4.6 Q-8.55 1.7 -6.35 -0.35 L-5.05 -1.45 -5.0 -1.4" fill="#d31e2f" fill-rule="evenodd" stroke="none"/>
      <path d="M-5.05 0.05 L-4.5 -1.1 -3.85 -2.05 -3.75 -2.15 -3.0 -2.7 -3.55 -1.8 -4.25 -0.1 -4.45 0.55 Q-4.85 2.05 -4.85 3.05 L-4.8 4.5 -4.75 4.7 -4.75 4.85 -4.5 6.35 -4.3 7.05 -4.95 7.6 -5.05 7.65 -5.7 8.65 -5.8 9.0 -5.7 9.1 -5.1 9.6 -5.6 10.5 Q-6.6 9.75 -6.9 8.65 L-7.05 7.65 Q-5.65 6.9 -5.5 6.1 L-5.5 5.95 -5.5 5.65 -5.7 5.0 -5.75 4.2 Q-5.75 2.45 -5.3 0.85 L-5.05 0.15 -5.05 0.05" fill="#ff611b" fill-rule="evenodd" stroke="none"/>
      <path d="M-4.45 0.55 L-2.5 -0.15 -1.7 -0.4 -1.85 1.2 Q-1.85 2.75 -1.5 4.05 -0.9 6.55 1.0 7.9 L0.65 10.65 -0.45 10.85 -0.6 10.85 -2.8 10.6 -4.7 9.9 -5.1 9.6 -5.7 9.1 -5.8 9.0 -5.7 8.65 -5.05 7.65 -4.95 7.6 -4.3 7.05 -4.5 6.35 -4.75 4.85 -4.75 4.7 -4.8 4.5 -4.85 3.05 Q-4.85 2.05 -4.45 0.55" fill="#f7381c" fill-rule="evenodd" stroke="none"/>
      <path d="M-3.0 11.6 L-3.4 12.9 -4.05 14.4 -4.5 15.15 -4.8 15.45 -5.9 18.3 -6.95 17.65 Q-8.85 16.25 -9.6 13.3 -10.2 11.2 -10.2 8.3 L-10.15 6.8 -9.45 6.5 -8.05 7.95 -6.9 8.65 Q-6.6 9.75 -5.6 10.5 L-4.25 11.2 -3.0 11.6" fill="#c41236" fill-rule="evenodd" stroke="none"/>
      <path d="M0.65 10.65 L0.85 10.65 4.25 12.1 5.55 12.75 6.15 13.1 7.55 13.8 Q7.15 14.1 7.15 14.55 L6.55 14.3 6.3 14.25 6.0 14.1 5.4 13.9 2.2 12.4 0.5 12.2 0.05 12.1 -3.0 11.6 -4.25 11.2 -5.6 10.5 -5.1 9.6 -4.7 9.9 -2.8 10.6 -0.6 10.85 -0.45 10.85 0.65 10.65" fill="#ff8320" fill-rule="evenodd" stroke="none"/>
      <path d="M-6.6 20.2 L-10.2 17.05 Q-11.6 15.95 -12.5 12.8 L-12.65 12.15 -13.2 8.45 -10.15 6.8 -10.2 8.3 Q-10.2 11.2 -9.6 13.3 -8.85 16.25 -6.95 17.65 L-5.9 18.3 -6.6 20.2" fill="#a4052d" fill-rule="evenodd" stroke="none"/>
      <path d="M9.2 21.55 L3.8 22.35 2.0 22.4 Q-1.8 22.4 -4.25 21.55 L-6.6 20.2 -5.9 18.3 Q-3.75 19.2 0.05 19.2 L2.65 19.15 6.15 18.8 6.1 19.4 6.3 19.4 8.6 19.2 9.2 21.55" fill="#c4091a" fill-rule="evenodd" stroke="none"/>
      <path d="M2.65 19.15 L0.05 19.2 Q-3.75 19.2 -5.9 18.3 L-4.8 15.45 -4.5 15.15 -4.05 14.4 -3.4 12.9 -3.0 11.6 0.05 12.1 1.1 14.95 2.65 19.15" fill="#dc1822" fill-rule="evenodd" stroke="none"/>
      <path d="M19.35 7.55 L21.6 7.7 22.25 7.75 23.3 8.25 Q24.2 8.7 25.05 9.25 L26.65 10.3 26.95 10.6 24.85 10.2 24.55 11.85 23.65 14.5 20.75 13.15 20.8 12.45 20.75 11.45 21.5 11.2 22.2 10.9 21.25 9.8 20.85 9.35 20.7 9.2 19.35 7.55" fill="#ffcb19" fill-rule="evenodd" stroke="none"/>
      <path d="M20.75 11.45 L20.8 12.45 20.75 13.15 18.3 12.1 18.1 12.0 15.6 12.5 15.6 12.4 15.25 11.75 15.6 11.65 16.55 11.2 16.95 11.05 17.15 10.35 15.8 10.3 16.0 9.2 18.8 9.1 19.1 9.65 Q18.8 9.85 18.8 10.25 18.8 10.95 19.35 11.25 L20.3 11.5 20.75 11.45" fill="#ffd526" fill-rule="evenodd" stroke="none"/>
      <path d="M20.7 9.2 L20.85 9.35 21.25 9.8 22.2 10.9 21.5 11.2 20.75 11.45 20.3 11.5 19.35 11.25 Q18.8 10.95 18.8 10.25 18.8 9.85 19.1 9.65 L18.8 9.1 19.0 9.1 19.35 9.15 20.7 9.2" fill="#fffff4" fill-rule="evenodd" stroke="none"/>
      <path d="M26.95 10.6 Q29.55 12.6 31.4 16.4 L31.1 16.45 30.35 16.5 29.85 16.55 27.95 16.65 25.35 15.2 23.65 14.5 24.55 11.85 24.85 10.2 26.95 10.6" fill="#eec80d" fill-rule="evenodd" stroke="none"/>
      <path d="M28.4 16.65 Q25.25 17.0 21.5 18.65 20.2 17.45 21.3 17.0 L21.1 16.65 20.2 15.65 16.6 16.35 15.55 16.65 15.6 12.5 18.1 12.0 18.3 12.1 20.75 13.15 23.65 14.5 25.35 15.2 27.95 16.65 26.4 16.8 28.4 16.65" fill="#f86c15" fill-rule="evenodd" stroke="none"/>
      <path d="M21.5 18.65 Q16.85 19.0 15.0 19.6 L9.4 21.5 9.2 21.55 8.6 19.2 10.35 18.95 Q11.6 17.65 15.55 16.65 L16.6 16.35 20.2 15.65 21.1 16.65 21.3 17.0 Q20.2 17.45 21.5 18.65" fill="#ff3f1c" fill-rule="evenodd" stroke="none"/>
      <path d="M15.8 10.3 L17.15 10.35 16.95 11.05 16.55 11.2 15.6 11.65 15.25 11.75 13.5 12.45 12.85 12.65 11.9 13.0 10.6 10.05 13.25 10.15 15.6 10.3 15.8 10.3" fill="#ff820a" fill-rule="evenodd" stroke="none"/>
      <path d="M16.0 9.2 L15.8 10.3 15.6 10.3 13.25 10.15 10.6 10.05 7.2 9.95 5.05 10.05 5.15 9.4 5.15 9.35 5.55 9.4 8.6 9.5 10.3 9.5 11.0 9.45 16.0 9.2" fill="#ff9b22" fill-rule="evenodd" stroke="none"/>
      <path d="M18.8 9.1 L16.0 9.2 11.0 9.45 10.3 9.5 8.6 9.5 5.55 9.4 5.15 6.3 5.15 5.7 5.35 3.35 Q7.05 4.7 9.35 5.55 12.6 6.75 18.1 7.4 L18.5 8.35 18.8 9.1" fill="#f74f20" fill-rule="evenodd" stroke="none"/>
      <path d="M18.8 9.1 L18.5 8.35 18.1 7.4 19.35 7.55 20.7 9.2 19.35 9.15 19.0 9.1 18.8 9.1" fill="#fac021" fill-rule="evenodd" stroke="none"/>
      <path d="M5.35 3.35 L5.15 5.7 5.15 6.3 5.55 9.4 5.15 9.35 5.15 9.4 Q3.0 9.1 1.6 8.3 L1.0 7.9 Q-0.9 6.55 -1.5 4.05 L0.5 2.4 2.85 0.45 Q3.85 2.05 5.35 3.35" fill="#ef1a0a" fill-rule="evenodd" stroke="none"/>
      <path d="M10.6 10.05 L11.9 13.0 9.65 13.6 8.8 13.5 8.25 13.55 7.75 13.6 7.55 13.75 7.55 13.8 6.15 13.1 5.55 12.75 4.25 12.1 0.85 10.65 0.65 10.65 1.0 7.9 1.6 8.3 Q3.0 9.1 5.15 9.4 L5.05 10.05 7.2 9.95 10.6 10.05" fill="#ff6922" fill-rule="evenodd" stroke="none"/>
      <path d="M0.05 12.1 L0.5 12.2 2.2 12.4 5.4 13.9 6.0 14.1 6.05 14.3 6.25 15.4 6.35 16.75 6.15 18.8 2.65 19.15 1.1 14.95 0.05 12.1" fill="#e61b1f" fill-rule="evenodd" stroke="none"/>
      <path d="M7.55 13.8 L7.55 13.75 7.75 13.6 8.25 13.55 8.8 13.5 9.65 13.6 10.3 14.1 10.35 14.4 9.8 15.2 9.65 15.35 8.55 15.65 8.45 15.65 8.0 15.55 7.7 15.4 Q7.15 15.1 7.15 14.6 L7.15 14.55 Q7.15 14.1 7.55 13.8" fill="#ffef2e" fill-rule="evenodd" stroke="none"/>
      <path d="M6.0 14.1 L6.3 14.25 6.55 14.3 7.15 14.55 7.15 14.6 Q7.15 15.1 7.7 15.4 L8.0 15.55 8.45 15.65 8.55 15.65 9.65 15.35 9.8 15.2 10.35 14.4 10.3 14.1 Q11.05 13.7 12.1 13.4 L13.7 12.95 15.6 12.5 15.55 16.65 Q11.6 17.65 10.35 18.95 L8.6 19.2 6.3 19.4 6.1 19.4 6.15 18.8 6.35 16.75 6.25 15.4 6.05 14.3 6.0 14.1" fill="#ff4217" fill-rule="evenodd" stroke="none"/>
      <path d="M15.25 11.75 L15.6 12.4 15.6 12.5 13.7 12.95 12.1 13.4 Q11.05 13.7 10.3 14.1 L9.65 13.6 11.9 13.0 12.85 12.65 13.5 12.45 15.25 11.75" fill="#fb9e13" fill-rule="evenodd" stroke="none"/>
      <path d="M-5.15 -22.3 L-7.4 -22.15 -9.5 -21.95 -12.6 -21.15 M1.5 -3.95 L1.5 -4.0 M1.65 -5.1 L2.05 -7.25 2.15 -7.5 2.25 -7.8 2.3 -7.95 2.45 -8.45 3.15 -10.55 4.25 -13.0 Q5.05 -15.05 5.05 -16.45 5.05 -18.55 3.7 -20.0 1.6 -22.2 -3.85 -22.35 L-4.5 -22.35 -5.15 -22.3" fill="none" stroke="#9b0019" stroke-linecap="round" stroke-linejoin="round" stroke-width="1.5"/>
      <path d="M1.5 -4.0 L1.65 -5.1 M19.35 7.55 L21.6 7.7 22.25 7.75 23.3 8.25 Q24.2 8.7 25.05 9.25 L26.65 10.3 26.95 10.6 Q29.55 12.6 31.4 16.4 M31.1 16.45 L30.35 16.5 29.85 16.55 28.4 16.65 Q25.25 17.0 21.5 18.65 16.85 19.0 15.0 19.6 L9.4 21.5 9.2 21.55 3.8 22.35 2.0 22.4 Q-1.8 22.4 -4.25 21.55 L-6.6 20.2 -10.2 17.05 M18.1 7.4 Q12.6 6.75 9.35 5.55 7.05 4.7 5.35 3.35 3.85 2.05 2.85 0.45 L2.6 0.05 Q1.7 -1.55 1.5 -3.95 M19.35 7.55 L18.1 7.4" fill="none" stroke="#de0301" stroke-linecap="round" stroke-linejoin="round" stroke-width="1.5"/>
      <path d="M-8.15 -1.65 L-8.15 -1.9 -8.1 -2.5 Q-8.1 -3.7 -8.6 -4.95 L-8.7 -5.15 Q-10.25 -5.8 -12.6 -5.8 L-14.3 -5.7 Q-16.45 -5.5 -18.3 -4.8 -21.65 -3.5 -21.65 -1.0 L-21.4 0.05 Q-25.25 -0.15 -27.55 -1.2 L-27.9 -1.4 Q-31.4 -3.1 -31.4 -7.25 -31.4 -10.1 -29.8 -12.45 L-28.05 -14.35" fill="none" stroke="#420034" stroke-linecap="round" stroke-linejoin="round" stroke-width="1.5"/>
      <path d="M-28.05 -14.35 L-27.35 -14.85 -26.7 -15.3 Q-24.65 -16.75 -22.0 -17.9 L-21.05 -18.3 -15.1 -20.4 -13.0 -21.1 -12.6 -21.15" fill="none" stroke="#660036" stroke-linecap="round" stroke-linejoin="round" stroke-width="1.5"/>
      <path d="M-10.2 17.05 Q-11.6 15.95 -12.5 12.8 L-12.65 12.15 -13.2 8.45 -13.15 7.25 Q-12.95 4.8 -11.65 2.5 -10.5 0.25 -8.9 -1.1 L-8.15 -1.65" fill="none" stroke="#5e002f" stroke-linecap="round" stroke-linejoin="round" stroke-width="1.5"/>
    </g>
  </defs>
</svg>
