<?xml version="1.0" encoding="UTF-8" standalone="no"?>
<svg xmlns:ffdec="https://www.free-decompiler.com/flash" xmlns:xlink="http://www.w3.org/1999/xlink" ffdec:objectType="frame" height="30.0px" width="30.0px" xmlns="http://www.w3.org/2000/svg">
  <g transform="matrix(1.0, 0.0, 0.0, 1.0, 0.0, 0.0)">
    <use ffdec:characterId="1" height="30.0" transform="matrix(1.0, 0.0, 0.0, 1.0, 0.0, 0.0)" width="30.0" xlink:href="#shape0"/>
    <use ffdec:characterId="3" height="30.0" transform="matrix(1.0, 0.0, 0.0, 1.0, 0.0, 0.0)" width="30.0" xlink:href="#sprite0"/>
    <filter id="filter0">
      <feColorMatrix in="SourceGraphic" result="filterResult0" type="matrix" values="0 0 0 0 0.0,0 0 0 0 0.0,0 0 0 0 0.2,0 0 0 1 0"/>
      <feConvolveMatrix divisor="4.0" in="filterResult0" kernelMatrix="1 1 1 1" order="2 2" result="filterResult1"/>
      <feComposite in="SourceGraphic" in2="filterResult1" operator="over" result="filterResult2"/>
    </filter>
    <use ffdec:characterId="5" filter="url(#filter0)" height="299.15" transform="matrix(0.0938, 0.0, 0.0, 0.0938, 2.0762, 0.9787)" width="283.0" xlink:href="#sprite1"/>
  </g>
  <defs>
    <g id="shape0" transform="matrix(1.0, 0.0, 0.0, 1.0, 0.0, 0.0)">
      <path d="M0.0 0.0 L30.0 0.0 30.0 30.0 0.0 30.0 0.0 0.0" fill="#33cc66" fill-opacity="0.0" fill-rule="evenodd" stroke="none"/>
    </g>
    <g id="sprite0" transform="matrix(1.0, 0.0, 0.0, 1.0, 0.0, 0.1)">
      <use ffdec:characterId="2" height="30.0" transform="matrix(1.0, 0.0, 0.0, 1.0, 0.0, -0.1)" width="30.0" xlink:href="#shape1"/>
    </g>
    <g id="shape1" transform="matrix(1.0, 0.0, 0.0, 1.0, 0.0, 0.1)">
      <path d="M3.3 -0.1 L26.7 -0.1 Q30.0 -0.1 30.0 3.2 L30.0 26.6 Q30.0 29.9 26.7 29.9 L3.3 29.9 Q0.0 29.9 0.0 26.6 L0.0 3.2 Q0.0 -0.1 3.3 -0.1" fill="#49517a" fill-rule="evenodd" stroke="none"/>
    </g>
    <g id="sprite1" transform="matrix(1.0, 0.0, 0.0, 1.0, 75.95, 123.9)">
      <use ffdec:characterId="4" height="299.15" transform="matrix(1.0, 0.0, 0.0, 1.0, -75.95, -123.9)" width="283.0" xlink:href="#shape2"/>
    </g>
    <g id="shape2" transform="matrix(1.0, 0.0, 0.0, 1.0, 75.95, 123.9)">
      <path d="M40.95 48.0 L41.2 48.6 Q51.85 62.4 66.4 72.85 81.85 83.55 96.1 86.85 96.05 62.25 88.4 45.25 85.15 36.3 77.75 25.45 L85.1 24.0 Q112.85 59.3 103.8 93.3 56.9 95.05 35.85 63.5 L40.95 48.0" fill="#fff3cd" fill-rule="evenodd" stroke="none"/>
      <path d="M77.75 25.45 Q85.15 36.3 88.4 45.25 96.05 62.25 96.1 86.85 81.85 83.55 66.4 72.85 51.85 62.4 41.2 48.6 L40.95 48.0 43.85 39.6 Q46.75 44.1 50.7 49.25 60.3 61.75 70.7 66.55 L85.9 72.5 84.3 64.8 Q82.3 51.4 77.5 40.75 74.7 33.65 70.95 27.4 L77.75 25.45" fill="#ffeaa6" fill-rule="evenodd" stroke="none"/>
      <path d="M70.95 27.4 Q74.7 33.65 77.5 40.75 82.3 51.4 84.3 64.8 L85.9 72.5 70.7 66.55 Q60.3 61.75 50.7 49.25 46.75 44.1 43.85 39.6 L46.3 32.4 70.95 27.4" fill="#ffbc7b" fill-rule="evenodd" stroke="none"/>
      <path d="M77.75 25.45 L70.95 27.4 46.3 32.4 43.85 39.6 40.95 48.0 35.85 63.5 Q56.9 95.05 103.8 93.3 112.85 59.3 85.1 24.0 L77.75 25.45 Z" fill="none" stroke="#ffa438" stroke-linecap="round" stroke-linejoin="round" stroke-width="1.0"/>
      <path d="M23.85 32.45 L23.5 36.8 Q23.1 39.5 23.05 42.35 22.9 44.2 21.9 46.4 L21.6 49.4 Q18.65 47.7 15.3 45.05 14.7 44.65 13.45 44.2 10.05 42.35 6.85 40.05 4.75 39.3 3.45 37.5 3.75 40.15 4.7 41.5 L9.15 50.55 12.5 53.1 Q15.45 57.0 19.1 60.1 22.9 62.85 25.55 66.1 27.05 67.8 29.7 69.65 31.95 72.1 33.3 74.95 L34.6 76.05 35.35 59.55 Q35.45 59.15 34.35 58.3 34.7 53.9 32.15 49.5 30.35 47.2 30.8 45.95 29.65 42.95 28.75 41.7 27.75 39.7 27.6 38.0 27.5 37.0 26.8 36.3 26.25 34.45 24.7 33.45 L23.85 32.45 M18.45 37.2 Q19.45 32.85 18.65 28.3 18.95 26.8 19.95 27.35 L26.55 32.9 Q26.7 33.15 26.95 33.05 33.2 46.5 41.95 64.4 53.3 87.65 59.0 108.8 65.3 128.9 75.15 148.35 56.15 128.8 42.35 106.35 27.35 83.5 12.85 58.9 7.15 50.1 2.2 40.55 L1.95 35.8 1.8 34.1 Q9.2 39.25 16.4 43.8 L17.65 45.0 18.45 37.2" fill="#ffeaa6" fill-rule="evenodd" stroke="none"/>
      <path d="M18.45 37.2 L17.65 45.0 16.4 43.8 Q9.2 39.25 1.8 34.1 L1.95 35.8 2.2 40.55 Q7.15 50.1 12.85 58.9 27.35 83.5 42.35 106.35 56.15 128.8 75.15 148.35 65.3 128.9 59.0 108.8 53.3 87.65 41.95 64.4 33.2 46.5 26.95 33.05 26.7 33.15 26.55 32.9 L19.95 27.35 Q18.95 26.8 18.65 28.3 19.45 32.85 18.45 37.2 M10.2 -0.6 L19.5 1.2 Q66.15 87.4 87.3 174.75 24.9 99.4 -16.35 24.3 L-14.95 14.85 3.25 16.15 10.2 -0.6" fill="#fff3cd" fill-rule="evenodd" stroke="none"/>
      <path d="M23.85 32.45 L24.7 33.45 Q26.25 34.45 26.8 36.3 27.5 37.0 27.6 38.0 27.75 39.7 28.75 41.7 29.65 42.95 30.8 45.95 30.35 47.2 32.15 49.5 34.7 53.9 34.35 58.3 35.45 59.15 35.35 59.55 L34.6 76.05 33.3 74.95 Q31.95 72.1 29.7 69.65 27.05 67.8 25.55 66.1 22.9 62.85 19.1 60.1 15.45 57.0 12.5 53.1 L9.15 50.55 4.7 41.5 Q3.75 40.15 3.45 37.5 4.75 39.3 6.85 40.05 10.05 42.35 13.45 44.2 14.7 44.65 15.3 45.05 18.65 47.7 21.6 49.4 L21.9 46.4 Q22.9 44.2 23.05 42.35 23.1 39.5 23.5 36.8 L23.85 32.45 M10.6 44.9 Q11.4 45.9 12.25 47.65 L13.65 49.75 17.95 55.0 Q20.95 56.7 23.3 58.7 24.45 58.9 25.0 59.3 26.0 60.55 27.95 61.75 29.7 59.5 29.7 56.65 29.05 50.35 27.3 43.8 27.3 43.1 25.9 41.65 25.4 45.05 25.65 48.45 25.25 51.1 25.35 52.8 22.1 51.25 19.75 49.25 18.45 48.8 18.5 48.05 L14.85 46.4 Q12.0 44.9 11.05 43.65 9.6 43.6 10.6 44.9" fill="#ffbc7b" fill-rule="evenodd" stroke="none"/>
      <path d="M10.6 44.9 Q9.6 43.6 11.05 43.65 12.0 44.9 14.85 46.4 L18.5 48.05 Q18.45 48.8 19.75 49.25 22.1 51.25 25.35 52.8 25.25 51.1 25.65 48.45 25.4 45.05 25.9 41.65 27.3 43.1 27.3 43.8 29.05 50.35 29.7 56.65 29.7 59.5 27.95 61.75 26.0 60.55 25.0 59.3 24.45 58.9 23.3 58.7 20.95 56.7 17.95 55.0 L13.65 49.75 12.25 47.65 Q11.4 45.9 10.6 44.9" fill="#ff8b6b" fill-rule="evenodd" stroke="none"/>
      <path d="M10.2 -0.6 L3.25 16.15 -14.95 14.85 -16.35 24.3 Q24.9 99.4 87.3 174.75 66.15 87.4 19.5 1.2 L10.2 -0.6 Z" fill="none" stroke="#ffa438" stroke-linecap="round" stroke-linejoin="round" stroke-width="1.0"/>
      <path d="M79.1 4.45 Q80.35 4.85 80.65 5.45 81.35 6.85 83.7 7.45 L87.65 10.45 Q87.9 11.75 90.75 12.5 95.1 14.9 97.6 18.6 98.7 18.75 99.0 19.35 103.05 26.15 107.9 33.25 106.75 33.1 105.8 33.25 103.4 31.25 100.3 30.65 L94.5 30.35 Q90.7 28.95 85.8 28.95 L76.6 26.75 Q74.9 26.15 72.55 26.3 L63.55 21.5 Q61.55 20.35 60.3 18.55 62.1 19.4 64.4 19.0 L72.3 18.65 74.7 18.5 Q78.7 18.7 82.05 18.45 L80.65 15.6 79.45 11.65 Q77.6 9.35 76.5 7.1 75.3 5.25 74.3 2.55 74.4 2.85 76.1 3.4 77.7 3.7 79.1 4.45 M74.55 19.65 Q72.0 20.2 69.6 19.65 68.65 20.45 70.3 21.05 71.85 21.35 73.25 22.05 74.35 22.9 75.5 23.05 L81.75 24.95 88.35 24.85 90.2 25.0 94.45 25.05 Q94.35 21.95 92.9 19.85 88.75 14.85 83.55 10.7 83.15 9.85 81.45 9.3 L84.75 15.4 Q85.85 17.65 86.85 18.9 L80.5 19.6 78.65 19.45 74.55 19.65" fill="#ffbc7b" fill-rule="evenodd" stroke="none"/>
      <path d="M79.1 4.45 Q77.7 3.7 76.1 3.4 74.4 2.85 74.3 2.55 75.3 5.25 76.5 7.1 77.6 9.35 79.45 11.65 L80.65 15.6 82.05 18.45 Q78.7 18.7 74.7 18.5 L72.3 18.65 64.4 19.0 Q62.1 19.4 60.3 18.55 61.55 20.35 63.55 21.5 L72.55 26.3 Q74.9 26.15 76.6 26.75 L85.8 28.95 Q90.7 28.95 94.5 30.35 L100.3 30.65 Q103.4 31.25 105.8 33.25 106.75 33.1 107.9 33.25 103.05 26.15 99.0 19.35 98.7 18.75 97.6 18.6 95.1 14.9 90.75 12.5 87.9 11.75 87.65 10.45 L83.7 7.45 Q81.35 6.85 80.65 5.45 80.35 4.85 79.1 4.45 M76.95 1.6 L77.4 1.7 Q89.75 9.8 107.05 19.25 129.4 32.6 146.35 46.5 162.75 59.95 181.7 70.65 154.9 64.8 131.15 54.25 105.4 43.3 80.4 31.6 70.4 26.95 60.55 21.9 59.0 20.25 58.05 18.25 L56.65 16.8 74.3 17.0 Q74.85 17.4 76.45 17.0 L76.3 16.7 72.25 9.9 Q71.0 5.9 67.65 2.65 66.95 1.25 68.55 0.8 L76.95 1.6" fill="#ffeaa6" fill-rule="evenodd" stroke="none"/>
      <path d="M76.95 1.6 L68.55 0.8 Q66.95 1.25 67.65 2.65 71.0 5.9 72.25 9.9 L76.3 16.7 76.45 17.0 Q74.85 17.4 74.3 17.0 L56.65 16.8 58.05 18.25 Q59.0 20.25 60.55 21.9 70.4 26.95 80.4 31.6 105.4 43.3 131.15 54.25 154.9 64.8 181.7 70.65 162.75 59.95 146.35 46.5 129.4 32.6 107.05 19.25 89.75 9.8 77.4 1.7 L76.95 1.6 M32.4 10.35 L47.9 1.05 Q46.15 -7.6 44.55 -16.65 48.9 -18.45 53.15 -20.5 139.9 25.4 206.55 85.65 112.5 57.75 36.55 18.2 L32.4 10.35" fill="#fff3cd" fill-rule="evenodd" stroke="none"/>
      <path d="M74.55 19.65 L78.65 19.45 80.5 19.6 86.85 18.9 Q85.85 17.65 84.75 15.4 L81.45 9.3 Q83.15 9.85 83.55 10.7 88.75 14.85 92.9 19.85 94.35 21.95 94.45 25.05 L90.2 25.0 88.35 24.85 81.75 24.95 75.5 23.05 Q74.35 22.9 73.25 22.05 71.85 21.35 70.3 21.05 68.65 20.45 69.6 19.65 72.0 20.2 74.55 19.65" fill="#ff8b6b" fill-rule="evenodd" stroke="none"/>
      <path d="M32.4 10.35 L36.55 18.2 Q112.5 57.75 206.55 85.65 139.9 25.4 53.15 -20.5 48.9 -18.45 44.55 -16.65 46.15 -7.6 47.9 1.05 L32.4 10.35 Z" fill="none" stroke="#ffa438" stroke-linecap="round" stroke-linejoin="round" stroke-width="1.0"/>
      <path d="M33.95 -16.05 Q37.65 -9.8 40.45 -2.7 45.4 8.25 47.15 21.8 47.65 25.8 48.3 29.3 44.1 27.15 33.25 22.95 22.55 19.0 13.5 6.2 L6.1 -3.15 8.6 -10.35 33.95 -16.05" fill="#ff0000" fill-rule="evenodd" stroke="none"/>
      <path d="M6.1 -3.15 L13.5 6.2 Q22.55 19.0 33.25 22.95 44.1 27.15 48.3 29.3 47.65 25.8 47.15 21.8 45.4 8.25 40.45 -2.7 37.65 -9.8 33.95 -16.05 L40.3 -17.4 Q47.8 -7.0 51.55 2.1 58.35 19.5 58.95 43.8 44.55 40.3 29.55 29.65 14.55 19.1 4.35 5.45 L4.2 5.15 6.1 -3.15" fill="#ffa34a" fill-rule="evenodd" stroke="none"/>
      <path d="M4.2 5.15 L4.35 5.45 Q14.55 19.1 29.55 29.65 44.55 40.3 58.95 43.8 58.35 19.5 51.55 2.1 47.8 -7.0 40.3 -17.4 L47.95 -19.0 Q76.15 16.45 66.5 49.95 19.6 51.75 -1.05 20.35 L4.2 5.15" fill="#ffd54a" fill-rule="evenodd" stroke="none"/>
      <path d="M33.95 -16.05 L8.6 -10.35 6.1 -3.15 4.2 5.15 -1.05 20.35 Q19.6 51.75 66.5 49.95 76.15 16.45 47.95 -19.0 L40.3 -17.4 33.95 -16.05 Z" fill="none" stroke="#aa4717" stroke-linecap="round" stroke-linejoin="round" stroke-width="1.0"/>
      <path d="M19.35 -86.95 Q21.2 -85.4 23.8 -80.0 34.9 -57.25 34.1 -46.0 32.75 -24.95 2.4 -10.15 -5.85 -6.1 -34.0 -3.25 L-61.25 -2.25 Q-65.55 -11.05 -65.6 -23.4 -65.75 -38.05 -58.4 -41.65 -55.85 -42.9 -50.95 -43.85 -45.8 -44.65 -42.65 -46.15 -23.35 -55.6 -23.2 -68.3 L-24.15 -76.65 Q-24.2 -80.5 -20.8 -82.15 -11.75 -86.55 -6.85 -82.95 -1.9 -79.4 9.7 -85.1 L16.4 -88.65 Q17.95 -88.4 19.35 -86.95 M10.75 -72.9 Q6.35 -74.65 -8.15 -75.65 L-13.25 -73.15 Q-9.0 -67.2 -12.3 -58.9 -14.75 -51.7 -20.7 -48.75 -27.2 -46.3 -33.9 -44.1 -57.5 -32.6 -50.3 -17.8 -47.25 -11.6 -41.0 -11.1 -34.05 -11.35 -21.0 -17.7 9.1 -32.4 14.05 -49.55 16.7 -59.3 11.85 -70.65 L10.9 -72.65 10.75 -72.9" fill="#ffd54a" fill-rule="evenodd" stroke="none"/>
      <path d="M45.85 -52.1 Q53.7 -33.1 54.05 -23.8 51.2 -20.95 46.5 -14.8 39.5 -6.8 34.5 -3.35 12.05 13.95 -12.4 15.75 -36.05 17.8 -70.3 6.0 -70.35 3.6 -70.75 -0.8 -71.0 -4.9 -74.4 -19.1 -77.8 -32.55 -70.2 -46.4 -66.8 -56.15 -52.65 -60.25 L-38.05 -64.2 -38.3 -76.05 Q-39.4 -86.4 -26.65 -89.8 -31.45 -93.8 -15.8 -92.65 L1.2 -91.1 -5.4 -116.05 Q-4.15 -115.6 14.1 -102.75 L25.65 -94.25 45.85 -52.1 M19.35 -86.95 Q17.95 -88.4 16.4 -88.65 L9.7 -85.1 Q-1.9 -79.4 -6.85 -82.95 -11.75 -86.55 -20.8 -82.15 -24.2 -80.5 -24.15 -76.65 L-23.2 -68.3 Q-23.35 -55.6 -42.65 -46.15 -45.8 -44.65 -50.95 -43.85 -55.85 -42.9 -58.4 -41.65 -65.75 -38.05 -65.6 -23.4 -65.55 -11.05 -61.25 -2.25 L-34.0 -3.25 Q-5.85 -6.1 2.4 -10.15 32.75 -24.95 34.1 -46.0 34.9 -57.25 23.8 -80.0 21.2 -85.4 19.35 -86.95" fill="#ffeaa6" fill-rule="evenodd" stroke="none"/>
      <path d="M10.75 -72.9 L10.9 -72.65 11.85 -70.65 Q16.7 -59.3 14.05 -49.55 9.1 -32.4 -21.0 -17.7 -34.05 -11.35 -41.0 -11.1 -47.25 -11.6 -50.3 -17.8 -57.5 -32.6 -33.9 -44.1 -27.2 -46.3 -20.7 -48.75 -14.75 -51.7 -12.3 -58.9 -9.0 -67.2 -13.25 -73.15 L-8.15 -75.65 Q6.35 -74.65 10.75 -72.9" fill="#fffefe" fill-rule="evenodd" stroke="none"/>
      <path d="M45.85 -52.1 Q53.7 -33.1 54.05 -23.8 51.2 -20.95 46.5 -14.8 39.5 -6.8 34.5 -3.35 12.05 13.95 -12.4 15.75 -36.05 17.8 -70.3 6.0 -70.35 3.6 -70.75 -0.8 -71.0 -4.9 -74.4 -19.1 -77.8 -32.55 -70.2 -46.4 -66.8 -56.15 -52.65 -60.25 L-38.05 -64.2 -38.3 -76.05 Q-39.4 -86.4 -26.65 -89.8 -31.45 -93.8 -15.8 -92.65 L1.2 -91.1 -5.4 -116.05 Q-4.15 -115.6 14.1 -102.75 L25.65 -94.25 45.85 -52.1 Z" fill="none" stroke="#aa4717" stroke-linecap="round" stroke-linejoin="round" stroke-width="1.0"/>
      <path d="M53.45 -65.3 L56.0 -64.4 Q73.15 -37.3 76.3 -10.7 56.7 -20.5 34.9 -28.5 L14.65 -56.95 24.05 -49.2 Q37.85 -39.75 49.2 -33.7 51.4 -40.75 52.6 -50.5 L53.45 -65.3 M50.6 -76.9 Q35.4 -82.15 20.35 -87.8 L-5.45 -123.4 Q18.0 -122.15 39.35 -107.95 L50.6 -76.9 M26.1 -22.05 Q26.75 -21.35 27.35 -20.9 L33.7 22.4 1.25 0.6 -11.25 -29.45 -6.8 -23.9 -3.6 -19.5 Q2.1 -11.4 9.8 -4.95 L15.95 0.45 Q19.55 -3.75 23.0 -13.2 24.65 -19.25 26.1 -22.05 M-7.8 1.5 L-3.6 36.75 -28.9 7.9 -33.05 -15.0 -28.9 -7.9 -21.75 3.1 Q-19.55 6.2 -17.15 8.9 L-7.8 1.5 M-34.0 9.7 L-41.0 31.4 -65.15 15.75 -51.0 -15.05 -34.0 9.7" fill="#ffa34a" fill-rule="evenodd" stroke="none"/>
      <path d="M14.65 -56.95 Q2.25 -73.7 -10.0 -90.95 21.7 -77.9 53.45 -65.3 L52.6 -50.5 Q51.4 -40.75 49.2 -33.7 37.85 -39.75 24.05 -49.2 L14.65 -56.95 M-11.25 -29.45 L-26.45 -64.95 -10.2 -53.2 Q0.05 -45.9 9.7 -36.9 18.25 -30.2 26.1 -22.05 24.65 -19.25 23.0 -13.2 19.55 -3.75 15.95 0.45 L9.8 -4.95 Q2.1 -11.4 -3.6 -19.5 L-6.8 -23.9 -11.25 -29.45 M-33.9 -18.15 L-35.75 -28.45 Q-21.75 -13.45 -7.6 1.05 L-7.8 1.5 -17.15 8.9 Q-19.55 6.2 -21.75 3.1 L-28.9 -7.9 -33.05 -15.0 -33.9 -18.15" fill="#ffd54a" fill-rule="evenodd" stroke="none"/>
      <path d="M53.45 -65.3 L56.0 -64.4 Q73.15 -37.3 76.3 -10.7 56.7 -20.5 34.9 -28.5 L14.65 -56.95 Q2.25 -73.7 -10.0 -90.95 21.7 -77.9 53.45 -65.3 M50.6 -76.9 L39.35 -107.95 Q18.0 -122.15 -5.45 -123.4 L20.35 -87.8 Q35.4 -82.15 50.6 -76.9 M-11.25 -29.45 L-26.45 -64.95 -10.2 -53.2 Q0.05 -45.9 9.7 -36.9 18.25 -30.2 26.1 -22.05 26.75 -21.35 27.35 -20.9 L33.7 22.4 1.25 0.6 -11.25 -29.45 M-33.9 -18.15 L-35.75 -28.45 Q-21.75 -13.45 -7.6 1.05 L-7.8 1.5 -3.6 36.75 -28.9 7.9 -33.05 -15.0 M-34.0 9.7 L-51.0 -15.05 -65.15 15.75 -41.0 31.4 -34.0 9.7 Z" fill="none" stroke="#aa4717" stroke-linecap="round" stroke-linejoin="round" stroke-width="1.0"/>
    </g>
  </defs>
</svg>
