<?xml version="1.0" encoding="UTF-8" standalone="no"?>
<svg xmlns:ffdec="https://www.free-decompiler.com/flash" xmlns:xlink="http://www.w3.org/1999/xlink" ffdec:objectType="frame" height="30.0px" width="30.0px" xmlns="http://www.w3.org/2000/svg">
  <g transform="matrix(1.0, 0.0, 0.0, 1.0, 0.0, 0.0)">
    <use ffdec:characterId="1" height="30.0" transform="matrix(1.0, 0.0, 0.0, 1.0, 0.0, 0.0)" width="30.0" xlink:href="#shape0"/>
    <use ffdec:characterId="3" height="30.0" transform="matrix(1.0, 0.0, 0.0, 1.0, 0.0, 0.0)" width="30.0" xlink:href="#sprite0"/>
    <use ffdec:characterId="5" height="285.05" transform="matrix(0.0938, 0.0, 0.0, 0.0938, 3.7129, 2.0902)" width="263.65" xlink:href="#sprite1"/>
  </g>
  <defs>
    <g id="shape0" transform="matrix(1.0, 0.0, 0.0, 1.0, 0.0, 0.0)">
      <path d="M0.0 0.0 L30.0 0.0 30.0 30.0 0.0 30.0 0.0 0.0" fill="#33cc66" fill-opacity="0.0" fill-rule="evenodd" stroke="none"/>
    </g>
    <g id="sprite0" transform="matrix(1.0, 0.0, 0.0, 1.0, 0.0, 0.1)">
      <use ffdec:characterId="2" height="30.0" transform="matrix(1.0, 0.0, 0.0, 1.0, 0.0, -0.1)" width="30.0" xlink:href="#shape1"/>
    </g>
    <g id="shape1" transform="matrix(1.0, 0.0, 0.0, 1.0, 0.0, 0.1)">
      <path d="M3.3 -0.1 L26.7 -0.1 Q30.0 -0.1 30.0 3.2 L30.0 26.6 Q30.0 29.9 26.7 29.9 L3.3 29.9 Q0.0 29.9 0.0 26.6 L0.0 3.2 Q0.0 -0.1 3.3 -0.1" fill="#49517a" fill-rule="evenodd" stroke="none"/>
    </g>
    <g id="sprite1" transform="matrix(1.0, 0.0, 0.0, 1.0, 58.5, 112.05)">
      <use ffdec:characterId="4" height="285.05" transform="matrix(1.0, 0.0, 0.0, 1.0, -58.5, -112.05)" width="263.65" xlink:href="#shape2"/>
    </g>
    <g id="shape2" transform="matrix(1.0, 0.0, 0.0, 1.0, 58.5, 112.05)">
      <path d="M24.55 -79.2 L24.55 -65.95 Q32.95 -37.25 58.05 -4.4 88.6 35.7 122.55 46.2 122.55 53.05 123.45 63.5 123.7 70.8 124.6 75.8 114.8 78.35 99.1 81.75 77.9 87.45 66.95 92.45 55.3 93.6 41.4 99.55 27.05 105.25 5.15 117.75 L0.35 100.65 Q-4.65 82.45 -11.5 69.65 -8.75 57.8 -6.9 43.45 -3.05 17.9 -3.05 -0.55 -3.05 -15.6 -4.85 -24.95 -24.25 -42.5 -39.75 -48.9 L-47.95 -74.85 Q-41.6 -78.05 -28.6 -83.05 -13.75 -91.95 -5.8 -111.55 -2.6 -105.85 1.95 -99.5 12.45 -84.9 24.55 -79.2 M4.25 2.4 L4.25 4.0 Q4.25 8.55 1.95 30.0 -0.3 51.2 -0.3 53.95 -0.3 63.5 0.15 64.45 0.35 66.25 5.85 75.6 5.4 67.4 7.45 60.8 9.05 53.5 11.3 53.5 14.05 53.5 22.05 62.85 35.95 78.55 38.0 80.15 L38.65 80.85 Q41.85 74.45 76.3 54.6 L71.95 40.05 71.95 38.9 Q86.75 47.8 117.3 74.7 L118.0 75.6 Q105.9 54.6 83.1 32.5 63.05 12.45 58.75 2.2 56.9 -2.6 47.35 -11.95 36.85 -23.8 33.45 -29.95 17.0 -55.05 16.8 -55.95 8.1 -65.95 -6.0 -68.7 -7.4 -65.95 -8.05 -62.55 -10.8 -53.2 -10.8 -51.4 -10.8 -49.35 -3.05 -32.25 3.55 -16.5 4.25 0.8 L4.0 0.8 4.25 2.4" fill="#a15113" fill-rule="evenodd" stroke="none"/>
      <path d="M4.25 0.8 Q3.55 -16.5 -3.05 -32.25 -10.8 -49.35 -10.8 -51.4 -10.8 -53.2 -8.05 -62.55 -7.4 -65.95 -6.0 -68.7 8.1 -65.95 16.8 -55.95 17.0 -55.05 33.45 -29.95 36.85 -23.8 47.35 -11.95 56.9 -2.6 58.75 2.2 63.05 12.45 83.1 32.5 105.9 54.6 118.0 75.6 L117.3 74.7 Q86.75 47.8 71.95 38.9 L71.95 40.05 76.3 54.6 Q41.85 74.45 38.65 80.85 L38.0 80.15 Q35.95 78.55 22.05 62.85 14.05 53.5 11.3 53.5 9.05 53.5 7.45 60.8 5.4 67.4 5.85 75.6 0.35 66.25 0.15 64.45 -0.3 63.5 -0.3 53.95 -0.3 51.2 1.95 30.0 4.25 8.55 4.25 4.0 L4.25 2.4 Q5.85 5.6 8.6 7.45 13.15 10.65 19.75 10.65 24.55 10.65 30.25 9.05 32.5 8.35 34.1 7.45 L39.8 4.7 Q43.0 0.15 43.0 -8.05 L43.0 -14.9 Q39.8 -13.1 24.55 -6.0 L22.95 -5.35 Q10.4 0.15 4.25 0.8 M2.4 -16.95 Q3.55 -15.6 5.85 -14.2 10.4 -11.05 13.6 -11.05 16.8 -11.05 19.75 -11.95 L24.75 -13.75 Q27.5 -15.35 29.1 -16.5 29.1 -16.95 29.8 -17.2 30.7 -19.9 30.7 -21.95 29.1 -27.65 29.1 -30.4 20.9 -24.5 14.75 -21.95 10.15 -19.9 6.75 -19.9 L2.9 -19.9 2.4 -16.95 M54.65 0.15 Q44.15 7.45 32.5 13.35 29.8 14.05 27.05 16.1 13.15 21.8 13.15 19.95 L11.3 19.95 Q11.3 24.1 16.35 26.15 20.2 28.4 25.7 28.4 32.5 28.4 39.15 26.35 40.95 26.15 43.0 25.2 49.15 22.95 50.75 21.8 51.2 21.35 51.2 20.2 53.5 14.75 54.65 7.2 L54.65 0.15 M55.1 37.3 Q58.05 31.15 58.75 27.5 L58.75 19.5 57.35 19.95 Q53.05 27.25 49.15 29.1 47.35 30.7 42.3 31.85 35.25 33.9 21.8 36.85 24.1 41.4 27.95 42.3 L38.65 42.3 47.55 41.85 Q50.75 41.15 53.7 40.05 54.65 38.9 55.1 37.3" fill="#cb6c21" fill-rule="evenodd" stroke="none"/>
      <path d="M4.25 0.8 Q10.4 0.15 22.95 -5.35 L24.55 -6.0 Q39.8 -13.1 43.0 -14.9 L43.0 -8.05 Q43.0 0.15 39.8 4.7 L34.1 7.45 Q32.5 8.35 30.25 9.05 24.55 10.65 19.75 10.65 13.15 10.65 8.6 7.45 5.85 5.6 4.25 2.4 L4.0 0.8 4.25 0.8 M54.65 0.15 L54.65 7.2 Q53.5 14.75 51.2 20.2 51.2 21.35 50.75 21.8 49.15 22.95 43.0 25.2 40.95 26.15 39.15 26.35 32.5 28.4 25.7 28.4 20.2 28.4 16.35 26.15 11.3 24.1 11.3 19.95 L13.15 19.95 Q13.15 21.8 27.05 16.1 29.8 14.05 32.5 13.35 44.15 7.45 54.65 0.15 M2.4 -16.95 L2.9 -19.9 6.75 -19.9 Q10.15 -19.9 14.75 -21.95 20.9 -24.5 29.1 -30.4 29.1 -27.65 30.7 -21.95 30.7 -19.9 29.8 -17.2 29.1 -16.95 29.1 -16.5 27.5 -15.35 24.75 -13.75 L19.75 -11.95 Q16.8 -11.05 13.6 -11.05 10.4 -11.05 5.85 -14.2 3.55 -15.6 2.4 -16.95 M55.1 37.3 Q54.65 38.9 53.7 40.05 50.75 41.15 47.55 41.85 L38.65 42.3 27.95 42.3 Q24.1 41.4 21.8 36.85 35.25 33.9 42.3 31.85 47.35 30.7 49.15 29.1 53.05 27.25 57.35 19.95 L58.75 19.5 58.75 27.5 Q58.05 31.15 55.1 37.3" fill="#ffa941" fill-rule="evenodd" stroke="none"/>
      <path d="M24.55 -79.2 Q12.45 -84.9 1.95 -99.5 -2.6 -105.85 -5.8 -111.55 -13.75 -91.95 -28.6 -83.05 -41.6 -78.05 -47.95 -74.85 L-39.75 -48.9 Q-24.25 -42.5 -4.85 -24.95 -3.05 -15.6 -3.05 -0.55 -3.05 17.9 -6.9 43.45 -8.75 57.8 -11.5 69.65 -4.65 82.45 0.35 100.65 L5.15 117.75 Q27.05 105.25 41.4 99.55 55.3 93.6 66.95 92.45 77.9 87.45 99.1 81.75 114.8 78.35 124.6 75.8 123.7 70.8 123.45 63.5 122.55 53.05 122.55 46.2 88.6 35.7 58.05 -4.4 32.95 -37.25 24.55 -65.95 L24.55 -79.2 Z" fill="none" stroke="#5f0000" stroke-linecap="round" stroke-linejoin="round" stroke-width="1.0"/>
      <path d="M133.05 19.95 Q139.65 30.25 147.85 46.2 L152.45 53.95 Q156.75 63.5 161.3 72.4 L164.75 80.6 164.75 82.9 Q164.3 83.6 161.75 83.6 156.75 83.6 150.15 81.3 144.7 80.15 138.5 77.9 120.3 71.25 107.95 60.8 111.85 41.85 117.55 26.8 120.75 19.05 123.45 13.35 L133.05 19.95 M128.7 26.35 L125.75 27.25 125.3 28.85 Q126.9 33.9 131.25 42.3 135.8 51.2 138.05 51.2 141.95 46.65 141.95 45.05 137.4 26.35 128.7 26.35 M82.45 32.5 Q85.85 38.9 89.05 47.8 99.75 73.3 100.2 91.8 L100.2 131.7 Q92.45 130.75 72.85 114.6 70.35 112.3 67.6 110.25 51.9 96.8 43.7 86.75 59.2 58.05 82.45 32.5 M84.7 48.45 Q77.4 40.05 77.4 57.35 77.4 80.6 87.9 80.6 91.8 80.6 91.8 79.7 92.0 79.0 92.0 75.8 92.0 57.35 84.7 48.45 M-9.2 17.45 L-7.4 26.8 Q-3.5 41.4 -3.5 64.65 -3.75 77.9 -4.65 87.9 -6.45 123.0 -13.75 123.0 -20.85 123.0 -35.4 100.65 -46.8 83.6 -53.2 65.8 -48.65 57.8 -42.95 50.05 -28.8 31.15 -10.8 14.75 L-9.2 17.45 M-23.8 48.45 L-22.65 58.05 Q-21.3 67.4 -15.35 67.4 -8.5 67.4 -8.5 40.05 -8.5 22.95 -15.8 30.0 -23.8 36.85 -23.8 48.45" fill="#ffa941" fill-rule="evenodd" stroke="none"/>
      <path d="M107.95 60.8 Q120.3 71.25 138.5 77.9 144.7 80.15 150.15 81.3 156.75 83.6 161.75 83.6 164.3 83.6 164.75 82.9 L164.75 80.6 161.3 72.4 Q156.75 63.5 152.45 53.95 L147.85 46.2 Q139.65 30.25 133.05 19.95 158.15 38.45 174.1 58.95 177.05 63.5 180.25 67.85 199.6 97.25 204.65 125.75 136.25 119.6 130.1 107.5 L129.65 106.35 Q127.6 102.25 125.75 97.5 114.8 75.6 107.05 63.95 114.8 75.6 125.75 97.5 127.6 102.25 129.65 106.35 L130.1 107.5 Q131.9 120.75 131.25 139.45 130.75 157.45 121.9 172.5 105.7 170.2 77.9 151.75 55.75 136.7 43.0 112.75 39.6 106.35 36.85 100.0 39.8 93.4 43.7 86.75 51.9 96.8 67.6 110.25 70.35 112.3 72.85 114.6 92.45 130.75 100.2 131.7 L100.2 91.8 Q99.75 73.3 89.05 47.8 85.85 38.9 82.45 32.5 L82.9 32.3 99.75 53.5 101.8 55.75 Q105.7 61.7 106.85 64.65 106.85 63.95 107.05 63.95 L107.95 61.25 107.95 60.8 M168.15 65.1 Q162.9 59.4 156.3 55.75 159.05 60.8 164.75 69.0 168.6 75.8 174.55 84.7 185.25 102.5 196.4 116.4 181.85 82.9 171.35 69.45 169.75 66.95 168.15 65.1 M103.65 94.5 L103.65 107.95 103.65 117.3 Q106.85 133.5 118.0 165.65 L118.7 165.65 Q122.55 149.45 122.55 133.5 122.55 113.45 119.85 101.15 118.7 97.25 116.85 93.6 113.65 86.75 101.8 71.7 103.2 79.7 103.65 94.5 M-53.2 65.8 Q-46.8 83.6 -35.4 100.65 -20.85 123.0 -13.75 123.0 -6.45 123.0 -4.65 87.9 -3.75 77.9 -3.5 64.65 -3.5 41.4 -7.4 26.8 L-9.2 17.45 Q2.9 36.15 12.0 66.7 12.45 84.05 12.0 99.55 9.7 143.55 -3.5 161.75 -46.8 128.95 -58.0 74.7 -55.7 69.65 -53.2 65.8 M1.3 48.9 Q0.85 47.8 0.15 47.8 -0.3 52.8 -0.3 58.05 -0.75 66.95 -0.75 79.7 -1.45 83.6 -1.9 89.5 L-7.4 138.5 -7.4 150.15 Q0.15 138.5 3.55 109.55 L5.15 94.95 Q5.85 84.05 5.85 74.45 5.85 64.45 5.15 61.7 L1.3 48.9" fill="#cb6c21" fill-rule="evenodd" stroke="none"/>
      <path d="M168.15 65.1 Q169.75 66.95 171.35 69.45 181.85 82.9 196.4 116.4 185.25 102.5 174.55 84.7 168.6 75.8 164.75 69.0 159.05 60.8 156.3 55.75 162.9 59.4 168.15 65.1 M103.65 94.5 Q103.2 79.7 101.8 71.7 113.65 86.75 116.85 93.6 118.7 97.25 119.85 101.15 122.55 113.45 122.55 133.5 122.55 149.45 118.7 165.65 L118.0 165.65 Q106.85 133.5 103.65 117.3 L103.65 107.95 103.65 94.5 M1.3 48.9 L5.15 61.7 Q5.85 64.45 5.85 74.45 5.85 84.05 5.15 94.95 L3.55 109.55 Q0.15 138.5 -7.4 150.15 L-7.4 138.5 -1.9 89.5 Q-1.45 83.6 -0.75 79.7 -0.75 66.95 -0.3 58.05 -0.3 52.8 0.15 47.8 0.85 47.8 1.3 48.9" fill="#a8370d" fill-rule="evenodd" stroke="none"/>
      <path d="M128.7 26.35 Q137.4 26.35 141.95 45.05 141.95 46.65 138.05 51.2 135.8 51.2 131.25 42.3 126.9 33.9 125.3 28.85 L125.75 27.25 128.7 26.35 M84.7 48.45 Q92.0 57.35 92.0 75.8 92.0 79.0 91.8 79.7 91.8 80.6 87.9 80.6 77.4 80.6 77.4 57.35 77.4 40.05 84.7 48.45 M-23.8 48.45 Q-23.8 36.85 -15.8 30.0 -8.5 22.95 -8.5 40.05 -8.5 67.4 -15.35 67.4 -21.3 67.4 -22.65 58.05 L-23.8 48.45" fill="#ffd343" fill-rule="evenodd" stroke="none"/>
      <path d="M133.05 19.95 L123.45 13.35 Q120.75 19.05 117.55 26.8 111.85 41.85 107.95 60.8 L107.95 61.25 107.05 63.95 Q114.8 75.6 125.75 97.5 127.6 102.25 129.65 106.35 L130.1 107.5 Q136.25 119.6 204.65 125.75 199.6 97.25 180.25 67.85 177.05 63.5 174.1 58.95 158.15 38.45 133.05 19.95 M82.45 32.5 L82.9 32.3 99.75 53.5 101.8 55.75 Q105.7 61.7 106.85 64.65 106.85 63.95 107.05 63.95 M82.45 32.5 Q59.2 58.05 43.7 86.75 39.8 93.4 36.85 100.0 39.6 106.35 43.0 112.75 55.75 136.7 77.9 151.75 105.7 170.2 121.9 172.5 130.75 157.45 131.25 139.45 131.9 120.75 130.1 107.5 M-9.2 17.45 L-10.8 14.75 Q-28.8 31.15 -42.95 50.05 -48.65 57.8 -53.2 65.8 -55.7 69.65 -58.0 74.7 -46.8 128.95 -3.5 161.75 9.7 143.55 12.0 99.55 12.45 84.05 12.0 66.7 2.9 36.15 -9.2 17.45 Z" fill="none" stroke="#5f0000" stroke-linecap="round" stroke-linejoin="round" stroke-width="1.0"/>
    </g>
  </defs>
</svg>
