<?xml version="1.0" encoding="UTF-8" standalone="no"?>
<svg xmlns:ffdec="https://www.free-decompiler.com/flash" xmlns:xlink="http://www.w3.org/1999/xlink" ffdec:objectType="frame" height="30.0px" width="30.0px" xmlns="http://www.w3.org/2000/svg">
  <g transform="matrix(1.0, 0.0, 0.0, 1.0, 0.0, 0.0)">
    <use ffdec:characterId="1" height="30.0" transform="matrix(1.0, 0.0, 0.0, 1.0, 0.0, 0.0)" width="30.0" xlink:href="#shape0"/>
    <use ffdec:characterId="3" height="30.0" transform="matrix(1.0, 0.0, 0.0, 1.0, 0.0, 0.0)" width="30.0" xlink:href="#sprite0"/>
    <use ffdec:characterId="13" height="210.0" transform="matrix(0.0938, 0.0, 0.0, 0.0938, 4.0365, 5.0401)" width="215.7" xlink:href="#sprite1"/>
  </g>
  <defs>
    <g id="shape0" transform="matrix(1.0, 0.0, 0.0, 1.0, 0.0, 0.0)">
      <path d="M0.0 0.0 L30.0 0.0 30.0 30.0 0.0 30.0 0.0 0.0" fill="#33cc66" fill-opacity="0.0" fill-rule="evenodd" stroke="none"/>
    </g>
    <g id="sprite0" transform="matrix(1.0, 0.0, 0.0, 1.0, 0.0, 0.1)">
      <use ffdec:characterId="2" height="30.0" transform="matrix(1.0, 0.0, 0.0, 1.0, 0.0, -0.1)" width="30.0" xlink:href="#shape1"/>
    </g>
    <g id="shape1" transform="matrix(1.0, 0.0, 0.0, 1.0, 0.0, 0.1)">
      <path d="M3.3 -0.1 L26.7 -0.1 Q30.0 -0.1 30.0 3.2 L30.0 26.6 Q30.0 29.9 26.7 29.9 L3.3 29.9 Q0.0 29.9 0.0 26.6 L0.0 3.2 Q0.0 -0.1 3.3 -0.1" fill="#49517a" fill-rule="evenodd" stroke="none"/>
    </g>
    <g id="sprite1" transform="matrix(1.0, 0.0, 0.0, 1.0, 55.05, 80.6)">
      <filter id="filter10">
        <feColorMatrix in="SourceGraphic" result="filterResult38" type="matrix" values="0.97984445 0.5394134 -0.5192579 0.0 0.0 -0.043500833 0.8681576 0.17534319 0.0 0.0 0.48992527 -0.28080088 0.7908756 0.0 0.0 0.0 0.0 0.0 1.0 0.0"/>
      </filter>
      <use ffdec:characterId="12" filter="url(#filter10)" height="934.2" transform="matrix(0.2248, 0.0, 0.0, 0.2248, -55.0464, -80.5802)" width="959.55" xlink:href="#sprite2"/>
    </g>
    <g id="sprite2" transform="matrix(1.0, 0.0, 0.0, 1.0, 16.0, 16.15)">
      <filter id="filter0">
        <feColorMatrix in="SourceGraphic" result="filterResult0" type="matrix" values="0 0 0 0 0.0,0 0 0 0 0.4,0 0 0 0 1.0,0 0 0 1 0"/>
        <feConvolveMatrix divisor="81.0" in="filterResult0" kernelMatrix="1 1 1 1 1 1 1 1 1 1 1 1 1 1 1 1 1 1 1 1 1 1 1 1 1 1 1 1 1 1 1 1 1 1 1 1 1 1 1 1 1 1 1 1 1 1 1 1 1 1 1 1 1 1 1 1 1 1 1 1 1 1 1 1 1 1 1 1 1 1 1 1 1 1 1 1 1 1 1 1 1" order="9 9" result="filterResult1"/>
        <feComposite in="SourceGraphic" in2="filterResult1" operator="over" result="filterResult2"/>
      </filter>
      <use ffdec:characterId="5" filter="url(#filter0)" height="54.95" transform="matrix(10.0286, 5.7898, -5.9921, 10.3789, 313.2635, -16.1687)" width="62.85" xlink:href="#sprite3"/>
      <filter id="filter1">
        <feColorMatrix in="SourceGraphic" result="filterResult3" type="matrix" values="0 0 0 0 0.0,0 0 0 0 0.4,0 0 0 0 1.0,0 0 0 1 0"/>
        <feConvolveMatrix divisor="81.0" in="filterResult3" kernelMatrix="1 1 1 1 1 1 1 1 1 1 1 1 1 1 1 1 1 1 1 1 1 1 1 1 1 1 1 1 1 1 1 1 1 1 1 1 1 1 1 1 1 1 1 1 1 1 1 1 1 1 1 1 1 1 1 1 1 1 1 1 1 1 1 1 1 1 1 1 1 1 1 1 1 1 1 1 1 1 1 1 1" order="9 9" result="filterResult4"/>
        <feComposite in="SourceGraphic" in2="filterResult4" operator="over" result="filterResult5"/>
      </filter>
      <use ffdec:characterId="7" filter="url(#filter1)" height="54.95" transform="matrix(11.5798, 0.0, 0.0, 11.9844, 99.7202, 121.1656)" width="62.85" xlink:href="#sprite4"/>
      <filter id="filter2">
        <feConvolveMatrix divisor="4.0" in="SourceGraphic" kernelMatrix="1 1 1 1" order="2 2" result="filterResult6"/>
        <feColorMatrix in="filterResult6" result="filterResult7" type="matrix" values="0 0 0 0 1.0,0 0 0 0 1.0,0 0 0 0 1.0,0 0 0 1 0"/>
        <feConvolveMatrix divisor="49.0" in="filterResult7" kernelMatrix="1 1 1 1 1 1 1 1 1 1 1 1 1 1 1 1 1 1 1 1 1 1 1 1 1 1 1 1 1 1 1 1 1 1 1 1 1 1 1 1 1 1 1 1 1 1 1 1 1" order="7 7" result="filterResult8"/>
        <feComposite in="filterResult6" in2="filterResult8" operator="over" result="filterResult9"/>
      </filter>
      <use ffdec:characterId="9" filter="url(#filter2)" height="9.55" transform="matrix(3.375, 0.0, 0.0, 3.375, 285.6938, 414.4187)" width="10.05" xlink:href="#sprite5"/>
      <filter id="filter3">
        <feConvolveMatrix divisor="4.0" in="SourceGraphic" kernelMatrix="1 1 1 1" order="2 2" result="filterResult10"/>
        <feColorMatrix in="filterResult10" result="filterResult11" type="matrix" values="0 0 0 0 1.0,0 0 0 0 1.0,0 0 0 0 1.0,0 0 0 1 0"/>
        <feConvolveMatrix divisor="49.0" in="filterResult11" kernelMatrix="1 1 1 1 1 1 1 1 1 1 1 1 1 1 1 1 1 1 1 1 1 1 1 1 1 1 1 1 1 1 1 1 1 1 1 1 1 1 1 1 1 1 1 1 1 1 1 1 1" order="7 7" result="filterResult12"/>
        <feComposite in="filterResult10" in2="filterResult12" operator="over" result="filterResult13"/>
      </filter>
      <use ffdec:characterId="9" filter="url(#filter3)" height="9.55" transform="matrix(15.0646, 0.0, 0.0, 15.0646, 327.8403, 247.8532)" width="10.05" xlink:href="#sprite5"/>
      <filter id="filter4">
        <feConvolveMatrix divisor="4.0" in="SourceGraphic" kernelMatrix="1 1 1 1" order="2 2" result="filterResult14"/>
        <feColorMatrix in="filterResult14" result="filterResult15" type="matrix" values="0 0 0 0 1.0,0 0 0 0 1.0,0 0 0 0 1.0,0 0 0 1 0"/>
        <feConvolveMatrix divisor="49.0" in="filterResult15" kernelMatrix="1 1 1 1 1 1 1 1 1 1 1 1 1 1 1 1 1 1 1 1 1 1 1 1 1 1 1 1 1 1 1 1 1 1 1 1 1 1 1 1 1 1 1 1 1 1 1 1 1" order="7 7" result="filterResult16"/>
        <feComposite in="filterResult14" in2="filterResult16" operator="over" result="filterResult17"/>
      </filter>
      <use ffdec:characterId="9" filter="url(#filter4)" height="9.55" transform="matrix(6.4567, 0.0, 0.0, 6.4567, 239.9315, 563.2228)" width="10.05" xlink:href="#sprite5"/>
      <filter id="filter5">
        <feConvolveMatrix divisor="4.0" in="SourceGraphic" kernelMatrix="1 1 1 1" order="2 2" result="filterResult18"/>
        <feColorMatrix in="filterResult18" result="filterResult19" type="matrix" values="0 0 0 0 1.0,0 0 0 0 1.0,0 0 0 0 1.0,0 0 0 1 0"/>
        <feConvolveMatrix divisor="49.0" in="filterResult19" kernelMatrix="1 1 1 1 1 1 1 1 1 1 1 1 1 1 1 1 1 1 1 1 1 1 1 1 1 1 1 1 1 1 1 1 1 1 1 1 1 1 1 1 1 1 1 1 1 1 1 1 1" order="7 7" result="filterResult20"/>
        <feComposite in="filterResult18" in2="filterResult20" operator="over" result="filterResult21"/>
      </filter>
      <use ffdec:characterId="9" filter="url(#filter5)" height="9.55" transform="matrix(7.3078, 0.0, 0.0, 7.3078, 654.7538, 668.0654)" width="10.05" xlink:href="#sprite5"/>
      <filter id="filter6">
        <feConvolveMatrix divisor="4.0" in="SourceGraphic" kernelMatrix="1 1 1 1" order="2 2" result="filterResult22"/>
        <feColorMatrix in="filterResult22" result="filterResult23" type="matrix" values="0 0 0 0 1.0,0 0 0 0 1.0,0 0 0 0 1.0,0 0 0 1 0"/>
        <feConvolveMatrix divisor="49.0" in="filterResult23" kernelMatrix="1 1 1 1 1 1 1 1 1 1 1 1 1 1 1 1 1 1 1 1 1 1 1 1 1 1 1 1 1 1 1 1 1 1 1 1 1 1 1 1 1 1 1 1 1 1 1 1 1" order="7 7" result="filterResult24"/>
        <feComposite in="filterResult22" in2="filterResult24" operator="over" result="filterResult25"/>
      </filter>
      <use ffdec:characterId="9" filter="url(#filter6)" height="9.55" transform="matrix(3.375, 0.0, 0.0, 3.375, 294.1938, 623.9687)" width="10.05" xlink:href="#sprite5"/>
      <filter id="filter7">
        <feColorMatrix in="SourceGraphic" result="filterResult26" type="matrix" values="0 0 0 0 0.0,0 0 0 0 1.0,0 0 0 0 1.0,0 0 0 1 0"/>
        <feConvolveMatrix divisor="9.0" in="filterResult26" kernelMatrix="1 1 1 1 1 1 1 1 1" order="3 3" result="filterResult27"/>
        <feComposite in="SourceGraphic" in2="filterResult27" operator="over" result="filterResult28"/>
        <feConvolveMatrix divisor="4.0" in="filterResult28" kernelMatrix="1 1 1 1" order="2 2" result="filterResult29"/>
      </filter>
      <use ffdec:characterId="11" filter="url(#filter7)" height="22.45" transform="matrix(10.5276, 7.8578, -7.8578, 10.5276, 289.2853, 207.3666)" width="45.05" xlink:href="#sprite6"/>
      <filter id="filter8">
        <feConvolveMatrix divisor="4.0" in="SourceGraphic" kernelMatrix="1 1 1 1" order="2 2" result="filterResult30"/>
        <feColorMatrix in="filterResult30" result="filterResult31" type="matrix" values="0 0 0 0 1.0,0 0 0 0 1.0,0 0 0 0 1.0,0 0 0 1 0"/>
        <feConvolveMatrix divisor="49.0" in="filterResult31" kernelMatrix="1 1 1 1 1 1 1 1 1 1 1 1 1 1 1 1 1 1 1 1 1 1 1 1 1 1 1 1 1 1 1 1 1 1 1 1 1 1 1 1 1 1 1 1 1 1 1 1 1" order="7 7" result="filterResult32"/>
        <feComposite in="filterResult30" in2="filterResult32" operator="over" result="filterResult33"/>
      </filter>
      <use ffdec:characterId="9" filter="url(#filter8)" height="9.55" transform="matrix(5.648, 0.0, 0.0, 5.648, 586.2528, 311.0324)" width="10.05" xlink:href="#sprite5"/>
      <filter id="filter9">
        <feConvolveMatrix divisor="4.0" in="SourceGraphic" kernelMatrix="1 1 1 1" order="2 2" result="filterResult34"/>
        <feColorMatrix in="filterResult34" result="filterResult35" type="matrix" values="0 0 0 0 1.0,0 0 0 0 1.0,0 0 0 0 1.0,0 0 0 1 0"/>
        <feConvolveMatrix divisor="49.0" in="filterResult35" kernelMatrix="1 1 1 1 1 1 1 1 1 1 1 1 1 1 1 1 1 1 1 1 1 1 1 1 1 1 1 1 1 1 1 1 1 1 1 1 1 1 1 1 1 1 1 1 1 1 1 1 1" order="7 7" result="filterResult36"/>
        <feComposite in="filterResult34" in2="filterResult36" operator="over" result="filterResult37"/>
      </filter>
      <use ffdec:characterId="9" filter="url(#filter9)" height="9.55" transform="matrix(3.375, 0.0, 0.0, 3.375, 646.1438, 366.9687)" width="10.05" xlink:href="#sprite5"/>
    </g>
    <g id="sprite3" transform="matrix(1.0, 0.0, 0.0, 1.0, 1.0, 1.0)">
      <use ffdec:characterId="4" height="54.95" transform="matrix(1.0, 0.0, 0.0, 1.0, -1.0, -1.0)" width="62.85" xlink:href="#shape2"/>
    </g>
    <g id="shape2" transform="matrix(1.0, 0.0, 0.0, 1.0, 1.0, 1.0)">
      <path d="M45.2 17.05 L45.1 0.8 31.1 8.95 45.2 17.05 60.85 26.1 45.2 35.2 45.2 52.95 29.8 44.05 15.75 52.1 15.75 35.95 0.0 26.85 15.65 17.8 15.65 0.0 31.1 8.95 Q23.35 13.3 15.65 17.8 L15.75 35.95 29.8 44.05 45.2 35.2 45.2 17.05 Z" fill="none" stroke="#0046a8" stroke-linecap="round" stroke-linejoin="round" stroke-width="2.0"/>
    </g>
    <g id="sprite4" transform="matrix(1.0, 0.0, 0.0, 1.0, 1.0, 1.0)">
      <use ffdec:characterId="6" height="54.95" transform="matrix(1.0, 0.0, 0.0, 1.0, -1.0, -1.0)" width="62.85" xlink:href="#shape3"/>
    </g>
    <g id="shape3" transform="matrix(1.0, 0.0, 0.0, 1.0, 1.0, 1.0)">
      <path d="M60.85 26.1 L45.2 35.2 45.2 52.95 29.8 44.05 15.75 52.1 15.75 35.95 0.0 26.85 15.65 17.8 15.65 0.0 31.1 8.95 45.1 0.8 45.2 17.05 60.85 26.1 M31.1 8.95 L45.2 17.05 45.2 35.2 29.8 44.05 15.75 35.95 15.65 17.8 Q23.35 13.3 31.1 8.95 Z" fill="none" stroke="#0099ff" stroke-linecap="round" stroke-linejoin="round" stroke-width="2.0"/>
    </g>
    <g id="sprite5" transform="matrix(1.0, 0.0, 0.0, 1.0, 0.15, -0.05)">
      <use ffdec:characterId="8" height="9.55" transform="matrix(1.0, 0.0, 0.0, 1.0, -0.15, 0.05)" width="10.05" xlink:href="#shape4"/>
    </g>
    <g id="shape4" transform="matrix(1.0, 0.0, 0.0, 1.0, 0.15, -0.05)">
      <path d="M-0.15 5.95 L2.0 3.4 1.75 0.05 4.9 1.3 8.0 0.05 7.75 3.4 9.9 5.95 6.65 6.75 4.9 9.6 3.1 6.75 -0.15 5.95" fill="#ffffff" fill-rule="evenodd" stroke="none"/>
    </g>
    <g id="sprite6" transform="matrix(1.0, 0.0, 0.0, 1.0, 0.0, -0.6)">
      <use ffdec:characterId="10" height="22.45" transform="matrix(1.0, 0.0, 0.0, 1.0, 0.0, 0.6)" width="45.05" xlink:href="#shape5"/>
    </g>
    <g id="shape5" transform="matrix(1.0, 0.0, 0.0, 1.0, 0.0, -0.6)">
      <path d="M33.45 21.3 L32.95 23.05 Q27.0 23.25 19.9 21.4 13.55 19.7 8.85 16.95 L9.35 15.1 Q13.95 18.1 20.45 19.85 27.55 21.75 33.45 21.3" fill="#ffffff" fill-rule="evenodd" stroke="none"/>
      <path d="M33.45 21.3 L35.3 21.05 35.35 21.0 Q42.0 20.1 42.95 16.45 43.4 14.8 42.55 13.0 L43.85 12.65 Q45.5 15.15 44.9 17.5 43.8 21.55 36.45 22.65 L32.95 23.05 33.45 21.3 M8.85 16.95 L4.8 14.2 Q-0.9 9.6 0.2 5.55 1.15 1.9 7.2 0.6 L7.45 1.65 Q3.5 2.85 2.75 5.65 1.8 9.3 6.95 13.4 L8.2 14.3 9.35 15.1 8.85 16.95" fill="#c2f3ff" fill-rule="evenodd" stroke="none"/>
    </g>
  </defs>
</svg>
