<?xml version="1.0" encoding="UTF-8" standalone="no"?>
<svg xmlns:ffdec="https://www.free-decompiler.com/flash" xmlns:xlink="http://www.w3.org/1999/xlink" ffdec:objectType="frame" height="30.0px" width="30.0px" xmlns="http://www.w3.org/2000/svg">
  <g transform="matrix(1.0, 0.0, 0.0, 1.0, 0.0, 0.0)">
    <use ffdec:characterId="1" height="30.0" transform="matrix(1.0, 0.0, 0.0, 1.0, 0.0, 0.0)" width="30.0" xlink:href="#shape0"/>
    <use ffdec:characterId="3" height="30.0" transform="matrix(1.0, 0.0, 0.0, 1.0, 0.0, 0.0)" width="30.0" xlink:href="#sprite0"/>
    <use ffdec:characterId="5" height="287.2" transform="matrix(0.0938, 0.0, 0.0, 0.0938, 5.9078, 1.1522)" width="192.55" xlink:href="#sprite1"/>
  </g>
  <defs>
    <g id="shape0" transform="matrix(1.0, 0.0, 0.0, 1.0, 0.0, 0.0)">
      <path d="M0.0 0.0 L30.0 0.0 30.0 30.0 0.0 30.0 0.0 0.0" fill="#33cc66" fill-opacity="0.0" fill-rule="evenodd" stroke="none"/>
    </g>
    <g id="sprite0" transform="matrix(1.0, 0.0, 0.0, 1.0, 0.0, 0.1)">
      <use ffdec:characterId="2" height="30.0" transform="matrix(1.0, 0.0, 0.0, 1.0, 0.0, -0.1)" width="30.0" xlink:href="#shape1"/>
    </g>
    <g id="shape1" transform="matrix(1.0, 0.0, 0.0, 1.0, 0.0, 0.1)">
      <path d="M3.3 -0.1 L26.7 -0.1 Q30.0 -0.1 30.0 3.2 L30.0 26.6 Q30.0 29.9 26.7 29.9 L3.3 29.9 Q0.0 29.9 0.0 26.6 L0.0 3.2 Q0.0 -0.1 3.3 -0.1" fill="#49517a" fill-rule="evenodd" stroke="none"/>
    </g>
    <g id="sprite1" transform="matrix(1.0, 0.0, 0.0, 1.0, 35.1, 122.05)">
      <use ffdec:characterId="4" height="287.2" transform="matrix(1.0, 0.0, 0.0, 1.0, -35.1, -122.05)" width="192.55" xlink:href="#shape2"/>
    </g>
    <g id="shape2" transform="matrix(1.0, 0.0, 0.0, 1.0, 35.1, 122.05)">
      <path d="M22.4 -12.85 Q22.35 -36.7 17.3 -59.6 2.85 -82.9 -18.65 -97.65 L-23.7 -74.35 -16.05 -70.35 Q-11.0 -74.2 -6.05 -78.7 -9.8 -69.7 -13.65 -61.4 -24.25 -63.8 -34.95 -66.85 -31.35 -94.25 -28.2 -121.9 3.45 -101.45 34.45 -68.55 40.8 -55.65 44.95 -43.05 42.2 -44.35 38.0 -45.4 L34.2 -52.25 Q28.25 -61.25 19.4 -69.7 L18.5 -72.8 18.45 -71.0 19.4 -69.7 Q29.15 -48.45 30.5 -35.3 27.85 -24.35 22.4 -12.85" fill="#640e0e" fill-rule="evenodd" stroke="none"/>
      <path d="M22.4 -12.85 Q27.85 -24.35 30.5 -35.3 29.15 -48.45 19.4 -69.7 L18.45 -71.0 18.5 -72.8 19.4 -69.7 Q28.25 -61.25 34.2 -52.25 L38.0 -45.4 Q42.2 -44.35 44.95 -43.05 53.05 -21.1 56.85 1.7 65.4 30.05 81.0 53.55 88.6 63.65 97.3 71.45 115.85 89.6 137.95 99.95 L139.95 106.85 Q138.3 105.7 127.95 100.35 L113.6 92.95 Q110.3 90.7 97.6 78.95 95.95 77.8 94.6 76.25 79.35 62.1 67.9 41.5 55.45 3.75 40.3 -37.15 L40.0 -36.75 Q40.8 -5.1 31.5 12.9 29.95 16.1 28.0 19.0 L26.0 21.9 Q28.8 52.4 36.85 72.55 40.75 81.9 44.4 89.95 47.4 96.25 50.4 100.75 L55.6 109.15 Q56.65 111.15 58.15 113.35 L63.1 116.75 Q73.7 127.1 89.45 136.1 105.35 145.75 123.0 147.5 L152.9 151.0 157.3 165.0 Q99.35 156.25 51.15 116.5 27.6 75.35 20.7 18.85 22.45 3.0 22.4 -12.85" fill="#a51d33" fill-rule="evenodd" stroke="none"/>
      <path d="M36.1 54.95 Q32.25 40.2 37.8 33.0 L38.4 32.15 42.95 25.55 Q44.15 30.05 46.65 37.85 48.0 41.2 48.65 44.75 47.5 48.2 47.45 51.8 45.1 60.55 43.75 68.75 L42.55 74.0 42.1 73.75 Q38.35 63.25 36.1 54.95 M62.8 60.55 Q55.9 64.35 59.0 71.35 59.25 70.9 59.7 71.15 62.85 66.6 62.8 60.55 M62.9 59.4 Q64.0 64.95 66.35 73.95 L67.6 74.8 90.95 97.55 100.3 106.95 Q93.15 109.35 83.4 111.2 66.9 113.9 64.85 110.65 59.0 102.4 56.4 88.4 L55.5 83.5 Q53.65 65.8 62.9 59.4 M32.7 17.35 L35.3 11.8 39.0 6.4 39.45 14.65 Q38.35 16.3 33.4 20.85 L30.35 24.25 Q30.05 22.15 32.7 17.35" fill="#ffd05d" fill-rule="evenodd" stroke="none"/>
      <path d="M62.8 60.55 Q62.85 66.6 59.7 71.15 59.25 70.9 59.0 71.35 55.9 64.35 62.8 60.55" fill="#fff3cb" fill-rule="evenodd" stroke="none"/>
      <path d="M52.15 83.05 Q52.55 65.65 63.15 54.65 L69.7 74.4 Q80.75 87.45 91.8 96.3 97.9 101.65 104.1 105.9 114.45 113.0 124.4 118.05 L122.9 141.4 Q95.35 132.8 66.2 115.85 57.15 105.95 52.35 91.7 51.85 87.1 52.15 83.05 M62.9 59.4 Q53.65 65.8 55.5 83.5 L56.4 88.4 Q59.0 102.4 64.85 110.65 66.9 113.9 83.4 111.2 93.15 109.35 100.3 106.95 L90.95 97.55 67.6 74.8 66.35 73.95 Q64.0 64.95 62.9 59.4" fill="url(#gradient0)" fill-rule="evenodd" stroke="none"/>
      <path d="M91.8 96.3 Q80.75 87.45 69.7 74.4 L63.15 54.65 Q52.55 65.65 52.15 83.05 48.75 78.25 44.95 71.4 L43.75 68.75 Q45.1 60.55 47.45 51.8 47.5 48.2 48.65 44.75 48.0 41.2 46.65 37.85 44.15 30.05 42.95 25.55 L38.4 32.15 37.8 33.0 Q32.25 40.2 36.1 54.95 38.65 74.4 44.4 89.95 40.75 81.9 36.85 72.55 28.8 52.4 26.0 21.9 L28.0 19.0 Q29.95 16.1 31.5 12.9 40.8 -5.1 40.0 -36.75 L40.3 -37.15 Q55.45 3.75 67.9 41.5 79.35 62.1 94.6 76.25 95.95 77.8 97.6 78.95 97.2 88.45 92.35 95.45 L91.8 96.3 M32.7 17.35 Q30.05 22.15 30.35 24.25 L33.4 20.85 Q38.35 16.3 39.45 14.65 L39.0 6.4 35.3 11.8 32.7 17.35" fill="#f61d33" fill-rule="evenodd" stroke="none"/>
      <path d="M52.15 83.05 Q51.85 87.1 52.35 91.7 57.15 105.95 66.2 115.85 95.35 132.8 122.9 141.4 L124.4 118.05 Q114.45 113.0 104.1 105.9 97.9 101.65 91.8 96.3 L92.35 95.45 Q97.2 88.45 97.6 78.95 110.3 90.7 113.6 92.95 L127.95 100.35 Q138.3 105.7 139.95 106.85 L152.9 151.0 123.0 147.5 Q105.35 145.75 89.45 136.1 73.7 127.1 63.1 116.75 L58.15 113.35 Q56.65 111.15 55.6 109.15 L50.4 100.75 Q47.4 96.25 44.4 89.95 38.65 74.4 36.1 54.95 38.35 63.25 42.1 73.75 L42.55 74.0 43.75 68.75 44.95 71.4 Q48.75 78.25 52.15 83.05" fill="#ff4141" fill-rule="evenodd" stroke="none"/>
      <path d="M44.95 -43.05 Q40.8 -55.65 34.45 -68.55 3.45 -101.45 -28.2 -121.9 -31.35 -94.25 -34.95 -66.85 -24.25 -63.8 -13.65 -61.4 -9.8 -69.7 -6.05 -78.7 -11.0 -74.2 -16.05 -70.35 L-23.7 -74.35 -18.65 -97.65 Q2.85 -82.9 17.3 -59.6 22.35 -36.7 22.4 -12.85 22.45 3.0 20.7 18.85 27.6 75.35 51.15 116.5 99.35 156.25 157.3 165.0 L152.9 151.0 139.95 106.85 137.95 99.95 Q137.05 96.9 136.45 93.4 M44.95 -43.05 Q53.05 -21.1 56.85 1.7 65.4 30.05 81.0 53.55 88.6 63.65 97.3 71.45 115.85 89.6 137.95 99.95" fill="none" stroke="#911d0f" stroke-linecap="round" stroke-linejoin="round" stroke-width="0.30000000000000004"/>
    </g>
    <linearGradient gradientTransform="matrix(0.0778, 0.0296, -0.0131, 0.0345, 116.25, 111.2)" gradientUnits="userSpaceOnUse" id="gradient0" spreadMethod="pad" x1="-819.2" x2="819.2">
      <stop offset="0.0" stop-color="#f0a761"/>
      <stop offset="1.0" stop-color="#ff5d5d"/>
    </linearGradient>
  </defs>
</svg>
