<?xml version="1.0" encoding="UTF-8" standalone="no"?>
<svg xmlns:ffdec="https://www.free-decompiler.com/flash" xmlns:xlink="http://www.w3.org/1999/xlink" ffdec:objectType="frame" height="30.0px" width="30.0px" xmlns="http://www.w3.org/2000/svg">
  <g transform="matrix(1.0, 0.0, 0.0, 1.0, 0.0, 0.0)">
    <use ffdec:characterId="1" height="30.0" transform="matrix(1.0, 0.0, 0.0, 1.0, 0.0, 0.0)" width="30.0" xlink:href="#shape0"/>
    <use ffdec:characterId="5" height="40.0" transform="matrix(0.6033, 0.0, 0.0, 0.6033, 3.8393, 2.2053)" width="34.7" xlink:href="#sprite0"/>
  </g>
  <defs>
    <g id="shape0" transform="matrix(1.0, 0.0, 0.0, 1.0, 0.0, 0.0)">
      <path d="M0.0 0.0 L30.0 0.0 30.0 30.0 0.0 30.0 0.0 0.0" fill="#33cc66" fill-opacity="0.0" fill-rule="evenodd" stroke="none"/>
      <path d="M27.75 0.1 Q30.0 0.6 30.0 3.3 L30.0 26.7 Q30.0 29.4 27.75 29.9 L26.7 30.0 3.3 30.0 Q0.0 30.0 0.0 26.7 L0.0 3.3 Q0.0 0.0 3.3 0.0 L26.7 0.0 27.75 0.1" fill="#333333" fill-rule="evenodd" stroke="none"/>
    </g>
    <g id="sprite0" transform="matrix(1.0, 0.0, 0.0, 1.0, -2.8, 1.4)">
      <filter id="filter0">
        <feColorMatrix in="SourceGraphic" result="filterResult0" type="matrix" values="0 0 0 0 0.4,0 0 0 0 0.0,0 0 0 0 0.8,0 0 0 1 0"/>
        <feConvolveMatrix divisor="225.0" in="filterResult0" kernelMatrix="1 1 1 1 1 1 1 1 1 1 1 1 1 1 1 1 1 1 1 1 1 1 1 1 1 1 1 1 1 1 1 1 1 1 1 1 1 1 1 1 1 1 1 1 1 1 1 1 1 1 1 1 1 1 1 1 1 1 1 1 1 1 1 1 1 1 1 1 1 1 1 1 1 1 1 1 1 1 1 1 1 1 1 1 1 1 1 1 1 1 1 1 1 1 1 1 1 1 1 1 1 1 1 1 1 1 1 1 1 1 1 1 1 1 1 1 1 1 1 1 1 1 1 1 1 1 1 1 1 1 1 1 1 1 1 1 1 1 1 1 1 1 1 1 1 1 1 1 1 1 1 1 1 1 1 1 1 1 1 1 1 1 1 1 1 1 1 1 1 1 1 1 1 1 1 1 1 1 1 1 1 1 1 1 1 1 1 1 1 1 1 1 1 1 1 1 1 1 1 1 1 1 1 1 1 1 1 1 1 1 1 1 1 1 1 1 1 1 1 1 1 1 1 1 1" order="15 15" result="filterResult1"/>
        <feComposite in="SourceGraphic" in2="filterResult1" operator="over" result="filterResult2"/>
        <feConvolveMatrix divisor="9.0" in="filterResult2" kernelMatrix="1 1 1 1 1 1 1 1 1" order="3 3" result="filterResult3"/>
      </filter>
      <use ffdec:characterId="3" filter="url(#filter0)" height="56.9" transform="matrix(0.7702, 0.0, 0.0, 0.703, 2.8, -1.4)" width="45.05" xlink:href="#sprite1"/>
      <use ffdec:characterId="4" height="26.9" transform="matrix(1.0, 0.0, 0.0, 1.0, 9.2, 8.4)" width="20.35" xlink:href="#shape2"/>
    </g>
    <g id="sprite1" transform="matrix(1.0, 0.0, 0.0, 1.0, 0.0, 0.0)">
      <use ffdec:characterId="2" height="56.9" transform="matrix(1.0, 0.0, 0.0, 1.0, 0.0, 0.0)" width="45.05" xlink:href="#shape1"/>
    </g>
    <g id="shape1" transform="matrix(1.0, 0.0, 0.0, 1.0, 0.0, 0.0)">
      <path d="M40.85 35.25 L44.9 28.0 Q46.2 42.95 34.65 49.0 29.75 51.5 25.95 55.15 23.25 57.85 19.45 56.35 1.9 48.9 2.5 31.0 L2.6 31.95 Q3.1 34.05 3.9 36.05 4.65 38.0 6.0 39.5 7.65 27.15 4.4 16.15 3.35 12.45 0.0 10.6 L0.0 10.1 0.25 10.05 8.5 15.0 8.5 8.5 9.75 9.95 Q12.05 12.65 13.25 15.95 L14.0 18.15 15.0 12.5 16.0 16.5 Q17.7 11.95 20.85 7.75 24.45 3.0 29.5 0.0 28.9 2.25 27.85 4.2 24.7 9.9 26.5 16.5 L29.0 10.55 28.8 12.0 28.6 13.25 Q28.3 15.3 29.35 17.0 L30.0 18.0 32.55 17.65 33.0 13.5 Q36.9 16.0 39.05 20.2 42.75 27.45 40.85 35.25" fill="url(#gradient0)" fill-rule="evenodd" stroke="none"/>
    </g>
    <radialGradient cx="0" cy="0" gradientTransform="matrix(0.0275, 0.0, 0.0, 0.0381, 21.0, 31.1)" gradientUnits="userSpaceOnUse" id="gradient0" r="819.2" spreadMethod="pad">
      <stop offset="0.0" stop-color="#ff6666"/>
      <stop offset="1.0" stop-color="#660000"/>
    </radialGradient>
    <g id="shape2" transform="matrix(1.0, 0.0, 0.0, 1.0, -9.2, -8.4)">
      <path d="M24.7 23.25 L24.7 22.2 Q24.25 15.9 20.8 10.5 14.55 14.9 11.8 21.2 L13.15 21.65 Q18.5 23.35 23.95 23.75 L24.55 23.75 24.7 23.75 24.7 23.6 24.7 23.25 M25.25 33.95 L24.6 33.65 Q16.85 30.0 11.1 23.3 L9.7 21.5 Q12.9 14.4 20.45 8.9 L21.35 9.7 Q25.6 13.9 28.15 20.05 L28.6 22.0 Q28.15 22.5 27.85 23.3 L27.8 21.45 Q26.75 22.95 24.7 24.2 L24.95 24.8 Q26.0 27.25 26.3 29.6 L26.45 30.9 Q26.05 32.5 25.25 33.95 M12.15 23.05 Q15.05 26.85 18.5 28.9 L23.2 31.45 Q24.2 32.1 25.35 32.6 L25.35 31.9 Q23.95 28.65 21.5 26.55 22.95 27.25 24.15 29.05 L25.8 31.8 24.2 24.75 20.1 24.1 14.05 22.65 14.65 23.3 11.5 22.1 12.15 23.05" fill="#791126" fill-rule="evenodd" stroke="none"/>
      <path d="M20.7 11.2 Q19.65 11.75 19.05 13.6 18.45 15.25 18.45 16.5 18.45 18.75 20.7 20.5 22.4 21.65 24.6 22.1 24.35 21.45 24.2 20.05 L23.5 16.95 22.55 13.7 Q21.9 12.1 20.7 11.2 M24.7 23.25 Q17.65 20.75 17.65 17.1 17.65 16.25 18.0 14.75 L18.45 13.5 Q16.2 15.6 15.05 18.05 L13.15 21.65 11.8 21.2 Q14.55 14.9 20.8 10.5 24.25 15.9 24.7 22.2 L24.7 23.25" fill="#ff6d25" fill-rule="evenodd" stroke="none"/>
      <path d="M20.7 11.2 Q21.9 12.1 22.55 13.7 L23.5 16.95 24.2 20.05 Q24.35 21.45 24.6 22.1 22.4 21.65 20.7 20.5 18.45 18.75 18.45 16.5 18.45 15.25 19.05 13.6 19.65 11.75 20.7 11.2" fill="#ffb983" fill-rule="evenodd" stroke="none"/>
      <path d="M13.15 21.65 L15.05 18.05 Q16.2 15.6 18.45 13.5 L18.0 14.75 Q17.65 16.25 17.65 17.1 17.65 20.75 24.7 23.25 L24.7 23.6 24.7 23.75 24.55 23.75 23.95 23.75 Q18.5 23.35 13.15 21.65" fill="#c43013" fill-rule="evenodd" stroke="none"/>
      <path d="M26.45 30.9 L26.3 29.6 Q26.0 27.25 24.95 24.8 L24.7 24.2 Q26.75 22.95 27.8 21.45 L27.85 23.3 Q26.95 25.1 26.95 27.55 L26.45 30.9 M14.65 23.3 L14.05 22.65 20.1 24.1 24.2 24.75 25.8 31.8 24.15 29.05 Q22.95 27.25 21.5 26.55 L21.45 26.5 Q20.35 25.55 19.05 24.9 L14.65 23.3" fill="#510716" fill-rule="evenodd" stroke="none"/>
      <path d="M28.6 22.0 Q29.9 28.9 27.4 34.8 L25.25 33.95 Q26.05 32.5 26.45 30.9 L26.95 27.55 Q26.95 25.1 27.85 23.3 28.15 22.5 28.6 22.0 M23.2 31.45 L21.35 29.05 Q16.65 23.3 12.15 23.05 L11.5 22.1 14.65 23.3 19.05 24.9 Q20.35 25.55 21.45 26.5 L21.5 26.55 Q23.95 28.65 25.35 31.9 L25.35 32.6 Q24.2 32.1 23.2 31.45" fill="#69208c" fill-rule="evenodd" stroke="none"/>
      <path d="M23.2 31.45 L18.5 28.9 Q15.05 26.85 12.15 23.05 16.65 23.3 21.35 29.05 L23.2 31.45" fill="#8634ad" fill-rule="evenodd" stroke="none"/>
      <path d="M25.25 33.95 L24.6 33.65 Q16.85 30.0 11.1 23.3 L9.7 21.5 Q12.9 14.4 20.45 8.9 L21.35 9.7 Q25.6 13.9 28.15 20.05 L28.6 22.0 Q29.9 28.9 27.4 34.8 L25.25 33.95 Z" fill="none" stroke="#470012" stroke-linecap="round" stroke-linejoin="round" stroke-width="1.0"/>
    </g>
  </defs>
</svg>
