<?xml version="1.0" encoding="UTF-8" standalone="no"?>
<svg xmlns:ffdec="https://www.free-decompiler.com/flash" xmlns:xlink="http://www.w3.org/1999/xlink" ffdec:objectType="frame" height="30.0px" width="30.0px" xmlns="http://www.w3.org/2000/svg">
  <g transform="matrix(1.0, 0.0, 0.0, 1.0, 0.0, 0.0)">
    <use ffdec:characterId="1" height="30.0" transform="matrix(1.0, 0.0, 0.0, 1.0, 0.0, 0.0)" width="30.0" xlink:href="#shape0"/>
    <use ffdec:characterId="3" height="30.0" transform="matrix(1.0, 0.0, 0.0, 1.0, 0.0, 0.0)" width="30.0" xlink:href="#sprite0"/>
    <use ffdec:characterId="4" height="26.6" transform="matrix(1.0, 0.0, 0.0, 1.0, 7.05, 1.65)" width="15.7" xlink:href="#shape2"/>
  </g>
  <defs>
    <g id="shape0" transform="matrix(1.0, 0.0, 0.0, 1.0, 0.0, 0.0)">
      <path d="M0.0 0.0 L30.0 0.0 30.0 30.0 0.0 30.0 0.0 0.0" fill="#33cc66" fill-opacity="0.0" fill-rule="evenodd" stroke="none"/>
    </g>
    <g id="sprite0" transform="matrix(1.0, 0.0, 0.0, 1.0, 0.0, 0.1)">
      <use ffdec:characterId="2" height="30.0" transform="matrix(1.0, 0.0, 0.0, 1.0, 0.0, -0.1)" width="30.0" xlink:href="#shape1"/>
    </g>
    <g id="shape1" transform="matrix(1.0, 0.0, 0.0, 1.0, 0.0, 0.1)">
      <path d="M3.3 -0.1 L26.7 -0.1 Q30.0 -0.1 30.0 3.2 L30.0 26.6 Q30.0 29.9 26.7 29.9 L3.3 29.9 Q0.0 29.9 0.0 26.6 L0.0 3.2 Q0.0 -0.1 3.3 -0.1" fill="#49517a" fill-rule="evenodd" stroke="none"/>
    </g>
    <g id="shape2" transform="matrix(1.0, 0.0, 0.0, 1.0, -7.05, -1.65)">
      <path d="M17.0 10.05 L17.0 10.15 17.05 11.55 16.95 12.55 16.75 13.3 16.7 13.45 16.65 13.5 16.1 14.55 16.45 14.4 15.85 15.4 15.85 15.35 14.15 17.4 14.1 17.45 13.95 17.8 13.6 17.8 13.45 17.8 13.4 17.5 16.25 13.55 16.5 10.3 17.0 10.05 M17.0 14.25 L17.4 14.15 Q19.1 14.15 19.4 16.75 L18.95 18.0 18.15 19.7 18.0 17.15 Q17.75 15.45 17.2 14.65 L17.1 14.45 17.1 14.4 17.0 14.25 M20.75 13.3 L20.65 11.9 20.75 10.6 20.55 9.15 20.3 8.05 20.85 7.75 21.35 14.25 20.95 16.35 19.05 23.8 18.8 23.45 20.05 18.15 20.2 17.6 20.3 17.3 20.4 17.0 20.4 16.75 Q20.8 15.25 20.8 14.1 L20.75 13.3 M18.65 24.65 L17.9 25.3 17.45 24.85 Q16.25 23.3 16.05 22.45 L15.95 21.85 15.85 20.8 15.7 20.2 16.1 21.75 16.1 21.9 16.6 22.7 17.55 23.75 17.95 24.15 18.65 24.65 M17.7 25.5 L17.6 25.6 17.45 25.6 16.85 25.1 15.65 24.05 15.0 22.85 14.9 22.7 14.45 22.0 14.5 21.9 14.5 21.8 14.75 22.05 15.15 22.5 15.5 23.1 15.95 23.75 17.55 25.4 17.7 25.5 M17.2 25.95 L15.2 27.75 11.15 24.5 7.95 23.7 Q7.55 23.3 7.55 22.7 L7.6 22.55 Q9.1 22.9 11.4 24.0 L12.55 24.55 12.6 24.6 14.65 25.7 15.35 26.15 15.2 25.9 15.15 25.8 14.9 25.45 15.05 25.45 15.15 25.5 16.25 25.8 17.2 25.95 M10.25 21.4 L10.3 21.35 11.05 20.8 11.5 20.8 11.2 21.0 11.1 21.1 10.5 21.45 10.25 21.4 M11.25 20.3 L11.2 20.0 13.2 18.45 13.7 18.5 14.05 18.55 12.85 19.8 12.65 20.0 12.45 20.15 12.05 20.15 11.5 20.2 11.25 20.3 M15.5 19.7 L15.55 19.85 15.5 19.7" fill="#8ba3bd" fill-rule="evenodd" stroke="none"/>
      <path d="M16.45 14.4 L16.1 14.55 16.65 13.5 16.7 13.45 16.75 13.3 16.95 12.55 17.05 11.55 17.0 10.15 17.0 10.05 20.3 8.05 20.55 9.15 20.75 10.6 20.65 11.9 20.75 13.3 20.4 12.5 20.35 13.3 19.4 16.75 Q19.1 14.15 17.4 14.15 L17.0 14.25 Q16.75 14.25 16.45 14.4 M17.3 12.4 L16.7 13.45 17.2 13.3 Q18.5 13.3 19.05 14.6 L19.25 15.9 Q19.65 15.35 20.05 12.7 L19.5 12.1 18.1 11.05 17.3 12.4" fill="#88a6c6" fill-rule="evenodd" stroke="none"/>
      <path d="M17.3 12.4 L18.1 11.05 19.5 12.1 20.05 12.7 Q19.65 15.35 19.25 15.9 L19.05 14.6 Q18.5 13.3 17.2 13.3 L16.7 13.45 17.3 12.4" fill="#728ead" fill-rule="evenodd" stroke="none"/>
      <path d="M14.15 17.4 L15.85 15.35 15.85 15.4 16.45 14.4 Q16.75 14.25 17.0 14.25 L17.1 14.4 17.1 14.45 17.2 14.65 Q17.75 15.45 18.0 17.15 L18.15 19.7 18.95 18.0 19.4 16.75 20.35 13.3 20.4 12.5 20.75 13.3 20.8 14.1 Q20.8 15.25 20.4 16.75 L20.4 17.0 20.3 17.3 20.2 17.6 20.05 18.15 18.8 23.45 19.05 23.8 18.85 24.45 17.7 23.6 17.45 23.4 Q16.7 22.1 16.65 20.65 L16.3 18.75 16.05 18.4 16.05 18.35 15.5 17.65 15.35 17.9 Q14.9 17.6 14.15 17.4 M17.9 25.3 L17.9 25.35 17.8 25.3 17.7 25.25 17.0 24.7 16.9 24.65 15.8 22.6 14.6 20.7 14.65 20.6 14.4 19.95 14.2 19.85 13.95 20.2 Q13.5 19.95 12.85 19.8 L14.05 18.55 14.15 18.6 15.25 19.25 15.35 19.4 15.45 19.6 15.5 19.7 15.55 19.85 15.65 20.1 15.7 20.15 15.7 20.2 15.85 20.8 15.95 21.85 16.05 22.45 Q16.25 23.3 17.45 24.85 L17.9 25.3 M17.6 25.6 L17.3 25.9 17.1 25.85 16.0 25.6 15.55 25.25 Q14.8 24.6 14.0 23.25 L13.55 22.6 13.1 22.1 Q13.15 21.75 12.6 21.4 L12.6 21.6 Q11.95 21.2 11.1 21.1 L11.2 21.0 11.5 20.8 12.25 20.8 Q13.1 20.8 13.9 21.3 L14.1 21.45 14.2 21.55 14.5 21.8 14.5 21.9 14.45 22.0 14.9 22.7 15.0 22.85 15.65 24.05 16.85 25.1 17.45 25.6 17.6 25.6 M7.6 22.55 Q7.7 22.05 8.35 21.6 L9.85 21.6 9.9 21.8 10.05 21.8 11.5 22.1 Q12.1 22.35 12.6 23.0 L13.1 23.55 13.2 23.75 13.3 23.95 14.85 25.4 14.9 25.45 15.15 25.8 15.2 25.9 15.35 26.15 14.65 25.7 12.6 24.6 12.55 24.55 11.4 24.0 Q9.1 22.9 7.6 22.55 M11.4 22.9 L11.35 22.95 Q11.25 23.65 12.05 23.75 12.15 23.3 11.65 22.95 L11.55 22.9 11.4 22.9" fill="#afcdee" fill-rule="evenodd" stroke="none"/>
      <path d="M13.45 17.8 L13.6 17.8 13.95 17.8 14.5 17.95 14.6 17.95 15.5 18.75 15.65 18.95 15.7 19.05 15.95 19.8 16.15 21.0 16.25 21.6 16.7 22.5 17.05 23.05 17.45 23.4 17.7 23.6 18.85 24.45 18.85 24.5 18.65 24.65 17.95 24.15 17.55 23.75 16.6 22.7 16.1 21.9 16.1 21.75 15.7 20.2 15.7 20.15 15.65 20.1 15.55 19.85 15.5 19.7 15.45 19.6 15.35 19.4 15.25 19.25 14.15 18.6 14.05 18.55 13.7 18.5 13.2 18.45 13.55 18.2 13.45 17.8 M17.9 25.35 L17.7 25.5 17.55 25.4 15.95 23.75 15.5 23.1 15.15 22.5 14.75 22.05 14.5 21.8 14.2 21.55 14.1 21.45 13.9 21.3 Q13.1 20.8 12.25 20.8 L11.5 20.8 11.05 20.8 11.3 20.65 11.25 20.3 11.5 20.2 12.05 20.15 12.45 20.15 13.7 20.45 14.25 20.8 14.45 20.95 14.7 21.2 14.9 21.5 15.05 21.6 15.35 22.35 15.45 22.55 16.0 23.55 16.05 23.65 16.9 24.65 17.0 24.7 17.7 25.25 17.8 25.3 17.9 25.35 M17.3 25.9 L17.2 25.95 16.25 25.8 15.15 25.5 15.05 25.45 14.9 25.45 14.85 25.4 13.3 23.95 13.2 23.75 13.1 23.55 12.6 23.0 Q12.1 22.35 11.5 22.1 L10.05 21.8 9.9 21.8 9.85 21.6 10.25 21.6 10.25 21.4 10.5 21.45 11.95 21.75 12.85 22.55 13.65 23.55 13.7 23.65 14.45 24.65 14.55 24.75 14.9 25.05 15.0 25.15 15.6 25.45 16.0 25.6 17.1 25.85 17.3 25.9" fill="#ffd2bb" fill-rule="evenodd" stroke="none"/>
      <path d="M13.95 17.8 L14.1 17.45 14.15 17.4 Q14.9 17.6 15.35 17.9 15.15 18.25 15.85 18.65 L15.95 18.7 16.1 18.55 16.05 18.4 16.3 18.75 16.65 20.65 Q16.7 22.1 17.45 23.4 L17.05 23.05 16.7 22.5 16.25 21.6 16.15 21.0 15.95 19.8 15.7 19.05 15.65 18.95 15.5 18.75 14.6 17.95 14.5 17.95 13.95 17.8 M14.6 20.7 L15.8 22.6 16.9 24.65 16.05 23.65 16.0 23.55 15.45 22.55 15.35 22.35 15.05 21.6 14.9 21.5 14.7 21.2 14.45 20.95 14.25 20.8 13.7 20.45 12.45 20.15 12.65 20.0 12.85 19.8 Q13.5 19.95 13.95 20.2 L14.55 20.75 14.6 20.75 14.6 20.7 M12.6 21.6 Q12.5 21.95 12.95 22.3 L13.0 22.35 13.1 22.1 13.55 22.6 14.0 23.25 Q14.8 24.6 15.55 25.25 L16.0 25.6 15.6 25.45 15.0 25.15 14.9 25.05 14.55 24.75 14.45 24.65 13.7 23.65 13.65 23.55 12.85 22.55 11.95 21.75 10.5 21.45 11.1 21.1 Q11.95 21.2 12.6 21.6" fill="#ffefdb" fill-rule="evenodd" stroke="none"/>
      <path d="M15.35 17.9 L15.5 17.65 16.05 18.35 16.05 18.4 16.1 18.55 15.95 18.7 15.85 18.65 Q15.15 18.25 15.35 17.9 M13.95 20.2 L14.2 19.85 14.4 19.95 14.65 20.6 14.6 20.7 14.6 20.75 14.55 20.75 13.95 20.2 M12.6 21.6 L12.6 21.4 Q13.15 21.75 13.1 22.1 L13.0 22.35 12.95 22.3 Q12.5 21.95 12.6 21.6 M11.4 22.9 L11.55 22.9 11.65 22.95 Q12.15 23.3 12.05 23.75 11.25 23.65 11.35 22.95 L11.4 22.9" fill="#ffffff" fill-rule="evenodd" stroke="none"/>
      <path d="M17.0 10.05 L16.5 10.3 16.25 13.55 13.4 17.5 13.45 17.8 13.55 18.2 13.2 18.45 11.2 20.0 11.25 20.3 11.3 20.65 11.05 20.8 10.3 21.35 10.25 21.4 10.25 21.6 9.85 21.6 8.35 21.6 Q7.7 22.05 7.6 22.55 L7.55 22.7 Q7.55 23.3 7.95 23.7 L11.15 24.5 15.2 27.75 17.2 25.95 17.3 25.9 17.6 25.6 17.7 25.5 17.9 25.35 17.9 25.3 18.65 24.65 18.85 24.5 18.85 24.45 19.05 23.8 20.95 16.35 21.35 14.25 20.85 7.75 20.3 8.05 17.0 10.05 Z" fill="none" stroke="#374758" stroke-linecap="round" stroke-linejoin="round" stroke-width="1.0"/>
      <path d="M16.95 9.8 L16.7 9.8 16.5 9.85 18.1 8.0 18.2 7.95 20.65 4.95 21.4 3.75 19.95 8.2 19.95 8.1 19.8 7.9 19.65 7.7 Q19.0 7.7 18.1 8.7 L18.0 8.85 17.75 9.15 16.95 9.8 M19.95 8.2 L19.9 8.3 19.95 8.2" fill="#bf5a18" fill-rule="evenodd" stroke="none"/>
      <path d="M16.2 13.8 L16.0 10.1 16.1 9.95 18.1 7.55 21.85 2.15 21.95 2.8 Q22.65 8.3 21.75 13.65 L21.6 13.15 21.7 12.55 22.0 9.7 21.9 6.55 21.7 3.35 20.65 7.1 20.25 8.4 20.6 9.5 19.95 8.2 21.4 3.75 20.65 4.95 18.2 7.95 18.1 8.0 16.5 9.85 16.7 9.8 16.95 9.8 16.35 10.4 16.6 12.55 16.65 13.15 16.2 13.8 M17.75 9.15 L18.0 8.85 18.1 8.7 Q19.0 7.7 19.65 7.7 L19.8 7.9 19.95 8.1 19.95 8.2 19.7 7.9 18.35 8.8 18.1 8.95 17.75 9.15" fill="#e27a36" fill-rule="evenodd" stroke="none"/>
      <path d="M20.6 9.5 L20.25 8.4 20.65 7.1 21.7 3.35 21.9 6.55 22.0 9.7 21.7 12.55 21.6 13.15 21.35 14.55 21.35 14.4 Q21.35 12.35 20.75 10.05 L20.6 9.5 M21.15 6.95 Q20.15 8.0 21.35 8.7 L21.35 8.65 Q21.65 7.65 21.15 6.95" fill="#fcb053" fill-rule="evenodd" stroke="none"/>
      <path d="M21.75 13.65 L21.55 14.55 21.15 14.95 20.85 12.4 20.8 12.1 Q20.15 10.15 19.0 10.15 18.5 10.15 18.1 10.4 L17.7 10.8 17.25 11.65 17.3 12.1 16.65 13.15 16.6 12.55 16.35 10.4 16.95 9.8 17.75 9.15 18.1 8.95 18.35 8.8 19.7 7.9 19.95 8.2 19.9 8.3 19.95 8.2 20.6 9.5 20.75 10.05 Q21.35 12.35 21.35 14.4 L21.35 14.55 21.6 13.15 21.75 13.65 M21.15 6.95 Q21.65 7.65 21.35 8.65 L21.35 8.7 Q20.15 8.0 21.15 6.95" fill="#ffefdb" fill-rule="evenodd" stroke="none"/>
      <path d="M16.2 13.8 L16.0 10.1 16.1 9.95 18.1 7.55 21.85 2.15 21.95 2.8 Q22.65 8.3 21.75 13.65 L21.55 14.55 21.15 14.95" fill="none" stroke="#873c18" stroke-linecap="round" stroke-linejoin="round" stroke-width="1.0"/>
    </g>
  </defs>
</svg>
