<?xml version="1.0" encoding="UTF-8" standalone="no"?>
<svg xmlns:ffdec="https://www.free-decompiler.com/flash" xmlns:xlink="http://www.w3.org/1999/xlink" ffdec:objectType="frame" height="30.1px" width="30.0px" xmlns="http://www.w3.org/2000/svg">
  <g transform="matrix(1.0, 0.0, 0.0, 1.0, 0.0, 0.0)">
    <use ffdec:characterId="1" height="30.0" transform="matrix(1.0, 0.0, 0.0, 1.0, 0.0, 0.0)" width="30.0" xlink:href="#shape0"/>
    <use ffdec:characterId="5" height="30.0" transform="matrix(1.0, 0.0, 0.0, 1.0, 0.0, 0.1)" width="30.0" xlink:href="#sprite0"/>
  </g>
  <defs>
    <g id="shape0" transform="matrix(1.0, 0.0, 0.0, 1.0, 0.0, 0.0)">
      <path d="M0.0 0.0 L30.0 0.0 30.0 30.0 0.0 30.0 0.0 0.0" fill="#33cc66" fill-opacity="0.0" fill-rule="evenodd" stroke="none"/>
    </g>
    <g id="sprite0" transform="matrix(1.0, 0.0, 0.0, 1.0, 0.0, 0.0)">
      <use ffdec:characterId="2" height="30.0" transform="matrix(1.0, 0.0, 0.0, 1.0, 0.0, 0.0)" width="30.0" xlink:href="#shape1"/>
      <use ffdec:characterId="4" height="20.55" transform="matrix(1.0859, 0.0, 0.0, 1.0859, 5.7212, 4.111)" width="18.25" xlink:href="#sprite1"/>
    </g>
    <g id="shape1" transform="matrix(1.0, 0.0, 0.0, 1.0, 0.0, 0.0)">
      <path d="M27.95 0.15 Q30.0 0.7 30.0 3.3 L30.0 26.7 29.8 28.15 Q29.15 30.0 26.7 30.0 L3.3 30.0 2.4 29.95 Q0.7 29.65 0.2 28.15 L0.0 26.7 0.0 3.3 Q0.0 0.7 2.05 0.15 L2.4 0.1 3.3 0.0 26.7 0.0 27.95 0.15" fill="#cccccc" fill-rule="evenodd" stroke="none"/>
    </g>
    <g id="sprite1" transform="matrix(1.0, 0.0, 0.0, 1.0, 1.5, 2.2)">
      <use ffdec:characterId="3" height="20.55" transform="matrix(1.0, 0.0, 0.0, 1.0, -1.5, -2.2)" width="18.25" xlink:href="#shape2"/>
    </g>
    <g id="shape2" transform="matrix(1.0, 0.0, 0.0, 1.0, 1.5, 2.2)">
      <path d="M0.7 3.4 L0.6 3.45 0.2 3.35 0.0 3.05 0.1 2.65 0.4 2.2 2.5 -0.5 2.8 -0.65 3.1 -0.65 Q6.8 0.95 11.25 4.35 11.6 4.4 11.75 4.6 L11.85 4.75 Q14.85 10.4 15.25 16.35 L15.15 16.7 14.8 16.85 14.45 16.75 14.25 16.4 14.25 16.15 14.2 15.7 14.2 15.5 14.15 15.3 Q13.6 10.2 11.05 5.3 L10.95 5.3 10.75 5.2 Q6.55 2.0 3.05 0.4 L1.3 2.75 1.05 3.05 0.9 3.25 0.7 3.4" fill="#4c5866" fill-rule="evenodd" stroke="none"/>
      <path d="M1.3 2.75 L3.05 0.4 Q6.55 2.0 10.75 5.2 L10.95 5.3 11.05 5.3 Q13.6 10.2 14.15 15.3 L14.0 15.1 13.95 15.05 12.8 12.85 12.8 12.1 Q12.35 7.25 10.4 4.95 9.15 5.3 7.55 6.0 L8.2 6.8 7.2 6.1 7.1 6.05 7.05 6.0 6.8 5.85 6.55 5.6 1.3 2.75" fill="#c4d7f3" fill-rule="evenodd" stroke="none"/>
      <path d="M12.8 12.85 L12.6 12.55 11.85 11.05 11.5 10.35 10.5 9.05 8.2 6.8 7.55 6.0 Q9.15 5.3 10.4 4.95 12.35 7.25 12.8 12.1 L12.8 12.85" fill="#ffffff" fill-rule="evenodd" stroke="none"/>
      <path d="M1.05 3.05 L1.3 2.75 6.55 5.6 6.8 5.85 7.05 6.0 7.1 6.05 7.2 6.1 8.2 6.8 10.5 9.05 11.5 10.35 11.85 11.05 12.6 12.55 12.8 12.85 13.95 15.05 12.75 14.35 12.55 14.3 12.55 14.25 12.45 14.05 11.75 13.55 11.6 13.2 11.6 13.1 7.55 9.35 7.15 9.05 6.9 7.65 6.9 7.6 6.8 7.45 6.7 7.35 4.9 6.05 4.75 5.9 4.3 5.65 3.4 4.8 1.05 3.05 M6.5 8.45 L6.55 8.7 6.6 8.75 6.75 9.3 6.8 9.4 7.95 10.4 8.75 12.15 8.75 12.65 7.55 12.7 7.4 12.65 Q6.4 11.8 6.4 9.45 L6.5 8.45" fill="#ffbfe5" fill-rule="evenodd" stroke="none"/>
      <path d="M11.0 13.2 L11.1 13.3 10.1 13.35 Q7.9 13.35 6.3 12.65 L7.55 12.7 9.05 13.15 11.0 13.2 M3.75 8.25 L3.7 9.0 3.7 9.45 3.65 9.05 3.75 8.25" fill="#ff4d4d" fill-rule="evenodd" stroke="none"/>
      <path d="M3.35 5.45 L4.05 6.1 4.1 6.1 Q3.85 7.05 3.75 8.25 L3.65 9.05 3.7 9.45 Q3.85 11.4 4.75 12.15 5.25 12.45 6.3 12.65 7.9 13.35 10.1 13.35 L11.1 13.3 11.15 13.35 11.35 13.8 11.4 13.9 12.15 14.45 12.35 14.5 12.35 14.65 12.5 14.8 12.85 15.0 8.4 14.65 Q5.4 13.85 3.0 12.15 2.0 8.85 3.35 5.45 M7.95 10.4 L11.0 13.2 9.05 13.15 7.55 12.7 8.75 12.65 8.75 12.15 7.95 10.4" fill="#ff0000" fill-rule="evenodd" stroke="none"/>
      <path d="M0.7 3.4 L0.9 3.25 1.05 3.05 3.4 4.8 4.3 5.65 4.75 5.9 4.9 6.05 6.7 7.35 6.8 7.45 6.9 7.6 6.9 7.65 7.15 9.05 7.55 9.35 11.6 13.1 11.6 13.2 11.75 13.55 12.45 14.05 12.55 14.25 12.55 14.3 12.75 14.35 13.95 15.05 14.0 15.1 14.15 15.3 14.2 15.5 14.2 15.7 14.25 16.15 13.7 15.5 13.65 15.5 12.85 15.0 12.5 14.8 12.35 14.65 12.35 14.5 12.15 14.45 11.4 13.9 11.35 13.8 11.15 13.35 11.1 13.3 11.0 13.2 7.95 10.4 6.8 9.4 6.75 9.3 6.6 8.75 6.55 8.7 6.5 8.45 6.45 8.1 6.4 7.8 6.4 7.75 4.65 6.45 4.55 6.4 4.5 6.35 4.45 6.35 4.1 6.1 4.05 6.1 3.35 5.45 2.95 5.1 0.7 3.4" fill="#bb4646" fill-rule="evenodd" stroke="none"/>
      <path d="M13.65 15.5 L8.3 15.15 8.25 15.15 Q5.15 14.3 2.6 12.5 L2.5 12.4 Q1.4 8.8 2.95 5.1 L3.35 5.45 Q2.0 8.85 3.0 12.15 5.4 13.85 8.4 14.65 L12.85 15.0 13.65 15.5" fill="#bd251d" fill-rule="evenodd" stroke="none"/>
      <path d="M4.45 6.35 L4.5 6.35 4.55 6.4 4.65 6.45 4.35 7.5 4.1 9.1 Q4.1 9.9 4.85 10.85 L6.65 12.05 6.7 12.05 Q6.15 11.4 6.15 9.8 6.15 9.05 6.45 8.1 L6.5 8.45 6.4 9.45 Q6.4 11.8 7.4 12.65 L7.55 12.7 6.3 12.65 5.55 12.3 Q4.65 11.75 4.1 11.0 L3.7 9.45 3.7 9.0 3.75 8.25 4.25 6.7 4.45 6.35" fill="#ff9985" fill-rule="evenodd" stroke="none"/>
      <path d="M4.1 6.1 L4.45 6.35 4.25 6.7 3.75 8.25 Q3.85 7.05 4.1 6.1 M3.7 9.45 L4.1 11.0 Q4.65 11.75 5.55 12.3 L6.3 12.65 Q5.25 12.45 4.75 12.15 3.85 11.4 3.7 9.45" fill="#ff3800" fill-rule="evenodd" stroke="none"/>
      <path d="M4.65 6.45 L6.4 7.75 6.4 7.8 6.45 8.1 Q6.15 9.05 6.15 9.8 6.15 11.4 6.7 12.05 L6.65 12.05 4.85 10.85 Q4.1 9.9 4.1 9.1 L4.35 7.5 4.65 6.45" fill="#ffe7c4" fill-rule="evenodd" stroke="none"/>
      <path d="M14.25 16.15 L14.25 16.4 14.45 16.75 14.8 16.85 15.15 16.7 15.25 16.35 Q14.85 10.4 11.85 4.75 L11.75 4.6 Q11.6 4.4 11.25 4.35 6.8 0.95 3.1 -0.65 L2.8 -0.65 2.5 -0.5 0.4 2.2 0.1 2.65 0.0 3.05 0.2 3.35 0.6 3.45 0.7 3.4 M13.65 15.5 L8.3 15.15 8.25 15.15 Q5.15 14.3 2.6 12.5 L2.5 12.4 Q1.4 8.8 2.95 5.1" fill="none" stroke="#ffffff" stroke-linecap="round" stroke-linejoin="round" stroke-width="3.0"/>
      <path d="M8.2 6.75 L7.55 5.9 10.5 4.8 Q12.5 7.2 13.0 12.25 L13.0 13.0 12.8 12.7 12.0 11.15 11.65 10.4 10.6 9.05 8.2 6.75" fill="#ffffff" fill-rule="evenodd" stroke="none"/>
      <path d="M14.65 16.2 L14.0 15.5 12.8 14.8 12.45 14.45 11.7 13.9 11.55 13.45 11.5 13.45 11.5 13.4 7.35 9.6 6.9 9.2 6.75 8.65 6.9 9.2 7.35 9.6 Q8.45 11.15 8.75 12.3 L8.75 12.8 7.55 12.85 7.35 12.8 Q6.35 11.9 6.35 9.5 L6.55 7.95 6.75 8.65 6.6 7.65 6.5 7.5 4.55 6.1 4.45 6.0 4.0 5.75 3.05 4.85 0.2 2.7 0.5 2.25 6.5 5.5 6.75 5.75 7.0 5.9 7.05 5.95 7.15 6.0 8.2 6.75 10.6 9.05 11.65 10.4 12.0 11.15 12.8 12.7 13.0 13.0 14.65 16.2" fill="#ffbfe5" fill-rule="evenodd" stroke="none"/>
      <path d="M0.5 2.25 L2.7 -0.55 Q6.55 1.1 11.15 4.65 L11.55 4.8 Q14.6 10.6 15.0 16.65 L14.65 16.2 13.0 13.0 13.0 12.25 Q12.5 7.2 10.5 4.8 L7.55 5.9 8.2 6.75 7.15 6.0 7.05 5.95 7.0 5.9 6.75 5.75 6.5 5.5 0.5 2.25" fill="#c4d7f3" fill-rule="evenodd" stroke="none"/>
      <path d="M14.0 15.5 L8.3 15.15 Q5.15 14.25 2.55 12.45 1.4 8.7 3.05 4.85 L4.0 5.75 3.6 8.25 Q3.45 8.6 3.45 9.05 L3.55 9.5 Q3.7 11.5 4.6 12.3 L6.25 12.8 Q7.9 13.55 10.2 13.55 L11.5 13.45 11.55 13.45 11.7 13.9 12.45 14.45 12.8 14.8 14.0 15.5 M6.6 7.65 L6.75 8.65 6.55 7.95 6.6 7.65 M7.35 9.6 L11.5 13.4 9.1 13.35 Q8.0 13.35 7.55 12.85 L8.75 12.8 8.75 12.3 Q8.45 11.15 7.35 9.6 M11.7 13.9 L11.5 13.45 11.7 13.9" fill="#ff0000" fill-rule="evenodd" stroke="none"/>
      <path d="M3.6 8.25 L3.55 9.0 3.55 9.5 3.45 9.05 Q3.45 8.6 3.6 8.25 M6.25 12.8 L7.55 12.85 Q8.0 13.35 9.1 13.35 L11.5 13.4 11.5 13.45 10.2 13.55 Q7.9 13.55 6.25 12.8 M6.55 7.95 L6.5 7.75 6.5 7.5 6.6 7.65 6.55 7.95" fill="#ff4d4d" fill-rule="evenodd" stroke="none"/>
      <path d="M6.5 7.75 Q6.05 8.95 6.05 9.85 6.05 11.5 6.65 12.2 L6.6 12.2 4.7 10.95 Q3.95 9.95 3.95 9.1 L4.2 7.45 4.55 6.1 6.5 7.5 6.5 7.75" fill="#ffe7c4" fill-rule="evenodd" stroke="none"/>
      <path d="M4.45 6.0 L4.55 6.1 4.2 7.45 3.95 9.1 Q3.95 9.95 4.7 10.95 L6.6 12.2 6.65 12.2 Q6.05 11.5 6.05 9.85 6.05 8.95 6.5 7.75 L6.55 7.95 6.35 9.5 Q6.35 11.9 7.35 12.8 L7.55 12.85 6.25 12.8 5.45 12.45 3.95 11.1 3.55 9.5 3.55 9.0 3.6 8.25 4.1 6.6 4.45 6.0" fill="#ff9985" fill-rule="evenodd" stroke="none"/>
      <path d="M4.45 6.0 L4.1 6.6 3.6 8.25 4.0 5.75 4.45 6.0 M3.55 9.5 L3.95 11.1 5.45 12.45 6.25 12.8 4.6 12.3 Q3.7 11.5 3.55 9.5" fill="#ff3800" fill-rule="evenodd" stroke="none"/>
      <path d="M15.0 16.65 L14.65 16.2 14.0 15.5 12.8 14.8 M3.05 4.85 L0.2 2.7 M4.0 5.75 L3.05 4.85 M4.55 6.1 L4.45 6.0 4.0 5.75 M4.55 6.1 L6.5 7.5 6.6 7.65 6.75 8.65 6.9 9.2 7.35 9.6 11.5 13.4 11.5 13.45 11.7 13.9 12.45 14.45" fill="none" stroke="#bb4646" stroke-linecap="round" stroke-linejoin="round" stroke-width="0.5"/>
      <path d="M0.5 2.25 L2.7 -0.55 Q6.55 1.1 11.15 4.65 L11.55 4.8 Q14.6 10.6 15.0 16.65 M0.2 2.7 L0.5 2.25" fill="none" stroke="#4c5866" stroke-linecap="round" stroke-linejoin="round" stroke-width="1.0"/>
      <path d="M14.0 15.5 L8.3 15.15 Q5.15 14.25 2.55 12.45 1.4 8.7 3.05 4.85" fill="none" stroke="#bd251d" stroke-linecap="round" stroke-linejoin="round" stroke-width="0.5"/>
    </g>
  </defs>
</svg>
