<?xml version="1.0" encoding="UTF-8" standalone="no"?>
<svg xmlns:ffdec="https://www.free-decompiler.com/flash" xmlns:xlink="http://www.w3.org/1999/xlink" ffdec:objectType="frame" height="30.1px" width="30.0px" xmlns="http://www.w3.org/2000/svg">
  <g transform="matrix(1.0, 0.0, 0.0, 1.0, 0.0, 0.0)">
    <use ffdec:characterId="1" height="30.0" transform="matrix(1.0, 0.0, 0.0, 1.0, 0.0, 0.0)" width="30.0" xlink:href="#shape0"/>
    <use ffdec:characterId="3" height="30.0" transform="matrix(1.0, 0.0, 0.0, 1.0, 0.0, 0.1)" width="30.0" xlink:href="#sprite0"/>
  </g>
  <defs>
    <g id="shape0" transform="matrix(1.0, 0.0, 0.0, 1.0, 0.0, 0.0)">
      <path d="M0.0 0.0 L30.0 0.0 30.0 30.0 0.0 30.0 0.0 0.0" fill="#33cc66" fill-opacity="0.0" fill-rule="evenodd" stroke="none"/>
    </g>
    <g id="sprite0" transform="matrix(1.0, 0.0, 0.0, 1.0, 0.0, 0.0)">
      <use ffdec:characterId="2" height="30.0" transform="matrix(1.0, 0.0, 0.0, 1.0, 0.0, 0.0)" width="30.0" xlink:href="#shape1"/>
    </g>
    <g id="shape1" transform="matrix(1.0, 0.0, 0.0, 1.0, 0.0, 0.0)">
      <path d="M27.95 0.15 Q30.0 0.7 30.0 3.3 L30.0 26.7 29.8 28.15 Q29.15 30.0 26.7 30.0 L3.3 30.0 2.4 29.95 Q0.7 29.65 0.2 28.15 L0.0 26.7 0.0 3.3 Q0.0 0.7 2.05 0.15 L2.4 0.1 3.3 0.0 26.7 0.0 27.95 0.15" fill="#cccccc" fill-rule="evenodd" stroke="none"/>
      <path d="M16.65 8.95 L15.6 6.1 14.4 3.55 14.4 3.5 Q19.9 13.4 21.4 17.9 L18.35 27.35 11.45 20.0 12.8 14.3 13.05 15.4 13.2 15.65 13.35 16.45 13.0 17.5 12.45 19.3 13.05 20.35 14.65 22.25 17.5 25.25 17.4 22.65 Q17.4 19.0 17.6 17.9 L20.1 17.6 19.25 15.05 18.2 12.45 16.65 8.95" fill="#ff7bb5" fill-rule="evenodd" stroke="none"/>
      <path d="M13.35 16.45 L13.55 17.25 Q14.25 16.8 15.6 16.05 L18.1 14.55 17.9 13.75 17.1 10.55 16.65 8.95 18.2 12.45 19.25 15.05 19.45 17.7 19.4 17.6 18.85 16.65 18.65 16.4 Q17.5 16.55 16.05 17.9 14.4 19.45 14.4 20.6 L14.5 21.4 13.5 20.65 13.05 20.35 12.45 19.3 13.0 17.5 13.35 16.45" fill="#800c3f" fill-rule="evenodd" stroke="none"/>
      <path d="M14.4 3.55 L15.6 6.1 16.65 8.95 17.1 10.55 17.9 13.75 18.1 14.55 15.6 16.05 Q14.25 16.8 13.55 17.25 L13.35 16.45 13.2 15.65 13.05 15.4 12.8 14.3 13.05 13.1 13.45 14.65 13.5 15.15 13.55 16.55 15.55 15.4 17.55 14.05 16.5 10.25 14.4 3.55" fill="#ffa6cd" fill-rule="evenodd" stroke="none"/>
      <path d="M14.4 3.55 L16.5 10.25 17.55 14.05 15.55 15.4 13.55 16.55 13.5 15.15 13.45 14.65 13.05 13.1 13.8 8.7 14.4 3.55" fill="#ffe2ef" fill-rule="evenodd" stroke="none"/>
      <path d="M19.25 15.05 L20.1 17.6 17.6 17.9 Q17.4 19.0 17.4 22.65 L17.5 25.25 14.65 22.25 13.05 20.35 13.5 20.65 14.5 21.4 14.4 20.6 Q14.4 19.45 16.05 17.9 17.5 16.55 18.65 16.4 L18.85 16.65 19.4 17.6 19.45 17.7 19.25 15.05" fill="url(#gradient0)" fill-rule="evenodd" stroke="none"/>
      <path d="M13.05 13.1 L12.8 14.3 11.45 20.0 18.35 27.35 21.4 17.9 Q19.9 13.4 14.4 3.5 L14.4 3.55 13.8 8.7 13.05 13.1 Z" fill="none" stroke="#ffffff" stroke-linecap="round" stroke-linejoin="round" stroke-width="4.0"/>
      <path d="M13.05 13.15 L13.8 8.75 14.4 3.5 14.4 3.6 16.5 10.3 17.55 14.1 15.55 15.45 13.55 16.6 13.5 15.2 13.45 14.7 13.05 13.15" fill="#ffe2ef" fill-rule="evenodd" stroke="none"/>
      <path d="M14.4 3.5 L14.4 3.45 14.4 3.55 Q19.9 13.45 21.4 17.95 L18.35 27.4 11.45 20.05 12.8 14.35 13.05 15.45 13.2 15.7 13.35 16.5 13.0 17.55 12.45 19.35 13.05 20.4 14.65 22.3 17.5 25.3 17.4 22.7 Q17.4 19.05 17.6 17.95 L20.1 17.65 19.25 15.1 18.2 12.5 16.65 9.0 15.6 6.15 14.4 3.6 14.4 3.5" fill="#ff7bb5" fill-rule="evenodd" stroke="none"/>
      <path d="M12.8 14.35 L13.05 13.15 13.45 14.7 13.5 15.2 13.55 16.6 15.55 15.45 17.55 14.1 16.5 10.3 14.4 3.6 15.6 6.15 16.65 9.0 17.1 10.6 17.9 13.8 18.1 14.6 15.6 16.1 Q14.25 16.85 13.55 17.3 L13.35 16.5 13.2 15.7 13.05 15.45 12.8 14.35" fill="#ffa6cd" fill-rule="evenodd" stroke="none"/>
      <path d="M16.65 9.0 L18.2 12.5 19.25 15.1 19.45 17.75 19.4 17.65 18.85 16.7 18.65 16.45 Q17.5 16.6 16.05 17.95 14.4 19.5 14.4 20.65 L14.5 21.45 13.5 20.7 13.05 20.4 12.45 19.35 13.0 17.55 13.35 16.5 13.55 17.3 Q14.25 16.85 15.6 16.1 L18.1 14.6 17.9 13.8 17.1 10.6 16.65 9.0" fill="#800c3f" fill-rule="evenodd" stroke="none"/>
      <path d="M19.25 15.1 L20.1 17.65 17.6 17.95 Q17.4 19.05 17.4 22.7 L17.5 25.3 14.65 22.3 13.05 20.4 13.5 20.7 14.5 21.45 14.4 20.65 Q14.4 19.5 16.05 17.95 17.5 16.6 18.65 16.45 L18.85 16.7 19.4 17.65 19.45 17.75 19.25 15.1" fill="url(#gradient1)" fill-rule="evenodd" stroke="none"/>
      <path d="M14.4 3.5 L14.4 3.45 14.4 3.55 Q19.9 13.45 21.4 17.95 L18.35 27.4 11.45 20.05 12.8 14.35 13.05 13.15 13.8 8.75 14.4 3.5 Z" fill="none" stroke="#270f3a" stroke-linecap="round" stroke-linejoin="round" stroke-width="1.0"/>
    </g>
    <linearGradient gradientTransform="matrix(-2.0E-4, -0.0089, -0.0047, 1.0E-4, 16.25, 16.6)" gradientUnits="userSpaceOnUse" id="gradient0" spreadMethod="pad" x1="-819.2" x2="819.2">
      <stop offset="0.0" stop-color="#9a1650"/>
      <stop offset="1.0" stop-color="#ff4646"/>
    </linearGradient>
    <linearGradient gradientTransform="matrix(-2.0E-4, -0.0089, -0.0047, 1.0E-4, 16.25, 16.65)" gradientUnits="userSpaceOnUse" id="gradient1" spreadMethod="pad" x1="-819.2" x2="819.2">
      <stop offset="0.0" stop-color="#9a1650"/>
      <stop offset="1.0" stop-color="#ff4646"/>
    </linearGradient>
  </defs>
</svg>
