<?xml version="1.0" encoding="UTF-8" standalone="no"?>
<svg xmlns:ffdec="https://www.free-decompiler.com/flash" xmlns:xlink="http://www.w3.org/1999/xlink" ffdec:objectType="frame" height="30.1px" width="30.0px" xmlns="http://www.w3.org/2000/svg">
  <g transform="matrix(1.0, 0.0, 0.0, 1.0, 0.0, 0.0)">
    <use ffdec:characterId="1" height="30.0" transform="matrix(1.0, 0.0, 0.0, 1.0, 0.0, 0.0)" width="30.0" xlink:href="#shape0"/>
    <use ffdec:characterId="3" height="30.0" transform="matrix(1.0, 0.0, 0.0, 1.0, 0.0, 0.1)" width="30.0" xlink:href="#sprite0"/>
  </g>
  <defs>
    <g id="shape0" transform="matrix(1.0, 0.0, 0.0, 1.0, 0.0, 0.0)">
      <path d="M0.0 0.0 L30.0 0.0 30.0 30.0 0.0 30.0 0.0 0.0" fill="#33cc66" fill-opacity="0.0" fill-rule="evenodd" stroke="none"/>
    </g>
    <g id="sprite0" transform="matrix(1.0, 0.0, 0.0, 1.0, 0.0, 0.0)">
      <use ffdec:characterId="2" height="30.0" transform="matrix(1.0, 0.0, 0.0, 1.0, 0.0, 0.0)" width="30.0" xlink:href="#shape1"/>
    </g>
    <g id="shape1" transform="matrix(1.0, 0.0, 0.0, 1.0, 0.0, 0.0)">
      <path d="M27.95 0.15 Q30.0 0.7 30.0 3.3 L30.0 26.7 29.8 28.15 Q29.15 30.0 26.7 30.0 L3.3 30.0 2.4 29.95 Q0.7 29.65 0.2 28.15 L0.0 26.7 0.0 3.3 Q0.0 0.7 2.05 0.15 L2.4 0.1 3.3 0.0 26.7 0.0 27.95 0.15" fill="#cccccc" fill-rule="evenodd" stroke="none"/>
      <path d="M25.1 4.65 L25.1 8.05 Q21.05 20.9 14.1 26.05 10.4 23.45 7.75 18.3 L7.65 18.0 Q6.1 11.15 7.1 6.3 L9.75 4.35 Q12.25 9.95 16.9 14.0 21.3 10.95 25.1 4.65 M9.0 7.55 L8.75 7.2 8.6 8.6 8.35 11.5 Q8.35 14.3 8.7 16.05 L9.8 18.8 Q11.65 22.7 14.0 25.05 L16.15 15.65 16.35 15.0 15.9 14.75 14.05 13.2 10.45 9.3 9.0 7.55 M17.05 14.9 L14.35 25.5 14.35 25.6 Q17.15 22.25 19.9 17.85 22.6 13.45 23.65 8.1 L19.9 12.2 Q18.3 14.05 17.05 14.9" fill="#792020" fill-rule="evenodd" stroke="none"/>
      <path d="M16.15 15.65 L14.0 25.05 Q11.65 22.7 9.8 18.8 L8.7 16.05 Q8.35 14.3 8.35 11.5 L8.6 8.6 8.75 7.2 9.0 7.55 9.9 14.85 9.9 14.75 10.3 14.25 10.7 14.15 Q11.6 14.15 12.85 15.6 14.35 17.3 15.0 19.7 L15.0 19.6 16.15 15.65" fill="#5f1414" fill-rule="evenodd" stroke="none"/>
      <path d="M9.0 7.55 L10.45 9.3 14.05 13.2 15.9 14.75 16.35 15.0 16.15 15.65 15.0 19.6 15.0 19.7 Q14.35 17.3 12.85 15.6 11.6 14.15 10.7 14.15 L10.3 14.25 9.9 14.75 9.9 14.85 9.0 7.55" fill="#4d0e0e" fill-rule="evenodd" stroke="none"/>
      <path d="M17.05 14.9 Q18.3 14.05 19.9 12.2 L23.65 8.1 Q22.6 13.45 19.9 17.85 17.15 22.25 14.35 25.6 L14.35 25.5 17.05 14.9" fill="#983030" fill-rule="evenodd" stroke="none"/>
      <path d="M25.1 4.65 Q21.3 10.95 16.9 14.0 12.25 9.95 9.75 4.35 L7.1 6.3 Q6.1 11.15 7.65 18.0 L7.75 18.3 Q10.4 23.45 14.1 26.05 21.05 20.9 25.1 8.05 L25.1 4.65 Z" fill="none" stroke="#ffffff" stroke-linecap="round" stroke-linejoin="round" stroke-width="3.0"/>
      <path d="M7.1 6.3 L9.75 4.35 Q12.25 9.95 16.9 14.0 21.3 10.95 25.1 4.65 L25.1 8.05 Q21.05 20.9 14.1 26.05 10.4 23.45 7.75 18.3 L7.65 18.0 Q6.1 11.15 7.1 6.3 M16.15 15.65 L16.35 15.0 15.9 14.75 14.05 13.2 10.45 9.3 9.0 7.55 8.75 7.2 8.6 8.6 8.35 11.5 Q8.35 14.3 8.7 16.05 L9.8 18.8 Q11.65 22.7 14.0 25.05 L16.15 15.65 M17.05 14.9 L14.35 25.5 14.35 25.6 Q17.15 22.25 19.9 17.85 22.6 13.45 23.65 8.1 L19.9 12.2 Q18.3 14.05 17.05 14.9" fill="#792020" fill-rule="evenodd" stroke="none"/>
      <path d="M9.0 7.55 L10.45 9.3 14.05 13.2 15.9 14.75 16.35 15.0 16.15 15.65 15.0 19.6 15.0 19.7 Q14.35 17.3 12.85 15.6 11.6 14.15 10.7 14.15 L10.3 14.25 9.9 14.75 9.9 14.85 9.0 7.55" fill="#4d0e0e" fill-rule="evenodd" stroke="none"/>
      <path d="M16.15 15.65 L14.0 25.05 Q11.65 22.7 9.8 18.8 L8.7 16.05 Q8.35 14.3 8.35 11.5 L8.6 8.6 8.75 7.2 9.0 7.55 9.9 14.85 9.9 14.75 10.3 14.25 10.7 14.15 Q11.6 14.15 12.85 15.6 14.35 17.3 15.0 19.7 L15.0 19.6 16.15 15.65" fill="#5f1414" fill-rule="evenodd" stroke="none"/>
      <path d="M17.05 14.9 Q18.3 14.05 19.9 12.2 L23.65 8.1 Q22.6 13.45 19.9 17.85 17.15 22.25 14.35 25.6 L14.35 25.5 17.05 14.9" fill="#983030" fill-rule="evenodd" stroke="none"/>
      <path d="M7.1 6.3 Q6.1 11.15 7.65 18.0 L7.75 18.3 Q10.4 23.45 14.1 26.05 21.05 20.9 25.1 8.05 L25.1 4.65 Q21.3 10.95 16.9 14.0 12.25 9.95 9.75 4.35 L7.1 6.3 Z" fill="none" stroke="#430d0d" stroke-linecap="round" stroke-linejoin="round" stroke-width="1.0"/>
    </g>
  </defs>
</svg>
