<?xml version="1.0" encoding="UTF-8" standalone="no"?>
<svg xmlns:ffdec="https://www.free-decompiler.com/flash" xmlns:xlink="http://www.w3.org/1999/xlink" ffdec:objectType="frame" height="30.1px" width="30.0px" xmlns="http://www.w3.org/2000/svg">
  <g transform="matrix(1.0, 0.0, 0.0, 1.0, 0.0, 0.0)">
    <use ffdec:characterId="1" height="30.0" transform="matrix(1.0, 0.0, 0.0, 1.0, 0.0, 0.0)" width="30.0" xlink:href="#shape0"/>
    <use ffdec:characterId="5" height="30.0" transform="matrix(1.0, 0.0, 0.0, 1.0, 0.0, 0.1)" width="30.0" xlink:href="#sprite0"/>
  </g>
  <defs>
    <g id="shape0" transform="matrix(1.0, 0.0, 0.0, 1.0, 0.0, 0.0)">
      <path d="M0.0 0.0 L30.0 0.0 30.0 30.0 0.0 30.0 0.0 0.0" fill="#33cc66" fill-opacity="0.0" fill-rule="evenodd" stroke="none"/>
    </g>
    <g id="sprite0" transform="matrix(1.0, 0.0, 0.0, 1.0, 0.0, 0.0)">
      <use ffdec:characterId="2" height="30.0" transform="matrix(1.0, 0.0, 0.0, 1.0, 0.0, 0.0)" width="30.0" xlink:href="#shape1"/>
      <use ffdec:characterId="4" height="104.65" transform="matrix(0.1875, 0.0, 0.0, 0.1875, 1.4272, 4.9876)" width="145.0" xlink:href="#sprite1"/>
    </g>
    <g id="shape1" transform="matrix(1.0, 0.0, 0.0, 1.0, 0.0, 0.0)">
      <path d="M27.95 0.15 Q30.0 0.7 30.0 3.3 L30.0 26.7 29.8 28.15 Q29.15 30.0 26.7 30.0 L3.3 30.0 2.4 29.95 Q0.7 29.65 0.2 28.15 L0.0 26.7 0.0 3.3 Q0.0 0.7 2.05 0.15 L2.4 0.1 3.3 0.0 26.7 0.0 27.95 0.15" fill="#cccccc" fill-rule="evenodd" stroke="none"/>
    </g>
    <g id="sprite1" transform="matrix(1.0, 0.0, 0.0, 1.0, -28.95, 3.0)">
      <use ffdec:characterId="3" height="104.65" transform="matrix(1.0, 0.0, 0.0, 1.0, 28.95, -3.0)" width="145.0" xlink:href="#shape2"/>
    </g>
    <g id="shape2" transform="matrix(1.0, 0.0, 0.0, 1.0, -28.95, 3.0)">
      <path d="M163.7 31.6 L163.35 32.55 163.3 32.5 163.0 32.15 162.45 31.35 Q162.0 30.5 162.25 29.75 L162.25 29.8 162.45 29.95 Q163.85 30.55 163.7 31.6" fill="#d3c5fa" fill-rule="evenodd" stroke="none"/>
      <path d="M162.45 29.95 L162.25 29.8 162.25 29.75 Q162.0 30.5 162.45 31.35 L163.0 32.15 163.3 32.5 163.35 32.55 163.7 31.6 164.4 32.55 164.7 33.2 Q166.95 38.35 168.1 43.2 L168.7 45.7 167.65 45.05 Q164.45 36.35 162.1 31.25 L146.6 10.8 146.35 10.2 147.25 10.65 157.7 23.85 162.45 29.95 M134.85 15.5 L134.95 15.6 136.45 16.4 136.7 16.9 Q136.9 17.65 136.55 18.25 L136.0 18.25 Q134.55 17.4 133.95 15.85 L134.05 15.75 Q134.3 15.35 134.85 15.5" fill="#5e5cfc" fill-rule="evenodd" stroke="none"/>
      <path d="M163.7 31.6 Q163.85 30.55 162.45 29.95 L157.7 23.85 147.25 10.65 Q149.7 11.85 152.2 13.6 L156.4 16.9 160.1 21.7 Q165.9 29.55 167.4 36.25 169.0 43.0 169.0 45.9 L168.7 45.7 168.1 43.2 Q166.95 38.35 164.7 33.2 L164.4 32.55 163.7 31.6 M146.6 10.8 L162.1 31.25 Q164.45 36.35 167.65 45.05 162.15 41.5 156.6 35.6 L151.85 24.4 Q147.95 14.7 146.6 10.8 M138.7 11.25 L141.55 15.9 142.15 17.45 144.6 25.25 144.5 25.25 142.9 24.75 136.05 18.9 133.15 16.8 127.2 13.1 123.35 10.8 Q116.1 8.95 105.95 6.85 L115.5 7.35 122.15 8.7 Q125.95 9.95 130.15 12.7 L132.3 14.25 131.6 11.9 130.85 9.55 138.7 11.25 M134.85 15.5 Q134.3 15.35 134.05 15.75 L133.95 15.85 Q134.55 17.4 136.0 18.25 L136.55 18.25 Q136.9 17.65 136.7 16.9 L136.45 16.4 134.95 15.6 134.85 15.5" fill="#5e3bc9" fill-rule="evenodd" stroke="none"/>
      <path d="M167.65 45.05 L168.7 45.7 169.0 45.9 Q169.0 43.0 167.4 36.25 165.9 29.55 160.1 21.7 L156.4 16.9 Q152.3 12.05 147.95 8.35 L138.85 0.55 139.15 1.45 140.35 6.35 144.4 19.3 Q148.1 25.5 153.0 31.35 L156.6 35.6 Q162.15 41.5 167.65 45.05 M165.55 28.85 Q170.05 38.7 169.65 40.65 171.65 49.95 170.6 59.8 L168.1 58.9 Q153.25 53.3 143.8 46.9 132.2 46.25 120.8 49.3 L121.7 46.5 102.25 58.9 103.8 54.1 73.8 86.1 52.75 98.65 Q40.3 98.65 31.95 95.65 38.1 94.95 46.7 90.55 57.45 80.4 67.3 69.55 L76.85 55.1 71.45 57.85 Q77.45 46.75 85.9 35.0 L81.25 35.9 Q93.75 24.2 112.1 13.0 L99.05 6.0 100.95 5.85 101.4 5.8 105.15 5.55 Q113.35 5.1 123.4 5.7 L140.1 10.25 Q139.8 5.6 138.65 0.4 L138.6 0.0 138.75 0.1 139.25 0.45 Q143.9 3.45 148.45 8.15 154.55 13.45 158.85 18.6 163.2 23.85 165.55 28.85 M144.35 21.6 L144.5 21.6 144.25 21.35 144.35 21.6 M141.55 15.9 L139.75 11.45 138.7 11.25 130.85 9.55 126.1 8.5 125.2 8.35 123.9 8.15 119.55 7.55 115.5 7.35 105.95 6.85 105.9 6.85 103.5 7.05 104.55 7.7 107.6 9.15 107.9 9.2 119.0 12.8 133.85 20.45 134.45 20.8 136.9 22.05 Q140.7 23.9 142.9 24.75 L144.5 25.25 144.6 25.25 142.15 17.45 141.55 15.9 M135.4 22.6 L134.95 22.4 Q126.85 19.25 118.6 18.35 L120.15 14.95 Q112.0 14.85 104.7 18.95 94.9 24.55 86.9 33.05 L90.9 32.4 96.55 31.1 Q102.95 29.5 109.4 28.7 L112.85 28.2 130.2 26.55 126.45 31.35 137.55 31.65 Q145.75 32.0 153.55 34.95 147.1 29.15 139.25 26.8 L141.7 26.0 Q138.7 24.05 135.4 22.6 M80.55 63.2 Q74.9 68.45 70.65 73.15 L58.9 85.9 55.15 88.35 Q46.45 95.5 38.8 95.0 L38.8 95.3 49.05 96.8 52.4 96.8 Q65.45 91.05 71.1 85.55 L82.7 73.7 95.2 60.65 Q101.7 53.95 106.25 50.75 L106.1 51.5 105.15 55.8 105.35 55.8 Q105.95 54.9 112.65 50.5 119.5 46.1 123.1 43.15 L123.15 43.45 123.65 46.8 Q129.7 44.2 136.15 43.45 L137.0 43.45 138.3 43.45 139.8 43.45 135.7 41.4 Q130.1 38.7 125.05 37.1 L120.25 35.8 123.4 32.45 118.35 32.45 Q112.15 33.2 106.6 34.65 98.5 36.65 91.75 40.05 86.85 42.5 83.25 45.3 L87.9 44.5 88.0 44.5 88.05 44.45 88.1 44.45 90.05 44.2 Q85.7 46.15 82.25 48.65 78.7 51.1 78.25 51.95 L81.95 51.4 86.05 50.9 85.0 53.8 Q88.3 51.8 92.65 49.5 99.6 45.9 104.05 44.65 96.35 48.95 85.2 58.9 L80.55 63.2 M81.9 46.45 L88.95 39.6 Q92.4 37.7 98.3 35.75 107.4 32.75 118.35 30.85 L117.85 30.6 116.8 30.3 111.3 30.3 Q103.25 30.8 95.9 32.8 91.95 33.9 89.05 35.1 L87.75 37.15 81.9 46.45" fill="url(#gradient0)" fill-rule="evenodd" stroke="none"/>
      <path d="M147.25 10.65 L146.35 10.2 146.6 10.8 Q147.95 14.7 151.85 24.4 L156.6 35.6 153.0 31.35 Q148.1 25.5 144.4 19.3 L140.35 6.35 139.15 1.45 138.85 0.55 147.95 8.35 Q152.3 12.05 156.4 16.9 L152.2 13.6 Q149.7 11.85 147.25 10.65 M104.05 44.65 Q99.6 45.9 92.65 49.5 88.3 51.8 85.0 53.8 L86.05 50.9 81.95 51.4 78.25 51.95 Q78.7 51.1 82.25 48.65 85.7 46.15 90.05 44.2 L98.35 43.55 105.55 43.85 105.65 43.85 105.55 43.9 Q104.9 44.2 104.2 44.6 L104.05 44.65 M81.9 46.45 L87.75 37.15 89.05 35.1 Q91.95 33.9 95.9 32.8 103.25 30.8 111.3 30.3 L116.8 30.3 117.85 30.6 118.35 30.85 Q107.4 32.75 98.3 35.75 92.4 37.7 88.95 39.6 L81.9 46.45" fill="#5134a8" fill-rule="evenodd" stroke="none"/>
      <path d="M144.35 21.6 L144.25 21.35 144.5 21.6 144.35 21.6" fill="url(#gradient1)" fill-rule="evenodd" stroke="none"/>
      <path d="M138.7 11.25 L139.75 11.45 141.55 15.9 138.7 11.25 M142.9 24.75 Q140.7 23.9 136.9 22.05 L134.45 20.8 133.85 20.45 119.0 12.8 107.9 9.2 107.6 9.15 104.55 7.7 103.5 7.05 105.9 6.85 105.95 6.85 Q116.1 8.95 123.35 10.8 L127.2 13.1 133.15 16.8 136.05 18.9 142.9 24.75 M115.5 7.35 L119.55 7.55 123.9 8.15 125.2 8.35 126.1 8.5 130.85 9.55 131.6 11.9 132.3 14.25 130.15 12.7 Q125.95 9.95 122.15 8.7 L115.5 7.35 M135.4 22.6 Q138.7 24.05 141.7 26.0 L139.25 26.8 Q147.1 29.15 153.55 34.95 145.75 32.0 137.55 31.65 L126.45 31.35 130.2 26.55 112.85 28.2 109.4 28.7 Q102.95 29.5 96.55 31.1 L90.9 32.4 86.9 33.05 Q94.9 24.55 104.7 18.95 112.0 14.85 120.15 14.95 L118.6 18.35 Q126.85 19.25 134.95 22.4 L135.4 22.6" fill="#432b8a" fill-rule="evenodd" stroke="none"/>
      <path d="M137.0 43.45 L136.15 43.45 Q129.7 44.2 123.65 46.8 L123.15 43.45 123.1 43.15 Q119.5 46.1 112.65 50.5 105.95 54.9 105.35 55.8 L105.15 55.8 106.1 51.5 106.25 50.75 Q101.7 53.95 95.2 60.65 L82.7 73.7 71.1 85.55 Q65.45 91.05 52.4 96.8 L49.05 96.8 38.8 95.3 38.8 95.0 Q46.45 95.5 55.15 88.35 L58.9 85.9 70.65 73.15 Q74.9 68.45 80.55 63.2 L77.55 73.4 77.65 73.4 Q78.55 71.6 80.6 68.3 81.75 66.4 85.4 62.2 L87.4 59.95 93.2 55.05 Q96.3 52.5 101.35 49.4 L104.35 47.6 Q108.15 45.5 110.3 44.95 L110.2 44.95 105.35 44.6 104.2 44.6 Q104.9 44.2 105.55 43.9 L105.65 43.85 105.55 43.85 98.35 43.55 90.05 44.2 88.1 44.45 88.05 44.45 Q91.35 42.95 93.7 42.15 99.2 40.4 104.75 40.4 L106.55 40.45 110.0 40.95 114.25 41.95 Q113.6 41.0 110.4 38.45 L107.3 36.05 107.45 36.05 Q115.1 36.95 123.05 38.85 131.55 40.9 137.0 43.45 M135.7 41.4 L139.8 43.45 138.3 43.45 135.7 41.4" fill="#29145b" fill-rule="evenodd" stroke="none"/>
      <path d="M80.55 63.2 L85.2 58.9 Q96.35 48.95 104.05 44.65 L104.2 44.6 105.35 44.6 110.2 44.95 110.3 44.95 Q108.15 45.5 104.35 47.6 L101.35 49.4 Q96.3 52.5 93.2 55.05 L87.4 59.95 85.4 62.2 Q81.75 66.4 80.6 68.3 78.55 71.6 77.65 73.4 L77.55 73.4 80.55 63.2 M88.05 44.45 L88.0 44.5 87.9 44.5 83.25 45.3 Q86.85 42.5 91.75 40.05 98.5 36.65 106.6 34.65 112.15 33.2 118.35 32.45 L123.4 32.45 120.25 35.8 125.05 37.1 Q130.1 38.7 135.7 41.4 L138.3 43.45 137.0 43.45 Q131.55 40.9 123.05 38.85 115.1 36.95 107.45 36.05 L107.3 36.05 110.4 38.45 Q113.6 41.0 114.25 41.95 L110.0 40.95 106.55 40.45 104.75 40.4 Q99.2 40.4 93.7 42.15 91.35 42.95 88.05 44.45" fill="#1a0941" fill-rule="evenodd" stroke="none"/>
      <path d="M165.55 28.85 Q163.2 23.85 158.85 18.6 154.55 13.45 148.45 8.15 143.9 3.45 139.25 0.45 L138.75 0.1 138.6 0.0 138.65 0.4 Q139.8 5.6 140.1 10.25 L123.4 5.7 Q113.35 5.1 105.15 5.55 L101.4 5.8 100.95 5.85 99.05 6.0 112.1 13.0 Q93.75 24.2 81.25 35.9 L85.9 35.0 Q77.45 46.75 71.45 57.85 L76.85 55.1 67.3 69.55 Q57.45 80.4 46.7 90.55 38.1 94.95 31.95 95.65 40.3 98.65 52.75 98.65 L73.8 86.1 103.8 54.1 102.25 58.9 121.7 46.5 120.8 49.3 Q132.2 46.25 143.8 46.9 153.25 53.3 168.1 58.9 L170.6 59.8 Q171.65 49.95 169.65 40.65 170.05 38.7 165.55 28.85 Z" fill="none" stroke="#ffffff" stroke-linecap="round" stroke-linejoin="round" stroke-width="6.0"/>
      <path d="M99.05 6.0 L100.95 5.85 101.4 5.8 105.15 5.55 Q113.35 5.1 123.4 5.7 L140.1 10.25 Q139.8 5.6 138.65 0.4 L138.6 0.0 138.75 0.1 139.25 0.45 Q143.9 3.45 148.45 8.15 154.55 13.45 158.85 18.6 163.2 23.85 165.55 28.85 170.05 38.7 169.65 40.65 171.65 49.95 170.6 59.8 L168.1 58.9 Q153.25 53.3 143.8 46.9 132.2 46.25 120.8 49.3 L121.7 46.5 102.25 58.9 103.8 54.1 73.8 86.1 52.75 98.65 Q40.3 98.65 31.95 95.65 38.1 94.95 46.7 90.55 57.45 80.4 67.3 69.55 L76.85 55.1 71.45 57.85 Q77.45 46.75 85.9 35.0 L81.25 35.9 Q93.75 24.2 112.1 13.0 L99.05 6.0 M105.95 6.85 L105.9 6.85 103.5 7.05 104.55 7.7 107.6 9.15 107.9 9.2 119.0 12.8 133.85 20.45 134.45 20.8 136.9 22.05 Q140.7 23.9 142.9 24.75 L144.5 25.25 144.6 25.25 142.15 17.45 141.55 15.9 139.75 11.45 138.7 11.25 130.85 9.55 126.1 8.5 125.2 8.35 123.9 8.15 119.55 7.55 115.5 7.35 105.95 6.85 M118.6 18.35 L120.15 14.95 Q112.0 14.85 104.7 18.95 94.9 24.55 86.9 33.05 L90.9 32.4 96.55 31.1 Q102.95 29.5 109.4 28.7 L112.85 28.2 130.2 26.55 126.45 31.35 137.55 31.65 Q145.75 32.0 153.55 34.95 147.1 29.15 139.25 26.8 L141.7 26.0 Q138.7 24.05 135.4 22.6 L134.95 22.4 Q126.85 19.25 118.6 18.35 M156.4 16.9 Q152.3 12.05 147.95 8.35 L138.85 0.55 139.15 1.45 140.35 6.35 144.4 19.3 Q148.1 25.5 153.0 31.35 L156.6 35.6 Q162.15 41.5 167.65 45.05 L168.7 45.7 169.0 45.9 Q169.0 43.0 167.4 36.25 165.9 29.55 160.1 21.7 L156.4 16.9 M144.25 21.35 L144.35 21.6 144.5 21.6 144.25 21.35 M138.3 43.45 L139.8 43.45 135.7 41.4 Q130.1 38.7 125.05 37.1 L120.25 35.8 123.4 32.45 118.35 32.45 Q112.15 33.2 106.6 34.65 98.5 36.65 91.75 40.05 86.85 42.5 83.25 45.3 L87.9 44.5 88.0 44.5 88.05 44.45 88.1 44.45 90.05 44.2 Q85.7 46.15 82.25 48.65 78.7 51.1 78.25 51.95 L81.95 51.4 86.05 50.9 85.0 53.8 Q88.3 51.8 92.65 49.5 99.6 45.9 104.05 44.65 96.35 48.95 85.2 58.9 L80.55 63.2 Q74.9 68.45 70.65 73.15 L58.9 85.9 55.15 88.35 Q46.45 95.5 38.8 95.0 L38.8 95.3 49.05 96.8 52.4 96.8 Q65.45 91.05 71.1 85.55 L82.7 73.7 95.2 60.65 Q101.7 53.95 106.25 50.75 L106.1 51.5 105.15 55.8 105.35 55.8 Q105.95 54.9 112.65 50.5 119.5 46.1 123.1 43.15 L123.15 43.45 123.65 46.8 Q129.7 44.2 136.15 43.45 L137.0 43.45 138.3 43.45 M118.35 30.85 L117.85 30.6 116.8 30.3 111.3 30.3 Q103.25 30.8 95.9 32.8 91.95 33.9 89.05 35.1 L87.75 37.15 81.9 46.45 88.95 39.6 Q92.4 37.7 98.3 35.75 107.4 32.75 118.35 30.85" fill="url(#gradient2)" fill-rule="evenodd" stroke="none"/>
      <path d="M142.9 24.75 Q140.7 23.9 136.9 22.05 L134.45 20.8 133.85 20.45 119.0 12.8 107.9 9.2 107.6 9.15 104.55 7.7 103.5 7.05 105.9 6.85 105.95 6.85 Q116.1 8.95 123.35 10.8 L127.2 13.1 133.15 16.8 136.05 18.9 142.9 24.75 M115.5 7.35 L119.55 7.55 123.9 8.15 125.2 8.35 126.1 8.5 130.85 9.55 131.6 11.9 132.3 14.25 130.15 12.7 Q125.95 9.95 122.15 8.7 L115.5 7.35 M138.7 11.25 L139.75 11.45 141.55 15.9 138.7 11.25 M118.6 18.35 Q126.85 19.25 134.95 22.4 L135.4 22.6 Q138.7 24.05 141.7 26.0 L139.25 26.8 Q147.1 29.15 153.55 34.95 145.75 32.0 137.55 31.65 L126.45 31.35 130.2 26.55 112.85 28.2 109.4 28.7 Q102.95 29.5 96.55 31.1 L90.9 32.4 86.9 33.05 Q94.9 24.55 104.7 18.95 112.0 14.85 120.15 14.95 L118.6 18.35" fill="#432b8a" fill-rule="evenodd" stroke="none"/>
      <path d="M142.9 24.75 L136.05 18.9 133.15 16.8 127.2 13.1 123.35 10.8 Q116.1 8.95 105.95 6.85 L115.5 7.35 122.15 8.7 Q125.95 9.95 130.15 12.7 L132.3 14.25 131.6 11.9 130.85 9.55 138.7 11.25 141.55 15.9 142.15 17.45 144.6 25.25 144.5 25.25 142.9 24.75 M156.4 16.9 L160.1 21.7 Q165.9 29.55 167.4 36.25 169.0 43.0 169.0 45.9 L168.7 45.7 168.1 43.2 Q166.95 38.35 164.7 33.2 L164.4 32.55 163.7 31.6 Q163.85 30.55 162.45 29.95 L157.7 23.85 147.25 10.65 Q149.7 11.85 152.2 13.6 L156.4 16.9 M167.65 45.05 Q162.15 41.5 156.6 35.6 L151.85 24.4 Q147.95 14.7 146.6 10.8 L162.1 31.25 Q164.45 36.35 167.65 45.05 M134.85 15.5 Q134.3 15.35 134.05 15.75 L133.95 15.85 Q134.55 17.4 136.0 18.25 L136.55 18.25 Q136.9 17.65 136.7 16.9 L136.45 16.4 134.95 15.6 134.85 15.5" fill="#5e3bc9" fill-rule="evenodd" stroke="none"/>
      <path d="M156.6 35.6 L153.0 31.35 Q148.1 25.5 144.4 19.3 L140.35 6.35 139.15 1.45 138.85 0.55 147.95 8.35 Q152.3 12.05 156.4 16.9 L152.2 13.6 Q149.7 11.85 147.25 10.65 L146.35 10.2 146.6 10.8 Q147.95 14.7 151.85 24.4 L156.6 35.6 M104.05 44.65 Q99.6 45.9 92.65 49.5 88.3 51.8 85.0 53.8 L86.05 50.9 81.95 51.4 78.25 51.95 Q78.7 51.1 82.25 48.65 85.7 46.15 90.05 44.2 L98.35 43.55 105.55 43.85 105.65 43.85 105.55 43.9 Q104.9 44.2 104.2 44.6 L104.05 44.65 M118.35 30.85 Q107.4 32.75 98.3 35.75 92.4 37.7 88.95 39.6 L81.9 46.45 87.75 37.15 89.05 35.1 Q91.95 33.9 95.9 32.8 103.25 30.8 111.3 30.3 L116.8 30.3 117.85 30.6 118.35 30.85" fill="#5134a8" fill-rule="evenodd" stroke="none"/>
      <path d="M168.7 45.7 L167.65 45.05 Q164.45 36.35 162.1 31.25 L146.6 10.8 146.35 10.2 147.25 10.65 157.7 23.85 162.45 29.95 162.25 29.8 162.25 29.75 Q162.0 30.5 162.45 31.35 L163.0 32.15 163.3 32.5 163.35 32.55 163.7 31.6 164.4 32.55 164.7 33.2 Q166.95 38.35 168.1 43.2 L168.7 45.7 M134.85 15.5 L134.95 15.6 136.45 16.4 136.7 16.9 Q136.9 17.65 136.55 18.25 L136.0 18.25 Q134.55 17.4 133.95 15.85 L134.05 15.75 Q134.3 15.35 134.85 15.5" fill="#5e5cfc" fill-rule="evenodd" stroke="none"/>
      <path d="M144.25 21.35 L144.5 21.6 144.35 21.6 144.25 21.35" fill="url(#gradient3)" fill-rule="evenodd" stroke="none"/>
      <path d="M162.45 29.95 Q163.85 30.55 163.7 31.6 L163.35 32.55 163.3 32.5 163.0 32.15 162.45 31.35 Q162.0 30.5 162.25 29.75 L162.25 29.8 162.45 29.95" fill="#d3c5fa" fill-rule="evenodd" stroke="none"/>
      <path d="M138.3 43.45 L135.7 41.4 139.8 43.45 138.3 43.45 M88.05 44.45 Q91.35 42.95 93.7 42.15 99.2 40.4 104.75 40.4 L106.55 40.45 110.0 40.95 114.25 41.95 Q113.6 41.0 110.4 38.45 L107.3 36.05 107.45 36.05 Q115.1 36.95 123.05 38.85 131.55 40.9 137.0 43.45 L136.15 43.45 Q129.7 44.2 123.65 46.8 L123.15 43.45 123.1 43.15 Q119.5 46.1 112.65 50.5 105.95 54.9 105.35 55.8 L105.15 55.8 106.1 51.5 106.25 50.75 Q101.7 53.95 95.2 60.65 L82.7 73.7 71.1 85.55 Q65.45 91.05 52.4 96.8 L49.05 96.8 38.8 95.3 38.8 95.0 Q46.45 95.5 55.15 88.35 L58.9 85.9 70.65 73.15 Q74.9 68.45 80.55 63.2 L77.55 73.4 77.65 73.4 Q78.55 71.6 80.6 68.3 81.75 66.4 85.4 62.2 L87.4 59.95 93.2 55.05 Q96.3 52.5 101.35 49.4 L104.35 47.6 Q108.15 45.5 110.3 44.95 L110.2 44.95 105.35 44.6 104.2 44.6 Q104.9 44.2 105.55 43.9 L105.65 43.85 105.55 43.85 98.35 43.55 90.05 44.2 88.1 44.45 88.05 44.45" fill="#29145b" fill-rule="evenodd" stroke="none"/>
      <path d="M135.7 41.4 L138.3 43.45 137.0 43.45 Q131.55 40.9 123.05 38.85 115.1 36.95 107.45 36.05 L107.3 36.05 110.4 38.45 Q113.6 41.0 114.25 41.95 L110.0 40.95 106.55 40.45 104.75 40.4 Q99.2 40.4 93.7 42.15 91.35 42.95 88.05 44.45 L88.0 44.5 87.9 44.5 83.25 45.3 Q86.85 42.5 91.75 40.05 98.5 36.65 106.6 34.65 112.15 33.2 118.35 32.45 L123.4 32.45 120.25 35.8 125.05 37.1 Q130.1 38.7 135.7 41.4 M80.55 63.2 L85.2 58.9 Q96.35 48.95 104.05 44.65 L104.2 44.6 105.35 44.6 110.2 44.95 110.3 44.95 Q108.15 45.5 104.35 47.6 L101.35 49.4 Q96.3 52.5 93.2 55.05 L87.4 59.95 85.4 62.2 Q81.75 66.4 80.6 68.3 78.55 71.6 77.65 73.4 L77.55 73.4 80.55 63.2" fill="#1a0941" fill-rule="evenodd" stroke="none"/>
      <path d="M99.05 6.0 L112.1 13.0 Q93.75 24.2 81.25 35.9 L85.9 35.0 Q77.45 46.75 71.45 57.85 L76.85 55.1 67.3 69.55 Q57.45 80.4 46.7 90.55 38.1 94.95 31.95 95.65 40.3 98.65 52.75 98.65 L73.8 86.1 103.8 54.1 102.25 58.9 121.7 46.5 120.8 49.3 Q132.2 46.25 143.8 46.9 153.25 53.3 168.1 58.9 L170.6 59.8 Q171.65 49.95 169.65 40.65 170.05 38.7 165.55 28.85 163.2 23.85 158.85 18.6 154.55 13.45 148.45 8.15 143.9 3.45 139.25 0.45 L138.75 0.1 138.6 0.0 138.65 0.4 Q139.8 5.6 140.1 10.25 L123.4 5.7 Q113.35 5.1 105.15 5.55 L101.4 5.8 100.95 5.85 99.05 6.0 Z" fill="none" stroke="#270f3a" stroke-linecap="round" stroke-linejoin="round" stroke-width="1.0"/>
    </g>
    <linearGradient gradientTransform="matrix(-0.0337, -0.0011, -0.012, 0.0426, 138.5, 43.7)" gradientUnits="userSpaceOnUse" id="gradient0" spreadMethod="pad" x1="-819.2" x2="819.2">
      <stop offset="0.0" stop-color="#1e1338"/>
      <stop offset="1.0" stop-color="#4a298a"/>
    </linearGradient>
    <linearGradient gradientTransform="matrix(-0.0568, 0.0238, -0.0049, -0.0491, 107.75, 44.3)" gradientUnits="userSpaceOnUse" id="gradient1" spreadMethod="pad" x1="-819.2" x2="819.2">
      <stop offset="0.0" stop-color="#443569"/>
      <stop offset="1.0" stop-color="#736195"/>
    </linearGradient>
    <linearGradient gradientTransform="matrix(-0.0337, -0.0011, -0.012, 0.0426, 138.5, 43.7)" gradientUnits="userSpaceOnUse" id="gradient2" spreadMethod="pad" x1="-819.2" x2="819.2">
      <stop offset="0.0" stop-color="#1e1338"/>
      <stop offset="1.0" stop-color="#4a298a"/>
    </linearGradient>
    <linearGradient gradientTransform="matrix(-0.0568, 0.0238, -0.0049, -0.0491, 107.75, 44.3)" gradientUnits="userSpaceOnUse" id="gradient3" spreadMethod="pad" x1="-819.2" x2="819.2">
      <stop offset="0.0" stop-color="#443569"/>
      <stop offset="1.0" stop-color="#736195"/>
    </linearGradient>
  </defs>
</svg>
