<?xml version="1.0" encoding="UTF-8" standalone="no"?>
<svg xmlns:ffdec="https://www.free-decompiler.com/flash" xmlns:xlink="http://www.w3.org/1999/xlink" ffdec:objectType="frame" height="30.1px" width="30.0px" xmlns="http://www.w3.org/2000/svg">
  <g transform="matrix(1.0, 0.0, 0.0, 1.0, 0.0, 0.0)">
    <use ffdec:characterId="1" height="30.0" transform="matrix(1.0, 0.0, 0.0, 1.0, 0.0, 0.0)" width="30.0" xlink:href="#shape0"/>
    <use ffdec:characterId="3" height="30.0" transform="matrix(1.0, 0.0, 0.0, 1.0, 0.0, 0.1)" width="30.0" xlink:href="#sprite0"/>
  </g>
  <defs>
    <g id="shape0" transform="matrix(1.0, 0.0, 0.0, 1.0, 0.0, 0.0)">
      <path d="M0.0 0.0 L30.0 0.0 30.0 30.0 0.0 30.0 0.0 0.0" fill="#33cc66" fill-opacity="0.0" fill-rule="evenodd" stroke="none"/>
    </g>
    <g id="sprite0" transform="matrix(1.0, 0.0, 0.0, 1.0, 0.0, 0.0)">
      <use ffdec:characterId="2" height="30.0" transform="matrix(1.0, 0.0, 0.0, 1.0, 0.0, 0.0)" width="30.0" xlink:href="#shape1"/>
    </g>
    <g id="shape1" transform="matrix(1.0, 0.0, 0.0, 1.0, 0.0, 0.0)">
      <path d="M27.95 0.15 Q30.0 0.7 30.0 3.3 L30.0 26.7 29.8 28.15 Q29.15 30.0 26.7 30.0 L3.3 30.0 2.4 29.95 Q0.7 29.65 0.2 28.15 L0.0 26.7 0.0 3.3 Q0.0 0.7 2.05 0.15 L2.4 0.1 3.3 0.0 26.7 0.0 27.95 0.15" fill="#cccccc" fill-rule="evenodd" stroke="none"/>
      <path d="M13.7 10.75 L13.15 10.05 13.55 9.4 Q15.2 6.85 17.15 4.8 L17.45 4.45 17.6 4.85 18.2 9.55 18.2 9.8 18.1 10.45 Q17.85 12.15 17.2 13.8 L16.8 14.65 15.5 12.75 13.7 10.75 M17.65 11.35 L17.65 10.55 17.25 5.9 15.85 7.3 Q14.8 8.35 13.95 9.95 L15.55 12.4 16.6 14.3 17.3 12.4 17.6 11.5 17.65 11.35" fill="#ffa6cd" fill-rule="evenodd" stroke="none"/>
      <path d="M13.7 10.75 L15.5 12.75 15.45 12.95 15.25 13.45 14.6 15.35 13.2 18.4 12.7 18.5 10.55 18.95 Q11.0 20.25 12.5 22.35 L14.55 24.85 14.65 25.05 14.7 25.6 15.9 24.5 Q17.45 21.35 18.0 17.2 L18.15 15.9 18.4 16.55 19.0 18.8 19.0 18.75 18.95 18.25 19.0 17.1 18.85 12.1 18.85 11.25 18.6 10.85 18.55 10.65 18.25 9.95 18.2 9.8 18.2 9.55 17.6 4.85 19.65 10.25 Q20.1 16.0 19.55 20.05 L19.4 20.4 19.0 21.2 18.85 21.4 Q17.4 24.0 15.1 26.05 L14.65 26.35 11.4 22.1 8.9 17.85 11.6 18.1 Q13.7 15.05 14.3 12.2 14.1 11.4 13.7 10.75" fill="#ff7bb5" fill-rule="evenodd" stroke="none"/>
      <path d="M17.65 11.35 L17.6 11.5 17.3 12.4 16.6 14.3 15.55 12.4 13.95 9.95 Q14.8 8.35 15.85 7.3 L17.25 5.9 17.65 10.55 17.65 11.35" fill="#ffe2ef" fill-rule="evenodd" stroke="none"/>
      <path d="M18.4 16.55 L18.15 15.9 18.0 17.2 Q17.95 16.25 17.35 16.25 16.95 16.25 15.95 17.9 14.95 19.7 15.1 20.6 L13.1 19.9 11.3 19.35 12.25 19.15 Q13.0 19.05 13.15 18.7 L14.65 16.1 Q15.55 14.6 15.55 13.35 L17.0 15.2 17.25 14.6 18.5 11.2 18.4 13.95 18.4 16.55" fill="#a11452" fill-rule="evenodd" stroke="none"/>
      <path d="M15.5 12.75 L16.8 14.65 17.2 13.8 Q17.85 12.15 18.1 10.45 L18.2 9.8 18.25 9.95 18.55 10.65 18.6 10.85 18.85 11.25 18.85 12.1 19.0 17.1 18.95 18.25 19.0 18.75 19.0 18.8 18.4 16.55 18.4 13.95 18.5 11.2 17.25 14.6 17.0 15.2 15.55 13.35 Q15.55 14.6 14.65 16.1 L13.15 18.7 Q13.0 19.05 12.25 19.15 L11.3 19.35 13.1 19.9 15.1 20.6 Q14.95 19.7 15.95 17.9 16.95 16.25 17.35 16.25 17.95 16.25 18.0 17.2 17.45 21.35 15.9 24.5 L14.7 25.6 14.65 25.05 14.55 24.85 12.5 22.35 Q11.0 20.25 10.55 18.95 L12.7 18.5 13.2 18.4 14.6 15.35 15.25 13.45 15.45 12.95 15.5 12.75" fill="url(#gradient0)" fill-rule="evenodd" stroke="none"/>
      <path d="M17.6 4.85 L17.45 4.45 17.15 4.8 Q15.2 6.85 13.55 9.4 L13.15 10.05 13.7 10.75 Q14.1 11.4 14.3 12.2 13.7 15.05 11.6 18.1 L8.9 17.85 11.4 22.1 14.65 26.35 15.1 26.05 Q17.4 24.0 18.85 21.4 M17.6 4.85 L19.65 10.25 Q20.1 16.0 19.55 20.05 L19.4 20.4 19.0 21.2" fill="none" stroke="#ffffff" stroke-linecap="round" stroke-linejoin="round" stroke-width="4.0"/>
      <path d="M18.85 21.4 Q17.4 24.0 15.1 26.05 L14.65 26.35 11.4 22.1 8.9 17.85 11.6 18.1 Q13.7 15.05 14.3 12.2 14.1 11.4 13.7 10.75 L15.5 12.75 15.45 12.95 15.25 13.45 14.6 15.35 13.2 18.4 12.7 18.5 10.55 18.95 Q11.0 20.25 12.5 22.35 L14.55 24.85 14.65 25.05 14.7 25.6 15.9 24.5 Q17.45 21.35 18.0 17.2 L18.15 15.9 18.4 16.55 19.0 18.8 19.0 18.75 18.95 18.25 19.0 17.1 18.85 12.1 18.85 11.25 18.6 10.85 18.55 10.65 18.25 9.95 18.2 9.8 18.2 9.55 17.6 4.85 19.65 10.25 Q20.1 16.0 19.55 20.05 L19.4 20.4 19.0 21.2 18.85 21.4" fill="#ff7bb5" fill-rule="evenodd" stroke="none"/>
      <path d="M17.6 4.85 L18.2 9.55 18.2 9.8 18.1 10.45 Q17.85 12.15 17.2 13.8 L16.8 14.65 15.5 12.75 13.7 10.75 13.15 10.05 13.55 9.4 Q15.2 6.85 17.15 4.8 L17.45 4.45 17.6 4.85 M17.65 11.35 L17.65 10.55 17.25 5.9 15.85 7.3 Q14.8 8.35 13.95 9.95 L15.55 12.4 16.6 14.3 17.3 12.4 17.6 11.5 17.65 11.35" fill="#ffa6cd" fill-rule="evenodd" stroke="none"/>
      <path d="M18.2 9.8 L18.25 9.95 18.55 10.65 18.6 10.85 18.85 11.25 18.85 12.1 19.0 17.1 18.95 18.25 19.0 18.75 19.0 18.8 18.4 16.55 18.4 13.95 18.5 11.2 17.25 14.6 17.0 15.2 15.55 13.35 Q15.55 14.6 14.65 16.1 L13.15 18.7 Q13.0 19.05 12.25 19.15 L11.3 19.35 13.1 19.9 15.1 20.6 Q14.95 19.7 15.95 17.9 16.95 16.25 17.35 16.25 17.95 16.25 18.0 17.2 17.45 21.35 15.9 24.5 L14.7 25.6 14.65 25.05 14.55 24.85 12.5 22.35 Q11.0 20.25 10.55 18.95 L12.7 18.5 13.2 18.4 14.6 15.35 15.25 13.45 15.45 12.95 15.5 12.75 16.8 14.65 17.2 13.8 Q17.85 12.15 18.1 10.45 L18.2 9.8" fill="url(#gradient1)" fill-rule="evenodd" stroke="none"/>
      <path d="M17.65 11.35 L17.6 11.5 17.3 12.4 16.6 14.3 15.55 12.4 13.95 9.95 Q14.8 8.35 15.85 7.3 L17.25 5.9 17.65 10.55 17.65 11.35" fill="#ffe2ef" fill-rule="evenodd" stroke="none"/>
      <path d="M18.4 16.55 L18.15 15.9 18.0 17.2 Q17.95 16.25 17.35 16.25 16.95 16.25 15.95 17.9 14.95 19.7 15.1 20.6 L13.1 19.9 11.3 19.35 12.25 19.15 Q13.0 19.05 13.15 18.7 L14.65 16.1 Q15.55 14.6 15.55 13.35 L17.0 15.2 17.25 14.6 18.5 11.2 18.4 13.95 18.4 16.55" fill="#a11452" fill-rule="evenodd" stroke="none"/>
      <path d="M13.7 10.75 Q14.1 11.4 14.3 12.2 13.7 15.05 11.6 18.1 L8.9 17.85 11.4 22.1 14.65 26.35 15.1 26.05 Q17.4 24.0 18.85 21.4 M19.0 21.2 L19.4 20.4 19.55 20.05 Q20.1 16.0 19.65 10.25 L17.6 4.85 17.45 4.45 17.15 4.8 Q15.2 6.85 13.55 9.4 L13.15 10.05 13.7 10.75" fill="none" stroke="#5d327e" stroke-linecap="round" stroke-linejoin="round" stroke-width="1.0"/>
    </g>
    <linearGradient gradientTransform="matrix(0.0014, -0.0068, 0.0049, 0.001, 14.9, 17.85)" gradientUnits="userSpaceOnUse" id="gradient0" spreadMethod="pad" x1="-819.2" x2="819.2">
      <stop offset="0.0" stop-color="#9a1650"/>
      <stop offset="1.0" stop-color="#ff4646"/>
    </linearGradient>
    <linearGradient gradientTransform="matrix(0.0014, -0.0068, 0.0049, 0.001, 14.9, 17.85)" gradientUnits="userSpaceOnUse" id="gradient1" spreadMethod="pad" x1="-819.2" x2="819.2">
      <stop offset="0.0" stop-color="#9a1650"/>
      <stop offset="1.0" stop-color="#ff4646"/>
    </linearGradient>
  </defs>
</svg>
