<?xml version="1.0" encoding="UTF-8" standalone="no"?>
<svg xmlns:ffdec="https://www.free-decompiler.com/flash" xmlns:xlink="http://www.w3.org/1999/xlink" ffdec:objectType="frame" height="30.1px" width="30.0px" xmlns="http://www.w3.org/2000/svg">
  <g transform="matrix(1.0, 0.0, 0.0, 1.0, 0.0, 0.0)">
    <use ffdec:characterId="1" height="30.0" transform="matrix(1.0, 0.0, 0.0, 1.0, 0.0, 0.0)" width="30.0" xlink:href="#shape0"/>
    <use ffdec:characterId="5" height="30.0" transform="matrix(1.0, 0.0, 0.0, 1.0, 0.0, 0.1)" width="30.0" xlink:href="#sprite0"/>
  </g>
  <defs>
    <g id="shape0" transform="matrix(1.0, 0.0, 0.0, 1.0, 0.0, 0.0)">
      <path d="M0.0 0.0 L30.0 0.0 30.0 30.0 0.0 30.0 0.0 0.0" fill="#33cc66" fill-opacity="0.0" fill-rule="evenodd" stroke="none"/>
    </g>
    <g id="sprite0" transform="matrix(1.0, 0.0, 0.0, 1.0, 0.0, 0.0)">
      <use ffdec:characterId="2" height="30.0" transform="matrix(1.0, 0.0, 0.0, 1.0, 0.0, 0.0)" width="30.0" xlink:href="#shape1"/>
      <use ffdec:characterId="4" height="72.35" transform="matrix(0.2916, 0.0, 0.0, 0.2916, 5.0792, 4.9524)" width="71.9" xlink:href="#sprite1"/>
    </g>
    <g id="shape1" transform="matrix(1.0, 0.0, 0.0, 1.0, 0.0, 0.0)">
      <path d="M27.95 0.15 Q30.0 0.7 30.0 3.3 L30.0 26.7 29.8 28.15 Q29.15 30.0 26.7 30.0 L3.3 30.0 2.4 29.95 Q0.7 29.65 0.2 28.15 L0.0 26.7 0.0 3.3 Q0.0 0.7 2.05 0.15 L2.4 0.1 3.3 0.0 26.7 0.0 27.95 0.15" fill="#cccccc" fill-rule="evenodd" stroke="none"/>
    </g>
    <g id="sprite1" transform="matrix(1.0, 0.0, 0.0, 1.0, 1.1, 6.85)">
      <use ffdec:characterId="3" height="72.35" transform="matrix(1.0, 0.0, 0.0, 1.0, -1.1, -6.85)" width="71.9" xlink:href="#shape2"/>
    </g>
    <g id="shape2" transform="matrix(1.0, 0.0, 0.0, 1.0, 1.1, 6.85)">
      <path d="M4.45 -2.1 L4.7 -2.35 4.7 -1.9 Q4.75 2.05 13.4 7.0 L14.75 11.75 14.8 12.25 21.65 19.0 21.1 14.9 20.9 13.45 20.45 10.95 23.6 12.9 26.2 19.9 27.05 22.25 30.5 26.0 33.45 29.8 33.75 33.05 33.45 29.8 33.45 28.65 36.1 30.65 Q38.55 33.0 41.15 37.1 L45.1 43.75 49.2 51.35 49.45 51.35 Q51.15 48.9 52.25 46.55 53.75 43.1 54.35 38.35 L54.65 35.85 54.7 32.05 Q54.05 30.15 52.9 28.15 L50.7 24.75 49.9 23.9 45.85 19.5 44.15 17.45 Q41.3 13.55 37.8 11.5 L39.15 8.65 Q43.05 11.8 47.85 18.4 L50.85 22.5 54.0 27.2 Q53.25 24.1 51.95 20.9 L51.35 19.5 50.25 16.8 Q47.55 9.45 48.05 3.5 48.25 1.1 49.5 -1.85 L50.7 -4.3 50.75 -4.35 Q49.35 1.3 52.45 9.35 60.3 22.85 60.75 35.1 57.45 53.25 46.65 57.15 L43.8 63.0 40.1 60.95 37.85 61.5 Q37.0 59.5 33.7 57.1 L34.1 56.45 Q31.9 54.35 29.5 52.85 31.9 54.35 34.1 56.45 L33.7 57.1 31.45 60.6 Q24.5 55.85 14.8 52.6 12.85 52.15 11.35 51.45 L15.9 52.15 22.8 53.0 26.55 53.2 28.15 53.2 29.5 52.85 Q23.3 48.75 15.5 47.6 8.4 40.3 5.1 31.65 L4.4 29.6 7.6 32.45 Q10.25 34.55 13.35 36.55 18.85 40.05 23.9 42.1 26.4 43.1 28.75 43.75 33.2 45.0 37.25 45.0 L37.4 45.0 Q35.9 41.65 34.85 38.15 34.05 35.6 33.75 33.05 31.75 30.7 29.2 28.4 L28.45 27.75 26.45 26.0 Q20.1 22.3 15.3 21.65 L11.0 20.9 Q6.6 19.95 2.05 18.35 L1.6 14.7 Q5.95 16.9 9.6 18.3 15.55 20.5 20.0 20.55 L12.9 14.9 10.75 12.65 Q6.45 7.65 5.25 3.85 4.55 1.7 4.45 -2.1 M51.05 13.5 L51.55 15.3 52.65 18.45 Q55.0 25.6 56.55 32.75 L56.8 30.4 57.05 26.85 57.15 24.9 56.95 21.1 56.2 19.4 53.75 13.75 50.85 6.85 50.7 6.8 50.6 7.7 51.05 13.5 M58.85 28.15 L57.65 31.15 57.5 31.6 56.7 33.15 56.5 35.25 56.25 37.25 Q55.7 41.45 54.15 45.75 52.6 49.95 50.7 53.0 58.15 48.3 59.35 34.6 59.65 31.15 59.4 29.85 L58.85 28.15 M66.7 47.8 L65.5 49.65 Q60.3 58.0 53.55 59.35 L49.75 57.0 Q54.15 54.1 58.45 50.15 L57.8 53.0 57.95 53.0 Q60.8 51.75 63.95 49.7 L66.7 47.8 M34.35 21.8 L34.1 22.7 34.05 23.0 33.35 20.65 34.35 21.8 M37.4 45.0 L38.45 47.2 Q40.35 51.05 40.2 56.6 L37.5 59.5 40.1 60.95 37.5 59.5 40.2 56.6 Q40.35 51.05 38.45 47.2 L37.4 45.0" fill="#76a650" fill-rule="evenodd" stroke="none"/>
      <path d="M4.45 -2.1 Q4.55 1.7 5.25 3.85 6.45 7.65 10.75 12.65 L8.15 13.0 6.9 12.9 Q4.55 12.65 1.4 11.4 1.1 1.4 4.45 -2.1 M2.05 18.35 Q6.6 19.95 11.0 20.9 L15.3 21.65 Q20.1 22.3 26.45 26.0 L28.45 27.75 Q29.4 30.15 29.4 31.2 29.4 34.5 21.35 34.5 L18.55 34.4 Q13.35 34.15 8.15 32.6 L7.6 32.45 4.4 29.6 4.0 28.2 3.2 25.75 2.05 18.35 M50.7 -4.3 L49.5 -1.85 Q48.25 1.1 48.05 3.5 47.55 9.45 50.25 16.8 L47.85 18.4 Q43.05 11.8 39.15 8.65 43.85 -0.75 50.7 -4.3 M37.8 11.5 Q41.3 13.55 44.15 17.45 L45.85 19.5 49.9 23.9 50.7 24.75 52.9 28.15 Q51.85 28.95 50.55 29.25 L43.55 29.6 39.25 28.8 Q37.05 28.1 35.1 26.9 L33.6 25.85 34.05 23.0 34.1 22.7 34.35 21.8 34.85 19.8 Q36.25 15.25 37.8 11.5 M44.8 5.9 Q43.45 6.8 44.65 7.95 L44.8 8.1 Q46.15 7.15 45.05 6.0 L44.8 5.9 M43.85 19.35 Q41.95 22.2 45.35 24.4 L45.55 24.4 Q46.35 21.85 44.15 19.55 L43.85 19.35 M6.95 10.5 Q7.75 9.7 6.65 8.8 L6.5 8.8 Q5.7 9.6 6.9 10.45 L6.95 10.5 M18.75 26.5 Q21.25 28.7 22.65 26.65 22.9 26.3 22.45 25.9 20.8 24.5 18.85 23.85 16.55 24.6 18.75 26.5" fill="#b8e754" fill-rule="evenodd" stroke="none"/>
      <path d="M10.75 12.65 L12.9 14.9 20.0 20.55 Q15.55 20.5 9.6 18.3 5.95 16.9 1.6 14.7 L1.4 11.4 Q4.55 12.65 6.9 12.9 L8.15 13.0 10.75 12.65 M28.45 27.75 L29.2 28.4 Q31.75 30.7 33.75 33.05 34.05 35.6 34.85 38.15 35.9 41.65 37.4 45.0 L37.25 45.0 Q33.2 45.0 28.75 43.75 26.4 43.1 23.9 42.1 18.85 40.05 13.35 36.55 10.25 34.55 7.6 32.45 L8.15 32.6 Q13.35 34.15 18.55 34.4 L21.35 34.5 Q29.4 34.5 29.4 31.2 29.4 30.15 28.45 27.75 M33.45 29.8 L30.5 26.0 27.05 22.25 26.2 19.9 23.6 12.9 29.4 16.9 Q31.4 18.45 33.35 20.65 L34.05 23.0 33.6 25.85 35.1 26.9 Q37.05 28.1 39.25 28.8 L43.55 29.6 50.55 29.25 Q51.85 28.95 52.9 28.15 54.05 30.15 54.7 32.05 L54.65 35.85 54.35 38.35 Q53.75 43.1 52.25 46.55 51.15 48.9 49.45 51.35 L49.2 51.35 45.1 43.75 41.15 37.1 Q38.55 33.0 36.1 30.65 L33.45 28.65 33.45 29.8 M20.45 10.95 L20.9 13.45 21.1 14.9 21.65 19.0 14.8 12.25 14.75 11.75 13.4 7.0 13.8 7.15 20.45 10.95 M50.25 16.8 L51.35 19.5 51.95 20.9 Q53.25 24.1 54.0 27.2 L50.85 22.5 47.85 18.4 50.25 16.8 M51.05 13.5 L50.6 7.7 50.7 6.8 50.85 6.85 53.75 13.75 56.2 19.4 56.95 21.1 57.15 24.9 57.05 26.85 56.8 30.4 56.55 32.75 Q55.0 25.6 52.65 18.45 L51.55 15.3 51.05 13.5 M58.85 28.15 L59.4 29.85 Q59.65 31.15 59.35 34.6 58.15 48.3 50.7 53.0 52.6 49.95 54.15 45.75 55.7 41.45 56.25 37.25 L56.5 35.25 56.7 33.15 57.5 31.6 57.65 31.15 58.85 28.15 M33.45 28.65 L33.45 28.45 33.6 25.85 33.45 28.45 33.45 28.65 M58.45 50.15 L62.45 46.4 62.65 46.1 Q65.9 43.7 67.95 39.0 69.1 43.35 66.7 47.8 L63.95 49.7 Q60.8 51.75 57.95 53.0 L57.8 53.0 58.45 50.15 M15.5 47.6 Q23.3 48.75 29.5 52.85 L28.15 53.2 26.55 53.2 22.8 53.0 15.9 52.15 11.35 51.45 Q7.3 49.3 7.25 44.6 9.1 46.75 12.3 47.25 L15.5 47.6 M16.5 49.6 L16.4 49.7 Q17.3 51.5 19.45 51.15 L20.4 50.85 20.55 50.7 Q20.3 49.4 18.85 49.25 L18.25 49.15 17.2 49.25 Q16.8 49.35 16.5 49.6" fill="#aad256" fill-rule="evenodd" stroke="none"/>
      <path d="M44.8 5.9 L45.05 6.0 Q46.15 7.15 44.8 8.1 L44.65 7.95 Q43.45 6.8 44.8 5.9 M43.85 19.35 L44.15 19.55 Q46.35 21.85 45.55 24.4 L45.35 24.4 Q41.95 22.2 43.85 19.35 M6.95 10.5 L6.9 10.45 Q5.7 9.6 6.5 8.8 L6.65 8.8 Q7.75 9.7 6.95 10.5 M18.75 26.5 Q16.55 24.6 18.85 23.85 20.8 24.5 22.45 25.9 22.9 26.3 22.65 26.65 21.25 28.7 18.75 26.5 M16.5 49.6 Q16.8 49.35 17.2 49.25 L18.25 49.15 18.85 49.25 Q20.3 49.4 20.55 50.7 L20.4 50.85 19.45 51.15 Q17.3 51.5 16.4 49.7 L16.5 49.6" fill="#d2ff9a" fill-rule="evenodd" stroke="none"/>
      <path d="M13.4 7.0 Q4.75 2.05 4.7 -1.9 L4.7 -2.35 4.45 -2.1 Q1.1 1.4 1.4 11.4 L1.6 14.7 2.05 18.35 3.2 25.75 4.0 28.2 4.4 29.6 5.1 31.65 Q8.4 40.3 15.5 47.6 23.3 48.75 29.5 52.85 31.9 54.35 34.1 56.45 L33.7 57.1 Q37.0 59.5 37.85 61.5 L40.1 60.95 37.5 59.5 40.2 56.6 Q40.35 51.05 38.45 47.2 L37.4 45.0 Q35.9 41.65 34.85 38.15 34.05 35.6 33.75 33.05 L33.45 29.8 33.45 28.65 33.45 28.45 33.6 25.85 34.05 23.0 34.1 22.7 34.35 21.8 33.35 20.65 Q31.4 18.45 29.4 16.9 L23.6 12.9 20.45 10.95 13.8 7.15 13.4 7.0 M40.1 60.95 L43.8 63.0 46.65 57.15 Q57.45 53.25 60.75 35.1 60.3 22.85 52.45 9.35 49.35 1.3 50.75 -4.35 L50.7 -4.3 Q43.85 -0.75 39.15 8.65 L37.8 11.5 Q36.25 15.25 34.85 19.8 L34.35 21.8 M58.45 50.15 L62.45 46.4 62.65 46.1 Q65.9 43.7 67.95 39.0 69.1 43.35 66.7 47.8 L65.5 49.65 Q60.3 58.0 53.55 59.35 L49.75 57.0 Q54.15 54.1 58.45 50.15 M11.35 51.45 Q7.3 49.3 7.25 44.6 9.1 46.75 12.3 47.25 L15.5 47.6 M11.35 51.45 Q12.85 52.15 14.8 52.6 24.5 55.85 31.45 60.6 L33.7 57.1" fill="none" stroke="#ffffff" stroke-linecap="round" stroke-linejoin="round" stroke-width="5.0"/>
      <path d="M10.75 12.65 Q6.45 7.65 5.25 3.85 4.55 1.7 4.45 -2.1 L4.7 -2.35 4.7 -1.9 Q4.75 2.05 13.4 7.0 L14.75 11.75 14.8 12.25 21.65 19.0 21.1 14.9 20.9 13.45 20.45 10.95 23.6 12.9 26.2 19.9 27.05 22.25 30.5 26.0 Q35.4 31.65 37.35 37.05 L37.35 36.85 Q37.35 35.35 35.0 26.5 L33.35 20.65 Q35.35 22.85 37.35 25.85 39.55 29.0 41.75 33.1 47.45 46.0 45.2 59.65 L37.85 61.5 Q36.75 58.85 31.25 55.4 27.65 55.1 23.9 53.5 21.25 52.4 18.6 50.55 L16.7 48.8 Q8.7 41.0 5.1 31.65 L4.4 29.6 7.6 32.45 Q10.25 34.55 13.35 36.55 18.85 40.05 23.9 42.1 26.4 43.1 28.75 43.75 33.2 45.0 37.25 45.0 L40.55 44.75 Q38.8 38.95 33.9 33.25 31.85 30.8 29.2 28.4 L28.45 27.75 26.45 26.0 Q20.1 22.3 15.3 21.65 L11.0 20.9 Q6.6 19.95 2.05 18.35 L1.6 14.7 Q5.95 16.9 9.6 18.3 15.55 20.5 20.0 20.55 L12.9 14.9 10.75 12.65" fill="#76a650" fill-rule="evenodd" stroke="none"/>
      <path d="M4.45 -2.1 Q4.55 1.7 5.25 3.85 6.45 7.65 10.75 12.65 L8.15 13.0 6.9 12.9 Q4.55 12.65 1.4 11.4 1.1 1.4 4.45 -2.1 M2.05 18.35 Q6.6 19.95 11.0 20.9 L15.3 21.65 Q20.1 22.3 26.45 26.0 L28.45 27.75 Q29.4 30.15 29.4 31.2 29.4 34.5 21.35 34.5 L18.55 34.4 Q13.35 34.15 8.15 32.6 L7.6 32.45 4.4 29.6 4.0 28.2 3.2 25.75 2.05 18.35 M6.5 8.8 Q5.7 9.6 6.9 10.45 L6.95 10.5 Q7.75 9.7 6.65 8.8 L6.5 8.8 M22.45 25.9 Q20.8 24.5 18.85 23.85 16.55 24.6 18.75 26.5 21.25 28.7 22.65 26.65 22.9 26.3 22.45 25.9" fill="#b8e754" fill-rule="evenodd" stroke="none"/>
      <path d="M10.75 12.65 L12.9 14.9 20.0 20.55 Q15.55 20.5 9.6 18.3 5.95 16.9 1.6 14.7 L1.4 11.4 Q4.55 12.65 6.9 12.9 L8.15 13.0 10.75 12.65 M28.45 27.75 L29.2 28.4 Q31.85 30.8 33.9 33.25 38.8 38.95 40.55 44.75 L37.25 45.0 Q33.2 45.0 28.75 43.75 26.4 43.1 23.9 42.1 18.85 40.05 13.35 36.55 10.25 34.55 7.6 32.45 L8.15 32.6 Q13.35 34.15 18.55 34.4 L21.35 34.5 Q29.4 34.5 29.4 31.2 29.4 30.15 28.45 27.75 M33.35 20.65 L35.0 26.5 Q37.35 35.35 37.35 36.85 L37.35 37.05 Q35.4 31.65 30.5 26.0 L27.05 22.25 26.2 19.9 23.6 12.9 29.4 16.9 Q31.4 18.45 33.35 20.65 M20.45 10.95 L20.9 13.45 21.1 14.9 21.65 19.0 14.8 12.25 14.75 11.75 13.4 7.0 13.8 7.15 20.45 10.95" fill="#aad256" fill-rule="evenodd" stroke="none"/>
      <path d="M6.5 8.8 L6.65 8.8 Q7.75 9.7 6.95 10.5 L6.9 10.45 Q5.7 9.6 6.5 8.8 M22.45 25.9 Q22.9 26.3 22.65 26.65 21.25 28.7 18.75 26.5 16.55 24.6 18.85 23.85 20.8 24.5 22.45 25.9" fill="#d2ff9a" fill-rule="evenodd" stroke="none"/>
      <path d="M1.6 14.7 L2.05 18.35 3.2 25.75 4.0 28.2 4.4 29.6 5.1 31.65 Q8.7 41.0 16.7 48.8 L18.6 50.55 Q21.25 52.4 23.9 53.5 27.65 55.1 31.25 55.4 36.75 58.85 37.85 61.5 L45.2 59.65 Q47.45 46.0 41.75 33.1 39.55 29.0 37.35 25.85 35.35 22.85 33.35 20.65 31.4 18.45 29.4 16.9 L23.6 12.9 20.45 10.95 13.8 7.15 13.4 7.0 Q4.75 2.05 4.7 -1.9 L4.7 -2.35 4.45 -2.1 Q1.1 1.4 1.4 11.4 L1.6 14.7 Z" fill="none" stroke="#355d2c" stroke-linecap="round" stroke-linejoin="round" stroke-width="1.0"/>
      <path d="M58.45 50.15 L62.45 46.4 62.65 46.1 Q65.9 43.7 67.95 39.0 69.1 43.35 66.7 47.8 L63.95 49.7 Q60.8 51.75 57.95 53.0 L57.8 53.0 58.45 50.15" fill="#aad256" fill-rule="evenodd" stroke="none"/>
      <path d="M66.7 47.8 L65.5 49.65 Q60.3 58.0 53.55 59.35 L49.75 57.0 Q54.15 54.1 58.45 50.15 L57.8 53.0 57.95 53.0 Q60.8 51.75 63.95 49.7 L66.7 47.8" fill="#76a650" fill-rule="evenodd" stroke="none"/>
      <path d="M58.45 50.15 L62.45 46.4 62.65 46.1 Q65.9 43.7 67.95 39.0 69.1 43.35 66.7 47.8 L65.5 49.65 Q60.3 58.0 53.55 59.35 L49.75 57.0 Q54.15 54.1 58.45 50.15 Z" fill="none" stroke="#355d2c" stroke-linecap="round" stroke-linejoin="round" stroke-width="1.0"/>
      <path d="M50.25 16.8 Q47.55 9.45 48.05 3.5 48.25 1.1 49.5 -1.85 L50.7 -4.3 50.75 -4.35 Q49.35 1.3 52.45 9.35 60.3 22.85 60.75 35.1 57.45 53.25 46.65 57.15 L43.8 63.0 37.5 59.5 40.2 56.6 Q40.35 51.05 38.45 47.2 36.25 42.8 34.85 38.15 33.4 33.35 33.45 28.65 37.2 30.8 41.15 37.1 43.35 40.35 49.2 51.35 L49.45 51.35 Q51.15 48.9 52.25 46.55 53.75 43.1 54.35 38.35 L54.65 35.85 54.7 32.05 Q54.05 30.15 52.9 28.15 L50.7 24.75 49.9 23.9 45.85 19.5 44.15 17.45 Q41.3 13.55 37.8 11.5 L39.15 8.65 Q43.05 11.8 47.85 18.4 L50.85 22.5 54.0 27.2 Q53.25 24.1 51.95 20.9 L51.35 19.5 50.25 16.8 M50.6 7.7 L51.05 13.5 51.55 15.3 52.65 18.45 Q55.0 25.6 56.55 32.75 L56.8 30.4 57.05 26.85 57.15 24.9 56.95 21.1 56.2 19.4 53.75 13.75 50.85 6.85 50.7 6.8 50.6 7.7 M57.5 31.6 L56.7 33.15 56.5 35.25 56.25 37.25 Q55.7 41.45 54.15 45.75 52.6 49.95 50.7 53.0 58.15 48.3 59.35 34.6 59.65 31.15 59.4 29.85 L58.85 28.15 57.65 31.15 57.5 31.6" fill="#76a650" fill-rule="evenodd" stroke="none"/>
      <path d="M50.7 -4.3 L49.5 -1.85 Q48.25 1.1 48.05 3.5 47.55 9.45 50.25 16.8 L47.85 18.4 Q43.05 11.8 39.15 8.65 43.85 -0.75 50.7 -4.3 M37.8 11.5 Q41.3 13.55 44.15 17.45 L45.85 19.5 49.9 23.9 50.7 24.75 52.9 28.15 Q51.85 28.95 50.55 29.25 L43.55 29.6 Q37.9 29.1 33.6 25.85 L34.1 22.7 34.85 19.8 Q36.25 15.25 37.8 11.5 M45.05 6.0 L44.8 5.9 Q43.45 6.8 44.65 7.95 L44.8 8.1 Q46.15 7.15 45.05 6.0 M43.85 19.35 Q41.95 22.2 45.35 24.4 L45.55 24.4 Q46.35 21.85 44.15 19.55 L43.85 19.35" fill="#b8e754" fill-rule="evenodd" stroke="none"/>
      <path d="M50.25 16.8 L51.35 19.5 51.95 20.9 Q53.25 24.1 54.0 27.2 L50.85 22.5 47.85 18.4 50.25 16.8 M52.9 28.15 Q54.05 30.15 54.7 32.05 L54.65 35.85 54.35 38.35 Q53.75 43.1 52.25 46.55 51.15 48.9 49.45 51.35 L49.2 51.35 Q43.35 40.35 41.15 37.1 37.2 30.8 33.45 28.65 L33.45 28.45 33.6 25.85 Q37.9 29.1 43.55 29.6 L50.55 29.25 Q51.85 28.95 52.9 28.15 M50.6 7.7 L50.7 6.8 50.85 6.85 53.75 13.75 56.2 19.4 56.95 21.1 57.15 24.9 57.05 26.85 56.8 30.4 56.55 32.75 Q55.0 25.6 52.65 18.45 L51.55 15.3 51.05 13.5 50.6 7.7 M57.5 31.6 L57.65 31.15 58.85 28.15 59.4 29.85 Q59.65 31.15 59.35 34.6 58.15 48.3 50.7 53.0 52.6 49.95 54.15 45.75 55.7 41.45 56.25 37.25 L56.5 35.25 56.7 33.15 57.5 31.6" fill="#aad256" fill-rule="evenodd" stroke="none"/>
      <path d="M45.05 6.0 Q46.15 7.15 44.8 8.1 L44.65 7.95 Q43.45 6.8 44.8 5.9 L45.05 6.0 M43.85 19.35 L44.15 19.55 Q46.35 21.85 45.55 24.4 L45.35 24.4 Q41.95 22.2 43.85 19.35" fill="#d2ff9a" fill-rule="evenodd" stroke="none"/>
      <path d="M39.15 8.65 L37.8 11.5 Q36.25 15.25 34.85 19.8 L34.1 22.7 33.6 25.85 33.45 28.45 33.45 28.65 Q33.4 33.35 34.85 38.15 36.25 42.8 38.45 47.2 40.35 51.05 40.2 56.6 L37.5 59.5 43.8 63.0 46.65 57.15 Q57.45 53.25 60.75 35.1 60.3 22.85 52.45 9.35 49.35 1.3 50.75 -4.35 L50.7 -4.3 Q43.85 -0.75 39.15 8.65 Z" fill="none" stroke="#355d2c" stroke-linecap="round" stroke-linejoin="round" stroke-width="1.0"/>
      <path d="M16.4 49.7 L16.5 49.6 Q17.25 49.0 18.25 49.15 L18.85 49.25 Q20.3 49.4 20.55 50.7 L20.4 50.85 Q17.5 51.9 16.4 49.7" fill="#d2ff9a" fill-rule="evenodd" stroke="none"/>
      <path d="M11.35 51.45 Q7.3 49.3 7.25 44.6 9.1 46.75 12.3 47.25 22.05 47.9 29.5 52.85 L28.15 53.2 26.55 53.2 15.9 52.15 11.35 51.45 M16.4 49.7 Q17.5 51.9 20.4 50.85 L20.55 50.7 Q20.3 49.4 18.85 49.25 L18.25 49.15 Q17.25 49.0 16.5 49.6 L16.4 49.7" fill="#aad256" fill-rule="evenodd" stroke="none"/>
      <path d="M29.5 52.85 Q31.9 54.35 34.1 56.45 L31.45 60.6 Q24.5 55.85 14.8 52.6 12.85 52.15 11.35 51.45 L15.9 52.15 26.55 53.2 28.15 53.2 29.5 52.85" fill="#76a650" fill-rule="evenodd" stroke="none"/>
      <path d="M29.5 52.85 Q31.9 54.35 34.1 56.45 L31.45 60.6 Q24.5 55.85 14.8 52.6 12.85 52.15 11.35 51.45 7.3 49.3 7.25 44.6 9.1 46.75 12.3 47.25 22.05 47.9 29.5 52.85 Z" fill="none" stroke="#355d2c" stroke-linecap="round" stroke-linejoin="round" stroke-width="1.0"/>
    </g>
  </defs>
</svg>
