<?xml version="1.0" encoding="UTF-8" standalone="no"?>
<svg xmlns:ffdec="https://www.free-decompiler.com/flash" xmlns:xlink="http://www.w3.org/1999/xlink" ffdec:objectType="frame" height="30.1px" width="30.0px" xmlns="http://www.w3.org/2000/svg">
  <g transform="matrix(1.0, 0.0, 0.0, 1.0, 0.0, 0.0)">
    <use ffdec:characterId="1" height="30.0" transform="matrix(1.0, 0.0, 0.0, 1.0, 0.0, 0.0)" width="30.0" xlink:href="#shape0"/>
    <use ffdec:characterId="5" height="30.0" transform="matrix(1.0, 0.0, 0.0, 1.0, 0.0, 0.1)" width="30.0" xlink:href="#sprite0"/>
  </g>
  <defs>
    <g id="shape0" transform="matrix(1.0, 0.0, 0.0, 1.0, 0.0, 0.0)">
      <path d="M0.0 0.0 L30.0 0.0 30.0 30.0 0.0 30.0 0.0 0.0" fill="#33cc66" fill-opacity="0.0" fill-rule="evenodd" stroke="none"/>
    </g>
    <g id="sprite0" transform="matrix(1.0, 0.0, 0.0, 1.0, 0.0, 0.0)">
      <use ffdec:characterId="2" height="30.0" transform="matrix(1.0, 0.0, 0.0, 1.0, 0.0, 0.0)" width="30.0" xlink:href="#shape1"/>
      <use ffdec:characterId="4" height="159.15" transform="matrix(-0.1089, -0.0201, -0.0201, 0.1089, 28.0723, 8.9781)" width="216.3" xlink:href="#sprite1"/>
    </g>
    <g id="shape1" transform="matrix(1.0, 0.0, 0.0, 1.0, 0.0, 0.0)">
      <path d="M27.95 0.15 Q30.0 0.7 30.0 3.3 L30.0 26.7 29.8 28.15 Q29.15 30.0 26.7 30.0 L3.3 30.0 2.4 29.95 Q0.7 29.65 0.2 28.15 L0.0 26.7 0.0 3.3 Q0.0 0.7 2.05 0.15 L2.4 0.1 3.3 0.0 26.7 0.0 27.95 0.15" fill="#cccccc" fill-rule="evenodd" stroke="none"/>
    </g>
    <g id="sprite1" transform="matrix(1.0, 0.0, 0.0, 1.0, 2.5, 2.5)">
      <use ffdec:characterId="3" height="159.15" transform="matrix(1.0, 0.0, 0.0, 1.0, -2.5, -2.5)" width="216.3" xlink:href="#shape2"/>
    </g>
    <g id="shape2" transform="matrix(1.0, 0.0, 0.0, 1.0, 2.5, 2.5)">
      <path d="M181.25 6.25 L182.05 6.25 Q172.0 17.45 150.2 25.7 L153.55 24.95 155.1 24.6 166.15 22.2 Q165.1 24.0 163.45 25.8 L163.25 26.0 Q161.2 28.35 158.25 30.8 167.15 30.0 174.1 28.05 173.25 26.35 170.8 25.5 L180.2 25.15 189.3 25.5 192.0 25.75 Q187.7 29.2 168.55 32.4 L153.3 34.55 148.75 37.45 149.4 38.25 164.85 43.25 Q158.7 49.65 149.45 54.7 146.3 62.65 135.3 73.9 L137.5 73.95 146.65 74.35 Q142.35 78.5 126.2 82.7 L130.35 85.45 142.05 93.8 140.5 94.15 132.55 95.7 136.05 97.5 138.25 98.45 144.05 100.8 141.85 102.3 162.15 99.8 Q173.25 98.25 183.2 94.5 187.8 92.5 190.1 91.7 L167.5 91.0 162.55 91.05 Q172.3 89.4 186.9 88.55 L207.8 87.8 Q198.3 92.35 186.8 96.55 174.85 100.95 160.7 104.9 L156.0 106.2 Q135.1 111.8 120.65 113.8 L120.2 113.9 122.0 112.35 120.6 112.25 115.5 112.65 110.7 113.05 110.15 113.05 110.2 112.95 110.35 112.65 110.45 112.35 115.8 111.65 104.85 112.15 91.8 109.65 90.95 111.15 88.35 115.45 83.4 123.2 88.55 121.3 97.1 118.4 97.1 118.65 95.0 123.65 94.6 124.6 89.55 128.45 83.8 132.95 78.5 135.1 Q82.8 132.95 86.1 130.15 89.55 127.2 90.7 124.8 L85.9 124.8 77.85 126.15 77.5 126.15 Q81.8 122.75 85.0 117.9 87.85 113.5 88.3 110.55 L87.8 110.7 87.0 110.8 82.55 109.4 76.5 107.65 76.5 106.5 77.1 106.25 Q106.8 113.65 137.85 108.9 147.55 107.45 155.05 103.05 L154.75 103.05 153.3 103.6 154.65 103.0 Q131.1 108.35 106.4 105.6 128.45 100.1 130.5 99.75 L127.3 98.95 124.85 98.4 123.65 98.25 114.0 100.85 103.15 102.9 94.4 103.85 90.7 103.2 104.75 101.7 112.65 100.15 Q118.5 98.8 124.2 96.95 125.55 95.85 127.8 94.35 L131.9 91.65 126.55 88.35 122.7 90.45 Q112.8 95.4 101.9 97.05 L88.7 97.8 86.1 100.4 85.8 100.65 81.9 99.3 Q77.7 97.55 76.85 96.0 78.25 95.7 82.3 92.1 L86.55 88.35 84.25 91.25 79.55 96.5 84.9 96.8 89.35 97.0 Q90.2 96.5 91.3 96.4 98.55 95.6 105.35 93.65 112.55 91.6 119.25 88.3 L123.25 86.15 122.45 85.6 120.9 84.6 Q131.8 80.45 132.85 79.4 131.15 80.25 129.0 80.6 127.2 80.9 127.05 80.6 L127.05 80.55 125.9 80.55 126.45 79.85 127.65 78.1 129.7 77.8 130.35 77.7 131.2 77.55 129.7 77.8 127.75 77.9 127.9 77.7 Q131.9 74.75 135.45 70.55 L148.05 54.3 136.8 63.25 146.2 47.6 147.3 46.85 148.75 45.9 Q150.8 44.45 151.9 43.75 L146.1 42.4 147.15 39.75 145.95 39.75 141.95 40.45 138.85 40.65 145.8 31.45 145.55 31.45 138.5 35.1 135.6 36.6 129.75 38.9 128.15 38.65 128.05 38.55 Q128.0 38.4 127.8 38.4 128.2 38.1 131.5 37.3 121.1 37.8 100.6 37.8 93.3 37.8 85.3 37.4 L76.9 36.85 Q58.95 35.45 37.65 32.15 L34.85 31.7 30.25 31.0 34.85 34.3 Q41.1 38.7 45.05 40.4 L36.8 37.8 35.8 37.45 Q30.25 34.95 24.95 31.9 L24.75 30.7 24.6 30.75 24.85 31.85 23.75 31.2 Q22.75 34.35 28.55 36.8 L31.4 38.0 37.15 43.7 Q47.35 47.5 62.45 50.75 77.65 53.95 86.7 54.4 L88.95 54.55 89.05 54.55 89.45 54.6 90.55 54.7 90.9 54.7 95.75 55.55 96.45 55.7 95.05 55.85 95.0 55.85 93.65 55.7 93.45 55.9 93.5 56.0 Q76.5 57.2 61.4 54.25 43.85 50.75 36.35 48.8 L36.1 48.6 Q28.2 43.15 23.75 38.15 22.0 36.2 20.8 34.3 L18.05 33.25 6.2 28.4 3.3 27.15 0.0 25.65 2.0 25.0 Q13.75 21.35 23.65 19.2 L35.6 17.0 34.8 16.05 55.45 16.55 55.55 16.55 57.95 16.55 56.5 17.05 Q50.6 18.9 33.7 22.55 L31.5 22.2 30.85 22.35 11.4 27.15 19.2 29.05 Q30.15 31.75 31.15 32.2 L23.85 28.65 Q20.45 26.9 20.45 26.1 L20.5 25.65 20.75 25.45 24.4 25.95 24.4 26.2 Q26.8 33.05 34.4 29.2 L34.3 28.95 Q32.95 27.65 31.4 26.85 L46.8 28.9 53.45 31.3 42.0 29.4 Q40.9 29.85 42.1 30.1 51.3 32.15 60.55 33.45 67.0 35.1 72.65 35.5 L86.15 35.65 97.8 35.75 97.85 35.6 92.25 35.25 95.2 34.85 102.35 33.85 104.6 33.5 104.8 34.35 Q102.75 34.65 100.9 35.3 L101.15 35.65 Q106.8 35.95 112.1 34.85 L112.15 34.65 107.95 34.05 107.4 34.15 104.95 34.35 104.85 33.45 Q116.7 31.55 126.95 28.95 L134.6 28.2 141.8 26.25 151.1 19.85 Q175.8 12.4 181.25 6.25 M110.25 105.0 L132.9 103.2 141.85 102.3 132.9 103.2 110.25 105.0 M179.85 6.25 Q173.75 9.2 166.5 11.65 151.65 16.6 132.25 19.4 142.1 16.5 146.85 13.45 L152.9 11.95 158.05 10.3 148.4 9.6 135.15 8.7 155.6 6.25 179.85 6.25 M87.7 25.9 L91.45 25.7 97.35 25.4 98.15 25.6 102.8 26.85 96.6 26.65 91.15 26.25 87.7 25.9 M74.3 91.7 L82.1 87.5 87.0 86.55 88.0 86.55 86.95 87.85 75.2 91.6 74.3 91.7 M102.2 96.0 L103.65 95.7 104.05 95.3 100.3 96.3 102.2 96.0 M69.6 74.75 L64.95 75.25 52.95 76.05 55.4 75.6 Q48.05 74.95 42.65 73.3 L40.15 72.45 37.8 71.55 43.1 67.0 43.35 66.8 Q44.6 65.9 48.75 64.1 L50.75 63.25 60.95 60.9 52.8 66.9 64.55 65.9 88.6 63.4 Q98.45 62.2 123.85 56.55 L124.55 56.4 135.45 53.95 139.3 52.0 140.1 52.05 135.2 56.65 132.35 57.95 Q124.4 61.5 115.85 64.4 L121.6 61.75 Q132.3 56.6 135.0 54.75 126.25 56.6 102.65 62.5 85.15 66.45 72.3 67.55 L65.35 68.2 59.05 68.55 47.65 69.0 55.35 71.5 Q62.6 73.65 69.6 74.75 M142.45 54.25 L142.8 54.4 143.0 54.5 143.05 54.25 142.45 54.25 M141.45 50.75 L140.6 51.55 140.3 51.45 141.45 50.75 M127.05 80.6 Q127.05 81.3 126.95 80.8 L127.05 80.6 M75.15 136.65 L76.7 135.95 75.45 136.65 75.15 136.65 M99.45 127.4 L102.55 125.9 105.85 124.9 Q109.4 123.9 109.95 123.45 L110.25 123.45 99.45 127.4 M84.45 101.9 L84.25 101.85 85.8 100.65 84.45 101.9" fill="url(#gradient0)" fill-rule="evenodd" stroke="none"/>
      <path d="M181.25 6.25 Q175.8 12.4 151.1 19.85 L148.35 20.65 Q123.7 27.9 109.0 28.1 L108.7 28.05 127.0 24.95 Q157.0 18.9 166.5 11.65 173.75 9.2 179.85 6.25 L181.25 6.25 M126.95 28.95 Q116.7 31.55 104.85 33.45 L104.75 33.0 104.5 33.05 104.6 33.5 102.35 33.85 95.2 34.85 92.25 35.25 85.15 34.75 85.95 33.9 85.9 33.75 82.6 33.1 Q82.0 33.2 82.3 33.75 L82.9 34.6 Q68.05 33.5 53.45 31.3 L46.8 28.9 31.4 26.85 Q28.5 25.35 24.95 25.6 24.45 25.65 24.4 25.95 L20.75 25.45 20.5 25.65 20.45 26.1 Q20.45 26.9 23.85 28.65 L31.15 32.2 Q30.15 31.75 19.2 29.05 L11.4 27.15 30.85 22.35 31.5 22.2 33.7 22.55 32.85 22.7 51.3 25.4 Q71.35 28.1 88.2 29.05 L89.7 29.1 96.45 29.35 104.3 29.45 120.9 29.25 121.6 29.2 126.95 28.95 M86.15 35.65 L72.65 35.5 Q67.0 35.1 60.55 33.45 73.3 35.25 86.15 35.65 M146.85 13.45 Q142.1 16.5 132.25 19.4 L130.85 19.6 Q112.5 22.15 93.3 22.6 L91.05 22.65 88.65 22.7 91.1 23.5 94.6 24.55 95.05 24.7 97.35 25.4 91.45 25.7 87.7 25.9 85.75 25.7 80.7 25.05 77.85 24.6 64.8 22.4 77.5 20.95 77.85 20.95 86.85 20.65 94.2 20.25 100.85 19.8 113.0 18.65 123.7 17.35 126.25 17.0 131.15 16.3 145.75 13.65 146.85 13.45 M81.65 32.2 L81.5 32.25 Q82.5 34.55 81.65 32.2 M89.5 30.8 L89.35 30.85 Q91.8 32.55 89.5 30.8 M80.05 30.3 Q81.65 34.0 80.3 30.25 L80.05 30.3 M75.45 32.3 L75.3 32.0 Q73.85 29.6 70.6 30.7 69.4 30.8 70.0 31.65 72.65 35.25 75.45 32.3" fill="#403c70" fill-rule="evenodd" stroke="none"/>
      <path d="M86.55 88.35 L82.3 92.1 Q78.25 95.7 76.85 96.0 77.7 97.55 81.9 99.3 L85.8 100.65 84.25 101.85 84.45 101.9 90.7 103.2 94.4 103.85 99.3 104.65 100.3 104.8 101.45 105.0 106.4 105.6 Q131.1 108.35 154.65 103.0 L153.3 103.6 154.75 103.05 155.05 103.05 Q147.55 107.45 137.85 108.9 106.8 113.65 77.1 106.25 L76.5 106.5 76.5 107.65 82.55 109.4 87.0 110.8 87.8 110.7 88.3 110.55 Q87.85 113.5 85.0 117.9 81.8 122.75 77.5 126.15 L77.85 126.15 85.9 124.8 90.7 124.8 Q89.55 127.2 86.1 130.15 82.8 132.95 78.5 135.1 L83.8 132.95 Q79.4 136.45 78.4 137.75 L78.95 137.75 96.8 128.7 Q98.2 128.0 99.45 127.4 L110.25 123.45 109.95 123.45 Q109.4 123.9 105.85 124.9 L102.55 125.9 Q109.3 122.55 111.85 121.7 L110.35 121.8 120.2 113.9 120.65 113.8 Q135.1 111.8 156.0 106.2 L160.7 104.9 Q174.85 100.95 186.8 96.55 198.3 92.35 207.8 87.8 L211.3 87.75 Q203.35 93.5 190.9 98.25 174.9 104.35 159.0 108.0 146.9 110.8 123.55 114.2 L122.8 114.3 116.65 119.45 113.45 121.85 114.65 122.1 116.15 122.3 Q113.0 123.95 106.75 126.7 L99.65 129.8 Q95.35 132.55 86.95 136.15 L71.8 142.2 73.15 142.95 75.55 144.35 Q74.25 145.45 72.25 148.45 L79.45 150.3 75.7 150.65 68.55 150.2 61.45 154.1 61.4 154.15 62.2 149.25 57.2 148.15 Q45.1 145.2 35.8 140.2 L38.55 139.5 Q42.95 138.45 47.5 138.2 L49.9 138.15 56.0 138.5 49.85 139.55 Q53.7 141.45 60.25 144.1 L78.2 132.7 84.75 128.6 84.5 128.6 75.65 129.05 73.25 129.05 Q78.65 119.6 83.65 112.6 L83.8 112.4 82.45 111.8 Q74.05 108.15 71.75 105.95 L71.35 105.55 72.6 105.05 72.45 105.0 72.5 104.85 72.85 104.95 79.9 101.25 Q76.7 99.5 72.25 96.4 73.4 95.4 74.7 94.35 77.15 92.45 79.7 91.15 L75.2 91.6 86.95 87.85 86.55 88.35 M60.25 144.1 L62.2 144.85 63.55 145.4 72.25 148.45 63.55 145.4 62.2 144.85 60.25 144.1 M75.15 136.65 L75.45 136.65 76.7 135.95 75.15 136.65 M62.2 149.25 L68.55 150.2 62.2 149.25 M82.75 103.35 L82.6 103.45 83.0 103.45 82.75 103.35" fill="url(#gradient1)" fill-rule="evenodd" stroke="none"/>
      <path d="M151.1 19.85 L141.8 26.25 134.6 28.2 126.95 28.95 121.6 29.2 120.9 29.25 104.3 29.45 96.45 29.35 89.7 29.1 88.2 29.05 Q71.35 28.1 51.3 25.4 L32.85 22.7 33.7 22.55 Q50.6 18.9 56.5 17.05 L60.2 18.9 58.6 19.5 53.45 21.4 53.45 21.95 Q58.35 23.2 69.6 24.9 L73.75 25.55 80.7 25.05 85.75 25.7 87.7 25.9 91.15 26.25 96.6 26.65 102.8 26.85 108.7 28.05 109.0 28.1 Q123.7 27.9 148.35 20.65 L151.1 19.85 M55.55 16.55 L55.45 16.55 34.8 16.05 31.9 11.85 Q37.0 8.0 53.0 8.15 L51.2 7.4 45.45 5.05 Q40.05 2.75 35.2 0.45 L41.7 0.0 Q57.4 0.0 69.7 1.65 77.75 2.7 85.65 4.65 L85.6 4.65 69.8 3.75 56.45 3.25 52.25 3.5 60.0 5.85 Q68.55 8.2 73.45 8.2 84.8 8.2 110.4 4.8 132.9 1.85 140.8 0.05 L136.5 2.35 135.6 2.75 129.9 8.0 126.4 11.5 131.25 12.0 137.3 12.35 Q135.55 14.05 131.15 16.3 L126.25 17.0 123.7 17.35 123.75 17.3 126.2 14.4 Q125.6 13.9 122.0 13.05 118.4 12.2 117.05 12.25 117.65 11.05 121.25 8.05 L124.85 5.25 121.9 5.6 88.6 9.65 71.75 11.55 71.0 11.6 Q66.4 10.9 53.45 5.65 L56.3 8.8 57.2 9.75 51.3 10.85 43.45 12.25 Q46.55 12.35 54.45 16.0 L55.55 16.55 M36.35 48.8 Q43.85 50.75 61.4 54.25 76.5 57.2 93.5 56.0 L93.7 56.35 Q88.55 58.25 79.55 60.25 L64.95 63.45 64.95 63.7 70.0 63.7 Q86.5 63.1 104.55 59.6 L122.3 56.3 120.3 55.9 111.25 54.15 Q112.6 54.2 114.45 53.0 117.4 51.15 118.3 51.05 L139.3 52.0 135.45 53.95 124.55 56.4 123.85 56.55 Q98.45 62.2 88.6 63.4 L64.55 65.9 52.8 66.9 60.95 60.9 50.75 63.25 52.75 62.5 49.75 61.75 37.8 58.75 41.2 58.15 50.1 56.7 Q44.1 54.0 36.35 48.8 M95.75 55.55 L90.9 54.7 96.65 55.15 95.75 55.55 M88.95 54.55 L86.7 54.4 Q77.65 53.95 62.45 50.75 47.35 47.5 37.15 43.7 L31.4 38.0 Q49.25 45.3 69.55 47.3 L116.3 50.95 Q112.0 51.2 102.15 51.0 L72.9 49.25 Q74.65 49.7 77.75 50.9 86.55 54.25 88.95 54.55 M35.8 37.45 L36.8 37.8 45.05 40.4 Q41.1 38.7 34.85 34.3 L30.25 31.0 34.85 31.7 Q42.5 35.1 62.85 39.7 L83.3 44.05 63.55 42.0 Q72.6 44.0 81.95 45.15 L79.8 45.6 71.7 46.45 71.7 46.75 88.2 47.7 110.3 48.65 121.4 48.25 123.45 48.15 121.05 49.45 120.85 49.45 128.8 49.65 Q136.15 49.65 140.55 48.5 L141.05 48.4 142.7 46.8 Q144.95 44.4 146.1 42.4 L151.9 43.75 Q150.8 44.45 148.75 45.9 L147.3 46.85 146.2 47.6 Q145.05 48.4 143.65 49.35 L141.45 50.75 140.3 51.45 138.45 50.95 Q134.35 49.9 129.75 49.85 L82.15 48.3 Q56.75 46.85 35.8 37.45 M127.75 77.9 L129.7 77.8 131.2 77.55 130.35 77.7 129.7 77.8 127.65 78.1 127.75 77.9 M120.9 84.6 L122.45 85.6 123.25 86.15 119.25 88.3 116.1 86.35 120.9 84.6 M105.35 93.65 Q98.55 95.6 91.3 96.4 90.2 96.5 89.35 97.0 L84.9 96.8 79.55 96.5 84.25 91.25 86.55 88.35 86.95 87.85 88.0 86.55 87.0 86.55 82.1 87.5 74.3 91.7 69.05 92.05 Q81.3 85.4 85.35 83.85 L73.15 83.1 Q59.2 82.05 55.4 80.9 L44.45 77.35 44.15 77.25 51.8 76.2 52.95 76.05 64.95 75.25 69.6 74.75 Q82.05 73.25 94.9 70.3 105.8 67.8 115.85 64.4 124.4 61.5 132.35 57.95 L135.2 56.65 134.45 57.3 Q132.6 59.0 128.95 60.95 L124.5 65.1 119.55 67.45 112.65 70.4 Q108.3 72.25 103.05 73.65 104.45 72.85 106.05 72.0 L112.25 68.7 108.6 69.35 105.85 69.85 92.5 72.35 84.25 75.25 83.9 75.35 83.3 75.55 Q72.9 79.05 71.0 79.05 71.0 79.3 70.7 79.3 L92.55 81.0 86.1 86.2 Q87.2 85.55 90.8 85.35 L93.45 85.2 94.5 85.1 95.2 85.65 101.35 89.55 101.6 89.7 103.65 90.9 105.8 92.1 105.35 93.65 M85.8 100.65 L86.1 100.4 88.7 97.8 101.9 97.05 97.0 100.05 97.0 100.3 103.3 101.25 104.95 101.55 104.75 101.7 90.7 103.2 84.45 101.9 85.8 100.65 M122.7 90.45 L126.55 88.35 131.9 91.65 127.8 94.35 Q125.55 95.85 124.2 96.95 118.5 98.8 112.65 100.15 L111.6 99.6 107.9 97.7 116.95 94.8 125.0 92.0 122.7 90.45 M94.4 103.85 L103.15 102.9 103.05 102.95 100.3 104.8 99.3 104.65 94.4 103.85 M114.0 100.85 L123.65 98.25 124.85 98.4 127.3 98.95 130.5 99.75 Q128.45 100.1 106.4 105.6 L101.45 105.0 109.55 102.7 112.95 101.75 114.9 101.25 114.0 100.85 M94.6 124.6 L95.0 123.65 97.1 118.65 97.1 118.4 88.55 121.3 83.4 123.2 88.35 115.45 90.95 111.15 91.8 109.65 104.85 112.15 115.8 111.65 110.45 112.35 110.35 112.65 110.2 112.95 110.15 113.05 107.7 113.0 96.4 114.55 96.25 114.55 97.5 115.05 100.3 115.95 102.8 116.3 104.7 116.5 104.9 116.5 94.6 124.6 M108.4 28.4 L108.45 28.2 106.1 27.6 105.9 27.85 Q106.35 29.85 108.4 28.4 M111.5 43.75 Q115.1 43.65 122.0 41.9 L114.9 44.65 111.5 44.05 111.5 43.75 M87.6 87.65 L86.95 87.85 87.6 87.65 M102.2 96.0 L100.3 96.3 104.05 95.3 103.65 95.7 102.2 96.0 M142.45 54.25 L143.05 54.25 143.0 54.5 142.8 54.4 142.45 54.25 M72.9 49.25 L70.55 49.15 72.0 49.15 72.9 49.25 M82.75 103.35 L83.0 103.45 82.6 103.45 82.75 103.35" fill="url(#gradient2)" fill-rule="evenodd" stroke="none"/>
      <path d="M56.5 17.05 L57.95 16.55 55.55 16.55 54.45 16.0 Q46.55 12.35 43.45 12.25 L51.3 10.85 57.2 9.75 56.3 8.8 58.05 9.55 60.7 11.15 60.45 11.3 60.2 11.4 60.2 16.55 61.8 16.55 Q67.1 15.85 72.45 16.45 79.15 17.2 86.85 20.65 L77.85 20.95 77.5 20.95 64.8 22.4 77.85 24.6 80.7 25.05 73.75 25.55 69.6 24.9 Q58.35 23.2 53.45 21.95 L53.45 21.4 58.6 19.5 60.2 18.9 56.5 17.05 M123.7 17.35 L113.0 18.65 100.85 19.8 Q109.85 16.55 112.15 16.55 L110.2 15.0 Q108.9 13.9 108.15 13.9 L108.35 13.75 108.4 13.55 115.95 9.7 Q120.0 7.45 121.9 5.6 L124.85 5.25 121.25 8.05 Q117.65 11.05 117.05 12.25 118.4 12.2 122.0 13.05 125.6 13.9 126.2 14.4 L123.75 17.3 123.7 17.35 M67.1 21.05 L77.5 20.95 67.1 21.05" fill="#3f1979" fill-rule="evenodd" stroke="none"/>
      <path d="M166.5 11.65 Q157.0 18.9 127.0 24.95 L108.7 28.05 102.8 26.85 98.15 25.6 97.35 25.4 95.05 24.7 94.6 24.55 91.1 23.5 88.65 22.7 91.05 22.65 93.3 22.6 Q112.5 22.15 130.85 19.6 L132.25 19.4 Q151.65 16.6 166.5 11.65" fill="#565196" fill-rule="evenodd" stroke="none"/>
      <path d="M95.05 55.85 L96.45 55.7 95.75 55.55 96.65 55.15 90.9 54.7 90.55 54.7 89.45 54.6 89.05 54.55 88.95 54.55 Q86.55 54.25 77.75 50.9 74.65 49.7 72.9 49.25 L102.15 51.0 Q112.0 51.2 116.3 50.95 L118.3 51.05 Q117.4 51.15 114.45 53.0 112.6 54.2 111.25 54.15 L120.3 55.9 122.3 56.3 104.55 59.6 Q86.5 63.1 70.0 63.7 L64.95 63.7 64.95 63.45 79.55 60.25 Q88.55 58.25 93.7 56.35 95.15 58.85 98.75 56.5 L98.8 56.35 95.05 55.85 M34.85 31.7 L37.65 32.15 Q58.95 35.45 76.9 36.85 L85.3 37.4 Q93.3 37.8 100.6 37.8 121.1 37.8 131.5 37.3 128.2 38.1 127.8 38.4 128.0 38.4 128.05 38.55 L128.15 38.65 129.75 38.9 135.6 36.6 138.5 35.1 145.55 31.45 145.8 31.45 138.85 40.65 141.95 40.45 145.95 39.75 147.15 39.75 146.1 42.4 Q144.95 44.4 142.7 46.8 L141.05 48.4 140.55 48.5 Q136.15 49.65 128.8 49.65 L120.85 49.45 121.05 49.45 123.45 48.15 121.4 48.25 110.3 48.65 88.2 47.7 71.7 46.75 71.7 46.45 79.8 45.6 81.95 45.15 Q95.2 46.8 108.9 46.85 L108.95 46.65 96.45 45.5 83.3 44.05 62.85 39.7 Q42.5 35.1 34.85 31.7 M146.2 47.6 L136.8 63.25 148.05 54.3 135.45 70.55 Q131.9 74.75 127.9 77.7 125.7 79.3 123.4 80.55 L123.8 80.75 121.3 81.55 Q114.9 83.6 111.6 84.25 L115.65 79.2 Q119.2 74.7 119.7 74.4 L119.45 74.4 Q117.7 75.75 112.25 77.3 107.5 78.7 106.3 78.7 108.0 78.25 116.45 71.7 L124.5 65.1 128.95 60.95 Q132.6 59.0 134.45 57.3 L135.2 56.65 140.1 52.05 142.1 52.1 140.6 51.55 141.45 50.75 143.65 49.35 Q145.05 48.4 146.2 47.6 M129.25 45.75 L125.95 45.1 Q125.7 45.2 125.75 45.35 126.5 47.7 129.2 45.9 L129.25 45.75 M89.05 46.5 L88.85 46.55 Q92.25 48.2 89.05 46.5 M116.7 46.95 L116.55 47.0 Q119.95 48.65 116.7 46.95 M111.5 43.75 L111.5 44.05 114.9 44.65 122.0 41.9 Q115.1 43.65 111.5 43.75 M72.9 49.25 L72.0 49.15 70.55 49.15 72.9 49.25" fill="#1c1a3c" fill-rule="evenodd" stroke="none"/>
      <path d="M104.85 33.45 L104.95 34.35 107.4 34.15 107.95 34.05 112.15 34.65 112.1 34.85 Q106.8 35.95 101.15 35.65 L100.9 35.3 Q102.75 34.65 104.8 34.35 L104.6 33.5 104.5 33.05 104.75 33.0 104.85 33.45 M92.25 35.25 L97.85 35.6 97.8 35.75 86.15 35.65 Q73.3 35.25 60.55 33.45 51.3 32.15 42.1 30.1 40.9 29.85 42.0 29.4 L53.45 31.3 Q68.05 33.5 82.9 34.6 L82.3 33.75 Q82.0 33.2 82.6 33.1 L85.9 33.75 85.95 33.9 85.15 34.75 92.25 35.25 M31.4 26.85 Q32.95 27.65 34.3 28.95 L34.4 29.2 Q26.8 33.05 24.4 26.2 L24.4 25.95 Q24.45 25.65 24.95 25.6 28.5 25.35 31.4 26.85 M93.5 56.0 L93.45 55.9 93.65 55.7 95.0 55.85 95.05 55.85 98.8 56.35 98.75 56.5 Q95.15 58.85 93.7 56.35 L93.5 56.0 M129.25 45.75 L129.2 45.9 Q126.5 47.7 125.75 45.35 125.7 45.2 125.95 45.1 L129.25 45.75 M89.5 30.8 Q91.8 32.55 89.35 30.85 L89.5 30.8 M81.65 32.2 Q82.5 34.55 81.5 32.25 L81.65 32.2 M89.05 46.5 Q92.25 48.2 88.85 46.55 L89.05 46.5 M83.3 44.05 L96.45 45.5 108.95 46.65 108.9 46.85 Q95.2 46.8 81.95 45.15 72.6 44.0 63.55 42.0 L83.3 44.05 M108.4 28.4 Q106.35 29.85 105.9 27.85 L106.1 27.6 108.45 28.2 108.4 28.4 M116.7 46.95 Q119.95 48.65 116.55 47.0 L116.7 46.95 M115.85 64.4 Q105.8 67.8 94.9 70.3 82.05 73.25 69.6 74.75 62.6 73.65 55.35 71.5 L47.65 69.0 59.05 68.55 65.35 68.2 72.3 67.55 Q85.15 66.45 102.65 62.5 126.25 56.6 135.0 54.75 132.3 56.6 121.6 61.75 L115.85 64.4 M75.45 32.3 Q72.65 35.25 70.0 31.65 69.4 30.8 70.6 30.7 73.85 29.6 75.3 32.0 L75.45 32.3 M80.05 30.3 L80.3 30.25 Q81.65 34.0 80.05 30.3" fill="#6d5bbf" fill-rule="evenodd" stroke="none"/>
      <path d="M100.85 19.8 L94.2 20.25 86.85 20.65 Q79.15 17.2 72.45 16.45 67.1 15.85 61.8 16.55 L60.2 16.55 60.2 11.4 60.45 11.3 60.7 11.15 58.05 9.55 56.3 8.8 53.45 5.65 Q66.4 10.9 71.0 11.6 L71.75 11.55 88.6 9.65 121.9 5.6 Q120.0 7.45 115.95 9.7 L108.4 13.55 108.35 13.75 108.15 13.9 Q108.9 13.9 110.2 15.0 L112.15 16.55 Q109.85 16.55 100.85 19.8" fill="#6621bd" fill-rule="evenodd" stroke="none"/>
      <path d="M31.4 38.0 L28.55 36.8 Q22.75 34.35 23.75 31.2 L24.85 31.85 24.6 30.75 24.75 30.7 24.95 31.9 Q30.25 34.95 35.8 37.45 56.75 46.85 82.15 48.3 L129.75 49.85 Q134.35 49.9 138.45 50.95 L140.3 51.45 140.6 51.55 142.1 52.1 140.1 52.05 139.3 52.0 118.3 51.05 116.3 50.95 69.55 47.3 Q49.25 45.3 31.4 38.0" fill="#5e58a2" fill-rule="evenodd" stroke="none"/>
      <path d="M127.9 77.7 L127.75 77.9 127.65 78.1 126.45 79.85 125.9 80.55 127.05 80.55 127.05 80.6 Q127.2 80.9 129.0 80.6 131.15 80.25 132.85 79.4 131.8 80.45 120.9 84.6 L116.1 86.35 119.25 88.3 Q112.55 91.6 105.35 93.65 L105.8 92.1 103.65 90.9 101.6 89.7 101.35 89.55 95.2 85.65 94.5 85.1 93.45 85.2 90.8 85.35 Q87.2 85.55 86.1 86.2 L92.55 81.0 70.7 79.3 Q71.0 79.3 71.0 79.05 72.9 79.05 83.3 75.55 L83.9 75.35 84.25 75.25 92.5 72.35 105.85 69.85 108.6 69.35 112.25 68.7 106.05 72.0 Q104.45 72.85 103.05 73.65 108.3 72.25 112.65 70.4 L119.55 67.45 124.5 65.1 116.45 71.7 Q108.0 78.25 106.3 78.7 107.5 78.7 112.25 77.3 117.7 75.75 119.45 74.4 L119.7 74.4 Q119.2 74.7 115.65 79.2 L111.6 84.25 Q114.9 83.6 121.3 81.55 L123.8 80.75 123.4 80.55 Q125.7 79.3 127.9 77.7 M101.9 97.05 Q112.8 95.4 122.7 90.45 L125.0 92.0 116.95 94.8 107.9 97.7 111.6 99.6 112.65 100.15 104.75 101.7 104.95 101.55 103.3 101.25 97.0 100.3 97.0 100.05 101.9 97.05 M103.15 102.9 L114.0 100.85 114.9 101.25 112.95 101.75 109.55 102.7 101.45 105.0 100.3 104.8 103.05 102.95 103.15 102.9 M127.05 80.6 L126.95 80.8 Q127.05 81.3 127.05 80.6" fill="#27244c" fill-rule="evenodd" stroke="none"/>
      <path d="M83.8 132.95 L89.55 128.45 94.6 124.6 104.9 116.5 104.7 116.5 102.8 116.3 100.3 115.95 97.5 115.05 96.25 114.55 96.4 114.55 107.7 113.0 110.15 113.05 110.7 113.05 115.5 112.65 120.6 112.25 122.0 112.35 120.2 113.9 110.35 121.8 111.85 121.7 Q109.3 122.55 102.55 125.9 L99.45 127.4 Q98.2 128.0 96.8 128.7 L78.95 137.75 78.4 137.75 Q79.4 136.45 83.8 132.95" fill="#3d396b" fill-rule="evenodd" stroke="none"/>
      <path d="M141.85 102.3 L144.05 100.8 138.25 98.45 136.05 97.5 132.55 95.7 140.5 94.15 142.05 93.8 130.35 85.45 126.2 82.7 Q142.35 78.5 146.65 74.35 L137.5 73.95 135.3 73.9 Q146.3 62.65 149.45 54.7 158.7 49.65 164.85 43.25 L149.4 38.25 148.75 37.45 153.3 34.55 168.55 32.4 Q187.7 29.2 192.0 25.75 L189.3 25.5 180.2 25.15 170.8 25.5 Q173.25 26.35 174.1 28.05 167.15 30.0 158.25 30.8 161.2 28.35 163.25 26.0 L163.45 25.8 Q165.1 24.0 166.15 22.2 L155.1 24.6 153.55 24.95 150.2 25.7 Q172.0 17.45 182.05 6.25 L181.25 6.25 179.85 6.25 155.6 6.25 135.15 8.7 148.4 9.6 158.05 10.3 152.9 11.95 146.85 13.45 145.75 13.65 131.15 16.3 126.25 17.0 123.7 17.35 113.0 18.65 100.85 19.8 94.2 20.25 86.85 20.65 77.85 20.95 M34.8 16.05 L35.6 17.0 23.65 19.2 Q13.75 21.35 2.0 25.0 L0.0 25.65 3.3 27.15 6.2 28.4 18.05 33.25 20.8 34.3 Q22.0 36.2 23.75 38.15 28.2 43.15 36.1 48.6 L36.35 48.8 Q44.1 54.0 50.1 56.7 L41.2 58.15 37.8 58.75 49.75 61.75 52.75 62.5 50.75 63.25 48.75 64.1 Q44.6 65.9 43.35 66.8 L43.1 67.0 37.8 71.55 40.15 72.45 42.65 73.3 Q48.05 74.95 55.4 75.6 L52.95 76.05 51.8 76.2 44.15 77.25 44.45 77.35 55.4 80.9 Q59.2 82.05 73.15 83.1 L85.35 83.85 Q81.3 85.4 69.05 92.05 L74.3 91.7 75.2 91.6 86.95 87.85 87.6 87.65 M207.8 87.8 L186.9 88.55 Q172.3 89.4 162.55 91.05 L167.5 91.0 190.1 91.7 Q187.8 92.5 183.2 94.5 173.25 98.25 162.15 99.8 L141.85 102.3 132.9 103.2 110.25 105.0 M207.8 87.8 L211.3 87.75 Q203.35 93.5 190.9 98.25 174.9 104.35 159.0 108.0 146.9 110.8 123.55 114.2 L122.8 114.3 116.65 119.45 113.45 121.85 114.65 122.1 116.15 122.3 Q113.0 123.95 106.75 126.7 L99.65 129.8 Q95.35 132.55 86.95 136.15 L71.8 142.2 73.15 142.95 75.55 144.35 Q74.25 145.45 72.25 148.45 L79.45 150.3 75.7 150.65 68.55 150.2 61.45 154.1 61.4 154.15 62.2 149.25 57.2 148.15 Q45.1 145.2 35.8 140.2 L38.55 139.5 Q42.95 138.45 47.5 138.2 L49.9 138.15 56.0 138.5 49.85 139.55 Q53.7 141.45 60.25 144.1 L78.2 132.7 84.75 128.6 84.5 128.6 75.65 129.05 73.25 129.05 Q78.65 119.6 83.65 112.6 L83.8 112.4 82.45 111.8 Q74.05 108.15 71.75 105.95 L71.35 105.55 72.6 105.05 M72.85 104.95 L79.9 101.25 Q76.7 99.5 72.25 96.4 73.4 95.4 74.7 94.35 77.15 92.45 79.7 91.15 L75.2 91.6 73.15 92.3 62.3 95.75 62.3 96.0 M34.8 16.05 L31.9 11.85 Q37.0 8.0 53.0 8.15 L51.2 7.4 45.45 5.05 Q40.05 2.75 35.2 0.45 L41.7 0.0 Q57.4 0.0 69.7 1.65 77.75 2.7 85.65 4.65 L85.6 4.65 69.8 3.75 56.45 3.25 52.25 3.5 60.0 5.85 Q68.55 8.2 73.45 8.2 84.8 8.2 110.4 4.8 132.9 1.85 140.8 0.05 L136.5 2.35 135.6 2.75 129.9 8.0 126.4 11.5 131.25 12.0 137.3 12.35 Q135.55 14.05 131.15 16.3 M77.5 20.95 L67.1 21.05 M72.25 148.45 L63.55 145.4 62.2 144.85 60.25 144.1 M68.55 150.2 L62.2 149.25" fill="none" stroke="#ffffff" stroke-linecap="round" stroke-linejoin="round" stroke-width="5.0"/>
      <path d="M166.5 11.65 Q173.75 9.2 179.85 6.25 L181.25 6.25 Q175.8 12.4 151.1 19.85 L148.35 20.65 Q123.7 27.9 109.0 28.1 L108.7 28.05 127.0 24.95 Q157.0 18.9 166.5 11.65 M146.85 13.45 Q142.1 16.5 132.25 19.4 L130.85 19.6 Q112.5 22.15 93.3 22.6 L91.05 22.65 88.65 22.7 91.1 23.5 94.6 24.55 95.05 24.7 97.35 25.4 91.45 25.7 87.7 25.9 85.75 25.7 80.7 25.05 77.85 24.6 64.8 22.4 77.5 20.95 77.85 20.95 86.85 20.65 94.2 20.25 100.85 19.8 113.0 18.65 123.7 17.35 126.25 17.0 131.15 16.3 145.75 13.65 146.85 13.45 M33.7 22.55 L32.85 22.7 51.3 25.4 Q71.35 28.1 88.2 29.05 L89.7 29.1 96.45 29.35 104.3 29.45 120.9 29.25 121.6 29.2 126.95 28.95 Q116.7 31.55 104.85 33.45 L104.75 33.0 104.5 33.05 104.6 33.5 102.35 33.85 95.2 34.85 92.25 35.25 85.15 34.75 85.95 33.9 85.9 33.75 82.6 33.1 Q82.0 33.2 82.3 33.75 L82.9 34.6 Q68.05 33.5 53.45 31.3 L46.8 28.9 31.4 26.85 Q28.5 25.35 24.95 25.6 24.45 25.65 24.4 25.95 L20.75 25.45 20.5 25.65 20.45 26.1 Q20.45 26.9 23.85 28.65 L31.15 32.2 Q30.15 31.75 19.2 29.05 L11.4 27.15 30.85 22.35 31.5 22.2 33.7 22.55 M86.15 35.65 L72.65 35.5 Q67.0 35.1 60.55 33.45 73.3 35.25 86.15 35.65 M81.65 32.2 L81.5 32.25 Q82.5 34.55 81.65 32.2 M89.5 30.8 L89.35 30.85 Q91.8 32.55 89.5 30.8 M75.45 32.3 L75.3 32.0 Q73.85 29.6 70.6 30.7 69.4 30.8 70.0 31.65 72.65 35.25 75.45 32.3 M80.3 30.25 L80.05 30.3 Q81.65 34.0 80.3 30.25" fill="#403c70" fill-rule="evenodd" stroke="none"/>
      <path d="M179.85 6.25 Q173.75 9.2 166.5 11.65 151.65 16.6 132.25 19.4 142.1 16.5 146.85 13.45 L152.9 11.95 158.05 10.3 148.4 9.6 135.15 8.7 155.6 6.25 179.85 6.25 M151.1 19.85 Q175.8 12.4 181.25 6.25 L182.05 6.25 Q172.0 17.45 150.2 25.7 L153.55 24.95 155.1 24.6 166.15 22.2 Q165.1 24.0 163.45 25.8 L163.25 26.0 Q161.2 28.35 158.25 30.8 167.15 30.0 174.1 28.05 173.25 26.35 170.8 25.5 L180.2 25.15 189.3 25.5 192.0 25.75 Q187.7 29.2 168.55 32.4 L153.3 34.55 148.75 37.45 149.4 38.25 164.85 43.25 Q158.7 49.65 149.45 54.7 146.3 62.65 135.3 73.9 L137.5 73.95 146.65 74.35 Q142.35 78.5 126.2 82.7 L130.35 85.45 142.05 93.8 140.5 94.15 132.55 95.7 136.05 97.5 138.25 98.45 144.05 100.8 141.85 102.3 162.15 99.8 Q173.25 98.25 183.2 94.5 187.8 92.5 190.1 91.7 L167.5 91.0 162.55 91.05 Q172.3 89.4 186.9 88.55 L207.8 87.8 Q198.3 92.35 186.8 96.55 174.85 100.95 160.7 104.9 L156.0 106.2 Q135.1 111.8 120.65 113.8 L120.2 113.9 122.0 112.35 120.6 112.25 115.5 112.65 110.7 113.05 110.15 113.05 110.2 112.95 110.35 112.65 110.45 112.35 115.8 111.65 104.85 112.15 91.8 109.65 90.95 111.15 88.35 115.45 83.4 123.2 88.55 121.3 97.1 118.4 97.1 118.65 95.0 123.65 94.6 124.6 89.55 128.45 83.8 132.95 78.5 135.1 Q82.8 132.95 86.1 130.15 89.55 127.2 90.7 124.8 L85.9 124.8 77.85 126.15 77.5 126.15 Q81.8 122.75 85.0 117.9 87.85 113.5 88.3 110.55 L87.8 110.7 87.0 110.8 82.55 109.4 76.5 107.65 76.5 106.5 77.1 106.25 Q106.8 113.65 137.85 108.9 147.55 107.45 155.05 103.05 L154.75 103.05 153.3 103.6 154.65 103.0 Q131.1 108.35 106.4 105.6 128.45 100.1 130.5 99.75 L127.3 98.95 124.85 98.4 123.65 98.25 114.0 100.85 103.15 102.9 94.4 103.85 90.7 103.2 104.75 101.7 112.65 100.15 Q118.5 98.8 124.2 96.95 125.55 95.85 127.8 94.35 L131.9 91.65 126.55 88.35 122.7 90.45 Q112.8 95.4 101.9 97.05 L88.7 97.8 86.1 100.4 85.8 100.65 81.9 99.3 Q77.7 97.55 76.85 96.0 78.25 95.7 82.3 92.1 L86.55 88.35 84.25 91.25 79.55 96.5 84.9 96.8 89.35 97.0 Q90.2 96.5 91.3 96.4 98.55 95.6 105.35 93.65 112.55 91.6 119.25 88.3 L123.25 86.15 122.45 85.6 120.9 84.6 Q131.8 80.45 132.85 79.4 131.15 80.25 129.0 80.6 127.2 80.9 127.05 80.6 L127.05 80.55 125.9 80.55 126.45 79.85 127.65 78.1 129.7 77.8 130.35 77.7 131.2 77.55 129.7 77.8 127.75 77.9 127.9 77.7 Q131.9 74.75 135.45 70.55 L148.05 54.3 136.8 63.25 146.2 47.6 147.3 46.85 148.75 45.9 Q150.8 44.45 151.9 43.75 L146.1 42.4 147.15 39.75 145.95 39.75 141.95 40.45 138.85 40.65 145.8 31.45 145.55 31.45 138.5 35.1 135.6 36.6 129.75 38.9 128.15 38.65 128.05 38.55 Q128.0 38.4 127.8 38.4 128.2 38.1 131.5 37.3 121.1 37.8 100.6 37.8 93.3 37.8 85.3 37.4 L76.9 36.85 Q58.95 35.45 37.65 32.15 L34.85 31.7 30.25 31.0 34.85 34.3 Q41.1 38.7 45.05 40.4 L36.8 37.8 35.8 37.45 Q30.25 34.95 24.95 31.9 L24.75 30.7 24.6 30.75 24.85 31.85 23.75 31.2 Q22.75 34.35 28.55 36.8 L31.4 38.0 37.15 43.7 Q47.35 47.5 62.45 50.75 77.65 53.95 86.7 54.4 L88.95 54.55 89.05 54.55 89.45 54.6 90.55 54.7 90.9 54.7 95.75 55.55 96.45 55.7 95.05 55.85 95.0 55.85 93.65 55.7 93.45 55.9 93.5 56.0 Q76.5 57.2 61.4 54.25 43.85 50.75 36.35 48.8 L36.1 48.6 Q28.2 43.15 23.75 38.15 22.0 36.2 20.8 34.3 L18.05 33.25 6.2 28.4 3.3 27.15 0.0 25.65 2.0 25.0 Q13.75 21.35 23.65 19.2 L35.6 17.0 34.8 16.05 55.45 16.55 55.55 16.55 57.95 16.55 56.5 17.05 Q50.6 18.9 33.7 22.55 L31.5 22.2 30.85 22.35 11.4 27.15 19.2 29.05 Q30.15 31.75 31.15 32.2 L23.85 28.65 Q20.45 26.9 20.45 26.1 L20.5 25.65 20.75 25.45 24.4 25.95 24.4 26.2 Q26.8 33.05 34.4 29.2 L34.3 28.95 Q32.95 27.65 31.4 26.85 L46.8 28.9 53.45 31.3 42.0 29.4 Q40.9 29.85 42.1 30.1 51.3 32.15 60.55 33.45 67.0 35.1 72.65 35.5 L86.15 35.65 97.8 35.75 97.85 35.6 92.25 35.25 95.2 34.85 102.35 33.85 104.6 33.5 104.8 34.35 Q102.75 34.65 100.9 35.3 L101.15 35.65 Q106.8 35.95 112.1 34.85 L112.15 34.65 107.95 34.05 107.4 34.15 104.95 34.35 104.85 33.45 Q116.7 31.55 126.95 28.95 L134.6 28.2 141.8 26.25 151.1 19.85 M110.25 105.0 L132.9 103.2 141.85 102.3 132.9 103.2 110.25 105.0 M87.7 25.9 L91.45 25.7 97.35 25.4 98.15 25.6 102.8 26.85 96.6 26.65 91.15 26.25 87.7 25.9 M102.55 125.9 L105.85 124.9 Q109.4 123.9 109.95 123.45 L110.25 123.45 99.45 127.4 102.55 125.9 M140.3 51.45 L141.45 50.75 140.6 51.55 140.3 51.45 M140.1 52.05 L135.2 56.65 132.35 57.95 Q124.4 61.5 115.85 64.4 L121.6 61.75 Q132.3 56.6 135.0 54.75 126.25 56.6 102.65 62.5 85.15 66.45 72.3 67.55 L65.35 68.2 59.05 68.55 47.65 69.0 55.35 71.5 Q62.6 73.65 69.6 74.75 L64.95 75.25 52.95 76.05 55.4 75.6 Q48.05 74.95 42.65 73.3 L40.15 72.45 37.8 71.55 43.1 67.0 43.35 66.8 Q44.6 65.9 48.75 64.1 L50.75 63.25 60.95 60.9 52.8 66.9 64.55 65.9 88.6 63.4 Q98.45 62.2 123.85 56.55 L124.55 56.4 135.45 53.95 139.3 52.0 140.1 52.05 M74.3 91.7 L82.1 87.5 87.0 86.55 88.0 86.55 86.95 87.85 75.2 91.6 74.3 91.7 M103.65 95.7 L104.05 95.3 100.3 96.3 102.2 96.0 103.65 95.7 M142.45 54.25 L142.8 54.4 143.0 54.5 143.05 54.25 142.45 54.25 M126.95 80.8 L127.05 80.6 Q127.05 81.3 126.95 80.8 M75.15 136.65 L76.7 135.95 75.45 136.65 75.15 136.65 M84.45 101.9 L84.25 101.85 85.8 100.65 84.45 101.9" fill="url(#gradient3)" fill-rule="evenodd" stroke="none"/>
      <path d="M207.8 87.8 L211.3 87.75 Q203.35 93.5 190.9 98.25 174.9 104.35 159.0 108.0 146.9 110.8 123.55 114.2 L122.8 114.3 116.65 119.45 113.45 121.85 114.65 122.1 116.15 122.3 Q113.0 123.95 106.75 126.7 L99.65 129.8 Q95.35 132.55 86.95 136.15 L71.8 142.2 73.15 142.95 75.55 144.35 Q74.25 145.45 72.25 148.45 L79.45 150.3 75.7 150.65 68.55 150.2 61.45 154.1 61.4 154.15 62.2 149.25 57.2 148.15 Q45.1 145.2 35.8 140.2 L38.55 139.5 Q42.95 138.45 47.5 138.2 L49.9 138.15 56.0 138.5 49.85 139.55 Q53.7 141.45 60.25 144.1 L78.2 132.7 84.75 128.6 84.5 128.6 75.65 129.05 73.25 129.05 Q78.65 119.6 83.65 112.6 L83.8 112.4 82.45 111.8 Q74.05 108.15 71.75 105.95 L71.35 105.55 72.6 105.05 72.45 105.0 72.5 104.85 72.85 104.95 79.9 101.25 Q76.7 99.5 72.25 96.4 73.4 95.4 74.7 94.35 77.15 92.45 79.7 91.15 L75.2 91.6 86.95 87.85 86.55 88.35 82.3 92.1 Q78.25 95.7 76.85 96.0 77.7 97.55 81.9 99.3 L85.8 100.65 84.25 101.85 84.45 101.9 90.7 103.2 94.4 103.85 99.3 104.65 100.3 104.8 101.45 105.0 106.4 105.6 Q131.1 108.35 154.65 103.0 L153.3 103.6 154.75 103.05 155.05 103.05 Q147.55 107.45 137.85 108.9 106.8 113.65 77.1 106.25 L76.5 106.5 76.5 107.65 82.55 109.4 87.0 110.8 87.8 110.7 88.3 110.55 Q87.85 113.5 85.0 117.9 81.8 122.75 77.5 126.15 L77.85 126.15 85.9 124.8 90.7 124.8 Q89.55 127.2 86.1 130.15 82.8 132.95 78.5 135.1 L83.8 132.95 Q79.4 136.45 78.4 137.75 L78.95 137.75 96.8 128.7 Q98.2 128.0 99.45 127.4 L110.25 123.45 109.95 123.45 Q109.4 123.9 105.85 124.9 L102.55 125.9 Q109.3 122.55 111.85 121.7 L110.35 121.8 120.2 113.9 120.65 113.8 Q135.1 111.8 156.0 106.2 L160.7 104.9 Q174.85 100.95 186.8 96.55 198.3 92.35 207.8 87.8 M60.25 144.1 L62.2 144.85 63.55 145.4 72.25 148.45 63.55 145.4 62.2 144.85 60.25 144.1 M75.15 136.65 L75.45 136.65 76.7 135.95 75.15 136.65 M62.2 149.25 L68.55 150.2 62.2 149.25 M82.75 103.35 L82.6 103.45 83.0 103.45 82.75 103.35" fill="url(#gradient4)" fill-rule="evenodd" stroke="none"/>
      <path d="M108.7 28.05 L109.0 28.1 Q123.7 27.9 148.35 20.65 L151.1 19.85 141.8 26.25 134.6 28.2 126.95 28.95 121.6 29.2 120.9 29.25 104.3 29.45 96.45 29.35 89.7 29.1 88.2 29.05 Q71.35 28.1 51.3 25.4 L32.85 22.7 33.7 22.55 Q50.6 18.9 56.5 17.05 L60.2 18.9 58.6 19.5 53.45 21.4 53.45 21.95 Q58.35 23.2 69.6 24.9 L73.75 25.55 80.7 25.05 85.75 25.7 87.7 25.9 91.15 26.25 96.6 26.65 102.8 26.85 108.7 28.05 M34.8 16.05 L31.9 11.85 Q37.0 8.0 53.0 8.15 L51.2 7.4 45.45 5.05 Q40.05 2.75 35.2 0.45 L41.7 0.0 Q57.4 0.0 69.7 1.65 77.75 2.7 85.65 4.65 L85.6 4.65 69.8 3.75 56.45 3.25 52.25 3.5 60.0 5.85 Q68.55 8.2 73.45 8.2 84.8 8.2 110.4 4.8 132.9 1.85 140.8 0.05 L136.5 2.35 135.6 2.75 129.9 8.0 126.4 11.5 131.25 12.0 137.3 12.35 Q135.55 14.05 131.15 16.3 L126.25 17.0 123.7 17.35 123.75 17.3 126.2 14.4 Q125.6 13.9 122.0 13.05 118.4 12.2 117.05 12.25 117.65 11.05 121.25 8.05 L124.85 5.25 121.9 5.6 88.6 9.65 71.75 11.55 71.0 11.6 Q66.4 10.9 53.45 5.65 L56.3 8.8 57.2 9.75 51.3 10.85 43.45 12.25 Q46.55 12.35 54.45 16.0 L55.55 16.55 55.45 16.55 34.8 16.05 M146.1 42.4 L151.9 43.75 Q150.8 44.45 148.75 45.9 L147.3 46.85 146.2 47.6 Q145.05 48.4 143.65 49.35 L141.45 50.75 140.3 51.45 138.45 50.95 Q134.35 49.9 129.75 49.85 L82.15 48.3 Q56.75 46.85 35.8 37.45 L36.8 37.8 45.05 40.4 Q41.1 38.7 34.85 34.3 L30.25 31.0 34.85 31.7 Q42.5 35.1 62.85 39.7 L83.3 44.05 63.55 42.0 Q72.6 44.0 81.95 45.15 L79.8 45.6 71.7 46.45 71.7 46.75 88.2 47.7 110.3 48.65 121.4 48.25 123.45 48.15 121.05 49.45 120.85 49.45 128.8 49.65 Q136.15 49.65 140.55 48.5 L141.05 48.4 142.7 46.8 Q144.95 44.4 146.1 42.4 M127.75 77.9 L129.7 77.8 131.2 77.55 130.35 77.7 129.7 77.8 127.65 78.1 127.75 77.9 M120.9 84.6 L122.45 85.6 123.25 86.15 119.25 88.3 116.1 86.35 120.9 84.6 M105.35 93.65 Q98.55 95.6 91.3 96.4 90.2 96.5 89.35 97.0 L84.9 96.8 79.55 96.5 84.25 91.25 86.55 88.35 86.95 87.85 88.0 86.55 87.0 86.55 82.1 87.5 74.3 91.7 69.05 92.05 Q81.3 85.4 85.35 83.85 L73.15 83.1 Q59.2 82.05 55.4 80.9 L44.45 77.35 44.15 77.25 51.8 76.2 52.95 76.05 64.95 75.25 69.6 74.75 Q82.05 73.25 94.9 70.3 105.8 67.8 115.85 64.4 124.4 61.5 132.35 57.95 L135.2 56.65 134.45 57.3 Q132.6 59.0 128.95 60.95 L124.5 65.1 119.55 67.45 112.65 70.4 Q108.3 72.25 103.05 73.65 104.45 72.85 106.05 72.0 L112.25 68.7 108.6 69.35 105.85 69.85 92.5 72.35 84.25 75.25 83.9 75.35 83.3 75.55 Q72.9 79.05 71.0 79.05 71.0 79.3 70.7 79.3 L92.55 81.0 86.1 86.2 Q87.2 85.55 90.8 85.35 L93.45 85.2 94.5 85.1 95.2 85.65 101.35 89.55 101.6 89.7 103.65 90.9 105.8 92.1 105.35 93.65 M85.8 100.65 L86.1 100.4 88.7 97.8 101.9 97.05 97.0 100.05 97.0 100.3 103.3 101.25 104.95 101.55 104.75 101.7 90.7 103.2 84.45 101.9 85.8 100.65 M122.7 90.45 L126.55 88.35 131.9 91.65 127.8 94.35 Q125.55 95.85 124.2 96.95 118.5 98.8 112.65 100.15 L111.6 99.6 107.9 97.7 116.95 94.8 125.0 92.0 122.7 90.45 M94.4 103.85 L103.15 102.9 103.05 102.95 100.3 104.8 99.3 104.65 94.4 103.85 M114.0 100.85 L123.65 98.25 124.85 98.4 127.3 98.95 130.5 99.75 Q128.45 100.1 106.4 105.6 L101.45 105.0 109.55 102.7 112.95 101.75 114.9 101.25 114.0 100.85 M94.6 124.6 L95.0 123.65 97.1 118.65 97.1 118.4 88.55 121.3 83.4 123.2 88.35 115.45 90.95 111.15 91.8 109.65 104.85 112.15 115.8 111.65 110.45 112.35 110.35 112.65 110.2 112.95 110.15 113.05 107.7 113.0 96.4 114.55 96.25 114.55 97.5 115.05 100.3 115.95 102.8 116.3 104.7 116.5 104.9 116.5 94.6 124.6 M108.4 28.4 L108.45 28.2 106.1 27.6 105.9 27.85 Q106.35 29.85 108.4 28.4 M111.5 44.05 L111.5 43.75 Q115.1 43.65 122.0 41.9 L114.9 44.65 111.5 44.05 M116.3 50.95 Q112.0 51.2 102.15 51.0 L72.9 49.25 Q74.65 49.7 77.75 50.9 86.55 54.25 88.95 54.55 L86.7 54.4 Q77.65 53.95 62.45 50.75 47.35 47.5 37.15 43.7 L31.4 38.0 Q49.25 45.3 69.55 47.3 L116.3 50.95 M90.9 54.7 L96.65 55.15 95.75 55.55 90.9 54.7 M93.7 56.35 Q88.55 58.25 79.55 60.25 L64.95 63.45 64.95 63.7 70.0 63.7 Q86.5 63.1 104.55 59.6 L122.3 56.3 120.3 55.9 111.25 54.15 Q112.6 54.2 114.45 53.0 117.4 51.15 118.3 51.05 L139.3 52.0 135.45 53.95 124.55 56.4 123.85 56.55 Q98.45 62.2 88.6 63.4 L64.55 65.9 52.8 66.9 60.95 60.9 50.75 63.25 52.75 62.5 49.75 61.75 37.8 58.75 41.2 58.15 50.1 56.7 Q44.1 54.0 36.35 48.8 43.85 50.75 61.4 54.25 76.5 57.2 93.5 56.0 L93.7 56.35 M87.6 87.65 L86.95 87.85 87.6 87.65 M103.65 95.7 L102.2 96.0 100.3 96.3 104.05 95.3 103.65 95.7 M142.45 54.25 L143.05 54.25 143.0 54.5 142.8 54.4 142.45 54.25 M72.9 49.25 L70.55 49.15 72.0 49.15 72.9 49.25 M82.75 103.35 L83.0 103.45 82.6 103.45 82.75 103.35" fill="url(#gradient5)" fill-rule="evenodd" stroke="none"/>
      <path d="M123.7 17.35 L113.0 18.65 100.85 19.8 Q109.85 16.55 112.15 16.55 L110.2 15.0 Q108.9 13.9 108.15 13.9 L108.35 13.75 108.4 13.55 115.95 9.7 Q120.0 7.45 121.9 5.6 L124.85 5.25 121.25 8.05 Q117.65 11.05 117.05 12.25 118.4 12.2 122.0 13.05 125.6 13.9 126.2 14.4 L123.75 17.3 123.7 17.35 M86.85 20.65 L77.85 20.95 77.5 20.95 64.8 22.4 77.85 24.6 80.7 25.05 73.75 25.55 69.6 24.9 Q58.35 23.2 53.45 21.95 L53.45 21.4 58.6 19.5 60.2 18.9 56.5 17.05 57.95 16.55 55.55 16.55 54.45 16.0 Q46.55 12.35 43.45 12.25 L51.3 10.85 57.2 9.75 56.3 8.8 58.05 9.55 60.7 11.15 60.45 11.3 60.2 11.4 60.2 16.55 61.8 16.55 Q67.1 15.85 72.45 16.45 79.15 17.2 86.85 20.65 M67.1 21.05 L77.5 20.95 67.1 21.05" fill="#3f1979" fill-rule="evenodd" stroke="none"/>
      <path d="M166.5 11.65 Q157.0 18.9 127.0 24.95 L108.7 28.05 102.8 26.85 98.15 25.6 97.35 25.4 95.05 24.7 94.6 24.55 91.1 23.5 88.65 22.7 91.05 22.65 93.3 22.6 Q112.5 22.15 130.85 19.6 L132.25 19.4 Q151.65 16.6 166.5 11.65" fill="#565196" fill-rule="evenodd" stroke="none"/>
      <path d="M34.85 31.7 L37.65 32.15 Q58.95 35.45 76.9 36.85 L85.3 37.4 Q93.3 37.8 100.6 37.8 121.1 37.8 131.5 37.3 128.2 38.1 127.8 38.4 128.0 38.4 128.05 38.55 L128.15 38.65 129.75 38.9 135.6 36.6 138.5 35.1 145.55 31.45 145.8 31.45 138.85 40.65 141.95 40.45 145.95 39.75 147.15 39.75 146.1 42.4 Q144.95 44.4 142.7 46.8 L141.05 48.4 140.55 48.5 Q136.15 49.65 128.8 49.65 L120.85 49.45 121.05 49.45 123.45 48.15 121.4 48.25 110.3 48.65 88.2 47.7 71.7 46.75 71.7 46.45 79.8 45.6 81.95 45.15 Q95.2 46.8 108.9 46.85 L108.95 46.65 96.45 45.5 83.3 44.05 62.85 39.7 Q42.5 35.1 34.85 31.7 M146.2 47.6 L136.8 63.25 148.05 54.3 135.45 70.55 Q131.9 74.75 127.9 77.7 125.7 79.3 123.4 80.55 L123.8 80.75 121.3 81.55 Q114.9 83.6 111.6 84.25 L115.65 79.2 Q119.2 74.7 119.7 74.4 L119.45 74.4 Q117.7 75.75 112.25 77.3 107.5 78.7 106.3 78.7 108.0 78.25 116.45 71.7 L124.5 65.1 128.95 60.95 Q132.6 59.0 134.45 57.3 L135.2 56.65 140.1 52.05 142.1 52.1 140.6 51.55 141.45 50.75 143.65 49.35 Q145.05 48.4 146.2 47.6 M125.95 45.1 Q125.7 45.2 125.75 45.35 126.5 47.7 129.2 45.9 L129.25 45.75 125.95 45.1 M88.85 46.55 Q92.25 48.2 89.05 46.5 L88.85 46.55 M116.55 47.0 Q119.95 48.65 116.7 46.95 L116.55 47.0 M111.5 44.05 L114.9 44.65 122.0 41.9 Q115.1 43.65 111.5 43.75 L111.5 44.05 M116.3 50.95 L118.3 51.05 Q117.4 51.15 114.45 53.0 112.6 54.2 111.25 54.15 L120.3 55.9 122.3 56.3 104.55 59.6 Q86.5 63.1 70.0 63.7 L64.95 63.7 64.95 63.45 79.55 60.25 Q88.55 58.25 93.7 56.35 95.15 58.85 98.75 56.5 L98.8 56.35 95.05 55.85 96.45 55.7 95.75 55.55 96.65 55.15 90.9 54.7 90.55 54.7 89.45 54.6 89.05 54.55 88.95 54.55 Q86.55 54.25 77.75 50.9 74.65 49.7 72.9 49.25 L102.15 51.0 Q112.0 51.2 116.3 50.95 M72.9 49.25 L72.0 49.15 70.55 49.15 72.9 49.25" fill="#1c1a3c" fill-rule="evenodd" stroke="none"/>
      <path d="M24.4 25.95 Q24.45 25.65 24.95 25.6 28.5 25.35 31.4 26.85 32.95 27.65 34.3 28.95 L34.4 29.2 Q26.8 33.05 24.4 26.2 L24.4 25.95 M53.45 31.3 Q68.05 33.5 82.9 34.6 L82.3 33.75 Q82.0 33.2 82.6 33.1 L85.9 33.75 85.95 33.9 85.15 34.75 92.25 35.25 97.85 35.6 97.8 35.75 86.15 35.65 Q73.3 35.25 60.55 33.45 51.3 32.15 42.1 30.1 40.9 29.85 42.0 29.4 L53.45 31.3 M104.6 33.5 L104.5 33.05 104.75 33.0 104.85 33.45 104.95 34.35 107.4 34.15 107.95 34.05 112.15 34.65 112.1 34.85 Q106.8 35.95 101.15 35.65 L100.9 35.3 Q102.75 34.65 104.8 34.35 L104.6 33.5 M125.95 45.1 L129.25 45.75 129.2 45.9 Q126.5 47.7 125.75 45.35 125.7 45.2 125.95 45.1 M89.5 30.8 Q91.8 32.55 89.35 30.85 L89.5 30.8 M81.65 32.2 Q82.5 34.55 81.5 32.25 L81.65 32.2 M88.85 46.55 L89.05 46.5 Q92.25 48.2 88.85 46.55 M83.3 44.05 L96.45 45.5 108.95 46.65 108.9 46.85 Q95.2 46.8 81.95 45.15 72.6 44.0 63.55 42.0 L83.3 44.05 M108.4 28.4 Q106.35 29.85 105.9 27.85 L106.1 27.6 108.45 28.2 108.4 28.4 M116.55 47.0 L116.7 46.95 Q119.95 48.65 116.55 47.0 M95.05 55.85 L98.8 56.35 98.75 56.5 Q95.15 58.85 93.7 56.35 L93.5 56.0 93.45 55.9 93.65 55.7 95.0 55.85 95.05 55.85 M115.85 64.4 Q105.8 67.8 94.9 70.3 82.05 73.25 69.6 74.75 62.6 73.65 55.35 71.5 L47.65 69.0 59.05 68.55 65.35 68.2 72.3 67.55 Q85.15 66.45 102.65 62.5 126.25 56.6 135.0 54.75 132.3 56.6 121.6 61.75 L115.85 64.4 M80.3 30.25 Q81.65 34.0 80.05 30.3 L80.3 30.25 M75.45 32.3 Q72.65 35.25 70.0 31.65 69.4 30.8 70.6 30.7 73.85 29.6 75.3 32.0 L75.45 32.3" fill="#6d5bbf" fill-rule="evenodd" stroke="none"/>
      <path d="M100.85 19.8 L94.2 20.25 86.85 20.65 Q79.15 17.2 72.45 16.45 67.1 15.85 61.8 16.55 L60.2 16.55 60.2 11.4 60.45 11.3 60.7 11.15 58.05 9.55 56.3 8.8 53.45 5.65 Q66.4 10.9 71.0 11.6 L71.75 11.55 88.6 9.65 121.9 5.6 Q120.0 7.45 115.95 9.7 L108.4 13.55 108.35 13.75 108.15 13.9 Q108.9 13.9 110.2 15.0 L112.15 16.55 Q109.85 16.55 100.85 19.8" fill="#6621bd" fill-rule="evenodd" stroke="none"/>
      <path d="M35.8 37.45 Q56.75 46.85 82.15 48.3 L129.75 49.85 Q134.35 49.9 138.45 50.95 L140.3 51.45 140.6 51.55 142.1 52.1 140.1 52.05 139.3 52.0 118.3 51.05 116.3 50.95 69.55 47.3 Q49.25 45.3 31.4 38.0 L28.55 36.8 Q22.75 34.35 23.75 31.2 L24.85 31.85 24.6 30.75 24.75 30.7 24.95 31.9 Q30.25 34.95 35.8 37.45" fill="#5e58a2" fill-rule="evenodd" stroke="none"/>
      <path d="M127.9 77.7 L127.75 77.9 127.65 78.1 126.45 79.85 125.9 80.55 127.05 80.55 127.05 80.6 Q127.2 80.9 129.0 80.6 131.15 80.25 132.85 79.4 131.8 80.45 120.9 84.6 L116.1 86.35 119.25 88.3 Q112.55 91.6 105.35 93.65 L105.8 92.1 103.65 90.9 101.6 89.7 101.35 89.55 95.2 85.65 94.5 85.1 93.45 85.2 90.8 85.35 Q87.2 85.55 86.1 86.2 L92.55 81.0 70.7 79.3 Q71.0 79.3 71.0 79.05 72.9 79.05 83.3 75.55 L83.9 75.35 84.25 75.25 92.5 72.35 105.85 69.85 108.6 69.35 112.25 68.7 106.05 72.0 Q104.45 72.85 103.05 73.65 108.3 72.25 112.65 70.4 L119.55 67.45 124.5 65.1 116.45 71.7 Q108.0 78.25 106.3 78.7 107.5 78.7 112.25 77.3 117.7 75.75 119.45 74.4 L119.7 74.4 Q119.2 74.7 115.65 79.2 L111.6 84.25 Q114.9 83.6 121.3 81.55 L123.8 80.75 123.4 80.55 Q125.7 79.3 127.9 77.7 M101.9 97.05 Q112.8 95.4 122.7 90.45 L125.0 92.0 116.95 94.8 107.9 97.7 111.6 99.6 112.65 100.15 104.75 101.7 104.95 101.55 103.3 101.25 97.0 100.3 97.0 100.05 101.9 97.05 M103.15 102.9 L114.0 100.85 114.9 101.25 112.95 101.75 109.55 102.7 101.45 105.0 100.3 104.8 103.05 102.95 103.15 102.9 M126.95 80.8 Q127.05 81.3 127.05 80.6 L126.95 80.8" fill="#27244c" fill-rule="evenodd" stroke="none"/>
      <path d="M83.8 132.95 L89.55 128.45 94.6 124.6 104.9 116.5 104.7 116.5 102.8 116.3 100.3 115.95 97.5 115.05 96.25 114.55 96.4 114.55 107.7 113.0 110.15 113.05 110.7 113.05 115.5 112.65 120.6 112.25 122.0 112.35 120.2 113.9 110.35 121.8 111.85 121.7 Q109.3 122.55 102.55 125.9 L99.45 127.4 Q98.2 128.0 96.8 128.7 L78.95 137.75 78.4 137.75 Q79.4 136.45 83.8 132.95" fill="#3d396b" fill-rule="evenodd" stroke="none"/>
      <path d="M181.25 6.25 L179.85 6.25 155.6 6.25 135.15 8.7 148.4 9.6 158.05 10.3 152.9 11.95 146.85 13.45 145.75 13.65 131.15 16.3 126.25 17.0 123.7 17.35 113.0 18.65 100.85 19.8 94.2 20.25 86.85 20.65 77.85 20.95 M141.85 102.3 L144.05 100.8 138.25 98.45 136.05 97.5 132.55 95.7 140.5 94.15 142.05 93.8 130.35 85.45 126.2 82.7 Q142.35 78.5 146.65 74.35 L137.5 73.95 135.3 73.9 Q146.3 62.65 149.45 54.7 158.7 49.65 164.85 43.25 L149.4 38.25 148.75 37.45 153.3 34.55 168.55 32.4 Q187.7 29.2 192.0 25.75 L189.3 25.5 180.2 25.15 170.8 25.5 Q173.25 26.35 174.1 28.05 167.15 30.0 158.25 30.8 161.2 28.35 163.25 26.0 L163.45 25.8 Q165.1 24.0 166.15 22.2 L155.1 24.6 153.55 24.95 150.2 25.7 Q172.0 17.45 182.05 6.25 L181.25 6.25 M207.8 87.8 L186.9 88.55 Q172.3 89.4 162.55 91.05 L167.5 91.0 190.1 91.7 Q187.8 92.5 183.2 94.5 173.25 98.25 162.15 99.8 L141.85 102.3 132.9 103.2 110.25 105.0 M207.8 87.8 L211.3 87.75 Q203.35 93.5 190.9 98.25 174.9 104.35 159.0 108.0 146.9 110.8 123.55 114.2 L122.8 114.3 116.65 119.45 113.45 121.85 114.65 122.1 116.15 122.3 Q113.0 123.95 106.75 126.7 L99.65 129.8 Q95.35 132.55 86.95 136.15 L71.8 142.2 73.15 142.95 75.55 144.35 Q74.25 145.45 72.25 148.45 L79.45 150.3 75.7 150.65 68.55 150.2 61.45 154.1 61.4 154.15 62.2 149.25 57.2 148.15 Q45.1 145.2 35.8 140.2 L38.55 139.5 Q42.95 138.45 47.5 138.2 L49.9 138.15 56.0 138.5 49.85 139.55 Q53.7 141.45 60.25 144.1 L78.2 132.7 84.75 128.6 84.5 128.6 75.65 129.05 73.25 129.05 Q78.65 119.6 83.65 112.6 L83.8 112.4 82.45 111.8 Q74.05 108.15 71.75 105.95 L71.35 105.55 72.6 105.05 M72.85 104.95 L79.9 101.25 Q76.7 99.5 72.25 96.4 73.4 95.4 74.7 94.35 77.15 92.45 79.7 91.15 L75.2 91.6 74.3 91.7 69.05 92.05 Q81.3 85.4 85.35 83.85 L73.15 83.1 Q59.2 82.05 55.4 80.9 L44.45 77.35 44.15 77.25 51.8 76.2 52.95 76.05 55.4 75.6 Q48.05 74.95 42.65 73.3 L40.15 72.45 37.8 71.55 43.1 67.0 43.35 66.8 Q44.6 65.9 48.75 64.1 L50.75 63.25 52.75 62.5 49.75 61.75 37.8 58.75 41.2 58.15 50.1 56.7 Q44.1 54.0 36.35 48.8 L36.1 48.6 Q28.2 43.15 23.75 38.15 22.0 36.2 20.8 34.3 L18.05 33.25 6.2 28.4 3.3 27.15 0.0 25.65 2.0 25.0 Q13.75 21.35 23.65 19.2 L35.6 17.0 34.8 16.05 31.9 11.85 Q37.0 8.0 53.0 8.15 L51.2 7.4 45.45 5.05 Q40.05 2.75 35.2 0.45 L41.7 0.0 Q57.4 0.0 69.7 1.65 77.75 2.7 85.65 4.65 L85.6 4.65 69.8 3.75 56.45 3.25 52.25 3.5 60.0 5.85 Q68.55 8.2 73.45 8.2 84.8 8.2 110.4 4.8 132.9 1.85 140.8 0.05 L136.5 2.35 135.6 2.75 129.9 8.0 126.4 11.5 131.25 12.0 137.3 12.35 Q135.55 14.05 131.15 16.3 M72.25 148.45 L63.55 145.4 62.2 144.85 60.25 144.1 M68.55 150.2 L62.2 149.25" fill="none" stroke="#7142c9" stroke-linecap="round" stroke-linejoin="round" stroke-width="1.0"/>
      <path d="M75.2 91.6 L73.15 92.3 62.3 95.75 62.3 96.0 M75.2 91.6 L86.95 87.85 87.6 87.65" fill="none" stroke="#8172c9" stroke-linecap="round" stroke-linejoin="round" stroke-width="0.1"/>
      <path d="M77.5 20.95 L67.1 21.05" fill="none" stroke="#2d206b" stroke-linecap="round" stroke-linejoin="round" stroke-width="1.0"/>
    </g>
    <linearGradient gradientTransform="matrix(-0.0452, 0.0836, 0.0694, 0.0239, 116.9, 61.4)" gradientUnits="userSpaceOnUse" id="gradient0" spreadMethod="pad" x1="-819.2" x2="819.2">
      <stop offset="0.0" stop-color="#171535"/>
      <stop offset="0.48627450980392156" stop-color="#403c70"/>
      <stop offset="1.0" stop-color="#8c84f0"/>
    </linearGradient>
    <linearGradient gradientTransform="matrix(-0.0555, 0.0821, 0.0631, 0.0271, 139.5, 44.0)" gradientUnits="userSpaceOnUse" id="gradient1" spreadMethod="pad" x1="-819.2" x2="819.2">
      <stop offset="0.0" stop-color="#171535"/>
      <stop offset="0.48627450980392156" stop-color="#403c70"/>
      <stop offset="1.0" stop-color="#cfa8ff"/>
    </linearGradient>
    <linearGradient gradientTransform="matrix(-0.0032, 0.0822, 0.1307, 0.0033, 103.9, 84.1)" gradientUnits="userSpaceOnUse" id="gradient2" spreadMethod="pad" x1="-819.2" x2="819.2">
      <stop offset="0.0" stop-color="#171535"/>
      <stop offset="0.48627450980392156" stop-color="#403c70"/>
      <stop offset="1.0" stop-color="#7b76bd"/>
    </linearGradient>
    <linearGradient gradientTransform="matrix(-0.0452, 0.0836, 0.0694, 0.0239, 116.9, 61.4)" gradientUnits="userSpaceOnUse" id="gradient3" spreadMethod="pad" x1="-819.2" x2="819.2">
      <stop offset="0.0" stop-color="#171535"/>
      <stop offset="0.48627450980392156" stop-color="#403c70"/>
      <stop offset="1.0" stop-color="#8c84f0"/>
    </linearGradient>
    <linearGradient gradientTransform="matrix(-0.0555, 0.0821, 0.0631, 0.0271, 139.5, 44.0)" gradientUnits="userSpaceOnUse" id="gradient4" spreadMethod="pad" x1="-819.2" x2="819.2">
      <stop offset="0.0" stop-color="#171535"/>
      <stop offset="0.48627450980392156" stop-color="#403c70"/>
      <stop offset="1.0" stop-color="#cfa8ff"/>
    </linearGradient>
    <linearGradient gradientTransform="matrix(-0.0032, 0.0822, 0.1307, 0.0033, 103.9, 84.1)" gradientUnits="userSpaceOnUse" id="gradient5" spreadMethod="pad" x1="-819.2" x2="819.2">
      <stop offset="0.0" stop-color="#171535"/>
      <stop offset="0.48627450980392156" stop-color="#403c70"/>
      <stop offset="1.0" stop-color="#7b76bd"/>
    </linearGradient>
  </defs>
</svg>
