<?xml version="1.0" encoding="UTF-8" standalone="no"?>
<svg xmlns:ffdec="https://www.free-decompiler.com/flash" xmlns:xlink="http://www.w3.org/1999/xlink" ffdec:objectType="frame" height="30.1px" width="30.0px" xmlns="http://www.w3.org/2000/svg">
  <g transform="matrix(1.0, 0.0, 0.0, 1.0, 0.0, 0.0)">
    <use ffdec:characterId="1" height="30.0" transform="matrix(1.0, 0.0, 0.0, 1.0, 0.0, 0.0)" width="30.0" xlink:href="#shape0"/>
    <use ffdec:characterId="5" height="30.0" transform="matrix(1.0, 0.0, 0.0, 1.0, 0.0, 0.1)" width="30.0" xlink:href="#sprite0"/>
  </g>
  <defs>
    <g id="shape0" transform="matrix(1.0, 0.0, 0.0, 1.0, 0.0, 0.0)">
      <path d="M0.0 0.0 L30.0 0.0 30.0 30.0 0.0 30.0 0.0 0.0" fill="#33cc66" fill-opacity="0.0" fill-rule="evenodd" stroke="none"/>
    </g>
    <g id="sprite0" transform="matrix(1.0, 0.0, 0.0, 1.0, 0.0, 0.0)">
      <use ffdec:characterId="2" height="30.0" transform="matrix(1.0, 0.0, 0.0, 1.0, 0.0, 0.0)" width="30.0" xlink:href="#shape1"/>
      <use ffdec:characterId="4" height="88.9" transform="matrix(0.2661, 0.0, 0.0, 0.2661, 5.6125, 2.8497)" width="75.8" xlink:href="#sprite1"/>
    </g>
    <g id="shape1" transform="matrix(1.0, 0.0, 0.0, 1.0, 0.0, 0.0)">
      <path d="M27.95 0.15 Q30.0 0.7 30.0 3.3 L30.0 26.7 29.8 28.15 Q29.15 30.0 26.7 30.0 L3.3 30.0 2.4 29.95 Q0.7 29.65 0.2 28.15 L0.0 26.7 0.0 3.3 Q0.0 0.7 2.05 0.15 L2.4 0.1 3.3 0.0 26.7 0.0 27.95 0.15" fill="#cccccc" fill-rule="evenodd" stroke="none"/>
    </g>
    <g id="sprite1" transform="matrix(1.0, 0.0, 0.0, 1.0, -1.55, 5.45)">
      <use ffdec:characterId="3" height="88.9" transform="matrix(1.0, 0.0, 0.0, 1.0, 1.55, -5.45)" width="75.8" xlink:href="#shape2"/>
    </g>
    <g id="shape2" transform="matrix(1.0, 0.0, 0.0, 1.0, -1.55, 5.45)">
      <path d="M39.95 -2.7 L40.0 -2.95 41.9 -1.2 Q42.8 3.6 43.9 7.0 L43.5 7.15 41.75 -0.25 40.9 0.1 39.95 -2.7 M56.0 19.7 L57.4 21.55 56.6 21.15 55.35 20.45 53.85 19.65 52.65 17.8 55.65 19.5 56.0 19.7 M69.7 41.6 L71.15 44.55 59.25 32.6 58.4 31.8 55.4 28.8 55.65 27.75 56.8 28.8 57.4 29.4 58.0 30.0 62.55 34.35 69.7 41.6 M73.2 56.55 L74.8 59.85 74.8 60.05 67.65 51.75 67.35 51.45 56.6 39.5 54.05 36.8 52.25 34.9 51.95 34.6 51.4 34.0 51.3 33.95 52.15 33.55 52.2 33.6 52.8 34.3 53.9 35.35 54.05 35.45 57.35 38.8 62.7 44.45 64.4 46.35 73.2 56.55 M4.1 60.05 L4.1 59.85 5.7 56.55 14.5 46.35 16.2 44.45 21.55 38.8 24.85 35.45 25.0 35.35 26.1 34.3 26.7 33.6 26.75 33.55 28.65 31.8 31.15 30.5 32.2 29.95 35.3 28.35 Q35.1 26.95 35.05 25.45 L34.9 21.75 Q35.4 21.45 35.95 21.2 L39.45 19.05 40.95 18.15 43.8 16.3 44.2 16.0 43.85 17.55 43.35 19.7 43.05 20.9 43.0 21.2 42.1 24.75 39.45 26.15 37.9 27.0 35.75 28.1 35.3 28.35 35.55 29.85 Q37.6 28.75 39.45 27.8 40.25 27.35 41.0 27.0 L41.6 26.65 43.9 25.45 47.3 23.65 47.95 23.3 47.85 23.95 47.1 27.9 46.7 29.95 46.45 31.15 46.2 31.3 44.8 32.05 42.75 33.2 39.65 34.9 39.45 35.0 37.1 36.3 36.9 36.4 36.2 33.2 35.65 30.35 35.55 29.85 32.75 31.3 32.6 31.4 27.95 33.8 27.6 33.95 27.5 34.0 26.95 34.6 26.65 34.9 24.85 36.8 22.3 39.5 Q17.15 45.1 11.55 51.45 L11.25 51.75 4.1 60.05 M7.75 44.55 L9.2 41.6 Q12.4 38.15 16.35 34.35 L20.9 30.0 21.5 29.4 22.1 28.8 23.3 27.75 23.95 27.1 24.3 26.7 25.25 26.15 28.55 24.1 30.8 22.7 33.45 21.0 33.55 20.95 34.95 20.05 35.05 17.55 35.15 16.3 35.2 15.65 35.35 13.85 37.85 12.5 Q38.45 12.15 39.0 11.9 L39.45 11.65 40.05 11.3 39.95 11.9 39.85 12.25 39.45 13.9 38.75 16.15 38.5 16.8 38.0 18.1 37.95 18.15 35.55 19.7 34.95 20.05 34.9 21.75 33.9 22.35 32.2 23.3 31.6 23.65 31.1 23.95 31.0 24.0 29.05 25.1 25.5 27.1 25.45 27.15 Q25.2 27.25 24.9 27.45 L24.55 27.75 23.5 28.8 20.5 31.8 19.65 32.6 7.75 44.55 M21.5 21.55 L22.9 19.7 Q23.1 19.55 23.25 19.5 L26.25 17.8 29.3 16.05 Q29.4 15.95 29.45 15.95 L30.5 14.8 31.45 13.8 32.75 12.15 33.4 11.0 35.0 7.0 Q36.1 3.6 37.0 -1.2 L38.9 -2.95 38.95 -2.7 38.05 0.1 Q37.05 3.5 36.15 8.6 L35.35 13.85 33.7 14.9 33.5 15.0 32.25 15.7 30.95 16.45 30.15 16.85 25.1 19.65 23.55 20.45 22.3 21.15 21.5 21.55" fill="#4b4856" fill-rule="evenodd" stroke="none"/>
      <path d="M39.6 -1.3 L39.95 -2.7 40.9 0.1 39.9 0.45 39.6 -1.3 M38.95 -2.7 L39.3 -1.3 39.0 0.45 38.65 2.3 37.45 8.2 37.15 9.45 36.95 10.05 37.25 9.95 39.45 9.15 41.5 8.2 41.95 7.9 42.15 7.9 40.0 16.85 41.0 16.65 43.75 15.65 45.4 15.0 46.65 14.45 46.85 14.45 46.65 15.7 45.5 20.45 45.4 20.95 45.0 22.35 44.3 24.5 Q44.85 24.1 46.7 23.3 L47.85 22.8 48.15 22.7 Q50.7 21.6 51.2 21.15 L52.05 21.0 50.4 24.1 49.9 25.1 Q48.55 27.95 47.8 30.5 L47.75 30.55 47.7 30.7 46.7 31.2 46.3 31.4 44.8 32.05 46.2 31.3 46.45 31.15 46.7 29.95 47.1 27.9 47.85 23.95 47.95 23.3 47.3 23.65 43.9 25.45 41.6 26.65 41.0 27.0 Q40.25 27.35 39.45 27.8 37.6 28.75 35.55 29.85 L35.3 28.35 35.75 28.1 37.9 27.0 39.45 26.15 42.1 24.75 43.0 21.2 43.05 20.9 43.35 19.7 43.85 17.55 44.2 16.0 43.8 16.3 40.95 18.15 39.45 19.05 35.95 21.2 Q35.4 21.45 34.9 21.75 L34.95 20.05 35.55 19.7 37.95 18.15 38.0 18.1 38.5 16.8 38.75 16.15 39.45 13.9 39.85 12.25 39.95 11.9 40.05 11.3 39.45 11.65 39.0 11.9 Q38.45 12.15 37.85 12.5 L35.35 13.85 36.15 8.6 Q37.05 3.5 38.05 0.1 L38.95 -2.7" fill="#211f2a" fill-rule="evenodd" stroke="none"/>
      <path d="M41.9 -1.2 L44.6 1.3 Q44.25 3.75 44.9 6.65 L43.9 7.0 Q42.8 3.6 41.9 -1.2 M55.7 19.3 L56.0 19.7 55.65 19.5 55.7 19.3 M22.9 19.7 L23.2 19.3 23.25 19.5 Q23.1 19.55 22.9 19.7 M34.3 1.3 L37.0 -1.2 Q36.1 3.6 35.0 7.0 L33.4 11.0 32.75 12.15 31.45 13.8 32.85 10.25 33.2 9.3 34.0 6.65 Q34.65 3.75 34.3 1.3 M34.9 21.75 L35.05 25.45 Q35.1 26.95 35.3 28.35 L32.2 29.95 31.15 30.5 28.65 31.8 26.75 33.55 26.7 33.6 26.7 33.55 26.4 32.2 26.1 31.2 Q25.35 28.75 24.55 27.75 L24.9 27.45 Q25.2 27.25 25.45 27.15 L25.5 27.1 29.05 25.1 31.0 24.0 31.1 23.95 31.6 23.65 32.2 23.3 33.9 22.35 34.9 21.75 M55.05 21.55 L53.85 19.65 55.35 20.45 55.05 21.55 M51.3 33.95 L51.4 34.0 51.95 34.6 52.25 34.9 52.0 35.15 50.5 37.0 48.35 39.6 47.4 40.8 47.2 40.7 44.85 37.95 43.95 37.45 51.3 33.95 M52.15 33.55 L52.2 33.55 52.2 33.6 52.15 33.55 M35.35 13.85 L35.2 15.65 35.15 16.3 35.05 17.55 34.95 20.05 33.55 20.95 33.45 21.0 30.8 22.7 28.55 24.1 25.25 26.15 25.0 25.4 24.05 22.05 23.9 21.55 23.55 20.45 25.1 19.65 30.15 16.85 30.95 16.45 32.25 15.7 33.5 15.0 33.7 14.9 35.35 13.85 M35.55 29.85 L35.65 30.35 36.2 33.2 36.9 36.4 35.0 37.45 34.05 37.95 31.7 40.7 31.5 40.8 30.55 39.6 28.4 37.0 26.9 35.15 26.65 34.9 26.95 34.6 27.5 34.0 27.6 33.95 27.95 33.8 32.6 31.4 32.75 31.3 35.55 29.85" fill="#575266" fill-rule="evenodd" stroke="none"/>
      <path d="M44.6 1.3 Q52.2 8.9 54.45 15.25 L55.4 18.9 55.7 19.3 55.65 19.5 52.65 17.8 49.0 12.0 47.95 12.7 45.1 6.55 44.9 6.65 Q44.25 3.75 44.6 1.3 M23.2 19.3 L23.5 18.9 24.45 15.25 Q26.7 8.9 34.3 1.3 34.65 3.75 34.0 6.65 L33.2 9.3 32.85 10.25 31.45 13.8 30.5 14.8 29.45 15.95 Q29.4 15.95 29.3 16.05 L26.25 17.8 23.25 19.5 23.2 19.3 M55.05 21.55 L55.35 20.45 56.6 21.15 Q57.1 25.8 58.0 30.0 L57.4 29.4 56.8 28.8 55.65 27.75 56.5 23.85 55.05 21.55 M55.4 28.8 L58.4 31.8 59.4 35.45 59.8 36.8 Q60.95 39.95 62.3 42.7 L64.4 46.35 62.7 44.45 57.35 38.8 54.05 35.45 53.9 35.35 52.8 34.3 52.2 33.6 52.2 33.55 54.6 32.4 55.4 28.8 M52.25 34.9 L54.05 36.8 Q54.2 38.7 54.65 41.05 55.6 45.6 57.7 52.1 L57.6 51.95 47.4 40.8 48.35 39.6 50.5 37.0 52.0 35.15 52.25 34.9 M24.55 27.75 Q25.35 28.75 26.1 31.2 L26.4 32.2 26.7 33.55 26.7 33.6 26.1 34.3 25.0 35.35 24.85 35.45 21.55 38.8 16.2 44.45 14.5 46.35 16.6 42.7 19.1 36.8 19.5 35.45 20.5 31.8 23.5 28.8 24.55 27.75 M23.55 20.45 L23.9 21.55 24.05 22.05 25.0 25.4 25.25 26.15 24.3 26.7 23.95 27.1 23.3 27.75 22.1 28.8 21.5 29.4 20.9 30.0 Q21.8 25.8 22.3 21.15 L23.55 20.45 M26.65 34.9 L26.9 35.15 28.4 37.0 30.55 39.6 31.5 40.8 21.3 51.95 21.2 52.1 Q23.3 45.6 24.25 41.05 L24.85 36.8 26.65 34.9" fill="#757085" fill-rule="evenodd" stroke="none"/>
      <path d="M57.4 21.55 L66.75 33.9 68.0 38.05 69.7 41.6 62.55 34.35 58.0 30.0 Q57.1 25.8 56.6 21.15 L57.4 21.55 M71.15 44.55 L72.5 47.2 72.7 55.4 73.2 56.55 64.4 46.35 62.3 42.7 Q60.95 39.95 59.8 36.8 L59.4 35.45 58.4 31.8 59.25 32.6 71.15 44.55 M74.8 60.05 Q75.0 73.3 74.05 80.05 L66.55 62.35 65.1 60.65 Q60.05 54.35 57.7 52.1 55.6 45.6 54.65 41.05 54.2 38.7 54.05 36.8 L56.6 39.5 67.35 51.45 67.65 51.75 74.8 60.05 M4.85 80.05 Q3.9 73.3 4.1 60.05 L11.25 51.75 11.55 51.45 Q17.15 45.1 22.3 39.5 L24.85 36.8 24.25 41.05 Q23.3 45.6 21.2 52.1 18.85 54.35 13.8 60.65 L12.35 62.35 4.85 80.05 M5.7 56.55 L6.2 55.4 6.4 47.2 7.75 44.55 19.65 32.6 20.5 31.8 19.5 35.45 19.1 36.8 16.6 42.7 14.5 46.35 5.7 56.55 M9.2 41.6 L10.9 38.05 12.15 33.9 21.5 21.55 22.3 21.15 Q21.8 25.8 20.9 30.0 L16.35 34.35 Q12.4 38.15 9.2 41.6" fill="#a29daf" fill-rule="evenodd" stroke="none"/>
      <path d="M39.3 -1.3 L39.45 -0.5 39.6 -1.3 39.9 0.45 40.9 0.1 41.75 -0.25 43.5 7.15 43.9 7.0 44.9 6.65 45.1 6.55 47.95 12.7 49.0 12.0 52.65 17.8 53.85 19.65 55.05 21.55 56.5 23.85 55.65 27.75 55.4 28.8 54.6 32.4 52.2 33.55 52.15 33.55 51.3 33.95 43.95 37.45 42.7 38.05 45.0 42.2 39.5 39.6 33.9 42.2 36.25 38.05 36.95 36.6 37.1 36.3 39.45 35.0 39.65 34.9 42.75 33.2 44.8 32.05 46.3 31.4 46.7 31.2 47.7 30.7 47.75 30.55 47.8 30.5 Q48.55 27.95 49.9 25.1 L50.4 24.1 52.05 21.0 51.2 21.15 Q50.7 21.6 48.15 22.7 L47.85 22.8 46.7 23.3 Q44.85 24.1 44.3 24.5 L45.0 22.35 45.4 20.95 45.5 20.45 46.65 15.7 46.85 14.45 46.65 14.45 45.4 15.0 43.75 15.65 41.0 16.65 40.0 16.85 42.15 7.9 41.95 7.9 41.5 8.2 39.45 9.15 37.25 9.95 36.95 10.05 37.15 9.45 37.45 8.2 38.65 2.3 39.0 0.45 39.3 -1.3 M39.9 0.45 L39.65 0.55 39.45 -0.5 39.65 0.55 39.9 0.45 M39.5 39.6 L42.7 38.05 39.5 39.6" fill="#5c5d8e" fill-rule="evenodd" stroke="none"/>
      <path d="M74.05 80.05 L73.9 80.95 64.6 62.85 47.05 43.2 45.0 42.2 42.7 38.05 43.95 37.45 44.85 37.95 47.2 40.7 47.4 40.8 57.6 51.95 57.7 52.1 Q60.05 54.35 65.1 60.65 L66.55 62.35 74.05 80.05 M33.9 42.2 L31.85 43.2 14.3 62.85 5.0 80.95 4.85 80.05 12.35 62.35 13.8 60.65 Q18.85 54.35 21.2 52.1 L21.3 51.95 31.5 40.8 31.7 40.7 34.05 37.95 35.0 37.45 36.9 36.4 37.1 36.3 36.95 36.6 36.25 38.05 33.9 42.2" fill="#7387f3" fill-rule="evenodd" stroke="none"/>
      <path d="M39.3 -1.3 L39.45 -0.5 39.6 -1.3 39.95 -2.7 40.0 -2.95 41.9 -1.2 44.6 1.3 Q52.2 8.9 54.45 15.25 L55.4 18.9 55.7 19.3 56.0 19.7 57.4 21.55 66.75 33.9 68.0 38.05 69.7 41.6 71.15 44.55 72.5 47.2 72.7 55.4 73.2 56.55 74.8 59.85 74.8 60.05 Q75.0 73.3 74.05 80.05 L73.9 80.95 64.6 62.85 47.05 43.2 45.0 42.2 39.5 39.6 33.9 42.2 31.85 43.2 14.3 62.85 5.0 80.95 4.85 80.05 Q3.9 73.3 4.1 60.05 L4.1 59.85 5.7 56.55 6.2 55.4 6.4 47.2 7.75 44.55 9.2 41.6 10.9 38.05 12.15 33.9 21.5 21.55 22.9 19.7 23.2 19.3 23.5 18.9 24.45 15.25 Q26.7 8.9 34.3 1.3 L37.0 -1.2 38.9 -2.95 38.95 -2.7 39.3 -1.3 M44.9 6.65 L45.1 6.55 47.95 12.7 49.0 12.0 52.65 17.8 53.85 19.65 55.05 21.55 56.5 23.85 55.65 27.75 55.4 28.8 54.6 32.4 52.2 33.55 52.15 33.55 51.3 33.95 43.95 37.45 42.7 38.05 39.5 39.6 M43.9 7.0 L44.9 6.65 M40.9 0.1 L41.75 -0.25 43.5 7.15 43.9 7.0 M39.45 -0.5 L39.65 0.55 39.9 0.45 40.9 0.1" fill="none" stroke="#ffffff" stroke-linecap="round" stroke-linejoin="round" stroke-width="5.0"/>
      <path d="M39.6 -1.3 L39.95 -2.7 Q41.45 1.15 42.75 8.6 L43.55 13.85 38.85 11.3 39.05 12.25 Q39.5 14.5 40.9 18.1 L43.95 20.05 44.0 21.75 Q38.5 18.6 34.7 16.0 L35.85 20.9 36.8 24.75 43.15 28.1 43.6 28.35 43.35 29.85 37.3 26.65 30.95 23.3 31.8 27.9 32.45 31.15 34.1 32.05 32.2 31.2 31.2 30.7 31.15 30.55 Q29.85 26.15 26.85 21.0 L27.7 21.15 31.05 22.8 Q33.9 24.0 34.6 24.5 34.25 23.8 33.4 20.45 32.35 16.8 32.05 14.45 L32.25 14.45 37.9 16.65 38.9 16.85 36.75 7.9 36.95 7.9 Q38.0 8.65 41.95 10.05 L40.25 2.3 39.6 -1.3" fill="#211f2a" fill-rule="evenodd" stroke="none"/>
      <path d="M41.9 -1.2 Q43.45 6.95 45.5 11.0 L46.15 12.15 47.45 13.8 48.4 14.8 49.45 15.95 49.6 16.05 55.65 19.5 56.0 19.7 57.4 21.55 56.6 21.15 55.35 20.45 48.75 16.85 47.95 16.45 45.2 14.9 43.55 13.85 42.75 8.6 Q41.45 1.15 39.95 -2.7 L40.0 -2.95 41.9 -1.2 M69.7 41.6 L71.15 44.55 59.25 32.6 58.4 31.8 54.35 27.75 54.0 27.45 53.45 27.15 53.4 27.1 47.9 24.0 44.0 21.75 43.95 20.05 40.9 18.1 Q39.5 14.5 39.05 12.25 L38.85 11.3 43.55 13.85 43.95 20.05 45.45 21.0 53.65 26.15 54.6 26.7 54.95 27.1 56.8 28.8 57.4 29.4 58.0 30.0 62.55 34.35 69.7 41.6 M73.2 56.55 L74.8 59.85 74.8 60.05 67.65 51.75 67.35 51.45 56.6 39.5 54.05 36.8 52.25 34.9 51.95 34.6 51.4 34.0 50.95 33.8 43.35 29.85 43.25 30.35 42.0 36.4 41.8 36.3 39.25 34.9 34.1 32.05 32.45 31.15 31.8 27.9 30.95 23.3 37.3 26.65 43.35 29.85 43.6 28.35 43.15 28.1 36.8 24.75 35.85 20.9 34.7 16.0 Q38.5 18.6 44.0 21.75 44.0 25.2 43.6 28.35 L50.25 31.8 52.2 33.6 52.8 34.3 53.9 35.35 54.05 35.45 57.35 38.8 62.7 44.45 64.4 46.35 73.2 56.55" fill="#4b4856" fill-rule="evenodd" stroke="none"/>
      <path d="M45.0 42.2 L24.3 32.4 22.4 23.85 29.9 12.0 30.95 12.7 33.8 6.55 35.4 7.15 37.15 -0.25 39.25 0.55 39.6 -1.3 40.25 2.3 41.95 10.05 Q38.0 8.65 36.95 7.9 L36.75 7.9 38.9 16.85 37.9 16.65 32.25 14.45 32.05 14.45 Q32.35 16.8 33.4 20.45 34.25 23.8 34.6 24.5 33.9 24.0 31.05 22.8 L27.7 21.15 26.85 21.0 Q29.85 26.15 31.15 30.55 L31.2 30.7 32.2 31.2 34.1 32.05 39.25 34.9 41.8 36.3 41.95 36.6 45.0 42.2" fill="#5c5d8e" fill-rule="evenodd" stroke="none"/>
      <path d="M41.9 -1.2 L44.6 1.3 Q44.1 4.85 45.7 9.3 L46.05 10.25 47.45 13.8 46.15 12.15 45.5 11.0 Q43.45 6.95 41.9 -1.2 M55.7 19.3 L56.0 19.7 55.65 19.5 55.7 19.3 M43.55 13.85 L45.2 14.9 47.95 16.45 48.75 16.85 55.35 20.45 54.85 22.05 53.9 25.4 Q53.7 25.8 53.65 26.15 L45.45 21.0 43.95 20.05 43.55 13.85 M44.0 21.75 L47.9 24.0 53.4 27.1 53.45 27.15 54.0 27.45 54.35 27.75 Q53.55 28.75 52.8 31.2 L52.5 32.2 52.2 33.6 50.25 31.8 43.6 28.35 Q44.0 25.2 44.0 21.75 M47.4 40.8 L47.2 40.7 44.85 37.95 42.0 36.4 43.25 30.35 43.35 29.85 50.95 33.8 51.4 34.0 51.95 34.6 52.25 34.9 52.0 35.15 50.5 37.0 48.35 39.6 47.4 40.8" fill="#575266" fill-rule="evenodd" stroke="none"/>
      <path d="M47.45 13.8 L46.05 10.25 45.7 9.3 Q44.1 4.85 44.6 1.3 52.2 8.9 54.45 15.25 L55.4 18.9 55.7 19.3 55.65 19.5 49.6 16.05 49.45 15.95 48.4 14.8 47.45 13.8 M55.35 20.45 L56.6 21.15 Q57.1 25.8 58.0 30.0 L57.4 29.4 56.8 28.8 54.95 27.1 54.6 26.7 53.65 26.15 Q53.7 25.8 53.9 25.4 L54.85 22.05 55.35 20.45 M54.35 27.75 L58.4 31.8 59.4 35.45 59.8 36.8 Q60.95 39.95 62.3 42.7 L64.4 46.35 62.7 44.45 57.35 38.8 54.05 35.45 53.9 35.35 52.8 34.3 52.2 33.6 52.5 32.2 52.8 31.2 Q53.55 28.75 54.35 27.75 M47.4 40.8 L48.35 39.6 50.5 37.0 52.0 35.15 52.25 34.9 54.05 36.8 Q54.2 38.7 54.65 41.05 55.6 45.6 57.7 52.1 L57.6 51.95 47.4 40.8" fill="#757085" fill-rule="evenodd" stroke="none"/>
      <path d="M74.05 80.05 L73.9 80.95 64.6 62.85 47.05 43.2 45.0 42.2 41.95 36.6 41.8 36.3 42.0 36.4 44.85 37.95 47.2 40.7 47.4 40.8 57.6 51.95 57.7 52.1 Q60.05 54.35 65.1 60.65 L66.55 62.35 74.05 80.05" fill="#7387f3" fill-rule="evenodd" stroke="none"/>
      <path d="M57.4 21.55 L66.75 33.9 68.0 38.05 69.7 41.6 62.55 34.35 58.0 30.0 Q57.1 25.8 56.6 21.15 L57.4 21.55 M71.15 44.55 L72.5 47.2 72.7 55.4 73.2 56.55 64.4 46.35 62.3 42.7 Q60.95 39.95 59.8 36.8 L59.4 35.45 58.4 31.8 59.25 32.6 71.15 44.55 M74.8 60.05 Q75.0 73.3 74.05 80.05 L66.55 62.35 65.1 60.65 Q60.05 54.35 57.7 52.1 55.6 45.6 54.65 41.05 54.2 38.7 54.05 36.8 L56.6 39.5 67.35 51.45 67.65 51.75 74.8 60.05" fill="#a29daf" fill-rule="evenodd" stroke="none"/>
      <path d="M24.3 32.4 L22.4 23.85 29.9 12.0 30.95 12.7 33.8 6.55 35.4 7.15 37.15 -0.25 39.25 0.55 39.6 -1.3 39.95 -2.7 40.0 -2.95" fill="none" stroke="#29233c" stroke-linecap="round" stroke-linejoin="round" stroke-width="1.0"/>
      <path d="M44.6 1.3 L41.9 -1.2 40.0 -2.95 M44.6 1.3 Q52.2 8.9 54.45 15.25 L55.4 18.9 55.7 19.3 56.0 19.7 57.4 21.55 66.75 33.9 68.0 38.05 69.7 41.6 71.15 44.55 72.5 47.2 72.7 55.4 73.2 56.55 74.8 59.85 74.8 60.05 Q75.0 73.3 74.05 80.05 L73.9 80.95 64.6 62.85 47.05 43.2 45.0 42.2 24.3 32.4" fill="none" stroke="#3e469f" stroke-linecap="round" stroke-linejoin="round" stroke-width="1.0"/>
      <path d="M38.95 -2.7 Q37.45 1.15 36.15 8.6 L35.35 13.85 40.05 11.3 39.85 12.25 Q39.4 14.5 38.0 18.1 L34.95 20.05 34.9 21.75 44.2 16.0 43.05 20.9 42.1 24.75 35.75 28.1 35.3 28.35 35.55 29.85 41.6 26.65 47.95 23.3 47.1 27.9 46.45 31.15 44.8 32.05 46.7 31.2 47.7 30.7 47.75 30.55 Q49.05 26.15 52.05 21.0 L51.2 21.15 Q50.65 21.6 47.85 22.8 45.0 24.0 44.3 24.5 L45.5 20.45 Q46.55 16.8 46.85 14.45 L46.65 14.45 41.0 16.65 40.0 16.85 42.15 7.9 41.95 7.9 Q40.9 8.65 36.95 10.05 L38.65 2.3 39.3 -1.3 38.95 -2.7" fill="#211f2a" fill-rule="evenodd" stroke="none"/>
      <path d="M38.9 -2.95 L37.0 -1.2 Q35.45 6.95 33.4 11.0 L32.75 12.15 31.45 13.8 30.5 14.8 29.45 15.95 Q29.4 15.95 29.3 16.05 25.8 18.0 23.25 19.5 23.1 19.55 22.9 19.7 L21.5 21.55 22.3 21.15 23.55 20.45 30.15 16.85 30.95 16.45 Q32.4 15.6 33.7 14.9 L35.35 13.85 36.15 8.6 Q37.45 1.15 38.95 -2.7 L38.9 -2.95 M44.8 32.05 L46.45 31.15 47.1 27.9 47.95 23.3 41.6 26.65 35.55 29.85 35.3 28.35 35.75 28.1 42.1 24.75 43.05 20.9 44.2 16.0 34.9 21.75 34.95 20.05 38.0 18.1 Q39.4 14.5 39.85 12.25 L40.05 11.3 35.35 13.85 Q35.0 17.1 34.95 20.05 L33.45 21.0 25.25 26.15 24.3 26.7 23.95 27.1 22.1 28.8 21.5 29.4 20.9 30.0 16.35 34.35 Q12.4 38.15 9.2 41.6 L7.75 44.55 19.65 32.6 20.5 31.8 24.55 27.75 24.9 27.45 Q25.2 27.25 25.45 27.15 L25.5 27.1 31.0 24.0 Q33.05 22.8 34.9 21.75 34.9 25.2 35.3 28.35 L28.65 31.8 26.7 33.6 26.1 34.3 25.0 35.35 24.85 35.45 21.55 38.8 16.2 44.45 14.5 46.35 5.7 56.55 4.1 59.85 4.1 60.05 11.25 51.75 11.55 51.45 Q17.15 45.1 22.3 39.5 L24.85 36.8 26.65 34.9 26.95 34.6 27.5 34.0 27.95 33.8 35.55 29.85 35.65 30.35 Q36.2 33.6 36.9 36.4 L37.1 36.3 39.65 34.9 44.8 32.05" fill="#4b4856" fill-rule="evenodd" stroke="none"/>
      <path d="M22.3 21.15 L21.5 21.55 12.15 33.9 10.9 38.05 9.2 41.6 Q12.4 38.15 16.35 34.35 L20.9 30.0 Q21.8 25.8 22.3 21.15 M4.1 60.05 Q3.9 73.3 4.85 80.05 L12.35 62.35 13.8 60.65 Q18.85 54.35 21.2 52.1 23.3 45.6 24.25 41.05 L24.85 36.8 22.3 39.5 Q17.15 45.1 11.55 51.45 L11.25 51.75 4.1 60.05 M7.75 44.55 L6.4 47.2 6.2 55.4 5.7 56.55 14.5 46.35 16.6 42.7 19.1 36.8 19.5 35.45 20.5 31.8 19.65 32.6 7.75 44.55" fill="#a29daf" fill-rule="evenodd" stroke="none"/>
      <path d="M21.2 52.1 Q18.85 54.35 13.8 60.65 L12.35 62.35 4.85 80.05 5.0 80.95 14.3 62.85 31.85 43.2 33.9 42.2 36.95 36.6 37.1 36.3 36.9 36.4 34.05 37.95 31.7 40.7 31.5 40.8 21.3 51.95 21.2 52.1" fill="#7387f3" fill-rule="evenodd" stroke="none"/>
      <path d="M35.35 13.85 L33.7 14.9 Q32.4 15.6 30.95 16.45 L30.15 16.85 23.55 20.45 24.05 22.05 25.0 25.4 25.25 26.15 33.45 21.0 34.95 20.05 Q35.0 17.1 35.35 13.85 M22.9 19.7 Q23.1 19.55 23.25 19.5 L23.2 19.3 22.9 19.7 M31.45 13.8 L32.75 12.15 33.4 11.0 Q35.45 6.95 37.0 -1.2 L34.3 1.3 Q34.8 4.85 33.2 9.3 L32.85 10.25 31.45 13.8 M34.9 21.75 Q33.05 22.8 31.0 24.0 L25.5 27.1 25.45 27.15 Q25.2 27.25 24.9 27.45 L24.55 27.75 Q25.35 28.75 26.1 31.2 L26.4 32.2 26.7 33.6 28.65 31.8 35.3 28.35 Q34.9 25.2 34.9 21.75 M36.9 36.4 Q36.2 33.6 35.65 30.35 L35.55 29.85 27.95 33.8 27.5 34.0 26.95 34.6 26.65 34.9 26.9 35.15 28.4 37.0 30.55 39.6 31.5 40.8 31.7 40.7 34.05 37.95 36.9 36.4" fill="#575266" fill-rule="evenodd" stroke="none"/>
      <path d="M23.55 20.45 L22.3 21.15 Q21.8 25.8 20.9 30.0 L21.5 29.4 22.1 28.8 23.95 27.1 24.3 26.7 25.25 26.15 25.0 25.4 24.05 22.05 23.55 20.45 M23.25 19.5 Q25.8 18.0 29.3 16.05 29.4 15.95 29.45 15.95 L30.5 14.8 31.45 13.8 32.85 10.25 33.2 9.3 Q34.8 4.85 34.3 1.3 26.7 8.9 24.45 15.25 L23.5 18.9 23.2 19.3 23.25 19.5 M24.85 36.8 L24.25 41.05 Q23.3 45.6 21.2 52.1 L21.3 51.95 31.5 40.8 30.55 39.6 28.4 37.0 26.9 35.15 26.65 34.9 24.85 36.8 M20.5 31.8 L19.5 35.45 19.1 36.8 16.6 42.7 14.5 46.35 16.2 44.45 21.55 38.8 24.85 35.45 25.0 35.35 26.1 34.3 26.7 33.6 26.4 32.2 26.1 31.2 Q25.35 28.75 24.55 27.75 L20.5 31.8" fill="#757085" fill-rule="evenodd" stroke="none"/>
      <path d="M39.3 -1.3 L38.65 2.3 36.95 10.05 Q40.9 8.65 41.95 7.9 L42.15 7.9 40.0 16.85 41.0 16.65 46.65 14.45 46.85 14.45 Q46.55 16.8 45.5 20.45 L44.3 24.5 Q45.0 24.0 47.85 22.8 50.65 21.6 51.2 21.15 L52.05 21.0 Q49.05 26.15 47.75 30.55 L47.7 30.7 46.7 31.2 44.8 32.05 39.65 34.9 37.1 36.3 36.95 36.6 33.9 42.2 54.6 32.4 56.5 23.85 49.0 12.0 47.95 12.7 45.1 6.55 43.5 7.15 41.75 -0.25 39.65 0.55 39.3 -1.3" fill="#5c5d8e" fill-rule="evenodd" stroke="none"/>
      <path d="M38.9 -2.95 L38.95 -2.7 39.3 -1.3 39.65 0.55 41.75 -0.25 43.5 7.15 45.1 6.55 47.95 12.7 49.0 12.0 56.5 23.85 54.6 32.4" fill="none" stroke="#29233c" stroke-linecap="round" stroke-linejoin="round" stroke-width="1.0"/>
      <path d="M37.0 -1.2 L38.9 -2.95 M21.5 21.55 L22.9 19.7 23.2 19.3 23.5 18.9 24.45 15.25 Q26.7 8.9 34.3 1.3 L37.0 -1.2 M4.85 80.05 Q3.9 73.3 4.1 60.05 L4.1 59.85 5.7 56.55 6.2 55.4 6.4 47.2 7.75 44.55 9.2 41.6 10.9 38.05 12.15 33.9 21.5 21.55 M4.85 80.05 L5.0 80.95 14.3 62.85 31.85 43.2 33.9 42.2 54.6 32.4" fill="none" stroke="#3e469f" stroke-linecap="round" stroke-linejoin="round" stroke-width="1.0"/>
    </g>
  </defs>
</svg>
