<?xml version="1.0" encoding="UTF-8" standalone="no"?>
<svg xmlns:ffdec="https://www.free-decompiler.com/flash" xmlns:xlink="http://www.w3.org/1999/xlink" ffdec:objectType="frame" height="30.1px" width="30.0px" xmlns="http://www.w3.org/2000/svg">
  <g transform="matrix(1.0, 0.0, 0.0, 1.0, 0.0, 0.0)">
    <use ffdec:characterId="1" height="30.0" transform="matrix(1.0, 0.0, 0.0, 1.0, 0.0, 0.0)" width="30.0" xlink:href="#shape0"/>
    <use ffdec:characterId="8" height="30.0" transform="matrix(1.0, 0.0, 0.0, 1.0, 0.0, 0.1)" width="30.0" xlink:href="#sprite0"/>
  </g>
  <defs>
    <g id="shape0" transform="matrix(1.0, 0.0, 0.0, 1.0, 0.0, 0.0)">
      <path d="M0.0 0.0 L30.0 0.0 30.0 30.0 0.0 30.0 0.0 0.0" fill="#33cc66" fill-opacity="0.0" fill-rule="evenodd" stroke="none"/>
    </g>
    <g id="sprite0" transform="matrix(1.0, 0.0, 0.0, 1.0, 0.0, 0.0)">
      <use ffdec:characterId="2" height="30.0" transform="matrix(1.0, 0.0, 0.0, 1.0, 0.0, 0.0)" width="30.0" xlink:href="#shape1"/>
      <filter id="filter1">
        <feColorMatrix in="SourceGraphic" result="filterResult1" type="matrix" values="0 0 0 0 1.0,0 0 0 0 1.0,0 0 0 0 1.0,0 0 0 1 0"/>
        <feConvolveMatrix divisor="9.0" in="filterResult1" kernelMatrix="1 1 1 1 1 1 1 1 1" order="3 3" result="filterResult2"/>
        <feComposite in="SourceGraphic" in2="filterResult2" operator="over" result="filterResult3"/>
      </filter>
      <use ffdec:characterId="7" filter="url(#filter1)" height="78.1" transform="matrix(0.1887, 0.1089, -0.1089, 0.1887, 12.6641, 4.116)" width="76.25" xlink:href="#sprite1"/>
    </g>
    <g id="shape1" transform="matrix(1.0, 0.0, 0.0, 1.0, 0.0, 0.0)">
      <path d="M27.95 0.15 Q30.0 0.7 30.0 3.3 L30.0 26.7 29.8 28.15 Q29.15 30.0 26.7 30.0 L3.3 30.0 2.4 29.95 Q0.7 29.65 0.2 28.15 L0.0 26.7 0.0 3.3 Q0.0 0.7 2.05 0.15 L2.4 0.1 3.3 0.0 26.7 0.0 27.95 0.15" fill="#cccccc" fill-rule="evenodd" stroke="none"/>
    </g>
    <g id="sprite1" transform="matrix(1.0, 0.0, 0.0, 1.0, 0.45, 0.45)">
      <use ffdec:characterId="3" height="78.1" transform="matrix(1.0, 0.0, 0.0, 1.0, -0.45, -0.45)" width="76.25" xlink:href="#shape2"/>
      <filter id="filter0">
        <feConvolveMatrix divisor="256.0" in="SourceGraphic" kernelMatrix="1 1 1 1 1 1 1 1 1 1 1 1 1 1 1 1 1 1 1 1 1 1 1 1 1 1 1 1 1 1 1 1 1 1 1 1 1 1 1 1 1 1 1 1 1 1 1 1 1 1 1 1 1 1 1 1 1 1 1 1 1 1 1 1 1 1 1 1 1 1 1 1 1 1 1 1 1 1 1 1 1 1 1 1 1 1 1 1 1 1 1 1 1 1 1 1 1 1 1 1 1 1 1 1 1 1 1 1 1 1 1 1 1 1 1 1 1 1 1 1 1 1 1 1 1 1 1 1 1 1 1 1 1 1 1 1 1 1 1 1 1 1 1 1 1 1 1 1 1 1 1 1 1 1 1 1 1 1 1 1 1 1 1 1 1 1 1 1 1 1 1 1 1 1 1 1 1 1 1 1 1 1 1 1 1 1 1 1 1 1 1 1 1 1 1 1 1 1 1 1 1 1 1 1 1 1 1 1 1 1 1 1 1 1 1 1 1 1 1 1 1 1 1 1 1 1 1 1 1 1 1 1 1 1 1 1 1 1 1 1 1 1 1 1 1 1 1 1 1 1 1 1 1 1 1 1" order="16 16" result="filterResult0"/>
      </filter>
      <use ffdec:characterId="5" filter="url(#filter0)" height="31.1" transform="matrix(1.4025, 0.3758, -0.3758, 1.4025, 31.9521, 0.6833)" width="17.6" xlink:href="#sprite2"/>
      <use ffdec:characterId="6" height="77.1" transform="matrix(1.0, 0.0, 0.0, 1.0, -0.25, -0.25)" width="75.25" xlink:href="#shape4"/>
    </g>
    <g id="shape2" transform="matrix(1.0, 0.0, 0.0, 1.0, 0.45, 0.45)">
      <path d="M18.45 11.9 Q12.85 4.75 5.55 0.65 L5.4 0.55 5.1 0.3 Q3.25 2.85 1.85 8.2 0.8 11.65 0.45 13.8 0.15 15.95 0.4 16.95 L0.45 17.3 Q1.0 19.05 2.1 21.1 4.25 25.3 8.75 30.8 13.7 37.0 17.95 40.7 L18.1 40.65 18.2 40.3 18.3 39.75 18.7 37.85 Q19.5 34.2 19.9 28.75 L19.75 23.4 19.5 21.1 19.3 20.05 18.45 11.9 M32.65 12.6 L32.65 22.15 33.35 30.75 34.1 31.95 37.1 36.4 38.3 38.3 43.05 45.25 44.5 47.35 45.65 48.95 45.7 49.4 46.25 53.45 Q45.9 53.35 45.65 53.7 L31.5 56.35 29.8 64.8 30.15 65.2 30.25 65.4 34.35 70.15 34.7 70.4 35.3 70.55 Q38.5 71.5 46.15 74.6 L47.7 75.2 50.45 76.3 51.65 76.85 51.9 76.9 Q56.1 76.4 62.05 74.7 L69.9 71.95 69.95 71.75 Q72.2 62.65 73.85 54.05 L74.0 53.35 74.0 53.2 74.1 52.65 74.2 52.4 74.25 51.9 74.7 49.55 75.05 47.7 74.95 47.5 74.7 47.0 Q71.5 40.0 66.7 31.1 L63.45 25.05 62.15 22.75 61.35 22.4 60.7 22.05 Q54.15 18.85 44.75 15.75 L41.15 14.75 33.0 12.15 32.65 12.0 32.65 12.6 M22.3 58.5 Q22.3 61.1 21.55 66.0 L21.35 66.95 19.9 66.1 19.4 65.75 19.15 65.55 19.05 65.55 18.1 64.95 15.45 63.15 Q12.7 61.2 11.55 59.9 L10.95 58.45 6.9 47.95 6.25 46.15 6.9 46.45 7.2 46.65 Q15.35 51.45 17.6 53.0 20.15 54.8 21.35 56.3 L21.65 56.7 Q22.3 57.65 22.3 58.5 Z" fill="none" stroke="#000000" stroke-linecap="round" stroke-linejoin="round" stroke-width="1.5"/>
    </g>
    <g id="sprite2" transform="matrix(1.0, 0.0, 0.0, 1.0, 8.8, 15.55)">
      <use ffdec:characterId="4" height="31.1" transform="matrix(1.0, 0.0, 0.0, 1.0, -8.8, -15.55)" width="17.6" xlink:href="#shape3"/>
    </g>
    <g id="shape3" transform="matrix(1.0, 0.0, 0.0, 1.0, 8.8, 15.55)">
      <path d="M6.2 11.0 Q3.65 15.55 0.0 15.55 -3.65 15.55 -6.25 11.0 -8.8 6.45 -8.8 0.0 -8.8 -6.45 -6.25 -11.0 -3.65 -15.55 0.0 -15.55 3.65 -15.55 6.2 -11.0 8.8 -6.45 8.8 0.0 8.8 6.45 6.2 11.0" fill="#ffffff" fill-rule="evenodd" stroke="none"/>
    </g>
    <g id="shape4" transform="matrix(1.0, 0.0, 0.0, 1.0, 0.25, 0.25)">
      <path d="M12.4 14.35 L12.75 14.7 13.7 15.65 16.35 18.15 14.45 17.0 9.9 14.25 9.05 13.05 Q9.05 15.75 8.25 18.55 L8.15 19.6 Q7.9 20.8 7.15 21.85 8.1 22.45 10.65 25.9 L12.05 27.75 14.45 31.55 15.75 34.2 18.0 39.45 17.9 40.0 16.0 36.65 11.0 27.85 9.3 25.55 8.0 24.0 5.95 23.65 5.4 23.3 4.45 22.85 3.7 22.25 Q2.25 20.7 0.15 17.0 L0.1 16.65 Q-0.15 15.65 0.15 13.5 L1.3 17.55 Q1.65 18.5 2.25 19.15 3.45 20.55 5.75 20.55 L6.45 20.3 6.95 17.1 Q7.25 13.6 7.15 8.75 L5.6 3.95 Q5.1 1.9 5.1 0.25 L5.25 0.35 6.55 3.35 10.15 11.75 11.0 13.0 11.8 13.75 11.95 13.9 12.4 14.35" fill="#eeffff" fill-rule="evenodd" stroke="none"/>
      <path d="M16.35 18.15 L13.7 15.65 12.75 14.7 12.4 14.35 15.75 17.35 Q16.35 17.95 17.05 17.95 L17.05 16.5 Q16.35 14.45 13.1 10.15 9.45 5.25 6.55 3.35 L5.25 0.35 Q12.55 4.45 18.15 11.6 L19.0 19.75 16.35 18.15 M0.15 17.0 Q2.25 20.7 3.7 22.25 L4.45 22.85 4.15 22.95 4.15 23.1 Q7.5 24.4 11.7 30.25 L15.55 36.45 16.0 36.7 16.0 36.65 17.9 40.0 17.8 40.35 17.65 40.4 Q13.4 36.7 8.45 30.5 3.95 25.0 1.8 20.8 0.7 18.75 0.15 17.0" fill="#adeeff" fill-rule="evenodd" stroke="none"/>
      <path d="M12.4 14.35 L11.95 13.9 11.8 13.75 11.0 13.0 10.15 11.75 6.55 3.35 Q9.45 5.25 13.1 10.15 16.35 14.45 17.05 16.5 L17.05 17.95 Q16.35 17.95 15.75 17.35 L12.4 14.35" fill="#72f5f5" fill-rule="evenodd" stroke="none"/>
      <path d="M18.0 39.45 L15.75 34.2 14.45 31.55 12.05 27.75 13.4 29.5 14.9 31.3 15.15 31.3 15.3 27.35 15.15 20.35 15.3 18.8 16.6 19.45 Q18.15 20.2 19.2 20.8 L19.45 23.1 19.6 28.45 Q19.2 33.9 18.4 37.55 L18.0 39.45" fill="#71c6c6" fill-rule="evenodd" stroke="none"/>
      <path d="M12.05 27.75 L10.65 25.9 Q8.1 22.45 7.15 21.85 7.9 20.8 8.15 19.6 L8.25 18.55 Q9.05 15.75 9.05 13.05 L9.9 14.25 14.45 17.0 16.35 18.15 19.0 19.75 19.2 20.8 Q18.15 20.2 16.6 19.45 L15.3 18.8 15.15 20.35 15.3 27.35 15.15 31.3 14.9 31.3 13.4 29.5 12.05 27.75" fill="#31b4b4" fill-rule="evenodd" stroke="none"/>
      <path d="M33.9 12.9 L32.35 12.3 32.35 11.7 32.7 11.85 40.85 14.45 44.45 15.45 Q53.85 18.55 60.4 21.75 L61.05 22.1 61.85 22.45 63.15 24.75 63.2 25.8 63.2 26.3 62.85 28.55 68.2 39.3 69.3 42.15 69.4 42.3 71.55 45.5 Q73.0 47.7 73.35 47.7 L73.55 47.7 74.4 46.7 74.65 47.2 74.75 47.4 74.4 49.25 73.95 51.6 73.9 52.1 73.8 52.35 73.7 52.9 73.7 53.05 73.45 52.8 72.6 52.0 71.3 50.9 70.0 49.95 68.05 48.65 67.0 48.15 Q65.95 47.65 64.75 47.3 L62.35 46.7 Q62.0 46.95 62.0 47.55 L62.0 47.65 62.45 49.0 63.05 50.8 63.4 51.6 62.85 50.75 62.7 50.45 62.7 50.3 60.1 46.45 60.05 46.35 59.85 46.35 59.7 46.1 59.25 45.5 58.75 44.8 57.0 42.65 55.05 40.05 53.5 38.0 Q50.75 34.2 48.95 31.3 L48.85 33.7 48.85 33.8 53.05 41.85 54.7 46.0 55.75 49.1 56.0 50.9 56.0 51.25 56.1 51.5 56.15 53.25 55.3 53.15 55.15 51.85 55.05 51.6 54.8 49.85 Q54.45 47.7 53.95 46.5 L50.4 39.7 48.25 36.8 Q47.55 36.05 47.15 36.05 47.15 35.75 47.3 35.5 L47.55 34.65 47.4 34.4 47.5 33.95 47.55 33.8 47.75 33.35 48.1 32.35 48.7 30.8 48.75 30.45 48.75 30.35 48.85 29.05 Q50.9 32.75 55.2 39.1 L56.6 40.35 59.45 43.4 Q61.5 46.0 62.55 46.35 L62.6 46.35 62.95 46.5 63.3 46.6 63.4 46.6 64.75 47.05 68.1 48.25 72.75 50.05 73.2 50.2 73.0 49.85 70.7 45.9 70.35 45.3 68.7 42.4 67.95 41.0 64.0 33.0 62.35 28.9 62.2 28.35 62.1 28.3 61.35 27.6 56.15 24.35 55.2 23.8 54.2 23.3 Q50.25 21.4 47.55 20.55 L47.4 20.95 47.4 19.25 47.4 19.1 Q46.8 18.8 46.1 18.65 44.2 18.05 38.55 15.2 L37.75 14.8 33.9 12.9 M61.65 25.2 L61.65 24.85 61.0 23.05 Q61.0 24.35 61.5 26.05 L61.65 25.2" fill="#b8ffff" fill-rule="evenodd" stroke="none"/>
      <path d="M32.35 12.3 L33.9 12.9 36.2 14.85 Q38.35 16.65 40.45 17.9 42.5 19.1 46.35 20.7 L46.0 20.7 46.0 24.15 47.2 30.6 46.7 32.65 45.25 37.15 45.15 37.4 45.15 37.5 45.0 37.9 44.9 37.9 44.45 37.85 44.1 37.75 43.85 37.55 44.1 36.55 Q45.15 32.65 45.15 31.2 L45.05 30.2 42.9 27.4 Q41.3 25.95 41.05 25.35 L37.4 17.45 Q36.3 16.4 36.05 16.4 35.45 16.4 34.65 20.35 33.9 24.5 33.8 29.85 L32.95 29.05 32.35 21.85 32.35 12.3" fill="#a8ffff" fill-rule="evenodd" stroke="none"/>
      <path d="M33.8 29.85 Q33.9 24.5 34.65 20.35 35.45 16.4 36.05 16.4 36.3 16.4 37.4 17.45 L41.05 25.35 Q41.3 25.95 42.9 27.4 L45.05 30.2 45.15 31.2 Q45.15 32.65 44.1 36.55 L43.85 37.55 42.6 36.8 42.25 36.65 38.7 33.9 34.3 30.2 33.8 29.85" fill="#d4ffff" fill-rule="evenodd" stroke="none"/>
      <path d="M47.4 20.95 L47.55 20.55 Q50.25 21.4 54.2 23.3 L51.2 23.1 51.0 23.3 52.2 25.8 52.4 26.05 Q54.45 29.9 59.0 36.95 64.75 45.85 64.75 46.7 L64.75 46.95 64.75 47.05 63.4 46.6 63.3 46.6 62.95 46.5 62.6 46.35 62.55 46.35 Q61.5 46.0 59.45 43.4 L56.6 40.35 55.2 39.1 Q50.9 32.75 48.85 29.05 L47.55 26.5 47.4 21.3 47.4 20.95" fill="#1790d4" fill-rule="evenodd" stroke="none"/>
      <path d="M64.0 33.0 L67.95 41.0 68.7 42.4 70.35 45.3 70.7 45.9 73.0 49.85 73.2 50.2 72.75 50.05 68.1 48.25 64.75 47.05 64.75 46.95 65.7 47.2 68.1 47.9 Q69.05 47.9 69.05 47.3 L68.45 46.0 67.5 43.4 Q65.65 37.4 64.0 33.0" fill="#4bdff7" fill-rule="evenodd" stroke="none"/>
      <path d="M69.3 42.15 L68.2 39.3 62.85 28.55 63.2 26.3 63.55 26.65 65.1 29.15 67.7 36.7 69.3 42.15 M61.65 25.2 L61.5 26.05 Q61.0 24.35 61.0 23.05 L61.65 24.85 61.65 25.2" fill="#5af5f0" fill-rule="evenodd" stroke="none"/>
      <path d="M74.4 46.7 L73.55 47.7 73.35 47.7 Q73.0 47.7 71.55 45.5 L69.4 42.3 69.3 42.15 67.7 36.7 65.1 29.15 63.55 26.65 63.2 26.3 63.2 25.8 63.15 24.75 66.4 30.8 Q71.2 39.7 74.4 46.7" fill="#9ffffb" fill-rule="evenodd" stroke="none"/>
      <path d="M54.2 23.3 L55.2 23.8 56.15 24.35 61.35 27.6 62.1 28.3 62.2 28.35 62.35 28.9 64.0 33.0 Q65.65 37.4 67.5 43.4 L68.45 46.0 69.05 47.3 Q69.05 47.9 68.1 47.9 L65.7 47.2 64.75 46.95 64.75 46.7 Q64.75 45.85 59.0 36.95 54.45 29.9 52.4 26.05 L52.2 25.8 51.0 23.3 51.2 23.1 54.2 23.3" fill="#4bb9f7" fill-rule="evenodd" stroke="none"/>
      <path d="M56.15 53.25 L56.1 51.5 56.0 51.25 56.0 50.9 55.75 49.1 54.7 46.0 53.05 41.85 48.85 33.8 48.85 33.7 48.95 31.3 Q50.75 34.2 53.5 38.0 L55.05 40.05 57.0 42.65 Q58.05 47.7 59.1 50.2 59.7 51.75 60.3 52.35 L58.05 55.1 57.9 55.1 Q57.3 55.05 56.6 54.6 L56.35 54.0 56.25 53.75 56.15 53.4 56.15 53.25" fill="#265ebf" fill-rule="evenodd" stroke="none"/>
      <path d="M57.0 42.65 L58.75 44.8 59.25 45.5 59.7 46.1 59.85 46.35 60.05 46.35 60.1 46.45 62.7 50.3 62.7 50.45 62.6 50.65 61.75 53.65 60.65 57.35 60.55 58.55 60.45 59.0 60.45 59.25 60.4 59.4 59.95 60.3 59.7 60.55 58.85 61.3 58.75 60.6 58.65 59.35 58.3 57.55 57.95 56.75 57.9 56.65 57.8 56.6 57.65 56.3 57.45 56.15 57.1 55.65 56.85 55.2 56.6 54.6 Q57.3 55.05 57.9 55.1 L58.05 55.1 60.3 52.35 Q59.7 51.75 59.1 50.2 58.05 47.7 57.0 42.65" fill="#3876e2" fill-rule="evenodd" stroke="none"/>
      <path d="M62.0 47.65 L62.0 47.55 Q62.0 46.95 62.35 46.7 L64.75 47.3 Q65.95 47.65 67.0 48.15 L68.05 48.65 70.0 49.95 69.4 49.8 67.7 50.2 67.0 50.4 Q65.3 51.0 64.35 51.0 L64.1 51.0 63.9 51.0 63.15 48.95 63.05 48.75 62.0 47.65 M63.15 62.1 L62.8 61.55 Q61.15 59.15 61.15 58.75 L61.5 56.85 62.55 54.5 63.75 52.3 63.75 52.2 63.9 51.95 64.95 52.7 67.0 51.95 Q67.15 51.85 67.45 51.75 68.65 51.15 70.35 51.15 L70.45 51.15 70.7 51.25 Q70.6 51.25 70.55 51.35 69.95 51.7 69.3 52.1 L66.9 53.9 66.15 57.2 65.65 58.65 Q64.75 60.8 64.75 61.5 64.75 63.05 64.15 63.05 L63.15 62.1" fill="#2b57a3" fill-rule="evenodd" stroke="none"/>
      <path d="M62.7 50.45 L62.85 50.75 63.4 51.6 63.05 50.8 62.45 49.0 62.0 47.65 63.05 48.75 63.15 48.95 63.9 51.0 64.1 51.0 64.35 51.0 Q65.3 51.0 67.0 50.4 L67.7 50.2 69.4 49.8 70.0 49.95 71.3 50.9 72.6 52.0 72.1 51.75 70.7 51.25 70.45 51.15 70.35 51.15 Q68.65 51.15 67.45 51.75 67.15 51.85 67.0 51.95 L64.95 52.7 63.9 51.95 63.75 52.2 63.75 52.3 62.55 54.5 61.5 56.85 61.15 58.75 Q61.15 59.15 62.8 61.55 L63.15 62.1 64.1 63.45 64.6 64.15 67.0 66.3 67.15 66.45 67.85 67.15 Q69.6 65.35 72.15 57.35 L73.45 52.8 73.7 53.05 73.55 53.75 Q71.9 62.35 69.65 71.45 L69.6 71.65 61.4 60.8 Q61.25 60.8 60.45 61.4 L57.55 63.8 57.45 63.9 52.55 68.2 52.3 68.6 51.8 69.55 51.8 69.65 Q51.2 71.05 51.2 72.6 L51.2 73.0 51.25 75.05 51.35 76.55 50.15 76.0 50.15 75.95 50.15 75.05 50.05 72.85 50.05 71.45 50.05 70.85 50.05 70.75 50.25 68.9 50.25 68.45 Q50.3 67.75 50.55 67.5 L40.45 62.35 Q40.25 62.35 40.15 62.45 39.5 62.6 38.8 63.3 L38.35 64.25 38.2 64.5 37.25 66.3 36.9 67.0 36.8 67.05 36.2 68.3 35.2 70.0 35.0 70.25 34.4 70.1 Q34.25 69.9 34.05 69.85 L35.5 67.7 35.95 67.0 37.05 65.0 37.25 64.6 37.4 64.25 37.75 62.5 35.35 60.2 Q32.75 57.85 32.25 57.85 32.15 57.85 31.9 58.8 L30.45 63.05 29.85 64.9 29.5 64.5 31.2 56.05 32.35 56.85 38.2 60.9 38.35 60.95 Q38.8 61.15 38.95 61.65 L39.05 61.65 Q39.2 61.5 39.5 61.4 L39.5 61.3 40.1 61.05 46.25 64.05 Q51.45 66.75 52.45 67.0 L53.65 65.8 Q56.15 63.3 57.0 61.15 L57.55 59.5 58.4 59.95 58.4 59.75 Q58.05 59.4 58.05 58.75 L58.3 57.55 58.65 59.35 58.75 60.6 58.85 61.3 59.7 60.55 59.95 60.3 60.4 59.4 60.45 59.25 60.45 59.0 60.55 58.55 60.65 57.35 61.75 53.65 62.6 50.65 62.7 50.45" fill="#70fffa" fill-rule="evenodd" stroke="none"/>
      <path d="M66.15 57.2 L66.9 53.9 69.3 52.1 Q69.95 51.7 70.55 51.35 L71.3 51.85 69.5 53.4 Q68.2 54.5 66.15 57.2" fill="#3268c4" fill-rule="evenodd" stroke="none"/>
      <path d="M72.6 52.0 L73.45 52.8 72.15 57.35 Q69.6 65.35 67.85 67.15 L67.15 66.45 67.0 66.3 64.6 64.15 64.1 63.45 63.15 62.1 64.15 63.05 Q64.75 63.05 64.75 61.5 64.75 60.8 65.65 58.65 L66.15 57.2 Q68.2 54.5 69.5 53.4 L71.3 51.85 70.55 51.35 Q70.6 51.25 70.7 51.25 L72.1 51.75 72.6 52.0" fill="#358cd9" fill-rule="evenodd" stroke="none"/>
      <path d="M47.15 36.05 Q47.55 36.05 48.25 36.8 L50.4 39.7 53.95 46.5 Q54.45 47.7 54.8 49.85 L55.05 51.6 55.15 51.85 55.3 53.15 51.95 52.95 51.45 52.9 50.85 52.8 52.4 49.8 51.25 46.45 45.15 40.0 45.35 39.65 Q45.85 38.35 46.2 38.1 L47.15 36.05" fill="#25a1d7" fill-rule="evenodd" stroke="none"/>
      <path d="M45.15 40.0 L51.25 46.45 52.4 49.8 50.85 52.8 50.55 52.7 48.4 52.3 48.25 52.2 Q48.4 51.75 47.9 50.8 L47.05 49.1 45.95 46.1 Q45.35 44.8 44.8 44.2 L44.75 42.2 Q44.75 41.1 44.9 40.65 L45.15 40.0" fill="#46bbee" fill-rule="evenodd" stroke="none"/>
      <path d="M58.3 57.55 L58.05 58.75 Q58.05 59.4 58.4 59.75 L58.4 59.95 57.55 59.5 Q57.0 59.25 56.4 59.15 L56.15 59.15 55.75 59.1 55.3 59.1 49.2 59.75 48.15 60.0 46.45 60.35 45.35 60.6 40.45 60.95 40.1 61.05 39.5 61.3 39.15 60.6 40.15 60.35 45.15 59.7 46.6 59.4 47.5 59.25 48.15 59.15 48.95 59.0 51.7 58.9 Q54.2 58.65 56.15 57.7 L56.35 57.55 56.7 57.35 57.2 57.0 Q57.45 56.75 57.8 56.6 L57.9 56.65 57.95 56.75 58.3 57.55 M44.8 44.2 Q45.35 44.8 45.95 46.1 L47.05 49.1 47.9 50.8 Q48.4 51.75 48.25 52.2 L48.4 52.3 50.55 52.7 50.85 52.8 51.45 52.9 51.95 52.95 49.8 52.8 47.55 53.3 46.8 53.3 46.2 53.15 45.95 53.15 45.4 49.1 45.35 48.65 45.35 48.55 45.35 48.25 Q44.9 45.85 44.8 44.2" fill="#9bfcfc" fill-rule="evenodd" stroke="none"/>
      <path d="M55.3 53.15 L56.15 53.25 56.15 53.4 56.25 53.75 56.35 54.0 56.6 54.6 56.85 55.2 57.1 55.65 55.65 54.95 Q53.5 54.1 52.45 54.1 L50.3 54.15 Q48.25 55.2 46.9 56.25 L45.75 57.2 Q44.8 58.15 44.8 58.9 L45.25 59.0 41.55 59.1 41.05 59.1 39.75 59.1 38.7 59.0 37.65 58.75 37.5 58.75 36.8 58.4 Q37.65 57.8 41.2 56.5 L46.0 54.75 47.55 53.3 49.8 52.8 51.95 52.95 55.3 53.15" fill="#7ed0ff" fill-rule="evenodd" stroke="none"/>
      <path d="M45.25 59.0 L44.8 58.9 Q44.8 58.15 45.75 57.2 L46.9 56.25 Q48.25 55.2 50.3 54.15 L52.45 54.1 Q53.5 54.1 55.65 54.95 L57.1 55.65 57.45 56.15 57.65 56.3 57.8 56.6 Q57.45 56.75 57.2 57.0 L56.7 57.35 56.35 57.55 56.15 57.7 Q54.2 58.65 51.7 58.9 L48.95 59.0 48.4 59.0 47.2 59.0 45.25 59.0" fill="#74ebff" fill-rule="evenodd" stroke="none"/>
      <path d="M57.55 59.5 L57.0 61.15 56.95 61.05 56.0 60.8 55.9 60.8 Q54.25 60.9 50.65 61.9 L47.65 62.95 Q46.55 63.45 46.1 63.8 L46.25 64.05 40.1 61.05 40.45 60.95 45.35 60.6 46.45 60.35 48.15 60.0 49.2 59.75 55.3 59.1 55.75 59.1 56.15 59.15 56.4 59.15 Q57.0 59.25 57.55 59.5" fill="#0698e9" fill-rule="evenodd" stroke="none"/>
      <path d="M57.0 61.15 Q56.15 63.3 53.65 65.8 L52.45 67.0 Q51.45 66.75 46.25 64.05 L46.1 63.8 Q46.55 63.45 47.65 62.95 L50.65 61.9 Q54.25 60.9 55.9 60.8 L56.0 60.8 56.95 61.05 57.0 61.15" fill="#02c3e2" fill-rule="evenodd" stroke="none"/>
      <path d="M51.8 69.55 L52.3 68.6 52.55 68.2 57.45 63.9 57.55 63.8 60.45 61.4 63.5 65.8 64.1 66.8 55.65 69.05 51.8 69.55" fill="#1f4b9a" fill-rule="evenodd" stroke="none"/>
      <path d="M36.2 68.3 L36.8 67.05 36.9 67.0 37.25 66.3 38.2 64.5 38.35 64.25 38.8 63.3 Q39.5 62.6 40.15 62.45 40.25 62.35 40.45 62.35 L50.55 67.5 Q50.3 67.75 50.25 68.45 L50.25 68.9 49.9 68.9 Q46.55 68.9 43.6 67.75 40.95 66.8 39.3 65.25 L37.0 67.4 36.75 67.7 36.2 68.3" fill="#2384d9" fill-rule="evenodd" stroke="none"/>
      <path d="M50.25 68.9 L50.05 70.75 50.05 70.85 50.05 71.45 50.05 72.85 Q44.05 71.55 40.15 69.9 L36.75 67.85 36.75 67.7 37.0 67.4 39.3 65.25 Q40.95 66.8 43.6 67.75 46.55 68.9 49.9 68.9 L50.25 68.9" fill="#47a6fa" fill-rule="evenodd" stroke="none"/>
      <path d="M51.25 75.05 L51.2 73.0 51.2 72.6 Q51.2 71.05 51.8 69.65 L51.8 69.55 55.65 69.05 64.1 66.8 65.65 70.25 Q65.65 70.85 63.15 72.5 62.35 73.0 61.65 73.45 L59.0 74.15 51.25 75.05" fill="#2159bd" fill-rule="evenodd" stroke="none"/>
      <path d="M51.35 76.55 L51.25 75.05 59.0 74.15 61.65 73.45 Q62.35 73.0 63.15 72.5 65.65 70.85 65.65 70.25 L64.1 66.8 63.5 65.8 60.45 61.4 Q61.25 60.8 61.4 60.8 L69.6 71.65 61.75 74.4 Q55.8 76.1 51.6 76.6 L51.35 76.55 M21.15 56.75 L21.05 56.0 21.35 56.4 Q22.0 57.35 22.0 58.2 22.0 60.8 21.25 65.7 L21.05 66.65 19.6 65.8 19.6 65.6 19.25 64.3 19.25 64.25 19.45 64.5 20.15 65.35 20.3 65.1 Q20.3 64.25 20.55 63.8 L20.55 59.5 Q21.15 58.45 21.15 56.75 M7.85 49.1 L13.15 55.4 16.85 59.4 18.0 60.6 18.4 61.05 18.4 61.75 16.95 61.5 15.55 61.05 Q13.25 60.3 12.15 58.45 10.65 56.05 7.85 49.1 M18.4 62.1 L18.5 62.75 18.75 63.05 18.85 63.45 18.85 65.25 18.75 65.25 17.8 64.65 17.55 64.4 15.85 62.35 15.4 61.65 17.55 61.65 Q17.45 62.1 18.4 62.1" fill="#3b77e0" fill-rule="evenodd" stroke="none"/>
      <path d="M37.1 36.5 L39.55 38.85 Q42.4 41.7 43.0 41.7 43.6 41.7 43.85 41.25 L43.8 41.6 43.95 43.95 Q42.9 43.7 40.7 41.35 38.95 39.45 37.35 36.9 L37.15 36.6 37.1 36.55 37.1 36.5" fill="#7ae9e9" fill-rule="evenodd" stroke="none"/>
      <path d="M4.45 22.85 L5.4 23.3 5.95 23.65 8.0 24.0 9.3 25.55 11.0 27.85 16.0 36.65 16.0 36.7 15.55 36.45 11.7 30.25 Q7.5 24.4 4.15 23.1 L4.15 22.95 4.45 22.85" fill="#81cee2" fill-rule="evenodd" stroke="none"/>
      <path d="M21.05 56.0 L21.15 56.75 20.9 57.2 Q20.15 58.55 19.6 58.9 20.15 58.2 20.15 57.7 20.15 56.15 11.7 51.6 L11.7 51.95 6.9 46.35 Q15.05 51.15 17.3 52.7 19.85 54.5 21.05 56.0" fill="#a6ffff" fill-rule="evenodd" stroke="none"/>
      <path d="M6.95 17.1 L6.45 20.3 5.75 20.55 Q3.45 20.55 2.25 19.15 L2.15 18.65 3.55 9.7 5.85 14.8 6.95 17.1 M6.9 46.35 L11.7 51.95 18.9 59.1 19.2 59.1 19.25 59.1 19.6 58.9 Q20.15 58.55 20.9 57.2 L21.15 56.75 Q21.15 58.45 20.55 59.5 L19.8 60.35 19.35 60.7 Q19.2 61.25 19.2 61.9 L19.2 62.0 19.25 64.25 19.25 64.3 19.6 65.6 19.6 65.8 19.1 65.45 18.85 65.25 18.85 63.45 18.75 63.05 18.5 62.75 18.4 62.1 18.4 61.75 18.4 61.05 18.0 60.6 16.85 59.4 13.15 55.4 7.85 49.1 6.6 47.65 5.95 45.85 6.6 46.15 6.9 46.35" fill="#ccffff" fill-rule="evenodd" stroke="none"/>
      <path d="M11.7 51.95 L11.7 51.6 Q20.15 56.15 20.15 57.7 20.15 58.2 19.6 58.9 L19.25 59.1 19.2 59.1 18.9 59.1 11.7 51.95" fill="#77f0f0" fill-rule="evenodd" stroke="none"/>
      <path d="M18.4 61.75 L18.4 62.1 Q17.45 62.1 17.55 61.65 L15.4 61.65 15.85 62.35 17.55 64.4 17.8 64.65 15.15 62.85 11.25 59.6 10.65 58.15 6.6 47.65 7.85 49.1 Q10.65 56.05 12.15 58.45 13.25 60.3 15.55 61.05 L16.95 61.5 18.4 61.75" fill="#70a4ff" fill-rule="evenodd" stroke="none"/>
      <path d="M20.55 59.5 L20.55 63.8 Q20.3 64.25 20.3 65.1 L20.15 65.35 19.45 64.5 19.25 64.25 19.2 62.0 19.2 61.9 Q19.2 61.25 19.35 60.7 L19.8 60.35 20.55 59.5" fill="#1f468a" fill-rule="evenodd" stroke="none"/>
      <path d="M47.55 53.3 L46.0 54.75 41.2 56.5 Q37.65 57.8 36.8 58.4 L31.65 56.0 45.35 53.4 45.95 53.25 46.2 53.15 46.8 53.3 47.55 53.3" fill="#a6f2ff" fill-rule="evenodd" stroke="none"/>
      <path d="M46.2 53.15 L45.95 53.25 45.35 53.4 Q45.6 53.05 45.95 53.15 L46.2 53.15 M45.95 53.25 L45.95 53.15 45.95 53.25" fill="#333333" fill-rule="evenodd" stroke="none"/>
      <path d="M39.5 61.3 L39.5 61.4 Q39.2 61.5 39.05 61.65 L38.95 61.65 Q38.8 61.15 38.35 60.95 L38.2 60.9 32.35 56.85 31.2 56.05 31.65 56.0 36.8 58.4 37.5 58.75 37.65 58.75 38.7 59.0 39.75 59.1 41.05 59.1 41.55 59.1 45.25 59.0 47.2 59.0 48.4 59.0 48.95 59.0 48.15 59.15 47.5 59.25 46.6 59.4 45.15 59.7 40.15 60.35 39.15 60.6 39.5 61.3" fill="#e2ffff" fill-rule="evenodd" stroke="none"/>
      <path d="M31.9 58.8 Q32.15 57.85 32.25 57.85 32.75 57.85 35.35 60.2 L37.75 62.5 37.4 64.25 37.25 64.6 36.4 65.95 34.9 63.65 31.9 58.8" fill="#45c2ec" fill-rule="evenodd" stroke="none"/>
      <path d="M30.45 63.05 L31.9 58.8 34.9 63.65 31.75 63.05 30.45 63.05" fill="#5fd6ff" fill-rule="evenodd" stroke="none"/>
      <path d="M29.85 64.9 L30.45 63.05 31.75 63.05 34.9 63.65 36.4 65.95 37.25 64.6 37.05 65.0 35.95 67.0 35.5 67.7 34.05 69.85 Q31.8 67.6 29.95 65.1 L29.85 64.9 M35.0 70.25 L35.2 70.0 36.2 68.3 36.75 67.7 36.75 67.85 40.15 69.9 Q44.05 71.55 50.05 72.85 L50.15 75.05 50.15 75.95 50.15 76.0 47.4 74.9 45.85 74.3 Q38.2 71.2 35.0 70.25" fill="#87e0ff" fill-rule="evenodd" stroke="none"/>
      <path d="M5.1 0.25 Q5.1 1.9 5.6 3.95 L7.15 8.75 Q7.25 13.6 6.95 17.1 L5.85 14.8 3.55 9.7 2.15 18.65 2.25 19.15 Q1.65 18.5 1.3 17.55 L0.15 13.5 Q0.5 11.35 1.55 7.9 2.95 2.55 4.8 0.0 L5.1 0.25" fill="#e5ffff" fill-rule="evenodd" stroke="none"/>
      <path d="M5.25 0.35 L5.1 0.25 4.8 0.0 Q2.95 2.55 1.55 7.9 0.5 11.35 0.15 13.5 -0.15 15.65 0.1 16.65 L0.15 17.0 Q0.7 18.75 1.8 20.8 3.95 25.0 8.45 30.5 13.4 36.7 17.65 40.4 L17.8 40.35 17.9 40.0 18.0 39.45 18.4 37.55 Q19.2 33.9 19.6 28.45 L19.45 23.1 19.2 20.8 19.0 19.75 18.15 11.6 Q12.55 4.45 5.25 0.35 M73.7 53.05 L73.7 52.9 73.8 52.35 73.9 52.1 73.95 51.6 74.4 49.25 74.75 47.4 74.65 47.2 74.4 46.7 Q71.2 39.7 66.4 30.8 L63.15 24.75 61.85 22.45 61.05 22.1 60.4 21.75 Q53.85 18.55 44.45 15.45 L40.85 14.45 32.7 11.85 32.35 11.7 32.35 12.3 32.35 21.85 32.95 29.05 33.05 30.1 33.05 30.45 33.8 31.65 36.8 36.1 36.9 36.3 37.0 36.3 37.1 36.5 37.1 36.55 37.15 36.6 37.35 36.9 38.0 38.0 42.75 44.95 44.2 47.05 45.35 48.65 45.35 48.55 45.35 48.25 M31.2 56.05 L29.5 64.5 29.85 64.9 29.95 65.1 Q31.8 67.6 34.05 69.85 34.25 69.9 34.4 70.1 L35.0 70.25 Q38.2 71.2 45.85 74.3 L47.4 74.9 50.15 76.0 51.35 76.55 51.6 76.6 Q55.8 76.1 61.75 74.4 L69.6 71.65 69.65 71.45 Q71.9 62.35 73.55 53.75 L73.7 53.05 M21.05 56.0 Q19.85 54.5 17.3 52.7 15.05 51.15 6.9 46.35 L6.6 46.15 5.95 45.85 6.6 47.65 10.65 58.15 11.25 59.6 15.15 62.85 17.8 64.65 18.75 65.25 18.85 65.25 M19.6 65.8 L21.05 66.65 21.25 65.7 Q22.0 60.8 22.0 58.2 22.0 57.35 21.35 56.4 L21.05 56.0 M19.1 65.45 L19.6 65.8 M45.95 53.15 L45.4 49.1 45.35 48.65 M46.2 53.15 L45.95 53.25 45.35 53.4 31.65 56.0 31.2 56.05 M46.2 53.15 L45.95 53.15 45.95 53.25 M45.35 53.4 Q45.6 53.05 45.95 53.15" fill="none" stroke="#0c5698" stroke-linecap="round" stroke-linejoin="round" stroke-width="0.5"/>
    </g>
  </defs>
</svg>
