<?xml version="1.0" encoding="UTF-8" standalone="no"?>
<svg xmlns:ffdec="https://www.free-decompiler.com/flash" xmlns:xlink="http://www.w3.org/1999/xlink" ffdec:objectType="frame" height="30.1px" width="30.0px" xmlns="http://www.w3.org/2000/svg">
  <g transform="matrix(1.0, 0.0, 0.0, 1.0, 0.0, 0.0)">
    <use ffdec:characterId="1" height="30.0" transform="matrix(1.0, 0.0, 0.0, 1.0, 0.0, 0.0)" width="30.0" xlink:href="#shape0"/>
    <use ffdec:characterId="7" height="30.0" transform="matrix(1.0, 0.0, 0.0, 1.0, 0.0, 0.1)" width="30.0" xlink:href="#sprite0"/>
  </g>
  <defs>
    <g id="shape0" transform="matrix(1.0, 0.0, 0.0, 1.0, 0.0, 0.0)">
      <path d="M0.0 0.0 L30.0 0.0 30.0 30.0 0.0 30.0 0.0 0.0" fill="#33cc66" fill-opacity="0.0" fill-rule="evenodd" stroke="none"/>
    </g>
    <g id="sprite0" transform="matrix(1.0, 0.0, 0.0, 1.0, 0.0, 0.0)">
      <use ffdec:characterId="2" height="30.0" transform="matrix(1.0, 0.0, 0.0, 1.0, 0.0, 0.0)" width="30.0" xlink:href="#shape1"/>
      <use ffdec:characterId="6" height="21.55" transform="matrix(1.0, 0.0, 0.0, 1.0, 4.5, 5.0)" width="21.5" xlink:href="#sprite1"/>
    </g>
    <g id="shape1" transform="matrix(1.0, 0.0, 0.0, 1.0, 0.0, 0.0)">
      <path d="M27.95 0.15 Q30.0 0.7 30.0 3.3 L30.0 26.7 29.8 28.15 Q29.15 30.0 26.7 30.0 L3.3 30.0 2.4 29.95 Q0.7 29.65 0.2 28.15 L0.0 26.7 0.0 3.3 Q0.0 0.7 2.05 0.15 L2.4 0.1 3.3 0.0 26.7 0.0 27.95 0.15" fill="#cccccc" fill-rule="evenodd" stroke="none"/>
    </g>
    <g id="sprite1" transform="matrix(1.0, 0.0, 0.0, 1.0, -5.65, -22.4)">
      <use ffdec:characterId="3" height="21.55" transform="matrix(1.0, 0.0, 0.0, 1.0, 5.65, 22.4)" width="21.5" xlink:href="#shape2"/>
      <filter id="filter0">
        <feColorMatrix in="SourceGraphic" result="filterResult0" type="matrix" values="0.81068075 0.9424621 -0.75314283 0.0 0.0 -0.021143682 0.74730027 0.2738434 0.0 0.0 0.76754105 -0.27024665 0.5027056 0.0 0.0 0.0 0.0 0.0 1.0 0.0"/>
      </filter>
      <use ffdec:characterId="5" filter="url(#filter0)" height="19.05" transform="matrix(1.0, 0.0, 0.0, 1.0, 6.9, 23.65)" width="19.0" xlink:href="#sprite2"/>
    </g>
    <g id="shape2" transform="matrix(1.0, 0.0, 0.0, 1.0, -5.65, -22.4)">
      <path d="M12.65 25.15 L13.25 23.95 14.2 28.2 14.15 28.15 12.65 25.15" fill="#ffe2ff" fill-rule="evenodd" stroke="none"/>
      <path d="M13.25 23.95 L13.25 23.9 16.85 25.65 17.05 25.6 16.85 25.8 14.25 28.2 14.2 28.2 13.25 23.95" fill="#651ccb" fill-rule="evenodd" stroke="none"/>
      <path d="M20.5 24.35 L20.55 24.35 20.6 24.4 20.85 31.3 20.15 24.65 20.45 24.4 20.5 24.35" fill="#e59bff" fill-rule="evenodd" stroke="none"/>
      <path d="M20.5 24.35 L20.45 24.4 20.15 24.65 16.25 27.3 16.85 25.8 17.05 25.6 20.5 24.35" fill="#f7eaff" fill-rule="evenodd" stroke="none"/>
      <path d="M25.65 30.0 L25.65 30.05 23.9 33.55 21.25 32.25 20.95 31.85 20.9 31.8 20.9 31.7 21.2 31.6 25.65 30.0" fill="#2b1367" fill-rule="evenodd" stroke="none"/>
      <path d="M21.85 27.9 L21.95 28.2 24.55 29.45 21.2 31.6 20.9 31.7 20.9 31.65 21.85 27.9" fill="#541db9" fill-rule="evenodd" stroke="none"/>
      <path d="M24.55 29.45 L25.65 30.0 21.2 31.6 24.55 29.45" fill="#b28bff" fill-rule="evenodd" stroke="none"/>
      <path d="M20.85 31.3 L20.6 24.4 21.85 27.9 20.9 31.65 20.9 31.7 20.85 31.3" fill="#4914ac" fill-rule="evenodd" stroke="none"/>
      <path d="M25.2 37.25 L25.25 37.35 21.4 38.75 21.35 38.75 18.5 38.4 18.45 38.4 18.45 38.45 17.95 36.75 25.2 37.25" fill="#4a17a4" fill-rule="evenodd" stroke="none"/>
      <path d="M16.85 25.8 L16.25 27.3 14.4 28.6 14.25 28.4 14.35 28.65 13.95 28.9 13.5 29.2 11.65 27.6 14.15 28.15 14.2 28.2 14.25 28.2 16.85 25.8" fill="#b678e7" fill-rule="evenodd" stroke="none"/>
      <path d="M7.6 29.05 L7.55 29.0 7.6 29.0 11.45 27.6 11.45 27.55 11.65 27.6 13.5 29.2 13.95 28.9 12.0 30.25 11.65 30.55 9.7 28.95 8.7 29.2 11.4 30.5 7.6 29.05" fill="#e4e0f9" fill-rule="evenodd" stroke="none"/>
      <path d="M11.45 27.55 L12.65 25.15 14.15 28.15 11.65 27.6 11.45 27.55" fill="#e333f8" fill-rule="evenodd" stroke="none"/>
      <path d="M11.65 30.55 L11.6 30.6 11.55 30.55 11.4 30.5 8.7 29.2 9.7 28.95 11.65 30.55" fill="#9132d4" fill-rule="evenodd" stroke="none"/>
      <path d="M12.2 41.9 L10.95 38.4 10.95 36.85 11.0 35.15 8.9 32.8 8.9 32.75 7.65 29.3 11.75 34.65 12.35 41.75 12.2 41.9" fill="#8a1bf3" fill-rule="evenodd" stroke="none"/>
      <path d="M8.55 33.45 L8.9 32.8 11.0 35.15 10.95 36.85 10.9 37.0 9.9 36.8 8.2 35.75 8.55 33.45" fill="#c332ff" fill-rule="evenodd" stroke="none"/>
      <path d="M10.95 38.4 L10.85 38.15 7.15 36.3 7.2 36.25 9.9 36.8 10.9 37.0 10.95 36.85 10.95 38.4" fill="#400988" fill-rule="evenodd" stroke="none"/>
      <path d="M7.2 36.25 L8.55 33.45 8.2 35.75 9.9 36.8 7.2 36.25" fill="#e8bdff" fill-rule="evenodd" stroke="none"/>
      <path d="M16.0 40.7 L15.95 40.65 12.25 42.0 12.2 42.0 12.2 41.9 12.35 41.75 17.95 36.75 18.45 38.45 16.0 40.7" fill="#45049c" fill-rule="evenodd" stroke="none"/>
      <path d="M19.55 42.45 L16.0 40.7 18.45 38.45 18.45 38.4 18.5 38.4 19.55 42.45" fill="#8c1aec" fill-rule="evenodd" stroke="none"/>
      <path d="M21.35 38.75 L19.55 42.45 18.5 38.4 21.35 38.75" fill="#2e106a" fill-rule="evenodd" stroke="none"/>
      <path d="M20.15 24.65 L20.85 31.3 20.9 31.7 20.85 31.7 20.85 31.8 20.9 31.8 20.95 31.85 21.25 32.25 23.9 33.55 23.9 33.6 25.2 37.25 17.95 36.75 12.35 41.75 11.75 34.65 7.65 29.3 7.6 29.05 11.4 30.5 11.55 30.55 11.6 30.6 11.65 30.55 12.0 30.25 13.95 28.9 14.35 28.65 14.25 28.4 14.4 28.6 16.25 27.3 20.15 24.65" fill="url(#gradient0)" fill-rule="evenodd" stroke="none"/>
      <path d="M20.6 24.4 L20.55 24.35 20.5 24.35 17.05 25.6 16.85 25.65 13.25 23.9 13.25 23.95 12.65 25.15 11.45 27.55 11.45 27.6 7.6 29.0 7.55 29.0 7.6 29.05 7.65 29.3 8.9 32.75 8.9 32.8 8.55 33.45 7.2 36.25 7.15 36.3 10.85 38.15 10.95 38.4 12.2 41.9 12.2 42.0 12.25 42.0 15.95 40.65 16.0 40.7 19.55 42.45 21.35 38.75 21.4 38.75 25.25 37.35 25.2 37.25 23.9 33.6 23.9 33.55 25.65 30.05 25.65 30.0 24.55 29.45 21.95 28.2 21.85 27.9 20.6 24.4 Z" fill="none" stroke="#ffffff" stroke-linecap="round" stroke-linejoin="round" stroke-width="3.0"/>
    </g>
    <radialGradient cx="0" cy="0" gradientTransform="matrix(0.0099, 0.0, 0.0, 0.0099, 16.4, 33.2)" gradientUnits="userSpaceOnUse" id="gradient0" r="819.2" spreadMethod="pad">
      <stop offset="0.0" stop-color="#c763f5"/>
      <stop offset="1.0" stop-color="#8b1fef"/>
    </radialGradient>
    <g id="sprite2" transform="matrix(1.0, 0.0, 0.0, 1.0, 0.25, 0.25)">
      <use ffdec:characterId="4" height="19.05" transform="matrix(1.0, 0.0, 0.0, 1.0, -0.25, -0.25)" width="19.0" xlink:href="#shape3"/>
    </g>
    <g id="shape3" transform="matrix(1.0, 0.0, 0.0, 1.0, 0.25, 0.25)">
      <path d="M13.35 0.45 L13.4 0.45 13.45 0.5 13.7 7.4 13.0 0.75 13.3 0.5 13.35 0.45" fill="#e59bff" fill-rule="evenodd" stroke="none"/>
      <path d="M13.35 0.45 L13.3 0.5 13.0 0.75 9.1 3.4 9.7 1.9 9.9 1.7 13.35 0.45" fill="#f7eaff" fill-rule="evenodd" stroke="none"/>
      <path d="M6.1 0.05 L6.1 0.0 9.7 1.75 9.9 1.7 9.7 1.9 7.1 4.3 7.05 4.3 6.1 0.05" fill="#651ccb" fill-rule="evenodd" stroke="none"/>
      <path d="M9.7 1.9 L9.1 3.4 7.25 4.7 7.1 4.5 7.2 4.75 6.8 5.0 6.35 5.3 4.5 3.7 7.0 4.25 7.05 4.3 7.1 4.3 9.7 1.9" fill="#b678e7" fill-rule="evenodd" stroke="none"/>
      <path d="M4.3 3.65 L5.5 1.25 7.0 4.25 4.5 3.7 4.3 3.65" fill="#e333f8" fill-rule="evenodd" stroke="none"/>
      <path d="M0.45 5.15 L0.4 5.1 0.45 5.1 4.3 3.7 4.3 3.65 4.5 3.7 6.35 5.3 6.8 5.0 4.85 6.35 4.5 6.65 2.55 5.05 1.55 5.3 4.25 6.6 0.45 5.15" fill="#e4e0f9" fill-rule="evenodd" stroke="none"/>
      <path d="M13.0 0.75 L13.7 7.4 13.75 7.8 13.7 7.8 13.7 7.9 13.75 7.9 13.8 7.95 14.1 8.35 16.75 9.65 16.75 9.7 18.05 13.35 10.8 12.85 5.2 17.85 4.6 10.75 0.5 5.4 0.45 5.15 4.25 6.6 4.4 6.65 4.45 6.7 4.5 6.65 4.85 6.35 6.8 5.0 7.2 4.75 7.1 4.5 7.25 4.7 9.1 3.4 13.0 0.75" fill="url(#gradient1)" fill-rule="evenodd" stroke="none"/>
      <path d="M4.5 6.65 L4.45 6.7 4.4 6.65 4.25 6.6 1.55 5.3 2.55 5.05 4.5 6.65" fill="#9132d4" fill-rule="evenodd" stroke="none"/>
      <path d="M5.5 1.25 L6.1 0.05 7.05 4.3 7.0 4.25 5.5 1.25" fill="#ffe2ff" fill-rule="evenodd" stroke="none"/>
      <path d="M1.4 9.55 L1.75 8.9 3.85 11.25 3.8 12.95 3.75 13.1 2.75 12.9 1.05 11.85 1.4 9.55" fill="#c332ff" fill-rule="evenodd" stroke="none"/>
      <path d="M3.8 14.5 L3.7 14.25 0.0 12.4 0.05 12.35 2.75 12.9 3.75 13.1 3.8 12.95 3.8 14.5" fill="#400988" fill-rule="evenodd" stroke="none"/>
      <path d="M5.05 18.0 L3.8 14.5 3.8 12.95 3.85 11.25 1.75 8.9 1.75 8.85 0.5 5.4 4.6 10.75 5.2 17.85 5.05 18.0" fill="#8a1bf3" fill-rule="evenodd" stroke="none"/>
      <path d="M0.05 12.35 L1.4 9.55 1.05 11.85 2.75 12.9 0.05 12.35" fill="#e8bdff" fill-rule="evenodd" stroke="none"/>
      <path d="M18.05 13.35 L18.1 13.45 14.25 14.85 14.2 14.85 11.35 14.5 11.3 14.5 11.3 14.55 10.8 12.85 18.05 13.35" fill="#4a17a4" fill-rule="evenodd" stroke="none"/>
      <path d="M12.4 18.55 L8.85 16.8 11.3 14.55 11.3 14.5 11.35 14.5 12.4 18.55" fill="#8c1aec" fill-rule="evenodd" stroke="none"/>
      <path d="M8.85 16.8 L8.8 16.75 5.1 18.1 5.05 18.1 5.05 18.0 5.2 17.85 10.8 12.85 11.3 14.55 8.85 16.8" fill="#45049c" fill-rule="evenodd" stroke="none"/>
      <path d="M14.2 14.85 L12.4 18.55 11.35 14.5 14.2 14.85" fill="#2e106a" fill-rule="evenodd" stroke="none"/>
      <path d="M18.5 6.1 L18.5 6.15 16.75 9.65 14.1 8.35 13.8 7.95 13.75 7.9 13.75 7.8 14.05 7.7 18.5 6.1" fill="#2b1367" fill-rule="evenodd" stroke="none"/>
      <path d="M14.7 4.0 L14.8 4.3 17.4 5.55 14.05 7.7 13.75 7.8 13.75 7.75 14.7 4.0" fill="#541db9" fill-rule="evenodd" stroke="none"/>
      <path d="M13.7 7.4 L13.45 0.5 14.7 4.0 13.75 7.75 13.75 7.8 13.7 7.4" fill="#4914ac" fill-rule="evenodd" stroke="none"/>
      <path d="M17.4 5.55 L18.5 6.1 14.05 7.7 17.4 5.55" fill="#b28bff" fill-rule="evenodd" stroke="none"/>
      <path d="M13.45 0.5 L13.4 0.45 13.35 0.45 9.9 1.7 9.7 1.75 6.1 0.0 6.1 0.05 5.5 1.25 4.3 3.65 4.3 3.7 0.45 5.1 0.4 5.1 0.45 5.15 0.5 5.4 1.75 8.85 1.75 8.9 1.4 9.55 0.05 12.35 0.0 12.4 3.7 14.25 3.8 14.5 5.05 18.0 5.05 18.1 5.1 18.1 8.8 16.75 8.85 16.8 12.4 18.55 14.2 14.85 14.25 14.85 18.1 13.45 18.05 13.35 16.75 9.7 16.75 9.65 18.5 6.15 18.5 6.1 17.4 5.55 14.8 4.3 14.7 4.0 13.45 0.5 Z" fill="none" stroke="#000000" stroke-linecap="round" stroke-linejoin="round" stroke-width="0.5"/>
      <path d="M7.1 10.65 L5.6 10.3 6.5 8.95 3.5 6.6 7.75 7.3 8.45 6.35 9.9 7.2 12.0 4.4 11.65 8.0 12.75 8.0 12.05 9.25 14.05 10.8 10.75 10.45 10.7 12.1 9.1 11.15 7.3 13.85 7.1 10.65" fill="#6e0ea5" fill-rule="evenodd" stroke="none"/>
      <path d="M7.1 10.65 L7.3 13.85 9.1 11.15 10.7 12.1 10.75 10.45 14.05 10.8 12.05 9.25 12.75 8.0 11.65 8.0 12.0 4.4 9.9 7.2 8.45 6.35 7.75 7.3 3.5 6.6 6.5 8.95 5.6 10.3 7.1 10.65 Z" fill="none" stroke="#cc6bf9" stroke-linecap="round" stroke-linejoin="round" stroke-width="0.5"/>
    </g>
    <radialGradient cx="0" cy="0" gradientTransform="matrix(0.0099, 0.0, 0.0, 0.0099, 9.25, 9.3)" gradientUnits="userSpaceOnUse" id="gradient1" r="819.2" spreadMethod="pad">
      <stop offset="0.0" stop-color="#c763f5"/>
      <stop offset="1.0" stop-color="#8b1fef"/>
    </radialGradient>
  </defs>
</svg>
