<?xml version="1.0" encoding="UTF-8" standalone="no"?>
<svg xmlns:ffdec="https://www.free-decompiler.com/flash" xmlns:xlink="http://www.w3.org/1999/xlink" ffdec:objectType="frame" height="30.1px" width="30.0px" xmlns="http://www.w3.org/2000/svg">
  <g transform="matrix(1.0, 0.0, 0.0, 1.0, 0.0, 0.0)">
    <use ffdec:characterId="1" height="30.0" transform="matrix(1.0, 0.0, 0.0, 1.0, 0.0, 0.0)" width="30.0" xlink:href="#shape0"/>
    <use ffdec:characterId="5" height="30.0" transform="matrix(1.0, 0.0, 0.0, 1.0, 0.0, 0.1)" width="30.0" xlink:href="#sprite0"/>
  </g>
  <defs>
    <g id="shape0" transform="matrix(1.0, 0.0, 0.0, 1.0, 0.0, 0.0)">
      <path d="M0.0 0.0 L30.0 0.0 30.0 30.0 0.0 30.0 0.0 0.0" fill="#33cc66" fill-opacity="0.0" fill-rule="evenodd" stroke="none"/>
    </g>
    <g id="sprite0" transform="matrix(1.0, 0.0, 0.0, 1.0, 0.0, 0.0)">
      <use ffdec:characterId="2" height="30.0" transform="matrix(1.0, 0.0, 0.0, 1.0, 0.0, 0.0)" width="30.0" xlink:href="#shape1"/>
      <use ffdec:characterId="4" height="21.55" transform="matrix(1.0, 0.0, 0.0, 1.0, 4.5, 5.0)" width="21.5" xlink:href="#sprite1"/>
    </g>
    <g id="shape1" transform="matrix(1.0, 0.0, 0.0, 1.0, 0.0, 0.0)">
      <path d="M27.95 0.15 Q30.0 0.7 30.0 3.3 L30.0 26.7 29.8 28.15 Q29.15 30.0 26.7 30.0 L3.3 30.0 2.4 29.95 Q0.7 29.65 0.2 28.15 L0.0 26.7 0.0 3.3 Q0.0 0.7 2.05 0.15 L2.4 0.1 3.3 0.0 26.7 0.0 27.95 0.15" fill="#cccccc" fill-rule="evenodd" stroke="none"/>
    </g>
    <g id="sprite1" transform="matrix(1.0, 0.0, 0.0, 1.0, -5.65, -22.4)">
      <use ffdec:characterId="3" height="21.55" transform="matrix(1.0, 0.0, 0.0, 1.0, 5.65, 22.4)" width="21.5" xlink:href="#shape2"/>
    </g>
    <g id="shape2" transform="matrix(1.0, 0.0, 0.0, 1.0, -5.65, -22.4)">
      <path d="M12.65 25.15 L13.25 23.95 14.2 28.2 14.15 28.15 12.65 25.15" fill="#ffe2ff" fill-rule="evenodd" stroke="none"/>
      <path d="M13.25 23.95 L13.25 23.9 16.85 25.65 17.05 25.6 16.85 25.8 14.25 28.2 14.2 28.2 13.25 23.95" fill="#651ccb" fill-rule="evenodd" stroke="none"/>
      <path d="M20.5 24.35 L20.55 24.35 20.6 24.4 20.85 31.3 20.15 24.65 20.45 24.4 20.5 24.35" fill="#e59bff" fill-rule="evenodd" stroke="none"/>
      <path d="M20.5 24.35 L20.45 24.4 20.15 24.65 16.25 27.3 16.85 25.8 17.05 25.6 20.5 24.35" fill="#f7eaff" fill-rule="evenodd" stroke="none"/>
      <path d="M25.65 30.0 L25.65 30.05 23.9 33.55 21.25 32.25 20.95 31.85 20.9 31.8 20.9 31.7 21.2 31.6 25.65 30.0" fill="#2b1367" fill-rule="evenodd" stroke="none"/>
      <path d="M21.85 27.9 L21.95 28.2 24.55 29.45 21.2 31.6 20.9 31.7 20.9 31.65 21.85 27.9" fill="#541db9" fill-rule="evenodd" stroke="none"/>
      <path d="M24.55 29.45 L25.65 30.0 21.2 31.6 24.55 29.45" fill="#b28bff" fill-rule="evenodd" stroke="none"/>
      <path d="M20.85 31.3 L20.6 24.4 21.85 27.9 20.9 31.65 20.9 31.7 20.85 31.3" fill="#4914ac" fill-rule="evenodd" stroke="none"/>
      <path d="M25.2 37.25 L25.25 37.35 21.4 38.75 21.35 38.75 18.5 38.4 18.45 38.4 18.45 38.45 17.95 36.75 25.2 37.25" fill="#4a17a4" fill-rule="evenodd" stroke="none"/>
      <path d="M16.85 25.8 L16.25 27.3 14.4 28.6 14.25 28.4 14.35 28.65 13.95 28.9 13.5 29.2 11.65 27.6 14.15 28.15 14.2 28.2 14.25 28.2 16.85 25.8" fill="#b678e7" fill-rule="evenodd" stroke="none"/>
      <path d="M7.6 29.05 L7.55 29.0 7.6 29.0 11.45 27.6 11.45 27.55 11.65 27.6 13.5 29.2 13.95 28.9 12.0 30.25 11.65 30.55 9.7 28.95 8.7 29.2 11.4 30.5 7.6 29.05" fill="#e4e0f9" fill-rule="evenodd" stroke="none"/>
      <path d="M11.45 27.55 L12.65 25.15 14.15 28.15 11.65 27.6 11.45 27.55" fill="#e333f8" fill-rule="evenodd" stroke="none"/>
      <path d="M11.65 30.55 L11.6 30.6 11.55 30.55 11.4 30.5 8.7 29.2 9.7 28.95 11.65 30.55" fill="#9132d4" fill-rule="evenodd" stroke="none"/>
      <path d="M12.2 41.9 L10.95 38.4 10.95 36.85 11.0 35.15 8.9 32.8 8.9 32.75 7.65 29.3 11.75 34.65 12.35 41.75 12.2 41.9" fill="#8a1bf3" fill-rule="evenodd" stroke="none"/>
      <path d="M8.55 33.45 L8.9 32.8 11.0 35.15 10.95 36.85 10.9 37.0 9.9 36.8 8.2 35.75 8.55 33.45" fill="#c332ff" fill-rule="evenodd" stroke="none"/>
      <path d="M10.95 38.4 L10.85 38.15 7.15 36.3 7.2 36.25 9.9 36.8 10.9 37.0 10.95 36.85 10.95 38.4" fill="#400988" fill-rule="evenodd" stroke="none"/>
      <path d="M7.2 36.25 L8.55 33.45 8.2 35.75 9.9 36.8 7.2 36.25" fill="#e8bdff" fill-rule="evenodd" stroke="none"/>
      <path d="M16.0 40.7 L15.95 40.65 12.25 42.0 12.2 42.0 12.2 41.9 12.35 41.75 17.95 36.75 18.45 38.45 16.0 40.7" fill="#45049c" fill-rule="evenodd" stroke="none"/>
      <path d="M19.55 42.45 L16.0 40.7 18.45 38.45 18.45 38.4 18.5 38.4 19.55 42.45" fill="#8c1aec" fill-rule="evenodd" stroke="none"/>
      <path d="M21.35 38.75 L19.55 42.45 18.5 38.4 21.35 38.75" fill="#2e106a" fill-rule="evenodd" stroke="none"/>
      <path d="M20.15 24.65 L20.85 31.3 20.9 31.7 20.85 31.7 20.85 31.8 20.9 31.8 20.95 31.85 21.25 32.25 23.9 33.55 23.9 33.6 25.2 37.25 17.95 36.75 12.35 41.75 11.75 34.65 7.65 29.3 7.6 29.05 11.4 30.5 11.55 30.55 11.6 30.6 11.65 30.55 12.0 30.25 13.95 28.9 14.35 28.65 14.25 28.4 14.4 28.6 16.25 27.3 20.15 24.65" fill="url(#gradient0)" fill-rule="evenodd" stroke="none"/>
      <path d="M20.6 24.4 L20.55 24.35 20.5 24.35 17.05 25.6 16.85 25.65 13.25 23.9 13.25 23.95 12.65 25.15 11.45 27.55 11.45 27.6 7.6 29.0 7.55 29.0 7.6 29.05 7.65 29.3 8.9 32.75 8.9 32.8 8.55 33.45 7.2 36.25 7.15 36.3 10.85 38.15 10.95 38.4 12.2 41.9 12.2 42.0 12.25 42.0 15.95 40.65 16.0 40.7 19.55 42.45 21.35 38.75 21.4 38.75 25.25 37.35 25.2 37.25 23.9 33.6 23.9 33.55 25.65 30.05 25.65 30.0 24.55 29.45 21.95 28.2 21.85 27.9 20.6 24.4 Z" fill="none" stroke="#ffffff" stroke-linecap="round" stroke-linejoin="round" stroke-width="3.0"/>
      <path d="M20.5 24.35 L20.55 24.35 20.6 24.4 20.85 31.3 20.15 24.65 20.45 24.4 20.5 24.35" fill="#e59bff" fill-rule="evenodd" stroke="none"/>
      <path d="M20.5 24.35 L20.45 24.4 20.15 24.65 16.25 27.3 16.85 25.8 17.05 25.6 20.5 24.35" fill="#f7eaff" fill-rule="evenodd" stroke="none"/>
      <path d="M13.25 23.95 L13.25 23.9 16.85 25.65 17.05 25.6 16.85 25.8 14.25 28.2 14.2 28.2 13.25 23.95" fill="#651ccb" fill-rule="evenodd" stroke="none"/>
      <path d="M16.85 25.8 L16.25 27.3 14.4 28.6 14.25 28.4 14.35 28.65 13.95 28.9 13.5 29.2 11.65 27.6 14.15 28.15 14.2 28.2 14.25 28.2 16.85 25.8" fill="#b678e7" fill-rule="evenodd" stroke="none"/>
      <path d="M7.6 29.05 L7.55 29.0 7.6 29.0 11.45 27.6 11.45 27.55 11.65 27.6 13.5 29.2 13.95 28.9 12.0 30.25 11.65 30.55 9.7 28.95 8.7 29.2 11.4 30.5 7.6 29.05" fill="#e4e0f9" fill-rule="evenodd" stroke="none"/>
      <path d="M11.45 27.55 L12.65 25.15 14.15 28.15 11.65 27.6 11.45 27.55" fill="#e333f8" fill-rule="evenodd" stroke="none"/>
      <path d="M20.15 24.65 L20.85 31.3 20.9 31.7 20.85 31.7 20.85 31.8 20.9 31.8 20.95 31.85 21.25 32.25 23.9 33.55 23.9 33.6 25.2 37.25 17.95 36.75 12.35 41.75 11.75 34.65 7.65 29.3 7.6 29.05 11.4 30.5 11.55 30.55 11.6 30.6 11.65 30.55 12.0 30.25 13.95 28.9 14.35 28.65 14.25 28.4 14.4 28.6 16.25 27.3 20.15 24.65" fill="url(#gradient1)" fill-rule="evenodd" stroke="none"/>
      <path d="M11.65 30.55 L11.6 30.6 11.55 30.55 11.4 30.5 8.7 29.2 9.7 28.95 11.65 30.55" fill="#9132d4" fill-rule="evenodd" stroke="none"/>
      <path d="M12.65 25.15 L13.25 23.95 14.2 28.2 14.15 28.15 12.65 25.15" fill="#ffe2ff" fill-rule="evenodd" stroke="none"/>
      <path d="M8.55 33.45 L8.9 32.8 11.0 35.15 10.95 36.85 10.9 37.0 9.9 36.8 8.2 35.75 8.55 33.45" fill="#c332ff" fill-rule="evenodd" stroke="none"/>
      <path d="M10.95 38.4 L10.85 38.15 7.15 36.3 7.2 36.25 9.9 36.8 10.9 37.0 10.95 36.85 10.95 38.4" fill="#400988" fill-rule="evenodd" stroke="none"/>
      <path d="M12.2 41.9 L10.95 38.4 10.95 36.85 11.0 35.15 8.9 32.8 8.9 32.75 7.65 29.3 11.75 34.65 12.35 41.75 12.2 41.9" fill="#8a1bf3" fill-rule="evenodd" stroke="none"/>
      <path d="M7.2 36.25 L8.55 33.45 8.2 35.75 9.9 36.8 7.2 36.25" fill="#e8bdff" fill-rule="evenodd" stroke="none"/>
      <path d="M25.2 37.25 L25.25 37.35 21.4 38.75 21.35 38.75 18.5 38.4 18.45 38.4 18.45 38.45 17.95 36.75 25.2 37.25" fill="#4a17a4" fill-rule="evenodd" stroke="none"/>
      <path d="M19.55 42.45 L16.0 40.7 18.45 38.45 18.45 38.4 18.5 38.4 19.55 42.45" fill="#8c1aec" fill-rule="evenodd" stroke="none"/>
      <path d="M16.0 40.7 L15.95 40.65 12.25 42.0 12.2 42.0 12.2 41.9 12.35 41.75 17.95 36.75 18.45 38.45 16.0 40.7" fill="#45049c" fill-rule="evenodd" stroke="none"/>
      <path d="M21.35 38.75 L19.55 42.45 18.5 38.4 21.35 38.75" fill="#2e106a" fill-rule="evenodd" stroke="none"/>
      <path d="M25.65 30.0 L25.65 30.05 23.9 33.55 21.25 32.25 20.95 31.85 20.9 31.8 20.9 31.7 21.2 31.6 25.65 30.0" fill="#2b1367" fill-rule="evenodd" stroke="none"/>
      <path d="M21.85 27.9 L21.95 28.2 24.55 29.45 21.2 31.6 20.9 31.7 20.9 31.65 21.85 27.9" fill="#541db9" fill-rule="evenodd" stroke="none"/>
      <path d="M20.85 31.3 L20.6 24.4 21.85 27.9 20.9 31.65 20.9 31.7 20.85 31.3" fill="#4914ac" fill-rule="evenodd" stroke="none"/>
      <path d="M24.55 29.45 L25.65 30.0 21.2 31.6 24.55 29.45" fill="#b28bff" fill-rule="evenodd" stroke="none"/>
      <path d="M20.6 24.4 L20.55 24.35 20.5 24.35 17.05 25.6 16.85 25.65 13.25 23.9 13.25 23.95 12.65 25.15 11.45 27.55 11.45 27.6 7.6 29.0 7.55 29.0 7.6 29.05 7.65 29.3 8.9 32.75 8.9 32.8 8.55 33.45 7.2 36.25 7.15 36.3 10.85 38.15 10.95 38.4 12.2 41.9 12.2 42.0 12.25 42.0 15.95 40.65 16.0 40.7 19.55 42.45 21.35 38.75 21.4 38.75 25.25 37.35 25.2 37.25 23.9 33.6 23.9 33.55 25.65 30.05 25.65 30.0 24.55 29.45 21.95 28.2 21.85 27.9 20.6 24.4 Z" fill="none" stroke="#000000" stroke-linecap="round" stroke-linejoin="round" stroke-width="0.5"/>
      <path d="M14.25 34.55 L12.75 34.2 13.65 32.85 10.65 30.5 14.9 31.2 15.6 30.25 17.05 31.1 19.15 28.3 18.8 31.9 19.9 31.9 19.2 33.15 21.2 34.7 17.9 34.35 17.85 36.0 16.25 35.05 14.45 37.75 14.25 34.55" fill="#6e0ea5" fill-rule="evenodd" stroke="none"/>
      <path d="M14.25 34.55 L14.45 37.75 16.25 35.05 17.85 36.0 17.9 34.35 21.2 34.7 19.2 33.15 19.9 31.9 18.8 31.9 19.15 28.3 17.05 31.1 15.6 30.25 14.9 31.2 10.65 30.5 13.65 32.85 12.75 34.2 14.25 34.55 Z" fill="none" stroke="#cc6bf9" stroke-linecap="round" stroke-linejoin="round" stroke-width="0.5"/>
    </g>
    <radialGradient cx="0" cy="0" gradientTransform="matrix(0.0099, 0.0, 0.0, 0.0099, 16.4, 33.2)" gradientUnits="userSpaceOnUse" id="gradient0" r="819.2" spreadMethod="pad">
      <stop offset="0.0" stop-color="#c763f5"/>
      <stop offset="1.0" stop-color="#8b1fef"/>
    </radialGradient>
    <radialGradient cx="0" cy="0" gradientTransform="matrix(0.0099, 0.0, 0.0, 0.0099, 16.4, 33.2)" gradientUnits="userSpaceOnUse" id="gradient1" r="819.2" spreadMethod="pad">
      <stop offset="0.0" stop-color="#c763f5"/>
      <stop offset="1.0" stop-color="#8b1fef"/>
    </radialGradient>
  </defs>
</svg>
