<?xml version="1.0" encoding="UTF-8" standalone="no"?>
<svg xmlns:ffdec="https://www.free-decompiler.com/flash" xmlns:xlink="http://www.w3.org/1999/xlink" ffdec:objectType="frame" height="30.1px" width="30.0px" xmlns="http://www.w3.org/2000/svg">
  <g transform="matrix(1.0, 0.0, 0.0, 1.0, 0.0, 0.0)">
    <use ffdec:characterId="1" height="30.0" transform="matrix(1.0, 0.0, 0.0, 1.0, 0.0, 0.0)" width="30.0" xlink:href="#shape0"/>
    <use ffdec:characterId="3" height="30.0" transform="matrix(1.0, 0.0, 0.0, 1.0, 0.0, 0.1)" width="30.0" xlink:href="#sprite0"/>
  </g>
  <defs>
    <g id="shape0" transform="matrix(1.0, 0.0, 0.0, 1.0, 0.0, 0.0)">
      <path d="M0.0 0.0 L30.0 0.0 30.0 30.0 0.0 30.0 0.0 0.0" fill="#33cc66" fill-opacity="0.0" fill-rule="evenodd" stroke="none"/>
    </g>
    <g id="sprite0" transform="matrix(1.0, 0.0, 0.0, 1.0, 0.0, 0.0)">
      <use ffdec:characterId="2" height="30.0" transform="matrix(1.0, 0.0, 0.0, 1.0, 0.0, 0.0)" width="30.0" xlink:href="#shape1"/>
    </g>
    <g id="shape1" transform="matrix(1.0, 0.0, 0.0, 1.0, 0.0, 0.0)">
      <path d="M27.95 0.15 Q30.0 0.7 30.0 3.3 L30.0 26.7 29.8 28.15 Q29.15 30.0 26.7 30.0 L3.3 30.0 2.4 29.95 Q0.7 29.65 0.2 28.15 L0.0 26.7 0.0 3.3 Q0.0 0.7 2.05 0.15 L2.4 0.1 3.3 0.0 26.7 0.0 27.95 0.15" fill="#cccccc" fill-rule="evenodd" stroke="none"/>
      <path d="M20.25 16.05 L19.9 15.7 19.7 15.9 19.65 16.35 19.65 16.85 19.85 17.2 19.9 17.2 20.05 17.2 20.2 17.2 20.25 17.0 20.3 16.55 20.25 16.05 M24.0 21.2 Q23.1 19.5 21.75 18.95 L20.65 18.1 20.6 18.4 19.7 17.25 14.85 12.5 10.5 8.0 9.95 7.45 9.8 7.2 Q8.8 5.75 8.1 4.35 L9.65 5.3 10.3 7.3 19.6 16.35 20.2 12.35 20.45 12.55 24.15 20.8 24.0 21.2 M17.7 16.75 L19.5 18.25 22.25 21.65 19.6 19.55 17.8 18.3 17.7 17.15 17.7 16.75 M18.2 18.1 L18.25 18.2 18.35 18.3 18.5 18.3 18.55 18.25 18.55 18.05 18.5 17.85 18.35 17.75 18.3 17.8 18.2 17.9 18.2 17.95 18.2 18.1" fill="#785485" fill-rule="evenodd" stroke="none"/>
      <path d="M20.25 16.05 L20.3 16.55 20.25 17.0 20.2 17.2 20.05 17.2 19.9 17.2 19.85 17.2 19.65 16.85 19.65 16.35 19.7 15.9 19.9 15.7 20.25 16.05 M18.2 18.1 L18.2 17.95 18.2 17.9 18.3 17.8 18.35 17.75 18.5 17.85 18.55 18.05 18.55 18.25 18.5 18.3 18.35 18.3 18.25 18.2 18.2 18.1" fill="#fcbbf5" fill-rule="evenodd" stroke="none"/>
      <path d="M24.0 21.2 L23.5 22.45 21.9 20.2 20.65 18.45 20.6 18.4 20.65 18.1 21.75 18.95 Q23.1 19.5 24.0 21.2 M17.7 16.75 L17.7 17.15 17.8 18.3 Q15.1 16.5 12.5 15.4 12.85 14.95 14.2 14.6 16.2 15.7 17.7 16.75 M20.2 12.35 L19.6 16.35 10.3 7.3 9.65 5.3 Q14.9 8.6 20.2 12.35" fill="#5b4364" fill-rule="evenodd" stroke="none"/>
      <path d="M20.6 18.4 L20.65 18.45 21.9 20.2 23.5 22.45 24.0 21.2 24.15 20.8 24.5 21.7 24.3 22.85 24.8 26.6 24.6 27.75 14.15 20.5 Q13.25 17.95 11.55 14.95 L13.0 13.85 Q11.2 10.35 8.55 6.6 L8.55 6.55 7.7 4.1 8.1 4.35 Q8.8 5.75 9.8 7.2 L9.95 7.45 10.5 8.0 14.85 12.5 19.7 17.25 20.6 18.4 M17.8 18.3 L19.6 19.55 22.25 21.65 19.5 18.25 17.7 16.75 Q16.2 15.7 14.2 14.6 12.85 14.95 12.5 15.4 15.1 16.5 17.8 18.3 M17.6 15.95 L18.55 16.7 17.05 15.1 Q14.65 12.55 11.7 9.95 13.45 13.4 13.6 14.1 L13.6 14.2 13.75 13.5 17.4 15.9 17.6 15.95" fill="#392f41" fill-rule="evenodd" stroke="none"/>
      <path d="M17.6 15.95 L17.4 15.9 13.75 13.5 13.6 14.2 13.6 14.1 Q13.45 13.4 11.7 9.95 14.65 12.55 17.05 15.1 L18.55 16.7 17.6 15.95" fill="#251d2c" fill-rule="evenodd" stroke="none"/>
      <path d="M8.1 4.35 L7.7 4.1 8.55 6.55 8.55 6.6 Q11.2 10.35 13.0 13.85 L11.55 14.95 Q13.25 17.95 14.15 20.5 L24.6 27.75 24.8 26.6 24.3 22.85 24.5 21.7 24.15 20.8 20.45 12.55 20.2 12.35 Q14.9 8.6 9.65 5.3 L8.1 4.35 Z" fill="none" stroke="#ffffff" stroke-linecap="round" stroke-linejoin="round" stroke-width="3.0"/>
      <path d="M20.25 16.05 L19.9 15.7 19.7 15.9 19.65 16.35 19.65 16.85 19.85 17.2 19.9 17.2 20.05 17.2 20.2 17.2 20.25 17.0 20.3 16.55 20.25 16.05 M24.0 21.2 Q23.1 19.5 21.75 18.95 L20.65 18.1 20.6 18.4 19.7 17.25 14.85 12.5 10.5 8.0 9.95 7.45 9.8 7.2 Q8.8 5.75 8.1 4.35 L9.65 5.3 10.3 7.3 19.6 16.35 20.2 12.35 20.45 12.55 24.15 20.8 24.0 21.2 M17.7 16.75 L19.5 18.25 22.25 21.65 19.6 19.55 17.8 18.3 17.7 17.15 17.7 16.75 M18.25 18.2 L18.35 18.3 18.5 18.3 18.55 18.25 18.55 18.05 18.5 17.85 18.35 17.75 18.3 17.8 18.2 17.9 18.2 17.95 18.2 18.1 18.25 18.2" fill="#785485" fill-rule="evenodd" stroke="none"/>
      <path d="M20.25 16.05 L20.3 16.55 20.25 17.0 20.2 17.2 20.05 17.2 19.9 17.2 19.85 17.2 19.65 16.85 19.65 16.35 19.7 15.9 19.9 15.7 20.25 16.05 M18.25 18.2 L18.2 18.1 18.2 17.95 18.2 17.9 18.3 17.8 18.35 17.75 18.5 17.85 18.55 18.05 18.55 18.25 18.5 18.3 18.35 18.3 18.25 18.2" fill="#fcbbf5" fill-rule="evenodd" stroke="none"/>
      <path d="M24.0 21.2 L23.5 22.45 21.9 20.2 20.65 18.45 20.6 18.4 20.65 18.1 21.75 18.95 Q23.1 19.5 24.0 21.2 M17.7 16.75 L17.7 17.15 17.8 18.3 Q15.1 16.5 12.5 15.4 12.85 14.95 14.2 14.6 16.2 15.7 17.7 16.75 M20.2 12.35 L19.6 16.35 10.3 7.3 9.65 5.3 Q14.9 8.6 20.2 12.35" fill="#5b4364" fill-rule="evenodd" stroke="none"/>
      <path d="M20.6 18.4 L20.65 18.45 21.9 20.2 23.5 22.45 24.0 21.2 24.15 20.8 24.5 21.7 24.3 22.85 24.8 26.6 24.6 27.75 14.15 20.5 Q13.25 17.95 11.55 14.95 L13.0 13.85 Q11.2 10.35 8.55 6.6 L8.55 6.55 7.7 4.1 8.1 4.35 Q8.8 5.75 9.8 7.2 L9.95 7.45 10.5 8.0 14.85 12.5 19.7 17.25 20.6 18.4 M17.8 18.3 L19.6 19.55 22.25 21.65 19.5 18.25 17.7 16.75 Q16.2 15.7 14.2 14.6 12.85 14.95 12.5 15.4 15.1 16.5 17.8 18.3 M17.6 15.95 L18.55 16.7 17.05 15.1 Q14.65 12.55 11.7 9.95 13.45 13.4 13.6 14.1 L13.6 14.2 13.75 13.5 17.4 15.9 17.6 15.95" fill="#392f41" fill-rule="evenodd" stroke="none"/>
      <path d="M17.6 15.95 L17.4 15.9 13.75 13.5 13.6 14.2 13.6 14.1 Q13.45 13.4 11.7 9.95 14.65 12.55 17.05 15.1 L18.55 16.7 17.6 15.95" fill="#251d2c" fill-rule="evenodd" stroke="none"/>
      <path d="M8.1 4.35 L7.7 4.1 8.55 6.55 8.55 6.6 Q11.2 10.35 13.0 13.85 L11.55 14.95 Q13.25 17.95 14.15 20.5 L24.6 27.75 24.8 26.6 24.3 22.85 24.5 21.7 24.15 20.8 20.45 12.55 20.2 12.35 Q14.9 8.6 9.65 5.3 L8.1 4.35 Z" fill="none" stroke="#26102c" stroke-linecap="round" stroke-linejoin="round" stroke-width="1.0"/>
    </g>
  </defs>
</svg>
