<?xml version="1.0" encoding="UTF-8" standalone="no"?>
<svg xmlns:ffdec="https://www.free-decompiler.com/flash" xmlns:xlink="http://www.w3.org/1999/xlink" ffdec:objectType="frame" height="30.1px" width="30.0px" xmlns="http://www.w3.org/2000/svg">
  <g transform="matrix(1.0, 0.0, 0.0, 1.0, 0.0, 0.0)">
    <use ffdec:characterId="1" height="30.0" transform="matrix(1.0, 0.0, 0.0, 1.0, 0.0, 0.0)" width="30.0" xlink:href="#shape0"/>
    <use ffdec:characterId="5" height="30.0" transform="matrix(1.0, 0.0, 0.0, 1.0, 0.0, 0.1)" width="30.0" xlink:href="#sprite0"/>
  </g>
  <defs>
    <g id="shape0" transform="matrix(1.0, 0.0, 0.0, 1.0, 0.0, 0.0)">
      <path d="M0.0 0.0 L30.0 0.0 30.0 30.0 0.0 30.0 0.0 0.0" fill="#33cc66" fill-opacity="0.0" fill-rule="evenodd" stroke="none"/>
    </g>
    <g id="sprite0" transform="matrix(1.0, 0.0, 0.0, 1.0, 0.0, 0.0)">
      <use ffdec:characterId="2" height="30.0" transform="matrix(1.0, 0.0, 0.0, 1.0, 0.0, 0.0)" width="30.0" xlink:href="#shape1"/>
      <use ffdec:characterId="4" height="49.05" transform="matrix(0.3961, 0.0, 0.0, 0.3961, 6.2834, 5.9263)" width="42.35" xlink:href="#sprite1"/>
    </g>
    <g id="shape1" transform="matrix(1.0, 0.0, 0.0, 1.0, 0.0, 0.0)">
      <path d="M27.95 0.15 Q30.0 0.7 30.0 3.3 L30.0 26.7 29.8 28.15 Q29.15 30.0 26.7 30.0 L3.3 30.0 2.4 29.95 Q0.7 29.65 0.2 28.15 L0.0 26.7 0.0 3.3 Q0.0 0.7 2.05 0.15 L2.4 0.1 3.3 0.0 26.7 0.0 27.95 0.15" fill="#cccccc" fill-rule="evenodd" stroke="none"/>
    </g>
    <g id="sprite1" transform="matrix(1.0, 0.0, 0.0, 1.0, -4.25, -0.95)">
      <use ffdec:characterId="3" height="49.05" transform="matrix(1.0, 0.0, 0.0, 1.0, 4.25, 0.95)" width="42.35" xlink:href="#shape2"/>
    </g>
    <g id="shape2" transform="matrix(1.0, 0.0, 0.0, 1.0, -4.25, -0.95)">
      <path d="M42.0 7.5 L43.5 3.45 42.2 8.8 41.2 13.05 41.0 14.5 40.5 18.75 40.45 20.5 40.3 20.9 40.3 20.95 38.75 24.25 Q38.05 25.25 37.7 28.75 L37.55 29.0 37.3 29.35 36.55 30.85 Q35.9 32.2 35.8 33.2 L35.4 32.5 34.9 31.7 34.9 31.9 34.1 29.85 33.6 30.45 33.35 29.9 32.5 29.8 39.0 21.6 39.7 20.05 39.9 19.05 41.6 9.85 42.0 7.5 M25.45 27.9 L26.8 27.25 29.35 25.85 25.75 30.95 25.75 30.9 26.05 30.0 26.0 29.5 25.75 29.35 25.5 29.3 Q25.15 29.3 24.75 29.55 23.65 30.2 22.25 32.8 L22.25 32.65 22.9 29.95 22.9 29.85 23.2 28.5 23.2 28.65 24.0 28.35 24.15 28.3 25.45 27.9 M14.55 29.75 L14.6 30.0 Q16.15 29.8 17.05 30.95 L16.95 30.45 16.85 29.9 Q16.85 28.85 17.6 27.65 18.35 26.4 19.1 26.4 L19.65 26.6 22.35 30.1 22.4 30.15 22.25 30.1 20.4 28.4 Q19.9 27.9 19.05 27.45 L18.9 27.4 Q18.55 27.6 18.25 28.15 17.75 29.1 17.75 30.65 L17.8 31.05 Q17.85 31.75 18.25 32.8 L17.25 33.45 16.35 34.4 16.65 33.7 16.65 32.7 16.5 31.5 16.4 31.35 16.0 30.65 Q15.5 30.3 14.9 30.1 L14.3 30.1 14.35 30.0 14.55 29.75 M11.6 31.0 L11.8 31.35 11.35 31.9 11.35 32.4 11.35 32.65 Q11.35 33.1 11.5 33.3 L12.0 34.05 11.95 34.05 Q11.45 33.25 10.3 32.7 L10.8 31.95 11.6 31.0" fill="#984319" fill-rule="evenodd" stroke="none"/>
      <path d="M32.35 20.55 L34.2 18.6 36.0 16.6 Q39.05 13.05 41.1 9.55 L42.0 7.5 41.6 9.85 Q39.5 13.6 37.2 16.3 L34.2 19.35 34.3 20.95 36.55 20.25 39.9 19.05 39.7 20.05 39.1 20.6 38.35 21.35 38.0 21.7 37.35 22.35 36.85 22.75 31.75 27.25 31.75 26.05 31.55 23.0 31.5 22.2 31.4 21.5 31.55 21.35 31.6 21.3 31.7 22.4 31.85 26.8 31.95 26.8 33.6 25.25 37.5 21.75 36.45 22.2 34.7 22.45 Q33.1 22.45 32.55 21.25 L32.35 20.55 M32.95 46.15 L30.6 47.5 33.55 40.4 Q34.35 37.9 34.7 34.45 L35.25 35.35 35.45 35.65 35.5 35.75 35.65 36.0 35.75 37.0 Q35.75 39.0 32.95 46.15 M29.9 16.9 L30.15 22.75 30.15 24.15 29.8 23.85 29.55 23.95 29.15 24.15 29.05 24.2 29.05 24.25 28.95 24.2 26.35 21.7 Q26.95 20.5 28.4 18.7 L29.9 16.9 M23.3 27.85 Q23.65 26.85 24.35 25.55 L24.05 27.9 Q26.2 27.05 28.65 25.35 L28.7 25.35 28.8 25.4 29.05 25.25 29.05 25.45 29.15 25.65 28.8 25.4 27.4 26.45 25.45 27.85 25.45 27.9 24.15 28.3 24.0 28.35 23.2 28.65 23.2 28.5 23.3 27.85 M29.4 25.8 L29.5 25.75 29.45 25.8 29.4 25.8 M30.0 25.45 L30.1 25.3 30.1 25.4 30.0 25.45 M17.65 15.65 L17.75 17.05 Q17.95 20.3 18.35 22.25 18.2 22.55 18.9 24.3 L18.55 24.65 17.55 24.0 17.4 23.9 17.3 23.65 17.0 22.45 Q16.75 21.4 16.75 19.9 16.75 18.8 17.2 17.15 17.45 16.05 17.65 15.65" fill="#ffee72" fill-rule="evenodd" stroke="none"/>
      <path d="M43.5 3.45 L44.1 10.05 43.15 30.4 Q40.6 33.5 39.95 37.75 L39.85 38.55 39.7 40.05 40.3 40.65 39.6 41.7 39.15 40.8 38.9 40.25 38.85 40.1 38.65 39.25 38.6 38.95 38.5 37.45 Q38.5 36.2 39.1 33.9 L39.7 32.15 Q39.7 31.65 39.95 31.3 L40.1 31.0 41.0 29.3 41.6 28.05 42.3 26.65 41.95 23.3 41.9 22.5 41.9 22.45 41.75 21.3 41.7 20.65 41.6 19.2 41.45 15.6 41.2 17.8 41.0 14.5 41.2 13.05 42.2 8.8 43.5 3.45 M34.7 32.65 L33.6 30.45 34.1 29.85 34.9 31.9 34.8 32.35 34.7 32.65 M32.5 29.8 L32.3 30.0 24.95 34.45 24.2 33.05 18.95 36.15 17.8 38.45 Q14.0 36.4 10.15 33.25 5.05 24.45 7.6 14.55 L7.75 15.35 Q7.2 18.35 7.2 19.55 7.2 23.65 8.25 26.9 8.75 28.5 10.4 31.85 L11.4 30.7 12.0 29.9 12.5 31.0 Q12.05 31.7 12.05 32.25 12.0 32.9 12.5 33.45 13.4 34.45 14.85 34.95 16.7 33.7 16.05 31.75 L15.85 31.5 Q15.0 30.45 14.1 30.65 L13.45 30.9 13.45 30.7 Q13.7 30.3 14.1 29.85 L14.5 29.45 14.8 29.05 16.7 26.75 18.55 24.65 18.9 24.3 18.95 24.25 18.75 23.85 18.35 22.25 Q17.95 20.3 17.75 17.05 L17.65 15.65 17.5 11.05 17.55 9.4 17.75 9.05 Q17.9 16.3 19.4 21.65 L22.05 26.85 22.75 26.75 Q22.85 24.9 23.25 23.05 L24.15 19.5 25.15 16.45 29.25 8.6 29.4 10.35 27.4 13.5 25.5 17.0 25.25 17.85 24.65 20.5 24.55 21.05 24.55 21.1 24.15 22.9 23.6 25.8 23.35 27.45 23.3 27.85 23.2 28.5 22.9 29.85 22.9 29.95 22.25 32.65 22.25 32.8 Q23.65 30.2 24.75 29.55 25.15 29.3 25.5 29.3 L25.75 29.35 26.0 29.5 26.05 30.0 25.75 30.9 25.75 30.95 29.35 25.85 29.4 25.85 29.4 25.8 29.45 25.8 29.5 25.75 30.0 25.45 30.1 25.4 30.05 25.85 25.55 32.95 30.8 26.85 31.4 26.0 31.4 25.9 31.2 23.35 31.1 22.4 31.1 21.8 31.4 21.5 31.5 22.2 31.55 23.0 31.75 26.05 31.75 27.25 36.85 22.75 37.35 22.35 38.0 21.7 38.35 21.35 39.1 20.6 39.7 20.05 39.0 21.6 32.5 29.8 M37.3 29.35 L37.6 29.4 37.55 29.75 Q37.55 30.65 37.7 31.15 L36.3 34.05 35.95 34.75 35.45 34.1 35.45 33.0 35.8 33.4 36.2 33.85 35.8 33.2 Q35.9 32.2 36.55 30.85 L37.3 29.35 M37.8 29.4 L38.7 29.4 39.2 30.2 38.4 29.7 38.1 29.55 37.8 29.4 M19.65 26.6 L19.6 26.5 18.75 25.05 18.65 24.85 Q17.65 25.5 16.25 27.4 L14.55 29.75 14.35 30.0 14.3 30.1 14.9 30.1 Q15.5 30.3 16.0 30.65 L16.4 31.35 16.5 31.5 16.65 32.7 16.65 33.7 16.35 34.4 17.25 33.45 18.25 32.8 Q17.85 31.75 17.8 31.05 L17.75 30.65 Q17.75 29.1 18.25 28.15 18.55 27.6 18.9 27.4 L19.05 27.45 Q19.9 27.9 20.4 28.4 L22.25 30.1 22.4 30.15 22.35 30.1 19.65 26.6 M11.6 31.0 L10.8 31.95 10.3 32.7 Q11.45 33.25 11.95 34.05 L12.0 34.05 11.5 33.3 Q11.35 33.1 11.35 32.65 L11.35 32.4 11.35 31.9 11.8 31.35 11.6 31.0 M35.25 35.35 L35.25 35.25 35.35 34.75 35.45 35.0 35.6 35.3 35.65 35.4 35.65 35.5 35.5 35.75 35.45 35.65 35.25 35.35" fill="#e27f1f" fill-rule="evenodd" stroke="none"/>
      <path d="M39.6 41.7 L38.95 42.6 38.35 43.0 37.45 39.6 37.35 39.35 37.15 38.75 36.9 38.1 36.85 38.0 36.8 37.95 35.65 35.4 35.6 35.3 35.45 35.0 35.35 34.75 34.8 33.7 34.8 33.4 34.85 32.95 34.7 32.65 34.8 32.35 34.9 31.9 34.9 31.7 35.4 32.5 35.8 33.2 36.2 33.85 35.8 33.4 35.45 33.0 35.45 34.1 35.95 34.75 36.05 34.9 36.95 36.25 37.55 37.25 37.6 37.3 38.35 39.05 38.35 39.15 38.45 39.45 38.5 39.55 38.85 40.1 38.9 40.25 39.15 40.8 39.6 41.7 M7.75 15.35 Q9.0 23.5 12.0 29.9 L11.4 30.7 10.4 31.85 Q8.75 28.5 8.25 26.9 7.2 23.65 7.2 19.55 7.2 18.35 7.75 15.35 M13.45 30.7 Q13.3 25.65 13.75 20.65 14.85 22.05 16.75 23.45 L17.25 23.8 15.05 28.5 14.8 29.05 14.5 29.45 14.1 29.85 Q13.7 30.3 13.45 30.7 M41.6 19.2 L41.4 18.7 41.25 18.3 41.15 18.15 41.2 17.8 41.45 15.6 41.6 19.2 M37.6 29.4 L37.6 29.25 37.8 29.4 38.1 29.55 38.4 29.7 39.2 30.2 38.7 29.4 38.85 29.4 39.85 29.4 40.35 29.35 39.75 30.4 Q39.4 30.85 38.7 33.45 L38.0 36.3 37.9 36.15 36.85 34.75 36.3 34.05 37.7 31.15 Q37.55 30.65 37.55 29.75 L37.6 29.4 M24.35 25.55 L24.5 24.5 24.8 22.8 24.95 21.95 25.15 21.25 26.0 22.4 25.7 22.9 24.35 25.55" fill="#ff9d25" fill-rule="evenodd" stroke="none"/>
      <path d="M38.35 43.0 L32.95 46.15 Q35.75 39.0 35.75 37.0 L35.65 36.0 35.5 35.75 35.65 35.5 35.65 35.4 36.8 37.95 36.85 38.0 36.9 38.1 37.15 38.75 37.35 39.35 37.45 39.6 38.35 43.0 M34.7 34.45 L34.8 33.7 35.35 34.75 35.25 35.25 35.25 35.35 34.7 34.45 M13.75 20.65 L14.05 17.25 Q15.6 12.3 17.55 9.4 L17.5 11.05 17.65 15.65 Q17.45 16.05 17.2 17.15 16.75 18.8 16.75 19.9 16.75 21.4 17.0 22.45 L17.3 23.65 17.4 23.9 17.55 24.0 18.55 24.65 16.7 26.75 14.8 29.05 15.05 28.5 17.25 23.8 16.75 23.45 Q14.85 22.05 13.75 20.65 M29.4 10.35 L29.8 15.75 29.9 16.9 28.4 18.7 Q26.95 20.5 26.35 21.7 L26.0 22.4 26.15 22.6 26.7 23.25 28.75 25.3 28.7 25.35 28.65 25.35 Q26.2 27.05 24.05 27.9 L24.35 25.55 Q23.65 26.85 23.3 27.85 L23.35 27.45 23.6 25.8 24.15 22.9 24.55 21.1 24.55 21.05 24.65 20.5 25.25 17.85 25.5 17.0 27.4 13.5 29.4 10.35 M41.6 9.85 L39.9 19.05 36.55 20.25 34.3 20.95 34.2 19.35 37.2 16.3 Q39.5 13.6 41.6 9.85 M41.2 17.8 L41.15 18.15 41.25 18.3 41.4 18.7 41.6 19.2 41.7 20.65 41.75 21.3 41.9 22.45 41.9 22.5 41.95 23.3 42.3 26.65 41.6 28.05 41.0 29.3 40.1 31.0 39.95 31.3 Q39.7 31.65 39.7 32.15 L39.1 33.9 Q38.5 36.2 38.5 37.45 L38.6 38.95 38.65 39.25 38.85 40.1 38.5 39.55 38.45 39.45 38.35 39.15 38.35 39.05 37.6 37.3 37.55 37.25 36.95 36.25 36.05 34.9 35.95 34.75 36.3 34.05 36.85 34.75 37.9 36.15 38.0 36.3 38.7 33.45 Q39.4 30.85 39.75 30.4 L40.35 29.35 39.85 29.4 38.85 29.4 38.7 29.4 37.8 29.4 37.6 29.25 37.6 29.4 37.3 29.35 37.55 29.0 37.7 28.75 Q38.05 25.25 38.75 24.25 L40.3 20.95 40.3 20.9 40.45 20.5 40.5 18.75 41.0 14.5 41.2 17.8 M26.0 22.4 L25.15 21.25 24.95 21.95 24.8 22.8 24.5 24.5 24.35 25.55 25.7 22.9 26.0 22.4 M18.9 24.3 Q18.2 22.55 18.35 22.25 L18.75 23.85 18.95 24.25 18.9 24.3" fill="#ffc22c" fill-rule="evenodd" stroke="none"/>
      <path d="M31.6 21.3 L32.35 20.55 32.55 21.25 Q33.1 22.45 34.7 22.45 L36.45 22.2 37.5 21.75 33.6 25.25 31.95 26.8 31.85 26.8 31.7 22.4 31.6 21.3 M26.0 22.4 L26.35 21.7 28.95 24.2 29.05 24.25 29.05 24.2 29.15 24.15 29.55 23.95 29.8 23.85 30.15 24.15 30.2 24.5 30.15 25.15 30.1 25.25 30.1 25.3 30.0 25.45 29.5 25.75 29.4 25.8 29.4 25.85 29.35 25.85 26.8 27.25 25.45 27.9 25.45 27.85 27.4 26.45 28.8 25.4 29.15 25.65 29.05 25.45 29.05 25.25 28.8 25.4 28.7 25.35 28.75 25.3 26.7 23.25 26.15 22.6 26.0 22.4" fill="#fffcec" fill-rule="evenodd" stroke="none"/>
      <path d="M30.15 22.75 L31.1 21.8 31.1 22.4 31.2 23.35 31.4 25.9 31.4 26.0 30.8 26.85 25.55 32.95 30.05 25.85 30.1 25.4 30.1 25.3 30.1 25.25 30.15 25.15 30.2 24.5 30.15 24.15 30.15 22.75 M19.65 26.6 L19.1 26.4 Q18.35 26.4 17.6 27.65 16.85 28.85 16.85 29.9 L16.95 30.45 17.05 30.95 Q16.15 29.8 14.6 30.0 L14.55 29.75 16.25 27.4 Q17.65 25.5 18.65 24.85 L18.75 25.05 19.6 26.5 19.65 26.6" fill="#772802" fill-rule="evenodd" stroke="none"/>
      <path d="M32.35 20.55 L34.2 18.6 36.0 16.6 Q39.05 13.05 41.1 9.55 L42.0 7.5 43.5 3.45 44.1 10.05 43.15 30.4 Q40.6 33.5 39.95 37.75 L39.85 38.55 39.7 40.05 40.3 40.65 39.6 41.7 38.95 42.6 38.35 43.0 32.95 46.15 30.6 47.5 33.55 40.4 Q34.35 37.9 34.7 34.45 L34.8 33.7 34.8 33.4 34.85 32.95 34.7 32.65 33.6 30.45 33.35 29.9 32.5 29.8 32.3 30.0 24.95 34.45 24.2 33.05 18.95 36.15 17.8 38.45 Q14.0 36.4 10.15 33.25 5.05 24.45 7.6 14.55 L7.75 15.35 Q9.0 23.5 12.0 29.9 L12.5 31.0 Q12.05 31.7 12.05 32.25 12.0 32.9 12.5 33.45 13.4 34.45 14.85 34.95 16.7 33.7 16.05 31.75 L15.85 31.5 Q15.0 30.45 14.1 30.65 L13.45 30.9 13.45 30.7 Q13.3 25.65 13.75 20.65 L14.05 17.25 Q15.6 12.3 17.55 9.4 L17.75 9.05 Q17.9 16.3 19.4 21.65 L22.05 26.85 22.75 26.75 Q22.85 24.9 23.25 23.05 L24.15 19.5 25.15 16.45 29.25 8.6 29.4 10.35 29.8 15.75 29.9 16.9 30.15 22.75 31.1 21.8 31.4 21.5 31.55 21.35 31.6 21.3 32.35 20.55 Z" fill="none" stroke="#ffffff" stroke-linecap="round" stroke-linejoin="round" stroke-width="5.0"/>
      <path d="M42.0 7.5 L41.6 9.85 Q39.5 13.6 37.2 16.3 L34.2 19.35 34.3 20.95 36.55 20.25 39.9 19.05 39.7 20.05 39.1 20.6 38.35 21.35 38.0 21.7 37.35 22.35 36.85 22.75 31.75 27.25 31.75 26.05 31.55 23.0 31.5 22.2 31.4 21.5 31.55 21.35 31.6 21.3 31.7 22.4 31.85 26.8 31.95 26.8 33.6 25.25 37.5 21.75 36.45 22.2 34.7 22.45 Q33.1 22.45 32.55 21.25 L32.35 20.55 34.2 18.6 36.0 16.6 Q39.05 13.05 41.1 9.55 L42.0 7.5 M32.95 46.15 L30.6 47.5 33.55 40.4 Q34.35 37.9 34.7 34.45 L35.25 35.35 35.45 35.65 35.5 35.75 35.65 36.0 35.75 37.0 Q35.75 39.0 32.95 46.15 M29.9 16.9 L30.15 22.75 30.15 24.15 29.8 23.85 29.55 23.95 29.15 24.15 29.05 24.2 29.05 24.25 28.95 24.2 26.35 21.7 Q26.95 20.5 28.4 18.7 L29.9 16.9 M23.3 27.85 Q23.65 26.85 24.35 25.55 L24.05 27.9 Q26.2 27.05 28.65 25.35 L28.7 25.35 28.8 25.4 29.05 25.25 29.05 25.45 29.15 25.65 28.8 25.4 27.4 26.45 25.45 27.85 25.45 27.9 24.15 28.3 24.0 28.35 23.2 28.65 23.2 28.5 23.3 27.85 M30.1 25.3 L30.1 25.4 30.0 25.45 30.1 25.3 M29.5 25.75 L29.45 25.8 29.4 25.8 29.5 25.75 M17.65 15.65 L17.75 17.05 Q17.95 20.3 18.35 22.25 18.2 22.55 18.9 24.3 L18.55 24.65 17.55 24.0 17.4 23.9 17.3 23.65 17.0 22.45 Q16.75 21.4 16.75 19.9 16.75 18.8 17.2 17.15 17.45 16.05 17.65 15.65" fill="#ffee72" fill-rule="evenodd" stroke="none"/>
      <path d="M39.7 20.05 L39.0 21.6 32.5 29.8 32.3 30.0 24.95 34.45 24.2 33.05 18.95 36.15 17.8 38.45 Q14.0 36.4 10.15 33.25 5.05 24.45 7.6 14.55 L7.75 15.35 Q7.2 18.35 7.2 19.55 7.2 23.65 8.25 26.9 8.75 28.5 10.4 31.85 L11.4 30.7 12.0 29.9 12.5 31.0 Q12.05 31.7 12.05 32.25 12.0 32.9 12.5 33.45 13.4 34.45 14.85 34.95 16.7 33.7 16.05 31.75 L15.85 31.5 Q15.0 30.45 14.1 30.65 L13.45 30.9 13.45 30.7 Q13.7 30.3 14.1 29.85 L14.5 29.45 14.8 29.05 16.7 26.75 18.55 24.65 18.9 24.3 18.95 24.25 18.75 23.85 18.35 22.25 Q17.95 20.3 17.75 17.05 L17.65 15.65 17.5 11.05 17.55 9.4 17.75 9.05 Q17.9 16.3 19.4 21.65 L22.05 26.85 22.75 26.75 Q22.85 24.9 23.25 23.05 L24.15 19.5 25.15 16.45 29.25 8.6 29.4 10.35 27.4 13.5 25.5 17.0 25.25 17.85 24.65 20.5 24.55 21.05 24.55 21.1 24.15 22.9 23.6 25.8 23.35 27.45 23.3 27.85 23.2 28.5 22.9 29.85 22.9 29.95 22.25 32.65 22.25 32.8 Q23.65 30.2 24.75 29.55 25.15 29.3 25.5 29.3 L25.75 29.35 26.0 29.5 26.05 30.0 25.75 30.9 25.75 30.95 29.35 25.85 29.4 25.85 29.4 25.8 29.45 25.8 29.5 25.75 30.0 25.45 30.1 25.4 30.05 25.85 25.55 32.95 30.8 26.85 31.4 26.0 31.4 25.9 31.2 23.35 31.1 22.4 31.1 21.8 31.4 21.5 31.5 22.2 31.55 23.0 31.75 26.05 31.75 27.25 36.85 22.75 37.35 22.35 38.0 21.7 38.35 21.35 39.1 20.6 39.7 20.05 M33.6 30.45 L34.1 29.85 34.9 31.9 34.8 32.35 34.7 32.65 33.6 30.45 M35.8 33.2 Q35.9 32.2 36.55 30.85 L37.3 29.35 37.6 29.4 37.55 29.75 Q37.55 30.65 37.7 31.15 L36.3 34.05 35.95 34.75 35.45 34.1 35.45 33.0 35.8 33.4 36.2 33.85 35.8 33.2 M41.0 14.5 L41.2 13.05 42.2 8.8 43.5 3.45 44.1 10.05 43.15 30.4 Q40.6 33.5 39.95 37.75 L39.85 38.55 39.7 40.05 40.3 40.65 39.6 41.7 39.15 40.8 38.9 40.25 38.85 40.1 38.65 39.25 38.6 38.95 38.5 37.45 Q38.5 36.2 39.1 33.9 L39.7 32.15 Q39.7 31.65 39.95 31.3 L40.1 31.0 41.0 29.3 41.6 28.05 42.3 26.65 41.95 23.3 41.9 22.5 41.9 22.45 41.75 21.3 41.7 20.65 41.6 19.2 41.45 15.6 41.2 17.8 41.0 14.5 M38.7 29.4 L39.2 30.2 38.4 29.7 38.1 29.55 37.8 29.4 38.7 29.4 M35.35 34.75 L35.45 35.0 35.6 35.3 35.65 35.4 35.65 35.5 35.5 35.75 35.45 35.65 35.25 35.35 35.25 35.25 35.35 34.75 M19.65 26.6 L19.6 26.5 18.75 25.05 18.65 24.85 Q17.65 25.5 16.25 27.4 L14.55 29.75 14.35 30.0 14.3 30.1 14.9 30.1 Q15.5 30.3 16.0 30.65 L16.4 31.35 16.5 31.5 16.65 32.7 16.65 33.7 16.35 34.4 17.25 33.45 18.25 32.8 Q17.85 31.75 17.8 31.05 L17.75 30.65 Q17.75 29.1 18.25 28.15 18.55 27.6 18.9 27.4 L19.05 27.45 Q19.9 27.9 20.4 28.4 L22.25 30.1 22.4 30.15 22.35 30.1 19.65 26.6 M11.6 31.0 L10.8 31.95 10.3 32.7 Q11.45 33.25 11.95 34.05 L12.0 34.05 11.5 33.3 Q11.35 33.1 11.35 32.65 L11.35 32.4 11.35 31.9 11.8 31.35 11.6 31.0" fill="#e27f1f" fill-rule="evenodd" stroke="none"/>
      <path d="M41.6 9.85 L42.0 7.5 43.5 3.45 42.2 8.8 41.2 13.05 41.0 14.5 40.5 18.75 40.45 20.5 40.3 20.9 40.3 20.95 38.75 24.25 Q38.05 25.25 37.7 28.75 L37.55 29.0 37.3 29.35 36.55 30.85 Q35.9 32.2 35.8 33.2 L35.4 32.5 34.9 31.7 34.9 31.9 34.1 29.85 33.6 30.45 33.35 29.9 32.5 29.8 39.0 21.6 39.7 20.05 39.9 19.05 41.6 9.85 M29.35 25.85 L25.75 30.95 25.75 30.9 26.05 30.0 26.0 29.5 25.75 29.35 25.5 29.3 Q25.15 29.3 24.75 29.55 23.65 30.2 22.25 32.8 L22.25 32.65 22.9 29.95 22.9 29.85 23.2 28.5 23.2 28.65 24.0 28.35 24.15 28.3 25.45 27.9 26.8 27.25 29.35 25.85 M14.55 29.75 L14.6 30.0 Q16.15 29.8 17.05 30.95 L16.95 30.45 16.85 29.9 Q16.85 28.85 17.6 27.65 18.35 26.4 19.1 26.4 L19.65 26.6 22.35 30.1 22.4 30.15 22.25 30.1 20.4 28.4 Q19.9 27.9 19.05 27.45 L18.9 27.4 Q18.55 27.6 18.25 28.15 17.75 29.1 17.75 30.65 L17.8 31.05 Q17.85 31.75 18.25 32.8 L17.25 33.45 16.35 34.4 16.65 33.7 16.65 32.7 16.5 31.5 16.4 31.35 16.0 30.65 Q15.5 30.3 14.9 30.1 L14.3 30.1 14.35 30.0 14.55 29.75 M11.6 31.0 L11.8 31.35 11.35 31.9 11.35 32.4 11.35 32.65 Q11.35 33.1 11.5 33.3 L12.0 34.05 11.95 34.05 Q11.45 33.25 10.3 32.7 L10.8 31.95 11.6 31.0" fill="#984319" fill-rule="evenodd" stroke="none"/>
      <path d="M41.6 9.85 L39.9 19.05 36.55 20.25 34.3 20.95 34.2 19.35 37.2 16.3 Q39.5 13.6 41.6 9.85 M37.3 29.35 L37.55 29.0 37.7 28.75 Q38.05 25.25 38.75 24.25 L40.3 20.95 40.3 20.9 40.45 20.5 40.5 18.75 41.0 14.5 41.2 17.8 41.15 18.15 41.25 18.3 41.4 18.7 41.6 19.2 41.7 20.65 41.75 21.3 41.9 22.45 41.9 22.5 41.95 23.3 42.3 26.65 41.6 28.05 41.0 29.3 40.1 31.0 39.95 31.3 Q39.7 31.65 39.7 32.15 L39.1 33.9 Q38.5 36.2 38.5 37.45 L38.6 38.95 38.65 39.25 38.85 40.1 38.5 39.55 38.45 39.45 38.35 39.15 38.35 39.05 37.6 37.3 37.55 37.25 36.95 36.25 36.05 34.9 35.95 34.75 36.3 34.05 36.85 34.75 37.9 36.15 38.0 36.3 38.7 33.45 Q39.4 30.85 39.75 30.4 L40.35 29.35 39.85 29.4 38.85 29.4 38.7 29.4 37.8 29.4 37.6 29.25 37.6 29.4 37.3 29.35 M38.35 43.0 L32.95 46.15 Q35.75 39.0 35.75 37.0 L35.65 36.0 35.5 35.75 35.65 35.5 35.65 35.4 36.8 37.95 36.85 38.0 36.9 38.1 37.15 38.75 37.35 39.35 37.45 39.6 38.35 43.0 M34.7 34.45 L34.8 33.7 35.35 34.75 35.25 35.25 35.25 35.35 34.7 34.45 M29.4 10.35 L29.8 15.75 29.9 16.9 28.4 18.7 Q26.95 20.5 26.35 21.7 L26.0 22.4 25.15 21.25 24.95 21.95 24.8 22.8 24.5 24.5 24.35 25.55 Q23.65 26.85 23.3 27.85 L23.35 27.45 23.6 25.8 24.15 22.9 24.55 21.1 24.55 21.05 24.65 20.5 25.25 17.85 25.5 17.0 27.4 13.5 29.4 10.35 M28.7 25.35 L28.65 25.35 Q26.2 27.05 24.05 27.9 L24.35 25.55 25.7 22.9 26.0 22.4 26.15 22.6 26.7 23.25 28.75 25.3 28.7 25.35 M13.75 20.65 L14.05 17.25 Q15.6 12.3 17.55 9.4 L17.5 11.05 17.65 15.65 Q17.45 16.05 17.2 17.15 16.75 18.8 16.75 19.9 16.75 21.4 17.0 22.45 L17.3 23.65 17.4 23.9 17.55 24.0 18.55 24.65 16.7 26.75 14.8 29.05 15.05 28.5 17.25 23.8 16.75 23.45 Q14.85 22.05 13.75 20.65 M18.35 22.25 L18.75 23.85 18.95 24.25 18.9 24.3 Q18.2 22.55 18.35 22.25" fill="#ffc22c" fill-rule="evenodd" stroke="none"/>
      <path d="M30.15 22.75 L31.1 21.8 31.1 22.4 31.2 23.35 31.4 25.9 31.4 26.0 30.8 26.85 25.55 32.95 30.05 25.85 30.1 25.4 30.1 25.3 30.1 25.25 30.15 25.15 30.2 24.5 30.15 24.15 30.15 22.75 M14.55 29.75 L16.25 27.4 Q17.65 25.5 18.65 24.85 L18.75 25.05 19.6 26.5 19.65 26.6 19.1 26.4 Q18.35 26.4 17.6 27.65 16.85 28.85 16.85 29.9 L16.95 30.45 17.05 30.95 Q16.15 29.8 14.6 30.0 L14.55 29.75" fill="#772802" fill-rule="evenodd" stroke="none"/>
      <path d="M32.35 20.55 L32.55 21.25 Q33.1 22.45 34.7 22.45 L36.45 22.2 37.5 21.75 33.6 25.25 31.95 26.8 31.85 26.8 31.7 22.4 31.6 21.3 32.35 20.55 M26.0 22.4 L26.35 21.7 28.95 24.2 29.05 24.25 29.05 24.2 29.15 24.15 29.55 23.95 29.8 23.85 30.15 24.15 30.2 24.5 30.15 25.15 30.1 25.25 30.1 25.3 30.0 25.45 29.5 25.75 29.4 25.8 29.4 25.85 29.35 25.85 26.8 27.25 25.45 27.9 25.45 27.85 27.4 26.45 28.8 25.4 29.15 25.65 29.05 25.45 29.05 25.25 28.8 25.4 28.7 25.35 28.75 25.3 26.7 23.25 26.15 22.6 26.0 22.4" fill="#fffcec" fill-rule="evenodd" stroke="none"/>
      <path d="M34.9 31.9 L34.9 31.7 35.4 32.5 35.8 33.2 36.2 33.85 35.8 33.4 35.45 33.0 35.45 34.1 35.95 34.75 36.05 34.9 36.95 36.25 37.55 37.25 37.6 37.3 38.35 39.05 38.35 39.15 38.45 39.45 38.5 39.55 38.85 40.1 38.9 40.25 39.15 40.8 39.6 41.7 38.95 42.6 38.35 43.0 37.45 39.6 37.35 39.35 37.15 38.75 36.9 38.1 36.85 38.0 36.8 37.95 35.65 35.4 35.6 35.3 35.45 35.0 35.35 34.75 34.8 33.7 34.8 33.4 34.85 32.95 34.7 32.65 34.8 32.35 34.9 31.9 M24.35 25.55 L24.5 24.5 24.8 22.8 24.95 21.95 25.15 21.25 26.0 22.4 25.7 22.9 24.35 25.55 M41.2 17.8 L41.45 15.6 41.6 19.2 41.4 18.7 41.25 18.3 41.15 18.15 41.2 17.8 M38.7 29.4 L38.85 29.4 39.85 29.4 40.35 29.35 39.75 30.4 Q39.4 30.85 38.7 33.45 L38.0 36.3 37.9 36.15 36.85 34.75 36.3 34.05 37.7 31.15 Q37.55 30.65 37.55 29.75 L37.6 29.4 37.6 29.25 37.8 29.4 38.1 29.55 38.4 29.7 39.2 30.2 38.7 29.4 M7.75 15.35 Q9.0 23.5 12.0 29.9 L11.4 30.7 10.4 31.85 Q8.75 28.5 8.25 26.9 7.2 23.65 7.2 19.55 7.2 18.35 7.75 15.35 M13.45 30.7 Q13.3 25.65 13.75 20.65 14.85 22.05 16.75 23.45 L17.25 23.8 15.05 28.5 14.8 29.05 14.5 29.45 14.1 29.85 Q13.7 30.3 13.45 30.7" fill="#ff9d25" fill-rule="evenodd" stroke="none"/>
      <path d="M32.5 29.8 L33.35 29.9 33.6 30.45 34.7 32.65 34.85 32.95 34.8 33.4 34.8 33.7 34.7 34.45 Q34.35 37.9 33.55 40.4 L30.6 47.5 32.95 46.15 38.35 43.0 38.95 42.6 39.6 41.7 40.3 40.65 39.7 40.05 39.85 38.55 39.95 37.75 Q40.6 33.5 43.15 30.4 L44.1 10.05 43.5 3.45 42.0 7.5 41.1 9.55 Q39.05 13.05 36.0 16.6 L34.2 18.6 32.35 20.55 31.6 21.3 31.55 21.35 31.4 21.5 31.1 21.8 30.15 22.75 29.9 16.9 29.8 15.75 29.4 10.35 29.25 8.6 25.15 16.45 24.15 19.5 23.25 23.05 Q22.85 24.9 22.75 26.75 L22.05 26.85 19.4 21.65 Q17.9 16.3 17.75 9.05 L17.55 9.4 Q15.6 12.3 14.05 17.25 L13.75 20.65 Q13.3 25.65 13.45 30.7 L13.45 30.9 14.1 30.65 Q15.0 30.45 15.85 31.5 L16.05 31.75 Q16.7 33.7 14.85 34.95 13.4 34.45 12.5 33.45 12.0 32.9 12.05 32.25 12.05 31.7 12.5 31.0 L12.0 29.9 Q9.0 23.5 7.75 15.35 L7.6 14.55 Q5.05 24.45 10.15 33.25 14.0 36.4 17.8 38.45 L18.95 36.15 24.2 33.05 24.95 34.45 32.3 30.0 32.5 29.8 Z" fill="none" stroke="#631200" stroke-linecap="round" stroke-linejoin="round" stroke-width="0.7000000000000001"/>
    </g>
  </defs>
</svg>
