<?xml version="1.0" encoding="UTF-8" standalone="no"?>
<svg xmlns:ffdec="https://www.free-decompiler.com/flash" xmlns:xlink="http://www.w3.org/1999/xlink" ffdec:objectType="frame" height="30.1px" width="30.0px" xmlns="http://www.w3.org/2000/svg">
  <g transform="matrix(1.0, 0.0, 0.0, 1.0, 0.0, 0.0)">
    <use ffdec:characterId="1" height="30.0" transform="matrix(1.0, 0.0, 0.0, 1.0, 0.0, 0.0)" width="30.0" xlink:href="#shape0"/>
    <use ffdec:characterId="5" height="30.0" transform="matrix(1.0, 0.0, 0.0, 1.0, 0.0, 0.1)" width="30.0" xlink:href="#sprite0"/>
  </g>
  <defs>
    <g id="shape0" transform="matrix(1.0, 0.0, 0.0, 1.0, 0.0, 0.0)">
      <path d="M0.0 0.0 L30.0 0.0 30.0 30.0 0.0 30.0 0.0 0.0" fill="#33cc66" fill-opacity="0.0" fill-rule="evenodd" stroke="none"/>
    </g>
    <g id="sprite0" transform="matrix(1.0, 0.0, 0.0, 1.0, 0.0, 0.0)">
      <use ffdec:characterId="2" height="30.0" transform="matrix(1.0, 0.0, 0.0, 1.0, 0.0, 0.0)" width="30.0" xlink:href="#shape1"/>
      <use ffdec:characterId="4" height="54.75" transform="matrix(0.3961, 0.0, 0.0, 0.3961, 6.1447, 4.1835)" width="45.9" xlink:href="#sprite1"/>
    </g>
    <g id="shape1" transform="matrix(1.0, 0.0, 0.0, 1.0, 0.0, 0.0)">
      <path d="M27.95 0.15 Q30.0 0.7 30.0 3.3 L30.0 26.7 29.8 28.15 Q29.15 30.0 26.7 30.0 L3.3 30.0 2.4 29.95 Q0.7 29.65 0.2 28.15 L0.0 26.7 0.0 3.3 Q0.0 0.7 2.05 0.15 L2.4 0.1 3.3 0.0 26.7 0.0 27.95 0.15" fill="#cccccc" fill-rule="evenodd" stroke="none"/>
    </g>
    <g id="sprite1" transform="matrix(1.0, 0.0, 0.0, 1.0, -3.9, 3.45)">
      <use ffdec:characterId="3" height="54.75" transform="matrix(1.0, 0.0, 0.0, 1.0, 3.9, -3.45)" width="45.9" xlink:href="#shape2"/>
    </g>
    <g id="shape2" transform="matrix(1.0, 0.0, 0.0, 1.0, -3.9, 3.45)">
      <path d="M46.8 7.4 Q45.8 10.25 43.0 15.65 L42.6 16.35 41.8 17.9 41.9 18.0 43.65 20.3 Q47.25 25.9 45.8 32.3 44.35 38.6 38.75 42.1 L38.8 42.1 Q33.6 45.4 27.55 44.35 L27.5 44.35 27.2 46.05 Q25.7 45.85 18.1 43.15 L12.5 41.2 10.75 43.15 Q8.15 46.1 6.9 48.3 L10.45 40.35 14.05 32.3 14.05 32.45 13.6 35.6 13.35 38.5 Q13.35 39.55 16.55 41.3 20.1 43.25 23.35 43.25 L23.7 43.2 Q20.5 41.65 18.2 38.85 L17.0 37.2 16.95 37.15 Q15.6 35.0 15.05 32.7 L15.1 32.75 14.75 31.05 12.5 31.95 10.95 32.6 12.9 19.25 Q12.85 12.5 13.45 10.6 13.95 9.2 14.3 8.85 14.6 8.5 15.2 8.5 17.25 8.5 20.7 10.75 L25.2 13.8 25.5 13.7 Q28.45 12.75 31.7 13.0 L33.25 13.25 32.6 11.95 Q31.65 10.35 30.75 10.35 L29.8 11.2 Q28.95 12.0 28.15 12.15 L26.9 12.15 27.2 8.75 26.75 -0.45 27.55 4.95 28.3 11.75 28.45 11.6 Q29.65 9.2 30.95 9.2 32.45 9.2 33.15 9.65 L36.65 11.6 37.4 12.0 Q38.75 11.55 41.75 9.9 46.1 7.55 46.65 7.4 L46.8 7.4 M41.6 11.6 L38.65 12.65 36.45 13.15 36.1 13.15 33.8 13.35 36.45 14.25 Q39.1 15.25 41.05 17.2 L41.6 15.15 42.45 11.6 41.6 11.6 M20.8 16.1 L20.9 16.05 21.9 15.35 21.9 15.3 Q23.55 14.3 25.2 13.8 23.55 14.3 21.9 15.3 L21.9 15.35 20.9 16.05 20.8 16.1 Q17.2 13.4 15.55 12.85 13.8 16.2 13.2 23.1 L13.0 25.25 13.2 27.9 13.9 30.65 14.6 30.45 14.6 30.35 14.6 30.3 Q14.4 27.85 14.95 25.35 16.05 20.5 19.45 17.25 L19.45 17.3 20.8 16.1 M25.85 17.05 L28.65 16.1 31.05 15.75 32.3 15.85 33.5 16.15 34.25 17.75 35.05 19.95 Q34.2 19.45 31.75 18.65 L29.3 18.05 Q27.9 18.05 26.5 18.8 L26.35 18.9 Q25.45 19.35 25.3 19.7 L25.3 19.8 Q25.3 20.5 25.85 21.55 26.5 22.75 27.2 22.75 L27.25 22.75 28.25 22.5 28.75 22.3 Q29.7 21.8 31.05 21.8 33.2 21.8 35.1 22.75 L36.85 23.8 Q40.3 26.3 40.3 30.7 40.3 32.3 39.45 34.55 38.75 36.45 38.1 37.15 L37.4 37.5 37.2 37.65 34.9 37.8 31.75 37.8 Q30.2 37.65 29.65 37.2 37.15 36.65 37.15 30.35 37.15 28.7 36.45 27.2 L36.35 26.6 35.25 25.2 34.75 24.75 34.2 24.25 Q32.45 22.75 30.6 22.75 L29.1 22.95 Q27.9 23.3 27.45 24.4 L27.25 25.65 27.4 27.75 25.65 23.0 Q24.55 20.9 22.35 20.15 L22.3 20.05 Q22.35 19.15 23.6 18.25 24.45 17.6 25.85 17.05 24.45 17.6 23.6 18.25 22.35 19.15 22.3 20.05 L22.35 20.15 Q24.55 20.9 25.65 23.0 L27.4 27.75 27.25 25.65 27.45 24.4 Q27.9 23.3 29.1 22.95 L30.6 22.75 Q32.45 22.75 34.2 24.25 L34.75 24.75 35.25 25.2 36.35 26.6 36.45 27.2 Q37.15 28.7 37.15 30.35 37.15 36.65 29.65 37.2 30.2 37.65 31.75 37.8 L34.9 37.8 37.2 37.65 37.4 37.5 38.1 37.15 Q38.75 36.45 39.45 34.55 40.3 32.3 40.3 30.7 40.3 26.3 36.85 23.8 L35.1 22.75 Q33.2 21.8 31.05 21.8 29.7 21.8 28.75 22.3 L28.25 22.5 27.25 22.75 27.2 22.75 Q26.5 22.75 25.85 21.55 25.3 20.5 25.3 19.8 L25.3 19.7 Q25.45 19.35 26.35 18.9 L26.5 18.8 Q27.9 18.05 29.3 18.05 L31.75 18.65 Q34.2 19.45 35.05 19.95 L34.25 17.75 33.5 16.15 32.3 15.85 31.05 15.75 28.65 16.1 25.85 17.05 M15.45 30.75 L15.5 30.7 18.3 29.3 18.45 29.25 19.15 28.05 19.0 28.95 18.45 31.55 18.5 33.3 Q19.0 30.1 19.4 29.45 19.7 28.95 21.1 28.95 22.5 28.95 25.1 30.1 L28.6 31.7 Q27.2 33.3 26.3 33.3 25.45 33.3 24.4 31.55 23.25 29.8 22.5 29.8 21.6 29.8 21.6 30.7 21.6 32.55 23.55 33.7 25.35 34.85 27.8 34.85 28.6 34.85 29.45 33.65 L29.9 32.9 30.5 31.9 31.45 29.6 32.0 27.9 32.1 27.7 32.1 27.65 Q32.0 26.65 31.05 25.65 L30.5 25.2 30.5 25.05 30.4 24.85 30.25 24.75 30.15 24.6 30.0 24.55 29.9 24.6 29.3 23.9 Q28.85 24.55 28.85 25.1 28.85 25.6 29.5 26.0 L29.65 26.3 30.05 26.35 Q30.85 26.95 30.85 28.2 L30.5 28.9 29.0 31.05 28.4 28.0 28.3 27.05 28.3 26.0 Q28.3 24.55 28.6 24.05 28.8 23.7 29.3 23.5 L29.5 23.45 29.7 23.3 Q32.8 25.05 33.3 27.55 L33.35 28.45 33.15 30.65 Q32.6 32.55 31.2 33.95 L30.15 34.85 29.35 35.4 28.1 36.1 26.9 36.6 26.05 36.6 Q22.7 36.6 19.75 35.0 16.95 33.45 16.55 31.7 16.7 33.3 17.3 34.9 18.1 36.75 19.55 38.5 L20.7 39.75 Q22.45 41.5 24.45 42.45 26.0 43.15 27.75 43.45 L29.8 43.6 Q35.1 43.75 40.05 39.1 45.05 34.4 44.15 27.55 43.45 22.45 40.85 19.6 L40.5 19.15 38.9 17.75 36.1 16.15 34.05 15.45 Q32.0 14.8 29.9 14.9 L27.25 15.15 25.65 15.65 24.55 16.35 24.8 15.8 24.55 15.65 24.1 15.85 Q23.0 16.3 22.0 17.05 L20.4 18.55 19.65 19.35 Q17.25 22.45 17.25 25.75 L17.4 27.0 Q17.9 26.8 18.45 24.7 18.95 22.8 20.25 22.8 20.55 22.8 20.8 22.95 21.05 22.95 21.15 23.1 L21.6 23.8 21.6 24.15 21.15 24.35 Q22.55 25.75 23.55 25.75 L24.1 25.6 24.1 25.2 Q24.1 23.8 22.45 22.85 L21.25 22.05 21.1 21.8 21.6 21.1 21.75 20.7 21.95 20.85 22.35 21.0 22.45 21.0 Q23.6 21.35 24.25 22.05 L25.3 24.2 25.7 25.1 27.0 28.4 26.75 28.4 Q25.3 28.4 22.9 26.7 L20.05 24.55 19.65 24.2 19.4 26.15 19.35 26.6 19.2 27.55 18.7 27.9 15.4 30.1 15.4 30.3 15.45 30.75 15.5 30.8 15.5 30.85 15.85 32.5 Q16.4 34.7 17.65 36.75 L18.8 38.35 Q21.05 41.05 24.25 42.55 L24.2 42.55 27.1 43.4 27.05 43.4 27.7 43.55 Q33.4 44.6 38.35 41.45 L38.35 41.4 Q43.65 38.1 45.0 32.1 46.35 26.05 43.0 20.75 L41.35 18.55 41.3 18.5 40.65 17.9 Q38.75 16.0 36.15 15.0 L33.65 14.15 33.3 14.1 33.35 14.1 31.6 13.8 Q28.55 13.55 25.75 14.45 24.0 14.95 22.3 16.0 L22.35 16.0 21.35 16.7 Q20.6 17.2 20.0 17.85 16.75 20.9 15.75 25.5 15.25 27.85 15.4 30.1 15.25 27.85 15.75 25.5 16.75 20.9 20.0 17.85 20.6 17.2 21.35 16.7 L22.35 16.0 22.3 16.0 Q24.0 14.95 25.75 14.45 28.55 13.55 31.6 13.8 L33.35 14.1 33.3 14.1 33.65 14.15 36.15 15.0 Q38.75 16.0 40.65 17.9 L41.3 18.5 41.35 18.55 43.0 20.75 Q46.35 26.05 45.0 32.1 43.65 38.1 38.35 41.4 L38.35 41.45 Q33.4 44.6 27.7 43.55 L27.05 43.4 27.1 43.4 24.2 42.55 24.25 42.55 Q21.05 41.05 18.8 38.35 L17.65 36.75 Q16.4 34.7 15.85 32.5 L15.5 30.85 15.5 30.8 15.45 30.75 15.4 30.3 15.4 30.1 18.7 27.9 19.2 27.55 19.35 26.6 19.4 26.15 19.65 24.2 20.05 24.55 22.9 26.7 Q25.3 28.4 26.75 28.4 L27.0 28.4 25.7 25.1 25.3 24.2 24.25 22.05 Q23.6 21.35 22.45 21.0 L22.35 21.0 21.95 20.85 21.75 20.7 21.6 21.1 21.1 21.8 21.25 22.05 22.45 22.85 Q24.1 23.8 24.1 25.2 L24.1 25.6 23.55 25.75 Q22.55 25.75 21.15 24.35 L21.6 24.15 21.6 23.8 21.15 23.1 Q21.05 22.95 20.8 22.95 20.55 22.8 20.25 22.8 18.95 22.8 18.45 24.7 17.9 26.8 17.4 27.0 L17.25 25.75 Q17.25 22.45 19.65 19.35 L20.4 18.55 22.0 17.05 Q23.0 16.3 24.1 15.85 L24.55 15.65 24.8 15.8 24.55 16.35 25.65 15.65 27.25 15.15 29.9 14.9 Q32.0 14.8 34.05 15.45 L36.1 16.15 38.9 17.75 40.5 19.15 40.85 19.6 Q43.45 22.45 44.15 27.55 45.05 34.4 40.05 39.1 35.1 43.75 29.8 43.6 L27.75 43.45 Q26.0 43.15 24.45 42.45 22.45 41.5 20.7 39.75 L19.55 38.5 Q18.1 36.75 17.3 34.9 16.7 33.3 16.55 31.7 16.95 33.45 19.75 35.0 22.7 36.6 26.05 36.6 L26.9 36.6 28.1 36.1 29.35 35.4 30.15 34.85 31.2 33.95 Q32.6 32.55 33.15 30.65 L33.35 28.45 33.3 27.55 Q32.8 25.05 29.7 23.3 L29.5 23.45 29.3 23.5 Q28.8 23.7 28.6 24.05 28.3 24.55 28.3 26.0 L28.3 27.05 28.4 28.0 29.0 31.05 30.5 28.9 30.85 28.2 Q30.85 26.95 30.05 26.35 L29.65 26.3 29.5 26.0 Q28.85 25.6 28.85 25.1 28.85 24.55 29.3 23.9 L29.9 24.6 30.0 24.55 30.15 24.6 30.25 24.75 30.4 24.85 30.5 25.05 30.5 25.2 31.05 25.65 Q32.0 26.65 32.1 27.65 L32.1 27.7 32.0 27.9 31.45 29.6 30.5 31.9 29.9 32.9 29.45 33.65 Q28.6 34.85 27.8 34.85 25.35 34.85 23.55 33.7 21.6 32.55 21.6 30.7 21.6 29.8 22.5 29.8 23.25 29.8 24.4 31.55 25.45 33.3 26.3 33.3 27.2 33.3 28.6 31.7 L25.1 30.1 Q22.5 28.95 21.1 28.95 19.7 28.95 19.4 29.45 19.0 30.1 18.5 33.3 L18.45 31.55 19.0 28.95 19.15 28.05 18.45 29.25 18.3 29.3 15.5 30.7 15.45 30.75 M41.05 17.2 L41.15 17.3 41.2 17.35 41.8 17.9 41.2 17.35 41.15 17.3 41.05 17.2 M33.25 13.25 L33.5 13.3 33.55 13.35 33.6 13.35 33.7 13.35 33.8 13.35 33.7 13.35 33.6 13.35 33.55 13.35 33.5 13.3 33.25 13.25 M29.9 24.6 L29.8 24.6 29.45 25.25 29.45 25.9 29.5 26.0 29.45 25.9 29.45 25.25 29.8 24.6 29.9 24.6 M21.8 19.5 L22.0 19.15 23.15 17.9 22.35 18.45 21.6 19.1 Q21.45 18.9 21.15 18.8 L20.9 18.9 19.9 19.8 19.7 20.85 19.7 21.7 19.9 21.9 20.05 22.05 20.1 22.1 20.35 22.15 20.75 22.1 21.1 21.8 20.75 22.1 20.35 22.15 20.1 22.1 20.05 22.05 19.9 21.9 19.7 21.7 19.7 20.85 19.9 19.8 20.9 18.9 21.15 18.8 Q21.45 18.9 21.6 19.1 L22.35 18.45 23.15 17.9 23.35 17.7 23.85 17.05 24.55 16.35 23.85 17.05 23.35 17.7 23.15 17.9 22.0 19.15 21.8 19.5 21.8 19.85 21.75 20.7 21.8 19.85 21.8 19.5 21.6 19.1 21.8 19.5 M14.75 31.05 L14.7 30.95 14.75 31.0 14.6 30.45 14.75 31.0 14.7 30.95 14.75 31.05 M27.5 44.35 L27.45 44.35 26.95 44.2 26.9 44.2 23.9 43.3 23.7 43.2 23.9 43.3 26.9 44.2 26.95 44.2 27.45 44.35 27.5 44.35 M28.6 31.7 L29.1 31.9 29.1 31.4 29.0 31.05 29.1 31.4 29.1 31.9 28.6 31.7 M30.05 26.35 L30.15 26.35 30.25 26.3 30.4 26.25 30.5 25.75 30.5 25.4 30.5 25.2 30.5 25.4 30.5 25.75 30.4 26.25 30.25 26.3 30.15 26.35 30.05 26.35" fill="#ffffff" fill-rule="evenodd" stroke="none"/>
      <path d="M46.8 7.4 Q45.8 10.25 43.0 15.65 L42.6 16.35 41.8 17.9 41.9 18.0 43.65 20.3 Q47.25 25.9 45.8 32.3 44.35 38.6 38.75 42.1 L38.8 42.1 Q33.6 45.4 27.55 44.35 L27.5 44.35 27.2 46.05 Q25.7 45.85 18.1 43.15 L12.5 41.2 10.75 43.15 Q8.15 46.1 6.9 48.3 L10.45 40.35 14.05 32.3 14.05 32.45 13.6 35.6 13.35 38.5 Q13.35 39.55 16.55 41.3 20.1 43.25 23.35 43.25 L23.7 43.2 Q20.5 41.65 18.2 38.85 L17.0 37.2 16.95 37.15 Q15.6 35.0 15.05 32.7 L15.1 32.75 14.75 31.05 12.5 31.95 10.95 32.6 12.9 19.25 Q12.85 12.5 13.45 10.6 13.95 9.2 14.3 8.85 14.6 8.5 15.2 8.5 17.25 8.5 20.7 10.75 L25.2 13.8 25.5 13.7 Q28.45 12.75 31.7 13.0 L33.25 13.25 32.6 11.95 Q31.65 10.35 30.75 10.35 L29.8 11.2 Q28.95 12.0 28.15 12.15 L26.9 12.15 27.2 8.75 26.75 -0.45 27.55 4.95 28.3 11.75 28.45 11.6 Q29.65 9.2 30.95 9.2 32.45 9.2 33.15 9.65 L36.65 11.6 37.4 12.0 Q38.75 11.55 41.75 9.9 46.1 7.55 46.65 7.4 L46.8 7.4 M41.6 11.6 L38.65 12.65 36.45 13.15 36.1 13.15 33.8 13.35 36.45 14.25 Q39.1 15.25 41.05 17.2 L41.6 15.15 42.45 11.6 41.6 11.6 M41.8 17.9 L41.2 17.35 41.15 17.3 41.05 17.2 M40.65 17.9 L41.3 18.5 41.35 18.55 43.0 20.75 Q46.35 26.05 45.0 32.1 43.65 38.1 38.35 41.4 L38.35 41.45 Q33.4 44.6 27.7 43.55 L27.05 43.4 27.1 43.4 24.2 42.55 24.25 42.55 Q21.05 41.05 18.8 38.35 L17.65 36.75 Q16.4 34.7 15.85 32.5 L15.5 30.85 15.5 30.8 15.45 30.75 15.4 30.3 15.4 30.1 Q15.25 27.85 15.75 25.5 16.75 20.9 20.0 17.85 20.6 17.2 21.35 16.7 L22.35 16.0 22.3 16.0 Q24.0 14.95 25.75 14.45 28.55 13.55 31.6 13.8 L33.35 14.1 33.3 14.1 33.65 14.15 36.15 15.0 Q38.75 16.0 40.65 17.9 M15.4 30.1 L18.7 27.9 19.2 27.55 19.35 26.6 19.4 26.15 19.65 24.2 20.05 24.55 22.9 26.7 Q25.3 28.4 26.75 28.4 L27.0 28.4 25.7 25.1 25.3 24.2 24.25 22.05 Q23.6 21.35 22.45 21.0 L22.35 21.0 21.95 20.85 21.75 20.7 21.6 21.1 21.1 21.8 21.25 22.05 22.45 22.85 Q24.1 23.8 24.1 25.2 L24.1 25.6 23.55 25.75 Q22.55 25.75 21.15 24.35 L21.6 24.15 21.6 23.8 21.15 23.1 Q21.05 22.95 20.8 22.95 20.55 22.8 20.25 22.8 18.95 22.8 18.45 24.7 17.9 26.8 17.4 27.0 L17.25 25.75 Q17.25 22.45 19.65 19.35 L20.4 18.55 22.0 17.05 Q23.0 16.3 24.1 15.85 L24.55 15.65 24.8 15.8 24.55 16.35 25.65 15.65 27.25 15.15 29.9 14.9 Q32.0 14.8 34.05 15.45 L36.1 16.15 38.9 17.75 40.5 19.15 40.85 19.6 Q43.45 22.45 44.15 27.55 45.05 34.4 40.05 39.1 35.1 43.75 29.8 43.6 L27.75 43.45 Q26.0 43.15 24.45 42.45 22.45 41.5 20.7 39.75 L19.55 38.5 Q18.1 36.75 17.3 34.9 16.7 33.3 16.55 31.7 16.95 33.45 19.75 35.0 22.7 36.6 26.05 36.6 L26.9 36.6 28.1 36.1 29.35 35.4 30.15 34.85 31.2 33.95 Q32.6 32.55 33.15 30.65 L33.35 28.45 33.3 27.55 Q32.8 25.05 29.7 23.3 L29.5 23.45 29.3 23.5 Q28.8 23.7 28.6 24.05 28.3 24.55 28.3 26.0 L28.3 27.05 28.4 28.0 29.0 31.05 30.5 28.9 30.85 28.2 Q30.85 26.95 30.05 26.35 L29.65 26.3 29.5 26.0 Q28.85 25.6 28.85 25.1 28.85 24.55 29.3 23.9 L29.9 24.6 30.0 24.55 30.15 24.6 30.25 24.75 30.4 24.85 30.5 25.05 30.5 25.2 31.05 25.65 Q32.0 26.65 32.1 27.65 L32.1 27.7 32.0 27.9 31.45 29.6 30.5 31.9 29.9 32.9 29.45 33.65 Q28.6 34.85 27.8 34.85 25.35 34.85 23.55 33.7 21.6 32.55 21.6 30.7 21.6 29.8 22.5 29.8 23.25 29.8 24.4 31.55 25.45 33.3 26.3 33.3 27.2 33.3 28.6 31.7 L25.1 30.1 Q22.5 28.95 21.1 28.95 19.7 28.95 19.4 29.45 19.0 30.1 18.5 33.3 L18.45 31.55 19.0 28.95 19.15 28.05 18.45 29.25 18.3 29.3 15.5 30.7 15.45 30.75 M25.85 17.05 Q24.45 17.6 23.6 18.25 22.35 19.15 22.3 20.05 L22.35 20.15 Q24.55 20.9 25.65 23.0 L27.4 27.75 27.25 25.65 27.45 24.4 Q27.9 23.3 29.1 22.95 L30.6 22.75 Q32.45 22.75 34.2 24.25 L34.75 24.75 35.25 25.2 36.35 26.6 36.45 27.2 Q37.15 28.7 37.15 30.35 37.15 36.65 29.65 37.2 30.2 37.65 31.75 37.8 L34.9 37.8 37.2 37.65 37.4 37.5 38.1 37.15 Q38.75 36.45 39.45 34.55 40.3 32.3 40.3 30.7 40.3 26.3 36.85 23.8 L35.1 22.75 Q33.2 21.8 31.05 21.8 29.7 21.8 28.75 22.3 L28.25 22.5 27.25 22.75 27.2 22.75 Q26.5 22.75 25.85 21.55 25.3 20.5 25.3 19.8 L25.3 19.7 Q25.45 19.35 26.35 18.9 L26.5 18.8 Q27.9 18.05 29.3 18.05 L31.75 18.65 Q34.2 19.45 35.05 19.95 L34.25 17.75 33.5 16.15 32.3 15.85 31.05 15.75 28.65 16.1 25.85 17.05 M25.2 13.8 Q23.55 14.3 21.9 15.3 L21.9 15.35 20.9 16.05 20.8 16.1 19.45 17.3 19.45 17.25 Q16.05 20.5 14.95 25.35 14.4 27.85 14.6 30.3 L14.6 30.35 14.6 30.45 14.75 31.0 14.7 30.95 14.75 31.05 M21.1 21.8 L20.75 22.1 20.35 22.15 20.1 22.1 20.05 22.05 19.9 21.9 19.7 21.7 19.7 20.85 19.9 19.8 20.9 18.9 21.15 18.8 Q21.45 18.9 21.6 19.1 L22.35 18.45 23.15 17.9 23.35 17.7 23.85 17.05 24.55 16.35 M21.75 20.7 L21.8 19.85 21.8 19.5 21.6 19.1 M23.15 17.9 L22.0 19.15 21.8 19.5 M29.5 26.0 L29.45 25.9 29.45 25.25 29.8 24.6 29.9 24.6 M33.8 13.35 L33.7 13.35 33.6 13.35 33.55 13.35 33.5 13.3 33.25 13.25 M20.8 16.1 Q17.2 13.4 15.55 12.85 13.8 16.2 13.2 23.1 L13.0 25.25 13.2 27.9 13.9 30.65 14.6 30.45 M30.5 25.2 L30.5 25.4 30.5 25.75 30.4 26.25 30.25 26.3 30.15 26.35 30.05 26.35 M29.0 31.05 L29.1 31.4 29.1 31.9 28.6 31.7 M23.7 43.2 L23.9 43.3 26.9 44.2 26.95 44.2 27.45 44.35 27.5 44.35" fill="none" stroke="#ffffff" stroke-linecap="round" stroke-linejoin="round" stroke-width="6.0"/>
      <path d="M15.1 30.9 L12.5 31.95 10.95 32.6 12.9 19.25 Q12.85 12.5 13.45 10.6 13.95 9.2 14.3 8.85 14.6 8.5 15.2 8.5 17.25 8.5 20.7 10.75 L25.6 14.05 Q23.85 14.6 22.1 15.65 L21.1 16.35 Q17.3 13.4 15.55 12.85 13.8 16.2 13.2 23.1 L13.0 25.25 13.2 27.9 13.9 30.65 15.0 30.3 15.1 30.9 15.0 30.3 15.3 30.15 18.7 27.9 19.2 27.55 19.35 26.6 19.4 26.15 19.65 24.2 20.05 24.55 22.9 26.7 Q25.3 28.4 26.75 28.4 L27.0 28.4 25.7 25.1 25.3 24.2 24.25 22.05 Q23.6 21.35 22.45 21.0 L22.35 21.0 21.95 20.85 21.75 20.7 21.8 19.85 21.8 19.5 22.0 19.15 23.15 17.9 23.35 17.7 23.85 17.05 24.55 16.35 25.65 15.65 27.25 15.15 29.9 14.9 Q32.0 14.8 34.05 15.45 L36.1 16.15 38.9 17.75 40.5 19.15 40.85 19.6 Q43.45 22.45 44.15 27.55 45.05 34.4 40.05 39.1 35.1 43.75 29.8 43.6 L27.75 43.45 Q26.0 43.15 24.45 42.45 22.45 41.5 20.7 39.75 L19.55 38.5 Q18.1 36.75 17.3 34.9 16.7 33.3 16.55 31.7 16.95 33.45 19.75 35.0 22.7 36.6 26.05 36.6 L26.9 36.6 28.1 36.1 29.35 35.4 30.15 34.85 31.2 33.95 Q32.6 32.55 33.15 30.65 L33.35 28.45 33.3 27.55 Q32.8 25.05 29.7 23.3 L29.5 23.45 29.3 23.5 Q28.8 23.7 28.6 24.05 28.3 24.55 28.3 26.0 L28.3 27.05 28.4 28.0 29.0 31.05 29.1 31.4 29.1 31.9 28.6 31.7 25.1 30.1 Q22.5 28.95 21.1 28.95 19.7 28.95 19.4 29.45 19.0 30.1 18.5 33.3 L18.45 31.55 19.0 28.95 19.15 28.05 18.45 29.25 18.3 29.3 15.5 30.7 15.1 30.9 M40.9 17.6 L41.6 15.15 42.45 11.6 41.6 11.6 38.65 12.65 36.45 13.15 36.1 13.15 33.3 13.35 32.6 11.95 Q31.65 10.35 30.75 10.35 L29.8 11.2 Q28.95 12.0 28.15 12.15 L26.9 12.15 27.2 8.75 26.75 -0.45 27.55 4.95 28.3 11.75 28.45 11.6 Q29.65 9.2 30.95 9.2 32.45 9.2 33.15 9.65 L36.65 11.6 37.4 12.0 Q38.75 11.55 41.75 9.9 46.1 7.55 46.65 7.4 L46.8 7.4 Q45.8 10.25 43.0 15.65 L42.6 16.35 41.6 18.25 40.9 17.6 M27.6 43.95 L27.2 46.05 Q25.7 45.85 18.1 43.15 L12.5 41.2 10.75 43.15 Q8.15 46.1 6.9 48.3 L10.45 40.35 14.05 32.3 14.05 32.45 13.6 35.6 13.35 38.5 Q13.35 39.55 16.55 41.3 20.1 43.25 23.35 43.25 23.7 43.25 24.05 42.9 L27.0 43.8 27.6 43.95 M34.25 17.75 L33.5 16.15 32.3 15.85 31.05 15.75 28.65 16.1 25.85 17.05 Q24.45 17.6 23.6 18.25 22.35 19.15 22.3 20.05 L22.35 20.15 Q24.55 20.9 25.65 23.0 L27.4 27.75 27.25 25.65 27.45 24.4 Q27.9 23.3 29.1 22.95 L30.6 22.75 Q32.45 22.75 34.2 24.25 L34.75 24.75 35.25 25.2 36.35 26.6 36.45 27.2 Q37.15 28.7 37.15 30.35 37.15 36.65 29.65 37.2 30.2 37.65 31.75 37.8 L34.9 37.8 37.2 37.65 37.4 37.5 38.1 37.15 Q38.75 36.45 39.45 34.55 40.3 32.3 40.3 30.7 40.3 26.3 36.85 23.8 L35.1 22.75 Q33.2 21.8 31.05 21.8 29.7 21.8 28.75 22.3 L28.25 22.5 27.25 22.75 27.2 22.75 Q26.5 22.75 25.85 21.55 25.3 20.5 25.3 19.8 L25.3 19.7 Q25.45 19.35 26.35 18.9 L26.5 18.8 Q27.9 18.05 29.3 18.05 L31.75 18.65 Q34.2 19.45 35.05 19.95 L34.25 17.75" fill="#5b0019" fill-rule="evenodd" stroke="none"/>
      <path d="M25.6 14.05 Q28.5 13.15 31.65 13.4 L33.4 13.7 33.7 13.75 Q35.05 14.05 36.3 14.6 38.95 15.65 40.9 17.6 L41.6 18.25 43.3 20.5 Q46.8 25.95 45.4 32.2 44.0 38.35 38.55 41.75 33.5 45.0 27.6 43.95 L27.0 43.8 24.05 42.9 Q20.8 41.4 18.5 38.6 L17.3 36.95 Q16.0 34.85 15.45 32.6 15.2 31.75 15.1 30.9 L15.5 30.7 18.3 29.3 18.45 29.25 19.15 28.05 19.0 28.95 18.45 31.55 18.5 33.3 Q19.0 30.1 19.4 29.45 19.7 28.95 21.1 28.95 22.5 28.95 25.1 30.1 L28.6 31.7 Q27.2 33.3 26.3 33.3 25.45 33.3 24.4 31.55 23.25 29.8 22.5 29.8 21.6 29.8 21.6 30.7 21.6 32.55 23.55 33.7 25.35 34.85 27.8 34.85 28.6 34.85 29.45 33.65 L29.9 32.9 30.5 31.9 31.45 29.6 32.0 27.9 32.1 27.7 32.1 27.65 Q32.0 26.65 31.05 25.65 L30.5 25.2 30.5 25.05 30.4 24.85 30.25 24.75 30.15 24.6 30.0 24.55 29.9 24.6 29.3 23.9 Q28.85 24.55 28.85 25.1 28.85 25.6 29.5 26.0 L29.65 26.3 30.05 26.35 Q30.85 26.95 30.85 28.2 L30.5 28.9 29.0 31.05 28.4 28.0 28.3 27.05 28.3 26.0 Q28.3 24.55 28.6 24.05 28.8 23.7 29.3 23.5 L29.5 23.45 29.7 23.3 Q32.8 25.05 33.3 27.55 L33.35 28.45 33.15 30.65 Q32.6 32.55 31.2 33.95 L30.15 34.85 29.35 35.4 28.1 36.1 26.9 36.6 26.05 36.6 Q22.7 36.6 19.75 35.0 16.95 33.45 16.55 31.7 16.7 33.3 17.3 34.9 18.1 36.75 19.55 38.5 L20.7 39.75 Q22.45 41.5 24.45 42.45 26.0 43.15 27.75 43.45 L29.8 43.6 Q35.1 43.75 40.05 39.1 45.05 34.4 44.15 27.55 43.45 22.45 40.85 19.6 L40.5 19.15 38.9 17.75 36.1 16.15 34.05 15.45 Q32.0 14.8 29.9 14.9 L27.25 15.15 25.65 15.65 24.55 16.35 24.8 15.8 24.55 15.65 24.1 15.85 Q23.0 16.3 22.0 17.05 L20.4 18.55 19.65 19.35 Q17.25 22.45 17.25 25.75 L17.4 27.0 Q17.9 26.8 18.45 24.7 18.95 22.8 20.25 22.8 20.55 22.8 20.8 22.95 21.05 22.95 21.15 23.1 L21.6 23.8 21.6 24.15 21.15 24.35 Q22.55 25.75 23.55 25.75 L24.1 25.6 24.1 25.2 Q24.1 23.8 22.45 22.85 L21.25 22.05 21.1 21.8 21.6 21.1 21.75 20.7 21.95 20.85 22.35 21.0 22.45 21.0 Q23.6 21.35 24.25 22.05 L25.3 24.2 25.7 25.1 27.0 28.4 26.75 28.4 Q25.3 28.4 22.9 26.7 L20.05 24.55 19.65 24.2 19.4 26.15 19.35 26.6 19.2 27.55 18.7 27.9 15.3 30.15 15.0 30.3 Q14.8 27.9 15.35 25.4 16.4 20.7 19.7 17.55 L21.1 16.35 22.1 15.65 Q23.85 14.6 25.6 14.05 M21.6 19.1 L22.35 18.45 23.15 17.9 22.0 19.15 21.8 19.5 21.6 19.1" fill="#b60032" fill-rule="evenodd" stroke="none"/>
      <path d="M34.25 17.75 L35.05 19.95 Q34.2 19.45 31.75 18.65 L29.3 18.05 Q27.9 18.05 26.5 18.8 L26.35 18.9 Q25.45 19.35 25.3 19.7 L25.3 19.8 Q25.3 20.5 25.85 21.55 26.5 22.75 27.2 22.75 L27.25 22.75 28.25 22.5 28.75 22.3 Q29.7 21.8 31.05 21.8 33.2 21.8 35.1 22.75 L36.85 23.8 Q40.3 26.3 40.3 30.7 40.3 32.3 39.45 34.55 38.75 36.45 38.1 37.15 L37.4 37.5 37.2 37.65 34.9 37.8 31.75 37.8 Q30.2 37.65 29.65 37.2 37.15 36.65 37.15 30.35 37.15 28.7 36.45 27.2 L36.35 26.6 35.25 25.2 34.75 24.75 34.2 24.25 Q32.45 22.75 30.6 22.75 L29.1 22.95 Q27.9 23.3 27.45 24.4 L27.25 25.65 27.4 27.75 25.65 23.0 Q24.55 20.9 22.35 20.15 L22.3 20.05 Q22.35 19.15 23.6 18.25 24.45 17.6 25.85 17.05 L28.65 16.1 31.05 15.75 32.3 15.85 33.5 16.15 34.25 17.75" fill="#25000a" fill-rule="evenodd" stroke="none"/>
      <path d="M30.05 26.35 L29.65 26.3 29.5 26.0 29.45 25.9 29.45 25.25 29.8 24.6 29.9 24.6 30.0 24.55 30.15 24.6 30.25 24.75 30.4 24.85 30.5 25.05 30.5 25.2 30.5 25.4 30.5 25.75 30.4 26.25 30.25 26.3 30.15 26.35 30.05 26.35 M21.1 21.8 L20.75 22.1 20.35 22.15 20.1 22.1 20.05 22.05 19.9 21.9 19.7 21.7 19.7 20.85 19.9 19.8 20.9 18.9 21.15 18.8 Q21.45 18.9 21.6 19.1 L21.8 19.5 21.8 19.85 21.75 20.7 21.6 21.1 21.1 21.8" fill="#e5e5e5" fill-rule="evenodd" stroke="none"/>
      <path d="M29.0 31.05 L30.5 28.9 30.85 28.2 Q30.85 26.95 30.05 26.35 L30.15 26.35 30.25 26.3 30.4 26.25 30.5 25.75 30.5 25.4 30.5 25.2 31.05 25.65 Q32.0 26.65 32.1 27.65 L32.1 27.7 32.0 27.9 31.45 29.6 30.5 31.9 29.9 32.9 29.45 33.65 Q28.6 34.85 27.8 34.85 25.35 34.85 23.55 33.7 21.6 32.55 21.6 30.7 21.6 29.8 22.5 29.8 23.25 29.8 24.4 31.55 25.45 33.3 26.3 33.3 27.2 33.3 28.6 31.7 L29.1 31.9 29.1 31.4 29.0 31.05 M29.5 26.0 Q28.85 25.6 28.85 25.1 28.85 24.55 29.3 23.9 L29.9 24.6 29.8 24.6 29.45 25.25 29.45 25.9 29.5 26.0 M24.55 16.35 L23.85 17.05 23.35 17.7 23.15 17.9 22.35 18.45 21.6 19.1 Q21.45 18.9 21.15 18.8 L20.9 18.9 19.9 19.8 19.7 20.85 19.7 21.7 19.9 21.9 20.05 22.05 20.1 22.1 20.35 22.15 20.75 22.1 21.1 21.8 21.25 22.05 22.45 22.85 Q24.1 23.8 24.1 25.2 L24.1 25.6 23.55 25.75 Q22.55 25.75 21.15 24.35 L21.6 24.15 21.6 23.8 21.15 23.1 Q21.05 22.95 20.8 22.95 20.55 22.8 20.25 22.8 18.95 22.8 18.45 24.7 17.9 26.8 17.4 27.0 L17.25 25.75 Q17.25 22.45 19.65 19.35 L20.4 18.55 22.0 17.05 Q23.0 16.3 24.1 15.85 L24.55 15.65 24.8 15.8 24.55 16.35" fill="#ff0e50" fill-rule="evenodd" stroke="none"/>
      <path d="M25.6 14.05 Q28.5 13.15 31.65 13.4 L33.4 13.7 33.7 13.75 Q35.05 14.05 36.3 14.6 38.95 15.65 40.9 17.6 L41.6 18.25 43.3 20.5 Q46.8 25.95 45.4 32.2 44.0 38.35 38.55 41.75 33.5 45.0 27.6 43.95 L27.0 43.8 24.05 42.9 Q20.8 41.4 18.5 38.6 L17.3 36.95 Q16.0 34.85 15.45 32.6 15.2 31.75 15.1 30.9 L15.0 30.3 Q14.8 27.9 15.35 25.4 16.4 20.7 19.7 17.55 L21.1 16.35 22.1 15.65 Q23.85 14.6 25.6 14.05 Z" fill="none" stroke="#7e0022" stroke-linecap="round" stroke-linejoin="round" stroke-width="0.8"/>
    </g>
  </defs>
</svg>
