<?xml version="1.0" encoding="UTF-8" standalone="no"?>
<svg xmlns:ffdec="https://www.free-decompiler.com/flash" xmlns:xlink="http://www.w3.org/1999/xlink" ffdec:objectType="frame" height="30.1px" width="30.0px" xmlns="http://www.w3.org/2000/svg">
  <g transform="matrix(1.0, 0.0, 0.0, 1.0, 0.0, 0.0)">
    <use ffdec:characterId="1" height="30.0" transform="matrix(1.0, 0.0, 0.0, 1.0, 0.0, 0.0)" width="30.0" xlink:href="#shape0"/>
    <use ffdec:characterId="8" height="30.0" transform="matrix(1.0, 0.0, 0.0, 1.0, 0.0, 0.1)" width="30.0" xlink:href="#sprite0"/>
  </g>
  <defs>
    <g id="shape0" transform="matrix(1.0, 0.0, 0.0, 1.0, 0.0, 0.0)">
      <path d="M0.0 0.0 L30.0 0.0 30.0 30.0 0.0 30.0 0.0 0.0" fill="#33cc66" fill-opacity="0.0" fill-rule="evenodd" stroke="none"/>
    </g>
    <g id="sprite0" transform="matrix(1.0, 0.0, 0.0, 1.0, 0.0, 0.0)">
      <use ffdec:characterId="2" height="30.0" transform="matrix(1.0, 0.0, 0.0, 1.0, 0.0, 0.0)" width="30.0" xlink:href="#shape1"/>
      <filter id="filter1">
        <feColorMatrix in="SourceGraphic" result="filterResult5" type="matrix" values="0 0 0 0 1.0,0 0 0 0 1.0,0 0 0 0 1.0,0 0 0 1 0"/>
        <feConvolveMatrix divisor="25.0" in="filterResult5" kernelMatrix="1 1 1 1 1 1 1 1 1 1 1 1 1 1 1 1 1 1 1 1 1 1 1 1 1" order="5 5" result="filterResult6"/>
        <feComposite in="SourceGraphic" in2="filterResult6" operator="over" result="filterResult7"/>
      </filter>
      <use ffdec:characterId="7" filter="url(#filter1)" height="55.1" transform="matrix(0.3961, 0.0, 0.0, 0.3961, 4.402, 5.352)" width="55.4" xlink:href="#sprite1"/>
    </g>
    <g id="shape1" transform="matrix(1.0, 0.0, 0.0, 1.0, 0.0, 0.0)">
      <path d="M27.95 0.15 Q30.0 0.7 30.0 3.3 L30.0 26.7 29.8 28.15 Q29.15 30.0 26.7 30.0 L3.3 30.0 2.4 29.95 Q0.7 29.65 0.2 28.15 L0.0 26.7 0.0 3.3 Q0.0 0.7 2.05 0.15 L2.4 0.1 3.3 0.0 26.7 0.0 27.95 0.15" fill="#cccccc" fill-rule="evenodd" stroke="none"/>
    </g>
    <g id="sprite1" transform="matrix(1.0, 0.0, 0.0, 1.0, 0.5, 0.5)">
      <use ffdec:characterId="3" height="55.1" transform="matrix(1.0, 0.0, 0.0, 1.0, -0.5, -0.5)" width="55.4" xlink:href="#shape2"/>
      <filter id="filter0">
        <feFlood flood-color="#ff0000" flood-opacity="1.0" result="filterResult0"/>
        <feComposite in="filterResult0" in2="SourceGraphic" operator="out" result="filterResult1"/>
        <feConvolveMatrix divisor="25.0" in="filterResult1" kernelMatrix="1 1 1 1 1 1 1 1 1 1 1 1 1 1 1 1 1 1 1 1 1 1 1 1 1" order="5 5" result="filterResult2"/>
        <feComposite in="filterResult2" in2="SourceGraphic" operator="in" result="filterResult3"/>
        <feComposite in="filterResult3" in2="SourceGraphic" operator="over" result="filterResult4"/>
      </filter>
      <use ffdec:characterId="5" filter="url(#filter0)" height="43.1" transform="matrix(0.7727, -0.0088, 0.0, 0.7727, 7.5, 9.3)" width="49.85" xlink:href="#sprite2"/>
      <use ffdec:characterId="6" height="34.3" transform="matrix(1.0, 0.0, 0.0, 1.0, 6.7, 8.9)" width="39.55" xlink:href="#shape4"/>
    </g>
    <g id="shape2" transform="matrix(1.0, 0.0, 0.0, 1.0, 0.5, 0.5)">
      <path d="M42.65 10.55 L47.4 9.95 54.05 23.2 Q50.15 22.95 48.2 19.65 46.05 14.65 43.8 11.85 L42.65 10.55" fill="#3b5170" fill-rule="evenodd" stroke="none"/>
      <path d="M33.75 0.85 L33.0 2.35 32.95 3.3 36.95 5.85 Q39.7 7.7 41.65 9.55 L31.55 3.7 32.95 0.65 33.75 0.85 M42.65 10.55 L43.8 11.85 Q46.05 14.65 48.2 19.65 50.15 22.95 54.05 23.2 L54.4 23.9 50.3 24.05 49.55 24.1 47.6 20.35 42.65 10.55 M15.6 40.8 Q18.95 41.9 20.85 44.45 L21.4 45.65 12.1 41.45 12.05 41.4 6.2 28.8 6.25 27.65 Q9.15 29.5 10.85 35.1 11.8 38.2 12.4 39.2 L13.2 40.2 Q13.95 40.95 15.05 40.9 L15.6 40.8 M15.7 6.45 Q20.7 3.1 25.4 2.8 L26.1 2.8 26.8 3.05 24.7 3.75 23.6 4.1 Q17.65 5.85 16.6 6.9 16.25 6.95 15.85 6.6 L15.7 6.45 M13.4 8.2 L13.65 8.55 13.4 8.65 4.7 20.2 1.6 16.4 2.75 14.7 4.25 17.15 4.85 18.35 5.0 18.35 Q7.65 12.65 13.4 8.2" fill="#a9c2d2" fill-rule="evenodd" stroke="none"/>
      <path d="M42.55 10.4 L42.65 10.55 47.6 20.35 Q44.5 18.05 39.0 14.55 29.45 8.5 26.0 8.05 L26.0 8.2 24.65 8.05 21.9 8.35 23.9 5.0 Q26.85 4.0 29.75 2.95 L30.5 0.2 31.15 0.2 32.95 0.65 31.55 3.7 41.65 9.55 42.55 10.4" fill="#391d19" fill-rule="evenodd" stroke="none"/>
      <path d="M47.4 9.95 L42.65 10.55 42.55 10.4 42.3 9.9 41.65 9.55 Q39.7 7.7 36.95 5.85 L32.95 3.3 33.0 2.35 33.75 0.85 36.85 1.65 46.0 7.1 47.4 9.95" fill="#a4bed0" fill-rule="evenodd" stroke="none"/>
      <path d="M47.6 20.35 L49.55 24.1 50.3 24.05 Q47.35 28.35 44.9 30.95 41.55 34.55 40.7 35.7 L40.55 35.85 45.25 35.7 42.3 39.45 39.1 45.65 25.0 54.1 11.15 42.6 12.1 41.45 21.4 45.65 20.85 44.45 Q18.95 41.9 15.6 40.8 L14.85 40.65 14.4 38.9 Q15.95 37.15 17.2 36.15 L18.7 38.25 26.4 42.3 27.25 41.55 27.5 43.0 27.95 45.6 34.95 40.05 36.3 39.0 36.5 34.15 45.7 22.25 34.7 13.05 25.25 9.0 20.9 10.35 21.4 9.2 21.9 8.35 24.65 8.05 26.0 8.2 26.0 8.05 Q29.45 8.5 39.0 14.55 44.5 18.05 47.6 20.35" fill="#3a2632" fill-rule="evenodd" stroke="none"/>
      <path d="M45.25 35.7 L40.55 35.85 40.7 35.7 Q41.55 34.55 44.9 30.95 47.35 28.35 50.3 24.05 L54.4 23.9 45.25 35.7" fill="#303a31" fill-rule="evenodd" stroke="none"/>
      <path d="M26.8 3.05 L26.1 2.8 25.4 2.8 Q20.7 3.1 15.7 6.45 L13.25 2.65 19.55 0.0 28.85 0.2 28.95 1.55 28.95 1.7 28.7 2.0 26.8 3.05" fill="#948d87" fill-rule="evenodd" stroke="none"/>
      <path d="M15.7 6.45 L15.85 6.6 Q16.25 6.95 16.6 6.9 17.65 5.85 23.6 4.1 L24.7 3.75 26.8 3.05 28.7 2.0 28.95 1.7 28.95 1.55 28.85 0.2 30.5 0.2 29.75 2.95 Q26.85 4.0 23.9 5.0 L13.65 8.55 13.4 8.2 13.85 7.8 15.7 6.45 M1.6 16.4 L4.7 20.2 13.4 8.65 13.65 8.55 Q15.0 10.35 15.8 12.05 L7.15 22.55 8.45 24.25 7.4 25.45 7.35 25.55 6.5 25.15 6.35 26.8 5.85 27.5 Q4.45 29.4 4.25 30.4 L4.05 30.4 2.95 26.7 Q2.35 24.95 0.35 22.3 L0.15 22.0 0.4 18.15 1.6 16.4" fill="#42373d" fill-rule="evenodd" stroke="none"/>
      <path d="M21.9 8.35 L21.4 9.2 20.9 10.35 15.9 11.9 15.8 12.05 Q15.0 10.35 13.65 8.55 L23.9 5.0 21.9 8.35" fill="#513544" fill-rule="evenodd" stroke="none"/>
      <path d="M36.5 34.15 L36.3 39.0 34.95 40.05 34.85 39.6 Q34.65 39.15 34.05 39.15 32.75 39.15 31.0 40.45 L27.5 43.0 27.25 41.55 32.7 36.8 35.4 24.45 31.35 17.85 20.8 17.45 16.45 20.05 20.1 23.65 23.75 22.55 24.1 27.05 26.2 28.0 30.5 24.05 32.75 25.5 27.7 33.45 22.25 31.55 13.45 23.95 13.95 20.8 19.7 14.1 24.65 12.75 31.9 13.35 37.75 20.65 36.5 34.15 M30.05 13.95 L29.35 13.9 28.85 13.85 27.85 13.85 26.9 14.0 25.9 14.1 25.4 14.15 Q25.1 14.15 24.95 14.3 L24.95 14.35 Q25.45 14.8 26.4 14.55 L27.1 14.4 28.55 14.35 31.0 14.45 31.0 14.4 Q31.1 14.05 30.6 14.0 L30.05 13.95 M17.3 24.55 Q16.5 24.0 15.5 24.15 15.6 24.8 16.4 25.15 L18.35 26.1 19.5 26.85 20.25 27.75 20.55 28.05 21.8 28.1 21.8 27.95 21.7 27.8 20.35 26.5 Q19.7 25.85 18.85 25.5 L17.3 24.55 M36.7 27.0 L35.7 26.95 35.7 27.95 35.7 29.2 35.55 30.55 35.4 31.9 35.35 32.4 36.35 32.45 36.4 31.5 36.55 30.2 36.7 28.85 36.7 27.5 36.7 27.05 36.7 27.0" fill="#301422" fill-rule="evenodd" stroke="none"/>
      <path d="M30.05 13.95 L30.6 14.0 Q31.1 14.05 31.0 14.4 L31.0 14.45 28.55 14.35 27.1 14.4 26.4 14.55 Q25.45 14.8 24.95 14.35 L24.95 14.3 Q25.1 14.15 25.4 14.15 L25.9 14.1 26.9 14.0 27.85 13.85 28.85 13.85 29.35 13.9 30.05 13.95 M17.3 24.55 L18.85 25.5 Q19.7 25.85 20.35 26.5 L21.7 27.8 21.8 27.95 21.8 28.1 20.55 28.05 20.25 27.75 19.5 26.85 18.35 26.1 16.4 25.15 Q15.6 24.8 15.5 24.15 16.5 24.0 17.3 24.55 M36.7 27.0 L36.7 27.05 36.7 27.5 36.7 28.85 36.55 30.2 36.4 31.5 36.35 32.45 35.35 32.4 35.4 31.9 35.55 30.55 35.7 29.2 35.7 27.95 35.7 26.95 36.7 27.0" fill="#354b5e" fill-rule="evenodd" stroke="none"/>
      <path d="M13.25 2.65 L15.7 6.45 13.85 7.8 13.4 8.2 Q7.65 12.65 5.0 18.35 L4.85 18.35 4.25 17.15 2.75 14.7 10.1 4.0 Q11.7 3.35 13.25 2.65" fill="#917d7c" fill-rule="evenodd" stroke="none"/>
      <path d="M12.1 41.45 L11.15 42.6 10.6 42.2 0.0 24.1 0.15 22.0 0.35 22.3 Q2.35 24.95 2.95 26.7 L4.05 30.4 4.25 30.4 Q4.45 29.4 5.85 27.5 L6.35 26.8 6.25 27.65 6.2 28.8 12.05 41.4 12.1 41.45" fill="#2d0000" fill-rule="evenodd" stroke="none"/>
      <path d="M14.4 38.9 L14.85 40.65 15.6 40.8 15.05 40.9 Q13.95 40.95 13.2 40.2 L12.4 39.2 Q11.8 38.2 10.85 35.1 9.15 29.5 6.25 27.65 L6.35 26.8 6.5 25.15 7.35 25.55 Q11.25 27.75 14.4 38.9" fill="#59778a" fill-rule="evenodd" stroke="none"/>
      <path d="M17.2 36.15 Q15.95 37.15 14.4 38.9 11.25 27.75 7.35 25.55 L7.4 25.45 8.45 24.25 17.2 36.15" fill="#381615" fill-rule="evenodd" stroke="none"/>
      <path d="M34.95 40.05 L27.95 45.6 27.5 43.0 31.0 40.45 Q32.75 39.15 34.05 39.15 34.65 39.15 34.85 39.6 L34.95 40.05" fill="#615d5c" fill-rule="evenodd" stroke="none"/>
      <path d="M47.4 9.95 L46.0 7.1 36.85 1.65 33.75 0.85 32.95 0.65 31.15 0.2 30.5 0.2 28.85 0.2 19.55 0.0 13.25 2.65 Q11.7 3.35 10.1 4.0 L2.75 14.7 1.6 16.4 0.4 18.15 0.15 22.0 0.0 24.1 10.6 42.2 11.15 42.6 25.0 54.1 39.1 45.65 42.3 39.45 45.25 35.7 54.4 23.9 54.05 23.2 47.4 9.95 Z" fill="none" stroke="#000000" stroke-linecap="round" stroke-linejoin="round" stroke-width="1.0"/>
    </g>
    <g id="sprite2" transform="matrix(1.0, 0.0, 0.0, 1.0, 0.0, 0.0)">
      <use ffdec:characterId="4" height="43.1" transform="matrix(1.0, 0.0, 0.0, 1.0, 0.0, 0.0)" width="49.85" xlink:href="#shape3"/>
    </g>
    <g id="shape3" transform="matrix(1.0, 0.0, 0.0, 1.0, 0.0, 0.0)">
      <path d="M23.4 0.0 L35.65 5.4 49.85 17.4 37.95 32.7 39.6 15.3 32.0 5.7 22.65 4.85 16.25 6.55 8.8 15.05 8.15 19.15 19.5 29.15 26.55 31.65 33.1 21.5 30.2 19.55 24.65 24.6 21.95 23.35 21.45 17.45 16.75 18.9 12.0 14.15 17.65 10.9 31.3 11.5 36.55 20.1 33.05 36.1 24.9 43.1 14.95 37.7 0.0 17.3 11.3 3.65 23.4 0.0" fill="#ff6133" fill-rule="evenodd" stroke="none"/>
    </g>
    <g id="shape4" transform="matrix(1.0, 0.0, 0.0, 1.0, -6.7, -8.9)">
      <path d="M31.95 13.75 L37.8 21.05 36.55 34.55 45.75 22.6 34.75 13.45 25.3 9.4 15.95 12.3 7.2 22.95 18.75 38.6 26.45 42.7 32.75 37.2 35.45 24.8 31.4 18.2 20.85 17.85 16.5 20.4 20.15 24.05 23.8 22.85 24.2 27.45 26.25 28.4 30.55 24.45 32.8 25.9 27.75 33.85 22.3 31.95 13.5 24.35 14.0 21.15 19.8 14.5 24.7 13.15 31.95 13.75 Z" fill="none" stroke="#000000" stroke-linecap="round" stroke-linejoin="round" stroke-width="1.0"/>
    </g>
  </defs>
</svg>
