<?xml version="1.0" encoding="UTF-8" standalone="no"?>
<svg xmlns:ffdec="https://www.free-decompiler.com/flash" xmlns:xlink="http://www.w3.org/1999/xlink" ffdec:objectType="frame" height="30.1px" width="30.0px" xmlns="http://www.w3.org/2000/svg">
  <g transform="matrix(1.0, 0.0, 0.0, 1.0, 0.0, 0.0)">
    <use ffdec:characterId="1" height="30.0" transform="matrix(1.0, 0.0, 0.0, 1.0, 0.0, 0.0)" width="30.0" xlink:href="#shape0"/>
    <use ffdec:characterId="3" height="30.0" transform="matrix(1.0, 0.0, 0.0, 1.0, 0.0, 0.1)" width="30.0" xlink:href="#sprite0"/>
  </g>
  <defs>
    <g id="shape0" transform="matrix(1.0, 0.0, 0.0, 1.0, 0.0, 0.0)">
      <path d="M0.0 0.0 L30.0 0.0 30.0 30.0 0.0 30.0 0.0 0.0" fill="#33cc66" fill-opacity="0.0" fill-rule="evenodd" stroke="none"/>
    </g>
    <g id="sprite0" transform="matrix(1.0, 0.0, 0.0, 1.0, 0.0, 0.0)">
      <use ffdec:characterId="2" height="30.0" transform="matrix(1.0, 0.0, 0.0, 1.0, 0.0, 0.0)" width="30.0" xlink:href="#shape1"/>
    </g>
    <g id="shape1" transform="matrix(1.0, 0.0, 0.0, 1.0, 0.0, 0.0)">
      <path d="M27.95 0.15 Q30.0 0.7 30.0 3.3 L30.0 26.7 29.8 28.15 Q29.15 30.0 26.7 30.0 L3.3 30.0 2.4 29.95 Q0.7 29.65 0.2 28.15 L0.0 26.7 0.0 3.3 Q0.0 0.7 2.05 0.15 L2.4 0.1 3.3 0.0 26.7 0.0 27.95 0.15" fill="#cccccc" fill-rule="evenodd" stroke="none"/>
      <path d="M20.75 10.5 L22.05 11.7 18.9 12.3 18.0 11.2 20.75 10.5 M14.5 12.65 L13.4 12.65 Q12.65 11.9 11.75 11.55 L13.35 10.8 13.9 11.2 14.55 11.25 14.45 12.5 14.5 12.65 M22.1 14.35 L23.4 14.2 24.05 15.55 23.1 15.75 20.6 16.15 19.55 14.6 21.3 14.45 22.1 14.35 M25.55 18.85 L25.75 20.6 24.4 20.7 21.15 20.8 20.25 19.35 20.35 19.35 23.4 19.15 23.7 19.15 25.55 18.85 M10.05 19.05 Q8.2 17.1 5.0 17.95 L6.45 15.95 8.25 16.65 Q9.95 17.4 10.95 18.1 L11.7 18.65 10.65 18.45 10.05 19.05 M8.25 14.1 L8.1 14.15 9.8 12.65 10.95 13.35 12.35 14.2 12.8 14.4 13.7 14.65 13.55 15.95 13.0 15.9 11.65 14.85 Q10.55 14.0 8.25 14.1" fill="#ffc34f" fill-rule="evenodd" stroke="none"/>
      <path d="M18.9 12.3 L22.05 11.7 20.75 10.5 20.2 10.1 19.7 9.6 20.2 10.1 18.5 10.5 17.9 10.65 17.55 10.7 16.75 10.7 15.9 10.7 16.6 10.25 16.85 10.1 17.3 9.8 17.3 9.65 15.7 9.65 16.7 9.15 Q17.55 8.7 18.3 8.4 L19.7 9.6 21.1 9.4 23.25 13.75 25.1 13.8 25.55 18.85 23.7 19.15 23.4 19.15 Q22.1 17.9 19.4 17.25 L18.5 17.1 17.65 16.25 20.6 16.15 23.1 15.75 24.05 15.55 23.4 14.2 22.1 14.35 Q21.55 13.75 20.8 13.5 L19.25 13.15 18.3 13.1 17.95 13.1 17.75 13.1 14.5 13.25 13.0 13.35 Q12.2 13.35 12.2 12.8 12.2 12.15 11.25 12.1 L10.7 12.05 9.65 12.0 Q10.3 11.65 11.05 11.35 L11.75 11.55 Q12.65 11.9 13.4 12.65 L14.5 12.65 17.5 12.45 17.75 12.45 18.9 12.3 M23.25 13.75 L23.4 14.2 23.25 13.75 M6.45 15.2 Q7.25 14.65 8.0 14.25 L8.25 14.1 Q10.55 14.0 11.65 14.85 L13.0 15.9 13.55 15.95 13.55 16.25 13.5 16.65 12.75 16.65 Q10.4 16.75 8.85 15.8 L7.05 15.3 6.45 15.2 M16.75 10.7 L16.9 10.7 16.8 10.6 16.75 10.7" fill="#a84c32" fill-rule="evenodd" stroke="none"/>
      <path d="M20.75 10.5 L18.0 11.2 17.85 11.2 17.35 11.2 14.55 11.25 13.9 11.2 13.35 10.8 Q14.3 10.35 15.7 9.65 L17.3 9.65 17.3 9.8 16.85 10.1 16.6 10.25 15.9 10.7 16.75 10.7 17.55 10.7 17.9 10.65 18.5 10.5 20.2 10.1 20.75 10.5 M10.7 12.05 L11.25 12.1 Q12.2 12.15 12.2 12.8 12.2 13.35 13.0 13.35 L14.5 13.25 17.75 13.1 17.95 13.1 18.3 13.1 19.25 13.15 20.8 13.5 Q21.55 13.75 22.1 14.35 L21.3 14.45 19.55 14.6 17.55 14.7 16.6 14.7 13.85 14.6 13.7 14.65 12.8 14.4 12.35 14.2 10.95 13.35 9.8 12.65 10.7 12.05 M20.25 19.35 L16.9 19.2 13.95 18.95 11.7 18.65 10.95 18.1 Q9.95 17.4 8.25 16.65 L6.45 15.95 6.55 15.85 7.05 15.3 8.85 15.8 Q10.4 16.75 12.75 16.65 L13.5 16.65 13.55 16.25 13.55 15.95 17.4 16.25 17.65 16.25 18.5 17.1 19.4 17.25 Q22.1 17.9 23.4 19.15 L20.35 19.35 20.25 19.35 M16.75 10.7 L16.8 10.6 16.9 10.7 16.75 10.7" fill="#de8338" fill-rule="evenodd" stroke="none"/>
      <path d="M18.0 11.2 L18.9 12.3 17.75 12.45 17.5 12.45 14.5 12.65 14.45 12.5 14.55 11.25 17.35 11.2 17.85 11.2 18.0 11.2 M21.15 20.8 L16.65 20.65 10.8 20.0 10.05 19.05 10.65 18.45 11.7 18.65 13.95 18.95 16.9 19.2 20.25 19.35 21.15 20.8 M19.55 14.6 L20.6 16.15 17.65 16.25 17.4 16.25 13.55 15.95 13.7 14.65 13.85 14.6 16.6 14.7 17.55 14.7 19.55 14.6" fill="#ffec93" fill-rule="evenodd" stroke="none"/>
      <path d="M11.75 11.55 L11.05 11.35 9.9 11.25 10.15 10.0 11.35 10.25 12.0 9.95 Q14.8 8.7 17.55 8.05 L17.85 8.0 18.3 8.4 Q17.55 8.7 16.7 9.15 L15.7 9.65 Q14.3 10.35 13.35 10.8 L11.75 11.55 M9.65 12.0 L10.7 12.05 9.8 12.65 8.1 14.15 7.4 14.2 6.9 13.1 7.55 12.2 8.65 12.65 9.1 12.3 9.65 12.0 M5.0 17.95 L3.9 18.25 3.25 16.9 4.1 16.05 4.75 16.65 5.7 15.75 6.45 15.2 7.05 15.3 6.55 15.85 6.45 15.95 5.0 17.95" fill="#aab6ff" fill-rule="evenodd" stroke="none"/>
      <path d="M18.9 12.3 L22.05 11.7 20.75 10.5 20.2 10.1 19.7 9.6 21.1 9.4 23.25 13.75 25.1 13.8 25.55 18.85 25.75 20.6 24.4 20.7 21.15 20.8 16.65 20.65 10.8 20.0 10.05 19.05 Q8.2 17.1 5.0 17.95 L3.9 18.25 3.25 16.9 4.1 16.05 4.75 16.65 5.7 15.75 6.45 15.2 Q7.25 14.65 8.0 14.25 L8.25 14.1 8.1 14.15 7.4 14.2 6.9 13.1 7.55 12.2 8.65 12.65 9.1 12.3 9.65 12.0 Q10.3 11.65 11.05 11.35 L9.9 11.25 10.15 10.0 11.35 10.25 12.0 9.95 Q14.8 8.7 17.55 8.05 L17.85 8.0 18.3 8.4 19.7 9.6 M18.9 12.3 L17.75 12.45 17.5 12.45 14.5 12.65 13.4 12.65 Q12.65 11.9 11.75 11.55 L11.05 11.35 M23.4 14.2 L23.25 13.75 M20.6 16.15 L23.1 15.75 24.05 15.55 23.4 14.2 M17.65 16.25 L17.4 16.25 13.55 15.95 13.0 15.9 11.65 14.85 Q10.55 14.0 8.25 14.1 M17.65 16.25 L20.6 16.15" fill="none" stroke="#ffffff" stroke-linecap="round" stroke-linejoin="round" stroke-width="2.5"/>
      <path d="M15.7 9.65 Q14.3 10.35 13.35 10.8 L11.75 11.55 11.05 11.35 9.9 11.25 10.15 10.0 11.35 10.25 12.0 9.95 Q14.8 8.7 17.55 8.05 L17.85 8.0 18.3 8.4 Q17.55 8.7 16.7 9.15 L15.7 9.65 M9.65 12.0 L10.7 12.05 9.8 12.65 8.1 14.15 7.4 14.2 6.9 13.1 7.55 12.2 8.65 12.65 9.1 12.3 9.65 12.0 M5.0 17.95 L3.9 18.25 3.25 16.9 4.1 16.05 4.75 16.65 5.7 15.75 6.45 15.2 7.05 15.3 6.55 15.85 6.45 15.95 5.0 17.95" fill="#aab6ff" fill-rule="evenodd" stroke="none"/>
      <path d="M20.2 10.1 L20.75 10.5 18.0 11.2 17.85 11.2 17.35 11.2 14.55 11.25 13.9 11.2 13.35 10.8 Q14.3 10.35 15.7 9.65 L17.3 9.65 17.3 9.8 16.85 10.1 16.6 10.25 15.9 10.7 16.75 10.7 17.55 10.7 17.9 10.65 18.5 10.5 20.2 10.1 M10.7 12.05 L11.25 12.1 Q12.2 12.15 12.2 12.8 12.2 13.35 13.0 13.35 L14.5 13.25 17.75 13.1 17.95 13.1 18.3 13.1 19.25 13.15 20.8 13.5 Q21.55 13.75 22.1 14.35 L21.3 14.45 19.55 14.6 17.55 14.7 16.6 14.7 13.85 14.6 13.7 14.65 12.8 14.4 12.35 14.2 10.95 13.35 9.8 12.65 10.7 12.05 M13.55 15.95 L17.4 16.25 17.65 16.25 18.5 17.1 19.4 17.25 Q22.1 17.9 23.4 19.15 L20.35 19.35 20.25 19.35 16.9 19.2 13.95 18.95 11.7 18.65 10.95 18.1 Q9.95 17.4 8.25 16.65 L6.45 15.95 6.55 15.85 7.05 15.3 8.85 15.8 Q10.4 16.75 12.75 16.65 L13.5 16.65 13.55 16.25 13.55 15.95 M16.9 10.7 L16.75 10.7 16.8 10.6 16.9 10.7" fill="#de8338" fill-rule="evenodd" stroke="none"/>
      <path d="M20.75 10.5 L20.2 10.1 18.5 10.5 17.9 10.65 17.55 10.7 16.75 10.7 15.9 10.7 16.6 10.25 16.85 10.1 17.3 9.8 17.3 9.65 15.7 9.65 16.7 9.15 Q17.55 8.7 18.3 8.4 L19.7 9.6 21.1 9.4 23.25 13.75 23.4 14.2 23.25 13.75 25.1 13.8 25.55 18.85 23.7 19.15 23.4 19.15 Q22.1 17.9 19.4 17.25 L18.5 17.1 17.65 16.25 20.6 16.15 23.1 15.75 24.05 15.55 23.4 14.2 22.1 14.35 Q21.55 13.75 20.8 13.5 L19.25 13.15 18.3 13.1 17.95 13.1 17.75 13.1 14.5 13.25 13.0 13.35 Q12.2 13.35 12.2 12.8 12.2 12.15 11.25 12.1 L10.7 12.05 9.65 12.0 Q10.3 11.65 11.05 11.35 L11.75 11.55 Q12.65 11.9 13.4 12.65 L14.5 12.65 17.5 12.45 17.75 12.45 18.9 12.3 22.05 11.7 20.75 10.5 M20.2 10.1 L19.7 9.6 20.2 10.1 M6.45 15.2 Q7.25 14.65 8.0 14.25 L8.25 14.1 Q10.55 14.0 11.65 14.85 L13.0 15.9 13.55 15.95 13.55 16.25 13.5 16.65 12.75 16.65 Q10.4 16.75 8.85 15.8 L7.05 15.3 6.45 15.2 M16.9 10.7 L16.8 10.6 16.75 10.7 16.9 10.7" fill="#a84c32" fill-rule="evenodd" stroke="none"/>
      <path d="M13.35 10.8 L13.9 11.2 14.55 11.25 14.45 12.5 14.5 12.65 13.4 12.65 Q12.65 11.9 11.75 11.55 L13.35 10.8 M18.0 11.2 L20.75 10.5 22.05 11.7 18.9 12.3 18.0 11.2 M22.1 14.35 L23.4 14.2 24.05 15.55 23.1 15.75 20.6 16.15 19.55 14.6 21.3 14.45 22.1 14.35 M25.55 18.85 L25.75 20.6 24.4 20.7 21.15 20.8 20.25 19.35 20.35 19.35 23.4 19.15 23.7 19.15 25.55 18.85 M10.05 19.05 Q8.2 17.1 5.0 17.95 L6.45 15.95 8.25 16.65 Q9.95 17.4 10.95 18.1 L11.7 18.65 10.65 18.45 10.05 19.05 M8.25 14.1 L8.1 14.15 9.8 12.65 10.95 13.35 12.35 14.2 12.8 14.4 13.7 14.65 13.55 15.95 13.0 15.9 11.65 14.85 Q10.55 14.0 8.25 14.1" fill="#ffc34f" fill-rule="evenodd" stroke="none"/>
      <path d="M14.55 11.25 L17.35 11.2 17.85 11.2 18.0 11.2 18.9 12.3 17.75 12.45 17.5 12.45 14.5 12.65 14.45 12.5 14.55 11.25 M21.15 20.8 L16.65 20.65 10.8 20.0 10.05 19.05 10.65 18.45 11.7 18.65 13.95 18.95 16.9 19.2 20.25 19.35 21.15 20.8 M19.55 14.6 L20.6 16.15 17.65 16.25 17.4 16.25 13.55 15.95 13.7 14.65 13.85 14.6 16.6 14.7 17.55 14.7 19.55 14.6" fill="#ffec93" fill-rule="evenodd" stroke="none"/>
      <path d="M20.75 10.5 L20.2 10.1 19.7 9.6 21.1 9.4 23.25 13.75 25.1 13.8 25.55 18.85 25.75 20.6 24.4 20.7 21.15 20.8 16.65 20.65 10.8 20.0 10.05 19.05 Q8.2 17.1 5.0 17.95 L3.9 18.25 3.25 16.9 4.1 16.05 4.75 16.65 5.7 15.75 6.45 15.2 Q7.25 14.65 8.0 14.25 L8.25 14.1 8.1 14.15 7.4 14.2 6.9 13.1 7.55 12.2 8.65 12.65 9.1 12.3 9.65 12.0 Q10.3 11.65 11.05 11.35 L9.9 11.25 10.15 10.0 11.35 10.25 12.0 9.95 Q14.8 8.7 17.55 8.05 L17.85 8.0 18.3 8.4 19.7 9.6 M20.75 10.5 L22.05 11.7 18.9 12.3 17.75 12.45 17.5 12.45 14.5 12.65 13.4 12.65 Q12.65 11.9 11.75 11.55 L11.05 11.35 M23.4 14.2 L23.25 13.75 M20.6 16.15 L23.1 15.75 24.05 15.55 23.4 14.2 M13.55 15.95 L17.4 16.25 17.65 16.25 20.6 16.15 M8.25 14.1 Q10.55 14.0 11.65 14.85 L13.0 15.9 13.55 15.95" fill="none" stroke="#36090e" stroke-linecap="round" stroke-linejoin="round" stroke-width="0.5"/>
    </g>
  </defs>
</svg>
