<?xml version="1.0" encoding="UTF-8" standalone="no"?>
<svg xmlns:ffdec="https://www.free-decompiler.com/flash" xmlns:xlink="http://www.w3.org/1999/xlink" ffdec:objectType="frame" height="30.1px" width="30.0px" xmlns="http://www.w3.org/2000/svg">
  <g transform="matrix(1.0, 0.0, 0.0, 1.0, 0.0, 0.0)">
    <use ffdec:characterId="1" height="30.0" transform="matrix(1.0, 0.0, 0.0, 1.0, 0.0, 0.0)" width="30.0" xlink:href="#shape0"/>
    <use ffdec:characterId="3" height="30.0" transform="matrix(1.0, 0.0, 0.0, 1.0, 0.0, 0.1)" width="30.0" xlink:href="#sprite0"/>
  </g>
  <defs>
    <g id="shape0" transform="matrix(1.0, 0.0, 0.0, 1.0, 0.0, 0.0)">
      <path d="M0.0 0.0 L30.0 0.0 30.0 30.0 0.0 30.0 0.0 0.0" fill="#33cc66" fill-opacity="0.0" fill-rule="evenodd" stroke="none"/>
    </g>
    <g id="sprite0" transform="matrix(1.0, 0.0, 0.0, 1.0, 0.0, 0.0)">
      <use ffdec:characterId="2" height="30.0" transform="matrix(1.0, 0.0, 0.0, 1.0, 0.0, 0.0)" width="30.0" xlink:href="#shape1"/>
    </g>
    <g id="shape1" transform="matrix(1.0, 0.0, 0.0, 1.0, 0.0, 0.0)">
      <path d="M27.95 0.15 Q30.0 0.7 30.0 3.3 L30.0 26.7 29.8 28.15 Q29.15 30.0 26.7 30.0 L3.3 30.0 2.4 29.95 Q0.7 29.65 0.2 28.15 L0.0 26.7 0.0 3.3 Q0.0 0.7 2.05 0.15 L2.4 0.1 3.3 0.0 26.7 0.0 27.95 0.15" fill="#cccccc" fill-rule="evenodd" stroke="none"/>
      <path d="M19.0 17.85 L19.1 17.7 19.35 17.55 19.95 17.05 20.6 16.55 20.7 16.5 20.85 15.85 Q21.05 15.0 21.4 14.4 L21.8 13.85 21.5 13.05 21.0 11.7 21.0 11.65 Q20.95 10.6 21.65 9.05 L21.95 8.45 22.0 8.45 22.8 7.45 23.3 9.9 23.8 11.85 24.45 13.05 24.35 13.1 23.35 13.95 23.05 14.35 22.9 14.45 22.7 14.75 Q22.55 15.05 22.55 15.7 L22.5 16.45 22.5 17.15 22.5 17.4 22.1 17.55 22.05 17.1 22.05 16.85 22.5 15.15 22.65 14.75 22.45 14.8 22.7 14.6 22.9 13.9 22.85 13.75 22.55 12.45 Q22.15 10.55 22.3 9.6 L22.05 8.75 21.2 10.45 Q21.05 11.0 21.35 12.1 L21.75 13.15 22.1 13.8 21.6 14.3 Q21.05 15.1 20.85 16.55 L20.65 16.65 19.65 17.45 19.35 17.75 19.15 17.95 19.0 17.85 M15.55 4.0 L15.8 3.7 15.8 3.8 16.1 5.1 Q16.4 6.2 17.05 7.5 L18.35 10.9 18.5 11.15 19.15 12.7 18.6 14.0 18.3 14.8 18.3 17.0 Q18.25 16.9 18.05 16.9 L16.65 15.4 16.7 14.45 Q16.85 13.25 17.25 12.2 L17.75 11.15 17.55 10.65 16.95 9.4 15.95 7.95 15.15 6.85 15.3 5.55 15.55 4.0" fill="#691c0d" fill-rule="evenodd" stroke="none"/>
      <path d="M21.6 14.3 L22.1 13.8 21.75 13.15 21.35 12.1 Q21.05 11.0 21.2 10.45 L22.05 8.75 22.3 9.6 Q22.15 10.55 22.55 12.45 L22.85 13.75 21.6 14.3 M22.1 17.55 L22.5 17.4 22.5 17.15 22.5 16.45 22.55 15.7 Q22.55 15.05 22.7 14.75 L22.9 14.45 23.05 14.35 23.35 13.95 23.15 15.55 22.6 17.6 21.7 17.8 21.8 17.7 22.1 17.55 M9.95 16.4 Q9.05 15.15 7.35 13.55 L7.3 13.0 7.2 11.95 7.6 12.25 Q8.2 13.15 9.15 14.05 L12.35 17.0 11.95 17.05 11.8 17.05 11.05 18.2 10.75 18.65 Q10.35 19.35 10.25 20.55 L10.35 22.05 10.1 21.65 9.95 21.05 Q9.65 20.15 10.2 18.7 10.6 17.6 10.5 16.65 L10.45 16.65 9.95 16.4 M15.85 14.15 L15.95 13.6 16.2 12.5 16.45 10.95 16.15 10.5 15.05 8.3 14.6 6.5 14.65 6.5 14.65 6.3 Q14.95 4.85 15.55 4.0 L15.3 5.55 15.15 6.85 15.95 7.95 16.95 9.4 17.55 10.65 17.75 11.15 17.25 12.2 Q16.85 13.25 16.7 14.45 L16.65 15.4 16.3 14.95 15.95 14.4 15.95 14.3 15.9 14.3 15.9 14.2 15.85 14.15 M20.6 18.45 L20.3 19.05 20.15 18.85 20.6 18.45" fill="#8e2e1b" fill-rule="evenodd" stroke="none"/>
      <path d="M23.35 13.95 L24.35 13.1 24.45 13.05 24.55 13.25 25.05 14.1 24.15 15.25 23.4 16.15 23.2 17.05 23.15 17.5 22.75 17.6 22.6 17.6 23.15 15.55 23.35 13.95" fill="#ca2d17" fill-rule="evenodd" stroke="none"/>
      <path d="M19.15 17.95 L19.35 17.75 19.65 17.45 20.65 16.65 20.85 16.55 Q21.05 15.1 21.6 14.3 L22.85 13.75 22.9 13.9 22.7 14.6 22.45 14.8 22.65 14.75 22.5 15.15 22.05 16.85 22.05 17.1 22.1 17.55 21.8 17.7 21.7 17.8 21.6 17.8 20.6 18.45 20.15 18.85 19.75 18.5 19.15 17.95" fill="url(#gradient0)" fill-rule="evenodd" stroke="none"/>
      <path d="M22.6 17.6 L22.75 17.6 22.65 18.3 22.35 19.2 21.45 19.35 20.6 19.5 20.55 19.4 20.35 19.1 20.35 19.0 20.3 19.05 20.6 18.45 21.6 17.8 21.7 17.8 22.6 17.6 M16.55 26.95 L16.35 27.0 14.95 27.15 Q15.2 25.35 16.15 24.05 17.3 22.55 19.8 21.0 L19.05 23.3 19.0 22.65 18.85 22.5 18.75 22.45 Q18.0 23.2 17.25 24.9 16.7 26.0 16.55 26.95" fill="#ff6100" fill-rule="evenodd" stroke="none"/>
      <path d="M22.75 17.6 L23.15 17.5 22.9 19.15 22.6 19.25 21.75 19.95 21.35 20.4 20.5 21.35 20.65 20.55 20.7 20.3 20.75 19.75 20.65 19.5 20.6 19.5 21.45 19.35 22.35 19.2 22.65 18.3 22.75 17.6 M17.15 26.8 L16.55 26.95 Q16.7 26.0 17.25 24.9 18.0 23.2 18.75 22.45 L18.85 22.5 19.0 22.65 19.05 23.3 19.8 21.0 20.0 20.9 Q20.15 22.35 19.55 23.65 18.9 25.0 17.15 26.8" fill="#ff9e2a" fill-rule="evenodd" stroke="none"/>
      <path d="M14.7 10.85 L14.95 11.1 15.25 11.45 15.5 12.45 15.55 12.75 15.75 13.5 15.75 13.6 15.85 14.15 15.9 14.2 15.9 14.3 15.95 14.3 15.95 14.4 16.3 14.95 16.65 15.4 18.05 16.9 18.3 17.1 18.85 17.65 18.8 17.65 17.15 17.35 17.15 17.3 17.1 17.3 17.15 17.35 17.35 17.65 17.7 18.1 18.1 19.4 17.45 19.6 16.75 19.7 16.75 18.65 16.8 17.85 16.3 17.4 15.35 16.5 14.55 15.75 14.55 15.7 14.35 13.6 Q14.35 12.45 14.7 10.85 M20.6 19.5 L20.65 19.5 20.75 19.75 20.7 20.3 20.65 20.55 20.0 20.9 19.8 21.0 19.8 20.65 19.85 20.25 19.9 20.0 19.85 19.1 19.9 19.05 20.15 18.85 20.3 19.05 20.35 19.0 20.35 19.1 20.55 19.4 20.6 19.5" fill="#d7482d" fill-rule="evenodd" stroke="none"/>
      <path d="M20.5 21.35 L20.4 21.75 20.0 23.75 19.45 24.6 18.75 25.65 18.6 26.0 18.0 26.35 17.15 26.8 Q18.9 25.0 19.55 23.65 20.15 22.35 20.0 20.9 L20.65 20.55 20.5 21.35" fill="#ffd77f" fill-rule="evenodd" stroke="none"/>
      <path d="M13.4 27.1 L12.25 26.8 11.4 26.55 11.35 26.45 11.3 26.25 10.9 25.5 9.8 23.9 Q9.35 21.35 9.45 20.25 L10.1 18.5 10.4 17.15 10.0 16.5 9.95 16.4 10.45 16.65 10.5 16.65 Q10.6 17.6 10.2 18.7 9.65 20.15 9.95 21.05 L10.1 21.65 10.35 22.05 10.6 23.15 Q10.8 23.95 11.5 25.1 12.25 26.3 12.85 26.65 L12.85 24.6 12.9 24.15 13.0 23.2 12.85 23.35 12.95 22.5 Q13.05 21.4 13.3 20.7 13.7 19.7 14.75 19.1 L15.5 18.85 15.45 18.55 14.75 17.25 13.75 15.6 13.8 15.0 13.6 13.5 13.35 13.0 13.35 13.85 13.35 14.75 12.9 16.15 12.65 17.15 12.15 17.7 Q11.2 17.95 10.75 18.65 L11.05 18.2 11.8 17.05 11.95 17.05 12.35 17.0 9.15 14.05 Q8.2 13.15 7.6 12.25 L8.5 12.95 Q10.3 14.3 11.4 14.3 L12.85 16.05 13.05 15.2 13.25 13.85 11.45 9.95 Q11.75 6.7 12.05 5.65 L13.1 8.2 13.95 10.1 14.1 10.15 14.65 10.8 Q14.25 11.25 14.1 13.45 13.95 15.65 14.2 15.95 L14.85 16.6 15.1 16.9 15.6 18.0 16.2 19.1 15.75 21.25 14.2 22.7 13.2 23.6 Q13.1 24.2 13.15 24.95 L13.4 27.1" fill="url(#gradient1)" fill-rule="evenodd" stroke="none"/>
      <path d="M19.0 17.85 L19.15 17.95 19.75 18.5 20.15 18.85 19.9 19.05 19.85 19.0 18.4 18.2 18.7 18.95 18.9 19.5 18.9 19.7 18.25 19.95 18.15 20.05 17.2 20.1 17.05 20.1 16.15 21.6 Q14.95 22.15 14.15 23.35 L13.6 24.25 13.75 26.2 13.8 27.1 13.4 27.1 13.15 24.95 Q13.1 24.2 13.2 23.6 L14.2 22.7 15.75 21.25 16.2 19.1 15.6 18.0 15.1 16.9 14.85 16.6 14.2 15.95 Q13.95 15.65 14.1 13.45 14.25 11.25 14.65 10.8 L14.7 10.85 Q14.35 12.45 14.35 13.6 L14.55 15.7 14.55 15.75 15.35 16.5 16.3 17.4 16.8 17.85 16.75 18.65 16.75 19.7 17.45 19.6 18.1 19.4 17.7 18.1 17.35 17.65 17.15 17.35 17.1 17.3 17.15 17.3 17.15 17.35 18.8 17.65 18.85 17.65 19.0 17.85" fill="#a83a25" fill-rule="evenodd" stroke="none"/>
      <path d="M10.75 18.65 Q11.2 17.95 12.15 17.7 L12.65 17.15 12.9 16.15 13.35 14.75 13.35 13.85 13.35 13.0 13.6 13.5 13.8 15.0 13.75 15.6 14.75 17.25 15.45 18.55 15.5 18.85 14.75 19.1 Q13.7 19.7 13.3 20.7 13.05 21.4 12.95 22.5 L12.85 23.35 13.0 23.2 12.9 24.15 12.85 24.6 12.85 26.65 Q12.25 26.3 11.5 25.1 10.8 23.95 10.6 23.15 L10.35 22.05 10.25 20.55 Q10.35 19.35 10.75 18.65" fill="url(#gradient2)" fill-rule="evenodd" stroke="none"/>
      <path d="M14.95 27.15 L13.8 27.1 13.75 26.2 13.6 24.25 14.15 23.35 Q14.95 22.15 16.15 21.6 L17.05 20.1 17.2 20.1 18.15 20.05 18.25 19.95 18.9 19.7 18.9 19.5 18.7 18.95 18.4 18.2 19.85 19.0 19.9 19.05 19.85 19.1 19.9 20.0 19.85 20.25 19.8 20.65 19.8 21.0 Q17.3 22.55 16.15 24.05 15.2 25.35 14.95 27.15" fill="#982f1b" fill-rule="evenodd" stroke="none"/>
      <path d="M21.95 8.45 L21.65 9.05 Q20.95 10.6 21.0 11.65 L21.0 11.7 21.5 13.05 21.8 13.85 21.4 14.4 Q21.05 15.0 20.85 15.85 L20.7 16.5 20.6 16.55 19.95 17.05 19.35 17.55 19.1 17.7 19.0 17.85 19.15 17.95 19.75 18.5 20.15 18.85 20.3 19.05 20.35 19.0 20.35 19.1 20.55 19.4 20.6 19.5 20.65 19.5 20.75 19.75 20.7 20.3 20.65 20.55 20.5 21.35 20.4 21.75 20.0 23.75 19.45 24.6 18.75 25.65 18.6 26.0 18.0 26.35 17.15 26.8 16.55 26.95 16.35 27.0 14.95 27.15 13.8 27.1 13.4 27.1 12.25 26.8 11.4 26.55 11.35 26.45 11.3 26.25 10.9 25.5 9.8 23.9 Q9.35 21.35 9.45 20.25 L10.1 18.5 10.4 17.15 10.0 16.5 9.95 16.4 Q9.05 15.15 7.35 13.55 L7.3 13.0 7.2 11.95 7.6 12.25 8.5 12.95 Q10.3 14.3 11.4 14.3 L12.85 16.05 13.05 15.2 13.25 13.85 11.45 9.95 Q11.75 6.7 12.05 5.65 L13.1 8.2 13.95 10.1 14.1 10.15 14.65 10.8 14.7 10.85 14.95 11.1 15.25 11.45 15.5 12.45 15.55 12.75 15.75 13.5 15.75 13.6 15.85 14.15 15.95 13.6 16.2 12.5 16.45 10.95 16.15 10.5 15.05 8.3 14.6 6.5 14.65 6.5 14.65 6.3 Q14.95 4.85 15.55 4.0 L15.8 3.7 15.8 3.8 16.1 5.1 Q16.4 6.2 17.05 7.5 L18.35 10.9 18.5 11.15 19.15 12.7 18.6 14.0 18.3 14.8 18.3 17.0 Q18.25 16.9 18.05 16.9 L18.3 17.1 18.85 17.65 19.0 17.85 M24.45 13.05 L23.8 11.85 23.3 9.9 22.8 7.45 22.0 8.45 M23.15 17.5 L23.2 17.05 23.4 16.15 24.15 15.25 25.05 14.1 24.55 13.25 24.45 13.05 M23.15 17.5 L22.9 19.15 22.6 19.25 21.75 19.95 21.35 20.4 20.5 21.35 M16.65 15.4 L18.05 16.9 M15.85 14.15 L15.9 14.2 15.9 14.3 15.95 14.3 15.95 14.4 16.3 14.95 16.65 15.4 M13.4 27.1 L13.15 24.95 Q13.1 24.2 13.2 23.6 L14.2 22.7 15.75 21.25 16.2 19.1 15.6 18.0 15.1 16.9 14.85 16.6 14.2 15.95 Q13.95 15.65 14.1 13.45 14.25 11.25 14.65 10.8" fill="none" stroke="#ffffff" stroke-linecap="round" stroke-linejoin="round" stroke-width="3.0"/>
      <path d="M22.75 17.6 L23.15 17.5 22.9 19.15 22.6 19.25 21.75 19.95 21.35 20.4 20.5 21.35 20.65 20.55 20.7 20.3 20.75 19.75 20.65 19.5 20.6 19.5 21.45 19.35 22.35 19.2 22.65 18.3 22.75 17.6 M17.15 26.8 L16.55 26.95 Q16.7 26.0 17.25 24.9 18.0 23.2 18.75 22.45 L18.85 22.5 19.0 22.65 19.05 23.3 19.8 21.0 20.0 20.9 Q20.15 22.35 19.55 23.65 18.9 25.0 17.15 26.8" fill="#ff9e2a" fill-rule="evenodd" stroke="none"/>
      <path d="M20.5 21.35 L20.4 21.75 20.0 23.75 19.45 24.6 18.75 25.65 18.6 26.0 18.0 26.35 17.15 26.8 Q18.9 25.0 19.55 23.65 20.15 22.35 20.0 20.9 L20.65 20.55 20.5 21.35" fill="#ffd77f" fill-rule="evenodd" stroke="none"/>
      <path d="M14.7 10.85 L14.95 11.1 15.25 11.45 15.5 12.45 15.55 12.75 15.75 13.5 15.75 13.6 15.85 14.15 15.9 14.2 15.9 14.3 15.95 14.3 15.95 14.4 16.3 14.95 16.65 15.4 18.05 16.9 18.3 17.1 18.85 17.65 18.8 17.65 17.15 17.35 17.35 17.65 17.7 18.1 18.1 19.4 17.45 19.6 16.75 19.7 16.75 18.65 16.8 17.85 16.3 17.4 15.35 16.5 14.55 15.75 14.55 15.7 14.35 13.6 Q14.35 12.45 14.7 10.85 M20.6 19.5 L20.65 19.5 20.75 19.75 20.7 20.3 20.65 20.55 20.0 20.9 19.8 21.0 19.8 20.65 19.85 20.25 19.9 20.0 19.85 19.1 19.9 19.05 20.15 18.85 20.3 19.05 20.35 19.0 20.35 19.1 20.55 19.4 20.6 19.5 M17.15 17.35 L17.15 17.3 17.1 17.3 17.15 17.35" fill="#d7482d" fill-rule="evenodd" stroke="none"/>
      <path d="M14.95 27.15 L13.8 27.1 13.75 26.2 13.6 24.25 14.15 23.35 Q14.95 22.15 16.15 21.6 L17.05 20.1 17.2 20.1 18.15 20.05 18.25 19.95 18.9 19.7 18.9 19.5 18.7 18.95 18.4 18.2 19.85 19.0 19.9 19.05 19.85 19.1 19.9 20.0 19.85 20.25 19.8 20.65 19.8 21.0 Q17.3 22.55 16.15 24.05 15.2 25.35 14.95 27.15" fill="#982f1b" fill-rule="evenodd" stroke="none"/>
      <path d="M19.0 17.85 L19.15 17.95 19.75 18.5 20.15 18.85 19.9 19.05 19.85 19.0 18.4 18.2 18.7 18.95 18.9 19.5 18.9 19.7 18.25 19.95 18.15 20.05 17.2 20.1 17.05 20.1 16.15 21.6 Q14.95 22.15 14.15 23.35 L13.6 24.25 13.75 26.2 13.8 27.1 13.4 27.1 13.15 24.95 Q13.1 24.2 13.2 23.6 L14.2 22.7 15.75 21.25 16.2 19.1 15.6 18.0 15.1 16.9 14.85 16.6 14.2 15.95 Q13.95 15.65 14.1 13.45 14.25 11.25 14.65 10.8 L14.7 10.85 Q14.35 12.45 14.35 13.6 L14.55 15.7 14.55 15.75 15.35 16.5 16.3 17.4 16.8 17.85 16.75 18.65 16.75 19.7 17.45 19.6 18.1 19.4 17.7 18.1 17.35 17.65 17.15 17.35 18.8 17.65 18.85 17.65 19.0 17.85 M17.15 17.35 L17.1 17.3 17.15 17.3 17.15 17.35" fill="#a83a25" fill-rule="evenodd" stroke="none"/>
      <path d="M22.6 17.6 L22.75 17.6 22.65 18.3 22.35 19.2 21.45 19.35 20.6 19.5 20.55 19.4 20.35 19.1 20.35 19.0 20.3 19.05 20.6 18.45 21.6 17.8 21.65 17.8 22.6 17.6 M16.55 26.95 L16.35 27.0 14.95 27.15 Q15.2 25.35 16.15 24.05 17.3 22.55 19.8 21.0 L19.05 23.3 19.0 22.65 18.85 22.5 18.75 22.45 Q18.0 23.2 17.25 24.9 16.7 26.0 16.55 26.95" fill="#ff6100" fill-rule="evenodd" stroke="none"/>
      <path d="M21.6 14.3 L22.1 13.8 21.75 13.15 21.35 12.1 Q21.05 11.0 21.2 10.45 L22.05 8.75 22.3 9.6 Q22.15 10.55 22.55 12.45 L22.85 13.75 21.6 14.3 M22.1 17.55 L22.5 17.4 22.5 17.15 22.5 16.45 22.55 15.7 Q22.55 15.05 22.7 14.75 L22.9 14.45 23.05 14.35 23.35 13.95 23.15 15.55 22.6 17.6 21.65 17.8 21.8 17.7 22.1 17.55 M9.95 16.4 Q9.05 15.15 7.35 13.55 L7.3 13.0 7.2 11.95 7.6 12.25 Q8.2 13.15 9.15 14.05 L12.35 17.0 11.95 17.05 11.8 17.05 11.05 18.2 10.75 18.65 Q10.35 19.35 10.25 20.55 L10.35 22.05 10.1 21.65 9.95 21.05 Q9.65 20.15 10.2 18.7 10.6 17.6 10.5 16.65 L10.45 16.65 9.95 16.4 M15.85 14.15 L15.95 13.6 16.2 12.5 16.45 10.95 16.15 10.5 15.05 8.3 14.6 6.5 14.65 6.5 14.65 6.3 Q14.95 4.85 15.55 4.0 L15.3 5.55 15.15 6.85 15.95 7.95 16.95 9.4 17.55 10.65 17.75 11.15 17.25 12.2 Q16.85 13.25 16.7 14.45 L16.65 15.4 16.3 14.95 15.95 14.4 15.95 14.3 15.9 14.3 15.9 14.2 15.85 14.15 M20.6 18.45 L20.3 19.05 20.15 18.85 20.6 18.45" fill="#8e2e1b" fill-rule="evenodd" stroke="none"/>
      <path d="M19.0 17.85 L19.1 17.7 19.35 17.55 19.95 17.05 20.6 16.55 20.7 16.5 20.85 15.85 Q21.05 15.0 21.4 14.4 L21.8 13.85 21.5 13.05 21.0 11.7 21.0 11.65 Q20.95 10.6 21.65 9.05 L21.95 8.45 22.0 8.45 22.8 7.45 23.3 9.9 23.8 11.85 24.45 13.05 24.35 13.1 23.35 13.95 23.05 14.35 22.9 14.45 22.7 14.75 Q22.55 15.05 22.55 15.7 L22.5 16.45 22.5 17.15 22.5 17.4 22.1 17.55 22.05 17.1 22.05 16.85 22.5 15.15 22.65 14.75 22.45 14.8 22.7 14.6 22.9 13.9 22.85 13.75 22.55 12.45 Q22.15 10.55 22.3 9.6 L22.05 8.75 21.2 10.45 Q21.05 11.0 21.35 12.1 L21.75 13.15 22.1 13.8 21.6 14.3 Q21.05 15.1 20.85 16.55 L20.65 16.65 19.65 17.45 19.35 17.75 19.15 17.95 19.0 17.85 M15.55 4.0 L15.8 3.7 15.8 3.8 16.1 5.1 Q16.4 6.2 17.05 7.5 L18.35 10.9 18.5 11.15 19.15 12.7 18.6 14.0 18.3 14.8 18.3 17.0 Q18.25 16.9 18.05 16.9 L16.65 15.4 16.7 14.45 Q16.85 13.25 17.25 12.2 L17.75 11.15 17.55 10.65 16.95 9.4 15.95 7.95 15.15 6.85 15.3 5.55 15.55 4.0" fill="#691c0d" fill-rule="evenodd" stroke="none"/>
      <path d="M23.35 13.95 L24.35 13.1 24.45 13.05 24.55 13.25 25.05 14.1 24.15 15.25 23.4 16.15 23.2 17.05 23.15 17.5 22.75 17.6 22.6 17.6 23.15 15.55 23.35 13.95" fill="#ca2d17" fill-rule="evenodd" stroke="none"/>
      <path d="M13.4 27.1 L12.25 26.8 11.4 26.55 11.35 26.45 11.3 26.25 10.9 25.5 9.8 23.9 Q9.35 21.35 9.45 20.25 L10.1 18.5 10.4 17.15 10.0 16.5 9.95 16.4 10.45 16.65 10.5 16.65 Q10.6 17.6 10.2 18.7 9.65 20.15 9.95 21.05 L10.1 21.65 10.35 22.05 10.6 23.15 Q10.8 23.95 11.5 25.1 12.25 26.3 12.85 26.65 L12.85 24.6 12.9 24.15 13.0 23.2 12.85 23.35 12.95 22.5 Q13.05 21.4 13.3 20.7 13.7 19.7 14.75 19.1 L15.5 18.85 15.45 18.55 14.75 17.25 13.75 15.6 13.8 15.0 13.6 13.5 13.35 13.0 13.35 13.85 13.35 14.75 12.9 16.15 12.65 17.15 12.15 17.7 Q11.2 17.95 10.75 18.65 L11.05 18.2 11.8 17.05 11.95 17.05 12.35 17.0 9.15 14.05 Q8.2 13.15 7.6 12.25 L8.5 12.95 Q10.3 14.3 11.4 14.3 L12.85 16.05 13.05 15.2 13.25 13.85 11.45 9.95 Q11.75 6.7 12.05 5.65 L13.1 8.2 13.95 10.1 14.1 10.15 14.65 10.8 Q14.25 11.25 14.1 13.45 13.95 15.65 14.2 15.95 L14.85 16.6 15.1 16.9 15.6 18.0 16.2 19.1 15.75 21.25 14.2 22.7 13.2 23.6 Q13.1 24.2 13.15 24.95 L13.4 27.1" fill="url(#gradient3)" fill-rule="evenodd" stroke="none"/>
      <path d="M10.75 18.65 Q11.2 17.95 12.15 17.7 L12.65 17.15 12.9 16.15 13.35 14.75 13.35 13.85 13.35 13.0 13.6 13.5 13.8 15.0 13.75 15.6 14.75 17.25 15.45 18.55 15.5 18.85 14.75 19.1 Q13.7 19.7 13.3 20.7 13.05 21.4 12.95 22.5 L12.85 23.35 13.0 23.2 12.9 24.15 12.85 24.6 12.85 26.65 Q12.25 26.3 11.5 25.1 10.8 23.95 10.6 23.15 L10.35 22.05 10.25 20.55 Q10.35 19.35 10.75 18.65" fill="url(#gradient4)" fill-rule="evenodd" stroke="none"/>
      <path d="M19.15 17.95 L19.35 17.75 19.65 17.45 20.65 16.65 20.85 16.55 Q21.05 15.1 21.6 14.3 L22.85 13.75 22.9 13.9 22.7 14.6 22.45 14.8 22.65 14.75 22.5 15.15 22.05 16.85 22.05 17.1 22.1 17.55 21.8 17.7 21.65 17.8 21.6 17.8 20.6 18.45 20.15 18.85 19.75 18.5 19.15 17.95" fill="url(#gradient5)" fill-rule="evenodd" stroke="none"/>
      <path d="M21.95 8.45 L21.65 9.05 Q20.95 10.6 21.0 11.65 L21.0 11.7 21.5 13.05 21.8 13.85 21.4 14.4 Q21.05 15.0 20.85 15.85 L20.7 16.5 20.6 16.55 19.95 17.05 19.35 17.55 19.1 17.7 19.0 17.85 19.15 17.95 19.75 18.5 20.15 18.85 20.3 19.05 20.35 19.0 20.35 19.1 20.55 19.4 20.6 19.5 20.65 19.5 20.75 19.75 20.7 20.3 20.65 20.55 20.5 21.35 20.4 21.75 20.0 23.75 19.45 24.6 18.75 25.65 18.6 26.0 18.0 26.35 17.15 26.8 16.55 26.95 16.35 27.0 14.95 27.15 13.8 27.1 13.4 27.1 12.25 26.8 11.4 26.55 11.35 26.45 11.3 26.25 10.9 25.5 9.8 23.9 Q9.35 21.35 9.45 20.25 L10.1 18.5 10.4 17.15 10.0 16.5 9.95 16.4 Q9.05 15.15 7.35 13.55 L7.3 13.0 7.2 11.95 7.6 12.25 8.5 12.95 Q10.3 14.3 11.4 14.3 L12.85 16.05 13.05 15.2 13.25 13.85 11.45 9.95 Q11.75 6.7 12.05 5.65 L13.1 8.2 13.95 10.1 14.1 10.15 14.65 10.8 14.7 10.85 14.95 11.1 15.25 11.45 15.5 12.45 15.55 12.75 15.75 13.5 15.75 13.6 15.85 14.15 15.95 13.6 16.2 12.5 16.45 10.95 16.15 10.5 15.05 8.3 14.6 6.5 14.65 6.5 14.65 6.3 Q14.95 4.85 15.55 4.0 L15.8 3.7 15.8 3.8 16.1 5.1 Q16.4 6.2 17.05 7.5 L18.35 10.9 18.5 11.15 19.15 12.7 18.6 14.0 18.3 14.8 18.3 17.0 Q18.25 16.9 18.05 16.9 L18.3 17.1 18.85 17.65 19.0 17.85 M24.45 13.05 L23.8 11.85 23.3 9.9 22.8 7.45 22.0 8.45 M23.15 17.5 L23.2 17.05 23.4 16.15 24.15 15.25 25.05 14.1 24.55 13.25 24.45 13.05 M23.15 17.5 L22.9 19.15 22.6 19.25 21.75 19.95 21.35 20.4 20.5 21.35 M16.65 15.4 L18.05 16.9 M15.85 14.15 L15.9 14.2 15.9 14.3 15.95 14.3 15.95 14.4 16.3 14.95 16.65 15.4 M14.65 10.8 Q14.25 11.25 14.1 13.45 13.95 15.65 14.2 15.95 L14.85 16.6 15.1 16.9 15.6 18.0 16.2 19.1 15.75 21.25 14.2 22.7 13.2 23.6 Q13.1 24.2 13.15 24.95 L13.4 27.1" fill="none" stroke="#560707" stroke-linecap="round" stroke-linejoin="round" stroke-width="0.4"/>
    </g>
    <linearGradient gradientTransform="matrix(-0.0028, 0.0032, 0.0011, 9.0E-4, 22.25, 15.3)" gradientUnits="userSpaceOnUse" id="gradient0" spreadMethod="pad" x1="-819.2" x2="819.2">
      <stop offset="0.0" stop-color="#691c0d"/>
      <stop offset="1.0" stop-color="#350a01"/>
    </linearGradient>
    <linearGradient gradientTransform="matrix(0.0028, 0.0037, -0.0069, 0.0043, 13.15, 17.95)" gradientUnits="userSpaceOnUse" id="gradient1" spreadMethod="pad" x1="-819.2" x2="819.2">
      <stop offset="0.0" stop-color="#691c0d"/>
      <stop offset="1.0" stop-color="#350a01"/>
    </linearGradient>
    <linearGradient gradientTransform="matrix(-0.001, 0.0041, -0.0029, -9.0E-4, 12.85, 19.75)" gradientUnits="userSpaceOnUse" id="gradient2" spreadMethod="pad" x1="-819.2" x2="819.2">
      <stop offset="0.0" stop-color="#691c0d"/>
      <stop offset="1.0" stop-color="#350a01"/>
    </linearGradient>
    <linearGradient gradientTransform="matrix(0.0028, 0.0037, -0.0069, 0.0043, 13.15, 17.95)" gradientUnits="userSpaceOnUse" id="gradient3" spreadMethod="pad" x1="-819.2" x2="819.2">
      <stop offset="0.0" stop-color="#691c0d"/>
      <stop offset="1.0" stop-color="#350a01"/>
    </linearGradient>
    <linearGradient gradientTransform="matrix(-0.001, 0.0041, -0.0029, -9.0E-4, 12.85, 19.75)" gradientUnits="userSpaceOnUse" id="gradient4" spreadMethod="pad" x1="-819.2" x2="819.2">
      <stop offset="0.0" stop-color="#691c0d"/>
      <stop offset="1.0" stop-color="#350a01"/>
    </linearGradient>
    <linearGradient gradientTransform="matrix(-0.0028, 0.0032, 0.0011, 9.0E-4, 22.25, 15.3)" gradientUnits="userSpaceOnUse" id="gradient5" spreadMethod="pad" x1="-819.2" x2="819.2">
      <stop offset="0.0" stop-color="#691c0d"/>
      <stop offset="1.0" stop-color="#350a01"/>
    </linearGradient>
  </defs>
</svg>
