<?xml version="1.0" encoding="UTF-8" standalone="no"?>
<svg xmlns:ffdec="https://www.free-decompiler.com/flash" xmlns:xlink="http://www.w3.org/1999/xlink" ffdec:objectType="frame" height="30.1px" width="30.0px" xmlns="http://www.w3.org/2000/svg">
  <g transform="matrix(1.0, 0.0, 0.0, 1.0, 0.0, 0.0)">
    <use ffdec:characterId="1" height="30.0" transform="matrix(1.0, 0.0, 0.0, 1.0, 0.0, 0.0)" width="30.0" xlink:href="#shape0"/>
    <use ffdec:characterId="5" height="30.0" transform="matrix(1.0, 0.0, 0.0, 1.0, 0.0, 0.1)" width="30.0" xlink:href="#sprite0"/>
  </g>
  <defs>
    <g id="shape0" transform="matrix(1.0, 0.0, 0.0, 1.0, 0.0, 0.0)">
      <path d="M0.0 0.0 L30.0 0.0 30.0 30.0 0.0 30.0 0.0 0.0" fill="#33cc66" fill-opacity="0.0" fill-rule="evenodd" stroke="none"/>
    </g>
    <g id="sprite0" transform="matrix(1.0, 0.0, 0.0, 1.0, 0.0, 0.0)">
      <use ffdec:characterId="2" height="30.0" transform="matrix(1.0, 0.0, 0.0, 1.0, 0.0, 0.0)" width="30.0" xlink:href="#shape1"/>
      <filter id="filter0">
        <feColorMatrix in="SourceGraphic" result="filterResult0" type="matrix" values="0 0 0 0 1.0,0 0 0 0 1.0,0 0 0 0 1.0,0 0 0 1 0"/>
        <feConvolveMatrix divisor="25.0" in="filterResult0" kernelMatrix="1 1 1 1 1 1 1 1 1 1 1 1 1 1 1 1 1 1 1 1 1 1 1 1 1" order="5 5" result="filterResult1"/>
        <feComposite in="SourceGraphic" in2="filterResult1" operator="over" result="filterResult2"/>
      </filter>
      <use ffdec:characterId="4" filter="url(#filter0)" height="59.35" transform="matrix(0.3961, 0.0, 0.0, 0.3961, 6.6399, 3.3319)" width="45.85" xlink:href="#sprite1"/>
    </g>
    <g id="shape1" transform="matrix(1.0, 0.0, 0.0, 1.0, 0.0, 0.0)">
      <path d="M27.95 0.15 Q30.0 0.7 30.0 3.3 L30.0 26.7 29.8 28.15 Q29.15 30.0 26.7 30.0 L3.3 30.0 2.4 29.95 Q0.7 29.65 0.2 28.15 L0.0 26.7 0.0 3.3 Q0.0 0.7 2.05 0.15 L2.4 0.1 3.3 0.0 26.7 0.0 27.95 0.15" fill="#cccccc" fill-rule="evenodd" stroke="none"/>
    </g>
    <g id="sprite1" transform="matrix(1.0, 0.0, 0.0, 1.0, -5.15, 5.6)">
      <use ffdec:characterId="3" height="59.35" transform="matrix(1.0, 0.0, 0.0, 1.0, 5.15, -5.6)" width="45.85" xlink:href="#shape2"/>
    </g>
    <g id="shape2" transform="matrix(1.0, 0.0, 0.0, 1.0, -5.15, 5.6)">
      <path d="M5.85 2.9 Q5.85 2.0 6.1 1.25 L6.15 1.1 Q7.05 -1.7 8.25 -3.35 L9.2 -4.5 9.75 -4.95 10.4 -5.1 Q12.1 -5.1 16.15 -2.85 18.7 -1.65 21.95 0.55 L23.05 1.15 Q26.7 5.65 29.8 10.75 L29.95 11.0 31.9 13.7 32.25 14.3 Q33.85 16.75 34.55 19.2 L32.9 17.15 Q32.0 16.4 30.9 16.05 L30.35 15.9 29.7 15.3 Q27.5 13.45 25.1 11.8 25.2 10.55 24.7 9.0 L24.6 8.85 Q22.9 5.1 19.9 2.75 L18.7 2.0 Q17.05 1.15 15.4 2.55 L14.8 3.1 14.75 3.25 Q14.0 5.3 14.6 7.2 L14.55 7.35 Q13.5 8.6 12.75 10.25 12.35 11.45 12.4 12.6 L12.35 12.85 Q12.2 13.6 12.4 14.2 12.35 15.9 12.75 17.35 L13.35 19.65 Q15.25 25.1 18.7 29.75 21.35 33.5 24.45 36.8 L27.3 39.75 27.4 39.85 29.45 41.4 29.5 41.5 30.75 42.7 Q32.1 43.75 33.55 44.35 34.25 44.8 35.05 44.7 36.95 44.7 37.8 43.45 L38.05 43.2 38.55 41.95 38.65 41.9 Q39.05 41.55 39.5 41.3 L40.45 40.25 Q41.25 39.4 41.45 38.25 41.85 36.05 41.7 34.25 L41.6 33.7 42.0 34.15 Q44.55 38.4 45.65 42.9 L45.9 44.3 Q44.85 46.85 42.4 48.45 L42.2 48.55 41.85 48.75 40.8 49.2 39.05 49.75 Q34.65 49.05 30.45 47.2 L29.95 46.9 26.45 43.65 24.95 42.05 24.1 41.25 Q19.35 36.35 16.0 30.2 L13.35 24.65 Q11.35 20.55 9.8 16.4 8.35 12.55 7.45 8.45 L6.55 5.0 5.85 2.9" fill="#5784c8" fill-rule="evenodd" stroke="none"/>
      <path d="M41.95 21.3 L42.7 22.65 43.0 23.1 Q45.45 26.75 47.15 30.1 L47.9 31.6 48.45 32.6 Q50.95 38.75 50.4 43.1 50.05 44.95 49.2 46.45 L48.55 47.4 47.0 49.35 44.9 51.3 44.85 51.35 44.5 51.7 44.4 51.75 43.15 52.45 Q42.65 52.65 41.8 53.0 L41.3 53.05 37.2 53.25 Q33.45 53.2 31.45 51.85 29.35 51.0 27.9 49.5 26.1 48.05 23.75 44.95 L23.25 44.35 21.7 42.35 20.2 39.85 20.1 39.7 Q19.3 38.8 18.65 37.6 13.7 30.35 10.15 21.25 L10.05 21.1 8.65 17.55 8.1 15.85 Q5.9 9.7 5.7 5.75 5.55 4.1 5.85 2.9 L6.55 5.0 7.45 8.45 Q8.35 12.55 9.8 16.4 11.35 20.55 13.35 24.65 L16.0 30.2 Q19.35 36.35 24.1 41.25 L24.95 42.05 26.45 43.65 29.95 46.9 30.45 47.2 Q34.65 49.05 39.05 49.75 L40.8 49.2 41.85 48.75 42.2 48.55 42.4 48.45 Q44.85 46.85 45.9 44.3 46.55 42.9 46.65 41.25 L46.9 40.6 44.9 33.3 43.85 30.05 Q42.9 27.0 41.6 24.25 41.7 22.75 41.95 21.3" fill="#b1d0ff" fill-rule="evenodd" stroke="none"/>
      <path d="M23.05 1.15 Q32.2 7.35 41.95 21.3 41.7 22.75 41.6 24.25 42.9 27.0 43.85 30.05 L44.9 33.3 46.9 40.6 46.65 41.25 Q46.55 42.9 45.9 44.3 L45.65 42.9 Q44.55 38.4 42.0 34.15 L41.6 33.7 41.7 34.25 Q41.85 36.05 41.45 38.25 41.25 39.4 40.45 40.25 L39.5 41.3 Q39.05 41.55 38.65 41.9 L38.8 41.35 39.05 40.3 39.1 39.0 Q38.45 37.2 37.15 36.0 L36.8 35.85 36.45 35.65 Q34.5 34.75 32.9 33.25 L31.55 32.1 30.7 31.1 Q27.55 26.95 26.25 21.9 L25.55 19.3 24.45 14.0 24.25 13.65 24.3 13.6 Q24.95 12.75 25.1 11.8 27.5 13.45 29.7 15.3 L30.35 15.9 30.25 15.95 Q27.9 17.05 27.3 19.35 L28.8 20.15 29.4 20.2 Q31.25 20.35 33.05 21.55 L33.7 22.15 35.5 23.8 39.15 27.55 40.55 29.4 39.35 27.3 35.5 20.6 34.65 19.4 34.55 19.2 Q33.85 16.75 32.25 14.3 L31.9 13.7 29.95 11.0 29.8 10.75 Q26.7 5.65 23.05 1.15" fill="#2bb3e0" fill-rule="evenodd" stroke="none"/>
      <path d="M14.6 7.2 Q14.0 5.3 14.75 3.25 L14.8 3.1 15.4 2.55 Q17.05 1.15 18.7 2.0 L19.9 2.75 Q22.9 5.1 24.6 8.85 L24.7 9.0 Q25.2 10.55 25.1 11.8 24.95 12.75 24.3 13.6 L24.25 13.65 23.6 14.2 Q22.45 14.55 21.55 14.2 L20.55 13.55 20.1 13.1 18.8 12.2 17.0 10.8 Q15.85 9.55 14.95 7.75 L14.6 7.2 M30.35 15.9 L30.9 16.05 Q32.0 16.4 32.9 17.15 L34.55 19.2 34.65 19.4 35.5 20.6 39.35 27.3 40.55 29.4 39.15 27.55 35.5 23.8 33.7 22.15 33.05 21.55 Q31.25 20.35 29.4 20.2 L28.8 20.15 27.3 19.35 Q27.9 17.05 30.25 15.95 L30.35 15.9" fill="#cdf2ff" fill-rule="evenodd" stroke="none"/>
      <path d="M38.65 41.9 L38.55 41.95 38.05 43.2 37.8 43.45 Q36.95 44.7 35.05 44.7 34.25 44.8 33.55 44.35 32.1 43.75 30.75 42.7 L29.5 41.5 29.45 41.4 27.4 39.85 27.3 39.75 24.45 36.8 Q21.35 33.5 18.7 29.75 15.25 25.1 13.35 19.65 L12.75 17.35 Q12.35 15.9 12.4 14.2 12.2 13.6 12.35 12.85 L12.4 12.6 Q12.35 11.45 12.75 10.25 13.5 8.6 14.55 7.35 L14.6 7.2 14.95 7.75 Q15.85 9.55 17.0 10.8 L18.8 12.2 20.1 13.1 20.55 13.55 21.55 14.2 Q22.45 14.55 23.6 14.2 L24.25 13.65 24.45 14.0 25.55 19.3 26.25 21.9 Q27.55 26.95 30.7 31.1 L31.55 32.1 32.9 33.25 Q34.5 34.75 36.45 35.65 L36.8 35.85 37.15 36.0 Q38.45 37.2 39.1 39.0 L39.05 40.3 38.8 41.35 38.65 41.9" fill="#3b527c" fill-rule="evenodd" stroke="none"/>
      <path d="M5.85 2.9 Q5.85 2.0 6.1 1.25 L6.15 1.1 Q7.05 -1.7 8.25 -3.35 L9.2 -4.5 9.75 -4.95 10.4 -5.1 Q12.1 -5.1 16.15 -2.85 18.7 -1.65 21.95 0.55 L23.05 1.15 Q32.2 7.35 41.95 21.3 L42.7 22.65 43.0 23.1 Q45.45 26.75 47.15 30.1 L47.9 31.6 48.45 32.6 Q50.95 38.75 50.4 43.1 50.05 44.95 49.2 46.45 L48.55 47.4 47.0 49.35 44.9 51.3 44.85 51.35 44.5 51.7 44.4 51.75 43.15 52.45 M41.8 53.0 L41.3 53.05 37.2 53.25 Q33.45 53.2 31.45 51.85 29.35 51.0 27.9 49.5 26.1 48.05 23.75 44.95 L23.25 44.35 21.7 42.35 20.2 39.85 20.1 39.7 Q19.3 38.8 18.65 37.6 13.7 30.35 10.15 21.25 L10.05 21.1 8.65 17.55 8.1 15.85 Q5.9 9.7 5.7 5.75 5.55 4.1 5.85 2.9" fill="none" stroke="#4b5b6f" stroke-linecap="round" stroke-linejoin="round" stroke-width="1.0"/>
    </g>
  </defs>
</svg>
