<?xml version="1.0" encoding="UTF-8" standalone="no"?>
<svg xmlns:ffdec="https://www.free-decompiler.com/flash" xmlns:xlink="http://www.w3.org/1999/xlink" ffdec:objectType="frame" height="30.1px" width="30.0px" xmlns="http://www.w3.org/2000/svg">
  <g transform="matrix(1.0, 0.0, 0.0, 1.0, 0.0, 0.0)">
    <use ffdec:characterId="1" height="30.0" transform="matrix(1.0, 0.0, 0.0, 1.0, 0.0, 0.0)" width="30.0" xlink:href="#shape0"/>
    <use ffdec:characterId="5" height="30.0" transform="matrix(1.0, 0.0, 0.0, 1.0, 0.0, 0.1)" width="30.0" xlink:href="#sprite0"/>
  </g>
  <defs>
    <g id="shape0" transform="matrix(1.0, 0.0, 0.0, 1.0, 0.0, 0.0)">
      <path d="M0.0 0.0 L30.0 0.0 30.0 30.0 0.0 30.0 0.0 0.0" fill="#33cc66" fill-opacity="0.0" fill-rule="evenodd" stroke="none"/>
    </g>
    <g id="sprite0" transform="matrix(1.0, 0.0, 0.0, 1.0, 0.0, 0.0)">
      <use ffdec:characterId="2" height="30.0" transform="matrix(1.0, 0.0, 0.0, 1.0, 0.0, 0.0)" width="30.0" xlink:href="#shape1"/>
      <filter id="filter0">
        <feColorMatrix in="SourceGraphic" result="filterResult0" type="matrix" values="0 0 0 0 1.0,0 0 0 0 1.0,0 0 0 0 1.0,0 0 0 1 0"/>
        <feConvolveMatrix divisor="25.0" in="filterResult0" kernelMatrix="1 1 1 1 1 1 1 1 1 1 1 1 1 1 1 1 1 1 1 1 1 1 1 1 1" order="5 5" result="filterResult1"/>
        <feComposite in="SourceGraphic" in2="filterResult1" operator="over" result="filterResult2"/>
      </filter>
      <use ffdec:characterId="4" filter="url(#filter0)" height="58.75" transform="matrix(0.3961, 0.0, 0.0, 0.3961, 6.2636, 3.8072)" width="45.8" xlink:href="#sprite1"/>
    </g>
    <g id="shape1" transform="matrix(1.0, 0.0, 0.0, 1.0, 0.0, 0.0)">
      <path d="M27.95 0.15 Q30.0 0.7 30.0 3.3 L30.0 26.7 29.8 28.15 Q29.15 30.0 26.7 30.0 L3.3 30.0 2.4 29.95 Q0.7 29.65 0.2 28.15 L0.0 26.7 0.0 3.3 Q0.0 0.7 2.05 0.15 L2.4 0.1 3.3 0.0 26.7 0.0 27.95 0.15" fill="#cccccc" fill-rule="evenodd" stroke="none"/>
    </g>
    <g id="sprite1" transform="matrix(1.0, 0.0, 0.0, 1.0, -4.2, 4.4)">
      <use ffdec:characterId="3" height="58.75" transform="matrix(1.0, 0.0, 0.0, 1.0, 4.2, -4.4)" width="45.8" xlink:href="#shape2"/>
    </g>
    <g id="shape2" transform="matrix(1.0, 0.0, 0.0, 1.0, -4.2, 4.4)">
      <path d="M13.4 -1.85 Q13.7 -2.0 13.8 -2.1 L15.3 -2.65 Q18.1 -3.8 20.55 -3.9 L20.75 -3.85 Q22.8 -3.85 23.55 -3.3 L23.75 -3.05 23.9 -2.7 24.0 -2.6 24.05 -2.45 22.4 -0.6 21.6 0.0 21.3 0.2 19.9 1.25 18.0 2.25 Q16.85 2.95 15.25 3.3 L13.65 3.75 12.35 4.0 11.95 3.75 11.45 3.3 11.3 2.85 11.35 2.65 Q11.0 1.3 12.2 -0.5 L13.4 -1.85 M32.8 1.75 L33.65 2.4 Q35.35 3.35 37.7 5.15 41.0 7.55 43.1 9.85 L43.95 11.85 44.0 12.2 45.9 18.05 48.25 28.15 48.35 29.0 48.75 31.45 49.1 33.3 Q49.55 36.95 49.45 40.5 L49.5 40.55 49.25 43.9 Q48.7 48.45 47.0 52.75 L46.65 53.5 Q45.85 53.25 45.25 52.8 L45.1 52.5 40.5 43.4 37.55 37.8 37.3 37.35 34.1 31.8 31.1 26.75 28.1 22.5 24.15 17.4 23.5 16.35 25.4 15.8 Q29.0 11.35 30.95 7.55 L31.8 5.5 32.25 4.15 32.6 2.55 32.8 1.75 M24.2 5.55 L23.3 6.15 Q20.3 7.75 18.35 7.95 L17.45 6.55 15.8 4.3 16.9 3.85 17.15 3.75 18.35 3.25 20.55 1.9 21.95 3.25 23.05 4.45 24.2 5.55" fill="#f5fcff" fill-rule="evenodd" stroke="none"/>
      <path d="M23.9 -2.7 Q23.95 -2.65 24.15 -2.55 L24.95 -1.95 25.65 -1.0 26.9 0.5 26.9 0.55 27.65 1.25 Q27.4 1.6 27.45 1.85 L27.4 2.15 27.0 3.25 26.85 3.5 26.7 3.75 26.7 3.85 25.95 4.25 26.7 3.6 23.95 1.9 Q23.75 1.65 23.4 1.55 L22.3 0.75 22.45 0.55 22.85 0.1 22.9 0.1 Q24.25 -1.2 24.05 -2.45 L24.0 -2.6 23.9 -2.7 M10.2 0.15 L13.4 -1.85 12.2 -0.5 Q11.0 1.3 11.35 2.65 L11.3 2.85 11.45 3.3 11.95 3.75 12.35 4.0 12.05 3.9 Q10.2 4.05 9.7 3.1 9.15 2.1 10.0 0.5 L10.15 0.35 10.2 0.15" fill="#eaeff2" fill-rule="evenodd" stroke="none"/>
      <path d="M7.8 4.05 Q7.25 3.3 8.0 2.2 L8.4 1.7 9.95 0.3 10.2 0.15 10.15 0.35 10.0 0.5 Q9.15 2.1 9.7 3.1 10.2 4.05 12.05 3.9 L12.35 4.0 13.65 3.75 15.25 3.3 Q16.85 2.95 18.0 2.25 L19.9 1.25 21.3 0.2 21.6 0.0 22.4 -0.6 24.05 -2.45 Q24.25 -1.2 22.9 0.1 L22.85 0.1 22.45 0.55 22.3 0.75 22.15 0.85 20.55 1.9 18.35 3.25 17.15 3.75 16.9 3.85 15.8 4.3 12.95 5.0 12.05 5.15 11.05 5.2 Q8.9 5.4 8.05 4.4 L7.8 4.05" fill="#c8c7d9" fill-rule="evenodd" stroke="none"/>
      <path d="M27.65 1.25 Q27.5 0.9 27.7 0.6 L28.75 0.8 30.3 1.0 30.9 2.75 30.55 1.05 31.8 1.4 32.55 1.55 32.8 1.75 32.6 2.55 32.25 4.15 31.8 5.5 30.95 7.55 Q29.0 11.35 25.4 15.8 L23.5 16.35 Q19.0 17.2 14.5 16.4 L11.25 15.45 10.45 15.15 10.5 14.6 10.5 14.25 10.95 13.15 11.6 10.95 11.75 10.55 Q16.7 10.95 22.6 7.95 L24.95 6.4 25.35 6.1 26.7 3.85 26.7 3.75 26.85 3.5 27.0 3.25 27.4 2.15 27.45 1.85 Q27.4 1.6 27.65 1.25" fill="#bdb3bc" fill-rule="evenodd" stroke="none"/>
      <path d="M22.3 0.75 L23.4 1.55 Q23.75 1.65 23.95 1.9 L26.7 3.6 25.95 4.25 25.9 4.3 25.45 4.65 25.25 4.85 24.2 5.55 23.05 4.45 21.95 3.25 20.55 1.9 22.15 0.85 22.3 0.75" fill="#f6f5f5" fill-rule="evenodd" stroke="none"/>
      <path d="M26.7 3.85 L25.35 6.1 24.95 6.4 22.6 7.95 Q16.7 10.95 11.75 10.55 L11.4 10.5 10.8 7.4 10.8 7.1 Q10.85 6.2 11.05 5.2 L12.05 5.15 12.95 5.0 15.8 4.3 17.45 6.55 18.35 7.95 Q20.3 7.75 23.3 6.15 L24.2 5.55 25.25 4.85 25.45 4.65 25.9 4.3 25.95 4.25 26.7 3.85 M10.45 15.15 L11.25 15.45 14.5 16.4 Q19.0 17.2 23.5 16.35 L24.15 17.4 28.1 22.5 31.1 26.75 34.1 31.8 37.3 37.35 37.55 37.8 40.5 43.4 45.1 52.5 40.95 48.5 33.7 41.4 32.85 40.6 32.25 40.05 25.55 33.2 22.65 30.2 Q16.05 23.3 13.45 19.7 L12.9 19.4 10.55 18.4 10.45 15.15" fill="#9297bd" fill-rule="evenodd" stroke="none"/>
      <path d="M45.25 52.8 L45.4 53.5 45.65 53.85 Q41.85 53.05 37.8 51.4 L33.25 49.4 30.8 48.15 Q28.65 47.25 26.95 46.05 L24.1 44.25 21.05 42.2 20.05 41.45 19.95 41.35 Q16.15 38.6 13.2 36.05 L8.75 32.5 6.2 30.2 5.65 27.6 4.9 22.55 Q4.2 15.85 6.1 12.85 L5.85 12.8 6.5 11.9 7.8 10.15 7.9 10.25 7.8 10.05 7.9 9.9 7.85 9.75 7.8 9.7 7.8 9.45 7.75 8.45 Q7.55 7.85 7.7 6.95 7.6 5.0 7.8 4.05 L8.05 4.4 Q8.9 5.4 11.05 5.2 10.85 6.2 10.8 7.1 L10.8 7.4 11.4 10.5 11.6 10.95 10.95 13.15 10.5 14.25 10.5 14.6 10.35 15.05 10.45 15.15 10.55 18.4 Q10.75 24.4 11.55 29.0 L13.95 31.0 22.5 37.55 25.35 39.9 27.85 41.7 28.35 42.1 32.0 44.5 Q35.9 47.45 39.6 49.6 42.65 51.45 45.25 52.8" fill="#51c2de" fill-rule="evenodd" stroke="none"/>
      <path d="M45.1 52.5 L45.25 52.8 Q42.65 51.45 39.6 49.6 35.9 47.45 32.0 44.5 L28.35 42.1 27.85 41.7 25.35 39.9 22.5 37.55 13.95 31.0 11.55 29.0 Q10.75 24.4 10.55 18.4 L12.9 19.4 13.45 19.7 Q16.05 23.3 22.65 30.2 L25.55 33.2 32.25 40.05 32.85 40.6 33.7 41.4 40.95 48.5 45.1 52.5" fill="#a5a4b4" fill-rule="evenodd" stroke="none"/>
      <path d="M13.4 -1.85 Q13.7 -2.0 13.8 -2.1 L15.3 -2.65 Q18.1 -3.8 20.55 -3.9 L20.75 -3.85 Q22.8 -3.85 23.55 -3.3 L23.75 -3.05 23.9 -2.7 Q23.95 -2.65 24.15 -2.55 L24.95 -1.95 25.65 -1.0 26.9 0.5 26.9 0.55 M27.7 0.6 L28.75 0.8 30.3 1.0 M30.55 1.05 L31.8 1.4 32.55 1.55 32.8 1.75 33.65 2.4 Q35.35 3.35 37.7 5.15 41.0 7.55 43.1 9.85 L43.95 11.85 M44.0 12.2 L45.9 18.05 48.25 28.15 48.35 29.0 48.75 31.45 49.1 33.3 Q49.55 36.95 49.45 40.5 L49.5 40.55 49.25 43.9 Q48.7 48.45 47.0 52.75 L46.65 53.5 M45.65 53.85 Q41.85 53.05 37.8 51.4 L33.25 49.4 30.8 48.15 Q28.65 47.25 26.95 46.05 L24.1 44.25 21.05 42.2 20.05 41.45 19.95 41.35 Q16.15 38.6 13.2 36.05 L8.75 32.5 6.2 30.2 5.65 27.6 4.9 22.55 Q4.2 15.85 6.1 12.85 L5.85 12.8 6.5 11.9 7.8 10.15 M7.8 10.05 L7.9 9.9 7.85 9.75 7.8 9.7 7.8 9.45 7.75 8.45 Q7.55 7.85 7.7 6.95 7.6 5.0 7.8 4.05 7.25 3.3 8.0 2.2 L8.4 1.7 9.95 0.3 10.2 0.15 13.4 -1.85 M24.05 -2.45 L24.0 -2.6 23.9 -2.7" fill="none" stroke="#183064" stroke-linecap="round" stroke-linejoin="round" stroke-width="1.0"/>
    </g>
  </defs>
</svg>
