<?xml version="1.0" encoding="UTF-8" standalone="no"?>
<svg xmlns:ffdec="https://www.free-decompiler.com/flash" xmlns:xlink="http://www.w3.org/1999/xlink" ffdec:objectType="frame" height="30.1px" width="30.0px" xmlns="http://www.w3.org/2000/svg">
  <g transform="matrix(1.0, 0.0, 0.0, 1.0, 0.0, 0.0)">
    <use ffdec:characterId="1" height="30.0" transform="matrix(1.0, 0.0, 0.0, 1.0, 0.0, 0.0)" width="30.0" xlink:href="#shape0"/>
    <use ffdec:characterId="5" height="30.0" transform="matrix(1.0, 0.0, 0.0, 1.0, 0.0, 0.1)" width="30.0" xlink:href="#sprite0"/>
  </g>
  <defs>
    <g id="shape0" transform="matrix(1.0, 0.0, 0.0, 1.0, 0.0, 0.0)">
      <path d="M0.0 0.0 L30.0 0.0 30.0 30.0 0.0 30.0 0.0 0.0" fill="#33cc66" fill-opacity="0.0" fill-rule="evenodd" stroke="none"/>
    </g>
    <g id="sprite0" transform="matrix(1.0, 0.0, 0.0, 1.0, 0.0, 0.0)">
      <use ffdec:characterId="2" height="30.0" transform="matrix(1.0, 0.0, 0.0, 1.0, 0.0, 0.0)" width="30.0" xlink:href="#shape1"/>
      <filter id="filter0">
        <feColorMatrix in="SourceGraphic" result="filterResult0" type="matrix" values="0 0 0 0 1.0,0 0 0 0 1.0,0 0 0 0 1.0,0 0 0 1 0"/>
        <feConvolveMatrix divisor="25.0" in="filterResult0" kernelMatrix="1 1 1 1 1 1 1 1 1 1 1 1 1 1 1 1 1 1 1 1 1 1 1 1 1" order="5 5" result="filterResult1"/>
        <feComposite in="SourceGraphic" in2="filterResult1" operator="over" result="filterResult2"/>
      </filter>
      <use ffdec:characterId="4" filter="url(#filter0)" height="70.45" transform="matrix(0.3961, 0.0, 0.0, 0.3961, 2.0848, 0.7969)" width="66.55" xlink:href="#sprite1"/>
    </g>
    <g id="shape1" transform="matrix(1.0, 0.0, 0.0, 1.0, 0.0, 0.0)">
      <path d="M27.95 0.15 Q30.0 0.7 30.0 3.3 L30.0 26.7 29.8 28.15 Q29.15 30.0 26.7 30.0 L3.3 30.0 2.4 29.95 Q0.7 29.65 0.2 28.15 L0.0 26.7 0.0 3.3 Q0.0 0.7 2.05 0.15 L2.4 0.1 3.3 0.0 26.7 0.0 27.95 0.15" fill="#cccccc" fill-rule="evenodd" stroke="none"/>
    </g>
    <g id="sprite1" transform="matrix(1.0, 0.0, 0.0, 1.0, 6.35, 12.0)">
      <use ffdec:characterId="3" height="70.45" transform="matrix(1.0, 0.0, 0.0, 1.0, -6.35, -12.0)" width="66.55" xlink:href="#shape2"/>
    </g>
    <g id="shape2" transform="matrix(1.0, 0.0, 0.0, 1.0, 6.35, 12.0)">
      <path d="M5.25 28.0 L59.85 -11.75 60.05 -11.85 59.5 -10.75 Q53.65 0.5 47.85 10.55 L46.75 12.7 47.05 11.55 Q51.3 1.45 52.3 -1.85 L5.4 28.55 5.25 28.0 M10.5 27.8 L10.4 27.75 Q10.15 27.7 10.25 27.45 L10.55 27.25 10.7 27.05 11.4 26.4 11.75 26.75 12.25 26.9 Q11.9 28.15 10.5 27.8" fill="#ffba51" fill-rule="evenodd" stroke="none"/>
      <path d="M5.4 28.55 L52.3 -1.85 45.25 6.3 41.65 10.8 29.7 24.65 20.2 28.65 19.9 28.85 Q13.25 31.45 8.85 33.5 7.8 33.85 6.9 34.3 6.55 32.1 5.4 28.55 M47.05 11.55 L46.75 12.7 46.65 12.75 45.5 14.35 Q36.55 29.85 27.3 42.45 L25.45 44.9 24.85 45.65 19.8 48.6 Q11.3 52.85 3.85 55.7 -1.25 57.35 -6.2 58.3 -4.8 53.2 -2.85 47.35 -0.3 39.35 3.3 30.3 L3.75 29.6 3.95 29.4 -2.7 54.3 Q-2.6 55.0 -2.85 55.85 3.75 54.95 21.85 45.4 L22.3 45.15 23.1 44.3 26.05 40.65 26.65 39.9 32.9 31.65 38.8 23.35 45.3 14.15 47.05 11.55 M10.5 27.8 Q11.9 28.15 12.25 26.9 L11.75 26.75 11.4 26.4 10.7 27.05 10.55 27.25 10.25 27.45 Q10.15 27.7 10.4 27.75 L10.5 27.8" fill="#f61d0e" fill-rule="evenodd" stroke="none"/>
      <path d="M5.25 28.0 L5.4 28.55 Q6.55 32.1 6.9 34.3 7.8 33.85 8.85 33.5 13.25 31.45 19.9 28.85 L20.2 28.65 29.7 24.65 41.65 10.8 45.25 6.3 52.3 -1.85 Q51.3 1.45 47.05 11.55 L45.3 14.15 38.8 23.35 32.9 31.65 26.65 39.9 26.05 40.65 23.1 44.3 22.3 45.15 21.85 45.4 Q3.75 54.95 -2.85 55.85 -2.6 55.0 -2.7 54.3 L3.95 29.4 3.75 29.6 3.9 29.1 5.25 28.0 M10.15 35.2 L4.4 49.55 18.25 44.8 26.5 28.6 10.15 35.2" fill="#85090b" fill-rule="evenodd" stroke="none"/>
      <path d="M10.15 35.2 L26.5 28.6 18.25 44.8 4.4 49.55 10.15 35.2" fill="#fffc3c" fill-rule="evenodd" stroke="none"/>
      <path d="M46.75 12.7 L47.85 10.55 Q53.65 0.5 59.5 -10.75 L60.05 -11.85 59.85 -11.75 5.25 28.0 3.9 29.1 3.75 29.6 3.3 30.3 Q-0.3 39.35 -2.85 47.35 -4.8 53.2 -6.2 58.3 -1.25 57.35 3.85 55.7 11.3 52.85 19.8 48.6 L24.85 45.65 25.45 44.9 27.3 42.45 Q36.55 29.85 45.5 14.35 L46.65 12.75 46.75 12.7 M10.15 35.2 L4.4 49.55 18.25 44.8 26.5 28.6 10.15 35.2 Z" fill="none" stroke="#200d19" stroke-linecap="round" stroke-linejoin="round" stroke-width="0.30000000000000004"/>
    </g>
  </defs>
</svg>
