<?xml version="1.0" encoding="UTF-8" standalone="no"?>
<svg xmlns:ffdec="https://www.free-decompiler.com/flash" xmlns:xlink="http://www.w3.org/1999/xlink" ffdec:objectType="frame" height="30.1px" width="30.0px" xmlns="http://www.w3.org/2000/svg">
  <g transform="matrix(1.0, 0.0, 0.0, 1.0, 0.0, 0.0)">
    <use ffdec:characterId="1" height="30.0" transform="matrix(1.0, 0.0, 0.0, 1.0, 0.0, 0.0)" width="30.0" xlink:href="#shape0"/>
    <use ffdec:characterId="5" height="30.0" transform="matrix(1.0, 0.0, 0.0, 1.0, 0.0, 0.1)" width="30.0" xlink:href="#sprite0"/>
  </g>
  <defs>
    <g id="shape0" transform="matrix(1.0, 0.0, 0.0, 1.0, 0.0, 0.0)">
      <path d="M0.0 0.0 L30.0 0.0 30.0 30.0 0.0 30.0 0.0 0.0" fill="#33cc66" fill-opacity="0.0" fill-rule="evenodd" stroke="none"/>
    </g>
    <g id="sprite0" transform="matrix(1.0, 0.0, 0.0, 1.0, 0.0, 0.0)">
      <use ffdec:characterId="2" height="30.0" transform="matrix(1.0, 0.0, 0.0, 1.0, 0.0, 0.0)" width="30.0" xlink:href="#shape1"/>
      <filter id="filter0">
        <feColorMatrix in="SourceGraphic" result="filterResult0" type="matrix" values="0 0 0 0 1.0,0 0 0 0 1.0,0 0 0 0 1.0,0 0 0 1 0"/>
        <feConvolveMatrix divisor="25.0" in="filterResult0" kernelMatrix="1 1 1 1 1 1 1 1 1 1 1 1 1 1 1 1 1 1 1 1 1 1 1 1 1" order="5 5" result="filterResult1"/>
        <feComposite in="SourceGraphic" in2="filterResult1" operator="over" result="filterResult2"/>
      </filter>
      <use ffdec:characterId="4" filter="url(#filter0)" height="65.6" transform="matrix(0.3961, 0.0, 0.0, 0.3961, 2.6988, 1.3911)" width="61.9" xlink:href="#sprite1"/>
    </g>
    <g id="shape1" transform="matrix(1.0, 0.0, 0.0, 1.0, 0.0, 0.0)">
      <path d="M27.95 0.15 Q30.0 0.7 30.0 3.3 L30.0 26.7 29.8 28.15 Q29.15 30.0 26.7 30.0 L3.3 30.0 2.4 29.95 Q0.7 29.65 0.2 28.15 L0.0 26.7 0.0 3.3 Q0.0 0.7 2.05 0.15 L2.4 0.1 3.3 0.0 26.7 0.0 27.95 0.15" fill="#cccccc" fill-rule="evenodd" stroke="none"/>
    </g>
    <g id="sprite1" transform="matrix(1.0, 0.0, 0.0, 1.0, 4.8, 10.5)">
      <use ffdec:characterId="3" height="65.6" transform="matrix(1.0, 0.0, 0.0, 1.0, -4.8, -10.5)" width="61.9" xlink:href="#shape2"/>
    </g>
    <g id="shape2" transform="matrix(1.0, 0.0, 0.0, 1.0, 4.8, 10.5)">
      <path d="M50.3 -0.5 L50.45 -0.45 50.6 -0.5 50.65 -0.55 Q51.9 8.7 51.4 9.5 51.05 10.05 46.75 11.2 L42.55 12.4 Q42.35 12.7 42.05 14.35 L42.1 14.75 42.0 16.25 40.9 15.35 40.05 14.95 40.2 11.05 40.35 8.85 40.55 7.7 Q41.5 6.3 42.5 6.5 L46.1 7.25 46.35 7.2 Q45.7 3.95 46.2 3.2 46.7 2.4 48.1 1.3 L50.3 -0.5 M47.35 17.75 L46.05 20.25 44.45 22.35 44.3 22.4 Q43.7 22.6 42.45 22.0 L41.95 22.4 Q40.2 23.9 39.55 24.05 L39.15 23.75 41.7 19.15 Q42.35 18.1 43.05 17.85 L43.75 17.8 Q45.0 18.65 47.0 17.6 L47.35 17.75" fill="#f5ffa9" fill-rule="evenodd" stroke="none"/>
      <path d="M50.6 -0.5 L50.3 -0.5 48.1 1.3 Q46.7 2.4 46.2 3.2 45.7 3.95 46.35 7.2 L46.25 7.15 46.1 7.25 42.5 6.5 Q41.5 6.3 40.55 7.7 L40.35 8.85 40.2 11.05 40.05 14.95 40.9 15.35 42.0 16.25 42.1 14.75 42.05 14.35 Q42.35 12.7 42.55 12.4 L46.75 11.2 Q51.05 10.05 51.4 9.5 51.9 8.7 50.65 -0.55 L50.6 -0.5 M34.75 8.25 L39.35 5.35 39.5 5.3 Q47.3 -0.25 54.55 -9.5 56.55 -0.65 55.95 2.75 L54.8 8.6 53.55 12.6 Q53.05 14.4 51.65 16.75 L49.45 20.35 45.35 25.8 40.3 30.9 39.2 31.85 40.1 30.25 40.95 27.95 41.3 25.6 37.9 25.5 36.55 25.4 30.9 25.1 Q26.5 26.45 25.3 28.3 24.65 29.25 26.2 32.55 27.55 35.7 28.25 36.2 30.5 37.6 33.8 36.1 L33.9 36.15 Q29.25 39.5 23.75 42.55 L23.75 42.45 Q26.05 38.75 26.05 37.25 26.1 36.25 25.5 34.35 23.45 35.0 20.25 35.25 L16.4 35.55 14.8 35.75 Q12.85 36.05 10.85 36.8 8.5 37.6 6.25 39.0 L7.35 37.2 12.85 28.6 13.55 27.6 13.5 29.2 13.55 30.1 13.6 31.95 14.75 32.55 14.85 32.65 14.9 32.7 Q16.5 33.4 18.0 33.55 21.8 33.85 23.85 30.6 24.1 30.2 24.0 27.75 L24.1 26.6 Q24.4 25.05 25.9 23.45 25.1 22.65 24.65 22.45 23.1 21.4 20.75 21.8 18.8 22.15 16.6 23.4 20.15 18.45 22.45 16.5 L24.9 14.65 30.6 14.15 Q32.0 15.1 32.2 16.0 L33.15 16.5 33.7 16.1 34.4 15.2 Q34.85 14.55 34.65 14.05 L33.9 12.85 Q33.2 11.2 34.75 8.25 M47.35 17.75 L47.0 17.6 Q45.0 18.65 43.75 17.8 L43.05 17.85 Q42.35 18.1 41.7 19.15 L39.15 23.75 39.55 24.05 Q40.2 23.9 41.95 22.4 L42.45 22.0 Q43.7 22.6 44.3 22.4 L44.45 22.35 46.05 20.25 47.35 17.75" fill="#63fcfa" fill-rule="evenodd" stroke="none"/>
      <path d="M34.75 8.25 Q33.2 11.2 33.9 12.85 L34.65 14.05 Q34.85 14.55 34.4 15.2 L33.7 16.1 33.15 16.5 32.2 16.0 Q32.0 15.1 30.6 14.15 L24.9 14.65 30.75 10.65 31.15 10.5 34.75 8.25 M16.6 23.4 Q18.8 22.15 20.75 21.8 23.1 21.4 24.65 22.45 25.1 22.65 25.9 23.45 24.4 25.05 24.1 26.6 22.3 26.35 19.8 27.1 16.5 28.1 15.5 29.55 14.85 30.7 14.95 32.25 L14.75 32.55 13.6 31.95 13.55 30.1 13.5 29.2 13.55 27.6 16.6 23.4 M6.25 39.0 Q8.5 37.6 10.85 36.8 L9.5 38.65 8.3 40.65 Q7.75 41.9 7.5 43.0 6.8 45.35 7.95 46.0 L10.05 46.4 15.75 46.75 15.75 46.8 Q6.2 51.25 -3.8 54.1 L6.05 39.25 6.25 39.0" fill="#7f3b9e" fill-rule="evenodd" stroke="none"/>
      <path d="M24.1 26.6 L24.0 27.75 Q24.1 30.2 23.85 30.6 21.8 33.85 18.0 33.55 16.5 33.4 14.9 32.7 L14.95 32.25 Q14.85 30.7 15.5 29.55 16.5 28.1 19.8 27.1 22.3 26.35 24.1 26.6 M10.85 36.8 Q12.85 36.05 14.8 35.75 L16.4 35.55 20.25 35.25 Q23.45 35.0 25.5 34.35 26.1 36.25 26.05 37.25 26.05 38.75 23.75 42.45 L23.6 42.7 23.2 42.9 20.85 44.2 16.85 46.2 15.85 46.75 15.75 46.75 10.05 46.4 7.95 46.0 Q6.8 45.35 7.5 43.0 7.75 41.9 8.3 40.65 L9.5 38.65 10.85 36.8 M33.8 36.1 Q30.5 37.6 28.25 36.2 27.55 35.7 26.2 32.55 24.65 29.25 25.3 28.3 26.5 26.45 30.9 25.1 L36.55 25.4 37.9 25.5 41.3 25.6 40.95 27.95 40.1 30.25 39.2 31.85 34.45 35.8 33.8 36.1" fill="#587ebc" fill-rule="evenodd" stroke="none"/>
      <path d="M39.2 31.85 L40.3 30.9 45.35 25.8 49.45 20.35 51.65 16.75 Q53.05 14.4 53.55 12.6 L54.8 8.6 55.95 2.75 Q56.55 -0.65 54.55 -9.5 47.3 -0.25 39.5 5.3 L39.35 5.35 34.75 8.25 31.15 10.5 30.75 10.65 24.9 14.65 22.45 16.5 Q20.15 18.45 16.6 23.4 L13.55 27.6 12.85 28.6 7.35 37.2 6.25 39.0 6.05 39.25 -3.8 54.1 Q6.2 51.25 15.75 46.8 L15.85 46.75 16.85 46.2 20.85 44.2 23.2 42.9 23.6 42.7 23.75 42.55 Q29.25 39.5 33.9 36.15 L34.45 35.8 39.2 31.85 Z" fill="none" stroke="#9fffec" stroke-linecap="round" stroke-linejoin="round" stroke-width="2.0"/>
    </g>
  </defs>
</svg>
