<?xml version="1.0" encoding="UTF-8" standalone="no"?>
<svg xmlns:ffdec="https://www.free-decompiler.com/flash" xmlns:xlink="http://www.w3.org/1999/xlink" ffdec:objectType="frame" height="30.1px" width="30.0px" xmlns="http://www.w3.org/2000/svg">
  <g transform="matrix(1.0, 0.0, 0.0, 1.0, 0.0, 0.0)">
    <use ffdec:characterId="1" height="30.0" transform="matrix(1.0, 0.0, 0.0, 1.0, 0.0, 0.0)" width="30.0" xlink:href="#shape0"/>
    <use ffdec:characterId="5" height="30.0" transform="matrix(1.0, 0.0, 0.0, 1.0, 0.0, 0.1)" width="30.0" xlink:href="#sprite0"/>
  </g>
  <defs>
    <g id="shape0" transform="matrix(1.0, 0.0, 0.0, 1.0, 0.0, 0.0)">
      <path d="M0.0 0.0 L30.0 0.0 30.0 30.0 0.0 30.0 0.0 0.0" fill="#33cc66" fill-opacity="0.0" fill-rule="evenodd" stroke="none"/>
    </g>
    <g id="sprite0" transform="matrix(1.0, 0.0, 0.0, 1.0, 0.0, 0.0)">
      <use ffdec:characterId="2" height="30.0" transform="matrix(1.0, 0.0, 0.0, 1.0, 0.0, 0.0)" width="30.0" xlink:href="#shape1"/>
      <filter id="filter0">
        <feColorMatrix in="SourceGraphic" result="filterResult0" type="matrix" values="0 0 0 0 1.0,0 0 0 0 1.0,0 0 0 0 1.0,0 0 0 1 0"/>
        <feConvolveMatrix divisor="25.0" in="filterResult0" kernelMatrix="1 1 1 1 1 1 1 1 1 1 1 1 1 1 1 1 1 1 1 1 1 1 1 1 1" order="5 5" result="filterResult1"/>
        <feComposite in="SourceGraphic" in2="filterResult1" operator="over" result="filterResult2"/>
      </filter>
      <use ffdec:characterId="4" filter="url(#filter0)" height="75.2" transform="matrix(0.3961, 0.0, 0.0, 0.3961, 5.4912, 0.1632)" width="47.45" xlink:href="#sprite1"/>
    </g>
    <g id="shape1" transform="matrix(1.0, 0.0, 0.0, 1.0, 0.0, 0.0)">
      <path d="M27.95 0.15 Q30.0 0.7 30.0 3.3 L30.0 26.7 29.8 28.15 Q29.15 30.0 26.7 30.0 L3.3 30.0 2.4 29.95 Q0.7 29.65 0.2 28.15 L0.0 26.7 0.0 3.3 Q0.0 0.7 2.05 0.15 L2.4 0.1 3.3 0.0 26.7 0.0 27.95 0.15" fill="#cccccc" fill-rule="evenodd" stroke="none"/>
    </g>
    <g id="sprite1" transform="matrix(1.0, 0.0, 0.0, 1.0, -2.25, 13.6)">
      <use ffdec:characterId="3" height="75.2" transform="matrix(1.0, 0.0, 0.0, 1.0, 2.25, -13.6)" width="47.45" xlink:href="#shape2"/>
    </g>
    <g id="shape2" transform="matrix(1.0, 0.0, 0.0, 1.0, -2.25, 13.6)">
      <path d="M36.05 -1.7 L45.1 4.6 43.6 6.7 39.95 11.2 Q36.25 15.9 34.15 18.95 L29.25 13.3 28.5 12.3 36.05 -1.7 M17.65 -11.6 L24.95 -8.3 33.3 -3.45 26.4 9.55 25.95 8.9 20.25 2.0 Q19.15 -2.7 17.65 -11.6" fill="#8c81b2" fill-rule="evenodd" stroke="none"/>
      <path d="M33.3 -3.45 L36.05 -1.7 28.5 12.3 Q27.95 13.3 27.7 14.25 25.55 17.75 24.0 20.95 L29.25 27.75 31.1 29.95 30.25 33.2 28.15 38.55 27.25 40.9 Q25.75 44.6 23.8 49.95 L23.2 50.6 23.0 50.4 20.4 47.55 18.65 45.25 14.45 40.2 13.5 39.35 12.25 37.7 12.25 36.95 Q12.5 32.55 13.15 27.4 L10.95 24.35 7.55 20.2 7.1 19.6 5.95 17.75 6.45 15.05 8.1 17.0 12.7 23.05 13.15 23.45 13.35 25.55 Q13.35 24.75 13.5 24.1 L13.7 22.45 15.45 10.55 15.9 11.2 19.6 15.9 21.05 17.75 21.7 18.3 26.4 9.55 33.3 -3.45 M17.0 18.75 L16.75 18.3 16.55 20.2 16.55 20.3 16.55 22.15 16.35 27.6 16.35 31.65 16.3 34.65 16.3 36.95 16.35 36.95 17.55 38.7 Q19.3 42.1 21.45 44.6 L21.7 43.85 25.55 29.5 25.75 29.35 24.0 27.3 21.9 24.8 20.25 22.6 19.75 21.8 Q18.65 20.85 17.85 19.65 L17.0 18.75" fill="#4b2b72" fill-rule="evenodd" stroke="none"/>
      <path d="M6.45 15.05 Q7.25 11.65 8.35 8.0 11.75 -4.9 14.45 -13.1 L14.6 -13.1 14.6 -6.55 15.45 7.15 15.45 7.8 15.65 8.6 15.65 8.9 15.45 10.55 13.7 22.45 13.5 24.1 Q13.35 24.75 13.35 25.55 L13.15 23.45 13.15 22.8 12.7 11.2 12.4 4.4 Q10.5 8.6 8.1 17.0 L6.45 15.05 M16.35 36.95 L16.3 36.95 16.3 34.65 16.35 31.65 16.35 27.6 16.55 22.15 16.55 20.3 16.55 20.2 16.75 18.3 17.0 18.75 18.65 28.4 19.6 32.9 Q19.3 32.9 19.3 33.1 17.65 35.05 16.35 36.95" fill="#ffffff" fill-rule="evenodd" stroke="none"/>
      <path d="M45.1 4.6 L49.2 8.25 48.3 10.1 48.1 10.35 47.1 12.05 40.0 24.1 39.35 25.35 36.25 30.8 36.05 36.15 Q35.7 38.35 35.7 41.1 L35.6 43.2 35.25 51.05 Q34.95 51.4 34.6 52.05 L30.7 59.15 29.6 61.1 Q29.15 60.7 28.5 60.6 L26.4 56.1 25.4 53.6 25.1 52.9 30.25 33.2 31.1 29.95 29.25 27.75 24.0 20.95 Q25.55 17.75 27.7 14.25 27.95 13.3 28.5 12.3 L29.25 13.3 34.15 18.95 Q36.25 15.9 39.95 11.2 L43.6 6.7 45.1 4.6 M14.6 -13.1 Q16.1 -12.65 17.65 -11.6 19.15 -2.7 20.25 2.0 L25.95 8.9 26.4 9.55 21.7 18.3 21.05 17.75 19.6 15.9 15.9 11.2 15.45 10.55 15.65 8.9 15.65 8.6 15.45 7.8 15.45 7.15 14.6 -6.55 14.6 -13.1" fill="#6e558c" fill-rule="evenodd" stroke="none"/>
      <path d="M3.4 35.75 L2.75 35.05 3.2 31.8 3.4 31.0 Q5.6 23.55 7.1 19.6 L7.55 20.2 10.95 24.35 13.15 27.4 Q12.5 32.55 12.25 36.95 L12.25 37.7 13.5 39.35 14.45 40.2 18.65 45.25 13.5 40.85 12.25 39.65 10.75 38.55 7.55 35.75 3.4 35.75 M13.15 23.45 L12.7 23.05 8.1 17.0 Q10.5 8.6 12.4 4.4 L12.7 11.2 13.15 22.8 13.15 23.45" fill="#eddbf5" fill-rule="evenodd" stroke="none"/>
      <path d="M17.0 18.75 L17.85 19.65 Q18.65 20.85 19.75 21.8 L20.25 22.6 21.9 24.8 24.0 27.3 25.75 29.35 25.55 29.5 Q22.35 31.65 19.6 32.9 L18.65 28.4 17.0 18.75 M43.6 39.8 L43.15 44.6 42.15 45.25 38.9 47.35 38.9 47.1 39.3 31.25 41.05 28.4 Q41.3 29.35 42.15 30.55 L43.9 34.2 43.6 39.8 M8.75 45.6 L9.65 46.9 12.25 49.95 12.25 50.15 18.05 56.75 19.75 58.8 17.85 58.15 17.65 58.15 15.75 58.05 14.8 56.85 13.05 54.45 9.45 49.75 Q9.4 49.3 8.8 49.1 L8.8 48.0 8.75 47.35 8.75 45.6" fill="#e20000" fill-rule="evenodd" stroke="none"/>
      <path d="M6.45 39.55 L6.25 39.35 5.8 38.7 4.95 37.7 3.4 35.75 7.55 35.75 10.75 38.55 12.25 39.65 13.5 40.85 18.65 45.25 20.4 47.55 23.0 50.4 23.2 50.6 23.8 49.95 Q25.75 44.6 27.25 40.9 L28.15 38.55 30.25 33.2 25.1 52.9 25.4 53.6 23.45 52.25 Q13.7 45.45 6.45 39.55" fill="#c5addc" fill-rule="evenodd" stroke="none"/>
      <path d="M21.7 43.85 L21.45 44.6 Q19.3 42.1 17.55 38.7 L16.35 36.95 Q17.65 35.05 19.3 33.1 19.3 32.9 19.6 32.9 L21.7 43.85" fill="#ff87b5" fill-rule="evenodd" stroke="none"/>
      <path d="M28.5 60.6 L24.95 58.95 23.65 58.3 22.55 58.05 21.05 56.4 18.95 53.6 18.85 53.6 12.05 45.9 11.95 45.8 10.0 43.7 8.75 42.2 8.2 41.55 6.45 39.55 Q13.7 45.45 23.45 52.25 L25.4 53.6 26.4 56.1 28.5 60.6" fill="#a280c4" fill-rule="evenodd" stroke="none"/>
      <path d="M25.55 29.5 L21.7 43.85 19.6 32.9 Q22.35 31.65 25.55 29.5" fill="#8a0c0c" fill-rule="evenodd" stroke="none"/>
      <path d="M33.3 -3.45 L36.05 -1.7 45.1 4.6 49.2 8.25 48.3 10.1 48.1 10.35 47.1 12.05 40.0 24.1 39.35 25.35 36.25 30.8 36.05 36.15 Q35.7 38.35 35.7 41.1 L35.6 43.2 35.25 51.05 Q34.95 51.4 34.6 52.05 L30.7 59.15 29.6 61.1 Q29.15 60.7 28.5 60.6 L24.95 58.95 23.65 58.3 22.55 58.05 21.05 56.4 18.95 53.6 18.85 53.6 12.05 45.9 11.95 45.8 10.0 43.7 8.75 42.2 8.2 41.55 6.45 39.55 6.25 39.35 5.8 38.7 4.95 37.7 3.4 35.75 2.75 35.05 3.2 31.8 3.4 31.0 Q4.3 24.8 5.95 17.75 L6.45 15.05 Q7.25 11.65 8.35 8.0 11.75 -4.9 14.45 -13.1 L14.6 -13.1 Q16.1 -12.65 17.65 -11.6 L24.95 -8.3 33.3 -3.45" fill="none" stroke="#2d1b48" stroke-linecap="round" stroke-linejoin="round" stroke-width="1.0"/>
      <path d="M16.35 36.95 L16.3 36.95 16.3 34.65 16.35 31.65 16.35 27.6 16.55 22.15 16.55 20.3 16.55 20.2 16.75 18.3 17.0 18.75 17.85 19.65 Q18.65 20.85 19.75 21.8 L20.25 22.6 21.9 24.8 24.0 27.3 25.75 29.35 25.55 29.5 21.7 43.85 21.45 44.6 Q19.3 42.1 17.55 38.7 L16.35 36.95 M43.6 39.8 L43.15 44.6 42.15 45.25 38.9 47.35 38.9 47.1 39.3 31.25 41.05 28.4 Q41.3 29.35 42.15 30.55 L43.9 34.2 43.6 39.8 M8.75 45.6 L8.75 47.35 8.8 48.0 8.8 49.1 Q9.4 49.3 9.45 49.75 L13.05 54.45 14.8 56.85 15.75 58.05 17.65 58.15 17.85 58.15" fill="none" stroke="#5b0000" stroke-linecap="round" stroke-linejoin="round" stroke-width="1.0"/>
    </g>
  </defs>
</svg>
