<?xml version="1.0" encoding="UTF-8" standalone="no"?>
<svg xmlns:ffdec="https://www.free-decompiler.com/flash" xmlns:xlink="http://www.w3.org/1999/xlink" ffdec:objectType="frame" height="30.1px" width="30.0px" xmlns="http://www.w3.org/2000/svg">
  <g transform="matrix(1.0, 0.0, 0.0, 1.0, 0.0, 0.0)">
    <use ffdec:characterId="1" height="30.0" transform="matrix(1.0, 0.0, 0.0, 1.0, 0.0, 0.0)" width="30.0" xlink:href="#shape0"/>
    <use ffdec:characterId="5" height="30.0" transform="matrix(1.0, 0.0, 0.0, 1.0, 0.0, 0.1)" width="30.0" xlink:href="#sprite0"/>
  </g>
  <defs>
    <g id="shape0" transform="matrix(1.0, 0.0, 0.0, 1.0, 0.0, 0.0)">
      <path d="M0.0 0.0 L30.0 0.0 30.0 30.0 0.0 30.0 0.0 0.0" fill="#33cc66" fill-opacity="0.0" fill-rule="evenodd" stroke="none"/>
    </g>
    <g id="sprite0" transform="matrix(1.0, 0.0, 0.0, 1.0, 0.0, 0.0)">
      <use ffdec:characterId="2" height="30.0" transform="matrix(1.0, 0.0, 0.0, 1.0, 0.0, 0.0)" width="30.0" xlink:href="#shape1"/>
      <filter id="filter0">
        <feColorMatrix in="SourceGraphic" result="filterResult0" type="matrix" values="0 0 0 0 1.0,0 0 0 0 1.0,0 0 0 0 1.0,0 0 0 1 0"/>
        <feConvolveMatrix divisor="25.0" in="filterResult0" kernelMatrix="1 1 1 1 1 1 1 1 1 1 1 1 1 1 1 1 1 1 1 1 1 1 1 1 1" order="5 5" result="filterResult1"/>
        <feComposite in="SourceGraphic" in2="filterResult1" operator="over" result="filterResult2"/>
      </filter>
      <use ffdec:characterId="4" filter="url(#filter0)" height="68.2" transform="matrix(0.3961, 0.0, 0.0, 0.3961, 5.4318, 1.5495)" width="47.3" xlink:href="#sprite1"/>
    </g>
    <g id="shape1" transform="matrix(1.0, 0.0, 0.0, 1.0, 0.0, 0.0)">
      <path d="M27.95 0.15 Q30.0 0.7 30.0 3.3 L30.0 26.7 29.8 28.15 Q29.15 30.0 26.7 30.0 L3.3 30.0 2.4 29.95 Q0.7 29.65 0.2 28.15 L0.0 26.7 0.0 3.3 Q0.0 0.7 2.05 0.15 L2.4 0.1 3.3 0.0 26.7 0.0 27.95 0.15" fill="#cccccc" fill-rule="evenodd" stroke="none"/>
    </g>
    <g id="sprite1" transform="matrix(1.0, 0.0, 0.0, 1.0, -2.1, 10.1)">
      <use ffdec:characterId="3" height="68.2" transform="matrix(1.0, 0.0, 0.0, 1.0, 2.1, -10.1)" width="47.3" xlink:href="#shape2"/>
    </g>
    <g id="shape2" transform="matrix(1.0, 0.0, 0.0, 1.0, -2.1, 10.1)">
      <path d="M45.8 -4.55 L45.75 -4.5 36.05 12.65 Q36.0 12.05 36.1 11.4 L33.55 12.35 28.5 17.55 28.45 20.15 Q28.3 24.65 27.3 29.1 29.3 25.65 31.9 22.8 L34.65 20.15 35.4 19.35 35.5 19.35 34.25 21.45 38.8 17.5 45.8 -4.55 M27.2 18.9 L28.3 11.35 19.25 24.45 16.4 26.25 17.35 23.85 18.3 23.2 27.65 9.85 49.25 -9.95 38.45 22.9 34.6 29.15 40.25 25.9 40.15 29.45 32.5 39.45 36.15 38.1 36.35 40.6 26.9 50.9 26.25 50.05 27.05 48.9 34.35 41.15 34.75 39.95 31.05 41.2 30.9 39.65 38.55 29.8 38.75 28.4 38.55 28.55 Q34.8 33.85 29.9 38.95 L26.5 42.35 26.05 42.7 25.8 42.75 26.75 41.35 Q30.8 35.8 35.65 30.95 L37.8 28.9 34.6 30.55 34.25 30.5 31.3 32.85 37.65 21.1 38.25 19.25 33.15 23.6 33.85 22.05 30.45 26.5 27.2 29.85 27.05 30.35 27.0 30.4 26.95 30.0 26.85 29.95 26.95 29.75 Q26.8 25.7 27.2 21.6 L27.5 18.6 27.2 18.9 M7.6 31.6 L8.0 28.4 17.05 14.0 17.65 17.3 15.85 24.9 16.5 24.5 15.25 27.15 14.45 26.05 13.45 29.25 12.9 31.1 Q11.7 35.6 9.5 39.95 L8.8 41.4 12.0 39.55 7.7 48.05 2.9 50.5 2.25 45.45 5.45 37.5 5.85 43.05 8.6 41.5 8.75 40.6 Q9.4 36.4 11.8 32.4 12.05 30.5 12.45 28.7 13.45 24.2 15.3 20.1 L15.4 19.55 7.6 31.6 M7.1 45.1 L7.25 44.7 6.8 45.3 7.15 45.15 7.1 45.1 M18.35 52.75 L13.45 56.85 7.05 57.95 6.2 52.1 7.75 48.65 8.7 51.45 10.5 51.35 14.95 50.75 21.95 44.7 18.35 52.75 M19.15 54.2 L23.5 46.0 25.0 52.3 20.45 54.55 19.15 54.2" fill="#d9f9ff" fill-rule="evenodd" stroke="none"/>
      <path d="M45.8 -4.55 L38.8 17.5 34.25 21.45 35.5 19.35 35.4 19.35 34.65 20.15 31.9 22.8 Q29.3 25.65 27.3 29.1 28.3 24.65 28.45 20.15 L28.5 17.55 33.55 12.35 36.1 11.4 Q36.0 12.05 36.05 12.65 L45.75 -4.5 45.8 -4.55 M26.75 41.35 L25.8 42.75 26.05 42.7 26.5 42.35 24.7 47.55 25.15 48.25 25.45 48.8 26.25 50.05 26.9 50.9 25.95 51.8 25.0 52.3 23.5 46.0 19.15 54.2 18.65 54.05 19.3 51.95 18.35 52.75 21.95 44.7 14.95 50.75 10.5 51.35 8.7 51.45 7.75 48.65 8.15 47.8 7.7 48.05 12.0 39.55 8.8 41.4 9.5 39.95 13.85 36.8 11.7 44.6 9.45 49.2 10.5 51.35 16.8 48.15 24.65 38.75 24.3 43.2 26.95 41.0 26.75 41.35 M8.75 40.6 L8.6 41.5 5.85 43.05 5.45 37.5 6.9 34.1 6.6 42.1 8.75 40.6" fill="#98f6ff" fill-rule="evenodd" stroke="none"/>
      <path d="M24.7 21.6 L25.6 20.35 25.6 20.55 24.7 21.6 M16.4 26.25 L15.1 29.15 18.1 27.65 22.85 23.55 20.5 26.05 15.35 40.55 15.05 47.4 21.0 42.15 29.9 31.6 32.25 25.8 34.45 25.55 29.25 33.85 29.3 34.5 31.3 32.85 34.25 30.5 34.6 30.55 35.8 30.75 35.65 30.95 Q30.8 35.8 26.75 41.35 L26.95 41.0 24.3 43.2 24.65 38.75 16.8 48.15 10.5 51.35 9.45 49.2 11.7 44.6 13.85 36.8 9.5 39.95 Q11.7 35.6 12.9 31.1 L13.45 29.25 13.45 29.85 14.15 29.6 15.25 27.15 16.5 24.5 17.35 23.85 16.4 26.25 M26.5 42.35 L29.9 38.95 29.6 40.75 29.9 42.25 29.85 43.1 30.8 43.3 27.05 48.9 26.25 50.05 25.45 48.8 25.5 48.1 25.15 48.25 24.7 47.55 26.5 42.35 M7.2 33.25 L12.45 28.7 Q12.05 30.5 11.8 32.4 9.4 36.4 8.75 40.6 L6.6 42.1 6.9 34.1 7.2 33.25" fill="url(#gradient0)" fill-rule="evenodd" stroke="none"/>
      <path d="M25.6 20.55 L25.6 20.35 24.7 21.6 23.9 22.55 22.85 23.55 18.1 27.65 15.1 29.15 16.4 26.25 19.25 24.45 28.3 11.35 27.2 18.9 25.6 20.55 M33.15 23.6 L38.25 19.25 37.65 21.1 31.3 32.85 29.3 34.5 29.25 33.85 34.45 25.55 32.25 25.8 33.15 23.6 M34.6 30.55 L37.8 28.9 35.65 30.95 35.8 30.75 34.6 30.55 M29.9 38.95 Q34.8 33.85 38.55 28.55 L38.75 28.4 38.55 29.8 30.9 39.65 31.05 41.2 34.75 39.95 34.35 41.15 27.05 48.9 30.8 43.3 29.85 43.1 29.9 42.25 29.6 40.75 29.9 38.95 M13.45 29.25 L14.45 26.05 15.25 27.15 14.15 29.6 13.45 29.85 13.45 29.25 M7.6 31.6 L15.4 19.55 15.3 20.1 Q13.45 24.2 12.45 28.7 L7.2 33.25 7.4 32.9 7.6 31.6 M25.15 48.25 L25.5 48.1 25.45 48.8 25.15 48.25" fill="#41bbff" fill-rule="evenodd" stroke="none"/>
      <path d="M24.7 21.6 L25.6 20.55 27.2 18.9 27.5 18.6 27.2 21.6 21.45 27.65 17.7 38.1 17.5 43.0 21.75 39.35 28.3 31.7 30.45 26.5 33.85 22.05 33.15 23.6 32.25 25.8 29.9 31.6 21.0 42.15 15.05 47.4 15.35 40.55 20.5 26.05 22.85 23.55 23.9 22.55 24.7 21.6" fill="#1a75fe" fill-rule="evenodd" stroke="none"/>
      <path d="M27.2 21.6 Q26.8 25.7 26.95 29.75 L26.85 29.95 26.95 30.0 27.0 30.4 27.05 30.35 27.2 29.85 30.45 26.5 28.3 31.7 21.75 39.35 17.5 43.0 17.7 38.1 21.45 27.65 27.2 21.6" fill="#004dc2" fill-rule="evenodd" stroke="none"/>
      <path d="M7.1 45.1 L7.15 45.15 6.8 45.3 7.25 44.7 7.1 45.1" fill="url(#gradient1)" fill-rule="evenodd" stroke="none"/>
      <path d="M26.9 50.9 L36.35 40.6 36.15 38.1 32.5 39.45 40.15 29.45 40.25 25.9 34.6 29.15 38.45 22.9 49.25 -9.95 27.65 9.85 18.3 23.2 17.35 23.85 16.5 24.5 15.85 24.9 17.65 17.3 17.05 14.0 8.0 28.4 7.6 31.6 7.4 32.9 7.2 33.25 6.9 34.1 5.45 37.5 2.25 45.45 2.9 50.5 7.7 48.05 8.15 47.8 7.75 48.65 6.2 52.1 7.05 57.95 13.45 56.85 18.35 52.75 19.3 51.95 18.65 54.05 19.15 54.2 20.45 54.55 25.0 52.3 25.95 51.8 26.9 50.9 Z" fill="none" stroke="#0087ff" stroke-linecap="round" stroke-linejoin="round" stroke-width="0.30000000000000004"/>
    </g>
    <linearGradient gradientTransform="matrix(0.02, -0.0348, 0.0135, 0.0078, 20.5, 37.3)" gradientUnits="userSpaceOnUse" id="gradient0" spreadMethod="pad" x1="-819.2" x2="819.2">
      <stop offset="0.0" stop-color="#5f75ff"/>
      <stop offset="1.0" stop-color="#41daff"/>
    </linearGradient>
    <linearGradient gradientTransform="matrix(0.02, -0.0348, 0.0135, 0.0078, 20.5, 37.3)" gradientUnits="userSpaceOnUse" id="gradient1" spreadMethod="pad" x1="-819.2" x2="819.2">
      <stop offset="0.0" stop-color="#4d65ff"/>
      <stop offset="1.0" stop-color="#41daff"/>
    </linearGradient>
  </defs>
</svg>
