<?xml version="1.0" encoding="UTF-8" standalone="no"?>
<svg xmlns:ffdec="https://www.free-decompiler.com/flash" xmlns:xlink="http://www.w3.org/1999/xlink" ffdec:objectType="frame" height="30.1px" width="30.0px" xmlns="http://www.w3.org/2000/svg">
  <g transform="matrix(1.0, 0.0, 0.0, 1.0, 0.0, 0.0)">
    <use ffdec:characterId="1" height="30.0" transform="matrix(1.0, 0.0, 0.0, 1.0, 0.0, 0.0)" width="30.0" xlink:href="#shape0"/>
    <use ffdec:characterId="5" height="30.0" transform="matrix(1.0, 0.0, 0.0, 1.0, 0.0, 0.1)" width="30.0" xlink:href="#sprite0"/>
  </g>
  <defs>
    <g id="shape0" transform="matrix(1.0, 0.0, 0.0, 1.0, 0.0, 0.0)">
      <path d="M0.0 0.0 L30.0 0.0 30.0 30.0 0.0 30.0 0.0 0.0" fill="#33cc66" fill-opacity="0.0" fill-rule="evenodd" stroke="none"/>
    </g>
    <g id="sprite0" transform="matrix(1.0, 0.0, 0.0, 1.0, 0.0, 0.0)">
      <use ffdec:characterId="2" height="30.0" transform="matrix(1.0, 0.0, 0.0, 1.0, 0.0, 0.0)" width="30.0" xlink:href="#shape1"/>
      <filter id="filter0">
        <feColorMatrix in="SourceGraphic" result="filterResult0" type="matrix" values="0 0 0 0 1.0,0 0 0 0 1.0,0 0 0 0 1.0,0 0 0 1 0"/>
        <feConvolveMatrix divisor="25.0" in="filterResult0" kernelMatrix="1 1 1 1 1 1 1 1 1 1 1 1 1 1 1 1 1 1 1 1 1 1 1 1 1" order="5 5" result="filterResult1"/>
        <feComposite in="SourceGraphic" in2="filterResult1" operator="over" result="filterResult2"/>
      </filter>
      <use ffdec:characterId="4" filter="url(#filter0)" height="72.7" transform="matrix(0.3961, 0.0, 0.0, 0.3961, 6.0259, 0.6187)" width="45.15" xlink:href="#sprite1"/>
    </g>
    <g id="shape1" transform="matrix(1.0, 0.0, 0.0, 1.0, 0.0, 0.0)">
      <path d="M27.95 0.15 Q30.0 0.7 30.0 3.3 L30.0 26.7 29.8 28.15 Q29.15 30.0 26.7 30.0 L3.3 30.0 2.4 29.95 Q0.7 29.65 0.2 28.15 L0.0 26.7 0.0 3.3 Q0.0 0.7 2.05 0.15 L2.4 0.1 3.3 0.0 26.7 0.0 27.95 0.15" fill="#cccccc" fill-rule="evenodd" stroke="none"/>
    </g>
    <g id="sprite1" transform="matrix(1.0, 0.0, 0.0, 1.0, -3.6, 12.45)">
      <use ffdec:characterId="3" height="72.7" transform="matrix(1.0, 0.0, 0.0, 1.0, 3.6, -12.45)" width="45.15" xlink:href="#shape2"/>
    </g>
    <g id="shape2" transform="matrix(1.0, 0.0, 0.0, 1.0, -3.6, 12.45)">
      <path d="M22.2 -10.95 L19.65 -11.5 16.35 -11.8 Q15.0 -11.65 13.0 -10.15 L19.9 -8.9 18.85 -0.9 Q18.45 -0.45 17.65 0.05 L16.8 0.9 Q15.9 1.25 15.05 2.0 L12.55 4.4 12.3 4.6 12.1 4.65 11.85 4.85 11.85 4.9 11.7 4.5 11.5 3.7 11.3 2.5 Q11.1 1.0 11.4 -1.0 L12.7 -7.55 12.35 -7.95 11.6 -8.05 Q9.8 -8.3 7.8 -3.6 L7.75 -3.45 7.7 -3.35 Q6.1 0.45 5.8 2.7 L5.7 3.7 Q5.65 1.0 6.2 -3.0 L6.2 -3.1 7.25 -6.55 Q8.95 -9.45 10.75 -10.8 L12.6 -11.2 20.1 -11.85 21.55 -11.55 22.2 -10.95" fill="#3e3c36" fill-rule="evenodd" stroke="none"/>
      <path d="M16.8 0.9 L17.65 0.05 Q18.45 -0.45 18.85 -0.9 L19.9 -8.9 13.0 -10.15 Q15.0 -11.65 16.35 -11.8 L19.65 -11.5 22.2 -10.95 22.55 -10.65 25.8 -7.55 26.7 -6.55 28.2 -4.15 27.65 -4.2 24.9 -6.15 24.8 -6.25 24.8 -6.3 22.05 -8.3 21.45 -7.95 21.15 -7.1 21.15 -4.1 21.0 0.15 Q23.9 1.75 26.75 5.8 28.4 8.1 29.8 11.1 L29.9 11.25 30.2 11.9 29.9 11.45 29.8 11.2 26.95 6.95 Q23.3 1.75 20.55 0.85 L19.9 0.4 Q18.3 0.2 16.8 0.9" fill="#eee4c8" fill-rule="evenodd" stroke="none"/>
      <path d="M29.9 11.45 L30.2 11.9 29.9 11.25 29.8 11.1 Q28.4 8.1 26.75 5.8 23.9 1.75 21.0 0.15 L21.15 -4.1 21.15 -7.1 21.45 -7.95 22.05 -8.3 24.8 -6.3 24.8 -6.25 24.9 -6.15 Q27.45 -4.25 28.9 1.25 30.45 6.6 29.95 10.75 31.0 8.35 31.4 5.55 31.75 9.5 31.4 13.9 L31.2 16.15 31.05 17.7 30.35 20.85 30.3 21.0 29.2 20.05 28.55 19.55 29.05 18.55 30.6 15.4 30.7 14.7 29.8 12.6 29.9 11.45" fill="#7f735b" fill-rule="evenodd" stroke="none"/>
      <path d="M16.8 0.9 Q18.3 0.2 19.9 0.4 L20.55 0.85 Q22.25 2.15 24.3 4.4 26.4 6.75 27.95 9.2 L29.8 12.6 30.7 14.7 30.6 15.4 29.05 18.55 28.55 19.55 27.25 18.6 27.35 18.55 27.55 17.95 28.15 16.05 28.65 13.65 28.65 13.1 Q27.3 9.6 24.55 6.3 22.1 3.35 19.25 2.25 L19.1 2.25 Q17.7 2.75 15.95 5.1 15.1 6.15 14.55 7.3 L14.1 8.25 13.95 8.5 Q13.0 10.7 12.7 13.2 L12.6 13.9 12.65 14.4 12.8 17.15 14.8 19.55 Q14.15 19.8 13.5 20.2 L12.2 21.2 12.35 22.85 Q9.05 19.65 7.5 16.35 5.0 11.15 5.7 3.7 L5.8 2.7 Q6.1 0.45 7.7 -3.35 L7.75 -3.45 7.8 -3.6 Q9.8 -8.3 11.6 -8.05 L12.35 -7.95 12.7 -7.55 11.4 -1.0 Q11.1 1.0 11.3 2.5 L11.5 3.7 11.7 4.5 11.85 4.9 11.85 4.85 12.1 4.65 12.3 4.6 12.55 4.4 15.05 2.0 Q15.9 1.25 16.8 0.9" fill="#25221d" fill-rule="evenodd" stroke="none"/>
      <path d="M24.9 -6.15 L27.65 -4.2 28.2 -4.15 26.7 -6.55 29.9 -2.8 Q31.1 1.1 31.4 5.55 31.0 8.35 29.95 10.75 30.45 6.6 28.9 1.25 27.45 -4.25 24.9 -6.15" fill="#aa9b7b" fill-rule="evenodd" stroke="none"/>
      <path d="M14.1 8.25 L14.8 7.75 16.1 6.75 16.15 6.75 Q18.05 4.05 19.85 3.7 19.8 4.1 20.1 4.1 L19.85 4.9 19.5 6.3 19.7 9.8 19.75 10.45 18.8 10.2 Q18.1 10.15 17.05 10.95 L16.4 11.5 16.0 11.85 13.95 13.45 12.85 14.25 14.1 16.5 Q17.4 21.55 19.45 21.8 L21.65 22.05 Q21.0 21.05 20.85 19.4 L20.65 17.95 20.35 17.15 20.4 15.55 20.35 15.45 20.35 14.1 24.2 14.25 26.55 14.3 Q27.3 15.2 27.15 16.3 L25.0 19.95 24.65 20.4 24.6 20.45 24.0 21.25 23.85 21.45 21.3 24.65 Q18.85 23.95 14.85 19.55 L14.8 19.55 12.8 17.15 12.65 14.4 12.6 13.9 12.7 13.2 Q13.0 10.7 13.95 8.5 L14.1 8.25" fill="#b69898" fill-rule="evenodd" stroke="none"/>
      <path d="M20.1 4.1 L20.2 3.75 20.3 3.75 Q20.5 6.25 22.7 8.85 L26.45 13.05 24.0 12.7 22.0 11.45 19.75 10.45 19.7 9.8 19.5 6.3 19.85 4.9 20.1 4.1" fill="#f6e5e7" fill-rule="evenodd" stroke="none"/>
      <path d="M20.1 4.1 Q19.8 4.1 19.85 3.7 18.05 4.05 16.15 6.75 L16.1 6.75 14.8 7.75 14.1 8.25 14.55 7.3 Q15.1 6.15 15.95 5.1 17.7 2.75 19.1 2.25 L19.25 2.25 Q22.1 3.35 24.55 6.3 27.3 9.6 28.65 13.1 L28.65 13.65 28.15 16.05 27.55 17.95 27.35 18.55 27.25 18.6 26.8 19.65 25.05 22.1 22.7 24.8 21.3 24.65 23.85 21.45 24.0 21.25 24.6 20.45 24.65 20.4 25.0 19.95 27.15 16.3 Q27.3 15.2 26.55 14.3 L26.7 14.35 26.4 14.1 25.25 13.45 24.0 12.7 26.45 13.05 22.7 8.85 Q20.5 6.25 20.3 3.75 L20.2 3.75 20.1 4.1" fill="#e5cbd2" fill-rule="evenodd" stroke="none"/>
      <path d="M24.0 12.7 L25.25 13.45 26.4 14.1 26.7 14.35 26.55 14.3 24.2 14.25 20.35 14.1 20.35 15.45 20.4 15.55 20.35 17.15 20.65 17.95 20.85 19.4 Q21.0 21.05 21.65 22.05 L19.45 21.8 Q17.4 21.55 14.1 16.5 L12.85 14.25 13.95 13.45 16.0 11.85 16.4 11.5 17.05 10.95 Q18.1 10.15 18.8 10.2 L19.75 10.45 22.0 11.45 24.0 12.7" fill="#766060" fill-rule="evenodd" stroke="none"/>
      <path d="M21.3 24.65 L22.7 24.8 25.05 22.1 26.8 19.65 27.25 18.6 28.55 19.55 29.2 20.05 30.3 21.0 30.8 21.45 Q31.85 22.7 32.75 24.4 L34.2 27.3 36.85 33.45 Q38.3 36.6 39.7 37.65 L40.35 38.2 41.8 39.35 41.85 39.95 41.9 41.3 Q41.7 43.05 39.7 44.95 L38.45 46.1 Q35.4 48.6 35.15 50.85 35.0 51.8 36.35 52.85 37.55 53.7 38.3 53.8 41.45 54.2 44.0 51.2 46.2 48.6 46.5 45.75 L46.55 44.4 Q48.55 47.35 48.2 50.2 47.65 55.0 44.05 57.65 40.55 60.35 36.7 59.6 L36.65 59.6 38.7 59.25 39.75 58.45 Q37.45 58.4 34.7 56.9 L32.2 54.95 Q28.5 52.8 28.25 47.55 L24.95 41.65 25.95 42.25 28.3 44.15 25.2 40.05 23.5 38.4 Q23.85 37.9 21.2 35.5 L13.95 28.55 12.8 25.55 Q12.5 24.2 12.35 22.85 L12.2 21.2 13.5 20.2 Q14.15 19.8 14.8 19.55 L14.85 19.55 Q18.85 23.95 21.3 24.65" fill="#26211c" fill-rule="evenodd" stroke="none"/>
      <path d="M6.2 -3.1 L6.2 -3.0 Q5.65 1.0 5.7 3.7 5.0 11.15 7.5 16.35 9.05 19.65 12.35 22.85 12.5 24.2 12.8 25.55 L11.65 24.85 8.35 22.45 Q6.6 18.8 5.5 14.75 3.7 8.15 4.25 3.65 L5.0 0.85 6.2 -3.1" fill="#5f676a" fill-rule="evenodd" stroke="none"/>
      <path d="M40.35 38.2 L41.15 38.2 41.65 38.35 42.2 38.45 Q43.15 38.8 43.95 39.5 43.75 41.2 42.55 43.3 L41.35 45.7 Q41.3 46.15 41.55 46.8 41.85 47.55 42.35 47.65 43.9 47.8 45.0 46.15 45.9 44.7 46.15 42.9 L46.2 42.65 46.45 43.7 46.15 45.85 43.75 48.55 Q41.75 50.55 40.35 50.35 39.65 50.25 39.0 49.45 38.4 48.6 38.45 47.95 38.5 47.45 39.7 44.95 41.7 43.05 41.9 41.3 L41.85 39.95 41.8 39.35 40.35 38.2" fill="#de6340" fill-rule="evenodd" stroke="none"/>
      <path d="M36.65 59.6 Q32.8 58.75 27.4 52.35 L24.0 41.65 23.55 40.9 21.4 38.2 17.05 33.5 Q15.05 31.05 13.95 28.55 L21.2 35.5 Q23.85 37.9 23.5 38.4 L25.2 40.05 28.3 44.15 25.95 42.25 24.95 41.65 28.25 47.55 Q28.5 52.8 32.2 54.95 L34.7 56.9 Q37.45 58.4 39.75 58.45 L38.7 59.25 36.65 59.6" fill="#5f6f77" fill-rule="evenodd" stroke="none"/>
      <path d="M46.45 43.7 L46.55 44.4 46.5 45.75 Q46.2 48.6 44.0 51.2 41.45 54.2 38.3 53.8 37.55 53.7 36.35 52.85 35.0 51.8 35.15 50.85 35.4 48.6 38.45 46.1 L39.7 44.95 Q38.5 47.45 38.45 47.95 38.4 48.6 39.0 49.45 39.65 50.25 40.35 50.35 41.75 50.55 43.75 48.55 L46.15 45.85 46.45 43.7" fill="#913e26" fill-rule="evenodd" stroke="none"/>
      <path d="M43.95 39.5 L45.2 41.0 46.2 42.65 46.15 42.9 Q45.9 44.7 45.0 46.15 43.9 47.8 42.35 47.65 41.85 47.55 41.55 46.8 41.3 46.15 41.35 45.7 L42.55 43.3 Q43.75 41.2 43.95 39.5" fill="#fed27a" fill-rule="evenodd" stroke="none"/>
      <path d="M26.7 -6.55 L25.8 -7.55 22.55 -10.65 M22.2 -10.95 L21.55 -11.55 20.1 -11.85 12.6 -11.2 10.75 -10.8 Q8.95 -9.45 7.25 -6.55 L6.2 -3.1 5.0 0.85 4.25 3.65 Q3.7 8.15 5.5 14.75 6.6 18.8 8.35 22.45 L11.65 24.85 12.8 25.55 Q12.5 24.2 12.35 22.85 L12.2 21.2 13.5 20.2 Q14.15 19.8 14.8 19.55 L14.85 19.55 Q18.85 23.95 21.3 24.65 L22.7 24.8 25.05 22.1 26.8 19.65 27.25 18.6 27.35 18.55 M31.4 5.55 Q31.1 1.1 29.9 -2.8 L26.7 -6.55 M27.55 17.95 L28.15 16.05 28.65 13.65 28.65 13.1 Q27.3 9.6 24.55 6.3 22.1 3.35 19.25 2.25 L19.1 2.25 Q17.7 2.75 15.95 5.1 15.1 6.15 14.55 7.3 L14.1 8.25 13.95 8.5 Q13.0 10.7 12.7 13.2 L12.6 13.9 12.65 14.4 12.8 17.15 14.8 19.55 M28.55 19.55 L29.2 20.05 30.3 21.0 30.35 20.85 31.05 17.7 31.2 16.15 31.4 13.9 Q31.75 9.5 31.4 5.55 M27.25 18.6 L28.55 19.55 M13.95 28.55 L12.8 25.55 M30.8 21.45 Q31.85 22.7 32.75 24.4 L34.2 27.3 36.85 33.45 Q38.3 36.6 39.7 37.65 L40.35 38.2 41.15 38.2 41.65 38.35 42.2 38.45 Q43.15 38.8 43.95 39.5 L45.2 41.0 46.2 42.65 46.45 43.7 46.55 44.4 Q48.55 47.35 48.2 50.2 47.65 55.0 44.05 57.65 40.55 60.35 36.7 59.6 L36.65 59.6 Q32.8 58.75 27.4 52.35 L24.0 41.65 23.55 40.9 21.4 38.2 17.05 33.5 Q15.05 31.05 13.95 28.55 M40.35 38.2 L41.8 39.35 41.85 39.95 41.9 41.3 Q41.7 43.05 39.7 44.95 L38.45 46.1 Q35.4 48.6 35.15 50.85 35.0 51.8 36.35 52.85 37.55 53.7 38.3 53.8 41.45 54.2 44.0 51.2 46.2 48.6 46.5 45.75 L46.55 44.4 M30.35 20.85 L30.8 21.45 30.3 21.0" fill="none" stroke="#171b25" stroke-linecap="round" stroke-linejoin="round" stroke-width="1.0"/>
      <path d="M30.9 21.55 L31.8 19.9 Q32.75 18.65 34.0 18.25 L34.75 18.15 Q36.7 19.5 38.75 21.35 L38.65 21.3 37.75 21.0 36.3 21.2 Q35.4 21.6 35.25 22.9 35.2 23.7 35.65 24.25 L35.4 24.25 33.2 24.3 31.85 24.2 Q31.45 23.9 31.05 22.45 L30.9 21.55 M42.0 38.95 L42.55 39.65 43.45 40.9 43.35 41.7 40.9 44.55 40.1 45.3 Q39.9 44.1 39.0 43.4 37.25 42.5 36.25 41.7 L36.65 41.55 36.25 41.7 34.15 42.25 35.0 43.1 37.25 44.3 37.35 44.3 Q38.7 44.9 38.8 46.2 37.55 47.1 36.3 47.55 L32.95 47.5 31.95 47.35 31.15 47.15 31.15 47.1 30.7 46.15 Q32.95 44.5 33.55 42.3 L30.8 41.25 28.2 39.65 32.5 34.05 32.8 33.35 Q33.4 34.9 36.0 35.2 38.7 35.5 39.45 35.95 L39.6 36.1 39.4 37.9 Q38.55 38.4 37.7 39.5 36.85 40.65 36.65 41.55 L38.05 41.05 Q40.0 40.2 41.95 39.0 L42.0 38.95 M30.8 32.5 L28.65 32.5 Q27.1 32.3 25.6 31.6 L26.45 29.95 26.9 29.0 29.7 23.7 Q29.95 25.05 30.4 25.25 L31.8 25.35 34.05 25.35 34.95 25.55 Q35.4 25.7 35.6 25.9 L35.7 26.0 Q36.0 26.35 35.9 27.05 35.6 29.2 33.15 30.9 L31.95 31.75 30.8 32.5 M37.35 25.3 L38.15 25.5 39.1 25.4 39.3 25.7 39.25 26.75 38.85 28.55 38.4 29.0 38.55 29.05 38.05 29.4 38.0 29.45 33.35 31.9 38.0 29.45 38.05 29.4 38.55 29.05 40.6 31.2 41.7 32.45 41.7 32.55 Q41.5 32.65 41.4 33.5 41.3 34.3 41.95 34.9 42.5 35.3 43.05 35.35 L44.0 35.3 44.4 35.25 44.45 35.75 44.25 36.45 42.7 37.95 Q41.4 38.8 39.4 39.25 L40.85 38.05 41.15 35.5 41.05 35.45 Q39.6 34.85 35.85 34.45 33.35 33.9 33.35 32.4 L33.35 31.9 33.05 32.05 33.4 31.7 35.0 30.45 Q37.25 28.55 37.4 26.15 L37.35 25.5 37.35 25.3 M33.55 42.3 L33.6 42.3 34.15 42.25 33.6 42.3 33.55 42.3" fill="#ccafb6" fill-rule="evenodd" stroke="none"/>
      <path d="M38.75 21.35 L38.8 21.4 39.1 21.65 39.75 22.25 40.45 22.95 42.0 24.7 42.8 25.55 39.6 28.35 Q41.35 29.2 43.6 30.75 46.2 32.5 47.65 34.1 L47.6 34.45 45.15 36.75 42.0 38.95 41.95 39.0 Q40.0 40.2 38.05 41.05 38.4 40.35 39.1 39.6 L39.4 39.25 Q41.4 38.8 42.7 37.95 L44.25 36.45 44.45 35.75 44.4 35.25 44.0 35.3 43.05 35.35 Q42.5 35.3 41.95 34.9 41.3 34.3 41.4 33.5 41.5 32.65 41.7 32.55 L41.7 32.45 40.6 31.2 38.55 29.05 38.4 29.0 38.85 28.55 39.25 26.75 39.3 25.7 39.1 25.4 38.15 25.5 37.35 25.3 37.05 24.85 36.85 24.6 35.65 24.25 Q35.2 23.7 35.25 22.9 35.4 21.6 36.3 21.2 L37.75 21.0 38.65 21.3 38.75 21.35 M39.6 28.35 L38.55 29.05 39.6 28.35" fill="#ffffff" fill-rule="evenodd" stroke="none"/>
      <path d="M40.1 45.3 L38.8 46.2 Q38.7 44.9 37.35 44.3 L37.25 44.3 35.0 43.1 34.15 42.25 36.25 41.7 Q37.25 42.5 39.0 43.4 39.9 44.1 40.1 45.3 M32.8 33.35 L33.0 32.25 33.05 32.05 32.75 32.15 31.6 32.5 31.35 32.5 30.8 32.5 31.95 31.75 33.15 30.9 Q35.6 29.2 35.9 27.05 36.0 26.35 35.7 26.0 L35.6 25.9 Q35.4 25.7 34.95 25.55 L34.05 25.35 31.8 25.35 30.4 25.25 Q29.95 25.05 29.7 23.7 L30.85 21.65 30.9 21.55 31.05 22.45 Q31.45 23.9 31.85 24.2 L33.2 24.3 35.4 24.25 35.65 24.25 36.85 24.6 37.05 24.85 37.35 25.3 37.35 25.5 37.4 26.15 Q37.25 28.55 35.0 30.45 L33.4 31.7 33.05 32.05 33.35 31.9 33.35 32.4 Q33.35 33.9 35.85 34.45 39.6 34.85 41.05 35.45 L41.15 35.5 40.85 38.05 39.4 39.25 39.1 39.6 Q38.4 40.35 38.05 41.05 L36.65 41.55 Q36.85 40.65 37.7 39.5 38.55 38.4 39.4 37.9 L39.6 36.1 39.45 35.95 Q38.7 35.5 36.0 35.2 33.4 34.9 32.8 33.35" fill="#5f5c57" fill-rule="evenodd" stroke="none"/>
      <path d="M30.9 21.55 L31.8 19.9 Q32.75 18.65 34.0 18.25 L34.75 18.15 Q36.7 19.5 38.75 21.35 L38.8 21.4 M39.1 21.65 L39.75 22.25 40.45 22.95 42.0 24.7 42.8 25.55 39.6 28.35 Q41.35 29.2 43.6 30.75 46.2 32.5 47.65 34.1 L47.6 34.45 45.15 36.75 42.0 38.95 42.55 39.65 43.45 40.9 43.35 41.7 40.9 44.55 40.1 45.3 38.8 46.2 Q37.55 47.1 36.3 47.55 L32.95 47.5 31.95 47.35 31.15 47.15 31.15 47.1 30.7 46.15 Q32.95 44.5 33.55 42.3 L30.8 41.25 28.2 39.65 32.5 34.05 32.8 33.35 33.0 32.25 33.05 32.05 32.75 32.15 31.6 32.5 31.35 32.5 30.8 32.5 28.65 32.5 Q27.1 32.3 25.6 31.6 L26.45 29.95 26.9 29.0 29.7 23.7 30.85 21.65 30.9 21.55 M33.05 32.05 L33.35 31.9 38.0 29.45 38.05 29.4 38.55 29.05 39.6 28.35 M36.65 41.55 L38.05 41.05 Q40.0 40.2 41.95 39.0 L42.0 38.95 M36.65 41.55 L36.25 41.7 34.15 42.25 33.6 42.3 33.55 42.3" fill="none" stroke="#433736" stroke-linecap="round" stroke-linejoin="round" stroke-width="1.0"/>
    </g>
  </defs>
</svg>
