<?xml version="1.0" encoding="UTF-8" standalone="no"?>
<svg xmlns:ffdec="https://www.free-decompiler.com/flash" xmlns:xlink="http://www.w3.org/1999/xlink" ffdec:objectType="frame" height="30.1px" width="30.0px" xmlns="http://www.w3.org/2000/svg">
  <g transform="matrix(1.0, 0.0, 0.0, 1.0, 0.0, 0.0)">
    <use ffdec:characterId="1" height="30.0" transform="matrix(1.0, 0.0, 0.0, 1.0, 0.0, 0.0)" width="30.0" xlink:href="#shape0"/>
    <use ffdec:characterId="5" height="30.0" transform="matrix(1.0, 0.0, 0.0, 1.0, 0.0, 0.1)" width="30.0" xlink:href="#sprite0"/>
  </g>
  <defs>
    <g id="shape0" transform="matrix(1.0, 0.0, 0.0, 1.0, 0.0, 0.0)">
      <path d="M0.0 0.0 L30.0 0.0 30.0 30.0 0.0 30.0 0.0 0.0" fill="#33cc66" fill-opacity="0.0" fill-rule="evenodd" stroke="none"/>
    </g>
    <g id="sprite0" transform="matrix(1.0, 0.0, 0.0, 1.0, 0.0, 0.0)">
      <use ffdec:characterId="2" height="30.0" transform="matrix(1.0, 0.0, 0.0, 1.0, 0.0, 0.0)" width="30.0" xlink:href="#shape1"/>
      <filter id="filter0">
        <feColorMatrix in="SourceGraphic" result="filterResult0" type="matrix" values="0 0 0 0 1.0,0 0 0 0 1.0,0 0 0 0 1.0,0 0 0 1 0"/>
        <feConvolveMatrix divisor="25.0" in="filterResult0" kernelMatrix="1 1 1 1 1 1 1 1 1 1 1 1 1 1 1 1 1 1 1 1 1 1 1 1 1" order="5 5" result="filterResult1"/>
        <feComposite in="SourceGraphic" in2="filterResult1" operator="over" result="filterResult2"/>
      </filter>
      <use ffdec:characterId="4" filter="url(#filter0)" height="71.95" transform="matrix(0.3961, 0.0, 0.0, 0.3961, 1.1144, 0.6979)" width="69.0" xlink:href="#sprite1"/>
    </g>
    <g id="shape1" transform="matrix(1.0, 0.0, 0.0, 1.0, 0.0, 0.0)">
      <path d="M27.95 0.15 Q30.0 0.7 30.0 3.3 L30.0 26.7 29.8 28.15 Q29.15 30.0 26.7 30.0 L3.3 30.0 2.4 29.95 Q0.7 29.65 0.2 28.15 L0.0 26.7 0.0 3.3 Q0.0 0.7 2.05 0.15 L2.4 0.1 3.3 0.0 26.7 0.0 27.95 0.15" fill="#cccccc" fill-rule="evenodd" stroke="none"/>
    </g>
    <g id="sprite1" transform="matrix(1.0, 0.0, 0.0, 1.0, 8.8, 12.25)">
      <use ffdec:characterId="3" height="71.95" transform="matrix(1.0, 0.0, 0.0, 1.0, -8.8, -12.25)" width="69.0" xlink:href="#shape2"/>
    </g>
    <g id="shape2" transform="matrix(1.0, 0.0, 0.0, 1.0, 8.8, 12.25)">
      <path d="M19.3 0.95 L19.4 0.85 20.55 -0.3 21.2 -0.4 21.3 -0.45 21.3 -0.6 Q21.3 -1.0 22.45 -1.5 L22.75 -1.65 23.4 -2.1 23.85 -2.25 24.5 -2.75 25.75 -3.6 26.95 -4.75 27.75 -4.85 28.25 -5.45 28.65 -5.6 29.5 -6.1 29.9 -6.35 30.9 -7.15 31.0 -7.15 31.2 -7.3 31.4 -7.55 32.0 -7.75 32.15 -7.8 32.8 -8.4 32.95 -8.55 Q34.2 -9.55 34.55 -9.55 L35.45 -10.2 Q35.75 -10.45 36.0 -10.5 L36.55 -11.25 Q37.05 -11.7 37.15 -11.25 L37.55 -11.45 38.05 -11.65 38.2 -11.65 38.9 -11.35 39.85 -11.1 40.15 -11.05 41.0 -10.7 41.95 -10.45 42.45 -10.0 42.45 -9.95 42.6 -9.8 42.25 -9.45 Q41.8 -8.15 41.8 -6.85 41.8 -4.25 43.15 0.25 L43.6 2.0 44.2 3.95 44.05 4.2 Q44.45 6.25 44.45 7.85 44.45 11.15 42.8 12.9 39.95 15.85 32.0 16.6 L29.05 16.65 25.35 17.3 20.1 18.1 15.1 18.15 14.95 18.25 10.15 18.25 8.4 18.1 8.4 17.95 8.0 17.9 Q7.45 17.25 7.45 16.25 L7.6 15.2 7.65 14.55 8.05 13.9 8.85 12.5 9.75 11.25 10.3 10.25 10.55 9.95 11.5 8.85 11.8 8.5 12.75 7.6 13.2 7.05 13.25 7.0 13.45 7.05 15.15 5.05 15.75 4.55 17.15 3.25 17.6 2.7 18.0 2.1 18.7 1.65 19.3 1.05 19.3 0.95 M41.9 28.55 L41.9 28.7 41.95 30.0 41.95 30.15 42.0 30.35 42.15 31.4 41.95 31.8 41.8 31.8 41.8 32.4 41.8 34.35 41.8 36.15 41.8 37.3 41.8 37.6 41.8 37.65 41.9 38.55 41.7 40.35 41.75 40.6 41.3 41.15 40.45 42.05 39.4 43.1 38.25 44.6 38.15 44.75 37.55 45.4 37.4 45.45 36.9 45.8 36.9 45.95 36.7 46.25 36.5 46.45 36.4 46.55 36.35 46.6 35.75 47.0 35.25 47.6 35.05 47.7 34.85 48.05 33.85 49.1 33.0 49.95 32.85 50.0 32.8 50.1 32.55 50.3 32.35 50.2 32.05 50.0 31.2 49.8 30.55 49.55 30.3 49.5 30.15 49.4 29.7 49.5 29.55 49.5 29.45 49.5 29.25 49.5 29.1 49.3 29.1 49.2 29.2 49.1 29.3 48.9 29.45 48.85 Q29.7 48.55 30.1 48.35 L30.1 48.3 30.95 47.5 31.2 47.3 32.05 46.6 32.65 46.0 32.85 45.85 33.25 45.55 33.5 45.3 34.0 44.8 33.8 45.1 33.9 45.0 34.45 44.5 34.55 44.35 35.15 43.9 35.3 43.75 35.5 43.5 Q35.65 43.35 36.15 43.05 L37.05 42.0 37.25 41.85 37.25 41.8 37.6 41.5 37.65 41.45 37.95 41.15 38.15 40.95 38.2 40.95 38.2 40.85 38.25 40.8 38.25 40.75 38.15 40.75 38.15 40.8 38.05 40.75 38.0 40.8 37.95 40.8 37.4 40.6 36.9 40.6 36.75 40.55 36.6 40.55 36.0 40.45 35.75 40.4 35.7 40.4 35.45 40.4 35.35 40.4 34.3 40.3 34.0 40.2 33.7 40.2 33.65 40.2 33.2 40.0 32.85 40.0 31.0 39.75 30.8 39.75 30.5 39.7 30.8 39.75 30.7 39.75 30.5 39.7 30.3 39.7 30.1 39.6 29.9 39.6 29.7 39.55 29.0 39.4 28.9 39.4 28.7 39.35 28.6 39.35 28.5 39.3 28.4 39.3 28.25 39.3 28.2 39.2 27.95 39.15 27.0 38.95 26.7 38.85 24.05 38.25 20.3 37.35 19.2 37.05 16.0 36.15 13.9 35.4 11.3 34.4 13.9 35.4 16.0 36.15 19.2 37.05 Q12.85 35.45 11.3 34.4 L10.8 33.95 10.45 33.9 10.3 33.9 9.95 33.8 9.1 33.5 9.05 33.45 7.85 32.9 7.35 32.75 7.15 32.7 7.0 32.65 5.15 31.8 3.7 31.2 3.65 31.2 3.5 31.15 3.45 31.15 3.1 30.95 2.75 30.8 1.4 30.15 2.75 30.8 1.5 30.25 1.4 30.15 1.2 30.0 1.1 30.0 1.0 29.95 0.9 29.9 0.8 29.8 0.7 29.75 0.6 29.95 0.55 30.0 Q0.35 29.9 0.3 30.35 L0.3 30.4 0.05 30.6 -0.05 30.55 -0.7 31.0 -1.15 31.35 -2.85 32.7 -3.0 32.75 -3.65 33.15 -3.85 33.35 -4.7 33.95 -5.3 34.5 -5.35 34.5 -5.65 34.7 -6.0 34.9 -6.1 34.9 -6.5 35.1 -6.55 35.3 -7.25 35.2 -7.95 35.15 -7.25 35.2 -6.55 35.3 -6.7 35.35 -6.75 35.35 -7.15 35.3 -6.75 35.35 -6.8 35.35 -7.15 35.3 -7.25 35.2 -7.45 35.3 -7.75 35.2 -7.95 35.15 -7.75 35.2 -7.45 35.3 -7.55 35.3 -7.75 35.3 -7.85 35.2 -7.95 35.2 -7.95 35.15 -8.0 35.1 -8.15 34.8 -7.2 33.9 -6.8 33.65 -5.9 32.5 Q-4.45 31.0 -3.65 30.75 L-2.45 29.55 -1.7 28.9 -1.75 28.7 -1.75 28.15 -1.7 27.5 -1.7 26.9 -1.7 26.5 -1.7 26.15 -1.75 25.75 -1.75 23.65 -1.75 22.75 -1.75 22.6 -1.75 22.2 -1.8 20.65 -1.75 19.1 -1.75 18.9 -1.75 17.85 -1.75 16.65 -1.7 16.5 -1.75 15.65 -1.6 15.4 -1.55 15.15 -1.35 14.9 -1.3 14.9 -1.15 14.9 -1.0 15.0 -1.0 15.1 -0.95 15.25 -0.75 15.45 -0.5 15.4 -0.35 15.55 0.15 15.85 1.4 16.7 Q1.55 16.7 1.75 16.85 L2.8 17.45 3.65 17.85 3.7 17.85 3.85 17.9 3.9 17.95 5.3 18.7 3.9 17.95 4.0 17.95 4.65 18.3 5.3 18.7 7.15 19.7 8.25 20.1 9.5 20.65 Q9.85 20.75 10.35 21.0 L11.15 21.4 11.2 21.45 12.25 21.65 12.55 21.7 12.6 21.8 13.0 21.9 13.3 21.9 14.0 22.2 14.55 22.3 15.45 22.6 16.2 22.9 18.15 23.15 18.7 23.3 18.9 23.45 19.1 23.45 19.45 23.45 19.55 23.5 19.65 23.5 20.05 23.55 20.15 23.55 21.15 23.85 21.2 23.85 21.3 23.9 21.55 24.0 22.65 24.2 23.05 24.35 23.85 24.4 24.25 24.55 24.45 24.55 25.15 24.7 25.65 24.6 25.75 24.6 26.1 24.7 25.75 24.6 25.95 24.6 26.1 24.7 26.2 24.75 26.7 24.9 26.75 24.9 27.0 24.95 27.65 25.0 27.85 25.1 28.6 25.1 28.8 25.15 29.25 25.15 30.25 25.35 30.35 25.4 31.6 25.45 32.05 25.45 33.0 25.55 33.05 25.6 33.15 25.6 34.2 25.8 34.75 25.8 35.45 25.75 36.9 25.75 36.95 25.8 37.25 25.75 37.55 25.8 38.0 25.8 38.7 25.85 39.25 25.95 Q39.25 25.85 39.4 25.85 L39.5 25.95 Q39.6 25.85 39.65 25.85 L39.7 25.85 40.15 25.85 40.5 25.85 40.7 25.85 41.5 25.85 41.6 25.8 41.8 25.95 41.9 26.15 41.8 26.2 41.8 26.25 41.8 26.45 41.8 26.9 41.75 27.7 41.75 28.15 41.75 28.25 41.9 28.55 M20.35 9.6 L20.25 9.1 Q19.95 8.55 19.5 8.55 17.8 8.55 16.95 10.2 16.5 11.05 16.35 11.9 L16.4 12.45 Q16.7 12.9 17.8 12.9 19.2 12.9 19.95 11.4 L19.95 11.35 Q20.35 10.75 20.35 10.1 L20.35 9.8 20.35 9.6 M27.15 4.15 L27.75 2.5 Q27.75 2.0 27.05 1.7 L24.95 1.8 Q24.3 2.0 23.7 2.55 L22.8 3.45 21.4 5.15 Q20.95 5.95 20.95 6.7 L21.1 7.5 Q21.35 8.25 22.05 8.25 23.3 8.25 24.75 7.1 L26.35 5.45 27.15 4.15 M11.0 26.0 Q10.55 26.0 10.25 26.5 9.9 27.1 9.9 27.85 9.9 28.65 10.25 29.15 10.55 29.7 11.0 29.7 11.5 29.7 11.8 29.15 12.15 28.65 12.15 27.85 12.15 27.1 11.8 26.5 11.5 26.0 11.0 26.0 M26.95 29.8 Q26.3 29.8 25.8 30.4 25.45 31.0 25.45 31.8 25.45 32.65 25.8 33.25 26.3 33.85 26.95 33.85 27.55 33.85 27.95 33.25 28.4 32.65 28.4 31.8 28.4 31.0 27.95 30.4 27.55 29.8 26.95 29.8 M20.9 37.45 L22.05 37.7 20.95 37.4 20.9 37.45 M35.8 31.5 L23.5 28.9 35.8 31.5 M3.3 23.25 L12.95 26.6 3.3 23.25 M-7.85 35.2 L-7.75 35.2 -7.85 35.2" fill="#645d64" fill-rule="evenodd" stroke="none"/>
      <path d="M42.45 -10.0 Q42.65 -10.3 42.75 -9.8 L42.75 -10.0 43.65 -9.6 44.1 -9.4 45.5 -8.85 47.4 -8.1 48.5 -7.35 49.45 -6.85 49.65 -6.7 Q50.35 -6.95 51.75 -5.7 L52.55 -5.0 53.45 -4.45 54.0 -3.85 54.45 -3.5 54.9 -3.0 Q55.15 -2.8 55.3 -2.7 L55.3 -2.55 55.45 -2.55 55.9 -2.45 Q55.85 -1.3 56.1 -0.45 L56.1 -0.5 56.2 -1.85 56.3 -1.5 56.6 -1.0 56.8 -0.2 56.75 0.15 56.75 0.35 56.75 0.45 56.75 0.6 56.8 0.95 56.9 1.05 57.0 1.8 56.9 2.85 56.9 2.9 56.8 3.45 56.4 4.8 56.4 4.9 56.35 5.0 56.15 5.4 56.1 5.8 56.0 6.6 55.75 6.65 55.75 6.8 55.35 6.25 55.35 6.2 55.35 5.75 55.35 5.15 55.35 3.75 55.15 3.45 55.3 2.95 Q55.3 2.3 54.85 2.7 L55.3 2.2 55.55 1.4 55.7 0.65 56.1 -0.4 56.1 -0.45 56.1 -0.4 55.7 0.65 55.55 1.2 55.5 1.25 55.5 1.35 55.45 1.4 55.35 1.45 55.1 1.9 55.1 2.0 54.4 3.05 54.05 3.3 53.9 3.45 52.75 4.75 Q52.55 4.7 52.1 5.05 L51.35 5.85 51.35 5.95 Q51.2 5.95 51.2 6.05 L51.1 6.05 50.95 6.2 50.75 6.45 50.85 6.6 50.65 6.85 50.55 6.9 50.95 6.9 51.1 6.8 51.55 6.8 52.0 6.85 52.95 7.05 53.25 7.05 53.8 7.1 54.6 7.45 54.65 7.45 55.45 7.6 56.2 7.95 56.3 7.9 56.35 7.9 56.5 7.95 56.55 7.95 56.6 7.95 56.95 8.05 57.25 8.35 57.4 8.55 57.6 8.7 57.65 8.85 57.8 9.1 57.95 9.35 58.15 9.8 58.35 10.4 58.4 10.6 58.5 10.95 58.5 11.45 58.5 11.6 58.5 11.65 58.5 12.3 58.65 12.85 58.6 13.25 58.5 13.3 58.45 13.3 58.4 13.15 58.4 13.3 58.15 13.85 Q57.55 15.4 57.0 15.45 L56.1 16.6 55.95 16.65 55.25 17.3 54.9 17.4 Q54.45 17.65 54.45 17.85 53.85 18.1 52.85 19.1 L52.65 19.2 Q52.1 19.55 52.1 19.9 L51.75 20.15 51.6 20.1 50.85 20.65 50.75 20.6 50.65 20.65 Q50.5 20.45 50.15 20.8 L50.05 20.95 49.3 21.25 49.25 21.4 Q48.85 21.45 48.0 22.0 L47.35 22.4 47.35 22.45 Q47.15 22.45 46.95 22.6 L46.8 22.65 Q46.6 22.3 45.5 23.1 L44.65 23.7 44.6 23.7 Q44.45 23.7 44.3 23.85 L44.05 23.95 43.65 24.2 43.5 24.3 42.85 24.75 42.45 25.0 41.9 25.75 41.75 25.65 41.75 25.55 41.6 25.6 41.2 25.65 41.1 25.6 40.85 25.6 40.2 25.75 40.05 25.75 39.3 25.6 39.25 25.75 38.85 25.75 38.45 25.75 38.15 25.65 38.0 25.65 37.6 25.55 37.15 25.45 36.9 25.4 36.3 25.4 36.2 25.4 36.0 25.4 35.05 25.15 34.4 25.0 34.2 25.0 33.2 24.95 32.85 24.95 31.3 24.7 30.65 24.7 30.05 24.6 30.05 24.5 29.5 24.4 28.15 24.15 27.4 24.15 27.4 24.1 26.15 23.95 25.15 23.7 21.55 22.9 21.4 22.85 20.75 22.7 20.3 22.7 19.7 22.6 Q19.55 22.3 18.15 22.05 L17.05 22.0 16.8 21.9 16.3 21.8 15.65 21.6 13.85 21.05 12.55 20.6 11.75 20.35 10.5 19.95 9.35 19.55 9.05 19.5 9.0 19.4 9.05 19.3 Q9.05 18.95 8.25 18.15 L8.0 17.9 8.4 17.95 8.4 18.1 10.15 18.25 14.95 18.25 15.1 18.15 20.1 18.1 25.35 17.3 29.05 16.65 32.0 16.6 Q39.95 15.85 42.8 12.9 44.45 11.15 44.45 7.85 44.45 6.25 44.05 4.2 L44.2 3.95 43.6 2.0 43.15 0.25 Q41.8 -4.25 41.8 -6.85 41.8 -8.15 42.25 -9.45 L42.6 -9.8 42.45 -9.95 42.45 -10.0 M58.15 36.15 L58.15 36.35 58.05 36.35 57.95 36.4 57.8 36.2 57.85 35.85 57.75 35.4 57.75 35.35 57.8 34.1 57.55 31.0 57.55 25.35 57.6 24.75 57.65 22.3 57.65 22.05 57.8 21.85 57.65 21.6 57.6 20.8 57.4 20.25 57.4 17.5 57.25 16.9 57.45 16.35 57.45 16.15 57.6 16.0 Q57.6 15.45 57.35 15.65 L57.4 15.45 57.85 14.95 58.05 14.6 58.25 14.3 58.4 14.0 58.5 13.85 58.5 13.75 58.6 13.55 58.6 13.3 58.7 13.3 58.8 13.25 58.9 13.5 58.85 13.9 58.8 13.95 58.85 14.15 59.0 15.1 59.0 15.15 59.2 15.75 59.1 16.0 59.2 16.15 59.3 17.05 59.3 17.4 59.45 17.9 59.6 18.65 59.65 19.5 59.65 20.55 59.7 21.6 59.7 22.5 59.5 23.3 59.45 23.85 59.5 24.8 59.45 25.85 59.2 26.85 59.2 27.3 58.85 29.2 58.7 30.4 58.8 30.75 58.6 32.0 58.35 33.3 58.2 33.25 58.25 34.1 58.15 36.15 M54.85 44.3 L54.5 44.7 54.0 45.15 52.85 46.05 52.1 47.05 52.1 47.2 51.1 47.9 48.65 49.2 47.85 50.2 Q47.0 51.15 46.5 51.15 L46.35 51.15 45.9 51.45 Q45.3 51.9 45.25 52.1 L44.45 53.25 42.85 54.2 42.1 54.75 41.5 55.2 41.3 55.15 40.35 55.8 38.6 56.8 38.45 56.8 Q37.65 57.4 37.2 57.4 L37.05 57.4 36.0 57.9 35.45 58.1 Q34.9 58.65 34.55 58.65 L34.4 58.5 33.85 58.7 33.7 58.7 33.6 58.85 33.6 58.7 33.6 58.1 33.6 57.95 33.65 57.45 33.6 56.25 33.65 56.2 36.0 55.6 Q39.1 54.75 40.3 53.85 L40.35 53.75 Q39.5 53.55 39.25 52.85 L39.2 51.65 Q39.2 50.85 39.6 50.2 40.1 48.95 41.55 48.95 42.6 48.95 43.05 49.55 L43.9 50.2 Q45.65 50.2 46.55 48.7 47.2 47.65 47.2 46.85 L47.2 46.8 Q47.25 46.7 47.4 46.7 L47.65 47.25 Q47.85 47.85 48.15 48.05 L49.05 48.05 Q50.3 47.5 50.75 46.05 51.1 44.6 51.4 44.1 52.75 43.55 54.1 42.6 L55.7 41.55 Q55.75 41.65 55.95 41.65 L56.2 41.55 55.85 42.1 55.85 42.3 55.45 43.05 54.85 44.2 54.85 44.3 M58.9 27.75 L58.9 27.9 59.0 27.7 58.9 27.75 M32.65 52.4 L32.6 52.9 32.65 53.85 32.65 54.6 Q32.8 55.75 32.55 56.0 L32.8 56.15 32.8 56.8 32.8 56.15 32.85 56.45 32.85 56.55 32.8 56.8 32.6 57.25 32.35 57.9 32.15 58.45 32.0 58.55 32.0 58.65 31.9 58.7 31.8 58.7 31.7 58.65 31.55 58.5 31.5 58.5 31.5 58.55 31.4 58.65 31.1 58.65 30.9 58.65 30.75 58.65 29.25 58.5 28.9 58.45 28.25 58.25 28.2 58.25 27.4 57.95 26.4 57.7 25.7 57.5 25.15 57.4 24.7 57.25 24.45 57.2 24.2 57.1 24.05 57.05 23.5 56.85 22.35 56.45 22.25 56.4 21.5 56.2 20.15 55.75 19.85 55.65 19.2 55.45 19.1 55.4 18.7 55.35 17.85 55.1 17.6 54.95 17.2 54.8 16.6 54.6 15.35 54.3 15.3 54.3 13.45 53.75 12.8 53.45 11.8 53.05 10.7 52.6 10.6 52.5 9.25 52.1 8.6 51.85 Q7.85 51.7 6.2 50.75 L4.75 49.8 4.1 49.55 3.5 49.15 3.2 48.95 3.05 48.95 2.35 48.7 1.75 48.35 0.3 47.6 -0.45 47.0 Q-1.3 46.85 -2.35 45.85 L-2.75 45.55 -3.5 44.95 Q-4.1 44.95 -4.85 44.4 L-5.75 43.7 -6.6 42.9 -6.75 42.9 Q-7.25 42.9 -7.35 42.45 L-7.45 42.25 -7.55 41.8 -7.45 41.4 -7.75 40.0 -7.8 39.35 -7.85 38.95 -8.05 37.0 -8.2 36.45 -8.25 35.75 -8.0 35.2 -7.95 35.2 -8.0 35.15 -7.95 35.15 -7.95 35.2 -8.0 35.2 -8.0 35.15 -7.95 35.2 -7.85 35.2 -7.75 35.3 -7.55 35.3 -7.45 35.3 -7.25 35.35 -7.25 35.4 -6.9 35.4 -6.55 35.4 -6.4 35.45 -6.35 35.55 -6.4 35.95 -6.4 36.0 -6.5 36.05 -6.5 36.2 -6.55 36.4 Q-6.4 36.45 -6.4 36.6 L-6.35 36.6 -6.35 37.5 -6.3 38.05 -6.35 38.65 -6.35 39.4 Q-6.55 39.4 -6.55 39.75 L-6.4 40.75 -6.4 41.0 -6.4 41.35 -6.35 41.55 -6.35 41.7 -5.8 42.05 -5.55 42.25 -5.3 42.5 -5.25 42.5 -4.7 43.05 -4.1 43.35 -3.8 43.55 -3.4 43.85 -3.15 44.05 -2.8 44.1 -2.6 44.2 Q-2.55 44.2 -2.45 44.3 L-1.95 44.6 -1.35 45.1 -0.35 45.55 0.25 45.95 0.8 46.25 1.6 46.8 Q2.25 46.85 3.05 47.5 L4.25 48.05 5.6 48.75 6.6 49.1 6.7 49.15 6.75 49.15 6.8 49.2 6.75 49.15 6.8 49.15 6.8 49.2 6.85 49.2 7.25 49.4 6.85 49.2 6.8 49.2 6.8 49.15 7.25 49.4 7.45 49.6 8.2 49.8 8.8 49.95 10.35 50.55 10.35 50.75 11.15 51.05 10.35 50.75 8.2 49.8 10.35 50.75 10.35 50.55 11.15 51.05 11.15 51.15 12.15 51.65 14.55 52.45 Q14.85 52.45 15.1 52.6 L16.5 52.95 16.55 52.95 16.75 53.05 16.8 53.05 17.55 53.15 18.3 53.35 Q19.25 53.55 19.5 53.85 L19.55 53.9 19.75 53.95 19.95 53.95 22.0 54.5 22.35 54.75 23.05 54.95 24.2 55.2 24.2 55.15 24.85 55.15 24.95 55.15 25.05 55.2 25.15 55.2 25.45 55.3 26.3 55.4 26.35 55.4 26.5 55.4 26.75 55.45 27.15 55.6 27.3 55.65 27.4 55.65 27.55 55.65 27.6 55.65 27.95 55.75 28.0 55.75 28.25 55.85 28.45 56.0 29.4 56.15 29.45 56.15 29.75 56.15 29.65 55.1 29.5 53.35 29.5 53.15 29.5 53.05 29.45 52.6 29.45 52.5 29.4 52.45 29.3 51.9 29.3 51.85 29.25 51.25 29.25 51.15 29.25 51.0 29.1 50.65 29.1 50.55 29.2 50.75 29.2 50.65 29.2 50.55 29.3 50.35 29.1 50.55 29.1 50.3 29.1 50.15 29.1 50.1 28.9 49.9 28.9 49.8 29.0 49.7 Q29.05 49.35 29.25 49.5 L29.45 49.5 29.55 49.5 29.7 49.6 30.35 49.75 31.15 50.15 31.2 50.15 31.4 50.2 32.2 50.35 32.4 50.35 Q32.65 50.35 32.75 50.95 L32.75 51.0 32.75 51.05 32.75 51.2 32.75 51.25 32.65 51.65 32.65 52.4 M1.1 30.0 L1.2 30.0 1.4 30.15 1.5 30.25 1.55 30.45 1.7 30.45 1.7 30.55 2.2 30.65 2.85 31.0 3.45 31.15 3.5 31.15 3.65 31.2 3.7 31.2 5.15 31.8 5.3 31.9 5.3 32.0 5.6 32.1 5.75 32.2 6.2 32.4 6.3 32.45 6.35 32.45 6.5 32.5 6.55 32.5 6.75 32.6 11.3 34.4 6.75 32.6 7.0 32.65 7.15 32.7 7.35 32.75 7.85 32.9 9.05 33.45 9.1 33.5 9.7 33.75 9.95 33.8 10.3 33.9 10.45 33.9 10.8 33.95 11.3 34.4 Q12.85 35.45 19.2 37.05 L20.3 37.35 24.05 38.25 26.7 38.85 27.0 38.95 27.95 39.15 28.0 39.2 28.05 39.2 28.25 39.3 28.05 39.2 28.2 39.2 28.25 39.3 28.4 39.3 28.5 39.3 28.6 39.35 28.7 39.35 28.9 39.4 29.0 39.4 29.3 39.7 30.15 39.7 31.9 40.1 32.6 40.15 33.0 40.2 33.25 40.2 33.4 40.2 34.85 40.4 35.5 40.6 35.55 40.6 36.2 40.65 36.9 40.75 37.35 40.8 37.45 40.8 Q37.75 40.85 37.75 41.05 L36.75 42.1 35.9 42.95 35.75 42.9 35.5 43.3 35.3 43.55 34.7 44.1 34.4 44.3 34.1 44.35 33.9 44.3 33.8 44.3 32.0 44.15 31.8 44.15 31.6 44.15 31.6 44.1 31.15 44.05 30.8 44.05 30.7 44.05 30.5 44.05 30.3 44.05 30.15 44.05 29.2 43.9 28.9 44.1 28.2 43.9 27.85 43.7 27.8 43.7 27.55 43.45 26.95 43.35 26.2 43.25 26.0 43.15 25.95 43.15 24.85 42.9 24.65 42.95 24.2 42.85 23.9 42.8 23.85 42.7 21.2 42.25 21.15 42.25 19.4 41.7 18.7 41.6 17.95 41.4 17.4 41.25 16.4 40.95 15.95 40.65 15.9 40.6 16.0 40.45 14.7 40.15 14.5 40.15 13.45 39.8 13.0 39.7 12.6 39.4 12.35 39.15 11.3 38.85 10.75 38.65 10.25 38.35 9.85 38.15 8.6 37.7 7.4 37.0 7.0 36.85 6.7 36.7 6.4 36.6 Q5.95 36.55 5.1 35.95 L5.05 35.85 4.95 35.85 4.3 35.35 3.8 35.15 3.3 34.95 3.05 34.7 2.85 34.6 2.75 34.5 Q1.8 34.15 1.8 33.95 L1.75 33.95 1.5 33.9 1.4 33.75 1.1 33.35 1.0 33.25 1.0 32.9 1.0 32.65 0.95 32.3 0.9 32.3 0.9 31.65 0.9 32.3 0.8 32.25 0.8 32.2 0.75 32.1 0.6 31.9 Q0.6 31.7 0.75 31.65 L0.8 31.65 0.9 31.65 0.95 31.65 1.1 31.65 1.1 31.2 1.0 31.05 1.15 30.85 1.0 30.8 1.0 30.75 0.95 30.65 0.9 30.65 0.9 30.6 0.9 30.55 0.9 30.1 0.9 30.55 0.8 30.35 0.8 30.25 0.9 30.1 0.95 30.0 1.1 30.0 M38.15 40.8 L38.15 40.75 38.25 40.8 38.15 40.8 M34.45 44.5 L33.9 45.0 34.25 44.6 34.45 44.5 M44.95 44.55 L45.35 44.75 45.75 44.95 45.7 44.95 46.1 45.55 46.1 46.15 45.9 47.4 Q45.5 48.45 44.5 48.45 43.5 48.45 43.15 47.4 L42.85 46.35 Q42.85 45.6 43.4 45.1 44.0 44.55 44.95 44.55 M3.65 31.2 L5.3 31.9 3.65 31.2 M0.8 32.2 L0.75 31.65 0.8 32.2 M20.3 37.35 L28.0 39.2 20.3 37.35 M28.4 39.3 L28.6 39.35 28.4 39.3 M36.0 42.95 L36.4 42.65 36.5 42.55 36.5 42.6 36.0 42.95 M31.5 58.15 L31.5 58.3 31.55 58.35 31.55 58.15 31.4 58.1 31.5 58.15 M-6.4 35.95 L-6.4 35.45 -6.4 35.95 M-6.4 36.6 L-6.35 38.65 -6.4 36.6 M-6.35 41.7 L-6.35 41.8 -5.55 42.3 -5.3 42.5 -5.55 42.3 -6.35 41.8 -6.35 41.7 M-5.55 42.3 L-5.55 42.25 -5.55 42.3" fill="#403e41" fill-rule="evenodd" stroke="none"/>
      <path d="M55.75 6.8 L55.85 7.0 55.95 7.0 56.15 7.05 Q56.95 7.25 56.95 7.6 L56.8 7.75 56.6 7.85 56.25 7.75 56.15 7.75 55.7 7.6 55.65 7.5 54.75 7.2 54.75 7.25 Q54.6 7.25 54.3 7.05 L53.85 6.9 53.05 6.8 52.65 6.8 51.75 6.65 51.6 6.65 51.5 6.65 51.4 6.65 51.1 6.8 50.85 6.65 50.85 6.6 50.75 6.45 50.95 6.2 51.1 6.05 51.2 6.05 Q51.2 5.95 51.35 5.95 L51.35 5.85 52.1 5.05 Q52.55 4.7 52.75 4.75 L52.8 4.75 52.85 4.9 53.15 4.5 53.35 4.4 54.0 3.8 54.6 2.95 54.85 2.7 Q55.3 2.3 55.3 2.95 L55.15 3.45 55.35 3.75 55.35 5.15 55.35 5.75 55.35 6.2 55.35 6.25 55.75 6.8 M42.85 24.75 L43.5 24.3 43.65 24.2 44.05 23.95 44.3 23.85 Q44.45 23.7 44.6 23.7 L44.65 23.7 45.5 23.1 Q46.6 22.3 46.8 22.65 L46.95 22.6 Q47.15 22.45 47.35 22.45 L47.35 22.4 48.0 22.0 Q48.85 21.45 49.25 21.4 L49.3 21.25 50.05 20.95 50.15 20.8 Q50.5 20.45 50.65 20.65 L50.7 20.85 50.7 20.95 50.75 20.85 Q51.4 20.35 51.8 20.25 L52.1 19.95 52.1 19.9 Q52.1 19.55 52.65 19.2 L52.85 19.1 Q53.85 18.1 54.45 17.85 54.45 17.65 54.9 17.4 L55.25 17.3 55.3 17.45 55.35 17.6 56.15 16.8 56.8 16.25 57.2 15.75 Q57.25 15.65 57.35 15.65 57.6 15.45 57.6 16.0 L57.45 16.15 57.45 16.35 57.25 16.9 57.4 17.5 57.4 20.25 57.6 20.8 57.65 21.6 57.8 21.85 57.65 22.05 57.65 22.3 57.6 24.75 57.55 25.35 57.55 31.0 57.8 34.1 57.75 35.35 57.75 35.4 57.85 35.85 57.8 36.2 57.8 36.25 57.8 36.4 Q57.35 38.75 56.9 39.75 L56.9 39.8 56.9 39.95 Q56.7 41.2 56.2 41.55 L55.95 41.65 Q55.75 41.65 55.7 41.55 L54.1 42.6 Q52.75 43.55 51.4 44.1 51.1 44.6 50.75 46.05 50.3 47.5 49.05 48.05 L48.15 48.05 Q47.85 47.85 47.65 47.25 L47.4 46.7 Q47.25 46.7 47.2 46.8 L47.2 46.85 Q47.2 47.65 46.55 48.7 45.65 50.2 43.9 50.2 L43.05 49.55 Q42.6 48.95 41.55 48.95 40.1 48.95 39.6 50.2 39.2 50.85 39.2 51.65 L39.25 52.85 Q39.5 53.55 40.35 53.75 L40.3 53.85 Q39.1 54.75 36.0 55.6 L33.65 56.2 33.6 56.25 33.65 57.45 33.6 57.95 33.6 58.1 33.6 58.7 33.6 58.85 33.25 59.2 33.0 59.1 32.85 58.9 32.85 58.55 32.85 58.45 32.85 58.15 32.85 57.75 32.85 57.6 32.85 57.3 32.85 56.8 32.85 56.55 32.85 56.45 32.85 54.5 32.75 54.15 32.65 53.85 32.6 52.9 32.65 52.4 32.75 52.4 32.85 52.45 32.85 52.3 32.85 52.05 32.85 51.65 32.95 51.45 32.85 50.65 32.85 50.45 32.8 50.3 32.8 50.2 33.0 49.95 33.85 49.1 34.85 48.05 35.15 47.8 35.25 47.8 35.25 47.7 35.25 47.6 35.75 47.0 36.35 46.6 36.4 46.55 36.5 46.45 36.75 46.25 36.95 46.05 37.15 45.85 37.55 45.4 38.15 44.75 38.35 44.75 38.6 44.4 38.65 44.35 39.0 43.95 39.7 43.3 39.9 43.1 40.05 43.05 40.55 42.4 41.2 41.7 41.7 41.2 42.1 40.8 42.0 40.0 41.95 39.55 41.95 38.7 41.95 37.6 41.95 37.05 41.95 36.85 41.95 36.8 42.0 36.65 42.0 36.55 42.0 34.8 42.1 33.35 42.0 32.95 41.95 31.8 42.15 31.4 42.0 30.35 41.95 30.15 41.95 30.0 41.9 28.7 41.9 28.55 41.95 28.55 42.1 28.65 42.15 28.7 42.0 27.7 42.1 27.3 42.0 26.8 42.0 26.5 42.0 26.25 42.0 26.0 42.15 25.85 42.4 25.6 42.55 25.55 42.85 25.0 42.8 24.9 42.85 24.75 M0.3 30.4 L0.3 30.35 Q0.35 29.9 0.55 30.0 L0.6 30.1 0.7 30.2 0.8 30.35 0.9 30.55 0.9 30.6 0.9 30.65 0.9 30.8 0.9 30.95 0.9 31.05 0.8 31.65 0.75 31.65 Q0.6 31.7 0.6 31.9 L0.75 32.1 0.8 32.2 0.8 32.25 0.8 32.75 0.7 33.25 0.7 33.3 -0.05 34.1 -0.15 34.3 -0.35 34.4 -0.45 34.5 -0.7 34.7 -0.7 34.75 -0.75 34.75 -0.9 34.8 -0.95 34.75 -2.25 35.75 -3.0 36.25 -3.0 36.35 -3.7 37.1 -3.8 37.2 -4.1 37.45 -4.3 37.6 -4.3 37.65 -4.5 37.65 -4.55 37.7 -4.75 37.85 -5.05 38.1 -5.45 38.35 -5.55 38.3 -5.65 38.5 -5.65 38.55 -5.7 38.75 -5.65 39.05 -5.7 39.5 -5.7 40.35 -5.7 41.2 -5.65 41.4 -5.65 41.65 -5.7 41.85 -5.9 41.9 -6.2 41.7 -6.35 41.55 -6.35 41.35 -6.35 41.2 -6.35 41.05 -6.4 41.0 -6.4 40.75 -6.55 39.75 Q-6.55 39.4 -6.35 39.4 L-6.3 39.55 -6.3 39.35 -6.3 38.9 -6.3 38.85 -6.3 38.3 -6.3 38.05 -6.35 37.5 -6.35 36.6 -6.4 36.05 -6.4 36.0 -6.4 35.95 -6.35 35.55 -6.2 35.45 -6.3 35.4 -5.9 35.0 -5.45 34.7 -4.95 34.35 Q-4.7 34.15 -4.5 34.1 L-4.25 33.85 -4.0 33.55 -3.2 33.05 -3.0 32.95 -2.85 32.9 -2.8 32.75 -2.75 32.7 -2.35 32.4 -1.9 32.2 -1.55 32.0 -1.4 31.8 -1.1 31.7 -1.0 31.65 -0.55 31.2 -0.05 30.75 0.05 30.65 0.3 30.45 0.3 30.4 M44.95 44.55 Q44.0 44.55 43.4 45.1 42.85 45.6 42.85 46.35 L43.15 47.4 Q43.5 48.45 44.5 48.45 45.5 48.45 45.9 47.4 L46.1 46.15 46.1 45.55 45.7 44.95 45.75 44.95 45.35 44.75 44.95 44.55 M1.5 33.9 L1.75 33.95 1.8 33.95 Q1.8 34.15 2.75 34.5 L2.85 34.6 3.05 34.7 3.3 34.95 3.25 35.0 3.1 35.2 1.35 38.05 0.45 37.6 -0.5 37.1 1.4 34.1 1.5 33.9 M5.1 35.95 Q5.95 36.55 6.4 36.6 L6.7 36.7 7.0 36.85 6.95 36.9 6.8 37.1 5.05 39.95 4.05 39.4 3.2 39.05 4.95 36.2 5.1 35.95 M10.25 38.35 L10.75 38.65 11.55 39.05 12.15 39.3 12.05 39.35 10.05 42.6 9.25 42.2 8.2 41.6 10.15 38.55 10.25 38.45 10.25 38.35 M13.45 39.8 L14.5 40.15 15.05 40.35 15.45 40.55 15.45 40.6 13.4 43.85 12.45 43.35 11.55 42.9 13.45 39.9 13.45 39.8 M16.4 40.95 L17.4 41.25 17.95 41.4 18.25 41.6 18.4 41.65 16.35 44.9 15.7 44.55 14.5 43.95 16.35 41.0 16.4 40.95 M24.2 42.85 L24.65 42.95 24.85 42.9 25.95 43.15 26.0 43.15 26.2 43.25 26.15 43.45 25.05 46.7 24.1 46.55 23.05 46.25 24.05 43.25 24.1 42.95 24.2 42.85 M28.2 43.9 L28.9 44.1 29.2 43.9 30.15 44.05 30.3 44.05 30.3 44.1 30.25 44.3 30.15 44.55 30.1 44.6 29.05 47.7 29.0 47.65 28.25 47.5 27.0 47.2 28.2 43.9 M0.6 30.1 L0.75 31.65 0.6 30.1" fill="#000000" fill-rule="evenodd" stroke="none"/>
      <path d="M27.15 4.15 L26.35 5.45 24.75 7.1 Q23.3 8.25 22.05 8.25 21.35 8.25 21.1 7.5 L20.95 6.7 Q20.95 5.95 21.4 5.15 L22.8 3.45 23.7 2.55 Q24.3 2.0 24.95 1.8 L27.05 1.7 Q27.75 2.0 27.75 2.5 L27.15 4.15 M20.35 9.6 L20.35 9.8 20.35 10.1 Q20.35 10.75 19.95 11.35 L19.95 11.4 Q19.2 12.9 17.8 12.9 16.7 12.9 16.4 12.45 L16.35 11.9 Q16.5 11.05 16.95 10.2 17.8 8.55 19.5 8.55 19.95 8.55 20.25 9.1 L20.35 9.6 M10.75 27.6 L10.55 27.4 10.55 27.05 Q10.55 26.6 10.9 26.65 L11.15 27.2 10.9 27.6 10.75 27.6 M27.8 43.7 L27.85 43.7 28.2 43.9 27.0 47.2 28.25 47.5 29.0 47.65 29.05 47.7 30.1 44.6 30.15 44.55 30.25 44.3 31.1 44.35 31.4 44.4 32.8 44.35 33.0 44.35 33.3 44.4 33.0 44.35 33.15 44.35 33.3 44.4 33.4 44.4 33.55 44.4 33.8 44.7 33.25 45.1 32.85 45.35 32.05 46.25 30.45 47.8 32.05 46.25 31.75 46.65 30.45 47.8 30.1 47.85 29.0 48.95 29.0 49.05 29.0 49.1 28.9 49.2 28.85 49.2 28.85 49.3 28.85 49.2 28.9 49.2 28.85 49.3 28.8 49.3 28.7 49.35 28.7 50.0 28.8 50.15 28.8 50.3 28.85 51.0 29.05 51.05 29.2 51.85 29.05 51.05 29.25 51.15 29.25 51.25 29.3 51.85 29.2 51.85 28.85 51.8 28.85 51.85 29.2 51.9 29.25 52.45 29.25 52.5 29.3 53.05 29.25 52.5 29.25 52.45 29.2 51.9 29.3 51.9 29.4 52.45 29.45 52.5 29.45 52.6 29.5 53.05 29.3 53.05 29.1 53.05 29.05 53.05 28.2 52.85 29.05 53.05 28.65 52.95 28.2 52.85 27.35 52.7 27.25 52.7 27.2 52.7 26.9 52.65 26.8 52.65 26.2 52.45 26.15 52.45 26.0 52.4 25.35 52.2 24.45 51.9 22.8 51.4 24.1 46.55 22.8 51.4 22.2 51.05 21.5 50.85 17.45 49.7 16.7 49.35 16.4 49.35 14.05 48.65 13.7 48.5 13.45 48.45 12.35 47.9 11.8 47.65 10.75 47.2 10.45 47.05 8.6 46.4 8.4 46.45 Q8.0 46.45 6.85 45.85 L6.85 45.8 8.4 46.45 6.85 45.8 6.85 45.85 6.4 45.6 6.35 45.55 6.3 45.45 6.15 45.4 5.3 44.9 5.15 44.95 4.75 44.75 4.7 44.7 4.45 44.6 4.25 44.5 4.25 44.15 8.2 37.65 4.25 44.15 4.25 44.5 4.2 44.4 3.1 43.85 3.0 43.7 2.95 43.7 2.8 43.7 Q2.25 43.65 1.35 42.9 L1.3 42.9 1.3 42.65 4.05 39.4 1.3 42.65 1.3 42.9 0.45 42.25 -1.3 41.25 -2.55 40.4 0.45 37.6 -2.55 40.4 -2.75 40.2 -4.65 39.05 -4.85 39.1 -4.95 39.1 -5.05 39.1 -5.15 39.1 -5.3 38.85 -5.25 38.75 -5.05 38.5 -5.05 38.35 -4.95 38.1 -4.3 37.65 -4.95 38.1 -4.75 37.85 -4.55 37.7 -4.5 37.65 -4.3 37.65 -4.3 37.6 -4.1 37.45 -3.8 37.2 -3.4 37.05 -3.15 36.85 -2.65 36.65 -2.05 36.15 -0.75 34.8 -0.75 34.75 -0.7 34.75 -0.7 34.7 -0.45 34.5 -0.35 34.4 -0.15 34.3 0.1 34.3 0.25 34.3 0.15 34.2 0.25 33.95 0.25 33.9 0.55 33.9 Q0.7 33.65 1.3 34.05 L1.35 34.05 1.4 34.1 -0.5 37.1 0.45 37.6 1.35 38.05 3.1 35.2 4.95 36.2 3.2 39.05 4.05 39.4 5.05 39.95 6.8 37.1 8.2 37.65 9.05 38.05 10.15 38.55 8.2 41.6 9.25 42.2 10.05 42.6 12.05 39.35 13.0 39.7 13.15 39.75 13.45 39.9 11.55 42.9 12.45 43.35 10.45 47.05 12.45 43.35 13.4 43.85 15.45 40.6 16.35 41.0 14.5 43.95 15.7 44.55 16.35 44.9 18.4 41.65 18.25 41.6 18.3 41.6 20.25 42.2 21.0 42.45 17.45 49.7 21.0 42.45 22.4 42.85 24.05 43.25 23.05 46.25 24.1 46.55 25.05 46.7 26.15 43.45 26.35 43.45 27.25 43.55 27.75 43.7 27.8 43.7 M9.25 42.2 L6.85 45.8 Q6.7 45.65 6.4 45.6 6.7 45.65 6.85 45.8 L9.25 42.2 M2.8 43.7 L2.05 43.35 1.75 43.15 1.35 42.9 1.75 43.15 2.05 43.35 2.8 43.7 M13.45 48.45 L15.7 44.55 13.45 48.45 M26.35 31.45 L26.3 31.35 26.3 31.15 Q26.3 30.65 26.6 30.6 27.0 30.6 27.0 31.0 L27.0 31.05 Q26.95 31.5 26.6 31.5 L26.35 31.45 M28.25 47.5 L26.8 52.6 26.0 52.4 26.8 52.6 28.25 47.5 M26.35 43.45 L27.75 43.7 26.35 43.45 M28.3 52.4 L28.45 52.4 28.4 52.3 28.3 52.4 M28.85 52.45 L29.1 52.45 28.9 52.4 28.85 52.45 M27.2 52.7 L26.8 52.6 26.8 52.65 26.8 52.6 27.2 52.7 M-4.85 39.1 L-5.25 38.75 -4.85 39.1" fill="#ffffff" fill-rule="evenodd" stroke="none"/>
      <path d="M18.5 0.95 L19.05 0.8 19.3 0.95 19.3 1.05 18.7 1.65 18.0 2.1 17.6 2.7 17.15 3.25 15.75 4.55 15.15 5.05 13.45 7.05 13.25 7.0 13.2 7.05 12.75 7.6 11.8 8.5 11.5 8.85 10.55 9.95 10.3 10.25 9.75 11.25 8.85 12.5 8.05 13.9 7.65 14.55 7.6 15.2 7.45 16.25 Q7.45 17.25 8.0 17.9 L8.25 18.15 Q9.05 18.95 9.05 19.3 L9.0 19.4 9.05 19.5 9.35 19.55 10.5 19.95 11.75 20.35 12.55 20.6 13.85 21.05 15.65 21.6 16.3 21.8 16.8 21.9 17.05 22.0 18.15 22.05 Q19.55 22.3 19.7 22.6 L20.3 22.7 20.75 22.7 21.4 22.85 21.55 22.9 25.15 23.7 26.15 23.95 27.4 24.1 27.4 24.15 28.15 24.15 29.5 24.4 30.05 24.5 30.05 24.6 30.65 24.7 31.3 24.7 32.85 24.95 33.2 24.95 34.2 25.0 34.4 25.0 35.05 25.15 36.0 25.4 36.2 25.4 35.95 25.55 35.3 25.55 34.7 25.55 34.5 25.55 34.05 25.4 33.8 25.45 33.45 25.45 32.15 25.25 31.7 25.25 31.55 25.25 31.5 25.25 31.0 25.25 28.0 24.8 27.25 24.75 26.2 24.55 24.1 24.2 23.7 24.1 23.6 24.1 22.35 23.9 21.95 23.95 21.75 23.95 21.5 23.9 21.3 23.9 21.2 23.85 21.15 23.85 20.15 23.55 19.9 23.5 19.65 23.5 19.55 23.5 19.45 23.45 19.1 23.45 18.9 23.45 18.7 23.3 18.65 23.25 18.6 23.25 18.4 23.05 18.25 23.05 17.4 22.75 17.25 22.75 15.55 22.45 14.5 22.05 13.8 21.8 13.5 21.8 13.4 21.8 13.15 21.65 12.6 21.4 13.05 21.8 12.55 21.7 12.2 21.6 12.55 21.7 13.05 21.8 12.6 21.8 12.55 21.7 12.25 21.65 12.2 21.6 12.15 21.45 11.55 21.25 11.4 21.2 11.3 21.2 11.2 21.15 11.0 21.05 9.65 20.35 8.45 19.95 8.05 19.75 7.45 19.5 7.35 19.35 7.25 19.35 Q7.0 19.35 6.95 19.2 6.55 19.2 5.7 18.7 L5.3 18.45 5.25 18.35 Q4.75 18.35 4.2 17.9 L4.0 17.95 3.9 17.95 3.85 17.9 3.7 17.85 3.65 17.85 3.4 17.6 3.0 17.25 2.85 17.2 2.65 17.1 2.2 16.8 0.95 16.2 0.25 15.65 -0.45 15.35 -0.5 15.15 -0.55 15.15 -0.8 15.0 -1.0 15.0 -1.15 14.9 -1.15 14.75 -0.7 14.3 -0.55 14.2 0.5 13.55 0.95 13.3 2.4 12.2 3.5 11.2 Q4.05 10.75 4.25 10.95 L4.35 10.8 Q4.85 10.4 5.05 10.45 L5.7 10.1 5.8 9.95 7.25 9.1 8.1 8.35 10.5 6.9 11.4 6.0 Q11.9 5.45 12.0 5.45 12.15 5.45 12.2 5.6 L13.9 4.1 14.25 3.85 15.05 3.25 Q15.7 2.9 15.8 3.1 L16.8 2.2 Q17.2 1.85 17.4 1.9 L17.45 1.7 17.55 1.65 17.8 1.45 17.85 1.4 17.95 1.4 17.95 1.3 18.5 0.95 M32.85 57.6 L32.85 57.75 32.8 58.25 32.8 58.3 32.75 58.3 32.65 58.65 32.65 58.7 32.75 58.85 32.65 59.1 32.75 58.85 32.75 58.9 32.65 59.1 32.05 59.15 31.75 59.15 31.35 59.05 31.2 59.05 30.95 59.1 28.5 58.7 28.3 58.7 Q27.35 58.7 25.95 58.1 L25.75 58.05 25.55 58.1 25.1 57.95 25.05 57.95 Q24.45 57.95 22.45 57.2 21.35 56.7 20.9 56.55 L20.35 56.4 20.15 56.35 20.05 56.35 18.85 55.95 18.4 55.85 18.0 55.65 17.0 55.4 Q16.7 55.35 16.6 55.15 L16.2 55.0 Q15.25 54.55 15.25 54.4 L15.35 54.3 16.6 54.6 17.2 54.8 17.6 54.95 17.85 55.1 18.7 55.35 19.1 55.4 19.2 55.45 19.85 55.65 20.15 55.75 21.5 56.2 22.25 56.4 22.35 56.45 23.5 56.85 24.05 57.05 24.2 57.1 24.45 57.2 24.7 57.25 25.15 57.4 25.7 57.5 26.4 57.7 27.4 57.95 28.2 58.25 28.25 58.25 28.9 58.45 29.25 58.5 30.75 58.65 30.9 58.65 31.1 58.65 31.4 58.65 31.5 58.55 31.5 58.5 31.55 58.5 31.7 58.65 31.8 58.7 31.9 58.7 32.0 58.65 32.0 58.55 32.15 58.45 32.35 57.9 32.6 57.25 32.8 57.3 32.85 57.6 M19.45 23.45 L18.65 23.25 19.45 23.45 M2.05 15.65 L2.2 15.8 2.25 15.8 2.05 15.65 M30.9 25.25 L30.7 25.25 29.1 25.1 29.75 25.15 30.9 25.25 M32.8 57.3 L32.8 58.25 32.8 57.3 M31.5 58.15 L31.4 58.1 31.55 58.15 31.55 58.35 31.5 58.3 31.5 58.15" fill="#696f81" fill-rule="evenodd" stroke="none"/>
      <path d="M11.15 27.2 L10.9 26.65 Q10.55 26.6 10.55 27.05 L10.55 27.4 10.75 27.6 10.6 27.95 10.7 28.35 Q10.75 28.75 11.2 28.75 L11.55 28.45 11.6 27.9 11.5 27.4 Q11.4 27.25 11.15 27.2 M11.0 26.0 Q11.5 26.0 11.8 26.5 12.15 27.1 12.15 27.85 12.15 28.65 11.8 29.15 11.5 29.7 11.0 29.7 10.55 29.7 10.25 29.15 9.9 28.65 9.9 27.85 9.9 27.1 10.25 26.5 10.55 26.0 11.0 26.0 M26.95 29.8 Q27.55 29.8 27.95 30.4 28.4 31.0 28.4 31.8 28.4 32.65 27.95 33.25 27.55 33.85 26.95 33.85 26.3 33.85 25.8 33.25 25.45 32.65 25.45 31.8 25.45 31.0 25.8 30.4 26.3 29.8 26.95 29.8 M26.35 31.45 L26.3 31.6 26.35 32.1 26.9 32.5 27.35 32.25 27.35 31.7 27.35 31.4 27.0 31.05 27.0 31.0 Q27.0 30.6 26.6 30.6 26.3 30.65 26.3 31.15 L26.3 31.35 26.35 31.45" fill="#ff0000" fill-rule="evenodd" stroke="none"/>
      <path d="M11.15 27.2 Q11.4 27.25 11.5 27.4 L11.6 27.9 11.55 28.45 11.2 28.75 Q10.75 28.75 10.7 28.35 L10.6 27.95 10.75 27.6 10.9 27.6 11.15 27.2 M27.0 31.05 L27.35 31.4 27.35 31.7 27.35 32.25 26.9 32.5 26.35 32.1 26.3 31.6 26.35 31.45 26.6 31.5 Q26.95 31.5 27.0 31.05" fill="#990000" fill-rule="evenodd" stroke="none"/>
      <path d="M4.25 44.5 L4.45 44.6 4.7 44.7 4.75 44.75 5.15 44.95 5.3 45.0 6.35 45.6 6.85 45.85 6.8 45.85 6.8 49.05 6.8 45.85 6.85 45.85 8.05 46.6 10.05 47.3 10.35 47.4 10.35 50.45 10.35 47.4 12.85 48.45 13.4 48.65 14.55 49.05 15.15 49.3 15.45 49.35 16.7 49.9 16.75 49.8 16.9 49.75 17.05 49.75 17.4 49.8 18.15 50.15 18.45 50.4 19.05 50.45 22.2 51.4 22.35 51.45 22.5 51.45 22.65 51.55 22.75 51.6 23.6 51.8 25.15 52.2 25.5 52.25 26.0 52.4 26.15 52.45 26.2 52.45 26.3 52.5 26.4 52.6 26.8 52.65 26.9 52.65 27.2 52.7 27.25 52.7 27.35 52.7 28.2 52.85 28.65 52.95 28.7 53.05 28.85 53.05 29.3 53.25 29.45 53.45 29.4 53.65 29.3 53.25 29.4 53.65 29.1 53.7 29.45 54.9 29.4 55.0 29.5 55.1 29.65 55.4 29.55 55.6 29.5 55.1 29.55 55.6 Q29.45 55.85 28.85 55.95 L28.65 55.95 28.25 55.85 28.0 55.75 27.95 55.75 27.6 55.65 27.55 55.65 27.4 55.65 27.3 55.65 26.95 55.45 26.8 55.4 26.75 55.4 26.5 55.4 26.35 55.4 26.3 55.4 25.45 55.3 25.15 55.2 25.05 55.2 24.95 55.15 24.65 55.1 23.3 54.7 22.75 54.55 20.7 53.9 19.2 53.5 17.55 52.95 17.55 50.0 18.15 50.15 17.55 50.0 17.55 52.95 17.45 52.95 17.25 53.05 13.7 51.8 13.4 51.65 10.35 50.45 9.7 50.2 6.8 49.05 4.9 48.1 4.75 48.1 4.35 48.0 4.25 47.95 4.1 47.9 4.05 47.9 3.7 47.7 1.85 46.55 1.2 46.15 1.2 46.05 1.3 43.1 1.2 46.05 1.0 46.0 0.95 45.95 0.75 46.0 -1.35 44.8 -2.2 44.2 -2.35 44.3 -2.45 44.3 Q-2.55 44.2 -2.6 44.2 L-2.65 44.1 -2.8 44.1 -3.4 43.5 -4.7 42.7 -5.1 42.3 -5.3 42.2 -5.55 41.9 -5.55 41.7 -5.55 41.9 -5.65 41.9 -5.55 41.7 -5.35 41.7 -5.45 41.55 -5.25 40.6 -5.45 39.35 Q-5.45 39.15 -5.25 39.1 L-5.15 39.1 -5.05 39.1 -4.85 39.2 -4.75 39.35 -3.9 39.95 -3.7 40.1 -3.45 40.3 -2.8 40.75 -2.75 40.8 -1.7 41.4 Q-1.2 41.65 -0.45 42.2 -0.25 42.05 0.5 42.6 L1.3 43.1 1.6 43.45 2.0 43.65 2.75 44.1 4.25 44.5 4.25 47.95 4.25 44.5 M24.45 51.9 L25.35 52.2 26.0 52.4 25.5 52.25 25.15 52.2 23.6 51.8 24.45 51.9 M13.4 48.65 L13.4 51.65 13.4 48.65 M26.75 55.4 L26.75 52.8 26.8 52.65 26.75 52.8 26.75 55.4 M28.85 55.35 L28.85 55.3 28.7 55.2 28.45 55.35 28.85 55.35 M22.75 51.6 L22.75 54.55 22.75 51.6 M28.85 55.95 L28.0 55.75 28.85 55.95 M17.55 50.0 L17.35 49.95 17.4 49.8 17.35 49.95 17.55 50.0 M17.35 49.95 L16.9 49.75 17.35 49.95 M-2.75 40.8 L-2.8 44.1 -2.75 40.8" fill="#dcd4c4" fill-rule="evenodd" stroke="none"/>
      <path d="M55.45 -2.55 Q55.15 -3.0 55.15 -3.4 53.45 -5.0 49.95 -7.05 45.7 -9.55 38.45 -11.95 L37.65 -12.1 18.5 0.95 17.95 1.3 17.95 1.4 17.85 1.4 17.8 1.45 17.55 1.65 15.05 3.25 14.25 3.85 -1.6 14.6 -1.95 14.8 -2.15 28.85 -8.65 34.75 -8.6 35.15 -7.75 42.7 0.05 47.7 Q7.05 51.85 11.75 53.45 13.65 54.1 21.1 57.05 27.15 59.2 31.35 59.5 L32.25 59.55 33.05 59.4 Q34.9 58.9 37.85 57.45 42.55 55.3 45.3 52.5 L49.0 49.55 51.1 47.9 52.1 47.2 52.75 46.6 54.5 44.7 M55.15 -3.4 L55.9 -2.7 56.15 -2.35 56.2 -2.25 56.35 -2.1 Q56.95 -1.2 57.15 0.0 L57.2 2.5 56.6 5.0 56.1 6.7 Q57.1 7.3 57.75 8.25 L57.8 8.35 Q58.7 9.6 58.9 11.15 L58.9 12.1 59.0 12.6 59.5 15.6 Q60.05 18.9 60.05 20.4 60.05 25.2 58.85 32.05 L58.15 36.15 M58.05 36.35 Q57.35 39.75 56.4 41.85 L54.85 44.3 M56.2 -2.25 L56.0 -2.15 Q55.9 -2.1 56.1 -0.5 L56.1 -0.45 56.1 -0.4 55.7 0.65 55.55 1.2 55.5 1.35 M55.95 7.0 L56.1 6.7 M55.45 1.4 L55.35 1.45 55.35 1.6 55.45 1.4 M55.35 1.6 L54.4 3.05 53.6 3.95 52.8 4.75 M56.15 7.75 L56.25 7.75 56.5 7.95 56.55 7.95 56.6 7.95 56.95 8.05 57.8 8.35 M51.55 6.8 L51.1 6.8 50.65 6.85 50.85 6.65 M51.55 6.8 L54.45 7.2 56.15 7.75 M55.3 17.45 Q58.05 15.1 58.45 13.3 M50.7 20.85 L52.1 19.95 M41.9 25.75 L41.95 25.75 42.0 25.75 42.85 25.0 M41.95 36.85 L41.95 37.05 M41.95 37.6 L41.95 38.7 41.9 40.85 38.25 44.6 M42.4 25.6 L42.0 25.75 M41.9 25.75 L41.75 25.75 40.2 25.75 40.05 25.75 39.25 25.75 M38.85 25.75 L38.45 25.75 38.15 25.65 M38.0 25.65 L35.3 25.55 M34.5 25.55 L33.8 25.45 M31.55 25.25 L31.8 25.35 33.2 25.45 34.0 25.55 35.45 25.75 M26.2 24.75 L26.1 24.7 25.75 24.6 25.65 24.6 21.75 23.95 21.5 23.9 21.3 23.9 21.2 23.85 21.15 23.85 M5.3 18.7 L3.9 17.95 3.85 17.9 3.7 17.85 M0.15 15.85 L-0.35 15.55 M-7.95 35.15 L-7.25 35.2 -6.55 35.3 -6.4 35.3 -5.65 34.7 M0.8 29.8 L0.9 29.9 1.0 29.95 1.1 30.0 1.2 30.0 1.4 30.15 2.75 30.8 3.1 30.95 3.45 31.15 3.5 31.15 3.65 31.2 3.7 31.2 5.15 31.8 M11.3 34.4 L13.9 35.4 16.0 36.15 19.2 37.05 20.3 37.35 28.0 39.2 28.05 39.2 28.25 39.3 28.4 39.3 28.5 39.3 M27.95 39.15 L28.2 39.2 28.25 39.3 M28.6 39.35 L28.7 39.35 28.9 39.4 29.0 39.4 29.7 39.55 29.9 39.6 30.1 39.6 30.3 39.7 30.5 39.7 30.8 39.75 33.65 40.2 33.7 40.2 34.0 40.2 34.3 40.3 35.35 40.4 35.45 40.4 36.0 40.45 36.6 40.55 36.75 40.55 36.9 40.6 M37.25 41.85 L37.05 42.0 36.5 42.55 36.4 42.65 36.0 42.95 34.55 44.35 34.45 44.5 33.9 45.0 33.8 45.1 M32.35 50.2 L32.55 50.3 32.75 50.35 32.75 50.95 32.75 51.0 M41.95 25.75 L41.95 28.55 M41.95 31.8 L41.95 36.8 M11.0 21.05 L11.2 21.15 M11.4 21.2 L11.55 21.25 12.2 21.6 12.55 21.7 13.05 21.8 M13.15 21.65 L13.4 21.8 16.6 22.75 18.6 23.25 18.65 23.25 19.45 23.45 M3.65 17.85 L0.15 15.85 M5.3 18.7 Q8.5 20.2 12.2 21.6 M11.0 26.0 Q11.5 26.0 11.8 26.5 12.15 27.1 12.15 27.85 12.15 28.65 11.8 29.15 11.5 29.7 11.0 29.7 10.55 29.7 10.25 29.15 9.9 28.65 9.9 27.85 9.9 27.1 10.25 26.5 10.55 26.0 11.0 26.0 M11.3 34.4 L6.75 32.6 6.55 32.5 6.5 32.5 6.35 32.45 6.2 32.4 5.75 32.2 5.6 32.1 5.3 31.9 3.65 31.2 M0.7 30.2 L0.9 30.1 0.9 30.0 0.95 30.0 1.0 29.95 M0.95 30.0 L0.9 30.1 0.9 30.55 0.9 30.6 M0.9 31.65 L0.9 32.3 0.9 32.85 0.9 33.25 0.9 33.35 1.0 33.25 M34.85 40.4 L33.4 40.2 33.25 40.2 32.15 40.0 30.7 39.75 30.5 39.7 M0.6 30.1 L0.6 29.95 M0.05 30.65 L0.3 30.45 M0.9 31.05 L0.9 30.95 0.9 30.8 0.9 30.65 M1.5 30.25 L2.75 30.8 M0.9 31.05 L0.9 31.65 0.95 30.65 M0.75 31.65 L0.6 30.1 M0.75 31.65 L0.8 32.2 M-0.15 34.3 L0.25 33.95 0.25 33.9 0.6 33.55 0.9 33.35 0.9 33.7 1.35 34.05 M0.6 33.55 L0.9 33.7 M0.9 33.25 L0.8 32.25 M3.25 35.0 L4.95 35.85 M8.2 37.65 L8.2 37.6 6.95 36.9 M8.2 37.65 L4.25 44.15 4.25 44.5 4.45 44.6 4.7 44.7 4.75 44.75 5.15 44.95 5.3 45.0 6.15 45.4 6.3 45.45 6.35 45.55 6.4 45.6 Q6.7 45.65 6.85 45.8 L9.25 42.2 M10.25 38.45 L8.2 37.6 M4.05 39.4 L1.3 42.65 1.3 42.9 1.35 42.9 1.75 43.15 2.05 43.35 2.8 43.7 4.25 44.5 4.25 47.95 4.1 47.9 4.05 47.9 3.7 47.7 -1.95 44.6 -2.45 44.3 Q-2.55 44.2 -2.6 44.2 L-2.65 44.1 -2.8 44.1 -2.75 40.8 M1.3 43.1 L1.2 46.05 M0.45 37.6 L-2.55 40.4 -2.65 40.55 -4.85 39.1 -5.25 38.75 -5.55 38.55 -5.55 41.7 -5.55 41.9 -5.55 42.25 -5.55 42.3 -6.35 41.8 -6.35 41.7 -6.35 41.55 -6.35 41.35 M1.3 42.9 L-2.65 40.55 -2.8 40.75 M1.3 43.1 L1.3 42.9 M6.6 49.1 L4.35 48.0 4.25 47.95 M-8.0 35.2 L-8.6 35.15 M6.8 49.05 L6.8 45.85 6.85 45.85 6.85 45.8 8.4 46.45 10.35 47.3 13.4 48.5 13.45 48.45 15.7 44.55 M10.45 47.05 L12.45 43.35 M6.8 49.15 L6.8 49.2 6.85 49.2 7.25 49.4 8.2 49.8 10.35 50.75 11.15 51.05 13.4 51.85 16.55 52.95 16.75 53.05 16.8 53.05 M6.8 49.15 L6.8 49.05 M10.35 50.45 L10.35 47.4 10.35 47.3 10.35 47.1 10.45 47.05 M6.75 49.15 L6.7 49.15 6.6 49.1 M6.8 49.2 L6.75 49.15 M21.0 42.45 L21.15 42.25 18.7 41.6 M12.6 39.4 L11.55 39.05 M15.05 40.35 L15.95 40.65 M16.9 49.75 L13.4 48.5 13.4 48.65 13.4 51.65 13.4 51.85 M17.45 49.7 L21.0 42.45 M24.1 42.95 L21.15 42.25 M31.8 25.35 L31.7 25.35 31.3 25.35 31.0 25.25 30.9 25.25 29.75 25.15 26.2 24.75 M31.5 25.25 L31.55 25.25 M26.95 29.8 Q27.55 29.8 27.95 30.4 28.4 31.0 28.4 31.8 28.4 32.65 27.95 33.25 27.55 33.85 26.95 33.85 26.3 33.85 25.8 33.25 25.45 32.65 25.45 31.8 25.45 31.0 25.8 30.4 26.3 29.8 26.95 29.8 M28.6 39.35 L28.4 39.3 M24.1 46.55 L22.8 51.4 22.75 51.55 22.75 51.6 22.75 54.55 M26.0 52.4 L26.8 52.6 28.25 47.5 M32.8 44.35 L30.3 44.1 M27.75 43.7 L26.35 43.45 M27.75 43.7 L27.8 43.7 M30.45 47.8 L32.05 46.25 34.2 44.5 33.55 44.4 33.4 44.4 M33.3 44.4 L33.0 44.35 32.8 44.35 M29.05 51.05 L28.9 49.9 28.9 49.8 28.85 49.3 28.85 49.2 28.9 49.2 29.1 49.3 M34.85 40.4 L37.45 40.8 37.8 40.85 38.2 40.95 M37.6 41.5 L37.95 41.15 M30.45 47.8 L29.0 49.05 M35.25 47.7 L35.15 47.8 M36.7 46.25 L37.4 45.45 M36.7 46.25 L36.5 46.45 M23.5 28.9 L35.8 31.5 M12.95 26.6 L3.3 23.25 M32.8 50.3 L32.75 50.35 M32.75 51.2 L32.75 51.25 32.75 52.4 M32.8 56.15 L32.75 54.15 M32.8 56.8 L32.8 56.15 M32.65 59.1 L32.75 58.85 32.8 58.3 32.8 58.25 32.8 57.3 32.8 56.8 M22.0 54.5 L19.95 53.95 19.5 53.85 M10.35 50.55 L10.35 50.45 M29.2 51.9 L29.2 51.85 29.05 51.05 M29.2 51.9 L29.25 52.45 29.25 52.5 29.3 53.05 29.3 53.1 29.5 53.15 M23.6 51.8 L25.15 52.2 25.5 52.25 26.0 52.4 M26.8 52.65 L26.8 52.6 27.2 52.7 27.25 52.7 27.35 52.7 28.2 52.85 29.05 53.05 29.1 53.05 29.3 53.1 29.3 53.25 29.4 53.65 29.5 55.1 29.55 55.6 29.65 56.0 28.85 55.95 28.0 55.75 M26.8 52.65 L26.75 52.8 26.75 55.4 26.75 55.45 M19.05 50.45 L22.2 51.4 22.35 51.45 22.5 51.45 22.75 51.55 23.6 51.8 M17.45 49.7 L17.4 49.8 17.35 49.95 17.55 50.0 17.55 52.95 17.55 53.15 M18.15 50.15 L19.05 50.45 M18.15 50.15 L17.55 50.0 M24.65 55.1 L24.95 55.15 M22.0 54.5 L24.65 55.1 M32.35 50.2 L29.7 49.5 M16.9 49.75 L17.35 49.95 M10.35 50.55 L10.35 50.75 M-1.35 14.9 L-1.6 14.6 M-0.5 15.4 L-1.0 15.1 M-8.0 35.15 L-8.15 35.15 -8.3 35.15 -8.45 35.1 -8.0 35.15 -7.95 35.15 -7.75 35.2 -7.45 35.3 -7.15 35.3 -6.8 35.35 M-7.15 35.3 L-6.75 35.35 -6.7 35.35 -6.4 35.35 -6.4 35.45 -6.4 35.95 -6.4 36.0 -6.4 36.05 -6.4 36.6 -6.35 38.65 -6.35 39.4 M-8.0 35.2 L-7.95 35.2 -8.0 35.15 M-7.75 35.2 L-7.85 35.2 -7.95 35.2 M-7.55 35.3 L-7.45 35.3 M-5.9 35.0 L-6.4 35.35 -6.4 35.3 M-6.35 41.05 L-6.35 41.2 M-4.3 37.65 L-4.3 37.6 M-5.9 35.0 L-5.45 34.7 -4.0 33.55 -3.2 33.05 -2.8 32.75 -2.75 32.7 -2.35 32.4 0.05 30.65 M-0.9 34.8 L-3.7 37.1 M-4.3 37.65 L-4.95 38.1 -5.55 38.55 -5.65 38.5 M-5.25 42.5 L-5.3 42.5 -5.55 42.3 M-2.8 44.1 L-5.25 42.5" fill="none" stroke="#000000" stroke-linecap="round" stroke-linejoin="round" stroke-width="0.30000000000000004"/>
      <path d="M20.2 53.95 L16.4 52.85" fill="none" stroke="#000000" stroke-linecap="round" stroke-linejoin="round" stroke-width="0.30000000000000004"/>
      <path d="M28.0 55.7 L24.45 55.05" fill="none" stroke="#000000" stroke-linecap="round" stroke-linejoin="round" stroke-width="0.30000000000000004"/>
      <path d="M5.55 49.75 L5.4 49.85 4.4 49.35 3.3 48.7 2.55 48.05 2.05 47.55 Q2.05 46.85 3.9 48.1 L5.7 49.55 5.55 49.75" fill="#403e41" fill-rule="evenodd" stroke="none"/>
      <path d="M5.55 49.75 L5.4 49.85 4.4 49.35 3.3 48.7 2.55 48.05 2.05 47.55 Q2.05 46.85 3.9 48.1 L5.7 49.55 5.55 49.75 Z" fill="none" stroke="#000000" stroke-linecap="round" stroke-linejoin="round" stroke-width="0.30000000000000004"/>
      <path d="M6.55 50.1 Q6.2 50.1 3.35 48.25 3.35 47.75 4.0 48.1 L5.1 48.75 6.2 49.3 6.95 49.85 6.55 50.1" fill="#403e41" fill-rule="evenodd" stroke="none"/>
      <path d="M6.55 50.1 Q6.2 50.1 3.35 48.25 3.35 47.75 4.0 48.1 L5.1 48.75 6.2 49.3 6.95 49.85 6.55 50.1 Z" fill="none" stroke="#000000" stroke-linecap="round" stroke-linejoin="round" stroke-width="0.30000000000000004"/>
    </g>
  </defs>
</svg>
