<?xml version="1.0" encoding="UTF-8" standalone="no"?>
<svg xmlns:ffdec="https://www.free-decompiler.com/flash" xmlns:xlink="http://www.w3.org/1999/xlink" ffdec:objectType="frame" height="30.1px" width="30.0px" xmlns="http://www.w3.org/2000/svg">
  <g transform="matrix(1.0, 0.0, 0.0, 1.0, 0.0, 0.0)">
    <use ffdec:characterId="1" height="30.0" transform="matrix(1.0, 0.0, 0.0, 1.0, 0.0, 0.0)" width="30.0" xlink:href="#shape0"/>
    <use ffdec:characterId="5" height="30.0" transform="matrix(1.0, 0.0, 0.0, 1.0, 0.0, 0.1)" width="30.0" xlink:href="#sprite0"/>
  </g>
  <defs>
    <g id="shape0" transform="matrix(1.0, 0.0, 0.0, 1.0, 0.0, 0.0)">
      <path d="M0.0 0.0 L30.0 0.0 30.0 30.0 0.0 30.0 0.0 0.0" fill="#33cc66" fill-opacity="0.0" fill-rule="evenodd" stroke="none"/>
    </g>
    <g id="sprite0" transform="matrix(1.0, 0.0, 0.0, 1.0, 0.0, 0.0)">
      <use ffdec:characterId="2" height="30.0" transform="matrix(1.0, 0.0, 0.0, 1.0, 0.0, 0.0)" width="30.0" xlink:href="#shape1"/>
      <filter id="filter0">
        <feColorMatrix in="SourceGraphic" result="filterResult0" type="matrix" values="0 0 0 0 1.0,0 0 0 0 1.0,0 0 0 0 1.0,0 0 0 1 0"/>
        <feConvolveMatrix divisor="25.0" in="filterResult0" kernelMatrix="1 1 1 1 1 1 1 1 1 1 1 1 1 1 1 1 1 1 1 1 1 1 1 1 1" order="5 5" result="filterResult1"/>
        <feComposite in="SourceGraphic" in2="filterResult1" operator="over" result="filterResult2"/>
      </filter>
      <use ffdec:characterId="4" filter="url(#filter0)" height="54.4" transform="matrix(0.3961, 0.0, 0.0, 0.3961, 4.3623, 4.6588)" width="48.95" xlink:href="#sprite1"/>
    </g>
    <g id="shape1" transform="matrix(1.0, 0.0, 0.0, 1.0, 0.0, 0.0)">
      <path d="M27.95 0.15 Q30.0 0.7 30.0 3.3 L30.0 26.7 29.8 28.15 Q29.15 30.0 26.7 30.0 L3.3 30.0 2.4 29.95 Q0.7 29.65 0.2 28.15 L0.0 26.7 0.0 3.3 Q0.0 0.7 2.05 0.15 L2.4 0.1 3.3 0.0 26.7 0.0 27.95 0.15" fill="#cccccc" fill-rule="evenodd" stroke="none"/>
    </g>
    <g id="sprite1" transform="matrix(1.0, 0.0, 0.0, 1.0, 0.6, 2.25)">
      <use ffdec:characterId="3" height="54.4" transform="matrix(1.0, 0.0, 0.0, 1.0, -0.6, -2.25)" width="48.95" xlink:href="#shape2"/>
    </g>
    <g id="shape2" transform="matrix(1.0, 0.0, 0.0, 1.0, 0.6, 2.25)">
      <path d="M32.0 19.9 L29.3 19.5 27.05 19.65 25.15 19.75 Q31.85 13.8 35.25 12.55 L35.5 12.55 35.6 12.8 34.2 15.35 32.0 19.9 M27.35 29.5 L23.25 37.2 18.2 34.45 Q14.5 32.65 12.95 32.35 15.1 31.2 19.55 29.5 L22.0 28.6 26.15 29.25 27.35 29.5" fill="#73f3fc" fill-rule="evenodd" stroke="none"/>
      <path d="M45.85 -1.75 L45.3 -1.15 44.8 -0.55 Q40.25 4.5 35.6 12.8 L35.5 12.55 35.25 12.55 Q31.85 13.8 25.15 19.75 L27.05 19.65 29.3 19.5 32.0 19.9 30.35 23.4 28.35 26.15 28.55 25.3 28.7 24.45 28.3 23.25 24.4 23.0 23.95 23.0 21.55 23.15 16.15 28.2 11.65 32.3 11.55 32.3 11.25 32.1 11.1 31.2 10.8 29.95 13.55 27.4 44.6 -1.75 45.85 -1.75" fill="#e2ffff" fill-rule="evenodd" stroke="none"/>
      <path d="M36.45 29.15 Q36.3 30.95 35.95 31.4 35.65 31.9 34.65 32.15 L32.75 32.85 Q30.8 34.0 29.35 34.9 L30.85 30.7 Q32.55 26.15 35.55 19.15 38.95 11.15 42.4 4.15 42.3 5.95 40.1 14.25 L36.65 26.75 36.45 29.15" fill="#219b9e" fill-rule="evenodd" stroke="none"/>
      <path d="M45.3 -1.15 L45.85 -1.75 46.25 -0.55 Q41.8 15.0 39.0 29.15 L38.4 32.0 37.25 31.9 36.95 32.2 45.3 -1.15 M11.65 32.3 L16.15 28.2 21.55 23.15 23.95 23.0 24.4 23.0 28.3 23.25 28.7 24.45 28.55 25.3 28.35 26.15 30.35 23.4 28.65 26.85 27.35 29.5 26.15 29.25 22.0 28.6 19.55 29.5 Q15.1 31.2 12.95 32.35 L12.25 32.3 11.65 32.3" fill="#239999" fill-rule="evenodd" stroke="none"/>
      <path d="M11.55 32.3 L11.65 32.3 12.25 32.3 12.95 32.35 Q14.5 32.65 18.2 34.45 L23.25 37.2 27.35 29.5 28.65 26.85 30.35 23.4 32.0 19.9 34.2 15.35 35.6 12.8 Q40.25 4.5 44.8 -0.55 L45.3 -1.15 36.95 32.2 Q33.85 35.1 29.35 37.9 L28.25 38.6 24.7 40.55 Q19.6 38.4 14.9 35.05 L12.8 33.35 12.15 32.8 11.55 32.35 11.55 32.3 M36.45 29.15 L36.65 26.75 40.1 14.25 Q42.3 5.95 42.4 4.15 38.95 11.15 35.55 19.15 32.55 26.15 30.85 30.7 L29.35 34.9 Q30.8 34.0 32.75 32.85 L34.65 32.15 Q35.65 31.9 35.95 31.4 36.3 30.95 36.45 29.15" fill="#12585a" fill-rule="evenodd" stroke="none"/>
      <path d="M47.4 28.95 L46.85 30.1 46.05 31.5 Q43.4 35.65 38.4 39.45 L34.2 42.25 32.25 43.4 Q26.85 46.5 21.15 48.4 L20.95 48.4 15.55 49.85 13.5 48.4 8.95 44.7 6.0 40.95 6.85 42.55 6.9 42.65 Q4.25 39.8 2.3 36.65 L2.85 36.9 3.5 36.9 3.3 36.7 3.1 36.35 3.2 36.4 4.15 37.2 4.1 36.75 8.3 38.4 Q13.5 40.45 16.9 41.5 23.25 43.55 28.15 43.85 L28.2 43.95 32.5 41.65 34.8 40.2 35.75 39.5 Q39.8 36.6 42.65 33.25 L44.1 31.4 46.7 29.6 47.4 28.95" fill="#4b4b4b" fill-rule="evenodd" stroke="none"/>
      <path d="M46.85 30.1 L47.4 28.95 47.85 28.45 Q47.5 35.65 42.45 39.95 38.1 43.7 32.9 46.45 29.05 48.5 24.8 49.95 L20.0 51.35 18.75 51.65 17.45 51.0 17.8 50.95 Q27.85 47.8 32.55 45.4 42.45 40.45 47.1 30.8 L46.85 30.1 M1.35 32.55 L1.65 33.45 2.2 34.8 1.35 34.35 0.85 34.1 -0.1 32.05 1.35 32.55" fill="#4a3876" fill-rule="evenodd" stroke="none"/>
      <path d="M3.1 36.35 L3.3 36.7 3.5 36.9 2.85 36.9 2.3 36.65 0.85 34.1 1.35 34.35 2.2 34.8 2.5 35.35 3.0 36.15 3.1 36.35 M15.55 49.85 L20.95 48.4 21.15 48.4 Q26.85 46.5 32.25 43.4 L34.2 42.25 38.4 39.45 Q43.4 35.65 46.05 31.5 L46.85 30.1 47.1 30.8 Q42.45 40.45 32.55 45.4 27.85 47.8 17.8 50.95 L17.45 51.0 15.55 49.85" fill="#252527" fill-rule="evenodd" stroke="none"/>
      <path d="M13.55 27.4 L10.8 29.95 11.1 31.2 11.25 32.1 11.55 32.3 11.55 32.35 12.15 32.8 12.8 33.35 14.9 35.05 Q19.6 38.4 24.7 40.55 L28.25 38.6 29.35 37.9 Q33.85 35.1 36.95 32.2 L37.25 31.9 38.4 32.0 39.45 32.0 41.65 32.0 42.55 31.9 44.1 31.4 42.65 33.25 41.75 33.7 39.9 33.7 38.65 34.4 Q37.05 35.15 36.0 35.65 L34.55 36.35 30.2 39.0 29.3 39.6 Q25.9 41.8 25.7 41.8 24.0 41.8 15.9 36.9 L12.8 34.95 12.45 34.7 11.45 34.1 10.35 33.35 8.45 31.9 7.3 30.7 Q7.05 29.9 8.55 28.15 L10.05 26.75 11.05 26.9 13.55 27.4" fill="#4a6461" fill-rule="evenodd" stroke="none"/>
      <path d="M42.65 33.25 Q39.8 36.6 35.75 39.5 L34.8 40.2 32.5 41.65 28.2 43.95 28.15 43.85 Q23.25 43.55 16.9 41.5 13.5 40.45 8.3 38.4 L4.1 36.75 3.1 32.9 2.4 30.1 2.35 28.65 Q2.5 27.25 3.45 26.25 L4.9 26.15 10.05 26.75 8.55 28.15 Q7.05 29.9 7.3 30.7 L8.45 31.9 10.35 33.35 11.45 34.1 12.45 34.7 12.8 34.95 15.9 36.9 Q24.0 41.8 25.7 41.8 25.9 41.8 29.3 39.6 L30.2 39.0 34.55 36.35 36.0 35.65 Q37.05 35.15 38.65 34.4 L39.9 33.7 41.75 33.7 42.65 33.25 M3.2 36.4 L3.1 36.35 3.0 36.15 3.2 36.4" fill="#3d3d3d" fill-rule="evenodd" stroke="none"/>
      <path d="M4.1 36.75 L4.15 37.2 3.2 36.4 3.0 36.15 2.5 35.35 2.2 34.8 1.65 33.45 1.35 32.55 Q0.85 31.1 0.7 29.95 L0.45 28.05 0.65 26.6 2.5 26.35 3.45 26.25 Q2.5 27.25 2.35 28.65 L2.4 30.1 3.1 32.9 4.1 36.75 M6.9 42.65 L6.85 42.55 6.0 40.95 8.95 44.7 6.9 42.65" fill="#8a8e97" fill-rule="evenodd" stroke="none"/>
      <path d="M45.85 -1.75 L44.6 -1.75 13.55 27.4 10.8 29.95 11.1 31.2 11.25 32.1 M38.4 32.0 L39.0 29.15 Q41.8 15.0 46.25 -0.55 L45.85 -1.75" fill="none" stroke="#013d46" stroke-linecap="round" stroke-linejoin="round" stroke-width="1.0"/>
      <path d="M11.25 32.1 L11.55 32.3 11.55 32.35 12.15 32.8 12.8 33.35 14.9 35.05 Q19.6 38.4 24.7 40.55 L28.25 38.6 29.35 37.9 Q33.85 35.1 36.95 32.2 L37.25 31.9 38.4 32.0 39.45 32.0 41.65 32.0 42.55 31.9 44.1 31.4 46.7 29.6 47.4 28.95 47.85 28.45 Q47.5 35.65 42.45 39.95 38.1 43.7 32.9 46.45 29.05 48.5 24.8 49.95 L20.0 51.35 18.75 51.65 M3.1 36.35 L3.3 36.7 3.5 36.9 M10.05 26.75 L11.05 26.9 13.55 27.4 M1.35 32.55 Q0.85 31.1 0.7 29.95 L0.45 28.05 0.65 26.6 2.5 26.35 3.45 26.25 4.9 26.15 10.05 26.75 M2.2 34.8 L1.65 33.45 1.35 32.55 -0.1 32.05 M2.2 34.8 L2.5 35.35 3.0 36.15 3.1 36.35" fill="none" stroke="#000000" stroke-linecap="round" stroke-linejoin="round" stroke-width="1.0"/>
    </g>
  </defs>
</svg>
