<?xml version="1.0" encoding="UTF-8" standalone="no"?>
<svg xmlns:ffdec="https://www.free-decompiler.com/flash" xmlns:xlink="http://www.w3.org/1999/xlink" ffdec:objectType="frame" height="30.1px" width="30.0px" xmlns="http://www.w3.org/2000/svg">
  <g transform="matrix(1.0, 0.0, 0.0, 1.0, 0.0, 0.0)">
    <use ffdec:characterId="1" height="30.0" transform="matrix(1.0, 0.0, 0.0, 1.0, 0.0, 0.0)" width="30.0" xlink:href="#shape0"/>
    <use ffdec:characterId="5" height="30.0" transform="matrix(1.0, 0.0, 0.0, 1.0, 0.0, 0.1)" width="30.0" xlink:href="#sprite0"/>
  </g>
  <defs>
    <g id="shape0" transform="matrix(1.0, 0.0, 0.0, 1.0, 0.0, 0.0)">
      <path d="M0.0 0.0 L30.0 0.0 30.0 30.0 0.0 30.0 0.0 0.0" fill="#33cc66" fill-opacity="0.0" fill-rule="evenodd" stroke="none"/>
    </g>
    <g id="sprite0" transform="matrix(1.0, 0.0, 0.0, 1.0, 0.0, 0.0)">
      <use ffdec:characterId="2" height="30.0" transform="matrix(1.0, 0.0, 0.0, 1.0, 0.0, 0.0)" width="30.0" xlink:href="#shape1"/>
      <filter id="filter0">
        <feColorMatrix in="SourceGraphic" result="filterResult0" type="matrix" values="0 0 0 0 1.0,0 0 0 0 1.0,0 0 0 0 1.0,0 0 0 1 0"/>
        <feConvolveMatrix divisor="25.0" in="filterResult0" kernelMatrix="1 1 1 1 1 1 1 1 1 1 1 1 1 1 1 1 1 1 1 1 1 1 1 1 1" order="5 5" result="filterResult1"/>
        <feComposite in="SourceGraphic" in2="filterResult1" operator="over" result="filterResult2"/>
      </filter>
      <use ffdec:characterId="4" filter="url(#filter0)" height="59.9" transform="matrix(0.3961, 0.0, 0.0, 0.3961, 7.2538, 3.0348)" width="46.9" xlink:href="#sprite1"/>
    </g>
    <g id="shape1" transform="matrix(1.0, 0.0, 0.0, 1.0, 0.0, 0.0)">
      <path d="M27.95 0.15 Q30.0 0.7 30.0 3.3 L30.0 26.7 29.8 28.15 Q29.15 30.0 26.7 30.0 L3.3 30.0 2.4 29.95 Q0.7 29.65 0.2 28.15 L0.0 26.7 0.0 3.3 Q0.0 0.7 2.05 0.15 L2.4 0.1 3.3 0.0 26.7 0.0 27.95 0.15" fill="#cccccc" fill-rule="evenodd" stroke="none"/>
    </g>
    <g id="sprite1" transform="matrix(1.0, 0.0, 0.0, 1.0, -6.7, 6.35)">
      <use ffdec:characterId="3" height="59.9" transform="matrix(1.0, 0.0, 0.0, 1.0, 6.7, -6.35)" width="46.9" xlink:href="#shape2"/>
    </g>
    <g id="shape2" transform="matrix(1.0, 0.0, 0.0, 1.0, -6.7, 6.35)">
      <path d="M11.0 15.05 Q12.95 11.8 15.7 8.75 20.05 3.85 26.35 -0.6 32.1 -4.3 32.85 -5.1 L30.0 2.75 Q29.75 1.75 29.55 1.85 29.1 2.3 28.9 2.2 20.85 7.55 18.15 13.85 L17.8 14.8 16.35 15.15 16.0 15.3 Q15.1 15.5 13.95 16.25 12.95 16.6 11.05 18.25 L10.85 18.45 Q11.65 16.95 11.55 16.5 L11.45 16.25 11.45 16.15 11.0 15.05 M32.3 12.75 Q46.2 2.85 52.35 -2.2 52.15 -0.9 48.0 5.9 46.3 8.5 44.7 16.65 L37.8 17.1 36.55 18.25 36.4 17.55 36.5 16.25 36.7 16.45 Q36.4 15.85 35.25 15.85 L34.1 15.8 33.95 15.85 33.25 16.2 32.45 16.65 32.35 16.5 32.3 12.75 M45.4 15.15 L45.5 15.4 45.1 16.35 45.05 16.25 Q45.05 15.7 45.4 15.15 M51.2 16.8 L52.15 16.2 53.25 15.75 50.65 18.7 50.55 17.8 Q50.45 17.35 51.2 16.8 M18.75 26.1 L21.05 24.1 Q21.85 22.7 23.6 22.15 L24.85 21.9 24.1 22.25 18.75 26.1 M36.3 18.7 L35.8 19.2 Q35.85 18.25 36.3 18.7 M30.25 27.25 L29.75 28.25 32.35 28.95 28.0 29.9 28.0 29.85 28.95 28.8 30.25 27.25" fill="#6c80b2" fill-rule="evenodd" stroke="none"/>
      <path d="M9.95 51.5 L10.1 50.95 11.2 51.15 9.95 51.5" fill="#799eb0" fill-rule="evenodd" stroke="none"/>
      <path d="M11.05 18.25 Q12.95 16.6 13.95 16.25 15.1 15.5 16.0 15.3 L16.35 15.15 17.8 14.8 17.95 14.8 18.65 16.4 Q19.35 19.2 19.4 21.75 L18.75 26.1 18.65 26.45 Q19.45 25.65 18.75 26.1 L24.1 22.25 24.85 21.9 Q25.2 21.55 25.6 21.35 L32.45 16.65 33.25 16.2 33.95 15.85 34.1 15.8 35.25 15.85 Q36.4 15.85 36.7 16.45 L36.5 16.25 36.4 17.55 36.55 18.25 36.3 18.7 Q35.85 18.25 35.8 19.2 L35.7 19.55 35.1 19.75 35.7 19.6 35.5 20.0 Q35.1 20.5 35.05 20.85 34.1 22.5 31.35 25.85 L31.2 26.0 30.25 27.25 28.95 28.8 28.0 29.85 28.0 29.9 32.35 28.95 42.6 27.1 43.6 26.65 45.05 25.6 44.15 26.35 40.25 29.5 36.2 30.55 36.7 32.25 Q21.85 44.2 9.85 52.3 L7.95 46.35 9.3 38.55 Q6.8 26.1 10.55 15.4 9.65 20.45 10.9 18.45 L11.05 18.25 M9.95 51.5 L11.2 51.15 10.1 50.95 9.95 51.5" fill="#9ed1e4" fill-rule="evenodd" stroke="none"/>
      <path d="M17.8 14.8 L18.15 13.85 Q20.85 7.55 28.9 2.2 29.1 2.3 29.55 1.85 29.75 1.75 30.0 2.75 L30.35 3.45 Q31.85 9.05 32.3 12.75 L32.35 16.5 32.45 16.65 25.6 21.35 Q25.2 21.55 24.85 21.9 L23.6 22.15 Q21.85 22.7 21.05 24.1 L18.75 26.1 Q19.45 25.65 18.65 26.45 L18.75 26.1 19.4 21.75 Q19.35 19.2 18.65 16.4 L17.95 14.8 17.8 14.8 M44.7 16.65 Q46.25 10.1 47.0 9.6 L47.15 9.65 46.55 10.9 46.45 11.4 46.2 12.1 Q45.6 13.7 45.5 15.05 L45.4 15.15 Q45.05 15.7 45.05 16.25 L45.1 16.35 45.05 16.4 42.75 19.75 Q45.35 17.8 45.1 19.4 44.95 20.85 51.2 16.8 50.45 17.35 50.55 17.8 L50.65 18.7 Q51.0 22.45 44.15 26.35 L45.05 25.6 43.6 26.65 42.6 27.1 32.35 28.95 29.75 28.25 30.25 27.25 31.2 26.0 31.35 25.85 Q34.1 22.5 35.05 20.85 L35.9 19.6 35.7 19.6 35.1 19.75 35.7 19.55 35.8 19.2 36.3 18.7 36.55 18.25 37.8 17.1 44.7 16.65" fill="#8e9dd4" fill-rule="evenodd" stroke="none"/>
      <path d="M30.0 2.75 L32.85 -5.1 Q32.1 -4.3 26.35 -0.6 20.05 3.85 15.7 8.75 12.95 11.8 11.0 15.05 M30.0 2.75 L30.35 3.45 Q31.85 9.05 32.3 12.75 46.2 2.85 52.35 -2.2 52.15 -0.9 48.0 5.9 46.3 8.5 44.7 16.65 M45.1 16.35 L45.05 16.4 42.75 19.75 Q45.35 17.8 45.1 19.4 44.95 20.85 51.2 16.8 L52.15 16.2 M36.7 32.25 Q21.85 44.2 9.85 52.3 L7.95 46.35 9.3 38.55 Q6.8 26.1 10.55 15.4 M45.4 15.15 Q45.05 15.7 45.05 16.25 L45.1 16.35" fill="none" stroke="#304b8c" stroke-linecap="round" stroke-linejoin="round" stroke-width="2.5"/>
    </g>
  </defs>
</svg>
