<?xml version="1.0" encoding="UTF-8" standalone="no"?>
<svg xmlns:ffdec="https://www.free-decompiler.com/flash" xmlns:xlink="http://www.w3.org/1999/xlink" ffdec:objectType="frame" height="30.1px" width="30.0px" xmlns="http://www.w3.org/2000/svg">
  <g transform="matrix(1.0, 0.0, 0.0, 1.0, 0.0, 0.0)">
    <use ffdec:characterId="1" height="30.0" transform="matrix(1.0, 0.0, 0.0, 1.0, 0.0, 0.0)" width="30.0" xlink:href="#shape0"/>
    <use ffdec:characterId="5" height="30.0" transform="matrix(1.0, 0.0, 0.0, 1.0, 0.0, 0.1)" width="30.0" xlink:href="#sprite0"/>
  </g>
  <defs>
    <g id="shape0" transform="matrix(1.0, 0.0, 0.0, 1.0, 0.0, 0.0)">
      <path d="M0.0 0.0 L30.0 0.0 30.0 30.0 0.0 30.0 0.0 0.0" fill="#33cc66" fill-opacity="0.0" fill-rule="evenodd" stroke="none"/>
    </g>
    <g id="sprite0" transform="matrix(1.0, 0.0, 0.0, 1.0, 0.0, 0.0)">
      <use ffdec:characterId="2" height="30.0" transform="matrix(1.0, 0.0, 0.0, 1.0, 0.0, 0.0)" width="30.0" xlink:href="#shape1"/>
      <filter id="filter0">
        <feColorMatrix in="SourceGraphic" result="filterResult0" type="matrix" values="0 0 0 0 1.0,0 0 0 0 1.0,0 0 0 0 1.0,0 0 0 1 0"/>
        <feConvolveMatrix divisor="25.0" in="filterResult0" kernelMatrix="1 1 1 1 1 1 1 1 1 1 1 1 1 1 1 1 1 1 1 1 1 1 1 1 1" order="5 5" result="filterResult1"/>
        <feComposite in="SourceGraphic" in2="filterResult1" operator="over" result="filterResult2"/>
      </filter>
      <use ffdec:characterId="4" filter="url(#filter0)" height="37.75" transform="matrix(0.5497, 0.0, 0.0, 0.5497, 3.7319, 3.9453)" width="43.25" xlink:href="#sprite1"/>
    </g>
    <g id="shape1" transform="matrix(1.0, 0.0, 0.0, 1.0, 0.0, 0.0)">
      <path d="M27.95 0.15 Q30.0 0.7 30.0 3.3 L30.0 26.7 29.8 28.15 Q29.15 30.0 26.7 30.0 L3.3 30.0 2.4 29.95 Q0.7 29.65 0.2 28.15 L0.0 26.7 0.0 3.3 Q0.0 0.7 2.05 0.15 L2.4 0.1 3.3 0.0 26.7 0.0 27.95 0.15" fill="#cccccc" fill-rule="evenodd" stroke="none"/>
    </g>
    <g id="sprite1" transform="matrix(1.0, 0.0, 0.0, 1.0, -2.15, 1.1)">
      <use ffdec:characterId="3" height="37.75" transform="matrix(1.0, 0.0, 0.0, 1.0, 2.15, -1.1)" width="43.25" xlink:href="#shape2"/>
    </g>
    <g id="shape2" transform="matrix(1.0, 0.0, 0.0, 1.0, -2.15, 1.1)">
      <path d="M34.1 17.95 L34.2 17.95 34.1 18.35 34.05 18.3 34.1 17.95" fill="#b0ffff" fill-rule="evenodd" stroke="none"/>
      <path d="M37.35 21.35 L37.5 21.7 37.3 22.15 36.45 22.95 36.55 22.15 36.5 22.05 36.55 22.05 37.0 21.6 37.3 21.25 37.35 21.35" fill="#f2ffff" fill-rule="evenodd" stroke="none"/>
      <path d="M31.45 5.0 L31.75 5.15 31.85 5.35 32.15 5.65 32.65 6.25 32.75 6.4 33.05 6.7 33.4 7.15 33.5 7.25 33.75 7.6 33.5 7.35 33.4 7.25 33.35 7.25 32.95 6.95 32.9 6.9 32.8 6.8 32.45 6.6 31.05 5.5 31.3 5.1 31.45 5.0" fill="#bbffff" fill-rule="evenodd" stroke="none"/>
      <path d="M27.05 33.15 L27.0 33.2 27.0 33.25 26.75 33.35 Q25.65 33.75 24.7 34.6 L24.6 34.7 24.55 34.7 24.5 34.55 24.9 34.0 25.7 33.2 26.15 32.8 26.25 32.75 26.4 32.8 27.05 33.15" fill="#2ae8ff" fill-rule="evenodd" stroke="none"/>
      <path d="M44.05 20.35 Q44.2 21.05 44.4 21.05 L44.75 20.7 44.75 20.25 44.55 18.75 44.75 18.45 44.85 18.35 45.3 19.55 45.35 19.7 45.4 19.8 45.4 20.0 45.4 20.4 45.4 23.35 43.3 23.15 43.3 23.1 42.8 23.2 42.0 23.35 42.05 23.3 42.2 23.3 42.25 23.0 42.25 22.55 42.25 22.35 42.4 22.35 42.55 22.25 43.5 21.9 43.7 21.4 44.05 20.65 44.05 20.6 44.05 20.35" fill="#fcffff" fill-rule="evenodd" stroke="none"/>
      <path d="M37.05 7.65 L38.4 8.35 39.85 9.85 39.55 10.05 39.2 10.3 39.15 10.3 39.1 10.25 37.05 8.4 35.85 7.75 35.8 7.75 35.65 7.65 35.0 7.25 34.25 6.7 34.15 6.65 34.1 6.6 34.1 6.5 34.05 6.5 33.45 5.95 34.05 6.15 34.2 6.15 34.5 6.25 34.45 6.4 35.8 7.05 36.2 7.25 36.25 7.25 37.05 7.65 M31.75 5.15 L32.25 5.5 31.85 5.35 31.75 5.15 M34.4 8.65 L34.45 8.5 35.15 9.3 35.15 9.35 35.2 9.4 35.2 9.45 35.4 9.75 35.5 9.85 35.9 10.55 36.45 11.3 36.75 11.7 37.0 12.0 37.05 12.1 37.15 12.25 37.25 12.4 37.3 12.5 37.35 12.5 37.45 12.7 37.55 12.85 37.5 12.9 37.55 12.95 37.9 13.45 38.3 13.95 38.35 14.0 38.65 14.35 38.65 14.45 38.9 14.8 39.0 15.25 38.8 15.7 38.8 15.75 38.75 15.65 38.65 15.45 38.4 14.95 38.35 14.95 37.95 14.15 37.9 14.1 37.3 13.1 37.45 13.0 37.05 12.7 36.6 12.15 35.7 10.8 34.9 9.5 34.4 8.65" fill="#4cf7ff" fill-rule="evenodd" stroke="none"/>
      <path d="M39.85 9.85 L40.05 10.1 41.0 11.1 40.6 11.15 40.25 10.85 39.55 10.05 39.85 9.85" fill="#58fcff" fill-rule="evenodd" stroke="none"/>
      <path d="M40.6 11.15 L41.2 11.75 41.15 11.8 41.1 11.85 41.1 11.95 41.05 11.85 41.05 11.8 40.95 11.7 40.9 11.85 40.8 12.0 40.65 12.25 40.4 12.65 40.0 13.45 38.4 11.1 38.25 10.95 38.5 10.8 39.15 10.35 39.15 10.3 39.2 10.3 39.55 10.05 40.25 10.85 40.6 11.15 M20.95 4.6 L20.75 4.75 20.5 4.9 19.45 5.7 19.7 5.05 19.7 5.0 19.75 4.9 19.8 4.8 20.5 4.7 20.95 4.6" fill="#0489f0" fill-rule="evenodd" stroke="none"/>
      <path d="M40.4 12.65 L40.65 12.25 40.8 12.0 40.9 11.85 40.95 11.7 41.05 11.8 41.05 11.85 41.1 11.95 41.55 13.75 41.55 13.85 41.75 14.5 41.75 14.6 41.8 14.95 41.85 15.2 42.0 15.7 42.1 16.1 42.1 16.4 42.1 16.5 42.05 16.65 41.8 17.45 41.75 17.85 41.75 18.0 41.7 18.2 41.5 19.2 41.45 19.25 41.35 19.65 41.0 20.65 40.85 21.1 40.8 21.2 40.7 21.4 40.7 21.45 40.1 22.55 40.05 22.55 40.05 22.6 40.0 22.6 40.0 22.75 39.8 23.0 39.65 23.2 39.4 23.5 39.35 23.45 39.2 23.65 37.65 25.35 38.3 24.8 38.3 24.85 38.2 24.95 37.7 25.4 37.65 25.4 36.45 26.5 36.25 26.65 35.55 27.25 35.4 27.35 35.3 27.2 36.25 26.5 36.4 26.45 36.35 26.35 35.5 26.9 35.9 26.4 36.0 26.25 37.1 24.6 37.15 24.55 36.9 24.35 36.75 24.25 36.7 24.25 36.45 23.95 36.35 23.95 36.45 23.9 36.45 23.85 36.55 23.85 36.75 24.05 36.8 24.1 37.5 23.35 37.8 22.95 37.85 22.85 38.6 21.9 40.1 20.0 40.1 19.75 40.1 19.7 40.2 18.45 40.35 18.45 40.4 17.9 40.45 16.75 40.5 16.0 40.5 15.5 40.5 14.4 40.45 13.4 40.4 12.85 40.4 12.65 M34.7 27.85 L34.35 28.15 33.05 28.95 32.1 29.45 32.55 29.1 32.9 28.85 32.9 28.8 33.1 28.7 33.65 28.4 34.15 28.15 34.25 28.1 34.7 27.85" fill="#057ae3" fill-rule="evenodd" stroke="none"/>
      <path d="M41.2 11.75 L41.2 11.8 41.3 11.8 41.4 12.2 41.2 11.9 41.15 11.85 41.15 11.8 41.2 11.75 M41.5 12.45 L41.4 12.3 41.45 12.25 41.5 12.45 M42.15 15.0 L42.4 16.0 42.25 16.8 42.1 16.5 42.1 16.4 42.1 16.1 42.1 15.6 42.1 15.4 42.1 15.15 41.95 15.15 41.95 15.1 41.9 14.95 42.15 15.0 M41.25 20.7 L41.2 20.9 41.2 21.0 40.95 21.3 41.25 20.7" fill="#31fcff" fill-rule="evenodd" stroke="none"/>
      <path d="M41.1 11.95 L41.1 11.85 41.15 11.8 41.15 11.85 41.2 11.9 41.4 12.2 41.45 12.25 41.4 12.3 41.5 12.45 41.8 12.95 41.7 13.25 41.55 13.75 41.1 11.95" fill="#41eeff" fill-rule="evenodd" stroke="none"/>
      <path d="M41.3 11.8 L41.55 11.8 41.6 11.8 Q42.8 13.3 42.95 14.1 L43.6 18.4 44.05 20.35 44.05 20.6 44.0 20.6 Q43.6 20.4 43.35 20.2 L42.3 19.3 42.0 20.0 41.85 19.9 41.55 20.45 41.2 20.9 41.25 20.7 41.25 20.65 41.25 20.6 41.75 18.7 42.25 16.8 42.4 16.0 42.15 15.0 41.7 13.25 41.8 12.95 41.5 12.45 41.45 12.25 41.4 12.2 41.3 11.8 M27.45 31.1 L27.45 31.25 27.6 31.2 27.45 31.8 27.4 31.95 27.35 32.1 27.05 33.15 26.4 32.8 26.25 32.75 25.8 32.5 25.65 32.4 25.55 32.35 24.65 31.7 23.25 31.85 23.0 31.85 23.0 31.7 26.05 31.2 26.1 31.2 26.2 31.2 26.3 31.15 26.65 31.1 26.75 31.1 27.45 31.1" fill="#23bdf9" fill-rule="evenodd" stroke="none"/>
      <path d="M41.9 14.95 L41.95 15.1 41.95 15.15 42.1 15.15 42.1 15.4 42.1 15.6 42.1 16.1 42.0 15.7 41.85 15.2 41.8 14.95 41.75 14.6 41.9 14.95 M40.4 12.65 L40.4 12.85 40.45 13.4 40.5 14.4 40.5 15.5 40.5 16.0 40.45 16.75 40.4 17.9 40.2 17.7 39.55 14.15 39.55 14.1 39.55 14.05 39.95 13.5 40.0 13.45 40.4 12.65" fill="#3cb1f5" fill-rule="evenodd" stroke="none"/>
      <path d="M41.7 13.25 L42.15 15.0 41.9 14.95 41.75 14.6 41.75 14.5 41.55 13.85 41.55 13.75 41.7 13.25 M42.25 16.8 L41.75 18.7 41.25 20.6 41.25 20.65 41.25 20.7 40.95 21.3 40.9 21.35 40.8 21.45 40.7 21.4 40.8 21.2 40.85 21.1 41.0 20.65 41.35 19.65 41.45 19.25 41.5 19.2 41.7 18.2 41.75 18.0 41.75 17.85 41.8 17.45 42.05 16.65 42.1 16.5 42.25 16.8 M36.25 26.65 L36.45 26.5 37.65 25.4 37.7 25.4 38.2 24.95 38.3 24.85 38.3 24.8 37.65 25.35 39.2 23.65 39.25 23.7 39.4 23.5 39.65 23.2 39.8 23.0 40.0 22.75 40.1 22.6 40.2 22.7 40.15 22.85 39.25 24.0 39.2 24.0 39.0 24.2 38.95 24.25 38.95 24.3 38.0 25.35 36.25 27.0 36.25 26.65 M34.35 28.15 L34.6 28.4 33.05 28.95 34.35 28.15 M26.85 2.4 L27.25 2.65 27.55 2.8 28.15 3.15 30.25 4.35 31.25 4.9 31.35 4.95 31.45 5.0 31.3 5.1 31.05 5.5 30.15 4.9 29.9 4.75 28.05 3.5 27.4 3.05 27.3 3.0 27.0 2.65 26.85 2.4 M32.45 6.6 L32.8 6.8 32.9 6.9 32.95 6.95 33.35 7.25 33.4 7.25 33.5 7.35 34.35 8.5 34.35 8.45 34.45 8.5 34.4 8.65 34.45 9.1 32.45 6.6 M37.55 12.95 L37.5 12.9 37.55 12.85 37.55 12.95 M12.35 21.65 L12.65 18.65 12.75 17.4 12.8 17.35 12.9 17.4 12.6 21.55 12.55 21.55 12.35 21.65 M13.95 12.6 L14.05 12.6 13.95 13.2 13.9 13.45 13.8 13.9 13.75 14.1 13.55 14.8 13.35 15.55 13.35 15.65 13.15 16.2 13.05 16.55 13.0 16.65 12.95 16.65 12.85 16.6 12.75 16.6 13.35 14.6 13.95 12.6 M25.8 30.8 L25.95 30.8 29.4 30.1 31.7 29.4 32.55 29.1 32.1 29.45 31.75 29.75 31.7 29.6 31.45 29.75 30.65 30.15 30.55 30.2 29.95 30.5 29.9 30.5 29.8 30.55 29.65 30.55 29.45 30.25 27.65 30.85 27.45 30.9 27.45 30.95 26.75 31.1 26.65 31.1 26.3 31.15 26.1 31.2 26.05 31.2 26.05 31.1 25.8 31.1 25.8 30.8" fill="#69f0f3" fill-rule="evenodd" stroke="none"/>
      <path d="M37.3 11.75 L37.75 11.35 38.25 10.95 38.4 11.1 40.0 13.45 39.95 13.5 39.55 14.05 39.45 14.1 39.45 14.2 39.35 14.1 39.15 13.8 39.0 13.95 38.9 14.05 38.85 13.95 38.05 12.7 37.45 12.0 37.3 11.75" fill="#0dbbff" fill-rule="evenodd" stroke="none"/>
      <path d="M40.4 17.9 L40.35 18.45 40.2 18.45 40.1 19.7 40.1 19.75 40.1 20.0 38.6 21.9 37.85 22.85 37.75 22.55 37.65 22.25 38.25 20.95 38.7 20.15 38.65 20.1 40.0 17.2 40.0 17.4 40.15 17.6 40.2 17.7 40.4 17.9" fill="#0789e7" fill-rule="evenodd" stroke="none"/>
      <path d="M24.0 2.65 L26.1 2.25 26.7 2.65 27.3 3.0 27.4 3.05 28.05 3.5 29.9 4.75 30.15 4.9 31.05 5.5 32.45 6.6 34.45 9.1 34.45 9.15 34.1 8.85 32.8 7.9 31.75 7.25 29.75 6.0 29.0 5.5 28.8 5.4 28.8 5.35 28.05 4.9 26.6 3.95 24.65 2.65 24.55 2.55 24.6 2.65 24.6 3.05 25.0 4.2 24.9 4.35 24.75 4.25 24.7 4.2 24.7 4.15 24.6 3.95 24.3 3.3 24.25 3.15 24.0 2.65 M26.55 2.2 L26.75 2.2 26.85 2.4 26.55 2.2 M37.85 22.85 L37.8 22.95 37.5 23.35 36.8 24.1 36.75 24.05 36.55 23.85 36.45 23.85 36.45 23.9 36.35 23.95 36.45 23.95 34.55 26.0 Q33.25 27.3 32.5 27.65 L32.25 27.8 29.15 28.9 27.65 29.4 27.5 29.45 26.15 29.75 26.1 29.8 24.75 29.45 22.75 29.0 22.85 28.95 22.4 28.85 20.9 28.25 19.2 27.15 19.3 26.9 17.25 26.35 15.7 25.9 15.55 25.8 15.2 25.55 15.25 24.35 15.45 24.2 15.45 24.35 15.5 25.35 15.85 25.5 16.0 25.5 16.0 25.35 16.1 24.8 16.1 24.7 16.0 24.6 15.65 24.2 15.95 23.95 15.95 23.9 15.75 22.05 15.55 19.75 15.5 19.7 15.5 19.65 15.55 19.65 15.65 19.6 15.55 16.15 15.6 14.8 15.6 14.6 15.6 14.2 15.6 13.95 15.7 14.0 15.75 13.1 15.8 13.95 15.85 14.75 16.0 16.5 16.45 21.15 16.4 21.2 16.35 22.1 16.65 22.95 16.6 23.0 16.45 23.5 16.4 23.7 16.95 24.45 17.5 25.05 17.55 25.25 17.6 25.35 17.65 25.35 17.8 25.75 18.1 25.85 18.2 25.95 19.65 26.45 24.25 28.05 24.3 28.2 24.4 28.15 25.4 28.45 26.45 28.85 26.55 28.85 27.6 28.45 32.85 26.2 36.45 22.95 37.3 22.15 37.5 21.7 37.35 21.35 37.4 21.2 38.25 18.95 38.3 19.0 38.3 18.95 39.3 15.8 39.25 15.65 39.1 15.3 39.0 15.25 38.9 14.8 38.65 14.45 38.65 14.35 38.35 14.0 38.3 13.95 37.9 13.45 37.55 12.85 37.45 12.7 37.35 12.5 37.3 12.5 37.25 12.4 37.15 12.25 37.05 12.1 37.0 12.0 36.65 11.55 36.45 11.25 36.45 11.3 35.9 10.55 35.5 9.85 35.4 9.75 35.35 9.65 35.2 9.45 35.2 9.4 35.15 9.35 35.15 9.3 35.1 9.25 35.2 9.15 34.85 8.85 34.25 8.2 34.35 8.5 33.5 7.35 33.75 7.6 33.5 7.25 33.5 7.2 33.4 7.15 33.05 6.7 32.75 6.4 32.8 6.25 34.45 7.85 34.4 7.95 35.3 8.95 35.75 9.55 36.0 9.95 36.15 10.25 36.15 10.3 36.25 10.2 37.05 11.3 37.05 11.35 37.3 11.75 37.45 12.0 38.05 12.7 38.85 13.95 38.9 14.05 39.0 13.95 39.15 13.8 39.35 14.1 39.45 14.2 39.55 14.15 40.2 17.7 40.15 17.6 40.0 17.4 40.0 17.2 38.65 20.1 38.7 20.15 38.25 20.95 37.65 22.25 37.75 22.55 37.85 22.85 M34.45 9.15 L34.55 9.2 34.6 9.25 34.9 9.5 35.7 10.8 36.6 12.15 37.05 12.7 37.45 13.0 37.3 13.1 37.9 14.1 37.95 14.15 38.35 14.95 38.4 14.95 38.65 15.45 38.75 15.65 38.75 15.8 38.75 16.55 38.7 16.9 38.65 17.05 38.6 17.2 38.55 17.4 38.25 18.15 37.9 19.0 37.85 18.9 37.9 18.1 37.9 17.9 37.35 17.35 37.6 16.0 37.65 15.9 37.65 15.85 37.2 15.15 37.15 14.4 37.25 14.25 36.35 12.75 36.3 12.65 35.95 12.2 36.05 12.15 35.2 11.05 34.6 10.3 34.6 10.15 34.5 9.3 34.5 9.2 34.45 9.15 M20.1 6.65 L20.0 6.75 19.5 7.25 18.3 8.55 18.25 8.6 17.75 9.2 16.3 10.9 16.2 11.05 16.2 10.9 16.3 10.6 16.3 10.45 16.35 10.05 17.8 8.25 18.7 7.25 19.05 6.9 19.5 6.65 19.55 6.6 19.6 6.55 20.1 6.65 M24.05 26.05 L25.45 26.8 27.0 27.75 28.2 26.5 29.9 26.15 31.35 25.85 31.45 25.8 32.55 24.75 33.25 24.1 33.8 23.55 33.9 23.45 34.0 23.4 34.4 23.05 35.2 22.25 35.8 21.5 36.1 21.15 36.45 21.05 36.6 21.0 36.75 21.0 36.55 22.05 36.5 22.05 32.9 25.8 27.55 28.1 27.25 28.2 26.25 27.95 25.15 27.65 24.9 27.6 19.7 26.25 19.75 26.0 20.1 25.75 20.7 25.25 21.05 24.95 21.1 24.9 22.05 25.25 22.3 25.35 22.4 25.35 22.45 25.35 22.5 25.5 22.95 25.65 24.05 26.05 M15.1 11.75 L15.1 11.7 15.3 11.65 15.25 12.6 15.2 12.0 15.2 11.85 15.1 11.75 M15.75 12.7 L15.8 12.8 15.75 13.1 15.75 12.7 M16.75 25.1 L16.55 24.95 16.45 24.9 16.3 24.8 16.25 24.75 16.25 24.85 16.25 25.0 16.25 25.35 16.25 25.45 16.3 25.55 16.35 25.55 16.7 25.6 17.05 25.55 17.15 25.35 16.8 25.1 16.75 25.1" fill="#18ddff" fill-rule="evenodd" stroke="none"/>
      <path d="M41.2 20.9 L41.55 20.45 41.85 19.9 42.0 20.0 42.3 19.3 43.35 20.2 Q43.6 20.4 44.0 20.6 L44.05 20.6 44.05 20.65 43.7 21.4 43.5 21.9 42.55 22.25 42.4 22.35 42.25 22.35 41.7 22.55 41.65 22.6 41.2 22.75 41.15 22.8 40.9 22.7 40.85 22.65 40.75 22.6 40.6 22.5 40.5 22.4 40.4 22.35 40.35 22.3 40.3 22.3 40.4 22.2 40.7 21.45 40.7 21.4 40.8 21.45 40.9 21.35 40.95 21.3 41.2 21.0 41.2 20.9" fill="#31eaff" fill-rule="evenodd" stroke="none"/>
      <path d="M40.1 22.55 L40.7 21.45 40.4 22.2 40.3 22.3 40.2 22.4 40.1 22.55" fill="#62fff4" fill-rule="evenodd" stroke="none"/>
      <path d="M35.4 27.35 L35.55 27.25 36.25 26.65 36.25 27.0 35.6 27.55 35.4 27.35 M40.05 22.55 L40.1 22.55 40.2 22.4 40.3 22.3 40.35 22.3 40.4 22.35 40.5 22.4 40.6 22.5 40.75 22.6 40.85 22.65 40.9 22.7 41.15 22.8 41.2 22.75 41.65 22.6 41.7 22.55 42.25 22.35 42.25 22.55 42.25 23.0 42.2 23.3 42.05 23.3 42.0 23.35 41.75 24.05 41.65 23.95 41.6 23.95 41.6 24.35 41.6 25.0 41.6 25.25 41.25 26.05 39.4 29.7 39.2 30.1 38.65 29.85 38.3 29.7 38.35 30.1 38.05 30.3 37.75 30.5 37.5 30.0 37.3 29.85 36.55 29.0 36.5 28.95 36.25 28.7 36.15 28.65 35.6 28.2 35.35 28.05 35.3 28.0 35.2 27.9 34.7 28.3 34.6 28.4 34.35 28.15 34.7 27.85 34.9 27.75 34.95 27.75 35.4 27.45 35.5 27.6 35.55 27.6 35.8 27.85 35.95 28.05 36.4 28.4 36.45 28.45 36.7 28.7 36.75 28.7 36.85 28.75 38.05 29.55 38.25 29.6 38.95 28.9 39.15 28.75 40.3 26.55 40.6 25.95 40.9 25.25 40.95 25.2 41.15 24.8 41.1 24.65 41.0 23.55 40.95 23.3 40.95 23.15 40.7 23.05 40.5 22.85 40.25 22.7 40.2 22.7 40.1 22.6 40.05 22.55 M27.0 33.25 L26.95 33.55 26.75 33.35 27.0 33.25" fill="#fff9fe" fill-rule="evenodd" stroke="none"/>
      <path d="M39.2 23.65 L39.35 23.45 39.4 23.5 39.25 23.7 39.2 23.65 M40.0 22.75 L40.0 22.6 40.05 22.6 40.05 22.55 40.1 22.6 40.0 22.75" fill="#006eda" fill-rule="evenodd" stroke="none"/>
      <path d="M40.2 22.7 L40.25 22.7 40.5 22.85 39.25 24.0 40.15 22.85 40.2 22.7" fill="#08b7fa" fill-rule="evenodd" stroke="none"/>
      <path d="M40.5 22.85 L40.7 23.05 40.95 23.15 40.95 23.3 41.0 23.55 41.1 24.65 41.15 24.8 40.95 25.2 40.9 25.25 39.5 25.6 38.25 25.8 38.95 24.3 38.95 24.25 39.0 24.2 39.2 24.0 39.25 24.0 40.5 22.85" fill="#1edcf4" fill-rule="evenodd" stroke="none"/>
      <path d="M40.9 25.25 L40.6 25.95 40.3 26.55 39.15 28.75 38.95 28.9 38.25 29.6 38.05 29.55 36.85 28.75 36.75 28.7 37.3 27.6 37.8 26.65 38.2 25.85 38.25 25.8 39.5 25.6 40.9 25.25" fill="#2be7f2" fill-rule="evenodd" stroke="none"/>
      <path d="M34.7 5.95 L35.6 6.6 37.05 7.65 36.25 7.25 36.2 7.25 35.8 7.05 34.45 6.4 34.5 6.25 34.7 5.95" fill="#1ca0e0" fill-rule="evenodd" stroke="none"/>
      <path d="M33.7 5.25 L34.4 5.75 34.35 5.8 33.95 5.5 33.65 5.3 33.7 5.25" fill="#1ccbf8" fill-rule="evenodd" stroke="none"/>
      <path d="M26.75 2.2 L26.9 2.2 Q28.2 2.2 30.35 3.25 L30.7 3.45 Q32.05 4.15 33.7 5.25 L33.65 5.3 33.95 5.5 34.35 5.8 34.2 6.15 34.05 6.15 33.45 5.95 32.25 5.5 31.75 5.15 31.45 5.0 31.35 4.95 31.25 4.9 30.25 4.35 28.15 3.15 27.55 2.8 27.25 2.65 26.85 2.4 26.75 2.2" fill="#0bacfc" fill-rule="evenodd" stroke="none"/>
      <path d="M32.25 5.5 L33.45 5.95 34.05 6.5 34.1 6.5 34.1 6.6 34.15 6.65 34.25 6.7 35.0 7.25 35.65 7.65 35.8 7.75 35.85 7.75 35.9 7.85 38.25 10.95 37.75 11.35 37.3 11.75 37.05 11.35 37.05 11.3 36.25 10.2 36.15 10.3 36.15 10.25 36.0 9.95 35.75 9.55 35.3 8.95 34.4 7.95 34.45 7.85 32.8 6.25 32.75 6.4 32.65 6.25 32.15 5.65 31.85 5.35 32.25 5.5 M33.5 7.25 L33.4 7.15 33.5 7.2 33.5 7.25" fill="#0ea7f3" fill-rule="evenodd" stroke="none"/>
      <path d="M34.4 5.75 L34.7 5.95 34.5 6.25 34.2 6.15 34.35 5.8 34.4 5.75" fill="#b9fcff" fill-rule="evenodd" stroke="none"/>
      <path d="M34.45 9.1 L34.4 8.65 34.9 9.5 34.6 9.25 34.55 9.2 34.45 9.15 34.45 9.1 M34.45 8.5 L34.35 8.45 34.35 8.5 34.25 8.2 34.85 8.85 35.2 9.15 35.1 9.25 35.15 9.3 34.45 8.5 M35.2 9.45 L35.35 9.65 35.4 9.75 35.2 9.45" fill="#65e5ff" fill-rule="evenodd" stroke="none"/>
      <path d="M34.45 9.15 L34.5 9.2 34.5 9.3 34.6 10.15 34.3 10.0 34.15 9.9 33.6 9.6 30.75 7.9 29.7 7.25 26.95 5.5 26.85 5.45 26.75 5.35 26.55 5.25 26.5 5.2 26.4 5.15 26.35 5.1 26.15 5.0 26.1 4.95 26.05 4.9 25.2 4.35 25.15 4.35 25.05 4.35 25.1 4.2 25.0 4.2 24.6 3.05 24.6 2.65 24.55 2.55 24.65 2.65 26.6 3.95 28.05 4.9 28.8 5.35 28.8 5.4 29.0 5.5 29.75 6.0 31.75 7.25 32.8 7.9 34.1 8.85 34.45 9.15" fill="#0489e8" fill-rule="evenodd" stroke="none"/>
      <path d="M31.05 10.25 L31.1 10.7 29.7 10.3 31.1 10.85 31.2 11.75 30.8 11.5 30.55 11.3 30.25 11.05 30.0 11.0 29.55 10.95 28.75 10.85 28.6 10.8 28.6 10.75 28.25 10.7 28.15 10.7 28.0 10.65 27.75 10.65 27.9 10.6 27.9 10.4 27.8 10.4 27.55 10.35 27.25 10.3 27.15 10.3 26.6 10.1 26.2 9.9 26.15 9.85 25.95 9.8 25.9 9.7 26.05 9.6 26.15 9.45 26.1 9.45 25.9 9.2 26.0 9.2 26.3 9.35 26.35 9.35 26.4 9.4 26.45 9.4 27.4 9.8 27.4 9.7 27.6 9.8 27.95 9.95 28.3 10.05 28.55 10.05 28.7 9.85 28.7 9.8 28.8 9.55 28.9 9.55 30.0 9.9 31.05 10.25 M28.75 9.95 L28.75 10.1 29.15 10.1 28.75 9.95" fill="#0bdbff" fill-rule="evenodd" stroke="none"/>
      <path d="M31.1 10.7 L31.05 10.25 31.95 10.65 32.85 10.9 32.9 11.4 31.1 10.7" fill="#d5fff6" fill-rule="evenodd" stroke="none"/>
      <path d="M15.65 24.2 L16.0 24.6 16.1 24.7 16.1 24.8 16.0 25.35 16.0 25.5 15.85 25.5 15.5 25.35 15.45 24.35 15.5 24.35 15.65 24.2 M27.75 10.65 L28.0 10.65 28.15 10.7 28.25 10.75 28.25 10.7 28.6 10.75 28.6 10.8 28.75 10.85 29.55 10.95 30.0 11.0 30.25 11.05 30.55 11.3 30.8 11.5 31.2 11.75 32.05 12.2 32.5 12.4 32.55 12.45 33.15 13.15 33.2 13.2 33.5 13.55 33.6 13.7 33.7 13.95 33.65 14.2 33.5 14.75 33.4 14.7 33.3 14.35 33.15 13.9 33.15 13.85 32.9 13.45 30.25 11.4 29.8 11.35 29.5 11.2 29.35 11.1 29.15 11.15 28.9 11.15 28.2 11.3 28.2 11.15 27.9 11.1 27.5 11.05 26.25 10.8 25.8 10.65 25.8 10.55 27.75 10.65 M28.75 9.95 L29.15 10.1 28.75 10.1 28.75 9.95" fill="#e9ffff" fill-rule="evenodd" stroke="none"/>
      <path d="M31.2 11.75 L31.1 10.85 31.6 11.05 31.6 11.15 32.95 11.85 33.15 11.95 33.2 12.0 33.9 12.4 33.85 12.65 33.7 13.0 33.65 13.1 33.5 13.5 33.5 13.55 33.2 13.2 33.15 13.15 32.55 12.45 32.5 12.4 32.05 12.2 31.2 11.75" fill="#1cd1fe" fill-rule="evenodd" stroke="none"/>
      <path d="M31.1 10.85 L29.7 10.3 31.1 10.7 32.9 11.4 33.6 11.7 33.7 11.75 33.7 11.65 34.1 12.0 34.05 12.05 33.9 12.4 33.2 12.0 33.15 11.95 32.95 11.85 31.6 11.15 31.6 11.05 31.1 10.85" fill="#004a9f" fill-rule="evenodd" stroke="none"/>
      <path d="M31.05 10.25 L30.0 9.9 28.9 9.55 28.8 9.55 28.7 9.5 28.35 9.35 27.05 8.8 26.95 8.75 26.95 8.7 26.8 8.6 26.85 8.5 26.85 8.3 27.0 7.9 26.95 7.25 26.9 6.8 26.8 6.75 26.85 6.6 26.75 6.1 26.75 6.05 26.6 5.8 26.3 5.25 26.3 5.2 26.35 5.1 26.4 5.15 26.5 5.2 26.55 5.25 26.75 5.35 26.85 5.45 26.95 5.5 29.7 7.25 30.75 7.9 33.6 9.6 34.0 10.1 34.65 11.25 35.1 12.3 35.45 13.3 35.15 13.0 34.3 12.2 34.1 12.0 33.7 11.65 33.65 11.6 33.3 11.15 33.3 11.0 33.2 11.0 33.15 10.95 32.85 10.9 31.95 10.65 31.05 10.25" fill="#0678eb" fill-rule="evenodd" stroke="none"/>
      <path d="M34.6 10.15 L34.6 10.3 34.65 11.25 34.0 10.1 33.6 9.6 34.15 9.9 34.3 10.0 34.6 10.15" fill="#0a9bec" fill-rule="evenodd" stroke="none"/>
      <path d="M32.9 11.4 L32.85 10.9 33.15 10.95 33.2 11.0 33.3 11.0 33.3 11.15 33.65 11.6 33.7 11.65 33.7 11.75 33.6 11.7 32.9 11.4" fill="#63f3f4" fill-rule="evenodd" stroke="none"/>
      <path d="M33.9 12.4 L34.05 12.05 34.1 12.0 34.3 12.2 34.25 12.25 34.75 12.85 35.45 13.85 35.5 14.0 35.6 14.35 35.45 15.6 35.3 15.6 35.3 15.4 35.3 14.35 35.3 14.2 34.65 13.05 34.6 13.0 34.5 12.85 34.4 12.8 34.25 12.7 34.2 12.65 34.15 12.6 33.9 12.4" fill="#0064c4" fill-rule="evenodd" stroke="none"/>
      <path d="M35.6 14.35 L35.5 14.0 35.45 13.85 34.75 12.85 34.25 12.25 34.3 12.2 35.15 13.0 35.45 13.3 36.35 15.45 36.5 16.5 36.4 16.55 36.15 16.65 36.1 16.65 35.85 16.75 35.85 16.65 35.85 16.5 35.85 16.25 35.85 16.15 35.7 14.95 35.6 14.35" fill="#6effff" fill-rule="evenodd" stroke="none"/>
      <path d="M34.6 10.3 L35.2 11.05 36.05 12.15 35.95 12.2 36.3 12.65 36.35 12.75 37.25 14.25 37.15 14.4 37.2 15.15 37.0 14.85 36.8 14.55 36.7 14.45 35.9 13.75 35.9 13.7 35.8 13.65 35.45 13.3 35.1 12.3 34.65 11.25 34.6 10.3" fill="#1291f7" fill-rule="evenodd" stroke="none"/>
      <path d="M38.25 10.95 L35.9 7.85 35.85 7.75 37.05 8.4 39.1 10.25 39.15 10.35 38.5 10.8 38.25 10.95" fill="#047ae8" fill-rule="evenodd" stroke="none"/>
      <path d="M26.95 34.15 L26.75 34.25 Q25.65 34.65 25.65 35.4 L25.65 35.65 26.05 36.5 24.4 36.45 24.1 36.45 22.6 36.5 22.1 36.6 22.0 36.65 19.5 35.95 19.4 35.95 19.3 35.9 19.05 35.85 18.9 35.8 19.0 35.7 18.5 35.25 18.25 35.1 18.45 35.2 18.6 35.25 19.55 35.6 20.45 35.8 20.6 35.8 20.7 35.8 20.85 35.75 22.4 35.5 22.45 35.5 24.05 35.2 24.05 35.3 24.1 35.25 24.1 35.2 24.2 35.2 24.35 35.15 24.35 35.05 24.4 35.0 24.6 34.75 24.7 34.6 Q25.65 33.75 26.75 33.35 L26.95 33.55 26.9 33.7 26.85 33.8 26.85 33.85 26.8 33.95 26.95 34.15 M36.45 11.3 L36.45 11.25 36.65 11.55 37.0 12.0 36.75 11.7 36.45 11.3 M37.55 12.85 L37.9 13.45 37.55 12.95 37.55 12.85 M39.0 15.25 L39.1 15.3 39.25 15.65 39.3 15.8 38.3 18.95 38.25 18.95 38.7 17.05 38.7 16.9 38.75 16.55 38.75 15.8 38.8 15.75 38.8 15.7 39.0 15.25 M26.45 28.85 L25.4 28.45 25.15 28.0 25.0 27.8 25.15 27.65 26.25 27.95 26.4 28.6 26.45 28.85 M16.75 25.1 L16.8 25.1 17.15 25.35 17.05 25.55 16.7 25.6 16.35 25.55 16.3 25.55 16.25 25.45 16.25 25.35 16.25 25.0 16.25 24.85 16.25 24.75 16.3 24.8 16.45 24.9 16.55 24.95 16.75 25.1 M17.05 34.1 L17.2 34.15 17.25 34.25 17.05 34.1" fill="#fffcff" fill-rule="evenodd" stroke="none"/>
      <path d="M9.35 12.55 L9.7 12.35 9.8 12.3 Q10.1 12.05 10.4 11.9 L10.45 12.0 10.5 12.05 10.6 12.15 11.05 12.3 11.85 12.45 11.9 12.4 11.95 12.5 12.4 12.45 12.85 12.4 12.9 12.7 12.15 12.8 11.6 12.85 11.55 12.95 11.15 12.9 11.05 12.9 11.05 12.85 10.85 12.85 9.35 12.55 M26.1 2.25 L26.55 2.2 26.85 2.4 27.0 2.65 27.3 3.0 26.7 2.65 26.1 2.25" fill="#f9ffff" fill-rule="evenodd" stroke="none"/>
      <path d="M26.35 5.1 L26.3 5.2 26.3 5.25 26.6 5.8 26.75 6.05 26.75 6.1 26.85 6.6 26.8 6.75 26.75 7.25 26.65 7.8 26.6 8.15 26.6 8.3 26.4 8.05 26.4 7.95 26.45 7.35 26.45 7.25 26.45 7.05 26.45 6.95 26.4 6.25 26.4 6.15 26.4 6.1 26.4 6.0 26.25 5.8 26.05 5.55 26.05 5.95 25.9 5.9 25.95 5.75 26.05 5.55 25.95 5.6 25.9 5.55 25.9 5.6 25.3 5.75 25.25 5.7 25.15 5.5 25.05 5.4 24.75 5.45 24.55 5.5 24.2 5.5 24.05 5.45 24.05 5.4 23.95 5.25 23.7 5.0 24.9 5.1 25.75 5.15 25.5 4.95 25.45 4.9 25.1 4.55 24.9 4.35 25.0 4.2 25.1 4.2 25.05 4.35 25.15 4.35 25.2 4.35 26.05 4.9 26.1 4.95 26.15 5.0 26.35 5.1" fill="#67f3ff" fill-rule="evenodd" stroke="none"/>
      <path d="M27.6 28.45 L26.55 28.85 26.45 28.85 26.4 28.6 26.25 27.95 27.25 28.2 27.55 28.1 27.6 28.15 27.6 28.45 M26.05 5.55 L26.25 5.8 26.4 6.0 26.4 6.1 26.4 6.15 26.35 6.4 26.2 6.4 26.1 6.15 26.05 5.95 26.05 5.55 M24.9 27.6 L25.15 27.65 25.0 27.8 25.0 27.75 24.9 27.6" fill="#a7ffff" fill-rule="evenodd" stroke="none"/>
      <path d="M25.3 5.75 L25.9 5.6 25.95 5.6 26.05 5.55 25.95 5.75 25.9 5.9 26.05 5.95 26.1 6.15 26.2 6.4 26.35 6.4 26.4 6.15 26.4 6.25 26.45 6.95 26.45 7.05 26.45 7.25 26.45 7.35 26.4 7.95 26.4 8.05 26.25 7.7 26.2 7.65 25.95 7.25 25.9 7.2 25.9 7.15 25.85 7.1 25.55 6.55 25.5 6.55 25.2 6.15 25.35 6.05 25.45 6.0 25.4 6.0 25.3 5.85 25.3 5.75" fill="#17c2ff" fill-rule="evenodd" stroke="none"/>
      <path d="M22.95 2.95 L24.0 2.65 24.25 3.15 24.3 3.3 24.6 3.95 24.7 4.15 24.6 4.1 24.3 4.0 23.6 3.85 23.45 3.8 23.4 3.75 23.15 3.35 22.95 2.95" fill="#0586ee" fill-rule="evenodd" stroke="none"/>
      <path d="M19.8 4.5 L19.8 4.05 20.5 3.75 20.15 4.4 20.15 4.45 20.1 4.5 20.05 4.55 19.9 4.6 19.8 4.6 19.8 4.5" fill="#fefffd" fill-rule="evenodd" stroke="none"/>
      <path d="M20.5 3.75 L21.2 3.5 21.35 3.45 21.3 3.5 20.6 4.3 20.45 4.45 20.45 4.5 20.3 4.5 20.15 4.5 20.1 4.5 20.15 4.45 20.15 4.4 20.5 3.75" fill="#1d93c5" fill-rule="evenodd" stroke="none"/>
      <path d="M21.35 3.45 L22.8 3.0 22.8 3.05 22.85 3.65 22.9 3.85 22.85 3.9 22.65 3.95 22.25 4.0 22.2 4.0 21.7 4.1 21.65 4.1 20.6 4.3 21.3 3.5 21.35 3.45" fill="#10a8f4" fill-rule="evenodd" stroke="none"/>
      <path d="M22.8 3.0 L22.95 2.95 23.15 3.35 23.4 3.75 23.45 3.8 23.35 3.95 23.35 3.9 23.35 3.8 22.9 3.9 22.85 3.9 22.9 3.85 22.85 3.65 22.8 3.05 22.8 3.0" fill="#3cc7f0" fill-rule="evenodd" stroke="none"/>
      <path d="M21.65 5.15 L21.85 4.9 22.1 4.6 22.15 4.6 22.45 4.6 22.6 4.6 22.3 4.75 22.25 4.8 22.25 4.85 22.1 4.9 21.65 5.15" fill="#48e8ff" fill-rule="evenodd" stroke="none"/>
      <path d="M22.85 3.9 L22.9 3.9 23.35 3.8 23.35 3.9 23.35 3.95 23.3 4.05 23.3 4.1 23.25 4.25 23.2 4.5 23.05 4.6 22.6 4.6 22.45 4.6 22.15 4.6 22.1 4.6 22.05 4.6 21.65 4.55 21.6 4.55 21.45 4.55 21.15 4.55 21.05 4.55 20.95 4.55 20.7 4.55 20.6 4.55 20.55 4.55 20.45 4.5 20.45 4.45 20.6 4.3 21.65 4.1 21.7 4.1 22.2 4.0 22.25 4.0 22.65 3.95 22.85 3.9" fill="#0e78c4" fill-rule="evenodd" stroke="none"/>
      <path d="M23.7 5.0 L23.95 5.25 24.0 5.45 23.8 5.4 23.2 5.35 23.05 5.3 23.0 5.3 22.95 5.25 22.85 5.1 22.8 4.9 22.65 4.75 23.05 4.65 23.05 4.6 23.2 4.5 23.35 4.45 23.5 4.4 23.95 4.3 24.1 4.25 24.2 4.25 24.3 4.25 24.3 4.3 24.0 4.35 23.7 4.45 23.45 4.6 23.6 4.9 23.7 5.0 M24.7 4.2 L24.75 4.25 24.35 4.3 24.35 4.25 24.65 4.2 24.7 4.2" fill="#0dbafc" fill-rule="evenodd" stroke="none"/>
      <path d="M23.35 3.95 L23.45 3.8 23.6 3.85 24.3 4.0 24.6 4.1 24.7 4.15 24.7 4.2 24.65 4.2 24.35 4.25 24.3 4.25 24.2 4.25 24.1 4.25 23.95 4.3 23.5 4.4 23.35 4.45 23.2 4.5 23.25 4.25 23.3 4.1 23.3 4.05 23.35 3.95 M22.6 4.6 L23.05 4.6 23.05 4.65 22.65 4.75 22.8 4.9 22.85 5.1 22.85 5.15 22.75 4.95 22.7 4.9 22.5 4.85 22.4 4.9 22.3 4.75 22.6 4.6" fill="#005ca1" fill-rule="evenodd" stroke="none"/>
      <path d="M14.8 10.35 L15.0 10.4 14.95 10.5 14.8 10.35 M14.65 9.75 L14.6 9.75 14.6 9.65 14.65 9.7 14.65 9.75 M16.75 6.7 L16.65 6.75 16.35 6.1 16.25 5.95 15.95 5.8 16.1 5.7 Q16.75 5.2 17.65 4.9 L17.9 4.85 18.25 4.75 18.65 4.65 18.65 4.6 18.8 4.6 19.8 4.5 19.8 4.6 19.9 4.6 20.05 4.55 20.1 4.5 20.15 4.5 20.3 4.5 20.45 4.5 20.55 4.55 20.6 4.55 20.7 4.55 20.95 4.55 21.05 4.55 21.15 4.55 21.45 4.55 21.45 4.6 21.15 4.6 21.05 4.6 20.95 4.6 20.5 4.7 19.8 4.8 19.75 4.9 19.7 5.0 19.6 4.85 19.3 4.85 19.2 4.9 18.95 5.0 18.9 4.9 18.7 4.9 18.7 4.85 18.55 4.9 18.3 5.0 Q17.55 5.2 16.7 5.85 L16.4 6.05 16.7 6.5 16.75 6.7" fill="#f4fff8" fill-rule="evenodd" stroke="none"/>
      <path d="M21.45 4.6 L21.0 4.9 20.75 5.05 20.05 5.5 19.5 6.0 19.45 6.0 19.25 6.15 19.3 6.0 19.3 5.95 19.35 5.75 19.4 5.8 19.45 5.7 20.5 4.9 20.75 4.75 20.95 4.6 21.05 4.6 21.15 4.6 21.45 4.6" fill="#0059cb" fill-rule="evenodd" stroke="none"/>
      <path d="M21.45 4.55 L21.6 4.55 21.65 4.55 22.05 4.6 22.1 4.6 21.85 4.9 21.65 5.15 20.85 5.55 Q19.5 6.2 19.3 6.45 L19.25 6.4 19.2 6.4 19.2 6.3 19.25 6.15 19.45 6.0 19.5 6.0 20.05 5.5 20.75 5.05 21.0 4.9 21.45 4.6 21.45 4.55" fill="#4eeaff" fill-rule="evenodd" stroke="none"/>
      <path d="M22.4 4.9 L22.35 5.1 Q22.35 5.4 22.5 5.55 L22.55 5.55 21.75 6.15 21.65 6.25 20.9 6.25 20.6 6.25 20.45 6.25 21.5 5.35 21.65 5.15 22.1 4.9 22.25 4.85 22.25 4.8 22.3 4.75 22.4 4.9" fill="#06b2f2" fill-rule="evenodd" stroke="none"/>
      <path d="M19.3 6.45 Q19.5 6.2 20.85 5.55 L21.65 5.15 21.5 5.35 20.45 6.25 20.1 6.65 19.6 6.55 19.55 6.6 19.3 6.45" fill="#0090ef" fill-rule="evenodd" stroke="none"/>
      <path d="M22.55 5.55 L22.65 5.5 22.85 5.4 22.85 5.35 22.85 5.15 22.85 5.1 22.95 5.25 23.0 5.3 23.05 5.3 23.2 5.35 23.8 5.4 24.0 5.45 24.15 5.7 24.5 6.25 24.05 6.25 24.0 6.25 23.55 6.25 22.85 6.2 22.85 6.35 22.75 6.35 22.45 6.3 22.55 6.25 21.8 6.25 21.75 6.25 21.65 6.25 21.75 6.15 22.55 5.55" fill="#009afb" fill-rule="evenodd" stroke="none"/>
      <path d="M22.4 4.9 L22.5 4.85 22.7 4.9 22.75 4.95 22.85 5.15 22.85 5.35 22.85 5.4 22.65 5.5 22.55 5.55 22.5 5.55 Q22.35 5.4 22.35 5.1 L22.4 4.9" fill="#cbffef" fill-rule="evenodd" stroke="none"/>
      <path d="M24.9 4.35 L25.1 4.55 25.45 4.9 25.5 4.95 25.75 5.15 24.9 5.1 23.7 5.0 23.6 4.9 23.45 4.6 23.7 4.45 24.0 4.35 24.3 4.3 24.3 4.25 24.35 4.25 24.35 4.3 24.75 4.25 24.9 4.35" fill="#10b3ff" fill-rule="evenodd" stroke="none"/>
      <path d="M23.95 5.25 L24.05 5.4 24.05 5.45 24.2 5.5 24.55 5.5 24.75 5.45 25.05 5.4 25.15 5.5 25.25 5.7 25.3 5.75 25.3 5.85 25.4 6.0 25.45 6.0 25.35 6.05 25.2 6.15 24.95 6.25 24.8 6.25 24.75 6.3 24.65 6.3 24.6 6.35 24.5 6.25 24.15 5.7 24.0 5.45 23.95 5.25" fill="#058fe7" fill-rule="evenodd" stroke="none"/>
      <path d="M25.9 7.9 L25.8 7.7 25.8 7.55 25.6 7.25 25.2 6.9 25.4 6.7 25.4 6.55 25.5 6.55 25.55 6.55 25.85 7.1 25.9 7.15 25.9 7.2 25.95 7.25 25.95 7.3 26.0 7.45 26.05 7.8 25.9 7.9" fill="#0069af" fill-rule="evenodd" stroke="none"/>
      <path d="M24.5 6.25 L24.6 6.35 24.65 6.3 24.75 6.3 24.8 6.25 24.95 6.25 25.2 6.15 25.5 6.55 25.4 6.55 25.4 6.7 25.2 6.9 25.6 7.25 25.8 7.55 25.8 7.7 25.9 7.9 25.95 8.0 26.0 8.3 26.0 8.6 25.9 9.05 25.9 9.15 25.85 9.15 25.9 9.2 25.9 9.25 25.85 9.25 25.8 9.1 25.65 9.05 25.6 8.9 25.55 8.9 25.55 8.85 25.25 8.4 25.4 8.4 25.3 8.15 25.05 7.55 25.0 7.45 24.9 7.35 24.05 6.65 23.9 6.55 23.6 6.4 23.45 6.3 23.6 6.3 24.0 6.25 24.05 6.25 24.5 6.25" fill="#13c0fa" fill-rule="evenodd" stroke="none"/>
      <path d="M23.6 6.4 L23.9 6.55 24.05 6.65 24.9 7.35 25.0 7.45 25.05 7.55 25.3 8.15 25.4 8.4 25.25 8.4 24.95 7.85 24.95 7.9 24.95 8.05 24.9 8.15 24.35 7.55 23.95 7.15 23.9 7.15 23.8 7.05 23.6 6.85 23.6 6.7 23.7 6.7 23.85 6.7 23.85 6.55 23.75 6.55 23.65 6.55 23.6 6.4" fill="#faf9ff" fill-rule="evenodd" stroke="none"/>
      <path d="M23.65 6.55 L23.75 6.55 23.85 6.55 23.85 6.7 23.7 6.7 23.6 6.7 23.45 6.7 23.15 6.75 22.0 6.8 21.95 6.75 22.4 6.35 22.45 6.3 22.75 6.35 22.85 6.4 23.4 6.5 23.65 6.55" fill="#82deeb" fill-rule="evenodd" stroke="none"/>
      <path d="M24.0 6.25 L23.6 6.3 23.45 6.3 23.6 6.4 23.65 6.55 23.4 6.5 22.85 6.4 22.85 6.35 22.85 6.2 23.55 6.25 24.0 6.25" fill="#12abee" fill-rule="evenodd" stroke="none"/>
      <path d="M25.9 9.2 L26.1 9.45 26.15 9.45 26.05 9.6 25.9 9.7 25.95 9.8 26.15 9.85 26.2 9.9 26.6 10.1 27.15 10.3 27.25 10.3 27.55 10.35 27.8 10.4 27.9 10.4 27.9 10.6 27.75 10.65 25.8 10.55 25.65 10.6 25.4 10.4 24.6 9.75 24.6 9.65 24.75 9.45 24.85 9.35 25.1 8.8 25.1 8.7 25.0 8.3 25.0 8.25 24.95 8.05 24.95 7.9 24.95 7.85 25.25 8.4 25.55 8.85 25.55 8.9 25.6 8.9 25.65 9.05 25.8 9.1 25.85 9.25 25.9 9.25 25.9 9.2" fill="#fff5ff" fill-rule="evenodd" stroke="none"/>
      <path d="M22.45 6.3 L22.4 6.35 21.95 6.75 21.95 6.8 21.1 6.75 21.4 6.5 21.6 6.3 21.65 6.25 21.75 6.25 21.8 6.25 22.55 6.25 22.45 6.3" fill="#7fe7ff" fill-rule="evenodd" stroke="none"/>
      <path d="M20.45 6.25 L20.6 6.25 20.9 6.25 21.65 6.25 21.6 6.3 21.4 6.5 21.1 6.75 21.05 6.75 20.5 6.7 20.25 6.65 20.1 6.65 20.45 6.25" fill="#73deff" fill-rule="evenodd" stroke="none"/>
      <path d="M21.95 6.8 L21.45 7.25 20.6 8.05 20.55 8.1 Q20.05 8.25 19.2 9.25 L20.15 7.8 20.6 7.25 21.05 6.75 21.1 6.75 21.95 6.8" fill="#3dc1e8" fill-rule="evenodd" stroke="none"/>
      <path d="M26.8 6.75 L26.9 6.8 26.95 7.25 27.0 7.9 26.85 8.3 26.85 8.5 26.8 8.6 26.75 8.65 26.65 8.5 26.6 8.3 26.6 8.15 26.65 7.8 26.75 7.25 26.8 6.75" fill="#0059ae" fill-rule="evenodd" stroke="none"/>
      <path d="M26.4 8.05 L26.6 8.3 26.65 8.5 26.75 8.65 26.65 8.85 26.65 8.95 26.6 9.0 26.25 8.75 26.0 8.6 26.0 8.3 25.95 8.0 25.9 7.9 26.05 7.8 26.0 7.45 25.95 7.3 25.95 7.25 26.2 7.65 26.25 7.7 26.4 8.05" fill="#56d8ff" fill-rule="evenodd" stroke="none"/>
      <path d="M26.3 9.35 L26.0 9.2 25.9 9.2 25.85 9.15 25.9 9.15 25.9 9.05 26.0 8.6 26.25 8.75 26.6 9.0 26.55 9.05 26.35 9.3 26.3 9.35" fill="#179eb4" fill-rule="evenodd" stroke="none"/>
      <path d="M27.4 9.7 L27.4 9.8 26.45 9.4 26.4 9.4 26.35 9.35 26.3 9.35 26.35 9.3 26.55 9.05 26.65 9.15 26.8 9.2 27.1 9.5 27.4 9.7" fill="#10e0ff" fill-rule="evenodd" stroke="none"/>
      <path d="M28.3 10.05 L27.95 9.95 27.6 9.8 27.4 9.7 27.1 9.5 26.8 9.2 26.65 9.15 26.55 9.05 26.6 9.0 26.65 8.95 26.65 8.85 26.75 8.65 26.8 8.6 26.95 8.7 26.95 8.75 27.05 8.8 28.35 9.35 28.3 9.75 28.3 10.05" fill="#14befb" fill-rule="evenodd" stroke="none"/>
      <path d="M28.8 9.55 L28.7 9.8 28.7 9.85 28.55 10.05 28.3 10.05 28.3 9.75 28.35 9.35 28.7 9.5 28.8 9.55" fill="#c4f6ff" fill-rule="evenodd" stroke="none"/>
      <path d="M28.15 10.7 L28.25 10.7 28.25 10.75 28.15 10.7" fill="#3ec3d2" fill-rule="evenodd" stroke="none"/>
      <path d="M22.55 23.85 L23.1 23.1 23.15 23.15 22.85 23.7 22.9 23.8 22.95 23.85 23.25 23.7 23.05 23.95 22.95 24.0 22.95 24.3 22.9 24.1 22.8 24.2 22.8 24.25 22.45 24.55 22.3 24.7 22.1 24.95 22.15 25.0 22.1 25.1 21.7 24.95 22.25 24.25 22.45 23.95 22.55 23.9 22.55 23.85" fill="#0890f5" fill-rule="evenodd" stroke="none"/>
      <path d="M21.8 22.5 L22.0 22.8 21.45 23.15 21.15 23.2 Q20.75 23.2 20.35 22.8 L20.1 22.6 20.0 22.45 20.55 22.6 20.8 22.65 21.8 22.5" fill="#19afec" fill-rule="evenodd" stroke="none"/>
      <path d="M22.0 22.8 L22.55 23.85 22.55 23.9 22.45 23.95 22.25 24.25 22.1 24.15 21.95 23.85 21.45 23.15 22.0 22.8" fill="#09c7fb" fill-rule="evenodd" stroke="none"/>
      <path d="M19.6 21.85 Q20.35 22.4 21.1 22.4 L21.65 22.3 21.75 22.3 21.75 22.4 21.8 22.5 20.8 22.65 20.55 22.6 20.0 22.45 20.1 22.6 19.95 22.7 19.65 23.0 19.55 22.9 19.75 22.65 19.85 22.5 19.9 22.4 20.0 22.45 19.9 22.35 19.6 21.85" fill="#dfffff" fill-rule="evenodd" stroke="none"/>
      <path d="M20.35 22.8 Q20.75 23.2 21.15 23.2 L21.45 23.15 21.95 23.85 22.1 24.15 22.0 24.25 21.55 23.95 20.65 23.55 20.6 23.5 20.2 23.45 19.95 23.45 19.85 23.3 20.15 22.95 20.2 22.95 20.35 22.8" fill="#0690f5" fill-rule="evenodd" stroke="none"/>
      <path d="M22.0 24.25 L22.1 24.15 22.25 24.25 21.7 24.95 22.1 25.1 22.35 25.15 22.3 25.35 22.05 25.25 21.1 24.9 21.45 24.65 22.0 24.25" fill="#dae4fb" fill-rule="evenodd" stroke="none"/>
      <path d="M19.95 23.45 L20.2 23.45 20.6 23.5 20.65 23.55 21.55 23.95 22.0 24.25 21.45 24.65 20.6 24.15 20.45 24.05 20.3 23.9 19.95 23.45" fill="#0071e9" fill-rule="evenodd" stroke="none"/>
      <path d="M23.25 23.7 L23.3 23.7 24.85 23.0 26.4 22.45 26.35 22.8 26.2 23.5 26.15 23.95 26.15 24.1 26.05 24.1 26.45 25.1 26.4 25.1 26.05 25.2 25.95 24.95 25.7 24.2 24.35 24.55 23.05 24.85 22.4 25.0 22.15 25.0 22.1 24.95 22.3 24.7 22.45 24.55 22.8 24.25 22.8 24.2 22.9 24.1 22.95 24.3 22.95 24.0 23.05 23.95 23.25 23.7 M26.6 22.75 L27.65 22.65 28.9 22.6 29.1 22.95 29.15 23.0 29.35 23.3 28.9 23.35 Q27.3 23.6 26.4 24.0 L26.5 23.35 26.6 22.75" fill="#13bffd" fill-rule="evenodd" stroke="none"/>
      <path d="M26.4 22.45 L26.4 22.4 26.65 22.5 26.6 22.75 26.5 23.35 26.4 24.0 26.4 24.05 26.3 24.1 26.55 25.05 26.45 25.1 26.05 24.1 26.15 24.1 26.15 23.95 26.2 23.5 26.35 22.8 26.4 22.45 M22.4 25.0 L23.05 24.85 24.35 24.55 25.7 24.2 25.95 24.95 26.05 25.2 23.85 25.4 23.2 25.35 22.45 25.2 22.4 25.0" fill="#0888f3" fill-rule="evenodd" stroke="none"/>
      <path d="M26.4 22.4 L26.65 22.3 26.65 22.4 26.65 22.5 26.4 22.4" fill="#e3fff8" fill-rule="evenodd" stroke="none"/>
      <path d="M26.55 25.05 L26.3 24.1 26.4 24.05 26.4 24.0 Q27.3 23.6 28.9 23.35 L29.35 23.3 29.45 23.6 29.5 23.65 29.5 23.7 29.5 24.2 29.75 24.45 29.8 24.6 29.8 24.65 29.7 24.7 29.65 24.7 29.65 24.75 29.6 24.75 29.45 24.85 27.5 25.4 27.0 25.5 26.75 25.55 26.65 25.25 26.55 25.05" fill="#0a92f8" fill-rule="evenodd" stroke="none"/>
      <path d="M5.5 16.55 L5.45 15.85 5.7 15.9 5.5 16.55 M5.95 15.1 L6.2 14.95 6.25 14.9 6.2 15.25 6.05 15.15 6.0 15.15 5.95 15.1 M12.55 17.45 L12.5 17.3 12.45 16.85 12.35 16.85 10.6 16.5 10.2 16.45 10.6 16.45 12.35 16.6 12.45 16.6 12.6 16.6 12.75 16.6 12.85 16.6 12.95 16.65 12.9 17.35 12.9 17.4 12.8 17.35 12.75 17.4 12.55 17.45" fill="#dcffff" fill-rule="evenodd" stroke="none"/>
      <path d="M28.9 22.6 L29.45 22.65 29.5 22.4 29.65 22.45 29.9 22.5 Q30.75 22.5 31.8 21.8 L32.15 21.55 32.2 21.6 32.85 22.2 31.5 22.6 29.55 23.0 29.5 23.0 29.45 23.6 29.35 23.3 29.15 23.0 29.1 22.95 28.9 22.6" fill="#11aafa" fill-rule="evenodd" stroke="none"/>
      <path d="M29.45 23.6 L29.5 23.0 29.55 23.0 31.5 22.6 32.85 22.2 32.9 22.3 32.5 22.55 32.3 22.75 30.75 23.3 29.5 23.7 29.5 23.65 29.45 23.6" fill="#06a3f4" fill-rule="evenodd" stroke="none"/>
      <path d="M32.2 21.6 L32.2 21.55 32.85 22.05 32.9 22.1 32.95 22.15 33.0 22.2 33.2 22.4 33.25 22.45 33.2 22.5 31.75 23.55 31.75 23.6 31.6 23.7 31.0 24.05 30.3 24.5 30.1 24.6 29.95 24.75 29.75 24.85 29.65 24.9 29.45 25.0 28.9 25.75 28.5 25.75 27.6 25.85 27.55 25.85 26.85 25.9 26.45 25.1 26.55 25.05 26.65 25.25 26.75 25.55 27.0 25.5 27.5 25.4 29.45 24.85 29.6 24.75 29.65 24.75 29.65 24.7 29.7 24.7 29.8 24.65 29.8 24.6 30.0 24.4 30.25 24.25 30.9 23.75 32.3 22.75 32.5 22.55 32.9 22.3 32.85 22.2 32.2 21.6 M33.1 20.8 L33.0 20.7 33.45 20.0 33.85 19.25 33.9 19.25 33.9 19.15 33.95 19.1 34.0 19.1 34.0 19.0 34.25 18.55 34.35 18.65 34.35 18.7 34.15 19.2 34.0 19.75 33.65 20.15 33.6 20.2 33.55 20.3 33.4 20.5 33.35 20.5 33.2 20.65 33.2 20.7 33.1 20.8 M33.3 21.95 L33.35 21.95 33.35 22.0 33.3 22.05 Q33.25 22.05 33.15 22.15 L33.2 22.05 33.3 21.95" fill="#72ffff" fill-rule="evenodd" stroke="none"/>
      <path d="M29.5 23.7 L30.75 23.3 32.3 22.75 30.9 23.75 30.25 24.25 30.0 24.4 29.8 24.6 29.75 24.45 29.5 24.2 29.5 23.7" fill="#0897e5" fill-rule="evenodd" stroke="none"/>
      <path d="M28.9 25.75 L29.45 25.0 29.65 24.9 29.75 24.85 29.95 24.75 30.1 24.6 30.3 24.5 31.0 24.05 31.6 23.7 31.75 23.6 32.3 23.5 29.25 25.9 28.75 25.9 28.9 25.75" fill="#0780f1" fill-rule="evenodd" stroke="none"/>
      <path d="M38.75 15.8 L38.75 15.65 38.8 15.75 38.75 15.8 M39.45 14.2 L39.45 14.1 39.55 14.1 39.55 14.15 39.45 14.2" fill="#17d4fc" fill-rule="evenodd" stroke="none"/>
      <path d="M35.45 13.3 L35.8 13.65 35.9 13.7 35.9 13.75 36.7 14.45 36.8 14.55 37.0 14.85 37.2 15.15 37.25 15.9 37.3 17.35 37.3 17.4 36.7 19.2 36.25 20.35 32.4 23.4 32.3 23.5 31.75 23.6 31.75 23.55 33.2 22.5 33.25 22.45 33.45 22.3 33.55 22.2 33.6 22.15 34.0 21.85 34.1 21.8 34.15 21.7 34.2 21.65 34.75 21.15 35.25 20.65 35.3 20.6 35.65 20.15 35.7 20.1 35.9 19.5 36.55 17.8 36.55 17.15 36.55 17.1 36.5 16.65 36.5 16.5 36.35 15.45 35.45 13.3" fill="#0285f1" fill-rule="evenodd" stroke="none"/>
      <path d="M35.6 14.35 L35.7 14.95 35.85 16.15 35.85 16.25 35.85 16.5 35.85 16.65 35.85 16.75 35.4 16.9 35.4 16.85 35.1 17.05 35.1 17.0 35.3 16.9 35.3 16.85 35.3 16.65 35.3 16.55 35.3 15.6 35.45 15.6 35.6 14.35" fill="#0170d9" fill-rule="evenodd" stroke="none"/>
      <path d="M33.9 12.4 L34.15 12.6 34.2 12.65 34.25 12.7 34.4 12.8 34.5 12.85 34.6 13.0 34.65 13.05 35.3 14.2 35.3 14.35 35.3 15.4 35.3 15.6 35.3 16.55 34.6 14.65 34.3 14.1 34.0 13.3 33.95 13.4 33.7 13.0 33.85 12.65 33.9 12.4" fill="#17bcfe" fill-rule="evenodd" stroke="none"/>
      <path d="M35.85 16.75 L36.1 16.65 36.15 16.65 36.4 16.55 36.5 16.5 36.5 16.65 36.55 17.1 36.55 17.15 36.55 17.8 35.9 19.5 35.7 20.1 35.65 20.15 35.3 20.6 35.25 20.65 34.75 21.15 35.15 20.5 35.2 20.45 35.3 20.0 36.05 17.25 35.75 17.35 35.75 17.3 35.8 16.85 35.85 16.75" fill="#0163ec" fill-rule="evenodd" stroke="none"/>
      <path d="M35.1 17.0 L34.7 17.15 34.6 17.15 34.6 17.1 34.15 15.3 34.0 14.65 33.9 14.35 33.7 13.95 33.6 13.7 33.5 13.55 33.5 13.5 33.65 13.1 33.7 13.0 33.95 13.4 34.0 13.3 34.3 14.1 34.6 14.65 35.3 16.55 35.3 16.65 35.3 16.85 35.3 16.9 35.1 17.0" fill="#19d4ff" fill-rule="evenodd" stroke="none"/>
      <path d="M35.75 17.45 L35.75 17.35 36.05 17.25 35.3 20.0 35.2 20.45 35.15 20.5 35.05 20.25 35.05 20.2 34.95 20.15 34.4 20.8 34.9 20.05 34.9 20.0 34.95 19.95 35.05 19.75 35.3 19.3 35.4 19.05 35.45 18.9 35.55 18.5 35.65 18.1 35.7 17.55 35.75 17.45" fill="#6ff9ff" fill-rule="evenodd" stroke="none"/>
      <path d="M34.9 17.6 L35.2 17.55 35.3 17.55 35.3 17.5 35.7 17.35 35.75 17.45 35.7 17.55 35.65 18.1 35.55 18.5 35.45 18.9 35.4 19.05 35.3 19.3 35.05 19.75 34.95 19.95 34.9 20.0 34.9 20.05 34.4 20.8 34.65 19.35 34.7 19.1 34.85 17.8 34.85 17.7 34.9 17.6" fill="#0a8cfe" fill-rule="evenodd" stroke="none"/>
      <path d="M37.35 17.35 L37.9 17.9 37.9 18.1 37.65 18.7 37.15 19.6 36.25 20.35 36.7 19.2 37.3 17.4 37.3 17.35 37.35 17.35" fill="#09a7f6" fill-rule="evenodd" stroke="none"/>
      <path d="M37.2 15.15 L37.65 15.85 37.6 16.0 37.35 17.35 37.3 17.35 37.25 15.9 37.2 15.15" fill="#0996f2" fill-rule="evenodd" stroke="none"/>
      <path d="M38.25 18.95 L37.4 21.2 37.3 21.25 37.0 21.6 37.0 21.2 37.15 20.8 37.9 19.0 38.25 18.15 38.55 17.4 38.6 17.2 38.65 17.05 38.7 17.05 38.25 18.95" fill="#28cdf0" fill-rule="evenodd" stroke="none"/>
      <path d="M33.85 19.25 L33.7 18.75 33.7 18.7 33.35 17.75 33.0 17.15 33.5 15.95 33.6 16.0 33.6 15.75 33.6 15.7 33.45 14.8 33.5 14.75 33.65 14.2 33.7 13.95 33.9 14.35 34.0 14.65 34.05 16.05 34.1 16.9 34.6 17.1 34.1 17.25 34.1 17.5 34.1 17.7 34.1 17.75 34.1 17.85 34.1 17.95 34.05 18.3 34.1 18.35 34.0 19.0 34.0 19.1 33.95 19.1 33.9 19.15 33.9 19.25 33.85 19.25" fill="#fafffc" fill-rule="evenodd" stroke="none"/>
      <path d="M34.0 14.65 L34.15 15.3 34.6 17.1 34.1 16.9 34.05 16.05 34.0 14.65" fill="#3cddfa" fill-rule="evenodd" stroke="none"/>
      <path d="M32.8 21.3 L32.9 21.2 32.95 21.05 33.05 20.95 33.1 20.8 33.2 20.7 33.2 20.65 33.35 20.5 33.4 20.5 33.55 20.3 33.6 20.2 33.65 20.15 34.0 19.75 34.15 19.2 34.35 18.7 34.35 18.65 34.45 18.2 34.55 17.85 34.55 17.75 34.9 17.6 34.85 17.7 34.85 17.8 34.7 19.1 34.65 19.35 34.05 20.35 33.15 21.5 33.1 21.55 33.05 21.6 33.0 21.6 32.95 21.5 32.8 21.3" fill="#11b9fa" fill-rule="evenodd" stroke="none"/>
      <path d="M32.2 21.55 L32.65 21.3 32.65 21.25 32.75 21.25 32.8 21.2 32.8 21.3 32.95 21.5 33.0 21.6 33.2 21.8 33.3 21.95 33.2 22.05 33.15 22.15 33.0 22.2 32.95 22.15 32.9 22.1 32.85 22.05 32.2 21.55" fill="#67daff" fill-rule="evenodd" stroke="none"/>
      <path d="M33.0 21.6 L33.05 21.6 33.1 21.55 33.15 21.5 34.05 20.35 34.65 19.35 34.4 20.8 34.25 20.95 34.0 21.25 33.45 21.8 33.35 21.9 33.35 21.95 33.3 21.95 33.2 21.8 33.0 21.6" fill="#0b7ce4" fill-rule="evenodd" stroke="none"/>
      <path d="M35.15 20.5 L34.75 21.15 34.2 21.65 34.35 21.0 34.4 20.8 34.95 20.15 35.05 20.2 35.05 20.25 35.15 20.5" fill="#e7ffff" fill-rule="evenodd" stroke="none"/>
      <path d="M34.4 20.8 L34.35 21.0 34.2 21.65 34.15 21.7 34.1 21.8 34.0 21.85 33.6 22.15 33.5 22.1 33.35 22.0 33.35 21.95 33.35 21.9 33.45 21.8 34.0 21.25 34.25 20.95 34.4 20.8" fill="#51d1ec" fill-rule="evenodd" stroke="none"/>
      <path d="M15.55 25.8 L15.7 25.9 17.25 26.35 19.3 26.9 19.2 27.15 19.15 27.15 16.2 26.95 15.95 26.95 15.9 27.05 15.6 26.95 15.6 26.9 15.55 26.2 15.4 25.85 15.45 25.85 15.55 25.8 M32.3 23.5 L32.4 23.4 36.25 20.35 37.15 19.6 36.5 20.9 36.45 21.05 36.1 21.15 35.8 21.5 35.2 22.25 34.4 23.05 34.0 23.4 33.9 23.45 33.8 23.55 33.25 24.1 32.55 24.75 31.45 25.8 31.35 25.85 29.9 26.15 28.2 26.5 27.0 27.75 25.45 26.8 24.05 26.05 27.35 25.95 28.75 25.9 29.25 25.9 32.3 23.5" fill="#0dbcff" fill-rule="evenodd" stroke="none"/>
      <path d="M33.25 22.45 L33.2 22.4 33.0 22.2 33.15 22.15 Q33.25 22.05 33.3 22.05 L33.35 22.0 33.5 22.1 33.6 22.15 33.55 22.2 33.45 22.3 33.25 22.45" fill="#84f7ff" fill-rule="evenodd" stroke="none"/>
      <path d="M37.9 18.1 L37.85 18.9 37.9 19.0 37.15 20.8 37.0 21.2 37.0 21.6 36.55 22.05 36.75 21.0 36.6 21.0 36.45 21.05 36.5 20.9 37.15 19.6 37.65 18.7 37.9 18.1" fill="#45d2fd" fill-rule="evenodd" stroke="none"/>
      <path d="M37.4 21.2 L37.35 21.35 37.3 21.25 37.4 21.2 M36.45 22.95 L32.85 26.2 27.6 28.45 27.6 28.15 27.55 28.1 32.9 25.8 36.5 22.05 36.55 22.15 36.45 22.95" fill="#78f5ff" fill-rule="evenodd" stroke="none"/>
      <path d="M36.45 23.95 L36.7 24.25 36.75 24.25 36.9 24.35 37.15 24.55 37.1 24.6 36.0 26.25 35.9 26.4 35.5 26.9 36.35 26.35 36.4 26.45 36.25 26.5 35.3 27.2 35.4 27.35 35.6 27.55 35.85 27.8 36.05 28.05 36.4 28.4 35.95 28.05 35.8 27.85 35.55 27.6 35.5 27.6 35.4 27.45 34.95 27.75 34.9 27.75 34.7 27.85 34.25 28.1 34.15 28.15 33.65 28.4 33.1 28.7 Q33.7 28.25 34.6 27.55 L31.55 29.2 31.0 29.45 29.55 30.0 29.4 30.1 25.95 30.8 26.1 30.75 26.15 30.7 26.95 30.2 26.85 30.25 26.05 30.35 25.05 30.3 22.7 30.0 22.7 29.95 22.45 29.1 22.75 29.0 24.75 29.45 26.1 29.8 26.15 29.75 27.5 29.45 27.65 29.4 29.15 28.9 32.25 27.8 32.5 27.65 Q33.25 27.3 34.55 26.0 L36.45 23.95 M27.45 30.95 L27.45 31.1 26.75 31.1 27.45 30.95 M26.3 31.15 L26.2 31.2 26.1 31.2 26.3 31.15" fill="#078fe3" fill-rule="evenodd" stroke="none"/>
      <path d="M16.9 6.8 L16.75 6.8 16.75 6.7 16.7 6.5 16.4 6.05 16.7 5.85 Q17.55 5.2 18.3 5.0 L18.55 4.9 18.7 4.85 18.7 4.9 18.9 4.9 18.95 5.0 18.4 5.35 18.35 5.35 16.95 6.25 16.9 6.3 16.9 6.7 16.9 6.8 M16.85 6.25 L16.85 6.2 16.8 6.15 16.85 6.25" fill="#0b73bc" fill-rule="evenodd" stroke="none"/>
      <path d="M19.7 5.0 L19.7 5.05 19.55 5.2 19.4 5.4 19.35 5.4 18.7 6.2 18.55 6.35 18.5 6.4 17.65 7.25 17.25 7.65 17.4 7.25 17.4 7.1 17.4 6.9 17.25 6.45 16.95 6.25 18.35 5.35 18.4 5.35 18.95 5.0 19.2 4.9 19.3 4.85 19.6 4.85 19.7 5.0" fill="#0888ff" fill-rule="evenodd" stroke="none"/>
      <path d="M19.25 6.15 L19.2 6.3 19.2 6.4 19.25 6.4 19.3 6.45 19.55 6.6 19.5 6.65 19.05 6.9 19.15 6.8 19.3 6.6 19.3 6.5 19.2 6.55 18.35 7.25 18.1 7.4 17.05 8.2 17.0 8.2 16.5 8.6 16.5 8.55 16.65 8.35 16.75 8.2 16.85 8.05 16.9 8.0 17.4 7.25 17.25 7.65 17.65 7.25 18.5 6.4 18.55 6.35 18.7 6.2 19.35 5.4 19.4 5.4 19.55 5.2 19.7 5.05 19.45 5.7 19.4 5.8 19.35 5.75 19.3 5.95 19.3 6.0 19.25 6.15" fill="#fffefa" fill-rule="evenodd" stroke="none"/>
      <path d="M40.6 11.15 L41.0 11.1 40.05 10.1 39.85 9.85 38.4 8.35 37.05 7.65 35.6 6.6 34.7 5.95 34.4 5.75 33.7 5.25 Q32.05 4.15 30.7 3.45 L30.35 3.25 Q28.2 2.2 26.9 2.2 L26.75 2.2 26.55 2.2 26.1 2.25 24.0 2.65 22.95 2.95 22.8 3.0 21.35 3.45 21.2 3.5 20.5 3.75 19.8 4.05 19.8 4.5 18.8 4.6 18.65 4.6 18.65 4.65 18.25 4.75 17.9 4.85 17.65 4.9 Q16.75 5.2 16.1 5.7 L15.95 5.8 16.25 5.95 16.35 6.1 16.65 6.75 16.75 6.7 16.75 6.8 16.9 6.8 16.9 6.85 16.85 7.25 16.8 7.4 16.25 8.3 16.0 8.5 15.85 8.7 15.85 8.75 15.6 9.0 15.15 9.35 14.65 9.75 15.2 10.05 15.0 10.4 14.8 10.35 13.95 10.3 13.5 10.5 12.85 10.85 12.2 11.2 12.1 11.25 Q11.55 11.5 11.15 11.7 L10.5 12.05 10.45 12.0 10.4 11.9 Q10.1 12.05 9.8 12.3 L9.7 12.35 9.35 12.55 8.2 13.4 6.35 14.8 6.25 14.85 6.25 14.9 6.2 14.95 5.95 15.1 5.8 15.25 5.75 15.3 5.9 15.45 5.7 15.9 5.45 15.85 5.5 16.55 Q5.1 19.2 6.75 23.8 L6.8 24.0 6.9 24.0 7.1 23.95 7.15 24.1 7.15 24.2 7.45 25.0 Q8.0 26.55 9.15 28.25 10.15 29.8 11.0 30.45 L11.05 30.5 10.25 30.75 10.1 30.75 10.05 30.85 10.05 30.9 10.0 30.85 Q8.3 29.35 7.0 27.45 3.85 22.15 2.15 16.7 L2.4 15.45 3.4 14.0 5.25 11.8 5.65 11.5 Q5.7 11.45 5.9 11.35 L7.05 10.95 8.5 10.6 9.6 10.35 9.95 10.3 11.6 9.85 12.5 8.95 Q13.45 7.75 13.45 6.55 13.45 5.85 12.65 5.3 L11.55 4.9 Q15.55 1.45 19.9 0.05 23.45 -1.1 28.0 -1.1 29.7 -1.1 31.4 0.1 L39.2 6.8 42.35 10.05 43.6 12.85 43.95 13.8 43.95 14.05 44.0 14.35 44.1 14.7 Q44.95 17.15 44.95 18.15 L44.85 18.35 44.75 18.45 44.55 18.75 44.75 20.25 44.75 20.7 44.4 21.05 Q44.2 21.05 44.05 20.35 L43.6 18.4 42.95 14.1 Q42.8 13.3 41.6 11.8 L41.55 11.8 41.3 11.8 41.2 11.8 41.2 11.75 40.6 11.15 M14.65 9.75 L14.65 9.7 14.6 9.65 14.6 9.75 14.65 9.75 M21.95 6.75 L22.0 6.8 23.15 6.75 23.45 6.7 23.6 6.7 23.6 6.85 23.8 7.05 23.9 7.15 23.95 7.15 24.35 7.55 24.9 8.15 24.95 8.05 25.0 8.25 25.0 8.3 25.1 8.7 25.1 8.8 24.85 9.35 24.75 9.45 24.6 9.65 24.6 9.75 25.4 10.4 25.65 10.6 25.8 10.55 25.8 10.65 26.25 10.8 27.5 11.05 27.9 11.1 28.2 11.15 28.2 11.3 28.9 11.15 29.15 11.15 29.35 11.1 29.5 11.2 29.8 11.35 30.25 11.4 32.9 13.45 33.15 13.85 33.15 13.9 33.3 14.35 33.4 14.7 33.5 14.75 33.45 14.8 33.6 15.7 33.6 15.75 33.6 16.0 33.5 15.95 33.0 17.15 33.35 17.75 33.7 18.7 33.7 18.75 33.85 19.25 33.45 20.0 33.0 20.7 33.1 20.8 33.05 20.95 32.95 21.05 32.9 21.2 32.8 21.3 32.8 21.2 32.75 21.25 32.65 21.25 32.65 21.3 32.2 21.55 32.2 21.6 32.15 21.55 31.8 21.8 Q30.75 22.5 29.9 22.5 L29.65 22.45 29.5 22.4 29.45 22.65 28.9 22.6 27.65 22.65 26.6 22.75 26.65 22.5 26.65 22.4 26.65 22.3 26.4 22.4 26.4 22.45 24.85 23.0 23.3 23.7 23.25 23.7 22.95 23.85 22.9 23.8 22.85 23.7 23.15 23.15 23.1 23.1 22.55 23.85 22.0 22.8 21.8 22.5 21.75 22.4 21.75 22.3 21.65 22.3 21.1 22.4 Q20.35 22.4 19.6 21.85 L19.55 21.8 18.3 20.15 18.25 20.05 17.55 18.6 17.5 18.3 17.5 18.25 17.35 17.55 17.35 17.05 16.8 15.25 Q16.8 12.1 18.7 9.8 L19.0 9.4 19.2 9.25 Q20.05 8.25 20.55 8.1 L20.6 8.05 21.45 7.25 21.95 6.8 21.95 6.75 M26.45 25.1 L26.85 25.9 26.6 25.9 26.35 25.9 26.05 25.2 26.4 25.1 26.45 25.1 M35.85 16.75 L35.8 16.85 35.75 17.3 35.75 17.35 35.75 17.45 35.7 17.35 35.3 17.5 35.3 17.55 35.2 17.55 34.9 17.6 34.55 17.75 34.55 17.85 34.45 18.2 34.35 18.65 34.25 18.55 34.0 19.0 34.1 18.35 34.2 17.95 34.1 17.95 34.1 17.85 34.1 17.75 34.1 17.7 34.1 17.5 34.1 17.25 34.6 17.1 34.6 17.15 34.7 17.15 35.1 17.0 35.1 17.05 35.4 16.85 35.4 16.9 35.85 16.75 M16.0 10.9 L15.95 11.2 15.9 11.4 15.9 11.5 15.5 11.5 15.5 11.45 15.45 11.5 15.4 11.5 15.4 10.85 16.0 10.9 M7.1 23.95 L7.1 23.9 10.35 22.6 10.4 22.65 10.7 23.0 10.35 23.05 8.9 23.55 7.1 23.95" fill="#ffffff" fill-rule="evenodd" stroke="none"/>
      <path d="M15.85 8.75 L15.85 8.7 16.0 8.5 16.25 8.3 16.8 7.4 16.85 7.25 16.9 6.85 16.9 6.8 16.9 6.7 16.9 6.3 16.95 6.25 17.25 6.45 17.4 6.9 17.4 7.1 17.4 7.25 16.9 8.0 16.85 8.05 16.75 8.2 16.65 8.35 16.5 8.55 16.5 8.6 16.45 8.65 16.3 8.9 16.2 9.15 16.15 9.2 15.7 10.1 15.35 10.1 15.2 10.05 15.65 9.15 15.85 8.75" fill="#056fdd" fill-rule="evenodd" stroke="none"/>
      <path d="M16.5 8.6 L17.0 8.2 17.05 8.2 18.1 7.4 18.35 7.25 19.2 6.55 19.3 6.5 19.3 6.6 19.15 6.8 19.05 6.9 18.7 7.25 17.8 8.25 16.35 10.05 16.3 10.2 16.05 10.5 15.7 10.45 15.6 10.45 15.7 10.1 16.15 9.2 16.2 9.15 16.3 8.9 16.45 8.65 16.5 8.6" fill="#0b91f2" fill-rule="evenodd" stroke="none"/>
      <path d="M15.2 10.05 L14.65 9.75 15.15 9.35 15.6 9.0 15.85 8.75 15.65 9.15 15.2 10.05" fill="#0077e5" fill-rule="evenodd" stroke="none"/>
      <path d="M13.5 10.5 L13.95 10.3 14.8 10.35 14.95 10.5 14.7 10.9 14.35 11.55 14.25 11.4 13.95 11.0 13.5 10.5" fill="#0071e7" fill-rule="evenodd" stroke="none"/>
      <path d="M10.5 12.05 L11.15 11.7 Q11.55 11.5 12.1 11.25 L12.2 11.2 12.85 10.85 13.1 11.7 13.0 12.25 13.0 12.35 12.85 12.4 12.4 12.45 11.95 12.5 11.9 12.4 11.85 12.45 11.05 12.3 10.6 12.15 10.5 12.05" fill="#21caff" fill-rule="evenodd" stroke="none"/>
      <path d="M12.85 10.85 L13.5 10.5 13.95 11.0 14.25 11.4 14.35 11.55 14.1 11.9 14.1 11.95 14.0 12.15 13.95 12.25 13.9 12.25 13.75 12.25 13.35 12.3 13.35 12.35 13.15 12.35 13.0 12.35 13.0 12.25 13.1 11.7 12.85 10.85" fill="#0c92f5" fill-rule="evenodd" stroke="none"/>
      <path d="M14.95 10.5 L15.0 10.4 15.2 10.4 14.7 11.65 14.65 11.65 14.55 11.9 14.5 12.15 14.15 12.2 14.05 12.2 14.0 12.25 13.95 12.25 14.0 12.15 14.1 11.95 14.1 11.9 14.35 11.55 14.7 10.9 14.95 10.5 M13.0 12.35 L13.15 12.35 13.35 12.35 13.35 12.65 13.2 12.65 12.9 12.7 12.85 12.4 13.0 12.35" fill="#58f8ff" fill-rule="evenodd" stroke="none"/>
      <path d="M13.95 12.25 L14.0 12.25 14.05 12.2 14.15 12.2 14.5 12.15 14.45 12.3 14.35 12.5 14.3 12.65 14.55 12.7 14.65 12.9 14.65 13.3 14.65 13.55 14.7 17.5 15.2 18.25 15.2 19.0 14.9 18.5 14.65 18.2 14.6 21.0 13.95 21.25 13.15 21.5 13.05 21.55 13.05 22.15 13.05 22.6 12.95 22.6 12.95 22.65 12.9 22.65 12.6 22.7 12.6 22.2 12.75 22.2 12.6 21.65 12.6 21.55 12.9 17.4 12.9 17.35 12.95 16.65 13.0 16.65 13.05 16.55 13.15 16.2 13.35 15.65 13.35 15.55 13.55 14.8 13.75 14.1 13.8 13.9 13.9 13.45 13.95 13.2 14.05 12.6 13.95 12.6 13.85 12.6 13.35 12.65 13.35 12.35 13.35 12.3 13.75 12.25 13.9 12.25 13.95 12.25" fill="#0884e4" fill-rule="evenodd" stroke="none"/>
      <path d="M14.5 12.15 L14.55 11.9 14.65 11.65 14.7 11.65 15.2 10.4 15.55 10.45 15.6 10.45 15.5 10.55 15.4 10.75 15.4 10.85 15.35 10.9 15.2 11.4 15.15 11.45 15.1 11.7 15.1 11.75 14.75 12.55 14.65 12.9 14.55 12.7 14.3 12.65 14.35 12.5 14.45 12.3 14.5 12.15" fill="#006acc" fill-rule="evenodd" stroke="none"/>
      <path d="M15.0 10.4 L15.2 10.05 15.35 10.1 15.7 10.1 15.6 10.45 15.55 10.45 15.2 10.4 15.0 10.4" fill="#71c8fe" fill-rule="evenodd" stroke="none"/>
      <path d="M15.4 10.85 L15.4 10.75 15.5 10.55 15.6 10.45 15.7 10.45 16.05 10.5 16.3 10.2 16.35 10.05 16.3 10.45 16.3 10.6 16.2 10.55 16.0 10.85 16.0 10.9 15.4 10.85 M15.4 11.5 L15.45 11.5 15.4 11.55 15.4 11.5 M15.5 11.5 L15.9 11.5 15.75 12.5 15.75 12.7 15.7 12.75 15.65 12.8 15.6 12.85 15.5 12.95 15.5 12.65 15.5 11.6 15.5 11.5" fill="#9eebff" fill-rule="evenodd" stroke="none"/>
      <path d="M16.0 10.9 L16.0 10.85 16.2 10.55 16.3 10.6 16.2 10.9 16.2 11.05 16.15 11.15 16.0 11.9 15.85 12.5 15.85 12.55 15.75 12.7 15.75 12.5 15.9 11.5 15.9 11.4 15.95 11.2 16.0 10.9" fill="#0593d3" fill-rule="evenodd" stroke="none"/>
      <path d="M15.1 11.7 L15.15 11.45 15.2 11.4 15.35 10.9 15.4 10.85 15.4 11.5 15.4 11.55 15.4 11.6 15.3 11.65 15.1 11.7 M29.5 31.0 L29.25 31.0 28.75 31.05 28.1 31.05 27.6 31.1 27.45 31.1 27.45 30.95 27.45 30.9 27.65 30.85 29.45 30.25 29.65 30.55 29.65 30.6 29.7 30.7 Q29.55 30.75 29.35 30.85 L29.5 31.0" fill="#158ee7" fill-rule="evenodd" stroke="none"/>
      <path d="M14.65 12.9 L14.75 12.55 15.1 11.75 15.2 11.85 15.2 12.0 15.25 12.6 15.25 12.65 15.3 13.1 15.25 13.05 15.25 13.95 15.25 14.75 15.25 15.7 15.25 16.2 15.2 16.85 15.2 18.25 14.7 17.5 14.65 13.55 14.65 13.3 14.65 12.9" fill="#09a1f4" fill-rule="evenodd" stroke="none"/>
      <path d="M18.3 8.55 L18.35 8.7 17.9 9.4 17.15 10.7 17.0 11.1 16.9 11.05 16.05 12.7 16.0 12.8 16.0 12.85 15.8 12.8 15.75 12.7 15.85 12.55 15.85 12.5 16.0 11.9 16.15 11.15 16.2 11.05 16.3 10.9 17.75 9.2 18.25 8.6 18.3 8.55" fill="#058ce6" fill-rule="evenodd" stroke="none"/>
      <path d="M7.1 23.95 L6.9 24.0 6.8 24.0 6.75 23.8 Q5.1 19.2 5.5 16.55 L5.7 15.9 5.8 15.95 7.95 16.5 8.1 16.55 8.6 16.65 9.05 16.75 9.15 16.8 9.2 17.25 10.5 22.4 10.85 22.3 11.1 22.2 10.35 22.6 7.1 23.9 7.1 23.95 M6.25 14.9 L6.25 14.85 6.35 14.8 8.2 13.4 9.35 12.55 10.85 12.85 11.05 12.85 11.05 12.9 11.15 12.9 11.55 12.95 11.3 13.2 10.3 14.55 9.05 16.35 8.85 16.35 8.65 16.3 8.25 16.3 8.15 16.25 6.55 15.45 6.2 15.25 6.25 14.9 M15.75 13.1 L15.7 14.0 15.6 13.95 15.6 14.2 15.6 14.6 15.6 14.8 15.55 16.15 15.65 19.6 15.55 19.65 15.5 19.65 15.5 19.7 15.4 19.55 15.35 19.45 15.2 19.25 15.3 19.15 15.25 19.1 15.2 19.1 15.2 19.0 15.2 18.25 15.2 16.85 15.25 16.2 15.25 15.7 15.25 14.75 15.25 13.95 15.25 13.05 15.3 13.1 15.25 12.65 15.25 12.6 15.3 11.65 15.4 11.6 15.4 11.55 15.45 11.5 15.5 11.45 15.5 11.5 15.5 11.6 15.5 12.65 15.5 12.95 15.6 12.85 15.65 12.8 15.7 12.75 15.75 12.7 15.75 13.1" fill="#34f0fb" fill-rule="evenodd" stroke="none"/>
      <path d="M19.2 9.25 L19.0 9.4 18.7 9.8 18.6 9.75 Q18.1 9.4 17.9 9.4 L18.35 8.7 18.3 8.55 19.5 7.25 20.0 6.75 20.1 6.65 20.25 6.65 20.5 6.7 21.05 6.75 20.6 7.25 20.15 7.8 19.2 9.25" fill="#0e85ed" fill-rule="evenodd" stroke="none"/>
      <path d="M18.7 9.8 Q16.8 12.1 16.8 15.25 L17.35 17.05 17.35 17.55 17.5 18.25 17.5 18.3 17.5 18.5 17.5 18.9 17.55 19.05 17.35 19.1 17.2 20.3 16.8 16.65 16.35 13.0 16.4 12.95 16.35 12.95 16.0 12.85 16.0 12.8 16.05 12.7 16.9 11.05 17.0 11.1 17.15 10.7 17.9 9.4 Q18.1 9.4 18.6 9.75 L18.7 9.8" fill="#0274f1" fill-rule="evenodd" stroke="none"/>
      <path d="M17.5 18.3 L17.55 18.6 17.5 18.5 17.5 18.3" fill="#004688" fill-rule="evenodd" stroke="none"/>
      <path d="M9.05 16.35 L10.3 14.55 11.3 13.2 11.55 12.95 11.6 12.85 12.15 12.8 12.9 12.7 13.2 12.65 13.35 12.65 13.85 12.6 13.95 12.6 13.35 14.6 12.75 16.6 12.6 16.6 12.45 16.6 12.35 16.6 10.6 16.45 10.2 16.45 10.0 16.45 9.85 16.4 9.05 16.35" fill="#19c6fe" fill-rule="evenodd" stroke="none"/>
      <path d="M5.7 15.9 L5.9 15.45 5.75 15.3 5.8 15.25 5.95 15.1 6.0 15.15 6.05 15.15 6.2 15.25 6.55 15.45 8.15 16.25 8.15 16.3 8.25 16.3 8.65 16.3 8.85 16.35 9.05 16.35 9.15 16.8 9.05 16.75 8.6 16.65 8.1 16.55 7.95 16.5 5.8 15.95 5.7 15.9 M12.0 30.55 L11.7 30.9 11.6 30.85 11.85 30.15 12.0 30.55" fill="#f4ffff" fill-rule="evenodd" stroke="none"/>
      <path d="M9.15 16.8 L9.05 16.35 9.85 16.4 10.0 16.45 10.2 16.45 10.6 16.5 12.35 16.85 12.45 16.85 12.5 17.3 12.55 17.45 12.55 17.55 12.55 17.6 12.45 17.6 12.35 17.6 12.2 17.55 12.15 17.55 9.15 16.8" fill="#64d4f9" fill-rule="evenodd" stroke="none"/>
      <path d="M9.15 16.8 L12.15 17.55 12.2 17.55 12.35 17.6 12.45 17.6 12.55 17.6 12.55 17.55 12.55 17.45 12.75 17.4 12.65 18.65 12.35 21.65 12.3 21.65 12.25 21.8 12.2 21.85 12.1 21.9 11.85 21.95 11.25 22.15 11.1 22.2 10.85 22.3 10.5 22.4 9.2 17.25 9.15 16.8" fill="#17c6fb" fill-rule="evenodd" stroke="none"/>
      <path d="M11.05 30.5 L11.0 30.45 Q10.15 29.8 9.15 28.25 8.0 26.55 7.45 25.0 L7.15 24.2 7.15 24.1 7.1 23.95 8.9 23.55 9.5 23.4 9.95 23.3 10.95 27.05 11.8 30.05 11.85 30.15 11.05 30.5" fill="#2de7fc" fill-rule="evenodd" stroke="none"/>
      <path d="M8.9 23.55 L10.35 23.05 10.7 23.0 12.2 22.75 12.2 22.8 11.15 23.0 12.75 26.05 13.75 27.85 13.9 28.05 13.95 28.1 13.9 28.2 13.75 28.35 13.7 28.4 13.2 29.05 13.05 29.2 12.75 28.55 10.75 23.15 10.7 23.1 9.95 23.3 9.5 23.4 8.9 23.55" fill="#18b7f9" fill-rule="evenodd" stroke="none"/>
      <path d="M9.95 23.3 L10.7 23.1 10.75 23.15 12.75 28.55 13.05 29.2 12.75 29.6 12.75 29.65 12.0 30.55 11.85 30.15 11.8 30.05 10.95 27.05 9.95 23.3" fill="#21d8ff" fill-rule="evenodd" stroke="none"/>
      <path d="M10.05 30.9 L10.05 30.85 10.25 30.75 11.05 30.5 11.85 30.15 11.6 30.85 11.55 31.2 11.45 31.4 12.45 32.2 12.6 32.3 14.25 33.4 16.45 34.35 16.85 34.45 17.4 34.7 17.5 34.55 18.15 35.05 18.2 35.05 18.25 35.1 18.5 35.25 19.0 35.7 18.9 35.8 18.9 35.9 18.6 35.85 17.4 35.65 15.75 35.35 Q14.1 34.3 12.8 33.3 L9.95 31.05 10.05 30.9 M10.7 23.0 L10.4 22.65 10.35 22.6 11.1 22.2 11.25 22.15 11.85 21.95 12.1 21.9 12.2 21.85 12.25 21.8 12.3 21.65 12.35 21.65 12.55 21.55 12.6 21.65 12.55 22.2 12.55 22.25 12.5 22.7 12.3 22.75 12.2 22.75 10.7 23.0" fill="#fefffa" fill-rule="evenodd" stroke="none"/>
      <path d="M17.55 18.6 L18.25 20.05 18.3 20.15 18.6 20.85 18.6 20.9 Q18.7 21.7 19.55 22.9 L19.65 23.0 19.6 23.05 19.55 23.1 19.5 23.1 19.3 23.25 18.95 22.65 18.35 21.6 18.0 20.25 17.65 18.85 17.5 18.9 17.5 18.5 17.55 18.6" fill="#057bf7" fill-rule="evenodd" stroke="none"/>
      <path d="M18.3 20.15 L19.55 21.8 19.6 21.85 19.9 22.35 19.9 22.4 19.85 22.5 19.75 22.65 19.55 22.9 Q18.7 21.7 18.6 20.9 L18.6 20.85 18.3 20.15" fill="#0fb3fa" fill-rule="evenodd" stroke="none"/>
      <path d="M16.65 22.95 L16.35 22.1 16.4 21.2 16.45 21.15 16.0 16.5 15.85 14.75 15.8 13.95 15.75 13.1 15.8 12.8 16.0 12.85 16.35 12.95 16.35 13.0 16.8 16.65 17.2 20.3 16.95 21.45 16.8 22.25 16.65 22.95" fill="#058ef6" fill-rule="evenodd" stroke="none"/>
      <path d="M15.45 24.2 L15.25 24.35 14.8 24.6 14.55 24.75 14.6 21.0 14.65 18.2 14.9 18.5 15.2 19.0 15.2 19.1 15.25 19.1 15.3 19.15 15.2 19.25 15.2 19.65 15.2 20.7 15.2 20.9 15.2 21.55 15.2 21.85 15.3 23.1 15.3 23.3 15.4 23.95 15.45 24.2" fill="#0bb4f7" fill-rule="evenodd" stroke="none"/>
      <path d="M15.5 19.7 L15.55 19.75 15.75 22.05 15.95 23.9 15.95 23.95 15.65 24.2 15.5 24.35 15.45 24.35 15.45 24.2 15.4 23.95 15.3 23.3 15.3 23.1 15.2 21.85 15.2 21.55 15.2 20.9 15.2 20.7 15.2 19.65 15.2 19.25 15.35 19.45 15.4 19.55 15.5 19.7" fill="#62d4ff" fill-rule="evenodd" stroke="none"/>
      <path d="M12.6 21.65 L12.75 22.2 12.6 22.2 12.6 22.7 12.9 22.65 12.95 22.65 12.95 22.6 13.05 22.6 13.05 22.15 13.05 21.55 13.15 21.5 13.95 21.25 14.6 21.0 14.55 24.75 14.55 25.75 15.15 26.5 15.25 26.7 14.55 26.2 14.35 26.75 14.9 27.3 15.3 27.65 15.55 27.45 15.65 27.3 15.75 27.4 15.8 27.4 15.8 27.45 17.15 28.5 18.2 28.4 18.4 28.3 18.4 28.2 19.1 28.5 20.4 29.2 20.65 29.35 20.85 29.45 20.9 29.45 21.05 29.55 22.35 29.9 22.5 29.9 22.7 30.0 25.05 30.3 26.05 30.35 26.85 30.25 26.95 30.2 26.15 30.7 26.1 30.75 25.95 30.8 25.8 30.8 25.2 30.9 24.1 31.15 24.05 31.15 24.05 31.2 24.0 31.2 23.15 31.25 23.05 31.25 22.7 31.25 22.55 31.2 22.3 31.2 22.25 31.2 21.15 31.0 20.6 30.85 20.35 30.8 20.2 30.75 17.55 29.85 17.4 29.75 17.25 29.7 15.85 29.1 15.6 28.95 15.4 28.85 15.2 28.75 15.15 28.85 14.7 28.2 14.65 28.2 14.45 28.35 13.95 28.0 14.2 27.2 13.35 25.25 12.25 22.95 12.3 22.75 12.5 22.7 12.55 22.25 12.55 22.2 12.6 21.65" fill="#0059d8" fill-rule="evenodd" stroke="none"/>
      <path d="M13.95 28.1 L13.9 28.05 13.75 27.85 12.75 26.05 11.15 23.0 12.2 22.8 12.2 22.75 12.3 22.75 12.25 22.95 13.35 25.25 14.2 27.2 13.95 28.0 13.95 28.1" fill="#13b1fa" fill-rule="evenodd" stroke="none"/>
      <path d="M15.25 24.35 L15.2 25.55 15.55 25.8 15.45 25.85 15.4 25.85 15.55 26.2 15.6 26.9 15.45 26.85 15.25 26.7 15.15 26.5 14.55 25.75 14.55 24.75 14.8 24.6 15.25 24.35" fill="#09b3ff" fill-rule="evenodd" stroke="none"/>
      <path d="M17.55 19.05 L17.5 18.9 17.65 18.85 18.0 20.25 18.35 21.6 17.65 20.0 17.65 19.95 17.55 19.05" fill="#6dfaff" fill-rule="evenodd" stroke="none"/>
      <path d="M19.55 23.55 L20.1 24.45 21.1 24.9 21.05 24.95 20.7 25.25 20.1 25.75 19.0 24.95 17.65 23.95 17.4 23.0 16.95 21.45 17.2 20.3 17.35 19.1 17.55 19.05 17.65 19.95 17.65 20.0 18.35 21.6 18.95 22.65 19.3 23.25 19.55 23.55" fill="#0169f0" fill-rule="evenodd" stroke="none"/>
      <path d="M18.1 25.85 L17.8 25.75 17.65 25.35 17.6 25.35 17.55 25.25 17.5 25.05 17.1 24.2 16.75 23.35 16.6 23.0 16.65 22.95 16.8 22.25 16.95 21.45 17.4 23.0 17.65 23.95 19.0 24.95 20.1 25.75 19.75 26.0 19.7 26.25 18.1 25.85" fill="#0179f1" fill-rule="evenodd" stroke="none"/>
      <path d="M19.65 26.45 L18.2 25.95 18.1 25.85 19.7 26.25 19.65 26.45 M17.5 25.05 L16.95 24.45 16.4 23.7 16.45 23.5 16.6 23.0 16.75 23.35 17.1 24.2 17.5 25.05" fill="#00b3f9" fill-rule="evenodd" stroke="none"/>
      <path d="M20.35 22.8 L20.2 22.95 20.15 22.95 19.85 23.3 19.65 23.0 19.95 22.7 20.1 22.6 20.35 22.8" fill="#218cde" fill-rule="evenodd" stroke="none"/>
      <path d="M19.85 23.3 L19.95 23.45 19.9 23.55 19.9 23.45 19.55 23.55 19.3 23.25 19.5 23.1 19.55 23.1 19.6 23.05 19.65 23.0 19.85 23.3" fill="#a1f5f6" fill-rule="evenodd" stroke="none"/>
      <path d="M20.6 24.15 L21.45 24.65 21.1 24.9 20.1 24.45 19.55 23.55 19.9 23.45 19.9 23.55 19.95 23.45 20.3 23.9 20.6 24.15" fill="#58d0ff" fill-rule="evenodd" stroke="none"/>
      <path d="M25.4 28.45 L24.4 28.15 24.3 28.2 24.25 28.05 19.65 26.45 19.7 26.25 24.9 27.6 25.0 27.75 25.0 27.8 25.15 28.0 25.4 28.45" fill="#6ae5ff" fill-rule="evenodd" stroke="none"/>
      <path d="M19.2 27.15 L20.9 28.25 22.4 28.85 22.85 28.95 22.75 29.0 22.45 29.1 22.7 29.95 22.7 30.0 22.5 29.9 22.35 29.9 21.05 29.55 20.9 29.45 20.85 29.45 20.65 29.35 20.4 29.2 19.1 28.5 18.4 28.2 17.6 27.85 16.85 27.5 16.15 27.1 16.1 27.1 15.95 26.95 16.2 26.95 19.15 27.15 19.2 27.15" fill="#0c81e8" fill-rule="evenodd" stroke="none"/>
      <path d="M18.4 28.2 L18.4 28.3 18.2 28.4 17.15 28.5 15.8 27.45 15.8 27.4 15.75 27.4 15.65 27.3 15.55 27.45 15.3 27.65 14.9 27.3 14.35 26.75 14.55 26.2 15.25 26.7 15.45 26.85 15.6 26.9 15.6 26.95 15.9 27.05 15.95 26.95 16.1 27.1 16.15 27.1 16.85 27.5 17.6 27.85 18.4 28.2" fill="#0170dc" fill-rule="evenodd" stroke="none"/>
      <path d="M15.2 28.75 L15.4 28.85 15.6 28.95 15.85 29.1 17.25 29.7 17.4 29.75 17.55 29.85 20.2 30.75 20.2 30.8 20.15 30.8 19.1 30.95 17.75 30.3 17.6 30.25 17.35 30.1 17.3 30.1 15.8 29.35 15.75 29.35 15.75 29.3 15.2 28.75" fill="#046ccd" fill-rule="evenodd" stroke="none"/>
      <path d="M17.35 30.1 L17.25 30.2 17.3 30.1 17.35 30.1" fill="#3381a8" fill-rule="evenodd" stroke="none"/>
      <path d="M13.05 29.2 L13.2 29.05 13.7 28.4 13.75 28.35 13.9 28.2 13.95 28.1 13.95 28.0 14.45 28.35 14.65 28.2 14.7 28.2 15.15 28.85 15.2 28.75 15.75 29.3 15.75 29.35 15.8 29.35 15.85 29.45 16.25 29.8 16.65 30.25 17.25 30.8 17.3 30.85 17.3 30.9 17.35 31.45 17.3 31.8 17.3 31.9 16.95 31.75 15.0 30.0 14.9 29.95 14.25 29.3 14.15 29.25 14.15 29.2 13.8 28.85 13.15 29.35 12.75 29.6 13.05 29.2" fill="#0da8f8" fill-rule="evenodd" stroke="none"/>
      <path d="M17.3 30.85 L17.35 30.85 17.4 30.9 17.45 30.95 17.7 31.2 17.75 32.0 17.75 32.05 17.75 32.15 17.3 31.9 17.3 31.8 17.35 31.45 17.3 30.9 17.3 30.85" fill="#1fd1ef" fill-rule="evenodd" stroke="none"/>
      <path d="M17.3 30.85 L17.25 30.8 16.65 30.25 16.25 29.8 15.85 29.45 15.8 29.35 17.3 30.1 17.25 30.2 17.35 30.1 17.6 30.25 17.75 30.3 19.1 30.95 19.3 31.05 19.25 31.25 18.45 31.1 17.95 31.0 17.85 31.0 17.9 32.2 17.8 31.65 17.75 32.0 17.7 31.2 17.45 30.95 17.4 30.9 17.35 30.85 17.3 30.85" fill="#dbffff" fill-rule="evenodd" stroke="none"/>
      <path d="M20.35 30.8 L20.6 30.85 21.15 31.0 22.25 31.2 22.3 31.2 22.3 31.3 22.25 31.3 21.1 31.35 20.65 31.35 19.5 31.25 19.25 31.25 19.3 31.05 19.1 30.95 20.15 30.8 20.2 30.8 20.35 30.8" fill="#56faff" fill-rule="evenodd" stroke="none"/>
      <path d="M17.15 32.65 L14.25 31.4 13.2 29.45 13.15 29.35 13.8 28.85 14.15 29.2 14.15 29.25 14.25 29.3 14.9 29.95 15.0 30.0 16.95 31.75 17.3 31.9 17.15 32.65" fill="#1fd4ff" fill-rule="evenodd" stroke="none"/>
      <path d="M11.6 30.85 L11.7 30.9 12.0 30.55 12.75 29.65 12.75 29.6 13.15 29.35 13.2 29.45 14.25 31.4 17.15 32.65 17.65 32.85 17.7 32.85 17.65 32.95 17.6 33.35 17.5 34.2 17.2 34.15 17.05 34.1 16.9 34.05 16.65 33.95 16.45 34.35 14.25 33.4 12.6 32.3 12.45 32.2 11.45 31.4 11.55 31.2 11.6 30.85" fill="#27e0ff" fill-rule="evenodd" stroke="none"/>
      <path d="M18.45 31.1 L19.25 31.25 19.5 31.25 20.65 31.35 21.1 31.35 22.25 31.3 22.3 31.3 22.4 31.3 22.5 31.35 22.55 31.4 22.55 31.5 22.6 31.65 22.55 31.65 22.45 31.65 21.05 31.75 20.2 31.6 19.25 31.4 18.9 31.35 18.8 31.3 18.45 31.2 18.45 31.1" fill="#198fcd" fill-rule="evenodd" stroke="none"/>
      <path d="M17.9 32.2 L17.85 31.0 17.95 31.0 18.45 31.1 18.45 31.2 18.8 31.3 18.9 31.35 19.25 31.4 20.2 31.6 18.7 32.4 18.05 32.75 17.95 32.8 17.9 32.2" fill="#1dc0f9" fill-rule="evenodd" stroke="none"/>
      <path d="M17.75 32.0 L17.8 31.65 17.9 32.2 17.95 32.8 18.0 32.95 18.1 34.05 18.15 35.0 17.5 34.45 17.6 33.35 17.65 32.95 17.7 32.85 17.75 32.35 17.75 32.2 17.75 32.15 17.75 32.05 17.75 32.0" fill="#36f0fc" fill-rule="evenodd" stroke="none"/>
      <path d="M17.7 32.85 L17.65 32.85 17.15 32.65 17.3 31.9 17.75 32.15 17.75 32.2 17.75 32.35 17.7 32.85" fill="#1cdafa" fill-rule="evenodd" stroke="none"/>
      <path d="M17.95 32.8 L18.05 32.75 18.7 32.4 20.2 31.6 21.05 31.75 22.45 31.65 22.5 31.8 22.55 31.8 23.25 33.2 23.25 33.25 22.0 33.3 19.6 33.1 18.05 32.95 18.0 32.95 17.95 32.8" fill="#19cefb" fill-rule="evenodd" stroke="none"/>
      <path d="M17.2 34.15 L17.5 34.2 17.6 33.35 17.5 34.45 18.15 35.0 18.1 34.05 18.0 32.95 18.05 32.95 19.6 33.1 22.0 33.3 23.25 33.25 23.3 33.25 24.1 35.05 22.4 35.35 22.45 35.5 22.4 35.5 20.85 35.75 20.7 35.8 20.6 35.8 20.45 35.8 19.55 35.6 18.6 35.25 18.45 35.2 18.25 35.1 18.2 35.05 18.15 35.05 17.5 34.55 17.45 34.5 17.25 34.25 17.2 34.15" fill="#39f8f3" fill-rule="evenodd" stroke="none"/>
      <path d="M16.45 34.35 L16.65 33.95 16.9 34.05 17.05 34.1 17.25 34.25 17.45 34.5 17.5 34.55 17.4 34.7 16.85 34.45 16.45 34.35" fill="#31daed" fill-rule="evenodd" stroke="none"/>
      <path d="M36.75 28.7 L36.7 28.7 36.45 28.45 36.4 28.4 36.05 28.05 35.85 27.8 35.6 27.55 36.25 27.0 38.0 25.35 38.95 24.3 38.25 25.8 38.2 25.8 38.2 25.85 37.8 26.65 37.3 27.6 36.75 28.7" fill="#1ecff8" fill-rule="evenodd" stroke="none"/>
      <path d="M34.6 28.4 L34.7 28.3 35.2 27.9 35.3 28.0 35.35 28.05 35.6 28.2 36.15 28.65 36.25 28.7 36.5 28.95 36.55 29.0 37.3 29.85 37.5 30.0 37.4 30.0 35.55 29.8 33.5 29.65 33.1 29.65 32.9 29.7 31.95 29.95 31.35 30.25 31.25 30.3 31.2 30.3 30.85 30.25 30.55 30.25 30.55 30.2 30.65 30.15 31.45 29.75 31.7 29.6 31.75 29.75 32.1 29.45 33.05 28.95 34.6 28.4" fill="#26ddff" fill-rule="evenodd" stroke="none"/>
      <path d="M37.5 30.0 L37.75 30.5 37.65 30.6 35.65 31.8 35.2 32.05 33.5 31.15 31.45 30.35 31.25 30.3 31.35 30.25 31.95 29.95 32.9 29.7 33.1 29.65 33.5 29.65 35.55 29.8 37.4 30.0 37.5 30.0" fill="#20deff" fill-rule="evenodd" stroke="none"/>
      <path d="M39.2 30.1 L38.95 30.7 38.95 31.0 Q36.9 32.1 34.8 33.15 L32.05 33.5 32.0 33.5 31.9 33.45 31.45 33.5 29.95 33.6 30.85 33.45 30.85 33.4 30.8 33.4 30.85 33.3 30.0 33.2 30.2 33.0 30.5 32.7 30.55 32.65 31.15 32.7 31.9 32.8 32.9 32.75 33.15 32.7 33.45 32.65 33.5 32.65 34.4 32.4 35.2 32.05 35.65 31.8 37.65 30.6 37.75 30.5 38.05 30.3 38.35 30.1 38.3 29.7 38.65 29.85 39.2 30.1" fill="#fffaff" fill-rule="evenodd" stroke="none"/>
      <path d="M31.25 30.3 L31.45 30.35 33.5 31.15 35.2 32.05 34.4 32.4 33.5 32.65 33.45 32.65 33.15 32.7 32.9 32.75 31.9 32.8 31.15 32.7 30.55 32.65 30.55 32.6 30.55 32.5 30.7 32.3 30.35 31.6 30.0 31.0 30.0 30.95 29.85 30.65 29.8 30.55 29.9 30.5 29.95 30.5 30.55 30.25 30.85 30.25 31.2 30.3 31.25 30.3" fill="#21c7f7" fill-rule="evenodd" stroke="none"/>
      <path d="M33.1 28.7 L32.9 28.8 32.9 28.85 32.55 29.1 31.7 29.4 29.4 30.1 29.55 30.0 31.0 29.45 31.55 29.2 34.6 27.55 Q33.7 28.25 33.1 28.7 M30.55 30.25 L29.95 30.5 30.55 30.2 30.55 30.25 M29.8 30.55 L29.85 30.65 29.7 30.7 29.65 30.6 29.65 30.55 29.8 30.55" fill="#04a0ea" fill-rule="evenodd" stroke="none"/>
      <path d="M29.85 30.65 L30.0 30.95 30.0 31.0 30.35 31.6 30.7 32.3 30.55 32.5 30.55 32.6 30.5 32.5 29.85 31.4 29.7 31.1 29.7 31.0 29.5 31.0 29.35 30.85 Q29.55 30.75 29.7 30.7 L29.85 30.65" fill="#46cff3" fill-rule="evenodd" stroke="none"/>
      <path d="M30.55 32.6 L30.55 32.65 30.5 32.7 30.2 33.0 30.0 33.2 29.8 33.2 29.3 33.2 28.6 33.35 28.15 33.45 28.0 33.45 27.25 33.7 27.1 33.75 27.0 33.75 26.9 33.7 26.95 33.55 27.0 33.25 27.0 33.2 27.05 33.15 27.35 32.1 27.4 31.95 27.45 31.8 27.6 31.2 27.45 31.25 27.45 31.1 27.6 31.1 28.1 31.05 28.75 31.05 29.25 31.0 29.5 31.0 29.7 31.0 29.7 31.1 29.85 31.4 30.5 32.5 30.55 32.6" fill="#2fe4ed" fill-rule="evenodd" stroke="none"/>
      <path d="M29.95 33.6 L27.8 34.1 26.95 34.15 26.8 33.95 26.85 33.85 26.85 33.8 26.9 33.7 27.0 33.75 27.1 33.75 27.25 33.7 28.0 33.45 28.15 33.45 28.6 33.35 29.3 33.2 29.8 33.2 30.0 33.2 30.85 33.3 30.8 33.4 30.85 33.4 30.85 33.45 29.95 33.6" fill="#fff6ff" fill-rule="evenodd" stroke="none"/>
      <path d="M26.85 25.9 L27.55 25.85 27.6 25.85 28.5 25.75 28.9 25.75 28.75 25.9 27.35 25.95 24.05 26.05 22.95 25.65 23.0 25.5 23.15 25.55 23.2 25.55 26.35 25.9 26.6 25.9 26.85 25.9" fill="#0a83f6" fill-rule="evenodd" stroke="none"/>
      <path d="M22.1 25.1 L22.15 25.0 22.4 25.0 22.45 25.2 23.2 25.35 23.85 25.4 26.05 25.2 26.35 25.9 23.2 25.55 23.15 25.55 23.0 25.5 22.95 25.65 22.5 25.5 22.45 25.35 22.4 25.35 22.3 25.35 22.35 25.15 22.1 25.1" fill="#45d3f0" fill-rule="evenodd" stroke="none"/>
      <path d="M24.5 34.55 L23.95 33.5 23.8 33.25 23.7 33.05 23.65 33.0 23.1 32.0 23.0 31.85 23.25 31.85 24.65 31.7 25.55 32.35 25.65 32.4 25.8 32.5 26.25 32.75 26.15 32.8 25.7 33.2 24.9 34.0 24.5 34.55" fill="#26d8f2" fill-rule="evenodd" stroke="none"/>
      <path d="M22.7 31.25 L23.05 31.25 23.15 31.25 24.0 31.2 24.05 31.2 24.05 31.15 24.1 31.15 25.2 30.9 25.8 30.8 25.8 31.1 26.05 31.1 26.05 31.2 23.0 31.7 22.95 31.75 22.7 31.25" fill="#60f7ff" fill-rule="evenodd" stroke="none"/>
      <path d="M22.3 31.2 L22.55 31.2 22.7 31.25 22.95 31.75 23.0 31.7 23.0 31.85 23.1 32.0 23.65 33.0 23.7 33.05 23.8 33.25 23.95 33.5 24.5 34.55 24.55 34.7 24.6 34.7 24.7 34.6 24.6 34.75 24.4 35.0 24.35 35.05 24.35 35.15 24.2 35.2 24.1 35.2 24.1 35.25 24.05 35.3 24.05 35.2 22.45 35.5 22.4 35.35 24.1 35.05 23.3 33.25 23.25 33.2 22.55 31.8 22.5 31.8 22.45 31.65 22.55 31.65 22.6 31.65 22.55 31.5 22.55 31.4 22.5 31.35 22.4 31.3 22.3 31.3 22.3 31.2" fill="#fefaff" fill-rule="evenodd" stroke="none"/>
    </g>
  </defs>
</svg>
