<?xml version="1.0" encoding="UTF-8" standalone="no"?>
<svg xmlns:ffdec="https://www.free-decompiler.com/flash" xmlns:xlink="http://www.w3.org/1999/xlink" ffdec:objectType="frame" height="30.1px" width="30.0px" xmlns="http://www.w3.org/2000/svg">
  <g transform="matrix(1.0, 0.0, 0.0, 1.0, 0.0, 0.0)">
    <use ffdec:characterId="1" height="30.0" transform="matrix(1.0, 0.0, 0.0, 1.0, 0.0, 0.0)" width="30.0" xlink:href="#shape0"/>
    <use ffdec:characterId="5" height="30.0" transform="matrix(1.0, 0.0, 0.0, 1.0, 0.0, 0.1)" width="30.0" xlink:href="#sprite0"/>
  </g>
  <defs>
    <g id="shape0" transform="matrix(1.0, 0.0, 0.0, 1.0, 0.0, 0.0)">
      <path d="M0.0 0.0 L30.0 0.0 30.0 30.0 0.0 30.0 0.0 0.0" fill="#33cc66" fill-opacity="0.0" fill-rule="evenodd" stroke="none"/>
    </g>
    <g id="sprite0" transform="matrix(1.0, 0.0, 0.0, 1.0, 0.0, 0.0)">
      <use ffdec:characterId="2" height="30.0" transform="matrix(1.0, 0.0, 0.0, 1.0, 0.0, 0.0)" width="30.0" xlink:href="#shape1"/>
      <filter id="filter0">
        <feColorMatrix in="SourceGraphic" result="filterResult0" type="matrix" values="0 0 0 0 1.0,0 0 0 0 1.0,0 0 0 0 1.0,0 0 0 1 0"/>
        <feConvolveMatrix divisor="25.0" in="filterResult0" kernelMatrix="1 1 1 1 1 1 1 1 1 1 1 1 1 1 1 1 1 1 1 1 1 1 1 1 1" order="5 5" result="filterResult1"/>
        <feComposite in="SourceGraphic" in2="filterResult1" operator="over" result="filterResult2"/>
      </filter>
      <use ffdec:characterId="4" filter="url(#filter0)" height="39.95" transform="matrix(0.5497, 0.0, 0.0, 0.5497, 4.639, 4.4126)" width="41.05" xlink:href="#sprite1"/>
    </g>
    <g id="shape1" transform="matrix(1.0, 0.0, 0.0, 1.0, 0.0, 0.0)">
      <path d="M27.95 0.15 Q30.0 0.7 30.0 3.3 L30.0 26.7 29.8 28.15 Q29.15 30.0 26.7 30.0 L3.3 30.0 2.4 29.95 Q0.7 29.65 0.2 28.15 L0.0 26.7 0.0 3.3 Q0.0 0.7 2.05 0.15 L2.4 0.1 3.3 0.0 26.7 0.0 27.95 0.15" fill="#cccccc" fill-rule="evenodd" stroke="none"/>
    </g>
    <g id="sprite1" transform="matrix(1.0, 0.0, 0.0, 1.0, -3.8, 0.25)">
      <use ffdec:characterId="3" height="39.95" transform="matrix(1.0, 0.0, 0.0, 1.0, 3.8, -0.25)" width="41.05" xlink:href="#shape2"/>
    </g>
    <g id="shape2" transform="matrix(1.0, 0.0, 0.0, 1.0, -3.8, 0.25)">
      <path d="M33.25 13.35 L33.35 13.65 33.25 13.65 33.2 13.4 33.25 13.35" fill="#b0ffff" fill-rule="evenodd" stroke="none"/>
      <path d="M35.35 34.3 L36.65 34.05 36.7 34.05 36.85 34.0 36.85 34.4 35.45 34.5 35.1 34.45 34.95 34.45 34.95 34.3 35.1 34.3 35.35 34.3 M22.0 32.9 L21.75 32.05 21.85 32.0 21.85 31.9 21.95 31.95 22.15 32.65 22.45 33.5 22.25 33.55 22.25 33.5 22.0 32.9 M22.5 34.0 L22.55 34.0 22.65 34.0 23.35 35.15 23.75 35.65 23.85 35.8 23.9 35.8 24.05 36.0 23.8 36.15 23.75 36.15 23.7 36.05 23.5 35.8 23.2 35.3 23.0 35.0 22.8 34.65 22.55 34.1 22.5 34.0" fill="#86ffff" fill-rule="evenodd" stroke="none"/>
      <path d="M35.45 10.65 L35.4 10.6 35.45 10.55 35.4 10.3 35.9 11.05 35.8 10.95 35.45 10.65 M35.35 10.0 L35.35 9.95 35.65 10.15 35.35 10.0 M36.15 10.65 L35.95 10.4 36.1 10.55 36.15 10.65 M28.4 35.1 L27.4 34.5 27.4 34.45 28.1 34.75 28.4 35.1" fill="#f2ffff" fill-rule="evenodd" stroke="none"/>
      <path d="M42.25 15.1 L41.9 17.3 40.45 19.5 40.65 19.7 40.2 19.85 39.2 20.2 38.7 19.95 38.75 19.95 Q38.95 19.8 39.1 19.7 L39.4 19.5 39.4 19.45 39.95 18.9 40.2 19.05 40.3 18.85 40.35 18.85 40.35 18.8 40.25 18.85 39.95 18.8 39.6 18.8 38.95 18.7 39.45 18.35 39.7 18.4 39.95 18.25 40.05 18.3 40.1 18.3 40.35 18.4 40.5 18.4 40.4 18.7 40.55 18.35 41.65 15.6 41.95 15.05 42.0 15.0 42.1 15.05 42.25 15.1 M31.75 22.2 L31.8 22.15 32.1 21.95 32.2 21.9 32.25 21.85 32.6 21.65 32.7 21.55 32.95 21.4 32.7 21.65 32.6 21.7 32.3 22.05 32.05 22.3 31.95 22.35 31.5 22.85 31.25 23.05 31.15 23.2 30.9 23.3 30.75 23.2 30.5 22.9 30.8 22.75 31.0 22.65 31.75 22.2" fill="#bbffff" fill-rule="evenodd" stroke="none"/>
      <path d="M25.4 1.6 Q26.0 2.0 26.7 2.2 L26.95 2.25 27.0 2.3 27.0 2.35 26.45 2.6 26.3 2.65 26.2 2.6 25.8 2.3 25.05 1.7 25.4 1.6" fill="#2ae8ff" fill-rule="evenodd" stroke="none"/>
      <path d="M32.45 39.35 L32.45 39.4 32.25 39.45 32.2 39.45 30.55 39.7 30.1 39.7 29.25 39.05 28.95 39.0 Q28.5 38.95 28.05 39.35 L24.65 38.45 Q25.2 37.8 24.5 37.3 L23.25 36.8 22.8 36.3 22.65 36.15 Q19.5 32.85 14.0 31.65 16.85 31.6 17.2 27.8 L20.25 27.6 20.55 27.5 20.45 27.85 20.5 28.05 20.4 28.1 20.55 28.25 20.6 28.4 20.65 28.5 20.2 28.35 20.2 28.55 21.1 29.1 20.8 29.0 20.65 28.9 20.0 28.6 19.95 28.6 18.85 28.85 18.9 28.6 18.65 28.45 Q17.8 29.05 17.45 29.65 L17.05 31.1 Q17.05 31.55 17.55 31.55 L18.15 31.45 18.8 31.65 19.8 32.15 Q20.95 32.85 21.65 33.7 L21.8 33.9 21.85 34.05 21.85 34.1 22.5 35.1 22.6 35.25 22.75 35.2 23.0 35.0 23.2 35.3 22.95 35.5 22.85 35.6 23.1 35.9 23.35 36.15 23.35 36.2 23.45 36.3 23.5 36.3 23.65 36.35 23.75 36.35 23.85 36.45 24.65 37.05 24.85 37.15 25.05 37.35 25.8 37.65 26.05 37.75 26.1 37.8 26.15 37.8 26.7 38.1 27.15 38.25 28.95 38.7 28.95 38.85 29.3 38.9 29.65 38.85 29.95 39.1 30.1 39.2 30.55 39.45 30.65 39.2 32.4 39.05 32.45 39.05 32.45 39.35 M21.0 27.35 L21.1 27.25 21.65 26.7 21.7 26.55 21.75 26.3 21.8 26.3 21.9 26.35 22.0 26.35 22.0 26.4 21.95 26.65 21.9 26.9 21.85 27.05 21.9 27.15 21.85 27.15 21.8 27.2 21.55 27.4 21.55 27.15 21.0 27.35" fill="#f3fdfc" fill-rule="evenodd" stroke="none"/>
      <path d="M25.05 37.35 L24.85 37.15 24.65 37.05 23.85 36.45 23.75 36.35 23.65 36.35 23.5 36.3 23.45 36.3 23.75 36.15 23.8 36.15 24.05 36.0 24.2 36.15 24.4 36.35 24.7 36.7 24.9 36.9 25.05 37.35" fill="#0dcfd9" fill-rule="evenodd" stroke="none"/>
      <path d="M30.95 37.65 L30.9 37.65 30.75 37.7 30.55 37.75 30.5 37.75 30.2 37.8 29.8 37.85 28.6 37.65 28.3 37.6 28.45 37.35 29.65 37.6 30.2 37.8 30.95 37.5 30.95 37.65 M27.4 34.45 L26.55 34.05 26.15 33.9 25.65 33.65 25.85 33.6 26.65 33.9 27.65 34.4 27.8 34.5 28.1 34.75 27.4 34.45 M23.9 35.8 L25.45 36.5 25.8 36.6 27.45 37.0 27.6 36.95 27.85 37.0 28.1 36.75 27.95 36.65 28.3 36.35 28.4 36.3 28.95 36.45 28.95 36.5 28.65 37.05 28.7 37.15 28.0 37.1 27.6 37.35 27.55 37.35 27.45 37.3 27.35 37.25 26.7 37.35 26.65 37.35 26.55 37.35 26.5 37.35 26.15 37.35 26.05 37.35 26.0 37.35 25.7 37.3 25.7 37.25 25.6 37.25 25.5 37.25 25.45 37.35 25.0 37.0 24.9 36.9 24.7 36.7 24.4 36.35 24.2 36.15 24.05 36.0 23.9 35.8 M26.1 33.55 L26.45 33.7 26.05 33.55 26.1 33.55" fill="#17dff8" fill-rule="evenodd" stroke="none"/>
      <path d="M25.05 37.35 L24.9 36.9 25.0 37.0 25.45 37.35 25.5 37.25 25.6 37.25 25.7 37.25 25.7 37.3 26.0 37.35 26.05 37.35 26.05 37.6 26.05 37.7 26.05 37.75 25.8 37.65 25.05 37.35" fill="#1dd1e0" fill-rule="evenodd" stroke="none"/>
      <path d="M23.1 35.9 L23.45 35.8 23.5 35.8 23.7 36.05 23.75 36.15 23.45 36.3 23.35 36.2 23.35 36.15 23.1 35.9" fill="#42d8f3" fill-rule="evenodd" stroke="none"/>
      <path d="M23.65 32.7 L23.7 32.85 24.25 33.7 25.35 34.45 25.8 34.5 25.95 34.85 26.2 35.45 26.35 35.9 26.9 36.15 27.35 36.35 27.95 36.65 28.1 36.75 27.85 37.0 27.6 36.95 26.5 36.75 25.8 36.6 25.45 36.5 23.9 35.8 23.85 35.8 23.75 35.65 23.35 35.15 22.65 34.0 22.55 34.0 22.5 34.0 22.5 33.8 22.45 33.5 22.3 32.5 22.3 32.1 23.65 32.7" fill="#0cadf5" fill-rule="evenodd" stroke="none"/>
      <path d="M21.65 33.7 L22.15 33.55 22.0 32.9 22.25 33.5 22.25 33.55 22.45 33.5 22.5 33.8 22.5 34.0 22.55 34.1 22.8 34.65 23.0 35.0 22.75 35.2 22.6 35.25 22.5 35.1 21.85 34.1 21.85 34.05 21.8 33.9 21.65 33.7 M23.1 35.9 L22.85 35.6 22.95 35.5 23.2 35.3 23.5 35.8 23.45 35.8 23.1 35.9" fill="#0bd7f2" fill-rule="evenodd" stroke="none"/>
      <path d="M18.15 31.45 L18.4 31.3 18.95 31.25 20.4 31.4 21.45 31.8 21.6 31.8 21.85 31.9 21.85 32.0 21.75 32.05 22.0 32.9 22.15 33.55 21.65 33.7 Q20.95 32.85 19.8 32.15 L18.8 31.65 18.15 31.45" fill="#1accfa" fill-rule="evenodd" stroke="none"/>
      <path d="M22.3 32.1 L22.3 32.5 22.45 33.5 22.15 32.65 21.95 31.95 22.05 32.0 22.3 32.1" fill="#018bf8" fill-rule="evenodd" stroke="none"/>
      <path d="M25.9 19.1 L26.25 19.0 27.35 18.8 27.75 18.75 28.05 18.7 28.05 18.6 28.65 18.7 28.85 18.75 29.0 18.75 29.15 18.7 29.4 18.6 29.8 18.55 32.2 17.05 32.4 16.75 32.4 16.7 32.55 16.35 32.65 16.1 32.7 16.05 32.85 16.45 32.9 16.65 32.8 16.8 32.7 16.95 32.45 17.2 32.4 17.25 31.9 17.75 31.85 17.8 31.4 17.95 30.7 18.3 30.35 18.45 30.1 18.6 29.85 18.8 29.65 18.85 29.2 18.9 28.5 18.95 28.4 19.0 28.05 19.05 27.95 19.1 27.85 19.1 27.65 19.1 25.9 19.15 25.9 19.1 M28.85 19.5 L28.55 19.6 28.55 19.5 28.85 19.5 M20.4 31.4 L18.95 31.25 18.4 31.3 18.65 30.9 20.1 31.25 20.4 31.4 M23.5 31.15 L23.9 31.85 23.95 31.95 23.4 31.65 23.4 31.6 23.45 31.5 23.5 31.45 23.5 31.3 23.5 31.15 M23.4 30.5 L23.35 30.35 23.65 29.55 23.4 30.5 M25.65 33.65 L24.4 33.15 24.25 32.95 24.75 33.05 24.95 33.0 25.6 33.3 26.05 33.55 24.8 33.15 24.75 33.15 25.85 33.6 25.65 33.65" fill="#e9ffff" fill-rule="evenodd" stroke="none"/>
      <path d="M18.85 28.85 L19.95 28.6 20.0 28.6 20.65 28.9 20.8 29.0 21.1 29.1 21.6 29.4 21.6 29.55 21.55 30.2 21.55 30.65 21.45 30.75 19.35 30.1 18.75 30.05 18.85 28.85" fill="#23e2fc" fill-rule="evenodd" stroke="none"/>
      <path d="M21.55 30.65 L21.55 30.2 21.6 29.55 21.6 29.4 21.85 29.55 21.7 30.2 21.7 30.45 21.55 30.65" fill="#93fcff" fill-rule="evenodd" stroke="none"/>
      <path d="M22.1 28.65 L22.4 27.35 22.8 26.1 22.95 26.15 22.8 27.2 22.75 27.3 22.2 28.55 22.1 28.65 M21.95 28.75 L21.8 28.9 21.75 28.85 21.85 28.5 21.9 28.35 21.95 28.35 21.95 28.75" fill="#09a5fa" fill-rule="evenodd" stroke="none"/>
      <path d="M23.4 31.65 L23.35 31.65 23.4 31.6 23.4 31.65 M25.8 34.5 L25.35 34.45 24.25 33.7 23.7 32.85 23.65 32.7 24.25 32.95 24.4 33.15 25.65 33.65 26.15 33.9 26.55 34.05 27.4 34.45 27.4 34.5 28.4 35.1 28.85 35.9 28.1 35.4 Q26.75 34.7 25.8 34.5" fill="#15e7ff" fill-rule="evenodd" stroke="none"/>
      <path d="M23.2 5.4 L24.95 5.1 26.15 4.85 26.2 4.85 27.4 5.1 27.55 5.15 28.85 5.5 31.6 6.3 31.85 6.45 Q32.5 6.7 33.65 7.65 L35.35 9.2 35.25 9.2 35.3 9.25 35.35 9.25 35.45 9.3 35.6 9.1 35.65 9.1 35.65 9.05 36.25 9.65 36.5 9.95 36.55 10.0 36.5 10.2 36.4 10.45 36.9 11.4 37.3 12.0 37.25 12.05 38.45 14.25 38.45 14.1 38.6 13.9 38.65 13.9 38.1 16.5 38.05 16.5 Q38.05 14.9 37.25 12.75 36.75 11.35 36.15 10.65 L36.1 10.55 35.95 10.4 35.65 10.15 35.35 9.95 32.15 7.5 27.75 5.95 Q26.45 4.65 24.7 5.35 L21.25 6.85 23.0 6.35 24.95 6.0 24.65 6.1 24.55 6.05 24.5 6.1 20.45 7.35 19.2 7.7 19.15 7.75 19.1 7.75 18.8 7.85 18.7 8.15 18.65 8.15 18.6 8.25 18.5 8.35 18.1 8.85 17.6 9.35 17.65 9.55 17.75 9.9 17.75 9.95 17.55 10.55 17.6 11.25 17.6 11.3 17.2 14.75 17.1 16.05 17.05 16.65 17.0 17.3 17.05 17.5 17.0 17.55 16.95 17.3 16.9 16.6 16.85 16.65 16.85 16.45 16.8 16.15 16.8 16.0 16.8 15.0 16.9 12.4 16.75 12.4 16.75 12.35 16.8 12.35 16.8 12.3 16.95 10.65 17.15 9.25 17.15 9.2 17.1 9.2 17.25 8.75 17.5 8.55 17.6 8.5 17.7 8.45 17.85 8.35 17.9 8.3 18.2 8.15 18.2 8.1 18.75 7.7 18.55 7.5 18.55 7.55 17.9 7.5 18.3 7.4 20.15 7.0 20.05 6.8 21.55 6.0 22.85 5.55 23.3 5.45 23.2 5.4 M35.3 11.35 L35.0 11.25 34.75 11.0 34.2 10.45 33.5 9.85 33.15 9.6 33.05 9.55 33.0 9.5 32.5 9.1 31.9 8.6 30.85 7.8 30.8 7.8 29.5 7.55 28.0 7.25 26.95 6.35 25.6 7.1 24.35 7.6 23.4 7.95 22.95 8.0 22.95 8.15 22.9 8.15 22.8 8.15 22.55 8.2 21.75 8.45 21.7 8.45 21.35 8.2 20.85 7.85 20.5 7.7 20.5 7.45 25.1 6.45 25.3 6.45 25.85 6.35 26.25 6.35 27.5 6.15 32.2 7.8 35.4 10.6 35.45 10.65 35.55 11.35 35.45 11.4 35.3 11.35 M20.85 22.1 L20.4 22.15 20.35 22.1 20.3 22.1 19.95 21.9 19.9 21.9 19.6 21.65 18.8 20.9 17.5 19.55 17.45 19.25 17.45 19.15 17.4 18.9 17.35 18.8 17.45 18.9 18.75 20.2 19.2 20.65 19.25 20.65 20.3 21.65 20.75 22.0 20.85 22.1 M25.1 23.8 L25.2 23.9 25.15 24.0 24.95 23.85 25.1 23.8 M31.75 22.2 Q30.1 22.2 27.9 23.5 L26.25 24.55 26.15 24.55 25.95 24.5 26.6 24.1 28.6 23.05 28.55 23.0 28.7 22.9 29.4 22.55 31.15 21.65 32.1 21.15 33.2 20.45 33.55 20.2 33.55 20.25 31.8 22.15 31.75 22.2 M29.55 23.5 L29.35 23.5 Q30.2 23.05 30.8 22.75 L30.5 22.9 29.55 23.5 M36.6 12.9 L36.7 13.1 37.05 15.8 37.05 15.95 36.65 16.5 36.6 16.55 36.1 17.25 36.2 17.35 35.85 17.6 35.5 17.95 34.65 19.0 33.95 19.95 33.65 20.15 33.6 20.15 33.55 20.2 33.55 20.1 33.65 19.5 33.65 19.35 34.2 18.8 34.95 18.0 34.9 17.95 35.15 17.6 35.2 17.55 35.25 17.55 36.05 16.45 35.95 16.3 36.0 15.75 36.4 15.2 36.35 15.1 36.1 14.1 36.6 13.7 36.6 13.55 36.6 12.95 36.6 12.9 M35.35 18.6 L35.35 18.65 35.55 18.45 35.9 17.95 36.15 18.2 36.05 18.25 36.1 18.3 35.85 18.6 35.15 19.45 35.05 19.35 35.05 19.4 34.95 19.65 34.7 19.95 34.3 20.35 33.55 21.1 33.5 21.1 33.55 21.2 32.1 22.4 32.05 22.3 32.3 22.05 32.6 21.7 32.7 21.65 32.95 21.4 32.7 21.55 33.45 20.7 33.4 20.95 33.95 20.45 34.2 20.2 34.15 20.15 34.35 19.85 34.4 19.8 34.5 19.7 34.45 19.7 34.85 19.15 35.35 18.6 M16.55 8.15 L16.5 8.0 16.75 7.85 16.55 8.15 M16.55 17.65 L16.6 18.35 16.4 18.3 16.5 18.2 16.5 18.1 16.55 17.65 M26.7 25.35 L26.8 25.35 26.35 25.9 26.2 26.05 26.0 26.05 25.8 26.6 25.75 26.55 25.6 26.75 25.55 26.85 25.4 27.0 25.3 27.2 25.1 27.65 24.95 27.9 24.7 29.05 24.55 29.65 24.4 30.2 24.4 30.35 24.3 30.15 24.3 30.2 24.1 31.15 24.1 31.2 24.55 32.05 25.05 32.8 24.85 32.7 24.0 31.95 23.95 31.95 23.9 31.85 23.5 31.15 23.55 30.8 23.65 30.15 23.8 29.6 23.65 29.55 23.7 29.5 24.1 28.2 24.35 27.4 25.0 26.4 25.25 26.15 25.45 26.0 25.9 25.75 26.7 25.35 M25.85 25.55 L26.0 25.4 26.1 25.4 26.15 25.4 25.85 25.55" fill="#18ddff" fill-rule="evenodd" stroke="none"/>
      <path d="M25.05 32.8 L24.55 32.05 24.1 31.2 24.1 31.15 24.3 30.2 24.3 30.15 24.4 30.35 24.45 30.4 24.9 31.35 25.0 31.55 25.6 32.65 25.9 33.05 25.05 32.8 M26.05 33.55 L25.6 33.3 26.1 33.55 26.05 33.55" fill="#08c2fb" fill-rule="evenodd" stroke="none"/>
      <path d="M24.4 30.35 L24.4 30.2 24.55 29.65 24.7 29.05 24.95 27.9 25.1 27.65 25.3 27.2 25.4 27.0 25.55 26.85 25.6 26.75 25.75 26.55 25.8 26.6 26.0 26.05 26.2 26.05 26.8 26.1 27.75 26.0 27.8 26.05 27.45 26.35 27.25 26.55 26.75 27.1 26.6 27.25 26.35 28.0 26.1 28.8 25.55 30.4 25.7 30.55 25.65 30.45 25.65 30.3 25.7 30.25 25.8 30.45 25.7 30.5 26.1 31.15 26.4 31.65 26.35 31.1 26.35 30.95 26.45 30.25 26.7 29.65 26.95 29.25 28.2 28.15 28.35 28.05 28.45 28.05 28.5 28.25 28.0 28.65 28.4 29.85 28.45 29.95 Q28.05 30.75 28.0 31.35 L28.15 31.4 28.1 31.6 28.75 32.25 29.7 33.2 29.85 33.4 29.75 33.95 29.2 33.75 29.1 33.75 28.8 33.65 28.35 33.5 27.35 33.2 27.25 33.15 26.65 32.95 25.9 32.6 25.75 32.55 25.6 32.65 25.0 31.55 24.9 31.35 24.45 30.4 24.4 30.35" fill="#0f9af7" fill-rule="evenodd" stroke="none"/>
      <path d="M23.65 29.55 L23.8 29.6 23.65 30.15 23.55 30.8 23.5 31.15 23.5 31.3 23.4 30.9 23.4 30.8 23.4 30.5 23.65 29.55 M23.45 31.5 L23.5 31.3 23.5 31.45 23.45 31.5" fill="#fcfffb" fill-rule="evenodd" stroke="none"/>
      <path d="M21.75 28.85 L21.6 28.8 21.65 28.6 21.75 28.0 21.95 27.15 22.0 26.9 22.65 25.4 22.8 25.5 22.55 26.2 22.5 26.3 22.5 26.35 22.1 27.25 21.9 28.35 21.85 28.5 21.75 28.85" fill="#6cf6ff" fill-rule="evenodd" stroke="none"/>
      <path d="M21.65 28.6 L21.45 28.05 21.55 27.4 21.8 27.2 21.85 27.15 21.9 27.15 21.95 27.15 21.75 28.0 21.65 28.6" fill="#07adf9" fill-rule="evenodd" stroke="none"/>
      <path d="M22.65 25.4 L22.75 25.2 22.9 25.3 23.05 25.45 23.05 25.5 22.95 26.1 22.95 26.15 22.8 26.1 22.4 27.35 22.1 28.65 21.95 28.75 21.95 28.35 21.9 28.35 22.1 27.25 22.5 26.35 22.5 26.3 22.55 26.2 22.8 25.5 22.65 25.4" fill="#0480f0" fill-rule="evenodd" stroke="none"/>
      <path d="M20.55 28.25 L20.4 28.1 20.5 28.05 20.55 28.25" fill="#13cfff" fill-rule="evenodd" stroke="none"/>
      <path d="M22.95 26.1 L23.25 26.05 23.35 26.0 23.45 25.95 22.8 27.2 22.95 26.15 22.95 26.1" fill="#0eb4fe" fill-rule="evenodd" stroke="none"/>
      <path d="M20.55 23.7 L19.7 23.6 19.55 23.6 18.9 23.45 17.25 22.8 17.15 22.7 17.4 22.6 17.55 22.5 17.8 22.0 17.85 22.05 17.8 22.2 17.6 22.55 17.8 22.65 19.25 23.35 19.55 23.4 19.6 23.35 19.75 23.35 19.8 23.3 20.15 23.45 20.4 23.4 20.5 23.3 20.55 23.45 21.25 23.55 21.6 23.6 21.7 23.6 21.75 23.6 22.05 23.6 22.05 23.65 21.75 23.65 21.7 23.65 21.6 23.65 21.4 23.65 21.3 23.65 21.25 23.65 21.1 23.65 21.1 23.7 21.0 23.7 20.85 23.7 20.8 23.65 20.6 23.6 20.55 23.6 20.55 23.7 M16.25 19.25 L16.3 19.3 16.15 19.3 16.25 19.25" fill="#f4fff8" fill-rule="evenodd" stroke="none"/>
      <path d="M19.8 23.3 L19.75 23.35 19.6 23.35 19.55 23.4 19.25 23.35 17.8 22.65 17.6 22.55 17.8 22.2 17.85 22.05 17.85 22.0 18.0 21.95 18.0 22.05 17.95 22.35 18.0 22.35 18.1 22.4 19.3 23.05 19.35 23.05 19.8 23.3 M17.95 22.45 L17.95 22.35 17.9 22.45 17.95 22.45" fill="#0b73bc" fill-rule="evenodd" stroke="none"/>
      <path d="M20.25 22.8 L20.25 22.7 20.2 22.75 20.15 22.6 20.1 22.55 20.05 22.45 20.25 22.55 20.3 22.6 20.8 22.9 21.4 23.25 22.05 23.6 21.75 23.6 21.7 23.6 21.6 23.6 21.4 23.5 20.25 22.8" fill="#0059cb" fill-rule="evenodd" stroke="none"/>
      <path d="M20.35 22.1 L20.1 22.25 20.05 22.25 20.0 22.3 20.05 22.35 20.05 22.45 20.1 22.55 20.15 22.6 20.2 22.75 20.25 22.7 20.25 22.8 20.5 23.25 20.35 23.15 20.2 23.0 19.6 22.45 19.45 22.3 19.4 22.3 18.65 21.65 18.3 21.35 18.4 21.65 17.95 21.05 17.85 20.9 17.75 20.8 17.65 20.65 18.1 20.9 18.15 20.95 19.05 21.5 19.25 21.65 20.05 22.15 20.1 22.2 20.15 22.1 19.95 21.95 19.95 21.9 20.3 22.1 20.35 22.1" fill="#fffefa" fill-rule="evenodd" stroke="none"/>
      <path d="M20.5 23.25 L20.5 23.3 20.4 23.4 20.15 23.45 19.8 23.3 19.35 23.05 19.3 23.05 18.1 22.4 18.3 22.25 18.45 21.9 18.45 21.75 18.4 21.65 18.3 21.35 18.65 21.65 19.4 22.3 19.45 22.3 19.6 22.45 20.2 23.0 20.35 23.15 20.5 23.25" fill="#0888ff" fill-rule="evenodd" stroke="none"/>
      <path d="M20.1 22.25 L21.5 22.9 22.2 23.2 22.35 23.35 22.15 23.35 22.5 23.6 22.2 23.65 22.15 23.65 22.05 23.65 22.05 23.6 21.4 23.25 20.8 22.9 20.3 22.6 20.25 22.55 20.05 22.45 20.05 22.35 20.0 22.3 20.05 22.25 20.1 22.25" fill="#4eeaff" fill-rule="evenodd" stroke="none"/>
      <path d="M17.5 19.55 L18.8 20.9 19.6 21.65 19.9 21.9 19.95 21.9 19.95 21.95 20.15 22.1 20.1 22.2 20.05 22.15 19.25 21.65 19.05 21.5 18.15 20.95 18.1 20.9 17.65 20.65 17.6 20.6 17.45 20.4 17.35 20.25 17.35 20.2 16.95 19.5 16.8 19.25 16.95 19.25 17.25 19.25 17.45 19.45 17.5 19.55" fill="#0b91f2" fill-rule="evenodd" stroke="none"/>
      <path d="M17.65 20.65 L17.75 20.8 17.85 20.9 17.95 21.05 18.4 21.65 18.45 21.75 18.45 21.9 18.3 22.25 18.1 22.4 18.0 22.35 17.95 22.35 18.0 22.05 18.0 21.95 17.95 21.65 17.9 21.5 Q17.8 21.1 17.4 20.85 L17.2 20.7 17.1 20.55 16.9 20.25 16.5 19.55 16.55 19.55 16.65 19.55 16.9 19.5 16.95 19.5 17.35 20.2 17.35 20.25 17.45 20.4 17.6 20.6 17.65 20.65" fill="#056fdd" fill-rule="evenodd" stroke="none"/>
      <path d="M17.4 22.6 L17.55 22.05 17.25 21.15 17.15 21.0 Q16.8 20.65 16.55 20.65 L16.4 20.7 Q14.9 20.0 11.85 19.35 L11.55 19.3 3.8 18.8 Q4.95 12.6 9.25 6.55 10.35 5.2 11.9 4.05 L11.9 4.0 11.95 4.05 11.95 4.1 12.1 4.1 12.85 4.3 12.75 4.35 Q12.0 4.85 11.1 6.0 10.1 7.25 9.6 8.4 L9.35 9.0 9.35 9.2 9.5 9.25 9.5 9.3 9.3 9.2 9.15 9.15 9.05 9.15 9.0 9.15 9.0 9.3 Q7.55 12.75 7.9 14.7 L7.85 15.25 8.1 15.2 8.25 15.5 8.15 15.65 8.3 15.8 8.5 15.9 8.6 15.95 8.65 16.0 10.3 17.05 11.35 17.65 11.6 17.8 11.65 17.85 12.2 18.15 12.3 18.1 12.9 18.35 13.75 18.65 13.8 18.7 14.45 18.95 15.0 19.2 15.35 19.35 16.15 19.3 16.3 19.3 16.5 19.55 16.0 19.8 16.45 20.1 16.8 20.35 17.1 20.55 17.2 20.7 17.4 20.85 Q17.8 21.1 17.9 21.5 L17.95 21.65 18.0 21.95 17.85 22.0 17.85 22.05 17.8 22.0 17.55 22.5 17.4 22.6 M26.85 7.75 L26.7 8.0 26.5 8.35 26.4 8.35 26.1 8.25 26.35 7.75 26.6 7.75 26.85 7.75 M16.7 18.45 L16.75 18.45 17.1 18.45 17.1 18.55 17.15 18.7 17.2 18.9 16.7 18.95 16.7 18.45" fill="#ffffff" fill-rule="evenodd" stroke="none"/>
      <path d="M22.2 25.1 L22.35 25.2 22.65 25.4 22.0 26.9 21.95 27.15 21.9 27.15 21.85 27.05 21.9 26.9 21.95 26.65 22.0 26.4 22.0 26.35 22.05 26.2 22.2 25.2 22.2 25.1" fill="#0aa2ee" fill-rule="evenodd" stroke="none"/>
      <path d="M21.75 26.3 L21.6 25.1 21.55 25.0 21.85 25.1 22.15 25.2 22.2 25.2 22.05 26.2 22.0 26.35 21.9 26.35 21.8 26.3 21.75 26.3" fill="#19c6f0" fill-rule="evenodd" stroke="none"/>
      <path d="M21.55 25.0 L21.35 24.9 20.55 24.6 20.55 23.7 20.55 23.6 20.6 23.6 20.8 23.65 20.85 23.7 20.9 23.75 21.2 24.3 21.25 24.35 22.15 25.1 22.2 25.1 22.15 25.2 21.85 25.1 21.55 25.0" fill="#fefffd" fill-rule="evenodd" stroke="none"/>
      <path d="M21.1 23.7 L21.15 23.7 21.3 23.85 21.9 24.4 22.4 24.85 22.65 25.1 22.75 25.2 22.65 25.4 22.35 25.2 22.2 25.1 22.15 25.1 21.25 24.35 21.2 24.3 20.9 23.75 20.85 23.7 21.0 23.7 21.1 23.7 M22.2 25.2 L22.15 25.2 22.2 25.1 22.2 25.2" fill="#1d93c5" fill-rule="evenodd" stroke="none"/>
      <path d="M21.3 23.85 L22.2 24.0 22.3 24.0 22.65 24.05 22.75 24.05 23.1 24.1 23.25 24.1 23.3 24.15 23.3 24.3 23.2 24.75 23.15 25.1 23.05 25.45 22.9 25.3 22.75 25.2 22.65 25.1 22.4 24.85 21.9 24.4 21.3 23.85" fill="#10a8f4" fill-rule="evenodd" stroke="none"/>
      <path d="M23.05 25.45 L23.25 25.1 23.35 24.85 23.55 24.55 23.65 24.35 24.1 24.9 24.0 25.25 23.45 25.95 23.35 26.0 23.25 26.05 22.95 26.1 23.05 25.5 23.05 25.45" fill="#0586ee" fill-rule="evenodd" stroke="none"/>
      <path d="M11.35 17.65 L12.65 17.45 12.8 17.45 12.9 17.45 13.2 17.4 13.25 17.4 13.3 17.45 13.8 17.5 14.45 17.6 14.45 17.8 14.05 17.75 13.6 17.75 13.55 17.8 13.55 17.75 12.85 17.9 12.45 18.0 12.3 18.1 12.2 18.15 11.65 17.85 11.6 17.8 11.35 17.65 M29.35 27.1 L29.65 27.1 29.75 27.1 29.75 27.15 29.7 27.4 29.65 27.75 29.6 27.85 29.55 27.7 29.35 27.6 29.25 27.6 29.3 27.35 29.35 27.1 M26.7 25.35 L25.9 25.75 25.45 26.0 25.25 26.15 25.65 25.7 25.85 25.55 26.15 25.4 26.7 25.35" fill="#f9ffff" fill-rule="evenodd" stroke="none"/>
      <path d="M25.2 23.9 L25.25 23.9 25.25 23.8 25.3 23.8 26.15 23.35 26.2 23.35 26.35 23.25 26.4 23.2 26.55 23.15 26.75 23.05 26.75 23.0 26.8 23.0 26.9 22.95 29.35 21.65 30.3 21.15 32.85 19.9 33.3 19.65 33.45 19.6 33.65 19.5 33.55 20.1 33.55 20.2 33.2 20.45 32.1 21.15 31.15 21.65 29.4 22.55 28.7 22.9 28.55 23.0 28.6 23.05 26.6 24.1 25.95 24.5 25.4 24.2 25.15 24.0 25.2 23.9" fill="#0489e8" fill-rule="evenodd" stroke="none"/>
      <path d="M23.3 24.15 L23.4 24.15 23.65 24.35 23.55 24.55 23.35 24.85 23.25 25.1 23.05 25.45 23.15 25.1 23.2 24.75 23.3 24.3 23.3 24.15" fill="#3cc7f0" fill-rule="evenodd" stroke="none"/>
      <path d="M21.3 23.85 L21.15 23.7 21.1 23.7 21.1 23.65 21.25 23.65 21.3 23.65 21.4 23.65 21.6 23.65 21.7 23.65 21.75 23.65 22.05 23.65 22.15 23.65 22.2 23.65 22.5 23.6 23.15 24.0 23.4 24.15 23.3 24.15 23.25 24.1 23.1 24.1 22.75 24.05 22.65 24.05 22.3 24.0 22.2 24.0 21.3 23.85" fill="#0e78c4" fill-rule="evenodd" stroke="none"/>
      <path d="M23.3 23.2 L23.3 23.25 23.25 23.35 23.15 23.35 23.25 23.2 23.3 23.2" fill="#005ca1" fill-rule="evenodd" stroke="none"/>
      <path d="M22.2 23.2 L22.4 23.35 22.35 23.35 22.2 23.2" fill="#48e8ff" fill-rule="evenodd" stroke="none"/>
      <path d="M23.0 22.9 L23.1 22.95 23.25 23.0 23.25 23.05 23.3 23.2 23.25 23.2 23.15 23.35 22.9 23.35 22.85 23.2 22.95 22.9 23.0 22.9" fill="#cbffef" fill-rule="evenodd" stroke="none"/>
      <path d="M22.2 22.4 L22.3 22.45 23.0 22.9 22.95 22.9 22.85 23.2 22.9 23.35 22.4 23.35 22.2 23.2 22.05 23.05 21.2 22.4 21.3 22.4 21.55 22.4 22.2 22.4" fill="#06b2f2" fill-rule="evenodd" stroke="none"/>
      <path d="M23.3 23.25 L23.35 23.15 23.4 23.1 23.45 23.1 23.55 23.05 24.1 23.0 24.3 23.0 24.2 23.1 24.05 23.3 23.9 23.5 23.25 23.35 23.3 23.25 M24.95 23.85 L24.9 23.9 24.85 23.85 24.95 23.85" fill="#0dbafc" fill-rule="evenodd" stroke="none"/>
      <path d="M22.9 22.35 L23.2 22.3 23.3 22.3 23.3 22.4 23.9 22.4 24.3 22.4 24.3 22.35 24.7 22.4 24.45 22.8 24.3 23.0 24.1 23.0 23.55 23.05 23.45 23.1 23.4 23.1 23.35 23.15 23.3 23.25 23.3 23.2 23.25 23.05 23.25 23.0 23.1 22.95 23.0 22.9 22.3 22.45 22.2 22.4 22.3 22.4 22.35 22.4 23.0 22.4 22.9 22.35" fill="#009afb" fill-rule="evenodd" stroke="none"/>
      <path d="M24.05 23.3 L25.1 23.25 25.8 23.2 25.6 23.35 25.55 23.4 25.25 23.65 25.1 23.8 24.95 23.85 24.85 23.85 24.35 23.65 23.9 23.5 24.05 23.3" fill="#10b3ff" fill-rule="evenodd" stroke="none"/>
      <path d="M24.05 23.3 L24.2 23.1 24.3 23.0 24.35 22.95 24.5 22.95 24.75 22.95 24.95 22.95 25.25 23.0 25.3 22.95 25.4 22.8 25.45 22.75 26.0 22.9 26.1 22.9 26.0 22.75 26.0 22.65 26.1 22.6 26.1 22.9 26.25 22.7 26.4 22.55 26.45 22.55 26.45 22.5 26.45 22.4 26.45 21.85 26.45 21.75 26.45 21.65 26.45 21.55 26.45 21.15 26.45 21.05 26.6 20.85 26.6 20.95 26.65 21.2 26.7 21.65 26.8 22.0 26.8 22.15 26.75 22.5 26.7 22.5 26.7 22.55 26.6 22.7 26.3 23.15 26.35 23.25 26.2 23.35 26.15 23.35 25.3 23.8 25.25 23.8 25.25 23.9 25.2 23.9 25.1 23.8 25.25 23.65 25.55 23.4 25.6 23.35 25.8 23.2 25.1 23.25 24.05 23.3" fill="#67f3ff" fill-rule="evenodd" stroke="none"/>
      <path d="M24.3 23.0 L24.45 22.8 24.7 22.4 24.8 22.3 24.9 22.35 25.0 22.35 25.15 22.4 25.35 22.45 25.5 22.55 25.55 22.55 25.45 22.7 25.45 22.75 25.4 22.8 25.3 22.95 25.25 23.0 24.95 22.95 24.75 22.95 24.5 22.95 24.35 22.95 24.3 23.0" fill="#058fe7" fill-rule="evenodd" stroke="none"/>
      <path d="M23.95 22.05 L23.95 21.9 24.1 21.8 24.2 21.7 24.6 21.45 25.1 20.95 25.15 21.05 25.1 21.15 25.1 21.2 25.45 20.75 25.5 20.8 25.45 20.95 25.2 21.45 25.1 21.55 24.35 22.05 24.2 22.15 23.95 22.25 24.0 22.15 24.05 22.15 24.15 22.15 24.15 22.05 24.05 22.05 23.95 22.05" fill="#faf9ff" fill-rule="evenodd" stroke="none"/>
      <path d="M22.5 22.0 L23.55 22.0 23.8 22.05 23.95 22.05 24.05 22.05 24.15 22.05 24.15 22.15 24.05 22.15 24.0 22.15 23.75 22.2 23.3 22.3 23.2 22.3 22.9 22.35 22.9 22.3 22.5 22.0" fill="#82deeb" fill-rule="evenodd" stroke="none"/>
      <path d="M23.95 22.25 L24.2 22.15 24.35 22.05 25.1 21.55 25.2 21.45 25.45 20.95 25.5 20.8 25.45 20.75 25.65 20.45 25.7 20.4 25.75 20.3 25.9 20.25 25.95 20.15 26.0 20.15 25.95 20.25 26.0 20.2 26.0 20.3 26.05 20.65 26.1 20.85 26.0 21.05 26.0 21.15 25.9 21.3 25.85 21.4 25.7 21.65 25.4 21.9 25.55 22.05 25.55 22.15 25.65 22.15 25.35 22.45 25.15 22.4 25.0 22.35 24.9 22.35 24.8 22.3 24.7 22.4 24.3 22.35 24.25 22.35 23.95 22.35 23.8 22.35 23.95 22.25" fill="#13c0fa" fill-rule="evenodd" stroke="none"/>
      <path d="M23.3 22.3 L23.75 22.2 24.0 22.15 23.95 22.25 23.8 22.35 23.95 22.35 24.25 22.35 24.3 22.35 24.3 22.4 23.9 22.4 23.3 22.4 23.3 22.3" fill="#12abee" fill-rule="evenodd" stroke="none"/>
      <path d="M25.15 21.05 L25.15 21.0 25.2 20.9 25.2 20.85 25.25 20.55 25.25 20.45 25.05 20.05 25.0 20.0 24.85 19.85 24.8 19.8 25.5 19.3 25.7 19.15 25.9 19.15 27.65 19.1 27.75 19.15 27.75 19.25 27.7 19.3 27.4 19.3 27.2 19.35 27.1 19.35 26.6 19.5 26.25 19.65 26.2 19.7 26.05 19.75 26.0 19.8 26.1 19.9 26.2 20.0 26.15 20.0 26.0 20.15 25.95 20.15 25.9 20.25 25.75 20.3 25.7 20.4 25.65 20.45 25.45 20.75 25.1 21.2 25.1 21.15 25.15 21.05" fill="#fff5ff" fill-rule="evenodd" stroke="none"/>
      <path d="M21.75 22.0 L22.5 22.0 22.9 22.3 22.9 22.35 23.0 22.4 22.35 22.4 22.3 22.4 22.2 22.4 22.15 22.35 22.0 22.2 21.75 22.0" fill="#7fe7ff" fill-rule="evenodd" stroke="none"/>
      <path d="M39.45 18.35 L38.95 18.7 38.7 18.95 38.05 19.55 37.75 19.35 37.7 19.35 37.1 19.0 36.95 18.9 37.05 18.8 38.45 17.05 38.85 17.6 39.05 17.9 39.15 18.1 39.25 18.2 39.35 18.3 39.4 18.25 39.45 18.35 M20.25 22.8 L21.4 23.5 21.6 23.6 21.25 23.55 20.55 23.45 20.5 23.3 20.5 23.25 20.25 22.8" fill="#0489f0" fill-rule="evenodd" stroke="none"/>
      <path d="M21.2 22.4 L22.05 23.05 22.2 23.2 21.5 22.9 20.1 22.25 20.35 22.1 20.4 22.15 20.85 22.1 21.2 22.4" fill="#0090ef" fill-rule="evenodd" stroke="none"/>
      <path d="M21.7 22.0 L21.75 22.0 22.0 22.2 22.15 22.35 22.2 22.4 21.55 22.4 21.3 22.4 21.2 22.4 20.85 22.1 20.95 22.05 21.2 22.05 21.7 22.0" fill="#73deff" fill-rule="evenodd" stroke="none"/>
      <path d="M19.8 19.85 L21.3 21.05 22.05 21.65 22.5 22.0 21.75 22.0 21.7 22.0 21.3 21.65 20.9 21.25 19.8 19.85" fill="#3dc1e8" fill-rule="evenodd" stroke="none"/>
      <path d="M19.65 19.7 L19.75 19.8 19.75 19.85 19.8 19.85 20.9 21.25 21.3 21.65 21.7 22.0 21.2 22.05 20.95 22.05 20.85 22.1 20.75 22.0 20.3 21.65 19.25 20.65 19.25 20.55 18.85 20.05 19.45 19.8 19.65 19.7" fill="#0e85ed" fill-rule="evenodd" stroke="none"/>
      <path d="M17.45 19.15 L17.45 19.25 17.5 19.55 17.45 19.45 17.25 19.25 16.95 19.25 16.8 19.25 16.75 19.2 16.7 19.0 16.7 18.95 17.2 18.9 17.2 18.95 17.4 19.15 17.45 19.15 M16.75 18.45 L16.75 18.4 16.75 17.65 16.75 17.4 16.85 17.45 16.85 17.5 16.9 17.55 16.95 17.55 16.95 17.7 17.1 18.45 16.75 18.45" fill="#9eebff" fill-rule="evenodd" stroke="none"/>
      <path d="M16.5 19.3 L16.8 19.25 16.95 19.5 16.9 19.5 16.65 19.55 16.55 19.55 16.5 19.55 16.3 19.3 16.5 19.3" fill="#71c8fe" fill-rule="evenodd" stroke="none"/>
      <path d="M16.5 19.55 L16.9 20.25 17.1 20.55 16.8 20.35 16.45 20.1 16.0 19.8 16.5 19.55" fill="#0077e5" fill-rule="evenodd" stroke="none"/>
      <path d="M15.85 18.0 L15.8 17.85 15.75 17.75 15.7 17.65 15.9 17.55 16.0 17.45 16.1 17.7 16.4 18.3 16.4 18.35 16.5 18.5 16.5 18.55 16.65 18.9 16.65 18.95 16.7 19.0 16.75 19.2 16.8 19.25 16.5 19.3 16.05 18.35 16.0 18.35 15.95 18.15 15.85 18.0" fill="#006acc" fill-rule="evenodd" stroke="none"/>
      <path d="M27.35 3.9 L27.5 3.9 27.9 3.9 28.5 3.9 28.95 3.9 29.15 3.95 29.05 4.05 29.35 4.15 29.3 4.25 29.15 4.5 27.55 4.05 27.35 4.0 27.35 3.95 27.35 3.9 M16.6 18.35 L16.65 18.4 16.7 18.45 16.7 18.95 16.7 19.0 16.65 18.95 16.65 18.9 16.5 18.55 16.5 18.5 16.4 18.35 16.4 18.3 16.6 18.35" fill="#158ee7" fill-rule="evenodd" stroke="none"/>
      <path d="M17.35 18.8 L17.4 18.9 17.45 19.15 17.4 19.15 17.2 18.95 17.2 18.9 17.15 18.7 17.1 18.55 17.1 18.45 16.95 17.7 16.95 17.55 17.0 17.55 17.0 17.6 17.1 17.7 17.2 18.15 17.35 18.7 17.35 18.8" fill="#0593d3" fill-rule="evenodd" stroke="none"/>
      <path d="M19.25 20.65 L19.2 20.65 18.75 20.2 17.45 18.9 17.35 18.8 17.35 18.7 17.2 18.15 17.1 17.7 17.0 17.6 17.0 17.55 17.05 17.5 17.2 17.45 17.2 17.5 17.25 17.55 18.0 18.8 18.1 18.75 18.2 19.05 18.85 20.05 19.25 20.55 19.25 20.65" fill="#058ce6" fill-rule="evenodd" stroke="none"/>
      <path d="M9.5 9.3 L9.15 9.35 9.15 9.5 9.65 9.6 Q10.05 10.05 11.75 10.05 L12.05 10.2 12.35 10.4 11.2 14.2 8.75 14.9 8.75 15.05 8.2 15.15 8.1 15.2 7.9 14.7 Q7.55 12.75 9.0 9.3 L9.0 9.15 9.05 9.15 9.15 9.15 9.3 9.2 9.5 9.3 M9.65 15.2 L11.05 14.95 12.1 16.2 13.05 17.2 13.2 17.4 12.9 17.45 12.8 17.45 12.65 17.45 11.35 17.65 10.3 17.05 8.65 16.0 8.6 15.95 8.5 15.7 8.8 15.55 9.65 15.2 M16.75 12.35 L16.75 12.4 16.9 12.4 16.8 15.0 16.8 16.0 16.8 16.15 16.85 16.45 16.85 16.65 16.9 16.6 16.95 17.3 17.0 17.55 16.95 17.55 16.9 17.55 16.85 17.5 16.85 17.45 16.75 17.4 16.75 17.65 16.75 18.4 16.75 18.45 16.7 18.45 16.65 18.4 16.6 18.35 16.55 17.65 16.55 17.6 16.6 17.3 16.55 17.3 16.55 16.65 16.55 16.05 16.55 15.35 16.55 14.95 16.55 14.5 16.55 13.45 16.5 12.9 16.5 12.8 16.55 12.8 16.6 12.75 16.5 12.7 16.6 12.55 16.65 12.5 16.75 12.35" fill="#34f0fb" fill-rule="evenodd" stroke="none"/>
      <path d="M16.55 13.45 L16.55 14.5 16.55 14.95 16.55 15.35 16.55 16.05 16.55 16.65 16.55 17.3 16.6 17.3 16.55 17.6 16.55 17.65 16.5 18.1 16.5 18.2 16.4 18.3 16.1 17.7 16.0 17.45 16.0 17.15 16.0 16.95 16.05 14.0 16.55 13.45" fill="#09a1f4" fill-rule="evenodd" stroke="none"/>
      <path d="M15.35 17.9 L15.45 17.9 15.5 17.95 15.55 17.95 15.85 18.0 15.95 18.15 16.0 18.35 16.05 18.35 16.5 19.3 16.3 19.3 16.25 19.25 16.05 18.9 15.75 18.45 15.55 18.15 15.5 18.1 15.45 18.0 15.35 17.9 M14.45 17.8 L14.45 17.6 14.7 17.65 14.85 17.65 14.85 17.85 14.65 17.85 14.55 17.8 14.45 17.8" fill="#58f8ff" fill-rule="evenodd" stroke="none"/>
      <path d="M15.75 18.45 L16.05 18.9 16.25 19.25 16.15 19.3 15.35 19.35 15.0 19.2 15.4 18.85 15.65 18.55 15.75 18.45" fill="#0071e7" fill-rule="evenodd" stroke="none"/>
      <path d="M14.85 17.85 L15.2 17.9 15.3 17.9 15.35 17.9 15.45 18.0 15.5 18.1 15.55 18.15 15.75 18.45 15.65 18.55 15.4 18.85 15.0 19.2 14.45 18.95 14.6 18.3 14.55 17.9 14.55 17.8 14.65 17.85 14.85 17.85" fill="#0c92f5" fill-rule="evenodd" stroke="none"/>
      <path d="M15.35 17.1 L15.3 16.85 15.25 16.7 14.6 14.45 14.45 14.05 14.45 13.8 14.5 13.5 14.45 13.2 14.45 12.0 14.3 11.8 14.4 11.4 14.2 10.85 14.35 10.5 14.2 10.5 14.2 10.1 14.45 10.15 14.55 10.15 14.5 10.2 14.6 10.2 14.6 10.55 14.6 11.0 14.7 11.0 15.35 11.2 15.95 11.4 16.05 13.45 16.2 13.25 16.5 12.9 16.55 13.45 16.05 14.0 16.0 16.95 16.0 17.15 16.0 17.45 15.9 17.55 15.7 17.65 15.75 17.75 15.8 17.85 15.85 18.0 15.55 17.95 15.5 17.95 15.45 17.9 15.35 17.9 15.3 17.9 15.2 17.9 14.85 17.85 14.85 17.65 15.3 17.65 15.35 17.65 15.45 17.65 15.5 17.65 15.4 17.2 15.35 17.1" fill="#0884e4" fill-rule="evenodd" stroke="none"/>
      <path d="M19.5 19.2 L19.55 19.3 19.7 19.65 19.65 19.7 19.45 19.8 18.85 20.05 18.2 19.05 18.1 18.75 18.0 18.8 17.25 17.55 17.2 17.5 17.2 17.45 17.5 17.4 17.6 17.35 17.5 17.35 17.9 14.65 18.25 11.9 18.4 12.8 18.6 12.85 18.55 12.95 18.55 13.25 Q18.4 14.25 18.4 15.25 L18.25 15.4 18.4 15.95 Q18.7 17.2 19.35 18.85 L19.5 19.2" fill="#0274f1" fill-rule="evenodd" stroke="none"/>
      <path d="M19.4 18.3 L19.45 18.55 19.45 18.6 19.5 18.65 19.5 19.2 19.35 18.85 Q18.7 17.2 18.4 15.95 L18.25 15.4 18.4 15.25 Q18.4 14.25 18.55 13.25 L18.6 13.2 18.65 13.25 18.7 13.2 18.7 13.3 18.7 14.0 18.7 14.25 18.7 14.45 18.7 14.75 18.7 16.0 18.7 16.15 19.05 17.3 19.25 17.85 19.3 18.0 19.4 18.3" fill="#004688" fill-rule="evenodd" stroke="none"/>
      <path d="M19.9 16.7 L20.15 17.15 19.75 17.65 19.5 18.55 19.4 18.3 19.35 17.95 19.35 17.9 19.6 17.25 19.65 17.1 19.7 17.1 19.7 17.05 19.9 16.7" fill="#02303f" fill-rule="evenodd" stroke="none"/>
      <path d="M19.2 15.45 L19.3 14.9 19.45 14.5 19.5 14.35 19.5 14.45 19.5 14.5 19.35 14.9 19.3 15.55 19.3 15.6 19.3 15.75 19.3 15.9 19.35 16.2 19.45 16.5 19.7 17.05 19.7 17.1 19.65 17.1 19.6 17.25 19.35 17.9 19.35 17.95 19.3 18.0 19.25 17.85 19.05 17.3 19.3 16.55 19.15 15.9 19.15 15.8 19.15 15.75 19.15 15.6 19.2 15.45" fill="#004368" fill-rule="evenodd" stroke="none"/>
      <path d="M19.7 14.0 L19.55 15.0 19.65 15.8 19.9 16.7 19.7 17.05 19.45 16.5 19.35 16.2 19.3 15.9 19.3 15.75 19.3 15.6 19.3 15.55 19.35 14.9 19.5 14.5 19.5 14.45 19.5 14.35 19.5 14.3 19.6 14.15 19.7 14.0" fill="#0c546c" fill-rule="evenodd" stroke="none"/>
      <path d="M18.7 14.45 L18.8 14.7 18.9 14.95 19.2 15.45 19.15 15.6 19.15 15.75 19.15 15.8 19.15 15.9 19.3 16.55 19.05 17.3 18.7 16.15 18.7 16.0 18.7 14.75 18.7 14.45" fill="#287cb8" fill-rule="evenodd" stroke="none"/>
      <path d="M19.9 13.8 L19.85 13.8 19.8 13.9 19.75 13.95 19.7 14.0 19.6 14.15 19.5 14.3 19.5 14.35 19.45 14.5 19.3 14.9 19.2 15.45 18.9 14.95 18.8 14.7 18.7 14.45 18.7 14.25 18.7 14.0 18.7 13.3 18.8 13.2 18.9 13.2 Q19.25 13.25 19.6 13.55 L19.8 13.7 19.9 13.8" fill="#0992c0" fill-rule="evenodd" stroke="none"/>
      <path d="M11.05 14.95 L11.45 14.85 12.0 14.8 12.4 14.8 13.25 14.75 Q14.15 15.15 14.5 15.85 L15.2 17.6 15.35 17.6 15.35 17.65 15.3 17.65 14.85 17.65 14.7 17.65 14.45 17.6 13.8 17.5 13.3 17.45 13.25 17.4 13.2 17.4 13.05 17.2 12.1 16.2 11.05 14.95" fill="#19c6fe" fill-rule="evenodd" stroke="none"/>
      <path d="M33.1 5.75 L33.65 5.95 33.45 6.1 32.35 5.45 33.1 5.75 M35.15 7.2 L35.2 7.2 35.15 7.2 M35.4 7.3 L35.85 7.5 36.7 8.15 37.55 8.95 37.55 9.0 37.6 9.0 37.75 9.15 37.8 9.15 38.15 9.55 38.2 9.6 38.5 9.9 38.6 10.2 38.55 10.2 38.5 10.1 38.3 9.9 38.2 9.75 37.95 9.5 37.9 9.5 37.8 9.4 37.75 9.4 36.7 8.35 36.9 8.5 36.85 8.45 36.45 8.1 36.4 8.1 35.4 7.3 M39.9 13.25 L40.25 14.55 40.1 14.05 40.0 13.75 40.0 13.65 39.95 13.5 39.9 13.25 M30.1 4.5 L30.1 4.55 30.2 4.55 30.9 4.9 31.1 5.0 31.15 4.9 31.45 5.1 31.85 5.35 31.1 5.1 29.65 4.75 29.8 4.7 29.8 4.4 30.1 4.5 M29.4 4.7 L29.25 4.65 29.1 4.65 26.1 4.1 26.05 4.1 25.9 4.1 25.9 4.05 26.1 4.05 26.1 4.0 26.0 3.9 26.1 3.9 26.1 3.8 26.3 3.8 26.65 3.9 26.9 3.9 27.35 3.95 27.35 4.0 27.55 4.05 29.15 4.5 29.3 4.25 29.35 4.25 29.3 4.55 29.4 4.7 M31.8 22.15 L33.55 20.25 33.5 20.6 33.55 20.7 33.45 20.7 32.7 21.55 32.6 21.65 32.25 21.85 32.2 21.9 32.1 21.95 31.8 22.15 M29.55 23.5 L30.5 22.9 30.75 23.2 30.9 23.3 30.8 23.35 29.85 23.8 28.85 24.3 29.7 23.5 29.55 23.5 M15.8 5.95 L15.85 5.95 15.9 5.95 15.8 5.95 M15.35 17.6 L15.4 17.35 15.35 17.1 15.4 17.2 15.5 17.65 15.45 17.65 15.35 17.65 15.35 17.6 M14.45 14.05 L14.4 13.9 14.45 13.8 14.45 14.05 M14.1 10.1 L14.0 10.1 14.2 9.9 14.1 10.1" fill="#69f0f3" fill-rule="evenodd" stroke="none"/>
      <path d="M17.75 9.95 L17.9 10.45 18.05 11.05 18.25 11.9 17.9 14.65 17.5 17.35 17.5 17.4 17.2 17.45 17.05 17.5 17.0 17.3 17.05 16.65 17.1 16.05 17.2 14.75 17.6 11.3 17.6 11.25 17.55 10.55 17.75 9.95" fill="#058ef6" fill-rule="evenodd" stroke="none"/>
      <path d="M12.3 18.1 L12.45 18.0 12.85 17.9 13.55 17.75 13.55 17.8 13.6 17.75 14.05 17.75 14.45 17.8 14.55 17.8 14.55 17.9 14.6 18.3 14.45 18.95 13.8 18.7 13.75 18.65 12.9 18.35 12.3 18.1" fill="#21caff" fill-rule="evenodd" stroke="none"/>
      <path d="M8.75 15.05 L9.45 15.2 9.65 15.2 8.8 15.55 8.5 15.7 8.35 15.75 8.3 15.8 8.15 15.65 8.25 15.5 8.1 15.2 8.2 15.15 8.75 15.05" fill="#f4ffff" fill-rule="evenodd" stroke="none"/>
      <path d="M31.55 10.95 L31.95 11.2 32.05 11.2 32.05 11.25 32.1 11.15 32.1 11.2 32.15 11.25 32.25 11.35 32.35 11.45 32.35 11.55 32.3 11.6 32.65 12.15 33.05 12.7 32.9 13.05 32.85 13.05 32.85 13.1 32.4 12.4 31.95 11.75 31.75 11.55 31.75 11.6 31.35 11.35 30.95 11.05 30.75 11.0 29.55 10.75 28.7 10.6 28.75 10.6 28.95 10.45 29.1 10.45 29.15 10.4 29.2 10.4 29.2 10.35 29.3 10.3 29.5 10.25 Q30.3 10.25 31.25 10.8 L31.5 11.0 31.55 10.95 M13.0 14.7 L13.1 14.7 13.25 14.75 12.4 14.8 12.0 14.8 12.4 14.75 13.0 14.7 M7.9 14.7 L8.1 15.2 7.85 15.25 7.9 14.7 M8.3 15.8 L8.35 15.75 8.5 15.7 8.6 15.95 8.5 15.9 8.3 15.8" fill="#dcffff" fill-rule="evenodd" stroke="none"/>
      <path d="M34.95 38.25 L35.0 38.3 32.45 39.35 32.45 39.05 32.4 39.05 29.65 38.8 29.6 38.8 29.3 38.75 28.95 38.7 27.15 38.25 26.7 38.1 26.8 37.85 26.85 37.5 27.6 37.8 27.65 37.8 28.3 38.0 33.3 38.6 33.7 38.55 34.3 38.25 34.6 38.15 35.0 37.95 35.55 37.7 35.05 38.05 34.95 38.15 34.95 38.25 M26.05 37.35 L26.15 37.35 26.1 37.65 26.1 37.8 26.05 37.75 26.05 37.7 26.05 37.6 26.05 37.35" fill="#6df6fc" fill-rule="evenodd" stroke="none"/>
      <path d="M31.65 34.7 L31.85 35.1 32.05 35.4 32.1 35.45 32.2 35.65 31.75 35.4 31.65 34.7 M32.35 35.7 L32.4 35.65 32.45 35.65 32.95 35.85 33.75 36.15 33.85 36.15 34.2 36.3 34.0 37.0 33.7 37.4 31.2 37.8 30.95 37.75 30.9 37.75 30.75 37.7 30.9 37.65 30.95 37.65 31.15 37.6 31.3 37.55 31.35 37.4 31.45 37.3 Q31.8 37.3 31.8 36.65 L31.8 36.45 32.75 36.9 Q33.15 36.9 33.15 36.5 L32.35 35.7 M26.15 37.35 L26.5 37.35 26.55 37.35 26.65 37.35 26.85 37.5 26.8 37.85 26.7 38.1 26.15 37.8 26.1 37.8 26.1 37.65 26.15 37.35 M27.6 37.35 L28.0 37.1 28.7 37.15 Q28.75 37.45 29.45 37.45 L30.05 37.35 30.3 37.4 30.95 37.35 31.05 37.45 31.1 37.45 30.95 37.5 30.2 37.8 29.65 37.6 28.45 37.35 28.3 37.6 28.15 37.6 27.6 37.65 27.3 37.6 26.9 37.4 27.3 37.55 27.6 37.35 M30.05 32.6 L30.05 32.45 30.1 32.55 30.05 32.6" fill="#fffefb" fill-rule="evenodd" stroke="none"/>
      <path d="M34.2 36.3 L34.75 36.45 34.95 36.5 34.75 36.8 34.5 37.25 34.35 37.3 34.2 37.9 32.7 38.05 31.45 38.15 31.15 38.15 31.1 38.15 29.3 38.0 28.3 37.9 27.65 37.8 27.6 37.8 26.85 37.5 26.65 37.35 26.7 37.35 27.35 37.25 27.45 37.3 27.55 37.35 27.6 37.35 27.3 37.55 26.9 37.4 27.3 37.6 27.6 37.65 28.15 37.6 28.3 37.6 28.6 37.65 29.8 37.85 30.2 37.8 30.5 37.75 30.55 37.75 30.75 37.7 30.9 37.75 30.95 37.75 31.2 37.8 33.7 37.4 34.0 37.0 34.2 36.3" fill="#33e1ec" fill-rule="evenodd" stroke="none"/>
      <path d="M25.8 36.6 L26.5 36.75 27.6 36.95 27.45 37.0 25.8 36.6" fill="#06a3e8" fill-rule="evenodd" stroke="none"/>
      <path d="M32.4 39.05 L30.65 39.2 30.55 39.45 30.1 39.2 29.95 39.1 29.65 38.85 29.3 38.9 28.95 38.85 28.95 38.7 29.3 38.75 29.6 38.8 29.65 38.8 32.4 39.05" fill="#0acaef" fill-rule="evenodd" stroke="none"/>
      <path d="M25.8 34.5 Q26.75 34.7 28.1 35.4 L28.85 35.9 28.95 36.45 28.4 36.3 28.3 36.35 28.05 36.15 25.95 34.85 25.8 34.5" fill="#0ea9fc" fill-rule="evenodd" stroke="none"/>
      <path d="M34.95 36.5 L35.1 36.25 35.45 36.55 35.65 36.75 35.1 37.55 34.85 37.85 34.6 38.15 34.3 38.25 33.7 38.55 33.3 38.6 28.3 38.0 27.65 37.8 28.3 37.9 29.3 38.0 31.1 38.15 31.15 38.15 31.45 38.15 32.7 38.05 34.2 37.9 34.35 37.3 34.5 37.25 34.75 36.8 34.95 36.5" fill="#0d96ff" fill-rule="evenodd" stroke="none"/>
      <path d="M27.95 36.65 L27.35 36.35 26.9 36.15 26.35 35.9 26.2 35.45 25.95 34.85 28.05 36.15 28.3 36.35 27.95 36.65" fill="#109cfd" fill-rule="evenodd" stroke="none"/>
      <path d="M30.35 32.4 L30.75 32.65 30.8 32.85 30.7 32.9 30.35 32.4 M31.3 33.8 L31.65 34.35 31.55 34.4 31.5 34.25 31.3 33.8 M31.6 34.5 L31.9 35.05 32.05 35.4 31.85 35.1 31.65 34.7 31.6 34.5 M28.45 28.05 L28.9 28.35 28.85 28.35 28.9 29.15 28.6 29.6 28.55 29.75 28.45 29.9 28.45 29.95 28.4 29.85 28.0 28.65 28.5 28.25 28.45 28.05 M30.05 32.05 L30.05 32.1 30.05 32.05 M30.15 32.2 L30.25 32.3 30.25 32.35 30.15 32.2 M30.3 32.35 L30.3 32.4 30.3 32.35 M30.0 32.35 L30.05 32.45 30.05 32.6 30.0 32.65 30.0 32.35" fill="#04a3ff" fill-rule="evenodd" stroke="none"/>
      <path d="M25.8 30.45 L26.35 30.95 26.35 31.1 26.4 31.65 26.1 31.15 25.7 30.5 25.8 30.45 M26.45 30.25 L26.35 28.8 26.6 29.45 26.7 29.65 26.45 30.25 M28.9 29.15 L28.9 29.25 28.95 29.4 29.0 29.8 29.05 30.0 29.3 30.5 29.5 30.85 29.5 30.9 29.75 31.35 29.8 31.5 29.85 31.85 29.8 31.8 30.0 32.35 30.0 32.65 29.95 32.8 29.85 33.4 29.7 33.2 28.75 32.25 28.1 31.6 28.15 31.4 28.0 31.35 Q28.05 30.75 28.45 29.95 L28.45 29.9 28.55 29.75 28.6 29.6 28.9 29.15 M28.6 30.45 L28.65 30.4 28.55 30.3 28.6 30.45 M29.1 31.75 L29.05 31.8 29.15 31.85 29.1 31.75" fill="#057aec" fill-rule="evenodd" stroke="none"/>
      <path d="M31.35 37.4 L31.3 37.55 31.15 37.6 30.95 37.65 30.95 37.5 31.1 37.45 31.35 37.4" fill="#88dae5" fill-rule="evenodd" stroke="none"/>
      <path d="M36.3 37.3 L36.2 37.5 36.1 37.55 35.15 38.25 34.95 38.25 34.95 38.15 35.05 38.05 35.55 37.7 35.55 37.65 36.05 37.15 36.2 37.25 36.3 37.3" fill="#f5f2f2" fill-rule="evenodd" stroke="none"/>
      <path d="M35.0 35.1 L35.3 35.1 36.15 34.85 36.8 34.6 36.7 35.35 36.55 36.15 36.5 36.3 36.45 36.4 36.25 36.85 36.05 37.15 35.55 37.65 35.55 37.7 35.0 37.95 34.6 38.15 34.85 37.85 35.1 37.55 35.65 36.75 35.95 36.3 36.0 36.15 36.05 35.9 35.65 35.75 35.45 35.35 35.45 35.3 35.0 35.1" fill="#075bd7" fill-rule="evenodd" stroke="none"/>
      <path d="M34.45 34.15 L34.85 34.2 35.35 34.3 35.1 34.3 34.95 34.3 34.95 34.45 34.8 34.45 34.75 34.45 34.7 34.3 34.7 34.25 34.45 34.15 M36.85 34.0 L36.85 33.95 36.95 33.95 37.0 33.9 37.0 34.55 36.95 34.55 36.8 34.6 36.85 34.4 36.85 34.0 M31.65 34.35 L32.1 35.05 32.55 35.1 34.0 35.35 34.35 35.6 34.75 35.95 35.0 36.15 35.1 36.25 34.95 36.5 34.75 36.45 34.2 36.3 33.85 36.15 33.75 36.15 32.95 35.85 32.45 35.65 32.4 35.65 32.35 35.7 32.2 35.65 32.1 35.45 32.05 35.4 31.9 35.05 31.6 34.5 31.55 34.4 31.65 34.35" fill="#10c0f2" fill-rule="evenodd" stroke="none"/>
      <path d="M35.1 36.25 L35.0 36.15 34.75 35.95 34.35 35.6 34.0 35.35 34.5 35.45 35.25 35.65 35.65 35.75 36.05 35.9 36.0 36.15 35.95 36.3 35.65 36.75 35.45 36.55 35.1 36.25" fill="#0091ee" fill-rule="evenodd" stroke="none"/>
      <path d="M33.5 34.8 L33.4 34.8 32.45 34.7 32.15 34.7 32.15 34.65 31.35 33.3 31.1 32.85 31.0 32.6 30.85 32.35 31.0 32.45 Q32.05 33.5 32.9 33.8 L32.95 33.85 34.7 34.3 34.75 34.45 34.8 34.45 34.95 34.45 35.3 35.1 35.0 35.1 34.4 34.85 33.5 34.8" fill="#005ddb" fill-rule="evenodd" stroke="none"/>
      <path d="M33.5 34.8 L34.4 34.85 35.0 35.1 35.45 35.3 35.45 35.35 35.65 35.75 35.25 35.65 34.5 35.45 34.0 35.35 33.5 34.85 33.5 34.8" fill="#005bbe" fill-rule="evenodd" stroke="none"/>
      <path d="M30.25 31.2 L31.0 31.9 32.35 33.05 32.85 33.35 33.1 33.45 34.35 34.1 34.45 34.15 34.7 34.25 34.7 34.3 32.95 33.85 32.9 33.8 Q32.05 33.5 31.0 32.45 L30.65 32.1 30.7 32.05 30.7 31.95 30.65 31.65 30.25 31.2" fill="#46ceff" fill-rule="evenodd" stroke="none"/>
      <path d="M35.3 35.1 L34.95 34.45 35.1 34.45 35.45 34.5 36.85 34.4 36.8 34.6 36.15 34.85 35.3 35.1" fill="#0038b0" fill-rule="evenodd" stroke="none"/>
      <path d="M29.55 30.35 L29.7 30.6 29.75 30.55 30.0 30.85 30.2 31.15 30.25 31.2 30.65 31.65 30.7 31.95 30.7 32.05 30.65 32.1 31.0 32.45 30.85 32.35 31.0 32.6 31.1 32.85 31.35 33.3 32.15 34.65 32.15 34.7 32.45 34.7 33.4 34.8 33.5 34.8 33.5 34.85 34.0 35.35 32.55 35.1 32.1 35.05 31.65 34.35 31.3 33.8 30.7 32.9 30.8 32.85 30.75 32.65 30.35 32.4 30.3 32.4 30.3 32.35 30.25 32.35 30.25 32.3 30.15 32.2 30.1 32.15 30.05 32.1 30.05 32.05 29.9 31.95 29.9 31.9 29.85 31.85 29.8 31.5 29.75 31.35 29.5 30.9 29.55 30.95 29.65 31.1 29.75 31.0 29.65 30.8 29.6 30.6 29.6 30.55 29.55 30.35" fill="#1390fe" fill-rule="evenodd" stroke="none"/>
      <path d="M29.95 25.0 L29.9 25.05 29.9 25.1 29.75 25.4 29.75 25.55 29.7 25.65 29.65 25.85 29.35 27.0 29.35 27.1 29.3 27.35 29.25 27.6 29.25 27.65 29.2 27.9 29.15 28.05 29.2 28.35 29.2 28.45 29.2 28.5 29.2 28.7 29.05 28.55 29.0 28.35 28.9 28.35 28.45 28.05 28.35 28.05 28.2 28.15 26.95 29.25 26.7 29.65 26.6 29.45 26.35 28.8 26.45 30.25 26.35 30.95 25.8 30.45 25.7 30.25 25.65 30.3 25.65 30.45 25.7 30.55 25.55 30.4 26.1 28.8 26.35 28.0 26.6 27.25 26.75 27.1 27.25 26.55 27.45 26.35 27.8 26.05 27.95 26.05 27.95 26.0 28.5 25.45 29.05 25.1 29.3 24.9 29.6 24.75 30.25 24.45 29.95 25.0" fill="#0b75eb" fill-rule="evenodd" stroke="none"/>
      <path d="M29.1 31.75 L29.15 31.85 29.05 31.8 29.1 31.75" fill="#0090fd" fill-rule="evenodd" stroke="none"/>
      <path d="M29.45 29.85 L29.35 29.95 29.5 30.15 29.55 30.3 29.55 30.35 29.6 30.55 29.6 30.6 29.65 30.8 29.75 31.0 29.65 31.1 29.55 30.95 29.5 30.9 29.5 30.85 29.3 30.5 29.05 30.0 29.0 29.8 28.95 29.4 28.9 29.25 28.9 29.15 28.85 28.35 28.9 28.35 29.0 28.35 29.05 28.55 29.1 28.7 29.15 28.85 29.2 28.95 29.2 29.05 29.25 29.1 29.25 29.2 29.3 29.35 29.35 29.5 29.45 29.85" fill="#f7ffff" fill-rule="evenodd" stroke="none"/>
      <path d="M28.6 30.45 L28.55 30.3 28.65 30.4 28.6 30.45" fill="#035ee0" fill-rule="evenodd" stroke="none"/>
      <path d="M29.45 29.1 L29.45 29.35 29.45 29.85 29.35 29.5 29.3 29.35 29.25 29.2 29.25 29.1 29.2 29.05 29.2 28.95 29.15 28.85 29.1 28.7 29.05 28.55 29.2 28.7 29.2 28.5 29.2 28.45 29.2 28.35 29.35 28.35 29.45 28.3 29.5 28.3 29.45 28.7 29.45 28.8 29.45 29.1" fill="#a4daff" fill-rule="evenodd" stroke="none"/>
      <path d="M30.05 26.15 L30.0 26.3 Q29.9 27.5 30.45 27.45 29.95 27.7 29.5 29.1 L29.45 29.1 29.45 28.8 29.45 28.7 29.5 28.3 29.45 28.3 29.6 27.85 29.65 27.75 29.7 27.4 29.75 27.15 29.75 27.1 29.8 27.0 29.95 26.35 30.0 26.15 30.05 26.15" fill="#f5feff" fill-rule="evenodd" stroke="none"/>
      <path d="M29.2 28.35 L29.15 28.05 29.2 27.9 29.25 27.65 29.25 27.6 29.35 27.6 29.55 27.7 29.6 27.85 29.45 28.3 29.35 28.35 29.2 28.35" fill="#18a5f4" fill-rule="evenodd" stroke="none"/>
      <path d="M36.95 34.55 L36.95 34.65 36.75 36.15 36.75 36.2 36.3 37.3 36.2 37.25 36.05 37.15 36.25 36.85 36.45 36.4 36.5 36.3 36.55 36.15 36.7 35.35 36.8 34.6 36.95 34.55" fill="#6dd5ff" fill-rule="evenodd" stroke="none"/>
      <path d="M37.5 20.95 L37.2 21.1 37.35 20.85 37.45 20.65 37.5 20.6 37.5 20.5 37.6 20.45 37.7 20.4 38.1 20.0 38.4 19.8 38.4 19.75 38.7 19.9 38.75 19.95 38.7 19.95 38.65 20.0 38.55 20.05 37.5 20.95 M36.75 21.3 L36.8 21.35 36.4 21.65 Q35.4 22.45 35.3 23.3 L35.2 23.35 Q33.25 23.9 31.65 24.95 L31.5 25.05 31.4 24.9 31.65 24.75 33.7 23.5 33.6 23.2 34.05 22.95 34.1 23.0 34.75 22.55 34.9 22.45 35.0 22.4 36.25 21.65 36.75 21.3" fill="#cdebf5" fill-rule="evenodd" stroke="none"/>
      <path d="M37.2 21.1 L37.1 21.1 36.75 21.3 36.25 21.65 35.0 22.4 34.9 22.45 34.75 22.55 34.1 23.0 34.05 22.95 33.55 22.4 33.55 22.25 34.75 21.8 35.1 21.65 35.15 21.6 37.35 20.7 37.35 20.85 37.2 21.1" fill="#1ca0e0" fill-rule="evenodd" stroke="none"/>
      <path d="M40.25 9.65 L40.95 9.75 41.4 9.85 41.4 9.8 Q43.45 9.95 44.85 8.9 44.15 11.15 43.15 12.5 L42.55 14.15 42.5 14.05 42.05 14.05 42.05 11.7 42.05 11.65 41.75 11.1 41.55 10.7 40.75 10.45 40.55 10.4 40.45 10.35 40.45 10.25 40.45 9.9 40.45 9.7 40.25 9.65 M42.35 14.7 L42.25 15.1 42.1 15.05 42.1 14.9 42.35 14.7 M41.9 17.3 L42.05 19.3 40.65 19.7 40.45 19.5 41.9 17.3 M39.2 20.2 L38.75 20.35 37.5 20.95 38.55 20.05 38.65 20.0 38.7 19.95 39.2 20.2 M41.65 15.6 L40.55 18.35 40.4 18.7 40.5 18.4 40.55 18.3 41.2 16.75 41.65 15.6 M40.35 18.8 L40.35 18.85 40.3 18.85 40.35 18.8 M39.4 19.45 L39.4 19.5 39.1 19.7 39.4 19.45" fill="#fcffff" fill-rule="evenodd" stroke="none"/>
      <path d="M39.8 11.75 L39.85 11.8 40.15 12.2 40.25 12.1 40.5 12.65 41.45 12.0 42.0 11.7 42.05 11.7 42.05 14.05 41.7 14.35 41.25 14.7 41.0 14.8 40.9 14.8 40.55 14.65 40.55 14.5 Q40.55 13.6 39.8 11.95 L39.8 11.9 39.8 11.75 M41.95 15.05 L41.65 15.6 41.2 16.75 40.55 18.3 40.5 18.4 40.35 18.4 40.1 18.3 40.05 18.3 39.95 18.25 40.1 18.05 40.05 18.0 40.25 17.45 40.4 17.2 40.7 16.4 41.15 15.35 41.95 15.05 M42.0 15.0 L42.1 14.9 42.1 15.05 42.0 15.0 M26.3 2.65 L26.45 2.6 27.0 2.35 27.25 3.1 27.3 3.25 27.35 3.35 27.5 3.8 27.35 3.75 27.35 3.9 26.9 3.9 26.65 3.9 26.3 3.8 26.1 3.8 25.55 3.7 24.25 3.4 24.15 3.4 24.15 3.35 24.9 3.4 25.7 2.9 25.75 2.9 25.85 2.85 26.3 2.65" fill="#23bdf9" fill-rule="evenodd" stroke="none"/>
      <path d="M33.95 19.95 L34.65 19.0 35.5 17.95 35.85 17.6 36.2 17.35 36.1 17.25 36.6 16.55 36.65 16.5 37.05 15.95 36.25 17.35 35.9 17.85 35.9 17.95 35.6 18.3 35.35 18.6 34.85 19.15 34.45 19.7 34.15 20.05 33.55 20.7 33.5 20.6 33.95 19.95 M32.65 22.6 L33.2 22.15 33.25 22.1 33.3 22.1 33.35 22.05 34.05 21.65 34.6 21.35 34.75 21.25 35.85 20.8 37.7 19.4 37.7 19.35 37.75 19.35 38.05 19.55 38.4 19.75 38.4 19.8 38.1 20.0 37.7 20.4 37.6 20.45 37.5 20.5 37.5 20.6 37.45 20.65 37.35 20.85 37.35 20.7 35.15 21.6 35.1 21.65 34.75 21.8 33.55 22.25 33.55 22.4 33.35 22.45 33.15 22.45 32.65 22.6 M31.6 22.95 L31.15 23.2 31.25 23.05 31.6 22.95" fill="#4cf7ff" fill-rule="evenodd" stroke="none"/>
      <path d="M37.7 19.35 L37.7 19.4 35.85 20.8 34.75 21.25 34.8 21.2 36.95 18.9 37.1 19.0 37.7 19.35" fill="#047ae8" fill-rule="evenodd" stroke="none"/>
      <path d="M36.15 18.2 L36.2 18.2 36.85 17.8 37.35 17.35 Q37.95 17.35 38.05 17.05 L38.05 16.6 38.4 17.0 38.45 17.05 37.05 18.8 36.95 18.9 36.5 18.6 36.1 18.3 36.05 18.25 36.15 18.2" fill="#0dbbff" fill-rule="evenodd" stroke="none"/>
      <path d="M19.8 0.35 L19.9 0.35 20.1 0.3 20.2 0.25 20.3 0.25 22.5 -0.25 22.6 -0.2 23.05 -0.15 24.4 -0.1 24.65 -0.1 26.1 -0.15 25.75 0.45 25.75 0.65 Q25.75 1.2 26.7 1.55 L26.9 1.6 26.75 1.75 26.8 1.8 26.8 1.85 26.85 1.9 26.9 2.05 26.75 2.2 26.7 2.2 Q26.0 2.0 25.4 1.6 L25.85 1.5 Q25.3 1.05 24.8 1.15 L24.6 0.95 24.6 0.85 24.55 0.85 24.55 0.55 24.3 0.25 24.0 0.6 Q23.75 0.35 23.3 0.2 L23.4 0.65 22.8 0.4 Q22.5 0.3 22.4 0.55 L21.5 0.4 21.35 0.35 21.3 0.35 21.1 0.35 20.35 0.5 19.5 0.75 19.4 0.8 19.35 0.8 19.2 0.9 19.4 0.75 19.85 0.45 19.8 0.35 M25.85 6.35 L25.3 6.45 25.2 6.35 25.3 6.2 25.35 6.1 25.45 6.2 25.85 6.35 M35.35 18.6 L35.6 18.3 35.9 17.95 35.55 18.45 35.35 18.65 35.35 18.6 M18.2 8.1 L18.2 8.15 17.9 8.3 17.85 8.35 17.7 8.45 17.6 8.5 17.5 8.55 18.2 8.1" fill="#fffcff" fill-rule="evenodd" stroke="none"/>
      <path d="M36.1 18.3 L36.5 18.6 36.95 18.9 34.8 21.2 34.75 21.25 34.6 21.35 34.05 21.65 33.35 22.05 33.3 22.1 33.25 22.1 33.2 22.15 32.65 22.6 31.6 22.95 31.25 23.05 31.5 22.85 31.95 22.35 32.05 22.3 32.1 22.4 33.55 21.2 33.5 21.1 33.55 21.1 34.3 20.35 34.7 19.95 34.95 19.65 35.05 19.4 35.05 19.35 35.15 19.45 35.85 18.6 36.1 18.3" fill="#0ea7f3" fill-rule="evenodd" stroke="none"/>
      <path d="M39.6 18.8 L39.95 18.8 39.95 18.9 39.4 19.45 39.1 19.7 38.7 19.9 38.4 19.75 39.1 19.2 39.6 18.8" fill="#2beffd" fill-rule="evenodd" stroke="none"/>
      <path d="M38.95 18.7 L39.6 18.8 39.1 19.2 38.4 19.75 38.05 19.55 38.7 18.95 38.95 18.7 M39.95 18.8 L40.25 18.85 40.35 18.8 40.3 18.85 40.2 19.05 39.95 18.9 39.95 18.8" fill="#58fcff" fill-rule="evenodd" stroke="none"/>
      <path d="M39.6 17.65 L39.6 17.75 39.55 17.9 39.45 18.0 39.6 17.65" fill="#41eeff" fill-rule="evenodd" stroke="none"/>
      <path d="M35.2 7.2 L35.4 7.3 36.4 8.1 36.45 8.1 36.85 8.45 36.9 8.5 36.7 8.35 37.75 9.4 37.9 9.55 37.95 9.5 38.2 9.75 38.3 9.9 38.5 10.1 38.45 10.15 38.5 10.15 38.5 10.2 38.7 10.5 39.65 12.6 39.9 13.25 39.95 13.5 40.0 13.65 40.0 13.75 40.1 14.05 40.25 14.55 40.3 14.75 40.35 15.0 Q40.1 15.45 39.95 16.3 L39.9 16.65 39.55 17.55 39.6 17.65 39.45 18.0 39.4 18.15 39.4 18.25 39.35 18.3 39.25 18.2 39.15 18.1 39.05 17.9 38.85 17.6 38.85 17.45 38.85 17.05 38.9 16.3 38.9 15.5 38.9 15.15 38.85 14.55 38.8 13.7 38.75 13.3 38.65 13.3 38.55 12.35 38.55 12.15 37.25 10.7 36.55 10.0 36.5 9.95 36.25 9.65 35.65 9.05 35.65 9.1 35.6 9.1 35.45 9.3 35.35 9.25 35.3 9.25 35.25 9.2 35.35 9.2 35.55 9.0 35.55 8.95 35.6 8.95 35.7 8.9 35.95 8.75 35.95 8.7 34.95 7.45 34.85 7.4 34.45 7.0 35.2 7.4 35.25 7.35 35.15 7.25 34.3 6.8 34.4 6.65 34.5 6.75 35.15 7.2 35.2 7.2 M31.45 5.1 L32.35 5.45 33.45 6.1 33.8 6.3 33.4 6.1 33.3 6.05 32.85 5.85 32.35 5.65 32.2 5.55 31.85 5.35 31.45 5.1" fill="#057ae3" fill-rule="evenodd" stroke="none"/>
      <path d="M38.8 13.7 L38.85 14.55 38.9 15.15 38.9 15.5 38.9 16.3 38.85 17.05 38.85 17.45 38.85 17.6 38.45 17.05 38.4 17.0 38.05 16.6 38.05 16.55 38.1 16.5 38.65 13.9 38.65 13.85 38.8 13.7" fill="#3cb1f5" fill-rule="evenodd" stroke="none"/>
      <path d="M38.05 16.55 L38.05 16.5 38.1 16.5 38.05 16.55" fill="#17d4fc" fill-rule="evenodd" stroke="none"/>
      <path d="M31.65 9.55 L31.75 9.6 35.15 11.9 35.55 12.75 36.1 14.05 36.1 14.1 36.0 15.2 36.0 15.75 35.8 16.0 35.6 16.2 35.55 16.25 34.85 16.8 34.8 16.8 34.75 16.9 34.45 17.1 35.2 15.55 35.4 14.75 35.4 14.65 35.4 14.3 35.4 14.25 35.4 13.75 34.85 12.5 34.65 12.05 34.6 12.0 34.3 11.7 34.25 11.65 33.85 11.3 33.35 10.9 33.3 10.9 33.2 10.8 33.15 10.75 32.8 10.55 32.8 10.5 32.65 10.45 32.5 10.3 32.45 10.3 32.45 10.25 31.2 9.5 31.2 9.45 31.65 9.55" fill="#0285f1" fill-rule="evenodd" stroke="none"/>
      <path d="M34.45 17.1 L34.75 16.9 34.8 16.8 34.85 16.8 35.55 16.25 35.6 16.2 35.8 16.0 36.0 15.75 35.95 16.3 36.05 16.45 35.25 17.55 35.2 17.55 35.15 17.6 34.9 17.95 34.95 18.0 34.2 18.8 33.65 19.35 33.7 18.65 34.1 17.85 34.45 17.1" fill="#1291f7" fill-rule="evenodd" stroke="none"/>
      <path d="M36.0 15.75 L36.0 15.2 36.1 14.1 36.35 15.1 36.4 15.2 36.0 15.75" fill="#0996f2" fill-rule="evenodd" stroke="none"/>
      <path d="M28.85 24.3 L29.85 23.8 30.8 23.35 30.9 23.3 31.15 23.2 31.6 22.95 32.65 22.6 33.15 22.45 33.35 22.45 33.45 22.7 33.1 22.9 32.85 23.1 32.9 23.15 32.35 23.45 31.25 24.1 30.25 24.8 30.0 25.0 29.95 25.0 30.25 24.45 29.6 24.75 29.3 24.9 29.05 25.1 28.5 25.45 27.95 26.0 27.95 26.05 27.8 26.05 27.75 26.0 26.8 26.1 26.2 26.05 26.35 25.9 26.8 25.35 28.85 24.3" fill="#0bacfc" fill-rule="evenodd" stroke="none"/>
      <path d="M30.0 25.0 L30.15 25.1 30.4 25.2 30.35 25.35 30.05 25.8 30.2 25.7 30.05 26.15 30.0 26.15 29.95 26.35 29.8 27.0 29.75 27.1 29.65 27.1 29.35 27.1 29.35 27.0 29.65 25.85 29.7 25.65 29.75 25.55 29.75 25.4 29.9 25.1 29.9 25.05 29.95 25.0 30.0 25.0" fill="#089eea" fill-rule="evenodd" stroke="none"/>
      <path d="M31.5 25.05 L30.7 25.6 30.05 26.15 30.2 25.7 30.8 25.35 31.15 25.1 31.4 24.9 31.5 25.05" fill="#f5ffff" fill-rule="evenodd" stroke="none"/>
      <path d="M30.5 25.25 L30.8 25.35 30.2 25.7 30.05 25.8 30.35 25.35 30.4 25.2 30.45 25.2 30.5 25.25" fill="#1b88cb" fill-rule="evenodd" stroke="none"/>
      <path d="M30.0 25.0 L30.25 24.8 31.25 24.1 32.35 23.45 32.9 23.15 32.85 23.1 33.1 22.9 33.45 22.7 33.6 23.2 32.7 23.8 30.75 25.1 30.5 25.25 30.45 25.2 30.4 25.2 30.15 25.1 30.0 25.0" fill="#1ccbf8" fill-rule="evenodd" stroke="none"/>
      <path d="M26.35 23.25 L26.3 23.15 26.6 22.7 26.7 22.55 26.75 22.5 26.8 22.15 26.8 22.0 26.85 22.0 26.9 21.65 26.95 21.15 26.85 20.85 26.85 20.8 26.8 20.8 26.8 20.7 26.75 20.65 26.8 20.6 26.9 20.55 27.0 20.45 28.15 20.05 28.45 19.95 28.6 19.95 28.65 19.9 29.6 19.65 30.55 19.4 30.65 19.35 31.35 19.1 32.15 18.9 32.4 18.85 32.55 18.85 32.5 18.75 32.85 18.4 32.9 18.35 33.2 18.1 33.4 17.95 34.15 17.35 34.45 17.1 34.1 17.85 33.7 18.65 33.15 19.55 32.85 19.9 30.3 21.15 29.35 21.65 26.9 22.95 26.8 23.0 26.75 23.0 26.75 23.05 26.55 23.15 26.4 23.2 26.35 23.25" fill="#0678eb" fill-rule="evenodd" stroke="none"/>
      <path d="M25.3 6.45 L25.1 6.45 25.15 6.35 25.2 6.35 25.3 6.45 M26.4 22.55 L26.25 22.7 26.1 22.9 26.1 22.6 26.15 22.45 26.25 22.3 26.35 22.25 26.4 22.5 26.4 22.55" fill="#a7ffff" fill-rule="evenodd" stroke="none"/>
      <path d="M26.45 21.05 L26.45 21.15 26.45 21.55 26.45 21.65 26.45 21.75 26.45 21.85 26.45 22.4 26.45 22.5 26.45 22.55 26.4 22.55 26.4 22.5 26.35 22.25 26.25 22.3 26.15 22.45 26.1 22.6 26.0 22.65 26.0 22.75 26.1 22.9 26.0 22.9 25.45 22.75 25.45 22.7 25.55 22.55 25.5 22.55 25.35 22.45 25.65 22.15 25.95 21.75 26.0 21.7 26.0 21.65 26.05 21.65 26.05 21.6 26.2 21.35 26.25 21.3 26.45 21.05" fill="#17c2ff" fill-rule="evenodd" stroke="none"/>
      <path d="M26.8 22.0 L26.7 21.65 26.65 21.2 26.6 20.95 26.6 20.85 26.65 20.7 26.75 20.6 26.75 20.65 26.8 20.7 26.8 20.8 26.85 20.8 26.85 20.85 26.95 21.15 26.9 21.65 26.85 22.0 26.8 22.0" fill="#0059ae" fill-rule="evenodd" stroke="none"/>
      <path d="M25.65 22.15 L25.55 22.15 25.55 22.05 25.4 21.9 25.7 21.65 25.85 21.4 25.9 21.3 26.0 21.15 26.1 21.2 26.05 21.5 26.05 21.6 26.0 21.6 26.0 21.65 26.0 21.7 25.95 21.75 25.65 22.15" fill="#0069af" fill-rule="evenodd" stroke="none"/>
      <path d="M26.6 20.85 L26.45 21.05 26.25 21.3 26.2 21.35 26.05 21.6 26.05 21.65 26.0 21.6 26.05 21.6 26.05 21.5 26.1 21.2 26.0 21.15 26.0 21.05 26.1 20.85 26.05 20.65 26.3 20.55 26.6 20.35 26.65 20.4 26.65 20.45 26.75 20.6 26.65 20.7 26.6 20.85" fill="#56d8ff" fill-rule="evenodd" stroke="none"/>
      <path d="M33.6 23.2 L33.7 23.5 31.65 24.75 31.4 24.9 31.15 25.1 30.8 25.35 30.5 25.25 30.75 25.1 32.7 23.8 33.6 23.2" fill="#6de2ec" fill-rule="evenodd" stroke="none"/>
      <path d="M33.35 22.45 L33.55 22.4 34.05 22.95 33.6 23.2 33.45 22.7 33.35 22.45" fill="#b9fcff" fill-rule="evenodd" stroke="none"/>
      <path d="M32.9 18.35 L32.85 18.4 32.5 18.75 32.55 18.85 32.4 18.85 32.15 18.9 32.2 18.55 32.85 18.3 32.9 18.3 32.9 18.35" fill="#63f3f4" fill-rule="evenodd" stroke="none"/>
      <path d="M30.55 19.4 L30.55 19.05 32.2 18.55 32.15 18.9 31.35 19.1 30.65 19.35 30.55 19.4" fill="#d5fff6" fill-rule="evenodd" stroke="none"/>
      <path d="M30.55 18.95 L30.7 18.3 31.4 17.95 31.85 17.8 31.9 17.75 32.4 17.25 32.45 17.2 32.7 16.95 32.75 17.0 32.85 17.3 32.9 17.35 33.0 17.6 33.1 17.8 Q32.8 17.9 32.45 18.1 L32.4 18.15 32.25 18.2 31.0 18.7 31.05 18.8 30.6 18.95 30.55 18.95" fill="#1cd1fe" fill-rule="evenodd" stroke="none"/>
      <path d="M30.55 19.05 L29.35 19.35 30.55 18.95 30.6 18.95 31.05 18.8 31.0 18.7 32.25 18.2 32.4 18.15 32.45 18.1 Q32.8 17.9 33.1 17.8 L33.2 18.05 33.2 18.1 32.9 18.35 32.9 18.3 32.85 18.3 32.2 18.55 30.55 19.05" fill="#004a9f" fill-rule="evenodd" stroke="none"/>
      <path d="M26.0 20.15 L26.15 20.0 26.2 20.0 26.1 19.9 26.0 19.8 26.05 19.75 26.2 19.7 26.25 19.65 26.6 19.5 27.1 19.35 27.2 19.35 27.4 19.3 27.7 19.3 27.75 19.25 27.75 19.15 27.65 19.1 27.85 19.1 27.95 19.1 28.05 19.05 28.4 19.0 28.5 18.95 29.2 18.9 29.65 18.85 29.85 18.8 30.1 18.6 30.35 18.45 30.7 18.3 30.55 18.95 29.35 19.35 30.55 19.05 30.55 19.4 29.6 19.65 28.65 19.9 28.6 19.95 28.45 19.7 28.3 19.55 28.1 19.55 27.75 19.6 27.5 19.75 27.3 19.8 27.3 19.75 26.45 20.05 26.35 20.1 26.3 20.1 26.1 20.15 26.0 20.15 M28.85 19.5 L28.55 19.5 28.55 19.6 28.85 19.5" fill="#0bdbff" fill-rule="evenodd" stroke="none"/>
      <path d="M33.55 20.25 L33.55 20.2 33.6 20.15 33.65 20.15 33.95 19.95 33.5 20.6 33.55 20.25 M34.45 19.7 L34.5 19.7 34.4 19.8 34.35 19.85 34.15 20.15 34.2 20.2 33.95 20.45 33.4 20.95 33.45 20.7 33.55 20.7 34.15 20.05 34.45 19.7" fill="#65e5ff" fill-rule="evenodd" stroke="none"/>
      <path d="M32.85 19.9 L33.15 19.55 33.7 18.65 33.65 19.35 33.65 19.5 33.45 19.6 33.3 19.65 32.85 19.9" fill="#0a9bec" fill-rule="evenodd" stroke="none"/>
      <path d="M33.4 17.95 L33.2 18.1 33.2 18.05 33.1 17.8 33.3 17.65 33.35 17.6 33.4 17.6 33.5 17.5 33.6 17.45 33.65 17.35 33.7 17.35 34.3 16.45 34.35 16.35 34.35 15.55 34.35 15.4 34.45 15.4 34.6 16.35 34.5 16.6 34.45 16.7 33.85 17.45 33.4 17.9 33.4 17.95" fill="#0064c4" fill-rule="evenodd" stroke="none"/>
      <path d="M35.4 14.75 L35.2 15.55 34.45 17.1 34.15 17.35 33.4 17.95 33.4 17.9 33.85 17.45 34.45 16.7 34.5 16.6 34.6 16.35 34.65 15.9 34.8 15.0 34.8 14.95 34.75 14.75 34.75 14.65 34.75 14.55 35.05 14.65 35.25 14.7 35.4 14.75" fill="#6effff" fill-rule="evenodd" stroke="none"/>
      <path d="M34.3 14.7 L34.35 15.4 34.35 15.55 34.35 16.35 34.3 16.45 33.7 17.35 33.65 17.35 33.6 17.45 33.5 17.5 33.4 17.6 33.35 17.6 33.3 17.65 33.1 17.8 33.0 17.6 32.9 17.35 33.1 17.05 33.15 17.15 33.45 16.55 33.65 16.1 34.3 14.7" fill="#17bcfe" fill-rule="evenodd" stroke="none"/>
      <path d="M32.7 16.95 L32.8 16.8 32.9 16.65 33.05 16.35 33.15 16.1 33.3 15.65 33.65 14.3 33.65 14.25 33.75 14.25 34.1 14.4 34.3 14.45 34.3 14.65 34.3 14.7 33.65 16.1 33.45 16.55 33.15 17.15 33.1 17.05 32.9 17.35 32.85 17.3 32.75 17.0 32.7 16.95" fill="#19d4ff" fill-rule="evenodd" stroke="none"/>
      <path d="M32.9 13.05 L33.05 12.7 33.1 12.75 33.1 12.8 33.15 12.8 33.15 12.9 33.25 13.35 33.2 13.4 33.25 13.65 33.2 13.65 33.2 13.75 33.2 13.85 33.2 14.0 33.2 14.2 33.65 14.3 33.2 14.45 33.2 15.05 33.15 16.1 33.05 16.35 32.9 16.65 32.85 16.45 32.7 16.05 32.65 16.0 32.8 15.35 32.8 15.3 32.8 15.15 32.8 15.1 32.7 15.15 32.3 14.25 32.55 13.8 32.9 13.1 32.9 13.05" fill="#fafffc" fill-rule="evenodd" stroke="none"/>
      <path d="M34.1 14.4 L34.15 14.3 34.4 14.5 34.4 14.45 34.75 14.55 34.75 14.65 34.75 14.75 34.8 14.95 34.8 15.0 34.65 15.9 34.6 16.35 34.45 15.4 34.35 15.4 34.3 14.7 34.3 14.65 34.3 14.45 34.1 14.4" fill="#0170d9" fill-rule="evenodd" stroke="none"/>
      <path d="M33.15 16.1 L33.2 15.05 33.2 14.45 33.65 14.3 33.3 15.65 33.15 16.1" fill="#3cddfa" fill-rule="evenodd" stroke="none"/>
      <path d="M26.55 20.3 L26.6 20.35 26.3 20.55 26.05 20.65 26.0 20.3 26.0 20.2 25.95 20.25 26.0 20.15 26.1 20.15 26.3 20.1 26.35 20.1 26.55 20.3" fill="#179eb4" fill-rule="evenodd" stroke="none"/>
      <path d="M27.3 19.8 Q27.2 19.9 27.05 19.95 L26.75 20.15 26.65 20.25 26.6 20.25 26.55 20.3 26.35 20.1 26.45 20.05 27.3 19.75 27.3 19.8" fill="#10e0ff" fill-rule="evenodd" stroke="none"/>
      <path d="M28.1 19.55 L28.1 19.75 28.15 20.05 27.0 20.45 26.9 20.55 26.8 20.6 26.75 20.65 26.75 20.6 26.65 20.45 26.65 20.4 26.6 20.35 26.55 20.3 26.6 20.25 26.65 20.25 26.75 20.15 27.05 19.95 Q27.2 19.9 27.3 19.8 L27.5 19.75 27.75 19.6 28.1 19.55" fill="#14befb" fill-rule="evenodd" stroke="none"/>
      <path d="M25.9 19.15 L25.85 19.1 25.9 19.1 25.9 19.15" fill="#3ec3d2" fill-rule="evenodd" stroke="none"/>
      <path d="M28.15 20.05 L28.1 19.75 28.1 19.55 28.3 19.55 28.45 19.7 28.6 19.95 28.45 19.95 28.15 20.05" fill="#c4f6ff" fill-rule="evenodd" stroke="none"/>
      <path d="M29.2 10.35 L29.2 10.4 29.15 10.4 29.1 10.45 28.95 10.45 28.75 10.6 28.7 10.6 27.9 11.1 Q27.2 11.55 26.85 11.9 L24.8 10.6 23.85 9.95 23.55 9.8 23.3 9.35 23.35 9.3 23.35 9.25 23.4 9.25 23.65 9.4 25.05 9.9 26.4 10.3 26.4 10.35 26.65 10.4 26.65 10.35 26.65 10.25 26.6 10.1 27.55 10.15 28.65 10.2 29.15 10.15 29.2 10.35 M22.35 10.25 L22.3 10.35 22.3 10.4 21.85 10.45 21.05 10.6 Q20.8 10.7 20.6 10.9 L20.6 10.95 20.55 10.95 20.2 11.2 20.15 11.1 20.4 10.75 20.65 10.4 20.75 10.3 20.65 10.35 20.6 10.25 20.5 10.15 20.35 9.95 20.4 9.9 20.75 10.1 20.85 10.2 20.75 10.3 21.25 10.2 21.45 10.15 22.35 10.25" fill="#dfffff" fill-rule="evenodd" stroke="none"/>
      <path d="M32.1 10.5 L31.55 10.95 31.5 11.0 31.25 10.8 Q30.3 10.25 29.5 10.25 L29.3 10.3 29.2 10.35 29.15 10.15 28.65 10.2 28.8 9.95 28.85 9.9 29.0 9.65 29.15 9.45 29.2 9.9 30.95 10.2 32.1 10.5" fill="#11aafa" fill-rule="evenodd" stroke="none"/>
      <path d="M26.7 8.0 L26.9 8.0 27.4 8.1 29.1 8.55 29.25 8.6 29.3 8.6 29.3 8.65 29.35 8.65 29.45 8.7 29.4 8.8 29.2 9.0 29.2 9.35 29.2 9.4 29.15 9.45 29.0 9.65 28.65 9.65 26.45 9.15 26.3 9.1 26.55 8.35 26.65 8.2 26.7 8.0" fill="#0a92f8" fill-rule="evenodd" stroke="none"/>
      <path d="M31.6 10.1 L31.85 10.25 32.15 10.45 32.1 10.5 30.95 10.2 29.2 9.9 29.15 9.45 29.2 9.4 29.2 9.35 30.25 9.65 31.6 10.1" fill="#06a3f4" fill-rule="evenodd" stroke="none"/>
      <path d="M28.5 7.75 L28.95 7.75 31.65 9.55 31.2 9.45 31.0 9.4 30.5 9.1 29.85 8.75 29.7 8.7 29.55 8.6 29.4 8.55 29.3 8.5 29.15 8.4 28.65 7.85 28.5 7.75" fill="#0780f1" fill-rule="evenodd" stroke="none"/>
      <path d="M32.3 10.5 L32.25 10.5 32.25 10.55 32.15 10.55 32.1 10.6 31.55 10.95 32.1 10.5 32.15 10.45 31.85 10.25 31.6 10.1 30.4 9.35 29.85 9.0 29.6 8.85 29.65 8.85 29.45 8.7 29.35 8.65 29.3 8.65 29.3 8.6 29.25 8.6 29.1 8.55 27.4 8.1 26.9 8.0 26.7 8.0 26.85 7.75 27.4 7.8 27.45 7.8 28.25 7.85 28.65 7.85 29.15 8.4 29.3 8.5 29.4 8.55 29.55 8.6 29.7 8.7 29.85 8.75 30.5 9.1 31.0 9.4 31.2 9.45 31.2 9.5 32.45 10.25 32.45 10.3 32.45 10.35 32.3 10.5 M32.55 10.65 L32.45 10.6 32.4 10.55 32.55 10.65 M33.05 12.7 L32.65 12.15 32.3 11.6 32.35 11.55 32.45 11.65 32.6 11.75 32.75 11.9 32.8 12.0 32.85 12.0 33.15 12.35 33.3 12.7 33.45 13.1 33.45 13.15 33.4 13.2 33.35 13.2 33.15 12.9 33.15 12.8 33.1 12.8 33.1 12.75 33.05 12.7 M26.55 8.35 L26.5 8.35 26.7 8.0 26.65 8.2 26.55 8.35" fill="#72ffff" fill-rule="evenodd" stroke="none"/>
      <path d="M29.45 8.7 L29.65 8.85 29.6 8.85 29.85 9.0 30.4 9.35 31.6 10.1 30.25 9.65 29.2 9.35 29.2 9.0 29.4 8.8 29.45 8.7" fill="#0897e5" fill-rule="evenodd" stroke="none"/>
      <path d="M22.6 8.4 L22.85 8.45 22.9 8.45 23.45 8.5 24.6 8.75 25.8 9.0 26.05 8.45 26.1 8.25 26.4 8.35 26.5 8.35 26.1 9.05 26.2 9.1 26.2 9.2 26.25 9.55 26.35 10.05 26.4 10.3 25.05 9.9 23.65 9.4 23.45 9.2 23.35 9.15 23.35 8.9 23.3 9.1 23.25 9.0 23.2 9.0 22.95 8.75 22.8 8.65 22.6 8.45 22.6 8.4 M26.45 9.15 L28.65 9.65 29.0 9.65 28.85 9.9 28.8 9.95 28.65 10.2 27.55 10.15 26.6 10.1 26.55 9.65 26.45 9.15" fill="#13bffd" fill-rule="evenodd" stroke="none"/>
      <path d="M26.4 10.3 L26.35 10.05 26.25 9.55 26.2 9.2 26.2 9.1 26.1 9.05 26.5 8.35 26.55 8.35 26.3 9.1 26.45 9.15 26.55 9.65 26.6 10.1 26.65 10.25 26.4 10.35 26.4 10.3 M26.1 8.25 L26.05 8.45 25.8 9.0 24.6 8.75 23.45 8.5 22.9 8.45 22.9 8.25 23.6 8.15 24.15 8.1 26.1 8.25" fill="#0888f3" fill-rule="evenodd" stroke="none"/>
      <path d="M26.65 10.25 L26.65 10.35 26.65 10.4 26.4 10.35 26.65 10.25" fill="#e3fff8" fill-rule="evenodd" stroke="none"/>
      <path d="M32.1 11.15 L32.25 11.0 32.3 10.95 32.35 11.0 32.4 11.0 33.15 11.9 33.7 12.6 33.75 12.8 33.95 13.8 33.95 13.9 33.6 13.8 33.6 13.75 33.55 13.45 33.45 13.15 33.45 13.1 33.3 12.7 33.15 12.35 32.85 12.0 32.8 12.0 32.75 11.9 32.6 11.75 32.45 11.65 32.35 11.55 32.35 11.45 32.25 11.35 32.15 11.25 32.1 11.2 32.1 11.15" fill="#11b9fa" fill-rule="evenodd" stroke="none"/>
      <path d="M34.7 14.1 L34.7 14.15 34.75 14.45 34.75 14.55 34.4 14.45 34.4 14.5 34.15 14.3 34.1 14.4 33.75 14.25 33.65 14.25 33.65 14.3 33.2 14.2 33.2 14.0 33.2 13.85 33.2 13.75 33.2 13.65 33.25 13.65 33.35 13.65 33.25 13.35 33.15 12.9 33.35 13.2 33.4 13.2 33.45 13.15 33.55 13.45 33.6 13.75 33.6 13.8 33.95 13.9 34.2 14.0 34.3 13.95 34.3 14.0 34.65 14.1 34.7 14.05 34.7 14.1" fill="#bce7ff" fill-rule="evenodd" stroke="none"/>
      <path d="M33.7 12.6 L33.5 11.55 33.95 12.1 33.95 12.15 34.0 12.2 34.1 12.3 34.35 12.65 34.4 12.85 34.45 12.95 34.5 13.25 34.6 13.55 34.65 13.95 34.7 14.05 34.65 14.1 34.3 14.0 34.3 13.95 34.2 14.0 33.95 13.9 33.95 13.8 33.75 12.8 33.7 12.6" fill="#0a8cfe" fill-rule="evenodd" stroke="none"/>
      <path d="M33.85 11.3 L34.25 11.65 34.3 11.7 34.6 12.0 34.65 12.05 34.85 12.5 35.4 13.75 35.4 14.25 35.4 14.3 35.4 14.65 35.4 14.75 35.25 14.7 35.05 14.65 34.75 14.55 34.75 14.45 34.7 14.15 34.7 14.1 35.0 14.2 34.35 12.15 34.2 11.8 34.2 11.75 33.85 11.3" fill="#0163ec" fill-rule="evenodd" stroke="none"/>
      <path d="M33.5 11.55 L34.0 12.05 34.05 12.0 34.05 11.95 34.15 11.75 34.2 11.8 34.35 12.15 35.0 14.2 34.7 14.1 34.7 14.05 34.65 13.95 34.6 13.55 34.5 13.25 34.45 12.95 34.4 12.85 34.35 12.65 34.1 12.3 34.0 12.2 33.95 12.15 33.95 12.1 33.5 11.55" fill="#6ff9ff" fill-rule="evenodd" stroke="none"/>
      <path d="M33.35 10.9 L33.85 11.3 34.2 11.75 34.15 11.75 34.05 11.95 34.05 12.0 34.0 12.05 33.5 11.55 33.45 11.35 33.35 10.9" fill="#e7ffff" fill-rule="evenodd" stroke="none"/>
      <path d="M32.3 10.95 L32.45 10.8 32.55 10.7 32.65 10.8 33.15 11.2 33.35 11.4 33.5 11.55 33.7 12.6 33.15 11.9 32.4 11.0 32.35 11.0 32.3 10.95" fill="#0b7ce4" fill-rule="evenodd" stroke="none"/>
      <path d="M32.55 10.7 L32.55 10.65 32.6 10.65 32.75 10.55 32.8 10.55 33.15 10.75 33.2 10.8 33.3 10.9 33.35 10.9 33.45 11.35 33.5 11.55 33.35 11.4 33.15 11.2 32.65 10.8 32.55 10.7" fill="#51d1ec" fill-rule="evenodd" stroke="none"/>
      <path d="M24.35 7.6 L25.6 7.1 26.95 6.35 28.0 7.25 29.5 7.55 30.8 7.8 30.85 7.8 31.9 8.6 32.5 9.1 33.0 9.5 33.05 9.55 33.15 9.6 33.5 9.85 34.2 10.45 34.75 11.0 35.0 11.25 35.3 11.35 35.4 11.45 35.95 12.4 35.15 11.9 31.75 9.6 31.65 9.55 28.95 7.75 28.5 7.75 27.25 7.7 24.35 7.6 M17.15 6.95 L17.35 6.95 19.95 6.8 20.05 6.8 20.15 7.0 18.3 7.4 17.9 7.5 Q17.1 7.5 16.75 7.8 L16.7 7.8 16.65 7.75 16.8 7.55 16.85 7.0 16.85 6.95 17.15 6.9 17.15 6.95" fill="#0dbcff" fill-rule="evenodd" stroke="none"/>
      <path d="M31.55 10.95 L32.1 10.6 32.15 10.55 32.25 10.55 32.25 10.5 32.3 10.5 32.4 10.55 32.45 10.6 32.55 10.65 32.55 10.7 32.45 10.8 32.3 10.95 32.25 11.0 32.1 11.15 32.05 11.25 32.05 11.2 31.95 11.2 31.55 10.95" fill="#67daff" fill-rule="evenodd" stroke="none"/>
      <path d="M32.3 10.5 L32.45 10.35 32.45 10.3 32.5 10.3 32.65 10.45 32.8 10.5 32.8 10.55 32.75 10.55 32.6 10.65 32.55 10.65 32.4 10.55 32.3 10.5" fill="#84f7ff" fill-rule="evenodd" stroke="none"/>
      <path d="M34.45 6.55 L34.45 6.6 34.4 6.65 34.3 6.8 35.15 7.25 35.25 7.35 35.2 7.4 34.45 7.0 34.85 7.4 34.95 7.45 35.95 8.7 35.95 8.75 35.7 8.9 35.6 8.95 35.55 8.95 35.55 9.0 35.35 9.2 33.65 7.65 Q32.5 6.7 31.85 6.45 L31.6 6.3 28.85 5.5 27.55 5.15 27.4 5.1 26.2 4.85 26.15 4.85 24.95 5.1 23.2 5.4 22.9 5.35 23.1 4.75 23.1 4.7 23.15 4.7 25.2 4.45 26.1 4.45 26.8 4.5 26.9 4.55 26.2 4.15 26.15 4.15 26.1 4.1 29.1 4.65 29.25 4.65 29.4 4.7 29.55 4.8 29.6 4.8 30.5 5.1 31.0 5.3 33.65 6.5 32.35 5.65 32.85 5.85 33.3 6.05 33.4 6.1 33.8 6.3 33.95 6.35 34.0 6.35 34.4 6.55 34.45 6.55 M26.9 3.9 L27.35 3.9 27.35 3.95 26.9 3.9" fill="#078fe3" fill-rule="evenodd" stroke="none"/>
      <path d="M32.35 5.65 L33.65 6.5 31.0 5.3 30.5 5.1 29.6 4.8 29.65 4.75 31.1 5.1 31.85 5.35 32.2 5.55 32.35 5.65 M29.35 4.15 L29.35 4.25 29.3 4.25 29.35 4.15" fill="#04a0ea" fill-rule="evenodd" stroke="none"/>
      <path d="M26.7 2.2 L26.75 2.2 26.9 2.05 26.95 2.25 26.7 2.2 M37.75 4.6 L37.9 4.9 39.6 7.65 39.9 8.25 39.9 8.4 39.9 8.9 39.9 9.2 40.0 9.1 40.25 9.65 40.45 9.7 40.45 9.9 40.45 10.25 40.45 10.35 40.0 10.2 39.95 10.2 39.7 9.5 39.6 9.55 39.8 9.0 39.55 8.55 39.45 8.65 39.45 8.55 39.3 8.25 39.3 8.2 39.0 7.7 38.75 7.25 37.7 5.6 37.55 5.5 36.9 5.0 36.75 5.05 36.4 5.2 36.7 4.65 36.6 4.45 36.5 4.5 36.5 4.3 36.75 4.45 37.05 4.6 37.0 4.9 37.25 4.8 37.75 4.6 M33.65 5.95 L33.85 6.0 34.2 6.25 34.25 6.25 34.45 6.55 34.4 6.55 34.0 6.35 33.95 6.35 33.8 6.3 33.45 6.1 33.65 5.95 M34.45 6.6 L34.95 7.05 35.15 7.2 34.5 6.75 34.4 6.65 34.45 6.6 M38.6 10.2 L38.65 10.35 38.55 10.2 38.6 10.2 M38.75 10.1 L38.8 10.05 38.85 10.2 38.75 10.1" fill="#fff9fe" fill-rule="evenodd" stroke="none"/>
      <path d="M35.65 5.8 L36.1 6.5 36.35 6.9 35.6 6.3 35.5 6.2 35.45 6.15 35.45 6.1 35.65 5.8 M35.85 7.5 L35.9 7.5 36.7 8.05 37.5 8.8 37.55 8.95 36.7 8.15 35.85 7.5" fill="#1ecff8" fill-rule="evenodd" stroke="none"/>
      <path d="M35.85 4.75 L34.85 5.25 Q33.7 5.9 33.1 5.65 L33.1 5.75 32.35 5.45 31.45 5.1 31.15 4.9 31.1 5.0 30.9 4.9 30.2 4.55 30.1 4.55 30.1 4.5 30.35 4.5 30.7 4.45 30.75 4.45 30.8 4.5 31.35 4.75 32.2 4.9 32.35 4.95 32.7 4.95 34.55 4.85 35.85 4.75 M33.85 6.0 L34.2 6.1 34.25 6.25 34.2 6.25 33.85 6.0" fill="#26ddff" fill-rule="evenodd" stroke="none"/>
      <path d="M29.6 2.0 L30.9 2.1 31.3 2.1 31.4 2.1 33.9 2.35 37.55 3.95 37.55 4.15 37.75 4.6 37.25 4.8 37.0 4.9 37.05 4.6 36.75 4.45 36.5 4.3 36.45 3.9 36.2 3.9 Q35.8 3.5 34.85 3.2 L34.8 3.45 34.65 3.35 34.2 3.15 33.55 2.9 32.95 2.8 33.25 2.65 33.1 2.4 32.8 2.3 Q31.5 2.2 30.5 2.65 L30.95 2.3 30.9 2.2 Q30.5 2.1 30.05 2.7 L30.0 2.65 29.8 2.45 29.6 2.3 30.35 2.25 30.35 2.1 29.6 2.0" fill="#fffaff" fill-rule="evenodd" stroke="none"/>
      <path d="M32.95 2.8 L33.55 2.9 34.2 3.15 Q33.6 3.4 32.75 3.8 L30.85 4.45 30.75 4.45 30.7 4.45 30.35 4.5 30.1 4.5 29.8 4.4 29.9 3.55 30.9 3.25 32.95 2.8" fill="#21c7f7" fill-rule="evenodd" stroke="none"/>
      <path d="M34.2 3.15 L34.65 3.35 34.8 3.45 35.85 4.75 34.55 4.85 32.7 4.95 32.35 4.95 32.2 4.9 31.35 4.75 30.8 4.5 30.75 4.45 30.85 4.45 32.75 3.8 Q33.6 3.4 34.2 3.15" fill="#20deff" fill-rule="evenodd" stroke="none"/>
      <path d="M22.8 8.15 L22.9 8.15 22.95 8.15 22.95 8.0 23.4 7.95 23.4 8.05 23.55 8.0 26.35 7.75 26.1 8.25 24.15 8.1 23.6 8.15 22.9 8.25 22.9 8.45 22.85 8.45 22.6 8.4 22.6 8.35 22.85 8.3 22.8 8.15" fill="#45d3f0" fill-rule="evenodd" stroke="none"/>
      <path d="M23.4 7.95 L24.35 7.6 27.25 7.7 28.5 7.75 28.65 7.85 28.25 7.85 27.45 7.8 27.4 7.8 26.85 7.75 26.6 7.75 26.35 7.75 23.55 8.0 23.4 8.05 23.4 7.95" fill="#0a83f6" fill-rule="evenodd" stroke="none"/>
      <path d="M35.4 10.6 L32.2 7.8 27.5 6.15 27.8 6.0 27.75 5.95 32.15 7.5 35.35 9.95 35.35 10.0 35.0 9.9 35.4 10.3 35.45 10.55 35.4 10.6" fill="#78f5ff" fill-rule="evenodd" stroke="none"/>
      <path d="M25.1 6.45 L20.5 7.45 20.45 7.35 24.5 6.1 24.55 6.05 24.65 6.1 24.95 6.0 25.2 6.0 25.35 6.1 25.3 6.2 25.2 6.35 25.15 6.35 25.1 6.45" fill="#6ae5ff" fill-rule="evenodd" stroke="none"/>
      <path d="M27.85 2.1 L28.4 2.2 28.95 2.3 27.85 2.1 M29.6 3.5 L29.35 4.15 29.05 4.05 29.15 3.95 29.35 3.95 29.35 3.85 29.5 3.65 29.6 3.5" fill="#46cff3" fill-rule="evenodd" stroke="none"/>
      <path d="M26.9 2.05 L26.85 1.9 26.95 1.9 27.05 1.9 27.2 1.95 27.85 2.1 28.95 2.3 29.4 2.3 29.6 2.3 29.8 2.45 30.0 2.65 30.05 2.7 29.85 3.05 29.6 3.5 29.5 3.65 29.35 3.85 29.35 3.95 29.15 3.95 28.95 3.9 28.5 3.9 27.9 3.9 27.5 3.9 27.35 3.9 27.35 3.75 27.5 3.8 27.35 3.35 27.3 3.25 27.25 3.1 27.0 2.35 27.0 2.3 26.95 2.25 26.9 2.05" fill="#2fe4ed" fill-rule="evenodd" stroke="none"/>
      <path d="M26.1 4.1 L26.15 4.15 26.2 4.15 26.9 4.55 26.8 4.5 26.1 4.45 25.2 4.45 23.15 4.7 23.1 4.7 22.95 4.75 22.85 4.75 21.7 5.05 21.65 5.0 21.55 5.1 21.5 5.1 21.35 5.15 21.1 5.3 19.95 5.8 19.35 6.05 19.3 5.95 19.2 5.85 18.25 5.8 17.05 6.6 17.0 6.6 17.0 6.65 16.85 6.7 16.8 6.6 16.6 6.45 16.45 6.35 16.5 6.25 17.8 5.1 18.3 4.9 18.4 4.85 18.6 4.8 20.95 4.1 21.05 4.1 21.45 4.1 21.9 3.9 22.7 3.8 22.8 3.8 22.9 3.8 22.95 3.85 23.0 3.8 23.9 3.95 25.6 4.05 25.9 4.1 26.05 4.1 26.1 4.1" fill="#0059d8" fill-rule="evenodd" stroke="none"/>
      <path d="M25.6 4.05 L25.9 4.05 25.9 4.1 25.6 4.05 M26.0 3.9 L25.55 3.7 26.1 3.8 26.1 3.9 26.0 3.9" fill="#60f7ff" fill-rule="evenodd" stroke="none"/>
      <path d="M25.05 1.7 L25.8 2.3 26.2 2.6 26.3 2.65 25.85 2.85 25.75 2.9 25.7 2.9 24.9 3.4 24.15 3.35 23.95 2.65 24.15 2.35 25.05 1.7" fill="#26d8f2" fill-rule="evenodd" stroke="none"/>
      <path d="M35.15 11.9 L35.95 12.4 36.35 13.1 36.6 13.55 36.6 13.7 36.1 14.1 36.1 14.05 35.55 12.75 35.15 11.9" fill="#09a7f6" fill-rule="evenodd" stroke="none"/>
      <path d="M36.6 12.9 L35.95 11.55 35.8 11.25 35.8 10.95 35.9 11.05 36.6 12.7 36.7 13.1 36.6 12.9" fill="#28cdf0" fill-rule="evenodd" stroke="none"/>
      <path d="M36.55 10.0 L37.25 10.7 38.55 12.15 38.55 12.35 38.65 13.3 38.75 13.3 38.8 13.7 38.65 13.85 38.65 13.9 38.6 13.9 38.45 14.1 38.45 14.25 37.25 12.05 37.3 12.0 36.9 11.4 36.4 10.45 36.5 10.2 36.55 10.0" fill="#0789e7" fill-rule="evenodd" stroke="none"/>
      <path d="M35.3 11.35 L35.45 11.4 35.55 11.35 35.45 10.65 35.8 10.95 35.8 11.25 35.95 11.55 36.6 12.9 36.6 12.95 36.6 13.55 36.35 13.1 35.95 12.4 35.4 11.45 35.3 11.35" fill="#45d2fd" fill-rule="evenodd" stroke="none"/>
      <path d="M40.45 10.35 L40.55 10.4 40.75 10.45 41.55 10.7 41.75 11.1 42.05 11.65 42.05 11.7 42.0 11.7 41.45 12.0 40.5 12.65 40.25 12.1 40.15 12.2 39.85 11.8 39.8 11.75 39.75 11.35 Q39.95 11.15 39.95 10.4 L39.95 10.2 40.0 10.2 40.45 10.35" fill="#31eaff" fill-rule="evenodd" stroke="none"/>
      <path d="M38.65 10.35 L38.7 10.5 38.5 10.2 38.55 10.2 38.65 10.35" fill="#62fff4" fill-rule="evenodd" stroke="none"/>
      <path d="M37.75 9.4 L37.8 9.4 37.9 9.5 37.95 9.5 37.9 9.55 37.75 9.4 M38.5 10.1 L38.55 10.2 38.5 10.2 38.5 10.15 38.45 10.15 38.5 10.1" fill="#006eda" fill-rule="evenodd" stroke="none"/>
      <path d="M39.3 8.2 L39.3 8.25 39.45 8.55 39.45 8.65 39.2 8.95 38.75 9.2 38.1 8.95 37.3 7.85 38.05 7.95 39.3 8.2 M37.5 8.8 L38.0 9.3 37.8 9.15 37.75 9.15 37.6 9.0 37.55 9.0 37.55 8.95 37.5 8.8" fill="#1edcf4" fill-rule="evenodd" stroke="none"/>
      <path d="M38.0 9.3 L38.15 9.55 37.8 9.15 38.0 9.3 M38.75 10.1 L38.7 10.05 38.8 10.05 38.75 10.1" fill="#08b7fa" fill-rule="evenodd" stroke="none"/>
      <path d="M36.4 5.2 L36.75 5.05 36.9 5.0 37.55 5.5 37.7 5.6 38.75 7.25 39.0 7.7 39.3 8.2 38.05 7.95 37.3 7.85 37.15 7.65 36.35 6.9 36.1 6.5 35.65 5.8 35.7 5.75 35.9 5.6 36.4 5.2" fill="#2be7f2" fill-rule="evenodd" stroke="none"/>
      <path d="M26.85 1.9 L26.8 1.85 26.8 1.8 26.75 1.75 26.9 1.6 27.65 1.65 29.6 2.0 30.35 2.1 30.35 2.25 29.6 2.3 29.4 2.3 28.95 2.3 28.4 2.2 27.85 2.1 27.2 1.95 27.05 1.9 26.95 1.9 26.85 1.9" fill="#fff6ff" fill-rule="evenodd" stroke="none"/>
      <path d="M12.85 4.3 L13.55 4.6 13.5 4.65 12.7 6.9 12.1 8.85 11.75 8.85 10.15 8.65 Q9.5 8.65 9.5 9.2 L9.5 9.25 9.35 9.2 9.35 9.0 9.6 8.4 Q10.1 7.25 11.1 6.0 12.0 4.85 12.75 4.35 L12.85 4.3" fill="#2de7fc" fill-rule="evenodd" stroke="none"/>
      <path d="M11.45 14.85 L12.4 14.55 12.45 14.55 13.0 14.7 12.4 14.75 12.0 14.8 11.45 14.85" fill="#64d4f9" fill-rule="evenodd" stroke="none"/>
      <path d="M12.35 10.4 L13.2 11.3 13.45 11.75 13.1 12.3 Q12.7 13.25 11.9 13.8 L11.2 14.2 12.35 10.4 M13.45 10.7 L13.5 10.8 13.35 10.65 13.45 10.7" fill="#17c6fb" fill-rule="evenodd" stroke="none"/>
      <path d="M19.8 0.35 L19.85 0.45 19.4 0.75 19.2 0.9 19.1 1.05 Q18.85 1.4 18.75 1.9 L18.75 2.1 18.75 2.15 18.8 2.8 18.85 2.85 18.9 2.9 19.65 3.2 20.15 3.45 20.4 3.45 20.45 3.6 21.65 3.4 22.65 2.6 22.9 2.25 23.2 1.9 23.2 1.6 23.0 1.25 22.35 0.55 22.4 0.55 Q22.5 0.3 22.8 0.4 L23.4 0.65 23.3 0.2 Q23.75 0.35 24.0 0.6 L24.3 0.25 24.55 0.55 24.55 0.85 24.5 1.0 24.65 1.2 24.8 1.15 Q25.3 1.05 25.85 1.5 L25.4 1.6 25.05 1.7 24.15 2.35 23.95 2.65 24.15 3.35 24.15 3.4 24.25 3.4 25.55 3.7 26.0 3.9 26.1 4.0 26.1 4.05 25.9 4.05 25.6 4.05 23.9 3.95 23.0 3.8 22.95 3.85 22.9 3.8 22.8 3.8 22.25 3.8 22.1 3.8 21.9 3.9 21.45 4.1 21.05 4.1 20.95 4.1 20.85 4.1 20.65 4.1 20.2 4.15 19.95 4.1 19.65 4.1 19.0 4.1 18.75 3.9 18.75 4.0 18.4 4.05 18.35 4.05 18.3 4.05 18.25 3.85 18.35 3.35 18.35 3.25 18.35 3.15 18.3 2.75 18.3 2.5 18.15 2.15 17.9 1.7 17.6 1.5 17.6 1.45 15.65 2.15 Q14.95 2.45 14.2 2.95 L14.05 3.05 13.15 3.65 Q13.9 3.85 14.85 4.85 L14.9 4.9 15.05 5.1 15.1 5.1 15.5 5.35 15.75 5.4 17.0 5.15 17.1 5.15 18.6 4.25 18.65 4.3 18.2 4.75 17.8 5.1 16.5 6.25 16.45 6.35 16.2 6.6 15.9 6.9 15.9 6.95 15.9 7.1 15.85 7.4 15.0 8.85 14.25 9.9 14.2 9.9 14.0 10.1 14.1 10.1 14.15 10.45 14.15 10.5 14.2 10.85 14.4 11.4 14.3 11.8 14.45 12.0 14.45 13.2 14.5 13.5 14.45 13.8 14.4 13.9 14.45 14.05 14.6 14.45 15.25 16.7 15.3 16.85 15.35 17.1 15.4 17.35 15.35 17.6 15.2 17.6 14.5 15.85 Q14.15 15.15 13.25 14.75 L13.1 14.7 13.0 14.7 12.45 14.55 12.4 14.55 11.45 14.85 11.05 14.95 9.65 15.2 9.45 15.2 8.75 15.05 8.75 14.9 11.2 14.2 11.9 13.8 Q12.7 13.25 13.1 12.3 L13.45 11.75 13.2 11.3 12.35 10.4 12.05 10.2 11.75 10.05 Q10.05 10.05 9.65 9.6 L9.15 9.5 9.15 9.35 9.5 9.3 9.5 9.25 9.5 9.2 Q9.5 8.65 10.15 8.65 L11.75 8.85 12.1 8.85 13.1 8.75 13.2 8.7 13.8 8.55 14.4 7.7 Q14.7 7.0 15.1 6.65 L15.05 6.55 14.4 5.75 13.55 4.6 12.85 4.3 12.1 4.1 11.95 4.05 11.9 4.0 11.85 3.9 14.4 2.2 16.95 0.7 18.45 0.45 19.5 0.35 19.8 0.3 19.8 0.35 M42.55 14.15 L42.55 14.3 42.35 14.7 42.1 14.9 42.0 15.0 41.95 15.05 41.15 15.35 40.7 16.4 40.4 17.2 40.25 17.45 40.05 18.0 40.1 18.05 39.95 18.25 39.7 18.4 39.45 18.35 39.4 18.25 39.4 18.15 39.45 18.0 39.55 17.9 39.6 17.75 39.6 17.65 39.55 17.55 39.9 16.65 39.95 16.3 Q40.1 15.45 40.35 15.0 L40.3 14.75 40.25 14.55 39.9 13.25 39.65 12.6 38.7 10.5 38.65 10.35 38.6 10.2 38.5 9.9 38.2 9.6 38.15 9.55 38.0 9.3 37.5 8.8 36.7 8.05 35.9 7.5 35.85 7.5 35.4 7.3 35.2 7.2 35.15 7.2 34.95 7.05 34.45 6.6 34.45 6.55 34.25 6.25 34.2 6.1 33.85 6.0 33.65 5.95 33.1 5.75 33.1 5.65 Q33.7 5.9 34.85 5.25 L35.85 4.75 34.8 3.45 34.85 3.2 Q35.8 3.5 36.2 3.9 L36.45 3.9 36.5 4.3 36.5 4.5 36.6 4.45 36.7 4.65 36.4 5.2 35.9 5.6 35.7 5.75 35.65 5.8 35.45 6.1 35.45 6.15 35.5 6.2 35.6 6.3 36.35 6.9 37.15 7.65 37.3 7.85 38.1 8.95 38.75 9.2 39.2 8.95 39.45 8.65 39.55 8.55 39.8 9.0 39.6 9.55 39.7 9.5 39.95 10.2 39.95 10.4 Q39.95 11.15 39.75 11.35 L39.8 11.75 39.8 11.9 39.8 11.95 Q40.55 13.6 40.55 14.5 L40.55 14.65 40.9 14.8 41.0 14.8 41.25 14.7 41.7 14.35 42.05 14.05 42.5 14.05 42.55 14.15 M20.55 27.5 Q20.6 27.4 20.7 27.4 L21.0 27.35 21.55 27.15 21.55 27.4 21.45 28.05 21.65 28.6 21.6 28.8 21.75 28.85 21.8 28.9 21.95 28.75 22.1 28.65 22.2 28.55 22.75 27.3 22.8 27.2 23.45 25.95 24.0 25.25 24.1 24.9 23.65 24.35 23.4 24.15 23.15 24.0 22.5 23.6 22.15 23.35 22.35 23.35 22.4 23.35 22.9 23.35 23.15 23.35 23.25 23.35 23.9 23.5 24.35 23.65 24.85 23.85 24.9 23.9 24.95 23.85 25.15 24.0 25.4 24.2 25.95 24.5 26.15 24.55 26.25 24.55 27.9 23.5 Q30.1 22.2 31.75 22.2 L31.0 22.65 30.8 22.75 Q30.2 23.05 29.35 23.5 L29.55 23.5 29.7 23.5 28.85 24.3 26.8 25.35 26.7 25.35 26.15 25.4 26.1 25.4 26.0 25.4 25.85 25.55 25.65 25.7 25.25 26.15 25.0 26.4 24.35 27.4 24.1 28.2 23.7 29.5 23.65 29.55 23.35 30.35 23.4 30.5 23.4 30.8 23.4 30.9 23.5 31.3 23.45 31.5 23.4 31.6 23.35 31.65 23.4 31.65 23.95 31.95 24.0 31.95 24.85 32.7 25.05 32.8 25.9 33.05 25.6 32.65 25.75 32.55 25.9 32.6 26.65 32.95 27.25 33.15 27.35 33.2 28.35 33.5 28.8 33.65 29.1 33.75 29.2 33.75 29.75 33.95 29.85 33.4 29.95 32.8 30.0 32.65 30.05 32.6 30.1 32.55 30.05 32.45 30.0 32.35 29.8 31.8 29.85 31.85 29.9 31.9 29.9 31.95 30.05 32.05 30.05 32.1 30.1 32.15 30.15 32.2 30.25 32.35 30.3 32.35 30.3 32.4 30.35 32.4 30.7 32.9 31.3 33.8 31.5 34.25 31.55 34.4 31.6 34.5 31.65 34.7 31.75 35.4 32.2 35.65 32.35 35.7 33.15 36.5 Q33.15 36.9 32.75 36.9 L31.8 36.45 31.8 36.65 Q31.8 37.3 31.45 37.3 L31.35 37.4 31.1 37.45 31.05 37.45 30.95 37.35 30.3 37.4 30.05 37.35 29.45 37.45 Q28.75 37.45 28.7 37.15 L28.65 37.05 28.95 36.5 28.95 36.45 28.85 35.9 28.4 35.1 28.1 34.75 27.8 34.5 27.65 34.4 26.65 33.9 25.85 33.6 24.75 33.15 24.8 33.15 26.05 33.55 26.45 33.7 26.1 33.55 25.6 33.3 24.95 33.0 24.75 33.05 24.25 32.95 23.65 32.7 22.3 32.1 22.05 32.0 21.95 31.95 21.85 31.9 21.6 31.8 21.45 31.8 20.4 31.4 20.1 31.25 18.65 30.9 18.4 31.3 18.15 31.45 17.55 31.55 Q17.05 31.55 17.05 31.1 L17.45 29.65 Q17.8 29.05 18.65 28.45 L18.9 28.6 18.85 28.85 18.75 30.05 19.35 30.1 21.45 30.75 21.55 30.65 21.7 30.45 21.7 30.2 21.85 29.55 21.6 29.4 21.1 29.1 20.2 28.55 20.2 28.35 20.65 28.5 20.6 28.4 20.55 28.25 20.5 28.05 20.45 27.85 20.55 27.5 M30.05 2.7 Q30.5 2.1 30.9 2.2 L30.95 2.3 30.5 2.65 Q31.5 2.2 32.8 2.3 L33.1 2.4 33.25 2.65 32.95 2.8 30.9 3.25 29.9 3.55 29.8 4.4 29.8 4.7 29.65 4.75 29.6 4.8 29.55 4.8 29.4 4.7 29.3 4.55 29.35 4.25 29.35 4.15 29.6 3.5 29.85 3.05 30.05 2.7 M27.5 6.15 L26.25 6.35 25.85 6.35 25.45 6.2 25.35 6.1 25.2 6.0 24.95 6.0 23.0 6.35 21.25 6.85 24.7 5.35 Q26.45 4.65 27.75 5.95 L27.8 6.0 27.5 6.15 M35.4 10.3 L35.0 9.9 35.35 10.0 35.65 10.15 35.95 10.4 36.15 10.65 Q36.75 11.35 37.25 12.75 38.05 14.9 38.05 16.5 L38.05 16.55 38.05 16.6 38.05 17.05 Q37.95 17.35 37.35 17.35 L36.85 17.8 36.2 18.2 36.15 18.2 35.9 17.95 35.9 17.85 36.25 17.35 37.05 15.95 37.05 15.8 36.7 13.1 36.6 12.7 35.9 11.05 35.4 10.3 M38.8 10.05 L38.7 10.05 38.75 10.1 38.85 10.2 38.8 10.05 M15.85 5.95 L15.75 5.9 15.8 5.95 15.9 5.95 15.85 5.95 M15.9 5.95 L16.0 5.95 15.9 5.95 M18.75 3.5 L18.75 3.45 18.7 3.4 18.75 3.5 M13.45 10.7 L13.35 10.65 13.5 10.8 13.45 10.7 M17.9 7.5 L18.55 7.55 18.55 7.5 18.75 7.7 18.2 8.1 17.5 8.55 17.25 8.75 17.1 9.2 17.05 9.5 16.55 10.75 16.35 11.0 16.25 10.7 16.4 8.95 16.4 8.85 16.45 8.5 16.55 8.15 16.75 7.85 16.75 7.8 Q17.1 7.5 17.9 7.5" fill="#fefffa" fill-rule="evenodd" stroke="none"/>
      <path d="M14.2 10.85 L14.15 10.5 14.15 10.45 14.1 10.1 14.2 9.9 14.25 9.9 15.0 8.85 15.85 7.4 15.9 7.55 16.55 7.15 16.4 7.3 15.95 7.85 15.95 8.6 15.95 11.4 15.35 11.2 14.7 11.0 14.6 11.0 14.6 10.55 14.6 10.2 14.5 10.2 14.55 10.15 14.45 10.15 14.2 10.1 14.2 10.5 14.35 10.5 14.2 10.85 M15.9 6.95 L15.9 6.9 16.2 6.6 16.45 6.35 16.6 6.45 16.2 6.7 15.9 6.95" fill="#077be0" fill-rule="evenodd" stroke="none"/>
      <path d="M15.05 6.55 L15.1 6.65 Q14.7 7.0 14.4 7.7 L13.8 8.55 14.35 7.65 15.05 6.55" fill="#13b1fa" fill-rule="evenodd" stroke="none"/>
      <path d="M14.4 5.75 L15.05 6.55 14.35 7.65 13.8 8.55 13.2 8.7 13.1 8.75 14.35 5.8 14.4 5.75" fill="#18b7f9" fill-rule="evenodd" stroke="none"/>
      <path d="M13.55 4.6 L14.4 5.75 14.35 5.8 13.1 8.75 12.1 8.85 12.7 6.9 13.5 4.65 13.55 4.6" fill="#21d8ff" fill-rule="evenodd" stroke="none"/>
      <path d="M17.9 1.7 L18.15 2.15 18.3 2.5 18.3 2.75 18.25 2.75 15.65 3.65 14.85 4.85 Q13.9 3.85 13.15 3.65 L14.05 3.05 14.2 2.95 Q14.95 2.45 15.65 2.15 L17.6 1.45 17.6 1.5 17.75 1.75 17.9 1.7" fill="#27e0ff" fill-rule="evenodd" stroke="none"/>
      <path d="M18.35 3.25 L18.35 3.35 18.25 3.85 18.3 4.05 18.35 4.05 18.3 4.1 17.8 4.5 17.4 4.85 17.1 5.1 17.1 5.15 17.0 5.15 15.75 5.4 15.5 5.35 15.55 5.3 15.65 5.2 16.25 4.75 16.3 4.65 18.05 3.4 18.35 3.25 M15.8 5.95 L15.75 5.9 15.85 5.95 15.8 5.95 M15.9 5.95 L16.0 5.95 15.9 5.95" fill="#0da8f8" fill-rule="evenodd" stroke="none"/>
      <path d="M14.85 4.85 L15.65 3.65 18.25 2.75 18.35 3.25 18.05 3.4 16.3 4.65 16.25 4.75 15.65 5.2 15.55 5.3 15.5 5.35 15.1 5.1 15.05 5.1 14.9 4.9 14.85 4.85" fill="#1fd4ff" fill-rule="evenodd" stroke="none"/>
      <path d="M15.95 11.4 L15.95 8.6 16.15 8.7 16.4 8.85 16.4 8.95 16.25 10.7 16.35 11.0 16.55 10.75 16.5 11.0 16.5 11.45 16.5 11.6 16.5 12.4 16.5 12.7 16.6 12.75 16.55 12.8 16.5 12.8 16.5 12.9 16.2 13.25 16.05 13.45 15.95 11.4" fill="#0bb4f7" fill-rule="evenodd" stroke="none"/>
      <path d="M17.1 9.2 L17.15 9.2 17.15 9.25 16.95 10.65 16.8 12.3 16.8 12.35 16.75 12.35 16.65 12.5 16.6 12.55 16.5 12.7 16.5 12.4 16.5 11.6 16.5 11.45 16.5 11.0 16.55 10.75 17.05 9.5 17.1 9.2" fill="#62d4ff" fill-rule="evenodd" stroke="none"/>
      <path d="M20.55 10.95 L20.55 11.0 20.25 11.55 Q20.1 12.05 20.1 12.65 L20.15 13.4 20.2 13.65 20.1 13.65 19.95 13.7 19.9 13.8 19.8 13.7 19.6 13.55 Q19.25 13.25 18.9 13.2 L18.8 13.2 18.85 13.15 18.85 13.1 18.95 13.0 19.4 13.2 19.8 13.35 19.7 12.45 19.7 12.4 20.0 11.45 20.2 11.2 20.55 10.95" fill="#b5edff" fill-rule="evenodd" stroke="none"/>
      <path d="M18.85 13.1 L18.9 13.0 18.95 12.85 18.95 12.8 19.2 12.2 19.5 11.5 19.5 11.45 Q19.6 10.85 20.35 9.95 L20.5 10.15 20.6 10.25 20.65 10.35 20.65 10.4 20.4 10.75 20.15 11.1 20.2 11.2 20.0 11.45 19.7 12.4 19.7 12.45 19.8 13.35 19.4 13.2 18.95 13.0 18.85 13.1" fill="#0fb3fa" fill-rule="evenodd" stroke="none"/>
      <path d="M20.4 9.9 L20.35 9.95 Q19.6 10.85 19.5 11.45 L19.5 11.5 19.2 12.2 18.95 12.8 18.95 12.85 18.9 13.0 18.85 13.1 18.85 13.15 18.8 13.2 18.7 13.3 18.7 13.2 18.65 13.25 18.6 13.2 18.55 13.25 18.55 12.95 18.65 13.0 18.95 11.95 19.3 10.95 19.8 10.15 20.15 9.7 20.3 9.8 20.35 9.85 20.4 9.85 20.4 9.9" fill="#057bf7" fill-rule="evenodd" stroke="none"/>
      <path d="M20.85 7.85 L21.35 8.2 21.7 8.45 21.75 8.45 20.85 8.85 20.35 9.45 20.15 9.7 19.8 10.15 19.3 10.95 Q18.7 11.8 18.65 12.15 L18.6 12.85 18.4 12.8 18.25 11.9 18.05 11.05 18.45 9.9 18.7 9.2 19.85 8.45 20.85 7.85" fill="#0169f0" fill-rule="evenodd" stroke="none"/>
      <path d="M19.3 10.95 L18.95 11.95 18.65 13.0 18.55 12.95 18.6 12.85 18.65 12.15 Q18.7 11.8 19.3 10.95" fill="#6dfaff" fill-rule="evenodd" stroke="none"/>
      <path d="M20.5 7.45 L20.5 7.7 20.85 7.85 19.85 8.45 18.7 9.2 18.45 9.9 18.05 11.05 17.9 10.45 17.75 9.95 17.75 9.9 17.85 9.65 18.2 9.0 18.5 8.35 18.6 8.25 18.65 8.15 18.7 8.15 18.8 7.85 19.1 7.75 19.15 7.75 20.5 7.45" fill="#0179f1" fill-rule="evenodd" stroke="none"/>
      <path d="M20.45 7.35 L20.5 7.45 19.15 7.75 19.2 7.7 20.45 7.35 M18.5 8.35 L18.2 9.0 17.85 9.65 17.75 9.9 17.65 9.55 17.6 9.35 18.1 8.85 18.5 8.35" fill="#00b3f9" fill-rule="evenodd" stroke="none"/>
      <path d="M15.95 8.6 L15.95 7.85 16.4 7.3 16.55 7.15 16.75 7.05 16.85 7.0 16.8 7.55 16.65 7.75 16.7 7.8 16.75 7.8 16.75 7.85 16.5 8.0 16.55 8.15 16.45 8.5 16.4 8.85 16.15 8.7 15.95 8.6" fill="#09b3ff" fill-rule="evenodd" stroke="none"/>
      <path d="M23.55 9.8 L23.5 9.8 23.0 9.25 22.95 9.2 22.7 8.95 22.25 8.45 22.6 8.35 22.6 8.4 22.6 8.45 22.8 8.65 22.95 8.75 23.2 9.0 23.25 9.0 23.3 9.1 23.35 8.9 23.35 9.15 23.45 9.2 23.65 9.4 23.4 9.25 23.35 9.25 23.35 9.3 23.3 9.35 23.55 9.8" fill="#0890f5" fill-rule="evenodd" stroke="none"/>
      <path d="M23.0 9.25 L22.5 10.05 Q22.25 9.85 22.05 9.8 L22.5 9.25 22.6 9.05 22.7 8.95 22.95 9.2 23.0 9.25" fill="#09c7fb" fill-rule="evenodd" stroke="none"/>
      <path d="M22.5 10.05 L22.35 10.25 21.45 10.15 21.25 10.2 20.75 10.3 20.85 10.2 21.05 10.05 Q21.4 9.75 21.8 9.75 L22.05 9.8 Q22.25 9.85 22.5 10.05" fill="#19afec" fill-rule="evenodd" stroke="none"/>
      <path d="M21.75 8.45 L22.55 8.2 22.8 8.15 22.85 8.3 22.6 8.35 22.25 8.45 22.7 8.95 22.6 9.05 22.5 9.0 22.0 8.65 21.75 8.45" fill="#dae4fb" fill-rule="evenodd" stroke="none"/>
      <path d="M22.6 9.05 L22.5 9.25 22.05 9.8 21.8 9.75 Q21.4 9.75 21.05 10.05 L20.9 9.95 20.6 9.7 20.7 9.55 20.95 9.6 21.3 9.5 21.35 9.5 22.1 9.2 22.5 9.0 22.6 9.05" fill="#0690f5" fill-rule="evenodd" stroke="none"/>
      <path d="M20.7 9.55 L21.0 9.25 21.2 9.1 21.3 9.05 22.0 8.65 22.5 9.0 22.1 9.2 21.35 9.5 21.3 9.5 20.95 9.6 20.7 9.55" fill="#0071e9" fill-rule="evenodd" stroke="none"/>
      <path d="M20.35 9.45 L20.65 9.55 20.65 9.5 20.7 9.55 20.6 9.7 20.45 9.9 20.4 9.9 20.4 9.85 20.35 9.85 20.3 9.8 20.15 9.7 20.35 9.45" fill="#a1f5f6" fill-rule="evenodd" stroke="none"/>
      <path d="M21.05 10.05 L20.85 10.2 20.75 10.1 20.4 9.9 20.45 9.9 20.6 9.7 20.9 9.95 21.05 10.05" fill="#218cde" fill-rule="evenodd" stroke="none"/>
      <path d="M22.0 8.65 L21.3 9.05 21.2 9.1 21.0 9.25 20.7 9.55 20.65 9.5 20.65 9.55 20.35 9.45 20.85 8.85 21.75 8.45 22.0 8.65" fill="#58d0ff" fill-rule="evenodd" stroke="none"/>
      <path d="M23.1 4.7 L23.1 4.75 22.9 5.35 23.2 5.4 23.3 5.45 22.85 5.55 21.55 6.0 20.05 6.8 19.95 6.8 17.35 6.95 17.15 6.95 17.3 6.85 Q17.55 6.7 17.95 6.55 L18.6 6.3 19.35 6.05 19.95 5.8 21.1 5.3 21.35 5.15 21.5 5.1 21.55 5.1 21.65 5.0 21.7 5.05 22.85 4.75 22.95 4.75 23.1 4.7" fill="#0c81e8" fill-rule="evenodd" stroke="none"/>
      <path d="M24.55 0.85 L24.6 0.85 24.6 0.95 24.8 1.15 24.65 1.2 24.5 1.0 24.55 0.85" fill="#fefaff" fill-rule="evenodd" stroke="none"/>
      <path d="M21.65 3.4 L20.45 3.6 20.95 3.5 21.65 3.4" fill="#198fcd" fill-rule="evenodd" stroke="none"/>
      <path d="M21.9 3.9 L22.1 3.8 22.25 3.8 22.8 3.8 22.7 3.8 21.9 3.9" fill="#56faff" fill-rule="evenodd" stroke="none"/>
      <path d="M18.95 2.5 L19.0 2.5 20.4 2.35 22.5 2.25 22.9 2.25 22.65 2.6 21.65 3.4 20.95 3.5 19.6 2.9 19.0 2.65 18.95 2.6 18.95 2.5" fill="#19cefb" fill-rule="evenodd" stroke="none"/>
      <path d="M19.65 4.1 L19.95 4.1 20.2 4.15 20.65 4.1 20.85 4.1 20.95 4.1 18.6 4.8 18.4 4.85 18.3 4.9 17.8 5.1 18.2 4.75 18.35 4.65 18.65 4.5 18.75 4.45 19.65 4.1" fill="#046ccd" fill-rule="evenodd" stroke="none"/>
      <path d="M19.35 6.05 L18.6 6.3 17.95 6.55 Q17.55 6.7 17.3 6.85 L17.15 6.95 17.15 6.9 16.85 6.95 16.85 7.0 16.75 7.05 16.55 7.15 15.9 7.55 15.85 7.4 15.9 7.1 15.9 6.95 16.2 6.7 16.6 6.45 16.8 6.6 16.85 6.7 17.0 6.65 17.0 6.6 17.05 6.6 18.25 5.8 19.2 5.85 19.3 5.95 19.35 6.05" fill="#0170dc" fill-rule="evenodd" stroke="none"/>
      <path d="M18.75 3.45 L18.75 3.5 18.7 3.4 18.75 3.45" fill="#1fd1ef" fill-rule="evenodd" stroke="none"/>
      <path d="M19.65 4.1 L18.75 4.45 18.65 4.5 18.35 4.65 18.2 4.75 18.65 4.3 18.6 4.25 17.1 5.15 17.1 5.1 17.4 4.85 17.8 4.5 18.3 4.1 18.35 4.05 18.4 4.05 18.75 4.0 18.75 3.9 19.0 4.1 19.65 4.1 M18.75 3.45 L18.75 3.5 18.75 3.45" fill="#dbffff" fill-rule="evenodd" stroke="none"/>
      <path d="M20.45 3.6 L20.4 3.45 20.15 3.45 19.65 3.2 18.9 2.9 18.95 2.6 19.0 2.65 19.6 2.9 20.95 3.5 20.45 3.6" fill="#1dc0f9" fill-rule="evenodd" stroke="none"/>
      <path d="M18.9 2.9 L18.85 2.85 18.8 2.8 18.75 2.15 18.75 2.1 18.75 1.9 Q18.85 1.4 19.1 1.05 L19.05 1.7 18.95 2.5 18.95 2.6 18.9 2.9" fill="#36f0fc" fill-rule="evenodd" stroke="none"/>
      <path d="M19.2 0.9 L19.35 0.8 19.4 0.8 19.5 0.75 20.35 0.5 21.1 0.35 21.3 0.35 21.35 0.35 21.5 0.4 22.4 0.55 22.35 0.55 23.0 1.25 23.2 1.6 23.2 1.9 22.9 2.25 22.5 2.25 20.4 2.35 19.0 2.5 18.95 2.5 19.05 1.7 19.1 1.05 19.2 0.9" fill="#39f8f3" fill-rule="evenodd" stroke="none"/>
      <path d="M18.25 2.75 L18.3 2.75 18.35 3.15 18.35 3.25 18.25 2.75" fill="#1cdafa" fill-rule="evenodd" stroke="none"/>
      <path d="M17.9 1.7 L17.75 1.75 17.6 1.5 17.9 1.7" fill="#31daed" fill-rule="evenodd" stroke="none"/>
    </g>
  </defs>
</svg>
