<?xml version="1.0" encoding="UTF-8" standalone="no"?>
<svg xmlns:ffdec="https://www.free-decompiler.com/flash" xmlns:xlink="http://www.w3.org/1999/xlink" ffdec:objectType="frame" height="30.1px" width="30.0px" xmlns="http://www.w3.org/2000/svg">
  <g transform="matrix(1.0, 0.0, 0.0, 1.0, 0.0, 0.0)">
    <use ffdec:characterId="1" height="30.0" transform="matrix(1.0, 0.0, 0.0, 1.0, 0.0, 0.0)" width="30.0" xlink:href="#shape0"/>
    <use ffdec:characterId="5" height="30.0" transform="matrix(1.0, 0.0, 0.0, 1.0, 0.0, 0.1)" width="30.0" xlink:href="#sprite0"/>
  </g>
  <defs>
    <g id="shape0" transform="matrix(1.0, 0.0, 0.0, 1.0, 0.0, 0.0)">
      <path d="M0.0 0.0 L30.0 0.0 30.0 30.0 0.0 30.0 0.0 0.0" fill="#33cc66" fill-opacity="0.0" fill-rule="evenodd" stroke="none"/>
    </g>
    <g id="sprite0" transform="matrix(1.0, 0.0, 0.0, 1.0, 0.0, 0.0)">
      <use ffdec:characterId="2" height="30.0" transform="matrix(1.0, 0.0, 0.0, 1.0, 0.0, 0.0)" width="30.0" xlink:href="#shape1"/>
      <filter id="filter0">
        <feColorMatrix in="SourceGraphic" result="filterResult0" type="matrix" values="0 0 0 0 1.0,0 0 0 0 1.0,0 0 0 0 1.0,0 0 0 1 0"/>
        <feConvolveMatrix divisor="9.0" in="filterResult0" kernelMatrix="1 1 1 1 1 1 1 1 1" order="3 3" result="filterResult1"/>
        <feComposite in="SourceGraphic" in2="filterResult1" operator="over" result="filterResult2"/>
      </filter>
      <use ffdec:characterId="4" filter="url(#filter0)" height="30.4" transform="matrix(0.8694, 0.0, 0.0, 0.8694, 4.6735, 2.0284)" width="25.75" xlink:href="#sprite1"/>
    </g>
    <g id="shape1" transform="matrix(1.0, 0.0, 0.0, 1.0, 0.0, 0.0)">
      <path d="M27.95 0.15 Q30.0 0.7 30.0 3.3 L30.0 26.7 29.8 28.15 Q29.15 30.0 26.7 30.0 L3.3 30.0 2.4 29.95 Q0.7 29.65 0.2 28.15 L0.0 26.7 0.0 3.3 Q0.0 0.7 2.05 0.15 L2.4 0.1 3.3 0.0 26.7 0.0 27.95 0.15" fill="#cccccc" fill-rule="evenodd" stroke="none"/>
    </g>
    <g id="sprite1" transform="matrix(1.0, 0.0, 0.0, 1.0, -2.5, 0.6)">
      <use ffdec:characterId="3" height="30.4" transform="matrix(1.0, 0.0, 0.0, 1.0, 2.5, -0.6)" width="25.75" xlink:href="#shape2"/>
    </g>
    <g id="shape2" transform="matrix(1.0, 0.0, 0.0, 1.0, -2.5, 0.6)">
      <path d="M24.8 21.75 L25.25 22.7 25.05 22.9 24.9 23.05 24.65 22.9 24.55 22.9 24.75 22.65 24.75 22.6 24.5 21.9 24.8 21.75 M20.2 21.35 L20.2 21.45 20.2 21.6 20.05 21.55 20.15 21.35 20.2 21.35 M3.0 21.85 L3.25 21.45 3.35 21.35 3.35 21.3 3.75 20.8 3.95 20.55 4.3 20.55 4.05 20.85 3.6 21.5 3.55 21.65 3.5 21.7 3.35 21.9 3.25 22.05 3.25 22.15 3.0 21.85 M4.35 20.5 L4.35 20.55 4.3 20.55 4.35 20.5" fill="#d2ffff" fill-rule="evenodd" stroke="none"/>
      <path d="M24.25 23.2 L24.45 23.4 24.15 23.65 24.1 23.65 23.5 24.35 23.35 24.2 23.3 24.15 23.75 23.7 24.25 23.2" fill="#e2ffff" fill-rule="evenodd" stroke="none"/>
      <path d="M12.4 2.75 L12.25 3.1 12.35 3.4 10.2 4.2 10.05 4.3 7.75 5.35 Q7.0 4.8 7.0 4.3 L7.2 3.6 Q7.75 2.55 10.05 1.35 L11.2 2.15 12.4 2.75" fill="#021e50" fill-rule="evenodd" stroke="none"/>
      <path d="M7.75 6.55 Q6.9 6.55 6.35 6.2 5.7 5.8 5.7 5.2 5.7 4.55 6.4 4.0 L7.2 3.6 7.0 4.3 Q7.0 4.8 7.75 5.35 L7.35 5.6 7.75 6.55" fill="#011435" fill-rule="evenodd" stroke="none"/>
      <path d="M10.05 1.35 L10.8 0.95 Q12.25 0.25 13.7 -0.2 L15.45 -0.6 13.6 0.85 13.25 1.25 12.55 2.2 12.4 2.75 11.2 2.15 10.05 1.35" fill="#04235c" fill-rule="evenodd" stroke="none"/>
      <path d="M11.7 5.25 Q11.05 5.55 11.05 6.0 L11.1 6.25 10.0 6.45 9.5 6.25 Q8.35 5.8 7.75 5.35 L10.05 4.3 10.2 4.2 10.85 4.75 11.7 5.25" fill="#002a72" fill-rule="evenodd" stroke="none"/>
      <path d="M12.35 3.4 Q12.5 3.95 13.25 4.35 L14.0 4.65 13.1 4.85 11.7 5.25 10.85 4.75 10.2 4.2 12.35 3.4" fill="#001d53" fill-rule="evenodd" stroke="none"/>
      <path d="M12.65 5.8 L12.2 5.9 11.9 5.95 11.75 6.05 11.1 6.25 11.05 6.0 Q11.05 5.55 11.7 5.25 L12.65 5.6 12.65 5.65 12.65 5.8" fill="#002561" fill-rule="evenodd" stroke="none"/>
      <path d="M15.5 5.8 L15.9 6.45 14.6 7.15 14.0 7.55 13.5 7.15 11.9 5.95 12.2 5.9 12.65 5.8 13.9 5.75 15.5 5.8" fill="#0145b4" fill-rule="evenodd" stroke="none"/>
      <path d="M14.0 4.65 L15.5 5.2 17.2 5.95 15.5 5.8 13.9 5.75 12.65 5.8 12.65 5.65 12.65 5.6 11.7 5.25 13.1 4.85 14.0 4.65" fill="#062f7f" fill-rule="evenodd" stroke="none"/>
      <path d="M10.0 6.45 L7.9 6.55 7.75 6.55 7.35 5.6 7.75 5.35 Q8.35 5.8 9.5 6.25 L10.0 6.45" fill="#001c4c" fill-rule="evenodd" stroke="none"/>
      <path d="M15.5 5.8 L17.2 5.95 17.7 6.25 18.45 7.15 18.5 7.3 18.3 7.15 18.2 7.15 17.0 6.7 16.9 6.7 16.55 7.15 16.35 7.45 16.25 7.15 15.95 6.55 15.9 6.45 15.5 5.8" fill="#00378c" fill-rule="evenodd" stroke="none"/>
      <path d="M24.4 11.15 Q25.25 11.95 26.0 13.2 L26.1 13.3 Q27.1 15.05 27.1 16.45 L26.35 17.1 26.1 16.55 25.9 16.15 24.7 14.1 23.05 13.15 23.6 12.55 24.4 11.15" fill="#001228" fill-rule="evenodd" stroke="none"/>
      <path d="M18.95 6.25 L20.2 6.55 22.1 7.15 22.75 7.45 22.85 7.45 23.0 7.55 23.15 7.7 23.0 7.7 22.8 7.75 Q22.4 7.85 22.15 8.1 L22.15 8.15 21.1 7.9 20.25 7.8 19.9 7.3 19.8 7.15 18.95 6.25" fill="#002963" fill-rule="evenodd" stroke="none"/>
      <path d="M23.15 7.7 Q24.2 8.45 24.5 9.45 L23.6 8.85 23.0 8.5 22.75 8.4 22.65 8.35 22.35 8.2 22.15 8.15 22.15 8.1 Q22.4 7.85 22.8 7.75 L23.0 7.7 23.15 7.7" fill="#002761" fill-rule="evenodd" stroke="none"/>
      <path d="M24.5 9.45 L24.5 9.5 24.55 10.1 24.4 11.15 23.55 10.6 23.0 10.35 23.25 10.1 23.0 9.65 23.0 9.6 22.95 9.5 22.85 9.35 22.65 8.4 22.65 8.35 22.75 8.4 23.0 8.5 23.6 8.85 24.5 9.45" fill="#01265b" fill-rule="evenodd" stroke="none"/>
      <path d="M22.65 8.35 L22.65 8.4 22.85 9.35 22.55 9.5 22.15 9.65 21.05 10.25 20.8 10.4 20.35 9.5 20.4 9.5 20.55 9.35 20.45 9.35 20.4 9.25 20.45 9.05 20.75 9.0 20.25 7.8 21.1 7.9 22.15 8.15 22.35 8.2 22.65 8.35" fill="#00317c" fill-rule="evenodd" stroke="none"/>
      <path d="M22.85 9.35 L22.95 9.5 23.0 9.6 23.0 9.65 23.25 10.1 23.0 10.35 23.0 10.4 22.1 10.95 21.3 11.3 21.25 11.15 20.8 10.4 21.05 10.25 22.15 9.65 22.55 9.5 22.85 9.35" fill="#003988" fill-rule="evenodd" stroke="none"/>
      <path d="M19.75 7.85 L19.9 8.4 20.3 9.5 20.35 9.5 18.25 10.85 18.2 10.85 18.0 10.7 17.9 10.55 17.8 10.4 18.35 9.5 18.55 8.95 18.65 8.5 18.7 8.1 18.5 7.3 19.5 7.85 19.65 7.85 19.75 7.85" fill="#015bd5" fill-rule="evenodd" stroke="none"/>
      <path d="M17.2 5.95 L18.95 6.25 19.8 7.15 19.9 7.3 20.25 7.8 20.2 7.8 19.75 7.85 19.65 7.85 19.5 7.85 18.5 7.3 18.45 7.15 17.7 6.25 17.2 5.95" fill="#013ca0" fill-rule="evenodd" stroke="none"/>
      <path d="M20.25 7.8 L20.75 9.0 20.45 9.05 20.4 9.25 20.45 9.35 20.55 9.35 20.4 9.5 20.35 9.5 20.3 9.5 19.9 8.4 19.75 7.85 20.2 7.8 20.25 7.8" fill="#0443a0" fill-rule="evenodd" stroke="none"/>
      <path d="M18.5 7.3 L18.7 8.1 18.65 8.5 17.85 8.4 16.6 8.15 16.35 7.45 16.55 7.15 16.9 6.7 17.0 6.7 18.2 7.15 18.3 7.15 18.5 7.3" fill="#0046b0" fill-rule="evenodd" stroke="none"/>
      <path d="M18.55 8.95 L18.35 9.5 17.8 10.4 17.75 10.35 17.5 10.1 17.4 9.95 17.35 9.95 17.4 9.85 17.35 9.85 17.0 9.7 Q16.85 9.7 16.8 9.8 L16.75 9.8 16.75 9.5 16.75 9.05 16.7 8.6 18.55 8.95" fill="#0361db" fill-rule="evenodd" stroke="none"/>
      <path d="M16.75 9.8 L16.8 9.8 Q16.85 9.7 17.0 9.7 L17.35 9.85 17.4 9.85 17.35 9.95 17.4 9.95 17.5 10.1 17.3 10.25 17.25 10.25 17.2 10.2 17.0 10.2 16.85 10.1 16.75 9.95 16.75 9.8" fill="#14f8e9" fill-rule="evenodd" stroke="none"/>
      <path d="M18.65 8.5 L18.55 8.95 16.7 8.6 16.6 8.25 16.6 8.15 17.85 8.4 18.65 8.5" fill="#005acc" fill-rule="evenodd" stroke="none"/>
      <path d="M20.35 9.5 L20.8 10.4 20.45 10.7 20.3 10.7 20.15 10.8 19.15 11.45 18.95 11.6 18.8 11.5 18.55 11.25 18.45 11.15 18.2 10.85 18.25 10.85 20.35 9.5" fill="#035ec7" fill-rule="evenodd" stroke="none"/>
      <path d="M20.3 10.7 L20.45 10.7 20.8 10.4 21.25 11.15 21.3 11.3 20.95 11.4 20.6 11.55 20.45 11.15 20.35 10.8 20.3 10.7" fill="#0148a0" fill-rule="evenodd" stroke="none"/>
      <path d="M20.3 10.7 L20.35 10.8 20.45 11.15 20.6 11.55 20.2 11.65 19.7 12.65 19.15 11.85 19.1 11.7 18.95 11.6 19.15 11.45 20.15 10.8 20.3 10.7" fill="#045ed9" fill-rule="evenodd" stroke="none"/>
      <path d="M20.6 11.55 L20.95 11.4 21.3 11.3 22.0 12.2 21.05 12.9 20.9 12.95 20.75 12.05 20.6 11.55" fill="#003f93" fill-rule="evenodd" stroke="none"/>
      <path d="M19.7 12.65 L20.2 11.65 20.6 11.55 20.75 12.05 20.9 12.95 20.9 13.4 20.9 13.5 20.45 13.55 20.4 13.55 20.35 13.4 20.15 13.1 19.7 12.65" fill="#0666d4" fill-rule="evenodd" stroke="none"/>
      <path d="M17.8 10.4 L17.9 10.55 17.8 10.55 17.7 10.55 17.5 10.55 17.25 10.25 17.3 10.25 17.5 10.1 17.75 10.35 17.8 10.4" fill="#0eeeff" fill-rule="evenodd" stroke="none"/>
      <path d="M12.5 10.9 L12.75 10.85 13.8 10.65 14.8 10.4 15.1 10.3 15.9 10.15 16.75 10.1 16.85 10.1 17.0 10.2 17.2 10.2 17.25 10.25 17.5 10.55 17.1 10.4 17.0 10.4 16.75 10.4 16.45 10.5 16.35 10.55 16.1 10.6 14.9 10.85 14.8 10.85 14.45 10.95 13.95 11.0 12.5 11.35 12.15 11.4 12.1 11.45 12.0 11.45 12.0 11.4 12.5 10.95 12.5 10.9" fill="#0062ed" fill-rule="evenodd" stroke="none"/>
      <path d="M16.8 10.8 L16.75 10.75 16.75 10.7 16.5 10.55 16.45 10.5 16.75 10.4 17.0 10.4 17.1 10.4 17.5 10.55 17.65 10.65 17.75 10.75 17.75 10.8 18.0 11.0 18.05 11.1 18.15 11.15 18.35 11.3 18.45 11.55 18.7 11.85 19.1 12.35 19.4 12.8 19.2 12.65 18.9 12.4 18.45 12.05 18.35 11.95 18.25 11.9 18.05 11.75 17.5 11.3 17.4 11.2 17.25 11.1 17.2 11.05 16.8 10.8" fill="#0561de" fill-rule="evenodd" stroke="none"/>
      <path d="M17.9 10.55 L18.0 10.7 18.2 10.85 18.45 11.15 18.15 11.15 18.05 11.1 18.0 11.0 17.75 10.8 17.75 10.75 17.65 10.65 17.5 10.55 17.7 10.55 17.8 10.55 17.9 10.55" fill="#13c4ff" fill-rule="evenodd" stroke="none"/>
      <path d="M16.8 10.8 L17.2 11.05 17.25 11.1 17.4 11.2 17.5 11.3 17.45 11.3 17.2 11.4 17.0 11.3 16.85 11.15 16.7 11.05 16.35 10.8 16.5 10.85 16.75 10.85 16.8 10.8" fill="#16dbfe" fill-rule="evenodd" stroke="none"/>
      <path d="M16.5 11.3 L16.1 11.3 15.15 11.3 14.9 11.3 14.15 11.4 14.05 11.4 13.0 11.5 12.65 11.55 12.25 11.6 12.05 11.65 11.9 11.65 12.15 11.6 12.25 11.6 12.6 11.5 14.0 11.25 14.2 11.15 14.8 11.05 16.3 10.8 16.35 10.8 16.7 11.05 16.85 11.15 17.0 11.3 17.2 11.4 16.95 11.4 16.7 11.3 16.6 11.3 16.5 11.3" fill="#0160f0" fill-rule="evenodd" stroke="none"/>
      <path d="M18.3 13.0 L17.85 12.8 17.2 12.6 15.95 12.35 15.4 12.3 15.05 12.3 14.65 12.35 14.45 12.3 14.4 12.3 15.05 11.95 15.05 12.0 15.1 12.05 15.1 12.1 15.25 12.15 15.3 12.2 15.4 12.2 15.55 12.15 15.6 12.0 15.4 11.8 16.5 11.3 16.6 11.3 16.7 11.3 16.95 11.4 17.2 11.4 17.65 11.7 18.35 12.2 18.45 12.3 18.55 12.4 18.75 12.55 18.7 12.6 18.3 13.0" fill="#009bee" fill-rule="evenodd" stroke="none"/>
      <path d="M17.5 11.3 L18.05 11.75 18.25 11.9 18.35 11.95 18.45 12.05 18.9 12.4 18.75 12.55 18.55 12.4 18.45 12.3 18.35 12.2 17.65 11.7 17.2 11.4 17.45 11.3 17.5 11.3" fill="#21b4ff" fill-rule="evenodd" stroke="none"/>
      <path d="M18.95 11.6 L19.1 11.7 19.15 11.85 19.7 12.65 19.1 12.35 18.7 11.85 18.45 11.55 18.35 11.3 18.15 11.15 18.45 11.15 18.55 11.25 18.8 11.5 18.95 11.6" fill="#009df2" fill-rule="evenodd" stroke="none"/>
      <path d="M19.4 13.25 L19.8 13.55 20.2 13.95 20.55 14.45 20.65 14.6 20.8 14.85 21.1 15.2 20.95 15.2 20.65 14.9 20.6 14.8 19.9 14.1 19.3 13.6 19.0 13.4 18.3 13.0 18.7 12.6 18.75 12.55 19.1 12.9 19.3 13.05 19.35 13.1 19.4 13.25" fill="#0089e7" fill-rule="evenodd" stroke="none"/>
      <path d="M19.7 13.1 L19.4 13.25 19.35 13.1 19.3 13.05 19.1 12.9 18.75 12.55 18.9 12.4 19.2 12.65 19.4 12.8 19.5 12.9 19.65 13.1 19.7 13.1" fill="#0ae1e6" fill-rule="evenodd" stroke="none"/>
      <path d="M20.15 13.1 L20.0 13.1 19.75 13.1 19.7 13.1 19.65 13.1 19.5 12.9 19.4 12.8 19.1 12.35 19.7 12.65 20.15 13.1" fill="#00b7f3" fill-rule="evenodd" stroke="none"/>
      <path d="M21.1 15.45 L20.9 15.2 20.6 14.95 20.6 14.9 19.6 14.25 18.65 13.7 18.55 13.7 18.45 13.65 18.35 13.6 18.35 13.55 17.95 13.45 15.9 13.1 13.65 13.3 13.6 13.3 12.4 13.6 11.9 13.8 11.8 13.8 12.15 13.55 12.2 13.55 12.65 13.25 13.0 13.05 13.45 12.8 13.65 12.65 14.4 12.3 14.45 12.3 14.65 12.35 15.05 12.3 15.4 12.3 15.95 12.35 17.2 12.6 17.85 12.8 18.3 13.0 19.0 13.4 19.3 13.6 19.9 14.1 20.6 14.8 20.65 14.9 20.95 15.2 21.1 15.45" fill="#01b8f4" fill-rule="evenodd" stroke="none"/>
      <path d="M20.45 13.55 L20.85 14.2 21.4 15.15 21.1 15.2 20.8 14.85 20.65 14.6 20.55 14.45 20.2 13.95 19.8 13.55 19.4 13.25 19.7 13.1 19.75 13.1 20.0 13.1 20.15 13.1 20.35 13.4 20.4 13.55 20.45 13.55" fill="#07fee9" fill-rule="evenodd" stroke="none"/>
      <path d="M23.05 13.15 L23.0 13.2 22.6 13.55 21.5 13.5 20.9 13.5 20.9 13.4 20.9 12.95 21.05 12.9 22.0 12.2 22.85 13.05 23.0 13.1 23.05 13.15" fill="#01387b" fill-rule="evenodd" stroke="none"/>
      <path d="M20.9 13.5 L20.95 14.0 20.95 14.15 20.85 14.2 20.45 13.55 20.9 13.5" fill="#008ee7" fill-rule="evenodd" stroke="none"/>
      <path d="M23.0 10.35 L23.55 10.6 23.0 11.3 22.5 11.8 22.0 12.2 21.3 11.3 22.1 10.95 23.0 10.4 23.0 10.35" fill="#003077" fill-rule="evenodd" stroke="none"/>
      <path d="M23.55 10.6 L24.4 11.15 23.6 12.55 23.05 13.15 23.0 13.1 22.85 13.05 22.0 12.2 22.5 11.8 23.0 11.3 23.55 10.6" fill="#052b6a" fill-rule="evenodd" stroke="none"/>
      <path d="M20.9 13.5 L21.5 13.5 22.6 13.55 22.25 13.85 Q22.8 14.4 22.85 15.3 L22.65 15.15 Q21.8 14.3 20.95 14.0 L20.9 13.5" fill="#02458c" fill-rule="evenodd" stroke="none"/>
      <path d="M26.35 17.1 L26.1 17.35 25.95 17.5 25.75 17.75 25.5 17.5 24.1 15.9 Q23.2 14.75 23.0 14.1 L22.85 13.7 22.95 13.6 22.6 13.55 23.0 13.2 23.05 13.15 24.7 14.1 25.9 16.15 26.1 16.55 26.35 17.1" fill="#011c3a" fill-rule="evenodd" stroke="none"/>
      <path d="M25.75 17.75 L25.6 18.0 25.25 17.65 25.1 17.5 23.5 16.2 23.45 16.1 23.0 15.45 22.85 15.3 Q22.8 14.4 22.25 13.85 L22.6 13.55 22.95 13.6 22.85 13.7 23.0 14.1 Q23.2 14.75 24.1 15.9 L25.5 17.5 25.75 17.75" fill="#003d69" fill-rule="evenodd" stroke="none"/>
      <path d="M20.95 14.0 Q21.8 14.3 22.65 15.15 L22.85 15.3 22.85 15.55 22.55 16.75 22.4 16.95 22.25 16.6 22.15 16.5 22.2 16.5 21.65 15.55 21.55 15.35 21.4 15.15 20.85 14.2 20.95 14.15 20.95 14.0" fill="#0072bb" fill-rule="evenodd" stroke="none"/>
      <path d="M21.1 15.2 L21.4 15.15 21.55 15.35 21.65 15.55 22.2 16.5 22.15 16.5 21.85 16.5 21.15 15.3 21.1 15.3 21.1 15.2" fill="#06e9fa" fill-rule="evenodd" stroke="none"/>
      <path d="M22.85 15.3 L23.0 15.45 23.45 16.1 23.5 16.2 23.5 16.3 24.1 17.5 24.3 18.15 24.5 18.85 23.1 17.5 23.0 17.4 22.55 16.75 22.85 15.55 22.85 15.3" fill="#035881" fill-rule="evenodd" stroke="none"/>
      <path d="M23.5 16.2 L25.1 17.5 25.25 17.65 25.6 18.0 25.1 18.9 25.05 19.2 25.0 19.55 25.0 19.75 24.95 19.7 24.6 19.35 24.55 19.3 24.5 18.9 24.5 18.85 24.3 18.15 24.1 17.5 23.5 16.3 23.5 16.2" fill="#02436d" fill-rule="evenodd" stroke="none"/>
      <path d="M21.75 16.5 L21.85 16.5 22.25 17.25 22.4 17.5 23.0 18.55 23.15 18.9 23.95 20.6 24.05 20.7 24.05 20.85 23.95 20.85 23.85 20.85 23.5 20.95 23.3 20.45 23.15 19.95 23.0 19.35 22.75 18.7 22.65 18.4 22.6 18.25 22.25 17.5 22.2 17.4 21.75 16.5" fill="#0093e3" fill-rule="evenodd" stroke="none"/>
      <path d="M21.85 16.5 L21.75 16.5 21.2 15.6 21.15 15.3 21.85 16.5" fill="#00b5e5" fill-rule="evenodd" stroke="none"/>
      <path d="M22.15 16.5 L22.25 16.6 22.4 16.95 22.75 17.5 23.0 17.95 23.5 18.9 23.7 19.35 24.1 20.15 24.2 20.4 24.4 20.8 24.8 21.75 24.5 21.9 24.05 20.85 24.05 20.7 23.95 20.6 23.15 18.9 23.0 18.55 22.4 17.5 22.25 17.25 21.85 16.5 22.15 16.5" fill="#05ecff" fill-rule="evenodd" stroke="none"/>
      <path d="M18.35 13.6 L18.45 13.65 18.55 13.7 18.65 13.7 19.6 14.25 20.6 14.9 20.6 14.95 20.9 15.2 21.1 15.45 21.15 15.5 21.2 15.6 21.55 16.5 21.85 17.4 21.9 17.5 21.9 17.7 21.9 17.85 22.0 18.05 22.0 18.9 22.0 19.35 21.9 19.35 21.85 18.9 21.7 18.1 21.7 18.05 21.6 17.85 21.5 17.5 21.3 17.25 21.3 17.2 20.95 16.65 20.9 16.55 19.5 15.15 Q18.5 14.45 17.35 14.0 L17.85 13.85 18.2 13.75 18.35 13.6" fill="#00d1f0" fill-rule="evenodd" stroke="none"/>
      <path d="M22.0 19.35 L22.0 18.9 22.0 18.05 21.9 17.85 21.9 17.7 21.9 17.5 21.85 17.4 21.55 16.5 21.75 16.5 22.2 17.4 22.25 17.5 22.6 18.25 22.65 18.4 22.75 18.7 23.0 19.35 23.15 19.95 23.3 20.45 23.5 20.95 23.65 21.45 23.7 21.45 23.95 22.3 23.7 22.35 23.45 22.2 23.15 22.15 22.3 21.9 22.0 21.85 21.85 21.8 21.75 21.75 21.7 21.75 21.35 20.4 21.4 20.4 21.9 19.95 21.9 19.85 22.0 19.35" fill="#01ccf7" fill-rule="evenodd" stroke="none"/>
      <path d="M21.55 16.5 L21.2 15.6 21.75 16.5 21.55 16.5" fill="#01bcef" fill-rule="evenodd" stroke="none"/>
      <path d="M22.4 16.95 L22.55 16.75 23.0 17.4 23.1 17.5 24.5 18.85 24.5 18.9 24.55 19.3 24.4 19.35 24.05 19.4 23.7 19.35 23.5 18.9 23.0 17.95 22.75 17.5 22.4 16.95" fill="#01aeea" fill-rule="evenodd" stroke="none"/>
      <path d="M21.1 15.45 L20.95 15.2 21.1 15.2 21.1 15.3 21.15 15.3 21.2 15.6 21.15 15.5 21.1 15.45" fill="#00b6dc" fill-rule="evenodd" stroke="none"/>
      <path d="M17.95 13.45 L18.35 13.55 18.35 13.6 18.2 13.75 17.85 13.85 17.2 14.0 16.8 13.85 16.7 13.85 16.7 13.8 17.0 13.7 17.95 13.45" fill="#00c5f0" fill-rule="evenodd" stroke="none"/>
      <path d="M15.55 14.25 L16.7 13.8 16.7 13.85 16.8 13.85 16.85 13.95 16.85 14.05 16.7 14.1 16.55 14.15 15.9 14.4 15.55 14.25" fill="#d8f9ff" fill-rule="evenodd" stroke="none"/>
      <path d="M18.8 16.3 L16.95 14.35 16.8 14.2 16.75 14.15 16.7 14.1 16.85 14.05 16.85 13.95 16.95 14.0 17.0 14.15 17.1 14.15 17.2 14.3 18.55 15.45 18.75 15.7 19.15 16.2 18.8 16.3 M15.9 16.2 L16.0 16.45 15.85 16.85 Q15.6 17.15 15.2 17.15 14.9 17.15 14.9 17.0 L14.9 16.8 15.05 16.85 15.55 16.55 15.9 16.2 M14.25 17.4 L14.55 17.35 14.6 17.45 14.4 17.7 14.1 17.85 14.1 17.75 14.35 17.65 14.3 17.4 14.25 17.4" fill="#a5ffff" fill-rule="evenodd" stroke="none"/>
      <path d="M17.35 14.0 Q18.5 14.45 19.5 15.15 L20.9 16.55 20.95 16.65 21.3 17.2 21.3 17.25 21.5 17.5 21.6 17.85 21.7 18.05 21.65 18.05 Q21.65 18.75 21.35 19.05 L21.05 19.35 20.75 18.7 21.1 18.5 20.7 18.55 20.65 18.5 20.45 18.15 20.15 17.5 19.8 16.95 19.15 16.2 18.75 15.7 18.55 15.45 17.2 14.3 17.1 14.15 17.3 14.05 17.0 14.15 16.95 14.0 16.85 13.95 16.8 13.85 17.2 14.0 17.35 14.0" fill="#07e6ee" fill-rule="evenodd" stroke="none"/>
      <path d="M17.0 14.15 L17.3 14.05 17.1 14.15 17.0 14.15" fill="#0eccee" fill-rule="evenodd" stroke="none"/>
      <path d="M20.4 18.85 L20.75 19.5 20.8 19.6 20.55 19.7 20.25 18.95 20.4 18.85 M21.1 20.5 L21.3 21.7 20.95 21.6 20.9 21.25 20.8 20.5 20.75 20.4 20.6 19.95 20.6 19.85 20.6 19.8 20.8 19.7 20.85 19.85 21.1 20.5 M20.95 21.9 L20.95 21.75 21.35 21.9 21.3 21.95 20.95 21.9 M20.25 18.5 L20.3 18.6 20.15 18.65 20.1 18.45 20.0 18.35 20.15 18.3 20.25 18.5 M9.45 18.6 Q9.1 18.85 9.1 19.05 L9.1 19.1 8.6 19.5 8.55 19.5 8.25 19.8 8.15 19.85 8.05 20.0 7.9 20.2 7.7 20.2 7.95 19.85 8.05 19.8 8.15 19.7 8.4 19.4 9.45 18.6 M7.75 20.4 L7.65 20.55 7.3 20.85 7.2 20.85 7.55 20.4 7.75 20.4 M16.85 14.45 L16.6 14.25 16.0 14.45 15.9 14.5 15.65 14.6 15.4 14.65 15.4 14.7 14.2 15.35 13.85 15.6 13.7 15.7 11.2 17.35 11.0 17.5 10.9 17.6 10.75 17.55 10.8 17.5 Q11.9 16.65 12.65 16.15 13.1 15.8 13.5 15.6 13.7 15.35 13.95 15.3 L15.35 14.65 15.4 14.6 15.6 14.5 15.9 14.4 16.55 14.15 16.7 14.1 16.75 14.15 16.8 14.2 16.95 14.35 18.8 16.3 19.7 17.5 20.15 18.2 20.15 18.25 20.0 18.3 19.95 18.25 19.7 17.8 19.5 17.5 18.4 16.1 16.85 14.45 M10.5 17.75 L10.6 17.65 10.65 17.6 10.75 17.7 10.5 17.8 10.5 17.75" fill="#10cce5" fill-rule="evenodd" stroke="none"/>
      <path d="M17.85 13.85 L17.35 14.0 17.2 14.0 17.85 13.85" fill="#08caee" fill-rule="evenodd" stroke="none"/>
      <path d="M20.6 19.85 L20.4 19.95 20.4 19.9 20.6 19.8 20.6 19.85 M20.55 19.7 L20.35 19.8 19.9 19.15 20.25 18.95 20.55 19.7 M20.0 18.35 L20.1 18.45 20.15 18.65 19.75 18.8 19.65 18.6 19.7 18.55 19.95 18.4 20.0 18.35 M16.85 14.45 L18.4 16.1 19.5 17.5 19.7 17.8 19.95 18.25 20.0 18.3 19.65 18.45 19.6 18.45 19.5 18.5 19.4 18.6 19.3 18.4 19.25 18.3 18.55 17.5 18.45 17.4 18.45 17.35 18.4 17.3 18.4 17.25 17.3 15.75 16.35 14.8 16.3 14.75 16.4 14.7 16.85 14.45" fill="#00dff1" fill-rule="evenodd" stroke="none"/>
      <path d="M19.95 20.15 L20.2 21.35 20.15 21.35 20.15 21.25 Q20.15 20.95 19.3 20.6 L19.3 20.55 19.95 20.15 M20.2 21.6 L20.25 21.95 20.25 22.0 19.75 22.15 19.1 22.5 18.65 22.9 18.25 23.55 18.25 23.6 Q18.05 23.95 18.0 24.25 L17.3 24.65 16.4 24.95 14.1 25.3 12.75 24.95 12.35 24.65 12.25 24.4 11.5 23.4 10.85 22.9 10.1 22.4 8.6 22.05 8.05 22.05 7.95 21.55 8.05 21.15 8.25 20.85 8.6 20.4 8.75 20.4 Q8.85 20.85 9.65 20.95 9.95 21.75 11.25 22.55 L11.95 22.9 Q12.95 23.45 14.0 23.6 L14.55 24.2 14.85 24.55 14.9 24.55 15.1 24.65 15.35 24.5 15.45 24.45 15.45 24.35 Q15.5 24.25 15.7 24.25 L15.75 24.2 16.8 23.3 17.65 22.9 17.75 22.85 18.25 22.5 18.95 21.75 19.55 21.75 Q19.9 21.75 20.05 21.55 L20.2 21.6 M19.95 20.05 L19.35 20.35 19.35 20.25 19.45 20.1 19.5 20.05 19.65 19.85 19.75 19.5 19.85 19.85 19.9 19.95 19.95 20.05 M9.35 19.55 L9.85 19.05 10.05 18.95 10.05 19.1 10.05 19.35 10.0 19.4 9.35 19.55 M16.3 14.75 L16.35 14.8 17.3 15.75 18.4 17.25 18.4 17.3 18.45 17.35 18.45 17.4 18.55 17.5 19.25 18.3 19.3 18.4 19.35 18.6 18.95 18.75 18.3 17.5 18.25 17.45 18.25 17.4 18.2 17.35 17.2 16.2 16.05 16.1 15.9 16.1 Q15.9 15.95 15.55 15.95 L15.1 16.15 14.9 16.2 Q14.3 16.35 13.1 17.05 L12.4 17.5 12.0 17.75 11.55 18.05 11.45 18.0 11.7 17.8 11.65 17.6 11.65 17.55 11.75 17.5 13.5 16.4 14.3 15.9 16.3 14.75 M11.25 18.15 L11.3 18.2 11.2 18.15 11.25 18.15" fill="#00f5e6" fill-rule="evenodd" stroke="none"/>
      <path d="M19.15 16.2 L19.8 16.95 20.15 17.5 20.45 18.15 20.65 18.5 20.7 18.55 20.6 18.55 20.25 18.5 20.15 18.3 20.45 18.15 20.15 18.25 20.15 18.2 19.7 17.5 18.8 16.3 19.15 16.2" fill="#edfcf7" fill-rule="evenodd" stroke="none"/>
      <path d="M20.15 18.3 L20.0 18.35 19.95 18.4 19.7 18.55 19.65 18.6 19.6 18.45 19.65 18.45 20.0 18.3 20.15 18.25 20.45 18.15 20.15 18.3" fill="#93f8ff" fill-rule="evenodd" stroke="none"/>
      <path d="M21.3 21.7 L21.4 21.7 21.35 21.85 21.35 21.9 20.95 21.75 20.95 21.9 20.75 21.9 20.65 21.9 20.25 21.95 20.2 21.6 20.2 21.45 20.2 21.35 19.95 20.15 20.4 19.9 20.4 19.95 20.6 19.85 20.6 19.95 20.75 20.4 20.8 20.5 20.9 21.25 20.95 21.6 21.3 21.7 M21.65 22.0 L21.7 21.8 21.7 21.75 21.7 21.8 21.75 22.0 21.65 22.0 M20.35 19.8 L19.95 20.05 19.9 19.95 19.85 19.85 19.75 19.5 19.75 19.25 19.9 19.15 20.35 19.8 M19.3 18.4 L19.4 18.6 19.35 18.6 19.3 18.4" fill="#06d8f1" fill-rule="evenodd" stroke="none"/>
      <path d="M20.75 18.7 L21.05 19.35 20.75 19.5 20.4 18.85 20.75 18.7 M20.25 18.5 L20.6 18.55 20.3 18.6 20.25 18.5" fill="#fff8ff" fill-rule="evenodd" stroke="none"/>
      <path d="M19.35 20.35 Q18.4 20.9 17.6 21.5 L17.4 21.5 16.7 21.45 Q17.9 20.3 19.75 19.25 L19.75 19.5 19.65 19.85 19.5 20.05 19.45 20.1 19.35 20.25 19.35 20.35 M13.2 20.95 L10.6 18.55 11.2 18.15 11.3 18.2 12.25 19.05 14.05 20.85 14.2 21.05 13.55 20.95 13.2 20.95 M10.4 18.7 L11.35 19.5 13.0 21.0 12.5 21.15 11.75 21.3 13.15 21.85 Q13.8 22.05 13.8 22.4 L13.8 22.5 13.6 22.45 Q13.3 22.4 13.3 22.7 L13.45 22.9 13.25 22.95 Q12.4 22.95 11.3 22.25 10.2 21.55 10.2 20.95 L9.65 20.95 Q8.85 20.85 8.75 20.4 L8.7 20.25 8.7 20.2 Q8.75 19.75 9.35 19.55 L10.0 19.4 10.05 19.35 10.05 19.1 10.05 18.95 10.4 18.7 M18.1 21.4 L18.65 21.0 19.3 20.55 19.3 20.6 Q20.15 20.95 20.15 21.25 L20.15 21.35 20.05 21.55 Q19.9 21.75 19.55 21.75 L18.95 21.75 18.3 21.55 18.1 21.4 M19.4 18.6 L19.5 18.5 19.6 18.45 19.65 18.6 19.75 18.8 18.9 19.3 17.2 20.75 16.4 21.4 15.85 21.3 14.55 21.1 14.2 20.65 11.55 18.05 12.0 17.75 12.4 17.5 13.1 17.05 Q14.3 16.35 14.9 16.2 L15.1 16.15 15.0 16.25 14.85 16.6 14.9 16.8 14.9 17.0 Q14.9 17.15 15.2 17.15 15.6 17.15 15.85 16.85 L16.0 16.45 15.9 16.2 15.9 16.1 16.05 16.1 17.2 16.2 18.2 17.35 18.25 17.4 18.25 17.45 18.3 17.5 18.95 18.75 19.35 18.6 19.4 18.6 M10.5 17.7 L10.5 17.75 10.5 17.8 10.15 18.0 10.1 18.0 10.5 17.65 10.5 17.7 M14.25 17.4 L13.95 17.4 13.75 17.6 13.8 17.8 14.1 17.75 14.1 17.85 14.4 17.7 14.6 17.45 14.55 17.35 14.25 17.4" fill="#41fae8" fill-rule="evenodd" stroke="none"/>
      <path d="M2.95 20.35 L3.25 20.35 3.35 20.35 4.0 20.35 4.1 20.3 4.05 20.4 4.0 20.5 3.95 20.55 3.9 20.55 3.35 20.55 3.25 20.55 2.85 20.55 2.8 20.55 2.9 20.4 2.95 20.35" fill="#c6ffff" fill-rule="evenodd" stroke="none"/>
      <path d="M17.6 21.5 L17.1 21.85 Q15.95 22.75 15.3 23.6 L13.2 20.95 13.55 20.95 14.2 21.05 15.2 22.6 15.1 22.75 15.65 22.75 15.6 22.65 16.7 21.45 17.4 21.5 17.6 21.5 M13.0 21.0 L13.15 21.15 14.65 23.25 15.1 23.85 15.15 23.95 15.5 23.65 15.55 23.65 18.1 21.4 18.3 21.55 18.95 21.75 18.25 22.5 17.75 22.85 17.65 22.9 16.8 23.3 15.75 24.2 15.7 24.25 15.65 24.15 15.45 24.3 15.45 24.35 15.45 24.45 15.35 24.5 15.1 24.65 14.9 24.55 14.85 24.55 14.55 24.2 14.0 23.6 Q12.95 23.45 11.95 22.9 L11.25 22.55 Q9.95 21.75 9.65 20.95 L10.2 20.95 Q10.2 21.55 11.3 22.25 12.4 22.95 13.25 22.95 L13.45 22.9 13.3 22.7 Q13.3 22.4 13.6 22.45 L13.8 22.5 13.8 22.4 Q13.8 22.05 13.15 21.85 L11.75 21.3 12.5 21.15 13.0 21.0 M14.55 21.1 L15.85 21.3 16.4 21.4 15.45 22.35 14.55 21.1" fill="#47fde7" fill-rule="evenodd" stroke="none"/>
      <path d="M20.75 19.5 L21.05 19.35 21.2 19.75 21.2 19.85 21.3 20.15 21.35 20.4 21.1 20.5 20.85 19.85 20.8 19.7 20.95 19.6 20.9 19.5 20.8 19.6 20.75 19.5 M20.25 21.95 L20.65 21.9 20.75 21.9 20.95 21.9 21.05 22.15 20.85 22.15 20.3 22.2 20.25 21.95" fill="#ceffff" fill-rule="evenodd" stroke="none"/>
      <path d="M21.7 18.05 L21.7 18.1 21.85 18.9 21.9 19.35 22.0 19.35 21.9 19.85 21.9 19.95 21.4 20.4 21.35 20.4 21.3 20.15 21.2 19.85 21.2 19.75 21.05 19.35 21.35 19.05 Q21.65 18.75 21.65 18.05 L21.7 18.05" fill="#00e4ea" fill-rule="evenodd" stroke="none"/>
      <path d="M25.6 18.0 L26.1 18.5 26.4 18.85 26.4 18.9 26.45 19.65 26.45 20.7 26.15 20.55 26.1 20.55 25.0 19.75 25.0 19.55 25.05 19.2 25.1 18.9 25.6 18.0" fill="#033846" fill-rule="evenodd" stroke="none"/>
      <path d="M24.2 20.4 L24.65 19.85 24.6 19.35 24.95 19.7 25.0 19.75 Q25.05 20.75 25.45 21.65 L25.25 21.9 25.25 22.0 25.35 22.65 25.35 22.9 25.35 23.15 25.25 23.2 24.9 23.05 25.05 22.9 25.25 22.7 24.8 21.75 24.4 20.8 24.2 20.4" fill="#00a5f9" fill-rule="evenodd" stroke="none"/>
      <path d="M23.7 19.35 L24.05 19.4 24.4 19.35 24.55 19.3 24.6 19.35 24.65 19.85 24.2 20.4 24.1 20.15 23.7 19.35" fill="#00b1f6" fill-rule="evenodd" stroke="none"/>
      <path d="M23.5 20.95 L23.85 20.85 23.95 20.85 24.05 20.85 24.5 21.9 24.4 22.0 24.25 22.1 24.1 22.25 24.1 22.3 24.05 22.5 23.95 22.3 23.7 21.45 23.65 21.45 23.5 20.95" fill="#0691fa" fill-rule="evenodd" stroke="none"/>
      <path d="M21.35 20.4 L21.7 21.75 21.7 21.8 21.65 22.0 21.55 22.25 21.4 22.25 21.4 22.1 21.35 21.9 21.35 21.85 21.4 21.7 21.3 21.7 21.1 20.5 21.35 20.4 M25.2 25.95 L25.4 26.8 24.95 27.05 24.95 26.65 24.95 26.5 25.2 25.95" fill="#d6ffff" fill-rule="evenodd" stroke="none"/>
      <path d="M26.4 18.85 L26.45 18.9 26.65 19.2 27.85 21.15 26.45 20.7 26.45 19.65 26.4 18.9 26.4 18.85" fill="#062230" fill-rule="evenodd" stroke="none"/>
      <path d="M25.0 19.75 L26.1 20.55 26.15 20.55 26.45 20.7 26.35 21.65 26.1 21.25 26.05 21.1 25.45 21.65 Q25.05 20.75 25.0 19.75" fill="#0177a5" fill-rule="evenodd" stroke="none"/>
      <path d="M13.65 13.3 L15.9 13.1 17.95 13.45 17.0 13.7 16.7 13.8 16.6 13.8 16.45 13.75 13.65 13.3" fill="#00cbec" fill-rule="evenodd" stroke="none"/>
      <path d="M15.9 6.45 L15.95 6.55 16.25 7.15 16.35 7.45 15.3 8.2 14.3 7.7 14.0 7.55 14.6 7.15 15.9 6.45" fill="#0046b7" fill-rule="evenodd" stroke="none"/>
      <path d="M11.75 8.15 L11.75 8.0 Q11.75 7.6 11.25 7.15 L10.0 6.45 11.1 6.25 11.75 6.05 11.9 5.95 13.5 7.15 14.0 7.55 13.1 8.05 11.75 8.15" fill="#00409e" fill-rule="evenodd" stroke="none"/>
      <path d="M10.9 9.8 L11.45 9.0 11.75 8.15 13.1 8.05 14.0 7.55 14.3 7.7 15.3 8.2 14.9 8.45 14.2 8.8 12.6 9.5 11.65 9.75 11.5 9.8 10.9 9.8" fill="#013a94" fill-rule="evenodd" stroke="none"/>
      <path d="M14.2 8.8 L14.4 9.05 14.6 9.5 14.7 9.85 13.25 10.3 12.5 10.55 12.4 10.55 12.4 10.6 11.15 10.85 11.45 10.2 11.6 9.8 11.65 9.75 12.6 9.5 14.2 8.8" fill="#034baf" fill-rule="evenodd" stroke="none"/>
      <path d="M14.7 9.85 L14.6 9.5 14.4 9.05 14.2 8.8 14.9 8.45 15.3 8.2 16.45 8.6 16.7 8.6 16.75 9.05 15.9 9.5 14.7 9.85" fill="#0346b1" fill-rule="evenodd" stroke="none"/>
      <path d="M16.7 8.6 L16.45 8.6 15.3 8.2 16.35 7.45 16.6 8.15 16.6 8.25 16.7 8.6" fill="#024fbb" fill-rule="evenodd" stroke="none"/>
      <path d="M14.7 9.85 L15.9 9.5 16.75 9.05 16.75 9.5 16.75 9.8 15.75 10.0 15.05 10.1 14.8 10.2 14.7 9.85" fill="#075de8" fill-rule="evenodd" stroke="none"/>
      <path d="M9.7 10.6 L10.25 10.25 10.9 9.8 11.5 9.8 11.6 9.8 11.45 10.2 11.15 10.85 8.7 11.3 9.7 10.6" fill="#004097" fill-rule="evenodd" stroke="none"/>
      <path d="M6.65 11.45 L7.05 11.2 Q8.55 11.15 9.7 10.6 L8.7 11.3 8.1 11.4 7.9 11.4 7.85 11.4 7.65 11.4 6.65 11.45" fill="#002d6e" fill-rule="evenodd" stroke="none"/>
      <path d="M11.15 10.85 L11.0 11.4 11.25 11.35 11.6 11.4 11.45 11.55 Q11.3 11.6 11.25 11.7 L10.55 11.9 9.2 12.35 8.75 12.4 8.5 12.2 8.35 12.1 7.65 11.4 7.85 11.4 7.9 11.4 8.1 11.4 8.7 11.3 11.15 10.85" fill="#0b69dd" fill-rule="evenodd" stroke="none"/>
      <path d="M11.25 11.7 Q11.3 11.6 11.45 11.55 L11.6 11.4 12.0 11.0 12.25 10.75 12.35 10.85 12.5 10.9 12.5 10.95 12.0 11.4 12.0 11.45 11.95 11.45 11.7 11.7 11.6 11.75 11.55 11.8 11.0 12.35 10.95 12.35 10.65 12.3 10.85 12.05 11.25 11.7" fill="#09f4ff" fill-rule="evenodd" stroke="none"/>
      <path d="M11.15 10.85 L12.4 10.6 12.25 10.65 12.25 10.75 12.0 11.0 11.6 11.4 11.25 11.35 11.0 11.4 11.15 10.85 M12.5 10.55 L13.25 10.3 14.7 9.85 14.8 10.2 13.7 10.4 12.75 10.6 12.55 10.55 12.5 10.55" fill="#0072e0" fill-rule="evenodd" stroke="none"/>
      <path d="M11.0 12.35 L11.55 11.8 11.6 11.75 11.7 11.7 11.9 11.65 12.05 11.65 12.25 11.6 12.65 11.55 13.0 11.5 14.05 11.4 14.15 11.4 14.9 11.3 15.15 11.3 16.1 11.3 16.5 11.3 15.4 11.8 15.35 11.8 15.1 11.9 15.05 11.95 14.4 12.3 13.65 12.25 13.6 12.25 11.3 12.65 11.2 12.5 11.0 12.35" fill="#0076ec" fill-rule="evenodd" stroke="none"/>
      <path d="M11.7 11.7 L11.95 11.45 12.0 11.45 12.1 11.45 12.15 11.4 12.5 11.35 13.95 11.0 14.45 10.95 14.8 10.85 14.8 10.95 14.8 11.05 14.2 11.15 14.0 11.25 12.6 11.5 12.25 11.6 12.15 11.6 11.9 11.65 11.7 11.7" fill="#0f9ff8" fill-rule="evenodd" stroke="none"/>
      <path d="M8.75 12.4 L9.2 12.35 10.55 11.9 10.5 12.2 9.2 12.6 9.15 12.6 9.1 12.65 8.05 12.9 7.9 12.95 7.85 12.65 8.2 12.6 8.75 12.4" fill="#05dcf9" fill-rule="evenodd" stroke="none"/>
      <path d="M8.05 12.9 L9.1 12.65 9.15 12.6 9.2 12.6 9.2 12.7 9.35 13.55 9.0 13.95 8.8 14.0 8.6 14.1 8.3 14.2 8.25 14.15 8.2 14.0 7.75 13.4 8.05 12.9" fill="#007cf4" fill-rule="evenodd" stroke="none"/>
      <path d="M8.35 12.1 L8.5 12.2 8.75 12.4 8.2 12.6 7.85 12.65 6.85 12.9 5.75 13.1 5.95 12.4 7.85 12.2 8.35 12.1" fill="#0e85ed" fill-rule="evenodd" stroke="none"/>
      <path d="M5.55 12.4 L6.1 11.85 Q6.25 11.7 6.65 11.45 L7.65 11.4 8.35 12.1 7.85 12.2 5.95 12.4 5.9 12.4 5.55 12.4" fill="#005fcd" fill-rule="evenodd" stroke="none"/>
      <path d="M8.05 12.9 L7.75 13.4 7.55 13.85 6.45 14.0 6.2 14.0 5.75 13.85 5.65 13.8 5.35 13.7 Q5.5 13.55 5.7 13.55 L5.9 13.4 7.9 12.95 8.05 12.9" fill="#018dfc" fill-rule="evenodd" stroke="none"/>
      <path d="M7.9 12.95 L5.9 13.4 5.7 13.45 5.15 13.55 5.15 13.4 5.2 13.25 5.75 13.1 6.85 12.9 7.85 12.65 7.9 12.95" fill="#0ae4ff" fill-rule="evenodd" stroke="none"/>
      <path d="M9.4 13.85 L9.6 13.7 9.75 13.5 9.85 13.45 9.95 13.55 10.05 13.6 9.7 13.75 9.55 13.9 9.5 13.85 9.4 13.85" fill="#0090f5" fill-rule="evenodd" stroke="none"/>
      <path d="M10.65 12.3 L10.95 12.35 11.0 12.4 9.85 13.45 9.75 13.5 9.6 13.7 9.4 13.85 9.35 13.55 9.65 13.25 10.05 12.9 10.65 12.3" fill="#41dfff" fill-rule="evenodd" stroke="none"/>
      <path d="M10.5 12.2 L10.85 12.05 10.65 12.3 10.05 12.9 9.65 13.25 9.35 13.55 9.2 12.7 9.2 12.6 10.5 12.2 M10.95 12.35 L11.0 12.35 11.0 12.4 10.95 12.35" fill="#0374ee" fill-rule="evenodd" stroke="none"/>
      <path d="M11.0 12.4 L11.0 12.35 11.2 12.5 11.3 12.65 11.25 12.7 Q10.55 12.95 9.85 13.45 L11.0 12.4" fill="#0280ee" fill-rule="evenodd" stroke="none"/>
      <path d="M10.55 11.9 L11.25 11.7 10.85 12.05 10.5 12.2 10.55 11.9" fill="#07ccff" fill-rule="evenodd" stroke="none"/>
      <path d="M12.15 13.55 L11.8 13.8 11.55 13.95 10.35 14.65 10.3 14.7 9.95 14.9 9.65 15.15 9.55 15.15 9.5 15.1 9.35 15.0 9.15 15.0 8.85 15.05 8.85 14.85 9.05 14.5 9.1 14.45 9.4 13.95 9.5 13.85 9.55 13.9 9.7 13.75 10.05 13.6 10.7 13.5 10.85 13.5 11.2 13.5 11.5 13.55 12.15 13.55 M4.45 20.3 L4.75 19.85 4.8 19.75 5.05 19.25 5.3 19.5 5.5 19.55 5.35 19.85 5.3 19.85 5.15 20.15 5.0 20.3 4.9 20.3 4.5 20.3 4.45 20.3" fill="#08aaf5" fill-rule="evenodd" stroke="none"/>
      <path d="M13.0 13.05 L12.65 13.25 12.2 13.55 12.15 13.55 11.5 13.55 11.2 13.5 10.85 13.5 10.7 13.5 10.05 13.6 9.95 13.55 10.85 13.25 11.1 13.2 12.45 12.95 13.0 13.05" fill="#019cef" fill-rule="evenodd" stroke="none"/>
      <path d="M14.4 12.3 L13.65 12.65 13.45 12.8 13.0 13.05 12.45 12.95 11.1 13.2 10.85 13.25 9.95 13.55 9.85 13.45 Q10.55 12.95 11.25 12.7 L11.3 12.65 13.6 12.25 13.65 12.25 14.4 12.3" fill="#0088f1" fill-rule="evenodd" stroke="none"/>
      <path d="M15.9 10.15 L15.75 10.0 16.75 9.8 16.75 9.95 16.85 10.1 16.75 10.1 15.9 10.15" fill="#0ae6ff" fill-rule="evenodd" stroke="none"/>
      <path d="M13.7 10.4 L14.8 10.2 15.05 10.1 15.75 10.0 15.9 10.15 15.1 10.3 14.8 10.4 13.8 10.65 13.7 10.4" fill="#00b4ff" fill-rule="evenodd" stroke="none"/>
      <path d="M14.8 11.05 L14.8 10.95 14.8 10.85 14.9 10.85 16.1 10.6 16.35 10.55 16.25 10.7 16.2 10.7 16.3 10.8 14.8 11.05 M16.45 10.5 L16.5 10.55 16.35 10.55 16.45 10.5" fill="#19c2ff" fill-rule="evenodd" stroke="none"/>
      <path d="M16.5 10.55 L16.75 10.7 16.75 10.75 16.8 10.8 16.75 10.85 16.5 10.85 16.35 10.8 16.3 10.8 16.2 10.7 16.25 10.7 16.35 10.55 16.5 10.55" fill="#00ecee" fill-rule="evenodd" stroke="none"/>
      <path d="M12.75 10.6 L13.7 10.4 13.8 10.65 12.75 10.85 12.85 10.75 12.85 10.7 12.75 10.6" fill="#12f6ff" fill-rule="evenodd" stroke="none"/>
      <path d="M12.4 10.6 L12.4 10.55 12.5 10.55 12.55 10.55 12.75 10.6 12.85 10.7 12.85 10.75 12.75 10.85 12.5 10.9 12.35 10.85 12.25 10.75 12.25 10.65 12.4 10.6" fill="#f4fff7" fill-rule="evenodd" stroke="none"/>
      <path d="M12.4 13.6 L13.6 13.3 13.65 13.3 16.45 13.75 16.6 13.8 16.7 13.8 15.55 14.25 15.5 14.2 15.4 14.15 14.65 14.0 14.55 14.0 Q12.95 13.85 10.8 15.15 L10.35 15.5 9.05 16.75 8.3 17.5 Q7.35 18.6 7.35 19.15 L7.45 19.5 7.7 19.75 7.7 19.8 7.65 19.85 7.45 20.0 7.35 20.0 6.8 20.0 6.45 19.95 6.3 19.85 6.25 19.75 Q6.25 19.0 7.55 17.5 L7.85 17.1 7.95 16.95 9.75 15.3 9.8 15.25 9.85 15.2 10.15 15.4 10.25 14.9 11.55 14.05 12.4 13.6" fill="#00e0f0" fill-rule="evenodd" stroke="none"/>
      <path d="M15.05 11.95 L15.1 11.9 15.35 11.8 15.4 11.8 15.6 12.0 15.55 12.15 15.4 12.2 15.3 12.2 15.25 12.15 15.1 12.1 15.1 12.05 15.05 12.0 15.05 11.95" fill="#d2fdff" fill-rule="evenodd" stroke="none"/>
      <path d="M4.25 13.7 L4.55 13.35 5.2 13.25 5.15 13.4 5.15 13.55 4.45 13.65 4.25 13.7" fill="#00e1f8" fill-rule="evenodd" stroke="none"/>
      <path d="M3.75 14.35 L4.25 13.7 4.45 13.65 5.15 13.55 5.7 13.45 5.9 13.4 5.7 13.55 Q5.5 13.55 5.35 13.7 L4.5 14.0 Q4.4 14.0 4.35 14.1 L3.75 14.35" fill="#0888f6" fill-rule="evenodd" stroke="none"/>
      <path d="M4.55 13.35 L5.55 12.4 5.9 12.4 5.95 12.4 5.75 13.1 5.2 13.25 4.55 13.35" fill="#0765d7" fill-rule="evenodd" stroke="none"/>
      <path d="M3.0 15.75 L3.4 14.9 4.65 14.6 4.95 14.55 5.55 14.45 6.1 14.45 6.35 14.1 6.45 14.0 7.55 13.85 7.3 14.35 7.1 14.7 6.3 15.05 5.5 15.3 4.75 16.5 4.7 16.65 4.2 16.1 3.6 15.85 3.35 15.8 3.25 15.75 3.1 15.75 3.0 15.75" fill="#00bcfc" fill-rule="evenodd" stroke="none"/>
      <path d="M7.55 13.85 L7.75 13.4 8.2 14.0 8.25 14.15 8.3 14.2 7.1 14.7 7.3 14.35 7.55 13.85" fill="#0281f4" fill-rule="evenodd" stroke="none"/>
      <path d="M5.35 13.7 L5.65 13.8 5.75 13.85 6.2 14.0 6.45 14.0 6.35 14.1 6.1 14.45 5.55 14.45 4.95 14.55 4.65 14.6 4.5 14.0 5.35 13.7" fill="#0093ff" fill-rule="evenodd" stroke="none"/>
      <path d="M4.7 16.65 L4.75 16.5 5.5 15.3 6.3 15.05 5.95 15.45 5.65 16.0 5.55 16.1 5.3 16.45 5.3 16.5 5.05 16.65 4.5 16.95 4.7 16.65" fill="#03bfff" fill-rule="evenodd" stroke="none"/>
      <path d="M6.3 15.05 L7.1 14.7 6.3 16.2 5.65 16.0 5.95 15.45 6.3 15.05" fill="#0090eb" fill-rule="evenodd" stroke="none"/>
      <path d="M3.4 14.9 Q3.5 14.65 3.75 14.35 L4.35 14.1 Q4.4 14.0 4.5 14.0 L4.65 14.6 3.4 14.9" fill="#0094fa" fill-rule="evenodd" stroke="none"/>
      <path d="M2.5 17.7 L2.5 17.1 3.0 15.75 3.1 15.75 3.25 15.75 3.35 15.8 3.6 15.85 3.35 16.35 3.25 16.65 Q3.05 17.1 3.0 17.5 L3.0 17.55 2.5 17.7" fill="#00bbff" fill-rule="evenodd" stroke="none"/>
      <path d="M4.7 16.65 L4.5 16.95 3.4 17.4 3.35 17.4 3.25 17.45 3.2 17.5 3.0 17.55 3.0 17.5 Q3.05 17.1 3.25 16.65 L3.35 16.35 3.6 15.85 4.2 16.1 4.7 16.65" fill="#01c3ff" fill-rule="evenodd" stroke="none"/>
      <path d="M5.65 16.0 L6.3 16.2 5.95 16.75 5.85 16.95 5.3 17.5 5.25 17.55 5.25 17.5 5.2 17.4 Q5.05 17.1 5.05 16.65 L5.3 16.5 5.3 16.45 5.55 16.1 5.65 16.0" fill="#00a6fa" fill-rule="evenodd" stroke="none"/>
      <path d="M5.05 16.65 Q5.05 17.1 5.2 17.4 L5.25 17.5 5.25 17.55 5.0 17.75 4.9 17.9 4.25 18.15 4.25 18.1 4.05 17.9 4.25 17.5 4.5 16.95 5.05 16.65" fill="#02aff4" fill-rule="evenodd" stroke="none"/>
      <path d="M9.5 13.85 L9.4 13.95 9.1 14.45 9.0 14.5 9.0 14.55 8.6 15.0 7.8 15.95 7.3 16.55 7.15 16.8 6.9 16.7 6.75 16.75 6.6 16.8 6.4 16.8 6.45 16.75 6.8 16.35 8.75 14.45 9.1 14.15 9.4 13.85 9.5 13.85" fill="#00c4f1" fill-rule="evenodd" stroke="none"/>
      <path d="M9.35 13.55 L9.4 13.85 9.1 14.15 8.75 14.45 6.8 16.35 6.45 16.75 6.4 16.8 6.15 16.7 6.6 16.25 7.65 15.3 9.0 13.95 9.35 13.55" fill="#5de2ff" fill-rule="evenodd" stroke="none"/>
      <path d="M6.4 16.8 L6.6 16.8 6.75 16.75 6.9 16.7 7.15 16.8 6.5 17.5 5.05 19.25 5.3 18.85 4.8 19.5 4.55 19.8 4.5 19.85 4.1 20.3 4.0 20.35 3.35 20.35 3.25 20.35 2.95 20.35 3.25 20.05 3.3 20.0 3.35 19.95 3.45 19.85 3.7 19.6 4.35 18.95 5.4 17.8 5.45 17.75 5.7 17.5 5.75 17.4 6.0 17.1 6.4 16.8" fill="#05ddf4" fill-rule="evenodd" stroke="none"/>
      <path d="M6.15 16.7 L6.4 16.8 6.0 17.1 5.75 17.4 5.7 17.5 5.45 17.75 5.4 17.8 4.35 18.95 3.7 19.6 3.45 19.85 3.35 19.95 3.3 20.0 3.25 20.05 2.95 20.35 2.55 20.4 3.0 19.95 3.1 19.85 3.25 19.65 3.35 19.6 Q3.45 19.5 3.5 19.5 L3.95 18.95 4.75 18.15 4.9 17.9 5.0 17.75 5.25 17.55 5.3 17.5 5.85 16.95 6.15 16.7" fill="#fbfffd" fill-rule="evenodd" stroke="none"/>
      <path d="M5.85 16.95 L5.95 16.75 6.3 16.2 6.6 16.25 6.15 16.7 5.85 16.95" fill="#0082e4" fill-rule="evenodd" stroke="none"/>
      <path d="M8.85 15.05 L9.15 15.0 9.35 15.0 9.5 15.1 9.55 15.15 9.65 15.15 9.2 15.5 7.85 16.75 7.8 16.75 7.6 16.95 7.1 17.5 5.5 19.55 5.3 19.5 5.05 19.25 6.5 17.5 7.15 16.8 7.3 16.55 7.8 15.95 8.6 15.0 8.85 15.05" fill="#0abff4" fill-rule="evenodd" stroke="none"/>
      <path d="M9.8 15.25 L9.75 15.3 7.95 16.95 7.85 17.1 7.6 16.95 7.8 16.75 7.85 16.75 9.2 15.5 9.65 15.15 9.8 15.25" fill="#00ccf1" fill-rule="evenodd" stroke="none"/>
      <path d="M8.3 14.2 L8.6 14.1 8.8 14.0 9.0 13.95 7.65 15.3 6.6 16.25 6.3 16.2 7.1 14.7 8.3 14.2" fill="#0077e5" fill-rule="evenodd" stroke="none"/>
      <path d="M3.0 17.55 L3.2 17.5 3.25 17.45 3.35 17.4 3.4 17.4 4.5 16.95 4.25 17.5 4.05 17.9 4.25 18.1 4.25 18.15 3.95 18.25 3.35 18.45 3.25 18.5 2.95 18.6 3.0 18.45 3.1 18.35 3.0 17.85 3.0 17.55" fill="#00b4f9" fill-rule="evenodd" stroke="none"/>
      <path d="M2.5 18.75 L2.5 17.7 3.0 17.55 3.0 17.85 3.1 18.35 3.0 18.45 2.95 18.6 2.5 18.75 M21.35 22.55 L21.35 22.9 21.3 23.2 21.3 23.35 21.25 23.45 21.2 23.55 20.75 24.1 19.95 24.95 19.95 25.0 19.65 25.35 19.25 25.75 19.1 25.9 19.2 25.75 19.2 25.7 19.5 25.3 19.8 24.95 19.95 24.75 20.45 24.1 20.45 24.05 21.05 23.5 21.2 23.2 21.3 22.9 21.3 22.7 21.35 22.55" fill="#00b8fb" fill-rule="evenodd" stroke="none"/>
      <path d="M2.5 19.05 L2.5 18.75 2.95 18.6 3.25 18.5 3.35 18.45 3.95 18.25 4.25 18.15 4.9 17.9 4.75 18.15 3.95 18.95 3.7 19.0 3.35 19.0 3.25 19.05 2.75 19.05 2.55 19.05 2.5 19.05" fill="#0294fb" fill-rule="evenodd" stroke="none"/>
      <path d="M2.5 19.95 L2.5 19.05 2.55 19.05 2.75 19.05 3.25 19.05 3.35 19.0 3.7 19.0 3.95 18.95 3.5 19.5 Q3.45 19.5 3.35 19.6 L3.25 19.65 3.1 19.85 3.0 19.95 2.6 19.95 2.5 19.95" fill="#058aff" fill-rule="evenodd" stroke="none"/>
      <path d="M2.5 20.0 L2.5 19.95 2.6 19.95 2.5 20.0" fill="#0187fa" fill-rule="evenodd" stroke="none"/>
      <path d="M2.5 20.4 L2.5 20.0 2.6 19.95 3.0 19.95 2.55 20.4 2.5 20.4" fill="#0e91e3" fill-rule="evenodd" stroke="none"/>
      <path d="M2.5 20.55 L2.5 20.4 2.55 20.4 2.95 20.35 2.9 20.4 2.8 20.55 2.5 20.55" fill="#f3fbee" fill-rule="evenodd" stroke="none"/>
      <path d="M2.5 20.85 L2.5 20.55 2.8 20.55 2.65 20.7 2.5 20.85" fill="#eaffff" fill-rule="evenodd" stroke="none"/>
      <path d="M2.5 22.55 L2.5 20.85 2.65 20.7 2.8 20.55 2.85 20.55 3.25 20.55 3.35 20.55 3.9 20.55 3.95 20.55 3.75 20.8 3.35 21.3 3.35 21.35 3.25 21.45 3.0 21.85 2.5 22.55" fill="#00d2fa" fill-rule="evenodd" stroke="none"/>
      <path d="M4.1 20.3 L4.5 19.85 4.55 19.8 4.8 19.5 5.3 18.85 5.05 19.25 4.8 19.75 4.75 19.85 4.45 20.3 4.1 20.3" fill="#97e8ff" fill-rule="evenodd" stroke="none"/>
      <path d="M3.95 20.55 L4.0 20.5 4.05 20.4 4.1 20.3 4.45 20.3 4.35 20.5 4.3 20.55 3.95 20.55" fill="#d1ffff" fill-rule="evenodd" stroke="none"/>
      <path d="M2.65 24.05 L2.5 23.75 2.5 23.25 2.65 23.05 3.25 22.15 3.25 22.05 3.35 21.9 3.5 21.7 3.55 21.65 3.6 21.5 4.05 20.85 4.3 20.55 4.35 20.55 4.35 20.5 4.4 20.5 4.75 20.5 4.9 20.45 Q4.3 21.3 4.2 21.8 L4.2 22.0 4.35 22.35 4.05 22.9 3.75 23.35 3.35 23.9 3.25 24.1 3.2 24.15 2.65 24.05" fill="#00adf8" fill-rule="evenodd" stroke="none"/>
      <path d="M4.45 20.3 L4.5 20.3 4.9 20.3 5.0 20.3 5.0 20.35 4.9 20.45 4.75 20.5 4.4 20.5 4.35 20.5 4.45 20.3" fill="#f1ffff" fill-rule="evenodd" stroke="none"/>
      <path d="M5.0 20.3 L5.15 20.3 6.8 20.25 7.25 20.25 7.15 20.4 6.8 20.4 6.7 20.4 6.6 20.4 5.0 20.45 4.9 20.45 5.0 20.35 5.0 20.3" fill="#b8ffff" fill-rule="evenodd" stroke="none"/>
      <path d="M4.9 20.45 L5.0 20.45 6.6 20.4 Q5.65 20.65 5.15 21.3 4.8 21.85 4.75 22.55 L4.75 22.65 4.55 22.5 4.4 22.1 4.35 22.35 4.2 22.0 4.2 21.8 Q4.3 21.3 4.9 20.45" fill="#00d9f4" fill-rule="evenodd" stroke="none"/>
      <path d="M7.85 17.1 L7.55 17.5 Q6.25 19.0 6.25 19.75 L6.3 19.85 6.45 19.95 6.8 20.0 7.35 20.0 7.45 20.0 7.35 20.1 7.3 20.2 7.3 20.25 7.25 20.25 6.8 20.25 5.15 20.3 5.0 20.3 5.15 20.15 5.3 19.85 5.35 19.85 5.5 19.55 7.1 17.5 7.6 16.95 7.85 17.1" fill="#09d1f5" fill-rule="evenodd" stroke="none"/>
      <path d="M7.45 20.0 L7.65 19.85 7.7 19.8 8.4 19.05 9.55 18.1 9.85 18.25 9.45 18.6 8.4 19.4 8.15 19.7 8.05 19.8 7.95 19.85 7.7 20.2 7.55 20.4 7.2 20.4 7.15 20.4 7.25 20.25 7.3 20.25 7.3 20.2 7.35 20.1 7.45 20.0" fill="#e4ffff" fill-rule="evenodd" stroke="none"/>
      <path d="M7.55 20.4 L7.2 20.85 7.15 20.9 7.15 21.05 7.15 21.15 7.15 21.35 7.2 21.85 7.3 22.2 7.15 22.25 7.0 21.9 7.0 21.7 6.95 21.6 6.9 21.3 6.8 20.85 7.15 20.4 7.2 20.4 7.55 20.4" fill="#fafdff" fill-rule="evenodd" stroke="none"/>
      <path d="M6.6 20.4 L6.7 20.4 6.8 20.4 6.8 20.85 6.8 20.95 6.75 21.0 6.2 22.05 6.15 22.1 5.85 22.9 5.75 23.2 5.75 23.25 5.7 23.3 5.55 23.75 4.95 23.3 4.8 22.9 4.75 22.65 4.75 22.55 Q4.8 21.85 5.15 21.3 5.65 20.65 6.6 20.4" fill="#00e4f4" fill-rule="evenodd" stroke="none"/>
      <path d="M6.8 20.4 L7.15 20.4 6.8 20.85 6.8 20.4" fill="#13dfe0" fill-rule="evenodd" stroke="none"/>
      <path d="M6.2 22.05 L6.75 21.0 6.8 20.95 6.8 20.85 6.9 21.3 6.3 22.35 6.2 22.05" fill="#e3ffff" fill-rule="evenodd" stroke="none"/>
      <path d="M7.75 20.4 L8.6 20.4 8.25 20.85 8.05 21.15 7.95 21.55 8.05 22.05 7.3 22.2 7.2 21.85 7.15 21.35 7.15 21.15 7.15 21.05 7.15 20.9 7.2 20.85 7.3 20.85 7.65 20.55 7.75 20.4" fill="#00d8ea" fill-rule="evenodd" stroke="none"/>
      <path d="M9.7 17.95 L9.55 17.85 9.5 17.85 9.65 18.05 9.55 18.1 8.4 19.05 7.7 19.8 7.7 19.75 7.45 19.5 7.35 19.15 Q7.35 18.6 8.3 17.5 L9.05 16.75 10.35 15.5 10.8 15.15 Q12.95 13.85 14.55 14.0 L14.65 14.0 15.4 14.15 15.5 14.2 15.55 14.25 15.4 14.3 Q14.5 14.7 13.7 15.2 L13.2 15.45 12.35 16.05 10.95 17.0 10.45 17.35 10.4 17.3 10.35 17.3 10.4 17.35 10.35 17.4 10.25 17.5 9.7 17.95" fill="#01ebe8" fill-rule="evenodd" stroke="none"/>
      <path d="M15.9 14.5 L16.0 14.45 16.6 14.25 16.85 14.45 16.4 14.7 16.3 14.75 15.9 14.5" fill="#06daf0" fill-rule="evenodd" stroke="none"/>
      <path d="M20.7 18.55 L21.1 18.5 20.75 18.7 20.4 18.85 20.25 18.95 19.9 19.15 19.75 19.25 Q17.9 20.3 16.7 21.45 L15.6 22.65 15.65 22.75 15.1 22.75 15.2 22.6 14.2 21.05 14.05 20.85 12.25 19.05 11.3 18.2 11.25 18.15 10.75 17.7 10.65 17.6 10.6 17.55 10.55 17.5 10.4 17.35 10.35 17.3 10.4 17.3 10.45 17.35 Q10.6 17.4 10.75 17.55 L10.9 17.6 11.45 18.0 11.55 18.05 14.2 20.65 14.55 21.1 15.45 22.35 16.4 21.4 17.2 20.75 18.9 19.3 19.75 18.8 20.15 18.65 20.3 18.6 20.6 18.55 20.7 18.55 M15.9 14.4 L15.6 14.5 15.4 14.6 15.35 14.65 13.95 15.3 Q13.7 15.35 13.5 15.6 L13.45 15.55 13.2 15.45 13.7 15.2 Q14.5 14.7 15.4 14.3 L15.55 14.25 15.9 14.4 M14.9 16.8 L14.85 16.6 15.0 16.25 15.1 16.15 15.55 15.95 Q15.9 15.95 15.9 16.1 L15.9 16.2 15.55 16.55 15.05 16.85 14.9 16.8 M14.1 17.75 L13.8 17.8 13.75 17.6 13.95 17.4 14.25 17.4 14.3 17.4 14.35 17.65 14.1 17.75" fill="#ebfcff" fill-rule="evenodd" stroke="none"/>
      <path d="M10.6 18.55 L10.0 18.15 10.15 18.0 10.5 17.8 10.75 17.7 11.25 18.15 11.2 18.15 10.6 18.55 M9.85 18.25 L10.35 18.7 10.4 18.7 10.05 18.95 9.85 19.05 9.35 19.55 Q8.75 19.75 8.7 20.2 L8.6 20.3 8.6 20.4 7.75 20.4 7.9 20.2 8.05 20.0 8.15 19.85 8.25 19.8 8.55 19.5 8.6 19.5 9.1 19.1 9.1 19.05 Q9.1 18.85 9.45 18.6 L9.85 18.25 M10.9 17.6 L11.0 17.5 11.2 17.35 13.7 15.7 13.85 15.6 14.2 15.35 15.4 14.7 15.4 14.65 15.65 14.6 15.9 14.5 16.3 14.75 14.3 15.9 13.5 16.4 11.75 17.5 11.65 17.55 11.65 17.6 11.7 17.8 11.45 18.0 10.9 17.6" fill="#00e1e5" fill-rule="evenodd" stroke="none"/>
      <path d="M13.5 15.6 Q13.1 15.8 12.65 16.15 11.9 16.65 10.8 17.5 L10.75 17.55 Q10.6 17.4 10.45 17.35 L10.95 17.0 12.35 16.05 13.2 15.45 13.45 15.55 13.5 15.6 M10.35 17.4 L10.4 17.35 10.55 17.5 10.45 17.55 10.45 17.5 10.35 17.4 M10.6 17.55 L10.65 17.6 10.6 17.65 10.5 17.75 10.5 17.7 10.5 17.65 10.6 17.55" fill="#adffff" fill-rule="evenodd" stroke="none"/>
      <path d="M11.8 13.8 L11.9 13.8 11.55 14.05 10.25 14.9 10.25 14.8 11.55 13.95 11.8 13.8" fill="#00c7f1" fill-rule="evenodd" stroke="none"/>
      <path d="M11.9 13.8 L12.4 13.6 11.55 14.05 11.9 13.8" fill="#0fb4ed" fill-rule="evenodd" stroke="none"/>
      <path d="M9.95 14.9 L10.3 14.7 10.25 14.8 9.95 14.9" fill="#00b7e7" fill-rule="evenodd" stroke="none"/>
      <path d="M10.3 14.7 L10.35 14.65 11.55 13.95 10.25 14.8 10.3 14.7" fill="#01b9ef" fill-rule="evenodd" stroke="none"/>
      <path d="M9.65 15.15 L9.95 14.9 10.25 14.8 10.25 14.9 9.85 15.2 9.8 15.25 9.65 15.15" fill="#03c5fa" fill-rule="evenodd" stroke="none"/>
      <path d="M9.85 15.2 L10.25 14.9 10.15 15.4 9.85 15.2" fill="#01e2f4" fill-rule="evenodd" stroke="none"/>
      <path d="M9.1 14.45 L9.05 14.5 8.85 14.85 8.85 15.05 8.6 15.0 9.0 14.55 9.0 14.5 9.1 14.45" fill="#02b1f2" fill-rule="evenodd" stroke="none"/>
      <path d="M10.0 18.15 L9.7 17.95 10.25 17.5 10.35 17.4 10.45 17.5 10.45 17.55 10.55 17.5 10.6 17.55 10.5 17.65 10.5 17.7 10.5 17.65 10.1 18.0 10.15 18.0 10.0 18.15 M9.65 18.05 L9.85 18.25 9.55 18.1 9.65 18.05" fill="#fef8fc" fill-rule="evenodd" stroke="none"/>
      <path d="M7.7 20.2 L7.9 20.2 7.75 20.4 7.55 20.4 7.7 20.2 M8.6 20.4 L8.6 20.3 8.7 20.2 8.7 20.25 8.75 20.4 8.6 20.4" fill="#93ffff" fill-rule="evenodd" stroke="none"/>
      <path d="M20.6 19.8 L20.4 19.9 19.95 20.15 19.3 20.55 18.65 21.0 18.1 21.4 15.55 23.65 15.5 23.65 15.15 23.95 15.1 23.85 14.65 23.25 13.15 21.15 13.0 21.0 11.35 19.5 10.4 18.7 10.35 18.7 9.85 18.25 9.65 18.05 9.5 17.85 9.55 17.85 9.7 17.95 10.0 18.15 10.6 18.55 13.2 20.95 15.3 23.6 Q15.95 22.75 17.1 21.85 L17.6 21.5 Q18.4 20.9 19.35 20.35 L19.95 20.05 20.35 19.8 20.55 19.7 20.8 19.6 20.9 19.5 20.95 19.6 20.8 19.7 20.6 19.8 M8.05 22.05 L8.6 22.05 10.1 22.4 10.85 22.9 11.5 23.4 12.25 24.4 12.35 24.65 12.35 24.75 12.4 24.95 12.45 25.6 12.25 25.5 12.25 25.0 12.25 24.95 12.1 24.4 11.1 23.35 10.5 22.9 Q9.4 22.25 8.25 22.25 L8.2 22.25 8.05 22.25 7.95 22.25 7.85 22.25 7.6 22.3 7.35 22.35 7.3 22.35 7.25 22.65 7.2 22.4 7.15 22.25 7.3 22.2 8.05 22.05 M15.45 24.35 L15.45 24.3 15.65 24.15 15.7 24.25 Q15.5 24.25 15.45 24.35" fill="#daffff" fill-rule="evenodd" stroke="none"/>
      <path d="M12.35 24.65 L12.75 24.95 14.1 25.3 16.4 24.95 17.3 24.65 18.0 24.25 17.9 24.5 17.9 24.7 17.9 24.75 17.9 24.95 17.9 25.0 17.25 25.3 Q15.85 25.9 14.45 25.9 L13.1 25.75 12.45 25.6 12.4 24.95 12.35 24.75 12.35 24.65 M17.25 26.75 L17.35 26.7 17.95 26.55 18.45 26.4 18.8 26.3 Q18.7 26.35 18.55 26.5 L18.2 26.6 17.4 26.8 17.2 26.85 17.0 26.9 16.9 26.95 15.95 27.1 17.0 26.8 17.1 26.8 17.25 26.75" fill="#01d2f9" fill-rule="evenodd" stroke="none"/>
      <path d="M7.25 22.65 L7.3 22.35 7.35 22.35 7.6 22.3 7.85 22.25 7.95 22.25 7.75 22.9 7.65 23.25 7.45 23.1 7.35 22.9 7.25 22.65 M6.9 25.0 L6.9 24.95 6.75 24.4 7.0 24.45 7.0 24.5 7.25 24.9 7.3 24.95 7.55 25.05 6.9 25.0 M7.6 25.05 L7.65 25.05 7.95 24.95 8.2 25.15 7.6 25.05" fill="#06a3f2" fill-rule="evenodd" stroke="none"/>
      <path d="M7.95 22.25 L8.05 22.25 8.2 22.25 8.25 22.25 Q9.4 22.25 10.5 22.9 L11.1 23.35 12.1 24.4 12.25 24.95 12.25 25.0 12.25 25.5 12.25 25.75 12.25 25.85 10.7 25.65 9.95 25.5 9.55 25.45 8.7 25.3 8.2 25.15 7.95 24.95 7.85 24.9 7.35 24.2 7.65 23.25 7.75 22.9 7.95 22.25" fill="#009af2" fill-rule="evenodd" stroke="none"/>
      <path d="M17.5 26.5 L17.25 26.75 17.1 26.8 17.0 26.8 15.95 27.1 16.9 26.95 17.0 26.9 17.2 26.85 17.4 26.8 18.2 26.6 18.55 26.5 17.5 27.45 17.4 27.45 17.0 27.45 16.85 27.45 16.75 27.45 16.5 27.45 14.55 27.45 12.0 27.25 11.5 27.25 11.15 27.2 9.1 26.8 8.7 26.7 8.65 26.7 8.65 26.5 8.55 25.55 8.5 25.45 8.8 25.5 8.9 25.55 9.85 25.75 Q10.1 27.1 13.7 27.1 L15.3 26.95 15.55 26.85 16.7 26.7 17.45 26.5 17.5 26.5" fill="#009cfd" fill-rule="evenodd" stroke="none"/>
      <path d="M9.85 25.75 L8.9 25.55 8.8 25.5 9.15 25.5 9.5 25.55 9.8 25.5 9.95 25.5 10.7 25.65 12.25 25.85 12.35 26.05 11.3 25.9 9.85 25.75" fill="#0cc5fd" fill-rule="evenodd" stroke="none"/>
      <path d="M8.8 25.5 L8.5 25.45 8.2 25.15 8.7 25.3 9.55 25.45 9.95 25.5 9.8 25.5 9.5 25.55 9.15 25.5 8.8 25.5" fill="#0af6ea" fill-rule="evenodd" stroke="none"/>
      <path d="M7.0 24.45 L7.35 24.2 7.85 24.9 7.95 24.95 7.65 25.05 7.6 25.05 7.55 25.05 7.3 24.95 7.25 24.9 7.0 24.5 7.0 24.45" fill="#04b2ee" fill-rule="evenodd" stroke="none"/>
      <path d="M7.55 25.05 L7.6 25.05 8.2 25.15 8.5 25.45 8.35 25.45 8.25 25.4 8.15 25.4 7.0 25.15 7.0 25.1 6.9 25.0 7.55 25.05" fill="#0dfff3" fill-rule="evenodd" stroke="none"/>
      <path d="M8.65 26.7 L7.7 26.5 7.25 26.35 7.15 26.35 6.65 26.1 6.8 25.65 7.0 25.15 8.15 25.4 8.25 25.4 8.35 25.45 8.5 25.45 8.55 25.55 8.65 26.5 8.65 26.7" fill="#01a1f7" fill-rule="evenodd" stroke="none"/>
      <path d="M11.55 27.55 L11.4 28.05 11.15 28.15 10.25 27.9 8.7 27.55 8.25 27.3 8.7 27.0 8.7 27.05 9.5 27.25 9.8 27.3 10.35 27.4 11.55 27.55" fill="#0192fd" fill-rule="evenodd" stroke="none"/>
      <path d="M8.7 26.8 L11.15 27.3 11.45 27.35 11.5 27.35 11.55 27.55 10.35 27.4 9.8 27.3 9.5 27.25 8.7 27.05 8.7 27.0 8.7 26.8" fill="#3efcf2" fill-rule="evenodd" stroke="none"/>
      <path d="M7.55 26.5 L8.7 26.8 8.7 27.0 7.7 26.7 7.1 26.5 7.55 26.5" fill="#87fff4" fill-rule="evenodd" stroke="none"/>
      <path d="M8.7 27.0 L8.25 27.3 8.2 27.3 6.6 26.6 6.5 26.6 6.6 26.35 7.1 26.5 7.7 26.7 8.7 27.0" fill="#05abff" fill-rule="evenodd" stroke="none"/>
      <path d="M10.05 29.0 L9.2 28.8 8.6 28.65 8.35 28.5 8.2 28.55 7.65 28.3 8.05 28.4 8.1 28.4 7.65 28.2 6.75 27.85 6.45 27.75 6.4 27.7 5.45 27.35 5.4 27.3 5.25 26.3 5.25 26.1 5.4 26.15 5.75 26.3 5.8 26.3 6.5 26.6 6.6 26.6 8.2 27.3 8.25 27.3 8.7 27.55 10.05 28.15 11.1 28.7 11.5 28.9 10.2 28.45 9.95 28.4 9.6 28.3 8.6 28.05 8.5 28.1 9.0 28.2 Q9.35 28.3 9.95 28.55 L11.7 29.15 11.75 29.2 12.05 29.25 12.05 29.3 12.45 29.4 12.75 29.5 13.15 29.65 12.75 29.6 12.0 29.45 11.65 29.35 11.6 29.35 10.05 29.0" fill="#018cff" fill-rule="evenodd" stroke="none"/>
      <path d="M17.5 27.45 L17.85 27.45 19.4 27.4 20.85 27.35 21.1 27.35 21.1 27.3 21.65 27.25 21.5 27.45 21.2 27.45 21.1 27.5 20.75 27.5 19.45 27.55 17.85 27.6 17.5 27.6 17.0 27.6 16.7 27.6 16.5 27.6 14.55 27.55 14.5 27.55 12.0 27.4 11.95 27.4 11.5 27.35 11.45 27.35 11.15 27.3 8.7 26.8 7.55 26.5 7.25 26.35 7.7 26.5 8.65 26.7 8.7 26.7 9.1 26.8 11.15 27.2 11.5 27.25 12.0 27.25 14.55 27.45 16.5 27.45 16.75 27.45 16.85 27.45 17.0 27.45 17.4 27.45 17.5 27.45" fill="#004fe3" fill-rule="evenodd" stroke="none"/>
      <path d="M11.5 28.9 L11.7 29.15 9.95 28.55 Q9.35 28.3 9.0 28.2 L8.5 28.1 8.6 28.05 9.6 28.3 9.95 28.4 10.2 28.45 11.5 28.9" fill="#0036ed" fill-rule="evenodd" stroke="none"/>
      <path d="M7.65 28.3 L7.0 28.1 6.9 28.1 6.45 27.9 5.05 27.4 4.8 27.1 5.4 27.3 5.45 27.35 6.4 27.7 6.45 27.75 6.75 27.85 7.65 28.2 8.1 28.4 8.05 28.4 7.65 28.3" fill="#8cd3ff" fill-rule="evenodd" stroke="none"/>
      <path d="M11.5 27.35 L11.95 27.4 12.0 27.4 14.5 27.55 14.55 27.55 16.5 27.6 16.7 27.6 17.0 27.6 17.5 27.6 17.85 27.6 19.45 27.55 20.75 27.5 21.1 27.5 21.2 27.45 21.5 27.45 21.3 27.7 20.6 27.75 19.95 27.8 19.2 27.9 18.7 27.9 17.85 27.9 15.5 27.85 15.3 27.85 15.15 27.85 13.1 27.75 13.05 27.75 11.55 27.55 11.5 27.35" fill="#06e0e9" fill-rule="evenodd" stroke="none"/>
      <path d="M15.5 27.85 L15.45 28.1 15.0 28.8 14.3 29.1 11.25 28.2 11.15 28.15 11.4 28.05 11.55 27.55 13.05 27.75 13.1 27.75 15.15 27.85 15.3 27.85 15.5 27.85" fill="#018ffd" fill-rule="evenodd" stroke="none"/>
      <path d="M15.3 29.8 L14.0 29.8 13.55 29.65 11.5 28.9 11.1 28.7 10.05 28.15 8.7 27.55 10.25 27.9 11.15 28.15 11.25 28.2 14.3 29.1 14.45 29.2 15.25 29.4 15.4 29.65 15.3 29.8" fill="#0375fc" fill-rule="evenodd" stroke="none"/>
      <path d="M15.55 26.85 L15.3 26.95 13.7 27.1 Q10.1 27.1 9.85 25.75 L11.3 25.9 12.35 26.05 12.5 26.3 12.6 26.35 12.9 26.6 13.05 26.65 13.1 26.65 13.9 26.8 14.45 26.85 15.3 26.85 15.55 26.85" fill="#00a9f4" fill-rule="evenodd" stroke="none"/>
      <path d="M17.9 25.0 L17.9 25.5 17.9 25.65 17.25 26.0 Q16.25 26.5 15.25 26.6 L14.45 26.65 13.95 26.6 13.35 26.5 12.75 26.35 12.55 26.05 12.55 26.0 12.5 25.85 12.5 25.75 12.45 25.6 13.1 25.75 14.45 25.9 Q15.85 25.9 17.25 25.3 L17.9 25.0" fill="#01d0fa" fill-rule="evenodd" stroke="none"/>
      <path d="M12.25 25.5 L12.45 25.6 12.5 25.75 12.5 25.85 12.55 26.0 12.55 26.05 12.75 26.35 12.95 26.5 13.05 26.65 12.9 26.6 12.6 26.35 12.5 26.3 12.35 26.05 12.25 25.85 12.25 25.75 12.25 25.5" fill="#b5ffff" fill-rule="evenodd" stroke="none"/>
      <path d="M12.75 26.35 L13.35 26.5 13.95 26.6 14.45 26.65 15.25 26.6 Q16.25 26.5 17.25 26.0 L17.9 25.65 17.85 25.9 17.8 26.1 17.45 26.5 16.7 26.7 15.55 26.85 15.3 26.85 14.45 26.85 13.9 26.8 13.1 26.65 13.05 26.65 12.95 26.5 12.75 26.35" fill="#08c2fb" fill-rule="evenodd" stroke="none"/>
      <path d="M14.3 29.1 L15.0 28.8 15.45 28.1 15.5 27.85 17.85 27.9 18.7 27.9 19.15 28.05 19.6 28.75 19.25 29.45 16.7 29.75 16.4 29.75 16.3 29.75 15.25 29.4 14.45 29.2 14.3 29.1" fill="#0195ff" fill-rule="evenodd" stroke="none"/>
      <path d="M6.95 21.6 L7.0 21.7 7.0 21.9 7.15 22.25 7.2 22.4 6.8 22.55 6.45 22.5 6.95 21.6" fill="#0ac2e6" fill-rule="evenodd" stroke="none"/>
      <path d="M5.85 23.45 L5.9 23.4 6.1 22.9 6.15 22.75 6.3 22.4 6.3 22.35 6.9 21.3 6.95 21.6 6.45 22.5 6.45 22.55 6.3 22.9 6.1 23.45 6.1 23.5 6.0 23.5 5.85 23.45" fill="#008ed5" fill-rule="evenodd" stroke="none"/>
      <path d="M5.55 23.75 L5.7 23.3 5.75 23.25 5.75 23.2 5.85 22.9 6.15 22.1 6.2 22.05 6.3 22.35 6.3 22.4 6.15 22.75 6.1 22.9 5.9 23.4 5.85 23.45 5.75 23.85 5.55 23.75" fill="#b6ffff" fill-rule="evenodd" stroke="none"/>
      <path d="M7.2 22.4 L7.25 22.65 7.2 22.9 6.75 24.4 6.9 24.95 6.9 25.0 6.85 24.95 6.8 24.95 5.85 24.75 5.95 23.95 6.1 23.5 6.1 23.45 6.3 22.9 6.45 22.55 6.45 22.5 6.8 22.55 7.2 22.4" fill="#00a4f2" fill-rule="evenodd" stroke="none"/>
      <path d="M7.25 22.65 L7.35 22.9 7.45 23.1 7.65 23.25 7.35 24.2 7.0 24.45 6.75 24.4 7.2 22.9 7.25 22.65" fill="#00a3f0" fill-rule="evenodd" stroke="none"/>
      <path d="M4.35 22.35 L4.4 22.1 4.55 22.5 4.75 22.65 4.8 22.9 4.95 23.3 5.55 23.75 5.35 24.45 5.3 24.65 4.3 24.45 4.05 24.4 3.35 24.25 3.3 24.2 3.2 24.15 3.25 24.1 3.35 23.9 3.75 23.35 4.05 22.9 4.35 22.35" fill="#01d3f8" fill-rule="evenodd" stroke="none"/>
      <path d="M2.75 24.25 L2.65 24.05 3.2 24.15 3.3 24.2 3.35 24.25 4.05 24.4 4.3 24.45 5.3 24.65 5.25 24.8 4.25 24.55 4.05 24.55 4.05 24.5 3.9 24.5 3.35 24.4 3.25 24.35 3.05 24.3 2.75 24.25" fill="#08faec" fill-rule="evenodd" stroke="none"/>
      <path d="M3.35 25.25 L3.1 24.85 Q3.1 24.65 3.25 24.4 L3.25 24.35 3.35 24.4 3.9 24.5 4.05 24.5 4.05 24.55 4.25 24.55 5.25 24.8 5.25 24.95 5.25 25.6 5.25 25.7 5.65 25.9 5.75 26.0 6.6 26.35 6.5 26.6 5.8 26.3 5.75 26.3 5.4 26.15 5.25 26.1 5.15 26.05 4.0 25.6 3.35 25.25" fill="#00bcff" fill-rule="evenodd" stroke="none"/>
      <path d="M4.5 26.95 L3.35 25.25 4.0 25.6 5.15 26.05 5.25 26.1 5.25 26.3 5.4 27.3 4.8 27.1 4.75 27.05 4.7 27.05 4.5 26.95 M3.1 24.85 L2.75 24.25 3.05 24.3 3.25 24.35 3.25 24.4 Q3.1 24.65 3.1 24.85" fill="#0593ff" fill-rule="evenodd" stroke="none"/>
      <path d="M5.3 24.65 L5.35 24.45 5.55 23.75 5.75 23.85 5.65 24.7 5.55 24.7 5.3 24.65" fill="#baf7ff" fill-rule="evenodd" stroke="none"/>
      <path d="M5.25 24.8 L5.3 24.65 5.55 24.7 5.65 24.7 5.65 24.8 5.65 24.85 5.25 24.8" fill="#ddffff" fill-rule="evenodd" stroke="none"/>
      <path d="M5.75 23.85 L5.85 23.45 6.0 23.5 6.1 23.5 5.95 23.95 5.85 24.75 5.65 24.7 5.75 23.85" fill="#006aca" fill-rule="evenodd" stroke="none"/>
      <path d="M5.85 24.75 L6.8 24.95 6.85 24.95 6.9 25.0 7.0 25.1 7.0 25.15 6.8 25.1 6.1 24.95 5.8 24.9 5.65 24.85 5.65 24.8 5.65 24.7 5.85 24.75" fill="#18dffe" fill-rule="evenodd" stroke="none"/>
      <path d="M2.5 23.25 L2.5 22.55 3.0 21.85 3.25 22.15 2.65 23.05 2.5 23.25" fill="#76f3ff" fill-rule="evenodd" stroke="none"/>
      <path d="M7.0 25.15 L6.8 25.65 6.65 26.1 6.5 26.05 5.75 25.6 5.8 24.95 5.8 24.9 6.1 24.95 6.8 25.1 7.0 25.15" fill="#00a1ea" fill-rule="evenodd" stroke="none"/>
      <path d="M5.75 25.6 L5.55 25.5 5.65 24.95 5.65 24.85 5.8 24.9 5.8 24.95 5.75 25.6" fill="#0067bd" fill-rule="evenodd" stroke="none"/>
      <path d="M5.55 25.5 L5.65 25.9 5.25 25.7 5.25 25.6 5.25 24.95 5.25 24.8 5.65 24.85 5.65 24.95 5.55 25.5" fill="#e9fcf6" fill-rule="evenodd" stroke="none"/>
      <path d="M7.25 26.35 L7.55 26.5 7.1 26.5 6.6 26.35 5.75 26.0 5.65 25.9 5.55 25.5 5.75 25.6 6.5 26.05 6.65 26.1 7.15 26.35 7.25 26.35" fill="#f4fbeb" fill-rule="evenodd" stroke="none"/>
      <path d="M5.05 27.4 L4.95 27.35 4.55 27.05 4.5 26.95 4.7 27.05 4.75 27.05 4.8 27.1 5.05 27.4" fill="#a9efff" fill-rule="evenodd" stroke="none"/>
      <path d="M23.0 23.95 L23.05 23.9 23.15 24.0 23.3 24.15 23.15 24.35 23.0 24.55 22.75 24.75 22.55 24.95 22.4 25.05 21.9 25.5 21.9 25.45 21.75 25.15 21.75 25.1 22.0 24.95 22.25 24.7 22.7 24.3 22.85 24.1 23.0 23.95" fill="#007efe" fill-rule="evenodd" stroke="none"/>
      <path d="M16.4 29.8 L15.3 29.8 15.4 29.65 15.25 29.4 16.3 29.75 16.4 29.8" fill="#0267fd" fill-rule="evenodd" stroke="none"/>
      <path d="M19.8 29.8 L16.4 29.8 16.3 29.75 16.4 29.75 16.7 29.75 19.25 29.45 21.15 28.9 23.15 28.1 24.15 27.65 24.65 27.4 24.9 27.3 25.2 27.15 24.95 27.4 24.9 27.4 Q24.8 27.4 24.75 27.5 L24.4 27.7 23.95 28.0 23.2 28.45 23.15 28.45 22.85 28.6 22.2 28.9 21.8 29.05 Q21.75 29.05 21.55 29.2 L21.2 29.25 20.0 29.75 19.8 29.8" fill="#015af4" fill-rule="evenodd" stroke="none"/>
      <path d="M13.55 29.8 L12.7 29.8 10.05 29.0 11.6 29.35 11.65 29.35 12.0 29.45 12.75 29.6 13.15 29.65 13.55 29.8" fill="#008bff" fill-rule="evenodd" stroke="none"/>
      <path d="M13.15 29.65 L12.75 29.5 12.45 29.4 12.05 29.3 12.05 29.25 11.75 29.2 11.7 29.15 11.5 28.9 13.55 29.65 13.55 29.8 13.15 29.65" fill="#003fe1" fill-rule="evenodd" stroke="none"/>
      <path d="M14.0 29.8 L13.55 29.8 13.55 29.65 14.0 29.8" fill="#0044ef" fill-rule="evenodd" stroke="none"/>
      <path d="M27.85 21.15 L28.25 21.75 28.25 21.8 27.85 22.4 27.5 22.9 27.35 23.05 27.2 22.9 26.9 22.5 26.35 21.65 26.45 20.7 27.85 21.15" fill="#003e54" fill-rule="evenodd" stroke="none"/>
      <path d="M25.45 21.65 L26.05 21.1 26.1 21.25 26.35 21.65 26.15 22.35 26.1 22.65 25.45 21.65" fill="#006d9d" fill-rule="evenodd" stroke="none"/>
      <path d="M27.35 23.05 L27.35 23.1 27.05 23.4 26.95 23.55 26.35 22.9 26.1 22.7 26.1 22.65 26.15 22.35 26.35 21.65 26.9 22.5 27.2 22.9 27.35 23.05" fill="#005d9e" fill-rule="evenodd" stroke="none"/>
      <path d="M26.95 23.55 L26.8 23.75 26.7 23.8 26.55 23.65 26.1 23.45 25.95 23.4 25.9 23.45 25.9 23.35 26.05 22.9 26.1 22.65 26.1 22.7 26.35 22.9 26.95 23.55" fill="#009aff" fill-rule="evenodd" stroke="none"/>
      <path d="M25.25 23.2 L25.35 23.15 25.35 22.9 25.35 22.65 25.25 22.0 25.25 21.9 25.45 21.65 26.1 22.65 26.05 22.9 25.9 23.35 25.9 23.45 25.85 23.45 25.75 23.45 25.25 23.2" fill="#0a8ff6" fill-rule="evenodd" stroke="none"/>
      <path d="M26.7 23.8 L26.8 23.95 26.7 24.0 26.65 24.1 26.55 24.1 26.45 24.1 26.15 23.95 26.1 23.9 25.9 23.65 26.0 23.55 25.95 23.5 25.85 23.5 25.85 23.45 25.9 23.45 25.95 23.4 26.1 23.45 26.55 23.65 26.7 23.8" fill="#01e6f9" fill-rule="evenodd" stroke="none"/>
      <path d="M24.9 23.05 L25.25 23.2 25.75 23.45 25.85 23.45 25.85 23.5 25.95 23.5 26.0 23.55 25.9 23.65 25.85 23.65 25.65 23.55 25.25 23.4 24.75 23.2 24.45 23.4 24.25 23.2 24.25 23.15 24.45 23.05 24.55 22.9 24.65 22.9 24.9 23.05" fill="#fff9ff" fill-rule="evenodd" stroke="none"/>
      <path d="M26.7 24.0 L27.2 24.3 27.9 24.7 28.0 24.75 28.05 24.8 28.1 25.15 28.1 25.3 28.1 25.35 28.1 25.5 28.0 26.05 27.95 26.4 27.8 26.2 27.6 26.35 27.5 26.35 27.65 25.8 27.85 25.1 27.7 25.0 27.1 24.5 26.55 24.1 26.65 24.1 26.7 24.0" fill="#0beeff" fill-rule="evenodd" stroke="none"/>
      <path d="M24.45 23.4 L24.75 23.2 25.25 23.4 25.65 23.55 25.85 23.65 25.9 23.65 26.1 23.9 26.1 23.95 26.1 24.1 26.15 24.1 26.4 25.0 26.55 25.65 27.3 26.8 26.9 27.1 25.85 27.5 25.85 27.55 25.65 27.65 25.55 27.25 25.5 27.0 25.4 26.8 25.2 25.95 24.9 24.95 24.5 23.65 24.45 23.4" fill="#0380f6" fill-rule="evenodd" stroke="none"/>
      <path d="M27.3 26.8 L26.55 25.65 26.4 25.0 26.15 24.1 26.1 24.1 26.1 23.95 26.1 23.9 26.15 23.95 26.45 24.1 26.55 24.1 27.1 24.5 27.7 25.0 27.85 25.1 27.65 25.8 27.5 26.35 27.3 26.8" fill="#0199fe" fill-rule="evenodd" stroke="none"/>
      <path d="M27.95 26.4 L27.9 26.6 27.9 26.65 27.85 26.7 27.7 26.85 27.55 27.0 27.5 27.05 27.4 27.05 27.35 26.95 27.3 26.9 27.3 26.8 27.5 26.35 27.6 26.35 27.8 26.2 27.95 26.4" fill="#05fefa" fill-rule="evenodd" stroke="none"/>
      <path d="M26.65 27.7 L25.7 28.25 22.6 29.5 23.15 29.2 24.25 28.55 24.55 28.4 25.0 28.15 25.65 27.65 25.85 27.55 25.85 27.5 26.9 27.1 27.3 26.8 27.3 26.9 27.1 27.15 26.65 27.7" fill="#006cf5" fill-rule="evenodd" stroke="none"/>
      <path d="M27.4 27.05 L27.3 27.25 26.65 27.7 27.1 27.15 27.3 26.9 27.35 26.95 27.4 27.05" fill="#0dcaff" fill-rule="evenodd" stroke="none"/>
      <path d="M24.05 22.5 L24.1 22.3 24.1 22.25 24.25 22.1 24.4 22.0 24.5 21.9 24.75 22.6 24.75 22.65 24.55 22.9 24.3 22.75 24.05 22.65 24.05 22.5" fill="#1286ed" fill-rule="evenodd" stroke="none"/>
      <path d="M22.3 21.9 L23.15 22.15 23.45 22.2 23.7 22.35 23.95 22.3 24.05 22.5 24.05 22.65 23.95 22.65 23.95 22.6 23.3 22.35 23.15 22.3 22.3 21.9" fill="#0dbdff" fill-rule="evenodd" stroke="none"/>
      <path d="M23.8 22.8 L23.95 22.65 24.05 22.65 24.3 22.75 24.55 22.9 24.45 23.05 24.15 22.9 24.1 22.9 24.0 22.85 23.8 22.8" fill="#9ff3ff" fill-rule="evenodd" stroke="none"/>
      <path d="M21.7 21.75 L21.75 21.75 21.85 21.8 22.0 21.85 22.3 21.9 23.15 22.3 23.3 22.35 23.95 22.6 23.95 22.65 23.8 22.8 23.25 22.55 23.15 22.55 22.15 22.15 22.05 22.1 21.75 22.0 21.7 21.8 21.7 21.75" fill="#d5ffff" fill-rule="evenodd" stroke="none"/>
      <path d="M23.05 23.9 L23.15 23.75 23.75 22.9 23.8 22.8 24.0 22.85 24.1 22.9 24.15 22.9 24.45 23.05 24.25 23.15 24.25 23.2 23.75 23.7 23.3 24.15 23.15 24.0 23.05 23.9" fill="#0087f0" fill-rule="evenodd" stroke="none"/>
      <path d="M21.75 22.0 L22.05 22.1 22.15 22.15 23.15 22.55 23.25 22.55 23.8 22.8 23.75 22.9 23.15 23.75 23.05 23.9 23.0 23.95 22.8 23.9 22.7 23.85 22.55 23.8 22.35 23.65 21.9 23.35 21.9 23.3 21.9 23.2 21.9 22.9 21.85 22.65 21.8 22.2 21.75 22.05 21.75 22.0" fill="#00c9f4" fill-rule="evenodd" stroke="none"/>
      <path d="M21.4 22.1 L21.4 22.25 21.5 22.7 21.5 22.9 21.5 22.95 21.55 23.2 21.4 23.35 20.85 24.1 20.35 24.7 20.15 24.95 20.0 25.0 19.7 25.4 19.6 25.5 19.35 25.75 19.3 25.75 19.25 25.75 19.65 25.35 19.95 25.0 19.95 24.95 20.75 24.1 21.2 23.55 21.25 23.45 21.3 23.35 21.3 23.2 21.35 22.9 21.35 22.55 21.35 22.25 21.3 22.25 21.3 22.2 21.3 21.95 21.35 21.9 21.35 22.0 21.4 22.1" fill="#0282e7" fill-rule="evenodd" stroke="none"/>
      <path d="M21.35 21.9 L21.4 22.1 21.35 22.0 21.35 21.9 M21.4 22.25 L21.55 22.25 21.65 22.0 21.75 22.0 21.75 22.05 21.8 22.2 21.85 22.65 21.8 22.65 21.5 22.7 21.4 22.25 M19.3 25.75 L19.35 25.75 19.6 25.5 19.7 25.4 20.0 25.0 20.15 24.95 20.35 24.7 20.85 24.1 20.9 24.1 21.2 24.15 20.6 24.7 20.55 24.8 20.35 24.95 20.25 25.1 19.9 25.45 19.8 25.6 19.75 25.6 19.4 26.05 19.2 26.15 19.15 26.15 18.8 26.3 19.1 26.05 19.3 25.75" fill="#b0ffff" fill-rule="evenodd" stroke="none"/>
      <path d="M21.85 22.65 L21.9 22.9 21.9 23.2 21.9 23.3 21.9 23.35 21.7 23.65 21.4 23.85 21.2 24.15 20.9 24.1 20.85 24.1 21.4 23.35 21.55 23.2 21.5 22.95 21.5 22.9 21.5 22.7 21.8 22.65 21.85 22.65 M18.8 26.3 L19.15 26.15 19.2 26.15 19.4 26.05 19.2 26.35 18.9 26.4 18.65 26.5 18.55 26.5 Q18.7 26.35 18.8 26.3" fill="#f5fffb" fill-rule="evenodd" stroke="none"/>
      <path d="M21.9 23.35 L22.35 23.65 22.55 23.8 22.7 23.85 22.8 23.9 23.0 23.95 22.85 24.1 22.7 24.3 22.25 24.7 22.0 24.95 21.75 25.1 21.75 25.15 21.5 25.3 21.4 25.3 21.15 25.6 21.25 25.3 21.2 25.15 20.65 25.0 20.25 25.1 20.35 24.95 20.55 24.8 20.6 24.7 21.2 24.15 21.4 23.85 21.7 23.65 21.9 23.35" fill="#00c8fd" fill-rule="evenodd" stroke="none"/>
      <path d="M23.3 24.15 L23.35 24.2 23.5 24.35 23.3 24.55 23.25 24.65 23.15 24.7 22.85 24.95 22.05 25.65 21.6 26.05 21.55 26.05 21.1 26.45 20.85 26.45 20.75 26.45 20.75 26.4 20.95 26.25 21.35 26.0 21.75 25.65 21.8 25.6 21.9 25.5 22.4 25.05 22.55 24.95 22.75 24.75 23.0 24.55 23.15 24.35 23.3 24.15" fill="#71e9ff" fill-rule="evenodd" stroke="none"/>
      <path d="M23.5 24.35 L24.1 23.65 24.2 23.85 24.55 24.85 24.6 24.95 24.95 26.5 24.3 26.9 23.55 27.05 23.5 26.45 23.5 25.65 23.15 25.85 22.95 26.2 22.85 26.3 22.7 26.2 22.3 26.15 22.55 26.25 22.7 26.35 22.1 26.8 21.5 26.4 21.35 26.4 21.1 26.45 21.55 26.05 21.6 26.05 22.05 25.65 22.85 24.95 23.15 24.7 23.25 24.65 23.3 24.55 23.5 24.35" fill="#01a6ff" fill-rule="evenodd" stroke="none"/>
      <path d="M24.1 23.65 L24.15 23.65 24.45 23.4 24.5 23.65 24.9 24.95 25.2 25.95 24.95 26.5 24.6 24.95 24.55 24.85 24.2 23.85 24.1 23.65" fill="#f4ffff" fill-rule="evenodd" stroke="none"/>
      <path d="M20.25 21.95 L20.3 22.2 Q19.65 22.35 19.2 22.75 L19.0 22.9 18.45 23.6 18.25 23.55 18.65 22.9 19.1 22.5 19.75 22.15 20.25 22.0 20.25 21.95" fill="#c0ffff" fill-rule="evenodd" stroke="none"/>
      <path d="M21.3 21.95 L21.3 22.2 21.25 22.2 21.05 22.15 20.95 21.9 21.3 21.95" fill="#f7ffff" fill-rule="evenodd" stroke="none"/>
      <path d="M21.05 22.15 L21.05 22.5 21.05 22.75 20.65 22.9 20.45 22.8 20.35 22.45 20.3 22.2 20.85 22.15 21.05 22.15" fill="#079cff" fill-rule="evenodd" stroke="none"/>
      <path d="M21.3 22.2 L21.3 22.25 21.35 22.25 21.35 22.55 21.3 22.7 21.05 22.75 21.05 22.5 21.05 22.15 21.25 22.2 21.3 22.2" fill="#0ba3f6" fill-rule="evenodd" stroke="none"/>
      <path d="M21.05 22.75 L21.3 22.7 21.3 22.9 21.2 23.2 21.05 23.5 20.45 24.05 20.45 24.1 19.95 24.75 19.8 24.95 19.5 25.3 19.2 25.7 19.2 25.75 19.1 25.9 18.45 26.4 17.95 26.55 17.35 26.7 17.25 26.75 17.5 26.5 17.65 26.4 17.85 26.3 18.0 26.2 18.05 25.9 18.05 25.6 18.05 24.95 18.05 24.85 18.15 24.7 18.15 24.6 18.35 23.95 18.35 23.9 18.45 23.6 19.0 22.9 19.2 22.75 Q19.65 22.35 20.3 22.2 L20.35 22.45 20.45 22.8 20.65 22.9 21.05 22.75" fill="#00a0f1" fill-rule="evenodd" stroke="none"/>
      <path d="M18.25 23.55 L18.45 23.6 18.35 23.9 18.35 23.95 18.15 24.6 18.15 24.7 18.05 24.85 18.05 24.95 18.05 25.6 17.9 25.65 17.9 25.5 17.9 25.0 17.9 24.95 17.9 24.75 17.9 24.7 17.9 24.5 18.0 24.25 Q18.05 23.95 18.25 23.6 L18.25 23.55" fill="#a7feff" fill-rule="evenodd" stroke="none"/>
      <path d="M20.25 25.1 L20.65 25.0 21.2 25.15 21.25 25.3 21.15 25.6 21.1 25.65 20.85 25.9 20.45 25.75 20.3 25.7 19.8 25.6 19.9 25.45 20.25 25.1" fill="#08e1f2" fill-rule="evenodd" stroke="none"/>
      <path d="M21.15 25.6 L21.4 25.3 21.5 25.3 21.75 25.15 21.9 25.45 21.9 25.5 21.8 25.6 21.75 25.65 21.35 26.0 20.95 26.25 20.55 26.25 20.85 25.9 21.1 25.65 21.15 25.6" fill="#0086e5" fill-rule="evenodd" stroke="none"/>
      <path d="M19.4 26.05 L19.75 25.6 19.8 25.6 20.3 25.7 20.45 25.75 20.85 25.9 20.55 26.25 20.15 26.2 19.95 26.2 19.85 26.15 19.7 26.1 19.45 26.05 19.4 26.05" fill="#04e3e8" fill-rule="evenodd" stroke="none"/>
      <path d="M19.85 26.15 L19.95 26.2 20.15 26.2 20.55 26.25 20.35 26.5 20.75 26.45 20.85 26.45 21.1 26.45 20.75 26.7 20.7 26.8 20.55 27.0 19.95 27.2 19.3 27.05 19.15 26.9 18.95 26.65 18.95 26.6 19.2 26.35 19.5 26.2 19.85 26.15" fill="#00aefc" fill-rule="evenodd" stroke="none"/>
      <path d="M19.4 26.05 L19.45 26.05 19.7 26.1 19.85 26.15 19.5 26.2 19.2 26.35 19.4 26.05" fill="#05a8ff" fill-rule="evenodd" stroke="none"/>
      <path d="M20.75 26.45 L20.35 26.5 20.55 26.25 20.95 26.25 20.75 26.4 20.75 26.45" fill="#009af3" fill-rule="evenodd" stroke="none"/>
      <path d="M21.1 26.45 L21.35 26.4 21.5 26.4 22.1 26.8 21.8 27.1 21.65 27.25 21.1 27.3 21.1 27.35 20.85 27.35 19.4 27.4 17.85 27.45 17.5 27.45 18.55 26.5 18.65 26.5 18.9 26.4 18.95 26.65 19.15 26.9 19.3 27.05 19.95 27.2 20.55 27.0 20.7 26.8 20.75 26.7 21.1 26.45 M23.55 27.05 L24.3 26.9 24.95 26.5 24.95 26.65 24.95 27.05 24.9 27.05 24.15 27.3 23.95 27.3 23.15 27.35 22.85 27.35 23.1 27.25 23.15 27.2 23.25 27.1 23.25 27.05 23.3 27.05 23.55 27.05" fill="#0096fa" fill-rule="evenodd" stroke="none"/>
      <path d="M19.25 25.75 L19.3 25.75 19.1 26.05 18.8 26.3 18.45 26.4 19.1 25.9 19.25 25.75" fill="#0887d4" fill-rule="evenodd" stroke="none"/>
      <path d="M18.05 25.6 L18.05 25.9 18.0 26.2 17.85 26.3 17.65 26.4 17.5 26.5 17.45 26.5 17.8 26.1 17.85 25.9 17.9 25.65 18.05 25.6" fill="#6ff1ff" fill-rule="evenodd" stroke="none"/>
      <path d="M18.9 26.4 L19.2 26.35 18.95 26.6 18.95 26.65 18.9 26.4" fill="#008be3" fill-rule="evenodd" stroke="none"/>
      <path d="M19.25 29.45 L19.6 28.75 19.15 28.05 18.7 27.9 19.2 27.9 19.95 27.8 20.6 27.75 21.3 27.7 22.3 27.65 22.6 27.65 23.15 27.55 24.25 27.45 24.65 27.4 24.15 27.65 23.15 28.1 21.15 28.9 19.25 29.45" fill="#0191ff" fill-rule="evenodd" stroke="none"/>
      <path d="M22.85 26.4 L22.85 26.3 23.05 26.3 23.15 26.45 23.2 26.65 23.15 26.7 23.05 27.05 22.85 27.25 22.8 27.25 22.65 27.25 22.35 27.25 22.6 27.0 22.65 26.95 22.85 26.7 22.85 26.45 22.85 26.4" fill="#06def3" fill-rule="evenodd" stroke="none"/>
      <path d="M22.85 26.3 L22.95 26.2 23.15 25.85 23.5 25.65 23.5 26.45 23.3 26.95 23.25 27.05 23.25 27.1 23.15 27.1 23.1 27.15 22.85 27.25 23.05 27.05 23.15 26.7 23.2 26.65 23.15 26.45 23.05 26.3 22.85 26.3" fill="#03c9fa" fill-rule="evenodd" stroke="none"/>
      <path d="M22.1 26.8 L22.7 26.35 22.55 26.25 22.3 26.15 22.7 26.2 22.85 26.3 22.85 26.4 22.2 26.85 22.15 26.85 21.9 27.2 22.0 27.25 22.35 27.25 22.2 27.4 22.15 27.4 21.5 27.45 21.65 27.25 21.8 27.1 22.1 26.8" fill="#007df8" fill-rule="evenodd" stroke="none"/>
      <path d="M22.35 27.25 L22.0 27.25 21.9 27.2 22.15 26.85 22.2 26.85 22.85 26.4 22.85 26.45 22.85 26.7 22.65 26.95 22.6 27.0 22.35 27.25" fill="#00e1e9" fill-rule="evenodd" stroke="none"/>
      <path d="M22.2 27.4 L22.35 27.25 22.65 27.25 22.8 27.25 22.85 27.25 23.1 27.15 23.15 27.1 23.25 27.1 23.15 27.2 23.1 27.25 22.85 27.35 22.2 27.4" fill="#0090f3" fill-rule="evenodd" stroke="none"/>
      <path d="M23.5 26.45 L23.55 27.05 23.3 27.05 23.25 27.05 23.3 26.95 23.5 26.45" fill="#0097fe" fill-rule="evenodd" stroke="none"/>
      <path d="M21.3 27.7 L21.5 27.45 22.15 27.4 22.2 27.4 22.85 27.35 23.15 27.35 23.95 27.3 24.15 27.3 24.65 27.25 24.75 27.25 24.9 27.2 25.15 27.1 25.35 27.1 25.2 27.15 24.9 27.3 24.65 27.4 24.25 27.45 23.15 27.55 22.6 27.65 22.3 27.65 21.3 27.7" fill="#2eeeff" fill-rule="evenodd" stroke="none"/>
      <path d="M23.95 28.0 L24.1 28.2 24.25 28.55 23.15 29.2 23.05 28.95 22.85 28.6 23.15 28.45 23.2 28.45 23.95 28.0" fill="#007afb" fill-rule="evenodd" stroke="none"/>
      <path d="M25.4 26.8 L25.5 27.0 25.35 27.1 25.15 27.1 24.9 27.2 24.95 27.05 25.4 26.8" fill="#d0fdff" fill-rule="evenodd" stroke="none"/>
      <path d="M24.15 27.3 L24.9 27.05 24.95 27.05 24.9 27.2 24.75 27.25 24.65 27.25 24.15 27.3" fill="#9ce3ff" fill-rule="evenodd" stroke="none"/>
      <path d="M25.5 27.0 L25.55 27.25 25.5 27.3 25.45 27.2 25.4 27.3 24.95 27.4 25.2 27.15 25.35 27.1 25.5 27.0" fill="#017aff" fill-rule="evenodd" stroke="none"/>
      <path d="M25.55 27.25 L25.65 27.65 25.0 28.15 24.55 28.4 24.25 28.55 24.1 28.2 23.95 28.0 24.4 27.7 24.75 27.5 Q24.8 27.4 24.9 27.4 L24.95 27.4 25.4 27.3 25.45 27.2 25.5 27.3 25.55 27.25" fill="#0076fb" fill-rule="evenodd" stroke="none"/>
      <path d="M21.2 29.25 L21.55 29.2 Q21.75 29.05 21.8 29.05 L22.2 28.9 22.85 28.6 22.25 28.95 21.55 29.3 21.3 29.3 21.2 29.25" fill="#0573fe" fill-rule="evenodd" stroke="none"/>
      <path d="M22.6 29.5 L22.0 29.75 21.85 29.5 Q21.7 29.35 21.55 29.3 L22.25 28.95 22.85 28.6 23.05 28.95 23.15 29.2 22.6 29.5" fill="#0480fa" fill-rule="evenodd" stroke="none"/>
      <path d="M22.0 29.75 L21.85 29.8 20.2 29.8 21.55 29.3 Q21.7 29.35 21.85 29.5 L22.0 29.75" fill="#0083fa" fill-rule="evenodd" stroke="none"/>
      <path d="M20.2 29.8 L20.0 29.8 20.0 29.75 21.2 29.25 21.3 29.3 21.55 29.3 20.2 29.8" fill="#0048d9" fill-rule="evenodd" stroke="none"/>
      <path d="M20.0 29.8 L19.8 29.8 20.0 29.75 20.0 29.8" fill="#005bec" fill-rule="evenodd" stroke="none"/>
    </g>
  </defs>
</svg>
