<?xml version="1.0" encoding="UTF-8" standalone="no"?>
<svg xmlns:ffdec="https://www.free-decompiler.com/flash" xmlns:xlink="http://www.w3.org/1999/xlink" ffdec:objectType="frame" height="30.1px" width="30.0px" xmlns="http://www.w3.org/2000/svg">
  <g transform="matrix(1.0, 0.0, 0.0, 1.0, 0.0, 0.0)">
    <use ffdec:characterId="1" height="30.0" transform="matrix(1.0, 0.0, 0.0, 1.0, 0.0, 0.0)" width="30.0" xlink:href="#shape0"/>
    <use ffdec:characterId="5" height="30.0" transform="matrix(1.0, 0.0, 0.0, 1.0, 0.0, 0.1)" width="30.0" xlink:href="#sprite0"/>
  </g>
  <defs>
    <g id="shape0" transform="matrix(1.0, 0.0, 0.0, 1.0, 0.0, 0.0)">
      <path d="M0.0 0.0 L30.0 0.0 30.0 30.0 0.0 30.0 0.0 0.0" fill="#33cc66" fill-opacity="0.0" fill-rule="evenodd" stroke="none"/>
    </g>
    <g id="sprite0" transform="matrix(1.0, 0.0, 0.0, 1.0, 0.0, 0.0)">
      <use ffdec:characterId="2" height="30.0" transform="matrix(1.0, 0.0, 0.0, 1.0, 0.0, 0.0)" width="30.0" xlink:href="#shape1"/>
      <filter id="filter0">
        <feColorMatrix in="SourceGraphic" result="filterResult0" type="matrix" values="0 0 0 0 1.0,0 0 0 0 1.0,0 0 0 0 1.0,0 0 0 1 0"/>
        <feConvolveMatrix divisor="25.0" in="filterResult0" kernelMatrix="1 1 1 1 1 1 1 1 1 1 1 1 1 1 1 1 1 1 1 1 1 1 1 1 1" order="5 5" result="filterResult1"/>
        <feComposite in="SourceGraphic" in2="filterResult1" operator="over" result="filterResult2"/>
      </filter>
      <use ffdec:characterId="4" filter="url(#filter0)" height="43.45" transform="matrix(0.3961, 0.0, 0.0, 0.3961, 4.2633, 7.5106)" width="53.15" xlink:href="#sprite1"/>
    </g>
    <g id="shape1" transform="matrix(1.0, 0.0, 0.0, 1.0, 0.0, 0.0)">
      <path d="M27.95 0.15 Q30.0 0.7 30.0 3.3 L30.0 26.7 29.8 28.15 Q29.15 30.0 26.7 30.0 L3.3 30.0 2.4 29.95 Q0.7 29.65 0.2 28.15 L0.0 26.7 0.0 3.3 Q0.0 0.7 2.05 0.15 L2.4 0.1 3.3 0.0 26.7 0.0 27.95 0.15" fill="#cccccc" fill-rule="evenodd" stroke="none"/>
    </g>
    <g id="sprite1" transform="matrix(1.0, 0.0, 0.0, 1.0, 0.85, -4.95)">
      <use ffdec:characterId="3" height="43.45" transform="matrix(1.0, 0.0, 0.0, 1.0, -0.85, 4.95)" width="53.15" xlink:href="#shape2"/>
    </g>
    <g id="shape2" transform="matrix(1.0, 0.0, 0.0, 1.0, 0.85, -4.95)">
      <path d="M51.25 10.65 L52.3 12.5 51.95 22.8 40.0 25.15 39.9 25.2 39.95 25.1 40.0 25.15 40.2 25.05 41.4 24.2 Q42.45 23.65 43.1 23.4 L45.4 21.8 Q47.05 20.35 48.4 17.8 L49.05 16.65 49.55 15.65 49.8 15.15 49.95 14.8 51.45 11.0 51.25 10.65 M13.95 10.2 L15.9 10.05 14.6 10.15 13.95 10.2 M33.15 12.3 L34.7 13.6 33.95 13.0 33.15 12.3" fill="#000000" fill-opacity="0.5019608" fill-rule="evenodd" stroke="none"/>
      <path d="M40.0 25.15 L40.0 25.25 40.0 25.15 39.95 25.1 39.9 25.2 39.55 25.4 39.5 25.25 39.05 23.4 38.9 23.15 38.55 22.4 38.5 22.3 38.75 22.15 38.8 22.15 Q40.6 21.2 43.5 19.15 46.45 17.05 48.25 15.95 L48.25 15.85 48.65 15.3 49.8 15.15 49.55 15.65 49.05 16.65 48.4 17.8 Q47.05 20.35 45.4 21.8 L43.1 23.4 Q42.45 23.65 41.4 24.2 L40.2 25.05 40.0 25.15 M31.7 47.25 L28.0 45.8 Q22.05 43.0 19.45 41.2 19.35 40.8 18.9 40.45 L18.8 40.4 17.75 39.45 17.05 39.8 15.25 40.2 9.45 41.6 4.95 42.65 3.1 39.8 3.15 39.8 3.55 39.85 Q5.25 39.75 7.1 38.9 9.15 37.95 11.4 37.4 11.0 37.85 11.0 38.2 10.75 38.4 11.25 38.2 L12.85 37.0 14.2 36.65 14.8 36.4 15.35 36.15 16.05 35.9 16.0 36.05 17.45 35.45 17.7 35.0 18.55 33.9 19.55 33.35 19.05 34.15 Q18.4 35.7 18.5 36.75 18.65 38.0 20.6 38.9 L24.2 41.4 Q26.4 42.0 31.7 45.15 L31.95 45.4 32.45 45.6 32.75 45.8 31.95 45.55 31.8 47.25 31.7 47.25 M36.6 7.4 L36.8 7.2 Q37.15 6.85 37.7 6.6 L40.6 5.85 38.95 6.3 37.7 6.6 36.6 7.4 M15.2 33.75 Q18.4 30.65 20.25 29.6 22.15 28.65 23.65 28.05 25.25 27.4 26.3 27.25 L27.5 27.35 27.6 27.4 28.5 27.45 28.65 27.2 29.6 25.7 29.1 27.15 28.25 29.5 27.3 29.6 24.15 30.1 22.6 30.45 Q20.75 31.0 18.4 32.1 19.1 31.8 17.6 32.6 L16.0 33.5 15.2 33.75" fill="#c778fc" fill-rule="evenodd" stroke="none"/>
      <path d="M41.55 5.7 L42.1 5.65 46.2 6.05 46.25 6.1 46.35 6.1 Q48.25 6.7 49.85 8.0 L51.05 10.25 51.25 10.65 51.45 11.0 49.95 14.8 49.8 15.15 48.65 15.3 48.25 15.85 48.25 15.95 Q46.45 17.05 43.5 19.15 40.6 21.2 38.8 22.15 L38.75 22.15 38.5 22.3 38.55 22.4 38.9 23.15 39.05 23.4 38.4 23.65 38.65 23.5 37.7 22.4 37.6 22.15 37.5 22.05 37.3 21.8 36.8 21.0 36.7 20.95 35.9 19.9 35.85 19.9 35.0 19.0 34.15 18.35 33.95 18.3 34.7 17.35 Q35.5 16.4 36.55 16.0 37.05 15.65 37.6 15.6 L36.9 15.2 Q35.5 15.75 34.35 16.6 L33.4 17.55 Q32.2 18.9 31.4 20.85 L31.4 20.95 31.05 21.65 Q30.25 23.7 29.6 25.7 L28.65 27.2 28.5 27.45 27.6 27.4 27.5 27.35 26.3 27.25 Q25.25 27.4 23.65 28.05 22.15 28.65 20.25 29.6 18.4 30.65 15.2 33.75 L15.2 33.8 14.85 33.95 14.8 34.1 14.15 34.75 12.9 35.85 12.7 36.15 11.4 37.4 Q9.15 37.95 7.1 38.9 5.25 39.75 3.55 39.85 L3.15 39.8 3.1 39.8 Q0.9 36.45 -0.85 32.5 L-0.85 23.95 -0.15 23.95 1.65 24.1 Q4.05 24.45 5.0 25.55 L5.25 25.95 Q4.85 26.0 4.85 26.4 4.35 26.5 3.55 26.95 L2.45 27.35 1.65 27.8 Q1.05 28.0 0.35 28.5 L4.35 27.9 Q7.5 27.4 11.85 24.5 L13.55 23.25 17.1 20.5 17.85 19.9 18.15 19.55 Q22.35 15.75 24.05 14.35 L26.45 12.55 26.7 12.45 28.35 11.8 Q29.6 11.6 29.8 12.05 L29.85 14.25 Q29.85 16.75 28.8 18.1 L28.65 18.25 28.1 18.85 28.0 18.85 27.75 19.05 Q26.7 19.85 24.95 20.25 L25.4 20.2 26.15 20.5 27.35 20.4 Q28.1 20.3 29.6 18.6 L30.1 18.05 31.65 16.2 33.95 13.0 34.7 13.6 35.4 14.2 36.25 8.45 36.25 8.3 36.35 7.85 36.55 7.45 38.05 8.6 38.1 8.65 39.95 10.55 Q42.1 12.9 43.25 15.4 L43.25 14.9 Q43.15 12.4 42.05 10.25 L41.3 8.9 40.85 8.25 40.0 7.35 Q41.25 7.55 42.35 8.05 L42.5 8.05 42.75 8.2 44.05 8.95 45.25 9.75 45.9 10.4 46.55 11.25 46.9 11.2 46.9 10.8 46.7 10.8 46.15 9.6 45.65 8.85 44.55 7.7 44.3 7.5 41.55 5.7 M12.85 37.0 L13.65 36.35 14.15 35.95 16.65 34.85 16.05 35.8 16.05 35.9 15.35 36.15 14.8 36.4 14.2 36.65 12.85 37.0" fill="#4e4bad" fill-rule="evenodd" stroke="none"/>
      <path d="M-0.85 23.95 L-0.85 22.85 0.1 21.15 1.4 19.35 1.65 19.35 8.95 18.5 12.85 18.05 14.45 17.9 15.2 17.3 Q15.4 16.8 16.0 16.7 16.25 16.65 17.6 17.4 L19.15 18.5 19.15 18.1 18.5 16.6 Q17.75 15.4 17.75 14.5 L17.85 13.85 Q18.25 12.9 19.35 11.45 L21.4 9.3 Q23.0 7.6 24.6 6.45 L28.95 8.7 32.9 12.05 33.15 12.3 33.95 13.0 31.65 16.2 30.1 18.05 29.6 18.6 Q28.1 20.3 27.35 20.4 L26.15 20.5 25.4 20.2 24.95 20.25 Q26.7 19.85 27.75 19.05 L28.0 18.85 28.1 18.85 28.65 18.25 28.8 18.1 Q29.85 16.75 29.85 14.25 L29.8 12.05 Q29.6 11.6 28.35 11.8 L26.7 12.45 26.45 12.55 24.05 14.35 Q22.35 15.75 18.15 19.55 L17.85 19.9 17.1 20.5 13.55 23.25 11.85 24.5 Q7.5 27.4 4.35 27.9 L0.35 28.5 Q1.05 28.0 1.65 27.8 L2.45 27.35 3.55 26.95 Q4.35 26.5 4.85 26.4 4.85 26.0 5.25 25.95 L5.0 25.55 Q4.05 24.45 1.65 24.1 L-0.15 23.95 -0.85 23.95 M40.6 5.85 L41.55 5.7 44.3 7.5 44.55 7.7 45.65 8.85 46.15 9.6 46.7 10.8 46.9 10.8 46.9 11.2 46.55 11.25 45.9 10.4 45.25 9.75 44.05 8.95 42.75 8.2 42.5 8.05 42.35 8.05 Q41.25 7.55 40.0 7.35 L38.95 6.3 40.6 5.85" fill="#6f7ac8" fill-rule="evenodd" stroke="none"/>
      <path d="M8.55 12.05 L10.25 10.8 10.25 11.1 9.55 12.55 8.55 12.05 M12.35 10.4 L13.25 10.3 13.95 10.2 14.6 10.15 14.05 12.25 Q13.9 13.55 14.2 14.3 L14.2 14.75 13.95 14.4 12.85 12.9 12.85 12.8 12.7 12.45 Q12.2 11.45 12.35 10.4 M36.55 7.45 L36.6 7.4 37.7 6.6 38.95 6.3 40.0 7.35 40.85 8.25 41.3 8.9 42.05 10.25 Q43.15 12.4 43.25 14.9 L43.25 15.4 Q42.1 12.9 39.95 10.55 L38.1 8.65 38.05 8.6 36.55 7.45" fill="#bccafe" fill-rule="evenodd" stroke="none"/>
      <path d="M39.55 25.4 L39.4 25.45 39.7 26.4 Q41.4 30.7 42.85 37.3 43.4 40.65 43.4 42.75 43.5 45.6 42.35 47.0 L41.3 47.8 41.0 48.0 39.05 48.35 39.15 47.1 39.85 47.0 40.0 46.85 40.6 45.95 Q41.65 43.8 41.15 40.35 40.75 36.95 38.25 29.3 L37.0 25.7 Q35.4 21.55 34.2 20.05 L34.05 19.8 33.95 19.7 33.9 19.6 34.15 18.35 35.0 19.0 35.85 19.9 35.9 19.9 36.7 20.95 36.8 21.0 37.3 21.8 37.5 22.05 37.6 22.15 37.7 22.4 38.65 23.5 38.4 23.65 39.05 23.4 39.5 25.25 39.55 25.4" fill="#f5f7f8" fill-rule="evenodd" stroke="none"/>
      <path d="M39.05 48.35 L38.35 48.4 Q35.4 48.55 31.8 47.35 L31.8 47.25 31.95 45.55 32.75 45.8 32.45 45.6 31.95 45.4 31.7 45.15 Q26.4 42.0 24.2 41.4 L20.6 38.9 Q18.65 38.0 18.5 36.75 18.4 35.7 19.05 34.15 L19.55 33.35 Q20.6 32.7 21.0 32.65 24.15 31.45 26.55 31.3 L29.05 31.05 29.85 28.75 30.25 27.25 30.35 26.9 31.4 23.7 31.4 23.45 31.7 22.6 Q32.45 20.45 33.4 19.2 L33.65 19.35 33.9 19.6 33.95 19.7 34.05 19.8 34.2 20.05 Q35.4 21.55 37.0 25.7 L38.25 29.3 Q40.75 36.95 41.15 40.35 41.65 43.8 40.6 45.95 L40.0 46.85 39.85 47.0 39.15 47.1 39.05 48.35 M32.85 26.6 L32.5 29.0 32.35 29.8 32.1 30.9 Q31.7 35.55 34.55 40.0 L35.35 41.65 36.0 42.85 Q36.7 44.0 37.35 44.55 38.25 45.4 38.9 45.25 L39.2 45.1 39.45 44.9 Q40.25 44.3 40.35 42.7 L40.1 39.4 39.7 37.25 38.65 34.15 38.4 33.5 37.45 30.9 35.4 26.0 Q34.3 23.7 33.95 23.8 33.35 23.95 32.9 26.45 L32.85 26.6 M22.3 36.0 Q21.8 36.4 21.85 37.0 22.1 38.4 26.25 40.6 30.1 42.6 31.45 42.45 29.3 41.0 26.7 38.95 L22.85 35.85 Q22.6 35.8 22.3 36.0" fill="#404859" fill-rule="evenodd" stroke="none"/>
      <path d="M1.4 19.35 L1.9 18.75 2.0 18.6 Q4.9 14.9 8.55 12.05 L9.55 12.55 10.25 11.1 10.25 10.8 10.4 10.7 12.05 10.45 12.35 10.4 Q12.2 11.45 12.7 12.45 L12.85 12.8 12.85 12.9 13.95 14.4 14.2 14.75 14.2 14.3 Q13.9 13.55 14.05 12.25 L14.6 10.15 15.9 10.05 19.3 10.15 Q21.3 7.9 21.7 4.95 L24.6 6.45 Q23.0 7.6 21.4 9.3 L19.35 11.45 Q18.25 12.9 17.85 13.85 L17.75 14.5 Q17.75 15.4 18.5 16.6 L19.15 18.1 19.15 18.5 17.6 17.4 Q16.25 16.65 16.0 16.7 15.4 16.8 15.2 17.3 L14.45 17.9 12.85 18.05 8.95 18.5 1.65 19.35 1.4 19.35" fill="#a7b5fe" fill-rule="evenodd" stroke="none"/>
      <path d="M29.6 25.7 Q30.25 23.7 31.05 21.65 L31.4 20.95 31.4 20.85 Q32.2 18.9 33.4 17.55 L34.35 16.6 Q35.5 15.75 36.9 15.2 L37.6 15.6 Q37.05 15.65 36.55 16.0 35.5 16.4 34.7 17.35 L33.95 18.3 34.15 18.35 33.9 19.6 33.65 19.35 33.4 19.2 Q32.45 20.45 31.7 22.6 L31.4 23.45 31.4 23.7 30.35 26.9 30.25 27.25 29.85 28.75 29.05 31.05 26.55 31.3 Q24.15 31.45 21.0 32.65 20.6 32.7 19.55 33.35 L18.55 33.9 17.7 35.0 17.45 35.45 16.0 36.05 16.05 35.9 16.05 35.8 16.65 34.85 14.15 35.95 13.65 36.35 12.85 37.0 11.25 38.2 Q10.75 38.4 11.0 38.2 11.0 37.85 11.4 37.4 L12.7 36.15 12.9 35.85 14.15 34.75 14.8 34.1 14.85 33.95 15.2 33.8 15.2 33.75 16.0 33.5 17.6 32.6 Q19.1 31.8 18.4 32.1 20.75 31.0 22.6 30.45 L24.15 30.1 27.3 29.6 28.25 29.5 29.1 27.15 29.6 25.7" fill="#20252d" fill-rule="evenodd" stroke="none"/>
      <path d="M33.8 26.3 L33.9 25.75 34.25 26.2 34.8 27.2 36.7 31.25 Q38.25 34.45 38.9 36.7 L39.55 39.15 39.85 41.0 Q39.95 41.85 39.55 42.3 L39.55 42.05 39.05 39.95 38.65 38.65 37.35 34.95 35.75 30.55 Q35.0 28.7 34.45 28.0 L34.15 27.45 Q34.2 27.85 33.75 28.25 L33.5 28.05 33.8 26.7 33.8 26.3" fill="#afb7c7" fill-rule="evenodd" stroke="none"/>
      <path d="M33.8 26.3 L33.8 26.7 33.5 28.05 33.75 28.25 Q34.2 27.85 34.15 27.45 L34.45 28.0 Q35.0 28.7 35.75 30.55 L37.35 34.95 38.65 38.65 39.05 39.95 39.55 42.05 39.55 42.3 Q39.95 41.85 39.85 41.0 L39.55 39.15 38.9 36.7 Q38.25 34.45 36.7 31.25 L34.8 27.2 34.25 26.2 33.9 25.75 33.8 26.3 M32.85 26.6 L32.9 26.45 Q33.35 23.95 33.95 23.8 34.3 23.7 35.4 26.0 L37.45 30.9 38.4 33.5 38.65 34.15 39.7 37.25 40.1 39.4 40.35 42.7 Q40.25 44.3 39.45 44.9 L39.2 45.1 38.9 45.25 Q38.25 45.4 37.35 44.55 36.7 44.0 36.0 42.85 L35.35 41.65 34.55 40.0 Q31.7 35.55 32.1 30.9 L32.35 29.8 32.5 29.0 32.85 26.6" fill="#8893aa" fill-rule="evenodd" stroke="none"/>
      <path d="M22.3 36.0 Q22.6 35.8 22.85 35.85 L26.7 38.95 Q29.3 41.0 31.45 42.45 30.1 42.6 26.25 40.6 22.1 38.4 21.85 37.0 21.8 36.4 22.3 36.0" fill="#67748f" fill-rule="evenodd" stroke="none"/>
      <path d="M31.8 47.35 L31.7 47.25 31.8 47.25 31.8 47.35" fill="#0d0e15" fill-rule="evenodd" stroke="none"/>
    </g>
  </defs>
</svg>
