<?xml version="1.0" encoding="UTF-8" standalone="no"?>
<svg xmlns:ffdec="https://www.free-decompiler.com/flash" xmlns:xlink="http://www.w3.org/1999/xlink" ffdec:objectType="frame" height="30.1px" width="30.0px" xmlns="http://www.w3.org/2000/svg">
  <g transform="matrix(1.0, 0.0, 0.0, 1.0, 0.0, 0.0)">
    <use ffdec:characterId="1" height="30.0" transform="matrix(1.0, 0.0, 0.0, 1.0, 0.0, 0.0)" width="30.0" xlink:href="#shape0"/>
    <use ffdec:characterId="5" height="30.0" transform="matrix(1.0, 0.0, 0.0, 1.0, 0.0, 0.1)" width="30.0" xlink:href="#sprite0"/>
  </g>
  <defs>
    <g id="shape0" transform="matrix(1.0, 0.0, 0.0, 1.0, 0.0, 0.0)">
      <path d="M0.0 0.0 L30.0 0.0 30.0 30.0 0.0 30.0 0.0 0.0" fill="#33cc66" fill-opacity="0.0" fill-rule="evenodd" stroke="none"/>
    </g>
    <g id="sprite0" transform="matrix(1.0, 0.0, 0.0, 1.0, 0.0, 0.0)">
      <use ffdec:characterId="2" height="30.0" transform="matrix(1.0, 0.0, 0.0, 1.0, 0.0, 0.0)" width="30.0" xlink:href="#shape1"/>
      <filter id="filter0">
        <feColorMatrix in="SourceGraphic" result="filterResult0" type="matrix" values="0 0 0 0 1.0,0 0 0 0 1.0,0 0 0 0 1.0,0 0 0 1 0"/>
        <feConvolveMatrix divisor="25.0" in="filterResult0" kernelMatrix="1 1 1 1 1 1 1 1 1 1 1 1 1 1 1 1 1 1 1 1 1 1 1 1 1" order="5 5" result="filterResult1"/>
        <feComposite in="SourceGraphic" in2="filterResult1" operator="over" result="filterResult2"/>
      </filter>
      <use ffdec:characterId="4" filter="url(#filter0)" height="59.25" transform="matrix(0.3961, 0.0, 0.0, 0.3961, 8.8579, 3.2131)" width="31.1" xlink:href="#sprite1"/>
    </g>
    <g id="shape1" transform="matrix(1.0, 0.0, 0.0, 1.0, 0.0, 0.0)">
      <path d="M27.95 0.15 Q30.0 0.7 30.0 3.3 L30.0 26.7 29.8 28.15 Q29.15 30.0 26.7 30.0 L3.3 30.0 2.4 29.95 Q0.7 29.65 0.2 28.15 L0.0 26.7 0.0 3.3 Q0.0 0.7 2.05 0.15 L2.4 0.1 3.3 0.0 26.7 0.0 27.95 0.15" fill="#cccccc" fill-rule="evenodd" stroke="none"/>
    </g>
    <g id="sprite1" transform="matrix(1.0, 0.0, 0.0, 1.0, -10.75, 5.9)">
      <use ffdec:characterId="3" height="59.25" transform="matrix(1.0, 0.0, 0.0, 1.0, 10.75, -5.9)" width="31.1" xlink:href="#shape2"/>
    </g>
    <g id="shape2" transform="matrix(1.0, 0.0, 0.0, 1.0, -10.75, 5.9)">
      <path d="M19.55 -0.15 L23.15 -0.25 24.4 -0.5 24.25 0.2 21.65 0.35 20.85 0.4 19.75 0.45 18.15 0.45 16.8 0.45 15.85 -0.35 16.55 -0.25 17.8 -0.2 19.55 -0.15" fill="#18b0fc" fill-rule="evenodd" stroke="none"/>
      <path d="M24.4 -0.5 L25.95 -0.7 26.7 -0.85 26.8 0.8 27.75 5.2 28.55 5.6 30.85 6.85 30.65 7.25 30.1 8.3 30.1 8.35 28.55 7.55 28.0 7.25 Q26.6 6.55 25.8 6.35 L25.35 1.55 25.25 0.15 24.6 0.2 24.25 0.2 24.4 -0.5" fill="#59ecff" fill-rule="evenodd" stroke="none"/>
      <path d="M25.95 -0.7 L24.4 -0.5 23.15 -0.25 19.55 -0.15 17.45 -0.9 16.2 -1.35 15.55 -1.6 14.75 -1.9 15.3 -2.9 Q17.55 -2.35 20.1 -2.8 24.3 -3.1 28.35 -2.65 L28.45 -2.4 25.95 -0.7" fill="#0684da" fill-rule="evenodd" stroke="none"/>
      <path d="M24.25 0.2 L24.6 0.2 25.25 0.15 25.35 1.55 24.55 1.55 24.0 1.55 23.9 1.55 23.25 1.55 22.65 1.6 19.45 1.65 18.95 1.7 16.8 1.75 16.15 1.8 15.35 0.55 15.25 0.4 15.1 0.15 14.7 -0.5 Q14.45 -0.85 14.35 -1.15 L13.5 -2.3 12.65 -3.5 13.8 -2.25 14.05 -2.2 14.55 -1.55 15.45 -0.75 15.65 -0.55 15.85 -0.35 16.8 0.45 18.15 0.45 19.75 0.45 20.85 0.4 21.65 0.35 24.25 0.2" fill="#005ad8" fill-rule="evenodd" stroke="none"/>
      <path d="M25.95 -0.7 L28.45 -2.4 28.55 -1.0 28.4 0.7 Q28.4 5.25 32.5 6.9 L31.45 7.15 30.85 6.85 28.55 5.6 27.75 5.2 26.8 0.8 26.7 -0.85 25.95 -0.7" fill="#0986d8" fill-rule="evenodd" stroke="none"/>
      <path d="M30.1 8.35 L30.1 8.3 30.65 7.25 30.85 6.85 31.45 7.15 32.5 7.55 34.15 8.2 35.15 8.55 35.3 8.55 37.9 9.5 37.9 9.75 Q37.95 10.65 38.55 12.2 L37.95 13.35 37.05 15.55 36.9 16.2 36.0 15.8 35.7 15.7 36.4 13.7 Q36.9 12.45 37.35 11.95 L37.35 11.85 36.85 10.15 35.7 10.0 32.9 9.35 32.4 9.15 30.75 8.6 30.65 8.55 30.1 8.35" fill="#66ddfd" fill-rule="evenodd" stroke="none"/>
      <path d="M25.35 1.55 L25.8 6.35 Q26.6 6.55 28.0 7.25 L28.55 7.55 30.1 8.35 30.65 8.55 30.75 8.6 30.65 9.3 29.9 8.95 29.8 8.95 27.05 7.85 26.55 7.65 25.9 7.35 24.55 6.8 24.65 5.2 24.6 4.95 24.65 2.5 24.55 1.55 25.35 1.55" fill="#0049f2" fill-rule="evenodd" stroke="none"/>
      <path d="M24.55 1.55 L24.65 2.5 24.6 4.95 24.65 5.2 Q22.9 4.8 21.7 4.05 L21.5 3.95 18.95 1.7 19.45 1.65 22.65 1.6 23.25 1.55 23.9 1.55 24.0 1.55 24.55 1.55" fill="#0184f6" fill-rule="evenodd" stroke="none"/>
      <path d="M26.35 10.5 L22.35 7.85 22.2 8.05 21.95 8.45 21.8 8.8 21.65 9.2 21.45 9.8 Q21.25 10.25 21.35 10.85 L19.65 8.85 19.95 7.95 Q20.85 5.55 21.7 4.05 22.9 4.8 24.65 5.2 L24.55 6.8 25.9 7.35 26.55 7.65 27.05 7.85 29.8 8.95 29.9 8.95 26.9 10.3 26.35 10.5" fill="#0585ff" fill-rule="evenodd" stroke="none"/>
      <path d="M29.65 10.5 L28.6 10.35 26.5 10.6 26.35 10.5 26.9 10.3 29.9 8.95 30.65 9.3 31.55 9.6 29.65 10.5" fill="#19b2f8" fill-rule="evenodd" stroke="none"/>
      <path d="M30.65 9.3 L30.75 8.6 32.4 9.15 32.9 9.35 35.7 10.0 36.85 10.15 37.35 11.85 37.35 11.95 Q36.9 12.45 36.4 13.7 L35.7 15.7 35.6 15.95 35.35 16.9 34.75 19.6 34.5 20.7 32.9 22.4 31.8 23.45 30.95 24.15 29.8 25.25 28.95 26.0 28.9 26.1 27.6 27.15 24.75 29.4 24.15 29.85 24.9 29.15 26.8 27.1 28.5 25.3 28.6 25.1 28.95 24.8 29.85 23.85 30.95 22.7 33.0 20.5 33.65 19.7 Q34.7 17.95 35.05 16.05 L35.1 15.55 35.1 13.95 35.1 13.85 34.9 12.6 35.85 11.4 31.9 9.75 31.55 9.6 30.65 9.3" fill="#067bdb" fill-rule="evenodd" stroke="none"/>
      <path d="M32.6 14.55 L33.25 12.6 30.6 10.85 Q30.1 10.6 29.65 10.5 L31.55 9.6 31.9 9.75 35.85 11.4 34.9 12.6 35.1 13.85 35.1 13.95 32.6 14.55" fill="#0db7f4" fill-rule="evenodd" stroke="none"/>
      <path d="M31.45 7.15 L32.5 6.9 34.0 7.35 36.35 8.2 35.15 8.55 34.15 8.2 32.5 7.55 31.45 7.15" fill="#0986d4" fill-rule="evenodd" stroke="none"/>
      <path d="M36.35 8.2 Q38.1 8.9 39.7 9.95 L41.85 9.95 Q40.55 12.3 39.65 15.0 L37.95 15.35 37.05 15.55 37.95 13.35 38.55 12.2 Q37.95 10.65 37.9 9.75 L37.9 9.5 35.3 8.55 35.15 8.55 36.35 8.2" fill="#14bbe9" fill-rule="evenodd" stroke="none"/>
      <path d="M15.3 -2.9 L14.75 -1.9 14.05 -2.2 13.8 -2.25 12.65 -3.5 13.5 -2.3 12.2 -2.7 10.75 -4.4 10.85 -5.9 11.9 -4.7 12.35 -4.4 12.55 -4.2 Q12.8 -4.05 13.0 -4.05 L13.85 -3.4 Q14.55 -3.1 15.3 -2.9" fill="#0ea0f9" fill-rule="evenodd" stroke="none"/>
      <path d="M15.3 1.75 L12.2 -2.7 13.5 -2.3 14.35 -1.15 Q14.45 -0.85 14.7 -0.5 L15.1 0.15 15.25 0.4 15.35 0.55 15.3 1.75" fill="#17a2ff" fill-rule="evenodd" stroke="none"/>
      <path d="M14.75 -1.9 L15.55 -1.6 16.2 -1.35 17.45 -0.9 19.55 -0.15 17.8 -0.2 16.55 -0.25 15.85 -0.35 15.65 -0.55 15.45 -0.75 14.55 -1.55 14.05 -2.2 14.75 -1.9" fill="#0042da" fill-rule="evenodd" stroke="none"/>
      <path d="M19.65 8.85 L17.1 4.85 15.3 1.75 15.35 0.55 16.15 1.8 16.8 1.75 18.95 1.7 21.5 3.95 21.7 4.05 Q20.85 5.55 19.95 7.95 L19.65 8.85" fill="#0089f2" fill-rule="evenodd" stroke="none"/>
      <path d="M39.65 15.0 L38.75 18.0 Q38.55 18.75 38.7 19.25 L36.25 19.4 36.7 17.1 36.9 16.2 37.05 15.55 37.95 15.35 39.65 15.0" fill="#15c6f2" fill-rule="evenodd" stroke="none"/>
      <path d="M28.05 22.35 Q29.95 19.9 31.45 17.1 L32.6 14.55 35.1 13.95 35.1 15.55 35.05 16.05 Q34.7 17.95 33.65 19.7 L33.0 20.5 30.95 22.7 28.2 23.2 28.05 22.35" fill="#27caeb" fill-rule="evenodd" stroke="none"/>
      <path d="M28.95 26.0 L29.8 25.25 30.95 24.15 31.8 23.45 32.9 22.4 34.5 20.7 34.75 19.6 35.35 16.9 35.6 15.95 35.7 15.7 36.0 15.8 36.9 16.2 36.7 17.1 36.25 19.4 36.05 20.75 34.15 22.2 33.1 23.15 30.7 25.65 30.65 25.75 29.65 26.9 29.6 26.85 28.95 26.0" fill="#56edff" fill-rule="evenodd" stroke="none"/>
      <path d="M38.7 19.25 Q38.8 19.9 39.35 20.2 L38.4 21.05 36.45 22.5 33.85 23.0 33.1 23.15 34.15 22.2 36.05 20.75 36.25 19.4 38.7 19.25" fill="#0faaf1" fill-rule="evenodd" stroke="none"/>
      <path d="M36.45 22.5 Q34.1 24.25 31.9 26.35 L30.65 25.75 30.7 25.65 33.1 23.15 33.85 23.0 36.45 22.5" fill="#0c95f0" fill-rule="evenodd" stroke="none"/>
      <path d="M23.65 27.5 L24.75 24.7 26.1 24.6 27.2 23.4 28.2 23.2 30.95 22.7 29.85 23.85 28.95 24.8 28.6 25.1 28.5 25.3 26.8 27.1 24.9 29.15 24.15 29.85 24.75 29.4 24.35 30.65 24.15 29.85 23.65 27.5" fill="#0e8ef3" fill-rule="evenodd" stroke="none"/>
      <path d="M27.2 23.4 L28.05 22.35 28.2 23.2 27.2 23.4" fill="#25cfff" fill-rule="evenodd" stroke="none"/>
      <path d="M31.9 26.35 L30.35 27.85 Q27.85 30.5 26.4 33.65 25.4 35.85 25.5 38.25 L24.1 38.55 25.75 34.15 25.75 33.95 27.45 29.6 29.25 27.4 29.3 27.2 29.65 26.9 30.65 25.75 31.9 26.35" fill="#18a2f5" fill-rule="evenodd" stroke="none"/>
      <path d="M20.15 50.2 L19.85 50.75 19.8 50.9 20.05 49.7 20.35 48.5 20.5 47.45 21.05 45.1 21.3 44.1 21.55 43.0 21.6 42.75 22.35 39.05 22.45 38.9 22.8 37.3 23.55 33.6 23.85 32.5 23.85 32.9 24.1 33.25 Q24.3 33.5 24.55 33.45 L25.25 33.25 Q26.15 32.75 26.05 31.25 25.95 30.35 25.2 30.45 L24.95 30.5 24.6 30.85 24.45 31.0 24.35 31.15 24.2 31.3 24.35 30.65 24.75 29.4 27.6 27.15 28.9 26.1 28.95 26.0 29.6 26.85 29.65 26.9 29.3 27.2 29.25 27.4 27.45 29.6 25.75 33.95 25.75 34.15 24.1 38.55 23.85 39.3 22.45 43.4 21.85 45.2 21.7 45.6 20.95 47.85 20.55 48.7 20.15 50.2" fill="#60ddff" fill-rule="evenodd" stroke="none"/>
      <path d="M20.6 40.85 L23.3 28.7 23.65 27.5 24.15 29.85 24.35 30.65 24.2 31.3 24.2 31.4 24.15 31.5 24.1 31.55 Q23.85 31.9 23.85 32.5 L23.55 33.6 22.8 37.3 22.45 38.9 22.35 39.05 21.6 42.75 21.55 43.0 21.3 44.1 20.6 40.85" fill="#1174ec" fill-rule="evenodd" stroke="none"/>
      <path d="M24.2 31.3 L24.35 31.15 24.45 31.0 24.6 30.85 24.95 30.5 25.2 30.45 Q25.95 30.35 26.05 31.25 26.15 32.75 25.25 33.25 L24.55 33.45 Q24.3 33.5 24.1 33.25 L23.85 32.9 23.85 32.5 Q23.85 31.9 24.1 31.55 L24.15 31.5 24.2 31.4 24.2 31.3" fill="#aef8ff" fill-rule="evenodd" stroke="none"/>
      <path d="M25.5 38.25 L25.5 38.6 25.6 38.7 25.75 38.85 26.0 39.1 26.25 39.2 23.6 44.0 22.45 43.4 23.85 39.3 24.1 38.55 25.5 38.25" fill="#17a0f6" fill-rule="evenodd" stroke="none"/>
      <path d="M23.6 44.0 L20.15 50.2 20.55 48.7 20.95 47.85 21.7 45.6 21.85 45.2 22.45 43.4 23.6 44.0" fill="#149ff7" fill-rule="evenodd" stroke="none"/>
      <path d="M19.75 45.0 L20.6 40.85 21.3 44.1 21.05 45.1 19.75 45.0" fill="#0089ff" fill-rule="evenodd" stroke="none"/>
      <path d="M19.8 50.9 L19.15 52.2 18.75 52.2 Q18.75 49.95 19.2 47.75 L19.75 45.0 21.05 45.1 20.5 47.45 20.35 48.5 20.05 49.7 19.8 50.9" fill="#098cf8" fill-rule="evenodd" stroke="none"/>
      <path d="M19.15 52.2 L18.75 53.35 18.75 52.2 19.15 52.2" fill="#0d97ff" fill-rule="evenodd" stroke="none"/>
    </g>
  </defs>
</svg>
