<?xml version="1.0" encoding="UTF-8" standalone="no"?>
<svg xmlns:ffdec="https://www.free-decompiler.com/flash" xmlns:xlink="http://www.w3.org/1999/xlink" ffdec:objectType="frame" height="30.15px" width="30.1px" xmlns="http://www.w3.org/2000/svg">
  <g transform="matrix(1.0, 0.0, 0.0, 1.0, 0.0, 0.15)">
    <use ffdec:characterId="1" height="30.0" transform="matrix(1.0, 0.0, 0.0, 1.0, 0.0, 0.0)" width="30.0" xlink:href="#shape0"/>
    <use ffdec:characterId="3" height="30.0" transform="matrix(1.0, 0.0, 0.0, 1.0, 0.1, -0.15)" width="30.0" xlink:href="#sprite0"/>
  </g>
  <defs>
    <g id="shape0" transform="matrix(1.0, 0.0, 0.0, 1.0, 0.0, 0.0)">
      <path d="M0.0 0.0 L30.0 0.0 30.0 30.0 0.0 30.0 0.0 0.0" fill="#33cc66" fill-opacity="0.0" fill-rule="evenodd" stroke="none"/>
    </g>
    <g id="sprite0" transform="matrix(1.0, 0.0, 0.0, 1.0, 0.0, 30.0)">
      <use ffdec:characterId="2" height="30.0" transform="matrix(1.0, 0.0, 0.0, 1.0, 0.0, -30.0)" width="30.0" xlink:href="#shape1"/>
    </g>
    <g id="shape1" transform="matrix(1.0, 0.0, 0.0, 1.0, 0.0, 30.0)">
      <path d="M3.3 -30.0 L26.7 -30.0 Q30.0 -30.0 30.0 -26.7 L30.0 -3.3 Q30.0 0.0 26.7 0.0 L3.3 0.0 Q0.0 0.0 0.0 -3.3 L0.0 -26.7 Q0.0 -30.0 3.3 -30.0" fill="#02cac9" fill-rule="evenodd" stroke="none"/>
      <path d="M8.55 -25.6 L6.95 -24.35 4.85 -22.0 Q4.3 -24.2 3.0 -22.5 L3.0 -21.9 Q3.5 -17.9 4.9 -14.7 L5.25 -14.0 5.8 -12.95 6.0 -12.55 7.1 -11.0 7.2 -11.05 7.85 -11.65 8.5 -12.25 8.75 -12.55 9.95 -13.75 10.25 -14.1 11.9 -16.3 13.0 -18.4 13.3 -19.05 13.6 -19.75 13.65 -19.95 13.65 -20.1 13.6 -20.45 13.4 -20.95 13.35 -21.05 12.95 -21.35 12.05 -21.4 11.45 -21.2 11.15 -21.1 10.7 -20.9 10.45 -20.75 11.0 -21.6 11.35 -22.1 12.1 -23.05 Q13.0 -24.1 14.0 -24.6 15.3 -25.35 16.8 -25.4 L18.2 -25.35 18.45 -25.3 Q18.7 -25.25 18.75 -25.55 L18.8 -25.8 18.85 -25.95 18.65 -26.05 17.9 -26.4 17.65 -26.5 Q14.5 -27.85 11.5 -27.05 L9.85 -26.35 8.55 -25.6 M10.25 -14.1 Q10.7 -11.45 13.35 -10.25 14.2 -9.85 15.2 -9.85 L16.75 -10.05 17.3 -11.0 17.75 -11.75 18.6 -12.95 20.3 -14.8 20.2 -16.2 19.1 -18.25 18.75 -18.6 Q17.2 -20.0 15.05 -20.05 L13.75 -19.8 13.6 -19.75 M20.3 -14.8 L22.3 -16.5 Q21.65 -18.25 20.45 -19.65 18.35 -22.1 15.15 -22.5 L12.95 -21.35 M12.05 -21.4 L11.35 -22.1 M4.9 -14.7 Q3.8 -12.4 3.3 -9.85 2.75 -7.05 4.35 -4.9 5.9 -2.8 8.6 -2.9 L12.6 -3.75 11.95 -4.1 11.6 -4.35 10.8 -4.9 10.85 -5.0 11.0 -5.25 Q11.1 -5.5 11.3 -5.45 L13.25 -5.05 14.55 -5.15 15.85 -5.5 Q16.45 -5.7 17.1 -6.1 L17.9 -6.7 18.9 -7.65 18.75 -7.85 18.2 -8.3 18.15 -8.35 17.25 -8.5 14.7 -7.45 Q10.45 -8.45 8.5 -12.25 M18.15 -8.35 L18.3 -8.35 19.6 -8.65 19.8 -8.75 18.9 -7.65 M16.75 -10.05 Q16.65 -8.9 17.25 -8.5 M17.9 -26.4 L22.6 -27.05 Q25.1 -26.75 26.2 -24.5 27.1 -22.75 26.85 -20.75 26.6 -18.6 25.75 -16.55 L25.4 -15.7 Q27.0 -11.6 27.05 -6.5 L26.95 -5.85 Q25.5 -4.35 25.2 -6.6 L22.8 -4.65 21.1 -3.65 19.7 -3.1 18.0 -2.7 Q15.3 -2.4 12.6 -3.75 M22.3 -16.5 L24.3 -17.9 24.9 -16.9 25.15 -16.35 25.2 -16.2 25.4 -15.7" fill="none" stroke="#ffffff" stroke-linecap="round" stroke-linejoin="round" stroke-width="3.5"/>
      <path d="M23.65 -26.25 L22.15 -26.65 Q16.2 -26.3 11.85 -22.1 L12.85 -22.05 Q14.0 -22.7 15.3 -22.9 19.1 -22.5 21.35 -19.45 L22.6 -21.25 24.05 -23.6 Q24.9 -25.15 23.65 -26.25 M21.9 -12.1 L21.4 -12.55 22.6 -15.7 Q21.9 -17.9 20.45 -19.65 18.35 -22.1 15.15 -22.5 L12.4 -21.1 11.05 -22.4 Q15.95 -27.05 22.6 -27.05 25.1 -26.75 26.2 -24.5 27.1 -22.75 26.85 -20.75 26.6 -18.6 25.75 -16.55 24.55 -13.7 22.65 -11.4 L22.55 -11.45 22.25 -11.75 21.9 -12.1 M7.55 -18.75 L8.85 -17.45 7.7 -14.6 Q7.9 -13.35 8.5 -12.25 10.45 -8.45 14.7 -7.45 L17.75 -8.75 18.2 -8.3 18.75 -7.85 18.95 -7.6 Q14.55 -3.55 8.6 -2.9 5.9 -2.8 4.35 -4.9 2.75 -7.05 3.3 -9.85 4.25 -14.8 7.55 -18.75 M8.1 -17.35 L7.55 -18.0 Q4.15 -13.45 3.75 -8.0 3.6 -5.55 5.85 -5.5 6.65 -5.5 7.35 -5.95 9.2 -7.1 10.75 -8.5 9.05 -9.8 7.9 -11.6 6.6 -13.75 7.55 -16.0 L8.1 -17.35 M8.3 -3.45 L9.45 -3.55 Q14.15 -4.25 17.95 -7.35 L17.55 -7.75 16.9 -7.35 Q14.15 -5.25 10.9 -4.1 L8.3 -3.45 M26.45 -22.5 Q25.75 -17.35 22.65 -13.2 L22.55 -13.05 22.9 -12.55 Q25.8 -16.25 26.4 -21.15 L26.45 -22.5" fill="#607b7d" fill-rule="evenodd" stroke="none"/>
      <path d="M23.65 -26.25 Q24.9 -25.15 24.05 -23.6 L22.6 -21.25 21.35 -19.45 Q19.1 -22.5 15.3 -22.9 14.0 -22.7 12.85 -22.05 L11.85 -22.1 Q16.2 -26.3 22.15 -26.65 L23.65 -26.25 M15.8 -23.8 L16.65 -23.55 Q18.9 -22.85 20.65 -21.35 L21.5 -21.15 22.1 -22.05 Q22.85 -23.3 23.15 -24.7 23.45 -25.85 22.25 -26.0 18.55 -26.25 15.8 -23.8 M5.85 -13.0 L5.55 -12.75 4.65 -11.35 Q3.8 -9.1 4.5 -6.85 4.8 -5.9 5.85 -5.95 8.3 -6.25 9.05 -8.35 L8.3 -9.3 5.85 -13.0 M8.1 -17.35 L7.55 -16.0 Q6.6 -13.75 7.9 -11.6 9.05 -9.8 10.75 -8.5 9.2 -7.1 7.35 -5.95 6.65 -5.5 5.85 -5.5 3.6 -5.55 3.75 -8.0 4.15 -13.45 7.55 -18.0 L8.1 -17.35" fill="#9aa9a8" fill-rule="evenodd" stroke="none"/>
      <path d="M17.9 -23.6 L18.95 -23.75 Q19.15 -24.05 18.95 -24.25 18.2 -25.25 17.7 -24.0 L17.9 -23.6 M22.0 -25.25 L21.8 -25.4 Q20.1 -26.05 19.35 -24.6 L19.5 -24.35 21.85 -24.75 22.0 -25.25 M15.8 -23.8 Q18.55 -26.25 22.25 -26.0 23.45 -25.85 23.15 -24.7 22.85 -23.3 22.1 -22.05 L21.5 -21.15 20.65 -21.35 Q18.9 -22.85 16.65 -23.55 L15.8 -23.8 M5.85 -13.0 L8.3 -9.3 9.05 -8.35 Q8.3 -6.25 5.85 -5.95 4.8 -5.9 4.5 -6.85 3.8 -9.1 4.65 -11.35 L5.55 -12.75 5.85 -13.0" fill="#d7dbda" fill-rule="evenodd" stroke="none"/>
      <path d="M22.0 -25.25 L21.85 -24.75 19.5 -24.35 19.35 -24.6 Q20.1 -26.05 21.8 -25.4 L22.0 -25.25 M17.9 -23.6 L17.7 -24.0 Q18.2 -25.25 18.95 -24.25 19.15 -24.05 18.95 -23.75 L17.9 -23.6 M12.65 -16.0 L11.85 -16.3 11.85 -16.55 Q12.75 -19.3 15.8 -19.45 L16.3 -18.7 15.9 -17.8 Q14.6 -16.35 12.75 -16.0 L12.65 -16.0 M15.95 -15.95 L16.4 -16.05 Q16.95 -15.1 16.0 -14.25 15.15 -13.65 14.6 -14.55 L14.65 -14.75 Q15.1 -15.55 15.95 -15.95 M19.45 -13.85 L19.55 -13.9 Q19.5 -12.25 18.0 -11.2 L17.9 -11.25 19.1 -13.2 19.45 -13.85" fill="#ffffff" fill-rule="evenodd" stroke="none"/>
      <path d="M15.8 -20.5 L16.0 -20.8 Q15.85 -21.25 15.35 -21.3 L11.95 -20.5 11.05 -21.2 10.7 -20.9 Q10.9 -20.25 11.45 -20.0 L12.1 -20.05 15.8 -20.5 M19.85 -19.7 L18.95 -18.8 17.55 -19.55 Q14.35 -21.0 11.45 -19.25 L11.3 -19.35 10.55 -20.0 9.95 -20.75 10.8 -21.8 12.05 -20.65 13.05 -20.95 14.35 -21.4 Q17.4 -22.0 19.85 -19.7 M9.25 -17.25 Q8.8 -16.2 8.7 -15.1 8.6 -13.9 9.4 -13.35 9.8 -13.55 9.55 -14.1 9.15 -15.1 9.65 -16.05 10.25 -17.25 9.9 -18.45 9.6 -19.4 8.9 -19.35 L8.9 -19.2 Q9.05 -18.45 9.45 -17.85 L9.3 -17.35 8.25 -18.8 9.2 -20.05 10.75 -18.4 Q8.75 -14.95 10.85 -11.6 L11.45 -10.8 10.6 -9.9 Q8.5 -11.8 8.3 -14.65 8.25 -15.0 8.45 -15.35 L9.25 -17.25" fill="#bbbbbb" fill-rule="evenodd" stroke="none"/>
      <path d="M15.8 -20.5 L12.1 -20.05 11.45 -20.0 Q10.9 -20.25 10.7 -20.9 L11.05 -21.2 11.95 -20.5 15.35 -21.3 Q15.85 -21.25 16.0 -20.8 L15.8 -20.5 M9.3 -17.35 L9.45 -17.85 Q9.05 -18.45 8.9 -19.2 L8.9 -19.35 Q9.6 -19.4 9.9 -18.45 10.25 -17.25 9.65 -16.05 9.15 -15.1 9.55 -14.1 9.8 -13.55 9.4 -13.35 8.6 -13.9 8.7 -15.1 8.8 -16.2 9.25 -17.25 L9.3 -17.35" fill="#f7f7f7" fill-rule="evenodd" stroke="none"/>
      <path d="M15.9 -17.8 L16.3 -18.7 15.8 -19.45 Q12.75 -19.3 11.85 -16.55 L11.85 -16.3 12.65 -16.0 13.25 -15.05 Q13.8 -14.5 14.6 -14.55 15.15 -13.65 16.0 -14.25 16.95 -15.1 16.4 -16.05 L15.95 -15.95 15.9 -17.8 M13.75 -19.8 L15.05 -20.05 Q17.2 -20.0 18.75 -18.6 L19.1 -18.25 20.2 -16.2 Q20.65 -13.85 19.3 -11.95 L18.85 -11.35 Q17.35 -9.8 15.2 -9.85 14.2 -9.85 13.35 -10.25 10.05 -11.75 10.15 -15.45 L10.2 -15.65 10.2 -15.7 10.25 -15.95 10.45 -16.6 Q10.8 -17.6 11.5 -18.35 L11.85 -18.7 Q12.7 -19.5 13.75 -19.8 M11.7 -14.85 L11.2 -13.9 Q11.5 -10.95 14.55 -10.7 L15.35 -10.65 Q17.9 -11.0 18.85 -13.55 19.45 -15.15 18.35 -16.4 17.1 -16.6 16.85 -15.15 16.65 -14.1 15.65 -13.7 L14.8 -13.75 Q13.35 -14.3 12.0 -14.95 L11.7 -14.85 M19.45 -13.85 L19.1 -13.2 17.9 -11.25 18.0 -11.2 Q19.5 -12.25 19.55 -13.9 L19.45 -13.85" fill="#3797bf" fill-rule="evenodd" stroke="none"/>
      <path d="M19.85 -19.7 Q17.4 -22.0 14.35 -21.4 L13.05 -20.95 12.05 -20.65 10.8 -21.8 9.95 -20.75 10.55 -20.0 11.3 -19.35 11.45 -19.25 Q14.35 -21.0 17.55 -19.55 L18.95 -18.8 19.85 -19.7 M10.2 -15.7 L10.2 -15.65 10.15 -15.45 Q10.05 -11.75 13.35 -10.25 14.2 -9.85 15.2 -9.85 17.35 -9.8 18.85 -11.35 L19.3 -11.95 Q20.65 -13.85 20.2 -16.2 L19.1 -18.25 18.75 -18.6 Q17.2 -20.0 15.05 -20.05 L13.75 -19.8 Q12.6 -19.5 11.7 -18.65 L11.45 -18.4 Q10.75 -17.65 10.45 -16.6 L10.25 -15.95 10.2 -15.7 M11.05 -22.4 L12.4 -21.1 15.15 -22.5 Q18.35 -22.1 20.45 -19.65 21.9 -17.9 22.6 -15.7 L21.4 -12.55 21.9 -12.1 20.2 -10.0 18.2 -8.3 17.75 -8.75 14.7 -7.45 Q10.45 -8.45 8.5 -12.25 7.9 -13.35 7.7 -14.6 L8.85 -17.45 7.55 -18.75 9.3 -20.55 11.05 -22.4 M11.45 -18.4 L9.3 -20.55 11.45 -18.4 M18.85 -11.35 L20.2 -10.0 18.85 -11.35 M9.25 -17.25 L8.45 -15.35 Q8.25 -15.0 8.3 -14.65 8.5 -11.8 10.6 -9.9 L11.45 -10.8 10.85 -11.6 Q8.75 -14.95 10.75 -18.4 L9.2 -20.05 8.25 -18.8 9.3 -17.35 9.25 -17.25 M22.65 -11.4 L20.75 -9.45 18.95 -7.6 18.75 -7.85 20.55 -9.65 20.75 -9.45 20.55 -9.65 22.25 -11.75 22.55 -11.45 22.65 -11.4" fill="#737373" fill-rule="evenodd" stroke="none"/>
      <path d="M11.7 -14.85 L12.0 -14.95 Q13.35 -14.3 14.8 -13.75 L15.65 -13.7 Q16.65 -14.1 16.85 -15.15 17.1 -16.6 18.35 -16.4 19.45 -15.15 18.85 -13.55 17.9 -11.0 15.35 -10.65 L14.55 -10.7 Q11.5 -10.95 11.2 -13.9 L11.7 -14.85" fill="#7edde7" fill-rule="evenodd" stroke="none"/>
      <path d="M12.65 -16.0 L12.75 -16.0 Q14.6 -16.35 15.9 -17.8 L15.95 -15.95 Q15.1 -15.55 14.65 -14.75 L14.6 -14.55 Q13.8 -14.5 13.25 -15.05 L12.65 -16.0" fill="#2c7898" fill-rule="evenodd" stroke="none"/>
      <path d="M18.2 -8.3 L20.2 -10.0 20.55 -9.65 20.2 -10.0 21.9 -12.1 22.25 -11.75 20.55 -9.65 18.75 -7.85 18.2 -8.3 M8.3 -3.45 L10.9 -4.1 Q14.15 -5.25 16.9 -7.35 L17.55 -7.75 17.95 -7.35 Q14.15 -4.25 9.45 -3.55 L8.3 -3.45 M26.45 -22.5 L26.4 -21.15 Q25.8 -16.25 22.9 -12.55 L22.55 -13.05 22.65 -13.2 Q25.75 -17.35 26.45 -22.5" fill="#e1e1e1" fill-rule="evenodd" stroke="none"/>
      <path d="M10.2 -15.7 L10.2 -15.65 10.15 -15.45 Q10.05 -11.75 13.35 -10.25 14.2 -9.85 15.2 -9.85 17.35 -9.8 18.85 -11.35 L19.3 -11.95 Q20.65 -13.85 20.2 -16.2 L19.1 -18.25 18.75 -18.6 Q17.2 -20.0 15.05 -20.05 L13.75 -19.8 Q12.7 -19.5 11.85 -18.7 L11.5 -18.35 Q10.8 -17.6 10.45 -16.6 L10.25 -15.95 M21.9 -12.1 L21.4 -12.55 22.6 -15.7 Q21.9 -17.9 20.45 -19.65 18.35 -22.1 15.15 -22.5 L12.4 -21.1 11.05 -22.4 M9.3 -20.55 L11.45 -18.4 11.5 -18.35 M9.2 -20.6 L9.3 -20.55 M7.55 -18.75 L8.85 -17.45 7.7 -14.6 Q7.9 -13.35 8.5 -12.25 10.45 -8.45 14.7 -7.45 L17.75 -8.75 18.2 -8.3 18.75 -7.85 18.95 -7.6 M20.2 -10.0 L18.85 -11.35 M20.55 -9.65 L20.2 -10.0 M21.9 -12.1 L22.25 -11.75 22.55 -11.45 22.65 -11.4 M20.55 -9.65 L20.75 -9.45" fill="none" stroke="#151515" stroke-linecap="round" stroke-linejoin="round" stroke-width="0.5"/>
      <path d="M7.55 -18.75 L9.2 -20.6 11.05 -22.4 Q15.95 -27.05 22.6 -27.05 25.1 -26.75 26.2 -24.5 27.1 -22.75 26.85 -20.75 26.6 -18.6 25.75 -16.55 24.55 -13.7 22.65 -11.4 L20.75 -9.45 18.95 -7.6 Q14.55 -3.55 8.6 -2.9 5.9 -2.8 4.35 -4.9 2.75 -7.05 3.3 -9.85 4.25 -14.8 7.55 -18.75 Z" fill="none" stroke="#1a3866" stroke-linecap="round" stroke-linejoin="round" stroke-width="1.0"/>
      <path d="M17.2 -10.85 L17.3 -11.0 Q19.2 -14.6 24.3 -17.9 L25.2 -16.2 Q27.0 -11.9 27.05 -6.5 L26.95 -5.85 Q25.5 -4.35 25.2 -6.6 L22.8 -4.65 21.1 -3.65 19.7 -3.1 18.0 -2.7 Q15.0 -2.35 11.95 -4.1 L10.8 -4.9 11.6 -4.55 Q14.4 -3.4 17.15 -3.7 L18.95 -4.1 Q20.65 -4.6 22.3 -6.15 L23.95 -7.8 24.25 -8.0 24.75 -8.2 Q25.0 -8.2 25.65 -7.6 26.35 -7.05 25.65 -10.7 24.9 -14.35 24.4 -15.2 L23.85 -16.0 Q23.65 -16.05 22.4 -15.1 21.2 -14.35 19.2 -12.15 17.45 -10.0 18.05 -9.75 L19.6 -9.8 Q20.4 -10.05 20.85 -9.55 21.35 -9.1 19.8 -7.25 18.2 -5.3 16.8 -4.85 L14.2 -4.35 11.95 -4.6 10.85 -5.0 11.0 -5.25 Q11.1 -5.5 11.3 -5.45 13.65 -4.65 15.85 -5.5 16.85 -5.8 17.9 -6.7 18.85 -7.55 19.8 -8.75 16.55 -7.5 16.75 -10.05 L17.2 -10.85" fill="#f39700" fill-rule="evenodd" stroke="none"/>
      <path d="M10.8 -4.9 L10.85 -5.0 11.95 -4.6 14.2 -4.35 16.8 -4.85 Q18.2 -5.3 19.8 -7.25 21.35 -9.1 20.85 -9.55 20.4 -10.05 19.6 -9.8 L18.05 -9.75 Q17.45 -10.0 19.2 -12.15 21.2 -14.35 22.4 -15.1 23.65 -16.05 23.85 -16.0 L24.4 -15.2 Q24.9 -14.35 25.65 -10.7 26.35 -7.05 25.65 -7.6 25.0 -8.2 24.75 -8.2 L24.25 -8.0 23.95 -7.8 22.3 -6.15 Q20.65 -4.6 18.95 -4.1 L17.15 -3.7 Q14.4 -3.4 11.6 -4.55 L10.8 -4.9 M23.0 -14.3 L22.7 -14.3 22.1 -13.95 21.15 -13.1 Q20.8 -12.6 21.15 -12.25 L21.25 -12.25 21.3 -12.2 Q21.65 -12.15 22.6 -13.1 23.5 -14.05 23.3 -14.2 L23.0 -14.3" fill="#ffe450" fill-rule="evenodd" stroke="none"/>
      <path d="M23.0 -14.3 L23.3 -14.2 Q23.5 -14.05 22.6 -13.1 21.65 -12.15 21.3 -12.2 L21.25 -12.25 21.15 -12.25 Q20.8 -12.6 21.15 -13.1 L22.1 -13.95 22.7 -14.3 23.0 -14.3" fill="#ffffff" fill-rule="evenodd" stroke="none"/>
      <path d="M17.3 -11.0 Q19.2 -14.6 24.3 -17.9 L25.2 -16.2 Q27.0 -11.9 27.05 -6.5 L26.95 -5.85 Q25.5 -4.35 25.2 -6.6 L22.8 -4.65 21.1 -3.65 19.7 -3.1 18.0 -2.7 Q15.0 -2.35 11.95 -4.1 L10.8 -4.9 10.85 -5.0 11.0 -5.25 Q11.1 -5.5 11.3 -5.45 13.65 -4.65 15.85 -5.5 16.85 -5.8 17.9 -6.7 18.85 -7.55 19.8 -8.75 16.55 -7.5 16.75 -10.05 L17.2 -10.85" fill="none" stroke="#663300" stroke-linecap="round" stroke-linejoin="round" stroke-width="1.0"/>
      <path d="M13.2 -18.9 Q11.75 -15.05 7.1 -11.0 L6.0 -12.55 Q3.7 -16.5 3.0 -21.9 L3.0 -22.5 Q4.3 -24.2 4.85 -22.0 L6.95 -24.35 8.55 -25.6 9.85 -26.35 11.5 -27.05 Q14.5 -27.85 17.65 -26.5 L18.85 -25.95 18.1 -26.15 Q15.15 -26.85 12.5 -26.15 L10.75 -25.45 Q9.1 -24.7 7.7 -22.95 L6.3 -21.1 6.0 -20.75 5.5 -20.5 Q5.2 -20.5 4.5 -21.0 3.8 -21.45 4.9 -17.95 6.1 -14.45 6.65 -13.7 L7.35 -12.95 8.65 -14.05 Q9.8 -15.0 11.45 -17.45 12.95 -19.85 12.3 -19.95 L10.85 -19.7 9.5 -19.75 Q9.0 -20.1 10.3 -22.25 11.6 -24.35 13.0 -25.05 14.25 -25.7 15.5 -25.95 L17.7 -26.0 18.8 -25.8 18.75 -25.55 Q18.7 -25.25 18.45 -25.3 16.05 -25.75 14.0 -24.6 13.0 -24.1 12.1 -23.05 L10.45 -20.75 Q13.5 -22.5 13.65 -19.95 L13.3 -19.05 13.2 -18.9" fill="#f39700" fill-rule="evenodd" stroke="none"/>
      <path d="M18.8 -25.8 L17.7 -26.0 15.5 -25.95 Q14.25 -25.7 13.0 -25.05 11.6 -24.35 10.3 -22.25 9.0 -20.1 9.5 -19.75 L10.85 -19.7 12.3 -19.95 Q12.95 -19.85 11.45 -17.45 9.8 -15.0 8.65 -14.05 L7.35 -12.95 6.65 -13.7 Q6.1 -14.45 4.9 -17.95 3.8 -21.45 4.5 -21.0 5.2 -20.5 5.5 -20.5 L6.0 -20.75 6.3 -21.1 7.7 -22.95 Q9.1 -24.7 10.75 -25.45 L12.5 -26.15 Q15.15 -26.85 18.1 -26.15 L18.85 -25.95 18.8 -25.8 M9.6 -16.2 Q9.95 -16.8 9.55 -17.05 L9.4 -17.05 9.4 -17.1 8.2 -16.0 Q7.5 -14.95 7.7 -14.8 L7.95 -14.75 8.25 -14.8 Q8.45 -14.85 8.85 -15.25 L9.6 -16.2" fill="#ffe450" fill-rule="evenodd" stroke="none"/>
      <path d="M9.6 -16.2 L8.85 -15.25 Q8.45 -14.85 8.25 -14.8 L7.95 -14.75 7.7 -14.8 Q7.5 -14.95 8.2 -16.0 L9.4 -17.1 9.4 -17.05 9.55 -17.05 Q9.95 -16.8 9.6 -16.2" fill="#ffffff" fill-rule="evenodd" stroke="none"/>
      <path d="M18.85 -25.95 L17.65 -26.5 Q14.5 -27.85 11.5 -27.05 L9.85 -26.35 8.55 -25.6 6.95 -24.35 4.85 -22.0 Q4.3 -24.2 3.0 -22.5 L3.0 -21.9 Q3.7 -16.5 6.0 -12.55 L7.1 -11.0 Q11.75 -15.05 13.2 -18.9 M13.3 -19.05 L13.65 -19.95 Q13.5 -22.5 10.45 -20.75 L12.1 -23.05 Q13.0 -24.1 14.0 -24.6 16.05 -25.75 18.45 -25.3 18.7 -25.25 18.75 -25.55 L18.8 -25.8 18.85 -25.95" fill="none" stroke="#663300" stroke-linecap="round" stroke-linejoin="round" stroke-width="1.0"/>
    </g>
  </defs>
</svg>
