<?xml version="1.0" encoding="UTF-8" standalone="no"?>
<svg xmlns:ffdec="https://www.free-decompiler.com/flash" xmlns:xlink="http://www.w3.org/1999/xlink" ffdec:objectType="frame" height="30.1px" width="30.0px" xmlns="http://www.w3.org/2000/svg">
  <g transform="matrix(1.0, 0.0, 0.0, 1.0, 0.0, 0.0)">
    <use ffdec:characterId="1" height="30.0" transform="matrix(1.0, 0.0, 0.0, 1.0, 0.0, 0.0)" width="30.0" xlink:href="#shape0"/>
    <use ffdec:characterId="5" height="30.0" transform="matrix(1.0, 0.0, 0.0, 1.0, 0.0, 0.1)" width="30.0" xlink:href="#sprite0"/>
  </g>
  <defs>
    <g id="shape0" transform="matrix(1.0, 0.0, 0.0, 1.0, 0.0, 0.0)">
      <path d="M0.0 0.0 L30.0 0.0 30.0 30.0 0.0 30.0 0.0 0.0" fill="#33cc66" fill-opacity="0.0" fill-rule="evenodd" stroke="none"/>
    </g>
    <g id="sprite0" transform="matrix(1.0, 0.0, 0.0, 1.0, 0.0, 0.0)">
      <use ffdec:characterId="2" height="30.0" transform="matrix(1.0, 0.0, 0.0, 1.0, 0.0, 0.0)" width="30.0" xlink:href="#shape1"/>
      <filter id="filter0">
        <feColorMatrix in="SourceGraphic" result="filterResult0" type="matrix" values="0 0 0 0 1.0,0 0 0 0 1.0,0 0 0 0 1.0,0 0 0 1 0"/>
        <feConvolveMatrix divisor="25.0" in="filterResult0" kernelMatrix="1 1 1 1 1 1 1 1 1 1 1 1 1 1 1 1 1 1 1 1 1 1 1 1 1" order="5 5" result="filterResult1"/>
        <feComposite in="SourceGraphic" in2="filterResult1" operator="over" result="filterResult2"/>
      </filter>
      <use ffdec:characterId="4" filter="url(#filter0)" height="25.85" transform="matrix(1.0, 0.0, 0.0, 1.0, 2.9, 1.5)" width="23.25" xlink:href="#sprite1"/>
    </g>
    <g id="shape1" transform="matrix(1.0, 0.0, 0.0, 1.0, 0.0, 0.0)">
      <path d="M27.95 0.15 Q30.0 0.7 30.0 3.3 L30.0 26.7 29.8 28.15 Q29.15 30.0 26.7 30.0 L3.3 30.0 2.4 29.95 Q0.7 29.65 0.2 28.15 L0.0 26.7 0.0 3.3 Q0.0 0.7 2.05 0.15 L2.4 0.1 3.3 0.0 26.7 0.0 27.95 0.15" fill="#cccccc" fill-rule="evenodd" stroke="none"/>
    </g>
    <g id="sprite1" transform="matrix(1.0, 0.0, 0.0, 1.0, 2.7, 1.45)">
      <use ffdec:characterId="3" height="25.85" transform="matrix(1.0, 0.0, 0.0, 1.0, -2.7, -1.45)" width="23.25" xlink:href="#shape2"/>
    </g>
    <g id="shape2" transform="matrix(1.0, 0.0, 0.0, 1.0, 2.7, 1.45)">
      <path d="M9.2 -1.4 Q9.5 -1.5 9.65 -1.15 L9.75 -0.8 9.5 -0.5 Q9.15 -0.35 9.05 -0.7 8.9 -1.0 9.1 -1.4 L9.2 -1.4" fill="#bdffff" fill-rule="evenodd" stroke="none"/>
      <path d="M7.75 2.6 L7.75 2.2 Q7.6 0.3 7.75 -0.65 L8.1 -0.6 9.0 1.9 8.5 2.2 Q8.1 2.35 7.75 2.6" fill="#0c3f40" fill-rule="evenodd" stroke="none"/>
      <path d="M7.75 2.6 Q8.1 2.35 8.5 2.2 L9.0 1.9 9.2 2.45 9.6 3.65 9.15 3.8 7.95 4.45 7.75 2.6" fill="#0f5861" fill-rule="evenodd" stroke="none"/>
      <path d="M5.9 5.75 L5.95 5.6 6.2 5.5 7.05 5.4 7.4 5.45 Q8.05 5.65 8.35 6.45 L8.4 7.2 Q8.2 8.0 7.3 8.35 6.85 8.55 6.4 8.35 5.95 8.15 5.65 7.55 5.35 6.65 5.75 6.0 L5.9 5.75" fill="#fffdfd" fill-rule="evenodd" stroke="none"/>
      <path d="M10.25 5.7 L12.3 6.4 12.75 6.65 12.9 6.7 Q14.1 7.45 14.8 8.75 L15.15 9.7 15.3 10.35 15.45 10.85 15.5 11.95 15.5 12.0 15.5 12.6 15.4 13.6 15.25 14.0 15.25 14.15 15.1 14.7 14.6 16.0 14.0 16.95 13.85 17.15 12.5 18.4 11.4 18.9 9.95 19.45 8.65 19.45 7.4 19.35 5.4 18.75 4.4 18.2 4.0 17.85 3.55 17.5 2.5 15.65 2.3 14.85 2.1 13.95 2.0 12.45 2.0 12.2 2.1 11.05 2.1 11.1 Q2.25 11.5 2.6 11.35 L2.95 10.8 2.9 10.55 Q2.7 10.25 2.45 10.4 L2.25 10.55 2.15 10.6 2.35 9.85 2.7 8.85 3.4 7.65 Q4.2 6.6 5.2 6.05 L5.65 5.85 5.9 5.75 5.75 6.0 Q5.35 6.65 5.65 7.55 5.95 8.15 6.4 8.35 6.85 8.55 7.3 8.35 8.2 8.0 8.4 7.2 L8.35 6.45 Q8.05 5.65 7.4 5.45 L7.45 5.45 8.1 5.5 8.95 5.55 10.25 5.7 M11.0 11.9 L10.95 11.0 Q10.25 9.75 9.15 9.2 L6.55 9.3 6.45 9.3 5.65 9.8 5.45 9.95 5.05 10.15 4.25 11.1 Q3.15 12.35 3.95 14.3 4.45 15.6 5.35 16.1 L6.75 16.65 9.1 16.35 10.75 15.15 11.15 14.55 10.85 14.05 11.2 14.3 11.25 14.25 11.25 14.15 11.15 13.35 11.0 11.9" fill="#3beaff" fill-rule="evenodd" stroke="none"/>
      <path d="M8.65 19.45 L8.35 20.1 8.2 20.35 8.1 20.65 7.95 21.0 7.4 20.95 7.05 20.9 7.15 20.5 7.2 20.2 7.3 19.65 7.4 19.35 8.65 19.45 M2.5 15.65 L2.1 15.8 2.0 15.8 -0.4 16.6 -1.3 16.9 -0.45 16.35 1.2 15.4 1.6 15.2 1.7 15.15 2.3 14.85 2.5 15.65 M2.35 9.85 L2.2 9.8 -2.7 8.8 Q-0.95 8.65 2.7 8.85 L2.35 9.85 M5.2 6.05 L4.1 4.0 5.65 5.85 5.2 6.05" fill="#208b9d" fill-rule="evenodd" stroke="none"/>
      <path d="M9.6 3.65 L10.0 4.95 10.1 5.35 8.95 5.55 8.1 5.5 7.95 4.45 9.15 3.8 9.6 3.65 M12.35 6.2 L14.9 1.05 12.85 6.3 12.35 6.2" fill="#1d8892" fill-rule="evenodd" stroke="none"/>
      <path d="M12.3 6.4 L12.35 6.2 12.85 6.3 12.8 6.5 12.75 6.65 12.3 6.4" fill="#50ebfd" fill-rule="evenodd" stroke="none"/>
      <path d="M10.1 5.35 L10.25 5.7 8.95 5.55 10.1 5.35" fill="#24abbf" fill-rule="evenodd" stroke="none"/>
      <path d="M16.9 13.95 L17.35 14.05 17.55 14.1 19.0 14.55 20.55 14.95 20.55 15.1 19.1 14.85 17.8 14.65 17.65 14.6 17.6 14.6 16.7 14.4 16.85 14.05 16.9 13.95 M14.85 16.35 L15.25 16.9 15.45 17.2 15.5 17.25 16.0 18.15 16.65 19.2 16.25 18.9 Q15.55 18.25 14.85 17.75 L14.25 17.2 14.5 16.95 14.85 16.35 M13.45 20.35 L14.15 21.7 14.45 22.3 14.85 22.95 15.2 23.9 15.1 23.9 13.8 22.05 13.45 21.6 12.75 20.7 12.65 20.6 13.1 20.45 13.45 20.35 M7.95 21.0 L6.35 24.4 7.05 20.9 7.4 20.95 7.95 21.0 M4.4 18.2 L2.7 19.6 4.0 17.85 4.4 18.2" fill="#0c779b" fill-rule="evenodd" stroke="none"/>
      <path d="M17.75 11.0 L18.6 11.05 18.85 11.1 18.8 11.2 18.15 11.35 17.7 11.45 17.75 11.05 17.75 11.0" fill="#32aab8" fill-rule="evenodd" stroke="none"/>
      <path d="M15.45 10.85 L15.75 10.8 15.75 11.2 15.7 11.9 15.5 11.95 15.45 10.85" fill="#41e1fb" fill-rule="evenodd" stroke="none"/>
      <path d="M15.75 10.8 L15.85 10.8 16.0 10.85 17.75 11.0 17.75 11.05 17.7 11.45 17.5 11.5 17.45 11.5 16.55 11.75 16.45 11.75 16.1 11.8 15.7 11.9 15.75 11.2 15.75 10.8 M15.4 13.6 L15.6 13.6 16.9 13.95 16.85 14.05 16.7 14.4 16.35 14.3 15.25 14.15 15.25 14.0 15.4 13.6 M14.6 16.0 L14.85 16.35 14.5 16.95 14.25 17.2 14.0 16.95 14.6 16.0" fill="#2fb1c7" fill-rule="evenodd" stroke="none"/>
      <path d="M11.0 11.9 L10.35 12.0 10.3 11.8 9.1 10.8 Q8.3 10.4 7.6 10.35 L6.95 10.55 6.85 10.6 6.55 9.85 6.45 9.3 6.55 9.3 9.15 9.2 Q10.25 9.75 10.95 11.0 L11.0 11.9" fill="#98ffff" fill-rule="evenodd" stroke="none"/>
      <path d="M6.85 10.6 L6.95 10.55 7.6 10.35 Q8.3 10.4 9.1 10.8 L10.3 11.8 10.35 12.0 11.0 11.9 11.15 13.35 10.65 13.65 10.1 14.35 9.15 15.05 8.45 15.5 6.75 15.65 5.8 14.85 5.45 14.3 Q5.0 13.15 5.55 11.95 6.05 11.0 6.85 10.6" fill="#fffdfb" fill-rule="evenodd" stroke="none"/>
      <path d="M6.45 9.3 L6.55 9.85 6.85 10.6 Q6.05 11.0 5.55 11.95 5.0 13.15 5.45 14.3 L5.8 14.85 5.75 14.95 5.35 16.1 Q4.45 15.6 3.95 14.3 3.15 12.35 4.25 11.1 L5.05 10.15 5.45 9.95 5.65 9.8 6.45 9.3" fill="#c2ffff" fill-rule="evenodd" stroke="none"/>
      <path d="M5.8 14.85 L6.75 15.65 8.45 15.5 9.15 15.05 10.1 14.35 10.75 15.15 9.1 16.35 6.75 16.65 5.35 16.1 5.75 14.95 5.8 14.85" fill="#abfeff" fill-rule="evenodd" stroke="none"/>
      <path d="M10.1 14.35 L10.65 13.65 11.15 13.35 11.25 14.15 11.25 14.25 11.2 14.3 10.85 14.05 11.15 14.55 10.75 15.15 10.1 14.35" fill="#b2ffff" fill-rule="evenodd" stroke="none"/>
      <path d="M12.5 18.4 L12.75 18.9 13.45 20.35 13.1 20.45 12.65 20.6 11.4 18.9 12.5 18.4" fill="#1f758c" fill-rule="evenodd" stroke="none"/>
      <path d="M2.1 11.05 L2.05 11.05 Q1.95 10.75 2.15 10.6 L2.25 10.55 2.45 10.4 Q2.7 10.25 2.9 10.55 L2.95 10.8 2.6 11.35 Q2.25 11.5 2.1 11.1 L2.1 11.05 M-0.8 11.85 Q-0.6 11.8 -0.5 12.0 L-0.45 12.1 Q-0.25 12.35 -0.5 12.45 L-0.7 12.45 -0.95 12.3 -0.95 12.25 -0.9 12.0 -0.8 11.85" fill="#b3ffff" fill-rule="evenodd" stroke="none"/>
      <path d="M2.85 21.55 L2.95 21.35 3.0 21.3 3.35 21.25 3.4 21.3 3.8 21.8 3.7 22.05 3.35 22.25 2.85 22.2 2.85 21.55" fill="#ecffff" fill-rule="evenodd" stroke="none"/>
    </g>
  </defs>
</svg>
