<?xml version="1.0" encoding="UTF-8" standalone="no"?>
<svg xmlns:ffdec="https://www.free-decompiler.com/flash" xmlns:xlink="http://www.w3.org/1999/xlink" ffdec:objectType="frame" height="30.1px" width="30.0px" xmlns="http://www.w3.org/2000/svg">
  <g transform="matrix(1.0, 0.0, 0.0, 1.0, 0.0, 0.0)">
    <use ffdec:characterId="1" height="30.0" transform="matrix(1.0, 0.0, 0.0, 1.0, 0.0, 0.0)" width="30.0" xlink:href="#shape0"/>
    <use ffdec:characterId="5" height="30.0" transform="matrix(1.0, 0.0, 0.0, 1.0, 0.0, 0.1)" width="30.0" xlink:href="#sprite0"/>
  </g>
  <defs>
    <g id="shape0" transform="matrix(1.0, 0.0, 0.0, 1.0, 0.0, 0.0)">
      <path d="M0.0 0.0 L30.0 0.0 30.0 30.0 0.0 30.0 0.0 0.0" fill="#33cc66" fill-opacity="0.0" fill-rule="evenodd" stroke="none"/>
    </g>
    <g id="sprite0" transform="matrix(1.0, 0.0, 0.0, 1.0, 0.0, 0.0)">
      <use ffdec:characterId="2" height="30.0" transform="matrix(1.0, 0.0, 0.0, 1.0, 0.0, 0.0)" width="30.0" xlink:href="#shape1"/>
      <filter id="filter0">
        <feColorMatrix in="SourceGraphic" result="filterResult0" type="matrix" values="0 0 0 0 1.0,0 0 0 0 1.0,0 0 0 0 1.0,0 0 0 1 0"/>
        <feConvolveMatrix divisor="25.0" in="filterResult0" kernelMatrix="1 1 1 1 1 1 1 1 1 1 1 1 1 1 1 1 1 1 1 1 1 1 1 1 1" order="5 5" result="filterResult1"/>
        <feComposite in="SourceGraphic" in2="filterResult1" operator="over" result="filterResult2"/>
      </filter>
      <use ffdec:characterId="4" filter="url(#filter0)" height="22.85" transform="matrix(1.0, 0.0, 0.0, 1.0, 3.2, 3.75)" width="24.35" xlink:href="#sprite1"/>
    </g>
    <g id="shape1" transform="matrix(1.0, 0.0, 0.0, 1.0, 0.0, 0.0)">
      <path d="M27.95 0.15 Q30.0 0.7 30.0 3.3 L30.0 26.7 29.8 28.15 Q29.15 30.0 26.7 30.0 L3.3 30.0 2.4 29.95 Q0.7 29.65 0.2 28.15 L0.0 26.7 0.0 3.3 Q0.0 0.7 2.05 0.15 L2.4 0.1 3.3 0.0 26.7 0.0 27.95 0.15" fill="#cccccc" fill-rule="evenodd" stroke="none"/>
    </g>
    <g id="sprite1" transform="matrix(1.0, 0.0, 0.0, 1.0, 2.4, -0.8)">
      <use ffdec:characterId="3" height="22.85" transform="matrix(1.0, 0.0, 0.0, 1.0, -2.4, 0.8)" width="24.35" xlink:href="#shape2"/>
    </g>
    <g id="shape2" transform="matrix(1.0, 0.0, 0.0, 1.0, 2.4, -0.8)">
      <path d="M5.35 23.35 L4.3 23.55 4.25 23.65 3.9 23.35 4.05 23.05 4.25 22.75 4.45 22.6 4.8 22.8 5.05 22.95 5.3 23.15 5.35 23.35" fill="#1286ed" fill-rule="evenodd" stroke="none"/>
      <path d="M20.75 7.8 L20.85 8.0 20.85 8.1 21.0 8.5 21.4 10.25 21.45 10.55 21.6 11.2 21.95 13.05 21.95 13.15 21.6 13.55 21.45 13.8 21.25 14.1 21.1 14.2 21.1 14.15 21.2 13.9 21.25 13.55 21.35 13.55 21.25 13.35 21.35 12.9 21.25 11.75 21.25 11.4 21.2 10.5 21.1 10.4 21.0 9.0 20.9 8.65 20.85 8.15 20.75 7.8" fill="#0160f0" fill-rule="evenodd" stroke="none"/>
      <path d="M19.25 7.0 L19.5 6.85 19.65 6.5 20.5 7.25 20.55 7.3 20.65 7.4 20.7 7.7 20.75 7.8 20.85 8.15 20.9 8.65 21.0 9.0 21.1 10.4 21.2 10.5 21.25 11.4 21.25 11.75 21.35 12.9 21.25 13.35 20.5 12.0 20.5 11.85 20.4 11.65 20.3 11.6 19.8 10.75 19.85 9.85 Q19.85 8.4 19.25 7.0" fill="#0076ec" fill-rule="evenodd" stroke="none"/>
      <path d="M20.3 11.6 L20.4 11.65 20.5 11.85 20.5 12.0 20.2 12.3 19.95 12.15 19.95 12.0 19.95 11.8 20.0 11.75 20.1 11.65 20.2 11.6 20.3 11.6" fill="#d2fdff" fill-rule="evenodd" stroke="none"/>
      <path d="M21.1 14.2 L20.65 14.75 19.85 15.65 19.8 15.7 19.65 15.9 19.45 16.15 19.3 16.05 19.1 15.9 18.75 15.6 19.0 15.05 19.35 14.2 19.7 12.65 19.8 12.0 19.8 11.6 19.7 11.1 19.8 10.8 19.8 10.75 20.3 11.6 20.2 11.6 20.1 11.65 20.0 11.75 19.95 11.8 19.95 12.0 19.95 12.15 20.2 12.3 20.5 12.0 21.25 13.35 21.35 13.55 21.25 13.55 21.2 13.9 21.1 14.15 21.1 14.2" fill="#009bee" fill-rule="evenodd" stroke="none"/>
      <path d="M15.45 18.9 L15.2 19.05 15.45 18.85 15.8 18.45 15.8 18.4 16.85 17.2 17.7 15.95 17.7 15.9 17.75 15.85 17.85 15.65 18.05 15.15 Q18.6 13.9 18.6 12.65 L18.25 9.9 18.2 9.85 18.2 9.7 17.8 8.2 17.55 7.7 17.55 7.55 17.85 8.0 17.9 8.1 18.3 8.6 18.65 9.05 19.0 9.6 19.25 9.85 19.8 10.75 19.8 10.8 19.7 11.1 19.8 11.6 19.8 12.0 19.7 12.65 19.35 14.2 19.0 15.05 18.75 15.6 18.1 16.5 17.8 16.8 17.1 17.55 16.0 18.45 15.9 18.55 15.45 18.9" fill="#01b8f4" fill-rule="evenodd" stroke="none"/>
      <path d="M8.6 2.5 L8.15 2.15 8.15 2.1 8.15 1.45 11.75 2.1 12.55 2.65 12.85 2.8 15.3 5.1 15.35 5.1 15.45 5.15 15.15 5.5 15.8 5.65 16.25 6.2 16.7 6.7 16.8 6.8 17.1 7.25 17.8 8.2 18.2 9.7 18.2 9.85 18.2 9.9 17.6 13.3 17.55 13.55 16.85 12.15 17.0 12.0 17.25 11.1 17.2 10.9 Q17.45 9.0 15.45 6.3 L14.95 5.8 13.15 4.15 Q10.6 2.0 9.55 2.0 L8.95 2.15 8.6 2.4 8.6 2.5" fill="#00e0f0" fill-rule="evenodd" stroke="none"/>
      <path d="M17.55 13.55 L17.6 13.3 18.2 9.9 18.25 9.9 18.6 12.65 Q18.6 13.9 18.05 15.15 L17.7 13.95 17.55 13.55" fill="#00cbec" fill-rule="evenodd" stroke="none"/>
      <path d="M17.45 13.65 L17.55 13.65 17.55 13.55 17.7 13.95 18.05 15.15 17.85 15.65 17.6 15.4 17.4 15.05 17.4 14.85 17.35 14.85 17.2 14.4 17.2 14.35 17.25 14.25 17.25 14.2 17.45 13.65" fill="#00c5f0" fill-rule="evenodd" stroke="none"/>
      <path d="M19.45 16.15 L18.9 16.55 18.65 16.8 18.6 16.9 18.4 16.95 17.85 17.45 17.35 18.0 16.55 18.4 16.35 18.45 15.95 18.7 15.45 18.95 15.45 18.9 15.9 18.55 16.0 18.45 17.1 17.55 17.8 16.8 18.1 16.5 18.75 15.6 19.1 15.9 19.3 16.05 19.45 16.15" fill="#0089e7" fill-rule="evenodd" stroke="none"/>
      <path d="M15.2 19.05 L15.05 19.05 14.95 19.15 14.85 19.2 14.8 19.25 14.65 19.3 13.5 19.85 13.0 20.05 12.7 20.05 12.65 19.8 12.1 19.95 11.65 20.05 11.45 20.15 11.15 20.15 9.9 20.15 9.15 20.15 9.15 20.05 9.85 19.95 11.1 19.8 11.5 19.65 12.3 19.35 12.35 19.35 13.25 18.9 13.4 18.85 15.5 17.05 Q16.5 15.9 17.2 14.4 L17.35 14.85 17.4 15.05 17.6 15.4 17.85 15.65 17.75 15.85 17.7 15.9 17.7 15.95 16.85 17.2 15.8 18.4 15.8 18.45 15.45 18.85 15.2 19.05" fill="#00d1f0" fill-rule="evenodd" stroke="none"/>
      <path d="M12.6 17.5 L12.7 17.4 13.9 16.65 14.7 16.15 15.0 15.9 16.85 14.2 17.0 14.15 17.2 14.4 17.05 14.1 17.2 13.9 17.35 13.75 17.45 13.65 17.25 14.2 17.25 14.25 17.2 14.35 17.2 14.4 Q16.5 15.9 15.5 17.05 L13.4 18.85 13.25 18.9 12.35 19.35 12.3 19.35 11.5 19.65 11.1 19.8 11.1 19.75 9.75 19.45 9.8 19.0 9.8 18.8 10.4 18.55 10.45 18.55 11.3 18.2 11.5 18.55 12.15 18.7 12.8 17.85 12.6 17.5" fill="#07e6ee" fill-rule="evenodd" stroke="none"/>
      <path d="M7.35 17.1 L6.75 17.25 5.85 17.55 4.3 18.1 2.6 18.4 2.75 17.95 3.25 17.85 4.3 17.7 4.45 17.7 5.15 17.5 5.35 17.45 5.85 17.25 6.75 16.95 6.95 16.9 7.25 16.9 7.35 17.1 M3.8 0.85 L4.5 1.25 4.5 1.55 4.3 1.45 3.75 1.0 3.8 0.85 M4.8 1.55 L5.35 1.85 5.4 1.85 5.55 2.05 6.0 2.45 6.45 2.95 7.2 3.65 7.3 3.7 7.65 4.15 7.75 4.2 7.9 4.45 8.0 4.55 7.9 4.55 7.8 4.55 7.75 4.45 7.45 4.15 7.2 3.9 7.0 3.7 6.45 3.2 6.2 2.95 5.85 2.65 5.85 2.5 5.8 2.5 5.5 2.2 5.15 2.0 4.8 1.8 4.8 1.55 M8.45 5.0 L8.55 5.1 8.8 5.35 9.3 5.9 9.6 6.2 9.95 6.55 9.85 6.8 9.9 6.85 9.6 6.55 9.05 5.9 8.8 5.6 8.5 5.2 8.25 5.0 8.35 5.0 8.45 5.0 M13.4 11.65 L13.25 11.35 13.1 11.05 13.05 11.05 13.0 10.9 12.4 10.1 12.3 10.0 12.4 10.05 12.6 10.05 12.6 10.1 13.0 10.75 13.1 10.9 13.2 11.05 13.35 11.35 13.55 11.7 13.85 12.4 13.9 12.6 13.75 12.75 13.6 12.95 13.55 13.0 12.0 14.35 11.5 14.7 10.9 15.15 10.65 15.0 10.85 14.8 10.9 14.75 11.0 14.7 12.0 13.95 13.45 12.75 13.75 12.6 13.45 11.75 13.4 11.65 M11.75 9.2 L11.7 9.1 11.6 9.05 11.35 8.75 10.6 7.8 10.45 7.6 10.75 7.45 10.9 7.6 11.0 7.8 11.35 8.2 11.75 8.7 11.95 9.0 11.75 9.2 M10.0 15.7 L9.75 15.85 9.4 16.05 8.55 16.5 8.45 16.55 8.3 16.4 8.35 16.35 9.25 15.85 9.4 15.75 9.7 15.55 9.85 15.45 10.0 15.7" fill="#10cce5" fill-rule="evenodd" stroke="none"/>
      <path d="M8.65 19.15 L8.05 18.25 7.35 17.1 7.25 16.9 6.95 16.9 6.75 16.95 5.85 17.25 5.35 17.45 5.25 17.25 5.7 16.95 6.5 16.5 6.55 16.5 6.65 16.45 7.1 16.3 7.2 15.9 Q7.3 15.6 7.65 15.8 L7.65 15.75 7.95 15.55 8.55 15.15 9.05 14.85 9.05 14.75 9.2 14.75 9.3 14.7 10.1 14.2 10.85 13.8 11.5 13.45 11.8 13.2 12.9 12.15 13.0 12.15 13.05 12.3 13.45 12.75 12.0 13.95 11.0 14.7 10.9 14.75 10.85 14.8 10.65 15.0 10.9 15.15 Q11.55 15.75 12.6 17.5 L12.8 17.85 12.15 18.7 11.5 18.55 11.3 18.2 10.0 15.7 9.85 15.45 9.7 15.55 9.4 15.75 9.25 15.85 8.35 16.35 8.3 16.4 8.45 16.55 Q9.65 18.0 9.8 18.8 L9.8 19.0 9.75 19.45 9.25 19.95 8.65 19.15 M9.95 6.55 Q10.2 6.05 11.45 5.45 L11.7 5.35 Q13.0 4.75 13.0 5.95 L12.6 6.35 10.75 7.45 10.45 7.6 10.25 7.7 10.0 7.2 9.9 6.85 9.85 6.8 9.95 6.55 M13.95 7.9 Q14.55 7.85 15.0 8.25 L14.6 8.8 13.75 9.45 Q12.95 9.95 12.6 10.05 L12.4 10.05 12.3 10.0 11.7 9.95 11.6 9.65 11.75 9.2 11.95 9.0 Q12.25 8.65 12.85 8.3 L13.95 7.9" fill="#00dff1" fill-rule="evenodd" stroke="none"/>
      <path d="M2.15 17.1 L2.15 17.05 2.1 16.95 1.85 16.5 1.85 16.45 1.55 15.9 1.35 15.6 1.3 15.55 0.9 15.15 0.7 15.0 0.15 14.7 -0.25 14.5 -0.3 14.5 -0.7 14.4 -1.3 14.25 -1.85 13.35 -2.0 13.2 -2.4 12.3 -2.4 7.8 -2.05 7.25 -2.0 7.25 -1.95 7.2 -1.5 7.15 -0.2 6.3 -0.05 6.2 0.3 5.9 0.7 5.45 1.5 4.45 1.6 4.15 1.75 3.7 1.9 2.95 1.9 2.65 2.0 1.85 2.75 1.85 3.4 1.85 3.8 2.1 4.5 2.5 4.6 2.65 4.8 2.75 5.05 2.95 5.95 3.7 6.45 4.15 6.75 4.4 6.6 4.4 5.8 4.25 5.65 4.15 5.15 3.8 4.9 3.7 4.8 3.7 4.8 3.8 4.8 4.15 4.8 4.5 4.55 4.6 4.5 4.15 4.5 3.85 4.5 3.7 Q3.75 3.7 3.1 4.15 2.2 4.7 1.35 5.9 L1.3 5.95 1.0 6.3 0.7 6.7 0.15 7.8 -0.1 8.4 -0.15 8.6 -0.3 9.7 -0.3 9.95 -0.3 10.0 -0.35 10.1 -0.35 10.3 -0.3 10.5 -0.3 10.6 -0.6 10.3 -0.8 10.1 -1.15 9.7 -1.35 9.55 -1.4 9.9 -1.4 10.1 -1.4 10.3 -0.9 11.4 -0.2 11.5 -0.1 11.95 0.35 13.2 0.65 13.75 0.7 13.8 0.8 13.9 1.4 14.5 1.55 14.7 2.2 15.15 2.4 15.3 2.6 15.55 3.0 15.9 2.85 16.5 2.75 16.95 2.75 17.05 2.15 17.1 M8.15 5.8 L8.2 5.9 8.35 6.05 8.8 6.4 9.6 7.45 9.85 7.8 10.55 8.7 11.25 9.6 11.3 9.7 11.55 10.1 12.8 11.95 13.0 12.15 12.9 12.15 11.8 13.2 11.5 13.45 10.85 13.8 10.1 14.2 9.3 14.7 9.2 14.75 9.05 14.75 9.05 14.85 8.55 15.15 7.95 15.55 7.65 15.75 7.65 15.8 Q7.3 15.6 7.2 15.9 L7.15 15.85 7.05 15.65 7.15 15.55 7.2 15.35 7.6 15.15 8.55 14.7 8.9 14.5 9.05 14.5 10.1 13.85 10.75 13.2 10.8 13.0 10.95 12.25 11.3 11.95 11.45 11.6 11.9 11.8 12.1 11.95 12.45 12.1 12.6 11.95 12.65 11.85 11.55 10.75 10.85 10.6 10.8 10.45 10.65 10.1 10.5 9.7 9.6 8.3 9.55 8.2 9.2 7.8 8.8 7.25 8.45 6.8 7.9 6.2 7.75 6.05 7.8 5.95 7.9 6.0 7.95 6.0 8.15 5.95 8.15 5.8 M5.4 16.55 L5.2 16.6 3.35 16.95 3.05 17.05 3.05 16.95 3.2 16.5 3.35 16.05 3.75 16.25 4.75 16.5 5.4 16.55" fill="#00f5e6" fill-rule="evenodd" stroke="none"/>
      <path d="M13.0 12.15 L13.4 11.65 13.45 11.75 13.75 12.6 13.45 12.75 13.05 12.3 13.0 12.15" fill="#06daf0" fill-rule="evenodd" stroke="none"/>
      <path d="M9.9 6.85 L10.0 7.2 10.25 7.7 10.45 7.6 10.6 7.8 11.35 8.75 11.6 9.05 11.7 9.1 11.75 9.2 11.6 9.65 11.7 9.95 12.3 10.0 12.4 10.1 13.0 10.9 13.05 11.05 13.1 11.05 13.25 11.35 13.4 11.65 13.0 12.15 12.8 11.95 11.55 10.1 11.3 9.7 11.25 9.6 10.55 8.7 9.85 7.8 9.6 7.45 8.8 6.4 8.35 6.05 8.2 5.9 8.15 5.8 8.05 5.4 8.25 5.0 8.5 5.2 8.8 5.6 9.05 5.9 9.6 6.55 9.9 6.85 M4.8 1.8 L5.15 2.0 5.5 2.2 5.8 2.5 5.85 2.5 5.85 2.65 6.2 2.95 6.45 3.2 7.0 3.7 7.2 3.9 7.45 4.15 7.75 4.45 7.8 4.55 7.75 4.55 7.2 4.45 6.75 4.4 6.45 4.15 5.95 3.7 5.05 2.95 4.8 2.75 4.6 2.65 4.5 2.5 4.5 1.55 4.8 1.8" fill="#00e1e5" fill-rule="evenodd" stroke="none"/>
      <path d="M11.7 5.35 L11.15 4.8 11.1 4.75 9.6 3.4 8.6 2.5 8.6 2.4 8.95 2.15 9.55 2.0 Q10.6 2.0 13.15 4.15 L14.95 5.8 15.45 6.3 Q17.45 9.0 17.2 10.9 L17.25 11.1 17.0 12.0 16.85 12.15 16.8 12.0 15.45 9.9 15.0 9.3 14.6 8.8 15.0 8.25 Q14.55 7.85 13.95 7.9 L12.7 6.5 12.6 6.35 13.0 5.95 Q13.0 4.75 11.7 5.35" fill="#01ebe8" fill-rule="evenodd" stroke="none"/>
      <path d="M8.0 4.55 L8.0 4.45 8.15 4.4 8.3 4.45 8.35 4.45 8.45 4.55 8.65 4.8 8.55 5.0 8.45 5.0 8.35 5.0 8.25 5.0 8.05 5.4 8.15 5.8 8.15 5.95 7.95 6.0 7.9 6.0 7.8 5.95 7.75 6.05 7.5 6.6 7.45 6.6 7.35 6.8 7.2 5.9 7.2 5.8 7.0 5.45 6.3 5.3 Q5.45 5.3 4.9 5.65 L4.8 5.7 4.6 5.75 4.25 5.9 3.8 5.95 3.6 6.25 3.6 6.3 3.05 6.55 3.15 6.3 3.35 5.9 Q3.8 5.0 4.55 4.6 L4.8 4.5 5.8 4.25 6.6 4.4 6.75 4.4 7.2 4.45 7.75 4.55 7.8 4.55 7.9 4.55 8.0 4.55 M10.95 12.25 L10.35 12.35 9.95 12.3 9.9 12.3 9.5 11.95 9.5 11.65 Q9.5 11.1 9.95 10.8 L10.45 10.55 10.85 10.6 11.55 10.75 12.65 11.85 12.6 11.95 12.45 12.1 12.1 11.95 11.9 11.8 11.45 11.6 11.3 11.95 10.95 12.25 M3.2 12.25 L4.0 12.95 4.25 13.0 5.45 13.05 6.0 13.0 6.85 12.7 7.7 11.95 Q8.15 11.3 8.15 10.3 L8.15 10.1 8.05 9.7 8.05 9.65 Q7.4 8.9 6.75 8.9 6.0 8.9 5.7 9.55 L6.15 9.7 6.45 10.1 6.5 10.3 6.6 10.9 Q6.6 11.8 5.75 11.8 L5.1 11.65 Q4.7 11.3 4.7 10.3 L4.7 10.2 4.7 10.1 4.7 9.7 Q4.8 9.0 5.15 8.6 L5.35 8.4 5.6 8.2 6.45 7.9 Q7.4 7.9 7.9 8.4 L7.95 8.4 Q8.45 8.8 8.75 9.7 L8.85 10.1 8.9 10.3 9.0 10.85 9.05 11.1 9.0 11.0 8.95 11.15 8.7 11.95 8.25 12.65 7.85 13.0 7.6 13.2 6.8 13.6 6.7 13.55 6.15 13.75 4.3 13.9 3.85 13.9 3.45 13.75 3.0 13.45 2.8 13.2 2.2 11.95 Q2.0 11.3 1.95 10.3 L1.9 10.1 1.9 9.7 1.9 9.3 1.9 8.6 1.95 8.4 2.05 7.8 Q2.3 6.85 2.9 6.6 3.45 6.6 3.45 7.2 L3.2 7.8 2.9 8.4 2.85 10.55 3.05 11.95 3.2 12.25 M3.1 14.85 L3.35 15.05 3.6 15.15 3.85 15.3 4.4 15.55 4.45 15.6 4.65 15.6 5.5 15.6 5.55 15.6 6.1 15.65 6.25 15.55 6.35 15.45 6.75 15.25 6.9 15.1 7.15 15.15 7.2 15.35 7.15 15.55 7.05 15.65 7.0 15.75 7.1 15.75 7.1 15.9 6.65 16.45 6.55 16.5 6.5 16.5 6.4 16.5 5.7 16.55 5.6 16.55 5.4 16.55 4.75 16.5 3.75 16.25 3.35 16.05 3.05 15.9 3.0 15.9 2.6 15.55 2.4 15.3 2.35 15.15 2.1 14.7 2.0 13.9 2.0 13.75 2.15 13.5 2.25 13.75 2.95 14.7 3.1 14.85 M-0.3 10.0 L-0.2 9.95 -0.05 9.7 0.3 9.6 0.8 9.7 1.05 10.1 1.05 10.3 1.0 10.55 Q0.8 11.5 -0.1 11.5 L-0.2 11.5 -0.9 11.4 -1.4 10.3 -1.4 10.1 -1.4 9.9 -1.35 9.55 -1.15 9.7 -0.8 10.1 -0.6 10.3 -0.3 10.6 -0.25 10.6 -0.25 10.55 -0.3 10.5 -0.35 10.3 -0.35 10.1 -0.3 10.0" fill="#fffeff" fill-rule="evenodd" stroke="none"/>
      <path d="M10.85 10.6 L10.45 10.55 9.95 10.8 Q9.5 11.1 9.5 11.65 L9.5 11.95 9.9 12.3 9.95 12.3 10.35 12.35 10.95 12.25 10.8 13.0 10.75 13.2 10.1 13.85 9.05 14.5 8.9 14.5 8.55 14.7 7.6 15.15 7.2 15.35 7.15 15.15 6.9 15.1 6.75 15.25 6.7 15.15 6.7 15.1 6.65 15.05 6.45 15.15 5.7 15.55 5.55 15.6 5.5 15.6 4.65 15.6 4.45 15.6 4.4 15.55 3.85 15.3 3.6 15.15 3.35 15.05 3.1 14.85 3.1 14.7 3.0 13.75 3.0 13.6 3.0 13.45 3.45 13.75 3.85 13.9 4.3 13.9 6.15 13.75 6.7 13.55 6.8 13.6 7.6 13.2 7.85 13.0 8.25 12.65 8.7 11.95 8.95 11.15 9.0 11.0 9.05 11.1 9.0 10.85 8.9 10.3 8.85 10.1 8.75 9.7 Q8.45 8.8 7.95 8.4 L7.9 8.4 Q7.4 7.9 6.45 7.9 L5.6 8.2 5.35 8.4 5.15 8.6 Q4.8 9.0 4.7 9.7 L4.7 10.1 4.7 10.2 4.7 10.3 Q4.7 11.3 5.1 11.65 L5.75 11.8 Q6.6 11.8 6.6 10.9 L6.5 10.3 6.45 10.1 6.15 9.7 5.7 9.55 Q6.0 8.9 6.75 8.9 7.4 8.9 8.05 9.65 L8.05 9.7 8.15 10.1 8.15 10.3 Q8.15 11.3 7.7 11.95 L6.85 12.7 6.0 13.0 5.45 13.05 4.25 13.0 4.0 12.95 3.2 12.25 3.3 11.95 3.5 11.45 4.05 10.3 4.3 10.1 4.0 9.7 3.75 9.35 3.55 8.6 3.55 8.4 3.55 8.35 3.6 7.8 Q3.7 7.0 4.25 6.3 L4.5 6.0 4.6 5.95 4.6 5.9 4.7 5.75 4.8 5.7 4.9 5.65 Q5.45 5.3 6.3 5.3 L7.0 5.45 7.2 5.8 7.2 5.9 7.35 6.8 7.45 6.6 7.5 6.6 7.75 6.05 7.9 6.2 8.45 6.8 8.8 7.25 9.2 7.8 9.55 8.2 9.6 8.3 10.5 9.7 10.65 10.1 10.8 10.45 10.85 10.6 M4.8 4.5 L4.8 4.15 4.8 3.8 4.8 3.7 4.9 3.7 5.15 3.8 5.65 4.15 5.8 4.25 4.8 4.5" fill="#41fae8" fill-rule="evenodd" stroke="none"/>
      <path d="M13.5 19.9 L13.5 19.95 12.35 20.55 Q11.15 21.05 9.85 21.65 L7.3 22.6 7.1 22.75 6.95 22.75 6.95 22.6 6.9 22.55 6.85 22.05 7.6 21.85 10.15 21.15 10.6 21.0 10.8 20.85 12.15 20.4 13.5 19.9" fill="#0093e3" fill-rule="evenodd" stroke="none"/>
      <path d="M13.5 19.85 L13.5 19.9 12.15 20.4 10.8 20.85 10.6 21.0 10.15 21.15 7.6 21.85 6.85 22.05 6.0 22.25 4.8 22.55 4.7 22.3 4.95 21.9 5.35 20.55 5.5 20.15 5.55 19.95 5.55 19.85 5.65 19.8 7.6 19.35 7.6 19.5 8.3 20.05 9.15 20.15 9.9 20.15 11.15 20.15 11.45 20.15 11.65 20.05 12.1 19.95 12.65 19.8 12.7 20.05 13.0 20.05 13.5 19.85" fill="#01ccf7" fill-rule="evenodd" stroke="none"/>
      <path d="M17.85 5.2 L18.05 5.15 19.15 6.85 19.25 7.0 Q19.85 8.4 19.85 9.85 L19.8 10.75 19.25 9.85 19.0 9.6 18.65 9.05 18.75 8.35 18.45 6.65 18.4 6.4 17.85 5.2" fill="#0088f1" fill-rule="evenodd" stroke="none"/>
      <path d="M15.75 3.5 L15.75 3.4 15.9 3.4 16.7 3.95 16.85 4.15 17.2 4.5 17.35 4.55 17.45 4.7 17.4 4.75 17.6 5.0 17.8 5.35 17.9 6.2 18.0 6.4 17.9 6.85 17.9 7.15 17.85 8.0 17.55 7.55 17.4 7.4 17.4 7.45 16.8 6.8 16.7 6.7 16.25 6.2 15.85 5.65 15.75 5.4 15.8 5.3 15.8 5.2 15.5 4.8 15.6 4.75 15.6 4.7 15.75 4.55 15.7 4.25 15.65 3.9 15.7 3.9 15.7 3.85 15.7 3.7 15.7 3.55 15.75 3.5" fill="#08aaf5" fill-rule="evenodd" stroke="none"/>
      <path d="M17.8 5.35 L17.85 5.2 18.4 6.4 18.45 6.65 18.75 8.35 18.65 9.05 18.3 8.6 17.9 8.1 17.85 8.0 17.9 7.15 17.9 6.85 18.0 6.4 17.9 6.2 17.8 5.35" fill="#019cef" fill-rule="evenodd" stroke="none"/>
      <path d="M15.85 5.65 L16.25 6.2 15.8 5.65 15.85 5.65 M16.8 6.8 L17.4 7.45 17.4 7.4 17.55 7.55 17.55 7.7 17.1 7.25 16.8 6.8" fill="#00c7f1" fill-rule="evenodd" stroke="none"/>
      <path d="M15.1 9.8 L15.15 9.85 15.1 9.85 15.1 9.8" fill="#035cf6" fill-rule="evenodd" stroke="none"/>
      <path d="M15.5 3.4 L15.75 3.5 15.7 3.55 15.5 3.4 M16.85 4.15 L16.9 4.15 17.45 4.55 17.55 4.7 17.45 4.7 17.35 4.55 17.2 4.5 16.85 4.15" fill="#00c4f1" fill-rule="evenodd" stroke="none"/>
      <path d="M15.35 5.1 L15.3 5.1 12.85 2.8 12.55 2.65 12.7 2.4 13.05 2.65 13.15 2.65 14.95 4.3 15.5 4.8 15.35 5.1" fill="#00ccf1" fill-rule="evenodd" stroke="none"/>
      <path d="M15.5 4.8 L15.8 5.2 15.8 5.3 15.75 5.4 15.85 5.65 15.8 5.65 15.45 5.15 15.35 5.1 15.5 4.8" fill="#03c5fa" fill-rule="evenodd" stroke="none"/>
      <path d="M12.7 2.4 L15.3 3.3 15.5 3.4 15.7 3.55 15.7 3.7 15.7 3.85 15.65 3.9 15.7 4.25 15.75 4.55 15.6 4.7 15.6 4.75 15.5 4.8 14.95 4.3 13.15 2.65 13.05 2.65 12.7 2.4" fill="#0abff4" fill-rule="evenodd" stroke="none"/>
      <path d="M11.75 2.1 L12.65 2.35 12.7 2.4 12.55 2.65 11.75 2.1" fill="#09d1f5" fill-rule="evenodd" stroke="none"/>
      <path d="M15.45 5.15 L15.8 5.65 15.15 5.5 15.45 5.15" fill="#01e2f4" fill-rule="evenodd" stroke="none"/>
      <path d="M4.6 5.9 L4.6 5.95 4.5 6.0 4.25 6.3 Q3.7 7.0 3.6 7.8 L3.55 8.35 3.55 8.4 3.55 8.6 3.75 9.35 4.0 9.7 4.3 10.1 4.05 10.3 3.5 11.45 3.3 11.95 3.2 12.25 3.05 11.95 2.85 10.55 2.9 8.4 3.2 7.8 3.45 7.2 Q3.45 6.6 2.9 6.6 2.3 6.85 2.05 7.8 L1.95 8.4 1.9 8.6 1.9 9.3 1.9 9.7 1.9 10.1 1.95 10.3 Q2.0 11.3 2.2 11.95 L2.8 13.2 3.0 13.45 3.0 13.6 3.0 13.75 3.1 14.7 3.1 14.85 2.95 14.7 2.25 13.75 2.15 13.5 2.0 13.75 2.0 13.9 2.1 14.7 2.35 15.15 2.4 15.3 2.2 15.15 1.55 14.7 1.4 14.5 0.8 13.9 0.7 13.8 0.65 13.75 0.35 13.2 -0.1 11.95 -0.2 11.5 -0.1 11.5 Q0.8 11.5 1.0 10.55 L1.05 10.3 1.05 10.1 0.8 9.7 0.3 9.6 -0.05 9.7 -0.2 9.95 -0.3 10.0 -0.3 9.95 -0.3 9.7 -0.15 8.6 -0.1 8.4 0.15 7.8 0.7 6.7 1.0 6.3 1.3 5.95 1.35 5.9 Q2.2 4.7 3.1 4.15 3.75 3.7 4.5 3.7 L4.5 3.85 4.5 4.15 4.55 4.6 Q3.8 5.0 3.35 5.9 L3.15 6.3 3.05 6.55 3.6 6.3 3.6 6.25 3.8 5.95 4.25 5.9 4.6 5.75 4.6 5.9 M3.05 17.05 L2.95 17.05 2.75 17.05 2.75 16.95 2.85 16.5 3.0 15.9 3.05 15.9 3.35 16.05 3.2 16.5 3.05 16.95 3.05 17.05 M-0.3 10.5 L-0.25 10.55 -0.25 10.6 -0.3 10.6 -0.3 10.5" fill="#47fde7" fill-rule="evenodd" stroke="none"/>
      <path d="M4.8 5.7 L4.7 5.75 4.6 5.9 4.6 5.75 4.8 5.7" fill="#e8ffff" fill-rule="evenodd" stroke="none"/>
      <path d="M2.0 1.85 L1.8 1.0 2.35 0.85 3.1 0.8 3.4 0.8 3.5 0.8 3.7 0.8 3.8 0.85 3.75 1.0 4.3 1.45 4.5 1.55 4.5 2.5 3.8 2.1 3.4 1.85 2.75 1.85 2.0 1.85" fill="#00d8ea" fill-rule="evenodd" stroke="none"/>
      <path d="M4.5 1.25 L4.8 1.55 4.8 1.8 4.5 1.55 4.5 1.25" fill="#93ffff" fill-rule="evenodd" stroke="none"/>
      <path d="M7.6 19.35 L7.95 19.3 8.6 19.15 8.65 19.15 9.25 19.95 9.75 19.45 11.1 19.75 11.1 19.8 9.85 19.95 9.15 20.05 9.15 20.15 8.3 20.05 7.6 19.5 7.6 19.35" fill="#00e4ea" fill-rule="evenodd" stroke="none"/>
      <path d="M2.6 18.4 L2.6 18.45 2.45 18.4 2.25 18.45 2.25 18.4 2.4 17.95 2.2 17.95 2.2 17.7 2.2 17.5 2.15 17.25 2.15 17.1 2.75 17.05 2.95 17.05 3.05 17.05 3.35 16.95 5.2 16.6 5.4 16.55 5.6 16.55 5.7 16.55 6.4 16.5 6.5 16.5 5.7 16.95 5.25 17.25 5.35 17.45 5.15 17.5 4.45 17.7 4.3 17.7 3.25 17.85 2.75 17.95 2.6 18.4" fill="#06d8f1" fill-rule="evenodd" stroke="none"/>
      <path d="M6.95 22.75 L5.35 23.35 5.3 23.15 5.05 22.95 4.8 22.8 4.45 22.6 4.8 22.55 6.0 22.25 6.85 22.05 6.9 22.55 6.95 22.6 6.95 22.75" fill="#0691fa" fill-rule="evenodd" stroke="none"/>
      <path d="M5.55 15.6 L5.7 15.55 6.45 15.15 6.65 15.05 6.7 15.1 6.7 15.15 6.75 15.25 6.35 15.45 6.25 15.55 6.1 15.65 5.55 15.6 M7.2 15.9 L7.1 16.3 6.65 16.45 7.1 15.9 7.1 15.75 7.0 15.75 7.05 15.65 7.15 15.85 7.2 15.9" fill="#fcffff" fill-rule="evenodd" stroke="none"/>
      <path d="M0.8 20.2 L0.95 20.2 1.4 20.2 1.7 20.15 2.5 20.1 2.7 20.1 2.75 20.1 2.6 20.4 2.55 20.55 1.95 21.9 1.55 22.65 1.4 22.55 -0.1 21.65 -0.25 21.6 -0.1 21.35 -0.05 21.25 0.1 21.05 0.3 20.75 0.8 20.2" fill="#00c9f4" fill-rule="evenodd" stroke="none"/>
      <path d="M-0.1 21.65 L1.4 22.55 1.55 22.65 1.5 22.8 1.4 22.95 1.2 23.35 1.0 23.15 0.15 22.55 -0.45 22.05 -0.1 21.65" fill="#0087f0" fill-rule="evenodd" stroke="none"/>
      <path d="M0.8 20.2 L0.3 20.75 0.1 21.05 -0.05 21.25 -0.1 21.35 -0.25 21.6 -0.4 21.4 -0.7 21.25 -1.3 20.65 -1.7 20.35 -1.7 18.35 -1.35 18.6 -1.3 18.6 -1.25 18.65 -0.45 19.3 -0.05 19.65 0.3 19.9 0.8 20.2" fill="#00c8fd" fill-rule="evenodd" stroke="none"/>
      <path d="M-0.25 21.6 L-0.1 21.65 -0.45 22.05 Q-0.9 21.65 -1.1 21.6 L-1.35 21.35 -1.7 21.0 -1.7 20.35 -1.3 20.65 -0.7 21.25 -0.4 21.4 -0.25 21.6" fill="#007efe" fill-rule="evenodd" stroke="none"/>
    </g>
  </defs>
</svg>
