<?xml version="1.0" encoding="UTF-8" standalone="no"?>
<svg xmlns:ffdec="https://www.free-decompiler.com/flash" xmlns:xlink="http://www.w3.org/1999/xlink" ffdec:objectType="frame" height="30.1px" width="30.0px" xmlns="http://www.w3.org/2000/svg">
  <g transform="matrix(1.0, 0.0, 0.0, 1.0, 0.0, 0.0)">
    <use ffdec:characterId="1" height="30.0" transform="matrix(1.0, 0.0, 0.0, 1.0, 0.0, 0.0)" width="30.0" xlink:href="#shape0"/>
    <use ffdec:characterId="5" height="30.0" transform="matrix(1.0, 0.0, 0.0, 1.0, 0.0, 0.1)" width="30.0" xlink:href="#sprite0"/>
  </g>
  <defs>
    <g id="shape0" transform="matrix(1.0, 0.0, 0.0, 1.0, 0.0, 0.0)">
      <path d="M0.0 0.0 L30.0 0.0 30.0 30.0 0.0 30.0 0.0 0.0" fill="#33cc66" fill-opacity="0.0" fill-rule="evenodd" stroke="none"/>
    </g>
    <g id="sprite0" transform="matrix(1.0, 0.0, 0.0, 1.0, 0.0, 0.0)">
      <use ffdec:characterId="2" height="30.0" transform="matrix(1.0, 0.0, 0.0, 1.0, 0.0, 0.0)" width="30.0" xlink:href="#shape1"/>
      <filter id="filter0">
        <feColorMatrix in="SourceGraphic" result="filterResult0" type="matrix" values="0 0 0 0 1.0,0 0 0 0 1.0,0 0 0 0 1.0,0 0 0 1 0"/>
        <feConvolveMatrix divisor="25.0" in="filterResult0" kernelMatrix="1 1 1 1 1 1 1 1 1 1 1 1 1 1 1 1 1 1 1 1 1 1 1 1 1" order="5 5" result="filterResult1"/>
        <feComposite in="SourceGraphic" in2="filterResult1" operator="over" result="filterResult2"/>
      </filter>
      <use ffdec:characterId="4" filter="url(#filter0)" height="17.75" transform="matrix(0.9085, -0.4178, 0.4178, 0.9085, 0.444, 11.5253)" width="23.55" xlink:href="#sprite1"/>
    </g>
    <g id="shape1" transform="matrix(1.0, 0.0, 0.0, 1.0, 0.0, 0.0)">
      <path d="M27.95 0.15 Q30.0 0.7 30.0 3.3 L30.0 26.7 29.8 28.15 Q29.15 30.0 26.7 30.0 L3.3 30.0 2.4 29.95 Q0.7 29.65 0.2 28.15 L0.0 26.7 0.0 3.3 Q0.0 0.7 2.05 0.15 L2.4 0.1 3.3 0.0 26.7 0.0 27.95 0.15" fill="#cccccc" fill-rule="evenodd" stroke="none"/>
    </g>
    <g id="sprite1" transform="matrix(1.0, 0.0, 0.0, 1.0, 2.0, -2.3)">
      <use ffdec:characterId="3" height="17.75" transform="matrix(1.0, 0.0, 0.0, 1.0, -2.0, 2.3)" width="23.55" xlink:href="#shape2"/>
    </g>
    <g id="shape2" transform="matrix(1.0, 0.0, 0.0, 1.0, 2.0, -2.3)">
      <path d="M4.8 17.15 L-0.65 16.4 1.5 15.8 7.2 14.3 9.9 13.3 13.6 12.0 21.55 9.8 Q19.95 10.7 17.5 12.1 L14.4 13.85 10.6 16.0 11.6 16.35 12.45 16.65 11.15 17.05 8.3 17.75 6.6 17.4 4.8 17.15 M14.8 17.85 Q15.8 18.15 17.55 18.8 L20.2 19.8 18.4 19.95 14.75 20.05 14.2 19.55 12.65 18.05 13.9 17.85 14.45 17.75 14.8 17.85" fill="url(#gradient0)" fill-rule="evenodd" stroke="none"/>
      <path d="M11.5 7.45 L11.25 7.8 10.75 8.05 7.75 9.45 3.4 11.35 4.3 10.1 1.8 9.9 -2.0 9.45 Q-0.75 8.85 1.75 8.35 L4.45 7.8 9.2 5.9 9.7 5.7 18.5 2.3 17.6 3.0 11.5 7.45" fill="url(#gradient1)" fill-rule="evenodd" stroke="none"/>
    </g>
    <radialGradient cx="0" cy="0" gradientTransform="matrix(0.0308, 0.0106, -0.0129, 0.0372, -17.75, 27.0)" gradientUnits="userSpaceOnUse" id="gradient0" r="819.2" spreadMethod="pad">
      <stop offset="0.0" stop-color="#fff7e5" stop-opacity="0.4509804"/>
      <stop offset="0.6078431372549019" stop-color="#f5f255"/>
      <stop offset="0.9686274509803922" stop-color="#f58155"/>
    </radialGradient>
    <radialGradient cx="0" cy="0" gradientTransform="matrix(0.0308, 0.0106, -0.0129, 0.0372, -11.7, 22.8)" gradientUnits="userSpaceOnUse" id="gradient1" r="819.2" spreadMethod="pad">
      <stop offset="0.0" stop-color="#fff7e5" stop-opacity="0.4509804"/>
      <stop offset="0.6078431372549019" stop-color="#f5f255"/>
      <stop offset="0.9686274509803922" stop-color="#f58155"/>
    </radialGradient>
  </defs>
</svg>
