<?xml version="1.0" encoding="UTF-8" standalone="no"?>
<svg xmlns:ffdec="https://www.free-decompiler.com/flash" xmlns:xlink="http://www.w3.org/1999/xlink" ffdec:objectType="frame" height="30.3px" width="30.0px" xmlns="http://www.w3.org/2000/svg">
  <g transform="matrix(1.0, 0.0, 0.0, 1.0, 0.0, 0.0)">
    <use ffdec:characterId="1" height="30.0" transform="matrix(1.0, 0.0, 0.0, 1.0, 0.0, 0.0)" width="30.0" xlink:href="#shape0"/>
    <use ffdec:characterId="7" height="30.05" transform="matrix(1.0, 0.0, 0.0, 1.0, 0.0, 0.25)" width="30.0" xlink:href="#sprite0"/>
  </g>
  <defs>
    <g id="shape0" transform="matrix(1.0, 0.0, 0.0, 1.0, 0.0, 0.0)">
      <path d="M0.0 0.0 L30.0 0.0 30.0 30.0 0.0 30.0 0.0 0.0" fill="#33cc66" fill-opacity="0.0" fill-rule="evenodd" stroke="none"/>
    </g>
    <g id="sprite0" transform="matrix(1.0, 0.0, 0.0, 1.0, 0.0, -0.15)">
      <use ffdec:characterId="2" height="30.05" transform="matrix(1.0, 0.0, 0.0, 1.0, 0.0, 0.15)" width="30.0" xlink:href="#shape1"/>
      <filter id="filter1">
        <feColorMatrix in="SourceGraphic" result="filterResult1" type="matrix" values="0 0 0 0 1.0,0 0 0 0 1.0,0 0 0 0 1.0,0 0 0 1 0"/>
        <feConvolveMatrix divisor="25.0" in="filterResult1" kernelMatrix="1 1 1 1 1 1 1 1 1 1 1 1 1 1 1 1 1 1 1 1 1 1 1 1 1" order="5 5" result="filterResult2"/>
        <feComposite in="SourceGraphic" in2="filterResult2" operator="over" result="filterResult3"/>
      </filter>
      <use ffdec:characterId="6" filter="url(#filter1)" height="49.8" transform="matrix(0.465, 0.0, 0.0, 0.465, 8.4826, 3.3058)" width="34.1" xlink:href="#sprite1"/>
    </g>
    <g id="shape1" transform="matrix(1.0, 0.0, 0.0, 1.0, 0.0, -0.15)">
      <path d="M26.7 0.2 L27.95 0.35 Q30.0 0.9 30.0 3.5 L30.0 26.9 29.8 28.35 Q29.15 30.2 26.7 30.2 L3.3 30.15 2.4 30.1 Q0.7 29.8 0.2 28.3 L0.0 26.85 0.0 3.45 Q0.0 0.85 2.05 0.3 L2.4 0.25 3.3 0.15 26.7 0.2" fill="#cccccc" fill-rule="evenodd" stroke="none"/>
    </g>
    <g id="sprite1" transform="matrix(1.0, 0.0, 0.0, 1.0, -14.8, 15.9)">
      <filter id="filter0">
        <feColorMatrix in="SourceGraphic" result="filterResult0" type="matrix" values="-0.42580178 0.19114353 1.2346581 0.0 0.0 0.45371428 0.7909856 -0.2446998 0.0 0.0 -0.68237406 1.938032 -0.25565797 0.0 0.0 0.0 0.0 0.0 1.0 0.0"/>
      </filter>
      <use ffdec:characterId="5" filter="url(#filter0)" height="41.6" transform="matrix(1.1968, 0.0, 0.0, 1.1968, 14.791, -15.8894)" width="28.5" xlink:href="#sprite2"/>
    </g>
    <g id="sprite2" transform="matrix(1.0, 0.0, 0.0, 1.0, 0.3, 0.2)">
      <use ffdec:characterId="4" height="78.4" transform="matrix(0.5177, -0.02, 0.02, 0.5177, -0.2935, 0.84)" width="52.0" xlink:href="#sprite3"/>
    </g>
    <g id="sprite3" transform="matrix(1.0, 0.0, 0.0, 1.0, 1.5, 0.85)">
      <use ffdec:characterId="3" height="78.4" transform="matrix(1.0, 0.0, 0.0, 1.0, -1.5, -0.85)" width="52.0" xlink:href="#shape2"/>
    </g>
    <g id="shape2" transform="matrix(1.0, 0.0, 0.0, 1.0, 1.5, 0.85)">
      <path d="M17.75 0.4 Q16.5 0.75 15.95 1.2 L14.85 1.4 Q13.9 1.85 13.5 2.05 L12.75 2.35 Q10.55 3.05 10.25 3.65 9.75 3.9 9.35 4.25 6.95 5.5 6.95 5.85 L7.45 6.05 7.3 6.25 5.95 7.1 5.1 7.85 4.3 8.25 6.35 6.25 Q11.6 1.55 17.75 0.4 M3.9 8.75 L3.9 8.8 4.0 8.85 Q3.75 9.1 3.75 9.5 L4.15 9.95 4.2 10.4 Q5.05 12.0 5.9 12.0 L6.1 12.0 6.4 12.2 6.8 12.25 7.25 12.1 7.85 12.5 8.5 12.95 Q9.2 13.75 9.6 13.75 L9.85 13.65 11.05 14.25 Q8.25 16.45 6.95 18.5 5.05 21.6 4.75 28.35 4.65 29.3 4.7 30.75 L4.7 31.1 4.7 32.3 4.8 33.65 4.7 34.35 Q4.3 38.25 4.35 41.3 L4.65 45.05 Q5.0 49.35 5.8 53.0 7.7 61.25 11.15 63.5 L11.3 63.9 11.95 64.0 12.85 64.75 Q13.65 65.4 14.55 65.75 L16.8 66.15 17.15 66.15 18.3 66.25 19.45 66.0 20.5 66.05 21.75 65.35 22.6 64.9 22.95 64.7 Q26.2 63.9 29.0 60.75 33.0 57.95 37.9 47.35 44.15 33.7 44.0 25.9 L43.95 21.9 42.95 17.7 Q43.95 18.3 45.65 18.3 46.85 18.3 47.8 17.4 L48.3 17.6 48.9 17.35 49.25 16.95 49.5 19.1 Q50.3 28.4 46.8 38.25 41.75 52.1 33.95 62.4 26.15 72.75 17.75 76.8 L17.6 76.65 15.9 75.0 Q16.45 74.95 16.65 74.5 L17.0 75.05 17.15 75.25 17.5 75.75 17.55 75.75 18.25 76.0 Q18.65 76.0 18.95 75.7 L19.25 75.0 19.25 74.9 18.9 75.0 18.8 75.0 18.1 75.25 Q17.15 75.25 17.05 74.45 L16.7 74.15 16.65 74.15 16.55 74.15 16.45 73.95 16.15 73.0 16.0 72.45 15.85 72.0 15.75 71.65 15.85 72.0 16.0 72.45 16.15 73.0 16.45 73.95 16.55 74.15 Q15.15 73.95 13.1 69.9 L11.6 66.65 11.25 66.3 Q9.8 65.5 9.6 66.8 4.25 58.35 2.3 48.95 -0.25 36.4 0.25 23.05 L0.55 18.2 0.6 18.4 Q0.85 17.2 3.3 15.95 5.8 14.65 6.0 16.05 L6.3 14.9 Q6.3 12.85 3.6 14.55 0.85 16.25 0.85 16.7 L0.9 17.3 0.6 17.7 1.3 12.15 Q2.35 10.4 3.9 8.75 M12.1 13.45 L10.2 11.75 Q9.0 10.65 8.7 9.75 L9.25 8.65 11.0 7.3 11.3 7.7 Q10.7 8.25 10.7 8.6 L12.5 11.85 13.1 12.7 12.1 13.45 M20.7 3.5 L20.75 3.45 20.95 3.4 20.9 3.5 20.7 3.5 M22.8 2.9 L27.9 2.0 31.6 1.5 Q31.6 0.85 30.65 0.45 38.1 1.65 43.05 5.55 46.5 8.25 47.7 11.0 L47.75 11.15 47.95 11.7 49.1 16.0 48.85 15.8 48.9 15.35 Q48.9 14.35 48.0 14.35 46.5 14.35 43.25 13.25 41.5 12.7 41.5 14.2 L41.5 14.4 40.55 12.9 40.1 12.55 Q38.75 11.05 37.15 10.0 36.3 9.45 35.45 9.05 L34.65 8.25 Q36.55 7.95 36.5 6.65 36.5 5.7 35.45 5.4 35.1 4.2 32.4 3.85 L31.85 3.8 28.2 3.35 23.65 3.45 Q23.45 3.0 22.8 2.9 M10.75 68.55 L10.3 67.9 10.75 68.3 10.75 68.55 M14.8 67.3 L14.8 67.2 14.75 67.1 14.7 66.8 14.65 66.65 14.65 66.6 14.65 66.5 14.6 66.2 14.55 65.9 14.55 65.75 14.55 65.9 14.6 66.2 14.65 66.5 14.65 66.6 14.65 66.65 14.7 66.8 14.75 67.1 14.8 67.2 14.8 67.3 Q13.75 67.65 13.75 68.75 L14.35 70.4 Q14.9 71.2 15.75 71.65 L17.55 72.0 Q18.6 72.0 19.15 71.1 L19.5 69.55 Q19.5 67.4 16.65 67.15 L14.8 67.3 M17.6 76.65 L16.65 74.5 17.6 76.65 M47.7 11.0 Q42.15 9.7 37.15 10.0 42.15 9.7 47.7 11.0 M4.95 10.15 L4.85 10.35 4.85 10.2 4.95 10.15 M6.4 12.2 L4.05 12.05 1.3 12.15 4.05 12.05 6.4 12.2 M8.2 10.7 L8.25 10.65 8.5 11.15 8.35 11.15 8.2 10.8 8.2 10.7 M5.55 10.75 L5.65 10.9 5.55 10.8 5.55 10.75 M6.8 12.25 L7.85 12.5 6.8 12.25" fill="#9982dc" fill-rule="evenodd" stroke="none"/>
      <path d="M30.65 0.45 L25.5 -0.05 23.25 -0.1 21.4 -0.1 17.75 0.4 21.4 -0.1 23.25 -0.1 25.5 -0.05 30.65 0.45 Q31.6 0.85 31.6 1.5 L27.9 2.0 22.8 2.9 22.3 2.85 Q21.2 2.85 20.95 3.4 L20.75 3.45 20.7 3.5 16.8 3.7 14.7 3.75 Q10.9 4.3 10.9 6.9 L11.0 7.3 9.25 8.65 8.7 9.75 Q9.0 10.65 10.2 11.75 L12.1 13.45 13.35 14.5 13.25 14.8 Q12.35 15.15 11.3 14.25 L11.2 14.2 11.15 14.15 9.8 13.25 9.3 13.05 8.3 12.65 7.85 12.5 8.3 12.65 9.3 13.05 9.8 13.25 11.15 14.15 11.2 14.2 11.1 14.25 11.05 14.25 9.85 13.65 9.6 13.75 Q9.2 13.75 8.5 12.95 L7.85 12.5 7.25 12.1 6.8 12.25 6.4 12.2 6.1 12.0 5.9 12.0 Q5.05 12.0 4.2 10.4 L4.15 9.95 3.75 9.5 Q3.75 9.1 4.0 8.85 L3.9 8.8 3.9 8.75 3.95 8.7 4.3 8.25 3.95 8.7 3.9 8.5 4.3 8.25 5.1 7.85 5.95 7.1 7.3 6.25 7.45 6.05 6.95 5.85 Q6.95 5.5 9.35 4.25 9.75 3.9 10.25 3.65 10.55 3.05 12.75 2.35 L13.5 2.05 Q13.9 1.85 14.85 1.4 L15.95 1.2 Q16.5 0.75 17.75 0.4 L18.15 0.25 23.65 -0.5 25.25 -0.3 25.3 -0.2 27.6 -0.15 30.65 0.45 M17.55 75.75 L17.5 75.75 17.15 75.25 17.55 75.75 M17.0 75.05 L16.65 74.5 16.7 74.4 17.0 75.05 M4.95 10.15 L4.85 10.2 4.85 10.35 4.95 10.15 M5.55 10.75 L5.55 10.8 5.65 10.9 5.55 10.75 M8.2 10.7 L8.2 10.8 8.35 11.15 8.5 11.15 8.25 10.65 8.2 10.7" fill="#cc99ff" fill-rule="evenodd" stroke="none"/>
      <path d="M11.2 14.2 L11.3 14.25 Q12.35 15.15 13.25 14.8 L13.35 14.5 12.1 13.45 13.1 12.7 Q14.8 15.05 15.9 15.0 16.15 15.0 18.3 13.2 L21.0 11.95 Q24.6 10.15 24.85 10.1 28.65 8.9 33.9 8.35 L34.65 8.25 35.45 9.05 Q36.3 9.45 37.15 10.0 38.75 11.05 40.1 12.55 L40.55 12.9 41.5 14.4 Q41.5 15.75 41.85 16.4 42.2 17.2 42.95 17.7 L43.95 21.9 44.0 25.9 Q44.15 33.7 37.9 47.35 33.0 57.95 29.0 60.75 26.2 63.9 22.95 64.7 L22.6 64.9 21.75 65.35 20.5 66.05 19.45 66.0 18.3 66.25 17.15 66.15 16.8 66.15 14.55 65.75 Q13.65 65.4 12.85 64.75 L11.95 64.0 11.3 63.9 11.15 63.5 Q7.7 61.25 5.8 53.0 5.0 49.35 4.65 45.05 L4.35 41.3 Q4.3 38.25 4.7 34.35 L4.8 33.65 4.7 32.3 4.7 31.1 4.7 30.75 Q4.65 29.3 4.75 28.35 5.05 21.6 6.95 18.5 8.25 16.45 11.05 14.25 L11.1 14.25 11.2 14.2 11.3 14.3 11.45 14.4 11.55 14.5 12.05 14.9 12.15 15.0 13.95 16.7 14.25 17.0 14.3 17.1 16.75 20.0 Q18.65 17.25 22.2 14.9 22.65 14.55 23.2 14.3 L23.3 14.25 23.8 13.95 24.05 13.8 24.3 13.6 24.45 13.55 25.0 13.25 Q25.55 12.9 26.1 12.7 L26.65 12.45 27.35 12.1 29.3 11.4 29.7 11.3 29.9 11.3 30.25 11.15 30.9 10.95 31.95 10.7 33.5 10.4 33.9 10.3 34.05 10.3 34.3 10.25 35.2 10.15 35.75 10.05 37.15 10.0 35.75 10.05 35.2 10.15 34.3 10.25 34.05 10.3 33.9 10.3 33.5 10.4 31.95 10.7 30.9 10.95 30.25 11.15 29.9 11.3 29.7 11.3 29.3 11.4 27.35 12.1 26.65 12.45 26.1 12.7 Q25.55 12.9 25.0 13.25 L24.45 13.55 24.3 13.6 24.05 13.8 23.8 13.95 23.3 14.25 23.2 14.3 Q22.65 14.55 22.2 14.9 18.65 17.25 16.75 20.0 L16.5 21.55 16.5 21.75 Q15.5 27.1 14.95 33.1 L14.5 37.5 14.3 40.25 14.5 37.5 14.95 33.1 Q15.5 27.1 16.5 21.75 L16.5 21.55 16.75 20.0 14.3 17.1 14.25 17.0 13.95 16.7 12.15 15.0 12.05 14.9 11.55 14.5 11.45 14.4 11.3 14.3 11.2 14.2 M14.8 67.3 L16.65 67.15 Q19.5 67.4 19.5 69.55 L19.15 71.1 Q18.6 72.0 17.55 72.0 L15.75 71.65 15.45 70.6 15.4 70.2 15.3 69.8 15.25 69.6 15.1 68.95 15.05 68.65 15.05 68.55 14.85 67.45 14.85 67.4 14.8 67.3 14.85 67.4 14.85 67.45 15.05 68.55 15.05 68.65 15.1 68.95 15.25 69.6 15.3 69.8 15.4 70.2 15.45 70.6 15.75 71.65 Q14.9 71.2 14.35 70.4 L13.75 68.75 Q13.75 67.65 14.8 67.3 M13.8 56.4 L13.85 57.45 13.95 59.25 13.95 59.85 13.95 60.0 14.0 60.4 14.2 62.7 14.2 63.0 14.25 63.25 14.35 64.35 14.45 64.85 14.55 65.75 14.45 64.85 14.35 64.35 14.25 63.25 14.2 63.0 14.2 62.7 14.0 60.4 13.95 60.0 13.95 59.85 13.95 59.25 13.85 57.45 13.8 56.4 M31.95 53.5 Q32.8 52.3 32.8 51.0 32.75 47.7 28.7 47.8 24.65 47.9 24.7 51.75 L25.05 53.5 Q25.9 55.3 28.35 55.25 30.7 55.2 31.95 53.5" fill="#7151ce" fill-rule="evenodd" stroke="none"/>
      <path d="M16.8 3.7 L20.7 3.5 20.9 3.5 20.8 3.85 Q20.8 4.85 22.75 4.85 L23.4 4.6 23.75 3.9 23.65 3.45 28.2 3.35 31.85 3.8 32.4 3.85 Q35.1 4.2 35.45 5.4 36.5 5.7 36.5 6.65 36.55 7.95 34.65 8.25 L33.9 8.35 Q28.65 8.9 24.85 10.1 24.6 10.15 21.0 11.95 L18.3 13.2 Q16.15 15.0 15.9 15.0 14.8 15.05 13.1 12.7 L12.5 11.85 10.7 8.6 Q10.7 8.25 11.3 7.7 L11.8 8.15 13.6 8.3 Q15.5 8.3 17.1 7.0 18.5 5.9 18.5 5.25 18.5 3.9 16.8 3.7 M31.95 53.5 Q30.7 55.2 28.35 55.25 25.9 55.3 25.05 53.5 L24.7 51.75 Q24.65 47.9 28.7 47.8 32.75 47.7 32.8 51.0 32.8 52.3 31.95 53.5" fill="#949de2" fill-rule="evenodd" stroke="none"/>
      <path d="M11.0 7.3 L10.9 6.9 Q10.9 4.3 14.7 3.75 L16.8 3.7 Q18.5 3.9 18.5 5.25 18.5 5.9 17.1 7.0 15.5 8.3 13.6 8.3 L11.8 8.15 11.3 7.7 11.0 7.3 M20.95 3.4 Q21.2 2.85 22.3 2.85 L22.8 2.9 Q23.45 3.0 23.65 3.45 L23.75 3.9 23.4 4.6 22.75 4.85 Q20.8 4.85 20.8 3.85 L20.9 3.5 20.95 3.4" fill="#eddbff" fill-rule="evenodd" stroke="none"/>
      <path d="M49.1 16.0 L49.3 16.65 49.25 16.95 48.9 17.35 48.3 17.6 47.8 17.4 Q46.85 18.3 45.65 18.3 43.95 18.3 42.95 17.7 42.2 17.2 41.85 16.4 41.5 15.75 41.5 14.4 L41.5 14.2 Q41.5 12.7 43.25 13.25 46.5 14.35 48.0 14.35 48.9 14.35 48.9 15.35 L48.85 15.8 49.1 16.0 49.25 16.95 49.1 16.0 M15.9 75.0 L15.75 75.0 Q15.25 75.0 10.75 68.6 L10.75 68.55 10.75 68.3 10.3 67.9 9.55 67.25 9.6 66.8 Q9.8 65.5 11.25 66.3 L11.6 66.65 13.1 69.9 Q15.15 73.95 16.55 74.15 L16.65 74.15 16.7 74.15 17.05 74.45 Q17.15 75.25 18.1 75.25 L18.8 75.0 18.9 75.0 19.25 74.9 19.25 75.0 18.95 75.7 Q18.65 76.0 18.25 76.0 L17.55 75.75 17.15 75.25 17.0 75.05 16.7 74.4 16.65 74.5 Q16.45 74.95 15.9 75.0 13.75 72.7 11.35 69.4 L10.75 68.55 11.35 69.4 Q13.75 72.7 15.9 75.0 M0.55 18.2 L0.55 18.1 0.6 17.7 0.9 17.3 0.85 16.7 Q0.85 16.25 3.6 14.55 6.3 12.85 6.3 14.9 L6.0 16.05 Q5.8 14.65 3.3 15.95 0.85 17.2 0.6 18.4 L0.55 18.2 0.6 17.7 0.55 18.2 M10.3 67.9 L9.6 66.8 10.3 67.9 M16.55 74.15 L16.65 74.45 16.65 74.5 16.65 74.45 16.55 74.15" fill="#603dc9" fill-rule="evenodd" stroke="none"/>
      <path d="M4.3 8.25 L3.95 8.7 3.9 8.75 Q2.35 10.4 1.3 12.15 L4.05 12.05 6.4 12.2 6.8 12.25 7.85 12.5 8.3 12.65 9.3 13.05 9.8 13.25 11.15 14.15 11.2 14.2 11.3 14.3 11.45 14.4 11.55 14.5 12.05 14.9 12.15 15.0 13.95 16.7 14.25 17.0 14.3 17.1 16.75 20.0 16.5 21.55 16.5 21.75 Q15.5 27.1 14.95 33.1 L14.5 37.5 14.3 40.25 M47.7 11.0 L47.75 11.15 47.95 11.7 49.1 16.0 49.25 16.95 M17.6 76.65 L15.9 75.0 M10.75 68.55 L10.3 67.9 9.6 66.8 M0.6 17.7 L1.3 12.15 M14.55 65.75 L14.55 65.9 14.6 66.2 14.65 66.5 14.65 66.6 14.65 66.65 14.7 66.8 14.75 67.1 14.8 67.2 14.8 67.3 14.85 67.4 14.85 67.45 15.05 68.55 15.05 68.65 15.1 68.95 15.25 69.6 15.3 69.8 15.4 70.2 15.45 70.6 15.75 71.65 15.85 72.0 16.0 72.45 16.15 73.0 16.45 73.95 16.55 74.15 16.65 74.45 16.65 74.5 17.6 76.65 M37.15 10.0 L35.75 10.05 35.2 10.15 34.3 10.25 34.05 10.3 33.9 10.3 33.5 10.4 31.95 10.7 30.9 10.95 30.25 11.15 29.9 11.3 29.7 11.3 29.3 11.4 27.35 12.1 26.65 12.45 26.1 12.7 Q25.55 12.9 25.0 13.25 L24.45 13.55 24.3 13.6 24.05 13.8 23.8 13.95 23.3 14.25 23.2 14.3 Q22.65 14.55 22.2 14.9 18.65 17.25 16.75 20.0 M37.15 10.0 Q42.15 9.7 47.7 11.0 M0.55 18.2 L0.6 17.7 M14.55 65.75 L14.45 64.85 14.35 64.35 14.25 63.25 14.2 63.0 14.2 62.7 14.0 60.4 13.95 60.0 13.95 59.85 13.95 59.25 13.85 57.45 13.8 56.4" fill="none" stroke="#355466" stroke-linecap="round" stroke-linejoin="round" stroke-width="1.0"/>
      <path d="M17.75 0.4 L21.4 -0.1 23.25 -0.1 25.5 -0.05 30.65 0.45 Q38.1 1.65 43.05 5.55 46.5 8.25 47.7 11.0 M49.25 16.95 L49.5 19.1 Q50.3 28.4 46.8 38.25 41.75 52.1 33.95 62.4 26.15 72.75 17.75 76.8 L17.6 76.65 M9.6 66.8 Q4.25 58.35 2.3 48.95 -0.25 36.4 0.25 23.05 L0.55 18.2 M4.3 8.25 L6.35 6.25 Q11.6 1.55 17.75 0.4 M10.75 68.55 L11.35 69.4 Q13.75 72.7 15.9 75.0" fill="none" stroke="#355466" stroke-linecap="round" stroke-linejoin="round" stroke-width="1.5"/>
      <path d="M0.1 15.05 Q-1.0 14.05 -1.0 12.45 -1.0 10.9 0.1 9.8 1.2 8.75 2.8 8.75 4.35 8.75 5.4 9.8 6.55 10.9 6.55 12.45 6.55 14.05 5.4 15.05 4.35 16.15 2.8 16.15 1.2 16.15 0.1 15.05" fill="#ffff33" fill-rule="evenodd" stroke="none"/>
      <path d="M0.1 15.05 Q-1.0 14.05 -1.0 12.45 -1.0 10.9 0.1 9.8 1.2 8.75 2.8 8.75 4.35 8.75 5.4 9.8 6.55 10.9 6.55 12.45 6.55 14.05 5.4 15.05 4.35 16.15 2.8 16.15 1.2 16.15 0.1 15.05 Z" fill="none" stroke="#c58c18" stroke-linecap="round" stroke-linejoin="round" stroke-width="1.0"/>
      <path d="M45.95 8.15 Q47.65 8.15 48.8 9.2 50.0 10.3 50.0 11.85 50.0 13.45 48.8 14.5 47.65 15.55 45.95 15.55 44.3 15.55 43.1 14.5 41.95 13.45 41.95 11.85 41.95 10.3 43.1 9.2 44.3 8.15 45.95 8.15" fill="#ffff33" fill-rule="evenodd" stroke="none"/>
      <path d="M45.95 8.15 Q47.65 8.15 48.8 9.2 50.0 10.3 50.0 11.85 50.0 13.45 48.8 14.5 47.65 15.55 45.95 15.55 44.3 15.55 43.1 14.5 41.95 13.45 41.95 11.85 41.95 10.3 43.1 9.2 44.3 8.15 45.95 8.15 Z" fill="none" stroke="#c58c18" stroke-linecap="round" stroke-linejoin="round" stroke-width="1.0"/>
    </g>
  </defs>
</svg>
