<?xml version="1.0" encoding="UTF-8" standalone="no"?>
<svg xmlns:ffdec="https://www.free-decompiler.com/flash" xmlns:xlink="http://www.w3.org/1999/xlink" ffdec:objectType="frame" height="30.1px" width="30.0px" xmlns="http://www.w3.org/2000/svg">
  <g transform="matrix(1.0, 0.0, 0.0, 1.0, 0.0, 0.0)">
    <use ffdec:characterId="1" height="30.0" transform="matrix(1.0, 0.0, 0.0, 1.0, 0.0, 0.0)" width="30.0" xlink:href="#shape0"/>
    <use ffdec:characterId="6" height="30.0" transform="matrix(1.0, 0.0, 0.0, 1.0, 0.0, 0.1)" width="30.0" xlink:href="#sprite0"/>
  </g>
  <defs>
    <g id="shape0" transform="matrix(1.0, 0.0, 0.0, 1.0, 0.0, 0.0)">
      <path d="M0.0 0.0 L30.0 0.0 30.0 30.0 0.0 30.0 0.0 0.0" fill="#33cc66" fill-opacity="0.0" fill-rule="evenodd" stroke="none"/>
    </g>
    <g id="sprite0" transform="matrix(1.0, 0.0, 0.0, 1.0, 0.0, 0.0)">
      <use ffdec:characterId="2" height="30.0" transform="matrix(1.0, 0.0, 0.0, 1.0, 0.0, 0.0)" width="30.0" xlink:href="#shape1"/>
      <filter id="filter1">
        <feColorMatrix in="SourceGraphic" result="filterResult5" type="matrix" values="0 0 0 0 1.0,0 0 0 0 0.6,0 0 0 0 0.2,0 0 0 1 0"/>
        <feConvolveMatrix divisor="25.0" in="filterResult5" kernelMatrix="1 1 1 1 1 1 1 1 1 1 1 1 1 1 1 1 1 1 1 1 1 1 1 1 1" order="5 5" result="filterResult6"/>
        <feComposite in="SourceGraphic" in2="filterResult6" operator="over" result="filterResult7"/>
      </filter>
      <use ffdec:characterId="5" filter="url(#filter1)" height="59.5" transform="matrix(0.3885, 0.1199, -0.0826, 0.4034, 11.2867, 1.176)" width="34.65" xlink:href="#sprite1"/>
    </g>
    <g id="shape1" transform="matrix(1.0, 0.0, 0.0, 1.0, 0.0, 0.0)">
      <path d="M27.95 0.15 Q30.0 0.7 30.0 3.3 L30.0 26.7 29.8 28.15 Q29.15 30.0 26.7 30.0 L3.3 30.0 2.4 29.95 Q0.7 29.65 0.2 28.15 L0.0 26.7 0.0 3.3 Q0.0 0.7 2.05 0.15 L2.4 0.1 3.3 0.0 26.7 0.0 27.95 0.15" fill="#3a4b91" fill-rule="evenodd" stroke="none"/>
    </g>
    <g id="sprite1" transform="matrix(1.0, 0.0, 0.0, 1.0, 17.3, 29.75)">
      <filter id="filter0">
        <feFlood flood-color="#66ffff" flood-opacity="1.0" result="filterResult0"/>
        <feComposite in="filterResult0" in2="SourceGraphic" operator="out" result="filterResult1"/>
        <feConvolveMatrix divisor="400.0" in="filterResult1" kernelMatrix="1 1 1 1 1 1 1 1 1 1 1 1 1 1 1 1 1 1 1 1 1 1 1 1 1 1 1 1 1 1 1 1 1 1 1 1 1 1 1 1 1 1 1 1 1 1 1 1 1 1 1 1 1 1 1 1 1 1 1 1 1 1 1 1 1 1 1 1 1 1 1 1 1 1 1 1 1 1 1 1 1 1 1 1 1 1 1 1 1 1 1 1 1 1 1 1 1 1 1 1 1 1 1 1 1 1 1 1 1 1 1 1 1 1 1 1 1 1 1 1 1 1 1 1 1 1 1 1 1 1 1 1 1 1 1 1 1 1 1 1 1 1 1 1 1 1 1 1 1 1 1 1 1 1 1 1 1 1 1 1 1 1 1 1 1 1 1 1 1 1 1 1 1 1 1 1 1 1 1 1 1 1 1 1 1 1 1 1 1 1 1 1 1 1 1 1 1 1 1 1 1 1 1 1 1 1 1 1 1 1 1 1 1 1 1 1 1 1 1 1 1 1 1 1 1 1 1 1 1 1 1 1 1 1 1 1 1 1 1 1 1 1 1 1 1 1 1 1 1 1 1 1 1 1 1 1 1 1 1 1 1 1 1 1 1 1 1 1 1 1 1 1 1 1 1 1 1 1 1 1 1 1 1 1 1 1 1 1 1 1 1 1 1 1 1 1 1 1 1 1 1 1 1 1 1 1 1 1 1 1 1 1 1 1 1 1 1 1 1 1 1 1 1 1 1 1 1 1 1 1 1 1 1 1 1 1 1 1 1 1 1 1 1 1 1 1 1 1 1 1 1 1 1 1 1 1 1 1 1 1 1 1 1 1 1 1 1 1 1 1 1 1 1 1 1 1 1 1 1 1 1 1 1 1 1 1 1 1 1 1 1 1 1 1 1 1 1 1 1 1" order="20 20" result="filterResult2"/>
        <feComposite in="filterResult2" in2="SourceGraphic" operator="in" result="filterResult3"/>
        <feComposite in="filterResult3" in2="SourceGraphic" operator="over" result="filterResult4"/>
      </filter>
      <use ffdec:characterId="4" filter="url(#filter0)" height="59.5" transform="matrix(1.0, 0.0, 0.0, 1.0, -17.3, -29.75)" width="34.65" xlink:href="#sprite2"/>
    </g>
    <g id="sprite2" transform="matrix(1.0, 0.0, 0.0, 1.0, 17.3, 29.75)">
      <use ffdec:characterId="3" height="59.5" transform="matrix(1.0, 0.0, 0.0, 1.0, -17.3, -29.75)" width="34.65" xlink:href="#shape2"/>
    </g>
    <g id="shape2" transform="matrix(1.0, 0.0, 0.0, 1.0, 17.3, 29.75)">
      <path d="M16.95 6.75 L16.5 6.8 16.35 7.1 16.15 7.25 Q15.8 2.3 11.95 -2.3 8.1 -6.9 2.9 -7.15 -2.3 -7.35 -4.45 -3.0 -6.65 1.4 -7.55 2.35 L-7.9 2.2 -8.05 1.7 -7.95 1.45 -8.2 1.25 Q-5.4 -1.9 -5.45 -6.5 L-5.6 -8.75 -5.15 -8.4 Q-4.9 -8.45 -4.75 -8.6 L-5.2 -9.7 Q-5.2 -10.2 -6.6 -13.1 -8.0 -16.0 -2.7 -14.8 2.65 -13.6 5.35 -11.7 L9.1 -8.95 Q9.8 -8.4 9.95 -8.4 L10.45 -8.5 10.55 -8.65 10.7 -9.0 11.1 -9.25 Q13.8 -4.75 15.45 0.35 16.5 3.6 16.95 6.75" fill="#6699ff" fill-rule="evenodd" stroke="none"/>
      <path d="M-8.2 1.25 L-7.95 1.45 -8.05 1.7 -7.9 2.2 -7.55 2.35 Q-6.65 1.4 -4.45 -3.0 -2.3 -7.35 2.9 -7.15 8.1 -6.9 11.95 -2.3 15.8 2.3 16.15 7.25 L16.35 7.1 16.5 6.8 16.95 6.75 17.25 10.1 Q17.45 14.9 16.15 18.8 14.8 22.9 11.95 25.5 8.95 28.3 4.5 29.2 -2.75 30.7 -7.8 27.9 -12.2 25.45 -14.05 20.35 -15.75 15.6 -14.65 10.65 -13.5 5.6 -10.05 2.95 L-8.2 1.25 M2.15 24.45 Q6.85 24.45 9.8 19.5 10.8 17.75 11.45 15.75 L12.6 11.15 Q13.25 8.15 6.95 7.85 0.6 7.5 0.2 15.6 -0.25 23.65 -5.05 17.7 -9.85 11.75 -9.5 14.05 L-8.95 17.5 -8.0 20.1 Q-5.35 24.45 2.15 24.45" fill="#66ccff" fill-rule="evenodd" stroke="none"/>
      <path d="M11.1 -9.25 L10.7 -9.0 10.55 -8.65 10.45 -8.5 9.95 -8.4 Q9.8 -8.4 9.1 -8.95 L5.35 -11.7 Q2.65 -13.6 -2.7 -14.8 -8.0 -16.0 -6.6 -13.1 -5.2 -10.2 -5.2 -9.7 L-4.75 -8.6 Q-4.9 -8.45 -5.15 -8.4 L-5.6 -8.75 -5.75 -9.5 -5.6 -8.75 -5.7 -8.85 -5.75 -9.45 -5.75 -9.5 Q-6.4 -13.05 -8.55 -17.25 -10.75 -21.55 -14.2 -26.05 L-17.25 -29.7 Q-5.3 -27.4 3.8 -18.45 8.1 -14.2 11.1 -9.25" fill="#6666ff" fill-rule="evenodd" stroke="none"/>
      <path d="M2.15 24.45 Q-5.35 24.45 -8.0 20.1 L-8.95 17.5 -9.5 14.05 Q-9.85 11.75 -5.05 17.7 -0.25 23.65 0.2 15.6 0.6 7.5 6.95 7.85 13.25 8.15 12.6 11.15 L11.45 15.75 Q10.8 17.75 9.8 19.5 6.85 24.45 2.15 24.45" fill="#66ffff" fill-rule="evenodd" stroke="none"/>
      <path d="M16.95 6.75 Q16.5 3.6 15.45 0.35 13.8 -4.75 11.1 -9.25 8.1 -14.2 3.8 -18.45 -5.3 -27.4 -17.25 -29.7 L-14.2 -26.05 Q-10.75 -21.55 -8.55 -17.25 -6.4 -13.05 -5.75 -9.5 L-5.6 -8.75 -5.45 -6.5 Q-5.4 -1.9 -8.2 1.25 L-10.05 2.95 Q-13.5 5.6 -14.65 10.65 -15.75 15.6 -14.05 20.35 -12.2 25.45 -7.8 27.9 -2.75 30.7 4.5 29.2 8.95 28.3 11.95 25.5 14.8 22.9 16.15 18.8 17.45 14.9 17.25 10.1 L16.95 6.75 Z" fill="none" stroke="#27415b" stroke-linecap="round" stroke-linejoin="round" stroke-width="0.1"/>
    </g>
  </defs>
</svg>
