<?xml version="1.0" encoding="UTF-8" standalone="no"?>
<svg xmlns:ffdec="https://www.free-decompiler.com/flash" xmlns:xlink="http://www.w3.org/1999/xlink" ffdec:objectType="frame" height="30.1px" width="30.0px" xmlns="http://www.w3.org/2000/svg">
  <g transform="matrix(1.0, 0.0, 0.0, 1.0, 0.0, 0.0)">
    <use ffdec:characterId="1" height="30.0" transform="matrix(1.0, 0.0, 0.0, 1.0, 0.0, 0.0)" width="30.0" xlink:href="#shape0"/>
    <use ffdec:characterId="5" height="30.0" transform="matrix(1.0, 0.0, 0.0, 1.0, 0.0, 0.1)" width="30.0" xlink:href="#sprite0"/>
  </g>
  <defs>
    <g id="shape0" transform="matrix(1.0, 0.0, 0.0, 1.0, 0.0, 0.0)">
      <path d="M0.0 0.0 L30.0 0.0 30.0 30.0 0.0 30.0 0.0 0.0" fill="#33cc66" fill-opacity="0.0" fill-rule="evenodd" stroke="none"/>
    </g>
    <g id="sprite0" transform="matrix(1.0, 0.0, 0.0, 1.0, 0.0, 0.0)">
      <use ffdec:characterId="2" height="30.0" transform="matrix(1.0, 0.0, 0.0, 1.0, 0.0, 0.0)" width="30.0" xlink:href="#shape1"/>
      <filter id="filter0">
        <feColorMatrix in="SourceGraphic" result="filterResult0" type="matrix" values="0 0 0 0 0.6901961,0 0 0 0 0.45882353,0 0 0 0 0.34117648,0 0 0 1 0"/>
        <feConvolveMatrix divisor="25.0" in="filterResult0" kernelMatrix="1 1 1 1 1 1 1 1 1 1 1 1 1 1 1 1 1 1 1 1 1 1 1 1 1" order="5 5" result="filterResult1"/>
        <feComposite in="SourceGraphic" in2="filterResult1" operator="over" result="filterResult2"/>
      </filter>
      <use ffdec:characterId="4" filter="url(#filter0)" height="26.35" transform="matrix(1.0, 0.0, 0.0, 1.0, 2.4, 2.05)" width="23.95" xlink:href="#sprite1"/>
    </g>
    <g id="shape1" transform="matrix(1.0, 0.0, 0.0, 1.0, 0.0, 0.0)">
      <path d="M26.7 0.0 L27.95 0.15 Q30.0 0.7 30.0 3.3 L30.0 26.7 29.8 28.15 Q29.15 30.0 26.7 30.0 L3.3 30.0 2.4 29.95 Q0.7 29.65 0.2 28.15 L0.0 26.7 0.0 3.3 Q0.0 0.7 2.05 0.15 L2.4 0.1 3.3 0.0 26.7 0.0" fill="#91552f" fill-rule="evenodd" stroke="none"/>
    </g>
    <g id="sprite1" transform="matrix(1.0, 0.0, 0.0, 1.0, 0.0, 0.0)">
      <use ffdec:characterId="3" height="26.35" transform="matrix(1.0, 0.0, 0.0, 1.0, 0.0, 0.0)" width="23.95" xlink:href="#shape2"/>
    </g>
    <g id="shape2" transform="matrix(1.0, 0.0, 0.0, 1.0, 0.0, 0.0)">
      <path d="M18.5 2.25 L18.0 1.95 18.25 2.25 18.45 2.7 18.5 2.7 18.6 2.75 18.65 2.8 18.7 2.7 18.85 3.3 18.6 3.6 18.5 3.75 18.85 3.55 19.05 3.4 19.4 3.3 19.45 3.35 19.6 3.3 19.55 3.25 19.55 3.15 19.75 3.15 19.85 3.25 19.95 3.25 20.05 3.3 20.25 3.35 Q20.9 3.6 21.2 4.15 L21.25 4.25 21.45 4.6 21.7 5.55 21.45 5.05 21.5 5.45 21.55 5.95 21.55 6.15 21.65 6.2 21.7 6.1 21.6 6.65 21.5 6.75 21.85 6.8 21.75 6.85 21.85 6.95 21.85 7.0 22.25 7.15 22.55 7.3 22.3 6.95 22.95 7.4 23.2 7.6 23.2 7.65 Q23.55 8.05 23.4 8.5 L23.3 8.65 23.35 8.75 23.25 8.8 23.2 8.9 23.15 9.05 23.1 9.0 22.95 9.15 22.9 9.1 22.85 9.15 22.7 9.25 22.65 9.35 22.5 9.45 22.2 9.5 22.6 9.45 23.05 9.65 22.95 9.7 23.0 9.85 23.3 10.05 23.45 10.25 23.4 9.9 23.85 10.35 23.95 10.6 23.95 10.65 23.7 11.5 23.55 11.55 23.5 11.55 23.35 11.75 23.2 11.85 23.2 11.8 23.15 11.8 23.0 11.85 22.65 12.05 22.45 12.05 22.2 12.15 22.1 12.15 22.15 12.2 22.25 12.3 22.15 12.3 22.25 12.4 22.4 12.55 22.6 12.75 22.55 12.5 22.75 12.95 22.85 13.2 22.85 13.25 22.55 13.85 22.4 13.9 22.35 13.9 22.3 14.0 22.15 14.05 22.1 14.05 22.1 14.0 21.7 14.1 21.5 14.1 21.2 14.15 21.15 14.15 20.5 13.95 20.5 13.9 20.55 13.85 20.95 13.85 21.45 13.9 21.9 13.9 22.15 13.45 22.1 13.35 20.55 13.1 19.85 12.95 19.9 12.9 21.05 13.05 22.2 13.2 22.15 12.9 21.65 12.8 20.5 12.6 21.55 12.65 22.1 12.75 22.0 12.45 22.0 12.4 21.5 12.3 19.8 12.3 19.35 12.25 19.1 12.25 18.7 12.2 18.7 12.15 18.6 12.15 17.15 12.15 17.2 12.0 17.95 12.05 18.3 11.95 21.2 12.0 21.75 11.95 22.35 11.8 22.8 11.65 23.05 11.1 23.05 10.95 21.1 11.15 20.15 11.1 20.2 11.1 21.7 10.95 23.1 10.8 23.0 10.4 22.4 10.55 20.9 10.5 20.95 10.5 22.15 10.3 22.9 10.3 22.75 9.9 22.0 9.95 20.0 10.3 19.35 10.45 19.3 10.5 19.0 10.55 19.0 10.5 18.55 10.6 18.55 10.55 18.4 10.55 16.55 10.9 16.65 10.8 17.65 10.55 18.2 10.35 18.55 10.25 21.2 9.75 21.2 9.7 21.75 9.45 22.25 9.25 22.6 8.95 22.6 8.3 22.55 8.2 20.65 8.8 19.8 8.95 19.85 8.9 21.15 8.4 22.5 7.95 22.2 7.65 21.7 7.9 20.2 8.2 Q20.25 8.1 21.35 7.7 L22.05 7.45 21.7 7.2 21.6 7.15 19.35 8.1 19.25 8.2 18.65 8.55 18.65 8.6 18.45 8.7 18.4 8.65 17.95 8.85 17.95 8.8 17.8 8.85 17.0 9.25 16.2 9.55 16.15 9.45 17.0 8.95 18.15 8.35 18.45 8.1 18.5 8.05 18.65 7.95 18.75 7.85 19.2 7.6 20.8 6.5 21.25 6.1 21.25 5.95 21.0 5.45 20.5 5.9 19.6 6.65 19.55 6.7 Q19.75 6.2 20.45 5.55 L20.95 5.2 20.55 4.6 19.65 5.55 18.6 6.5 18.55 6.45 19.0 5.7 20.4 4.35 20.2 4.25 19.5 3.8 19.05 4.0 18.65 4.3 18.15 4.5 18.05 4.5 18.05 4.45 15.95 7.6 15.85 7.7 15.7 7.8 15.1 8.7 14.8 8.65 15.95 6.95 16.0 6.85 15.95 6.85 16.15 6.35 16.15 6.3 16.3 6.1 16.3 6.0 16.8 5.45 18.0 3.6 18.25 2.95 18.2 2.95 18.2 2.9 17.75 2.45 17.35 3.2 16.8 4.4 16.7 4.4 17.2 2.85 17.45 2.3 16.9 1.95 16.3 3.35 15.65 4.8 15.6 4.8 Q15.5 4.4 15.75 3.9 L16.6 1.85 16.45 1.85 15.45 1.75 15.1 2.2 14.8 2.65 14.35 3.2 14.3 3.2 14.3 3.15 13.3 7.5 13.55 6.15 13.5 6.0 13.45 5.55 13.45 5.5 13.5 5.2 13.45 5.05 13.6 4.35 13.9 1.4 13.75 1.35 13.2 1.2 13.25 2.0 13.2 3.35 13.2 3.4 Q12.95 2.9 12.95 1.7 L12.9 1.05 12.3 1.0 12.4 2.55 12.4 4.15 12.3 4.2 Q12.05 3.85 12.1 3.2 L12.0 1.0 11.85 1.05 Q11.3 1.05 10.95 1.35 L10.75 1.85 10.75 2.5 10.65 3.15 10.6 3.25 10.5 3.2 10.35 3.0 11.2 6.5 11.2 7.2 11.4 8.35 11.3 8.45 10.75 6.4 10.7 6.2 10.4 5.7 10.3 5.3 10.3 4.6 9.5 1.6 9.3 1.6 8.75 1.5 9.1 2.35 9.5 3.7 9.45 3.75 8.65 2.2 8.45 1.5 7.85 1.6 8.5 3.1 9.05 4.75 8.95 4.85 8.45 3.95 7.65 1.75 7.45 1.8 6.75 2.45 6.8 2.95 6.95 3.6 7.1 4.3 7.0 4.35 6.5 3.6 6.45 3.5 6.35 3.05 6.25 2.75 6.3 2.7 6.25 2.4 6.35 2.35 6.35 2.1 6.3 2.1 6.15 2.0 6.3 1.85 6.35 1.7 6.35 1.65 6.45 1.6 6.4 1.55 6.5 1.55 6.55 1.35 Q6.9 0.8 7.55 0.65 L7.7 0.65 8.15 0.7 9.05 0.8 8.6 0.9 8.55 0.9 8.95 1.0 9.4 1.2 9.55 1.2 9.6 1.25 9.55 1.05 10.05 1.5 10.25 2.45 10.25 2.3 10.25 2.2 10.3 1.7 10.35 1.5 10.45 1.45 10.35 1.45 10.55 1.15 10.55 1.1 10.7 0.9 10.6 0.9 10.5 0.8 10.65 0.6 10.95 0.55 10.95 0.5 11.0 0.45 11.1 0.3 12.35 0.0 12.5 0.0 12.9 0.1 13.75 0.6 13.25 0.55 13.2 0.55 13.6 0.75 13.9 1.05 14.0 1.05 14.15 1.1 14.2 1.0 14.55 1.5 14.4 2.4 14.5 2.3 14.75 1.85 14.8 1.7 14.9 1.65 14.9 1.6 15.1 1.45 15.2 1.4 15.2 1.35 15.35 1.25 15.35 1.2 15.3 1.15 15.8 1.0 15.85 1.05 16.05 0.95 17.35 1.15 17.45 1.25 Q17.6 1.3 17.8 1.5 L18.5 2.25 M9.1 8.15 L9.15 8.3 9.7 9.4 9.55 9.5 8.35 7.6 8.3 7.5 8.25 7.5 7.9 7.05 7.85 7.1 7.65 6.65 7.25 6.0 6.0 3.9 5.55 3.35 5.4 3.35 4.85 3.5 5.45 4.25 6.3 5.4 6.3 5.5 5.05 4.2 4.6 3.6 4.1 3.9 5.15 5.2 6.25 6.55 6.25 6.65 5.4 5.95 3.95 4.05 3.8 4.2 Q3.5 4.6 3.35 5.05 L3.65 5.55 4.0 6.15 4.35 6.7 4.35 6.8 4.3 6.8 5.5 7.95 5.85 8.2 7.1 9.3 7.25 9.5 8.2 10.4 8.2 10.6 6.4 9.1 6.25 9.1 5.75 8.75 5.7 8.75 5.45 8.5 4.8 7.95 2.9 6.25 2.3 5.9 2.25 5.9 1.75 6.2 2.55 6.75 3.75 7.65 3.75 7.7 Q3.2 7.6 2.15 6.85 L1.5 6.45 1.2 6.95 2.6 7.75 Q4.1 8.65 4.1 8.8 L4.1 8.85 Q3.75 8.85 3.2 8.45 L1.1 7.15 1.0 7.3 0.9 8.2 1.35 8.65 1.85 9.05 2.25 9.5 5.8 11.0 6.35 11.3 7.35 11.75 7.35 11.8 7.2 11.9 5.55 11.2 5.45 11.15 5.35 11.25 4.95 11.0 4.9 11.1 4.7 11.0 4.55 10.95 4.0 10.7 1.95 9.8 1.4 9.7 1.3 9.65 1.3 9.7 1.05 10.1 1.85 10.3 3.0 10.7 3.05 10.75 1.5 10.45 1.0 10.3 0.85 10.8 2.2 11.1 3.65 11.6 3.65 11.65 2.85 11.55 0.8 11.0 0.85 11.1 1.05 11.95 1.55 12.2 2.05 12.45 2.65 12.7 2.7 12.8 2.7 12.85 2.55 12.9 4.25 13.0 4.85 13.05 5.25 13.1 5.45 13.1 5.8 13.2 6.8 13.4 6.9 13.5 5.15 13.4 5.05 13.4 4.6 13.45 4.6 13.5 4.4 13.4 4.35 13.4 3.75 13.35 1.4 13.25 1.35 13.35 1.35 13.65 1.95 13.65 3.0 13.7 3.1 13.7 1.8 13.85 1.3 13.85 1.4 14.4 2.45 14.25 3.8 14.25 3.8 14.3 3.2 14.45 1.4 14.55 1.5 14.65 1.95 15.25 2.35 15.35 2.85 15.4 3.45 15.5 5.8 14.85 6.15 14.85 6.75 14.7 6.9 14.75 Q6.95 14.7 7.0 14.8 L5.75 15.15 5.65 15.15 5.7 15.2 5.45 15.3 5.25 15.4 5.2 15.35 4.7 15.5 3.35 15.85 3.0 16.05 2.95 16.05 3.05 16.35 3.55 16.2 4.3 15.9 4.35 15.9 3.4 16.35 3.1 16.55 3.35 16.9 4.1 16.45 5.0 16.15 5.05 16.15 4.55 16.5 3.4 17.0 3.5 17.1 4.0 17.45 4.35 17.35 4.75 17.25 4.9 17.2 6.5 15.7 6.8 15.45 7.35 15.05 7.45 15.05 6.6 15.95 6.55 15.95 6.6 16.0 6.45 16.2 6.5 16.25 6.3 16.4 6.25 16.4 5.9 16.65 4.7 17.85 4.8 17.9 4.95 18.15 5.25 17.8 5.8 17.25 5.85 17.2 5.3 18.0 5.05 18.3 5.4 18.45 5.9 17.8 6.45 17.1 6.5 17.1 6.3 17.5 5.5 18.55 5.65 18.6 6.2 18.7 6.45 18.5 6.75 18.2 7.05 18.05 7.1 18.0 6.85 18.45 6.85 18.5 6.7 18.7 6.55 18.8 6.55 18.85 6.2 18.95 6.2 19.0 6.1 19.05 5.95 19.1 5.9 19.05 5.85 19.1 5.75 19.05 5.05 18.9 4.95 18.85 4.8 18.6 4.5 18.2 4.6 18.3 4.6 17.95 4.55 18.0 4.55 17.95 4.5 17.95 4.45 17.9 4.45 17.75 4.45 17.65 4.3 17.7 4.05 17.7 3.95 17.75 3.85 17.7 3.85 17.75 3.7 17.75 3.6 17.65 3.55 17.7 3.55 17.65 3.45 17.65 3.35 17.55 2.75 17.1 2.7 17.0 2.6 16.75 2.5 16.2 2.65 16.45 2.7 16.45 2.65 16.25 2.75 16.05 2.8 16.0 2.7 15.9 2.6 16.0 2.7 15.75 2.7 15.7 2.4 15.75 2.15 15.7 2.1 15.7 1.9 15.6 1.85 15.6 1.85 15.55 1.75 15.55 1.7 15.5 1.65 15.55 1.5 15.5 1.3 15.3 1.25 15.3 1.1 15.15 0.6 14.35 0.6 14.25 0.55 13.9 0.75 13.3 0.8 13.65 0.85 13.45 1.1 13.15 1.05 13.2 1.1 13.1 1.05 13.0 0.95 13.05 1.25 12.75 1.75 12.8 2.15 12.85 2.05 12.8 1.9 12.75 1.75 12.8 1.4 12.5 1.15 12.5 1.15 12.45 0.85 12.2 0.85 12.15 0.75 12.15 0.65 12.05 0.65 12.1 0.65 12.15 0.45 12.05 0.35 11.8 0.3 11.75 0.35 11.7 0.35 11.65 0.2 11.55 Q-0.05 10.95 0.0 10.45 L0.05 10.35 0.15 10.05 0.65 9.45 0.55 9.9 0.75 9.65 1.1 9.5 1.1 9.35 1.15 9.25 1.05 9.25 1.2 9.2 1.3 9.2 1.05 8.95 0.85 8.8 0.85 8.75 0.6 8.45 0.55 8.4 0.45 8.15 0.4 8.15 0.35 8.2 0.25 8.0 0.2 7.75 0.25 7.7 0.2 7.65 0.15 7.45 Q0.05 6.7 0.35 6.2 L0.45 6.15 0.75 5.95 Q1.1 5.6 1.55 5.5 L1.25 5.85 1.55 5.7 2.0 5.65 1.95 5.6 2.15 5.55 2.2 5.5 2.05 5.35 2.6 5.45 3.55 6.2 3.25 5.75 3.0 5.5 3.05 5.4 2.9 5.15 2.9 4.8 2.85 4.85 2.8 4.8 2.75 4.6 2.8 4.4 2.85 4.3 2.85 4.25 2.85 4.05 Q3.05 3.35 3.5 3.05 L3.7 3.0 Q3.75 2.85 4.0 2.8 L4.9 2.75 4.55 3.0 4.85 2.9 5.3 3.05 5.4 3.05 5.5 2.95 5.55 3.0 5.5 2.85 6.0 3.05 8.85 7.7 9.05 8.1 9.1 8.15" fill="#442a13" fill-rule="evenodd" stroke="none"/>
      <path d="M18.7 2.7 L18.65 2.8 18.6 2.75 18.5 2.7 18.45 2.7 18.25 2.25 18.0 1.95 18.5 2.25 18.7 2.7 M15.35 1.2 L15.35 1.25 15.2 1.35 15.2 1.4 15.1 1.45 14.9 1.6 14.9 1.65 14.8 1.7 14.75 1.85 14.5 2.3 14.6 1.8 14.95 1.45 15.35 1.2 M14.2 1.0 L14.15 1.1 14.0 1.05 13.9 1.05 13.6 0.75 13.2 0.55 13.25 0.55 13.75 0.6 14.2 1.0 M10.6 0.9 L10.7 0.9 10.55 1.1 10.55 1.15 10.35 1.45 10.45 1.45 10.35 1.5 10.3 1.7 10.25 2.2 10.2 1.7 10.4 1.2 10.6 0.9 M9.55 1.05 L9.6 1.25 9.55 1.2 9.4 1.2 8.95 1.0 8.55 0.9 8.6 0.9 9.05 0.8 9.55 1.05 M6.3 2.1 L6.35 2.1 6.35 2.35 6.25 2.4 6.3 2.7 6.25 2.75 6.35 3.05 6.45 3.5 6.15 3.05 6.2 2.5 6.3 2.1 M7.0 4.35 L7.1 4.3 6.95 3.6 6.8 2.95 6.75 2.45 7.45 1.8 7.65 1.75 8.45 3.95 8.95 4.85 9.05 4.75 8.5 3.1 7.85 1.6 8.45 1.5 8.65 2.2 9.45 3.75 9.5 3.7 9.1 2.35 8.75 1.5 9.3 1.6 9.5 1.6 10.3 4.6 10.3 5.3 10.4 5.7 10.7 6.2 10.75 6.4 11.3 8.45 11.4 8.35 11.2 7.2 11.2 6.5 12.0 10.15 10.4 10.0 7.0 4.35 M10.5 3.2 L10.6 3.25 10.65 3.15 10.75 2.5 10.75 1.85 10.95 1.35 Q11.3 1.05 11.85 1.05 L12.0 1.0 12.1 3.2 Q12.05 3.85 12.3 4.2 L12.4 4.15 12.4 2.55 12.3 1.0 12.9 1.05 12.95 1.7 Q12.95 2.9 13.2 3.4 L13.2 3.35 13.25 2.0 13.2 1.2 13.75 1.35 13.9 1.4 13.6 4.35 13.45 5.05 13.5 5.2 13.45 5.5 13.45 5.55 13.5 6.0 13.55 6.15 13.3 7.5 14.3 3.15 14.3 3.2 14.35 3.2 14.8 2.65 15.1 2.2 15.45 1.75 16.45 1.85 16.6 1.85 15.75 3.9 Q15.5 4.4 15.6 4.8 L15.65 4.8 16.3 3.35 16.9 1.95 17.45 2.3 17.2 2.85 16.7 4.4 16.8 4.4 17.35 3.2 17.75 2.45 18.2 2.9 18.2 2.95 18.25 2.95 18.0 3.6 16.8 5.45 16.3 6.0 16.3 6.1 16.15 6.3 16.15 6.35 15.95 6.85 16.0 6.85 15.95 6.95 14.8 8.65 15.1 8.7 15.7 7.8 15.85 7.7 15.95 7.6 18.05 4.45 18.05 4.5 18.15 4.5 18.65 4.3 19.05 4.0 19.5 3.8 20.2 4.25 20.4 4.35 19.0 5.7 18.55 6.45 18.6 6.5 19.65 5.55 20.55 4.6 20.95 5.2 20.45 5.55 Q19.75 6.2 19.55 6.7 L19.6 6.65 20.5 5.9 21.0 5.45 21.25 5.95 21.25 6.1 20.8 6.5 19.2 7.6 18.75 7.85 18.65 7.95 18.5 8.05 18.45 8.1 18.15 8.35 17.0 8.95 16.15 9.45 16.2 9.55 17.0 9.25 17.8 8.85 17.95 8.8 17.95 8.85 18.4 8.65 18.45 8.7 18.65 8.6 18.65 8.55 19.25 8.2 19.35 8.1 21.6 7.15 21.7 7.2 22.05 7.45 21.35 7.7 Q20.25 8.1 20.2 8.2 L21.7 7.9 22.2 7.65 22.5 7.95 21.15 8.4 19.85 8.9 19.8 8.95 20.65 8.8 22.55 8.2 22.6 8.3 22.6 8.95 22.25 9.25 21.75 9.45 21.2 9.7 21.2 9.75 18.55 10.25 16.55 10.65 18.2 10.35 17.65 10.55 16.65 10.8 16.55 10.9 18.4 10.55 18.55 10.55 18.55 10.6 19.0 10.5 19.0 10.55 19.3 10.5 19.35 10.45 20.0 10.3 22.0 9.95 22.75 9.9 22.9 10.3 22.15 10.3 20.95 10.5 20.9 10.5 22.4 10.55 23.0 10.4 23.1 10.8 21.7 10.95 20.2 11.1 20.15 11.1 21.1 11.15 23.05 10.95 23.05 11.1 22.8 11.65 22.35 11.8 21.75 11.95 21.2 12.0 18.3 11.95 17.95 12.05 17.2 12.0 17.15 12.15 18.6 12.15 18.7 12.15 18.7 12.2 19.1 12.25 19.35 12.25 19.8 12.3 21.5 12.3 22.0 12.4 22.0 12.45 22.1 12.75 21.55 12.65 20.5 12.6 21.65 12.8 22.15 12.9 22.2 13.2 21.05 13.05 19.9 12.9 19.85 12.95 20.55 13.1 22.1 13.35 22.15 13.45 21.9 13.9 21.45 13.9 20.95 13.85 20.55 13.85 20.5 13.9 15.2 12.45 15.05 11.85 17.95 11.95 15.05 11.75 14.8 10.95 14.8 10.85 14.0 10.3 14.0 10.25 12.1 10.15 10.5 3.2 M21.2 14.15 L21.5 14.1 21.7 14.1 22.1 14.0 22.1 14.05 21.8 14.1 21.55 14.15 21.2 14.15 M22.55 12.5 L22.6 12.75 22.4 12.55 22.25 12.4 22.15 12.3 22.25 12.3 22.55 12.5 M22.2 12.15 L22.45 12.05 22.65 12.05 23.0 11.85 23.15 11.8 23.2 11.8 22.9 12.0 22.5 12.15 22.2 12.15 M23.4 9.9 L23.45 10.25 23.3 10.05 23.0 9.85 22.95 9.7 23.05 9.65 23.4 9.9 M22.6 9.45 L22.2 9.5 22.5 9.45 22.65 9.35 22.7 9.25 22.85 9.15 22.9 9.1 22.95 9.15 22.9 9.2 22.6 9.45 M22.3 6.95 L22.55 7.3 22.25 7.15 21.85 7.0 21.85 6.95 21.75 6.85 21.85 6.8 22.3 6.95 M21.7 6.1 L21.65 6.2 21.55 6.15 21.55 5.95 21.5 5.45 21.45 5.05 21.7 5.55 21.7 6.1 M19.55 3.25 L19.6 3.3 19.45 3.35 19.4 3.3 19.05 3.4 18.85 3.55 18.5 3.75 18.6 3.6 18.8 3.4 19.2 3.3 19.55 3.25 M7.35 11.8 L7.35 11.75 6.35 11.3 5.8 11.0 2.25 9.5 1.85 9.05 1.35 8.65 0.9 8.2 1.0 7.3 1.1 7.15 3.2 8.45 Q3.75 8.85 4.1 8.85 L4.1 8.8 Q4.1 8.65 2.6 7.75 L1.2 6.95 1.5 6.45 2.15 6.85 Q3.2 7.6 3.75 7.7 L3.75 7.65 2.55 6.75 1.75 6.2 2.25 5.9 2.3 5.9 2.9 6.25 4.8 7.95 5.45 8.5 5.7 8.75 5.75 8.75 6.25 9.1 6.4 9.1 8.2 10.6 8.2 10.4 7.25 9.5 7.1 9.3 5.85 8.2 5.5 7.95 4.3 6.8 4.35 6.8 4.35 6.7 4.0 6.15 3.65 5.55 3.35 5.05 Q3.5 4.6 3.8 4.2 L3.95 4.05 5.4 5.95 6.25 6.65 6.25 6.55 5.15 5.2 4.1 3.9 4.6 3.6 5.05 4.2 6.3 5.5 6.3 5.4 5.45 4.25 4.85 3.5 5.4 3.35 5.55 3.35 6.0 3.9 7.25 6.0 7.65 6.65 7.85 7.1 7.9 7.05 8.25 7.5 8.3 7.5 8.35 7.6 9.55 9.5 9.7 9.4 9.15 8.3 9.1 8.15 10.3 10.0 9.15 9.9 8.65 10.4 7.45 11.75 7.35 11.8 M5.5 2.85 L5.55 3.0 5.5 2.95 5.4 3.05 5.3 3.05 4.85 2.9 4.55 3.0 4.9 2.75 5.5 2.85 M2.85 4.85 L2.9 4.8 2.9 5.15 3.05 5.4 3.0 5.5 3.25 5.75 3.55 6.2 3.1 5.8 2.9 5.3 2.85 4.85 M2.05 5.35 L2.2 5.5 2.15 5.55 1.95 5.6 2.0 5.65 1.55 5.7 1.25 5.85 1.55 5.5 2.05 5.35 M0.4 8.15 L0.45 8.15 0.55 8.4 0.6 8.45 0.85 8.75 0.85 8.8 1.05 8.95 1.3 9.2 1.2 9.2 1.0 9.05 0.55 8.55 0.4 8.15 M1.05 9.25 L1.15 9.25 1.1 9.35 1.1 9.5 0.75 9.65 0.55 9.9 0.65 9.45 1.05 9.25 M0.65 12.1 L0.65 12.05 0.75 12.15 0.85 12.15 0.85 12.2 1.15 12.45 1.15 12.5 1.4 12.5 1.75 12.8 1.3 12.7 0.9 12.35 0.65 12.1 M0.95 13.05 L1.05 13.0 1.1 13.1 1.05 13.2 1.1 13.15 0.85 13.45 0.8 13.65 0.75 13.3 0.95 13.05 M1.75 15.55 L1.85 15.55 1.85 15.6 1.9 15.6 2.1 15.7 2.15 15.7 2.4 15.75 2.7 15.7 2.7 15.75 2.4 15.85 2.0 15.7 1.85 15.6 1.75 15.55 M2.6 16.0 L2.7 15.9 2.8 16.0 2.75 16.05 2.65 16.25 2.7 16.45 2.65 16.45 2.5 16.2 2.6 16.0 M3.95 17.75 L4.05 17.7 4.3 17.7 4.45 17.65 4.45 17.75 4.1 17.75 3.95 17.75 M4.45 17.9 L4.5 17.95 4.55 17.95 4.55 18.0 4.6 17.95 4.6 18.3 4.5 18.2 4.45 17.95 4.45 17.9 M6.2 19.0 L6.2 18.95 6.55 18.85 6.55 18.8 6.7 18.7 6.85 18.5 6.75 18.8 6.45 18.95 6.2 19.0 M7.1 18.0 L7.05 18.05 6.75 18.2 6.45 18.5 6.2 18.7 5.65 18.6 5.5 18.55 6.3 17.5 6.5 17.1 6.45 17.1 5.9 17.8 5.4 18.45 5.05 18.3 5.3 18.0 5.85 17.2 5.8 17.25 5.25 17.8 4.95 18.15 4.8 17.9 4.7 17.85 5.9 16.65 6.25 16.4 6.3 16.4 6.5 16.25 6.45 16.2 6.6 16.0 6.55 15.95 6.6 15.95 7.45 15.05 7.35 15.05 6.8 15.45 6.5 15.7 4.9 17.2 4.75 17.25 4.35 17.35 4.0 17.45 3.5 17.1 3.4 17.0 4.55 16.5 5.05 16.15 5.0 16.15 4.1 16.45 3.35 16.9 3.1 16.55 3.4 16.35 4.35 15.9 4.3 15.9 3.55 16.2 3.05 16.35 2.95 16.05 3.0 16.05 3.35 15.85 4.7 15.5 5.2 15.35 5.25 15.4 5.45 15.3 5.7 15.2 5.65 15.15 5.75 15.15 7.0 14.8 Q6.95 14.7 6.9 14.75 L6.75 14.7 6.15 14.85 5.8 14.85 3.45 15.5 2.85 15.4 2.35 15.35 1.95 15.25 1.5 14.65 1.4 14.55 3.2 14.45 3.8 14.3 3.8 14.25 2.45 14.25 1.4 14.4 1.3 13.85 1.8 13.85 3.1 13.7 3.0 13.7 1.95 13.65 1.35 13.65 1.35 13.35 1.4 13.25 3.75 13.35 4.35 13.4 4.4 13.4 4.6 13.5 4.6 13.45 5.05 13.4 5.15 13.4 6.9 13.5 6.8 13.4 5.8 13.2 5.45 13.1 5.25 13.1 4.85 13.05 4.25 13.0 2.7 12.85 2.7 12.8 2.65 12.7 2.05 12.45 1.55 12.2 1.05 11.95 0.85 11.1 0.8 11.0 2.85 11.55 3.65 11.65 3.65 11.6 2.2 11.1 0.85 10.8 1.0 10.3 1.5 10.45 3.05 10.75 3.0 10.7 1.85 10.3 1.05 10.1 1.3 9.7 1.3 9.65 1.4 9.7 1.95 9.8 4.0 10.7 4.55 10.95 4.7 11.0 4.9 11.1 4.95 11.0 5.35 11.25 5.45 11.15 5.55 11.2 7.2 11.9 7.15 12.05 Q7.05 12.25 7.1 12.6 L7.45 13.25 8.1 14.15 8.2 14.3 8.65 14.75 8.7 14.8 8.65 14.85 7.1 18.0" fill="#331811" fill-rule="evenodd" stroke="none"/>
      <path d="M8.65 10.4 L9.15 9.9 10.3 10.0 10.4 10.0 12.0 10.15 12.1 10.15 14.0 10.25 14.0 10.3 14.8 10.85 14.8 10.95 15.05 11.75 15.05 11.85 15.2 12.45 Q18.55 23.85 18.95 26.05 L15.7 26.15 14.65 26.35 13.45 23.85 13.55 21.7 13.65 21.3 Q13.8 19.8 14.2 18.8 14.7 17.35 15.45 16.95 L13.55 11.15 9.0 10.45 8.85 10.9 8.75 11.35 8.65 11.65 8.45 12.1 8.1 12.75 Q8.05 12.9 8.0 12.7 L7.95 12.6 8.1 12.4 8.2 12.0 8.3 11.7 8.55 11.1 8.65 10.85 8.65 10.7 8.75 10.55 8.8 10.5 8.8 10.45 8.65 10.4" fill="#7f5847" fill-rule="evenodd" stroke="none"/>
      <path d="M7.2 11.9 L7.35 11.8 7.45 11.75 8.65 10.4 8.8 10.45 8.8 10.5 8.75 10.55 8.65 10.7 8.65 10.85 8.55 11.1 8.3 11.7 8.2 12.0 8.1 12.4 7.95 12.6 8.0 12.7 Q8.05 12.9 8.1 12.75 L8.45 12.1 8.65 11.65 8.75 11.35 8.85 10.9 9.0 10.45 13.55 11.15 15.45 16.95 Q14.7 17.35 14.2 18.8 13.8 19.8 13.65 21.3 L13.55 21.7 13.45 23.85 12.05 21.0 10.65 18.2 8.7 14.8 8.65 14.75 8.2 14.3 8.1 14.15 7.45 13.25 7.1 12.6 Q7.05 12.25 7.15 12.05 L7.2 11.9" fill="#b07557" fill-rule="evenodd" stroke="none"/>
    </g>
  </defs>
</svg>
