<?xml version="1.0" encoding="UTF-8" standalone="no"?>
<svg xmlns:ffdec="https://www.free-decompiler.com/flash" xmlns:xlink="http://www.w3.org/1999/xlink" ffdec:objectType="frame" height="30.05px" width="30.0px" xmlns="http://www.w3.org/2000/svg">
  <g transform="matrix(1.0, 0.0, 0.0, 1.0, 0.0, 0.0)">
    <use ffdec:characterId="1" height="30.0" transform="matrix(1.0, 0.0, 0.0, 1.0, 0.0, 0.0)" width="30.0" xlink:href="#shape0"/>
    <use ffdec:characterId="3" height="30.0" transform="matrix(1.0, 0.0, 0.0, 1.0, 0.0, 0.05)" width="30.0" xlink:href="#sprite0"/>
  </g>
  <defs>
    <g id="shape0" transform="matrix(1.0, 0.0, 0.0, 1.0, 0.0, 0.0)">
      <path d="M0.0 0.0 L30.0 0.0 30.0 30.0 0.0 30.0 0.0 0.0" fill="#33cc66" fill-opacity="0.0" fill-rule="evenodd" stroke="none"/>
    </g>
    <g id="sprite0" transform="matrix(1.0, 0.0, 0.0, 1.0, 0.0, 0.0)">
      <use ffdec:characterId="2" height="30.0" transform="matrix(1.0, 0.0, 0.0, 1.0, 0.0, 0.0)" width="30.0" xlink:href="#shape1"/>
    </g>
    <g id="shape1" transform="matrix(1.0, 0.0, 0.0, 1.0, 0.0, 0.0)">
      <path d="M3.3 0.0 L26.7 0.0 Q30.0 0.0 30.0 3.3 L30.0 26.7 Q30.0 30.0 26.7 30.0 L3.3 30.0 Q0.0 30.0 0.0 26.7 L0.0 3.3 Q0.0 0.0 3.3 0.0" fill="#a56db4" fill-rule="evenodd" stroke="none"/>
      <path d="M23.15 6.9 Q21.45 5.4 19.75 4.85 L18.3 4.55 Q17.9 4.55 17.65 4.8 L17.15 5.7 17.35 7.3 17.4 7.5 Q18.0 8.95 19.25 10.25 L19.25 10.3 19.8 10.8 Q21.3 12.1 22.8 12.75 L23.4 12.95 23.65 13.0 24.5 13.1 24.6 13.1 25.25 13.0 25.95 12.55 26.1 12.05 Q26.2 11.4 25.7 10.2 24.9 8.5 23.15 6.9 M17.15 5.7 Q14.4 9.75 12.0 13.85 L11.9 14.05 10.25 17.05 Q9.3 12.45 7.9 12.6 7.35 12.65 6.7 13.55 4.15 20.35 4.15 25.8 L4.3 26.05 4.4 26.05 Q10.45 26.05 16.5 23.7 17.35 23.05 17.45 22.55 17.7 21.15 13.05 20.1 L16.5 18.4 16.75 18.35 Q20.95 16.15 25.25 13.0 M12.0 13.85 L11.75 12.85 Q11.45 12.2 10.85 11.9 9.1 11.9 7.9 12.6 M17.45 22.55 L18.45 19.45 Q18.45 18.9 17.9 18.6 L16.75 18.35" fill="none" stroke="#ffffff" stroke-linecap="round" stroke-linejoin="round" stroke-width="3.5"/>
      <path d="M18.3 4.55 L18.25 5.9 Q18.2 6.5 18.8 7.75 19.45 9.0 20.65 10.2 22.0 11.35 23.25 11.75 L24.0 11.9 24.2 11.9 26.0 12.05 26.1 12.05 25.95 12.55 Q25.4 13.1 24.75 13.1 L24.5 13.1 23.65 13.0 23.4 12.95 22.8 12.75 Q21.3 12.1 19.8 10.8 L19.25 10.3 19.25 10.25 Q18.0 8.95 17.4 7.5 L17.35 7.3 17.15 5.7 17.35 7.3 17.4 7.5 Q18.0 8.95 19.25 10.25 L19.25 10.3 18.9 10.75 18.85 10.7 18.6 10.9 9.85 19.5 9.25 18.0 Q8.75 16.8 7.8 16.8 6.9 16.8 5.55 21.45 L4.3 26.0 4.3 26.05 4.15 25.8 Q4.15 20.35 6.7 13.55 7.35 12.65 7.9 12.6 9.3 12.45 10.25 17.05 L11.9 14.05 12.0 13.85 Q14.4 9.75 17.1 5.65 L17.15 5.7 17.65 4.8 Q17.9 4.55 18.3 4.55 M12.35 15.45 L12.3 15.5 12.4 15.45 12.35 15.45" fill="#ee6c6c" fill-rule="evenodd" stroke="none"/>
      <path d="M26.1 12.05 L26.0 12.05 24.2 11.9 24.0 11.9 23.25 11.75 Q22.0 11.35 20.65 10.2 19.45 9.0 18.8 7.75 18.2 6.5 18.25 5.9 L18.3 4.55 19.75 4.85 Q21.45 5.4 23.15 6.9 24.9 8.5 25.7 10.2 26.2 11.4 26.1 12.05 M19.25 10.3 L19.8 10.8 Q21.3 12.1 22.8 12.75 L10.65 20.65 12.2 21.25 12.95 21.6 13.1 22.25 Q13.1 23.0 12.45 23.3 L10.7 23.95 4.3 26.0 5.55 21.45 Q6.9 16.8 7.8 16.8 8.75 16.8 9.25 18.0 L9.85 19.5 18.6 10.9 18.85 10.7 18.9 10.75 19.25 10.3 M6.95 20.2 L7.5 20.45 Q8.15 20.45 8.4 19.75 L8.55 19.0 Q8.55 17.95 7.6 18.15 6.7 18.35 6.7 19.65 L6.95 20.2 M17.45 22.55 Q17.7 21.15 13.05 20.1 L16.5 18.4 16.75 18.35 17.9 18.6 Q18.45 18.9 18.45 19.45 L17.45 22.55" fill="#cb2c1b" fill-rule="evenodd" stroke="none"/>
      <path d="M22.8 12.75 L23.4 12.95 23.65 13.0 24.5 13.1 24.75 13.1 25.3 13.15 Q20.95 16.15 16.75 18.35 L16.5 18.4 13.05 20.1 Q17.7 21.15 17.45 22.55 17.35 23.05 16.5 23.7 10.45 26.05 4.4 26.05 L4.3 26.05 4.3 26.0 10.7 23.95 12.45 23.3 Q13.1 23.0 13.1 22.25 L12.95 21.6 12.2 21.25 10.65 20.65 22.8 12.75 M7.9 12.6 Q9.1 11.9 10.85 11.9 11.45 12.2 11.75 12.85 L12.0 13.85 11.9 14.05 10.25 17.05 Q9.3 12.45 7.9 12.6" fill="#a01e16" fill-rule="evenodd" stroke="none"/>
      <path d="M17.1 5.65 L17.15 5.55 17.15 5.7 17.1 5.65" fill="#ecb885" fill-rule="evenodd" stroke="none"/>
      <path d="M6.95 20.2 L6.7 19.65 Q6.7 18.35 7.6 18.15 8.55 17.95 8.55 19.0 L8.4 19.75 Q8.15 20.45 7.5 20.45 L6.95 20.2" fill="#ffffff" fill-rule="evenodd" stroke="none"/>
      <path d="M18.3 4.55 Q17.9 4.55 17.65 4.8 L17.15 5.7 17.35 7.3 17.4 7.5 Q18.0 8.95 19.25 10.25 L19.25 10.3 19.8 10.8 Q21.3 12.1 22.8 12.75 L23.4 12.95 23.65 13.0 24.5 13.1 24.75 13.1 Q25.4 13.1 25.95 12.55 L26.1 12.05 Q26.2 11.4 25.7 10.2 24.9 8.5 23.15 6.9 21.45 5.4 19.75 4.85 L18.3 4.55 M17.15 5.55 L17.1 5.65 Q14.4 9.75 12.0 13.85 L11.75 12.85 Q11.45 12.2 10.85 11.9 9.1 11.9 7.9 12.6 9.3 12.45 10.25 17.05 L11.9 14.05 12.0 13.85 M4.3 26.05 L4.15 25.8 Q4.15 20.35 6.7 13.55 7.35 12.65 7.9 12.6 M16.75 18.35 L16.5 18.4 13.05 20.1 Q17.7 21.15 17.45 22.55 L18.45 19.45 Q18.45 18.9 17.9 18.6 L16.75 18.35 Q20.95 16.15 25.3 13.15 M17.45 22.55 Q17.35 23.05 16.5 23.7 10.45 26.05 4.4 26.05 L4.3 26.05" fill="none" stroke="#6d0101" stroke-linecap="round" stroke-linejoin="round" stroke-width="1.0"/>
    </g>
  </defs>
</svg>
