<?xml version="1.0" encoding="UTF-8" standalone="no"?>
<svg xmlns:ffdec="https://www.free-decompiler.com/flash" xmlns:xlink="http://www.w3.org/1999/xlink" ffdec:objectType="frame" height="30.1px" width="30.0px" xmlns="http://www.w3.org/2000/svg">
  <g transform="matrix(1.0, 0.0, 0.0, 1.0, 0.0, 0.0)">
    <use ffdec:characterId="1" height="30.0" transform="matrix(1.0, 0.0, 0.0, 1.0, 0.0, 0.0)" width="30.0" xlink:href="#shape0"/>
    <use ffdec:characterId="3" height="30.0" transform="matrix(1.0, 0.0, 0.0, 1.0, 0.0, 0.1)" width="30.0" xlink:href="#sprite0"/>
  </g>
  <defs>
    <g id="shape0" transform="matrix(1.0, 0.0, 0.0, 1.0, 0.0, 0.0)">
      <path d="M0.0 0.0 L30.0 0.0 30.0 30.0 0.0 30.0 0.0 0.0" fill="#33cc66" fill-opacity="0.0" fill-rule="evenodd" stroke="none"/>
    </g>
    <g id="sprite0" transform="matrix(1.0, 0.0, 0.0, 1.0, 0.0, 0.0)">
      <use ffdec:characterId="2" height="30.0" transform="matrix(1.0, 0.0, 0.0, 1.0, 0.0, 0.0)" width="30.0" xlink:href="#shape1"/>
    </g>
    <g id="shape1" transform="matrix(1.0, 0.0, 0.0, 1.0, 0.0, 0.0)">
      <path d="M2.05 0.15 L3.3 0.0 26.7 0.0 27.95 0.15 Q30.0 0.7 30.0 3.3 L30.0 26.7 29.8 28.15 Q29.15 30.0 26.7 30.0 L3.3 30.0 Q0.85 30.0 0.2 28.15 L0.0 26.7 0.0 3.3 Q0.0 0.7 2.05 0.15" fill="#949bd0" fill-rule="evenodd" stroke="none"/>
      <path d="M10.35 4.9 Q11.15 4.5 12.0 4.2 15.0 3.4 18.15 4.75 L19.35 5.3 19.3 5.45 19.25 5.7 Q19.2 6.0 18.95 5.95 16.55 5.5 14.5 6.65 13.5 7.15 12.6 8.2 L10.95 10.5 Q14.0 8.75 14.15 11.3 L13.8 12.2 Q12.25 16.2 7.6 20.25 L6.5 18.7 Q4.2 14.75 3.5 9.35 L3.5 8.75 Q4.8 7.05 5.35 9.25 L7.45 6.9 9.05 5.65 10.35 4.9 M24.7 12.55 Q26.5 16.85 26.55 22.25 L26.45 22.9 Q25.0 24.4 24.7 22.15 L22.3 24.1 20.6 25.1 19.2 25.65 17.5 26.05 Q14.5 26.4 11.45 24.65 L10.3 23.85 10.35 23.75 10.5 23.5 Q10.6 23.25 10.8 23.3 13.15 24.1 15.35 23.25 16.35 22.95 17.4 22.05 L19.3 20.0 Q16.05 21.25 16.25 18.7 L16.8 17.75 Q18.7 14.15 23.8 10.85 L24.7 12.55 Z" fill="none" stroke="#ffffff" stroke-linecap="round" stroke-linejoin="round" stroke-width="3.5"/>
      <path d="M22.8 14.55 Q23.0 14.7 22.1 15.65 21.15 16.6 20.8 16.55 L20.75 16.5 20.65 16.5 Q20.3 16.15 20.65 15.65 21.05 15.05 21.6 14.8 L22.2 14.45 22.5 14.45 22.8 14.55" fill="#ffffff" fill-rule="evenodd" stroke="none"/>
      <path d="M10.35 23.75 L11.45 24.15 13.7 24.4 16.3 23.9 Q17.7 23.45 19.3 21.5 20.85 19.65 20.35 19.2 19.9 18.7 19.1 18.95 L17.55 19.0 Q16.95 18.75 18.7 16.6 20.7 14.4 21.9 13.65 23.15 12.7 23.35 12.75 L23.9 13.55 Q24.4 14.4 25.15 18.05 25.85 21.7 25.15 21.15 24.5 20.55 24.25 20.55 24.05 20.5 23.75 20.75 L23.45 20.95 21.8 22.6 Q20.15 24.15 18.45 24.65 L16.65 25.05 Q13.9 25.35 11.1 24.2 L10.3 23.85 10.35 23.75 M22.8 14.55 L22.5 14.45 22.2 14.45 21.6 14.8 Q21.05 15.05 20.65 15.65 20.3 16.15 20.65 16.5 L20.75 16.5 20.8 16.55 Q21.15 16.6 22.1 15.65 23.0 14.7 22.8 14.55" fill="#ffe450" fill-rule="evenodd" stroke="none"/>
      <path d="M10.3 23.85 L11.1 24.2 Q13.9 25.35 16.65 25.05 L18.45 24.65 Q20.15 24.15 21.8 22.6 L23.45 20.95 23.75 20.75 Q24.05 20.5 24.25 20.55 24.5 20.55 25.15 21.15 25.85 21.7 25.15 18.05 24.4 14.4 23.9 13.55 L23.35 12.75 Q23.15 12.7 21.9 13.65 20.7 14.4 18.7 16.6 16.95 18.75 17.55 19.0 L19.1 18.95 Q19.9 18.7 20.35 19.2 20.85 19.65 19.3 21.5 17.7 23.45 16.3 23.9 L13.7 24.4 11.45 24.15 10.35 23.75 10.5 23.5 Q10.6 23.25 10.8 23.3 13.15 24.1 15.35 23.25 16.35 22.95 17.4 22.05 L19.3 20.0 Q16.05 21.25 16.25 18.7 L16.7 17.9 16.8 17.75 Q18.7 14.15 23.8 10.85 L24.7 12.55 Q26.5 16.85 26.55 22.25 L26.45 22.9 Q25.0 24.4 24.7 22.15 L22.3 24.1 20.6 25.1 19.2 25.65 17.5 26.05 Q14.5 26.4 11.45 24.65 L10.3 23.85" fill="#f39700" fill-rule="evenodd" stroke="none"/>
      <path d="M10.35 23.75 L10.3 23.85 11.45 24.65 Q14.5 26.4 17.5 26.05 L19.2 25.65 20.6 25.1 22.3 24.1 24.7 22.15 Q25.0 24.4 26.45 22.9 L26.55 22.25 Q26.5 16.85 24.7 12.55 L23.8 10.85 Q18.7 14.15 16.8 17.75 M16.7 17.9 L16.25 18.7 Q16.05 21.25 19.3 20.0 L17.4 22.05 Q16.35 22.95 15.35 23.25 13.15 24.1 10.8 23.3 10.6 23.25 10.5 23.5 L10.35 23.75" fill="none" stroke="#663300" stroke-linecap="round" stroke-linejoin="round" stroke-width="1.0"/>
      <path d="M8.2 16.45 Q8.0 16.3 8.7 15.25 9.55 14.2 9.9 14.15 L9.9 14.2 10.05 14.2 Q10.45 14.45 10.1 15.05 L9.35 16.0 8.75 16.45 8.45 16.5 8.2 16.45" fill="#ffffff" fill-rule="evenodd" stroke="none"/>
      <path d="M19.3 5.45 L18.2 5.25 16.0 5.3 13.5 6.2 Q12.1 6.9 10.8 9.0 9.5 11.15 10.0 11.5 L11.35 11.55 Q12.2 11.15 12.8 11.3 13.45 11.4 11.95 13.8 10.3 16.25 9.15 17.2 L7.85 18.3 7.15 17.55 Q6.6 16.8 5.4 13.3 4.3 9.8 5.0 10.25 L6.0 10.75 6.5 10.5 6.8 10.15 8.2 8.3 Q9.6 6.55 11.25 5.8 L13.0 5.1 Q15.65 4.4 18.6 5.1 L19.35 5.3 19.3 5.45 M8.2 16.45 L8.45 16.5 8.75 16.45 9.35 16.0 10.1 15.05 Q10.45 14.45 10.05 14.2 L9.9 14.2 9.9 14.15 Q9.55 14.2 8.7 15.25 8.0 16.3 8.2 16.45" fill="#ffe450" fill-rule="evenodd" stroke="none"/>
      <path d="M19.35 5.3 L18.6 5.1 Q15.65 4.4 13.0 5.1 L11.25 5.8 Q9.6 6.55 8.2 8.3 L6.8 10.15 6.5 10.5 6.0 10.75 5.0 10.25 Q4.3 9.8 5.4 13.3 6.6 16.8 7.15 17.55 L7.85 18.3 9.15 17.2 Q10.3 16.25 11.95 13.8 13.45 11.4 12.8 11.3 12.2 11.15 11.35 11.55 L10.0 11.5 Q9.5 11.15 10.8 9.0 12.1 6.9 13.5 6.2 L16.0 5.3 18.2 5.25 19.3 5.45 19.25 5.7 Q19.2 6.0 18.95 5.95 16.55 5.5 14.5 6.65 13.5 7.15 12.6 8.2 L10.95 10.5 Q14.0 8.75 14.15 11.3 L13.8 12.2 13.7 12.35 Q12.25 16.2 7.6 20.25 L6.5 18.7 Q4.2 14.75 3.5 9.35 L3.5 8.75 Q4.8 7.05 5.35 9.25 L7.45 6.9 9.05 5.65 10.35 4.9 Q11.15 4.5 12.0 4.2 15.0 3.4 18.15 4.75 L19.35 5.3" fill="#f39700" fill-rule="evenodd" stroke="none"/>
      <path d="M19.3 5.45 L19.35 5.3 18.15 4.75 Q15.0 3.4 12.0 4.2 11.15 4.5 10.35 4.9 L9.05 5.65 7.45 6.9 5.35 9.25 Q4.8 7.05 3.5 8.75 L3.5 9.35 Q4.2 14.75 6.5 18.7 L7.6 20.25 Q12.25 16.2 13.7 12.35 M13.8 12.2 L14.15 11.3 Q14.0 8.75 10.95 10.5 L12.6 8.2 Q13.5 7.15 14.5 6.65 16.55 5.5 18.95 5.95 19.2 6.0 19.25 5.7 L19.3 5.45" fill="none" stroke="#663300" stroke-linecap="round" stroke-linejoin="round" stroke-width="1.0"/>
    </g>
  </defs>
</svg>
