<?xml version="1.0" encoding="UTF-8" standalone="no"?>
<svg xmlns:ffdec="https://www.free-decompiler.com/flash" xmlns:xlink="http://www.w3.org/1999/xlink" ffdec:objectType="frame" height="30.0px" width="30.0px" xmlns="http://www.w3.org/2000/svg">
  <g transform="matrix(1.0, 0.0, 0.0, 1.0, 0.0, 0.0)">
    <use ffdec:characterId="1" height="30.0" transform="matrix(1.0, 0.0, 0.0, 1.0, 0.0, 0.0)" width="30.0" xlink:href="#shape0"/>
    <use ffdec:characterId="3" height="30.0" transform="matrix(1.0, 0.0, 0.0, 1.0, 0.0, 0.0)" width="30.0" xlink:href="#sprite0"/>
  </g>
  <defs>
    <g id="shape0" transform="matrix(1.0, 0.0, 0.0, 1.0, 0.0, 0.0)">
      <path d="M0.0 0.0 L30.0 0.0 30.0 30.0 0.0 30.0 0.0 0.0" fill="#33cc66" fill-opacity="0.0" fill-rule="evenodd" stroke="none"/>
    </g>
    <g id="sprite0" transform="matrix(1.0, 0.0, 0.0, 1.0, 0.0, 0.0)">
      <use ffdec:characterId="2" height="30.0" transform="matrix(1.0, 0.0, 0.0, 1.0, 0.0, 0.0)" width="30.0" xlink:href="#shape1"/>
    </g>
    <g id="shape1" transform="matrix(1.0, 0.0, 0.0, 1.0, 0.0, 0.0)">
      <path d="M0.0 26.7 L0.0 3.3 Q0.0 0.0 3.3 0.0 L26.7 0.0 Q30.0 0.0 30.0 3.3 L30.0 26.7 Q30.0 30.0 26.7 30.0 L3.3 30.0 Q0.0 30.0 0.0 26.7" fill="#6699cc" fill-rule="evenodd" stroke="none"/>
      <path d="M20.7 5.4 L20.7 7.8 19.95 7.8 17.3 7.8 17.3 12.35 20.7 12.35 20.7 14.8 21.9 14.2 Q24.85 12.55 27.0 10.15 L26.2 9.25 Q23.6 6.85 20.7 5.4 M20.7 18.1 L17.3 18.1 17.3 22.7 19.75 22.7 20.7 22.7 20.7 25.15 Q24.4 23.35 27.0 20.45 L26.2 19.55 Q24.2 17.75 22.0 16.45 L20.7 15.75 20.7 18.1 M22.0 16.45 L22.0 16.4 21.9 14.2 M19.95 7.8 L18.7 6.05 18.6 6.05 Q17.7 5.2 17.25 5.0 16.7 4.8 16.5 5.15 16.2 5.3 16.2 5.8 L16.35 7.35 16.2 8.15 16.2 8.3 14.35 5.3 Q13.5 4.25 12.6 4.25 11.8 4.25 10.9 5.3 9.8 6.55 8.9 8.3 L8.85 7.45 8.85 7.4 9.05 6.45 9.05 5.7 Q8.65 5.2 8.2 5.3 L8.15 5.3 6.65 6.15 Q4.85 7.95 4.0 10.5 3.15 12.9 3.0 16.2 L3.0 16.8 Q3.2 20.45 5.5 22.85 6.65 24.45 8.55 25.0 L11.3 25.6 12.5 25.75 13.85 25.6 16.55 25.0 Q18.25 24.45 19.6 22.85 L19.75 22.7" fill="none" stroke="#ffffff" stroke-linecap="round" stroke-linejoin="round" stroke-width="3.5"/>
      <path d="M8.55 25.0 Q6.65 24.45 5.5 22.85 3.2 20.45 3.0 16.8 L3.0 16.2 Q3.15 12.9 4.0 10.5 4.85 7.95 6.65 6.15 L8.15 5.3 8.2 5.3 Q8.65 5.2 9.05 5.7 L9.05 6.45 8.85 7.4 8.85 7.45 8.9 8.3 Q9.8 6.55 10.9 5.3 11.8 4.25 12.6 4.25 13.5 4.25 14.35 5.3 L16.2 8.3 16.2 8.15 16.35 7.35 16.2 5.8 Q16.2 5.3 16.5 5.15 16.7 4.8 17.25 5.0 17.7 5.2 18.6 6.05 L18.7 6.05 Q20.25 8.05 21.1 10.1 22.0 13.0 22.0 16.4 L22.0 16.8 Q21.85 20.45 19.6 22.85 18.25 24.45 16.55 25.0 L13.85 25.6 12.5 25.75 11.3 25.6 8.55 25.1 8.55 25.0 M7.9 6.05 L7.25 6.75 Q5.65 8.3 4.85 10.75 3.95 13.05 3.9 16.2 L3.9 16.8 Q4.0 20.2 6.15 22.45 7.0 23.5 8.25 24.05 7.2 22.2 6.45 20.25 L6.7 20.45 6.85 20.65 8.0 21.5 9.05 21.9 11.3 22.3 12.4 22.45 12.75 22.45 12.85 22.45 15.4 22.1 15.45 22.1 16.75 21.7 17.05 21.5 18.2 20.65 18.7 20.25 18.8 20.05 Q19.5 19.15 19.7 18.15 20.1 16.75 18.7 15.85 17.95 15.35 17.05 15.55 L16.8 15.6 16.75 15.6 13.95 16.1 12.5 16.2 11.3 16.1 11.25 16.1 8.35 15.6 8.1 15.55 Q7.2 15.35 6.45 15.85 5.95 16.15 5.7 16.5 5.5 11.65 7.9 6.05" fill="url(#gradient0)" fill-rule="evenodd" stroke="none"/>
      <path d="M7.9 6.05 Q5.5 11.65 5.7 16.5 5.95 16.15 6.45 15.85 7.2 15.35 8.1 15.55 L8.35 15.6 11.25 16.1 11.3 16.1 12.5 16.2 13.95 16.1 16.75 15.6 16.8 15.6 17.05 15.55 Q17.95 15.35 18.7 15.85 20.1 16.75 19.7 18.15 19.5 19.15 18.8 20.05 L18.7 20.25 18.2 20.65 17.05 21.5 16.75 21.7 15.45 22.1 15.4 22.1 12.85 22.45 12.75 22.45 12.4 22.45 11.3 22.3 9.05 21.9 8.0 21.5 6.85 20.65 6.7 20.45 6.45 20.25 Q7.2 22.2 8.25 24.05 7.0 23.5 6.15 22.45 4.0 20.2 3.9 16.8 L3.9 16.2 Q3.95 13.05 4.85 10.75 5.65 8.3 7.25 6.75 L7.9 6.05" fill="#ffffff" fill-rule="evenodd" stroke="none"/>
      <path d="M8.55 25.1 L11.3 25.6 12.5 25.75 13.85 25.6 16.55 25.0 Q18.25 24.45 19.6 22.85 21.85 20.45 22.0 16.8 L22.0 16.4 Q22.0 13.0 21.1 10.1 20.25 8.05 18.7 6.05 L18.6 6.05 Q17.7 5.2 17.25 5.0 16.7 4.8 16.5 5.15 16.2 5.3 16.2 5.8 L16.35 7.35 16.2 8.15 16.2 8.3 14.35 5.3 Q13.5 4.25 12.6 4.25 11.8 4.25 10.9 5.3 9.8 6.55 8.9 8.3 L8.85 7.45 8.85 7.4 9.05 6.45 9.05 5.7 Q8.65 5.2 8.2 5.3 L8.15 5.3 6.65 6.15 Q4.85 7.95 4.0 10.5 3.15 12.9 3.0 16.2 L3.0 16.8 Q3.2 20.45 5.5 22.85 6.65 24.45 8.55 25.0" fill="none" stroke="#663300" stroke-linecap="round" stroke-linejoin="round" stroke-width="1.0"/>
      <path d="M6.8 16.8 L7.9 16.15 Q8.55 16.15 8.95 16.8 9.3 17.55 9.3 18.4 9.3 19.4 8.95 20.1 8.55 20.7 7.9 20.7 7.35 20.7 6.8 20.1 6.5 19.4 6.5 18.4 6.5 17.55 6.8 16.8 M17.45 18.5 L17.6 18.35 17.8 17.8 17.75 17.4 17.6 17.2 17.0 17.0 16.5 17.2 16.2 17.8 Q16.2 18.15 16.5 18.35 L17.0 18.55 17.45 18.5 M6.8 17.8 Q6.8 18.15 7.1 18.35 7.25 18.55 7.65 18.55 L8.25 18.35 8.4 17.8 8.25 17.2 7.65 17.0 7.1 17.2 6.8 17.8 M17.25 16.15 L17.95 16.4 18.2 16.75 18.65 17.55 18.65 18.35 Q18.65 19.35 18.2 19.95 17.8 20.65 17.25 20.65 L16.95 20.6 16.5 20.4 16.15 19.95 Q15.85 19.35 15.85 18.35 15.85 17.4 16.15 16.75 16.65 16.15 17.25 16.15" fill="#333333" fill-rule="evenodd" stroke="none"/>
      <path d="M6.8 17.8 L7.1 17.2 7.65 17.0 8.25 17.2 8.4 17.8 8.25 18.35 7.65 18.55 Q7.25 18.55 7.1 18.35 6.8 18.15 6.8 17.8 M17.45 18.5 L17.0 18.55 16.5 18.35 Q16.2 18.15 16.2 17.8 L16.5 17.2 17.0 17.0 17.6 17.2 17.75 17.4 17.8 17.8 17.6 18.35 17.45 18.5" fill="#ffffff" fill-rule="evenodd" stroke="none"/>
      <path d="M24.85 8.75 L25.1 9.2 24.8 9.5 23.35 8.7 Q22.25 7.95 23.35 7.95 L23.9 8.2 24.2 8.3 24.85 8.75 M23.35 18.25 L23.9 18.55 24.2 18.65 24.85 19.1 25.1 19.5 24.8 19.75 Q24.0 19.45 23.35 19.0 22.25 18.25 23.35 18.25" fill="#ffffff" fill-rule="evenodd" stroke="none"/>
      <path d="M24.85 8.75 L24.2 8.3 23.9 8.2 23.35 7.95 Q22.15 7.3 21.6 7.2 L21.6 8.75 17.3 8.75 17.3 7.8 20.7 7.8 20.7 5.4 Q23.6 6.85 26.2 9.25 24.9 8.3 27.0 10.15 L24.85 8.75 M24.85 19.1 L24.2 18.65 23.9 18.55 23.35 18.25 Q22.15 17.6 21.6 17.5 L21.6 19.05 17.3 19.05 17.3 18.1 20.7 18.1 20.7 15.75 Q23.6 17.2 26.2 19.55 24.9 18.65 27.0 20.45 L24.85 19.1" fill="#fff700" fill-rule="evenodd" stroke="none"/>
      <path d="M23.35 7.95 Q22.25 7.95 23.35 8.7 L24.8 9.5 25.1 9.2 24.85 8.75 27.0 10.15 24.3 11.65 21.7 12.85 21.7 11.45 19.0 11.4 18.95 11.4 18.6 11.4 18.4 11.4 18.25 11.4 17.8 11.4 17.7 11.4 17.3 11.4 17.3 8.75 21.6 8.75 21.6 7.2 Q22.15 7.3 23.35 7.95 M24.85 19.1 L27.0 20.45 24.3 21.95 21.7 23.15 21.7 21.75 19.0 21.7 18.95 21.7 18.6 21.7 18.4 21.7 18.25 21.7 17.8 21.7 17.7 21.7 17.3 21.7 17.3 19.05 21.6 19.05 21.6 17.5 Q22.15 17.6 23.35 18.25 22.25 18.25 23.35 19.0 24.0 19.45 24.8 19.75 L25.1 19.5 24.85 19.1" fill="#ffc000" fill-rule="evenodd" stroke="none"/>
      <path d="M27.0 10.15 Q24.9 8.3 26.2 9.25 L27.0 10.15 M27.0 20.45 Q24.9 18.65 26.2 19.55 L27.0 20.45" fill="#cb2c1b" fill-rule="evenodd" stroke="none"/>
      <path d="M17.3 11.4 L17.7 11.4 17.8 11.4 18.25 11.4 18.4 11.4 18.6 11.4 18.95 11.4 19.0 11.4 21.7 11.45 21.7 12.85 24.3 11.65 27.0 10.15 Q24.4 13.05 20.7 14.8 L20.7 12.35 17.3 12.35 17.3 11.4 M17.3 21.7 L17.7 21.7 17.8 21.7 18.25 21.7 18.4 21.7 18.6 21.7 18.95 21.7 19.0 21.7 21.7 21.75 21.7 23.15 24.3 21.95 27.0 20.45 Q24.4 23.35 20.7 25.15 L20.7 22.7 17.3 22.7 17.3 21.7" fill="#f39700" fill-rule="evenodd" stroke="none"/>
      <path d="M17.3 8.75 L17.3 11.4 17.3 12.35 20.7 12.35 20.7 14.8 Q24.4 13.05 27.0 10.15 L26.2 9.25 Q23.6 6.85 20.7 5.4 L20.7 7.8 17.3 7.8 17.3 8.75 M26.2 19.55 Q23.6 17.2 20.7 15.75 L20.7 18.1 17.3 18.1 17.3 19.05 17.3 21.7 17.3 22.7 20.7 22.7 20.7 25.15 Q24.4 23.35 27.0 20.45 L26.2 19.55 Z" fill="none" stroke="#663300" stroke-linecap="round" stroke-linejoin="round" stroke-width="0.8"/>
    </g>
    <linearGradient gradientTransform="matrix(0.0, 0.0108, -0.0116, 0.0, 12.5, 15.2)" gradientUnits="userSpaceOnUse" id="gradient0" spreadMethod="pad" x1="-819.2" x2="819.2">
      <stop offset="0.0" stop-color="#f4a24f"/>
      <stop offset="1.0" stop-color="#ff6600"/>
    </linearGradient>
  </defs>
</svg>
