<?xml version="1.0" encoding="UTF-8" standalone="no"?>
<svg xmlns:ffdec="https://www.free-decompiler.com/flash" xmlns:xlink="http://www.w3.org/1999/xlink" ffdec:objectType="frame" height="30.0px" width="30.1px" xmlns="http://www.w3.org/2000/svg">
  <g transform="matrix(1.0, 0.0, 0.0, 1.0, 0.0, 0.0)">
    <use ffdec:characterId="1" height="30.0" transform="matrix(1.0, 0.0, 0.0, 1.0, 0.0, 0.0)" width="30.0" xlink:href="#shape0"/>
    <use ffdec:characterId="3" height="30.0" transform="matrix(1.0, 0.0, 0.0, 1.0, 0.1, 0.0)" width="30.0" xlink:href="#sprite0"/>
  </g>
  <defs>
    <g id="shape0" transform="matrix(1.0, 0.0, 0.0, 1.0, 0.0, 0.0)">
      <path d="M0.0 0.0 L30.0 0.0 30.0 30.0 0.0 30.0 0.0 0.0" fill="#33cc66" fill-opacity="0.0" fill-rule="evenodd" stroke="none"/>
    </g>
    <g id="sprite0" transform="matrix(1.0, 0.0, 0.0, 1.0, 0.0, 0.0)">
      <use ffdec:characterId="2" height="30.0" transform="matrix(1.0, 0.0, 0.0, 1.0, 0.0, 0.0)" width="30.0" xlink:href="#shape1"/>
    </g>
    <g id="shape1" transform="matrix(1.0, 0.0, 0.0, 1.0, 0.0, 0.0)">
      <path d="M3.3 0.0 L26.7 0.0 Q30.0 0.0 30.0 3.3 L30.0 26.7 Q30.0 30.0 26.7 30.0 L3.3 30.0 Q0.0 30.0 0.0 26.7 L0.0 3.3 Q0.0 0.0 3.3 0.0" fill="#70cb4e" fill-rule="evenodd" stroke="none"/>
      <path d="M22.8 9.1 L22.8 9.15 22.9 9.05 22.8 9.1 M23.9 7.3 L24.2 7.2 Q24.35 7.2 24.5 7.35 L24.65 7.6 24.6 7.9 24.25 8.7 23.55 9.95 23.55 9.9 21.15 13.35 21.3 13.85 21.3 13.8 21.55 15.8 21.5 16.6 22.3 16.7 22.65 16.85 22.7 16.9 22.85 17.2 22.8 17.5 22.55 17.7 4.75 25.15 4.5 25.2 4.25 25.1 4.1 24.85 4.0 24.4 Q4.0 24.0 4.25 23.65 L8.45 16.7 12.45 10.35 16.45 3.95 Q16.5 3.8 16.7 3.75 L17.0 3.75 Q17.15 3.75 17.25 3.9 L17.35 4.2 Q17.4 5.2 16.4 9.25 17.35 9.4 18.15 9.85 L18.9 10.3 23.9 7.3" fill="#ffffff" fill-rule="evenodd" stroke="none"/>
      <path d="M22.8 9.1 L22.8 9.15 22.9 9.05 22.8 9.1 M23.9 7.3 L18.9 10.3 18.15 9.85 Q17.35 9.4 16.4 9.25 17.4 5.2 17.35 4.2 L17.25 3.9 Q17.15 3.75 17.0 3.75 L16.7 3.75 Q16.5 3.8 16.45 3.95 L12.45 10.35 8.45 16.7 4.25 23.65 Q4.0 24.0 4.0 24.4 L4.1 24.85 4.25 25.1 4.5 25.2 4.75 25.15 22.55 17.7 22.8 17.5 22.85 17.2 22.7 16.9 22.65 16.85 22.3 16.7 21.5 16.6 21.55 15.8 21.3 13.8 21.3 13.85 21.15 13.35 23.55 9.9 23.55 9.95 24.25 8.7 24.6 7.9 24.65 7.6 24.5 7.35 Q24.35 7.2 24.2 7.2 L23.9 7.3 Z" fill="none" stroke="#ffffff" stroke-linecap="round" stroke-linejoin="round" stroke-width="3.5"/>
      <path d="M22.45 9.0 L23.0 9.95 19.8 12.6 19.7 12.7 18.9 13.4 18.95 13.95 18.85 14.75 15.05 12.7 16.1 11.3 18.4 11.65 18.5 11.55 18.7 11.15 18.75 11.2 22.45 9.0 M5.15 23.85 L13.05 14.3 13.1 14.25 16.8 16.25 5.15 23.85" fill="#ffe450" fill-rule="evenodd" stroke="none"/>
      <path d="M23.0 9.95 L20.6 13.4 20.5 13.6 20.7 14.25 20.95 16.1 20.85 17.05 21.0 17.25 22.2 17.5 22.25 17.55 4.85 24.85 4.55 24.2 4.6 24.2 5.15 23.85 16.8 16.25 18.75 14.95 18.85 14.75 18.95 13.95 18.9 13.4 19.7 12.7 19.8 12.6 23.0 9.95" fill="#f39700" fill-rule="evenodd" stroke="none"/>
      <path d="M4.55 24.2 L4.6 24.15 5.8 22.1 8.75 17.25 12.75 10.9 16.75 4.55 Q16.75 5.65 15.65 10.0 17.4 10.05 18.7 11.15 L18.5 11.55 18.4 11.65 16.1 11.3 15.05 12.7 18.85 14.75 18.75 14.95 16.8 16.25 13.1 14.25 13.05 14.3 5.15 23.85 4.6 24.2 4.55 24.2" fill="#ffffff" fill-rule="evenodd" stroke="none"/>
      <path d="M23.0 9.95 L24.05 8.0 22.45 9.0 18.75 11.2 18.7 11.15 Q17.4 10.05 15.65 10.0 16.75 5.65 16.75 4.55 L12.75 10.9 8.75 17.25 5.8 22.1 4.6 24.15 4.55 24.2 4.4 24.7 4.45 25.0 4.85 24.85 22.25 17.55 22.2 17.5 21.0 17.25 20.85 17.05 20.95 16.1 20.7 14.25 20.5 13.6 20.6 13.4 23.0 9.95 Z" fill="none" stroke="#663300" stroke-linecap="round" stroke-linejoin="round" stroke-width="1.0"/>
    </g>
  </defs>
</svg>
