<?xml version="1.0" encoding="UTF-8" standalone="no"?>
<svg xmlns:ffdec="https://www.free-decompiler.com/flash" xmlns:xlink="http://www.w3.org/1999/xlink" ffdec:objectType="frame" height="30.05px" width="30.0px" xmlns="http://www.w3.org/2000/svg">
  <g transform="matrix(1.0, 0.0, 0.0, 1.0, 0.0, 0.0)">
    <use ffdec:characterId="1" height="30.0" transform="matrix(1.0, 0.0, 0.0, 1.0, 0.0, 0.0)" width="30.0" xlink:href="#shape0"/>
    <use ffdec:characterId="3" height="30.0" transform="matrix(1.0, 0.0, 0.0, 1.0, 0.0, 0.05)" width="30.0" xlink:href="#sprite0"/>
  </g>
  <defs>
    <g id="shape0" transform="matrix(1.0, 0.0, 0.0, 1.0, 0.0, 0.0)">
      <path d="M0.0 0.0 L30.0 0.0 30.0 30.0 0.0 30.0 0.0 0.0" fill="#33cc66" fill-opacity="0.0" fill-rule="evenodd" stroke="none"/>
    </g>
    <g id="sprite0" transform="matrix(1.0, 0.0, 0.0, 1.0, 0.0, 0.0)">
      <use ffdec:characterId="2" height="30.0" transform="matrix(1.0, 0.0, 0.0, 1.0, 0.0, 0.0)" width="30.0" xlink:href="#shape1"/>
    </g>
    <g id="shape1" transform="matrix(1.0, 0.0, 0.0, 1.0, 0.0, 0.0)">
      <path d="M26.7 30.0 L3.3 30.0 Q0.0 30.0 0.0 26.7 L0.0 3.3 Q0.0 0.0 3.3 0.0 L26.7 0.0 Q30.0 0.0 30.0 3.3 L30.0 26.7 Q30.0 30.0 26.7 30.0" fill="#ec6002" fill-rule="evenodd" stroke="none"/>
      <path d="M25.3 2.9 L19.6 7.85 17.6 9.6 Q17.0 10.1 17.45 10.4 L19.6 10.5 Q20.4 10.5 19.95 10.95 L17.2 15.7 17.2 15.8 Q16.8 16.55 17.3 16.55 L17.6 16.5 22.1 12.2 25.25 9.2 Q26.35 7.85 25.0 8.0 L24.35 8.15 Q23.7 8.3 23.9 7.65 L25.9 3.4 Q26.45 2.05 25.3 2.9 M19.6 7.85 L19.5 7.85 18.15 6.8 Q17.6 6.6 17.4 6.95 17.1 7.1 17.1 7.6 L17.25 9.15 17.1 9.95 17.1 10.1 15.25 7.1 Q14.4 6.05 13.5 6.05 12.7 6.05 11.8 7.1 10.7 8.35 9.8 10.1 L9.75 9.25 9.75 9.2 9.95 8.25 9.95 7.5 Q9.55 7.0 9.1 7.1 L9.05 7.1 Q8.55 7.1 7.55 7.95 5.75 9.75 4.9 12.3 4.05 14.7 3.9 18.0 L3.9 18.6 Q4.1 22.25 6.4 24.65 7.55 26.25 9.45 26.9 L12.2 27.4 13.4 27.55 14.75 27.4 17.45 26.8 Q19.15 26.25 20.5 24.65 22.75 22.25 22.9 18.6 L22.9 18.2 Q22.9 15.0 22.1 12.2" fill="none" stroke="#ffffff" stroke-linecap="round" stroke-linejoin="round" stroke-width="3.5"/>
      <path d="M9.45 26.8 Q7.55 26.25 6.4 24.65 4.1 22.25 3.9 18.6 L3.9 18.0 Q4.05 14.7 4.9 12.3 5.75 9.75 7.55 7.95 8.55 7.1 9.05 7.1 L9.1 7.1 Q9.55 7.0 9.95 7.5 L9.95 8.25 9.75 9.2 9.75 9.25 9.8 10.1 Q10.7 8.35 11.8 7.1 12.7 6.05 13.5 6.05 14.4 6.05 15.25 7.1 L17.1 10.1 17.1 9.95 17.25 9.15 17.1 7.6 Q17.1 7.1 17.4 6.95 17.6 6.6 18.15 6.8 L19.5 7.85 19.6 7.85 Q21.15 9.85 22.0 11.9 22.9 14.8 22.9 18.2 L22.9 18.6 Q22.75 22.25 20.5 24.65 19.15 26.25 17.45 26.8 L14.75 27.4 13.4 27.55 12.2 27.4 9.45 26.9 9.45 26.8 M8.8 7.85 L8.15 8.55 Q6.55 10.1 5.75 12.55 4.85 14.85 4.8 18.0 L4.8 18.6 Q4.9 22.0 7.05 24.25 L9.15 25.85 7.35 22.05 7.6 22.25 7.75 22.45 8.9 23.3 Q9.45 23.6 9.95 23.7 L12.2 24.1 13.3 24.25 13.65 24.25 13.75 24.25 16.3 23.9 16.35 23.9 17.65 23.5 17.95 23.3 19.1 22.45 19.6 22.05 19.7 21.85 20.6 19.95 Q21.0 18.55 19.6 17.65 18.85 17.15 17.95 17.35 L17.7 17.4 17.65 17.4 14.85 17.9 13.4 18.0 12.2 17.9 12.15 17.9 9.25 17.4 9.0 17.35 Q8.1 17.15 7.35 17.65 L6.6 18.3 Q6.4 13.45 8.8 7.85" fill="url(#gradient0)" fill-rule="evenodd" stroke="none"/>
      <path d="M8.8 7.85 Q6.4 13.45 6.6 18.3 L7.35 17.65 Q8.1 17.15 9.0 17.35 L9.25 17.4 12.15 17.9 12.2 17.9 13.4 18.0 14.85 17.9 17.65 17.4 17.7 17.4 17.95 17.35 Q18.85 17.15 19.6 17.65 21.0 18.55 20.6 19.95 L19.7 21.85 19.6 22.05 19.1 22.45 17.95 23.3 17.65 23.5 16.35 23.9 16.3 23.9 13.75 24.25 13.65 24.25 13.3 24.25 12.2 24.1 9.95 23.7 Q9.45 23.6 8.9 23.3 L7.75 22.45 7.6 22.25 7.35 22.05 9.15 25.85 7.05 24.25 Q4.9 22.0 4.8 18.6 L4.8 18.0 Q4.85 14.85 5.75 12.55 6.55 10.1 8.15 8.55 L8.8 7.85" fill="#ffffff" fill-rule="evenodd" stroke="none"/>
      <path d="M9.45 26.9 L12.2 27.4 13.4 27.55 14.75 27.4 17.45 26.8 Q19.15 26.25 20.5 24.65 22.75 22.25 22.9 18.6 L22.9 18.2 Q22.9 14.8 22.0 11.9 21.15 9.85 19.6 7.85 L19.5 7.85 18.15 6.8 Q17.6 6.6 17.4 6.95 17.1 7.1 17.1 7.6 L17.25 9.15 17.1 9.95 17.1 10.1 15.25 7.1 Q14.4 6.05 13.5 6.05 12.7 6.05 11.8 7.1 10.7 8.35 9.8 10.1 L9.75 9.25 9.75 9.2 9.95 8.25 9.95 7.5 Q9.55 7.0 9.1 7.1 L9.05 7.1 Q8.55 7.1 7.55 7.95 5.75 9.75 4.9 12.3 4.05 14.7 3.9 18.0 L3.9 18.6 Q4.1 22.25 6.4 24.65 7.55 26.25 9.45 26.8" fill="none" stroke="#663300" stroke-linecap="round" stroke-linejoin="round" stroke-width="1.0"/>
      <path d="M8.55 18.8 L8.0 19.0 7.7 19.6 Q7.7 19.95 8.0 20.15 L8.55 20.35 9.15 20.15 9.3 19.6 9.15 19.0 8.55 18.8 M8.8 22.5 Q8.25 22.5 7.7 21.9 7.4 21.2 7.4 20.2 7.4 19.35 7.7 18.6 8.25 17.95 8.8 17.95 9.45 17.95 9.85 18.6 10.2 19.35 10.2 20.2 10.2 21.2 9.85 21.9 L8.8 22.5 M18.15 17.95 L18.85 18.2 19.1 18.55 19.55 19.35 19.55 20.15 Q19.55 21.15 19.1 21.75 18.7 22.45 18.15 22.45 L17.85 22.4 17.4 22.2 17.05 21.75 Q16.75 21.15 16.75 20.15 16.75 19.2 17.05 18.55 17.55 17.95 18.15 17.95 M17.9 20.35 L18.35 20.3 18.5 20.15 18.7 19.6 18.65 19.2 18.5 19.0 17.9 18.8 17.4 19.0 17.1 19.6 Q17.1 19.95 17.4 20.15 L17.9 20.35" fill="#333333" fill-rule="evenodd" stroke="none"/>
      <path d="M8.55 18.8 L9.15 19.0 9.3 19.6 9.15 20.15 8.55 20.35 8.0 20.15 Q7.7 19.95 7.7 19.6 L8.0 19.0 8.55 18.8 M17.9 20.35 L17.4 20.15 Q17.1 19.95 17.1 19.6 L17.4 19.0 17.9 18.8 18.5 19.0 18.65 19.2 18.7 19.6 18.5 20.15 18.35 20.3 17.9 20.35" fill="#ffffff" fill-rule="evenodd" stroke="none"/>
      <path d="M22.75 5.8 L24.15 4.85 24.0 5.25 22.55 7.4 22.0 8.1 21.45 8.25 20.95 7.8 Q21.35 7.05 22.05 6.45 L22.75 5.8 M21.0 8.8 L20.9 9.25 20.5 9.55 20.0 9.4 19.75 9.0 19.85 8.5 Q20.0 8.3 20.3 8.25 L20.75 8.35 21.0 8.8" fill="#ffffff" fill-rule="evenodd" stroke="none"/>
      <path d="M22.75 5.8 L22.05 6.45 Q21.35 7.05 20.95 7.8 L21.45 8.25 22.0 8.1 22.55 7.4 24.0 5.25 24.15 4.85 22.75 5.8 M23.9 7.65 Q23.7 8.3 24.35 8.15 L25.0 8.0 Q26.35 7.85 25.25 9.2 L17.6 16.5 17.3 16.55 Q16.8 16.55 17.2 15.8 L17.2 15.7 19.95 10.95 Q20.4 10.5 19.6 10.5 L17.45 10.4 Q17.0 10.1 17.6 9.6 L25.3 2.9 Q26.45 2.05 25.9 3.4 L23.9 7.65 M21.0 8.8 L20.75 8.35 20.3 8.25 Q20.0 8.3 19.85 8.5 L19.75 9.0 20.0 9.4 20.5 9.55 20.9 9.25 21.0 8.8" fill="url(#gradient1)" fill-rule="evenodd" stroke="none"/>
      <path d="M23.9 7.65 L25.9 3.4 Q26.45 2.05 25.3 2.9 L17.6 9.6 Q17.0 10.1 17.45 10.4 L19.6 10.5 Q20.4 10.5 19.95 10.95 L17.2 15.7 17.2 15.8 Q16.8 16.55 17.3 16.55 L17.6 16.5 25.25 9.2 Q26.35 7.85 25.0 8.0 L24.35 8.15 Q23.7 8.3 23.9 7.65 Z" fill="none" stroke="#4b2b0a" stroke-linecap="round" stroke-linejoin="round" stroke-width="1.0"/>
    </g>
    <linearGradient gradientTransform="matrix(0.0, 0.0108, -0.0116, 0.0, 13.4, 17.0)" gradientUnits="userSpaceOnUse" id="gradient0" spreadMethod="pad" x1="-819.2" x2="819.2">
      <stop offset="0.0" stop-color="#f4a24f"/>
      <stop offset="1.0" stop-color="#ff6600"/>
    </linearGradient>
    <linearGradient gradientTransform="matrix(0.0021, -0.0056, 0.0042, 0.0016, 21.35, 9.55)" gradientUnits="userSpaceOnUse" id="gradient1" spreadMethod="pad" x1="-819.2" x2="819.2">
      <stop offset="0.0" stop-color="#ffcc66"/>
      <stop offset="1.0" stop-color="#ffff00"/>
    </linearGradient>
  </defs>
</svg>
