<?xml version="1.0" encoding="UTF-8" standalone="no"?>
<svg xmlns:ffdec="https://www.free-decompiler.com/flash" xmlns:xlink="http://www.w3.org/1999/xlink" ffdec:objectType="frame" height="30.0px" width="30.0px" xmlns="http://www.w3.org/2000/svg">
  <g transform="matrix(1.0, 0.0, 0.0, 1.0, 0.0, 0.0)">
    <use ffdec:characterId="1" height="30.0" transform="matrix(1.0, 0.0, 0.0, 1.0, 0.0, 0.0)" width="30.0" xlink:href="#shape0"/>
    <use ffdec:characterId="3" height="30.0" transform="matrix(1.0, 0.0, 0.0, 1.0, 0.0, 0.0)" width="30.0" xlink:href="#sprite0"/>
  </g>
  <defs>
    <g id="shape0" transform="matrix(1.0, 0.0, 0.0, 1.0, 0.0, 0.0)">
      <path d="M0.0 0.0 L30.0 0.0 30.0 30.0 0.0 30.0 0.0 0.0" fill="#33cc66" fill-opacity="0.0" fill-rule="evenodd" stroke="none"/>
    </g>
    <g id="sprite0" transform="matrix(1.0, 0.0, 0.0, 1.0, 0.0, 0.0)">
      <use ffdec:characterId="2" height="30.0" transform="matrix(1.0, 0.0, 0.0, 1.0, 0.0, 0.0)" width="30.0" xlink:href="#shape1"/>
    </g>
    <g id="shape1" transform="matrix(1.0, 0.0, 0.0, 1.0, 0.0, 0.0)">
      <path d="M26.7 0.0 L27.95 0.15 Q30.0 0.7 30.0 3.3 L30.0 26.7 29.8 28.15 Q29.15 30.0 26.7 30.0 L3.3 30.0 Q0.85 30.0 0.2 28.15 L0.0 26.7 0.0 3.3 Q0.0 0.7 2.05 0.15 L3.3 0.0 26.7 0.0" fill="#949bd0" fill-rule="evenodd" stroke="none"/>
      <path d="M23.9 19.65 Q24.0 17.2 22.95 15.2 L20.2 10.85 19.85 10.4 19.15 9.3 15.6 4.2 15.2 3.7 15.15 3.65 15.15 3.55 15.05 3.5 10.25 10.4 9.95 10.85 Q8.05 13.4 7.1 15.2 6.0 17.2 6.1 19.65 6.15 22.05 8.45 24.05 L8.8 24.35 Q11.25 26.5 14.85 26.5 L14.95 26.5 15.25 26.5 16.65 26.5 Q19.3 26.05 21.4 24.35 23.9 22.2 23.9 19.65 Z" fill="none" stroke="#ffffff" stroke-linecap="round" stroke-linejoin="round" stroke-width="3.5"/>
      <path d="M17.45 6.95 L19.15 9.3 19.85 10.4 20.2 10.85 22.95 15.2 Q24.0 17.2 23.9 19.65 23.9 22.2 21.4 24.35 19.3 26.05 16.65 26.5 L16.6 26.2 Q18.85 25.45 20.5 23.95 L21.4 22.95 21.45 22.9 Q22.6 21.25 22.65 19.35 22.65 16.75 21.05 14.25 L18.7 10.4 17.0 7.25 17.45 6.95 M15.2 4.25 L15.65 5.95 16.3 8.25 16.85 9.95 17.5 11.75 17.7 12.15 17.85 12.55 19.05 16.05 19.4 16.95 19.45 17.3 19.5 17.45 19.55 17.5 19.55 17.55 19.75 18.85 19.4 20.2 19.3 20.2 17.9 21.35 Q16.7 22.3 13.95 22.2 L12.15 21.9 12.25 21.05 Q11.95 18.9 10.75 18.9 10.2 18.9 9.9 19.3 L9.8 18.6 Q9.75 17.8 9.85 17.35 L9.9 17.35 10.0 16.7 10.3 15.45 10.3 15.6 Q10.7 16.1 11.55 16.1 L11.65 16.1 12.25 15.7 12.7 15.1 13.15 13.9 13.75 11.85 14.4 9.3 14.4 8.65 Q14.3 8.4 14.1 8.5 L14.75 5.95 15.05 4.1 15.15 3.8 15.15 3.7 15.2 3.7 15.15 3.8 15.2 4.15 15.2 4.25" fill="#b870cb" fill-rule="evenodd" stroke="none"/>
      <path d="M17.0 7.25 L18.7 10.4 21.05 14.25 Q22.65 16.75 22.65 19.35 22.6 21.25 21.45 22.9 L21.4 22.95 20.5 23.95 Q18.85 25.45 16.6 26.2 L15.25 26.5 14.95 26.5 14.85 26.5 Q11.25 26.5 8.8 24.35 L8.85 24.15 12.55 24.4 14.3 24.1 Q16.65 23.55 18.1 22.05 L18.6 21.5 18.75 21.3 19.15 20.6 19.35 20.25 19.4 20.2 19.75 18.85 19.55 17.55 19.55 17.5 19.5 17.45 19.45 17.3 19.4 16.95 19.05 16.05 17.85 12.55 17.7 12.15 17.5 11.75 16.85 9.95 16.3 8.25 15.65 5.95 15.2 4.25 15.6 4.2 17.0 7.25" fill="#44255a" fill-rule="evenodd" stroke="none"/>
      <path d="M8.8 24.35 L8.45 24.05 8.85 24.15 8.8 24.35 M15.2 3.7 L15.6 4.2 15.2 4.25 15.2 4.15 15.15 3.8 15.2 3.7" fill="#1b84e9" fill-rule="evenodd" stroke="none"/>
      <path d="M15.0 3.55 L15.05 3.5 15.15 3.55 15.15 3.65 15.0 3.55" fill="#58cefc" fill-rule="evenodd" stroke="none"/>
      <path d="M8.45 24.05 Q6.15 22.05 6.1 19.65 6.0 17.2 7.1 15.2 8.05 13.4 9.95 10.85 L10.25 10.4 15.0 3.55 15.15 3.65 15.2 3.7 15.15 3.7 15.15 3.8 15.05 4.1 14.75 5.95 14.1 8.5 13.6 9.15 12.35 11.05 Q11.55 12.15 10.3 15.0 L10.3 15.45 10.0 16.7 9.9 17.35 9.85 17.35 Q9.75 17.8 9.8 18.6 L9.9 19.3 Q9.6 19.7 9.6 20.55 L9.8 21.6 Q10.2 22.65 11.15 22.65 11.9 22.65 12.15 21.9 L13.95 22.2 Q16.7 22.3 17.9 21.35 L19.3 20.2 19.4 20.2 19.35 20.25 19.15 20.6 18.75 21.3 18.6 21.5 18.1 22.05 Q16.65 23.55 14.3 24.1 L12.55 24.4 8.85 24.15 8.45 24.05" fill="#773289" fill-rule="evenodd" stroke="none"/>
      <path d="M14.1 8.5 Q14.3 8.4 14.4 8.65 L14.4 9.3 13.75 11.85 13.15 13.9 12.7 15.1 12.25 15.7 11.65 16.1 11.55 16.1 Q10.7 16.1 10.3 15.6 L10.3 15.45 10.3 15.0 Q11.55 12.15 12.35 11.05 L13.6 9.15 14.1 8.5 M9.9 19.3 Q10.2 18.9 10.75 18.9 11.95 18.9 12.25 21.05 L12.15 21.9 Q11.9 22.65 11.15 22.65 10.2 22.65 9.8 21.6 L9.6 20.55 Q9.6 19.7 9.9 19.3" fill="#ffffff" fill-rule="evenodd" stroke="none"/>
      <path d="M17.45 6.95 L17.0 7.25 15.6 4.2 17.45 6.95 M16.6 26.2 L16.65 26.5 15.25 26.5 16.6 26.2" fill="#66ffff" fill-rule="evenodd" stroke="none"/>
      <path d="M16.65 26.5 Q19.3 26.05 21.4 24.35 23.9 22.2 23.9 19.65 24.0 17.2 22.95 15.2 L20.2 10.85 19.85 10.4 19.15 9.3 17.45 6.95 15.6 4.2 15.2 3.7 15.15 3.65 15.15 3.55 15.05 3.5 15.0 3.55 10.25 10.4 9.95 10.85 Q8.05 13.4 7.1 15.2 6.0 17.2 6.1 19.65 6.15 22.05 8.45 24.05 L8.8 24.35 Q11.25 26.5 14.85 26.5 L14.95 26.5 15.25 26.5 16.65 26.5 Z" fill="none" stroke="#540154" stroke-linecap="round" stroke-linejoin="round" stroke-width="1.0"/>
    </g>
  </defs>
</svg>
