<?xml version="1.0" encoding="UTF-8" standalone="no"?>
<svg xmlns:ffdec="https://www.free-decompiler.com/flash" xmlns:xlink="http://www.w3.org/1999/xlink" ffdec:objectType="frame" height="30.1px" width="30.1px" xmlns="http://www.w3.org/2000/svg">
  <g transform="matrix(1.0, 0.0, 0.0, 1.0, 0.0, 0.0)">
    <use ffdec:characterId="1" height="30.0" transform="matrix(1.0, 0.0, 0.0, 1.0, 0.0, 0.0)" width="30.0" xlink:href="#shape0"/>
    <use ffdec:characterId="3" height="30.0" transform="matrix(1.0, 0.0, 0.0, 1.0, 0.1, 0.1)" width="30.0" xlink:href="#sprite0"/>
  </g>
  <defs>
    <g id="shape0" transform="matrix(1.0, 0.0, 0.0, 1.0, 0.0, 0.0)">
      <path d="M0.0 0.0 L30.0 0.0 30.0 30.0 0.0 30.0 0.0 0.0" fill="#33cc66" fill-opacity="0.0" fill-rule="evenodd" stroke="none"/>
    </g>
    <g id="sprite0" transform="matrix(1.0, 0.0, 0.0, 1.0, 0.0, 30.0)">
      <use ffdec:characterId="2" height="30.0" transform="matrix(1.0, 0.0, 0.0, 1.0, 0.0, -30.0)" width="30.0" xlink:href="#shape1"/>
    </g>
    <g id="shape1" transform="matrix(1.0, 0.0, 0.0, 1.0, 0.0, 30.0)">
      <path d="M3.3 -30.0 L26.7 -30.0 Q30.0 -30.0 30.0 -26.7 L30.0 -3.3 Q30.0 0.0 26.7 0.0 L3.3 0.0 Q0.0 0.0 0.0 -3.3 L0.0 -26.7 Q0.0 -30.0 3.3 -30.0" fill="#a56db4" fill-rule="evenodd" stroke="none"/>
      <path d="M3.7 -28.05 L4.15 -28.1 4.95 -28.05 5.25 -28.05 5.6 -28.0 6.0 -27.95 9.05 -27.5 9.05 -27.45 9.0 -27.2 7.15 -27.2 6.55 -27.1 6.35 -27.1 6.3 -27.1 5.45 -26.9 4.6 -26.6 4.5 -26.6 3.7 -26.15 3.5 -26.05 3.45 -26.0 3.2 -25.9 2.6 -25.5 2.4 -25.3 1.95 -24.75 2.25 -24.4 3.55 -22.8 3.35 -22.6 1.95 -23.2 1.9 -23.2 1.7 -24.35 1.5 -25.45 1.5 -26.25 1.6 -26.35 1.9 -26.7 2.8 -27.45 2.9 -27.55 3.7 -28.05 M14.05 -26.15 L14.15 -26.4 14.9 -27.55 16.25 -29.2 17.6 -28.45 17.5 -28.3 Q16.9 -27.65 16.75 -26.0 L16.7 -25.05 16.75 -24.0 14.85 -25.35 13.8 -26.0 13.95 -26.2 14.05 -26.15 M22.2 -22.8 L22.5 -22.65 23.3 -22.9 23.7 -23.05 24.15 -23.1 24.25 -23.05 24.1 -22.8 23.95 -22.65 23.95 -22.6 23.25 -21.35 22.5 -19.9 22.35 -19.9 22.05 -22.75 22.2 -22.8 M26.7 -10.15 L26.7 -10.05 26.65 -10.05 26.7 -10.15 M0.7 -9.5 L0.7 -13.5 1.0 -13.5 1.05 -13.5 1.3 -13.5 1.35 -13.5 2.2 -13.6 2.6 -13.65 2.85 -13.8 3.3 -14.05 Q3.9 -14.4 4.3 -15.2 L4.3 -15.25 Q4.9 -16.3 5.0 -17.55 L5.0 -17.95 4.95 -18.85 4.95 -19.05 4.8 -20.85 4.85 -20.9 Q5.45 -19.7 5.45 -18.7 L5.45 -18.55 5.45 -18.4 Q5.4 -16.3 4.7 -14.95 L4.15 -14.1 3.3 -13.25 3.25 -13.2 2.85 -12.45 Q2.85 -12.2 3.65 -11.5 L4.15 -11.1 5.1 -10.35 5.5 -9.95 5.45 -10.55 5.45 -10.7 5.35 -11.0 5.3 -11.5 5.2 -12.6 5.2 -12.75 5.2 -12.8 5.35 -12.75 6.2 -12.85 6.2 -12.6 6.5 -11.3 6.7 -10.75 7.0 -10.15 7.35 -9.55 Q5.75 -9.5 4.65 -8.45 L4.0 -7.65 2.8 -8.25 0.7 -9.5 M11.05 -20.5 L11.05 -20.25 11.0 -20.15 10.9 -19.0 10.65 -19.05 10.05 -18.9 Q9.3 -18.65 8.45 -18.05 L8.4 -18.0 7.6 -17.25 7.45 -17.1 7.2 -16.75 6.85 -16.2 Q6.25 -15.15 6.15 -13.9 L6.05 -13.9 5.5 -13.8 5.25 -13.85 5.35 -14.45 Q5.6 -16.1 6.35 -17.35 L6.7 -17.95 6.9 -18.2 7.15 -18.5 7.5 -18.85 7.7 -19.15 Q8.7 -20.0 9.75 -20.35 L10.15 -20.5 10.75 -20.55 10.95 -20.55 11.05 -20.5 M12.6 -18.35 L12.65 -18.4 12.65 -19.1 12.65 -19.25 12.65 -20.1 12.65 -20.15 Q13.7 -19.7 14.75 -18.65 L15.6 -17.75 Q16.5 -16.6 16.7 -15.35 L16.8 -14.75 16.85 -14.25 16.8 -14.05 16.8 -13.9 16.75 -13.15 16.55 -11.8 15.3 -12.35 15.1 -12.4 15.2 -12.5 15.25 -14.1 15.0 -15.15 14.4 -16.5 14.05 -17.05 13.6 -17.6 13.35 -17.8 13.35 -17.85 12.6 -18.35 M16.15 -10.75 L16.05 -10.55 14.95 -9.15 14.6 -8.8 14.5 -8.7 14.75 -8.5 14.9 -8.45 15.0 -8.4 17.25 -8.1 18.7 -8.2 19.0 -8.25 Q20.25 -8.65 21.15 -9.45 L21.65 -10.05 21.5 -11.1 21.45 -11.3 21.35 -11.95 21.3 -12.3 21.15 -13.95 21.15 -14.2 Q21.15 -16.15 21.65 -17.35 L22.0 -18.05 22.25 -18.4 22.7 -18.6 23.05 -18.65 Q23.7 -18.65 24.3 -17.5 L24.45 -17.05 24.9 -15.9 24.9 -15.85 24.7 -15.8 24.6 -16.05 24.4 -16.6 24.05 -17.25 23.95 -17.35 23.75 -17.6 23.65 -17.75 23.2 -17.9 23.15 -17.95 23.1 -17.95 Q22.85 -17.95 22.35 -17.15 L21.85 -15.55 21.8 -14.95 Q21.65 -13.65 21.95 -12.4 L22.05 -12.15 Q22.4 -10.8 22.9 -9.95 L23.2 -9.55 23.9 -9.1 24.5 -9.25 24.4 -9.05 Q24.1 -8.1 24.3 -6.95 L23.8 -6.7 22.6 -6.0 22.5 -5.95 21.6 -5.5 21.45 -5.45 20.55 -5.15 19.65 -4.9 19.6 -4.9 19.55 -5.25 15.7 -5.05 11.35 -5.4 11.35 -5.8 Q11.35 -7.2 10.5 -8.15 L10.7 -8.15 12.1 -8.4 12.65 -8.7 Q13.35 -9.05 13.9 -9.7 L13.95 -9.75 14.65 -10.8 14.85 -11.2 15.0 -11.4 Q15.75 -11.0 16.15 -10.75 M24.9 -15.25 L25.1 -15.35 25.45 -14.25 25.65 -13.2 25.8 -11.7 26.05 -10.3 25.6 -10.25 24.95 -9.85 25.2 -10.7 25.25 -11.85 25.2 -12.7 25.05 -14.45 24.95 -14.8 24.9 -15.25" fill="#748555" fill-rule="evenodd" stroke="none"/>
      <path d="M0.7 -27.5 L1.7 -27.85 2.25 -27.95 2.65 -28.0 2.75 -28.0 3.7 -28.05 2.9 -27.55 2.8 -27.45 1.9 -26.7 1.6 -26.35 1.5 -26.25 1.5 -25.45 1.7 -24.35 1.9 -23.2 1.45 -23.25 0.7 -23.15 0.7 -27.5" fill="#e2faa5" fill-rule="evenodd" stroke="none"/>
      <path d="M9.05 -27.5 L9.4 -27.45 10.15 -27.25 12.95 -26.55 13.1 -26.55 13.95 -26.2 13.8 -26.0 14.85 -25.35 16.75 -24.0 16.7 -25.05 16.75 -26.0 Q16.9 -27.65 17.5 -28.3 L17.6 -28.45 18.9 -27.25 19.4 -26.85 19.95 -26.15 Q21.3 -24.65 22.0 -23.2 L22.05 -23.15 22.2 -22.8 22.05 -22.75 22.35 -19.9 22.5 -19.9 23.25 -21.35 23.95 -22.6 23.95 -22.65 24.1 -22.8 24.25 -23.05 24.3 -22.95 24.5 -22.45 24.45 -22.4 24.3 -22.15 24.25 -22.15 24.35 -21.7 24.7 -20.3 24.7 -20.25 24.75 -20.05 25.15 -18.05 25.25 -17.2 25.45 -16.2 25.6 -15.45 25.75 -14.7 25.85 -14.25 25.95 -14.15 26.1 -13.35 26.4 -11.85 26.7 -10.3 26.7 -10.15 26.65 -10.05 26.05 -10.3 25.8 -11.7 25.65 -13.2 25.45 -14.25 25.1 -15.35 24.9 -15.25 24.7 -15.8 24.9 -15.85 24.9 -15.9 24.45 -17.05 24.3 -17.5 Q23.7 -18.65 23.05 -18.65 L22.7 -18.6 22.25 -18.4 22.0 -18.05 21.65 -17.35 Q21.15 -16.15 21.15 -14.2 L21.15 -13.95 21.3 -12.3 21.35 -11.95 21.45 -11.3 21.5 -11.1 21.65 -10.05 21.15 -9.45 Q20.25 -8.65 19.0 -8.25 L18.7 -8.2 17.25 -8.1 15.0 -8.4 14.9 -8.45 14.75 -8.5 14.5 -8.7 14.6 -8.8 14.95 -9.15 16.05 -10.55 16.15 -10.75 16.55 -10.55 16.8 -11.65 Q16.65 -11.7 16.55 -11.8 L16.75 -13.15 16.8 -13.9 16.8 -14.05 16.85 -14.25 16.8 -14.75 16.7 -15.35 Q16.5 -16.6 15.6 -17.75 L14.75 -18.65 Q13.7 -19.7 12.65 -20.15 L12.6 -20.9 12.55 -20.95 12.25 -20.95 12.15 -20.95 11.65 -21.05 11.25 -21.0 11.15 -21.0 11.05 -20.55 11.05 -20.5 10.95 -20.55 10.75 -20.55 10.15 -20.5 9.75 -20.35 Q8.7 -20.0 7.7 -19.15 L7.5 -18.85 7.15 -18.5 6.9 -18.2 6.7 -17.95 6.35 -17.35 Q5.6 -16.1 5.35 -14.45 L5.25 -13.85 5.5 -13.8 5.25 -13.8 4.95 -13.7 4.95 -12.8 5.2 -12.8 5.2 -12.75 5.2 -12.6 5.3 -11.5 5.35 -11.0 5.45 -10.7 5.45 -10.55 5.5 -9.95 5.1 -10.35 4.15 -11.1 3.65 -11.5 Q2.85 -12.2 2.85 -12.45 L3.25 -13.2 3.3 -13.25 4.15 -14.1 4.7 -14.95 Q5.4 -16.3 5.45 -18.4 L5.45 -18.55 5.45 -18.7 Q5.45 -19.7 4.85 -20.9 L4.8 -20.85 3.35 -22.6 3.55 -22.8 2.25 -24.4 1.95 -24.75 2.4 -25.3 2.6 -25.5 3.2 -25.9 3.45 -26.0 3.5 -26.05 3.7 -26.15 4.5 -26.6 4.6 -26.6 5.45 -26.9 6.3 -27.1 6.35 -27.1 6.55 -27.1 7.15 -27.2 9.0 -27.2 9.05 -27.45 9.05 -27.5 M5.6 -25.4 Q5.25 -25.2 5.25 -24.85 5.25 -24.5 5.6 -24.1 5.9 -23.8 6.2 -23.8 L6.4 -23.8 8.4 -24.05 8.5 -24.1 8.55 -24.1 9.5 -24.25 10.25 -24.4 10.6 -24.45 12.4 -24.65 11.3 -25.2 10.55 -25.4 9.15 -25.7 7.7 -25.85 7.4 -25.85 7.35 -25.85 6.75 -25.8 Q5.95 -25.7 5.6 -25.4 M19.7 -23.4 L19.75 -23.45 19.6 -23.55 19.3 -23.75 18.45 -24.2 17.85 -24.1 17.5 -23.95 16.75 -23.3 Q16.25 -22.7 16.15 -21.8 L16.1 -21.25 Q16.1 -20.1 16.7 -19.0 L17.05 -18.5 Q17.8 -17.55 19.0 -17.5 L19.15 -17.5 19.25 -17.5 Q20.1 -17.5 20.45 -17.85 L20.9 -18.7 21.0 -19.85 20.95 -20.8 20.9 -21.05 20.4 -22.4 20.25 -22.65 19.7 -23.4 M24.15 -20.7 L23.15 -19.7 23.85 -19.05 24.45 -18.2 24.45 -18.6 24.4 -19.55 24.15 -20.7" fill="#a5ba7f" fill-rule="evenodd" stroke="none"/>
      <path d="M0.7 -8.8 L0.7 -9.5 2.8 -8.25 4.0 -7.65 3.7 -7.05 Q2.8 -7.5 2.05 -8.0 L1.5 -8.35 1.45 -8.4 1.1 -8.5 0.7 -8.8 M5.6 -25.4 Q5.95 -25.7 6.75 -25.8 L7.35 -25.85 7.4 -25.85 7.7 -25.85 9.15 -25.7 10.55 -25.4 11.3 -25.2 12.4 -24.65 10.6 -24.45 10.25 -24.4 9.5 -24.25 8.55 -24.1 8.5 -24.1 8.4 -24.05 6.4 -23.8 6.2 -23.8 Q5.9 -23.8 5.6 -24.1 5.25 -24.5 5.25 -24.85 5.25 -25.2 5.6 -25.4 M19.7 -23.4 L20.25 -22.65 20.4 -22.4 20.9 -21.05 20.95 -20.8 21.0 -19.85 20.9 -18.7 20.45 -17.85 Q20.1 -17.5 19.25 -17.5 L19.15 -17.5 19.0 -17.5 Q17.8 -17.55 17.05 -18.5 L16.7 -19.0 Q16.1 -20.1 16.1 -21.25 L16.15 -21.8 Q16.25 -22.7 16.75 -23.3 L17.5 -23.95 17.85 -24.1 18.45 -24.2 19.3 -23.75 19.6 -23.55 19.75 -23.45 19.7 -23.4 M11.25 -4.85 L11.35 -5.4 15.7 -5.05 19.55 -5.25 19.6 -4.9 18.05 -4.75 14.85 -4.6 14.3 -4.65 12.9 -4.7 11.25 -4.85 M24.15 -20.7 L24.4 -19.55 24.45 -18.6 24.45 -18.2 23.85 -19.05 23.15 -19.7 24.15 -20.7" fill="#c4dd95" fill-rule="evenodd" stroke="none"/>
      <path d="M11.05 -20.5 L11.05 -20.55 11.15 -21.0 11.25 -21.0 11.65 -21.05 12.15 -20.95 12.25 -20.95 12.55 -20.95 12.6 -20.9 12.65 -20.15 12.65 -20.1 12.65 -19.25 12.65 -19.1 12.65 -18.4 12.6 -18.35 12.55 -18.0 12.55 -17.9 12.4 -17.65 12.3 -17.6 12.05 -17.55 11.95 -17.55 11.35 -17.6 11.05 -17.7 Q10.95 -17.7 10.95 -17.75 L10.9 -18.0 10.9 -18.7 10.9 -18.9 10.9 -19.0 11.0 -20.15 11.05 -20.25 11.05 -20.5 M16.55 -11.8 Q16.65 -11.7 16.8 -11.65 L16.55 -10.55 16.15 -10.75 Q15.75 -11.0 15.0 -11.4 L14.85 -11.2 14.65 -10.8 13.95 -9.75 13.9 -9.7 Q13.35 -9.05 12.65 -8.7 L12.1 -8.4 10.7 -8.15 10.5 -8.15 10.2 -8.45 9.85 -8.75 10.65 -8.75 Q12.1 -8.75 13.4 -9.95 L14.4 -11.35 14.5 -11.7 14.45 -11.7 14.3 -11.8 14.4 -12.05 14.5 -12.35 14.7 -12.6 14.75 -12.55 14.8 -13.25 14.75 -14.1 14.5 -15.05 14.4 -15.2 13.95 -16.15 13.45 -16.85 13.75 -16.9 13.95 -17.0 14.05 -17.05 14.4 -16.5 15.0 -15.15 15.25 -14.1 15.2 -12.5 15.1 -12.4 15.3 -12.35 16.55 -11.8 M5.5 -13.8 L6.05 -13.9 6.15 -13.9 6.15 -13.8 6.2 -12.85 5.35 -12.75 5.2 -12.8 4.95 -12.8 4.95 -13.7 5.25 -13.8 5.5 -13.8 M7.1 -11.7 L7.35 -10.65 7.9 -9.7 7.9 -9.65 8.0 -9.5 7.4 -9.55 7.35 -9.55 7.5 -9.8 7.6 -9.8 7.9 -9.65 7.6 -9.8 7.5 -9.8 7.35 -9.55 7.0 -10.15 6.7 -10.75 6.8 -10.85 7.1 -11.7 M15.1 -12.4 L14.75 -12.55 15.1 -12.4 M15.0 -11.4 L14.85 -11.45 14.8 -11.5 14.5 -11.7 14.8 -11.5 14.85 -11.45 15.0 -11.4 M24.5 -9.25 L23.9 -9.1 23.2 -9.55 22.9 -9.95 Q22.4 -10.8 22.05 -12.15 L21.95 -12.4 Q21.65 -13.65 21.8 -14.95 L21.85 -15.55 22.05 -15.7 22.35 -15.8 22.75 -15.65 22.55 -15.25 22.4 -14.3 22.45 -13.55 22.7 -11.8 Q23.15 -9.85 23.8 -9.85 24.25 -9.85 24.55 -10.5 24.9 -11.1 24.9 -12.05 L24.6 -13.7 25.2 -12.7 25.25 -11.85 25.2 -10.7 24.95 -9.85 24.5 -9.25" fill="#3f3b3c" fill-rule="evenodd" stroke="none"/>
      <path d="M28.4 -2.0 L28.2 -1.9 28.35 -2.1 28.4 -2.0 M10.9 -19.0 L10.9 -18.9 10.9 -18.7 10.9 -18.0 10.45 -18.2 Q9.7 -18.2 9.2 -17.8 8.6 -17.25 8.6 -16.35 L8.65 -15.95 8.75 -15.45 Q9.05 -14.9 9.95 -14.9 L10.0 -14.9 10.1 -14.9 9.9 -14.75 9.35 -14.2 9.15 -14.05 8.7 -13.6 8.25 -13.15 7.75 -12.55 7.1 -11.7 6.8 -10.85 6.7 -10.75 6.5 -11.3 6.2 -12.6 6.2 -12.85 6.15 -13.8 6.15 -13.9 Q6.25 -15.15 6.85 -16.2 L7.2 -16.75 7.45 -17.1 7.6 -17.25 8.4 -18.0 8.45 -18.05 Q9.3 -18.65 10.05 -18.9 L10.65 -19.05 10.9 -19.0 M10.4 -13.0 L10.4 -13.1 10.6 -13.35 10.7 -13.4 10.8 -13.45 10.95 -13.55 11.1 -13.4 11.0 -13.35 10.85 -13.45 10.8 -13.45 10.85 -13.45 11.0 -13.35 10.6 -13.2 10.55 -13.15 10.4 -13.0 M10.7 -13.4 L10.55 -13.15 10.7 -13.4 M21.85 -15.55 L22.35 -17.15 Q22.85 -17.95 23.1 -17.95 L23.15 -17.95 23.2 -17.9 23.65 -17.75 23.75 -17.6 23.6 -17.55 23.1 -17.0 22.85 -16.3 22.95 -15.85 23.05 -15.5 23.0 -15.55 22.75 -15.65 22.35 -15.8 22.05 -15.7 21.85 -15.55 M28.65 -2.9 L28.4 -2.25 27.85 -2.65 28.1 -2.75 28.65 -2.9" fill="#bdbdad" fill-rule="evenodd" stroke="none"/>
      <path d="M10.9 -18.0 L10.95 -17.75 Q10.95 -17.7 11.05 -17.7 L11.35 -17.6 11.95 -17.55 12.05 -17.55 12.3 -17.6 12.4 -17.65 12.55 -17.9 12.55 -18.0 12.6 -18.35 13.35 -17.85 13.35 -17.8 13.6 -17.6 14.05 -17.05 13.95 -17.0 13.75 -16.9 13.45 -16.85 12.75 -16.6 12.6 -16.5 11.9 -16.15 10.75 -15.35 10.3 -15.0 10.25 -15.0 10.1 -14.9 10.0 -14.9 9.95 -14.9 Q9.05 -14.9 8.75 -15.45 L8.65 -15.95 8.6 -16.35 Q8.6 -17.25 9.2 -17.8 9.7 -18.2 10.45 -18.2 L10.9 -18.0 M24.7 -15.8 L24.9 -15.25 24.95 -14.8 25.05 -14.45 25.2 -12.7 24.6 -13.7 23.45 -15.2 23.05 -15.5 22.95 -15.85 22.85 -16.3 23.1 -17.0 23.6 -17.55 23.75 -17.6 23.95 -17.35 24.05 -17.25 24.4 -16.6 24.6 -16.05 24.7 -15.8 M11.1 -13.4 L11.15 -13.35 11.15 -13.15 11.0 -12.65 10.75 -12.55 10.5 -12.75 10.4 -13.0 10.55 -13.15 10.6 -13.2 11.0 -13.35 11.1 -12.95 10.95 -12.75 10.85 -12.65 Q10.55 -12.65 10.55 -13.1 L10.55 -13.15 10.55 -13.1 Q10.55 -12.65 10.85 -12.65 L10.95 -12.75 11.1 -12.95 11.0 -13.35 11.1 -13.4 M28.85 -4.1 L28.7 -3.05 28.65 -2.9 28.1 -2.75 27.85 -2.65 27.75 -2.75 27.7 -2.8 27.6 -2.85 27.2 -3.25 27.45 -4.1 28.85 -4.1" fill="#ddddcd" fill-rule="evenodd" stroke="none"/>
      <path d="M10.1 -14.9 L10.25 -15.0 10.3 -15.0 10.75 -15.35 11.9 -16.15 12.6 -16.5 12.75 -16.6 13.45 -16.85 13.95 -16.15 14.4 -15.2 14.5 -15.05 14.75 -14.1 14.8 -13.25 14.75 -12.55 14.7 -12.6 14.5 -12.35 14.4 -12.05 14.3 -11.8 14.45 -11.7 14.5 -11.7 14.4 -11.35 13.4 -9.95 Q12.1 -8.75 10.65 -8.75 L9.85 -8.75 8.0 -9.5 7.9 -9.65 7.9 -9.7 7.35 -10.65 7.1 -11.7 7.75 -12.55 8.25 -13.15 8.7 -13.6 9.15 -14.05 9.35 -14.2 9.9 -14.75 10.1 -14.9 M11.1 -13.4 L10.95 -13.55 10.8 -13.45 10.7 -13.4 10.6 -13.35 10.4 -13.1 10.4 -13.0 10.5 -12.75 10.75 -12.55 11.0 -12.65 11.15 -13.15 11.15 -13.35 11.1 -13.4 M23.05 -15.5 L23.45 -15.2 24.6 -13.7 24.9 -12.05 Q24.9 -11.1 24.55 -10.5 24.25 -9.85 23.8 -9.85 23.15 -9.85 22.7 -11.8 L22.45 -13.55 22.4 -14.3 22.55 -15.25 22.75 -15.65 23.0 -15.55 23.05 -15.5 M23.8 -13.15 L23.7 -13.45 23.6 -13.45 23.4 -13.25 23.65 -12.8 23.7 -12.75 23.8 -12.75 23.8 -13.15" fill="#ffffe6" fill-rule="evenodd" stroke="none"/>
      <path d="M24.45 -22.4 L24.6 -22.3 25.75 -21.6 26.25 -21.35 Q26.4 -21.2 26.6 -21.15 L27.85 -20.3 28.75 -19.7 29.35 -18.8 29.35 -18.05 27.3 -19.2 26.3 -19.6 25.35 -20.0 24.7 -20.25 24.7 -20.3 24.35 -21.7 24.25 -22.15 24.3 -22.15 24.45 -22.4 M0.7 -20.35 L0.7 -21.2 0.8 -21.35 0.8 -21.45 0.7 -21.4 0.7 -23.15 1.45 -23.25 1.9 -23.2 1.95 -23.2 3.35 -22.6 4.8 -20.85 4.95 -19.05 4.15 -20.3 2.65 -21.45 1.85 -21.45 1.85 -20.7 1.2 -20.6 0.7 -20.35" fill="#80ffff" fill-rule="evenodd" stroke="none"/>
      <path d="M29.35 -18.05 L29.35 -16.85 26.75 -16.25 26.5 -16.4 25.65 -17.25 26.25 -17.8 26.4 -17.95 26.95 -18.65 26.4 -18.65 25.75 -18.55 25.5 -19.55 25.35 -20.0 26.3 -19.6 27.3 -19.2 29.35 -18.05 M0.7 -15.3 L0.7 -20.35 1.2 -20.6 1.85 -20.7 1.85 -21.45 2.65 -21.45 4.15 -20.3 4.95 -19.05 4.95 -18.85 5.0 -17.95 5.0 -17.55 Q4.5 -16.7 3.8 -16.25 L3.15 -15.8 1.8 -15.4 1.7 -15.4 0.8 -15.3 0.7 -15.3 M0.7 -21.2 L0.7 -21.4 0.8 -21.45 0.8 -21.35 0.7 -21.2" fill="#1ba7be" fill-rule="evenodd" stroke="none"/>
      <path d="M29.35 -16.85 L29.35 -15.3 27.85 -14.3 27.4 -14.05 26.8 -13.65 26.65 -13.55 26.6 -13.5 26.55 -13.5 26.55 -13.45 26.1 -13.35 25.95 -14.15 25.85 -14.25 25.75 -14.7 25.6 -15.45 25.45 -16.2 25.25 -17.2 25.15 -18.05 24.75 -20.05 24.7 -20.25 25.35 -20.0 25.5 -19.55 25.75 -18.55 26.4 -18.65 26.95 -18.65 26.4 -17.95 26.25 -17.8 25.65 -17.25 26.5 -16.4 26.75 -16.25 29.35 -16.85 M0.7 -13.5 L0.7 -15.3 0.8 -15.3 1.7 -15.4 1.8 -15.4 3.15 -15.8 3.8 -16.25 Q4.5 -16.7 5.0 -17.55 4.9 -16.3 4.3 -15.25 L4.3 -15.2 Q3.9 -14.4 3.3 -14.05 L2.85 -13.8 2.6 -13.65 2.2 -13.6 1.35 -13.5 1.3 -13.5 1.05 -13.5 1.0 -13.5 0.7 -13.5" fill="#168799" fill-rule="evenodd" stroke="none"/>
      <path d="M26.7 -10.05 L27.2 -9.75 Q28.0 -9.05 28.3 -7.8 L28.45 -6.8 28.35 -6.1 28.2 -5.55 27.55 -4.55 27.05 -4.35 Q26.2 -4.1 25.45 -4.85 24.6 -5.55 24.35 -6.75 L24.3 -6.95 Q24.1 -8.1 24.4 -9.05 L24.5 -9.25 24.95 -9.85 25.6 -10.25 26.05 -10.3 26.65 -10.05 26.7 -10.05 M8.0 -9.5 L9.85 -8.75 10.2 -8.45 10.5 -8.15 Q11.35 -7.2 11.35 -5.8 L11.35 -5.4 11.25 -4.85 Q11.0 -3.85 10.2 -3.15 9.05 -2.05 7.4 -2.05 L6.7 -2.05 Q5.5 -2.3 4.65 -3.15 L4.3 -3.5 Q3.5 -4.5 3.5 -5.8 L3.7 -7.05 4.0 -7.65 4.65 -8.45 Q5.75 -9.5 7.35 -9.55 L7.4 -9.55 8.0 -9.5 M8.55 -7.7 L8.6 -7.8 8.6 -8.05 Q8.6 -8.55 7.95 -8.65 L7.75 -8.65 Q7.3 -8.65 7.3 -8.25 L7.35 -8.0 6.75 -7.9 Q6.25 -7.8 5.85 -7.4 L5.75 -7.25 5.75 -7.45 Q5.25 -7.65 4.85 -7.45 L4.7 -7.35 4.5 -6.9 4.55 -6.65 Q4.65 -6.3 5.05 -6.3 L5.25 -6.35 5.2 -5.8 5.4 -4.85 5.85 -4.25 Q6.4 -3.7 7.1 -3.6 L7.4 -3.55 Q8.35 -3.55 9.0 -4.25 L9.55 -5.15 9.6 -5.5 9.9 -5.7 10.05 -6.0 10.05 -6.45 Q10.05 -7.35 9.3 -7.5 L8.9 -7.5 8.55 -7.7 M27.45 -7.35 L27.6 -7.8 27.5 -8.15 Q27.35 -8.85 26.9 -8.85 L26.8 -8.85 26.75 -8.8 26.5 -8.95 26.55 -9.05 26.5 -9.2 26.05 -9.55 Q25.7 -9.55 25.8 -9.25 L25.85 -9.05 25.25 -8.3 25.2 -8.2 25.15 -8.35 24.7 -8.2 24.6 -7.85 Q24.7 -7.45 24.9 -7.4 L25.0 -7.4 25.1 -7.5 25.2 -6.95 Q25.35 -6.25 25.85 -5.85 26.25 -5.4 26.75 -5.5 L27.15 -5.8 27.4 -6.25 27.45 -7.3 27.45 -7.35" fill="#ffbcc2" fill-rule="evenodd" stroke="none"/>
      <path d="M8.55 -7.7 Q8.45 -7.5 8.05 -7.5 7.55 -7.5 7.35 -7.9 L7.35 -8.0 7.3 -8.25 Q7.3 -8.65 7.75 -8.65 L7.95 -8.65 Q8.6 -8.55 8.6 -8.05 L8.6 -7.8 8.55 -7.7 M5.75 -7.25 L5.75 -7.05 5.7 -6.9 5.7 -6.7 5.3 -6.35 5.25 -6.35 5.05 -6.3 Q4.65 -6.3 4.55 -6.65 L4.5 -6.9 4.7 -7.35 4.85 -7.45 Q5.25 -7.65 5.75 -7.45 L5.75 -7.25 M9.6 -5.5 L9.4 -5.5 Q9.05 -5.5 8.85 -5.95 L8.75 -6.1 Q8.6 -6.5 8.6 -6.8 8.6 -7.35 8.9 -7.5 L9.3 -7.5 Q10.05 -7.35 10.05 -6.45 L10.05 -6.0 9.9 -5.7 9.6 -5.5 M27.45 -7.35 L27.35 -7.35 26.9 -7.7 26.7 -8.2 26.7 -8.7 26.75 -8.8 26.8 -8.85 26.9 -8.85 Q27.35 -8.85 27.5 -8.15 L27.6 -7.8 27.45 -7.35 M26.5 -8.95 L26.3 -8.75 Q26.0 -8.65 25.85 -9.05 L25.8 -9.25 Q25.7 -9.55 26.05 -9.55 L26.5 -9.2 26.55 -9.05 26.5 -8.95 M25.2 -8.2 L25.2 -8.1 25.3 -7.8 25.2 -7.6 25.1 -7.5 25.0 -7.4 24.9 -7.4 Q24.7 -7.45 24.6 -7.85 L24.7 -8.2 25.15 -8.35 25.2 -8.2" fill="#ffd2d6" fill-rule="evenodd" stroke="none"/>
      <path d="M7.35 -8.0 L7.35 -7.9 Q7.55 -7.5 8.05 -7.5 8.45 -7.5 8.55 -7.7 L8.9 -7.5 Q8.6 -7.35 8.6 -6.8 8.6 -6.5 8.75 -6.1 L8.85 -5.95 Q9.05 -5.5 9.4 -5.5 L9.6 -5.5 9.55 -5.15 9.0 -4.25 Q8.35 -3.55 7.4 -3.55 L7.1 -3.6 Q6.4 -3.7 5.85 -4.25 L5.4 -4.85 5.2 -5.8 5.25 -6.35 5.3 -6.35 5.7 -6.7 5.7 -6.9 5.75 -7.05 5.75 -7.25 5.85 -7.4 Q6.25 -7.8 6.75 -7.9 L7.35 -8.0 M26.75 -8.8 L26.7 -8.7 26.7 -8.2 26.9 -7.7 27.35 -7.35 27.45 -7.35 27.45 -7.3 27.4 -6.25 27.15 -5.8 26.75 -5.5 Q26.25 -5.4 25.85 -5.85 25.35 -6.25 25.2 -6.95 L25.1 -7.5 25.2 -7.6 25.3 -7.8 25.2 -8.1 25.2 -8.2 25.25 -8.3 25.85 -9.05 Q26.0 -8.65 26.3 -8.75 L26.5 -8.95 26.75 -8.8" fill="#f59ba3" fill-rule="evenodd" stroke="none"/>
      <path d="M28.45 -6.8 L29.35 -6.3 29.35 -4.15 28.85 -4.1 28.8 -4.5 28.45 -5.85 28.35 -6.1 28.45 -6.8 M27.45 -0.8 L27.5 -0.75 25.5 -0.75 24.55 -1.5 21.15 -3.9 21.15 -3.95 21.05 -3.95 20.9 -3.9 Q18.7 -3.0 16.55 -1.5 L15.65 -0.9 15.6 -0.85 15.45 -0.75 6.65 -0.75 6.65 -1.45 6.65 -1.95 6.7 -2.05 7.4 -2.05 Q9.05 -2.05 10.2 -3.15 11.0 -3.85 11.25 -4.85 L12.9 -4.7 14.3 -4.65 14.85 -4.6 18.05 -4.75 19.6 -4.9 19.65 -4.9 20.55 -5.15 21.45 -5.45 21.6 -5.5 22.5 -5.95 22.6 -6.0 23.8 -6.7 24.3 -6.95 24.35 -6.75 Q24.6 -5.55 25.45 -4.85 26.2 -4.1 27.05 -4.35 L27.55 -4.55 27.5 -4.45 27.45 -4.1 27.2 -3.25 27.6 -2.85 26.9 -2.45 26.6 -2.35 27.45 -0.8 M0.7 -2.5 L0.7 -8.8 1.1 -8.5 1.45 -8.4 1.5 -8.35 2.05 -8.0 Q2.8 -7.5 3.7 -7.05 L3.5 -5.8 Q3.5 -4.5 4.3 -3.5 L3.25 -2.3 3.05 -2.1 3.0 -2.0 2.95 -2.0 2.75 -2.0 2.5 -2.05 2.3 -2.05 2.05 -2.1 1.75 -2.2 1.55 -2.25 0.7 -2.5 M1.95 -5.1 L1.6 -5.3 1.35 -5.4 1.15 -5.35 0.8 -5.2 0.9 -4.8 1.0 -4.15 1.05 -4.15 1.55 -4.05 1.9 -4.05 2.35 -4.1 2.25 -4.95 1.95 -5.1 M26.6 -2.35 L26.1 -3.05 26.6 -2.35 M25.05 -4.65 L26.0 -3.25 26.1 -3.05 26.55 -3.8 25.05 -4.65 23.8 -6.7 25.05 -4.65" fill="#3d383c" fill-rule="evenodd" stroke="none"/>
      <path d="M29.35 -4.15 L29.35 -2.6 29.25 -2.5 29.0 -2.4 28.4 -2.0 28.35 -2.1 28.2 -1.9 27.45 -0.8 26.6 -2.35 26.9 -2.45 27.6 -2.85 27.7 -2.8 27.75 -2.75 27.85 -2.65 28.4 -2.25 28.65 -2.9 28.7 -3.05 28.85 -4.1 29.35 -4.15 M6.65 -0.75 L6.1 -0.75 0.7 -0.75 0.7 -2.5 1.55 -2.25 1.75 -2.2 2.05 -2.1 2.3 -2.05 2.5 -2.05 2.75 -2.0 2.95 -2.0 3.0 -2.0 3.05 -2.1 3.25 -2.3 4.3 -3.5 4.65 -3.15 Q5.5 -2.3 6.7 -2.05 L6.65 -1.95 6.65 -1.45 6.65 -0.75 M6.1 -0.75 L6.65 -1.95 6.1 -0.75 M26.1 -3.05 L26.0 -3.25 25.05 -4.65 26.55 -3.8 26.1 -3.05" fill="#31292f" fill-rule="evenodd" stroke="none"/>
      <path d="M1.95 -5.1 L2.25 -4.95 2.35 -4.1 1.9 -4.05 1.55 -4.05 1.05 -4.15 1.0 -4.15 0.9 -4.8 0.8 -5.2 1.15 -5.35 1.35 -5.4 1.6 -5.3 1.95 -5.1" fill="#5c5355" fill-rule="evenodd" stroke="none"/>
      <path d="M25.5 -0.75 L15.45 -0.75 15.6 -0.85 15.65 -0.9 16.55 -1.5 Q18.7 -3.0 20.9 -3.9 L21.05 -3.95 21.15 -3.95 21.15 -3.9 24.55 -1.5 25.5 -0.75 M27.55 -4.55 L28.2 -5.55 28.35 -6.1 28.45 -5.85 28.8 -4.5 28.85 -4.1 27.45 -4.1 27.5 -4.45 27.55 -4.55" fill="#fffffa" fill-rule="evenodd" stroke="none"/>
      <path d="M0.7 -27.5 L1.7 -27.85 2.25 -27.95 2.65 -28.0 2.75 -28.0 3.7 -28.05 4.15 -28.1 4.95 -28.05 5.25 -28.05 5.6 -28.0 6.0 -27.95 9.05 -27.5 9.4 -27.45 10.15 -27.25 12.95 -26.55 13.1 -26.55 13.95 -26.2 14.0 -26.25 14.05 -26.15 14.15 -26.4 14.9 -27.55 16.25 -29.2 17.6 -28.45 18.9 -27.25 19.4 -26.85 19.95 -26.15 Q21.3 -24.65 22.0 -23.2 M22.05 -23.15 L22.2 -22.8 M22.5 -22.65 L23.3 -22.9 23.7 -23.05 24.15 -23.1 24.25 -23.05 24.3 -22.95 24.5 -22.45 M24.6 -22.3 L25.75 -21.6 26.25 -21.35 Q26.4 -21.2 26.6 -21.15 L27.85 -20.3 28.75 -19.7 29.35 -18.8 M29.35 -15.3 L27.85 -14.3 27.4 -14.05 26.8 -13.65 26.65 -13.55 26.6 -13.5 26.55 -13.5 26.55 -13.45 M26.1 -13.35 L26.4 -11.85 26.7 -10.3 M26.7 -10.15 L26.7 -10.05 M28.45 -6.8 L29.35 -6.3 M29.35 -2.6 L29.25 -2.5 29.0 -2.4 28.4 -2.0 28.2 -1.9 27.45 -0.8 26.6 -2.35 26.1 -3.05 26.0 -3.25 25.05 -4.65 23.8 -6.7 24.3 -6.95 M14.05 -26.15 L13.95 -26.2 M12.65 -20.15 L12.6 -20.9 12.55 -20.95 12.25 -20.95 12.15 -20.95 11.65 -21.05 11.25 -21.0 11.15 -21.0 11.05 -20.55 11.05 -20.5 11.05 -20.25 11.0 -20.15 10.9 -19.0 10.9 -18.9 10.9 -18.7 10.9 -18.0 10.95 -17.75 Q10.95 -17.7 11.05 -17.7 L11.35 -17.6 11.95 -17.55 12.05 -17.55 12.3 -17.6 12.4 -17.65 12.55 -17.9 12.55 -18.0 12.6 -18.35 12.65 -18.4 12.65 -19.1 12.65 -19.25 12.65 -20.1 12.65 -20.15 M16.55 -11.8 Q16.65 -11.7 16.8 -11.65 L16.55 -10.55 16.15 -10.75 Q15.75 -11.0 15.0 -11.4 L14.85 -11.45 14.8 -11.5 14.5 -11.7 14.45 -11.7 14.3 -11.8 14.4 -12.05 14.5 -12.35 14.7 -12.6 14.75 -12.55 15.1 -12.4 15.3 -12.35 16.55 -11.8 M24.7 -15.8 L24.9 -15.25 24.95 -14.8 25.05 -14.45 25.2 -12.7 25.25 -11.85 25.2 -10.7 24.95 -9.85 M5.5 -13.8 L6.05 -13.9 6.15 -13.9 Q6.25 -15.15 6.85 -16.2 L7.2 -16.75 7.45 -17.1 7.6 -17.25 8.4 -18.0 8.45 -18.05 Q9.3 -18.65 10.05 -18.9 L10.65 -19.05 M14.05 -17.05 L13.6 -17.6 13.35 -17.8 13.35 -17.85 12.6 -18.35 M10.1 -14.9 L10.25 -15.0 10.3 -15.0 10.75 -15.35 11.9 -16.15 12.6 -16.5 12.75 -16.6 13.45 -16.85 13.75 -16.9 13.95 -17.0 M14.05 -17.05 L14.4 -16.5 15.0 -15.15 15.25 -14.1 15.2 -12.5 M10.1 -14.9 L9.9 -14.75 9.35 -14.2 9.15 -14.05 8.7 -13.6 8.25 -13.15 7.75 -12.55 7.1 -11.7 6.8 -10.85 M7.9 -9.65 L8.0 -9.5 M10.4 -13.0 L10.4 -13.1 10.6 -13.35 10.7 -13.4 10.8 -13.45 10.95 -13.55 11.1 -13.4 11.15 -13.35 11.15 -13.15 11.0 -12.65 10.75 -12.55 10.5 -12.75 10.4 -13.0 M10.55 -13.15 L10.7 -13.4 M11.0 -13.35 L10.85 -13.45 10.8 -13.45 M10.55 -13.15 L10.55 -13.1 Q10.55 -12.65 10.85 -12.65 L10.95 -12.75 11.1 -12.95 11.0 -13.35 M3.35 -22.6 L1.95 -23.2 1.9 -23.2 1.45 -23.25 0.7 -23.15 M4.95 -19.05 L4.8 -20.85 3.35 -22.6 M4.95 -18.85 L5.0 -17.95 5.0 -17.55 Q4.9 -16.3 4.3 -15.25 L4.3 -15.2 Q3.9 -14.4 3.3 -14.05 M2.6 -13.65 L2.2 -13.6 1.35 -13.5 1.3 -13.5 1.05 -13.5 1.0 -13.5 0.7 -13.5 M5.5 -13.8 L5.25 -13.8 4.95 -13.7 4.95 -12.8 5.2 -12.8 5.35 -12.75 6.2 -12.85 6.15 -13.8 6.15 -13.9 M6.2 -12.85 L6.2 -12.6 6.5 -11.3 6.7 -10.75 7.0 -10.15 7.35 -9.55 7.5 -9.8 7.6 -9.8 7.9 -9.65 M3.7 -7.05 Q2.8 -7.5 2.05 -8.0 L1.5 -8.35 1.45 -8.4 1.1 -8.5 M6.65 -1.95 L6.1 -0.75 M6.65 -1.95 L6.7 -2.05 M14.85 -11.2 L14.65 -10.8 13.95 -9.75 13.9 -9.7 Q13.35 -9.05 12.65 -8.7 L12.1 -8.4 10.7 -8.15 10.5 -8.15 M19.6 -4.9 L18.05 -4.75 14.85 -4.6 14.3 -4.65 12.9 -4.7 11.25 -4.85 M19.6 -4.9 L19.65 -4.9 20.55 -5.15 21.45 -5.45 21.6 -5.5 22.5 -5.95 22.6 -6.0 23.8 -6.7 M24.5 -9.25 L23.9 -9.1 23.2 -9.55 22.9 -9.95 Q22.4 -10.8 22.05 -12.15 L21.95 -12.4 Q21.65 -13.65 21.8 -14.95 L21.85 -15.55 22.35 -17.15 Q22.85 -17.95 23.1 -17.95 L23.15 -17.95 23.2 -17.9 23.65 -17.75 23.75 -17.6 23.95 -17.35 24.05 -17.25 24.4 -16.6 24.6 -16.05 24.7 -15.8 M25.5 -0.75 L24.55 -1.5 21.15 -3.9 21.15 -3.95 21.05 -3.95 20.9 -3.9 Q18.7 -3.0 16.55 -1.5 L15.65 -0.9 15.6 -0.85 15.45 -0.75 M24.7 -20.25 L24.75 -20.05 25.15 -18.05 25.25 -17.2 25.45 -16.2 25.6 -15.45 25.75 -14.7 25.85 -14.25 25.95 -14.15 26.1 -13.35 M24.25 -22.15 L24.35 -21.7 24.7 -20.3 24.7 -20.25 M23.05 -15.5 L23.45 -15.2 24.6 -13.7 25.2 -12.7 M23.05 -15.5 L23.0 -15.55 22.75 -15.65 22.35 -15.8 22.05 -15.7 21.85 -15.55 M23.55 -13.15 L23.7 -13.0 23.7 -13.1 23.6 -13.3 23.55 -13.15 23.5 -13.15 23.6 -12.9 23.65 -12.8 23.75 -12.85 23.7 -13.0 M23.8 -13.15 L23.8 -12.75 23.7 -12.75 23.65 -12.8 23.4 -13.25 23.6 -13.45 23.7 -13.45 23.8 -13.15 M28.85 -4.1 L28.8 -4.5 28.45 -5.85 28.35 -6.1 M28.85 -4.1 L28.7 -3.05 28.65 -2.9 28.4 -2.25 27.85 -2.65 27.75 -2.75 27.7 -2.8 M27.45 -4.1 L27.5 -4.45 27.55 -4.55 M27.6 -2.85 L27.2 -3.25 27.45 -4.1 M28.35 -2.1 L28.2 -1.9" fill="none" stroke="#382429" stroke-linecap="round" stroke-linejoin="round" stroke-width="1.0"/>
    </g>
  </defs>
</svg>
