<?xml version="1.0" encoding="UTF-8" standalone="no"?>
<svg xmlns:ffdec="https://www.free-decompiler.com/flash" xmlns:xlink="http://www.w3.org/1999/xlink" ffdec:objectType="frame" height="30.0px" width="30.0px" xmlns="http://www.w3.org/2000/svg">
  <g transform="matrix(1.0, 0.0, 0.0, 1.0, 0.0, 0.0)">
    <use ffdec:characterId="1" height="30.0" transform="matrix(1.0, 0.0, 0.0, 1.0, 0.0, 0.0)" width="30.0" xlink:href="#shape0"/>
    <use ffdec:characterId="3" height="30.0" transform="matrix(1.0, 0.0, 0.0, 1.0, 0.0, 0.0)" width="30.0" xlink:href="#sprite0"/>
  </g>
  <defs>
    <g id="shape0" transform="matrix(1.0, 0.0, 0.0, 1.0, 0.0, 0.0)">
      <path d="M0.0 0.0 L30.0 0.0 30.0 30.0 0.0 30.0 0.0 0.0" fill="#33cc66" fill-opacity="0.0" fill-rule="evenodd" stroke="none"/>
    </g>
    <g id="sprite0" transform="matrix(1.0, 0.0, 0.0, 1.0, 0.0, 30.0)">
      <use ffdec:characterId="2" height="30.0" transform="matrix(1.0, 0.0, 0.0, 1.0, 0.0, -30.0)" width="30.0" xlink:href="#shape1"/>
    </g>
    <g id="shape1" transform="matrix(1.0, 0.0, 0.0, 1.0, 0.0, 30.0)">
      <path d="M0.0 -3.3 L0.0 -26.7 Q0.0 -30.0 3.3 -30.0 L26.7 -30.0 Q30.0 -30.0 30.0 -26.7 L30.0 -3.3 Q30.0 0.0 26.7 0.0 L3.3 0.0 Q0.0 0.0 0.0 -3.3" fill="#f4c402" fill-rule="evenodd" stroke="none"/>
      <path d="M20.05 -20.6 L20.3 -20.4 Q22.55 -18.15 22.55 -15.0 22.55 -11.85 20.3 -9.65 L20.05 -9.45 Q17.95 -7.4 14.95 -7.4 11.8 -7.4 9.6 -9.65 7.35 -11.85 7.35 -15.0 7.35 -18.15 9.6 -20.4 11.8 -22.6 14.95 -22.6 17.95 -22.6 20.05 -20.6 M6.6 -23.7 L8.9 -21.4 M3.0 -15.1 L6.2 -15.1 M8.75 -8.85 L6.5 -6.6 M15.0 -6.2 L15.0 -3.0 M21.3 -9.05 L23.55 -6.7 M23.45 -23.55 L21.2 -21.3 M23.75 -15.1 L27.0 -15.1 M15.0 -27.0 L15.0 -23.75" fill="none" stroke="#ffffff" stroke-linecap="round" stroke-linejoin="round" stroke-width="3.5"/>
      <path d="M14.95 -22.6 Q17.95 -22.6 20.05 -20.6 L20.3 -20.4 Q22.55 -18.15 22.55 -15.0 22.55 -12.0 20.45 -9.85 L20.3 -9.65 20.05 -9.45 Q17.95 -7.4 14.95 -7.4 11.85 -7.4 9.6 -9.65 7.35 -11.85 7.35 -15.0 L7.35 -15.1 Q7.4 -18.2 9.6 -20.4 L9.75 -20.55 Q11.95 -22.6 14.95 -22.6" fill="url(#gradient0)" fill-rule="evenodd" stroke="none"/>
      <path d="M14.95 -22.6 Q17.95 -22.6 20.05 -20.6 L20.3 -20.4 23.45 -23.55 M7.35 -15.1 Q7.4 -18.2 9.6 -20.4 L9.75 -20.55 6.6 -23.7 M9.6 -9.65 Q7.35 -11.85 7.35 -15.0 L7.35 -15.1 3.0 -15.1 M9.6 -9.65 L6.5 -6.6 M20.45 -9.85 L20.3 -9.65 20.05 -9.45 Q17.95 -7.4 14.95 -7.4 L15.0 -3.0 M9.75 -20.55 Q11.95 -22.6 14.95 -22.6 L15.0 -27.0 M14.95 -7.4 Q11.85 -7.4 9.6 -9.65 M20.45 -9.85 L23.55 -6.7 M20.3 -20.4 Q22.55 -18.15 22.55 -15.0 22.55 -12.0 20.45 -9.85 M23.0 -15.1 L27.0 -15.1" fill="none" stroke="#f39700" stroke-linecap="round" stroke-linejoin="round" stroke-width="1.0"/>
      <path d="M9.75 -17.25 Q9.5 -17.75 9.5 -18.35 9.5 -19.25 10.25 -20.05 L11.1 -20.65 Q12.7 -21.7 14.95 -21.7 17.25 -21.7 18.85 -20.65 L19.8 -20.0 Q20.45 -19.25 20.45 -18.65 L20.45 -17.9 20.05 -17.05 18.75 -15.9 Q17.8 -15.4 17.05 -15.3 L14.95 -15.15 Q13.15 -15.15 11.7 -15.75 L12.0 -16.45 12.7 -18.35 Q12.7 -20.45 11.1 -19.1 10.15 -18.3 9.75 -17.25" fill="url(#gradient1)" fill-rule="evenodd" stroke="none"/>
      <path d="M9.75 -17.25 Q10.15 -18.3 11.1 -19.1 12.7 -20.45 12.7 -18.35 L12.0 -16.45 11.7 -15.75 10.65 -14.5 Q10.1 -14.5 9.65 -15.05 9.5 -15.4 9.5 -15.75 9.5 -16.6 9.75 -17.25" fill="#ffffff" fill-rule="evenodd" stroke="none"/>
    </g>
    <linearGradient gradientTransform="matrix(0.0092, 0.0, 0.0, 0.0092, 14.95, -15.0)" gradientUnits="userSpaceOnUse" id="gradient0" spreadMethod="pad" x1="-819.2" x2="819.2">
      <stop offset="0.0" stop-color="#ffdf10"/>
      <stop offset="1.0" stop-color="#ffdf10"/>
    </linearGradient>
    <linearGradient gradientTransform="matrix(0.0, -0.0031, 0.0067, 0.0, 14.95, -18.65)" gradientUnits="userSpaceOnUse" id="gradient1" spreadMethod="pad" x1="-819.2" x2="819.2">
      <stop offset="0.0" stop-color="#ffea3f"/>
      <stop offset="1.0" stop-color="#ffe87c"/>
    </linearGradient>
  </defs>
</svg>
