<?xml version="1.0" encoding="UTF-8" standalone="no"?>
<svg xmlns:ffdec="https://www.free-decompiler.com/flash" xmlns:xlink="http://www.w3.org/1999/xlink" ffdec:objectType="frame" height="30.0px" width="30.0px" xmlns="http://www.w3.org/2000/svg">
  <g transform="matrix(1.0, 0.0, 0.0, 1.0, -0.1, -0.1)">
    <use ffdec:characterId="1" height="30.0" transform="matrix(1.0, 0.0, 0.0, 1.0, 0.1, 0.1)" width="30.0" xlink:href="#shape0"/>
  </g>
  <defs>
    <g id="shape0" transform="matrix(1.0, 0.0, 0.0, 1.0, 0.0, 0.0)">
      <path d="M0.0 0.0 L30.0 0.0 30.0 30.0 0.0 30.0 0.0 0.0" fill="#33cc66" fill-opacity="0.0" fill-rule="evenodd" stroke="none"/>
      <path d="M3.3 30.0 Q0.0 30.0 0.0 26.7 L0.0 3.3 Q0.0 0.0 3.3 0.0 L26.7 0.0 Q30.0 0.0 30.0 3.3 L30.0 26.7 Q30.0 30.0 26.7 30.0 L3.3 30.0" fill="#70cb4e" fill-rule="evenodd" stroke="none"/>
      <path d="M23.6 7.15 L23.95 6.7 23.75 7.15 23.55 7.6 23.25 9.1 23.15 9.95 23.15 10.05 23.1 10.05 23.1 10.2 22.55 12.85 27.0 17.35 22.35 15.45 22.55 16.5 24.2 20.3 22.5 18.75 22.15 20.15 22.0 20.65 Q20.75 24.1 17.95 25.95 15.95 27.35 13.3 26.75 12.15 26.55 10.85 25.8 7.6 24.05 5.6 21.1 3.05 17.55 3.05 15.15 3.15 12.45 6.25 10.35 9.85 7.9 14.05 8.3 15.9 8.45 17.4 9.15 L17.4 3.1 20.4 11.25 21.1 10.55 22.05 9.4 22.2 9.05 23.55 7.15 23.6 7.15 M22.35 15.45 L22.05 15.25 22.55 16.5 M22.55 18.4 L22.5 18.75 19.5 15.95 14.85 19.05 17.8 14.55 10.45 14.65 17.35 12.05 17.4 12.05 17.4 9.15 M11.95 15.55 L12.8 15.85 14.0 16.35 14.5 16.35 14.55 15.1 M19.75 19.95 L17.65 19.4 17.2 19.4 17.2 22.2" fill="none" stroke="#ffffff" stroke-linecap="round" stroke-linejoin="round" stroke-width="3.0"/>
      <path d="M21.15 10.45 L22.0 9.3 22.2 9.0 23.55 7.1 23.6 7.05 23.9 6.8 23.75 7.05 23.55 7.55 23.25 9.05 23.1 9.85 23.1 10.05 22.9 10.15 21.55 11.7 21.15 10.45 M17.4 9.3 L17.4 3.0 18.45 6.0 18.45 9.85 18.45 10.3 18.5 11.5 18.6 12.45 18.45 12.45 12.95 14.6 10.45 14.6 17.3 11.95 17.4 11.95 17.4 11.25 17.4 9.3 M24.2 13.1 L24.2 13.05 24.25 13.1 24.2 13.1 M17.0 17.6 L14.85 19.0 17.6 14.9 18.4 14.85 17.0 17.6" fill="#ffcc66" fill-rule="evenodd" stroke="none"/>
      <path d="M23.1 10.05 L23.1 10.15 22.55 12.75 26.9 17.2 23.2 15.65 23.2 15.7 22.25 15.3 22.05 15.2 22.5 16.2 23.85 19.4 22.55 18.35 20.65 16.75 20.5 16.9 16.0 19.45 17.0 17.6 18.4 14.85 17.6 14.9 14.55 14.95 11.6 15.0 12.95 14.6 18.45 12.45 18.6 12.45 18.5 11.5 18.45 10.3 18.45 9.85 18.45 6.0 20.4 11.2 21.15 10.45 21.55 11.7 22.9 10.15 23.1 10.05 M17.6 14.9 L17.8 14.5 12.95 14.6 17.8 14.5 17.6 14.9 M20.5 16.9 L19.5 15.9 17.0 17.6 19.5 15.9 20.5 16.9" fill="#ffffff" fill-rule="evenodd" stroke="none"/>
      <path d="M22.25 15.3 L22.5 16.2 22.05 15.2 22.25 15.3 M22.5 18.7 L22.1 20.3 22.0 20.7 Q20.75 24.15 17.95 26.1 15.9 27.5 13.3 26.8 L11.55 25.4 Q9.85 23.8 8.45 21.8 7.0 19.75 7.0 17.6 6.8 14.75 9.65 12.85 12.3 10.9 15.55 11.0 L17.4 11.25 17.4 11.95 17.3 11.95 10.45 14.6 12.95 14.6 11.6 15.0 14.55 14.95 17.6 14.9 14.85 19.0 17.0 17.6 16.0 19.45 20.5 16.9 20.65 16.75 22.55 18.35 22.5 18.7 20.5 16.9 22.5 18.7 M11.95 15.65 L12.75 15.95 13.95 16.4 14.5 16.4 14.55 14.95 14.5 16.4 13.95 16.4 12.75 15.95 11.95 15.65 M17.1 22.3 L17.1 19.45 17.65 19.45 19.7 20.0 17.65 19.45 17.1 19.45 17.1 22.3" fill="#f8ddc2" fill-rule="evenodd" stroke="none"/>
      <path d="M13.3 26.8 Q12.15 26.6 10.85 25.85 7.6 24.1 5.55 21.15 3.05 17.6 3.05 15.2 3.05 12.5 6.25 10.4 9.85 7.95 14.0 8.35 15.9 8.5 17.4 9.3 L17.4 11.25 15.55 11.0 Q12.3 10.9 9.65 12.85 6.8 14.75 7.0 17.6 7.0 19.75 8.45 21.8 9.85 23.8 11.55 25.4 L13.3 26.8" fill="#eca057" fill-rule="evenodd" stroke="none"/>
      <path d="M21.15 10.45 L22.0 9.3 22.2 9.0 23.55 7.1 23.6 7.05 23.9 6.8 23.75 7.05 23.55 7.55 23.25 9.05 23.1 9.85 23.1 10.05 23.1 10.15 22.55 12.75 26.9 17.2 27.0 17.3 23.2 15.7 22.25 15.3 22.05 15.2 22.5 16.2 23.85 19.4 24.2 20.25 22.5 18.7 20.5 16.9 19.5 15.9 17.0 17.6 14.85 19.0 17.6 14.9 17.8 14.5 12.95 14.6 10.45 14.6 17.3 11.95 17.4 11.95 17.4 11.25 17.4 9.3 17.4 3.0 18.45 6.0 20.4 11.2 21.15 10.45" fill="none" stroke="#aa5909" stroke-linecap="round" stroke-linejoin="round" stroke-width="0.8"/>
      <path d="M22.25 15.3 L22.5 16.2 M22.5 18.7 L22.1 20.3 22.0 20.7 Q20.75 24.15 17.95 26.1 15.9 27.5 13.3 26.8 12.15 26.6 10.85 25.85 7.6 24.1 5.55 21.15 3.05 17.6 3.05 15.2 3.05 12.5 6.25 10.4 9.85 7.95 14.0 8.35 15.9 8.5 17.4 9.3 M22.5 18.7 L22.55 18.35" fill="none" stroke="#673718" stroke-linecap="round" stroke-linejoin="round" stroke-width="0.8"/>
      <path d="M14.55 14.95 L14.5 16.4 13.95 16.4 12.75 15.95 11.95 15.65 M19.7 20.0 L17.65 19.45 17.1 19.45 17.1 22.3" fill="none" stroke="#673718" stroke-linecap="round" stroke-linejoin="round" stroke-width="0.5"/>
    </g>
  </defs>
</svg>
