<?xml version="1.0" encoding="UTF-8" standalone="no"?>
<svg xmlns:ffdec="https://www.free-decompiler.com/flash" xmlns:xlink="http://www.w3.org/1999/xlink" ffdec:objectType="frame" height="30.0px" width="30.0px" xmlns="http://www.w3.org/2000/svg">
  <g transform="matrix(1.0, 0.0, 0.0, 1.0, 0.0, 0.0)">
    <use ffdec:characterId="1" height="30.0" transform="matrix(1.0, 0.0, 0.0, 1.0, 0.0, 0.0)" width="30.0" xlink:href="#shape0"/>
    <use ffdec:characterId="3" height="30.0" transform="matrix(1.0, 0.0, 0.0, 1.0, 0.0, 0.0)" width="30.0" xlink:href="#sprite0"/>
  </g>
  <defs>
    <g id="shape0" transform="matrix(1.0, 0.0, 0.0, 1.0, 0.0, 0.0)">
      <path d="M0.0 0.0 L30.0 0.0 30.0 30.0 0.0 30.0 0.0 0.0" fill="#33cc66" fill-opacity="0.0" fill-rule="evenodd" stroke="none"/>
    </g>
    <g id="sprite0" transform="matrix(1.0, 0.0, 0.0, 1.0, 0.0, 0.0)">
      <use ffdec:characterId="2" height="30.0" transform="matrix(1.0, 0.0, 0.0, 1.0, 0.0, 0.0)" width="30.0" xlink:href="#shape1"/>
    </g>
    <g id="shape1" transform="matrix(1.0, 0.0, 0.0, 1.0, 0.0, 0.0)">
      <path d="M26.7 30.0 L3.3 30.0 Q0.0 30.0 0.0 26.7 L0.0 3.3 Q0.0 0.0 3.3 0.0 L26.7 0.0 Q30.0 0.0 30.0 3.3 L30.0 26.7 Q30.0 30.0 26.7 30.0" fill="#70cb4e" fill-rule="evenodd" stroke="none"/>
      <path d="M21.5 5.45 Q20.55 4.5 20.05 4.3 19.5 4.1 19.25 4.45 18.95 4.65 18.95 5.15 L19.1 6.8 18.95 7.65 18.95 7.85 16.95 4.6 Q16.05 3.5 15.1 3.5 14.25 3.5 13.3 4.6 12.1 5.95 11.15 7.85 L11.1 6.9 11.1 6.85 11.3 5.85 11.3 5.05 Q10.9 4.5 10.4 4.6 L10.35 4.6 Q9.8 4.6 8.75 5.55 6.8 7.45 5.9 10.2 5.0 12.75 4.85 16.3 L4.85 16.9 4.85 16.95 Q5.05 20.85 7.5 23.4 8.75 25.1 10.75 25.7 L13.7 26.35 15.0 26.5 16.45 26.35 Q17.85 26.3 19.3 25.7 21.15 25.1 22.6 23.4 25.0 20.85 25.15 16.95 L25.15 16.9 25.15 16.5 Q25.15 12.85 24.2 9.75 23.3 7.55 21.6 5.45 L21.5 5.45 M8.95 18.85 L11.45 18.85 M18.2 19.0 L20.7 19.0" fill="none" stroke="#ffffff" stroke-linecap="round" stroke-linejoin="round" stroke-width="3.5"/>
      <path d="M10.75 25.7 Q8.75 25.1 7.5 23.4 5.05 20.85 4.85 16.95 L4.85 16.9 4.85 16.3 Q5.0 12.75 5.9 10.2 6.8 7.45 8.75 5.55 9.8 4.6 10.35 4.6 L10.4 4.6 Q10.9 4.5 11.3 5.05 L11.3 5.85 11.1 6.85 11.1 6.9 11.15 7.85 Q12.1 5.95 13.3 4.6 14.25 3.5 15.1 3.5 16.05 3.5 16.95 4.6 L18.95 7.85 18.95 7.65 19.1 6.8 18.95 5.15 Q18.95 4.65 19.25 4.45 19.5 4.1 20.05 4.3 20.55 4.5 21.5 5.45 L21.6 5.45 Q23.3 7.55 24.2 9.75 25.15 12.85 25.15 16.5 L25.15 16.9 25.15 16.95 Q25.0 20.85 22.6 23.4 21.15 25.1 19.3 25.7 17.85 26.3 16.45 26.35 L15.0 26.5 13.7 26.35 10.75 25.8 10.75 25.7 M21.1 21.05 L21.6 20.6 21.75 20.4 22.7 18.35 Q23.1 16.85 21.6 15.9 20.8 15.35 19.85 15.6 L19.6 15.65 19.55 15.65 16.55 16.2 15.0 16.3 13.7 16.2 13.65 16.2 10.55 15.65 10.3 15.6 Q9.35 15.35 8.55 15.9 L7.7 16.6 Q7.5 11.4 10.1 5.45 L9.4 6.2 Q7.65 7.85 6.8 10.45 5.85 12.9 5.8 16.3 L5.8 16.9 Q5.9 20.55 8.2 22.95 9.1 24.1 10.45 24.7 9.3 22.7 8.55 20.6 L8.8 20.85 8.95 21.05 Q9.55 21.6 10.2 21.95 L11.3 22.4 13.7 22.8 14.9 22.95 15.25 22.95 15.35 22.95 18.1 22.6 18.15 22.6 19.55 22.15 19.85 21.95 21.1 21.05" fill="url(#gradient0)" fill-rule="evenodd" stroke="none"/>
      <path d="M21.1 21.05 L19.85 21.95 19.55 22.15 18.15 22.6 18.1 22.6 15.35 22.95 15.25 22.95 14.9 22.95 13.7 22.8 11.3 22.4 10.2 21.95 Q9.55 21.6 8.95 21.05 L8.8 20.85 8.55 20.6 Q9.3 22.7 10.45 24.7 9.1 24.1 8.2 22.95 5.9 20.55 5.8 16.9 L5.8 16.3 Q5.85 12.9 6.8 10.45 7.65 7.85 9.4 6.2 L10.1 5.45 Q7.5 11.4 7.7 16.6 L8.55 15.9 Q9.35 15.35 10.3 15.6 L10.55 15.65 13.65 16.2 13.7 16.2 15.0 16.3 16.55 16.2 19.55 15.65 19.6 15.65 19.85 15.6 Q20.8 15.35 21.6 15.9 23.1 16.85 22.7 18.35 L21.75 20.4 21.6 20.6 21.1 21.05" fill="#ffffcc" fill-rule="evenodd" stroke="none"/>
      <path d="M10.75 25.8 L13.7 26.35 15.0 26.5 16.45 26.35 Q17.85 26.3 19.3 25.7 21.15 25.1 22.6 23.4 25.0 20.85 25.15 16.95 L25.15 16.9 25.15 16.5 Q25.15 12.85 24.2 9.75 23.3 7.55 21.6 5.45 L21.5 5.45 Q20.55 4.5 20.05 4.3 19.5 4.1 19.25 4.45 18.95 4.65 18.95 5.15 L19.1 6.8 18.95 7.65 18.95 7.85 16.95 4.6 Q16.05 3.5 15.1 3.5 14.25 3.5 13.3 4.6 12.1 5.95 11.15 7.85 L11.1 6.9 11.1 6.85 11.3 5.85 11.3 5.05 Q10.9 4.5 10.4 4.6 L10.35 4.6 Q9.8 4.6 8.75 5.55 6.8 7.45 5.9 10.2 5.0 12.75 4.85 16.3 L4.85 16.9 4.85 16.95 Q5.05 20.85 7.5 23.4 8.75 25.1 10.75 25.7" fill="none" stroke="#f39700" stroke-linecap="round" stroke-linejoin="round" stroke-width="1.0"/>
      <path d="M15.2 25.25 L18.2 22.8 Q20.0 21.1 21.4 18.75 L21.6 18.35 21.85 16.8 22.05 14.2 22.05 13.55 22.05 13.25 21.85 9.7 21.6 9.45 20.25 9.05 18.05 8.7 15.2 8.6 15.2 7.8 Q18.9 7.7 22.8 8.8 23.15 13.85 22.4 18.55 20.4 22.65 16.35 25.5 L16.1 25.65 16.05 25.55 15.2 25.85 15.2 25.25" fill="#c27807" fill-rule="evenodd" stroke="none"/>
      <path d="M15.2 8.6 L18.05 8.7 20.25 9.05 21.6 9.45 21.85 9.7 22.05 13.25 22.05 13.55 22.05 14.2 21.85 16.8 21.6 18.35 21.4 18.75 Q20.0 21.1 18.2 22.8 L15.2 25.25 15.2 25.15 15.2 22.65 15.25 22.6 15.7 22.6 16.1 22.4 Q18.95 20.4 20.4 17.55 20.9 14.15 20.4 10.55 17.8 9.8 15.2 9.9 L15.2 8.6" fill="#ea8f09" fill-rule="evenodd" stroke="none"/>
      <path d="M15.2 9.9 Q17.8 9.8 20.4 10.55 20.9 14.15 20.4 17.55 18.95 20.4 16.1 22.4 L15.7 22.6 15.65 22.45 Q17.85 20.95 19.55 17.85 L19.65 17.7 Q20.1 14.2 19.55 10.6 17.35 10.0 15.2 9.95 L15.2 22.6 15.2 22.65 15.1 22.65 14.15 22.4 Q11.3 20.4 9.9 17.6 9.35 14.2 9.85 10.6 L15.1 9.95 15.2 9.95 15.2 9.9" fill="#ffff99" fill-rule="evenodd" stroke="none"/>
      <path d="M15.2 8.6 L15.2 9.9 15.2 9.95 15.1 9.95 9.85 10.6 Q9.35 14.2 9.9 17.6 11.3 20.4 14.15 22.4 L15.1 22.65 15.2 22.65 15.2 25.15 Q11.85 23.35 9.0 19.05 L8.7 18.75 Q8.15 14.75 8.55 9.55 L8.8 9.55 Q9.6 9.05 12.05 8.8 L15.15 8.6 15.2 8.6" fill="#ffff33" fill-rule="evenodd" stroke="none"/>
      <path d="M15.2 25.25 L15.2 25.85 15.1 25.9 Q14.5 25.9 13.95 25.5 9.85 22.7 7.9 18.6 7.15 13.9 7.8 8.8 11.4 7.7 15.1 7.8 L15.2 7.8 15.2 8.6 15.15 8.6 12.05 8.8 Q9.6 9.05 8.8 9.55 L8.55 9.55 Q8.15 14.75 8.7 18.75 L9.0 19.05 Q11.85 23.35 15.2 25.15 L15.2 25.25" fill="#f39700" fill-rule="evenodd" stroke="none"/>
      <path d="M15.2 22.6 L15.2 9.95 Q17.35 10.0 19.55 10.6 20.1 14.2 19.65 17.7 L19.55 17.85 Q17.85 20.95 15.65 22.45 L15.25 22.6 15.2 22.6" fill="#ffdf10" fill-rule="evenodd" stroke="none"/>
      <path d="M15.25 22.6 L15.2 22.65 15.2 22.6 15.25 22.6" fill="#9cfce8" fill-rule="evenodd" stroke="none"/>
      <path d="M15.7 22.6 L15.25 22.6 15.65 22.45 15.7 22.6" fill="#f0a028" fill-rule="evenodd" stroke="none"/>
      <path d="M15.2 9.9 Q17.8 9.8 20.4 10.55 20.9 14.15 20.4 17.55 18.95 20.4 16.1 22.4 L15.7 22.6 15.25 22.6 15.2 22.65 15.1 22.65 14.15 22.4 Q11.3 20.4 9.9 17.6 9.35 14.2 9.85 10.6 L15.1 9.95 15.2 9.95 M15.2 22.6 L15.25 22.6" fill="none" stroke="#f39700" stroke-linecap="round" stroke-linejoin="round" stroke-width="0.8"/>
    </g>
    <linearGradient gradientTransform="matrix(0.0, 0.0123, -0.0124, 0.0, 15.0, 15.35)" gradientUnits="userSpaceOnUse" id="gradient0" spreadMethod="pad" x1="-819.2" x2="819.2">
      <stop offset="0.0" stop-color="#ea8f09"/>
      <stop offset="0.5411764705882353" stop-color="#ffdf10"/>
      <stop offset="1.0" stop-color="#ffff99"/>
    </linearGradient>
  </defs>
</svg>
