<?xml version="1.0" encoding="UTF-8" standalone="no"?>
<svg xmlns:ffdec="https://www.free-decompiler.com/flash" xmlns:xlink="http://www.w3.org/1999/xlink" ffdec:objectType="frame" height="30.05px" width="30.0px" xmlns="http://www.w3.org/2000/svg">
  <g transform="matrix(1.0, 0.0, 0.0, 1.0, 0.0, 0.05)">
    <use ffdec:characterId="1" height="30.0" transform="matrix(1.0, 0.0, 0.0, 1.0, 0.0, 0.0)" width="30.0" xlink:href="#shape0"/>
    <use ffdec:characterId="3" height="30.0" transform="matrix(1.0, 0.0, 0.0, 1.0, 0.0, -0.05)" width="30.0" xlink:href="#button0"/>
  </g>
  <defs>
    <g id="shape0" transform="matrix(1.0, 0.0, 0.0, 1.0, 0.0, 0.0)">
      <path d="M0.0 0.0 L30.0 0.0 30.0 30.0 0.0 30.0 0.0 0.0" fill="#33cc66" fill-opacity="0.0" fill-rule="evenodd" stroke="none"/>
    </g>
    <g id="button0" transform="matrix(1.0, 0.0, 0.0, 1.0, 30.0, 30.0)">
      <use ffdec:characterId="2" height="30.0" transform="matrix(1.0, 0.0, 0.0, 1.0, -30.0, -30.0)" width="30.0" xlink:href="#shape1"/>
    </g>
    <g id="shape1" transform="matrix(1.0, 0.0, 0.0, 1.0, 30.0, 30.0)">
      <path d="M0.0 -26.7 L0.0 -3.3 -0.2 -1.85 Q-0.85 0.0 -3.3 0.0 L-26.7 0.0 Q-29.15 0.0 -29.8 -1.85 L-30.0 -3.3 -30.0 -26.7 Q-30.0 -29.3 -27.95 -29.85 L-26.7 -30.0 -3.3 -30.0 -2.05 -29.85 Q0.0 -29.3 0.0 -26.7" fill="#949bd0" fill-rule="evenodd" stroke="none"/>
      <path d="M-19.65 -25.5 L-19.7 -25.5 -20.95 -24.85 -21.3 -24.55 -21.8 -24.0 -22.45 -23.2 Q-23.55 -21.75 -24.15 -19.9 -25.1 -17.3 -25.25 -13.75 L-25.25 -13.1 Q-25.0 -9.15 -22.55 -6.55 L-21.5 -5.4 -21.0 -5.0 Q-20.25 -4.5 -19.25 -4.15 L-16.3 -3.6 -15.0 -3.45 -13.55 -3.6 Q-12.1 -3.65 -10.65 -4.25 -8.8 -4.85 -7.35 -6.55 -4.9 -9.15 -4.75 -13.1 L-4.75 -13.5 Q-4.75 -17.2 -5.75 -20.3 -6.65 -22.5 -8.3 -24.7 L-8.4 -24.7 Q-9.4 -25.6 -9.9 -25.8 -10.45 -26.0 -10.7 -25.65 -11.0 -25.5 -11.0 -24.95 L-11.0 -24.9 -10.95 -24.7 -10.95 -24.65 -10.85 -23.25 -11.0 -22.4 -11.0 -22.25 -12.85 -25.25 -12.9 -25.35 -12.95 -25.45 -13.0 -25.5 Q-13.9 -26.6 -14.9 -26.6 -15.75 -26.6 -16.7 -25.5 L-17.75 -24.1 -17.85 -24.0 -17.85 -23.95 -18.9 -22.25 -18.95 -22.8 -18.95 -22.95 -18.95 -23.0 -18.95 -23.15 -18.95 -23.2 -18.7 -24.25 -18.7 -25.05 Q-19.15 -25.6 -19.65 -25.5 Z" fill="none" stroke="#ffffff" stroke-linecap="round" stroke-linejoin="round" stroke-width="3.5"/>
      <path d="M-21.0 -5.0 L-21.5 -5.4 -22.55 -6.55 Q-25.0 -9.15 -25.25 -13.1 L-25.25 -13.75 Q-25.1 -17.3 -24.15 -19.9 -23.55 -21.75 -22.45 -23.2 L-21.8 -24.0 -21.3 -24.55 -20.95 -24.85 -19.7 -25.5 -19.65 -25.5 Q-19.15 -25.6 -18.7 -25.05 L-18.7 -24.25 -18.95 -23.2 -18.95 -23.15 -18.95 -23.0 -18.95 -22.95 -18.95 -22.8 -18.9 -22.25 -17.85 -23.95 -17.85 -24.0 -17.75 -24.1 -16.7 -25.5 Q-15.75 -26.6 -14.9 -26.6 -13.9 -26.6 -13.0 -25.5 L-12.95 -25.45 -12.9 -25.35 -12.85 -25.25 -11.0 -22.25 -11.0 -22.4 -10.85 -23.25 -10.95 -24.65 -10.95 -24.7 -11.0 -24.9 -11.0 -24.95 Q-11.0 -25.5 -10.7 -25.65 -10.45 -26.0 -9.9 -25.8 -9.4 -25.6 -8.4 -24.7 L-8.3 -24.7 Q-6.65 -22.5 -5.75 -20.3 -4.75 -17.2 -4.75 -13.5 L-4.75 -13.1 Q-4.9 -9.15 -7.35 -6.55 -8.8 -4.85 -10.65 -4.25 -12.1 -3.65 -13.55 -3.6 L-15.0 -3.45 -16.3 -3.6 -19.25 -4.15 -19.25 -4.25 Q-20.2 -4.5 -21.0 -5.0 M-20.65 -23.9 Q-21.95 -22.65 -22.75 -20.9 L-23.15 -19.8 -23.25 -19.6 -23.5 -18.75 Q-24.2 -16.6 -24.25 -13.75 L-24.25 -13.1 Q-24.15 -9.4 -21.85 -7.0 -20.95 -5.85 -19.6 -5.3 L-21.5 -9.35 -21.25 -9.15 -21.1 -8.95 -19.85 -8.0 -18.7 -7.6 Q-17.6 -7.2 -16.3 -7.15 L-15.1 -7.0 -14.75 -7.0 -14.6 -7.0 -11.85 -7.4 -11.8 -7.4 -10.4 -7.8 -10.1 -8.0 -8.85 -8.95 -8.3 -9.35 -8.2 -9.6 Q-7.45 -10.55 -7.25 -11.65 -6.85 -13.0 -7.95 -13.85 L-8.2 -14.05 -8.3 -14.1 -8.75 -14.35 -10.1 -14.45 -10.35 -14.4 -10.4 -14.4 -12.25 -14.0 -13.45 -13.85 -13.5 -13.85 -15.0 -13.75 -16.3 -13.85 -16.35 -13.85 -16.55 -13.85 -18.4 -14.15 -19.45 -14.4 -19.75 -14.45 -21.1 -14.3 -21.5 -14.1 -21.5 -14.05 -21.95 -13.8 -22.35 -13.4 -22.35 -14.5 -22.3 -15.6 -22.2 -16.45 Q-21.8 -20.35 -19.95 -24.7 L-20.65 -23.9" fill="url(#gradient0)" fill-rule="evenodd" stroke="none"/>
      <path d="M-20.65 -23.9 L-19.95 -24.7 Q-21.8 -20.35 -22.2 -16.45 L-22.3 -15.6 -22.35 -14.5 -22.35 -13.4 -21.95 -13.8 -21.5 -14.05 -21.5 -14.1 -21.1 -14.3 -19.75 -14.45 -19.45 -14.4 -18.4 -14.15 -16.55 -13.85 -16.35 -13.85 -16.3 -13.85 -15.0 -13.75 -13.5 -13.85 -13.45 -13.85 -12.25 -14.0 -10.4 -14.4 -10.35 -14.4 -10.1 -14.45 -8.75 -14.35 -8.3 -14.1 -8.2 -14.05 -7.95 -13.85 Q-6.85 -13.0 -7.25 -11.65 -7.45 -10.55 -8.2 -9.6 L-8.3 -9.35 -8.85 -8.95 -10.1 -8.0 -10.4 -7.8 -11.8 -7.4 -11.85 -7.4 -14.6 -7.0 -14.75 -7.0 -15.1 -7.0 -16.3 -7.15 Q-17.6 -7.2 -18.7 -7.6 L-19.85 -8.0 -21.1 -8.95 -21.25 -9.15 -21.5 -9.35 -19.6 -5.3 Q-20.95 -5.85 -21.85 -7.0 -24.15 -9.4 -24.25 -13.1 L-24.25 -13.75 Q-24.2 -16.6 -23.5 -18.75 L-23.25 -19.6 -23.15 -19.8 -22.75 -20.9 Q-21.95 -22.65 -20.65 -23.9 M-20.4 -10.6 Q-20.15 -9.95 -19.75 -9.95 L-19.1 -10.4 -18.75 -11.95 -20.7 -11.95 -20.4 -10.6 M-10.55 -11.95 L-12.5 -11.95 -12.2 -10.6 Q-11.95 -9.95 -11.55 -9.95 -11.15 -9.95 -10.9 -10.4 L-10.55 -11.95 -8.6 -11.95 -10.55 -11.95 M-16.45 -11.95 L-18.75 -11.95 -16.45 -11.95" fill="#ffffff" fill-rule="evenodd" stroke="none"/>
      <path d="M-20.4 -10.6 L-20.7 -11.95 -18.75 -11.95 -19.1 -10.4 -19.75 -9.95 Q-20.15 -9.95 -20.4 -10.6 M-10.55 -11.95 L-10.9 -10.4 Q-11.15 -9.95 -11.55 -9.95 -11.95 -9.95 -12.2 -10.6 L-12.5 -11.95 -10.55 -11.95" fill="#333333" fill-rule="evenodd" stroke="none"/>
      <path d="M-19.25 -4.15 L-16.3 -3.6 -15.0 -3.45 -13.55 -3.6 Q-12.1 -3.65 -10.65 -4.25 -8.8 -4.85 -7.35 -6.55 -4.9 -9.15 -4.75 -13.1 L-4.75 -13.5 Q-4.75 -17.2 -5.75 -20.3 -6.65 -22.5 -8.3 -24.7 L-8.4 -24.7 Q-9.4 -25.6 -9.9 -25.8 -10.45 -26.0 -10.7 -25.65 -11.0 -25.5 -11.0 -24.95 L-11.0 -24.9 -10.95 -24.7 -10.95 -24.65 -10.85 -23.25 -11.0 -22.4 -11.0 -22.25 -12.85 -25.25 -12.9 -25.35 -12.95 -25.45 -13.0 -25.5 Q-13.9 -26.6 -14.9 -26.6 -15.75 -26.6 -16.7 -25.5 L-17.75 -24.1 -17.85 -24.0 -17.85 -23.95 -18.9 -22.25 -18.95 -22.8 -18.95 -22.95 -18.95 -23.0 -18.95 -23.15 -18.95 -23.2 -18.7 -24.25 -18.7 -25.05 Q-19.15 -25.6 -19.65 -25.5 L-19.7 -25.5 -20.95 -24.85 -21.3 -24.55 -21.8 -24.0 -22.45 -23.2 Q-23.55 -21.75 -24.15 -19.9 -25.1 -17.3 -25.25 -13.75 L-25.25 -13.1 Q-25.0 -9.15 -22.55 -6.55 L-21.5 -5.4 -21.0 -5.0 Q-20.25 -4.5 -19.25 -4.15 M-20.4 -10.6 Q-20.15 -9.95 -19.75 -9.95 L-19.1 -10.4 -18.75 -11.95 -20.7 -11.95 -20.4 -10.6 M-10.55 -11.95 L-10.9 -10.4 Q-11.15 -9.95 -11.55 -9.95 -11.95 -9.95 -12.2 -10.6 L-12.5 -11.95 -10.55 -11.95 -8.6 -11.95 M-18.75 -11.95 L-16.45 -11.95" fill="none" stroke="#663300" stroke-linecap="round" stroke-linejoin="round" stroke-width="1.0"/>
    </g>
    <linearGradient gradientTransform="matrix(0.0, 0.0116, -0.0125, 0.0, -15.0, -14.8)" gradientUnits="userSpaceOnUse" id="gradient0" spreadMethod="pad" x1="-819.2" x2="819.2">
      <stop offset="0.0" stop-color="#f4a24f"/>
      <stop offset="1.0" stop-color="#ff6600"/>
    </linearGradient>
  </defs>
</svg>
