<?xml version="1.0" encoding="UTF-8" standalone="no"?>
<svg xmlns:ffdec="https://www.free-decompiler.com/flash" xmlns:xlink="http://www.w3.org/1999/xlink" ffdec:objectType="frame" height="30.05px" width="30.0px" xmlns="http://www.w3.org/2000/svg">
  <g transform="matrix(1.0, 0.0, 0.0, 1.0, 0.0, 0.0)">
    <use ffdec:characterId="1" height="30.0" transform="matrix(1.0, 0.0, 0.0, 1.0, 0.0, 0.0)" width="30.0" xlink:href="#shape0"/>
    <use ffdec:characterId="3" height="30.0" transform="matrix(1.0, 0.0, 0.0, 1.0, 0.0, 0.05)" width="30.0" xlink:href="#sprite0"/>
  </g>
  <defs>
    <g id="shape0" transform="matrix(1.0, 0.0, 0.0, 1.0, 0.0, 0.0)">
      <path d="M0.0 0.0 L30.0 0.0 30.0 30.0 0.0 30.0 0.0 0.0" fill="#33cc66" fill-opacity="0.0" fill-rule="evenodd" stroke="none"/>
    </g>
    <g id="sprite0" transform="matrix(1.0, 0.0, 0.0, 1.0, 30.0, 30.0)">
      <use ffdec:characterId="2" height="30.0" transform="matrix(1.0, 0.0, 0.0, 1.0, -30.0, -30.0)" width="30.0" xlink:href="#shape1"/>
    </g>
    <g id="shape1" transform="matrix(1.0, 0.0, 0.0, 1.0, 30.0, 30.0)">
      <path d="M-3.3 -30.0 L-2.05 -29.85 Q0.0 -29.3 0.0 -26.7 L0.0 -3.3 -0.2 -1.85 Q-0.85 0.0 -3.3 0.0 L-26.7 0.0 Q-29.15 0.0 -29.8 -1.85 L-30.0 -3.3 -30.0 -26.7 Q-30.0 -29.3 -27.95 -29.85 L-26.7 -30.0 -3.3 -30.0" fill="#949bd0" fill-rule="evenodd" stroke="none"/>
      <path d="M-7.45 -24.9 L-6.15 -26.3 Q-3.7 -26.4 -2.4 -24.1 L-2.6 -24.0 -4.75 -23.05 -6.25 -22.35 -8.0 -21.4 -11.15 -19.4 -11.9 -18.9 -12.6 -18.35 -12.4 -18.7 -12.3 -18.8 -11.8 -19.5 -9.7 -22.25 -8.6 -23.55 -7.45 -24.9 M-6.75 -9.1 Q-4.75 -8.05 -2.6 -7.2 L-2.4 -7.1 Q-3.7 -4.8 -6.15 -4.9 L-8.8 -7.85 -9.8 -9.1 -10.95 -10.5 -12.4 -12.5 -12.6 -12.85 -11.9 -12.3 -10.25 -11.15 -8.35 -10.0 -6.75 -9.1 M-21.25 -7.7 L-23.8 -4.9 Q-26.25 -4.8 -27.55 -7.1 L-27.35 -7.2 Q-25.25 -8.05 -23.3 -9.05 L-21.8 -9.85 -20.9 -10.4 -18.05 -12.3 -17.35 -12.85 -17.55 -12.5 -17.6 -12.45 -17.65 -12.35 -19.65 -9.65 -20.25 -8.9 -21.25 -7.7 M-25.45 -23.2 L-27.35 -24.0 -27.55 -24.1 Q-26.25 -26.4 -23.8 -26.3 L-22.6 -25.0 -21.35 -23.6 -20.65 -22.8 -19.7 -21.55 -17.55 -18.7 -17.35 -18.35 -18.05 -18.9 -22.05 -21.45 -23.3 -22.15 -24.0 -22.5 -25.45 -23.2" fill="none" stroke="#ffffff" stroke-linecap="round" stroke-linejoin="round" stroke-width="3.5"/>
      <path d="M-4.75 -23.05 L-4.5 -22.7 Q-3.25 -20.55 -3.25 -16.9 -3.25 -11.15 -6.5 -9.25 L-6.75 -9.1 M-8.8 -7.85 L-11.55 -6.1 -14.75 -3.8 Q-15.0 -3.65 -15.25 -3.65 -15.45 -3.65 -15.65 -3.8 L-18.9 -6.1 -21.25 -7.7 M-23.3 -9.05 L-23.6 -9.25 Q-27.25 -12.15 -27.25 -16.9 L-27.0 -19.65 -26.9 -20.0 -26.85 -20.15 -26.85 -20.3 -26.15 -22.2 -26.15 -22.25 -25.85 -22.7 -25.45 -23.2 M-22.6 -25.0 L-21.85 -25.1 -21.5 -25.15 -21.15 -25.15 Q-16.9 -25.15 -15.25 -21.9 -13.55 -25.15 -9.3 -25.15 L-7.45 -24.9" fill="none" stroke="#ffffff" stroke-linecap="round" stroke-linejoin="round" stroke-width="2.5"/>
      <path d="M-2.4 -24.1 L-3.2 -24.55 -5.25 -23.6 -6.8 -22.85 -8.5 -21.8 -9.0 -21.5 -10.6 -20.45 -9.15 -22.1 -8.3 -23.05 -7.95 -23.4 -6.8 -24.65 -5.45 -25.85 -6.15 -26.3 Q-3.7 -26.4 -2.4 -24.1 M-6.15 -4.9 L-5.45 -5.35 Q-6.75 -6.35 -8.3 -8.15 L-9.4 -9.35 -10.6 -10.75 -10.6 -10.8 -10.55 -10.8 -9.0 -9.7 -8.9 -9.65 -7.4 -8.7 Q-5.75 -7.75 -3.2 -6.65 L-2.4 -7.1 Q-3.7 -4.8 -6.15 -4.9 M-23.8 -26.3 L-24.5 -25.85 -23.25 -24.8 -22.05 -23.5 -21.65 -23.05 -21.45 -22.85 -20.4 -21.7 -19.35 -20.45 Q-18.95 -20.0 -20.95 -21.5 L-21.25 -21.7 -22.7 -22.6 -23.4 -22.95 Q-24.1 -23.35 -24.95 -23.75 L-26.75 -24.55 -27.55 -24.1 Q-26.25 -26.4 -23.8 -26.3 M-27.55 -7.1 L-26.75 -6.65 -22.65 -8.6 -21.2 -9.5 -20.95 -9.7 -20.4 -10.1 -19.35 -10.75 -20.05 -9.85 -20.65 -9.2 -21.65 -8.15 -21.75 -8.0 Q-23.25 -6.3 -24.5 -5.35 L-23.8 -4.9 Q-26.25 -4.8 -27.55 -7.1" fill="#ffffff" fill-rule="evenodd" stroke="none"/>
      <path d="M-6.15 -26.3 L-5.45 -25.85 -6.8 -24.65 -7.95 -23.4 -8.3 -23.05 -9.15 -22.1 -10.6 -20.45 -9.0 -21.5 -8.5 -21.8 -6.8 -22.85 -5.25 -23.6 -3.2 -24.55 -2.4 -24.1 -2.6 -24.0 -4.75 -23.05 -6.25 -22.35 -8.0 -21.4 -11.15 -19.4 -11.9 -18.9 -12.6 -18.35 -11.75 -19.35 -11.75 -19.45 -12.2 -18.85 -11.8 -19.5 -9.7 -22.25 -8.6 -23.55 -7.45 -24.9 -6.15 -26.3 M-8.35 -10.0 L-6.75 -9.1 Q-4.75 -8.05 -2.6 -7.2 L-2.4 -7.1 -3.2 -6.65 Q-5.75 -7.75 -7.4 -8.7 L-8.9 -9.65 -9.0 -9.7 -10.55 -10.8 -10.6 -10.8 -10.6 -10.75 -9.4 -9.35 -8.3 -8.15 Q-6.75 -6.35 -5.45 -5.35 L-6.15 -4.9 -8.8 -7.85 -9.8 -9.1 -10.95 -10.5 -12.4 -12.5 -11.75 -11.75 -11.75 -11.85 -12.6 -12.85 -11.9 -12.3 -10.25 -11.15 -8.35 -10.0 M-20.65 -22.8 L-19.7 -21.55 -17.55 -18.7 -18.2 -19.45 -18.2 -19.35 -17.35 -18.35 -18.05 -18.9 -22.05 -21.45 -23.3 -22.15 -24.0 -22.5 -25.45 -23.2 -27.35 -24.0 -27.55 -24.1 -26.75 -24.55 -24.95 -23.75 Q-24.1 -23.35 -23.4 -22.95 L-22.7 -22.6 -21.25 -21.7 -20.95 -21.5 Q-18.95 -20.0 -19.35 -20.45 L-20.4 -21.7 -21.45 -22.85 -21.65 -23.05 -22.05 -23.5 -23.25 -24.8 -24.5 -25.85 -23.8 -26.3 -22.6 -25.0 -21.35 -23.6 -20.65 -22.8 M-20.9 -10.4 L-18.05 -12.3 -17.35 -12.85 -18.2 -11.85 -18.2 -11.75 -17.65 -12.35 -19.65 -9.65 -20.25 -8.9 -21.25 -7.7 -23.8 -4.9 -24.5 -5.35 Q-23.25 -6.3 -21.75 -8.0 L-21.65 -8.15 -20.65 -9.2 -20.05 -9.85 -19.35 -10.75 -20.4 -10.1 -20.95 -9.7 -21.2 -9.5 -22.65 -8.6 -26.75 -6.65 -27.55 -7.1 -27.35 -7.2 Q-25.25 -8.05 -23.3 -9.05 L-21.8 -9.85 -20.9 -10.4" fill="#ffcc66" fill-rule="evenodd" stroke="none"/>
      <path d="M-7.45 -24.9 L-8.6 -23.55 -9.3 -23.6 Q-13.55 -23.6 -14.45 -19.45 L-14.7 -19.0 -15.25 -18.85 Q-15.45 -18.85 -15.65 -19.0 L-15.95 -19.45 -16.3 -20.65 -16.35 -20.65 Q-17.55 -23.6 -21.15 -23.6 L-21.35 -23.6 -22.6 -25.0 -21.85 -25.1 -21.5 -25.15 -21.15 -25.15 Q-16.9 -25.15 -15.25 -21.9 -13.55 -25.15 -9.3 -25.15 L-7.45 -24.9 M-6.25 -22.35 L-4.75 -23.05 -4.5 -22.7 Q-3.25 -20.55 -3.25 -16.9 -3.25 -11.15 -6.5 -9.25 L-6.75 -9.1 -8.35 -10.0 -7.25 -10.65 Q-4.75 -12.2 -4.75 -16.9 -4.75 -20.0 -5.8 -21.8 L-6.25 -22.35 M-25.45 -23.2 L-24.0 -22.5 -24.6 -21.8 -24.75 -21.55 -24.8 -21.45 -25.35 -19.8 -25.4 -19.65 -25.45 -19.45 -25.7 -16.9 Q-25.7 -12.9 -22.7 -10.5 L-21.8 -9.85 -23.3 -9.05 -23.6 -9.25 Q-27.25 -12.15 -27.25 -16.9 L-27.0 -19.65 -26.9 -20.0 -26.85 -20.15 -26.85 -20.3 -26.15 -22.2 -26.15 -22.25 -25.85 -22.7 -25.45 -23.2 M-21.25 -7.7 L-20.25 -8.9 -18.05 -7.45 -15.25 -5.45 -12.35 -7.45 -9.8 -9.1 -8.8 -7.85 -11.55 -6.1 -14.75 -3.8 Q-15.0 -3.65 -15.25 -3.65 -15.45 -3.65 -15.65 -3.8 L-18.9 -6.1 -21.25 -7.7" fill="#780c16" fill-rule="evenodd" stroke="none"/>
      <path d="M-8.6 -23.55 L-9.7 -22.25 -10.4 -22.3 Q-12.35 -22.25 -13.35 -19.85 -14.45 -17.5 -15.5 -17.5 L-16.5 -18.9 -16.5 -19.3 -16.85 -20.4 -17.95 -21.7 -18.65 -22.15 -19.15 -22.4 -20.65 -22.8 -21.35 -23.6 -21.15 -23.6 Q-17.55 -23.6 -16.35 -20.65 L-16.3 -20.65 -15.95 -19.45 -15.65 -19.0 Q-15.45 -18.85 -15.25 -18.85 L-14.7 -19.0 -14.45 -19.45 Q-13.55 -23.6 -9.3 -23.6 L-8.6 -23.55 M-8.0 -21.4 L-6.25 -22.35 -5.8 -21.8 Q-4.75 -20.0 -4.75 -16.9 -4.75 -12.2 -7.25 -10.65 L-8.35 -10.0 -10.25 -11.15 Q-7.15 -14.1 -6.75 -16.55 -6.5 -19.1 -7.5 -20.75 L-8.0 -21.4 M-23.3 -22.15 L-24.05 -21.25 -24.85 -19.5 -24.95 -17.5 -24.9 -17.2 Q-24.65 -15.35 -23.55 -13.3 -22.5 -11.35 -21.35 -10.7 L-20.9 -10.4 -21.8 -9.85 -22.7 -10.5 Q-25.7 -12.9 -25.7 -16.9 L-25.45 -19.45 -25.4 -19.65 -25.35 -19.8 -24.8 -21.45 -24.75 -21.55 -24.6 -21.8 -24.0 -22.5 -23.3 -22.15 M-19.65 -9.65 L-18.75 -9.15 -16.55 -7.95 -15.25 -7.8 Q-14.55 -7.8 -13.25 -8.7 L-10.95 -10.5 -9.8 -9.1 -12.35 -7.45 -15.25 -5.45 -18.05 -7.45 -20.25 -8.9 -19.65 -9.65" fill="#ea1c22" fill-rule="evenodd" stroke="none"/>
      <path d="M-9.7 -22.25 L-11.8 -19.5 -11.95 -19.5 -12.35 -19.35 Q-13.4 -18.75 -13.1 -17.55 -12.85 -16.4 -11.55 -16.5 -10.3 -16.65 -10.35 -18.1 -10.4 -19.15 -11.15 -19.4 L-8.0 -21.4 -7.5 -20.75 Q-6.5 -19.1 -6.75 -16.55 -7.15 -14.1 -10.25 -11.15 L-11.9 -12.3 -12.6 -12.85 -12.4 -12.5 -10.95 -10.5 -13.25 -8.7 Q-14.55 -7.8 -15.25 -7.8 L-16.55 -7.95 -18.75 -9.15 -19.65 -9.65 -17.65 -12.35 -17.6 -12.45 -17.55 -12.5 -17.35 -12.85 -18.05 -12.3 -20.9 -10.4 -21.35 -10.7 Q-22.5 -11.35 -23.55 -13.3 -24.65 -15.35 -24.9 -17.2 L-24.95 -17.5 -24.85 -19.5 -24.05 -21.25 -23.3 -22.15 -22.05 -21.45 Q-23.4 -20.85 -23.8 -19.25 -24.05 -18.3 -23.8 -17.35 L-23.35 -16.2 Q-22.2 -14.25 -19.65 -14.9 -16.9 -15.5 -17.3 -18.4 -17.6 -21.0 -19.7 -21.55 L-20.65 -22.8 -19.15 -22.4 -18.65 -22.15 -17.95 -21.7 -16.85 -20.4 -16.5 -19.3 -16.5 -18.9 -15.5 -17.5 Q-14.45 -17.5 -13.35 -19.85 -12.35 -22.25 -10.4 -22.3 L-9.7 -22.25" fill="#fc5c61" fill-rule="evenodd" stroke="none"/>
      <path d="M-12.2 -18.85 L-11.75 -19.45 -11.75 -19.35 -12.6 -18.35 -12.4 -18.7 -12.2 -18.85 M-17.35 -12.85 L-17.55 -12.5 -17.6 -12.45 -17.65 -12.35 -18.2 -11.75 -18.2 -11.85 -17.35 -12.85 M-12.4 -12.5 L-12.6 -12.85 -11.75 -11.85 -11.75 -11.75 -12.4 -12.5 M-17.55 -18.7 L-17.35 -18.35 -18.2 -19.35 -18.2 -19.45 -17.55 -18.7" fill="#ffda10" fill-rule="evenodd" stroke="none"/>
      <path d="M-11.8 -19.5 L-12.2 -18.85 -12.4 -18.7 -12.6 -18.35 -11.9 -18.9 -11.15 -19.4 Q-10.4 -19.15 -10.35 -18.1 -10.3 -16.65 -11.55 -16.5 -12.85 -16.4 -13.1 -17.55 -13.4 -18.75 -12.35 -19.35 L-11.95 -19.5 -11.8 -19.5 M-19.7 -21.55 Q-17.6 -21.0 -17.3 -18.4 -16.9 -15.5 -19.65 -14.9 -22.2 -14.25 -23.35 -16.2 L-23.8 -17.35 Q-24.05 -18.3 -23.8 -19.25 -23.4 -20.85 -22.05 -21.45 L-18.05 -18.9 -17.35 -18.35 -17.55 -18.7 -19.7 -21.55 M-21.15 -19.8 L-21.8 -19.45 Q-22.6 -18.3 -21.8 -17.2 -21.25 -16.45 -20.35 -16.8 -19.1 -17.2 -19.35 -18.55 -19.65 -19.95 -21.15 -19.8" fill="#ff898d" fill-rule="evenodd" stroke="none"/>
      <path d="M-21.15 -19.8 Q-19.65 -19.95 -19.35 -18.55 -19.1 -17.2 -20.35 -16.8 -21.25 -16.45 -21.8 -17.2 -22.6 -18.3 -21.8 -19.45 L-21.15 -19.8" fill="#ffdedf" fill-rule="evenodd" stroke="none"/>
      <path d="M-2.4 -24.1 Q-3.7 -26.4 -6.15 -26.3 L-7.45 -24.9 -8.6 -23.55 -9.7 -22.25 -11.8 -19.5 -12.2 -18.85 -12.4 -18.7 -12.6 -18.35 -11.9 -18.9 -11.15 -19.4 -8.0 -21.4 -6.25 -22.35 -4.75 -23.05 -2.6 -24.0 -2.4 -24.1 M-8.35 -10.0 L-6.75 -9.1 Q-4.75 -8.05 -2.6 -7.2 L-2.4 -7.1 Q-3.7 -4.8 -6.15 -4.9 L-8.8 -7.85 -9.8 -9.1 -10.95 -10.5 -12.4 -12.5 -12.6 -12.85 -11.9 -12.3 -10.25 -11.15 -8.35 -10.0 M-20.65 -22.8 L-19.7 -21.55 -17.55 -18.7 -17.35 -18.35 -18.05 -18.9 -22.05 -21.45 -23.3 -22.15 -24.0 -22.5 -25.45 -23.2 -27.35 -24.0 -27.55 -24.1 Q-26.25 -26.4 -23.8 -26.3 L-22.6 -25.0 -21.35 -23.6 -20.65 -22.8 M-20.9 -10.4 L-18.05 -12.3 -17.35 -12.85 -17.55 -12.5 -17.6 -12.45 -17.65 -12.35 -19.65 -9.65 -20.25 -8.9 -21.25 -7.7 -23.8 -4.9 Q-26.25 -4.8 -27.55 -7.1 L-27.35 -7.2 Q-25.25 -8.05 -23.3 -9.05 L-21.8 -9.85 -20.9 -10.4 Z" fill="none" stroke="#780c16" stroke-linecap="round" stroke-linejoin="round" stroke-width="1.0"/>
    </g>
  </defs>
</svg>
