<?xml version="1.0" encoding="UTF-8" standalone="no"?>
<svg xmlns:ffdec="https://www.free-decompiler.com/flash" xmlns:xlink="http://www.w3.org/1999/xlink" ffdec:objectType="frame" height="30.1px" width="30.0px" xmlns="http://www.w3.org/2000/svg">
  <g transform="matrix(1.0, 0.0, 0.0, 1.0, 0.0, 0.0)">
    <use ffdec:characterId="1" height="30.0" transform="matrix(1.0, 0.0, 0.0, 1.0, 0.0, 0.0)" width="30.0" xlink:href="#shape0"/>
    <use ffdec:characterId="3" height="30.0" transform="matrix(1.0, 0.0, 0.0, 1.0, 0.0, 0.1)" width="30.0" xlink:href="#sprite0"/>
  </g>
  <defs>
    <g id="shape0" transform="matrix(1.0, 0.0, 0.0, 1.0, 0.0, 0.0)">
      <path d="M0.0 0.0 L30.0 0.0 30.0 30.0 0.0 30.0 0.0 0.0" fill="#33cc66" fill-opacity="0.0" fill-rule="evenodd" stroke="none"/>
    </g>
    <g id="sprite0" transform="matrix(1.0, 0.0, 0.0, 1.0, 30.0, 30.0)">
      <use ffdec:characterId="2" height="30.0" transform="matrix(1.0, 0.0, 0.0, 1.0, -30.0, -30.0)" width="30.0" xlink:href="#shape1"/>
    </g>
    <g id="shape1" transform="matrix(1.0, 0.0, 0.0, 1.0, 30.0, 30.0)">
      <path d="M0.0 -26.7 L0.0 -3.3 -0.2 -1.85 Q-0.85 0.0 -3.3 0.0 L-26.7 0.0 Q-29.15 0.0 -29.8 -1.85 L-30.0 -3.3 -30.0 -26.7 Q-30.0 -29.3 -27.95 -29.85 L-26.7 -30.0 -3.3 -30.0 -2.05 -29.85 Q0.0 -29.3 0.0 -26.7" fill="#949bd0" fill-rule="evenodd" stroke="none"/>
      <path d="M-7.5 -26.75 L-6.55 -23.5 Q-5.7 -20.8 -5.55 -17.1 -5.4 -13.45 -6.1 -11.2 L-7.6 -6.1 Q-10.2 -6.05 -16.3 -4.45 L-22.85 -2.85 -23.55 -2.9 Q-22.7 -8.9 -22.7 -11.4 -22.7 -17.85 -23.55 -22.3 L-24.45 -25.9 -18.95 -26.35 -10.75 -27.05 -7.5 -26.75 Z" fill="none" stroke="#ffffff" stroke-linecap="round" stroke-linejoin="round" stroke-width="3.5"/>
      <path d="M-7.5 -26.75 L-6.55 -23.5 Q-5.7 -20.8 -5.55 -17.1 -5.4 -13.45 -6.1 -11.2 L-7.6 -6.1 Q-10.2 -6.05 -16.3 -4.45 L-22.85 -2.85 -23.55 -2.9 Q-22.7 -8.9 -22.7 -11.4 -22.7 -17.85 -23.55 -22.3 L-24.45 -25.9 -18.95 -26.35 -10.75 -27.05 -7.5 -26.75 M-9.6 -18.2 L-7.1 -18.65 Q-7.05 -20.4 -7.65 -22.25 -8.2 -23.85 -8.55 -23.85 L-10.7 -23.35 Q-10.25 -22.2 -9.9 -20.6 L-9.6 -18.2 M-13.3 -23.0 L-15.05 -22.7 -14.5 -20.55 -13.85 -17.6 -11.4 -18.1 -12.1 -22.1 Q-12.35 -23.15 -13.3 -23.0 M-19.6 -22.1 L-19.05 -19.85 -18.35 -16.7 -16.05 -17.4 -16.95 -21.95 Q-17.05 -22.45 -18.2 -22.45 L-18.75 -22.4 -19.6 -22.1 M-8.75 -13.0 L-19.85 -10.6 -8.75 -13.0 M-8.0 -10.95 L-15.15 -9.15 -20.3 -7.9 -15.15 -9.15 -8.0 -10.95 M-12.85 -7.6 L-18.75 -6.45 -12.85 -7.6 M-7.6 -15.1 L-14.75 -14.0 Q-18.65 -13.45 -19.2 -12.85 -18.65 -13.45 -14.75 -14.0 L-7.6 -15.1" fill="#ff9900" fill-rule="evenodd" stroke="none"/>
      <path d="M-13.3 -23.0 Q-12.35 -23.15 -12.1 -22.1 L-11.4 -18.1 -13.85 -17.6 -14.5 -20.55 -15.05 -22.7 -13.3 -23.0 M-9.6 -18.2 L-9.9 -20.6 Q-10.25 -22.2 -10.7 -23.35 L-8.55 -23.85 Q-8.2 -23.85 -7.65 -22.25 -7.05 -20.4 -7.1 -18.65 L-9.6 -18.2 M-19.6 -22.1 L-18.75 -22.4 -18.2 -22.45 Q-17.05 -22.45 -16.95 -21.95 L-16.05 -17.4 -18.35 -16.7 -19.05 -19.85 -19.6 -22.1" fill="#330000" fill-rule="evenodd" stroke="none"/>
      <path d="M-7.5 -26.75 L-6.55 -23.5 Q-5.7 -20.8 -5.55 -17.1 -5.4 -13.45 -6.1 -11.2 L-7.6 -6.1 Q-10.2 -6.05 -16.3 -4.45 L-22.85 -2.85 -23.55 -2.9 Q-22.7 -8.9 -22.7 -11.4 -22.7 -17.85 -23.55 -22.3 L-24.45 -25.9 -18.95 -26.35 -10.75 -27.05 -7.5 -26.75" fill="none" stroke="#330000" stroke-linecap="round" stroke-linejoin="round" stroke-width="1.0"/>
      <path d="M-19.2 -12.85 Q-18.65 -13.45 -14.75 -14.0 L-7.6 -15.1 M-18.75 -6.45 L-12.85 -7.6 M-20.3 -7.9 L-15.15 -9.15 -8.0 -10.95 M-19.85 -10.6 L-8.75 -13.0" fill="none" stroke="#330000" stroke-linecap="round" stroke-linejoin="round" stroke-width="0.5"/>
    </g>
  </defs>
</svg>
