<?xml version="1.0" encoding="UTF-8" standalone="no"?>
<svg xmlns:ffdec="https://www.free-decompiler.com/flash" xmlns:xlink="http://www.w3.org/1999/xlink" ffdec:objectType="frame" height="30.0px" width="30.0px" xmlns="http://www.w3.org/2000/svg">
  <g transform="matrix(1.0, 0.0, 0.0, 1.0, 0.0, 0.0)">
    <use ffdec:characterId="1" height="30.0" transform="matrix(1.0, 0.0, 0.0, 1.0, 0.0, 0.0)" width="30.0" xlink:href="#shape0"/>
    <use ffdec:characterId="3" height="30.0" transform="matrix(1.0, 0.0, 0.0, 1.0, 0.0, 0.0)" width="30.0" xlink:href="#sprite0"/>
  </g>
  <defs>
    <g id="shape0" transform="matrix(1.0, 0.0, 0.0, 1.0, 0.0, 0.0)">
      <path d="M0.0 0.0 L30.0 0.0 30.0 30.0 0.0 30.0 0.0 0.0" fill="#33cc66" fill-opacity="0.0" fill-rule="evenodd" stroke="none"/>
    </g>
    <g id="sprite0" transform="matrix(1.0, 0.0, 0.0, 1.0, 0.0, 30.0)">
      <use ffdec:characterId="2" height="30.0" transform="matrix(1.0, 0.0, 0.0, 1.0, 0.0, -30.0)" width="30.0" xlink:href="#shape1"/>
    </g>
    <g id="shape1" transform="matrix(1.0, 0.0, 0.0, 1.0, 0.0, 30.0)">
      <path d="M0.0 -3.3 L0.0 -26.7 Q0.0 -30.0 3.3 -30.0 L26.7 -30.0 Q30.0 -30.0 30.0 -26.7 L30.0 -3.3 Q30.0 0.0 26.7 0.0 L3.3 0.0 Q0.0 0.0 0.0 -3.3" fill="#70cb4e" fill-rule="evenodd" stroke="none"/>
      <path d="M13.3 -10.9 L16.6 -10.9 16.6 -3.3 23.1 -3.3 23.1 -10.9 26.5 -10.9 Q24.05 -15.1 19.9 -18.1 L18.7 -17.15 Q15.25 -14.25 13.3 -10.9 Z" fill="none" stroke="#ffffff" stroke-linecap="round" stroke-linejoin="round" stroke-width="3.5"/>
      <path d="M13.7 -26.5 Q18.35 -26.65 23.5 -25.2 23.8 -18.8 22.85 -12.8 20.35 -7.55 15.1 -4.0 L14.65 -3.8 13.7 -3.55 13.55 -3.5 Q12.75 -3.5 12.15 -4.0 6.85 -7.55 4.4 -12.75 3.45 -18.75 4.25 -25.25 8.85 -26.6 13.55 -26.5 L13.7 -26.5 Z" fill="none" stroke="#ffffff" stroke-linecap="round" stroke-linejoin="round" stroke-width="3.5"/>
      <path d="M13.7 -4.3 L17.5 -7.45 Q19.8 -9.6 21.6 -12.55 L21.85 -13.1 22.2 -15.05 22.4 -18.35 22.4 -19.2 22.4 -19.6 22.2 -24.1 21.85 -24.4 20.15 -24.9 17.35 -25.35 13.7 -25.5 13.7 -26.5 Q18.4 -26.65 23.4 -25.2 23.8 -18.8 22.9 -12.8 20.35 -7.6 15.15 -4.0 L14.85 -3.8 14.8 -3.9 13.7 -3.55 13.7 -4.3" fill="#c27807" fill-rule="evenodd" stroke="none"/>
      <path d="M13.7 -25.5 L17.35 -25.35 20.15 -24.9 21.85 -24.4 22.2 -24.1 22.4 -19.6 22.4 -19.2 22.4 -18.35 22.2 -15.05 21.85 -13.1 21.6 -12.55 Q19.8 -9.6 17.5 -7.45 L13.7 -4.3 13.7 -4.45 13.7 -7.6 13.8 -7.65 14.35 -7.7 14.85 -7.95 Q18.5 -10.45 20.3 -14.1 20.95 -18.4 20.35 -23.0 17.05 -23.95 13.7 -23.8 L13.7 -25.5" fill="#ea8f09" fill-rule="evenodd" stroke="none"/>
      <path d="M13.7 -4.3 L13.7 -3.55 13.6 -3.5 Q12.8 -3.5 12.15 -4.0 6.9 -7.55 4.4 -12.75 3.45 -18.75 4.3 -25.25 8.9 -26.6 13.6 -26.5 L13.7 -26.5 13.7 -25.5 13.65 -25.5 9.7 -25.2 Q6.6 -24.9 5.55 -24.3 L5.25 -24.3 Q4.75 -17.65 5.45 -12.55 L5.85 -12.2 Q9.45 -6.75 13.7 -4.45 L13.7 -4.3" fill="#f39700" fill-rule="evenodd" stroke="none"/>
      <path d="M13.7 -25.5 L13.7 -23.8 13.7 -23.75 13.6 -23.75 6.9 -22.95 Q6.3 -18.35 6.95 -14.05 8.75 -10.45 12.4 -7.9 12.9 -7.55 13.6 -7.6 L13.7 -7.6 13.7 -4.45 Q9.45 -6.75 5.85 -12.2 L5.45 -12.55 Q4.75 -17.65 5.25 -24.3 L5.55 -24.3 Q6.6 -24.9 9.7 -25.2 L13.65 -25.5 13.7 -25.5" fill="#ffff33" fill-rule="evenodd" stroke="none"/>
      <path d="M13.7 -23.8 Q17.05 -23.95 20.35 -23.0 20.95 -18.4 20.3 -14.1 18.5 -10.45 14.85 -7.95 L14.35 -7.7 14.3 -7.85 Q17.1 -9.75 19.25 -13.7 L19.35 -13.9 Q19.95 -18.35 19.25 -22.95 16.45 -23.7 13.7 -23.75 L13.7 -23.8 M13.7 -7.6 L13.6 -7.6 Q12.9 -7.55 12.4 -7.9 8.75 -10.45 6.95 -14.05 6.3 -18.35 6.9 -22.95 L13.6 -23.75 13.7 -23.75 13.7 -7.65 13.7 -7.6" fill="#ffff99" fill-rule="evenodd" stroke="none"/>
      <path d="M13.7 -23.75 Q16.45 -23.7 19.25 -22.95 19.95 -18.35 19.35 -13.9 L19.25 -13.7 Q17.1 -9.75 14.3 -7.85 L13.8 -7.65 13.7 -7.65 13.7 -23.75" fill="#ffdf10" fill-rule="evenodd" stroke="none"/>
      <path d="M13.8 -7.65 L13.7 -7.6 13.7 -7.65 13.8 -7.65" fill="#9cfce8" fill-rule="evenodd" stroke="none"/>
      <path d="M14.35 -7.7 L13.8 -7.65 14.3 -7.85 14.35 -7.7" fill="#f0a028" fill-rule="evenodd" stroke="none"/>
      <path d="M14.85 -3.8 L15.15 -4.0 Q20.35 -7.6 22.9 -12.8 23.8 -18.8 23.4 -25.2 18.4 -26.65 13.7 -26.5 L13.6 -26.5 Q8.9 -26.6 4.3 -25.25 3.45 -18.75 4.4 -12.75 6.9 -7.55 12.15 -4.0 12.8 -3.5 13.6 -3.5 L13.7 -3.55 14.85 -3.8" fill="none" stroke="#805028" stroke-linecap="round" stroke-linejoin="round" stroke-width="0.8"/>
      <path d="M13.7 -23.8 Q17.05 -23.95 20.35 -23.0 20.95 -18.4 20.3 -14.1 18.5 -10.45 14.85 -7.95 L14.35 -7.7 13.8 -7.65 13.7 -7.6 13.6 -7.6 Q12.9 -7.55 12.4 -7.9 8.75 -10.45 6.95 -14.05 6.3 -18.35 6.9 -22.95 L13.6 -23.75 13.7 -23.75 M13.7 -7.65 L13.8 -7.65" fill="none" stroke="#f39700" stroke-linecap="round" stroke-linejoin="round" stroke-width="0.8"/>
      <path d="M6.4 -17.95 L6.8 -18.3 7.2 -18.5 10.55 -19.65 Q12.75 -23.75 13.25 -23.95 L14.4 -23.8 Q15.05 -23.4 16.65 -19.35 18.8 -18.8 20.35 -17.95 L20.55 -17.85 20.9 -17.65 21.0 -16.85 20.5 -17.35 Q20.3 -16.55 18.6 -16.05 16.65 -15.55 16.65 -14.85 L16.9 -13.3 17.15 -11.75 Q17.15 -10.95 16.75 -10.95 16.15 -10.95 14.95 -12.1 13.75 -13.25 13.2 -13.25 12.7 -13.25 11.65 -12.15 10.65 -11.05 9.9 -11.05 9.55 -11.05 9.55 -11.35 L10.0 -13.25 10.45 -14.95 Q10.45 -15.4 8.6 -16.2 6.7 -16.95 6.7 -17.5 L6.8 -17.9 6.4 -17.95 M12.15 -21.25 L11.2 -19.2 Q11.05 -18.7 10.25 -18.6 L8.95 -18.4 7.75 -18.05 7.55 -18.05 7.35 -17.65 Q7.35 -17.3 9.25 -16.7 11.05 -16.1 11.05 -15.2 L10.8 -14.0 10.55 -12.9 10.65 -12.5 10.85 -12.35 11.85 -13.1 Q12.75 -13.9 13.35 -13.9 13.75 -13.9 14.65 -13.3 15.5 -12.7 15.75 -12.7 16.0 -12.7 16.05 -13.05 L15.95 -14.85 Q15.95 -15.95 17.7 -16.35 19.45 -16.8 19.45 -17.45 L19.1 -18.0 18.65 -18.05 18.3 -18.15 Q16.45 -18.5 16.1 -18.9 L14.95 -21.2 Q14.05 -23.15 13.65 -23.15 13.1 -23.15 12.15 -21.25" fill="#ffc000" fill-rule="evenodd" stroke="none"/>
      <path d="M12.15 -21.25 Q13.1 -23.15 13.65 -23.15 14.05 -23.15 14.95 -21.2 L16.1 -18.9 Q16.45 -18.5 18.3 -18.15 L18.65 -18.05 19.1 -18.0 19.45 -17.45 Q19.45 -16.8 17.7 -16.35 15.95 -15.95 15.95 -14.85 L16.05 -13.05 Q16.0 -12.7 15.75 -12.7 15.5 -12.7 14.65 -13.3 13.75 -13.9 13.35 -13.9 12.75 -13.9 11.85 -13.1 L10.85 -12.35 10.65 -12.5 10.55 -12.9 10.8 -14.0 11.05 -15.2 Q11.05 -16.1 9.25 -16.7 7.35 -17.3 7.35 -17.65 L7.55 -18.05 7.75 -18.05 8.95 -18.4 10.25 -18.6 Q11.05 -18.7 11.2 -19.2 L12.15 -21.25 M18.6 -17.25 Q19.15 -17.75 18.35 -17.9 L16.9 -18.0 16.55 -17.75 Q16.45 -17.5 16.65 -17.4 L18.0 -17.1 18.6 -17.25 M10.2 -17.4 L10.5 -17.6 Q11.1 -18.3 10.0 -18.4 L9.15 -18.2 Q8.75 -18.15 8.5 -17.85 8.0 -17.3 8.8 -17.3 L10.2 -17.4 M12.5 -21.6 L11.9 -19.6 12.0 -19.25 Q12.7 -18.6 13.0 -19.65 L13.6 -21.05 Q14.0 -21.95 13.3 -22.45 12.7 -22.25 12.5 -21.6" fill="#ffe450" fill-rule="evenodd" stroke="none"/>
      <path d="M12.5 -21.6 Q12.7 -22.25 13.3 -22.45 14.0 -21.95 13.6 -21.05 L13.0 -19.65 Q12.7 -18.6 12.0 -19.25 L11.9 -19.6 12.5 -21.6 M10.2 -17.4 L8.8 -17.3 Q8.0 -17.3 8.5 -17.85 8.75 -18.15 9.15 -18.2 L10.0 -18.4 Q11.1 -18.3 10.5 -17.6 L10.2 -17.4 M18.6 -17.25 L18.0 -17.1 16.65 -17.4 Q16.45 -17.5 16.55 -17.75 L16.9 -18.0 18.35 -17.9 Q19.15 -17.75 18.6 -17.25" fill="#f8f8f8" fill-rule="evenodd" stroke="none"/>
      <path d="M6.4 -17.95 L6.8 -17.9 6.7 -17.5 Q6.7 -16.95 8.6 -16.2 10.45 -15.4 10.45 -14.95 L10.0 -13.25 9.55 -11.35 Q9.55 -11.05 9.9 -11.05 10.65 -11.05 11.65 -12.15 12.7 -13.25 13.2 -13.25 13.75 -13.25 14.95 -12.1 16.15 -10.95 16.75 -10.95 17.15 -10.95 17.15 -11.75 L16.9 -13.3 16.65 -14.85 Q16.65 -15.55 18.6 -16.05 20.3 -16.55 20.5 -17.35 L21.0 -16.85 Q20.6 -15.7 17.6 -14.5 18.9 -11.0 18.15 -9.65 16.75 -8.65 13.25 -12.0 10.85 -9.85 9.25 -9.7 7.6 -9.6 9.45 -14.55 6.65 -15.9 6.25 -16.8 5.95 -17.5 6.4 -17.95" fill="#f39700" fill-rule="evenodd" stroke="none"/>
      <path d="M20.35 -17.95 Q18.8 -18.8 16.65 -19.35 15.05 -23.4 14.4 -23.8 L13.25 -23.95 Q12.75 -23.75 10.55 -19.65 L7.2 -18.5 6.8 -18.3 6.4 -17.95 Q5.95 -17.5 6.25 -16.8 6.65 -15.9 9.45 -14.55 7.6 -9.6 9.25 -9.7 10.85 -9.85 13.25 -12.0 16.75 -8.65 18.15 -9.65 18.9 -11.0 17.6 -14.5 20.6 -15.7 21.0 -16.85 L20.9 -17.65 20.55 -17.85" fill="none" stroke="#805028" stroke-linecap="round" stroke-linejoin="round" stroke-width="1.0"/>
      <path d="M17.15 -14.6 L17.35 -15.0 18.0 -15.8 18.6 -16.05 18.95 -15.7 17.95 -14.05 Q16.8 -12.65 16.8 -14.0 L17.15 -14.6" fill="#ffffff" fill-rule="evenodd" stroke="none"/>
      <path d="M17.95 -3.35 L17.95 -11.85 15.7 -11.85 Q15.8 -12.7 17.15 -14.6 L16.8 -14.0 Q16.8 -12.65 17.95 -14.05 L18.95 -15.7 18.6 -16.05 18.0 -15.8 19.95 -18.4 22.15 -15.1 24.1 -11.9 21.9 -11.9 21.9 -9.2 21.9 -7.45 21.85 -7.45 21.85 -3.35 21.85 -3.3 17.95 -3.3 17.95 -3.35 21.85 -3.35 17.95 -3.35" fill="#74c84e" fill-rule="evenodd" stroke="none"/>
      <path d="M18.7 -17.4 Q17.35 -15.9 19.95 -18.4 L18.0 -15.8 17.35 -15.0 17.15 -14.6 Q15.8 -12.7 15.7 -11.85 L17.95 -11.85 17.95 -3.35 16.5 -3.35 17.95 -3.35 17.95 -3.3 16.5 -3.3 16.5 -3.35 16.5 -10.8 13.0 -10.8 Q15.1 -14.3 18.7 -17.4" fill="#c7f36c" fill-rule="evenodd" stroke="none"/>
      <path d="M19.95 -18.4 Q17.35 -15.9 18.7 -17.4 L19.95 -18.4" fill="#cb2c1b" fill-rule="evenodd" stroke="none"/>
      <path d="M19.95 -18.4 Q24.35 -15.2 26.95 -10.8 L23.35 -10.8 23.35 -3.35 23.35 -3.3 21.85 -3.3 21.85 -3.35 23.35 -3.35 21.85 -3.35 21.85 -7.45 21.9 -7.45 21.9 -9.2 21.9 -11.9 24.1 -11.9 22.15 -15.1 19.95 -18.4" fill="#3b861d" fill-rule="evenodd" stroke="none"/>
      <path d="M19.95 -18.4 L18.7 -17.4 Q15.1 -14.3 13.0 -10.8 L16.5 -10.8 16.5 -3.35 17.95 -3.35 21.85 -3.35 23.35 -3.35 23.35 -10.8 26.95 -10.8 Q24.35 -15.2 19.95 -18.4 Z" fill="none" stroke="#005909" stroke-linecap="round" stroke-linejoin="round" stroke-width="1.0"/>
    </g>
  </defs>
</svg>
