<?xml version="1.0" encoding="UTF-8" standalone="no"?>
<svg xmlns:ffdec="https://www.free-decompiler.com/flash" xmlns:xlink="http://www.w3.org/1999/xlink" ffdec:objectType="frame" height="30.0px" width="30.0px" xmlns="http://www.w3.org/2000/svg">
  <g transform="matrix(1.0, 0.0, 0.0, 1.0, 0.0, 0.0)">
    <use ffdec:characterId="1" height="30.0" transform="matrix(1.0, 0.0, 0.0, 1.0, 0.0, 0.0)" width="30.0" xlink:href="#shape0"/>
  </g>
  <defs>
    <g id="shape0" transform="matrix(1.0, 0.0, 0.0, 1.0, 0.0, 0.0)">
      <path d="M0.0 0.0 L30.0 0.0 30.0 30.0 0.0 30.0 0.0 0.0" fill="#33cc66" fill-opacity="0.0" fill-rule="evenodd" stroke="none"/>
      <path d="M3.3 30.0 Q0.0 30.0 0.0 26.7 L0.0 3.3 Q0.0 0.0 3.3 0.0 L26.7 0.0 Q30.0 0.0 30.0 3.3 L30.0 26.7 Q30.0 30.0 26.7 30.0 L3.3 30.0" fill="#a56db4" fill-rule="evenodd" stroke="none"/>
      <path d="M21.5 7.0 L21.75 7.0 21.8 6.6 Q21.95 5.8 22.55 5.2 L23.55 4.6 24.35 4.5 25.2 4.65 25.3 4.2 M11.6 5.4 L11.35 5.3 11.05 6.3 10.8 6.65 10.75 6.7 10.9 7.0 11.1 7.6 11.2 7.8 11.35 8.55 11.8 8.2 12.65 7.85 12.7 7.8 13.1 7.25 13.1 7.15 13.1 7.05 13.15 7.05 13.6 7.15 13.8 7.1 14.55 6.9 14.7 6.8 14.95 6.35 14.95 6.3 14.6 5.75 14.35 5.6 14.55 5.6 15.1 5.55 15.95 5.65 16.15 5.75 16.7 5.95 16.75 5.95 Q17.35 6.3 17.7 6.75 L17.85 6.75 18.4 6.6 18.45 6.5 18.65 7.0 19.1 7.6 19.55 8.1 19.8 8.35 19.95 8.5 20.05 8.55 20.15 8.8 20.25 9.25 20.25 9.45 20.25 9.75 20.55 9.75 Q20.7 8.65 21.7 7.95 L21.9 7.85 21.85 7.7 21.75 7.0 M11.35 8.55 L11.3 8.6 11.05 8.85 10.85 9.05 10.85 9.15 11.35 9.75 11.45 10.0 11.5 10.2 11.7 10.05 Q12.7 9.45 13.85 9.45 14.6 9.45 15.0 9.85 L15.45 10.4 16.8 10.85 17.45 11.15 17.6 11.25 17.7 11.35 18.1 11.65 18.55 12.15 19.0 11.2 Q19.45 10.45 19.95 10.4 L20.1 10.1 20.25 9.75 M16.8 14.75 L16.7 15.55 16.65 15.75 16.55 16.1 16.45 16.55 15.9 17.45 15.25 18.0 14.9 17.9 14.9 17.85 14.45 17.5 13.5 18.1 12.65 18.3 12.5 18.05 12.3 16.85 12.35 16.6 11.5 16.3 10.85 15.8 10.9 15.75 11.5 14.65 11.55 14.6 11.85 14.25 12.1 14.05 12.25 13.45 12.25 13.35 Q11.8 13.35 11.5 13.05 L11.3 12.3 Q11.3 11.55 12.0 10.95 L12.05 10.85 Q12.65 10.4 13.2 10.4 13.7 10.4 14.0 10.7 14.3 11.0 14.25 11.4 L14.2 11.55 14.15 11.65 14.45 11.55 15.05 11.45 15.7 11.65 15.8 11.9 15.8 12.0 16.15 11.95 Q16.55 11.95 16.85 12.25 L17.1 12.7 16.95 12.85 16.7 12.95 16.8 13.25 16.85 13.45 16.9 13.85 16.9 14.0 16.85 14.1 16.8 14.4 M14.15 11.65 L14.05 11.8 13.8 12.0 13.15 12.2 Q12.45 11.8 13.1 11.35 M16.7 12.95 L16.45 12.65 M20.55 9.75 L20.7 9.8 21.2 9.15 21.6 8.8 22.0 8.6 22.25 8.5 22.25 8.45 21.9 7.85 M20.7 9.8 L20.9 9.85 Q21.1 9.65 21.4 9.55 M21.6 11.05 L21.75 11.1 21.8 11.2 21.75 11.15 21.6 11.05 21.3 11.1 21.1 11.25 21.35 11.55 21.4 11.65 21.6 11.8 21.65 11.85 21.8 11.9 21.95 12.0 Q22.6 11.45 22.65 10.6 L22.65 10.55 22.45 9.9 22.1 9.55 21.7 9.5 M22.4 9.15 L22.65 8.95 22.55 8.8 22.25 8.5 M17.3 20.45 Q17.3 20.2 17.95 20.0 L18.7 19.9 18.75 19.5 18.75 19.45 18.9 18.55 18.9 18.4 18.9 18.3 18.45 18.3 18.4 18.3 17.0 18.0 16.55 17.65 16.65 16.6 16.7 16.1 17.1 14.9 17.4 14.45 17.85 14.0 Q18.3 13.7 18.65 13.7 L19.1 13.85 19.3 13.45 19.45 13.3 19.65 13.15 19.65 13.05 19.8 12.75 20.4 12.65 20.35 12.45 20.45 12.2 20.7 12.1 20.8 12.1 21.1 12.2 21.15 12.25 21.45 12.95 21.3 13.25 21.1 13.35 21.2 13.45 21.2 13.55 21.5 13.9 21.65 14.2 21.7 14.55 21.75 15.0 21.85 15.05 22.1 15.35 21.85 15.65 21.65 15.85 21.7 16.3 21.65 16.75 21.65 16.8 21.6 16.95 21.55 17.05 21.1 16.9 21.0 16.85 20.8 16.7 20.7 16.65 20.55 16.85 20.45 17.0 20.15 17.35 20.05 17.85 19.9 17.95 19.5 18.15 19.0 18.25 18.9 18.3 M10.85 9.15 L10.25 9.0 Q9.7 9.0 9.2 9.45 8.6 10.0 8.6 10.75 L8.6 10.8 8.65 11.25 8.85 11.65 Q9.15 12.1 9.75 12.1 L9.95 12.1 10.05 12.35 10.25 12.7 10.1 12.95 9.95 13.35 9.7 14.35 9.9 14.4 10.0 14.4 10.55 14.25 10.65 14.2 10.6 14.4 10.45 14.8 10.35 15.05 10.0 16.85 10.0 16.95 10.0 17.1 10.0 17.35 10.05 17.6 10.05 17.7 11.25 18.55 Q12.25 19.05 13.4 19.1 13.4 20.05 13.95 20.55 14.45 20.95 15.0 20.95 L16.35 20.65 16.55 20.6 16.75 20.85 16.8 21.0 17.0 21.15 17.3 21.4 17.3 21.45 17.35 21.4 18.6 21.15 18.75 21.15 19.1 21.25 19.25 21.25 19.6 21.5 20.25 20.75 20.55 20.15 20.9 20.35 21.1 20.4 21.5 20.0 21.6 19.8 21.85 19.0 21.85 18.7 21.85 18.35 21.8 18.1 21.85 18.1 22.2 18.0 22.35 17.9 22.55 17.8 22.55 17.6 22.55 17.05 22.55 16.25 22.25 15.4 21.95 14.55 Q21.6 13.35 21.6 12.6 L21.65 12.4 21.5 12.2 21.3 11.9 21.2 11.7 21.0 11.4 20.8 11.1 20.55 10.8 19.95 10.4 M20.4 12.65 L20.6 12.85 M19.6 21.5 L19.7 21.6 19.85 21.8 19.95 22.05 19.85 22.45 20.15 22.65 20.55 23.05 20.7 22.7 21.0 21.9 21.6 21.9 22.2 21.9 22.25 21.85 22.85 21.6 23.35 21.2 23.65 20.8 23.4 20.85 22.7 20.8 22.45 20.7 22.1 20.45 22.65 19.95 22.9 19.7 23.3 19.25 24.35 17.75 24.85 16.15 24.95 15.65 24.95 15.55 25.0 14.95 24.95 14.5 24.55 12.9 24.5 12.75 24.45 12.85 Q24.05 13.4 23.3 13.45 L23.15 13.45 22.6 13.25 22.55 13.25 Q22.2 12.95 22.2 12.4 L22.25 12.05 21.95 12.0 M8.2 1.45 L8.2 1.75 Q9.1 1.9 9.8 2.25 L10.45 2.7 11.1 3.45 11.4 4.7 11.35 5.3 M5.6 2.25 L5.8 2.45 Q6.8 1.6 8.1 1.75 L8.2 1.75 M10.75 6.7 L10.6 6.9 10.2 7.25 10.35 7.45 10.75 8.0 10.95 8.4 11.05 8.85 M4.55 4.2 L4.8 4.25 Q4.95 3.25 5.75 2.5 L5.8 2.45 M4.95 6.7 L5.3 6.4 Q4.75 5.65 4.75 4.7 L4.8 4.25 M6.85 8.05 L6.95 7.65 Q6.3 7.4 5.8 7.0 L5.3 6.4 M19.85 22.45 L19.5 23.0 19.35 23.15 19.25 23.05 19.75 23.6 19.85 23.6 20.25 23.75 20.5 23.75 21.1 23.7 21.6 23.5 21.65 23.5 22.05 23.2 22.35 22.9 22.45 23.05 22.45 23.1 22.6 23.3 22.7 23.5 22.9 23.9 23.05 24.2 23.15 24.55 23.15 24.6 23.2 25.4 23.15 26.0 23.1 26.2 23.0 26.5 22.45 27.5 22.25 27.7 21.75 28.15 Q21.05 28.65 20.0 28.75 L19.5 28.85 18.55 28.8 Q17.4 28.7 16.75 28.15 15.95 27.45 15.85 26.4 L15.85 26.15 15.85 25.6 Q15.95 24.85 16.35 24.25 L16.75 23.5 16.35 23.35 16.1 22.7 16.15 22.5 16.15 22.45 15.8 22.65 Q15.3 22.95 15.15 23.5 L14.85 23.15 14.75 22.9 14.45 21.95 Q13.45 22.5 12.3 22.5 L11.3 22.35 11.25 22.35 11.3 22.3 Q11.7 21.85 11.7 21.45 L11.7 21.1 10.3 20.95 10.0 20.9 9.9 20.85 9.35 20.75 9.1 20.7 8.3 20.45 6.2 19.45 5.75 19.15 5.4 18.9 Q4.1 17.9 3.5 16.55 L3.4 16.4 Q3.05 15.4 3.05 14.2 L3.05 13.9 3.05 13.7 3.35 11.9 3.45 11.55 3.95 10.5 4.0 10.45 4.0 10.6 4.2 11.65 4.2 11.7 4.75 12.3 5.0 12.4 6.45 12.7 6.55 12.7 7.15 12.7 7.2 12.6 7.3 11.85 7.2 11.25 7.15 11.1 7.3 11.15 8.1 11.3 8.25 11.3 8.65 11.25 M10.2 7.25 L9.55 7.55 9.1 7.7 8.35 7.8 6.95 7.65 M10.2 11.15 L10.5 11.25 10.55 11.25 10.75 11.45 M20.15 17.35 L20.15 16.9 20.15 16.55 20.1 16.4 20.05 16.25 20.05 16.2 20.05 15.75 19.6 14.45 19.4 14.15 19.3 14.0 19.1 13.85 M17.3 21.45 L17.2 21.5 16.8 21.8 Q16.65 21.9 16.45 22.1 L16.15 22.45 M16.75 23.5 L17.1 23.3 17.5 23.1 18.55 22.9 18.6 22.9 19.0 22.95 19.25 23.05 M18.7 19.9 L18.75 19.85 19.0 19.85 19.7 19.9 19.75 19.95 20.05 20.15 M25.2 4.65 L26.15 5.2 26.35 5.45 Q26.9 6.1 26.9 7.0 L27.2 7.0 M26.65 8.65 L26.5 8.4 26.15 8.8 25.45 9.3 24.85 9.5 24.9 9.9 M23.45 9.75 L23.55 9.45 22.65 8.95 M24.85 9.5 L24.35 9.55 23.55 9.45 M26.9 7.0 Q26.9 7.8 26.5 8.4" fill="none" stroke="#ffffff" stroke-linecap="round" stroke-linejoin="round" stroke-width="2.0"/>
      <path d="M16.65 6.0 L16.7 6.0 Q17.3 6.35 17.65 6.8 L17.8 6.8 18.35 6.65 18.4 6.55 18.6 7.05 16.7 6.75 16.85 7.1 17.2 7.7 17.35 8.0 17.25 8.0 16.7 7.15 16.2 6.75 16.15 6.75 14.95 6.85 14.8 6.95 13.9 7.2 13.75 7.15 14.5 6.95 14.65 6.85 14.9 6.85 14.95 6.85 15.25 6.2 15.3 6.2 15.35 6.15 15.75 6.4 16.2 6.75 16.3 6.75 16.6 6.75 16.65 6.75 16.0 6.05 16.0 6.0 16.5 6.0 16.65 6.0 M21.05 23.75 L21.55 23.55 21.6 23.55 21.75 23.8 21.8 23.85 Q21.55 24.25 20.75 24.65 L20.75 25.0 20.75 25.1 19.3 25.35 19.05 25.3 20.1 24.95 20.75 24.65 20.85 24.1 21.05 23.75 M23.1 24.6 L23.1 24.65 23.15 25.45 23.1 26.05 23.05 26.25 22.95 26.55 22.4 27.55 22.2 27.75 21.7 28.2 21.35 27.6 21.15 27.2 Q20.75 26.25 20.75 25.2 L20.75 25.1 22.05 24.75 22.3 24.65 22.4 24.95 22.5 25.9 22.55 25.65 22.65 25.4 22.75 24.55 22.8 24.55 23.05 24.6 23.1 24.6 M21.7 9.95 L21.75 9.8 21.9 9.8 22.0 9.85 22.2 10.05 22.15 10.2 21.95 10.2 21.7 9.95 M10.05 9.3 L10.15 9.25 10.3 9.3 10.6 9.5 10.6 9.6 10.5 9.7 10.35 9.7 10.2 9.7 10.0 9.45 10.05 9.3" fill="#ec6525" fill-rule="evenodd" stroke="none"/>
      <path d="M21.85 7.9 L21.8 7.75 21.7 7.05 21.75 6.65 Q21.9 5.85 22.5 5.25 22.95 4.8 23.5 4.65 L24.3 4.55 25.15 4.7 26.1 5.25 26.3 5.5 Q26.85 6.15 26.85 7.05 26.85 7.85 26.45 8.45 L26.1 8.85 25.4 9.35 24.8 9.55 24.3 9.6 23.5 9.5 22.6 9.0 22.5 8.85 22.2 8.55 22.2 8.5 21.85 7.9 M22.55 7.25 L22.5 7.55 22.5 7.65 22.65 8.0 22.75 8.05 22.8 8.05 22.95 8.05 23.6 8.65 24.0 9.1 24.05 9.0 24.35 8.7 24.1 8.6 24.2 8.15 23.55 8.25 23.45 8.25 23.05 8.0 23.0 8.0 22.6 7.3 22.55 7.25 M8.15 1.8 L9.75 2.3 10.4 2.75 11.05 3.5 11.35 4.75 11.3 5.35 11.0 6.35 10.75 6.7 10.7 6.75 10.55 6.95 10.15 7.3 9.5 7.6 9.05 7.75 8.3 7.85 6.9 7.7 Q6.25 7.45 5.75 7.05 L5.25 6.45 Q4.7 5.7 4.7 4.75 L4.75 4.3 Q4.9 3.3 5.7 2.55 L5.75 2.5 Q6.75 1.65 8.05 1.8 L8.15 1.8 M7.45 2.35 L7.1 2.45 Q6.65 2.65 6.3 3.0 5.65 3.65 5.55 4.55 L5.9 4.35 6.15 4.25 6.0 4.65 5.95 4.75 5.75 5.25 5.8 5.25 5.95 5.3 5.95 5.6 5.9 5.9 5.95 5.95 6.45 6.25 6.9 6.25 6.95 6.25 7.35 6.9 7.5 6.6 7.7 6.35 7.85 6.35 8.5 6.45 9.3 6.3 9.35 6.3 9.4 6.25 9.4 6.2 9.35 6.2 8.9 6.05 8.75 5.9 9.5 5.5 9.6 5.6 9.65 5.7 9.75 5.2 10.25 4.65 10.5 4.1 Q10.5 3.45 9.4 2.9 8.4 2.35 7.45 2.35 M6.75 5.4 L6.55 5.05 6.75 4.85 6.75 5.4 M23.95 5.05 L23.8 5.1 Q23.4 5.15 23.15 5.5 L22.85 6.2 22.9 6.45 23.0 6.4 23.45 6.25 23.3 6.65 23.25 7.05 23.25 7.1 23.5 7.3 23.6 7.3 24.5 7.6 24.55 7.6 24.85 7.6 24.95 7.95 25.0 8.15 25.05 8.0 25.15 7.75 25.2 7.5 25.5 7.3 25.6 7.2 25.65 7.2 25.8 7.3 25.85 7.1 25.8 6.9 25.85 6.75 Q25.85 5.85 25.25 5.4 24.75 5.05 24.25 5.05 L24.05 5.05 23.95 5.05 M25.8 8.05 L25.8 8.15 25.7 8.55 25.9 8.15 25.8 8.05 M24.15 7.2 L24.2 7.35 23.9 7.2 23.8 7.05 23.85 7.05 24.1 7.0 24.1 7.1 24.15 7.2" fill="#d9ac19" fill-rule="evenodd" stroke="none"/>
      <path d="M15.25 6.2 L14.95 6.85 14.9 6.85 14.65 6.85 14.9 6.4 14.9 6.35 15.25 6.2 M16.2 6.75 L15.75 6.4 15.35 6.15 15.6 6.1 16.0 6.05 16.65 6.75 16.6 6.75 16.3 6.75 16.2 6.75 M20.75 25.1 L20.75 25.0 20.75 24.65 Q21.55 24.25 21.8 23.85 L22.2 24.3 22.3 24.3 22.4 24.4 22.75 24.55 22.65 25.4 22.55 25.65 22.5 25.9 22.4 24.95 22.3 24.65 22.05 24.75 20.75 25.1" fill="#fea723" fill-rule="evenodd" stroke="none"/>
      <path d="M18.6 7.05 L19.05 7.65 19.5 8.15 19.75 8.4 19.9 8.55 20.0 8.6 19.8 8.55 19.15 8.35 17.35 8.0 17.65 8.95 17.45 8.3 17.25 8.0 16.7 7.9 14.45 7.8 14.1 7.8 13.1 7.85 13.2 7.45 13.15 7.35 13.1 7.1 13.55 7.2 13.75 7.15 13.9 7.2 14.8 6.95 14.95 6.85 16.15 6.75 16.2 6.75 16.7 7.15 17.25 8.0 17.35 8.0 17.2 7.7 16.85 7.1 16.7 6.75 18.6 7.05 M20.2 23.8 L20.45 23.8 21.05 23.75 20.85 24.1 20.75 24.65 20.1 24.95 19.05 25.3 19.3 25.35 20.75 25.1 20.75 25.2 Q20.75 26.25 21.15 27.2 L21.35 27.6 21.7 28.2 Q21.0 28.7 19.95 28.8 L19.45 28.9 18.5 28.85 18.4 28.5 18.4 27.85 18.55 26.4 18.85 25.35 18.9 25.3 19.05 25.1 19.35 24.6 20.2 23.8" fill="#de3925" fill-rule="evenodd" stroke="none"/>
      <path d="M15.25 6.2 L14.9 6.35 14.55 5.8 14.3 5.65 14.5 5.65 15.05 5.6 15.9 5.7 16.1 5.8 15.8 5.9 15.85 5.9 16.0 6.05 15.6 6.1 15.35 6.15 15.25 6.15 15.25 6.2 M15.15 5.75 L15.05 5.75 15.05 5.8 15.0 5.85 15.1 5.95 15.25 6.0 15.4 5.95 15.45 5.9 15.25 5.75 15.15 5.75 M21.6 23.55 L22.0 23.25 22.3 22.95 22.4 23.1 22.4 23.15 22.55 23.35 22.65 23.55 22.85 23.95 23.0 24.25 23.1 24.6 23.05 24.6 22.75 24.35 22.75 24.4 22.75 24.55 22.4 24.4 22.3 24.3 22.2 24.3 21.8 23.85 21.8 23.8 21.75 23.8 21.6 23.55 M22.4 23.4 L22.3 23.35 22.2 23.55 22.25 23.75 22.3 23.75 22.3 23.85 22.35 23.85 22.45 23.9 22.55 23.8 22.6 23.65 22.5 23.5 22.4 23.4" fill="#feb323" fill-rule="evenodd" stroke="none"/>
      <path d="M15.35 6.15 L15.3 6.2 15.25 6.2 15.25 6.15 15.35 6.15 M16.0 6.05 L15.85 5.9 15.8 5.9 16.1 5.8 16.65 6.0 16.5 6.0 16.0 6.0 16.0 6.05 M21.8 23.85 L21.75 23.8 21.8 23.8 21.8 23.85 M22.75 24.55 L22.75 24.4 22.75 24.35 23.05 24.6 22.8 24.55 22.75 24.55" fill="#fe8723" fill-rule="evenodd" stroke="none"/>
      <path d="M15.15 5.75 L15.25 5.75 15.45 5.9 15.4 5.95 15.25 6.0 15.1 5.95 15.0 5.85 15.05 5.8 15.05 5.75 15.15 5.75 M22.4 23.4 L22.5 23.5 22.6 23.65 22.55 23.8 22.45 23.9 22.35 23.85 22.3 23.85 22.3 23.75 22.25 23.75 22.2 23.55 22.3 23.35 22.4 23.4" fill="#ffef20" fill-rule="evenodd" stroke="none"/>
      <path d="M13.1 7.85 L14.1 7.8 14.45 7.8 16.7 7.9 17.25 8.0 17.45 8.3 17.65 8.95 17.35 8.0 19.15 8.35 19.8 8.55 19.8 8.75 19.7 9.1 19.75 9.2 19.8 9.4 19.8 9.55 19.7 9.8 19.7 9.9 19.4 10.35 19.05 10.65 18.6 10.45 18.3 10.2 18.0 10.55 17.85 10.65 17.65 10.75 17.45 10.7 16.95 10.35 16.75 10.05 16.45 10.15 16.05 10.05 15.4 9.7 14.85 8.95 14.7 8.75 13.45 9.2 12.35 9.3 12.2 8.85 12.65 8.45 13.1 7.85 M15.9 9.35 L15.95 9.5 16.15 9.75 16.3 9.2 16.3 8.7 15.9 9.35 M10.8 9.2 L11.3 9.8 11.4 10.05 11.15 10.4 11.15 10.45 10.95 10.6 10.5 10.75 10.45 10.75 10.2 10.65 10.1 10.65 9.75 10.75 9.4 10.9 9.05 10.95 8.55 10.8 Q8.55 10.05 9.15 9.5 9.65 9.05 10.2 9.05 L10.8 9.2 M21.35 9.6 L21.45 9.55 21.65 9.55 22.05 9.6 22.4 9.95 22.6 10.6 22.6 10.65 22.05 10.8 21.75 10.75 21.55 10.75 Q21.15 10.55 21.15 10.0 L21.35 9.6 M19.8 23.65 L20.2 23.8 19.35 24.6 19.05 25.1 18.9 25.3 18.85 25.35 18.55 26.4 18.4 27.85 18.4 28.5 17.8 28.2 17.65 28.0 17.55 27.75 17.2 27.65 16.9 27.5 Q16.75 27.05 16.75 26.35 L16.7 25.95 Q16.7 25.25 16.85 24.6 L17.0 24.05 17.25 24.05 17.4 24.05 17.55 23.85 17.65 23.65 18.05 23.75 18.35 23.85 18.9 23.95 18.85 23.65 18.85 23.55 19.15 23.65 19.55 23.7 19.8 23.65 M21.7 9.95 L21.95 10.2 22.15 10.2 22.2 10.05 22.0 9.85 21.9 9.8 21.75 9.8 21.7 9.95 M19.35 10.05 L19.35 9.8 19.35 9.5 19.25 9.8 19.15 10.0 19.35 10.05 M10.05 9.3 L10.0 9.45 10.2 9.7 10.35 9.7 10.5 9.7 10.6 9.6 10.6 9.5 10.3 9.3 10.15 9.25 10.05 9.3 M7.8 15.2 L7.75 16.25 7.75 16.55 6.9 15.75 6.85 15.7 6.4 15.55 6.15 15.4 6.3 14.85 6.4 14.9 6.8 15.0 7.45 15.15 7.8 15.2 M17.7 25.4 L17.7 25.45 17.75 25.35 18.1 24.3 17.65 24.55 17.7 25.3 17.7 25.4" fill="#d92a27" fill-rule="evenodd" stroke="none"/>
      <path d="M20.0 8.6 L20.1 8.85 20.2 9.3 20.2 9.5 20.2 9.8 20.5 9.8 20.65 9.85 20.85 9.9 21.35 9.6 21.15 10.0 Q21.15 10.55 21.55 10.75 L21.75 10.75 22.05 10.8 22.6 10.65 Q22.55 11.5 21.9 12.05 L21.75 11.95 21.6 11.9 21.55 11.85 21.55 11.8 21.7 11.6 21.8 11.4 21.8 11.3 21.75 11.25 21.7 11.15 21.55 11.1 21.25 11.15 21.05 11.3 21.3 11.6 21.35 11.7 21.55 11.85 21.5 12.2 21.45 12.25 21.25 11.95 21.15 11.75 20.95 11.45 20.75 11.15 20.5 10.85 Q20.2 10.55 19.9 10.45 19.4 10.5 18.95 11.25 L18.5 12.2 18.05 11.7 17.65 11.4 17.55 11.3 17.4 11.2 16.75 10.9 15.4 10.45 14.95 9.9 Q14.55 9.5 13.8 9.5 12.65 9.5 11.65 10.1 L11.45 10.25 11.4 10.05 11.45 10.25 11.45 10.45 11.45 10.5 11.4 10.85 11.05 11.3 10.7 11.6 10.7 11.5 10.5 11.3 10.45 11.3 10.15 11.2 10.1 11.2 10.0 11.25 9.9 11.4 9.85 11.4 9.85 11.45 9.95 11.7 10.0 11.7 10.15 11.8 10.25 11.8 10.4 11.8 10.25 11.95 10.2 12.05 10.15 12.05 10.1 12.1 10.0 12.1 9.9 12.15 9.7 12.15 Q9.1 12.15 8.8 11.7 L8.6 11.3 8.55 10.85 8.55 10.8 9.05 10.95 9.4 10.9 9.75 10.75 10.1 10.65 10.2 10.65 10.45 10.75 10.5 10.75 10.95 10.6 11.15 10.45 11.15 10.4 11.4 10.05 11.3 9.8 10.8 9.2 10.8 9.1 11.0 8.9 11.25 8.65 11.3 8.6 11.75 8.25 12.6 7.9 13.1 7.85 12.65 8.45 12.2 8.85 12.35 9.3 13.45 9.2 14.7 8.75 14.85 8.95 15.4 9.7 16.05 10.05 16.45 10.15 16.75 10.05 16.95 10.35 17.45 10.7 17.65 10.75 17.85 10.65 18.0 10.55 18.3 10.2 18.6 10.45 19.05 10.65 19.4 10.35 19.7 9.9 19.7 9.8 19.8 9.55 19.8 9.4 19.75 9.2 19.7 9.1 19.8 8.75 19.8 8.55 20.0 8.6 M15.9 9.35 L16.3 8.7 16.3 9.2 16.15 9.75 15.95 9.5 15.9 9.35 M20.2 9.8 L20.05 10.15 19.9 10.45 20.05 10.15 20.2 9.8 M19.2 23.1 L19.7 23.65 19.8 23.65 19.55 23.7 19.15 23.65 18.85 23.55 18.85 23.65 18.9 23.95 18.35 23.85 18.05 23.75 17.65 23.65 17.55 23.85 17.4 24.05 17.25 24.05 17.0 24.05 16.85 24.6 Q16.7 25.25 16.7 25.95 L16.75 26.35 Q16.75 27.05 16.9 27.5 L17.2 27.65 17.55 27.75 17.65 28.0 17.8 28.2 18.4 28.5 18.5 28.85 Q17.35 28.75 16.7 28.2 15.9 27.5 15.8 26.45 L15.8 26.2 15.8 25.65 Q15.9 24.9 16.3 24.3 L16.7 23.55 17.05 23.35 17.45 23.15 18.5 22.95 18.55 22.95 18.95 23.0 19.2 23.1 M19.35 10.05 L19.15 10.0 19.25 9.8 19.35 9.5 19.35 9.8 19.35 10.05 M17.7 25.4 L17.7 25.3 17.65 24.55 18.1 24.3 17.75 25.35 17.7 25.45 17.7 25.4" fill="#a61715" fill-rule="evenodd" stroke="none"/>
      <path d="M13.1 7.1 L13.15 7.35 13.2 7.45 13.1 7.85 12.6 7.9 12.65 7.85 13.05 7.3 13.05 7.2 13.05 7.1 13.1 7.1" fill="#ad2616" fill-rule="evenodd" stroke="none"/>
      <path d="M11.45 10.25 L11.65 10.1 Q12.65 9.5 13.8 9.5 14.55 9.5 14.95 9.9 L15.4 10.45 16.75 10.9 17.4 11.2 17.55 11.3 17.65 11.4 18.05 11.7 18.5 12.2 18.95 11.25 Q19.4 10.5 19.9 10.45 20.2 10.55 20.5 10.85 L20.75 11.15 20.75 11.2 20.65 11.25 20.6 11.45 20.35 11.2 20.1 10.9 Q19.55 11.25 19.15 12.05 L18.7 13.15 17.65 11.9 17.4 11.75 17.35 11.7 Q16.25 10.9 14.95 10.9 L14.8 10.9 14.8 10.55 14.75 10.4 14.55 10.25 13.6 10.1 Q12.4 10.1 11.6 10.65 L11.4 10.85 11.45 10.5 11.45 10.45 11.45 10.25 M11.0 14.55 L10.8 15.0 10.65 15.55 Q10.3 16.8 10.3 17.4 L10.3 17.6 10.9 18.05 11.5 18.35 13.85 18.7 14.0 18.7 14.0 18.75 13.9 19.25 Q13.9 20.1 14.5 20.4 L15.45 20.5 16.25 20.5 16.6 20.45 16.8 20.4 17.0 20.65 17.15 20.75 17.5 21.0 17.7 20.9 18.75 20.75 19.45 20.8 19.6 20.85 20.0 20.2 20.25 19.65 20.6 19.85 20.9 19.95 21.35 19.0 21.35 18.9 21.45 17.85 21.9 17.65 22.05 17.6 22.1 17.5 22.15 16.7 22.15 16.55 22.2 15.45 22.5 16.3 22.5 16.95 22.5 17.1 22.5 17.65 22.5 17.85 22.3 17.95 22.15 18.05 21.8 18.15 21.75 18.15 21.8 18.4 21.8 18.75 21.8 19.05 21.55 19.85 21.45 20.05 21.05 20.45 20.85 20.4 20.5 20.2 20.2 20.8 19.55 21.55 19.2 21.3 19.05 21.3 18.7 21.2 18.55 21.2 17.3 21.45 17.25 21.5 17.25 21.45 16.95 21.2 16.75 21.05 16.7 20.9 16.5 20.65 16.3 20.7 14.95 21.0 Q14.4 21.0 13.9 20.6 13.35 20.1 13.35 19.15 L11.2 18.6 10.0 17.75 10.0 17.65 9.95 17.4 9.95 17.15 9.95 17.0 9.95 16.9 10.3 15.1 10.4 14.85 10.55 14.45 10.6 14.25 10.5 14.3 9.95 14.45 9.85 14.45 9.65 14.4 9.9 13.4 10.05 13.0 10.2 12.75 10.0 12.4 9.9 12.15 10.0 12.1 10.1 12.1 10.15 12.05 10.2 12.05 10.25 11.95 10.3 12.05 10.55 12.45 10.7 12.75 10.5 13.2 10.4 13.5 10.25 13.95 10.65 13.95 10.8 13.95 11.2 13.9 11.05 14.25 11.0 14.35 11.0 14.55" fill="#f3fcf9" fill-rule="evenodd" stroke="none"/>
      <path d="M11.4 10.85 L11.6 10.65 Q12.4 10.1 13.6 10.1 L14.55 10.25 14.75 10.4 14.8 10.55 14.8 10.9 14.95 10.9 Q16.25 10.9 17.35 11.7 L17.4 11.75 17.65 11.9 18.7 13.15 19.15 12.05 Q19.55 11.25 20.1 10.9 L20.35 11.2 20.6 11.45 20.65 11.25 20.75 11.2 20.75 11.15 20.95 11.45 21.15 11.75 21.25 11.95 20.85 11.85 20.3 12.0 Q20.05 12.15 20.05 12.45 L20.0 12.45 Q19.3 12.6 19.3 13.1 L19.3 13.2 19.05 13.3 18.85 13.65 18.1 13.5 17.45 13.65 17.3 13.7 17.25 13.6 17.25 13.5 17.15 13.1 17.25 12.75 17.0 12.05 Q16.65 11.55 16.15 11.6 L16.0 11.45 Q15.75 11.15 15.15 11.15 L14.4 11.25 Q14.35 10.25 13.45 10.25 12.65 10.25 11.75 10.95 L10.9 11.95 11.0 12.15 Q11.0 12.85 11.45 13.3 L11.85 13.7 11.5 14.15 11.25 14.4 11.0 14.55 11.0 14.35 11.05 14.25 11.2 13.9 10.8 13.95 10.65 13.95 10.25 13.95 10.4 13.5 10.5 13.2 10.7 12.75 10.55 12.45 10.3 12.05 10.25 11.95 10.4 11.8 10.5 11.7 10.7 11.65 10.7 11.6 11.05 11.3 11.4 10.85 M17.8 12.65 L17.7 12.55 17.55 12.55 17.5 12.55 17.55 12.65 17.7 12.7 17.8 12.65" fill="#f2a227" fill-rule="evenodd" stroke="none"/>
      <path d="M14.15 11.6 L14.05 11.6 13.9 11.75 13.65 11.9 13.35 11.95 Q13.05 11.95 13.05 11.65 L13.05 11.5 13.1 11.4 13.05 11.4 Q12.4 11.85 13.1 12.25 L13.75 12.05 14.0 11.85 14.1 11.7 14.4 11.6 15.0 11.5 15.65 11.7 15.75 11.95 15.75 12.05 16.1 12.0 Q16.5 12.0 16.8 12.3 L17.05 12.75 16.9 12.9 16.65 13.0 16.75 13.3 16.8 13.5 16.85 13.9 16.85 14.05 16.8 14.15 16.75 14.05 16.45 13.5 16.4 13.45 Q15.95 12.8 15.15 12.55 L14.65 12.45 14.2 12.45 Q13.55 12.45 13.05 12.75 L12.9 12.8 12.85 12.85 12.6 12.9 12.0 12.7 11.75 11.85 11.95 11.05 12.0 10.9 Q12.6 10.45 13.15 10.45 13.65 10.45 13.95 10.75 14.25 11.05 14.2 11.45 L14.15 11.6 M16.4 12.7 L16.65 13.0 16.4 12.7 M15.85 17.5 L15.2 18.05 14.85 17.95 14.85 17.9 14.4 17.55 13.45 18.15 12.6 18.35 12.45 18.1 12.25 16.9 12.3 16.65 11.45 16.35 10.8 15.85 10.85 15.8 11.45 14.7 11.5 14.65 11.8 14.3 11.8 14.55 11.8 14.9 Q11.85 15.75 12.25 16.3 12.8 17.0 13.85 17.0 L14.95 16.9 15.65 16.65 15.9 16.55 16.5 16.15 16.4 16.6 15.85 17.5 M15.7 12.1 L15.65 12.0 15.35 12.05 15.05 11.95 15.0 12.05 15.05 12.25 15.15 12.3 15.35 12.35 15.55 12.25 15.7 12.1 15.7 12.05 15.75 12.05 15.7 12.05 15.7 12.1 M19.2 13.85 L19.15 13.75 19.25 13.5 19.4 13.35 19.6 13.2 19.6 13.1 Q19.6 12.9 19.75 12.8 L20.35 12.7 20.3 12.5 20.4 12.25 20.65 12.15 20.75 12.15 20.85 12.2 21.0 12.35 21.15 12.75 20.95 13.15 20.9 13.2 20.5 13.4 20.25 13.5 19.95 13.7 19.7 13.9 19.55 14.0 19.35 14.2 19.25 14.05 19.3 13.95 19.2 13.9 19.2 13.85 M21.7 15.05 L21.8 15.1 22.05 15.4 21.8 15.7 21.6 15.9 21.65 16.35 21.6 16.8 21.6 16.85 21.55 17.0 21.5 17.1 21.05 16.95 20.95 16.9 20.75 16.75 20.65 16.7 20.5 16.9 20.4 17.05 20.1 17.4 20.1 16.95 20.1 16.6 20.05 16.45 20.3 16.5 20.65 16.45 20.85 16.4 21.35 16.0 21.7 15.05 M20.55 12.9 L20.35 12.7 20.55 12.9 M17.25 21.5 L17.3 21.45 18.55 21.2 18.7 21.2 19.05 21.3 19.2 21.3 19.45 21.8 19.25 22.35 19.05 22.5 18.6 22.4 18.55 22.4 17.65 22.55 17.35 22.65 17.35 22.6 Q17.05 22.45 17.05 22.05 L17.15 21.55 17.25 21.5 M19.3 13.95 L19.45 14.0 19.55 14.0 19.45 14.0 19.3 13.95 M18.25 21.55 L18.2 21.65 18.3 21.75 18.45 21.85 18.6 21.9 18.65 21.9 18.85 21.85 18.85 21.75 18.65 21.55 18.35 21.45 18.3 21.45 18.25 21.55" fill="#37bae4" fill-rule="evenodd" stroke="none"/>
      <path d="M13.05 11.4 L13.1 11.4 13.05 11.5 13.05 11.65 Q13.05 11.95 13.35 11.95 L13.65 11.9 13.9 11.75 14.05 11.6 14.15 11.6 14.1 11.7 14.0 11.85 13.75 12.05 13.1 12.25 Q12.4 11.85 13.05 11.4 M12.0 10.9 L11.95 11.05 11.75 11.85 12.0 12.7 12.6 12.9 12.85 12.85 12.9 12.8 13.05 12.75 Q13.55 12.45 14.2 12.45 L14.65 12.45 15.15 12.55 Q15.95 12.8 16.4 13.45 L16.45 13.5 16.75 14.05 16.8 14.15 16.75 14.45 16.7 14.25 Q16.6 13.65 16.15 13.2 15.55 12.65 14.65 12.65 13.8 12.65 13.15 13.2 L12.9 13.55 Q12.55 14.05 12.5 14.7 12.5 15.55 13.05 16.15 13.6 16.75 14.6 16.7 15.65 16.65 16.2 16.25 L16.6 15.8 16.5 16.15 15.9 16.55 15.65 16.65 14.95 16.9 13.85 17.0 Q12.8 17.0 12.25 16.3 11.85 15.75 11.8 14.9 L11.8 14.55 11.8 14.3 12.05 14.1 12.2 13.5 12.2 13.4 Q11.75 13.4 11.45 13.1 L11.25 12.35 Q11.25 11.6 11.95 11.0 L12.0 10.9 M15.05 11.95 L15.35 12.05 15.65 12.0 15.7 12.1 15.55 12.25 15.35 12.35 15.15 12.3 15.05 12.25 15.0 12.05 15.05 11.95 M19.8 22.5 L19.45 23.05 19.3 23.2 19.2 23.1 18.95 23.0 18.55 22.95 18.5 22.95 17.45 23.15 17.05 23.35 16.7 23.55 16.3 23.4 Q16.05 23.2 16.05 22.75 L16.1 22.55 16.1 22.5 16.4 22.15 16.75 21.85 17.15 21.55 17.05 22.05 Q17.05 22.45 17.35 22.6 L17.35 22.65 17.65 22.55 18.55 22.4 18.6 22.4 19.05 22.5 19.25 22.35 19.45 21.8 19.2 21.3 19.55 21.55 19.65 21.65 19.8 21.85 19.9 22.1 19.8 22.5 M21.05 12.25 L21.1 12.3 21.4 13.0 21.25 13.3 21.05 13.4 21.15 13.5 21.15 13.6 20.85 13.5 Q20.5 13.45 20.2 13.85 L19.95 14.5 19.9 14.9 19.9 15.05 20.1 15.95 20.15 16.0 20.7 16.4 20.85 16.4 20.65 16.45 20.3 16.5 20.05 16.45 20.0 16.3 20.0 16.25 20.0 15.8 19.55 14.5 19.35 14.2 19.55 14.0 19.7 13.9 19.95 13.7 20.25 13.5 20.5 13.4 20.9 13.2 20.95 13.15 21.15 12.75 21.0 12.35 21.05 12.25" fill="#1a7abf" fill-rule="evenodd" stroke="none"/>
      <path d="M14.15 11.6 L14.2 11.45 Q14.25 11.05 13.95 10.75 13.65 10.45 13.15 10.45 12.6 10.45 12.0 10.9 L11.95 11.0 Q11.25 11.6 11.25 12.35 L11.45 13.1 Q11.75 13.4 12.2 13.4 L12.2 13.5 12.05 14.1 11.8 14.3 11.5 14.65 11.45 14.7 10.85 15.8 10.8 15.85 11.45 16.35 12.3 16.65 12.25 16.9 12.45 18.1 12.6 18.35 13.45 18.15 14.4 17.55 14.85 17.9 14.85 17.95 15.2 18.05 15.85 17.5 15.8 17.65 15.85 17.9 15.9 18.05 16.7 18.4 16.95 18.5 18.05 18.7 18.2 18.7 18.15 19.25 18.1 19.55 17.65 19.8 16.85 20.15 16.65 20.15 16.65 20.2 16.6 20.4 16.6 20.45 16.25 20.5 15.45 20.5 14.5 20.4 Q13.9 20.1 13.9 19.25 L14.0 18.75 14.0 18.7 13.85 18.7 11.5 18.35 10.9 18.05 10.3 17.6 10.3 17.4 Q10.3 16.8 10.65 15.55 L10.8 15.0 11.0 14.55 11.25 14.4 11.5 14.15 11.85 13.7 11.45 13.3 Q11.0 12.85 11.0 12.15 L10.9 11.95 11.75 10.95 Q12.65 10.25 13.45 10.25 14.35 10.25 14.4 11.25 L15.15 11.15 Q15.75 11.15 16.0 11.45 L16.15 11.6 Q16.65 11.55 17.0 12.05 L17.25 12.75 17.15 13.1 17.25 13.5 17.25 13.6 17.3 13.7 17.45 13.65 18.1 13.5 18.85 13.65 19.05 13.3 19.3 13.2 19.3 13.1 Q19.3 12.6 20.0 12.45 L20.05 12.45 Q20.05 12.15 20.3 12.0 L20.85 11.85 21.25 11.95 21.45 12.25 21.6 12.45 21.55 12.65 Q21.55 13.4 21.9 14.6 L22.2 15.45 22.15 16.55 22.15 16.7 22.1 17.5 22.05 17.6 21.9 17.65 21.45 17.85 21.35 18.9 21.35 19.0 20.9 19.95 20.6 19.85 20.25 19.65 20.0 20.2 19.7 20.0 20.0 20.2 19.6 20.85 19.45 20.8 18.75 20.75 17.7 20.9 17.5 21.0 17.15 20.75 17.0 20.65 17.15 20.55 17.25 20.5 Q17.95 20.15 18.75 20.15 L19.25 20.25 19.3 20.35 19.4 20.45 19.6 20.2 19.7 20.0 19.7 19.9 19.55 19.7 18.8 19.5 18.7 19.55 18.7 19.5 18.85 18.6 18.7 19.5 18.7 19.55 18.6 19.55 18.65 18.95 18.7 18.6 18.85 18.6 19.25 18.45 19.8 18.25 19.85 18.0 20.0 17.9 20.1 17.4 20.4 17.05 20.5 16.9 20.95 16.9 21.05 16.95 21.5 17.1 21.55 17.0 21.6 16.85 21.6 16.8 21.65 16.35 21.6 15.9 21.8 15.7 22.05 15.4 21.8 15.1 21.7 15.05 21.7 15.0 21.65 14.6 21.6 14.25 21.45 13.95 21.15 13.6 21.15 13.5 21.05 13.4 21.25 13.3 21.4 13.0 21.1 12.3 21.05 12.25 20.75 12.15 20.65 12.15 20.4 12.25 20.3 12.5 20.35 12.7 19.75 12.8 Q19.6 12.9 19.6 13.1 L19.6 13.2 19.4 13.35 19.25 13.5 19.15 13.75 19.2 13.85 19.2 13.9 19.3 13.95 19.25 14.05 Q18.95 13.75 18.6 13.75 18.25 13.75 17.8 14.05 L17.35 14.5 17.05 14.95 16.65 16.15 16.6 16.65 16.4 16.6 16.5 16.15 16.6 15.8 16.65 15.6 16.75 14.8 16.75 14.7 16.75 14.45 16.8 14.15 16.85 14.05 16.85 13.9 16.8 13.5 16.75 13.3 16.65 13.0 16.9 12.9 17.05 12.75 16.8 12.3 Q16.5 12.0 16.1 12.0 L15.75 12.05 15.75 11.95 15.65 11.7 15.0 11.5 14.4 11.6 14.1 11.7 14.15 11.6" fill="#d2761c" fill-rule="evenodd" stroke="none"/>
      <path d="M12.9 13.55 L13.15 13.2 Q13.8 12.65 14.65 12.65 15.55 12.65 16.15 13.2 16.6 13.65 16.7 14.25 L16.75 14.45 16.75 14.7 16.65 14.75 16.4 14.85 16.0 15.0 16.0 14.7 15.9 14.2 15.65 13.75 Q15.2 13.35 14.65 13.35 14.05 13.35 13.65 13.75 L13.45 13.95 13.3 14.35 13.25 14.25 12.9 13.55 M21.15 13.6 L21.45 13.95 21.6 14.25 21.65 14.6 21.7 15.0 21.65 15.05 21.6 15.1 21.3 15.25 21.35 14.95 21.35 14.65 21.3 14.55 21.2 14.35 20.8 14.05 Q20.6 14.05 20.4 14.35 L20.3 14.55 20.25 14.95 20.3 15.4 19.9 15.05 19.9 14.9 19.95 14.5 20.2 13.85 Q20.5 13.45 20.85 13.5 L21.15 13.6" fill="#ffffff" fill-rule="evenodd" stroke="none"/>
      <path d="M22.55 7.25 L22.6 7.3 23.0 8.0 23.05 8.0 23.45 8.25 23.55 8.25 24.2 8.15 24.1 8.6 24.35 8.7 24.05 9.0 24.0 9.1 23.6 8.65 22.95 8.05 22.8 8.05 22.75 8.05 22.65 8.0 22.5 7.65 22.5 7.55 22.55 7.25 M7.75 2.55 L7.3 2.7 6.9 3.35 Q6.9 3.7 7.25 3.8 L7.8 3.9 7.8 4.15 7.8 4.35 7.8 4.7 7.95 4.3 8.1 3.9 8.3 3.8 Q8.45 3.75 8.55 3.65 L8.8 3.3 8.35 2.75 7.75 2.55 M9.05 3.65 L9.15 3.7 9.35 3.9 9.35 3.85 9.25 3.65 9.15 3.4 9.05 3.65 M7.45 2.35 Q8.4 2.35 9.4 2.9 10.5 3.45 10.5 4.1 L10.25 4.65 9.75 5.2 9.65 5.7 9.6 5.6 9.5 5.5 8.75 5.9 8.9 6.05 9.35 6.2 9.4 6.2 9.4 6.25 9.35 6.3 9.3 6.3 8.5 6.45 7.85 6.35 7.7 6.35 7.5 6.6 7.35 6.9 6.95 6.25 6.9 6.25 6.45 6.25 5.95 5.95 5.9 5.9 5.95 5.6 5.95 5.3 5.8 5.25 5.75 5.25 5.95 4.75 6.0 4.65 6.15 4.25 5.9 4.35 5.55 4.55 Q5.65 3.65 6.3 3.0 6.65 2.65 7.1 2.45 L7.45 2.35 M6.75 5.4 L6.75 4.85 6.55 5.05 6.75 5.4 M23.95 5.05 L24.05 5.05 24.25 5.05 Q24.75 5.05 25.25 5.4 25.85 5.85 25.85 6.75 L25.8 6.9 25.85 7.1 25.8 7.3 25.65 7.2 25.6 7.2 25.5 7.3 25.2 7.5 25.15 7.75 25.05 8.0 25.0 8.15 24.95 7.95 24.85 7.6 24.55 7.6 24.5 7.6 23.6 7.3 23.5 7.3 23.25 7.1 23.25 7.05 23.3 6.65 23.45 6.25 23.0 6.4 22.9 6.45 22.85 6.2 23.15 5.5 Q23.4 5.15 23.8 5.1 L23.95 5.05 M24.2 5.9 L24.1 6.1 24.4 6.5 24.6 6.55 24.7 6.55 24.9 6.55 24.95 6.75 24.95 6.95 25.05 6.8 25.05 6.7 25.15 6.45 25.25 6.2 Q25.25 5.85 24.75 5.65 L24.45 5.55 24.2 5.9 M25.8 8.05 L25.9 8.15 25.7 8.55 25.8 8.15 25.8 8.05 M24.15 7.2 L24.1 7.1 24.1 7.0 23.85 7.05 23.8 7.05 23.9 7.2 24.2 7.35 24.15 7.2" fill="#f2c627" fill-rule="evenodd" stroke="none"/>
      <path d="M20.5 9.8 Q20.65 8.7 21.65 8.0 L21.85 7.9 22.2 8.5 22.2 8.55 21.95 8.65 21.9 8.6 21.7 8.15 21.55 8.35 21.25 8.95 21.15 9.2 20.65 9.85 20.5 9.8 M11.25 8.65 L11.0 8.9 10.9 8.45 10.7 8.05 10.3 7.5 10.15 7.3 10.55 6.95 10.7 6.75 10.85 7.05 10.75 7.2 10.65 7.4 10.85 7.9 11.25 8.65" fill="#1a5885" fill-rule="evenodd" stroke="none"/>
      <path d="M11.3 8.6 L11.25 8.65 10.85 7.9 10.65 7.4 10.75 7.2 10.85 7.05 11.05 7.65 11.15 7.85 11.3 8.6 M21.15 9.2 L21.25 8.95 21.55 8.35 21.7 8.15 21.9 8.6 21.95 8.65 21.55 8.85 21.15 9.2" fill="#2490ad" fill-rule="evenodd" stroke="none"/>
      <path d="M17.8 12.65 L17.7 12.7 17.55 12.65 17.5 12.55 17.55 12.55 17.7 12.55 17.8 12.65" fill="#ffdb35" fill-rule="evenodd" stroke="none"/>
      <path d="M21.55 11.1 L21.7 11.2 21.75 11.25 21.8 11.3 21.8 11.4 21.7 11.6 21.7 11.55 21.7 11.4 21.6 11.4 Q21.5 11.4 21.35 11.6 L21.3 11.6 21.05 11.3 21.25 11.15 21.55 11.1 M10.5 11.7 L10.4 11.7 10.45 11.6 10.4 11.5 10.35 11.45 10.25 11.4 10.15 11.45 10.1 11.5 10.0 11.55 10.0 11.5 9.9 11.4 10.0 11.25 10.1 11.2 10.15 11.2 10.45 11.3 10.5 11.3 10.7 11.5 10.7 11.6 10.7 11.65 10.5 11.7" fill="#c46419" fill-rule="evenodd" stroke="none"/>
      <path d="M21.3 11.6 L21.35 11.6 Q21.5 11.4 21.6 11.4 L21.7 11.4 21.7 11.55 21.7 11.6 21.55 11.8 21.55 11.85 21.35 11.7 21.3 11.6 M10.4 11.8 L10.25 11.8 10.15 11.8 10.0 11.7 9.95 11.7 9.85 11.45 9.85 11.4 9.9 11.4 10.0 11.5 10.0 11.55 10.1 11.5 10.15 11.45 10.25 11.4 10.35 11.45 10.4 11.5 10.45 11.6 10.4 11.7 10.5 11.7 10.4 11.8" fill="#f1a229" fill-rule="evenodd" stroke="none"/>
      <path d="M21.9 12.05 L22.2 12.1 22.15 12.45 Q22.15 13.0 22.5 13.3 L22.55 13.3 22.45 13.6 22.3 14.1 22.3 14.3 21.95 14.0 Q21.6 13.6 21.6 12.8 L21.7 12.2 21.7 12.15 21.75 11.95 21.9 12.05" fill="#eb4326" fill-rule="evenodd" stroke="none"/>
      <path d="M22.2 15.45 L21.9 14.6 Q21.55 13.4 21.55 12.65 L21.6 12.45 21.45 12.25 21.5 12.2 21.55 11.85 21.6 11.9 21.75 11.95 21.7 12.15 21.7 12.2 21.6 12.8 Q21.6 13.6 21.95 14.0 L22.3 14.3 22.4 14.35 23.25 14.55 23.35 14.55 23.6 14.55 23.9 14.5 23.75 14.8 23.25 15.75 23.25 15.85 23.0 16.25 22.75 16.55 22.5 16.95 22.5 16.3 22.2 15.45" fill="#de2827" fill-rule="evenodd" stroke="none"/>
      <path d="M7.75 2.55 L8.35 2.75 8.8 3.3 8.55 3.65 Q8.45 3.75 8.3 3.8 L8.1 3.9 7.95 4.3 7.8 4.7 7.8 4.35 7.8 4.15 7.8 3.9 7.25 3.8 Q6.9 3.7 6.9 3.35 L7.3 2.7 7.75 2.55 M9.05 3.65 L9.15 3.4 9.25 3.65 9.35 3.85 9.35 3.9 9.15 3.7 9.05 3.65 M24.2 5.9 L24.45 5.55 24.75 5.65 Q25.25 5.85 25.25 6.2 L25.15 6.45 25.05 6.7 25.05 6.8 24.95 6.95 24.95 6.75 24.9 6.55 24.7 6.55 24.6 6.55 24.4 6.5 24.1 6.1 24.2 5.9" fill="#ffd646" fill-rule="evenodd" stroke="none"/>
      <path d="M3.3 11.95 L3.4 11.6 3.9 10.55 3.95 10.5 3.95 10.65 4.15 11.7 4.15 11.75 4.7 12.35 4.95 12.45 4.8 12.65 4.15 13.2 3.75 12.75 3.7 12.65 3.65 12.6 3.45 12.3 3.45 12.2 3.3 11.95 M3.65 11.6 L3.6 11.7 3.55 11.9 3.55 12.05 3.65 12.15 3.8 12.25 3.85 12.25 3.95 12.1 4.0 12.0 4.0 11.95 3.85 11.6 3.65 11.6" fill="#fa9023" fill-rule="evenodd" stroke="none"/>
      <path d="M3.65 11.6 L3.85 11.6 4.0 11.95 4.0 12.0 3.95 12.1 3.85 12.25 3.8 12.25 3.65 12.15 3.55 12.05 3.55 11.9 3.6 11.7 3.65 11.6" fill="#eeec1e" fill-rule="evenodd" stroke="none"/>
      <path d="M3.35 16.45 Q3.0 15.45 3.0 14.25 L3.0 13.95 3.0 13.75 3.3 11.95 3.45 12.2 3.45 12.3 3.45 12.65 3.45 13.0 3.45 13.1 3.45 13.2 3.3 13.5 3.45 14.75 3.65 15.4 3.45 16.05 3.35 16.45" fill="#da3925" fill-rule="evenodd" stroke="none"/>
      <path d="M3.45 13.2 L3.45 13.1 3.45 13.0 3.45 12.65 3.45 12.3 3.65 12.6 3.7 12.65 3.75 12.75 4.15 13.2 4.25 13.3 4.6 13.55 4.8 13.9 4.95 14.25 4.5 14.55 4.45 14.6 4.0 14.8 Q3.55 14.15 3.45 13.2" fill="#ff8726" fill-rule="evenodd" stroke="none"/>
      <path d="M4.95 12.45 L6.4 12.75 6.45 13.2 6.3 13.8 6.3 13.9 6.25 13.95 5.35 13.85 5.05 13.7 4.6 13.55 4.25 13.3 4.15 13.2 4.8 12.65 4.95 12.45" fill="#ff8720" fill-rule="evenodd" stroke="none"/>
      <path d="M7.15 12.65 L7.25 11.9 7.15 11.3 7.1 11.15 7.25 11.2 8.05 11.35 7.95 11.95 7.9 12.25 7.85 12.45 7.8 12.6 7.8 12.55 7.75 12.45 7.45 12.55 7.15 12.65" fill="#b41c17" fill-rule="evenodd" stroke="none"/>
      <path d="M6.4 12.75 L6.5 12.75 7.1 12.75 7.15 12.65 7.45 12.55 7.75 12.45 7.8 12.55 7.8 12.6 7.85 12.8 7.85 12.85 7.75 13.5 7.45 13.9 6.75 13.95 6.4 13.95 6.3 13.95 6.25 13.95 6.3 13.9 6.3 13.8 6.45 13.2 6.4 12.75" fill="#e45a19" fill-rule="evenodd" stroke="none"/>
      <path d="M8.05 11.35 L8.2 11.35 8.6 11.3 8.8 11.7 Q9.1 12.15 9.7 12.15 L9.9 12.15 10.0 12.4 10.2 12.75 10.05 13.0 9.9 13.4 9.65 14.4 9.85 14.45 9.95 14.45 10.5 14.3 10.6 14.25 10.55 14.45 10.2 14.5 9.25 14.65 9.05 14.65 9.0 14.65 9.15 14.35 9.25 14.15 9.35 14.0 9.25 13.9 9.0 13.7 9.05 13.6 9.05 13.55 9.45 12.9 9.2 12.65 9.0 12.5 7.95 11.95 8.05 11.35 M10.3 15.1 L9.95 16.9 9.95 17.0 9.95 17.15 9.95 17.4 10.0 17.65 9.95 17.65 9.3 17.2 9.3 17.15 9.25 15.35 9.25 15.2 9.8 15.15 10.3 15.1" fill="#aa191c" fill-rule="evenodd" stroke="none"/>
      <path d="M7.9 12.25 L7.95 11.95 9.0 12.5 9.2 12.65 9.45 12.9 9.05 13.55 9.05 13.6 9.0 13.7 9.25 13.9 9.35 14.0 9.25 14.15 9.15 14.35 9.0 14.65 8.4 14.65 8.3 14.6 8.3 14.55 8.3 13.8 8.2 13.4 8.1 12.85 8.1 12.75 7.9 12.25" fill="#b31b18" fill-rule="evenodd" stroke="none"/>
      <path d="M7.8 12.6 L7.85 12.45 7.9 12.25 8.1 12.75 8.1 12.85 8.2 13.4 8.3 13.8 8.3 14.55 8.3 14.6 7.85 14.55 7.15 14.35 7.0 14.3 6.7 14.15 6.4 13.95 6.75 13.95 7.45 13.9 7.75 13.5 7.85 12.85 7.85 12.8 7.8 12.6" fill="#c5201e" fill-rule="evenodd" stroke="none"/>
      <path d="M9.0 14.65 L9.05 14.65 9.25 14.65 10.2 14.5 10.55 14.45 10.4 14.85 10.3 15.1 9.8 15.15 9.25 15.2 8.6 15.25 8.5 15.25 8.4 14.65 9.0 14.65" fill="#dd3221" fill-rule="evenodd" stroke="none"/>
      <path d="M7.15 14.35 L7.85 14.55 8.3 14.6 8.4 14.65 8.5 15.25 8.2 15.25 7.8 15.2 7.45 15.15 6.8 15.0 6.9 14.8 7.15 14.35" fill="#ed4b24" fill-rule="evenodd" stroke="none"/>
      <path d="M7.8 15.2 L8.2 15.25 8.5 15.25 8.6 15.25 9.25 15.2 9.25 15.35 9.3 17.15 9.3 17.2 9.35 18.4 8.35 17.15 8.3 17.05 7.75 16.55 7.75 16.25 7.8 15.2 M7.75 17.35 L8.05 17.7 8.4 18.25 9.05 19.35 9.35 20.0 9.4 20.2 9.25 20.15 8.45 19.6 7.95 19.2 7.75 17.35" fill="#d62626" fill-rule="evenodd" stroke="none"/>
      <path d="M7.75 16.55 L8.3 17.05 8.35 17.15 8.05 17.65 8.05 17.7 7.75 17.35 6.95 16.55 6.6 16.25 6.4 16.25 6.05 16.1 6.1 16.05 6.2 15.85 6.4 15.55 6.85 15.7 6.9 15.75 7.75 16.55" fill="#e23525" fill-rule="evenodd" stroke="none"/>
      <path d="M8.35 17.15 L9.35 18.4 9.95 19.5 9.55 19.45 9.05 19.35 8.4 18.25 8.05 17.7 8.05 17.65 8.35 17.15" fill="#dc3120" fill-rule="evenodd" stroke="none"/>
      <path d="M7.95 19.2 L7.65 18.9 7.55 19.15 7.55 19.2 Q6.45 18.9 5.6 18.2 L5.7 16.45 5.85 16.05 6.05 16.1 6.4 16.25 6.6 16.25 6.95 16.55 7.75 17.35 7.95 19.2" fill="#da2d26" fill-rule="evenodd" stroke="none"/>
      <path d="M9.3 20.8 L9.05 20.75 8.25 20.5 Q7.1 20.1 6.15 19.5 L5.7 19.2 5.35 18.95 5.35 18.9 5.25 17.9 5.6 18.2 Q6.45 18.9 7.55 19.2 L7.55 19.15 7.65 18.9 7.95 19.2 8.45 19.6 9.25 20.15 9.4 20.2 9.45 20.35 9.3 20.8 M10.0 17.65 L10.0 17.75 11.2 18.6 11.15 18.85 11.05 19.1 11.6 19.45 11.05 19.7 10.1 20.0 9.95 19.5 9.35 18.4 9.3 17.2 9.95 17.65 10.0 17.65" fill="#c51520" fill-rule="evenodd" stroke="none"/>
      <path d="M22.15 21.95 L21.55 21.95 20.95 21.95 20.65 22.75 20.5 23.1 20.1 22.7 19.8 22.5 19.9 22.1 19.8 21.85 19.65 21.65 19.55 21.55 20.2 20.8 20.5 20.2 20.85 20.4 21.05 20.45 21.45 20.05 21.55 19.85 21.8 19.05 21.8 18.75 21.8 18.4 21.75 18.15 21.8 18.15 22.15 18.05 22.3 17.95 22.5 17.85 22.5 17.65 22.65 17.55 22.75 17.4 22.75 17.6 22.65 18.05 22.25 18.35 22.1 18.55 22.1 18.6 22.0 19.05 22.0 19.2 22.0 19.25 21.8 19.85 21.7 20.15 21.15 20.8 21.05 20.9 20.65 20.7 20.35 21.2 20.15 21.75 20.25 21.85 20.4 22.0 20.6 21.9 21.2 21.75 22.15 21.95 M16.1 22.5 L15.75 22.7 Q15.25 23.0 15.1 23.55 L14.8 23.2 15.15 22.65 15.3 22.05 15.35 21.85 14.7 21.6 13.75 21.5 13.85 21.3 13.9 21.15 13.8 21.1 13.0 20.6 12.05 20.25 11.7 20.15 11.9 19.65 11.65 19.5 11.6 19.45 11.05 19.1 11.15 18.85 11.2 18.6 13.35 19.15 Q13.35 20.1 13.9 20.6 14.4 21.0 14.95 21.0 L16.3 20.7 16.5 20.65 16.7 20.9 16.75 21.05 16.95 21.2 17.25 21.45 17.25 21.5 17.15 21.55 16.75 21.85 16.4 22.15 16.1 22.5" fill="#a41215" fill-rule="evenodd" stroke="none"/>
      <path d="M4.8 13.9 L4.6 13.55 5.05 13.7 5.35 13.85 6.25 13.95 6.3 13.95 6.4 13.95 6.7 14.15 7.0 14.3 7.15 14.35 6.9 14.8 6.8 15.0 6.4 14.9 6.3 14.85 5.1 14.15 5.05 14.1 4.8 13.9" fill="#f45a26" fill-rule="evenodd" stroke="none"/>
      <path d="M4.0 14.8 L4.45 14.6 4.5 14.55 4.95 14.25 5.0 14.25 6.05 15.3 6.15 15.4 6.4 15.55 6.2 15.85 6.1 16.05 6.05 16.1 5.85 16.05 Q4.8 15.7 4.3 15.15 L4.25 15.1 4.0 14.8" fill="#fa7028" fill-rule="evenodd" stroke="none"/>
      <path d="M4.95 14.25 L4.8 13.9 5.05 14.1 5.1 14.15 6.3 14.85 6.15 15.4 6.05 15.3 5.0 14.25 4.95 14.25" fill="#f1492c" fill-rule="evenodd" stroke="none"/>
      <path d="M3.45 13.2 Q3.55 14.15 4.0 14.8 L4.25 15.1 4.3 15.15 3.85 15.8 3.65 15.4 3.45 14.75 3.3 13.5 3.45 13.2" fill="#fb5a26" fill-rule="evenodd" stroke="none"/>
      <path d="M5.35 18.95 Q4.05 17.95 3.45 16.6 L3.35 16.45 3.45 16.05 3.65 15.4 3.85 15.8 4.7 17.35 5.25 17.9 5.35 18.9 5.35 18.95" fill="#d22320" fill-rule="evenodd" stroke="none"/>
      <path d="M5.85 16.05 L5.7 16.45 5.6 18.2 5.25 17.9 4.7 17.35 3.85 15.8 4.3 15.15 Q4.8 15.7 5.85 16.05" fill="#f14628" fill-rule="evenodd" stroke="none"/>
      <path d="M22.85 19.75 L22.6 20.0 22.05 20.5 22.4 20.75 22.65 20.85 23.35 20.9 23.6 20.85 23.3 21.25 22.8 21.65 22.2 21.9 22.15 21.95 21.2 21.75 20.6 21.9 20.4 22.0 20.25 21.85 20.15 21.75 20.35 21.2 20.65 20.7 21.05 20.9 21.15 20.8 21.7 20.15 21.8 19.85 22.0 19.25 22.0 19.2 22.5 19.6 22.55 19.65 22.65 19.7 22.75 19.75 22.85 19.75 M14.8 23.2 L14.7 22.95 14.4 22.0 12.25 22.55 11.25 22.4 11.2 22.4 11.25 22.35 11.65 21.5 11.65 21.15 10.25 21.0 10.1 20.0 11.05 19.7 11.6 19.45 11.65 19.5 11.9 19.65 11.7 20.15 12.05 20.25 13.0 20.6 13.8 21.1 13.9 21.15 13.85 21.3 13.75 21.5 14.7 21.6 15.35 21.85 15.3 22.05 15.15 22.65 14.8 23.2" fill="#bf1e23" fill-rule="evenodd" stroke="none"/>
      <path d="M10.25 21.0 L9.95 20.95 9.85 20.9 9.3 20.8 9.45 20.35 9.4 20.2 9.35 20.0 9.05 19.35 9.55 19.45 9.95 19.5 10.1 20.0 10.25 21.0" fill="#bb1b1d" fill-rule="evenodd" stroke="none"/>
      <path d="M22.55 13.3 L23.1 13.5 23.25 13.5 23.2 14.25 23.25 14.55 22.4 14.35 22.3 14.3 22.3 14.1 22.45 13.6 22.55 13.3" fill="#ee5f25" fill-rule="evenodd" stroke="none"/>
      <path d="M13.3 14.35 L13.45 13.95 13.65 13.75 Q14.05 13.35 14.65 13.35 15.2 13.35 15.65 13.75 L15.9 14.2 16.0 14.7 16.0 15.0 15.65 15.75 Q15.2 16.15 14.65 16.15 14.05 16.15 13.65 15.75 13.25 15.3 13.25 14.7 L13.3 14.35 M20.5 14.65 L20.55 14.75 20.65 14.8 20.8 14.7 20.85 14.55 20.65 14.35 20.6 14.35 20.55 14.45 20.5 14.55 20.5 14.65 M20.3 15.4 L20.25 14.95 20.3 14.55 20.4 14.35 Q20.6 14.05 20.8 14.05 L21.2 14.35 21.3 14.55 21.35 14.65 21.35 14.95 21.3 15.25 21.2 15.55 20.8 15.8 20.5 15.7 20.4 15.55 20.3 15.4 M13.95 13.8 L13.9 13.85 13.85 14.0 13.8 14.1 13.95 14.45 14.1 14.5 14.4 14.35 14.45 14.15 14.45 14.05 14.3 13.85 14.1 13.75 14.0 13.75 13.95 13.8" fill="#0e1116" fill-rule="evenodd" stroke="none"/>
      <path d="M20.5 14.65 L20.5 14.55 20.55 14.45 20.6 14.35 20.65 14.35 20.85 14.55 20.8 14.7 20.65 14.8 20.55 14.75 20.5 14.65" fill="#fffafa" fill-rule="evenodd" stroke="none"/>
      <path d="M12.9 13.55 L13.25 14.25 13.3 14.35 13.25 14.7 Q13.25 15.3 13.65 15.75 14.05 16.15 14.65 16.15 15.2 16.15 15.65 15.75 L16.0 15.0 16.4 14.85 16.65 14.75 16.75 14.7 16.75 14.8 16.65 15.6 16.6 15.8 16.2 16.25 Q15.65 16.65 14.6 16.7 13.6 16.75 13.05 16.15 12.5 15.55 12.5 14.7 12.55 14.05 12.9 13.55 M21.7 15.0 L21.7 15.05 21.35 16.0 20.85 16.4 20.7 16.4 20.15 16.0 20.1 15.95 19.9 15.05 20.3 15.4 20.4 15.55 20.5 15.7 20.8 15.8 21.2 15.55 21.3 15.25 21.6 15.1 21.65 15.05 21.7 15.0" fill="#ffefe9" fill-rule="evenodd" stroke="none"/>
      <path d="M19.25 14.05 L19.35 14.2 19.55 14.5 20.0 15.8 19.25 14.85 19.15 15.1 18.95 16.0 18.9 16.45 18.8 15.9 18.7 15.5 18.25 14.4 17.65 14.7 17.35 14.95 17.35 14.65 17.35 14.5 17.8 14.05 Q18.25 13.75 18.6 13.75 18.95 13.75 19.25 14.05" fill="#64e721" fill-rule="evenodd" stroke="none"/>
      <path d="M17.35 14.95 L17.65 14.7 18.25 14.4 18.7 15.5 18.8 15.9 18.9 16.45 18.95 16.0 19.15 15.1 19.25 14.85 20.0 15.8 20.0 16.25 20.0 16.3 20.05 16.45 20.1 16.6 20.05 16.65 20.0 16.8 19.9 17.2 19.7 17.5 Q19.4 17.9 18.95 17.9 L18.4 17.75 17.95 17.45 17.55 16.8 Q17.3 16.15 17.3 15.2 L17.35 14.95" fill="#58c421" fill-rule="evenodd" stroke="none"/>
      <path d="M20.1 17.4 L20.0 17.9 19.85 18.0 19.45 18.2 18.95 18.3 18.85 18.35 18.4 18.35 18.35 18.35 16.95 18.05 16.5 17.7 16.6 16.65 16.65 16.15 17.05 14.95 17.35 14.5 17.35 14.65 17.35 14.95 17.3 15.2 Q17.3 16.15 17.55 16.8 L17.95 17.45 18.4 17.75 18.95 17.9 Q19.4 17.9 19.7 17.5 L19.9 17.2 20.0 16.8 20.05 16.65 20.1 16.6 20.1 16.95 20.1 17.4" fill="#298c13" fill-rule="evenodd" stroke="none"/>
      <path d="M16.6 20.45 L16.6 20.4 16.65 20.2 16.65 20.15 16.85 20.15 17.65 19.8 18.1 19.55 18.15 19.25 18.2 18.7 18.05 18.7 16.95 18.5 16.7 18.4 15.9 18.05 15.85 17.9 15.8 17.65 15.85 17.5 16.4 16.6 16.6 16.65 16.5 17.7 16.95 18.05 18.35 18.35 18.4 18.35 18.85 18.35 18.95 18.3 19.45 18.2 19.85 18.0 19.8 18.25 19.25 18.45 18.85 18.6 18.7 18.6 18.65 18.95 18.6 19.55 18.7 19.55 18.8 19.5 19.55 19.7 19.7 19.9 19.7 20.0 19.65 19.95 18.95 19.9 18.7 19.9 18.65 19.95 18.7 19.55 18.65 19.95 18.7 19.9 18.95 19.9 19.65 19.95 19.7 20.0 19.6 20.2 19.4 20.45 19.3 20.35 19.25 20.25 18.75 20.15 Q17.95 20.15 17.25 20.5 L17.15 20.55 17.0 20.65 16.8 20.4 16.6 20.45 M18.85 18.6 L18.85 18.45 18.85 18.35 18.85 18.45 18.85 18.6 M18.65 19.95 L17.9 20.05 Q17.25 20.25 17.25 20.5 17.25 20.25 17.9 20.05 L18.65 19.95" fill="#c25817" fill-rule="evenodd" stroke="none"/>
      <path d="M22.5 17.65 L22.5 17.1 22.5 16.95 22.75 16.55 23.0 16.25 23.25 15.85 23.45 16.15 23.6 16.4 23.05 17.1 22.75 17.4 22.65 17.55 22.5 17.65" fill="#f0542e" fill-rule="evenodd" stroke="none"/>
      <path d="M24.3 17.8 L23.25 19.3 22.85 19.75 22.75 19.75 22.65 19.7 22.55 19.65 22.5 19.6 22.0 19.2 22.0 19.05 22.1 18.6 22.1 18.55 22.25 18.35 22.65 18.05 22.75 17.6 23.0 17.6 23.35 17.65 23.9 17.75 24.0 17.8 24.3 17.8" fill="#c62223" fill-rule="evenodd" stroke="none"/>
      <path d="M13.95 13.8 L14.0 13.75 14.1 13.75 14.3 13.85 14.45 14.05 14.45 14.15 14.4 14.35 14.1 14.5 13.95 14.45 13.8 14.1 13.85 14.0 13.9 13.85 13.95 13.8" fill="#fffdff" fill-rule="evenodd" stroke="none"/>
      <path d="M18.25 21.55 L18.3 21.45 18.35 21.45 18.65 21.55 18.85 21.75 18.85 21.85 18.65 21.9 18.6 21.9 18.45 21.85 18.3 21.75 18.2 21.65 18.25 21.55" fill="#5bf1ff" fill-rule="evenodd" stroke="none"/>
      <path d="M23.25 13.5 Q24.0 13.45 24.4 12.9 L24.45 12.8 24.5 12.95 24.9 14.55 24.75 14.6 24.55 14.55 24.45 14.8 24.2 15.35 24.1 15.2 23.75 14.8 23.9 14.5 23.6 14.55 23.35 14.55 23.25 14.55 23.2 14.25 23.25 13.5 M24.3 13.3 L24.3 13.35 24.2 13.5 24.2 13.7 24.25 13.95 24.3 13.95 24.55 13.6 24.45 13.35 24.35 13.3 24.3 13.3" fill="#ff6a24" fill-rule="evenodd" stroke="none"/>
      <path d="M24.3 13.3 L24.35 13.3 24.45 13.35 24.55 13.6 24.3 13.95 24.25 13.95 24.2 13.7 24.2 13.5 24.3 13.35 24.3 13.3" fill="#ffea24" fill-rule="evenodd" stroke="none"/>
      <path d="M24.9 14.55 L24.95 15.0 24.9 15.6 24.9 15.7 24.8 16.2 24.6 16.15 24.4 16.05 23.95 15.85 24.2 15.35 24.45 14.8 24.55 14.55 24.75 14.6 24.9 14.55" fill="#f6442a" fill-rule="evenodd" stroke="none"/>
      <path d="M23.75 14.8 L24.1 15.2 24.2 15.35 23.95 15.85 23.6 16.35 23.6 16.4 23.45 16.15 23.25 15.85 23.25 15.75 23.75 14.8" fill="#fd5d29" fill-rule="evenodd" stroke="none"/>
      <path d="M24.8 16.2 L24.3 17.8 24.0 17.8 23.9 17.75 23.35 17.65 23.0 17.6 22.75 17.6 22.75 17.4 23.05 17.1 23.6 16.4 23.6 16.35 23.95 15.85 24.4 16.05 24.6 16.15 24.8 16.2" fill="#dd2928" fill-rule="evenodd" stroke="none"/>
      <path d="M16.65 6.0 L16.7 6.0 Q17.3 6.35 17.65 6.8 L17.8 6.8 18.35 6.65 18.4 6.55 18.6 7.05 19.05 7.65 19.5 8.15 19.75 8.4 19.9 8.55 20.0 8.6 20.1 8.85 20.2 9.3 20.2 9.5 20.2 9.8 20.5 9.8 20.65 9.85 20.85 9.9 21.35 9.6 M21.85 7.9 L21.8 7.75 21.7 7.05 21.45 7.05 M21.7 7.05 L21.75 6.65 Q21.9 5.85 22.5 5.25 22.95 4.8 23.5 4.65 L24.3 4.55 25.15 4.7 25.25 4.25 M14.9 6.35 L14.9 6.4 14.65 6.85 14.5 6.95 13.75 7.15 13.55 7.2 13.1 7.1 13.05 7.1 13.05 7.2 13.05 7.3 12.65 7.85 12.6 7.9 11.75 8.25 11.3 8.6 11.25 8.65 11.0 8.9 10.8 9.1 10.8 9.2 11.3 9.8 11.4 10.05 11.45 10.25 11.65 10.1 Q12.65 9.5 13.8 9.5 14.55 9.5 14.95 9.9 L15.4 10.45 16.75 10.9 17.4 11.2 17.55 11.3 17.65 11.4 18.05 11.7 18.5 12.2 18.95 11.25 Q19.4 10.5 19.9 10.45 L20.05 10.15 20.2 9.8 M16.1 5.8 L15.9 5.7 15.05 5.6 14.5 5.65 14.3 5.65 14.55 5.8 14.9 6.35 M16.65 6.0 L16.1 5.8 M20.75 11.15 L20.5 10.85 Q20.2 10.55 19.9 10.45 M22.2 8.55 L22.2 8.5 21.85 7.9 M21.45 9.55 L21.65 9.55 22.05 9.6 22.4 9.95 22.6 10.6 22.6 10.65 Q22.55 11.5 21.9 12.05 L22.2 12.1 22.15 12.45 Q22.15 13.0 22.5 13.3 L22.55 13.3 23.1 13.5 23.25 13.5 Q24.0 13.45 24.4 12.9 L24.45 12.8 24.5 12.95 24.9 14.55 24.95 15.0 24.9 15.6 24.9 15.7 24.8 16.2 24.3 17.8 23.25 19.3 22.85 19.75 22.6 20.0 22.05 20.5 22.4 20.75 22.65 20.85 23.35 20.9 23.6 20.85 23.3 21.25 22.8 21.65 22.2 21.9 22.15 21.95 21.55 21.95 20.95 21.95 20.65 22.75 20.5 23.1 20.1 22.7 19.8 22.5 19.45 23.05 19.3 23.2 19.2 23.1 19.7 23.65 19.8 23.65 20.2 23.8 20.45 23.8 21.05 23.75 21.55 23.55 21.6 23.55 22.0 23.25 22.3 22.95 22.4 23.1 22.4 23.15 22.55 23.35 22.65 23.55 22.85 23.95 23.0 24.25 23.1 24.6 23.1 24.65 23.15 25.45 23.1 26.05 23.05 26.25 22.95 26.55 22.4 27.55 22.2 27.75 21.7 28.2 Q21.0 28.7 19.95 28.8 L19.45 28.9 18.5 28.85 Q17.35 28.75 16.7 28.2 15.9 27.5 15.8 26.45 L15.8 26.2 15.8 25.65 Q15.9 24.9 16.3 24.3 L16.7 23.55 16.3 23.4 Q16.05 23.2 16.05 22.75 L16.1 22.55 16.1 22.5 15.75 22.7 Q15.25 23.0 15.1 23.55 L14.8 23.2 14.7 22.95 14.4 22.0 12.25 22.55 11.25 22.4 11.2 22.4 11.25 22.35 11.65 21.5 11.65 21.15 10.25 21.0 9.95 20.95 9.85 20.9 9.3 20.8 9.05 20.75 8.25 20.5 Q7.1 20.1 6.15 19.5 L5.7 19.2 5.35 18.95 Q4.05 17.95 3.45 16.6 L3.35 16.45 Q3.0 15.45 3.0 14.25 L3.0 13.95 3.0 13.75 3.3 11.95 3.4 11.6 3.9 10.55 3.95 10.5 3.95 10.65 4.15 11.7 4.15 11.75 4.7 12.35 4.95 12.45 6.4 12.75 6.5 12.75 7.1 12.75 7.15 12.65 7.25 11.9 7.15 11.3 7.1 11.15 7.25 11.2 8.05 11.35 8.2 11.35 8.6 11.3 8.55 10.85 8.55 10.8 Q8.55 10.05 9.15 9.5 9.65 9.05 10.2 9.05 L10.8 9.2 M22.6 9.0 L22.5 8.85 22.2 8.55 M20.1 17.4 L20.0 17.9 19.85 18.0 19.45 18.2 18.95 18.3 18.85 18.35 18.85 18.45 18.85 18.6 18.7 19.5 18.7 19.55 18.65 19.95 18.7 19.9 18.95 19.9 19.65 19.95 19.7 20.0 20.0 20.2 M22.2 15.45 L21.9 14.6 Q21.55 13.4 21.55 12.65 L21.6 12.45 21.45 12.25 21.25 11.95 21.15 11.75 20.95 11.45 20.75 11.15 M21.55 11.1 L21.7 11.2 21.75 11.25 21.7 11.15 21.55 11.1 21.25 11.15 21.05 11.3 21.3 11.6 21.35 11.7 21.55 11.85 21.6 11.9 21.75 11.95 21.9 12.05 M21.8 11.3 L21.75 11.25 M8.15 1.8 L9.75 2.3 10.4 2.75 11.05 3.5 11.35 4.75 11.3 5.35 11.55 5.45 M5.75 2.5 Q6.75 1.65 8.05 1.8 L8.15 1.8 8.15 1.5 M11.3 5.35 L11.0 6.35 10.75 6.7 10.7 6.75 10.55 6.95 10.15 7.3 9.5 7.6 9.05 7.75 8.3 7.85 6.9 7.7 Q6.25 7.45 5.75 7.05 L5.25 6.45 Q4.7 5.7 4.7 4.75 L4.75 4.3 Q4.9 3.3 5.7 2.55 L5.75 2.5 5.55 2.3 M4.75 4.3 L4.5 4.25 M5.25 6.45 L4.9 6.75 M6.9 7.7 L6.8 8.1 M9.9 11.4 L10.0 11.25 10.1 11.2 10.15 11.2 10.45 11.3 10.5 11.3 10.7 11.5 10.7 11.6 M11.45 10.45 L11.45 10.25 M9.9 12.15 L9.7 12.15 Q9.1 12.15 8.8 11.7 L8.6 11.3 M10.55 14.45 L10.6 14.25 10.5 14.3 9.95 14.45 9.85 14.45 9.65 14.4 9.9 13.4 10.05 13.0 10.2 12.75 10.0 12.4 9.9 12.15 10.0 12.1 10.1 12.1 10.15 12.05 M10.55 14.45 L10.4 14.85 10.3 15.1 9.95 16.9 9.95 17.0 9.95 17.15 9.95 17.4 10.0 17.65 10.0 17.75 11.2 18.6 13.35 19.15 Q13.35 20.1 13.9 20.6 14.4 21.0 14.95 21.0 L16.3 20.7 16.5 20.65 16.7 20.9 16.75 21.05 16.95 21.2 17.25 21.45 17.25 21.5 17.3 21.45 18.55 21.2 18.7 21.2 19.05 21.3 19.2 21.3 19.55 21.55 20.2 20.8 20.5 20.2 20.85 20.4 21.05 20.45 21.45 20.05 21.55 19.85 21.8 19.05 21.8 18.75 21.8 18.4 21.75 18.15 21.8 18.15 22.15 18.05 22.3 17.95 22.5 17.85 22.5 17.65 22.5 17.1 22.5 16.95 22.5 16.3 22.2 15.45 M19.35 14.2 L19.25 14.05 Q18.95 13.75 18.6 13.75 18.25 13.75 17.8 14.05 L17.35 14.5 17.05 14.95 16.65 16.15 16.6 16.65 16.5 17.7 16.95 18.05 18.35 18.35 18.4 18.35 18.85 18.35 M20.0 15.8 L19.55 14.5 19.35 14.2 M20.05 16.45 L20.0 16.3 20.0 16.25 20.0 15.8 M20.1 16.6 L20.05 16.45 M20.1 16.6 L20.1 16.95 20.1 17.4 M17.15 21.55 L17.25 21.5 M17.15 21.55 L16.75 21.85 16.4 22.15 16.1 22.5 M16.7 23.55 L17.05 23.35 17.45 23.15 18.5 22.95 18.55 22.95 18.95 23.0 19.2 23.1 M17.25 20.5 Q17.25 20.25 17.9 20.05 L18.65 19.95 M19.55 21.55 L19.65 21.65 19.8 21.85 19.9 22.1 19.8 22.5 M25.15 4.7 L26.1 5.25 26.3 5.5 Q26.85 6.15 26.85 7.05 L27.15 7.05 M26.85 7.05 Q26.85 7.85 26.45 8.45 L26.6 8.7 M26.45 8.45 L26.1 8.85 25.4 9.35 24.8 9.55 24.85 9.95 M23.5 9.5 L23.4 9.8 M23.5 9.5 L22.6 9.0 Q22.5 9.0 22.35 9.2 M24.8 9.55 L24.3 9.6 23.5 9.5" fill="none" stroke="#540a0a" stroke-linecap="round" stroke-linejoin="round" stroke-width="0.4"/>
      <path d="M20.5 9.8 Q20.65 8.7 21.65 8.0 L21.85 7.9 M14.15 11.6 L14.2 11.45 Q14.25 11.05 13.95 10.75 13.65 10.45 13.15 10.45 12.6 10.45 12.0 10.9 L11.95 11.0 Q11.25 11.6 11.25 12.35 L11.45 13.1 Q11.75 13.4 12.2 13.4 L12.2 13.5 12.05 14.1 11.8 14.3 11.5 14.65 11.45 14.7 10.85 15.8 10.8 15.85 11.45 16.35 12.3 16.65 12.25 16.9 12.45 18.1 12.6 18.35 13.45 18.15 14.4 17.55 14.85 17.9 14.85 17.95 15.2 18.05 15.85 17.5 16.4 16.6 16.5 16.15 16.6 15.8 16.65 15.6 16.75 14.8 16.75 14.7 M16.8 14.15 L16.85 14.05 16.85 13.9 16.8 13.5 16.75 13.3 16.65 13.0 16.4 12.7 M14.1 11.7 L14.4 11.6 15.0 11.5 15.65 11.7 15.75 11.95 15.75 12.05 16.1 12.0 Q16.5 12.0 16.8 12.3 L17.05 12.75 16.9 12.9 16.65 13.0 M14.1 11.7 L14.0 11.85 13.75 12.05 13.1 12.25 Q12.4 11.85 13.05 11.4 M16.75 14.45 L16.8 14.15 M14.15 11.6 L14.1 11.7 M15.7 12.1 L15.7 12.05 15.75 12.05 M15.7 12.1 L15.55 12.25 15.35 12.35 15.15 12.3 15.05 12.25 15.0 12.05 15.05 11.95 M21.15 9.2 L21.55 8.85 21.95 8.65 22.2 8.55 M20.65 9.85 L21.15 9.2 M19.2 13.85 L19.15 13.75 19.25 13.5 19.4 13.35 19.6 13.2 19.6 13.1 Q19.6 12.9 19.75 12.8 L20.35 12.7 20.3 12.5 20.4 12.25 20.65 12.15 20.75 12.15 21.05 12.25 21.1 12.3 21.4 13.0 21.25 13.3 21.05 13.4 21.15 13.5 21.15 13.6 21.45 13.95 21.6 14.25 21.65 14.6 21.7 15.0 M21.7 15.05 L21.8 15.1 22.05 15.4 21.8 15.7 21.6 15.9 21.65 16.35 21.6 16.8 21.6 16.85 21.55 17.0 21.5 17.1 21.05 16.95 20.95 16.9 20.75 16.75 20.65 16.7 20.5 16.9 20.4 17.05 20.1 17.4 M20.35 12.7 L20.55 12.9 M10.7 6.75 L10.85 7.05 11.05 7.65 11.15 7.85 11.3 8.6 M10.15 7.3 L10.3 7.5 10.7 8.05 10.9 8.45 11.0 8.9 M19.25 14.05 L19.3 13.95 19.2 13.9 M19.55 14.0 L19.45 14.0 19.3 13.95 M19.55 14.0 L19.7 13.9" fill="none" stroke="#09303f" stroke-linecap="round" stroke-linejoin="round" stroke-width="0.4"/>
    </g>
  </defs>
</svg>
