<?xml version="1.0" encoding="UTF-8" standalone="no"?>
<svg xmlns:ffdec="https://www.free-decompiler.com/flash" xmlns:xlink="http://www.w3.org/1999/xlink" ffdec:objectType="frame" height="30.0px" width="30.0px" xmlns="http://www.w3.org/2000/svg">
  <g transform="matrix(1.0, 0.0, 0.0, 1.0, 0.0, 0.0)">
    <use ffdec:characterId="1" height="30.0" transform="matrix(1.0, 0.0, 0.0, 1.0, 0.0, 0.0)" width="30.0" xlink:href="#shape0"/>
    <use ffdec:characterId="3" height="8.2" transform="matrix(1.0612, 0.0, 0.0, 0.9947, 5.1055, 3.6438)" width="18.7" xlink:href="#sprite0"/>
    <use ffdec:characterId="5" height="24.15" transform="matrix(1.0612, 0.0, 0.0, 0.9947, 3.6372, 2.979)" width="21.45" xlink:href="#sprite1"/>
  </g>
  <defs>
    <g id="shape0" transform="matrix(1.0, 0.0, 0.0, 1.0, 0.0, 0.0)">
      <path d="M0.0 0.0 L30.0 0.0 30.0 30.0 0.0 30.0 0.0 0.0" fill="#33cc66" fill-opacity="0.0" fill-rule="evenodd" stroke="none"/>
      <path d="M30.0 26.7 L29.8 28.15 Q29.15 30.0 26.7 30.0 L3.3 30.0 Q0.85 30.0 0.2 28.15 L0.0 26.7 0.0 3.3 Q0.0 0.7 2.05 0.15 L3.3 0.0 26.7 0.0 27.95 0.15 Q30.0 0.7 30.0 3.3 L30.0 26.7" fill="#949bd0" fill-rule="evenodd" stroke="none"/>
      <path d="M26.1 12.4 L26.4 13.65 26.25 14.65 26.15 14.95 26.25 15.2 26.4 16.15 26.05 17.6 26.25 17.95 26.4 18.9 26.05 20.35 26.25 20.6 26.4 21.6 Q26.4 23.8 23.05 25.4 19.7 27.0 15.0 27.0 10.25 27.0 6.95 25.4 3.65 23.8 3.65 21.6 L3.85 20.65 4.0 20.35 Q3.65 19.7 3.65 18.9 L3.85 18.0 4.05 17.65 Q3.65 16.95 3.65 16.15 L3.85 15.2 3.95 14.95 3.85 14.7 3.65 13.65 Q3.65 13.0 3.95 12.45 3.65 11.85 3.65 11.15 3.65 10.45 4.0 9.8 3.65 9.1 3.65 8.4 3.65 6.15 6.95 4.5 10.25 3.0 15.0 3.0 19.7 3.0 23.05 4.5 26.4 6.15 26.4 8.4 26.4 9.1 26.05 9.8 26.4 10.45 26.4 11.15 L26.1 12.4 Z" fill="none" stroke="#ffffff" stroke-linecap="round" stroke-linejoin="round" stroke-width="3.5"/>
    </g>
    <g id="sprite0" transform="matrix(1.0, 0.0, 0.0, 1.0, 18.7, 8.2)">
      <use ffdec:characterId="2" height="8.2" transform="matrix(1.0, 0.0, 0.0, 1.0, -18.7, -8.2)" width="18.7" xlink:href="#shape1"/>
    </g>
    <g id="shape1" transform="matrix(1.0, 0.0, 0.0, 1.0, 18.7, 8.2)">
      <path d="M-18.4 -3.0 L-18.7 -4.1 -18.7 -4.2 Q-18.6 -5.85 -16.0 -7.0 -13.25 -8.2 -9.4 -8.2 L-7.2 -8.1 Q-4.7 -7.85 -2.75 -7.0 -0.1 -5.85 0.0 -4.2 L0.0 -4.1 -0.1 -3.45 Q-1.2 -4.5 -3.8 -5.65 -5.25 -6.3 -7.2 -6.5 L-10.8 -6.5 Q-15.2 -6.2 -18.4 -3.0 M-1.4 -1.9 L-2.75 -1.25 -4.75 -0.55 -8.7 0.0 -8.8 0.0 -8.9 0.0 -9.0 0.0 -9.4 0.0 -9.5 0.0 -9.75 0.0 -13.9 -0.5 Q-15.0 -0.8 -16.0 -1.25 L-16.75 -1.6 Q-13.25 -4.25 -10.55 -4.5 L-7.2 -4.35 -4.85 -3.8 Q-1.85 -2.8 -1.4 -1.9" fill="#6c6c6c" fill-rule="evenodd" stroke="none"/>
      <path d="M-0.1 -3.45 L-0.3 -3.0 -0.55 -2.65 Q-0.9 -2.25 -1.4 -1.9 -1.85 -2.8 -4.85 -3.8 L-7.2 -4.35 -10.55 -4.5 Q-13.25 -4.25 -16.75 -1.6 L-18.15 -2.65 -18.4 -3.0 Q-15.2 -6.2 -10.8 -6.5 L-7.2 -6.5 Q-5.25 -6.3 -3.8 -5.65 -1.2 -4.5 -0.1 -3.45" fill="#595959" fill-rule="evenodd" stroke="none"/>
    </g>
    <g id="sprite1" transform="matrix(1.0, 0.0, 0.0, 1.0, 21.45, 24.15)">
      <use ffdec:characterId="4" height="24.15" transform="matrix(1.0, 0.0, 0.0, 1.0, -21.45, -24.15)" width="21.45" xlink:href="#shape2"/>
    </g>
    <g id="shape2" transform="matrix(1.0, 0.0, 0.0, 1.0, 21.45, 24.15)">
      <path d="M-21.15 -14.65 L-21.45 -15.95 -21.1 -17.3 -20.8 -16.8 Q-20.05 -15.75 -18.35 -14.9 -15.2 -13.25 -10.75 -13.25 -6.3 -13.25 -3.15 -14.9 -1.45 -15.75 -0.65 -16.8 L-0.35 -17.3 Q0.0 -16.65 0.0 -15.95 0.0 -15.25 -0.3 -14.7 -0.95 -13.25 -3.15 -12.1 -6.3 -10.5 -10.75 -10.5 -15.2 -10.5 -18.35 -12.1 -20.5 -13.25 -21.15 -14.65 M-0.25 -12.1 L-0.15 -11.85 0.0 -10.9 Q0.0 -10.15 -0.35 -9.45 -1.05 -8.15 -3.15 -7.05 -6.3 -5.45 -10.75 -5.45 -15.2 -5.45 -18.35 -7.05 -20.35 -8.1 -21.05 -9.4 -21.45 -10.1 -21.45 -10.9 L-21.25 -11.85 -21.15 -12.1 Q-20.5 -10.7 -18.35 -9.55 -15.2 -7.95 -10.75 -7.95 -6.3 -7.95 -3.15 -9.55 -0.95 -10.7 -0.25 -12.1 M-0.35 -6.7 L-0.15 -6.45 0.0 -5.45 Q0.0 -3.2 -3.15 -1.6 -6.3 0.0 -10.75 0.0 -15.2 0.0 -18.35 -1.6 -21.45 -3.2 -21.45 -5.45 L-21.25 -6.4 -21.1 -6.7 Q-20.4 -5.3 -18.35 -4.3 -15.2 -2.7 -10.75 -2.7 -6.3 -2.7 -3.15 -4.3 -1.05 -5.35 -0.35 -6.7" fill="#666666" fill-opacity="0.627451" fill-rule="evenodd" stroke="none"/>
      <path d="M-21.1 -17.3 L-21.45 -18.7 Q-21.45 -20.95 -18.35 -22.6 -15.2 -24.15 -10.75 -24.15 -6.3 -24.15 -3.15 -22.6 0.0 -20.95 0.0 -18.7 0.0 -18.0 -0.35 -17.3 L-0.65 -16.8 Q-1.45 -15.75 -3.15 -14.9 -6.3 -13.25 -10.75 -13.25 -15.2 -13.25 -18.35 -14.9 -20.05 -15.75 -20.8 -16.8 L-21.1 -17.3 M-0.3 -14.7 Q0.0 -14.1 0.0 -13.4 L-0.15 -12.4 -0.25 -12.1 Q-0.95 -10.7 -3.15 -9.55 -6.3 -7.95 -10.75 -7.95 -15.2 -7.95 -18.35 -9.55 -20.5 -10.7 -21.15 -12.1 L-21.25 -12.35 -21.45 -13.4 -21.15 -14.65 Q-20.5 -13.25 -18.35 -12.1 -15.2 -10.5 -10.75 -10.5 -6.3 -10.5 -3.15 -12.1 -0.95 -13.25 -0.3 -14.7 M-0.35 -9.45 L-0.15 -9.1 0.0 -8.15 Q0.0 -7.4 -0.35 -6.7 -1.05 -5.35 -3.15 -4.3 -6.3 -2.7 -10.75 -2.7 -15.2 -2.7 -18.35 -4.3 -20.4 -5.3 -21.1 -6.7 -21.45 -7.35 -21.45 -8.15 L-21.25 -9.05 -21.05 -9.4 Q-20.35 -8.1 -18.35 -7.05 -15.2 -5.45 -10.75 -5.45 -6.3 -5.45 -3.15 -7.05 -1.05 -8.15 -0.35 -9.45 M-1.35 -19.35 L-1.35 -19.45 Q-1.45 -21.1 -4.1 -22.25 -6.85 -23.45 -10.75 -23.45 -14.6 -23.45 -17.35 -22.25 -19.95 -21.1 -20.05 -19.45 L-20.05 -19.35 -19.75 -18.25 -19.5 -17.9 Q-18.85 -17.1 -17.35 -16.5 L-15.25 -15.75 -11.1 -15.25 -10.85 -15.25 -10.75 -15.25 -10.35 -15.25 -10.25 -15.25 -10.15 -15.25 -10.05 -15.25 -6.1 -15.8 Q-5.05 -16.05 -4.1 -16.5 -2.6 -17.1 -1.9 -17.9 L-1.65 -18.25 Q-1.35 -18.85 -1.35 -19.35" fill="#cccccc" fill-opacity="0.627451" fill-rule="evenodd" stroke="none"/>
    </g>
  </defs>
</svg>
