<?xml version="1.0" encoding="UTF-8" standalone="no"?>
<svg xmlns:ffdec="https://www.free-decompiler.com/flash" xmlns:xlink="http://www.w3.org/1999/xlink" ffdec:objectType="frame" height="30.2px" width="30.05px" xmlns="http://www.w3.org/2000/svg">
  <g transform="matrix(1.0, 0.0, 0.0, 1.0, 0.0, 0.0)">
    <use ffdec:characterId="1" height="30.0" transform="matrix(1.0, 0.0, 0.0, 1.0, 0.0, 0.0)" width="30.0" xlink:href="#shape0"/>
    <use ffdec:characterId="3" height="30.1" transform="matrix(1.0, 0.0, 0.0, 1.0, 0.05, 0.1)" width="30.0" xlink:href="#sprite0"/>
  </g>
  <defs>
    <g id="shape0" transform="matrix(1.0, 0.0, 0.0, 1.0, 0.0, 0.0)">
      <path d="M0.0 0.0 L30.0 0.0 30.0 30.0 0.0 30.0 0.0 0.0" fill="#33cc66" fill-opacity="0.0" fill-rule="evenodd" stroke="none"/>
    </g>
    <g id="sprite0" transform="matrix(1.0, 0.0, 0.0, 1.0, 0.0, -0.05)">
      <use ffdec:characterId="2" height="30.1" transform="matrix(1.0, 0.0, 0.0, 1.0, 0.0, 0.05)" width="30.0" xlink:href="#shape1"/>
    </g>
    <g id="shape1" transform="matrix(1.0, 0.0, 0.0, 1.0, 0.0, -0.05)">
      <path d="M0.0 26.75 L0.0 3.35 Q0.0 0.05 3.3 0.05 L26.7 0.05 Q30.0 0.05 30.0 3.35 L30.0 26.75 Q30.0 30.05 26.7 30.05 L3.3 30.05 Q0.0 30.05 0.0 26.75" fill="#ffcc99" fill-rule="evenodd" stroke="none"/>
      <path d="M20.75 14.35 L20.9 14.3 21.85 14.1 Q23.25 14.1 24.15 14.9 L24.75 15.65 Q25.1 16.2 25.05 16.75 L25.05 16.8 Q25.0 17.7 24.5 18.15 24.0 18.6 23.25 18.6 22.55 18.6 21.95 17.7 21.3 16.85 20.8 16.85 20.4 16.85 20.15 17.15 L20.05 17.3 19.85 18.0 19.75 17.95 Q19.3 17.7 19.25 16.9 19.2 16.4 19.65 15.35 L20.4 14.5 20.75 14.35 Q20.2 14.65 19.65 15.35 M27.25 22.5 Q29.55 27.3 24.35 26.0 24.4 28.55 20.5 26.55 21.45 29.8 15.2 27.35 10.1 29.0 10.1 26.05 L2.6 25.7 Q1.05 24.95 2.6 23.3 L2.95 22.9 Q4.35 18.25 7.1 19.4 7.65 19.55 8.2 20.05 L9.0 19.05 Q12.3 15.15 14.35 20.05 L14.4 20.05 14.2 18.5 Q13.8 9.75 9.2 3.5 12.25 1.05 13.75 3.65 L13.85 3.8 Q16.6 2.1 18.55 3.95 20.7 2.45 22.3 5.1 19.35 8.55 17.75 20.6 L17.4 21.05 Q18.1 21.5 18.3 22.2 18.55 20.85 19.1 20.25 20.4 18.45 23.55 21.55 25.65 20.15 26.9 21.85 L27.25 22.5 M10.1 15.75 L11.4 15.85 11.95 16.3 12.0 16.35 12.15 15.8 Q12.15 14.65 11.6 13.9 L11.45 13.75 Q10.75 13.05 9.75 13.05 L9.1 13.15 8.7 13.5 8.3 14.25 8.3 14.45 Q8.3 15.1 9.1 15.5 L10.1 15.75 M14.4 20.05 L15.95 20.4 Q16.85 20.65 17.4 21.05 M10.1 26.05 L10.75 26.0" fill="none" stroke="#ffffff" stroke-linecap="round" stroke-linejoin="round" stroke-width="3.5"/>
      <path d="M13.75 3.65 L13.85 3.8 Q16.6 2.1 18.55 3.95 16.7 10.55 15.95 18.5 15.95 10.7 13.75 3.65" fill="#64c0e8" fill-rule="evenodd" stroke="none"/>
      <path d="M15.95 22.25 Q14.55 22.6 14.2 18.5 13.8 9.75 9.2 3.5 12.25 1.05 13.75 3.65 15.95 10.7 15.95 18.5 L15.95 22.25" fill="#38aee0" fill-rule="evenodd" stroke="none"/>
      <path d="M18.55 3.95 Q20.7 2.45 22.3 5.1 19.35 8.55 17.75 20.6 16.65 22.05 15.95 22.25 L15.95 18.5 Q16.7 10.55 18.55 3.95" fill="#98d6ef" fill-rule="evenodd" stroke="none"/>
      <path d="M13.75 3.65 L13.85 3.8 Q16.6 2.1 18.55 3.95 20.7 2.45 22.3 5.1 19.35 8.55 17.75 20.6 16.65 22.05 15.95 22.25 14.55 22.6 14.2 18.5 13.8 9.75 9.2 3.5 12.25 1.05 13.75 3.65 Z" fill="none" stroke="#0066ff" stroke-linecap="round" stroke-linejoin="round" stroke-width="1.0"/>
      <path d="M26.9 21.85 L27.25 22.5 Q29.55 27.3 24.35 26.0 24.4 28.55 20.5 26.55 21.45 29.8 15.2 27.35 10.1 29.0 10.1 26.05 L2.6 25.7 Q1.05 24.95 2.6 23.3 L2.95 22.9 Q4.35 18.25 7.1 19.4 4.1 21.55 5.8 23.65 9.8 24.35 10.9 22.5 10.15 25.3 15.55 25.25 16.05 26.55 19.45 26.0 22.75 25.8 21.45 23.65 26.25 25.15 26.8 22.8 L26.9 21.85 M10.75 26.0 L10.1 26.05 10.75 26.0" fill="#5b1e00" fill-rule="evenodd" stroke="none"/>
      <path d="M9.0 19.05 Q12.3 15.15 14.35 20.05 17.8 20.5 18.3 22.2 14.35 20.5 13.5 22.9 13.15 18.05 9.0 19.05 M19.1 20.25 Q20.4 18.45 23.55 21.55 25.65 20.15 26.9 21.85 L26.8 22.8 Q24.85 21.3 22.95 22.8 21.8 20.3 19.1 20.25" fill="#c58338" fill-rule="evenodd" stroke="none"/>
      <path d="M7.1 19.4 Q7.65 19.55 8.2 20.05 L9.0 19.05 Q13.15 18.05 13.5 22.9 14.35 20.5 18.3 22.2 18.55 20.85 19.1 20.25 21.8 20.3 22.95 22.8 24.85 21.3 26.8 22.8 26.25 25.15 21.45 23.65 22.75 25.8 19.45 26.0 16.05 26.55 15.55 25.25 10.15 25.3 10.9 22.5 9.8 24.35 5.8 23.65 4.1 21.55 7.1 19.4" fill="#993300" fill-rule="evenodd" stroke="none"/>
      <path d="M26.9 21.85 L27.25 22.5 Q29.55 27.3 24.35 26.0 24.4 28.55 20.5 26.55 21.45 29.8 15.2 27.35 10.1 29.0 10.1 26.05 L2.6 25.7 Q1.05 24.95 2.6 23.3 L2.95 22.9 Q4.35 18.25 7.1 19.4 7.65 19.55 8.2 20.05 L9.0 19.05 Q12.3 15.15 14.35 20.05 17.8 20.5 18.3 22.2 18.55 20.85 19.1 20.25 20.4 18.45 23.55 21.55 25.65 20.15 26.9 21.85 M10.1 26.05 L10.75 26.0" fill="none" stroke="#220b00" stroke-linecap="round" stroke-linejoin="round" stroke-width="1.0"/>
      <path d="M20.75 14.35 L20.9 14.3 21.85 14.1 Q23.25 14.1 24.15 14.9 L24.75 15.65 24.5 15.75 Q23.55 15.25 22.45 15.4 21.35 15.55 20.8 15.85 20.35 15.95 20.05 16.5 19.75 16.95 19.75 17.95 19.3 17.7 19.25 16.9 19.2 16.4 19.65 15.35 20.2 14.65 20.75 14.35 M8.3 14.25 L8.7 13.5 9.1 13.15 9.75 13.05 Q10.75 13.05 11.45 13.75 L11.6 13.9 10.85 13.7 Q10.55 13.7 9.9 14.0 L9.35 14.25 8.7 14.2 8.3 14.25 M9.05 13.75 L9.0 13.85 9.15 14.1 9.25 14.1 9.6 13.8 9.35 13.6 Q9.05 13.6 9.05 13.75" fill="#98d6ef" fill-rule="evenodd" stroke="none"/>
      <path d="M25.05 16.8 Q25.0 17.7 24.5 18.15 24.0 18.6 23.25 18.6 22.55 18.6 21.95 17.7 21.3 16.85 20.8 16.85 20.4 16.85 20.15 17.15 L20.05 17.3 19.85 18.0 19.75 17.95 Q19.75 16.95 20.05 16.5 20.35 15.95 20.8 15.85 L21.7 15.75 Q22.55 15.75 23.1 16.55 L23.15 16.6 23.15 16.65 Q23.15 16.85 23.3 17.05 23.55 17.35 23.9 17.35 L24.25 17.3 24.9 16.95 25.05 16.8 M8.3 14.25 L8.7 14.2 9.35 14.25 9.45 14.25 Q10.3 14.35 11.0 15.0 L11.95 16.3 11.4 15.85 10.1 15.75 9.1 15.5 Q8.3 15.1 8.3 14.45 L8.3 14.25" fill="#38aee0" fill-rule="evenodd" stroke="none"/>
      <path d="M24.75 15.65 Q25.1 16.2 25.05 16.75 L25.05 16.8 24.9 16.95 24.25 17.3 24.3 17.05 23.7 16.45 Q23.15 16.15 23.15 16.6 L23.1 16.55 Q22.55 15.75 21.7 15.75 L20.8 15.85 Q21.35 15.55 22.45 15.4 23.55 15.25 24.5 15.75 L24.75 15.65 M9.35 14.25 L9.9 14.0 Q10.55 13.7 10.85 13.7 L11.6 13.9 Q12.15 14.65 12.15 15.8 L12.0 16.35 11.95 16.3 11.0 15.0 Q10.3 14.35 9.45 14.25 L9.35 14.25" fill="#64c0e8" fill-rule="evenodd" stroke="none"/>
      <path d="M23.15 16.6 Q23.15 16.15 23.7 16.45 L24.3 17.05 24.25 17.3 23.9 17.35 Q23.55 17.35 23.3 17.05 23.15 16.85 23.15 16.65 L23.15 16.6 M9.05 13.75 Q9.05 13.6 9.35 13.6 L9.6 13.8 9.25 14.1 9.15 14.1 9.0 13.85 9.05 13.75" fill="#ffffff" fill-rule="evenodd" stroke="none"/>
      <path d="M19.65 15.35 L20.4 14.5 20.75 14.35 20.9 14.3 21.85 14.1 Q23.25 14.1 24.15 14.9 L24.75 15.65 Q25.1 16.2 25.05 16.75 L25.05 16.8 Q25.0 17.7 24.5 18.15 24.0 18.6 23.25 18.6 22.55 18.6 21.95 17.7 21.3 16.85 20.8 16.85 20.4 16.85 20.15 17.15 L20.05 17.3 19.85 18.0 19.75 17.95 Q19.3 17.7 19.25 16.9 19.2 16.4 19.65 15.35 20.2 14.65 20.75 14.35 M11.6 13.9 L11.45 13.75 Q10.75 13.05 9.75 13.05 L9.1 13.15 8.7 13.5 8.3 14.25 8.3 14.45 Q8.3 15.1 9.1 15.5 L10.1 15.75 11.4 15.85 11.95 16.3 12.0 16.35 12.15 15.8 Q12.15 14.65 11.6 13.9 Z" fill="none" stroke="#0066ff" stroke-linecap="round" stroke-linejoin="round" stroke-width="1.0"/>
    </g>
  </defs>
</svg>
