<?xml version="1.0" encoding="UTF-8" standalone="no"?>
<svg xmlns:ffdec="https://www.free-decompiler.com/flash" xmlns:xlink="http://www.w3.org/1999/xlink" ffdec:objectType="frame" height="30.1px" width="30.0px" xmlns="http://www.w3.org/2000/svg">
  <g transform="matrix(1.0, 0.0, 0.0, 1.0, 0.0, 0.0)">
    <use ffdec:characterId="1" height="30.1" transform="matrix(1.0, 0.0, 0.0, 1.0, 0.0, 0.0)" width="30.0" xlink:href="#shape0"/>
  </g>
  <defs>
    <g id="shape0" transform="matrix(1.0, 0.0, 0.0, 1.0, 0.0, 0.0)">
      <path d="M0.0 0.0 L30.0 0.0 30.0 30.0 0.0 30.0 0.0 0.0" fill="#33cc66" fill-opacity="0.0" fill-rule="evenodd" stroke="none"/>
      <path d="M2.05 0.25 L3.3 0.1 26.7 0.1 27.95 0.25 Q30.0 0.8 30.0 3.4 L30.0 26.8 29.8 28.25 Q29.15 30.1 26.7 30.1 L3.3 30.1 Q0.85 30.1 0.2 28.25 L0.0 26.8 0.0 3.4 Q0.0 0.8 2.05 0.25" fill="#f4c402" fill-rule="evenodd" stroke="none"/>
      <path d="M25.75 5.7 L10.65 14.95 Q9.6 15.6 10.3 16.3 L13.9 17.05 Q15.25 17.25 14.4 17.95 L8.4 25.2 8.25 25.3 Q7.4 26.45 8.25 26.65 L8.8 26.65 17.65 20.65 Q27.6 14.55 23.75 14.35 L22.6 14.35 Q21.45 14.45 22.0 13.35 L26.65 6.7 Q27.95 4.6 25.75 5.7 Z" fill="none" stroke="#ffffff" stroke-linecap="round" stroke-linejoin="round" stroke-width="3.5"/>
      <path d="M12.25 6.85 L21.05 18.55 23.15 16.25 24.6 18.9 22.9 21.0 26.2 25.45 25.1 26.6 20.55 23.65 18.95 25.3 16.25 24.3 18.05 22.1 4.55 13.45 2.95 3.45 12.25 6.85 Z" fill="none" stroke="#ffffff" stroke-linecap="round" stroke-linejoin="round" stroke-width="3.5"/>
      <path d="M3.1 5.35 L2.8 3.4 19.6 19.95 19.2 20.55 3.1 5.35" fill="#ffffff" fill-rule="evenodd" stroke="none"/>
      <path d="M2.8 3.4 L12.0 6.8 20.9 18.4 19.6 19.95 2.8 3.4" fill="#999999" fill-rule="evenodd" stroke="none"/>
      <path d="M17.95 21.95 L4.35 13.35 3.1 5.35 19.2 20.55 17.95 21.95" fill="#cccccc" fill-rule="evenodd" stroke="none"/>
      <path d="M20.9 18.4 L23.05 16.05 24.4 18.85 22.7 20.8 20.3 23.55 18.8 25.25 16.05 24.25 17.95 21.95 19.2 20.55 19.6 19.95 20.9 18.4" fill="#996600" fill-rule="evenodd" stroke="none"/>
      <path d="M22.7 20.8 L26.1 25.3 24.9 26.6 20.3 23.55 22.7 20.8" fill="#ffcc00" fill-rule="evenodd" stroke="none"/>
      <path d="M3.1 5.35 L2.8 3.4 12.0 6.8 20.9 18.4 23.05 16.05 24.4 18.85 22.7 20.8 26.1 25.3 24.9 26.6 20.3 23.55 18.8 25.25 16.05 24.25 17.95 21.95 4.35 13.35 3.1 5.35 Z" fill="none" stroke="#663300" stroke-linecap="round" stroke-linejoin="round" stroke-width="1.0"/>
      <path d="M20.8 9.95 L19.4 10.8 Q18.1 11.6 17.15 12.8 L17.9 13.65 18.85 13.55 20.0 12.55 23.05 9.3 23.45 8.7 Q22.0 9.1 20.8 9.95 M25.95 5.65 Q28.15 4.6 26.85 6.65 L22.2 13.3 Q21.65 14.4 22.8 14.35 L23.95 14.35 Q26.3 14.35 24.05 16.4 L8.95 26.6 8.45 26.6 Q7.6 26.45 8.45 25.3 L8.6 25.15 14.6 17.9 Q15.45 17.2 14.1 17.05 L10.5 16.25 Q9.8 15.6 10.85 14.95 L25.95 5.65 M16.7 13.65 Q16.35 13.3 15.9 13.3 15.35 13.3 15.1 13.65 14.75 14.0 14.75 14.45 14.75 14.95 15.1 15.3 L15.9 15.6 Q16.35 15.6 16.7 15.3 L17.0 14.45 16.7 13.65" fill="url(#gradient0)" fill-rule="evenodd" stroke="none"/>
      <path d="M20.8 9.95 Q22.0 9.1 23.45 8.7 L23.05 9.3 20.0 12.55 18.85 13.55 17.9 13.65 17.15 12.8 Q18.1 11.6 19.4 10.8 L20.8 9.95 M16.7 13.65 L17.0 14.45 16.7 15.3 Q16.35 15.6 15.9 15.6 L15.1 15.3 Q14.75 14.95 14.75 14.45 14.75 14.0 15.1 13.65 15.35 13.3 15.9 13.3 16.35 13.3 16.7 13.65" fill="#ffffff" fill-rule="evenodd" stroke="none"/>
      <path d="M25.95 5.65 L10.85 14.95 Q9.8 15.6 10.5 16.25 L14.1 17.05 Q15.45 17.2 14.6 17.9 L8.6 25.15 8.45 25.3 Q7.6 26.45 8.45 26.6 L8.95 26.6 24.05 16.4 Q26.3 14.35 23.95 14.35 L22.8 14.35 Q21.65 14.4 22.2 13.3 L26.85 6.65 Q28.15 4.6 25.95 5.65 Z" fill="none" stroke="#4b2b0a" stroke-linecap="round" stroke-linejoin="round" stroke-width="1.0"/>
    </g>
    <linearGradient gradientTransform="matrix(0.0051, -0.0089, 0.0067, 0.0039, 17.4, 15.85)" gradientUnits="userSpaceOnUse" id="gradient0" spreadMethod="pad" x1="-819.2" x2="819.2">
      <stop offset="0.0" stop-color="#ffcc66"/>
      <stop offset="1.0" stop-color="#ffff00"/>
    </linearGradient>
  </defs>
</svg>
