<?xml version="1.0" encoding="UTF-8" standalone="no"?>
<svg xmlns:ffdec="https://www.free-decompiler.com/flash" xmlns:xlink="http://www.w3.org/1999/xlink" ffdec:objectType="frame" height="30.05px" width="30.0px" xmlns="http://www.w3.org/2000/svg">
  <g transform="matrix(1.0, 0.0, 0.0, 1.0, 0.0, 0.05)">
    <use ffdec:characterId="1" height="30.05" transform="matrix(1.0, 0.0, 0.0, 1.0, 0.0, -0.05)" width="30.0" xlink:href="#shape0"/>
  </g>
  <defs>
    <g id="shape0" transform="matrix(1.0, 0.0, 0.0, 1.0, 0.0, 0.05)">
      <path d="M0.0 0.0 L30.0 0.0 30.0 30.0 0.0 30.0 0.0 0.0" fill="#33cc66" fill-opacity="0.0" fill-rule="evenodd" stroke="none"/>
      <path d="M3.3 -0.05 L26.7 -0.05 Q30.0 -0.05 30.0 3.25 L30.0 26.65 Q30.0 29.95 26.7 29.95 L3.3 29.95 Q0.0 29.95 0.0 26.65 L0.0 3.25 Q0.0 -0.05 3.3 -0.05" fill="#949bd0" fill-rule="evenodd" stroke="none"/>
      <path d="M22.05 10.15 Q23.4 10.9 24.2 11.8 L24.85 11.7 25.8 11.85 26.0 11.95 Q26.6 12.25 27.0 12.75 L27.4 13.4 27.35 14.55 26.5 15.6 Q25.9 16.05 25.2 16.15 L24.55 16.25 24.25 16.3 24.2 16.35 23.95 16.8 23.1 18.3 22.5 19.05 22.05 19.55 20.6 20.8 20.0 21.2 19.55 21.55 18.65 22.0 18.5 22.05 17.1 22.4 15.85 22.55 12.75 22.45 11.65 22.15 11.1 22.05 10.65 21.9 9.8 21.45 9.55 21.25 8.6 20.5 7.8 19.75 7.7 19.6 7.2 19.0 7.1 18.9 Q6.4 18.0 6.0 16.95 L5.75 16.25 5.1 16.3 3.35 15.85 3.2 15.75 Q2.35 15.2 2.35 14.2 2.35 12.7 3.8 12.05 L4.8 11.8 5.25 11.7 5.9 11.8 7.35 10.5 7.4 10.5 8.0 10.15 8.25 10.05 8.85 9.75 Q11.5 8.65 15.0 8.65 18.6 8.65 21.25 9.8 L22.0 10.15 22.05 10.15 M24.2 11.8 L24.4 12.1 24.45 12.25 24.5 12.3 24.5 12.35 24.85 12.2 25.05 12.15 25.45 12.1 25.65 12.15 26.35 12.65 26.35 12.7 Q26.75 13.15 26.75 13.65 L26.75 13.75 Q26.7 14.35 26.0 14.75 L24.65 15.15 24.6 15.25 24.55 15.35 24.2 15.8 24.2 15.85 23.95 16.15 23.8 16.25 24.2 16.25 24.25 16.3 M24.65 15.15 L24.6 15.15 24.7 15.0 24.75 14.75 24.8 14.65 24.95 14.1 24.95 13.85 24.75 12.95 24.7 12.7 24.6 12.6 24.5 12.35 M26.75 13.65 L26.3 12.8 26.25 12.8 Q25.85 12.4 25.5 12.4 L24.95 12.5 24.6 12.6 M7.95 11.9 L8.4 11.95 8.65 12.0 9.05 12.0 11.05 12.4 11.4 12.45 11.75 12.5 11.9 12.55 12.95 12.8 13.7 12.9 14.6 13.05 14.65 13.1 14.75 13.05 16.2 12.6 16.35 12.55 16.35 12.5 17.3 12.25 17.65 12.15 18.05 12.0 19.1 11.7 19.7 11.5 19.8 11.5 20.75 11.15 21.05 11.0 M14.65 13.1 L14.85 13.95 14.85 14.05 15.8 17.8 M5.9 11.8 L5.85 11.8 5.85 11.85 5.65 12.2 5.6 12.2 5.35 12.55 5.3 12.7 5.1 13.85 5.2 14.7 5.4 15.2 5.5 15.4 5.6 15.55 5.7 15.7 5.7 15.75 5.85 15.95 5.95 16.05 6.1 16.2 6.4 16.5 6.55 16.65 7.4 17.25 7.5 17.3 8.0 17.55 8.15 17.6 9.25 18.1 9.4 18.2 10.7 18.55 11.9 18.85 15.0 19.1 15.8 19.1 15.85 19.1 16.15 19.1 17.05 19.0 19.75 18.45 19.85 18.45 21.9 17.6 22.0 17.55 23.5 16.6 23.6 16.5 23.75 16.35 23.8 16.25 M24.65 15.15 L24.7 15.0 M24.2 16.35 L24.2 16.25 M5.65 12.2 L5.1 12.1 4.8 12.2 4.3 12.35 3.8 12.55 Q3.2 12.85 3.05 13.55 L3.05 13.85 3.1 14.2 3.2 14.5 3.15 14.15 Q3.15 13.45 3.65 13.0 3.8 12.85 3.95 12.8 4.4 12.55 5.0 12.55 L5.15 12.55 5.35 12.55 M5.5 15.4 L5.0 15.5 4.9 15.5 4.75 15.5 Q3.6 15.35 3.2 14.5 M5.75 16.25 L6.1 16.2" fill="none" stroke="#ffffff" stroke-linecap="round" stroke-linejoin="round" stroke-width="3.5"/>
      <path d="M9.85 9.9 Q12.15 9.05 15.15 9.05 L15.2 9.05 Q17.85 9.05 20.0 9.75 L20.95 10.1 21.3 10.25 21.45 10.35 21.65 10.4 21.65 10.45 21.75 10.5 21.8 10.5 21.85 10.55 22.35 10.85 22.4 10.85 Q24.05 11.95 24.1 13.35 L24.1 13.45 24.1 13.5 24.05 14.0 24.05 14.05 23.95 14.25 23.85 14.5 23.8 14.5 Q24.05 13.55 23.55 12.7 L22.5 11.45 22.45 11.4 22.3 11.3 22.1 11.15 Q21.15 10.55 20.15 10.2 L18.4 9.75 18.2 9.7 18.15 9.7 18.1 9.7 16.75 9.6 16.5 9.5 16.35 9.55 15.95 9.55 14.65 9.6 14.4 9.5 14.1 9.6 13.9 9.6 11.75 9.9 10.9 10.1 10.7 10.05 Q10.5 10.05 10.3 10.3 L9.75 10.45 8.55 11.0 7.6 11.65 7.55 11.7 7.25 11.95 6.8 12.45 6.75 12.55 6.8 12.55 6.6 12.9 6.3 13.5 6.2 13.45 Q6.2 12.3 7.25 11.35 7.4 11.2 7.6 11.1 L7.7 11.0 8.35 10.6 8.85 10.35 9.85 9.9 M24.3 16.8 L23.4 18.35 21.95 19.55 21.8 19.6 19.6 20.8 18.6 21.2 Q16.7 21.85 15.0 21.85 12.45 21.85 9.75 20.8 L7.7 19.8 7.65 19.8 7.55 19.7 7.05 19.1 7.0 19.0 Q6.25 18.05 5.8 16.95 L5.55 16.25 5.6 16.25 5.95 16.2 5.9 16.25 5.75 16.4 Q6.75 17.5 8.3 18.3 9.9 19.2 12.0 19.8 L16.25 20.0 20.5 18.9 Q22.55 18.2 24.3 16.8" fill="#ba532c" fill-rule="evenodd" stroke="none"/>
      <path d="M21.65 10.4 L21.85 10.5 Q24.2 11.6 24.6 13.1 L24.65 13.25 24.7 13.7 24.65 14.1 24.7 14.15 24.35 14.95 24.3 15.05 24.25 15.1 23.6 15.85 23.55 15.9 23.2 16.2 23.05 16.25 23.05 16.3 23.0 16.3 22.9 16.35 21.85 16.95 20.95 17.3 18.8 17.9 17.6 18.1 17.35 18.0 17.05 18.0 16.85 18.05 16.8 18.05 Q16.45 18.15 16.45 18.2 L16.05 18.25 15.8 18.25 Q15.7 18.1 15.2 18.05 L13.9 18.05 12.7 17.95 12.0 17.85 11.45 17.75 11.4 17.75 9.15 17.0 8.95 16.9 8.65 16.75 7.75 16.4 7.5 16.5 7.45 16.5 7.3 16.4 7.2 16.35 7.1 16.25 7.05 16.2 6.7 15.95 6.65 15.95 6.5 15.8 6.4 15.65 6.35 15.65 6.3 15.6 6.35 15.6 6.55 15.65 6.65 15.65 6.7 15.65 6.75 15.6 6.85 15.45 6.85 15.4 6.7 15.2 Q6.6 15.05 6.4 15.05 L6.25 15.15 6.2 15.15 6.15 15.2 6.1 15.25 6.2 15.45 5.9 15.2 5.85 15.15 5.75 14.9 5.5 14.1 5.5 14.0 5.5 13.9 5.5 13.7 5.55 13.25 5.55 13.2 5.65 12.85 Q6.0 11.85 7.25 11.05 L7.5 10.9 8.3 10.5 8.8 10.25 9.85 9.9 8.85 10.35 8.35 10.6 7.7 11.0 7.6 11.1 Q7.4 11.2 7.25 11.35 6.2 12.3 6.2 13.45 L6.25 13.8 6.25 13.85 6.3 14.1 6.3 14.15 6.35 14.25 6.55 14.7 6.6 14.75 6.65 14.9 6.7 14.9 6.75 15.0 6.8 15.05 8.0 16.1 8.4 16.35 8.8 16.55 8.85 16.55 9.2 16.75 11.3 17.45 11.65 17.55 12.3 17.65 12.75 17.7 12.9 17.7 13.3 17.75 13.35 17.75 13.65 17.5 14.15 17.2 14.2 17.3 14.55 17.4 14.75 17.15 14.85 16.95 15.0 16.95 15.25 17.0 15.45 17.85 15.7 17.85 15.9 17.85 15.95 17.85 17.0 17.75 18.75 17.5 19.35 17.35 19.85 17.2 21.0 16.8 21.25 16.65 21.3 16.65 21.4 16.6 21.45 16.55 21.95 16.3 22.7 15.85 23.05 15.55 23.1 15.55 23.1 15.5 23.15 15.45 23.2 15.4 23.5 15.1 23.5 15.05 23.55 15.0 23.7 14.8 23.75 14.7 23.85 14.5 23.95 14.25 24.05 14.05 24.05 14.0 24.1 13.5 24.1 13.45 24.1 13.35 Q24.05 11.95 22.4 10.85 L21.85 10.55 21.8 10.5 21.75 10.5 21.65 10.45 21.65 10.4 M26.05 11.95 L26.05 12.05 25.8 12.05 25.45 12.05 25.15 12.1 24.85 12.2 24.8 12.1 24.75 12.05 25.15 11.9 25.4 11.9 25.6 11.85 26.05 11.95 M15.75 17.3 L15.8 17.3 16.1 17.8 16.05 17.8 16.05 17.7 16.0 17.8 15.9 17.85 15.75 17.3 M7.4 16.15 L7.45 16.1 7.4 15.95 7.35 15.9 7.3 15.9 7.2 15.85 7.1 15.9 7.05 15.9 7.05 15.95 7.1 16.1 7.15 16.1 7.25 16.2 7.3 16.2 7.4 16.15" fill="#f7df2f" fill-rule="evenodd" stroke="none"/>
      <path d="M21.65 10.4 L21.55 10.3 21.35 10.25 21.3 10.25 20.95 10.1 20.0 9.75 Q17.85 9.05 15.2 9.05 L15.15 9.05 Q12.15 9.05 9.85 9.9 L8.8 10.25 8.3 10.5 7.5 10.9 7.25 11.05 Q6.0 11.85 5.65 12.85 L5.55 13.2 5.55 13.25 5.5 13.7 5.5 13.9 5.5 13.2 5.55 12.8 5.65 12.45 5.8 12.05 5.85 12.0 6.6 11.1 8.45 10.0 Q9.4 9.6 10.4 9.3 L12.3 8.9 14.4 8.7 16.55 8.75 18.65 9.0 20.65 9.55 22.45 10.4 23.2 10.9 23.45 11.1 23.65 11.25 23.75 11.35 24.05 11.75 Q24.75 12.6 24.85 13.65 L24.7 14.15 24.65 14.1 24.7 13.7 24.65 13.25 24.6 13.1 Q24.2 11.6 21.85 10.5 L21.65 10.4 M26.05 12.05 L26.05 11.95 26.1 11.95 26.85 12.4 26.9 12.45 26.9 12.5 26.95 12.55 27.15 12.75 27.3 13.0 27.45 13.65 Q27.45 14.5 26.5 15.1 L25.55 15.6 24.55 15.8 24.9 15.3 24.9 15.35 24.95 15.25 25.0 15.1 26.45 14.7 Q27.1 14.3 27.2 13.7 L27.2 13.55 Q27.2 13.05 26.8 12.6 L26.75 12.55 Q26.35 12.15 26.05 12.05 M5.35 15.4 L5.45 15.55 5.5 15.65 5.45 15.7 4.8 15.8 3.2 15.35 2.65 14.75 2.5 14.3 2.45 13.85 Q2.45 13.35 2.75 12.95 L2.85 12.8 3.0 12.65 3.5 12.3 4.05 12.1 4.6 12.0 4.6 12.05 4.1 12.2 3.6 12.4 3.55 12.45 Q3.0 12.8 2.8 13.45 L2.8 13.8 2.85 14.1 2.95 14.4 Q3.35 15.35 4.55 15.45 L4.75 15.45 4.8 15.45 5.35 15.4" fill="#edc920" fill-rule="evenodd" stroke="none"/>
      <path d="M21.3 10.25 L21.35 10.25 21.55 10.3 21.65 10.4 21.45 10.35 21.3 10.25" fill="#e6c988" fill-rule="evenodd" stroke="none"/>
      <path d="M21.85 10.55 L22.4 10.85 22.35 10.85 21.85 10.55 M6.6 14.75 L6.55 14.7 6.6 14.7 6.6 14.75 M18.8 22.15 L18.65 22.2 18.75 21.95 18.8 22.15" fill="#4f2b16" fill-rule="evenodd" stroke="none"/>
      <path d="M23.75 11.35 L23.65 11.25 23.45 11.1 23.2 10.9 22.45 10.4 20.65 9.55 18.65 9.0 16.55 8.75 14.4 8.7 12.3 8.9 10.4 9.3 Q9.4 9.6 8.45 10.0 L6.6 11.1 5.85 12.0 5.8 12.05 5.65 12.45 5.55 12.8 Q5.35 13.35 5.4 13.9 L5.4 14.0 5.45 14.1 5.8 15.2 6.2 15.75 7.75 17.05 9.6 17.85 11.55 18.4 13.55 18.65 15.7 18.7 16.15 18.7 17.75 18.6 19.85 18.15 21.8 17.35 23.65 16.2 Q24.55 15.55 24.85 14.45 L24.95 13.65 24.65 12.5 24.1 11.75 23.75 11.35 M23.1 15.5 L23.1 15.55 23.05 15.55 23.1 15.5 M19.55 12.25 L19.5 12.3 19.1 12.6 18.7 12.75 18.3 12.6 18.0 12.45 17.8 12.75 17.55 13.05 17.1 13.1 16.65 13.25 16.6 13.3 16.45 13.4 16.0 13.65 15.9 13.7 15.85 13.7 15.65 13.75 15.55 13.75 14.95 13.9 15.3 13.45 15.3 13.4 15.5 13.2 15.55 13.15 16.2 12.9 16.45 12.85 18.25 12.25 19.25 11.9 19.45 11.85 19.7 11.8 21.25 11.25 21.85 11.05 22.3 11.3 22.45 11.4 22.5 11.45 21.95 11.6 21.65 11.65 21.55 11.7 21.45 11.65 21.45 11.75 21.25 11.75 21.05 11.65 20.85 11.6 Q20.65 11.6 20.5 11.85 L20.2 12.05 19.85 12.05 19.65 12.15 19.55 12.25 M26.05 11.95 L25.6 11.85 25.4 11.9 25.15 11.9 24.75 12.05 24.8 12.1 24.85 12.2 25.0 12.5 25.05 12.6 25.15 12.85 25.25 13.8 25.25 14.0 25.15 14.65 25.15 14.7 25.05 14.95 25.0 15.1 24.95 15.25 24.9 15.3 24.55 15.8 24.55 15.85 24.3 16.1 24.15 16.3 24.3 16.1 25.65 15.75 26.45 15.4 Q27.55 14.75 27.55 13.7 L27.55 13.65 27.35 13.0 27.3 12.95 27.3 13.0 27.15 12.75 26.95 12.55 26.9 12.5 26.9 12.45 26.85 12.4 26.1 11.95 26.05 11.95 M5.7 11.65 Q6.3 10.95 7.25 10.35 L7.3 10.35 7.9 10.0 8.15 9.85 8.75 9.55 Q11.45 8.4 15.1 8.4 18.8 8.4 21.5 9.6 L22.3 10.0 Q23.75 10.75 24.5 11.7 L25.2 11.6 26.15 11.75 26.4 11.8 27.4 12.65 27.8 13.3 Q28.05 13.9 27.75 14.5 L26.9 15.6 25.6 16.15 24.9 16.3 24.65 16.3 24.5 16.3 24.15 16.3 24.1 16.35 23.95 16.5 23.8 16.55 22.3 17.6 22.25 17.55 22.15 17.65 20.1 18.45 20.05 18.45 20.0 18.5 17.2 19.05 16.3 19.15 15.95 19.15 15.1 19.15 11.9 18.9 10.65 18.65 9.35 18.25 9.2 18.2 8.0 17.65 7.9 17.6 7.35 17.3 7.25 17.25 6.45 16.65 6.25 16.5 5.95 16.2 5.8 16.0 5.95 16.2 5.6 16.25 5.55 16.25 4.9 16.3 Q3.95 16.3 3.1 15.85 L3.0 15.75 2.95 15.75 2.9 15.7 Q2.1 15.15 2.1 14.15 2.1 12.6 3.6 11.95 L4.6 11.65 5.05 11.6 5.7 11.6 5.7 11.65 5.7 11.7 5.4 12.1 5.7 11.7 5.7 11.65 M5.2 12.5 L5.4 12.1 5.3 12.05 4.95 12.05 4.6 12.05 4.6 12.0 4.05 12.1 3.5 12.3 3.0 12.65 2.85 12.8 2.75 12.95 2.7 12.9 2.45 13.35 2.35 13.85 2.35 13.95 2.4 14.35 2.6 14.85 3.15 15.55 3.95 15.95 5.1 16.05 5.6 16.0 5.8 16.0 5.7 15.9 5.55 15.7 5.5 15.65 5.45 15.55 5.35 15.4 5.2 15.15 5.0 14.65 4.9 13.8 Q4.9 13.15 5.15 12.6 L5.2 12.5 M24.75 12.05 L24.5 11.7 24.75 12.05 M6.8 12.45 L6.9 12.4 Q7.3 12.2 7.5 12.15 L7.7 12.1 7.95 12.05 9.2 12.25 10.55 12.5 10.95 12.6 11.35 12.65 11.45 12.65 11.75 12.75 11.85 12.75 12.1 12.75 12.5 12.9 12.75 13.0 13.65 13.05 14.25 13.2 14.45 13.35 14.65 13.5 14.7 13.6 14.7 13.85 14.75 13.9 14.7 13.9 14.4 13.8 14.2 13.7 13.9 13.55 13.45 13.4 13.4 13.4 12.8 13.55 12.35 13.75 12.1 13.65 11.8 13.3 11.65 13.05 11.45 12.9 11.25 12.85 10.8 12.9 10.7 12.95 10.25 13.0 9.6 12.75 8.95 12.45 8.5 12.7 Q8.25 12.9 8.0 12.9 7.8 12.9 7.75 12.75 L7.6 12.6 7.4 12.7 7.25 12.8 7.05 12.7 6.8 12.55 6.75 12.55 6.8 12.45" fill="#f09d1e" fill-rule="evenodd" stroke="none"/>
      <path d="M24.7 14.15 L24.85 13.65 Q24.75 12.6 24.05 11.75 L23.75 11.35 24.1 11.75 24.65 12.5 24.95 13.65 24.85 14.45 Q24.55 15.55 23.65 16.2 L21.8 17.35 19.85 18.15 17.75 18.6 16.15 18.7 15.7 18.7 13.55 18.65 11.55 18.4 9.6 17.85 7.75 17.05 6.2 15.75 5.8 15.2 5.45 14.1 5.4 14.0 5.4 13.9 Q5.35 13.35 5.55 12.8 L5.5 13.2 5.5 13.9 5.5 14.0 5.5 14.1 5.75 14.9 5.85 15.15 5.9 15.2 6.2 15.45 6.25 15.5 6.25 15.55 6.3 15.6 6.35 15.65 6.4 15.65 6.5 15.8 6.65 15.95 6.7 15.95 7.05 16.2 7.1 16.25 7.2 16.35 7.3 16.4 7.45 16.5 8.3 16.95 8.35 16.9 8.35 17.0 8.5 17.05 8.55 17.05 8.6 17.1 9.1 17.3 9.15 17.3 9.25 17.3 9.45 17.4 11.35 17.9 12.0 18.05 12.7 18.15 14.1 18.25 15.05 18.25 15.1 18.25 15.35 18.25 15.55 18.25 15.8 18.25 16.05 18.25 16.45 18.2 16.85 18.2 17.1 18.2 17.6 18.1 18.8 17.9 20.95 17.3 21.85 16.95 22.9 16.35 23.0 16.3 23.05 16.3 23.05 16.25 23.2 16.2 23.55 15.9 23.6 15.85 24.25 15.1 24.3 15.05 24.35 14.95 24.7 14.15 M24.55 15.8 L25.55 15.6 26.5 15.1 Q27.45 14.5 27.45 13.65 L27.3 13.0 27.3 12.95 27.35 13.0 27.55 13.65 27.55 13.7 Q27.55 14.75 26.45 15.4 L25.65 15.75 24.3 16.1 24.55 15.85 24.55 15.8 M5.5 15.65 L5.55 15.7 5.7 15.9 5.8 16.0 5.6 16.0 5.1 16.05 3.95 15.95 3.15 15.55 2.6 14.85 2.4 14.35 2.35 13.95 2.35 13.85 2.45 13.35 2.7 12.9 2.75 12.95 Q2.45 13.35 2.45 13.85 L2.5 14.3 2.65 14.75 3.2 15.35 4.8 15.8 5.45 15.7 5.5 15.65" fill="#dd801e" fill-rule="evenodd" stroke="none"/>
      <path d="M14.85 16.95 L14.75 17.15 14.55 17.4 14.2 17.3 14.15 17.2 14.0 16.9 14.2 16.7 13.95 16.75 12.8 16.85 12.5 17.05 12.3 17.35 12.2 17.55 11.25 17.35 10.65 17.2 10.05 16.95 10.0 16.95 8.8 16.4 8.3 16.15 8.2 16.1 8.55 15.6 8.95 15.3 9.25 14.95 9.45 15.05 9.3 14.9 9.25 14.8 9.05 14.45 9.3 14.05 9.35 13.95 9.45 13.75 9.8 13.85 10.05 14.1 10.1 14.15 10.15 14.35 10.55 14.2 10.45 13.95 10.45 13.85 10.35 13.55 10.75 13.3 10.95 13.0 Q11.1 12.95 11.3 13.2 L11.45 13.55 11.3 14.0 11.6 13.95 11.6 13.6 13.0 14.05 13.15 13.95 13.4 13.7 13.7 14.0 13.9 14.4 13.9 14.6 13.6 14.85 13.05 14.9 13.0 14.7 Q12.55 14.85 12.55 15.5 L12.3 15.35 12.25 15.3 12.0 15.15 11.9 15.1 11.6 15.0 11.5 15.0 11.45 15.05 11.4 15.15 11.15 15.0 10.95 15.05 10.55 15.3 10.4 15.45 10.0 15.75 10.45 16.15 10.6 16.25 10.75 16.35 10.8 16.65 10.8 16.7 11.15 16.6 11.2 16.6 11.55 16.45 11.85 16.25 11.55 15.55 11.75 15.6 11.9 15.65 12.4 15.95 12.6 15.8 12.6 15.9 Q12.75 16.15 13.05 16.15 L13.5 16.1 14.0 15.95 14.75 15.8 14.8 16.1 14.45 16.6 14.65 16.75 14.85 16.85 14.85 16.95 M22.9 12.6 L22.9 12.45 22.8 12.25 22.7 12.2 22.6 12.25 22.4 12.45 22.3 12.6 22.3 12.65 22.4 12.7 22.55 12.75 22.9 12.6 M22.7 12.05 Q22.85 12.0 23.0 12.3 L23.2 12.7 23.2 12.8 23.25 12.8 23.45 12.85 23.45 12.9 23.7 13.4 23.65 13.7 23.55 13.95 23.3 14.25 23.2 14.4 22.95 14.6 23.0 14.7 23.25 15.25 23.2 15.3 23.0 15.5 22.55 15.8 22.4 15.95 22.1 15.8 21.8 15.6 21.5 16.0 21.45 16.25 21.45 16.35 21.5 16.45 21.4 16.5 21.1 16.65 20.85 16.75 20.15 17.05 20.1 16.95 20.0 16.4 20.1 16.0 19.65 16.05 19.8 16.3 19.55 16.65 19.2 16.7 19.2 16.75 19.3 17.3 19.05 17.35 18.4 17.5 17.75 17.65 17.2 17.7 17.25 17.25 16.8 17.25 16.4 17.3 16.05 17.15 15.85 16.8 16.35 16.2 16.35 16.15 17.0 15.5 17.5 15.35 17.75 15.3 18.3 15.1 18.85 14.8 19.45 14.0 Q19.45 13.7 19.25 13.55 L18.95 13.35 18.85 13.25 18.3 12.6 18.7 12.75 19.1 12.6 19.5 12.3 19.55 12.25 19.55 12.5 19.6 13.0 19.8 13.35 20.05 13.15 20.25 12.95 20.6 13.25 20.75 13.55 20.9 13.5 21.2 13.45 21.0 13.55 20.85 13.6 20.75 13.65 20.7 13.9 20.45 14.05 20.2 14.1 20.0 14.2 20.35 14.6 20.4 14.65 21.0 14.25 21.15 14.15 21.5 14.05 21.55 14.0 21.65 14.0 21.7 14.0 21.65 13.8 21.6 13.5 21.7 13.2 22.0 13.3 22.3 13.2 22.35 13.2 22.2 12.85 22.2 12.7 22.1 12.45 22.3 12.4 22.45 12.25 22.7 12.05 M21.55 11.7 L21.75 11.9 21.8 11.95 21.95 12.25 21.65 12.75 21.35 12.85 21.1 12.95 21.05 12.8 20.95 12.6 20.85 12.25 21.2 11.95 21.35 11.8 21.45 11.75 21.45 11.65 21.55 11.7 M21.6 12.05 L21.55 11.85 21.35 11.9 21.15 12.1 21.05 12.3 21.05 12.4 21.15 12.45 21.3 12.45 21.6 12.05 M22.7 13.75 L22.75 13.8 22.95 13.85 23.25 13.55 23.15 13.35 22.95 13.35 22.8 13.5 22.7 13.7 22.7 13.75 M14.65 9.6 L14.85 9.65 15.3 9.8 15.3 9.85 15.45 9.85 15.5 9.85 15.7 9.85 15.8 9.7 15.9 9.75 16.05 9.7 16.1 9.7 16.1 9.65 16.35 9.55 16.5 9.5 16.75 9.6 17.0 9.85 17.05 9.9 17.1 10.2 17.05 10.7 16.95 11.05 16.95 11.15 16.7 11.45 15.95 12.05 16.0 11.5 16.0 11.0 15.8 10.6 15.6 10.45 15.65 10.4 15.55 10.4 15.15 10.5 14.8 10.6 14.65 10.65 14.5 10.65 Q13.95 10.8 13.8 11.25 L13.75 11.25 13.6 11.5 12.95 11.7 12.4 11.65 11.85 11.55 11.55 11.65 11.1 12.15 11.1 12.3 9.0 11.9 8.55 11.85 8.35 11.8 7.85 11.75 7.8 11.75 7.8 11.7 8.45 11.3 8.85 11.35 9.05 11.4 Q9.65 11.4 9.95 10.8 L10.05 10.8 10.0 10.7 10.3 10.3 Q10.5 10.05 10.7 10.05 L10.9 10.1 11.15 10.25 11.2 10.3 11.25 10.2 11.45 10.05 Q11.55 10.0 11.7 10.25 L11.8 10.45 11.85 10.4 12.25 10.1 Q12.6 9.8 12.7 9.8 L12.8 9.8 13.2 9.95 13.25 9.95 13.45 10.05 13.65 9.9 13.7 9.9 13.7 9.85 14.0 9.65 14.1 9.6 14.4 9.5 14.65 9.6 M15.6 10.05 L15.65 10.05 15.65 10.0 15.6 10.05 M15.8 10.0 L15.75 9.9 15.7 9.95 15.75 10.0 15.8 10.0 M11.55 10.45 L11.55 10.35 11.5 10.2 11.35 10.2 11.25 10.3 11.2 10.35 11.15 10.45 11.15 10.55 11.3 10.55 11.55 10.45 M16.3 11.1 L16.45 11.15 16.7 10.95 16.65 10.8 16.45 10.8 16.3 10.9 16.25 11.05 16.25 11.1 16.3 11.1 M15.15 11.8 L15.1 11.7 15.35 11.55 15.5 11.4 15.65 11.6 15.75 11.85 15.75 12.0 15.6 12.15 15.25 12.15 15.2 11.95 15.15 11.8 M18.25 11.9 L18.4 11.4 18.55 11.1 18.65 10.95 18.8 10.7 18.8 10.65 18.7 10.35 18.9 10.25 19.0 10.2 19.15 10.05 19.4 10.25 19.55 10.55 19.7 10.5 19.75 10.5 19.8 10.45 20.3 10.3 20.7 10.6 20.65 10.65 20.05 11.35 19.95 11.35 19.3 11.55 18.25 11.9 M7.6 12.6 L7.75 12.75 Q7.8 12.9 8.0 12.9 8.25 12.9 8.5 12.7 L8.95 12.45 9.6 12.75 10.25 13.0 10.7 12.95 10.35 13.05 9.8 12.9 9.6 12.75 9.0 12.5 Q8.8 12.5 8.55 12.7 L8.15 12.95 Q8.0 13.0 8.0 13.4 L8.0 13.9 8.2 13.7 8.5 14.0 8.7 14.4 8.65 14.7 8.4 14.85 7.9 14.9 7.8 14.9 7.7 14.55 7.65 14.35 7.25 14.45 6.8 14.55 6.6 14.6 6.6 14.55 6.5 14.4 6.45 13.75 6.55 13.3 6.9 13.0 7.1 12.9 7.3 12.9 7.6 12.65 7.6 12.6 M13.0 14.25 L13.0 14.3 13.05 14.4 13.25 14.45 13.5 14.35 13.55 14.15 13.5 13.95 Q13.4 13.8 13.25 13.95 L13.1 14.1 13.0 14.25 M15.3 11.65 L15.25 11.8 15.3 11.85 15.4 11.9 15.5 11.9 15.6 11.7 15.55 11.55 15.4 11.55 15.3 11.65 M19.3 10.35 L19.25 10.2 19.05 10.2 19.0 10.35 18.95 10.35 18.85 10.45 18.85 10.5 18.9 10.55 19.05 10.55 19.2 10.55 19.3 10.35 M19.9 13.45 L19.85 13.5 19.9 13.55 19.95 13.6 20.15 13.65 20.35 13.6 20.45 13.35 20.35 13.15 20.15 13.15 20.0 13.3 19.9 13.45 M20.3 15.2 L20.3 15.15 20.2 14.95 Q20.05 14.8 19.95 14.95 L19.7 15.15 19.6 15.35 19.6 15.4 19.7 15.5 19.9 15.5 20.3 15.2 M19.35 16.0 L19.2 16.1 19.1 16.25 19.15 16.3 19.3 16.35 19.55 16.15 19.5 15.95 19.35 16.0 M17.75 15.75 L17.7 15.65 17.45 15.8 17.35 15.9 17.6 16.15 17.65 16.0 17.75 15.75 M17.4 16.15 L17.15 16.2 Q17.1 16.2 17.0 16.3 L16.9 16.35 16.8 16.5 16.8 16.65 16.9 16.7 17.1 16.75 Q17.5 16.75 17.5 16.4 L17.5 16.35 17.4 16.15 M16.6 16.65 L16.55 16.7 16.6 16.7 16.6 16.65 M14.5 16.75 L14.35 16.7 14.35 16.75 14.3 16.8 14.35 16.95 14.4 17.05 14.6 17.1 14.7 17.0 14.75 16.95 14.65 16.85 14.5 16.75 M21.8 15.1 L21.8 15.2 21.8 15.45 21.9 15.5 22.35 15.6 22.35 15.55 22.4 14.95 22.4 14.85 22.35 14.5 22.2 14.45 22.15 14.45 22.05 14.45 22.0 14.45 21.95 14.5 21.95 14.55 21.9 14.65 21.8 15.05 21.8 15.1 M7.9 14.1 L7.85 14.2 7.8 14.25 7.8 14.3 7.85 14.4 8.05 14.45 8.35 14.15 8.25 13.95 Q8.15 13.8 8.05 13.95 L7.9 14.1 M9.45 13.95 L9.4 14.0 9.3 14.25 9.25 14.5 9.25 14.55 9.35 14.55 9.5 14.5 Q9.8 14.35 9.7 14.05 L9.65 13.9 9.6 13.9 9.45 13.95 M11.05 13.2 L10.85 13.25 10.65 13.45 10.55 13.65 10.55 13.75 10.8 13.75 11.1 13.6 11.15 13.4 11.05 13.2 M8.6 16.0 L8.5 15.95 8.5 16.05 8.6 16.0" fill="#a42417" fill-rule="evenodd" stroke="none"/>
      <path d="M22.9 12.6 L22.55 12.75 22.4 12.7 22.3 12.65 22.3 12.6 22.4 12.45 22.6 12.25 22.7 12.2 22.8 12.25 22.9 12.45 22.9 12.6 M22.3 12.4 L22.1 12.45 22.2 12.7 21.95 12.9 21.7 13.2 21.65 13.05 21.35 12.85 21.65 12.75 21.95 12.25 21.8 11.95 22.15 12.2 22.3 12.4 M22.45 12.55 L22.45 12.6 22.5 12.6 22.55 12.6 22.5 12.55 22.45 12.55 M22.75 12.35 L22.65 12.3 22.55 12.45 22.55 12.55 22.6 12.55 22.75 12.5 22.75 12.45 22.75 12.35 M21.6 12.05 L21.3 12.45 21.15 12.45 21.05 12.4 21.05 12.3 21.15 12.1 21.35 11.9 21.55 11.85 21.6 12.05 M21.05 12.8 L20.9 12.9 20.7 13.0 20.35 12.75 20.35 12.55 Q20.35 12.05 20.7 11.85 L21.05 11.75 21.35 11.8 21.2 11.95 20.85 12.25 20.95 12.6 21.05 12.8 M22.7 13.75 L22.7 13.7 22.8 13.5 22.95 13.35 23.15 13.35 23.25 13.55 22.95 13.85 22.75 13.8 22.7 13.75 M22.9 13.65 L22.8 13.65 22.8 13.7 22.85 13.7 22.9 13.65 M23.0 13.4 L22.95 13.55 23.0 13.65 23.1 13.6 23.0 13.4 M15.85 13.7 L15.9 13.7 16.0 13.65 16.45 13.4 17.0 13.2 17.2 13.25 17.5 13.6 17.6 13.85 17.7 14.3 17.25 15.15 16.9 15.4 16.1 15.7 15.65 15.75 15.6 15.75 15.4 15.75 15.25 15.05 15.35 15.1 15.6 15.2 15.85 15.1 Q15.9 15.0 16.15 15.0 L16.65 14.95 16.9 14.9 17.05 14.3 Q17.05 13.25 16.3 13.95 L15.65 14.45 15.2 14.8 15.0 13.95 15.5 13.9 15.55 13.85 15.85 13.7 M11.1 12.3 L11.1 12.15 11.55 11.65 11.85 11.55 12.4 11.65 12.95 11.7 13.6 11.5 13.75 11.25 13.8 11.25 Q13.95 10.8 14.5 10.65 L14.65 10.65 14.8 10.6 15.15 10.5 15.55 10.4 15.65 10.4 15.6 10.45 15.8 10.6 16.0 11.0 16.0 11.5 15.95 12.05 15.75 12.0 15.75 11.85 15.65 11.6 15.5 11.4 15.35 11.55 15.1 11.7 15.15 11.8 Q14.65 11.8 14.1 12.6 L13.6 12.5 13.0 12.65 11.95 12.45 11.8 12.4 11.45 12.35 11.1 12.3 M16.35 11.05 L16.4 11.05 16.4 11.0 16.35 11.0 16.35 11.05 M16.3 11.1 L16.25 11.1 16.25 11.05 16.3 10.9 16.45 10.8 16.65 10.8 16.7 10.95 16.45 11.15 16.3 11.1 M11.55 10.45 L11.3 10.55 11.15 10.55 11.15 10.45 11.2 10.35 11.25 10.3 11.35 10.2 11.5 10.2 11.55 10.35 11.55 10.45 M11.45 10.35 L11.4 10.25 11.3 10.35 11.35 10.45 11.45 10.4 11.45 10.35 M16.5 12.45 L16.45 12.4 16.45 12.15 Q16.45 11.9 16.9 11.65 17.35 11.4 17.4 10.85 L17.4 10.75 Q17.45 10.35 17.95 10.05 18.45 9.7 18.45 10.3 L18.3 10.7 18.25 10.9 18.0 11.55 17.8 12.1 17.5 12.15 16.55 12.45 16.5 12.45 M10.7 12.95 L10.8 12.9 11.25 12.85 11.45 12.9 11.65 13.05 11.6 13.6 11.45 13.55 11.3 13.2 Q11.1 12.95 10.95 13.0 L10.75 13.3 10.35 13.55 10.45 13.85 10.4 13.85 10.05 14.1 9.8 13.85 9.95 13.75 10.2 13.5 Q10.2 13.05 9.6 13.1 9.0 13.15 9.0 13.6 L9.0 13.9 9.05 13.9 9.25 13.95 9.35 13.95 9.3 14.05 9.05 14.45 9.25 14.8 9.3 14.9 9.25 14.95 9.05 14.85 8.65 14.7 8.7 14.4 8.5 14.0 8.2 13.7 8.0 13.9 8.0 13.4 Q8.0 13.0 8.15 12.95 L8.55 12.7 Q8.8 12.5 9.0 12.5 L9.6 12.75 9.8 12.9 10.35 13.05 10.7 12.95 M14.8 14.1 L14.85 14.25 14.95 14.35 15.0 14.55 15.0 14.65 14.95 14.95 14.95 15.3 15.05 15.6 15.15 15.8 14.75 15.8 14.55 15.4 14.35 15.15 13.95 14.65 13.9 14.6 13.95 14.6 14.7 14.15 14.8 14.1 M13.1 14.25 L13.15 14.3 13.2 14.25 13.2 14.2 Q13.1 14.15 13.1 14.25 M13.0 14.25 L13.1 14.1 13.25 13.95 Q13.4 13.8 13.5 13.95 L13.55 14.15 13.5 14.35 13.25 14.45 13.05 14.4 13.0 14.3 13.0 14.25 M15.3 11.75 L15.3 11.8 15.35 11.8 15.35 11.75 15.3 11.75 M13.25 14.15 L13.25 14.2 13.3 14.25 13.35 14.25 13.45 14.15 13.35 14.0 13.25 14.15 M15.3 11.65 L15.4 11.55 15.55 11.55 15.6 11.7 15.5 11.9 15.4 11.9 15.3 11.85 15.25 11.8 15.3 11.65 M15.4 11.7 L15.45 11.75 15.5 11.7 15.45 11.6 15.4 11.7 M19.3 10.35 L19.2 10.55 19.05 10.55 18.9 10.55 18.85 10.5 18.85 10.45 18.95 10.35 19.0 10.35 19.05 10.2 19.25 10.2 19.3 10.35 M19.0 10.45 L19.0 10.4 18.95 10.4 18.95 10.45 19.0 10.45 M19.15 10.25 L19.05 10.35 19.1 10.45 19.2 10.35 19.15 10.25 M16.6 10.95 L16.5 10.85 16.45 10.95 16.5 11.0 16.6 10.95 M21.2 12.25 L21.2 12.3 21.25 12.25 21.2 12.25 M21.3 12.1 L21.35 12.2 21.5 12.1 21.4 11.95 21.3 12.1 M19.9 13.45 L20.0 13.3 20.15 13.15 20.35 13.15 20.45 13.35 20.35 13.6 20.15 13.65 19.95 13.6 19.9 13.55 19.85 13.5 19.9 13.45 M20.2 13.2 L20.1 13.35 20.2 13.45 20.3 13.4 20.2 13.2 M20.0 13.45 L20.0 13.5 20.05 13.5 20.1 13.45 20.05 13.45 20.0 13.45 M20.3 15.2 L19.9 15.5 19.7 15.5 19.6 15.4 19.6 15.35 19.7 15.15 19.95 14.95 Q20.05 14.8 20.2 14.95 L20.3 15.15 20.3 15.2 M19.35 16.0 L19.3 16.15 19.35 16.2 19.45 16.15 19.45 16.05 19.35 16.0 19.5 15.95 19.55 16.15 19.3 16.35 19.15 16.3 19.1 16.25 19.2 16.1 19.35 16.0 M19.75 15.35 L19.8 15.35 19.85 15.3 19.75 15.3 19.75 15.35 M20.15 15.25 L20.15 15.2 20.0 15.0 19.9 15.15 20.0 15.3 20.15 15.25 M19.25 16.2 L19.2 16.2 19.2 16.25 19.25 16.25 19.3 16.2 19.25 16.2 M17.4 16.15 L17.5 16.35 17.5 16.4 Q17.5 16.75 17.1 16.75 L16.9 16.7 16.8 16.65 16.8 16.5 16.9 16.35 17.0 16.3 Q17.1 16.2 17.15 16.2 L17.4 16.15 M17.0 16.6 L17.05 16.55 17.0 16.5 16.95 16.55 16.95 16.6 17.0 16.6 M17.15 16.55 L17.3 16.45 17.2 16.25 17.1 16.4 17.15 16.55 M14.45 16.95 L14.5 17.0 14.55 17.0 14.65 16.95 14.65 16.9 14.55 16.85 14.45 16.95 M14.4 16.8 L14.4 16.85 14.45 16.85 14.4 16.8 M14.5 16.75 L14.65 16.85 14.75 16.95 14.7 17.0 14.6 17.1 14.4 17.05 14.35 16.95 14.3 16.8 14.35 16.75 14.35 16.7 14.5 16.75 M11.3 10.4 L11.2 10.45 11.3 10.45 11.3 10.4 M7.9 14.25 L7.9 14.3 7.95 14.3 8.0 14.25 8.0 14.2 Q7.9 14.15 7.9 14.25 M7.9 14.1 L8.05 13.95 Q8.15 13.8 8.25 13.95 L8.35 14.15 8.05 14.45 7.85 14.4 7.8 14.3 7.8 14.25 7.85 14.2 7.9 14.1 M8.0 14.15 L8.1 14.25 8.25 14.15 8.15 14.0 Q8.0 14.0 8.0 14.15 M9.45 13.95 L9.6 13.9 9.65 13.9 9.7 14.05 Q9.8 14.35 9.5 14.5 L9.35 14.55 9.25 14.55 9.25 14.5 9.3 14.25 9.4 14.0 9.45 13.95 M11.0 13.45 L10.9 13.3 10.8 13.45 10.85 13.55 11.0 13.45 M9.5 14.0 L9.45 14.2 9.5 14.3 9.6 14.15 9.5 14.0 M11.05 13.2 L11.15 13.4 11.1 13.6 10.8 13.75 10.55 13.75 10.55 13.65 10.65 13.45 10.85 13.25 11.05 13.2 M10.7 13.65 L10.75 13.65 10.75 13.55 10.65 13.6 10.7 13.65 M10.75 16.2 L10.7 16.15 10.65 16.15 10.65 15.95 10.5 15.85 10.5 15.75 10.65 15.6 10.65 15.45 10.9 15.55 Q11.2 15.5 11.25 15.8 L11.25 15.95 11.2 16.1 11.15 15.95 11.15 15.9 11.1 15.85 11.0 15.85 10.95 15.8 10.9 15.8 10.8 15.85 10.75 16.1 10.75 16.2 M9.35 14.4 L9.4 14.4 9.45 14.35 9.4 14.3 Q9.3 14.3 9.35 14.4 M6.6 14.6 L6.8 14.55 7.25 14.45 7.65 14.35 7.7 14.55 7.8 14.9 7.9 14.9 7.7 15.2 7.55 15.6 7.35 15.45 7.05 15.15 6.8 14.85 6.75 14.75 6.65 14.65 6.6 14.6" fill="#e04838" fill-rule="evenodd" stroke="none"/>
      <path d="M23.75 14.7 L23.7 14.8 23.55 15.0 23.5 15.05 23.5 15.0 23.7 14.75 23.75 14.3 23.6 14.05 23.7 13.8 23.7 13.75 23.65 13.7 23.7 13.7 23.75 13.4 23.45 12.9 23.45 12.85 23.25 12.8 23.2 12.8 23.2 12.7 23.0 12.3 Q22.85 12.0 22.7 12.05 L22.65 11.8 22.5 11.45 23.55 12.7 Q24.05 13.55 23.8 14.5 L23.75 14.7 M6.55 14.7 L6.35 14.25 6.3 14.15 6.3 14.1 6.25 13.85 6.25 13.8 6.3 13.5 6.6 12.9 6.8 12.55 7.05 12.7 7.25 12.8 7.4 12.7 7.6 12.6 7.6 12.65 7.3 12.9 7.1 12.9 6.9 13.0 6.55 13.3 6.45 13.75 6.5 14.4 6.6 14.55 6.6 14.6 6.65 14.65 6.75 14.75 6.8 14.85 6.8 14.9 6.8 15.0 6.7 14.9 6.7 14.85 6.6 14.7 6.55 14.7 M24.5 16.35 L24.3 16.8 Q22.55 18.2 20.5 18.9 L16.25 20.0 12.0 19.8 Q9.9 19.2 8.3 18.3 6.75 17.5 5.75 16.4 L5.9 16.25 5.95 16.2 6.25 16.5 6.45 16.65 7.25 17.25 7.35 17.3 7.9 17.6 8.0 17.65 9.2 18.2 9.35 18.25 10.65 18.65 11.9 18.9 15.1 19.15 15.95 19.15 16.3 19.15 17.2 19.05 20.0 18.5 20.1 18.45 22.15 17.65 22.2 17.65 22.3 17.6 23.8 16.55 23.95 16.5 24.1 16.35 24.15 16.3 24.5 16.3 24.5 16.35 M18.4 9.75 L20.15 10.2 Q21.15 10.55 22.1 11.15 L22.3 11.3 21.85 11.05 21.35 10.85 21.0 11.0 21.0 10.95 20.9 10.85 20.8 10.7 20.75 10.75 20.75 10.7 20.65 10.65 20.7 10.6 20.3 10.3 19.8 10.45 19.75 10.5 19.7 10.5 19.55 10.55 19.4 10.25 19.15 10.05 19.0 10.2 18.9 10.25 18.85 10.25 18.85 10.15 18.4 9.75 M16.35 9.55 L16.1 9.65 16.1 9.7 16.05 9.7 15.9 9.75 15.8 9.7 15.7 9.85 15.5 9.85 15.45 9.85 15.3 9.85 15.3 9.8 14.85 9.65 14.65 9.6 15.95 9.55 16.35 9.55 M14.1 9.6 L14.0 9.65 13.7 9.85 13.7 9.9 13.65 9.9 13.45 10.05 13.25 9.95 13.2 9.95 12.8 9.8 12.7 9.8 Q12.6 9.8 12.25 10.1 L11.85 10.4 11.8 10.45 11.7 10.25 Q11.55 10.0 11.45 10.05 L11.25 10.2 11.2 10.3 11.15 10.25 10.9 10.1 11.75 9.9 13.9 9.6 14.1 9.6 M10.3 10.3 L10.0 10.7 10.05 10.8 9.95 10.8 Q9.65 11.4 9.05 11.4 L8.85 11.35 8.45 11.3 7.8 11.7 7.8 11.75 7.55 11.7 7.6 11.65 8.55 11.0 9.75 10.45 10.3 10.3 M17.05 9.9 L17.0 9.85 16.75 9.6 18.1 9.7 18.15 9.7 17.65 9.95 17.65 10.0 17.55 10.0 17.35 10.1 17.3 10.15 17.3 10.1 17.1 9.95 17.05 9.9" fill="#9a3a17" fill-rule="evenodd" stroke="none"/>
      <path d="M15.25 17.0 L15.0 16.95 14.85 16.95 14.85 16.85 14.65 16.75 14.45 16.6 14.8 16.1 14.75 15.8 14.0 15.95 13.5 16.1 13.05 16.15 Q12.75 16.15 12.6 15.9 L12.6 15.8 12.7 15.65 12.55 15.5 Q12.55 14.85 13.0 14.7 L13.05 14.9 13.6 14.85 13.9 14.6 13.9 14.4 13.7 14.0 13.4 13.7 13.15 13.95 13.0 14.05 11.6 13.6 11.6 13.95 11.3 14.0 11.45 13.55 11.6 13.6 11.65 13.05 11.8 13.3 12.1 13.65 12.35 13.75 12.8 13.55 13.4 13.4 13.45 13.4 13.9 13.55 14.2 13.7 14.4 13.8 14.7 13.9 14.75 13.9 14.8 14.1 14.7 14.15 13.95 14.6 13.9 14.6 13.95 14.65 14.35 15.15 14.55 15.4 14.75 15.8 15.15 15.8 15.15 15.85 15.15 16.0 15.15 16.05 15.1 16.35 15.25 17.0 M14.15 17.2 L13.65 17.5 13.35 17.75 13.3 17.7 13.0 17.7 12.9 17.7 12.2 17.55 12.3 17.35 12.5 17.05 12.8 16.85 13.95 16.75 14.2 16.7 14.0 16.9 14.15 17.2 M22.7 12.05 L22.45 12.25 22.3 12.4 22.15 12.2 21.8 11.95 21.75 11.9 21.55 11.7 21.65 11.65 21.95 11.6 22.5 11.45 22.65 11.8 22.7 12.05 M22.2 12.7 L22.2 12.85 22.35 13.2 22.3 13.2 22.0 13.3 21.7 13.2 21.6 13.5 21.55 13.45 21.45 13.4 21.35 13.4 21.2 13.45 20.9 13.5 20.75 13.55 20.6 13.25 20.25 12.95 20.05 13.15 19.8 13.35 19.6 13.0 19.55 12.5 19.55 12.25 19.65 12.15 19.85 12.05 20.2 12.05 20.5 11.85 Q20.65 11.6 20.85 11.6 L21.05 11.65 21.25 11.75 21.45 11.75 21.35 11.8 21.05 11.75 20.7 11.85 Q20.35 12.05 20.35 12.55 L20.35 12.75 20.7 13.0 20.9 12.9 21.05 12.8 21.1 12.95 21.35 12.85 21.65 13.05 21.7 13.2 21.95 12.9 22.2 12.7 M18.3 12.6 L18.85 13.25 18.95 13.35 19.25 13.55 Q19.45 13.7 19.45 14.0 L18.85 14.8 18.3 15.1 17.75 15.3 17.5 15.35 17.0 15.5 16.35 16.15 16.35 16.2 15.85 16.8 16.05 17.15 16.4 17.3 16.8 17.25 17.25 17.25 17.2 17.7 16.75 17.75 16.1 17.8 15.8 17.3 15.75 17.3 15.4 15.75 15.6 15.75 15.65 15.75 16.1 15.7 16.9 15.4 17.25 15.15 17.7 14.3 17.6 13.85 17.5 13.6 17.2 13.25 17.0 13.2 16.45 13.4 16.6 13.3 16.65 13.25 17.1 13.1 17.55 13.05 17.8 12.75 18.0 12.45 18.3 12.6 M19.3 17.3 L19.2 16.75 19.2 16.7 19.55 16.65 19.8 16.3 19.65 16.05 20.1 16.0 20.0 16.4 20.1 16.95 20.1 17.05 19.3 17.3 M21.5 16.45 L21.45 16.35 21.45 16.25 21.5 16.0 21.8 15.6 22.1 15.8 22.4 15.95 22.05 16.15 21.7 16.35 21.65 16.4 21.6 16.4 21.5 16.45 M23.25 15.25 L23.0 14.7 22.95 14.6 23.2 14.4 23.3 14.25 23.55 13.95 23.65 13.7 23.7 13.4 23.45 12.9 23.75 13.4 23.7 13.7 23.65 13.7 23.7 13.75 23.7 13.8 23.6 14.05 23.75 14.3 23.7 14.75 23.5 15.0 23.3 15.2 23.25 15.25 M14.95 13.9 L15.55 13.75 15.65 13.75 15.85 13.7 15.55 13.85 15.5 13.85 15.5 13.9 15.0 13.95 14.95 13.9 M15.95 12.05 L16.7 11.45 16.95 11.15 16.95 11.05 17.05 10.7 17.1 10.2 17.05 9.9 17.1 9.95 17.3 10.1 17.3 10.15 17.35 10.1 17.55 10.0 17.65 10.0 17.65 9.95 18.15 9.7 18.2 9.7 18.4 9.75 18.85 10.15 18.85 10.25 18.9 10.25 18.7 10.35 18.8 10.65 18.8 10.7 18.65 10.95 18.55 11.1 18.4 11.4 18.25 11.9 17.8 12.1 18.0 11.55 18.25 10.9 18.3 10.7 18.45 10.3 Q18.45 9.7 17.95 10.05 17.45 10.35 17.4 10.75 L17.4 10.85 Q17.35 11.4 16.9 11.65 16.45 11.9 16.45 12.15 L16.45 12.4 16.5 12.45 16.35 12.5 14.85 12.95 14.75 13.0 14.7 13.0 13.8 12.8 13.0 12.65 13.6 12.5 14.1 12.6 Q14.65 11.8 15.15 11.8 L15.2 11.95 15.25 12.15 15.6 12.15 15.75 12.0 15.95 12.05 M10.45 13.85 L10.45 13.95 10.55 14.2 10.15 14.35 10.1 14.15 10.05 14.1 10.4 13.85 10.45 13.85 M9.3 14.9 L9.45 15.05 9.25 14.95 8.95 15.3 8.55 15.6 8.2 16.1 8.15 16.05 7.55 15.6 7.7 15.2 7.9 14.9 8.4 14.85 8.65 14.7 9.05 14.85 9.25 14.95 9.3 14.9 M20.65 10.65 L20.75 10.7 20.75 10.75 20.8 10.7 20.9 10.85 21.0 10.95 21.0 11.0 20.05 11.35 20.65 10.65 M17.7 15.65 L17.7 15.75 17.75 15.75 17.65 16.0 17.6 16.15 17.35 15.9 17.45 15.8 17.7 15.65 M16.6 16.65 L16.6 16.7 16.55 16.7 16.6 16.65 M11.55 15.55 L11.85 16.25 11.55 16.45 11.2 16.6 11.2 16.55 11.25 16.4 11.2 16.3 11.2 16.25 11.2 16.1 11.25 15.95 11.25 15.8 Q11.2 15.5 10.9 15.55 L10.65 15.45 10.65 15.6 10.5 15.75 10.5 15.85 10.65 15.95 10.65 16.15 10.7 16.15 10.75 16.2 10.75 16.35 10.6 16.25 10.45 16.15 10.0 15.75 10.4 15.45 10.55 15.3 10.95 15.05 11.15 15.0 11.4 15.15 11.35 15.3 11.3 15.45 11.35 15.45 11.45 15.5 11.5 15.5 11.55 15.55" fill="#c8331f" fill-rule="evenodd" stroke="none"/>
      <path d="M22.75 12.35 L22.75 12.45 22.75 12.5 22.6 12.55 22.55 12.55 22.55 12.45 22.65 12.3 22.75 12.35 M22.45 12.55 L22.5 12.55 22.55 12.6 22.5 12.6 22.45 12.6 22.45 12.55 M23.0 13.4 L23.1 13.6 23.0 13.65 22.95 13.55 23.0 13.4 M22.9 13.65 L22.85 13.7 22.8 13.7 22.8 13.65 22.9 13.65 M15.8 10.0 L15.75 10.0 15.7 9.95 15.75 9.9 15.8 10.0 M15.6 10.05 L15.65 10.0 15.65 10.05 15.6 10.05 M16.35 11.05 L16.35 11.0 16.4 11.0 16.4 11.05 16.35 11.05 M11.45 10.35 L11.45 10.4 11.35 10.45 11.3 10.35 11.4 10.25 11.45 10.35 M9.8 13.85 L9.45 13.75 9.35 13.95 9.25 13.95 9.05 13.9 9.0 13.9 9.0 13.6 Q9.0 13.15 9.6 13.1 10.2 13.05 10.2 13.5 L9.95 13.75 9.8 13.85 M13.1 14.25 Q13.1 14.15 13.2 14.2 L13.2 14.25 13.15 14.3 13.1 14.25 M13.25 14.15 L13.35 14.0 13.45 14.15 13.35 14.25 13.3 14.25 13.25 14.2 13.25 14.15 M15.3 11.75 L15.35 11.75 15.35 11.8 15.3 11.8 15.3 11.75 M15.4 11.7 L15.45 11.6 15.5 11.7 15.45 11.75 15.4 11.7 M19.15 10.25 L19.2 10.35 19.1 10.45 19.05 10.35 19.15 10.25 M19.0 10.45 L18.95 10.45 18.95 10.4 19.0 10.4 19.0 10.45 M16.6 10.95 L16.5 11.0 16.45 10.95 16.5 10.85 16.6 10.95 M21.3 12.1 L21.4 11.95 21.5 12.1 21.35 12.2 21.3 12.1 M21.2 12.25 L21.25 12.25 21.2 12.3 21.2 12.25 M20.0 13.45 L20.05 13.45 20.1 13.45 20.05 13.5 20.0 13.5 20.0 13.45 M20.2 13.2 L20.3 13.4 20.2 13.45 20.1 13.35 20.2 13.2 M15.2 14.8 L15.65 14.45 16.3 13.95 Q17.05 13.25 17.05 14.3 L16.9 14.9 16.65 14.95 16.15 15.0 Q15.9 15.0 15.85 15.1 L15.6 15.2 15.35 15.1 15.25 15.05 15.2 14.8 M20.15 15.25 L20.0 15.3 19.9 15.15 20.0 15.0 20.15 15.2 20.15 15.25 M19.75 15.35 L19.75 15.3 19.85 15.3 19.8 15.35 19.75 15.35 M19.35 16.0 L19.45 16.05 19.45 16.15 19.35 16.2 19.3 16.15 19.35 16.0 M19.25 16.2 L19.3 16.2 19.25 16.25 19.2 16.25 19.2 16.2 19.25 16.2 M17.15 16.55 L17.1 16.4 17.2 16.25 17.3 16.45 17.15 16.55 M17.0 16.6 L16.95 16.6 16.95 16.55 17.0 16.5 17.05 16.55 17.0 16.6 M14.4 16.8 L14.45 16.85 14.4 16.85 14.4 16.8 M14.45 16.95 L14.55 16.85 14.65 16.9 14.65 16.95 14.55 17.0 14.5 17.0 14.45 16.95 M11.3 10.4 L11.3 10.45 11.2 10.45 11.3 10.4 M7.9 14.25 Q7.9 14.15 8.0 14.2 L8.0 14.25 7.95 14.3 7.9 14.3 7.9 14.25 M8.0 14.15 Q8.0 14.0 8.15 14.0 L8.25 14.15 8.1 14.25 8.0 14.15 M9.5 14.0 L9.6 14.15 9.5 14.3 9.45 14.2 9.5 14.0 M11.0 13.45 L10.85 13.55 10.8 13.45 10.9 13.3 11.0 13.45 M10.7 13.65 L10.65 13.6 10.75 13.55 10.75 13.65 10.7 13.65 M9.35 14.4 Q9.3 14.3 9.4 14.3 L9.45 14.35 9.4 14.4 9.35 14.4" fill="#ea9871" fill-rule="evenodd" stroke="none"/>
      <path d="M21.6 13.5 L21.65 13.8 21.7 14.0 21.65 14.0 21.55 14.0 21.5 14.05 21.15 14.15 21.0 14.25 20.9 14.1 20.85 14.0 20.8 14.0 20.7 13.9 20.75 13.65 20.85 13.6 21.0 13.55 21.05 13.65 21.2 13.75 21.25 13.7 21.35 13.85 21.45 13.65 21.45 13.55 21.45 13.5 21.45 13.4 21.55 13.45 21.6 13.5 M11.9 15.65 L11.75 15.6 11.55 15.55 11.5 15.5 11.45 15.5 11.35 15.45 11.3 15.45 11.35 15.3 11.4 15.15 11.45 15.05 11.5 15.0 11.5 15.1 11.5 15.2 11.6 15.35 11.8 15.45 11.9 15.45 12.05 15.5 11.95 15.55 11.9 15.65 M11.2 16.6 L11.15 16.6 10.8 16.7 10.8 16.65 10.75 16.35 10.75 16.2 10.75 16.1 10.8 15.85 10.9 15.8 10.95 15.8 10.95 15.85 10.85 16.0 10.85 16.1 10.9 16.2 10.9 16.25 11.05 16.35 11.1 16.35 11.2 16.3 11.25 16.4 11.2 16.55 11.2 16.6 M22.15 14.45 L22.2 14.45 22.35 14.5 22.4 14.85 22.4 14.95 22.35 15.55 22.35 15.6 21.9 15.5 21.8 15.45 21.8 15.2 21.8 15.1 21.95 15.15 22.05 15.15 22.2 15.05 22.25 15.0 22.3 14.85 22.3 14.7 22.15 14.5 22.15 14.45" fill="#79a156" fill-rule="evenodd" stroke="none"/>
      <path d="M23.85 14.5 L23.75 14.7 23.8 14.5 23.85 14.5 M6.25 13.8 L6.2 13.45 6.3 13.5 6.25 13.8 M24.85 12.2 L25.15 12.1 25.45 12.05 25.8 12.05 26.05 12.05 Q26.35 12.15 26.75 12.55 L26.8 12.6 Q27.2 13.05 27.2 13.55 27.15 13.05 26.7 12.7 L26.65 12.65 Q26.25 12.3 25.9 12.3 L25.3 12.4 25.0 12.5 24.85 12.2 M5.4 12.1 L5.2 12.5 5.0 12.45 4.8 12.4 Q4.2 12.4 3.75 12.7 L3.45 12.9 Q2.9 13.35 2.9 14.1 L2.85 14.1 2.8 13.8 2.8 13.45 Q3.0 12.8 3.55 12.45 L3.6 12.4 4.1 12.2 4.6 12.05 4.95 12.05 5.3 12.05 5.4 12.1" fill="#ad5224" fill-rule="evenodd" stroke="none"/>
      <path d="M15.9 17.85 L15.7 17.85 15.45 17.85 15.25 17.0 15.1 16.35 15.15 16.05 15.15 16.0 15.15 15.85 15.15 15.8 15.05 15.6 14.95 15.3 14.95 14.95 15.0 14.65 15.0 14.55 14.95 14.35 14.85 14.25 14.8 14.1 14.75 13.9 14.7 13.85 14.7 13.6 14.65 13.5 14.45 13.35 14.25 13.2 13.65 13.05 12.75 13.0 12.5 12.9 12.1 12.75 11.85 12.75 11.75 12.75 11.45 12.65 11.35 12.65 10.95 12.6 10.55 12.5 9.2 12.25 7.95 12.05 7.7 12.1 7.5 12.15 Q7.3 12.2 6.9 12.4 L6.8 12.45 7.25 11.95 7.55 11.7 7.8 11.75 7.85 11.75 8.35 11.8 8.55 11.85 9.0 11.9 11.1 12.3 11.45 12.35 11.8 12.4 11.95 12.45 13.0 12.65 13.8 12.8 14.7 13.0 14.75 13.0 14.85 12.95 16.35 12.5 16.5 12.45 16.55 12.45 17.5 12.15 17.8 12.1 18.25 11.9 19.3 11.55 19.95 11.35 20.05 11.35 21.0 11.0 21.35 10.85 21.85 11.05 21.25 11.25 19.7 11.8 19.45 11.85 19.25 11.9 18.25 12.25 16.45 12.85 16.2 12.9 15.55 13.15 15.5 13.2 15.3 13.4 15.3 13.45 14.95 13.9 15.0 13.95 15.2 14.8 15.25 15.05 15.4 15.75 15.75 17.3 15.9 17.85 M14.75 13.0 L14.95 13.9 14.75 13.0" fill="#e8791f" fill-rule="evenodd" stroke="none"/>
      <path d="M23.5 15.05 L23.5 15.1 23.2 15.4 23.15 15.45 23.1 15.5 23.05 15.55 22.7 15.85 21.95 16.3 21.45 16.55 21.4 16.6 21.3 16.65 21.25 16.65 21.0 16.8 19.85 17.2 19.35 17.35 18.75 17.5 17.0 17.75 15.95 17.85 15.9 17.85 16.0 17.8 16.05 17.7 16.05 17.8 16.1 17.8 16.75 17.75 17.2 17.7 17.75 17.65 18.4 17.5 19.05 17.35 19.3 17.3 20.1 17.05 20.1 16.95 20.15 17.05 20.85 16.75 21.1 16.65 21.4 16.5 21.5 16.45 21.6 16.4 21.65 16.4 21.7 16.35 22.05 16.15 22.4 15.95 22.55 15.8 23.0 15.5 23.2 15.3 23.25 15.25 23.3 15.2 23.5 15.0 23.5 15.05 M13.35 17.75 L13.3 17.75 12.9 17.7 12.75 17.7 12.3 17.65 11.65 17.55 11.3 17.45 9.2 16.75 8.85 16.55 8.8 16.55 8.4 16.35 8.0 16.1 6.8 15.05 6.85 15.05 6.8 15.0 6.8 14.9 6.8 14.85 7.05 15.15 7.35 15.45 7.55 15.6 8.15 16.05 8.2 16.1 8.3 16.15 8.8 16.4 10.0 16.95 10.05 16.95 10.65 17.2 11.25 17.35 12.2 17.55 12.9 17.7 13.0 17.7 13.3 17.7 13.35 17.75 M15.5 13.9 L15.5 13.85 15.55 13.85 15.5 13.9 M17.75 15.75 L17.7 15.75 17.7 15.65 17.75 15.75 M8.6 16.0 L8.5 16.05 8.5 15.95 8.6 16.0" fill="#632a14" fill-rule="evenodd" stroke="none"/>
      <path d="M21.0 14.25 L20.4 14.65 20.35 14.6 20.0 14.2 20.2 14.1 20.4 14.1 20.75 14.05 20.85 14.0 20.9 14.1 21.0 14.25 M12.6 15.8 L12.4 15.95 11.9 15.65 11.95 15.55 12.05 15.5 12.1 15.5 12.35 15.55 12.5 15.55 12.55 15.5 12.7 15.65 12.6 15.8" fill="#bfb69c" fill-rule="evenodd" stroke="none"/>
      <path d="M21.0 13.55 L21.2 13.45 21.35 13.4 21.45 13.4 21.45 13.5 21.45 13.55 21.45 13.65 21.35 13.85 21.25 13.7 21.2 13.75 21.05 13.65 21.0 13.55 M11.5 15.0 L11.6 15.0 11.6 15.1 11.7 15.25 11.85 15.2 11.9 15.1 12.0 15.15 12.25 15.3 12.05 15.45 12.05 15.5 11.9 15.45 11.8 15.45 11.6 15.35 11.5 15.2 11.5 15.1 11.5 15.0 M21.8 15.1 L21.8 15.05 21.9 14.65 21.95 14.55 21.95 14.5 22.0 14.45 22.05 14.45 22.15 14.45 22.15 14.5 22.3 14.7 22.3 14.85 22.25 15.0 22.2 15.05 22.05 15.15 21.95 15.15 21.8 15.1 M11.2 16.1 L11.2 16.25 11.2 16.3 11.1 16.35 11.05 16.35 10.9 16.25 10.9 16.2 10.85 16.1 10.85 16.0 10.95 15.85 10.95 15.8 11.0 15.85 11.1 15.85 11.15 15.9 11.15 15.95 11.2 16.1 M10.95 16.05 L11.0 16.15 11.1 16.05 11.05 16.0 11.0 16.0 10.95 16.05" fill="#a3d979" fill-rule="evenodd" stroke="none"/>
      <path d="M20.2 14.1 L20.45 14.05 20.7 13.9 20.8 14.0 20.85 14.0 20.75 14.05 20.4 14.1 20.2 14.1 M12.25 15.3 L12.3 15.35 12.55 15.5 12.5 15.55 12.35 15.55 12.1 15.5 12.05 15.5 12.05 15.45 12.25 15.3" fill="#e2ddcd" fill-rule="evenodd" stroke="none"/>
      <path d="M17.6 18.1 L17.1 18.2 16.85 18.2 16.45 18.2 Q16.45 18.15 16.8 18.05 L16.85 18.05 17.05 18.0 17.35 18.0 17.6 18.1 M15.8 18.25 L15.55 18.25 15.35 18.25 15.1 18.25 15.05 18.25 14.1 18.25 12.7 18.15 12.0 18.05 11.35 17.9 9.45 17.4 9.25 17.3 9.15 17.3 9.1 17.3 8.6 17.1 8.55 17.05 8.5 17.05 8.35 17.0 8.35 16.9 8.3 16.95 7.45 16.5 7.5 16.5 7.75 16.4 8.65 16.75 8.95 16.9 9.15 17.0 11.4 17.75 11.45 17.75 12.0 17.85 12.7 17.95 13.9 18.05 15.2 18.05 Q15.7 18.1 15.8 18.25" fill="#fcf566" fill-rule="evenodd" stroke="none"/>
      <path d="M20.0 18.5 L20.05 18.45 20.1 18.45 20.0 18.5" fill="#bc8872" fill-rule="evenodd" stroke="none"/>
      <path d="M11.6 15.0 L11.9 15.1 11.85 15.2 11.7 15.25 11.6 15.1 11.6 15.0 M10.95 16.05 L11.0 16.0 11.05 16.0 11.1 16.05 11.0 16.15 10.95 16.05" fill="#dbe780" fill-rule="evenodd" stroke="none"/>
      <path d="M23.4 18.35 L22.8 19.1 22.3 19.65 20.85 20.95 20.25 21.35 19.75 21.7 18.8 22.15 18.75 21.95 18.65 22.2 17.25 22.55 16.0 22.75 12.8 22.6 11.7 22.35 11.05 22.2 10.6 22.0 9.75 21.6 9.5 21.45 8.5 20.6 7.65 19.8 7.7 19.8 9.75 20.8 Q12.45 21.85 15.0 21.85 16.7 21.85 18.6 21.2 L19.6 20.8 21.8 19.6 21.95 19.55 23.4 18.35" fill="#d6791f" fill-rule="evenodd" stroke="none"/>
      <path d="M22.15 17.65 L22.25 17.55 22.3 17.6 22.2 17.65 22.15 17.65" fill="#946540" fill-rule="evenodd" stroke="none"/>
      <path d="M6.8 15.05 L6.75 15.0 6.7 14.9 6.65 14.9 6.6 14.75 6.6 14.7 6.7 14.85 6.7 14.9 6.8 15.0 6.85 15.05 6.8 15.05" fill="#6a442f" fill-rule="evenodd" stroke="none"/>
      <path d="M6.3 15.6 L6.25 15.55 6.25 15.5 6.2 15.45 6.1 15.25 6.15 15.2 6.2 15.15 6.25 15.15 6.4 15.05 Q6.6 15.05 6.7 15.2 L6.85 15.4 6.85 15.45 6.75 15.6 6.7 15.65 6.65 15.65 6.55 15.65 6.35 15.6 6.3 15.6 M7.4 16.15 L7.3 16.2 7.25 16.2 7.15 16.1 7.1 16.1 7.05 15.95 7.05 15.9 7.1 15.9 7.2 15.85 7.3 15.9 7.35 15.9 7.4 15.95 7.45 16.1 7.4 16.15" fill="#fcff5f" fill-rule="evenodd" stroke="none"/>
      <path d="M24.75 12.05 L24.8 12.1 24.85 12.2 25.15 12.1 25.45 12.05 25.8 12.05 26.05 12.05 Q26.35 12.15 26.75 12.55 L26.8 12.6 Q27.2 13.05 27.2 13.55 L27.2 13.7 Q27.1 14.3 26.45 14.7 L25.0 15.1 24.95 15.25 24.9 15.3 24.55 15.8 24.55 15.85 24.3 16.1 24.15 16.3 24.5 16.3 24.5 16.35 24.3 16.8 23.4 18.35 22.8 19.1 22.3 19.65 20.85 20.95 20.25 21.35 19.75 21.7 18.8 22.15 18.65 22.2 17.25 22.55 16.0 22.75 12.8 22.6 11.7 22.35 11.05 22.2 10.6 22.0 9.75 21.6 9.5 21.45 8.5 20.6 7.65 19.8 7.55 19.7 7.05 19.1 7.0 19.0 Q6.25 18.05 5.8 16.95 L5.55 16.25 4.9 16.3 Q3.95 16.3 3.1 15.85 L3.0 15.75 2.95 15.75 2.9 15.7 Q2.1 15.15 2.1 14.15 2.1 12.6 3.6 11.95 L4.6 11.65 5.05 11.6 5.7 11.6 M5.7 11.65 Q6.3 10.95 7.25 10.35 L7.3 10.35 7.9 10.0 8.15 9.85 8.75 9.55 Q11.45 8.4 15.1 8.4 18.8 8.4 21.5 9.6 L22.3 10.0 Q23.75 10.75 24.5 11.7 L25.2 11.6 26.15 11.75 26.4 11.8 27.4 12.65 27.8 13.3 Q28.05 13.9 27.75 14.5 L26.9 15.6 25.6 16.15 24.9 16.3 24.65 16.3 24.5 16.35 M5.7 11.65 L5.7 11.7 5.4 12.1 5.2 12.5 5.15 12.6 Q4.9 13.15 4.9 13.8 L5.0 14.65 5.2 15.15 5.35 15.4 5.45 15.55 5.5 15.65 5.55 15.7 5.7 15.9 5.8 16.0 5.95 16.2 6.25 16.5 6.45 16.65 7.25 17.25 7.35 17.3 7.9 17.6 8.0 17.65 9.2 18.2 9.35 18.25 10.65 18.65 11.9 18.9 15.1 19.15 15.95 19.15 16.3 19.15 17.2 19.05 20.0 18.5 20.1 18.45 22.15 17.65 22.2 17.65 22.3 17.6 23.8 16.55 23.95 16.5 24.1 16.35 24.15 16.3 M27.2 13.55 Q27.15 13.05 26.7 12.7 L26.65 12.65 Q26.25 12.3 25.9 12.3 L25.3 12.4 25.0 12.5 25.05 12.6 25.15 12.85 25.25 13.8 25.25 14.0 25.15 14.65 25.15 14.7 25.05 14.95 25.0 15.1 M25.0 12.5 L24.85 12.2 M24.5 11.7 L24.75 12.05 M24.5 16.3 L24.65 16.3 M4.6 12.05 L4.1 12.2 3.6 12.4 3.55 12.45 Q3.0 12.8 2.8 13.45 L2.8 13.8 2.85 14.1 2.95 14.4 Q3.35 15.35 4.55 15.45 L4.75 15.45 4.8 15.45 5.35 15.4 M2.9 14.1 Q2.9 13.35 3.45 12.9 L3.75 12.7 Q4.2 12.4 4.8 12.4 L5.0 12.45 5.2 12.5 M5.3 12.05 L4.95 12.05 4.6 12.05 M5.55 16.25 L5.6 16.25 5.95 16.2 M2.9 14.1 L2.95 14.4" fill="none" stroke="#27110a" stroke-linecap="round" stroke-linejoin="round" stroke-width="0.5"/>
      <path d="M7.8 11.75 L7.85 11.75 8.35 11.8 8.55 11.85 9.0 11.9 11.1 12.3 11.45 12.35 11.8 12.4 11.95 12.45 13.0 12.65 13.8 12.8 14.7 13.0 14.75 13.0 14.85 12.95 16.35 12.5 16.5 12.45 16.55 12.45 17.5 12.15 17.8 12.1 18.25 11.9 19.3 11.55 19.95 11.35 20.05 11.35 21.0 11.0 21.35 10.85 M14.95 13.9 L15.0 13.95 15.2 14.8 15.25 15.05 15.4 15.75 15.75 17.3 15.9 17.85 M14.95 13.9 L14.75 13.0 M7.55 11.7 L7.8 11.75" fill="none" stroke="#962317" stroke-linecap="round" stroke-linejoin="round" stroke-width="0.5"/>
    </g>
  </defs>
</svg>
