<?xml version="1.0" encoding="UTF-8" standalone="no"?>
<svg xmlns:ffdec="https://www.free-decompiler.com/flash" xmlns:xlink="http://www.w3.org/1999/xlink" ffdec:objectType="frame" height="30.0px" width="30.0px" xmlns="http://www.w3.org/2000/svg">
  <g transform="matrix(1.0, 0.0, 0.0, 1.0, 0.0, 0.0)">
    <use ffdec:characterId="1" height="30.0" transform="matrix(1.0, 0.0, 0.0, 1.0, 0.0, 0.0)" width="30.0" xlink:href="#shape0"/>
  </g>
  <defs>
    <g id="shape0" transform="matrix(1.0, 0.0, 0.0, 1.0, 0.0, 0.0)">
      <path d="M0.0 0.0 L30.0 0.0 30.0 30.0 0.0 30.0 0.0 0.0" fill="#33cc66" fill-opacity="0.0" fill-rule="evenodd" stroke="none"/>
      <path d="M0.2 1.85 Q0.85 0.0 3.3 0.0 L26.7 0.0 Q29.15 0.0 29.8 1.85 L30.0 3.3 30.0 26.7 Q30.0 29.3 27.95 29.85 L26.7 30.0 3.3 30.0 2.05 29.85 Q0.0 29.3 0.0 26.7 L0.0 3.3 0.2 1.85" fill="#949bd0" fill-rule="evenodd" stroke="none"/>
      <path d="M4.75 25.4 L7.9 23.1 8.85 23.25 5.15 25.85 4.75 25.4 3.65 24.35 6.45 21.0 4.55 18.95 5.15 16.55 6.75 18.2 16.05 4.6 24.65 4.6 25.8 4.6 25.8 13.6 11.8 23.2 13.25 24.6 10.6 25.05 10.1 24.5 11.65 24.1 10.5 22.85 24.65 12.8 24.65 4.6" fill="none" stroke="#ffffff" stroke-linecap="round" stroke-linejoin="round" stroke-width="3.5"/>
      <path d="M25.8 20.2 L13.75 20.2 13.75 25.3 25.8 25.3 25.8 20.2 Z" fill="none" stroke="#ffffff" stroke-linecap="round" stroke-linejoin="round" stroke-width="3.5"/>
      <path d="M24.65 4.7 L25.8 4.7 25.8 13.7 11.8 23.3 13.25 24.7 10.6 25.15 10.1 24.6 11.65 24.2 10.5 22.95 24.65 12.9 24.65 6.0 24.65 4.7 M8.85 23.35 L5.15 25.95 4.75 25.5 7.9 23.2 8.85 23.35" fill="#1c0037" fill-rule="evenodd" stroke="none"/>
      <path d="M24.65 4.7 L24.65 6.0 17.05 6.0 7.55 19.4 7.05 20.3 4.9 17.7 5.15 16.65 6.75 18.3 16.05 4.7 24.65 4.7" fill="#380037" fill-rule="evenodd" stroke="none"/>
      <path d="M24.65 6.0 L24.65 12.9 10.5 22.95 11.65 24.2 10.1 24.6 8.85 23.35 7.9 23.2 4.75 25.5 3.65 24.45 6.45 21.1 4.55 19.05 4.9 17.7 7.05 20.3 7.55 19.4 17.05 6.0 24.65 6.0" fill="#510066" fill-rule="evenodd" stroke="none"/>
      <path d="M13.75 24.25 L13.75 21.25 25.8 21.25 25.8 24.25 22.4 24.25 21.6 24.25 21.4 24.25 18.4 24.25 17.35 24.25 17.15 24.25 17.0 24.25 15.6 24.25 15.0 24.25 14.3 24.25 14.2 24.25 13.75 24.25" fill="#fff01d" fill-rule="evenodd" stroke="none"/>
      <path d="M13.75 21.25 L13.75 20.2 25.8 20.2 25.8 21.25 13.75 21.25" fill="#ffcc00" fill-rule="evenodd" stroke="none"/>
      <path d="M25.8 24.25 L25.8 25.15 23.9 25.15 22.65 25.15 22.05 25.15 13.75 25.15 13.75 24.25 14.2 24.25 14.3 24.25 15.0 24.25 15.6 24.25 17.0 24.25 17.15 24.25 17.35 24.25 18.4 24.25 21.4 24.25 21.6 24.25 22.4 24.25 25.8 24.25" fill="#ff9900" fill-rule="evenodd" stroke="none"/>
      <path d="M25.8 24.25 L25.8 25.15 23.9 25.15 22.65 25.15 22.05 25.15 13.75 25.15 13.75 24.25 13.75 21.25 13.75 20.2 25.8 20.2 25.8 21.25 25.8 24.25 Z" fill="none" stroke="#4b2b0a" stroke-linecap="round" stroke-linejoin="round" stroke-width="1.0"/>
    </g>
  </defs>
</svg>
