<?xml version="1.0" encoding="UTF-8" standalone="no"?>
<svg xmlns:ffdec="https://www.free-decompiler.com/flash" xmlns:xlink="http://www.w3.org/1999/xlink" ffdec:objectType="frame" height="30.05px" width="30.0px" xmlns="http://www.w3.org/2000/svg">
  <g transform="matrix(1.0, 0.0, 0.0, 1.0, 0.0, 0.05)">
    <use ffdec:characterId="1" height="30.0" transform="matrix(1.0, 0.0, 0.0, 1.0, 0.0, 0.0)" width="30.0" xlink:href="#shape0"/>
    <use ffdec:characterId="3" height="30.0" transform="matrix(1.0, 0.0, 0.0, 1.0, 0.0, -0.05)" width="30.0" xlink:href="#sprite0"/>
  </g>
  <defs>
    <g id="shape0" transform="matrix(1.0, 0.0, 0.0, 1.0, 0.0, 0.0)">
      <path d="M0.0 0.0 L30.0 0.0 30.0 30.0 0.0 30.0 0.0 0.0" fill="#33cc66" fill-opacity="0.0" fill-rule="evenodd" stroke="none"/>
    </g>
    <g id="sprite0" transform="matrix(1.0, 0.0, 0.0, 1.0, 0.0, 0.0)">
      <use ffdec:characterId="2" height="30.0" transform="matrix(1.0, 0.0, 0.0, 1.0, 0.0, 0.0)" width="30.0" xlink:href="#shape1"/>
    </g>
    <g id="shape1" transform="matrix(1.0, 0.0, 0.0, 1.0, 0.0, 0.0)">
      <path d="M30.0 26.7 Q30.0 30.0 26.7 30.0 L3.3 30.0 Q0.0 30.0 0.0 26.7 L0.0 3.3 Q0.0 0.0 3.3 0.0 L26.7 0.0 Q30.0 0.0 30.0 3.3 L30.0 26.7" fill="#cb2c1b" fill-rule="evenodd" stroke="none"/>
      <path d="M15.1 26.3 L27.15 26.3 27.15 21.2 15.1 21.2 15.1 26.3 Z" fill="none" stroke="#ffffff" stroke-linecap="round" stroke-linejoin="round" stroke-width="3.5"/>
      <path d="M11.2 22.6 L9.65 22.15 Q7.55 21.4 6.65 19.0 L6.35 17.8 6.15 16.7 6.15 16.65 6.0 16.2 6.0 13.65 Q6.0 11.75 6.55 10.6 7.7 8.55 9.55 8.55 L10.45 8.75 11.05 8.9 11.25 10.35 11.25 10.55 11.3 10.65 11.35 10.85 11.4 11.0 12.55 10.15 12.35 9.5 Q13.85 7.4 19.1 7.0 L19.2 7.0 19.15 7.4 19.1 7.45 18.9 8.0 18.45 8.85 17.6 10.0 Q16.05 11.7 15.05 11.95 13.95 12.25 13.3 11.4 L12.9 10.8 11.65 11.65 13.15 13.6 Q14.65 15.1 16.6 15.9 L17.7 14.3 16.45 13.3 Q16.95 11.95 18.85 10.35 20.1 9.3 21.25 8.85 L21.3 8.85 Q21.7 8.65 22.05 8.6 22.25 9.5 21.6 11.1 L20.0 14.05 18.85 14.65 17.75 16.3 19.6 16.6 Q19.65 17.1 20.15 17.3 L20.4 17.35 21.5 17.4 21.65 18.1 M22.3 16.2 L21.25 16.0 21.1 16.0 Q21.25 15.2 22.05 13.5 22.85 12.0 23.2 11.6 L23.35 11.35 23.4 11.4 24.15 12.45 24.6 14.25 Q24.6 15.85 23.65 16.15 L22.9 16.25 21.75 19.0 21.5 20.25 Q21.15 21.4 20.0 22.2 19.65 22.5 19.05 22.65 M11.25 10.55 L11.3 10.85 11.4 11.0 M6.15 16.65 L6.1 16.25 6.1 16.1 6.0 16.2 M18.5 22.85 L15.85 23.15 15.05 23.2 13.2 23.05 12.0 22.85" fill="none" stroke="#ffffff" stroke-linecap="round" stroke-linejoin="round" stroke-width="3.0"/>
      <path d="M21.15 8.85 L21.3 8.8 22.1 8.6 Q22.25 9.5 21.6 11.1 L20.0 14.05 Q19.45 14.55 18.85 14.6 20.45 11.85 21.1 9.2 20.3 11.1 17.7 14.35 L16.5 13.3 Q17.0 11.95 18.9 10.35 20.15 9.3 21.15 8.85 M17.75 16.3 L19.65 16.65 Q19.7 17.1 20.2 17.35 L19.7 17.8 Q17.95 19.45 15.3 20.05 L15.2 19.6 17.75 16.3 M6.65 18.95 L6.35 17.75 6.95 17.1 Q8.0 16.1 9.25 16.1 10.55 16.1 11.85 17.4 13.05 18.55 13.4 20.25 L13.4 20.35 13.25 20.35 11.7 20.4 8.55 19.9 Q7.65 19.6 6.65 18.95 M6.15 16.25 L6.15 16.1 6.25 16.0 6.15 16.25 M6.05 14.95 L6.05 13.7 Q7.85 11.9 9.5 11.15 9.85 10.95 10.15 10.9 L11.25 10.55 11.3 10.9 11.4 11.0 10.15 11.9 Q9.35 12.4 8.1 13.4 L6.05 14.95 M18.95 7.95 L18.45 8.8 17.6 10.0 Q16.1 11.65 15.05 11.95 14.0 12.25 13.35 11.4 L12.95 10.85 Q14.75 9.7 16.65 8.6 L18.95 7.95 M11.65 11.6 Q12.15 12.5 13.2 13.6 14.65 15.1 16.65 15.9 L14.8 18.45 13.5 16.6 Q11.6 14.45 9.45 14.45 L7.95 14.55 9.65 13.1 10.85 12.15 11.65 11.6" fill="#bb8652" fill-rule="evenodd" stroke="none"/>
      <path d="M20.2 17.35 L20.45 17.4 21.5 17.45 21.65 18.1 20.95 19.4 18.55 22.85 15.85 23.15 15.05 23.2 15.3 20.55 15.3 20.05 Q17.95 19.45 19.7 17.8 L20.2 17.35 M22.3 16.2 L21.25 16.0 21.1 16.0 Q21.25 15.2 22.1 13.5 L23.2 11.6 23.4 11.35 23.45 11.4 22.6 15.2 22.3 16.2 M23.55 11.45 L23.6 11.55 24.15 12.45 24.6 14.3 Q24.6 15.85 23.65 16.15 L22.95 16.25 22.95 16.2 23.5 12.15 23.55 11.45 M21.75 18.95 L21.5 20.3 Q21.15 21.35 20.05 22.2 19.7 22.5 19.05 22.65 L21.0 20.15 21.75 18.95 M13.25 23.05 L12.05 22.85 13.5 21.35 13.5 21.4 13.25 23.05 M11.2 22.6 L9.7 22.15 Q7.55 21.35 6.65 18.95 7.65 19.6 8.55 19.9 L11.7 20.4 13.25 20.35 11.2 22.6" fill="#895f3d" fill-rule="evenodd" stroke="none"/>
      <path d="M18.85 14.6 L17.75 16.3 15.2 19.6 14.95 19.75 13.5 21.35 12.05 22.85 11.1 23.7 Q9.9 24.55 8.75 24.8 8.55 24.85 7.65 25.25 9.3 24.45 11.2 22.6 L13.25 20.35 13.4 20.35 13.4 20.25 14.2 19.15 14.8 18.45 16.65 15.9 17.7 14.35 Q20.3 11.1 21.1 9.2 20.45 11.85 18.85 14.6 M21.65 18.1 L22.3 16.2 22.6 15.2 23.45 11.4 23.45 11.3 23.55 11.45 23.5 12.15 22.95 16.2 22.95 16.25 21.75 18.95 21.0 20.15 19.05 22.65 Q15.0 27.65 13.05 27.65 L12.85 27.65 12.75 27.4 15.35 25.85 18.55 22.85 20.95 19.4 21.65 18.1 M6.15 16.1 L4.3 17.65 Q2.7 19.05 2.25 19.9 3.7 16.75 6.05 14.95 L8.1 13.4 Q9.35 12.4 10.15 11.9 L11.4 11.0 12.6 10.15 13.25 9.65 Q15.15 8.45 19.05 7.25 L17.45 8.05 16.65 8.6 Q14.75 9.7 12.95 10.85 L11.65 11.6 10.85 12.15 9.65 13.1 7.95 14.55 7.2 14.8 Q6.65 15.15 6.25 16.0 L6.15 16.1 M25.4 13.3 Q26.3 14.6 26.45 15.8 L26.5 19.0 Q26.5 27.65 19.3 29.95 23.05 28.45 24.55 24.0 26.1 19.6 25.8 16.65 L25.4 13.3 M12.7 5.05 L14.5 5.45 Q15.8 5.8 16.05 6.2 L14.15 6.0 Q10.7 5.8 6.05 7.6 1.4 9.45 0.3 14.2 L0.0 13.1 Q0.0 9.85 4.7 7.3 8.85 5.05 12.7 5.05" fill="#b9ffff" fill-rule="evenodd" stroke="none"/>
      <path d="M6.05 13.7 Q6.05 11.7 6.6 10.65 7.7 8.55 9.6 8.55 L10.5 8.7 11.05 8.9 11.25 10.35 11.25 10.55 10.15 10.9 Q9.85 10.95 9.5 11.15 7.85 11.9 6.05 13.7 M12.6 10.15 L12.35 9.5 Q13.9 7.4 19.1 7.05 L19.2 7.05 19.15 7.4 19.1 7.45 18.95 7.95 16.65 8.6 17.45 8.05 19.05 7.25 Q15.15 8.45 13.25 9.65 L12.6 10.15" fill="#cca680" fill-rule="evenodd" stroke="none"/>
      <path d="M15.05 23.2 L13.25 23.05 13.5 21.4 13.5 21.35 14.95 19.75 15.2 19.6 15.3 20.05 15.3 20.55 15.05 23.2 M6.35 17.75 L6.15 16.7 6.15 16.25 6.25 16.0 Q6.65 15.15 7.2 14.8 L7.95 14.55 9.45 14.45 Q11.6 14.45 13.5 16.6 L14.8 18.45 14.2 19.15 13.4 20.25 Q13.05 18.55 11.85 17.4 10.55 16.1 9.25 16.1 8.0 16.1 6.95 17.1 L6.35 17.75" fill="#f7dc77" fill-rule="evenodd" stroke="none"/>
      <path d="M21.3 8.8 L22.1 8.6 Q22.25 9.5 21.6 11.1 L20.0 14.05 Q19.45 14.55 18.85 14.6 M17.75 16.3 L19.65 16.65 Q19.7 17.1 20.2 17.35 L20.45 17.4 21.5 17.45 21.65 18.1 M22.3 16.2 L21.25 16.0 21.1 16.0 Q21.25 15.2 22.1 13.5 L23.2 11.6 23.4 11.35 23.45 11.4 M23.6 11.55 L24.15 12.45 24.6 14.3 Q24.6 15.85 23.65 16.15 L22.95 16.25 M21.75 18.95 L21.5 20.3 Q21.15 21.35 20.05 22.2 19.7 22.5 19.05 22.65 M18.55 22.85 L15.85 23.15 15.05 23.2 13.25 23.05 12.05 22.85 M11.2 22.6 L9.7 22.15 Q7.55 21.35 6.65 18.95 L6.35 17.75 6.15 16.7 6.15 16.25 6.15 16.1 M6.05 14.95 L6.05 13.7 Q6.05 11.7 6.6 10.65 7.7 8.55 9.6 8.55 L10.5 8.7 11.05 8.9 11.25 10.35 11.25 10.55 11.3 10.7 11.35 10.9 11.4 11.0 11.3 10.9 11.25 10.55 M12.6 10.15 L12.35 9.5 Q13.9 7.4 19.1 7.05 L19.2 7.05 19.15 7.4 19.1 7.45 18.95 7.95 18.45 8.8 17.6 10.0 Q16.1 11.65 15.05 11.95 14.0 12.25 13.35 11.4 L12.95 10.85 M11.65 11.6 Q12.15 12.5 13.2 13.6 14.65 15.1 16.65 15.9 M17.7 14.35 L16.5 13.3 Q17.0 11.95 18.9 10.35 20.15 9.3 21.15 8.85" fill="none" stroke="#6d0101" stroke-linecap="round" stroke-linejoin="round" stroke-width="1.0"/>
      <path d="M15.1 22.25 L15.1 21.2 27.15 21.2 27.15 22.25 15.1 22.25" fill="#ffcc00" fill-rule="evenodd" stroke="none"/>
      <path d="M27.15 22.25 L27.15 25.25 23.75 25.25 22.95 25.25 22.75 25.25 19.75 25.25 18.7 25.25 18.5 25.25 18.35 25.25 16.95 25.25 16.35 25.25 15.65 25.25 15.55 25.25 15.1 25.25 15.1 22.25 27.15 22.25" fill="#fff01d" fill-rule="evenodd" stroke="none"/>
      <path d="M27.15 25.25 L27.15 26.15 25.25 26.15 24.0 26.15 23.4 26.15 15.1 26.15 15.1 25.25 15.55 25.25 15.65 25.25 16.35 25.25 16.95 25.25 18.35 25.25 18.5 25.25 18.7 25.25 19.75 25.25 22.75 25.25 22.95 25.25 23.75 25.25 27.15 25.25" fill="#ff9900" fill-rule="evenodd" stroke="none"/>
      <path d="M15.1 22.25 L15.1 21.2 27.15 21.2 27.15 22.25 27.15 25.25 27.15 26.15 25.25 26.15 24.0 26.15 23.4 26.15 15.1 26.15 15.1 25.25 15.1 22.25 Z" fill="none" stroke="#4b2b0a" stroke-linecap="round" stroke-linejoin="round" stroke-width="1.0"/>
    </g>
  </defs>
</svg>
