<?xml version="1.0" encoding="UTF-8" standalone="no"?>
<svg xmlns:ffdec="https://www.free-decompiler.com/flash" xmlns:xlink="http://www.w3.org/1999/xlink" ffdec:objectType="frame" height="30.0px" width="30.0px" xmlns="http://www.w3.org/2000/svg">
  <g transform="matrix(1.0, 0.0, 0.0, 1.0, 0.0, 0.0)">
    <use ffdec:characterId="1" height="30.0" transform="matrix(1.0, 0.0, 0.0, 1.0, 0.0, 0.0)" width="30.0" xlink:href="#shape0"/>
  </g>
  <defs>
    <g id="shape0" transform="matrix(1.0, 0.0, 0.0, 1.0, 0.0, 0.0)">
      <path d="M0.0 0.0 L30.0 0.0 30.0 30.0 0.0 30.0 0.0 0.0" fill="#33cc66" fill-opacity="0.0" fill-rule="evenodd" stroke="none"/>
      <path d="M3.3 0.0 L26.7 0.0 Q30.0 0.0 30.0 3.3 L30.0 26.7 Q30.0 30.0 26.7 30.0 L3.3 30.0 Q0.0 30.0 0.0 26.7 L0.0 3.3 Q0.0 0.0 3.3 0.0" fill="#6699cc" fill-rule="evenodd" stroke="none"/>
      <path d="M21.7 21.95 L21.8 21.9 Q24.6 19.05 24.6 15.05 24.6 11.1 21.8 8.3 18.95 5.55 15.0 5.55 11.05 5.55 8.25 8.3 5.45 11.1 5.45 15.05 5.45 19.05 8.25 21.9 L9.4 22.85 10.05 23.3 Q12.25 24.65 15.0 24.65 17.8 24.65 20.0 23.3 L21.7 21.95 M27.65 15.05 Q27.65 20.3 23.95 23.95 20.25 27.65 15.1 27.65 9.85 27.65 6.15 23.95 2.45 20.3 2.45 15.05 2.45 9.9 6.15 6.15 9.85 2.55 15.1 2.55 20.25 2.55 23.95 6.15 27.65 9.9 27.65 15.05" fill="#993300" fill-rule="evenodd" stroke="none"/>
      <path d="M21.7 21.95 L20.0 23.3 Q17.8 24.65 15.0 24.65 12.25 24.65 10.05 23.3 L9.4 22.85 8.25 21.9 Q5.45 19.05 5.45 15.05 5.45 11.1 8.25 8.3 11.05 5.55 15.0 5.55 18.95 5.55 21.8 8.3 24.6 11.1 24.6 15.05 24.6 19.05 21.8 21.9 L21.7 21.95 M27.65 15.05 Q27.65 20.3 23.95 23.95 20.25 27.65 15.1 27.65 9.85 27.65 6.15 23.95 2.45 20.3 2.45 15.05 2.45 9.9 6.15 6.15 9.85 2.55 15.1 2.55 20.25 2.55 23.95 6.15 27.65 9.9 27.65 15.05 Z" fill="none" stroke="#ffffff" stroke-linecap="round" stroke-linejoin="round" stroke-width="3.5"/>
      <path d="M20.3 12.4 Q20.0 13.5 20.0 14.25 L20.3 15.2 21.2 16.7 Q22.4 18.4 22.4 20.2 22.4 22.05 20.75 23.4 L20.3 23.75 Q18.8 24.8 16.35 24.8 13.5 24.8 13.65 24.35 13.75 23.95 11.15 22.95 9.55 22.25 9.1 21.4 8.65 20.8 8.65 19.4 L8.85 17.9 8.35 17.45 8.15 17.15 Q8.55 15.65 7.2 13.8 L9.3 15.2 Q11.15 15.2 11.15 14.35 L10.5 12.95 10.1 11.45 10.05 10.85 Q10.05 8.95 11.6 7.4 13.3 5.8 13.3 6.15 12.5 7.3 12.5 7.9 12.5 8.6 13.0 8.6 L13.45 8.4 14.05 8.25 Q14.8 8.25 15.8 10.7 L16.15 11.45 Q16.8 12.95 17.4 12.65 L18.3 11.65 18.45 11.45 Q18.7 10.85 19.5 10.2 L20.3 9.9 20.8 9.85 21.2 9.9 21.4 10.0 21.65 10.0 20.8 11.05 20.75 11.15 20.65 11.45 20.3 12.4 Z" fill="none" stroke="#ffffff" stroke-linecap="round" stroke-linejoin="round" stroke-width="3.5"/>
      <path d="M21.8 21.95 L21.9 21.9 Q24.7 19.05 24.7 15.05 24.7 11.1 21.9 8.3 19.05 5.55 15.1 5.55 11.15 5.55 8.35 8.3 5.55 11.1 5.55 15.05 5.55 19.05 8.35 21.9 L9.5 22.85 10.15 23.3 Q12.35 24.65 15.1 24.65 17.9 24.65 20.1 23.3 L21.8 21.95 M27.75 15.05 Q27.75 20.3 24.05 23.95 20.35 27.65 15.2 27.65 9.95 27.65 6.25 23.95 2.55 20.3 2.55 15.05 2.55 9.9 6.25 6.15 9.95 2.55 15.2 2.55 20.35 2.55 24.05 6.15 27.75 9.9 27.75 15.05" fill="#ff0000" fill-rule="evenodd" stroke="none"/>
      <path d="M21.8 21.95 L20.1 23.3 Q17.9 24.65 15.1 24.65 12.35 24.65 10.15 23.3 L9.5 22.85 8.35 21.9 Q5.55 19.05 5.55 15.05 5.55 11.1 8.35 8.3 11.15 5.55 15.1 5.55 19.05 5.55 21.9 8.3 24.7 11.1 24.7 15.05 24.7 19.05 21.9 21.9 L21.8 21.95 M27.75 15.05 Q27.75 20.3 24.05 23.95 20.35 27.65 15.2 27.65 9.95 27.65 6.25 23.95 2.55 20.3 2.55 15.05 2.55 9.9 6.25 6.15 9.95 2.55 15.2 2.55 20.35 2.55 24.05 6.15 27.75 9.9 27.75 15.05 Z" fill="none" stroke="#660000" stroke-linecap="round" stroke-linejoin="round" stroke-width="1.0"/>
      <path d="M20.85 11.1 L20.5 12.05 Q20.2 13.15 20.25 13.9 L20.5 14.85 21.45 16.35 Q22.6 18.05 22.6 19.85 22.6 21.7 21.0 23.05 L20.5 23.4 Q19.0 24.45 16.6 24.45 13.7 24.45 13.85 24.0 14.0 23.6 11.4 22.6 9.75 21.9 9.3 21.05 8.85 20.45 8.85 19.05 L9.1 17.55 8.55 17.1 8.35 16.8 Q8.75 15.3 7.4 13.45 L9.5 14.85 Q11.35 14.85 11.35 14.0 L10.7 12.6 10.35 11.1 10.25 10.5 Q10.25 8.6 11.8 7.05 13.55 5.45 13.5 5.8 12.75 6.95 12.75 7.55 12.75 8.25 13.2 8.25 L13.7 8.05 14.25 7.9 Q15.05 7.9 16.0 10.35 L16.35 11.1 Q17.05 12.6 17.6 12.3 L18.55 11.3 18.65 11.1 Q18.9 10.5 19.7 9.85 L20.5 9.55 21.0 9.5 21.45 9.55 21.6 9.65 21.85 9.65 21.0 10.7 21.0 10.8 20.85 11.1 M15.5 23.1 L15.8 23.05 Q17.5 23.05 18.55 22.25 19.7 21.25 19.7 19.55 19.7 18.2 18.85 17.1 18.1 15.95 18.1 15.3 L18.35 14.45 18.65 13.5 18.35 13.45 17.7 13.85 17.0 14.15 Q16.6 14.15 15.65 13.0 L14.45 11.8 Q14.15 11.75 13.2 11.1 L13.15 11.1 Q12.45 10.55 12.35 9.8 L12.25 10.85 12.25 11.1 Q12.3 11.85 12.9 12.8 13.7 13.75 13.7 14.85 L13.65 15.3 13.0 15.75 12.25 15.6 Q11.85 15.6 11.65 15.8 L11.25 16.25 9.75 16.0 11.55 16.95 11.85 17.65 11.8 18.6 Q11.8 20.15 13.15 21.65 13.75 22.45 14.6 22.85 L14.6 22.9 14.65 22.9 14.45 23.25 14.7 23.25 14.9 23.25 15.05 23.2 15.25 23.15 15.35 23.15 15.5 23.1" fill="#ff0000" fill-rule="evenodd" stroke="none"/>
      <path d="M14.6 22.85 Q13.75 22.45 13.15 21.65 11.8 20.15 11.8 18.6 L11.85 17.65 11.55 16.95 9.75 16.0 11.25 16.25 11.65 15.8 Q11.85 15.6 12.25 15.6 L13.0 15.75 13.65 15.3 13.7 14.85 Q13.7 13.75 12.9 12.8 12.3 11.85 12.25 11.1 L12.25 10.85 12.35 9.8 Q12.45 10.55 13.15 11.1 L13.2 11.1 Q14.15 11.75 14.45 11.8 L15.65 13.0 Q16.6 14.15 17.0 14.15 L17.7 13.85 18.35 13.45 18.65 13.5 18.35 14.45 18.1 15.3 Q18.1 15.95 18.85 17.1 19.7 18.2 19.7 19.55 19.7 21.25 18.55 22.25 17.5 23.05 15.8 23.05 L15.5 23.1 Q17.15 22.5 17.75 21.85 18.55 20.95 18.35 19.55 18.1 18.05 16.8 17.1 L14.7 15.75 14.9 16.3 14.15 18.2 Q13.45 19.35 13.5 20.15 13.5 20.95 14.15 21.7 14.65 22.6 14.6 22.85" fill="#ff9900" fill-rule="evenodd" stroke="none"/>
      <path d="M14.6 22.85 Q14.65 22.6 14.15 21.7 13.5 20.95 13.5 20.15 13.45 19.35 14.15 18.2 L14.9 16.3 14.7 15.75 16.8 17.1 Q18.1 18.05 18.35 19.55 18.55 20.95 17.75 21.85 17.15 22.5 15.5 23.1 L15.35 23.15 15.25 23.15 15.05 23.2 14.9 23.25 14.7 23.25 14.45 23.25 14.65 22.9 14.6 22.85" fill="#ffff00" fill-rule="evenodd" stroke="none"/>
      <path d="M20.85 11.1 L20.5 12.05 Q20.2 13.15 20.25 13.9 L20.5 14.85 21.45 16.35 Q22.6 18.05 22.6 19.85 22.6 21.7 21.0 23.05 L20.5 23.4 Q19.0 24.45 16.6 24.45 13.7 24.45 13.85 24.0 14.0 23.6 11.4 22.6 9.75 21.9 9.3 21.05 8.85 20.45 8.85 19.05 L9.1 17.55 8.55 17.1 8.35 16.8 Q8.75 15.3 7.4 13.45 L9.5 14.85 Q11.35 14.85 11.35 14.0 L10.7 12.6 10.35 11.1 10.25 10.5 Q10.25 8.6 11.8 7.05 13.55 5.45 13.5 5.8 12.75 6.95 12.75 7.55 12.75 8.25 13.2 8.25 L13.7 8.05 14.25 7.9 Q15.05 7.9 16.0 10.35 L16.35 11.1 Q17.05 12.6 17.6 12.3 L18.55 11.3 18.65 11.1 Q18.9 10.5 19.7 9.85 L20.5 9.55 21.0 9.5 21.45 9.55 21.6 9.65 21.85 9.65 21.0 10.7 21.0 10.8 20.85 11.1 Z" fill="none" stroke="#760101" stroke-linecap="round" stroke-linejoin="round" stroke-width="1.0"/>
    </g>
  </defs>
</svg>
