<?xml version="1.0" encoding="UTF-8" standalone="no"?>
<svg xmlns:ffdec="https://www.free-decompiler.com/flash" xmlns:xlink="http://www.w3.org/1999/xlink" ffdec:objectType="frame" height="30.0px" width="30.1px" xmlns="http://www.w3.org/2000/svg">
  <g transform="matrix(1.0, 0.0, 0.0, 1.0, 0.0, 0.0)">
    <use ffdec:characterId="1" height="30.0" transform="matrix(1.0, 0.0, 0.0, 1.0, 0.0, 0.0)" width="30.1" xlink:href="#shape0"/>
  </g>
  <defs>
    <g id="shape0" transform="matrix(1.0, 0.0, 0.0, 1.0, 0.0, 0.0)">
      <path d="M0.0 0.0 L30.0 0.0 30.0 30.0 0.0 30.0 0.0 0.0" fill="#33cc66" fill-opacity="0.0" fill-rule="evenodd" stroke="none"/>
      <path d="M3.4 0.0 L26.8 0.0 Q30.1 0.0 30.1 3.3 L30.1 26.7 Q30.1 30.0 26.8 30.0 L3.4 30.0 Q0.1 30.0 0.1 26.7 L0.1 3.3 Q0.1 0.0 3.4 0.0" fill="#a47448" fill-rule="evenodd" stroke="none"/>
      <path d="M26.9 7.4 L26.65 7.55 Q21.0 10.8 16.5 15.2 L15.75 15.95 15.95 15.5 Q18.65 10.25 22.05 5.45 24.95 4.9 26.9 7.4 M16.55 17.35 L15.9 16.55 15.7 16.3 15.65 16.2 15.8 16.25 16.15 16.45 Q20.6 18.5 24.05 22.45 L25.35 21.0 Q26.4 23.35 26.5 25.25 L26.4 27.9 26.25 27.9 26.2 27.9 26.15 27.85 25.9 27.8 25.85 27.8 25.8 27.75 19.75 26.25 21.65 24.8 Q19.45 21.2 16.85 17.75 L16.7 17.55 16.55 17.35 Z" fill="none" stroke="#ffffff" stroke-linecap="round" stroke-linejoin="round" stroke-width="3.5"/>
      <path d="M6.4 4.2 Q5.95 4.2 5.15 4.85 3.7 6.15 2.95 8.1 2.3 9.8 2.15 12.1 L2.1 12.85 Q2.1 14.25 2.45 15.65 L2.5 15.85 Q3.45 18.9 6.15 21.25 6.15 23.45 8.2 23.45 L10.4 23.25 11.75 23.4 12.8 23.5 Q13.5 23.5 13.95 22.85 L14.4 21.5 14.4 21.25 Q16.55 18.95 17.5 15.9 L17.6 15.65 Q17.9 14.3 17.85 12.85 L17.85 12.15 Q17.8 9.8 17.1 7.8 16.4 6.25 15.1 4.75 L15.0 4.75 13.9 3.95 Q13.45 3.8 13.3 4.1 13.05 4.2 13.05 4.55 L13.2 5.75 13.05 6.35 13.05 6.45 11.55 4.2 Q10.8 3.4 10.05 3.4 9.4 3.4 8.65 4.2 7.75 5.15 7.0 6.45 L6.95 5.8 6.95 5.75 7.15 5.05 7.15 4.5 Q6.8 4.15 6.45 4.2 L6.4 4.2 M2.15 12.1 L2.1 12.4 2.1 12.85" fill="none" stroke="#ffffff" stroke-linecap="round" stroke-linejoin="round" stroke-width="3.0"/>
      <path d="M2.15 12.1 Q2.3 9.8 2.95 8.1 3.65 6.15 5.1 4.8 5.95 4.15 6.35 4.15 L6.4 4.15 Q6.8 4.1 7.15 4.5 L7.15 5.05 6.95 5.75 6.95 5.8 7.0 6.45 Q7.75 5.15 8.65 4.15 9.4 3.4 10.05 3.4 10.8 3.4 11.5 4.15 L13.0 6.45 13.0 6.35 13.15 5.75 13.0 4.55 Q13.0 4.15 13.3 4.1 13.45 3.8 13.9 3.95 14.25 4.1 15.0 4.75 L15.1 4.75 Q16.4 6.25 17.05 7.8 17.8 9.8 17.85 12.15 L17.85 12.55 17.85 12.9 17.2 15.6 17.1 15.7 17.5 15.85 15.85 17.4 Q14.8 18.55 13.45 18.95 L13.25 16.65 13.3 16.6 13.5 16.35 13.65 16.4 13.7 16.45 13.75 16.4 14.7 15.75 15.1 15.45 15.2 15.25 Q15.75 14.65 15.95 13.85 L16.0 13.25 16.05 12.65 16.05 12.55 Q16.0 11.8 15.6 11.2 L15.2 10.7 15.1 10.65 Q14.55 10.15 13.8 10.0 L13.05 9.9 12.1 10.05 11.35 10.4 10.95 10.7 10.55 11.2 Q10.15 11.7 10.1 12.4 L10.0 12.4 9.65 11.25 9.15 10.7 8.85 10.45 8.15 10.05 7.6 9.95 7.05 9.9 6.35 10.0 5.9 10.15 5.1 10.55 4.95 10.65 4.9 10.7 4.45 11.25 4.4 11.35 4.35 11.2 Q4.55 8.2 6.15 4.75 L5.65 5.3 Q4.3 6.45 3.65 8.3 2.9 10.0 2.9 12.4 L2.9 12.85 Q2.95 15.4 4.7 17.05 L6.45 18.3 4.95 15.45 5.15 15.6 5.3 15.75 6.25 16.4 6.8 16.6 7.15 16.65 7.15 16.7 7.0 19.2 6.75 19.1 6.75 19.0 Q5.1 18.6 4.2 17.4 2.3 15.6 2.1 12.85 L2.1 12.8 2.15 12.1 2.1 12.8 2.1 12.4 2.15 12.1 M15.3 10.4 L15.1 10.65 15.3 10.4" fill="url(#gradient0)" fill-rule="evenodd" stroke="none"/>
      <path d="M6.8 16.6 L6.25 16.4 5.3 15.75 5.15 15.6 4.95 15.45 6.45 18.3 4.7 17.05 Q2.95 15.4 2.9 12.85 L2.9 12.4 Q2.9 10.0 3.65 8.3 4.3 6.45 5.65 5.3 L6.15 4.75 Q4.55 8.2 4.35 11.2 L4.25 12.35 4.3 13.2 4.6 14.05 4.9 14.55 5.95 15.2 6.5 15.25 6.75 16.15 6.8 16.6 M10.0 12.4 L10.1 12.4 10.1 12.65 10.1 12.7 Q10.1 13.3 10.4 13.85 L10.0 13.85 9.75 13.85 10.0 12.7 10.0 12.65 10.0 12.4 M16.0 13.25 L15.95 13.85 Q15.75 14.65 15.2 15.25 L15.1 15.45 14.7 15.75 13.75 16.4 13.7 16.45 13.65 16.4 13.7 16.4 13.9 15.25 14.2 15.15 Q14.75 14.95 15.2 14.55 L15.45 14.25 16.0 13.25 M13.5 20.75 L13.5 22.0 Q13.4 22.65 12.8 22.65 L12.3 22.6 11.2 22.4 10.4 22.2 9.3 22.5 8.3 22.55 7.8 22.55 Q6.75 22.65 6.9 21.7 L6.9 21.5 7.75 20.9 8.3 21.2 10.75 20.8 11.2 21.2 11.25 21.3 12.8 21.1 13.5 20.75 M9.4 14.25 L10.75 14.25 12.2 14.25 12.4 14.25 Q12.95 14.25 13.0 14.85 L13.05 15.3 13.1 15.75 11.65 15.7 10.75 15.9 9.75 15.65 9.15 16.05 8.6 15.7 8.55 15.65 7.3 15.55 7.35 15.3 7.35 14.85 7.45 14.65 7.7 14.75 7.75 14.8 7.7 14.35 7.75 14.35 8.3 14.25 9.4 14.25" fill="#ffffff" fill-rule="evenodd" stroke="none"/>
      <path d="M2.1 12.85 Q2.3 15.6 4.2 17.4 5.1 18.6 6.75 19.0 L6.75 19.1 7.0 19.2 6.9 21.5 6.9 21.7 Q6.75 22.65 7.8 22.55 L8.3 22.55 9.3 22.5 10.4 22.2 11.2 22.4 12.3 22.6 12.8 22.65 Q13.4 22.65 13.5 22.0 L13.5 20.75 13.45 18.95 Q14.8 18.55 15.85 17.4 L17.5 15.85 17.1 15.7 17.2 15.6 17.85 12.9 17.6 15.65 17.5 15.85 Q16.55 18.95 14.35 21.25 L14.35 21.5 Q14.35 22.25 13.95 22.85 13.5 23.5 12.8 23.5 L11.7 23.35 10.35 23.25 8.2 23.45 Q6.15 23.45 6.15 21.25 3.45 18.9 2.5 15.85 L2.4 15.65 Q2.1 14.25 2.1 12.85" fill="#ff6600" fill-rule="evenodd" stroke="none"/>
      <path d="M4.35 11.2 L4.4 11.35 4.45 11.25 4.9 10.7 4.95 10.65 5.1 10.55 5.9 10.15 6.35 10.0 7.05 9.9 7.6 9.95 8.15 10.05 8.85 10.45 9.15 10.7 9.65 11.25 10.0 12.4 10.0 12.65 10.0 12.7 9.75 13.85 9.4 14.25 8.3 14.25 7.75 14.35 7.7 14.35 7.45 14.65 7.35 14.85 7.35 15.3 7.05 15.3 6.5 15.25 5.95 15.2 4.9 14.55 4.6 14.05 4.3 13.2 4.25 12.35 4.35 11.2 M10.1 12.4 Q10.15 11.7 10.55 11.2 L10.95 10.7 11.35 10.4 12.1 10.05 13.05 9.9 13.8 10.0 Q14.55 10.15 15.1 10.65 L15.2 10.7 15.6 11.2 Q16.0 11.8 16.05 12.55 L16.05 12.65 16.0 13.25 15.45 14.25 15.2 14.55 Q14.75 14.95 14.2 15.15 L13.9 15.25 13.05 15.3 13.0 14.85 Q12.95 14.25 12.4 14.25 L12.2 14.25 10.75 14.25 10.4 13.85 Q10.1 13.3 10.1 12.7 L10.1 12.65 10.1 12.4 M5.0 13.5 L6.35 12.0 7.95 13.5 6.35 12.0 5.0 13.5 M15.1 10.65 L13.85 12.0 12.35 10.55 13.85 12.0 15.1 10.65 M12.5 13.5 L13.85 12.0 15.45 13.5 13.85 12.0 12.5 13.5 M7.8 10.4 L6.35 12.0 4.95 10.65 6.35 12.0 7.8 10.4" fill="#f9862b" fill-rule="evenodd" stroke="none"/>
      <path d="M7.15 16.65 L6.8 16.6 6.75 16.15 6.5 15.25 7.05 15.3 7.35 15.3 7.3 15.55 7.2 16.45 7.15 16.65 M13.65 16.4 L13.5 16.35 13.3 16.6 13.25 16.65 13.1 15.75 13.05 15.3 13.9 15.25 13.7 16.4 13.65 16.4 M9.75 13.85 L10.0 13.85 10.4 13.85 10.75 14.25 9.4 14.25 9.75 13.85" fill="#fe6b07" fill-rule="evenodd" stroke="none"/>
      <path d="M7.0 19.2 L7.15 16.7 7.15 16.65 7.2 16.45 7.3 15.55 8.55 15.65 8.6 15.7 9.15 16.05 9.75 15.65 10.75 15.9 11.65 15.7 13.1 15.75 13.25 16.65 13.45 18.95 13.5 20.75 12.8 21.1 11.25 21.3 11.2 21.2 10.75 20.8 8.3 21.2 7.75 20.9 6.9 21.5 7.0 19.2" fill="url(#gradient1)" fill-rule="evenodd" stroke="none"/>
      <path d="M17.85 12.15 Q17.8 9.8 17.05 7.8 16.4 6.25 15.1 4.75 L15.0 4.75 Q14.25 4.1 13.9 3.95 13.45 3.8 13.3 4.1 13.0 4.15 13.0 4.55 L13.15 5.75 13.0 6.35 13.0 6.45 11.5 4.15 Q10.8 3.4 10.05 3.4 9.4 3.4 8.65 4.15 7.75 5.15 7.0 6.45 L6.95 5.8 6.95 5.75 7.15 5.05 7.15 4.5 Q6.8 4.1 6.4 4.15 L6.35 4.15 Q5.95 4.15 5.1 4.8 3.65 6.15 2.95 8.1 2.3 9.8 2.15 12.1 L2.1 12.8 2.1 12.85 Q2.1 14.25 2.4 15.65 L2.5 15.85 Q3.45 18.9 6.15 21.25 6.15 23.45 8.2 23.45 L10.35 23.25 11.7 23.35 12.8 23.5 Q13.5 23.5 13.95 22.85 14.35 22.25 14.35 21.5 L14.35 21.25 Q16.55 18.95 17.5 15.85 L17.6 15.65 17.85 12.9 17.85 12.55 M7.0 19.2 L7.15 16.7 7.15 16.65 7.2 16.45 7.3 15.55 7.35 15.3 7.35 14.85 7.45 14.65 7.7 14.35 7.75 14.35 8.3 14.25 9.4 14.25 10.75 14.25 12.2 14.25 12.4 14.25 Q12.95 14.25 13.0 14.85 L13.05 15.3 13.1 15.75 13.25 16.65 13.45 18.95 13.5 20.75 13.5 22.0 Q13.4 22.65 12.8 22.65 L12.3 22.6 11.2 22.4 10.4 22.2 9.3 22.5 8.3 22.55 7.8 22.55 Q6.75 22.65 6.9 21.7 L6.9 21.5 7.0 19.2 M2.15 12.1 L2.1 12.4 2.1 12.8" fill="none" stroke="#673808" stroke-linecap="round" stroke-linejoin="round" stroke-width="0.55"/>
      <path d="M15.1 10.65 L15.3 10.4 M15.45 13.5 L13.85 12.0 12.5 13.5 M12.35 10.55 L13.85 12.0 15.1 10.65 M7.95 13.5 L6.35 12.0 5.0 13.5 M4.95 10.65 L6.35 12.0 7.8 10.4" fill="none" stroke="#673718" stroke-linecap="round" stroke-linejoin="round" stroke-width="1.5"/>
      <path d="M8.6 15.7 L9.15 16.05 9.75 15.65 10.75 15.9 11.65 15.7 13.1 15.75 M7.3 15.55 L8.55 15.65 M13.5 20.75 L12.8 21.1 11.25 21.3 M11.2 21.2 L10.75 20.8 8.3 21.2 7.75 20.9 6.9 21.5" fill="none" stroke="#673808" stroke-linecap="round" stroke-linejoin="round" stroke-width="0.30000000000000004"/>
      <path d="M16.0 15.55 Q18.7 10.3 22.1 5.5 25.0 4.95 26.95 7.45 L26.7 7.6 Q21.05 10.85 16.55 15.25 L15.8 16.0 16.65 14.7 16.65 14.55 16.0 15.55 M25.9 7.05 L23.0 5.9 Q21.7 7.35 20.1 9.65 L17.8 13.2 19.55 11.7 Q21.5 9.75 25.9 7.05 M18.95 18.7 L17.5 17.75 20.75 22.0 Q22.75 24.65 22.5 25.05 L22.45 25.1 22.3 25.25 22.1 25.45 21.8 25.85 22.2 25.95 23.95 26.55 25.55 26.9 Q25.85 26.9 25.9 26.4 L25.7 24.85 25.4 23.5 25.05 22.9 24.6 23.2 24.15 23.4 24.0 23.3 23.9 23.25 23.55 23.0 22.55 21.95 20.55 20.1 18.95 18.7 M26.25 27.95 L26.2 27.9 25.95 27.85 25.9 27.85 25.85 27.8 19.8 26.3 21.7 24.85 Q19.5 21.25 16.9 17.8 L16.75 17.6 16.6 17.4 15.95 16.6 15.75 16.35 15.7 16.25 15.85 16.3 16.2 16.5 Q20.65 18.55 24.1 22.5 L25.4 21.05 Q26.45 23.4 26.55 25.3 L26.45 27.95 26.3 27.95 26.25 27.95" fill="#ffa100" fill-rule="evenodd" stroke="none"/>
      <path d="M23.25 6.7 Q22.6 6.5 21.95 7.35 21.45 8.0 21.45 8.4 L21.75 8.7 22.6 7.8 23.3 6.9 23.25 6.7 M25.9 7.05 Q21.5 9.75 19.55 11.7 L17.8 13.2 20.1 9.65 Q21.7 7.35 23.0 5.9 L25.9 7.05 M18.95 18.7 L20.55 20.1 22.55 21.95 23.55 23.0 23.9 23.25 24.0 23.3 24.15 23.4 24.6 23.2 25.05 22.9 25.4 23.5 25.7 24.85 25.9 26.4 Q25.85 26.9 25.55 26.9 L23.95 26.55 22.2 25.95 21.8 25.85 22.1 25.45 22.3 25.25 22.45 25.1 22.5 25.05 Q22.75 24.65 20.75 22.0 L17.5 17.75 18.95 18.7 M25.3 25.1 Q25.25 23.9 24.35 23.95 L24.3 24.2 24.55 25.05 25.0 25.7 25.2 25.65 25.3 25.1" fill="#ffdf00" fill-rule="evenodd" stroke="none"/>
      <path d="M23.25 6.7 L23.3 6.9 22.6 7.8 21.75 8.7 21.45 8.4 Q21.45 8.0 21.95 7.35 22.6 6.5 23.25 6.7 M25.3 25.1 L25.2 25.65 25.0 25.7 24.55 25.05 24.3 24.2 24.35 23.95 Q25.25 23.9 25.3 25.1" fill="#ffffff" fill-rule="evenodd" stroke="none"/>
      <path d="M15.8 16.0 L16.0 15.55 16.65 14.55 16.65 14.7 15.8 16.0 M26.25 28.0 L25.95 28.05 Q25.9 27.95 26.25 27.95 L26.25 28.0" fill="#ffda10" fill-rule="evenodd" stroke="none"/>
      <path d="M26.45 27.95 L26.45 28.0 26.25 28.0 26.25 27.95 26.3 27.95 26.45 27.95" fill="#fefe78" fill-rule="evenodd" stroke="none"/>
      <path d="M16.0 15.55 Q18.7 10.3 22.1 5.5 25.0 4.95 26.95 7.45 L26.7 7.6 Q21.05 10.85 16.55 15.25 L15.8 16.0 16.0 15.55 M26.25 27.95 L26.2 27.9 25.95 27.85 25.9 27.85 25.85 27.8 19.8 26.3 21.7 24.85 Q19.5 21.25 16.9 17.8 L16.75 17.6 16.6 17.4 15.95 16.6 15.75 16.35 15.7 16.25 15.85 16.3 16.2 16.5 Q20.65 18.55 24.1 22.5 L25.4 21.05 Q26.45 23.4 26.55 25.3 L26.45 27.95 26.3 27.95 26.25 27.95 Z" fill="none" stroke="#805028" stroke-linecap="round" stroke-linejoin="round" stroke-width="1.0"/>
    </g>
    <linearGradient gradientTransform="matrix(0.0, 0.0081, -0.0096, 0.0, 9.95, 11.6)" gradientUnits="userSpaceOnUse" id="gradient0" spreadMethod="pad" x1="-819.2" x2="819.2">
      <stop offset="0.0" stop-color="#f4a24f"/>
      <stop offset="1.0" stop-color="#ff6600"/>
    </linearGradient>
    <linearGradient gradientTransform="matrix(0.0, -0.0027, 0.004, 0.0, 10.15, 18.5)" gradientUnits="userSpaceOnUse" id="gradient1" spreadMethod="pad" x1="-819.2" x2="819.2">
      <stop offset="0.0" stop-color="#972008"/>
      <stop offset="1.0" stop-color="#db2c00"/>
    </linearGradient>
  </defs>
</svg>
