<?xml version="1.0" encoding="UTF-8" standalone="no"?>
<svg xmlns:ffdec="https://www.free-decompiler.com/flash" xmlns:xlink="http://www.w3.org/1999/xlink" ffdec:objectType="frame" height="30.0px" width="30.1px" xmlns="http://www.w3.org/2000/svg">
  <g transform="matrix(1.0, 0.0, 0.0, 1.0, 0.0, 0.0)">
    <use ffdec:characterId="1" height="30.0" transform="matrix(1.0, 0.0, 0.0, 1.0, 0.0, 0.0)" width="30.0" xlink:href="#shape0"/>
    <use ffdec:characterId="3" height="30.0" transform="matrix(1.0, 0.0, 0.0, 1.0, 0.1, 0.0)" width="30.0" xlink:href="#sprite0"/>
  </g>
  <defs>
    <g id="shape0" transform="matrix(1.0, 0.0, 0.0, 1.0, 0.0, 0.0)">
      <path d="M0.0 0.0 L30.0 0.0 30.0 30.0 0.0 30.0 0.0 0.0" fill="#33cc66" fill-opacity="0.0" fill-rule="evenodd" stroke="none"/>
    </g>
    <g id="sprite0" transform="matrix(1.0, 0.0, 0.0, 1.0, 0.0, 0.0)">
      <use ffdec:characterId="2" height="30.0" transform="matrix(1.0, 0.0, 0.0, 1.0, 0.0, 0.0)" width="30.0" xlink:href="#shape1"/>
    </g>
    <g id="shape1" transform="matrix(1.0, 0.0, 0.0, 1.0, 0.0, 0.0)">
      <path d="M26.7 0.0 Q30.0 0.0 30.0 3.3 L30.0 26.7 Q30.0 30.0 26.7 30.0 L3.3 30.0 Q0.0 30.0 0.0 26.7 L0.0 3.3 Q0.0 0.0 3.3 0.0 L26.7 0.0" fill="#cb2c1b" fill-rule="evenodd" stroke="none"/>
      <path d="M21.3 4.2 L19.9 3.2 Q19.35 3.0 19.15 3.35 18.85 3.5 18.85 3.95 L19.0 5.4 18.85 6.15 18.85 6.3 16.95 3.5 Q16.05 2.5 15.1 2.5 14.3 2.5 13.35 3.5 12.25 4.65 11.3 6.3 L11.25 5.5 11.25 5.45 11.45 4.55 11.45 3.85 Q11.05 3.4 10.6 3.5 L10.55 3.5 Q10.0 3.5 9.0 4.3 7.15 5.95 6.25 8.35 5.45 10.45 5.25 13.35 L5.2 14.25 5.2 14.3 Q5.15 16.05 5.6 17.75 L5.7 18.05 Q6.85 21.85 10.2 24.75 10.2 27.5 12.8 27.5 L15.55 27.25 17.2 27.45 18.55 27.55 Q19.4 27.55 19.95 26.75 20.5 26.0 20.5 25.1 L20.5 24.75 Q23.2 21.9 24.4 18.1 L24.5 17.8 24.85 14.3 24.8 13.4 Q24.75 10.45 23.9 8.0 23.0 6.05 21.4 4.2 L21.3 4.2 M5.25 13.35 L5.2 13.7 5.2 14.25" fill="none" stroke="#ffffff" stroke-linecap="round" stroke-linejoin="round" stroke-width="3.0"/>
      <path d="M18.1 5.15 L18.8 6.3 18.8 6.15 18.95 5.4 18.8 3.95 Q18.8 3.45 19.15 3.35 19.35 3.0 19.9 3.2 20.35 3.35 21.3 4.15 L21.4 4.15 22.1 5.05 Q23.2 6.5 23.85 8.0 24.75 10.45 24.8 13.4 L24.8 13.9 24.8 14.25 24.8 14.35 Q24.55 16.5 24.0 17.7 L23.9 17.85 24.4 18.05 22.35 19.95 Q21.0 21.4 19.35 21.9 L19.1 19.05 19.1 19.0 19.15 18.95 19.4 18.65 19.6 18.7 19.65 18.75 19.7 18.7 20.9 17.9 21.4 17.5 21.5 17.3 Q22.2 16.5 22.45 15.55 L22.55 14.75 22.6 14.0 22.6 13.9 Q22.55 12.95 22.05 12.25 L21.5 11.6 20.5 10.95 19.75 10.7 18.85 10.6 18.15 10.7 18.1 5.15 18.15 10.7 17.65 10.8 Q17.1 10.95 16.7 11.25 L16.25 11.6 15.7 12.2 Q15.2 12.85 15.15 13.7 L15.05 13.7 Q15.0 12.95 14.6 12.3 L13.95 11.6 13.6 11.3 12.7 10.8 12.05 10.65 11.35 10.6 10.5 10.7 9.9 10.9 8.95 11.4 8.7 11.6 8.1 12.3 8.05 12.4 8.0 12.5 8.0 12.35 Q8.2 8.5 10.25 4.15 L9.6 4.85 Q7.95 6.3 7.1 8.6 6.2 10.75 6.15 13.7 L6.15 14.25 Q6.25 17.45 8.45 19.55 9.35 20.55 10.6 21.1 9.55 19.35 8.75 17.5 L9.0 17.7 9.15 17.9 10.35 18.7 11.05 18.95 11.45 19.05 11.5 19.1 11.3 22.2 10.95 22.05 10.95 21.95 Q8.95 21.45 7.8 19.95 5.4 17.7 5.2 14.25 L5.2 14.2 5.2 13.7 5.25 13.35 Q5.4 10.45 6.25 8.35 7.1 5.95 8.95 4.25 10.0 3.45 10.5 3.45 L10.55 3.45 Q11.05 3.35 11.45 3.85 L11.45 4.55 11.25 5.45 11.25 5.5 11.3 6.3 Q12.2 4.65 13.35 3.45 14.3 2.5 15.1 2.5 16.05 2.5 16.9 3.45 L18.1 5.15 M20.5 3.9 L20.5 10.95 20.5 3.9 M22.25 9.8 L22.1 5.05 22.25 9.8 M16.5 8.4 L16.55 4.8 16.5 8.4 M14.5 9.55 L14.85 2.95 14.5 9.55 M12.55 8.35 L12.8 4.95 12.55 8.35 M10.55 8.65 L10.5 4.85 10.55 8.65 M5.2 14.2 L5.25 13.35 5.2 14.2" fill="url(#gradient0)" fill-rule="evenodd" stroke="none"/>
      <path d="M18.15 10.7 L18.85 10.6 19.75 10.7 20.5 10.95 21.5 11.6 22.05 12.25 Q22.55 12.95 22.6 13.9 L22.6 14.0 22.55 14.75 21.85 16.0 21.5 16.4 20.25 17.15 19.9 17.25 18.85 17.35 18.75 16.75 Q18.7 16.05 18.0 16.05 L17.75 16.05 17.05 16.05 16.0 16.05 15.95 16.05 15.55 15.5 Q15.15 14.85 15.15 14.1 L15.15 14.0 15.15 13.7 Q15.2 12.85 15.7 12.2 L16.25 11.6 16.7 11.25 Q17.1 10.95 17.65 10.8 L18.15 10.7 M20.8 11.85 L21.1 11.6 20.8 11.85 M20.5 11.3 L20.5 10.95 20.5 11.3 M20.3 14.2 L20.75 14.2 Q21.15 14.25 21.15 14.4 L21.25 15.0 21.45 15.25 20.25 15.4 20.05 15.2 20.25 15.4 21.45 15.25 21.25 15.0 21.15 14.4 Q21.15 14.25 20.75 14.2 L20.3 14.2 M20.5 12.7 L20.85 12.85 21.05 12.95 21.45 12.95 Q21.3 12.7 21.45 12.65 L22.05 12.25 21.45 12.65 Q21.3 12.7 21.45 12.95 L21.05 12.95 20.85 12.85 20.45 13.3 20.85 12.85 20.5 12.7 M21.8 13.75 L22.6 13.9 21.8 13.75 M21.45 15.25 L21.85 16.0 21.45 15.25 M18.7 12.15 L19.25 11.85 19.15 11.55 19.75 10.7 19.15 11.55 19.25 11.85 19.35 12.3 19.25 11.85 18.7 12.15 M17.65 10.8 L17.6 12.05 17.5 12.05 16.7 11.25 17.5 12.05 17.6 12.05 17.65 10.8 M17.3 14.5 L17.0 14.6 16.4 14.35 16.3 14.25 Q16.05 13.9 15.85 13.9 L15.15 14.1 15.85 13.9 Q16.05 13.9 16.3 14.25 L16.4 14.35 Q16.35 14.0 16.65 13.9 L17.25 13.85 16.65 13.9 Q16.35 14.0 16.4 14.35 L17.0 14.6 17.3 14.5 M16.8 12.85 Q16.8 12.5 16.45 12.45 L15.7 12.2 16.45 12.45 Q16.8 12.5 16.8 12.85 M18.5 15.45 L18.35 15.8 18.0 16.05 18.35 15.8 18.5 15.45 M19.95 16.1 L19.95 16.55 19.9 16.5 19.35 16.2 19.9 16.5 19.95 16.55 19.95 16.1 M17.7 15.3 Q17.25 15.3 17.15 15.5 L17.05 16.05 17.15 15.5 Q17.25 15.3 17.7 15.3 M19.95 16.55 L20.25 17.15 19.95 16.55" fill="url(#gradient1)" fill-rule="evenodd" stroke="none"/>
      <path d="M19.35 21.9 Q21.0 21.4 22.35 19.95 L24.4 18.05 23.9 17.85 24.0 17.7 Q24.55 16.5 24.8 14.35 L24.8 14.25 24.8 13.9 24.8 13.4 24.85 14.25 Q24.9 16.1 24.5 17.8 L24.4 18.05 Q23.2 21.9 20.45 24.75 L20.45 25.05 Q20.45 26.0 19.95 26.75 19.4 27.55 18.5 27.55 L17.15 27.4 15.5 27.25 12.8 27.5 Q10.2 27.5 10.2 24.75 6.85 21.85 5.65 18.05 L5.55 17.75 Q5.15 16.05 5.2 14.25 5.4 17.7 7.8 19.95 8.95 21.45 10.95 21.95 L10.95 22.05 11.3 22.2 11.15 25.1 11.15 25.3 Q10.95 26.5 12.3 26.4 L12.9 26.4 14.15 26.3 15.55 25.95 16.5 26.2 17.9 26.45 18.5 26.5 Q19.25 26.5 19.4 25.7 L19.4 24.15 19.35 21.9" fill="#ff6600" fill-rule="evenodd" stroke="none"/>
      <path d="M22.55 14.75 L22.45 15.55 Q22.2 16.5 21.5 17.3 L21.4 17.5 20.9 17.9 19.7 18.7 19.65 18.75 19.6 18.7 19.65 18.7 19.9 17.25 20.25 17.15 21.5 16.4 21.85 16.0 22.55 14.75 M15.05 13.7 L15.15 13.7 15.15 14.0 15.15 14.1 Q15.15 14.85 15.55 15.5 L15.05 15.55 14.7 15.5 15.05 14.1 15.05 14.0 15.05 13.7 M11.05 18.95 L10.35 18.7 9.15 17.9 9.0 17.7 8.75 17.5 Q9.55 19.35 10.6 21.1 9.35 20.55 8.45 19.55 6.25 17.45 6.15 14.25 L6.15 13.7 Q6.2 10.75 7.1 8.6 7.95 6.3 9.6 4.85 L10.25 4.15 Q8.2 8.5 8.0 12.35 L8.0 12.5 Q7.65 13.15 7.65 14.0 L7.65 14.15 Q7.7 15.2 8.4 16.05 L8.7 16.4 Q9.3 16.9 10.0 17.2 L10.65 17.3 10.95 18.4 11.05 18.95 M11.5 19.1 L11.45 19.05 11.55 18.8 11.5 19.1 M11.7 17.35 L11.75 16.8 11.85 16.5 12.15 16.65 12.2 16.7 12.15 16.15 12.2 16.15 12.9 16.05 13.2 16.05 14.3 16.05 15.95 16.05 16.0 16.05 17.05 16.05 17.75 16.05 18.0 16.05 Q18.7 16.05 18.75 16.75 L18.85 17.35 18.9 17.9 17.1 17.85 16.0 18.1 14.7 17.75 14.7 17.8 13.95 18.3 13.3 17.85 13.25 17.8 11.65 17.65 11.7 17.35 M11.15 25.1 L12.25 24.3 12.9 24.7 16.0 24.2 16.5 24.7 16.6 24.8 18.55 24.6 19.4 24.15 19.4 25.7 Q19.25 26.5 18.5 26.5 L17.9 26.45 16.5 26.2 15.55 25.95 14.15 26.3 12.9 26.4 12.3 26.4 Q10.95 26.5 11.15 25.3 L11.15 25.1" fill="#ffffff" fill-rule="evenodd" stroke="none"/>
      <path d="M8.0 12.5 L8.05 12.4 8.1 12.3 8.7 11.6 8.95 11.4 9.9 10.9 10.5 10.7 11.35 10.6 12.05 10.65 12.7 10.8 13.6 11.3 13.95 11.6 14.6 12.3 Q15.0 12.95 15.05 13.7 L15.05 14.0 15.05 14.1 14.45 14.0 13.95 14.35 13.85 14.45 Q13.9 14.1 13.6 14.0 L13.0 13.95 13.6 14.0 Q13.9 14.1 13.85 14.45 L13.95 14.35 14.45 14.0 15.05 14.1 14.7 15.5 14.3 16.05 13.2 16.05 12.9 16.05 12.2 16.15 12.15 16.15 Q11.95 16.25 11.85 16.5 L11.75 16.8 11.7 17.35 11.35 17.35 10.65 17.3 10.0 17.2 Q9.3 16.9 8.7 16.4 L8.4 16.05 Q7.7 15.2 7.65 14.15 L7.65 14.0 Q7.65 13.15 8.0 12.5 M12.7 10.8 L12.7 12.15 12.8 12.15 13.6 11.3 12.8 12.15 12.7 12.15 12.7 10.8 M11.55 12.25 L11.05 11.9 10.95 12.4 11.05 11.9 11.15 11.65 10.5 10.7 11.15 11.65 11.05 11.9 11.55 12.25 M9.8 13.4 L9.45 12.95 9.25 13.05 8.8 13.05 8.8 12.7 8.1 12.3 8.8 12.7 8.8 13.05 9.25 13.05 9.45 12.95 9.75 12.8 9.45 12.95 9.8 13.4 M9.5 11.95 L9.15 11.7 9.5 11.95 M8.45 13.85 L7.65 14.0 8.45 13.85 M9.95 14.3 L9.55 14.3 Q9.1 14.35 9.1 14.5 L9.0 15.1 8.8 15.35 8.4 16.05 8.8 15.35 9.0 15.1 9.1 14.5 Q9.1 14.35 9.55 14.3 L9.95 14.3 M8.8 15.35 L10.0 15.5 10.2 15.3 10.0 15.5 8.8 15.35 M11.75 15.55 L11.9 15.9 12.2 16.15 11.9 15.9 11.75 15.55 M13.45 12.95 Q13.45 12.6 13.8 12.55 L14.6 12.3 13.8 12.55 Q13.45 12.6 13.45 12.95 M12.95 14.6 L13.25 14.7 13.85 14.45 13.25 14.7 12.95 14.6 M10.35 16.1 L10.3 16.65 10.35 16.6 10.95 16.3 10.35 16.6 10.3 16.65 10.0 17.2 10.3 16.65 10.35 16.1 M12.6 15.4 L13.1 15.6 13.2 16.05 13.1 15.6 12.6 15.4" fill="url(#gradient2)" fill-rule="evenodd" stroke="none"/>
      <path d="M19.6 18.7 L19.4 18.65 19.15 18.95 19.1 19.0 18.9 17.9 18.85 17.35 19.9 17.25 19.65 18.7 19.6 18.7 M11.45 19.05 L11.05 18.95 10.95 18.4 10.65 17.3 11.35 17.35 11.7 17.35 11.65 17.65 11.55 18.75 11.55 18.8 11.45 19.05 M15.95 16.05 L14.3 16.05 14.7 15.5 15.05 15.55 15.55 15.5 15.95 16.05" fill="#fe6b07" fill-rule="evenodd" stroke="none"/>
      <path d="M19.1 19.0 L19.1 19.05 19.35 21.9 19.4 24.15 18.55 24.6 16.6 24.8 16.5 24.7 16.0 24.2 12.9 24.7 12.25 24.3 11.15 25.1 11.3 22.2 11.5 19.1 11.55 18.8 11.55 18.75 11.65 17.65 13.25 17.8 13.3 17.85 13.95 18.3 14.7 17.8 14.7 17.75 16.0 18.1 17.1 17.85 18.9 17.9 19.1 19.0" fill="url(#gradient3)" fill-rule="evenodd" stroke="none"/>
      <path d="M22.1 5.05 L21.4 4.15 21.3 4.15 Q20.35 3.35 19.9 3.2 19.35 3.0 19.15 3.35 18.8 3.45 18.8 3.95 L18.95 5.4 18.8 6.15 18.8 6.3 18.1 5.15 16.9 3.45 Q16.05 2.5 15.1 2.5 14.3 2.5 13.35 3.45 12.2 4.65 11.3 6.3 L11.25 5.5 11.25 5.45 11.45 4.55 11.45 3.85 Q11.05 3.35 10.55 3.45 L10.5 3.45 Q10.0 3.45 8.95 4.25 7.1 5.95 6.25 8.35 5.4 10.45 5.25 13.35 L5.2 14.2 5.2 13.7 5.25 13.35 M18.15 10.7 L18.85 10.6 19.75 10.7 20.5 10.95 21.5 11.6 22.05 12.25 Q22.55 12.95 22.6 13.9 L22.6 14.0 22.55 14.75 21.85 16.0 21.5 16.4 20.25 17.15 19.9 17.25 18.85 17.35 18.75 16.75 Q18.7 16.05 18.0 16.05 L17.75 16.05 17.05 16.05 16.0 16.05 M19.1 19.0 L19.1 19.05 19.35 21.9 19.4 24.15 19.4 25.7 Q19.25 26.5 18.5 26.5 L17.9 26.45 16.5 26.2 15.55 25.95 14.15 26.3 12.9 26.4 12.3 26.4 Q10.95 26.5 11.15 25.3 L11.15 25.1 11.3 22.2 11.5 19.1 11.55 18.8 11.55 18.75 11.65 17.65 11.7 17.35 11.75 16.8 11.85 16.5 Q11.95 16.25 12.15 16.15 L12.2 16.15 12.9 16.05 13.2 16.05 14.3 16.05 15.95 16.05 15.55 15.5 Q15.15 14.85 15.15 14.1 L15.15 14.0 15.15 13.7 Q15.2 12.85 15.7 12.2 L16.25 11.6 16.7 11.25 Q17.1 10.95 17.65 10.8 L18.15 10.7 M24.8 13.4 Q24.75 10.45 23.85 8.0 23.2 6.5 22.1 5.05 M24.8 13.4 L24.85 14.25 Q24.9 16.1 24.5 17.8 L24.4 18.05 Q23.2 21.9 20.45 24.75 L20.45 25.05 Q20.45 26.0 19.95 26.75 19.4 27.55 18.5 27.55 L17.15 27.4 15.5 27.25 12.8 27.5 Q10.2 27.5 10.2 24.75 6.85 21.85 5.65 18.05 L5.55 17.75 Q5.15 16.05 5.2 14.25 L5.2 14.2 M8.0 12.5 L8.05 12.4 8.1 12.3 8.7 11.6 8.95 11.4 9.9 10.9 10.5 10.7 11.35 10.6 12.05 10.65 12.7 10.8 13.6 11.3 13.95 11.6 14.6 12.3 Q15.0 12.95 15.05 13.7 L15.05 14.0 15.05 14.1 14.7 15.5 14.3 16.05 M8.0 12.5 Q7.65 13.15 7.65 14.0 L7.65 14.15 Q7.7 15.2 8.4 16.05 L8.7 16.4 Q9.3 16.9 10.0 17.2 L10.65 17.3 11.35 17.35 11.7 17.35 M18.9 17.9 L18.85 17.35 M19.1 19.0 L18.9 17.9" fill="none" stroke="#673808" stroke-linecap="round" stroke-linejoin="round" stroke-width="0.55"/>
      <path d="M21.1 11.6 L20.8 11.85 M22.6 13.9 L21.8 13.75 M22.05 12.25 L21.45 12.65 Q21.3 12.7 21.45 12.95 L21.05 12.95 20.85 12.85 20.45 13.3 M20.85 12.85 L20.5 12.7 M20.05 15.2 L20.25 15.4 21.45 15.25 21.25 15.0 21.15 14.4 Q21.15 14.25 20.75 14.2 L20.3 14.2 M21.85 16.0 L21.45 15.25 M10.95 12.4 L11.05 11.9 11.15 11.65 10.5 10.7 M11.05 11.9 L11.55 12.25 M13.6 11.3 L12.8 12.15 12.7 12.15 12.7 10.8 M16.7 11.25 L17.5 12.05 17.6 12.05 17.65 10.8 M19.75 10.7 L19.15 11.55 19.25 11.85 19.35 12.3 M19.25 11.85 L18.7 12.15 M7.65 14.0 L8.45 13.85 M9.15 11.7 L9.5 11.95 M8.1 12.3 L8.8 12.7 8.8 13.05 9.25 13.05 9.45 12.95 9.75 12.8 M9.45 12.95 L9.8 13.4 M8.4 16.05 L8.8 15.35 9.0 15.1 9.1 14.5 Q9.1 14.35 9.55 14.3 L9.95 14.3 M10.2 15.3 L10.0 15.5 8.8 15.35 M12.2 16.15 L11.9 15.9 11.75 15.55 M15.7 12.2 L16.45 12.45 Q16.8 12.5 16.8 12.85 M15.15 14.1 L15.85 13.9 Q16.05 13.9 16.3 14.25 L16.4 14.35 Q16.35 14.0 16.65 13.9 L17.25 13.85 M16.4 14.35 L17.0 14.6 17.3 14.5 M17.05 16.05 L17.15 15.5 Q17.25 15.3 17.7 15.3 M19.35 16.2 L19.9 16.5 19.95 16.55 19.95 16.1 M18.0 16.05 L18.35 15.8 18.5 15.45 M14.6 12.3 L13.8 12.55 Q13.45 12.6 13.45 12.95 M13.0 13.95 L13.6 14.0 Q13.9 14.1 13.85 14.45 L13.95 14.35 14.45 14.0 15.05 14.1 M13.85 14.45 L13.25 14.7 12.95 14.6 M10.95 16.3 L10.35 16.6 10.3 16.65 10.0 17.2 M10.3 16.65 L10.35 16.1 M13.2 16.05 L13.1 15.6 12.6 15.4 M20.25 17.15 L19.95 16.55" fill="none" stroke="#ae495b" stroke-linecap="round" stroke-linejoin="round" stroke-width="0.30000000000000004"/>
      <path d="M18.1 5.15 L18.15 10.7 M20.5 10.95 L20.5 3.9 M22.1 5.05 L22.25 9.8 M20.5 10.95 L20.5 11.3 M18.1 5.15 L18.05 4.3 M10.5 4.85 L10.55 8.65 M12.8 4.95 L12.55 8.35 M14.85 2.95 L14.5 9.55 M16.55 4.8 L16.5 8.4" fill="none" stroke="#673808" stroke-linecap="round" stroke-linejoin="round" stroke-width="1.0"/>
      <path d="M14.7 17.75 L16.0 18.1 17.1 17.85 18.9 17.9 M11.65 17.65 L13.25 17.8 M13.3 17.85 L13.95 18.3 14.7 17.8 M16.5 24.7 L16.0 24.2 12.9 24.7 12.25 24.3 11.15 25.1 M19.4 24.15 L18.55 24.6 16.6 24.8" fill="none" stroke="#673808" stroke-linecap="round" stroke-linejoin="round" stroke-width="0.30000000000000004"/>
      <path d="M10.2 21.15 L10.6 21.1 Q11.8 21.1 12.65 21.9 13.55 22.65 13.55 23.75 L13.55 24.0 13.4 24.7 12.65 25.6 11.75 26.15 10.6 26.35 9.5 26.15 8.5 25.6 Q7.65 24.85 7.65 23.75 7.65 22.65 8.5 21.9 L9.35 21.4 10.2 21.15" fill="#fe6802" fill-rule="evenodd" stroke="none"/>
      <path d="M10.2 21.15 L10.6 21.1 Q11.8 21.1 12.65 21.9 13.55 22.65 13.55 23.75 L13.55 24.0 13.4 24.7 12.65 25.6 11.75 26.15 10.6 26.35 9.5 26.15 8.5 25.6 Q7.65 24.85 7.65 23.75 7.65 22.65 8.5 21.9 L9.35 21.4 10.2 21.15 Z" fill="none" stroke="#663300" stroke-linecap="round" stroke-linejoin="round" stroke-width="0.5"/>
      <path d="M22.65 21.9 Q23.55 22.65 23.55 23.75 L23.55 24.0 23.4 24.7 22.65 25.6 21.75 26.15 20.6 26.35 19.5 26.15 Q18.95 26.0 18.5 25.6 17.65 24.85 17.65 23.75 17.65 22.65 18.5 21.9 L19.35 21.4 20.2 21.15 20.6 21.1 Q21.8 21.1 22.65 21.9" fill="#fe6802" fill-rule="evenodd" stroke="none"/>
      <path d="M22.65 21.9 Q23.55 22.65 23.55 23.75 L23.55 24.0 23.4 24.7 22.65 25.6 21.75 26.15 20.6 26.35 19.5 26.15 Q18.95 26.0 18.5 25.6 17.65 24.85 17.65 23.75 17.65 22.65 18.5 21.9 L19.35 21.4 20.2 21.15 20.6 21.1 Q21.8 21.1 22.65 21.9 Z" fill="none" stroke="#663300" stroke-linecap="round" stroke-linejoin="round" stroke-width="0.5"/>
    </g>
    <linearGradient gradientTransform="matrix(0.0, 0.0101, -0.012, 0.0, 15.0, 12.75)" gradientUnits="userSpaceOnUse" id="gradient0" spreadMethod="pad" x1="-819.2" x2="819.2">
      <stop offset="0.0" stop-color="#f4a24f"/>
      <stop offset="1.0" stop-color="#ff6600"/>
    </linearGradient>
    <radialGradient cx="0" cy="0" gradientTransform="matrix(0.0067, 0.0, 0.0, 0.0061, 18.05, 13.15)" gradientUnits="userSpaceOnUse" id="gradient1" r="819.2" spreadMethod="pad">
      <stop offset="0.3411764705882353" stop-color="#ffffff"/>
      <stop offset="1.0" stop-color="#cdc3de"/>
    </radialGradient>
    <radialGradient cx="0" cy="0" gradientTransform="matrix(0.0059, 0.0, 0.0, 0.0053, 11.95, 14.0)" gradientUnits="userSpaceOnUse" id="gradient2" r="819.2" spreadMethod="pad">
      <stop offset="0.3411764705882353" stop-color="#ffffff"/>
      <stop offset="1.0" stop-color="#cdc3de"/>
    </radialGradient>
    <linearGradient gradientTransform="matrix(0.0, -0.0034, 0.005, 0.0, 15.25, 21.35)" gradientUnits="userSpaceOnUse" id="gradient3" spreadMethod="pad" x1="-819.2" x2="819.2">
      <stop offset="0.0" stop-color="#972008"/>
      <stop offset="1.0" stop-color="#db2c00"/>
    </linearGradient>
  </defs>
</svg>
