<?xml version="1.0" encoding="UTF-8" standalone="no"?>
<svg xmlns:ffdec="https://www.free-decompiler.com/flash" xmlns:xlink="http://www.w3.org/1999/xlink" ffdec:objectType="frame" height="30.0px" width="30.05px" xmlns="http://www.w3.org/2000/svg">
  <g transform="matrix(1.0, 0.0, 0.0, 1.0, 0.0, 0.0)">
    <use ffdec:characterId="1" height="30.0" transform="matrix(1.0, 0.0, 0.0, 1.0, 0.0, 0.0)" width="30.05" xlink:href="#shape0"/>
    <use ffdec:characterId="3" height="8.2" transform="matrix(0.9922, 0.0, 0.0, 0.9301, 6.2464, 4.1233)" width="18.7" xlink:href="#sprite0"/>
    <use ffdec:characterId="5" height="24.15" transform="matrix(0.9922, 0.0, 0.0, 0.9301, 4.8179, 3.6885)" width="21.45" xlink:href="#sprite1"/>
    <use ffdec:characterId="6" height="22.05" transform="matrix(1.0, 0.0, 0.0, 1.0, 1.65, 4.55)" width="27.0" xlink:href="#shape3"/>
  </g>
  <defs>
    <g id="shape0" transform="matrix(1.0, 0.0, 0.0, 1.0, 0.0, 0.0)">
      <path d="M0.0 0.0 L30.0 0.0 30.0 30.0 0.0 30.0 0.0 0.0" fill="#33cc66" fill-opacity="0.0" fill-rule="evenodd" stroke="none"/>
      <path d="M0.05 3.3 Q0.05 0.0 3.35 0.0 L26.75 0.0 Q30.05 0.0 30.05 3.3 L30.05 26.7 Q30.05 30.0 26.75 30.0 L3.35 30.0 Q0.05 30.0 0.05 26.7 L0.05 3.3" fill="#cb2c1b" fill-rule="evenodd" stroke="none"/>
      <path d="M7.9 7.95 L6.0 5.15 Q3.6 4.7 2.0 6.75 L2.2 6.9 Q4.25 8.05 6.1 9.4 L6.65 9.85 7.8 10.7 8.3 11.15 10.55 13.15 10.55 13.2 11.2 13.8 11.0 13.45 10.6 12.65 9.45 10.55 9.15 10.1 8.25 8.6 7.9 7.95 M10.85 14.2 L11.15 14.05 11.25 14.0 11.25 14.1 11.05 14.3 10.55 14.95 10.4 15.1 10.3 15.3 10.2 15.4 8.9 17.2 8.45 17.8 7.75 18.85 7.3 19.55 6.35 21.1 7.9 22.3 2.9 23.5 2.9 23.55 2.85 23.55 2.65 23.6 2.6 23.65 2.55 23.65 2.4 23.65 Q2.25 22.8 2.35 21.45 2.4 19.9 3.3 17.95 L4.35 19.15 6.4 17.1 7.0 16.65 7.8 16.05 8.4 15.6 10.3 14.5 10.85 14.2 Z" fill="none" stroke="#ffffff" stroke-linecap="round" stroke-linejoin="round" stroke-width="3.5"/>
      <path d="M4.5 8.75 Q4.5 6.65 7.6 5.1 10.7 3.7 15.15 3.7 19.5 3.7 22.65 5.1 25.8 6.65 25.8 8.75 L25.45 10.1 25.8 11.35 25.5 12.5 25.8 13.7 25.65 14.6 25.55 14.9 25.65 15.15 25.8 16.0 25.45 17.35 25.65 17.7 25.8 18.6 25.45 19.95 25.65 20.2 25.8 21.1 Q25.8 23.15 22.65 24.65 19.5 26.15 15.15 26.15 10.7 26.15 7.6 24.65 4.5 23.15 4.5 21.1 L4.7 20.25 4.85 19.95 Q4.5 19.35 4.5 18.6 L4.7 17.75 4.9 17.4 Q4.5 16.75 4.5 16.0 L4.7 15.15 4.8 14.9 4.7 14.65 4.5 13.7 Q4.5 13.05 4.8 12.55 4.5 12.0 4.5 11.35 4.5 10.7 4.85 10.1 4.5 9.45 4.5 8.75 Z" fill="none" stroke="#ffffff" stroke-linecap="round" stroke-linejoin="round" stroke-width="3.5"/>
      <path d="M18.65 14.35 L18.65 14.45 18.85 14.65 19.35 15.3 19.5 15.45 19.6 15.65 19.7 15.75 21.0 17.55 21.45 18.15 22.15 19.2 22.6 19.9 23.55 21.45 22.0 22.65 27.0 23.85 27.0 23.9 27.05 23.9 27.25 23.95 27.3 24.0 27.35 24.0 27.5 24.0 27.55 21.8 Q27.5 20.25 26.6 18.3 L25.55 19.5 23.5 17.45 22.9 17.0 22.1 16.4 21.5 15.95 19.6 14.85 19.05 14.55 18.75 14.4 18.65 14.35 M23.25 10.2 L22.1 11.05 21.6 11.5 19.35 13.5 19.35 13.55 18.7 14.15 18.9 13.8 19.3 13.0 20.45 10.9 20.75 10.45 21.65 8.95 22.0 8.3 23.9 5.5 Q26.3 5.05 27.9 7.1 L27.7 7.25 23.8 9.75 23.25 10.2 Z" fill="none" stroke="#ffffff" stroke-linecap="round" stroke-linejoin="round" stroke-width="3.5"/>
    </g>
    <g id="sprite0" transform="matrix(1.0, 0.0, 0.0, 1.0, 18.7, 8.2)">
      <use ffdec:characterId="2" height="8.2" transform="matrix(1.0, 0.0, 0.0, 1.0, -18.7, -8.2)" width="18.7" xlink:href="#shape1"/>
    </g>
    <g id="shape1" transform="matrix(1.0, 0.0, 0.0, 1.0, 18.7, 8.2)">
      <path d="M-18.4 -3.0 L-18.7 -4.1 -18.7 -4.2 Q-18.6 -5.85 -16.0 -7.0 -13.25 -8.2 -9.4 -8.2 L-7.2 -8.1 Q-4.7 -7.85 -2.75 -7.0 -0.1 -5.85 0.0 -4.2 L0.0 -4.1 -0.1 -3.45 Q-1.2 -4.5 -3.8 -5.65 -5.25 -6.3 -7.2 -6.5 L-10.8 -6.5 Q-15.2 -6.2 -18.4 -3.0 M-1.4 -1.9 L-2.75 -1.25 -4.75 -0.55 -8.7 0.0 -8.8 0.0 -8.9 0.0 -9.0 0.0 -9.4 0.0 -9.5 0.0 -9.75 0.0 -13.9 -0.5 Q-15.0 -0.8 -16.0 -1.25 L-16.75 -1.6 Q-13.25 -4.25 -10.55 -4.5 L-7.2 -4.35 -4.85 -3.8 Q-1.85 -2.8 -1.4 -1.9" fill="#665f59" fill-rule="evenodd" stroke="none"/>
      <path d="M-0.1 -3.45 L-0.3 -3.0 -0.55 -2.65 Q-0.9 -2.25 -1.4 -1.9 -1.85 -2.8 -4.85 -3.8 L-7.2 -4.35 -10.55 -4.5 Q-13.25 -4.25 -16.75 -1.6 L-18.15 -2.65 -18.4 -3.0 Q-15.2 -6.2 -10.8 -6.5 L-7.2 -6.5 Q-5.25 -6.3 -3.8 -5.65 -1.2 -4.5 -0.1 -3.45" fill="#5f5b59" fill-rule="evenodd" stroke="none"/>
    </g>
    <g id="sprite1" transform="matrix(1.0, 0.0, 0.0, 1.0, 21.45, 24.15)">
      <use ffdec:characterId="4" height="24.15" transform="matrix(1.0, 0.0, 0.0, 1.0, -21.45, -24.15)" width="21.45" xlink:href="#shape2"/>
    </g>
    <g id="shape2" transform="matrix(1.0, 0.0, 0.0, 1.0, 21.45, 24.15)">
      <path d="M-21.15 -14.65 L-21.45 -15.95 -21.1 -17.3 -20.8 -16.8 Q-20.05 -15.75 -18.35 -14.9 -15.2 -13.25 -10.75 -13.25 -6.3 -13.25 -3.15 -14.9 -1.45 -15.75 -0.65 -16.8 L-0.35 -17.3 Q0.0 -16.65 0.0 -15.95 0.0 -15.25 -0.3 -14.7 -0.95 -13.25 -3.15 -12.1 -6.3 -10.5 -10.75 -10.5 -15.2 -10.5 -18.35 -12.1 -20.5 -13.25 -21.15 -14.65 M-0.25 -12.1 L-0.15 -11.85 0.0 -10.9 Q0.0 -10.15 -0.35 -9.45 -1.05 -8.15 -3.15 -7.05 -6.3 -5.45 -10.75 -5.45 -15.2 -5.45 -18.35 -7.05 -20.35 -8.1 -21.05 -9.4 -21.45 -10.1 -21.45 -10.9 L-21.25 -11.85 -21.15 -12.1 Q-20.5 -10.7 -18.35 -9.55 -15.2 -7.95 -10.75 -7.95 -6.3 -7.95 -3.15 -9.55 -0.95 -10.7 -0.25 -12.1 M-0.35 -6.7 L-0.15 -6.45 0.0 -5.45 Q0.0 -3.2 -3.15 -1.6 -6.3 0.0 -10.75 0.0 -15.2 0.0 -18.35 -1.6 -21.45 -3.2 -21.45 -5.45 L-21.25 -6.4 -21.1 -6.7 Q-20.4 -5.3 -18.35 -4.3 -15.2 -2.7 -10.75 -2.7 -6.3 -2.7 -3.15 -4.3 -1.05 -5.35 -0.35 -6.7" fill="#221100" fill-opacity="0.627451" fill-rule="evenodd" stroke="none"/>
      <path d="M-21.1 -17.3 L-21.45 -18.7 Q-21.45 -20.95 -18.35 -22.6 -15.2 -24.15 -10.75 -24.15 -6.3 -24.15 -3.15 -22.6 0.0 -20.95 0.0 -18.7 0.0 -18.0 -0.35 -17.3 L-0.65 -16.8 Q-1.45 -15.75 -3.15 -14.9 -6.3 -13.25 -10.75 -13.25 -15.2 -13.25 -18.35 -14.9 -20.05 -15.75 -20.8 -16.8 L-21.1 -17.3 M-0.3 -14.7 Q0.0 -14.1 0.0 -13.4 L-0.15 -12.4 -0.25 -12.1 Q-0.95 -10.7 -3.15 -9.55 -6.3 -7.95 -10.75 -7.95 -15.2 -7.95 -18.35 -9.55 -20.5 -10.7 -21.15 -12.1 L-21.25 -12.35 -21.45 -13.4 -21.15 -14.65 Q-20.5 -13.25 -18.35 -12.1 -15.2 -10.5 -10.75 -10.5 -6.3 -10.5 -3.15 -12.1 -0.95 -13.25 -0.3 -14.7 M-0.35 -9.45 L-0.15 -9.1 0.0 -8.15 Q0.0 -7.4 -0.35 -6.7 -1.05 -5.35 -3.15 -4.3 -6.3 -2.7 -10.75 -2.7 -15.2 -2.7 -18.35 -4.3 -20.4 -5.3 -21.1 -6.7 -21.45 -7.35 -21.45 -8.15 L-21.25 -9.05 -21.05 -9.4 Q-20.35 -8.1 -18.35 -7.05 -15.2 -5.45 -10.75 -5.45 -6.3 -5.45 -3.15 -7.05 -1.05 -8.15 -0.35 -9.45 M-1.35 -19.35 L-1.35 -19.45 Q-1.45 -21.1 -4.1 -22.25 -6.85 -23.45 -10.75 -23.45 -14.6 -23.45 -17.35 -22.25 -19.95 -21.1 -20.05 -19.45 L-20.05 -19.35 -19.75 -18.25 -19.5 -17.9 Q-18.85 -17.1 -17.35 -16.5 L-15.25 -15.75 -11.1 -15.25 -10.85 -15.25 -10.75 -15.25 -10.35 -15.25 -10.25 -15.25 -10.15 -15.25 -10.05 -15.25 -6.1 -15.8 Q-5.05 -16.05 -4.1 -16.5 -2.6 -17.1 -1.9 -17.9 L-1.65 -18.25 Q-1.35 -18.85 -1.35 -19.35" fill="#663300" fill-opacity="0.627451" fill-rule="evenodd" stroke="none"/>
    </g>
    <g id="shape3" transform="matrix(1.0, 0.0, 0.0, 1.0, -1.65, -4.55)">
      <path d="M5.4 5.5 L6.15 5.15 Q8.8 8.9 10.95 13.05 L10.65 12.6 10.65 12.75 11.35 13.8 10.7 13.2 Q7.0 9.55 2.35 6.9 L2.15 6.75 3.05 6.45 Q6.65 8.65 8.25 10.25 L9.7 11.5 7.8 8.6 5.4 5.5 M2.55 23.65 Q2.4 22.8 2.5 21.45 2.55 19.9 3.45 17.95 L4.5 19.15 Q7.35 15.9 11.0 14.2 L11.3 14.05 11.4 14.0 11.4 14.1 11.2 14.3 10.7 14.95 10.55 15.1 10.45 15.3 Q8.3 18.15 6.5 21.1 L8.05 22.3 3.05 23.5 3.05 23.55 3.0 23.55 2.8 23.6 2.75 23.65 2.7 23.65 2.55 23.65 M3.45 20.0 Q3.25 20.5 3.2 21.1 3.05 21.6 3.05 22.35 3.05 22.8 3.3 22.8 L4.65 22.5 6.05 22.0 6.4 21.9 6.15 21.6 6.0 21.4 5.85 21.3 5.8 21.25 Q5.6 20.95 7.25 18.75 L9.95 15.25 Q9.2 15.7 8.75 16.05 8.3 16.35 7.45 17.2 L5.8 18.7 4.95 19.55 4.65 19.75 4.6 19.8 4.45 19.9 4.1 19.75 3.75 19.5 3.45 20.0" fill="#ffcc66" fill-rule="evenodd" stroke="none"/>
      <path d="M3.05 6.45 L5.4 5.5 7.8 8.6 9.7 11.5 8.25 10.25 Q6.65 8.65 3.05 6.45 M3.45 20.0 L3.75 19.5 4.1 19.75 4.45 19.9 4.6 19.8 4.65 19.75 4.95 19.55 5.8 18.7 7.45 17.2 Q8.3 16.35 8.75 16.05 9.2 15.7 9.95 15.25 L7.25 18.75 Q5.6 20.95 5.8 21.25 L5.85 21.3 6.0 21.4 6.15 21.6 6.4 21.9 6.05 22.0 4.65 22.5 3.3 22.8 Q3.05 22.8 3.05 22.35 3.05 21.6 3.2 21.1 3.25 20.5 3.45 20.0" fill="#ffff00" fill-rule="evenodd" stroke="none"/>
      <path d="M11.35 13.8 L10.65 12.75 10.65 12.6 10.95 13.05 11.15 13.45 11.35 13.8 M2.75 23.65 L3.0 23.7 2.75 23.7 2.75 23.65" fill="#ffda10" fill-rule="evenodd" stroke="none"/>
      <path d="M2.55 23.65 L2.7 23.65 2.75 23.65 2.75 23.7 2.55 23.7 2.55 23.65" fill="#fefe78" fill-rule="evenodd" stroke="none"/>
      <path d="M6.15 5.15 Q3.75 4.7 2.15 6.75 L2.35 6.9 Q7.0 9.55 10.7 13.2 L11.35 13.8 11.15 13.45 10.95 13.05 Q8.8 8.9 6.15 5.15 M2.75 23.65 L2.8 23.6 3.0 23.55 3.05 23.55 3.05 23.5 8.05 22.3 6.5 21.1 Q8.3 18.15 10.45 15.3 L10.55 15.1 10.7 14.95 11.2 14.3 11.4 14.1 11.4 14.0 11.3 14.05 11.0 14.2 Q7.35 15.9 4.5 19.15 L3.45 17.95 Q2.55 19.9 2.5 21.45 2.4 22.8 2.55 23.65 L2.7 23.65 2.75 23.65 Z" fill="none" stroke="#aa5909" stroke-linecap="round" stroke-linejoin="round" stroke-width="1.0"/>
      <path d="M19.35 13.55 L19.65 13.1 19.65 13.25 18.95 14.3 19.15 13.95 19.35 13.55 M27.55 24.2 L27.3 24.2 27.55 24.15 27.55 24.2" fill="#ffda10" fill-rule="evenodd" stroke="none"/>
      <path d="M18.95 14.3 L19.65 13.25 19.65 13.1 19.35 13.55 Q21.5 9.4 24.15 5.65 L24.9 6.0 22.5 9.1 20.6 12.0 Q20.3 12.5 22.05 10.75 23.65 9.15 27.25 6.95 L28.15 7.25 27.95 7.4 Q23.3 10.05 19.6 13.7 L18.95 14.3 M27.55 24.15 L27.5 24.1 27.3 24.05 27.25 24.05 27.25 24.0 22.25 22.8 23.8 21.6 Q22.0 18.65 19.85 15.8 L19.75 15.6 19.6 15.45 19.1 14.8 18.9 14.6 18.9 14.5 19.0 14.55 19.3 14.7 Q22.95 16.4 25.8 19.65 L26.85 18.45 Q27.75 20.4 27.8 21.95 L27.75 24.15 27.6 24.15 27.55 24.15 M20.35 15.75 L23.05 19.25 Q24.7 21.45 24.5 21.75 L24.45 21.8 24.3 21.9 24.15 22.1 23.9 22.4 24.25 22.5 25.65 23.0 27.0 23.3 27.25 22.85 27.1 21.6 26.85 20.5 Q26.7 19.95 26.55 20.0 L26.2 20.25 25.85 20.4 25.7 20.3 25.65 20.25 25.35 20.05 24.5 19.2 22.85 17.7 21.55 16.55 20.35 15.75" fill="#ffcc66" fill-rule="evenodd" stroke="none"/>
      <path d="M27.25 6.95 Q23.65 9.15 22.05 10.75 20.3 12.5 20.6 12.0 L22.5 9.1 24.9 6.0 27.25 6.95 M20.35 15.75 L21.55 16.55 22.85 17.7 24.5 19.2 25.35 20.05 25.65 20.25 25.7 20.3 25.85 20.4 26.2 20.25 26.55 20.0 Q26.7 19.95 26.85 20.5 L27.1 21.6 27.25 22.85 27.0 23.3 25.65 23.0 24.25 22.5 23.9 22.4 24.15 22.1 24.3 21.9 24.45 21.8 24.5 21.75 Q24.7 21.45 23.05 19.25 L20.35 15.75" fill="#ffff00" fill-rule="evenodd" stroke="none"/>
      <path d="M27.75 24.15 L27.75 24.2 27.55 24.2 27.55 24.15 27.6 24.15 27.75 24.15" fill="#fefe78" fill-rule="evenodd" stroke="none"/>
      <path d="M19.35 13.55 L19.15 13.95 18.95 14.3 19.6 13.7 Q23.3 10.05 27.95 7.4 L28.15 7.25 Q26.55 5.2 24.15 5.65 21.5 9.4 19.35 13.55 M27.55 24.15 L27.5 24.1 27.3 24.05 27.25 24.05 27.25 24.0 22.25 22.8 23.8 21.6 Q22.0 18.65 19.85 15.8 L19.75 15.6 19.6 15.45 19.1 14.8 18.9 14.6 18.9 14.5 19.0 14.55 19.3 14.7 Q22.95 16.4 25.8 19.65 L26.85 18.45 Q27.75 20.4 27.8 21.95 L27.75 24.15 27.6 24.15 27.55 24.15 Z" fill="none" stroke="#aa5909" stroke-linecap="round" stroke-linejoin="round" stroke-width="1.0"/>
      <path d="M18.05 16.8 L17.85 17.5 17.35 17.75 14.25 17.75 14.15 18.65 15.55 18.65 Q16.9 18.65 17.65 19.45 18.5 20.25 18.5 21.9 18.5 24.1 17.2 25.15 16.4 25.85 15.2 25.85 13.95 25.85 12.95 25.35 12.55 25.1 12.55 24.5 L12.75 23.85 Q12.9 23.55 13.2 23.55 L13.55 23.6 Q14.25 24.0 15.2 24.0 15.85 24.0 16.4 23.45 17.0 22.95 17.0 21.9 17.0 20.55 15.5 20.55 L12.65 20.55 12.85 18.3 12.9 15.95 17.35 15.95 17.85 16.2 18.05 16.8 Z" fill="none" stroke="#6d0101" stroke-linecap="round" stroke-linejoin="round" stroke-width="1.5"/>
      <path d="M14.2 18.35 L15.55 18.35 Q16.95 18.35 17.7 19.15 18.5 19.9 18.5 21.55 18.5 23.75 17.25 24.8 16.4 25.5 15.25 25.5 L13.0 25.05 Q12.55 24.75 12.55 24.2 12.55 23.8 12.8 23.5 12.95 23.25 13.25 23.25 L13.55 23.3 15.25 23.65 Q15.9 23.65 16.4 23.15 17.05 22.6 17.05 21.55 17.05 20.25 15.5 20.25 L12.65 20.25 12.9 17.95 12.95 15.6 17.35 15.6 17.9 15.85 18.1 16.5 17.9 17.2 17.35 17.45 14.3 17.45 14.2 18.35" fill="url(#gradient0)" fill-rule="evenodd" stroke="none"/>
    </g>
    <linearGradient gradientTransform="matrix(0.0, -0.0058, 0.0135, 0.0, 23.65, 20.45)" gradientUnits="userSpaceOnUse" id="gradient0" spreadMethod="pad" x1="-819.2" x2="819.2">
      <stop offset="0.0" stop-color="#ff9900"/>
      <stop offset="1.0" stop-color="#fff800"/>
    </linearGradient>
  </defs>
</svg>
