<?xml version="1.0" encoding="UTF-8" standalone="no"?>
<svg xmlns:ffdec="https://www.free-decompiler.com/flash" xmlns:xlink="http://www.w3.org/1999/xlink" ffdec:objectType="frame" height="30.0px" width="30.05px" xmlns="http://www.w3.org/2000/svg">
  <g transform="matrix(1.0, 0.0, 0.0, 1.0, 0.0, 0.0)">
    <use ffdec:characterId="1" height="30.0" transform="matrix(1.0, 0.0, 0.0, 1.0, 0.0, 0.0)" width="30.05" xlink:href="#shape0"/>
  </g>
  <defs>
    <g id="shape0" transform="matrix(1.0, 0.0, 0.0, 1.0, 0.0, 0.0)">
      <path d="M0.0 0.0 L30.0 0.0 30.0 30.0 0.0 30.0 0.0 0.0" fill="#33cc66" fill-opacity="0.0" fill-rule="evenodd" stroke="none"/>
      <path d="M30.05 3.3 L30.05 26.7 29.85 28.15 Q29.2 30.0 26.75 30.0 L3.35 30.0 Q0.9 30.0 0.25 28.15 L0.05 26.7 0.05 3.3 Q0.05 0.7 2.1 0.15 L3.35 0.0 26.75 0.0 27.8 0.1 28.0 0.15 Q30.05 0.7 30.05 3.3" fill="#949bd0" fill-rule="evenodd" stroke="none"/>
      <path d="M14.9 5.1 L14.95 5.0 15.05 5.0 15.95 4.9 16.1 4.9 16.2 5.05 16.2 5.15 15.95 5.1 15.55 5.1 15.1 5.1 14.95 5.1 14.9 5.1 M15.05 5.0 L16.2 5.05 15.05 5.0" fill="#b2777b" fill-rule="evenodd" stroke="none"/>
      <path d="M14.95 5.0 L14.9 5.1 14.3 5.15 14.05 5.15 14.95 5.0" fill="#dbaca4" fill-rule="evenodd" stroke="none"/>
      <path d="M14.9 5.1 L14.95 5.1 15.1 5.1 15.55 5.1 15.95 5.1 16.2 5.15 16.2 5.3 18.6 5.35 18.85 5.4 18.9 5.4 18.35 5.5 16.95 5.7 15.95 5.8 15.65 5.85 15.6 5.85 14.25 6.05 13.85 6.1 13.9 6.1 14.55 6.25 15.8 6.75 16.0 6.9 16.55 7.25 16.95 7.5 18.3 8.75 19.6 10.5 19.7 10.65 19.75 10.75 20.0 11.9 20.0 11.95 20.0 12.05 20.0 12.1 19.95 12.6 19.95 12.65 19.9 12.85 19.75 13.2 19.7 13.25 19.25 13.95 18.6 14.6 17.55 15.2 17.35 15.35 16.35 15.7 15.6 15.95 15.4 16.0 15.7 15.8 17.15 14.9 17.15 14.85 17.2 14.8 Q18.05 14.25 18.55 13.7 L19.15 12.55 19.2 12.5 19.2 12.45 19.2 12.15 19.2 12.1 19.2 11.9 19.15 11.85 19.05 11.45 18.5 10.9 Q18.25 10.75 17.85 10.75 L17.85 11.1 17.8 11.65 17.0 12.9 16.4 13.35 15.4 13.95 13.95 14.2 13.95 14.15 14.1 13.45 14.1 13.35 14.1 13.3 14.4 13.15 14.7 12.9 15.55 13.0 Q16.2 13.0 16.7 12.3 L17.05 11.5 17.15 11.2 17.2 10.85 17.2 10.8 17.2 10.55 17.2 10.5 17.2 10.2 16.9 9.35 16.9 9.25 Q16.75 9.05 16.55 9.0 L16.45 8.95 Q16.25 8.7 15.85 8.7 L15.45 8.8 15.4 8.85 15.35 8.85 13.9 8.75 13.25 8.8 13.2 8.7 12.95 8.3 12.9 8.25 12.85 8.2 12.7 8.05 12.0 7.85 11.5 7.8 10.95 7.9 10.85 7.9 10.0 8.45 9.95 8.5 9.6 9.1 9.55 9.15 9.45 9.4 9.45 9.5 9.45 9.55 9.4 9.9 9.2 10.05 9.3 9.35 9.75 8.5 9.9 8.3 10.05 8.05 10.8 7.3 10.9 7.25 11.3 6.95 11.65 6.85 12.5 6.5 13.7 6.15 13.85 6.1 12.65 5.85 12.1 5.85 11.3 5.95 10.2 6.25 10.15 6.2 11.3 5.8 11.45 5.75 13.75 5.15 14.05 5.15 14.3 5.15 14.9 5.1 M6.05 13.1 L5.85 13.95 5.6 16.0 5.55 16.65 5.55 17.9 5.65 19.2 5.7 19.8 5.4 19.9 5.1 20.05 5.25 19.15 5.3 17.95 5.4 17.95 5.4 17.9 5.25 16.65 5.2 15.95 5.2 15.3 5.3 14.25 5.4 13.6 5.8 13.25 6.05 13.1 M10.0 14.35 L9.7 14.9 9.2 15.85 8.0 17.65 7.85 17.85 7.85 17.9 7.75 18.05 7.4 18.35 7.35 18.4 7.75 15.2 8.05 13.35 8.3 13.05 8.9 12.25 Q9.2 12.65 9.95 12.9 L10.7 13.15 10.65 13.2 10.6 13.15 10.5 13.4 10.0 14.35 M7.9 8.1 L8.9 7.25 9.55 6.65 9.65 6.45 9.65 6.4 9.8 6.35 9.5 6.8 Q8.45 7.65 7.65 8.9 7.0 9.95 6.5 11.25 L6.15 12.7 6.05 12.75 5.7 12.95 5.45 13.15 5.6 12.45 6.35 9.95 7.4 8.7 7.45 8.65 7.9 8.1 M8.95 20.3 L8.9 20.65 8.9 21.2 8.95 21.8 9.15 23.45 9.45 24.3 Q10.2 24.65 10.7 25.9 L11.2 27.25 5.4 27.25 5.1 26.85 4.9 26.5 4.85 26.4 4.6 26.0 4.6 25.95 4.5 25.8 4.55 25.75 5.9 23.75 6.7 22.75 6.65 22.7 6.8 22.55 7.05 22.3 8.0 21.05 8.35 20.65 8.95 20.3 M4.3 22.3 L4.7 21.6 4.75 21.6 4.85 21.6 5.0 21.6 5.45 21.5 5.2 22.35 5.1 22.65 4.95 23.1 4.25 24.55 4.2 24.55 4.05 25.05 4.0 25.1 3.65 24.7 3.6 24.55 3.7 24.4 4.45 22.7 4.55 22.4 4.8 21.8 4.35 22.3 4.3 22.3 M2.2 26.2 L2.3 26.65 2.35 26.75 1.65 27.15 1.65 26.4 1.7 26.4 2.2 26.2 M24.05 23.7 L24.35 23.45 24.35 23.05 24.3 22.9 24.25 22.05 24.35 22.4 24.45 22.8 24.45 22.85 Q24.8 24.3 25.4 25.15 L25.9 25.9 26.0 26.0 26.05 26.15 26.1 26.2 26.25 26.4 26.75 26.8 27.0 27.0 27.4 27.25 26.65 27.25 27.4 27.25 27.5 27.4 27.5 27.65 26.95 27.65 26.65 27.3 26.65 27.25 25.8 26.5 Q24.7 25.4 24.15 24.3 L24.05 23.7 M23.7 18.1 L23.35 17.95 23.2 17.6 23.2 17.35 23.1 17.3 23.05 17.25 23.05 17.2 23.1 17.15 23.1 17.1 23.15 16.85 23.3 16.7 23.45 16.75 23.65 16.75 23.9 16.85 24.0 16.85 24.1 16.85 24.1 16.9 23.9 16.85 23.85 16.85 Q23.6 16.85 23.45 17.0 L23.35 17.25 23.35 17.4 23.35 17.45 23.35 17.55 23.6 18.0 23.7 18.1 M26.15 27.65 L25.15 27.65 25.0 27.25 24.65 26.05 25.75 27.25 26.15 27.65 M23.55 27.65 L23.05 27.65 23.0 27.25 22.75 25.35 23.45 27.25 23.0 27.25 23.45 27.25 23.55 27.65 M25.75 27.25 L25.0 27.25 25.75 27.25" fill="#dbbf77" fill-rule="evenodd" stroke="none"/>
      <path d="M16.2 5.15 L16.2 5.05 16.1 4.9 19.7 5.35 18.6 5.35 17.85 5.2 16.2 5.05 17.85 5.2 18.6 5.35 16.2 5.3 16.2 5.15 M27.35 26.0 L27.45 26.1 27.5 26.15 27.5 27.25 27.4 27.25 27.5 27.25 27.5 27.4 27.4 27.25 27.0 27.0 26.75 26.8 26.25 26.4 26.1 26.2 26.05 26.15 26.0 26.0 25.9 25.9 25.4 25.15 Q24.8 24.3 24.45 22.85 L24.45 22.8 24.35 22.4 24.25 22.05 24.25 21.95 24.25 21.9 24.25 21.75 24.3 21.15 24.5 20.5 24.7 19.75 25.0 18.95 25.05 18.9 24.9 19.95 Q24.9 21.0 25.2 22.2 L25.25 22.4 25.45 23.35 25.75 24.1 25.8 24.15 25.85 24.3 25.9 24.35 25.95 24.35 25.95 24.4 26.1 24.7 26.55 25.3 26.8 25.6 27.25 25.95 27.35 26.0 M19.75 10.75 L19.85 10.85 20.3 11.35 20.45 11.75 20.45 11.85 20.55 12.15 20.55 12.35 20.6 12.75 20.6 12.95 20.4 13.75 20.4 13.8 20.6 13.55 20.8 13.4 20.9 13.2 20.95 13.15 20.95 13.1 21.45 13.95 21.5 13.95 21.3 14.15 21.2 14.4 20.6 14.95 19.9 15.35 18.9 15.7 18.35 15.85 18.3 15.9 17.95 15.95 17.15 16.05 16.45 16.15 16.45 16.1 16.4 16.15 15.45 16.2 14.85 16.25 14.75 16.3 14.8 16.25 15.25 16.05 15.4 16.0 15.6 15.95 16.35 15.7 17.35 15.35 17.55 15.2 18.6 14.6 19.25 13.95 19.7 13.25 19.75 13.2 19.9 12.85 19.95 12.65 19.95 12.6 20.0 12.1 20.0 12.05 20.0 11.95 20.0 11.9 19.75 10.75 M18.35 5.5 L17.75 5.95 16.95 5.7 18.35 5.5 M11.4 27.25 L11.45 26.5 11.1 25.2 10.95 25.0 10.95 24.95 10.9 24.9 10.55 24.4 10.35 24.2 9.3 22.4 9.2 21.95 9.35 22.05 9.4 22.05 9.6 22.15 9.9 22.35 10.15 22.45 10.1 21.6 10.1 21.05 10.15 20.75 10.15 20.65 10.45 19.4 10.55 19.3 10.6 19.25 10.8 19.05 10.8 19.0 10.95 18.9 11.3 18.6 11.85 18.05 11.9 18.05 12.3 17.55 12.35 17.5 12.4 17.5 12.5 17.5 13.05 17.4 13.45 17.3 14.05 17.2 14.1 17.2 15.2 17.0 15.55 16.9 16.1 16.85 16.25 16.8 17.75 16.55 17.85 16.5 18.3 16.35 19.8 15.95 21.75 15.3 22.85 14.8 22.95 14.85 21.95 15.5 20.35 16.3 19.95 16.45 18.5 16.85 18.35 16.9 17.7 17.15 17.65 17.2 17.45 17.25 16.25 17.55 14.85 18.15 14.65 18.25 Q14.3 18.35 14.0 18.55 L12.75 19.35 11.95 19.95 11.65 20.2 10.7 21.1 10.4 21.65 10.25 22.05 10.75 23.2 11.3 24.1 11.3 24.15 11.45 24.4 11.8 25.0 11.8 25.05 11.8 25.1 11.85 25.1 12.05 25.5 12.05 25.6 12.05 25.65 12.05 26.1 12.05 26.15 12.1 26.6 12.1 27.2 12.1 27.25 11.4 27.25 M22.75 17.2 L22.85 16.95 22.95 16.85 23.0 16.75 23.05 16.75 23.1 16.7 23.2 16.7 23.3 16.65 23.35 16.6 23.5 16.65 23.65 16.65 23.75 16.7 23.9 16.75 24.05 16.8 24.1 16.85 24.0 16.85 23.9 16.85 23.65 16.75 23.45 16.75 23.3 16.7 23.15 16.85 23.1 17.1 23.1 17.15 23.05 17.2 23.05 17.25 23.1 17.3 23.2 17.35 23.2 17.6 23.35 17.95 23.7 18.1 23.8 18.15 23.85 18.15 23.7 18.2 23.65 18.2 23.35 18.15 23.2 18.1 23.1 18.0 23.05 18.0 22.95 17.85 22.8 17.6 22.75 17.4 22.75 17.35 22.75 17.2" fill="#f8ff9f" fill-rule="evenodd" stroke="none"/>
      <path d="M19.7 5.35 L20.8 5.85 19.75 5.55 18.9 5.4 18.85 5.4 18.6 5.35 19.7 5.35 M23.5 7.7 L23.7 7.9 24.3 8.6 25.1 9.9 25.15 10.05 25.15 10.1 25.15 10.55 25.2 11.8 25.2 12.15 25.2 12.55 24.7 13.05 24.7 13.15 24.35 13.45 24.2 13.45 24.15 13.7 24.0 13.95 23.95 14.0 23.4 14.5 23.3 14.6 23.9 13.85 24.05 13.35 24.1 13.25 24.25 12.85 24.4 12.6 24.5 12.2 24.55 12.0 24.55 11.45 24.45 10.65 24.45 10.55 Q24.85 10.5 24.85 10.1 L24.7 9.75 24.65 9.55 24.25 9.35 Q24.05 9.35 23.95 9.5 L23.4 8.9 Q22.5 7.95 20.6 7.15 L20.4 7.05 20.4 7.0 19.85 7.15 19.85 7.2 19.65 7.45 19.5 7.9 19.5 8.0 19.4 8.55 Q19.4 9.65 20.4 10.2 L20.5 10.3 21.2 10.55 21.3 10.6 21.8 11.2 21.9 11.35 21.9 11.4 21.85 11.4 22.0 12.2 22.0 12.5 22.0 12.6 21.8 13.45 21.65 13.7 21.55 13.9 21.5 13.95 21.45 13.95 20.95 13.1 20.95 13.15 20.9 13.2 20.8 13.4 20.6 13.55 20.4 13.8 20.4 13.75 20.6 12.95 20.6 12.75 20.55 12.35 20.55 12.15 20.45 11.85 20.45 11.75 20.3 11.35 19.85 10.85 19.75 10.75 19.7 10.65 19.6 10.5 18.3 8.75 16.95 7.5 16.55 7.25 16.0 6.9 15.8 6.75 14.55 6.25 13.9 6.1 13.85 6.1 14.25 6.05 15.6 5.85 15.65 5.85 15.95 5.8 16.95 5.7 17.75 5.95 18.35 5.5 18.9 5.4 19.75 5.55 20.8 5.85 20.75 6.0 21.0 6.15 22.0 6.7 22.25 6.85 22.65 7.05 22.65 7.1 23.5 7.7 M24.15 10.55 L24.3 10.55 24.35 10.55 24.15 10.6 24.15 10.55" fill="#f0ff9f" fill-rule="evenodd" stroke="none"/>
      <path d="M21.5 13.95 L21.55 13.9 21.65 13.7 21.8 13.45 22.0 12.6 22.0 12.5 22.0 12.2 21.85 11.4 21.9 11.4 21.9 11.35 21.8 11.2 21.3 10.6 21.2 10.55 20.5 10.3 20.4 10.2 Q19.4 9.65 19.4 8.55 L19.5 8.0 19.5 7.9 19.65 7.45 19.85 7.2 19.85 7.15 20.4 7.0 20.4 7.05 20.6 7.15 Q22.5 7.95 23.4 8.9 L23.95 9.5 23.9 9.55 23.85 9.65 23.7 9.9 23.7 10.0 Q23.7 10.5 24.15 10.55 L24.15 10.6 24.35 10.55 24.45 10.55 24.45 10.65 24.55 11.45 24.55 12.0 24.5 12.2 24.4 12.6 24.25 12.85 24.1 13.25 24.05 13.35 23.9 13.85 23.3 14.6 23.3 14.65 Q23.2 14.65 23.15 14.75 L22.95 14.85 22.85 14.8 21.75 15.3 19.8 15.95 18.3 16.35 17.85 16.5 17.75 16.55 16.25 16.8 16.1 16.85 15.55 16.9 15.2 17.0 14.1 17.2 14.05 17.2 13.45 17.3 13.05 17.4 12.5 17.5 12.4 17.5 12.35 17.5 12.55 17.25 Q13.65 15.8 13.95 14.2 L15.4 13.95 16.4 13.35 17.0 12.9 17.8 11.65 17.85 11.1 17.85 10.75 Q18.25 10.75 18.5 10.9 L19.05 11.45 19.15 11.85 19.2 11.9 19.2 12.1 19.2 12.15 19.2 12.45 19.2 12.5 19.15 12.55 18.55 13.7 Q18.05 14.25 17.2 14.8 L17.15 14.85 17.15 14.9 15.7 15.8 15.4 16.0 15.25 16.05 14.8 16.25 14.75 16.3 14.85 16.25 15.45 16.2 16.4 16.15 16.45 16.15 17.15 16.05 17.95 15.95 18.3 15.9 18.35 15.85 18.9 15.7 19.9 15.35 20.6 14.95 21.2 14.4 21.3 14.15 21.5 13.95 M11.2 27.25 L10.7 25.9 Q10.2 24.65 9.45 24.3 L9.15 23.45 8.95 21.8 8.9 21.2 8.9 20.65 8.95 20.3 9.2 20.25 9.25 20.15 9.9 19.7 10.1 19.6 10.55 19.3 10.45 19.4 10.15 20.65 10.15 20.75 10.1 21.05 10.1 21.6 10.15 22.45 9.9 22.35 9.6 22.15 9.4 22.05 9.35 22.05 9.2 21.95 9.3 22.4 10.35 24.2 10.55 24.4 10.9 24.9 10.8 24.9 10.95 24.95 10.95 25.0 11.1 25.2 11.45 26.5 11.4 27.25 11.2 27.25" fill="#e1e26b" fill-rule="evenodd" stroke="none"/>
      <path d="M10.15 6.2 L10.2 6.25 11.3 5.95 12.1 5.85 12.65 5.85 13.85 6.1 13.7 6.15 12.5 6.5 11.65 6.85 11.3 6.95 10.9 7.25 10.8 7.3 10.05 8.05 9.9 8.3 9.75 8.5 9.3 9.35 9.2 10.05 9.4 9.9 9.6 10.55 10.0 10.95 10.4 11.15 10.6 11.2 10.7 11.25 10.65 11.45 10.45 11.4 10.3 11.35 10.2 11.35 10.1 11.35 8.9 11.55 7.65 11.95 Q7.15 12.1 6.7 12.4 L6.65 12.4 6.15 12.7 6.5 11.25 Q7.0 9.95 7.65 8.9 8.45 7.65 9.5 6.8 L9.8 6.35 10.15 6.2 M13.25 8.8 L13.9 8.75 15.35 8.85 15.25 8.85 15.2 8.9 15.1 8.9 14.95 9.05 14.65 9.75 14.5 9.6 14.4 9.5 14.2 9.35 13.8 9.2 13.35 9.15 13.3 9.15 13.25 9.0 13.25 8.95 13.25 8.8 M17.15 11.2 L17.05 11.5 16.7 12.3 Q16.2 13.0 15.55 13.0 L14.7 12.9 14.4 13.15 14.1 13.3 14.1 12.95 14.1 12.85 14.1 12.75 14.15 12.7 14.2 12.65 14.3 12.65 14.3 12.6 14.55 12.4 14.75 12.15 14.9 11.95 14.95 11.85 15.05 11.9 15.1 12.0 15.15 12.0 15.25 12.05 15.65 12.1 15.7 12.1 16.25 12.05 16.9 11.55 17.05 11.35 17.15 11.2 M11.35 12.0 L11.35 12.35 11.3 13.35 11.3 13.5 11.3 13.7 Q10.95 15.2 10.0 16.55 L9.95 16.7 9.75 16.85 9.75 16.9 9.05 17.65 8.3 18.3 8.25 18.35 7.5 18.9 7.45 18.9 6.3 19.55 5.8 19.7 5.7 19.8 5.65 19.2 5.55 17.9 5.55 16.65 5.6 16.0 5.85 13.95 6.05 13.1 Q6.4 12.8 6.8 12.6 L7.75 12.15 8.45 12.0 8.9 11.9 8.95 11.9 9.9 11.85 10.15 11.85 10.25 11.85 10.6 11.85 10.8 11.9 11.35 12.0 M10.0 14.35 L10.5 13.4 10.6 13.15 10.65 13.2 10.7 13.15 9.95 12.9 Q9.2 12.65 8.9 12.25 L8.3 13.05 8.05 13.35 7.75 15.2 7.35 18.4 7.4 18.35 7.75 18.05 7.85 17.9 7.85 17.85 8.0 17.65 9.2 15.85 9.7 14.9 10.0 14.35 M8.35 20.65 L8.0 21.05 7.05 22.3 6.8 22.55 6.65 22.7 6.7 22.75 5.9 23.75 4.55 25.75 4.5 25.8 4.25 25.55 4.25 25.5 4.1 25.3 4.0 25.1 4.05 25.05 4.2 24.55 4.25 24.55 4.95 23.1 5.1 22.65 5.2 22.35 5.45 21.5 5.7 21.45 5.95 21.4 6.1 21.35 6.85 21.15 6.9 21.15 6.95 21.1 7.75 20.9 7.8 20.9 7.95 20.85 8.35 20.65 M2.35 26.75 L2.4 26.85 2.45 26.9 2.5 27.1 2.6 27.2 2.6 27.25 1.65 27.25 1.65 27.15 2.35 26.75 M2.5 27.1 L2.4 26.9 2.4 26.85 2.4 26.9 2.5 27.1" fill="#b78e62" fill-rule="evenodd" stroke="none"/>
      <path d="M13.75 5.15 L11.45 5.75 11.3 5.8 10.15 6.2 9.8 6.35 9.85 6.3 9.9 6.2 10.4 5.95 11.3 5.65 11.75 5.55 12.2 5.4 12.4 5.35 12.95 5.25 13.75 5.15 M9.85 6.3 L10.4 5.95 9.85 6.3" fill="#826f88" fill-rule="evenodd" stroke="none"/>
      <path d="M9.85 6.3 L9.8 6.35 9.65 6.4 9.75 6.25 9.9 6.2 9.85 6.3 9.65 6.4 9.85 6.3 M6.6 9.5 L6.35 9.95 7.4 8.6 7.5 8.5 7.55 8.45 7.9 8.1 7.45 8.65 7.4 8.7 6.35 9.95 5.6 12.45 5.45 13.15 4.7 13.7 4.5 13.9 4.2 14.1 4.25 13.8 4.3 13.55 4.75 12.45 5.5 10.95 6.6 9.5 M4.15 15.2 L4.3 14.9 4.95 14.05 5.4 13.6 5.3 14.25 5.2 15.3 5.2 15.95 5.25 16.65 5.4 17.9 5.4 17.95 5.3 17.95 5.25 19.15 5.1 20.05 5.05 20.05 4.95 20.1 4.5 20.25 4.7 19.65 4.55 18.35 4.5 18.1 4.4 17.4 4.35 16.9 4.2 15.65 4.15 15.2 M2.95 23.35 L3.4 22.65 3.65 21.95 3.7 21.8 3.8 21.65 4.05 21.65 4.5 21.6 4.7 21.6 4.3 22.3 4.2 22.55 3.2 23.85 3.1 23.7 2.95 23.35 M2.0 24.4 L2.0 24.45 2.0 25.15 1.65 25.35 1.65 24.8 1.65 24.7 1.8 24.5 2.0 24.4 M1.65 24.8 L1.8 24.7 2.0 24.45 1.8 24.7 1.65 24.8" fill="#b0ced9" fill-rule="evenodd" stroke="none"/>
      <path d="M9.4 9.9 L9.45 9.55 9.45 9.5 9.45 9.4 9.55 9.15 9.6 9.1 9.95 8.5 10.0 8.45 10.85 7.9 10.95 7.9 10.7 8.15 10.4 8.65 10.25 9.05 10.25 9.25 10.25 9.3 10.25 9.45 10.25 9.5 10.45 9.85 10.65 10.0 10.85 10.15 11.1 10.3 11.15 10.35 11.35 10.45 11.45 10.45 11.5 10.35 11.55 10.3 11.65 10.05 11.65 10.0 11.7 9.95 11.7 9.9 11.75 9.85 11.8 9.8 11.8 9.75 11.85 9.75 12.0 9.6 12.05 9.55 12.55 9.3 13.15 9.15 13.3 9.15 13.35 9.15 13.8 9.2 14.2 9.35 14.1 9.35 14.0 9.35 13.4 9.45 13.35 9.5 13.05 9.7 13.0 9.75 12.9 9.85 12.85 9.85 12.8 9.9 12.75 10.0 12.7 10.0 12.65 10.15 12.6 10.2 12.55 10.3 12.5 10.4 12.45 10.45 12.45 10.5 12.4 10.55 12.4 10.6 12.35 10.95 12.35 11.1 12.35 11.3 Q12.4 12.05 13.0 12.4 L14.1 12.7 14.15 12.7 14.1 12.75 13.8 12.85 13.2 12.95 12.7 12.85 12.55 12.75 12.25 12.65 12.1 12.55 12.0 12.45 Q11.45 12.05 11.3 11.4 L11.3 11.3 11.1 11.3 10.7 11.25 10.6 11.2 10.4 11.15 10.0 10.95 9.6 10.55 9.4 9.9 M15.35 8.85 L15.4 8.85 15.45 8.8 15.85 8.7 Q16.25 8.7 16.45 8.95 L16.4 9.0 16.15 9.05 Q15.95 9.1 15.8 9.25 L15.65 9.5 15.6 9.75 15.55 10.0 15.55 10.15 15.6 10.35 15.6 10.4 15.7 10.65 16.2 11.2 16.95 11.35 17.05 11.35 16.9 11.55 16.25 12.05 15.7 12.1 15.65 12.1 15.25 12.05 15.15 12.0 15.1 12.0 15.05 11.9 14.95 11.85 15.0 11.75 15.1 11.55 15.15 11.35 15.25 11.0 15.25 10.85 15.25 10.75 15.25 10.65 15.25 10.6 15.15 10.4 15.1 10.25 14.95 10.0 14.8 9.85 14.75 9.8 14.65 9.75 14.95 9.05 15.1 8.9 15.2 8.9 15.25 8.85 15.35 8.85 M15.2 8.9 L15.1 9.0 14.75 9.8 15.1 9.0 15.2 8.9 M11.45 10.45 L11.45 10.5 11.4 10.95 11.4 11.0 11.4 11.25 11.3 11.25 11.25 11.25 10.85 11.2 10.7 11.15 10.55 11.15 10.15 10.9 9.7 10.5 9.55 9.85 9.6 9.5 9.6 9.45 9.6 9.35 9.65 9.1 9.7 9.05 10.1 8.45 10.15 8.4 10.85 7.9 10.15 8.4 10.1 8.45 9.7 9.05 9.65 9.1 9.6 9.35 9.6 9.45 9.6 9.5 9.55 9.85 9.7 10.5 10.15 10.9 10.55 11.15 10.7 11.15 10.85 11.2 11.25 11.25 11.3 11.25 11.4 11.25 11.4 11.0 11.4 10.95 11.45 10.5 11.45 10.45 M11.3 11.25 L11.3 11.3 11.3 11.25 M11.4 11.25 L11.45 11.35 Q11.6 12.0 12.1 12.4 L12.25 12.5 12.35 12.6 12.7 12.75 12.85 12.8 13.35 12.9 13.8 12.85 13.35 12.9 12.85 12.8 12.7 12.75 12.35 12.6 12.25 12.5 12.1 12.4 Q11.6 12.0 11.45 11.35 L11.4 11.25 M16.25 12.05 L15.8 12.05 15.75 12.05 15.4 12.05 15.3 11.95 15.25 11.95 15.1 11.85 15.0 11.75 15.1 11.85 15.25 11.95 15.3 11.95 15.4 12.05 15.75 12.05 15.8 12.05 16.25 12.05 M16.65 27.65 L16.6 27.65 16.65 27.45 16.7 27.35 16.7 27.45 16.65 27.65" fill="#91849b" fill-rule="evenodd" stroke="none"/>
      <path d="M10.95 7.9 L11.5 7.8 12.0 7.85 12.7 8.05 12.85 8.2 12.9 8.25 12.95 8.3 13.2 8.7 13.25 8.8 13.25 8.95 13.25 9.0 13.3 9.15 13.15 9.15 12.55 9.3 12.05 9.55 12.0 9.6 11.85 9.75 11.8 9.75 11.8 9.8 11.75 9.85 11.7 9.9 11.7 9.95 11.65 10.0 11.65 10.05 11.55 10.3 11.5 10.35 11.45 10.45 11.35 10.45 11.15 10.35 11.1 10.3 10.85 10.15 10.65 10.0 10.45 9.85 10.25 9.5 10.25 9.45 10.25 9.3 10.25 9.25 10.25 9.05 10.4 8.65 10.7 8.15 10.95 7.9 M16.45 8.95 L16.55 9.0 Q16.75 9.05 16.9 9.25 L16.9 9.35 17.2 10.2 17.2 10.5 17.2 10.55 17.2 10.8 17.2 10.85 17.15 11.2 17.05 11.35 16.95 11.35 16.2 11.2 15.7 10.65 15.6 10.4 15.6 10.35 15.55 10.15 15.55 10.0 15.6 9.75 15.65 9.5 15.8 9.25 Q15.95 9.1 16.15 9.05 L16.4 9.0 16.45 8.95 M12.0 8.25 L11.95 8.25 11.35 8.35 10.95 8.6 10.75 8.9 10.75 8.95 10.75 9.05 10.95 9.35 11.15 9.3 11.2 9.25 11.3 9.25 11.35 9.2 11.8 9.1 12.05 9.05 12.3 9.05 12.55 8.9 12.65 8.75 12.7 8.4 Q12.45 8.25 12.0 8.25 M14.5 9.6 L14.65 9.75 14.75 9.8 14.8 9.85 14.95 10.0 15.1 10.25 15.15 10.4 15.25 10.6 15.25 10.65 15.25 10.75 15.25 10.85 15.25 11.0 15.15 11.35 15.1 11.55 15.0 11.75 14.95 11.85 14.9 11.95 14.75 12.15 14.55 12.4 14.45 12.4 14.4 12.4 14.2 12.4 13.15 12.05 Q12.7 11.7 12.7 11.0 L12.7 10.65 13.0 10.4 13.0 10.35 13.1 10.3 13.1 10.4 13.05 10.4 13.05 10.45 13.05 10.55 13.2 10.8 13.25 10.85 13.65 10.95 13.85 10.9 14.1 10.8 14.2 10.55 14.2 10.45 14.15 10.35 14.15 10.3 14.05 10.25 14.0 10.2 14.1 10.2 14.4 10.3 14.5 10.3 14.5 9.6 M10.15 16.65 L10.05 16.75 9.95 16.7 10.0 16.55 10.15 16.65 M16.75 9.85 L16.45 9.7 Q16.05 9.7 16.05 10.0 L16.35 10.3 16.45 10.3 16.7 10.25 16.9 10.05 16.75 9.85 M21.95 15.5 L22.05 15.6 22.95 16.15 23.0 16.15 23.2 16.2 23.2 16.25 23.25 16.2 23.65 16.3 23.7 16.35 23.9 16.45 23.9 16.5 23.85 16.5 23.95 16.6 24.1 16.75 24.25 16.85 24.3 17.0 24.7 17.75 24.85 18.15 24.6 18.55 24.05 19.7 23.9 19.95 23.9 20.05 23.7 20.6 23.6 20.9 23.45 21.35 23.3 22.1 23.3 22.3 23.2 22.3 23.1 22.4 Q22.95 22.6 22.95 22.85 L23.05 23.1 22.75 23.4 22.5 23.7 20.7 24.9 20.65 24.9 19.8 25.35 20.4 25.5 19.35 25.55 19.7 25.4 19.8 25.35 19.2 25.15 18.75 25.05 18.6 24.95 18.65 24.9 18.45 24.1 18.35 23.9 18.3 23.65 18.3 23.55 18.1 22.4 18.65 22.25 18.8 22.1 18.9 22.0 19.2 21.95 19.4 21.95 19.7 21.95 19.9 21.95 20.1 21.95 20.15 21.95 20.2 21.85 20.45 21.3 20.4 21.15 19.9 21.0 19.75 21.0 19.4 20.8 19.45 20.05 Q19.45 18.75 18.9 17.7 L18.5 17.1 18.35 16.9 18.5 16.85 19.95 16.45 20.35 16.3 21.95 15.5 M23.65 16.65 L23.5 16.6 23.2 16.55 23.05 16.55 23.0 16.6 Q22.8 16.65 22.65 16.8 L22.35 17.2 22.3 17.45 22.25 17.7 22.35 18.15 22.5 18.3 23.05 18.45 23.25 18.45 23.35 18.4 Q23.4 18.35 23.6 18.25 L23.65 18.25 23.65 18.2 23.7 18.2 23.85 18.15 23.8 18.15 23.7 18.1 23.6 18.0 23.35 17.55 23.35 17.45 23.35 17.4 23.35 17.25 23.45 17.0 Q23.6 16.85 23.85 16.85 L23.9 16.85 24.1 16.9 24.1 16.85 24.05 16.8 23.9 16.75 23.75 16.7 23.65 16.65 M18.8 20.3 L18.55 21.05 17.55 20.45 16.45 19.6 15.75 18.75 15.7 18.65 16.05 18.25 16.25 18.15 16.45 18.05 16.9 18.15 16.95 18.2 17.0 18.2 17.55 18.4 17.8 18.6 17.5 18.75 17.2 18.95 17.7 19.6 17.6 19.8 17.5 20.15 17.9 19.85 18.25 20.15 18.8 20.3 M17.55 26.15 L17.8 26.05 17.8 26.15 17.55 26.15" fill="#cde0fc" fill-rule="evenodd" stroke="none"/>
      <path d="M23.95 9.5 Q24.05 9.35 24.25 9.35 L24.65 9.55 24.7 9.75 24.85 10.1 Q24.85 10.5 24.45 10.55 L24.35 10.55 24.3 10.55 24.15 10.55 Q23.7 10.5 23.7 10.0 L23.7 9.9 23.85 9.65 23.9 9.55 23.95 9.5 M12.0 8.25 Q12.45 8.25 12.7 8.4 L12.65 8.75 12.55 8.9 12.3 9.05 12.05 9.05 11.8 9.1 11.35 9.2 11.3 9.25 11.2 9.25 11.15 9.3 10.95 9.35 10.75 9.05 10.75 8.95 10.75 8.9 10.95 8.6 11.35 8.35 11.95 8.25 12.0 8.25 M14.2 9.35 L14.4 9.5 14.5 9.6 14.5 10.3 14.4 10.3 14.1 10.2 14.05 10.15 Q13.85 10.0 13.65 10.0 L13.6 10.0 13.25 10.05 13.0 10.35 13.0 10.4 12.7 10.65 12.7 11.0 Q12.7 11.7 13.15 12.05 L14.2 12.4 14.4 12.4 14.45 12.4 14.55 12.4 14.3 12.6 14.3 12.65 14.2 12.65 14.15 12.7 14.1 12.7 13.0 12.4 Q12.4 12.05 12.35 11.3 L12.35 11.1 12.35 10.95 12.4 10.6 12.4 10.55 12.45 10.5 12.45 10.45 12.5 10.4 12.55 10.3 12.6 10.2 12.65 10.15 12.7 10.0 12.75 10.0 12.8 9.9 12.85 9.85 12.9 9.85 13.0 9.75 13.05 9.7 13.35 9.5 13.4 9.45 14.0 9.35 14.1 9.35 14.2 9.35 M16.75 9.85 L16.9 10.05 16.7 10.25 16.45 10.3 16.35 10.3 16.05 10.0 Q16.05 9.7 16.45 9.7 L16.75 9.85" fill="#f6fcfc" fill-rule="evenodd" stroke="none"/>
      <path d="M13.0 10.35 L13.25 10.05 13.6 10.0 13.65 10.0 Q13.85 10.0 14.05 10.15 L14.1 10.2 14.0 10.2 14.05 10.25 14.15 10.3 14.15 10.35 14.2 10.45 14.2 10.55 14.1 10.8 13.85 10.9 13.65 10.95 13.25 10.85 13.2 10.8 13.05 10.55 13.05 10.45 13.05 10.4 13.1 10.4 13.1 10.3 13.0 10.35" fill="#ffffff" fill-rule="evenodd" stroke="none"/>
      <path d="M7.65 11.95 L8.9 11.55 10.1 11.35 10.2 11.35 10.3 11.35 10.45 11.4 10.65 11.45 10.7 11.25 11.1 11.3 11.3 11.3 11.3 11.4 Q11.45 12.05 12.0 12.45 L12.1 12.55 12.25 12.65 12.55 12.75 12.7 12.85 13.2 12.95 13.8 12.85 14.1 12.75 14.1 12.85 14.1 12.95 14.0 13.05 13.65 13.35 13.35 13.5 13.15 13.6 12.55 13.85 12.55 14.05 12.5 14.2 12.15 15.55 11.8 16.5 11.25 17.5 10.65 18.25 10.35 18.55 9.7 19.05 9.15 19.5 9.05 19.55 8.9 19.6 8.75 19.7 8.4 19.95 8.2 20.15 7.75 20.3 7.7 20.35 7.55 20.45 7.35 20.55 7.35 20.6 7.3 20.6 6.05 21.0 5.65 21.1 5.55 21.15 4.75 21.25 4.7 21.25 4.1 21.25 4.05 21.25 3.8 21.3 3.35 21.3 3.1 21.3 2.7 21.25 2.95 21.15 3.5 21.0 4.15 20.8 4.3 20.75 4.3 20.7 4.4 20.7 4.7 20.6 5.0 20.45 5.05 20.4 5.5 20.3 5.55 20.25 5.65 20.25 5.7 20.25 5.85 20.2 5.85 20.15 6.05 20.1 6.75 19.8 7.6 19.5 7.95 19.35 8.05 19.25 8.15 19.1 8.5 18.75 9.15 17.9 9.2 17.8 9.85 17.0 9.9 16.95 10.05 16.75 10.15 16.65 11.0 15.25 11.6 14.05 11.65 13.85 11.4 13.75 11.3 13.7 11.3 13.5 11.3 13.35 11.35 12.35 11.35 12.0 10.8 11.9 10.6 11.85 10.25 11.85 10.15 11.85 9.9 11.85 8.95 11.9 8.9 11.9 8.45 12.0 7.75 12.15 7.65 11.95 M11.35 12.0 L11.3 11.6 11.1 11.3 11.3 11.6 11.35 12.0 M10.95 11.6 L10.65 11.45 10.95 11.6 M2.6 16.1 L2.6 16.2 2.45 16.75 2.3 17.3 2.25 17.6 2.2 18.15 2.1 18.85 2.1 18.9 2.05 19.35 2.0 19.7 2.0 17.3 2.3 16.6 2.6 16.1 M2.0 23.1 L2.1 23.3 2.3 23.75 2.4 23.9 2.45 23.95 2.55 24.1 2.7 24.3 2.7 24.4 2.75 24.4 2.9 24.5 2.9 24.65 3.15 25.3 3.2 25.55 3.3 26.0 3.35 26.3 3.4 26.5 3.4 26.55 3.45 26.85 3.45 26.95 3.55 27.1 3.7 27.25 2.6 27.25 2.6 27.2 2.5 27.1 2.45 26.9 2.4 26.85 2.35 26.75 2.3 26.65 2.2 26.2 2.0 25.7 2.0 25.15 2.0 24.45 2.0 24.4 2.0 23.1" fill="#af958e" fill-rule="evenodd" stroke="none"/>
      <path d="M25.45 15.55 L25.55 15.65 26.2 16.65 26.3 16.75 26.5 17.0 26.55 17.15 26.6 17.25 26.6 17.3 26.7 17.5 26.85 17.95 26.9 18.05 26.95 18.05 26.95 18.1 27.0 18.2 27.05 18.25 27.15 18.5 27.25 18.7 27.25 18.85 27.35 19.05 27.35 19.2 27.4 19.2 27.4 19.3 27.4 19.4 27.5 20.15 27.5 20.2 27.55 20.5 27.55 20.6 27.55 20.75 27.65 21.4 27.7 22.25 27.7 22.3 27.7 22.4 27.7 22.55 27.7 22.7 27.7 23.1 27.45 25.15 27.4 25.65 27.35 26.0 27.25 25.95 26.8 25.6 26.55 25.3 26.65 24.05 26.8 23.1 26.85 22.85 26.9 22.7 26.8 22.4 26.8 22.3 26.8 22.15 26.7 22.15 26.6 21.75 26.55 21.6 26.5 21.55 26.5 21.05 26.5 20.55 26.5 20.25 26.35 18.95 26.2 18.5 26.2 18.45 25.6 17.2 25.6 17.15 25.6 16.4 25.45 15.55 M11.3 13.7 L11.4 13.75 11.65 13.85 11.6 14.05 11.0 15.25 10.15 16.65 10.0 16.55 Q10.95 15.2 11.3 13.7 M10.05 16.75 L9.9 16.95 9.85 17.0 9.2 17.8 9.15 17.9 8.5 18.75 8.15 19.1 8.05 19.25 7.95 19.35 7.6 19.5 6.75 19.8 6.05 20.1 5.85 20.15 5.85 20.2 5.7 20.25 5.65 20.25 5.55 20.25 5.5 20.3 5.05 20.4 5.0 20.45 4.7 20.6 4.4 20.7 4.3 20.7 4.3 20.75 4.15 20.8 3.5 21.0 2.95 21.15 2.7 21.25 2.3 21.4 2.1 21.45 2.0 21.5 2.0 20.85 2.2 20.8 2.65 20.7 2.7 20.65 4.05 20.3 4.3 20.3 4.3 20.25 4.5 20.25 4.95 20.1 5.05 20.05 5.1 20.05 5.4 19.9 5.7 19.8 5.8 19.7 6.3 19.55 7.45 18.9 7.5 18.9 8.25 18.35 8.3 18.3 9.05 17.65 9.75 16.9 9.75 16.85 9.95 16.7 10.05 16.75" fill="#dbc4c0" fill-rule="evenodd" stroke="none"/>
      <path d="M7.3 20.6 L7.35 20.6 7.35 20.55 7.55 20.45 7.7 20.35 7.75 20.3 8.2 20.15 8.4 19.95 8.75 19.7 8.9 19.6 9.05 19.55 9.15 19.5 9.7 19.05 10.35 18.55 10.55 18.75 9.1 19.85 9.05 19.9 8.65 20.2 7.8 20.55 6.9 20.9 6.85 20.85 7.15 20.7 7.3 20.6 M10.65 18.25 L11.25 17.5 11.8 16.5 12.15 15.55 12.5 14.2 12.55 14.05 12.55 13.85 13.15 13.6 13.35 13.5 13.65 13.35 13.85 13.45 13.9 13.45 13.6 14.2 12.05 16.9 11.5 17.65 10.8 18.4 10.65 18.25" fill="#fffff0" fill-rule="evenodd" stroke="none"/>
      <path d="M14.1 13.3 L14.1 13.35 14.1 13.45 13.9 13.45 13.85 13.45 13.65 13.35 14.0 13.05 14.1 12.95 14.1 13.3 M10.35 18.55 L10.65 18.25 10.8 18.4 10.55 18.75 10.35 18.55 M5.45 13.15 L5.7 12.95 5.8 13.25 5.4 13.6 4.95 14.05 4.3 14.9 4.15 15.2 3.85 15.65 3.45 16.4 3.0 17.55 2.95 17.7 2.7 18.95 2.7 19.2 2.65 19.85 2.65 20.45 2.65 20.5 2.65 20.7 2.2 20.8 2.25 20.1 2.25 19.85 2.35 19.1 2.35 18.95 2.4 18.15 2.6 17.3 2.95 16.35 2.95 16.3 3.45 15.45 4.05 14.3 4.2 14.1 4.5 13.9 4.7 13.7 5.45 13.15 M4.5 25.8 L4.6 25.95 4.6 26.0 4.85 26.4 4.9 26.5 5.1 26.85 5.4 27.25 4.7 27.25 4.35 26.85 4.3 26.8 4.3 26.65 4.2 26.5 4.15 26.45 3.8 25.8 3.65 25.55 3.4 24.95 3.4 24.9 3.35 24.65 3.15 24.7 3.05 24.45 2.95 24.3 2.9 24.2 2.75 23.9 2.7 23.75 2.65 23.65 2.4 23.15 Q2.1 22.5 2.1 21.9 L2.1 21.6 2.7 21.65 2.7 21.8 2.8 22.55 2.8 22.6 2.9 23.05 2.9 23.15 2.95 23.35 3.1 23.7 3.2 23.85 3.4 24.2 3.4 24.25 3.6 24.45 3.6 24.55 3.65 24.7 4.0 25.1 4.1 25.3 4.25 25.5 4.25 25.55 4.5 25.8" fill="#fffce9" fill-rule="evenodd" stroke="none"/>
      <path d="M14.1 13.45 L13.95 14.15 13.95 14.2 Q13.65 15.8 12.55 17.25 L12.35 17.5 12.3 17.55 11.9 18.05 11.85 18.05 11.3 18.6 10.95 18.9 10.8 19.0 10.8 19.05 10.6 19.25 10.55 19.3 10.1 19.6 9.9 19.7 9.25 20.15 9.2 20.25 8.95 20.3 8.35 20.65 7.95 20.85 7.8 20.9 7.75 20.9 6.95 21.1 6.9 21.15 6.85 21.15 6.1 21.35 5.95 21.4 5.7 21.45 5.45 21.5 5.0 21.6 4.85 21.6 4.75 21.6 4.7 21.6 4.5 21.6 4.05 21.65 3.8 21.65 3.35 21.65 3.25 21.65 2.7 21.65 2.1 21.6 2.1 21.9 Q2.1 22.5 2.4 23.15 L2.65 23.65 2.7 23.75 2.75 23.9 2.9 24.2 2.95 24.3 3.05 24.45 3.15 24.7 3.35 24.65 3.4 24.9 3.4 24.95 3.65 25.55 3.8 25.8 4.15 26.45 4.2 26.5 4.3 26.65 4.3 26.8 4.35 26.85 4.7 27.25 3.7 27.25 3.55 27.1 3.45 26.95 3.45 26.85 3.4 26.55 3.4 26.5 3.35 26.3 3.3 26.0 3.2 25.55 3.15 25.3 2.9 24.65 2.9 24.5 2.75 24.4 2.7 24.4 2.7 24.3 2.55 24.1 2.45 23.95 2.4 23.9 2.3 23.75 2.1 23.3 2.0 23.1 2.0 21.6 2.1 21.6 2.1 21.45 2.3 21.4 2.7 21.25 3.1 21.3 3.35 21.3 3.8 21.3 4.05 21.25 4.1 21.25 4.7 21.25 4.75 21.25 5.55 21.15 5.65 21.1 6.05 21.0 7.3 20.6 7.15 20.7 6.85 20.85 6.9 20.9 7.8 20.55 8.65 20.2 9.05 19.9 9.1 19.85 10.55 18.75 10.8 18.4 11.5 17.65 12.05 16.9 13.6 14.2 13.9 13.45 14.1 13.45 M4.05 14.3 L3.45 15.45 2.95 16.3 2.95 16.35 2.6 17.3 2.4 18.15 2.35 18.95 2.35 19.1 2.25 19.85 2.25 20.1 2.2 20.8 2.0 20.85 2.0 19.7 2.05 19.35 2.1 18.9 2.1 18.85 2.2 18.15 2.25 17.6 2.3 17.3 2.45 16.75 2.6 16.2 2.6 16.1 3.2 15.3 4.05 14.3" fill="#e9deaa" fill-rule="evenodd" stroke="none"/>
      <path d="M24.7 13.15 L25.3 14.8 25.45 15.55 25.6 16.4 25.6 17.15 25.6 17.2 25.6 17.8 25.6 17.95 25.6 18.15 Q25.4 18.15 25.3 18.35 L25.15 18.65 25.05 18.9 25.0 18.95 24.95 18.25 24.95 18.1 24.95 18.05 24.9 17.6 24.85 17.35 24.85 17.3 24.8 16.9 24.75 16.6 24.7 16.2 24.65 16.1 24.45 15.25 24.3 14.85 24.25 14.8 23.95 14.05 23.95 14.0 24.0 13.95 24.15 13.7 24.35 13.45 24.7 13.15 M22.65 16.8 L22.65 16.85 22.45 17.45 22.55 17.95 22.65 18.1 22.75 18.2 23.05 18.35 23.2 18.35 23.25 18.35 23.6 18.25 Q23.4 18.35 23.35 18.4 L23.25 18.45 23.05 18.45 22.5 18.3 22.35 18.15 22.25 17.7 22.3 17.45 22.35 17.2 22.65 16.8 M22.75 17.4 L22.65 17.35 22.75 17.2 22.75 17.35 22.75 17.4 M17.55 17.35 L18.4 18.05 18.7 18.4 18.8 18.6 18.95 18.85 19.3 20.3 19.3 20.45 19.25 20.95 19.2 21.4 19.05 21.7 18.8 21.6 18.5 21.5 18.35 21.45 18.1 21.3 17.3 20.85 17.25 20.85 17.1 20.7 16.95 20.55 16.9 20.65 16.65 20.9 16.9 20.6 16.9 20.55 16.3 20.1 16.2 19.95 16.0 19.75 15.6 19.45 15.5 19.3 15.3 19.1 15.3 19.05 15.15 18.9 14.8 18.5 14.7 18.3 14.65 18.25 14.85 18.15 16.25 17.55 17.45 17.25 17.55 17.35 M17.8 18.6 L17.55 18.4 17.0 18.2 16.95 18.2 16.9 18.15 16.45 18.05 16.25 18.15 16.05 18.25 15.7 18.65 15.75 18.75 16.45 19.6 17.55 20.45 18.55 21.05 18.8 20.3 18.8 20.05 18.6 19.2 18.55 19.0 18.15 18.45 Q17.95 18.5 17.8 18.6 M11.65 20.2 L11.9 20.8 Q11.65 21.3 11.65 22.1 L11.75 23.45 12.35 24.1 12.25 24.05 10.75 23.2 10.25 22.05 10.4 21.65 10.7 21.1 11.65 20.2" fill="#af9eb1" fill-rule="evenodd" stroke="none"/>
      <path d="M24.15 13.7 L24.2 13.45 24.35 13.45 24.15 13.7" fill="#8fc0ce" fill-rule="evenodd" stroke="none"/>
      <path d="M23.3 14.6 L23.4 14.5 23.95 14.0 23.95 14.05 24.25 14.8 24.3 14.85 24.45 15.25 24.65 16.1 24.7 16.2 24.75 16.6 24.8 16.9 24.85 17.3 24.85 17.35 24.9 17.6 24.95 18.05 24.95 18.1 24.95 18.25 25.0 18.95 24.7 19.75 24.5 20.5 24.3 21.15 24.25 21.75 24.25 21.9 24.25 21.95 24.25 22.05 24.3 22.9 24.35 23.05 24.35 23.45 24.05 23.7 23.35 24.2 23.25 24.3 22.75 24.55 22.65 24.6 21.9 25.1 21.85 25.15 21.7 25.2 21.65 25.25 21.4 25.35 21.3 25.2 21.0 25.3 20.6 25.45 20.5 25.45 20.4 25.5 19.8 25.35 20.65 24.9 20.7 24.9 22.5 23.7 22.75 23.4 23.05 23.1 23.2 23.15 23.35 23.25 Q23.8 23.25 23.85 22.75 L23.5 22.3 23.3 22.3 23.3 22.1 23.45 21.35 23.6 20.9 23.7 20.6 23.9 20.05 23.9 19.95 24.05 19.7 24.6 18.55 24.85 18.15 24.7 17.75 24.3 17.0 24.25 16.85 24.1 16.75 23.95 16.6 23.85 16.5 23.9 16.5 23.9 16.45 23.7 16.35 23.65 16.3 23.25 16.2 23.2 16.25 23.2 16.2 23.0 16.15 22.95 16.15 22.05 15.6 21.95 15.5 22.95 14.85 23.15 14.75 Q23.2 14.65 23.3 14.65 L23.3 14.6" fill="#ecf3ff" fill-rule="evenodd" stroke="none"/>
      <path d="M16.45 16.15 L16.4 16.15 16.45 16.1 16.45 16.15 M4.3 13.55 L4.2 12.9 4.2 12.85 4.1 12.8 4.2 12.7 4.35 12.45 5.5 10.95 4.75 12.45 4.3 13.55 M17.65 17.2 L17.55 17.35 17.45 17.25 17.65 17.2 M14.0 18.55 L13.8 18.95 13.8 19.0 13.8 19.2 13.75 19.55 13.8 20.3 13.85 20.45 13.95 20.85 14.2 21.35 14.55 21.8 14.6 21.9 14.7 22.0 14.6 22.5 13.9 22.05 13.7 21.85 13.4 21.4 Q12.85 20.6 12.75 19.5 L12.75 19.35 14.0 18.55" fill="#726174" fill-rule="evenodd" stroke="none"/>
      <path d="M7.75 12.15 L6.8 12.6 6.65 12.4 6.7 12.4 Q7.15 12.1 7.65 11.95 L7.75 12.15 M18.1 22.4 L18.3 23.55 18.3 23.65 18.35 23.9 18.45 24.1 18.65 24.9 18.6 24.95 18.75 25.05 19.2 25.15 19.8 25.35 19.7 25.4 19.35 25.55 18.55 25.6 18.35 25.6 17.25 25.55 15.65 25.25 14.65 25.1 14.1 24.9 13.8 24.8 12.6 24.25 12.35 24.1 11.75 23.45 11.65 22.1 Q11.65 21.3 11.9 20.8 L11.65 20.2 11.95 19.95 12.75 19.35 12.75 19.5 Q12.85 20.6 13.4 21.4 L13.7 21.85 13.9 22.05 14.6 22.5 16.15 22.85 16.2 22.85 16.55 22.9 17.55 22.75 17.8 22.65 17.85 22.55 18.05 22.45 18.1 22.4" fill="#c1b5cc" fill-rule="evenodd" stroke="none"/>
      <path d="M6.8 12.6 Q6.4 12.8 6.05 13.1 L5.8 13.25 5.7 12.95 6.05 12.75 6.15 12.7 6.65 12.4 6.8 12.6" fill="#aae887" fill-rule="evenodd" stroke="none"/>
      <path d="M3.2 23.85 L4.2 22.55 4.3 22.3 4.35 22.3 4.8 21.8 4.55 22.4 4.45 22.7 3.7 24.4 3.6 24.55 3.6 24.45 3.4 24.25 3.4 24.2 3.2 23.85 M2.0 25.15 L2.0 25.7 2.2 26.2 1.7 26.4 1.65 26.4 1.65 25.35 2.0 25.15 M19.9 27.65 L17.8 27.65 17.85 27.45 17.9 27.25 18.35 26.1 18.4 26.05 18.8 26.0 19.2 26.0 19.85 25.85 19.9 25.85 20.1 25.85 20.15 25.85 20.55 25.8 20.1 27.05 20.0 27.25 19.9 27.5 19.9 27.65 M20.0 27.25 L17.9 27.25 20.0 27.25" fill="#d0a693" fill-rule="evenodd" stroke="none"/>
      <path d="M2.0 21.6 L2.0 21.5 2.1 21.45 2.1 21.6 2.0 21.6 M18.35 16.9 L18.5 17.1 18.9 17.7 Q19.45 18.75 19.45 20.05 L19.4 20.8 19.4 20.85 19.75 21.0 19.9 21.0 20.4 21.15 20.45 21.3 20.2 21.85 20.15 21.95 20.1 21.95 19.9 21.95 19.7 21.95 19.4 21.95 19.2 21.95 18.9 22.0 18.8 22.1 18.65 22.25 18.1 22.4 18.55 21.95 18.8 21.6 19.05 21.7 19.2 21.4 19.25 20.95 19.3 20.45 19.3 20.3 18.95 18.85 18.8 18.6 18.7 18.4 18.4 18.05 17.55 17.35 17.65 17.2 17.7 17.15 18.35 16.9 M19.9 21.95 L19.05 21.7 19.9 21.95 M14.7 22.0 L14.75 22.05 15.5 22.55 15.9 22.75 16.2 22.85 16.15 22.85 14.6 22.5 14.7 22.0" fill="#917f95" fill-rule="evenodd" stroke="none"/>
      <path d="M25.6 17.95 L25.6 17.8 25.6 17.2 26.2 18.45 26.2 18.5 26.35 18.95 26.5 20.25 26.5 20.55 26.5 21.05 26.5 21.55 26.55 21.6 26.6 21.75 26.7 22.15 26.8 22.15 26.8 22.3 26.8 22.4 26.9 22.7 26.85 22.85 26.8 23.1 26.65 24.05 26.55 25.3 26.1 24.7 25.95 24.4 25.95 24.35 25.9 24.05 26.0 23.7 26.0 23.55 26.1 22.8 26.1 22.65 26.15 22.4 26.2 22.15 26.25 21.05 26.2 20.65 26.0 20.85 26.1 20.2 25.9 18.6 25.6 17.95" fill="#a39c99" fill-rule="evenodd" stroke="none"/>
      <path d="M23.65 16.65 L23.5 16.65 23.35 16.6 23.3 16.65 23.2 16.7 23.1 16.7 23.05 16.75 23.0 16.75 22.95 16.85 22.85 16.95 22.75 17.2 22.65 17.35 22.75 17.4 22.8 17.6 22.95 17.85 23.05 18.0 23.1 18.0 23.2 18.1 23.35 18.15 23.65 18.2 23.65 18.25 23.6 18.25 23.25 18.35 23.2 18.35 23.05 18.35 22.75 18.2 22.65 18.1 22.55 17.95 22.45 17.45 22.65 16.85 22.65 16.8 Q22.8 16.65 23.0 16.6 L23.05 16.55 23.2 16.55 23.5 16.6 23.65 16.65" fill="#bc9a5a" fill-rule="evenodd" stroke="none"/>
      <path d="M23.3 22.3 L23.5 22.3 23.85 22.75 Q23.8 23.25 23.35 23.25 L23.2 23.15 23.05 23.1 22.95 22.85 Q22.95 22.6 23.1 22.4 L23.2 22.3 23.3 22.3" fill="#fefff6" fill-rule="evenodd" stroke="none"/>
      <path d="M21.4 25.35 L21.65 25.25 21.7 25.2 21.85 25.15 21.9 25.1 22.65 24.6 22.75 24.55 23.25 24.3 23.35 24.2 24.05 23.7 24.15 24.3 Q24.7 25.4 25.8 26.5 L26.65 27.25 26.65 27.3 26.95 27.65 26.15 27.65 25.75 27.25 24.65 26.05 25.0 27.25 25.15 27.65 23.55 27.65 23.45 27.25 22.75 25.35 23.0 27.25 23.05 27.65 19.9 27.65 19.9 27.5 20.0 27.25 20.1 27.05 20.55 25.8 21.15 25.45 21.4 25.35 M26.65 27.25 L25.75 27.25 26.65 27.25 M25.0 27.25 L23.45 27.25 25.0 27.25 M23.0 27.25 L20.0 27.25 23.0 27.25" fill="#af8f6c" fill-rule="evenodd" stroke="none"/>
      <path d="M20.4 25.5 L20.5 25.45 20.6 25.45 21.0 25.3 21.3 25.2 21.4 25.35 21.15 25.45 20.75 25.5 20.6 25.5 20.4 25.5" fill="#d5ffff" fill-rule="evenodd" stroke="none"/>
      <path d="M19.35 25.55 L20.4 25.5 20.6 25.5 20.75 25.5 21.15 25.45 20.55 25.8 20.15 25.85 20.1 25.85 19.9 25.85 19.85 25.85 19.2 26.0 18.8 26.0 18.4 26.05 18.35 26.1 18.1 26.1 17.8 26.15 17.8 26.05 17.55 26.15 17.1 26.1 16.6 26.1 16.25 26.05 15.8 25.95 15.5 25.9 15.4 25.9 14.05 25.6 13.7 25.3 13.6 25.25 13.65 25.3 13.7 25.45 13.3 25.3 13.15 25.25 12.05 24.75 11.95 24.65 11.55 24.45 11.3 24.15 11.3 24.1 10.75 23.2 12.25 24.05 12.35 24.1 12.6 24.25 13.8 24.8 14.1 24.9 14.65 25.1 15.65 25.25 17.25 25.55 18.35 25.6 18.55 25.6 19.35 25.55" fill="#d3cfbb" fill-rule="evenodd" stroke="none"/>
      <path d="M26.0 20.85 L26.2 20.65 26.25 21.05 26.2 22.15 26.15 22.4 26.1 22.65 26.1 22.8 26.0 23.55 26.0 23.7 25.9 24.05 25.95 24.35 25.8 24.15 25.95 24.35 25.9 24.35 25.85 24.3 25.8 24.15 25.75 24.1 25.45 23.35 25.5 22.9 26.0 20.85" fill="#e5d7c3" fill-rule="evenodd" stroke="none"/>
      <path d="M14.8 18.5 L15.15 18.9 15.3 19.05 15.3 19.1 15.5 19.3 15.6 19.45 16.0 19.75 15.9 19.85 15.8 19.95 15.55 20.15 15.35 20.25 15.15 20.25 15.1 20.25 15.1 20.15 15.0 19.8 14.95 19.75 Q14.8 19.6 14.6 19.6 L14.5 19.6 14.55 19.4 14.55 19.25 14.65 18.8 14.8 18.5 M16.9 20.55 L16.9 20.6 16.6 20.85 16.35 21.0 16.2 21.1 16.1 21.2 16.2 21.5 16.25 21.55 16.4 21.75 16.5 21.9 16.45 21.9 16.3 21.9 16.25 21.9 16.15 21.9 15.35 21.7 15.3 21.65 15.1 21.5 14.85 21.2 14.85 21.15 14.75 20.9 14.6 20.55 14.6 20.45 14.6 20.4 14.55 20.35 14.55 20.3 14.7 20.35 14.75 20.4 15.1 20.65 15.35 20.75 15.8 20.9 16.0 20.9 16.1 20.9 16.45 20.75 16.5 20.75 16.75 20.6 16.9 20.55" fill="#1a5160" fill-rule="evenodd" stroke="none"/>
      <path d="M16.0 19.75 L16.2 19.95 16.3 20.1 15.85 20.3 15.7 20.45 15.4 20.45 15.45 20.5 15.75 20.7 15.85 20.75 16.0 20.75 16.15 20.75 16.45 20.7 16.7 20.6 16.75 20.6 16.5 20.75 16.45 20.75 16.1 20.9 16.0 20.9 15.8 20.9 15.35 20.75 15.1 20.65 14.75 20.4 14.7 20.35 14.55 20.3 14.35 20.2 14.25 19.85 14.4 19.65 14.5 19.6 14.6 19.6 Q14.8 19.6 14.95 19.75 L15.0 19.8 15.1 20.15 15.1 20.25 15.15 20.25 15.35 20.25 15.55 20.15 15.8 19.95 15.9 19.85 16.0 19.75 M16.4 21.75 L16.25 21.55 16.2 21.5 16.1 21.2 16.2 21.1 16.4 21.25 16.35 21.25 16.35 21.45 16.4 21.75" fill="#46ffee" fill-rule="evenodd" stroke="none"/>
      <path d="M16.3 20.1 L16.9 20.55 16.75 20.6 16.7 20.6 16.45 20.7 16.15 20.75 16.0 20.75 15.85 20.75 15.75 20.7 15.45 20.5 15.4 20.45 15.7 20.45 15.85 20.3 16.3 20.1" fill="#1abf7e" fill-rule="evenodd" stroke="none"/>
      <path d="M16.65 20.9 L16.9 20.65 16.95 20.55 17.1 20.7 17.25 20.85 17.3 20.85 18.1 21.3 18.35 21.45 18.5 21.5 18.35 21.6 18.15 21.75 17.65 22.1 17.35 22.2 17.0 22.3 16.9 22.3 16.7 22.3 16.65 22.3 16.5 22.3 16.4 22.3 15.95 22.3 15.8 22.3 15.5 22.2 15.05 21.9 15.0 21.9 14.85 21.7 14.8 21.6 14.75 21.6 14.65 21.4 14.5 21.05 14.35 20.7 14.25 20.25 14.2 19.7 14.25 19.35 14.4 18.75 14.65 18.25 14.7 18.3 14.8 18.5 14.65 18.8 14.55 19.25 14.55 19.4 14.5 19.6 14.4 19.65 14.25 19.85 14.35 20.2 14.55 20.3 14.55 20.35 14.6 20.4 14.6 20.45 14.6 20.55 14.75 20.9 14.85 21.15 14.85 21.2 15.1 21.5 15.3 21.65 15.35 21.7 16.15 21.9 16.25 21.9 16.3 21.9 16.45 21.9 16.5 21.9 16.4 21.75 16.35 21.45 16.35 21.25 16.4 21.25 16.65 20.9" fill="#358e62" fill-rule="evenodd" stroke="none"/>
      <path d="M18.1 18.8 L18.3 18.85 18.4 18.95 18.5 19.3 18.5 19.55 18.15 19.65 18.1 19.65 17.75 19.4 17.75 19.1 17.95 18.75 18.1 18.8" fill="#fffdfb" fill-rule="evenodd" stroke="none"/>
      <path d="M19.4 20.8 L19.75 21.0 19.4 20.85 19.4 20.8 M17.8 18.6 Q17.95 18.5 18.15 18.45 L18.55 19.0 18.6 19.2 18.8 20.05 18.8 20.3 18.25 20.15 17.9 19.85 17.5 20.15 17.6 19.8 17.7 19.6 17.2 18.95 17.5 18.75 17.8 18.6 M18.1 18.8 L17.95 18.75 17.75 19.1 17.75 19.4 18.1 19.65 18.15 19.65 18.5 19.55 18.5 19.3 18.4 18.95 18.3 18.85 18.1 18.8" fill="#e0f3ff" fill-rule="evenodd" stroke="none"/>
      <path d="M18.5 21.5 L18.8 21.6 18.55 21.95 18.1 22.4 18.05 22.45 17.85 22.55 17.8 22.65 17.55 22.75 16.55 22.9 16.2 22.85 15.9 22.75 15.5 22.55 14.75 22.05 14.7 22.0 14.6 21.9 14.55 21.8 14.2 21.35 13.95 20.85 13.85 20.45 13.8 20.3 13.75 19.55 13.8 19.2 13.8 19.0 13.8 18.95 14.0 18.55 Q14.3 18.35 14.65 18.25 L14.4 18.75 14.25 19.35 14.2 19.7 14.25 20.25 14.35 20.7 14.5 21.05 14.65 21.4 14.75 21.6 14.8 21.6 14.85 21.7 15.0 21.9 15.05 21.9 15.5 22.2 15.8 22.3 15.95 22.3 16.4 22.3 16.5 22.3 16.65 22.3 16.7 22.3 16.9 22.3 17.0 22.3 17.35 22.2 17.65 22.1 18.15 21.75 18.35 21.6 18.5 21.5" fill="#23593d" fill-rule="evenodd" stroke="none"/>
      <path d="M11.3 24.15 L11.55 24.45 12.0 25.05 12.0 25.1 11.85 25.1 11.8 25.1 11.8 25.05 11.8 25.0 11.45 24.4 11.3 24.15 M11.85 25.1 L11.8 25.05 11.85 25.1" fill="#c0d6eb" fill-rule="evenodd" stroke="none"/>
      <path d="M17.8 27.65 L16.65 27.65 16.7 27.45 16.7 27.35 16.75 27.25 17.9 27.25 16.75 27.25 16.75 27.2 17.1 26.1 17.55 26.15 17.8 26.15 18.1 26.1 18.35 26.1 17.9 27.25 17.85 27.45 17.8 27.65 M12.25 27.25 L12.1 27.25 12.1 27.2 12.1 26.6 12.05 26.15 12.05 26.1 12.05 25.65 12.05 25.6 12.05 25.5 11.85 25.1 12.0 25.1 12.05 25.2 12.05 25.3 12.1 25.55 12.15 25.65 12.15 25.8 12.2 26.05 12.25 26.6 12.25 26.65 12.25 26.95 12.25 27.25" fill="#96c8df" fill-rule="evenodd" stroke="none"/>
      <path d="M16.9 20.6 L16.65 20.9 16.4 21.25 16.2 21.1 16.35 21.0 16.6 20.85 16.9 20.6" fill="#1af3d4" fill-rule="evenodd" stroke="none"/>
      <path d="M16.2 5.05 L15.05 5.0 14.95 5.0 14.45 5.0 12.45 5.15 11.9 5.3 10.4 5.95 9.85 6.3 9.65 6.4 9.65 6.45 Q7.75 7.65 6.65 9.45 L6.65 9.5 6.6 9.5 6.65 9.45 M20.8 5.85 L21.55 6.1 22.15 6.55 23.5 7.7 23.7 7.9 24.3 8.6 25.1 9.9 25.15 10.05 25.15 10.1 25.15 10.55 25.2 11.8 25.2 12.15 25.2 12.55 24.7 13.05 24.7 13.15 25.3 14.8 25.45 15.55 25.55 15.65 26.2 16.65 26.3 16.75 26.5 17.0 26.55 17.15 26.6 17.25 26.7 17.5 26.85 17.95 26.9 17.95 26.9 18.05 26.95 18.05 26.95 18.1 27.0 18.2 27.05 18.25 27.15 18.5 27.25 18.7 27.25 18.85 27.35 19.05 27.35 19.2 27.4 19.2 27.4 19.3 27.4 19.4 27.5 20.15 27.5 20.2 27.55 20.5 27.55 20.6 27.55 20.75 27.65 21.4 27.7 22.25 27.7 22.3 27.75 22.4 27.7 23.1 27.45 25.15 27.4 25.65 27.35 26.0 27.45 26.1 27.5 26.15 M27.5 27.25 L27.9 27.25 M23.3 14.6 L23.4 14.5 23.95 14.0 24.0 13.95 24.15 13.7 24.35 13.45 24.7 13.15 M20.8 5.85 L19.75 5.55 18.9 5.4 M18.85 5.4 L18.6 5.35 17.85 5.2 16.2 5.05 M9.4 9.9 L9.45 9.55 9.45 9.5 9.45 9.4 9.55 9.15 9.6 9.1 9.95 8.5 10.0 8.45 10.85 7.9 10.95 7.9 11.5 7.8 12.0 7.85 12.7 8.05 12.85 8.2 12.9 8.25 12.95 8.3 13.2 8.7 13.25 8.8 13.25 8.95 13.25 9.0 13.3 9.15 13.35 9.15 13.8 9.2 14.2 9.35 14.4 9.5 14.5 9.6 14.65 9.75 14.95 9.05 15.1 8.9 15.2 8.9 15.25 8.85 15.35 8.85 15.4 8.85 15.45 8.8 15.85 8.7 Q16.25 8.7 16.45 8.95 L16.55 9.0 Q16.75 9.05 16.9 9.25 L16.9 9.35 17.2 10.2 17.2 10.5 17.2 10.55 17.2 10.8 17.2 10.85 17.15 11.2 17.05 11.35 16.9 11.55 16.25 12.05 15.7 12.1 15.65 12.1 15.25 12.05 15.15 12.0 15.1 12.0 15.05 11.9 14.95 11.85 15.0 11.75 15.1 11.55 15.15 11.35 15.25 11.0 15.25 10.85 15.25 10.75 15.25 10.65 15.25 10.6 15.15 10.4 15.1 10.25 14.95 10.0 14.8 9.85 14.75 9.8 15.1 9.0 15.2 8.9 M14.1 13.3 L14.1 13.35 14.1 13.45 13.95 14.15 13.95 14.2 Q13.65 15.8 12.55 17.25 L12.35 17.5 12.3 17.55 11.9 18.05 11.85 18.05 11.3 18.6 10.95 18.9 10.8 19.0 10.8 19.05 10.6 19.25 10.55 19.3 10.1 19.6 9.9 19.7 9.25 20.15 9.2 20.25 8.95 20.3 8.35 20.65 7.95 20.85 7.8 20.9 7.75 20.9 6.95 21.1 6.9 21.15 6.85 21.15 6.1 21.35 5.95 21.4 5.7 21.45 5.45 21.5 5.0 21.6 4.85 21.6 4.75 21.6 4.7 21.6 4.5 21.6 4.05 21.65 3.8 21.65 3.7 21.8 3.3 22.55 2.9 23.15 2.95 23.35 3.1 23.7 3.2 23.85 3.4 24.2 3.4 24.25 3.6 24.45 3.6 24.55 3.65 24.7 4.0 25.1 4.1 25.3 4.25 25.5 4.25 25.55 4.5 25.8 4.6 25.95 4.6 26.0 4.85 26.4 4.9 26.5 5.1 26.85 5.4 27.25 11.2 27.25 11.4 27.25 12.1 27.25 12.25 27.25 16.75 27.25 16.75 27.2 17.1 26.1 17.55 26.15 17.8 26.15 18.1 26.1 18.35 26.1 18.4 26.05 18.8 26.0 19.2 26.0 19.85 25.85 19.9 25.85 20.1 25.85 20.15 25.85 20.55 25.8 21.15 25.45 21.4 25.35 21.65 25.25 21.7 25.2 21.85 25.15 21.9 25.1 22.65 24.6 22.75 24.55 23.25 24.3 23.35 24.2 24.05 23.7 24.35 23.45 24.35 23.05 24.3 22.9 24.25 22.05 24.25 21.95 24.25 21.9 24.25 21.75 24.3 21.15 24.5 20.5 24.7 19.75 25.0 18.95 25.05 18.9 25.15 18.65 25.3 18.35 Q25.4 18.15 25.6 18.15 L25.6 17.95 25.6 17.8 25.6 17.2 25.6 17.15 25.6 16.4 25.45 15.55 M11.45 10.45 L11.5 10.35 11.55 10.3 11.65 10.05 11.65 10.0 11.7 9.95 11.7 9.9 11.75 9.85 11.8 9.8 11.8 9.75 11.85 9.75 12.0 9.6 12.05 9.55 12.55 9.3 13.15 9.15 13.3 9.15 M14.65 9.75 L14.75 9.8 M14.55 12.4 L14.75 12.15 14.9 11.95 14.95 11.85 M10.85 7.9 L10.15 8.4 10.1 8.45 9.7 9.05 9.65 9.1 9.6 9.35 9.6 9.45 9.6 9.5 9.55 9.85 9.7 10.5 10.15 10.9 10.55 11.15 10.7 11.15 10.85 11.2 11.25 11.25 11.3 11.25 11.4 11.25 11.4 11.0 11.4 10.95 11.45 10.5 11.45 10.45 M7.65 11.95 L8.9 11.55 10.1 11.35 10.2 11.35 10.3 11.35 10.45 11.4 10.65 11.45 10.95 11.6 M10.7 11.25 L10.6 11.2 10.4 11.15 10.0 10.95 9.6 10.55 9.4 9.9 M13.8 12.85 L13.35 12.9 12.85 12.8 12.7 12.75 12.35 12.6 12.25 12.5 12.1 12.4 Q11.6 12.0 11.45 11.35 L11.4 11.25 M11.3 11.3 L11.3 11.25 M14.1 12.75 L13.8 12.85 13.2 12.95 12.7 12.85 12.55 12.75 12.25 12.65 12.1 12.55 12.0 12.45 Q11.45 12.05 11.3 11.4 L11.3 11.3 11.1 11.3 11.3 11.6 11.35 12.0 11.35 12.35 11.3 13.35 11.3 13.5 11.3 13.7 Q10.95 15.2 10.0 16.55 L9.95 16.7 9.75 16.85 9.75 16.9 9.05 17.65 8.3 18.3 8.25 18.35 7.5 18.9 7.45 18.9 6.3 19.55 5.8 19.7 5.7 19.8 5.4 19.9 5.1 20.05 5.05 20.05 4.95 20.1 4.5 20.25 4.3 20.25 4.3 20.3 4.05 20.3 2.7 20.65 2.65 20.7 2.65 20.5 2.65 20.45 2.65 19.85 2.7 19.2 2.7 18.95 2.95 17.7 3.0 17.55 3.45 16.4 3.85 15.65 4.15 15.2 4.3 14.9 4.95 14.05 5.4 13.6 5.8 13.25 6.05 13.1 Q6.4 12.8 6.8 12.6 L7.75 12.15 8.45 12.0 8.9 11.9 8.95 11.9 9.9 11.85 10.15 11.85 10.25 11.85 10.6 11.85 10.8 11.9 11.35 12.0 M14.1 12.95 L14.1 12.85 14.1 12.75 14.15 12.7 14.2 12.65 14.3 12.65 14.3 12.6 14.55 12.4 M10.7 11.25 L11.1 11.3 M14.1 13.3 L14.1 12.95 M15.0 11.75 L15.1 11.85 15.25 11.95 15.3 11.95 15.4 12.05 15.75 12.05 15.8 12.05 16.25 12.05 M5.45 13.15 L5.7 12.95 6.05 12.75 6.15 12.7 6.65 12.4 6.7 12.4 Q7.15 12.1 7.65 11.95 M5.5 10.95 L6.6 9.5 M4.2 14.1 L4.05 14.3 3.2 15.3 2.6 16.1 2.3 16.6 2.0 17.3 M2.2 20.8 L2.65 20.7 M5.45 13.15 L4.7 13.7 4.5 13.9 4.2 14.1 4.25 13.8 4.3 13.55 4.75 12.45 5.5 10.95 M4.5 20.25 L4.7 19.65 4.55 18.35 4.5 18.1 4.4 17.4 4.35 16.9 4.2 15.65 4.15 15.2 M2.0 20.85 L2.2 20.8 M3.8 21.65 L3.35 21.65 3.25 21.65 2.7 21.65 2.7 21.8 2.8 22.55 2.8 22.6 2.9 23.05 2.9 23.15 M4.7 27.25 L5.4 27.25 M3.7 27.25 L4.7 27.25 M2.1 21.6 L2.7 21.65 M2.0 21.6 L2.1 21.6 M2.0 25.7 L2.2 26.2 2.3 26.65 2.35 26.75 2.4 26.85 2.45 26.9 2.5 27.1 2.6 27.2 2.6 27.25 3.7 27.25 M2.0 24.45 L1.8 24.7 1.65 24.8 M2.4 26.85 L2.4 26.9 2.5 27.1 M26.7 17.5 L26.6 17.3 26.6 17.25 M26.9 18.05 L26.85 17.95 M26.55 25.3 L26.8 25.6 27.25 25.95 27.35 26.0 M26.0 20.85 L26.1 20.2 25.9 18.6 25.6 17.95 M25.45 23.35 L25.25 22.4 25.2 22.2 Q24.9 21.0 24.9 19.95 L25.05 18.9 M22.95 14.85 L23.15 14.75 Q23.2 14.65 23.3 14.65 L23.3 14.6 M22.95 14.85 L21.95 15.5 20.35 16.3 19.95 16.45 18.5 16.85 18.35 16.9 17.7 17.15 17.65 17.2 17.45 17.25 17.55 17.35 18.4 18.05 18.7 18.4 18.8 18.6 18.95 18.85 19.3 20.3 19.3 20.45 19.25 20.95 19.2 21.4 19.05 21.7 19.9 21.95 20.1 21.95 M27.4 27.25 L27.5 27.25 M16.7 27.35 L16.75 27.25 17.9 27.25 20.0 27.25 23.0 27.25 23.45 27.25 25.0 27.25 25.75 27.25 26.65 27.25 27.4 27.25 M27.7 23.1 L27.7 22.7 27.7 22.55 27.7 22.4 27.7 22.3 M26.0 20.85 L25.5 22.9 25.45 23.35 25.75 24.1 25.8 24.15 25.95 24.35 25.9 24.35 25.85 24.3 25.8 24.15 M25.95 24.4 L26.1 24.7 26.55 25.3 M14.8 18.5 L15.15 18.9 15.3 19.05 15.3 19.1 15.5 19.3 15.6 19.45 16.0 19.75 16.2 19.95 16.3 20.1 16.9 20.55 M16.95 20.55 L17.1 20.7 17.25 20.85 17.3 20.85 18.1 21.3 18.35 21.45 18.5 21.5 18.8 21.6 19.05 21.7 M17.45 17.25 L16.25 17.55 14.85 18.15 14.65 18.25 14.7 18.3 14.8 18.5 M12.75 19.35 L11.95 19.95 11.65 20.2 10.7 21.1 10.4 21.65 10.25 22.05 10.75 23.2 11.3 24.1 11.3 24.15 11.45 24.4 11.8 25.0 11.8 25.05 11.85 25.1 12.05 25.5 12.05 25.6 12.05 25.65 12.05 26.1 12.05 26.15 12.1 26.6 12.1 27.2 12.1 27.25 M14.0 18.55 L13.8 18.95 M13.8 19.0 L13.8 19.2 13.75 19.55 13.8 20.3 13.85 20.45 13.95 20.85 14.2 21.35 14.55 21.8 14.6 21.9 14.7 22.0 14.75 22.05 15.5 22.55 15.9 22.75 16.2 22.85 16.55 22.9 17.55 22.75 17.8 22.65 17.85 22.55 18.05 22.45 18.1 22.4 18.55 21.95 18.8 21.6 M14.65 18.25 Q14.3 18.35 14.0 18.55 L12.75 19.35 M11.55 24.45 L11.95 24.65 12.05 24.75 13.15 25.25 13.3 25.3 13.7 25.45 14.05 25.6 15.4 25.9 15.5 25.9 15.8 25.95 16.25 26.05 16.6 26.1 17.1 26.1" fill="none" stroke="#ffffff" stroke-linecap="round" stroke-linejoin="round" stroke-width="3.0"/>
      <path d="M14.85 5.1 L14.9 5.1 15.05 5.1 15.5 5.1 15.9 5.1 16.15 5.15 16.15 5.35 18.55 5.4 18.75 5.45 18.3 5.5 16.9 5.75 15.9 5.8 15.6 5.85 15.55 5.85 14.2 6.1 13.8 6.15 12.55 5.85 12.05 5.85 11.25 6.0 10.1 6.25 10.05 6.2 11.25 5.8 11.4 5.8 13.7 5.2 13.95 5.15 14.2 5.15 14.85 5.1 M27.45 27.45 L27.45 27.65 26.9 27.65 26.55 27.35 26.55 27.3 25.7 26.55 Q24.65 25.45 24.1 24.3 L23.95 23.75 24.25 23.5 24.25 23.1 24.25 22.9 24.2 22.1 24.25 22.45 24.35 22.8 24.35 22.85 Q24.75 24.3 25.3 25.2 L25.8 25.95 25.9 26.05 26.0 26.2 26.0 26.25 26.2 26.4 26.7 26.85 26.95 27.0 27.45 27.45 M26.1 27.65 L25.05 27.65 24.6 26.1 26.1 27.65 M23.5 27.65 L22.95 27.65 22.7 25.4 23.5 27.65 M11.1 27.3 L5.3 27.3 5.05 26.9 4.85 26.5 4.8 26.4 4.5 26.05 4.5 26.0 4.45 25.9 4.5 25.75 5.85 23.8 6.6 22.8 6.6 22.75 6.75 22.6 6.95 22.3 7.95 21.1 8.3 20.7 8.9 20.35 8.85 20.7 8.85 21.25 8.9 21.85 Q8.9 22.8 9.05 23.5 L9.35 24.3 Q10.1 24.7 10.65 25.95 L11.1 27.3 M1.6 27.15 L1.6 26.4 1.65 26.4 Q1.9 26.25 2.1 26.25 L2.25 26.7 2.3 26.8 1.6 27.15 M9.6 6.5 L9.6 6.45 9.7 6.4 9.4 6.85 Q8.35 7.7 7.6 8.95 6.95 9.95 6.45 11.3 L6.05 12.75 5.95 12.75 5.6 13.0 5.4 13.15 5.55 12.45 6.25 9.95 6.6 9.55 7.3 8.75 7.35 8.7 7.85 8.15 8.8 7.3 9.45 6.7 9.6 6.5 M13.8 6.15 L13.85 6.15 14.5 6.3 15.75 6.8 15.95 6.9 16.5 7.25 16.9 7.55 18.25 8.8 19.5 10.55 19.6 10.7 19.95 11.95 19.95 12.15 19.9 12.65 19.9 12.7 19.8 12.9 19.7 13.2 19.65 13.25 19.2 13.95 18.55 14.6 17.45 15.2 17.3 15.35 16.3 15.75 15.55 15.95 15.3 16.0 15.6 15.85 17.05 14.95 17.1 14.9 17.15 14.85 18.45 13.75 19.05 12.55 19.1 12.5 19.1 12.45 19.1 12.2 19.1 12.15 19.1 11.95 19.05 11.85 19.0 11.5 18.4 10.95 17.75 10.8 17.8 11.1 17.7 11.7 16.95 12.95 16.3 13.4 15.3 13.95 13.85 14.25 13.85 14.2 14.0 13.5 14.0 13.35 14.3 13.15 14.35 13.15 14.6 12.95 15.5 13.05 Q16.15 13.05 16.65 12.35 L17.0 11.55 17.05 11.25 17.15 10.9 17.15 10.85 17.15 10.6 17.15 10.55 17.15 10.25 16.85 9.4 16.8 9.3 16.5 9.0 16.4 8.95 15.8 8.75 15.35 8.85 15.3 8.9 15.25 8.9 13.85 8.8 13.15 8.85 13.15 8.75 12.85 8.3 12.85 8.25 12.8 8.25 12.6 8.1 11.95 7.9 11.45 7.85 10.9 7.9 10.75 7.95 Q10.35 8.1 9.95 8.5 L9.9 8.55 9.5 9.15 9.45 9.2 9.35 9.45 9.35 9.55 9.35 9.6 9.35 9.95 9.1 10.1 9.25 9.4 9.7 8.55 9.85 8.3 10.0 8.1 10.75 7.35 10.8 7.25 11.25 7.0 11.55 6.85 12.45 6.5 13.65 6.15 13.8 6.15 M5.95 13.1 L5.8 13.95 5.8 14.0 Q5.6 14.95 5.55 16.0 L5.5 16.65 5.5 17.95 5.55 19.25 5.6 19.85 5.3 19.95 5.05 20.05 5.2 19.2 5.2 17.95 5.3 17.95 5.2 16.65 5.15 15.95 5.15 15.3 5.2 14.3 5.3 13.65 5.75 13.25 5.95 13.1 M10.6 13.2 L10.5 13.15 10.4 13.45 9.95 14.4 9.65 14.95 9.1 15.85 7.95 17.7 7.8 17.9 7.8 17.95 Q7.75 17.95 7.65 18.05 L7.3 18.4 Q7.3 17.3 7.65 15.2 L8.0 13.4 8.25 13.1 8.85 12.3 9.9 12.95 10.65 13.15 10.6 13.2 M15.3 8.9 L15.35 8.85 15.3 8.9 M4.25 22.3 L4.6 21.6 4.65 21.6 4.8 21.6 4.95 21.6 5.4 21.5 5.15 22.4 5.05 22.7 4.85 23.15 4.15 24.6 3.95 25.05 3.9 25.15 3.6 24.75 3.55 24.6 3.65 24.4 4.4 22.75 4.5 22.45 4.75 21.75 4.8 21.6 4.3 22.3 4.25 22.3 M23.6 18.1 L23.3 17.95 23.1 17.65 23.15 17.35 23.0 17.3 22.95 17.25 23.0 17.2 23.0 17.15 23.05 16.9 23.2 16.7 23.4 16.75 23.55 16.8 23.85 16.9 23.95 16.9 24.05 16.9 24.05 16.95 23.85 16.9 23.75 16.9 Q23.55 16.9 23.4 17.05 L23.3 17.25 23.3 17.4 23.3 17.45 23.3 17.6 23.55 18.0 23.6 18.1" fill="#dbbf77" fill-rule="evenodd" stroke="none"/>
      <path d="M16.15 5.15 L15.9 5.1 15.5 5.1 15.05 5.1 14.9 5.1 14.85 5.1 14.9 5.05 14.95 5.05 15.9 4.95 16.0 4.95 16.1 5.1 16.15 5.15 M14.95 5.05 L16.1 5.1 14.95 5.05" fill="#b2777b" fill-rule="evenodd" stroke="none"/>
      <path d="M14.85 5.1 L14.2 5.15 13.95 5.15 14.9 5.05 14.85 5.1" fill="#dbaca4" fill-rule="evenodd" stroke="none"/>
      <path d="M16.9 5.75 L18.3 5.5 17.7 6.0 16.9 5.75 M18.55 5.4 L16.15 5.35 16.15 5.15 16.1 5.1 16.0 4.95 19.65 5.4 18.8 5.4 18.55 5.4 17.75 5.25 18.55 5.4 M27.25 26.05 L27.4 26.15 27.45 26.2 27.45 27.45 26.95 27.0 26.7 26.85 26.2 26.4 26.0 26.25 26.0 26.2 25.9 26.05 25.8 25.95 25.3 25.2 Q24.75 24.3 24.35 22.85 L24.35 22.8 24.25 22.45 24.2 22.1 24.2 22.0 24.2 21.95 24.2 21.8 24.25 21.2 24.4 20.55 24.6 19.8 24.95 19.0 24.85 20.0 25.1 22.2 25.15 22.45 25.4 23.4 25.65 24.15 25.7 24.2 25.75 24.3 25.8 24.35 25.85 24.35 25.85 24.4 26.0 24.75 26.45 25.35 26.7 25.6 27.15 26.0 27.25 26.05 M12.05 27.3 L11.35 27.3 11.4 26.55 11.05 25.25 10.85 25.0 10.85 24.95 10.8 24.9 10.45 24.45 10.3 24.2 Q9.6 23.3 9.25 22.45 L9.1 22.0 9.3 22.1 9.35 22.1 9.5 22.15 9.85 22.4 10.05 22.5 10.05 21.6 10.05 21.1 10.05 20.75 10.05 20.7 Q10.15 20.0 10.4 19.4 L10.45 19.4 10.45 19.35 10.5 19.3 10.75 19.1 10.75 19.05 10.9 18.95 11.25 18.65 11.8 18.05 12.2 17.6 12.25 17.55 12.35 17.55 12.45 17.55 13.0 17.4 13.4 17.3 13.95 17.25 14.05 17.25 15.15 17.05 15.5 16.95 16.0 16.9 16.2 16.85 17.7 16.55 17.8 16.55 18.2 16.4 18.25 16.4 19.75 15.95 21.65 15.3 22.8 14.8 22.9 14.9 21.9 15.55 20.25 16.35 19.9 16.5 18.4 16.9 18.3 16.95 17.65 17.2 17.6 17.25 17.35 17.25 16.2 17.6 14.8 18.15 14.55 18.3 13.9 18.6 Q13.25 18.95 12.7 19.35 L11.85 20.0 11.6 20.2 10.65 21.15 10.35 21.7 10.2 22.1 10.7 23.25 11.2 24.15 11.25 24.2 11.4 24.4 11.45 24.5 11.75 25.0 11.75 25.05 11.75 25.1 11.8 25.1 12.0 25.55 12.0 25.65 12.0 26.15 12.0 26.2 12.05 26.65 12.05 27.2 12.05 27.3 M19.6 10.7 L19.7 10.8 19.75 10.9 20.2 11.35 20.4 11.75 20.4 11.8 20.4 11.9 20.45 12.2 20.45 12.4 20.5 12.75 20.5 13.0 20.3 13.8 20.55 13.6 20.75 13.45 20.8 13.2 20.85 13.15 20.85 13.1 21.4 13.95 21.45 13.95 21.25 14.2 21.15 14.45 20.5 15.0 19.85 15.35 18.8 15.75 18.3 15.85 18.2 15.9 17.9 15.95 17.05 16.1 16.35 16.2 16.35 16.15 16.3 16.2 15.35 16.25 14.8 16.3 14.65 16.35 14.75 16.3 15.2 16.1 15.3 16.0 15.55 15.95 16.3 15.75 17.3 15.35 17.45 15.2 18.55 14.6 19.2 13.95 19.65 13.25 19.7 13.2 19.8 12.9 19.9 12.7 19.9 12.65 19.95 12.15 19.95 11.95 19.6 10.7 M16.1 5.1 L17.75 5.25 16.1 5.1 M22.7 17.25 L22.8 17.0 22.9 16.9 22.9 16.8 22.95 16.8 23.0 16.7 23.1 16.7 23.2 16.65 23.3 16.6 23.45 16.65 23.55 16.65 23.65 16.7 23.85 16.75 23.95 16.85 24.05 16.9 23.95 16.9 23.85 16.9 23.55 16.8 23.4 16.75 23.2 16.7 23.05 16.9 23.0 17.15 23.0 17.2 22.95 17.25 23.0 17.3 23.15 17.35 23.1 17.65 23.3 17.95 23.6 18.1 23.7 18.15 23.7 18.2 23.75 18.2 23.6 18.25 23.55 18.25 23.25 18.15 23.15 18.1 23.05 18.05 23.0 18.0 22.95 18.0 22.9 17.9 22.75 17.65 22.7 17.4 22.7 17.35 22.7 17.25" fill="#f8ff9f" fill-rule="evenodd" stroke="none"/>
      <path d="M13.8 6.15 L14.2 6.1 15.55 5.85 15.6 5.85 15.9 5.8 16.9 5.75 17.7 6.0 18.3 5.5 18.75 5.45 18.55 5.4 18.8 5.4 19.65 5.4 20.75 5.85 20.75 5.9 19.7 5.6 18.8 5.4 19.7 5.6 20.75 5.9 20.7 6.05 20.9 6.15 21.95 6.75 22.2 6.85 22.55 7.1 22.55 7.15 23.45 7.75 23.6 7.9 24.25 8.65 25.0 9.95 25.05 10.1 25.05 10.15 25.05 10.6 25.1 11.8 25.1 12.2 25.1 12.6 24.65 13.1 24.6 13.15 24.25 13.45 24.05 13.45 24.15 13.5 24.1 13.75 23.9 13.95 23.9 14.05 23.35 14.5 23.2 14.6 23.8 13.85 24.0 13.4 24.05 13.25 24.2 12.9 24.3 12.65 24.4 12.25 24.45 12.05 24.45 11.5 24.35 10.65 24.35 10.6 24.8 10.15 24.65 9.8 24.6 9.6 24.2 9.4 Q24.0 9.4 23.9 9.55 L23.35 8.95 Q22.45 8.0 20.55 7.2 L20.35 7.1 20.35 7.05 20.3 7.05 Q20.0 7.05 19.75 7.2 L19.55 7.5 19.4 7.9 19.4 8.05 19.35 8.6 Q19.35 9.65 20.3 10.25 L20.45 10.3 21.15 10.6 21.25 10.65 21.7 11.25 21.85 11.4 21.85 11.45 21.8 11.45 21.95 12.25 21.95 12.5 21.95 12.65 21.7 13.5 21.55 13.75 21.5 13.9 21.45 13.95 21.4 13.95 20.85 13.1 20.85 13.15 20.8 13.2 20.75 13.45 20.55 13.6 20.3 13.8 20.5 13.0 20.5 12.75 20.45 12.4 20.45 12.2 20.4 11.9 20.4 11.8 20.4 11.75 20.2 11.35 19.75 10.9 19.7 10.8 19.6 10.7 19.5 10.55 18.25 8.8 16.9 7.55 16.5 7.25 15.95 6.9 15.75 6.8 14.5 6.3 13.85 6.15 13.8 6.15 M24.1 10.6 L24.25 10.6 24.1 10.65 24.1 10.6" fill="#f0ff9f" fill-rule="evenodd" stroke="none"/>
      <path d="M11.35 27.3 L11.1 27.3 10.65 25.95 Q10.1 24.7 9.35 24.3 L9.05 23.5 Q8.9 22.8 8.9 21.85 L8.85 21.25 8.85 20.7 8.9 20.35 9.1 20.25 9.2 20.15 9.8 19.75 10.05 19.65 10.45 19.4 10.4 19.4 Q10.15 20.0 10.05 20.7 L10.05 20.75 10.05 21.1 10.05 21.6 10.05 22.5 9.85 22.4 9.5 22.15 9.35 22.1 9.3 22.1 9.1 22.0 9.25 22.45 Q9.6 23.3 10.3 24.2 L10.45 24.45 10.8 24.9 10.75 24.9 10.85 24.95 10.85 25.0 11.05 25.25 11.4 26.55 11.35 27.3 M21.45 13.95 L21.5 13.9 21.55 13.75 21.7 13.5 21.95 12.65 21.95 12.5 21.95 12.25 21.8 11.45 21.85 11.45 21.85 11.4 21.7 11.25 21.25 10.65 21.15 10.6 20.45 10.3 20.3 10.25 Q19.35 9.65 19.35 8.6 L19.4 8.05 19.4 7.9 19.55 7.5 19.75 7.2 Q20.0 7.05 20.3 7.05 L20.35 7.05 20.35 7.1 20.55 7.2 Q22.45 8.0 23.35 8.95 L23.9 9.55 23.85 9.6 23.75 9.65 23.6 9.95 23.6 10.0 Q23.6 10.55 24.1 10.6 L24.1 10.65 24.25 10.6 24.35 10.6 24.35 10.65 24.45 11.5 24.45 12.05 24.4 12.25 24.3 12.65 24.2 12.9 24.05 13.25 24.0 13.4 23.8 13.85 23.2 14.6 23.2 14.65 23.05 14.8 22.9 14.9 22.8 14.8 21.65 15.3 19.75 15.95 18.25 16.4 18.2 16.4 17.8 16.55 17.7 16.55 16.2 16.85 16.0 16.9 15.5 16.95 15.15 17.05 14.05 17.25 13.95 17.25 13.4 17.3 13.0 17.4 12.45 17.55 12.35 17.55 12.25 17.55 12.5 17.25 Q13.55 15.85 13.85 14.25 L15.3 13.95 16.3 13.4 16.95 12.95 17.7 11.7 17.8 11.1 17.75 10.8 18.4 10.95 19.0 11.5 19.05 11.85 19.1 11.95 19.1 12.15 19.1 12.2 19.1 12.45 19.1 12.5 19.05 12.55 18.45 13.75 17.15 14.85 17.1 14.9 17.05 14.95 15.6 15.85 15.3 16.0 15.2 16.1 14.75 16.3 14.65 16.35 14.8 16.3 15.35 16.25 16.3 16.2 16.35 16.2 17.05 16.1 17.9 15.95 18.2 15.9 18.3 15.85 18.8 15.75 19.85 15.35 20.5 15.0 21.15 14.45 21.25 14.2 21.45 13.95" fill="#e1e26b" fill-rule="evenodd" stroke="none"/>
      <path d="M13.7 5.2 L11.4 5.8 11.25 5.8 10.05 6.2 9.7 6.4 9.75 6.35 9.85 6.2 10.35 6.0 11.25 5.7 11.7 5.55 12.15 5.45 12.35 5.4 12.85 5.3 13.7 5.2 M9.75 6.35 L10.35 6.0 9.75 6.35" fill="#826f88" fill-rule="evenodd" stroke="none"/>
      <path d="M10.05 6.2 L10.1 6.25 11.25 6.0 12.05 5.85 12.55 5.85 13.8 6.15 13.65 6.15 12.45 6.5 11.55 6.85 11.25 7.0 10.8 7.25 10.75 7.35 10.0 8.1 9.85 8.3 9.7 8.55 9.25 9.4 9.1 10.1 9.35 9.95 9.5 10.6 9.95 11.0 10.35 11.2 10.5 11.25 10.65 11.3 10.6 11.5 10.4 11.45 10.25 11.4 10.1 11.4 10.05 11.4 8.85 11.6 7.6 12.0 6.6 12.4 6.05 12.75 6.45 11.3 Q6.95 9.95 7.6 8.95 8.35 7.7 9.4 6.85 L9.7 6.4 10.05 6.2 M2.5 27.3 L1.6 27.3 1.6 27.15 2.3 26.8 2.35 26.9 2.4 26.95 2.45 27.1 2.5 27.3 2.35 26.95 2.35 26.9 2.35 26.95 2.5 27.3 M13.2 9.2 L13.15 9.0 13.15 8.95 13.15 8.85 13.85 8.8 15.25 8.9 15.2 8.9 15.15 8.95 15.05 8.95 Q14.95 8.95 14.9 9.05 L14.55 9.75 14.45 9.6 14.3 9.55 14.15 9.4 13.75 9.25 13.25 9.2 13.2 9.2 M14.0 12.75 L14.1 12.75 14.15 12.7 14.2 12.7 14.2 12.65 14.5 12.4 14.65 12.2 14.85 12.0 14.9 11.9 14.95 11.95 15.05 12.05 15.1 12.05 15.2 12.1 15.6 12.15 16.2 12.05 16.85 11.6 17.0 11.4 17.05 11.25 17.0 11.55 16.65 12.35 Q16.15 13.05 15.5 13.05 L14.6 12.95 14.35 13.15 14.3 13.15 14.0 13.35 14.0 13.0 14.0 12.9 14.0 12.85 14.0 12.75 M7.65 12.2 L8.35 12.05 8.85 11.95 8.9 11.95 9.8 11.85 10.05 11.85 10.2 11.85 10.5 11.9 10.75 11.95 11.3 12.05 11.3 12.4 11.25 13.4 11.2 13.55 11.2 13.75 Q10.9 15.2 9.95 16.55 L9.9 16.7 9.7 16.9 9.7 16.95 9.0 17.7 8.25 18.35 8.2 18.4 7.4 18.95 7.35 18.95 6.25 19.6 5.75 19.75 5.6 19.85 5.55 19.25 5.5 17.95 5.5 16.65 5.55 16.0 Q5.6 14.95 5.8 14.0 L5.8 13.95 5.95 13.1 6.7 12.65 7.65 12.2 M10.6 13.2 L10.65 13.15 9.9 12.95 8.85 12.3 8.25 13.1 8.0 13.4 7.65 15.2 Q7.3 17.3 7.3 18.4 L7.65 18.05 Q7.75 17.95 7.8 17.95 L7.8 17.9 7.95 17.7 9.1 15.85 9.65 14.95 9.95 14.4 10.4 13.45 10.5 13.15 10.6 13.2 M4.25 22.35 L4.25 22.3 4.3 22.3 4.25 22.35 M3.9 25.15 L3.95 25.05 4.15 24.6 4.85 23.15 5.05 22.7 5.15 22.4 5.4 21.5 5.6 21.45 5.9 21.4 6.0 21.4 6.8 21.2 6.85 21.2 6.9 21.15 7.65 20.9 7.7 20.9 7.9 20.85 8.3 20.7 7.95 21.1 6.95 22.3 6.75 22.6 6.6 22.75 6.6 22.8 5.85 23.8 4.5 25.75 4.45 25.9 4.15 25.55 4.05 25.35 3.9 25.15" fill="#b78e62" fill-rule="evenodd" stroke="none"/>
      <path d="M1.6 25.4 L1.6 24.85 1.6 24.75 1.75 24.55 1.95 24.4 1.95 24.5 1.95 25.2 1.6 25.4 M4.15 14.15 L4.15 13.8 4.2 13.6 4.65 12.45 5.45 11.0 6.25 9.95 5.55 12.45 5.4 13.15 4.6 13.75 4.45 13.9 4.15 14.15 M9.6 6.45 L9.7 6.25 9.85 6.2 9.75 6.35 9.7 6.4 9.6 6.45 9.75 6.35 9.6 6.45 M6.6 9.55 L7.3 8.65 7.45 8.55 7.5 8.5 7.85 8.15 7.35 8.7 7.3 8.75 6.6 9.55 6.25 9.95 6.6 9.55 M4.1 15.2 L4.2 14.95 4.85 14.1 5.3 13.65 5.2 14.3 5.15 15.3 5.15 15.95 5.2 16.65 5.3 17.95 5.2 17.95 5.2 19.2 5.05 20.05 5.0 20.05 4.85 20.1 4.45 20.25 4.6 19.7 4.5 18.4 4.45 18.1 4.35 17.4 4.3 16.95 4.15 15.7 4.1 15.2 M3.65 21.85 L3.75 21.7 3.95 21.7 4.45 21.65 4.6 21.6 4.25 22.3 4.25 22.35 4.15 22.6 3.1 23.9 3.05 23.75 2.9 23.4 3.35 22.7 3.6 22.0 3.65 21.85 M1.6 24.85 L1.75 24.75 1.95 24.5 1.75 24.75 1.6 24.85" fill="#b0ced9" fill-rule="evenodd" stroke="none"/>
      <path d="M16.6 27.65 L16.55 27.65 16.6 27.5 16.65 27.4 16.65 27.5 16.6 27.65 M10.9 7.9 L10.65 8.2 10.35 8.7 10.2 9.05 10.2 9.3 10.2 9.35 10.2 9.5 10.2 9.55 10.4 9.9 10.6 10.05 10.75 10.2 11.05 10.3 11.1 10.35 11.3 10.45 11.4 10.5 11.4 10.55 11.35 11.0 11.35 11.3 11.2 11.3 11.15 11.3 10.75 11.25 10.65 11.2 10.45 11.15 10.05 10.95 9.65 10.55 9.45 9.9 9.5 9.55 9.5 9.5 9.5 9.4 9.6 9.15 9.65 9.1 10.05 8.5 10.05 8.45 Q10.4 8.1 10.75 7.95 10.4 8.1 10.05 8.45 L10.05 8.5 9.65 9.1 9.6 9.15 9.5 9.4 9.5 9.5 9.5 9.55 9.45 9.9 9.65 10.55 10.05 10.95 10.45 11.15 10.65 11.2 10.75 11.25 11.15 11.3 11.2 11.3 11.35 11.3 11.35 11.0 11.4 10.55 11.4 10.5 11.45 10.35 11.45 10.3 11.55 10.1 11.55 10.05 11.65 9.95 11.7 9.9 11.75 9.85 11.75 9.8 11.8 9.8 11.9 9.6 12.0 9.6 12.5 9.3 13.1 9.2 13.2 9.2 13.25 9.2 13.75 9.25 14.15 9.4 14.0 9.4 13.9 9.4 13.35 9.5 13.25 9.55 13.0 9.7 12.9 9.75 12.85 9.9 12.8 9.9 12.75 9.95 12.7 10.0 12.65 10.05 12.55 10.2 12.5 10.25 12.5 10.3 12.45 10.4 12.4 10.5 12.4 10.55 12.35 10.6 12.35 10.65 12.25 11.0 12.25 11.1 12.25 11.35 Q12.35 12.05 12.9 12.4 13.3 12.75 14.0 12.75 L13.75 12.9 13.15 13.0 12.65 12.9 12.5 12.8 12.15 12.7 12.05 12.55 11.9 12.45 Q11.4 12.05 11.25 11.45 L11.2 11.35 11.05 11.35 10.65 11.3 10.5 11.25 10.35 11.2 9.95 11.0 9.5 10.6 9.35 9.95 9.35 9.6 9.35 9.55 9.35 9.45 9.45 9.2 9.5 9.15 9.9 8.55 9.95 8.5 Q10.35 8.1 10.75 7.95 L10.9 7.9 M14.55 9.75 L14.9 9.05 Q14.95 8.95 15.05 8.95 L15.15 8.95 15.2 8.9 15.25 8.9 15.3 8.9 15.35 8.85 15.8 8.75 16.4 8.95 16.3 9.0 16.05 9.1 15.75 9.3 15.6 9.55 15.55 9.75 15.5 10.0 15.5 10.2 15.55 10.35 15.55 10.4 15.6 10.7 16.15 11.25 16.9 11.4 17.0 11.4 16.85 11.6 16.2 12.05 15.75 12.1 15.65 12.1 15.3 12.05 15.25 12.0 15.2 12.0 15.05 11.9 14.9 11.75 15.05 11.9 15.2 12.0 15.25 12.0 15.3 12.05 15.65 12.1 15.75 12.1 16.2 12.05 15.6 12.15 15.2 12.1 15.1 12.05 15.05 12.05 14.95 11.95 14.9 11.9 14.9 11.75 15.05 11.6 15.1 11.4 15.2 11.0 15.2 10.9 15.2 10.8 15.2 10.7 15.2 10.65 15.1 10.4 15.05 10.3 14.9 10.05 14.75 9.9 14.65 9.85 14.55 9.75 M15.15 8.95 L15.0 9.0 14.65 9.85 15.0 9.0 15.15 8.95 M11.2 11.3 L11.2 11.35 11.2 11.3 M11.35 11.3 L11.4 11.4 Q11.5 12.05 12.05 12.4 L12.15 12.5 12.3 12.65 12.6 12.75 12.8 12.85 13.25 12.95 13.75 12.9 13.25 12.95 12.8 12.85 12.6 12.75 12.3 12.65 12.15 12.5 12.05 12.4 Q11.5 12.05 11.4 11.4 L11.35 11.3" fill="#91849b" fill-rule="evenodd" stroke="none"/>
      <path d="M11.4 10.5 L11.3 10.45 11.1 10.35 11.05 10.3 10.75 10.2 10.6 10.05 10.4 9.9 10.2 9.55 10.2 9.5 10.2 9.35 10.2 9.3 10.2 9.05 10.35 8.7 10.65 8.2 10.9 7.9 11.45 7.85 11.95 7.9 12.6 8.1 12.8 8.25 12.85 8.25 12.85 8.3 13.15 8.75 13.15 8.85 13.15 8.95 13.15 9.0 13.2 9.2 13.1 9.2 12.5 9.3 12.0 9.6 11.9 9.6 11.8 9.8 11.75 9.8 11.75 9.85 11.7 9.9 11.65 9.95 11.55 10.05 11.55 10.1 11.45 10.3 11.45 10.35 11.4 10.5 M11.95 8.25 L11.85 8.25 11.3 8.4 Q11.05 8.5 10.85 8.65 L10.7 8.95 10.7 9.1 10.9 9.4 11.1 9.3 11.25 9.3 11.3 9.25 11.75 9.15 12.0 9.1 12.2 9.05 12.5 8.95 12.55 8.8 12.6 8.45 11.95 8.25 M14.5 12.4 L14.4 12.4 14.3 12.4 14.15 12.4 Q13.5 12.4 13.1 12.1 12.6 11.7 12.6 11.0 L12.6 10.7 12.9 10.4 12.95 10.35 13.05 10.3 13.05 10.4 13.0 10.4 13.0 10.5 13.0 10.6 13.15 10.85 13.15 10.9 13.55 11.0 13.8 10.95 14.0 10.85 14.15 10.6 14.15 10.5 14.1 10.35 14.1 10.3 13.95 10.3 13.9 10.25 14.05 10.25 14.35 10.3 14.45 10.3 14.45 9.6 14.55 9.75 14.65 9.85 14.75 9.9 14.9 10.05 15.05 10.3 15.1 10.4 15.2 10.65 15.2 10.7 15.2 10.8 15.2 10.9 15.2 11.0 15.1 11.4 15.05 11.6 14.9 11.75 14.9 11.9 14.85 12.0 14.65 12.2 14.5 12.4 M17.0 11.4 L16.9 11.4 16.15 11.25 15.6 10.7 15.55 10.4 15.55 10.35 15.5 10.2 15.5 10.0 15.55 9.75 15.6 9.55 15.75 9.3 16.05 9.1 16.3 9.0 16.4 8.95 16.5 9.0 16.8 9.3 16.85 9.4 17.15 10.25 17.15 10.55 17.15 10.6 17.15 10.85 17.15 10.9 17.05 11.25 17.0 11.4 M9.9 16.7 L9.95 16.55 10.05 16.65 10.0 16.75 9.9 16.7 M16.3 10.3 L16.4 10.3 16.65 10.3 16.8 10.1 16.65 9.9 16.35 9.7 Q15.95 9.7 15.95 10.0 L16.3 10.3 M21.9 15.55 L22.0 15.65 22.9 16.2 23.15 16.25 23.1 16.3 23.2 16.25 23.55 16.35 23.6 16.4 23.8 16.5 23.8 16.55 23.9 16.6 24.05 16.8 24.2 16.9 24.25 17.05 24.65 17.8 24.8 18.15 24.55 18.6 23.95 19.75 23.85 20.0 23.85 20.05 23.6 20.65 23.55 20.95 23.4 21.4 23.2 22.1 23.2 22.35 23.15 22.35 23.0 22.45 22.9 22.85 22.95 23.15 22.7 23.45 22.4 23.7 20.65 24.9 20.6 24.9 19.75 25.4 20.35 25.55 19.3 25.55 19.6 25.45 19.75 25.4 19.15 25.2 18.7 25.05 18.55 24.95 18.6 24.9 18.35 24.15 18.3 23.95 18.25 23.65 18.2 23.55 18.05 22.45 18.6 22.25 18.7 22.1 18.8 22.05 19.15 22.0 19.35 22.0 19.65 22.0 19.8 22.0 20.05 22.0 20.1 22.0 20.1 21.9 20.4 21.35 20.35 21.2 19.8 21.05 19.75 21.05 19.7 21.05 19.35 20.8 19.4 20.05 Q19.4 18.75 18.8 17.75 L18.4 17.15 18.3 16.95 18.4 16.9 19.9 16.5 20.25 16.35 21.9 15.55 M23.55 16.65 L23.45 16.6 23.15 16.55 22.95 16.55 22.9 16.6 22.55 16.85 22.25 17.25 22.2 17.45 22.2 17.75 22.25 18.2 22.45 18.35 22.95 18.5 23.2 18.5 23.3 18.45 Q23.35 18.4 23.55 18.3 L23.55 18.25 23.6 18.25 23.75 18.2 23.7 18.2 23.7 18.15 23.6 18.1 23.55 18.0 23.3 17.6 23.3 17.45 23.3 17.4 23.3 17.25 23.4 17.05 Q23.55 16.9 23.75 16.9 L23.85 16.9 24.05 16.95 24.05 16.9 23.95 16.85 23.85 16.75 23.65 16.7 23.55 16.65 M18.7 20.35 L18.5 21.1 17.45 20.5 16.4 19.65 15.65 18.75 15.6 18.65 15.95 18.3 16.2 18.15 16.35 18.05 16.8 18.2 16.9 18.25 16.95 18.25 17.45 18.45 17.7 18.65 17.4 18.75 17.15 19.0 17.65 19.65 17.55 19.85 17.4 20.15 17.85 19.9 18.15 20.15 18.7 20.35 M17.45 26.2 L17.7 26.1 17.7 26.2 17.45 26.2" fill="#cde0fc" fill-rule="evenodd" stroke="none"/>
      <path d="M23.9 9.55 Q24.0 9.4 24.2 9.4 L24.6 9.6 24.65 9.8 24.8 10.15 24.35 10.6 24.25 10.6 24.1 10.6 Q23.6 10.55 23.6 10.0 L23.6 9.95 23.75 9.65 23.85 9.6 23.9 9.55 M11.95 8.25 L12.6 8.45 12.55 8.8 12.5 8.95 12.2 9.05 12.0 9.1 11.75 9.15 11.3 9.25 11.25 9.3 11.1 9.3 10.9 9.4 10.7 9.1 10.7 8.95 10.85 8.65 Q11.05 8.5 11.3 8.4 L11.85 8.25 11.95 8.25 M14.15 9.4 L14.3 9.55 14.45 9.6 14.45 10.3 14.35 10.3 14.05 10.25 13.95 10.2 13.55 10.05 13.5 10.05 13.15 10.1 12.95 10.35 12.9 10.4 12.6 10.7 12.6 11.0 Q12.6 11.7 13.1 12.1 13.5 12.4 14.15 12.4 L14.3 12.4 14.4 12.4 14.5 12.4 14.2 12.65 14.2 12.7 14.15 12.7 14.1 12.75 14.0 12.75 Q13.3 12.75 12.9 12.4 12.35 12.05 12.25 11.35 L12.25 11.1 12.25 11.0 12.35 10.65 12.35 10.6 12.4 10.55 12.4 10.5 12.45 10.4 12.5 10.3 12.5 10.25 12.55 10.2 12.65 10.05 12.7 10.0 12.75 9.95 12.8 9.9 12.85 9.9 12.9 9.75 13.0 9.7 13.25 9.55 13.35 9.5 13.9 9.4 14.0 9.4 14.15 9.4 M16.3 10.3 L15.95 10.0 Q15.95 9.7 16.35 9.7 L16.65 9.9 16.8 10.1 16.65 10.3 16.4 10.3 16.3 10.3" fill="#f6fcfc" fill-rule="evenodd" stroke="none"/>
      <path d="M12.95 10.35 L13.15 10.1 13.5 10.05 13.55 10.05 13.95 10.2 14.05 10.25 13.9 10.25 13.95 10.3 14.1 10.3 14.1 10.35 14.15 10.5 14.15 10.6 14.0 10.85 13.8 10.95 13.55 11.0 13.15 10.9 13.15 10.85 13.0 10.6 13.0 10.5 13.0 10.4 13.05 10.4 13.05 10.3 12.95 10.35" fill="#ffffff" fill-rule="evenodd" stroke="none"/>
      <path d="M3.65 27.3 L2.55 27.3 2.5 27.3 2.45 27.1 2.4 26.95 2.35 26.9 2.3 26.8 2.25 26.7 2.1 26.25 1.95 25.7 1.95 25.2 1.95 24.5 1.95 24.4 1.95 23.15 2.05 23.35 2.25 23.8 2.35 23.95 2.4 24.0 2.45 24.15 2.6 24.3 2.65 24.4 2.7 24.4 2.8 24.55 2.8 24.7 3.1 25.35 3.1 25.55 3.2 26.05 3.25 26.3 3.3 26.5 3.3 26.6 3.4 26.9 3.4 26.95 3.45 27.1 3.65 27.3 M1.95 19.75 L1.95 17.3 2.25 16.6 2.5 16.15 2.5 16.2 2.4 16.8 2.25 17.3 2.2 17.65 2.1 18.15 2.05 18.85 2.05 18.95 2.0 19.35 1.95 19.75 M10.65 11.3 L11.05 11.35 11.2 11.35 11.25 11.45 Q11.4 12.05 11.9 12.45 L12.05 12.55 12.15 12.7 12.5 12.8 12.65 12.9 13.15 13.0 13.75 12.9 14.0 12.75 14.0 12.85 14.0 12.9 14.0 13.0 13.9 13.1 13.55 13.4 13.25 13.55 13.1 13.65 12.5 13.85 12.5 14.1 12.45 14.25 12.1 15.6 11.75 16.55 11.15 17.55 10.6 18.3 10.3 18.6 9.65 19.1 9.05 19.5 9.0 19.55 8.85 19.65 8.65 19.75 8.3 20.0 8.1 20.15 7.65 20.35 7.65 20.4 7.5 20.5 7.3 20.6 7.3 20.65 7.25 20.65 7.1 20.7 7.05 20.75 5.95 21.05 5.55 21.15 5.5 21.2 4.7 21.3 4.6 21.3 4.05 21.3 3.95 21.3 3.75 21.35 3.25 21.35 3.05 21.35 2.65 21.3 2.9 21.2 3.45 21.05 4.1 20.8 4.2 20.75 4.25 20.7 4.35 20.7 4.6 20.65 4.95 20.5 5.0 20.45 5.45 20.35 5.5 20.3 5.55 20.25 5.65 20.25 5.8 20.2 5.8 20.15 5.95 20.1 6.65 19.85 7.55 19.5 7.9 19.35 8.0 19.3 8.05 19.15 8.4 18.75 9.05 17.95 9.15 17.85 9.75 17.05 9.8 17.0 10.0 16.75 10.05 16.65 10.95 15.25 11.5 14.1 11.6 13.85 11.35 13.8 11.2 13.75 11.2 13.55 11.25 13.4 11.3 12.4 11.3 12.05 10.75 11.95 10.5 11.9 10.2 11.85 10.05 11.85 9.8 11.85 8.9 11.95 8.85 11.95 8.35 12.05 7.65 12.2 7.6 12.0 8.85 11.6 10.05 11.4 10.1 11.4 10.25 11.4 10.4 11.45 10.6 11.5 10.65 11.3 M11.05 11.35 L11.2 11.65 11.3 12.05 11.2 11.65 11.05 11.35 M10.9 11.65 L10.6 11.5 10.9 11.65" fill="#af958e" fill-rule="evenodd" stroke="none"/>
      <path d="M25.4 15.6 L25.5 15.7 26.15 16.65 26.25 16.8 26.4 17.05 26.45 17.2 26.5 17.25 26.5 17.3 26.65 17.55 26.8 17.95 26.85 18.05 26.9 18.05 26.9 18.1 26.95 18.25 27.0 18.3 27.05 18.55 27.15 18.7 27.15 18.85 27.25 19.1 27.25 19.25 27.3 19.25 27.3 19.35 27.35 19.4 27.45 20.15 27.45 20.2 27.5 20.55 27.5 20.65 27.5 20.75 27.6 21.4 27.65 22.25 27.65 22.35 27.65 22.45 27.65 22.6 27.65 22.75 27.65 23.15 27.4 25.2 27.3 25.65 27.25 26.05 27.15 26.0 26.7 25.6 26.45 25.35 26.55 24.1 26.7 23.15 26.8 22.85 26.85 22.75 26.75 22.45 26.75 22.35 26.7 22.15 26.65 22.15 26.5 21.8 26.45 21.65 26.4 21.55 26.4 21.1 26.4 20.6 26.4 20.25 26.3 19.0 26.15 18.55 26.15 18.5 25.55 17.25 25.55 17.2 25.55 16.45 25.4 15.6 M1.95 21.5 L1.95 20.85 2.1 20.8 2.55 20.7 2.65 20.7 4.0 20.35 4.25 20.35 4.25 20.3 4.45 20.25 4.85 20.1 5.0 20.05 5.05 20.05 5.3 19.95 5.6 19.85 5.75 19.75 6.25 19.6 7.35 18.95 7.4 18.95 8.2 18.4 8.25 18.35 9.0 17.7 9.7 16.95 9.7 16.9 9.9 16.7 10.0 16.75 9.8 17.0 9.75 17.05 9.15 17.85 9.05 17.95 8.4 18.75 8.05 19.15 8.0 19.3 7.9 19.35 7.55 19.5 6.65 19.85 5.95 20.1 5.8 20.15 5.8 20.2 5.65 20.25 5.55 20.25 5.5 20.3 5.45 20.35 5.0 20.45 4.95 20.5 4.6 20.65 4.35 20.7 4.25 20.7 4.2 20.75 4.1 20.8 3.45 21.05 2.9 21.2 2.65 21.3 2.25 21.4 2.05 21.45 1.95 21.5 M9.95 16.55 Q10.9 15.2 11.2 13.75 L11.35 13.8 11.6 13.85 11.5 14.1 10.95 15.25 10.05 16.65 9.95 16.55" fill="#dbc4c0" fill-rule="evenodd" stroke="none"/>
      <path d="M7.05 20.75 L7.1 20.7 7.25 20.65 7.3 20.65 7.3 20.6 7.5 20.5 7.65 20.4 7.65 20.35 8.1 20.15 8.3 20.0 8.65 19.75 8.85 19.65 9.0 19.55 9.05 19.5 9.65 19.1 10.3 18.6 10.45 18.75 9.0 19.9 9.0 19.95 8.6 20.2 7.75 20.6 6.85 20.95 6.8 20.85 7.05 20.75 M10.6 18.3 L11.15 17.55 11.75 16.55 12.1 15.6 12.45 14.25 12.5 14.1 12.5 13.85 13.1 13.65 13.25 13.55 13.55 13.4 13.8 13.45 13.85 13.45 13.5 14.25 12.0 16.95 11.45 17.7 10.75 18.45 10.6 18.3" fill="#fffff0" fill-rule="evenodd" stroke="none"/>
      <path d="M5.3 27.3 L4.6 27.3 4.3 26.9 4.25 26.85 4.2 26.7 4.15 26.55 4.1 26.45 3.75 25.9 3.6 25.55 3.35 24.95 3.3 24.9 3.25 24.7 3.1 24.75 3.0 24.5 2.9 24.3 2.85 24.2 2.7 23.95 2.6 23.8 2.55 23.65 2.35 23.2 Q2.05 22.55 2.05 21.95 L2.05 21.65 2.6 21.7 2.6 21.85 2.75 22.6 2.75 22.65 2.8 23.1 2.85 23.2 2.9 23.4 3.05 23.75 3.1 23.9 3.3 24.2 3.35 24.25 3.5 24.5 3.55 24.6 3.6 24.75 3.9 25.15 4.05 25.35 4.15 25.55 4.45 25.9 4.5 26.0 4.5 26.05 4.8 26.4 4.85 26.5 5.05 26.9 5.3 27.3 M3.95 14.35 L4.15 14.15 4.45 13.9 4.6 13.75 5.4 13.15 5.6 13.0 5.75 13.25 5.3 13.65 4.85 14.1 4.2 14.95 4.1 15.2 3.8 15.7 3.4 16.45 2.95 17.6 2.9 17.75 2.65 19.0 2.65 19.25 2.55 19.9 2.55 20.5 2.55 20.55 2.55 20.7 2.1 20.8 2.2 20.1 2.2 19.9 2.3 19.15 2.3 19.0 2.35 18.2 2.5 17.3 2.9 16.4 2.9 16.35 3.4 15.5 3.95 14.35 M14.0 13.0 L14.0 13.35 14.0 13.5 13.85 13.45 13.8 13.45 13.55 13.4 13.9 13.1 14.0 13.0 M10.3 18.6 L10.6 18.3 10.75 18.45 10.45 18.75 10.3 18.6" fill="#fffce9" fill-rule="evenodd" stroke="none"/>
      <path d="M4.6 27.3 L3.65 27.3 3.45 27.1 3.4 26.95 3.4 26.9 3.3 26.6 3.3 26.5 3.25 26.3 3.2 26.05 3.1 25.55 3.1 25.35 2.8 24.7 2.8 24.55 2.7 24.4 2.65 24.4 2.6 24.3 2.45 24.15 2.4 24.0 2.35 23.95 2.25 23.8 2.05 23.35 1.95 23.15 1.95 21.65 2.05 21.65 2.05 21.95 Q2.05 22.55 2.35 23.2 L2.55 23.65 2.6 23.8 2.7 23.95 2.85 24.2 2.9 24.3 3.0 24.5 3.1 24.75 3.25 24.7 3.3 24.9 3.35 24.95 3.6 25.55 3.75 25.9 4.1 26.45 4.15 26.55 4.2 26.7 4.25 26.85 4.3 26.9 4.6 27.3 M1.95 20.85 L1.95 19.75 2.0 19.35 2.05 18.95 2.05 18.85 2.1 18.15 2.2 17.65 2.25 17.3 2.4 16.8 2.5 16.2 2.5 16.15 3.1 15.3 3.95 14.35 3.4 15.5 2.9 16.35 2.9 16.4 2.5 17.3 2.35 18.2 2.3 19.0 2.3 19.15 2.2 19.9 2.2 20.1 2.1 20.8 1.95 20.85 M2.65 21.3 L3.05 21.35 3.25 21.35 3.75 21.35 3.95 21.3 4.05 21.3 4.6 21.3 4.7 21.3 5.5 21.2 5.55 21.15 5.95 21.05 7.05 20.75 6.8 20.85 6.85 20.95 7.75 20.6 8.6 20.2 9.0 19.95 9.0 19.9 10.45 18.75 10.75 18.45 11.45 17.7 12.0 16.95 13.5 14.25 13.85 13.45 14.0 13.5 13.85 14.2 13.85 14.25 Q13.55 15.85 12.5 17.25 L12.25 17.55 12.2 17.6 11.8 18.05 11.25 18.65 10.9 18.95 10.75 19.05 10.75 19.1 10.5 19.3 10.45 19.35 10.45 19.4 10.05 19.65 9.8 19.75 9.2 20.15 9.1 20.25 8.9 20.35 8.3 20.7 7.9 20.85 7.7 20.9 7.65 20.9 6.9 21.15 6.85 21.2 6.8 21.2 6.0 21.4 5.9 21.4 5.6 21.45 5.4 21.5 4.95 21.6 4.8 21.6 4.65 21.6 4.6 21.6 4.45 21.65 3.95 21.7 3.75 21.7 3.25 21.7 3.15 21.7 2.6 21.7 2.05 21.65 2.05 21.45 2.25 21.4 2.65 21.3" fill="#e9deaa" fill-rule="evenodd" stroke="none"/>
      <path d="M24.1 13.75 L24.15 13.5 24.05 13.45 24.25 13.45 24.1 13.75" fill="#8fc0ce" fill-rule="evenodd" stroke="none"/>
      <path d="M24.6 13.15 L25.25 14.8 25.4 15.6 25.55 16.45 25.55 17.2 25.55 17.25 25.55 17.85 25.55 17.95 25.55 18.15 Q25.35 18.2 25.25 18.4 L25.05 18.65 24.95 18.95 24.9 18.3 24.9 18.1 24.9 18.05 24.85 17.65 24.8 17.35 24.8 17.3 24.75 16.95 24.7 16.6 24.6 16.25 24.6 16.15 24.35 15.25 24.25 14.9 24.2 14.8 23.9 14.1 23.9 14.05 23.9 13.95 24.1 13.75 24.25 13.45 24.6 13.15 M22.55 16.85 L22.55 16.9 22.35 17.5 22.5 17.95 22.55 18.1 22.7 18.25 22.95 18.4 23.15 18.4 23.2 18.4 23.55 18.3 Q23.35 18.4 23.3 18.45 L23.2 18.5 22.95 18.5 22.45 18.35 22.25 18.2 22.2 17.75 22.2 17.45 22.25 17.25 22.55 16.85 M22.7 17.4 L22.6 17.35 22.7 17.25 22.7 17.35 22.7 17.4 M17.35 17.25 L17.45 17.35 18.35 18.05 18.65 18.45 18.7 18.65 18.85 18.85 Q19.25 19.6 19.25 20.35 L19.25 20.5 19.2 21.0 19.1 21.4 19.0 21.75 18.7 21.65 18.4 21.5 18.3 21.45 18.05 21.35 17.25 20.85 17.2 20.85 17.0 20.7 16.9 20.6 16.8 20.7 16.75 20.75 16.8 20.65 16.85 20.6 16.25 20.1 16.1 20.0 15.95 19.8 15.55 19.45 15.4 19.35 15.25 19.15 15.25 19.1 15.1 18.95 14.75 18.55 14.6 18.35 14.55 18.3 14.8 18.15 16.2 17.6 17.35 17.25 M17.7 18.65 L17.45 18.45 16.95 18.25 16.9 18.25 16.8 18.2 16.35 18.05 16.2 18.15 15.95 18.3 15.6 18.65 15.65 18.75 16.4 19.65 17.45 20.5 18.5 21.1 18.7 20.35 18.7 20.05 18.55 19.25 18.45 19.05 18.05 18.5 17.7 18.65 M11.6 20.2 L11.8 20.8 11.6 22.1 11.7 23.5 12.25 24.15 12.15 24.1 10.7 23.25 10.2 22.1 10.35 21.7 10.65 21.15 11.6 20.2" fill="#af9eb1" fill-rule="evenodd" stroke="none"/>
      <path d="M23.2 14.6 L23.35 14.5 23.9 14.05 23.9 14.1 24.2 14.8 24.25 14.9 24.35 15.25 24.6 16.15 24.6 16.25 24.7 16.6 24.75 16.95 24.8 17.3 24.8 17.35 24.85 17.65 24.9 18.05 24.9 18.1 24.9 18.3 24.95 18.95 24.95 19.0 24.6 19.8 24.4 20.55 24.25 21.2 24.2 21.8 24.2 21.95 24.2 22.0 24.2 22.1 24.25 22.9 24.25 23.1 24.25 23.5 23.95 23.75 23.3 24.2 23.2 24.3 22.7 24.6 22.6 24.65 21.85 25.15 21.8 25.2 21.6 25.25 21.55 25.3 21.35 25.4 21.25 25.25 20.9 25.35 20.5 25.5 20.45 25.5 20.35 25.55 19.75 25.4 20.6 24.9 20.65 24.9 22.4 23.7 22.7 23.45 22.95 23.15 23.1 23.2 23.25 23.3 Q23.7 23.3 23.75 22.8 L23.45 22.35 23.2 22.35 23.2 22.1 23.4 21.4 23.55 20.95 23.6 20.65 23.85 20.05 23.85 20.0 23.95 19.75 24.55 18.6 24.8 18.15 24.65 17.8 24.25 17.05 24.2 16.9 24.05 16.8 23.9 16.6 23.8 16.55 23.8 16.5 23.6 16.4 23.55 16.35 23.2 16.25 23.1 16.3 23.15 16.25 22.9 16.2 22.0 15.65 21.9 15.55 22.9 14.9 23.05 14.8 23.2 14.65 23.2 14.6" fill="#ecf3ff" fill-rule="evenodd" stroke="none"/>
      <path d="M4.2 13.6 L4.15 12.95 4.15 12.9 4.05 12.85 4.15 12.75 4.3 12.45 5.45 11.0 4.65 12.45 4.2 13.6 M16.35 16.2 L16.3 16.2 16.35 16.15 16.35 16.2 M17.45 17.35 L17.35 17.25 17.6 17.25 Q17.5 17.25 17.45 17.35 M13.9 18.6 L13.75 19.0 13.75 19.05 13.75 19.25 13.7 19.6 13.75 20.35 13.8 20.5 13.85 20.85 14.15 21.4 14.5 21.85 14.55 21.95 14.6 22.05 14.55 22.55 13.85 22.1 13.65 21.9 13.3 21.4 Q12.8 20.65 12.7 19.5 L12.7 19.35 Q13.25 18.95 13.9 18.6" fill="#726174" fill-rule="evenodd" stroke="none"/>
      <path d="M6.7 12.65 L5.95 13.1 5.75 13.25 5.6 13.0 5.95 12.75 6.05 12.75 6.6 12.4 6.7 12.65" fill="#aae887" fill-rule="evenodd" stroke="none"/>
      <path d="M7.65 12.2 L6.7 12.65 6.6 12.4 7.6 12.0 7.65 12.2 M18.05 22.45 L18.2 23.55 18.25 23.65 18.3 23.95 18.35 24.15 18.6 24.9 18.55 24.95 18.7 25.05 19.15 25.2 19.75 25.4 19.6 25.45 19.3 25.55 18.45 25.6 18.3 25.6 17.2 25.55 15.6 25.3 14.55 25.15 14.05 24.9 13.75 24.85 12.5 24.25 12.25 24.15 11.7 23.5 11.6 22.1 11.8 20.8 11.6 20.2 11.85 20.0 12.7 19.35 12.7 19.5 Q12.8 20.65 13.3 21.4 L13.65 21.9 13.85 22.1 14.55 22.55 16.05 22.85 16.1 22.85 16.15 22.85 16.5 22.9 17.45 22.8 17.7 22.7 17.8 22.6 18.0 22.5 18.05 22.45" fill="#c1b5cc" fill-rule="evenodd" stroke="none"/>
      <path d="M19.8 27.65 L17.7 27.65 17.75 27.5 18.3 26.15 18.35 26.1 18.7 26.05 19.1 26.05 19.15 26.05 19.75 25.9 19.8 25.9 20.05 25.9 20.1 25.9 20.45 25.8 20.05 27.05 19.85 27.55 19.8 27.65 M1.6 26.4 L1.6 25.4 1.95 25.2 1.95 25.7 2.1 26.25 Q1.9 26.25 1.65 26.4 L1.6 26.4 M3.1 23.9 L4.15 22.6 4.25 22.35 4.3 22.3 4.8 21.6 4.75 21.75 4.5 22.45 4.4 22.75 3.65 24.4 3.55 24.6 3.5 24.5 3.35 24.25 3.3 24.2 3.1 23.9" fill="#d0a693" fill-rule="evenodd" stroke="none"/>
      <path d="M1.95 21.65 L1.95 21.5 2.05 21.45 2.05 21.65 1.95 21.65 M18.3 16.95 L18.4 17.15 18.8 17.75 Q19.4 18.75 19.4 20.05 L19.35 20.8 19.35 20.85 19.7 21.05 19.75 21.05 19.8 21.05 20.35 21.2 20.4 21.35 20.1 21.9 20.1 22.0 20.05 22.0 19.8 22.0 19.65 22.0 19.35 22.0 19.15 22.0 18.8 22.05 18.7 22.1 18.6 22.25 18.05 22.45 18.5 22.0 18.7 21.65 19.0 21.75 19.1 21.4 19.2 21.0 19.25 20.5 19.25 20.35 Q19.25 19.6 18.85 18.85 L18.7 18.65 18.65 18.45 18.35 18.05 17.45 17.35 Q17.5 17.25 17.6 17.25 L17.65 17.2 18.3 16.95 M14.6 22.05 L14.65 22.1 15.45 22.6 15.85 22.8 16.1 22.85 16.05 22.85 14.55 22.55 14.6 22.05 M19.8 22.0 L19.0 21.75 19.8 22.0" fill="#917f95" fill-rule="evenodd" stroke="none"/>
      <path d="M25.55 17.95 L25.55 17.85 25.55 17.25 26.15 18.5 26.15 18.55 26.3 19.0 26.4 20.25 26.4 20.6 26.4 21.1 26.4 21.55 26.45 21.65 26.5 21.8 26.65 22.15 26.7 22.15 26.75 22.35 26.75 22.45 26.85 22.75 26.8 22.85 26.7 23.15 26.55 24.1 26.45 25.35 26.0 24.75 25.85 24.4 25.85 24.35 25.8 24.1 25.9 23.75 25.95 23.55 26.05 22.8 26.05 22.7 26.1 22.45 26.15 22.15 26.2 21.1 26.15 20.7 25.95 20.85 26.0 20.2 25.8 18.65 25.55 17.95" fill="#a39c99" fill-rule="evenodd" stroke="none"/>
      <path d="M23.55 16.65 L23.45 16.65 23.3 16.6 23.2 16.65 23.1 16.7 23.0 16.7 22.95 16.8 22.9 16.8 22.9 16.9 22.8 17.0 22.7 17.25 22.6 17.35 22.7 17.4 22.75 17.65 22.9 17.9 22.95 18.0 23.0 18.0 23.05 18.05 23.15 18.1 23.25 18.15 23.55 18.25 23.55 18.3 23.2 18.4 23.15 18.4 22.95 18.4 22.7 18.25 22.55 18.1 22.5 17.95 22.35 17.5 22.55 16.9 22.55 16.85 22.9 16.6 22.95 16.55 23.15 16.55 23.45 16.6 23.55 16.65" fill="#bc9a5a" fill-rule="evenodd" stroke="none"/>
      <path d="M23.2 22.35 L23.45 22.35 23.75 22.8 Q23.7 23.3 23.25 23.3 L23.1 23.2 22.95 23.15 22.9 22.85 23.0 22.45 23.15 22.35 23.2 22.35" fill="#fefff6" fill-rule="evenodd" stroke="none"/>
      <path d="M26.9 27.65 L26.1 27.65 24.6 26.1 25.05 27.65 23.5 27.65 22.7 25.4 22.95 27.65 19.8 27.65 19.85 27.55 20.05 27.05 20.45 25.8 21.1 25.5 21.35 25.4 21.55 25.3 21.6 25.25 21.8 25.2 21.85 25.15 22.6 24.65 22.7 24.6 23.2 24.3 23.3 24.2 23.95 23.75 24.1 24.3 Q24.65 25.45 25.7 26.55 L26.55 27.3 26.55 27.35 26.9 27.65" fill="#af8f6c" fill-rule="evenodd" stroke="none"/>
      <path d="M20.35 25.55 L20.45 25.5 20.5 25.5 20.9 25.35 21.25 25.25 21.35 25.4 21.1 25.5 20.7 25.55 20.5 25.55 20.35 25.55" fill="#d5ffff" fill-rule="evenodd" stroke="none"/>
      <path d="M17.0 26.15 L16.55 26.15 16.2 26.1 15.75 26.0 15.45 25.95 15.3 25.95 13.95 25.6 13.6 25.35 13.5 25.3 13.55 25.35 13.6 25.5 13.2 25.35 13.1 25.3 12.0 24.8 11.85 24.7 11.45 24.5 11.4 24.4 11.25 24.2 11.2 24.15 10.7 23.25 12.15 24.1 12.25 24.15 12.5 24.25 13.75 24.85 14.05 24.9 14.55 25.15 15.6 25.3 17.2 25.55 18.3 25.6 18.45 25.6 19.3 25.55 20.35 25.55 20.5 25.55 20.7 25.55 21.1 25.5 20.45 25.8 20.1 25.9 20.05 25.9 19.8 25.9 19.75 25.9 19.15 26.05 19.1 26.05 18.7 26.05 18.35 26.1 18.3 26.15 18.05 26.15 17.7 26.2 17.7 26.1 17.45 26.2 17.0 26.15" fill="#d3cfbb" fill-rule="evenodd" stroke="none"/>
      <path d="M25.4 23.4 L25.45 22.9 25.95 20.85 26.15 20.7 26.2 21.1 26.15 22.15 26.1 22.45 26.05 22.7 26.05 22.8 25.95 23.55 25.9 23.75 25.8 24.1 25.85 24.35 25.8 24.35 25.75 24.3 25.7 24.2 25.65 24.15 25.4 23.4 M25.7 24.2 L25.85 24.35 25.7 24.2" fill="#e5d7c3" fill-rule="evenodd" stroke="none"/>
      <path d="M14.75 18.55 L15.1 18.95 15.25 19.1 15.25 19.15 15.4 19.35 15.55 19.45 15.95 19.8 15.85 19.9 15.75 20.0 15.5 20.15 15.25 20.25 15.1 20.25 15.05 20.25 15.05 20.15 14.9 19.85 14.9 19.8 14.55 19.65 14.45 19.65 14.5 19.4 14.5 19.3 14.55 18.8 14.75 18.55 M16.85 20.6 L16.8 20.65 16.55 20.85 16.3 21.05 16.15 21.15 16.0 21.25 16.1 21.5 16.2 21.55 16.3 21.8 16.45 21.95 16.35 21.95 16.25 21.95 16.2 21.95 16.05 21.95 15.25 21.75 15.25 21.7 15.05 21.5 14.8 21.25 14.8 21.2 14.65 20.95 14.55 20.6 14.55 20.5 14.55 20.45 14.5 20.4 14.5 20.35 14.6 20.4 14.65 20.45 15.05 20.7 15.25 20.75 15.75 20.9 15.95 20.9 16.0 20.9 16.35 20.75 16.45 20.75 16.6 20.7 16.65 20.65 16.85 20.6" fill="#1a5160" fill-rule="evenodd" stroke="none"/>
      <path d="M15.95 19.8 L16.1 20.0 16.25 20.1 Q16.05 20.25 15.8 20.35 L15.6 20.5 15.3 20.5 15.35 20.55 15.7 20.7 15.8 20.75 15.95 20.75 16.05 20.75 16.4 20.7 16.6 20.7 16.45 20.75 16.35 20.75 16.0 20.9 15.95 20.9 15.75 20.9 15.25 20.75 15.05 20.7 14.65 20.45 14.6 20.4 14.5 20.35 14.25 20.2 14.2 19.9 14.3 19.7 14.45 19.65 14.55 19.65 14.9 19.8 14.9 19.85 15.05 20.15 15.05 20.25 15.1 20.25 15.25 20.25 15.5 20.15 15.75 20.0 15.85 19.9 15.95 19.8 M16.3 21.8 L16.2 21.55 16.1 21.5 16.0 21.25 16.15 21.15 16.3 21.3 16.3 21.45 16.3 21.8" fill="#46ffee" fill-rule="evenodd" stroke="none"/>
      <path d="M16.25 20.1 L16.85 20.6 16.65 20.65 16.6 20.7 16.4 20.7 16.05 20.75 15.95 20.75 15.8 20.75 15.7 20.7 15.35 20.55 15.3 20.5 15.6 20.5 15.8 20.35 Q16.05 20.25 16.25 20.1" fill="#1abf7e" fill-rule="evenodd" stroke="none"/>
      <path d="M19.35 20.8 L19.7 21.05 19.35 20.85 19.35 20.8 M17.7 18.65 L18.05 18.5 18.45 19.05 18.55 19.25 18.7 20.05 18.7 20.35 18.15 20.15 17.85 19.9 17.4 20.15 17.55 19.85 17.65 19.65 17.15 19.0 17.4 18.75 17.7 18.65 M18.05 18.8 L17.9 18.75 17.7 19.15 17.7 19.4 Q17.75 19.65 18.05 19.7 L18.4 19.55 18.4 19.35 18.35 19.0 18.25 18.9 18.05 18.8" fill="#e0f3ff" fill-rule="evenodd" stroke="none"/>
      <path d="M18.05 18.8 L18.25 18.9 18.35 19.0 18.4 19.35 18.4 19.55 18.05 19.7 Q17.75 19.65 17.7 19.4 L17.7 19.15 17.9 18.75 18.05 18.8" fill="#fffdfb" fill-rule="evenodd" stroke="none"/>
      <path d="M14.55 18.3 L14.6 18.35 14.75 18.55 14.55 18.8 14.5 19.3 14.5 19.4 14.45 19.65 14.3 19.7 14.2 19.9 14.25 20.2 14.5 20.35 14.5 20.4 14.55 20.45 14.55 20.5 14.55 20.6 14.65 20.95 14.8 21.2 14.8 21.25 15.05 21.5 15.25 21.7 15.25 21.75 16.05 21.95 16.2 21.95 16.25 21.95 16.35 21.95 16.45 21.95 16.3 21.8 16.3 21.45 16.3 21.3 16.6 20.95 16.75 20.75 16.8 20.7 16.9 20.6 17.0 20.7 17.2 20.85 17.25 20.85 18.05 21.35 18.3 21.45 18.4 21.5 18.3 21.65 Q18.15 21.75 18.05 21.8 L17.6 22.1 17.3 22.2 16.95 22.3 16.9 22.35 16.85 22.35 16.65 22.35 16.6 22.35 16.45 22.35 16.3 22.35 15.9 22.35 15.75 22.3 15.4 22.2 14.95 21.95 14.9 21.95 14.8 21.75 14.7 21.65 14.65 21.6 14.55 21.4 14.45 21.1 14.25 20.7 14.2 20.25 14.15 19.75 14.2 19.35 Q14.2 19.0 14.35 18.75 L14.55 18.3" fill="#358e62" fill-rule="evenodd" stroke="none"/>
      <path d="M18.4 21.5 L18.7 21.65 18.5 22.0 18.05 22.45 18.0 22.5 17.8 22.6 17.7 22.7 17.45 22.8 16.5 22.9 16.15 22.85 16.1 22.85 15.85 22.8 15.45 22.6 14.65 22.1 14.6 22.05 14.55 21.95 14.5 21.85 14.15 21.4 13.85 20.85 13.8 20.5 13.75 20.35 13.7 19.6 13.75 19.25 13.75 19.05 13.75 19.0 13.9 18.6 14.55 18.3 14.35 18.75 Q14.2 19.0 14.2 19.35 L14.15 19.75 14.2 20.25 14.25 20.7 14.45 21.1 14.55 21.4 14.65 21.6 14.7 21.65 14.8 21.75 14.9 21.95 14.95 21.95 15.4 22.2 15.75 22.3 15.9 22.35 16.3 22.35 16.45 22.35 16.6 22.35 16.65 22.35 16.85 22.35 16.9 22.35 16.95 22.3 17.3 22.2 17.6 22.1 18.05 21.8 Q18.15 21.75 18.3 21.65 L18.4 21.5" fill="#23593d" fill-rule="evenodd" stroke="none"/>
      <path d="M11.45 24.5 L11.9 25.05 11.95 25.1 11.8 25.1 11.75 25.1 11.75 25.05 11.75 25.0 11.45 24.5 M11.8 25.1 L11.75 25.05 11.8 25.1" fill="#c0d6eb" fill-rule="evenodd" stroke="none"/>
      <path d="M17.7 27.65 L16.6 27.65 16.65 27.5 16.65 27.4 16.65 27.3 17.0 26.15 17.45 26.2 17.7 26.2 18.05 26.15 18.3 26.15 17.75 27.5 17.7 27.65 M11.95 25.1 L12.0 25.25 12.0 25.35 12.05 25.55 12.1 25.65 12.1 25.85 12.15 26.1 12.15 26.65 12.15 26.7 12.15 26.95 12.15 27.3 12.05 27.3 12.05 27.2 12.05 26.65 12.0 26.2 12.0 26.15 12.0 25.65 12.0 25.55 11.8 25.1 11.95 25.1" fill="#96c8df" fill-rule="evenodd" stroke="none"/>
      <path d="M16.8 20.65 L16.75 20.75 16.6 20.95 16.3 21.3 16.15 21.15 16.3 21.05 16.55 20.85 16.8 20.65" fill="#1af3d4" fill-rule="evenodd" stroke="none"/>
      <path d="M16.1 5.1 L14.95 5.05 14.9 5.05 14.4 5.05 12.4 5.15 11.8 5.35 10.35 6.0 9.75 6.35 9.6 6.45 9.6 6.5 Q7.65 7.65 6.6 9.5 L6.6 9.55 6.55 9.55 6.6 9.5 M16.65 27.4 L16.65 27.3 17.0 26.15 16.55 26.15 16.2 26.1 15.75 26.0 15.45 25.95 15.3 25.95 13.95 25.6 13.6 25.5 13.2 25.35 13.1 25.3 12.0 24.8 11.85 24.7 11.45 24.5 M2.55 27.3 L2.5 27.3 2.45 27.1 2.4 26.95 2.35 26.9 2.35 26.95 2.5 27.3 M1.95 17.3 L2.25 16.6 2.5 16.15 3.1 15.3 3.95 14.35 4.15 14.15 4.15 13.8 4.2 13.6 4.65 12.45 5.45 11.0 6.25 9.95 6.55 9.55 M17.75 5.25 L16.1 5.1 M10.9 7.9 L10.75 7.95 Q10.4 8.1 10.05 8.45 L10.05 8.5 9.65 9.1 9.6 9.15 9.5 9.4 9.5 9.5 9.5 9.55 9.45 9.9 9.65 10.55 10.05 10.95 10.45 11.15 10.65 11.2 10.75 11.25 11.15 11.3 11.2 11.3 11.35 11.3 11.35 11.0 11.4 10.55 11.4 10.5 11.45 10.35 11.45 10.3 11.55 10.1 11.55 10.05 11.65 9.95 11.7 9.9 11.75 9.85 11.75 9.8 11.8 9.8 11.9 9.6 12.0 9.6 12.5 9.3 13.1 9.2 13.2 9.2 13.15 9.0 13.15 8.95 13.15 8.85 13.15 8.75 12.85 8.3 12.85 8.25 12.8 8.25 12.6 8.1 11.95 7.9 11.45 7.85 10.9 7.9 M14.45 9.6 L14.3 9.55 14.15 9.4 13.75 9.25 13.25 9.2 13.2 9.2 M14.0 12.75 L14.1 12.75 14.15 12.7 14.2 12.7 14.2 12.65 14.5 12.4 14.65 12.2 14.85 12.0 14.9 11.9 14.9 11.75 15.05 11.9 15.2 12.0 15.25 12.0 15.3 12.05 15.65 12.1 15.75 12.1 16.2 12.05 16.85 11.6 17.0 11.4 17.05 11.25 17.15 10.9 17.15 10.85 17.15 10.6 17.15 10.55 17.15 10.25 16.85 9.4 16.8 9.3 16.5 9.0 16.4 8.95 15.8 8.75 15.35 8.85 15.3 8.9 15.25 8.9 15.2 8.9 15.15 8.95 15.05 8.95 Q14.95 8.95 14.9 9.05 L14.55 9.75 14.65 9.85 15.0 9.0 15.15 8.95 M14.45 9.6 L14.55 9.75 M14.65 9.85 L14.75 9.9 14.9 10.05 15.05 10.3 15.1 10.4 15.2 10.65 15.2 10.7 15.2 10.8 15.2 10.9 15.2 11.0 15.1 11.4 15.05 11.6 14.9 11.75 M10.75 7.95 Q10.35 8.1 9.95 8.5 L9.9 8.55 9.5 9.15 9.45 9.2 9.35 9.45 9.35 9.55 9.35 9.6 9.35 9.95 9.5 10.6 9.95 11.0 10.35 11.2 10.5 11.25 10.65 11.3 11.05 11.35 11.2 11.35 11.2 11.3 M7.6 12.0 L8.85 11.6 10.05 11.4 10.1 11.4 10.25 11.4 10.4 11.45 10.6 11.5 10.9 11.65 M13.75 12.9 L13.25 12.95 12.8 12.85 12.6 12.75 12.3 12.65 12.15 12.5 12.05 12.4 Q11.5 12.05 11.4 11.4 L11.35 11.3 M11.2 11.35 L11.25 11.45 Q11.4 12.05 11.9 12.45 L12.05 12.55 12.15 12.7 12.5 12.8 12.65 12.9 13.15 13.0 13.75 12.9 14.0 12.75 14.0 12.85 14.0 12.9 14.0 13.0 14.0 13.35 14.0 13.5 13.85 14.2 13.85 14.25 Q13.55 15.85 12.5 17.25 L12.25 17.55 12.2 17.6 11.8 18.05 11.25 18.65 10.9 18.95 10.75 19.05 10.75 19.1 10.5 19.3 10.45 19.35 10.45 19.4 10.05 19.65 9.8 19.75 9.2 20.15 9.1 20.25 8.9 20.35 8.3 20.7 7.9 20.85 7.7 20.9 7.65 20.9 6.9 21.15 6.85 21.2 6.8 21.2 6.0 21.4 5.9 21.4 5.6 21.45 5.4 21.5 4.95 21.6 4.8 21.6 4.65 21.6 4.6 21.6 4.45 21.65 3.95 21.7 3.75 21.7 3.25 21.7 3.15 21.7 2.6 21.7 2.6 21.85 2.75 22.6 2.75 22.65 2.8 23.1 2.85 23.2 3.2 22.6 3.65 21.85 3.75 21.7 M11.3 12.05 L11.2 11.65 11.05 11.35 M11.2 13.75 L11.2 13.55 11.25 13.4 11.3 12.4 11.3 12.05 10.75 11.95 10.5 11.9 10.2 11.85 10.05 11.85 9.8 11.85 8.9 11.95 8.85 11.95 8.35 12.05 7.65 12.2 6.7 12.65 5.95 13.1 5.75 13.25 5.3 13.65 4.85 14.1 4.2 14.95 4.1 15.2 4.15 15.7 4.3 16.95 4.35 17.4 4.45 18.1 4.5 18.4 4.6 19.7 4.45 20.25 4.25 20.3 4.25 20.35 4.0 20.35 2.65 20.7 2.55 20.7 2.1 20.8 1.95 20.85 M5.6 19.85 L5.75 19.75 6.25 19.6 7.35 18.95 7.4 18.95 8.2 18.4 8.25 18.35 9.0 17.7 9.7 16.95 9.7 16.9 9.9 16.7 9.95 16.55 Q10.9 15.2 11.2 13.75 M15.35 8.85 L15.3 8.9 M14.9 11.9 L14.95 11.95 15.05 12.05 15.1 12.05 15.2 12.1 15.6 12.15 16.2 12.05 M5.4 13.15 L4.6 13.75 4.45 13.9 4.15 14.15 M5.4 13.15 L5.6 13.0 5.95 12.75 6.05 12.75 6.6 12.4 7.6 12.0 M5.05 20.05 L5.3 19.95 5.6 19.85 M5.05 20.05 L5.0 20.05 4.85 20.1 4.45 20.25 M2.55 20.7 L2.55 20.55 2.55 20.5 2.55 19.9 2.65 19.25 2.65 19.0 2.9 17.75 2.95 17.6 3.4 16.45 3.8 15.7 4.1 15.2 M2.9 23.4 L3.05 23.75 3.1 23.9 3.3 24.2 3.35 24.25 3.5 24.5 3.55 24.6 3.6 24.75 3.9 25.15 4.05 25.35 4.15 25.55 4.45 25.9 4.5 26.0 4.5 26.05 4.8 26.4 4.85 26.5 5.05 26.9 5.3 27.3 M2.9 23.4 L2.85 23.2 M2.05 21.65 L2.6 21.7 M1.95 21.65 L2.05 21.65 M1.95 25.7 L2.1 26.25 2.25 26.7 2.3 26.8 2.35 26.9 M1.95 24.5 L1.75 24.75 1.6 24.85 M20.05 22.0 L19.8 22.0 19.0 21.75 19.1 21.4 19.2 21.0 19.25 20.5 19.25 20.35 Q19.25 19.6 18.85 18.85 L18.7 18.65 18.65 18.45 18.35 18.05 17.45 17.35 17.35 17.25 M14.55 18.3 L14.6 18.35 14.75 18.55 15.1 18.95 15.25 19.1 15.25 19.15 15.4 19.35 15.55 19.45 15.95 19.8 16.1 20.0 16.25 20.1 16.85 20.6 M16.9 20.6 L17.0 20.7 17.2 20.85 17.25 20.85 18.05 21.35 18.3 21.45 18.4 21.5 18.7 21.65 19.0 21.75 M13.9 18.6 L13.75 19.0 M13.75 19.05 L13.75 19.25 13.7 19.6 13.75 20.35 13.8 20.5 13.85 20.85 14.15 21.4 14.5 21.85 14.55 21.95 14.6 22.05 14.65 22.1 15.45 22.6 15.85 22.8 16.1 22.85 16.15 22.85 16.5 22.9 17.45 22.8 17.7 22.7 17.8 22.6 18.0 22.5 18.05 22.45 18.5 22.0 18.7 21.65 M17.7 26.2 L18.05 26.15 M17.7 26.2 L17.45 26.2 17.0 26.15 M16.65 27.4 L16.65 27.5 16.6 27.65" fill="none" stroke="#390909" stroke-linecap="round" stroke-linejoin="round" stroke-width="0.5"/>
      <path d="M18.75 5.45 L18.55 5.4 17.75 5.25 M20.75 5.9 L21.5 6.15 22.1 6.55 23.45 7.75 23.6 7.9 M20.75 5.9 L19.7 5.6 18.8 5.4" fill="none" stroke="#604440" stroke-linecap="round" stroke-linejoin="round" stroke-width="0.5"/>
      <path d="M23.6 7.9 L24.25 8.65 25.0 9.95 25.05 10.1 25.05 10.15 25.05 10.6 25.1 11.8 25.1 12.2 25.1 12.6 24.65 13.1 24.6 13.15 25.25 14.8 25.4 15.6 25.55 16.45 25.55 17.2 25.55 17.25 25.55 17.85 25.55 17.95 25.55 18.15 Q25.35 18.2 25.25 18.4 L25.05 18.65 24.95 18.95 24.95 19.0 24.6 19.8 24.4 20.55 24.25 21.2 24.2 21.8 24.2 21.95 M23.9 13.95 L24.1 13.75 24.25 13.45 24.6 13.15" fill="none" stroke="#72514c" stroke-linecap="round" stroke-linejoin="round" stroke-width="0.5"/>
      <path d="M23.2 14.6 L23.35 14.5 23.9 14.05 23.9 13.95 M22.9 14.9 L23.05 14.8 23.2 14.65 23.2 14.6 M22.9 14.9 L21.9 15.55 20.25 16.35 19.9 16.5 18.4 16.9 18.3 16.95 17.65 17.2 17.6 17.25 17.35 17.25 16.2 17.6 14.8 18.15 14.55 18.3 13.9 18.6 Q13.25 18.95 12.7 19.35 L11.85 20.0 11.6 20.2 10.65 21.15 10.35 21.7 10.2 22.1 10.7 23.25 11.2 24.15 11.25 24.2 11.4 24.4 11.45 24.5 11.75 25.0 11.75 25.05 11.8 25.1 12.0 25.55 12.0 25.65 12.0 26.15 12.0 26.2 12.05 26.65 12.05 27.2 12.05 27.3" fill="none" stroke="#562e12" stroke-linecap="round" stroke-linejoin="round" stroke-width="0.5"/>
      <path d="M25.4 15.6 L25.5 15.7 26.15 16.65 26.25 16.8 26.4 17.05 26.45 17.2 26.5 17.25 26.65 17.55 26.8 17.95 26.85 17.95 26.85 18.05 26.9 18.05 26.9 18.1 26.95 18.25 27.0 18.3 27.05 18.55 27.15 18.7 27.15 18.85 27.25 19.1 27.25 19.25 27.3 19.25 27.3 19.35 27.35 19.4 27.45 20.15 27.45 20.2 27.5 20.55 27.5 20.65 27.5 20.75 27.6 21.4 27.65 22.25 27.65 22.35 27.7 22.45 27.65 23.15 27.4 25.2 27.3 25.65 27.25 26.05 M26.65 17.55 L26.5 17.3 26.5 17.25 M26.85 18.05 L26.8 17.95 M25.4 23.4 L25.45 22.9 25.95 20.85 26.0 20.2 25.8 18.65 25.55 17.95 M27.65 23.15 L27.65 22.75 27.65 22.6 27.65 22.45 27.65 22.35" fill="none" stroke="#593f3b" stroke-linecap="round" stroke-linejoin="round" stroke-width="0.5"/>
      <path d="M21.35 25.4 L21.55 25.3 21.6 25.25 21.8 25.2 21.85 25.15 22.6 24.65 22.7 24.6 23.2 24.3 23.3 24.2 23.95 23.75 24.25 23.5 24.25 23.1 24.25 22.9 24.2 22.1 24.2 22.0 24.2 21.95 M21.1 25.5 L21.35 25.4 M20.45 25.8 L20.1 25.9 20.05 25.9 19.8 25.9 19.75 25.9 19.15 26.05 M19.1 26.05 L18.7 26.05 18.35 26.1 18.3 26.15 18.05 26.15 M21.1 25.5 L20.45 25.8" fill="none" stroke="#563d39" stroke-linecap="round" stroke-linejoin="round" stroke-width="0.5"/>
      <path d="M27.25 26.05 L27.4 26.15 27.45 26.2 M24.95 19.0 L24.85 20.0 25.1 22.2 25.15 22.45 25.4 23.4 25.65 24.15 25.7 24.2 25.75 24.3 25.8 24.35 25.85 24.35 25.7 24.2 M26.45 25.35 L26.7 25.6 27.15 26.0 27.25 26.05 M26.45 25.35 L26.0 24.75 25.85 24.4" fill="none" stroke="#4c270e" stroke-linecap="round" stroke-linejoin="round" stroke-width="0.5"/>
    </g>
  </defs>
</svg>
