<?xml version="1.0" encoding="UTF-8" standalone="no"?>
<svg xmlns:ffdec="https://www.free-decompiler.com/flash" xmlns:xlink="http://www.w3.org/1999/xlink" ffdec:objectType="frame" height="30.0px" width="30.05px" xmlns="http://www.w3.org/2000/svg">
  <g transform="matrix(1.0, 0.0, 0.0, 1.0, 0.0, 0.0)">
    <use ffdec:characterId="1" height="30.0" transform="matrix(1.0, 0.0, 0.0, 1.0, 0.0, 0.0)" width="30.05" xlink:href="#shape0"/>
  </g>
  <defs>
    <g id="shape0" transform="matrix(1.0, 0.0, 0.0, 1.0, 0.0, 0.0)">
      <path d="M0.0 0.0 L30.0 0.0 30.0 30.0 0.0 30.0 0.0 0.0" fill="#33cc66" fill-opacity="0.0" fill-rule="evenodd" stroke="none"/>
      <path d="M3.35 0.0 L26.75 0.0 Q30.05 0.0 30.05 3.3 L30.05 26.7 Q30.05 30.0 26.75 30.0 L3.35 30.0 Q0.05 30.0 0.05 26.7 L0.05 3.3 Q0.05 0.0 3.35 0.0" fill="#949bd0" fill-rule="evenodd" stroke="none"/>
      <path d="M20.5 15.5 L20.5 15.55 20.0 16.45 19.8 16.7 16.15 22.35 16.05 22.45 15.25 23.8 14.05 24.35 13.25 24.75 12.4 25.2 11.6 25.6 10.8 25.95 10.7 26.05 10.5 26.1 9.65 22.75 9.65 22.7 8.95 20.1 7.8 15.65 7.65 15.25 7.75 15.2 8.15 14.75 10.7 12.1 10.85 11.95 11.05 11.6 15.85 6.65 16.6 5.95 16.95 5.55 17.35 5.15 17.45 5.15 17.65 4.9 18.15 6.55 18.25 6.95 20.35 14.9 20.5 15.5 Z" fill="none" stroke="#ffffff" stroke-linecap="round" stroke-linejoin="round" stroke-width="3.5"/>
      <path d="M27.25 13.0 L25.15 21.0 25.05 21.55 25.0 21.65 24.05 22.2 23.75 22.3 17.8 25.35 16.35 26.15 15.0 26.1 14.1 26.0 13.1 25.9 12.2 25.9 11.4 25.8 11.25 25.85 11.1 25.85 12.0 22.45 12.1 22.4 12.65 19.75 13.95 15.35 13.95 14.95 14.1 14.9 14.7 14.8 18.25 13.7 18.45 13.7 Q18.6 13.5 18.8 13.5 L25.35 11.65 26.4 11.35 26.9 11.2 27.45 11.05 27.55 11.1 27.85 10.95 Q27.4 12.35 27.45 12.6 L27.25 13.0 Z" fill="none" stroke="#ffffff" stroke-linecap="round" stroke-linejoin="round" stroke-width="3.5"/>
      <path d="M7.25 6.15 L7.0 5.7 6.6 5.3 6.45 5.3 6.4 5.0 5.7 6.55 5.6 6.95 2.55 14.7 2.35 15.2 2.35 15.3 2.8 16.3 2.95 16.55 5.95 22.55 6.7 24.05 7.8 24.8 8.55 25.2 9.35 25.75 10.15 26.3 10.9 26.75 11.0 26.8 11.1 26.95 12.4 23.6 12.35 23.55 13.4 21.1 14.95 16.75 15.15 16.45 15.1 16.3 14.7 15.9 12.5 12.9 12.3 12.8 12.15 12.4 8.0 7.0 7.25 6.15 Z" fill="none" stroke="#ffffff" stroke-linecap="round" stroke-linejoin="round" stroke-width="3.5"/>
      <path d="M20.65 15.55 L20.65 15.6 20.1 16.5 18.95 16.5 16.8 16.45 Q16.25 17.55 16.15 18.15 L16.15 18.2 16.1 18.45 16.3 22.4 16.2 22.5 15.45 23.75 15.45 23.1 15.55 20.95 15.7 18.0 15.7 17.95 15.65 17.85 17.05 15.6 17.05 15.65 17.15 15.7 17.2 15.65 20.3 15.55 20.65 15.55" fill="#096df6" fill-rule="evenodd" stroke="none"/>
      <path d="M17.5 5.15 L17.55 5.15 17.6 6.5 17.7 9.2 Q17.8 13.05 18.2 14.15 L18.85 14.0 18.7 14.6 18.45 15.05 18.55 15.15 20.45 14.9 20.65 15.55 20.3 15.55 17.2 15.65 17.15 15.7 17.05 15.65 17.05 15.6 17.05 15.55 17.3 8.65 17.45 6.35 17.5 5.15" fill="#0d36c4" fill-rule="evenodd" stroke="none"/>
      <path d="M20.1 16.5 L19.95 16.75 16.3 22.4 16.1 18.45 16.15 18.2 16.15 18.15 Q16.25 17.55 16.8 16.45 L18.95 16.5 20.1 16.5" fill="#1b8af3" fill-rule="evenodd" stroke="none"/>
      <path d="M17.1 5.6 L17.5 5.15 17.45 6.35 17.3 8.65 17.05 15.55 17.05 15.6 15.65 17.85 15.6 18.0 15.55 17.95 14.6 17.55 15.5 16.25 15.95 15.45 16.05 15.25 16.25 13.95 16.7 10.5 17.05 6.15 17.1 5.6" fill="#88efee" fill-rule="evenodd" stroke="none"/>
      <path d="M11.2 11.6 L16.0 6.7 16.75 6.0 17.1 5.6 17.05 6.15 16.7 10.5 16.25 13.95 14.9 11.85 13.4 11.7 11.95 11.7 11.2 11.6 M15.7 18.0 L15.55 20.95 15.45 23.1 Q13.75 23.8 13.7 23.95 L13.65 23.85 13.85 23.55 14.55 22.8 14.75 22.45 14.45 22.5 14.2 22.55 14.9 20.3 15.6 18.05 15.7 18.0" fill="#34dbed" fill-rule="evenodd" stroke="none"/>
      <path d="M17.55 5.15 L17.75 4.95 18.3 6.55 18.35 6.95 20.45 14.9 18.55 15.15 18.45 15.05 18.7 14.6 18.85 14.0 18.2 14.15 Q17.8 13.05 17.7 9.2 L17.6 6.5 17.55 5.15" fill="#4352c5" fill-rule="evenodd" stroke="none"/>
      <path d="M7.95 15.7 L7.8 15.3 7.9 15.2 11.45 16.45 14.6 17.55 14.25 18.15 12.4 17.4 Q10.05 16.3 7.95 15.7" fill="#a7f6fa" fill-rule="evenodd" stroke="none"/>
      <path d="M7.9 15.2 L8.3 14.8 15.5 16.25 14.6 17.55 11.45 16.45 7.9 15.2" fill="#9ef4f5" fill-rule="evenodd" stroke="none"/>
      <path d="M10.85 12.15 L11.0 12.0 11.2 11.6 11.95 11.7 13.4 11.7 14.9 11.85 16.25 13.95 16.05 15.25 15.95 15.45 15.75 15.1 15.15 14.05 14.3 12.85 12.65 12.45 10.85 12.15" fill="#78f6f5" fill-rule="evenodd" stroke="none"/>
      <path d="M8.3 14.8 L10.85 12.15 12.65 12.45 14.3 12.85 15.15 14.05 15.75 15.1 15.95 15.45 15.5 16.25 8.3 14.8" fill="#45e9eb" fill-rule="evenodd" stroke="none"/>
      <path d="M10.95 26.0 L10.85 26.1 10.65 26.15 9.8 22.75 9.05 20.15 10.1 21.15 10.85 22.1 11.2 21.6 11.55 20.75 11.7 20.2 11.75 20.15 11.95 21.0 Q11.95 21.2 12.3 21.6 L14.4 18.3 14.25 18.15 14.6 17.55 15.55 17.95 15.6 18.0 15.55 18.1 15.4 18.3 13.6 21.55 11.25 25.35 10.95 26.0" fill="#edf7f8" fill-rule="evenodd" stroke="none"/>
      <path d="M15.45 23.75 L15.4 23.85 14.2 24.4 13.4 24.8 12.55 25.25 11.7 25.65 10.95 26.0 11.25 25.35 13.6 21.55 15.4 18.3 15.55 18.1 15.6 18.0 15.65 17.85 15.7 17.95 15.7 18.0 15.6 18.05 14.9 20.3 14.2 22.55 14.45 22.5 14.75 22.45 14.55 22.8 13.85 23.55 13.65 23.85 13.7 23.95 Q13.75 23.8 15.45 23.1 L15.45 23.75" fill="#25fffb" fill-rule="evenodd" stroke="none"/>
      <path d="M9.05 20.15 L7.95 15.7 Q10.05 16.3 12.4 17.4 L14.25 18.15 14.4 18.3 12.3 21.6 Q11.95 21.2 11.95 21.0 L11.75 20.15 11.7 20.2 11.55 20.75 11.2 21.6 10.85 22.1 10.1 21.15 9.05 20.15" fill="#56f4f5" fill-rule="evenodd" stroke="none"/>
      <path d="M20.65 15.55 L20.65 15.6 20.1 16.5 19.95 16.75 16.3 22.4 16.2 22.5 15.45 23.75 15.4 23.85 14.2 24.4 13.4 24.8 12.55 25.25 11.7 25.65 10.95 26.0 10.85 26.1 10.65 26.15 9.8 22.75 9.05 20.15 7.95 15.7 7.8 15.3 7.9 15.2 8.3 14.8 10.85 12.15 11.0 12.0 11.2 11.6 16.0 6.7 16.75 6.0 17.1 5.6 17.5 5.15 17.55 5.15 17.75 4.95 18.3 6.55 18.35 6.95 20.45 14.9 20.65 15.55 Z" fill="none" stroke="#53f5f7" stroke-linecap="round" stroke-linejoin="round" stroke-width="1.0"/>
      <path d="M2.7 15.15 L5.75 7.35 5.8 7.0 6.5 5.4 6.7 5.65 6.4 7.0 6.15 9.65 Q5.65 13.5 5.15 14.55 L4.4 14.3 4.6 14.95 4.8 15.4 4.65 15.55 2.7 15.15" fill="#4352c5" fill-rule="evenodd" stroke="none"/>
      <path d="M2.7 15.15 L4.65 15.55 4.8 15.4 4.6 14.95 4.4 14.3 5.15 14.55 Q5.65 13.5 6.15 9.65 L6.4 7.0 6.7 5.65 6.75 5.65 6.65 6.9 6.6 9.15 6.1 16.15 6.1 16.2 5.95 16.25 5.95 16.2 2.9 15.75 2.55 15.65 2.7 15.15" fill="#0d36c4" fill-rule="evenodd" stroke="none"/>
      <path d="M7.05 6.15 L7.4 6.6 8.1 7.4 12.25 12.75 11.55 12.75 10.1 12.7 8.65 12.7 7.05 14.6 Q6.95 13.25 7.0 11.05 L7.05 6.75 7.05 6.15 M7.2 18.7 L7.25 18.8 7.7 21.0 8.25 23.35 7.95 23.2 7.65 23.15 7.85 23.6 8.45 24.35 8.6 24.75 8.55 24.8 6.9 23.7 6.95 21.6 7.2 18.7" fill="#34dbed" fill-rule="evenodd" stroke="none"/>
      <path d="M6.75 5.65 L7.05 6.15 7.05 6.75 7.0 11.05 Q6.95 13.25 7.05 14.6 L7.15 15.85 7.25 16.05 7.6 16.95 8.3 18.35 7.4 18.65 7.3 18.7 7.3 18.45 6.1 16.15 6.6 9.15 6.65 6.9 6.75 5.65" fill="#88efee" fill-rule="evenodd" stroke="none"/>
      <path d="M6.8 24.45 L6.2 23.1 6.15 22.95 6.7 19.05 6.7 18.8 Q6.65 18.15 6.2 17.0 L4.05 16.8 2.95 16.75 2.5 15.75 2.55 15.65 2.9 15.75 5.95 16.2 5.95 16.25 6.1 16.2 6.1 16.15 7.3 18.45 7.15 18.6 7.2 18.7 6.95 21.6 6.9 23.7 6.8 24.45" fill="#096df6" fill-rule="evenodd" stroke="none"/>
      <path d="M6.15 22.95 L3.1 16.9 2.95 16.75 4.05 16.8 6.2 17.0 Q6.65 18.15 6.7 18.8 L6.7 19.05 6.15 22.95" fill="#1b8af3" fill-rule="evenodd" stroke="none"/>
      <path d="M12.25 12.75 L12.5 13.15 12.65 13.25 10.8 13.45 9.05 13.7 8.15 14.8 7.45 15.75 7.25 16.05 7.15 15.85 7.05 14.6 8.65 12.7 10.1 12.7 11.55 12.75 12.25 12.75" fill="#78f6f5" fill-rule="evenodd" stroke="none"/>
      <path d="M12.65 13.25 L14.85 16.25 7.6 16.95 7.25 16.05 7.45 15.75 8.15 14.8 9.05 13.7 10.8 13.45 12.65 13.25" fill="#45e9eb" fill-rule="evenodd" stroke="none"/>
      <path d="M11.05 27.1 L10.35 26.7 9.6 26.2 8.75 25.65 7.95 25.2 6.9 24.4 6.8 24.45 6.9 23.7 8.55 24.8 8.6 24.75 8.45 24.35 7.85 23.6 7.65 23.15 7.95 23.2 8.25 23.35 7.7 21.0 7.25 18.8 7.2 18.7 7.15 18.6 7.3 18.45 7.3 18.7 7.35 18.8 7.4 18.95 8.9 22.4 10.85 26.4 11.05 27.1" fill="#25fffb" fill-rule="evenodd" stroke="none"/>
      <path d="M13.55 21.45 L12.5 23.9 12.55 24.0 11.35 27.2 11.15 27.2 11.05 27.1 10.85 26.4 8.9 22.4 7.4 18.95 7.35 18.8 7.3 18.7 7.4 18.65 8.3 18.35 8.6 18.95 8.45 19.05 10.15 22.6 10.6 22.0 10.85 21.2 10.95 21.25 11.05 21.8 11.3 22.7 11.55 23.2 12.4 22.45 13.55 21.45" fill="#edf7f8" fill-rule="evenodd" stroke="none"/>
      <path d="M15.1 17.1 L13.55 21.45 12.4 22.45 11.55 23.2 11.3 22.7 11.05 21.8 10.95 21.25 10.85 21.2 10.6 22.0 10.15 22.6 8.45 19.05 8.6 18.95 10.55 18.3 15.1 17.1" fill="#56f4f5" fill-rule="evenodd" stroke="none"/>
      <path d="M15.25 16.65 L15.3 16.75 15.1 17.1 10.55 18.3 8.6 18.95 8.3 18.35 11.6 17.55 15.25 16.65" fill="#a7f6fa" fill-rule="evenodd" stroke="none"/>
      <path d="M14.85 16.25 L15.25 16.65 11.6 17.55 8.3 18.35 7.6 16.95 14.85 16.25" fill="#9ef4f5" fill-rule="evenodd" stroke="none"/>
      <path d="M6.7 5.65 L6.5 5.4 5.8 7.0 5.75 7.35 2.7 15.15 2.55 15.65 2.5 15.75 2.95 16.75 3.1 16.9 6.15 22.95 6.2 23.1 6.8 24.45 6.9 24.4 7.95 25.2 8.75 25.65 9.6 26.2 10.35 26.7 11.05 27.1 11.15 27.2 11.35 27.2 12.55 24.0 12.5 23.9 13.55 21.45 15.1 17.1 15.3 16.75 15.25 16.65 14.85 16.25 12.65 13.25 12.5 13.15 12.25 12.75 8.1 7.4 7.4 6.6 7.05 6.15 6.75 5.65 6.7 5.65 Z" fill="none" stroke="#53f5f7" stroke-linecap="round" stroke-linejoin="round" stroke-width="1.0"/>
      <path d="M27.8 10.95 L27.9 10.95 27.3 12.15 25.95 14.5 Q24.05 17.95 23.9 19.05 L24.55 19.3 24.1 19.7 23.65 19.95 23.75 20.15 25.5 20.9 25.35 21.5 25.05 21.35 22.3 19.85 22.25 19.9 22.2 19.75 25.9 13.85 27.2 11.95 27.8 10.95" fill="#0d36c4" fill-rule="evenodd" stroke="none"/>
      <path d="M27.25 11.1 L27.8 10.95 27.2 11.95 25.9 13.85 22.2 19.75 19.85 20.95 19.7 21.15 19.65 21.05 19.1 20.25 20.5 19.5 21.35 19.0 21.5 18.9 22.35 17.95 24.45 15.15 26.95 11.6 27.25 11.1" fill="#88efee" fill-rule="evenodd" stroke="none"/>
      <path d="M27.9 10.95 L28.15 10.9 27.8 12.55 27.65 12.85 25.5 20.9 23.75 20.15 23.65 19.95 24.1 19.7 24.55 19.3 23.9 19.05 Q24.05 17.95 25.95 14.5 L27.3 12.15 27.9 10.95" fill="#4352c5" fill-rule="evenodd" stroke="none"/>
      <path d="M19.2 13.4 L25.7 11.5 26.8 11.3 27.25 11.1 26.95 11.6 24.45 15.15 22.35 17.95 22.15 15.45 21.05 14.65 19.7 13.85 19.2 13.4 M17.1 25.4 L15.15 25.3 15.1 25.25 15.45 25.0 16.4 24.7 16.8 24.55 16.55 24.45 16.25 24.35 18.05 22.75 19.75 21.15 19.8 21.2 18.3 23.65 17.1 25.4" fill="#34dbed" fill-rule="evenodd" stroke="none"/>
      <path d="M18.6 13.6 L18.8 13.6 Q18.95 13.45 19.2 13.4 L19.7 13.85 21.05 14.65 22.15 15.45 22.35 17.95 21.5 18.9 21.35 19.0 21.3 18.65 21.35 17.5 21.25 16.0 19.95 14.8 18.6 13.6" fill="#78f6f5" fill-rule="evenodd" stroke="none"/>
      <path d="M15.05 14.7 L18.6 13.6 19.95 14.8 21.25 16.0 21.35 17.5 21.3 18.65 21.35 19.0 20.5 19.5 15.05 14.7" fill="#45e9eb" fill-rule="evenodd" stroke="none"/>
      <path d="M25.35 21.5 L25.3 21.6 Q24.85 21.75 24.4 22.05 L23.5 21.5 21.6 20.4 20.1 21.55 20.15 21.55 19.95 21.7 18.15 25.25 16.7 26.05 17.1 25.4 18.3 23.65 19.8 21.2 19.9 21.1 19.85 20.95 22.2 19.75 22.25 19.9 22.3 19.85 25.05 21.35 25.35 21.5" fill="#096df6" fill-rule="evenodd" stroke="none"/>
      <path d="M14.3 15.25 L14.35 14.85 14.45 14.8 16.95 17.65 19.1 20.25 18.55 20.6 17.3 18.95 14.3 15.25" fill="#a7f6fa" fill-rule="evenodd" stroke="none"/>
      <path d="M14.45 14.8 L15.05 14.7 20.5 19.5 19.1 20.25 16.95 17.65 14.45 14.8" fill="#9ef4f5" fill-rule="evenodd" stroke="none"/>
      <path d="M13.0 19.7 L14.3 15.25 17.3 18.95 18.55 20.6 18.6 20.75 15.1 22.6 Q14.95 22.05 15.1 21.85 L15.35 21.05 15.25 21.05 14.85 21.4 14.1 22.05 13.65 22.25 13.4 21.1 13.0 19.7" fill="#56f4f5" fill-rule="evenodd" stroke="none"/>
      <path d="M11.7 25.7 L11.55 25.75 11.4 25.65 12.35 22.3 12.4 22.3 13.0 19.7 13.4 21.1 13.65 22.25 14.1 22.05 14.85 21.4 15.25 21.05 15.35 21.05 15.1 21.85 Q14.95 22.05 15.1 22.6 L18.6 20.75 18.55 20.6 19.1 20.25 19.65 21.05 19.7 21.15 19.6 21.15 19.45 21.25 16.25 23.2 Q13.85 24.4 12.35 25.3 L11.7 25.7" fill="#edf7f8" fill-rule="evenodd" stroke="none"/>
      <path d="M16.7 26.05 L16.65 26.05 15.35 25.95 14.5 25.85 13.45 25.8 12.55 25.75 11.7 25.7 12.35 25.3 Q13.85 24.4 16.25 23.2 L19.45 21.25 19.6 21.15 19.7 21.15 19.85 20.95 19.9 21.1 19.8 21.2 19.75 21.15 18.05 22.75 16.25 24.35 16.55 24.45 16.8 24.55 16.4 24.7 15.45 25.0 15.1 25.25 15.15 25.3 17.1 25.4 16.7 26.05" fill="#25fffb" fill-rule="evenodd" stroke="none"/>
      <path d="M24.4 22.05 L24.15 22.2 18.15 25.25 19.95 21.7 20.15 21.55 20.1 21.55 21.6 20.4 23.5 21.5 24.4 22.05" fill="#1b8af3" fill-rule="evenodd" stroke="none"/>
      <path d="M19.2 13.4 L25.7 11.5 26.8 11.3 27.25 11.1 27.8 10.95 27.9 10.95 28.15 10.9 27.8 12.55 27.65 12.85 25.5 20.9 25.35 21.5 25.3 21.6 Q24.85 21.75 24.4 22.05 L24.15 22.2 18.15 25.25 16.7 26.05 16.65 26.05 15.35 25.95 14.5 25.85 13.45 25.8 12.55 25.75 11.7 25.7 11.55 25.75 11.4 25.65 12.35 22.3 12.4 22.3 13.0 19.7 14.3 15.25 14.35 14.85 14.45 14.8 15.05 14.7 18.6 13.6 18.8 13.6 Q18.95 13.45 19.2 13.4 Z" fill="none" stroke="#53f5f7" stroke-linecap="round" stroke-linejoin="round" stroke-width="1.0"/>
    </g>
  </defs>
</svg>
