<?xml version="1.0" encoding="UTF-8" standalone="no"?>
<svg xmlns:ffdec="https://www.free-decompiler.com/flash" xmlns:xlink="http://www.w3.org/1999/xlink" ffdec:objectType="frame" height="30.0px" width="30.05px" xmlns="http://www.w3.org/2000/svg">
  <g transform="matrix(1.0, 0.0, 0.0, 1.0, 0.0, 0.0)">
    <use ffdec:characterId="1" height="30.0" transform="matrix(1.0, 0.0, 0.0, 1.0, 0.0, 0.0)" width="30.05" xlink:href="#shape0"/>
  </g>
  <defs>
    <g id="shape0" transform="matrix(1.0, 0.0, 0.0, 1.0, 0.0, 0.0)">
      <path d="M0.0 0.0 L30.0 0.0 30.0 30.0 0.0 30.0 0.0 0.0" fill="#33cc66" fill-opacity="0.0" fill-rule="evenodd" stroke="none"/>
      <path d="M26.75 0.0 L28.0 0.15 Q30.05 0.7 30.05 3.3 L30.05 26.7 29.85 28.15 Q29.2 30.0 26.75 30.0 L3.35 30.0 Q0.9 30.0 0.25 28.15 L0.05 26.7 0.05 3.3 Q0.05 0.7 2.1 0.15 L3.35 0.0 26.75 0.0" fill="#f4c402" fill-rule="evenodd" stroke="none"/>
      <path d="M4.15 22.8 Q4.55 23.25 5.4 23.4 L22.3 23.6 22.7 23.4 Q23.7 23.0 23.7 21.8 L23.85 13.4 Q21.5 12.65 21.95 5.05 L22.05 4.5 18.5 4.35 18.5 5.1 Q18.4 8.65 15.75 9.2 L13.0 9.15 Q9.6 9.1 9.4 5.05 L9.5 4.1 5.75 4.2 Q5.85 11.3 3.65 12.9 L3.4 20.95 Q3.55 21.95 3.95 22.6" fill="none" stroke="#ffffff" stroke-linecap="round" stroke-linejoin="round" stroke-width="3.5"/>
      <path d="M21.25 11.75 L20.05 12.7 Q16.6 15.6 14.65 18.95 L17.95 18.95 17.95 26.55 24.45 26.55 24.45 18.95 27.85 18.95 Q25.4 14.75 21.25 11.75 Z" fill="none" stroke="#ffffff" stroke-linecap="round" stroke-linejoin="round" stroke-width="3.5"/>
      <path d="M3.95 22.7 Q3.55 22.05 3.4 21.0 L3.65 13.0 Q5.85 11.4 5.75 4.3 L9.5 4.2 9.4 5.15 Q9.6 9.2 13.0 9.25 L15.75 9.25 Q18.4 8.75 18.5 5.15 L18.5 4.45 22.05 4.6 21.95 5.15 Q21.5 12.75 23.85 13.5 L23.7 21.9 Q23.7 23.1 22.7 23.5 L22.3 23.7 5.4 23.5 Q4.55 23.3 4.15 22.9 L4.2 22.65 3.95 22.7 M20.95 11.2 Q20.55 8.45 21.0 5.75 L19.15 5.75 18.35 8.7 18.3 8.75 Q17.65 9.8 16.55 9.85 13.9 10.4 11.1 9.85 10.4 9.45 10.0 8.85 9.2 7.65 9.0 5.6 L6.9 5.6 6.9 9.05 Q6.45 12.2 4.9 13.6 L4.7 21.05 Q4.9 22.1 5.7 22.2 L21.45 22.4 Q22.3 22.35 22.35 21.55 L22.4 14.0 Q21.2 12.95 20.95 11.6 L20.95 11.2" fill="#221500" fill-rule="evenodd" stroke="none"/>
      <path d="M20.95 11.2 L20.95 11.6 Q21.2 12.95 22.4 14.0 L22.35 21.55 Q22.3 22.35 21.45 22.4 L5.7 22.2 Q4.9 22.1 4.7 21.05 L4.9 13.6 Q6.45 12.2 6.9 9.05 L6.9 5.6 9.0 5.6 Q9.2 7.65 10.0 8.85 10.4 9.45 11.1 9.85 13.9 10.4 16.55 9.85 17.65 9.8 18.3 8.75 L18.35 8.7 19.15 5.75 21.0 5.75 Q20.55 8.45 20.95 11.2 M9.85 12.1 Q9.4 14.9 9.75 17.35 10.9 19.6 13.05 21.15 L13.65 21.35 13.75 21.45 14.2 21.25 14.25 21.3 14.35 21.2 Q16.65 19.75 17.75 17.5 L18.0 12.2 Q15.8 11.45 13.85 11.6 L13.75 11.6 9.85 12.1" fill="#553300" fill-rule="evenodd" stroke="none"/>
      <path d="M9.85 12.1 L13.75 11.6 13.85 11.6 Q15.8 11.45 18.0 12.2 L17.75 17.5 Q16.65 19.75 14.35 21.2 L14.25 21.3 14.2 21.25 13.75 21.45 13.65 21.35 13.05 21.15 Q10.9 19.6 9.75 17.35 9.4 14.9 9.85 12.1" fill="#6c4100" fill-rule="evenodd" stroke="none"/>
      <path d="M3.95 22.7 L4.2 22.65 4.15 22.9 3.95 22.7" fill="#9f6000" fill-rule="evenodd" stroke="none"/>
      <path d="M23.2 26.5 L23.2 22.4 23.25 22.4 23.25 20.65 23.25 17.95 25.45 17.95 23.5 14.75 21.3 11.45 Q25.7 14.65 28.3 19.05 L24.7 19.05 24.7 26.5 23.2 26.5 24.7 26.5 24.7 26.55 23.2 26.55 23.2 26.5" fill="#3b861d" fill-rule="evenodd" stroke="none"/>
      <path d="M21.3 11.45 L23.5 14.75 25.45 17.95 23.25 17.95 23.25 20.65 23.25 22.4 23.2 22.4 23.2 26.5 19.3 26.5 23.2 26.5 23.2 26.55 19.3 26.55 19.3 26.5 19.3 18.0 17.05 18.0 Q17.15 17.15 18.5 15.25 L18.15 15.85 Q18.15 17.2 19.3 15.8 L20.3 14.15 Q20.3 13.8 19.95 13.8 L19.35 14.05 21.3 11.45" fill="#74c84e" fill-rule="evenodd" stroke="none"/>
      <path d="M19.35 14.05 L19.95 13.8 Q20.3 13.8 20.3 14.15 L19.3 15.8 Q18.15 17.2 18.15 15.85 L18.5 15.25 18.7 14.85 19.35 14.05" fill="#ffffff" fill-rule="evenodd" stroke="none"/>
      <path d="M21.3 11.45 L19.35 14.05 18.7 14.85 18.5 15.25 Q17.15 17.15 17.05 18.0 L19.3 18.0 19.3 26.5 17.85 26.5 19.3 26.5 19.3 26.55 17.85 26.55 17.85 26.5 17.85 19.05 14.35 19.05 Q16.45 15.55 20.05 12.45 18.7 13.95 21.3 11.45" fill="#c7f36c" fill-rule="evenodd" stroke="none"/>
      <path d="M20.05 12.45 L21.3 11.45 Q18.7 13.95 20.05 12.45" fill="#cb2c1b" fill-rule="evenodd" stroke="none"/>
      <path d="M23.2 26.5 L24.7 26.5 24.7 19.05 28.3 19.05 Q25.7 14.65 21.3 11.45 L20.05 12.45 Q16.45 15.55 14.35 19.05 L17.85 19.05 17.85 26.5 19.3 26.5 23.2 26.5 Z" fill="none" stroke="#005909" stroke-linecap="round" stroke-linejoin="round" stroke-width="1.0"/>
    </g>
  </defs>
</svg>
