<?xml version="1.0" encoding="UTF-8" standalone="no"?>
<svg xmlns:ffdec="https://www.free-decompiler.com/flash" xmlns:xlink="http://www.w3.org/1999/xlink" ffdec:objectType="frame" height="30.0px" width="30.0px" xmlns="http://www.w3.org/2000/svg">
  <g transform="matrix(1.0, 0.0, 0.0, 1.0, 0.0, 0.0)">
    <use ffdec:characterId="1" height="30.0" transform="matrix(1.0, 0.0, 0.0, 1.0, 0.0, 0.0)" width="30.0" xlink:href="#shape0"/>
  </g>
  <defs>
    <g id="shape0" transform="matrix(1.0, 0.0, 0.0, 1.0, 0.0, 0.0)">
      <path d="M0.0 0.0 L30.0 0.0 30.0 30.0 0.0 30.0 0.0 0.0" fill="#33cc66" fill-opacity="0.0" fill-rule="evenodd" stroke="none"/>
      <path d="M0.0 26.7 L0.0 3.3 Q0.0 0.0 3.3 0.0 L26.7 0.0 Q30.0 0.0 30.0 3.3 L30.0 26.7 Q30.0 30.0 26.7 30.0 L3.3 30.0 Q0.0 30.0 0.0 26.7" fill="#02cac9" fill-rule="evenodd" stroke="none"/>
      <path d="M25.15 11.45 L24.1 14.55 24.65 14.35 25.75 18.3 22.5 22.4 23.95 23.7 22.15 25.25 19.1 24.55 17.45 25.6 16.35 24.75 14.6 24.75 13.95 26.0 11.8 26.0 9.45 24.9 9.45 24.05 4.5 21.8 3.55 18.7 5.25 17.1 5.3 17.1 7.15 17.75 5.45 15.85 5.45 11.35 8.95 13.3 9.45 9.2 12.35 10.9 12.35 8.6 15.6 3.75 18.9 7.75 19.25 12.0 20.8 9.1 20.8 9.0 23.45 8.35 25.15 11.4 25.15 11.45 M19.25 12.0 L19.4 14.1 19.0 17.9 21.05 15.4 24.1 14.55 M12.35 10.9 L12.35 13.25 14.1 20.35 17.2 16.45 18.95 17.9 19.0 17.9 M16.35 24.75 L20.05 21.55 19.5 18.35 18.95 17.9 M8.95 13.3 L10.45 14.15 10.5 14.25 12.2 19.55 12.65 18.8 14.1 20.35 14.1 23.4 14.15 23.5 14.6 24.75 M7.15 17.75 L11.85 23.2 11.5 20.5 12.2 19.55 M14.15 23.5 L13.15 23.95 11.85 23.2 9.45 24.05 M19.1 24.55 L22.5 22.4" fill="none" stroke="#ffffff" stroke-linecap="round" stroke-linejoin="round" stroke-width="3.5"/>
      <path d="M19.85 11.0 L20.8 9.2 20.8 9.1 23.45 8.4 23.9 9.3 23.2 10.65 21.65 10.15 20.0 14.75 19.85 11.0 M24.1 14.65 L24.6 14.45 25.5 17.4 23.2 17.15 22.6 17.05 22.6 16.05 21.3 15.4 24.1 14.65 M5.3 22.25 L4.5 21.9 3.55 18.75 6.5 20.3 6.1 20.9 5.3 22.25 M5.5 15.9 L5.5 11.45 7.75 14.95 10.75 15.0 10.95 15.6 9.7 15.75 10.55 17.75 Q10.3 17.8 10.1 18.05 L9.8 18.5 7.8 15.85 5.5 15.9 M9.25 11.4 L9.45 9.3 11.4 14.95 10.5 14.3 10.45 14.2 10.2 14.05 9.25 11.4 M12.3 11.0 L12.3 8.7 13.6 6.7 16.4 9.4 15.8 16.6 14.6 12.95 15.3 9.6 13.4 9.6 14.6 18.7 12.3 13.3 12.3 11.0 M16.75 21.75 L14.1 20.4 17.2 16.5 16.75 21.75 M11.5 20.6 L11.55 20.9 11.35 20.6 11.55 20.55 11.5 20.6" fill="#bcf7fb" fill-rule="evenodd" stroke="none"/>
      <path d="M23.9 9.3 L25.15 11.5 25.15 11.55 24.15 11.1 23.2 10.65 22.1 12.1 20.0 14.75 21.65 10.15 23.2 10.65 23.9 9.3 M14.55 24.85 L13.95 26.0 11.85 26.0 10.45 25.4 12.65 25.55 14.5 24.55 14.55 24.85 M3.55 18.75 L3.55 18.7 5.3 17.2 5.35 17.2 6.5 20.3 11.3 22.9 8.15 22.9 6.1 20.9 6.5 20.3 3.55 18.75 M7.15 17.8 L5.5 15.9 7.8 15.85 9.8 18.5 Q9.65 18.75 9.65 19.1 9.65 19.7 10.1 20.1 10.55 20.6 11.15 20.6 L11.35 20.6 11.55 20.9 11.7 22.1 11.9 23.2 8.35 19.3 7.15 17.8 M5.5 11.45 L9.0 13.35 10.2 14.05 10.5 14.3 10.75 15.0 7.75 14.95 5.5 11.45 M9.45 9.3 L12.3 11.0 12.3 13.3 11.6 15.65 11.4 14.95 9.45 9.3 M15.6 3.75 L16.95 5.4 16.4 9.4 15.6 3.75 M16.75 21.75 L14.1 23.45 14.1 21.85 14.1 20.4 16.75 21.75" fill="#4edbef" fill-rule="evenodd" stroke="none"/>
      <path d="M25.15 11.55 L24.1 14.65 23.35 14.1 24.15 11.1 25.15 11.55 M25.5 17.4 L25.75 18.4 22.55 22.5 20.35 23.9 20.3 23.8 25.3 18.05 22.9 17.7 23.2 17.15 25.5 17.4 M22.15 25.35 L19.1 24.65 20.05 24.1 20.35 23.9 20.8 24.25 22.15 25.35 M18.85 7.7 L18.95 7.8 19.25 12.1 19.4 14.15 18.95 18.0 18.6 16.45 18.0 8.65 18.85 7.7 M19.4 17.4 L21.05 15.45 21.3 15.4 22.6 16.05 20.85 17.75 20.15 17.55 20.0 17.55 19.7 17.65 19.4 17.4 M19.95 20.6 L20.1 21.65 16.4 24.85 19.25 20.35 19.35 20.4 19.6 20.5 19.95 20.6 M14.6 18.7 L13.4 9.6 15.3 9.6 14.6 12.95 14.6 18.7 M10.95 15.6 L10.75 15.0 10.5 14.3 11.4 14.95 11.6 15.65 12.55 18.45 12.25 18.05 Q11.95 17.7 11.5 17.6 L10.95 15.6 M7.85 19.6 L8.35 19.3 11.9 23.2 11.3 22.9 7.85 19.6 M14.1 21.85 L14.1 23.45 13.9 23.65 13.15 24.05 11.9 23.2 11.7 22.1 12.95 22.9 13.05 22.85 14.1 21.85" fill="#57d2ba" fill-rule="evenodd" stroke="none"/>
      <path d="M23.45 23.3 L23.9 23.8 22.15 25.35 20.8 24.25 23.45 23.3 M19.1 24.65 L17.5 25.65 17.05 25.35 20.9 21.45 22.9 17.7 25.3 18.05 20.3 23.8 20.05 24.1 19.1 24.65 M10.45 25.4 L9.45 25.0 9.45 24.45 12.25 24.85 14.2 23.9 14.5 24.55 12.65 25.55 10.45 25.4 M9.45 24.15 L6.65 22.9 8.15 22.9 11.3 22.9 6.5 20.3 7.85 19.6 11.3 22.9 11.9 23.2 9.45 24.15 M9.0 13.35 L9.25 11.4 10.2 14.05 9.0 13.35 M22.1 12.1 L23.2 10.65 24.15 11.1 23.35 14.1 21.55 14.75 22.1 12.1 M19.7 17.65 L20.0 17.55 20.15 17.55 20.85 17.75 21.2 18.05 Q21.65 18.45 21.65 19.1 21.65 19.7 21.2 20.1 20.75 20.6 20.15 20.6 L19.95 20.6 19.6 20.5 19.35 20.4 19.25 20.35 16.4 24.85 16.75 21.75 18.75 19.6 18.65 19.1 Q18.65 18.5 19.0 18.1 L19.05 18.05 Q19.35 17.7 19.7 17.65 M18.6 16.45 L16.95 15.05 16.4 9.4 18.0 8.65 18.6 16.45 M9.8 18.5 L10.1 18.05 Q10.3 17.8 10.55 17.75 L9.7 15.75 10.95 15.6 11.5 17.6 Q11.95 17.7 12.25 18.05 L12.55 18.45 11.6 15.65 12.3 13.3 14.1 20.4 12.65 18.85 12.65 18.9 12.65 19.1 Q12.65 19.7 12.25 20.1 L11.55 20.55 11.35 20.6 11.15 20.6 Q10.55 20.6 10.1 20.1 9.65 19.7 9.65 19.1 9.65 18.75 9.8 18.5 M14.1 20.4 L14.1 21.85 13.05 22.85 12.95 22.9 11.7 22.1 11.55 20.9 11.5 20.6 12.75 21.7 12.95 21.6 14.1 20.4" fill="#096c93" fill-rule="evenodd" stroke="none"/>
      <path d="M22.55 22.5 L23.45 23.3 20.8 24.25 20.35 23.9 22.55 22.5 M17.05 25.35 L16.4 24.85 14.55 24.85 14.5 24.55 14.2 23.9 14.1 23.45 14.2 23.9 12.25 24.85 9.45 24.45 9.45 24.15 11.9 23.2 13.15 24.05 13.9 23.65 14.1 23.45 16.75 21.75 16.4 24.85 20.1 21.65 19.95 20.6 20.15 20.6 Q20.75 20.6 21.2 20.1 21.65 19.7 21.65 19.1 21.65 18.45 21.2 18.05 L20.85 17.75 22.6 16.05 22.6 17.05 23.2 17.15 22.9 17.7 20.9 21.45 17.05 25.35 M6.65 22.9 L5.3 22.25 6.1 20.9 8.15 22.9 6.65 22.9 M5.35 17.2 L7.15 17.8 8.35 19.3 7.85 19.6 6.5 20.3 5.35 17.2 M13.6 6.7 L15.6 3.75 16.4 9.4 16.95 5.4 18.85 7.7 18.0 8.65 16.4 9.4 16.95 15.05 18.6 16.45 18.95 18.0 19.4 14.15 19.25 12.1 19.85 11.0 20.0 14.75 22.1 12.1 21.55 14.75 23.35 14.1 24.1 14.65 21.3 15.4 21.05 15.45 19.4 17.4 19.7 17.65 Q19.35 17.7 19.05 18.05 L19.0 18.1 18.95 18.05 19.0 18.1 Q18.65 18.5 18.65 19.1 L18.75 19.6 16.75 21.75 17.2 16.5 18.95 18.05 17.2 16.5 14.1 20.4 12.95 21.6 12.75 21.7 11.5 20.6 11.55 20.55 12.25 20.1 Q12.65 19.7 12.65 19.1 L12.65 18.9 12.65 18.85 14.1 20.4 12.3 13.3 14.6 18.7 14.6 12.95 15.8 16.6 16.4 9.4 13.6 6.7 M19.4 17.4 L18.95 18.0 18.95 18.05 19.4 17.4" fill="#10a2d5" fill-rule="evenodd" stroke="none"/>
      <path d="M19.85 11.0 L20.8 9.2 20.8 9.1 23.45 8.4 23.9 9.3 25.15 11.5 25.15 11.55 24.1 14.65 24.6 14.45 25.5 17.4 25.75 18.4 22.55 22.5 23.45 23.3 23.9 23.8 22.15 25.35 19.1 24.65 17.5 25.65 17.05 25.35 16.4 24.85 14.55 24.85 13.95 26.0 11.85 26.0 10.45 25.4 9.45 25.0 9.45 24.45 9.45 24.15 6.65 22.9 5.3 22.25 4.5 21.9 3.55 18.75 3.55 18.7 5.3 17.2 5.35 17.2 7.15 17.8 5.5 15.9 5.5 11.45 9.0 13.35 9.25 11.4 9.45 9.3 12.3 11.0 12.3 8.7 13.6 6.7 15.6 3.75 16.95 5.4 18.85 7.7 18.95 7.8 19.25 12.1 19.85 11.0 M21.3 15.4 L21.05 15.45 19.4 17.4 18.95 18.05 19.0 18.1 M21.3 15.4 L24.1 14.65 M19.95 20.6 L20.1 21.65 16.4 24.85 M14.1 23.45 L14.2 23.9 14.5 24.55 14.55 24.85 M20.35 23.9 L22.55 22.5 M10.95 15.6 L10.75 15.0 10.5 14.3 10.45 14.2 10.2 14.05 9.0 13.35 M11.9 23.2 L8.35 19.3 7.15 17.8 M18.95 18.0 L19.4 14.15 19.25 12.1 M14.1 20.4 L14.1 21.85 14.1 23.45 M13.9 23.65 L13.15 24.05 11.9 23.2 9.45 24.15 M18.95 18.05 L17.2 16.5 14.1 20.4 12.3 13.3 12.3 11.0 M10.95 15.6 L11.5 17.6 M11.5 20.6 L11.55 20.9 11.7 22.1 11.9 23.2 M12.65 18.85 L14.1 20.4 M11.5 20.6 L11.55 20.55 M20.05 24.1 L19.1 24.65 M20.05 24.1 L20.35 23.9" fill="none" stroke="#469eb4" stroke-linecap="round" stroke-linejoin="round" stroke-width="0.5"/>
      <path d="M26.15 15.0 Q26.15 10.35 22.95 7.15 19.6 3.8 15.05 3.8 10.4 3.8 7.2 7.15 3.9 10.35 3.9 15.0 3.9 19.55 7.2 22.85 10.4 26.05 15.05 26.05 19.6 26.05 22.95 22.85 26.15 19.55 26.15 15.0 M28.1 15.0 Q28.1 20.35 24.25 24.1 20.4 27.95 15.1 27.95 9.75 27.95 5.9 24.1 2.1 20.35 2.1 15.0 2.1 9.6 5.9 5.75 9.75 2.0 15.1 2.0 20.4 2.0 24.25 5.75 28.1 9.6 28.1 15.0" fill="#00ffff" fill-rule="evenodd" stroke="none"/>
      <path d="M26.15 15.0 Q26.15 19.55 22.95 22.85 19.6 26.05 15.05 26.05 10.4 26.05 7.2 22.85 3.9 19.55 3.9 15.0 3.9 10.35 7.2 7.15 10.4 3.8 15.05 3.8 19.6 3.8 22.95 7.15 26.15 10.35 26.15 15.0 M28.1 15.0 Q28.1 20.35 24.25 24.1 20.4 27.95 15.1 27.95 9.75 27.95 5.9 24.1 2.1 20.35 2.1 15.0 2.1 9.6 5.9 5.75 9.75 2.0 15.1 2.0 20.4 2.0 24.25 5.75 28.1 9.6 28.1 15.0 Z" fill="none" stroke="#ffffff" stroke-linecap="round" stroke-linejoin="round" stroke-width="3.0"/>
      <path d="M26.15 15.25 Q26.15 10.6 22.95 7.4 19.6 4.1 15.05 4.1 10.4 4.1 7.2 7.4 3.9 10.6 3.9 15.25 3.9 19.8 7.2 23.1 10.4 26.3 15.05 26.3 19.6 26.3 22.95 23.1 26.15 19.8 26.15 15.25 M24.25 24.35 Q20.45 28.2 15.1 28.2 9.75 28.2 5.9 24.35 2.1 20.65 2.1 15.25 2.1 9.85 5.9 6.0 9.75 2.25 15.1 2.25 20.45 2.25 24.25 6.0 28.1 9.85 28.1 15.25 28.1 20.65 24.25 24.35" fill="#0087f0" fill-rule="evenodd" stroke="none"/>
      <path d="M26.15 15.25 Q26.15 19.8 22.95 23.1 19.6 26.3 15.05 26.3 10.4 26.3 7.2 23.1 3.9 19.8 3.9 15.25 3.9 10.6 7.2 7.4 10.4 4.1 15.05 4.1 19.6 4.1 22.95 7.4 26.15 10.6 26.15 15.25 M24.25 24.35 Q20.45 28.2 15.1 28.2 9.75 28.2 5.9 24.35 2.1 20.65 2.1 15.25 2.1 9.85 5.9 6.0 9.75 2.25 15.1 2.25 20.45 2.25 24.25 6.0 28.1 9.85 28.1 15.25 28.1 20.65 24.25 24.35 Z" fill="none" stroke="#006699" stroke-linecap="round" stroke-linejoin="round" stroke-width="0.1"/>
    </g>
  </defs>
</svg>
