<?xml version="1.0" encoding="UTF-8" standalone="no"?>
<svg xmlns:ffdec="https://www.free-decompiler.com/flash" xmlns:xlink="http://www.w3.org/1999/xlink" ffdec:objectType="frame" height="30.0px" width="30.0px" xmlns="http://www.w3.org/2000/svg">
  <g transform="matrix(1.0, 0.0, 0.0, 1.0, 0.0, 0.0)">
    <use ffdec:characterId="1" height="30.0" transform="matrix(1.0, 0.0, 0.0, 1.0, 0.0, 0.0)" width="30.0" xlink:href="#shape0"/>
  </g>
  <defs>
    <g id="shape0" transform="matrix(1.0, 0.0, 0.0, 1.0, 0.0, 0.0)">
      <path d="M0.0 0.0 L30.0 0.0 30.0 30.0 0.0 30.0 0.0 0.0" fill="#33cc66" fill-opacity="0.0" fill-rule="evenodd" stroke="none"/>
      <path d="M0.0 26.7 L0.0 3.3 Q0.0 0.0 3.3 0.0 L26.7 0.0 Q30.0 0.0 30.0 3.3 L30.0 26.7 Q30.0 30.0 26.7 30.0 L3.3 30.0 Q0.0 30.0 0.0 26.7" fill="#70cb4e" fill-rule="evenodd" stroke="none"/>
      <path d="M11.95 27.5 Q17.55 24.05 24.3 25.1 18.1 16.7 19.15 8.0 L19.15 2.55 Q13.15 5.6 5.95 4.05 L7.75 11.25 Q7.35 14.7 7.85 17.85 8.1 19.85 8.75 21.7 9.9 24.75 11.95 27.5 Z" fill="none" stroke="#ffffff" stroke-linecap="round" stroke-linejoin="round" stroke-width="3.5"/>
      <path d="M19.1 6.0 Q15.3 8.65 10.1 10.4 14.85 11.8 19.1 8.2 18.05 16.95 24.2 25.3 17.45 24.3 11.9 27.7 9.85 25.0 8.7 21.95 15.2 22.1 18.4 19.0 13.05 20.3 7.75 18.05 7.25 14.9 7.65 11.5 L5.85 4.25 Q13.1 5.85 19.1 2.8 L19.1 6.0 M9.2 16.1 Q13.65 18.55 18.3 16.9 17.2 14.1 17.6 11.3 13.85 13.45 9.65 12.4 L9.2 16.1" fill="#ffff00" fill-rule="evenodd" stroke="none"/>
      <path d="M19.1 6.0 L19.1 8.2 Q14.85 11.8 10.1 10.4 15.3 8.65 19.1 6.0 M8.7 21.95 Q8.05 20.1 7.75 18.05 13.05 20.3 18.4 19.0 15.2 22.1 8.7 21.95 M9.2 16.1 L9.65 12.4 Q13.85 13.45 17.6 11.3 17.2 14.1 18.3 16.9 13.65 18.55 9.2 16.1" fill="#ffcc00" fill-rule="evenodd" stroke="none"/>
      <path d="M19.1 8.2 L19.1 6.0 19.1 2.8 Q13.1 5.85 5.85 4.25 L7.65 11.5 Q7.25 14.9 7.75 18.05 8.05 20.1 8.7 21.95 9.85 25.0 11.9 27.7 17.45 24.3 24.2 25.3 18.05 16.95 19.1 8.2 Z" fill="none" stroke="#663300" stroke-linecap="round" stroke-linejoin="round" stroke-width="1.0"/>
      <path d="M21.15 23.0 L21.15 23.6 20.8 23.8 20.6 23.65 20.45 23.5 19.3 23.8 18.8 23.65 18.95 22.9 18.95 22.75 18.25 23.05 17.85 23.2 Q16.85 23.2 16.55 22.15 L16.4 21.05 Q16.4 20.35 16.75 20.2 17.45 20.75 17.3 21.55 17.25 22.0 19.0 22.0 19.65 22.0 19.7 22.3 L19.65 22.7 20.8 22.7 21.15 23.0 M13.15 5.55 L13.25 6.05 13.0 6.65 13.9 7.1 14.45 7.45 13.05 9.85 Q13.05 10.25 12.5 10.25 L12.05 10.15 Q12.05 9.6 12.55 8.9 L13.1 8.0 Q13.1 7.45 12.55 7.2 12.05 7.05 12.05 6.6 L12.35 6.05 Q12.75 5.55 13.15 5.55 M10.3 10.4 L10.4 9.25 9.9 8.35 9.9 7.7 Q11.2 8.05 11.25 8.7 L11.0 9.95 11.4 10.5 11.85 11.0 11.8 11.35 11.4 11.45 Q10.4 11.45 10.3 10.4 M16.85 9.2 L16.85 9.55 16.35 9.65 Q15.95 9.65 15.55 9.15 L15.35 8.55 15.4 8.25 Q16.1 8.25 16.85 9.2 M14.05 19.9 Q14.8 19.0 15.45 20.5 L15.1 20.8 14.6 20.5 Q14.15 20.95 14.15 21.45 14.15 21.5 14.5 21.75 L14.85 22.3 14.75 23.0 15.1 23.5 15.45 23.95 15.4 24.2 15.05 24.4 Q14.65 24.4 14.0 22.95 L13.4 21.45 Q13.4 20.65 14.05 19.9 M10.75 20.3 L12.15 22.3 13.85 24.5 13.85 24.85 13.35 25.0 Q13.0 25.0 11.9 23.65 10.7 22.35 10.4 21.5 L10.4 20.35 10.75 20.3" fill="#990000" fill-rule="evenodd" stroke="none"/>
      <path d="M12.05 11.9 L12.2 12.6 13.45 12.25 13.3 13.35 12.45 13.6 12.75 14.6 14.0 14.25 13.85 15.2 10.35 16.15 10.1 15.3 11.5 14.95 11.2 13.95 9.8 14.3 9.55 13.35 10.95 13.0 10.75 12.25 12.05 11.9 M15.25 11.05 L16.6 10.7 16.7 11.3 17.25 11.1 17.15 12.15 17.0 12.2 18.35 17.2 17.5 18.45 15.8 18.9 15.55 18.0 17.0 17.65 15.7 12.55 13.85 13.05 13.55 12.15 15.4 11.65 15.25 11.05 M15.75 15.7 L15.45 15.85 15.05 15.85 14.6 15.6 14.5 15.3 14.45 14.85 14.65 14.55 Q14.85 14.35 15.05 14.3 L15.4 14.35 15.8 14.5 16.0 14.9 16.0 15.25 15.75 15.7 M11.75 16.0 L13.0 15.6 13.3 16.65 14.55 16.3 14.35 17.25 13.55 17.5 13.85 18.55 15.2 18.2 14.95 19.15 11.35 20.1 11.2 19.3 12.55 18.9 12.25 17.85 10.9 18.2 10.65 17.35 12.05 17.0 11.75 16.0" fill="#ff0000" fill-rule="evenodd" stroke="none"/>
    </g>
  </defs>
</svg>
