<?xml version="1.0" encoding="UTF-8" standalone="no"?>
<svg xmlns:ffdec="https://www.free-decompiler.com/flash" xmlns:xlink="http://www.w3.org/1999/xlink" ffdec:objectType="frame" height="30.4px" width="30.0px" xmlns="http://www.w3.org/2000/svg">
  <g transform="matrix(1.0, 0.0, 0.0, 1.0, 0.0, 0.0)">
    <use ffdec:characterId="1" height="30.4" transform="matrix(1.0, 0.0, 0.0, 1.0, 0.0, 0.0)" width="30.0" xlink:href="#shape0"/>
  </g>
  <defs>
    <g id="shape0" transform="matrix(1.0, 0.0, 0.0, 1.0, 0.0, 0.0)">
      <path d="M0.0 0.0 L30.0 0.0 30.0 30.0 0.0 30.0 0.0 0.0" fill="#33cc66" fill-opacity="0.0" fill-rule="evenodd" stroke="none"/>
      <path d="M3.3 0.0 L26.7 0.0 Q30.0 0.0 30.0 3.3 L30.0 26.7 Q30.0 30.0 26.7 30.0 L3.3 30.0 Q0.0 30.0 0.0 26.7 L0.0 3.3 Q0.0 0.0 3.3 0.0" fill="#70cb4e" fill-rule="evenodd" stroke="none"/>
      <path d="M5.65 7.1 L6.65 7.7 6.7 7.7 6.75 7.75 6.95 7.9 7.15 8.05 7.35 8.2 7.85 8.45 7.95 8.7 8.15 9.05 8.35 9.4 8.35 9.5 8.4 9.6 8.7 10.25 8.7 10.3 9.0 11.0 9.15 11.3 9.25 11.55 9.35 12.05 9.4 12.15 9.55 12.65 9.6 12.85 9.9 12.65 9.95 12.65 10.5 12.3 10.75 12.1 11.65 11.6 12.05 11.4 12.25 11.3 12.4 11.15 13.0 10.95 13.0 10.35 13.0 10.0 13.0 9.9 13.05 8.65 13.1 8.1 13.1 7.95 13.2 7.05 13.3 6.6 13.35 6.35 13.35 6.2 13.75 5.85 14.1 5.5 14.5 5.15 14.55 5.1 14.8 4.8 15.05 4.65 15.1 4.55 15.2 4.55 15.35 4.35 15.7 4.1 15.7 4.05 16.0 3.8 16.7 3.3 17.0 3.1 17.25 3.0 18.95 2.0 18.95 2.85 18.95 3.1 18.95 3.4 18.95 3.55 18.9 6.1 18.9 6.2 18.85 6.45 18.85 6.65 18.05 7.15 17.9 7.3 17.8 7.35 17.5 7.55 17.35 7.7 16.8 8.2 16.7 8.3 16.45 8.55 16.25 8.7 16.1 8.85 16.05 8.9 15.95 9.0 15.95 9.05 15.4 9.6 14.65 10.4 15.3 10.2 16.05 10.05 16.35 9.95 16.65 9.95 17.1 9.85 18.2 9.7 18.45 9.7 20.1 9.25 20.9 8.95 21.2 8.85 21.25 8.85 21.45 8.75 21.85 8.55 22.4 8.25 22.75 8.7 22.8 8.8 22.85 8.85 23.4 9.65 24.1 10.8 24.15 10.9 24.2 10.95 24.45 11.4 24.5 11.45 24.65 11.8 25.4 13.3 25.4 13.35 26.4 15.65 26.6 16.35 26.65 16.35 26.65 16.55 26.85 17.65 26.8 19.1 26.7 19.85 26.6 20.25 26.3 21.35 26.15 21.75 25.9 22.35 25.8 22.5 25.75 22.4 25.25 23.55 25.0 23.95 25.0 24.0 24.7 24.55 24.55 24.75 24.3 25.1 23.25 26.35 23.15 26.4 22.65 26.85 22.6 26.95 22.5 27.05 22.1 27.15 22.05 27.15 21.05 27.4 20.55 27.55 20.05 27.65 19.95 27.65 18.8 27.9 18.25 28.0 17.85 28.05 17.6 28.1 17.15 28.15 16.3 28.2 15.65 28.3 14.75 28.4 14.5 28.35 14.3 28.3 14.25 28.3 13.4 28.15 13.15 28.15 12.95 28.1 12.85 28.1 12.3 27.95 11.95 27.9 11.25 27.75 11.0 27.7 10.35 27.55 10.3 27.55 10.2 27.5 10.15 27.5 8.95 27.2 8.9 27.1 8.8 26.95 8.6 26.6 8.1 25.65 8.05 25.55 7.95 25.4 7.85 25.1 7.55 24.4 7.45 24.15 7.35 23.85 7.0 22.75 6.75 22.2 6.7 22.0 6.65 21.95 6.5 21.2 6.5 21.15 Q6.4 20.1 6.75 19.4 L7.1 18.85 7.2 18.25 7.25 17.9 7.6 16.4 7.15 16.2 7.0 15.8 7.05 15.75 7.3 15.0 7.5 14.55 7.85 14.25 8.45 13.75 Q8.65 13.5 8.95 13.35 L9.0 13.3 8.65 13.05 8.6 12.95 8.35 12.8 7.85 12.5 7.85 12.45 7.75 12.4 7.6 12.3 7.4 12.2 7.3 12.1 7.05 11.95 7.0 11.9 6.85 11.85 5.9 11.2 5.65 11.05 5.3 10.85 5.2 10.75 5.1 10.65 5.05 10.5 5.0 10.15 4.95 9.4 4.9 9.0 4.85 7.55 4.8 7.05 4.75 6.6 5.15 6.8 5.35 6.9 5.65 7.1 M25.75 22.4 L25.05 21.55 24.9 21.4 24.2 20.75 23.5 20.2 23.75 19.75 23.75 19.7 24.25 18.7 24.55 17.95 24.55 17.9 24.25 17.6 23.4 16.6 23.25 16.45 22.55 15.85 22.15 15.55 21.75 15.25 21.05 14.85 20.8 14.75 20.1 14.4 20.0 14.4 19.95 14.35 18.2 14.85 18.15 14.85 17.85 14.9 16.4 15.4 15.85 15.6 14.25 16.3 14.1 16.35 14.05 16.35 13.45 16.75 12.5 17.4 11.5 18.4 10.8 19.0 10.8 19.05 10.35 18.55 9.45 17.75 9.1 17.45 8.6 17.1 7.6 16.4 M17.5 17.55 L17.0 17.6 17.1 17.6 17.35 17.65 17.7 17.7 Q18.65 17.8 19.35 18.5 L19.7 18.9 19.95 19.3 20.1 19.6 20.3 20.6 20.25 20.8 20.2 21.2 20.15 21.4 Q19.95 22.15 19.35 22.7 18.4 23.6 17.1 23.6 L16.4 23.5 15.5 23.2 15.25 23.05 14.85 22.7 14.45 22.25 15.15 23.25 16.2 24.0 17.5 24.25 Q18.9 24.25 19.85 23.25 20.5 22.55 20.75 21.65 L20.8 21.35 20.8 21.0 20.8 20.9 20.55 19.55 20.3 19.1 19.95 18.65 19.85 18.55 19.55 18.25 18.15 17.65 17.75 17.6 17.5 17.55 M14.45 22.25 L14.35 22.05 14.35 21.95 Q14.2 21.5 14.2 20.9 L14.2 20.85 Q14.2 19.5 15.15 18.55 L16.85 17.65 17.0 17.6 M9.6 12.85 L9.65 13.25 9.8 13.85 9.15 13.4 9.0 13.3 M13.0 10.95 L13.0 11.1 13.0 11.65 13.0 12.25 13.0 12.4 13.0 12.45 13.15 12.25 13.2 12.2 13.55 11.75 13.7 11.55 14.65 10.4 M7.4 18.75 L7.65 18.75 8.35 19.35 8.5 19.7 8.6 20.05 8.7 20.2 8.85 20.95 8.85 21.15 8.85 21.4 8.85 21.5 8.65 22.5 Q8.4 23.15 7.85 23.15 L7.6 23.1 7.1 22.8 6.95 22.55 7.0 22.75 7.1 22.95 Q7.45 23.5 7.85 23.65 L8.05 23.65 Q8.6 23.65 8.9 22.95 L9.1 21.75 9.1 21.5 9.1 21.25 9.1 21.2 8.85 20.2 8.7 19.85 8.6 19.5 8.55 19.4 8.4 19.3 8.4 19.25 8.35 19.2 Q7.95 18.75 7.65 18.7 L7.55 18.7 7.3 18.75 7.4 18.75 M7.1 18.85 L7.3 18.75 M6.95 22.55 L6.95 22.5 6.75 22.2" fill="none" stroke="#ffffff" stroke-linecap="round" stroke-linejoin="round" stroke-width="3.5"/>
      <path d="M23.1 20.35 L24.7 20.65 25.15 21.0 25.3 21.15 Q25.95 21.55 26.3 22.2 27.35 23.95 26.95 25.75 L26.45 27.0 Q26.0 27.9 25.25 28.2 L25.15 28.25 Q24.05 28.85 23.05 28.55 22.1 28.25 21.55 27.3 21.05 26.45 21.8 24.95 22.35 23.55 22.0 22.9 L21.15 22.3 20.9 22.25 19.85 22.55 19.85 22.35 Q19.85 21.6 20.85 20.9 21.4 20.5 23.1 20.35 24.4 20.45 25.15 21.0 M3.75 25.15 L4.05 25.2 Q4.95 25.45 5.85 24.5 L6.65 23.15 7.25 21.35 8.1 20.8 8.2 20.7 7.5 20.3 4.55 20.35 4.35 20.45 Q3.0 21.25 2.65 22.65 L2.5 23.65 2.9 24.3 3.75 25.15 Z" fill="none" stroke="#ffffff" stroke-linecap="round" stroke-linejoin="round" stroke-width="3.5"/>
      <path d="M4.75 7.1 L5.15 7.65 5.45 7.95 5.5 8.3 5.45 8.3 5.45 8.2 5.35 8.05 5.15 7.85 4.8 7.6 4.75 7.1 M5.75 8.55 L5.7 8.2 6.0 8.45 6.4 8.7 6.45 8.75 6.6 8.85 6.75 9.0 7.15 9.3 7.3 9.5 7.4 9.6 7.5 9.75 7.5 9.8 7.65 9.95 7.5 10.05 7.35 9.85 7.3 9.85 6.85 9.3 6.45 9.05 6.1 8.75 5.75 8.55 M14.5 5.1 L14.55 5.1 14.6 5.1 14.75 5.1 14.75 5.2 14.6 6.25 14.5 6.25 14.55 5.45 14.5 5.1 M18.9 2.85 L18.9 3.15 17.9 4.0 17.4 4.35 17.15 4.6 17.0 4.75 16.75 4.9 16.65 4.95 16.4 5.15 16.35 5.2 16.3 5.25 16.0 5.5 15.6 5.8 15.5 5.85 15.15 6.1 15.1 6.2 15.0 6.25 15.0 6.0 15.9 5.25 16.2 5.0 16.9 4.45 17.0 4.4 17.8 3.8 18.9 2.85 M5.85 11.25 L5.55 11.05 5.55 10.8 5.55 10.65 5.55 10.4 5.55 10.05 5.55 9.8 5.55 9.55 5.65 9.5 5.7 9.75 5.75 10.0 5.75 10.05 5.8 10.3 5.8 10.55 5.85 10.75 5.85 11.25 M16.25 8.1 L16.4 7.2 16.45 7.05 16.6 6.2 16.6 5.65 16.65 5.35 16.85 5.35 16.75 5.85 16.7 6.2 16.65 6.35 16.6 7.0 16.55 7.2 16.35 8.15 16.25 8.1 M6.95 11.05 L7.5 11.65 7.65 11.8 7.65 11.85 7.7 11.9 7.65 12.05 7.6 12.15 7.55 12.1 7.4 11.8 7.35 11.75 6.9 11.05 6.95 11.05" fill="#ffffe7" fill-rule="evenodd" stroke="none"/>
      <path d="M5.5 8.3 L5.45 7.95 5.15 7.65 4.75 7.1 4.7 6.6 5.1 6.85 5.2 7.0 5.35 7.2 5.55 7.75 6.2 8.2 6.0 8.45 5.7 8.2 5.75 8.55 5.8 8.65 5.65 8.8 5.55 8.95 5.55 8.85 5.5 8.3 M18.9 3.15 L18.9 3.4 18.85 3.45 18.05 4.2 17.15 4.95 17.1 5.1 17.1 5.35 16.85 5.25 16.75 5.25 16.7 5.25 16.4 5.15 16.65 4.95 16.75 4.9 17.0 4.75 17.15 4.6 17.4 4.35 17.9 4.0 18.9 3.15" fill="#f38546" fill-rule="evenodd" stroke="none"/>
      <path d="M4.8 7.6 L5.15 7.85 5.35 8.05 5.45 8.2 5.45 8.3 5.5 8.85 5.5 8.95 5.5 9.1 5.55 9.55 5.55 9.8 5.55 10.05 5.55 10.4 5.55 10.65 5.55 10.8 5.55 11.05 5.25 10.85 5.15 10.8 5.05 10.7 5.0 10.55 4.95 10.15 4.9 9.4 4.85 9.05 4.8 7.6 M6.2 8.2 L5.55 7.75 5.35 7.2 5.3 7.0 5.3 6.95 5.6 7.1 6.6 7.75 6.65 7.75 6.7 7.8 6.9 7.9 7.1 8.05 7.3 8.2 7.75 8.5 7.9 8.7 8.1 9.1 8.3 9.4 8.3 9.5 8.35 9.6 8.65 10.25 8.65 10.3 8.45 10.55 8.25 10.3 7.85 9.85 7.75 9.7 7.45 9.35 7.2 9.1 7.0 8.8 6.2 8.2 M15.0 4.7 L15.05 4.6 15.15 4.55 15.3 4.35 Q15.45 4.2 15.65 4.15 L15.65 4.1 15.95 3.85 16.65 3.35 16.95 3.15 17.2 3.0 18.85 2.0 18.9 2.85 17.8 3.8 17.0 4.4 16.9 4.45 16.2 5.0 15.9 5.25 15.0 6.0 14.95 5.35 15.0 4.7 M18.9 3.55 L18.85 6.15 18.85 6.25 Q18.1 5.65 17.2 5.35 L17.1 5.35 17.1 5.1 17.15 4.95 18.05 4.2 18.85 3.45 18.9 3.55" fill="#ffff77" fill-opacity="0.5019608" fill-rule="evenodd" stroke="none"/>
      <path d="M5.8 8.65 L5.75 8.55 6.1 8.75 6.45 9.05 6.85 9.3 7.3 9.85 7.35 9.85 7.5 10.05 7.75 10.4 7.8 10.45 8.15 10.9 7.85 11.5 7.85 11.55 7.75 11.85 7.7 11.85 5.85 9.45 5.8 8.8 5.8 8.75 5.8 8.65 M13.0 8.65 L13.05 8.1 13.05 7.95 13.15 7.1 13.25 6.6 13.3 6.35 13.3 6.25 13.65 5.85 14.05 5.55 14.4 5.15 14.5 5.1 14.55 5.45 14.5 6.25 14.6 6.25 14.6 6.3 14.5 6.35 14.4 7.0 14.4 7.1 14.4 7.15 14.3 7.35 14.4 7.4 14.3 7.6 14.25 7.6 14.2 7.65 13.85 8.65 13.35 8.65 13.0 8.65 M18.85 6.25 L18.8 6.45 18.8 6.65 18.0 7.15 17.85 7.3 17.75 7.35 17.45 7.6 17.3 7.75 16.75 8.2 16.9 6.95 16.9 6.75 16.9 6.65 17.0 6.15 17.05 5.65 17.1 5.35 17.2 5.35 Q18.1 5.65 18.85 6.25 M16.05 8.85 L16.0 8.9 15.9 9.05 15.9 9.1 15.05 8.85 14.75 8.75 14.25 8.7 14.6 7.65 14.7 7.5 14.75 7.4 14.75 7.35 14.95 6.85 15.25 6.6 15.6 6.3 15.75 6.2 16.25 5.7 16.4 5.6 16.45 5.55 16.55 5.5 16.65 5.35 16.75 5.25 16.85 5.25 16.85 5.35 16.65 5.35 16.6 5.65 16.6 6.2 16.45 7.05 16.4 7.2 16.25 8.1 16.2 8.2 16.05 8.85 M7.55 12.3 L7.35 12.25 7.25 12.15 7.0 12.0 6.95 11.95 6.8 11.85 5.85 11.25 5.95 10.95 5.95 10.7 5.95 10.5 5.95 10.25 5.95 10.1 6.05 10.2 6.25 10.35 6.3 10.4 6.35 10.45 6.45 10.6 6.7 10.8 6.95 11.05 6.9 11.05 7.35 11.75 7.4 11.8 7.55 12.1 7.6 12.15 7.55 12.3" fill="#ffff77" fill-opacity="0.7019608" fill-rule="evenodd" stroke="none"/>
      <path d="M5.55 8.95 L5.65 8.8 5.8 8.65 5.8 8.75 5.8 8.8 5.85 9.45 7.7 11.85 7.75 11.85 8.0 12.25 7.8 12.0 7.75 12.0 7.75 11.9 7.7 11.9 7.65 11.8 7.5 11.65 6.95 11.05 6.7 10.8 6.45 10.6 6.45 10.55 6.35 10.45 6.3 10.4 6.15 10.2 5.9 10.0 5.95 10.1 5.95 10.25 5.95 10.5 5.95 10.7 5.95 10.95 5.85 11.25 5.85 10.75 5.8 10.55 5.8 10.3 5.75 10.05 5.75 10.0 5.7 9.75 5.65 9.5 5.55 9.05 5.55 8.95 M6.0 8.45 L6.2 8.2 7.0 8.8 7.2 9.1 7.45 9.35 7.75 9.7 7.85 9.85 8.25 10.3 8.45 10.55 8.3 10.8 7.95 10.35 7.65 9.95 7.5 9.8 7.5 9.75 7.4 9.6 7.3 9.5 7.15 9.3 6.75 9.0 6.6 8.85 6.45 8.75 6.4 8.7 6.0 8.45 M14.75 4.85 L15.0 4.7 14.95 5.35 15.0 6.0 15.0 6.25 15.1 6.2 15.15 6.1 15.5 5.85 15.6 5.8 16.0 5.5 16.3 5.25 16.35 5.2 16.4 5.15 16.7 5.25 16.75 5.25 16.65 5.35 16.55 5.5 16.45 5.55 16.4 5.6 16.25 5.7 15.75 6.2 15.6 6.3 15.25 6.6 14.95 6.85 14.75 7.35 14.75 7.4 14.7 7.5 14.6 7.65 14.25 8.7 13.95 8.65 14.3 7.6 14.4 7.4 14.4 7.2 14.4 7.15 14.4 7.1 14.45 7.0 14.55 6.6 14.6 6.45 14.6 6.3 14.6 6.25 14.75 5.2 14.75 5.1 14.75 4.85 M16.75 8.2 L16.75 8.25 16.6 8.35 16.4 8.6 16.2 8.7 16.3 8.25 16.35 8.15 16.55 7.2 16.6 7.0 16.65 6.35 16.7 6.2 16.75 5.85 16.85 5.35 16.85 5.25 17.1 5.35 17.05 5.65 17.0 6.15 16.9 6.65 16.9 6.75 16.9 6.95 16.75 8.2" fill="#f3583a" fill-rule="evenodd" stroke="none"/>
      <path d="M5.45 8.3 L5.5 8.3 5.55 8.85 5.55 8.95 5.55 9.05 5.65 9.5 5.55 9.55 5.5 9.1 5.5 8.95 5.5 8.85 5.45 8.3 M9.3 12.1 L9.35 12.2 9.2 12.25 8.75 11.7 8.45 11.25 8.15 10.9 7.8 10.45 7.75 10.4 7.5 10.05 7.65 9.95 7.95 10.35 8.3 10.8 8.5 11.0 8.55 11.2 8.95 11.6 8.95 11.65 9.3 12.1 M16.2 8.7 L16.05 8.85 16.2 8.2 16.25 8.1 16.35 8.15 16.3 8.25 16.2 8.7 M14.6 6.3 L14.6 6.45 14.55 6.6 14.45 7.0 14.4 7.1 14.4 7.0 14.5 6.35 14.6 6.3 M14.4 7.15 L14.4 7.2 14.4 7.4 14.3 7.35 14.4 7.15 M14.3 7.6 L13.95 8.65 13.6 9.9 13.6 9.95 13.55 10.05 13.35 10.8 13.3 10.85 13.25 11.2 13.15 11.15 13.15 11.1 13.25 10.85 13.45 10.05 13.55 9.85 13.85 8.65 14.2 7.65 14.25 7.6 14.3 7.6 M5.95 10.1 L5.9 10.0 6.15 10.2 6.3 10.4 6.25 10.35 6.05 10.2 5.95 10.1 M6.35 10.45 L6.45 10.55 6.45 10.6 6.35 10.45" fill="#ffffc2" fill-rule="evenodd" stroke="none"/>
      <path d="M25.35 13.35 L26.35 15.7 26.55 16.35 26.6 16.4 26.6 16.6 26.8 17.65 26.75 19.1 26.65 19.85 26.55 20.3 26.25 21.35 26.1 21.8 25.85 22.4 25.75 22.55 25.7 22.45 25.0 21.6 25.05 21.5 25.3 20.9 25.45 20.35 25.65 19.7 26.05 17.7 26.0 17.45 25.85 16.55 25.85 16.4 25.65 15.6 25.45 14.8 25.1 13.45 25.35 13.35" fill="#839cad" fill-rule="evenodd" stroke="none"/>
      <path d="M24.1 10.9 L24.15 10.95 24.4 11.45 24.45 11.5 24.55 11.8 25.05 13.45 25.1 13.45 25.45 14.8 25.65 15.6 25.85 16.4 25.85 16.55 26.0 17.45 26.05 17.7 25.65 19.7 25.45 20.35 25.3 20.9 25.05 21.5 25.0 21.6 24.85 21.4 24.15 20.75 24.25 20.45 24.4 19.85 24.6 19.2 24.65 19.0 24.8 18.05 24.85 17.85 24.85 17.75 24.6 17.35 24.2 16.9 23.35 15.85 23.15 15.55 21.9 14.15 21.55 13.7 21.5 13.65 21.35 13.5 21.4 13.4 21.3 13.45 21.2 13.45 21.15 13.45 20.7 13.55 20.15 13.7 19.95 13.75 19.7 13.75 18.4 14.05 17.9 14.2 17.65 14.3 17.35 14.35 17.1 14.45 15.5 14.9 15.45 14.9 14.9 15.1 15.45 14.8 17.05 14.2 17.85 13.8 19.35 13.0 19.75 12.8 19.75 12.75 20.25 12.4 20.3 12.35 20.45 12.25 20.5 12.2 20.85 11.95 21.2 11.95 21.35 11.95 21.8 11.85 22.1 11.55 22.2 11.35 22.3 10.9 22.15 10.3 22.2 10.25 22.3 10.3 23.75 10.8 24.0 10.85 24.1 10.9 M23.55 11.55 L23.7 11.25 23.7 11.2 23.45 11.0 23.35 10.95 22.95 10.85 22.6 10.85 22.8 11.2 22.95 11.4 23.05 11.5 23.3 11.7 23.55 11.55 M20.9 12.1 L20.95 12.15 20.95 12.3 20.85 12.55 Q20.85 12.9 21.15 12.9 L21.3 12.8 21.4 12.6 21.25 12.25 21.2 12.25 20.9 12.1" fill="#007762" fill-rule="evenodd" stroke="none"/>
      <path d="M13.35 28.2 L13.1 28.15 12.9 28.1 12.8 28.1 12.2 27.95 12.2 27.75 12.9 27.75 16.15 27.5 17.55 27.3 17.7 26.9 17.8 26.65 18.6 25.65 18.85 25.5 19.0 25.4 Q19.7 25.0 20.45 24.95 L20.6 24.95 21.25 25.05 21.55 25.15 21.95 25.5 22.1 25.35 22.25 25.25 22.95 24.6 23.15 23.9 23.25 22.9 23.25 22.8 23.25 21.9 23.25 21.15 23.25 20.8 22.95 20.45 23.1 20.25 23.1 20.2 23.65 18.2 22.1 16.6 19.75 15.05 17.5 15.95 16.35 16.45 15.85 16.7 14.3 17.4 12.5 18.35 12.35 18.45 12.3 18.45 11.3 18.8 Q10.95 18.9 10.7 19.15 L9.55 18.0 9.05 17.45 9.4 17.75 10.3 18.55 10.75 19.05 10.75 19.0 11.45 18.4 12.45 17.45 13.4 16.75 14.0 16.4 14.05 16.4 14.2 16.3 15.8 15.6 16.35 15.4 17.8 14.95 18.1 14.9 19.9 14.4 19.95 14.45 20.05 14.45 20.75 14.75 21.0 14.9 21.7 15.25 22.1 15.55 22.5 15.9 23.2 16.5 23.35 16.65 24.2 17.6 24.5 17.95 24.5 18.0 24.2 18.75 23.7 19.7 23.7 19.75 23.45 20.25 24.15 20.75 24.85 21.4 24.75 22.05 24.75 22.1 24.6 22.5 24.15 23.4 24.0 23.75 23.75 24.1 23.4 24.75 23.25 24.9 22.7 25.65 22.6 25.75 22.6 25.85 22.55 25.85 22.4 25.95 21.8 26.35 21.7 26.4 19.85 27.1 19.8 27.15 19.45 27.25 17.95 27.6 17.65 27.65 17.6 27.65 16.25 27.8 16.15 27.5 16.2 27.8 13.35 28.2 M7.3 23.9 L6.95 22.75 6.9 22.6 7.05 22.8 7.05 22.95 Q7.4 23.5 7.8 23.65 L7.3 23.9 M7.0 18.9 L7.15 18.25 7.2 17.95 7.55 16.45 Q8.05 16.7 8.55 17.1 L8.3 17.45 7.85 18.3 7.7 18.2 8.3 19.2 8.35 19.25 8.35 19.3 8.5 19.65 8.45 19.7 8.3 19.4 Q7.95 18.9 7.6 18.8 L7.35 18.8 7.25 18.8 7.5 18.75 7.6 18.75 Q7.9 18.8 8.3 19.2 7.9 18.8 7.6 18.75 L7.5 18.75 7.25 18.8 7.0 18.9 M17.7 17.6 L18.1 17.65 Q19.45 17.75 20.3 18.45 21.4 19.35 21.4 20.7 21.4 22.05 20.9 22.85 L20.3 23.5 Q19.4 24.25 17.45 24.45 L17.35 24.45 17.05 24.45 16.55 24.3 16.15 24.05 17.45 24.25 Q18.85 24.25 19.8 23.3 20.45 22.6 20.7 21.7 L20.75 21.35 20.75 21.05 20.75 20.95 20.5 19.6 20.25 19.1 19.9 18.7 19.65 18.9 19.3 18.5 Q18.6 17.85 17.65 17.7 L17.3 17.65 17.65 17.6 17.7 17.6 M18.1 17.65 Q18.85 17.75 19.5 18.25 L19.8 18.55 19.9 18.7 19.8 18.55 19.5 18.25 Q18.85 17.75 18.1 17.65 M22.55 23.25 L22.55 23.75 22.2 24.0 22.0 24.0 21.9 23.9 21.9 23.75 21.95 23.7 22.0 23.55 22.05 23.45 Q22.1 23.35 22.2 23.35 L22.5 23.2 22.5 23.25 22.55 23.25 M7.05 22.95 L6.95 22.75 7.05 22.95" fill="#1d4487" fill-rule="evenodd" stroke="none"/>
      <path d="M24.5 17.95 L24.2 17.6 23.35 16.65 23.2 16.5 22.5 15.9 22.1 15.55 21.7 15.25 21.0 14.9 20.75 14.75 20.05 14.45 19.95 14.45 20.35 14.05 20.8 13.75 20.9 13.75 21.15 13.5 21.2 13.45 21.3 13.45 21.4 13.4 21.35 13.5 21.5 13.65 21.55 13.7 21.9 14.15 23.15 15.55 23.35 15.85 24.2 16.9 24.6 17.35 24.85 17.75 24.85 17.85 24.5 17.95" fill="#0edc5d" fill-rule="evenodd" stroke="none"/>
      <path d="M10.7 12.15 L11.6 11.6 Q12.05 12.1 12.1 12.9 L12.15 13.1 11.9 14.2 11.75 14.5 11.4 14.95 Q10.75 15.5 9.95 15.55 L9.65 15.6 Q8.8 15.6 8.35 15.2 L8.0 14.75 7.75 14.3 8.4 13.75 8.9 13.35 9.05 13.55 9.1 13.65 9.75 14.3 9.8 14.15 10.05 13.6 10.25 13.1 10.6 12.4 10.7 12.15 M21.4 8.75 L21.8 8.6 22.35 8.3 22.7 8.7 22.7 8.8 22.7 9.15 22.6 9.3 21.9 9.1 21.4 9.0 21.4 8.75 M24.15 20.75 L23.45 20.25 23.7 19.75 23.7 19.7 24.2 18.75 24.5 18.0 24.5 17.95 24.85 17.85 24.8 18.05 24.65 19.0 24.6 19.2 24.4 19.85 24.25 20.45 24.15 20.75" fill="#d7f56d" fill-rule="evenodd" stroke="none"/>
      <path d="M22.75 8.8 L22.8 8.85 23.35 9.65 23.2 9.55 22.6 9.3 22.7 9.15 22.7 8.8 22.75 8.8 M7.55 16.45 L7.1 16.2 7.2 15.95 7.6 16.1 8.9 16.7 9.4 17.0 10.9 17.9 11.75 17.1 12.9 16.1 12.95 16.05 13.5 15.7 13.65 15.55 13.9 15.4 13.95 15.4 14.3 15.25 14.45 15.2 14.8 15.1 14.85 15.1 14.9 15.1 15.45 14.9 15.5 14.9 17.1 14.45 17.35 14.35 17.65 14.3 17.9 14.2 18.4 14.05 19.7 13.75 19.95 13.75 20.15 13.7 20.7 13.55 21.15 13.45 21.2 13.45 21.15 13.5 20.9 13.75 20.8 13.75 20.35 14.05 19.95 14.45 19.9 14.4 18.1 14.9 17.8 14.95 16.35 15.4 15.8 15.6 14.2 16.3 14.05 16.4 14.0 16.4 13.4 16.75 12.45 17.45 11.45 18.4 10.75 19.0 10.75 19.05 10.3 18.55 9.4 17.75 9.05 17.45 8.55 17.1 Q8.05 16.7 7.55 16.45 M20.9 12.1 L21.2 12.25 21.25 12.25 21.4 12.6 21.3 12.8 21.15 12.9 Q20.85 12.9 20.85 12.55 L20.95 12.3 20.95 12.15 20.9 12.1 M23.55 11.55 L23.3 11.7 23.05 11.5 22.95 11.4 22.8 11.2 22.6 10.85 22.95 10.85 23.35 10.95 23.45 11.0 23.7 11.2 23.7 11.25 23.55 11.55" fill="#089862" fill-rule="evenodd" stroke="none"/>
      <path d="M9.55 12.9 L9.85 12.7 9.9 12.65 10.45 12.3 10.7 12.15 10.6 12.4 10.25 13.1 10.05 13.6 9.8 14.15 9.75 14.3 9.1 13.65 9.05 13.55 8.9 13.35 8.95 13.3 9.1 13.4 8.95 13.3 9.0 13.3 9.1 13.4 9.75 13.85 9.6 13.25 9.55 12.9 M14.6 10.4 L15.25 10.2 16.0 10.05 16.3 10.0 16.6 10.0 17.05 9.9 18.1 9.7 18.4 9.7 18.4 9.75 21.35 10.05 21.8 10.15 22.15 10.25 22.2 10.25 22.15 10.3 22.3 10.9 22.2 11.35 22.1 11.55 21.8 11.85 21.35 11.95 21.2 11.95 20.85 11.95 20.5 12.2 20.45 12.25 20.3 12.35 20.25 12.4 19.75 12.75 19.75 12.8 19.35 13.0 17.85 13.8 17.05 14.2 15.45 14.8 14.9 15.1 14.85 15.1 14.8 15.1 14.45 15.2 14.3 15.25 13.95 15.4 13.9 15.4 13.65 15.55 13.5 15.7 12.95 16.05 12.9 16.1 11.75 17.1 10.9 17.9 9.4 17.0 8.9 16.7 7.6 16.1 7.2 15.95 7.0 15.8 Q7.05 15.45 7.25 15.05 L7.75 15.55 8.35 15.95 8.55 16.05 10.0 16.5 10.8 16.4 12.75 15.7 13.25 15.4 13.55 15.2 Q13.65 15.15 13.8 15.05 L14.05 14.85 15.05 13.95 15.9 12.8 15.9 12.75 16.05 12.55 16.1 12.4 16.35 11.8 16.3 11.8 16.3 11.55 16.05 11.05 15.6 10.85 15.1 10.9 14.9 11.05 14.1 11.8 13.55 12.45 13.4 12.7 13.15 13.15 13.1 12.55 13.1 12.25 13.05 12.05 13.1 11.9 13.15 11.7 13.5 11.75 13.65 11.55 14.6 10.4 M20.85 9.0 L21.15 8.85 21.2 8.85 21.4 8.75 21.4 9.0 21.2 9.0 21.0 9.0 20.85 9.0 M23.35 9.65 L24.05 10.8 24.1 10.9 24.0 10.85 23.75 10.8 22.3 10.3 22.2 10.25 22.25 10.15 22.6 9.3 23.2 9.55 23.35 9.65 M13.15 11.15 L13.25 11.2 13.1 11.65 13.1 11.35 13.15 11.15 M13.5 11.75 L13.15 12.25 13.1 12.25 13.15 12.25 13.5 11.75" fill="#08bd64" fill-rule="evenodd" stroke="none"/>
      <path d="M11.6 11.6 L12.0 11.45 12.2 11.35 12.35 11.2 12.95 10.95 12.95 11.1 13.15 11.15 13.1 11.35 13.1 11.65 13.1 11.7 12.95 12.25 13.0 12.25 13.05 12.05 13.1 12.25 13.1 12.55 13.15 13.15 13.4 12.7 13.55 12.45 14.1 11.8 14.9 11.05 15.1 10.9 15.6 10.85 16.05 11.05 16.3 11.55 16.3 11.8 16.35 11.8 16.1 12.4 16.05 12.55 15.9 12.75 15.9 12.8 15.05 13.95 14.05 14.85 13.8 15.05 Q13.65 15.15 13.55 15.2 L13.25 15.4 12.75 15.7 10.8 16.4 10.0 16.5 8.55 16.05 8.35 15.95 7.75 15.55 7.25 15.05 7.45 14.55 7.75 14.3 8.0 14.75 8.35 15.2 Q8.8 15.6 9.65 15.6 L9.95 15.55 Q10.75 15.5 11.4 14.95 L11.75 14.5 11.9 14.2 12.15 13.1 12.1 12.9 Q12.05 12.1 11.6 11.6 M18.4 9.7 L19.95 9.3 20.05 9.3 20.85 9.0 21.0 9.0 21.2 9.0 21.4 9.0 21.9 9.1 22.6 9.3 22.25 10.15 22.2 10.25 22.15 10.25 21.8 10.15 21.35 10.05 18.4 9.75 18.4 9.7 M12.95 11.1 L12.95 11.65 12.95 12.25 12.95 12.4 12.95 12.45 13.1 12.25 12.95 12.45 12.95 12.4 12.95 12.25 12.95 11.65 12.95 11.1" fill="#7bfe75" fill-rule="evenodd" stroke="none"/>
      <path d="M8.65 10.3 L8.95 11.0 9.1 11.35 8.85 11.05 8.5 10.7 8.45 10.55 8.65 10.3 M9.35 12.2 L9.5 12.7 9.55 12.9 9.6 13.25 9.75 13.85 9.1 13.4 9.0 13.3 8.55 12.85 8.0 12.25 8.6 13.05 8.5 13.0 8.3 12.85 7.8 12.5 7.75 12.45 7.7 12.4 7.55 12.3 7.6 12.15 7.65 12.05 7.7 11.9 7.75 11.9 7.75 12.0 7.8 12.0 8.0 12.25 7.75 11.85 7.85 11.55 7.85 11.5 8.15 10.9 8.45 11.25 8.75 11.7 9.2 12.25 9.35 12.2 M12.95 10.95 L12.95 10.35 12.95 10.05 12.95 9.95 13.0 8.65 13.35 8.65 13.85 8.65 13.55 9.85 13.45 10.05 13.25 10.85 13.15 11.1 13.15 11.15 12.95 11.1 12.95 10.95 M15.9 9.1 L15.35 9.6 14.6 10.4 13.65 11.55 13.5 11.75 13.15 11.7 13.4 11.05 13.5 10.8 13.75 9.95 13.85 9.65 14.25 8.7 14.75 8.75 15.05 8.85 15.9 9.1" fill="#ffff77" fill-rule="evenodd" stroke="none"/>
      <path d="M12.2 27.95 L11.9 27.9 11.2 27.75 10.95 27.75 10.3 27.6 10.25 27.6 10.15 27.55 10.1 27.55 8.9 27.2 8.85 27.1 8.75 27.0 10.4 27.1 11.25 27.2 12.35 27.3 15.5 27.1 15.9 27.05 16.1 26.9 16.5 26.45 17.05 25.55 17.15 25.35 17.45 24.45 Q19.4 24.25 20.3 23.5 L20.9 22.85 Q21.4 22.05 21.4 20.7 21.4 19.35 20.3 18.45 19.45 17.75 18.1 17.65 L17.7 17.6 17.45 17.55 16.95 17.6 17.45 17.55 17.7 17.6 17.65 17.6 17.3 17.65 17.05 17.6 16.95 17.6 16.8 17.65 Q15.85 17.8 15.1 18.55 14.15 19.55 14.15 20.9 L14.15 20.95 14.3 21.95 14.3 22.05 14.4 22.3 14.8 22.7 15.2 23.1 15.1 23.3 16.15 24.05 16.55 24.3 16.15 24.1 15.15 23.55 15.1 23.45 14.7 23.2 14.5 22.95 13.85 21.9 13.8 21.75 13.75 21.6 13.65 21.15 13.65 20.8 13.65 20.65 Q13.65 19.0 14.7 18.3 L13.95 18.25 12.5 18.4 12.35 18.45 12.5 18.35 14.3 17.4 15.85 16.7 16.35 16.45 17.5 15.95 19.75 15.05 22.1 16.6 23.65 18.2 23.1 20.2 23.1 20.25 22.95 20.45 23.25 20.8 23.25 21.15 23.25 21.9 23.25 22.8 23.25 22.9 23.15 23.9 22.95 24.6 22.25 25.25 22.1 25.35 21.95 25.5 21.55 25.15 21.25 25.05 20.6 24.95 20.45 24.95 Q19.7 25.0 19.0 25.4 L18.85 25.5 18.6 25.65 17.8 26.65 17.7 26.9 17.55 27.3 16.15 27.5 12.9 27.75 12.2 27.75 12.2 27.95 M7.5 24.4 L7.4 24.15 7.3 23.9 7.8 23.65 8.0 23.65 Q8.5 23.65 8.85 22.95 L9.05 21.8 9.05 21.5 9.05 21.25 9.05 21.2 8.8 20.25 8.65 19.85 8.5 19.55 8.5 19.65 8.35 19.3 8.35 19.25 8.3 19.2 7.7 18.2 7.85 18.3 8.25 18.55 9.15 19.3 9.25 19.4 9.25 20.35 9.35 21.0 9.4 21.15 9.35 21.5 9.3 21.85 9.3 21.9 Q9.2 22.75 8.7 23.45 L8.6 23.55 7.7 24.35 7.5 24.4 M22.55 23.25 L22.5 23.25 22.5 23.2 22.2 23.35 Q22.1 23.35 22.05 23.45 L22.0 23.55 21.95 23.7 21.9 23.75 21.9 23.9 22.0 24.0 22.2 24.0 22.55 23.75 22.55 23.25 M15.1 23.3 L14.4 22.3 15.1 23.3 M8.35 19.3 L8.5 19.45 8.5 19.55 8.5 19.45 8.35 19.3" fill="#0065bf" fill-rule="evenodd" stroke="none"/>
      <path d="M6.7 22.2 L6.65 22.0 6.6 21.95 6.45 21.2 6.45 21.15 Q6.35 20.15 6.7 19.45 L7.0 18.9 7.25 18.8 7.35 18.8 7.6 18.8 Q7.95 18.9 8.3 19.4 L8.45 19.7 8.55 20.05 8.65 20.25 8.8 21.0 8.8 21.15 8.8 21.4 8.8 21.55 8.6 22.55 Q8.35 23.2 7.8 23.2 L7.55 23.15 7.05 22.8 6.9 22.6 6.9 22.55 6.7 22.2 M14.4 22.3 L14.3 22.05 14.3 21.95 14.15 20.95 14.15 20.9 Q14.15 19.55 15.1 18.55 15.85 17.8 16.8 17.65 L16.95 17.6 17.05 17.6 17.3 17.65 17.65 17.7 Q18.6 17.85 19.3 18.5 L19.65 18.9 19.9 19.35 20.05 19.65 20.25 20.6 20.2 20.85 20.15 21.2 20.1 21.4 Q19.9 22.15 19.3 22.7 18.35 23.6 17.05 23.6 L16.35 23.5 15.45 23.25 15.2 23.1 14.8 22.7 14.4 22.3 M18.85 19.1 L18.8 19.05 18.7 18.95 18.65 18.9 Q18.0 18.4 17.1 18.4 16.1 18.4 15.45 19.2 14.9 19.8 14.8 20.55 L14.8 20.95 Q14.8 21.5 14.95 21.9 L15.05 22.05 15.15 22.25 15.8 22.8 16.25 23.0 16.45 23.1 17.0 23.1 Q18.05 23.1 18.75 22.4 L19.35 21.5 19.35 21.45 19.5 20.45 19.5 20.4 19.45 20.15 19.55 20.05 19.85 19.7 19.85 19.65 19.8 19.45 19.15 19.05 18.85 19.1 M8.1 19.75 Q7.75 19.3 7.45 19.3 7.05 19.3 6.85 19.9 L6.85 19.95 6.7 20.7 6.7 20.85 6.7 20.95 6.75 21.2 6.9 21.9 6.95 22.0 7.0 22.15 7.25 22.6 7.45 22.75 7.55 22.8 7.75 22.8 Q8.15 22.8 8.4 22.3 L8.5 21.65 8.5 21.6 8.5 20.9 8.5 20.8 8.5 20.6 8.5 20.55 8.55 20.3 8.55 20.25 8.5 20.1 8.25 19.8 8.15 19.85 8.15 19.8 8.1 19.75" fill="#270f09" fill-rule="evenodd" stroke="none"/>
      <path d="M19.3 20.2 Q19.3 20.95 18.65 21.5 L18.55 21.6 18.45 21.65 18.1 21.8 17.95 21.85 17.6 21.8 17.5 21.75 17.35 21.7 16.9 21.35 Q16.45 20.95 16.45 20.35 L16.5 20.1 16.8 19.15 17.25 18.8 17.85 18.65 18.65 18.9 18.7 18.95 18.8 19.05 18.85 19.1 18.6 19.4 18.5 19.5 18.5 19.6 18.5 19.7 Q18.5 20.0 18.65 20.1 L19.0 20.25 19.3 20.2 M8.4 20.65 L8.25 21.6 8.25 21.7 8.2 21.75 8.1 21.85 8.0 21.85 7.9 21.85 7.8 21.85 7.75 21.8 7.6 21.55 7.3 20.75 7.3 20.55 7.35 19.9 7.5 19.65 7.75 19.55 8.1 19.75 8.15 19.8 8.15 19.85 8.05 20.05 8.05 20.15 8.05 20.2 8.05 20.3 8.05 20.35 8.15 20.6 8.35 20.65 8.4 20.65" fill="#822817" fill-rule="evenodd" stroke="none"/>
      <path d="M18.65 18.9 L17.85 18.65 17.25 18.8 16.8 19.15 16.5 20.1 16.45 20.35 Q16.45 20.95 16.9 21.35 L17.35 21.7 17.5 21.75 17.6 21.8 17.95 21.85 18.1 21.8 18.45 21.65 18.55 21.6 18.65 21.5 Q19.3 20.95 19.3 20.2 L19.45 20.15 19.5 20.4 19.5 20.45 19.35 21.45 19.35 21.5 18.75 22.4 Q18.05 23.1 17.0 23.1 L16.45 23.1 16.25 23.0 15.8 22.8 15.15 22.25 15.05 22.05 14.95 21.9 Q14.8 21.5 14.8 20.95 L14.8 20.55 Q14.9 19.8 15.45 19.2 16.1 18.4 17.1 18.4 18.0 18.4 18.65 18.9 M8.5 20.6 L8.5 20.8 8.5 20.9 8.5 21.6 8.5 21.65 8.4 22.3 Q8.15 22.8 7.75 22.8 L7.55 22.8 7.45 22.75 7.25 22.6 7.0 22.15 6.95 22.0 6.9 21.9 6.75 21.2 6.7 20.95 6.7 20.85 6.7 20.7 6.85 19.95 6.85 19.9 Q7.05 19.3 7.45 19.3 7.75 19.3 8.1 19.75 L7.75 19.55 7.5 19.65 7.35 19.9 7.3 20.55 7.3 20.75 7.6 21.55 7.75 21.8 7.8 21.85 7.9 21.85 8.0 21.85 8.1 21.85 8.2 21.75 8.25 21.7 8.25 21.6 8.4 20.65 8.5 20.6" fill="#5e1d11" fill-rule="evenodd" stroke="none"/>
      <path d="M19.3 20.2 L19.0 20.25 18.65 20.1 Q18.5 20.0 18.5 19.7 L18.5 19.6 18.5 19.5 18.6 19.4 18.85 19.1 19.15 19.05 19.8 19.45 19.85 19.65 19.85 19.7 19.55 20.05 19.45 20.15 19.3 20.2 M8.5 20.6 L8.4 20.65 8.35 20.65 8.15 20.6 8.05 20.35 8.05 20.3 8.05 20.2 8.05 20.15 8.05 20.05 8.15 19.85 8.25 19.8 8.5 20.1 8.55 20.25 8.55 20.3 8.5 20.55 8.5 20.6" fill="#e3ffb9" fill-rule="evenodd" stroke="none"/>
      <path d="M19.65 18.9 L19.9 18.7 20.25 19.1 20.5 19.6 20.75 20.95 20.75 21.05 20.75 21.35 20.7 21.7 20.55 21.35 20.4 21.15 20.25 20.9 20.2 20.85 20.25 20.6 20.05 19.65 19.9 19.35 19.65 18.9 M8.45 19.7 L8.5 19.65 8.5 19.55 8.65 19.85 8.8 20.25 9.05 21.2 9.05 21.25 9.05 21.5 9.05 21.8 9.0 21.55 8.9 21.35 8.85 21.25 8.8 21.15 8.8 21.0 8.65 20.25 8.55 20.05 8.45 19.7" fill="#cc832e" fill-rule="evenodd" stroke="none"/>
      <path d="M20.7 21.7 Q20.45 22.6 19.8 23.3 18.85 24.25 17.45 24.25 L16.15 24.05 15.1 23.3 15.2 23.1 15.45 23.25 16.35 23.5 17.05 23.6 Q18.35 23.6 19.3 22.7 19.9 22.15 20.1 21.4 L20.15 21.2 20.2 20.85 20.25 20.9 20.4 21.15 20.55 21.35 20.7 21.7 M8.8 21.15 L8.85 21.25 8.9 21.35 9.0 21.55 9.05 21.8 8.85 22.95 Q8.5 23.65 8.0 23.65 L7.8 23.65 Q7.4 23.5 7.05 22.95 L7.05 22.8 7.55 23.15 7.8 23.2 Q8.35 23.2 8.6 22.55 L8.8 21.55 8.8 21.4 8.8 21.15" fill="#fff83f" fill-rule="evenodd" stroke="none"/>
      <path d="M25.7 22.45 L25.2 23.55 24.95 24.0 24.95 24.05 24.65 24.6 24.5 24.8 24.25 25.1 23.2 26.35 23.1 26.4 22.6 26.9 22.55 27.0 22.5 27.05 22.45 27.05 22.05 27.15 22.0 27.15 21.0 27.45 20.5 27.6 20.0 27.7 19.9 27.7 18.75 27.9 18.2 28.0 17.8 28.05 17.55 28.1 17.1 28.15 16.25 28.25 15.6 28.35 14.7 28.45 14.45 28.4 14.25 28.35 14.2 28.35 13.35 28.2 16.2 27.8 16.15 27.5 16.25 27.8 17.6 27.65 17.65 27.65 17.95 27.6 19.45 27.25 19.8 27.15 19.85 27.1 21.7 26.4 21.8 26.35 22.4 25.95 22.55 25.85 22.6 25.85 22.6 25.75 22.7 25.65 23.25 24.9 23.4 24.75 23.75 24.1 24.0 23.75 24.15 23.4 24.6 22.5 24.75 22.1 24.75 22.05 24.85 21.4 25.0 21.6 25.7 22.45" fill="#50aec8" fill-rule="evenodd" stroke="none"/>
      <path d="M8.75 27.0 L8.55 26.6 8.05 25.65 8.0 25.55 7.9 25.45 7.8 25.1 7.5 24.4 7.7 24.35 8.6 23.55 8.7 23.45 Q9.2 22.75 9.3 21.9 L9.3 21.85 9.35 21.5 9.4 21.15 9.35 21.0 9.25 20.35 9.25 19.4 9.15 19.3 8.25 18.55 7.85 18.3 8.3 17.45 8.55 17.1 9.05 17.45 9.55 18.0 10.7 19.15 Q10.95 18.9 11.3 18.8 L12.3 18.45 12.35 18.45 12.5 18.4 13.95 18.25 14.7 18.3 Q13.65 19.0 13.65 20.65 L13.65 20.8 13.65 21.15 13.75 21.6 13.8 21.75 13.85 21.9 14.5 22.95 14.7 23.2 15.1 23.45 15.15 23.55 16.15 24.1 16.55 24.3 17.05 24.45 17.35 24.45 17.45 24.45 17.15 25.35 17.05 25.55 16.5 26.45 16.1 26.9 15.9 27.05 15.5 27.1 12.35 27.3 11.25 27.2 10.4 27.1 8.75 27.0 M9.95 19.7 L10.05 20.55 10.0 20.85 9.95 21.45 9.6 22.65 9.1 23.6 8.7 24.2 8.75 24.5 8.85 24.8 8.9 24.9 9.1 25.55 9.35 26.3 10.0 26.5 10.05 26.5 10.75 26.55 Q12.15 26.55 13.4 25.25 L13.8 24.75 13.4 24.25 Q12.35 23.0 12.15 21.45 L12.1 20.6 12.15 19.65 10.75 19.8 9.95 19.7" fill="#04bafc" fill-rule="evenodd" stroke="none"/>
      <path d="M9.1 11.35 L9.2 11.55 9.3 12.1 8.95 11.65 8.95 11.6 8.55 11.2 8.5 11.0 8.3 10.8 8.45 10.55 8.5 10.7 8.85 11.05 9.1 11.35 M13.95 8.65 L14.25 8.7 13.85 9.65 13.75 9.95 13.5 10.8 13.4 11.05 13.15 11.7 13.1 11.9 13.05 12.05 13.0 12.25 12.95 12.25 13.1 11.7 13.1 11.65 13.25 11.2 13.3 10.85 13.35 10.8 13.55 10.05 13.6 9.95 13.6 9.9 13.95 8.65" fill="#bc1e20" fill-rule="evenodd" stroke="none"/>
      <path d="M9.95 19.7 L10.75 19.8 12.15 19.65 12.1 20.6 12.15 21.45 Q12.35 23.0 13.4 24.25 L13.8 24.75 13.4 25.25 Q12.15 26.55 10.75 26.55 L10.05 26.5 10.0 26.5 9.35 26.3 9.1 25.55 8.9 24.9 8.85 24.8 8.75 24.5 8.7 24.2 9.1 23.6 9.6 22.65 9.95 21.45 10.0 20.85 10.05 20.55 9.95 19.7 M11.0 24.1 Q11.0 23.5 10.45 23.5 L10.3 23.5 10.15 23.65 10.05 23.95 10.3 24.45 10.45 24.55 10.7 24.65 10.75 24.6 10.8 24.6 10.9 24.45 11.0 24.1" fill="#04dbf5" fill-rule="evenodd" stroke="none"/>
      <path d="M11.0 24.1 L10.9 24.45 10.8 24.6 10.75 24.6 10.7 24.65 10.45 24.55 10.3 24.45 10.05 23.95 10.15 23.65 10.3 23.5 10.45 23.5 Q11.0 23.5 11.0 24.1" fill="#9fffff" fill-rule="evenodd" stroke="none"/>
      <path d="M4.75 7.1 L4.8 7.6 4.85 9.05 4.9 9.4 4.95 10.15 5.0 10.55 5.05 10.7 M5.1 6.85 L4.7 6.6 4.75 7.1 M5.3 6.95 L5.6 7.1 6.6 7.75 6.65 7.75 6.7 7.8 6.9 7.9 7.1 8.05 7.3 8.2 7.75 8.5 M13.3 6.25 L13.65 5.85 14.05 5.55 14.4 5.15 14.5 5.1 14.55 5.1 M14.6 5.1 L14.75 4.85 15.0 4.7 15.05 4.6 15.15 4.55 15.3 4.35 Q15.45 4.2 15.65 4.15 L15.65 4.1 15.95 3.85 16.65 3.35 16.95 3.15 17.2 3.0 18.85 2.0 18.9 2.85 18.9 3.15 18.9 3.4 18.9 3.55 18.85 6.15 18.85 6.25 18.8 6.45 18.8 6.65 M5.1 6.85 L5.3 6.95" fill="none" stroke="#704d3c" stroke-linecap="round" stroke-linejoin="round" stroke-width="1.0"/>
      <path d="M7.75 8.5 L7.9 8.7 8.1 9.1 8.3 9.4 8.3 9.5 8.35 9.6 8.65 10.25 8.65 10.3 8.95 11.0 9.1 11.35 9.2 11.55 9.3 12.1 9.35 12.2 9.5 12.7 9.55 12.9 9.6 13.25 9.75 13.85 9.1 13.4 8.95 13.3 8.6 13.05 8.5 13.0 8.3 12.85 7.8 12.5 7.75 12.45 7.7 12.4 7.55 12.3 7.35 12.25 7.25 12.15 7.0 12.0 6.95 11.95 6.8 11.85 5.85 11.25 5.55 11.05 5.25 10.85 5.15 10.8 5.05 10.7 M12.95 10.95 L12.95 10.35 12.95 10.05 12.95 9.95 13.0 8.65 13.05 8.1 13.05 7.95 13.15 7.1 13.25 6.6 13.3 6.35 13.3 6.25 M18.8 6.65 L18.0 7.15 17.85 7.3 17.75 7.35 17.45 7.6 17.3 7.75 16.75 8.2 16.75 8.25 16.6 8.35 16.4 8.6 16.2 8.7 16.05 8.85 16.0 8.9 15.9 9.05 15.9 9.1 15.35 9.6 14.6 10.4 13.65 11.55 13.5 11.75 13.15 12.25 13.1 12.25 12.95 12.45 12.95 12.4 12.95 12.25 12.95 11.65 12.95 11.1 12.95 10.95" fill="none" stroke="#54241e" stroke-linecap="round" stroke-linejoin="round" stroke-width="1.0"/>
      <path d="M9.55 12.9 L9.85 12.7 9.9 12.65 10.45 12.3 10.7 12.15 11.6 11.6 12.0 11.45 12.2 11.35 12.35 11.2 12.95 10.95 M14.6 10.4 L15.25 10.2 16.0 10.05 16.3 10.0 16.6 10.0 17.05 9.9 18.1 9.7 18.4 9.7 19.95 9.3 M20.05 9.3 L20.85 9.0 21.15 8.85 21.2 8.85 21.4 8.75 21.8 8.6 22.35 8.3 22.7 8.7 22.75 8.8 22.8 8.85 23.35 9.65 24.05 10.8 24.1 10.9 24.15 10.95 24.4 11.45 24.45 11.5 24.6 11.8 25.35 13.3 25.35 13.35 26.35 15.7 26.55 16.35 26.6 16.4 26.6 16.6 26.8 17.65 26.75 19.1 26.65 19.85 26.55 20.3 26.25 21.35 26.1 21.8 25.85 22.4 25.75 22.55 25.7 22.45 25.0 21.6 24.85 21.4 24.15 20.75 23.45 20.25 23.7 19.75 23.7 19.7 24.2 18.75 24.5 18.0 24.5 17.95 24.2 17.6 23.35 16.65 23.2 16.5 22.5 15.9 22.1 15.55 21.7 15.25 21.0 14.9 20.75 14.75 20.05 14.45 19.95 14.45 19.9 14.4 18.1 14.9 17.8 14.95 16.35 15.4 15.8 15.6 14.2 16.3 14.05 16.4 14.0 16.4 13.4 16.75 12.45 17.45 11.45 18.4 10.75 19.0 10.75 19.05 10.3 18.55 9.4 17.75 9.05 17.45 8.55 17.1 Q8.05 16.7 7.55 16.45 L7.1 16.2 6.95 15.85 7.0 15.8 Q7.05 15.45 7.25 15.05 L7.45 14.55 7.75 14.3 8.4 13.75 8.9 13.35 8.95 13.3 9.0 13.3" fill="none" stroke="#244a62" stroke-linecap="round" stroke-linejoin="round" stroke-width="1.0"/>
      <path d="M6.95 22.75 L6.7 22.2 6.65 22.0 6.6 21.95 6.45 21.2 6.45 21.15 Q6.35 20.15 6.7 19.45 L7.0 18.9 7.25 18.8 7.35 18.8 7.6 18.8 Q7.95 18.9 8.3 19.4 L8.45 19.7 8.55 20.05 8.65 20.25 8.8 21.0 8.8 21.15 8.8 21.4 8.8 21.55 8.6 22.55 Q8.35 23.2 7.8 23.2 L7.55 23.15 7.05 22.8 6.9 22.6 6.9 22.55 6.7 22.2 M14.4 22.3 L14.3 22.05 14.3 21.95 14.15 20.95 14.15 20.9 Q14.15 19.55 15.1 18.55 15.85 17.8 16.8 17.65 L16.95 17.6 17.45 17.55 17.7 17.6 18.1 17.65 Q18.85 17.75 19.5 18.25 L19.8 18.55 19.9 18.7 20.25 19.1 20.5 19.6 20.75 20.95 20.75 21.05 20.75 21.35 20.7 21.7 Q20.45 22.6 19.8 23.3 18.85 24.25 17.45 24.25 L16.15 24.05 15.1 23.3 14.4 22.3 14.8 22.7 15.2 23.1 15.45 23.25 16.35 23.5 17.05 23.6 Q18.35 23.6 19.3 22.7 19.9 22.15 20.1 21.4 L20.15 21.2 20.2 20.85 20.25 20.6 20.05 19.65 19.9 19.35 19.65 18.9 19.3 18.5 Q18.6 17.85 17.65 17.7 L17.3 17.65 17.05 17.6 16.95 17.6 M8.35 19.3 L8.35 19.25 8.3 19.2 Q7.9 18.8 7.6 18.75 L7.5 18.75 7.25 18.8 M9.05 21.8 L9.05 21.5 9.05 21.25 9.05 21.2 8.8 20.25 8.65 19.85 8.5 19.55 8.5 19.45 8.35 19.3 M7.8 23.65 L8.0 23.65 Q8.5 23.65 8.85 22.95 L9.05 21.8 M7.05 22.95 Q7.4 23.5 7.8 23.65 M6.95 22.75 L7.05 22.95" fill="none" stroke="#0b0205" stroke-linecap="round" stroke-linejoin="round" stroke-width="1.0"/>
      <path d="M25.7 22.45 L25.2 23.55 24.95 24.0 24.95 24.05 24.65 24.6 24.5 24.8 24.25 25.1 23.2 26.35 23.1 26.4 22.6 26.9 22.55 27.0 22.5 27.05 22.45 27.05 22.05 27.15 22.0 27.15 21.0 27.45 20.5 27.6 20.0 27.7 19.9 27.7 18.75 27.9 18.2 28.0 17.8 28.05 17.55 28.1 17.1 28.15 16.25 28.25 15.6 28.35 14.7 28.45 14.45 28.4 14.25 28.35 14.2 28.35 13.35 28.2 13.1 28.15 12.9 28.1 12.8 28.1 12.2 27.95 11.9 27.9 11.2 27.75 10.95 27.75 10.3 27.6 10.25 27.6 10.15 27.55 10.1 27.55 8.9 27.2 8.85 27.1 8.75 27.0 8.55 26.6 8.05 25.65 8.0 25.55 7.9 25.45 7.8 25.1 7.5 24.4 7.4 24.15 7.3 23.9 6.95 22.75 6.9 22.6 M7.0 18.9 L7.15 18.25 7.2 17.95 7.55 16.45" fill="none" stroke="#143c63" stroke-linecap="round" stroke-linejoin="round" stroke-width="1.0"/>
      <path d="M4.35 20.4 L3.8 21.4 3.85 22.85 4.0 23.7 3.7 24.65 3.55 25.2 2.7 24.35 2.3 23.7 Q2.3 23.25 2.45 22.7 2.8 21.3 4.15 20.5 L4.35 20.4 M3.1 23.45 Q2.95 23.9 3.2 23.95 L3.3 24.1 Q3.65 24.2 3.7 23.95 L3.75 23.8 Q3.85 23.35 3.45 23.2 3.15 23.15 3.1 23.45" fill="#98d6ef" fill-rule="evenodd" stroke="none"/>
      <path d="M4.0 23.7 L3.85 22.85 3.8 21.4 4.35 20.4 7.3 20.35 8.0 20.75 7.9 20.85 Q7.05 20.95 5.7 21.7 4.5 22.4 4.0 23.55 L4.0 23.7" fill="#64c0e8" fill-rule="evenodd" stroke="none"/>
      <path d="M3.1 23.45 Q3.15 23.15 3.45 23.2 3.85 23.35 3.75 23.8 L3.7 23.95 Q3.65 24.2 3.3 24.1 L3.2 23.95 Q2.95 23.9 3.1 23.45" fill="#ffffff" fill-rule="evenodd" stroke="none"/>
      <path d="M3.55 25.2 L3.7 24.65 4.0 23.7 4.0 23.55 Q4.5 22.4 5.7 21.7 7.05 20.95 7.9 20.85 L7.05 21.4 6.45 23.2 5.65 24.55 Q4.75 25.5 3.85 25.25 L3.55 25.2" fill="#38aee0" fill-rule="evenodd" stroke="none"/>
      <path d="M4.35 20.4 L4.15 20.5 Q2.8 21.3 2.45 22.7 2.3 23.25 2.3 23.7 L2.7 24.35 3.55 25.2 3.85 25.25 Q4.75 25.5 5.65 24.55 L6.45 23.2 7.05 21.4 7.9 20.85 8.0 20.75 7.3 20.35 4.35 20.4 Z" fill="none" stroke="#0066ff" stroke-linecap="round" stroke-linejoin="round" stroke-width="0.7000000000000001"/>
      <path d="M20.25 22.4 Q21.5 21.65 22.3 21.75 23.25 21.7 23.7 22.2 L24.45 23.3 Q25.1 24.4 24.5 25.65 L24.4 25.75 24.4 25.8 24.0 26.3 Q23.75 26.8 24.0 27.25 L24.4 27.65 25.3 28.25 25.55 28.3 Q24.45 28.9 23.45 28.6 22.5 28.3 21.95 27.35 21.45 26.5 22.2 25.0 22.75 23.6 22.4 22.95 L21.55 22.35 21.3 22.3 20.25 22.6 20.25 22.4" fill="#38aee0" fill-rule="evenodd" stroke="none"/>
      <path d="M23.7 22.2 Q23.25 21.7 22.3 21.75 21.5 21.65 20.25 22.4 20.25 21.65 21.25 20.95 21.8 20.55 23.5 20.4 24.8 20.5 25.55 21.05 L25.7 21.2 26.7 22.25 Q27.75 24.0 27.35 25.8 L26.85 27.05 26.5 26.85 Q26.45 25.25 25.5 23.95 L23.7 22.2" fill="#98d6ef" fill-rule="evenodd" stroke="none"/>
      <path d="M24.4 27.65 L24.0 27.25 Q23.75 26.8 24.0 26.3 L24.4 25.8 24.4 25.75 Q25.05 25.4 25.05 26.35 25.1 27.3 24.7 27.55 L24.4 27.65" fill="#ffffff" fill-rule="evenodd" stroke="none"/>
      <path d="M25.55 28.3 L25.3 28.25 24.4 27.65 24.7 27.55 Q25.1 27.3 25.05 26.35 25.05 25.4 24.4 25.75 L24.5 25.65 Q25.1 24.4 24.45 23.3 L23.7 22.2 25.5 23.95 Q26.45 25.25 26.5 26.85 L26.85 27.05 Q26.4 27.95 25.65 28.25 L25.55 28.3" fill="#64c0e8" fill-rule="evenodd" stroke="none"/>
      <path d="M20.25 22.4 L20.25 22.6 21.3 22.3 21.55 22.35 22.4 22.95 Q22.75 23.6 22.2 25.0 21.45 26.5 21.95 27.35 22.5 28.3 23.45 28.6 24.45 28.9 25.55 28.3 L25.65 28.25 Q26.4 27.95 26.85 27.05 L27.35 25.8 Q27.75 24.0 26.7 22.25 L25.7 21.2 25.55 21.05 Q24.8 20.5 23.5 20.4 21.8 20.55 21.25 20.95 20.25 21.65 20.25 22.4 M23.5 20.4 L25.1 20.7 25.55 21.05" fill="none" stroke="#0066ff" stroke-linecap="round" stroke-linejoin="round" stroke-width="0.7000000000000001"/>
    </g>
  </defs>
</svg>
