<?xml version="1.0" encoding="UTF-8" standalone="no"?>
<svg xmlns:ffdec="https://www.free-decompiler.com/flash" xmlns:xlink="http://www.w3.org/1999/xlink" ffdec:objectType="frame" height="30.0px" width="30.0px" xmlns="http://www.w3.org/2000/svg">
  <g transform="matrix(1.0, 0.0, 0.0, 1.0, 0.0, 0.0)">
    <use ffdec:characterId="1" height="30.0" transform="matrix(1.0, 0.0, 0.0, 1.0, 0.0, 0.0)" width="30.0" xlink:href="#shape0"/>
  </g>
  <defs>
    <g id="shape0" transform="matrix(1.0, 0.0, 0.0, 1.0, 0.0, 0.0)">
      <path d="M0.0 0.0 L30.0 0.0 30.0 30.0 0.0 30.0 0.0 0.0" fill="#33cc66" fill-opacity="0.0" fill-rule="evenodd" stroke="none"/>
      <path d="M26.7 0.0 Q30.0 0.0 30.0 3.3 L30.0 26.7 Q30.0 30.0 26.7 30.0 L3.3 30.0 Q0.0 30.0 0.0 26.7 L0.0 3.3 Q0.0 0.0 3.3 0.0 L26.7 0.0" fill="#ffcc99" fill-rule="evenodd" stroke="none"/>
      <path d="M12.7 21.55 L15.65 21.55 15.65 27.85 21.5 27.85 21.5 21.55 24.55 21.55 Q22.35 17.8 18.6 15.05 L17.55 15.9 Q14.5 18.55 12.7 21.55 Z" fill="none" stroke="#ffffff" stroke-linecap="round" stroke-linejoin="round" stroke-width="3.5"/>
      <path d="M6.9 4.55 L3.85 4.55 3.75 5.45 5.1 5.45 Q6.5 5.45 7.25 6.25 8.05 7.0 8.05 8.65 8.05 10.85 6.8 11.9 5.95 12.6 4.8 12.6 L2.55 12.15 Q2.1 11.85 2.1 11.3 2.1 10.9 2.35 10.6 2.5 10.35 2.8 10.35 L3.1 10.4 4.8 10.75 Q5.45 10.75 5.95 10.25 6.6 9.7 6.6 8.65 6.6 7.35 5.05 7.35 L2.2 7.35 2.45 5.05 2.5 2.7 6.9 2.7 7.45 2.95 7.65 3.6 7.45 4.3 6.9 4.55 M11.0 5.4 Q10.75 6.0 10.75 7.6 10.75 9.15 11.0 9.8 11.35 10.75 12.4 10.75 13.5 10.75 13.85 9.8 L14.1 7.6 13.85 5.4 Q13.5 4.4 12.4 4.4 11.35 4.4 11.0 5.4 M12.4 12.6 Q9.25 12.6 9.25 7.6 9.25 2.55 12.4 2.55 15.6 2.55 15.6 7.6 15.6 9.9 14.95 11.15 14.2 12.6 12.4 12.6" fill="url(#gradient0)" fill-rule="evenodd" stroke="none"/>
      <path d="M6.9 4.55 L3.85 4.55 3.75 5.45 5.1 5.45 Q6.5 5.45 7.25 6.25 8.05 7.0 8.05 8.65 8.05 10.85 6.8 11.9 5.95 12.6 4.8 12.6 L2.55 12.15 Q2.1 11.85 2.1 11.3 2.1 10.9 2.35 10.6 2.5 10.35 2.8 10.35 L3.1 10.4 4.8 10.75 Q5.45 10.75 5.95 10.25 6.6 9.7 6.6 8.65 6.6 7.35 5.05 7.35 L2.2 7.35 2.45 5.05 2.5 2.7 6.9 2.7 7.45 2.95 7.65 3.6 7.45 4.3 6.9 4.55 M11.0 5.4 Q10.75 6.0 10.75 7.6 10.75 9.15 11.0 9.8 11.35 10.75 12.4 10.75 13.5 10.75 13.85 9.8 L14.1 7.6 13.85 5.4 Q13.5 4.4 12.4 4.4 11.35 4.4 11.0 5.4 M12.4 12.6 Q9.25 12.6 9.25 7.6 9.25 2.55 12.4 2.55 15.6 2.55 15.6 7.6 15.6 9.9 14.95 11.15 14.2 12.6 12.4 12.6 Z" fill="none" stroke="#ffffff" stroke-linecap="round" stroke-linejoin="round" stroke-width="4.0"/>
      <path d="M23.8 12.75 L11.25 21.45 13.6 23.75 10.8 25.15 8.65 23.25 3.9 26.55 2.7 25.35 6.0 20.7 4.35 19.0 5.45 16.25 7.7 18.2 17.25 4.55 27.7 3.25 23.8 12.75 Z" fill="none" stroke="#ffffff" stroke-linecap="round" stroke-linejoin="round" stroke-width="3.5"/>
      <path d="M25.7 3.35 L27.75 3.1 9.85 19.9 9.25 19.45 25.7 3.35" fill="#ffffff" fill-rule="evenodd" stroke="none"/>
      <path d="M7.85 18.1 L17.35 4.35 25.7 3.35 9.25 19.45 7.85 18.1" fill="#cccccc" fill-rule="evenodd" stroke="none"/>
      <path d="M27.75 3.1 L23.85 12.55 11.4 21.3 9.85 19.9 27.75 3.1" fill="#999999" fill-rule="evenodd" stroke="none"/>
      <path d="M11.4 21.3 L13.8 23.6 10.85 24.95 8.85 23.05 6.1 20.45 4.4 18.85 5.5 16.05 7.85 18.1 9.25 19.45 9.85 19.9 11.4 21.3" fill="#996600" fill-rule="evenodd" stroke="none"/>
      <path d="M8.85 23.05 L4.05 26.45 2.75 25.15 6.1 20.45 8.85 23.05" fill="#ffcc00" fill-rule="evenodd" stroke="none"/>
      <path d="M27.75 3.1 L23.85 12.55 11.4 21.3 13.8 23.6 10.85 24.95 8.85 23.05 4.05 26.45 2.75 25.15 6.1 20.45 4.4 18.85 5.5 16.05 7.85 18.1 17.35 4.35 25.7 3.35 27.75 3.1 Z" fill="none" stroke="#663300" stroke-linecap="round" stroke-linejoin="round" stroke-width="1.0"/>
      <path d="M18.6 15.05 L20.45 17.85 22.1 20.6 20.25 20.6 20.25 22.9 20.25 24.35 20.2 24.35 20.2 27.85 16.9 27.85 16.9 20.65 15.0 20.65 Q15.05 19.9 16.2 18.3 L15.9 18.8 Q15.9 19.95 16.9 18.75 L17.75 17.35 17.45 17.05 16.95 17.3 18.6 15.05" fill="#ff0000" fill-rule="evenodd" stroke="none"/>
      <path d="M20.2 27.85 L20.2 24.35 20.25 24.35 20.25 22.9 20.25 20.6 22.1 20.6 20.45 17.85 18.6 15.05 Q22.35 17.8 24.55 21.55 L21.5 21.55 21.5 27.85 20.2 27.85" fill="#990000" fill-rule="evenodd" stroke="none"/>
      <path d="M16.95 17.3 L17.45 17.05 17.75 17.35 16.9 18.75 Q15.9 19.95 15.9 18.8 L16.2 18.3 16.4 17.95 Q16.6 17.55 16.95 17.3" fill="#ffffff" fill-rule="evenodd" stroke="none"/>
      <path d="M18.6 15.05 L16.95 17.3 Q16.6 17.55 16.4 17.95 L16.2 18.3 Q15.05 19.9 15.0 20.65 L16.9 20.65 16.9 27.85 15.65 27.85 15.65 21.55 12.7 21.55 Q14.5 18.55 17.55 15.9 16.4 17.2 18.6 15.05" fill="#ff6a6a" fill-rule="evenodd" stroke="none"/>
      <path d="M18.6 15.05 Q16.4 17.2 17.55 15.9 L18.6 15.05" fill="#cb2c1b" fill-rule="evenodd" stroke="none"/>
      <path d="M20.2 27.85 L21.5 27.85 21.5 27.9 20.2 27.9 20.2 27.85" fill="#3b861d" fill-rule="evenodd" stroke="none"/>
      <path d="M15.65 27.85 L16.9 27.85 16.9 27.9 15.65 27.9 15.65 27.85" fill="#c7f36c" fill-rule="evenodd" stroke="none"/>
      <path d="M16.9 27.85 L20.2 27.85 20.2 27.9 16.9 27.9 16.9 27.85" fill="#74c84e" fill-rule="evenodd" stroke="none"/>
      <path d="M16.9 27.85 L20.2 27.85 21.5 27.85 21.5 21.55 24.55 21.55 Q22.35 17.8 18.6 15.05 L17.55 15.9 Q14.5 18.55 12.7 21.55 L15.65 21.55 15.65 27.85 16.9 27.85 Z" fill="none" stroke="#460000" stroke-linecap="round" stroke-linejoin="round" stroke-width="1.0"/>
      <path d="M6.9 4.55 L3.85 4.55 3.75 5.45 5.1 5.45 Q6.5 5.45 7.25 6.25 8.05 7.0 8.05 8.65 8.05 10.85 6.8 11.9 5.95 12.6 4.8 12.6 L2.55 12.15 Q2.1 11.85 2.1 11.3 2.1 10.9 2.35 10.6 2.5 10.35 2.8 10.35 L3.1 10.4 4.8 10.75 Q5.45 10.75 5.95 10.25 6.6 9.7 6.6 8.65 6.6 7.35 5.05 7.35 L2.2 7.35 2.45 5.05 2.5 2.7 6.9 2.7 7.45 2.95 7.65 3.6 7.45 4.3 6.9 4.55 M11.0 5.4 Q10.75 6.0 10.75 7.6 10.75 9.15 11.0 9.8 11.35 10.75 12.4 10.75 13.5 10.75 13.85 9.8 L14.1 7.6 13.85 5.4 Q13.5 4.4 12.4 4.4 11.35 4.4 11.0 5.4 M12.4 12.6 Q9.25 12.6 9.25 7.6 9.25 2.55 12.4 2.55 15.6 2.55 15.6 7.6 15.6 9.9 14.95 11.15 14.2 12.6 12.4 12.6" fill="url(#gradient1)" fill-rule="evenodd" stroke="none"/>
      <path d="M6.9 4.55 L3.85 4.55 3.75 5.45 5.1 5.45 Q6.5 5.45 7.25 6.25 8.05 7.0 8.05 8.65 8.05 10.85 6.8 11.9 5.95 12.6 4.8 12.6 L2.55 12.15 Q2.1 11.85 2.1 11.3 2.1 10.9 2.35 10.6 2.5 10.35 2.8 10.35 L3.1 10.4 4.8 10.75 Q5.45 10.75 5.95 10.25 6.6 9.7 6.6 8.65 6.6 7.35 5.05 7.35 L2.2 7.35 2.45 5.05 2.5 2.7 6.9 2.7 7.45 2.95 7.65 3.6 7.45 4.3 6.9 4.55 M11.0 5.4 Q10.75 6.0 10.75 7.6 10.75 9.15 11.0 9.8 11.35 10.75 12.4 10.75 13.5 10.75 13.85 9.8 L14.1 7.6 13.85 5.4 Q13.5 4.4 12.4 4.4 11.35 4.4 11.0 5.4 M12.4 12.6 Q9.25 12.6 9.25 7.6 9.25 2.55 12.4 2.55 15.6 2.55 15.6 7.6 15.6 9.9 14.95 11.15 14.2 12.6 12.4 12.6 Z" fill="none" stroke="#330000" stroke-linecap="round" stroke-linejoin="round" stroke-width="2.0"/>
      <path d="M2.5 2.7 L6.9 2.7 7.45 2.95 7.65 3.6 7.45 4.3 6.9 4.55 3.85 4.55 3.75 5.45 5.1 5.45 Q6.5 5.45 7.25 6.25 8.05 7.0 8.05 8.65 8.05 10.85 6.8 11.9 5.95 12.6 4.8 12.6 L2.55 12.15 Q2.1 11.85 2.1 11.3 2.1 10.9 2.35 10.6 2.5 10.35 2.8 10.35 L3.1 10.4 4.8 10.75 Q5.45 10.75 5.95 10.25 6.6 9.7 6.6 8.65 6.6 7.35 5.05 7.35 L2.2 7.35 2.45 5.05 2.5 2.7 M12.4 4.4 Q11.35 4.4 11.0 5.4 10.75 6.0 10.75 7.6 10.75 9.15 11.0 9.8 11.35 10.75 12.4 10.75 13.5 10.75 13.85 9.8 L14.1 7.6 13.85 5.4 Q13.5 4.4 12.4 4.4 M12.4 12.6 Q9.25 12.6 9.25 7.6 9.25 2.55 12.4 2.55 15.6 2.55 15.6 7.6 15.6 9.9 14.95 11.15 14.2 12.6 12.4 12.6" fill="url(#gradient2)" fill-rule="evenodd" stroke="none"/>
    </g>
    <linearGradient gradientTransform="matrix(0.0, -0.0058, 0.0135, 0.0, 13.2, 7.55)" gradientUnits="userSpaceOnUse" id="gradient0" spreadMethod="pad" x1="-819.2" x2="819.2">
      <stop offset="0.0" stop-color="#ff9900"/>
      <stop offset="1.0" stop-color="#fff800"/>
    </linearGradient>
    <linearGradient gradientTransform="matrix(0.0, -0.0058, 0.0135, 0.0, 13.2, 7.55)" gradientUnits="userSpaceOnUse" id="gradient1" spreadMethod="pad" x1="-819.2" x2="819.2">
      <stop offset="0.0" stop-color="#ff9900"/>
      <stop offset="1.0" stop-color="#fff800"/>
    </linearGradient>
    <linearGradient gradientTransform="matrix(0.0, -0.0058, 0.0135, 0.0, 13.2, 7.55)" gradientUnits="userSpaceOnUse" id="gradient2" spreadMethod="pad" x1="-819.2" x2="819.2">
      <stop offset="0.0" stop-color="#ff9900"/>
      <stop offset="1.0" stop-color="#fff800"/>
    </linearGradient>
  </defs>
</svg>
