<?xml version="1.0" encoding="UTF-8" standalone="no"?>
<svg xmlns:ffdec="https://www.free-decompiler.com/flash" xmlns:xlink="http://www.w3.org/1999/xlink" ffdec:objectType="frame" height="30.0px" width="30.0px" xmlns="http://www.w3.org/2000/svg">
  <g transform="matrix(1.0, 0.0, 0.0, 1.0, 0.0, 0.0)">
    <use ffdec:characterId="1" height="30.0" transform="matrix(1.0, 0.0, 0.0, 1.0, 0.0, 0.0)" width="30.0" xlink:href="#shape0"/>
  </g>
  <defs>
    <g id="shape0" transform="matrix(1.0, 0.0, 0.0, 1.0, 0.0, 0.0)">
      <path d="M0.0 0.0 L30.0 0.0 30.0 30.0 0.0 30.0 0.0 0.0" fill="#33cc66" fill-opacity="0.0" fill-rule="evenodd" stroke="none"/>
      <path d="M0.0 26.7 L0.0 3.3 Q0.0 0.0 3.3 0.0 L26.7 0.0 Q30.0 0.0 30.0 3.3 L30.0 26.7 Q30.0 30.0 26.7 30.0 L3.3 30.0 Q0.0 30.0 0.0 26.7" fill="#ec6002" fill-rule="evenodd" stroke="none"/>
      <path d="M21.65 8.35 L22.2 8.6 22.3 8.65 22.95 9.0 23.2 9.1 23.4 9.25 23.65 9.45 23.9 9.65 24.05 9.8 24.25 9.95 24.3 10.0 25.35 11.2 25.8 11.9 26.25 12.6 27.45 15.0 27.45 15.05 27.6 15.45 27.8 16.75 27.8 18.45 Q27.65 19.25 25.1 20.25 22.8 21.2 20.1 21.2 L19.95 21.2 17.8 20.9 17.8 20.85 17.75 20.85 Q16.35 20.45 15.3 19.7 L15.25 19.7 Q12.05 18.9 9.5 21.0 L9.05 21.45 8.65 21.3 8.1 21.2 6.1 21.65 5.8 21.8 4.95 22.3 4.4 22.75 3.95 22.15 3.45 21.5 4.1 21.0 4.4 20.7 4.5 20.55 4.55 20.5 4.55 20.2 4.55 20.15 4.5 19.4 4.5 19.3 4.1 19.15 3.6 18.85 3.5 18.8 3.3 18.55 Q2.65 17.95 2.55 17.2 L2.5 16.75 Q2.5 16.0 3.05 15.4 L3.3 15.15 3.8 14.8 Q4.3 14.5 4.9 14.5 L4.95 14.5 5.05 14.5 5.35 14.6 5.35 14.55 5.4 14.35 5.8 13.55 6.25 12.8 6.7 12.1 7.15 11.6 8.0 10.7 9.9 9.3 9.9 9.25 9.9 9.05 9.9 8.9 10.15 7.95 10.8 7.15 12.7 5.95 14.75 5.75 15.1 5.75 Q16.1 5.85 16.95 6.6 L17.0 6.6 17.15 6.7 17.2 6.75 17.75 7.35 18.65 7.4 19.0 7.45 20.2 7.8 21.65 8.35 M19.0 7.45 L19.85 8.25 19.9 8.35 21.45 10.4 21.45 10.5 21.65 10.8 22.0 11.6 22.2 12.0 22.15 12.0 22.95 12.6 23.05 12.7 23.65 13.15 Q24.55 13.95 27.8 18.45 M9.9 9.25 L10.1 9.1 Q12.0 8.05 14.2 7.6 L14.45 7.55 15.45 7.4 17.0 7.35 17.7 7.35 17.75 7.35 M15.8 14.8 Q15.65 15.9 14.8 16.8 L14.75 16.85 14.5 17.1 Q13.55 17.95 12.15 17.95 10.65 17.95 9.55 16.85 L8.85 15.9 Q8.5 15.15 8.5 14.3 8.5 12.95 9.35 11.95 L9.55 11.7 Q10.65 10.65 12.15 10.65 L12.2 10.65 13.0 10.75 13.9 11.05 14.75 11.7 15.65 13.2 15.8 14.15 15.8 14.3 15.8 14.8 M22.15 12.0 L21.9 12.55 21.9 12.6 21.85 12.65 21.55 13.35 Q21.15 14.4 19.95 21.15 L19.95 21.2 M4.5 19.3 L4.5 19.0 4.55 17.55 Q4.75 16.1 5.25 14.8 L5.35 14.6" fill="none" stroke="#ffffff" stroke-linecap="round" stroke-linejoin="round" stroke-width="3.5"/>
      <path d="M18.7 7.45 L19.1 7.5 Q19.6 7.6 20.3 7.85 21.1 8.75 21.9 10.25 L21.95 10.3 22.1 10.65 23.05 12.65 22.25 12.05 22.3 12.05 22.1 11.65 21.75 10.85 21.55 10.55 21.55 10.45 20.0 8.4 19.95 8.3 19.1 7.5 19.95 8.3 20.0 8.4 21.55 10.45 21.55 10.55 21.75 10.85 22.1 11.65 22.3 12.05 22.25 12.05 22.0 12.6 22.0 12.65 21.95 12.65 20.3 9.75 19.6 8.65 18.7 7.45" fill="#ee7b20" fill-rule="evenodd" stroke="none"/>
      <path d="M20.3 7.85 L21.75 8.4 22.3 8.65 22.4 8.7 23.05 9.05 23.3 9.15 23.5 9.3 23.3 9.3 23.25 9.3 23.05 9.2 Q22.7 9.25 22.4 9.5 22.1 9.8 22.1 10.25 L22.1 10.35 22.15 10.6 22.4 10.85 23.1 11.05 23.75 10.85 24.0 10.35 23.95 10.05 23.9 9.9 23.7 9.5 24.0 9.7 24.15 9.85 24.35 10.0 24.4 10.05 25.4 11.25 25.9 11.95 26.3 12.65 26.2 12.75 25.4 13.0 23.75 12.85 23.7 12.8 23.15 12.75 23.05 12.65 22.1 10.65 21.95 10.3 21.9 10.25 Q21.1 8.75 20.3 7.85 M17.8 7.4 L18.7 7.45 19.6 8.65 20.3 9.75 21.95 12.65 21.25 12.85 20.35 13.3 Q19.1 13.9 17.85 13.9 L16.85 13.75 15.75 13.25 14.85 11.75 14.0 11.1 Q13.5 10.3 13.5 9.7 L13.55 9.4 13.8 8.6 14.3 7.65 14.55 7.6 15.55 7.45 17.1 7.4 17.75 7.4 17.8 7.4 M17.5 8.5 L17.35 8.5 Q16.9 8.5 16.35 9.05 15.9 9.55 15.9 10.0 15.9 10.8 16.35 11.1 16.85 11.5 17.8 11.5 19.45 11.5 19.45 10.25 19.45 9.25 18.95 8.8 18.55 8.45 17.9 8.45 L17.5 8.5" fill="#fc932a" fill-rule="evenodd" stroke="none"/>
      <path d="M23.5 9.3 L23.7 9.5 23.9 9.9 23.95 10.05 24.0 10.35 23.75 10.85 23.1 11.05 22.4 10.85 22.15 10.6 22.1 10.35 22.1 10.25 Q22.1 9.8 22.4 9.5 22.7 9.25 23.05 9.2 L23.25 9.3 23.3 9.3 23.5 9.3 M17.5 8.5 L17.9 8.45 Q18.55 8.45 18.95 8.8 19.45 9.25 19.45 10.25 19.45 11.5 17.8 11.5 16.85 11.5 16.35 11.1 15.9 10.8 15.9 10.0 15.9 9.55 16.35 9.05 16.9 8.5 17.35 8.5 L17.5 8.5 M17.7 9.3 L17.15 9.5 16.95 10.1 Q16.95 10.5 17.25 10.6 L17.6 10.65 18.2 10.45 18.45 10.0 18.2 9.5 17.7 9.3 M22.95 9.85 L22.9 9.85 22.8 10.0 22.75 10.05 22.7 10.25 23.1 10.55 Q23.4 10.55 23.5 10.35 L23.5 10.15 23.5 10.05 23.35 9.9 23.35 9.85 23.15 9.75 23.05 9.8 22.95 9.85" fill="#ffbb73" fill-rule="evenodd" stroke="none"/>
      <path d="M3.35 18.6 Q2.75 18.0 2.6 17.25 L2.55 16.8 Q2.55 16.05 3.15 15.45 L3.05 15.9 3.0 16.75 3.0 17.25 3.15 17.95 3.35 18.6 M10.25 8.0 L10.9 7.2 Q12.0 6.25 12.8 6.0 L14.85 5.75 15.2 5.75 Q15.0 6.1 14.5 6.2 L13.8 6.35 12.95 6.6 12.2 7.0 11.35 7.5 11.1 7.65 10.25 8.0 M13.25 14.65 L12.75 14.25 12.05 14.4 Q11.65 14.4 11.35 14.2 11.0 13.95 11.0 13.45 11.0 12.95 11.3 12.7 11.55 12.45 12.05 12.45 12.65 12.45 12.95 12.75 13.35 13.15 13.15 13.65 L13.7 14.2 13.75 14.25 13.5 14.45 13.25 14.65" fill="#fdfcf8" fill-rule="evenodd" stroke="none"/>
      <path d="M3.7 18.9 L3.6 18.85 3.35 18.6 3.15 17.95 3.0 17.25 3.0 16.75 3.05 15.9 3.15 15.45 3.35 15.2 3.9 14.85 3.85 15.5 3.8 16.9 3.8 18.2 3.75 18.55 3.7 18.9 M10.0 8.95 L10.25 8.0 11.1 7.65 11.35 7.5 12.2 7.0 12.95 6.6 13.8 6.35 14.5 6.2 Q15.0 6.1 15.2 5.75 16.15 5.9 17.05 6.6 L17.05 6.65 Q15.65 6.7 13.5 7.45 L11.05 8.35 10.0 8.95 M12.25 11.55 L12.3 11.55 12.45 11.5 13.9 11.9 Q14.95 12.55 14.95 13.8 14.95 14.85 14.55 15.5 13.9 16.45 12.45 16.45 11.3 16.45 10.75 16.0 L10.1 15.4 9.85 14.3 Q9.65 13.45 10.55 12.55 11.4 11.6 12.1 11.55 L12.25 11.55 M13.75 14.25 L13.7 14.2 13.15 13.65 Q13.35 13.15 12.95 12.75 12.65 12.45 12.05 12.45 11.55 12.45 11.3 12.7 11.0 12.95 11.0 13.45 11.0 13.95 11.35 14.2 11.65 14.4 12.05 14.4 L12.75 14.25 13.25 14.65 13.75 15.75 Q13.8 15.25 14.05 15.3 L14.1 14.9 13.75 14.25" fill="#0af2fe" fill-rule="evenodd" stroke="none"/>
      <path d="M26.3 12.65 L27.55 15.05 27.7 15.5 27.9 16.75 27.9 18.45 Q24.65 14.0 23.7 13.2 L23.15 12.75 23.7 12.8 23.75 12.85 25.4 13.0 26.2 12.75 26.3 12.65 M20.05 21.25 L17.85 20.95 17.85 20.9 17.8 20.9 16.6 19.65 15.45 19.0 14.9 18.8 11.2 18.5 Q9.45 18.5 8.5 17.35 L7.8 15.9 Q7.55 14.9 7.55 13.5 L7.55 13.15 7.85 11.45 8.1 10.75 Q8.95 9.95 10.0 9.35 L10.0 9.3 10.15 9.15 Q12.1 8.1 14.3 7.65 L13.8 8.6 13.55 9.4 13.5 9.7 Q13.5 10.3 14.0 11.1 L13.1 10.8 12.3 10.7 12.25 10.7 Q10.75 10.7 9.65 11.75 L9.45 12.0 Q8.6 13.0 8.6 14.35 8.6 15.2 8.95 15.9 L9.65 16.9 Q10.75 18.0 12.25 18.0 13.6 18.0 14.6 17.15 L14.85 16.9 14.9 16.85 Q15.75 15.95 15.9 14.85 L15.75 14.85 15.9 14.2 15.75 13.25 16.85 13.75 17.85 13.9 Q19.1 13.9 20.35 13.3 L21.25 12.85 21.95 12.65 22.0 12.65 21.95 12.7 21.65 13.4 Q21.2 14.45 20.05 21.2 L20.05 21.25 M15.9 14.85 L15.9 14.35 15.9 14.2 15.9 14.35 15.9 14.85 M12.25 11.55 L12.1 11.55 12.2 11.55 12.25 11.55 M22.3 12.35 L22.85 12.6 Q23.3 12.9 22.4 13.0 L22.0 13.0 22.0 12.85 22.1 12.65 22.25 12.45 22.3 12.4 22.3 12.35" fill="#fe5220" fill-rule="evenodd" stroke="none"/>
      <path d="M4.2 19.2 L3.7 18.9 3.75 18.55 3.8 18.2 3.8 16.9 3.85 15.5 3.9 14.85 Q4.4 14.55 5.0 14.55 L5.05 14.55 4.6 16.05 4.2 18.25 4.2 18.85 4.2 18.95 4.2 19.2 M10.0 9.3 L10.0 9.1 10.0 8.95 11.05 8.35 13.5 7.45 Q15.65 6.7 17.05 6.65 L17.25 6.75 17.3 6.8 17.8 7.4 17.75 7.4 17.1 7.4 15.55 7.45 14.55 7.6 14.3 7.65 Q12.1 8.1 10.15 9.15 L10.0 9.3 M14.0 11.1 L14.85 11.75 15.75 13.25 15.9 14.2 15.75 14.85 14.55 16.5 14.3 16.75 Q13.3 17.6 12.1 17.4 10.8 17.15 10.05 16.5 L9.4 15.7 9.3 15.3 9.2 14.8 9.2 14.65 Q9.15 13.4 9.85 12.35 10.6 11.25 12.3 10.85 L13.05 10.85 13.1 10.8 14.0 11.1 M12.1 11.55 Q11.4 11.6 10.55 12.55 9.65 13.45 9.85 14.3 L10.1 15.4 10.75 16.0 Q11.3 16.45 12.45 16.45 13.9 16.45 14.55 15.5 14.95 14.85 14.95 13.8 14.95 12.55 13.9 11.9 L12.45 11.5 12.3 11.55 12.25 11.55 12.2 11.55 12.1 11.55" fill="#24b7eb" fill-rule="evenodd" stroke="none"/>
      <path d="M17.7 9.3 L18.2 9.5 18.45 10.0 18.2 10.45 17.6 10.65 17.25 10.6 Q16.95 10.5 16.95 10.1 L17.15 9.5 17.7 9.3 M23.35 9.85 L23.35 9.9 23.5 10.05 23.5 10.15 23.5 10.35 Q23.4 10.55 23.1 10.55 L22.7 10.25 22.75 10.05 22.8 10.0 22.9 9.85 22.95 9.85 23.05 9.85 23.2 9.85 23.35 9.85" fill="#fff3da" fill-rule="evenodd" stroke="none"/>
      <path d="M4.6 19.35 L4.2 19.2 4.2 18.95 4.2 18.85 4.2 18.25 4.6 16.05 5.05 14.55 5.1 14.55 5.45 14.65 5.35 14.85 Q4.85 16.15 4.65 17.6 L4.6 19.05 4.6 19.35 M15.9 14.85 Q15.75 15.95 14.9 16.85 L14.85 16.9 14.6 17.15 Q13.6 18.0 12.25 18.0 10.75 18.0 9.65 16.9 L8.95 15.9 Q8.6 15.2 8.6 14.35 8.6 13.0 9.45 12.0 L9.65 11.75 Q10.75 10.7 12.25 10.7 L12.3 10.7 13.1 10.8 13.05 10.85 12.3 10.85 Q10.6 11.25 9.85 12.35 9.15 13.4 9.2 14.65 L9.2 14.8 9.3 15.3 9.4 15.7 10.05 16.5 Q10.8 17.15 12.1 17.4 13.3 17.6 14.3 16.75 L14.55 16.5 15.75 14.85 15.9 14.85" fill="#7892a1" fill-rule="evenodd" stroke="none"/>
      <path d="M13.25 14.65 L13.5 14.45 13.75 14.25 14.1 14.9 14.05 15.3 Q13.8 15.25 13.75 15.75 L13.25 14.65" fill="#8fffff" fill-rule="evenodd" stroke="none"/>
      <path d="M27.9 18.45 L27.9 18.5 Q27.75 19.3 25.2 20.3 22.85 21.25 20.2 21.25 L20.05 21.2 Q21.2 14.45 21.65 13.4 L21.95 12.7 22.0 12.65 22.0 12.6 22.25 12.05 23.05 12.65 23.15 12.75 23.7 13.2 Q24.65 14.0 27.9 18.45 M17.8 20.9 Q16.45 20.5 15.4 19.75 L15.35 19.75 Q12.15 18.95 9.6 21.05 L9.15 21.5 8.75 21.35 8.2 21.25 6.2 21.7 5.9 21.85 5.85 21.7 6.0 21.3 6.2 21.05 6.05 20.85 5.8 20.45 Q5.4 19.85 5.4 19.05 L5.45 18.65 5.5 17.8 5.6 17.05 5.9 15.3 6.1 14.4 6.5 12.95 6.75 12.15 7.25 11.65 Q7.6 11.15 8.1 10.75 L7.85 11.45 7.55 13.15 7.55 13.5 Q7.55 14.9 7.8 15.9 L8.5 17.35 Q9.45 18.5 11.2 18.5 L14.9 18.8 15.45 19.0 16.6 19.65 17.8 20.9 M22.3 12.35 L22.3 12.4 22.25 12.45 22.1 12.65 22.0 12.85 22.0 13.0 22.4 13.0 Q23.3 12.9 22.85 12.6 L22.3 12.35" fill="#cf2e1a" fill-rule="evenodd" stroke="none"/>
      <path d="M5.9 21.85 L5.05 22.35 4.5 22.8 4.45 22.75 4.05 22.2 3.55 21.55 4.2 21.05 4.5 20.75 4.6 20.6 4.65 20.55 4.65 20.25 4.65 20.15 4.6 19.45 4.6 19.35 4.6 19.05 4.65 17.6 Q4.85 16.15 5.35 14.85 L5.45 14.65 5.45 14.6 5.5 14.4 5.9 13.6 Q6.05 13.25 6.35 12.85 L6.75 12.15 6.5 12.95 6.1 14.4 5.9 15.3 5.6 17.05 5.5 17.8 5.45 18.65 5.4 19.05 Q5.4 19.85 5.8 20.45 L6.05 20.85 6.2 21.05 6.0 21.3 5.85 21.7 5.9 21.85" fill="#5c657e" fill-rule="evenodd" stroke="none"/>
      <path d="M20.3 7.85 L21.75 8.4 22.3 8.65 22.4 8.7 23.05 9.05 23.3 9.15 23.5 9.3 23.7 9.5 24.0 9.7 24.15 9.85 24.35 10.0 24.4 10.05 25.4 11.25 25.9 11.95 26.3 12.65 27.55 15.05 27.7 15.5 27.9 16.75 27.9 18.45 27.9 18.5 Q27.75 19.3 25.2 20.3 22.85 21.25 20.2 21.25 L20.05 21.25 17.85 20.95 17.85 20.9 17.8 20.9 Q16.45 20.5 15.4 19.75 L15.35 19.75 Q12.15 18.95 9.6 21.05 L9.15 21.5 8.75 21.35 8.2 21.25 6.2 21.7 5.9 21.85 5.05 22.35 4.5 22.8 M4.45 22.75 L4.05 22.2 3.55 21.55 4.2 21.05 4.5 20.75 4.6 20.6 4.65 20.55 4.65 20.25 4.65 20.15 4.6 19.45 4.6 19.35 4.2 19.2 3.7 18.9 3.6 18.85 3.35 18.6 Q2.75 18.0 2.6 17.25 L2.55 16.8 Q2.55 16.05 3.15 15.45 L3.35 15.2 3.9 14.85 Q4.4 14.55 5.0 14.55 L5.05 14.55 5.1 14.55 5.45 14.65 5.45 14.6 5.5 14.4 5.9 13.6 Q6.05 13.25 6.35 12.85 L6.75 12.15 7.25 11.65 Q7.6 11.15 8.1 10.75 8.95 9.95 10.0 9.35 L10.0 9.3 10.0 9.1 10.0 8.95 10.25 8.0 10.9 7.2 Q12.0 6.25 12.8 6.0 L14.85 5.75 15.2 5.75 Q16.15 5.9 17.05 6.6 L17.1 6.65 17.25 6.75 17.3 6.8 17.8 7.4 18.7 7.45 19.1 7.5 Q19.6 7.6 20.3 7.85 M23.05 12.65 L23.15 12.75 23.7 13.2 Q24.65 14.0 27.9 18.45 M19.1 7.5 L19.95 8.3 20.0 8.4 21.55 10.45 21.55 10.55 21.75 10.85 22.1 11.65 22.3 12.05 22.25 12.05 23.05 12.65 M10.0 9.3 L10.15 9.15 Q12.1 8.1 14.3 7.65 L14.55 7.6 15.55 7.45 17.1 7.4 17.75 7.4 17.8 7.4 M14.0 11.1 L14.85 11.75 15.75 13.25 15.9 14.2 15.9 14.35 15.9 14.85 Q15.75 15.95 14.9 16.85 L14.85 16.9 14.6 17.15 Q13.6 18.0 12.25 18.0 10.75 18.0 9.65 16.9 L8.95 15.9 Q8.6 15.2 8.6 14.35 8.6 13.0 9.45 12.0 L9.65 11.75 Q10.75 10.7 12.25 10.7 L12.3 10.7 13.1 10.8 14.0 11.1 M22.0 12.65 L22.0 12.6 22.25 12.05 M22.0 12.65 L21.95 12.7 21.65 13.4 Q21.2 14.45 20.05 21.2 L20.05 21.25 M4.6 19.35 L4.6 19.05 4.65 17.6 Q4.85 16.15 5.35 14.85 L5.45 14.65" fill="none" stroke="#330000" stroke-linecap="round" stroke-linejoin="round" stroke-width="1.0"/>
    </g>
  </defs>
</svg>
