<?xml version="1.0" encoding="UTF-8" standalone="no"?>
<svg xmlns:ffdec="https://www.free-decompiler.com/flash" xmlns:xlink="http://www.w3.org/1999/xlink" ffdec:objectType="frame" height="53.0px" width="98.2px" xmlns="http://www.w3.org/2000/svg">
  <g transform="matrix(1.0, 0.0, 0.0, 1.0, 46.95, 23.0)">
    <use ffdec:characterId="1" height="30.0" transform="matrix(1.0, 0.0, 0.0, 1.0, 0.0, 0.0)" width="30.0" xlink:href="#shape0"/>
    <filter id="filter0">
      <feColorMatrix in="SourceGraphic" result="filterResult0" type="matrix" values="0 0 0 0 1.0,0 0 0 0 1.0,0 0 0 0 1.0,0 0 0 1 0"/>
      <feConvolveMatrix divisor="25.0" in="filterResult0" kernelMatrix="1 1 1 1 1 1 1 1 1 1 1 1 1 1 1 1 1 1 1 1 1 1 1 1 1" order="5 5" result="filterResult1"/>
      <feComposite in="SourceGraphic" in2="filterResult1" operator="over" result="filterResult2"/>
    </filter>
    <use ffdec:characterId="7" filter="url(#filter0)" height="117.45" transform="matrix(0.4392, 0.0, 0.0, 0.4392, -46.9644, -23.0134)" width="223.6" xlink:href="#button0"/>
  </g>
  <defs>
    <g id="shape0" transform="matrix(1.0, 0.0, 0.0, 1.0, 0.0, 0.0)">
      <path d="M0.0 0.0 L30.0 0.0 30.0 30.0 0.0 30.0 0.0 0.0" fill="#33cc66" fill-opacity="0.0" fill-rule="evenodd" stroke="none"/>
      <path d="M0.0 26.7 L0.0 3.3 Q0.0 0.0 3.3 0.0 L26.7 0.0 Q30.0 0.0 30.0 3.3 L30.0 26.7 Q30.0 30.0 26.7 30.0 L3.3 30.0 Q0.0 30.0 0.0 26.7" fill="#02cac9" fill-rule="evenodd" stroke="none"/>
    </g>
    <g id="button0" transform="matrix(1.0, 0.0, 0.0, 1.0, 113.65, 57.75)">
      <use ffdec:characterId="2" height="60.25" transform="matrix(1.0, 0.0, 0.0, 1.0, -0.55, -0.55)" width="55.75" xlink:href="#shape1"/>
    </g>
    <g id="shape1" transform="matrix(1.0, 0.0, 0.0, 1.0, 0.55, 0.55)">
      <path d="M49.9 38.55 L50.0 39.2 50.7 41.35 50.7 41.4 49.85 41.45 47.95 41.35 47.45 41.25 48.0 42.4 48.55 43.3 47.2 44.0 45.0 44.75 45.7 46.3 Q46.35 48.2 46.35 50.8 L46.35 50.9 46.3 51.65 45.3 51.15 Q43.55 50.25 42.1 50.2 L42.1 50.35 42.05 50.6 Q41.15 54.0 37.75 56.5 L37.35 56.75 36.3 57.45 34.8 58.2 32.55 59.2 32.55 58.95 32.25 56.0 31.4 53.6 Q29.3 52.85 27.1 51.5 25.15 50.25 24.0 49.2 L23.15 48.3 22.6 48.4 21.5 48.55 21.25 48.65 20.9 46.8 20.65 45.05 19.2 45.4 18.75 45.5 18.7 45.35 18.45 44.0 18.05 42.2 Q16.3 42.95 15.0 43.65 14.25 44.0 13.75 44.3 L12.9 44.8 Q11.5 41.5 11.1 39.75 L11.05 39.8 9.4 39.95 9.25 39.95 8.35 39.9 8.95 38.6 9.6 36.7 8.85 36.8 Q4.9 36.8 1.7 35.0 L-0.05 33.8 0.2 33.65 4.65 30.6 5.05 30.25 4.55 29.1 4.1 27.9 4.0 27.45 4.55 27.35 6.05 26.65 6.95 26.05 4.85 23.15 Q3.25 20.35 2.5 17.5 L2.4 17.25 Q4.85 16.2 7.1 14.7 L10.95 12.3 10.85 11.1 10.5 9.45 12.05 9.3 12.75 9.25 13.6 9.3 13.2 7.2 Q12.7 5.35 11.6 4.7 L11.8 4.65 12.5 4.6 13.4 4.6 14.4 4.55 16.0 4.65 19.8 5.35 22.9 6.2 23.05 5.35 23.15 4.45 22.9 2.8 26.55 4.5 26.55 4.25 26.4 2.35 26.4 1.85 26.55 -0.05 27.7 1.1 29.65 2.7 Q31.5 4.05 33.45 4.9 L33.6 3.55 33.6 3.35 34.25 3.8 35.05 4.25 36.25 2.7 36.7 2.25 Q37.6 4.2 39.4 5.9 L40.9 7.15 41.45 7.6 41.5 7.4 43.05 4.7 Q44.35 2.75 46.35 0.65 L46.3 2.7 Q46.3 4.45 46.6 6.75 L47.0 9.9 47.05 10.0 47.15 10.15 48.3 12.2 48.5 12.55 48.95 12.2 49.8 11.65 50.0 13.15 50.45 15.2 51.95 15.2 52.6 15.2 52.05 18.05 52.0 18.2 51.5 20.1 52.25 21.4 53.0 22.5 51.2 24.2 50.65 23.2 51.55 21.75 50.4 20.2 50.5 18.7 51.0 16.35 50.1 16.45 49.6 16.45 49.6 16.25 49.55 15.95 49.5 15.8 49.5 15.85 49.05 15.05 48.3 13.85 47.7 12.95 47.5 12.75 46.3 11.1 46.15 10.3 46.05 10.05 45.55 7.15 45.1 3.9 45.0 3.95 Q44.1 4.85 42.8 7.45 L42.4 8.2 41.95 9.15 41.65 9.8 41.65 9.85 42.45 12.95 42.85 13.9 42.95 14.1 42.75 15.05 42.4 14.5 41.35 12.55 Q40.85 11.5 40.5 9.95 L40.65 9.45 41.0 8.45 39.9 7.6 39.2 6.95 Q37.7 5.45 36.7 3.85 L35.85 4.7 35.55 5.1 35.05 5.05 34.35 4.95 34.3 5.7 33.05 5.45 30.65 4.55 28.8 3.4 27.75 2.75 27.55 2.55 27.4 3.85 27.1 5.8 26.65 5.5 Q25.45 4.75 24.05 4.65 L24.05 4.8 23.9 7.3 23.8 7.3 23.55 7.15 Q21.25 6.3 19.2 6.05 L15.9 5.75 15.4 5.65 13.9 5.6 13.95 5.65 14.6 7.55 15.05 9.55 15.15 9.9 15.0 9.9 13.0 10.15 12.05 10.35 11.8 11.2 Q11.65 12.1 11.65 13.6 L11.8 14.45 Q12.05 15.2 12.45 15.55 L12.6 15.75 13.05 16.0 14.15 16.2 Q15.55 16.2 16.4 15.4 16.95 14.75 16.95 14.2 16.95 13.55 16.4 13.55 16.0 13.55 15.75 13.7 L15.7 13.8 15.8 14.1 15.8 14.3 15.85 14.4 Q15.3 14.85 15.0 14.9 L14.85 14.7 Q14.6 14.35 14.6 13.75 14.6 12.55 16.5 12.55 L16.75 12.65 17.05 12.7 17.15 12.75 17.3 13.05 Q17.8 13.8 17.8 14.5 17.8 15.2 17.25 15.8 L16.5 16.2 15.55 16.65 15.35 16.75 13.9 17.0 12.15 16.75 11.95 16.65 11.45 16.2 Q10.75 15.5 10.4 14.55 L9.7 14.95 Q8.4 15.8 6.2 16.65 L3.85 17.5 4.0 18.05 4.3 18.9 5.3 21.3 Q5.95 22.95 7.5 24.7 L9.05 26.35 7.7 27.05 6.25 27.7 5.85 27.8 5.65 27.9 5.85 28.35 6.45 29.4 6.95 30.05 6.7 30.3 4.45 32.15 2.2 33.55 2.3 33.75 Q3.5 35.1 6.25 35.8 L9.9 36.3 10.2 36.3 10.45 36.25 12.45 35.3 12.75 35.15 Q14.4 34.2 15.1 33.3 L15.25 33.05 15.25 32.8 Q15.25 32.15 14.8 31.6 L14.7 31.3 14.6 31.3 Q14.15 31.3 13.6 31.6 L12.8 32.0 12.85 32.15 13.0 32.35 13.4 32.5 13.85 32.25 14.1 31.85 14.2 31.85 14.45 31.85 14.6 31.9 14.6 32.1 Q14.6 32.7 14.15 33.05 L13.8 33.3 13.05 33.4 12.35 33.25 11.95 32.45 11.95 32.1 Q11.95 31.45 12.65 31.05 13.3 30.6 14.25 30.6 L14.9 30.7 15.55 30.95 15.85 31.2 16.0 32.15 15.75 33.6 15.45 34.15 13.3 35.75 11.9 36.6 10.4 37.15 Q10.2 37.5 10.1 38.2 L10.0 38.75 10.25 38.9 10.35 38.95 11.9 39.2 12.45 39.2 12.45 39.25 Q12.65 40.8 13.0 41.95 L13.35 42.75 13.7 43.3 14.35 43.1 18.6 40.9 18.65 40.95 Q19.0 42.25 19.5 43.35 L19.6 43.7 19.75 43.9 19.9 44.15 21.4 43.85 21.75 47.0 22.4 47.3 22.55 47.35 24.15 47.7 25.15 47.5 25.55 47.35 25.9 47.0 25.95 46.95 Q26.65 46.0 26.65 45.15 L26.65 45.05 26.45 44.65 Q26.0 44.2 25.4 44.2 24.6 44.2 24.05 44.55 L23.7 45.1 Q23.8 45.75 24.5 45.75 L24.8 45.7 24.95 45.95 25.15 46.3 24.95 46.65 Q24.6 47.1 24.0 47.1 L23.8 47.05 23.75 47.05 23.75 47.0 Q22.9 46.55 22.9 44.85 L22.9 44.7 23.05 44.25 23.75 43.75 26.05 43.35 26.55 43.45 27.2 43.65 27.3 43.7 27.55 45.05 27.2 46.65 26.3 47.9 25.7 48.45 25.15 48.8 26.5 49.85 29.25 51.6 Q30.45 52.15 32.2 52.5 L33.25 55.0 33.75 57.25 34.2 57.0 35.0 56.5 36.75 55.25 37.55 54.6 37.7 54.45 39.2 52.95 Q40.6 51.45 41.45 49.95 L41.8 49.4 41.9 49.1 42.0 49.1 44.35 49.3 45.2 49.45 45.2 49.0 45.2 48.95 44.75 46.6 44.05 44.75 45.1 44.2 47.0 43.0 46.8 42.8 46.1 41.65 45.85 41.0 45.65 40.45 45.75 40.45 46.4 40.45 47.75 40.35 48.0 40.3 49.15 40.05 48.9 38.7 49.9 38.55 M41.45 7.6 L41.0 8.45 41.45 7.6 M49.0 13.95 L49.5 15.8 49.0 13.95 48.95 13.55 48.9 13.6 49.0 13.95 M48.5 12.55 L48.5 12.6 48.9 13.6 48.5 12.6 48.5 12.55 M30.85 12.15 L30.8 12.1 Q30.5 10.6 30.5 8.95 L30.45 8.6 32.5 10.6 33.85 11.5 34.95 10.6 36.25 9.6 36.7 11.45 37.4 13.05 38.25 12.7 39.45 12.2 Q40.1 14.55 41.9 16.5 L42.0 16.6 Q43.5 18.2 45.1 18.95 L45.15 19.65 Q45.15 20.65 44.65 21.7 L44.3 22.3 44.05 22.35 43.7 22.4 43.5 22.4 Q42.75 22.4 42.35 22.05 41.7 21.5 41.7 20.2 L41.7 20.15 42.0 19.85 42.5 19.7 42.6 19.65 42.85 19.6 Q43.3 19.6 43.6 19.9 L43.8 20.2 43.7 20.4 43.5 20.6 43.25 20.75 43.15 20.55 42.7 20.35 42.65 20.65 42.85 21.35 43.25 21.65 43.4 21.7 Q44.05 21.55 44.2 21.0 L44.3 20.35 44.05 19.4 43.95 19.05 Q42.8 18.45 41.5 17.2 L41.35 17.05 Q39.6 15.3 38.85 13.5 L37.1 13.75 36.3 12.55 35.75 11.5 35.05 12.1 34.55 12.5 33.7 12.0 Q32.4 11.25 31.7 11.05 L31.65 11.25 31.65 11.45 31.65 11.65 31.65 12.15 31.7 12.4 32.0 13.95 32.1 14.35 31.35 14.2 31.05 13.05 30.85 12.15 31.05 13.05 30.85 13.25 30.25 13.8 29.9 14.1 29.3 14.6 27.95 15.65 30.0 17.75 30.05 17.75 29.5 18.05 27.4 19.15 25.3 20.05 25.0 20.15 26.2 22.65 26.55 23.5 26.6 23.7 25.7 25.2 Q25.1 26.5 24.85 27.35 L25.2 27.35 25.6 27.35 28.5 27.0 28.7 26.95 30.05 26.65 30.4 26.6 30.75 27.1 31.1 27.65 31.3 27.65 31.75 27.45 32.1 27.35 32.5 27.15 32.8 27.05 33.6 28.25 34.7 29.95 35.05 29.2 35.95 27.9 36.65 27.1 Q36.15 28.55 36.1 30.4 L36.15 30.55 36.05 31.55 35.95 32.5 35.45 32.2 34.65 31.6 Q33.2 30.25 32.6 28.1 L32.55 28.15 32.15 28.4 30.85 29.15 30.85 29.1 30.55 28.45 30.25 27.9 29.9 27.9 27.7 28.25 26.8 28.45 24.05 29.25 23.65 29.45 Q23.6 27.9 24.4 25.45 L24.9 23.9 25.25 22.95 24.5 21.4 23.6 19.55 23.4 19.15 25.7 18.4 28.5 17.45 28.4 17.35 27.8 16.8 Q26.85 16.0 25.95 15.6 L27.95 14.25 29.3 13.3 29.7 13.0 29.9 12.9 30.05 12.75 30.85 12.15 M35.4 18.35 Q36.1 18.45 36.45 18.85 L36.65 19.15 36.65 19.3 36.55 20.3 36.4 21.1 36.25 21.55 Q36.7 22.9 37.5 23.55 38.1 24.05 39.25 24.4 L39.75 24.3 40.05 24.25 40.1 24.55 40.2 24.9 40.2 25.0 39.2 25.05 37.85 25.0 37.8 25.0 37.6 25.2 Q36.5 24.8 36.0 24.05 35.35 23.25 35.0 22.3 L34.85 21.95 35.25 19.95 35.4 18.35 M48.55 35.15 L48.95 35.55 49.0 36.8 49.0 37.05 48.85 38.35 48.6 36.9 48.35 35.05 48.55 35.15 M36.1 42.4 L38.05 43.95 40.4 45.1 40.6 45.15 Q40.65 43.95 41.0 42.4 41.5 40.0 42.45 38.25 L43.05 38.65 44.55 39.0 44.55 38.65 Q44.55 36.95 44.7 35.6 L44.9 35.6 46.4 35.8 46.95 34.45 47.9 34.85 47.8 36.75 47.85 37.75 46.8 37.1 Q46.05 36.65 45.55 36.55 45.4 37.55 45.4 38.7 L45.5 39.8 45.65 40.35 43.5 39.75 42.9 39.5 42.75 39.75 42.25 40.8 41.65 42.9 41.4 45.2 41.45 46.05 41.5 46.3 40.95 46.15 40.55 46.0 Q39.05 45.4 37.5 44.5 L35.75 43.35 35.25 42.95 35.2 42.9 34.2 42.0 33.1 40.75 32.15 39.05 Q31.05 39.9 29.65 40.35 L28.65 40.7 28.55 40.7 28.65 39.4 28.65 38.85 28.6 38.1 28.5 38.1 28.1 37.2 27.95 36.95 27.5 36.05 26.7 34.85 Q26.8 33.25 28.8 33.25 29.95 33.25 30.55 34.25 L30.85 34.95 31.0 35.65 30.95 36.2 30.85 36.35 30.6 36.45 30.35 36.6 30.15 36.6 Q29.7 36.6 29.35 36.05 L29.05 35.35 29.25 35.25 29.4 35.4 29.7 35.55 Q30.25 35.55 30.3 35.05 L30.0 34.55 Q29.55 33.9 29.0 33.9 L28.4 34.1 Q28.0 34.35 28.0 34.95 L28.05 35.25 28.35 35.65 28.8 36.4 29.1 37.25 29.25 37.8 29.4 38.5 29.4 38.95 29.4 39.15 29.35 39.35 30.7 38.7 31.05 38.55 31.15 38.5 32.5 37.75 33.1 38.75 33.75 39.75 35.0 41.3 35.4 41.75 35.95 42.3 36.1 42.4 M28.55 37.55 L28.6 38.1 28.55 37.55" fill="#16eff8" fill-rule="evenodd" stroke="none"/>
      <path d="M45.85 41.0 L46.1 41.65 46.8 42.8 47.0 43.0 45.1 44.2 44.05 44.75 44.75 46.6 45.2 48.95 43.8 47.25 42.6 46.0 42.65 44.7 43.05 41.8 45.85 41.0 M41.8 49.4 L41.45 49.95 39.95 49.15 38.6 48.5 38.75 49.1 38.95 50.65 38.95 51.0 38.05 51.15 38.15 52.35 37.7 54.45 37.55 54.6 36.75 55.25 35.0 56.5 35.05 56.15 Q35.05 51.05 33.75 47.1 L32.85 46.05 32.1 45.25 Q29.5 46.55 27.5 47.6 L27.25 47.7 27.4 46.9 27.65 45.35 27.5 43.75 27.4 43.15 26.6 43.1 24.45 43.45 Q23.1 43.75 22.7 44.0 L22.65 44.05 22.65 44.15 22.85 45.75 23.05 46.6 23.05 46.65 23.45 47.0 24.55 47.3 Q25.0 47.3 25.3 46.95 L25.55 46.4 24.95 45.6 24.85 45.6 24.25 45.4 23.95 45.15 Q23.95 45.0 24.45 44.8 L25.45 44.5 25.8 44.7 26.3 45.15 26.35 45.4 26.05 46.25 25.7 46.75 25.2 47.4 24.5 47.5 22.95 47.1 22.5 46.85 22.3 43.95 21.3 39.3 20.4 42.05 19.6 43.7 19.5 43.35 Q19.0 42.25 18.65 40.95 L18.6 40.9 14.35 43.1 15.5 40.2 16.25 37.8 13.2 38.95 12.45 39.25 12.45 39.2 11.9 39.2 10.35 38.95 10.25 38.9 11.5 37.15 11.9 36.6 13.3 35.75 15.45 34.15 15.75 33.6 16.0 32.15 15.85 31.2 15.55 30.95 14.9 30.7 14.25 30.6 Q13.3 30.6 12.65 31.05 11.95 31.45 11.95 32.1 L11.95 32.45 9.8 33.0 2.3 33.75 2.2 33.55 4.45 32.15 6.7 30.3 7.35 30.2 Q10.1 29.65 12.1 28.75 L8.5 28.45 5.85 27.8 6.25 27.7 7.0 27.6 11.95 26.35 Q16.45 24.9 18.8 23.7 L15.7 23.55 Q13.35 23.3 10.1 22.0 7.55 21.1 5.1 19.45 L5.0 19.3 Q4.65 18.5 4.6 17.85 L6.25 17.15 9.9 15.2 10.25 15.75 11.35 16.65 13.1 17.3 14.3 17.55 16.1 16.7 Q17.85 15.7 18.1 14.7 L17.8 13.55 17.8 13.5 17.3 12.5 16.1 12.3 15.0 12.4 14.35 12.6 14.3 12.95 14.4 13.95 Q14.45 14.7 14.65 15.15 L14.9 15.15 15.5 15.05 15.95 14.6 15.85 14.1 16.55 14.0 16.55 14.35 Q16.55 15.3 15.6 15.65 L14.7 15.85 13.85 16.0 12.9 15.8 Q11.9 14.75 11.9 12.55 11.9 11.6 12.25 11.0 L13.55 10.65 15.25 10.15 15.55 10.15 15.5 9.8 15.55 9.6 Q19.2 10.35 21.55 11.45 L22.2 11.75 20.85 10.3 17.75 7.9 17.15 7.45 Q15.55 6.4 13.95 5.65 L13.9 5.6 15.4 5.65 15.9 5.75 19.2 6.05 Q21.25 6.3 23.55 7.15 L23.8 7.3 23.95 7.6 24.4 9.85 24.45 10.25 25.0 9.6 25.05 9.5 25.7 8.65 25.95 9.0 26.8 10.4 26.55 12.4 26.15 13.8 Q24.3 14.95 23.3 15.7 L24.65 16.45 25.7 17.15 22.6 18.6 20.9 19.45 22.1 21.0 23.1 22.4 Q22.7 23.55 22.05 28.75 L21.75 30.9 22.35 32.85 22.55 33.8 22.6 33.95 23.4 33.3 23.45 33.3 24.2 32.7 Q25.1 31.85 26.35 31.05 L28.7 29.6 28.9 30.7 29.1 31.85 30.05 31.5 31.45 31.0 32.75 32.5 34.0 33.6 33.6 35.0 33.0 36.65 33.85 36.8 34.8 36.6 35.05 36.55 35.3 37.85 35.45 39.3 34.75 38.85 34.25 38.35 33.95 39.2 33.75 39.75 33.1 38.75 32.5 37.75 31.15 38.5 31.05 38.55 30.7 38.7 29.35 39.35 29.4 39.15 29.6 38.55 30.35 36.6 30.6 36.45 30.85 36.35 30.95 36.2 31.0 35.65 30.85 34.95 30.55 34.25 Q29.95 33.25 28.8 33.25 26.8 33.25 26.7 34.85 L27.5 36.05 27.95 36.95 28.1 37.2 27.85 37.05 27.1 36.65 25.4 36.0 25.45 36.15 26.55 38.35 25.95 40.3 25.3 41.65 26.8 42.05 28.8 42.3 30.1 42.3 31.15 42.25 Q33.5 44.55 35.8 45.8 L36.7 46.25 41.25 47.3 41.5 48.35 41.7 49.1 41.8 49.4 M13.8 33.3 L14.15 33.05 Q14.6 32.7 14.6 32.1 L14.6 31.9 14.45 31.85 14.55 31.65 12.85 32.15 12.8 32.0 13.6 31.6 Q14.15 31.3 14.6 31.3 L14.7 31.3 14.8 31.6 Q15.25 32.15 15.25 32.8 L15.25 33.05 15.1 33.3 Q14.4 34.2 12.75 35.15 L13.8 33.3 M45.0 3.95 L45.1 3.9 45.55 7.15 46.05 10.05 46.15 10.3 46.3 11.1 47.5 12.75 47.7 12.95 48.3 13.85 49.05 15.05 49.5 15.85 49.5 15.8 49.55 15.95 49.6 16.25 49.6 16.45 49.6 16.65 49.5 18.45 49.45 20.5 49.4 20.5 49.05 20.4 49.1 19.55 49.05 18.9 48.05 16.75 48.2 18.35 48.3 20.3 47.75 20.25 46.25 17.9 45.4 16.35 Q43.65 12.95 43.5 11.1 L43.5 10.6 43.55 10.2 43.55 10.1 43.7 9.0 43.75 8.95 Q43.9 7.9 44.2 6.75 L45.0 3.95 M42.4 14.5 L42.75 15.05 42.85 15.2 42.8 15.35 42.5 15.0 42.2 14.75 42.4 14.5 M31.65 11.45 L31.65 11.25 31.7 11.05 Q32.4 11.25 33.7 12.0 L34.55 12.5 35.05 12.1 35.75 11.5 36.3 12.55 37.1 13.75 38.85 13.5 Q39.6 15.3 41.35 17.05 L41.5 17.2 Q42.8 18.45 43.95 19.05 L44.05 19.4 44.3 20.35 44.2 21.0 44.1 20.85 43.75 21.1 43.5 20.8 43.8 20.55 43.7 20.4 43.8 20.2 43.6 19.9 Q43.3 19.6 42.85 19.6 L42.6 19.65 42.5 19.6 41.6 19.15 41.45 19.7 41.3 19.85 40.1 19.05 40.0 19.65 39.5 19.2 38.7 18.55 36.95 15.8 35.65 14.1 35.45 13.9 35.4 13.9 35.1 14.4 34.35 14.05 Q33.6 13.75 33.1 13.6 L32.05 12.1 31.8 11.7 31.65 11.45 M46.75 20.8 L46.1 21.3 45.25 19.45 46.15 20.25 46.75 20.8 M28.8 36.4 L28.35 35.65 28.05 35.25 28.0 34.95 Q28.0 34.35 28.4 34.1 L29.0 33.9 Q29.55 33.9 30.0 34.55 L30.3 35.05 Q30.25 35.55 29.7 35.55 L29.4 35.4 29.25 35.25 29.05 35.35 29.35 36.05 29.25 36.1 29.15 36.15 28.8 36.4 M29.5 18.05 L30.05 17.75 30.0 17.75 27.95 15.65 29.3 14.6 29.9 14.1 30.25 13.8 30.45 14.65 29.65 15.8 30.0 15.85 31.05 16.0 31.75 15.95 32.65 15.8 33.05 16.05 32.35 16.65 32.15 16.85 31.9 17.05 32.15 17.15 32.25 17.2 33.45 17.35 33.4 17.9 Q33.0 18.05 32.5 18.5 L31.05 20.25 30.05 22.05 30.85 21.8 32.4 21.6 32.7 21.65 32.25 22.8 33.05 23.7 34.25 25.0 Q34.75 25.45 35.35 25.7 L35.05 27.05 35.05 28.95 35.05 29.2 34.7 29.95 33.6 28.25 32.8 27.05 32.5 27.15 32.3 26.25 32.05 25.1 31.9 24.4 31.3 27.65 31.1 27.65 30.75 27.1 30.4 26.6 30.05 26.65 30.1 26.2 30.05 25.15 28.7 26.95 28.5 27.0 25.6 27.35 25.2 27.35 25.45 27.05 Q27.25 24.25 28.8 22.8 L27.3 23.3 26.55 23.5 26.2 22.65 25.0 20.15 25.3 20.05 27.0 20.2 28.15 20.1 28.95 20.05 30.65 18.85 29.5 18.05 M29.5 23.4 L29.05 23.9 28.25 24.8 28.25 24.85 Q28.45 25.1 28.8 25.1 L29.5 23.4 M38.6 16.75 L37.85 16.05 38.9 17.95 39.2 17.2 38.6 16.75 M9.3 18.35 L9.35 19.15 9.6 20.0 10.55 20.2 12.55 20.45 13.25 20.35 11.4 18.85 9.5 17.05 9.35 17.7 9.3 18.35 M19.6 34.9 L18.7 36.9 17.7 39.15 18.25 40.0 18.8 40.35 19.35 37.0 19.6 34.9 M35.45 49.8 Q35.45 51.0 35.6 52.05 L35.6 52.65 36.35 52.85 36.95 52.75 36.15 50.75 35.55 48.2 35.45 49.8" fill="#ecead1" fill-rule="evenodd" stroke="none"/>
      <path d="M46.4 40.45 L45.75 40.45 45.65 40.45 45.85 41.0 43.05 41.8 42.65 44.7 42.6 46.0 43.8 47.25 45.2 48.95 45.2 49.0 45.2 49.45 44.35 49.3 42.0 49.1 41.9 49.1 41.8 49.4 41.7 49.1 41.5 48.35 41.25 47.3 36.7 46.25 35.8 45.8 Q33.5 44.55 31.15 42.25 L30.1 42.3 28.8 42.3 26.8 42.05 25.3 41.65 25.95 40.3 26.55 38.35 25.45 36.15 25.4 36.0 27.1 36.65 27.85 37.05 28.1 37.2 28.5 38.1 28.6 38.1 28.65 38.85 28.65 39.4 28.55 40.7 28.65 40.7 29.65 40.35 Q31.05 39.9 32.15 39.05 L33.1 40.75 34.2 42.0 35.2 42.9 35.25 42.95 35.75 43.35 37.5 44.5 Q39.05 45.4 40.55 46.0 L40.95 46.15 41.5 46.3 41.45 46.05 41.4 45.2 41.65 42.9 42.25 40.8 42.75 39.75 42.9 39.5 43.5 39.75 45.65 40.35 45.5 39.8 45.4 38.7 Q45.4 37.55 45.55 36.55 46.05 36.65 46.8 37.1 L47.85 37.75 47.8 36.75 47.9 34.85 48.35 35.05 48.6 36.9 48.85 38.35 48.85 38.4 48.85 38.7 46.65 38.25 46.25 38.3 46.35 40.4 46.4 40.45 M41.45 49.95 Q40.6 51.45 39.2 52.95 L37.7 54.45 38.15 52.35 38.05 51.15 38.95 51.0 38.95 50.65 38.75 49.1 38.6 48.5 39.95 49.15 41.45 49.95 M35.0 56.5 L34.2 57.0 33.75 57.25 33.25 55.0 32.2 52.5 Q30.45 52.15 29.25 51.6 L26.5 49.85 25.15 48.8 25.7 48.45 26.3 47.9 27.2 46.65 27.55 45.05 27.3 43.7 27.2 43.65 26.55 43.45 26.05 43.35 23.75 43.75 23.05 44.25 22.9 44.7 22.9 44.85 Q22.9 46.55 23.75 47.0 L23.75 47.05 23.8 47.05 24.0 47.1 Q24.6 47.1 24.95 46.65 L25.15 46.3 24.95 45.95 24.8 45.7 24.5 45.75 Q23.8 45.75 23.7 45.1 L24.05 44.55 Q24.6 44.2 25.4 44.2 26.0 44.2 26.45 44.65 L26.65 45.05 26.65 45.15 Q26.65 46.0 25.95 46.95 L25.9 47.0 25.55 47.35 25.15 47.5 24.15 47.7 22.55 47.35 22.4 47.3 21.75 47.0 21.4 43.85 19.9 44.15 19.75 43.9 19.6 43.7 20.4 42.05 21.3 39.3 22.3 43.95 22.5 46.85 22.95 47.1 24.5 47.5 25.2 47.4 25.7 46.75 26.05 46.25 26.35 45.4 26.3 45.15 25.8 44.7 25.45 44.5 24.45 44.8 Q23.95 45.0 23.95 45.15 L24.25 45.4 24.85 45.6 24.95 45.6 25.55 46.4 25.3 46.95 Q25.0 47.3 24.55 47.3 L23.45 47.0 23.05 46.65 23.05 46.6 22.85 45.75 22.65 44.15 22.65 44.05 22.7 44.0 Q23.1 43.75 24.45 43.45 L26.6 43.1 27.4 43.15 27.5 43.75 27.65 45.35 27.4 46.9 27.25 47.7 27.5 47.6 Q29.5 46.55 32.1 45.25 L32.85 46.05 33.75 47.1 Q35.05 51.05 35.05 56.15 L35.0 56.5 M14.35 43.1 L13.7 43.3 13.35 42.75 13.0 41.95 Q12.65 40.8 12.45 39.25 L13.2 38.95 16.25 37.8 15.5 40.2 14.35 43.1 M10.25 38.9 L10.0 38.75 10.1 38.2 Q10.2 37.5 10.4 37.15 L11.9 36.6 11.5 37.15 10.25 38.9 M11.95 32.45 L12.35 33.25 13.05 33.4 13.8 33.3 12.75 35.15 12.45 35.3 10.45 36.25 10.2 36.3 9.9 36.3 6.25 35.8 Q3.5 35.1 2.3 33.75 L9.8 33.0 11.95 32.45 M14.45 31.85 L14.2 31.85 14.1 31.85 13.85 32.25 13.4 32.5 13.0 32.35 12.85 32.15 14.55 31.65 14.45 31.85 M6.7 30.3 L6.95 30.05 6.45 29.4 5.85 28.35 5.65 27.9 5.85 27.8 8.5 28.45 12.1 28.75 Q10.1 29.65 7.35 30.2 L6.7 30.3 M6.25 27.7 L7.7 27.05 9.05 26.35 7.5 24.7 Q5.95 22.95 5.3 21.3 L4.3 18.9 4.0 18.05 3.85 17.5 6.2 16.65 Q8.4 15.8 9.7 14.95 L10.4 14.55 Q10.75 15.5 11.45 16.2 L11.95 16.65 12.15 16.75 13.9 17.0 15.35 16.75 15.55 16.65 16.5 16.2 17.25 15.8 Q17.8 15.2 17.8 14.5 17.8 13.8 17.3 13.05 L17.15 12.75 17.05 12.7 16.75 12.65 16.5 12.55 Q14.6 12.55 14.6 13.75 14.6 14.35 14.85 14.7 L15.0 14.9 Q15.3 14.85 15.85 14.4 L15.8 14.3 15.8 14.1 15.7 13.8 15.75 13.7 Q16.0 13.55 16.4 13.55 16.95 13.55 16.95 14.2 16.95 14.75 16.4 15.4 15.55 16.2 14.15 16.2 L13.05 16.0 12.6 15.75 12.45 15.55 Q12.05 15.2 11.8 14.45 L11.65 13.6 Q11.65 12.1 11.8 11.2 L12.05 10.35 13.0 10.15 15.0 9.9 15.15 9.9 15.05 9.55 14.6 7.55 13.95 5.65 Q15.55 6.4 17.15 7.45 L17.75 7.9 20.85 10.3 22.2 11.75 21.55 11.45 Q19.2 10.35 15.55 9.6 L15.5 9.8 15.55 10.15 15.25 10.15 13.55 10.65 12.25 11.0 Q11.9 11.6 11.9 12.55 11.9 14.75 12.9 15.8 L13.85 16.0 14.7 15.85 15.6 15.65 Q16.55 15.3 16.55 14.35 L16.55 14.0 15.85 14.1 15.95 14.6 15.5 15.05 14.9 15.15 14.65 15.15 Q14.45 14.7 14.4 13.95 L14.3 12.95 14.35 12.6 15.0 12.4 16.1 12.3 17.3 12.5 17.8 13.5 17.8 13.55 18.1 14.7 Q17.85 15.7 16.1 16.7 L14.3 17.55 13.1 17.3 11.35 16.65 10.25 15.75 9.9 15.2 6.25 17.15 4.6 17.85 Q4.65 18.5 5.0 19.3 L5.1 19.45 Q7.55 21.1 10.1 22.0 13.35 23.3 15.7 23.55 L18.8 23.7 Q16.45 24.9 11.95 26.35 L7.0 27.6 6.25 27.7 M23.8 7.3 L23.9 7.3 24.05 4.8 24.05 4.65 Q25.45 4.75 26.65 5.5 L27.1 5.8 27.4 3.85 27.55 2.55 27.75 2.75 28.8 3.4 30.65 4.55 33.05 5.45 34.3 5.7 34.35 4.95 35.05 5.05 35.55 5.1 35.85 4.7 36.7 3.85 Q37.7 5.45 39.2 6.95 L39.9 7.6 41.0 8.45 40.65 9.45 40.5 9.95 Q40.85 11.5 41.35 12.55 L42.4 14.5 42.2 14.75 42.5 15.0 42.8 15.35 42.85 15.2 42.75 15.05 42.95 14.1 42.85 13.9 42.45 12.95 41.65 9.85 41.65 9.8 41.95 9.15 42.4 8.2 42.8 7.45 Q44.1 4.85 45.0 3.95 L44.2 6.75 Q43.9 7.9 43.75 8.95 L43.7 9.0 43.55 10.1 43.55 10.2 43.5 10.6 43.5 11.1 Q43.65 12.95 45.4 16.35 L46.25 17.9 47.75 20.25 48.3 20.3 48.2 18.35 48.05 16.75 49.05 18.9 49.1 19.55 49.05 20.4 49.4 20.5 49.45 20.5 49.5 18.45 49.6 16.65 49.6 16.45 50.1 16.45 51.0 16.35 50.5 18.7 50.4 20.2 51.55 21.75 50.65 23.2 50.1 21.95 49.9 21.15 49.4 21.15 49.15 21.1 49.05 21.1 48.65 21.15 48.55 21.15 48.3 21.2 47.7 21.6 45.3 23.25 45.15 23.1 44.9 22.9 44.05 22.65 44.1 22.55 44.3 22.3 44.1 22.55 44.05 22.65 43.6 22.55 43.45 22.55 43.45 23.25 42.6 22.7 42.35 22.55 41.9 22.35 40.95 22.55 40.5 22.55 38.95 20.3 38.55 19.75 37.2 17.9 35.3 15.6 35.05 15.35 34.9 15.2 34.8 15.15 34.55 15.05 34.6 15.3 34.75 17.05 34.75 18.35 34.2 21.45 33.85 22.4 34.7 23.7 Q35.8 25.1 37.45 25.45 L36.95 26.35 36.65 27.1 35.95 27.9 35.05 29.2 35.05 28.95 35.05 27.05 35.35 25.7 Q34.75 25.45 34.25 25.0 L33.05 23.7 32.25 22.8 32.7 21.65 32.4 21.6 30.85 21.8 30.05 22.05 31.05 20.25 32.5 18.5 Q33.0 18.05 33.4 17.9 L33.45 17.35 32.25 17.2 32.15 17.15 31.9 17.05 32.15 16.85 32.35 16.65 33.05 16.05 32.65 15.8 31.75 15.95 31.05 16.0 30.0 15.85 29.65 15.8 30.45 14.65 30.25 13.8 30.85 13.25 31.05 13.05 31.35 14.2 32.1 14.35 32.0 13.95 31.7 12.4 31.65 12.15 31.65 11.65 31.65 11.45 31.8 11.7 32.05 12.1 33.1 13.6 Q33.6 13.75 34.35 14.05 L35.1 14.4 35.4 13.9 35.45 13.9 35.65 14.1 36.95 15.8 38.7 18.55 39.5 19.2 40.0 19.65 40.1 19.05 41.3 19.85 41.45 19.7 41.6 19.15 42.5 19.6 42.6 19.65 42.5 19.7 42.0 19.85 41.7 20.15 41.7 20.2 Q41.7 21.5 42.35 22.05 42.75 22.4 43.5 22.4 L43.7 22.4 44.05 22.35 44.3 22.3 44.65 21.7 Q45.15 20.65 45.15 19.65 L45.1 18.95 Q43.5 18.2 42.0 16.6 L41.9 16.5 Q40.1 14.55 39.45 12.2 L38.25 12.7 37.4 13.05 36.7 11.45 36.25 9.6 34.95 10.6 33.85 11.5 32.5 10.6 30.45 8.6 30.5 8.95 Q30.5 10.6 30.8 12.1 L30.85 12.15 30.05 12.75 29.9 12.9 29.7 13.0 29.3 13.3 27.95 14.25 25.95 15.6 Q26.85 16.0 27.8 16.8 L28.4 17.35 28.5 17.45 25.7 18.4 23.4 19.15 23.6 19.55 24.5 21.4 25.25 22.95 24.9 23.9 24.4 25.45 Q23.6 27.9 23.65 29.45 L24.05 29.25 26.8 28.45 27.7 28.25 29.9 27.9 30.25 27.9 30.55 28.45 30.85 29.1 30.85 29.15 32.15 28.4 32.75 30.1 Q33.6 31.85 34.95 33.45 36.0 34.75 37.3 35.6 L37.6 36.8 Q38.35 39.7 39.2 42.1 L37.85 42.4 37.6 42.35 37.3 41.45 36.1 42.4 35.95 42.3 36.0 42.1 36.45 39.55 35.0 41.3 33.75 39.75 33.95 39.2 34.25 38.35 34.75 38.85 35.45 39.3 35.3 37.85 35.05 36.55 34.8 36.6 33.85 36.8 33.0 36.65 33.6 35.0 34.0 33.6 32.75 32.5 31.45 31.0 30.05 31.5 29.1 31.85 28.9 30.7 28.7 29.6 26.35 31.05 Q25.1 31.85 24.2 32.7 L23.45 33.3 23.4 33.3 22.6 33.95 22.55 33.8 22.35 32.85 21.75 30.9 22.05 28.75 Q22.7 23.55 23.1 22.4 L22.1 21.0 20.9 19.45 22.6 18.6 25.7 17.15 24.65 16.45 23.3 15.7 Q24.3 14.95 26.15 13.8 L26.55 12.4 26.8 10.4 25.95 9.0 25.7 8.65 25.05 9.5 25.0 9.6 24.45 10.25 24.4 9.85 23.95 7.6 23.8 7.3 M49.0 13.95 L48.9 13.6 48.95 13.55 49.0 13.95 M44.2 21.0 Q44.05 21.55 43.4 21.7 L43.25 21.65 42.85 21.35 42.65 20.65 42.7 20.35 43.15 20.55 43.25 20.75 43.5 20.6 43.7 20.4 43.8 20.55 43.5 20.8 43.75 21.1 44.1 20.85 44.2 21.0 M40.4 25.0 L40.65 24.8 40.95 24.65 40.95 24.95 40.6 24.95 40.4 25.0 M41.45 24.25 L41.85 23.95 42.0 23.95 42.2 23.95 42.2 24.1 41.45 24.25 M46.75 20.8 L46.15 20.25 45.25 19.45 46.1 21.3 46.75 20.8 M29.4 39.15 L29.4 38.95 29.4 38.5 29.25 37.8 29.1 37.25 28.8 36.4 29.15 36.15 29.25 36.1 29.35 36.05 Q29.7 36.6 30.15 36.6 L30.35 36.6 29.6 38.55 29.4 39.15 M25.3 20.05 L27.4 19.15 29.5 18.05 30.65 18.85 28.95 20.05 28.15 20.1 27.0 20.2 25.3 20.05 M26.55 23.5 L27.3 23.3 28.8 22.8 Q27.25 24.25 25.45 27.05 L25.2 27.35 24.85 27.35 Q25.1 26.5 25.7 25.2 L26.6 23.7 26.55 23.5 M28.7 26.95 L30.05 25.15 30.1 26.2 30.05 26.65 28.7 26.95 M31.3 27.65 L31.9 24.4 32.05 25.1 32.3 26.25 32.5 27.15 32.1 27.35 31.75 27.45 31.3 27.65 M29.5 23.4 L28.8 25.1 Q28.45 25.1 28.25 24.85 L28.25 24.8 29.05 23.9 29.5 23.4 M38.6 16.75 L39.2 17.2 38.9 17.95 37.85 16.05 38.6 16.75 M34.55 15.05 L33.0 14.5 32.1 14.35 33.0 14.5 34.55 15.05 M9.3 18.35 L9.35 17.7 9.5 17.05 11.4 18.85 13.25 20.35 12.55 20.45 10.55 20.2 9.6 20.0 9.35 19.15 9.3 18.35 M19.6 34.9 L19.35 37.0 18.8 40.35 18.25 40.0 17.7 39.15 18.7 36.9 19.6 34.9 M35.45 49.8 L35.55 48.2 36.15 50.75 36.95 52.75 36.35 52.85 35.6 52.65 35.6 52.05 Q35.45 51.0 35.45 49.8" fill="#a0d2d4" fill-rule="evenodd" stroke="none"/>
      <path d="M40.95 22.55 L41.9 22.35 42.35 22.55 42.6 22.7 43.45 23.25 43.45 23.3 Q42.85 23.9 42.2 23.95 L42.0 23.95 41.85 23.95 41.45 24.25 41.15 24.3 40.95 24.3 40.9 24.3 40.95 24.65 40.65 24.8 40.4 25.0 40.2 25.0 40.2 24.9 40.1 24.55 40.05 24.25 39.75 24.3 39.25 24.4 Q38.1 24.05 37.5 23.55 36.7 22.9 36.25 21.55 L36.4 21.1 36.55 20.3 36.65 19.3 36.65 19.15 36.45 18.85 Q36.1 18.45 35.4 18.35 L35.0 18.35 34.75 18.35 34.75 17.05 34.6 15.3 34.55 15.05 34.8 15.15 34.9 15.2 35.05 15.35 35.3 15.6 37.2 17.9 36.95 19.7 36.85 20.35 36.7 21.75 37.05 22.45 37.75 23.35 Q38.45 24.0 39.35 24.15 L39.75 24.0 40.4 23.6 Q40.95 23.15 40.95 22.55" fill="#0a97e7" fill-rule="evenodd" stroke="none"/>
      <path d="M40.95 22.55 Q40.95 23.15 40.4 23.6 L39.75 24.0 Q39.75 22.3 38.7 21.25 37.95 20.45 36.85 20.35 L36.95 19.7 37.2 17.9 38.55 19.75 38.95 20.3 40.5 22.55 40.95 22.55" fill="#4f09af" fill-rule="evenodd" stroke="none"/>
      <path d="M54.6 30.75 L54.2 34.3 53.55 37.05 53.4 37.5 52.25 37.65 50.25 37.8 50.05 37.55 49.85 37.3 49.75 37.2 49.75 37.05 49.85 35.65 49.3 34.95 48.25 33.9 48.0 33.7 47.4 33.3 45.8 32.25 42.65 30.6 42.5 30.1 40.5 29.9 40.4 29.35 39.85 27.1 38.7 27.4 37.75 27.75 37.75 26.9 37.75 26.75 37.75 26.25 37.85 25.5 37.85 25.3 37.85 25.0 39.2 25.05 40.2 25.0 40.4 25.0 40.6 24.95 40.95 24.95 40.95 24.65 40.9 24.3 40.95 24.3 41.15 24.3 41.45 24.25 42.2 24.1 42.5 23.95 43.45 23.6 43.45 23.3 43.45 23.25 43.45 22.55 43.6 22.55 44.05 22.65 44.9 22.9 45.15 23.1 45.3 23.25 47.7 21.6 48.3 21.2 48.55 21.15 48.65 21.15 49.05 21.1 49.15 21.1 49.4 21.15 49.9 21.15 50.1 21.95 49.4 21.8 49.1 21.8 48.6 21.8 48.2 22.0 Q47.05 22.6 46.3 23.65 L45.85 24.35 45.0 24.0 44.7 23.95 44.6 23.95 44.0 23.8 43.85 24.6 43.8 24.75 Q42.9 24.85 42.1 25.5 L41.85 25.65 41.45 26.0 41.5 26.3 41.65 26.35 42.25 26.55 42.6 26.7 42.75 27.55 42.45 27.8 42.4 27.85 41.95 28.2 42.05 28.65 Q42.75 29.4 44.35 30.35 L46.2 31.25 47.95 31.85 48.3 31.9 49.15 32.05 49.6 32.1 50.3 34.45 50.35 34.8 50.45 35.2 51.0 35.55 Q51.95 36.1 52.7 36.1 L54.6 30.75 M42.85 28.55 L42.95 28.3 42.95 28.2 43.05 28.0 43.2 28.0 43.4 28.0 43.5 28.25 43.65 28.55 43.5 28.55 43.15 28.65 42.85 28.6 42.85 28.55 M37.35 28.55 Q37.5 28.45 37.8 28.3 L38.8 28.0 39.45 27.85 39.5 27.9 38.95 28.05 37.85 28.4 37.35 28.55" fill="#bd732b" fill-rule="evenodd" stroke="none"/>
      <path d="M42.2 23.95 Q42.85 23.9 43.45 23.3 L43.45 23.6 42.5 23.95 42.2 24.1 42.2 23.95 M46.95 34.45 L46.4 35.8 44.9 35.6 44.7 35.6 Q44.55 36.95 44.55 38.65 L44.55 39.0 43.05 38.65 42.45 38.25 Q41.5 40.0 41.0 42.4 40.65 43.95 40.6 45.15 L40.4 45.1 38.05 43.95 36.1 42.4 37.3 41.45 37.6 42.35 37.85 42.4 39.2 42.1 Q38.35 39.7 37.6 36.8 L37.3 35.6 Q36.0 34.75 34.95 33.45 33.6 31.85 32.75 30.1 L32.15 28.4 32.55 28.15 32.6 28.1 Q33.2 30.25 34.65 31.6 L35.45 32.2 35.95 32.5 36.05 31.55 36.15 30.55 37.0 31.6 Q37.5 32.2 38.15 32.65 L38.2 32.7 44.05 33.45 45.5 33.85 46.7 34.35 46.95 34.45 M35.95 42.3 L35.4 41.75 35.0 41.3 36.45 39.55 36.0 42.1 35.95 42.3" fill="#6dbcbf" fill-rule="evenodd" stroke="none"/>
      <path d="M51.2 24.2 L52.3 25.95 54.7 28.85 54.6 30.75 52.7 36.1 Q51.95 36.1 51.0 35.55 L50.45 35.2 50.35 34.8 50.3 34.45 49.6 32.1 49.15 32.05 48.3 31.9 47.95 31.85 46.2 31.25 44.35 30.35 Q42.75 29.4 42.05 28.65 L41.95 28.2 42.4 27.85 42.45 27.8 42.75 27.55 42.6 26.7 42.25 26.55 41.65 26.35 41.5 26.3 41.45 26.0 41.85 25.65 42.1 25.5 Q42.9 24.85 43.8 24.75 L43.85 24.6 44.0 23.8 44.6 23.95 44.7 23.95 45.0 24.0 45.85 24.35 46.3 23.65 Q47.05 22.6 48.2 22.0 L48.6 21.8 49.1 21.8 49.4 21.8 50.1 21.95 50.65 23.2 51.2 24.2 M50.55 24.35 L50.25 23.85 50.55 24.8 51.4 27.4 51.55 27.4 52.15 27.25 52.15 27.2 52.25 27.1 52.0 26.75 51.1 25.35 50.7 24.7 50.55 24.35 M52.15 28.35 Q52.15 29.15 52.6 29.5 L53.2 29.7 Q53.65 29.7 53.8 29.45 L53.85 29.2 Q53.85 28.55 53.15 28.15 L52.5 27.85 52.4 27.9 52.15 28.1 52.15 28.35 M42.85 28.55 L42.85 28.6 43.15 28.65 43.5 28.55 43.65 28.55 43.5 28.25 43.4 28.0 43.2 28.0 43.05 28.0 42.95 28.2 42.95 28.3 42.85 28.55" fill="#dba13e" fill-rule="evenodd" stroke="none"/>
      <path d="M50.55 24.35 L50.7 24.7 51.1 25.35 52.0 26.75 52.25 27.1 52.15 27.2 52.15 27.25 51.55 27.4 51.4 27.4 50.55 24.8 50.25 23.85 50.55 24.35 M52.15 28.35 L52.15 28.1 52.4 27.9 52.5 27.85 53.15 28.15 Q53.85 28.55 53.85 29.2 L53.8 29.45 Q53.65 29.7 53.2 29.7 L52.6 29.5 Q52.15 29.15 52.15 28.35" fill="#ffc841" fill-rule="evenodd" stroke="none"/>
      <path d="M53.4 37.5 L53.35 37.6 51.75 38.1 50.05 38.5 49.9 38.55 48.9 38.7 48.85 38.7 48.85 38.4 48.85 38.35 49.0 37.05 49.0 36.8 48.95 35.55 48.55 35.15 48.35 34.95 47.9 34.5 47.15 33.9 45.85 33.1 45.75 33.05 Q43.95 32.05 42.45 31.55 L42.3 31.1 42.15 30.7 40.55 30.45 39.9 30.35 39.55 28.5 39.5 27.9 39.55 28.5 39.9 30.35 40.55 30.45 42.15 30.7 42.3 31.1 42.45 31.55 Q43.95 32.05 45.75 33.05 L45.85 33.1 47.15 33.9 47.9 34.5 48.35 34.95 48.55 35.15 48.35 35.05 47.9 34.85 46.95 34.45 46.7 34.35 45.5 33.85 44.05 33.45 38.2 32.7 38.15 32.65 Q37.5 32.2 37.0 31.6 L36.15 30.55 36.1 30.4 Q36.15 28.55 36.65 27.1 L36.95 26.35 37.45 25.45 37.6 25.2 37.8 25.0 37.85 25.0 37.85 25.3 37.85 25.5 37.75 26.25 37.75 26.75 37.75 26.9 37.75 27.75 38.7 27.4 39.85 27.1 40.4 29.35 40.5 29.9 42.5 30.1 42.65 30.6 45.8 32.25 47.4 33.3 48.0 33.7 48.25 33.9 49.3 34.95 49.85 35.65 49.75 37.05 49.75 37.2 49.85 37.3 50.05 37.55 50.25 37.8 52.25 37.65 53.4 37.5 M39.5 27.9 L39.45 27.85 38.8 28.0 37.8 28.3 Q37.5 28.45 37.35 28.55 L37.85 28.4 38.95 28.05 39.5 27.9" fill="#a64a1e" fill-rule="evenodd" stroke="none"/>
      <path d="M34.75 18.35 L35.0 18.35 35.4 18.35 35.25 19.95 34.85 21.95 35.0 22.3 Q35.35 23.25 36.0 24.05 36.5 24.8 37.6 25.2 L37.45 25.45 Q35.8 25.1 34.7 23.7 L33.85 22.4 34.2 21.45 34.75 18.35" fill="#5bf8ff" fill-rule="evenodd" stroke="none"/>
      <path d="M39.75 24.0 L39.35 24.15 Q38.45 24.0 37.75 23.35 L37.05 22.45 36.7 21.75 36.85 20.35 Q37.95 20.45 38.7 21.25 39.75 22.3 39.75 24.0" fill="#7119ea" fill-rule="evenodd" stroke="none"/>
      <path d="M49.9 38.55 L50.0 39.2 50.7 41.35 50.7 41.4 49.85 41.45 47.95 41.35 47.45 41.25 48.0 42.4 48.55 43.3 47.2 44.0 45.0 44.75 45.7 46.3 Q46.35 48.2 46.35 50.8 L46.35 50.9 46.3 51.65 45.3 51.15 Q43.55 50.25 42.1 50.2 L42.1 50.35 42.05 50.6 Q41.15 54.0 37.75 56.5 L37.35 56.75 36.3 57.45 34.8 58.2 32.55 59.2 32.55 58.95 32.25 56.0 31.4 53.6 Q29.3 52.85 27.1 51.5 25.15 50.25 24.0 49.2 L23.15 48.3 22.6 48.4 21.5 48.55 21.25 48.65 20.9 46.8 20.65 45.05 19.2 45.4 18.75 45.5 18.7 45.35 18.45 44.0 18.05 42.2 Q16.3 42.95 15.0 43.65 14.25 44.0 13.75 44.3 L12.9 44.8 Q11.5 41.5 11.1 39.75 L11.05 39.8 9.4 39.95 9.25 39.95 8.35 39.9 8.95 38.6 9.6 36.7 8.85 36.8 Q4.9 36.8 1.7 35.0 L-0.05 33.8 0.2 33.65 4.65 30.6 5.05 30.25 4.55 29.1 4.1 27.9 4.0 27.45 4.55 27.35 6.05 26.65 6.95 26.05 4.85 23.15 Q3.25 20.35 2.5 17.5 L2.4 17.25 Q4.85 16.2 7.1 14.7 L10.95 12.3 10.85 11.1 10.5 9.45 12.05 9.3 12.75 9.25 13.6 9.3 13.2 7.2 Q12.7 5.35 11.6 4.7 L11.8 4.65 12.5 4.6 13.4 4.6 14.4 4.55 16.0 4.65 19.8 5.35 22.9 6.2 23.05 5.35 23.15 4.45 22.9 2.8 26.55 4.5 26.55 4.25 26.4 2.35 26.4 1.85 26.55 -0.05 27.7 1.1 29.65 2.7 Q31.5 4.05 33.45 4.9 L33.6 3.55 33.6 3.35 34.25 3.8 35.05 4.25 36.25 2.7 36.7 2.25 Q37.6 4.2 39.4 5.9 L40.9 7.15 41.45 7.6 41.5 7.4 43.05 4.7 Q44.35 2.75 46.35 0.65 L46.3 2.7 Q46.3 4.45 46.6 6.75 L47.0 9.9 47.05 10.0 47.15 10.15 48.3 12.2 48.5 12.55 48.95 12.2 49.8 11.65 50.0 13.15 50.45 15.2 51.95 15.2 52.6 15.2 52.05 18.05 52.0 18.2 51.5 20.1 52.25 21.4 53.0 22.5 51.2 24.2 M41.0 8.45 L41.45 7.6 M49.5 15.8 L49.0 13.95 48.9 13.6 48.5 12.6 48.5 12.55 M49.6 16.65 L49.6 16.45 49.6 16.25 49.55 15.95 49.5 15.8 M41.0 8.45 L40.65 9.45 40.5 9.95 Q40.85 11.5 41.35 12.55 L42.4 14.5 42.75 15.05 42.85 15.2 M44.3 22.3 L44.65 21.7 Q45.15 20.65 45.15 19.65 L45.1 18.95 Q43.5 18.2 42.0 16.6 L41.9 16.5 Q40.1 14.55 39.45 12.2 L38.25 12.7 37.4 13.05 36.7 11.45 36.25 9.6 34.95 10.6 33.85 11.5 32.5 10.6 30.45 8.6 30.5 8.95 Q30.5 10.6 30.8 12.1 L30.85 12.15 31.05 13.05 31.35 14.2 32.1 14.35 33.0 14.5 34.55 15.05 34.6 15.3 34.75 17.05 34.75 18.35 34.2 21.45 33.85 22.4 34.7 23.7 Q35.8 25.1 37.45 25.45 M44.3 22.3 L44.1 22.55 44.05 22.65 M43.45 23.25 L42.6 22.7 42.35 22.55 41.9 22.35 40.95 22.55 40.5 22.55 38.95 20.3 38.55 19.75 37.2 17.9 35.3 15.6 35.05 15.35 34.9 15.2 34.8 15.15 34.55 15.05 M40.4 25.0 L40.65 24.8 40.95 24.65 M41.45 24.25 L41.85 23.95 42.0 23.95 42.2 23.95 Q42.85 23.9 43.45 23.3 M42.2 23.95 L42.2 24.1 M36.15 30.55 L36.05 31.55 35.95 32.5 35.45 32.2 34.65 31.6 Q33.2 30.25 32.6 28.1 L32.55 28.15 32.15 28.4 30.85 29.15 30.85 29.1 30.55 28.45 30.25 27.9 29.9 27.9 27.7 28.25 26.8 28.45 24.05 29.25 23.65 29.45 Q23.6 27.9 24.4 25.45 L24.9 23.9 25.25 22.95 24.5 21.4 23.6 19.55 23.4 19.15 25.7 18.4 28.5 17.45 28.4 17.35 27.8 16.8 Q26.85 16.0 25.95 15.6 L27.95 14.25 29.3 13.3 29.7 13.0 29.9 12.9 30.05 12.75 30.85 12.15 M28.6 38.1 L28.55 37.55 M47.9 34.85 L47.8 36.75 47.85 37.75 46.8 37.1 Q46.05 36.65 45.55 36.55 45.4 37.55 45.4 38.7 L45.5 39.8 45.65 40.35 43.5 39.75 42.9 39.5 42.75 39.75 42.25 40.8 41.65 42.9 41.4 45.2 41.45 46.05 41.5 46.3 40.95 46.15 40.55 46.0 Q39.05 45.4 37.5 44.5 L35.75 43.35 35.25 42.95 35.2 42.9 34.2 42.0 33.1 40.75 32.15 39.05 Q31.05 39.9 29.65 40.35 L28.65 40.7 28.55 40.7 28.65 39.4 28.65 38.85 28.6 38.1" fill="none" stroke="#098bff" stroke-linecap="round" stroke-linejoin="round" stroke-width="1.0"/>
      <path d="M51.2 24.2 L52.3 25.95 54.7 28.85 54.6 30.75 54.2 34.3 53.55 37.05 53.4 37.5 53.35 37.6 51.75 38.1 50.05 38.5 49.9 38.55 48.9 38.7 48.85 38.7 48.85 38.4 48.85 38.35 49.0 37.05 49.0 36.8 48.95 35.55 48.55 35.15 48.35 35.05 47.9 34.85 46.95 34.45 46.7 34.35 45.5 33.85 44.05 33.45 38.2 32.7 38.15 32.65 Q37.5 32.2 37.0 31.6 L36.15 30.55 36.1 30.4 Q36.15 28.55 36.65 27.1 L36.95 26.35 37.45 25.45 37.6 25.2 37.8 25.0 37.85 25.0 39.2 25.05 40.2 25.0 40.4 25.0 40.6 24.95 40.95 24.95 40.95 24.65 40.9 24.3 40.95 24.3 41.15 24.3 41.45 24.25 42.2 24.1 42.5 23.95 43.45 23.6 43.45 23.3 43.45 23.25 43.45 22.55 43.6 22.55 44.05 22.65 44.9 22.9 45.15 23.1 45.3 23.25 47.7 21.6 48.3 21.2 48.55 21.15 48.65 21.15 49.05 21.1 49.15 21.1 49.4 21.15 49.9 21.15 50.1 21.95 50.65 23.2 51.2 24.2 M39.5 27.9 L39.55 28.5 39.9 30.35 40.55 30.45 42.15 30.7 42.3 31.1 42.45 31.55 Q43.95 32.05 45.75 33.05 L45.85 33.1 47.15 33.9 47.9 34.5 48.35 34.95 48.55 35.15 M37.35 28.55 Q37.5 28.45 37.8 28.3 L38.8 28.0 39.45 27.85 39.5 27.9" fill="none" stroke="#64221a" stroke-linecap="round" stroke-linejoin="round" stroke-width="1.0"/>
    </g>
  </defs>
</svg>
