<?xml version="1.0" encoding="UTF-8" standalone="no"?>
<svg xmlns:ffdec="https://www.free-decompiler.com/flash" xmlns:xlink="http://www.w3.org/1999/xlink" ffdec:objectType="frame" height="30.0px" width="30.0px" xmlns="http://www.w3.org/2000/svg">
  <g transform="matrix(1.0, 0.0, 0.0, 1.0, 0.0, 0.0)">
    <use ffdec:characterId="3" height="30.0" transform="matrix(1.0, 0.0, 0.0, 1.0, 0.0, 0.0)" width="30.0" xlink:href="#shape0"/>
  </g>
  <defs>
    <g id="shape0" transform="matrix(1.0, 0.0, 0.0, 1.0, 0.0, 0.0)">
      <path d="M0.0 0.0 L30.0 0.0 30.0 30.0 0.0 30.0 0.0 0.0" fill="#33cc66" fill-opacity="0.0" fill-rule="evenodd" stroke="none"/>
      <path d="M0.0 3.3 Q0.0 0.0 3.3 0.0 L26.7 0.0 Q30.0 0.0 30.0 3.3 L30.0 26.7 Q30.0 30.0 26.7 30.0 L3.3 30.0 Q0.0 30.0 0.0 26.7 L0.0 3.3" fill="#70cb4e" fill-rule="evenodd" stroke="none"/>
      <path d="M10.65 9.4 L11.45 8.4 Q12.3 7.55 13.3 6.9 14.1 6.3 14.9 6.2 L15.05 6.2 15.05 6.15 Q16.55 6.0 18.25 6.8 18.85 7.05 19.4 7.45 L19.75 7.7 21.35 9.15 21.45 9.3 21.5 9.35 21.6 9.45 21.75 9.65 24.05 12.65 25.3 14.85 25.8 16.15 26.15 17.1 26.2 17.95 26.0 19.6 26.0 19.7 25.8 20.0 25.0 20.9 25.2 21.35 25.35 21.6 25.8 22.45 25.85 22.6 25.4 23.65 25.15 23.95 Q24.65 24.5 23.9 24.5 L23.5 24.45 22.55 24.15 22.45 24.1 22.4 24.05 22.3 23.9 21.95 23.15 21.05 23.6 20.1 25.3 18.95 27.6 18.8 27.9 18.65 28.3 17.9 28.35 17.7 28.35 17.35 28.35 17.15 28.3 16.7 28.15 16.6 28.15 16.3 28.0 16.1 27.9 16.05 27.9 15.95 27.25 15.95 27.2 15.9 26.95 15.8 25.5 15.8 25.05 15.75 25.05 15.25 25.1 15.25 25.55 15.15 27.0 15.15 27.25 15.1 27.35 15.0 28.0 14.75 28.1 14.45 28.2 14.35 28.25 13.95 28.35 13.75 28.4 13.35 28.45 13.15 28.45 12.4 28.35 12.25 28.0 12.15 27.7 10.95 25.45 10.35 24.25 9.4 23.75 7.8 22.3 7.8 22.25 7.75 22.1 7.2 22.85 7.1 23.0 7.05 23.05 6.95 23.05 6.75 23.15 5.95 23.25 5.55 23.2 Q4.8 23.05 4.35 22.45 L4.2 22.1 3.9 21.05 4.0 20.9 4.05 20.8 4.6 20.1 4.75 19.85 7.55 16.05 7.75 15.8 7.8 15.2 7.85 14.85 8.2 13.8 8.2 13.75 8.4 13.2 8.9 12.0 10.65 9.4 M7.75 15.8 L8.0 15.4 8.35 15.4 Q9.35 15.4 9.7 16.3 L9.95 17.65 9.95 17.9 9.9 18.9 9.75 19.1 8.8 20.6 8.65 20.8 7.95 21.75 7.9 21.9 7.85 22.0 7.75 22.1 M15.25 25.1 L14.75 25.1 14.45 25.1 14.4 25.1 14.3 25.1 12.25 24.9 12.1 24.85 10.55 24.35 10.35 24.25 M16.75 1.65 L16.6 3.25 16.55 3.95 16.5 5.0 16.25 5.0 16.1 4.95 15.25 4.85 15.25 4.75 15.15 4.35 15.0 3.6 14.65 1.7 14.9 1.7 14.95 1.7 16.6 1.65 16.75 1.65 M18.1 3.65 L18.8 4.1 18.8 4.2 18.65 4.5 18.3 5.45 17.45 5.3 17.5 4.2 17.55 3.9 17.65 3.4 18.0 3.6 18.1 3.65 M13.5 4.35 L14.05 4.05 14.35 4.75 14.4 4.8 14.6 5.3 14.25 5.5 13.75 5.75 13.4 5.25 13.35 5.15 13.05 4.65 13.5 4.35 M20.7 12.5 L18.5 12.5 17.8 12.45 17.3 12.4 17.3 12.45 17.1 12.85 17.05 13.0 16.85 13.95 16.9 14.55 Q17.05 15.1 17.5 15.5 18.15 16.05 19.2 16.05 20.3 16.05 20.95 15.3 21.5 14.65 21.5 13.95 L21.5 13.7 21.4 13.3 21.15 12.6 21.05 12.5 20.7 12.5 M17.3 12.4 L16.05 12.3 15.95 12.45 15.45 13.55 15.35 14.45 15.4 15.05 Q15.6 16.15 16.45 16.85 17.45 17.6 18.9 17.6 20.9 17.6 21.95 16.5 22.7 15.7 22.7 14.75 L22.5 13.65 22.45 13.65 21.8 12.65 21.65 12.5 21.55 12.5 21.05 12.5 M14.9 12.4 L16.05 12.3 M24.9 16.45 L24.65 16.25 24.45 16.9 24.2 18.0 23.8 17.95 23.7 18.35 23.65 18.55 23.5 19.15 22.1 18.6 21.05 19.3 21.0 19.35 20.45 19.8 20.4 19.85 19.55 20.4 18.55 19.85 17.35 19.25 16.35 19.55 15.05 20.1 14.25 19.1 14.0 18.75 13.0 17.55 12.95 17.7 12.6 18.5 M13.15 17.3 L13.0 17.55 M15.8 25.05 L16.0 25.05 17.0 24.9 17.2 24.85 17.4 24.8 18.65 24.55 18.75 24.5 20.65 23.8 21.05 23.6 M21.65 12.5 L22.7 12.65 M24.65 16.25 L24.35 15.95 M25.0 20.9 L24.7 21.2 24.6 21.3 23.2 22.4 22.95 22.55 21.95 23.15" fill="none" stroke="#ffffff" stroke-linecap="round" stroke-linejoin="round" stroke-width="2.5"/>
      <path d="M8.4 13.2 L8.9 12.0 10.65 9.4 11.45 8.4 11.5 8.5 Q11.05 9.15 10.5 10.55 L10.15 11.6 Q10.6 11.6 10.85 12.1 L10.95 12.6 Q10.95 13.0 10.6 13.2 L10.1 13.4 9.9 13.35 9.85 14.1 Q9.05 13.3 8.4 13.2 M14.9 6.2 L15.05 6.2 Q15.85 6.65 16.45 7.6 L16.6 7.95 16.45 7.95 16.4 7.9 Q16.05 7.15 15.2 6.45 L14.9 6.2 M19.4 7.45 L19.75 7.7 19.8 7.8 20.05 8.7 20.1 9.05 19.85 8.9 19.45 7.55 19.4 7.45 M21.45 9.3 L21.5 9.35 21.6 9.45 21.75 9.65 21.8 10.15 21.8 10.85 21.65 10.85 21.5 10.85 21.45 10.75 21.55 10.75 21.75 10.8 21.7 10.35 21.6 9.9 21.55 9.45 20.75 9.35 20.6 9.35 20.7 9.55 20.6 9.4 20.45 9.15 20.75 9.2 21.45 9.3 M25.3 14.85 L25.8 16.15 26.15 17.1 26.2 17.95 26.0 19.6 26.0 19.7 25.8 20.0 25.0 20.9 24.7 21.2 24.8 21.3 25.2 21.35 25.35 21.6 24.85 21.4 24.7 21.4 24.6 21.3 24.7 21.2 24.6 21.3 23.2 22.4 22.95 22.55 21.95 23.15 21.05 23.6 20.65 23.8 18.75 24.5 18.75 24.35 18.65 23.85 18.6 23.75 18.05 23.05 Q17.3 22.45 16.2 22.4 L15.9 22.35 15.8 22.35 Q14.5 22.35 13.3 23.1 L12.85 23.45 12.35 23.95 Q12.05 24.3 12.05 24.75 L12.1 24.85 10.55 24.35 10.35 24.25 9.4 23.75 7.8 22.3 7.8 22.25 7.75 22.1 7.85 22.0 Q9.05 21.6 10.0 20.65 10.8 19.75 11.1 18.7 L10.9 18.35 11.0 17.5 10.95 16.65 10.35 15.05 9.85 14.3 9.85 14.25 9.85 14.1 10.1 14.4 Q10.95 15.4 11.2 16.6 L11.15 15.85 11.15 15.3 12.35 15.45 13.45 15.7 13.3 16.6 12.25 16.65 11.5 16.6 11.2 16.6 11.2 16.8 11.25 17.45 11.1 18.7 11.2 18.85 12.35 20.05 12.55 20.2 Q13.95 21.45 15.65 21.9 L15.6 21.35 15.55 20.6 15.85 20.6 16.45 20.65 16.8 20.65 16.75 21.3 16.7 22.1 16.7 22.15 17.2 22.2 17.7 22.2 19.5 22.05 19.7 21.75 19.95 21.95 21.2 21.6 21.25 21.55 22.15 21.15 23.9 19.7 24.25 19.35 25.05 18.2 25.2 17.55 25.3 16.05 25.3 14.85 M17.15 28.3 L16.7 28.15 16.6 28.15 16.3 28.0 16.35 28.0 16.6 27.95 16.65 27.95 16.9 28.05 17.15 28.3 M15.8 25.05 L15.75 25.05 15.25 25.1 14.75 25.1 14.45 25.1 Q14.45 24.55 14.85 24.2 L14.9 24.2 15.75 23.9 15.9 23.9 16.6 24.05 16.9 24.4 17.0 24.9 16.0 25.05 15.8 25.05 M14.75 28.1 L14.45 28.2 14.35 28.25 13.95 28.35 14.15 28.1 14.45 28.0 14.7 28.05 14.75 28.1 M4.6 20.1 L4.75 19.85 5.15 19.85 6.55 18.9 6.55 19.5 6.6 20.0 7.0 20.2 7.35 20.6 7.6 20.35 8.35 19.55 9.9 17.75 9.95 17.65 9.95 17.9 9.9 18.9 9.75 19.1 8.8 20.6 8.65 20.8 7.95 21.75 7.7 21.1 7.65 21.0 7.35 20.6 7.2 20.7 7.0 20.55 6.45 20.2 6.45 20.0 6.4 19.55 6.4 19.5 6.35 19.2 5.2 20.0 5.1 20.0 4.6 20.1 M10.95 11.55 Q11.05 11.45 11.1 11.45 L11.25 11.55 11.3 11.6 11.3 11.7 11.1 11.95 11.0 11.9 10.95 11.65 10.95 11.55 M10.8 22.85 L11.05 23.1 11.65 23.5 12.25 23.1 Q12.55 22.9 12.8 22.8 L12.5 22.3 12.15 21.75 11.65 22.15 10.8 22.85 M22.7 12.65 L23.5 12.65 23.2 12.8 22.8 12.95 22.9 13.1 23.05 14.6 Q23.05 15.6 22.65 16.45 L22.5 16.7 22.3 17.0 22.2 17.1 21.95 17.45 21.45 17.65 20.5 18.0 18.8 18.25 Q16.7 18.25 15.65 16.85 14.75 15.6 14.75 13.55 L14.75 13.1 14.8 13.05 14.45 12.6 14.35 12.5 14.15 12.35 14.4 12.35 14.85 12.4 14.9 12.4 15.95 12.45 15.45 13.55 15.35 14.45 15.4 15.05 Q15.6 16.15 16.45 16.85 17.45 17.6 18.9 17.6 20.9 17.6 21.95 16.5 22.7 15.7 22.7 14.75 L22.5 13.65 22.45 13.65 21.8 12.65 22.7 12.65 M13.8 14.7 L13.55 15.2 11.05 14.75 11.3 13.8 11.8 12.6 13.2 13.7 13.9 14.3 13.8 14.7 M12.8 15.7 L12.65 15.7 12.5 15.65 11.25 15.45 11.35 16.5 11.5 16.5 11.8 16.5 12.25 16.55 12.65 16.55 13.1 16.55 13.2 16.55 13.3 15.85 12.8 15.7 M11.45 13.85 L11.25 14.45 12.3 14.7 13.0 14.9 13.45 15.0 13.65 14.35 13.4 14.1 13.35 14.1 12.75 13.6 11.85 13.0 11.45 13.85 M24.35 15.95 L24.65 16.25 24.45 16.9 24.2 18.0 23.8 17.95 23.7 18.35 23.65 18.55 23.5 19.15 22.1 18.6 21.05 19.3 21.0 19.35 20.45 19.8 20.4 19.85 19.55 20.4 18.55 19.85 17.35 19.25 16.35 19.55 15.05 20.1 14.25 19.1 14.0 18.75 13.0 17.55 13.15 17.3 13.4 17.15 13.5 17.25 14.05 17.95 14.45 18.5 14.8 18.95 14.95 19.05 17.35 18.75 17.55 18.7 17.65 18.75 18.2 19.15 19.0 19.6 19.7 19.25 20.35 18.95 20.65 18.75 22.1 17.95 22.55 18.15 23.3 18.4 23.5 17.6 23.8 17.6 24.2 16.25 24.35 15.95 M16.1 20.75 L15.7 20.8 15.75 21.2 15.8 21.9 15.95 21.9 16.25 21.95 16.6 22.0 16.65 20.8 16.3 20.75 16.1 20.75 M19.6 22.05 L19.5 22.05 19.45 22.15 19.15 22.6 19.05 22.8 19.65 23.2 19.8 23.25 20.2 22.85 20.55 22.45 19.95 21.95 19.8 22.0 19.7 21.9 19.6 22.05 M17.65 26.65 L17.1 26.6 16.8 26.6 16.0 26.9 16.15 26.45 Q16.4 25.65 16.7 25.65 L16.9 25.7 17.35 26.1 17.65 26.65 M13.45 26.7 L13.7 26.15 Q13.9 25.85 14.15 25.8 L14.35 25.75 Q14.65 25.75 14.95 26.5 L15.1 26.95 14.25 26.7 13.95 26.65 13.45 26.7" fill="#6ba30f" fill-rule="evenodd" stroke="none"/>
      <path d="M11.45 8.4 Q12.3 7.55 13.3 6.9 14.1 6.3 14.9 6.2 L15.2 6.45 Q16.05 7.15 16.4 7.9 L16.45 7.95 16.4 7.95 15.45 8.0 14.75 8.7 14.7 8.8 15.0 8.75 16.05 8.9 16.5 9.0 16.7 9.75 16.85 10.95 16.0 10.9 15.4 10.85 15.0 9.65 14.65 8.85 Q14.05 9.7 14.05 10.85 L14.15 11.75 16.4 12.1 19.05 12.25 21.5 12.15 21.55 11.6 21.5 10.85 21.65 10.85 21.8 10.85 21.8 10.15 21.75 9.65 24.05 12.65 25.3 14.85 25.3 16.05 25.2 17.55 25.05 18.2 24.25 19.35 23.9 19.7 22.15 21.15 21.25 21.55 21.2 21.6 19.95 21.95 19.7 21.75 19.5 22.05 17.7 22.2 17.2 22.2 16.7 22.15 16.7 22.1 16.75 21.3 16.8 20.65 16.45 20.65 15.85 20.6 15.55 20.6 15.6 21.35 15.65 21.9 Q13.95 21.45 12.55 20.2 L12.35 20.05 11.2 18.85 11.1 18.7 11.25 17.45 11.2 16.8 11.2 16.6 11.5 16.6 12.25 16.65 13.3 16.6 13.45 15.7 12.35 15.45 11.15 15.3 11.15 15.85 11.2 16.6 Q10.95 15.4 10.1 14.4 L9.85 14.1 9.9 13.35 10.1 13.4 10.6 13.2 Q10.95 13.0 10.95 12.6 L10.85 12.1 Q10.6 11.6 10.15 11.6 L10.5 10.55 Q11.05 9.15 11.5 8.5 L11.45 8.4 M19.75 7.7 L21.35 9.15 21.45 9.3 20.75 9.2 20.45 9.15 20.6 9.4 20.7 9.55 20.85 9.95 20.95 10.35 21.0 10.7 21.45 10.75 21.5 10.85 20.9 10.9 20.75 10.05 20.6 9.4 20.2 9.1 20.1 9.05 20.2 10.25 20.1 11.1 19.8 11.1 19.1 11.15 17.6 11.1 17.35 11.05 17.15 9.85 16.45 7.95 16.6 7.95 16.9 8.6 17.15 9.25 17.5 10.85 17.75 10.85 18.35 10.9 19.15 10.9 20.05 11.0 20.05 10.85 20.05 10.2 19.9 9.1 19.85 8.9 20.1 9.05 20.05 8.7 19.8 7.8 19.75 7.7 M25.0 20.9 L25.2 21.35 24.8 21.3 24.7 21.2 25.0 20.9 M4.75 19.85 L7.55 16.05 7.75 15.8 8.0 15.4 8.35 15.4 Q9.35 15.4 9.7 16.3 L9.95 17.65 9.9 17.75 8.35 19.55 7.6 20.35 7.35 20.6 7.0 20.2 6.6 20.0 6.55 19.5 6.55 18.9 5.15 19.85 4.75 19.85 M10.95 11.55 L10.95 11.65 11.0 11.9 11.1 11.95 11.3 11.7 11.3 11.6 11.25 11.55 11.1 11.45 Q11.05 11.45 10.95 11.55 M8.05 15.75 L8.0 15.85 7.85 16.2 7.95 16.25 8.0 16.3 8.3 16.15 8.35 15.95 8.2 15.7 8.1 15.7 8.05 15.75 M15.3 9.75 L15.65 10.7 16.6 10.7 16.55 9.85 16.55 9.7 16.3 9.05 14.85 8.9 15.3 9.75 M20.7 12.5 L18.5 12.5 17.8 12.45 17.3 12.4 16.05 12.3 14.9 12.4 16.05 12.3 15.95 12.45 14.9 12.4 14.85 12.4 14.4 12.35 14.15 12.35 14.35 12.5 14.45 12.6 14.8 13.05 14.75 13.1 14.75 13.55 Q14.75 15.6 15.65 16.85 16.7 18.25 18.8 18.25 L20.5 18.0 21.45 17.65 21.95 17.45 22.2 17.1 22.3 17.0 22.5 16.7 22.65 16.45 Q23.05 15.6 23.05 14.6 L22.9 13.1 22.8 12.95 23.2 12.8 23.5 12.65 22.7 12.65 21.65 12.5 22.7 12.65 21.8 12.65 21.65 12.5 21.55 12.5 21.05 12.5 20.7 12.5 M13.8 14.7 L13.9 14.3 13.2 13.7 11.8 12.6 11.3 13.8 11.05 14.75 13.55 15.2 13.8 14.7 M13.15 17.3 L13.0 17.55 14.0 18.75 14.25 19.1 15.05 20.1 16.35 19.55 17.35 19.25 18.55 19.85 19.55 20.4 20.4 19.85 20.45 19.8 21.0 19.35 21.05 19.3 22.1 18.6 23.5 19.15 23.65 18.55 23.7 18.35 23.8 17.95 24.2 18.0 24.45 16.9 24.65 16.25 24.35 15.95 24.2 16.25 23.8 17.6 23.5 17.6 23.3 18.4 22.55 18.15 22.1 17.95 20.65 18.75 20.35 18.95 19.7 19.25 19.0 19.6 18.2 19.15 17.65 18.75 17.55 18.7 17.35 18.75 14.95 19.05 14.8 18.95 14.45 18.5 14.05 17.95 13.5 17.25 13.4 17.15 13.15 17.3 M12.6 18.5 L12.95 17.7 13.0 17.55 12.95 17.7 12.6 18.5 M24.9 16.45 L24.65 16.25 24.9 16.45" fill="#a4ce15" fill-rule="evenodd" stroke="none"/>
      <path d="M21.05 23.6 L20.1 25.3 18.95 27.6 18.5 27.0 Q18.15 26.7 17.65 26.65 L17.35 26.1 16.9 25.7 16.7 25.65 Q16.4 25.65 16.15 26.45 L16.0 26.9 16.8 26.6 17.1 26.6 17.65 26.65 17.65 26.75 17.15 26.7 17.1 26.7 16.75 26.75 Q16.2 26.8 15.95 27.25 L15.95 27.2 15.9 26.95 15.8 25.5 15.8 25.05 16.0 25.05 17.0 24.9 16.9 24.4 16.6 24.05 15.9 23.9 15.75 23.9 14.9 24.2 14.85 24.2 Q14.45 24.55 14.45 25.1 L14.75 25.1 15.25 25.1 15.25 25.55 15.15 27.0 15.15 27.25 15.1 27.35 Q14.9 26.9 14.3 26.8 L13.95 26.8 13.9 26.8 13.4 26.85 13.45 26.7 13.95 26.65 14.25 26.7 15.1 26.95 14.95 26.5 Q14.65 25.75 14.35 25.75 L14.15 25.8 Q13.9 25.85 13.7 26.15 L13.45 26.7 Q12.95 26.8 12.6 27.05 L12.15 27.7 10.95 25.45 10.35 24.25 10.55 24.35 12.1 24.85 12.05 24.75 Q12.05 24.3 12.35 23.95 L12.85 23.45 13.3 23.1 Q14.5 22.35 15.8 22.35 L15.9 22.35 16.2 22.4 Q17.3 22.45 18.05 23.05 L18.6 23.75 18.65 23.85 18.75 24.35 18.75 24.5 18.65 24.55 18.75 24.5 20.65 23.8 21.05 23.6 M17.35 28.35 L17.15 28.3 16.9 28.05 16.65 27.95 16.6 27.95 16.35 28.0 16.3 28.0 16.1 27.9 Q16.2 27.65 16.5 27.65 L16.65 27.7 16.85 27.75 16.95 27.8 Q17.25 27.95 17.35 28.35 M15.0 28.0 L14.75 28.1 14.7 28.05 14.45 28.0 14.15 28.1 13.95 28.35 13.75 28.4 Q13.8 28.05 14.1 27.9 L14.25 27.8 14.4 27.75 14.55 27.75 Q14.85 27.75 15.0 27.95 L15.0 28.0 M8.2 13.8 L8.2 13.75 8.4 13.2 Q9.05 13.3 9.85 14.1 L9.85 14.25 9.85 14.3 Q9.25 13.7 8.6 13.7 L8.2 13.8 M10.9 18.35 L11.1 18.7 Q10.8 19.75 10.0 20.65 9.05 21.6 7.85 22.0 L7.9 21.9 7.95 21.75 8.65 20.8 9.6 20.2 Q10.65 19.45 10.9 18.35 M10.8 22.85 L11.65 22.15 12.15 21.75 12.5 22.3 12.8 22.8 Q12.55 22.9 12.25 23.1 L11.65 23.5 11.05 23.1 10.8 22.85 M11.75 22.15 L11.6 22.3 11.1 22.75 11.8 23.3 12.15 23.1 12.4 22.85 12.55 22.75 12.25 22.35 11.95 22.0 11.75 22.15 M18.65 24.55 L18.4 23.85 18.15 23.5 Q17.4 22.7 15.85 22.65 L15.7 22.65 Q14.25 22.65 13.25 23.35 L12.6 23.95 12.25 24.9 14.3 25.1 14.25 24.9 14.25 24.75 14.65 24.15 14.8 24.05 Q15.25 23.75 15.75 23.75 L15.85 23.75 16.1 23.75 Q16.55 23.85 16.8 24.05 L16.95 24.15 17.2 24.8 17.2 24.85 17.4 24.8 18.65 24.55 M12.25 24.9 L12.1 24.85 12.25 24.9 M19.6 22.05 L19.45 22.3 19.25 22.6 19.2 22.65 19.5 22.85 19.55 22.95 19.75 23.1 20.05 22.8 20.05 22.75 20.35 22.45 20.25 22.35 19.8 22.0 19.95 21.95 20.55 22.45 20.2 22.85 19.8 23.25 19.65 23.2 19.05 22.8 19.15 22.6 19.45 22.15 19.5 22.05 19.6 22.05 M17.0 24.9 L17.2 24.85 17.0 24.9 M14.3 25.1 L14.4 25.1 14.45 25.1 14.4 25.1 14.3 25.1" fill="#468307" fill-rule="evenodd" stroke="none"/>
      <path d="M25.35 21.6 L25.8 22.45 25.55 22.4 24.4 22.45 24.3 22.45 24.0 22.6 23.8 22.7 23.75 22.75 23.7 22.75 23.2 22.4 24.6 21.3 24.7 21.4 24.85 21.4 25.35 21.6 M4.05 20.8 L4.6 20.1 5.1 20.0 5.2 20.0 6.35 19.2 6.4 19.5 6.4 19.55 6.45 20.0 6.45 20.2 7.0 20.55 7.2 20.7 7.1 20.8 6.0 21.55 5.9 21.45 5.45 21.15 5.4 21.1 Q4.8 20.8 4.3 20.8 L4.05 20.8 M9.85 14.3 L10.35 15.05 10.95 16.65 11.0 17.5 10.9 18.35 Q9.85 16.6 9.85 14.3 M20.7 9.55 Q21.25 10.1 21.45 10.75 L21.0 10.7 20.95 10.35 20.85 9.95 20.7 9.55 M14.95 1.7 L16.6 1.65 16.75 1.65 16.6 3.25 16.55 3.95 16.5 5.0 16.25 5.0 15.75 4.15 15.4 3.35 14.95 1.7 M17.7 5.35 Q17.7 4.6 17.85 3.95 L17.95 3.7 18.0 3.6 18.1 3.65 18.8 4.1 18.8 4.2 18.65 4.5 18.3 5.45 17.7 5.35 M13.5 4.35 L14.05 4.05 14.35 4.75 14.4 4.8 14.6 5.3 14.25 5.5 13.85 5.0 13.85 4.95 13.5 4.35 M15.3 9.75 L14.85 8.9 16.3 9.05 16.55 9.7 16.55 9.85 16.6 10.7 15.65 10.7 15.3 9.75 M16.6 7.95 Q18.0 7.95 19.45 8.7 L19.85 8.9 19.9 9.1 20.05 10.2 20.05 10.85 20.05 11.0 19.15 10.9 18.35 10.9 17.75 10.85 17.5 10.85 17.15 9.25 16.9 8.6 16.6 7.95 M11.45 13.85 L11.85 13.0 12.75 13.6 13.35 14.1 13.4 14.1 13.65 14.35 13.45 15.0 13.0 14.9 12.3 14.7 11.25 14.45 11.45 13.85 M12.8 15.7 L13.3 15.85 13.2 16.55 13.1 16.55 12.65 16.55 12.25 16.55 11.8 16.5 11.5 16.5 11.35 16.5 11.25 15.45 12.5 15.65 12.65 15.7 12.8 15.7 M16.1 20.75 L16.3 20.75 16.65 20.8 16.6 22.0 16.25 21.95 15.95 21.9 15.8 21.9 15.75 21.2 15.7 20.8 16.1 20.75 M19.6 22.05 L19.7 21.9 19.8 22.0 19.6 22.05" fill="#f3dc1c" fill-rule="evenodd" stroke="none"/>
      <path d="M15.05 6.2 L15.05 6.15 Q16.55 6.0 18.25 6.8 18.85 7.05 19.4 7.45 L19.45 7.55 19.85 8.9 19.45 8.7 Q18.0 7.95 16.6 7.95 L16.45 7.6 Q15.85 6.65 15.05 6.2 M22.45 24.1 L22.4 24.05 22.3 23.9 21.95 23.15 22.95 22.55 23.2 22.4 23.7 22.75 23.75 22.75 23.25 23.15 22.45 24.1 M17.7 28.35 L17.35 28.35 Q17.25 27.95 16.95 27.8 L16.85 27.75 16.65 27.7 16.5 27.65 Q16.2 27.65 16.1 27.9 L16.05 27.9 15.95 27.25 Q16.2 26.8 16.75 26.75 L17.1 26.7 17.15 26.7 17.65 26.75 17.75 27.65 17.7 28.35 M15.1 27.35 L15.0 28.0 15.0 27.95 Q14.85 27.75 14.55 27.75 L14.4 27.75 14.25 27.8 14.1 27.9 Q13.8 28.05 13.75 28.4 L13.35 28.45 13.35 27.75 13.4 26.85 13.9 26.8 13.95 26.8 14.3 26.8 Q14.9 26.9 15.1 27.35 M7.75 22.1 L7.2 22.85 7.1 23.0 7.05 23.05 6.95 23.05 6.75 23.15 6.65 22.45 6.1 21.65 6.0 21.55 7.1 20.8 7.2 20.7 7.5 21.1 7.7 21.4 7.9 21.9 7.85 22.0 7.75 22.1 M7.75 15.8 L7.8 15.2 7.85 14.85 8.2 13.8 8.6 13.7 Q9.25 13.7 9.85 14.3 9.85 16.6 10.9 18.35 10.65 19.45 9.6 20.2 L8.65 20.8 8.8 20.6 9.75 19.1 9.9 18.9 9.95 17.9 9.95 17.65 9.7 16.3 Q9.35 15.4 8.35 15.4 L8.0 15.4 7.75 15.8 M20.7 9.55 L20.6 9.35 20.75 9.35 21.55 9.45 21.6 9.9 21.7 10.35 21.75 10.8 21.55 10.75 21.45 10.75 Q21.25 10.1 20.7 9.55 M16.25 5.0 L16.1 4.95 15.25 4.85 15.25 4.75 15.15 4.35 15.0 3.6 14.65 1.7 14.9 1.7 14.95 1.7 15.4 3.35 15.75 4.15 16.25 5.0 M18.0 3.6 L17.95 3.7 17.85 3.95 Q17.7 4.6 17.7 5.35 L17.45 5.3 17.5 4.2 17.55 3.9 17.65 3.4 18.0 3.6 M14.25 5.5 L13.75 5.75 13.4 5.25 13.35 5.15 13.05 4.65 13.5 4.35 13.85 4.95 13.85 5.0 14.25 5.5 M12.25 24.9 L12.6 23.95 13.25 23.35 Q14.25 22.65 15.7 22.65 L15.85 22.65 Q17.4 22.7 18.15 23.5 L18.4 23.85 18.65 24.55 17.4 24.8 17.2 24.85 17.2 24.8 16.95 24.15 16.8 24.05 Q16.55 23.85 16.1 23.75 L15.85 23.75 15.75 23.75 Q15.25 23.75 14.8 24.05 L14.65 24.15 14.25 24.75 14.25 24.9 14.3 25.1 12.25 24.9 M11.75 22.15 L11.95 22.0 12.25 22.35 12.55 22.75 12.4 22.85 12.15 23.1 11.8 23.3 11.1 22.75 11.6 22.3 11.75 22.15 M19.8 22.0 L20.25 22.35 20.35 22.45 20.05 22.75 20.05 22.8 19.75 23.1 19.55 22.95 19.5 22.85 19.2 22.65 19.25 22.6 19.45 22.3 19.6 22.05 19.8 22.0" fill="#d2bd0d" fill-rule="evenodd" stroke="none"/>
      <path d="M8.05 15.75 L8.1 15.7 8.2 15.7 8.35 15.95 8.3 16.15 8.0 16.3 7.95 16.25 7.85 16.2 8.0 15.85 8.05 15.75" fill="#bfec27" fill-rule="evenodd" stroke="none"/>
      <path d="M18.8 27.9 L18.65 28.3 17.9 28.35 17.7 28.35 17.75 27.65 17.65 26.75 18.25 27.05 Q18.75 27.4 18.8 27.9 M13.35 28.45 L13.15 28.45 12.4 28.35 12.25 28.0 Q12.35 27.45 12.8 27.1 L13.4 26.85 13.35 27.75 13.35 28.45 M6.75 23.15 L5.95 23.25 5.55 23.2 Q4.8 23.05 4.35 22.45 L4.2 22.1 3.9 21.05 4.0 20.9 4.05 20.8 4.3 20.8 Q4.8 20.8 5.4 21.1 L5.45 21.15 5.9 21.45 6.0 21.55 6.1 21.65 6.65 22.45 6.75 23.15" fill="#c4a307" fill-rule="evenodd" stroke="none"/>
      <path d="M7.95 21.75 L7.9 21.9 7.7 21.4 7.5 21.1 7.2 20.7 7.35 20.6 7.65 21.0 7.7 21.1 7.95 21.75" fill="#3f8307" fill-rule="evenodd" stroke="none"/>
      <path d="M21.5 10.85 L21.55 11.6 21.5 12.15 19.05 12.25 16.4 12.1 14.15 11.75 14.05 10.85 Q14.05 9.7 14.65 8.85 L15.0 9.65 15.4 10.85 16.0 10.9 16.85 10.95 16.7 9.75 16.5 9.0 16.05 8.9 15.0 8.75 14.7 8.8 14.75 8.7 15.45 8.0 16.4 7.95 16.45 7.95 17.15 9.85 17.35 11.05 17.6 11.1 19.1 11.15 19.8 11.1 20.1 11.1 20.2 10.25 20.1 9.05 20.2 9.1 20.6 9.4 20.75 10.05 20.9 10.9 21.5 10.85 M16.2 8.75 L16.35 8.75 16.5 8.65 16.5 8.55 16.15 8.25 16.05 8.3 16.0 8.3 15.85 8.5 15.95 8.7 16.2 8.75" fill="#b9e525" fill-rule="evenodd" stroke="none"/>
      <path d="M16.2 8.75 L15.95 8.7 15.85 8.5 16.0 8.3 16.05 8.3 16.15 8.25 16.5 8.55 16.5 8.65 16.35 8.75 16.2 8.75" fill="#f5ff2a" fill-rule="evenodd" stroke="none"/>
      <path d="M17.45 12.95 L17.05 13.0 17.1 12.85 17.3 12.45 17.3 12.4 17.8 12.45 17.6 12.85 17.55 12.85 17.45 12.95 M21.4 13.3 L21.3 13.3 20.95 13.2 20.75 12.6 20.7 12.5 21.05 12.5 21.15 12.6 21.4 13.3" fill="#02214a" fill-rule="evenodd" stroke="none"/>
      <path d="M21.05 12.5 L21.55 12.5 21.65 12.5 21.8 12.65 22.45 13.65 21.4 13.3 21.15 12.6 21.05 12.5 M16.05 12.3 L17.3 12.4 17.3 12.45 17.1 12.85 17.05 13.0 16.95 13.0 Q16.05 13.1 15.65 13.4 L15.45 13.55 15.95 12.45 16.05 12.3" fill="#8b9eb8" fill-rule="evenodd" stroke="none"/>
      <path d="M20.95 13.2 L18.2 12.9 17.9 12.9 17.65 12.85 17.6 12.85 17.8 12.45 18.5 12.5 20.7 12.5 20.75 12.6 20.95 13.2" fill="#01060e" fill-rule="evenodd" stroke="none"/>
      <path d="M20.95 13.2 L20.95 13.55 20.95 13.7 Q20.9 14.25 20.5 14.6 20.05 15.05 19.3 15.05 18.5 15.05 18.0 14.65 L17.7 14.35 17.6 14.1 17.75 14.1 18.15 13.95 18.2 13.9 18.4 13.55 18.1 13.0 17.9 12.9 18.2 12.9 20.95 13.2 M18.45 14.0 L18.3 13.95 18.25 13.95 18.15 14.2 18.15 14.25 18.2 14.4 18.3 14.45 18.55 14.2 18.55 14.15 18.45 14.0" fill="#020f20" fill-rule="evenodd" stroke="none"/>
      <path d="M17.6 14.1 L17.7 14.35 18.0 14.65 Q18.5 15.05 19.3 15.05 20.05 15.05 20.5 14.6 20.9 14.25 20.95 13.7 L20.95 13.55 20.95 13.2 21.3 13.3 21.4 13.3 21.5 13.7 21.5 13.95 Q21.5 14.65 20.95 15.3 20.3 16.05 19.2 16.05 18.15 16.05 17.5 15.5 17.05 15.1 16.9 14.55 L16.85 13.95 17.05 13.0 17.45 12.95 17.4 13.0 Q17.25 13.2 17.25 13.6 L17.4 13.95 17.6 14.1" fill="#093165" fill-rule="evenodd" stroke="none"/>
      <path d="M17.9 12.9 L18.1 13.0 18.4 13.55 18.2 13.9 18.15 13.95 17.75 14.1 17.6 14.1 17.4 13.95 17.25 13.6 Q17.25 13.2 17.4 13.0 L17.45 12.95 17.55 12.85 17.6 12.85 17.65 12.85 17.9 12.9 M18.45 14.0 L18.55 14.15 18.55 14.2 18.3 14.45 18.2 14.4 18.15 14.25 18.15 14.2 18.25 13.95 18.3 13.95 18.45 14.0" fill="#f3f8ff" fill-rule="evenodd" stroke="none"/>
      <path d="M17.05 13.0 L16.85 13.95 16.9 14.55 Q17.05 15.1 17.5 15.5 18.15 16.05 19.2 16.05 20.3 16.05 20.95 15.3 21.5 14.65 21.5 13.95 L21.5 13.7 21.4 13.3 22.45 13.65 22.5 13.65 22.7 14.75 Q22.7 15.7 21.95 16.5 20.9 17.6 18.9 17.6 17.45 17.6 16.45 16.85 15.6 16.15 15.4 15.05 L15.35 14.45 15.45 13.55 15.65 13.4 Q16.05 13.1 16.95 13.0 L17.05 13.0" fill="#d1e4e2" fill-rule="evenodd" stroke="none"/>
      <path d="M25.8 22.45 L25.85 22.6 25.4 23.65 25.15 23.95 Q24.65 24.5 23.9 24.5 L23.5 24.45 22.55 24.15 22.45 24.1 23.25 23.15 23.75 22.75 23.8 22.7 24.0 22.6 24.3 22.45 24.4 22.45 25.55 22.4 25.8 22.45" fill="#bf9407" fill-rule="evenodd" stroke="none"/>
      <path d="M18.95 27.6 L18.8 27.9 Q18.75 27.4 18.25 27.05 L17.65 26.75 17.65 26.65 Q18.15 26.7 18.5 27.0 L18.95 27.6 M12.25 28.0 L12.15 27.7 12.6 27.05 Q12.95 26.8 13.45 26.7 L13.4 26.85 12.8 27.1 Q12.35 27.45 12.25 28.0" fill="#386b03" fill-rule="evenodd" stroke="none"/>
      <path d="M8.4 13.2 L8.9 12.0 10.65 9.4 11.45 8.4 Q12.3 7.55 13.3 6.9 14.1 6.3 14.9 6.2 L15.05 6.2 15.05 6.15 Q16.55 6.0 18.25 6.8 18.85 7.05 19.4 7.45 L19.75 7.7 21.35 9.15 21.45 9.3 21.5 9.35 21.6 9.45 21.75 9.65 24.05 12.65 25.3 14.85 25.8 16.15 26.15 17.1 26.2 17.95 26.0 19.6 26.0 19.7 25.8 20.0 25.0 20.9 25.2 21.35 25.35 21.6 25.8 22.45 25.85 22.6 25.4 23.65 25.15 23.95 Q24.65 24.5 23.9 24.5 L23.5 24.45 22.55 24.15 22.45 24.1 22.4 24.05 22.3 23.9 21.95 23.15 21.05 23.6 20.1 25.3 18.95 27.6 18.8 27.9 18.65 28.3 17.9 28.35 17.7 28.35 17.35 28.35 17.15 28.3 16.7 28.15 16.6 28.15 16.3 28.0 16.1 27.9 16.05 27.9 15.95 27.25 15.95 27.2 15.9 26.95 15.8 25.5 15.8 25.05 15.75 25.05 15.25 25.1 15.25 25.55 15.15 27.0 15.15 27.25 15.1 27.35 15.0 28.0 14.75 28.1 14.45 28.2 14.35 28.25 13.95 28.35 13.75 28.4 13.35 28.45 13.15 28.45 12.4 28.35 12.25 28.0 12.15 27.7 10.95 25.45 10.35 24.25 9.4 23.75 7.8 22.3 7.8 22.25 7.75 22.1 7.2 22.85 7.1 23.0 7.05 23.05 6.95 23.05 6.75 23.15 5.95 23.25 5.55 23.2 Q4.8 23.05 4.35 22.45 L4.2 22.1 3.9 21.05 4.0 20.9 4.05 20.8 4.6 20.1 4.75 19.85 7.55 16.05 7.75 15.8 7.8 15.2 7.85 14.85 8.2 13.8 8.2 13.75 8.4 13.2 M7.85 22.0 L7.75 22.1 M8.65 20.8 L7.95 21.75 7.9 21.9 7.85 22.0 M7.75 15.8 L8.0 15.4 8.35 15.4 Q9.35 15.4 9.7 16.3 L9.95 17.65 9.95 17.9 9.9 18.9 9.75 19.1 8.8 20.6 8.65 20.8 M12.1 24.85 L10.55 24.35 10.35 24.25 M14.95 1.7 L16.6 1.65 16.75 1.65 16.6 3.25 16.55 3.95 16.5 5.0 16.25 5.0 16.1 4.95 15.25 4.85 15.25 4.75 15.15 4.35 15.0 3.6 14.65 1.7 14.9 1.7 14.95 1.7 M17.7 5.35 L18.3 5.45 18.65 4.5 18.8 4.2 18.8 4.1 18.1 3.65 18.0 3.6 17.65 3.4 17.55 3.9 17.5 4.2 17.45 5.3 17.7 5.35 M14.25 5.5 L13.75 5.75 13.4 5.25 13.35 5.15 13.05 4.65 13.5 4.35 14.05 4.05 14.35 4.75 14.4 4.8 14.6 5.3 14.25 5.5 M20.7 12.5 L18.5 12.5 17.8 12.45 17.3 12.4 16.05 12.3 15.95 12.45 15.45 13.55 15.35 14.45 15.4 15.05 Q15.6 16.15 16.45 16.85 17.45 17.6 18.9 17.6 20.9 17.6 21.95 16.5 22.7 15.7 22.7 14.75 L22.5 13.65 22.45 13.65 21.8 12.65 21.65 12.5 22.7 12.65 M20.7 12.5 L21.05 12.5 21.55 12.5 21.65 12.5 M14.9 12.4 L16.05 12.3 M13.15 17.3 L13.0 17.55 14.0 18.75 14.25 19.1 15.05 20.1 16.35 19.55 17.35 19.25 18.55 19.85 19.55 20.4 20.4 19.85 20.45 19.8 21.0 19.35 21.05 19.3 22.1 18.6 23.5 19.15 23.65 18.55 23.7 18.35 23.8 17.95 24.2 18.0 24.45 16.9 24.65 16.25 24.35 15.95 M13.0 17.55 L12.95 17.7 12.6 18.5 M12.25 24.9 L14.3 25.1 14.4 25.1 14.45 25.1 14.75 25.1 15.25 25.1 M17.2 24.85 L17.4 24.8 18.65 24.55 18.75 24.5 20.65 23.8 21.05 23.6 M12.1 24.85 L12.25 24.9 M24.65 16.25 L24.9 16.45 M25.0 20.9 L24.7 21.2 24.6 21.3 23.2 22.4 22.95 22.55 21.95 23.15 M17.2 24.85 L17.0 24.9 16.0 25.05 15.8 25.05" fill="none" stroke="#2f460a" stroke-linecap="round" stroke-linejoin="round" stroke-width="0.5"/>
      <path d="M17.05 13.0 L16.85 13.95 16.9 14.55 Q17.05 15.1 17.5 15.5 18.15 16.05 19.2 16.05 20.3 16.05 20.95 15.3 21.5 14.65 21.5 13.95 L21.5 13.7 21.4 13.3 21.15 12.6 21.05 12.5 M17.3 12.4 L17.3 12.45 17.1 12.85 17.05 13.0" fill="none" stroke="#030b15" stroke-linecap="round" stroke-linejoin="round" stroke-width="0.5"/>
      <path d="M24.95 4.3 L25.35 3.95 25.6 3.75 25.35 3.6 25.2 3.25 Q25.2 2.8 25.9 2.85 26.55 2.95 26.55 3.35 L26.35 3.7 26.0 3.9 25.1 4.75 24.8 5.0 24.5 5.25 23.75 5.8 23.4 6.15 23.05 6.5 22.85 6.85 23.85 7.5 24.05 7.6 24.15 7.6 24.85 7.8 25.8 7.95 25.95 7.65 26.2 7.5 26.95 7.5 27.1 7.95 26.3 8.6 26.2 8.65 25.15 9.55 24.95 9.75 24.2 10.9 24.05 11.15 23.9 11.5 23.85 11.55 23.75 11.7 Q24.15 11.85 24.15 12.25 24.15 13.1 23.75 13.1 L23.3 12.8 23.3 12.4 23.4 11.75 23.55 11.4 23.7 11.0 24.05 10.35 24.7 9.5 24.95 9.15 25.75 8.4 25.8 8.35 24.6 8.1 24.4 8.05 24.1 7.95 23.85 7.9 23.05 7.6 22.4 7.15 22.2 7.0 21.9 6.55 21.95 5.7 22.35 5.65 Q22.95 5.65 22.8 6.0 L23.05 5.85 23.55 5.55 23.7 5.35 24.4 4.65 24.6 4.55 24.95 4.3" fill="#0033ff" fill-rule="evenodd" stroke="none"/>
      <path d="M24.4 6.8 L24.5 6.85 24.65 6.8 Q25.15 6.65 25.15 7.25 L24.9 7.8 24.85 7.8 24.15 7.6 24.1 7.55 24.1 7.4 24.1 7.35 24.15 7.15 23.75 6.55 23.4 6.15 23.75 5.8 24.1 6.2 24.4 6.8 M24.35 11.25 L24.95 11.45 25.0 11.3 25.8 11.0 26.15 11.95 26.0 12.3 25.45 12.55 25.2 12.5 25.05 12.0 24.95 11.75 23.9 11.5 24.05 11.15 24.35 11.25 M23.15 11.2 L22.75 11.0 21.75 10.1 21.5 10.1 21.3 9.7 21.35 9.25 22.35 9.05 22.5 9.15 Q22.95 9.1 23.35 8.7 L23.65 8.4 24.1 7.95 24.4 8.05 24.6 8.1 24.05 8.7 23.95 8.8 23.75 9.0 Q23.1 9.55 22.5 9.55 L22.45 9.7 22.05 10.1 23.05 10.6 23.7 11.0 23.55 11.4 23.15 11.2 M23.05 5.85 L21.85 4.7 21.4 4.75 Q20.85 4.75 20.75 4.45 L20.7 4.1 Q20.7 3.5 21.05 3.4 L21.55 3.4 22.05 4.35 22.0 4.55 23.45 5.45 23.55 5.55 23.05 5.85" fill="#999999" fill-rule="evenodd" stroke="none"/>
      <path d="M25.1 4.75 L25.15 5.25 24.4 6.8 24.1 6.2 24.8 5.25 24.8 5.0 25.1 4.75 M26.3 8.6 Q26.6 8.7 26.6 9.15 L26.45 9.7 26.0 10.1 24.5 11.15 24.35 11.25 24.05 11.15 24.2 10.9 25.25 10.05 25.35 9.95 25.25 9.8 25.25 9.55 25.15 9.55 26.2 8.65 26.3 8.6 M23.4 11.75 L22.1 12.2 21.7 12.8 21.2 12.8 20.7 12.5 20.65 12.1 Q20.65 11.25 21.2 10.9 21.85 10.8 22.05 11.25 L22.1 11.55 22.45 11.4 23.15 11.2 23.55 11.4 23.4 11.75 M23.35 8.7 L23.2 8.55 22.45 7.9 22.35 7.4 22.4 7.15 23.05 7.6 23.85 7.9 23.6 8.3 23.65 8.4 23.35 8.7 M24.6 4.55 L24.55 4.5 24.0 4.1 23.95 4.1 23.35 4.6 Q22.45 4.6 22.45 3.8 22.45 2.65 23.35 2.6 24.2 2.6 24.2 3.55 L24.2 3.65 Q24.65 3.8 24.9 4.3 L24.95 4.3 24.6 4.55 M24.15 7.15 L24.1 7.2 24.1 7.35 24.1 7.4 24.05 7.6 23.85 7.5 22.85 6.85 23.05 6.5 23.35 6.5 23.65 6.7 23.75 6.55 24.15 7.15 M23.75 9.0 L23.95 8.8 24.05 8.7 24.55 9.1 24.95 9.15 24.7 9.5 23.75 9.0" fill="#ff0000" fill-rule="evenodd" stroke="none"/>
    </g>
  </defs>
</svg>
