<?xml version="1.0" encoding="UTF-8" standalone="no"?>
<svg xmlns:ffdec="https://www.free-decompiler.com/flash" xmlns:xlink="http://www.w3.org/1999/xlink" ffdec:objectType="frame" height="30.0px" width="30.0px" xmlns="http://www.w3.org/2000/svg">
  <g transform="matrix(1.0, 0.0, 0.0, 1.0, 0.0, 0.0)">
    <use ffdec:characterId="1" height="30.0" transform="matrix(1.0, 0.0, 0.0, 1.0, 0.0, 0.0)" width="30.0" xlink:href="#shape0"/>
  </g>
  <defs>
    <g id="shape0" transform="matrix(1.0, 0.0, 0.0, 1.0, 0.0, 0.0)">
      <path d="M0.0 0.0 L30.0 0.0 30.0 30.0 0.0 30.0 0.0 0.0" fill="#33cc66" fill-opacity="0.0" fill-rule="evenodd" stroke="none"/>
      <path d="M26.7 0.0 Q30.0 0.0 30.0 3.3 L30.0 26.7 Q30.0 28.15 29.4 28.95 28.55 30.0 26.7 30.0 L3.3 30.0 Q0.0 30.0 0.0 26.7 L0.0 3.3 Q0.0 0.0 3.3 0.0 L26.7 0.0" fill="#a56db4" fill-rule="evenodd" stroke="none"/>
      <path d="M21.45 6.8 L21.45 6.6 Q21.45 4.6 20.75 3.4 19.8 2.1 18.1 2.1 15.8 2.1 14.85 3.85 13.9 2.1 11.6 2.1 L11.35 2.1 11.2 2.1 10.2 2.35 10.2 2.3 Q9.4 2.7 8.95 3.4 L8.8 3.7 8.4 4.7 8.4 4.8 8.35 4.85 8.3 5.1 8.2 6.6 8.2 6.65 M21.3 26.05 Q19.6 23.75 17.6 25.4 15.6 26.9 15.1 27.9 M14.9 27.95 Q14.5 26.95 12.45 25.45 10.5 23.8 8.75 26.1" fill="none" stroke="#ffffff" stroke-linecap="round" stroke-linejoin="round" stroke-width="3.0"/>
      <path d="M8.2 6.65 L9.05 7.25 9.35 8.5 9.1 9.7 8.85 10.3 Q8.0 12.35 9.0 13.9 L10.1 14.25 10.35 13.8 10.4 13.45 10.45 13.2 10.45 13.0 10.55 12.3 10.75 11.85 11.05 11.35 11.5 10.85 11.65 10.75 12.0 10.5 12.1 10.45 13.3 10.3 13.65 10.45 13.95 10.6 13.9 10.95 13.8 11.4 13.6 11.95 13.6 12.05 13.45 13.05 13.35 13.7 13.35 13.9 13.45 13.95 13.55 14.1 13.95 15.0 14.35 16.15 14.5 16.55 14.35 16.75 14.15 17.4 13.85 18.35 14.35 19.7 15.05 23.35 Q15.25 21.55 15.75 19.6 L16.25 18.25 15.95 17.35 15.7 16.75 15.6 16.5 15.65 16.1 16.1 14.95 16.55 14.05 16.55 13.9 16.7 13.85 16.7 13.65 16.6 12.8 16.45 11.95 16.45 11.9 16.2 11.0 16.2 10.95 16.15 10.55 16.4 10.45 16.8 10.3 17.1 10.25 18.05 10.5 18.3 10.65 18.6 10.8 19.0 11.25 19.3 11.75 19.5 12.3 19.65 12.9 19.6 13.1 19.7 13.35 19.7 13.8 19.95 14.2 21.0 13.85 Q22.1 12.3 21.2 10.25 L20.9 9.5 Q20.3 7.55 21.45 6.8 22.15 6.35 23.5 6.35 L23.9 8.7 24.0 8.85 24.05 9.15 24.45 8.35 Q25.55 7.1 26.8 8.2 L26.75 11.7 27.25 11.65 27.65 11.7 28.15 13.4 28.35 14.9 28.15 15.1 26.75 16.15 26.9 16.2 26.35 17.4 26.05 18.0 25.2 20.2 25.1 20.45 24.15 22.35 24.05 22.55 23.35 23.6 23.25 23.65 21.3 26.05 M15.1 27.9 L15.05 26.65 14.9 27.95 M8.75 26.1 L6.8 23.75 6.75 23.65 6.05 22.65 5.95 22.4 5.0 20.55 4.85 20.3 4.05 18.1 3.75 17.4 3.2 16.25 3.25 16.2 1.95 15.15 1.9 15.15 1.65 15.0 1.9 13.45 2.4 11.8 2.85 11.7 3.35 11.8 3.25 8.2 Q4.5 7.15 5.55 8.4 L6.05 9.2 6.1 8.85 6.15 8.8 6.6 6.4 8.2 6.65 M24.05 9.15 L24.25 10.1 24.3 10.3 24.3 10.4 24.55 10.75 24.6 10.8 24.75 10.95 25.05 11.6 25.1 11.85 25.05 12.6 24.9 13.4 24.8 14.15 M10.1 14.25 L9.9 14.4 9.75 14.6 9.7 14.65 9.45 15.05 9.1 15.3 9.05 15.4 7.95 16.45 M9.7 14.65 L9.0 13.9 M13.85 18.35 L13.7 18.7 13.55 19.0 M15.05 26.65 L15.0 26.5 15.0 23.8 15.0 23.65 15.05 23.35 M16.25 18.25 L16.35 18.6 16.5 19.0 M26.15 15.25 L27.0 13.2 26.95 12.9 26.8 12.55 26.75 12.4 26.75 12.25 26.7 12.1 26.75 11.7 M26.35 16.45 L26.75 16.15 M19.95 14.2 L20.1 14.35 20.35 14.6 20.4 14.6 21.0 13.85 M20.4 14.6 L20.6 15.0 20.95 15.3 21.05 15.35 22.1 16.35 M6.05 9.2 L5.85 10.2 5.8 10.4 5.75 10.5 5.5 10.75 5.45 10.9 5.35 11.05 4.95 11.7 5.0 11.9 5.05 12.6 5.15 13.5 5.25 14.2 M3.35 11.8 L3.35 12.1 3.3 12.3 3.25 12.4 3.2 12.55 3.1 13.0 3.05 13.2 3.25 13.8 3.95 15.25 M3.25 16.2 L3.65 16.55" fill="none" stroke="#ffffff" stroke-linecap="round" stroke-linejoin="round" stroke-width="3.0"/>
      <path d="M20.0 3.9 Q19.4 2.9 18.1 2.9 15.8 2.9 15.25 5.2 L15.1 5.45 14.85 5.55 14.6 5.45 14.45 5.2 14.2 4.55 Q13.55 2.9 11.6 2.9 L11.35 2.9 11.2 2.95 Q10.85 2.95 10.6 3.15 10.0 3.35 9.65 3.9 L9.55 4.1 9.5 4.15 9.25 5.0 9.2 5.1 9.2 5.2 9.0 6.6 Q9.0 8.85 10.7 10.2 L11.6 10.7 13.3 11.85 14.85 12.95 16.45 11.85 19.3 10.1 Q20.65 9.25 20.65 6.6 20.65 4.85 20.0 3.9 M18.1 2.1 Q19.8 2.1 20.75 3.4 21.45 4.6 21.45 6.6 21.45 9.85 19.65 10.85 L16.9 12.6 Q15.7 13.35 15.1 13.85 L14.85 14.0 14.6 13.85 12.8 12.6 11.15 11.45 10.2 10.85 Q8.2 9.3 8.2 6.6 L8.3 5.1 8.35 4.85 8.4 4.8 8.4 4.7 8.8 3.7 8.95 3.4 Q9.4 2.7 10.2 2.3 L10.2 2.35 11.2 2.1 11.35 2.1 11.6 2.1 Q13.9 2.1 14.85 3.85 15.8 2.1 18.1 2.1" fill="#780c16" fill-rule="evenodd" stroke="none"/>
      <path d="M20.0 3.9 Q20.65 4.85 20.65 6.6 20.65 9.25 19.3 10.1 L16.45 11.85 14.85 12.95 13.3 11.85 11.6 10.7 10.7 10.2 Q9.0 8.85 9.0 6.6 L9.2 5.2 9.2 5.1 9.25 5.0 9.5 4.15 9.55 4.1 9.65 3.9 Q10.0 3.35 10.6 3.15 10.85 2.95 11.2 2.95 L11.35 2.9 11.6 2.9 Q13.55 2.9 14.2 4.55 L14.45 5.2 14.6 5.45 14.85 5.55 15.1 5.45 15.25 5.2 Q15.8 2.9 18.1 2.9 19.4 2.9 20.0 3.9 M17.5 3.65 Q16.45 3.7 15.9 5.0 15.25 6.25 14.65 6.25 L14.1 5.5 14.1 5.25 13.95 4.65 13.35 4.0 13.0 3.75 12.7 3.6 11.4 3.35 Q10.95 3.3 10.65 3.55 10.25 3.75 9.95 4.25 L9.5 5.15 Q9.4 5.7 9.45 6.25 L9.45 6.45 Q9.65 7.5 10.25 8.6 10.8 9.75 11.45 10.05 L12.95 10.9 14.1 11.55 14.85 11.65 15.95 11.15 17.5 9.9 Q19.35 8.2 19.5 6.8 19.65 5.35 19.15 4.5 18.55 3.6 17.5 3.65" fill="#ea1c22" fill-rule="evenodd" stroke="none"/>
      <path d="M17.5 3.65 Q18.55 3.6 19.15 4.5 19.65 5.35 19.5 6.8 19.35 8.2 17.5 9.9 L15.95 11.15 14.85 11.65 14.1 11.55 12.95 10.9 11.45 10.05 Q10.8 9.75 10.25 8.6 9.65 7.5 9.45 6.45 L9.45 6.25 Q9.4 5.7 9.5 5.15 L9.95 4.25 Q10.25 3.75 10.65 3.55 10.95 3.3 11.4 3.35 L12.7 3.6 13.0 3.75 13.35 4.0 13.95 4.65 14.1 5.25 14.1 5.5 14.65 6.25 Q15.25 6.25 15.9 5.0 16.45 3.7 17.5 3.65 M11.7 4.0 L11.15 4.1 Q10.35 4.4 10.1 5.3 9.95 5.8 10.1 6.4 L10.35 7.0 Q10.95 8.1 12.4 7.7 13.9 7.4 13.65 5.75 13.5 4.05 11.7 4.0 M16.9 6.8 Q17.55 6.75 17.55 5.95 17.5 5.1 16.65 5.15 L16.45 5.25 Q15.85 5.6 16.0 6.25 16.15 6.9 16.9 6.8" fill="#fc5c61" fill-rule="evenodd" stroke="none"/>
      <path d="M16.9 6.8 Q16.15 6.9 16.0 6.25 15.85 5.6 16.45 5.25 L16.65 5.15 Q17.5 5.1 17.55 5.95 17.55 6.75 16.9 6.8 M11.7 4.0 Q13.5 4.05 13.65 5.75 13.9 7.4 12.4 7.7 10.95 8.1 10.35 7.0 L10.1 6.4 Q9.95 5.8 10.1 5.3 10.35 4.4 11.15 4.1 L11.7 4.0 M11.6 5.0 Q11.35 5.05 11.2 5.2 10.75 5.8 11.2 6.45 11.55 6.9 12.05 6.65 12.7 6.45 12.6 5.7 12.4 4.95 11.6 5.0" fill="#ff898d" fill-rule="evenodd" stroke="none"/>
      <path d="M11.6 5.0 Q12.4 4.95 12.6 5.7 12.7 6.45 12.05 6.65 11.55 6.9 11.2 6.45 10.75 5.8 11.2 5.2 11.35 5.05 11.6 5.0" fill="#ffdedf" fill-rule="evenodd" stroke="none"/>
      <path d="M6.35 7.4 Q6.75 7.55 6.9 7.8 7.3 8.2 7.4 8.9 L7.35 8.95 7.4 9.0 7.3 9.3 7.35 9.5 7.25 10.05 7.0 10.55 6.75 10.7 6.65 10.75 6.05 10.9 5.9 10.9 5.45 10.9 5.5 10.75 5.75 10.5 5.8 10.4 5.85 10.2 6.05 9.2 6.1 8.85 6.15 8.8 6.35 7.4 M7.25 15.9 L8.35 15.65 9.05 15.4 7.95 16.45 7.85 16.5 8.2 17.15 8.7 17.7 8.75 17.85 9.85 16.85 9.85 16.8 10.6 16.35 11.0 16.2 11.2 16.05 11.35 15.9 11.7 15.75 12.05 14.9 12.15 14.5 12.2 14.0 12.2 13.7 12.2 13.0 Q12.4 12.0 12.95 11.45 L13.9 10.95 13.6 11.95 13.35 13.7 13.35 13.9 13.45 13.95 13.55 14.1 13.95 15.0 14.35 16.15 14.5 16.55 14.35 16.75 14.15 17.4 13.85 18.35 14.35 19.7 15.05 23.4 15.1 23.7 15.1 23.85 14.35 23.5 Q12.1 22.75 10.1 22.55 L8.95 22.4 8.8 22.35 9.4 21.6 Q10.9 19.7 8.7 18.0 7.2 16.9 6.15 17.0 5.55 17.05 5.1 17.35 4.6 17.65 4.05 18.1 L3.75 17.4 3.2 16.25 3.25 16.2 1.95 15.15 2.45 14.9 3.0 14.8 3.15 14.85 3.35 15.0 3.7 15.35 4.05 15.65 4.2 15.85 4.85 16.65 5.2 16.65 4.35 15.75 4.3 15.65 4.5 15.75 5.0 15.95 5.1 16.0 5.9 16.4 5.95 16.35 6.05 16.35 6.75 15.95 7.05 15.8 7.2 15.9 7.25 15.9 M9.7 14.65 L9.0 13.9 10.1 14.25 9.9 14.4 9.75 14.6 9.7 14.65 M3.65 16.55 L3.25 16.2 3.65 16.55 M7.65 23.15 L7.7 23.2 7.05 23.6 Q6.9 23.65 6.8 23.75 L6.75 23.65 7.65 23.15 M13.55 19.0 L13.7 18.7 13.85 18.35 13.7 18.7 13.55 19.0 M3.35 11.8 L3.3 9.1 3.9 9.35 4.45 10.1 4.5 10.15 4.6 10.3 4.55 10.35 4.65 11.15 4.4 11.9 4.35 12.1 4.25 12.1 Q4.15 12.1 3.85 12.25 L3.65 12.35 3.45 12.4 3.25 12.4 3.3 12.3 3.35 12.1 3.35 11.8 3.35 12.1 3.3 12.3 3.25 12.4 3.2 12.55 3.1 13.0 2.6 13.0 Q2.15 13.1 1.9 13.45 L2.4 11.8 2.85 11.7 3.35 11.8 M3.25 13.8 L3.95 15.25 3.45 14.75 3.4 14.65 3.25 14.3 3.3 14.3 3.2 14.0 3.25 13.8" fill="#c8c1db" fill-rule="evenodd" stroke="none"/>
      <path d="M5.45 10.9 L5.9 10.9 6.05 10.9 6.65 10.75 6.75 10.7 7.0 10.55 7.25 10.05 7.35 9.5 7.3 9.3 7.4 9.0 7.35 8.95 7.4 8.9 Q7.3 8.2 6.9 7.8 6.75 7.55 6.35 7.4 L6.6 6.4 Q10.55 6.4 8.85 10.3 8.0 12.35 9.0 13.9 L9.7 14.65 9.45 15.05 9.1 15.3 9.05 15.4 9.1 15.3 9.45 15.05 9.7 14.65 9.75 14.6 9.9 14.4 10.1 14.25 10.35 13.8 10.4 13.45 10.45 13.2 10.45 13.0 10.55 12.3 10.75 11.85 Q11.05 11.2 11.5 10.85 L12.0 10.5 13.3 10.3 13.65 10.45 13.05 10.75 12.25 11.05 12.15 11.2 Q11.75 11.55 11.6 12.45 L11.35 13.45 11.3 14.05 11.3 14.2 11.2 14.65 11.2 15.25 11.2 15.6 11.0 15.8 10.7 16.0 9.85 16.8 9.85 16.85 8.75 17.85 8.7 17.7 8.2 17.15 7.85 16.5 7.95 16.45 9.05 15.4 8.35 15.65 7.25 15.9 7.8 15.65 7.75 15.6 7.65 15.45 7.0 14.2 6.9 14.0 6.95 13.9 6.9 13.9 6.8 13.8 6.7 13.7 6.35 12.8 6.35 12.6 6.25 12.3 6.25 12.0 6.15 11.85 6.1 11.8 6.0 11.75 5.8 11.7 5.5 11.65 4.95 11.7 5.35 11.05 5.45 10.9 5.35 11.05 4.95 11.7 5.0 11.9 5.05 12.6 5.15 13.5 5.25 14.2 5.35 14.3 5.85 14.7 6.25 15.15 6.4 15.3 7.05 15.8 6.75 15.95 6.05 16.35 6.45 16.05 6.4 16.05 5.6 15.2 5.5 15.05 5.35 14.85 5.2 14.75 5.15 14.75 5.1 14.7 5.1 14.6 4.6 13.9 4.4 13.7 4.4 13.6 4.3 13.55 4.25 13.3 4.1 13.05 4.0 13.05 3.85 13.05 3.5 13.1 3.35 13.1 3.05 13.2 3.25 13.8 3.2 14.0 3.3 14.3 3.25 14.3 3.4 14.65 3.45 14.75 3.95 15.25 3.95 15.45 4.2 15.55 4.2 15.6 4.3 15.65 4.35 15.75 5.2 16.65 4.85 16.65 4.2 15.85 4.05 15.65 3.7 15.35 3.35 15.0 3.15 14.85 3.0 14.8 2.45 14.9 1.95 15.15 1.9 15.15 1.65 15.0 1.9 13.45 Q2.15 13.1 2.6 13.0 L3.1 13.0 3.2 12.55 3.25 12.4 3.45 12.4 3.65 12.35 3.85 12.25 Q4.15 12.1 4.25 12.1 L4.35 12.1 4.4 11.9 4.65 11.15 4.55 10.35 4.6 10.3 4.5 10.15 4.45 10.1 3.9 9.35 3.3 9.1 3.25 8.2 Q4.5 7.15 5.55 8.4 L6.05 9.2 5.85 10.2 5.8 10.4 5.75 10.5 5.5 10.75 5.45 10.9 M6.8 23.75 Q6.9 23.65 7.05 23.6 L7.7 23.2 7.65 23.15 8.8 22.35 8.95 22.4 10.1 22.55 Q12.1 22.75 14.35 23.5 L15.1 23.85 15.05 26.55 14.9 27.95 Q14.5 26.95 12.45 25.45 10.5 23.8 8.75 26.1 L6.8 23.75 M3.1 13.0 L3.05 13.2 3.1 13.0" fill="#af9eb1" fill-rule="evenodd" stroke="none"/>
      <path d="M4.95 11.7 L5.5 11.65 5.8 11.7 6.0 11.75 6.1 11.8 6.15 11.85 6.25 12.0 6.25 12.3 6.35 12.6 6.35 12.8 6.7 13.7 6.8 13.8 6.9 13.9 6.95 13.9 6.9 14.0 7.0 14.2 7.65 15.45 7.75 15.6 7.8 15.65 7.25 15.9 7.2 15.9 7.05 15.8 6.4 15.3 6.25 15.15 5.85 14.7 5.35 14.3 5.25 14.2 5.15 13.5 5.05 12.6 5.0 11.9 4.95 11.7 M9.85 16.8 L10.7 16.0 11.0 15.8 11.2 15.6 11.2 15.25 11.2 14.65 11.3 14.2 11.3 14.05 11.35 13.45 11.6 12.45 Q11.75 11.55 12.15 11.2 L12.25 11.05 13.05 10.75 13.65 10.45 13.95 10.6 13.9 10.85 13.9 10.95 12.95 11.45 Q12.4 12.0 12.2 13.0 L12.2 13.7 12.2 14.0 12.15 14.5 12.05 14.9 11.7 15.75 11.35 15.9 11.2 16.05 11.0 16.2 10.6 16.35 9.85 16.8 M6.05 16.35 L5.95 16.35 5.9 16.4 5.1 16.0 5.0 15.95 4.5 15.75 4.3 15.65 4.2 15.6 4.2 15.55 3.95 15.45 3.95 15.25 3.25 13.8 3.05 13.2 3.35 13.1 3.5 13.1 3.85 13.05 4.0 13.05 4.1 13.05 4.25 13.3 4.3 13.55 4.4 13.6 4.4 13.7 4.6 13.9 5.1 14.6 5.1 14.7 5.15 14.75 5.2 14.75 5.35 14.85 5.5 15.05 5.6 15.2 6.4 16.05 6.45 16.05 6.05 16.35 M7.65 23.15 L6.75 23.65 6.05 22.65 6.05 22.35 5.95 22.4 5.0 20.55 4.85 20.3 4.05 18.1 Q4.6 17.65 5.1 17.35 5.55 17.05 6.15 17.0 7.2 16.9 8.7 18.0 10.9 19.7 9.4 21.6 L8.8 22.35 7.65 23.15" fill="#cde0fc" fill-rule="evenodd" stroke="none"/>
      <path d="M6.35 7.4 L6.15 8.8 6.1 8.85 6.05 9.2 5.85 10.2 5.8 10.4 5.75 10.5 5.5 10.75 5.45 10.9 5.35 11.05 4.95 11.7 5.0 11.9 5.05 12.6 5.15 13.5 5.25 14.2 5.35 14.3 M9.05 15.4 L9.1 15.3 9.45 15.05 9.7 14.65 9.0 13.9 Q8.0 12.35 8.85 10.3 10.55 6.4 6.6 6.4 L6.35 7.4 M13.65 10.45 L13.3 10.3 12.0 10.5 11.5 10.85 Q11.05 11.2 10.75 11.85 L10.55 12.3 10.45 13.0 10.45 13.2 10.4 13.45 10.35 13.8 10.1 14.25 9.9 14.4 9.75 14.6 9.7 14.65 M13.9 10.85 L13.95 10.6 13.65 10.45 M13.85 18.35 L14.15 17.4 14.35 16.75 14.5 16.55 14.35 16.15 13.95 15.0 13.55 14.1 13.45 13.95 13.35 13.9 13.35 13.7 13.6 11.95 13.9 10.95 M9.05 15.4 L7.95 16.45 7.85 16.5 M1.95 15.15 L3.25 16.2 3.65 16.55 M9.0 13.9 L10.1 14.25 M6.75 23.65 L6.8 23.75 8.75 26.1 M14.9 27.95 L15.05 26.55 15.1 23.85 15.1 23.7 15.05 23.4 14.35 19.7 13.85 18.35 13.7 18.7 13.55 19.0 M3.3 9.1 L3.35 11.8 3.35 12.1 3.3 12.3 3.25 12.4 3.2 12.55 3.1 13.0 3.05 13.2 3.25 13.8 3.95 15.25 3.95 15.45 M3.3 9.1 L3.25 8.2 Q4.5 7.15 5.55 8.4 L6.05 9.2 M1.9 13.45 L2.4 11.8 2.85 11.7 3.35 11.8 M1.9 13.45 L1.65 15.0 1.9 15.15 1.95 15.15 M4.05 18.1 L3.75 17.4 3.2 16.25 3.25 16.2 M5.95 22.4 L5.0 20.55 4.85 20.3 4.05 18.1 M6.05 22.65 L5.95 22.4 M6.05 22.65 L6.75 23.65" fill="none" stroke="#390909" stroke-linecap="round" stroke-linejoin="round" stroke-width="1.0"/>
      <path d="M8.75 26.1 Q10.5 23.8 12.45 25.45 14.5 26.95 14.9 27.95" fill="none" stroke="#390909" stroke-linecap="round" stroke-linejoin="round" stroke-width="1.0"/>
      <path d="M16.4 10.45 L17.05 10.7 17.8 11.05 17.9 11.1 Q18.35 11.5 18.45 12.4 L18.7 13.35 18.8 14.05 18.8 14.15 18.9 14.55 18.85 15.2 18.9 15.5 19.1 15.7 19.3 15.95 20.25 16.75 19.4 16.35 19.1 16.15 18.9 16.0 18.7 15.9 18.4 15.65 Q18.1 15.45 18.0 14.9 L17.95 14.5 17.85 13.95 17.9 13.65 17.85 12.9 Q17.7 11.9 17.15 11.4 L16.2 10.95 16.15 10.8 16.15 10.55 16.4 10.45 M25.05 11.6 L25.1 11.85 25.05 12.6 24.9 13.4 24.8 14.15 24.75 14.2 24.25 14.65 23.8 15.1 23.65 15.2 23.0 15.75 22.9 15.9 22.8 15.85 22.25 15.55 22.3 15.55 22.45 15.35 23.0 14.15 23.15 13.95 23.15 13.85 23.2 13.85 23.25 13.8 23.3 13.75 23.35 13.6 23.7 12.7 23.75 12.5 23.85 12.2 23.8 11.95 23.95 11.75 24.0 11.75 24.05 11.65 24.25 11.6 24.55 11.6 25.05 11.6 M24.05 16.3 L23.6 15.95 23.65 15.95 24.45 15.15 24.55 14.95 24.75 14.8 24.85 14.65 24.9 14.6 25.0 14.55 25.5 13.85 25.65 13.65 25.7 13.6 25.8 13.45 25.8 13.2 25.95 13.05 26.0 13.0 26.1 13.0 26.25 13.0 26.6 13.1 26.75 13.1 27.0 13.2 26.8 13.75 26.15 15.25 26.05 15.35 25.85 15.5 25.85 15.6 25.8 15.6 25.55 15.65 25.1 15.9 25.0 15.9 24.15 16.3 24.05 16.3 M26.05 18.0 L25.2 20.2 25.1 20.45 24.15 22.35 24.0 22.35 24.05 22.55 23.35 23.6 22.4 23.15 21.3 22.3 20.6 21.6 Q19.2 19.6 21.35 17.95 22.9 16.85 23.95 16.95 L25.0 17.25 26.05 18.0" fill="#cde0fc" fill-rule="evenodd" stroke="none"/>
      <path d="M20.25 16.75 L19.3 15.95 19.1 15.7 18.9 15.5 18.85 15.2 18.9 14.55 18.8 14.15 18.8 14.05 18.7 13.35 18.45 12.4 Q18.35 11.5 17.9 11.1 L17.8 11.05 17.05 10.7 16.4 10.45 16.8 10.3 18.05 10.5 18.6 10.8 19.3 11.75 19.5 12.3 19.65 12.9 19.6 13.1 19.7 13.35 19.7 13.8 19.95 14.2 20.1 14.35 20.35 14.6 20.4 14.6 20.6 15.0 20.95 15.3 21.05 15.35 20.95 15.3 20.6 15.0 20.4 14.6 21.0 13.85 Q22.1 12.3 21.2 10.25 19.5 6.35 23.5 6.35 L23.65 7.3 23.15 7.7 22.65 8.8 22.75 8.9 22.7 8.95 22.7 9.3 22.7 9.45 22.8 10.0 23.05 10.5 23.3 10.65 23.45 10.7 24.0 10.85 24.1 10.9 24.6 10.8 24.55 10.75 24.3 10.4 24.3 10.3 24.25 10.1 24.05 9.15 24.45 8.35 Q25.55 7.1 26.8 8.2 L26.8 9.05 26.15 9.35 25.6 10.0 25.55 10.1 25.5 10.25 25.45 10.25 25.4 11.15 25.6 11.9 25.7 12.0 25.85 12.05 26.25 12.2 26.4 12.25 26.6 12.35 26.75 12.4 26.8 12.55 26.95 12.9 27.0 13.2 26.95 12.9 27.4 12.95 Q27.85 13.05 28.15 13.4 L28.35 14.9 28.15 15.1 27.65 14.85 27.1 14.75 26.95 14.8 26.65 14.9 26.4 15.3 26.05 15.6 25.85 15.85 25.15 16.55 24.9 16.6 25.75 15.65 25.8 15.6 25.85 15.6 25.85 15.5 26.05 15.35 26.15 15.25 26.6 14.65 26.6 14.6 26.85 14.3 26.8 14.25 26.85 13.9 26.8 13.75 27.0 13.2 26.75 13.1 26.6 13.1 26.25 13.0 26.1 13.0 26.0 13.0 25.95 13.05 25.8 13.2 25.8 13.45 25.7 13.6 25.65 13.65 25.5 13.85 25.0 14.55 24.9 14.6 24.85 14.65 24.75 14.8 24.55 14.95 24.45 15.15 23.65 15.95 23.6 15.95 24.05 16.3 23.3 15.95 23.0 15.75 23.65 15.2 23.8 15.1 24.25 14.65 24.75 14.2 24.8 14.15 24.9 13.4 25.05 12.6 25.1 11.85 25.05 11.6 24.75 10.95 24.6 10.8 24.75 10.95 25.05 11.6 24.55 11.6 24.25 11.6 24.05 11.65 24.0 11.75 23.95 11.75 23.8 11.95 23.85 12.2 23.75 12.5 23.7 12.7 23.35 13.6 23.3 13.75 23.25 13.8 23.2 13.85 23.15 13.85 23.15 13.95 23.0 14.15 22.45 15.35 22.3 15.55 22.25 15.55 22.8 15.85 21.75 15.55 21.05 15.35 22.1 16.35 22.25 16.5 21.85 17.15 21.4 17.7 21.3 17.75 20.25 16.8 20.25 16.75 M23.25 23.65 L21.3 26.05 Q19.6 23.75 17.6 25.4 15.6 26.9 15.1 27.9 L15.0 26.5 15.0 23.75 15.75 23.4 Q17.9 22.75 20.0 22.5 L21.1 22.3 21.3 22.3 22.4 23.15 22.35 23.15 23.0 23.5 23.25 23.65" fill="#af9eb1" fill-rule="evenodd" stroke="none"/>
      <path d="M16.2 10.95 L17.15 11.4 Q17.7 11.9 17.85 12.9 L17.9 13.65 17.85 13.95 17.95 14.5 18.0 14.9 Q18.1 15.45 18.4 15.65 L18.7 15.9 18.9 16.0 19.1 16.15 19.4 16.35 20.25 16.75 20.25 16.8 21.3 17.75 21.4 17.7 21.85 17.15 22.25 16.5 22.1 16.35 21.05 15.35 21.75 15.55 22.8 15.85 22.9 15.9 23.0 15.75 23.3 15.95 24.05 16.3 24.15 16.3 25.0 15.9 25.1 15.9 25.55 15.65 25.8 15.6 25.75 15.65 24.9 16.6 25.15 16.55 25.85 15.85 26.05 15.6 26.4 15.3 26.65 14.9 26.95 14.8 27.1 14.75 27.65 14.85 28.15 15.1 26.75 16.15 26.9 16.2 26.35 17.4 26.05 18.0 25.0 17.25 23.95 16.95 Q22.9 16.85 21.35 17.95 19.2 19.6 20.6 21.6 L21.3 22.3 21.1 22.3 20.0 22.5 Q17.9 22.75 15.75 23.4 L15.0 23.75 15.0 23.65 15.05 23.35 Q15.25 21.55 15.75 19.6 L16.25 18.25 15.95 17.35 15.7 16.75 15.6 16.5 15.65 16.1 16.1 14.95 16.55 14.05 16.55 13.9 16.7 13.85 16.7 13.65 16.45 11.95 16.2 10.95 M20.4 14.6 L20.35 14.6 20.1 14.35 19.95 14.2 21.0 13.85 20.4 14.6 M24.05 9.15 L24.25 10.1 24.3 10.3 24.3 10.4 24.55 10.75 24.6 10.8 24.1 10.9 24.0 10.85 23.45 10.7 23.3 10.65 23.05 10.5 22.8 10.0 22.7 9.45 22.7 9.3 22.7 8.95 22.75 8.9 22.65 8.8 23.15 7.7 23.65 7.3 23.9 8.7 24.0 8.85 24.05 9.15 M26.95 12.9 L26.8 12.55 26.75 12.4 26.6 12.35 26.4 12.25 26.25 12.2 25.85 12.05 25.7 12.0 25.6 11.9 25.4 11.15 25.45 10.25 25.5 10.25 25.55 10.1 25.6 10.0 26.15 9.35 26.8 9.05 26.75 11.7 27.25 11.65 27.65 11.7 28.15 13.4 Q27.85 13.05 27.4 12.95 L26.95 12.9 M23.35 23.6 L23.25 23.65 23.0 23.5 22.35 23.15 22.4 23.15 23.35 23.6 M26.75 12.4 L26.75 12.25 26.7 12.1 26.75 11.7 26.7 12.1 26.75 12.25 26.75 12.4 M16.5 19.0 L16.35 18.6 16.25 18.25 16.35 18.6 16.5 19.0 M26.8 13.75 L26.85 13.9 26.8 14.25 26.85 14.3 26.6 14.6 26.6 14.65 26.15 15.25 26.8 13.75 M26.35 16.45 L26.75 16.15 26.35 16.45" fill="#c8c1db" fill-rule="evenodd" stroke="none"/>
      <path d="M16.4 10.45 L16.15 10.55 16.15 10.8 M22.25 16.5 L22.1 16.35 21.05 15.35 20.95 15.3 20.6 15.0 20.4 14.6 20.35 14.6 20.1 14.35 19.95 14.2 19.7 13.8 19.7 13.35 19.6 13.1 19.65 12.9 19.5 12.3 19.3 11.75 18.6 10.8 18.05 10.5 16.8 10.3 16.4 10.45 M26.8 9.05 L26.8 8.2 Q25.55 7.1 24.45 8.35 L24.05 9.15 24.25 10.1 24.3 10.3 24.3 10.4 24.55 10.75 24.6 10.8 24.75 10.95 25.05 11.6 25.1 11.85 25.05 12.6 24.9 13.4 24.8 14.15 24.75 14.2 M27.0 13.2 L26.95 12.9 26.8 12.55 26.75 12.4 26.75 12.25 26.7 12.1 26.75 11.7 27.25 11.65 27.65 11.7 28.15 13.4 28.35 14.9 28.15 15.1 26.75 16.15 26.9 16.2 26.35 17.4 26.05 18.0 25.2 20.2 25.1 20.45 24.15 22.35 24.05 22.55 23.35 23.6 23.25 23.65 21.3 26.05 M26.8 9.05 L26.75 11.7 M15.1 27.9 L15.0 26.5 15.0 23.75 15.0 23.65 15.05 23.35 Q15.25 21.55 15.75 19.6 L16.25 18.25 15.95 17.35 15.7 16.75 15.6 16.5 15.65 16.1 16.1 14.95 16.55 14.05 16.55 13.9 16.7 13.85 16.7 13.65 16.45 11.95 16.2 10.95 M24.05 9.15 L24.0 8.85 23.9 8.7 23.65 7.3 23.5 6.35 Q19.5 6.35 21.2 10.25 22.1 12.3 21.0 13.85 L20.4 14.6 M16.25 18.25 L16.35 18.6 16.5 19.0 M26.8 13.75 L26.15 15.25 26.05 15.35 M26.75 16.15 L26.35 16.45 M21.0 13.85 L19.95 14.2 M27.0 13.2 L26.8 13.75" fill="none" stroke="#390909" stroke-linecap="round" stroke-linejoin="round" stroke-width="1.0"/>
      <path d="M21.3 26.05 Q19.6 23.75 17.6 25.4 15.6 26.9 15.1 27.9" fill="none" stroke="#390909" stroke-linecap="round" stroke-linejoin="round" stroke-width="1.0"/>
    </g>
  </defs>
</svg>
