<?xml version="1.0" encoding="UTF-8" standalone="no"?>
<svg xmlns:ffdec="https://www.free-decompiler.com/flash" xmlns:xlink="http://www.w3.org/1999/xlink" ffdec:objectType="frame" height="30.0px" width="30.0px" xmlns="http://www.w3.org/2000/svg">
  <g transform="matrix(1.0, 0.0, 0.0, 1.0, 0.0, 0.0)">
    <use ffdec:characterId="1" height="30.0" transform="matrix(1.0, 0.0, 0.0, 1.0, 0.0, 0.0)" width="30.0" xlink:href="#shape0"/>
  </g>
  <defs>
    <g id="shape0" transform="matrix(1.0, 0.0, 0.0, 1.0, 0.0, 0.0)">
      <path d="M0.0 0.0 L30.0 0.0 30.0 30.0 0.0 30.0 0.0 0.0" fill="#33cc66" fill-opacity="0.0" fill-rule="evenodd" stroke="none"/>
      <path d="M0.0 26.7 L0.0 3.3 Q0.0 0.0 3.3 0.0 L26.7 0.0 Q30.0 0.0 30.0 3.3 L30.0 26.7 Q30.0 30.0 26.7 30.0 L3.3 30.0 Q0.0 30.0 0.0 26.7" fill="#a5cac9" fill-rule="evenodd" stroke="none"/>
      <path d="M5.6 6.1 Q9.45 2.35 14.8 2.35 20.1 2.35 23.95 6.1 27.8 9.95 27.8 15.35 27.8 20.7 23.95 24.45 20.1 28.3 14.8 28.3 9.45 28.3 5.6 24.45 1.8 20.7 1.8 15.35 1.8 9.95 5.6 6.1 M3.6 15.35 Q3.6 19.9 6.9 23.2 10.1 26.4 14.75 26.4 19.3 26.4 22.65 23.2 25.85 19.9 25.85 15.35 25.85 10.7 22.65 7.5 19.3 4.15 14.75 4.15 10.1 4.15 6.9 7.5 3.6 10.7 3.6 15.35" fill="#00ffff" fill-rule="evenodd" stroke="none"/>
      <path d="M5.6 6.1 Q9.45 2.35 14.8 2.35 20.1 2.35 23.95 6.1 27.8 9.95 27.8 15.35 27.8 20.7 23.95 24.45 20.1 28.3 14.8 28.3 9.45 28.3 5.6 24.45 1.8 20.7 1.8 15.35 1.8 9.95 5.6 6.1 M3.6 15.35 Q3.6 10.7 6.9 7.5 10.1 4.15 14.75 4.15 19.3 4.15 22.65 7.5 25.85 10.7 25.85 15.35 25.85 19.9 22.65 23.2 19.3 26.4 14.75 26.4 10.1 26.4 6.9 23.2 3.6 19.9 3.6 15.35 Z" fill="none" stroke="#ffffff" stroke-linecap="round" stroke-linejoin="round" stroke-width="3.0"/>
      <path d="M6.5 8.2 L6.2 8.5 5.95 8.3 6.2 8.5 Q3.6 11.5 3.6 15.6 3.6 19.55 6.1 22.55 L5.8 23.05 6.35 22.9 5.8 23.05 6.1 22.55 6.35 22.9 6.9 23.45 Q10.1 26.65 14.75 26.65 19.2 26.65 22.5 23.6 L22.65 23.45 Q25.45 20.55 25.8 16.7 L25.85 15.6 Q25.85 10.95 22.65 7.75 19.6 4.75 15.65 4.5 L15.5 4.15 15.35 4.5 15.5 4.15 15.65 4.5 15.35 4.5 14.75 4.45 Q10.1 4.45 6.9 7.75 L6.5 8.2 6.2 8.05 6.5 8.2 M22.75 23.85 L22.5 23.6 22.75 23.85 M5.6 6.35 Q9.45 2.6 14.8 2.6 20.15 2.6 23.95 6.35 27.8 10.2 27.8 15.6 27.8 21.0 23.95 24.7 20.15 28.55 14.8 28.55 9.45 28.55 5.6 24.7 1.8 21.0 1.8 15.6 1.8 10.2 5.6 6.35" fill="#0087f0" fill-rule="evenodd" stroke="none"/>
      <path d="M6.5 8.2 L6.2 8.5 Q3.6 11.5 3.6 15.6 3.6 19.55 6.1 22.55 L6.35 22.9 6.9 23.45 Q10.1 26.65 14.75 26.65 19.2 26.65 22.5 23.6 L22.65 23.45 Q25.45 20.55 25.8 16.7 L25.85 15.6 Q25.85 10.95 22.65 7.75 19.6 4.75 15.65 4.5 L15.35 4.5 14.75 4.45 Q10.1 4.45 6.9 7.75 L6.5 8.2 M5.6 6.35 Q9.45 2.6 14.8 2.6 20.15 2.6 23.95 6.35 27.8 10.2 27.8 15.6 27.8 21.0 23.95 24.7 20.15 28.55 14.8 28.55 9.45 28.55 5.6 24.7 1.8 21.0 1.8 15.6 1.8 10.2 5.6 6.35" fill="none" stroke="#006699" stroke-linecap="round" stroke-linejoin="round" stroke-width="0.1"/>
      <path d="M6.2 8.5 L11.0 12.95 12.15 10.7 6.5 8.2 6.2 8.05 M6.2 8.5 L5.95 8.3 M15.35 4.5 L15.5 4.15 15.65 4.5 18.9 13.65 25.8 16.7 20.6 18.35 22.5 23.6 17.8 19.25 6.35 22.9 5.8 23.05 6.1 22.55 11.0 12.95 17.8 19.25 20.6 18.35 18.9 13.65 12.15 10.7 15.35 4.5 M22.5 23.6 L22.75 23.85" fill="none" stroke="#0087f0" stroke-linecap="round" stroke-linejoin="round" stroke-width="2.0"/>
      <path d="M12.2 6.9 Q11.95 5.95 12.4 5.6 L12.8 5.35 13.25 5.5 12.75 5.15 Q11.3 3.9 11.95 3.25 L12.8 3.45 13.65 4.3 14.15 4.95 14.7 5.8 14.75 5.95 15.3 7.9 15.35 8.4 15.05 8.05 14.95 7.95 14.25 5.85 13.85 5.15 13.4 4.55 13.75 6.1 Q12.6 5.8 13.2 7.0 L12.2 6.9 M15.7 12.85 L15.9 12.5 16.0 12.15 16.7 10.8 Q19.55 6.75 22.6 6.55 23.35 7.0 22.0 8.65 L21.95 8.7 21.2 9.5 22.45 9.9 Q22.75 10.25 22.55 10.75 L22.45 10.9 Q21.7 12.1 20.2 12.45 22.6 13.8 20.6 14.8 L19.85 15.0 20.3 15.95 20.45 16.45 20.45 16.55 20.45 17.2 20.4 17.3 Q19.8 18.35 19.05 18.25 L19.0 17.4 Q19.8 17.2 20.05 16.65 L20.1 16.55 Q20.15 16.0 19.25 16.35 L19.2 16.15 18.3 16.3 Q17.55 16.25 16.75 15.55 15.55 13.85 14.0 14.45 L15.05 13.7 15.7 12.85 M15.7 13.8 Q16.95 13.55 17.95 14.4 19.2 15.15 20.3 13.6 L19.95 12.65 19.15 11.9 21.15 10.9 Q22.05 10.25 21.0 9.85 L20.1 9.6 21.5 8.0 Q19.3 7.85 16.9 12.0 L15.7 13.8" fill="#dfedee" fill-rule="evenodd" stroke="none"/>
      <path d="M15.35 8.4 L15.3 7.9 14.75 5.95 14.7 5.8 14.15 4.95 13.65 4.3 12.8 3.45 11.95 3.25 Q11.3 3.9 12.75 5.15 L13.25 5.5 12.8 5.35 12.4 5.6 Q11.95 5.95 12.2 6.9 L11.75 6.9 Q11.65 5.6 12.25 5.4 10.6 3.5 11.6 2.8 12.2 2.4 13.1 3.05 L14.0 3.9 14.1 4.0 15.0 5.6 15.05 5.65 15.1 5.8 Q15.95 7.65 15.8 9.05 L15.35 8.4 M16.2 10.85 L16.35 10.65 16.35 10.6 Q18.25 6.9 22.3 5.75 24.9 5.55 23.1 8.15 L22.3 9.05 22.95 9.6 Q24.05 10.95 21.7 12.5 23.4 15.15 20.65 15.85 21.0 16.6 20.8 17.25 L20.8 17.3 20.75 17.45 20.75 17.5 19.55 18.7 19.15 18.9 19.05 18.25 Q19.8 18.35 20.4 17.3 L20.45 17.2 20.45 16.55 20.45 16.45 20.3 15.95 19.85 15.0 20.6 14.8 Q22.6 13.8 20.2 12.45 21.7 12.1 22.45 10.9 L22.55 10.75 Q22.75 10.25 22.45 9.9 L21.2 9.5 21.95 8.7 22.0 8.65 Q23.35 7.0 22.6 6.55 19.55 6.75 16.7 10.8 L16.0 12.15 16.2 10.85" fill="#b5d5d7" fill-rule="evenodd" stroke="none"/>
      <path d="M12.2 6.9 L13.2 7.0 Q14.2 7.2 14.95 7.95 L15.05 8.05 15.35 8.4 15.8 9.05 Q16.2 9.85 16.2 10.85 L16.0 12.15 15.9 12.5 Q14.95 12.45 14.9 11.5 13.3 11.75 12.65 11.05 11.1 12.0 9.95 11.05 8.6 11.95 8.2 11.2 L8.2 10.85 Q8.2 9.2 9.35 8.05 10.4 7.05 11.75 6.9 L12.2 6.9 M12.2 7.3 L11.8 7.35 11.45 7.4 Q9.6 7.8 9.15 9.45 9.35 10.4 12.1 9.45 L13.6 8.35 Q13.85 7.65 13.1 7.4 L12.2 7.3 M15.7 11.25 Q15.8 9.2 14.25 7.95 L13.9 8.7 Q15.35 9.55 15.7 11.25" fill="#ffcc00" fill-rule="evenodd" stroke="none"/>
      <path d="M12.2 7.3 L13.1 7.4 Q13.85 7.65 13.6 8.35 L12.1 9.45 Q9.35 10.4 9.15 9.45 9.6 7.8 11.45 7.4 L11.8 7.35 12.2 7.3" fill="#ffff33" fill-rule="evenodd" stroke="none"/>
      <path d="M15.7 12.85 L15.35 12.7 15.3 12.7 Q14.75 12.45 14.5 11.85 L13.95 12.0 Q13.1 12.05 12.55 11.4 L12.25 11.6 Q11.6 12.05 11.05 12.1 10.5 12.1 10.05 11.65 L9.8 11.4 9.55 11.75 9.0 12.1 8.4 12.2 8.2 11.2 Q8.6 11.95 9.95 11.05 11.1 12.0 12.65 11.05 13.3 11.75 14.9 11.5 14.95 12.45 15.9 12.5 L15.7 12.85 M15.7 11.25 Q15.35 9.55 13.9 8.7 L14.25 7.95 Q15.8 9.2 15.7 11.25" fill="#ff9900" fill-rule="evenodd" stroke="none"/>
      <path d="M8.4 12.2 L9.0 12.1 9.55 11.75 9.8 11.4 10.05 11.65 Q10.5 12.1 11.05 12.1 11.6 12.05 12.25 11.6 L12.55 11.4 Q13.1 12.05 13.95 12.0 L14.5 11.85 Q14.75 12.45 15.3 12.7 L15.35 12.7 15.7 12.85 15.05 13.7 14.0 14.45 13.85 14.8 12.75 15.5 Q11.7 15.5 11.75 14.8 L10.9 14.65 10.8 14.65 Q10.0 14.35 9.35 13.7 8.7 13.0 8.4 12.2 M9.8 11.9 L9.2 12.55 Q9.8 14.0 12.05 14.35 L13.8 14.0 13.85 14.0 15.15 13.0 Q14.4 12.8 14.2 12.4 L13.95 12.4 Q13.0 12.45 12.45 11.95 11.9 12.45 11.05 12.45 L11.0 12.45 Q10.0 12.4 9.8 11.9 M18.3 17.55 L18.3 17.3 18.3 16.3 19.2 16.15 19.25 16.35 Q20.15 16.0 20.1 16.55 L20.05 16.65 Q19.8 17.2 19.0 17.4 L18.75 17.45 18.3 17.55 M8.75 19.3 L8.3 19.85 8.2 19.95 Q7.25 20.6 6.55 19.8 6.4 19.6 7.2 19.4 6.4 18.9 7.55 18.7 L7.7 18.6 Q8.25 18.65 8.75 19.3" fill="#fcc05c" fill-rule="evenodd" stroke="none"/>
      <path d="M10.9 14.65 L11.75 14.8 Q11.7 15.5 12.75 15.5 L11.9 15.7 11.0 14.95 10.9 14.65 M9.8 11.9 Q10.0 12.4 11.0 12.45 L11.05 12.45 Q11.9 12.45 12.45 11.95 13.0 12.45 13.95 12.4 L14.2 12.4 Q14.4 12.8 15.15 13.0 L13.85 14.0 13.8 14.0 12.05 14.35 Q9.8 14.0 9.2 12.55 L9.8 11.9" fill="#fdda9f" fill-rule="evenodd" stroke="none"/>
      <path d="M12.75 15.5 L13.85 14.8 Q15.5 14.55 16.5 16.2 17.4 17.25 18.3 17.3 L18.3 17.55 18.4 20.0 Q16.45 18.95 14.95 16.2 15.9 19.35 18.25 20.8 L18.55 21.0 18.95 20.9 19.05 21.1 18.1 21.35 Q19.9 23.45 20.35 22.5 L20.75 22.85 Q20.5 23.4 19.85 23.35 L17.7 21.6 Q18.4 22.65 19.6 23.7 L20.05 24.1 20.15 24.2 20.3 24.45 Q20.7 26.6 18.8 26.1 L16.1 23.35 Q16.9 24.9 18.4 26.55 L15.0 26.4 12.8 22.6 14.35 26.15 Q11.8 26.3 11.75 24.9 11.7 22.9 11.0 22.3 L10.45 20.5 10.45 20.6 10.2 21.45 Q9.8 19.4 8.6 18.5 L9.25 17.8 Q9.95 17.15 10.1 15.75 10.25 15.0 11.0 14.95 L11.9 15.7 12.75 15.5 M10.45 20.5 L10.45 20.4 10.4 20.3 10.45 20.5 M12.35 25.2 Q12.8 26.2 13.4 25.65 12.9 22.5 11.65 22.6 L12.35 25.2 M11.0 16.15 Q10.3 18.75 11.7 21.85 15.3 23.15 16.65 20.65 14.95 18.55 14.35 16.15 12.5 16.9 11.0 16.15 M17.85 26.4 Q15.95 24.95 15.2 23.45 14.2 22.45 13.55 23.15 L15.55 26.1 Q16.7 26.9 17.85 26.4 M17.45 22.1 Q16.65 21.7 16.75 22.85 18.0 25.3 19.7 25.45 20.85 25.65 17.45 22.1" fill="#66cc00" fill-rule="evenodd" stroke="none"/>
      <path d="M13.85 14.8 L14.0 14.45 Q15.55 13.85 16.75 15.55 17.55 16.25 18.3 16.3 L18.3 17.3 Q17.4 17.25 16.5 16.2 15.5 14.55 13.85 14.8 M11.0 14.95 Q10.25 15.0 10.1 15.75 9.95 17.15 9.25 17.8 L8.6 18.5 Q9.8 19.4 10.2 21.45 L9.95 21.75 9.85 21.4 Q9.3 20.0 8.75 19.3 8.25 18.65 7.7 18.6 9.2 17.9 9.5 16.55 L9.55 16.45 Q9.65 15.0 10.9 14.65 L11.0 14.95 M20.35 22.5 Q19.9 23.45 18.1 21.35 L19.05 21.1 20.35 22.5 M12.35 25.2 L11.65 22.6 Q12.9 22.5 13.4 25.65 12.8 26.2 12.35 25.2 M11.0 16.15 Q12.5 16.9 14.35 16.15 14.95 18.55 16.65 20.65 15.3 23.15 11.7 21.85 10.3 18.75 11.0 16.15 M11.3 16.85 Q11.0 19.8 12.5 21.2 13.4 21.55 14.0 20.8 13.3 18.95 13.25 17.2 12.25 17.3 11.3 16.85 M17.85 26.4 Q16.7 26.9 15.55 26.1 L13.55 23.15 Q14.2 22.45 15.2 23.45 15.95 24.95 17.85 26.4 M17.45 22.1 Q20.85 25.65 19.7 25.45 18.0 25.3 16.75 22.85 16.65 21.7 17.45 22.1" fill="#83ff06" fill-rule="evenodd" stroke="none"/>
      <path d="M11.0 22.3 Q11.7 22.9 11.75 24.9 11.8 26.3 14.35 26.15 L12.8 22.6 15.0 26.4 18.4 26.55 Q16.9 24.9 16.1 23.35 L18.8 26.1 Q20.7 26.6 20.3 24.45 21.2 26.4 19.05 27.3 L18.65 26.85 Q17.25 28.0 14.85 27.35 L14.5 26.55 Q12.6 26.9 11.15 25.6 11.35 23.95 11.0 22.3 M20.05 24.1 L19.6 23.7 Q18.4 22.65 17.7 21.6 L19.85 23.35 Q20.5 23.4 20.75 22.85 L20.95 22.95 Q20.7 23.65 20.05 24.1 M18.95 20.9 L18.55 21.0 18.25 20.8 Q15.9 19.35 14.95 16.2 16.45 18.95 18.4 20.0 L18.45 20.4 Q19.05 20.55 18.75 17.45 L19.0 17.4 19.05 18.25 19.15 18.9 Q19.25 20.45 18.95 20.9 M8.2 19.95 L8.3 19.85 Q9.45 21.85 9.85 21.4 L9.95 21.75 Q9.4 22.35 8.2 19.95" fill="#3d7900" fill-rule="evenodd" stroke="none"/>
      <path d="M18.4 20.0 L18.3 17.55 18.75 17.45 Q19.05 20.55 18.45 20.4 L18.4 20.0 M8.3 19.85 L8.75 19.3 Q9.3 20.0 9.85 21.4 9.45 21.85 8.3 19.85" fill="#0f2800" fill-rule="evenodd" stroke="none"/>
      <path d="M11.3 16.85 Q12.25 17.3 13.25 17.2 13.3 18.95 14.0 20.8 13.4 21.55 12.5 21.2 11.0 19.8 11.3 16.85" fill="#a0ff42" fill-rule="evenodd" stroke="none"/>
      <path d="M13.2 7.0 Q12.6 5.8 13.75 6.1 L13.4 4.55 13.85 5.15 14.25 5.85 14.95 7.95 Q14.2 7.2 13.2 7.0 M15.7 13.8 L16.9 12.0 Q19.3 7.85 21.5 8.0 L20.1 9.6 21.0 9.85 Q22.05 10.25 21.15 10.9 L19.15 11.9 19.95 12.65 20.3 13.6 Q19.2 15.15 17.95 14.4 16.95 13.55 15.7 13.8" fill="#ffffff" fill-rule="evenodd" stroke="none"/>
      <path d="M15.8 9.05 Q15.95 7.65 15.1 5.8 L15.05 5.65 15.0 5.6 14.1 4.0 14.0 3.9 13.1 3.05 Q12.2 2.4 11.6 2.8 10.6 3.5 12.25 5.4 11.65 5.6 11.75 6.9 10.4 7.05 9.35 8.05 8.2 9.2 8.2 10.85 L8.2 11.2 8.4 12.2 Q8.7 13.0 9.35 13.7 10.0 14.35 10.8 14.65 L10.9 14.65 Q9.65 15.0 9.55 16.45 L9.5 16.55 Q9.2 17.9 7.7 18.6 L7.55 18.7 Q6.4 18.9 7.2 19.4 6.4 19.6 6.55 19.8 7.25 20.6 8.2 19.95 9.4 22.35 9.95 21.75 L10.2 21.45 10.45 20.6 10.45 20.5 11.0 22.3 Q11.35 23.95 11.15 25.6 12.6 26.9 14.5 26.55 L14.85 27.35 Q17.25 28.0 18.65 26.85 L19.05 27.3 Q21.2 26.4 20.3 24.45 L20.15 24.2 20.05 24.1 Q20.7 23.65 20.95 22.95 L20.75 22.85 20.35 22.5 19.05 21.1 18.95 20.9 Q19.25 20.45 19.15 18.9 L19.55 18.7 20.75 17.5 20.75 17.45 20.8 17.3 20.8 17.25 Q21.0 16.6 20.65 15.85 23.4 15.15 21.7 12.5 24.05 10.95 22.95 9.6 L22.3 9.05 23.1 8.15 Q24.9 5.55 22.3 5.75 18.25 6.9 16.35 10.6 L16.35 10.65 16.2 10.85 16.0 12.15 15.9 12.5 15.7 12.85 15.05 13.7 14.0 14.45 Q15.55 13.85 16.75 15.55 17.55 16.25 18.3 16.3 L19.2 16.15 19.25 16.35 Q20.15 16.0 20.1 16.55 L20.05 16.65 Q19.8 17.2 19.0 17.4 L19.05 18.25 19.15 18.9 M15.8 9.05 Q16.2 9.85 16.2 10.85" fill="none" stroke="#130d00" stroke-linecap="round" stroke-linejoin="round" stroke-width="0.5"/>
      <path d="M10.6 12.95 L10.55 13.1 10.4 13.15 10.25 13.1 10.15 12.95 10.25 12.8 Q10.3 12.7 10.4 12.7 L10.55 12.8 10.6 12.95" fill="#ff9900" fill-rule="evenodd" stroke="none"/>
      <path d="M13.75 13.1 L13.65 13.3 13.45 13.35 13.25 13.3 13.15 13.1 13.25 12.85 13.45 12.8 13.65 12.85 13.75 13.1" fill="#ff9900" fill-rule="evenodd" stroke="none"/>
    </g>
  </defs>
</svg>
