<?xml version="1.0" encoding="UTF-8" standalone="no"?>
<svg xmlns:ffdec="https://www.free-decompiler.com/flash" xmlns:xlink="http://www.w3.org/1999/xlink" ffdec:objectType="frame" height="30.0px" width="30.0px" xmlns="http://www.w3.org/2000/svg">
  <g transform="matrix(1.0, 0.0, 0.0, 1.0, 0.0, 0.0)">
    <use ffdec:characterId="1" height="30.0" transform="matrix(1.0, 0.0, 0.0, 1.0, 0.0, 0.0)" width="30.0" xlink:href="#shape0"/>
    <use ffdec:characterId="3" height="27.9" transform="matrix(0.5871, 0.0, 0.0, 0.5871, 9.9238, 3.1193)" width="25.1" xlink:href="#sprite0"/>
    <use ffdec:characterId="3" height="27.9" transform="matrix(0.5871, 0.0, 0.0, 0.5871, 14.8238, 12.3693)" width="25.1" xlink:href="#sprite0"/>
    <use ffdec:characterId="4" height="17.0" transform="matrix(1.0, 0.0, 0.0, 1.0, 3.4, 8.3)" width="15.15" xlink:href="#shape2"/>
  </g>
  <defs>
    <g id="shape0" transform="matrix(1.0, 0.0, 0.0, 1.0, 0.0, 0.0)">
      <path d="M0.0 0.0 L30.0 0.0 30.0 30.0 0.0 30.0 0.0 0.0" fill="#33cc66" fill-opacity="0.0" fill-rule="evenodd" stroke="none"/>
      <path d="M30.0 26.7 L29.8 28.15 Q29.15 30.0 26.7 30.0 L3.3 30.0 Q0.85 30.0 0.2 28.15 L0.0 26.7 0.0 3.3 Q0.0 0.7 2.05 0.15 L3.3 0.0 26.7 0.0 27.95 0.15 Q30.0 0.7 30.0 3.3 L30.0 26.7" fill="#949bd0" fill-rule="evenodd" stroke="none"/>
      <path d="M10.85 8.9 Q10.3 8.9 9.65 9.7 L8.1 11.95 8.1 11.3 8.1 11.25 8.25 10.6 8.25 10.0 7.55 9.7 Q7.25 9.7 6.5 10.4 5.1 11.7 4.5 13.65 3.85 15.4 3.75 17.85 L3.75 18.25 3.75 18.3 Q3.9 21.0 5.65 22.8 6.5 23.95 7.85 24.4 L9.9 24.8 10.8 24.9 11.85 24.8 13.85 24.4 16.15 22.8 Q17.75 21.0 17.95 18.3 L17.95 18.25 17.95 18.0 Q17.95 15.45 17.2 13.3 16.6 11.75 15.4 10.3 L15.35 10.3 14.35 9.5 13.8 9.6 13.6 10.1 13.65 11.25 13.6 11.85 13.6 11.95 12.2 9.7 Q11.55 8.9 10.85 8.9 M6.85 19.45 L6.85 19.75 7.1 20.55 7.75 21.0 Q8.25 21.0 8.55 20.55 L8.85 19.55 8.85 19.4 8.85 19.35 8.85 19.05 8.55 18.45 Q8.25 18.05 7.75 18.05 7.35 18.05 7.05 18.45 L6.85 19.05 M13.05 19.05 L13.25 18.2 Q13.65 17.85 14.1 17.85 L14.2 17.85 14.75 18.2 15.05 19.05 15.05 19.55 14.75 20.35 14.2 20.8 14.1 20.8 Q13.65 20.8 13.25 20.35 L13.05 19.25 13.05 19.2 13.05 19.05 Z" fill="none" stroke="#ffffff" stroke-linecap="round" stroke-linejoin="round" stroke-width="3.5"/>
    </g>
    <g id="sprite0" transform="matrix(1.0, 0.0, 0.0, 1.0, 12.65, 13.85)">
      <use ffdec:characterId="2" height="27.9" transform="matrix(1.0, 0.0, 0.0, 1.0, -12.65, -13.85)" width="25.1" xlink:href="#shape1"/>
    </g>
    <g id="shape1" transform="matrix(1.0, 0.0, 0.0, 1.0, 12.65, 13.85)">
      <path d="M6.8 -9.95 L5.25 -11.2 Q4.65 -11.4 4.4 -11.05 4.1 -10.85 4.1 -10.25 L4.15 -8.55 4.1 -7.6 4.1 -7.5 1.95 -10.9 Q1.0 -12.1 -0.05 -12.1 -0.95 -12.1 -1.95 -10.9 L-4.25 -7.5 -4.3 -8.45 -4.3 -8.5 -4.05 -9.55 -4.05 -10.45 Q-4.55 -10.95 -5.1 -10.9 -5.6 -10.9 -6.75 -9.85 -8.85 -7.85 -9.75 -4.9 -10.75 -2.2 -10.9 1.5 L-10.9 2.15 -10.9 2.2 Q-10.7 6.35 -8.05 9.05 -6.75 10.8 -4.65 11.5 -3.2 12.1 -1.55 12.15 L-0.15 12.3 1.45 12.15 4.45 11.5 Q6.35 10.8 8.0 9.05 10.45 6.35 10.7 2.2 L10.7 2.15 10.7 1.75 Q10.7 -2.15 9.6 -5.4 8.7 -7.8 6.85 -9.95 L6.8 -9.95 M6.35 3.35 L6.35 4.1 Q6.3 4.8 5.85 5.35 5.45 6.05 5.0 6.05 L4.9 6.05 Q4.2 6.05 3.6 5.35 3.25 4.7 3.25 3.65 L3.25 3.6 3.25 3.35 3.6 2.1 Q4.2 1.5 4.9 1.5 L5.0 1.5 5.85 2.1 6.3 3.35 6.35 3.35 M-6.2 3.95 L-6.2 4.4 -5.8 5.65 -4.8 6.3 Q-4.05 6.3 -3.6 5.65 -3.15 5.05 -3.15 4.1 L-3.15 3.9 -3.15 3.85 -3.15 3.35 -3.6 2.45 Q-4.05 1.85 -4.8 1.85 -5.4 1.85 -5.85 2.45 L-6.15 3.35" fill="none" stroke="#ffffff" stroke-linecap="round" stroke-linejoin="round" stroke-opacity="0.5764706" stroke-width="3.5"/>
      <path d="M7.0 -10.1 L7.05 -10.1 Q8.9 -7.95 9.8 -5.55 10.9 -2.3 10.9 1.6 L10.9 2.0 10.9 2.05 Q10.65 6.2 8.2 8.9 6.55 10.65 4.65 11.35 3.1 11.95 1.65 12.0 L0.05 12.15 -1.35 12.0 Q-3.0 11.95 -4.45 11.35 -6.55 10.65 -7.85 8.9 -10.5 6.2 -10.7 2.05 L-10.7 2.0 -10.7 1.35 Q-10.55 -2.35 -9.55 -5.05 -8.65 -8.0 -6.55 -10.0 L-4.9 -11.05 Q-4.35 -11.1 -3.85 -10.6 L-3.85 -9.7 -4.1 -8.65 -4.1 -8.6 -4.05 -7.65 -1.75 -11.05 Q-0.75 -12.25 0.15 -12.25 1.2 -12.25 2.15 -11.05 L4.3 -7.65 4.3 -7.75 4.35 -8.7 4.3 -10.4 Q4.3 -11.0 4.6 -11.2 L5.45 -11.35 7.0 -10.1 M8.3 4.25 L8.2 4.25 8.3 4.45 8.3 4.25 M8.2 3.5 Q8.65 1.95 7.05 0.95 6.1 0.35 4.9 0.7 L1.65 1.3 0.05 1.35 -1.35 1.3 -1.4 1.3 -4.65 0.7 Q-5.85 0.35 -6.8 0.95 L-7.65 1.7 Q-7.85 -3.85 -5.1 -10.1 L-5.9 -9.3 Q-7.75 -7.65 -8.65 -4.8 -9.6 -2.25 -9.75 1.35 L-9.75 2.0 Q-9.55 5.9 -7.15 8.35 -6.2 9.65 -4.8 10.3 -6.0 8.15 -6.8 5.9 L-6.4 6.45 Q-5.1 7.45 -3.85 7.85 L-1.35 8.3 0.3 8.35 0.45 8.35 3.35 8.05 3.4 8.05 Q5.15 7.65 6.5 6.45 7.85 5.2 8.2 3.5" fill="url(#gradient0)" fill-rule="evenodd" stroke="none"/>
      <path d="M5.2 1.35 L5.1 1.35 Q4.4 1.35 3.8 1.95 L3.45 3.2 3.45 3.45 3.45 3.5 Q3.45 4.55 3.8 5.2 4.4 5.9 5.1 5.9 L5.2 5.9 6.05 5.2 Q6.5 4.65 6.55 3.95 L6.55 3.2 6.5 3.2 6.05 1.95 Q5.65 1.35 5.2 1.35 M8.2 3.5 Q7.85 5.2 6.5 6.45 5.15 7.65 3.4 8.05 L3.35 8.05 0.45 8.35 0.3 8.35 -1.35 8.3 -3.85 7.85 Q-5.1 7.45 -6.4 6.45 L-6.8 5.9 Q-6.0 8.15 -4.8 10.3 -6.2 9.65 -7.15 8.35 -9.55 5.9 -9.75 2.0 L-9.75 1.35 Q-9.6 -2.25 -8.65 -4.8 -7.75 -7.65 -5.9 -9.3 L-5.1 -10.1 Q-7.85 -3.85 -7.65 1.7 L-6.8 0.95 Q-5.85 0.35 -4.65 0.7 L-1.4 1.3 -1.35 1.3 0.05 1.35 1.65 1.3 4.9 0.7 Q6.1 0.35 7.05 0.95 8.65 1.95 8.2 3.5 M-6.0 3.55 L-6.0 3.7 -6.0 3.8 -6.0 4.25 -5.6 5.5 -4.6 6.15 Q-3.85 6.15 -3.4 5.5 -2.95 4.9 -2.95 3.95 L-2.95 3.75 -2.95 3.7 -2.95 3.2 -3.4 2.3 Q-3.85 1.7 -4.6 1.7 -5.2 1.7 -5.65 2.3 L-5.95 3.2 -6.0 3.55" fill="#cccccc" fill-opacity="0.5764706" fill-rule="evenodd" stroke="none"/>
      <path d="M5.2 1.35 Q5.65 1.35 6.05 1.95 L6.5 3.2 6.55 3.2 6.55 3.95 Q6.5 4.65 6.05 5.2 L5.2 5.9 5.1 5.9 Q4.4 5.9 3.8 5.2 3.45 4.55 3.45 3.5 L3.45 3.45 3.45 3.2 3.8 1.95 Q4.4 1.35 5.1 1.35 L5.2 1.35 M8.3 4.25 L8.3 4.45 8.2 4.25 8.3 4.25 M-5.95 3.2 L-5.65 2.3 Q-5.2 1.7 -4.6 1.7 -3.85 1.7 -3.4 2.3 L-2.95 3.2 -2.95 3.7 -2.95 3.75 -2.95 3.95 Q-2.95 4.9 -3.4 5.5 -3.85 6.15 -4.6 6.15 L-5.6 5.5 -6.0 4.25 -6.0 3.8 -6.0 3.7 -6.0 3.55 -5.9 3.2 -5.95 3.2" fill="#ffffff" fill-opacity="0.5764706" fill-rule="evenodd" stroke="none"/>
      <path d="M7.0 -10.1 L5.45 -11.35 4.6 -11.2 Q4.3 -11.0 4.3 -10.4 L4.35 -8.7 4.3 -7.75 4.3 -7.65 2.15 -11.05 Q1.2 -12.25 0.15 -12.25 -0.75 -12.25 -1.75 -11.05 L-4.05 -7.65 -4.1 -8.6 -4.1 -8.65 -3.85 -9.7 -3.85 -10.6 Q-4.35 -11.1 -4.9 -11.05 L-6.55 -10.0 Q-8.65 -8.0 -9.55 -5.05 -10.55 -2.35 -10.7 1.35 L-10.7 2.0 -10.7 2.05 Q-10.5 6.2 -7.85 8.9 -6.55 10.65 -4.45 11.35 -3.0 11.95 -1.35 12.0 L0.05 12.15 1.65 12.0 Q3.1 11.95 4.65 11.35 6.55 10.65 8.2 8.9 10.65 6.2 10.9 2.05 L10.9 2.0 10.9 1.6 Q10.9 -2.3 9.8 -5.55 8.9 -7.95 7.05 -10.1 L7.0 -10.1" fill="none" stroke="#000000" stroke-linecap="round" stroke-linejoin="round" stroke-opacity="0.5764706" stroke-width="1.0"/>
      <path d="M5.2 1.35 Q5.65 1.35 6.05 1.95 L6.5 3.2 6.55 3.2 6.55 3.95 Q6.5 4.65 6.05 5.2 L5.2 5.9 5.1 5.9 Q4.4 5.9 3.8 5.2 3.45 4.55 3.45 3.5 L3.45 3.45 3.45 3.2 3.8 1.95 Q4.4 1.35 5.1 1.35 L5.2 1.35 M-6.0 3.55 L-6.0 3.7 -6.0 3.8 -6.0 4.25 -5.6 5.5 -4.6 6.15 Q-3.85 6.15 -3.4 5.5 -2.95 4.9 -2.95 3.95 L-2.95 3.75 -2.95 3.7 -2.95 3.2 -3.4 2.3 Q-3.85 1.7 -4.6 1.7 -5.2 1.7 -5.65 2.3 L-5.95 3.2" fill="none" stroke="#000000" stroke-linecap="round" stroke-linejoin="round" stroke-opacity="0.5764706" stroke-width="0.8"/>
    </g>
    <linearGradient gradientTransform="matrix(0.0, 0.0122, -0.0132, 0.0, 0.05, 0.2)" gradientUnits="userSpaceOnUse" id="gradient0" spreadMethod="pad" x1="-819.2" x2="819.2">
      <stop offset="0.0" stop-color="#666666" stop-opacity="0.5764706"/>
      <stop offset="1.0" stop-color="#000000" stop-opacity="0.5764706"/>
    </linearGradient>
    <g id="shape2" transform="matrix(1.0, 0.0, 0.0, 1.0, -3.4, -8.3)">
      <path d="M11.0 8.8 Q11.7 8.8 12.3 9.6 L13.75 11.85 13.75 11.75 13.75 11.15 13.75 10.0 13.95 9.5 14.5 9.4 15.5 10.2 15.55 10.2 Q16.75 11.65 17.35 13.2 18.05 15.35 18.05 17.9 L18.05 18.15 18.05 18.2 Q17.9 20.9 16.3 22.7 15.2 23.85 13.95 24.3 L12.0 24.7 10.95 24.8 10.0 24.7 8.0 24.3 Q6.6 23.85 5.75 22.7 4.0 20.9 3.9 18.2 L3.9 18.15 3.9 17.75 Q4.0 15.3 4.65 13.55 5.25 11.6 6.6 10.3 L7.7 9.6 Q8.05 9.55 8.4 9.9 L8.4 10.5 8.2 11.15 8.2 11.2 8.25 11.85 9.75 9.6 Q10.4 8.8 11.0 8.8 M7.05 10.75 Q5.8 11.85 5.25 13.7 4.6 15.35 4.5 17.75 L4.5 18.15 Q4.65 20.7 6.2 22.3 6.85 23.2 7.75 23.6 6.95 22.2 6.45 20.7 L6.7 21.1 Q7.55 21.75 8.4 22.0 L10.0 22.3 11.1 22.3 11.2 22.3 13.1 22.15 13.15 22.15 Q14.3 21.85 15.15 21.1 16.05 20.25 16.3 19.15 16.6 18.1 15.55 17.45 L14.1 17.3 12.0 17.7 10.95 17.75 10.0 17.7 7.85 17.3 6.45 17.45 5.9 17.95 Q5.75 14.3 7.55 10.2 L7.05 10.75 M16.35 19.65 L16.3 19.65 16.35 19.75 16.35 19.65" fill="url(#gradient1)" fill-rule="evenodd" stroke="none"/>
      <path d="M7.05 10.75 L7.55 10.2 Q5.75 14.3 5.9 17.95 L6.45 17.45 7.85 17.3 10.0 17.7 10.95 17.75 12.0 17.7 14.1 17.3 15.55 17.45 Q16.6 18.1 16.3 19.15 16.05 20.25 15.15 21.1 14.3 21.85 13.15 22.15 L13.1 22.15 11.2 22.3 11.1 22.3 10.0 22.3 8.4 22.0 Q7.55 21.75 6.7 21.1 L6.45 20.7 Q6.95 22.2 7.75 23.6 6.85 23.2 6.2 22.3 4.65 20.7 4.5 18.15 L4.5 17.75 Q4.6 15.35 5.25 13.7 5.8 11.85 7.05 10.75 M6.95 19.15 L6.95 19.25 6.95 19.35 6.95 19.65 7.25 20.45 7.9 20.9 Q8.4 20.9 8.7 20.45 L8.95 19.45 8.95 19.3 8.95 19.25 8.95 18.95 8.7 18.35 Q8.4 17.95 7.9 17.95 7.5 17.95 7.2 18.35 L7.0 18.95 6.95 19.15 M14.9 18.1 Q14.6 17.75 14.3 17.75 L14.25 17.75 Q13.8 17.75 13.4 18.1 L13.15 18.95 13.15 19.1 13.15 19.15 Q13.15 19.85 13.4 20.25 13.8 20.7 14.25 20.7 L14.3 20.7 14.9 20.25 15.2 19.45 15.2 18.95 15.15 18.95 14.9 18.1" fill="#cccccc" fill-rule="evenodd" stroke="none"/>
      <path d="M6.95 19.15 L7.05 18.95 7.0 18.95 7.2 18.35 Q7.5 17.95 7.9 17.95 8.4 17.95 8.7 18.35 L8.95 18.95 8.95 19.25 8.95 19.3 8.95 19.45 8.7 20.45 Q8.4 20.9 7.9 20.9 L7.25 20.45 6.95 19.65 6.95 19.35 6.95 19.25 6.95 19.15 M14.9 18.1 L15.15 18.95 15.2 18.95 15.2 19.45 14.9 20.25 14.3 20.7 14.25 20.7 Q13.8 20.7 13.4 20.25 13.15 19.85 13.15 19.15 L13.15 19.1 13.15 18.95 13.4 18.1 Q13.8 17.75 14.25 17.75 L14.3 17.75 Q14.6 17.75 14.9 18.1 M16.35 19.65 L16.35 19.75 16.3 19.65 16.35 19.65" fill="#ffffff" fill-rule="evenodd" stroke="none"/>
      <path d="M11.0 8.8 Q10.4 8.8 9.75 9.6 L8.25 11.85 8.2 11.2 8.2 11.15 8.4 10.5 8.4 9.9 Q8.05 9.55 7.7 9.6 L6.6 10.3 Q5.25 11.6 4.65 13.55 4.0 15.3 3.9 17.75 L3.9 18.15 3.9 18.2 Q4.0 20.9 5.75 22.7 6.6 23.85 8.0 24.3 L10.0 24.7 10.95 24.8 12.0 24.7 13.95 24.3 Q15.2 23.85 16.3 22.7 17.9 20.9 18.05 18.2 L18.05 18.15 18.05 17.9 Q18.05 15.35 17.35 13.2 16.75 11.65 15.55 10.2 L15.5 10.2 14.5 9.4 13.95 9.5 13.75 10.0 13.75 11.15 13.75 11.75 13.75 11.85 12.3 9.6 Q11.7 8.8 11.0 8.8" fill="none" stroke="#000000" stroke-linecap="round" stroke-linejoin="round" stroke-width="1.0"/>
      <path d="M6.95 19.15 L6.95 19.25 6.95 19.35 6.95 19.65 7.25 20.45 7.9 20.9 Q8.4 20.9 8.7 20.45 L8.95 19.45 8.95 19.3 8.95 19.25 8.95 18.95 8.7 18.35 Q8.4 17.95 7.9 17.95 7.5 17.95 7.2 18.35 L7.0 18.95 M14.9 18.1 L15.15 18.95 15.2 18.95 15.2 19.45 14.9 20.25 14.3 20.7 14.25 20.7 Q13.8 20.7 13.4 20.25 13.15 19.85 13.15 19.15 L13.15 19.1 13.15 18.95 13.4 18.1 Q13.8 17.75 14.25 17.75 L14.3 17.75 Q14.6 17.75 14.9 18.1 Z" fill="none" stroke="#000000" stroke-linecap="round" stroke-linejoin="round" stroke-width="0.8"/>
    </g>
    <linearGradient gradientTransform="matrix(0.0, 0.008, -0.0086, 0.0, 10.95, 17.0)" gradientUnits="userSpaceOnUse" id="gradient1" spreadMethod="pad" x1="-819.2" x2="819.2">
      <stop offset="0.0" stop-color="#666666"/>
      <stop offset="1.0" stop-color="#000000"/>
    </linearGradient>
  </defs>
</svg>
