<?xml version="1.0" encoding="UTF-8" standalone="no"?>
<svg xmlns:ffdec="https://www.free-decompiler.com/flash" xmlns:xlink="http://www.w3.org/1999/xlink" ffdec:objectType="frame" height="30.0px" width="30.0px" xmlns="http://www.w3.org/2000/svg">
  <g transform="matrix(1.0, 0.0, 0.0, 1.0, 0.0, 0.0)">
    <use ffdec:characterId="1" height="30.0" transform="matrix(1.0, 0.0, 0.0, 1.0, 0.0, 0.0)" width="30.0" xlink:href="#shape0"/>
  </g>
  <defs>
    <g id="shape0" transform="matrix(1.0, 0.0, 0.0, 1.0, 0.0, 0.0)">
      <path d="M0.0 0.0 L30.0 0.0 30.0 30.0 0.0 30.0 0.0 0.0" fill="#33cc66" fill-opacity="0.0" fill-rule="evenodd" stroke="none"/>
      <path d="M0.0 3.3 Q0.0 0.0 3.3 0.0 L26.7 0.0 Q30.0 0.0 30.0 3.3 L30.0 26.7 Q30.0 30.0 26.7 30.0 L3.3 30.0 Q0.0 30.0 0.0 26.7 L0.0 3.3" fill="#70cb4e" fill-rule="evenodd" stroke="none"/>
      <path d="M9.15 3.6 L9.05 3.6 8.6 3.6 7.95 4.65 7.9 4.75 7.2 6.65 Q5.95 7.65 4.85 8.8 L4.7 9.0 4.55 9.1 4.2 9.6 3.85 10.2 3.95 10.4 3.9 11.75 Q3.7 12.75 4.3 13.75 4.85 14.75 5.3 15.05 5.7 15.3 5.65 15.85 L5.2 17.2 Q4.8 18.0 6.8 18.2 L7.65 20.3 8.4 22.25 7.9 22.45 Q6.6 23.9 7.9 24.45 7.65 27.9 8.8 24.45 10.1 26.05 11.4 24.45 15.4 30.85 14.8 24.45 18.5 28.65 21.25 24.45 21.95 25.15 22.65 24.45 23.6 25.7 24.1 24.45 25.0 26.2 25.65 24.45 L25.65 23.2 25.5 20.65 25.45 20.25 25.8 19.95 Q26.5 19.15 26.5 17.65 L26.3 16.4 26.1 16.35 26.05 16.3 25.85 16.2 24.3 15.75 24.65 15.05 24.95 14.2 Q25.45 12.7 25.5 11.0 L25.5 10.65 25.25 7.7 25.15 7.5 23.3 5.35 23.0 5.1 22.6 4.75 21.35 3.8 Q20.45 3.2 19.5 2.95 L18.15 2.75 17.3 2.8 17.2 2.8 16.4 2.95 14.8 3.45 13.2 4.45 12.05 4.1 11.85 4.05 10.95 3.85 9.75 3.65 9.15 3.6 Z" fill="none" stroke="#ffffff" stroke-linecap="round" stroke-linejoin="round" stroke-width="3.0"/>
      <path d="M6.8 18.2 Q4.8 18.0 5.2 17.2 L5.65 15.85 Q5.7 15.3 5.3 15.05 4.85 14.75 4.3 13.75 3.7 12.75 3.9 11.75 L3.95 10.4 3.85 10.2 4.2 9.6 4.55 9.1 4.7 9.0 4.85 8.8 Q5.95 7.65 7.2 6.65 L7.9 4.75 7.95 4.65 8.6 3.6 9.05 3.6 9.15 3.6 9.75 3.65 10.95 3.85 10.2 4.3 9.8 4.5 9.35 4.95 8.35 6.3 8.0 7.15 7.7 7.85 7.55 8.35 7.45 8.75 7.4 10.45 Q7.4 13.85 8.75 17.5 L6.8 18.2" fill="#c24c1a" fill-rule="evenodd" stroke="none"/>
      <path d="M9.8 4.5 L10.2 4.3 10.95 3.85 11.85 4.05 11.9 4.2 12.05 4.1 13.2 4.45 14.8 3.45 16.4 2.95 17.2 2.8 17.3 2.8 18.15 2.75 19.5 2.95 Q20.45 3.2 21.35 3.8 L22.6 4.75 23.0 5.1 23.3 5.35 25.15 7.5 25.0 7.6 24.45 9.0 23.45 10.1 23.4 10.15 23.3 10.1 23.15 9.95 22.75 9.75 Q22.15 9.75 22.05 10.15 L22.0 10.65 22.0 10.85 21.65 10.9 20.95 11.05 20.7 11.1 20.65 11.1 20.65 10.65 20.65 10.3 20.55 9.25 20.45 9.05 20.05 8.55 19.95 8.5 19.8 8.4 19.35 8.3 19.35 8.25 15.35 6.1 Q12.9 5.05 10.7 4.65 L10.4 4.6 9.8 4.5 M21.3 4.95 Q20.65 5.05 20.3 5.4 20.0 5.8 20.0 6.6 20.0 7.2 20.5 7.6 L20.55 7.65 Q20.9 7.9 21.35 7.95 L21.55 7.95 Q22.35 7.95 22.65 7.6 L22.95 6.6 23.0 6.35 22.65 5.6 22.25 5.15 21.8 4.9 21.7 4.9 21.3 4.95" fill="#919d1f" fill-rule="evenodd" stroke="none"/>
      <path d="M21.3 4.95 L21.7 4.9 21.8 4.9 22.25 5.15 22.65 5.6 23.0 6.35 22.95 6.6 22.65 7.6 Q22.35 7.95 21.55 7.95 L21.35 7.95 Q20.9 7.9 20.55 7.65 L20.5 7.6 Q20.0 7.2 20.0 6.6 20.0 5.8 20.3 5.4 20.65 5.05 21.3 4.95" fill="#86c737" fill-rule="evenodd" stroke="none"/>
      <path d="M22.0 10.85 L22.0 10.65 22.05 10.15 Q22.15 9.75 22.75 9.75 L23.15 9.95 23.3 10.1 23.4 10.15 22.65 10.6 22.0 10.85 M19.35 8.3 L19.8 8.4 19.95 8.5 20.05 8.55 20.45 9.05 20.55 9.25 20.65 10.3 20.65 10.65 20.65 11.1 19.95 11.1 19.65 11.1 19.35 8.3" fill="#96a226" fill-rule="evenodd" stroke="none"/>
      <path d="M25.15 7.5 L25.25 7.7 25.5 10.65 25.5 11.0 Q25.45 12.7 24.95 14.2 L23.85 14.7 22.25 15.25 21.45 15.5 21.15 14.65 Q20.75 13.6 20.15 13.6 L19.55 13.65 19.4 13.7 19.35 13.7 19.2 12.7 19.6 12.6 19.7 12.55 20.15 12.3 Q20.55 11.95 20.65 11.1 L20.7 11.1 20.95 11.05 21.65 10.9 22.0 10.85 22.0 10.95 22.05 10.95 Q22.2 11.55 22.8 11.55 L23.35 11.3 23.45 11.25 23.75 10.75 23.6 10.4 23.45 10.1 24.45 9.0 25.0 7.6 25.15 7.5" fill="#a27e20" fill-rule="evenodd" stroke="none"/>
      <path d="M23.4 10.15 L23.45 10.1 23.6 10.4 23.75 10.75 23.45 11.25 23.35 11.3 22.8 11.55 Q22.2 11.55 22.05 10.95 L22.0 10.95 22.0 10.85 22.65 10.6 23.4 10.15 M20.65 11.1 Q20.55 11.95 20.15 12.3 L19.7 12.55 19.6 12.6 19.65 11.95 19.65 11.1 19.95 11.1 20.65 11.1" fill="#9e9826" fill-rule="evenodd" stroke="none"/>
      <path d="M24.95 14.2 L24.65 15.05 24.3 15.75 25.85 16.2 26.05 16.3 26.1 16.4 26.15 16.85 Q26.15 18.05 24.15 18.7 L23.75 18.8 23.0 18.95 22.95 18.95 19.9 19.15 19.0 19.1 19.1 18.0 19.3 18.0 19.4 18.0 Q20.35 18.0 21.0 17.15 21.5 16.5 21.5 15.85 L21.45 15.5 22.25 15.25 23.85 14.7 24.95 14.2" fill="#b16819" fill-rule="evenodd" stroke="none"/>
      <path d="M21.45 15.5 L21.5 15.85 Q21.5 16.5 21.0 17.15 20.35 18.0 19.4 18.0 L19.3 18.0 19.1 18.0 19.0 18.0 18.7 17.95 18.0 17.7 17.95 17.65 17.2 16.9 18.25 15.75 19.25 15.8 20.05 15.85 21.45 15.5" fill="#a67e1c" fill-rule="evenodd" stroke="none"/>
      <path d="M10.4 4.6 L10.7 4.65 Q12.9 5.05 15.35 6.1 L19.35 8.25 19.35 8.3 19.65 11.1 19.45 11.1 Q17.95 11.1 16.05 9.4 L15.95 9.3 14.7 8.1 14.4 7.75 14.35 7.7 14.25 7.6 12.75 5.55 10.75 5.2 10.55 4.85 10.4 4.6" fill="#b8c62e" fill-rule="evenodd" stroke="none"/>
      <path d="M19.2 12.7 L19.35 13.7 19.4 13.7 18.25 15.75 16.95 15.6 16.8 15.55 14.3 14.85 13.65 14.5 13.45 14.4 13.6 13.1 13.7 11.8 13.75 11.65 13.05 9.95 12.2 8.05 10.75 5.2 12.75 5.55 14.25 7.6 14.35 7.7 14.4 7.75 14.7 8.1 15.95 9.3 16.05 9.4 15.95 9.5 Q15.6 10.05 15.6 10.65 15.6 11.3 16.25 11.95 L16.45 12.1 Q17.3 12.8 18.15 12.8 L19.2 12.7" fill="#bf9222" fill-rule="evenodd" stroke="none"/>
      <path d="M7.7 7.85 L8.0 7.15 8.35 6.3 9.35 4.95 9.8 4.5 10.4 4.6 10.55 4.85 10.75 5.2 12.2 8.05 13.05 9.95 13.75 11.65 13.7 11.8 13.6 13.1 13.45 14.4 13.65 14.5 14.3 14.85 16.8 15.55 16.95 15.6 18.25 15.75 17.2 16.9 16.05 17.8 15.15 18.4 15.0 18.3 13.75 17.9 13.65 17.85 13.3 17.75 12.75 17.6 10.9 16.25 10.35 15.7 10.0 15.3 9.55 14.7 9.5 14.6 Q7.75 12.05 7.75 9.1 L7.8 8.65 7.85 8.2 8.0 7.75 7.7 7.85" fill="#cc8422" fill-rule="evenodd" stroke="none"/>
      <path d="M19.6 12.6 L19.2 12.7 18.15 12.8 Q17.3 12.8 16.45 12.1 L16.25 11.95 Q15.6 11.3 15.6 10.65 15.6 10.05 15.95 9.5 L16.05 9.4 Q17.95 11.1 19.45 11.1 L19.65 11.1 19.65 11.95 19.6 12.6" fill="#aaa429" fill-rule="evenodd" stroke="none"/>
      <path d="M19.4 13.7 L19.55 13.65 20.15 13.6 Q20.75 13.6 21.15 14.65 L21.45 15.5 20.05 15.85 19.25 15.8 18.25 15.75 19.4 13.7" fill="#a6801f" fill-rule="evenodd" stroke="none"/>
      <path d="M19.1 18.0 L19.0 19.1 18.9 19.1 18.8 19.1 18.7 19.1 18.25 19.05 17.7 18.95 17.55 18.95 17.45 18.95 16.1 18.65 15.15 18.4 16.05 17.8 17.2 16.9 17.95 17.65 18.0 17.7 18.7 17.95 19.0 18.0 19.1 18.0" fill="#ab721b" fill-rule="evenodd" stroke="none"/>
      <path d="M19.0 19.1 L19.9 19.15 22.95 18.95 23.0 18.95 23.75 18.8 24.0 20.0 Q23.55 20.05 23.25 20.4 L23.2 20.45 23.15 20.55 23.0 21.1 23.0 21.3 22.85 21.35 Q21.95 22.55 21.0 22.95 L20.95 23.0 20.45 23.15 19.65 23.2 18.95 23.15 Q17.75 23.05 17.3 22.55 16.95 22.15 16.95 21.35 L17.15 20.4 17.7 19.8 17.8 19.65 17.9 19.65 18.85 19.35 18.95 19.35 18.8 19.15 18.7 19.15 18.2 19.1 17.7 19.0 17.55 18.95 17.7 18.95 18.25 19.05 18.7 19.1 18.8 19.1 18.9 19.1 19.0 19.1" fill="#b75b1a" fill-rule="evenodd" stroke="none"/>
      <path d="M17.55 18.95 L17.7 19.0 18.2 19.1 18.7 19.15 18.8 19.15 18.95 19.35 18.85 19.35 18.15 19.35 18.05 19.35 17.8 19.35 15.3 19.6 15.2 19.6 13.9 19.65 13.35 19.3 13.3 19.3 13.25 19.25 Q13.9 19.0 14.5 18.7 L15.05 18.45 15.15 18.4 16.1 18.65 17.45 18.95 17.55 18.95" fill="#b5631a" fill-rule="evenodd" stroke="none"/>
      <path d="M6.8 18.2 L8.75 17.5 8.8 17.5 11.7 18.95 12.7 19.4 13.25 19.25 13.3 19.3 13.35 19.3 13.9 19.65 15.2 19.6 15.3 19.6 17.8 19.35 18.05 19.35 18.15 19.35 18.85 19.35 17.9 19.65 17.8 19.65 17.7 19.8 17.15 20.4 16.95 21.35 Q16.95 22.15 17.3 22.55 17.75 23.05 18.95 23.15 L19.65 23.2 20.45 23.15 20.95 23.0 21.0 22.95 Q21.95 22.55 22.85 21.35 L23.0 21.3 23.3 22.05 23.35 22.1 23.7 22.4 24.0 22.55 24.15 22.5 24.1 24.25 24.1 24.45 Q23.6 25.7 22.65 24.45 L22.65 24.35 22.25 24.3 21.8 24.2 21.4 24.3 21.25 24.45 Q18.5 28.65 14.8 24.45 L13.95 23.6 12.2 21.8 11.8 21.4 11.55 21.2 10.8 21.4 10.35 21.55 9.45 21.85 9.4 21.9 9.35 21.9 8.95 22.0 8.4 22.25 7.65 20.3 6.8 18.2" fill="#a33c0f" fill-rule="evenodd" stroke="none"/>
      <path d="M8.75 17.5 Q7.4 13.85 7.4 10.45 L7.45 8.75 7.55 8.35 7.7 7.85 8.0 7.75 7.85 8.2 7.8 8.65 7.75 9.1 Q7.75 12.05 9.5 14.6 L9.55 14.7 10.0 15.3 10.35 15.7 10.9 16.25 12.75 17.6 13.3 17.75 13.65 17.85 13.75 17.9 15.0 18.3 15.15 18.4 15.05 18.45 14.5 18.7 Q13.9 19.0 13.25 19.25 L12.7 19.4 11.7 18.95 8.8 17.5 8.75 17.5 M14.8 24.45 Q15.4 30.85 11.4 24.45 L11.5 24.1 11.6 23.45 Q11.6 22.9 11.25 22.7 L10.85 22.55 10.45 22.55 9.75 22.6 9.7 22.6 9.2 22.9 9.15 22.95 Q8.75 23.3 8.75 24.1 L8.8 24.45 Q7.65 27.9 7.9 24.45 6.6 23.9 7.9 22.45 L8.4 22.25 8.95 22.0 9.35 21.9 9.4 21.9 9.45 21.85 10.35 21.55 10.8 21.4 11.55 21.2 11.8 21.4 12.2 21.8 13.95 23.6 14.8 24.45" fill="#e87425" fill-rule="evenodd" stroke="none"/>
      <path d="M11.4 24.45 Q10.1 26.05 8.8 24.45 L8.75 24.1 Q8.75 23.3 9.15 22.95 L9.2 22.9 9.7 22.6 9.75 22.6 10.45 22.55 10.85 22.55 11.25 22.7 Q11.6 22.9 11.6 23.45 L11.5 24.1 11.4 24.45" fill="#ed9934" fill-rule="evenodd" stroke="none"/>
      <path d="M26.05 16.3 L26.1 16.35 26.3 16.4 26.5 17.65 Q26.5 19.15 25.8 19.95 L25.45 20.25 25.5 20.65 25.15 20.7 24.7 20.3 24.1 20.0 24.0 20.0 23.75 18.8 24.15 18.7 Q26.15 18.05 26.15 16.85 L26.1 16.4 26.05 16.3" fill="#ba6316" fill-rule="evenodd" stroke="none"/>
      <path d="M23.0 21.3 L23.0 21.1 23.15 20.55 23.2 20.45 23.25 20.4 Q23.55 20.05 24.0 20.0 L24.1 20.0 24.7 20.3 25.15 20.7 24.95 20.75 25.0 21.0 24.7 22.0 24.15 22.5 24.0 22.55 23.7 22.4 23.35 22.1 23.3 22.05 23.0 21.3" fill="#b56621" fill-rule="evenodd" stroke="none"/>
      <path d="M25.5 20.65 L25.65 23.2 25.65 24.45 Q25.0 26.2 24.1 24.45 L24.1 24.25 24.15 22.5 24.7 22.0 25.0 21.0 24.95 20.75 25.15 20.7 25.5 20.65" fill="#ad6f64" fill-rule="evenodd" stroke="none"/>
      <path d="M22.65 24.45 Q21.95 25.15 21.25 24.45 L21.4 24.3 21.8 24.2 22.25 24.3 22.65 24.35 22.65 24.45" fill="#c26a2b" fill-rule="evenodd" stroke="none"/>
      <path d="M10.95 3.85 L9.75 3.65 9.15 3.6 9.05 3.6 8.6 3.6 7.95 4.65 7.9 4.75 7.2 6.65 Q5.95 7.65 4.85 8.8 L4.7 9.0 4.55 9.1 4.2 9.6 3.85 10.2 3.95 10.4 3.9 11.75 Q3.7 12.75 4.3 13.75 4.85 14.75 5.3 15.05 5.7 15.3 5.65 15.85 L5.2 17.2 Q4.8 18.0 6.8 18.2 L7.65 20.3 8.4 22.25 7.9 22.45 Q6.6 23.9 7.9 24.45 7.65 27.9 8.8 24.45 10.1 26.05 11.4 24.45 15.4 30.85 14.8 24.45 18.5 28.65 21.25 24.45 21.95 25.15 22.65 24.45 23.6 25.7 24.1 24.45 25.0 26.2 25.65 24.45 L25.65 23.2 25.5 20.65 25.45 20.25 25.8 19.95 Q26.5 19.15 26.5 17.65 L26.3 16.4 26.1 16.35 26.05 16.3 25.85 16.2 24.3 15.75 24.65 15.05 24.95 14.2 Q25.45 12.7 25.5 11.0 L25.5 10.65 25.25 7.7 25.15 7.5 23.3 5.35 23.0 5.1 22.6 4.75 21.35 3.8 Q20.45 3.2 19.5 2.95 L18.15 2.75 17.3 2.8 17.2 2.8 16.4 2.95 14.8 3.45 13.2 4.45 12.05 4.1 11.85 4.05 10.95 3.85 Z" fill="none" stroke="#4d0101" stroke-linecap="round" stroke-linejoin="round" stroke-width="1.0"/>
    </g>
  </defs>
</svg>
