<?xml version="1.0" encoding="UTF-8" standalone="no"?>
<svg xmlns:ffdec="https://www.free-decompiler.com/flash" xmlns:xlink="http://www.w3.org/1999/xlink" ffdec:objectType="frame" height="30.0px" width="30.0px" xmlns="http://www.w3.org/2000/svg">
  <g transform="matrix(1.0, 0.0, 0.0, 1.0, 0.0, 0.0)">
    <use ffdec:characterId="1" height="30.0" transform="matrix(1.0, 0.0, 0.0, 1.0, 0.0, 0.0)" width="30.0" xlink:href="#shape0"/>
  </g>
  <defs>
    <g id="shape0" transform="matrix(1.0, 0.0, 0.0, 1.0, 0.0, 0.0)">
      <path d="M0.0 0.0 L30.0 0.0 30.0 30.0 0.0 30.0 0.0 0.0" fill="#33cc66" fill-opacity="0.0" fill-rule="evenodd" stroke="none"/>
      <path d="M0.0 3.3 Q0.0 0.0 3.3 0.0 L26.7 0.0 Q30.0 0.0 30.0 3.3 L30.0 26.7 Q30.0 30.0 26.7 30.0 L3.3 30.0 Q0.0 30.0 0.0 26.7 L0.0 3.3" fill="#70cb4e" fill-rule="evenodd" stroke="none"/>
      <path d="M9.4 12.5 L10.7 11.95 13.1 9.8 14.45 10.2 16.55 11.65 Q16.5 12.45 16.95 13.0 17.45 13.8 18.75 13.95 L19.65 16.4 19.4 17.45 17.6 18.9 16.35 20.85 16.3 20.3 16.9 18.6 17.0 18.5 18.95 16.8 18.35 15.25 17.6 14.35 15.65 13.8 15.65 13.75 15.95 12.55 14.85 11.3 13.15 10.85 11.9 12.0 9.4 12.5 M27.75 7.7 L25.6 9.4 25.0 9.2 24.95 9.25 Q23.95 9.0 23.55 8.3 L25.65 6.75 Q26.35 7.45 27.75 7.7" fill="#4d575e" fill-rule="evenodd" stroke="none"/>
      <path d="M25.25 4.75 Q26.15 4.7 26.75 5.1 L27.4 5.65 27.6 6.3 27.7 6.4 Q27.95 6.95 27.75 7.7 26.35 7.45 25.65 6.75 L25.35 6.25 25.15 5.4 25.25 4.75 M16.3 20.3 L16.1 18.2 16.2 18.1 17.0 18.5 16.9 18.6 16.3 20.3 M5.8 21.85 L4.65 22.6 15.15 13.6 15.65 13.75 15.65 13.8 5.8 21.85 M12.3 13.0 L9.05 12.65 9.4 12.5 11.9 12.0 12.3 13.0" fill="#a3aeb4" fill-rule="evenodd" stroke="none"/>
      <path d="M23.25 6.85 L23.2 6.3 25.25 4.75 25.15 5.4 23.25 6.85 M16.2 18.1 L17.7 17.0 17.95 16.05 17.45 15.2 16.55 15.0 5.8 21.85 15.65 13.8 17.6 14.35 18.35 15.25 18.95 16.8 17.0 18.5 16.2 18.1 M14.6 13.4 L14.8 13.15 15.0 12.35 Q14.45 12.1 13.8 11.7 L12.3 13.0 11.9 12.0 13.15 10.85 14.85 11.3 15.95 12.55 15.65 13.75 15.15 13.6 14.6 13.4 M23.25 7.6 L25.35 6.25 25.65 6.75 23.55 8.3 23.45 8.1 23.25 7.6" fill="#798996" fill-rule="evenodd" stroke="none"/>
      <path d="M4.65 22.6 L2.65 23.9 14.6 13.4 15.15 13.6 4.65 22.6" fill="#ffffff" fill-rule="evenodd" stroke="none"/>
      <path d="M23.25 6.85 L25.15 5.4 25.35 6.25 23.25 7.6 23.25 6.85" fill="#cdd2d6" fill-rule="evenodd" stroke="none"/>
      <path d="M22.45 7.4 L23.25 6.85 23.25 7.6 23.45 8.1 23.55 8.3 Q23.95 9.0 24.95 9.25 L23.4 10.4 23.4 10.45 18.75 13.95 Q17.45 13.8 16.95 13.0 L18.4 11.95 18.6 12.25 Q19.15 12.9 19.65 12.95 19.15 12.9 18.6 12.25 L18.4 11.95 19.8 10.8 21.85 9.3 Q22.2 10.25 23.4 10.45 22.2 10.25 21.85 9.3 L22.9 8.5 22.45 7.4 M21.3 11.75 Q20.5 11.7 20.0 11.1 L19.8 10.8 20.0 11.1 Q20.5 11.7 21.3 11.75" fill="#a1383d" fill-rule="evenodd" stroke="none"/>
      <path d="M16.55 11.65 L17.9 10.7 19.6 9.45 21.55 8.05 22.45 7.4 22.9 8.5 21.85 9.3 19.8 10.8 Q19.55 10.25 19.6 9.45 19.55 10.25 19.8 10.8 L18.4 11.95 16.95 13.0 Q16.5 12.45 16.55 11.65 M21.55 8.05 L21.85 9.3 21.55 8.05 M17.9 10.7 L18.4 11.95 17.9 10.7" fill="#ef626a" fill-rule="evenodd" stroke="none"/>
      <path d="M9.4 12.5 L10.7 11.95 13.1 9.8 14.45 10.2 16.55 11.65 17.9 10.7 19.6 9.45 21.55 8.05 22.45 7.4 23.25 6.85 23.2 6.3 25.25 4.75 Q26.15 4.7 26.75 5.1 L27.4 5.65 27.6 6.3 27.7 6.4 Q27.95 6.95 27.75 7.7 L25.6 9.4 25.0 9.2 24.95 9.25 23.4 10.4 23.4 10.45 18.75 13.95 19.65 16.4 19.4 17.45 17.6 18.9 16.35 20.85 16.3 20.3 16.1 18.2 16.2 18.1 17.7 17.0 17.95 16.05 17.45 15.2 16.55 15.0 5.8 21.85 4.65 22.6 2.65 23.9 14.6 13.4 14.8 13.15 15.0 12.35 Q14.45 12.1 13.8 11.7 L12.3 13.0 9.05 12.65 9.4 12.5 M23.25 6.85 L23.25 7.6 23.45 8.1 23.55 8.3 Q23.95 9.0 24.95 9.25 M21.85 9.3 L21.55 8.05 M19.8 10.8 Q19.55 10.25 19.6 9.45 M19.8 10.8 L20.0 11.1 Q20.5 11.7 21.3 11.75 M18.4 11.95 L17.9 10.7 M18.4 11.95 L18.6 12.25 Q19.15 12.9 19.65 12.95 M21.85 9.3 Q22.2 10.25 23.4 10.45" fill="none" stroke="#ffffff" stroke-linecap="round" stroke-linejoin="round" stroke-width="3.0"/>
      <path d="M9.4 12.5 L10.7 11.95 13.1 9.8 14.45 10.2 16.55 11.65 Q16.5 12.45 16.95 13.0 17.45 13.8 18.75 13.95 L19.65 16.4 19.4 17.45 17.6 18.9 16.35 20.85 16.3 20.3 16.9 18.6 17.0 18.5 18.95 16.8 18.35 15.25 17.6 14.35 15.65 13.8 15.65 13.75 15.95 12.55 14.85 11.3 13.15 10.85 11.9 12.0 9.4 12.5 M27.75 7.7 L25.6 9.4 25.0 9.2 24.95 9.25 Q23.95 9.0 23.55 8.3 L25.65 6.75 Q26.35 7.45 27.75 7.7" fill="#4d575e" fill-rule="evenodd" stroke="none"/>
      <path d="M25.25 4.75 Q26.15 4.7 26.75 5.1 L27.4 5.65 27.6 6.3 27.7 6.4 Q27.95 6.95 27.75 7.7 26.35 7.45 25.65 6.75 L25.35 6.25 25.15 5.4 25.25 4.75 M16.3 20.3 L16.1 18.2 16.2 18.1 17.0 18.5 16.9 18.6 16.3 20.3 M5.8 21.85 L4.65 22.6 15.15 13.6 15.65 13.75 15.65 13.8 5.8 21.85 M12.3 13.0 L9.05 12.65 9.4 12.5 11.9 12.0 12.3 13.0" fill="#a3aeb4" fill-rule="evenodd" stroke="none"/>
      <path d="M23.25 6.85 L23.2 6.3 25.25 4.75 25.15 5.4 23.25 6.85 M16.2 18.1 L17.7 17.0 17.95 16.05 17.45 15.2 16.55 15.0 5.8 21.85 15.65 13.8 17.6 14.35 18.35 15.25 18.95 16.8 17.0 18.5 16.2 18.1 M14.6 13.4 L14.8 13.15 15.0 12.35 13.8 11.7 12.3 13.0 11.9 12.0 13.15 10.85 14.85 11.3 15.95 12.55 15.65 13.75 15.15 13.6 14.6 13.4 M23.25 7.6 L25.35 6.25 25.65 6.75 23.55 8.3 23.45 8.1 23.25 7.6" fill="#798996" fill-rule="evenodd" stroke="none"/>
      <path d="M4.65 22.6 L2.65 23.9 14.6 13.4 15.15 13.6 4.65 22.6" fill="#ffffff" fill-rule="evenodd" stroke="none"/>
      <path d="M16.55 11.65 L17.9 10.7 19.6 9.45 21.55 8.05 22.45 7.4 22.9 8.5 21.85 9.3 21.55 8.05 21.85 9.3 19.8 10.8 18.4 11.95 17.9 10.7 18.4 11.95 16.95 13.0 Q16.5 12.45 16.55 11.65 M19.6 9.45 Q19.55 10.25 19.8 10.8 19.55 10.25 19.6 9.45" fill="#ef626a" fill-rule="evenodd" stroke="none"/>
      <path d="M25.15 5.4 L25.35 6.25 23.25 7.6 23.25 6.85 25.15 5.4" fill="#cdd2d6" fill-rule="evenodd" stroke="none"/>
      <path d="M22.45 7.4 L23.25 6.85 23.25 7.6 23.45 8.1 23.55 8.3 Q23.95 9.0 24.95 9.25 L23.4 10.4 23.4 10.45 21.45 11.95 18.75 13.95 Q17.45 13.8 16.95 13.0 L18.4 11.95 18.6 12.25 Q19.15 12.9 19.65 12.95 19.15 12.9 18.6 12.25 L18.4 11.95 19.8 10.8 20.0 11.1 Q20.5 11.7 21.45 11.95 20.5 11.7 20.0 11.1 L19.8 10.8 21.85 9.3 22.9 8.5 22.45 7.4 M23.4 10.45 Q22.2 10.25 21.85 9.3 22.2 10.25 23.4 10.45" fill="#a1383d" fill-rule="evenodd" stroke="none"/>
      <path d="M9.4 12.5 L10.7 11.95 13.1 9.8 14.45 10.2 16.55 11.65 17.9 10.7 19.6 9.45 21.55 8.05 22.45 7.4 23.25 6.85 23.2 6.3 25.25 4.75 Q26.15 4.7 26.75 5.1 L27.4 5.65 27.6 6.3 27.7 6.4 Q27.95 6.95 27.75 7.7 L25.6 9.4 25.0 9.2 24.95 9.25 23.4 10.4 23.4 10.45 21.45 11.95 18.75 13.95 19.65 16.4 19.4 17.45 17.6 18.9 16.35 20.85 16.3 20.3 16.1 18.2 16.2 18.1 17.7 17.0 17.95 16.05 17.45 15.2 16.55 15.0 5.8 21.85 4.65 22.6 2.65 23.9 14.6 13.4 14.8 13.15 15.0 12.35 13.8 11.7 12.3 13.0 9.05 12.65 9.4 12.5 M23.25 6.85 L23.25 7.6 23.45 8.1 23.55 8.3 Q23.95 9.0 24.95 9.25 M21.85 9.3 L21.55 8.05 M19.8 10.8 L20.0 11.1 Q20.5 11.7 21.45 11.95 M18.4 11.95 L18.6 12.25 Q19.15 12.9 19.65 12.95 M19.8 10.8 Q19.55 10.25 19.6 9.45 M18.4 11.95 L17.9 10.7 M21.85 9.3 Q22.2 10.25 23.4 10.45" fill="none" stroke="#29343a" stroke-linecap="round" stroke-linejoin="round" stroke-width="0.5"/>
    </g>
  </defs>
</svg>
