<?xml version="1.0" encoding="UTF-8" standalone="no"?>
<svg xmlns:ffdec="https://www.free-decompiler.com/flash" xmlns:xlink="http://www.w3.org/1999/xlink" ffdec:objectType="frame" height="30.0px" width="30.0px" xmlns="http://www.w3.org/2000/svg">
  <g transform="matrix(1.0, 0.0, 0.0, 1.0, 0.0, 0.0)">
    <use ffdec:characterId="1" height="30.0" transform="matrix(1.0, 0.0, 0.0, 1.0, 0.0, 0.0)" width="30.0" xlink:href="#shape0"/>
  </g>
  <defs>
    <g id="shape0" transform="matrix(1.0, 0.0, 0.0, 1.0, 0.0, 0.0)">
      <path d="M0.0 0.0 L30.0 0.0 30.0 30.0 0.0 30.0 0.0 0.0" fill="#33cc66" fill-opacity="0.0" fill-rule="evenodd" stroke="none"/>
      <path d="M26.7 0.0 Q30.0 0.0 30.0 3.3 L30.0 26.7 Q30.0 30.0 26.7 30.0 L3.3 30.0 Q0.0 30.0 0.0 26.7 L0.0 3.3 Q0.0 0.0 3.3 0.0 L26.7 0.0" fill="#ffcc00" fill-rule="evenodd" stroke="none"/>
      <path d="M27.9 2.05 Q28.45 4.25 28.4 5.45 28.25 7.15 27.1 8.9 L25.45 10.35 24.1 11.25 Q23.75 12.4 24.3 14.05 L26.15 19.1 26.0 20.85 Q25.75 22.45 24.8 23.9 22.65 27.25 19.1 27.4 17.35 27.45 15.5 26.75 L16.9 26.15 17.5 25.85 18.8 25.0 19.05 24.65 19.2 23.8 Q19.2 22.8 18.55 21.65 L17.8 20.65 16.35 19.2 Q16.35 18.95 17.25 18.4 L18.3 17.75 18.35 17.7 Q20.35 16.6 20.35 15.25 L20.35 15.2 20.25 14.4 19.8 13.15 19.0 11.9 18.45 11.25 18.15 10.75 Q17.6 10.0 17.6 9.6 17.6 8.95 17.95 7.85 L19.95 7.8 Q25.35 7.65 27.3 4.4 27.9 3.55 27.9 2.05 M8.8 19.0 Q8.5 18.95 8.45 18.35 L8.3 18.25 Q8.3 17.6 9.1 16.6 L9.3 16.4 Q10.05 15.85 11.1 16.6 12.25 17.3 12.8 18.35 14.4 17.4 14.4 16.4 14.4 15.55 13.75 14.5 L13.6 14.8 13.15 15.1 12.8 14.95 12.65 14.75 Q12.4 14.5 12.5 14.1 12.5 13.9 12.65 13.85 L12.7 13.55 12.9 13.35 12.4 12.7 11.95 11.95 Q11.65 11.3 11.65 10.85 11.65 9.95 11.9 9.0 L7.4 8.7 Q6.0 9.15 4.85 11.05 3.9 12.45 3.6 13.95 L3.45 14.1 Q2.65 15.3 2.25 16.45 M12.8 18.35 L12.4 18.55 11.85 18.85 11.45 19.1 Q10.4 19.75 10.4 20.3 L10.45 20.45 10.75 21.0 11.65 21.95 11.85 22.15 12.7 23.1 Q13.3 24.0 13.3 24.95 13.3 25.5 12.45 26.1 L10.75 26.95 10.35 27.05 9.2 27.5 7.15 26.35 6.75 26.1 4.85 24.65 Q2.2 22.3 1.75 19.65 1.65 18.55 1.95 17.35 L2.15 16.85" fill="none" stroke="#ffffff" stroke-linecap="round" stroke-linejoin="round" stroke-width="3.0"/>
      <path d="M3.6 13.95 Q3.9 12.45 4.85 11.05 6.0 9.15 7.4 8.7 L11.9 9.0 Q11.65 9.95 11.65 10.85 11.65 11.3 11.95 11.95 L11.25 11.8 9.85 11.6 8.65 11.2 7.65 11.2 6.8 12.2 6.2 13.35 Q5.5 14.95 5.8 16.8 6.15 19.3 8.25 20.6 L8.45 20.7 Q9.55 21.25 10.5 21.05 L10.75 21.0 11.65 21.95 10.8 22.2 8.1 21.85 6.9 21.3 Q4.35 19.5 3.65 16.9 3.35 15.85 3.45 14.95 L3.6 13.95 M12.8 18.35 L12.4 18.55 11.85 18.85 11.5 17.75 11.45 17.7 9.45 17.55 9.1 17.75 8.55 18.15 8.45 18.35 8.3 18.25 Q8.3 17.6 9.1 16.6 L9.3 16.4 Q10.05 15.85 11.1 16.6 12.25 17.3 12.8 18.35 M2.15 16.85 L2.55 18.05 2.65 18.6 2.65 18.7 3.7 21.05 Q4.6 22.75 5.85 24.05 L7.85 25.75 Q9.25 26.65 10.75 26.95 L10.35 27.05 9.2 27.5 7.15 26.35 6.75 26.1 4.85 24.65 Q2.2 22.3 1.75 19.65 1.65 18.55 1.95 17.35 L2.15 16.85" fill="#27d2f0" fill-rule="evenodd" stroke="none"/>
      <path d="M3.6 13.95 L3.45 14.95 Q3.35 15.85 3.65 16.9 4.35 19.5 6.9 21.3 L8.1 21.85 10.8 22.2 11.65 21.95 11.85 22.15 12.7 23.1 11.5 23.4 7.75 23.1 7.1 22.7 5.7 21.45 5.7 21.35 Q4.65 20.5 3.35 18.25 L2.7 17.35 2.6 17.15 2.25 16.45 Q2.65 15.3 3.45 14.1 L3.6 13.95 M10.75 21.0 L10.5 21.05 Q9.55 21.25 8.45 20.7 L8.25 20.6 Q6.15 19.3 5.8 16.8 5.5 14.95 6.2 13.35 L6.8 12.2 7.65 11.2 8.65 11.2 9.85 11.6 11.25 11.8 11.95 11.95 12.4 12.7 11.55 13.25 9.7 13.0 7.85 12.25 Q7.6 12.55 7.5 12.8 L7.1 13.2 Q5.75 15.65 6.25 17.7 L6.45 18.35 Q7.05 19.55 8.05 20.15 L8.5 20.5 10.1 20.55 10.45 20.45 10.75 21.0 M12.65 13.85 Q12.5 13.9 12.5 14.1 12.4 14.5 12.65 14.75 L12.8 14.95 13.15 15.1 13.6 14.8 13.75 14.5 Q14.4 15.55 14.4 16.4 14.4 17.4 12.8 18.35 12.25 17.3 11.1 16.6 10.05 15.85 9.3 16.4 L9.1 16.6 Q8.3 17.6 8.3 18.25 L8.45 18.35 8.55 18.15 9.1 17.75 9.45 17.55 11.45 17.7 11.5 17.75 11.85 18.85 11.45 19.1 11.35 18.65 10.85 18.15 10.7 18.05 10.55 18.0 Q10.4 17.8 10.2 17.85 10.1 17.85 10.0 18.0 L9.55 18.1 Q9.5 18.05 9.4 18.15 L9.4 18.45 9.3 18.5 9.55 18.5 Q9.85 18.8 9.65 19.2 9.2 19.95 8.05 19.4 7.2 18.65 6.9 17.3 6.8 15.9 7.35 15.05 8.05 13.95 9.05 14.0 L9.25 14.1 9.6 14.1 10.15 14.45 10.6 14.45 11.5 14.5 11.55 14.45 11.75 14.15 12.65 13.85 M2.55 18.05 L2.65 18.2 2.7 18.2 3.55 19.3 5.55 22.1 5.65 22.7 5.8 22.9 7.8 24.75 Q9.85 26.0 11.95 26.1 L12.45 26.1 10.75 26.95 Q9.25 26.65 7.85 25.75 L5.85 24.05 Q4.6 22.75 3.7 21.05 L2.65 18.7 2.65 18.6 2.55 18.05 M8.8 19.0 Q8.5 18.95 8.45 18.35 8.5 18.95 8.8 19.0" fill="#3af9ff" fill-rule="evenodd" stroke="none"/>
      <path d="M12.4 12.7 L12.9 13.35 12.7 13.55 12.65 13.85 11.75 14.15 11.55 14.45 11.5 14.5 10.6 14.45 10.15 14.45 9.6 14.1 9.25 14.1 9.05 14.0 Q8.05 13.95 7.35 15.05 6.8 15.9 6.9 17.3 7.2 18.65 8.05 19.4 9.2 19.95 9.65 19.2 9.85 18.8 9.55 18.5 L9.3 18.5 9.4 18.45 9.4 18.15 Q9.5 18.05 9.55 18.1 L10.0 18.0 9.95 18.05 Q9.85 18.15 9.9 18.35 9.9 18.7 10.2 18.9 10.6 19.2 10.85 18.75 L10.9 18.5 10.85 18.3 10.7 18.05 10.85 18.15 11.35 18.65 11.45 19.1 Q10.4 19.75 10.4 20.3 L10.45 20.45 10.1 20.55 8.5 20.5 8.05 20.15 Q7.05 19.55 6.45 18.35 L6.25 17.7 Q5.75 15.65 7.1 13.2 L7.5 12.8 Q7.6 12.55 7.85 12.25 L9.7 13.0 11.55 13.25 12.4 12.7 M2.15 16.85 L2.25 16.45 2.6 17.15 2.7 17.35 3.35 18.25 Q4.65 20.5 5.7 21.35 L5.7 21.45 7.1 22.7 7.75 23.1 11.5 23.4 12.7 23.1 Q13.3 24.0 13.3 24.95 13.3 25.5 12.45 26.1 L11.95 26.1 Q9.85 26.0 7.8 24.75 L5.8 22.9 5.65 22.7 5.55 22.1 3.55 19.3 2.7 18.2 2.65 18.2 2.55 18.05 2.15 16.85" fill="#8afffb" fill-rule="evenodd" stroke="none"/>
      <path d="M10.0 18.0 Q10.1 17.85 10.2 17.85 10.4 17.8 10.55 18.0 L10.7 18.05 10.85 18.3 10.9 18.5 10.85 18.75 Q10.6 19.2 10.2 18.9 9.9 18.7 9.9 18.35 9.85 18.15 9.95 18.05 L10.0 18.0" fill="#ffffff" fill-rule="evenodd" stroke="none"/>
      <path d="M11.95 11.95 Q11.65 11.3 11.65 10.85 11.65 9.95 11.9 9.0 L7.4 8.7 Q6.0 9.15 4.85 11.05 3.9 12.45 3.6 13.95 L3.45 14.1 Q2.65 15.3 2.25 16.45 M11.65 21.95 L10.75 21.0 10.45 20.45 10.4 20.3 Q10.4 19.75 11.45 19.1 L11.85 18.85 12.4 18.55 12.8 18.35 Q14.4 17.4 14.4 16.4 14.4 15.55 13.75 14.5 L13.6 14.8 13.15 15.1 12.8 14.95 12.65 14.75 Q12.4 14.5 12.5 14.1 12.5 13.9 12.65 13.85 L12.7 13.55 12.9 13.35 12.4 12.7 11.95 11.95 M12.45 26.1 Q13.3 25.5 13.3 24.95 13.3 24.0 12.7 23.1 L11.85 22.15 11.65 21.95 M10.75 26.95 L10.35 27.05 9.2 27.5 7.15 26.35 6.75 26.1 4.85 24.65 Q2.2 22.3 1.75 19.65 1.65 18.55 1.95 17.35 L2.15 16.85 M8.45 18.35 L8.3 18.25 Q8.3 17.6 9.1 16.6 L9.3 16.4 Q10.05 15.85 11.1 16.6 12.25 17.3 12.8 18.35 M8.45 18.35 Q8.5 18.95 8.8 19.0 M10.75 26.95 L12.45 26.1" fill="none" stroke="#1249a8" stroke-linecap="round" stroke-linejoin="round" stroke-width="0.5"/>
      <path d="M18.15 10.75 Q17.6 10.0 17.6 9.6 17.6 8.95 17.95 7.85 L19.95 7.8 Q25.35 7.65 27.3 4.4 27.9 3.55 27.9 2.05 28.45 4.25 28.4 5.45 28.25 7.15 27.1 8.9 L25.45 10.35 24.1 11.25 Q23.75 12.4 24.3 14.05 L26.15 19.1 26.0 20.85 Q25.75 22.45 24.8 23.9 22.65 27.25 19.1 27.4 17.35 27.45 15.5 26.75 L16.9 26.15 17.5 25.85 19.0 25.7 Q22.1 25.25 24.0 22.45 L24.55 21.3 24.75 20.35 24.45 19.25 Q23.2 15.05 22.8 12.85 L22.7 11.35 Q22.7 10.1 23.05 9.45 L23.4 9.8 Q24.6 10.5 25.4 9.25 25.95 8.55 25.15 8.1 L24.35 8.45 24.05 8.3 23.75 8.2 Q22.3 7.55 21.1 8.95 L20.8 9.5 20.45 10.05 Q19.35 10.7 18.15 10.75 M17.6 20.45 L16.6 19.45 17.05 18.95 17.25 18.4 18.3 17.75 Q18.65 18.95 18.05 19.9 L17.6 20.45" fill="#27d2f0" fill-rule="evenodd" stroke="none"/>
      <path d="M17.5 25.85 L18.8 25.0 19.05 24.65 Q20.75 24.05 22.0 22.15 23.35 20.05 23.15 18.4 L22.6 17.25 22.5 17.15 Q21.4 14.65 21.0 13.05 L21.0 12.4 21.0 11.8 20.9 11.7 20.15 11.35 20.1 11.3 19.95 11.1 19.8 11.25 Q19.1 11.05 18.45 11.25 L18.15 10.75 Q19.35 10.7 20.45 10.05 L20.8 9.5 21.1 8.95 Q22.3 7.55 23.75 8.2 L24.05 8.3 24.35 8.45 25.15 8.1 Q25.95 8.55 25.4 9.25 24.6 10.5 23.4 9.8 L23.05 9.45 Q22.7 10.1 22.7 11.35 L22.8 12.85 Q23.2 15.05 24.45 19.25 L24.75 20.35 24.55 21.3 24.0 22.45 Q22.1 25.25 19.0 25.7 L17.5 25.85 M18.55 21.65 L17.8 20.65 17.6 20.45 18.05 19.9 Q18.65 18.95 18.3 17.75 L18.35 17.7 Q20.35 16.6 20.35 15.25 L20.35 15.2 20.6 15.6 Q21.05 16.45 21.05 17.6 20.9 19.25 20.15 20.5 L20.05 20.6 19.7 20.85 19.6 21.0 18.55 21.65 M16.6 19.45 L16.35 19.2 Q16.35 18.95 17.25 18.4 L17.05 18.95 16.6 19.45 M20.25 14.4 L19.8 13.15 20.15 13.7 20.25 13.85 20.25 14.4" fill="#3af9ff" fill-rule="evenodd" stroke="none"/>
      <path d="M20.15 11.35 L20.8 12.25 20.65 12.55 20.2 12.85 19.85 12.7 19.7 12.5 Q19.45 12.25 19.55 11.85 19.55 11.65 19.7 11.6 L19.75 11.3 19.8 11.25 19.95 11.1 20.1 11.3 20.15 11.35" fill="#ffffff" fill-rule="evenodd" stroke="none"/>
      <path d="M19.05 24.65 L19.2 23.8 Q19.2 22.8 18.55 21.65 L19.6 21.0 19.7 20.85 20.05 20.6 20.15 20.5 Q20.9 19.25 21.05 17.6 21.05 16.45 20.6 15.6 L20.35 15.2 20.25 14.4 20.25 13.85 20.15 13.7 19.8 13.15 19.0 11.9 18.45 11.25 Q19.1 11.05 19.8 11.25 L19.75 11.3 19.7 11.6 Q19.55 11.65 19.55 11.85 19.45 12.25 19.7 12.5 L19.85 12.7 20.2 12.85 20.65 12.55 20.8 12.25 20.15 11.35 20.9 11.7 21.0 11.8 21.0 12.4 21.0 13.05 Q21.4 14.65 22.5 17.15 L22.6 17.25 23.15 18.4 Q23.35 20.05 22.0 22.15 20.75 24.05 19.05 24.65" fill="#8afffb" fill-rule="evenodd" stroke="none"/>
      <path d="M18.15 10.75 Q17.6 10.0 17.6 9.6 17.6 8.95 17.95 7.85 L19.95 7.8 Q25.35 7.65 27.3 4.4 27.9 3.55 27.9 2.05 28.45 4.25 28.4 5.45 28.25 7.15 27.1 8.9 L25.45 10.35 24.1 11.25 Q23.75 12.4 24.3 14.05 L26.15 19.1 26.0 20.85 Q25.75 22.45 24.8 23.9 22.65 27.25 19.1 27.4 17.35 27.45 15.5 26.75 L16.9 26.15 17.5 25.85 18.8 25.0 19.05 24.65 19.2 23.8 Q19.2 22.8 18.55 21.65 L17.8 20.65 17.6 20.45 16.6 19.45 16.35 19.2 Q16.35 18.95 17.25 18.4 L18.3 17.75 18.35 17.7 Q20.35 16.6 20.35 15.25 L20.35 15.2 20.25 14.4 19.8 13.15 19.0 11.9 18.45 11.25 18.15 10.75 Z" fill="none" stroke="#1249a8" stroke-linecap="round" stroke-linejoin="round" stroke-width="0.5"/>
    </g>
  </defs>
</svg>
