<?xml version="1.0" encoding="UTF-8" standalone="no"?>
<svg xmlns:ffdec="https://www.free-decompiler.com/flash" xmlns:xlink="http://www.w3.org/1999/xlink" ffdec:objectType="frame" height="30.0px" width="30.0px" xmlns="http://www.w3.org/2000/svg">
  <g transform="matrix(1.0, 0.0, 0.0, 1.0, 0.0, 0.0)">
    <use ffdec:characterId="1" height="30.0" transform="matrix(1.0, 0.0, 0.0, 1.0, 0.0, 0.0)" width="30.0" xlink:href="#shape0"/>
  </g>
  <defs>
    <g id="shape0" transform="matrix(1.0, 0.0, 0.0, 1.0, 0.0, 0.0)">
      <path d="M0.0 0.0 L30.0 0.0 30.0 30.0 0.0 30.0 0.0 0.0" fill="#33cc66" fill-opacity="0.0" fill-rule="evenodd" stroke="none"/>
      <path d="M29.8 28.15 Q29.15 30.0 26.7 30.0 L3.3 30.0 Q0.85 30.0 0.2 28.15 L0.0 26.7 0.0 3.3 Q0.0 0.7 2.05 0.15 L3.3 0.0 26.7 0.0 27.95 0.15 Q30.0 0.7 30.0 3.3 L30.0 26.7 29.8 28.15" fill="#de5938" fill-rule="evenodd" stroke="none"/>
      <path d="M25.8 13.1 Q26.95 14.5 27.35 16.0 27.7 17.35 27.35 18.7 L27.05 19.8 Q25.95 22.45 20.9 23.7 L18.5 24.2 17.8 24.3 17.85 24.25 Q20.2 23.75 23.0 21.7 25.8 19.65 25.8 18.0 25.85 16.35 25.35 15.65 L24.75 14.35 Q24.7 13.85 25.2 13.4 25.45 13.2 25.8 13.1 M8.3 24.0 Q5.55 23.2 3.8 20.85 2.1 18.55 2.9 16.2 L3.45 15.1 3.2 17.1 Q3.2 20.6 6.6 22.75 L6.6 22.8 7.95 23.75 8.3 24.0 M7.2 17.65 L7.0 17.5 Q6.35 16.9 6.4 15.1 L6.1 15.25 5.9 15.4 5.85 15.4 5.85 15.15 Q6.45 13.9 7.6 12.55 L7.65 12.5 7.65 12.55 6.85 14.4 6.8 14.65 6.7 14.9 6.7 16.0 Q6.7 16.95 6.85 17.15 L7.0 17.5 7.05 17.55 7.2 17.65" fill="#f8f4ed" fill-rule="evenodd" stroke="none"/>
      <path d="M10.05 24.1 L9.25 23.05 9.65 22.85 Q9.9 22.75 9.8 22.5 L9.9 22.55 10.0 22.35 10.5 21.45 10.55 22.2 10.55 22.55 Q10.6 22.85 10.9 22.8 L11.4 22.7 11.65 22.5 11.7 22.5 12.4 21.05 12.5 21.5 12.6 21.75 12.85 22.4 13.3 22.1 13.55 21.85 13.7 21.65 13.6 21.65 13.95 20.4 12.85 19.25 12.8 19.3 12.0 19.1 11.8 19.2 11.85 19.5 11.9 20.15 11.25 19.6 11.2 19.6 11.0 19.35 10.95 19.45 10.9 19.45 10.45 19.35 10.4 19.35 10.1 19.4 10.0 19.4 10.0 19.65 10.05 19.75 10.15 20.15 10.25 20.55 10.1 20.4 9.4 19.8 9.35 19.8 9.25 19.75 9.15 19.7 8.9 19.65 8.75 19.7 8.6 19.75 8.5 19.7 Q8.4 19.6 8.4 19.85 L8.4 19.9 8.45 20.0 8.6 19.95 8.7 20.75 7.8 18.9 8.7 19.4 8.85 19.25 9.05 19.3 11.4 17.5 12.9 17.8 13.6 17.85 14.7 17.1 15.2 16.65 16.35 16.8 16.15 17.55 16.0 17.65 13.8 18.8 13.75 18.85 13.7 18.85 13.8 19.4 13.9 19.8 14.0 20.1 14.15 20.55 14.3 20.75 14.25 20.75 13.95 20.4 14.25 20.75 14.3 20.75 14.9 18.95 15.1 18.75 15.6 18.35 15.7 18.3 16.45 17.75 16.85 17.45 17.75 15.95 17.75 16.3 17.75 16.4 16.85 17.6 16.55 18.1 16.5 18.15 16.5 18.2 15.95 20.35 13.4 22.75 13.05 23.05 12.95 23.1 11.9 23.75 11.7 23.75 11.45 23.8 11.1 23.8 10.45 23.85 10.15 24.0 10.05 24.1 M9.6 10.65 L9.9 10.4 10.6 5.95 Q12.15 3.85 15.2 2.9 12.45 4.55 11.4 6.3 L10.95 9.95 Q13.7 10.0 13.15 11.5 L12.9 11.6 Q11.85 12.35 10.85 13.25 L10.4 14.0 10.35 14.1 9.8 13.75 8.55 12.95 Q8.7 12.5 9.1 12.3 L9.6 11.9 9.7 11.8 9.8 11.35 9.6 10.65 M14.8 3.6 Q14.4 4.55 14.35 5.5 L14.65 7.95 12.9 8.55 12.85 8.0 12.85 7.25 Q12.85 5.95 13.45 5.05 L14.8 3.6 M17.55 8.3 L18.75 8.35 19.45 8.35 24.45 8.85 24.7 8.9 24.4 9.0 24.3 9.0 22.5 10.15 22.1 10.45 21.0 10.1 20.2 10.0 20.15 10.0 19.5 9.95 18.9 9.9 18.45 10.05 18.55 9.55 18.55 9.4 Q18.5 9.2 18.0 9.1 L17.9 9.15 17.75 8.6 17.6 8.45 17.55 8.3 M10.85 6.3 L11.0 6.35 11.15 6.3 11.2 6.15 11.0 6.0 10.85 6.2 10.85 6.3 M9.95 19.9 L9.95 19.85 9.8 19.6 Q9.6 19.4 9.6 19.6 L9.65 19.8 9.8 19.95 9.95 19.9 M10.15 22.5 L10.15 22.55 10.25 22.6 10.45 22.5 10.5 22.3 10.35 22.15 10.15 22.5 M11.45 19.25 Q11.35 19.2 11.35 19.3 L11.45 19.45 11.6 19.65 11.7 19.6 11.6 19.3 11.45 19.25 M13.25 19.1 L13.15 19.1 13.15 19.2 13.3 19.5 13.7 19.85 13.75 19.8 13.6 19.45 13.4 19.05 13.25 19.1 M12.45 21.65 Q12.25 21.65 12.15 21.85 L12.1 22.05 12.2 22.15 12.35 22.0 12.45 21.8 12.45 21.65 M13.95 25.05 L14.3 24.95 14.85 24.75 14.8 24.4 14.7 23.45 15.55 23.85 15.55 24.9 13.7 26.0 13.4 26.15 13.2 25.85 12.95 25.45 12.85 24.15 13.05 24.0 13.6 23.75 13.75 25.1 13.95 25.05" fill="#de5938" fill-rule="evenodd" stroke="none"/>
      <path d="M17.25 24.2 L16.9 24.35 16.7 25.75 13.65 27.45 13.7 26.35 15.95 25.1 15.95 23.7 Q18.45 22.5 20.0 21.0 L21.2 19.65 21.95 18.5 21.7 19.8 20.9 21.2 20.8 21.3 18.6 23.35 17.25 24.2 M13.2 27.5 L12.25 25.65 12.15 24.55 10.5 24.6 10.05 24.1 10.15 24.0 10.45 23.85 11.1 23.8 11.45 23.8 11.7 23.75 11.9 23.75 12.95 23.1 13.05 23.05 13.4 22.75 15.95 20.35 16.5 18.2 16.5 18.15 16.55 18.1 16.85 17.6 17.75 16.4 17.75 16.3 17.75 15.95 17.75 15.9 18.45 15.95 18.45 16.0 18.0 16.7 17.95 16.75 17.15 18.1 16.8 19.45 16.75 19.75 16.15 20.75 15.5 21.65 13.75 23.35 13.5 23.6 13.05 24.0 12.85 24.15 12.95 25.45 13.2 25.85 13.2 27.5 M9.25 23.05 L8.95 22.5 Q8.85 22.15 9.25 21.15 L9.4 21.95 9.8 22.5 Q9.9 22.75 9.65 22.85 L9.25 23.05 M9.0 20.2 L8.7 20.75 8.6 19.95 8.6 19.75 8.75 19.7 8.9 19.65 9.15 19.7 9.25 19.75 9.0 20.2 M15.2 2.9 L14.8 3.6 13.45 5.05 Q12.85 5.95 12.85 7.25 L12.85 8.0 12.9 8.55 14.65 7.95 14.7 8.2 14.75 8.35 17.55 8.3 17.6 8.45 17.75 8.6 17.9 9.15 15.7 10.05 13.15 11.5 Q13.7 10.0 10.95 9.95 L11.4 6.3 Q12.45 4.55 15.2 2.9 M15.8 15.85 L16.15 15.6 16.4 15.4 Q16.65 15.7 17.05 15.8 L17.25 15.8 16.95 16.6 16.65 17.35 16.45 17.75 15.7 18.3 15.6 18.35 15.3 18.5 Q15.1 18.55 14.85 18.75 L14.35 19.05 14.3 19.05 14.25 19.75 14.15 20.55 14.0 20.1 13.9 19.8 13.8 19.4 13.7 18.85 13.75 18.85 13.8 18.8 16.0 17.65 16.15 17.55 16.35 16.8 15.2 16.65 14.7 17.1 13.6 17.85 12.9 17.8 11.4 17.5 9.05 19.3 8.85 19.25 10.8 17.5 10.8 17.05 11.55 17.05 11.9 16.8 11.95 16.75 13.0 16.0 14.55 16.0 13.0 16.1 11.9 16.8 11.85 16.85 12.5 17.05 13.4 17.05 13.95 16.6 14.65 16.0 15.45 16.0 15.8 15.85 M22.1 10.45 L22.5 10.15 24.3 9.0 24.4 9.0 23.1 10.8 Q22.6 10.55 22.1 10.45 M12.75 9.25 Q13.45 8.7 14.75 8.35 13.45 8.7 12.75 9.25 M10.25 20.55 L10.15 20.15 10.05 19.75 10.0 19.65 10.0 19.4 10.1 19.4 10.4 19.35 10.45 19.35 10.9 19.45 10.95 19.45 10.25 20.55 M11.9 20.15 L11.85 19.5 11.8 19.2 12.0 19.1 12.8 19.3 12.0 20.25 11.9 20.15 M10.5 21.45 L11.65 22.5 11.4 22.7 10.9 22.8 Q10.6 22.85 10.55 22.55 L10.55 22.2 10.5 21.45 M12.4 21.05 L12.45 20.9 13.55 21.85 13.6 21.65 13.7 21.65 13.55 21.85 13.3 22.1 12.85 22.4 12.6 21.75 12.5 21.5 12.4 21.05 M21.4 17.25 L21.6 17.45 20.7 18.8 Q20.2 17.75 19.7 17.3 L21.4 17.25 M12.15 24.55 L12.55 24.5 12.85 24.15 12.55 24.5 12.15 24.55" fill="#9e353c" fill-rule="evenodd" stroke="none"/>
      <path d="M10.4 14.0 L10.45 14.1 10.8 14.2 Q11.05 14.2 11.3 14.0 L11.35 14.0 13.15 12.3 13.6 11.85 Q15.05 10.8 16.45 10.2 L18.2 9.55 18.55 9.4 18.55 9.55 18.45 10.05 17.2 10.85 Q16.6 11.4 16.2 12.3 L16.15 12.5 Q15.8 13.55 15.95 14.45 L16.4 15.4 16.15 15.6 15.8 15.85 16.05 15.55 15.6 15.0 Q15.2 14.4 15.2 13.8 15.2 12.65 15.75 11.75 L16.95 10.45 16.15 10.85 14.5 11.95 12.75 13.4 12.0 14.3 11.6 14.75 11.6 15.1 Q11.6 16.0 11.95 16.75 L11.9 16.8 11.55 17.05 10.8 17.05 10.35 15.6 10.35 14.1 10.4 14.0 M11.35 14.0 L11.1 14.35 11.1 15.6 11.1 14.35 11.35 14.0" fill="#263057" fill-rule="evenodd" stroke="none"/>
      <path d="M9.9 22.55 L9.0 20.2 9.25 19.75 9.35 19.8 9.4 19.8 10.1 20.4 10.05 20.5 9.9 21.6 10.0 22.35 9.9 22.55 M11.95 16.75 Q11.6 16.0 11.6 15.1 L11.6 14.75 12.0 14.3 12.75 13.4 14.5 11.95 16.15 10.85 16.95 10.45 15.75 11.75 Q15.2 12.65 15.2 13.8 15.2 14.4 15.6 15.0 L16.05 15.55 15.8 15.85 15.45 16.0 14.65 16.0 14.55 16.0 13.0 16.0 11.95 16.75" fill="#1b4069" fill-rule="evenodd" stroke="none"/>
      <path d="M18.4 23.55 L17.25 24.2 18.6 23.35 18.4 23.55 M13.15 11.5 L15.7 10.05 17.9 9.15 18.0 9.1 Q18.5 9.2 18.55 9.4 L18.2 9.55 16.45 10.2 Q15.05 10.8 13.6 11.85 L13.15 12.3 11.35 14.0 11.3 14.0 Q11.05 14.2 10.8 14.2 L10.45 14.1 10.4 14.0 10.85 13.25 Q11.85 12.35 12.9 11.6 L13.15 11.5 M10.7 13.75 L10.7 14.05 10.8 14.1 11.2 13.85 11.3 13.55 Q11.3 13.2 11.05 13.35 L10.7 13.75 M18.7 16.25 L19.5 17.1 18.85 17.75 19.3 18.4 20.05 19.65 Q18.3 21.75 16.05 22.85 L16.3 22.45 16.3 22.4 16.5 21.95 16.85 20.95 17.55 19.5 Q18.0 18.55 18.85 17.75 L18.55 17.3 18.3 17.0 18.7 16.25 M14.3 24.95 L14.8 24.4 14.85 24.75 14.3 24.95" fill="#225489" fill-rule="evenodd" stroke="none"/>
      <path d="M7.05 18.5 Q5.75 20.75 8.25 23.65 L7.55 23.2 6.0 22.05 Q4.55 20.7 4.55 18.3 4.55 16.8 5.85 15.45 5.75 16.95 6.25 18.0 L6.3 18.05 7.05 18.5 M16.15 12.5 L16.2 12.3 Q16.6 11.4 17.2 10.85 L18.45 10.05 18.9 9.9 19.5 9.95 20.15 10.0 Q18.9 10.25 18.3 10.75 L18.15 10.85 Q17.6 11.3 17.35 12.05 L17.4 12.1 17.45 12.2 17.45 12.3 17.5 12.3 17.6 12.4 17.75 12.6 Q18.1 12.9 18.8 13.05 L19.8 13.55 20.4 13.85 21.1 14.3 Q22.8 15.3 22.9 17.3 23.0 19.25 22.5 20.0 L21.95 20.9 22.4 19.8 22.55 18.65 22.55 18.55 22.55 18.3 Q22.55 17.0 22.2 16.7 L21.3 15.65 Q20.7 15.05 19.25 14.75 L19.2 14.75 18.6 14.6 18.45 14.55 18.15 14.55 Q17.5 14.5 17.0 14.0 16.45 13.45 16.15 12.5 M7.75 12.45 L7.85 12.5 7.4 13.95 7.35 14.25 7.2 14.9 7.15 15.35 7.35 16.75 Q7.4 17.2 7.8 17.3 L8.0 17.3 8.45 17.35 9.3 17.15 9.7 17.0 8.6 17.55 7.65 17.7 7.25 17.7 7.2 17.65 7.05 17.55 7.0 17.5 6.85 17.15 Q6.7 16.95 6.7 16.0 L6.7 14.9 6.8 14.65 6.85 14.4 7.65 12.55 7.65 12.5 7.75 12.4 7.75 12.45 M9.95 17.45 L10.05 17.55 9.55 18.25 8.75 18.9 8.1 18.55 7.65 18.25 8.85 17.95 9.9 17.3 9.95 17.45" fill="#877663" fill-rule="evenodd" stroke="none"/>
      <path d="M3.45 15.1 L3.45 15.05 4.0 14.3 Q6.1 11.65 9.35 10.9 L8.7 11.7 8.55 12.0 7.75 12.45 7.75 12.4 7.65 12.5 7.6 12.55 Q6.65 13.2 5.8 14.15 L4.8 15.35 Q3.85 16.8 3.85 18.2 L4.05 19.4 4.8 20.85 5.55 21.8 6.6 22.75 Q3.2 20.6 3.2 17.1 L3.45 15.1 M20.15 10.0 L20.2 10.0 21.0 10.1 22.1 10.45 Q22.6 10.55 23.1 10.8 22.15 10.9 21.55 11.45 21.05 11.85 20.9 12.5 L20.9 12.75 Q20.9 13.1 21.05 13.35 L21.25 13.65 Q22.1 14.0 22.6 14.7 L23.45 16.2 Q23.85 17.05 23.85 18.0 23.85 18.9 23.35 19.8 L21.3 22.05 20.9 22.35 20.45 22.7 20.9 22.2 21.9 20.95 21.95 20.9 22.5 20.0 Q23.0 19.25 22.9 17.3 22.8 15.3 21.1 14.3 L20.4 13.85 19.8 13.55 18.8 13.05 Q18.1 12.9 17.75 12.6 L17.6 12.4 17.5 12.3 17.45 12.3 17.45 12.2 17.4 12.1 17.35 12.05 Q17.6 11.3 18.15 10.85 L18.3 10.75 Q18.9 10.25 20.15 10.0 M9.8 13.75 L9.7 14.7 9.65 15.4 9.7 15.85 9.9 16.75 9.7 16.95 9.7 17.0 9.3 17.15 8.45 17.35 8.0 17.3 7.8 17.3 Q7.4 17.2 7.35 16.75 L7.15 15.35 7.2 14.9 7.35 14.25 7.4 13.95 7.85 12.5 8.2 12.7 8.55 12.95 9.8 13.75" fill="#c3b7a1" fill-rule="evenodd" stroke="none"/>
      <path d="M24.7 8.9 L23.5 11.0 23.1 10.8 24.4 9.0 24.7 8.9 M14.15 20.55 L14.25 19.75 14.3 19.05 14.35 19.05 14.85 18.75 Q15.1 18.55 15.3 18.5 L15.6 18.35 15.1 18.75 14.95 18.85 14.9 18.95 14.3 20.75 14.15 20.55 M16.45 17.75 L16.65 17.35 16.95 16.6 17.25 15.8 17.75 15.9 17.75 15.95 16.85 17.45 16.45 17.75 M18.45 15.95 L18.85 16.0 18.7 16.25 18.3 17.0 17.6 18.35 17.15 20.15 16.45 20.75 15.5 21.65 16.15 20.75 16.75 19.75 16.8 19.45 17.15 18.1 17.95 16.75 18.0 16.7 18.45 16.0 18.45 15.95" fill="#846b8b" fill-rule="evenodd" stroke="none"/>
      <path d="M25.8 13.1 Q25.45 13.2 25.2 13.4 24.7 13.85 24.75 14.35 L25.35 15.65 Q25.85 16.35 25.8 18.0 25.8 19.65 23.0 21.7 20.2 23.75 17.85 24.25 L18.0 24.1 20.45 22.7 20.9 22.35 21.3 22.05 23.35 19.8 Q23.85 18.9 23.85 18.0 23.85 17.05 23.45 16.2 L22.6 14.7 Q22.1 14.0 21.25 13.65 L21.05 13.35 Q20.9 13.1 20.9 12.75 L20.9 12.5 Q21.05 11.85 21.55 11.45 22.15 10.9 23.1 10.8 L23.5 11.0 24.45 11.7 25.8 13.1 M8.25 23.65 L8.3 23.75 8.65 24.05 8.3 24.0 7.95 23.75 6.6 22.8 6.6 22.75 5.55 21.8 4.8 20.85 4.05 19.4 3.85 18.2 Q3.85 16.8 4.8 15.35 L5.8 14.15 Q6.65 13.2 7.6 12.55 6.45 13.9 5.85 15.15 L5.85 15.4 5.9 15.4 6.1 15.25 6.4 15.1 Q6.35 16.9 7.0 17.5 L7.2 17.65 7.25 17.7 7.65 17.7 8.6 17.55 9.7 17.0 Q8.85 17.85 7.4 18.0 L7.15 18.0 6.9 18.0 6.3 18.0 6.25 18.0 Q5.75 16.95 5.85 15.45 4.55 16.8 4.55 18.3 4.55 20.7 6.0 22.05 L7.55 23.2 8.25 23.65 M8.2 12.7 L7.85 12.5 7.75 12.45 8.55 12.0 8.2 12.7 M5.85 15.45 L5.85 15.4 5.85 15.45" fill="#e7dcc6" fill-rule="evenodd" stroke="none"/>
      <path d="M13.65 27.45 L13.3 27.65 13.2 27.5 13.2 25.85 13.4 26.15 13.7 26.0 15.55 24.9 15.55 23.85 14.7 23.45 16.05 22.85 Q18.3 21.75 20.05 19.65 L20.7 18.8 21.6 17.45 21.85 18.0 21.95 18.5 21.2 19.65 20.0 21.0 Q18.45 22.5 15.95 23.7 L15.95 25.1 13.7 26.35 13.65 27.45 M9.35 10.9 L9.6 10.65 9.8 11.35 9.7 11.8 9.6 11.9 9.1 12.3 Q8.7 12.5 8.55 12.95 L8.2 12.7 8.55 12.0 8.7 11.7 9.35 10.9 M10.85 6.3 L10.85 6.2 11.0 6.0 11.2 6.15 11.15 6.3 11.0 6.35 10.85 6.3 M8.6 19.95 L8.45 20.0 8.4 19.9 8.4 19.85 Q8.4 19.6 8.5 19.7 L8.6 19.75 8.6 19.95 M9.95 19.9 L9.8 19.95 9.65 19.8 9.6 19.6 Q9.6 19.4 9.8 19.6 L9.95 19.85 9.95 19.9 M10.15 22.5 L10.35 22.15 10.5 22.3 10.45 22.5 10.25 22.6 10.15 22.55 10.15 22.5 M13.25 19.1 L13.4 19.05 13.6 19.45 13.75 19.8 13.7 19.85 13.3 19.5 13.15 19.2 13.15 19.1 13.25 19.1 M11.45 19.25 L11.6 19.3 11.7 19.6 11.6 19.65 11.45 19.45 11.35 19.3 Q11.35 19.2 11.45 19.25 M12.45 21.65 L12.45 21.8 12.35 22.0 12.2 22.15 12.1 22.05 12.15 21.85 Q12.25 21.65 12.45 21.65 M13.5 23.6 L13.6 23.75 13.05 24.0 13.5 23.6" fill="#f4926c" fill-rule="evenodd" stroke="none"/>
      <path d="M10.7 13.75 L11.05 13.35 Q11.3 13.2 11.3 13.55 L11.2 13.85 10.8 14.1 10.7 14.05 10.7 13.75" fill="#3e79a3" fill-rule="evenodd" stroke="none"/>
      <path d="M14.55 16.0 L14.65 16.0 13.95 16.6 13.8 16.45 13.6 16.4 13.45 16.4 13.5 16.5 13.35 16.75 13.0 16.85 12.8 16.65 12.55 16.9 12.5 17.05 11.85 16.85 11.9 16.8 13.0 16.1 14.55 16.0" fill="#f9cd7b" fill-rule="evenodd" stroke="none"/>
      <path d="M12.5 17.05 L12.55 16.9 12.8 16.65 13.0 16.85 13.35 16.75 13.5 16.5 13.45 16.4 13.6 16.4 13.8 16.45 13.95 16.6 13.4 17.05 12.5 17.05" fill="#ffffaa" fill-rule="evenodd" stroke="none"/>
      <path d="M7.8 18.9 L7.05 18.5 6.3 18.05 6.25 18.0 6.3 18.0 6.9 18.0 7.15 18.0 7.4 18.0 Q8.85 17.85 9.7 17.0 L9.7 16.95 9.9 16.75 9.7 15.85 9.65 15.4 9.7 14.7 9.8 13.75 10.35 14.1 10.35 15.6 10.8 17.05 10.8 17.5 8.85 19.25 8.7 19.4 7.8 18.9 M9.95 17.45 L9.9 17.3 8.85 17.95 7.65 18.25 8.1 18.55 8.75 18.9 9.55 18.25 10.05 17.55 9.95 17.45" fill="#a39280" fill-rule="evenodd" stroke="none"/>
      <path d="M10.1 20.4 L10.25 20.55 10.95 19.45 11.0 19.35 11.2 19.6 11.25 19.6 11.9 20.15 12.0 20.25 12.8 19.3 12.85 19.25 13.95 20.4 13.6 21.65 13.55 21.85 12.45 20.9 12.4 21.05 11.7 22.5 11.65 22.5 10.5 21.45 10.0 22.35 9.9 21.6 10.05 20.5 10.1 20.4 M14.9 18.95 L14.95 18.85 15.1 18.75 14.9 18.95" fill="#1d2441" fill-rule="evenodd" stroke="none"/>
      <path d="M18.0 24.1 L19.7 22.55 20.8 21.3 20.9 21.2 21.7 19.8 21.95 18.5 21.85 18.0 21.6 17.45 21.4 17.25 20.75 16.6 Q19.95 16.0 18.95 16.0 L18.85 16.0 18.45 15.95 17.75 15.9 17.25 15.8 17.05 15.8 Q16.65 15.7 16.4 15.4 L15.95 14.45 Q15.8 13.55 16.15 12.5 16.45 13.45 17.0 14.0 17.5 14.5 18.15 14.55 L18.45 14.55 18.6 14.6 19.2 14.75 19.25 14.75 Q20.7 15.05 21.3 15.65 L22.2 16.7 Q22.55 17.0 22.55 18.3 L22.55 18.55 22.55 18.65 22.4 19.8 21.95 20.9 21.9 20.95 20.9 22.2 20.45 22.7 18.0 24.1" fill="#ae9375" fill-rule="evenodd" stroke="none"/>
      <path d="M18.3 17.0 L18.55 17.3 18.85 17.75 Q18.0 18.55 17.55 19.5 L16.85 20.95 16.5 21.95 16.3 22.4 16.3 22.45 16.05 22.85 14.7 23.45 14.8 24.4 14.3 24.95 13.95 25.05 13.75 23.35 15.5 21.65 16.45 20.75 17.15 20.15 17.6 18.35 18.3 17.0" fill="#222b4d" fill-rule="evenodd" stroke="none"/>
      <path d="M19.7 22.55 L18.4 23.55 18.6 23.35 20.8 21.3 19.7 22.55 M19.5 17.1 L20.7 18.8 20.05 19.65 19.3 18.4 18.85 17.75 19.5 17.1" fill="#6b5e7c" fill-rule="evenodd" stroke="none"/>
      <path d="M17.85 24.25 L17.8 24.3 18.5 24.2 20.9 23.7 Q25.95 22.45 27.05 19.8 L27.35 18.7 Q27.7 17.35 27.35 16.0 26.95 14.5 25.8 13.1 L24.45 11.7 23.5 11.0 23.1 10.8 Q22.6 10.55 22.1 10.45 L21.0 10.1 20.2 10.0 20.15 10.0 19.5 9.95 18.9 9.9 18.45 10.05 18.55 9.55 18.55 9.4 Q18.5 9.2 18.0 9.1 L17.9 9.15 15.7 10.05 13.15 11.5 12.9 11.6 Q11.85 12.35 10.85 13.25 L10.4 14.0 10.35 14.1 9.8 13.75 8.55 12.95 8.2 12.7 8.55 12.0 8.7 11.7 9.35 10.9 9.6 10.65 9.9 10.4 10.6 5.95 Q12.15 3.85 15.2 2.9 L14.8 3.6 Q14.4 4.55 14.35 5.5 L14.65 7.95 14.7 8.2 14.75 8.35 17.55 8.3 18.75 8.35 19.45 8.35 24.45 8.85 24.7 8.9 23.5 11.0 M17.85 24.25 L18.0 24.1 19.7 22.55 18.4 23.55 17.25 24.2 16.9 24.35 16.7 25.75 13.65 27.45 13.3 27.65 13.2 27.5 12.25 25.65 12.15 24.55 10.5 24.6 10.05 24.1 9.25 23.05 8.95 22.5 Q8.85 22.15 9.25 21.15 L9.4 21.95 9.8 22.5 9.9 22.55 9.0 20.2 8.7 20.75 7.8 18.9 7.05 18.5 Q5.75 20.75 8.25 23.65 L8.3 23.75 8.65 24.05 8.3 24.0 Q5.55 23.2 3.8 20.85 2.1 18.55 2.9 16.2 L3.45 15.1 3.45 15.05 4.0 14.3 Q6.1 11.65 9.35 10.9 M11.35 14.0 L13.15 12.3 M15.8 15.85 L16.15 15.6 16.4 15.4 15.95 14.45 Q15.8 13.55 16.15 12.5 L16.2 12.3 Q16.6 11.4 17.2 10.85 L18.45 10.05 M14.75 8.35 Q13.45 8.7 12.75 9.25 M10.95 9.95 L11.4 6.3 Q12.45 4.55 15.2 2.9 M11.1 15.6 L11.1 14.35 11.35 14.0 M11.9 16.8 L11.55 17.05 10.8 17.05 10.8 17.5 8.85 19.25 8.7 19.4 7.8 18.9 M15.7 18.3 L16.45 17.75 16.85 17.45 17.75 15.95 17.75 15.9 18.45 15.95 18.85 16.0 18.7 16.25 19.5 17.1 20.7 18.8 Q20.2 17.75 19.7 17.3 L21.4 17.25 21.6 17.45 21.85 18.0 21.95 18.5 21.7 19.8 20.9 21.2 20.8 21.3 19.7 22.55 M17.25 15.8 L17.05 15.8 Q16.65 15.7 16.4 15.4 M11.9 16.8 L11.95 16.75 13.0 16.0 14.55 16.0 M14.65 16.0 L15.45 16.0 15.8 15.85 M11.85 16.85 L12.5 17.05 13.4 17.05 13.95 16.6 14.65 16.0 M10.8 17.05 L10.35 15.6 10.35 14.1 M6.25 18.0 L6.3 18.05 7.05 18.5 M7.85 12.5 L8.2 12.7 M7.75 12.45 L7.85 12.5 M5.85 15.4 L5.85 15.45 Q5.75 16.95 6.25 18.0 M7.6 12.55 L7.65 12.5 7.75 12.4 7.75 12.45 M5.85 15.4 L5.85 15.15 Q6.45 13.9 7.6 12.55 M9.25 19.75 L9.35 19.8 9.4 19.8 10.1 20.4 10.25 20.55 10.95 19.45 11.0 19.35 11.2 19.6 11.25 19.6 11.9 20.15 12.0 20.25 12.8 19.3 12.85 19.25 13.95 20.4 14.25 20.75 14.3 20.75 14.9 18.95 15.1 18.75 15.6 18.35 M9.0 20.2 L9.25 19.75 M9.9 22.55 L10.0 22.35 10.5 21.45 11.65 22.5 11.7 22.5 12.4 21.05 12.45 20.9 13.55 21.85 13.6 21.65 13.95 20.4 M15.1 18.75 L14.95 18.85 14.9 18.95 M18.85 16.0 L18.95 16.0 Q19.95 16.0 20.75 16.6 L21.4 17.25 M17.25 15.8 L17.75 15.9 M18.7 16.25 L18.3 17.0 17.6 18.35 17.15 20.15 16.45 20.75 15.5 21.65 13.75 23.35 13.95 25.05 14.3 24.95 14.85 24.75 14.8 24.4 14.7 23.45 16.05 22.85 Q18.3 21.75 20.05 19.65 L20.7 18.8 M20.8 21.3 L18.6 23.35 17.25 24.2 M13.5 23.6 L13.6 23.75 13.75 25.1 13.95 25.05 M13.05 24.0 L12.85 24.15 12.55 24.5 12.15 24.55 M13.5 23.6 L13.05 24.0 M13.75 23.35 L13.5 23.6" fill="none" stroke="#ffffff" stroke-linecap="round" stroke-linejoin="round" stroke-width="3.0"/>
      <path d="M25.8 13.1 Q26.95 14.5 27.35 16.0 27.7 17.35 27.35 18.7 L27.05 19.8 Q25.95 22.45 20.9 23.7 L18.5 24.2 17.8 24.3 17.85 24.25 Q20.2 23.75 23.0 21.7 25.8 19.65 25.8 18.0 25.85 16.35 25.35 15.65 L24.75 14.35 Q24.7 13.85 25.2 13.4 25.45 13.2 25.8 13.1 M8.3 24.0 Q5.55 23.2 3.8 20.85 2.1 18.55 2.9 16.2 L3.45 15.1 3.2 17.1 Q3.2 20.6 6.6 22.75 L6.6 22.8 7.95 23.75 8.3 24.0 M7.2 17.65 L7.0 17.5 Q6.35 16.9 6.4 15.1 L6.1 15.25 5.9 15.4 5.85 15.4 5.85 15.15 Q6.45 13.9 7.6 12.55 L7.65 12.5 7.65 12.55 6.85 14.4 6.8 14.65 6.7 14.9 6.7 16.0 Q6.7 16.95 6.85 17.15 L7.0 17.5 7.05 17.55 7.2 17.65" fill="#f8f4ed" fill-rule="evenodd" stroke="none"/>
      <path d="M10.05 24.1 L9.25 23.05 9.65 22.85 Q9.9 22.75 9.8 22.5 L9.9 22.55 10.0 22.35 10.5 21.45 10.55 22.2 10.55 22.55 Q10.6 22.85 10.9 22.8 L11.4 22.7 11.65 22.5 11.7 22.5 12.4 21.05 12.5 21.5 12.6 21.75 12.85 22.4 13.3 22.1 13.55 21.85 13.7 21.65 13.6 21.65 13.95 20.4 12.85 19.25 12.8 19.3 12.0 19.1 11.8 19.2 11.85 19.5 11.9 20.15 11.25 19.6 11.2 19.6 11.0 19.35 10.95 19.45 10.9 19.45 10.45 19.35 10.4 19.35 10.1 19.4 10.0 19.4 10.0 19.65 10.05 19.75 10.15 20.15 10.25 20.55 10.1 20.4 9.4 19.8 9.35 19.8 9.25 19.75 9.15 19.7 8.9 19.65 8.75 19.7 8.6 19.75 8.5 19.7 Q8.4 19.6 8.4 19.85 L8.4 19.9 8.45 20.0 8.6 19.95 8.7 20.75 7.8 18.9 8.7 19.4 8.85 19.25 9.05 19.3 11.4 17.5 12.9 17.8 13.6 17.85 14.7 17.1 15.2 16.65 16.35 16.8 16.15 17.55 16.0 17.65 13.8 18.8 13.75 18.85 13.7 18.85 13.8 19.4 13.9 19.8 14.0 20.1 14.15 20.55 14.3 20.75 14.25 20.75 13.95 20.4 14.25 20.75 14.3 20.75 14.9 18.95 15.1 18.75 15.6 18.35 15.7 18.3 16.45 17.75 16.85 17.45 17.75 15.95 17.75 16.3 17.75 16.4 16.85 17.6 16.55 18.1 16.5 18.15 16.5 18.2 15.95 20.35 13.4 22.75 13.05 23.05 12.95 23.1 11.9 23.75 11.7 23.75 11.45 23.8 11.1 23.8 10.45 23.85 10.15 24.0 10.05 24.1 M9.6 10.65 L9.9 10.4 10.6 5.95 Q12.15 3.85 15.2 2.9 12.45 4.55 11.4 6.3 L10.95 9.95 Q13.7 10.0 13.15 11.5 L12.9 11.6 Q11.85 12.35 10.85 13.25 L10.4 14.0 10.35 14.1 9.8 13.75 8.55 12.95 Q8.7 12.5 9.1 12.3 L9.6 11.9 9.7 11.8 9.8 11.35 9.6 10.65 M14.8 3.6 Q14.4 4.55 14.35 5.5 L14.65 7.95 12.9 8.55 12.85 8.0 12.85 7.25 Q12.85 5.95 13.45 5.05 L14.8 3.6 M17.55 8.3 L18.75 8.35 19.45 8.35 24.45 8.85 24.7 8.9 24.4 9.0 24.3 9.0 22.5 10.15 22.1 10.45 21.0 10.1 20.2 10.0 20.15 10.0 19.5 9.95 18.9 9.9 18.45 10.05 18.55 9.55 18.55 9.4 Q18.5 9.2 18.0 9.1 L17.9 9.15 17.75 8.6 17.6 8.45 17.55 8.3 M11.0 6.0 L10.85 6.2 10.85 6.3 11.0 6.35 11.15 6.3 11.2 6.15 11.0 6.0 M9.95 19.9 L9.95 19.85 9.8 19.6 Q9.6 19.4 9.6 19.6 L9.65 19.8 9.8 19.95 9.95 19.9 M10.15 22.5 L10.15 22.55 10.25 22.6 10.45 22.5 10.5 22.3 10.35 22.15 10.15 22.5 M11.45 19.25 Q11.35 19.2 11.35 19.3 L11.45 19.45 11.6 19.65 11.7 19.6 11.6 19.3 11.45 19.25 M13.25 19.1 L13.15 19.1 13.15 19.2 13.3 19.5 13.7 19.85 13.75 19.8 13.6 19.45 13.4 19.05 13.25 19.1 M12.45 21.65 Q12.25 21.65 12.15 21.85 L12.1 22.05 12.2 22.15 12.35 22.0 12.45 21.8 12.45 21.65 M13.95 25.05 L14.3 24.95 14.85 24.75 14.8 24.4 14.7 23.45 15.55 23.85 15.55 24.9 13.7 26.0 13.4 26.15 13.2 25.85 12.95 25.45 12.85 24.15 13.05 24.0 13.6 23.75 13.75 25.1 13.95 25.05" fill="#de5938" fill-rule="evenodd" stroke="none"/>
      <path d="M17.25 24.2 L16.9 24.35 16.7 25.75 13.65 27.45 13.7 26.35 15.95 25.1 15.95 23.7 Q18.45 22.5 20.0 21.0 L21.2 19.65 21.95 18.5 21.7 19.8 20.9 21.2 20.8 21.3 18.6 23.35 17.25 24.2 M13.2 27.5 L12.25 25.65 12.15 24.55 10.5 24.6 10.05 24.1 10.15 24.0 10.45 23.85 11.1 23.8 11.45 23.8 11.7 23.75 11.9 23.75 12.95 23.1 13.05 23.05 13.4 22.75 15.95 20.35 16.5 18.2 16.5 18.15 16.55 18.1 16.85 17.6 17.75 16.4 17.75 16.3 17.75 15.95 17.75 15.9 18.45 15.95 18.45 16.0 18.0 16.7 17.95 16.75 17.15 18.1 16.8 19.45 16.75 19.75 16.15 20.75 15.5 21.65 13.75 23.35 13.5 23.6 13.05 24.0 12.85 24.15 12.95 25.45 13.2 25.85 13.2 27.5 M9.25 23.05 L8.95 22.5 Q8.85 22.15 9.25 21.15 L9.4 21.95 9.8 22.5 Q9.9 22.75 9.65 22.85 L9.25 23.05 M9.0 20.2 L8.7 20.75 8.6 19.95 8.6 19.75 8.75 19.7 8.9 19.65 9.15 19.7 9.25 19.75 9.0 20.2 M15.2 2.9 L14.8 3.6 13.45 5.05 Q12.85 5.95 12.85 7.25 L12.85 8.0 12.9 8.55 14.65 7.95 14.7 8.2 14.75 8.35 17.55 8.3 17.6 8.45 17.75 8.6 17.9 9.15 15.7 10.05 13.15 11.5 Q13.7 10.0 10.95 9.95 L11.4 6.3 Q12.45 4.55 15.2 2.9 M15.8 15.85 L16.15 15.6 16.4 15.4 Q16.65 15.7 17.05 15.8 L17.25 15.8 16.95 16.6 16.65 17.35 16.45 17.75 15.7 18.3 15.6 18.35 15.3 18.5 Q15.1 18.55 14.85 18.75 L14.35 19.05 14.3 19.05 14.25 19.75 14.15 20.55 14.0 20.1 13.9 19.8 13.8 19.4 13.7 18.85 13.75 18.85 13.8 18.8 16.0 17.65 16.15 17.55 16.35 16.8 15.2 16.65 14.7 17.1 13.6 17.85 12.9 17.8 11.4 17.5 9.05 19.3 8.85 19.25 10.8 17.5 10.8 17.05 11.55 17.05 11.9 16.8 11.95 16.75 13.0 16.0 14.55 16.0 13.0 16.1 11.9 16.8 11.85 16.85 12.5 17.05 13.4 17.05 13.95 16.6 14.65 16.0 15.45 16.0 15.8 15.85 M22.1 10.45 L22.5 10.15 24.3 9.0 24.4 9.0 23.1 10.8 Q22.6 10.55 22.1 10.45 M12.75 9.25 Q13.45 8.7 14.75 8.35 13.45 8.7 12.75 9.25 M10.25 20.55 L10.15 20.15 10.05 19.75 10.0 19.65 10.0 19.4 10.1 19.4 10.4 19.35 10.45 19.35 10.9 19.45 10.95 19.45 10.25 20.55 M11.9 20.15 L11.85 19.5 11.8 19.2 12.0 19.1 12.8 19.3 12.0 20.25 11.9 20.15 M10.5 21.45 L11.65 22.5 11.4 22.7 10.9 22.8 Q10.6 22.85 10.55 22.55 L10.55 22.2 10.5 21.45 M12.4 21.05 L12.45 20.9 13.55 21.85 13.6 21.65 13.7 21.65 13.55 21.85 13.3 22.1 12.85 22.4 12.6 21.75 12.5 21.5 12.4 21.05 M20.7 18.8 Q20.2 17.75 19.7 17.3 L21.4 17.25 21.6 17.45 20.7 18.8 M12.15 24.55 L12.55 24.5 12.85 24.15 12.55 24.5 12.15 24.55" fill="#9e353c" fill-rule="evenodd" stroke="none"/>
      <path d="M10.4 14.0 L10.45 14.1 10.8 14.2 Q11.05 14.2 11.3 14.0 L11.35 14.0 13.15 12.3 13.6 11.85 Q15.05 10.8 16.45 10.2 L18.2 9.55 18.55 9.4 18.55 9.55 18.45 10.05 17.2 10.85 Q16.6 11.4 16.2 12.3 L16.15 12.5 Q15.8 13.55 15.95 14.45 L16.4 15.4 16.15 15.6 15.8 15.85 16.05 15.55 15.6 15.0 Q15.2 14.4 15.2 13.8 15.2 12.65 15.75 11.75 L16.95 10.45 16.15 10.85 14.5 11.95 12.75 13.4 12.0 14.3 11.6 14.75 11.6 15.1 Q11.6 16.0 11.95 16.75 L11.9 16.8 11.55 17.05 10.8 17.05 10.35 15.6 10.35 14.1 10.4 14.0 M11.35 14.0 L11.1 14.35 11.1 15.6 11.1 14.35 11.35 14.0" fill="#263057" fill-rule="evenodd" stroke="none"/>
      <path d="M9.9 22.55 L9.0 20.2 9.25 19.75 9.35 19.8 9.4 19.8 10.1 20.4 10.05 20.5 9.9 21.6 10.0 22.35 9.9 22.55 M11.95 16.75 Q11.6 16.0 11.6 15.1 L11.6 14.75 12.0 14.3 12.75 13.4 14.5 11.95 16.15 10.85 16.95 10.45 15.75 11.75 Q15.2 12.65 15.2 13.8 15.2 14.4 15.6 15.0 L16.05 15.55 15.8 15.85 15.45 16.0 14.65 16.0 14.55 16.0 13.0 16.0 11.95 16.75" fill="#1b4069" fill-rule="evenodd" stroke="none"/>
      <path d="M18.4 23.55 L17.25 24.2 18.6 23.35 18.4 23.55 M13.15 11.5 L15.7 10.05 17.9 9.15 18.0 9.1 Q18.5 9.2 18.55 9.4 L18.2 9.55 16.45 10.2 Q15.05 10.8 13.6 11.85 L13.15 12.3 11.35 14.0 11.3 14.0 Q11.05 14.2 10.8 14.2 L10.45 14.1 10.4 14.0 10.85 13.25 Q11.85 12.35 12.9 11.6 L13.15 11.5 M10.7 14.05 L10.8 14.1 11.2 13.85 11.3 13.55 Q11.3 13.2 11.05 13.35 L10.7 13.75 10.7 14.05 M18.7 16.25 L19.5 17.1 18.85 17.75 19.3 18.4 20.05 19.65 Q18.3 21.75 16.05 22.85 L16.3 22.45 16.3 22.4 16.5 21.95 16.85 20.95 17.55 19.5 Q18.0 18.55 18.85 17.75 L18.55 17.3 18.3 17.0 18.7 16.25 M14.3 24.95 L14.8 24.4 14.85 24.75 14.3 24.95" fill="#225489" fill-rule="evenodd" stroke="none"/>
      <path d="M7.05 18.5 Q5.75 20.75 8.25 23.65 L7.55 23.2 6.0 22.05 Q4.55 20.7 4.55 18.3 4.55 16.8 5.85 15.45 5.75 16.95 6.25 18.0 L6.3 18.05 7.05 18.5 M16.15 12.5 L16.2 12.3 Q16.6 11.4 17.2 10.85 L18.45 10.05 18.9 9.9 19.5 9.95 20.15 10.0 Q18.9 10.25 18.3 10.75 L18.15 10.85 Q17.6 11.3 17.35 12.05 L17.4 12.1 17.45 12.2 17.45 12.3 17.5 12.3 17.6 12.4 17.75 12.6 Q18.1 12.9 18.8 13.05 L19.8 13.55 20.4 13.85 21.1 14.3 Q22.8 15.3 22.9 17.3 23.0 19.25 22.5 20.0 L21.95 20.9 22.4 19.8 22.55 18.65 22.55 18.55 22.55 18.3 Q22.55 17.0 22.2 16.7 L21.3 15.65 Q20.7 15.05 19.25 14.75 L19.2 14.75 18.6 14.6 18.45 14.55 18.15 14.55 Q17.5 14.5 17.0 14.0 16.45 13.45 16.15 12.5 M7.75 12.45 L7.85 12.5 7.4 13.95 7.35 14.25 7.2 14.9 7.15 15.35 7.35 16.75 Q7.4 17.2 7.8 17.3 L8.0 17.3 8.45 17.35 9.3 17.15 9.7 17.0 8.6 17.55 7.65 17.7 7.25 17.7 7.2 17.65 7.05 17.55 7.0 17.5 6.85 17.15 Q6.7 16.95 6.7 16.0 L6.7 14.9 6.8 14.65 6.85 14.4 7.65 12.55 7.65 12.5 7.75 12.4 7.75 12.45 M9.95 17.45 L10.05 17.55 9.55 18.25 8.75 18.9 8.1 18.55 7.65 18.25 8.85 17.95 9.9 17.3 9.95 17.45" fill="#877663" fill-rule="evenodd" stroke="none"/>
      <path d="M3.45 15.1 L3.45 15.05 4.0 14.3 Q6.1 11.65 9.35 10.9 L8.7 11.7 8.55 12.0 7.75 12.45 7.75 12.4 7.65 12.5 7.6 12.55 Q6.65 13.2 5.8 14.15 L4.8 15.35 Q3.85 16.8 3.85 18.2 L4.05 19.4 4.8 20.85 5.55 21.8 6.6 22.75 Q3.2 20.6 3.2 17.1 L3.45 15.1 M20.15 10.0 L20.2 10.0 21.0 10.1 22.1 10.45 Q22.6 10.55 23.1 10.8 22.15 10.9 21.55 11.45 21.05 11.85 20.9 12.5 L20.9 12.75 Q20.9 13.1 21.05 13.35 L21.25 13.65 Q22.1 14.0 22.6 14.7 L23.45 16.2 Q23.85 17.05 23.85 18.0 23.85 18.9 23.35 19.8 L21.3 22.05 20.9 22.35 20.45 22.7 20.9 22.2 21.9 20.95 21.95 20.9 22.5 20.0 Q23.0 19.25 22.9 17.3 22.8 15.3 21.1 14.3 L20.4 13.85 19.8 13.55 18.8 13.05 Q18.1 12.9 17.75 12.6 L17.6 12.4 17.5 12.3 17.45 12.3 17.45 12.2 17.4 12.1 17.35 12.05 Q17.6 11.3 18.15 10.85 L18.3 10.75 Q18.9 10.25 20.15 10.0 M9.8 13.75 L9.7 14.7 9.65 15.4 9.7 15.85 9.9 16.75 9.7 16.95 9.7 17.0 9.3 17.15 8.45 17.35 8.0 17.3 7.8 17.3 Q7.4 17.2 7.35 16.75 L7.15 15.35 7.2 14.9 7.35 14.25 7.4 13.95 7.85 12.5 8.2 12.7 8.55 12.95 9.8 13.75" fill="#c3b7a1" fill-rule="evenodd" stroke="none"/>
      <path d="M24.7 8.9 L23.5 11.0 23.1 10.8 24.4 9.0 24.7 8.9 M14.15 20.55 L14.25 19.75 14.3 19.05 14.35 19.05 14.85 18.75 Q15.1 18.55 15.3 18.5 L15.6 18.35 15.1 18.75 14.95 18.85 14.9 18.95 14.3 20.75 14.15 20.55 M16.45 17.75 L16.65 17.35 16.95 16.6 17.25 15.8 17.75 15.9 17.75 15.95 16.85 17.45 16.45 17.75 M18.85 16.0 L18.7 16.25 18.3 17.0 17.6 18.35 17.15 20.15 16.45 20.75 15.5 21.65 16.15 20.75 16.75 19.75 16.8 19.45 17.15 18.1 17.95 16.75 18.0 16.7 18.45 16.0 18.45 15.95 18.85 16.0" fill="#846b8b" fill-rule="evenodd" stroke="none"/>
      <path d="M17.85 24.25 L18.0 24.1 20.45 22.7 20.9 22.35 21.3 22.05 23.35 19.8 Q23.85 18.9 23.85 18.0 23.85 17.05 23.45 16.2 L22.6 14.7 Q22.1 14.0 21.25 13.65 L21.05 13.35 Q20.9 13.1 20.9 12.75 L20.9 12.5 Q21.05 11.85 21.55 11.45 22.15 10.9 23.1 10.8 L23.5 11.0 24.45 11.7 25.8 13.1 Q25.45 13.2 25.2 13.4 24.7 13.85 24.75 14.35 L25.35 15.65 Q25.85 16.35 25.8 18.0 25.8 19.65 23.0 21.7 20.2 23.75 17.85 24.25 M8.25 23.65 L8.3 23.75 8.65 24.05 8.3 24.0 7.95 23.75 6.6 22.8 6.6 22.75 5.55 21.8 4.8 20.85 4.05 19.4 3.85 18.2 Q3.85 16.8 4.8 15.35 L5.8 14.15 Q6.65 13.2 7.6 12.55 6.45 13.9 5.85 15.15 L5.85 15.4 5.9 15.4 6.1 15.25 6.4 15.1 Q6.35 16.9 7.0 17.5 L7.2 17.65 7.25 17.7 7.65 17.7 8.6 17.55 9.7 17.0 Q8.85 17.85 7.4 18.0 L7.15 18.0 6.9 18.0 6.3 18.0 6.25 18.0 Q5.75 16.95 5.85 15.45 4.55 16.8 4.55 18.3 4.55 20.7 6.0 22.05 L7.55 23.2 8.25 23.65 M8.2 12.7 L7.85 12.5 7.75 12.45 8.55 12.0 8.2 12.7 M5.85 15.45 L5.85 15.4 5.85 15.45" fill="#e7dcc6" fill-rule="evenodd" stroke="none"/>
      <path d="M13.65 27.45 L13.3 27.65 13.2 27.5 13.2 25.85 13.4 26.15 13.7 26.0 15.55 24.9 15.55 23.85 14.7 23.45 16.05 22.85 Q18.3 21.75 20.05 19.65 L20.7 18.8 21.6 17.45 21.85 18.0 21.95 18.5 21.2 19.65 20.0 21.0 Q18.45 22.5 15.95 23.7 L15.95 25.1 13.7 26.35 13.65 27.45 M9.35 10.9 L9.6 10.65 9.8 11.35 9.7 11.8 9.6 11.9 9.1 12.3 Q8.7 12.5 8.55 12.95 L8.2 12.7 8.55 12.0 8.7 11.7 9.35 10.9 M11.0 6.0 L11.2 6.15 11.15 6.3 11.0 6.35 10.85 6.3 10.85 6.2 11.0 6.0 M8.6 19.95 L8.45 20.0 8.4 19.9 8.4 19.85 Q8.4 19.6 8.5 19.7 L8.6 19.75 8.6 19.95 M9.95 19.9 L9.8 19.95 9.65 19.8 9.6 19.6 Q9.6 19.4 9.8 19.6 L9.95 19.85 9.95 19.9 M10.15 22.5 L10.35 22.15 10.5 22.3 10.45 22.5 10.25 22.6 10.15 22.55 10.15 22.5 M13.25 19.1 L13.4 19.05 13.6 19.45 13.75 19.8 13.7 19.85 13.3 19.5 13.15 19.2 13.15 19.1 13.25 19.1 M11.45 19.25 L11.6 19.3 11.7 19.6 11.6 19.65 11.45 19.45 11.35 19.3 Q11.35 19.2 11.45 19.25 M12.45 21.65 L12.45 21.8 12.35 22.0 12.2 22.15 12.1 22.05 12.15 21.85 Q12.25 21.65 12.45 21.65 M13.5 23.6 L13.6 23.75 13.05 24.0 13.5 23.6" fill="#f4926c" fill-rule="evenodd" stroke="none"/>
      <path d="M10.7 14.05 L10.7 13.75 11.05 13.35 Q11.3 13.2 11.3 13.55 L11.2 13.85 10.8 14.1 10.7 14.05" fill="#3e79a3" fill-rule="evenodd" stroke="none"/>
      <path d="M14.55 16.0 L14.65 16.0 13.95 16.6 13.8 16.45 13.6 16.4 13.45 16.4 13.5 16.5 13.35 16.75 13.0 16.85 12.8 16.65 12.55 16.9 12.5 17.05 11.85 16.85 11.9 16.8 13.0 16.1 14.55 16.0" fill="#f9cd7b" fill-rule="evenodd" stroke="none"/>
      <path d="M12.5 17.05 L12.55 16.9 12.8 16.65 13.0 16.85 13.35 16.75 13.5 16.5 13.45 16.4 13.6 16.4 13.8 16.45 13.95 16.6 13.4 17.05 12.5 17.05" fill="#ffffaa" fill-rule="evenodd" stroke="none"/>
      <path d="M7.8 18.9 L7.05 18.5 6.3 18.05 6.25 18.0 6.3 18.0 6.9 18.0 7.15 18.0 7.4 18.0 Q8.85 17.85 9.7 17.0 L9.7 16.95 9.9 16.75 9.7 15.85 9.65 15.4 9.7 14.7 9.8 13.75 10.35 14.1 10.35 15.6 10.8 17.05 10.8 17.5 8.85 19.25 8.7 19.4 7.8 18.9 M9.95 17.45 L9.9 17.3 8.85 17.95 7.65 18.25 8.1 18.55 8.75 18.9 9.55 18.25 10.05 17.55 9.95 17.45" fill="#a39280" fill-rule="evenodd" stroke="none"/>
      <path d="M10.1 20.4 L10.25 20.55 10.95 19.45 11.0 19.35 11.2 19.6 11.25 19.6 11.9 20.15 12.0 20.25 12.8 19.3 12.85 19.25 13.95 20.4 13.6 21.65 13.55 21.85 12.45 20.9 12.4 21.05 11.7 22.5 11.65 22.5 10.5 21.45 10.0 22.35 9.9 21.6 10.05 20.5 10.1 20.4 M14.9 18.95 L14.95 18.85 15.1 18.75 14.9 18.95" fill="#1d2441" fill-rule="evenodd" stroke="none"/>
      <path d="M18.0 24.1 L19.7 22.55 20.8 21.3 20.9 21.2 21.7 19.8 21.95 18.5 21.85 18.0 21.6 17.45 21.4 17.25 20.75 16.6 Q19.95 16.0 18.95 16.0 L18.85 16.0 18.45 15.95 17.75 15.9 17.25 15.8 17.05 15.8 Q16.65 15.7 16.4 15.4 L15.95 14.45 Q15.8 13.55 16.15 12.5 16.45 13.45 17.0 14.0 17.5 14.5 18.15 14.55 L18.45 14.55 18.6 14.6 19.2 14.75 19.25 14.75 Q20.7 15.05 21.3 15.65 L22.2 16.7 Q22.55 17.0 22.55 18.3 L22.55 18.55 22.55 18.65 22.4 19.8 21.95 20.9 21.9 20.95 20.9 22.2 20.45 22.7 18.0 24.1" fill="#ae9375" fill-rule="evenodd" stroke="none"/>
      <path d="M18.3 17.0 L18.55 17.3 18.85 17.75 Q18.0 18.55 17.55 19.5 L16.85 20.95 16.5 21.95 16.3 22.4 16.3 22.45 16.05 22.85 14.7 23.45 14.8 24.4 14.3 24.95 13.95 25.05 13.75 23.35 15.5 21.65 16.45 20.75 17.15 20.15 17.6 18.35 18.3 17.0" fill="#222b4d" fill-rule="evenodd" stroke="none"/>
      <path d="M19.7 22.55 L18.4 23.55 18.6 23.35 20.8 21.3 19.7 22.55 M19.5 17.1 L20.7 18.8 20.05 19.65 19.3 18.4 18.85 17.75 19.5 17.1" fill="#6b5e7c" fill-rule="evenodd" stroke="none"/>
      <path d="M25.8 13.1 Q26.95 14.5 27.35 16.0 27.7 17.35 27.35 18.7 L27.05 19.8 Q25.95 22.45 20.9 23.7 L18.5 24.2 17.8 24.3 17.85 24.25 18.0 24.1 19.7 22.55 20.8 21.3 18.6 23.35 17.25 24.2 16.9 24.35 16.7 25.75 13.65 27.45 13.3 27.65 13.2 27.5 12.25 25.65 12.15 24.55 10.5 24.6 10.05 24.1 9.25 23.05 8.95 22.5 Q8.85 22.15 9.25 21.15 L9.4 21.95 9.8 22.5 9.9 22.55 9.0 20.2 8.7 20.75 7.8 18.9 7.05 18.5 Q5.75 20.75 8.25 23.65 L8.3 23.75 8.65 24.05 8.3 24.0 Q5.55 23.2 3.8 20.85 2.1 18.55 2.9 16.2 L3.45 15.1 3.45 15.05 4.0 14.3 Q6.1 11.65 9.35 10.9 L9.6 10.65 9.9 10.4 10.6 5.95 Q12.15 3.85 15.2 2.9 L14.8 3.6 Q14.4 4.55 14.35 5.5 L14.65 7.95 14.7 8.2 14.75 8.35 17.55 8.3 18.75 8.35 19.45 8.35 24.45 8.85 24.7 8.9 23.5 11.0 24.45 11.7 25.8 13.1 M18.0 9.1 L17.9 9.15 M16.4 15.4 L15.95 14.45 Q15.8 13.55 16.15 12.5 L16.2 12.3 Q16.6 11.4 17.2 10.85 L18.45 10.05 18.9 9.9 19.5 9.95 20.15 10.0 20.2 10.0 21.0 10.1 22.1 10.45 Q22.6 10.55 23.1 10.8 L23.5 11.0 M14.75 8.35 Q13.45 8.7 12.75 9.25 M10.95 9.95 L11.4 6.3 Q12.45 4.55 15.2 2.9 M10.35 14.1 L10.4 14.0 M10.8 17.05 L10.8 17.5 8.85 19.25 8.7 19.4 7.8 18.9 M15.7 18.3 L16.45 17.75 16.85 17.45 17.75 15.95 17.75 15.9 18.45 15.95 18.85 16.0 18.7 16.25 18.3 17.0 17.6 18.35 17.15 20.15 16.45 20.75 15.5 21.65 13.75 23.35 13.5 23.6 13.6 23.75 13.75 25.1 13.95 25.05 14.3 24.95 14.85 24.75 14.8 24.4 14.7 23.45 16.05 22.85 Q18.3 21.75 20.05 19.65 L20.7 18.8 Q20.2 17.75 19.7 17.3 L21.4 17.25 21.6 17.45 21.85 18.0 21.95 18.5 21.7 19.8 20.9 21.2 20.8 21.3 M17.25 15.8 L17.05 15.8 Q16.65 15.7 16.4 15.4 M11.85 16.85 L12.5 17.05 13.4 17.05 13.95 16.6 14.65 16.0 M10.35 14.1 L9.8 13.75 8.55 12.95 8.2 12.7 8.55 12.0 8.7 11.7 9.35 10.9 M6.25 18.0 L6.3 18.05 7.05 18.5 M7.85 12.5 L8.2 12.7 M7.75 12.45 L7.85 12.5 M5.85 15.4 L5.85 15.45 Q5.75 16.95 6.25 18.0 M7.6 12.55 L7.65 12.5 7.75 12.4 7.75 12.45 M7.6 12.55 Q6.45 13.9 5.85 15.15 L5.85 15.4 M9.25 19.75 L9.35 19.8 9.4 19.8 10.1 20.4 10.25 20.55 10.95 19.45 11.0 19.35 11.2 19.6 11.25 19.6 11.9 20.15 12.0 20.25 12.8 19.3 12.85 19.25 13.95 20.4 14.25 20.75 14.3 20.75 14.9 18.95 15.1 18.75 15.6 18.35 M9.25 19.75 L9.0 20.2 M10.0 22.35 L10.5 21.45 11.65 22.5 11.7 22.5 12.4 21.05 12.45 20.9 13.55 21.85 13.6 21.65 13.95 20.4 M9.9 22.55 L10.0 22.35 M15.1 18.75 L14.95 18.85 14.9 18.95 M21.4 17.25 L20.75 16.6 Q19.95 16.0 18.95 16.0 L18.85 16.0 M17.25 15.8 L17.75 15.9 M13.05 24.0 L12.85 24.15 12.55 24.5 12.15 24.55 M13.5 23.6 L13.05 24.0" fill="none" stroke="#3d100a" stroke-linecap="round" stroke-linejoin="round" stroke-width="0.5"/>
      <path d="M19.7 22.55 L18.4 23.55 17.25 24.2 M17.9 9.15 L15.7 10.05 13.15 11.5 12.9 11.6 Q11.85 12.35 10.85 13.25 L10.4 14.0 M11.35 14.0 L13.15 12.3 M18.55 9.4 Q18.5 9.2 18.0 9.1 M15.8 15.85 L16.15 15.6 16.4 15.4 M18.45 10.05 L18.55 9.55 18.55 9.4 M11.1 15.6 L11.1 14.35 11.35 14.0 M11.9 16.8 L11.55 17.05 10.8 17.05 10.35 15.6 10.35 14.1 M11.9 16.8 L11.95 16.75 13.0 16.0 14.55 16.0 M14.65 16.0 L15.45 16.0 15.8 15.85 M18.7 16.25 L19.5 17.1 20.7 18.8 M13.75 23.35 L13.95 25.05" fill="none" stroke="#181d36" stroke-linecap="round" stroke-linejoin="round" stroke-width="0.5"/>
    </g>
  </defs>
</svg>
