<?xml version="1.0" encoding="UTF-8" standalone="no"?>
<svg xmlns:ffdec="https://www.free-decompiler.com/flash" xmlns:xlink="http://www.w3.org/1999/xlink" ffdec:objectType="frame" height="30.1px" width="30.0px" xmlns="http://www.w3.org/2000/svg">
  <g transform="matrix(1.0, 0.0, 0.0, 1.0, 0.0, 0.0)">
    <use ffdec:characterId="1" height="30.0" transform="matrix(1.0, 0.0, 0.0, 1.0, 0.0, 0.0)" width="30.0" xlink:href="#shape0"/>
    <use ffdec:characterId="3" height="30.0" transform="matrix(1.0, 0.0, 0.0, 1.0, 0.0, 0.1)" width="30.0" xlink:href="#sprite0"/>
  </g>
  <defs>
    <g id="shape0" transform="matrix(1.0, 0.0, 0.0, 1.0, 0.0, 0.0)">
      <path d="M0.0 0.0 L30.0 0.0 30.0 30.0 0.0 30.0 0.0 0.0" fill="#33cc66" fill-opacity="0.0" fill-rule="evenodd" stroke="none"/>
    </g>
    <g id="sprite0" transform="matrix(1.0, 0.0, 0.0, 1.0, 0.0, 0.0)">
      <use ffdec:characterId="2" height="30.0" transform="matrix(1.0, 0.0, 0.0, 1.0, 0.0, 0.0)" width="30.0" xlink:href="#shape1"/>
    </g>
    <g id="shape1" transform="matrix(1.0, 0.0, 0.0, 1.0, 0.0, 0.0)">
      <path d="M26.7 0.0 Q30.0 0.0 30.0 3.3 L30.0 26.7 Q30.0 28.15 29.4 28.95 28.55 30.0 26.7 30.0 L3.3 30.0 Q0.0 30.0 0.0 26.7 L0.0 3.3 Q0.0 0.0 3.3 0.0 L26.7 0.0" fill="#a56db4" fill-rule="evenodd" stroke="none"/>
      <path d="M15.15 3.95 L15.15 3.85 14.25 4.85 Q12.35 4.95 10.7 5.7 L7.95 3.4 8.5 6.95 7.4 7.95 6.95 8.5 6.15 7.95 6.5 8.95 Q5.6 10.15 5.05 11.5 L2.5 12.15 4.5 13.6 4.3 15.35 4.4 16.45 3.6 16.9 4.5 17.15 Q4.6 18.25 5.05 19.25 3.85 20.45 3.15 21.55 L5.95 21.0 7.05 22.45 6.15 24.75 7.95 23.2 9.25 24.3 9.05 27.1 11.05 25.2 14.45 25.85 15.0 26.75 15.15 26.75 15.8 25.85 19.1 25.2 21.1 27.1 20.9 24.2 22.2 23.2 24.1 24.75 23.1 22.35 23.45 22.0 24.1 21.0 26.85 21.55 25.1 19.1 25.65 17.15 26.65 16.9 Q26.1 16.55 25.65 16.35 L25.75 15.35 25.65 13.7 Q26.45 13.05 27.75 12.15 L25.0 11.5 Q24.55 10.15 23.65 9.05 L24.1 7.95 Q23.55 8.25 23.2 8.5 L22.65 7.95 22.1 7.5 21.55 7.05 22.35 3.4 19.45 5.7 Q17.8 4.95 15.9 4.85 L15.15 3.95 M21.55 7.5 L21.35 9.05 Q21.8 9.25 22.9 8.7 L22.45 8.25 21.55 7.5 M21.1 6.85 L21.45 5.05 Q19.55 6.4 18.1 7.5 L17.9 7.7 17.7 7.8 17.25 7.5 15.35 5.4 15.35 5.3 15.25 5.4 14.15 6.6 13.25 7.5 13.05 7.7 12.8 7.8 12.6 7.7 12.35 7.5 10.8 6.4 9.15 5.05 9.6 7.5 9.95 9.7 9.25 9.7 7.95 9.05 8.8 9.05 8.7 7.7 8.05 8.25 7.95 8.25 7.5 8.8 7.6 8.8 7.95 10.05 8.25 11.5 7.95 11.5 Q6.15 11.7 4.4 12.25 7.05 14.05 7.05 14.8 7.05 15.25 5.3 16.25 7.25 16.55 7.5 17.35 5.85 18.9 5.05 20.25 L7.95 19.65 8.15 19.65 8.25 19.65 8.5 19.9 Q8.7 20.35 7.95 22.0 L7.6 22.9 8.25 22.35 8.25 22.2 8.6 22.0 Q9.05 21.55 9.35 21.45 L9.5 21.35 Q10.05 21.0 10.15 21.2 L10.25 22.0 Q10.35 23.2 10.05 24.75 L12.7 22.2 13.05 22.2 13.7 22.9 14.7 23.75 15.15 24.45 15.15 24.55 15.35 24.55 15.35 24.45 16.25 23.2 Q17.25 22.2 17.7 22.2 L17.8 22.1 Q18.55 23.1 20.45 24.75 L20.35 22.65 20.35 22.55 20.35 22.0 20.35 21.2 Q20.55 20.9 22.0 22.0 L23.0 22.9 22.55 22.0 22.2 21.0 Q21.9 20.0 22.1 19.9 22.1 19.65 22.45 19.65 L25.45 20.25 24.35 18.8 23.45 17.7 23.0 17.35 Q23.2 16.55 25.1 16.25 L24.0 15.6 24.0 15.45 23.45 14.8 Q23.45 14.05 26.1 12.25 24.35 11.7 22.35 11.5 22.1 10.8 23.0 8.8 L21.9 9.5 21.8 9.5 21.55 9.6 20.55 9.7 20.9 7.6 20.9 7.5 21.1 6.85 M23.2 11.15 L24.55 11.35 23.55 9.5 Q23.1 10.6 23.2 11.15 M24.55 15.15 Q24.55 14.7 25.2 14.05 L25.3 15.25 25.3 16.0 Q24.55 15.45 24.55 15.15 M24.1 18.1 Q24.2 17.7 25.1 17.35 L24.65 18.8 24.1 18.1 M21.0 23.45 L21.65 22.9 Q21.1 22.55 21.0 22.9 L21.0 23.45 M23.55 21.0 L23.35 21.0 Q23.1 21.0 23.0 21.2 L23.0 21.65 23.55 21.0 M18.1 6.7 L19.0 5.95 16.35 5.4 17.9 6.85 18.1 6.7 M12.5 6.7 L13.8 5.4 11.15 6.05 12.05 6.7 12.15 6.85 Q12.35 6.7 12.5 6.7 M6.7 9.8 L5.85 11.35 6.85 11.15 6.7 9.8 M5.6 15.15 L5.15 14.15 5.05 15.25 5.15 15.9 5.6 15.15 M6.05 18.1 Q5.95 17.7 5.3 17.45 L5.6 18.55 6.05 18.1 M9.15 22.9 Q9.05 22.65 8.7 22.9 L9.25 23.2 9.15 22.9 M12.05 24.0 L11.6 24.55 13.25 25.0 13.6 25.1 13.35 24.75 12.5 24.0 12.35 24.0 12.15 24.0 12.05 24.0 M16.45 25.1 L18.7 24.65 18.1 24.0 17.9 24.0 Q17.45 24.0 16.45 25.1 Z" fill="none" stroke="#ffffff" stroke-linecap="round" stroke-linejoin="round" stroke-width="3.0"/>
      <path d="M15.15 3.85 L15.15 3.95 15.9 4.85 Q17.8 4.95 19.45 5.7 L22.35 3.4 21.55 7.05 22.1 7.5 22.65 7.95 23.2 8.5 Q23.55 8.25 24.1 7.95 L23.65 9.05 Q24.55 10.15 25.0 11.5 L27.75 12.15 Q26.45 13.05 25.65 13.7 L25.75 15.35 25.65 16.35 Q26.1 16.55 26.65 16.9 L25.65 17.15 25.1 19.1 26.85 21.55 24.1 21.0 23.45 22.0 23.1 22.35 24.1 24.75 22.2 23.2 20.9 24.2 21.1 27.1 19.1 25.2 15.8 25.85 15.15 26.75 15.0 26.75 14.45 25.85 11.05 25.2 9.05 27.1 9.25 24.3 7.95 23.2 6.15 24.75 7.05 22.45 5.95 21.0 3.15 21.55 Q3.85 20.45 5.05 19.25 4.6 18.25 4.5 17.15 L3.6 16.9 4.4 16.45 4.3 15.35 4.5 13.6 2.5 12.15 5.05 11.5 Q5.6 10.15 6.5 8.95 L6.15 7.95 6.95 8.5 7.4 7.95 8.5 6.95 7.95 3.4 10.7 5.7 Q12.35 4.95 14.25 4.85 L15.15 3.85 M17.15 11.4 L15.9 9.7 Q14.8 8.35 13.65 8.35 L12.95 8.5 12.9 8.8 Q12.9 9.15 13.45 9.3 14.25 9.55 14.75 10.1 L15.95 11.55 17.2 13.25 17.3 14.65 Q17.3 16.7 16.3 17.75 15.2 18.9 12.4 19.35 11.1 18.6 11.1 16.5 11.1 15.9 11.8 14.7 12.7 13.1 13.85 13.1 14.9 13.1 15.4 13.95 15.75 14.5 15.75 15.1 L15.2 15.7 Q14.4 16.05 14.3 16.15 L13.7 16.15 13.4 15.75 13.45 15.55 13.8 15.55 14.05 15.65 14.45 15.4 14.6 15.0 Q14.6 14.7 14.25 14.55 L13.95 14.55 Q13.2 14.45 12.75 15.0 12.4 15.4 12.4 15.75 L12.7 16.5 Q13.15 17.15 13.95 17.15 L15.6 16.65 Q16.7 16.05 16.7 15.1 L16.25 13.5 Q15.45 12.15 13.75 12.15 12.1 12.15 11.0 14.15 10.15 15.65 10.15 16.5 10.15 19.25 12.1 20.3 L13.4 20.3 Q16.7 19.35 17.65 17.8 18.2 16.9 18.2 14.6 L18.15 12.95 Q17.95 12.1 17.15 11.4 M20.15 10.85 Q19.4 9.35 18.9 9.35 18.4 9.35 18.4 9.8 L19.0 10.8 Q19.55 11.7 19.55 12.45 L19.1 14.15 Q18.65 15.0 18.65 16.3 18.65 17.3 18.8 17.7 19.25 18.9 20.8 18.9 21.3 18.9 22.25 18.25 23.35 17.55 23.5 16.85 L23.8 14.6 23.8 13.75 Q23.55 13.1 22.4 13.1 21.5 13.1 21.1 13.8 20.8 14.25 20.8 14.85 L20.85 15.35 Q21.0 15.85 21.55 15.85 22.05 15.85 22.05 15.35 L21.7 14.75 21.8 14.45 22.2 14.05 22.7 14.05 22.9 14.75 Q22.9 17.1 21.05 17.9 L20.3 17.9 19.6 17.1 19.55 16.45 Q19.55 15.5 20.0 14.45 L20.45 12.45 20.15 10.85 M10.5 10.85 Q10.5 10.35 9.7 10.35 8.95 10.35 8.05 11.75 L7.15 13.55 Q6.35 14.75 6.35 17.0 6.35 19.1 7.35 20.7 9.15 23.6 13.65 23.6 L15.75 23.15 17.55 22.4 18.6 21.4 18.75 20.35 Q18.65 19.1 17.75 19.1 16.9 19.1 16.9 19.6 16.9 20.05 17.35 20.05 17.8 20.1 17.8 20.45 17.8 21.3 15.9 22.05 14.25 22.65 13.05 22.65 L12.4 22.6 Q12.1 22.3 11.5 22.35 L10.55 22.25 9.5 21.6 Q8.7 21.15 8.15 20.15 L7.4 18.5 Q7.25 17.95 7.25 17.0 L7.5 15.5 7.9 14.15 Q9.35 11.3 9.8 11.3 10.5 11.3 10.5 10.85" fill="url(#gradient0)" fill-rule="evenodd" stroke="none"/>
      <path d="M20.15 10.85 L20.45 12.45 20.0 14.45 Q19.55 15.5 19.55 16.45 L19.6 17.1 20.3 17.9 21.05 17.9 Q22.9 17.1 22.9 14.75 L22.7 14.05 22.2 14.05 21.8 14.45 21.7 14.75 22.05 15.35 Q22.05 15.85 21.55 15.85 21.0 15.85 20.85 15.35 L20.8 14.85 Q20.8 14.25 21.1 13.8 21.5 13.1 22.4 13.1 23.55 13.1 23.8 13.75 L23.8 14.6 23.5 16.85 Q23.35 17.55 22.25 18.25 21.3 18.9 20.8 18.9 19.25 18.9 18.8 17.7 18.65 17.3 18.65 16.3 18.65 15.0 19.1 14.15 L19.55 12.45 Q19.55 11.7 19.0 10.8 L18.4 9.8 Q18.4 9.35 18.9 9.35 19.4 9.35 20.15 10.85 M17.15 11.4 Q17.95 12.1 18.15 12.95 L18.2 14.6 Q18.2 16.9 17.65 17.8 16.7 19.35 13.4 20.3 L12.1 20.3 Q10.15 19.25 10.15 16.5 10.15 15.65 11.0 14.15 12.1 12.15 13.75 12.15 15.45 12.15 16.25 13.5 L16.7 15.1 Q16.7 16.05 15.6 16.65 L13.95 17.15 Q13.15 17.15 12.7 16.5 L12.4 15.75 Q12.4 15.4 12.75 15.0 13.2 14.45 13.95 14.55 L14.25 14.55 Q14.6 14.7 14.6 15.0 L14.45 15.4 14.05 15.65 13.8 15.55 13.45 15.55 13.4 15.75 13.7 16.15 14.3 16.15 Q14.4 16.05 15.2 15.7 L15.75 15.1 Q15.75 14.5 15.4 13.95 14.9 13.1 13.85 13.1 12.7 13.1 11.8 14.7 11.1 15.9 11.1 16.5 11.1 18.6 12.4 19.35 15.2 18.9 16.3 17.75 17.3 16.7 17.3 14.65 L17.2 13.25 15.95 11.55 14.75 10.1 Q14.25 9.55 13.45 9.3 12.9 9.15 12.9 8.8 L12.95 8.5 13.65 8.35 Q14.8 8.35 15.9 9.7 L17.15 11.4" fill="#ffcc00" fill-rule="evenodd" stroke="none"/>
      <path d="M10.5 10.85 Q10.5 11.3 9.8 11.3 9.35 11.3 7.9 14.15 L7.5 15.5 7.25 17.0 Q7.25 17.95 7.4 18.5 L8.15 20.15 Q8.7 21.15 9.5 21.6 L10.55 22.25 11.5 22.35 Q12.1 22.3 12.4 22.6 L13.05 22.65 Q14.25 22.65 15.9 22.05 17.8 21.3 17.8 20.45 17.8 20.1 17.35 20.05 16.9 20.05 16.9 19.6 16.9 19.1 17.75 19.1 18.65 19.1 18.75 20.35 L18.6 21.4 17.55 22.4 15.75 23.15 13.65 23.6 Q9.15 23.6 7.35 20.7 6.35 19.1 6.35 17.0 6.35 14.75 7.15 13.55 L8.05 11.75 Q8.95 10.35 9.7 10.35 10.5 10.35 10.5 10.85" fill="url(#gradient1)" fill-rule="evenodd" stroke="none"/>
      <path d="M15.15 3.85 L14.25 4.85 Q12.35 4.95 10.7 5.7 L7.95 3.4 8.5 6.95 7.4 7.95 6.95 8.5 6.15 7.95 6.5 8.95 Q5.6 10.15 5.05 11.5 L2.5 12.15 4.5 13.6 4.3 15.35 4.4 16.45 3.6 16.9 4.5 17.15 Q4.6 18.25 5.05 19.25 3.85 20.45 3.15 21.55 L5.95 21.0 7.05 22.45 6.15 24.75 7.95 23.2 9.25 24.3 9.05 27.1 11.05 25.2 14.45 25.85 15.0 26.75 15.15 26.75 15.8 25.85 19.1 25.2 21.1 27.1 20.9 24.2 22.2 23.2 24.1 24.75 23.1 22.35 23.45 22.0 24.1 21.0 26.85 21.55 25.1 19.1 25.65 17.15 26.65 16.9 Q26.1 16.55 25.65 16.35 L25.75 15.35 25.65 13.7 Q26.45 13.05 27.75 12.15 L25.0 11.5 Q24.55 10.15 23.65 9.05 L24.1 7.95 Q23.55 8.25 23.2 8.5 L22.65 7.95 22.1 7.5 21.55 7.05 22.35 3.4 19.45 5.7 Q17.8 4.95 15.9 4.85 L15.15 3.95 15.15 3.85 Z" fill="none" stroke="#330000" stroke-linecap="round" stroke-linejoin="round" stroke-width="1.0"/>
      <path d="M8.85 22.1 L8.95 21.9 9.15 21.8 9.35 21.9 9.45 22.1 9.35 22.3 9.15 22.4 8.95 22.3 8.85 22.1 M15.8 23.4 L15.6 23.5 15.4 23.4 15.3 23.2 15.4 23.0 15.6 22.9 15.8 23.0 15.9 23.2 15.8 23.4 M14.15 19.05 L13.95 19.15 13.75 19.05 13.65 18.85 13.75 18.65 13.95 18.55 14.15 18.65 14.25 18.85 14.15 19.05 M6.7 18.6 L6.9 18.65 7.0 18.85 6.9 19.05 6.7 19.15 6.5 19.05 6.45 18.85 6.5 18.65 6.7 18.6 M5.15 15.9 L4.95 16.0 4.75 15.9 4.65 15.7 4.75 15.5 4.95 15.4 5.15 15.5 5.25 15.7 5.15 15.9 M7.25 10.55 L7.35 10.75 7.25 10.95 7.05 11.05 6.8 10.95 6.75 10.75 6.8 10.55 7.05 10.45 7.25 10.55 M16.0 13.95 L16.2 13.85 16.4 13.95 16.5 14.15 16.4 14.35 16.2 14.45 16.0 14.35 15.9 14.15 16.0 13.95 M11.75 16.95 L11.7 16.75 11.75 16.5 11.95 16.45 12.15 16.5 12.25 16.75 12.15 16.95 11.95 17.0 11.75 16.95 M11.8 7.55 L12.0 7.45 12.2 7.55 12.3 7.75 12.2 7.95 12.0 8.05 11.8 7.95 11.7 7.75 11.8 7.55 M14.05 10.9 L13.95 11.1 13.75 11.2 13.55 11.1 13.5 10.9 13.55 10.7 13.75 10.65 13.95 10.7 14.05 10.9 M19.85 20.9 L19.75 20.7 19.85 20.5 20.05 20.4 20.25 20.5 20.35 20.7 20.25 20.9 20.05 21.0 19.85 20.9 M24.55 16.9 L24.6 17.1 24.55 17.3 24.35 17.4 24.1 17.3 24.05 17.1 24.1 16.9 24.35 16.8 24.55 16.9 M27.1 12.45 L27.3 12.55 27.3 12.95 27.1 13.05 26.9 12.95 26.8 12.75 26.9 12.55 27.1 12.45 M22.95 15.25 L22.85 15.45 22.65 15.55 22.45 15.45 22.35 15.25 22.45 15.05 22.65 14.95 22.85 15.05 22.95 15.25 M20.8 10.7 L21.0 10.6 21.2 10.7 21.3 10.9 21.2 11.1 21.0 11.2 20.8 11.1 20.7 10.9 20.8 10.7 M19.3 8.8 L19.2 9.0 19.0 9.05 18.8 9.0 18.75 8.8 18.8 8.55 19.0 8.5 19.2 8.55 19.3 8.8" fill="#ffffff" fill-rule="evenodd" stroke="none"/>
    </g>
    <linearGradient gradientTransform="matrix(0.0154, 0.0, 0.0, 0.0145, 15.1, 15.25)" gradientUnits="userSpaceOnUse" id="gradient0" spreadMethod="reflect" x1="-819.2" x2="819.2">
      <stop offset="0.0" stop-color="#00ccff"/>
      <stop offset="1.0" stop-color="#62b1da"/>
    </linearGradient>
    <linearGradient gradientTransform="matrix(0.0076, 0.0, 0.0, 0.0081, 12.55, 16.95)" gradientUnits="userSpaceOnUse" id="gradient1" spreadMethod="reflect" x1="-819.2" x2="819.2">
      <stop offset="0.0" stop-color="#00ccff"/>
      <stop offset="1.0" stop-color="#62b1da"/>
    </linearGradient>
  </defs>
</svg>
