<?xml version="1.0" encoding="UTF-8" standalone="no"?>
<svg xmlns:ffdec="https://www.free-decompiler.com/flash" xmlns:xlink="http://www.w3.org/1999/xlink" ffdec:objectType="frame" height="30.0px" width="30.0px" xmlns="http://www.w3.org/2000/svg">
  <g transform="matrix(1.0, 0.0, 0.0, 1.0, 0.0, 0.0)">
    <use ffdec:characterId="1" height="30.0" transform="matrix(1.0, 0.0, 0.0, 1.0, 0.0, 0.0)" width="30.0" xlink:href="#shape0"/>
  </g>
  <defs>
    <g id="shape0" transform="matrix(1.0, 0.0, 0.0, 1.0, 0.0, 0.0)">
      <path d="M0.0 0.0 L30.0 0.0 30.0 30.0 0.0 30.0 0.0 0.0" fill="#33cc66" fill-opacity="0.0" fill-rule="evenodd" stroke="none"/>
      <path d="M26.7 0.0 Q30.0 0.0 30.0 3.3 L30.0 26.7 Q30.0 30.0 26.7 30.0 L3.3 30.0 Q0.0 30.0 0.0 26.7 L0.0 3.3 Q0.0 0.0 3.3 0.0 L26.7 0.0" fill="#6699cc" fill-rule="evenodd" stroke="none"/>
      <path d="M8.35 12.7 L8.2 12.75 7.75 12.85 7.3 13.0 7.3 12.9 7.3 12.85 7.85 12.7 8.05 12.6 8.15 12.6 8.4 12.55 8.75 12.5 9.4 12.7 9.6 12.75 9.85 12.85 10.4 13.1 10.7 13.25 10.6 13.4 10.0 13.1 9.7 13.0 9.6 13.0 9.4 12.9 9.2 12.85 8.7 12.75 8.5 12.7 8.45 12.7 8.35 12.7" fill="#001090" fill-rule="evenodd" stroke="none"/>
      <path d="M8.25 12.85 L8.35 12.7 8.45 12.7 8.5 12.7 8.7 12.75 9.2 12.85 9.4 12.9 9.6 13.0 9.4 12.95 9.0 12.9 8.5 12.85 8.45 12.85 8.25 12.85" fill="#1395ff" fill-rule="evenodd" stroke="none"/>
      <path d="M7.3 13.0 L7.75 12.85 8.2 12.75 8.35 12.7 8.25 12.85 8.0 12.9 7.7 13.0 6.85 13.25 6.75 13.3 6.35 13.45 6.3 13.35 6.55 13.25 6.85 13.1 7.3 13.0" fill="#17c7ff" fill-rule="evenodd" stroke="none"/>
      <path d="M6.75 13.3 L6.85 13.25 7.7 13.0 8.0 12.9 8.25 12.85 8.45 12.85 8.5 12.85 9.0 12.9 8.55 13.05 8.45 13.1 8.15 13.2 7.85 13.35 7.9 13.6 7.55 13.5 6.75 13.3" fill="#0b6dff" fill-rule="evenodd" stroke="none"/>
      <path d="M7.3 13.0 L6.85 13.1 6.55 13.25 6.3 13.35 5.45 13.75 5.65 14.35 6.25 15.1 6.45 15.25 6.6 15.35 7.35 15.8 7.35 15.85 6.6 15.4 6.2 15.1 5.7 14.65 5.6 14.4 5.15 13.75 Q5.75 13.45 6.25 13.25 L6.4 13.2 7.3 12.9 7.3 13.0" fill="#003cae" fill-rule="evenodd" stroke="none"/>
      <path d="M6.65 14.85 Q7.0 14.55 7.4 14.35 L7.6 14.25 8.05 14.0 8.2 14.4 8.7 14.85 8.85 15.0 8.5 15.55 8.45 15.65 8.3 16.0 6.9 15.1 6.8 14.95 6.65 14.85" fill="#0085fe" fill-rule="evenodd" stroke="none"/>
      <path d="M6.35 13.45 L6.75 13.3 7.55 13.5 7.9 13.6 8.05 13.95 8.05 14.0 7.6 14.25 7.4 14.35 Q7.0 14.55 6.65 14.85 L5.85 14.15 5.75 13.75 6.35 13.45" fill="#0074fd" fill-rule="evenodd" stroke="none"/>
      <path d="M8.05 14.0 L8.05 13.95 7.9 13.6 7.85 13.35 8.15 13.2 8.2 13.3 8.15 13.35 8.15 13.4 8.15 13.65 8.2 13.8 8.25 13.95 8.05 14.0" fill="#13ecff" fill-rule="evenodd" stroke="none"/>
      <path d="M9.25 13.1 L8.8 13.2 8.65 13.25 8.4 13.4 8.35 13.4 8.35 13.5 8.35 13.6 8.35 13.7 8.4 13.9 8.5 14.05 8.55 14.15 8.6 14.25 8.5 14.3 8.95 14.7 8.55 14.4 8.4 14.25 8.25 13.95 8.2 13.8 8.15 13.65 8.15 13.4 8.15 13.35 8.2 13.3 8.5 13.2 8.6 13.15 8.95 13.1 9.1 13.1 9.25 13.1" fill="#0012de" fill-rule="evenodd" stroke="none"/>
      <path d="M9.6 13.0 L9.7 13.0 9.55 13.2 9.45 13.15 9.25 13.1 9.1 13.1 8.95 13.1 8.6 13.15 8.5 13.2 8.2 13.3 8.15 13.2 8.45 13.1 8.55 13.05 9.0 12.9 9.4 12.95 9.6 13.0" fill="#1af3ff" fill-rule="evenodd" stroke="none"/>
      <path d="M8.65 13.25 L8.8 13.2 9.25 13.1 9.45 13.15 9.55 13.85 9.45 13.85 9.1 13.85 9.0 13.85 9.0 13.9 8.95 13.85 8.85 13.6 8.65 13.25" fill="#0671f5" fill-rule="evenodd" stroke="none"/>
      <path d="M8.55 14.15 L8.5 14.05 8.4 13.9 8.35 13.7 8.35 13.6 8.35 13.5 8.35 13.4 8.4 13.4 8.65 13.25 8.85 13.6 8.95 13.85 9.0 13.9 8.85 13.95 8.7 14.05 8.55 14.15" fill="#0772f2" fill-rule="evenodd" stroke="none"/>
      <path d="M8.85 15.0 L8.7 14.85 8.2 14.4 8.05 14.0 8.25 13.95 8.4 14.25 8.55 14.4 8.95 14.7 9.0 14.75 9.05 14.75 9.1 14.85 8.9 15.05 8.85 15.0" fill="#1df5ff" fill-rule="evenodd" stroke="none"/>
      <path d="M8.6 14.25 L8.55 14.15 8.7 14.05 8.85 13.95 9.0 13.9 9.0 13.85 9.1 13.85 9.45 13.85 9.45 14.0 9.1 14.05 9.0 14.1 8.9 14.1 8.65 14.2 8.6 14.25" fill="#24deff" fill-rule="evenodd" stroke="none"/>
      <path d="M8.95 14.7 L8.5 14.3 8.6 14.25 8.65 14.2 8.9 14.1 9.0 14.1 9.1 14.05 9.45 14.0 9.55 14.0 9.6 14.0 9.75 14.2 9.55 14.2 9.5 14.2 9.2 14.25 9.0 14.25 8.8 14.35 9.0 14.55 9.2 14.7 9.95 15.25 10.25 15.45 9.95 15.4 9.9 15.35 9.65 15.3 9.15 14.9 9.1 14.85 9.05 14.75 9.0 14.75 8.95 14.7" fill="#0619cd" fill-rule="evenodd" stroke="none"/>
      <path d="M6.3 13.35 L6.35 13.45 5.75 13.75 5.85 14.15 6.65 14.85 6.8 14.95 6.9 15.1 6.7 15.3 6.35 15.0 5.65 14.35 5.45 13.75 6.3 13.35" fill="#03f5f7" fill-rule="evenodd" stroke="none"/>
      <path d="M10.25 17.15 L10.0 17.05 8.95 16.65 8.5 16.45 8.2 16.3 7.35 15.85 7.35 15.8 6.6 15.35 6.45 15.25 6.25 15.1 5.65 14.35 6.35 15.0 6.7 15.3 7.35 15.7 7.75 15.9 7.9 15.95 7.95 16.0 8.05 16.05 8.2 16.2 8.25 16.2 9.05 16.55 9.95 16.9 10.3 17.0 10.25 17.15" fill="#002fdc" fill-rule="evenodd" stroke="none"/>
      <path d="M9.1 14.85 L9.15 14.9 9.65 15.3 9.95 15.5 10.65 15.95 11.05 16.2 10.05 15.75 9.9 15.7 8.9 15.05 9.1 14.85" fill="#03d4ff" fill-rule="evenodd" stroke="none"/>
      <path d="M8.3 16.0 L8.45 15.65 8.5 15.55 8.85 15.0 8.9 15.05 9.9 15.7 9.9 16.0 9.95 16.85 9.1 16.45 8.7 16.25 8.3 16.0" fill="#00aaff" fill-rule="evenodd" stroke="none"/>
      <path d="M6.9 15.1 L8.3 16.0 8.7 16.25 9.1 16.45 9.05 16.55 8.25 16.2 8.2 16.2 8.05 16.05 7.95 16.0 7.9 15.95 7.75 15.9 7.35 15.7 6.7 15.3 6.9 15.1" fill="#1ae2ff" fill-rule="evenodd" stroke="none"/>
      <path d="M9.05 16.55 L9.1 16.45 9.95 16.85 10.45 17.05 11.7 17.4 13.45 17.9 14.5 18.2 13.55 18.05 13.4 18.0 12.8 17.85 11.65 17.55 11.45 17.45 11.3 17.4 10.3 17.0 9.95 16.9 9.05 16.55" fill="#1fdbff" fill-rule="evenodd" stroke="none"/>
      <path d="M15.35 13.35 L15.35 13.4 15.45 13.85 15.6 14.35 15.3 14.5 15.2 14.6 14.95 14.75 14.8 14.9 14.7 15.0 14.5 14.85 14.45 14.8 14.4 14.75 13.95 14.4 13.75 14.25 14.0 13.7 14.05 13.65 14.35 13.05 14.55 12.6 14.65 12.7 14.4 13.15 14.4 13.25 14.15 13.75 14.05 14.0 14.0 14.2 14.25 14.45 14.45 14.6 14.7 14.8 15.35 14.4 15.3 13.9 15.2 13.3 15.35 13.35" fill="#001af7" fill-rule="evenodd" stroke="none"/>
      <path d="M14.15 14.1 L14.25 13.85 14.5 13.25 14.8 12.6 14.75 13.45 14.7 13.6 14.65 14.2 14.65 14.6 14.3 14.35 14.15 14.15 14.15 14.1" fill="#086ffc" fill-rule="evenodd" stroke="none"/>
      <path d="M15.3 13.9 L15.35 14.4 14.7 14.8 14.45 14.6 14.25 14.45 14.0 14.2 14.05 14.0 14.15 14.1 14.15 14.15 14.3 14.35 14.65 14.6 14.65 14.2 14.85 14.25 14.8 14.55 14.85 14.55 15.2 14.25 15.15 14.0 15.3 13.9" fill="#26b1ff" fill-rule="evenodd" stroke="none"/>
      <path d="M15.2 13.3 L15.3 13.9 15.15 14.0 15.05 13.6 15.0 13.5 14.95 13.25 15.05 13.3 15.15 13.3 15.2 13.3 M14.05 14.0 L14.15 13.75 14.4 13.25 14.4 13.15 14.5 13.25 14.25 13.85 14.15 14.1 14.05 14.0 M14.65 14.2 L14.7 13.6 14.75 13.45 14.85 13.5 14.85 13.55 14.85 14.25 14.65 14.2" fill="#0097f9" fill-rule="evenodd" stroke="none"/>
      <path d="M9.7 13.0 L10.0 13.1 10.6 13.4 11.15 13.65 10.95 13.75 10.25 13.4 9.55 13.2 9.7 13.0" fill="#0fc3ff" fill-rule="evenodd" stroke="none"/>
      <path d="M9.55 13.85 L9.45 13.15 9.55 13.2 10.25 13.4 10.95 13.75 11.4 14.0 10.7 13.9 10.5 13.9 9.55 13.85" fill="#0074ff" fill-rule="evenodd" stroke="none"/>
      <path d="M10.6 13.4 L10.7 13.25 10.9 13.4 11.25 13.55 Q12.4 14.2 13.05 14.8 L12.0 14.5 10.85 14.25 9.8 14.2 9.75 14.2 9.6 14.0 10.0 14.0 10.75 14.05 11.25 14.1 12.35 14.45 Q12.15 14.2 11.25 13.7 L11.15 13.65 10.6 13.4" fill="#0011c0" fill-rule="evenodd" stroke="none"/>
      <path d="M9.45 13.85 L9.55 13.85 10.5 13.9 10.7 13.9 10.75 14.05 10.0 14.0 9.6 14.0 9.55 14.0 9.45 14.0 9.45 13.85" fill="#079cff" fill-rule="evenodd" stroke="none"/>
      <path d="M10.75 14.05 L10.7 13.9 11.4 14.0 10.95 13.75 11.15 13.65 11.25 13.7 Q12.15 14.2 12.35 14.45 L11.25 14.1 10.75 14.05" fill="#00bbeb" fill-rule="evenodd" stroke="none"/>
      <path d="M10.25 15.45 L11.4 16.2 11.35 16.25 11.3 16.25 11.3 16.3 11.1 16.2 11.05 16.2 10.65 15.95 9.95 15.5 9.65 15.3 9.9 15.35 9.95 15.4 10.25 15.45" fill="#16ceff" fill-rule="evenodd" stroke="none"/>
      <path d="M9.9 15.7 L10.05 15.75 11.05 16.2 11.1 16.2 11.3 16.3 12.05 16.7 11.85 17.15 11.7 17.4 10.45 17.05 9.95 16.85 9.9 16.0 9.9 15.7" fill="#01bcff" fill-rule="evenodd" stroke="none"/>
      <path d="M12.75 17.95 L11.6 17.6 10.65 17.3 10.25 17.15 10.3 17.0 11.3 17.4 11.45 17.45 11.65 17.55 12.8 17.85 12.75 17.95" fill="#003ce8" fill-rule="evenodd" stroke="none"/>
      <path d="M11.4 16.2 L11.55 16.3 12.05 16.55 12.1 16.6 12.85 16.95 13.75 17.35 14.05 17.5 14.0 17.55 13.95 17.5 13.7 17.4 12.45 16.85 12.05 16.7 11.3 16.3 11.3 16.25 11.35 16.25 11.4 16.2" fill="#1ddfff" fill-rule="evenodd" stroke="none"/>
      <path d="M13.45 17.9 L11.7 17.4 11.85 17.15 12.05 16.7 12.45 16.85 13.7 17.4 13.45 17.9" fill="#07edff" fill-rule="evenodd" stroke="none"/>
      <path d="M14.5 18.2 L13.45 17.9 13.7 17.4 13.95 17.5 14.0 17.55 14.1 17.6 14.7 17.85 15.6 18.25 15.8 18.35 16.2 18.45 16.25 18.5 15.85 18.5 15.4 18.55 15.4 18.45 15.4 18.35 15.2 18.35 14.85 18.25 14.7 18.25 14.5 18.2" fill="#00fcf9" fill-rule="evenodd" stroke="none"/>
      <path d="M14.05 17.5 L15.2 17.95 15.45 18.05 15.7 18.1 15.8 18.15 15.9 18.15 15.8 18.35 15.6 18.25 14.7 17.85 14.1 17.6 14.0 17.55 14.05 17.5" fill="#6dffff" fill-rule="evenodd" stroke="none"/>
      <path d="M14.75 18.4 L13.35 18.1 12.75 17.95 12.8 17.85 13.4 18.0 13.55 18.05 14.5 18.2 14.7 18.25 14.85 18.25 14.75 18.4" fill="#b5ffff" fill-rule="evenodd" stroke="none"/>
      <path d="M9.75 19.05 L9.85 18.9 10.6 19.6 11.3 20.25 11.5 20.4 11.7 20.5 11.8 20.55 12.5 21.0 12.65 21.05 12.9 21.2 12.6 21.1 12.55 21.05 11.35 20.45 11.2 20.35 10.5 19.7 10.35 19.55 9.75 19.05" fill="#1ae3ff" fill-rule="evenodd" stroke="none"/>
      <path d="M9.0 18.05 L9.8 18.85 9.85 18.9 9.75 19.05 9.1 18.55 9.55 19.25 9.45 19.4 8.75 18.1 8.5 17.6 9.0 18.05" fill="#03ebf5" fill-rule="evenodd" stroke="none"/>
      <path d="M9.85 18.9 L9.8 18.85 9.0 18.05 9.0 17.9 9.25 18.2 9.85 18.8 10.65 19.5 10.7 19.55 11.45 20.1 11.5 20.15 11.75 20.35 11.7 20.5 11.5 20.4 11.3 20.25 10.6 19.6 9.85 18.9" fill="#002ee2" fill-rule="evenodd" stroke="none"/>
      <path d="M10.5 19.7 L11.2 20.35 11.0 20.5 10.7 20.75 10.65 20.75 10.4 20.6 10.0 20.0 10.15 19.95 10.25 19.85 10.5 19.7" fill="#007ffd" fill-rule="evenodd" stroke="none"/>
      <path d="M9.55 19.25 L9.1 18.55 9.75 19.05 10.35 19.55 10.5 19.7 10.25 19.85 10.15 19.95 10.0 20.0 9.55 19.25" fill="#0175fc" fill-rule="evenodd" stroke="none"/>
      <path d="M8.75 18.1 L9.45 19.4 9.7 19.9 9.7 20.05 9.4 19.6 9.35 19.55 8.65 18.25 8.75 18.1" fill="#001bcd" fill-rule="evenodd" stroke="none"/>
      <path d="M9.45 19.4 L9.55 19.25 10.0 20.0 10.4 20.6 10.65 20.75 10.65 20.85 10.65 21.05 10.6 21.05 10.5 21.0 9.85 20.1 9.7 19.9 9.45 19.4" fill="#00caff" fill-rule="evenodd" stroke="none"/>
      <path d="M9.7 20.05 L9.7 19.9 9.85 20.1 10.5 21.0 10.4 21.0 9.8 20.2 9.7 20.05" fill="#000ed8" fill-rule="evenodd" stroke="none"/>
      <path d="M11.7 20.5 L11.75 20.35 12.65 20.9 13.7 21.5 13.75 21.55 13.9 21.65 14.0 21.7 14.85 22.15 14.4 21.95 13.75 21.65 13.7 21.6 13.4 21.5 12.9 21.2 12.65 21.05 12.5 21.0 11.8 20.55 11.7 20.5" fill="#15dfff" fill-rule="evenodd" stroke="none"/>
      <path d="M11.2 20.35 L11.35 20.45 12.55 21.05 12.6 21.1 12.55 21.25 12.5 21.55 11.8 21.25 10.7 20.75 11.0 20.5 11.2 20.35" fill="#009ef3" fill-rule="evenodd" stroke="none"/>
      <path d="M10.65 20.75 L10.7 20.75 11.8 21.25 12.5 21.55 13.1 21.9 12.75 21.75 12.5 21.65 11.25 21.25 10.65 21.05 10.65 20.85 10.65 20.75" fill="#09f3ff" fill-rule="evenodd" stroke="none"/>
      <path d="M10.4 21.0 L10.5 21.0 10.6 21.05 10.65 21.05 11.25 21.25 12.5 21.65 12.75 21.75 13.1 21.9 13.15 21.9 13.65 22.1 14.6 22.55 13.65 22.2 13.6 22.15 12.45 21.75 10.65 21.2 10.55 21.2 10.45 21.05 10.4 21.0" fill="#004edb" fill-rule="evenodd" stroke="none"/>
      <path d="M12.6 21.1 L12.9 21.2 13.4 21.5 13.7 21.6 13.65 22.1 13.15 21.9 13.1 21.9 12.5 21.55 12.55 21.25 12.6 21.1" fill="#00caf4" fill-rule="evenodd" stroke="none"/>
      <path d="M13.65 22.1 L13.7 21.6 13.75 21.65 14.4 21.95 15.35 22.5 15.5 22.55 15.3 22.85 14.85 22.65 14.6 22.55 13.65 22.1" fill="#05e1ff" fill-rule="evenodd" stroke="none"/>
      <path d="M9.0 18.05 L8.5 17.6 8.75 18.1 8.65 18.25 8.35 17.8 7.7 16.55 9.0 17.9 9.0 18.05" fill="#001dc3" fill-rule="evenodd" stroke="none"/>
      <path d="M17.95 9.8 L18.0 9.45 18.05 8.15 18.05 8.05 17.8 9.1 17.65 9.0 18.4 6.1 18.45 9.05 18.4 9.05 18.3 9.1 18.2 8.0 18.1 9.1 18.1 9.15 18.05 9.9 17.95 9.8" fill="#0be6ff" fill-rule="evenodd" stroke="none"/>
      <path d="M17.8 9.1 L18.05 8.05 18.05 8.15 18.0 9.45 17.95 9.8 17.9 11.05 17.9 11.35 17.3 11.05 17.55 10.0 17.8 9.1 M18.05 9.9 L18.1 9.15 18.1 9.1 18.2 8.0 18.3 9.1 18.55 11.6 18.15 11.45 18.05 11.4 18.05 11.05 18.05 9.9" fill="#0082fb" fill-rule="evenodd" stroke="none"/>
      <path d="M18.45 9.05 L18.4 6.1 17.65 9.0 17.3 10.55 17.2 10.4 17.45 9.3 17.55 8.95 18.45 5.7 18.4 6.1 18.55 5.8 Q18.5 7.45 18.6 9.0 L18.7 10.45 18.55 10.5 18.45 9.05" fill="#0030df" fill-rule="evenodd" stroke="none"/>
      <path d="M18.3 9.1 L18.4 9.05 18.45 9.05 18.55 10.5 18.7 11.6 18.85 12.9 18.95 13.45 19.1 14.1 19.4 15.35 19.5 15.75 19.5 15.8 19.45 15.85 19.4 15.85 19.4 15.8 19.3 15.3 19.05 14.35 18.85 13.5 18.65 12.1 18.55 11.6 18.3 9.1 M17.1 11.5 L17.2 11.6 16.7 14.05 16.5 15.15 16.45 15.2 16.5 15.0 16.5 14.85 16.55 14.5 16.65 14.05 17.1 11.5" fill="#0faeff" fill-rule="evenodd" stroke="none"/>
      <path d="M17.65 9.0 L17.8 9.1 17.55 10.0 17.3 11.05 17.2 11.6 17.1 11.5 17.2 11.0 17.3 10.55 17.65 9.0" fill="#0ebfff" fill-rule="evenodd" stroke="none"/>
      <path d="M16.4 15.3 L16.25 15.2 16.45 14.1 16.45 14.0 17.0 11.35 17.05 10.95 17.2 10.4 17.3 10.55 17.2 11.0 17.1 11.5 16.65 14.05 16.55 14.5 16.5 14.85 16.5 15.0 16.4 15.3" fill="#0031ea" fill-rule="evenodd" stroke="none"/>
      <path d="M17.95 9.8 L18.05 9.9 18.05 11.05 18.05 11.4 18.05 11.5 18.15 13.3 18.2 13.6 18.05 13.7 18.0 13.5 17.9 11.35 17.9 11.05 17.95 9.8" fill="#12caff" fill-rule="evenodd" stroke="none"/>
      <path d="M17.3 11.05 L17.9 11.35 18.0 13.5 18.05 13.7 18.05 13.75 17.75 13.8 16.7 14.05 17.2 11.6 17.3 11.05 M18.55 11.6 L18.65 12.1 18.85 13.5 18.2 13.7 18.2 13.6 18.15 13.3 18.05 11.5 18.05 11.4 18.15 11.45 18.55 11.6" fill="#00a5fb" fill-rule="evenodd" stroke="none"/>
      <path d="M18.7 10.45 L18.85 11.65 19.1 13.3 19.15 13.4 19.25 13.95 19.1 14.1 18.95 13.45 18.85 12.9 18.7 11.6 18.55 10.5 18.7 10.45" fill="#0119b7" fill-rule="evenodd" stroke="none"/>
      <path d="M18.2 13.7 L18.85 13.5 19.05 14.35 19.3 15.3 19.4 15.8 19.25 15.85 19.2 15.65 18.9 14.6 18.8 14.3 18.65 14.35 18.55 14.45 18.55 14.55 18.75 14.5 18.85 14.75 19.1 15.65 19.15 15.85 18.45 16.05 18.2 13.7 M16.7 14.05 L17.75 13.8 18.05 13.75 18.05 13.85 18.15 15.0 18.15 15.25 18.25 16.1 18.15 16.15 17.3 16.35 17.1 16.4 17.05 16.35 17.05 16.05 17.15 14.9 17.25 14.5 17.4 14.6 17.45 14.5 17.5 14.4 17.35 14.35 17.2 14.25 17.05 14.6 17.05 14.65 Q16.9 15.15 16.9 15.8 L16.95 16.4 16.4 16.5 16.45 15.4 16.45 15.3 16.45 15.2 16.5 15.15 16.7 14.05" fill="#05e7ff" fill-rule="evenodd" stroke="none"/>
      <path d="M18.2 13.6 L18.2 13.7 18.45 16.05 18.55 16.85 18.4 17.0 18.4 17.05 18.3 16.5 18.25 16.1 18.15 15.25 18.15 15.0 18.05 13.85 18.05 13.75 18.05 13.7 18.2 13.6" fill="#0afeff" fill-rule="evenodd" stroke="none"/>
      <path d="M15.9 18.15 L16.4 18.2 16.55 18.5 16.6 18.55 16.4 18.75 16.25 18.5 16.2 18.45 15.8 18.35 15.9 18.15 M20.3 20.5 L20.05 20.6 19.25 21.1 19.2 21.1 19.15 21.15 19.55 20.5 19.75 20.2 19.9 20.05 19.95 20.1 19.65 20.6 19.6 20.7 20.25 20.4 20.3 20.5 M17.05 14.65 L17.05 14.6 17.2 14.25 17.35 14.35 17.5 14.4 17.45 14.5 17.4 14.6 17.25 14.5 17.15 14.9 17.05 14.65" fill="#d8ffff" fill-rule="evenodd" stroke="none"/>
      <path d="M18.85 14.75 L18.75 14.5 18.55 14.55 18.55 14.45 18.65 14.35 18.8 14.3 18.9 14.6 18.85 14.75" fill="#acffff" fill-rule="evenodd" stroke="none"/>
      <path d="M19.25 13.95 L19.5 15.0 19.5 15.15 19.6 15.55 19.65 15.7 19.65 15.75 19.65 15.8 19.6 15.8 19.5 15.8 19.5 15.75 19.4 15.35 19.1 14.1 19.25 13.95" fill="#0026b5" fill-rule="evenodd" stroke="none"/>
      <path d="M15.35 13.35 L15.2 13.3 15.15 13.3 15.15 13.25 15.1 12.95 14.95 12.05 14.9 11.9 15.05 11.7 15.3 13.15 15.35 13.3 15.35 13.35" fill="#0017ef" fill-rule="evenodd" stroke="none"/>
      <path d="M14.65 12.7 L14.55 12.6 14.9 11.9 14.95 12.05 14.65 12.7" fill="#0039c6" fill-rule="evenodd" stroke="none"/>
      <path d="M14.4 13.15 L14.65 12.7 14.95 12.05 15.1 12.95 15.15 13.25 15.15 13.3 15.05 13.3 14.95 13.25 14.9 13.05 14.9 13.25 14.85 13.5 14.75 13.45 14.8 12.6 14.5 13.25 14.4 13.15" fill="#0ee9ff" fill-rule="evenodd" stroke="none"/>
      <path d="M14.95 13.25 L15.0 13.5 15.05 13.6 15.15 14.0 15.2 14.25 14.85 14.55 14.8 14.55 14.85 14.25 14.85 13.55 14.85 13.5 14.9 13.25 14.9 13.05 14.95 13.25" fill="#0078f5" fill-rule="evenodd" stroke="none"/>
      <path d="M16.05 17.2 L16.2 16.55 16.4 15.35 16.4 15.3 16.5 15.0 16.45 15.2 16.45 15.3 16.45 15.4 16.4 16.5 16.35 16.9 16.25 17.0 16.1 17.1 16.05 17.2" fill="#cfffff" fill-rule="evenodd" stroke="none"/>
      <path d="M17.05 17.75 L16.8 17.5 16.4 17.35 16.05 17.3 16.05 17.2 16.1 17.1 16.25 17.0 16.35 17.1 16.85 17.4 17.05 17.55 17.05 17.75" fill="#c9ffff" fill-rule="evenodd" stroke="none"/>
      <path d="M16.4 16.5 L16.95 16.4 17.0 16.6 17.0 16.7 17.05 16.8 17.25 16.9 17.4 17.0 17.5 17.15 17.6 17.3 17.8 17.85 17.95 18.2 17.5 18.2 17.4 17.75 17.05 17.55 16.85 17.4 16.35 17.1 16.25 17.0 16.35 16.9 16.4 16.5" fill="#06fdff" fill-rule="evenodd" stroke="none"/>
      <path d="M18.7 23.65 L18.95 23.7 19.0 23.7 19.05 23.65 20.95 22.8 20.95 22.95 19.65 23.6 18.9 23.9 18.85 23.9 18.6 23.65 18.7 23.65 M16.95 16.4 L16.9 15.8 Q16.9 15.15 17.05 14.65 L17.15 14.9 17.05 16.05 17.05 16.35 17.1 16.4 17.1 16.5 17.4 16.75 17.55 16.85 17.7 17.2 17.6 17.3 17.5 17.15 17.4 17.0 17.25 16.9 17.05 16.8 17.0 16.7 17.0 16.6 16.95 16.4 M18.9 14.6 L19.2 15.65 19.25 15.85 19.4 16.6 19.3 16.7 19.15 15.85 19.1 15.65 18.85 14.75 18.9 14.6" fill="#dcffff" fill-rule="evenodd" stroke="none"/>
      <path d="M19.4 15.8 L19.4 15.85 19.45 15.85 19.45 16.0 19.8 17.45 19.6 17.4 19.45 17.4 19.4 17.45 19.15 18.05 19.15 18.15 19.1 18.25 18.85 18.25 18.7 17.65 18.6 17.4 18.55 16.85 18.45 16.05 19.15 15.85 19.3 16.7 19.0 16.95 19.05 17.55 19.15 17.2 19.15 17.1 19.4 16.85 19.4 16.6 19.25 15.85 19.4 15.8 M17.1 16.4 L17.3 16.35 18.15 16.15 18.25 16.1 18.3 16.5 18.4 17.05 18.45 17.5 18.7 18.25 18.35 18.25 18.05 18.2 17.85 17.6 17.7 17.2 17.55 16.85 17.4 16.75 17.1 16.5 17.1 16.4" fill="#13fbff" fill-rule="evenodd" stroke="none"/>
      <path d="M21.65 19.35 L21.55 19.35 21.4 19.35 21.35 19.45 21.3 19.55 21.25 19.5 21.15 19.4 21.2 19.1 21.45 19.15 21.5 19.15 21.6 19.15 21.65 19.35 M17.95 18.2 L17.8 17.85 17.6 17.3 17.7 17.2 17.85 17.6 18.05 18.2 18.1 18.4 18.0 18.5 17.95 18.2" fill="#d9ffff" fill-rule="evenodd" stroke="none"/>
      <path d="M19.3 16.7 L19.4 16.6 19.4 16.85 19.15 17.1 19.15 17.2 19.05 17.55 19.0 16.95 19.3 16.7" fill="#d7ffff" fill-rule="evenodd" stroke="none"/>
      <path d="M18.7 18.25 L18.45 17.5 18.4 17.05 18.4 17.0 18.55 16.85 18.6 17.4 18.7 17.65 18.85 18.25 18.85 18.55 18.8 19.3 18.65 19.1 18.65 19.05 18.7 18.5 18.7 18.25" fill="#ddffff" fill-rule="evenodd" stroke="none"/>
      <path d="M21.35 15.9 L21.3 15.9 21.05 15.75 19.9 15.35 19.6 15.25 19.6 15.15 21.1 15.7 21.35 15.85 21.35 15.9" fill="#0480fa" fill-rule="evenodd" stroke="none"/>
      <path d="M21.05 15.75 L21.3 15.9 21.35 15.9 22.35 16.55 22.4 16.6 22.2 16.6 21.85 16.7 21.55 16.8 20.85 16.35 20.85 16.3 20.95 16.1 21.05 15.75" fill="#0c6dff" fill-rule="evenodd" stroke="none"/>
      <path d="M21.35 15.9 L21.35 15.85 21.9 16.15 22.35 16.4 22.6 16.6 23.0 16.85 22.9 17.0 22.9 17.05 22.8 16.9 22.4 16.6 22.35 16.55 21.35 15.9" fill="#18d4ff" fill-rule="evenodd" stroke="none"/>
      <path d="M19.5 15.0 L19.6 15.05 Q20.25 15.15 21.15 15.6 L21.35 15.7 22.4 16.3 22.35 16.4 21.9 16.15 21.35 15.85 21.1 15.7 19.6 15.15 19.5 15.15 19.5 15.0" fill="#061fd1" fill-rule="evenodd" stroke="none"/>
      <path d="M21.95 18.2 L22.0 18.05 22.05 17.7 22.05 17.6 22.0 17.55 21.95 17.45 21.75 17.2 21.7 17.1 21.35 16.85 21.15 16.7 20.8 16.5 19.75 16.15 19.7 16.0 20.5 16.25 20.85 16.4 21.25 16.65 21.5 16.8 21.65 16.95 21.75 17.0 21.85 17.15 22.0 17.35 22.1 17.5 22.2 17.65 22.25 17.75 22.15 18.15 22.05 18.3 21.95 18.2 M19.6 15.15 L19.6 15.25 19.6 15.5 19.6 15.55 19.5 15.15 19.6 15.15" fill="#001ecc" fill-rule="evenodd" stroke="none"/>
      <path d="M19.6 15.25 L19.9 15.35 21.05 15.75 20.95 16.1 20.85 16.3 20.85 16.35 20.65 16.25 19.65 15.8 19.65 15.75 19.65 15.7 19.6 15.55 19.6 15.5 19.6 15.25" fill="#0268ff" fill-rule="evenodd" stroke="none"/>
      <path d="M19.75 16.15 L20.4 18.1 20.15 18.0 19.6 16.1 19.5 15.8 19.6 15.8 19.65 15.8 19.65 15.75 19.65 15.8 19.7 16.0 19.75 16.15" fill="#0028c8" fill-rule="evenodd" stroke="none"/>
      <path d="M20.15 18.0 L19.95 17.9 19.6 17.7 19.6 17.4 19.8 17.45 19.45 16.0 19.45 15.85 19.4 15.85 19.45 15.85 19.5 15.8 19.6 16.1 20.15 18.0" fill="#feffff" fill-rule="evenodd" stroke="none"/>
      <path d="M20.85 16.35 L21.55 16.8 21.75 16.9 21.75 17.0 21.65 16.95 21.5 16.8 21.25 16.65 20.85 16.4 20.5 16.25 19.7 16.0 19.65 15.8 20.65 16.25 20.85 16.35" fill="#21afff" fill-rule="evenodd" stroke="none"/>
      <path d="M19.6 17.7 L19.55 17.7 19.4 18.05 19.3 18.25 19.3 18.4 19.45 18.85 19.3 19.75 19.15 20.85 19.0 20.75 19.0 20.7 19.0 20.65 19.15 19.7 19.2 19.35 19.25 19.05 19.05 18.4 19.05 18.35 19.1 18.25 19.15 18.15 19.15 18.05 19.4 17.45 19.45 17.4 19.6 17.4 19.6 17.7" fill="#e8ffff" fill-rule="evenodd" stroke="none"/>
      <path d="M21.55 16.8 L21.85 16.7 22.2 16.6 22.4 16.6 22.8 16.9 22.9 17.05 23.0 17.1 23.05 17.2 23.15 17.6 23.15 17.65 23.15 17.9 22.85 17.75 22.75 17.75 22.3 17.55 22.1 17.25 21.95 17.0 21.75 16.9 21.55 16.8" fill="#0091f7" fill-rule="evenodd" stroke="none"/>
      <path d="M21.75 17.0 L21.75 16.9 21.95 17.0 22.1 17.25 22.3 17.55 22.35 17.6 22.2 17.65 22.1 17.5 22.0 17.35 21.85 17.15 21.75 17.0" fill="#0dc5ff" fill-rule="evenodd" stroke="none"/>
      <path d="M22.4 16.3 L22.9 16.6 22.95 16.65 23.05 16.7 23.55 17.05 24.05 17.7 24.2 17.9 24.65 18.55 24.2 18.35 24.0 18.0 23.5 17.3 23.4 17.2 23.0 16.85 22.6 16.6 22.35 16.4 22.4 16.3" fill="#08258d" fill-rule="evenodd" stroke="none"/>
      <path d="M23.15 17.6 L23.05 17.2 23.0 17.1 22.9 17.05 22.9 17.0 23.0 16.85 23.4 17.2 23.5 17.3 24.0 18.0 23.95 18.0 23.85 18.05 23.7 17.75 23.35 17.35 23.35 17.4 23.35 17.7 23.15 17.6" fill="#00e9ff" fill-rule="evenodd" stroke="none"/>
      <path d="M23.35 17.7 L23.35 17.4 23.35 17.35 23.7 17.75 23.85 18.05 24.0 18.3 23.75 18.45 23.7 18.3 23.35 17.75 23.35 17.7" fill="#01a3f8" fill-rule="evenodd" stroke="none"/>
      <path d="M24.0 18.0 L24.2 18.35 24.25 18.4 23.8 18.65 23.35 18.8 23.4 18.7 23.4 18.65 23.75 18.45 24.0 18.3 23.85 18.05 23.95 18.0 24.0 18.0" fill="#0de8ff" fill-rule="evenodd" stroke="none"/>
      <path d="M23.15 17.9 L23.15 17.65 23.15 17.6 23.35 17.7 23.35 17.75 23.3 18.05 23.25 18.25 22.8 18.5 22.7 18.5 22.65 18.35 23.0 18.2 23.15 17.9 M23.05 18.8 L23.4 18.7 23.35 18.8 23.15 18.9 22.85 18.95 22.8 19.0 22.7 19.0 22.25 19.1 22.2 19.1 21.75 19.15 22.05 19.05 22.3 19.05 22.55 19.0 23.05 18.8" fill="#18efff" fill-rule="evenodd" stroke="none"/>
      <path d="M23.35 17.75 L23.7 18.3 23.75 18.45 23.4 18.65 23.4 18.7 23.05 18.8 22.7 18.55 22.65 18.55 22.7 18.5 22.8 18.5 23.25 18.25 23.3 18.05 23.35 17.75" fill="#04a9ff" fill-rule="evenodd" stroke="none"/>
      <path d="M24.65 18.55 L24.7 18.6 23.9 18.9 23.45 19.05 23.35 19.05 22.7 19.2 22.7 19.0 22.8 19.0 22.85 18.95 23.15 18.9 23.35 18.8 23.8 18.65 24.25 18.4 24.2 18.35 24.65 18.55" fill="#0009ad" fill-rule="evenodd" stroke="none"/>
      <path d="M22.3 17.55 L22.75 17.75 22.85 17.75 23.15 17.9 23.0 18.2 22.65 18.35 22.6 18.35 22.5 18.4 22.2 18.2 22.4 17.7 22.35 17.6 22.3 17.55" fill="#02b7ff" fill-rule="evenodd" stroke="none"/>
      <path d="M22.35 17.6 L22.4 17.7 22.2 18.2 21.9 18.6 22.0 18.4 22.05 18.3 22.15 18.15 22.25 17.75 22.2 17.65 22.35 17.6" fill="#66f3ff" fill-rule="evenodd" stroke="none"/>
      <path d="M21.15 18.7 L21.2 18.7 21.7 18.6 21.95 18.2 22.05 18.3 22.0 18.4 21.9 18.6 21.9 18.65 21.85 18.8 21.8 18.85 21.55 18.85 21.35 18.9 21.15 18.9 21.15 18.7" fill="#a5ffff" fill-rule="evenodd" stroke="none"/>
      <path d="M22.7 19.2 L22.15 19.3 22.05 19.3 22.2 19.1 22.25 19.1 22.7 19.0 22.7 19.2" fill="#000f9a" fill-rule="evenodd" stroke="none"/>
      <path d="M22.65 18.55 L22.7 18.55 23.05 18.8 22.55 19.0 22.3 19.05 22.05 19.05 21.75 19.15 21.6 19.15 21.5 19.15 21.45 19.15 21.35 18.9 21.55 18.85 21.8 18.85 21.85 18.8 22.5 18.6 22.65 18.55" fill="#00cefd" fill-rule="evenodd" stroke="none"/>
      <path d="M22.7 18.5 L22.65 18.55 22.5 18.6 21.85 18.8 21.9 18.65 22.5 18.4 22.6 18.35 22.65 18.35 22.7 18.5" fill="#16e6f0" fill-rule="evenodd" stroke="none"/>
      <path d="M22.2 18.2 L22.5 18.4 21.9 18.65 21.9 18.6 22.2 18.2" fill="#11b5f4" fill-rule="evenodd" stroke="none"/>
      <path d="M22.05 19.3 L21.65 19.35 21.6 19.15 21.75 19.15 22.2 19.1 22.05 19.3" fill="#abfbff" fill-rule="evenodd" stroke="none"/>
      <path d="M20.55 19.05 L20.8 18.75 20.9 18.75 21.15 18.7 21.15 18.9 20.85 18.95 20.65 19.2 20.55 19.05" fill="#e4fbff" fill-rule="evenodd" stroke="none"/>
      <path d="M20.65 19.2 L20.85 18.95 21.15 18.9 21.35 18.9 21.45 19.15 21.2 19.1 21.15 19.4 21.05 19.8 21.05 19.95 21.05 20.0 21.2 20.15 20.8 20.2 20.7 20.1 20.65 20.0 20.35 19.55 20.65 19.2" fill="#01fafe" fill-rule="evenodd" stroke="none"/>
      <path d="M19.9 20.05 L20.3 19.4 20.55 19.05 20.65 19.2 20.35 19.55 20.15 19.8 19.95 20.1 19.9 20.05" fill="#cdffff" fill-rule="evenodd" stroke="none"/>
      <path d="M19.95 20.1 L20.15 19.8 20.35 19.55 20.65 20.0 20.7 20.1 20.8 20.2 20.65 20.2 20.6 20.25 20.25 20.4 19.6 20.7 19.65 20.6 19.95 20.1" fill="#00fcff" fill-rule="evenodd" stroke="none"/>
      <path d="M21.3 19.55 L21.25 19.7 21.25 19.75 21.2 19.75 21.2 19.8 21.55 20.25 20.95 20.3 20.9 20.3 20.8 20.3 20.7 20.35 20.3 20.5 20.25 20.4 20.6 20.25 20.65 20.2 20.8 20.2 21.2 20.15 21.05 20.0 21.05 19.95 21.05 19.8 21.15 19.4 21.25 19.5 21.3 19.55" fill="#a1eaff" fill-rule="evenodd" stroke="none"/>
      <path d="M20.95 22.8 L22.0 22.2 Q22.25 22.05 22.6 21.85 L22.65 21.9 22.7 22.05 22.1 22.35 Q21.55 22.6 20.95 22.95 L20.95 22.8" fill="#12f0ff" fill-rule="evenodd" stroke="none"/>
      <path d="M20.95 22.95 L20.95 23.1 20.85 23.15 19.65 23.6 20.95 22.95" fill="#12d6ff" fill-rule="evenodd" stroke="none"/>
      <path d="M22.25 22.7 L21.85 22.85 20.95 23.2 19.15 23.95 18.95 24.05 18.85 23.9 18.9 23.9 19.65 23.6 20.85 23.15 20.95 23.1 22.2 22.55 22.25 22.7" fill="#003adf" fill-rule="evenodd" stroke="none"/>
      <path d="M20.95 23.1 L20.95 22.95 Q21.55 22.6 22.1 22.35 L22.2 22.55 20.95 23.1" fill="#00bffc" fill-rule="evenodd" stroke="none"/>
      <path d="M22.6 21.85 L23.1 21.55 23.35 21.4 23.55 21.25 23.55 21.3 22.65 21.9 22.6 21.85 M24.5 21.1 L24.25 21.4 23.65 22.2 22.25 22.7 22.2 22.55 22.75 22.25 23.35 22.0 23.65 21.85 23.85 21.6 24.1 21.3 24.45 20.95 24.5 21.1" fill="#002ccf" fill-rule="evenodd" stroke="none"/>
      <path d="M24.45 20.95 L24.1 21.3 23.85 21.6 23.65 21.85 23.35 22.0 23.75 21.55 24.05 21.2 23.65 21.45 23.6 21.5 23.0 21.9 22.95 21.95 22.7 22.05 22.65 21.9 23.55 21.3 24.95 20.4 24.45 20.95" fill="#0de4ff" fill-rule="evenodd" stroke="none"/>
      <path d="M23.55 21.25 L24.15 20.85 25.35 20.0 24.5 21.1 24.45 20.95 24.95 20.4 23.55 21.3 23.55 21.25" fill="#001b93" fill-rule="evenodd" stroke="none"/>
      <path d="M23.35 22.0 L22.75 22.25 22.7 22.05 22.95 21.95 23.0 21.9 23.6 21.5 23.65 21.45 24.05 21.2 23.75 21.55 23.35 22.0" fill="#097ef2" fill-rule="evenodd" stroke="none"/>
      <path d="M22.2 22.55 L22.1 22.35 22.7 22.05 22.75 22.25 22.2 22.55" fill="#007bf3" fill-rule="evenodd" stroke="none"/>
      <path d="M19.1 18.25 L19.05 18.35 19.05 18.4 19.25 19.05 19.2 19.35 19.15 19.7 18.65 19.55 18.7 19.55 18.75 19.4 18.8 19.3 18.85 18.55 18.85 18.25 19.1 18.25" fill="#01fbf9" fill-rule="evenodd" stroke="none"/>
      <path d="M17.5 18.2 L17.95 18.2 18.0 18.5 18.1 18.4 18.05 18.2 18.35 18.25 18.7 18.25 18.7 18.5 18.65 19.05 18.65 19.1 18.55 19.35 18.4 19.4 18.15 19.35 18.15 19.4 17.85 19.3 17.65 18.7 17.5 18.2" fill="#03fcfe" fill-rule="evenodd" stroke="none"/>
      <path d="M14.85 22.15 L15.55 22.55 17.3 23.45 17.35 23.5 18.15 23.55 17.75 23.8 17.65 23.85 17.2 23.55 17.0 23.4 15.5 22.55 15.35 22.5 14.4 21.95 14.85 22.15 M18.1 20.9 L17.7 19.25 17.5 18.5 17.15 17.9 17.05 17.75 17.05 17.55 17.4 17.75 17.5 18.2 17.65 18.7 17.85 19.3 18.1 20.35 18.25 21.0 18.1 20.9" fill="#dbffff" fill-rule="evenodd" stroke="none"/>
      <path d="M19.15 19.7 L19.0 20.65 19.0 20.7 18.8 21.8 18.7 22.5 18.55 22.25 18.5 22.1 18.25 21.0 18.1 20.35 17.85 19.3 18.15 19.4 18.15 19.5 18.4 20.05 18.5 20.25 18.55 20.5 18.6 21.05 18.65 20.75 18.65 20.5 18.65 20.45 18.65 20.35 18.5 19.65 18.65 19.55 19.15 19.7" fill="#00fbff" fill-rule="evenodd" stroke="none"/>
      <path d="M16.6 18.55 L16.8 19.0 17.0 19.55 17.1 19.75 16.85 19.75 16.7 19.35 16.6 19.15 16.4 18.75 16.6 18.55" fill="#7affff" fill-rule="evenodd" stroke="none"/>
      <path d="M17.1 19.75 L17.3 20.2 17.4 20.5 16.75 20.2 16.45 20.05 16.5 19.95 16.7 20.05 17.05 20.15 16.85 19.75 17.1 19.75" fill="#ceffff" fill-rule="evenodd" stroke="none"/>
      <path d="M14.7 19.25 L14.05 18.95 14.5 18.9 14.55 18.95 14.8 19.15 14.7 19.25 M18.65 19.1 L18.8 19.3 18.75 19.4 18.7 19.55 18.65 19.55 18.5 19.65 18.65 20.35 18.65 20.45 18.65 20.5 18.65 20.75 18.6 21.05 18.55 20.5 18.5 20.25 18.4 20.05 18.15 19.5 18.15 19.4 18.15 19.35 18.4 19.4 18.55 19.35 18.65 19.1" fill="#e9ffff" fill-rule="evenodd" stroke="none"/>
      <path d="M16.25 18.5 L16.4 18.75 16.6 19.15 16.4 19.35 15.95 19.75 15.9 19.7 14.8 19.15 14.55 18.95 14.95 18.9 15.25 18.7 15.4 18.55 15.85 18.5 16.25 18.5" fill="#00fdff" fill-rule="evenodd" stroke="none"/>
      <path d="M14.8 18.8 L14.9 18.75 15.1 18.65 15.2 18.6 15.2 18.55 15.15 18.5 15.0 18.45 14.75 18.4 14.85 18.25 15.2 18.35 15.4 18.35 15.4 18.45 15.4 18.55 15.25 18.7 14.95 18.9 14.85 18.85 14.8 18.8" fill="#edffff" fill-rule="evenodd" stroke="none"/>
      <path d="M16.45 20.05 L15.9 19.8 14.7 19.25 14.8 19.15 15.9 19.7 15.95 19.75 16.5 19.95 16.45 20.05 M14.5 18.9 L14.8 18.8 14.85 18.85 14.95 18.9 14.55 18.95 14.5 18.9" fill="#73ebfc" fill-rule="evenodd" stroke="none"/>
      <path d="M15.95 19.75 L16.4 19.35 16.6 19.15 16.7 19.35 16.85 19.75 17.05 20.15 16.7 20.05 16.5 19.95 15.95 19.75" fill="#04fbff" fill-rule="evenodd" stroke="none"/>
      <path d="M17.75 23.8 L17.7 23.85 17.5 23.95 17.3 23.75 17.25 23.75 15.3 22.85 15.5 22.55 17.0 23.4 17.2 23.55 17.65 23.85 17.75 23.8" fill="#4be1ff" fill-rule="evenodd" stroke="none"/>
      <path d="M19.15 20.85 L19.1 21.1 18.9 22.25 18.85 22.75 18.7 23.65 18.6 23.15 18.6 23.05 18.1 21.0 18.1 20.9 18.25 21.0 18.5 22.1 18.55 22.25 18.7 22.5 18.8 21.8 19.0 20.7 19.0 20.75 19.15 20.85" fill="#f3ffff" fill-rule="evenodd" stroke="none"/>
      <path d="M8.35 12.7 L8.2 12.75 7.75 12.85 7.3 13.0 6.85 13.1 6.55 13.25 6.3 13.35 6.35 13.45 6.75 13.3 6.85 13.25 7.7 13.0 8.0 12.9 8.25 12.85 8.35 12.7 8.45 12.7 8.5 12.7 8.7 12.75 9.2 12.85 9.4 12.9 9.6 13.0 9.7 13.0 10.0 13.1 10.6 13.4 10.7 13.25 10.4 13.1 9.85 12.85 9.6 12.75 9.4 12.7 8.75 12.5 8.4 12.55 8.15 12.6 8.05 12.6 7.85 12.7 7.3 12.85 7.3 12.9 7.3 13.0 M8.25 12.85 L8.45 12.85 8.5 12.85 9.0 12.9 9.4 12.95 9.6 13.0 M8.05 14.0 L7.6 14.25 7.4 14.35 Q7.0 14.55 6.65 14.85 L6.8 14.95 6.9 15.1 8.3 16.0 8.45 15.65 8.5 15.55 8.85 15.0 8.7 14.85 8.2 14.4 8.05 14.0 8.05 13.95 7.9 13.6 7.55 13.5 6.75 13.3 M7.9 13.6 L7.85 13.35 8.15 13.2 8.45 13.1 8.55 13.05 9.0 12.9 M8.65 13.25 L8.8 13.2 9.25 13.1 9.1 13.1 8.95 13.1 8.6 13.15 8.5 13.2 8.2 13.3 8.15 13.35 8.15 13.4 8.15 13.65 8.2 13.8 8.25 13.95 8.4 14.25 8.55 14.4 8.95 14.7 8.5 14.3 8.6 14.25 8.55 14.15 8.5 14.05 8.4 13.9 8.35 13.7 8.35 13.6 8.35 13.5 8.35 13.4 8.4 13.4 8.65 13.25 8.85 13.6 8.95 13.85 9.0 13.9 9.0 13.85 9.1 13.85 9.45 13.85 9.55 13.85 9.45 13.15 9.25 13.1 M8.15 13.2 L8.2 13.3 M8.05 14.0 L8.25 13.95 M8.6 14.25 L8.65 14.2 8.9 14.1 9.0 14.1 9.1 14.05 9.45 14.0 9.45 13.85 M9.0 13.9 L8.85 13.95 8.7 14.05 8.55 14.15 M9.75 14.2 L9.55 14.2 9.5 14.2 9.2 14.25 9.0 14.25 8.8 14.35 9.0 14.55 9.2 14.7 9.95 15.25 10.25 15.45 11.4 16.2 11.55 16.3 12.05 16.55 12.1 16.6 12.85 16.95 13.75 17.35 14.05 17.5 15.2 17.95 15.45 18.05 15.7 18.1 15.8 18.15 15.9 18.15 16.4 18.2 16.55 18.5 16.6 18.55 16.8 19.0 17.0 19.55 17.1 19.75 17.3 20.2 17.4 20.5 16.75 20.2 16.45 20.05 15.9 19.8 14.7 19.25 14.05 18.95 14.5 18.9 14.8 18.8 14.9 18.75 15.1 18.65 15.2 18.6 15.2 18.55 15.15 18.5 15.0 18.45 14.75 18.4 13.35 18.1 12.75 17.95 11.6 17.6 10.65 17.3 10.25 17.15 10.0 17.05 8.95 16.65 8.5 16.45 8.2 16.3 7.35 15.85 6.6 15.4 6.2 15.1 5.7 14.65 5.6 14.4 5.15 13.75 Q5.75 13.45 6.25 13.25 L6.4 13.2 7.3 12.9 M6.65 14.85 L5.85 14.15 5.75 13.75 6.35 13.45 M5.65 14.35 L5.45 13.75 6.3 13.35 M5.65 14.35 L6.25 15.1 6.45 15.25 6.6 15.35 7.35 15.8 7.35 15.85 M5.65 14.35 L6.35 15.0 6.7 15.3 6.9 15.1 M8.95 14.7 L9.0 14.75 9.05 14.75 9.1 14.85 9.15 14.9 9.65 15.3 9.9 15.35 9.95 15.4 10.25 15.45 M9.1 14.85 L8.9 15.05 9.9 15.7 10.05 15.75 11.05 16.2 10.65 15.95 9.95 15.5 9.65 15.3 M8.9 15.05 L8.85 15.0 M6.7 15.3 L7.35 15.7 7.75 15.9 7.9 15.95 7.95 16.0 8.05 16.05 8.2 16.2 8.25 16.2 9.05 16.55 9.1 16.45 8.7 16.25 8.3 16.0 M14.55 12.6 L14.35 13.05 14.05 13.65 14.0 13.7 13.75 14.25 13.95 14.4 14.4 14.75 14.45 14.8 14.5 14.85 14.7 15.0 14.8 14.9 14.95 14.75 15.2 14.6 15.3 14.5 15.6 14.35 15.45 13.85 15.35 13.4 15.35 13.35 15.2 13.3 15.3 13.9 15.35 14.4 14.7 14.8 14.45 14.6 14.25 14.45 14.0 14.2 14.05 14.0 14.15 13.75 14.4 13.25 14.4 13.15 14.65 12.7 14.55 12.6 14.9 11.9 15.05 11.7 15.3 13.15 15.35 13.3 15.35 13.35 M14.05 14.0 L14.15 14.1 14.25 13.85 14.5 13.25 14.4 13.15 M14.15 14.1 L14.15 14.15 14.3 14.35 14.65 14.6 14.65 14.2 14.7 13.6 14.75 13.45 14.8 12.6 14.5 13.25 M9.45 13.15 L9.55 13.2 9.7 13.0 M9.6 14.0 L9.75 14.2 9.8 14.2 10.85 14.25 12.0 14.5 13.05 14.8 Q12.4 14.2 11.25 13.55 L10.9 13.4 10.7 13.25 M9.45 14.0 L9.55 14.0 9.6 14.0 10.0 14.0 10.75 14.05 10.7 13.9 10.5 13.9 9.55 13.85 M10.95 13.75 L10.25 13.4 9.55 13.2 M10.6 13.4 L11.15 13.65 11.25 13.7 Q12.15 14.2 12.35 14.45 L11.25 14.1 10.75 14.05 M10.95 13.75 L11.4 14.0 10.7 13.9 M11.15 13.65 L10.95 13.75 M9.95 16.85 L9.9 16.0 9.9 15.7 M10.3 17.0 L10.25 17.15 M11.7 17.4 L10.45 17.05 9.95 16.85 9.1 16.45 M9.05 16.55 L9.95 16.9 10.3 17.0 11.3 17.4 11.45 17.45 11.65 17.55 12.8 17.85 13.4 18.0 13.55 18.05 14.5 18.2 13.45 17.9 11.7 17.4 11.85 17.15 12.05 16.7 11.3 16.3 11.1 16.2 11.05 16.2 M11.3 16.3 L11.3 16.25 11.35 16.25 11.4 16.2 M12.05 16.7 L12.45 16.85 13.7 17.4 13.95 17.5 14.0 17.55 14.05 17.5 M12.8 17.85 L12.75 17.95 M9.85 18.9 L9.8 18.85 9.0 18.05 8.5 17.6 8.75 18.1 9.45 19.4 9.55 19.25 9.1 18.55 9.75 19.05 9.85 18.9 10.6 19.6 11.3 20.25 11.5 20.4 11.7 20.5 11.75 20.35 11.5 20.15 11.45 20.1 10.7 19.55 10.65 19.5 9.85 18.8 9.25 18.2 9.0 17.9 9.0 18.05 M9.75 19.05 L10.35 19.55 10.5 19.7 11.2 20.35 11.35 20.45 12.55 21.05 12.6 21.1 12.9 21.2 12.65 21.05 12.5 21.0 11.8 20.55 11.7 20.5 M10.5 19.7 L10.25 19.85 10.15 19.95 10.0 20.0 10.4 20.6 10.65 20.75 10.7 20.75 11.0 20.5 11.2 20.35 M9.7 20.05 L9.4 19.6 9.35 19.55 8.65 18.25 8.35 17.8 7.7 16.55 9.0 17.9 M9.7 19.9 L9.7 20.05 9.8 20.2 10.4 21.0 10.5 21.0 9.85 20.1 9.7 19.9 9.45 19.4 M10.0 20.0 L9.55 19.25 M10.65 21.05 L11.25 21.25 12.5 21.65 12.75 21.75 13.1 21.9 12.5 21.55 11.8 21.25 10.7 20.75 M10.65 21.05 L10.65 20.85 10.65 20.75 M10.5 21.0 L10.6 21.05 10.65 21.05 M14.6 22.55 L13.65 22.2 13.6 22.15 12.45 21.75 10.65 21.2 10.55 21.2 10.45 21.05 10.4 21.0 M13.65 22.1 L13.15 21.9 13.1 21.9 M13.65 22.1 L13.7 21.6 13.4 21.5 12.9 21.2 M11.75 20.35 L12.65 20.9 13.7 21.5 13.75 21.55 13.9 21.65 14.0 21.7 14.85 22.15 15.55 22.55 17.3 23.45 17.35 23.5 18.15 23.55 17.75 23.8 17.7 23.85 17.5 23.95 17.3 23.75 17.25 23.75 15.3 22.85 14.85 22.65 14.6 22.55 13.65 22.1 M13.7 21.6 L13.75 21.65 14.4 21.95 14.85 22.15 M12.5 21.55 L12.55 21.25 12.6 21.1 M8.75 18.1 L8.65 18.25 M13.7 17.4 L13.45 17.9 M15.8 18.35 L15.6 18.25 14.7 17.85 14.1 17.6 14.0 17.55 M17.8 9.1 L18.05 8.05 18.05 8.15 18.0 9.45 17.95 9.8 18.05 9.9 18.1 9.15 18.1 9.1 18.2 8.0 18.3 9.1 18.4 9.05 18.45 9.05 18.4 6.1 17.65 9.0 17.8 9.1 17.55 10.0 17.3 11.05 17.9 11.35 17.9 11.05 17.95 9.8 M17.2 10.4 L17.45 9.3 17.55 8.95 18.45 5.7 18.4 6.1 18.55 5.8 Q18.5 7.45 18.6 9.0 L18.7 10.45 18.85 11.65 19.1 13.3 19.15 13.4 19.25 13.95 19.5 15.0 19.6 15.05 Q20.25 15.15 21.15 15.6 L21.35 15.7 22.4 16.3 22.9 16.6 22.95 16.65 23.05 16.7 23.55 17.05 24.05 17.7 24.2 17.9 24.65 18.55 24.7 18.6 23.9 18.9 23.45 19.05 23.35 19.05 22.7 19.2 22.15 19.3 22.05 19.3 21.65 19.35 21.55 19.35 21.4 19.35 21.35 19.45 21.3 19.55 21.25 19.7 21.25 19.75 21.2 19.75 21.2 19.8 21.55 20.25 20.95 20.3 20.9 20.3 20.8 20.3 20.7 20.35 20.3 20.5 20.05 20.6 19.25 21.1 19.2 21.1 19.15 21.15 19.55 20.5 19.75 20.2 19.9 20.05 20.3 19.4 20.55 19.05 20.8 18.75 20.9 18.75 21.15 18.7 21.2 18.7 21.7 18.6 21.95 18.2 22.0 18.05 22.05 17.7 22.05 17.6 22.0 17.55 21.95 17.45 21.75 17.2 21.7 17.1 21.35 16.85 21.15 16.7 20.8 16.5 19.75 16.15 20.4 18.1 20.15 18.0 19.95 17.9 19.6 17.7 19.55 17.7 19.4 18.05 19.3 18.25 19.3 18.4 19.45 18.85 19.3 19.75 19.15 20.85 19.1 21.1 18.9 22.25 18.85 22.75 18.7 23.65 18.95 23.7 19.0 23.7 19.05 23.65 20.95 22.8 22.0 22.2 Q22.25 22.05 22.6 21.85 L23.1 21.55 23.35 21.4 23.55 21.25 24.15 20.85 25.35 20.0 24.5 21.1 24.25 21.4 23.65 22.2 22.25 22.7 21.85 22.85 20.95 23.2 19.15 23.95 18.95 24.05 18.85 23.9 18.6 23.65 18.7 23.65 18.6 23.15 18.6 23.05 18.1 21.0 18.1 20.9 17.7 19.25 17.5 18.5 17.15 17.9 17.05 17.75 16.8 17.5 16.4 17.35 16.05 17.3 16.05 17.2 16.2 16.55 16.4 15.35 16.4 15.3 16.25 15.2 16.45 14.1 16.45 14.0 17.0 11.35 17.05 10.95 17.2 10.4 17.3 10.55 17.65 9.0 M18.05 11.4 L18.05 11.05 18.05 9.9 M17.3 10.55 L17.2 11.0 17.1 11.5 17.2 11.6 17.3 11.05 M18.55 10.5 L18.7 10.45 M18.45 9.05 L18.55 10.5 18.7 11.6 18.85 12.9 18.95 13.45 19.1 14.1 19.25 13.95 M18.85 13.5 L18.65 12.1 18.55 11.6 18.15 11.45 18.05 11.4 18.05 11.5 18.15 13.3 18.2 13.6 18.2 13.7 18.85 13.5 19.05 14.35 19.3 15.3 19.4 15.8 19.4 15.85 19.45 15.85 19.5 15.8 19.5 15.75 19.4 15.35 19.1 14.1 M18.05 13.7 L18.0 13.5 17.9 11.35 M18.05 13.75 L18.05 13.7 18.2 13.6 M18.05 13.75 L17.75 13.8 16.7 14.05 16.5 15.15 16.45 15.2 16.45 15.3 16.45 15.4 16.4 16.5 16.95 16.4 16.9 15.8 Q16.9 15.15 17.05 14.65 L17.05 14.6 17.2 14.25 17.35 14.35 17.5 14.4 17.45 14.5 17.4 14.6 17.25 14.5 17.15 14.9 17.05 16.05 17.05 16.35 17.1 16.4 17.3 16.35 18.15 16.15 18.25 16.1 18.15 15.25 18.15 15.0 18.05 13.85 18.05 13.75 M18.85 14.75 L18.75 14.5 18.55 14.55 18.55 14.45 18.65 14.35 18.8 14.3 18.9 14.6 19.2 15.65 19.25 15.85 19.4 15.8 M14.65 12.7 L14.95 12.05 14.9 11.9 M14.95 12.05 L15.1 12.95 15.15 13.25 15.15 13.3 15.2 13.3 M14.95 13.25 L15.05 13.3 15.15 13.3 M15.15 14.0 L15.05 13.6 15.0 13.5 14.95 13.25 14.9 13.05 14.9 13.25 14.85 13.5 14.85 13.55 14.85 14.25 14.8 14.55 14.85 14.55 15.2 14.25 15.15 14.0 15.3 13.9 M14.75 13.45 L14.85 13.5 M14.65 14.2 L14.85 14.25 M16.5 15.0 L16.45 15.2 M17.1 11.5 L16.65 14.05 16.55 14.5 16.5 14.85 16.5 15.0 16.4 15.3 M16.05 17.2 L16.1 17.1 16.25 17.0 16.35 16.9 16.4 16.5 M16.25 17.0 L16.35 17.1 16.85 17.4 17.05 17.55 17.4 17.75 17.5 18.2 17.95 18.2 17.8 17.85 17.6 17.3 17.5 17.15 17.4 17.0 17.25 16.9 17.05 16.8 17.0 16.7 17.0 16.6 16.95 16.4 M18.9 14.6 L18.85 14.75 19.1 15.65 19.15 15.85 19.3 16.7 19.4 16.6 19.25 15.85 M17.05 14.65 L17.15 14.9 M17.1 16.4 L17.1 16.5 17.4 16.75 17.55 16.85 17.7 17.2 17.85 17.6 18.05 18.2 18.35 18.25 18.7 18.25 18.45 17.5 18.4 17.05 18.3 16.5 18.25 16.1 M17.7 17.2 L17.6 17.3 M18.85 18.25 L18.7 17.65 18.6 17.4 18.55 16.85 18.4 17.0 18.4 17.05 M19.4 16.6 L19.4 16.85 19.15 17.1 19.15 17.2 19.05 17.55 19.0 16.95 19.3 16.7 M18.55 16.85 L18.45 16.05 18.2 13.7 M18.45 16.05 L19.15 15.85 M16.7 14.05 L17.2 11.6 M21.05 15.75 L21.3 15.9 21.35 15.9 21.35 15.85 21.1 15.7 19.6 15.15 19.6 15.25 19.9 15.35 21.05 15.75 20.95 16.1 20.85 16.3 20.85 16.35 21.55 16.8 21.85 16.7 22.2 16.6 22.4 16.6 22.35 16.55 21.35 15.9 M19.5 15.15 L19.5 15.0 M19.5 15.15 L19.6 15.15 M19.6 15.55 L19.6 15.5 19.6 15.25 M19.5 15.8 L19.6 15.8 19.65 15.8 19.65 15.75 19.65 15.7 19.6 15.55 19.5 15.15 M19.6 17.4 L19.8 17.45 19.45 16.0 19.45 15.85 19.4 15.85 M19.65 15.8 L19.7 16.0 20.5 16.25 20.85 16.4 21.25 16.65 21.5 16.8 21.65 16.95 21.75 17.0 21.75 16.9 21.55 16.8 M19.65 15.75 L19.65 15.8 20.65 16.25 20.85 16.35 M19.6 17.4 L19.45 17.4 19.4 17.45 19.15 18.05 19.15 18.15 19.1 18.25 19.05 18.35 19.05 18.4 19.25 19.05 19.2 19.35 19.15 19.7 19.0 20.65 19.0 20.7 19.0 20.75 19.15 20.85 M22.2 17.65 L22.1 17.5 22.0 17.35 21.85 17.15 21.75 17.0 M19.7 16.0 L19.75 16.15 M19.5 15.8 L19.6 16.1 20.15 18.0 M21.35 15.85 L21.9 16.15 22.35 16.4 22.4 16.3 M21.75 16.9 L21.95 17.0 22.1 17.25 22.3 17.55 22.75 17.75 22.85 17.75 23.15 17.9 23.15 17.65 23.15 17.6 23.05 17.2 23.0 17.1 22.9 17.05 22.8 16.9 22.4 16.6 M23.0 16.85 L22.9 17.0 22.9 17.05 M22.35 16.4 L22.6 16.6 23.0 16.85 23.4 17.2 23.5 17.3 24.0 18.0 24.2 18.35 24.65 18.55 M23.85 18.05 L23.7 17.75 23.35 17.35 23.35 17.4 23.35 17.7 23.35 17.75 23.7 18.3 23.75 18.45 24.0 18.3 23.85 18.05 23.95 18.0 24.0 18.0 M18.55 11.6 L18.3 9.1 M23.35 17.75 L23.3 18.05 23.25 18.25 22.8 18.5 22.7 18.5 22.65 18.55 22.7 18.55 23.05 18.8 23.4 18.7 23.4 18.65 23.75 18.45 M24.2 18.35 L24.25 18.4 23.8 18.65 23.35 18.8 23.15 18.9 22.85 18.95 22.8 19.0 22.7 19.0 22.7 19.2 M23.35 18.8 L23.4 18.7 M22.65 18.35 L23.0 18.2 23.15 17.9 M22.35 17.6 L22.4 17.7 22.2 18.2 22.5 18.4 22.6 18.35 22.65 18.35 22.7 18.5 M22.05 18.3 L22.15 18.15 22.25 17.75 22.2 17.65 22.35 17.6 22.3 17.55 M21.95 18.2 L22.05 18.3 22.0 18.4 21.9 18.6 22.2 18.2 M22.2 19.1 L22.25 19.1 22.7 19.0 M21.75 19.15 L22.05 19.05 22.3 19.05 22.55 19.0 23.05 18.8 M21.85 18.8 L22.5 18.6 22.65 18.55 M23.15 17.6 L23.35 17.7 M22.2 19.1 L22.05 19.3 M20.65 19.2 L20.85 18.95 21.15 18.9 21.15 18.7 M21.35 18.9 L21.55 18.85 21.8 18.85 21.85 18.8 21.9 18.65 21.9 18.6 M21.15 18.9 L21.35 18.9 21.45 19.15 21.5 19.15 21.6 19.15 21.75 19.15 22.2 19.1 M19.95 20.1 L20.15 19.8 20.35 19.55 20.65 19.2 20.55 19.05 M19.9 20.05 L19.95 20.1 19.65 20.6 19.6 20.7 20.25 20.4 20.6 20.25 20.65 20.2 20.8 20.2 20.7 20.1 20.65 20.0 20.35 19.55 M20.25 20.4 L20.3 20.5 M21.6 19.15 L21.65 19.35 M21.15 19.4 L21.05 19.8 21.05 19.95 21.05 20.0 21.2 20.15 20.8 20.2 M21.3 19.55 L21.25 19.5 21.15 19.4 21.2 19.1 21.45 19.15 M20.95 23.1 L20.95 22.95 19.65 23.6 20.85 23.15 20.95 23.1 22.2 22.55 22.1 22.35 Q21.55 22.6 20.95 22.95 L20.95 22.8 M24.45 20.95 L24.1 21.3 23.85 21.6 23.65 21.85 23.35 22.0 22.75 22.25 22.2 22.55 22.25 22.7 M23.55 21.3 L23.55 21.25 M22.7 22.05 L22.95 21.95 23.0 21.9 23.6 21.5 23.65 21.45 24.05 21.2 23.75 21.55 23.35 22.0 M22.6 21.85 L22.65 21.9 23.55 21.3 24.95 20.4 24.45 20.95 24.5 21.1 M22.65 21.9 L22.7 22.05 22.75 22.25 M22.7 22.05 L22.1 22.35 M21.9 18.65 L22.5 18.4 M18.85 18.25 L19.1 18.25 M18.7 18.25 L18.7 18.5 18.65 19.05 18.65 19.1 18.8 19.3 18.85 18.55 18.85 18.25 M17.95 18.2 L18.0 18.5 18.1 18.4 18.05 18.2 M17.85 19.3 L17.65 18.7 17.5 18.2 M18.25 21.0 L18.1 20.35 17.85 19.3 18.15 19.4 18.15 19.35 18.4 19.4 18.55 19.35 18.65 19.1 M18.65 19.55 L18.7 19.55 18.75 19.4 18.8 19.3 M18.15 19.4 L18.15 19.5 18.4 20.05 18.5 20.25 18.55 20.5 18.6 21.05 18.65 20.75 18.65 20.5 18.65 20.45 18.65 20.35 18.5 19.65 18.65 19.55 19.15 19.7 M16.25 18.5 L16.2 18.45 15.8 18.35 15.9 18.15 M16.4 18.75 L16.25 18.5 15.85 18.5 15.4 18.55 15.25 18.7 14.95 18.9 14.55 18.95 14.8 19.15 15.9 19.7 15.95 19.75 16.4 19.35 16.6 19.15 16.4 18.75 16.6 18.55 M14.5 18.2 L14.7 18.25 14.85 18.25 15.2 18.35 15.4 18.35 15.4 18.45 15.4 18.55 M14.8 18.8 L14.85 18.85 14.95 18.9 M14.5 18.9 L14.55 18.95 M14.85 18.25 L14.75 18.4 M14.8 19.15 L14.7 19.25 M16.6 19.15 L16.7 19.35 16.85 19.75 17.1 19.75 M16.5 19.95 L16.45 20.05 M16.5 19.95 L16.7 20.05 17.05 20.15 16.85 19.75 M15.95 19.75 L16.5 19.95 M14.4 21.95 L15.35 22.5 15.5 22.55 17.0 23.4 17.2 23.55 17.65 23.85 17.75 23.8 M15.5 22.55 L15.3 22.85 M18.25 21.0 L18.5 22.1 18.55 22.25 18.7 22.5 18.8 21.8 19.0 20.7 M18.1 20.9 L18.25 21.0 M18.85 23.9 L18.9 23.9 19.65 23.6 M19.6 17.7 L19.6 17.4 M17.05 17.55 L17.05 17.75" fill="none" stroke="#ffffff" stroke-linecap="round" stroke-linejoin="round" stroke-width="2.0"/>
      <path d="M7.3 12.9 L7.3 12.85 7.85 12.7 8.05 12.6 8.15 12.6 8.4 12.55 8.75 12.5 9.4 12.7 9.6 12.75 9.85 12.85 10.4 13.1 10.7 13.25 10.6 13.4 10.0 13.1 9.7 13.0 9.6 13.0 9.4 12.9 9.2 12.85 8.7 12.75 8.5 12.7 8.45 12.7 8.35 12.7 8.2 12.75 7.75 12.85 7.3 13.0 7.3 12.9" fill="#001090" fill-rule="evenodd" stroke="none"/>
      <path d="M8.35 12.7 L8.45 12.7 8.5 12.7 8.7 12.75 9.2 12.85 9.4 12.9 9.6 13.0 9.4 12.95 9.0 12.9 8.5 12.85 8.45 12.85 8.25 12.85 8.35 12.7" fill="#1395ff" fill-rule="evenodd" stroke="none"/>
      <path d="M7.3 13.0 L7.75 12.85 8.2 12.75 8.35 12.7 8.25 12.85 8.0 12.9 7.7 13.0 6.85 13.25 6.75 13.3 6.35 13.45 6.3 13.35 6.55 13.25 6.85 13.1 7.3 13.0" fill="#17c7ff" fill-rule="evenodd" stroke="none"/>
      <path d="M8.25 12.85 L8.45 12.85 8.5 12.85 9.0 12.9 8.55 13.05 8.45 13.1 8.15 13.2 7.85 13.35 7.9 13.6 7.55 13.5 6.75 13.3 6.85 13.25 7.7 13.0 8.0 12.9 8.25 12.85" fill="#0b6dff" fill-rule="evenodd" stroke="none"/>
      <path d="M7.35 15.85 L6.6 15.4 6.2 15.1 5.7 14.65 5.6 14.4 5.15 13.75 Q5.75 13.45 6.25 13.25 L6.4 13.2 7.3 12.9 7.3 13.0 6.85 13.1 6.55 13.25 6.3 13.35 5.45 13.75 5.65 14.35 6.25 15.1 6.45 15.25 6.6 15.35 7.35 15.8 7.35 15.85" fill="#003cae" fill-rule="evenodd" stroke="none"/>
      <path d="M6.65 14.85 Q7.0 14.55 7.4 14.35 L7.6 14.25 8.05 14.0 8.2 14.4 8.7 14.85 8.85 15.0 8.5 15.55 8.45 15.65 8.3 16.0 6.9 15.1 6.8 14.95 6.65 14.85" fill="#0085fe" fill-rule="evenodd" stroke="none"/>
      <path d="M6.75 13.3 L7.55 13.5 7.9 13.6 8.05 13.95 8.05 14.0 7.6 14.25 7.4 14.35 Q7.0 14.55 6.65 14.85 L5.85 14.15 5.75 13.75 6.35 13.45 6.75 13.3" fill="#0074fd" fill-rule="evenodd" stroke="none"/>
      <path d="M7.9 13.6 L7.85 13.35 8.15 13.2 8.2 13.3 8.15 13.35 8.15 13.4 8.15 13.65 8.2 13.8 8.25 13.95 8.05 14.0 8.05 13.95 7.9 13.6" fill="#13ecff" fill-rule="evenodd" stroke="none"/>
      <path d="M8.25 13.95 L8.2 13.8 8.15 13.65 8.15 13.4 8.15 13.35 8.2 13.3 8.5 13.2 8.6 13.15 8.95 13.1 9.1 13.1 9.25 13.1 8.8 13.2 8.65 13.25 8.4 13.4 8.35 13.4 8.35 13.5 8.35 13.6 8.35 13.7 8.4 13.9 8.5 14.05 8.55 14.15 8.6 14.25 8.5 14.3 8.95 14.7 8.55 14.4 8.4 14.25 8.25 13.95" fill="#0012de" fill-rule="evenodd" stroke="none"/>
      <path d="M9.6 13.0 L9.7 13.0 9.55 13.2 9.45 13.15 9.25 13.1 9.1 13.1 8.95 13.1 8.6 13.15 8.5 13.2 8.2 13.3 8.15 13.2 8.45 13.1 8.55 13.05 9.0 12.9 9.4 12.95 9.6 13.0" fill="#1af3ff" fill-rule="evenodd" stroke="none"/>
      <path d="M8.65 13.25 L8.8 13.2 9.25 13.1 9.45 13.15 9.55 13.85 9.45 13.85 9.1 13.85 9.0 13.85 9.0 13.9 8.95 13.85 8.85 13.6 8.65 13.25" fill="#0671f5" fill-rule="evenodd" stroke="none"/>
      <path d="M8.55 14.15 L8.5 14.05 8.4 13.9 8.35 13.7 8.35 13.6 8.35 13.5 8.35 13.4 8.4 13.4 8.65 13.25 8.85 13.6 8.95 13.85 9.0 13.9 8.85 13.95 8.7 14.05 8.55 14.15" fill="#0772f2" fill-rule="evenodd" stroke="none"/>
      <path d="M8.05 14.0 L8.25 13.95 8.4 14.25 8.55 14.4 8.95 14.7 9.0 14.75 9.05 14.75 9.1 14.85 8.9 15.05 8.85 15.0 8.7 14.85 8.2 14.4 8.05 14.0" fill="#1df5ff" fill-rule="evenodd" stroke="none"/>
      <path d="M9.0 13.9 L9.0 13.85 9.1 13.85 9.45 13.85 9.45 14.0 9.1 14.05 9.0 14.1 8.9 14.1 8.65 14.2 8.6 14.25 8.55 14.15 8.7 14.05 8.85 13.95 9.0 13.9" fill="#24deff" fill-rule="evenodd" stroke="none"/>
      <path d="M9.75 14.2 L9.55 14.2 9.5 14.2 9.2 14.25 9.0 14.25 8.8 14.35 9.0 14.55 9.2 14.7 9.95 15.25 10.25 15.45 9.95 15.4 9.9 15.35 9.65 15.3 9.15 14.9 9.1 14.85 9.05 14.75 9.0 14.75 8.95 14.7 8.5 14.3 8.6 14.25 8.65 14.2 8.9 14.1 9.0 14.1 9.1 14.05 9.45 14.0 9.55 14.0 9.6 14.0 9.75 14.2" fill="#0619cd" fill-rule="evenodd" stroke="none"/>
      <path d="M6.65 14.85 L6.8 14.95 6.9 15.1 6.7 15.3 6.35 15.0 5.65 14.35 5.45 13.75 6.3 13.35 6.35 13.45 5.75 13.75 5.85 14.15 6.65 14.85" fill="#03f5f7" fill-rule="evenodd" stroke="none"/>
      <path d="M10.25 17.15 L10.0 17.05 8.95 16.65 8.5 16.45 8.2 16.3 7.35 15.85 7.35 15.8 6.6 15.35 6.45 15.25 6.25 15.1 5.65 14.35 6.35 15.0 6.7 15.3 7.35 15.7 7.75 15.9 7.9 15.95 7.95 16.0 8.05 16.05 8.2 16.2 8.25 16.2 9.05 16.55 9.95 16.9 10.3 17.0 10.25 17.15" fill="#002fdc" fill-rule="evenodd" stroke="none"/>
      <path d="M8.9 15.05 L9.1 14.85 9.15 14.9 9.65 15.3 9.95 15.5 10.65 15.95 11.05 16.2 10.05 15.75 9.9 15.7 8.9 15.05" fill="#03d4ff" fill-rule="evenodd" stroke="none"/>
      <path d="M8.3 16.0 L8.45 15.65 8.5 15.55 8.85 15.0 8.9 15.05 9.9 15.7 9.9 16.0 9.95 16.85 9.1 16.45 8.7 16.25 8.3 16.0" fill="#00aaff" fill-rule="evenodd" stroke="none"/>
      <path d="M6.9 15.1 L8.3 16.0 8.7 16.25 9.1 16.45 9.05 16.55 8.25 16.2 8.2 16.2 8.05 16.05 7.95 16.0 7.9 15.95 7.75 15.9 7.35 15.7 6.7 15.3 6.9 15.1" fill="#1ae2ff" fill-rule="evenodd" stroke="none"/>
      <path d="M9.05 16.55 L9.1 16.45 9.95 16.85 10.45 17.05 11.7 17.4 13.45 17.9 14.5 18.2 13.55 18.05 13.4 18.0 12.8 17.85 11.65 17.55 11.45 17.45 11.3 17.4 10.3 17.0 9.95 16.9 9.05 16.55" fill="#1fdbff" fill-rule="evenodd" stroke="none"/>
      <path d="M15.35 13.35 L15.35 13.4 15.45 13.85 15.6 14.35 15.3 14.5 15.2 14.6 14.95 14.75 14.8 14.9 14.7 15.0 14.5 14.85 14.45 14.8 14.4 14.75 13.95 14.4 13.75 14.25 14.0 13.7 14.05 13.65 14.35 13.05 14.55 12.6 14.65 12.7 14.4 13.15 14.4 13.25 14.15 13.75 14.05 14.0 14.0 14.2 14.25 14.45 14.45 14.6 14.7 14.8 15.35 14.4 15.3 13.9 15.2 13.3 15.35 13.35" fill="#001af7" fill-rule="evenodd" stroke="none"/>
      <path d="M14.65 14.2 L14.65 14.6 14.3 14.35 14.15 14.15 14.15 14.1 14.25 13.85 14.5 13.25 14.8 12.6 14.75 13.45 14.7 13.6 14.65 14.2" fill="#086ffc" fill-rule="evenodd" stroke="none"/>
      <path d="M15.3 13.9 L15.35 14.4 14.7 14.8 14.45 14.6 14.25 14.45 14.0 14.2 14.05 14.0 14.15 14.1 14.15 14.15 14.3 14.35 14.65 14.6 14.65 14.2 14.85 14.25 14.8 14.55 14.85 14.55 15.2 14.25 15.15 14.0 15.3 13.9" fill="#26b1ff" fill-rule="evenodd" stroke="none"/>
      <path d="M15.2 13.3 L15.3 13.9 15.15 14.0 15.05 13.6 15.0 13.5 14.95 13.25 15.05 13.3 15.15 13.3 15.2 13.3 M14.05 14.0 L14.15 13.75 14.4 13.25 14.4 13.15 14.5 13.25 14.25 13.85 14.15 14.1 14.05 14.0 M14.65 14.2 L14.7 13.6 14.75 13.45 14.85 13.5 14.85 13.55 14.85 14.25 14.65 14.2" fill="#0097f9" fill-rule="evenodd" stroke="none"/>
      <path d="M9.7 13.0 L10.0 13.1 10.6 13.4 11.15 13.65 10.95 13.75 10.25 13.4 9.55 13.2 9.7 13.0" fill="#0fc3ff" fill-rule="evenodd" stroke="none"/>
      <path d="M9.55 13.85 L9.45 13.15 9.55 13.2 10.25 13.4 10.95 13.75 11.4 14.0 10.7 13.9 10.5 13.9 9.55 13.85" fill="#0074ff" fill-rule="evenodd" stroke="none"/>
      <path d="M10.7 13.25 L10.9 13.4 11.25 13.55 Q12.4 14.2 13.05 14.8 L12.0 14.5 10.85 14.25 9.8 14.2 9.75 14.2 9.6 14.0 10.0 14.0 10.75 14.05 11.25 14.1 12.35 14.45 Q12.15 14.2 11.25 13.7 L11.15 13.65 10.6 13.4 10.7 13.25" fill="#0011c0" fill-rule="evenodd" stroke="none"/>
      <path d="M9.45 13.85 L9.55 13.85 10.5 13.9 10.7 13.9 10.75 14.05 10.0 14.0 9.6 14.0 9.55 14.0 9.45 14.0 9.45 13.85" fill="#079cff" fill-rule="evenodd" stroke="none"/>
      <path d="M10.75 14.05 L10.7 13.9 11.4 14.0 10.95 13.75 11.15 13.65 11.25 13.7 Q12.15 14.2 12.35 14.45 L11.25 14.1 10.75 14.05" fill="#00bbeb" fill-rule="evenodd" stroke="none"/>
      <path d="M10.25 15.45 L11.4 16.2 11.35 16.25 11.3 16.25 11.3 16.3 11.1 16.2 11.05 16.2 10.65 15.95 9.95 15.5 9.65 15.3 9.9 15.35 9.95 15.4 10.25 15.45" fill="#16ceff" fill-rule="evenodd" stroke="none"/>
      <path d="M9.9 15.7 L10.05 15.75 11.05 16.2 11.1 16.2 11.3 16.3 12.05 16.7 11.85 17.15 11.7 17.4 10.45 17.05 9.95 16.85 9.9 16.0 9.9 15.7" fill="#01bcff" fill-rule="evenodd" stroke="none"/>
      <path d="M12.75 17.95 L11.6 17.6 10.65 17.3 10.25 17.15 10.3 17.0 11.3 17.4 11.45 17.45 11.65 17.55 12.8 17.85 12.75 17.95" fill="#003ce8" fill-rule="evenodd" stroke="none"/>
      <path d="M11.4 16.2 L11.55 16.3 12.05 16.55 12.1 16.6 12.85 16.95 13.75 17.35 14.05 17.5 14.0 17.55 13.95 17.5 13.7 17.4 12.45 16.85 12.05 16.7 11.3 16.3 11.3 16.25 11.35 16.25 11.4 16.2" fill="#1ddfff" fill-rule="evenodd" stroke="none"/>
      <path d="M13.45 17.9 L11.7 17.4 11.85 17.15 12.05 16.7 12.45 16.85 13.7 17.4 13.45 17.9" fill="#07edff" fill-rule="evenodd" stroke="none"/>
      <path d="M14.5 18.2 L13.45 17.9 13.7 17.4 13.95 17.5 14.0 17.55 14.1 17.6 14.7 17.85 15.6 18.25 15.8 18.35 16.2 18.45 16.25 18.5 15.85 18.5 15.4 18.55 15.4 18.45 15.4 18.35 15.2 18.35 14.85 18.25 14.7 18.25 14.5 18.2" fill="#00fcf9" fill-rule="evenodd" stroke="none"/>
      <path d="M14.05 17.5 L15.2 17.95 15.45 18.05 15.7 18.1 15.8 18.15 15.9 18.15 15.8 18.35 15.6 18.25 14.7 17.85 14.1 17.6 14.0 17.55 14.05 17.5" fill="#6dffff" fill-rule="evenodd" stroke="none"/>
      <path d="M14.75 18.4 L13.35 18.1 12.75 17.95 12.8 17.85 13.4 18.0 13.55 18.05 14.5 18.2 14.7 18.25 14.85 18.25 14.75 18.4" fill="#b5ffff" fill-rule="evenodd" stroke="none"/>
      <path d="M9.75 19.05 L9.85 18.9 10.6 19.6 11.3 20.25 11.5 20.4 11.7 20.5 11.8 20.55 12.5 21.0 12.65 21.05 12.9 21.2 12.6 21.1 12.55 21.05 11.35 20.45 11.2 20.35 10.5 19.7 10.35 19.55 9.75 19.05" fill="#1ae3ff" fill-rule="evenodd" stroke="none"/>
      <path d="M9.85 18.9 L9.75 19.05 9.1 18.55 9.55 19.25 9.45 19.4 8.75 18.1 8.5 17.6 9.0 18.05 9.8 18.85 9.85 18.9" fill="#03ebf5" fill-rule="evenodd" stroke="none"/>
      <path d="M9.85 18.9 L9.8 18.85 9.0 18.05 9.0 17.9 9.25 18.2 9.85 18.8 10.65 19.5 10.7 19.55 11.45 20.1 11.5 20.15 11.75 20.35 11.7 20.5 11.5 20.4 11.3 20.25 10.6 19.6 9.85 18.9" fill="#002ee2" fill-rule="evenodd" stroke="none"/>
      <path d="M10.5 19.7 L11.2 20.35 11.0 20.5 10.7 20.75 10.65 20.75 10.4 20.6 10.0 20.0 10.15 19.95 10.25 19.85 10.5 19.7" fill="#007ffd" fill-rule="evenodd" stroke="none"/>
      <path d="M9.55 19.25 L9.1 18.55 9.75 19.05 10.35 19.55 10.5 19.7 10.25 19.85 10.15 19.95 10.0 20.0 9.55 19.25" fill="#0175fc" fill-rule="evenodd" stroke="none"/>
      <path d="M8.75 18.1 L9.45 19.4 9.7 19.9 9.7 20.05 9.4 19.6 9.35 19.55 8.65 18.25 8.75 18.1" fill="#001bcd" fill-rule="evenodd" stroke="none"/>
      <path d="M9.45 19.4 L9.55 19.25 10.0 20.0 10.4 20.6 10.65 20.75 10.65 20.85 10.65 21.05 10.6 21.05 10.5 21.0 9.85 20.1 9.7 19.9 9.45 19.4" fill="#00caff" fill-rule="evenodd" stroke="none"/>
      <path d="M10.4 21.0 L9.8 20.2 9.7 20.05 9.7 19.9 9.85 20.1 10.5 21.0 10.4 21.0" fill="#000ed8" fill-rule="evenodd" stroke="none"/>
      <path d="M12.9 21.2 L12.65 21.05 12.5 21.0 11.8 20.55 11.7 20.5 11.75 20.35 12.65 20.9 13.7 21.5 13.75 21.55 13.9 21.65 14.0 21.7 14.85 22.15 14.4 21.95 13.75 21.65 13.7 21.6 13.4 21.5 12.9 21.2" fill="#15dfff" fill-rule="evenodd" stroke="none"/>
      <path d="M11.2 20.35 L11.35 20.45 12.55 21.05 12.6 21.1 12.55 21.25 12.5 21.55 11.8 21.25 10.7 20.75 11.0 20.5 11.2 20.35" fill="#009ef3" fill-rule="evenodd" stroke="none"/>
      <path d="M10.65 20.75 L10.7 20.75 11.8 21.25 12.5 21.55 13.1 21.9 12.75 21.75 12.5 21.65 11.25 21.25 10.65 21.05 10.65 20.85 10.65 20.75" fill="#09f3ff" fill-rule="evenodd" stroke="none"/>
      <path d="M14.6 22.55 L13.65 22.2 13.6 22.15 12.45 21.75 10.65 21.2 10.55 21.2 10.45 21.05 10.4 21.0 10.5 21.0 10.6 21.05 10.65 21.05 11.25 21.25 12.5 21.65 12.75 21.75 13.1 21.9 13.15 21.9 13.65 22.1 14.6 22.55" fill="#004edb" fill-rule="evenodd" stroke="none"/>
      <path d="M12.6 21.1 L12.9 21.2 13.4 21.5 13.7 21.6 13.65 22.1 13.15 21.9 13.1 21.9 12.5 21.55 12.55 21.25 12.6 21.1" fill="#00caf4" fill-rule="evenodd" stroke="none"/>
      <path d="M15.3 22.85 L14.85 22.65 14.6 22.55 13.65 22.1 13.7 21.6 13.75 21.65 14.4 21.95 15.35 22.5 15.5 22.55 15.3 22.85" fill="#05e1ff" fill-rule="evenodd" stroke="none"/>
      <path d="M9.0 18.05 L8.5 17.6 8.75 18.1 8.65 18.25 8.35 17.8 7.7 16.55 9.0 17.9 9.0 18.05" fill="#001dc3" fill-rule="evenodd" stroke="none"/>
      <path d="M17.65 9.0 L18.4 6.1 18.45 9.05 18.4 9.05 18.3 9.1 18.2 8.0 18.1 9.1 18.1 9.15 18.05 9.9 17.95 9.8 18.0 9.45 18.05 8.15 18.05 8.05 17.8 9.1 17.65 9.0" fill="#0be6ff" fill-rule="evenodd" stroke="none"/>
      <path d="M17.8 9.1 L18.05 8.05 18.05 8.15 18.0 9.45 17.95 9.8 17.9 11.05 17.9 11.35 17.3 11.05 17.55 10.0 17.8 9.1 M18.05 9.9 L18.1 9.15 18.1 9.1 18.2 8.0 18.3 9.1 18.55 11.6 18.15 11.45 18.05 11.4 18.05 11.05 18.05 9.9" fill="#0082fb" fill-rule="evenodd" stroke="none"/>
      <path d="M17.2 10.4 L17.45 9.3 17.55 8.95 18.45 5.7 18.4 6.1 18.55 5.8 Q18.5 7.45 18.6 9.0 L18.7 10.45 18.55 10.5 18.45 9.05 18.4 6.1 17.65 9.0 17.3 10.55 17.2 10.4" fill="#0030df" fill-rule="evenodd" stroke="none"/>
      <path d="M18.45 9.05 L18.55 10.5 18.7 11.6 18.85 12.9 18.95 13.45 19.1 14.1 19.4 15.35 19.5 15.75 19.5 15.8 19.45 15.85 19.4 15.85 19.4 15.8 19.3 15.3 19.05 14.35 18.85 13.5 18.65 12.1 18.55 11.6 18.3 9.1 18.4 9.05 18.45 9.05 M17.1 11.5 L17.2 11.6 16.7 14.05 16.5 15.15 16.45 15.2 16.5 15.0 16.5 14.85 16.55 14.5 16.65 14.05 17.1 11.5" fill="#0faeff" fill-rule="evenodd" stroke="none"/>
      <path d="M17.3 10.55 L17.65 9.0 17.8 9.1 17.55 10.0 17.3 11.05 17.2 11.6 17.1 11.5 17.2 11.0 17.3 10.55" fill="#0ebfff" fill-rule="evenodd" stroke="none"/>
      <path d="M16.4 15.3 L16.25 15.2 16.45 14.1 16.45 14.0 17.0 11.35 17.05 10.95 17.2 10.4 17.3 10.55 17.2 11.0 17.1 11.5 16.65 14.05 16.55 14.5 16.5 14.85 16.5 15.0 16.4 15.3" fill="#0031ea" fill-rule="evenodd" stroke="none"/>
      <path d="M17.95 9.8 L18.05 9.9 18.05 11.05 18.05 11.4 18.05 11.5 18.15 13.3 18.2 13.6 18.05 13.7 18.0 13.5 17.9 11.35 17.9 11.05 17.95 9.8" fill="#12caff" fill-rule="evenodd" stroke="none"/>
      <path d="M17.3 11.05 L17.9 11.35 18.0 13.5 18.05 13.7 18.05 13.75 17.75 13.8 16.7 14.05 17.2 11.6 17.3 11.05 M18.55 11.6 L18.65 12.1 18.85 13.5 18.2 13.7 18.2 13.6 18.15 13.3 18.05 11.5 18.05 11.4 18.15 11.45 18.55 11.6" fill="#00a5fb" fill-rule="evenodd" stroke="none"/>
      <path d="M18.7 10.45 L18.85 11.65 19.1 13.3 19.15 13.4 19.25 13.95 19.1 14.1 18.95 13.45 18.85 12.9 18.7 11.6 18.55 10.5 18.7 10.45" fill="#0119b7" fill-rule="evenodd" stroke="none"/>
      <path d="M18.2 13.7 L18.85 13.5 19.05 14.35 19.3 15.3 19.4 15.8 19.25 15.85 19.2 15.65 18.9 14.6 18.8 14.3 18.65 14.35 18.55 14.45 18.55 14.55 18.75 14.5 18.85 14.75 19.1 15.65 19.15 15.85 18.45 16.05 18.2 13.7 M18.05 13.75 L18.05 13.85 18.15 15.0 18.15 15.25 18.25 16.1 18.15 16.15 17.3 16.35 17.1 16.4 17.05 16.35 17.05 16.05 17.15 14.9 17.25 14.5 17.4 14.6 17.45 14.5 17.5 14.4 17.35 14.35 17.2 14.25 17.05 14.6 17.05 14.65 Q16.9 15.15 16.9 15.8 L16.95 16.4 16.4 16.5 16.45 15.4 16.45 15.3 16.45 15.2 16.5 15.15 16.7 14.05 17.75 13.8 18.05 13.75" fill="#05e7ff" fill-rule="evenodd" stroke="none"/>
      <path d="M18.2 13.6 L18.2 13.7 18.45 16.05 18.55 16.85 18.4 17.0 18.4 17.05 18.3 16.5 18.25 16.1 18.15 15.25 18.15 15.0 18.05 13.85 18.05 13.75 18.05 13.7 18.2 13.6" fill="#0afeff" fill-rule="evenodd" stroke="none"/>
      <path d="M15.9 18.15 L16.4 18.2 16.55 18.5 16.6 18.55 16.4 18.75 16.25 18.5 16.2 18.45 15.8 18.35 15.9 18.15 M20.3 20.5 L20.05 20.6 19.25 21.1 19.2 21.1 19.15 21.15 19.55 20.5 19.75 20.2 19.9 20.05 19.95 20.1 19.65 20.6 19.6 20.7 20.25 20.4 20.3 20.5 M17.05 14.65 L17.05 14.6 17.2 14.25 17.35 14.35 17.5 14.4 17.45 14.5 17.4 14.6 17.25 14.5 17.15 14.9 17.05 14.65" fill="#d8ffff" fill-rule="evenodd" stroke="none"/>
      <path d="M18.85 14.75 L18.75 14.5 18.55 14.55 18.55 14.45 18.65 14.35 18.8 14.3 18.9 14.6 18.85 14.75" fill="#acffff" fill-rule="evenodd" stroke="none"/>
      <path d="M19.25 13.95 L19.5 15.0 19.5 15.15 19.6 15.55 19.65 15.7 19.65 15.75 19.65 15.8 19.6 15.8 19.5 15.8 19.5 15.75 19.4 15.35 19.1 14.1 19.25 13.95" fill="#0026b5" fill-rule="evenodd" stroke="none"/>
      <path d="M15.35 13.35 L15.2 13.3 15.15 13.3 15.15 13.25 15.1 12.95 14.95 12.05 14.9 11.9 15.05 11.7 15.3 13.15 15.35 13.3 15.35 13.35" fill="#0017ef" fill-rule="evenodd" stroke="none"/>
      <path d="M14.65 12.7 L14.55 12.6 14.9 11.9 14.95 12.05 14.65 12.7" fill="#0039c6" fill-rule="evenodd" stroke="none"/>
      <path d="M14.4 13.15 L14.65 12.7 14.95 12.05 15.1 12.95 15.15 13.25 15.15 13.3 15.05 13.3 14.95 13.25 14.9 13.05 14.9 13.25 14.85 13.5 14.75 13.45 14.8 12.6 14.5 13.25 14.4 13.15" fill="#0ee9ff" fill-rule="evenodd" stroke="none"/>
      <path d="M14.95 13.25 L15.0 13.5 15.05 13.6 15.15 14.0 15.2 14.25 14.85 14.55 14.8 14.55 14.85 14.25 14.85 13.55 14.85 13.5 14.9 13.25 14.9 13.05 14.95 13.25" fill="#0078f5" fill-rule="evenodd" stroke="none"/>
      <path d="M16.05 17.2 L16.2 16.55 16.4 15.35 16.4 15.3 16.5 15.0 16.45 15.2 16.45 15.3 16.45 15.4 16.4 16.5 16.35 16.9 16.25 17.0 16.1 17.1 16.05 17.2" fill="#cfffff" fill-rule="evenodd" stroke="none"/>
      <path d="M17.05 17.75 L16.8 17.5 16.4 17.35 16.05 17.3 16.05 17.2 16.1 17.1 16.25 17.0 16.35 17.1 16.85 17.4 17.05 17.55 17.05 17.75" fill="#c9ffff" fill-rule="evenodd" stroke="none"/>
      <path d="M16.4 16.5 L16.95 16.4 17.0 16.6 17.0 16.7 17.05 16.8 17.25 16.9 17.4 17.0 17.5 17.15 17.6 17.3 17.8 17.85 17.95 18.2 17.5 18.2 17.4 17.75 17.05 17.55 16.85 17.4 16.35 17.1 16.25 17.0 16.35 16.9 16.4 16.5" fill="#06fdff" fill-rule="evenodd" stroke="none"/>
      <path d="M18.7 23.65 L18.95 23.7 19.0 23.7 19.05 23.65 20.95 22.8 20.95 22.95 19.65 23.6 18.9 23.9 18.85 23.9 18.6 23.65 18.7 23.65 M16.95 16.4 L16.9 15.8 Q16.9 15.15 17.05 14.65 L17.15 14.9 17.05 16.05 17.05 16.35 17.1 16.4 17.1 16.5 17.4 16.75 17.55 16.85 17.7 17.2 17.6 17.3 17.5 17.15 17.4 17.0 17.25 16.9 17.05 16.8 17.0 16.7 17.0 16.6 16.95 16.4 M18.9 14.6 L19.2 15.65 19.25 15.85 19.4 16.6 19.3 16.7 19.15 15.85 19.1 15.65 18.85 14.75 18.9 14.6" fill="#dcffff" fill-rule="evenodd" stroke="none"/>
      <path d="M19.4 15.8 L19.4 15.85 19.45 15.85 19.45 16.0 19.8 17.45 19.6 17.4 19.45 17.4 19.4 17.45 19.15 18.05 19.15 18.15 19.1 18.25 18.85 18.25 18.7 17.65 18.6 17.4 18.55 16.85 18.45 16.05 19.15 15.85 19.3 16.7 19.0 16.95 19.05 17.55 19.15 17.2 19.15 17.1 19.4 16.85 19.4 16.6 19.25 15.85 19.4 15.8 M17.1 16.4 L17.3 16.35 18.15 16.15 18.25 16.1 18.3 16.5 18.4 17.05 18.45 17.5 18.7 18.25 18.35 18.25 18.05 18.2 17.85 17.6 17.7 17.2 17.55 16.85 17.4 16.75 17.1 16.5 17.1 16.4" fill="#13fbff" fill-rule="evenodd" stroke="none"/>
      <path d="M21.65 19.35 L21.55 19.35 21.4 19.35 21.35 19.45 21.3 19.55 21.25 19.5 21.15 19.4 21.2 19.1 21.45 19.15 21.5 19.15 21.6 19.15 21.65 19.35 M17.95 18.2 L17.8 17.85 17.6 17.3 17.7 17.2 17.85 17.6 18.05 18.2 18.1 18.4 18.0 18.5 17.95 18.2" fill="#d9ffff" fill-rule="evenodd" stroke="none"/>
      <path d="M19.3 16.7 L19.4 16.6 19.4 16.85 19.15 17.1 19.15 17.2 19.05 17.55 19.0 16.95 19.3 16.7" fill="#d7ffff" fill-rule="evenodd" stroke="none"/>
      <path d="M18.4 17.05 L18.4 17.0 18.55 16.85 18.6 17.4 18.7 17.65 18.85 18.25 18.85 18.55 18.8 19.3 18.65 19.1 18.65 19.05 18.7 18.5 18.7 18.25 18.45 17.5 18.4 17.05" fill="#ddffff" fill-rule="evenodd" stroke="none"/>
      <path d="M19.6 15.15 L21.1 15.7 21.35 15.85 21.35 15.9 21.3 15.9 21.05 15.75 19.9 15.35 19.6 15.25 19.6 15.15" fill="#0480fa" fill-rule="evenodd" stroke="none"/>
      <path d="M21.05 15.75 L21.3 15.9 21.35 15.9 22.35 16.55 22.4 16.6 22.2 16.6 21.85 16.7 21.55 16.8 20.85 16.35 20.85 16.3 20.95 16.1 21.05 15.75" fill="#0c6dff" fill-rule="evenodd" stroke="none"/>
      <path d="M21.35 15.9 L21.35 15.85 21.9 16.15 22.35 16.4 22.6 16.6 23.0 16.85 22.9 17.0 22.9 17.05 22.8 16.9 22.4 16.6 22.35 16.55 21.35 15.9" fill="#18d4ff" fill-rule="evenodd" stroke="none"/>
      <path d="M19.5 15.0 L19.6 15.05 Q20.25 15.15 21.15 15.6 L21.35 15.7 22.4 16.3 22.35 16.4 21.9 16.15 21.35 15.85 21.1 15.7 19.6 15.15 19.5 15.15 19.5 15.0" fill="#061fd1" fill-rule="evenodd" stroke="none"/>
      <path d="M21.95 18.2 L22.0 18.05 22.05 17.7 22.05 17.6 22.0 17.55 21.95 17.45 21.75 17.2 21.7 17.1 21.35 16.85 21.15 16.7 20.8 16.5 19.75 16.15 19.7 16.0 20.5 16.25 20.85 16.4 21.25 16.65 21.5 16.8 21.65 16.95 21.75 17.0 21.85 17.15 22.0 17.35 22.1 17.5 22.2 17.65 22.25 17.75 22.15 18.15 22.05 18.3 21.95 18.2 M19.6 15.15 L19.6 15.25 19.6 15.5 19.6 15.55 19.5 15.15 19.6 15.15" fill="#001ecc" fill-rule="evenodd" stroke="none"/>
      <path d="M19.6 15.25 L19.9 15.35 21.05 15.75 20.95 16.1 20.85 16.3 20.85 16.35 20.65 16.25 19.65 15.8 19.65 15.75 19.65 15.7 19.6 15.55 19.6 15.5 19.6 15.25" fill="#0268ff" fill-rule="evenodd" stroke="none"/>
      <path d="M19.75 16.15 L20.4 18.1 20.15 18.0 19.6 16.1 19.5 15.8 19.6 15.8 19.65 15.8 19.65 15.75 19.65 15.8 19.7 16.0 19.75 16.15" fill="#0028c8" fill-rule="evenodd" stroke="none"/>
      <path d="M20.15 18.0 L19.95 17.9 19.6 17.7 19.6 17.4 19.8 17.45 19.45 16.0 19.45 15.85 19.4 15.85 19.45 15.85 19.5 15.8 19.6 16.1 20.15 18.0" fill="#feffff" fill-rule="evenodd" stroke="none"/>
      <path d="M19.65 15.8 L20.65 16.25 20.85 16.35 21.55 16.8 21.75 16.9 21.75 17.0 21.65 16.95 21.5 16.8 21.25 16.65 20.85 16.4 20.5 16.25 19.7 16.0 19.65 15.8" fill="#21afff" fill-rule="evenodd" stroke="none"/>
      <path d="M19.6 17.7 L19.55 17.7 19.4 18.05 19.3 18.25 19.3 18.4 19.45 18.85 19.3 19.75 19.15 20.85 19.0 20.75 19.0 20.7 19.0 20.65 19.15 19.7 19.2 19.35 19.25 19.05 19.05 18.4 19.05 18.35 19.1 18.25 19.15 18.15 19.15 18.05 19.4 17.45 19.45 17.4 19.6 17.4 19.6 17.7" fill="#e8ffff" fill-rule="evenodd" stroke="none"/>
      <path d="M21.75 16.9 L21.55 16.8 21.85 16.7 22.2 16.6 22.4 16.6 22.8 16.9 22.9 17.05 23.0 17.1 23.05 17.2 23.15 17.6 23.15 17.65 23.15 17.9 22.85 17.75 22.75 17.75 22.3 17.55 22.1 17.25 21.95 17.0 21.75 16.9" fill="#0091f7" fill-rule="evenodd" stroke="none"/>
      <path d="M21.75 17.0 L21.75 16.9 21.95 17.0 22.1 17.25 22.3 17.55 22.35 17.6 22.2 17.65 22.1 17.5 22.0 17.35 21.85 17.15 21.75 17.0" fill="#0dc5ff" fill-rule="evenodd" stroke="none"/>
      <path d="M22.4 16.3 L22.9 16.6 22.95 16.65 23.05 16.7 23.55 17.05 24.05 17.7 24.2 17.9 24.65 18.55 24.2 18.35 24.0 18.0 23.5 17.3 23.4 17.2 23.0 16.85 22.6 16.6 22.35 16.4 22.4 16.3" fill="#08258d" fill-rule="evenodd" stroke="none"/>
      <path d="M23.15 17.6 L23.05 17.2 23.0 17.1 22.9 17.05 22.9 17.0 23.0 16.85 23.4 17.2 23.5 17.3 24.0 18.0 23.95 18.0 23.85 18.05 23.7 17.75 23.35 17.35 23.35 17.4 23.35 17.7 23.15 17.6" fill="#00e9ff" fill-rule="evenodd" stroke="none"/>
      <path d="M23.35 17.7 L23.35 17.4 23.35 17.35 23.7 17.75 23.85 18.05 24.0 18.3 23.75 18.45 23.7 18.3 23.35 17.75 23.35 17.7" fill="#01a3f8" fill-rule="evenodd" stroke="none"/>
      <path d="M24.0 18.0 L24.2 18.35 24.25 18.4 23.8 18.65 23.35 18.8 23.4 18.7 23.4 18.65 23.75 18.45 24.0 18.3 23.85 18.05 23.95 18.0 24.0 18.0" fill="#0de8ff" fill-rule="evenodd" stroke="none"/>
      <path d="M23.15 17.9 L23.15 17.65 23.15 17.6 23.35 17.7 23.35 17.75 23.3 18.05 23.25 18.25 22.8 18.5 22.7 18.5 22.65 18.35 23.0 18.2 23.15 17.9 M23.05 18.8 L23.4 18.7 23.35 18.8 23.15 18.9 22.85 18.95 22.8 19.0 22.7 19.0 22.25 19.1 22.2 19.1 21.75 19.15 22.05 19.05 22.3 19.05 22.55 19.0 23.05 18.8" fill="#18efff" fill-rule="evenodd" stroke="none"/>
      <path d="M23.35 17.75 L23.7 18.3 23.75 18.45 23.4 18.65 23.4 18.7 23.05 18.8 22.7 18.55 22.65 18.55 22.7 18.5 22.8 18.5 23.25 18.25 23.3 18.05 23.35 17.75" fill="#04a9ff" fill-rule="evenodd" stroke="none"/>
      <path d="M24.65 18.55 L24.7 18.6 23.9 18.9 23.45 19.05 23.35 19.05 22.7 19.2 22.7 19.0 22.8 19.0 22.85 18.95 23.15 18.9 23.35 18.8 23.8 18.65 24.25 18.4 24.2 18.35 24.65 18.55" fill="#0009ad" fill-rule="evenodd" stroke="none"/>
      <path d="M22.3 17.55 L22.75 17.75 22.85 17.75 23.15 17.9 23.0 18.2 22.65 18.35 22.6 18.35 22.5 18.4 22.2 18.2 22.4 17.7 22.35 17.6 22.3 17.55" fill="#02b7ff" fill-rule="evenodd" stroke="none"/>
      <path d="M22.35 17.6 L22.4 17.7 22.2 18.2 21.9 18.6 22.0 18.4 22.05 18.3 22.15 18.15 22.25 17.75 22.2 17.65 22.35 17.6" fill="#66f3ff" fill-rule="evenodd" stroke="none"/>
      <path d="M21.15 18.7 L21.2 18.7 21.7 18.6 21.95 18.2 22.05 18.3 22.0 18.4 21.9 18.6 21.9 18.65 21.85 18.8 21.8 18.85 21.55 18.85 21.35 18.9 21.15 18.9 21.15 18.7" fill="#a5ffff" fill-rule="evenodd" stroke="none"/>
      <path d="M22.7 19.2 L22.15 19.3 22.05 19.3 22.2 19.1 22.25 19.1 22.7 19.0 22.7 19.2" fill="#000f9a" fill-rule="evenodd" stroke="none"/>
      <path d="M22.65 18.55 L22.7 18.55 23.05 18.8 22.55 19.0 22.3 19.05 22.05 19.05 21.75 19.15 21.6 19.15 21.5 19.15 21.45 19.15 21.35 18.9 21.55 18.85 21.8 18.85 21.85 18.8 22.5 18.6 22.65 18.55" fill="#00cefd" fill-rule="evenodd" stroke="none"/>
      <path d="M22.7 18.5 L22.65 18.55 22.5 18.6 21.85 18.8 21.9 18.65 22.5 18.4 22.6 18.35 22.65 18.35 22.7 18.5" fill="#16e6f0" fill-rule="evenodd" stroke="none"/>
      <path d="M22.2 18.2 L22.5 18.4 21.9 18.65 21.9 18.6 22.2 18.2" fill="#11b5f4" fill-rule="evenodd" stroke="none"/>
      <path d="M22.05 19.3 L21.65 19.35 21.6 19.15 21.75 19.15 22.2 19.1 22.05 19.3" fill="#abfbff" fill-rule="evenodd" stroke="none"/>
      <path d="M20.55 19.05 L20.8 18.75 20.9 18.75 21.15 18.7 21.15 18.9 20.85 18.95 20.65 19.2 20.55 19.05" fill="#e4fbff" fill-rule="evenodd" stroke="none"/>
      <path d="M20.65 19.2 L20.85 18.95 21.15 18.9 21.35 18.9 21.45 19.15 21.2 19.1 21.15 19.4 21.05 19.8 21.05 19.95 21.05 20.0 21.2 20.15 20.8 20.2 20.7 20.1 20.65 20.0 20.35 19.55 20.65 19.2" fill="#01fafe" fill-rule="evenodd" stroke="none"/>
      <path d="M19.9 20.05 L20.3 19.4 20.55 19.05 20.65 19.2 20.35 19.55 20.15 19.8 19.95 20.1 19.9 20.05" fill="#cdffff" fill-rule="evenodd" stroke="none"/>
      <path d="M19.95 20.1 L20.15 19.8 20.35 19.55 20.65 20.0 20.7 20.1 20.8 20.2 20.65 20.2 20.6 20.25 20.25 20.4 19.6 20.7 19.65 20.6 19.95 20.1" fill="#00fcff" fill-rule="evenodd" stroke="none"/>
      <path d="M21.3 19.55 L21.25 19.7 21.25 19.75 21.2 19.75 21.2 19.8 21.55 20.25 20.95 20.3 20.9 20.3 20.8 20.3 20.7 20.35 20.3 20.5 20.25 20.4 20.6 20.25 20.65 20.2 20.8 20.2 21.2 20.15 21.05 20.0 21.05 19.95 21.05 19.8 21.15 19.4 21.25 19.5 21.3 19.55" fill="#a1eaff" fill-rule="evenodd" stroke="none"/>
      <path d="M20.95 22.8 L22.0 22.2 Q22.25 22.05 22.6 21.85 L22.65 21.9 22.7 22.05 22.1 22.35 Q21.55 22.6 20.95 22.95 L20.95 22.8" fill="#12f0ff" fill-rule="evenodd" stroke="none"/>
      <path d="M20.95 23.1 L20.85 23.15 19.65 23.6 20.95 22.95 20.95 23.1" fill="#12d6ff" fill-rule="evenodd" stroke="none"/>
      <path d="M22.25 22.7 L21.85 22.85 20.95 23.2 19.15 23.95 18.95 24.05 18.85 23.9 18.9 23.9 19.65 23.6 20.85 23.15 20.95 23.1 22.2 22.55 22.25 22.7" fill="#003adf" fill-rule="evenodd" stroke="none"/>
      <path d="M20.95 23.1 L20.95 22.95 Q21.55 22.6 22.1 22.35 L22.2 22.55 20.95 23.1" fill="#00bffc" fill-rule="evenodd" stroke="none"/>
      <path d="M22.6 21.85 L23.1 21.55 23.35 21.4 23.55 21.25 23.55 21.3 22.65 21.9 22.6 21.85 M24.5 21.1 L24.25 21.4 23.65 22.2 22.25 22.7 22.2 22.55 22.75 22.25 23.35 22.0 23.65 21.85 23.85 21.6 24.1 21.3 24.45 20.95 24.5 21.1" fill="#002ccf" fill-rule="evenodd" stroke="none"/>
      <path d="M24.45 20.95 L24.1 21.3 23.85 21.6 23.65 21.85 23.35 22.0 23.75 21.55 24.05 21.2 23.65 21.45 23.6 21.5 23.0 21.9 22.95 21.95 22.7 22.05 22.65 21.9 23.55 21.3 24.95 20.4 24.45 20.95" fill="#0de4ff" fill-rule="evenodd" stroke="none"/>
      <path d="M23.55 21.25 L24.15 20.85 25.35 20.0 24.5 21.1 24.45 20.95 24.95 20.4 23.55 21.3 23.55 21.25" fill="#001b93" fill-rule="evenodd" stroke="none"/>
      <path d="M23.35 22.0 L22.75 22.25 22.7 22.05 22.95 21.95 23.0 21.9 23.6 21.5 23.65 21.45 24.05 21.2 23.75 21.55 23.35 22.0" fill="#097ef2" fill-rule="evenodd" stroke="none"/>
      <path d="M22.75 22.25 L22.2 22.55 22.1 22.35 22.7 22.05 22.75 22.25" fill="#007bf3" fill-rule="evenodd" stroke="none"/>
      <path d="M19.1 18.25 L19.05 18.35 19.05 18.4 19.25 19.05 19.2 19.35 19.15 19.7 18.65 19.55 18.7 19.55 18.75 19.4 18.8 19.3 18.85 18.55 18.85 18.25 19.1 18.25" fill="#01fbf9" fill-rule="evenodd" stroke="none"/>
      <path d="M17.5 18.2 L17.95 18.2 18.0 18.5 18.1 18.4 18.05 18.2 18.35 18.25 18.7 18.25 18.7 18.5 18.65 19.05 18.65 19.1 18.55 19.35 18.4 19.4 18.15 19.35 18.15 19.4 17.85 19.3 17.65 18.7 17.5 18.2" fill="#03fcfe" fill-rule="evenodd" stroke="none"/>
      <path d="M14.85 22.15 L15.55 22.55 17.3 23.45 17.35 23.5 18.15 23.55 17.75 23.8 17.65 23.85 17.2 23.55 17.0 23.4 15.5 22.55 15.35 22.5 14.4 21.95 14.85 22.15 M18.1 20.9 L17.7 19.25 17.5 18.5 17.15 17.9 17.05 17.75 17.05 17.55 17.4 17.75 17.5 18.2 17.65 18.7 17.85 19.3 18.1 20.35 18.25 21.0 18.1 20.9" fill="#dbffff" fill-rule="evenodd" stroke="none"/>
      <path d="M19.15 19.7 L19.0 20.65 19.0 20.7 18.8 21.8 18.7 22.5 18.55 22.25 18.5 22.1 18.25 21.0 18.1 20.35 17.85 19.3 18.15 19.4 18.15 19.5 18.4 20.05 18.5 20.25 18.55 20.5 18.6 21.05 18.65 20.75 18.65 20.5 18.65 20.45 18.65 20.35 18.5 19.65 18.65 19.55 19.15 19.7" fill="#00fbff" fill-rule="evenodd" stroke="none"/>
      <path d="M16.6 18.55 L16.8 19.0 17.0 19.55 17.1 19.75 16.85 19.75 16.7 19.35 16.6 19.15 16.4 18.75 16.6 18.55" fill="#7affff" fill-rule="evenodd" stroke="none"/>
      <path d="M17.1 19.75 L17.3 20.2 17.4 20.5 16.75 20.2 16.45 20.05 16.5 19.95 16.7 20.05 17.05 20.15 16.85 19.75 17.1 19.75" fill="#ceffff" fill-rule="evenodd" stroke="none"/>
      <path d="M14.7 19.25 L14.05 18.95 14.5 18.9 14.55 18.95 14.8 19.15 14.7 19.25 M18.65 19.1 L18.8 19.3 18.75 19.4 18.7 19.55 18.65 19.55 18.5 19.65 18.65 20.35 18.65 20.45 18.65 20.5 18.65 20.75 18.6 21.05 18.55 20.5 18.5 20.25 18.4 20.05 18.15 19.5 18.15 19.4 18.15 19.35 18.4 19.4 18.55 19.35 18.65 19.1" fill="#e9ffff" fill-rule="evenodd" stroke="none"/>
      <path d="M16.25 18.5 L16.4 18.75 16.6 19.15 16.4 19.35 15.95 19.75 15.9 19.7 14.8 19.15 14.55 18.95 14.95 18.9 15.25 18.7 15.4 18.55 15.85 18.5 16.25 18.5" fill="#00fdff" fill-rule="evenodd" stroke="none"/>
      <path d="M14.8 18.8 L14.9 18.75 15.1 18.65 15.2 18.6 15.2 18.55 15.15 18.5 15.0 18.45 14.75 18.4 14.85 18.25 15.2 18.35 15.4 18.35 15.4 18.45 15.4 18.55 15.25 18.7 14.95 18.9 14.85 18.85 14.8 18.8" fill="#edffff" fill-rule="evenodd" stroke="none"/>
      <path d="M16.45 20.05 L15.9 19.8 14.7 19.25 14.8 19.15 15.9 19.7 15.95 19.75 16.5 19.95 16.45 20.05 M14.5 18.9 L14.8 18.8 14.85 18.85 14.95 18.9 14.55 18.95 14.5 18.9" fill="#73ebfc" fill-rule="evenodd" stroke="none"/>
      <path d="M15.95 19.75 L16.4 19.35 16.6 19.15 16.7 19.35 16.85 19.75 17.05 20.15 16.7 20.05 16.5 19.95 15.95 19.75" fill="#04fbff" fill-rule="evenodd" stroke="none"/>
      <path d="M17.75 23.8 L17.7 23.85 17.5 23.95 17.3 23.75 17.25 23.75 15.3 22.85 15.5 22.55 17.0 23.4 17.2 23.55 17.65 23.85 17.75 23.8" fill="#4be1ff" fill-rule="evenodd" stroke="none"/>
      <path d="M19.15 20.85 L19.1 21.1 18.9 22.25 18.85 22.75 18.7 23.65 18.6 23.15 18.6 23.05 18.1 21.0 18.1 20.9 18.25 21.0 18.5 22.1 18.55 22.25 18.7 22.5 18.8 21.8 19.0 20.7 19.0 20.75 19.15 20.85" fill="#f3ffff" fill-rule="evenodd" stroke="none"/>
    </g>
  </defs>
</svg>
