<?xml version="1.0" encoding="UTF-8" standalone="no"?>
<svg xmlns:ffdec="https://www.free-decompiler.com/flash" xmlns:xlink="http://www.w3.org/1999/xlink" ffdec:objectType="frame" height="30.0px" width="30.05px" xmlns="http://www.w3.org/2000/svg">
  <g transform="matrix(1.0, 0.0, 0.0, 1.0, 0.0, 0.0)">
    <use ffdec:characterId="1" height="30.0" transform="matrix(1.0, 0.0, 0.0, 1.0, 0.0, 0.0)" width="30.05" xlink:href="#shape0"/>
  </g>
  <defs>
    <g id="shape0" transform="matrix(1.0, 0.0, 0.0, 1.0, 0.0, 0.0)">
      <path d="M0.0 0.0 L30.0 0.0 30.0 30.0 0.0 30.0 0.0 0.0" fill="#33cc66" fill-opacity="0.0" fill-rule="evenodd" stroke="none"/>
      <path d="M0.0 3.3 Q0.0 0.0 3.3 0.0 L26.7 0.0 Q30.0 0.0 30.0 3.3 L30.0 26.7 Q30.0 30.0 26.7 30.0 L3.3 30.0 Q0.0 30.0 0.0 26.7 L0.0 3.3" fill="#6699cc" fill-rule="evenodd" stroke="none"/>
      <path d="M13.95 7.2 L15.2 6.65 15.45 6.55 16.3 6.9 16.85 6.75 18.0 6.4 18.95 5.95 19.1 6.3 17.75 6.9 16.8 7.3 16.6 7.35 16.45 7.35 15.4 6.9 14.45 7.3 14.2 7.2 13.95 7.2" fill="#08f5ff" fill-rule="evenodd" stroke="none"/>
      <path d="M13.8 6.85 L15.3 6.2 16.45 6.55 17.8 6.15 Q18.25 5.95 18.85 5.7 L19.3 5.45 19.6 5.25 19.7 5.6 19.55 5.75 18.95 5.95 18.0 6.4 16.85 6.75 16.3 6.9 15.45 6.55 15.2 6.65 13.95 7.2 13.8 7.15 13.8 6.85 M14.1 19.75 L12.3 20.2 12.05 20.0 14.05 19.6 14.1 19.75" fill="#03d7ec" fill-rule="evenodd" stroke="none"/>
      <path d="M14.45 7.3 L15.4 6.9 16.45 7.35 16.6 7.35 16.8 7.3 18.55 8.2 18.65 8.25 19.0 8.4 20.75 9.5 20.5 9.9 20.1 9.95 18.95 10.2 18.2 10.55 17.5 10.25 17.25 10.15 17.25 10.1 16.05 9.7 Q15.15 9.35 14.45 9.15 L14.85 8.85 14.75 7.8 15.55 8.05 15.2 7.55 14.45 7.3" fill="#02daff" fill-rule="evenodd" stroke="none"/>
      <path d="M16.8 7.3 L17.75 6.9 19.1 6.3 19.7 5.9 20.3 6.45 20.65 6.85 21.1 7.4 21.6 8.05 21.3 8.65 21.15 8.95 20.9 9.25 20.75 9.5 19.0 8.4 18.65 8.25 18.55 8.2 16.8 7.3" fill="#00c1ff" fill-rule="evenodd" stroke="none"/>
      <path d="M13.8 7.15 L13.95 7.2 14.2 7.2 14.45 7.3 15.2 7.55 15.55 8.05 14.75 7.8 14.4 7.65 13.9 7.5 13.35 7.45 12.8 7.3 12.6 7.25 12.6 7.15 12.55 7.0 13.15 7.15 13.7 7.3 13.9 7.35 13.85 7.25 13.8 7.15" fill="#01f9ff" fill-rule="evenodd" stroke="none"/>
      <path d="M10.9 6.25 L11.6 6.35 12.55 6.6 13.8 6.85 13.8 7.15 13.85 7.25 13.9 7.35 13.7 7.3 13.15 7.15 12.55 7.0 11.95 6.8 11.3 6.65 11.1 6.65 10.9 6.25" fill="#005be5" fill-rule="evenodd" stroke="none"/>
      <path d="M12.6 7.25 L12.8 7.3 13.35 7.45 13.9 7.5 14.4 7.65 14.4 8.6 14.4 8.7 14.15 9.05 13.95 8.8 13.0 8.8 12.7 7.65 12.65 7.35 12.6 7.25" fill="#04d7ff" fill-rule="evenodd" stroke="none"/>
      <path d="M14.4 7.65 L14.75 7.8 14.85 8.85 14.45 9.15 14.3 9.2 13.4 10.1 14.1 9.1 14.15 9.1 14.15 9.05 14.4 8.7 14.4 8.6 14.4 7.65 M12.15 15.65 L12.85 15.75 13.35 15.85 Q13.0 16.8 13.05 17.55 L12.15 15.65 M13.35 18.1 L13.3 18.0 13.25 17.85 13.35 18.1" fill="#04fbff" fill-rule="evenodd" stroke="none"/>
      <path d="M13.4 10.1 L14.3 9.2 14.45 9.15 Q15.15 9.35 16.05 9.7 14.45 10.55 12.3 11.85 L11.05 12.6 9.6 13.55 9.15 12.25 10.75 11.75 11.2 11.55 11.2 11.6 11.6 11.75 12.1 11.3 12.8 10.65 12.85 10.65 12.9 10.6 12.95 10.6 13.2 10.35 13.25 10.35 13.25 10.25 13.4 10.1 M10.15 11.05 L10.2 10.9 10.5 11.25 10.15 11.05" fill="#14f3f2" fill-rule="evenodd" stroke="none"/>
      <path d="M13.0 8.8 L13.95 8.8 14.15 9.05 14.15 9.1 14.1 9.1 13.4 10.1 13.25 10.25 13.25 10.35 13.2 10.35 12.95 10.6 12.9 10.6 12.85 10.65 12.8 10.65 12.05 11.0 11.95 11.05 11.5 11.25 11.3 11.2 10.25 10.75 11.3 8.75 13.0 8.8" fill="#03f3ff" fill-rule="evenodd" stroke="none"/>
      <path d="M17.25 10.15 L17.5 10.25 18.2 10.55 16.65 11.45 15.95 12.05 17.25 10.15" fill="#00e5f8" fill-rule="evenodd" stroke="none"/>
      <path d="M11.05 12.6 L12.3 11.85 Q14.45 10.55 16.05 9.7 L17.25 10.1 17.25 10.15 15.95 12.05 15.9 12.1 14.45 11.95 15.65 12.3 14.15 14.2 13.85 14.7 13.35 15.85 12.85 15.75 12.15 15.65 11.4 13.7 11.05 12.6" fill="#01faff" fill-rule="evenodd" stroke="none"/>
      <path d="M12.55 7.0 L12.6 7.15 12.6 7.25 12.65 7.35 12.7 7.65 13.0 8.8 11.3 8.75 11.5 8.3 11.65 7.85 11.9 7.05 11.6 6.95 11.1 6.85 9.45 6.5 8.9 6.4 8.85 6.1 9.5 6.25 10.3 6.45 11.1 6.65 11.3 6.65 11.95 6.8 12.55 7.0" fill="#04d8fd" fill-rule="evenodd" stroke="none"/>
      <path d="M6.95 5.75 L7.25 5.55 7.8 5.65 8.5 5.8 8.8 5.85 10.15 6.1 10.9 6.25 11.1 6.65 10.3 6.45 9.5 6.25 8.85 6.1 8.5 6.1 7.55 5.85 6.95 5.75" fill="#0041f8" fill-rule="evenodd" stroke="none"/>
      <path d="M11.1 6.85 L11.6 6.95 11.9 7.05 11.65 7.85 11.5 8.3 11.3 8.75 11.0 8.75 10.8 8.65 10.75 8.65 10.35 8.6 10.1 8.6 9.8 8.2 11.1 6.85" fill="#00d0fb" fill-rule="evenodd" stroke="none"/>
      <path d="M7.55 5.85 L8.5 6.1 8.85 6.1 8.9 6.4 7.85 6.35 6.65 7.0 6.45 6.65 7.55 5.85" fill="#09fef9" fill-rule="evenodd" stroke="none"/>
      <path d="M8.9 6.4 L9.45 6.5 9.4 7.05 8.8 7.15 8.75 7.2 7.7 7.45 7.6 7.45 6.85 7.85 6.1 7.45 6.65 7.0 7.85 6.35 8.9 6.4" fill="#008cf3" fill-rule="evenodd" stroke="none"/>
      <path d="M9.45 6.5 L11.1 6.85 9.8 8.2 8.75 7.2 8.8 7.15 9.4 7.05 9.45 6.5" fill="#00c2f8" fill-rule="evenodd" stroke="none"/>
      <path d="M7.6 7.45 L7.7 7.45 8.75 7.2 9.8 8.2 8.6 9.3 8.6 9.25 8.6 9.15 8.65 9.05 8.65 9.0 8.7 8.15 8.55 8.65 8.45 8.75 8.45 8.8 8.3 9.25 7.65 9.3 7.6 7.45" fill="#04acff" fill-rule="evenodd" stroke="none"/>
      <path d="M8.3 9.25 L8.45 8.8 8.45 8.75 8.55 8.65 8.7 8.15 8.65 9.0 8.65 9.05 8.6 9.15 8.6 9.25 8.6 9.3 8.55 10.0 8.75 10.45 8.75 10.65 8.8 10.8 8.8 11.0 8.9 11.15 8.95 11.4 8.55 11.15 8.55 11.05 8.55 11.0 8.5 10.85 8.3 9.9 8.25 9.7 8.2 9.5 8.3 9.35 8.3 9.25" fill="#b4ffff" fill-rule="evenodd" stroke="none"/>
      <path d="M8.3 9.25 L8.3 9.35 8.2 9.5 8.25 9.7 8.3 9.9 7.55 11.4 7.1 12.1 6.75 12.6 5.85 12.85 5.7 12.45 5.15 10.5 5.05 10.0 5.0 9.35 5.15 9.35 6.85 9.25 7.65 9.3 8.3 9.25" fill="#00caff" fill-rule="evenodd" stroke="none"/>
      <path d="M9.8 8.2 L10.1 8.6 10.35 8.6 10.75 8.65 10.8 8.65 11.0 8.75 11.3 8.75 10.25 10.75 9.9 10.7 10.2 10.9 10.15 11.05 9.75 10.75 9.7 10.7 9.2 10.4 9.1 10.3 8.8 10.15 8.85 9.95 8.6 9.3 9.8 8.2" fill="#01e9fd" fill-rule="evenodd" stroke="none"/>
      <path d="M8.8 11.0 L8.8 10.8 8.75 10.65 8.75 10.45 8.55 10.0 8.6 9.3 8.85 9.95 8.8 10.15 9.1 10.3 9.2 10.4 9.7 10.7 9.75 10.75 8.8 11.0" fill="#04a6e7" fill-rule="evenodd" stroke="none"/>
      <path d="M8.95 11.4 L8.9 11.15 8.8 11.0 9.75 10.75 10.15 11.05 10.5 11.25 10.7 11.4 10.5 11.5 9.1 11.85 8.95 11.4" fill="#08b5fa" fill-rule="evenodd" stroke="none"/>
      <path d="M8.3 9.9 L8.5 10.85 8.55 11.0 8.55 11.05 8.55 11.15 8.6 11.45 8.75 12.0 9.05 13.25 8.85 13.95 7.1 12.1 7.55 11.4 8.3 9.9" fill="#00f2fd" fill-rule="evenodd" stroke="none"/>
      <path d="M12.8 10.65 L12.1 11.3 11.95 11.05 12.05 11.0 12.8 10.65 M11.2 11.6 L11.2 11.55 10.75 11.75 10.5 11.5 10.7 11.4 10.5 11.25 10.2 10.9 9.9 10.7 10.25 10.75 11.3 11.2 11.2 11.6" fill="#c2ffff" fill-rule="evenodd" stroke="none"/>
      <path d="M12.1 11.3 L11.6 11.75 11.2 11.6 11.3 11.2 11.5 11.25 11.95 11.05 12.1 11.3" fill="#e3fffd" fill-rule="evenodd" stroke="none"/>
      <path d="M9.6 13.55 L11.05 12.6 11.4 13.7 12.15 15.65 13.05 17.55 13.1 17.9 13.25 17.85 13.3 18.0 13.35 18.1 13.9 19.35 12.55 19.6 11.6 19.7 10.1 18.5 8.8 17.35 8.0 16.7 7.35 16.15 7.2 15.55 8.1 15.75 9.75 16.1 12.2 16.4 11.45 15.75 10.15 14.6 10.0 14.4 9.65 13.7 9.6 13.55" fill="#00f4fd" fill-rule="evenodd" stroke="none"/>
      <path d="M10.75 11.75 L9.15 12.25 9.1 11.85 10.5 11.5 10.75 11.75" fill="#beffff" fill-rule="evenodd" stroke="none"/>
      <path d="M9.15 12.25 L9.6 13.55 9.65 13.7 10.0 14.4 10.15 14.6 11.45 15.75 12.2 16.4 9.75 16.1 8.1 15.75 7.2 15.15 6.7 14.75 6.1 14.35 5.6 13.95 5.45 13.85 5.25 13.65 4.65 13.15 4.0 12.6 4.8 13.15 Q5.1 13.25 5.35 13.45 L5.45 13.55 5.55 13.6 5.7 13.7 5.85 13.8 6.75 14.3 7.15 14.55 7.4 14.65 7.55 14.6 8.1 14.45 8.6 14.15 8.8 14.05 8.8 14.0 8.85 13.95 9.05 13.25 8.75 12.0 8.6 11.45 8.55 11.15 8.95 11.4 9.1 11.85 9.15 12.25" fill="#f9fffd" fill-rule="evenodd" stroke="none"/>
      <path d="M8.85 13.95 L8.8 14.0 8.8 14.05 8.6 14.15 8.1 14.45 7.55 14.6 7.4 14.65 7.15 14.55 6.75 14.3 5.85 13.8 5.7 13.7 5.55 13.6 5.5 13.55 5.0 13.15 5.2 13.05 5.85 12.85 6.75 12.6 7.1 12.1 8.85 13.95" fill="#01ecff" fill-rule="evenodd" stroke="none"/>
      <path d="M7.2 15.55 L7.35 16.15 8.0 16.7 8.8 17.35 9.15 18.2 8.0 17.15 7.15 16.35 6.9 16.1 6.75 15.5 6.75 15.4 6.85 15.45 7.2 15.55" fill="#92ffff" fill-rule="evenodd" stroke="none"/>
      <path d="M15.95 12.05 L16.65 11.45 16.7 11.7 16.75 11.8 16.8 12.1 16.6 12.35 15.8 13.55 15.6 13.95 Q15.2 14.7 15.15 15.65 L14.3 15.1 14.15 14.95 13.85 14.7 14.15 14.2 15.65 12.3 15.9 12.1 15.95 12.05" fill="#0460a3" fill-rule="evenodd" stroke="none"/>
      <path d="M16.8 12.1 L16.85 12.1 17.15 11.7 Q17.7 11.3 18.45 11.0 L18.3 11.55 18.25 11.95 18.15 12.4 17.55 12.75 17.15 13.1 16.8 13.5 16.2 14.5 15.95 13.9 15.8 13.55 16.6 12.35 16.8 12.1" fill="#0f93e6" fill-rule="evenodd" stroke="none"/>
      <path d="M18.2 10.55 L18.95 10.2 20.1 9.95 19.6 10.8 19.25 10.8 18.85 10.8 18.85 10.85 18.45 11.0 Q17.7 11.3 17.15 11.7 L16.85 12.1 16.8 12.1 16.75 11.8 16.7 11.7 16.65 11.45 18.2 10.55" fill="#0568a9" fill-rule="evenodd" stroke="none"/>
      <path d="M15.65 12.3 L14.45 11.95 15.9 12.1 15.65 12.3" fill="#8effff" fill-rule="evenodd" stroke="none"/>
      <path d="M15.8 13.55 L15.95 13.9 16.2 14.5 16.0 15.4 15.95 16.05 15.95 16.2 16.0 16.85 15.4 16.15 15.3 16.05 15.1 15.75 15.15 15.65 Q15.2 14.7 15.6 13.95 L15.8 13.55" fill="#16aaf4" fill-rule="evenodd" stroke="none"/>
      <path d="M16.8 13.5 L17.15 13.1 17.55 12.75 18.15 12.4 18.25 12.4 18.8 12.15 18.9 12.1 19.4 12.0 19.65 11.95 19.65 12.15 19.6 13.6 19.35 13.7 18.5 13.85 18.3 13.85 18.25 13.85 18.0 13.85 17.95 13.85 17.15 13.7 17.15 13.85 16.8 13.5" fill="#1ecefd" fill-rule="evenodd" stroke="none"/>
      <path d="M17.15 13.85 L17.15 13.7 17.95 13.85 18.0 13.85 18.25 13.85 18.3 13.85 18.5 14.3 18.75 14.7 19.0 15.1 Q18.4 15.55 18.1 16.3 L17.95 16.75 17.95 16.85 17.7 16.85 17.45 16.8 17.1 16.75 17.3 15.75 17.3 15.55 17.3 15.35 17.3 14.95 17.15 13.85" fill="#2fe1ff" fill-rule="evenodd" stroke="none"/>
      <path d="M16.0 15.4 L16.2 14.5 16.8 13.5 17.15 13.85 17.3 14.95 17.3 15.35 17.3 15.55 17.2 15.55 17.0 15.5 16.0 15.4" fill="#29d1ff" fill-rule="evenodd" stroke="none"/>
      <path d="M13.35 15.85 L13.85 14.7 14.15 14.95 14.3 15.1 15.15 15.65 15.1 15.75 15.1 16.15 15.2 17.45 13.25 17.85 13.1 17.9 13.05 17.55 Q13.0 16.8 13.35 15.85" fill="#00629f" fill-rule="evenodd" stroke="none"/>
      <path d="M15.1 15.75 L15.3 16.05 15.4 16.15 16.0 16.85 16.05 17.15 16.1 17.45 16.2 18.0 16.2 18.05 16.2 18.1 15.8 18.3 15.4 18.45 15.2 17.45 15.1 16.15 15.1 15.75" fill="#1fb7f6" fill-rule="evenodd" stroke="none"/>
      <path d="M16.0 16.85 L15.95 16.2 15.95 16.05 16.0 15.4 17.0 15.5 17.2 15.55 17.3 15.55 17.3 15.75 17.1 16.75 17.05 16.9 16.65 17.75 16.5 18.05 16.3 18.25 16.2 18.05 16.2 18.0 16.1 17.45 16.05 17.15 16.0 16.85 M17.95 16.85 L17.95 16.75 18.1 16.3 Q18.4 15.55 19.0 15.1 19.25 14.9 19.6 14.75 L19.85 14.65 20.75 14.5 20.8 14.6 20.75 17.05 20.6 17.65 19.05 17.45 17.85 17.15 17.95 16.85" fill="#40e8f5" fill-rule="evenodd" stroke="none"/>
      <path d="M17.1 16.75 L17.45 16.8 17.7 16.85 17.95 16.85 17.85 17.15 17.95 18.35 17.2 18.95 16.5 18.85 16.1 18.85 16.0 18.8 15.95 18.85 15.75 18.85 15.6 18.85 16.15 18.45 16.3 18.25 16.5 18.05 16.65 17.75 17.05 16.9 17.1 16.75" fill="#20d4f9" fill-rule="evenodd" stroke="none"/>
      <path d="M2.75 9.6 L3.75 8.55 4.85 7.6 6.25 6.35 6.95 5.75 7.55 5.85 6.45 6.65 4.8 8.0 2.95 9.8 2.75 9.6" fill="#002bf0" fill-rule="evenodd" stroke="none"/>
      <path d="M6.1 7.45 L6.85 7.85 7.6 7.45 7.65 9.3 6.85 9.25 5.15 9.35 5.0 9.35 4.85 8.5 6.1 7.45" fill="#03a3ff" fill-rule="evenodd" stroke="none"/>
      <path d="M6.65 7.0 L6.1 7.45 4.85 8.5 4.65 8.7 3.05 10.4 2.95 10.35 2.7 10.1 2.95 9.8 4.8 8.0 6.45 6.65 6.65 7.0" fill="#0cbbff" fill-rule="evenodd" stroke="none"/>
      <path d="M3.05 10.4 L4.65 8.7 4.85 8.5 5.0 9.35 5.05 10.0 5.15 10.5 3.6 10.7 3.05 10.4" fill="#0096ff" fill-rule="evenodd" stroke="none"/>
      <path d="M3.8 12.9 L2.05 11.3 1.6 10.7 2.45 9.9 2.75 9.6 2.95 9.8 2.7 10.1 2.1 10.75 2.65 11.3 3.6 12.25 3.85 12.5 3.8 12.9" fill="#003bed" fill-rule="evenodd" stroke="none"/>
      <path d="M2.7 10.1 L2.95 10.35 3.05 10.4 2.75 10.75 2.85 10.75 3.3 11.4 2.65 11.3 2.1 10.75 2.7 10.1" fill="#00dbfa" fill-rule="evenodd" stroke="none"/>
      <path d="M5.15 10.5 L5.7 12.45 5.85 12.85 5.2 13.05 5.0 13.15 3.6 11.7 3.3 11.4 2.85 10.75 2.75 10.75 3.05 10.4 3.6 10.7 5.15 10.5" fill="#0198ff" fill-rule="evenodd" stroke="none"/>
      <path d="M5.55 13.6 L5.45 13.55 5.35 13.45 Q5.1 13.25 4.8 13.15 L4.0 12.6 3.85 12.5 3.6 12.25 2.65 11.3 3.3 11.4 3.6 11.7 5.0 13.15 5.5 13.55 5.55 13.6" fill="#10d8ff" fill-rule="evenodd" stroke="none"/>
      <path d="M5.3 14.25 L5.5 14.4 6.75 15.4 6.75 15.5 6.7 15.55 6.15 15.55 5.95 15.55 4.95 15.55 4.85 15.0 4.85 14.8 4.85 14.65 5.15 14.3 5.3 14.25" fill="#01d4ff" fill-rule="evenodd" stroke="none"/>
      <path d="M4.85 13.85 L4.75 13.75 4.05 13.15 3.8 12.9 3.85 12.5 4.0 12.6 4.65 13.15 5.25 13.65 5.45 13.85 5.6 13.95 6.1 14.35 5.5 14.4 5.3 14.25 5.1 14.05 4.85 13.85" fill="#0075f8" fill-rule="evenodd" stroke="none"/>
      <path d="M6.1 14.35 L6.7 14.75 7.2 15.15 8.1 15.75 7.2 15.55 6.85 15.45 6.75 15.4 5.5 14.4 6.1 14.35" fill="#16a5e1" fill-rule="evenodd" stroke="none"/>
      <path d="M4.25 15.4 L4.2 14.95 4.15 14.15 4.75 13.85 4.85 13.85 5.1 14.05 5.0 14.1 4.65 14.4 4.6 14.45 4.55 14.55 4.6 15.0 4.65 15.55 4.25 15.4" fill="#006ee7" fill-rule="evenodd" stroke="none"/>
      <path d="M5.3 14.25 L5.15 14.3 5.0 14.1 5.1 14.05 5.3 14.25" fill="#17e7ff" fill-rule="evenodd" stroke="none"/>
      <path d="M5.15 14.3 L4.85 14.65 4.85 14.8 4.85 15.0 4.6 15.0 4.55 14.55 4.6 14.45 4.65 14.4 5.0 14.1 5.15 14.3" fill="#0ce9ff" fill-rule="evenodd" stroke="none"/>
      <path d="M4.85 15.0 L4.95 15.55 4.95 16.0 5.45 19.15 5.05 19.0 5.05 18.75 4.75 16.25 4.65 15.55 4.6 15.0 4.85 15.0" fill="#0addff" fill-rule="evenodd" stroke="none"/>
      <path d="M4.9 19.9 L4.75 19.0 4.75 18.9 4.5 17.6 4.3 15.55 4.25 15.4 4.65 15.55 4.75 16.25 5.05 18.75 5.05 19.0 5.1 19.45 5.15 20.0 4.9 19.9" fill="#0021f0" fill-rule="evenodd" stroke="none"/>
      <path d="M4.95 15.55 L5.95 15.55 6.15 15.55 6.7 15.55 6.75 15.5 6.9 16.1 7.15 16.35 6.85 16.75 6.65 17.2 6.5 17.4 5.9 18.8 5.7 19.6 5.5 19.6 5.45 19.15 4.95 16.0 4.95 15.55" fill="#03c1fb" fill-rule="evenodd" stroke="none"/>
      <path d="M7.15 16.35 L8.0 17.15 8.05 17.95 8.05 18.15 8.1 18.4 8.2 19.1 8.35 20.2 7.35 20.05 6.5 19.85 6.45 19.85 6.1 19.75 6.05 19.75 5.7 19.6 5.9 18.8 6.5 17.4 6.65 17.2 6.85 16.75 7.15 16.35" fill="#06c3ff" fill-rule="evenodd" stroke="none"/>
      <path d="M5.7 19.6 L6.05 19.75 6.1 19.75 6.2 20.15 6.1 20.15 5.6 20.1 5.6 20.05 5.15 20.0 5.1 19.45 5.05 19.0 5.45 19.15 5.5 19.6 5.7 19.6" fill="#03e9ff" fill-rule="evenodd" stroke="none"/>
      <path d="M6.1 19.75 L6.45 19.85 6.5 19.85 7.35 20.05 8.35 20.2 8.8 20.2 9.15 20.5 8.4 20.45 7.85 20.4 7.3 20.35 6.6 20.25 6.5 20.25 6.4 20.25 6.2 20.15 6.1 19.75" fill="#28dcff" fill-rule="evenodd" stroke="none"/>
      <path d="M6.15 20.5 L5.5 20.35 5.0 20.25 4.9 19.9 5.15 20.0 5.6 20.05 5.6 20.1 6.1 20.15 6.2 20.15 6.4 20.25 6.45 20.45 6.25 20.5 6.15 20.5" fill="#0036e1" fill-rule="evenodd" stroke="none"/>
      <path d="M10.5 20.55 L10.8 21.15 11.85 22.5 11.95 22.7 12.1 22.8 13.0 23.35 13.7 23.75 15.5 24.7 15.6 24.75 15.3 24.85 15.15 24.75 12.8 23.45 12.05 23.0 11.9 22.9 11.7 22.7 10.7 21.25 10.15 20.55 10.5 20.55 M6.6 22.75 L6.55 22.65 6.4 21.65 6.2 20.7 6.15 20.5 6.25 20.5 6.45 20.45 6.55 20.5 6.65 21.0 6.7 21.25 6.75 21.35 6.7 21.5 6.9 22.7 6.95 22.9 6.6 22.75" fill="#002fec" fill-rule="evenodd" stroke="none"/>
      <path d="M6.45 20.45 L6.4 20.25 6.5 20.25 6.6 20.25 7.3 20.35 7.85 20.4 8.4 20.45 9.15 20.5 9.45 20.75 9.4 20.75 8.4 20.7 7.35 20.6 6.7 20.5 6.55 20.5 6.45 20.45" fill="#14a7ff" fill-rule="evenodd" stroke="none"/>
      <path d="M6.7 20.5 L7.35 20.6 8.4 20.7 9.4 20.75 7.5 21.2 7.35 21.2 6.9 21.35 6.7 20.5 M9.45 20.75 L9.15 20.5 9.95 20.55 10.0 20.6 9.45 20.75" fill="#0abaff" fill-rule="evenodd" stroke="none"/>
      <path d="M6.55 20.5 L6.7 20.5 6.9 21.35 6.95 21.65 7.25 22.65 7.5 23.5 8.1 23.85 8.15 24.25 7.6 24.05 7.15 23.9 6.95 22.9 6.9 22.7 6.7 21.5 6.75 21.35 6.7 21.25 6.65 21.0 6.55 20.5" fill="#15deff" fill-rule="evenodd" stroke="none"/>
      <path d="M7.5 21.2 L7.6 21.6 7.65 21.7 8.2 22.7 8.9 23.05 8.8 24.2 8.1 23.85 7.5 23.5 7.25 22.65 6.95 21.65 6.9 21.35 7.35 21.2 7.5 21.2" fill="#0089ff" fill-rule="evenodd" stroke="none"/>
      <path d="M9.4 20.75 L9.45 20.75 10.0 20.6 10.55 21.45 9.9 22.1 9.7 22.35 9.1 23.2 8.9 23.05 8.2 22.7 7.65 21.7 7.6 21.6 7.5 21.2 9.4 20.75" fill="#01befe" fill-rule="evenodd" stroke="none"/>
      <path d="M7.65 24.4 L7.2 24.3 6.8 24.1 6.75 23.75 6.6 22.75 6.95 22.9 7.15 23.9 7.6 24.05 7.65 24.4" fill="#0022cf" fill-rule="evenodd" stroke="none"/>
      <path d="M15.3 24.85 L14.65 25.0 12.8 25.45 12.75 25.45 12.0 25.65 10.8 25.4 10.7 25.35 9.1 24.85 8.8 24.8 8.1 24.55 7.65 24.4 7.6 24.05 8.15 24.25 8.8 24.45 10.75 25.05 11.3 25.25 11.6 25.35 15.15 24.75 15.3 24.85" fill="#001aad" fill-rule="evenodd" stroke="none"/>
      <path d="M18.3 19.75 L17.9 19.3 17.35 19.0 17.2 18.95 17.95 18.35 17.95 18.4 18.45 18.75 18.55 18.8 18.75 18.9 19.15 19.05 18.9 19.35 18.85 19.4 18.3 19.75" fill="#27e2ff" fill-rule="evenodd" stroke="none"/>
      <path d="M17.2 18.95 L17.35 19.0 17.9 19.3 18.3 19.75 18.5 20.1 18.55 20.35 18.4 21.05 18.25 21.0 17.75 20.75 17.0 20.15 16.9 19.95 16.65 19.4 16.55 19.1 16.5 18.85 17.2 18.95" fill="#1ecdff" fill-rule="evenodd" stroke="none"/>
      <path d="M15.4 18.45 L15.8 18.3 16.2 18.1 16.2 18.05 16.3 18.25 16.15 18.45 15.6 18.85 15.75 18.85 15.95 18.85 15.65 18.9 15.55 18.95 15.5 18.95 15.05 19.05 15.05 18.9 15.0 18.6 15.4 18.45" fill="#18b3f6" fill-rule="evenodd" stroke="none"/>
      <path d="M16.5 18.85 L16.55 19.1 15.6 19.2 15.6 19.1 15.55 19.0 15.5 18.95 15.55 18.95 15.65 18.9 15.95 18.85 16.0 18.8 16.1 18.85 16.5 18.85" fill="#26b5f1" fill-rule="evenodd" stroke="none"/>
      <path d="M14.85 20.9 L14.25 19.95 14.1 19.75 14.05 19.6 13.9 19.35 13.35 18.1 13.25 17.85 15.2 17.45 15.4 18.45 15.0 18.6 14.75 18.7 13.9 18.95 13.9 19.0 13.9 19.1 14.05 19.3 14.05 19.35 14.6 19.15 15.05 19.05 15.5 18.95 15.55 19.0 15.6 19.1 15.6 19.2 15.65 19.45 15.9 20.1 16.0 20.4 15.45 20.6 14.85 20.9" fill="#03619e" fill-rule="evenodd" stroke="none"/>
      <path d="M20.4 22.95 L19.2 23.05 17.75 22.85 17.25 22.6 15.9 21.85 15.55 21.5 14.85 20.9 15.45 20.6 16.0 20.4 16.05 20.5 Q16.6 21.25 17.7 22.0 L17.75 22.0 17.85 22.05 18.5 22.4 20.4 22.95" fill="#025889" fill-rule="evenodd" stroke="none"/>
      <path d="M16.55 19.1 L16.65 19.4 16.9 19.95 17.0 20.15 17.75 20.75 18.25 21.0 18.4 21.05 18.45 21.1 18.05 21.65 17.75 22.0 17.7 22.0 Q16.6 21.25 16.05 20.5 L16.0 20.4 15.9 20.1 15.65 19.45 15.6 19.2 16.55 19.1" fill="#189fd9" fill-rule="evenodd" stroke="none"/>
      <path d="M15.05 19.05 L14.6 19.15 14.05 19.35 14.05 19.3 13.9 19.1 13.9 19.0 13.9 18.95 14.75 18.7 15.0 18.6 15.05 18.9 15.05 19.05" fill="#0976ae" fill-rule="evenodd" stroke="none"/>
      <path d="M11.6 19.7 L12.55 19.6 13.9 19.35 14.05 19.6 12.05 20.0 11.6 19.7" fill="#70ffff" fill-rule="evenodd" stroke="none"/>
      <path d="M12.3 20.2 L12.4 20.3 12.0 20.45 10.5 20.55 10.15 20.55 9.95 20.55 9.15 20.5 8.8 20.2 8.65 20.15 9.0 20.05 9.45 19.85 9.6 19.8 9.85 19.65 9.8 19.6 9.8 19.55 9.7 19.3 9.5 18.95 9.15 18.2 8.8 17.35 10.1 18.5 11.6 19.7 12.05 20.0 12.3 20.2" fill="#ecfff7" fill-rule="evenodd" stroke="none"/>
      <path d="M8.0 17.15 L9.15 18.2 9.5 18.95 9.7 19.3 9.8 19.55 9.8 19.6 9.85 19.65 9.6 19.8 9.45 19.85 9.0 20.05 8.65 20.15 8.8 20.2 8.35 20.2 8.2 19.1 8.1 18.4 8.05 18.15 8.05 17.95 8.0 17.15" fill="#00ecf9" fill-rule="evenodd" stroke="none"/>
      <path d="M10.55 21.45 L10.0 20.6 9.95 20.55 10.15 20.55 10.7 21.25 11.7 22.7 12.1 23.65 10.55 21.45" fill="#8ef6ff" fill-rule="evenodd" stroke="none"/>
      <path d="M9.1 23.2 L9.7 22.35 9.9 22.1 10.55 21.45 12.1 23.65 12.1 23.7 11.6 23.9 10.8 24.05 9.4 23.35 9.1 23.2" fill="#00c4f6" fill-rule="evenodd" stroke="none"/>
      <path d="M8.9 23.05 L9.1 23.2 9.4 23.35 10.8 24.05 11.6 23.9 12.1 23.7 12.55 24.7 11.9 25.0 11.6 25.15 10.6 24.85 8.8 24.2 8.9 23.05" fill="#0680fd" fill-rule="evenodd" stroke="none"/>
      <path d="M12.1 23.7 L12.1 23.65 11.7 22.7 11.9 22.9 12.05 23.0 12.8 23.45 15.15 24.75 11.6 25.35 11.3 25.25 11.6 25.15 11.9 25.0 12.55 24.7 12.1 23.7" fill="#d6fff9" fill-rule="evenodd" stroke="none"/>
      <path d="M8.15 24.25 L8.1 23.85 8.8 24.2 10.6 24.85 11.6 25.15 11.3 25.25 10.75 25.05 8.8 24.45 8.15 24.25" fill="#10d1ff" fill-rule="evenodd" stroke="none"/>
      <path d="M19.6 5.25 L20.1 5.0 21.05 4.35 21.65 4.45 23.2 4.75 23.15 5.05 23.05 5.05 21.95 4.9 20.85 4.9 20.65 4.95 19.85 5.5 19.7 5.6 19.6 5.25" fill="#004ee5" fill-rule="evenodd" stroke="none"/>
      <path d="M18.95 5.95 L19.55 5.75 19.7 5.6 19.85 5.5 20.65 4.95 20.85 4.9 21.95 4.9 23.05 5.05 23.15 5.05 23.2 5.05 23.1 5.3 22.1 5.15 20.95 5.15 20.85 5.2 20.5 5.45 20.4 5.5 19.7 5.9 19.1 6.3 18.95 5.95" fill="#1de7ff" fill-rule="evenodd" stroke="none"/>
      <path d="M21.6 8.05 L21.1 7.4 20.65 6.85 20.3 6.45 19.7 5.9 20.4 5.5 20.5 5.45 20.85 5.2 20.95 5.15 22.1 5.15 22.3 5.7 22.4 5.8 23.5 7.8 22.95 7.85 21.7 7.95 21.6 8.05" fill="#04b1ff" fill-rule="evenodd" stroke="none"/>
      <path d="M23.2 4.75 L23.3 4.8 24.0 5.0 25.25 5.2 25.55 5.3 26.05 5.4 26.0 5.7 23.65 5.1 23.2 5.05 23.15 5.05 23.2 4.75" fill="#004ce6" fill-rule="evenodd" stroke="none"/>
      <path d="M23.1 5.3 L23.2 5.05 23.65 5.1 26.0 5.7 26.95 5.95 26.95 6.0 27.3 7.35 27.65 8.15 27.15 7.95 26.9 7.9 26.1 8.1 25.75 8.15 24.7 8.2 24.5 8.2 23.65 8.25 23.1 8.3 23.05 8.25 22.95 7.85 23.5 7.8 25.15 7.7 26.15 7.2 25.8 6.1 23.8 5.4 23.15 5.3 23.1 5.3" fill="#11f5ff" fill-rule="evenodd" stroke="none"/>
      <path d="M28.4 9.35 L28.5 9.45 28.4 9.4 27.85 9.1 27.4 8.85 27.05 8.7 26.75 8.5 26.4 8.45 24.9 8.45 24.75 8.45 24.7 8.2 25.75 8.15 26.75 8.15 26.85 8.1 28.4 9.35" fill="#0876ff" fill-rule="evenodd" stroke="none"/>
      <path d="M28.75 9.55 L28.4 9.35 26.85 8.1 26.75 8.15 25.75 8.15 26.1 8.1 26.9 7.9 27.15 7.95 27.65 8.15 27.3 7.35 26.95 6.0 27.35 6.85 28.3 8.65 28.75 9.55" fill="#b1fffd" fill-rule="evenodd" stroke="none"/>
      <path d="M26.05 5.4 L27.05 5.7 29.05 9.85 28.8 9.7 28.75 9.55 28.3 8.65 27.35 6.85 26.95 6.0 26.95 5.95 26.0 5.7 26.05 5.4" fill="#0052e3" fill-rule="evenodd" stroke="none"/>
      <path d="M22.1 5.15 L23.1 5.3 23.15 5.3 23.8 5.4 25.8 6.1 26.15 7.2 25.15 7.7 23.5 7.8 22.4 5.8 22.3 5.7 22.1 5.15" fill="#00a5fe" fill-rule="evenodd" stroke="none"/>
      <path d="M24.75 8.45 L23.75 8.5 23.7 8.5 23.2 8.55 22.05 8.7 21.9 8.75 21.2 9.8 20.9 9.85 21.0 9.65 21.3 9.1 21.35 8.95 21.4 8.95 21.65 8.45 21.65 8.4 21.8 8.4 23.1 8.3 23.65 8.25 24.5 8.2 24.7 8.2 24.75 8.45" fill="#0095ea" fill-rule="evenodd" stroke="none"/>
      <path d="M21.15 8.95 L21.3 8.65 21.6 8.05 21.7 7.95 22.95 7.85 23.05 8.25 23.1 8.3 21.8 8.4 21.65 8.4 21.65 8.45 21.4 8.95 21.35 8.95 21.3 9.1 21.15 8.95" fill="#0fe6ff" fill-rule="evenodd" stroke="none"/>
      <path d="M23.4 10.5 L23.5 10.55 23.7 10.65 23.85 10.8 24.4 11.6 24.6 11.9 25.05 12.65 24.95 12.65 24.1 12.05 23.5 11.75 22.55 11.35 22.2 11.2 21.9 11.15 22.05 11.05 Q22.65 10.75 23.4 10.5" fill="#148fdc" fill-rule="evenodd" stroke="none"/>
      <path d="M18.45 11.0 L18.85 10.85 18.85 10.8 19.25 10.8 19.6 10.8 19.95 10.8 20.25 10.85 20.5 10.85 21.9 11.15 22.2 11.2 22.55 11.35 22.3 11.55 21.65 12.0 19.8 11.95 19.65 11.95 19.4 12.0 18.9 12.1 18.8 12.15 18.25 12.4 18.15 12.4 18.25 11.95 18.3 11.55 18.45 11.0" fill="#0f9ff8" fill-rule="evenodd" stroke="none"/>
      <path d="M21.2 9.8 L21.25 9.8 21.7 9.75 Q22.5 10.05 23.4 10.5 22.65 10.75 22.05 11.05 L21.9 11.15 20.5 10.85 20.25 10.85 19.95 10.8 19.6 10.8 20.1 9.95 20.5 9.9 20.9 9.85 21.2 9.8" fill="#1882d0" fill-rule="evenodd" stroke="none"/>
      <path d="M20.75 9.5 L20.9 9.25 21.15 8.95 21.3 9.1 21.0 9.65 20.9 9.85 20.5 9.9 20.75 9.5" fill="#6fffff" fill-rule="evenodd" stroke="none"/>
      <path d="M19.6 13.6 L19.65 12.15 19.65 11.95 19.8 11.95 21.65 12.0 21.95 12.05 22.35 12.15 22.15 12.7 21.9 13.25 21.6 13.4 20.95 13.5 20.4 13.4 19.85 13.2 19.8 13.3 19.6 13.6" fill="#1eceff" fill-rule="evenodd" stroke="none"/>
      <path d="M21.9 13.25 L22.15 12.7 22.35 12.15 Q23.3 12.45 24.05 13.05 L24.85 13.9 24.9 14.4 23.0 15.1 22.75 14.65 22.6 13.35 22.7 13.15 22.15 13.05 21.9 13.25" fill="#25d1ff" fill-rule="evenodd" stroke="none"/>
      <path d="M24.95 12.65 L24.95 12.7 25.15 12.9 25.3 13.0 24.05 13.05 Q23.3 12.45 22.35 12.15 L21.95 12.05 21.65 12.0 22.3 11.55 22.55 11.35 23.5 11.75 24.1 12.05 24.95 12.65" fill="#0ca7fa" fill-rule="evenodd" stroke="none"/>
      <path d="M20.95 13.5 L21.6 13.4 21.9 13.25 22.15 13.05 22.7 13.15 22.6 13.35 22.75 14.65 23.0 15.1 23.15 15.35 22.5 15.75 22.25 15.35 Q21.9 14.9 21.4 14.65 L20.75 14.5 20.85 14.0 20.95 13.5" fill="#25e2ff" fill-rule="evenodd" stroke="none"/>
      <path d="M18.3 13.85 L18.5 13.85 19.35 13.7 19.6 13.6 19.8 13.3 19.85 13.2 20.4 13.4 20.95 13.5 20.85 14.0 20.75 14.5 19.85 14.65 19.6 14.75 Q19.25 14.9 19.0 15.1 L18.75 14.7 18.5 14.3 18.3 13.85" fill="#36e1f3" fill-rule="evenodd" stroke="none"/>
      <path d="M19.15 19.05 L18.75 18.9 18.55 18.8 18.45 18.75 17.95 18.4 17.95 18.35 17.85 17.15 19.05 17.45 20.6 17.65 20.0 19.25 19.2 19.1 19.15 19.05" fill="#2debf9" fill-rule="evenodd" stroke="none"/>
      <path d="M23.0 15.1 L24.9 14.4 24.95 14.7 24.95 16.2 23.65 16.55 23.3 16.6 23.3 16.5 Q23.3 16.1 23.45 15.75 L23.15 15.35 23.0 15.1 M20.75 14.5 L21.4 14.65 Q21.9 14.9 22.25 15.35 L22.5 15.75 22.75 16.35 22.85 16.6 22.7 17.75 21.15 17.7 20.6 17.65 20.75 17.05 20.8 14.6 20.75 14.5" fill="#30e5f0" fill-rule="evenodd" stroke="none"/>
      <path d="M22.5 15.75 L23.15 15.35 23.45 15.75 Q23.3 16.1 23.3 16.5 L23.3 16.6 23.4 17.35 23.65 17.75 23.4 17.8 22.65 17.9 22.7 17.75 22.85 16.6 22.75 16.35 22.5 15.75" fill="#20e3f5" fill-rule="evenodd" stroke="none"/>
      <path d="M25.3 13.0 L25.6 13.4 26.1 14.6 26.4 15.6 26.45 15.7 26.3 15.75 25.8 16.0 25.75 15.85 25.25 16.05 24.95 16.2 24.95 14.7 24.9 14.4 24.85 13.9 24.05 13.05 25.3 13.0" fill="#20bfdf" fill-rule="evenodd" stroke="none"/>
      <path d="M23.65 17.75 L23.4 17.35 23.3 16.6 23.65 16.55 24.95 16.2 24.85 17.1 24.65 17.8 24.45 18.35 24.05 18.25 23.85 18.05 23.65 17.75" fill="#29d2ff" fill-rule="evenodd" stroke="none"/>
      <path d="M24.85 17.1 L24.95 16.2 25.25 16.05 25.75 15.85 25.8 16.0 25.95 17.25 25.65 17.2 24.85 17.1" fill="#15c2fa" fill-rule="evenodd" stroke="none"/>
      <path d="M26.45 15.7 L26.65 16.75 26.7 17.5 26.7 17.55 26.7 17.7 26.65 17.75 26.05 17.7 25.85 17.7 25.95 17.25 25.8 16.0 26.3 15.75 26.45 15.7" fill="#08b8ff" fill-rule="evenodd" stroke="none"/>
      <path d="M24.85 17.1 L25.65 17.2 25.95 17.25 25.85 17.7 25.7 18.25 25.35 18.85 25.2 18.75 24.75 18.45 24.65 18.4 24.45 18.35 24.65 17.8 24.85 17.1" fill="#159eef" fill-rule="evenodd" stroke="none"/>
      <path d="M25.35 18.85 L25.7 18.25 25.85 17.7 26.05 17.7 26.65 17.75 26.05 19.0 26.0 19.1 25.4 19.9 24.4 20.8 24.35 20.75 24.2 20.45 23.95 20.15 25.35 18.85" fill="#0789df" fill-rule="evenodd" stroke="none"/>
      <path d="M26.65 17.75 L26.75 17.75 26.6 19.1 26.4 19.75 25.05 21.6 24.95 21.5 24.4 20.8 25.4 19.9 26.0 19.1 26.05 19.0 26.65 17.75" fill="#0c7cc4" fill-rule="evenodd" stroke="none"/>
      <path d="M24.45 18.35 L24.65 18.4 24.75 18.45 25.2 18.75 25.35 18.85 23.95 20.15 23.6 19.7 24.45 18.35" fill="#17aefd" fill-rule="evenodd" stroke="none"/>
      <path d="M22.65 17.9 L23.4 17.8 23.65 17.75 23.85 18.05 24.05 18.25 24.25 18.5 23.95 18.5 23.3 18.55 23.0 18.75 23.55 19.6 23.2 19.8 22.55 20.3 21.85 19.9 21.45 19.85 21.45 19.3 21.45 18.95 Q22.25 18.65 22.65 17.95 L22.65 17.9" fill="#26e0f9" fill-rule="evenodd" stroke="none"/>
      <path d="M23.55 19.6 L23.0 18.75 23.3 18.55 23.95 18.5 24.25 18.5 24.05 18.25 24.45 18.35 23.6 19.7 23.55 19.6" fill="#23bbff" fill-rule="evenodd" stroke="none"/>
      <path d="M25.05 21.6 L25.3 21.85 24.95 22.0 24.75 21.8 24.65 21.75 23.95 21.2 23.65 21.0 23.1 20.65 22.9 20.5 22.7 20.4 22.55 20.3 23.2 19.8 23.55 19.6 23.6 19.7 23.95 20.15 24.2 20.45 24.35 20.75 24.4 20.8 24.95 21.5 25.05 21.6" fill="#1dabf5" fill-rule="evenodd" stroke="none"/>
      <path d="M24.75 21.8 L24.35 22.1 24.25 22.1 23.25 22.55 Q21.8 23.1 20.4 22.95 L20.55 22.7 20.8 22.2 22.1 21.9 23.65 21.0 23.95 21.2 24.65 21.75 24.75 21.8" fill="#1076b8" fill-rule="evenodd" stroke="none"/>
      <path d="M22.9 20.5 L23.1 20.65 23.65 21.0 22.1 21.9 20.8 22.2 20.95 21.9 21.1 21.3 22.2 21.0 22.5 20.85 22.9 20.5" fill="#14a0ef" fill-rule="evenodd" stroke="none"/>
      <path d="M22.7 17.75 L22.65 17.9 22.65 17.95 Q22.25 18.65 21.45 18.95 L21.3 19.05 21.0 19.1 20.0 19.25 20.6 17.65 21.15 17.7 22.7 17.75" fill="#3be7eb" fill-rule="evenodd" stroke="none"/>
      <path d="M18.3 19.75 L18.85 19.4 18.9 19.35 19.15 19.05 19.2 19.1 20.0 19.25 21.0 19.1 21.3 19.05 21.45 18.95 21.45 19.3 21.45 19.85 21.1 19.8 20.9 19.8 19.4 20.1 18.75 20.4 18.6 20.5 18.55 20.35 18.5 20.1 18.3 19.75" fill="#23dffc" fill-rule="evenodd" stroke="none"/>
      <path d="M18.4 21.05 L18.55 20.35 18.6 20.5 18.75 20.4 19.4 20.1 20.9 19.8 20.6 20.6 20.25 21.4 18.45 21.1 18.4 21.05" fill="#1fc7f6" fill-rule="evenodd" stroke="none"/>
      <path d="M22.55 20.3 L22.7 20.4 22.9 20.5 22.5 20.85 22.2 21.0 21.1 21.3 20.25 21.4 20.6 20.6 20.9 19.8 21.1 19.8 21.45 19.85 21.85 19.9 22.55 20.3" fill="#1ac9ff" fill-rule="evenodd" stroke="none"/>
      <path d="M18.45 21.1 L20.25 21.4 21.1 21.3 20.95 21.9 20.8 22.2 Q19.95 22.4 19.45 22.2 L18.05 21.65 18.45 21.1" fill="#1399e0" fill-rule="evenodd" stroke="none"/>
      <path d="M20.4 22.95 L18.5 22.4 17.85 22.05 17.75 22.0 18.05 21.65 19.45 22.2 Q19.95 22.4 20.8 22.2 L20.55 22.7 20.4 22.95" fill="#0979b8" fill-rule="evenodd" stroke="none"/>
      <path d="M13.8 6.85 L15.3 6.2 16.45 6.55 17.8 6.15 Q18.25 5.95 18.85 5.7 L19.3 5.45 19.6 5.25 20.1 5.0 21.05 4.35 21.65 4.45 23.2 4.75 23.3 4.8 24.0 5.0 25.25 5.2 25.55 5.3 26.05 5.4 27.05 5.7 29.05 9.85 28.8 9.7 28.75 9.55 28.4 9.35 28.5 9.45 28.4 9.4 27.85 9.1 27.4 8.85 27.05 8.7 26.75 8.5 26.4 8.45 24.9 8.45 24.75 8.45 23.75 8.5 23.7 8.5 23.2 8.55 22.05 8.7 21.9 8.75 21.2 9.8 21.25 9.8 21.7 9.75 Q22.5 10.05 23.4 10.5 L23.5 10.55 23.7 10.65 23.85 10.8 24.4 11.6 24.6 11.9 25.05 12.65 24.95 12.65 24.95 12.7 25.15 12.9 25.3 13.0 25.6 13.4 26.1 14.6 26.4 15.6 26.45 15.7 26.65 16.75 26.7 17.5 26.7 17.55 26.7 17.7 26.65 17.75 26.75 17.75 26.6 19.1 26.4 19.75 25.05 21.6 25.3 21.85 24.95 22.0 24.75 21.8 24.35 22.1 24.25 22.1 23.25 22.55 Q21.8 23.1 20.4 22.95 L19.2 23.05 17.75 22.85 17.25 22.6 15.9 21.85 15.55 21.5 14.85 20.9 14.25 19.95 14.1 19.75 12.3 20.2 12.4 20.3 12.0 20.45 10.5 20.55 10.8 21.15 11.85 22.5 11.95 22.7 12.1 22.8 13.0 23.35 13.7 23.75 15.5 24.7 15.6 24.75 15.3 24.85 14.65 25.0 12.8 25.45 12.75 25.45 12.0 25.65 10.8 25.4 10.7 25.35 9.1 24.85 8.8 24.8 8.1 24.55 7.65 24.4 7.2 24.3 6.8 24.1 6.75 23.75 6.6 22.75 6.55 22.65 6.4 21.65 6.2 20.7 6.15 20.5 5.5 20.35 5.0 20.25 4.9 19.9 4.75 19.0 4.75 18.9 4.5 17.6 4.3 15.55 4.25 15.4 4.2 14.95 4.15 14.15 4.75 13.85 4.85 13.85 4.75 13.75 4.05 13.15 3.8 12.9 2.05 11.3 1.6 10.7 2.45 9.9 2.75 9.6 3.75 8.55 4.85 7.6 6.25 6.35 6.95 5.75 7.25 5.55 7.8 5.65 8.5 5.8 8.8 5.85 10.15 6.1 10.9 6.25 11.6 6.35 12.55 6.6 13.8 6.85 13.8 7.15 13.95 7.2 15.2 6.65 15.45 6.55 16.3 6.9 16.85 6.75 18.0 6.4 18.95 5.95 19.55 5.75 19.7 5.6 19.6 5.25 M16.8 7.3 L17.75 6.9 19.1 6.3 18.95 5.95 M14.45 7.3 L15.4 6.9 16.45 7.35 16.6 7.35 16.8 7.3 18.55 8.2 18.65 8.25 19.0 8.4 20.75 9.5 20.9 9.25 21.15 8.95 21.3 8.65 21.6 8.05 21.1 7.4 20.65 6.85 20.3 6.45 19.7 5.9 19.1 6.3 M12.6 7.25 L12.8 7.3 13.35 7.45 13.9 7.5 14.4 7.65 14.75 7.8 15.55 8.05 15.2 7.55 14.45 7.3 14.2 7.2 13.95 7.2 M13.8 7.15 L13.85 7.25 13.9 7.35 13.7 7.3 13.15 7.15 12.55 7.0 12.6 7.15 12.6 7.25 12.65 7.35 12.7 7.65 13.0 8.8 13.95 8.8 14.15 9.05 14.4 8.7 14.4 8.6 14.4 7.65 M14.15 9.05 L14.15 9.1 14.1 9.1 13.4 10.1 14.3 9.2 14.45 9.15 14.85 8.85 14.75 7.8 M13.4 10.1 L13.25 10.25 13.25 10.35 13.2 10.35 12.95 10.6 12.9 10.6 12.85 10.65 12.8 10.65 12.1 11.3 11.6 11.75 11.2 11.6 11.2 11.55 10.75 11.75 9.15 12.25 9.6 13.55 11.05 12.6 12.3 11.85 Q14.45 10.55 16.05 9.7 15.15 9.35 14.45 9.15 M17.25 10.15 L17.5 10.25 18.2 10.55 18.95 10.2 20.1 9.95 20.5 9.9 20.75 9.5 M16.05 9.7 L17.25 10.1 17.25 10.15 15.95 12.05 16.65 11.45 18.2 10.55 M8.85 6.1 L9.5 6.25 10.3 6.45 11.1 6.65 10.9 6.25 M12.55 7.0 L11.95 6.8 11.3 6.65 11.1 6.65 M11.1 6.85 L11.6 6.95 11.9 7.05 11.65 7.85 11.5 8.3 11.3 8.75 13.0 8.8 M7.55 5.85 L8.5 6.1 8.85 6.1 8.9 6.4 9.45 6.5 11.1 6.85 9.8 8.2 10.1 8.6 10.35 8.6 10.75 8.65 10.8 8.65 11.0 8.75 11.3 8.75 10.25 10.75 11.3 11.2 11.5 11.25 11.95 11.05 12.05 11.0 12.8 10.65 M8.9 6.4 L7.85 6.35 6.65 7.0 6.1 7.45 6.85 7.85 7.6 7.45 7.7 7.45 8.75 7.2 8.8 7.15 9.4 7.05 9.45 6.5 M9.8 8.2 L8.75 7.2 M8.6 9.3 L8.6 9.25 8.6 9.15 8.65 9.05 8.65 9.0 8.7 8.15 8.55 8.65 8.45 8.75 8.45 8.8 8.3 9.25 8.3 9.35 8.2 9.5 8.25 9.7 8.3 9.9 8.5 10.85 8.55 11.0 8.55 11.05 8.55 11.15 8.95 11.4 8.9 11.15 8.8 11.0 8.8 10.8 8.75 10.65 8.75 10.45 8.55 10.0 8.6 9.3 9.8 8.2 M8.6 9.3 L8.85 9.95 8.8 10.15 9.1 10.3 9.2 10.4 9.7 10.7 9.75 10.75 10.15 11.05 10.2 10.9 9.9 10.7 10.25 10.75 M8.8 11.0 L9.75 10.75 M11.95 11.05 L12.1 11.3 M10.5 11.25 L10.2 10.9 M10.15 11.05 L10.5 11.25 10.7 11.4 10.5 11.5 10.75 11.75 M11.05 12.6 L11.4 13.7 12.15 15.65 12.85 15.75 13.35 15.85 13.85 14.7 14.15 14.2 15.65 12.3 14.45 11.95 15.9 12.1 15.95 12.05 M9.1 11.85 L9.15 12.25 M8.55 11.15 L8.6 11.45 8.75 12.0 9.05 13.25 8.85 13.95 8.8 14.0 8.8 14.05 8.6 14.15 8.1 14.45 7.55 14.6 7.4 14.65 7.15 14.55 6.75 14.3 5.85 13.8 5.7 13.7 5.55 13.6 5.45 13.55 5.35 13.45 Q5.1 13.25 4.8 13.15 L4.0 12.6 4.65 13.15 5.25 13.65 5.45 13.85 5.6 13.95 6.1 14.35 6.7 14.75 7.2 15.15 8.1 15.75 9.75 16.1 12.2 16.4 11.45 15.75 10.15 14.6 10.0 14.4 9.65 13.7 9.6 13.55 M8.95 11.4 L9.1 11.85 10.5 11.5 M7.2 15.55 L7.35 16.15 8.0 16.7 8.8 17.35 10.1 18.5 11.6 19.7 12.55 19.6 13.9 19.35 13.35 18.1 13.3 18.0 13.25 17.85 13.1 17.9 13.05 17.55 12.15 15.65 M16.65 11.45 L16.7 11.7 16.75 11.8 16.8 12.1 16.85 12.1 17.15 11.7 Q17.7 11.3 18.45 11.0 L18.85 10.85 18.85 10.8 19.25 10.8 19.6 10.8 20.1 9.95 M15.8 13.55 L16.6 12.35 16.8 12.1 M15.65 12.3 L15.9 12.1 M16.2 14.5 L15.95 13.9 15.8 13.55 15.6 13.95 Q15.2 14.7 15.15 15.65 L15.1 15.75 15.3 16.05 15.4 16.15 16.0 16.85 15.95 16.2 15.95 16.05 16.0 15.4 16.2 14.5 16.8 13.5 17.15 13.1 17.55 12.75 18.15 12.4 18.25 11.95 18.3 11.55 18.45 11.0 M17.15 13.85 L17.15 13.7 17.95 13.85 18.0 13.85 18.25 13.85 18.3 13.85 18.5 13.85 19.35 13.7 19.6 13.6 19.65 12.15 19.65 11.95 19.4 12.0 18.9 12.1 18.8 12.15 18.25 12.4 18.15 12.4 M16.8 13.5 L17.15 13.85 17.3 14.95 17.3 15.35 17.3 15.55 17.3 15.75 17.1 16.75 17.45 16.8 17.7 16.85 17.95 16.85 17.95 16.75 18.1 16.3 Q18.4 15.55 19.0 15.1 L18.75 14.7 18.5 14.3 18.3 13.85 M15.15 15.65 L14.3 15.1 14.15 14.95 13.85 14.7 M15.1 15.75 L15.1 16.15 15.2 17.45 15.4 18.45 15.8 18.3 16.2 18.1 16.2 18.05 16.2 18.0 16.1 17.45 16.05 17.15 16.0 16.85 M13.05 17.55 Q13.0 16.8 13.35 15.85 M16.0 15.4 L17.0 15.5 17.2 15.55 17.3 15.55 M16.3 18.25 L16.5 18.05 16.65 17.75 17.05 16.9 17.1 16.75 M11.3 11.2 L11.2 11.6 M7.55 5.85 L6.95 5.75 M6.45 6.65 L7.55 5.85 M6.65 7.0 L6.45 6.65 4.8 8.0 2.95 9.8 2.7 10.1 2.95 10.35 3.05 10.4 4.65 8.7 4.85 8.5 6.1 7.45 M5.0 9.35 L5.15 9.35 6.85 9.25 7.65 9.3 7.6 7.45 M4.85 8.5 L5.0 9.35 5.05 10.0 5.15 10.5 5.7 12.45 5.85 12.85 6.75 12.6 7.1 12.1 7.55 11.4 8.3 9.9 M2.75 9.6 L2.95 9.8 M3.05 10.4 L3.6 10.7 5.15 10.5 M3.3 11.4 L2.85 10.75 2.75 10.75 3.05 10.4 M2.65 11.3 L2.1 10.75 2.7 10.1 M5.0 13.15 L5.5 13.55 5.55 13.6 M5.5 14.4 L5.3 14.25 5.15 14.3 4.85 14.65 4.85 14.8 4.85 15.0 4.95 15.55 5.95 15.55 6.15 15.55 6.7 15.55 6.75 15.5 6.75 15.4 5.5 14.4 6.1 14.35 M5.0 13.15 L5.2 13.05 5.85 12.85 M3.3 11.4 L3.6 11.7 5.0 13.15 M3.8 12.9 L3.85 12.5 3.6 12.25 2.65 11.3 3.3 11.4 M5.0 14.1 L4.65 14.4 4.6 14.45 4.55 14.55 4.6 15.0 4.85 15.0 M5.0 14.1 L5.15 14.3 M5.1 14.05 L5.0 14.1 M5.1 14.05 L4.85 13.85 M3.85 12.5 L4.0 12.6 M5.45 19.15 L4.95 16.0 4.95 15.55 M4.65 15.55 L4.25 15.4 M4.65 15.55 L4.6 15.0 M5.05 19.0 L5.05 18.75 4.75 16.25 4.65 15.55 M7.2 15.55 L6.85 15.45 6.75 15.4 M6.75 15.5 L6.9 16.1 7.15 16.35 8.0 17.15 9.15 18.2 8.8 17.35 M7.15 16.35 L6.85 16.75 6.65 17.2 6.5 17.4 5.9 18.8 5.7 19.6 6.05 19.75 6.1 19.75 6.45 19.85 6.5 19.85 7.35 20.05 8.35 20.2 8.2 19.1 8.1 18.4 8.05 18.15 8.05 17.95 8.0 17.15 M5.3 14.25 L5.1 14.05 M5.45 19.15 L5.5 19.6 5.7 19.6 M5.15 20.0 L5.6 20.05 5.6 20.1 6.1 20.15 6.2 20.15 6.1 19.75 M6.45 20.45 L6.25 20.5 6.15 20.5 M6.4 20.25 L6.45 20.45 6.55 20.5 6.7 20.5 7.35 20.6 8.4 20.7 9.4 20.75 9.45 20.75 9.15 20.5 8.4 20.45 7.85 20.4 7.3 20.35 6.6 20.25 6.5 20.25 6.4 20.25 6.2 20.15 M5.15 20.0 L5.1 19.45 5.05 19.0 5.45 19.15 M4.9 19.9 L5.15 20.0 M7.5 21.2 L7.6 21.6 7.65 21.7 8.2 22.7 8.9 23.05 9.1 23.2 9.7 22.35 9.9 22.1 10.55 21.45 10.0 20.6 9.45 20.75 M6.9 21.35 L7.35 21.2 7.5 21.2 9.4 20.75 M8.1 23.85 L7.5 23.5 7.25 22.65 6.95 21.65 6.9 21.35 6.7 20.5 M6.95 22.9 L6.9 22.7 6.7 21.5 6.75 21.35 6.7 21.25 6.65 21.0 6.55 20.5 M6.6 22.75 L6.95 22.9 7.15 23.9 7.6 24.05 8.15 24.25 8.1 23.85 8.8 24.2 8.9 23.05 M7.6 24.05 L7.65 24.4 M17.2 18.95 L17.35 19.0 17.9 19.3 18.3 19.75 18.85 19.4 18.9 19.35 19.15 19.05 18.75 18.9 18.55 18.8 18.45 18.75 17.95 18.4 17.95 18.35 17.2 18.95 16.5 18.85 16.55 19.1 16.65 19.4 16.9 19.95 17.0 20.15 17.75 20.75 18.25 21.0 18.4 21.05 18.55 20.35 18.5 20.1 18.3 19.75 M16.2 18.05 L16.3 18.25 16.15 18.45 15.6 18.85 15.75 18.85 15.95 18.85 16.0 18.8 16.1 18.85 16.5 18.85 M15.5 18.95 L15.55 19.0 15.6 19.1 15.6 19.2 16.55 19.1 M15.95 18.85 L15.65 18.9 15.55 18.95 15.5 18.95 15.05 19.05 14.6 19.15 14.05 19.35 14.05 19.3 13.9 19.1 13.9 19.0 13.9 18.95 14.75 18.7 15.0 18.6 15.4 18.45 M17.75 22.0 L17.7 22.0 Q16.6 21.25 16.05 20.5 L16.0 20.4 15.45 20.6 14.85 20.9 M16.0 20.4 L15.9 20.1 15.65 19.45 15.6 19.2 M15.05 19.05 L15.05 18.9 15.0 18.6 M13.35 18.1 L13.25 17.85 15.2 17.45 M14.05 19.6 L13.9 19.35 M14.1 19.75 L14.05 19.6 12.05 20.0 12.3 20.2 M11.6 19.7 L12.05 20.0 M9.15 18.2 L9.5 18.95 9.7 19.3 9.8 19.55 9.8 19.6 9.85 19.65 9.6 19.8 9.45 19.85 9.0 20.05 8.65 20.15 8.8 20.2 9.15 20.5 9.95 20.55 10.15 20.55 10.5 20.55 M8.8 20.2 L8.35 20.2 M9.95 20.55 L10.0 20.6 M9.1 23.2 L9.4 23.35 10.8 24.05 11.6 23.9 12.1 23.7 12.1 23.65 10.55 21.45 M12.1 23.65 L11.7 22.7 10.7 21.25 10.15 20.55 M11.7 22.7 L11.9 22.9 12.05 23.0 12.8 23.45 15.15 24.75 15.3 24.85 M11.6 25.15 L11.9 25.0 12.55 24.7 12.1 23.7 M8.15 24.25 L8.8 24.45 10.75 25.05 11.3 25.25 11.6 25.15 10.6 24.85 8.8 24.2 M11.3 25.25 L11.6 25.35 15.15 24.75 M8.1 15.75 L7.2 15.55 M7.1 12.1 L8.85 13.95 M7.65 9.3 L8.3 9.25 M19.7 5.9 L20.4 5.5 20.5 5.45 20.85 5.2 20.95 5.15 22.1 5.15 23.1 5.3 23.2 5.05 23.15 5.05 23.05 5.05 21.95 4.9 20.85 4.9 20.65 4.95 19.85 5.5 19.7 5.6 M23.2 5.05 L23.65 5.1 26.0 5.7 26.05 5.4 M23.15 5.05 L23.2 4.75 M26.95 6.0 L27.35 6.85 28.3 8.65 28.75 9.55 M26.95 6.0 L26.95 5.95 26.0 5.7 M25.75 8.15 L26.1 8.1 26.9 7.9 27.15 7.95 27.65 8.15 27.3 7.35 26.95 6.0 M25.75 8.15 L26.75 8.15 26.85 8.1 28.4 9.35 M23.1 5.3 L23.15 5.3 23.8 5.4 25.8 6.1 26.15 7.2 25.15 7.7 23.5 7.8 22.95 7.85 23.05 8.25 23.1 8.3 23.65 8.25 24.5 8.2 24.7 8.2 25.75 8.15 M24.7 8.2 L24.75 8.45 M21.6 8.05 L21.7 7.95 22.95 7.85 M22.1 5.15 L22.3 5.7 22.4 5.8 23.5 7.8 M21.9 11.15 L20.5 10.85 20.25 10.85 19.95 10.8 19.6 10.8 M21.3 9.1 L21.35 8.95 21.4 8.95 21.65 8.45 21.65 8.4 21.8 8.4 23.1 8.3 M20.9 9.85 L21.0 9.65 21.3 9.1 21.15 8.95 M20.9 9.85 L20.5 9.9 M22.55 11.35 L22.2 11.2 21.9 11.15 22.05 11.05 Q22.65 10.75 23.4 10.5 M21.2 9.8 L20.9 9.85 M22.35 12.15 L21.95 12.05 21.65 12.0 19.8 11.95 19.65 11.95 M21.65 12.0 L22.3 11.55 22.55 11.35 23.5 11.75 24.1 12.05 24.95 12.65 M21.9 13.25 L22.15 12.7 22.35 12.15 Q23.3 12.45 24.05 13.05 L25.3 13.0 M19.6 13.6 L19.8 13.3 19.85 13.2 20.4 13.4 20.95 13.5 21.6 13.4 21.9 13.25 22.15 13.05 22.7 13.15 22.6 13.35 22.75 14.65 23.0 15.1 24.9 14.4 24.85 13.9 24.05 13.05 M20.95 13.5 L20.85 14.0 20.75 14.5 21.4 14.65 Q21.9 14.9 22.25 15.35 L22.5 15.75 23.15 15.35 23.0 15.1 M17.95 16.85 L17.85 17.15 19.05 17.45 20.6 17.65 20.75 17.05 20.8 14.6 20.75 14.5 19.85 14.65 19.6 14.75 Q19.25 14.9 19.0 15.1 M22.5 15.75 L22.75 16.35 22.85 16.6 22.7 17.75 22.65 17.9 23.4 17.8 23.65 17.75 23.4 17.35 23.3 16.6 23.3 16.5 Q23.3 16.1 23.45 15.75 L23.15 15.35 M24.95 16.2 L23.65 16.55 23.3 16.6 M24.85 17.1 L24.95 16.2 24.95 14.7 24.9 14.4 M24.95 16.2 L25.25 16.05 25.75 15.85 25.8 16.0 26.3 15.75 26.45 15.7 M25.95 17.25 L25.65 17.2 24.85 17.1 24.65 17.8 24.45 18.35 24.65 18.4 24.75 18.45 25.2 18.75 25.35 18.85 25.7 18.25 25.85 17.7 25.95 17.25 25.8 16.0 M24.4 20.8 L25.4 19.9 26.0 19.1 26.05 19.0 26.65 17.75 26.05 17.7 25.85 17.7 M24.05 18.25 L23.85 18.05 23.65 17.75 M23.55 19.6 L23.0 18.75 23.3 18.55 23.95 18.5 24.25 18.5 24.05 18.25 24.45 18.35 23.6 19.7 23.95 20.15 25.35 18.85 M23.55 19.6 L23.2 19.8 22.55 20.3 22.7 20.4 22.9 20.5 23.1 20.65 23.65 21.0 23.95 21.2 24.65 21.75 24.75 21.8 M23.6 19.7 L23.55 19.6 M23.95 20.15 L24.2 20.45 24.35 20.75 24.4 20.8 24.95 21.5 25.05 21.6 M21.45 18.95 Q22.25 18.65 22.65 17.95 L22.65 17.9 M22.7 17.75 L21.15 17.7 20.6 17.65 20.0 19.25 21.0 19.1 21.3 19.05 21.45 18.95 21.45 19.3 21.45 19.85 21.85 19.9 22.55 20.3 M20.25 21.4 L20.6 20.6 20.9 19.8 19.4 20.1 18.75 20.4 18.6 20.5 18.55 20.35 M20.9 19.8 L21.1 19.8 21.45 19.85 M20.0 19.25 L19.2 19.1 19.15 19.05 M18.45 21.1 L20.25 21.4 21.1 21.3 22.2 21.0 22.5 20.85 22.9 20.5 M18.45 21.1 L18.4 21.05 M18.05 21.65 L18.45 21.1 M17.75 22.0 L17.85 22.05 18.5 22.4 20.4 22.95 20.55 22.7 20.8 22.2 Q19.95 22.4 19.45 22.2 L18.05 21.65 17.75 22.0 M20.8 22.2 L22.1 21.9 23.65 21.0 M20.8 22.2 L20.95 21.9 21.1 21.3 M17.85 17.15 L17.95 18.35" fill="none" stroke="#ffefef" stroke-linecap="round" stroke-linejoin="round" stroke-width="2.0"/>
      <path d="M18.95 5.95 L18.0 6.4 16.85 6.75 16.3 6.9 15.45 6.55 15.2 6.65 13.95 7.2 13.8 7.15 13.8 6.85 15.3 6.2 16.45 6.55 17.8 6.15 Q18.25 5.95 18.85 5.7 L19.3 5.45 19.6 5.25 19.7 5.6 19.55 5.75 18.95 5.95 M14.1 19.75 L12.3 20.2 12.05 20.0 14.05 19.6 14.1 19.75" fill="#03d7ec" fill-rule="evenodd" stroke="none"/>
      <path d="M13.95 7.2 L15.2 6.65 15.45 6.55 16.3 6.9 16.85 6.75 18.0 6.4 18.95 5.95 19.1 6.3 17.75 6.9 16.8 7.3 16.6 7.35 16.45 7.35 15.4 6.9 14.45 7.3 14.2 7.2 13.95 7.2" fill="#08f5ff" fill-rule="evenodd" stroke="none"/>
      <path d="M16.8 7.3 L17.75 6.9 19.1 6.3 19.7 5.9 20.3 6.45 20.65 6.85 21.1 7.4 21.6 8.05 21.3 8.65 21.15 8.95 20.9 9.25 20.75 9.5 19.0 8.4 18.65 8.25 18.55 8.2 16.8 7.3" fill="#00c1ff" fill-rule="evenodd" stroke="none"/>
      <path d="M14.45 7.3 L15.4 6.9 16.45 7.35 16.6 7.35 16.8 7.3 18.55 8.2 18.65 8.25 19.0 8.4 20.75 9.5 20.5 9.9 20.1 9.95 18.95 10.2 18.2 10.55 17.5 10.25 17.25 10.15 17.25 10.1 16.05 9.7 Q15.15 9.35 14.45 9.15 L14.85 8.85 14.75 7.8 15.55 8.05 15.2 7.55 14.45 7.3" fill="#02daff" fill-rule="evenodd" stroke="none"/>
      <path d="M13.95 7.2 L14.2 7.2 14.45 7.3 15.2 7.55 15.55 8.05 14.75 7.8 14.4 7.65 13.9 7.5 13.35 7.45 12.8 7.3 12.6 7.25 12.6 7.15 12.55 7.0 13.15 7.15 13.7 7.3 13.9 7.35 13.85 7.25 13.8 7.15 13.95 7.2" fill="#01f9ff" fill-rule="evenodd" stroke="none"/>
      <path d="M13.8 6.85 L13.8 7.15 13.85 7.25 13.9 7.35 13.7 7.3 13.15 7.15 12.55 7.0 11.95 6.8 11.3 6.65 11.1 6.65 10.9 6.25 11.6 6.35 12.55 6.6 13.8 6.85" fill="#005be5" fill-rule="evenodd" stroke="none"/>
      <path d="M12.6 7.25 L12.8 7.3 13.35 7.45 13.9 7.5 14.4 7.65 14.4 8.6 14.4 8.7 14.15 9.05 13.95 8.8 13.0 8.8 12.7 7.65 12.65 7.35 12.6 7.25" fill="#04d7ff" fill-rule="evenodd" stroke="none"/>
      <path d="M14.4 7.65 L14.75 7.8 14.85 8.85 14.45 9.15 14.3 9.2 13.4 10.1 14.1 9.1 14.15 9.1 14.15 9.05 14.4 8.7 14.4 8.6 14.4 7.65 M12.15 15.65 L12.85 15.75 13.35 15.85 Q13.0 16.8 13.05 17.55 L12.15 15.65 M13.35 18.1 L13.3 18.0 13.25 17.85 13.35 18.1" fill="#04fbff" fill-rule="evenodd" stroke="none"/>
      <path d="M14.15 9.05 L14.15 9.1 14.1 9.1 13.4 10.1 13.25 10.25 13.25 10.35 13.2 10.35 12.95 10.6 12.9 10.6 12.85 10.65 12.8 10.65 12.05 11.0 11.95 11.05 11.5 11.25 11.3 11.2 10.25 10.75 11.3 8.75 13.0 8.8 13.95 8.8 14.15 9.05" fill="#03f3ff" fill-rule="evenodd" stroke="none"/>
      <path d="M13.4 10.1 L14.3 9.2 14.45 9.15 Q15.15 9.35 16.05 9.7 14.45 10.55 12.3 11.85 L11.05 12.6 9.6 13.55 9.15 12.25 10.75 11.75 11.2 11.55 11.2 11.6 11.6 11.75 12.1 11.3 12.8 10.65 12.85 10.65 12.9 10.6 12.95 10.6 13.2 10.35 13.25 10.35 13.25 10.25 13.4 10.1 M10.15 11.05 L10.2 10.9 10.5 11.25 10.15 11.05" fill="#14f3f2" fill-rule="evenodd" stroke="none"/>
      <path d="M11.05 12.6 L12.3 11.85 Q14.45 10.55 16.05 9.7 L17.25 10.1 17.25 10.15 15.95 12.05 15.9 12.1 14.45 11.95 15.65 12.3 14.15 14.2 13.85 14.7 13.35 15.85 12.85 15.75 12.15 15.65 11.4 13.7 11.05 12.6" fill="#01faff" fill-rule="evenodd" stroke="none"/>
      <path d="M17.25 10.15 L17.5 10.25 18.2 10.55 16.65 11.45 15.95 12.05 17.25 10.15" fill="#00e5f8" fill-rule="evenodd" stroke="none"/>
      <path d="M11.1 6.65 L10.3 6.45 9.5 6.25 8.85 6.1 8.5 6.1 7.55 5.85 6.95 5.75 7.25 5.55 7.8 5.65 8.5 5.8 8.8 5.85 10.15 6.1 10.9 6.25 11.1 6.65" fill="#0041f8" fill-rule="evenodd" stroke="none"/>
      <path d="M12.55 7.0 L12.6 7.15 12.6 7.25 12.65 7.35 12.7 7.65 13.0 8.8 11.3 8.75 11.5 8.3 11.65 7.85 11.9 7.05 11.6 6.95 11.1 6.85 9.45 6.5 8.9 6.4 8.85 6.1 9.5 6.25 10.3 6.45 11.1 6.65 11.3 6.65 11.95 6.8 12.55 7.0" fill="#04d8fd" fill-rule="evenodd" stroke="none"/>
      <path d="M11.1 6.85 L11.6 6.95 11.9 7.05 11.65 7.85 11.5 8.3 11.3 8.75 11.0 8.75 10.8 8.65 10.75 8.65 10.35 8.6 10.1 8.6 9.8 8.2 11.1 6.85" fill="#00d0fb" fill-rule="evenodd" stroke="none"/>
      <path d="M8.85 6.1 L8.9 6.4 7.85 6.35 6.65 7.0 6.45 6.65 7.55 5.85 8.5 6.1 8.85 6.1" fill="#09fef9" fill-rule="evenodd" stroke="none"/>
      <path d="M8.9 6.4 L9.45 6.5 9.4 7.05 8.8 7.15 8.75 7.2 7.7 7.45 7.6 7.45 6.85 7.85 6.1 7.45 6.65 7.0 7.85 6.35 8.9 6.4" fill="#008cf3" fill-rule="evenodd" stroke="none"/>
      <path d="M9.45 6.5 L11.1 6.85 9.8 8.2 8.75 7.2 8.8 7.15 9.4 7.05 9.45 6.5" fill="#00c2f8" fill-rule="evenodd" stroke="none"/>
      <path d="M7.6 7.45 L7.7 7.45 8.75 7.2 9.8 8.2 8.6 9.3 8.6 9.25 8.6 9.15 8.65 9.05 8.65 9.0 8.7 8.15 8.55 8.65 8.45 8.75 8.45 8.8 8.3 9.25 7.65 9.3 7.6 7.45" fill="#04acff" fill-rule="evenodd" stroke="none"/>
      <path d="M8.3 9.25 L8.45 8.8 8.45 8.75 8.55 8.65 8.7 8.15 8.65 9.0 8.65 9.05 8.6 9.15 8.6 9.25 8.6 9.3 8.55 10.0 8.75 10.45 8.75 10.65 8.8 10.8 8.8 11.0 8.9 11.15 8.95 11.4 8.55 11.15 8.55 11.05 8.55 11.0 8.5 10.85 8.3 9.9 8.25 9.7 8.2 9.5 8.3 9.35 8.3 9.25" fill="#b4ffff" fill-rule="evenodd" stroke="none"/>
      <path d="M8.3 9.25 L8.3 9.35 8.2 9.5 8.25 9.7 8.3 9.9 7.55 11.4 7.1 12.1 6.75 12.6 5.85 12.85 5.7 12.45 5.15 10.5 5.05 10.0 5.0 9.35 5.15 9.35 6.85 9.25 7.65 9.3 8.3 9.25" fill="#00caff" fill-rule="evenodd" stroke="none"/>
      <path d="M8.6 9.3 L9.8 8.2 10.1 8.6 10.35 8.6 10.75 8.65 10.8 8.65 11.0 8.75 11.3 8.75 10.25 10.75 9.9 10.7 10.2 10.9 10.15 11.05 9.75 10.75 9.7 10.7 9.2 10.4 9.1 10.3 8.8 10.15 8.85 9.95 8.6 9.3" fill="#01e9fd" fill-rule="evenodd" stroke="none"/>
      <path d="M8.8 11.0 L8.8 10.8 8.75 10.65 8.75 10.45 8.55 10.0 8.6 9.3 8.85 9.95 8.8 10.15 9.1 10.3 9.2 10.4 9.7 10.7 9.75 10.75 8.8 11.0" fill="#04a6e7" fill-rule="evenodd" stroke="none"/>
      <path d="M8.3 9.9 L8.5 10.85 8.55 11.0 8.55 11.05 8.55 11.15 8.6 11.45 8.75 12.0 9.05 13.25 8.85 13.95 7.1 12.1 7.55 11.4 8.3 9.9" fill="#00f2fd" fill-rule="evenodd" stroke="none"/>
      <path d="M8.95 11.4 L8.9 11.15 8.8 11.0 9.75 10.75 10.15 11.05 10.5 11.25 10.7 11.4 10.5 11.5 9.1 11.85 8.95 11.4" fill="#08b5fa" fill-rule="evenodd" stroke="none"/>
      <path d="M12.8 10.65 L12.1 11.3 11.95 11.05 12.05 11.0 12.8 10.65 M11.2 11.6 L11.2 11.55 10.75 11.75 10.5 11.5 10.7 11.4 10.5 11.25 10.2 10.9 9.9 10.7 10.25 10.75 11.3 11.2 11.2 11.6" fill="#c2ffff" fill-rule="evenodd" stroke="none"/>
      <path d="M12.1 11.3 L11.6 11.75 11.2 11.6 11.3 11.2 11.5 11.25 11.95 11.05 12.1 11.3" fill="#e3fffd" fill-rule="evenodd" stroke="none"/>
      <path d="M10.75 11.75 L9.15 12.25 9.1 11.85 10.5 11.5 10.75 11.75" fill="#beffff" fill-rule="evenodd" stroke="none"/>
      <path d="M9.6 13.55 L11.05 12.6 11.4 13.7 12.15 15.65 13.05 17.55 13.1 17.9 13.25 17.85 13.3 18.0 13.35 18.1 13.9 19.35 12.55 19.6 11.6 19.7 10.1 18.5 8.8 17.35 8.0 16.7 7.35 16.15 7.2 15.55 8.1 15.75 9.75 16.1 12.2 16.4 11.45 15.75 10.15 14.6 10.0 14.4 9.65 13.7 9.6 13.55" fill="#00f4fd" fill-rule="evenodd" stroke="none"/>
      <path d="M9.15 12.25 L9.6 13.55 9.65 13.7 10.0 14.4 10.15 14.6 11.45 15.75 12.2 16.4 9.75 16.1 8.1 15.75 7.2 15.15 6.7 14.75 6.1 14.35 5.6 13.95 5.45 13.85 5.25 13.65 4.65 13.15 4.0 12.6 4.8 13.15 Q5.1 13.25 5.35 13.45 L5.45 13.55 5.55 13.6 5.7 13.7 5.85 13.8 6.75 14.3 7.15 14.55 7.4 14.65 7.55 14.6 8.1 14.45 8.6 14.15 8.8 14.05 8.8 14.0 8.85 13.95 9.05 13.25 8.75 12.0 8.6 11.45 8.55 11.15 8.95 11.4 9.1 11.85 9.15 12.25" fill="#f9fffd" fill-rule="evenodd" stroke="none"/>
      <path d="M8.85 13.95 L8.8 14.0 8.8 14.05 8.6 14.15 8.1 14.45 7.55 14.6 7.4 14.65 7.15 14.55 6.75 14.3 5.85 13.8 5.7 13.7 5.55 13.6 5.5 13.55 5.0 13.15 5.2 13.05 5.85 12.85 6.75 12.6 7.1 12.1 8.85 13.95" fill="#01ecff" fill-rule="evenodd" stroke="none"/>
      <path d="M7.2 15.55 L7.35 16.15 8.0 16.7 8.8 17.35 9.15 18.2 8.0 17.15 7.15 16.35 6.9 16.1 6.75 15.5 6.75 15.4 6.85 15.45 7.2 15.55" fill="#92ffff" fill-rule="evenodd" stroke="none"/>
      <path d="M15.95 12.05 L16.65 11.45 16.7 11.7 16.75 11.8 16.8 12.1 16.6 12.35 15.8 13.55 15.6 13.95 Q15.2 14.7 15.15 15.65 L14.3 15.1 14.15 14.95 13.85 14.7 14.15 14.2 15.65 12.3 15.9 12.1 15.95 12.05" fill="#0460a3" fill-rule="evenodd" stroke="none"/>
      <path d="M16.8 12.1 L16.85 12.1 17.15 11.7 Q17.7 11.3 18.45 11.0 L18.3 11.55 18.25 11.95 18.15 12.4 17.55 12.75 17.15 13.1 16.8 13.5 16.2 14.5 15.95 13.9 15.8 13.55 16.6 12.35 16.8 12.1" fill="#0f93e6" fill-rule="evenodd" stroke="none"/>
      <path d="M18.2 10.55 L18.95 10.2 20.1 9.95 19.6 10.8 19.25 10.8 18.85 10.8 18.85 10.85 18.45 11.0 Q17.7 11.3 17.15 11.7 L16.85 12.1 16.8 12.1 16.75 11.8 16.7 11.7 16.65 11.45 18.2 10.55" fill="#0568a9" fill-rule="evenodd" stroke="none"/>
      <path d="M15.65 12.3 L14.45 11.95 15.9 12.1 15.65 12.3" fill="#8effff" fill-rule="evenodd" stroke="none"/>
      <path d="M15.8 13.55 L15.95 13.9 16.2 14.5 16.0 15.4 15.95 16.05 15.95 16.2 16.0 16.85 15.4 16.15 15.3 16.05 15.1 15.75 15.15 15.65 Q15.2 14.7 15.6 13.95 L15.8 13.55" fill="#16aaf4" fill-rule="evenodd" stroke="none"/>
      <path d="M16.8 13.5 L17.15 13.1 17.55 12.75 18.15 12.4 18.25 12.4 18.8 12.15 18.9 12.1 19.4 12.0 19.65 11.95 19.65 12.15 19.6 13.6 19.35 13.7 18.5 13.85 18.3 13.85 18.25 13.85 18.0 13.85 17.95 13.85 17.15 13.7 17.15 13.85 16.8 13.5" fill="#1ecefd" fill-rule="evenodd" stroke="none"/>
      <path d="M16.0 15.4 L16.2 14.5 16.8 13.5 17.15 13.85 17.3 14.95 17.3 15.35 17.3 15.55 17.2 15.55 17.0 15.5 16.0 15.4" fill="#29d1ff" fill-rule="evenodd" stroke="none"/>
      <path d="M17.15 13.85 L17.15 13.7 17.95 13.85 18.0 13.85 18.25 13.85 18.3 13.85 18.5 14.3 18.75 14.7 19.0 15.1 Q18.4 15.55 18.1 16.3 L17.95 16.75 17.95 16.85 17.7 16.85 17.45 16.8 17.1 16.75 17.3 15.75 17.3 15.55 17.3 15.35 17.3 14.95 17.15 13.85" fill="#2fe1ff" fill-rule="evenodd" stroke="none"/>
      <path d="M13.35 15.85 L13.85 14.7 14.15 14.95 14.3 15.1 15.15 15.65 15.1 15.75 15.1 16.15 15.2 17.45 13.25 17.85 13.1 17.9 13.05 17.55 Q13.0 16.8 13.35 15.85" fill="#00629f" fill-rule="evenodd" stroke="none"/>
      <path d="M15.1 15.75 L15.3 16.05 15.4 16.15 16.0 16.85 16.05 17.15 16.1 17.45 16.2 18.0 16.2 18.05 16.2 18.1 15.8 18.3 15.4 18.45 15.2 17.45 15.1 16.15 15.1 15.75" fill="#1fb7f6" fill-rule="evenodd" stroke="none"/>
      <path d="M16.0 16.85 L15.95 16.2 15.95 16.05 16.0 15.4 17.0 15.5 17.2 15.55 17.3 15.55 17.3 15.75 17.1 16.75 17.05 16.9 16.65 17.75 16.5 18.05 16.3 18.25 16.2 18.05 16.2 18.0 16.1 17.45 16.05 17.15 16.0 16.85 M17.95 16.85 L17.95 16.75 18.1 16.3 Q18.4 15.55 19.0 15.1 19.25 14.9 19.6 14.75 L19.85 14.65 20.75 14.5 20.8 14.6 20.75 17.05 20.6 17.65 19.05 17.45 17.85 17.15 17.95 16.85" fill="#40e8f5" fill-rule="evenodd" stroke="none"/>
      <path d="M17.1 16.75 L17.45 16.8 17.7 16.85 17.95 16.85 17.85 17.15 17.95 18.35 17.2 18.95 16.5 18.85 16.1 18.85 16.0 18.8 15.95 18.85 15.75 18.85 15.6 18.85 16.15 18.45 16.3 18.25 16.5 18.05 16.65 17.75 17.05 16.9 17.1 16.75" fill="#20d4f9" fill-rule="evenodd" stroke="none"/>
      <path d="M6.95 5.75 L7.55 5.85 6.45 6.65 4.8 8.0 2.95 9.8 2.75 9.6 3.75 8.55 4.85 7.6 6.25 6.35 6.95 5.75" fill="#002bf0" fill-rule="evenodd" stroke="none"/>
      <path d="M6.1 7.45 L6.85 7.85 7.6 7.45 7.65 9.3 6.85 9.25 5.15 9.35 5.0 9.35 4.85 8.5 6.1 7.45" fill="#03a3ff" fill-rule="evenodd" stroke="none"/>
      <path d="M6.65 7.0 L6.1 7.45 4.85 8.5 4.65 8.7 3.05 10.4 2.95 10.35 2.7 10.1 2.95 9.8 4.8 8.0 6.45 6.65 6.65 7.0" fill="#0cbbff" fill-rule="evenodd" stroke="none"/>
      <path d="M3.05 10.4 L4.65 8.7 4.85 8.5 5.0 9.35 5.05 10.0 5.15 10.5 3.6 10.7 3.05 10.4" fill="#0096ff" fill-rule="evenodd" stroke="none"/>
      <path d="M2.95 9.8 L2.7 10.1 2.1 10.75 2.65 11.3 3.6 12.25 3.85 12.5 3.8 12.9 2.05 11.3 1.6 10.7 2.45 9.9 2.75 9.6 2.95 9.8" fill="#003bed" fill-rule="evenodd" stroke="none"/>
      <path d="M5.15 10.5 L5.7 12.45 5.85 12.85 5.2 13.05 5.0 13.15 3.6 11.7 3.3 11.4 2.85 10.75 2.75 10.75 3.05 10.4 3.6 10.7 5.15 10.5" fill="#0198ff" fill-rule="evenodd" stroke="none"/>
      <path d="M2.7 10.1 L2.95 10.35 3.05 10.4 2.75 10.75 2.85 10.75 3.3 11.4 2.65 11.3 2.1 10.75 2.7 10.1" fill="#00dbfa" fill-rule="evenodd" stroke="none"/>
      <path d="M5.55 13.6 L5.45 13.55 5.35 13.45 Q5.1 13.25 4.8 13.15 L4.0 12.6 3.85 12.5 3.6 12.25 2.65 11.3 3.3 11.4 3.6 11.7 5.0 13.15 5.5 13.55 5.55 13.6" fill="#10d8ff" fill-rule="evenodd" stroke="none"/>
      <path d="M4.0 12.6 L4.65 13.15 5.25 13.65 5.45 13.85 5.6 13.95 6.1 14.35 5.5 14.4 5.3 14.25 5.1 14.05 4.85 13.85 4.75 13.75 4.05 13.15 3.8 12.9 3.85 12.5 4.0 12.6" fill="#0075f8" fill-rule="evenodd" stroke="none"/>
      <path d="M5.3 14.25 L5.5 14.4 6.75 15.4 6.75 15.5 6.7 15.55 6.15 15.55 5.95 15.55 4.95 15.55 4.85 15.0 4.85 14.8 4.85 14.65 5.15 14.3 5.3 14.25" fill="#01d4ff" fill-rule="evenodd" stroke="none"/>
      <path d="M6.1 14.35 L6.7 14.75 7.2 15.15 8.1 15.75 7.2 15.55 6.85 15.45 6.75 15.4 5.5 14.4 6.1 14.35" fill="#16a5e1" fill-rule="evenodd" stroke="none"/>
      <path d="M5.1 14.05 L5.0 14.1 4.65 14.4 4.6 14.45 4.55 14.55 4.6 15.0 4.65 15.55 4.25 15.4 4.2 14.95 4.15 14.15 4.75 13.85 4.85 13.85 5.1 14.05" fill="#006ee7" fill-rule="evenodd" stroke="none"/>
      <path d="M5.15 14.3 L4.85 14.65 4.85 14.8 4.85 15.0 4.6 15.0 4.55 14.55 4.6 14.45 4.65 14.4 5.0 14.1 5.15 14.3" fill="#0ce9ff" fill-rule="evenodd" stroke="none"/>
      <path d="M5.3 14.25 L5.15 14.3 5.0 14.1 5.1 14.05 5.3 14.25" fill="#17e7ff" fill-rule="evenodd" stroke="none"/>
      <path d="M4.85 15.0 L4.95 15.55 4.95 16.0 5.45 19.15 5.05 19.0 5.05 18.75 4.75 16.25 4.65 15.55 4.6 15.0 4.85 15.0" fill="#0addff" fill-rule="evenodd" stroke="none"/>
      <path d="M4.9 19.9 L4.75 19.0 4.75 18.9 4.5 17.6 4.3 15.55 4.25 15.4 4.65 15.55 4.75 16.25 5.05 18.75 5.05 19.0 5.1 19.45 5.15 20.0 4.9 19.9" fill="#0021f0" fill-rule="evenodd" stroke="none"/>
      <path d="M4.95 15.55 L5.95 15.55 6.15 15.55 6.7 15.55 6.75 15.5 6.9 16.1 7.15 16.35 6.85 16.75 6.65 17.2 6.5 17.4 5.9 18.8 5.7 19.6 5.5 19.6 5.45 19.15 4.95 16.0 4.95 15.55" fill="#03c1fb" fill-rule="evenodd" stroke="none"/>
      <path d="M7.15 16.35 L8.0 17.15 8.05 17.95 8.05 18.15 8.1 18.4 8.2 19.1 8.35 20.2 7.35 20.05 6.5 19.85 6.45 19.85 6.1 19.75 6.05 19.75 5.7 19.6 5.9 18.8 6.5 17.4 6.65 17.2 6.85 16.75 7.15 16.35" fill="#06c3ff" fill-rule="evenodd" stroke="none"/>
      <path d="M6.1 19.75 L6.45 19.85 6.5 19.85 7.35 20.05 8.35 20.2 8.8 20.2 9.15 20.5 8.4 20.45 7.85 20.4 7.3 20.35 6.6 20.25 6.5 20.25 6.4 20.25 6.2 20.15 6.1 19.75" fill="#28dcff" fill-rule="evenodd" stroke="none"/>
      <path d="M5.7 19.6 L6.05 19.75 6.1 19.75 6.2 20.15 6.1 20.15 5.6 20.1 5.6 20.05 5.15 20.0 5.1 19.45 5.05 19.0 5.45 19.15 5.5 19.6 5.7 19.6" fill="#03e9ff" fill-rule="evenodd" stroke="none"/>
      <path d="M5.15 20.0 L5.6 20.05 5.6 20.1 6.1 20.15 6.2 20.15 6.4 20.25 6.45 20.45 6.25 20.5 6.15 20.5 5.5 20.35 5.0 20.25 4.9 19.9 5.15 20.0" fill="#0036e1" fill-rule="evenodd" stroke="none"/>
      <path d="M6.55 20.5 L6.45 20.45 6.4 20.25 6.5 20.25 6.6 20.25 7.3 20.35 7.85 20.4 8.4 20.45 9.15 20.5 9.45 20.75 9.4 20.75 8.4 20.7 7.35 20.6 6.7 20.5 6.55 20.5" fill="#14a7ff" fill-rule="evenodd" stroke="none"/>
      <path d="M6.15 20.5 L6.25 20.5 6.45 20.45 6.55 20.5 6.65 21.0 6.7 21.25 6.75 21.35 6.7 21.5 6.9 22.7 6.95 22.9 6.6 22.75 6.55 22.65 6.4 21.65 6.2 20.7 6.15 20.5 M15.3 24.85 L15.15 24.75 12.8 23.45 12.05 23.0 11.9 22.9 11.7 22.7 10.7 21.25 10.15 20.55 10.5 20.55 10.8 21.15 11.85 22.5 11.95 22.7 12.1 22.8 13.0 23.35 13.7 23.75 15.5 24.7 15.6 24.75 15.3 24.85" fill="#002fec" fill-rule="evenodd" stroke="none"/>
      <path d="M6.7 20.5 L7.35 20.6 8.4 20.7 9.4 20.75 7.5 21.2 7.35 21.2 6.9 21.35 6.7 20.5 M9.45 20.75 L9.15 20.5 9.95 20.55 10.0 20.6 9.45 20.75" fill="#0abaff" fill-rule="evenodd" stroke="none"/>
      <path d="M6.95 22.9 L6.9 22.7 6.7 21.5 6.75 21.35 6.7 21.25 6.65 21.0 6.55 20.5 6.7 20.5 6.9 21.35 6.95 21.65 7.25 22.65 7.5 23.5 8.1 23.85 8.15 24.25 7.6 24.05 7.15 23.9 6.95 22.9" fill="#15deff" fill-rule="evenodd" stroke="none"/>
      <path d="M8.1 23.85 L7.5 23.5 7.25 22.65 6.95 21.65 6.9 21.35 7.35 21.2 7.5 21.2 7.6 21.6 7.65 21.7 8.2 22.7 8.9 23.05 8.8 24.2 8.1 23.85" fill="#0089ff" fill-rule="evenodd" stroke="none"/>
      <path d="M9.4 20.75 L9.45 20.75 10.0 20.6 10.55 21.45 9.9 22.1 9.7 22.35 9.1 23.2 8.9 23.05 8.2 22.7 7.65 21.7 7.6 21.6 7.5 21.2 9.4 20.75" fill="#01befe" fill-rule="evenodd" stroke="none"/>
      <path d="M6.6 22.75 L6.95 22.9 7.15 23.9 7.6 24.05 7.65 24.4 7.2 24.3 6.8 24.1 6.75 23.75 6.6 22.75" fill="#0022cf" fill-rule="evenodd" stroke="none"/>
      <path d="M7.6 24.05 L8.15 24.25 8.8 24.45 10.75 25.05 11.3 25.25 11.6 25.35 15.15 24.75 15.3 24.85 14.65 25.0 12.8 25.45 12.75 25.45 12.0 25.65 10.8 25.4 10.7 25.35 9.1 24.85 8.8 24.8 8.1 24.55 7.65 24.4 7.6 24.05" fill="#001aad" fill-rule="evenodd" stroke="none"/>
      <path d="M18.3 19.75 L17.9 19.3 17.35 19.0 17.2 18.95 17.95 18.35 17.95 18.4 18.45 18.75 18.55 18.8 18.75 18.9 19.15 19.05 18.9 19.35 18.85 19.4 18.3 19.75" fill="#27e2ff" fill-rule="evenodd" stroke="none"/>
      <path d="M17.2 18.95 L17.35 19.0 17.9 19.3 18.3 19.75 18.5 20.1 18.55 20.35 18.4 21.05 18.25 21.0 17.75 20.75 17.0 20.15 16.9 19.95 16.65 19.4 16.55 19.1 16.5 18.85 17.2 18.95" fill="#1ecdff" fill-rule="evenodd" stroke="none"/>
      <path d="M15.4 18.45 L15.8 18.3 16.2 18.1 16.2 18.05 16.3 18.25 16.15 18.45 15.6 18.85 15.75 18.85 15.95 18.85 15.65 18.9 15.55 18.95 15.5 18.95 15.05 19.05 15.05 18.9 15.0 18.6 15.4 18.45" fill="#18b3f6" fill-rule="evenodd" stroke="none"/>
      <path d="M16.5 18.85 L16.55 19.1 15.6 19.2 15.6 19.1 15.55 19.0 15.5 18.95 15.55 18.95 15.65 18.9 15.95 18.85 16.0 18.8 16.1 18.85 16.5 18.85" fill="#26b5f1" fill-rule="evenodd" stroke="none"/>
      <path d="M13.9 19.35 L13.35 18.1 13.25 17.85 15.2 17.45 15.4 18.45 15.0 18.6 14.75 18.7 13.9 18.95 13.9 19.0 13.9 19.1 14.05 19.3 14.05 19.35 14.6 19.15 15.05 19.05 15.5 18.95 15.55 19.0 15.6 19.1 15.6 19.2 15.65 19.45 15.9 20.1 16.0 20.4 15.45 20.6 14.85 20.9 14.25 19.95 14.1 19.75 14.05 19.6 13.9 19.35" fill="#03619e" fill-rule="evenodd" stroke="none"/>
      <path d="M16.55 19.1 L16.65 19.4 16.9 19.95 17.0 20.15 17.75 20.75 18.25 21.0 18.4 21.05 18.45 21.1 18.05 21.65 17.75 22.0 17.7 22.0 Q16.6 21.25 16.05 20.5 L16.0 20.4 15.9 20.1 15.65 19.45 15.6 19.2 16.55 19.1" fill="#189fd9" fill-rule="evenodd" stroke="none"/>
      <path d="M16.0 20.4 L16.05 20.5 Q16.6 21.25 17.7 22.0 L17.75 22.0 17.85 22.05 18.5 22.4 20.4 22.95 19.2 23.05 17.75 22.85 17.25 22.6 15.9 21.85 15.55 21.5 14.85 20.9 15.45 20.6 16.0 20.4" fill="#025889" fill-rule="evenodd" stroke="none"/>
      <path d="M15.0 18.6 L15.05 18.9 15.05 19.05 14.6 19.15 14.05 19.35 14.05 19.3 13.9 19.1 13.9 19.0 13.9 18.95 14.75 18.7 15.0 18.6" fill="#0976ae" fill-rule="evenodd" stroke="none"/>
      <path d="M11.6 19.7 L12.55 19.6 13.9 19.35 14.05 19.6 12.05 20.0 11.6 19.7" fill="#70ffff" fill-rule="evenodd" stroke="none"/>
      <path d="M8.8 17.35 L10.1 18.5 11.6 19.7 12.05 20.0 12.3 20.2 12.4 20.3 12.0 20.45 10.5 20.55 10.15 20.55 9.95 20.55 9.15 20.5 8.8 20.2 8.65 20.15 9.0 20.05 9.45 19.85 9.6 19.8 9.85 19.65 9.8 19.6 9.8 19.55 9.7 19.3 9.5 18.95 9.15 18.2 8.8 17.35" fill="#ecfff7" fill-rule="evenodd" stroke="none"/>
      <path d="M8.0 17.15 L9.15 18.2 9.5 18.95 9.7 19.3 9.8 19.55 9.8 19.6 9.85 19.65 9.6 19.8 9.45 19.85 9.0 20.05 8.65 20.15 8.8 20.2 8.35 20.2 8.2 19.1 8.1 18.4 8.05 18.15 8.05 17.95 8.0 17.15" fill="#00ecf9" fill-rule="evenodd" stroke="none"/>
      <path d="M10.55 21.45 L10.0 20.6 9.95 20.55 10.15 20.55 10.7 21.25 11.7 22.7 12.1 23.65 10.55 21.45" fill="#8ef6ff" fill-rule="evenodd" stroke="none"/>
      <path d="M9.1 23.2 L9.7 22.35 9.9 22.1 10.55 21.45 12.1 23.65 12.1 23.7 11.6 23.9 10.8 24.05 9.4 23.35 9.1 23.2" fill="#00c4f6" fill-rule="evenodd" stroke="none"/>
      <path d="M8.9 23.05 L9.1 23.2 9.4 23.35 10.8 24.05 11.6 23.9 12.1 23.7 12.55 24.7 11.9 25.0 11.6 25.15 10.6 24.85 8.8 24.2 8.9 23.05" fill="#0680fd" fill-rule="evenodd" stroke="none"/>
      <path d="M15.15 24.75 L11.6 25.35 11.3 25.25 11.6 25.15 11.9 25.0 12.55 24.7 12.1 23.7 12.1 23.65 11.7 22.7 11.9 22.9 12.05 23.0 12.8 23.45 15.15 24.75" fill="#d6fff9" fill-rule="evenodd" stroke="none"/>
      <path d="M8.15 24.25 L8.1 23.85 8.8 24.2 10.6 24.85 11.6 25.15 11.3 25.25 10.75 25.05 8.8 24.45 8.15 24.25" fill="#10d1ff" fill-rule="evenodd" stroke="none"/>
      <path d="M19.1 6.3 L18.95 5.95 19.55 5.75 19.7 5.6 19.85 5.5 20.65 4.95 20.85 4.9 21.95 4.9 23.05 5.05 23.15 5.05 23.2 5.05 23.1 5.3 22.1 5.15 20.95 5.15 20.85 5.2 20.5 5.45 20.4 5.5 19.7 5.9 19.1 6.3" fill="#1de7ff" fill-rule="evenodd" stroke="none"/>
      <path d="M19.7 5.6 L19.6 5.25 20.1 5.0 21.05 4.35 21.65 4.45 23.2 4.75 23.15 5.05 23.05 5.05 21.95 4.9 20.85 4.9 20.65 4.95 19.85 5.5 19.7 5.6" fill="#004ee5" fill-rule="evenodd" stroke="none"/>
      <path d="M19.7 5.9 L20.4 5.5 20.5 5.45 20.85 5.2 20.95 5.15 22.1 5.15 22.3 5.7 22.4 5.8 23.5 7.8 22.95 7.85 21.7 7.95 21.6 8.05 21.1 7.4 20.65 6.85 20.3 6.45 19.7 5.9" fill="#04b1ff" fill-rule="evenodd" stroke="none"/>
      <path d="M23.2 4.75 L23.3 4.8 24.0 5.0 25.25 5.2 25.55 5.3 26.05 5.4 26.0 5.7 23.65 5.1 23.2 5.05 23.15 5.05 23.2 4.75" fill="#004ce6" fill-rule="evenodd" stroke="none"/>
      <path d="M23.1 5.3 L23.2 5.05 23.65 5.1 26.0 5.7 26.95 5.95 26.95 6.0 27.3 7.35 27.65 8.15 27.15 7.95 26.9 7.9 26.1 8.1 25.75 8.15 24.7 8.2 24.5 8.2 23.65 8.25 23.1 8.3 23.05 8.25 22.95 7.85 23.5 7.8 25.15 7.7 26.15 7.2 25.8 6.1 23.8 5.4 23.15 5.3 23.1 5.3" fill="#11f5ff" fill-rule="evenodd" stroke="none"/>
      <path d="M26.05 5.4 L27.05 5.7 29.05 9.85 28.8 9.7 28.75 9.55 28.3 8.65 27.35 6.85 26.95 6.0 26.95 5.95 26.0 5.7 26.05 5.4" fill="#0052e3" fill-rule="evenodd" stroke="none"/>
      <path d="M28.75 9.55 L28.4 9.35 26.85 8.1 26.75 8.15 25.75 8.15 26.1 8.1 26.9 7.9 27.15 7.95 27.65 8.15 27.3 7.35 26.95 6.0 27.35 6.85 28.3 8.65 28.75 9.55" fill="#b1fffd" fill-rule="evenodd" stroke="none"/>
      <path d="M28.4 9.35 L28.5 9.45 28.4 9.4 27.85 9.1 27.4 8.85 27.05 8.7 26.75 8.5 26.4 8.45 24.9 8.45 24.75 8.45 24.7 8.2 25.75 8.15 26.75 8.15 26.85 8.1 28.4 9.35" fill="#0876ff" fill-rule="evenodd" stroke="none"/>
      <path d="M22.1 5.15 L23.1 5.3 23.15 5.3 23.8 5.4 25.8 6.1 26.15 7.2 25.15 7.7 23.5 7.8 22.4 5.8 22.3 5.7 22.1 5.15" fill="#00a5fe" fill-rule="evenodd" stroke="none"/>
      <path d="M24.75 8.45 L23.75 8.5 23.7 8.5 23.2 8.55 22.05 8.7 21.9 8.75 21.2 9.8 20.9 9.85 21.0 9.65 21.3 9.1 21.35 8.95 21.4 8.95 21.65 8.45 21.65 8.4 21.8 8.4 23.1 8.3 23.65 8.25 24.5 8.2 24.7 8.2 24.75 8.45" fill="#0095ea" fill-rule="evenodd" stroke="none"/>
      <path d="M22.95 7.85 L23.05 8.25 23.1 8.3 21.8 8.4 21.65 8.4 21.65 8.45 21.4 8.95 21.35 8.95 21.3 9.1 21.15 8.95 21.3 8.65 21.6 8.05 21.7 7.95 22.95 7.85" fill="#0fe6ff" fill-rule="evenodd" stroke="none"/>
      <path d="M23.4 10.5 L23.5 10.55 23.7 10.65 23.85 10.8 24.4 11.6 24.6 11.9 25.05 12.65 24.95 12.65 24.1 12.05 23.5 11.75 22.55 11.35 22.2 11.2 21.9 11.15 22.05 11.05 Q22.65 10.75 23.4 10.5" fill="#148fdc" fill-rule="evenodd" stroke="none"/>
      <path d="M18.45 11.0 L18.85 10.85 18.85 10.8 19.25 10.8 19.6 10.8 19.95 10.8 20.25 10.85 20.5 10.85 21.9 11.15 22.2 11.2 22.55 11.35 22.3 11.55 21.65 12.0 19.8 11.95 19.65 11.95 19.4 12.0 18.9 12.1 18.8 12.15 18.25 12.4 18.15 12.4 18.25 11.95 18.3 11.55 18.45 11.0" fill="#0f9ff8" fill-rule="evenodd" stroke="none"/>
      <path d="M20.1 9.95 L20.5 9.9 20.9 9.85 21.2 9.8 21.25 9.8 21.7 9.75 Q22.5 10.05 23.4 10.5 22.65 10.75 22.05 11.05 L21.9 11.15 20.5 10.85 20.25 10.85 19.95 10.8 19.6 10.8 20.1 9.95" fill="#1882d0" fill-rule="evenodd" stroke="none"/>
      <path d="M20.5 9.9 L20.75 9.5 20.9 9.25 21.15 8.95 21.3 9.1 21.0 9.65 20.9 9.85 20.5 9.9" fill="#6fffff" fill-rule="evenodd" stroke="none"/>
      <path d="M24.95 12.65 L24.95 12.7 25.15 12.9 25.3 13.0 24.05 13.05 Q23.3 12.45 22.35 12.15 L21.95 12.05 21.65 12.0 22.3 11.55 22.55 11.35 23.5 11.75 24.1 12.05 24.95 12.65" fill="#0ca7fa" fill-rule="evenodd" stroke="none"/>
      <path d="M19.6 13.6 L19.65 12.15 19.65 11.95 19.8 11.95 21.65 12.0 21.95 12.05 22.35 12.15 22.15 12.7 21.9 13.25 21.6 13.4 20.95 13.5 20.4 13.4 19.85 13.2 19.8 13.3 19.6 13.6" fill="#1eceff" fill-rule="evenodd" stroke="none"/>
      <path d="M21.9 13.25 L22.15 12.7 22.35 12.15 Q23.3 12.45 24.05 13.05 L24.85 13.9 24.9 14.4 23.0 15.1 22.75 14.65 22.6 13.35 22.7 13.15 22.15 13.05 21.9 13.25" fill="#25d1ff" fill-rule="evenodd" stroke="none"/>
      <path d="M18.3 13.85 L18.5 13.85 19.35 13.7 19.6 13.6 19.8 13.3 19.85 13.2 20.4 13.4 20.95 13.5 20.85 14.0 20.75 14.5 19.85 14.65 19.6 14.75 Q19.25 14.9 19.0 15.1 L18.75 14.7 18.5 14.3 18.3 13.85" fill="#36e1f3" fill-rule="evenodd" stroke="none"/>
      <path d="M20.75 14.5 L20.85 14.0 20.95 13.5 21.6 13.4 21.9 13.25 22.15 13.05 22.7 13.15 22.6 13.35 22.75 14.65 23.0 15.1 23.15 15.35 22.5 15.75 22.25 15.35 Q21.9 14.9 21.4 14.65 L20.75 14.5" fill="#25e2ff" fill-rule="evenodd" stroke="none"/>
      <path d="M19.15 19.05 L18.75 18.9 18.55 18.8 18.45 18.75 17.95 18.4 17.95 18.35 17.85 17.15 19.05 17.45 20.6 17.65 20.0 19.25 19.2 19.1 19.15 19.05" fill="#2debf9" fill-rule="evenodd" stroke="none"/>
      <path d="M22.5 15.75 L23.15 15.35 23.45 15.75 Q23.3 16.1 23.3 16.5 L23.3 16.6 23.4 17.35 23.65 17.75 23.4 17.8 22.65 17.9 22.7 17.75 22.85 16.6 22.75 16.35 22.5 15.75" fill="#20e3f5" fill-rule="evenodd" stroke="none"/>
      <path d="M20.75 14.5 L21.4 14.65 Q21.9 14.9 22.25 15.35 L22.5 15.75 22.75 16.35 22.85 16.6 22.7 17.75 21.15 17.7 20.6 17.65 20.75 17.05 20.8 14.6 20.75 14.5 M23.15 15.35 L23.0 15.1 24.9 14.4 24.95 14.7 24.95 16.2 23.65 16.55 23.3 16.6 23.3 16.5 Q23.3 16.1 23.45 15.75 L23.15 15.35" fill="#30e5f0" fill-rule="evenodd" stroke="none"/>
      <path d="M25.3 13.0 L25.6 13.4 26.1 14.6 26.4 15.6 26.45 15.7 26.3 15.75 25.8 16.0 25.75 15.85 25.25 16.05 24.95 16.2 24.95 14.7 24.9 14.4 24.85 13.9 24.05 13.05 25.3 13.0" fill="#20bfdf" fill-rule="evenodd" stroke="none"/>
      <path d="M23.65 17.75 L23.4 17.35 23.3 16.6 23.65 16.55 24.95 16.2 24.85 17.1 24.65 17.8 24.45 18.35 24.05 18.25 23.85 18.05 23.65 17.75" fill="#29d2ff" fill-rule="evenodd" stroke="none"/>
      <path d="M24.95 16.2 L25.25 16.05 25.75 15.85 25.8 16.0 25.95 17.25 25.65 17.2 24.85 17.1 24.95 16.2" fill="#15c2fa" fill-rule="evenodd" stroke="none"/>
      <path d="M26.45 15.7 L26.65 16.75 26.7 17.5 26.7 17.55 26.7 17.7 26.65 17.75 26.05 17.7 25.85 17.7 25.95 17.25 25.8 16.0 26.3 15.75 26.45 15.7" fill="#08b8ff" fill-rule="evenodd" stroke="none"/>
      <path d="M24.85 17.1 L25.65 17.2 25.95 17.25 25.85 17.7 25.7 18.25 25.35 18.85 25.2 18.75 24.75 18.45 24.65 18.4 24.45 18.35 24.65 17.8 24.85 17.1" fill="#159eef" fill-rule="evenodd" stroke="none"/>
      <path d="M25.35 18.85 L25.7 18.25 25.85 17.7 26.05 17.7 26.65 17.75 26.05 19.0 26.0 19.1 25.4 19.9 24.4 20.8 24.35 20.75 24.2 20.45 23.95 20.15 25.35 18.85" fill="#0789df" fill-rule="evenodd" stroke="none"/>
      <path d="M26.65 17.75 L26.75 17.75 26.6 19.1 26.4 19.75 25.05 21.6 24.95 21.5 24.4 20.8 25.4 19.9 26.0 19.1 26.05 19.0 26.65 17.75" fill="#0c7cc4" fill-rule="evenodd" stroke="none"/>
      <path d="M24.45 18.35 L24.65 18.4 24.75 18.45 25.2 18.75 25.35 18.85 23.95 20.15 23.6 19.7 24.45 18.35" fill="#17aefd" fill-rule="evenodd" stroke="none"/>
      <path d="M22.65 17.9 L23.4 17.8 23.65 17.75 23.85 18.05 24.05 18.25 24.25 18.5 23.95 18.5 23.3 18.55 23.0 18.75 23.55 19.6 23.2 19.8 22.55 20.3 21.85 19.9 21.45 19.85 21.45 19.3 21.45 18.95 Q22.25 18.65 22.65 17.95 L22.65 17.9" fill="#26e0f9" fill-rule="evenodd" stroke="none"/>
      <path d="M23.55 19.6 L23.0 18.75 23.3 18.55 23.95 18.5 24.25 18.5 24.05 18.25 24.45 18.35 23.6 19.7 23.55 19.6" fill="#23bbff" fill-rule="evenodd" stroke="none"/>
      <path d="M25.05 21.6 L25.3 21.85 24.95 22.0 24.75 21.8 24.65 21.75 23.95 21.2 23.65 21.0 23.1 20.65 22.9 20.5 22.7 20.4 22.55 20.3 23.2 19.8 23.55 19.6 23.6 19.7 23.95 20.15 24.2 20.45 24.35 20.75 24.4 20.8 24.95 21.5 25.05 21.6" fill="#1dabf5" fill-rule="evenodd" stroke="none"/>
      <path d="M24.75 21.8 L24.35 22.1 24.25 22.1 23.25 22.55 Q21.8 23.1 20.4 22.95 L20.55 22.7 20.8 22.2 22.1 21.9 23.65 21.0 23.95 21.2 24.65 21.75 24.75 21.8" fill="#1076b8" fill-rule="evenodd" stroke="none"/>
      <path d="M22.9 20.5 L23.1 20.65 23.65 21.0 22.1 21.9 20.8 22.2 20.95 21.9 21.1 21.3 22.2 21.0 22.5 20.85 22.9 20.5" fill="#14a0ef" fill-rule="evenodd" stroke="none"/>
      <path d="M22.7 17.75 L22.65 17.9 22.65 17.95 Q22.25 18.65 21.45 18.95 L21.3 19.05 21.0 19.1 20.0 19.25 20.6 17.65 21.15 17.7 22.7 17.75" fill="#3be7eb" fill-rule="evenodd" stroke="none"/>
      <path d="M18.3 19.75 L18.85 19.4 18.9 19.35 19.15 19.05 19.2 19.1 20.0 19.25 21.0 19.1 21.3 19.05 21.45 18.95 21.45 19.3 21.45 19.85 21.1 19.8 20.9 19.8 19.4 20.1 18.75 20.4 18.6 20.5 18.55 20.35 18.5 20.1 18.3 19.75" fill="#23dffc" fill-rule="evenodd" stroke="none"/>
      <path d="M22.55 20.3 L22.7 20.4 22.9 20.5 22.5 20.85 22.2 21.0 21.1 21.3 20.25 21.4 20.6 20.6 20.9 19.8 21.1 19.8 21.45 19.85 21.85 19.9 22.55 20.3" fill="#1ac9ff" fill-rule="evenodd" stroke="none"/>
      <path d="M18.4 21.05 L18.55 20.35 18.6 20.5 18.75 20.4 19.4 20.1 20.9 19.8 20.6 20.6 20.25 21.4 18.45 21.1 18.4 21.05" fill="#1fc7f6" fill-rule="evenodd" stroke="none"/>
      <path d="M20.4 22.95 L18.5 22.4 17.85 22.05 17.75 22.0 18.05 21.65 19.45 22.2 Q19.95 22.4 20.8 22.2 L20.55 22.7 20.4 22.95" fill="#0979b8" fill-rule="evenodd" stroke="none"/>
      <path d="M18.05 21.65 L18.45 21.1 20.25 21.4 21.1 21.3 20.95 21.9 20.8 22.2 Q19.95 22.4 19.45 22.2 L18.05 21.65" fill="#1399e0" fill-rule="evenodd" stroke="none"/>
    </g>
  </defs>
</svg>
