<?xml version="1.0" encoding="UTF-8" standalone="no"?>
<svg xmlns:ffdec="https://www.free-decompiler.com/flash" xmlns:xlink="http://www.w3.org/1999/xlink" ffdec:objectType="frame" height="30.0px" width="30.0px" xmlns="http://www.w3.org/2000/svg">
  <g transform="matrix(1.0, 0.0, 0.0, 1.0, 0.0, 0.0)">
    <use ffdec:characterId="1" height="30.0" transform="matrix(1.0, 0.0, 0.0, 1.0, 0.0, 0.0)" width="30.0" xlink:href="#shape0"/>
  </g>
  <defs>
    <g id="shape0" transform="matrix(1.0, 0.0, 0.0, 1.0, 0.0, 0.0)">
      <path d="M0.0 0.0 L30.0 0.0 30.0 30.0 0.0 30.0 0.0 0.0" fill="#33cc66" fill-opacity="0.0" fill-rule="evenodd" stroke="none"/>
      <path d="M0.0 3.3 L0.2 1.85 Q0.85 0.0 3.3 0.0 L26.7 0.0 Q29.15 0.0 29.8 1.85 L30.0 3.3 30.0 26.7 Q30.0 29.3 27.95 29.85 L26.7 30.0 3.3 30.0 2.05 29.85 Q0.0 29.3 0.0 26.7 L0.0 3.3" fill="#a5cac9" fill-rule="evenodd" stroke="none"/>
      <path d="M4.85 25.55 L6.75 22.8 7.55 22.7 5.25 25.8 4.85 25.55 Q4.25 25.3 3.65 25.0 L5.0 21.5 2.95 20.35 2.75 18.25 4.5 19.2 8.3 5.65 15.3 3.35 16.2 3.05 18.65 10.35 9.95 21.85 11.45 22.6 9.45 23.7 8.9 23.35 10.0 22.65 8.8 21.9 17.55 10.0 15.3 3.35" fill="none" stroke="#ffffff" stroke-linecap="round" stroke-linejoin="round" stroke-width="3.5"/>
      <path d="M12.5 20.3 L11.35 14.6 14.05 10.95 Q14.95 10.3 16.0 10.65 16.85 7.05 19.9 8.25 L20.6 8.55 Q26.8 11.2 26.75 14.95 27.7 16.95 27.25 18.4 L19.4 28.15 Q12.95 27.55 10.3 23.5 L12.5 20.3 Z" fill="none" stroke="#ffffff" stroke-linecap="round" stroke-linejoin="round" stroke-width="3.5"/>
      <path d="M18.6 8.45 Q20.7 8.5 22.3 10.1 25.5 12.1 25.9 14.2 27.2 16.75 26.25 18.05 L19.15 27.1 Q14.45 27.15 11.3 23.5 L13.4 20.35 12.1 14.65 14.65 11.4 Q21.0 12.2 18.8 13.15 L15.75 12.9 Q14.8 13.4 15.3 14.55 17.4 16.55 16.65 19.15 18.25 16.75 16.15 13.75 L19.2 14.55 19.45 14.35 Q19.55 17.15 21.85 15.2 21.15 17.45 23.15 17.55 L23.35 17.0 Q21.1 16.0 24.4 13.3 L24.45 12.65 Q22.9 13.55 22.25 14.55 19.65 16.4 20.0 13.85 20.6 13.15 20.4 12.55 21.85 10.85 21.55 10.4 L20.05 12.15 Q19.7 11.8 18.95 11.45 19.4 10.5 19.2 9.95 L18.6 11.25 16.6 10.6 Q17.35 8.2 18.6 8.45 M17.6 21.35 Q18.8 19.25 21.65 19.45 19.2 18.05 17.0 20.65 L17.6 21.35 M25.45 17.85 Q25.75 16.3 24.75 15.4 L24.25 15.9 Q25.65 17.0 24.35 18.8 24.45 19.2 25.45 17.85" fill="#004d00" fill-rule="evenodd" stroke="none"/>
      <path d="M18.6 8.45 Q17.35 8.2 16.6 10.6 L18.6 11.25 19.2 9.95 Q19.4 10.5 18.95 11.45 19.7 11.8 20.05 12.15 L21.55 10.4 Q21.85 10.85 20.4 12.55 20.6 13.15 20.0 13.85 19.65 16.4 22.25 14.55 22.9 13.55 24.45 12.65 L24.4 13.3 Q21.1 16.0 23.35 17.0 L23.15 17.55 Q21.15 17.45 21.85 15.2 19.55 17.15 19.45 14.35 L19.2 14.55 16.15 13.75 Q18.25 16.75 16.65 19.15 17.4 16.55 15.3 14.55 14.8 13.4 15.75 12.9 L18.8 13.15 Q21.0 12.2 14.65 11.4 L12.1 14.65 13.4 20.35 11.3 23.5 Q14.45 27.15 19.15 27.1 L26.25 18.05 Q27.2 16.75 25.9 14.2 25.5 12.1 22.3 10.1 20.7 8.5 18.6 8.45 M16.0 10.55 Q16.85 6.9 19.95 8.1 20.4 8.2 20.65 8.45 26.85 11.1 26.85 14.85 27.7 16.8 27.25 18.25 L19.45 27.95 Q12.95 27.4 10.4 23.3 L12.55 20.2 11.45 14.45 14.05 10.8 Q14.95 10.15 16.0 10.55 M17.6 21.35 L17.0 20.65 Q19.2 18.05 21.65 19.45 18.8 19.25 17.6 21.35 M25.45 17.85 Q24.45 19.2 24.35 18.8 25.65 17.0 24.25 15.9 L24.75 15.4 Q25.75 16.3 25.45 17.85" fill="#001c00" fill-rule="evenodd" stroke="none"/>
      <path d="M15.3 3.4 L15.65 4.45 9.5 6.5 5.25 20.8 2.85 19.25 2.8 18.4 4.5 19.25 8.35 5.75 15.3 3.4" fill="#380037" fill-rule="evenodd" stroke="none"/>
      <path d="M15.3 3.4 L16.25 3.1 18.7 10.4 9.95 21.95 11.5 22.7 9.5 23.75 8.95 23.45 10.05 22.7 8.8 22.0 17.55 10.05 15.65 4.45 15.3 3.4 M7.55 22.8 L5.3 25.9 4.8 25.65 6.75 22.9 7.55 22.8" fill="#1c0037" fill-rule="evenodd" stroke="none"/>
      <path d="M15.65 4.45 L17.55 10.05 8.8 22.0 10.05 22.7 8.95 23.45 7.55 22.8 6.75 22.9 4.8 25.65 3.65 25.1 5.05 21.6 2.95 20.45 2.85 19.25 5.25 20.8 9.5 6.5 15.65 4.45" fill="#510066" fill-rule="evenodd" stroke="none"/>
      <path d="M5.15 18.85 L5.15 22.15 8.45 22.15 8.45 23.25 5.15 23.25 5.15 26.55 4.05 26.55 4.05 23.25 0.75 23.25 0.75 22.15 4.05 22.15 4.05 18.85 5.15 18.85 M11.25 17.85 L13.05 17.85 13.55 17.9 14.05 18.1 14.4 18.25 14.65 18.55 14.8 18.9 15.0 19.25 15.0 19.6 15.05 20.05 15.05 20.6 15.0 21.55 14.95 22.05 14.75 22.45 14.5 22.75 14.15 23.0 13.8 23.15 12.85 23.3 11.95 23.4 11.5 23.5 11.35 23.7 11.25 23.95 11.2 24.4 11.2 24.5 11.25 24.7 11.35 24.75 11.45 24.75 11.75 24.75 15.1 24.75 14.4 26.5 9.3 26.5 9.3 24.45 9.35 23.6 9.45 23.1 9.7 22.6 10.0 22.25 10.35 22.0 10.85 21.85 11.5 21.75 12.1 21.65 12.25 21.6 12.8 21.55 12.95 21.35 13.05 21.0 13.1 20.5 12.95 19.75 12.75 19.55 12.35 19.55 11.8 19.55 Q11.6 19.55 11.5 19.65 11.3 19.7 11.2 19.85 L11.15 20.35 11.1 20.9 11.1 21.1 9.3 21.1 9.3 20.65 9.35 19.45 9.55 18.7 9.95 18.25 10.35 18.05 10.8 17.9 11.25 17.85 M16.2 18.8 L16.55 18.45 17.05 18.1 17.6 17.95 18.45 17.9 18.95 17.9 19.6 17.9 20.2 18.1 20.6 18.35 21.05 18.65 21.35 19.15 21.45 19.55 21.55 19.9 21.6 20.4 21.6 23.75 21.55 24.45 21.4 25.05 21.15 25.65 20.9 25.9 20.55 26.2 20.15 26.35 19.7 26.5 19.1 26.5 18.65 26.55 18.0 26.5 17.4 26.4 17.0 26.25 16.55 25.95 16.15 25.6 15.85 25.0 15.75 24.35 15.7 23.75 15.7 20.35 15.85 19.6 Q15.85 19.35 16.0 19.2 L16.2 18.8 M18.1 19.7 Q17.9 19.8 17.85 19.9 L17.65 20.15 Q17.55 20.35 17.6 20.9 L17.6 23.1 17.6 23.75 17.8 24.25 18.15 24.55 18.75 24.65 18.8 24.65 19.35 24.5 19.6 24.2 19.7 23.65 19.75 23.15 19.75 21.0 19.65 20.4 19.5 19.9 19.2 19.75 18.7 19.6 18.45 19.6 18.1 19.7 M22.25 19.6 Q22.25 19.35 22.4 19.2 L22.6 18.8 22.95 18.45 23.45 18.1 24.0 17.95 24.85 17.9 25.35 17.9 26.0 17.9 26.6 18.1 27.0 18.35 27.45 18.65 27.75 19.15 27.85 19.55 27.95 19.9 28.0 20.4 28.0 23.75 27.95 24.45 27.8 25.05 27.55 25.65 27.3 25.9 26.95 26.2 26.55 26.35 26.1 26.5 25.5 26.5 25.05 26.55 24.4 26.5 23.8 26.4 23.4 26.25 22.95 25.95 22.55 25.6 22.25 25.0 22.15 24.35 22.1 23.75 22.1 20.35 22.25 19.6 M24.05 20.15 L23.95 20.9 23.95 23.1 23.95 23.75 24.2 24.25 24.55 24.55 25.15 24.65 25.2 24.65 25.7 24.5 26.0 24.2 26.1 23.65 26.15 23.15 26.15 21.0 26.05 20.4 25.9 19.9 25.6 19.75 25.1 19.6 24.85 19.6 24.5 19.7 24.25 19.9 24.05 20.15" fill="#ff0000" fill-rule="evenodd" stroke="none"/>
    </g>
  </defs>
</svg>
