<?xml version="1.0" encoding="UTF-8" standalone="no"?>
<svg xmlns:ffdec="https://www.free-decompiler.com/flash" xmlns:xlink="http://www.w3.org/1999/xlink" ffdec:objectType="frame" height="30.05px" width="30.0px" xmlns="http://www.w3.org/2000/svg">
  <g transform="matrix(1.0, 0.0, 0.0, 1.0, 0.0, 0.0)">
    <use ffdec:characterId="1" height="30.05" transform="matrix(1.0, 0.0, 0.0, 1.0, 0.0, 0.0)" width="30.0" xlink:href="#shape0"/>
    <use ffdec:characterId="3" height="24.6" transform="matrix(1.0, 0.0, 0.0, 1.0, 1.65, 2.55)" width="26.35" xlink:href="#sprite0"/>
  </g>
  <defs>
    <g id="shape0" transform="matrix(1.0, 0.0, 0.0, 1.0, 0.0, 0.0)">
      <path d="M0.0 0.0 L30.0 0.0 30.0 30.0 0.0 30.0 0.0 0.0" fill="#33cc66" fill-opacity="0.0" fill-rule="evenodd" stroke="none"/>
      <path d="M26.7 0.05 Q30.0 0.05 30.0 3.35 L30.0 26.75 Q30.0 30.05 26.7 30.05 L3.3 30.05 Q0.0 30.05 0.0 26.75 L0.0 3.35 Q0.0 0.05 3.3 0.05 L26.7 0.05" fill="#a56db4" fill-rule="evenodd" stroke="none"/>
    </g>
    <g id="sprite0" transform="matrix(1.0, 0.0, 0.0, 1.0, 0.0, 0.0)">
      <use ffdec:characterId="2" height="24.6" transform="matrix(1.0, 0.0, 0.0, 1.0, 0.0, 0.0)" width="26.35" xlink:href="#shape1"/>
    </g>
    <g id="shape1" transform="matrix(1.0, 0.0, 0.0, 1.0, 0.0, 0.0)">
      <path d="M13.1 23.4 Q8.45 23.4 5.2 20.2 1.95 16.9 1.95 12.45 1.95 7.9 5.2 4.7 8.45 1.45 13.1 1.45 17.65 1.45 21.0 4.7 24.25 7.9 24.25 12.45 24.25 16.9 21.0 20.2 17.65 23.4 13.1 23.4" fill="#95f0a0" fill-rule="evenodd" stroke="none"/>
      <path d="M20.75 5.0 Q23.8 8.0 23.8 12.3 23.8 16.55 20.75 19.65 17.6 22.65 13.3 22.65 8.95 22.65 5.85 19.65 2.75 16.55 2.75 12.3 2.75 8.0 5.85 5.0 8.95 1.95 13.3 1.95 17.6 1.95 20.75 5.0" fill="#77df8e" fill-rule="evenodd" stroke="none"/>
      <path d="M19.65 5.85 Q20.4 6.15 22.5 4.75 21.5 7.2 21.7 8.1 24.15 8.3 26.35 9.05 23.05 11.2 23.05 12.15 23.05 12.8 25.25 14.05 22.85 14.4 22.6 15.35 24.5 17.3 25.5 18.9 L21.8 18.3 21.75 18.25 21.45 18.5 Q20.95 18.85 22.5 22.25 19.7 19.65 19.35 20.2 19.05 21.95 19.5 24.6 17.15 22.65 16.25 21.35 L16.1 21.4 Q15.6 21.4 14.4 22.75 L13.25 24.25 13.1 24.25 12.45 23.4 11.35 22.25 10.4 21.4 10.3 21.4 10.1 21.35 10.0 21.4 Q9.15 22.65 6.85 24.6 7.3 21.95 7.0 20.2 6.65 19.65 3.8 22.25 5.2 19.25 4.95 18.6 L4.95 18.55 4.65 18.25 4.55 18.3 0.8 18.9 Q1.8 17.3 3.75 15.35 3.45 14.4 1.15 14.05 3.3 12.8 3.3 12.15 3.3 11.2 0.0 9.05 2.2 8.3 4.6 8.1 4.8 7.2 3.8 4.75 5.9 6.15 6.65 5.85 L5.75 0.0 9.95 3.4 10.15 3.5 10.4 3.4 11.8 2.05 13.15 0.45 13.25 0.4 13.25 0.55 Q15.25 3.0 16.1 3.5 L16.15 3.5 16.35 3.4 20.65 0.0 Q19.7 4.85 19.65 5.85" fill="#b0ffb0" fill-rule="evenodd" stroke="none"/>
      <path d="M19.75 1.65 Q18.95 5.65 18.9 6.55 19.55 6.75 21.35 5.65 20.5 7.7 20.65 8.4 L24.65 9.2 Q21.85 11.05 21.85 11.8 21.85 12.35 23.7 13.35 21.7 13.7 21.45 14.45 23.05 16.1 23.95 17.5 L20.8 16.95 20.75 16.9 Q20.5 16.9 20.45 17.1 20.05 17.45 21.35 20.2 18.95 18.05 18.65 18.5 18.4 20.0 18.8 22.2 16.8 20.55 16.0 19.5 L15.8 19.55 Q15.45 19.55 14.4 20.65 L13.45 21.9 13.45 21.95 13.25 21.95 13.25 21.9 12.75 21.2 11.75 20.2 10.95 19.55 10.85 19.55 10.7 19.5 10.65 19.55 7.9 22.2 Q8.3 20.0 8.05 18.5 7.75 18.05 5.35 20.2 6.5 17.75 6.3 17.2 6.3 16.9 6.05 16.9 L5.95 16.95 2.75 17.5 Q3.55 16.1 5.25 14.45 5.0 13.7 3.0 13.35 4.8 12.35 4.8 11.8 4.8 11.05 2.05 9.2 L6.0 8.4 Q6.1 7.7 5.35 5.65 7.1 6.75 7.75 6.55 L6.95 1.65 10.6 4.45 10.75 4.6 10.95 4.45 12.2 3.35 13.35 2.05 13.4 1.95 13.4 2.1 15.85 4.6 15.9 4.6 16.05 4.45 19.75 1.65" fill="#95f0a0" fill-rule="evenodd" stroke="none"/>
      <path d="M20.35 6.55 Q19.65 8.2 19.75 8.8 L23.1 9.45 Q20.75 10.95 20.75 11.55 20.75 12.05 22.3 12.85 20.65 13.1 20.45 13.75 L22.5 16.2 19.85 15.75 Q19.65 15.75 19.6 15.9 19.25 16.15 20.35 18.45 18.35 16.65 18.1 17.05 17.9 18.25 18.2 20.05 L15.9 17.85 15.75 17.85 Q15.45 17.85 14.55 18.8 L13.75 19.85 13.6 19.85 13.15 19.25 12.35 18.45 11.7 17.85 11.6 17.85 11.45 17.85 9.15 20.05 Q9.45 18.25 9.25 17.05 9.0 16.65 7.0 18.45 7.95 16.4 7.85 15.95 L7.55 15.75 7.5 15.75 4.8 16.2 Q5.55 15.05 6.9 13.75 6.75 13.1 5.05 12.85 6.55 12.05 6.55 11.55 6.55 10.95 4.25 9.45 5.8 8.95 7.55 8.8 7.65 8.2 7.0 6.55 8.5 7.5 9.0 7.3 L8.35 3.3 11.4 5.6 11.5 5.65 11.65 5.6 12.7 4.7 13.7 3.6 13.7 3.65 Q15.15 5.35 15.8 5.65 L15.95 5.6 19.0 3.3 18.3 7.3 Q18.85 7.5 20.35 6.55" fill="#77df8e" fill-rule="evenodd" stroke="none"/>
      <path d="M19.3 11.95 Q19.3 14.4 17.65 16.05 16.05 17.8 13.75 17.8 11.45 17.8 9.8 16.05 8.15 14.4 8.15 11.95 8.15 9.55 9.8 7.85 11.45 6.2 13.75 6.2 16.05 6.2 17.65 7.85 19.3 9.55 19.3 11.95" fill="#b0ffb0" fill-rule="evenodd" stroke="none"/>
      <path d="M18.75 11.85 Q18.75 13.9 17.35 15.35 15.9 16.85 13.95 16.85 12.0 16.85 10.6 15.35 9.15 13.9 9.15 11.85 9.15 9.8 10.6 8.35 12.0 6.9 13.95 6.9 15.9 6.9 17.35 8.35 18.75 9.8 18.75 11.85" fill="#95f0a0" fill-rule="evenodd" stroke="none"/>
      <path d="M14.15 16.0 Q12.45 16.0 11.2 14.75 10.0 13.45 10.0 11.7 10.0 9.95 11.2 8.65 12.45 7.45 14.15 7.45 15.8 7.45 17.0 8.65 18.2 9.95 18.2 11.7 18.2 13.45 17.0 14.75 15.8 16.0 14.15 16.0" fill="url(#gradient0)" fill-rule="evenodd" stroke="none"/>
    </g>
    <linearGradient gradientTransform="matrix(-0.005, 0.0, 0.0, 0.0052, 14.1, 11.7)" gradientUnits="userSpaceOnUse" id="gradient0" spreadMethod="reflect" x1="-819.2" x2="819.2">
      <stop offset="0.0" stop-color="#95f0a0"/>
      <stop offset="0.5215686274509804" stop-color="#77df8e"/>
      <stop offset="1.0" stop-color="#93ef9f"/>
    </linearGradient>
  </defs>
</svg>
