<?xml version="1.0" encoding="UTF-8" standalone="no"?>
<svg xmlns:ffdec="https://www.free-decompiler.com/flash" xmlns:xlink="http://www.w3.org/1999/xlink" ffdec:objectType="frame" height="30.05px" width="30.0px" xmlns="http://www.w3.org/2000/svg">
  <g transform="matrix(1.0, 0.0, 0.0, 1.0, 0.0, 0.0)">
    <use ffdec:characterId="1" height="30.05" transform="matrix(1.0, 0.0, 0.0, 1.0, 0.0, 0.0)" width="30.0" xlink:href="#shape0"/>
  </g>
  <defs>
    <g id="shape0" transform="matrix(1.0, 0.0, 0.0, 1.0, 0.0, 0.0)">
      <path d="M0.0 0.0 L30.0 0.0 30.0 30.0 0.0 30.0 0.0 0.0" fill="#33cc66" fill-opacity="0.0" fill-rule="evenodd" stroke="none"/>
      <path d="M26.7 0.05 Q30.0 0.05 30.0 3.35 L30.0 26.75 Q30.0 30.05 26.7 30.05 L3.3 30.05 Q0.0 30.05 0.0 26.75 L0.0 3.35 Q0.0 0.05 3.3 0.05 L26.7 0.05" fill="#949bd0" fill-rule="evenodd" stroke="none"/>
      <path d="M5.5 12.2 L10.75 12.2 10.75 25.95 18.55 25.95 18.55 12.1 23.45 12.1 Q20.35 7.95 14.85 5.05 9.25 7.95 5.5 12.2 Z" fill="none" stroke="#ffffff" stroke-linecap="round" stroke-linejoin="round" stroke-width="3.5"/>
      <path d="M12.35 25.95 L10.75 25.95 10.75 12.2 5.5 12.2 Q9.25 7.95 14.85 5.05 L16.55 6.0 Q15.4 6.6 14.4 7.15 L13.65 7.4 Q12.6 7.9 12.35 8.45 10.75 9.5 9.75 10.5 L10.8 10.5 10.9 10.9 Q11.1 11.3 11.6 11.3 12.05 11.3 12.3 10.95 L12.35 10.9 12.35 25.95" fill="#fff700" fill-rule="evenodd" stroke="none"/>
      <path d="M12.35 25.95 L12.35 10.9 12.5 10.4 Q12.5 9.6 11.65 9.65 10.8 9.7 10.8 10.45 L10.8 10.5 9.75 10.5 Q10.75 9.5 12.35 8.45 L12.2 8.85 12.3 9.3 Q12.5 9.7 13.0 9.7 13.65 9.7 15.1 8.0 15.1 7.1 14.4 7.15 15.4 6.6 16.55 6.0 20.85 8.6 23.45 12.1 L18.55 12.1 18.55 25.95 12.35 25.95" fill="url(#gradient0)" fill-rule="evenodd" stroke="none"/>
      <path d="M12.35 10.9 L12.3 10.95 Q12.05 11.3 11.6 11.3 11.1 11.3 10.9 10.9 L10.8 10.5 10.8 10.45 Q10.8 9.7 11.65 9.65 12.5 9.6 12.5 10.4 L12.35 10.9 M12.35 8.45 Q12.6 7.9 13.65 7.4 L14.4 7.15 Q15.1 7.1 15.1 8.0 13.65 9.7 13.0 9.7 12.5 9.7 12.3 9.3 L12.2 8.85 12.35 8.45" fill="#ffffff" fill-rule="evenodd" stroke="none"/>
      <path d="M16.55 6.0 L14.85 5.05 Q9.25 7.95 5.5 12.2 L10.75 12.2 10.75 25.95 12.35 25.95 18.55 25.95 18.55 12.1 23.45 12.1 Q20.85 8.6 16.55 6.0 Z" fill="none" stroke="#805028" stroke-linecap="round" stroke-linejoin="round" stroke-width="1.0"/>
    </g>
    <linearGradient gradientTransform="matrix(0.0, -0.0109, 0.0128, 0.0, 14.5, 16.25)" gradientUnits="userSpaceOnUse" id="gradient0" spreadMethod="pad" x1="-819.2" x2="819.2">
      <stop offset="0.0" stop-color="#f49302"/>
      <stop offset="1.0" stop-color="#fff600"/>
    </linearGradient>
  </defs>
</svg>
