<?xml version="1.0" encoding="UTF-8" standalone="no"?>
<svg xmlns:ffdec="https://www.free-decompiler.com/flash" xmlns:xlink="http://www.w3.org/1999/xlink" ffdec:objectType="frame" height="30.0px" width="30.0px" xmlns="http://www.w3.org/2000/svg">
  <g transform="matrix(1.0, 0.0, 0.0, 1.0, 0.0, 0.0)">
    <use ffdec:characterId="1" height="30.0" transform="matrix(1.0, 0.0, 0.0, 1.0, 0.0, 0.0)" width="30.0" xlink:href="#shape0"/>
  </g>
  <defs>
    <g id="shape0" transform="matrix(1.0, 0.0, 0.0, 1.0, 0.0, 0.0)">
      <path d="M0.0 0.0 L30.0 0.0 30.0 30.0 0.0 30.0 0.0 0.0" fill="#33cc66" fill-opacity="0.0" fill-rule="evenodd" stroke="none"/>
      <path d="M3.3 0.0 L26.7 0.0 Q30.0 0.0 30.0 3.3 L30.0 26.7 Q30.0 30.0 26.7 30.0 L3.3 30.0 Q0.0 30.0 0.0 26.7 L0.0 3.3 Q0.0 0.0 3.3 0.0" fill="#ffcc00" fill-rule="evenodd" stroke="none"/>
      <path d="M21.8 5.65 L24.15 5.45 24.3 5.45 24.85 5.5 24.85 5.55 25.85 7.25 26.5 8.2 26.4 8.45 26.1 8.5 26.1 8.45 25.8 8.55 26.1 8.45 26.1 8.5 25.8 8.55 25.25 8.6 25.1 8.65 23.2 9.0 23.0 9.1 23.2 9.0 25.1 8.65 Q24.25 8.85 23.55 9.15 L23.0 9.1 22.75 9.1 21.35 9.65 19.95 10.3 Q19.05 10.75 18.1 11.3 L18.05 11.25 17.3 10.7 17.15 10.6 17.6 10.35 Q19.55 9.25 22.05 8.5 L22.35 8.4 23.9 7.95 23.6 7.4 23.15 6.65 22.3 5.95 22.15 5.85 21.8 5.65 M26.1 18.75 L27.15 20.85 27.2 21.0 27.4 21.55 27.35 21.55 26.15 23.1 25.55 24.05 25.25 24.05 25.1 23.8 25.15 23.8 24.95 23.6 25.15 23.8 25.1 23.8 24.95 23.6 24.9 23.55 24.65 23.05 24.55 22.95 23.55 21.3 23.35 21.2 23.55 21.3 24.55 22.95 23.5 21.7 23.35 21.2 23.25 20.95 22.25 19.85 21.1 18.8 18.8 16.95 18.1 16.45 17.1 15.7 16.9 15.6 17.1 15.7 18.1 16.45 18.8 16.95 16.25 18.6 16.15 18.7 16.4 18.85 17.9 19.75 17.85 20.0 17.55 21.25 17.2 21.75 15.2 20.7 14.0 19.9 12.1 18.6 12.0 18.55 11.15 17.85 10.7 17.55 10.75 17.4 11.15 16.6 11.95 16.3 12.05 16.25 12.35 16.2 12.6 16.3 13.05 16.6 14.15 17.4 14.2 17.45 14.2 17.35 14.45 17.2 14.85 16.9 16.9 15.6 15.15 14.4 14.15 13.8 13.65 14.1 11.55 15.65 10.75 15.0 Q11.9 14.0 13.1 13.15 L12.05 12.55 10.0 11.5 9.7 11.35 8.6 10.9 Q8.2 10.7 7.9 10.65 7.3 10.25 6.1 9.95 4.65 9.55 4.4 9.95 L4.25 10.2 4.25 10.35 4.0 9.55 4.2 9.1 Q5.95 9.0 8.75 10.05 L9.45 10.3 10.7 10.85 10.8 10.9 12.6 11.75 14.05 12.5 15.15 13.1 17.35 14.55 17.7 14.8 17.9 14.95 19.7 16.3 20.15 16.65 23.55 20.05 23.75 20.3 24.75 21.55 25.15 21.1 25.65 20.35 26.0 19.35 26.05 19.15 26.1 18.75 M5.75 22.65 L4.9 22.6 4.55 22.25 Q5.15 20.6 7.15 18.4 L7.7 17.85 8.65 16.85 9.25 16.3 9.4 16.45 9.9 16.9 9.95 16.95 8.75 18.0 7.9 18.9 7.4 19.4 6.05 20.8 Q5.15 22.0 5.4 22.4 L5.65 22.6 5.75 22.65 M13.1 13.15 L14.15 13.8 13.1 13.15 M14.2 17.45 L16.05 18.65 16.15 18.7 16.05 18.65 14.2 17.45" fill="#f4970c" fill-rule="evenodd" stroke="none"/>
      <path d="M25.1 8.65 L25.25 8.6 25.8 8.55 26.1 8.5 26.4 8.45 26.2 9.1 26.15 9.3 24.7 11.35 23.9 12.4 24.2 11.8 24.25 11.75 24.5 10.85 23.6 10.65 23.55 10.65 22.95 10.65 Q23.9 9.6 23.6 9.2 L23.55 9.15 Q24.25 8.85 25.1 8.65 L25.8 8.55 25.1 8.65 M25.25 24.05 L24.55 24.15 24.35 24.2 21.9 23.6 20.65 23.25 21.3 23.3 21.4 23.35 22.3 23.2 22.15 22.35 22.1 22.3 21.9 21.75 23.5 21.8 23.5 21.7 24.55 22.95 24.65 23.05 24.9 23.55 24.95 23.6 25.1 23.8 25.25 24.05 M8.25 22.25 L6.25 22.6 6.0 22.6 5.75 22.65 5.65 22.6 5.4 22.4 Q5.15 22.0 6.05 20.8 L7.4 19.4 Q7.0 19.95 7.05 20.25 L7.05 20.35 8.4 20.3 8.25 20.75 Q7.95 21.65 8.25 22.25 M5.6 12.55 L4.5 10.8 4.4 10.55 4.25 10.35 4.25 10.2 4.4 9.95 Q4.65 9.55 6.1 9.95 7.3 10.25 7.9 10.65 7.25 10.45 7.0 10.65 L6.9 10.65 Q6.65 11.0 7.45 11.9 L6.95 11.95 Q6.05 12.0 5.6 12.55 M26.15 9.3 L26.05 8.8 26.1 8.5 26.05 8.8 26.15 9.3 M24.35 24.2 L24.75 23.9 25.1 23.8 24.75 23.9 24.35 24.2 M24.9 23.55 L24.55 22.95 24.9 23.55" fill="#a6400c" fill-rule="evenodd" stroke="none"/>
      <path d="M21.8 5.65 L22.15 5.85 22.3 5.95 23.15 6.65 23.6 7.4 23.9 7.95 22.35 8.4 22.05 8.5 Q19.55 9.25 17.6 10.35 L17.15 10.6 14.75 9.2 15.8 8.1 16.35 7.6 Q18.3 6.65 20.25 6.1 21.05 5.8 21.8 5.65 M22.25 14.45 L25.05 17.5 26.1 18.75 26.05 19.15 26.0 19.35 25.65 20.35 25.15 21.1 24.75 21.55 23.75 20.3 23.55 20.05 20.15 16.65 19.7 16.3 17.9 14.95 17.7 14.8 17.75 14.1 18.1 12.9 Q18.4 12.55 19.4 13.15 L19.75 13.4 19.85 13.45 21.5 14.1 21.95 14.35 22.25 14.45 M4.55 22.25 L4.05 21.6 2.9 20.15 2.65 19.95 Q2.9 19.05 3.55 18.0 L4.9 16.8 5.0 16.75 6.75 15.55 7.2 15.05 7.7 15.5 8.25 16.2 Q8.45 16.6 8.15 17.05 L7.7 17.85 7.15 18.4 Q5.15 20.6 4.55 22.25 M4.2 9.1 L4.6 8.4 5.5 6.8 5.6 6.45 7.75 6.55 9.35 7.35 9.45 7.4 11.25 8.6 11.85 8.8 11.6 9.45 11.2 10.25 10.35 10.45 9.45 10.3 8.75 10.05 Q5.95 9.0 4.2 9.1" fill="#fbcc40" fill-rule="evenodd" stroke="none"/>
      <path d="M23.9 12.4 L23.5 12.8 22.05 14.3 21.3 13.7 20.4 13.0 21.05 12.4 21.85 11.75 22.95 10.65 23.55 10.65 23.6 10.65 24.5 10.85 24.25 11.75 24.2 11.8 23.9 12.4 M20.65 23.25 L20.1 23.05 17.2 21.75 17.55 21.25 17.85 20.0 17.9 19.75 19.55 20.6 20.45 21.1 21.9 21.75 22.1 22.3 22.15 22.35 22.3 23.2 21.4 23.35 21.3 23.3 20.65 23.25 M14.0 19.9 L13.95 19.9 13.35 20.2 11.3 21.15 8.25 22.25 Q7.95 21.65 8.25 20.75 L8.4 20.3 9.0 20.1 9.45 19.9 12.1 18.6 14.0 19.9 M6.9 14.05 L5.6 12.55 Q6.05 12.0 6.95 11.95 L7.45 11.9 7.85 12.35 8.2 12.75 8.3 12.85 10.5 14.8 10.75 15.0 11.55 15.65 12.35 16.2 12.05 16.25 11.95 16.3 11.15 16.6 10.75 17.4 10.7 17.55 10.35 17.2 9.95 16.95 9.9 16.9 9.4 16.45 9.25 16.3 7.75 14.9 6.9 14.05 M14.2 17.45 L14.15 17.4 14.2 17.35 14.2 17.45" fill="#cb7105" fill-rule="evenodd" stroke="none"/>
      <path d="M17.15 10.6 L17.3 10.7 18.05 11.25 18.1 11.3 20.4 13.0 21.3 13.7 22.05 14.3 22.25 14.45 21.95 14.35 21.5 14.1 19.85 13.45 19.75 13.4 19.4 13.15 Q18.4 12.55 18.1 12.9 L17.75 14.1 17.7 14.8 17.35 14.55 15.15 13.1 14.05 12.5 12.6 11.75 10.8 10.9 10.7 10.85 9.45 10.3 10.35 10.45 11.2 10.25 11.6 9.45 11.85 8.8 11.25 8.6 9.45 7.4 9.35 7.35 7.75 6.55 9.35 6.9 9.4 6.95 Q11.65 7.6 14.05 8.85 L15.3 8.15 16.35 7.6 15.8 8.1 14.75 9.2 14.05 8.85 14.75 9.2 17.15 10.6 M3.55 18.0 L4.5 16.65 4.55 16.6 Q5.55 15.35 6.9 14.05 L7.75 14.9 9.25 16.3 8.65 16.85 7.7 17.85 8.15 17.05 Q8.45 16.6 8.25 16.2 L7.7 15.5 7.2 15.05 6.75 15.55 5.0 16.75 4.9 16.8 3.55 18.0 M10.75 15.0 L10.5 14.8 8.3 12.85 8.65 12.5 10.0 11.5 12.05 12.55 13.1 13.15 Q11.9 14.0 10.75 15.0" fill="#f9ffd4" fill-rule="evenodd" stroke="none"/>
      <path d="M26.4 8.45 L26.5 8.2 25.85 7.25 24.85 5.55 24.85 5.5 24.3 5.45 24.15 5.45 21.8 5.65 Q21.05 5.8 20.25 6.1 18.3 6.65 16.35 7.6 L15.3 8.15 14.05 8.85 14.75 9.2 17.15 10.6 17.3 10.7 18.05 11.25 18.1 11.3 Q19.05 10.75 19.95 10.3 L21.35 9.65 22.75 9.1 23.0 9.1 23.2 9.0 25.1 8.65 25.8 8.55 26.1 8.45 26.1 8.5 26.05 8.8 26.15 9.3 24.7 11.35 23.9 12.4 23.5 12.8 22.05 14.3 22.25 14.45 25.05 17.5 26.1 18.75 27.15 20.85 27.2 21.0 27.4 21.55 27.35 21.55 26.15 23.1 25.55 24.05 25.25 24.05 24.55 24.15 24.35 24.2 21.9 23.6 20.65 23.25 20.1 23.05 17.2 21.75 15.2 20.7 14.0 19.9 13.95 19.9 13.35 20.2 11.3 21.15 8.25 22.25 6.25 22.6 6.0 22.6 5.75 22.65 4.9 22.6 4.55 22.25 4.05 21.6 2.9 20.15 2.65 19.95 Q2.9 19.05 3.55 18.0 L4.5 16.65 4.55 16.6 Q5.55 15.35 6.9 14.05 L5.6 12.55 4.5 10.8 4.4 10.55 4.25 10.35 4.0 9.55 4.2 9.1 4.6 8.4 5.5 6.8 5.6 6.45 7.75 6.55 9.35 6.9 9.4 6.95 Q11.65 7.6 14.05 8.85 M26.4 8.45 L26.2 9.1 26.15 9.3 M23.0 9.1 L23.55 9.15 23.6 9.2 Q23.9 9.6 22.95 10.65 L21.85 11.75 21.05 12.4 20.4 13.0 21.3 13.7 22.05 14.3 M21.9 21.75 L20.45 21.1 19.55 20.6 17.9 19.75 16.4 18.85 16.15 18.7 16.05 18.65 14.2 17.45 14.15 17.4 13.05 16.6 12.6 16.3 12.35 16.2 11.55 15.65 10.75 15.0 10.5 14.8 8.3 12.85 8.2 12.75 7.85 12.35 7.45 11.9 Q6.65 11.0 6.9 10.65 L7.0 10.65 Q7.25 10.45 7.9 10.65 7.3 10.25 6.1 9.95 4.65 9.55 4.4 9.95 L4.25 10.2 4.25 10.35 M23.5 21.7 L23.5 21.8 21.9 21.75 M18.8 16.95 L21.1 18.8 22.25 19.85 23.25 20.95 23.35 21.2 23.55 21.3 24.55 22.95 24.9 23.55 24.95 23.6 25.15 23.8 25.1 23.8 24.75 23.9 24.35 24.2 M23.35 21.2 L23.5 21.7 M13.1 13.15 L12.05 12.55 10.0 11.5 8.65 12.5 8.3 12.85 M11.55 15.65 L13.65 14.1 14.15 13.8 13.1 13.15 M14.15 13.8 L15.15 14.4 16.9 15.6 17.1 15.7 18.1 16.45 18.8 16.95 16.25 18.6 16.15 18.7 M7.9 10.65 Q8.2 10.7 8.6 10.9 L9.7 11.35 10.0 11.5 M9.25 16.3 L7.75 14.9 6.9 14.05 M7.4 19.4 L7.9 18.9 8.75 18.0 9.95 16.95 9.9 16.9 9.4 16.45 9.25 16.3 M7.4 19.4 L6.05 20.8 Q5.15 22.0 5.4 22.4 L5.65 22.6 5.75 22.65 M8.4 20.3 L7.05 20.35 7.05 20.25 Q7.0 19.95 7.4 19.4 M12.1 18.6 L9.45 19.9 9.0 20.1 8.4 20.3 M10.7 17.55 L11.15 17.85 12.0 18.55 12.1 18.6 14.0 19.9 M14.2 17.35 L14.15 17.4 M16.9 15.6 L14.85 16.9 14.45 17.2 14.2 17.35 M10.7 17.55 L10.35 17.2 9.95 16.95 M18.1 11.3 L20.4 13.0" fill="none" stroke="#ffffff" stroke-linecap="round" stroke-linejoin="round" stroke-width="3.0"/>
      <path d="M21.8 5.65 L24.15 5.45 24.3 5.45 24.85 5.5 24.85 5.55 25.85 7.25 26.5 8.2 26.4 8.45 26.1 8.5 26.1 8.45 25.9 8.55 25.8 8.55 25.9 8.55 26.1 8.45 26.1 8.5 26.05 8.8 26.15 9.3 24.7 11.35 23.9 12.4 24.2 11.8 24.25 11.75 24.5 10.85 23.6 10.65 23.55 10.65 22.95 10.65 Q23.9 9.6 23.6 9.2 L23.55 9.15 23.0 9.1 22.75 9.1 21.35 9.65 19.95 10.3 Q19.05 10.75 18.1 11.3 L18.05 11.25 17.3 10.7 17.15 10.6 17.6 10.35 Q19.55 9.25 22.05 8.5 L22.35 8.4 23.9 7.95 23.6 7.4 23.15 6.65 22.3 5.95 22.15 5.85 21.8 5.65 M25.1 8.65 L23.2 9.0 23.0 9.1 23.2 9.0 25.1 8.65 25.8 8.55 25.25 8.6 25.1 8.65 M26.1 18.75 L27.15 20.85 27.2 21.0 27.4 21.55 27.35 21.55 26.15 23.1 25.55 24.05 25.25 24.05 25.1 23.8 25.15 23.8 24.95 23.6 25.15 23.8 25.1 23.8 24.95 23.6 24.9 23.55 24.65 23.05 24.55 22.95 23.5 21.7 23.35 21.2 23.25 20.95 22.25 19.85 21.1 18.8 18.8 16.95 18.1 16.45 17.1 15.7 16.9 15.6 17.1 15.7 18.1 16.45 18.8 16.95 16.25 18.6 16.15 18.7 16.4 18.85 17.9 19.75 17.85 20.0 17.55 21.25 17.2 21.75 15.2 20.7 14.0 19.9 12.1 18.6 12.0 18.55 11.15 17.85 10.7 17.55 10.75 17.4 11.15 16.6 11.95 16.3 12.05 16.25 12.35 16.2 12.6 16.3 13.05 16.6 14.15 17.4 14.2 17.45 14.2 17.35 14.45 17.2 14.85 16.9 16.9 15.6 15.15 14.4 14.15 13.8 13.65 14.1 11.55 15.65 10.75 15.0 Q11.9 14.0 13.1 13.15 L12.05 12.55 10.0 11.5 9.7 11.35 8.6 10.9 Q8.2 10.7 7.9 10.65 7.3 10.25 6.1 9.95 4.65 9.55 4.4 9.95 L4.25 10.2 4.25 10.35 4.0 9.55 4.2 9.1 Q5.95 9.0 8.75 10.05 L9.45 10.3 10.7 10.85 10.8 10.9 12.6 11.75 14.05 12.5 15.15 13.1 17.35 14.55 17.7 14.8 17.9 14.95 19.7 16.3 20.15 16.65 23.55 20.05 23.75 20.3 24.75 21.55 25.15 21.1 25.65 20.35 26.0 19.35 26.05 19.15 26.1 18.75 M5.75 22.65 L4.9 22.6 4.55 22.25 Q5.15 20.6 7.15 18.4 L7.7 17.85 8.65 16.85 9.25 16.3 9.4 16.45 9.9 16.9 9.95 16.95 8.75 18.0 7.9 18.9 7.4 19.4 6.05 20.8 Q5.15 22.0 5.4 22.4 L5.65 22.6 5.75 22.65 M24.55 22.95 L23.55 21.3 23.35 21.2 23.55 21.3 24.55 22.95 M14.15 13.8 L13.1 13.15 14.15 13.8 M14.2 17.45 L16.05 18.65 16.15 18.7 16.05 18.65 14.2 17.45" fill="#f4970c" fill-rule="evenodd" stroke="none"/>
      <path d="M25.1 8.65 L25.25 8.6 25.8 8.55 25.1 8.65 M26.1 8.5 L26.4 8.45 26.2 9.1 26.15 9.3 26.05 8.8 26.1 8.5 M25.25 24.05 L24.55 24.15 24.35 24.2 21.9 23.6 20.65 23.25 21.3 23.3 21.4 23.35 22.3 23.2 22.15 22.35 22.1 22.3 21.9 21.75 23.5 21.8 23.5 21.7 24.55 22.95 24.65 23.05 24.9 23.55 24.95 23.6 25.1 23.8 25.25 24.05 M8.25 22.25 L6.25 22.6 6.0 22.6 5.75 22.65 5.65 22.6 5.4 22.4 Q5.15 22.0 6.05 20.8 L7.4 19.4 Q7.0 19.95 7.05 20.25 L7.05 20.35 8.4 20.3 8.25 20.75 Q7.95 21.65 8.25 22.25 M5.6 12.55 L4.5 10.8 4.4 10.55 4.25 10.35 4.25 10.2 4.4 9.95 Q4.65 9.55 6.1 9.95 7.3 10.25 7.9 10.65 7.25 10.45 7.0 10.65 L6.9 10.65 Q6.65 11.0 7.45 11.9 L6.95 11.95 Q6.05 12.0 5.6 12.55 M24.35 24.2 L24.75 23.9 25.1 23.8 24.75 23.9 24.35 24.2 M24.9 23.55 L24.55 22.95 24.9 23.55" fill="#a6400c" fill-rule="evenodd" stroke="none"/>
      <path d="M21.8 5.65 L22.15 5.85 22.3 5.95 23.15 6.65 23.6 7.4 23.9 7.95 22.35 8.4 22.05 8.5 Q19.55 9.25 17.6 10.35 L17.15 10.6 14.75 9.2 15.8 8.1 16.35 7.6 Q18.3 6.65 20.25 6.1 21.05 5.8 21.8 5.65 M22.25 14.45 L25.05 17.5 26.1 18.75 26.05 19.15 26.0 19.35 25.65 20.35 25.15 21.1 24.75 21.55 23.75 20.3 23.55 20.05 20.15 16.65 19.7 16.3 17.9 14.95 17.7 14.8 17.75 14.1 18.1 12.9 Q18.4 12.55 19.4 13.15 L19.75 13.4 19.85 13.45 21.5 14.1 21.95 14.35 22.25 14.45 M4.55 22.25 L4.05 21.6 2.9 20.15 2.65 19.95 Q2.9 19.05 3.55 18.0 L4.9 16.8 5.0 16.75 6.75 15.55 7.2 15.05 7.7 15.5 8.25 16.2 Q8.45 16.6 8.15 17.05 L7.7 17.85 7.15 18.4 Q5.15 20.6 4.55 22.25 M4.2 9.1 L4.6 8.4 5.5 6.8 5.6 6.45 7.75 6.55 9.35 7.35 9.45 7.4 11.25 8.6 11.85 8.8 11.6 9.45 11.2 10.25 10.35 10.45 9.45 10.3 8.75 10.05 Q5.95 9.0 4.2 9.1" fill="#fbcc40" fill-rule="evenodd" stroke="none"/>
      <path d="M23.9 12.4 L23.5 12.8 22.05 14.3 21.3 13.7 20.4 13.0 21.05 12.4 21.85 11.75 22.95 10.65 23.55 10.65 23.6 10.65 24.5 10.85 24.25 11.75 24.2 11.8 23.9 12.4 M20.65 23.25 L20.1 23.05 17.2 21.75 17.55 21.25 17.85 20.0 17.9 19.75 19.55 20.6 20.45 21.1 21.9 21.75 22.1 22.3 22.15 22.35 22.3 23.2 21.4 23.35 21.3 23.3 20.65 23.25 M14.0 19.9 L13.95 19.9 13.35 20.2 11.3 21.15 8.25 22.25 Q7.95 21.65 8.25 20.75 L8.4 20.3 9.0 20.1 9.45 19.9 12.1 18.6 14.0 19.9 M6.9 14.05 L5.6 12.55 Q6.05 12.0 6.95 11.95 L7.45 11.9 7.85 12.35 8.2 12.75 8.3 12.85 10.5 14.8 10.75 15.0 11.55 15.65 12.35 16.2 12.05 16.25 11.95 16.3 11.15 16.6 10.75 17.4 10.7 17.55 10.35 17.2 9.95 16.95 9.9 16.9 9.4 16.45 9.25 16.3 7.75 14.9 6.9 14.05 M14.15 17.4 L14.2 17.35 14.2 17.45 14.15 17.4" fill="#cb7105" fill-rule="evenodd" stroke="none"/>
      <path d="M17.15 10.6 L17.3 10.7 18.05 11.25 18.1 11.3 20.4 13.0 21.3 13.7 22.05 14.3 22.25 14.45 21.95 14.35 21.5 14.1 19.85 13.45 19.75 13.4 19.4 13.15 Q18.4 12.55 18.1 12.9 L17.75 14.1 17.7 14.8 17.35 14.55 15.15 13.1 14.05 12.5 12.6 11.75 10.8 10.9 10.7 10.85 9.45 10.3 10.35 10.45 11.2 10.25 11.6 9.45 11.85 8.8 11.25 8.6 9.45 7.4 9.35 7.35 7.75 6.55 9.35 6.9 9.4 6.95 Q11.65 7.6 14.05 8.85 L15.3 8.15 16.35 7.6 15.8 8.1 14.75 9.2 17.15 10.6 M3.55 18.0 L4.5 16.65 4.55 16.6 Q5.55 15.35 6.9 14.05 L7.75 14.9 9.25 16.3 8.65 16.85 7.7 17.85 8.15 17.05 Q8.45 16.6 8.25 16.2 L7.7 15.5 7.2 15.05 6.75 15.55 5.0 16.75 4.9 16.8 3.55 18.0 M8.3 12.85 L8.65 12.5 10.0 11.5 12.05 12.55 13.1 13.15 Q11.9 14.0 10.75 15.0 L10.5 14.8 8.3 12.85 M14.75 9.2 L14.05 8.85 14.75 9.2" fill="#f9ffd4" fill-rule="evenodd" stroke="none"/>
      <path d="M26.4 8.45 L26.5 8.2 25.85 7.25 24.85 5.55 24.85 5.5 24.3 5.45 24.15 5.45 21.8 5.65 Q21.05 5.8 20.25 6.1 18.3 6.65 16.35 7.6 L15.3 8.15 14.05 8.85 14.75 9.2 17.15 10.6 17.3 10.7 18.05 11.25 18.1 11.3 Q19.05 10.75 19.95 10.3 L21.35 9.65 22.75 9.1 23.0 9.1 23.2 9.0 25.1 8.65 25.8 8.55 25.9 8.55 26.1 8.45 26.1 8.5 26.05 8.8 26.15 9.3 24.7 11.35 23.9 12.4 23.5 12.8 22.05 14.3 22.25 14.45 25.05 17.5 26.1 18.75 27.15 20.85 27.2 21.0 27.4 21.55 27.35 21.55 26.15 23.1 25.55 24.05 25.25 24.05 24.55 24.15 24.35 24.2 21.9 23.6 20.65 23.25 20.1 23.05 17.2 21.75 15.2 20.7 14.0 19.9 13.95 19.9 13.35 20.2 11.3 21.15 8.25 22.25 6.25 22.6 6.0 22.6 5.75 22.65 4.9 22.6 4.55 22.25 4.05 21.6 2.9 20.15 2.65 19.95 Q2.9 19.05 3.55 18.0 L4.5 16.65 4.55 16.6 Q5.55 15.35 6.9 14.05 L5.6 12.55 4.5 10.8 4.4 10.55 4.25 10.35 4.0 9.55 4.2 9.1 4.6 8.4 5.5 6.8 5.6 6.45 7.75 6.55 9.35 6.9 9.4 6.95 Q11.65 7.6 14.05 8.85 M26.4 8.45 L26.2 9.1 26.15 9.3 M23.0 9.1 L23.55 9.15 23.6 9.2 Q23.9 9.6 22.95 10.65 L21.85 11.75 21.05 12.4 20.4 13.0 21.3 13.7 22.05 14.3 M18.8 16.95 L21.1 18.8 22.25 19.85 23.25 20.95 23.35 21.2 23.55 21.3 24.55 22.95 24.9 23.55 24.95 23.6 25.15 23.8 25.1 23.8 24.75 23.9 24.35 24.2 M23.5 21.7 L23.5 21.8 21.9 21.75 20.45 21.1 19.55 20.6 17.9 19.75 16.4 18.85 16.15 18.7 16.05 18.65 14.2 17.45 14.15 17.4 14.2 17.35 14.45 17.2 14.85 16.9 16.9 15.6 17.1 15.7 18.1 16.45 18.8 16.95 16.25 18.6 16.15 18.7 M23.35 21.2 L23.5 21.7 M10.0 11.5 L9.7 11.35 8.6 10.9 Q8.2 10.7 7.9 10.65 7.25 10.45 7.0 10.65 L6.9 10.65 Q6.65 11.0 7.45 11.9 L7.85 12.35 8.2 12.75 8.3 12.85 8.65 12.5 10.0 11.5 12.05 12.55 13.1 13.15 14.15 13.8 15.15 14.4 16.9 15.6 M10.75 15.0 L10.5 14.8 8.3 12.85 M11.55 15.65 L13.65 14.1 14.15 13.8 M10.75 15.0 L11.55 15.65 12.35 16.2 12.6 16.3 13.05 16.6 14.15 17.4 M7.9 10.65 Q7.3 10.25 6.1 9.95 4.65 9.55 4.4 9.95 L4.25 10.2 4.25 10.35 M9.25 16.3 L7.75 14.9 6.9 14.05 M9.25 16.3 L9.4 16.45 9.9 16.9 9.95 16.95 10.35 17.2 10.7 17.55 11.15 17.85 12.0 18.55 12.1 18.6 14.0 19.9 M8.4 20.3 L7.05 20.35 7.05 20.25 Q7.0 19.95 7.4 19.4 L6.05 20.8 Q5.15 22.0 5.4 22.4 L5.65 22.6 5.75 22.65 M7.4 19.4 L7.9 18.9 8.75 18.0 9.95 16.95 M12.1 18.6 L9.45 19.9 9.0 20.1 8.4 20.3 M18.1 11.3 L20.4 13.0" fill="none" stroke="#7e450d" stroke-linecap="round" stroke-linejoin="round" stroke-width="0.5"/>
    </g>
  </defs>
</svg>
