<?xml version="1.0" encoding="UTF-8" standalone="no"?>
<svg xmlns:ffdec="https://www.free-decompiler.com/flash" xmlns:xlink="http://www.w3.org/1999/xlink" ffdec:objectType="frame" height="30.0px" width="30.0px" xmlns="http://www.w3.org/2000/svg">
  <g transform="matrix(1.0, 0.0, 0.0, 1.0, 0.0, 0.0)">
    <use ffdec:characterId="1" height="30.0" transform="matrix(1.0, 0.0, 0.0, 1.0, 0.0, 0.0)" width="30.0" xlink:href="#shape0"/>
  </g>
  <defs>
    <g id="shape0" transform="matrix(1.0, 0.0, 0.0, 1.0, 0.0, 0.0)">
      <path d="M0.0 0.0 L30.0 0.0 30.0 30.0 0.0 30.0 0.0 0.0" fill="#33cc66" fill-opacity="0.0" fill-rule="evenodd" stroke="none"/>
      <path d="M26.7 0.0 L27.95 0.15 Q30.0 0.7 30.0 3.3 L30.0 26.7 29.8 28.15 Q29.15 30.0 26.7 30.0 L3.3 30.0 Q0.85 30.0 0.2 28.15 L0.0 26.7 0.0 3.3 Q0.0 0.7 2.05 0.15 L3.3 0.0 26.7 0.0" fill="#f4c402" fill-rule="evenodd" stroke="none"/>
      <path d="M12.75 3.05 L12.85 2.95 13.35 3.0 13.95 3.15 14.85 3.35 16.6 3.9 16.8 4.35 17.4 6.2 18.25 9.0 17.7 9.65 17.1 10.2 17.05 10.2 16.65 9.85 Q15.65 9.15 14.7 8.9 L14.15 8.85 13.55 8.9 13.1 8.95 12.9 9.0 12.6 9.15 Q11.65 9.55 11.0 10.45 L10.95 10.5 10.55 11.2 10.35 11.5 10.05 12.9 10.05 13.35 10.05 13.45 9.45 13.5 9.35 13.6 7.5 13.85 7.4 13.85 5.55 14.05 5.45 14.05 5.2 14.1 3.55 12.35 3.0 11.7 1.65 10.3 1.7 9.6 3.25 10.65 3.95 11.15 4.75 11.6 6.8 12.9 7.6 12.45 7.95 12.3 9.5 11.65 10.05 10.5 10.05 10.45 9.85 10.25 9.3 9.7 9.35 9.65 9.45 9.6 10.95 8.75 11.9 8.4 12.1 8.35 12.2 8.4 12.2 8.35 Q13.2 6.5 13.9 5.55 L14.2 5.25 13.8 4.7 13.5 4.2 13.3 3.8 12.75 3.05 M17.95 14.1 L18.55 14.7 18.85 15.1 18.9 15.15 20.45 16.9 21.7 18.25 22.45 19.15 24.65 21.45 24.85 21.45 27.3 21.5 27.8 22.15 28.35 22.75 28.15 23.8 27.9 24.9 27.85 25.15 26.5 25.15 26.65 26.2 26.65 26.3 26.65 26.6 26.45 26.7 25.35 27.25 24.6 27.55 23.7 27.05 22.65 26.35 22.5 26.3 22.7 26.15 22.8 26.05 22.85 26.2 Q23.05 26.4 23.55 26.4 L24.85 26.25 25.05 26.2 25.5 25.7 25.5 25.6 25.5 25.3 25.4 24.45 25.35 23.6 Q25.3 23.15 24.7 23.0 L23.95 22.8 23.85 22.75 21.25 19.65 19.9 18.15 18.25 16.4 18.15 16.2 17.0 15.15 16.35 15.55 15.6 16.05 15.0 15.65 14.9 15.6 15.05 15.45 15.75 14.7 16.2 14.35 Q16.95 13.9 17.65 13.7 L17.95 14.1 M26.5 25.15 L25.85 25.25 26.5 25.15" fill="#eda189" fill-rule="evenodd" stroke="none"/>
      <path d="M7.95 3.9 L9.35 4.35 10.85 4.85 11.9 3.85 12.15 3.6 12.35 3.45 12.0 4.2 12.0 4.25 Q11.4 5.65 11.4 6.2 L9.25 4.75 8.85 4.45 7.95 3.9 M12.1 8.35 L11.9 8.4 10.95 8.75 9.45 9.6 9.35 9.65 7.7 10.0 7.5 10.05 7.15 10.15 6.2 10.45 5.75 10.1 4.95 9.55 4.35 9.1 4.2 8.95 3.95 8.8 4.1 8.85 5.15 9.1 7.0 9.4 7.7 9.1 8.25 8.85 10.3 7.95 11.1 8.1 11.45 8.25 12.1 8.35" fill="#ffc9ab" fill-rule="evenodd" stroke="none"/>
      <path d="M3.9 4.3 L3.95 4.25 5.45 5.2 5.55 5.2 5.7 5.2 5.8 5.15 7.15 4.95 7.55 5.35 8.35 6.2 9.4 7.3 8.7 6.05 8.0 4.5 7.9 4.45 7.4 4.1 7.2 4.0 6.7 3.75 6.5 3.55 6.75 3.65 7.35 3.8 7.45 3.8 7.95 3.9 8.85 4.45 9.25 4.75 11.4 6.2 Q11.4 5.65 12.0 4.25 L12.0 4.2 12.35 3.45 12.75 3.05 13.3 3.8 13.5 4.2 13.8 4.7 14.2 5.25 13.9 5.55 Q13.2 6.5 12.2 8.35 L12.1 8.35 11.45 8.25 11.1 8.1 10.3 7.95 8.25 8.85 7.7 9.1 7.0 9.4 5.15 9.1 4.1 8.85 4.05 8.45 Q3.9 7.75 3.9 6.55 L3.9 5.3 3.9 5.25 3.9 4.35 3.9 4.3" fill="#fcfffb" fill-rule="evenodd" stroke="none"/>
      <path d="M1.7 9.6 L1.9 7.0 2.05 5.65 2.5 5.3 3.9 4.3 3.9 4.35 3.9 5.25 3.9 5.3 3.9 6.55 Q3.9 7.75 4.05 8.45 L4.1 8.85 3.95 8.8 4.2 8.95 4.35 9.1 4.95 9.55 5.75 10.1 6.2 10.45 7.15 10.15 7.5 10.05 7.7 10.0 9.35 9.65 9.3 9.7 9.85 10.25 10.05 10.45 10.05 10.5 9.5 11.65 7.95 12.3 7.6 12.45 6.8 12.9 4.75 11.6 3.95 11.15 3.25 10.65 1.7 9.6 M3.95 4.25 Q4.7 3.65 5.25 3.35 L6.5 3.55 6.7 3.75 7.2 4.0 7.4 4.1 7.9 4.45 8.0 4.5 8.7 6.05 9.4 7.3 8.35 6.2 7.55 5.35 7.15 4.95 5.8 5.15 5.7 5.2 5.55 5.2 5.45 5.2 3.95 4.25" fill="#fbeec2" fill-rule="evenodd" stroke="none"/>
      <path d="M17.1 10.2 L17.3 11.2 17.45 11.9 17.45 12.05 17.5 12.15 17.4 12.15 16.65 12.25 15.7 12.55 14.9 13.0 14.8 12.85 Q13.9 13.25 13.3 13.75 L13.05 13.95 12.55 14.55 12.1 14.2 11.65 13.9 10.4 13.15 10.05 12.9 10.35 11.5 10.55 11.2 10.95 10.5 11.0 10.45 11.2 10.3 11.9 10.05 12.0 10.1 12.9 10.8 12.95 10.8 13.0 10.95 13.3 11.25 13.75 12.35 13.8 12.4 13.8 12.5 14.75 12.45 14.85 12.45 15.05 12.45 15.55 12.4 15.25 12.15 14.8 11.85 14.75 11.85 14.8 11.8 14.85 11.35 14.75 10.05 14.7 8.9 Q15.65 9.15 16.65 9.85 L17.05 10.2 17.1 10.2" fill="#3fab89" fill-rule="evenodd" stroke="none"/>
      <path d="M17.85 13.05 L18.0 13.65 18.1 13.95 17.95 14.1 17.65 13.7 Q16.95 13.9 16.2 14.35 L15.75 14.7 15.05 15.45 14.9 15.6 15.0 15.65 15.6 16.05 15.7 16.15 14.8 16.15 14.6 16.1 14.3 16.05 14.25 16.05 13.55 15.9 13.9 15.15 14.6 14.35 14.8 14.2 15.3 13.85 15.95 13.5 Q16.95 13.05 17.7 13.05 L17.85 13.05 M13.0 15.7 L12.1 15.25 11.95 15.15 11.55 15.0 11.1 14.7 10.15 14.1 10.05 13.75 10.05 13.5 10.05 13.45 10.05 13.35 10.05 12.9 10.4 13.15 11.65 13.9 12.1 14.2 12.55 14.55 13.05 13.95 13.3 13.75 Q13.9 13.25 14.8 12.85 L14.9 13.0 14.8 13.15 14.35 13.45 13.5 14.5 13.35 14.75 13.25 15.1 13.0 15.7" fill="#5eeacd" fill-rule="evenodd" stroke="none"/>
      <path d="M13.3 9.55 L13.3 9.45 13.35 9.45 13.45 9.45 13.7 9.45 Q14.3 9.45 14.3 10.05 L14.25 10.3 14.15 10.5 13.85 10.65 13.7 10.65 13.35 10.5 13.25 10.2 13.25 10.05 13.25 9.9 13.2 9.8 13.25 9.6 13.3 9.55" fill="#ffffff" fill-rule="evenodd" stroke="none"/>
      <path d="M11.0 10.45 Q11.65 9.55 12.6 9.15 L12.9 9.0 13.1 8.95 13.55 8.9 14.15 8.85 14.7 8.9 14.75 10.05 14.85 11.35 14.8 11.8 14.75 11.85 14.8 11.85 15.25 12.15 15.55 12.4 15.05 12.45 14.85 12.45 14.75 12.45 13.8 12.5 13.8 12.4 13.75 12.35 13.3 11.25 13.0 10.95 12.95 10.8 12.9 10.8 12.0 10.1 11.9 10.05 11.2 10.3 11.0 10.45 M13.3 9.55 L13.25 9.6 13.2 9.8 13.25 9.9 13.25 10.05 13.25 10.2 13.35 10.5 13.7 10.65 13.85 10.65 14.15 10.5 14.25 10.3 14.3 10.05 Q14.3 9.45 13.7 9.45 L13.45 9.45 13.35 9.45 13.3 9.45 13.3 9.55" fill="#81f8f6" fill-rule="evenodd" stroke="none"/>
      <path d="M17.5 12.1 L17.85 13.0 17.7 13.05 Q16.95 13.05 15.95 13.5 L15.3 13.85 14.8 14.2 14.6 14.35 13.9 15.15 13.55 15.9 13.5 15.9 13.45 15.85 13.4 15.85 13.3 15.85 13.1 15.75 13.0 15.7 13.25 15.1 13.35 14.75 13.5 14.5 14.35 13.45 14.8 13.15 14.9 13.0 15.7 12.55 16.65 12.25 17.4 12.15 17.5 12.15 17.5 12.1" fill="#3eb492" fill-rule="evenodd" stroke="none"/>
      <path d="M22.5 26.3 L22.0 25.9 22.2 25.15 22.2 25.05 22.2 24.95 22.35 24.15 22.4 24.0 22.4 23.65 22.45 23.6 20.6 21.45 20.2 21.0 19.1 19.7 19.0 19.55 17.5 17.9 17.25 17.55 15.7 16.15 15.6 16.05 16.35 15.55 17.0 15.15 18.15 16.2 18.25 16.4 19.9 18.15 21.25 19.65 23.85 22.75 23.85 22.8 23.25 23.1 22.95 23.45 22.9 23.7 22.95 23.8 23.1 24.05 23.25 24.45 23.3 24.6 23.6 25.4 23.4 25.5 23.25 25.7 22.8 26.05 22.7 26.15 22.5 26.3" fill="#fdebbb" fill-rule="evenodd" stroke="none"/>
      <path d="M23.95 22.8 L24.7 23.0 Q25.3 23.15 25.35 23.6 L25.4 24.45 25.5 25.3 25.5 25.6 25.5 25.7 25.05 26.2 24.85 26.25 23.55 26.4 Q23.05 26.4 22.85 26.2 L22.8 26.05 23.25 25.7 23.4 25.5 23.6 25.4 23.3 24.6 23.25 24.45 23.1 24.05 22.95 23.8 22.9 23.7 22.95 23.45 23.25 23.1 23.85 22.8 23.95 22.8" fill="#fffdff" fill-rule="evenodd" stroke="none"/>
      <path d="M12.75 3.05 L12.85 2.95 13.35 3.0 13.95 3.15 14.85 3.35 16.6 3.9 16.8 4.35 17.4 6.2 18.25 9.0 17.7 9.65 17.1 10.2 17.3 11.2 17.45 11.9 17.45 12.05 17.5 12.1 17.85 13.0 17.85 13.05 18.0 13.65 18.1 13.95 M17.95 14.1 L18.55 14.7 18.85 15.1 18.9 15.15 20.45 16.9 21.7 18.25 22.45 19.15 24.65 21.45 24.85 21.45 27.3 21.5 27.8 22.15 28.35 22.75 28.15 23.8 27.9 24.9 27.85 25.15 26.5 25.15 26.65 26.2 26.65 26.3 26.65 26.6 26.45 26.7 25.35 27.25 24.6 27.55 23.7 27.05 22.65 26.35 22.5 26.3 22.0 25.9 22.2 25.15 M22.2 25.05 L22.2 24.95 22.35 24.15 22.4 24.0 22.4 23.65 22.45 23.6 20.6 21.45 20.2 21.0 19.1 19.7 19.0 19.55 17.5 17.9 17.25 17.55 15.7 16.15 14.8 16.15 M14.6 16.1 L14.3 16.05 14.25 16.05 13.55 15.9 13.5 15.9 13.45 15.85 13.4 15.85 13.3 15.85 13.1 15.75 M13.0 15.7 L12.1 15.25 11.95 15.15 11.55 15.0 11.1 14.7 10.15 14.1 10.05 13.75 10.05 13.5 10.05 13.45 9.45 13.5 9.35 13.6 7.5 13.85 7.4 13.85 5.55 14.05 5.45 14.05 5.2 14.1 3.55 12.35 3.0 11.7 1.65 10.3 1.7 9.6 1.9 7.0 2.05 5.65 2.5 5.3 3.9 4.3 3.95 4.25 Q4.7 3.65 5.25 3.35 L6.5 3.55 6.75 3.65 7.35 3.8 7.45 3.8 7.95 3.9 9.35 4.35 10.85 4.85 11.9 3.85 12.15 3.6 12.35 3.45 12.75 3.05 M10.05 12.9 L10.35 11.5 10.55 11.2 10.95 10.5 11.0 10.45 Q11.65 9.55 12.6 9.15 L12.9 9.0 13.1 8.95 13.55 8.9 14.15 8.85 14.7 8.9 Q15.65 9.15 16.65 9.85 L17.05 10.2 17.1 10.2 M10.05 12.9 L10.05 13.35 10.05 13.45 M13.0 15.7 L13.25 15.1 13.35 14.75 13.5 14.5 14.35 13.45 14.8 13.15 14.9 13.0 15.7 12.55 16.65 12.25 17.4 12.15 17.5 12.15 17.45 12.05 M15.6 16.05 L15.0 15.65 14.9 15.6 15.05 15.45 15.75 14.7 16.2 14.35 Q16.95 13.9 17.65 13.7 L17.95 14.1 M15.6 16.05 L15.7 16.15 M25.85 25.25 L26.5 25.15" fill="none" stroke="#ffffff" stroke-linecap="round" stroke-linejoin="round" stroke-width="3.0"/>
      <path d="M12.7 2.95 L12.8 2.85 13.3 2.9 13.95 3.05 14.85 3.25 16.6 3.8 16.75 4.25 17.35 6.1 18.2 8.9 17.65 9.55 17.1 10.1 17.05 10.1 16.65 9.75 Q15.65 9.05 14.65 8.8 L14.1 8.75 13.55 8.8 13.1 8.85 12.85 8.9 12.6 9.05 Q11.65 9.4 10.95 10.3 L10.9 10.4 10.5 11.1 10.35 11.4 Q10.05 12.05 10.0 12.8 L10.0 13.25 10.0 13.35 9.45 13.4 9.3 13.45 7.45 13.75 7.35 13.75 5.5 13.9 5.45 13.9 5.15 14.0 3.55 12.25 2.95 11.6 1.6 10.2 1.65 9.5 3.25 10.55 3.9 11.05 4.7 11.5 6.8 12.8 7.6 12.35 7.9 12.2 9.5 11.55 10.0 10.4 10.0 10.3 9.85 10.15 9.25 9.6 9.3 9.55 9.45 9.5 Q9.95 9.05 10.9 8.65 L11.85 8.3 12.1 8.25 12.2 8.3 12.2 8.25 Q13.15 6.4 13.9 5.45 L14.15 5.15 13.75 4.6 13.5 4.1 13.25 3.7 12.7 2.95 M17.95 14.0 L18.5 14.6 18.85 15.0 18.9 15.05 20.4 16.8 21.65 18.15 22.45 19.05 24.65 21.35 24.8 21.35 27.3 21.4 27.8 22.05 28.35 22.65 28.1 23.7 27.9 24.8 27.85 25.05 26.5 25.05 26.6 26.1 26.6 26.2 26.6 26.45 26.45 26.6 25.3 27.15 24.6 27.45 23.7 26.9 22.6 26.25 22.5 26.2 22.65 26.0 22.75 25.95 22.85 26.1 Q23.0 26.3 23.5 26.3 L24.8 26.15 25.05 26.1 25.5 25.55 25.5 25.5 25.5 25.2 25.35 24.35 25.3 23.5 Q25.25 23.05 24.7 22.85 L23.9 22.7 23.85 22.65 21.2 19.55 19.85 18.05 18.2 16.3 18.1 16.1 17.0 15.05 16.3 15.45 15.55 15.95 14.95 15.55 14.9 15.5 15.0 15.35 15.75 14.6 16.2 14.25 17.6 13.6 17.95 14.0 M26.5 25.05 L25.8 25.1 26.5 25.05" fill="#eda189" fill-rule="evenodd" stroke="none"/>
      <path d="M7.9 3.8 L9.3 4.25 10.85 4.75 11.85 3.75 12.15 3.5 12.3 3.35 11.95 4.1 11.95 4.15 Q11.35 5.55 11.35 6.1 L9.2 4.65 8.8 4.35 7.9 3.8 M12.1 8.25 L11.85 8.3 10.9 8.65 Q9.95 9.05 9.45 9.5 L9.3 9.55 7.7 9.85 7.45 9.95 7.15 10.05 6.15 10.3 5.7 10.0 4.95 9.4 4.3 8.95 4.15 8.85 3.95 8.7 4.1 8.75 5.1 8.95 6.95 9.3 7.7 8.95 8.2 8.75 10.3 7.85 11.05 8.0 11.4 8.15 12.1 8.25" fill="#ffc9ab" fill-rule="evenodd" stroke="none"/>
      <path d="M3.85 4.2 L3.9 4.15 5.45 5.1 5.5 5.1 5.65 5.1 5.8 5.05 7.15 4.85 7.5 5.25 8.3 6.1 9.4 7.15 8.65 5.95 7.95 4.4 7.85 4.35 7.35 4.0 7.2 3.9 6.7 3.6 6.45 3.45 6.75 3.55 7.3 3.7 7.4 3.7 7.9 3.8 8.8 4.35 9.2 4.65 11.35 6.1 Q11.35 5.55 11.95 4.15 L11.95 4.1 12.3 3.35 12.7 2.95 13.25 3.7 13.5 4.1 13.75 4.6 14.15 5.15 13.9 5.45 Q13.15 6.4 12.2 8.25 L12.1 8.25 11.4 8.15 11.05 8.0 10.3 7.85 8.2 8.75 7.7 8.95 6.95 9.3 5.1 8.95 4.1 8.75 4.05 8.35 3.85 6.45 3.85 5.2 3.85 5.15 3.85 4.25 3.85 4.2" fill="#fcfffb" fill-rule="evenodd" stroke="none"/>
      <path d="M1.65 9.5 L1.9 6.9 2.0 5.55 2.45 5.2 3.85 4.2 3.85 4.25 3.85 5.15 3.85 5.2 3.85 6.45 4.05 8.35 4.1 8.75 3.95 8.7 4.15 8.85 4.3 8.95 4.95 9.4 5.7 10.0 6.15 10.3 7.15 10.05 7.45 9.95 7.7 9.85 9.3 9.55 9.25 9.6 9.85 10.15 10.0 10.3 10.0 10.4 9.5 11.55 7.9 12.2 7.6 12.35 6.8 12.8 4.7 11.5 3.9 11.05 3.25 10.55 1.65 9.5 M3.9 4.15 L5.2 3.25 6.45 3.45 6.7 3.6 7.2 3.9 7.35 4.0 7.85 4.35 7.95 4.4 8.65 5.95 9.4 7.15 8.3 6.1 7.5 5.25 7.15 4.85 5.8 5.05 5.65 5.1 5.5 5.1 5.45 5.1 3.9 4.15" fill="#fbeec2" fill-rule="evenodd" stroke="none"/>
      <path d="M17.1 10.1 L17.25 11.1 17.45 11.8 17.45 11.95 17.5 12.05 17.35 12.05 16.65 12.1 15.7 12.45 14.9 12.9 14.8 12.75 13.25 13.65 13.05 13.85 12.55 14.45 12.1 14.1 11.65 13.8 10.4 13.0 10.0 12.8 Q10.05 12.05 10.35 11.4 L10.5 11.1 10.9 10.4 10.95 10.3 11.2 10.2 11.85 9.95 11.95 10.0 Q12.35 10.05 12.85 10.7 L12.95 10.7 13.0 10.85 13.25 11.15 13.7 12.25 13.75 12.3 13.75 12.4 14.75 12.35 14.85 12.35 15.0 12.35 15.5 12.3 15.25 12.05 14.8 11.75 14.75 11.75 14.8 11.65 14.85 11.2 14.75 9.95 14.65 8.8 Q15.65 9.05 16.65 9.75 L17.05 10.1 17.1 10.1" fill="#3fab89" fill-rule="evenodd" stroke="none"/>
      <path d="M17.8 12.95 L18.0 13.55 18.05 13.85 17.95 14.0 17.6 13.6 16.2 14.25 15.75 14.6 15.0 15.35 14.9 15.5 14.95 15.55 15.55 15.95 15.7 16.05 14.8 16.05 14.55 16.0 14.3 15.95 14.2 15.95 13.55 15.8 13.9 15.05 14.55 14.25 14.8 14.1 15.3 13.75 15.9 13.4 Q16.9 12.95 17.65 12.95 L17.8 12.95 M13.0 15.6 L12.1 15.15 11.9 15.05 11.5 14.9 Q11.35 14.7 11.05 14.6 L10.1 14.0 10.0 13.65 10.0 13.4 10.0 13.35 10.0 13.25 10.0 12.8 10.4 13.0 11.65 13.8 12.1 14.1 12.55 14.45 13.05 13.85 13.25 13.65 14.8 12.75 14.9 12.9 14.8 13.0 14.35 13.35 13.5 14.35 13.3 14.65 13.2 15.0 13.0 15.6" fill="#5eeacd" fill-rule="evenodd" stroke="none"/>
      <path d="M10.95 10.3 Q11.65 9.4 12.6 9.05 L12.85 8.9 13.1 8.85 13.55 8.8 14.1 8.75 14.65 8.8 14.75 9.95 14.85 11.2 14.8 11.65 14.75 11.75 14.8 11.75 15.25 12.05 15.5 12.3 15.0 12.35 14.85 12.35 14.75 12.35 13.75 12.4 13.75 12.3 13.7 12.25 13.25 11.15 13.0 10.85 12.95 10.7 12.85 10.7 Q12.35 10.05 11.95 10.0 L11.85 9.95 11.2 10.2 10.95 10.3 M13.45 9.35 L13.3 9.35 13.25 9.35 13.25 9.4 13.2 9.5 13.15 9.7 13.2 9.8 13.2 9.95 13.2 10.1 13.3 10.4 13.65 10.55 13.85 10.55 14.1 10.4 14.2 10.2 14.3 9.95 Q14.3 9.35 13.65 9.35 L13.45 9.35" fill="#81f8f6" fill-rule="evenodd" stroke="none"/>
      <path d="M13.45 9.35 L13.65 9.35 Q14.3 9.35 14.3 9.95 L14.2 10.2 14.1 10.4 13.85 10.55 13.65 10.55 13.3 10.4 13.2 10.1 13.2 9.95 13.2 9.8 13.15 9.7 13.2 9.5 13.25 9.4 13.25 9.35 13.3 9.35 13.45 9.35" fill="#ffffff" fill-rule="evenodd" stroke="none"/>
      <path d="M17.5 12.0 L17.8 12.9 17.65 12.95 Q16.9 12.95 15.9 13.4 L15.3 13.75 14.8 14.1 14.55 14.25 13.9 15.05 13.55 15.8 13.5 15.8 13.45 15.7 13.4 15.7 13.25 15.7 13.1 15.65 13.0 15.6 13.2 15.0 13.3 14.65 13.5 14.35 14.35 13.35 14.8 13.0 14.9 12.9 15.7 12.45 16.65 12.1 17.35 12.05 17.5 12.05 17.5 12.0" fill="#3eb492" fill-rule="evenodd" stroke="none"/>
      <path d="M22.5 26.2 L22.0 25.8 22.15 25.05 22.15 24.95 22.15 24.85 22.3 24.05 22.4 23.9 22.4 23.55 22.45 23.5 20.6 21.35 20.2 20.9 19.05 19.6 18.95 19.45 17.5 17.8 17.2 17.45 15.7 16.05 15.55 15.95 16.3 15.45 17.0 15.05 18.1 16.1 18.2 16.3 19.85 18.05 21.2 19.55 23.85 22.65 23.85 22.7 23.2 23.0 22.95 23.3 22.9 23.6 22.95 23.7 23.05 23.95 23.2 24.35 23.3 24.5 23.55 25.3 23.4 25.4 23.2 25.55 22.75 25.95 22.65 26.0 22.5 26.2" fill="#fdebbb" fill-rule="evenodd" stroke="none"/>
      <path d="M23.9 22.7 L24.7 22.85 Q25.25 23.05 25.3 23.5 L25.35 24.35 25.5 25.2 25.5 25.5 25.5 25.55 25.05 26.1 24.8 26.15 23.5 26.3 Q23.0 26.3 22.85 26.1 L22.75 25.95 23.2 25.55 23.4 25.4 23.55 25.3 23.3 24.5 23.2 24.35 23.05 23.95 22.95 23.7 22.9 23.6 22.95 23.3 23.2 23.0 23.85 22.7 23.9 22.7" fill="#fffdff" fill-rule="evenodd" stroke="none"/>
      <path d="M12.7 2.95 L12.8 2.85 13.3 2.9 13.95 3.05 14.85 3.25 16.6 3.8 16.75 4.25 17.35 6.1 18.2 8.9 17.65 9.55 17.1 10.1 17.25 11.1 17.45 11.8 17.45 11.95 17.5 12.0 17.8 12.9 17.8 12.95 18.0 13.55 18.05 13.85 M17.95 14.0 L18.5 14.6 18.85 15.0 18.9 15.05 20.4 16.8 21.65 18.15 22.45 19.05 24.65 21.35 24.8 21.35 27.3 21.4 27.8 22.05 28.35 22.65 28.1 23.7 27.9 24.8 27.85 25.05 26.5 25.05 26.6 26.1 26.6 26.2 26.6 26.45 26.45 26.6 25.3 27.15 24.6 27.45 23.7 26.9 22.6 26.25 22.5 26.2 22.0 25.8 22.15 25.05 M22.15 24.95 L22.15 24.85 22.3 24.05 22.4 23.9 22.4 23.55 22.45 23.5 20.6 21.35 20.2 20.9 19.05 19.6 18.95 19.45 17.5 17.8 17.2 17.45 15.7 16.05 14.8 16.05 M14.55 16.0 L14.3 15.95 14.2 15.95 13.55 15.8 13.5 15.8 13.45 15.7 13.4 15.7 13.25 15.7 13.1 15.65 M13.0 15.6 L12.1 15.15 11.9 15.05 11.5 14.9 Q11.35 14.7 11.05 14.6 L10.1 14.0 10.0 13.65 10.0 13.4 10.0 13.35 9.45 13.4 9.3 13.45 7.45 13.75 7.35 13.75 5.5 13.9 5.45 13.9 5.15 14.0 3.55 12.25 2.95 11.6 1.6 10.2 1.65 9.5 1.9 6.9 2.0 5.55 2.45 5.2 3.85 4.2 3.9 4.15 5.2 3.25 6.45 3.45 6.75 3.55 7.3 3.7 7.4 3.7 7.9 3.8 9.3 4.25 10.85 4.75 11.85 3.75 12.15 3.5 12.3 3.35 12.7 2.95 M10.0 12.8 Q10.05 12.05 10.35 11.4 L10.5 11.1 10.9 10.4 10.95 10.3 Q11.65 9.4 12.6 9.05 L12.85 8.9 13.1 8.85 13.55 8.8 14.1 8.75 14.65 8.8 Q15.65 9.05 16.65 9.75 L17.05 10.1 17.1 10.1 M10.0 12.8 L10.0 13.25 10.0 13.35 M13.0 15.6 L13.2 15.0 13.3 14.65 13.5 14.35 14.35 13.35 14.8 13.0 14.9 12.9 15.7 12.45 16.65 12.1 17.35 12.05 17.5 12.05 17.45 11.95 M15.55 15.95 L14.95 15.55 14.9 15.5 15.0 15.35 15.75 14.6 16.2 14.25 17.6 13.6 17.95 14.0 M15.55 15.95 L15.7 16.05 M25.8 25.1 L26.5 25.05" fill="none" stroke="#3f190e" stroke-linecap="round" stroke-linejoin="round" stroke-width="1.0"/>
    </g>
  </defs>
</svg>
