<?xml version="1.0" encoding="UTF-8" standalone="no"?>
<svg xmlns:ffdec="https://www.free-decompiler.com/flash" xmlns:xlink="http://www.w3.org/1999/xlink" ffdec:objectType="frame" height="30.0px" width="30.0px" xmlns="http://www.w3.org/2000/svg">
  <g transform="matrix(1.0, 0.0, 0.0, 1.0, 0.0, 0.0)">
    <use ffdec:characterId="1" height="30.0" transform="matrix(1.0, 0.0, 0.0, 1.0, 0.0, 0.0)" width="30.0" xlink:href="#shape0"/>
  </g>
  <defs>
    <g id="shape0" transform="matrix(1.0, 0.0, 0.0, 1.0, 0.0, 0.0)">
      <path d="M0.0 0.0 L30.0 0.0 30.0 30.0 0.0 30.0 0.0 0.0" fill="#33cc66" fill-opacity="0.0" fill-rule="evenodd" stroke="none"/>
      <path d="M26.7 0.0 Q30.0 0.0 30.0 3.3 L30.0 26.7 Q30.0 30.0 26.7 30.0 L3.3 30.0 Q0.0 30.0 0.0 26.7 L0.0 3.3 Q0.0 0.0 3.3 0.0 L26.7 0.0" fill="#ff99ff" fill-rule="evenodd" stroke="none"/>
      <path d="M20.5 10.15 L20.05 10.5 19.85 10.7 19.65 9.1 20.5 10.15" fill="#c0aeff" fill-rule="evenodd" stroke="none"/>
      <path d="M19.85 10.7 L20.05 10.5 20.5 10.15 21.25 11.05 21.1 11.4 20.4 10.6 20.4 11.6 20.3 11.6 19.95 11.5 19.85 10.7" fill="#bfb8fc" fill-rule="evenodd" stroke="none"/>
      <path d="M15.75 8.75 L16.3 9.2 16.35 9.25 16.95 9.7 18.25 10.65 18.35 10.8 18.55 10.9 18.4 11.2 18.3 11.05 17.05 10.1 16.3 9.55 15.55 9.0 15.75 8.75" fill="#a6c6ff" fill-rule="evenodd" stroke="none"/>
      <path d="M18.3 11.05 L18.4 11.2 19.8 12.25 19.85 12.5 19.85 12.55 20.3 13.9 18.9 13.1 17.7 12.4 17.9 11.95 18.3 11.05" fill="#adeeff" fill-rule="evenodd" stroke="none"/>
      <path d="M19.95 11.5 L20.3 11.6 20.4 11.6 20.35 11.8 20.4 12.35 20.4 12.8 20.0 12.5 19.85 12.5 19.8 12.25 18.4 11.2 18.55 10.9 19.45 11.55 19.6 11.75 20.0 12.05 19.95 11.5" fill="#b0d7ff" fill-rule="evenodd" stroke="none"/>
      <path d="M19.85 12.5 L20.0 12.5 20.4 12.8 20.4 12.35 21.2 12.0 21.5 11.85 22.2 12.65 22.5 13.0 22.2 13.45 21.75 14.2 21.2 13.5 20.9 14.2 20.3 13.9 19.85 12.55 19.85 12.5" fill="#b9d1fd" fill-rule="evenodd" stroke="none"/>
      <path d="M16.3 9.55 L17.05 10.1 18.3 11.05 17.9 11.95 17.7 12.4 17.45 12.2 16.85 11.9 16.1 11.5 16.3 9.55" fill="#9ae4ff" fill-rule="evenodd" stroke="none"/>
      <path d="M21.1 11.4 L21.25 11.05 21.75 11.65 22.35 12.4 22.2 12.65 21.5 11.85 21.45 11.75 21.1 11.4" fill="#bdcdfe" fill-rule="evenodd" stroke="none"/>
      <path d="M20.4 11.6 L20.4 10.6 21.1 11.4 21.45 11.75 21.5 11.85 21.2 12.0 20.4 12.35 20.35 11.8 20.4 11.6" fill="#b0a3ff" fill-rule="evenodd" stroke="none"/>
      <path d="M22.5 13.0 L22.2 12.65 22.35 12.4 22.4 12.5 22.65 12.75 23.35 13.6 23.15 13.85 22.9 13.45 22.5 13.0" fill="#b9cfff" fill-rule="evenodd" stroke="none"/>
      <path d="M20.9 14.2 L21.2 13.5 21.75 14.2 22.05 14.6 21.55 15.05 21.3 15.35 21.3 15.3 20.75 14.65 20.7 14.65 20.9 14.2" fill="#e3ffff" fill-rule="evenodd" stroke="none"/>
      <path d="M21.75 14.2 L22.2 13.45 22.5 13.0 22.9 13.45 23.15 13.85 23.25 13.95 23.0 14.45 22.6 15.25 22.05 14.6 21.75 14.2" fill="#b5ecff" fill-rule="evenodd" stroke="none"/>
      <path d="M20.3 13.9 L20.9 14.2 20.7 14.65 20.75 14.65 20.65 14.75 19.7 14.95 19.45 15.05 19.15 13.9 18.9 13.1 20.3 13.9" fill="#ecfefe" fill-rule="evenodd" stroke="none"/>
      <path d="M21.3 15.35 L21.55 15.05 22.05 14.6 22.6 15.25 22.8 15.55 22.1 16.7 22.05 16.6 21.35 16.15 20.75 15.8 21.3 15.35" fill="#c5f5ff" fill-rule="evenodd" stroke="none"/>
      <path d="M21.3 15.35 L20.75 15.8 21.35 16.15 21.35 16.45 21.4 17.2 20.2 16.65 19.25 16.2 19.6 15.7 19.7 14.95 20.65 14.75 20.75 14.65 21.3 15.3 21.3 15.35" fill="#c9faff" fill-rule="evenodd" stroke="none"/>
      <path d="M22.8 15.55 L22.6 15.25 23.0 14.45 23.25 13.95 23.7 14.5 23.85 14.7 24.5 14.1 24.1 15.6 23.9 16.6 23.8 16.95 23.05 15.85 22.8 15.55" fill="#9de2ff" fill-rule="evenodd" stroke="none"/>
      <path d="M19.7 14.95 L19.6 15.7 19.25 16.2 18.3 15.75 18.4 15.1 18.4 14.0 19.15 13.9 19.45 15.05 19.7 14.95" fill="#cdffff" fill-rule="evenodd" stroke="none"/>
      <path d="M19.15 13.9 L18.4 14.0 16.9 14.1 17.45 12.2 17.7 12.4 18.9 13.1 19.15 13.9 M12.85 17.0 L13.25 16.95 13.5 16.85 13.55 16.75 13.7 16.7 13.75 16.55 14.4 16.4 14.7 17.15 14.85 17.35 15.35 18.7 14.85 19.4 14.65 19.45 13.95 19.1 13.3 17.75 12.85 17.0" fill="#e5fffe" fill-rule="evenodd" stroke="none"/>
      <path d="M16.9 14.1 L18.4 14.0 18.4 15.1 18.3 15.75 16.6 14.95 16.9 14.1" fill="#c8fbff" fill-rule="evenodd" stroke="none"/>
      <path d="M18.3 15.75 L19.25 16.2 18.55 17.25 18.05 17.95 17.45 16.9 16.5 15.25 16.2 14.75 16.6 14.95 18.3 15.75" fill="#f3fdfe" fill-rule="evenodd" stroke="none"/>
      <path d="M18.5 18.7 L18.85 18.95 19.45 19.3 19.1 20.0 19.15 20.5 18.85 20.6 18.6 20.7 18.25 20.45 17.65 19.95 17.2 19.6 16.5 19.1 18.0 19.15 18.75 19.25 18.5 18.7" fill="#fbfcff" fill-rule="evenodd" stroke="none"/>
      <path d="M18.05 17.95 L18.5 18.7 18.75 19.25 18.0 19.15 16.5 19.1 16.3 18.9 16.95 17.65 17.45 16.9 18.05 17.95" fill="#afe2ff" fill-rule="evenodd" stroke="none"/>
      <path d="M19.25 16.2 L20.2 16.65 19.85 17.75 19.4 18.65 19.7 18.9 19.45 19.3 18.85 18.95 18.5 18.7 18.05 17.95 18.55 17.25 19.25 16.2" fill="#e6fbfe" fill-rule="evenodd" stroke="none"/>
      <path d="M20.2 16.65 L21.4 17.2 21.45 17.65 21.4 17.6 20.65 18.9 20.3 19.5 19.7 18.9 19.4 18.65 19.85 17.75 20.2 16.65" fill="#dbf1fe" fill-rule="evenodd" stroke="none"/>
      <path d="M21.35 16.15 L22.05 16.6 22.1 16.7 22.7 17.05 22.45 17.85 22.15 17.8 21.45 17.65 21.4 17.2 21.35 16.45 21.35 16.15" fill="#daf0fe" fill-rule="evenodd" stroke="none"/>
      <path d="M22.1 16.7 L22.8 15.55 23.05 15.85 23.8 16.95 23.65 17.75 22.75 17.15 22.7 17.05 22.1 16.7" fill="#a9e2ff" fill-rule="evenodd" stroke="none"/>
      <path d="M22.7 17.05 L22.75 17.15 23.65 17.75 23.65 17.85 23.4 19.2 23.75 19.6 23.1 20.25 23.05 20.3 22.15 19.5 22.45 17.85 22.7 17.05" fill="#a8aefa" fill-rule="evenodd" stroke="none"/>
      <path d="M20.3 19.5 L20.65 18.9 21.4 17.6 21.45 17.65 22.15 17.8 22.45 17.85 22.15 19.5 21.85 19.2 21.05 20.15 20.3 19.5" fill="#cbe3ff" fill-rule="evenodd" stroke="none"/>
      <path d="M23.15 13.85 L23.35 13.6 23.4 13.65 23.95 14.35 24.95 13.25 24.15 16.55 24.0 16.55 23.9 16.6 24.1 15.6 24.5 14.1 23.85 14.7 23.7 14.5 23.25 13.95 23.15 13.85" fill="#b0dcff" fill-rule="evenodd" stroke="none"/>
      <path d="M23.65 17.75 L23.8 16.95 23.9 16.6 24.0 16.55 24.15 16.55 24.05 17.2 23.85 17.85 23.65 18.8 24.1 19.3 24.7 20.0 25.15 20.5 26.6 22.2 27.55 23.15 25.65 26.2 25.55 26.35 25.5 26.45 24.5 27.6 23.6 27.4 22.65 27.05 22.35 26.95 22.0 26.8 21.95 26.8 21.6 26.8 21.0 26.9 20.1 27.05 20.1 26.65 20.85 26.6 21.1 26.55 21.1 26.5 21.15 26.5 21.95 26.4 22.75 26.65 22.9 26.7 24.1 27.0 24.2 27.0 24.4 27.0 25.55 25.5 25.65 25.4 26.95 23.1 25.05 21.0 24.55 20.45 23.75 19.6 23.4 19.2 23.65 17.85 23.65 17.75" fill="#b0dbfd" fill-rule="evenodd" stroke="none"/>
      <path d="M23.05 20.3 L24.25 21.45 23.75 23.1 23.4 22.55 22.45 22.9 22.4 22.6 22.4 22.05 22.4 20.9 23.05 20.3" fill="#8c6ef2" fill-rule="evenodd" stroke="none"/>
      <path d="M24.25 21.45 L23.05 20.3 23.1 20.25 23.75 19.6 24.55 20.45 24.25 21.45" fill="#9783f6" fill-rule="evenodd" stroke="none"/>
      <path d="M23.75 23.1 L24.25 21.45 24.55 20.45 25.05 21.0 26.95 23.1 25.65 25.4 25.55 25.5 24.6 24.25 23.75 23.1" fill="#8b3bec" fill-rule="evenodd" stroke="none"/>
      <path d="M25.55 25.5 L24.4 27.0 24.2 27.0 24.1 27.0 23.8 25.95 23.35 24.45 23.5 23.95 23.75 23.1 24.6 24.25 25.55 25.5" fill="#874def" fill-rule="evenodd" stroke="none"/>
      <path d="M22.45 22.9 L23.4 22.55 23.75 23.1 23.5 23.95 23.35 24.45 23.15 23.75 22.5 24.15 22.45 22.9" fill="#ac98fb" fill-rule="evenodd" stroke="none"/>
      <path d="M22.75 26.65 L21.95 26.4 21.15 26.5 21.1 26.5 21.55 24.5 21.6 24.35 22.4 24.15 22.5 24.15 23.15 23.75 23.35 24.45 22.75 26.65" fill="#9f89f8" fill-rule="evenodd" stroke="none"/>
      <path d="M19.45 19.3 L19.7 18.9 20.3 19.5 21.05 20.15 20.9 20.4 20.5 20.75 20.3 21.0 19.7 21.0 19.5 21.0 19.2 21.0 19.15 20.5 19.1 20.0 19.45 19.3" fill="#d8f3fe" fill-rule="evenodd" stroke="none"/>
      <path d="M21.05 20.15 L21.85 19.2 22.15 19.5 23.05 20.3 22.4 20.9 22.4 22.05 22.4 22.6 21.3 21.6 20.8 21.05 20.5 20.75 20.9 20.4 21.05 20.15" fill="#adaaf9" fill-rule="evenodd" stroke="none"/>
      <path d="M20.5 20.75 L20.8 21.05 21.3 21.6 20.5 23.55 19.95 23.6 19.65 23.7 19.8 23.45 20.2 22.45 19.35 22.3 19.2 22.25 19.5 21.0 19.7 21.0 20.3 21.0 20.5 20.75" fill="#cce7fc" fill-rule="evenodd" stroke="none"/>
      <path d="M18.25 20.45 L18.6 20.7 18.85 20.6 19.15 20.5 19.2 21.0 19.5 21.0 19.2 22.25 18.15 21.95 17.45 21.75 17.85 21.1 18.25 20.45" fill="#f8f9fe" fill-rule="evenodd" stroke="none"/>
      <path d="M19.2 22.25 L19.35 22.3 20.2 22.45 19.8 23.45 19.5 23.2 19.1 22.9 19.2 22.25" fill="#a9befd" fill-rule="evenodd" stroke="none"/>
      <path d="M18.15 21.95 L19.2 22.25 19.1 22.9 19.05 23.05 17.8 23.1 17.85 22.95 18.15 21.95" fill="#a6d5ff" fill-rule="evenodd" stroke="none"/>
      <path d="M17.2 19.6 L17.65 19.95 18.25 20.45 17.85 21.1 17.45 21.75 17.05 21.65 16.7 21.5 16.65 21.5 16.65 21.4 16.45 21.0 16.25 20.65 17.2 19.6" fill="#a1d8ff" fill-rule="evenodd" stroke="none"/>
      <path d="M19.1 22.9 L19.5 23.2 19.35 24.0 18.7 23.95 17.9 24.1 17.85 23.9 17.65 23.5 17.8 23.1 19.05 23.05 19.1 22.9" fill="#bae4fd" fill-rule="evenodd" stroke="none"/>
      <path d="M19.8 23.45 L19.65 23.7 19.95 23.6 20.5 23.55 20.35 23.95 20.5 24.6 20.4 24.6 19.55 24.8 19.1 24.95 19.3 24.05 19.35 24.0 19.5 23.2 19.8 23.45" fill="#b5caff" fill-rule="evenodd" stroke="none"/>
      <path d="M17.85 22.95 L17.8 23.1 17.65 23.5 17.85 23.9 17.9 24.1 18.1 24.55 17.05 24.65 16.6 24.65 16.95 23.45 17.15 22.65 17.85 22.95" fill="#d9ffff" fill-rule="evenodd" stroke="none"/>
      <path d="M18.1 24.55 L17.9 24.1 18.7 23.95 19.35 24.0 19.3 24.05 19.1 24.95 18.35 25.15 18.5 24.5 18.1 24.55" fill="#c1e5ff" fill-rule="evenodd" stroke="none"/>
      <path d="M17.05 24.65 L18.1 24.55 18.5 24.5 18.35 25.15 18.2 26.25 17.7 26.45 18.05 26.15 18.1 26.1 16.45 26.05 17.05 24.65" fill="#92e1ff" fill-rule="evenodd" stroke="none"/>
      <path d="M18.35 25.15 L19.1 24.95 19.55 24.8 20.4 24.6 20.5 24.6 20.8 26.25 19.7 25.6 18.85 25.95 18.2 26.25 18.35 25.15" fill="#c9f4fd" fill-rule="evenodd" stroke="none"/>
      <path d="M22.4 22.6 L22.45 22.9 22.5 24.15 22.4 24.15 21.6 24.35 21.55 24.5 21.45 24.1 21.2 24.2 21.05 24.3 21.1 23.65 21.1 23.45 20.5 23.55 21.3 21.6 22.4 22.6" fill="#b1a8f9" fill-rule="evenodd" stroke="none"/>
      <path d="M21.1 26.5 L21.1 26.55 20.85 26.6 20.8 26.25 20.5 24.6 20.35 23.95 20.5 23.55 21.1 23.45 21.1 23.65 21.05 24.3 21.2 24.2 21.45 24.1 21.55 24.5 21.1 26.5" fill="#b7b7ff" fill-rule="evenodd" stroke="none"/>
      <path d="M17.85 22.95 L17.15 22.65 16.8 22.45 16.95 22.1 17.05 21.65 17.45 21.75 18.15 21.95 17.85 22.95" fill="#b6e8ff" fill-rule="evenodd" stroke="none"/>
      <path d="M20.85 26.6 L20.1 26.65 17.4 27.0 17.05 27.05 17.7 26.45 18.2 26.25 18.85 25.95 19.7 25.6 20.8 26.25 20.85 26.6" fill="#a1dcfe" fill-rule="evenodd" stroke="none"/>
      <path d="M17.0 27.5 L16.1 27.6 17.35 26.4 14.8 26.35 14.55 26.3 13.45 26.3 12.7 26.3 12.75 25.9 14.1 25.95 14.65 26.0 16.45 26.05 18.1 26.1 18.05 26.15 17.7 26.45 17.05 27.05 17.4 27.0 17.0 27.5" fill="#b7d9ff" fill-rule="evenodd" stroke="none"/>
      <path d="M20.1 27.05 L19.4 27.1 17.0 27.5 17.4 27.0 20.1 26.65 20.1 27.05" fill="#afddfe" fill-rule="evenodd" stroke="none"/>
      <path d="M24.1 27.0 L22.9 26.7 22.75 26.65 23.35 24.45 23.8 25.95 24.1 27.0" fill="#8c5ef2" fill-rule="evenodd" stroke="none"/>
      <path d="M7.8 3.7 L7.95 3.8 8.05 3.8 9.7 4.75 10.35 5.2 10.8 5.45 10.9 5.5 11.8 6.1 12.15 6.35 12.05 6.6 11.6 6.4 11.05 6.0 10.95 6.0 10.1 5.45 8.55 4.6 7.7 4.15 7.7 4.1 7.8 3.8 7.8 3.7" fill="#c783fe" fill-rule="evenodd" stroke="none"/>
      <path d="M4.7 3.7 L3.3 1.6 5.95 2.85 6.35 3.0 7.8 3.7 7.8 3.8 7.7 4.1 6.15 3.3 4.5 2.55 5.0 3.5 4.7 3.7" fill="#df85ff" fill-rule="evenodd" stroke="none"/>
      <path d="M7.7 4.1 L7.7 4.15 8.55 4.6 10.1 5.45 9.5 6.0 8.5 7.0 7.15 4.9 7.7 4.1" fill="#c25eff" fill-rule="evenodd" stroke="none"/>
      <path d="M10.1 5.45 L10.95 6.0 11.05 6.0 11.6 6.4 11.4 6.7 10.35 8.1 10.25 7.85 9.5 6.0 10.1 5.45" fill="#a981fe" fill-rule="evenodd" stroke="none"/>
      <path d="M15.75 8.75 L15.55 9.0 14.4 8.2 12.45 6.85 12.05 6.6 12.15 6.35 12.5 6.55 13.5 7.25 14.5 7.9 15.1 8.35 15.75 8.75" fill="#aca9ff" fill-rule="evenodd" stroke="none"/>
      <path d="M11.6 6.4 L12.05 6.6 12.45 6.85 12.3 7.8 12.2 9.4 11.0 8.8 10.55 8.55 10.35 8.1 11.4 6.7 11.6 6.4" fill="#a4a3ff" fill-rule="evenodd" stroke="none"/>
      <path d="M5.0 3.5 L4.5 2.55 6.15 3.3 5.75 4.1 5.65 4.4 5.6 4.45 5.0 3.5" fill="#c938ff" fill-rule="evenodd" stroke="none"/>
      <path d="M6.9 7.35 L6.15 6.1 5.4 4.9 5.15 4.45 4.7 3.7 5.0 3.5 5.6 4.45 6.4 5.85 6.85 6.65 7.05 6.95 7.05 7.0 6.9 7.35" fill="#c773ff" fill-rule="evenodd" stroke="none"/>
      <path d="M6.15 3.3 L7.7 4.1 7.15 4.9 6.65 5.5 6.55 5.6 6.4 5.85 5.6 4.45 5.65 4.4 5.75 4.1 6.15 3.3" fill="#c543ff" fill-rule="evenodd" stroke="none"/>
      <path d="M7.15 4.9 L8.5 7.0 8.3 7.25 7.55 7.85 7.05 6.95 6.85 6.65 6.4 5.85 6.55 5.6 6.65 5.5 7.15 4.9" fill="#c758ff" fill-rule="evenodd" stroke="none"/>
      <path d="M8.3 10.1 L8.2 9.9 7.25 8.1 7.05 7.75 7.1 7.7 7.05 7.65 7.0 7.6 6.9 7.35 7.05 7.0 7.05 6.95 7.55 7.85 8.5 9.65 8.9 10.5 8.3 10.1" fill="#aa9eff" fill-rule="evenodd" stroke="none"/>
      <path d="M6.1 11.9 L6.7 12.1 6.75 12.15 8.25 12.65 8.4 12.8 8.5 13.0 7.8 12.85 7.6 12.8 7.4 12.75 7.35 12.75 7.35 12.7 7.15 12.6 6.45 12.4 6.1 12.1 6.15 12.0 6.1 11.9" fill="#cba9ff" fill-rule="evenodd" stroke="none"/>
      <path d="M6.75 13.3 L6.1 12.7 4.3 11.15 5.5 11.65 6.1 11.9 6.15 12.0 6.1 12.1 6.45 12.4 7.15 13.0 6.9 13.2 6.75 13.3" fill="#d391ff" fill-rule="evenodd" stroke="none"/>
      <path d="M6.45 12.4 L7.15 12.6 7.35 12.7 7.35 12.75 7.4 12.75 7.6 12.8 7.8 12.85 8.5 13.0 8.6 13.0 8.55 13.4 8.45 13.8 8.4 14.25 7.15 13.0 6.45 12.4" fill="#a969fe" fill-rule="evenodd" stroke="none"/>
      <path d="M8.1 17.65 Q7.9 17.5 7.5 17.3 L6.0 16.2 6.65 16.15 7.5 16.1 7.6 16.3 7.7 16.35 7.15 16.4 8.45 17.25 8.25 17.5 8.1 17.65" fill="#caacff" fill-rule="evenodd" stroke="none"/>
      <path d="M8.6 15.1 L8.3 14.8 7.75 14.3 7.65 14.2 6.75 13.3 6.9 13.2 7.15 13.0 8.4 14.25 8.5 14.4 9.05 14.95 8.8 15.05 8.6 15.1" fill="#c2a8ff" fill-rule="evenodd" stroke="none"/>
      <path d="M7.5 16.1 L7.75 16.05 7.85 16.1 8.35 16.05 9.05 15.95 9.4 15.9 8.9 15.4 8.6 15.1 8.8 15.05 9.05 14.95 9.15 15.1 10.1 16.2 9.6 16.25 9.0 16.3 7.7 16.35 7.6 16.3 7.5 16.1" fill="#a9bcfe" fill-rule="evenodd" stroke="none"/>
      <path d="M15.55 9.0 L16.3 9.55 16.1 11.5 15.55 11.15 14.35 10.55 Q14.15 10.35 13.85 10.25 L14.15 9.1 14.4 8.2 15.55 9.0" fill="#96dcfe" fill-rule="evenodd" stroke="none"/>
      <path d="M12.45 6.85 L14.4 8.2 14.15 9.1 13.85 10.25 12.2 9.4 12.3 7.8 12.45 6.85" fill="#9bcaff" fill-rule="evenodd" stroke="none"/>
      <path d="M13.5 13.05 L12.85 12.0 13.15 11.7 13.6 11.25 14.1 10.75 14.35 10.55 15.55 11.15 14.9 12.1 14.15 13.3 13.9 13.7 13.5 13.05 M12.5 16.05 L11.8 15.25 11.55 15.0 11.1 14.45 11.8 14.7 12.9 15.15 13.25 15.3 12.65 15.95 12.5 16.05" fill="#fdfeff" fill-rule="evenodd" stroke="none"/>
      <path d="M11.0 8.8 L12.2 9.4 13.85 10.25 Q14.15 10.35 14.35 10.55 L14.1 10.75 13.6 11.25 13.15 11.7 12.85 12.0 12.05 10.65 12.05 10.6 11.0 8.8" fill="#feffff" fill-rule="evenodd" stroke="none"/>
      <path d="M13.5 13.05 L12.95 12.95 12.25 12.9 12.1 12.75 12.35 12.45 10.65 11.8 11.1 11.25 10.8 10.95 12.05 10.65 12.85 12.0 13.5 13.05" fill="#92eaff" fill-rule="evenodd" stroke="none"/>
      <path d="M12.25 12.9 L12.95 12.95 13.5 13.05 13.9 13.7 14.25 14.25 14.25 14.8 14.2 15.1 13.15 13.9 12.7 13.4 12.25 12.9" fill="#f5ffff" fill-rule="evenodd" stroke="none"/>
      <path d="M17.45 12.2 L16.9 14.1 16.6 14.95 16.2 14.75 15.9 14.6 15.7 14.75 14.85 15.3 14.5 15.45 14.2 15.1 14.25 14.8 14.25 14.25 13.9 13.7 14.15 13.3 14.9 12.1 15.55 11.15 16.1 11.5 16.85 11.9 17.45 12.2" fill="#efffff" fill-rule="evenodd" stroke="none"/>
      <path d="M10.55 8.55 L11.0 8.8 12.05 10.6 12.05 10.65 10.8 10.95 9.4 9.5 9.35 9.05 10.2 8.4 10.55 8.55" fill="#a2bdff" fill-rule="evenodd" stroke="none"/>
      <path d="M10.35 8.1 L10.55 8.55 10.2 8.4 9.35 9.05 9.25 8.55 9.2 8.0 8.5 7.0 9.5 6.0 10.25 7.85 10.35 8.1" fill="#bd86fe" fill-rule="evenodd" stroke="none"/>
      <path d="M7.55 7.85 L8.3 7.25 8.5 7.0 9.2 8.0 9.25 8.55 9.35 9.05 8.8 9.45 8.5 9.65 7.55 7.85" fill="#b27fff" fill-rule="evenodd" stroke="none"/>
      <path d="M9.35 9.05 L9.4 9.5 10.8 10.95 10.4 11.05 9.35 11.35 8.9 10.5 8.5 9.65 8.8 9.45 9.35 9.05" fill="#88a7ff" fill-rule="evenodd" stroke="none"/>
      <path d="M8.6 11.8 L9.2 11.9 8.95 11.4 8.35 10.2 8.3 10.1 8.9 10.5 9.35 11.35 9.75 12.25 9.75 12.3 9.35 12.25 9.1 12.2 8.6 11.8" fill="#97b9ff" fill-rule="evenodd" stroke="none"/>
      <path d="M8.25 12.65 L8.4 12.7 8.6 12.8 9.0 12.9 8.65 12.65 8.45 12.45 7.15 11.45 8.6 11.8 9.1 12.2 8.75 12.15 8.95 12.4 9.6 13.1 9.65 13.25 9.5 13.2 8.6 13.0 8.5 13.0 8.4 12.8 8.25 12.65" fill="#b4b1ff" fill-rule="evenodd" stroke="none"/>
      <path d="M10.8 10.95 L11.1 11.25 10.65 11.8 10.4 12.05 10.05 12.5 9.6 13.1 8.95 12.4 8.75 12.15 9.1 12.2 9.35 12.25 9.75 12.3 9.75 12.25 9.35 11.35 10.4 11.05 10.8 10.95" fill="#75b9ff" fill-rule="evenodd" stroke="none"/>
      <path d="M8.4 14.25 L8.45 13.8 8.55 13.4 8.6 13.0 9.5 13.2 9.65 13.25 9.6 13.1 10.05 12.5 10.85 13.25 9.85 14.35 9.75 14.45 9.25 15.05 9.15 15.1 9.05 14.95 8.5 14.4 8.4 14.25" fill="#a09bff" fill-rule="evenodd" stroke="none"/>
      <path d="M10.65 11.8 L12.35 12.45 12.1 12.75 12.25 12.9 12.7 13.4 12.05 14.3 11.2 13.55 10.85 13.25 10.05 12.5 10.4 12.05 10.65 11.8" fill="#80d1ff" fill-rule="evenodd" stroke="none"/>
      <path d="M12.7 13.4 L13.15 13.9 14.2 15.1 14.5 15.45 14.85 15.9 14.15 15.65 14.05 15.6 13.25 15.3 12.9 15.15 11.8 14.7 11.85 14.65 12.05 14.3 12.7 13.4" fill="#9eefff" fill-rule="evenodd" stroke="none"/>
      <path d="M10.85 13.25 L11.2 13.55 12.05 14.3 11.85 14.65 11.8 14.7 11.1 14.45 11.55 15.0 11.0 15.8 10.9 15.8 10.7 15.65 10.55 15.65 9.25 15.05 9.75 14.45 9.85 14.35 10.85 13.25" fill="#a1c1fe" fill-rule="evenodd" stroke="none"/>
      <path d="M10.55 15.65 L10.7 15.65 10.9 15.8 11.0 15.8 11.55 15.0 11.8 15.25 12.5 16.05 13.25 16.95 12.85 17.0 12.2 17.05 11.75 17.1 11.05 17.15 10.55 15.65" fill="#a2ddfd" fill-rule="evenodd" stroke="none"/>
      <path d="M13.25 16.95 L12.5 16.05 12.65 15.95 13.25 15.3 14.05 15.6 14.15 15.65 14.85 15.9 15.05 16.2 15.1 16.2 14.5 16.35 14.4 16.4 13.75 16.55 13.7 16.7 13.55 16.75 13.5 16.85 13.25 16.95" fill="#f7ffff" fill-rule="evenodd" stroke="none"/>
      <path d="M10.55 15.65 L11.05 17.15 10.3 17.2 11.65 17.95 11.1 18.55 10.8 18.85 10.55 18.7 9.95 18.3 9.6 16.25 10.1 16.2 9.15 15.1 9.25 15.05 10.55 15.65" fill="#92aeff" fill-rule="evenodd" stroke="none"/>
      <path d="M9.6 16.25 L9.95 18.3 8.45 17.25 7.15 16.4 7.7 16.35 9.0 16.3 9.6 16.25" fill="#9f7afe" fill-rule="evenodd" stroke="none"/>
      <path d="M10.35 19.05 L10.05 18.85 8.45 17.9 8.1 17.65 8.25 17.5 8.45 17.25 9.95 18.3 10.55 18.7 10.35 19.05" fill="#b8bdfd" fill-rule="evenodd" stroke="none"/>
      <path d="M11.05 17.15 L11.75 17.1 12.2 17.05 12.85 17.0 13.3 17.75 13.95 19.1 13.1 18.65 12.6 18.45 12.25 18.25 11.65 17.95 10.3 17.2 11.05 17.15" fill="#fbffff" fill-rule="evenodd" stroke="none"/>
      <path d="M10.8 18.85 L11.1 18.55 11.65 17.95 12.25 18.25 12.6 18.45 12.9 19.45 13.15 20.35 12.65 20.6 12.55 20.45 12.4 20.3 12.5 20.25 12.75 20.1 12.5 20.0 10.8 18.85" fill="#8ccbfe" fill-rule="evenodd" stroke="none"/>
      <path d="M11.3 20.5 L12.15 20.2 12.15 20.15 11.5 19.8 10.5 19.15 10.35 19.05 10.55 18.7 10.8 18.85 12.5 20.0 12.75 20.1 12.5 20.25 12.4 20.3 11.45 20.7 11.4 20.55 11.3 20.5" fill="#b2d9ff" fill-rule="evenodd" stroke="none"/>
      <path d="M14.85 15.9 L14.5 15.45 14.85 15.3 15.7 14.75 15.9 14.6 16.2 14.75 16.5 15.25 16.35 15.8 15.75 15.9 15.3 16.1 15.05 16.2 14.85 15.9" fill="#ddffff" fill-rule="evenodd" stroke="none"/>
      <path d="M15.05 16.2 L15.3 16.1 15.75 15.9 16.35 15.8 16.5 15.25 17.45 16.9 16.95 17.65 16.2 17.4 14.75 17.2 14.7 17.15 14.4 16.4 14.5 16.35 15.1 16.2 15.05 16.2" fill="#d2fbff" fill-rule="evenodd" stroke="none"/>
      <path d="M14.7 17.15 L14.75 17.2 16.2 17.4 16.95 17.65 16.3 18.9 16.15 18.8 15.85 18.95 15.5 19.05 15.35 18.7 14.85 17.35 14.7 17.15" fill="#cdfdff" fill-rule="evenodd" stroke="none"/>
      <path d="M13.95 19.1 L14.65 19.45 14.1 19.75 13.15 20.35 12.9 19.45 12.6 18.45 13.1 18.65 13.95 19.1" fill="#91e7ff" fill-rule="evenodd" stroke="none"/>
      <path d="M15.35 18.7 L15.5 19.05 15.55 19.2 15.45 19.45 15.45 19.95 15.45 20.0 14.65 20.4 14.6 20.45 14.1 19.75 14.65 19.45 14.85 19.4 15.35 18.7" fill="#d8feff" fill-rule="evenodd" stroke="none"/>
      <path d="M16.5 19.1 L17.2 19.6 16.25 20.65 16.2 20.35 16.1 20.35 15.9 20.4 15.45 20.0 15.45 19.95 15.45 19.45 15.55 19.2 15.5 19.05 15.85 18.95 16.15 18.8 16.3 18.9 16.5 19.1" fill="#baedfe" fill-rule="evenodd" stroke="none"/>
      <path d="M15.45 20.0 L15.9 20.4 16.1 20.35 16.2 20.35 16.25 20.65 16.45 21.0 16.65 21.4 16.6 21.45 16.4 21.65 16.35 21.75 16.3 21.75 16.2 21.8 15.25 21.55 14.85 20.75 14.6 20.45 14.65 20.4 15.45 20.0" fill="#d7ffff" fill-rule="evenodd" stroke="none"/>
      <path d="M16.2 21.8 L15.9 22.0 15.65 22.2 14.75 22.75 15.85 22.8 16.15 22.8 16.4 22.85 16.15 23.0 16.0 23.05 15.15 23.5 14.6 23.8 Q14.5 23.8 14.3 23.95 L14.05 22.9 14.05 22.65 14.0 21.55 13.95 21.15 15.25 21.55 16.2 21.8" fill="#91e2ff" fill-rule="evenodd" stroke="none"/>
      <path d="M17.05 21.65 L16.95 22.1 16.8 22.45 16.7 22.75 16.4 22.85 16.15 22.8 15.85 22.8 14.75 22.75 15.65 22.2 15.9 22.0 16.2 21.8 16.3 21.75 16.35 21.75 16.4 21.65 16.6 21.45 16.65 21.4 16.65 21.5 16.7 21.5 17.05 21.65" fill="#cfffff" fill-rule="evenodd" stroke="none"/>
      <path d="M13.15 20.35 L14.1 19.75 14.6 20.45 14.85 20.75 15.25 21.55 13.95 21.15 13.25 20.95 12.9 20.85 12.5 20.8 12.3 20.75 12.5 20.65 12.65 20.6 13.15 20.35" fill="#f3ffff" fill-rule="evenodd" stroke="none"/>
      <path d="M13.95 21.15 L14.0 21.55 14.05 22.65 14.05 22.9 13.05 22.5 13.35 22.4 13.8 22.05 12.45 21.75 12.4 21.75 12.5 21.65 12.9 20.85 13.25 20.95 13.95 21.15" fill="#8bcaff" fill-rule="evenodd" stroke="none"/>
      <path d="M12.35 22.55 L12.8 22.4 13.05 22.35 12.85 22.3 12.4 22.25 12.45 21.75 13.8 22.05 13.35 22.4 13.05 22.5 12.65 22.8 12.35 22.55" fill="#addbfd" fill-rule="evenodd" stroke="none"/>
      <path d="M14.3 23.95 Q14.5 23.8 14.6 23.8 L15.15 23.5 15.85 24.75 15.6 24.8 14.8 24.8 14.5 24.9 13.65 24.95 12.75 25.0 11.95 25.1 13.15 24.5 13.3 24.4 Q13.95 24.1 14.3 23.95" fill="#f9ffff" fill-rule="evenodd" stroke="none"/>
      <path d="M14.65 26.0 L14.1 25.95 12.75 25.9 12.5 25.9 12.5 25.85 12.75 25.0 13.65 24.95 14.5 24.9 14.8 24.8 14.65 26.0" fill="#9daefe" fill-rule="evenodd" stroke="none"/>
      <path d="M14.05 22.9 L14.3 23.95 Q13.95 24.1 13.3 24.4 L13.15 24.5 12.85 24.3 11.8 23.45 12.7 23.05 12.3 22.95 12.65 22.8 13.05 22.5 14.05 22.9" fill="#8dbeff" fill-rule="evenodd" stroke="none"/>
      <path d="M11.8 23.45 L12.85 24.3 13.15 24.5 11.95 25.1 11.45 25.15 10.95 24.5 10.6 24.1 10.65 24.1 Q11.0 23.9 11.3 23.75 L11.65 23.6 11.8 23.45" fill="#9e73ff" fill-rule="evenodd" stroke="none"/>
      <path d="M17.15 22.65 L16.95 23.45 16.6 24.65 15.85 24.75 15.15 23.5 16.0 23.05 16.15 23.0 16.4 22.85 16.7 22.75 16.8 22.45 17.15 22.65" fill="#eaffff" fill-rule="evenodd" stroke="none"/>
      <path d="M16.6 24.65 L17.05 24.65 16.45 26.05 14.65 26.0 14.8 24.8 15.6 24.8 15.85 24.75 16.6 24.65" fill="#9cd0ff" fill-rule="evenodd" stroke="none"/>
      <path d="M12.65 20.6 L12.5 20.65 12.3 20.75 12.5 20.8 12.9 20.85 12.5 21.65 12.4 21.75 12.35 21.75 10.95 21.4 10.2 21.2 11.45 20.75 11.45 20.7 12.4 20.3 12.55 20.45 12.65 20.6" fill="#8ca7ff" fill-rule="evenodd" stroke="none"/>
      <path d="M10.55 21.9 L10.15 21.8 9.4 21.65 8.7 21.5 10.8 20.65 10.85 20.7 11.3 20.5 11.4 20.55 11.45 20.7 11.45 20.75 10.2 21.2 10.95 21.4 10.55 21.9" fill="#c1b0ff" fill-rule="evenodd" stroke="none"/>
      <path d="M12.4 22.25 L12.25 22.2 12.2 22.2 12.1 22.15 11.4 22.0 11.3 22.0 10.55 21.9 10.95 21.4 12.35 21.75 12.4 21.75 12.45 21.75 12.4 22.25" fill="#b5cbfd" fill-rule="evenodd" stroke="none"/>
      <path d="M8.7 24.7 L9.05 24.55 9.1 24.5 9.65 24.25 10.4 23.9 11.0 23.6 11.25 23.75 11.3 23.75 Q11.0 23.9 10.65 24.1 L10.6 24.1 9.75 24.55 9.2 24.85 8.7 24.7" fill="#ce97ff" fill-rule="evenodd" stroke="none"/>
      <path d="M8.45 26.3 L6.85 26.25 6.45 26.25 5.5 26.3 6.6 25.7 6.85 25.6 7.1 25.45 8.7 24.7 9.2 24.85 7.4 25.7 7.1 25.85 8.55 25.85 8.5 26.0 8.45 26.3" fill="#d484ff" fill-rule="evenodd" stroke="none"/>
      <path d="M10.6 24.1 L10.95 24.5 11.45 25.15 11.95 25.1 12.75 25.0 12.5 25.85 12.5 25.9 9.95 25.85 9.85 25.3 9.75 24.55 10.6 24.1" fill="#aa57ff" fill-rule="evenodd" stroke="none"/>
      <path d="M9.75 24.55 L9.85 25.3 9.95 25.85 8.55 25.85 7.1 25.85 7.4 25.7 9.2 24.85 9.75 24.55" fill="#b04bff" fill-rule="evenodd" stroke="none"/>
      <path d="M11.0 23.6 L11.4 23.4 11.55 23.3 11.9 23.15 11.7 23.1 11.5 23.05 10.9 23.0 11.55 22.75 11.9 22.7 12.0 22.65 12.1 22.65 12.35 22.55 12.65 22.8 12.3 22.95 12.7 23.05 11.8 23.45 11.65 23.6 11.3 23.75 11.25 23.75 11.0 23.6" fill="#b2c0ff" fill-rule="evenodd" stroke="none"/>
      <path d="M12.7 26.3 L12.45 26.3 11.35 26.3 11.3 26.35 10.0 26.3 8.45 26.3 8.5 26.0 8.55 25.85 9.95 25.85 12.5 25.9 12.75 25.9 12.7 26.3" fill="#cc99fe" fill-rule="evenodd" stroke="none"/>
      <path d="M20.5 10.15 L19.65 9.1 19.85 10.7 19.95 11.5 20.0 12.05 19.6 11.75 19.45 11.55 18.55 10.9 18.35 10.8 18.25 10.65 16.95 9.7 16.35 9.25 16.3 9.2 15.75 8.75 15.1 8.35 14.5 7.9 13.5 7.25 12.5 6.55 12.15 6.35 11.8 6.1 10.9 5.5 10.8 5.45 10.35 5.2 9.7 4.75 8.05 3.8 7.95 3.8 7.8 3.7 6.35 3.0 5.95 2.85 3.3 1.6 4.7 3.7 5.15 4.45 5.4 4.9 6.15 6.1 6.9 7.35 7.0 7.6 7.05 7.65 7.1 7.7 7.05 7.75 7.25 8.1 8.2 9.9 8.3 10.1 8.35 10.2 8.95 11.4 9.2 11.9 8.6 11.8 7.15 11.45 8.45 12.45 8.65 12.65 9.0 12.9 8.6 12.8 8.4 12.7 8.25 12.65 6.75 12.15 6.7 12.1 6.1 11.9 5.5 11.65 4.3 11.15 6.1 12.7 6.75 13.3 7.65 14.2 7.75 14.3 8.3 14.8 8.6 15.1 8.9 15.4 9.4 15.9 9.05 15.95 8.35 16.05 7.85 16.1 7.75 16.05 7.5 16.1 6.65 16.15 6.0 16.2 7.5 17.3 Q7.9 17.5 8.1 17.65 L8.45 17.9 10.05 18.85 10.35 19.05 10.5 19.15 11.5 19.8 12.15 20.15 12.15 20.2 11.3 20.5 10.85 20.7 10.8 20.65 8.7 21.5 9.4 21.65 10.15 21.8 10.55 21.9 11.3 22.0 11.4 22.0 12.1 22.15 12.2 22.2 12.25 22.2 12.4 22.25 12.85 22.3 13.05 22.35 12.8 22.4 12.35 22.55 12.1 22.65 12.0 22.65 11.9 22.7 11.55 22.75 10.9 23.0 11.5 23.05 11.7 23.1 11.9 23.15 11.55 23.3 11.4 23.4 11.0 23.6 10.4 23.9 9.65 24.25 9.1 24.5 9.05 24.55 8.7 24.7 7.1 25.45 6.85 25.6 6.6 25.7 5.5 26.3 6.45 26.25 6.85 26.25 8.45 26.3 10.0 26.3 11.3 26.35 11.35 26.3 12.45 26.3 12.7 26.3 13.45 26.3 14.55 26.3 14.8 26.35 17.35 26.4 16.1 27.6 17.0 27.5 19.4 27.1 20.1 27.05 21.0 26.9 21.6 26.8 21.95 26.8 22.0 26.8 22.35 26.95 22.65 27.05 23.6 27.4 24.5 27.6 25.5 26.45 25.55 26.35 25.65 26.2 27.55 23.15 26.6 22.2 25.15 20.5 24.7 20.0 24.1 19.3 23.65 18.8 23.85 17.85 24.05 17.2 24.15 16.55 24.95 13.25 23.95 14.35 23.4 13.65 23.35 13.6 22.65 12.75 22.4 12.5 22.35 12.4 21.75 11.65 21.25 11.05 20.5 10.15 Z" fill="none" stroke="#ffffff" stroke-linecap="round" stroke-linejoin="round" stroke-width="3.0"/>
      <path d="M20.5 10.15 L20.05 10.5 19.85 10.7 19.65 9.1 20.5 10.15" fill="#c0aeff" fill-rule="evenodd" stroke="none"/>
      <path d="M19.85 10.7 L20.05 10.5 20.5 10.15 21.25 11.05 21.1 11.4 20.4 10.6 20.4 11.6 20.3 11.6 19.95 11.5 19.85 10.7" fill="#bfb8fc" fill-rule="evenodd" stroke="none"/>
      <path d="M16.95 9.7 L18.25 10.65 18.35 10.8 18.55 10.9 18.4 11.2 18.3 11.05 17.05 10.1 16.3 9.55 15.55 9.0 15.75 8.75 16.3 9.2 16.35 9.25 16.95 9.7" fill="#a6c6ff" fill-rule="evenodd" stroke="none"/>
      <path d="M18.3 11.05 L18.4 11.2 19.8 12.25 19.85 12.5 19.85 12.55 20.3 13.9 18.9 13.1 17.7 12.4 17.9 11.95 18.3 11.05" fill="#adeeff" fill-rule="evenodd" stroke="none"/>
      <path d="M19.95 11.5 L20.3 11.6 20.4 11.6 20.35 11.8 20.4 12.35 20.4 12.8 20.0 12.5 19.85 12.5 19.8 12.25 18.4 11.2 18.55 10.9 19.45 11.55 19.6 11.75 20.0 12.05 19.95 11.5" fill="#b0d7ff" fill-rule="evenodd" stroke="none"/>
      <path d="M20.3 13.9 L19.85 12.55 19.85 12.5 20.0 12.5 20.4 12.8 20.4 12.35 21.2 12.0 21.5 11.85 22.2 12.65 22.5 13.0 22.2 13.45 21.75 14.2 21.2 13.5 20.9 14.2 20.3 13.9" fill="#b9d1fd" fill-rule="evenodd" stroke="none"/>
      <path d="M16.3 9.55 L17.05 10.1 18.3 11.05 17.9 11.95 17.7 12.4 17.45 12.2 16.85 11.9 16.1 11.5 16.3 9.55" fill="#9ae4ff" fill-rule="evenodd" stroke="none"/>
      <path d="M20.4 11.6 L20.4 10.6 21.1 11.4 21.45 11.75 21.5 11.85 21.2 12.0 20.4 12.35 20.35 11.8 20.4 11.6" fill="#b0a3ff" fill-rule="evenodd" stroke="none"/>
      <path d="M21.1 11.4 L21.25 11.05 21.75 11.65 22.35 12.4 22.2 12.65 21.5 11.85 21.45 11.75 21.1 11.4" fill="#bdcdfe" fill-rule="evenodd" stroke="none"/>
      <path d="M22.5 13.0 L22.2 12.65 22.35 12.4 22.4 12.5 22.65 12.75 23.35 13.6 23.15 13.85 22.9 13.45 22.5 13.0" fill="#b9cfff" fill-rule="evenodd" stroke="none"/>
      <path d="M20.9 14.2 L21.2 13.5 21.75 14.2 22.05 14.6 21.55 15.05 21.3 15.35 21.3 15.3 20.75 14.65 20.7 14.65 20.9 14.2" fill="#e3ffff" fill-rule="evenodd" stroke="none"/>
      <path d="M21.75 14.2 L22.2 13.45 22.5 13.0 22.9 13.45 23.15 13.85 23.25 13.95 23.0 14.45 22.6 15.25 22.05 14.6 21.75 14.2" fill="#b5ecff" fill-rule="evenodd" stroke="none"/>
      <path d="M20.3 13.9 L20.9 14.2 20.7 14.65 20.75 14.65 20.65 14.75 19.7 14.95 19.45 15.05 19.15 13.9 18.9 13.1 20.3 13.9" fill="#ecfefe" fill-rule="evenodd" stroke="none"/>
      <path d="M21.3 15.35 L20.75 15.8 21.35 16.15 21.35 16.45 21.4 17.2 20.2 16.65 19.25 16.2 19.6 15.7 19.7 14.95 20.65 14.75 20.75 14.65 21.3 15.3 21.3 15.35" fill="#c9faff" fill-rule="evenodd" stroke="none"/>
      <path d="M21.35 16.15 L20.75 15.8 21.3 15.35 21.55 15.05 22.05 14.6 22.6 15.25 22.8 15.55 22.1 16.7 22.05 16.6 21.35 16.15" fill="#c5f5ff" fill-rule="evenodd" stroke="none"/>
      <path d="M22.8 15.55 L22.6 15.25 23.0 14.45 23.25 13.95 23.7 14.5 23.85 14.7 24.5 14.1 24.1 15.6 23.9 16.6 23.8 16.95 23.05 15.85 22.8 15.55" fill="#9de2ff" fill-rule="evenodd" stroke="none"/>
      <path d="M18.3 15.75 L19.25 16.2 18.55 17.25 18.05 17.95 17.45 16.9 16.5 15.25 16.2 14.75 16.6 14.95 18.3 15.75" fill="#f3fdfe" fill-rule="evenodd" stroke="none"/>
      <path d="M19.7 14.95 L19.6 15.7 19.25 16.2 18.3 15.75 18.4 15.1 18.4 14.0 19.15 13.9 19.45 15.05 19.7 14.95" fill="#cdffff" fill-rule="evenodd" stroke="none"/>
      <path d="M16.9 14.1 L18.4 14.0 18.4 15.1 18.3 15.75 16.6 14.95 16.9 14.1" fill="#c8fbff" fill-rule="evenodd" stroke="none"/>
      <path d="M19.15 13.9 L18.4 14.0 16.9 14.1 17.45 12.2 17.7 12.4 18.9 13.1 19.15 13.9 M12.85 17.0 L13.25 16.95 13.5 16.85 13.55 16.75 13.7 16.7 13.75 16.55 14.4 16.4 14.7 17.15 14.85 17.35 15.35 18.7 14.85 19.4 14.65 19.45 13.95 19.1 13.3 17.75 12.85 17.0" fill="#e5fffe" fill-rule="evenodd" stroke="none"/>
      <path d="M19.25 16.2 L20.2 16.65 19.85 17.75 19.4 18.65 19.7 18.9 19.45 19.3 18.85 18.95 18.5 18.7 18.05 17.95 18.55 17.25 19.25 16.2" fill="#e6fbfe" fill-rule="evenodd" stroke="none"/>
      <path d="M20.2 16.65 L21.4 17.2 21.45 17.65 21.4 17.6 20.65 18.9 20.3 19.5 19.7 18.9 19.4 18.65 19.85 17.75 20.2 16.65" fill="#dbf1fe" fill-rule="evenodd" stroke="none"/>
      <path d="M18.05 17.95 L18.5 18.7 18.75 19.25 18.0 19.15 16.5 19.1 16.3 18.9 16.95 17.65 17.45 16.9 18.05 17.95" fill="#afe2ff" fill-rule="evenodd" stroke="none"/>
      <path d="M18.5 18.7 L18.85 18.95 19.45 19.3 19.1 20.0 19.15 20.5 18.85 20.6 18.6 20.7 18.25 20.45 17.65 19.95 17.2 19.6 16.5 19.1 18.0 19.15 18.75 19.25 18.5 18.7" fill="#fbfcff" fill-rule="evenodd" stroke="none"/>
      <path d="M21.35 16.15 L22.05 16.6 22.1 16.7 22.7 17.05 22.45 17.85 22.15 17.8 21.45 17.65 21.4 17.2 21.35 16.45 21.35 16.15" fill="#daf0fe" fill-rule="evenodd" stroke="none"/>
      <path d="M22.1 16.7 L22.8 15.55 23.05 15.85 23.8 16.95 23.65 17.75 22.75 17.15 22.7 17.05 22.1 16.7" fill="#a9e2ff" fill-rule="evenodd" stroke="none"/>
      <path d="M22.7 17.05 L22.75 17.15 23.65 17.75 23.65 17.85 23.4 19.2 23.75 19.6 23.1 20.25 23.05 20.3 22.15 19.5 22.45 17.85 22.7 17.05" fill="#a8aefa" fill-rule="evenodd" stroke="none"/>
      <path d="M20.3 19.5 L20.65 18.9 21.4 17.6 21.45 17.65 22.15 17.8 22.45 17.85 22.15 19.5 21.85 19.2 21.05 20.15 20.3 19.5" fill="#cbe3ff" fill-rule="evenodd" stroke="none"/>
      <path d="M23.35 13.6 L23.4 13.65 23.95 14.35 24.95 13.25 24.15 16.55 24.0 16.55 23.9 16.6 24.1 15.6 24.5 14.1 23.85 14.7 23.7 14.5 23.25 13.95 23.15 13.85 23.35 13.6" fill="#b0dcff" fill-rule="evenodd" stroke="none"/>
      <path d="M23.65 17.75 L23.8 16.95 23.9 16.6 24.0 16.55 24.15 16.55 24.05 17.2 23.85 17.85 23.65 18.8 24.1 19.3 24.7 20.0 25.15 20.5 26.6 22.2 27.55 23.15 25.65 26.2 25.55 26.35 25.5 26.45 24.5 27.6 23.6 27.4 22.65 27.05 22.35 26.95 22.0 26.8 21.95 26.8 21.6 26.8 21.0 26.9 20.1 27.05 20.1 26.65 20.85 26.6 21.1 26.55 21.1 26.5 21.15 26.5 21.95 26.4 22.75 26.65 22.9 26.7 24.1 27.0 24.2 27.0 24.4 27.0 25.55 25.5 25.65 25.4 26.95 23.1 25.05 21.0 24.55 20.45 23.75 19.6 23.4 19.2 23.65 17.85 23.65 17.75" fill="#b0dbfd" fill-rule="evenodd" stroke="none"/>
      <path d="M23.05 20.3 L23.1 20.25 23.75 19.6 24.55 20.45 24.25 21.45 23.05 20.3" fill="#9783f6" fill-rule="evenodd" stroke="none"/>
      <path d="M24.25 21.45 L24.55 20.45 25.05 21.0 26.95 23.1 25.65 25.4 25.55 25.5 24.6 24.25 23.75 23.1 24.25 21.45" fill="#8b3bec" fill-rule="evenodd" stroke="none"/>
      <path d="M23.05 20.3 L24.25 21.45 23.75 23.1 23.4 22.55 22.45 22.9 22.4 22.6 22.4 22.05 22.4 20.9 23.05 20.3" fill="#8c6ef2" fill-rule="evenodd" stroke="none"/>
      <path d="M22.75 26.65 L21.95 26.4 21.15 26.5 21.1 26.5 21.55 24.5 21.6 24.35 22.4 24.15 22.5 24.15 23.15 23.75 23.35 24.45 22.75 26.65" fill="#9f89f8" fill-rule="evenodd" stroke="none"/>
      <path d="M22.45 22.9 L23.4 22.55 23.75 23.1 23.5 23.95 23.35 24.45 23.15 23.75 22.5 24.15 22.45 22.9" fill="#ac98fb" fill-rule="evenodd" stroke="none"/>
      <path d="M25.55 25.5 L24.4 27.0 24.2 27.0 24.1 27.0 23.8 25.95 23.35 24.45 23.5 23.95 23.75 23.1 24.6 24.25 25.55 25.5" fill="#874def" fill-rule="evenodd" stroke="none"/>
      <path d="M21.05 20.15 L21.85 19.2 22.15 19.5 23.05 20.3 22.4 20.9 22.4 22.05 22.4 22.6 21.3 21.6 20.8 21.05 20.5 20.75 20.9 20.4 21.05 20.15" fill="#adaaf9" fill-rule="evenodd" stroke="none"/>
      <path d="M19.45 19.3 L19.7 18.9 20.3 19.5 21.05 20.15 20.9 20.4 20.5 20.75 20.3 21.0 19.7 21.0 19.5 21.0 19.2 21.0 19.15 20.5 19.1 20.0 19.45 19.3" fill="#d8f3fe" fill-rule="evenodd" stroke="none"/>
      <path d="M20.5 20.75 L20.8 21.05 21.3 21.6 20.5 23.55 19.95 23.6 19.65 23.7 19.8 23.45 20.2 22.45 19.35 22.3 19.2 22.25 19.5 21.0 19.7 21.0 20.3 21.0 20.5 20.75" fill="#cce7fc" fill-rule="evenodd" stroke="none"/>
      <path d="M18.25 20.45 L18.6 20.7 18.85 20.6 19.15 20.5 19.2 21.0 19.5 21.0 19.2 22.25 18.15 21.95 17.45 21.75 17.85 21.1 18.25 20.45" fill="#f8f9fe" fill-rule="evenodd" stroke="none"/>
      <path d="M19.2 22.25 L19.35 22.3 20.2 22.45 19.8 23.45 19.5 23.2 19.1 22.9 19.2 22.25" fill="#a9befd" fill-rule="evenodd" stroke="none"/>
      <path d="M17.2 19.6 L17.65 19.95 18.25 20.45 17.85 21.1 17.45 21.75 17.05 21.65 16.7 21.5 16.65 21.5 16.65 21.4 16.45 21.0 16.25 20.65 17.2 19.6" fill="#a1d8ff" fill-rule="evenodd" stroke="none"/>
      <path d="M18.15 21.95 L19.2 22.25 19.1 22.9 19.05 23.05 17.8 23.1 17.85 22.95 18.15 21.95" fill="#a6d5ff" fill-rule="evenodd" stroke="none"/>
      <path d="M19.8 23.45 L19.65 23.7 19.95 23.6 20.5 23.55 20.35 23.95 20.5 24.6 20.4 24.6 19.55 24.8 19.1 24.95 19.3 24.05 19.35 24.0 19.5 23.2 19.8 23.45" fill="#b5caff" fill-rule="evenodd" stroke="none"/>
      <path d="M19.1 22.9 L19.5 23.2 19.35 24.0 18.7 23.95 17.9 24.1 17.85 23.9 17.65 23.5 17.8 23.1 19.05 23.05 19.1 22.9" fill="#bae4fd" fill-rule="evenodd" stroke="none"/>
      <path d="M17.85 22.95 L17.8 23.1 17.65 23.5 17.85 23.9 17.9 24.1 18.1 24.55 17.05 24.65 16.6 24.65 16.95 23.45 17.15 22.65 17.85 22.95" fill="#d9ffff" fill-rule="evenodd" stroke="none"/>
      <path d="M18.1 24.55 L17.9 24.1 18.7 23.95 19.35 24.0 19.3 24.05 19.1 24.95 18.35 25.15 18.5 24.5 18.1 24.55" fill="#c1e5ff" fill-rule="evenodd" stroke="none"/>
      <path d="M17.05 24.65 L18.1 24.55 18.5 24.5 18.35 25.15 18.2 26.25 17.7 26.45 18.05 26.15 18.1 26.1 16.45 26.05 17.05 24.65" fill="#92e1ff" fill-rule="evenodd" stroke="none"/>
      <path d="M18.35 25.15 L19.1 24.95 19.55 24.8 20.4 24.6 20.5 24.6 20.8 26.25 19.7 25.6 18.85 25.95 18.2 26.25 18.35 25.15" fill="#c9f4fd" fill-rule="evenodd" stroke="none"/>
      <path d="M22.5 24.15 L22.4 24.15 21.6 24.35 21.55 24.5 21.45 24.1 21.2 24.2 21.05 24.3 21.1 23.65 21.1 23.45 20.5 23.55 21.3 21.6 22.4 22.6 22.45 22.9 22.5 24.15" fill="#b1a8f9" fill-rule="evenodd" stroke="none"/>
      <path d="M21.1 26.5 L21.1 26.55 20.85 26.6 20.8 26.25 20.5 24.6 20.35 23.95 20.5 23.55 21.1 23.45 21.1 23.65 21.05 24.3 21.2 24.2 21.45 24.1 21.55 24.5 21.1 26.5" fill="#b7b7ff" fill-rule="evenodd" stroke="none"/>
      <path d="M17.85 22.95 L17.15 22.65 16.8 22.45 16.95 22.1 17.05 21.65 17.45 21.75 18.15 21.95 17.85 22.95" fill="#b6e8ff" fill-rule="evenodd" stroke="none"/>
      <path d="M20.85 26.6 L20.1 26.65 17.4 27.0 17.05 27.05 17.7 26.45 18.2 26.25 18.85 25.95 19.7 25.6 20.8 26.25 20.85 26.6" fill="#a1dcfe" fill-rule="evenodd" stroke="none"/>
      <path d="M20.1 27.05 L19.4 27.1 17.0 27.5 17.4 27.0 20.1 26.65 20.1 27.05" fill="#afddfe" fill-rule="evenodd" stroke="none"/>
      <path d="M17.0 27.5 L16.1 27.6 17.35 26.4 14.8 26.35 14.55 26.3 13.45 26.3 12.7 26.3 12.75 25.9 14.1 25.95 14.65 26.0 16.45 26.05 18.1 26.1 18.05 26.15 17.7 26.45 17.05 27.05 17.4 27.0 17.0 27.5" fill="#b7d9ff" fill-rule="evenodd" stroke="none"/>
      <path d="M24.1 27.0 L22.9 26.7 22.75 26.65 23.35 24.45 23.8 25.95 24.1 27.0" fill="#8c5ef2" fill-rule="evenodd" stroke="none"/>
      <path d="M7.8 3.7 L7.95 3.8 8.05 3.8 9.7 4.75 10.35 5.2 10.8 5.45 10.9 5.5 11.8 6.1 12.15 6.35 12.05 6.6 11.6 6.4 11.05 6.0 10.95 6.0 10.1 5.45 8.55 4.6 7.7 4.15 7.7 4.1 7.8 3.8 7.8 3.7" fill="#c783fe" fill-rule="evenodd" stroke="none"/>
      <path d="M4.7 3.7 L3.3 1.6 5.95 2.85 6.35 3.0 7.8 3.7 7.8 3.8 7.7 4.1 6.15 3.3 4.5 2.55 5.0 3.5 4.7 3.7" fill="#df85ff" fill-rule="evenodd" stroke="none"/>
      <path d="M7.7 4.1 L7.7 4.15 8.55 4.6 10.1 5.45 9.5 6.0 8.5 7.0 7.15 4.9 7.7 4.1" fill="#c25eff" fill-rule="evenodd" stroke="none"/>
      <path d="M10.1 5.45 L10.95 6.0 11.05 6.0 11.6 6.4 11.4 6.7 10.35 8.1 10.25 7.85 9.5 6.0 10.1 5.45" fill="#a981fe" fill-rule="evenodd" stroke="none"/>
      <path d="M15.75 8.75 L15.55 9.0 14.4 8.2 12.45 6.85 12.05 6.6 12.15 6.35 12.5 6.55 13.5 7.25 14.5 7.9 15.1 8.35 15.75 8.75" fill="#aca9ff" fill-rule="evenodd" stroke="none"/>
      <path d="M11.6 6.4 L12.05 6.6 12.45 6.85 12.3 7.8 12.2 9.4 11.0 8.8 10.55 8.55 10.35 8.1 11.4 6.7 11.6 6.4" fill="#a4a3ff" fill-rule="evenodd" stroke="none"/>
      <path d="M5.0 3.5 L4.5 2.55 6.15 3.3 5.75 4.1 5.65 4.4 5.6 4.45 5.0 3.5" fill="#c938ff" fill-rule="evenodd" stroke="none"/>
      <path d="M6.9 7.35 L6.15 6.1 5.4 4.9 5.15 4.45 4.7 3.7 5.0 3.5 5.6 4.45 6.4 5.85 6.85 6.65 7.05 6.95 7.05 7.0 6.9 7.35" fill="#c773ff" fill-rule="evenodd" stroke="none"/>
      <path d="M6.15 3.3 L7.7 4.1 7.15 4.9 6.65 5.5 6.55 5.6 6.4 5.85 5.6 4.45 5.65 4.4 5.75 4.1 6.15 3.3" fill="#c543ff" fill-rule="evenodd" stroke="none"/>
      <path d="M7.15 4.9 L8.5 7.0 8.3 7.25 7.55 7.85 7.05 6.95 6.85 6.65 6.4 5.85 6.55 5.6 6.65 5.5 7.15 4.9" fill="#c758ff" fill-rule="evenodd" stroke="none"/>
      <path d="M8.3 10.1 L8.2 9.9 7.25 8.1 7.05 7.75 7.1 7.7 7.05 7.65 7.0 7.6 6.9 7.35 7.05 7.0 7.05 6.95 7.55 7.85 8.5 9.65 8.9 10.5 8.3 10.1" fill="#aa9eff" fill-rule="evenodd" stroke="none"/>
      <path d="M6.75 13.3 L6.1 12.7 4.3 11.15 5.5 11.65 6.1 11.9 6.15 12.0 6.1 12.1 6.45 12.4 7.15 13.0 6.9 13.2 6.75 13.3" fill="#d391ff" fill-rule="evenodd" stroke="none"/>
      <path d="M6.1 11.9 L6.7 12.1 6.75 12.15 8.25 12.65 8.4 12.8 8.5 13.0 7.8 12.85 7.6 12.8 7.4 12.75 7.35 12.75 7.35 12.7 7.15 12.6 6.45 12.4 6.1 12.1 6.15 12.0 6.1 11.9" fill="#cba9ff" fill-rule="evenodd" stroke="none"/>
      <path d="M6.45 12.4 L7.15 12.6 7.35 12.7 7.35 12.75 7.4 12.75 7.6 12.8 7.8 12.85 8.5 13.0 8.6 13.0 8.55 13.4 8.45 13.8 8.4 14.25 7.15 13.0 6.45 12.4" fill="#a969fe" fill-rule="evenodd" stroke="none"/>
      <path d="M8.6 15.1 L8.3 14.8 7.75 14.3 7.65 14.2 6.75 13.3 6.9 13.2 7.15 13.0 8.4 14.25 8.5 14.4 9.05 14.95 8.8 15.05 8.6 15.1" fill="#c2a8ff" fill-rule="evenodd" stroke="none"/>
      <path d="M8.1 17.65 Q7.9 17.5 7.5 17.3 L6.0 16.2 6.65 16.15 7.5 16.1 7.6 16.3 7.7 16.35 7.15 16.4 8.45 17.25 8.25 17.5 8.1 17.65" fill="#caacff" fill-rule="evenodd" stroke="none"/>
      <path d="M7.5 16.1 L7.75 16.05 7.85 16.1 8.35 16.05 9.05 15.95 9.4 15.9 8.9 15.4 8.6 15.1 8.8 15.05 9.05 14.95 9.15 15.1 10.1 16.2 9.6 16.25 9.0 16.3 7.7 16.35 7.6 16.3 7.5 16.1" fill="#a9bcfe" fill-rule="evenodd" stroke="none"/>
      <path d="M15.55 9.0 L16.3 9.55 16.1 11.5 15.55 11.15 14.35 10.55 Q14.15 10.35 13.85 10.25 L14.15 9.1 14.4 8.2 15.55 9.0" fill="#96dcfe" fill-rule="evenodd" stroke="none"/>
      <path d="M12.45 6.85 L14.4 8.2 14.15 9.1 13.85 10.25 12.2 9.4 12.3 7.8 12.45 6.85" fill="#9bcaff" fill-rule="evenodd" stroke="none"/>
      <path d="M12.85 12.0 L13.5 13.05 12.95 12.95 12.25 12.9 12.1 12.75 12.35 12.45 10.65 11.8 11.1 11.25 10.8 10.95 12.05 10.65 12.85 12.0" fill="#92eaff" fill-rule="evenodd" stroke="none"/>
      <path d="M13.5 13.05 L13.9 13.7 14.25 14.25 14.25 14.8 14.2 15.1 13.15 13.9 12.7 13.4 12.25 12.9 12.95 12.95 13.5 13.05" fill="#f5ffff" fill-rule="evenodd" stroke="none"/>
      <path d="M11.0 8.8 L12.2 9.4 13.85 10.25 Q14.15 10.35 14.35 10.55 L14.1 10.75 13.6 11.25 13.15 11.7 12.85 12.0 12.05 10.65 12.05 10.6 11.0 8.8" fill="#feffff" fill-rule="evenodd" stroke="none"/>
      <path d="M12.85 12.0 L13.15 11.7 13.6 11.25 14.1 10.75 14.35 10.55 15.55 11.15 14.9 12.1 14.15 13.3 13.9 13.7 13.5 13.05 12.85 12.0 M12.5 16.05 L11.8 15.25 11.55 15.0 11.1 14.45 11.8 14.7 12.9 15.15 13.25 15.3 12.65 15.95 12.5 16.05" fill="#fdfeff" fill-rule="evenodd" stroke="none"/>
      <path d="M17.45 12.2 L16.9 14.1 16.6 14.95 16.2 14.75 15.9 14.6 15.7 14.75 14.85 15.3 14.5 15.45 14.2 15.1 14.25 14.8 14.25 14.25 13.9 13.7 14.15 13.3 14.9 12.1 15.55 11.15 16.1 11.5 16.85 11.9 17.45 12.2" fill="#efffff" fill-rule="evenodd" stroke="none"/>
      <path d="M10.35 8.1 L10.55 8.55 10.2 8.4 9.35 9.05 9.25 8.55 9.2 8.0 8.5 7.0 9.5 6.0 10.25 7.85 10.35 8.1" fill="#bd86fe" fill-rule="evenodd" stroke="none"/>
      <path d="M10.55 8.55 L11.0 8.8 12.05 10.6 12.05 10.65 10.8 10.95 9.4 9.5 9.35 9.05 10.2 8.4 10.55 8.55" fill="#a2bdff" fill-rule="evenodd" stroke="none"/>
      <path d="M7.55 7.85 L8.3 7.25 8.5 7.0 9.2 8.0 9.25 8.55 9.35 9.05 8.8 9.45 8.5 9.65 7.55 7.85" fill="#b27fff" fill-rule="evenodd" stroke="none"/>
      <path d="M9.35 9.05 L9.4 9.5 10.8 10.95 10.4 11.05 9.35 11.35 8.9 10.5 8.5 9.65 8.8 9.45 9.35 9.05" fill="#88a7ff" fill-rule="evenodd" stroke="none"/>
      <path d="M8.6 11.8 L9.2 11.9 8.95 11.4 8.35 10.2 8.3 10.1 8.9 10.5 9.35 11.35 9.75 12.25 9.75 12.3 9.35 12.25 9.1 12.2 8.6 11.8" fill="#97b9ff" fill-rule="evenodd" stroke="none"/>
      <path d="M8.25 12.65 L8.4 12.7 8.6 12.8 9.0 12.9 8.65 12.65 8.45 12.45 7.15 11.45 8.6 11.8 9.1 12.2 8.75 12.15 8.95 12.4 9.6 13.1 9.65 13.25 9.5 13.2 8.6 13.0 8.5 13.0 8.4 12.8 8.25 12.65" fill="#b4b1ff" fill-rule="evenodd" stroke="none"/>
      <path d="M8.4 14.25 L8.45 13.8 8.55 13.4 8.6 13.0 9.5 13.2 9.65 13.25 9.6 13.1 10.05 12.5 10.85 13.25 9.85 14.35 9.75 14.45 9.25 15.05 9.15 15.1 9.05 14.95 8.5 14.4 8.4 14.25" fill="#a09bff" fill-rule="evenodd" stroke="none"/>
      <path d="M9.35 11.35 L10.4 11.05 10.8 10.95 11.1 11.25 10.65 11.8 10.4 12.05 10.05 12.5 9.6 13.1 8.95 12.4 8.75 12.15 9.1 12.2 9.35 12.25 9.75 12.3 9.75 12.25 9.35 11.35" fill="#75b9ff" fill-rule="evenodd" stroke="none"/>
      <path d="M10.65 11.8 L12.35 12.45 12.1 12.75 12.25 12.9 12.7 13.4 12.05 14.3 11.2 13.55 10.85 13.25 10.05 12.5 10.4 12.05 10.65 11.8" fill="#80d1ff" fill-rule="evenodd" stroke="none"/>
      <path d="M12.7 13.4 L13.15 13.9 14.2 15.1 14.5 15.45 14.85 15.9 14.15 15.65 14.05 15.6 13.25 15.3 12.9 15.15 11.8 14.7 11.85 14.65 12.05 14.3 12.7 13.4" fill="#9eefff" fill-rule="evenodd" stroke="none"/>
      <path d="M10.85 13.25 L11.2 13.55 12.05 14.3 11.85 14.65 11.8 14.7 11.1 14.45 11.55 15.0 11.0 15.8 10.9 15.8 10.7 15.65 10.55 15.65 9.25 15.05 9.75 14.45 9.85 14.35 10.85 13.25" fill="#a1c1fe" fill-rule="evenodd" stroke="none"/>
      <path d="M10.55 15.65 L10.7 15.65 10.9 15.8 11.0 15.8 11.55 15.0 11.8 15.25 12.5 16.05 13.25 16.95 12.85 17.0 12.2 17.05 11.75 17.1 11.05 17.15 10.55 15.65" fill="#a2ddfd" fill-rule="evenodd" stroke="none"/>
      <path d="M13.25 16.95 L12.5 16.05 12.65 15.95 13.25 15.3 14.05 15.6 14.15 15.65 14.85 15.9 15.05 16.2 15.1 16.2 14.5 16.35 14.4 16.4 13.75 16.55 13.7 16.7 13.55 16.75 13.5 16.85 13.25 16.95" fill="#f7ffff" fill-rule="evenodd" stroke="none"/>
      <path d="M10.55 15.65 L11.05 17.15 10.3 17.2 11.65 17.95 11.1 18.55 10.8 18.85 10.55 18.7 9.95 18.3 9.6 16.25 10.1 16.2 9.15 15.1 9.25 15.05 10.55 15.65" fill="#92aeff" fill-rule="evenodd" stroke="none"/>
      <path d="M10.35 19.05 L10.05 18.85 8.45 17.9 8.1 17.65 8.25 17.5 8.45 17.25 9.95 18.3 10.55 18.7 10.35 19.05" fill="#b8bdfd" fill-rule="evenodd" stroke="none"/>
      <path d="M8.45 17.25 L7.15 16.4 7.7 16.35 9.0 16.3 9.6 16.25 9.95 18.3 8.45 17.25" fill="#9f7afe" fill-rule="evenodd" stroke="none"/>
      <path d="M11.05 17.15 L11.75 17.1 12.2 17.05 12.85 17.0 13.3 17.75 13.95 19.1 13.1 18.65 12.6 18.45 12.25 18.25 11.65 17.95 10.3 17.2 11.05 17.15" fill="#fbffff" fill-rule="evenodd" stroke="none"/>
      <path d="M11.3 20.5 L12.15 20.2 12.15 20.15 11.5 19.8 10.5 19.15 10.35 19.05 10.55 18.7 10.8 18.85 12.5 20.0 12.75 20.1 12.5 20.25 12.4 20.3 11.45 20.7 11.4 20.55 11.3 20.5" fill="#b2d9ff" fill-rule="evenodd" stroke="none"/>
      <path d="M10.8 18.85 L11.1 18.55 11.65 17.95 12.25 18.25 12.6 18.45 12.9 19.45 13.15 20.35 12.65 20.6 12.55 20.45 12.4 20.3 12.5 20.25 12.75 20.1 12.5 20.0 10.8 18.85" fill="#8ccbfe" fill-rule="evenodd" stroke="none"/>
      <path d="M14.85 15.9 L14.5 15.45 14.85 15.3 15.7 14.75 15.9 14.6 16.2 14.75 16.5 15.25 16.35 15.8 15.75 15.9 15.3 16.1 15.05 16.2 14.85 15.9" fill="#ddffff" fill-rule="evenodd" stroke="none"/>
      <path d="M15.05 16.2 L15.3 16.1 15.75 15.9 16.35 15.8 16.5 15.25 17.45 16.9 16.95 17.65 16.2 17.4 14.75 17.2 14.7 17.15 14.4 16.4 14.5 16.35 15.1 16.2 15.05 16.2" fill="#d2fbff" fill-rule="evenodd" stroke="none"/>
      <path d="M14.7 17.15 L14.75 17.2 16.2 17.4 16.95 17.65 16.3 18.9 16.15 18.8 15.85 18.95 15.5 19.05 15.35 18.7 14.85 17.35 14.7 17.15" fill="#cdfdff" fill-rule="evenodd" stroke="none"/>
      <path d="M13.95 19.1 L14.65 19.45 14.1 19.75 13.15 20.35 12.9 19.45 12.6 18.45 13.1 18.65 13.95 19.1" fill="#91e7ff" fill-rule="evenodd" stroke="none"/>
      <path d="M15.35 18.7 L15.5 19.05 15.55 19.2 15.45 19.45 15.45 19.95 15.45 20.0 14.65 20.4 14.6 20.45 14.1 19.75 14.65 19.45 14.85 19.4 15.35 18.7" fill="#d8feff" fill-rule="evenodd" stroke="none"/>
      <path d="M16.5 19.1 L17.2 19.6 16.25 20.65 16.2 20.35 16.1 20.35 15.9 20.4 15.45 20.0 15.45 19.95 15.45 19.45 15.55 19.2 15.5 19.05 15.85 18.95 16.15 18.8 16.3 18.9 16.5 19.1" fill="#baedfe" fill-rule="evenodd" stroke="none"/>
      <path d="M15.45 20.0 L15.9 20.4 16.1 20.35 16.2 20.35 16.25 20.65 16.45 21.0 16.65 21.4 16.6 21.45 16.4 21.65 16.35 21.75 16.3 21.75 16.2 21.8 15.25 21.55 14.85 20.75 14.6 20.45 14.65 20.4 15.45 20.0" fill="#d7ffff" fill-rule="evenodd" stroke="none"/>
      <path d="M17.05 21.65 L16.95 22.1 16.8 22.45 16.7 22.75 16.4 22.85 16.15 22.8 15.85 22.8 14.75 22.75 15.65 22.2 15.9 22.0 16.2 21.8 16.3 21.75 16.35 21.75 16.4 21.65 16.6 21.45 16.65 21.4 16.65 21.5 16.7 21.5 17.05 21.65" fill="#cfffff" fill-rule="evenodd" stroke="none"/>
      <path d="M16.2 21.8 L15.9 22.0 15.65 22.2 14.75 22.75 15.85 22.8 16.15 22.8 16.4 22.85 16.15 23.0 16.0 23.05 15.15 23.5 14.6 23.8 Q14.5 23.8 14.3 23.95 L14.05 22.9 14.05 22.65 14.0 21.55 13.95 21.15 15.25 21.55 16.2 21.8" fill="#91e2ff" fill-rule="evenodd" stroke="none"/>
      <path d="M13.15 20.35 L14.1 19.75 14.6 20.45 14.85 20.75 15.25 21.55 13.95 21.15 13.25 20.95 12.9 20.85 12.5 20.8 12.3 20.75 12.5 20.65 12.65 20.6 13.15 20.35" fill="#f3ffff" fill-rule="evenodd" stroke="none"/>
      <path d="M13.95 21.15 L14.0 21.55 14.05 22.65 14.05 22.9 13.05 22.5 13.35 22.4 13.8 22.05 12.45 21.75 12.4 21.75 12.5 21.65 12.9 20.85 13.25 20.95 13.95 21.15" fill="#8bcaff" fill-rule="evenodd" stroke="none"/>
      <path d="M12.35 22.55 L12.8 22.4 13.05 22.35 12.85 22.3 12.4 22.25 12.45 21.75 13.8 22.05 13.35 22.4 13.05 22.5 12.65 22.8 12.35 22.55" fill="#addbfd" fill-rule="evenodd" stroke="none"/>
      <path d="M14.3 23.95 Q14.5 23.8 14.6 23.8 L15.15 23.5 15.85 24.75 15.6 24.8 14.8 24.8 14.5 24.9 13.65 24.95 12.75 25.0 11.95 25.1 13.15 24.5 13.3 24.4 Q13.95 24.1 14.3 23.95" fill="#f9ffff" fill-rule="evenodd" stroke="none"/>
      <path d="M11.8 23.45 L12.85 24.3 13.15 24.5 11.95 25.1 11.45 25.15 10.95 24.5 10.6 24.1 10.65 24.1 Q11.0 23.9 11.3 23.75 L11.65 23.6 11.8 23.45" fill="#9e73ff" fill-rule="evenodd" stroke="none"/>
      <path d="M14.05 22.9 L14.3 23.95 Q13.95 24.1 13.3 24.4 L13.15 24.5 12.85 24.3 11.8 23.45 12.7 23.05 12.3 22.95 12.65 22.8 13.05 22.5 14.05 22.9" fill="#8dbeff" fill-rule="evenodd" stroke="none"/>
      <path d="M14.65 26.0 L14.1 25.95 12.75 25.9 12.5 25.9 12.5 25.85 12.75 25.0 13.65 24.95 14.5 24.9 14.8 24.8 14.65 26.0" fill="#9daefe" fill-rule="evenodd" stroke="none"/>
      <path d="M17.15 22.65 L16.95 23.45 16.6 24.65 15.85 24.75 15.15 23.5 16.0 23.05 16.15 23.0 16.4 22.85 16.7 22.75 16.8 22.45 17.15 22.65" fill="#eaffff" fill-rule="evenodd" stroke="none"/>
      <path d="M16.6 24.65 L17.05 24.65 16.45 26.05 14.65 26.0 14.8 24.8 15.6 24.8 15.85 24.75 16.6 24.65" fill="#9cd0ff" fill-rule="evenodd" stroke="none"/>
      <path d="M12.4 20.3 L12.55 20.45 12.65 20.6 12.5 20.65 12.3 20.75 12.5 20.8 12.9 20.85 12.5 21.65 12.4 21.75 12.35 21.75 10.95 21.4 10.2 21.2 11.45 20.75 11.45 20.7 12.4 20.3" fill="#8ca7ff" fill-rule="evenodd" stroke="none"/>
      <path d="M10.55 21.9 L10.15 21.8 9.4 21.65 8.7 21.5 10.8 20.65 10.85 20.7 11.3 20.5 11.4 20.55 11.45 20.7 11.45 20.75 10.2 21.2 10.95 21.4 10.55 21.9" fill="#c1b0ff" fill-rule="evenodd" stroke="none"/>
      <path d="M12.4 22.25 L12.25 22.2 12.2 22.2 12.1 22.15 11.4 22.0 11.3 22.0 10.55 21.9 10.95 21.4 12.35 21.75 12.4 21.75 12.45 21.75 12.4 22.25" fill="#b5cbfd" fill-rule="evenodd" stroke="none"/>
      <path d="M10.6 24.1 L10.95 24.5 11.45 25.15 11.95 25.1 12.75 25.0 12.5 25.85 12.5 25.9 9.95 25.85 9.85 25.3 9.75 24.55 10.6 24.1" fill="#aa57ff" fill-rule="evenodd" stroke="none"/>
      <path d="M9.2 24.85 L9.75 24.55 9.85 25.3 9.95 25.85 8.55 25.85 7.1 25.85 7.4 25.7 9.2 24.85" fill="#b04bff" fill-rule="evenodd" stroke="none"/>
      <path d="M8.7 24.7 L9.05 24.55 9.1 24.5 9.65 24.25 10.4 23.9 11.0 23.6 11.25 23.75 11.3 23.75 Q11.0 23.9 10.65 24.1 L10.6 24.1 9.75 24.55 9.2 24.85 8.7 24.7" fill="#ce97ff" fill-rule="evenodd" stroke="none"/>
      <path d="M8.45 26.3 L6.85 26.25 6.45 26.25 5.5 26.3 6.6 25.7 6.85 25.6 7.1 25.45 8.7 24.7 9.2 24.85 7.4 25.7 7.1 25.85 8.55 25.85 8.5 26.0 8.45 26.3" fill="#d484ff" fill-rule="evenodd" stroke="none"/>
      <path d="M11.0 23.6 L11.4 23.4 11.55 23.3 11.9 23.15 11.7 23.1 11.5 23.05 10.9 23.0 11.55 22.75 11.9 22.7 12.0 22.65 12.1 22.65 12.35 22.55 12.65 22.8 12.3 22.95 12.7 23.05 11.8 23.45 11.65 23.6 11.3 23.75 11.25 23.75 11.0 23.6" fill="#b2c0ff" fill-rule="evenodd" stroke="none"/>
      <path d="M12.7 26.3 L12.45 26.3 11.35 26.3 11.3 26.35 10.0 26.3 8.45 26.3 8.5 26.0 8.55 25.85 9.95 25.85 12.5 25.9 12.75 25.9 12.7 26.3" fill="#cc99fe" fill-rule="evenodd" stroke="none"/>
      <path d="M20.5 10.15 L19.65 9.1 19.85 10.7 19.95 11.5 20.0 12.05 M21.25 11.05 L20.5 10.15 M22.4 12.5 L22.35 12.4 21.75 11.65 21.25 11.05" fill="none" stroke="#6f25ff" stroke-linecap="round" stroke-linejoin="round" stroke-width="0.5"/>
      <path d="M18.55 10.9 L18.35 10.8 18.25 10.65 16.95 9.7 M18.55 10.9 L19.45 11.55 19.6 11.75 20.0 12.05" fill="none" stroke="#2d62ff" stroke-linecap="round" stroke-linejoin="round" stroke-width="0.5"/>
      <path d="M23.35 13.6 L22.65 12.75 22.4 12.5 M24.15 16.55 L24.95 13.25 23.95 14.35 23.4 13.65 23.35 13.6 M24.15 16.55 L24.05 17.2 23.85 17.85 23.65 18.8" fill="none" stroke="#3069fe" stroke-linecap="round" stroke-linejoin="round" stroke-width="0.5"/>
      <path d="M23.65 18.8 L24.1 19.3 24.7 20.0 25.15 20.5 26.6 22.2 27.55 23.15 25.65 26.2 25.55 26.35 25.5 26.45 24.5 27.6 23.6 27.4 22.65 27.05 22.35 26.95 22.0 26.8 21.95 26.8 21.6 26.8 21.0 26.9 20.1 27.05 19.4 27.1 17.0 27.5 16.1 27.6 17.35 26.4 14.8 26.35" fill="none" stroke="#3062ff" stroke-linecap="round" stroke-linejoin="round" stroke-width="0.5"/>
      <path d="M7.05 7.75 L7.1 7.7 M7.0 7.6 L6.9 7.35 6.15 6.1 5.4 4.9 5.15 4.45 4.7 3.7 3.3 1.6 5.95 2.85 6.35 3.0 7.8 3.7 7.95 3.8 8.05 3.8 9.7 4.75 10.35 5.2 10.8 5.45 10.9 5.5" fill="none" stroke="#af01ff" stroke-linecap="round" stroke-linejoin="round" stroke-width="0.5"/>
      <path d="M16.95 9.7 L16.35 9.25 16.3 9.2 15.75 8.75 15.1 8.35 14.5 7.9 13.5 7.25 12.5 6.55 12.15 6.35 11.8 6.1 10.9 5.5" fill="none" stroke="#6f1afb" stroke-linecap="round" stroke-linejoin="round" stroke-width="0.5"/>
      <path d="M9.2 11.9 L8.95 11.4 8.35 10.2 8.3 10.1 8.2 9.9 7.25 8.1 7.05 7.75 M7.1 7.7 L7.05 7.65 7.0 7.6" fill="none" stroke="#7118ff" stroke-linecap="round" stroke-linejoin="round" stroke-width="0.5"/>
      <path d="M7.75 14.3 L7.65 14.2 6.75 13.3 6.1 12.7 4.3 11.15 5.5 11.65 6.1 11.9 6.7 12.1" fill="none" stroke="#a102fd" stroke-linecap="round" stroke-linejoin="round" stroke-width="0.5"/>
      <path d="M6.7 12.1 L6.75 12.15 8.25 12.65 8.4 12.7 8.6 12.8 9.0 12.9 8.65 12.65 8.45 12.45 7.15 11.45 8.6 11.8 9.2 11.9" fill="none" stroke="#6421fc" stroke-linecap="round" stroke-linejoin="round" stroke-width="0.5"/>
      <path d="M8.45 17.9 L8.1 17.65 Q7.9 17.5 7.5 17.3 L6.0 16.2 6.65 16.15 7.5 16.1 7.75 16.05" fill="none" stroke="#a603fe" stroke-linecap="round" stroke-linejoin="round" stroke-width="0.5"/>
      <path d="M7.75 16.05 L7.85 16.1 8.35 16.05 9.05 15.95 9.4 15.9 8.9 15.4 8.6 15.1 8.3 14.8 7.75 14.3" fill="none" stroke="#7019fe" stroke-linecap="round" stroke-linejoin="round" stroke-width="0.5"/>
      <path d="M10.9 23.0 L11.55 22.75 11.9 22.7 12.0 22.65 12.1 22.65 12.35 22.55 12.8 22.4 13.05 22.35 12.85 22.3 12.4 22.25 12.25 22.2 12.2 22.2 12.1 22.15 11.4 22.0 11.3 22.0 M10.8 20.65 L10.85 20.7 11.3 20.5 12.15 20.2 12.15 20.15 11.5 19.8 10.5 19.15 10.35 19.05 10.05 18.85 8.45 17.9" fill="none" stroke="#611cff" stroke-linecap="round" stroke-linejoin="round" stroke-width="0.5"/>
      <path d="M11.35 26.3 L11.3 26.35 10.0 26.3 8.45 26.3 6.85 26.25 6.45 26.25 5.5 26.3 6.6 25.7 6.85 25.6 7.1 25.45 8.7 24.7 9.05 24.55 M11.3 22.0 L10.55 21.9 10.15 21.8 9.4 21.65 8.7 21.5 10.8 20.65" fill="none" stroke="#9717e6" stroke-linecap="round" stroke-linejoin="round" stroke-width="0.5"/>
      <path d="M9.05 24.55 L9.1 24.5 9.65 24.25 10.4 23.9 11.0 23.6 11.4 23.4 11.55 23.3 11.9 23.15 11.7 23.1 11.5 23.05 10.9 23.0" fill="none" stroke="#6529fd" stroke-linecap="round" stroke-linejoin="round" stroke-width="0.5"/>
      <path d="M14.8 26.35 L14.55 26.3 13.45 26.3 12.7 26.3 12.45 26.3 11.35 26.3" fill="none" stroke="#8a1eff" stroke-linecap="round" stroke-linejoin="round" stroke-width="0.5"/>
    </g>
  </defs>
</svg>
