<?xml version="1.0" encoding="UTF-8" standalone="no"?>
<svg xmlns:ffdec="https://www.free-decompiler.com/flash" xmlns:xlink="http://www.w3.org/1999/xlink" ffdec:objectType="frame" height="30.0px" width="30.0px" xmlns="http://www.w3.org/2000/svg">
  <g transform="matrix(1.0, 0.0, 0.0, 1.0, 0.0, 0.0)">
    <use ffdec:characterId="1" height="30.0" transform="matrix(1.0, 0.0, 0.0, 1.0, 0.0, 0.0)" width="30.0" xlink:href="#shape0"/>
  </g>
  <defs>
    <g id="shape0" transform="matrix(1.0, 0.0, 0.0, 1.0, 0.0, 0.0)">
      <path d="M0.0 0.0 L30.0 0.0 30.0 30.0 0.0 30.0 0.0 0.0" fill="#33cc66" fill-opacity="0.0" fill-rule="evenodd" stroke="none"/>
      <path d="M3.3 0.0 L26.7 0.0 Q30.0 0.0 30.0 3.3 L30.0 26.7 Q30.0 30.0 26.7 30.0 L3.3 30.0 Q0.0 30.0 0.0 26.7 L0.0 3.3 Q0.0 0.0 3.3 0.0" fill="#ec6002" fill-rule="evenodd" stroke="none"/>
      <path d="M18.55 3.35 L19.05 3.8 20.2 6.5 21.7 10.35 22.3 11.2 22.75 10.45 22.75 10.35 22.9 8.85 22.9 7.45 23.5 8.15 23.75 9.15 23.9 9.6 Q23.4 9.6 23.0 10.25 L22.8 10.6 22.6 11.6 22.65 11.65 22.75 11.75 22.95 11.85 23.25 11.95 23.95 11.65 24.25 11.25 24.2 12.0 24.0 12.2 22.95 12.5 22.9 12.5 21.95 11.25 21.5 10.65 20.3 7.4 18.55 3.35 M5.65 22.5 L6.15 22.1 9.05 21.55 13.2 20.95 14.1 20.55 13.5 20.0 13.35 19.9 Q12.75 19.55 11.95 19.4 L10.55 19.2 11.45 18.75 12.4 18.7 12.85 18.65 Q12.8 19.1 13.3 19.6 L13.65 19.9 14.5 20.3 14.6 20.3 Q14.65 20.2 14.75 20.2 L14.9 20.0 15.1 19.75 14.85 19.0 14.6 18.65 15.3 18.85 15.4 19.1 15.55 20.1 15.55 20.2 14.1 20.85 Q13.75 21.05 13.45 21.2 L9.95 21.7 5.65 22.5 M9.6 9.0 L10.25 9.1 12.7 10.75 16.05 13.2 17.0 13.55 16.95 12.75 16.9 12.65 16.3 11.25 15.45 10.15 16.35 10.45 17.1 11.05 17.5 11.4 Q17.05 11.65 17.1 12.4 L17.1 12.85 17.5 13.75 17.7 13.85 17.95 13.8 18.25 13.7 18.65 13.05 18.7 12.6 19.05 13.25 18.9 13.5 18.3 14.3 18.25 14.4 16.8 13.85 16.05 13.6 13.25 11.5 9.6 9.0" fill="#f4ff1c" fill-rule="evenodd" stroke="none"/>
      <path d="M21.2 12.25 L19.8 9.25 17.55 5.65 17.0 5.0 15.85 4.0 13.2 2.05 15.7 2.55 18.5 3.3 18.55 3.35 20.3 7.4 21.5 10.65 21.95 11.25 22.9 12.5 22.95 12.5 24.0 12.2 24.2 12.0 24.15 12.6 24.2 12.85 24.2 13.0 24.15 13.0 23.95 13.05 23.35 13.2 23.05 13.35 23.0 15.3 23.05 16.55 23.0 16.5 22.4 15.95 22.45 15.5 22.5 15.35 22.75 13.35 21.45 12.35 21.2 12.25 M18.1 21.4 L15.85 21.65 11.65 22.55 Q9.45 23.15 7.7 23.95 L6.9 24.35 Q6.25 24.85 5.75 25.3 L3.2 27.5 4.25 25.15 5.6 22.55 5.65 22.5 9.95 21.7 13.45 21.2 Q13.75 21.05 14.1 20.85 L15.55 20.2 15.55 20.1 15.4 19.1 15.3 18.85 15.9 18.95 16.2 19.0 16.3 19.05 16.3 19.1 16.3 19.35 16.3 19.95 16.4 20.2 20.45 21.15 19.6 21.3 19.35 21.4 18.1 21.4 M19.2 17.1 L17.45 15.6 Q16.2 14.65 13.85 13.35 11.8 12.15 10.05 11.5 L9.2 11.25 7.7 11.05 4.35 10.8 6.7 9.85 Q8.2 9.35 9.55 9.0 L9.6 9.0 13.25 11.5 16.05 13.6 16.8 13.85 18.25 14.4 18.3 14.3 18.9 13.5 19.05 13.25 19.35 13.75 19.55 14.0 19.6 14.1 19.55 14.1 19.35 14.3 18.95 14.7 18.8 15.0 19.85 16.65 21.0 18.3 20.85 18.3 20.35 18.05 20.1 17.95 19.2 17.1" fill="#d4a023" fill-rule="evenodd" stroke="none"/>
      <path d="M19.05 3.8 L21.1 5.65 22.9 7.45 22.9 8.85 22.75 10.35 22.75 10.45 22.3 11.2 21.7 10.35 20.2 6.5 19.05 3.8 M23.9 9.6 L24.3 10.5 24.3 10.55 24.3 10.8 24.25 11.25 23.95 11.65 23.25 11.95 22.95 11.85 22.75 11.75 22.65 11.65 22.6 11.6 22.8 10.6 23.0 10.25 Q23.4 9.6 23.9 9.6 M6.15 22.1 L8.45 20.45 10.55 19.2 11.95 19.4 Q12.75 19.55 13.35 19.9 L13.5 20.0 14.1 20.55 13.2 20.95 9.05 21.55 6.15 22.1 M12.85 18.65 L13.9 18.45 13.95 18.4 14.1 18.5 14.6 18.65 14.85 19.0 15.1 19.75 14.9 20.0 14.75 20.2 Q14.65 20.2 14.6 20.3 L14.5 20.3 13.65 19.9 13.3 19.6 Q12.8 19.1 12.85 18.65 M10.25 9.1 L13.05 9.6 15.45 10.15 16.3 11.25 16.9 12.65 16.95 12.75 17.0 13.55 16.05 13.2 12.7 10.75 10.25 9.1 M17.5 11.4 L18.3 11.95 18.4 12.0 18.45 12.2 18.7 12.6 18.65 13.05 18.25 13.7 17.95 13.8 17.7 13.85 17.5 13.75 17.1 12.85 17.1 12.4 Q17.05 11.65 17.5 11.4" fill="#f7d122" fill-rule="evenodd" stroke="none"/>
      <path d="M25.45 10.2 L25.6 10.15 26.7 12.55 27.25 14.1 25.95 15.65 25.5 15.3 25.35 15.1 25.1 13.8 25.1 13.65 25.1 13.6 25.2 12.8 25.35 10.95 25.45 10.2 M25.85 15.75 L25.6 16.1 25.75 16.95 25.95 17.5 25.7 17.5 25.45 17.5 25.0 17.6 24.95 16.35 25.0 15.1 25.45 15.65 25.5 15.7 25.85 15.75 M26.0 17.8 L26.3 19.05 26.15 19.55 25.65 20.8 25.1 21.65 24.5 21.5 24.9 20.95 25.0 20.9 25.0 20.7 25.0 20.9 24.9 20.95 24.45 21.15 24.5 21.05 24.6 20.75 24.7 20.6 24.45 20.35 24.1 20.0 23.75 19.7 23.35 19.5 23.0 19.35 22.05 18.95 21.85 18.9 21.35 19.15 21.3 18.9 21.3 18.8 21.35 18.4 21.35 18.3 22.0 18.35 22.55 18.3 22.65 18.3 23.1 18.55 24.25 19.3 23.8 18.25 23.6 17.95 23.1 17.7 23.25 17.55 23.35 17.45 23.6 17.15 23.7 17.15 24.1 17.6 24.45 17.9 24.65 18.1 24.75 18.55 Q25.1 19.45 25.05 19.95 L25.0 20.7 Q25.5 19.65 25.5 18.4 L25.2 17.95 25.35 17.85 25.55 17.85 25.95 17.8 26.0 17.8 M13.85 17.25 L13.8 17.1 16.35 16.5 18.0 16.3 19.25 17.85 18.85 18.25 18.6 18.3 17.25 18.35 17.05 18.3 16.3 18.05 14.5 17.5 13.85 17.25 M19.15 11.05 L19.25 10.95 21.2 12.25 21.45 12.35 22.75 13.35 22.5 15.35 22.3 15.4 22.25 15.4 21.95 15.3 21.7 15.2 20.75 14.3 20.65 14.1 20.3 13.4 19.45 11.7 19.15 11.05 M22.45 15.5 L22.4 15.95 23.0 16.5 23.05 16.55 23.55 16.95 23.25 17.1 23.1 17.15 23.05 17.2 22.95 17.3 22.75 17.5 22.05 16.5 21.8 16.1 21.4 15.4 Q21.7 15.7 22.1 15.65 L22.3 15.6 22.45 15.5 M21.1 18.3 L21.05 18.4 21.05 18.45 21.0 18.55 20.95 18.75 20.9 19.05 20.9 19.25 19.7 19.0 18.5 18.7 19.15 18.4 19.2 18.35 19.3 18.15 19.3 18.0 19.55 18.25 19.6 18.3 19.65 18.3 19.75 18.35 20.45 18.35 20.85 18.3 21.0 18.3 21.1 18.3 M24.7 20.6 L24.9 20.1 24.25 19.3 24.9 20.1 24.7 20.6" fill="#fffcfc" fill-rule="evenodd" stroke="none"/>
      <path d="M24.3 10.5 L24.65 10.45 25.45 10.2 25.35 10.95 25.2 12.8 25.1 13.6 25.1 13.65 25.1 13.8 25.35 15.1 25.5 15.3 25.95 15.65 25.85 15.75 25.5 15.7 25.45 15.65 25.0 15.1 24.95 16.35 25.0 17.6 25.45 17.5 25.7 17.5 25.95 17.5 25.95 17.65 26.0 17.8 25.95 17.8 25.55 17.85 25.35 17.85 25.2 17.95 25.5 18.4 Q25.5 19.65 25.0 20.7 L25.05 19.95 Q25.1 19.45 24.75 18.55 L24.65 18.1 24.45 17.9 24.55 16.85 24.7 14.65 24.75 14.15 24.2 12.85 24.15 12.6 24.2 12.0 24.25 11.25 24.3 10.8 24.3 10.55 24.3 10.5 M24.5 21.5 L24.25 21.45 24.1 21.4 23.15 21.35 21.9 21.4 22.1 21.05 22.5 20.35 20.1 19.55 Q18.85 19.15 18.0 18.9 L17.5 18.85 16.2 19.0 15.9 18.95 15.3 18.85 14.6 18.65 14.1 18.5 13.95 18.4 13.9 18.45 13.9 18.1 13.85 17.25 14.5 17.5 16.3 18.05 17.05 18.3 17.1 18.35 17.25 18.35 18.6 18.3 18.85 18.25 19.25 17.85 19.3 17.95 19.2 17.1 20.1 17.95 20.35 18.05 20.85 18.3 20.45 18.35 19.75 18.35 19.65 18.3 19.55 18.25 19.3 18.0 19.3 18.15 19.2 18.35 19.15 18.4 18.5 18.7 19.7 19.0 20.9 19.25 20.9 19.05 20.95 18.75 21.0 18.55 21.05 18.45 21.05 18.4 21.1 18.3 21.15 18.3 21.35 18.3 21.15 18.3 21.1 18.3 21.0 18.3 19.85 16.65 18.8 15.0 18.95 14.7 19.35 14.3 20.5 15.0 20.85 15.6 21.6 16.9 21.65 17.0 22.0 18.35 21.35 18.3 21.35 18.4 21.3 18.8 21.3 18.9 21.35 19.15 21.85 18.9 22.05 18.95 23.0 19.35 23.35 19.5 23.75 19.7 24.1 20.0 24.45 20.35 24.7 20.6 24.6 20.75 24.5 21.05 24.45 21.15 24.9 20.95 24.5 21.5 M21.0 21.6 L18.9 22.1 18.1 21.4 19.35 21.4 19.6 21.3 20.45 21.15 16.4 20.2 16.3 19.95 16.3 19.35 17.5 19.05 18.25 19.2 19.7 19.6 19.8 19.65 21.5 20.75 21.1 21.35 21.0 21.6 M18.3 11.95 L18.55 11.7 19.15 11.05 19.45 11.7 20.3 13.4 20.65 14.1 20.65 14.15 20.75 14.3 21.7 15.2 21.95 15.3 22.25 15.4 22.3 15.4 22.5 15.35 22.45 15.5 22.3 15.6 22.1 15.65 Q21.7 15.7 21.4 15.4 L21.8 16.1 22.05 16.5 22.75 17.5 22.95 17.3 23.05 17.2 23.1 17.15 23.25 17.1 23.55 16.95 23.6 17.0 23.7 17.15 23.6 17.0 23.55 16.95 23.05 16.55 23.0 15.3 23.05 13.35 23.35 13.2 23.95 13.05 24.45 14.2 24.45 14.95 24.4 16.45 24.35 16.5 24.1 17.6 23.7 17.15 23.6 17.15 23.35 17.45 23.25 17.55 23.1 17.7 23.6 17.95 23.8 18.25 24.25 19.3 23.1 18.55 22.65 18.3 22.55 18.3 21.95 17.1 20.85 15.2 20.65 14.75 19.55 14.0 19.35 13.75 19.05 13.25 18.7 12.6 18.45 12.2 18.4 12.0 18.3 11.95 M19.3 17.95 L19.3 18.0 19.3 17.95 M24.4 21.15 L24.5 21.05 24.4 21.15 24.45 21.15 24.4 21.15 24.2 21.4 24.1 21.4 24.2 21.4 24.4 21.15 M22.85 20.65 L22.75 20.7 22.6 21.05 23.0 20.8 23.05 20.75 23.8 20.3 22.0 19.75 22.45 20.05 22.95 20.3 22.85 20.65" fill="#a398b4" fill-rule="evenodd" stroke="none"/>
      <path d="M21.9 21.4 L21.6 21.35 21.0 21.6 21.1 21.35 21.5 20.75 19.8 19.65 19.7 19.6 18.25 19.2 17.5 19.05 16.3 19.35 16.3 19.1 16.3 19.05 16.2 19.0 17.5 18.85 18.0 18.9 Q18.85 19.15 20.1 19.55 L22.5 20.35 22.1 21.05 21.9 21.4 M23.95 13.05 L24.15 13.0 24.2 13.0 24.2 12.85 24.75 14.15 24.7 14.65 24.55 16.85 24.45 17.9 24.1 17.6 24.35 16.5 24.4 16.45 24.45 14.95 24.45 14.2 23.95 13.05 M19.55 14.0 L20.65 14.75 20.85 15.2 21.95 17.1 22.55 18.3 22.0 18.35 21.65 17.0 21.6 16.9 20.85 15.6 20.5 15.0 19.35 14.3 19.55 14.1 19.6 14.1 19.55 14.0 M22.85 20.65 L22.95 20.3 22.45 20.05 22.0 19.75 23.8 20.3 23.05 20.75 23.0 20.8 22.6 21.05 22.75 20.7 22.85 20.65" fill="#6e598e" fill-rule="evenodd" stroke="none"/>
      <path d="M21.2 12.25 L19.8 9.25 17.55 5.65 17.0 5.0 15.85 4.0 13.2 2.05 15.7 2.55 18.5 3.3 18.55 3.35 19.05 3.8 21.1 5.65 22.9 7.45 23.5 8.15 23.75 9.15 23.9 9.6 24.3 10.5 24.65 10.45 25.45 10.2 25.6 10.15 26.7 12.55 27.25 14.1 25.95 15.65 25.85 15.75 25.6 16.1 25.75 16.95 25.95 17.5 25.95 17.65 26.0 17.8 26.3 19.05 26.15 19.55 25.65 20.8 25.1 21.65 24.5 21.5 24.25 21.45 24.1 21.4 23.15 21.35 21.9 21.4 21.6 21.35 21.0 21.6 18.9 22.1 18.1 21.4 15.85 21.65 11.65 22.55 Q9.45 23.15 7.7 23.95 L6.9 24.35 Q6.25 24.85 5.75 25.3 L3.2 27.5 4.25 25.15 5.6 22.55 5.65 22.5 6.15 22.1 8.45 20.45 10.55 19.2 11.45 18.75 12.4 18.7 12.85 18.65 13.9 18.45 13.9 18.1 13.85 17.25 13.8 17.1 16.35 16.5 18.0 16.3 19.25 17.85 19.3 17.95 19.2 17.1 17.45 15.6 Q16.2 14.65 13.85 13.35 11.8 12.15 10.05 11.5 L9.2 11.25 7.7 11.05 4.35 10.8 6.7 9.85 Q8.2 9.35 9.55 9.0 L9.6 9.0 10.25 9.1 13.05 9.6 15.45 10.15 16.35 10.45 17.1 11.05 17.5 11.4 18.3 11.95 18.55 11.7 19.15 11.05 19.25 10.95 21.2 12.25 21.45 12.35 22.75 13.35 22.5 15.35 22.45 15.5 22.4 15.95 23.0 16.5 23.05 16.55 23.0 15.3 23.05 13.35 23.35 13.2 23.95 13.05 24.15 13.0 24.2 13.0 24.2 12.85 24.15 12.6 24.2 12.0 24.25 11.25 24.3 10.8 24.3 10.55 24.3 10.5 M18.3 11.95 L18.4 12.0 18.45 12.2 18.7 12.6 19.05 13.25 19.35 13.75 19.55 14.0 19.6 14.1 19.55 14.1 19.35 14.3 18.95 14.7 18.8 15.0 19.85 16.65 21.0 18.3 21.1 18.3 21.15 18.3 21.35 18.3 22.0 18.35 22.55 18.3 22.65 18.3 23.1 18.55 24.25 19.3 24.9 20.1 24.7 20.6 24.6 20.75 24.5 21.05 24.4 21.15 24.2 21.4 24.1 21.4 M23.7 17.15 L23.6 17.0 23.55 16.95 23.05 16.55 M24.1 17.6 L24.45 17.9 24.65 18.1 24.75 18.55 Q25.1 19.45 25.05 19.95 L25.0 20.7 25.0 20.9 24.9 20.95 24.45 21.15 24.4 21.15 M19.3 18.0 L19.3 17.95 M23.7 17.15 L24.1 17.6 M19.65 18.3 L19.75 18.35 20.45 18.35 20.85 18.3 20.35 18.05 20.1 17.95 19.2 17.1 M20.85 18.3 L21.0 18.3 M19.55 18.25 L19.6 18.3 19.65 18.3 19.55 18.25 19.3 18.0 M15.3 18.85 L14.6 18.65 14.1 18.5 13.95 18.4 13.9 18.45 M16.2 19.0 L15.9 18.95 15.3 18.85 M18.1 21.4 L19.35 21.4 19.6 21.3 20.45 21.15 16.4 20.2 16.3 19.95 16.3 19.35 16.3 19.1 16.3 19.05 16.2 19.0" fill="none" stroke="#ffffff" stroke-linecap="round" stroke-linejoin="round" stroke-width="3.0"/>
      <path d="M18.55 3.35 L19.05 3.8 20.2 6.5 21.7 10.35 22.3 11.2 22.75 10.45 22.75 10.35 22.9 8.85 22.9 7.45 23.5 8.15 23.75 9.15 23.9 9.6 Q23.4 9.6 23.0 10.25 L22.8 10.6 22.6 11.6 22.65 11.65 22.75 11.75 22.95 11.85 23.25 11.95 23.95 11.65 24.25 11.25 24.2 12.0 24.0 12.2 22.95 12.5 22.9 12.5 21.95 11.25 21.5 10.65 20.3 7.4 18.55 3.35 M5.65 22.5 L6.15 22.1 9.05 21.55 13.2 20.95 14.1 20.55 13.5 20.0 13.35 19.9 Q12.75 19.55 11.95 19.4 L10.55 19.2 11.45 18.75 12.4 18.7 12.85 18.65 Q12.8 19.1 13.3 19.6 L13.65 19.9 14.5 20.3 14.6 20.3 Q14.65 20.2 14.75 20.2 L14.9 20.0 15.1 19.75 14.85 19.0 14.6 18.65 15.3 18.85 15.4 19.1 15.55 20.1 15.55 20.2 14.1 20.85 Q13.75 21.05 13.45 21.2 L9.95 21.7 5.65 22.5 M9.6 9.0 L10.25 9.1 12.7 10.75 16.05 13.2 17.0 13.55 16.95 12.75 16.9 12.65 16.3 11.25 15.45 10.15 16.35 10.45 17.1 11.05 17.5 11.4 Q17.05 11.65 17.1 12.4 L17.1 12.85 17.5 13.75 17.7 13.85 17.95 13.8 18.25 13.7 18.65 13.05 18.7 12.6 19.05 13.25 18.9 13.5 18.3 14.3 18.25 14.4 16.8 13.85 16.05 13.6 13.25 11.5 9.6 9.0" fill="#f4ff1c" fill-rule="evenodd" stroke="none"/>
      <path d="M21.2 12.25 L19.8 9.25 17.55 5.65 17.0 5.0 15.85 4.0 13.2 2.05 15.7 2.55 18.5 3.3 18.55 3.35 20.3 7.4 21.5 10.65 21.95 11.25 22.9 12.5 22.95 12.5 24.0 12.2 24.2 12.0 24.15 12.6 24.2 12.85 24.2 13.0 24.15 13.0 23.95 13.05 23.35 13.2 23.05 13.35 23.0 15.3 23.05 16.55 23.0 16.5 22.4 15.95 22.45 15.5 22.5 15.35 22.75 13.35 21.45 12.35 21.2 12.25 M18.1 21.4 L15.85 21.65 11.65 22.55 Q9.45 23.15 7.7 23.95 L6.9 24.35 Q6.25 24.85 5.75 25.3 L3.2 27.5 4.25 25.15 5.6 22.55 5.65 22.5 9.95 21.7 13.45 21.2 Q13.75 21.05 14.1 20.85 L15.55 20.2 15.55 20.1 15.4 19.1 15.3 18.85 15.9 18.95 16.2 19.0 16.3 19.05 16.3 19.1 16.3 19.35 16.3 19.95 16.4 20.2 20.45 21.15 19.6 21.3 19.35 21.4 18.1 21.4 M19.2 17.1 L17.45 15.6 Q16.2 14.65 13.85 13.35 11.8 12.15 10.05 11.5 L9.2 11.25 7.7 11.05 4.35 10.8 6.7 9.85 Q8.2 9.35 9.55 9.0 L9.6 9.0 13.25 11.5 16.05 13.6 16.8 13.85 18.25 14.4 18.3 14.3 18.9 13.5 19.05 13.25 19.35 13.75 19.55 14.0 19.6 14.1 19.55 14.1 19.35 14.3 18.95 14.7 18.8 15.0 19.85 16.65 21.0 18.3 20.85 18.3 20.35 18.05 20.1 17.95 19.2 17.1" fill="#d4a023" fill-rule="evenodd" stroke="none"/>
      <path d="M19.05 3.8 L21.1 5.65 22.9 7.45 22.9 8.85 22.75 10.35 22.75 10.45 22.3 11.2 21.7 10.35 20.2 6.5 19.05 3.8 M23.9 9.6 L24.3 10.5 24.3 10.55 24.3 10.8 24.25 11.25 23.95 11.65 23.25 11.95 22.95 11.85 22.75 11.75 22.65 11.65 22.6 11.6 22.8 10.6 23.0 10.25 Q23.4 9.6 23.9 9.6 M6.15 22.1 L8.45 20.45 10.55 19.2 11.95 19.4 Q12.75 19.55 13.35 19.9 L13.5 20.0 14.1 20.55 13.2 20.95 9.05 21.55 6.15 22.1 M12.85 18.65 L13.9 18.45 13.95 18.4 14.1 18.5 14.6 18.65 14.85 19.0 15.1 19.75 14.9 20.0 14.75 20.2 Q14.65 20.2 14.6 20.3 L14.5 20.3 13.65 19.9 13.3 19.6 Q12.8 19.1 12.85 18.65 M10.25 9.1 L13.05 9.6 15.45 10.15 16.3 11.25 16.9 12.65 16.95 12.75 17.0 13.55 16.05 13.2 12.7 10.75 10.25 9.1 M17.5 11.4 L18.3 11.95 18.4 12.0 18.45 12.2 18.7 12.6 18.65 13.05 18.25 13.7 17.95 13.8 17.7 13.85 17.5 13.75 17.1 12.85 17.1 12.4 Q17.05 11.65 17.5 11.4" fill="#f7d122" fill-rule="evenodd" stroke="none"/>
      <path d="M25.45 10.2 L25.6 10.15 26.7 12.55 27.25 14.1 25.95 15.65 25.5 15.3 25.35 15.1 25.1 13.8 25.1 13.65 25.1 13.6 25.2 12.8 25.35 10.95 25.45 10.2 M25.85 15.75 L25.6 16.1 25.75 16.95 25.95 17.5 25.7 17.5 25.45 17.5 25.0 17.6 24.95 16.35 25.0 15.1 25.45 15.65 25.5 15.7 25.85 15.75 M26.0 17.8 L26.3 19.05 26.15 19.55 25.65 20.8 25.1 21.65 24.5 21.5 24.9 20.95 24.45 21.15 24.5 21.05 24.6 20.75 24.7 20.6 24.45 20.35 24.1 20.0 23.75 19.7 23.35 19.5 23.0 19.35 22.05 18.95 21.85 18.9 21.35 19.15 21.3 18.9 21.3 18.8 21.35 18.4 21.35 18.3 22.0 18.35 22.55 18.3 22.65 18.3 23.1 18.55 24.25 19.3 23.8 18.25 23.6 17.95 23.1 17.7 23.25 17.55 23.35 17.45 23.6 17.15 23.7 17.15 24.1 17.6 24.45 17.9 24.65 18.1 24.75 18.55 Q25.1 19.45 25.05 19.95 L25.0 20.7 Q25.5 19.65 25.5 18.4 L25.2 17.95 25.35 17.85 25.55 17.85 25.95 17.8 26.0 17.8 M13.85 17.25 L13.8 17.1 16.35 16.5 18.0 16.3 19.25 17.85 18.85 18.25 18.6 18.3 17.25 18.35 17.05 18.3 16.3 18.05 14.5 17.5 13.85 17.25 M19.15 11.05 L19.25 10.95 21.2 12.25 21.45 12.35 22.75 13.35 22.5 15.35 22.3 15.4 22.25 15.4 21.95 15.3 21.7 15.2 20.75 14.3 20.65 14.1 20.3 13.4 19.45 11.7 19.15 11.05 M22.45 15.5 L22.4 15.95 23.0 16.5 23.05 16.55 23.55 16.95 23.25 17.1 23.1 17.15 23.05 17.2 22.95 17.3 22.75 17.5 22.05 16.5 21.8 16.1 21.4 15.4 Q21.7 15.7 22.1 15.65 L22.3 15.6 22.45 15.5 M21.1 18.3 L21.05 18.4 21.05 18.45 21.0 18.55 20.95 18.75 20.9 19.05 20.9 19.25 19.7 19.0 18.5 18.7 19.15 18.4 19.2 18.35 19.3 18.15 19.3 18.0 19.55 18.25 19.6 18.3 19.65 18.3 19.75 18.35 20.45 18.35 20.85 18.3 21.0 18.3 21.1 18.3 M24.7 20.6 L24.9 20.1 24.25 19.3 24.9 20.1 24.7 20.6 M25.0 20.7 L25.0 20.9 24.9 20.95 25.0 20.9 25.0 20.7" fill="#fffcfc" fill-rule="evenodd" stroke="none"/>
      <path d="M24.3 10.5 L24.65 10.45 25.45 10.2 25.35 10.95 25.2 12.8 25.1 13.6 25.1 13.65 25.1 13.8 25.35 15.1 25.5 15.3 25.95 15.65 25.85 15.75 25.5 15.7 25.45 15.65 25.0 15.1 24.95 16.35 25.0 17.6 25.45 17.5 25.7 17.5 25.95 17.5 25.95 17.65 26.0 17.8 25.95 17.8 25.55 17.85 25.35 17.85 25.2 17.95 25.5 18.4 Q25.5 19.65 25.0 20.7 L25.05 19.95 Q25.1 19.45 24.75 18.55 L24.65 18.1 24.45 17.9 24.55 16.85 24.7 14.65 24.75 14.15 24.2 12.85 24.15 12.6 24.2 12.0 24.25 11.25 24.3 10.8 24.3 10.55 24.3 10.5 M24.5 21.5 L24.25 21.45 24.1 21.4 23.15 21.35 21.9 21.4 22.1 21.05 22.5 20.35 20.1 19.55 Q18.85 19.15 18.0 18.9 L17.5 18.85 16.2 19.0 15.9 18.95 15.3 18.85 14.6 18.65 14.1 18.5 13.95 18.4 13.9 18.45 13.9 18.1 13.85 17.25 14.5 17.5 16.3 18.05 17.05 18.3 17.1 18.35 17.25 18.35 18.6 18.3 18.85 18.25 19.25 17.85 19.3 17.95 19.2 17.1 20.1 17.95 20.35 18.05 20.85 18.3 20.45 18.35 19.75 18.35 19.65 18.3 19.55 18.25 19.3 18.0 19.3 18.15 19.2 18.35 19.15 18.4 18.5 18.7 19.7 19.0 20.9 19.25 20.9 19.05 20.95 18.75 21.0 18.55 21.05 18.45 21.05 18.4 21.1 18.3 21.15 18.3 21.35 18.3 21.15 18.3 21.1 18.3 21.0 18.3 19.85 16.65 18.8 15.0 18.95 14.7 19.35 14.3 20.5 15.0 20.85 15.6 21.6 16.9 21.65 17.0 22.0 18.35 21.35 18.3 21.35 18.4 21.3 18.8 21.3 18.9 21.35 19.15 21.85 18.9 22.05 18.95 23.0 19.35 23.35 19.5 23.75 19.7 24.1 20.0 24.45 20.35 24.7 20.6 24.6 20.75 24.5 21.05 24.45 21.15 24.9 20.95 24.5 21.5 M21.0 21.6 L18.9 22.1 18.1 21.4 19.35 21.4 19.6 21.3 20.45 21.15 16.4 20.2 16.3 19.95 16.3 19.35 17.5 19.05 18.25 19.2 19.7 19.6 19.8 19.65 21.5 20.75 21.1 21.35 21.0 21.6 M18.3 11.95 L18.55 11.7 19.15 11.05 19.45 11.7 20.3 13.4 20.65 14.1 20.65 14.15 20.75 14.3 21.7 15.2 21.95 15.3 22.25 15.4 22.3 15.4 22.5 15.35 22.45 15.5 22.3 15.6 22.1 15.65 Q21.7 15.7 21.4 15.4 L21.8 16.1 22.05 16.5 22.75 17.5 22.95 17.3 23.05 17.2 23.1 17.15 23.25 17.1 23.55 16.95 23.6 17.0 23.7 17.15 23.6 17.0 23.55 16.95 23.05 16.55 23.0 15.3 23.05 13.35 23.35 13.2 23.95 13.05 24.45 14.2 24.45 14.95 24.4 16.45 24.35 16.5 24.1 17.6 23.7 17.15 23.6 17.15 23.35 17.45 23.25 17.55 23.1 17.7 23.6 17.95 23.8 18.25 24.25 19.3 23.1 18.55 22.65 18.3 22.55 18.3 21.95 17.1 20.85 15.2 20.65 14.75 19.55 14.0 19.35 13.75 19.05 13.25 18.7 12.6 18.45 12.2 18.4 12.0 18.3 11.95 M19.3 17.95 L19.3 18.0 19.3 17.95 M24.1 21.4 L24.2 21.4 24.4 21.15 24.45 21.15 24.4 21.15 24.2 21.4 24.1 21.4 M24.4 21.15 L24.5 21.05 24.4 21.15 M22.85 20.65 L22.75 20.7 22.6 21.05 23.0 20.8 23.05 20.75 23.8 20.3 22.0 19.75 22.45 20.05 22.95 20.3 22.85 20.65" fill="#a398b4" fill-rule="evenodd" stroke="none"/>
      <path d="M21.9 21.4 L21.6 21.35 21.0 21.6 21.1 21.35 21.5 20.75 19.8 19.65 19.7 19.6 18.25 19.2 17.5 19.05 16.3 19.35 16.3 19.1 16.3 19.05 16.2 19.0 17.5 18.85 18.0 18.9 Q18.85 19.15 20.1 19.55 L22.5 20.35 22.1 21.05 21.9 21.4 M23.95 13.05 L24.15 13.0 24.2 13.0 24.2 12.85 24.75 14.15 24.7 14.65 24.55 16.85 24.45 17.9 24.1 17.6 24.35 16.5 24.4 16.45 24.45 14.95 24.45 14.2 23.95 13.05 M19.55 14.0 L20.65 14.75 20.85 15.2 21.95 17.1 22.55 18.3 22.0 18.35 21.65 17.0 21.6 16.9 20.85 15.6 20.5 15.0 19.35 14.3 19.55 14.1 19.6 14.1 19.55 14.0 M22.85 20.65 L22.95 20.3 22.45 20.05 22.0 19.75 23.8 20.3 23.05 20.75 23.0 20.8 22.6 21.05 22.75 20.7 22.85 20.65" fill="#6e598e" fill-rule="evenodd" stroke="none"/>
      <path d="M21.2 12.25 L19.8 9.25 17.55 5.65 17.0 5.0 15.85 4.0 13.2 2.05 15.7 2.55 18.5 3.3 18.55 3.35 19.05 3.8 21.1 5.65 22.9 7.45 23.5 8.15 23.75 9.15 23.9 9.6 24.3 10.5 24.3 10.55 24.3 10.8 24.25 11.25 24.2 12.0 24.15 12.6 24.2 12.85 24.2 13.0 M18.1 21.4 L15.85 21.65 11.65 22.55 Q9.45 23.15 7.7 23.95 L6.9 24.35 Q6.25 24.85 5.75 25.3 L3.2 27.5 4.25 25.15 5.6 22.55 5.65 22.5 6.15 22.1 8.45 20.45 10.55 19.2 11.45 18.75 12.4 18.7 12.85 18.65 13.9 18.45 13.95 18.4 14.1 18.5 14.6 18.65 15.3 18.85 15.9 18.95 16.2 19.0 16.3 19.05 M19.2 17.1 L17.45 15.6 Q16.2 14.65 13.85 13.35 11.8 12.15 10.05 11.5 L9.2 11.25 7.7 11.05 4.35 10.8 6.7 9.85 Q8.2 9.35 9.55 9.0 L9.6 9.0 10.25 9.1 13.05 9.6 15.45 10.15 16.35 10.45 17.1 11.05 17.5 11.4 18.3 11.95 18.4 12.0 18.45 12.2 18.7 12.6 19.05 13.25 19.35 13.75 19.55 14.0 19.6 14.1 M20.85 18.3 L20.35 18.05 20.1 17.95 19.2 17.1 M18.1 21.4 L19.35 21.4 19.6 21.3 20.45 21.15" fill="none" stroke="#b14815" stroke-linecap="round" stroke-linejoin="round" stroke-width="0.5"/>
      <path d="M24.3 10.5 L24.65 10.45 25.45 10.2 25.6 10.15 26.7 12.55 27.25 14.1 25.95 15.65 25.85 15.75 25.6 16.1 25.75 16.95 25.95 17.5 25.95 17.65 26.0 17.8 26.3 19.05 26.15 19.55 25.65 20.8 25.1 21.65 24.5 21.5 24.25 21.45 24.1 21.4 23.15 21.35 21.9 21.4 21.6 21.35 21.0 21.6 18.9 22.1 18.1 21.4 M13.9 18.45 L13.9 18.1 13.85 17.25 13.8 17.1 16.35 16.5 18.0 16.3 19.25 17.85 19.3 17.95 19.2 17.1 M18.3 11.95 L18.55 11.7 19.15 11.05 19.25 10.95 21.2 12.25 21.45 12.35 22.75 13.35 22.5 15.35 22.45 15.5 22.4 15.95 23.0 16.5 23.05 16.55 23.0 15.3 23.05 13.35 23.35 13.2 23.95 13.05 24.15 13.0 24.2 13.0 M22.55 18.3 L22.65 18.3 23.1 18.55 24.25 19.3 24.9 20.1 24.7 20.6 24.6 20.75 24.5 21.05 24.4 21.15 24.2 21.4 24.1 21.4 M23.7 17.15 L23.6 17.0 23.55 16.95 23.05 16.55 M21.0 18.3 L19.85 16.65 18.8 15.0 18.95 14.7 19.35 14.3 19.55 14.1 19.6 14.1 M22.0 18.35 L22.55 18.3 M24.45 17.9 L24.65 18.1 24.75 18.55 Q25.1 19.45 25.05 19.95 L25.0 20.7 25.0 20.9 24.9 20.95 24.45 21.15 24.4 21.15 M24.1 17.6 L24.45 17.9 M21.35 18.3 L21.15 18.3 21.1 18.3 21.0 18.3 20.85 18.3 20.45 18.35 19.75 18.35 19.65 18.3 19.55 18.25 19.3 18.0 19.3 17.95 M23.7 17.15 L24.1 17.6 M21.35 18.3 L22.0 18.35 M19.55 18.25 L19.6 18.3 19.65 18.3 M20.45 21.15 L16.4 20.2 16.3 19.95 16.3 19.35 16.3 19.1 16.3 19.05" fill="none" stroke="#362348" stroke-linecap="round" stroke-linejoin="round" stroke-width="0.5"/>
    </g>
  </defs>
</svg>
