<?xml version="1.0" encoding="UTF-8" standalone="no"?>
<svg xmlns:ffdec="https://www.free-decompiler.com/flash" xmlns:xlink="http://www.w3.org/1999/xlink" ffdec:objectType="frame" height="30.0px" width="30.0px" xmlns="http://www.w3.org/2000/svg">
  <g transform="matrix(1.0, 0.0, 0.0, 1.0, 0.0, 0.0)">
    <use ffdec:characterId="1" height="30.0" transform="matrix(1.0, 0.0, 0.0, 1.0, 0.0, 0.0)" width="30.0" xlink:href="#shape0"/>
    <use ffdec:characterId="5" height="30.0" transform="matrix(1.0, 0.0, 0.0, 1.0, 0.0, 0.0)" width="30.0" xlink:href="#sprite0"/>
  </g>
  <defs>
    <g id="shape0" transform="matrix(1.0, 0.0, 0.0, 1.0, 0.0, 0.0)">
      <path d="M0.0 0.0 L30.0 0.0 30.0 30.0 0.0 30.0 0.0 0.0" fill="#33cc66" fill-opacity="0.0" fill-rule="evenodd" stroke="none"/>
    </g>
    <g id="sprite0" transform="matrix(1.0, 0.0, 0.0, 1.0, 0.0, 0.1)">
      <use ffdec:characterId="2" height="30.0" transform="matrix(1.0, 0.0, 0.0, 1.0, 0.0, -0.1)" width="30.0" xlink:href="#shape1"/>
      <use ffdec:characterId="4" height="78.7" transform="matrix(0.247, 0.0, 0.0, 0.247, 4.1795, 5.2795)" width="89.6" xlink:href="#sprite1"/>
    </g>
    <g id="shape1" transform="matrix(1.0, 0.0, 0.0, 1.0, 0.0, 0.1)">
      <path d="M3.3 -0.1 L26.7 -0.1 Q30.0 -0.1 30.0 3.2 L30.0 26.6 Q30.0 29.9 26.7 29.9 L3.3 29.9 Q0.0 29.9 0.0 26.6 L0.0 3.2 Q0.0 -0.1 3.3 -0.1" fill="#000099" fill-rule="evenodd" stroke="none"/>
      <path d="M4.9 5.95 L8.4 9.3 9.25 10.1 Q12.9 13.25 15.15 14.5 L15.25 14.55 15.45 14.7 15.5 14.7 15.7 14.55 15.8 14.45 15.95 14.45 17.4 14.7 18.25 14.9 18.8 15.1 18.85 15.1 21.25 17.05 25.25 19.5 Q25.65 20.25 25.85 21.45 L25.9 21.8 25.95 22.15 24.7 23.0 22.85 24.35 22.1 23.95 21.4 23.7 21.15 23.6 20.75 23.7 19.75 23.95 17.9 22.8 17.85 22.75 17.6 22.6 17.75 22.35 17.95 22.0 18.25 21.55 18.2 21.55 15.35 21.9 15.3 21.9 14.45 21.95 12.0 20.7 10.5 19.8 10.8 19.7 12.1 19.0 13.85 18.05 13.6 17.95 Q11.65 16.95 9.0 15.9 L7.1 15.25 6.75 14.2 5.85 11.45 Q4.9 7.95 4.55 5.65 L4.9 5.95 Z" fill="none" stroke="#ffffff" stroke-linecap="round" stroke-linejoin="round" stroke-width="3.0"/>
    </g>
    <g id="sprite1" transform="matrix(1.0, 0.0, 0.0, 1.0, 1.5, 1.5)">
      <use ffdec:characterId="3" height="78.7" transform="matrix(1.0, 0.0, 0.0, 1.0, -1.5, -1.5)" width="89.6" xlink:href="#shape2"/>
    </g>
    <g id="shape2" transform="matrix(1.0, 0.0, 0.0, 1.0, 1.5, 1.5)">
      <path d="M57.85 38.3 L57.55 38.7 56.8 39.85 59.3 43.65 60.9 44.85 Q64.6 47.55 68.35 49.95 L75.85 55.05 78.3 56.75 79.4 56.55 Q81.35 56.55 82.6 58.65 L83.1 59.7 Q83.6 61.0 83.6 62.4 83.6 64.75 82.55 66.05 L82.15 66.55 84.55 65.95 86.4 65.4 86.6 66.75 81.5 70.3 Q75.05 74.85 74.0 75.7 L70.9 74.15 68.2 72.95 67.2 72.6 65.55 72.95 66.6 71.2 68.2 71.5 68.6 71.55 70.55 71.85 72.55 72.15 73.9 70.45 Q74.8 68.85 74.8 67.75 74.8 66.1 73.7 64.55 72.7 63.15 71.25 62.75 L69.8 62.55 67.85 62.9 67.8 62.9 67.7 62.75 60.25 53.05 52.45 42.05 46.8 37.3 45.4 36.15 45.2 36.0 45.15 35.95 45.4 35.65 46.0 35.65 51.9 36.6 55.45 37.45 57.7 38.15 57.8 38.25 57.85 38.3 M81.85 59.0 L81.1 58.15 Q79.8 56.85 78.75 56.85 L78.55 56.9 77.7 57.15 77.5 57.3 77.25 57.15 71.95 53.7 69.95 52.4 Q65.3 49.4 61.15 46.4 L58.35 44.25 56.95 44.55 75.55 59.7 75.5 60.35 75.6 61.45 Q75.9 63.25 77.2 64.35 78.5 65.45 79.8 65.45 81.4 65.45 82.2 63.95 82.7 62.95 82.7 61.8 82.7 60.25 81.85 59.0 M76.15 64.7 L75.5 63.2 74.65 60.7 68.05 55.4 Q72.0 60.25 76.15 64.7" fill="#ff6600" fill-rule="evenodd" stroke="none"/>
      <path d="M81.85 59.0 Q82.7 60.25 82.7 61.8 82.7 62.95 82.2 63.95 81.4 65.45 79.8 65.45 78.5 65.45 77.2 64.35 75.9 63.25 75.6 61.45 L75.5 60.35 75.55 59.7 56.95 44.55 58.35 44.25 61.15 46.4 Q65.3 49.4 69.95 52.4 L71.95 53.7 77.25 57.15 77.5 57.3 77.7 57.15 78.55 56.9 78.75 56.85 Q79.8 56.85 81.1 58.15 L81.85 59.0 M1.3 1.25 L15.6 14.85 19.0 17.9 Q33.75 30.8 42.8 35.9 L43.2 36.1 44.0 36.55 44.0 37.65 44.2 38.95 45.4 39.6 52.35 44.0 59.55 53.6 68.25 65.55 70.0 65.25 70.5 65.3 Q71.9 65.35 72.8 66.05 73.8 66.8 73.8 67.95 73.8 71.25 69.5 71.25 L68.7 71.2 67.9 71.0 67.8 71.0 65.85 68.05 65.2 67.05 64.6 67.2 55.35 69.1 54.5 69.25 53.9 69.35 53.75 69.25 52.75 68.6 53.3 67.6 54.15 66.25 55.35 64.3 55.2 64.35 58.0 59.45 38.25 59.45 27.4 57.25 25.2 56.8 30.6 54.1 37.6 50.25 36.65 49.75 39.0 49.4 41.05 49.1 44.65 48.5 40.65 46.1 29.35 39.35 17.9 32.5 8.85 15.5 1.3 1.25" fill="#fdf3fe" fill-rule="evenodd" stroke="none"/>
      <path d="M86.4 65.4 L84.55 65.95 82.15 66.55 82.55 66.05 Q83.6 64.75 83.6 62.4 83.6 61.0 83.1 59.7 L82.6 58.65 Q81.35 56.55 79.4 56.55 L78.3 56.75 75.85 55.05 68.35 49.95 Q64.6 47.55 60.9 44.85 L59.3 43.65 56.8 39.85 57.55 38.7 57.85 38.3 Q62.75 42.65 67.6 46.05 L83.65 56.0 Q85.3 59.15 86.15 63.9 L86.4 65.4 M76.15 64.7 Q72.0 60.25 68.05 55.4 L74.65 60.7 75.5 63.2 76.15 64.7" fill="#ffff00" fill-rule="evenodd" stroke="none"/>
      <path d="M45.15 35.95 L45.2 36.0 45.4 36.15 46.8 37.3 52.45 42.05 60.25 53.05 67.7 62.75 67.8 62.9 67.85 62.9 69.8 62.55 71.25 62.75 Q72.7 63.15 73.7 64.55 74.8 66.1 74.8 67.75 74.8 68.85 73.9 70.45 L72.55 72.15 70.55 71.85 68.6 71.55 68.2 71.5 66.6 71.2 65.55 72.95 Q63.05 73.5 61.45 74.15 L53.9 69.35 54.5 69.25 55.35 69.1 64.6 67.2 65.2 67.05 65.85 68.05 67.8 71.0 67.9 71.0 68.7 71.2 69.5 71.25 Q73.8 71.25 73.8 67.95 73.8 66.8 72.8 66.05 71.9 65.35 70.5 65.3 L70.0 65.25 68.25 65.55 59.55 53.6 52.35 44.0 45.4 39.6 44.2 38.95 44.0 37.65 44.0 36.55 44.2 36.65 44.35 36.7 45.15 35.95 M1.3 1.25 L8.85 15.5 17.9 32.5 29.35 39.35 40.65 46.1 44.65 48.5 41.05 49.1 39.0 49.4 36.65 49.75 Q28.65 45.8 17.9 41.55 L10.2 38.8 8.75 34.65 Q7.15 29.95 5.3 23.5 1.3 9.35 0.0 0.0 L1.3 1.25 M25.2 56.8 L27.4 57.25 38.25 59.45 58.0 59.45 55.2 64.35 43.6 65.7 43.4 65.7 40.0 65.9 Q35.75 64.1 30.1 60.95 L24.0 57.35 25.2 56.8" fill="#b8b9e7" fill-rule="evenodd" stroke="none"/>
      <path d="M86.4 65.4 L86.15 63.9 Q85.3 59.15 83.65 56.0 L67.6 46.05 Q62.75 42.65 57.85 38.3 L57.8 38.25 57.7 38.15 55.45 37.45 51.9 36.6 46.0 35.65 45.4 35.65 45.15 35.95 44.35 36.7 44.2 36.65 44.0 36.55 43.2 36.1 42.8 35.9 Q33.75 30.8 19.0 17.9 L15.6 14.85 1.3 1.25 0.0 0.0 Q1.3 9.35 5.3 23.5 7.15 29.95 8.75 34.65 L10.2 38.8 17.9 41.55 Q28.65 45.8 36.65 49.75 L37.6 50.25 30.6 54.1 25.2 56.8 24.0 57.35 30.1 60.95 Q35.75 64.1 40.0 65.9 L43.4 65.7 43.6 65.7 55.2 64.35 55.35 64.3 54.15 66.25 53.3 67.6 52.75 68.6 53.75 69.25 53.9 69.35 61.45 74.15 Q63.05 73.5 65.55 72.95 L67.2 72.6 68.2 72.95 70.9 74.15 74.0 75.7 Q75.05 74.85 81.5 70.3 L86.6 66.75 86.4 65.4 Z" fill="none" stroke="#0c2c8a" stroke-linecap="round" stroke-linejoin="round" stroke-width="3.0"/>
    </g>
  </defs>
</svg>
