<?xml version="1.0" encoding="UTF-8" standalone="no"?>
<svg xmlns:ffdec="https://www.free-decompiler.com/flash" xmlns:xlink="http://www.w3.org/1999/xlink" ffdec:objectType="frame" height="30.0px" width="30.0px" xmlns="http://www.w3.org/2000/svg">
  <g transform="matrix(1.0, 0.0, 0.0, 1.0, 0.0, 0.0)">
    <use ffdec:characterId="1" height="30.0" transform="matrix(1.0, 0.0, 0.0, 1.0, 0.0, 0.0)" width="30.0" xlink:href="#shape0"/>
    <use ffdec:characterId="5" height="290.4" transform="matrix(0.0817, 0.0, 0.0, 0.0817, 2.15, 2.45)" width="338.3" xlink:href="#sprite0"/>
  </g>
  <defs>
    <g id="shape0" transform="matrix(1.0, 0.0, 0.0, 1.0, 0.0, 0.0)">
      <path d="M0.0 0.0 L30.0 0.0 30.0 30.0 0.0 30.0 0.0 0.0" fill="#33cc66" fill-opacity="0.0" fill-rule="evenodd" stroke="none"/>
      <path d="M0.0 3.3 Q0.0 0.0 3.3 0.0 L26.7 0.0 Q30.0 0.0 30.0 3.3 L30.0 26.7 Q30.0 30.0 26.7 30.0 L3.3 30.0 Q0.0 30.0 0.0 26.7 L0.0 3.3" fill="#7089af" fill-rule="evenodd" stroke="none"/>
    </g>
    <g id="sprite0" transform="matrix(1.0, 0.0, 0.0, 1.0, 0.0, 0.0)">
      <filter id="filter0">
        <feConvolveMatrix divisor="1.0" in="SourceGraphic" kernelMatrix="1" order="1 1" result="filterResult0"/>
        <feConvolveMatrix divisor="1.0" in="filterResult0" kernelMatrix="1" order="1 1" result="filterResult1"/>
        <feConvolveMatrix divisor="1.0" in="filterResult1" kernelMatrix="1" order="1 1" result="filterResult2"/>
        <feColorMatrix in="filterResult2" result="filterResult3" type="matrix" values="0 0 0 0 0.023529412,0 0 0 0 1.0,0 0 0 0 0.99607843,0 0 0 1 0"/>
        <feConvolveMatrix divisor="4.0" in="filterResult3" kernelMatrix="1 1 1 1" order="2 2" result="filterResult4"/>
        <feComposite in="filterResult2" in2="filterResult4" operator="over" result="filterResult5"/>
      </filter>
      <use ffdec:characterId="3" filter="url(#filter0)" height="290.4" transform="matrix(1.0, 0.0, 0.0, 1.0, 0.0, 0.0)" width="338.3" xlink:href="#sprite1"/>
      <use ffdec:characterId="4" height="117.55" transform="matrix(1.0, 0.0, 0.0, 1.0, 113.3, 67.75)" width="91.75" xlink:href="#shape2"/>
    </g>
    <g id="sprite1" transform="matrix(1.0, 0.0, 0.0, 1.0, 0.0, 0.0)">
      <use ffdec:characterId="2" height="290.4" transform="matrix(1.0, 0.0, 0.0, 1.0, 0.0, 0.0)" width="338.3" xlink:href="#shape1"/>
    </g>
    <g id="shape1" transform="matrix(1.0, 0.0, 0.0, 1.0, 0.0, 0.0)">
      <path d="M338.3 185.75 Q333.2 188.15 333.05 188.25 L331.7 189.1 Q320.3 194.9 311.8 198.55 L302.75 202.35 301.05 203.05 300.15 203.45 296.6 204.9 286.3 209.25 268.55 217.15 267.65 217.55 266.4 218.1 Q229.8 232.0 225.5 232.45 L223.85 232.2 Q223.0 231.85 222.8 231.05 222.5 229.65 223.7 228.55 224.05 228.25 223.7 227.95 L223.5 227.95 219.25 229.35 214.9 231.8 Q212.6 232.85 210.3 234.0 L207.65 235.25 201.45 237.8 199.1 238.7 189.75 242.1 194.55 238.2 194.75 238.05 199.7 234.35 202.65 232.1 204.25 231.3 205.35 230.85 205.9 230.35 205.35 229.9 205.2 229.55 Q205.0 228.0 205.35 226.55 L205.55 226.0 205.8 225.5 206.35 224.6 207.35 223.45 208.0 222.65 Q209.1 221.35 210.55 220.4 L212.05 219.45 Q214.15 218.2 216.45 217.25 217.7 216.75 218.85 216.05 L225.7 212.55 230.15 210.8 232.1 210.15 237.3 208.65 237.75 208.5 242.6 207.35 242.9 207.35 Q245.25 207.4 247.5 208.1 L247.75 208.25 247.9 208.95 247.65 210.2 247.4 210.6 246.4 212.05 244.45 214.5 241.5 217.6 239.1 219.65 238.7 219.95 237.3 221.05 236.1 222.0 237.3 221.65 240.35 220.65 244.7 219.15 246.5 218.6 250.5 217.3 250.55 217.3 255.1 215.8 260.1 214.1 265.5 212.15 271.1 210.1 272.7 209.5 281.5 206.15 288.1 203.7 292.2 202.2 303.15 198.15 323.75 190.6 Q325.0 190.65 326.2 190.15 327.7 189.55 329.3 189.1 331.3 188.55 338.3 185.75" fill="url(#gradient0)" fill-rule="evenodd" stroke="none"/>
      <path d="M247.65 90.75 L246.85 92.6 245.7 93.95 238.0 103.5 236.25 105.7 231.15 112.15 228.1 116.75 227.7 117.55 Q229.8 116.7 232.15 116.15 L238.5 114.7 Q243.35 113.75 248.1 112.3 L251.75 111.25 Q254.5 110.55 254.15 113.15 L254.1 113.95 Q254.1 116.35 252.5 118.35 247.15 125.35 240.8 131.45 L239.3 132.75 Q239.45 131.45 240.75 130.2 L243.25 127.5 246.05 123.5 246.85 121.9 Q245.4 121.9 244.0 123.0 L242.55 124.05 239.35 126.05 Q237.95 126.85 236.65 127.75 L236.35 128.25 233.3 133.15 Q230.25 137.8 229.45 143.15 L229.45 143.25 Q229.2 144.75 228.5 145.95 229.6 146.65 231.7 146.4 L235.7 146.1 Q238.5 146.05 240.5 147.95 241.4 148.85 240.65 150.05 L239.95 151.05 Q238.1 153.65 235.6 155.85 L230.55 160.05 229.45 160.9 227.75 162.4 227.15 162.9 222.05 167.0 219.5 168.85 214.55 172.1 212.4 173.45 210.4 174.65 207.05 176.6 204.1 178.25 204.7 178.1 207.3 177.65 210.9 177.5 Q211.85 177.55 212.4 178.2 212.75 178.6 212.5 179.25 L211.5 180.85 209.85 182.4 206.7 184.6 204.45 185.75 204.2 185.75 204.0 185.75 Q203.75 185.85 204.1 185.85 L205.1 185.95 207.5 186.1 210.2 186.3 211.45 185.75 214.0 184.75 217.2 183.7 220.4 182.8 221.45 182.6 223.5 182.65 225.15 182.95 225.2 182.95 Q225.3 183.45 224.95 183.8 L223.25 185.45 220.75 187.3 219.0 188.45 212.25 192.45 204.7 196.7 202.3 197.95 199.8 199.15 198.0 200.0 197.0 200.5 196.3 200.95 196.1 201.05 193.1 202.45 191.4 203.25 187.9 204.85 186.3 205.55 183.4 206.95 183.35 207.0 184.2 206.8 185.7 206.6 189.55 206.5 193.3 206.3 195.0 206.4 198.3 206.8 199.25 206.95 200.15 208.05 200.6 208.85 200.7 209.25 200.8 210.05 Q200.75 211.1 200.3 212.1 L200.1 212.45 198.55 214.6 197.25 215.7 194.0 218.0 Q193.05 218.65 191.35 219.55 L188.1 221.2 186.15 222.1 Q185.8 222.2 185.2 222.45 L184.8 222.55 181.3 223.6 178.1 224.55 174.6 225.45 173.4 225.75 170.8 226.05 167.1 226.35 159.15 226.5 151.1 226.05 Q150.5 226.0 150.35 225.45 150.3 225.3 150.4 225.2 151.2 224.35 152.3 223.85 L150.1 224.2 147.95 224.5 147.7 224.6 145.7 225.55 143.2 226.5 140.7 227.15 138.2 227.55 Q136.4 227.75 134.6 227.55 L133.65 227.3 133.1 227.15 132.4 227.3 128.8 228.65 128.1 229.0 127.5 229.35 125.6 229.9 125.5 229.95 122.6 230.8 120.75 231.45 118.6 232.1 117.1 232.5 Q115.35 233.0 113.7 233.6 L112.6 234.0 111.1 234.35 111.3 234.25 112.3 233.8 115.4 232.15 117.0 231.2 118.85 230.2 122.2 228.65 124.2 227.75 127.8 226.05 130.9 224.55 133.6 223.25 136.45 221.95 137.0 221.7 137.9 221.05 Q139.1 220.25 139.9 219.05 L140.0 218.65 140.0 218.45 139.9 218.15 139.3 217.7 138.55 217.45 Q137.0 217.7 135.5 218.25 L134.55 218.6 132.35 219.6 132.3 219.6 132.2 219.65 131.6 219.9 130.7 220.2 129.75 220.6 Q128.9 220.95 128.1 221.35 L126.7 221.95 124.8 222.75 122.9 223.45 119.2 224.65 115.6 225.85 112.3 226.85 109.4 227.65 108.2 227.95 105.0 228.45 102.0 228.3 101.7 228.25 101.45 229.05 101.35 229.25 100.65 230.3 Q99.25 231.65 97.5 232.6 95.85 233.5 94.1 233.95 L92.3 234.3 91.6 234.5 87.8 235.05 85.0 235.35 Q81.05 235.6 77.15 235.35 L73.7 235.0 68.9 233.95 Q66.85 233.4 64.95 232.4 64.0 231.15 63.45 229.6 L63.2 228.15 63.2 228.05 Q63.25 226.65 63.6 225.25 L63.6 225.2 Q64.05 223.3 64.75 221.5 L65.0 220.9 65.6 219.95 66.75 218.4 68.9 215.75 69.9 214.65 72.25 212.2 73.55 210.8 74.65 209.8 77.5 207.5 77.85 207.25 Q80.45 205.25 83.05 203.4 84.25 202.55 85.5 201.8 L90.4 198.85 Q93.35 197.25 96.35 195.8 L99.5 194.4 104.5 192.5 106.95 191.7 Q105.45 192.95 104.2 194.45 103.3 195.55 102.85 196.85 102.6 197.55 103.0 198.15 103.3 198.65 103.95 198.85 L106.1 199.3 109.05 198.75 112.3 197.9 118.05 195.65 Q119.3 195.15 120.35 194.35 122.7 192.65 124.55 190.45 125.7 189.15 126.2 187.45 L126.65 184.55 Q126.7 183.1 125.9 181.95 L124.75 180.75 122.15 178.75 120.3 178.45 117.5 178.05 114.9 177.85 114.5 177.85 111.9 177.9 108.4 178.35 106.7 178.45 100.7 178.9 96.1 179.1 92.55 178.9 Q90.35 178.6 88.75 177.1 L88.45 176.8 88.0 176.45 87.5 176.1 Q86.8 175.55 86.45 174.7 85.6 172.7 85.65 170.55 85.7 169.55 85.9 168.6 L86.6 165.55 Q87.35 162.85 88.55 160.35 91.3 154.75 96.35 151.0 L98.85 149.05 Q101.65 146.8 104.9 145.35 L104.3 145.45 102.35 145.7 100.45 146.1 Q96.8 147.6 93.3 149.15 L93.9 149.15 95.3 149.15 Q96.1 149.2 96.3 149.55 L96.1 149.95 95.9 150.15 94.9 150.8 Q92.35 152.6 89.3 153.5 L85.0 154.7 Q82.15 154.9 79.3 154.75 79.3 154.35 79.45 154.0 80.25 152.15 81.6 151.4 L82.6 150.9 84.0 150.15 85.4 149.4 Q89.1 147.6 92.9 145.95 L95.35 144.9 96.0 144.6 97.0 144.1 Q100.25 142.35 102.9 139.55 L104.75 137.05 105.1 136.55 Q105.6 136.05 105.4 134.75 105.25 133.35 103.7 133.3 L94.9 133.65 91.3 134.4 90.5 134.65 84.9 135.7 79.65 136.45 Q77.1 136.75 74.9 135.8 72.1 134.55 70.55 131.85 69.7 130.35 70.35 128.6 71.5 125.35 73.45 122.45 L75.5 119.9 75.65 116.75 76.35 111.35 76.6 110.1 Q77.25 107.05 78.35 104.15 L78.8 102.7 78.7 102.05 Q78.6 101.85 78.3 101.8 L77.05 101.45 Q75.8 100.75 75.4 99.55 74.5 96.55 74.55 93.35 74.6 91.55 75.1 89.8 77.1 83.25 79.45 76.8 80.3 74.45 81.45 72.2 L87.75 60.15 90.3 55.3 92.7 52.75 94.85 50.3 99.0 45.3 103.7 39.15 Q105.7 36.5 106.75 33.3 106.9 32.85 106.65 32.7 105.5 31.85 104.05 31.5 L101.1 30.95 Q100.05 30.8 100.5 29.95 101.1 28.85 102.15 28.0 L106.35 24.85 Q110.5 21.95 114.75 19.25 121.3 15.05 127.95 11.05 130.4 9.55 132.95 8.3 140.1 4.85 147.4 1.75 149.2 1.0 151.1 0.45 L152.55 0.2 157.9 0.4 Q158.5 0.55 158.25 1.35 157.5 3.55 156.0 5.5 153.35 8.95 150.1 11.95 154.85 9.1 160.5 7.5 172.3 4.2 184.45 2.5 L195.75 1.1 201.7 0.85 203.8 0.95 203.25 1.5 Q199.05 5.55 194.45 9.2 193.5 9.95 192.9 11.15 L213.75 7.7 222.9 6.4 227.3 6.3 229.35 6.55 231.15 6.9 Q231.5 11.45 229.4 15.6 L223.9 26.25 Q221.7 30.35 219.15 34.25 L212.2 44.8 Q210.5 47.35 209.55 50.15 209.3 50.95 209.8 51.9 212.5 57.2 212.85 63.15 212.9 63.95 213.5 64.15 L216.1 64.25 222.5 62.85 Q227.3 61.75 232.15 61.3 L243.9 61.8 Q246.9 62.35 249.25 64.45 251.3 66.35 251.8 68.95 252.7 73.35 251.85 77.85 251.1 81.95 249.6 85.9 L247.65 90.75 M204.1 178.25 Q202.75 178.6 201.5 179.1 L203.7 178.45 204.1 178.25" fill="url(#gradient1)" fill-rule="evenodd" stroke="none"/>
      <path d="M268.55 193.2 Q268.85 192.6 269.65 192.1 L271.15 191.2 Q272.2 190.55 273.35 190.15 L274.55 189.85 276.7 189.35 Q278.3 189.05 279.2 190.25 L279.25 190.55 278.9 190.95 279.1 190.9 Q283.75 189.65 288.3 188.0 L290.45 187.95 290.5 188.15 Q290.65 190.1 289.1 191.35 L287.95 192.3 Q278.15 197.05 267.7 200.25 L267.1 200.45 264.7 201.4 Q263.15 202.1 261.5 202.15 L261.8 201.4 262.25 200.55 262.45 200.3 Q263.9 198.1 265.85 196.3 L266.95 195.25 268.55 193.2" fill="url(#gradient2)" fill-rule="evenodd" stroke="none"/>
      <path d="M128.25 239.45 L132.25 238.25 133.45 237.8 Q135.5 237.0 137.7 236.6 L141.5 235.7 Q145.1 234.55 148.9 234.1 L150.9 233.75 156.7 232.8 164.5 232.05 166.3 231.9 Q166.9 231.85 167.3 232.15 L166.95 232.55 166.65 232.9 171.7 232.05 178.1 231.75 180.5 231.65 Q181.0 231.6 181.25 232.0 L181.6 232.8 177.6 236.25 175.0 238.3 174.1 238.95 Q168.55 242.9 162.55 246.0 157.35 248.7 151.75 249.7 L149.3 249.9 Q147.8 249.9 146.9 250.75 L147.5 251.25 147.8 251.85 147.85 252.55 Q147.75 253.45 146.5 254.0 L144.1 255.2 141.2 256.45 139.1 257.15 134.45 257.9 Q131.1 258.35 127.75 257.9 125.35 257.6 124.5 256.2 L124.35 255.9 124.25 255.6 Q123.65 253.8 125.2 251.8 L119.3 255.15 115.65 257.0 115.4 257.1 113.25 258.05 106.85 260.6 103.05 262.0 94.9 263.45 88.9 264.35 77.35 264.85 Q76.6 264.8 76.3 264.5 L76.25 264.45 Q76.0 264.2 76.05 263.8 76.5 261.15 78.65 258.9 79.7 257.8 80.85 256.85 L68.45 261.8 54.95 266.85 40.5 272.35 34.55 274.7 Q31.15 276.0 26.0 278.15 20.8 280.3 0.0 290.4 L24.2 274.95 Q31.1 270.95 38.15 267.25 43.3 264.55 48.55 262.1 50.35 261.25 52.1 260.5 L50.9 260.7 50.1 260.8 Q49.05 261.0 48.9 260.35 L54.15 257.2 59.6 254.0 60.65 253.4 67.1 249.8 67.35 249.65 Q74.7 246.55 82.15 243.7 85.45 242.4 88.8 241.2 L89.25 241.05 95.35 238.9 105.35 235.55 108.5 235.25 109.7 235.15 110.1 235.15 108.0 236.95 107.25 237.45 107.1 237.55 106.95 237.65 106.5 238.0 Q104.95 238.9 103.9 240.35 L102.1 242.75 Q101.15 243.95 101.85 245.25 L102.3 245.7 104.3 246.0 109.45 245.15 114.5 243.9 119.5 242.35 125.15 240.65 125.5 240.5 128.25 239.45" fill="url(#gradient3)" fill-rule="evenodd" stroke="none"/>
      <path d="M159.7 259.75 L160.35 259.2 162.9 257.15 164.2 256.35 165.9 255.15 Q164.5 255.25 165.25 254.3 L166.5 253.15 168.7 251.55 Q170.65 250.15 172.95 249.25 L174.45 248.65 175.0 248.4 175.8 248.05 179.5 247.45 180.35 247.35 180.9 247.3 183.4 247.35 184.05 247.45 185.25 247.65 185.9 247.95 Q186.5 248.4 186.4 249.15 L186.15 250.1 185.65 251.1 185.2 251.7 Q181.7 253.65 177.85 255.05 L171.9 257.2 169.35 258.05 Q164.9 259.35 160.3 260.05 159.8 260.1 159.75 259.85 L159.7 259.75" fill="url(#gradient4)" fill-rule="evenodd" stroke="none"/>
      <path d="M204.75 239.1 L207.1 238.65 214.3 238.05 215.1 238.05 Q215.9 238.1 216.05 238.75 L216.0 239.05 209.5 243.4 208.35 244.0 205.7 244.95 202.2 245.85 196.5 246.85 195.15 246.8 194.9 246.55 195.0 246.45 195.65 245.7 Q196.35 245.0 197.35 244.65 198.6 244.15 199.3 243.35 L198.7 243.35 Q198.35 243.3 198.4 242.95 198.45 242.35 199.1 241.95 L200.45 241.15 200.4 241.05 Q201.8 240.2 203.3 239.55 204.0 239.25 204.75 239.1" fill="url(#gradient5)" fill-rule="evenodd" stroke="none"/>
      <path d="M168.5 37.65 Q171.3 37.8 173.35 38.65 L173.55 38.7 172.85 39.45 172.5 39.9 169.4 43.25 168.95 43.95 168.9 44.35 170.2 44.15 176.45 43.35 182.0 43.05 187.75 43.1 188.9 43.2 190.05 43.25 Q193.9 43.55 197.35 45.1 L197.6 45.2 Q198.5 45.65 199.25 46.25 L200.45 47.55 200.95 48.35 201.4 49.2 201.9 51.25 201.85 52.7 201.6 54.65 200.55 60.4 200.05 62.35 199.45 64.4 200.65 63.6 203.4 61.7 Q203.9 61.35 204.5 61.15 205.45 62.55 204.6 64.4 L202.3 69.65 200.7 71.55 196.95 76.0 Q191.65 82.3 185.35 87.35 181.5 90.4 177.25 93.05 174.5 94.75 171.55 96.05 L170.9 95.95 171.0 95.2 Q171.1 94.4 171.35 93.55 167.7 96.5 163.7 98.95 L162.1 99.9 155.55 103.5 153.55 104.5 152.45 105.05 149.85 106.8 144.5 110.05 142.65 111.1 141.05 111.9 133.65 115.65 131.45 116.75 129.2 117.8 128.45 118.15 126.3 118.95 Q126.3 118.55 126.45 118.25 L127.7 115.75 127.5 115.75 126.3 115.9 126.05 116.0 124.65 116.8 124.45 116.9 120.7 118.95 115.1 121.9 114.9 122.05 112.7 123.15 112.65 123.15 111.85 123.5 105.9 126.15 104.95 126.6 103.3 127.3 99.7 128.8 96.4 130.15 100.75 127.6 102.25 126.7 104.65 125.2 105.3 124.75 111.15 120.65 111.3 120.55 113.85 118.7 117.15 116.0 117.55 115.6 118.7 114.4 119.7 113.0 Q120.3 112.05 120.25 110.95 L120.15 110.3 119.6 109.55 119.35 109.35 119.0 109.15 Q117.8 108.55 116.3 108.45 L116.0 108.45 115.75 108.45 115.65 108.5 112.5 110.35 110.45 111.45 103.7 114.7 103.0 115.0 100.25 116.05 93.85 117.9 86.1 118.95 84.9 118.95 83.85 118.9 83.75 118.9 Q82.4 117.45 81.55 115.75 L80.55 113.3 Q80.1 111.75 79.95 110.2 L79.9 109.65 Q79.8 108.4 79.85 107.15 79.9 105.55 80.25 104.0 L81.05 100.8 81.15 100.4 82.3 98.3 82.35 98.2 Q83.7 95.9 85.35 93.8 L85.75 93.3 87.35 91.4 89.5 89.25 92.05 87.15 92.7 86.95 92.6 87.45 92.4 88.1 92.3 88.35 95.4 85.85 Q97.5 84.15 99.65 82.55 L100.85 81.7 101.0 81.6 101.35 81.35 102.65 80.45 105.85 78.25 106.5 77.8 108.75 76.0 109.1 75.35 108.7 75.4 107.55 75.65 106.1 76.2 103.8 77.15 101.4 78.25 101.0 78.45 Q100.15 78.8 99.4 79.25 L96.55 80.7 Q93.7 82.25 91.2 84.35 L92.0 83.45 98.45 77.1 99.05 76.5 99.95 75.7 101.05 74.75 Q101.95 73.95 102.95 73.2 L105.2 71.6 112.2 66.65 Q114.7 64.95 117.35 63.45 122.3 60.65 127.35 58.1 129.6 56.95 131.9 56.0 L136.1 54.35 139.5 53.2 Q141.0 52.7 142.5 52.35 L143.7 52.3 144.05 52.35 145.45 52.45 146.25 52.6 Q147.2 52.75 148.05 53.25 149.6 54.1 149.45 55.95 L149.4 56.15 148.9 57.9 148.55 58.55 147.1 60.8 146.55 61.45 145.7 62.35 141.85 65.9 139.45 67.9 137.45 69.7 134.0 72.8 134.1 72.75 136.1 71.55 137.0 71.05 141.1 68.7 141.7 68.35 143.95 67.1 144.9 66.55 145.0 66.55 152.3 62.6 Q154.1 61.65 155.95 60.8 159.3 59.25 162.75 57.9 L162.95 57.85 165.25 57.0 163.3 57.15 161.7 57.3 Q158.5 57.55 155.35 57.2 L154.95 57.1 154.75 56.75 154.7 56.55 154.9 55.35 Q155.25 54.25 156.35 53.4 L158.7 51.75 Q160.9 50.3 163.3 49.35 L163.55 49.15 163.95 48.75 164.9 47.5 163.6 47.05 Q160.7 46.15 157.7 46.0 L151.85 46.15 149.75 46.65 Q148.25 47.05 146.8 47.55 L145.9 47.8 144.7 48.2 135.3 51.4 131.55 52.9 Q127.4 54.75 123.4 56.95 L115.1 61.8 Q120.9 57.0 127.25 52.65 129.0 51.45 130.85 50.35 135.3 47.6 140.05 45.45 L144.95 42.8 145.6 42.25 146.1 41.55 Q146.95 40.0 149.3 39.25 L150.05 39.0 Q157.6 37.15 165.7 37.5 L168.5 37.65" fill="url(#gradient6)" fill-rule="evenodd" stroke="none"/>
      <path d="M182.05 94.3 L182.75 93.2 Q184.05 90.95 185.85 89.1 L190.2 84.85 190.4 84.65 193.7 81.05 194.2 80.65 195.6 79.45 198.5 77.15 Q199.55 76.35 200.65 75.65 202.4 74.55 204.3 73.75 L206.3 73.3 207.5 73.15 Q209.8 72.75 211.15 74.55 L211.2 74.6 211.95 75.75 211.9 76.75 Q211.95 79.0 210.95 80.95 L209.65 83.7 209.5 83.95 211.0 83.5 Q215.15 82.25 219.4 81.65 L231.25 81.25 Q232.6 81.35 233.6 82.3 234.5 83.15 234.55 84.35 234.7 87.65 233.8 90.8 232.5 95.15 230.25 99.1 L229.45 100.55 225.2 106.95 224.35 108.05 223.6 109.05 221.1 112.55 219.05 115.1 214.05 120.9 212.35 122.75 211.55 123.65 210.85 124.3 207.35 127.8 207.15 128.0 203.45 131.5 199.3 135.3 195.1 138.95 195.0 139.05 194.5 139.5 189.65 143.55 187.25 145.5 183.85 148.05 183.05 148.65 180.3 150.5 182.85 149.4 183.75 148.85 Q186.4 147.25 189.15 145.85 L190.55 145.1 193.9 143.5 194.35 143.35 201.5 140.15 201.95 139.95 205.15 138.6 210.0 136.7 210.5 136.5 210.35 136.5 208.9 136.5 206.7 136.65 204.1 137.05 201.3 136.95 Q202.75 135.8 204.7 134.95 207.85 133.6 211.05 132.4 L213.9 131.95 218.9 131.7 219.95 131.65 220.3 131.65 225.8 132.35 226.75 132.65 Q227.15 133.25 227.05 134.1 226.7 137.15 225.45 139.95 L222.3 145.6 221.65 146.55 221.1 147.25 218.3 150.85 214.6 154.9 211.1 158.3 212.3 156.0 212.45 155.55 Q212.6 155.2 212.25 155.0 L211.9 155.0 Q210.25 155.3 208.9 156.15 206.75 157.4 205.3 159.2 204.35 160.35 203.7 161.75 L203.5 162.15 204.5 162.3 206.65 162.4 203.9 164.95 198.0 169.8 194.2 172.7 192.5 173.9 189.55 176.0 188.7 176.6 184.3 179.65 183.1 180.5 180.1 182.55 174.75 186.2 171.85 188.05 165.85 191.6 164.6 192.3 164.25 192.45 158.15 195.6 154.95 197.25 152.9 198.3 149.8 199.9 147.3 201.1 145.1 202.15 142.1 203.5 136.2 206.1 133.65 207.2 132.7 207.55 129.9 208.55 123.9 210.55 120.9 211.55 115.7 213.35 114.3 213.85 107.65 215.85 103.75 217.05 107.6 216.2 114.1 214.75 128.2 211.55 136.9 209.05 136.95 209.05 140.3 208.05 143.7 206.95 150.05 204.9 150.4 204.75 153.6 203.65 155.6 203.0 159.9 201.55 162.9 200.55 169.8 198.4 170.9 198.0 173.45 197.15 176.2 196.15 177.4 195.65 179.25 194.85 176.4 196.3 174.0 197.4 173.4 197.7 Q172.05 198.35 170.7 198.95 L168.6 199.95 168.5 200.0 166.4 200.95 161.3 203.15 158.4 204.4 155.95 205.4 154.0 206.2 150.15 207.8 149.65 208.05 147.8 208.75 146.0 209.45 144.4 210.1 141.9 211.05 140.4 211.65 140.2 211.75 138.8 212.25 138.05 212.5 137.9 212.55 137.0 212.85 134.2 213.75 131.1 214.85 125.4 216.5 122.2 217.35 116.0 218.9 113.25 219.55 113.2 219.55 110.5 220.15 108.2 220.65 106.9 220.9 106.0 221.05 104.1 221.35 101.0 221.85 96.15 222.3 97.4 223.45 Q97.9 224.15 97.25 225.0 L95.85 226.5 95.7 226.55 93.9 227.35 90.1 228.4 84.65 229.2 81.45 229.25 79.55 229.0 Q77.4 228.65 75.45 227.65 L75.15 227.5 74.75 226.5 74.6 225.75 74.55 223.8 Q74.8 221.85 75.6 220.1 76.55 217.95 77.95 216.05 L82.4 212.05 Q84.7 210.25 87.15 208.6 L87.6 208.3 89.35 207.2 89.65 207.05 94.5 205.0 95.25 204.7 95.35 204.65 95.25 204.75 Q93.65 205.95 92.35 207.4 L91.1 208.95 Q89.95 210.65 91.05 212.1 91.8 213.05 93.15 213.45 L93.7 213.75 94.2 213.75 94.7 213.7 96.65 213.55 98.1 213.4 98.35 213.4 104.3 212.2 107.25 211.7 108.55 211.35 108.6 211.35 112.6 210.05 115.2 209.15 117.95 208.1 124.4 205.15 131.7 201.15 134.05 199.7 134.7 199.3 138.9 196.5 141.05 194.9 146.85 190.1 149.0 188.25 150.9 186.55 153.65 183.9 154.05 183.55 154.4 183.2 156.9 180.8 157.6 180.3 159.65 178.9 160.0 178.7 158.65 181.1 157.6 182.8 155.6 186.4 154.3 188.85 152.85 191.3 154.4 190.65 156.5 189.55 162.6 186.0 167.0 183.05 173.05 178.1 Q175.3 176.15 176.65 173.65 L176.9 173.15 177.05 172.9 177.25 172.65 177.85 171.95 178.6 171.0 179.3 169.8 179.4 168.6 179.4 168.55 Q179.35 168.0 178.7 167.85 L178.5 167.85 178.3 167.85 176.5 167.65 176.2 167.6 171.7 167.7 Q168.1 168.15 164.6 169.05 L164.5 169.05 Q162.4 169.6 160.6 170.7 L156.7 172.5 154.15 173.8 154.0 173.95 153.9 174.0 153.7 174.15 153.9 174.45 154.5 174.55 162.3 173.65 163.5 173.4 161.9 174.2 156.45 176.7 153.9 177.85 150.3 179.35 148.3 180.1 147.25 180.4 142.1 181.65 137.7 182.4 136.9 182.55 135.85 182.75 135.25 182.85 134.7 182.95 134.65 182.95 134.65 182.85 134.7 182.75 134.8 182.0 135.3 180.35 135.85 178.95 Q136.55 176.9 137.5 175.0 L138.2 173.6 138.45 173.15 139.7 170.9 140.45 169.5 140.95 168.55 141.75 167.15 142.95 165.3 143.4 164.6 143.55 164.45 144.35 163.35 145.7 161.55 146.05 161.1 146.95 159.95 147.7 159.05 148.9 157.45 149.55 156.45 150.7 154.55 151.45 152.6 151.6 151.9 151.2 150.9 151.05 150.9 148.1 151.25 146.6 151.55 145.35 151.85 142.0 152.9 140.6 153.3 139.25 153.75 139.1 153.8 136.35 155.0 136.15 155.05 133.8 156.15 132.8 156.65 130.95 157.6 129.95 158.2 129.4 158.5 125.5 161.15 123.75 162.65 123.8 163.45 Q123.9 164.25 125.0 164.5 L126.05 164.7 126.9 164.85 129.75 165.0 130.05 165.0 130.3 165.0 130.35 165.0 131.0 165.0 133.05 164.9 134.05 164.8 134.45 164.75 135.3 164.65 137.4 164.35 138.15 164.25 137.5 164.5 136.65 164.85 133.0 166.3 131.7 166.8 131.35 166.9 130.55 167.2 130.3 167.3 128.7 167.85 128.5 167.95 126.65 168.55 124.5 169.2 123.1 169.5 118.3 170.4 115.9 170.8 113.75 171.05 112.5 171.1 106.7 171.35 102.2 170.8 102.0 170.75 101.45 170.1 101.0 169.5 100.45 168.55 99.8 167.1 Q99.45 166.15 99.4 165.2 99.15 163.05 100.0 161.0 L100.05 160.9 100.65 159.75 100.85 159.45 101.45 158.7 Q102.25 157.6 103.65 157.65 L103.7 157.65 104.3 157.6 104.75 157.55 106.1 157.35 Q107.55 157.15 108.65 156.25 L108.85 156.1 110.0 155.15 110.15 155.0 110.4 154.75 111.95 153.2 114.3 150.15 114.45 149.85 114.55 149.6 114.55 148.95 114.4 148.6 Q113.85 147.45 112.9 148.0 L112.7 148.1 112.3 148.2 111.9 148.35 111.25 148.7 110.75 149.0 108.9 150.05 108.35 150.4 108.15 150.55 107.45 151.25 Q106.85 152.0 106.85 151.5 L107.15 151.2 108.0 150.35 108.25 150.1 108.35 150.0 108.95 149.3 109.55 148.6 110.3 147.85 110.4 147.8 111.05 147.2 111.15 147.1 111.75 146.5 112.5 145.75 115.8 142.9 117.5 141.55 117.85 141.25 119.55 139.9 121.75 138.15 122.25 137.75 122.9 137.25 127.7 133.5 127.9 133.35 129.1 132.45 129.55 132.1 132.2 130.05 132.75 129.65 Q135.55 127.55 138.55 125.65 L139.0 125.3 143.55 122.5 147.65 119.95 152.5 117.0 154.35 115.95 Q156.5 114.65 158.75 113.5 L160.7 112.5 173.5 106.0 Q176.4 104.55 179.4 103.25 L179.75 102.35 Q181.0 99.3 181.7 96.15 L181.75 95.35 Q181.7 94.75 182.05 94.3 M123.5 141.05 L123.15 141.2 122.5 141.75 121.0 143.25 120.7 143.75 Q122.45 143.65 123.85 142.75 L124.3 142.4 124.55 142.2 125.3 141.55 125.75 141.05 125.9 140.35 125.3 140.45 Q124.5 140.6 123.8 140.9 L123.5 141.05" fill="url(#gradient7)" fill-rule="evenodd" stroke="none"/>
      <path d="M194.4 183.1 L197.7 183.55 197.4 184.25 196.25 185.5 194.5 186.9 189.7 189.75 185.7 191.8 183.65 192.85 180.75 194.1 183.65 192.0 184.6 191.25 Q188.15 188.45 189.1 186.95 L189.3 186.35 Q189.35 185.25 188.1 185.05 L184.0 184.6 183.35 184.55 184.0 184.35 Q186.2 183.55 188.5 183.25 L193.5 183.05 194.4 183.1" fill="url(#gradient8)" fill-rule="evenodd" stroke="none"/>
      <path d="M270.75 197.4 L269.7 197.75 270.7 196.95 271.8 196.05 272.3 195.35 271.75 195.6 Q270.8 196.15 269.85 195.95 L269.3 195.75 271.1 194.35 Q272.75 193.1 274.6 192.15 L274.95 192.0 275.1 191.95 275.85 191.75 276.3 191.7 277.25 191.7 276.95 191.9 279.3 191.2 280.25 190.85 Q281.4 190.3 282.7 190.35 L281.95 191.2 281.25 191.65 279.25 192.65 271.65 196.9 270.75 197.4" fill="url(#gradient9)" fill-rule="evenodd" stroke="none"/>
      <path d="M160.5 209.75 L160.7 209.75 161.05 209.75 161.1 209.75 161.25 209.75 161.3 209.75 Q161.9 209.65 161.9 210.15 L161.6 210.25 160.1 211.35 157.3 213.0 154.2 214.15 153.9 214.2 Q153.15 214.4 153.15 213.6 L153.2 213.55 153.75 213.2 156.95 211.2 157.05 211.1 Q159.75 209.35 162.65 207.85 L163.7 207.3 Q164.4 206.95 165.15 206.7 165.9 206.4 165.5 206.75 L164.1 207.55 162.55 208.6 161.7 209.15 160.3 209.75 160.5 209.75" fill="url(#gradient10)" fill-rule="evenodd" stroke="none"/>
      <path d="M158.45 218.35 L159.3 217.95 166.5 215.0 Q169.05 214.05 171.7 213.25 L172.15 213.1 172.85 212.9 178.1 211.6 179.25 211.35 181.9 210.7 184.35 210.3 187.15 210.25 188.55 210.15 189.9 210.05 190.1 210.05 Q191.15 210.05 192.05 210.4 L192.55 210.95 192.4 211.3 191.9 211.7 191.35 212.0 189.5 213.0 188.7 213.35 189.1 213.5 189.5 213.55 189.1 213.95 188.25 214.45 186.35 215.35 185.3 215.8 184.1 216.3 182.5 216.95 180.9 217.5 178.9 218.15 177.5 218.55 174.9 219.05 174.5 218.95 174.55 218.75 174.8 218.1 175.25 217.5 175.55 217.2 175.9 216.9 176.3 216.55 176.5 216.35 177.35 215.85 178.15 215.4 178.3 215.15 173.9 215.3 172.75 215.5 171.05 215.9 170.9 215.9 166.3 217.0 165.7 217.15 162.5 218.0 158.6 219.05 157.05 219.4 Q155.45 219.8 154.15 220.6 155.7 219.5 157.5 218.75 L158.45 218.35" fill="url(#gradient11)" fill-rule="evenodd" stroke="none"/>
      <path d="M127.65 244.2 L129.9 243.6 130.3 243.55 122.5 246.95 120.9 247.6 119.05 248.2 116.35 249.05 115.35 249.4 110.3 251.35 110.5 251.35 Q111.05 251.3 111.45 251.7 L110.9 252.2 108.8 253.05 108.5 253.15 107.35 253.65 105.15 254.75 100.5 256.35 96.85 257.2 96.15 257.35 95.15 257.55 91.7 258.1 89.9 258.45 Q87.55 259.0 85.5 257.95 L87.45 255.3 88.45 253.8 88.5 253.15 88.4 252.8 Q87.75 251.5 86.1 251.55 L85.3 251.65 84.5 251.75 83.7 251.85 82.5 252.1 80.7 252.45 79.1 252.75 76.45 253.4 Q72.8 254.3 69.3 255.75 L62.9 258.6 60.35 259.8 62.1 258.55 68.5 254.2 70.85 252.75 75.55 250.5 81.3 248.2 87.3 246.1 88.2 245.8 89.1 245.75 89.95 245.85 90.25 245.95 90.45 246.05 90.75 246.3 91.05 246.7 Q91.35 247.2 91.2 247.95 L91.1 248.95 Q91.15 250.5 90.6 252.0 L90.05 253.55 89.9 253.7 Q89.45 253.8 89.5 254.35 L90.05 254.05 90.5 253.55 93.2 251.7 Q93.8 251.35 94.5 251.2 L95.5 251.0 101.1 249.9 Q102.4 249.7 103.3 250.45 L103.7 250.9 103.6 251.3 102.9 251.95 104.85 251.2 106.75 250.5 109.15 249.65 111.3 248.9 Q115.95 247.3 120.7 246.0 L121.7 245.75 124.3 245.05 125.5 244.75 127.65 244.2" fill="url(#gradient12)" fill-rule="evenodd" stroke="none"/>
      <path d="M141.35 238.9 L141.45 238.9 149.1 237.25 152.1 236.8 155.7 236.35 155.75 236.35 158.15 236.2 159.5 236.2 160.8 236.55 Q161.55 236.9 162.3 237.35 L162.5 237.5 162.8 237.95 Q163.0 239.4 161.9 240.35 159.25 242.8 155.9 244.1 L145.1 248.15 141.65 249.2 139.9 249.7 133.95 251.65 133.3 251.95 134.75 250.85 137.5 248.55 Q140.1 245.95 143.05 243.9 L143.75 243.4 145.5 241.95 145.2 242.05 141.7 242.35 141.05 242.35 139.7 242.45 139.05 242.45 138.4 242.15 140.1 240.55 137.5 240.75 134.15 241.5 130.4 242.55 Q133.15 241.3 136.1 240.35 138.7 239.55 141.35 238.9" fill="url(#gradient13)" fill-rule="evenodd" stroke="none"/>
      <path d="M244.3 222.55 Q243.75 222.7 243.35 223.0 L242.85 223.25 240.9 224.0 239.1 224.75 236.25 225.8 229.7 227.55 229.25 227.6 Q228.85 227.55 228.7 227.15 L229.15 226.8 231.75 225.1 233.45 224.1 Q236.05 223.05 238.7 223.55 L238.45 223.9 238.1 224.2 237.3 224.35 237.5 224.35 238.1 224.2 240.3 223.7 241.85 223.2 Q243.05 222.65 244.3 222.55" fill="url(#gradient14)" fill-rule="evenodd" stroke="none"/>
      <path d="M232.75 221.4 L232.55 221.5 230.95 222.2 229.6 222.9 229.1 223.15 227.45 223.8 224.15 225.0 222.3 225.7 221.7 225.95 220.05 226.6 217.15 227.85 Q212.9 229.7 209.1 232.15 L215.5 227.55 218.1 225.6 219.85 224.3 220.35 224.05 Q221.35 223.75 221.5 222.95 L220.7 223.15 218.95 223.65 216.3 223.75 Q216.9 222.55 218.15 221.8 L220.3 220.55 Q223.2 218.95 226.2 217.5 L227.05 217.05 230.15 215.65 Q231.9 214.85 233.7 214.15 L236.0 213.15 239.9 213.25 240.1 213.35 240.0 213.7 239.9 213.9 238.75 215.0 237.4 216.1 236.7 216.75 235.5 217.95 Q235.05 218.45 235.1 219.1 L235.2 219.65 235.35 219.95 235.4 220.05 235.05 220.5 234.65 220.8 232.95 221.3 232.75 221.4" fill="url(#gradient15)" fill-rule="evenodd" stroke="none"/>
      <path d="M205.1 243.2 L203.55 243.65 202.2 243.7 201.9 243.55 203.75 242.55 204.7 242.15 206.05 241.6 208.9 241.5 Q209.35 241.5 209.3 241.95 L205.1 243.2" fill="url(#gradient16)" fill-rule="evenodd" stroke="none"/>
      <path d="M177.3 252.35 L177.85 252.45 178.1 252.75 177.35 253.4 176.65 253.6 175.25 254.05 174.7 254.2 Q171.0 255.65 167.1 255.95 167.55 254.9 168.5 254.35 L170.5 253.15 170.75 253.0 171.45 252.6 173.55 251.65 174.85 251.1 175.7 250.8 179.9 250.45 180.25 250.7 179.5 251.15 178.7 251.55 Q177.85 252.1 176.9 252.35 L177.3 252.35" fill="url(#gradient17)" fill-rule="evenodd" stroke="none"/>
      <path d="M194.25 59.85 Q195.1 60.7 196.35 60.8 196.9 60.85 197.25 61.3 L197.85 62.05 197.1 61.9 194.35 62.15 191.35 63.0 Q190.5 63.3 189.85 63.75 L190.85 64.1 192.85 64.1 193.35 64.15 Q194.2 64.2 194.8 64.55 L195.4 64.9 Q195.9 65.2 196.05 65.75 L196.2 66.2 196.6 67.5 196.8 69.25 196.75 71.75 196.65 73.0 196.5 73.4 195.85 74.5 195.55 74.95 193.55 76.7 192.65 77.55 Q190.95 79.35 188.65 80.6 L180.85 84.45 179.65 85.1 177.05 86.4 175.65 87.1 Q169.85 89.85 163.6 91.45 L161.15 92.1 160.1 92.0 Q162.15 91.45 164.15 90.55 L165.55 89.9 Q168.95 88.3 172.1 86.25 L176.4 83.55 180.55 80.7 187.85 75.0 188.75 74.15 191.35 71.0 Q192.35 69.6 192.7 67.75 192.9 66.45 191.6 66.7 L191.2 66.85 Q190.5 67.35 189.6 67.25 L190.15 67.65 Q190.55 67.8 190.55 68.25 190.6 69.1 190.1 69.75 L189.7 70.3 188.85 71.3 188.6 71.5 186.6 73.0 186.15 73.3 185.8 73.65 184.65 74.35 Q182.65 75.3 180.9 76.55 L180.05 77.15 177.85 78.5 172.15 81.85 167.55 84.4 161.4 87.55 159.55 88.4 157.65 89.35 Q152.25 92.15 146.55 94.4 L139.6 97.25 137.9 98.1 Q136.7 98.75 135.35 99.05 134.6 99.25 134.1 99.5 135.55 98.15 136.9 97.6 L137.25 97.4 137.95 96.9 Q141.95 94.0 145.4 90.55 146.1 89.85 146.1 89.0 143.15 87.9 139.9 89.1 135.8 90.55 131.85 92.5 L131.1 93.35 128.75 95.6 128.5 95.95 128.7 95.95 129.3 95.95 Q128.6 97.15 127.7 97.95 L127.45 98.2 127.45 98.25 Q124.35 99.95 123.6 100.5 122.85 100.95 121.9 100.8 L121.6 100.65 Q121.1 100.2 121.5 99.75 122.1 99.15 122.1 98.35 L121.9 98.45 120.9 98.7 115.75 101.05 115.3 101.35 115.9 101.5 116.25 101.6 116.9 101.75 Q117.45 101.8 117.5 102.15 L116.9 102.75 116.25 103.25 108.85 106.05 103.45 108.05 98.05 109.55 92.9 110.1 Q90.7 110.05 88.6 109.3 88.1 109.15 88.0 108.7 L87.85 107.75 88.05 107.1 88.45 106.2 89.55 104.35 90.45 102.9 Q91.7 101.0 93.3 99.55 L93.75 99.2 Q94.05 99.0 94.2 98.95 L92.1 98.85 Q91.8 98.85 91.7 98.65 L91.7 98.6 Q92.6 95.85 94.45 93.7 95.4 92.6 96.7 91.75 97.1 91.45 97.55 91.25 L98.25 90.9 98.95 90.65 99.9 90.6 100.1 90.75 Q99.95 92.0 99.3 93.15 100.2 92.8 101.1 92.15 L101.3 92.05 102.85 91.5 103.3 91.15 107.05 87.7 109.35 85.6 112.85 82.3 118.3 76.75 120.2 74.5 122.0 71.9 123.1 69.3 123.15 69.1 123.1 69.1 120.1 68.9 117.7 69.15 Q112.35 70.55 107.9 73.75 L109.4 72.25 110.7 71.15 112.75 69.6 118.0 66.5 Q120.5 64.95 123.15 63.7 128.9 60.95 134.75 58.5 136.5 57.75 138.3 57.1 L139.3 56.95 Q140.45 56.8 141.1 57.55 L141.2 58.1 Q140.7 59.65 139.85 61.0 L137.05 64.7 134.6 67.35 132.3 69.35 127.3 73.75 121.5 78.95 118.95 81.2 Q116.9 83.05 115.0 85.05 L113.55 86.6 109.9 90.35 107.9 92.6 108.35 92.4 111.1 91.3 117.9 88.4 Q119.85 87.55 121.9 87.55 L123.5 87.4 Q124.7 87.15 124.45 88.35 124.3 89.15 123.75 89.8 122.3 91.7 120.4 93.2 L121.5 92.9 Q124.8 91.9 127.95 90.45 131.4 88.85 134.3 86.3 L135.7 85.15 Q136.7 84.45 136.85 83.35 136.9 82.95 136.65 82.9 L135.9 82.95 132.9 83.75 135.75 82.0 Q138.75 80.0 141.55 77.6 L145.8 74.2 144.85 75.95 142.9 79.35 138.95 85.25 138.45 85.95 139.55 85.2 146.5 80.6 Q148.0 79.75 149.3 78.7 151.55 76.95 154.05 75.6 L155.4 74.85 158.35 72.75 Q158.15 72.35 157.35 72.45 L156.1 72.45 Q154.75 72.35 153.55 72.85 L152.35 73.3 150.85 73.5 Q151.6 72.3 152.85 71.25 153.4 70.75 154.05 70.4 L155.1 69.75 Q158.75 67.25 162.85 65.5 175.05 60.45 188.1 58.4 L189.35 58.6 192.85 59.2 193.2 59.35 193.85 59.7 194.25 59.85" fill="url(#gradient18)" fill-rule="evenodd" stroke="none"/>
      <path d="M191.85 91.45 L193.75 90.2 194.35 90.0 Q196.1 89.4 197.95 89.15 L198.7 88.95 200.1 88.9 200.3 89.0 200.35 89.2 200.0 89.65 199.7 89.85 Q199.2 90.25 198.7 90.45 L200.2 89.85 202.3 89.0 203.2 88.65 204.4 88.05 205.1 87.6 Q206.7 86.5 208.45 85.6 L209.5 85.0 209.85 84.85 210.1 84.7 210.2 84.6 Q210.25 84.35 209.95 84.4 L209.6 84.35 209.35 84.25 209.2 84.25 210.45 83.95 211.95 83.85 212.45 83.85 212.05 84.65 211.9 84.8 211.8 84.9 Q210.95 85.45 210.2 86.1 L209.15 86.9 208.15 87.65 207.15 88.25 205.85 89.1 205.1 89.55 204.25 90.05 200.95 91.95 197.35 93.65 196.7 93.9 195.45 94.4 194.85 94.65 194.0 95.15 193.85 95.25 192.45 95.85 Q192.1 95.95 192.1 95.7 L192.05 95.55 191.35 95.6 191.2 95.65 190.95 95.75 190.85 95.8 189.45 96.45 189.2 96.55 189.0 96.65 188.45 96.85 Q187.85 97.0 187.85 96.45 L187.9 96.25 188.85 94.85 188.95 94.7 Q189.45 93.7 190.2 92.85 L191.15 92.0 191.85 91.45" fill="url(#gradient19)" fill-rule="evenodd" stroke="none"/>
      <path d="M193.45 97.35 L194.3 96.9 195.45 96.3 197.6 95.3 199.7 94.35 201.85 93.5 202.1 93.45 203.95 92.8 205.95 92.25 209.85 91.5 211.35 91.3 213.1 91.05 213.8 91.0 213.9 91.0 220.55 89.15 Q222.45 88.5 224.35 88.55 224.75 88.6 224.65 89.25 L224.45 90.2 223.8 91.45 219.5 97.2 215.45 102.0 215.25 102.2 209.8 107.95 205.55 112.25 205.45 112.15 206.2 111.3 207.5 109.7 Q208.3 108.65 208.6 107.5 207.5 107.75 206.35 108.75 L204.7 110.25 201.15 113.3 199.35 114.9 197.2 116.65 195.8 117.95 194.35 119.25 186.25 125.9 185.4 126.55 184.55 127.2 183.45 128.15 182.35 129.0 182.55 128.9 183.55 128.45 184.4 128.05 Q187.1 126.7 189.85 126.5 190.0 126.5 190.15 126.7 190.75 127.5 189.9 128.3 L185.25 132.65 182.9 134.8 175.9 141.3 Q172.3 144.7 169.1 148.25 L167.5 150.15 167.2 150.6 167.0 150.95 166.15 152.8 Q165.75 153.45 165.5 154.2 165.15 155.1 165.55 156.2 L165.85 156.45 167.5 156.8 168.4 156.9 169.05 156.8 170.6 156.65 172.35 156.2 173.6 155.8 176.35 155.0 184.1 152.05 176.4 155.95 175.15 156.7 Q174.85 157.0 174.9 157.25 175.05 158.05 176.1 157.9 L177.85 157.65 186.35 156.15 188.85 155.55 190.9 155.05 183.85 158.2 182.4 158.85 172.85 162.7 170.85 163.55 Q168.2 164.75 165.35 165.3 164.35 165.55 163.4 166.1 L161.35 166.85 Q158.95 167.3 156.6 168.25 L155.85 168.4 150.6 168.5 149.65 168.4 148.6 168.05 Q147.85 167.7 147.8 167.0 147.75 166.2 148.2 165.55 L150.3 162.45 Q153.1 158.25 156.85 154.75 L157.65 154.05 Q158.85 153.15 158.85 151.75 L158.6 151.75 158.15 151.85 155.8 152.65 154.1 153.05 151.35 153.0 Q151.25 152.45 151.65 152.05 L152.3 151.2 156.05 147.2 Q158.55 144.7 161.35 142.6 L161.6 141.25 Q161.65 140.45 160.85 140.35 L154.1 140.7 151.75 141.3 149.1 142.45 Q139.05 147.0 130.05 153.15 128.55 154.2 128.35 155.75 L131.75 154.9 119.85 161.5 117.45 162.9 Q115.65 164.05 113.6 164.35 112.9 164.45 112.85 164.0 L114.4 161.8 115.15 160.55 115.45 159.95 Q115.65 159.55 116.1 159.25 116.7 158.9 116.6 158.25 L115.35 158.0 115.25 157.75 115.2 157.25 Q115.05 155.9 115.75 154.95 L117.55 152.95 120.15 150.3 122.05 148.65 129.85 143.25 133.2 141.15 135.95 139.65 131.1 140.7 129.85 141.0 Q130.2 139.9 131.3 139.2 140.25 133.6 150.05 129.7 L152.9 128.55 Q154.45 127.95 156.1 127.9 L157.1 127.75 Q157.8 127.55 157.85 128.0 L155.9 129.85 155.1 130.5 152.5 132.5 151.6 133.0 150.6 133.5 150.15 133.8 152.85 132.75 153.55 132.4 153.85 132.25 156.35 131.0 160.35 129.0 165.55 126.15 170.05 123.6 174.55 120.9 179.0 118.3 179.5 118.05 Q180.2 117.6 180.95 117.2 189.15 112.55 196.95 107.25 L197.05 107.15 202.7 102.55 203.05 102.2 204.95 100.35 206.3 98.6 205.2 98.85 204.45 99.0 202.35 99.45 200.1 99.95 199.1 100.15 196.95 99.9 196.7 99.8 196.6 99.3 Q196.65 99.0 196.95 98.8 L197.7 98.35 Q198.05 98.15 197.85 98.05 L196.95 98.2 194.75 98.95 193.2 99.35 189.45 100.55 Q187.95 101.15 186.45 101.85 L184.5 102.8 185.35 102.2 188.25 100.35 191.6 98.4 193.45 97.35" fill="url(#gradient20)" fill-rule="evenodd" stroke="none"/>
      <path d="M211.8 139.4 L212.0 139.4 212.3 139.35 213.95 139.25 214.55 139.35 214.85 139.45 215.3 139.5 215.75 139.45 216.2 139.65 216.7 139.85 Q217.25 139.95 217.6 140.3 L217.85 140.6 217.95 140.75 217.2 142.4 215.5 144.75 214.2 146.3 212.55 148.05 210.65 150.0 208.35 152.35 205.65 154.9 202.8 157.55 199.95 160.05 197.05 162.45 194.3 164.7 191.3 167.35 190.85 167.8 190.35 168.55 190.2 168.95 191.45 168.7 193.75 167.4 195.95 166.2 200.45 163.5 198.5 165.4 197.45 166.3 196.1 167.45 194.45 168.7 191.35 170.95 188.85 172.7 186.6 174.3 183.5 176.5 181.8 177.65 180.2 178.7 177.65 180.15 175.85 181.2 173.2 182.95 169.95 185.05 167.05 186.9 165.85 187.6 162.7 189.4 161.95 189.85 161.45 190.15 159.35 191.45 157.95 192.3 157.2 192.75 155.8 193.55 154.7 194.2 151.7 195.8 150.2 196.55 148.2 197.55 144.95 199.15 Q143.3 200.0 141.8 200.95 L139.85 202.0 139.05 202.4 138.3 202.8 134.8 204.55 134.2 204.85 131.7 206.1 129.45 207.05 127.4 207.8 123.8 209.0 125.35 208.1 127.65 206.65 129.95 205.1 132.45 203.4 134.85 201.7 137.35 199.85 139.85 197.95 142.35 195.95 144.85 193.95 147.2 192.1 149.3 190.3 151.1 188.7 153.95 185.95 156.1 183.7 157.8 181.65 158.55 180.65 156.15 184.45 154.15 187.45 Q151.1 192.0 146.85 195.3 L147.7 195.3 147.95 195.25 149.1 195.05 149.6 195.0 151.45 194.5 156.2 192.1 157.45 191.4 160.7 189.45 162.55 188.25 164.7 186.95 167.7 184.95 169.5 183.55 172.25 181.4 175.2 178.95 177.45 177.2 179.7 175.45 182.3 173.45 183.9 172.2 184.8 171.45 186.75 169.65 188.2 168.15 190.15 165.9 190.45 165.6 192.6 163.45 194.55 161.15 196.45 158.8 197.95 156.7 199.0 155.2 Q200.05 153.7 200.65 152.05 L200.75 151.8 201.05 150.8 201.2 149.2 Q201.2 148.7 200.85 148.3 L200.6 148.15 198.85 148.05 198.5 148.15 197.6 148.3 197.1 148.35 195.45 148.8 195.1 148.9 194.85 148.9 Q194.1 149.0 193.5 149.35 L191.2 150.0 189.8 150.4 187.0 151.2 187.3 151.05 Q188.85 150.2 190.45 149.5 L193.6 148.1 195.05 147.5 198.55 145.85 200.45 144.8 202.5 143.6 203.3 143.15 Q204.2 142.65 205.2 142.25 L205.8 141.95 206.95 141.45 209.3 140.25 209.8 140.05 210.8 139.6 211.3 139.5 211.8 139.4" fill="url(#gradient21)" fill-rule="evenodd" stroke="none"/>
      <path d="M111.65 157.65 L111.75 157.6 111.85 157.55 112.85 157.45 113.0 157.5 113.35 157.55 Q113.85 157.45 113.7 157.95 L113.6 158.55 113.65 158.7 114.45 158.8 114.4 159.05 114.35 159.15 113.95 159.3 113.7 159.55 113.5 159.75 113.3 159.95 113.2 160.2 112.95 160.8 112.85 161.05 112.75 161.2 111.8 162.45 111.1 162.95 110.35 163.15 109.85 163.05 Q109.15 162.75 109.15 162.05 109.15 161.15 109.6 160.3 110.25 158.95 111.3 157.9 L111.6 157.65 111.65 157.65" fill="url(#gradient22)" fill-rule="evenodd" stroke="none"/>
      <path d="M109.35 165.55 L110.0 165.3 110.25 165.2 111.35 165.3 112.0 165.4 113.5 165.9 113.6 166.3 113.55 166.5 113.4 166.8 113.3 167.0 113.1 167.1 112.7 167.25 112.45 167.35 112.1 167.45 110.95 167.55 Q110.2 167.65 109.75 167.05 L109.55 166.85 109.4 166.65 108.9 166.05 Q108.8 165.85 108.95 165.75 L109.35 165.55" fill="url(#gradient23)" fill-rule="evenodd" stroke="none"/>
      <path d="M149.45 239.55 L146.75 239.5 147.6 239.3 150.35 238.95 153.2 238.75 155.6 238.7 155.65 238.7 156.2 239.1 Q156.5 239.35 156.4 239.8 L155.95 240.5 155.65 240.65 Q155.35 240.75 155.05 241.0 L154.75 241.35 154.2 241.8 151.7 243.4 151.0 243.85 148.35 245.15 147.85 245.3 146.2 246.0 144.85 246.55 143.7 246.8 143.45 246.8 143.6 246.7 144.6 246.3 145.35 245.95 147.35 245.0 148.7 244.2 149.1 243.95 149.45 243.55 149.45 243.45 149.2 243.45 148.95 243.55 148.7 243.6 148.6 243.65 148.35 243.7 148.1 243.7 147.95 243.7 Q148.3 243.65 148.45 243.45 L148.7 243.35 149.1 243.15 149.2 243.1 149.4 243.0 150.85 241.95 150.95 241.8 152.1 240.95 152.35 240.8 Q152.6 240.55 152.2 240.3 L151.6 240.0 149.45 239.55" fill="url(#gradient24)" fill-rule="evenodd" stroke="none"/>
      <path d="M87.0 211.6 L87.65 211.05 87.25 211.75 87.0 212.3 Q86.45 213.2 86.3 214.2 L86.25 214.7 Q86.2 215.15 86.45 215.55 L87.5 216.75 87.95 217.05 Q88.85 217.55 89.85 217.5 L90.85 217.55 91.8 217.6 94.45 217.35 96.85 216.95 97.1 216.95 97.6 216.9 98.6 216.8 100.6 216.65 100.95 216.65 100.7 216.7 97.6 217.75 96.1 218.2 92.6 219.1 91.85 219.3 90.75 219.7 89.45 220.1 89.2 220.15 88.95 220.25 88.45 220.35 88.35 220.4 88.15 220.55 88.1 220.8 Q88.0 221.15 88.15 221.35 L88.5 221.65 88.85 221.8 89.7 222.05 92.35 222.3 93.0 222.3 91.7 222.55 89.25 223.15 88.6 223.25 85.6 223.7 83.1 223.75 81.0 223.35 Q80.35 223.2 79.8 222.7 L79.2 221.75 79.05 220.7 79.15 220.25 79.65 219.45 80.2 218.7 81.0 217.6 83.2 214.95 84.75 213.5 87.0 211.6" fill="url(#gradient25)" fill-rule="evenodd" stroke="none"/>
      <path d="M106.6 252.8 L106.85 252.75 107.2 252.7 Q106.7 252.8 106.15 253.05 L105.1 253.45 100.6 254.95 98.35 255.55 96.65 255.9 96.35 256.0 95.95 256.05 92.7 256.35 91.6 256.25 91.0 256.0 91.0 255.9 Q91.5 254.95 92.45 254.45 L93.8 253.7 95.6 252.75 96.35 252.4 97.95 252.2 100.85 252.35 101.2 252.5 101.3 252.95 101.2 253.1 100.6 253.7 99.6 254.35 102.7 253.65 104.1 253.35 106.6 252.8" fill="url(#gradient26)" fill-rule="evenodd" stroke="none"/>
      <path d="M231.5 216.3 L232.2 216.05 232.85 215.9 233.35 215.85 234.4 215.95 234.45 216.1 Q234.5 216.5 234.15 216.75 L233.95 216.95 Q231.8 219.25 229.3 221.0 227.8 222.05 226.15 222.9 L224.6 223.55 222.85 224.25 221.35 224.95 218.7 226.35 217.4 226.9 Q218.1 226.35 218.95 225.95 L220.2 225.3 Q221.75 224.35 223.35 223.6 L223.7 223.4 225.35 222.35 Q226.25 221.85 226.95 221.1 L227.45 220.75 228.0 220.25 228.15 219.35 228.1 219.2 226.7 219.15 225.75 219.25 226.6 218.85 Q227.65 218.35 228.7 218.2 L228.6 218.1 228.45 218.1 228.35 218.1 228.2 218.1 228.1 218.1 Q228.35 217.65 228.95 217.35 L231.5 216.3" fill="url(#gradient27)" fill-rule="evenodd" stroke="none"/>
      <path d="M185.35 213.25 L184.45 213.95 181.35 215.8 179.95 216.55 179.1 216.95 178.45 217.2 176.85 217.7 176.95 217.6 177.2 217.5 177.45 217.3 178.35 216.65 178.55 216.45 178.65 216.25 Q179.0 215.65 178.95 214.95 L178.9 214.7 Q178.8 214.45 178.35 214.45 L174.45 214.45 172.95 214.5 171.35 214.6 170.9 214.6 171.95 214.35 173.45 214.0 176.7 213.3 180.5 212.75 180.6 212.75 181.45 212.75 182.95 212.6 183.6 212.55 185.2 212.55 185.35 212.8 185.35 213.05 185.35 213.25" fill="url(#gradient28)" fill-rule="evenodd" stroke="none"/>
    </g>
    <linearGradient gradientTransform="matrix(-0.0329, 0.0843, -0.032, -0.0125, 56.4, 126.05)" gradientUnits="userSpaceOnUse" id="gradient0" spreadMethod="pad" x1="-819.2" x2="819.2">
      <stop offset="0.0" stop-color="#13a8fc"/>
      <stop offset="1.0" stop-color="#1179ec"/>
    </linearGradient>
    <linearGradient gradientTransform="matrix(-0.0207, 0.1145, -0.1412, -0.0255, 155.0, 137.4)" gradientUnits="userSpaceOnUse" id="gradient1" spreadMethod="pad" x1="-819.2" x2="819.2">
      <stop offset="0.0" stop-color="#13a8fc"/>
      <stop offset="1.0" stop-color="#1179ec"/>
    </linearGradient>
    <linearGradient gradientTransform="matrix(-0.011, 0.0138, -0.0068, -0.0055, 189.2, 129.95)" gradientUnits="userSpaceOnUse" id="gradient2" spreadMethod="pad" x1="-819.2" x2="819.2">
      <stop offset="0.0" stop-color="#13a8fc"/>
      <stop offset="1.0" stop-color="#1179ec"/>
    </linearGradient>
    <linearGradient gradientTransform="matrix(-0.0329, 0.1057, -0.0342, -0.0107, 142.75, 169.9)" gradientUnits="userSpaceOnUse" id="gradient3" spreadMethod="pad" x1="-819.2" x2="819.2">
      <stop offset="0.0" stop-color="#13a8fc"/>
      <stop offset="1.0" stop-color="#1179ec"/>
    </linearGradient>
    <linearGradient gradientTransform="matrix(-0.0102, 0.0127, -0.006, -0.0049, 231.6, 223.95)" gradientUnits="userSpaceOnUse" id="gradient4" spreadMethod="pad" x1="-819.2" x2="819.2">
      <stop offset="0.0" stop-color="#13a8fc"/>
      <stop offset="1.0" stop-color="#1179ec"/>
    </linearGradient>
    <linearGradient gradientTransform="matrix(-0.0102, 0.0079, -0.0033, -0.0043, 220.65, 218.15)" gradientUnits="userSpaceOnUse" id="gradient5" spreadMethod="pad" x1="-819.2" x2="819.2">
      <stop offset="0.0" stop-color="#13a8fc"/>
      <stop offset="1.0" stop-color="#1179ec"/>
    </linearGradient>
    <linearGradient gradientTransform="matrix(0.0356, -0.0675, 0.05, 0.0264, 140.2, 201.7)" gradientUnits="userSpaceOnUse" id="gradient6" spreadMethod="pad" x1="-819.2" x2="819.2">
      <stop offset="0.0" stop-color="#30b1f2"/>
      <stop offset="1.0" stop-color="#3ad5f8"/>
    </linearGradient>
    <linearGradient gradientTransform="matrix(0.0467, -0.0855, 0.0834, 0.0455, 150.65, 165.55)" gradientUnits="userSpaceOnUse" id="gradient7" spreadMethod="pad" x1="-819.2" x2="819.2">
      <stop offset="0.0" stop-color="#30b1f2"/>
      <stop offset="1.0" stop-color="#3ad5f8"/>
    </linearGradient>
    <linearGradient gradientTransform="matrix(0.0065, -0.008, 0.0052, 0.0043, 202.8, 192.75)" gradientUnits="userSpaceOnUse" id="gradient8" spreadMethod="pad" x1="-819.2" x2="819.2">
      <stop offset="0.0" stop-color="#30b1f2"/>
      <stop offset="1.0" stop-color="#3ad5f8"/>
    </linearGradient>
    <linearGradient gradientTransform="matrix(0.0066, -0.0047, 0.0026, 0.0037, 293.8, 154.95)" gradientUnits="userSpaceOnUse" id="gradient9" spreadMethod="pad" x1="-819.2" x2="819.2">
      <stop offset="0.0" stop-color="#30b1f2"/>
      <stop offset="1.0" stop-color="#3ad5f8"/>
    </linearGradient>
    <linearGradient gradientTransform="matrix(0.0054, -0.0053, 0.0033, 0.0034, 171.85, 202.5)" gradientUnits="userSpaceOnUse" id="gradient10" spreadMethod="pad" x1="-819.2" x2="819.2">
      <stop offset="0.0" stop-color="#30b1f2"/>
      <stop offset="1.0" stop-color="#3ad5f8"/>
    </linearGradient>
    <linearGradient gradientTransform="matrix(0.0172, -0.0159, 0.0043, 0.0047, 174.15, 167.5)" gradientUnits="userSpaceOnUse" id="gradient11" spreadMethod="pad" x1="-819.2" x2="819.2">
      <stop offset="0.0" stop-color="#30b1f2"/>
      <stop offset="1.0" stop-color="#3ad5f8"/>
    </linearGradient>
    <linearGradient gradientTransform="matrix(0.0358, -0.0231, 0.0054, 0.0083, 145.75, 198.0)" gradientUnits="userSpaceOnUse" id="gradient12" spreadMethod="pad" x1="-819.2" x2="819.2">
      <stop offset="0.0" stop-color="#30b1f2"/>
      <stop offset="1.0" stop-color="#3ad5f8"/>
    </linearGradient>
    <linearGradient gradientTransform="matrix(0.0145, -0.0135, 0.0065, 0.007, 153.6, 195.55)" gradientUnits="userSpaceOnUse" id="gradient13" spreadMethod="pad" x1="-819.2" x2="819.2">
      <stop offset="0.0" stop-color="#30b1f2"/>
      <stop offset="1.0" stop-color="#3ad5f8"/>
    </linearGradient>
    <linearGradient gradientTransform="matrix(0.0059, -0.0075, 0.0024, 0.0019, 247.75, 207.6)" gradientUnits="userSpaceOnUse" id="gradient14" spreadMethod="pad" x1="-819.2" x2="819.2">
      <stop offset="0.0" stop-color="#30b1f2"/>
      <stop offset="1.0" stop-color="#3ad5f8"/>
    </linearGradient>
    <linearGradient gradientTransform="matrix(0.012, -0.0146, 0.009, 0.0074, 197.9, 159.4)" gradientUnits="userSpaceOnUse" id="gradient15" spreadMethod="pad" x1="-819.2" x2="819.2">
      <stop offset="0.0" stop-color="#30b1f2"/>
      <stop offset="1.0" stop-color="#3ad5f8"/>
    </linearGradient>
    <linearGradient gradientTransform="matrix(0.0027, -0.0036, 0.0011, 9.0E-4, 254.4, 205.85)" gradientUnits="userSpaceOnUse" id="gradient16" spreadMethod="pad" x1="-819.2" x2="819.2">
      <stop offset="0.0" stop-color="#30b1f2"/>
      <stop offset="1.0" stop-color="#3ad5f8"/>
    </linearGradient>
    <linearGradient gradientTransform="matrix(0.006, -0.0053, 0.0023, 0.0026, 245.65, 212.3)" gradientUnits="userSpaceOnUse" id="gradient17" spreadMethod="pad" x1="-819.2" x2="819.2">
      <stop offset="0.0" stop-color="#30b1f2"/>
      <stop offset="1.0" stop-color="#3ad5f8"/>
    </linearGradient>
    <linearGradient gradientTransform="matrix(0.0318, -0.059, 0.0285, 0.0154, 121.1, 213.2)" gradientUnits="userSpaceOnUse" id="gradient18" spreadMethod="pad" x1="-819.2" x2="819.2">
      <stop offset="0.00784313725490196" stop-color="#81dff0"/>
      <stop offset="0.9921568627450981" stop-color="#b6fffc"/>
    </linearGradient>
    <linearGradient gradientTransform="matrix(0.007, -0.0132, 0.007, 0.0037, 136.95, 178.75)" gradientUnits="userSpaceOnUse" id="gradient19" spreadMethod="pad" x1="-819.2" x2="819.2">
      <stop offset="0.00784313725490196" stop-color="#81dff0"/>
      <stop offset="0.9921568627450981" stop-color="#b6fffc"/>
    </linearGradient>
    <linearGradient gradientTransform="matrix(0.0278, -0.0622, 0.0445, 0.0199, 134.0, 189.25)" gradientUnits="userSpaceOnUse" id="gradient20" spreadMethod="pad" x1="-819.2" x2="819.2">
      <stop offset="0.00784313725490196" stop-color="#81dff0"/>
      <stop offset="0.9921568627450981" stop-color="#b6fffc"/>
    </linearGradient>
    <linearGradient gradientTransform="matrix(0.0315, -0.0479, 0.0355, 0.0234, 127.4, 184.8)" gradientUnits="userSpaceOnUse" id="gradient21" spreadMethod="pad" x1="-819.2" x2="819.2">
      <stop offset="0.00784313725490196" stop-color="#81dff0"/>
      <stop offset="0.9921568627450981" stop-color="#b6fffc"/>
    </linearGradient>
    <linearGradient gradientTransform="matrix(0.0021, -0.0025, 0.0027, 0.0022, 116.3, 180.5)" gradientUnits="userSpaceOnUse" id="gradient22" spreadMethod="pad" x1="-819.2" x2="819.2">
      <stop offset="0.00784313725490196" stop-color="#81dff0"/>
      <stop offset="0.9921568627450981" stop-color="#b6fffc"/>
    </linearGradient>
    <linearGradient gradientTransform="matrix(0.0017, -0.0023, 0.0012, 8.0E-4, 114.45, 209.25)" gradientUnits="userSpaceOnUse" id="gradient23" spreadMethod="pad" x1="-819.2" x2="819.2">
      <stop offset="0.00784313725490196" stop-color="#81dff0"/>
      <stop offset="0.9921568627450981" stop-color="#b6fffc"/>
    </linearGradient>
    <linearGradient gradientTransform="matrix(0.005, -0.0061, 0.0038, 0.0031, 182.15, 205.1)" gradientUnits="userSpaceOnUse" id="gradient24" spreadMethod="pad" x1="-819.2" x2="819.2">
      <stop offset="0.00784313725490196" stop-color="#81dff0"/>
      <stop offset="0.9921568627450981" stop-color="#b6fffc"/>
    </linearGradient>
    <linearGradient gradientTransform="matrix(0.0075, -0.011, 0.0064, 0.0044, 122.8, 214.6)" gradientUnits="userSpaceOnUse" id="gradient25" spreadMethod="pad" x1="-819.2" x2="819.2">
      <stop offset="0.00784313725490196" stop-color="#81dff0"/>
      <stop offset="0.9921568627450981" stop-color="#b6fffc"/>
    </linearGradient>
    <linearGradient gradientTransform="matrix(0.0065, -0.0075, 0.0019, 0.0017, 148.1, 209.55)" gradientUnits="userSpaceOnUse" id="gradient26" spreadMethod="pad" x1="-819.2" x2="819.2">
      <stop offset="0.00784313725490196" stop-color="#81dff0"/>
      <stop offset="0.9921568627450981" stop-color="#b6fffc"/>
    </linearGradient>
    <linearGradient gradientTransform="matrix(0.0058, -0.0086, 0.0056, 0.0038, 263.55, 182.65)" gradientUnits="userSpaceOnUse" id="gradient27" spreadMethod="pad" x1="-819.2" x2="819.2">
      <stop offset="0.00784313725490196" stop-color="#81dff0"/>
      <stop offset="0.9921568627450981" stop-color="#b6fffc"/>
    </linearGradient>
    <linearGradient gradientTransform="matrix(0.0058, -0.0066, 0.0023, 0.0021, 163.05, 185.65)" gradientUnits="userSpaceOnUse" id="gradient28" spreadMethod="pad" x1="-819.2" x2="819.2">
      <stop offset="0.00784313725490196" stop-color="#81dff0"/>
      <stop offset="0.9921568627450981" stop-color="#b6fffc"/>
    </linearGradient>
    <g id="shape2" transform="matrix(1.0, 0.0, 0.0, 1.0, -113.3, -67.75)">
      <path d="M114.45 113.3 L113.9 110.8 113.85 110.5 113.8 110.3 113.9 109.95 114.4 108.55 115.25 106.35 115.6 105.4 117.35 100.3 117.5 100.3 119.2 100.4 121.9 103.55 123.3 105.3 Q123.25 107.2 123.5 109.15 L123.95 113.5 124.05 114.75 124.05 115.05 124.05 115.35 124.1 116.0 124.1 116.95 124.1 117.25 124.05 117.35 123.6 118.2 123.6 118.25 Q122.2 121.2 119.9 123.6 L117.5 121.35 116.4 120.25 115.55 119.1 115.5 119.0 114.55 113.95 114.55 113.75 114.45 113.3 M121.45 107.6 L121.4 106.55 Q121.35 105.6 120.7 105.15 L119.75 104.3 118.65 103.2 118.55 103.1 118.35 103.4 Q117.2 105.4 116.35 107.55 L116.3 107.7 115.5 109.95 115.1 111.2 115.1 111.25 115.2 111.6 116.8 117.15 117.55 119.0 117.75 119.55 118.1 121.15 118.45 120.9 118.9 120.35 121.7 117.2 121.7 115.95 121.7 115.6 121.65 114.35 121.65 113.35 121.45 107.6" fill="#2a7ff5" fill-rule="evenodd" stroke="none"/>
      <path d="M120.5 107.25 L120.45 107.15 120.05 106.2 119.8 105.35 119.7 105.2 119.2 105.05 118.7 105.15 117.65 106.05 116.9 108.15 116.7 109.95 116.7 110.95 118.5 109.9 119.3 109.15 119.2 110.7 119.1 112.15 118.9 112.15 Q118.4 112.1 118.3 112.75 L118.25 113.15 Q118.1 115.05 118.7 116.75 L119.0 117.25 119.3 117.4 Q119.8 117.5 119.7 117.95 120.05 117.0 120.85 116.65 L121.3 116.35 121.7 115.95 121.7 117.2 118.9 120.35 118.45 120.9 118.1 121.15 117.75 119.55 117.55 119.0 116.8 117.15 115.2 111.6 115.1 111.25 115.1 111.2 115.5 109.95 116.3 107.7 116.35 107.55 Q117.2 105.4 118.35 103.4 L118.55 103.1 118.65 103.2 119.75 104.3 120.7 105.15 Q121.35 105.6 121.4 106.55 L121.45 107.6 120.7 107.35 120.5 107.25" fill="#c55feb" fill-rule="evenodd" stroke="none"/>
      <path d="M119.3 109.15 L118.5 109.9 116.7 110.95 116.7 109.95 116.9 108.15 117.65 106.05 118.7 105.15 119.2 105.05 119.7 105.2 119.8 105.35 120.05 106.2 120.45 107.15 120.5 107.25 120.4 107.5 119.9 108.35 119.3 109.15" fill="#e4c2f0" fill-rule="evenodd" stroke="none"/>
      <path d="M120.5 107.25 L120.7 107.35 121.45 107.6 121.65 113.35 121.65 114.35 121.7 115.6 121.7 115.95 121.3 116.35 120.85 116.65 Q120.05 117.0 119.7 117.95 119.8 117.5 119.3 117.4 L119.0 117.25 118.7 116.75 Q118.1 115.05 118.25 113.15 L118.3 112.75 Q118.4 112.1 118.9 112.15 L119.1 112.15 119.2 110.7 119.3 109.15 119.9 108.35 120.4 107.5 120.5 107.25" fill="#c00ac8" fill-rule="evenodd" stroke="none"/>
      <path d="M114.45 113.3 L113.9 110.8 113.85 110.5 113.8 110.3 113.9 109.95 114.4 108.55 115.25 106.35 115.6 105.4 117.35 100.3 117.5 100.3 119.2 100.4 121.9 103.55 123.3 105.3 Q123.25 107.2 123.5 109.15 L123.95 113.5 124.05 114.75 124.05 115.05 124.05 115.35 124.1 116.0 124.1 116.95 124.1 117.25 124.05 117.35 123.6 118.2 123.6 118.25 Q122.2 121.2 119.9 123.6 L117.5 121.35 116.4 120.25 115.55 119.1 115.5 119.0 114.55 113.95 114.55 113.75" fill="none" stroke="#3bf5ff" stroke-linecap="round" stroke-linejoin="round" stroke-width="1.0"/>
      <path d="M149.9 174.35 L148.75 178.15 147.75 181.35 147.4 181.9 145.8 184.8 145.2 184.0 142.5 179.75 140.5 175.95 140.2 175.35 140.0 174.95 139.25 173.6 138.3 171.5 138.25 171.35 138.35 170.45 139.3 165.75 139.85 163.0 139.9 162.35 Q140.05 160.8 140.65 159.45 L142.1 158.55 143.45 158.5 144.85 159.2 146.15 160.25 147.35 162.75 147.4 162.75 148.6 165.5 148.8 166.0 149.4 167.25 150.15 168.75 150.85 170.0 150.8 170.1 150.6 170.35 150.3 170.95 150.1 171.35 Q150.0 171.6 149.7 171.55 L149.45 171.0 149.4 170.85 148.05 168.35 148.0 168.2 147.15 166.75 146.5 165.6 146.2 165.05 145.65 163.95 144.7 162.05 144.1 160.75 142.4 160.6 142.35 163.75 Q142.2 164.85 142.2 165.9 L142.15 166.5 142.15 167.05 142.1 169.4 142.1 170.55 142.6 171.45 142.9 172.0 142.95 172.05 143.9 173.85 144.25 174.45 144.5 174.85 145.1 175.8 145.45 176.35 145.55 176.5 146.2 176.2 148.1 175.3 149.9 174.35" fill="#2a7ff5" fill-rule="evenodd" stroke="none"/>
      <path d="M149.9 174.35 L148.1 175.3 146.2 176.2 145.55 176.5 145.45 176.35 145.1 175.8 144.5 174.85 144.25 174.45 143.9 173.85 142.95 172.05 142.9 172.0 142.6 171.45 142.1 170.55 142.1 169.4 142.15 167.05 142.15 166.5 142.2 165.9 Q142.2 164.85 142.35 163.75 L142.4 160.6 144.1 160.75 144.7 162.05 145.65 163.95 146.2 165.05 146.5 165.6 146.5 165.7 146.45 165.65 146.3 165.25 145.5 164.05 144.6 162.65 144.5 162.45 Q144.3 161.9 143.7 162.0 L143.6 162.05 143.4 164.85 143.4 165.55 Q143.4 167.05 143.8 168.45 L143.8 168.5 144.2 168.95 145.7 169.8 146.05 169.95 146.6 170.15 146.95 170.2 147.15 170.35 147.2 170.05 147.45 171.0 147.45 171.75 147.4 171.9 147.15 172.4 146.85 172.7 146.7 172.7 146.45 172.45 146.4 172.25 146.4 172.5 146.45 172.85 146.55 173.0 146.7 173.25 Q146.85 173.95 147.3 174.45 L147.4 174.65 147.8 174.75 Q149.0 174.35 149.85 173.6 L150.1 173.35 150.15 173.3 150.1 173.5 149.9 174.35" fill="#c00ac8" fill-rule="evenodd" stroke="none"/>
      <path d="M147.2 170.05 L147.15 170.35 146.95 170.2 146.6 170.15 146.05 169.95 145.7 169.8 144.2 168.95 143.8 168.5 143.8 168.45 Q143.4 167.05 143.4 165.55 L143.4 164.85 143.6 162.05 143.7 162.0 Q144.3 161.9 144.5 162.45 L144.6 162.65 145.5 164.05 146.3 165.25 146.45 165.65 146.5 165.7 146.5 165.95 146.65 166.25 146.9 166.85 146.95 167.25 147.1 168.8 147.1 168.85 147.2 170.05" fill="#e2c0ee" fill-rule="evenodd" stroke="none"/>
      <path d="M146.5 165.6 L147.15 166.75 148.0 168.2 148.05 168.35 149.4 170.85 149.45 171.0 149.7 171.55 Q150.0 171.6 150.1 171.35 L150.3 170.95 150.6 170.35 150.8 170.1 150.85 170.0 150.85 170.05 150.95 170.2 151.05 170.4 150.35 172.6 150.15 173.3 150.1 173.35 149.85 173.6 Q149.0 174.35 147.8 174.75 L147.4 174.65 147.3 174.45 Q146.85 173.95 146.7 173.25 L146.55 173.0 146.45 172.85 146.4 172.5 146.4 172.25 146.45 172.45 146.7 172.7 146.85 172.7 147.15 172.4 147.4 171.9 147.45 171.75 147.45 171.0 147.2 170.05 147.1 168.85 147.1 168.8 146.95 167.25 146.9 166.85 146.65 166.25 146.5 165.95 146.5 165.7 146.5 165.6" fill="#c55feb" fill-rule="evenodd" stroke="none"/>
      <path d="M150.85 170.0 L150.15 168.75 149.4 167.25 148.8 166.0 148.6 165.5 147.4 162.75 147.35 162.75 146.15 160.25 144.85 159.2 143.45 158.5 142.1 158.55 140.65 159.45 Q140.05 160.8 139.9 162.35 L139.85 163.0 139.3 165.75 138.35 170.45 138.25 171.35 138.3 171.5 139.25 173.6 140.0 174.95 140.2 175.35 140.5 175.95 142.5 179.75 145.2 184.0 145.8 184.8 147.4 181.9 147.75 181.35 148.75 178.15 149.9 174.35 150.1 173.5 150.15 173.3 150.35 172.6 151.05 170.4 150.95 170.2 150.85 170.05 150.85 170.0 Z" fill="none" stroke="#3bf5ff" stroke-linecap="round" stroke-linejoin="round" stroke-width="1.0"/>
      <path d="M190.5 103.05 L191.35 102.4 Q193.75 100.75 195.85 98.65 L198.8 99.6 201.1 104.75 203.35 109.35 204.55 111.5 202.8 115.45 202.45 116.05 201.85 117.25 200.35 120.35 200.1 120.95 197.35 127.6 196.3 130.35 195.95 130.6 Q193.6 132.45 190.9 133.5 L188.85 134.35 188.8 134.35 187.55 134.9 185.65 135.65 185.55 135.3 185.05 133.15 184.85 132.35 183.3 127.25 182.85 126.15 182.2 124.25 182.9 120.35 183.0 119.75 183.25 118.75 183.5 117.7 184.35 113.75 185.2 109.85 185.55 108.35 186.4 104.5 186.7 104.45 188.3 104.1 188.45 104.0 190.5 103.05 M194.95 112.25 L195.85 106.95 Q195.3 104.9 194.4 103.1 L193.7 103.55 Q190.85 105.3 187.75 106.3 L186.9 110.35 186.8 110.95 186.05 114.95 185.55 117.5 185.25 118.9 184.7 121.55 184.5 122.45 184.95 124.55 186.75 130.0 Q188.5 129.0 190.05 127.6 L190.3 127.35 Q192.15 125.55 193.45 123.4 L194.45 121.55 195.15 120.1 195.75 118.5 196.3 117.15 Q196.75 116.05 197.35 115.0 L197.35 114.75 197.5 113.3 197.55 113.1 197.35 113.25 194.7 114.95 Q194.6 113.65 194.9 112.45 L194.9 112.35 194.95 112.25" fill="#2a7ff5" fill-rule="evenodd" stroke="none"/>
      <path d="M190.05 127.6 Q188.5 129.0 186.75 130.0 L184.95 124.55 184.5 122.45 184.7 121.55 185.25 118.9 185.55 117.5 186.05 114.95 186.8 110.95 186.9 110.35 187.75 106.3 Q190.85 105.3 193.7 103.55 L194.4 103.1 Q195.3 104.9 195.85 106.95 L194.95 112.25 194.75 112.4 193.45 113.95 192.9 113.9 192.4 114.0 Q191.2 114.2 190.6 115.25 L189.7 117.05 189.65 117.25 Q189.25 118.25 189.1 119.3 L189.05 119.75 Q188.95 120.95 189.0 122.15 L189.05 123.05 189.25 123.5 189.95 124.4 190.2 124.45 191.2 124.4 191.8 124.3 192.1 124.2 191.9 124.55 190.8 126.4 190.05 127.6 M188.05 110.6 L187.9 111.25 Q187.7 112.2 187.65 113.15 L187.7 115.35 187.8 115.5 187.9 115.55 Q188.3 115.5 188.65 115.25 189.25 114.85 189.9 114.55 L192.25 113.1 Q192.35 112.4 192.6 111.8 192.75 111.2 193.05 110.65 L193.7 109.35 193.75 109.3 193.15 108.35 192.2 107.15 Q191.7 106.75 191.0 106.7 L189.3 106.85 Q188.9 106.95 188.85 107.35 L188.7 107.95 188.05 110.6" fill="#c55feb" fill-rule="evenodd" stroke="none"/>
      <path d="M188.05 110.6 L188.7 107.95 188.85 107.35 Q188.9 106.95 189.3 106.85 L191.0 106.7 Q191.7 106.75 192.2 107.15 L193.15 108.35 193.75 109.3 193.7 109.35 193.05 110.65 Q192.75 111.2 192.6 111.8 192.35 112.4 192.25 113.1 L189.9 114.55 Q189.25 114.85 188.65 115.25 188.3 115.5 187.9 115.55 L187.8 115.5 187.7 115.35 187.65 113.15 Q187.7 112.2 187.9 111.25 L188.05 110.6" fill="#e4c2f0" fill-rule="evenodd" stroke="none"/>
      <path d="M190.05 127.6 L190.8 126.4 191.9 124.55 192.1 124.2 191.8 124.3 191.2 124.4 190.2 124.45 189.95 124.4 189.25 123.5 189.05 123.05 189.0 122.15 Q188.95 120.95 189.05 119.75 L189.1 119.3 Q189.25 118.25 189.65 117.25 L189.7 117.05 190.6 115.25 Q191.2 114.2 192.4 114.0 L192.9 113.9 193.45 113.95 194.75 112.4 194.95 112.25 194.9 112.35 194.9 112.45 Q194.6 113.65 194.7 114.95 L197.35 113.25 197.55 113.1 197.5 113.3 197.35 114.75 197.35 115.0 Q196.75 116.05 196.3 117.15 L195.75 118.5 195.15 120.1 194.45 121.55 193.45 123.4 Q192.15 125.55 190.3 127.35 L190.05 127.6" fill="#c00ac8" fill-rule="evenodd" stroke="none"/>
      <path d="M190.5 103.05 L188.45 104.0 188.3 104.1 186.7 104.45 186.4 104.5 185.55 108.35 185.2 109.85 184.35 113.75 183.5 117.7 183.25 118.75 183.0 119.75 182.9 120.35 182.2 124.25 182.85 126.15 183.3 127.25 184.85 132.35 185.05 133.15 185.55 135.3 185.65 135.65 187.55 134.9 188.8 134.35 188.85 134.35 190.9 133.5 Q193.6 132.45 195.95 130.6 L196.3 130.35 197.35 127.6 200.1 120.95 200.35 120.35 201.85 117.25 202.45 116.05 202.8 115.45 204.55 111.5 203.35 109.35 201.1 104.75 198.8 99.6 195.85 98.65 Q193.75 100.75 191.35 102.4 L190.5 103.05 Z" fill="none" stroke="#3bf5ff" stroke-linecap="round" stroke-linejoin="round" stroke-width="1.0"/>
      <path d="M131.45 111.25 L131.5 109.95 131.75 106.85 131.8 104.25 Q131.8 102.8 131.3 101.25 L131.35 101.2 132.3 99.25 134.1 95.75 135.25 93.65 136.05 92.3 136.5 91.55 137.85 89.45 139.2 87.45 140.6 85.65 141.8 84.05 143.0 82.5 145.7 79.35 147.45 77.5 151.85 73.2 153.95 71.35 155.5 74.05 157.55 77.35 158.65 79.15 159.8 81.05 160.9 82.95 162.05 84.85 163.1 86.75 164.1 88.45 165.7 91.15 167.25 93.6 167.45 93.85 167.65 94.1 168.7 95.45 169.05 95.95 169.2 96.15 169.6 96.75 170.45 97.95 170.9 98.55 171.15 98.9 170.5 98.65 168.6 98.0 167.0 97.35 166.15 97.0 165.2 96.65 163.15 95.85 163.1 95.85 162.2 95.75 162.25 95.8 163.55 97.1 163.65 97.2 164.6 98.05 165.1 98.55 167.45 100.95 167.75 101.3 168.25 101.8 168.3 102.65 168.4 103.95 168.6 106.7 168.65 108.05 168.7 109.65 168.5 109.9 167.8 110.95 166.45 112.5 164.85 113.9 Q163.3 113.35 161.65 113.5 160.25 113.65 158.95 114.25 157.75 114.85 156.65 115.65 L155.0 117.05 154.35 117.85 154.25 117.05 154.1 115.25 154.1 115.2 153.95 111.55 153.95 110.1 153.9 108.45 153.9 107.8 154.4 106.5 155.35 104.2 155.85 103.05 156.75 101.35 158.65 98.35 158.7 98.3 159.2 97.6 159.4 97.25 160.65 95.7 161.05 95.1 161.6 95.15 162.0 95.2 165.7 95.95 166.2 96.1 166.6 96.0 166.95 95.95 166.55 95.7 163.5 93.7 161.1 92.15 159.9 91.45 157.8 89.95 157.7 89.8 156.0 86.75 155.0 85.15 152.95 82.3 150.95 79.8 148.95 77.85 148.0 78.25 147.1 78.7 147.1 78.75 145.45 81.55 141.45 89.4 139.7 93.05 137.1 99.0 136.55 100.35 136.5 100.45 135.8 102.35 135.8 102.55 136.05 104.45 136.4 106.55 136.8 108.85 137.0 109.95 137.25 111.15 137.8 113.35 138.05 114.25 138.4 115.55 138.9 117.55 139.55 120.05 139.7 120.75 140.5 122.35 141.6 124.45 142.85 126.65 143.05 127.0 145.4 131.05 146.65 133.05 148.75 136.25 149.65 137.6 150.15 138.0 150.2 138.05 150.65 138.4 151.9 139.35 153.1 140.3 154.25 141.2 155.2 142.05 155.1 140.7 154.6 140.05 154.5 139.9 153.5 138.1 153.2 137.45 152.2 135.1 151.0 131.5 150.7 130.1 151.2 129.45 152.5 127.95 153.8 129.85 Q154.9 131.3 156.35 132.35 157.5 133.2 158.95 133.3 L162.2 132.85 Q163.9 132.25 165.4 131.25 L163.9 133.35 163.6 133.8 161.55 136.2 159.9 138.05 159.4 138.55 157.35 140.4 156.2 141.55 155.9 143.35 155.9 143.65 155.8 144.15 155.6 145.85 155.4 147.25 155.0 149.3 155.0 149.35 154.55 151.1 154.1 150.9 152.7 150.15 152.1 149.85 150.25 148.95 149.0 148.35 147.4 147.65 146.15 147.15 145.4 146.85 144.3 146.4 143.0 145.85 142.7 145.7 141.2 144.85 139.8 144.1 138.4 143.35 138.05 143.15 137.6 142.9 137.35 142.25 135.9 138.65 135.4 137.45 134.35 134.65 133.7 133.05 132.3 129.65 132.1 129.15 131.5 127.85 129.95 124.55 129.75 124.0 129.4 123.25 129.5 122.95 130.4 119.65 131.05 116.65 131.15 116.15 131.2 115.75 131.5 113.15 131.5 111.9 131.45 111.25 M135.8 121.45 Q134.65 120.65 133.4 120.3 L133.35 120.35 132.9 122.25 132.85 122.65 132.5 125.25 132.4 126.35 132.55 126.7 133.6 128.85 133.85 129.35 135.75 132.45 137.85 135.5 139.85 138.1 142.2 141.05 142.5 141.45 143.25 142.4 144.3 142.8 144.5 142.85 Q145.85 143.4 147.3 143.5 L147.45 142.75 147.65 141.85 147.75 140.85 147.8 139.45 147.65 138.0 145.3 134.95 142.6 130.95 140.6 127.95 140.35 127.55 138.85 125.0 137.6 122.75 135.8 121.45 M153.6 146.85 L153.3 144.95 153.2 144.55 153.1 144.45 152.8 144.15 151.0 142.7 Q150.0 142.85 149.25 143.6 L149.2 143.75 149.0 144.25 148.85 145.45 148.9 145.75 148.9 146.3 148.95 147.15 150.3 148.2 151.0 148.7 Q152.2 149.4 153.6 149.8 L153.9 149.9 154.0 149.95 154.0 149.7 153.7 147.8 153.6 146.85" fill="#c55feb" fill-rule="evenodd" stroke="none"/>
      <path d="M153.95 71.35 L151.85 73.2 147.45 77.5 145.7 79.35 143.0 82.5 141.8 84.05 140.6 85.65 139.2 87.45 137.85 89.45 136.5 91.55 136.05 92.3 135.25 93.65 134.1 95.75 132.3 99.25 131.35 101.2 131.3 101.25 Q131.8 102.8 131.8 104.25 L131.75 106.85 131.5 109.95 131.45 111.25 131.4 111.45 131.35 111.95 131.1 115.15 131.05 116.15 131.05 116.65 130.4 119.65 129.5 122.95 129.4 123.25 129.75 124.0 129.95 124.55 131.5 127.85 132.1 129.15 132.3 129.65 133.7 133.05 134.35 134.65 135.4 137.45 135.9 138.65 137.35 142.25 137.6 142.9 138.05 143.15 138.4 143.35 139.8 144.1 141.2 144.85 142.7 145.7 144.65 146.9 144.85 147.05 145.4 147.4 146.4 148.1 148.35 149.65 149.25 150.4 150.0 151.1 151.55 152.6 153.5 155.15 153.8 155.8 154.15 156.85 154.4 157.65 154.5 158.05 154.6 157.95 156.9 156.25 158.1 155.2 159.1 151.55 159.65 149.35 160.1 147.55 160.35 146.15 160.4 146.0 160.75 145.5 162.5 143.15 163.55 141.75 163.7 141.55 163.85 141.35 165.8 138.55 167.3 136.45 167.5 136.15 168.35 135.0 168.45 133.85 168.75 132.0 168.95 130.45 169.6 125.85 169.8 124.35 170.05 122.25 170.1 121.55 170.2 120.8 170.85 118.45 171.35 116.35 172.15 111.75 172.55 109.5 172.55 109.25 173.1 105.75 173.35 103.95 173.7 101.55 173.95 99.5 173.95 99.35 174.0 97.9 173.95 97.45 173.95 96.4 174.0 95.55 173.35 95.0 172.7 94.55 172.25 93.9 170.1 91.25 169.0 89.95 164.6 84.45 163.0 82.35 160.0 78.25 158.55 76.35 156.1 73.25 155.1 72.05 154.25 71.1 153.95 71.35 M155.2 70.15 L160.5 75.75 162.5 77.95 166.5 82.55 168.45 85.0 171.5 88.95 173.85 90.65 Q176.1 92.25 178.25 94.0 L180.1 95.5 180.1 95.95 180.05 96.75 180.05 97.8 180.0 98.25 179.9 100.55 179.6 104.9 179.35 107.35 179.0 110.35 178.5 114.15 177.85 118.45 177.85 118.6 177.45 121.1 177.35 121.75 176.85 125.15 176.15 129.55 175.85 131.15 175.65 132.25 173.65 134.85 172.9 135.75 169.95 139.7 169.8 139.9 169.75 139.95 167.15 143.55 165.7 145.6 165.0 146.6 164.4 147.5 163.3 150.15 161.85 153.55 Q161.1 155.25 160.6 157.05 L158.95 158.85 Q156.5 161.5 153.45 163.45 L153.2 163.0 Q151.45 159.65 150.1 156.15 L149.55 154.75 146.9 152.55 146.6 152.35 144.9 151.05 144.85 151.0 141.5 148.65 140.95 148.3 138.35 146.5 136.4 145.15 136.3 145.1 135.9 144.0 134.25 139.8 131.4 132.7 130.2 129.5 128.75 125.35 128.5 124.55 127.25 120.5 127.55 119.95 128.95 116.75 129.6 114.25 129.5 112.7 129.2 109.75 128.1 103.4 127.85 101.8 127.7 100.5 131.5 95.35 134.1 91.85 136.9 87.95 139.95 84.0 147.75 74.2 149.7 71.95 153.2 68.25 155.05 70.0 155.2 70.15 M171.7 130.65 L171.65 131.05 171.7 131.15 172.25 130.85 173.5 129.65 173.5 129.55 174.05 126.55 174.2 123.7 Q173.8 124.25 173.55 124.95 L172.5 127.85 Q171.9 129.2 171.7 130.65" fill="#2a7ff5" fill-rule="evenodd" stroke="none"/>
      <path d="M152.5 127.95 L151.2 129.45 150.7 130.1 151.0 131.5 152.2 135.1 153.2 137.45 153.5 138.1 154.5 139.9 154.6 140.05 155.1 140.7 155.2 142.05 154.25 141.2 153.1 140.3 151.9 139.35 150.65 138.4 150.2 138.05 150.15 138.0 149.65 137.6 148.75 136.25 146.65 133.05 145.4 131.05 143.05 127.0 142.85 126.65 141.6 124.45 140.5 122.35 139.7 120.75 139.55 120.05 138.9 117.55 138.4 115.55 138.05 114.25 137.8 113.35 137.25 111.15 137.0 109.95 136.8 108.85 136.4 106.55 136.05 104.45 135.8 102.55 135.8 102.35 136.5 100.45 136.55 100.35 137.1 99.0 139.7 93.05 141.45 89.4 145.45 81.55 147.1 78.75 147.1 78.7 148.0 78.25 148.95 77.85 150.95 79.8 152.95 82.3 155.0 85.15 156.0 86.75 157.7 89.8 157.8 89.95 159.9 91.45 161.1 92.15 163.5 93.7 166.55 95.7 166.95 95.95 166.6 96.0 166.2 96.1 165.7 95.95 162.0 95.2 161.6 95.15 161.05 95.1 160.65 95.7 159.4 97.25 159.2 97.6 158.7 98.3 158.65 98.35 156.75 101.35 155.85 103.05 155.35 104.2 154.4 106.5 153.9 107.8 153.9 108.45 153.95 110.1 153.95 111.55 154.1 115.2 154.1 115.25 154.25 117.05 154.35 117.85 154.6 120.35 155.0 122.95 155.2 124.65 155.05 124.8 153.35 126.9 152.5 127.95 M151.3 104.15 L151.45 102.7 151.4 102.7 149.5 102.4 148.35 102.3 Q147.35 102.7 146.45 103.4 L145.25 104.35 145.35 104.7 145.8 105.7 146.35 106.9 146.7 107.55 147.75 108.8 148.8 108.0 150.9 106.0 151.0 105.5 151.3 104.15 M153.45 89.1 L151.9 87.7 149.15 86.05 147.4 85.65 146.65 86.4 145.1 88.35 144.1 89.65 141.75 93.05 141.55 93.35 140.55 94.95 138.8 98.3 138.2 100.1 138.2 100.25 138.1 100.6 138.0 102.3 139.65 102.7 142.0 102.85 143.1 102.8 143.6 102.65 145.9 102.0 149.45 100.65 151.15 99.9 151.55 98.9 151.6 98.75 151.75 98.35 152.7 95.35 152.8 94.95 153.0 93.95 153.4 90.05 153.45 89.1" fill="#e4c2f0" fill-rule="evenodd" stroke="none"/>
      <path d="M142.7 145.7 L143.0 145.85 144.3 146.4 145.4 146.85 146.15 147.15 147.4 147.65 149.0 148.35 150.25 148.95 152.1 149.85 152.7 150.15 154.1 150.9 154.55 151.1 155.0 149.35 155.0 149.3 155.4 147.25 155.6 145.85 155.8 144.15 155.9 143.65 155.9 143.35 156.2 141.55 157.35 140.4 159.4 138.55 159.9 138.05 161.55 136.2 163.6 133.8 163.9 133.35 165.4 131.25 Q163.9 132.25 162.2 132.85 L158.95 133.3 Q157.5 133.2 156.35 132.35 154.9 131.3 153.8 129.85 L152.5 127.95 153.35 126.9 155.05 124.8 155.2 124.65 155.0 122.95 154.6 120.35 154.35 117.85 155.0 117.05 156.65 115.65 Q157.75 114.85 158.95 114.25 160.25 113.65 161.65 113.5 163.3 113.35 164.85 113.9 L166.45 112.5 167.8 110.95 168.5 109.9 168.7 109.65 168.65 108.05 168.6 106.7 168.4 103.95 168.3 102.65 168.25 101.8 167.75 101.3 167.45 100.95 165.1 98.55 164.6 98.05 163.65 97.2 163.55 97.1 162.25 95.8 162.2 95.75 163.1 95.85 163.15 95.85 165.2 96.65 166.15 97.0 167.0 97.35 168.6 98.0 170.5 98.65 171.15 98.9 170.9 98.55 170.45 97.95 169.6 96.75 169.2 96.15 169.05 95.95 168.7 95.45 167.65 94.1 167.45 93.85 167.25 93.6 165.7 91.15 164.1 88.45 163.1 86.75 162.05 84.85 160.9 82.95 159.8 81.05 158.65 79.15 157.55 77.35 155.5 74.05 153.95 71.35 154.25 71.1 155.1 72.05 156.1 73.25 158.55 76.35 160.0 78.25 163.0 82.35 164.6 84.45 169.0 89.95 170.1 91.25 172.25 93.9 172.7 94.55 173.35 95.0 174.0 95.55 173.95 96.4 173.95 97.45 174.0 97.9 173.95 99.35 173.95 99.5 173.7 101.55 173.35 103.95 173.1 105.75 172.55 109.25 172.55 109.5 172.15 111.75 171.35 116.35 170.85 118.45 170.2 120.8 170.1 121.55 170.05 122.25 169.8 124.35 169.6 125.85 168.95 130.45 168.75 132.0 168.45 133.85 168.35 135.0 167.5 136.15 167.3 136.45 165.8 138.55 163.85 141.35 163.7 141.55 163.55 141.75 162.5 143.15 160.75 145.5 160.4 146.0 160.35 146.15 160.1 147.55 159.65 149.35 159.1 151.55 158.1 155.2 156.9 156.25 154.6 157.95 154.5 158.05 154.4 157.65 154.15 156.85 153.8 155.8 153.5 155.15 151.55 152.6 150.0 151.1 149.25 150.4 148.35 149.65 146.4 148.1 145.4 147.4 144.85 147.05 144.65 146.9 142.7 145.7 M171.7 130.65 Q171.9 129.2 172.5 127.85 L173.55 124.95 Q173.8 124.25 174.2 123.7 L174.05 126.55 173.5 129.55 173.5 129.65 172.25 130.85 171.7 131.15 171.65 131.05 171.7 130.65" fill="#c00ac8" fill-rule="evenodd" stroke="none"/>
      <path d="M153.45 89.1 L153.4 90.05 153.0 93.95 152.8 94.95 152.7 95.35 151.75 98.35 151.6 98.75 151.55 98.9 151.15 99.9 149.45 100.65 145.9 102.0 143.6 102.65 143.1 102.8 142.0 102.85 139.65 102.7 138.0 102.3 138.1 100.6 138.2 100.25 138.2 100.1 138.8 98.3 140.55 94.95 141.55 93.35 141.75 93.05 144.1 89.65 145.1 88.35 146.65 86.4 147.4 85.65 149.15 86.05 151.9 87.7 153.45 89.1 M151.3 104.15 L151.0 105.5 150.9 106.0 148.8 108.0 147.75 108.8 146.7 107.55 146.35 106.9 145.8 105.7 145.35 104.7 145.25 104.35 146.45 103.4 Q147.35 102.7 148.35 102.3 L149.5 102.4 151.4 102.7 151.45 102.7 151.3 104.15" fill="#ffffff" fill-rule="evenodd" stroke="none"/>
      <path d="M135.8 121.45 L137.6 122.75 138.85 125.0 140.35 127.55 140.6 127.95 142.6 130.95 145.3 134.95 147.65 138.0 147.8 139.45 147.75 140.85 147.65 141.85 147.45 142.75 147.3 143.5 Q145.85 143.4 144.5 142.85 L144.3 142.8 143.25 142.4 142.5 141.45 142.2 141.05 139.85 138.1 137.85 135.5 135.75 132.45 133.85 129.35 133.6 128.85 132.55 126.7 132.4 126.35 132.5 125.25 132.85 122.65 132.9 122.25 133.35 120.35 133.4 120.3 Q134.65 120.65 135.8 121.45 M153.6 146.85 L153.7 147.8 154.0 149.7 154.0 149.95 153.9 149.9 153.6 149.8 Q152.2 149.4 151.0 148.7 L150.3 148.2 148.95 147.15 148.9 146.3 148.9 145.75 148.85 145.45 149.0 144.25 149.2 143.75 149.25 143.6 Q150.0 142.85 151.0 142.7 L152.8 144.15 153.1 144.45 153.2 144.55 153.3 144.95 153.6 146.85" fill="#e2c0ee" fill-rule="evenodd" stroke="none"/>
      <path d="M155.2 70.15 L160.5 75.75 162.5 77.95 166.5 82.55 168.45 85.0 171.5 88.95 173.85 90.65 Q176.1 92.25 178.25 94.0 L180.1 95.5 180.1 95.95 180.05 96.75 180.05 97.8 180.0 98.25 179.9 100.55 179.6 104.9 179.35 107.35 179.0 110.35 178.5 114.15 177.85 118.45 177.85 118.6 177.45 121.1 177.35 121.75 176.85 125.15 176.15 129.55 175.85 131.15 175.65 132.25 173.65 134.85 172.9 135.75 169.95 139.7 169.8 139.9 169.75 139.95 167.15 143.55 165.7 145.6 165.0 146.6 164.4 147.5 163.3 150.15 161.85 153.55 Q161.1 155.25 160.6 157.05 L158.95 158.85 Q156.5 161.5 153.45 163.45 L153.2 163.0 Q151.45 159.65 150.1 156.15 L149.55 154.75 146.9 152.55 146.6 152.35 144.9 151.05 144.85 151.0 141.5 148.65 140.95 148.3 138.35 146.5 136.4 145.15 136.3 145.1 135.9 144.0 134.25 139.8 131.4 132.7 130.2 129.5 128.75 125.35 128.5 124.55 127.25 120.5 127.55 119.95 128.95 116.75 129.6 114.25 129.5 112.7 129.2 109.75 128.1 103.4 127.85 101.8 127.7 100.5 131.5 95.35 134.1 91.85 136.9 87.95 139.95 84.0 147.75 74.2 149.7 71.95 153.2 68.25 155.05 70.0 155.2 70.15 Z" fill="none" stroke="#3bf5ff" stroke-linecap="round" stroke-linejoin="round" stroke-width="1.0"/>
    </g>
  </defs>
</svg>
