<?xml version="1.0" encoding="UTF-8" standalone="no"?>
<svg xmlns:ffdec="https://www.free-decompiler.com/flash" xmlns:xlink="http://www.w3.org/1999/xlink" ffdec:objectType="frame" height="30.1px" width="30.0px" xmlns="http://www.w3.org/2000/svg">
  <g transform="matrix(1.0, 0.0, 0.0, 1.0, 0.0, 0.0)">
    <use ffdec:characterId="1" height="30.0" transform="matrix(1.0, 0.0, 0.0, 1.0, 0.0, 0.0)" width="30.0" xlink:href="#shape0"/>
    <use ffdec:characterId="5" height="30.0" transform="matrix(1.0, 0.0, 0.0, 1.0, 0.0, 0.1)" width="30.0" xlink:href="#sprite0"/>
  </g>
  <defs>
    <g id="shape0" transform="matrix(1.0, 0.0, 0.0, 1.0, 0.0, 0.0)">
      <path d="M0.0 0.0 L30.0 0.0 30.0 30.0 0.0 30.0 0.0 0.0" fill="#33cc66" fill-opacity="0.0" fill-rule="evenodd" stroke="none"/>
    </g>
    <g id="sprite0" transform="matrix(1.0, 0.0, 0.0, 1.0, 0.0, 0.0)">
      <use ffdec:characterId="2" height="30.0" transform="matrix(1.0, 0.0, 0.0, 1.0, 0.0, 0.0)" width="30.0" xlink:href="#shape1"/>
      <use ffdec:characterId="4" height="153.45" transform="matrix(0.0556, 0.0, 0.0, 0.14, 2.8444, 5.66)" width="438.65" xlink:href="#sprite1"/>
    </g>
    <g id="shape1" transform="matrix(1.0, 0.0, 0.0, 1.0, 0.0, 0.0)">
      <path d="M26.7 0.0 Q30.0 0.0 30.0 3.3 L30.0 26.7 Q30.0 30.0 26.7 30.0 L3.3 30.0 Q0.0 30.0 0.0 26.7 L0.0 3.3 Q0.0 0.0 3.3 0.0 L26.7 0.0" fill="#5b6171" fill-rule="evenodd" stroke="none"/>
    </g>
    <g id="sprite1" transform="matrix(1.0, 0.0, 0.0, 1.0, 1.0, 1.0)">
      <use ffdec:characterId="3" height="153.45" transform="matrix(1.0, 0.0, 0.0, 1.0, -1.0, -1.0)" width="438.65" xlink:href="#shape2"/>
    </g>
    <g id="shape2" transform="matrix(1.0, 0.0, 0.0, 1.0, 1.0, 1.0)">
      <path d="M86.35 50.25 L87.7 52.15 90.15 56.1 91.45 58.05 95.8 65.05 Q99.8 67.35 104.0 69.5 L104.65 69.85 Q107.5 71.25 110.1 72.9 110.15 70.75 109.1 68.7 L107.4 65.0 107.4 64.95 Q104.15 57.6 103.3 49.7 102.9 46.15 103.6 42.9 104.3 40.0 105.7 37.3 L106.95 35.05 Q107.2 34.55 107.5 34.6 108.45 34.8 109.15 35.55 L109.8 36.2 Q114.35 41.05 118.35 46.4 L122.7 52.7 Q128.75 62.05 133.8 72.1 134.25 68.2 135.15 64.4 L135.4 63.95 Q136.6 64.2 137.1 65.6 L138.3 68.55 140.55 73.95 Q140.65 67.8 140.9 61.65 141.1 57.3 141.95 53.05 144.15 42.5 148.45 32.8 150.15 29.0 152.1 25.4 154.6 20.75 157.75 16.55 160.55 12.9 164.0 9.8 166.4 7.65 169.4 6.45 171.8 5.45 174.45 5.75 176.75 6.0 178.45 7.45 180.6 9.35 181.55 12.15 182.95 15.8 183.35 19.75 183.95 25.1 184.15 30.45 L184.6 41.55 184.9 48.1 Q189.0 42.7 193.65 37.7 194.8 36.4 196.25 35.6 L198.2 35.55 Q199.35 36.1 200.0 37.5 200.75 39.05 201.1 40.7 L201.35 41.75 Q202.8 48.85 201.0 55.9 200.35 58.5 200.05 62.3 L199.8 66.35 200.95 65.05 202.3 63.6 202.5 63.35 204.9 61.2 Q206.7 59.65 209.45 57.55 208.55 62.6 207.6 64.8 L207.25 65.85 207.1 66.4 206.6 68.0 206.45 68.8 Q206.5 69.45 207.45 68.6 L209.05 67.5 209.45 67.3 Q218.45 63.5 228.0 61.15 L228.8 60.95 229.55 59.55 Q231.65 55.9 234.2 52.7 238.0 48.05 242.3 43.95 246.8 39.6 251.8 35.8 256.4 32.2 261.35 28.95 267.8 24.75 275.45 23.1 278.35 22.5 277.45 25.35 276.7 27.45 275.4 29.3 L267.3 40.15 Q262.6 46.35 258.7 53.05 L257.25 55.4 253.9 60.4 263.2 55.85 Q267.5 53.85 271.9 52.3 L279.7 49.7 285.95 47.8 290.15 47.5 Q291.25 47.75 292.3 48.35 L292.45 48.45 Q293.15 48.9 292.85 49.6 292.15 51.3 290.9 52.6 285.05 58.2 280.55 64.9 L278.95 66.95 279.1 66.85 Q279.35 66.65 279.75 66.5 281.9 65.5 284.25 64.8 L287.5 63.8 285.5 65.45 280.65 69.2 276.75 72.75 Q281.55 70.5 286.65 68.3 290.45 66.7 294.3 65.05 297.45 63.7 300.8 62.8 L302.95 62.4 303.35 62.35 304.95 62.25 306.6 62.3 Q306.55 63.5 306.05 64.25 L305.35 65.15 Q304.45 65.95 303.8 66.85 L302.05 69.35 Q302.85 68.15 304.35 67.4 L306.6 66.2 Q308.2 65.4 309.85 64.75 L311.2 64.3 316.2 60.9 319.35 58.7 Q320.4 57.95 321.5 57.6 L324.8 57.3 324.65 58.45 329.65 55.1 334.4 52.15 Q337.65 50.25 341.15 48.7 L346.8 46.55 Q354.65 43.95 362.65 42.2 L364.35 41.9 367.7 41.5 368.1 42.3 Q368.35 43.05 368.1 43.75 367.5 45.25 366.45 46.55 L362.7 50.55 358.15 54.7 353.5 58.7 Q347.9 63.25 341.55 66.85 L337.15 69.25 335.3 70.25 333.95 71.0 332.95 71.55 338.05 70.8 342.65 70.05 348.05 69.15 351.75 68.8 Q353.85 68.65 355.55 69.85 L355.15 70.8 354.8 71.45 354.7 71.6 354.3 72.05 Q352.05 74.55 348.6 76.6 L346.3 78.05 343.0 80.3 340.55 81.7 337.35 83.4 327.6 88.55 339.5 85.15 339.6 85.1 340.6 84.8 343.15 84.35 345.0 84.1 348.1 83.7 Q349.8 83.6 351.0 84.65 349.9 86.4 347.55 88.45 L347.45 88.5 347.3 88.35 347.4 88.55 346.75 89.0 345.45 89.9 Q339.7 93.7 333.45 96.65 L333.4 96.7 330.35 98.15 Q324.95 100.45 319.4 102.2 312.65 104.4 305.65 105.85 L297.95 107.65 299.9 107.6 305.25 107.55 305.65 107.6 316.7 106.2 Q318.45 105.9 320.55 106.8 322.7 107.7 321.75 109.65 L320.85 110.25 317.0 112.55 Q310.7 116.0 304.25 119.05 L301.0 120.2 297.8 121.2 296.3 121.7 294.6 122.2 287.55 124.2 282.65 125.3 280.1 125.7 274.85 125.85 Q273.8 125.75 273.1 125.05 272.55 124.55 272.75 123.8 273.3 121.8 274.55 120.05 L275.8 118.5 277.15 117.9 278.7 117.2 Q280.8 116.25 282.75 115.1 285.35 113.55 288.0 112.7 L288.4 112.6 287.45 111.7 286.2 111.0 285.4 110.8 284.85 110.9 Q279.8 111.8 274.7 111.15 L265.45 110.05 261.15 109.45 258.5 108.9 254.8 107.85 253.5 107.25 253.25 107.6 252.65 108.5 Q250.45 111.95 247.65 114.85 242.05 119.05 235.8 122.05 228.7 125.4 221.25 127.5 214.15 129.45 206.8 129.65 L202.75 129.7 Q197.75 128.55 193.45 125.6 189.7 123.05 188.65 118.55 187.65 113.95 189.7 109.7 L191.6 105.95 191.45 106.1 Q188.75 108.15 185.8 109.85 179.6 113.5 172.6 113.6 L170.95 113.55 166.95 112.8 Q166.25 112.55 166.25 111.9 165.9 108.5 168.2 105.85 L162.65 107.95 157.5 109.8 147.5 112.4 140.0 114.15 Q136.75 114.8 133.7 115.95 L130.05 116.2 129.25 116.3 114.8 118.25 108.8 118.6 103.75 118.65 Q97.25 118.4 91.05 116.65 88.8 115.9 90.65 114.4 L91.45 113.75 Q93.75 112.6 96.05 111.6 L108.1 106.5 109.2 106.05 Q112.55 104.6 115.65 102.75 109.65 102.55 103.7 102.85 101.25 103.0 98.9 102.8 L93.4 103.3 88.0 103.55 87.95 103.55 Q81.35 103.75 74.95 102.45 L69.6 101.05 Q68.35 100.6 67.45 99.65 67.15 99.3 67.35 98.85 L67.65 98.25 85.75 94.2 92.25 93.15 90.4 92.5 80.1 88.85 73.3 86.3 66.6 83.6 57.6 80.15 Q53.35 78.7 49.45 76.65 46.7 75.2 44.25 73.55 L43.95 73.4 Q39.8 70.7 35.95 67.65 L28.4 61.4 24.55 57.5 22.3 54.7 Q21.5 53.75 20.85 52.6 20.2 51.5 20.1 50.2 L20.4 50.0 Q20.9 49.55 21.7 49.75 L23.75 50.05 24.75 50.25 25.6 50.45 Q28.8 51.15 31.95 52.25 L34.2 53.0 Q37.15 54.4 39.95 55.9 L48.3 60.35 52.3 62.6 52.85 62.9 54.45 63.85 53.95 63.15 54.85 63.75 60.2 67.35 Q59.5 65.8 59.65 64.0 L59.85 63.4 62.95 63.3 64.65 64.0 68.25 65.15 68.75 65.35 71.95 66.35 Q72.55 66.5 73.1 66.9 75.05 68.35 77.0 68.75 L76.65 68.3 75.5 67.3 71.25 63.0 69.15 60.95 62.55 54.3 61.3 53.2 57.15 49.2 55.5 47.45 54.45 46.35 Q50.3 42.05 46.7 37.35 L44.0 33.65 48.3 33.45 Q51.45 34.0 54.3 35.45 L58.95 38.3 60.6 39.45 61.2 40.0 Q64.25 42.5 66.95 45.35 71.1 49.7 74.3 54.8 L75.4 56.7 76.35 54.95 Q79.7 49.25 85.85 50.15 L86.35 50.25 M392.4 73.35 L395.25 71.55 397.95 69.65 Q399.7 68.4 401.5 67.25 407.15 63.6 413.15 60.45 L414.15 59.85 Q414.9 59.45 415.7 59.2 L416.55 58.85 Q417.4 58.2 418.6 58.2 L419.45 58.3 Q420.7 58.5 420.85 59.4 421.5 62.25 420.2 64.3 418.8 66.55 416.8 68.4 L416.2 68.9 415.55 69.55 406.35 78.1 405.75 78.7 405.25 79.3 404.8 79.95 404.2 80.45 Q403.7 80.85 403.35 81.65 405.3 80.15 407.85 80.15 409.05 80.15 409.3 81.4 409.55 82.65 409.2 83.7 405.6 84.7 401.85 84.95 L401.2 85.05 400.0 84.95 Q398.3 84.55 398.8 82.35 L399.5 80.25 400.6 77.65 400.4 77.8 400.5 77.45 400.15 77.9 399.2 78.2 393.0 80.1 390.7 80.65 390.6 80.65 Q388.85 81.0 388.6 79.7 388.6 79.25 388.75 78.95 L389.75 77.15 390.65 75.95 392.4 73.35 M140.95 145.35 L140.45 144.95 139.35 144.05 Q138.25 143.1 137.75 141.9 L137.5 140.55 137.6 140.05 139.4 139.55 142.4 139.85 143.6 140.05 145.2 140.15 Q145.85 140.25 146.3 140.6 147.45 140.25 148.6 141.3 L150.45 143.25 Q151.2 144.15 151.8 142.5 L151.55 142.05 151.25 141.55 Q150.15 140.6 150.25 138.35 L151.1 138.3 153.55 138.25 154.35 138.35 155.2 138.55 Q157.45 139.05 159.4 140.3 L160.4 141.95 Q160.65 142.5 160.55 143.05 L160.25 144.7 159.85 146.15 159.65 146.4 Q159.15 147.25 158.25 147.5 L157.5 147.75 Q155.4 148.55 153.2 148.5 151.6 148.4 150.0 147.9 L148.0 147.55 Q146.1 147.6 144.3 146.85 L140.95 145.35 M75.35 19.1 L75.15 18.6 75.05 18.3 Q74.4 16.45 75.4 14.55 L77.95 15.5 78.35 15.7 78.45 15.8 79.25 16.15 Q80.05 16.25 80.45 16.65 L81.15 17.25 82.25 18.5 82.05 19.2 Q81.6 20.85 79.95 20.8 L78.85 20.55 Q77.85 19.9 76.65 19.55 L75.35 19.1 M15.95 90.45 L16.2 89.55 Q16.35 89.2 16.75 89.05 18.85 88.4 20.85 89.0 22.3 89.35 23.65 90.5 25.55 92.0 26.9 93.7 L25.3 93.6 22.3 92.9 Q19.0 92.05 15.95 90.45" fill="#fefaf7" fill-rule="evenodd" stroke="none"/>
      <path d="M318.05 46.0 L321.05 45.0 Q322.85 44.45 322.55 46.15 L321.8 48.25 Q320.9 50.0 319.15 51.4 L318.05 52.2 315.95 54.15 318.85 53.45 320.8 53.15 Q323.85 52.8 326.5 54.2 323.75 55.5 321.05 56.95 L316.05 59.5 312.0 61.7 Q310.2 62.65 308.25 62.7 L308.35 61.95 308.6 61.05 Q309.15 59.05 310.0 57.1 310.9 55.15 312.1 53.3 313.8 50.7 315.85 48.35 L318.05 46.0 M377.8 38.25 Q377.6 40.1 376.85 41.9 373.8 49.1 368.15 54.6 L362.5 60.1 357.6 62.05 349.7 65.1 337.35 69.6 335.3 70.25 337.15 69.25 341.55 66.85 Q347.9 63.25 353.5 58.7 L358.15 54.7 359.9 53.55 Q366.55 49.2 372.5 44.05 375.55 41.5 377.8 38.25 M276.4 117.75 Q277.05 117.3 277.65 116.95 L276.95 117.2 276.15 117.45 267.2 120.6 262.5 122.15 261.05 122.65 267.05 117.3 267.65 116.8 Q269.5 115.7 268.4 114.2 L268.05 113.85 Q265.8 113.0 263.6 111.95 L259.9 109.9 Q259.15 109.5 258.5 108.9 L261.15 109.45 265.45 110.05 274.7 111.15 Q279.8 111.8 284.85 110.9 L285.4 110.8 286.2 111.0 287.45 111.7 288.4 112.6 288.0 112.7 Q285.35 113.55 282.75 115.1 280.8 116.25 278.7 117.2 L277.15 117.9 276.05 118.25 276.4 117.75 M189.45 134.95 L188.1 134.75 Q183.65 134.7 179.8 132.9 L177.45 131.7 Q174.1 129.6 175.0 125.8 L175.3 124.45 176.6 123.35 Q180.75 120.1 184.2 116.1 185.35 114.7 186.6 114.05 184.2 117.45 183.55 121.8 183.3 123.8 183.65 125.9 184.65 132.05 189.45 134.95 M161.7 117.55 L158.05 118.7 153.35 120.1 144.95 121.5 Q150.6 119.95 155.6 116.95 L155.65 116.95 Q157.5 115.8 159.4 115.05 L163.55 113.15 Q163.85 113.55 162.9 115.3 L161.7 117.55 M92.15 113.15 L92.75 113.1 92.45 112.85 Q90.1 111.8 87.0 110.0 L85.35 110.15 83.35 110.25 82.05 110.3 85.4 110.0 93.7 108.85 103.2 107.2 107.7 106.3 109.2 106.05 108.1 106.5 96.05 111.6 Q93.75 112.6 91.45 113.75 L92.15 113.15 M71.75 94.05 L75.3 93.45 70.35 91.8 62.85 89.05 56.35 86.2 54.65 85.45 56.8 86.05 69.05 89.6 71.2 90.15 Q77.8 91.8 84.55 92.45 L85.65 92.55 78.75 93.9 73.4 94.1 71.75 94.05 M45.85 80.7 L43.65 79.4 41.45 77.95 34.1 73.05 Q28.85 69.5 23.95 65.55 18.8 61.45 14.05 56.95 9.5 52.6 5.45 47.9 2.5 44.25 0.05 40.25 L0.0 40.15 3.35 41.1 14.35 44.65 Q20.75 46.9 26.9 49.6 L31.6 51.75 25.6 50.45 24.75 50.25 23.75 50.05 21.7 49.75 Q20.9 49.55 20.4 50.0 L20.1 50.05 19.8 50.15 19.75 50.55 Q19.75 51.0 20.1 51.6 L20.85 52.6 Q21.5 53.75 22.3 54.7 L24.55 57.5 25.45 58.85 Q29.5 65.05 34.8 70.15 L38.5 73.85 41.95 77.2 45.85 80.7 M62.8 60.45 L55.35 54.65 52.1 51.9 51.7 51.55 Q48.45 48.75 45.55 45.7 L39.65 38.85 Q36.0 34.25 34.1 28.75 34.95 26.3 38.25 26.1 L39.85 26.1 Q40.65 28.65 42.15 30.9 L44.0 33.65 46.7 37.35 Q50.3 42.05 54.45 46.35 L55.5 47.45 57.15 49.2 61.3 53.2 62.55 54.3 69.15 60.95 71.25 63.0 75.5 67.3 74.5 66.65 62.8 60.45 M408.8 21.7 L412.85 20.9 415.6 20.35 417.55 19.9 417.0 20.25 415.8 20.95 409.0 24.45 407.05 25.45 404.7 26.55 400.05 28.35 395.8 29.55 Q393.45 30.05 393.4 28.3 393.45 26.6 394.55 25.4 L396.75 23.05 398.0 23.45 399.6 23.6 399.85 23.6 403.7 23.3 404.25 23.2 406.6 22.8 408.8 21.7 M393.95 85.3 L393.35 85.3 392.6 85.6 390.9 86.75 388.85 87.95 Q386.8 89.1 383.8 88.8 L380.55 88.35 380.1 88.3 379.1 87.8 378.8 87.35 378.55 86.9 378.05 85.9 382.65 85.35 Q386.8 84.3 390.75 82.8 394.05 81.5 397.15 79.85 L399.25 78.55 400.15 77.9 400.4 77.8 399.45 79.4 396.4 82.85 393.95 85.3 M177.9 142.25 L178.2 142.25 183.85 141.7 184.6 141.05 184.75 140.75 185.05 140.9 Q187.2 142.1 186.65 144.5 L186.35 144.9 183.45 144.85 182.3 144.65 Q180.3 144.0 178.5 142.75 L177.9 142.25" fill="#7dd4f2" fill-rule="evenodd" stroke="none"/>
      <path d="M370.1 16.1 L370.4 15.6 Q371.15 14.45 371.95 13.6 L373.6 11.85 Q374.35 11.35 375.2 11.0 L375.7 10.95 376.05 10.85 378.1 10.65 379.35 10.5 382.2 10.25 Q383.65 10.05 383.8 11.25 L383.6 11.95 383.55 12.1 383.1 12.6 381.6 14.0 380.95 14.6 378.85 16.2 374.15 17.55 Q372.4 17.8 370.8 17.05 370.25 16.75 370.1 16.1 M429.1 0.5 L429.6 1.55 429.55 2.35 429.05 3.5 Q428.3 6.55 425.95 9.35 421.4 14.85 415.05 18.35 L413.2 19.2 409.8 21.1 408.8 21.7 406.6 22.8 404.25 23.2 403.7 23.3 399.85 23.6 399.6 23.6 398.0 23.45 396.75 23.05 399.75 20.25 403.1 17.3 Q404.75 15.95 406.5 14.75 L412.45 10.65 420.15 5.95 422.9 4.05 Q425.45 1.9 428.35 0.65 L429.1 0.5" fill="#ebe7e2" fill-rule="evenodd" stroke="none"/>
      <path d="M287.5 63.8 L288.95 63.3 291.55 62.4 Q308.35 50.5 315.2 47.2 L316.85 46.45 318.05 46.0 315.85 48.35 Q313.8 50.7 312.1 53.3 310.9 55.15 310.0 57.1 309.15 59.05 308.6 61.05 L308.35 61.95 308.25 62.7 Q310.2 62.65 312.0 61.7 L316.05 59.5 321.05 56.95 Q323.75 55.5 326.5 54.2 L326.8 54.4 327.6 55.35 327.7 55.55 329.3 54.5 Q332.15 52.4 335.25 50.55 L335.4 50.5 Q341.8 46.45 348.75 43.35 352.15 41.8 355.7 40.6 L359.05 39.5 Q364.2 37.95 369.4 36.85 L373.15 36.15 377.65 35.8 Q377.9 36.75 377.8 37.9 L377.8 38.25 Q375.55 41.5 372.5 44.05 366.55 49.2 359.9 53.55 L358.15 54.7 362.7 50.55 366.45 46.55 Q367.5 45.25 368.1 43.75 368.35 43.05 368.1 42.3 L367.7 41.5 364.35 41.9 362.65 42.2 Q354.65 43.95 346.8 46.55 L341.15 48.7 Q337.65 50.25 334.4 52.15 L329.65 55.1 324.65 58.45 324.8 57.3 321.5 57.6 Q320.4 57.95 319.35 58.7 L316.2 60.9 311.2 64.3 309.85 64.75 Q308.2 65.4 306.6 66.2 L304.35 67.4 Q302.85 68.15 302.05 69.35 L303.8 66.85 Q304.45 65.95 305.35 65.15 L306.05 64.25 Q306.55 63.5 306.6 62.3 L304.95 62.25 303.35 62.35 302.95 62.4 300.8 62.8 Q297.45 63.7 294.3 65.05 290.45 66.7 286.65 68.3 281.55 70.5 276.75 72.75 L280.65 69.2 285.5 65.45 287.5 63.8 M362.5 60.1 L361.7 60.9 359.35 63.0 360.5 63.05 367.1 62.95 Q370.25 62.85 369.95 65.7 L369.7 66.75 369.4 67.2 Q364.5 73.45 358.1 78.55 L355.45 80.4 360.15 79.4 366.35 78.75 Q366.6 79.8 365.9 80.4 L365.55 80.9 365.1 81.65 Q364.85 82.5 364.1 83.15 L363.05 84.15 361.55 85.5 Q357.05 89.25 352.3 92.7 L350.5 94.1 Q350.0 94.4 349.45 94.75 L346.1 96.3 341.65 98.25 334.05 101.4 332.15 102.1 324.4 104.95 327.35 105.05 Q331.1 105.25 332.15 105.85 L332.45 106.05 332.4 106.45 Q332.9 107.1 332.4 107.5 L332.25 107.7 332.1 107.95 331.35 108.5 330.85 108.75 330.1 109.3 Q328.35 110.75 326.2 111.75 L324.85 112.35 323.05 113.35 322.35 113.85 321.8 114.35 320.45 115.4 Q317.95 117.35 315.15 118.9 L311.25 120.85 309.65 121.6 309.15 122.0 307.05 122.9 306.35 123.25 305.65 123.5 Q305.15 123.65 304.7 123.9 L300.65 125.55 299.95 125.75 296.9 126.95 291.0 128.9 Q285.4 130.75 279.55 131.85 L277.9 132.1 268.1 131.8 Q266.7 131.5 265.75 130.9 265.75 129.25 266.5 127.7 268.55 123.5 272.2 120.9 L274.6 119.05 275.8 118.5 274.55 120.05 Q273.3 121.8 272.75 123.8 272.55 124.55 273.1 125.05 273.8 125.75 274.85 125.85 L280.1 125.7 282.65 125.3 287.55 124.2 294.6 122.2 296.3 121.7 297.8 121.2 301.0 120.2 304.25 119.05 Q310.7 116.0 317.0 112.55 L320.85 110.25 321.75 109.65 Q322.7 107.7 320.55 106.8 318.45 105.9 316.7 106.2 L305.65 107.6 305.25 107.55 299.9 107.6 297.95 107.65 305.65 105.85 Q312.65 104.4 319.4 102.2 324.95 100.45 330.35 98.15 L333.4 96.7 333.45 96.65 Q339.7 93.7 345.45 89.9 L347.4 88.55 347.45 88.5 347.55 88.45 Q349.9 86.4 351.0 84.65 349.8 83.6 348.1 83.7 L345.0 84.1 343.15 84.35 340.6 84.8 339.5 85.05 339.5 85.15 327.6 88.55 337.35 83.4 340.55 81.7 343.0 80.3 346.3 78.05 348.6 76.6 Q352.05 74.55 354.3 72.05 L354.7 71.6 354.8 71.45 355.15 70.8 355.55 69.85 Q353.85 68.65 351.75 68.8 L348.05 69.15 342.65 70.05 338.05 70.8 332.95 71.55 333.95 71.0 335.3 70.25 337.35 69.6 349.7 65.1 357.6 62.05 362.5 60.1 M261.05 122.65 L253.45 124.95 249.25 126.25 243.4 127.8 237.5 129.4 233.55 130.25 223.6 132.5 214.45 134.25 206.3 135.2 Q200.15 135.75 193.95 135.5 L189.45 134.95 Q184.65 132.05 183.65 125.9 183.3 123.8 183.55 121.8 184.2 117.45 186.6 114.05 185.35 114.7 184.2 116.1 180.75 120.1 176.6 123.35 L175.3 124.45 175.4 124.1 Q173.85 124.85 172.7 125.2 169.05 126.35 166.5 126.15 163.9 125.9 162.4 124.9 161.75 124.55 161.5 124.0 L161.4 123.3 Q161.2 120.0 163.05 117.1 L161.7 117.55 162.9 115.3 Q163.85 113.55 163.55 113.15 L159.4 115.05 Q157.5 115.8 155.65 116.95 L155.6 116.95 Q150.6 119.95 144.95 121.5 L143.95 121.65 133.7 122.85 121.05 124.55 120.0 124.55 Q111.7 124.75 103.4 124.3 L91.3 123.25 Q88.4 122.9 86.1 121.3 85.2 120.7 85.05 119.95 84.75 117.75 86.95 116.4 L88.8 115.05 88.9 115.0 Q90.2 114.3 91.45 113.75 L90.65 114.4 Q88.8 115.9 91.05 116.65 97.25 118.4 103.75 118.65 L108.8 118.6 114.8 118.25 129.25 116.3 130.05 116.2 133.7 115.95 Q136.75 114.8 140.0 114.15 L147.5 112.4 157.5 109.8 162.65 107.95 168.2 105.85 Q165.9 108.5 166.25 111.9 166.25 112.55 166.95 112.8 L170.95 113.55 172.6 113.6 Q179.6 113.5 185.8 109.85 188.75 108.15 191.45 106.1 L191.6 105.95 189.7 109.7 Q187.65 113.95 188.65 118.55 189.7 123.05 193.45 125.6 197.75 128.55 202.75 129.7 L206.8 129.65 Q214.15 129.45 221.25 127.5 228.7 125.4 235.8 122.05 242.05 119.05 247.65 114.85 250.45 111.95 252.65 108.5 L253.25 107.6 253.5 107.25 254.8 107.85 258.5 108.9 Q259.15 109.5 259.9 109.9 L263.6 111.95 Q265.8 113.0 268.05 113.85 L268.4 114.2 Q269.5 115.7 267.65 116.8 L267.05 117.3 261.05 122.65 M82.05 110.3 Q75.85 110.4 69.8 109.1 L62.3 107.05 61.4 106.7 Q58.55 105.75 56.25 103.9 55.1 102.95 55.45 102.1 56.85 98.05 61.45 96.95 L67.6 95.25 68.7 94.9 71.75 94.05 73.4 94.1 78.75 93.9 85.65 92.55 84.55 92.45 Q77.8 91.8 71.2 90.15 L69.05 89.6 56.8 86.05 54.65 85.45 Q51.35 83.95 48.25 82.15 L45.85 80.7 41.95 77.2 38.5 73.85 34.8 70.15 Q29.5 65.05 25.45 58.85 L24.55 57.5 28.4 61.4 35.95 67.65 Q39.8 70.7 43.95 73.4 L44.25 73.55 Q46.7 75.2 49.45 76.65 53.35 78.7 57.6 80.15 L66.6 83.6 73.3 86.3 80.1 88.85 90.4 92.5 92.25 93.15 85.75 94.2 67.65 98.25 67.35 98.85 Q67.15 99.3 67.45 99.65 68.35 100.6 69.6 101.05 L74.95 102.45 Q81.35 103.75 87.95 103.55 L88.0 103.55 93.4 103.3 98.9 102.8 Q101.25 103.0 103.7 102.85 109.65 102.55 115.65 102.75 112.55 104.6 109.2 106.05 L107.7 106.3 103.2 107.2 93.7 108.85 85.4 110.0 82.05 110.3 M53.95 63.15 L53.15 61.95 51.85 59.95 Q51.35 59.05 51.25 58.05 51.2 57.4 51.4 57.3 L53.95 57.2 54.5 57.4 58.55 59.0 65.65 62.55 63.3 60.85 62.8 60.45 74.5 66.65 75.5 67.3 76.65 68.3 77.0 68.75 Q75.05 68.35 73.1 66.9 72.55 66.5 71.95 66.35 L68.75 65.35 68.25 65.15 64.65 64.0 62.95 63.3 59.85 63.4 59.65 64.0 Q59.5 65.8 60.2 67.35 L54.85 63.75 53.95 63.15 M39.85 26.1 Q46.0 26.05 51.8 28.85 L59.1 32.45 61.6 33.85 62.5 34.5 Q65.05 36.3 67.25 38.6 L71.05 43.0 Q73.55 45.95 74.9 49.45 L75.0 49.65 Q75.4 48.0 76.4 46.45 76.95 45.65 77.8 45.6 79.2 45.5 80.6 46.05 84.05 47.45 86.35 50.25 L85.85 50.15 Q79.7 49.25 76.35 54.95 L75.4 56.7 74.3 54.8 Q71.1 49.7 66.95 45.35 64.25 42.5 61.2 40.0 L60.6 39.45 58.95 38.3 54.3 35.45 Q51.45 34.0 48.3 33.45 L44.0 33.65 42.15 30.9 Q40.65 28.65 39.85 26.1 M370.1 16.1 Q370.25 16.75 370.8 17.05 372.4 17.8 374.15 17.55 L378.85 16.2 377.45 17.1 376.4 17.85 373.0 20.15 370.1 21.75 367.55 22.0 Q367.9 20.1 368.55 18.4 L368.9 17.95 Q369.65 17.2 370.0 16.25 L370.1 16.1 M429.1 0.5 L433.9 0.0 Q437.15 0.0 436.55 3.35 L436.35 4.25 435.0 7.0 434.45 7.6 Q433.8 7.9 433.55 8.5 432.65 10.2 430.75 11.4 426.65 13.95 422.8 16.6 L417.55 19.9 415.6 20.35 412.85 20.9 408.8 21.7 409.8 21.1 413.2 19.2 415.05 18.35 Q421.4 14.85 425.95 9.35 428.3 6.55 429.05 3.5 L429.55 2.35 429.6 1.55 429.1 0.5 M409.2 83.7 L408.95 84.2 Q406.8 88.0 402.35 90.8 L401.95 91.1 400.95 91.65 395.6 94.55 392.3 95.6 391.75 95.75 390.65 95.85 Q389.45 95.9 389.6 94.5 L389.65 93.65 Q389.6 91.85 390.55 90.55 L391.1 89.65 392.95 86.85 393.35 86.35 394.15 85.5 393.95 85.3 396.4 82.85 399.45 79.4 400.4 77.8 400.6 77.65 399.5 80.25 398.8 82.35 Q398.3 84.55 400.0 84.95 L401.2 85.05 401.85 84.95 Q405.6 84.7 409.2 83.7 M378.05 85.9 Q377.45 84.55 377.9 82.8 L378.45 80.7 378.55 80.2 Q380.7 76.6 383.7 74.55 L385.0 73.4 Q385.5 72.9 386.55 72.75 L387.55 72.4 388.2 72.45 Q388.9 72.75 388.75 73.5 L388.65 74.35 388.2 75.8 388.05 76.1 387.85 76.8 387.6 77.05 387.6 77.2 Q387.7 78.0 388.65 76.8 389.45 75.5 390.7 74.6 L392.3 73.4 392.4 73.35 390.65 75.95 389.75 77.15 388.75 78.95 Q388.6 79.25 388.6 79.7 388.85 81.0 390.6 80.65 L390.7 80.65 393.0 80.1 399.2 78.2 400.15 77.9 399.25 78.55 397.15 79.85 Q394.05 81.5 390.75 82.8 386.8 84.3 382.65 85.35 L378.05 85.9 M388.2 75.8 L388.2 74.75 388.2 75.8 M332.15 105.85 L332.4 106.45 332.15 105.85 M309.65 121.6 L307.05 122.9 309.65 121.6 M140.95 145.35 L144.3 146.85 Q146.1 147.6 148.0 147.55 L150.0 147.9 Q151.6 148.4 153.2 148.5 155.4 148.55 157.5 147.75 L158.25 147.5 Q159.15 147.25 159.65 146.4 L159.85 146.15 160.25 144.7 160.55 143.05 Q160.65 142.5 160.4 141.95 L159.4 140.3 Q160.25 140.8 160.95 141.4 L161.5 142.0 164.05 145.7 164.4 146.45 Q164.65 148.0 164.4 149.1 L163.6 150.55 162.7 151.1 160.3 151.45 155.35 150.9 154.0 150.5 153.7 150.45 Q146.55 149.55 140.95 145.35 M177.9 142.25 Q177.0 141.25 177.75 140.1 L178.35 139.6 180.6 138.95 180.7 139.0 181.5 139.35 Q183.25 139.85 184.75 140.75 L184.6 141.05 183.85 141.7 178.2 142.25 177.9 142.25 M75.35 19.1 L76.65 19.55 Q77.85 19.9 78.85 20.55 L79.95 20.8 Q81.6 20.85 82.05 19.2 L82.25 18.5 82.5 18.75 Q83.65 19.9 83.3 21.7 L83.0 22.9 Q82.75 23.65 81.95 23.55 L81.15 23.5 Q79.75 23.4 78.7 22.75 L77.8 22.05 Q76.25 20.85 75.35 19.1 M26.9 93.7 L28.75 96.75 28.95 97.4 Q28.75 97.75 28.05 97.7 L24.25 96.85 24.05 96.8 Q20.75 95.85 18.25 93.6 L16.75 92.25 Q15.9 91.45 15.95 90.45 19.0 92.05 22.3 92.9 L25.3 93.6 26.9 93.7" fill="#c5f5ff" fill-rule="evenodd" stroke="none"/>
      <path d="M86.35 50.25 L87.7 52.15 90.15 56.1 91.45 58.05 95.8 65.05 Q99.8 67.35 104.0 69.5 L104.65 69.85 Q107.5 71.25 110.1 72.9 110.15 70.75 109.1 68.7 L107.4 65.0 107.4 64.95 Q104.15 57.6 103.3 49.7 102.9 46.15 103.6 42.9 104.3 40.0 105.7 37.3 L106.95 35.05 Q107.2 34.55 107.5 34.6 108.45 34.8 109.15 35.55 L109.8 36.2 Q114.35 41.05 118.35 46.4 L122.7 52.7 Q128.75 62.05 133.8 72.1 134.25 68.2 135.15 64.4 L135.4 63.95 Q136.6 64.2 137.1 65.6 L138.3 68.55 140.55 73.95 Q140.65 67.8 140.9 61.65 141.1 57.3 141.95 53.05 144.15 42.5 148.45 32.8 150.15 29.0 152.1 25.4 154.6 20.75 157.75 16.55 160.55 12.9 164.0 9.8 166.4 7.65 169.4 6.45 171.8 5.45 174.45 5.75 176.75 6.0 178.45 7.45 180.6 9.35 181.55 12.15 182.95 15.8 183.35 19.75 183.95 25.1 184.15 30.45 L184.6 41.55 184.9 48.1 Q189.0 42.7 193.65 37.7 194.8 36.4 196.25 35.6 L198.2 35.55 Q199.35 36.1 200.0 37.5 200.75 39.05 201.1 40.7 L201.35 41.75 Q202.8 48.85 201.0 55.9 200.35 58.5 200.05 62.3 L199.8 66.35 200.95 65.05 202.3 63.6 202.5 63.35 204.9 61.2 Q206.7 59.65 209.45 57.55 208.55 62.6 207.6 64.8 L207.25 65.85 207.1 66.4 206.6 68.0 206.45 68.8 Q206.5 69.45 207.45 68.6 L209.05 67.5 209.45 67.3 Q218.45 63.5 228.0 61.15 L228.8 60.95 229.55 59.55 Q231.65 55.9 234.2 52.7 238.0 48.05 242.3 43.95 246.8 39.6 251.8 35.8 256.4 32.2 261.35 28.95 267.8 24.75 275.45 23.1 278.35 22.5 277.45 25.35 276.7 27.45 275.4 29.3 L267.3 40.15 Q262.6 46.35 258.7 53.05 L257.25 55.4 253.9 60.4 263.2 55.85 Q267.5 53.85 271.9 52.3 L279.7 49.7 285.95 47.8 290.15 47.5 Q291.25 47.75 292.3 48.35 L292.45 48.45 Q293.15 48.9 292.85 49.6 292.15 51.3 290.9 52.6 285.05 58.2 280.55 64.9 L278.95 66.95 279.1 66.85 Q279.35 66.65 279.75 66.5 281.9 65.5 284.25 64.8 L287.5 63.8 288.95 63.3 291.55 62.4 Q308.35 50.5 315.2 47.2 L316.85 46.45 318.05 46.0 321.05 45.0 Q322.85 44.45 322.55 46.15 L321.8 48.25 Q320.9 50.0 319.15 51.4 L318.05 52.2 315.95 54.15 318.85 53.45 320.8 53.15 Q323.85 52.8 326.5 54.2 L326.8 54.4 327.6 55.35 327.7 55.55 329.3 54.5 Q332.15 52.4 335.25 50.55 L335.4 50.5 Q341.8 46.45 348.75 43.35 352.15 41.8 355.7 40.6 L359.05 39.5 Q364.2 37.95 369.4 36.85 L373.15 36.15 377.65 35.8 Q377.9 36.75 377.8 37.9 L377.8 38.25 Q377.6 40.1 376.85 41.9 373.8 49.1 368.15 54.6 L362.5 60.1 361.7 60.9 359.35 63.0 360.5 63.05 367.1 62.95 Q370.25 62.85 369.95 65.7 L369.7 66.75 369.4 67.2 Q364.5 73.45 358.1 78.55 L355.45 80.4 360.15 79.4 366.35 78.75 Q366.6 79.8 365.9 80.4 L365.55 80.9 365.1 81.65 Q364.85 82.5 364.1 83.15 L363.05 84.15 361.55 85.5 Q357.05 89.25 352.3 92.7 L350.5 94.1 Q350.0 94.4 349.45 94.75 L346.1 96.3 341.65 98.25 334.05 101.4 332.15 102.1 324.4 104.95 327.35 105.05 Q331.1 105.25 332.15 105.85 L332.45 106.05 M332.4 106.45 Q332.9 107.1 332.4 107.5 L332.25 107.7 332.1 107.95 331.35 108.5 330.85 108.75 330.1 109.3 Q328.35 110.75 326.2 111.75 L324.85 112.35 323.05 113.35 322.35 113.85 321.8 114.35 320.45 115.4 Q317.95 117.35 315.15 118.9 L311.25 120.85 309.65 121.6 309.15 122.0 307.05 122.9 305.45 123.75 304.7 123.9 300.65 125.55 299.95 125.75 296.9 126.95 291.0 128.9 Q285.4 130.75 279.55 131.85 L277.9 132.1 268.1 131.8 Q266.7 131.5 265.75 130.9 265.75 129.25 266.5 127.7 268.55 123.5 272.2 120.9 L274.6 119.05 275.55 118.4 276.4 117.75 Q277.05 117.3 277.65 116.95 L276.95 117.2 276.15 117.45 267.2 120.6 262.5 122.15 261.05 122.65 253.45 124.95 249.25 126.25 243.4 127.8 237.5 129.4 233.55 130.25 223.6 132.5 214.45 134.25 206.3 135.2 Q200.15 135.75 193.95 135.5 L189.45 134.95 188.1 134.75 Q183.65 134.7 179.8 132.9 L177.45 131.7 Q174.1 129.6 175.0 125.8 L175.3 124.45 175.4 124.1 Q173.85 124.85 172.7 125.2 169.05 126.35 166.5 126.15 163.9 125.9 162.4 124.9 161.75 124.55 161.5 124.0 L161.4 123.3 Q161.2 120.0 163.05 117.1 L161.7 117.55 158.05 118.7 153.35 120.1 144.95 121.5 143.95 121.65 133.7 122.85 121.05 124.55 120.0 124.55 Q111.7 124.75 103.4 124.3 L91.3 123.25 Q88.4 122.9 86.1 121.3 85.2 120.7 85.05 119.95 84.75 117.75 86.95 116.4 L88.8 115.05 88.9 115.0 Q90.55 113.5 92.15 113.15 L92.75 113.1 92.45 112.85 Q90.1 111.8 87.0 110.0 L85.35 110.15 83.35 110.25 82.05 110.3 Q75.85 110.4 69.8 109.1 L62.3 107.05 61.4 106.7 Q58.55 105.75 56.25 103.9 55.1 102.95 55.45 102.1 56.85 98.05 61.45 96.95 L67.6 95.25 68.7 94.9 71.75 94.05 75.3 93.45 70.35 91.8 62.85 89.05 56.35 86.2 54.65 85.45 Q51.35 83.95 48.25 82.15 L45.85 80.7 43.65 79.4 41.45 77.95 34.1 73.05 Q28.85 69.5 23.95 65.55 18.8 61.45 14.05 56.95 9.5 52.6 5.45 47.9 2.5 44.25 0.05 40.25 L0.0 40.15 3.35 41.1 14.35 44.65 Q20.75 46.9 26.9 49.6 L31.6 51.75 34.2 53.0 Q37.15 54.4 39.95 55.9 L48.3 60.35 52.3 62.6 52.85 62.9 54.45 63.85 53.95 63.15 53.15 61.95 51.85 59.95 Q51.35 59.05 51.25 58.05 51.2 57.4 51.4 57.3 L53.95 57.2 54.5 57.4 58.55 59.0 65.65 62.55 63.3 60.85 62.8 60.45 55.35 54.65 52.1 51.9 51.7 51.55 Q48.45 48.75 45.55 45.7 L39.65 38.85 Q36.0 34.25 34.1 28.75 34.95 26.3 38.25 26.1 L39.85 26.1 Q46.0 26.05 51.8 28.85 L59.1 32.45 61.6 33.85 62.5 34.5 Q65.05 36.3 67.25 38.6 L71.05 43.0 Q73.55 45.95 74.9 49.45 L75.0 49.65 Q75.4 48.0 76.4 46.45 76.95 45.65 77.8 45.6 79.2 45.5 80.6 46.05 84.05 47.45 86.35 50.25 M378.85 16.2 L380.95 14.6 381.6 14.0 383.1 12.6 383.55 12.1 383.6 11.95 383.8 11.25 Q383.65 10.05 382.2 10.25 L379.35 10.5 378.1 10.65 376.05 10.85 375.7 10.95 375.2 11.0 Q374.35 11.35 373.6 11.85 L371.95 13.6 Q371.15 14.45 370.4 15.6 L370.1 16.1 370.0 16.25 Q369.65 17.2 368.9 17.95 L368.55 18.4 Q367.9 20.1 367.55 22.0 L370.1 21.75 373.0 20.15 376.4 17.85 377.45 17.1 378.85 16.2 M417.55 19.9 L422.8 16.6 Q426.65 13.95 430.75 11.4 432.65 10.2 433.55 8.5 433.8 7.9 434.45 7.6 L435.0 7.0 436.35 4.25 436.55 3.35 Q437.15 0.0 433.9 0.0 L429.1 0.5 428.35 0.65 Q425.45 1.9 422.9 4.05 L420.15 5.95 412.45 10.65 406.5 14.75 Q404.75 15.95 403.1 17.3 L399.75 20.25 396.75 23.05 394.55 25.4 Q393.45 26.6 393.4 28.3 393.45 30.05 395.8 29.55 L400.05 28.35 404.7 26.55 407.05 25.45 409.0 24.45 415.8 20.95 417.0 20.25 417.55 19.9 M392.4 73.35 L395.25 71.55 397.95 69.65 Q399.7 68.4 401.5 67.25 407.15 63.6 413.15 60.45 L414.15 59.85 Q414.9 59.45 415.7 59.2 L416.55 58.85 Q417.4 58.2 418.6 58.2 L419.45 58.3 Q420.7 58.5 420.85 59.4 421.5 62.25 420.2 64.3 418.8 66.55 416.8 68.4 L416.2 68.9 415.55 69.55 406.35 78.1 405.75 78.7 405.25 79.3 404.8 79.95 404.2 80.45 Q403.7 80.85 403.35 81.65 405.3 80.15 407.85 80.15 409.05 80.15 409.3 81.4 409.55 82.65 409.2 83.7 L408.95 84.2 Q406.8 88.0 402.35 90.8 L401.95 91.1 400.95 91.65 395.6 94.55 392.3 95.6 391.75 95.75 390.65 95.85 Q389.45 95.9 389.6 94.5 L389.65 93.65 Q389.6 91.85 390.55 90.55 L391.1 89.65 392.95 86.85 393.35 86.35 394.15 85.5 393.95 85.3 393.35 85.3 392.6 85.6 390.9 86.75 388.85 87.95 Q386.8 89.1 383.8 88.8 L380.55 88.35 380.1 88.3 379.1 87.8 378.8 87.35 378.55 86.9 378.05 85.9 Q377.45 84.55 377.9 82.8 L378.45 80.7 378.55 80.2 Q380.7 76.6 383.7 74.55 L385.0 73.4 Q385.5 72.9 386.55 72.75 L387.55 72.4 388.2 72.45 Q388.9 72.75 388.75 73.5 L388.65 74.35 388.2 75.8 387.85 76.8 387.6 77.05 387.6 77.2 Q387.7 78.0 388.65 76.8 389.45 75.5 390.7 74.6 L392.3 73.4 392.4 73.35 M388.2 75.8 L388.05 76.1 387.85 76.8 M388.2 74.75 L388.2 75.8 M332.4 106.45 L332.15 105.85 M304.7 123.9 Q305.15 123.65 305.65 123.5 L306.35 123.25 307.05 122.9 309.65 121.6 M159.4 140.3 Q157.45 139.05 155.2 138.55 L154.35 138.35 153.55 138.25 151.1 138.3 150.25 138.35 Q150.15 140.6 151.25 141.55 L151.55 142.05 151.8 142.5 Q151.2 144.15 150.45 143.25 L148.6 141.3 Q147.45 140.25 146.3 140.6 145.85 140.25 145.2 140.15 L143.6 140.05 142.4 139.85 139.4 139.55 137.6 140.05 137.5 140.55 137.75 141.9 Q138.25 143.1 139.35 144.05 L140.45 144.95 140.95 145.35 Q146.55 149.55 153.7 150.45 L154.0 150.5 155.35 150.9 160.3 151.45 162.7 151.1 163.6 150.55 164.4 149.1 Q164.65 148.0 164.4 146.45 L164.05 145.7 161.5 142.0 160.95 141.4 Q160.25 140.8 159.4 140.3 M184.75 140.75 Q183.25 139.85 181.5 139.35 L180.7 139.0 180.6 138.95 178.35 139.6 177.75 140.1 Q177.0 141.25 177.9 142.25 L178.5 142.75 Q180.3 144.0 182.3 144.65 L183.45 144.85 186.35 144.9 186.65 144.5 Q187.2 142.1 185.05 140.9 L184.75 140.75 M82.25 18.5 L81.15 17.25 80.45 16.65 Q80.05 16.25 79.25 16.15 L78.45 15.8 78.35 15.7 77.95 15.5 75.4 14.55 Q74.4 16.45 75.05 18.3 L75.15 18.6 75.35 19.1 Q76.25 20.85 77.8 22.05 L78.7 22.75 Q79.75 23.4 81.15 23.5 L81.95 23.55 Q82.75 23.65 83.0 22.9 L83.3 21.7 Q83.65 19.9 82.5 18.75 L82.25 18.5 M26.9 93.7 L28.75 96.75 28.95 97.4 Q28.75 97.75 28.05 97.7 L24.25 96.85 24.05 96.8 Q20.75 95.85 18.25 93.6 L16.75 92.25 Q15.9 91.45 15.95 90.45 L16.2 89.55 Q16.35 89.2 16.75 89.05 18.85 88.4 20.85 89.0 22.3 89.35 23.65 90.5 25.55 92.0 26.9 93.7 Z" fill="none" stroke="#2d93d7" stroke-linecap="round" stroke-linejoin="round" stroke-width="2.0"/>
    </g>
  </defs>
</svg>
