<?xml version="1.0" encoding="UTF-8" standalone="no"?>
<svg xmlns:ffdec="https://www.free-decompiler.com/flash" xmlns:xlink="http://www.w3.org/1999/xlink" ffdec:objectType="frame" height="30.1px" width="30.0px" xmlns="http://www.w3.org/2000/svg">
  <g transform="matrix(1.0, 0.0, 0.0, 1.0, 0.0, 0.0)">
    <use ffdec:characterId="1" height="30.0" transform="matrix(1.0, 0.0, 0.0, 1.0, 0.0, 0.0)" width="30.0" xlink:href="#shape0"/>
    <use ffdec:characterId="5" height="30.0" transform="matrix(1.0, 0.0, 0.0, 1.0, 0.0, 0.1)" width="30.0" xlink:href="#sprite0"/>
  </g>
  <defs>
    <g id="shape0" transform="matrix(1.0, 0.0, 0.0, 1.0, 0.0, 0.0)">
      <path d="M0.0 0.0 L30.0 0.0 30.0 30.0 0.0 30.0 0.0 0.0" fill="#33cc66" fill-opacity="0.0" fill-rule="evenodd" stroke="none"/>
    </g>
    <g id="sprite0" transform="matrix(1.0, 0.0, 0.0, 1.0, 0.0, 0.0)">
      <use ffdec:characterId="2" height="30.0" transform="matrix(1.0, 0.0, 0.0, 1.0, 0.0, 0.0)" width="30.0" xlink:href="#shape1"/>
      <filter id="filter0">
        <feColorMatrix in="SourceGraphic" result="filterResult0" type="matrix" values="0 0 0 0 1.0,0 0 0 0 1.0,0 0 0 0 1.0,0 0 0 1 0"/>
        <feConvolveMatrix divisor="25.0" in="filterResult0" kernelMatrix="1 1 1 1 1 1 1 1 1 1 1 1 1 1 1 1 1 1 1 1 1 1 1 1 1" order="5 5" result="filterResult1"/>
        <feComposite in="SourceGraphic" in2="filterResult1" operator="over" result="filterResult2"/>
      </filter>
      <use ffdec:characterId="4" filter="url(#filter0)" height="36.55" transform="matrix(0.3961, 0.0, 0.0, 0.3961, 6.1249, 8.7385)" width="41.1" xlink:href="#sprite1"/>
    </g>
    <g id="shape1" transform="matrix(1.0, 0.0, 0.0, 1.0, 0.0, 0.0)">
      <path d="M27.95 0.15 Q30.0 0.7 30.0 3.3 L30.0 26.7 29.8 28.15 Q29.15 30.0 26.7 30.0 L3.3 30.0 2.4 29.95 Q0.7 29.65 0.2 28.15 L0.0 26.7 0.0 3.3 Q0.0 0.7 2.05 0.15 L2.4 0.1 3.3 0.0 26.7 0.0 27.95 0.15" fill="#cccccc" fill-rule="evenodd" stroke="none"/>
    </g>
    <g id="sprite1" transform="matrix(1.0, 0.0, 0.0, 1.0, -3.85, -8.05)">
      <use ffdec:characterId="3" height="36.55" transform="matrix(1.0, 0.0, 0.0, 1.0, 3.85, 8.05)" width="41.1" xlink:href="#shape2"/>
    </g>
    <g id="shape2" transform="matrix(1.0, 0.0, 0.0, 1.0, -3.85, -8.05)">
      <path d="M44.95 15.6 L43.5 17.15 37.9 21.75 36.1 23.2 35.4 23.85 35.2 24.0 Q31.8 28.3 28.75 30.85 24.3 34.3 20.3 34.25 L19.75 34.25 19.1 34.15 19.0 34.55 18.7 35.2 17.7 37.9 17.7 38.05 16.55 40.95 16.4 41.75 Q16.4 42.2 16.55 42.4 L17.65 40.65 17.95 40.15 19.1 38.05 Q19.4 37.5 21.1 36.75 L21.3 36.65 23.05 36.0 23.2 36.0 23.45 35.85 26.8 34.55 26.85 34.55 29.45 32.35 32.4 29.55 35.3 26.75 Q37.35 24.9 39.45 23.55 41.0 22.5 42.5 21.6 L43.25 21.2 44.95 19.8 44.95 24.35 44.2 25.25 Q42.1 28.4 38.45 30.0 L32.8 29.2 32.15 34.3 31.35 36.0 Q26.45 42.4 19.0 44.6 L13.35 44.6 12.45 44.05 10.9 43.25 Q11.3 42.65 12.05 42.0 13.5 40.8 13.65 40.9 L12.95 42.0 13.75 40.9 14.85 39.25 15.1 38.85 17.15 35.3 17.3 34.95 Q18.7 32.3 18.75 30.85 22.15 32.05 23.3 31.8 L23.85 31.7 26.4 31.05 Q28.0 30.6 29.95 28.4 L30.9 27.2 32.7 23.2 33.5 22.4 36.45 20.35 36.6 18.85 36.85 18.6 Q38.05 17.8 38.15 17.8 L38.2 17.8 42.45 14.8 Q43.75 13.65 44.2 11.95 L44.95 13.0 44.95 15.6 M10.1 42.85 L8.15 41.35 7.75 40.15 7.65 39.85 Q6.95 37.5 7.1 35.7 6.75 35.1 6.6 35.85 6.45 36.35 6.45 37.05 6.45 38.2 6.95 40.25 5.05 38.35 3.85 35.95 6.6 33.5 7.15 30.85 7.75 26.55 8.8 23.6 9.95 20.6 11.55 20.3 L13.15 20.15 13.1 20.3 12.7 21.35 12.45 22.55 12.7 23.6 Q13.5 24.65 16.65 24.65 18.85 24.65 20.95 22.15 22.55 20.15 22.75 19.05 L22.15 17.85 Q21.6 16.3 21.6 14.8 21.6 12.6 23.05 10.5 L23.3 10.25 25.55 8.45 Q30.7 7.25 32.85 9.75 34.4 11.55 34.4 13.25 L34.4 14.45 Q34.0 15.45 31.8 15.45 L30.7 15.1 30.2 14.55 31.35 13.95 31.15 13.3 Q30.35 12.6 29.45 12.6 28.5 12.6 27.7 13.3 26.95 14.05 26.95 14.55 26.95 15.45 28.5 17.15 30.45 19.3 33.1 19.4 L33.35 19.4 32.7 20.15 35.0 19.9 33.75 20.7 32.7 21.65 Q31.8 22.0 31.35 23.05 L28.8 27.75 Q26.8 31.4 20.05 30.2 L18.6 29.2 15.75 35.75 15.7 35.95 13.75 39.25 12.5 40.4 12.45 40.4 Q11.0 41.55 10.1 42.85" fill="#4e4bad" fill-rule="evenodd" stroke="none"/>
      <path d="M10.9 43.25 L10.1 42.85 Q11.0 41.55 12.45 40.4 L12.5 40.4 13.75 39.25 15.7 35.95 15.75 35.75 18.6 29.2 20.05 30.2 Q26.8 31.4 28.8 27.75 L31.35 23.05 Q31.8 22.0 32.7 21.65 L33.75 20.7 35.0 19.9 32.7 20.15 33.35 19.4 Q35.45 19.4 36.6 18.85 L36.45 20.35 33.5 22.4 32.7 23.2 30.9 27.2 29.95 28.4 Q28.0 30.6 26.4 31.05 L23.85 31.7 23.3 31.8 Q22.15 32.05 18.75 30.85 18.7 32.3 17.3 34.95 L17.15 35.3 15.1 38.85 14.85 39.25 13.75 40.9 13.65 40.9 Q13.5 40.8 12.05 42.0 11.3 42.65 10.9 43.25 M8.15 41.35 L6.95 40.25 Q6.45 38.2 6.45 37.05 6.45 36.35 6.6 35.85 6.75 35.1 7.1 35.7 6.95 37.5 7.65 39.85 L7.75 40.15 8.15 41.35" fill="#343576" fill-rule="evenodd" stroke="none"/>
      <path d="M44.95 15.6 L44.95 19.8 43.25 21.2 42.5 21.6 Q41.0 22.5 39.45 23.55 37.35 24.9 35.3 26.75 L32.4 29.55 29.45 32.35 26.85 34.55 26.8 34.55 23.45 35.85 23.2 36.0 23.05 36.0 21.3 36.65 21.1 36.75 Q19.4 37.5 19.1 38.05 L17.95 40.15 17.65 40.65 16.55 42.4 Q16.4 42.2 16.4 41.75 L16.55 40.95 17.7 38.05 17.7 37.9 18.7 35.2 19.0 34.55 19.1 34.15 19.75 34.25 20.3 34.25 Q24.3 34.3 28.75 30.85 31.8 28.3 35.2 24.0 L35.4 23.85 36.1 23.2 37.9 21.75 43.5 17.15 44.95 15.6" fill="#6f7ac8" fill-rule="evenodd" stroke="none"/>
      <path d="M13.15 20.15 L13.25 20.15 13.1 20.3 13.15 20.15 M13.75 40.9 L12.95 42.0 13.65 40.9 13.75 40.9" fill="#0d0e15" fill-rule="evenodd" stroke="none"/>
      <path d="M32.15 34.3 L32.0 35.7 31.4 35.85 31.35 36.0 32.15 34.3" fill="#1a1724" fill-rule="evenodd" stroke="none"/>
    </g>
  </defs>
</svg>
