<?xml version="1.0" encoding="UTF-8" standalone="no"?>
<svg xmlns:ffdec="https://www.free-decompiler.com/flash" xmlns:xlink="http://www.w3.org/1999/xlink" ffdec:objectType="frame" height="21.6px" width="45.0px" xmlns="http://www.w3.org/2000/svg">
  <g transform="matrix(1.0, 0.0, 0.0, 1.0, 0.0, 0.0)">
    <use ffdec:characterId="1" height="21.6" transform="matrix(1.0, 0.0, 0.0, 1.0, 0.0, 0.0)" width="45.0" xlink:href="#shape0"/>
  </g>
  <defs>
    <g id="shape0" transform="matrix(1.0, 0.0, 0.0, 1.0, 0.0, 0.0)">
      <path d="M40.3 0.2 L44.85 4.8 45.0 5.1 45.0 16.5 44.85 16.85 40.3 21.45 40.05 21.55 39.85 21.6 5.2 21.6 5.0 21.55 4.7 21.45 0.15 16.85 0.0 16.5 0.0 5.1 0.15 4.8 4.7 0.2 5.0 0.1 5.2 0.0 39.85 0.0 40.05 0.1 40.3 0.2 M43.85 16.35 L43.85 5.25 39.6 1.0 5.45 1.0 1.15 5.25 1.15 16.35 5.45 20.65 39.6 20.65 43.85 16.35" fill="#00ffff" fill-rule="evenodd" stroke="none"/>
      <path d="M42.7 6.4 L39.2 6.4 39.2 15.25 42.7 15.25 42.7 6.4 M43.85 16.35 L39.6 20.65 5.45 20.65 1.15 16.35 1.15 5.25 5.45 1.0 39.6 1.0 43.85 5.25 43.85 16.35 M38.85 1.7 L38.85 5.55 42.8 5.55 38.85 1.7 M38.85 20.05 L42.8 16.2 38.85 16.2 38.85 20.05 M6.3 1.7 L2.35 5.55 6.3 5.55 6.3 1.7 M6.3 16.2 L2.35 16.2 6.3 20.05 6.3 16.2 M5.95 6.45 L2.3 6.45 2.3 15.15 5.95 15.15 5.95 6.45" fill="#ffff66" fill-opacity="0.0" fill-rule="evenodd" stroke="none"/>
      <path d="M42.7 6.4 L42.7 15.25 39.2 15.25 39.2 6.4 42.7 6.4 M38.85 1.7 L42.8 5.55 38.85 5.55 38.85 1.7 M6.3 1.7 L6.3 5.55 2.35 5.55 6.3 1.7 M38.85 20.05 L38.85 16.2 42.8 16.2 38.85 20.05 M5.95 6.45 L5.95 15.15 2.3 15.15 2.3 6.45 5.95 6.45 M6.3 16.2 L6.3 20.05 2.35 16.2 6.3 16.2" fill="#ffff66" fill-rule="evenodd" stroke="none"/>
      <path d="M34.85 4.0 L37.4 4.0 36.15 6.5 Q35.8 7.35 34.9 7.35 L32.45 7.35 33.75 8.45 34.7 8.7 37.45 8.7 37.45 10.65 33.95 10.65 Q32.55 10.65 31.95 10.0 L30.4 8.45 28.45 10.05 Q27.8 10.65 26.5 10.65 L23.35 10.65 23.35 8.7 25.7 8.7 26.75 8.45 28.25 7.3 25.6 7.3 Q24.95 7.3 24.55 6.5 L23.35 4.1 25.9 4.1 26.4 5.2 Q26.5 5.55 26.9 5.55 L28.3 5.55 28.3 7.25 29.05 6.7 29.2 6.45 29.2 3.75 31.6 3.75 31.6 6.45 31.7 6.7 32.45 7.35 32.45 5.55 33.9 5.55 34.35 5.2 34.85 4.0 M37.5 11.15 L36.2 13.7 Q35.8 14.5 34.85 14.5 L32.85 14.5 33.75 15.65 34.7 15.9 37.4 15.9 37.4 17.85 33.95 17.85 Q32.55 17.85 31.9 17.0 L30.35 14.75 28.45 17.0 Q27.8 17.85 26.5 17.85 L23.35 17.85 23.35 15.9 25.75 15.9 26.8 15.65 27.8 14.45 25.45 14.45 Q24.85 14.45 24.4 13.6 L23.3 11.15 25.9 11.15 26.25 12.35 26.75 12.7 28.4 12.7 28.4 13.8 29.0 13.1 29.15 12.75 29.15 10.2 31.55 10.2 31.55 12.75 31.65 13.15 32.45 14.1 32.45 12.7 33.85 12.7 Q34.25 12.7 34.35 12.35 L34.9 11.15 37.5 11.15 M20.1 17.5 L14.55 17.5 14.55 4.15 21.65 4.15 21.65 16.1 Q21.65 17.5 20.1 17.5 M10.0 5.8 L10.0 9.3 11.3 9.3 11.75 9.0 11.75 5.8 10.0 5.8 M10.0 11.15 L10.0 15.1 11.5 15.1 11.75 14.65 11.75 11.45 Q11.75 11.15 11.1 11.15 L10.0 11.15 M13.75 11.35 L13.75 15.85 Q13.75 17.0 12.5 17.0 L10.0 17.0 10.0 17.95 7.9 17.95 7.9 3.9 13.75 3.9 13.75 9.25 Q13.75 9.9 12.8 10.2 13.75 10.65 13.75 11.35 M16.55 9.6 L19.55 9.6 19.55 6.05 16.55 6.05 16.55 9.6 M16.55 11.45 L16.55 15.65 19.05 15.65 Q19.55 15.65 19.55 15.2 L19.55 11.45 16.55 11.45" fill="#ffff66" fill-rule="evenodd" stroke="none"/>
    </g>
  </defs>
</svg>
