<?xml version="1.0" encoding="UTF-8" standalone="no"?>
<svg xmlns:ffdec="https://www.free-decompiler.com/flash" xmlns:xlink="http://www.w3.org/1999/xlink" ffdec:objectType="frame" height="21.6px" width="45.0px" xmlns="http://www.w3.org/2000/svg">
  <g transform="matrix(1.0, 0.0, 0.0, 1.0, 0.0, 0.0)">
    <use ffdec:characterId="1" height="21.6" transform="matrix(1.0, 0.0, 0.0, 1.0, 0.0, 0.0)" width="45.0" xlink:href="#shape0"/>
  </g>
  <defs>
    <g id="shape0" transform="matrix(1.0, 0.0, 0.0, 1.0, 0.0, 0.0)">
      <path d="M33.05 4.1 L33.5 5.95 Q33.6 6.45 33.9 6.45 L34.15 6.45 34.15 8.2 32.95 8.2 Q32.05 8.2 31.85 7.25 L31.1 4.1 33.05 4.1 M30.35 5.6 L30.7 5.6 30.7 7.3 29.6 7.3 Q29.15 7.3 28.9 6.9 L28.0 5.55 26.3 5.55 25.3 6.9 Q25.05 7.3 24.6 7.3 L23.45 7.3 23.45 5.6 23.9 5.6 24.25 5.15 25.0 3.85 29.3 3.85 29.95 5.15 30.35 5.6 M30.65 12.1 L28.0 12.1 28.0 16.3 Q28.0 17.0 27.5 17.5 27.15 17.95 26.45 17.95 L25.55 17.95 25.55 16.3 25.75 16.3 Q26.15 16.3 26.15 15.5 L26.15 12.1 23.5 12.1 23.5 10.4 26.15 10.4 26.15 9.35 23.75 9.35 23.75 7.65 30.35 7.65 30.35 9.35 28.0 9.35 28.0 10.4 30.65 10.4 30.65 12.1 M33.9 11.65 L34.25 11.65 34.25 13.25 32.95 13.25 Q32.15 13.25 31.9 12.35 L31.1 9.1 32.95 9.1 33.5 11.25 Q33.6 11.65 33.9 11.65 M36.7 3.85 L36.7 14.15 37.5 14.15 37.5 16.0 36.7 16.0 36.7 17.75 34.75 17.75 34.75 16.0 30.7 16.0 30.7 14.15 34.75 14.15 34.75 3.85 36.7 3.85 M19.9 9.05 L14.2 9.05 14.2 9.7 21.65 9.7 21.65 16.45 Q21.65 17.8 19.9 17.8 L19.15 17.8 19.15 16.3 19.25 16.3 19.7 16.0 19.7 14.95 18.95 14.95 18.95 17.45 17.35 17.45 17.35 14.95 16.7 14.95 16.7 17.45 15.1 17.45 15.1 14.95 14.35 14.95 14.35 17.8 12.5 17.8 12.5 12.35 11.5 12.5 11.5 10.75 12.2 10.3 12.2 4.6 16.15 4.6 16.15 3.85 18.45 3.85 18.45 4.6 21.7 4.6 21.7 7.55 Q21.7 9.05 19.9 9.05 M28.6 16.1 L28.3 12.7 29.9 12.7 30.2 15.35 Q30.3 15.8 30.55 15.8 L30.55 17.45 29.65 17.45 Q28.75 17.45 28.6 16.1 M25.3 16.45 Q25.05 17.75 24.1 17.75 L23.25 17.75 23.25 16.1 23.6 16.1 23.85 15.55 24.25 12.85 25.9 12.85 25.3 16.45 M12.4 3.85 L10.95 7.0 10.95 17.8 8.9 17.8 8.9 8.6 7.8 8.6 7.8 6.7 8.5 6.7 9.1 6.2 10.15 3.85 12.4 3.85 M14.2 7.35 L19.25 7.35 Q19.7 7.35 19.7 7.0 L19.7 6.25 14.2 6.25 14.2 7.35 M16.7 11.45 L16.7 13.2 17.35 13.2 17.35 11.45 16.7 11.45 M18.95 11.45 L18.95 13.2 19.7 13.2 19.7 11.45 18.95 11.45 M14.35 11.45 L14.35 13.2 15.1 13.2 15.1 11.45 14.35 11.45" fill="#ffff66" fill-rule="evenodd" stroke="none"/>
      <path d="M40.3 0.2 L44.85 4.8 45.0 5.1 45.0 16.5 44.85 16.85 40.3 21.45 40.05 21.55 39.85 21.6 5.2 21.6 5.0 21.55 4.7 21.45 0.15 16.85 0.0 16.5 0.0 5.1 0.15 4.8 4.7 0.2 5.0 0.1 5.2 0.0 39.85 0.0 40.05 0.1 40.3 0.2 M43.85 16.35 L43.85 5.25 39.6 1.0 5.45 1.0 1.15 5.25 1.15 16.35 5.45 20.65 39.6 20.65 43.85 16.35" fill="#00ffff" fill-rule="evenodd" stroke="none"/>
      <path d="M42.7 6.4 L39.2 6.4 39.2 15.25 42.7 15.25 42.7 6.4 M43.85 16.35 L39.6 20.65 5.45 20.65 1.15 16.35 1.15 5.25 5.45 1.0 39.6 1.0 43.85 5.25 43.85 16.35 M38.85 1.7 L38.85 5.55 42.8 5.55 38.85 1.7 M38.85 20.05 L42.8 16.2 38.85 16.2 38.85 20.05 M6.3 1.7 L2.35 5.55 6.3 5.55 6.3 1.7 M6.3 16.2 L2.35 16.2 6.3 20.05 6.3 16.2 M5.95 6.45 L2.3 6.45 2.3 15.15 5.95 15.15 5.95 6.45" fill="#ffff66" fill-opacity="0.0" fill-rule="evenodd" stroke="none"/>
      <path d="M42.7 6.4 L42.7 15.25 39.2 15.25 39.2 6.4 42.7 6.4 M38.85 1.7 L42.8 5.55 38.85 5.55 38.85 1.7 M6.3 1.7 L6.3 5.55 2.35 5.55 6.3 1.7 M38.85 20.05 L38.85 16.2 42.8 16.2 38.85 20.05 M5.95 6.45 L5.95 15.15 2.3 15.15 2.3 6.45 5.95 6.45 M6.3 16.2 L6.3 20.05 2.35 16.2 6.3 16.2" fill="#ffff66" fill-rule="evenodd" stroke="none"/>
    </g>
  </defs>
</svg>
