<?xml version="1.0" encoding="UTF-8" standalone="no"?>
<svg xmlns:ffdec="https://www.free-decompiler.com/flash" xmlns:xlink="http://www.w3.org/1999/xlink" ffdec:objectType="frame" height="21.6px" width="45.0px" xmlns="http://www.w3.org/2000/svg">
  <g transform="matrix(1.0, 0.0, 0.0, 1.0, 0.0, 0.0)">
    <use ffdec:characterId="1" height="21.6" transform="matrix(1.0, 0.0, 0.0, 1.0, 0.0, 0.0)" width="45.0" xlink:href="#shape0"/>
  </g>
  <defs>
    <g id="shape0" transform="matrix(1.0, 0.0, 0.0, 1.0, 0.0, 0.0)">
      <path d="M40.3 0.2 L44.85 4.8 45.0 5.1 45.0 16.5 44.85 16.85 40.3 21.45 40.05 21.55 39.85 21.6 5.2 21.6 5.0 21.55 4.7 21.45 0.15 16.85 0.0 16.5 0.0 5.1 0.15 4.8 4.7 0.2 5.0 0.1 5.2 0.0 39.85 0.0 40.05 0.1 40.3 0.2 M43.85 16.35 L43.85 5.25 39.6 1.0 5.45 1.0 1.15 5.25 1.15 16.35 5.45 20.65 39.6 20.65 43.85 16.35" fill="#00ffff" fill-rule="evenodd" stroke="none"/>
      <path d="M42.7 6.4 L39.2 6.4 39.2 15.25 42.7 15.25 42.7 6.4 M43.85 16.35 L39.6 20.65 5.45 20.65 1.15 16.35 1.15 5.25 5.45 1.0 39.6 1.0 43.85 5.25 43.85 16.35 M38.85 20.05 L42.8 16.2 38.85 16.2 38.85 20.05 M38.85 1.7 L38.85 5.55 42.8 5.55 38.85 1.7 M6.3 1.7 L2.35 5.55 6.3 5.55 6.3 1.7 M2.35 16.2 L6.3 20.05 6.3 16.2 2.35 16.2 M5.95 6.45 L2.3 6.45 2.3 15.15 5.95 15.15 5.95 6.45" fill="#ffff66" fill-opacity="0.0" fill-rule="evenodd" stroke="none"/>
      <path d="M42.7 6.4 L42.7 15.25 39.2 15.25 39.2 6.4 42.7 6.4 M38.85 20.05 L38.85 16.2 42.8 16.2 38.85 20.05 M38.85 1.7 L42.8 5.55 38.85 5.55 38.85 1.7 M6.3 1.7 L6.3 5.55 2.35 5.55 6.3 1.7 M5.95 6.45 L5.95 15.15 2.3 15.15 2.3 6.45 5.95 6.45 M2.35 16.2 L6.3 16.2 6.3 20.05 2.35 16.2" fill="#ffff66" fill-rule="evenodd" stroke="none"/>
      <path d="M32.0 4.5 L37.25 4.5 37.25 7.45 34.8 7.45 34.8 6.3 26.3 6.3 26.3 7.45 23.85 7.45 23.85 4.5 29.25 4.5 29.25 3.7 32.0 3.7 32.0 4.5 M31.7 11.75 L36.85 11.75 36.85 13.55 31.7 13.55 31.7 15.7 34.8 15.7 35.1 15.4 35.1 14.4 37.3 14.4 37.3 16.45 Q37.3 17.6 36.05 17.6 L23.75 17.6 23.75 15.7 29.35 15.7 29.35 13.55 24.15 13.55 24.15 11.75 29.35 11.75 29.35 9.9 23.95 9.9 23.95 8.0 37.15 8.0 37.15 9.9 31.7 9.9 31.7 11.75 M21.85 4.65 L21.85 6.6 20.85 6.6 20.85 16.6 Q20.85 17.65 19.6 17.65 L17.35 17.65 17.35 15.75 18.45 15.75 18.75 15.4 18.75 6.6 14.95 6.6 14.95 4.65 18.75 4.65 18.75 3.7 20.85 3.7 20.85 4.65 21.85 4.65 M18.2 7.45 L17.45 14.75 Q17.2 16.75 16.05 16.75 L14.65 16.75 14.65 14.9 14.85 14.9 Q15.35 14.9 15.5 13.8 L16.2 7.45 18.2 7.45 M12.1 6.5 L12.1 13.8 12.15 14.1 13.35 15.75 13.9 16.0 14.25 16.0 14.25 17.65 13.05 17.65 Q12.35 17.65 12.05 17.2 L11.2 15.9 10.45 17.2 9.6 17.65 8.1 17.65 8.1 16.0 8.8 16.0 9.2 15.75 10.25 14.1 10.35 13.8 10.35 6.5 12.1 6.5 M9.9 5.55 L9.9 14.05 8.1 14.05 8.1 3.85 14.5 3.85 14.5 14.05 12.7 14.05 12.7 5.55 9.9 5.55" fill="#ffff66" fill-rule="evenodd" stroke="none"/>
    </g>
  </defs>
</svg>
