<?xml version="1.0" encoding="UTF-8" standalone="no"?>
<svg xmlns:ffdec="https://www.free-decompiler.com/flash" xmlns:xlink="http://www.w3.org/1999/xlink" ffdec:objectType="frame" height="21.6px" width="45.0px" xmlns="http://www.w3.org/2000/svg">
  <g transform="matrix(1.0, 0.0, 0.0, 1.0, 0.0, 0.0)">
    <use ffdec:characterId="1" height="21.6" transform="matrix(1.0, 0.0, 0.0, 1.0, 0.0, 0.0)" width="45.0" xlink:href="#shape0"/>
  </g>
  <defs>
    <g id="shape0" transform="matrix(1.0, 0.0, 0.0, 1.0, 0.0, 0.0)">
      <path d="M44.85 4.8 L45.0 5.1 45.0 16.5 44.85 16.85 40.3 21.45 40.05 21.55 39.85 21.6 5.2 21.6 5.0 21.55 4.7 21.45 0.15 16.85 0.0 16.5 0.0 5.1 0.15 4.8 4.7 0.2 5.0 0.1 5.2 0.0 39.85 0.0 40.05 0.1 40.3 0.2 44.85 4.8 M43.85 5.25 L39.6 1.0 5.45 1.0 1.15 5.25 1.15 16.35 5.45 20.65 39.6 20.65 43.85 16.35 43.85 5.25" fill="#00ffff" fill-rule="evenodd" stroke="none"/>
      <path d="M38.85 5.55 L38.85 1.7 42.8 5.55 38.85 5.55 M42.8 16.2 L38.85 20.05 38.85 16.2 42.8 16.2 M39.2 6.4 L42.7 6.4 42.7 15.25 39.2 15.25 39.2 6.4 M6.3 1.7 L6.3 5.55 2.35 5.55 6.3 1.7 M5.95 6.45 L5.95 15.15 2.3 15.15 2.3 6.45 5.95 6.45 M6.3 20.05 L2.35 16.2 6.3 16.2 6.3 20.05" fill="#ffff66" fill-rule="evenodd" stroke="none"/>
      <path d="M38.85 5.55 L42.8 5.55 38.85 1.7 38.85 5.55 M39.2 6.4 L39.2 15.25 42.7 15.25 42.7 6.4 39.2 6.4 M42.8 16.2 L38.85 16.2 38.85 20.05 42.8 16.2 M43.85 5.25 L43.85 16.35 39.6 20.65 5.45 20.65 1.15 16.35 1.15 5.25 5.45 1.0 39.6 1.0 43.85 5.25 M6.3 1.7 L2.35 5.55 6.3 5.55 6.3 1.7 M6.3 20.05 L6.3 16.2 2.35 16.2 6.3 20.05 M5.95 6.45 L2.3 6.45 2.3 15.15 5.95 15.15 5.95 6.45" fill="#ffff66" fill-opacity="0.0" fill-rule="evenodd" stroke="none"/>
      <path d="M37.15 11.6 L34.7 11.6 36.15 15.4 Q36.5 15.95 37.0 15.95 L37.3 15.95 37.3 17.65 35.7 17.65 Q34.75 17.65 34.3 16.5 L33.25 13.5 32.3 16.55 Q31.95 17.65 31.3 17.65 L29.4 17.65 29.4 15.95 30.05 15.95 Q30.45 15.95 30.7 15.4 L31.9 11.6 29.5 11.6 29.5 9.65 32.2 9.65 32.2 7.15 29.8 7.15 29.8 5.25 32.2 5.25 32.2 3.65 34.35 3.65 34.35 5.25 36.9 5.25 36.9 7.15 34.35 7.15 34.35 9.65 37.15 9.65 37.15 11.6 M27.25 5.75 L25.8 5.75 25.8 7.85 27.25 7.85 27.25 5.75 M21.65 5.9 L14.65 5.9 13.0 8.5 20.75 8.5 20.75 15.7 Q20.75 17.55 18.9 17.55 L9.3 17.55 9.3 12.8 7.55 12.8 7.55 10.75 8.0 10.75 Q8.95 10.75 9.5 9.8 L11.85 5.9 7.7 5.9 7.7 3.95 21.65 3.95 21.65 5.9 M18.45 15.25 L18.45 10.4 11.85 10.4 11.6 10.85 11.6 15.65 18.0 15.65 Q18.45 15.65 18.45 15.25 M23.3 15.8 L23.5 15.8 23.85 15.45 23.85 3.85 29.2 3.85 29.2 16.55 Q29.2 17.6 28.05 17.6 L26.7 17.6 26.7 15.8 27.0 15.8 27.25 15.5 27.25 13.7 25.8 13.7 25.8 16.3 Q25.8 17.6 24.5 17.6 L23.3 17.6 23.3 15.8 M27.25 9.7 L25.8 9.7 25.8 11.85 27.25 11.85 27.25 9.7" fill="#ffff66" fill-rule="evenodd" stroke="none"/>
    </g>
  </defs>
</svg>
