<?xml version="1.0" encoding="UTF-8" standalone="no"?>
<svg xmlns:ffdec="https://www.free-decompiler.com/flash" xmlns:xlink="http://www.w3.org/1999/xlink" ffdec:objectType="frame" height="21.6px" width="45.0px" xmlns="http://www.w3.org/2000/svg">
  <g transform="matrix(1.0, 0.0, 0.0, 1.0, 0.0, 0.0)">
    <use ffdec:characterId="1" height="21.6" transform="matrix(1.0, 0.0, 0.0, 1.0, 0.0, 0.0)" width="45.0" xlink:href="#shape0"/>
  </g>
  <defs>
    <g id="shape0" transform="matrix(1.0, 0.0, 0.0, 1.0, 0.0, 0.0)">
      <path d="M45.0 5.1 L45.0 16.5 44.85 16.85 40.3 21.45 40.05 21.55 39.85 21.6 5.2 21.6 5.0 21.55 4.7 21.45 0.15 16.85 0.0 16.5 0.0 5.1 0.15 4.8 4.7 0.2 5.0 0.1 5.2 0.0 39.85 0.0 40.05 0.1 40.3 0.2 44.85 4.8 45.0 5.1 M43.85 16.35 L43.85 5.25 39.6 1.0 5.45 1.0 1.15 5.25 1.15 16.35 5.45 20.65 39.6 20.65 43.85 16.35" fill="#00ffff" fill-rule="evenodd" stroke="none"/>
      <path d="M42.7 6.4 L42.7 15.25 39.2 15.25 39.2 6.4 42.7 6.4 M38.85 1.7 L42.8 5.55 38.85 5.55 38.85 1.7 M6.3 1.7 L6.3 5.55 2.35 5.55 6.3 1.7 M38.85 20.05 L38.85 16.2 42.8 16.2 38.85 20.05 M5.95 6.45 L5.95 15.15 2.3 15.15 2.3 6.45 5.95 6.45 M6.3 20.05 L2.35 16.2 6.3 16.2 6.3 20.05" fill="#ffff66" fill-rule="evenodd" stroke="none"/>
      <path d="M43.85 16.35 L39.6 20.65 5.45 20.65 1.15 16.35 1.15 5.25 5.45 1.0 39.6 1.0 43.85 5.25 43.85 16.35 M42.7 6.4 L39.2 6.4 39.2 15.25 42.7 15.25 42.7 6.4 M38.85 1.7 L38.85 5.55 42.8 5.55 38.85 1.7 M38.85 20.05 L42.8 16.2 38.85 16.2 38.85 20.05 M6.3 1.7 L2.35 5.55 6.3 5.55 6.3 1.7 M6.3 20.05 L6.3 16.2 2.35 16.2 6.3 20.05 M5.95 6.45 L2.3 6.45 2.3 15.15 5.95 15.15 5.95 6.45" fill="#ffff66" fill-opacity="0.0" fill-rule="evenodd" stroke="none"/>
      <path d="M32.95 4.95 L36.05 4.95 36.05 11.85 Q36.05 12.2 36.4 12.2 L36.75 12.2 36.75 13.95 35.4 13.95 Q34.15 13.95 34.15 12.75 L34.15 6.7 32.85 6.7 32.65 10.15 33.85 10.15 33.85 11.8 32.55 11.8 32.55 12.15 32.15 13.3 31.1 13.75 28.65 13.75 28.65 12.05 30.55 12.05 30.8 11.8 30.35 11.8 Q29.5 11.8 29.3 10.85 L28.65 7.4 30.45 7.4 30.85 9.75 30.9 9.95 31.05 6.7 28.65 6.7 28.65 4.95 31.15 4.95 31.15 4.0 33.0 4.0 32.95 4.95 M28.25 5.0 L28.25 6.7 27.55 6.7 27.55 7.15 28.3 7.15 28.3 8.95 27.55 8.95 27.55 12.25 Q27.55 13.05 27.05 13.6 26.65 14.0 25.9 14.0 L24.05 14.0 24.05 12.5 25.2 12.5 Q25.55 12.5 25.55 11.8 L25.55 10.55 25.05 11.6 24.45 12.05 23.35 12.05 23.35 10.25 23.5 10.25 Q23.9 10.25 24.05 9.9 L25.2 7.6 25.55 7.25 25.55 6.7 23.5 6.7 23.5 5.0 25.55 5.0 25.55 4.1 27.55 4.1 27.55 5.0 28.25 5.0 M21.4 7.65 L19.8 7.65 19.8 13.3 Q19.8 14.15 19.3 14.7 18.85 15.2 18.05 15.2 L14.7 15.2 14.7 13.4 17.3 13.4 Q17.7 13.4 17.7 12.5 L17.7 7.65 12.15 7.65 12.15 5.8 17.7 5.8 17.7 4.35 19.8 4.35 19.8 5.8 21.4 5.8 21.4 7.65 M29.3 15.45 Q29.4 15.8 29.65 15.8 L30.3 15.8 30.3 17.5 28.55 17.5 Q28.05 17.5 27.7 16.7 L26.85 14.35 29.0 14.35 29.3 15.45 M25.45 16.8 Q25.1 17.6 24.3 17.6 L23.25 17.6 23.25 15.85 23.5 15.85 23.85 15.5 24.25 14.35 26.5 14.35 25.45 16.8 M21.65 17.55 L11.6 17.55 Q11.05 17.55 10.7 17.0 10.4 17.5 9.6 17.5 L8.4 17.5 8.4 15.85 8.8 15.85 Q9.2 15.85 9.2 15.45 L9.2 9.65 8.4 9.65 8.4 7.8 11.15 7.8 11.15 15.2 Q11.15 15.7 11.85 15.7 L21.65 15.7 21.65 17.55 M36.75 17.55 L35.15 17.55 Q34.7 17.55 34.4 16.75 L33.65 14.35 35.8 14.35 36.0 15.5 36.25 15.85 36.75 15.85 36.75 17.55 M32.65 15.45 Q32.75 15.8 33.0 15.8 L33.5 15.8 33.5 17.5 31.9 17.5 Q31.4 17.5 31.05 16.7 L30.25 14.35 32.4 14.35 32.65 15.45 M14.8 10.4 L15.3 10.85 16.75 10.85 16.75 12.7 14.3 12.7 Q13.3 12.7 13.05 11.7 L12.3 8.5 14.4 8.5 14.8 10.4 M11.15 6.85 L9.05 6.85 9.05 4.25 11.15 4.25 11.15 6.85" fill="#ffff66" fill-rule="evenodd" stroke="none"/>
    </g>
  </defs>
</svg>
