<?xml version="1.0" encoding="UTF-8" standalone="no"?>
<svg xmlns:ffdec="https://www.free-decompiler.com/flash" xmlns:xlink="http://www.w3.org/1999/xlink" ffdec:objectType="frame" height="25.0px" width="52.0px" xmlns="http://www.w3.org/2000/svg">
  <g transform="matrix(1.0, 0.0, 0.0, 1.0, 0.0, 0.0)">
    <use ffdec:characterId="1" height="25.0" transform="matrix(1.0, 0.0, 0.0, 1.0, 0.0, 0.0)" width="52.0" xlink:href="#shape0"/>
  </g>
  <defs>
    <g id="shape0" transform="matrix(1.0, 0.0, 0.0, 1.0, 0.0, 0.0)">
      <path d="M51.85 5.55 L52.0 5.9 52.0 19.1 51.85 19.5 46.55 24.8 46.3 24.95 46.05 25.0 6.0 25.0 5.75 24.95 5.45 24.8 0.2 19.5 0.0 19.1 0.0 5.9 0.2 5.55 5.45 0.25 5.75 0.1 6.0 0.0 46.05 0.0 46.3 0.1 46.55 0.25 51.85 5.55 M45.75 23.9 L50.65 18.9 50.65 6.1 45.75 1.15 6.3 1.15 1.35 6.1 1.35 18.9 6.3 23.9 45.75 23.9" fill="#00ffff" fill-rule="evenodd" stroke="none"/>
      <path d="M45.3 7.4 L45.3 17.65 49.35 17.65 49.35 7.4 45.3 7.4 M49.45 6.4 L44.9 1.95 44.9 6.4 49.45 6.4 M44.9 18.75 L44.9 23.2 49.45 18.75 44.9 18.75 M45.75 23.9 L6.3 23.9 1.35 18.9 1.35 6.1 6.3 1.15 45.75 1.15 50.65 6.1 50.65 18.9 45.75 23.9 M6.9 7.45 L2.65 7.45 2.65 17.55 6.9 17.55 6.9 7.45 M2.7 6.4 L7.3 6.4 7.3 1.95 2.7 6.4 M7.3 23.2 L7.3 18.75 2.7 18.75 7.3 23.2" fill="#ffff66" fill-opacity="0.0" fill-rule="evenodd" stroke="none"/>
      <path d="M45.3 7.4 L49.35 7.4 49.35 17.65 45.3 17.65 45.3 7.4 M49.45 6.4 L44.9 6.4 44.9 1.95 49.45 6.4 M44.9 18.75 L49.45 18.75 44.9 23.2 44.9 18.75 M6.9 7.45 L6.9 17.55 2.65 17.55 2.65 7.45 6.9 7.45 M2.7 6.4 L7.3 1.95 7.3 6.4 2.7 6.4 M7.3 23.2 L2.7 18.75 7.3 18.75 7.3 23.2" fill="#ffff66" fill-rule="evenodd" stroke="none"/>
      <path d="M41.55 20.15 L36.55 20.15 36.15 19.9 34.1 16.75 36.55 16.75 37.6 18.05 38.85 15.55 34.3 15.55 34.3 14.45 Q34.3 14.1 34.45 13.7 L34.85 12.15 33.05 12.15 33.05 10.05 35.3 10.05 35.65 8.65 33.5 8.65 33.5 6.65 36.1 6.65 36.45 5.35 38.55 5.35 38.25 6.65 41.6 6.65 41.6 8.65 37.85 8.65 37.55 10.05 41.9 10.05 41.9 12.15 37.1 12.15 36.8 13.55 41.45 13.55 41.45 14.85 41.2 15.9 39.85 18.35 41.55 18.35 41.55 20.15 M33.15 8.55 L30.2 8.55 29.0 12.2 29.9 12.2 29.9 10.25 32.0 10.25 32.0 12.2 32.95 12.2 32.95 14.2 32.0 14.2 32.0 15.95 33.5 15.95 33.5 17.95 32.0 17.95 32.0 20.3 29.9 20.3 29.9 17.95 26.6 17.95 26.6 15.95 29.9 15.95 29.9 14.2 26.8 14.2 26.8 12.2 28.05 8.55 26.7 8.55 26.7 6.5 28.75 6.5 29.2 5.15 31.3 5.15 30.9 6.5 33.15 6.5 33.15 8.55 M24.9 5.8 L24.9 7.75 18.8 7.75 17.05 10.05 21.75 10.05 Q22.3 10.05 22.3 9.3 L22.3 8.65 24.55 8.65 24.55 10.05 Q24.55 10.9 24.15 11.3 23.7 11.95 22.6 11.95 L14.55 11.95 14.55 10.25 Q14.55 9.9 14.8 9.6 L16.3 7.75 14.15 7.75 14.15 5.8 18.15 5.8 18.15 5.1 20.65 5.1 20.65 5.8 24.9 5.8 M24.15 18.2 L24.9 18.2 24.9 20.1 22.85 20.1 Q21.6 20.1 21.6 19.0 L21.6 12.7 23.75 12.7 23.75 17.9 24.15 18.2 M20.45 20.15 L18.35 20.15 18.35 12.95 20.45 12.95 20.45 20.15 M13.75 7.85 L13.75 9.75 12.25 9.75 Q11.15 9.75 10.85 8.7 L10.0 5.55 12.35 5.55 12.8 7.35 Q12.95 7.85 13.4 7.85 L13.75 7.85 M12.8 12.05 Q12.85 12.6 13.3 12.6 L13.75 12.6 13.75 14.45 12.2 14.45 Q11.1 14.45 10.8 13.4 L9.9 10.2 12.3 10.2 12.8 12.05 M9.85 18.1 L10.3 18.1 10.75 17.6 11.3 15.25 13.7 15.25 12.8 18.75 Q12.5 19.95 11.15 19.95 L9.85 19.95 9.85 18.1 M17.35 12.7 L17.35 18.45 Q17.35 19.2 16.8 19.75 16.4 20.2 15.55 20.2 L14.15 20.2 14.15 18.45 14.8 18.45 Q15.25 18.45 15.25 17.55 L15.25 12.7 17.35 12.7" fill="#ffff66" fill-rule="evenodd" stroke="none"/>
    </g>
  </defs>
</svg>
