<?xml version="1.0" encoding="UTF-8" standalone="no"?>
<svg xmlns:ffdec="https://www.free-decompiler.com/flash" xmlns:xlink="http://www.w3.org/1999/xlink" ffdec:objectType="frame" height="21.6px" width="45.0px" xmlns="http://www.w3.org/2000/svg">
  <g transform="matrix(1.0, 0.0, 0.0, 1.0, 0.0, 0.0)">
    <use ffdec:characterId="1" height="21.6" transform="matrix(1.0, 0.0, 0.0, 1.0, 0.0, 0.0)" width="45.0" xlink:href="#shape0"/>
  </g>
  <defs>
    <g id="shape0" transform="matrix(1.0, 0.0, 0.0, 1.0, 0.0, 0.0)">
      <path d="M45.0 5.1 L45.0 16.5 44.85 16.85 40.3 21.45 40.05 21.55 39.85 21.6 5.2 21.6 5.0 21.55 4.7 21.45 0.15 16.85 0.0 16.5 0.0 5.1 0.15 4.8 4.7 0.2 5.0 0.1 5.2 0.0 39.85 0.0 40.05 0.1 40.3 0.2 44.85 4.8 45.0 5.1 M43.85 16.35 L43.85 5.25 39.6 1.0 5.45 1.0 1.15 5.25 1.15 16.35 5.45 20.65 39.6 20.65 43.85 16.35" fill="#00ffff" fill-rule="evenodd" stroke="none"/>
      <path d="M42.7 6.4 L42.7 15.25 39.2 15.25 39.2 6.4 42.7 6.4 M38.85 1.7 L42.8 5.55 38.85 5.55 38.85 1.7 M6.3 1.7 L6.3 5.55 2.35 5.55 6.3 1.7 M38.85 20.05 L38.85 16.2 42.8 16.2 38.85 20.05 M5.95 6.45 L5.95 15.15 2.3 15.15 2.3 6.45 5.95 6.45 M6.3 20.05 L2.35 16.2 6.3 16.2 6.3 20.05" fill="#ffff66" fill-rule="evenodd" stroke="none"/>
      <path d="M43.85 16.35 L39.6 20.65 5.45 20.65 1.15 16.35 1.15 5.25 5.45 1.0 39.6 1.0 43.85 5.25 43.85 16.35 M42.7 6.4 L39.2 6.4 39.2 15.25 42.7 15.25 42.7 6.4 M38.85 1.7 L38.85 5.55 42.8 5.55 38.85 1.7 M38.85 20.05 L42.8 16.2 38.85 16.2 38.85 20.05 M6.3 1.7 L2.35 5.55 6.3 5.55 6.3 1.7 M6.3 20.05 L6.3 16.2 2.35 16.2 6.3 20.05 M5.95 6.45 L2.3 6.45 2.3 15.15 5.95 15.15 5.95 6.45" fill="#ffff66" fill-opacity="0.0" fill-rule="evenodd" stroke="none"/>
      <path d="M30.8 6.1 L30.8 4.4 36.9 4.4 36.9 6.2 34.9 8.75 35.4 9.4 Q35.8 9.85 36.25 9.85 L36.8 9.85 36.8 11.5 35.25 11.5 Q34.85 11.5 34.5 11.15 L33.75 10.25 32.95 11.25 32.45 11.5 30.7 11.5 30.7 9.85 31.7 9.85 31.9 9.7 32.6 8.85 30.8 6.65 33.2 6.65 33.7 7.35 34.65 6.1 30.8 6.1 M35.45 12.1 L36.05 15.15 Q36.15 15.75 36.35 15.75 L36.8 15.75 36.8 17.5 35.6 17.5 Q34.65 17.5 34.35 16.2 L33.5 12.1 35.45 12.1 M30.6 7.05 L29.5 7.05 29.5 8.6 29.35 9.15 28.6 9.7 28.75 9.75 Q29.0 9.95 29.2 9.95 L30.35 9.95 30.35 11.6 28.35 11.6 27.8 11.4 27.05 10.85 26.3 11.4 25.75 11.6 23.65 11.6 23.65 9.95 25.0 9.95 25.3 9.8 25.4 9.75 24.55 9.15 Q24.4 9.05 24.4 8.7 L24.4 7.05 23.5 7.05 23.5 5.3 24.4 5.3 24.4 4.2 26.3 4.2 26.3 5.3 27.65 5.3 27.65 4.3 29.5 4.3 29.5 5.3 30.6 5.3 30.6 7.05 M26.95 8.5 L27.55 8.0 27.65 7.6 27.65 7.05 26.3 7.05 26.3 7.85 26.4 8.15 26.95 8.5 M29.2 12.25 L29.2 15.55 Q29.2 15.85 29.55 15.85 L33.25 15.85 33.25 17.65 28.4 17.65 Q27.15 17.65 27.15 16.55 L27.15 12.25 29.2 12.25 M26.5 12.1 L25.95 16.35 Q25.8 17.55 24.95 17.55 L23.5 17.55 23.5 15.85 23.75 15.85 24.15 15.35 24.55 12.1 26.5 12.1 M21.75 7.05 L19.25 7.05 19.25 7.2 Q19.0 8.2 18.05 8.2 L17.35 8.2 17.35 6.6 17.5 6.6 17.7 6.25 18.0 4.3 19.85 4.3 19.6 5.4 21.75 5.4 21.75 7.05 M29.95 12.4 L31.95 12.4 31.95 13.4 32.35 13.7 33.25 13.7 33.25 15.35 31.15 15.35 Q29.95 15.35 29.95 14.4 L29.95 12.4 M21.6 16.05 L21.9 16.05 21.9 17.7 20.85 17.7 Q20.15 17.7 19.85 16.5 L19.7 16.05 19.65 16.15 Q19.3 17.7 18.55 17.7 L17.2 17.7 17.2 16.1 17.55 16.1 Q18.0 16.1 18.25 14.95 L18.7 13.0 17.35 8.9 19.0 8.9 19.4 10.05 20.0 7.5 21.8 7.5 20.4 13.15 21.25 15.7 Q21.35 16.05 21.6 16.05 M13.3 4.2 L15.35 4.2 15.0 4.95 17.15 4.95 17.15 9.6 Q17.15 10.7 16.25 10.7 L15.55 10.7 15.55 11.4 17.5 11.4 17.5 13.0 14.4 13.0 14.3 13.4 17.05 13.4 17.05 16.3 Q17.05 17.65 15.5 17.65 L14.5 17.65 14.5 16.1 14.85 16.1 Q15.25 16.1 15.25 15.75 L15.25 14.95 14.1 14.95 13.85 16.75 Q13.7 17.65 13.05 17.65 L11.6 17.65 11.6 16.15 11.95 16.15 12.2 15.65 12.55 13.0 11.8 13.0 11.8 11.4 13.6 11.4 13.6 10.7 12.0 10.7 12.0 4.95 12.95 4.95 13.3 4.2 M10.85 6.15 Q10.95 6.6 11.35 6.6 L11.65 6.6 11.65 8.3 10.35 8.3 Q9.4 8.3 9.2 7.35 L8.55 4.5 10.55 4.5 10.85 6.15 M13.75 7.15 L15.4 7.15 15.4 6.5 13.75 6.5 13.75 7.15 M13.75 9.2 L15.2 9.2 Q15.4 9.2 15.4 8.8 L15.4 8.5 13.75 8.5 13.75 9.2 M11.6 10.9 L11.6 12.6 10.35 12.6 Q9.4 12.6 9.2 11.65 L8.6 8.7 10.65 8.7 10.85 10.4 Q10.95 10.9 11.35 10.9 L11.6 10.9 M9.65 13.3 L11.7 13.3 10.95 16.45 Q10.7 17.55 9.6 17.55 L8.4 17.55 8.4 15.85 8.9 15.85 9.2 15.45 9.65 13.3" fill="#ffff66" fill-rule="evenodd" stroke="none"/>
    </g>
  </defs>
</svg>
