<?xml version="1.0" encoding="UTF-8" standalone="no"?>
<svg xmlns:ffdec="https://www.free-decompiler.com/flash" xmlns:xlink="http://www.w3.org/1999/xlink" ffdec:objectType="frame" height="21.6px" width="45.0px" xmlns="http://www.w3.org/2000/svg">
  <g transform="matrix(1.0, 0.0, 0.0, 1.0, 0.0, 0.0)">
    <use ffdec:characterId="1" height="21.6" transform="matrix(1.0, 0.0, 0.0, 1.0, 0.0, 0.0)" width="45.0" xlink:href="#shape0"/>
  </g>
  <defs>
    <g id="shape0" transform="matrix(1.0, 0.0, 0.0, 1.0, 0.0, 0.0)">
      <path d="M45.0 5.1 L45.0 16.5 44.85 16.85 40.3 21.45 40.05 21.55 39.85 21.6 5.2 21.6 5.0 21.55 4.7 21.45 0.15 16.85 0.0 16.5 0.0 5.1 0.15 4.8 4.7 0.2 5.0 0.1 5.2 0.0 39.85 0.0 40.05 0.1 40.3 0.2 44.85 4.8 45.0 5.1 M43.85 16.35 L43.85 5.25 39.6 1.0 5.45 1.0 1.15 5.25 1.15 16.35 5.45 20.65 39.6 20.65 43.85 16.35" fill="#00ffff" fill-rule="evenodd" stroke="none"/>
      <path d="M42.7 6.4 L42.7 15.25 39.2 15.25 39.2 6.4 42.7 6.4 M38.85 1.7 L42.8 5.55 38.85 5.55 38.85 1.7 M6.3 1.7 L6.3 5.55 2.35 5.55 6.3 1.7 M38.85 20.05 L38.85 16.2 42.8 16.2 38.85 20.05 M5.95 6.45 L5.95 15.15 2.3 15.15 2.3 6.45 5.95 6.45 M6.3 20.05 L2.35 16.2 6.3 16.2 6.3 20.05" fill="#ffff66" fill-rule="evenodd" stroke="none"/>
      <path d="M43.85 16.35 L39.6 20.65 5.45 20.65 1.15 16.35 1.15 5.25 5.45 1.0 39.6 1.0 43.85 5.25 43.85 16.35 M42.7 6.4 L39.2 6.4 39.2 15.25 42.7 15.25 42.7 6.4 M38.85 1.7 L38.85 5.55 42.8 5.55 38.85 1.7 M38.85 20.05 L42.8 16.2 38.85 16.2 38.85 20.05 M6.3 1.7 L2.35 5.55 6.3 5.55 6.3 1.7 M6.3 20.05 L6.3 16.2 2.35 16.2 6.3 20.05 M5.95 6.45 L2.3 6.45 2.3 15.15 5.95 15.15 5.95 6.45" fill="#ffff66" fill-opacity="0.0" fill-rule="evenodd" stroke="none"/>
      <path d="M32.2 6.0 L31.25 10.9 32.7 10.9 33.4 12.0 34.25 10.35 31.9 10.35 31.9 8.75 33.05 8.75 34.3 6.0 32.2 6.0 M36.45 10.4 L34.55 13.95 35.55 15.5 36.0 15.9 36.75 15.9 36.75 17.6 34.85 17.6 Q34.4 17.6 34.1 17.1 L33.45 16.0 32.95 16.95 Q32.6 17.55 31.9 17.55 L30.35 17.55 30.35 15.95 30.95 15.95 Q31.35 15.95 31.6 15.6 L32.35 14.1 31.05 11.85 30.1 16.4 Q29.85 17.8 29.2 17.8 L27.45 17.8 27.45 16.2 28.25 16.2 28.45 15.75 28.55 15.05 28.05 15.05 Q27.25 15.05 27.1 13.75 L26.8 7.75 26.8 17.55 25.1 17.55 25.1 7.75 24.7 15.3 Q24.65 16.05 24.3 16.4 23.95 16.8 23.4 16.8 L22.9 16.8 22.9 15.2 23.25 14.65 23.6 7.75 25.1 7.75 25.1 7.2 23.3 7.2 23.3 5.5 25.1 5.5 25.1 4.2 26.8 4.2 26.8 5.5 28.7 5.5 28.7 7.2 26.8 7.2 26.8 7.75 28.25 7.75 28.55 13.0 Q28.65 13.45 28.85 13.45 L30.05 6.0 28.9 6.0 28.9 4.45 36.45 4.45 36.45 6.3 35.3 8.75 36.45 8.75 36.45 10.4 M21.55 17.75 L14.9 17.75 Q13.65 17.75 13.65 16.7 L13.65 15.1 8.45 15.1 8.45 5.75 13.65 5.75 13.65 4.3 15.8 4.3 15.8 5.75 21.15 5.75 21.15 13.7 Q21.15 15.1 19.55 15.1 L15.8 15.1 15.8 15.7 16.2 15.95 21.55 15.95 21.55 17.75 M10.5 11.35 L10.5 13.15 13.65 13.15 13.65 11.35 10.5 11.35 M13.65 9.5 L13.65 7.65 10.5 7.65 10.5 9.5 13.65 9.5 M15.8 7.65 L15.8 9.5 18.95 9.5 18.95 7.65 15.8 7.65 M15.8 11.35 L15.8 13.15 18.45 13.15 Q18.95 13.15 18.95 12.7 L18.95 11.35 15.8 11.35" fill="#ffff66" fill-rule="evenodd" stroke="none"/>
    </g>
  </defs>
</svg>
