<?xml version="1.0" encoding="UTF-8" standalone="no"?>
<svg xmlns:ffdec="https://www.free-decompiler.com/flash" xmlns:xlink="http://www.w3.org/1999/xlink" ffdec:objectType="frame" height="21.6px" width="45.0px" xmlns="http://www.w3.org/2000/svg">
  <g transform="matrix(1.0, 0.0, 0.0, 1.0, 0.0, 0.0)">
    <use ffdec:characterId="1" height="21.6" transform="matrix(1.0, 0.0, 0.0, 1.0, 0.0, 0.0)" width="45.0" xlink:href="#shape0"/>
  </g>
  <defs>
    <g id="shape0" transform="matrix(1.0, 0.0, 0.0, 1.0, 0.0, 0.0)">
      <path d="M45.0 5.1 L45.0 16.5 44.85 16.85 40.3 21.45 40.05 21.55 39.85 21.6 5.2 21.6 5.0 21.55 4.7 21.45 0.15 16.85 0.0 16.5 0.0 5.1 0.15 4.8 4.7 0.2 5.0 0.1 5.2 0.0 39.85 0.0 40.05 0.1 40.3 0.2 44.85 4.8 45.0 5.1 M43.85 16.35 L43.85 5.25 39.6 1.0 5.45 1.0 1.15 5.25 1.15 16.35 5.45 20.65 39.6 20.65 43.85 16.35" fill="#00ffff" fill-rule="evenodd" stroke="none"/>
      <path d="M42.7 6.4 L42.7 15.25 39.2 15.25 39.2 6.4 42.7 6.4 M38.85 1.7 L42.8 5.55 38.85 5.55 38.85 1.7 M6.3 1.7 L6.3 5.55 2.35 5.55 6.3 1.7 M38.85 20.05 L38.85 16.2 42.8 16.2 38.85 20.05 M5.95 6.45 L5.95 15.15 2.3 15.15 2.3 6.45 5.95 6.45 M6.3 20.05 L2.35 16.2 6.3 16.2 6.3 20.05" fill="#ffff66" fill-rule="evenodd" stroke="none"/>
      <path d="M43.85 16.35 L39.6 20.65 5.45 20.65 1.15 16.35 1.15 5.25 5.45 1.0 39.6 1.0 43.85 5.25 43.85 16.35 M42.7 6.4 L39.2 6.4 39.2 15.25 42.7 15.25 42.7 6.4 M38.85 1.7 L38.85 5.55 42.8 5.55 38.85 1.7 M38.85 20.05 L42.8 16.2 38.85 16.2 38.85 20.05 M6.3 1.7 L2.35 5.55 6.3 5.55 6.3 1.7 M6.3 20.05 L6.3 16.2 2.35 16.2 6.3 20.05 M5.95 6.45 L2.3 6.45 2.3 15.15 5.95 15.15 5.95 6.45" fill="#ffff66" fill-opacity="0.0" fill-rule="evenodd" stroke="none"/>
      <path d="M36.8 5.5 L36.2 5.5 36.2 9.85 37.0 9.85 37.0 11.4 36.2 11.4 36.2 11.9 36.75 11.9 36.75 13.4 35.7 15.15 36.1 15.65 Q36.45 16.0 36.8 16.0 L37.05 16.0 37.05 17.4 36.0 17.4 Q35.65 17.4 35.4 17.1 L34.85 16.5 34.55 17.05 Q34.3 17.4 33.9 17.4 L32.45 17.4 32.45 16.0 33.1 16.0 33.45 15.8 33.75 15.3 32.35 13.7 34.35 13.7 34.55 13.95 34.95 13.35 32.3 13.35 32.3 11.9 34.4 11.9 34.4 11.4 27.8 11.4 27.8 9.85 28.8 9.85 28.8 5.5 27.9 5.5 27.9 3.95 36.8 3.95 36.8 5.5 M30.55 6.1 L34.4 6.1 34.4 5.5 30.55 5.5 30.55 6.1 M34.4 7.4 L30.55 7.4 30.55 7.95 34.4 7.95 34.4 7.4 M30.55 9.85 L34.4 9.85 34.4 9.3 30.55 9.3 30.55 9.85 M28.05 6.15 L28.05 7.85 27.5 7.85 27.5 17.45 25.8 17.45 25.8 7.85 25.35 7.85 25.35 16.6 23.7 16.6 23.7 4.55 25.35 4.55 25.35 6.15 25.8 6.15 25.8 3.8 27.5 3.8 27.5 6.15 28.05 6.15 M22.0 5.05 Q22.0 6.55 20.3 6.55 L19.25 6.55 19.7 8.7 19.95 8.15 21.85 8.15 20.35 11.85 21.05 15.1 21.45 15.45 22.05 15.45 22.05 17.3 20.55 17.3 Q19.65 17.3 19.3 16.0 L19.05 15.0 18.35 16.8 17.05 16.8 17.05 17.35 15.8 17.35 14.95 17.1 14.15 16.45 13.35 17.1 12.55 17.35 11.05 17.35 11.05 15.75 11.75 15.75 12.15 15.65 12.65 15.25 11.7 14.45 11.55 14.1 11.55 12.1 11.05 12.1 11.05 10.55 11.55 10.55 11.55 9.65 13.4 9.65 13.4 10.55 14.8 10.55 14.8 9.65 16.6 9.65 16.6 10.55 17.05 10.55 17.05 12.1 16.6 12.1 16.6 14.2 16.5 14.5 Q16.05 14.9 15.55 15.25 L16.1 15.7 16.55 15.8 16.8 15.8 18.4 11.95 17.25 6.55 10.65 6.55 10.65 15.95 Q10.65 17.35 9.25 17.35 L8.4 17.35 8.4 15.7 8.6 15.7 8.75 15.5 8.75 4.75 16.8 4.75 16.6 3.65 18.65 3.65 18.85 4.75 19.55 4.75 Q20.0 4.75 20.0 4.05 L22.0 4.05 22.0 5.05 M27.85 13.35 L27.85 11.9 32.15 11.9 32.15 13.4 30.9 15.2 31.3 15.65 31.9 16.0 32.15 16.0 32.15 17.35 31.1 17.35 Q30.75 17.35 30.5 17.05 L30.05 16.5 29.7 17.05 Q29.5 17.4 29.0 17.4 L27.75 17.4 27.75 16.0 28.25 16.0 Q28.5 16.0 28.65 15.8 L29.05 15.25 27.75 13.7 29.7 13.7 29.95 13.95 30.35 13.35 27.85 13.35 M11.05 7.35 L17.05 7.35 17.05 9.0 11.05 9.0 11.05 7.35 M13.4 12.1 L13.4 13.4 13.55 13.7 14.1 14.1 14.6 13.75 14.8 13.45 14.8 12.1 13.4 12.1" fill="#ffff66" fill-rule="evenodd" stroke="none"/>
    </g>
  </defs>
</svg>
