<?xml version="1.0" encoding="UTF-8" standalone="no"?>
<svg xmlns:ffdec="https://www.free-decompiler.com/flash" xmlns:xlink="http://www.w3.org/1999/xlink" ffdec:objectType="frame" height="21.6px" width="45.0px" xmlns="http://www.w3.org/2000/svg">
  <g transform="matrix(1.0, 0.0, 0.0, 1.0, 0.0, 0.0)">
    <use ffdec:characterId="1" height="21.6" transform="matrix(1.0, 0.0, 0.0, 1.0, 0.0, 0.0)" width="45.0" xlink:href="#shape0"/>
  </g>
  <defs>
    <g id="shape0" transform="matrix(1.0, 0.0, 0.0, 1.0, 0.0, 0.0)">
      <path d="M45.0 5.1 L45.0 16.5 44.85 16.85 40.3 21.45 40.05 21.55 39.85 21.6 5.2 21.6 5.0 21.55 4.7 21.45 0.15 16.85 0.0 16.5 0.0 5.1 0.15 4.8 4.7 0.2 5.0 0.1 5.2 0.0 39.85 0.0 40.05 0.1 40.3 0.2 44.85 4.8 45.0 5.1 M43.85 16.35 L43.85 5.25 39.6 1.0 5.45 1.0 1.15 5.25 1.15 16.35 5.45 20.65 39.6 20.65 43.85 16.35" fill="#00ffff" fill-rule="evenodd" stroke="none"/>
      <path d="M42.7 6.4 L42.7 15.25 39.2 15.25 39.2 6.4 42.7 6.4 M38.85 1.7 L42.8 5.55 38.85 5.55 38.85 1.7 M6.3 1.7 L6.3 5.55 2.35 5.55 6.3 1.7 M38.85 20.05 L38.85 16.2 42.8 16.2 38.85 20.05 M5.95 6.45 L5.95 15.15 2.3 15.15 2.3 6.45 5.95 6.45 M6.3 20.05 L2.35 16.2 6.3 16.2 6.3 20.05" fill="#ffff66" fill-rule="evenodd" stroke="none"/>
      <path d="M43.85 16.35 L39.6 20.65 5.45 20.65 1.15 16.35 1.15 5.25 5.45 1.0 39.6 1.0 43.85 5.25 43.85 16.35 M42.7 6.4 L39.2 6.4 39.2 15.25 42.7 15.25 42.7 6.4 M38.85 1.7 L38.85 5.55 42.8 5.55 38.85 1.7 M38.85 20.05 L42.8 16.2 38.85 16.2 38.85 20.05 M6.3 1.7 L2.35 5.55 6.3 5.55 6.3 1.7 M6.3 20.05 L6.3 16.2 2.35 16.2 6.3 20.05 M5.95 6.45 L2.3 6.45 2.3 15.15 5.95 15.15 5.95 6.45" fill="#ffff66" fill-opacity="0.0" fill-rule="evenodd" stroke="none"/>
      <path d="M33.25 4.45 L35.6 4.45 35.2 5.45 36.7 5.45 36.7 7.05 32.6 7.05 32.55 7.65 36.45 7.65 36.45 14.3 Q36.45 15.65 34.85 15.65 L26.65 15.65 26.65 7.65 30.2 7.65 30.25 7.05 26.35 7.05 26.35 5.45 27.95 5.45 27.55 4.45 29.85 4.45 30.3 5.45 32.85 5.45 33.25 4.45 M34.25 11.4 L28.8 11.4 28.8 11.95 34.25 11.95 34.25 11.4 M34.25 9.2 L28.8 9.2 28.8 9.85 34.25 9.85 34.25 9.2 M21.8 5.8 L15.95 5.8 15.95 6.15 21.5 6.15 21.5 9.75 19.7 9.75 19.7 7.45 15.95 7.45 15.95 9.9 14.1 9.9 14.1 7.45 10.35 7.45 10.35 9.9 8.55 9.9 8.55 6.15 14.1 6.15 14.1 5.8 8.4 5.8 8.4 4.5 21.8 4.5 21.8 5.8 M23.45 7.85 L25.9 7.85 25.9 15.65 Q25.9 16.25 26.65 16.25 L36.7 16.25 36.7 17.95 26.4 17.95 Q25.85 17.95 25.45 17.4 25.15 17.9 24.35 17.9 L23.45 17.9 23.45 16.3 23.55 16.3 Q23.95 16.3 23.95 15.95 L23.95 9.55 23.45 9.55 23.45 7.85 M23.7 4.65 L25.85 4.65 25.85 7.25 23.7 7.25 23.7 4.65 M28.8 14.1 L33.85 14.1 Q34.25 14.1 34.25 13.55 L34.25 13.5 28.8 13.5 28.8 14.1 M21.4 16.85 Q21.4 17.9 19.9 17.9 L18.75 17.9 18.75 16.65 19.4 16.65 19.75 16.4 19.75 15.65 17.45 15.65 17.45 17.2 Q17.45 17.9 16.75 17.9 L15.65 17.9 15.65 16.5 15.8 16.5 15.9 16.25 15.9 10.2 21.4 10.2 21.4 16.85 M13.65 8.7 L10.75 8.7 10.75 7.8 13.65 7.8 13.65 8.7 M10.45 11.9 L13.2 11.9 13.5 11.7 13.5 11.55 10.45 11.55 10.45 11.9 M10.45 10.45 L13.5 10.45 13.5 10.1 15.0 10.1 15.0 10.45 15.65 10.45 15.65 11.55 15.0 11.55 15.0 12.25 Q15.0 12.95 13.95 12.95 L12.7 12.95 12.7 13.4 15.15 13.4 15.15 15.05 Q15.15 15.85 14.45 15.85 L12.7 15.85 12.7 16.25 15.5 16.25 15.5 17.45 12.7 17.45 12.7 18.0 11.2 18.0 11.2 17.45 8.4 17.45 8.4 16.25 11.2 16.25 11.2 15.85 8.7 15.85 8.7 13.4 11.2 13.4 11.2 12.95 8.95 12.95 8.95 11.55 8.3 11.55 8.3 10.45 8.95 10.45 8.95 10.1 10.45 10.1 10.45 10.45 M13.65 9.85 L10.75 9.85 10.75 9.0 13.65 9.0 13.65 9.85 M19.25 8.7 L16.35 8.7 16.35 7.8 19.25 7.8 19.25 8.7 M17.45 12.3 L19.75 12.3 19.75 11.55 17.45 11.55 17.45 12.3 M16.35 9.85 L16.35 9.0 19.25 9.0 19.25 9.85 16.35 9.85 M19.75 13.55 L17.45 13.55 17.45 14.4 19.75 14.4 19.75 13.55 M13.7 14.4 L12.7 14.4 12.7 14.8 13.6 14.8 13.7 14.75 13.7 14.4 M11.2 14.8 L11.2 14.4 10.2 14.4 10.2 14.8 11.2 14.8" fill="#ffff66" fill-rule="evenodd" stroke="none"/>
    </g>
  </defs>
</svg>
