<?xml version="1.0" encoding="UTF-8" standalone="no"?>
<svg xmlns:ffdec="https://www.free-decompiler.com/flash" xmlns:xlink="http://www.w3.org/1999/xlink" ffdec:objectType="frame" height="21.6px" width="45.0px" xmlns="http://www.w3.org/2000/svg">
  <g transform="matrix(1.0, 0.0, 0.0, 1.0, 0.0, 0.0)">
    <use ffdec:characterId="1" height="21.6" transform="matrix(1.0, 0.0, 0.0, 1.0, 0.0, 0.0)" width="45.0" xlink:href="#shape0"/>
  </g>
  <defs>
    <g id="shape0" transform="matrix(1.0, 0.0, 0.0, 1.0, 0.0, 0.0)">
      <path d="M45.0 5.1 L45.0 16.5 44.85 16.85 40.3 21.45 40.05 21.55 39.85 21.6 5.2 21.6 5.0 21.55 4.7 21.45 0.15 16.85 0.0 16.5 0.0 5.1 0.15 4.8 4.7 0.2 5.0 0.1 5.2 0.0 39.85 0.0 40.05 0.1 40.3 0.2 44.85 4.8 45.0 5.1 M43.85 16.35 L43.85 5.25 39.6 1.0 5.45 1.0 1.15 5.25 1.15 16.35 5.45 20.65 39.6 20.65 43.85 16.35" fill="#00ffff" fill-rule="evenodd" stroke="none"/>
      <path d="M42.7 6.4 L42.7 15.25 39.2 15.25 39.2 6.4 42.7 6.4 M38.85 1.7 L42.8 5.55 38.85 5.55 38.85 1.7 M6.3 1.7 L6.3 5.55 2.35 5.55 6.3 1.7 M38.85 20.05 L38.85 16.2 42.8 16.2 38.85 20.05 M5.95 6.45 L5.95 15.15 2.3 15.15 2.3 6.45 5.95 6.45 M6.3 20.05 L2.35 16.2 6.3 16.2 6.3 20.05" fill="#ffff66" fill-rule="evenodd" stroke="none"/>
      <path d="M43.85 16.35 L39.6 20.65 5.45 20.65 1.15 16.35 1.15 5.25 5.45 1.0 39.6 1.0 43.85 5.25 43.85 16.35 M42.7 6.4 L39.2 6.4 39.2 15.25 42.7 15.25 42.7 6.4 M38.85 1.7 L38.85 5.55 42.8 5.55 38.85 1.7 M38.85 20.05 L42.8 16.2 38.85 16.2 38.85 20.05 M6.3 1.7 L2.35 5.55 6.3 5.55 6.3 1.7 M6.3 20.05 L6.3 16.2 2.35 16.2 6.3 20.05 M5.95 6.45 L2.3 6.45 2.3 15.15 5.95 15.15 5.95 6.45" fill="#ffff66" fill-opacity="0.0" fill-rule="evenodd" stroke="none"/>
      <path d="M31.05 5.15 L36.35 5.15 36.35 6.85 31.05 6.85 31.05 7.9 36.6 7.9 36.6 9.6 23.3 9.6 23.3 7.9 28.8 7.9 28.8 6.85 23.55 6.85 23.55 5.15 28.8 5.15 28.8 4.2 31.05 4.2 31.05 5.15 M33.15 10.0 L35.5 10.0 34.6 11.5 36.35 11.5 36.35 13.25 31.0 13.25 31.0 14.35 36.6 14.35 36.6 16.05 31.0 16.05 31.0 17.75 28.7 17.75 28.7 16.05 23.3 16.05 23.3 14.35 28.7 14.35 28.7 13.25 23.55 13.25 23.55 11.5 25.1 11.5 24.2 10.0 26.55 10.0 27.45 11.5 32.25 11.5 33.15 10.0 M21.45 11.6 L17.15 11.6 Q16.1 11.6 15.85 10.6 L15.75 10.35 12.55 10.35 12.55 8.6 15.25 8.6 14.7 6.9 12.35 7.1 12.35 5.25 14.2 5.1 13.9 4.15 16.1 4.15 16.35 4.95 21.5 4.55 21.5 6.4 16.9 6.7 17.35 8.15 18.35 7.05 21.3 7.05 18.4 9.85 21.45 9.85 21.45 11.6 M21.55 17.85 L18.75 17.85 Q17.55 17.85 17.55 16.8 L17.55 13.8 12.35 13.8 12.35 12.0 21.55 12.0 21.55 13.8 19.65 13.8 19.65 15.8 20.05 16.1 21.55 16.1 21.55 17.85 M12.6 4.25 L11.4 7.65 11.4 17.75 9.35 17.75 9.35 8.9 8.2 8.9 8.2 6.95 9.35 6.95 9.7 6.5 10.35 4.25 12.6 4.25 M15.6 16.9 Q15.3 17.8 14.2 17.8 L12.35 17.8 12.35 16.1 13.5 16.1 13.8 15.8 14.25 14.3 16.35 14.3 15.6 16.9" fill="#ffff66" fill-rule="evenodd" stroke="none"/>
    </g>
  </defs>
</svg>
