<?xml version="1.0" encoding="UTF-8" standalone="no"?>
<svg xmlns:ffdec="https://www.free-decompiler.com/flash" xmlns:xlink="http://www.w3.org/1999/xlink" ffdec:objectType="frame" height="21.6px" width="45.0px" xmlns="http://www.w3.org/2000/svg">
  <g transform="matrix(1.0, 0.0, 0.0, 1.0, 0.0, 0.0)">
    <use ffdec:characterId="1" height="21.6" transform="matrix(1.0, 0.0, 0.0, 1.0, 0.0, 0.0)" width="45.0" xlink:href="#shape0"/>
  </g>
  <defs>
    <g id="shape0" transform="matrix(1.0, 0.0, 0.0, 1.0, 0.0, 0.0)">
      <path d="M45.0 5.1 L45.0 16.5 44.85 16.85 40.3 21.45 40.05 21.55 39.85 21.6 5.2 21.6 5.0 21.55 4.7 21.45 0.15 16.85 0.0 16.5 0.0 5.1 0.15 4.8 4.7 0.2 5.0 0.1 5.2 0.0 39.85 0.0 40.05 0.1 40.3 0.2 44.85 4.8 45.0 5.1 M43.85 16.35 L43.85 5.25 39.6 1.0 5.45 1.0 1.15 5.25 1.15 16.35 5.45 20.65 39.6 20.65 43.85 16.35" fill="#00ffff" fill-rule="evenodd" stroke="none"/>
      <path d="M42.7 6.4 L42.7 15.25 39.2 15.25 39.2 6.4 42.7 6.4 M38.85 1.7 L42.8 5.55 38.85 5.55 38.85 1.7 M6.3 1.7 L6.3 5.55 2.35 5.55 6.3 1.7 M38.85 20.05 L38.85 16.2 42.8 16.2 38.85 20.05 M5.95 6.45 L5.95 15.15 2.3 15.15 2.3 6.45 5.95 6.45 M6.3 20.05 L2.35 16.2 6.3 16.2 6.3 20.05" fill="#ffff66" fill-rule="evenodd" stroke="none"/>
      <path d="M43.85 16.35 L39.6 20.65 5.45 20.65 1.15 16.35 1.15 5.25 5.45 1.0 39.6 1.0 43.85 5.25 43.85 16.35 M42.7 6.4 L39.2 6.4 39.2 15.25 42.7 15.25 42.7 6.4 M38.85 1.7 L38.85 5.55 42.8 5.55 38.85 1.7 M38.85 20.05 L42.8 16.2 38.85 16.2 38.85 20.05 M6.3 1.7 L2.35 5.55 6.3 5.55 6.3 1.7 M6.3 20.05 L6.3 16.2 2.35 16.2 6.3 20.05 M5.95 6.45 L2.3 6.45 2.3 15.15 5.95 15.15 5.95 6.45" fill="#ffff66" fill-opacity="0.0" fill-rule="evenodd" stroke="none"/>
      <path d="M31.2 6.25 L30.75 7.75 Q30.55 8.4 29.6 8.4 L28.35 8.4 25.75 12.9 27.8 12.9 27.8 14.7 23.55 14.7 23.55 12.9 25.1 10.3 23.35 10.3 23.35 8.6 25.5 4.35 27.65 4.35 25.25 8.6 26.1 8.6 26.8 7.35 28.2 7.35 28.2 6.75 28.6 6.75 Q29.05 6.75 29.2 6.4 L29.7 4.55 35.45 4.55 36.0 6.4 Q36.1 6.75 36.55 6.75 L36.95 6.75 36.95 8.4 35.55 8.4 Q34.6 8.4 34.4 7.75 L33.95 6.25 31.2 6.25 M36.5 10.75 L28.6 10.75 28.6 9.05 36.5 9.05 36.5 10.75 M28.15 17.45 L23.4 17.45 23.4 15.65 28.15 15.65 28.15 17.45 M20.25 17.15 Q19.2 17.15 19.0 15.55 L18.0 5.35 18.0 17.85 16.1 17.85 16.1 4.35 18.0 4.35 18.0 5.35 19.9 5.35 20.9 14.75 Q20.95 15.25 21.3 15.25 L21.7 15.25 21.7 17.15 20.25 17.15 M33.8 16.1 L34.25 15.65 34.25 13.35 31.0 13.35 31.0 16.1 33.8 16.1 M34.8 17.75 L29.05 17.75 29.05 11.6 36.25 11.6 36.25 16.5 Q36.25 17.75 34.8 17.75 M15.1 6.1 L8.75 6.1 8.75 4.5 15.1 4.5 15.1 6.1 M14.95 9.15 L14.95 10.5 14.65 11.4 13.85 11.7 13.3 11.7 13.3 10.25 13.4 10.25 Q13.6 10.25 13.6 9.55 L13.6 9.15 14.95 9.15 M14.85 12.2 L14.85 14.7 Q14.85 15.25 15.25 15.45 L15.25 17.55 Q14.35 17.55 13.8 17.15 13.45 16.85 13.45 16.2 L13.45 12.2 14.85 12.2 M15.25 8.65 L12.95 8.65 12.95 17.75 11.05 17.75 11.05 8.65 8.4 8.65 8.4 6.95 15.25 6.95 15.25 8.65 M8.55 17.6 L8.55 15.05 8.95 14.55 8.95 9.15 10.4 9.15 10.4 14.8 Q10.4 15.9 9.95 16.75 9.5 17.45 8.55 17.6" fill="#ffff66" fill-rule="evenodd" stroke="none"/>
    </g>
  </defs>
</svg>
