<?xml version="1.0" encoding="UTF-8" standalone="no"?>
<svg xmlns:ffdec="https://www.free-decompiler.com/flash" xmlns:xlink="http://www.w3.org/1999/xlink" ffdec:objectType="frame" height="21.6px" width="45.0px" xmlns="http://www.w3.org/2000/svg">
  <g transform="matrix(1.0, 0.0, 0.0, 1.0, 0.0, 0.0)">
    <use ffdec:characterId="1" height="21.6" transform="matrix(1.0, 0.0, 0.0, 1.0, 0.0, 0.0)" width="45.0" xlink:href="#shape0"/>
  </g>
  <defs>
    <g id="shape0" transform="matrix(1.0, 0.0, 0.0, 1.0, 0.0, 0.0)">
      <path d="M45.0 5.1 L45.0 16.5 44.85 16.85 40.3 21.45 40.05 21.55 39.85 21.6 5.2 21.6 5.0 21.55 4.7 21.45 0.15 16.85 0.0 16.5 0.0 5.1 0.15 4.8 4.7 0.2 5.0 0.1 5.2 0.0 39.85 0.0 40.05 0.1 40.3 0.2 44.85 4.8 45.0 5.1 M43.85 16.35 L43.85 5.25 39.6 1.0 5.45 1.0 1.15 5.25 1.15 16.35 5.45 20.65 39.6 20.65 43.85 16.35" fill="#00ffff" fill-rule="evenodd" stroke="none"/>
      <path d="M42.7 6.4 L39.2 6.4 39.2 15.25 42.7 15.25 42.7 6.4 M43.85 16.35 L39.6 20.65 5.45 20.65 1.15 16.35 1.15 5.25 5.45 1.0 39.6 1.0 43.85 5.25 43.85 16.35 M38.85 20.05 L42.8 16.2 38.85 16.2 38.85 20.05 M38.85 1.7 L38.85 5.55 42.8 5.55 38.85 1.7 M6.3 1.7 L2.35 5.55 6.3 5.55 6.3 1.7 M6.3 16.2 L2.35 16.2 6.3 20.05 6.3 16.2 M5.95 6.45 L2.3 6.45 2.3 15.15 5.95 15.15 5.95 6.45" fill="#ffff66" fill-opacity="0.0" fill-rule="evenodd" stroke="none"/>
      <path d="M42.7 6.4 L42.7 15.25 39.2 15.25 39.2 6.4 42.7 6.4 M38.85 20.05 L38.85 16.2 42.8 16.2 38.85 20.05 M38.85 1.7 L42.8 5.55 38.85 5.55 38.85 1.7 M6.3 1.7 L6.3 5.55 2.35 5.55 6.3 1.7 M5.95 6.45 L5.95 15.15 2.3 15.15 2.3 6.45 5.95 6.45 M6.3 16.2 L6.3 20.05 2.35 16.2 6.3 16.2" fill="#ffff66" fill-rule="evenodd" stroke="none"/>
      <path d="M31.5 12.15 L33.6 15.3 Q34.0 15.65 34.6 15.65 L36.95 15.65 36.95 17.55 33.7 17.55 Q32.3 17.55 31.7 16.6 L30.2 14.15 28.45 16.6 Q27.85 17.55 26.65 17.55 L23.75 17.55 23.75 15.65 25.7 15.65 Q26.35 15.65 26.75 15.3 L29.0 12.1 29.15 11.65 29.15 4.1 31.35 4.1 31.35 11.65 31.5 12.15 M32.4 11.15 L32.4 9.3 33.7 9.3 Q34.1 9.3 34.2 8.65 L34.75 4.95 36.9 4.95 36.2 9.8 Q36.0 11.15 35.0 11.15 L32.4 11.15 M26.65 9.2 L28.2 9.2 28.2 11.2 25.9 11.2 Q24.6 11.2 24.45 9.75 L24.15 4.95 26.1 4.95 26.45 8.9 26.65 9.2 M20.5 5.8 L16.85 5.8 16.85 7.5 17.8 7.5 17.8 6.45 19.45 6.45 19.45 7.5 20.5 7.5 20.5 5.8 M20.5 14.95 L20.15 14.95 Q19.4 14.95 19.15 14.25 L18.6 12.8 18.15 14.25 Q17.9 14.95 17.2 14.95 L16.85 14.95 16.85 15.7 20.2 15.7 20.5 15.4 20.5 14.95 M20.5 13.25 L20.5 9.15 19.5 9.15 19.55 9.5 20.25 12.7 Q20.3 13.05 20.5 13.25 M21.1 17.3 L15.1 17.3 15.1 4.15 22.25 4.15 22.25 16.25 Q22.25 17.3 21.1 17.3 M12.65 4.1 L12.65 11.6 12.7 12.1 13.75 15.35 14.25 15.7 14.75 15.7 14.75 17.3 12.95 17.3 Q12.45 17.3 12.25 16.6 L11.7 14.8 11.05 16.6 Q10.85 17.3 10.4 17.3 L8.65 17.3 8.65 15.7 9.2 15.7 9.65 15.35 10.75 12.05 10.8 11.6 10.8 4.1 12.65 4.1 M14.75 4.45 L14.75 10.2 Q14.75 10.85 14.35 11.25 14.05 11.6 13.45 11.6 L12.9 11.6 12.9 9.9 Q13.2 9.9 13.2 9.1 L13.2 4.45 14.75 4.45 M10.6 11.6 L9.6 11.6 Q8.65 11.6 8.65 10.65 L8.65 4.45 10.25 4.45 10.25 9.6 Q10.25 9.9 10.55 9.9 L10.6 9.9 10.6 11.6 M16.85 9.15 L16.85 13.25 17.1 12.7 17.8 9.15 16.85 9.15" fill="#ffff66" fill-rule="evenodd" stroke="none"/>
    </g>
  </defs>
</svg>
