<?xml version="1.0" encoding="UTF-8" standalone="no"?>
<svg xmlns:ffdec="https://www.free-decompiler.com/flash" xmlns:xlink="http://www.w3.org/1999/xlink" ffdec:objectType="frame" height="21.6px" width="45.0px" xmlns="http://www.w3.org/2000/svg">
  <g transform="matrix(1.0, 0.0, 0.0, 1.0, 0.0, 0.0)">
    <use ffdec:characterId="1" height="21.6" transform="matrix(1.0, 0.0, 0.0, 1.0, 0.0, 0.0)" width="45.0" xlink:href="#shape0"/>
  </g>
  <defs>
    <g id="shape0" transform="matrix(1.0, 0.0, 0.0, 1.0, 0.0, 0.0)">
      <path d="M45.0 5.1 L45.0 16.5 44.85 16.85 40.3 21.45 40.05 21.55 39.85 21.6 5.2 21.6 5.0 21.55 4.7 21.45 0.15 16.85 0.0 16.5 0.0 5.1 0.15 4.8 4.7 0.2 5.0 0.1 5.2 0.0 39.85 0.0 40.05 0.1 40.3 0.2 44.85 4.8 45.0 5.1 M43.85 16.35 L43.85 5.25 39.6 1.0 5.45 1.0 1.15 5.25 1.15 16.35 5.45 20.65 39.6 20.65 43.85 16.35" fill="#00ffff" fill-rule="evenodd" stroke="none"/>
      <path d="M42.7 6.4 L42.7 15.25 39.2 15.25 39.2 6.4 42.7 6.4 M38.85 1.7 L42.8 5.55 38.85 5.55 38.85 1.7 M6.3 1.7 L6.3 5.55 2.35 5.55 6.3 1.7 M38.85 20.05 L38.85 16.2 42.8 16.2 38.85 20.05 M5.95 6.45 L5.95 15.15 2.3 15.15 2.3 6.45 5.95 6.45 M6.3 20.05 L2.35 16.2 6.3 16.2 6.3 20.05" fill="#ffff66" fill-rule="evenodd" stroke="none"/>
      <path d="M43.85 16.35 L39.6 20.65 5.45 20.65 1.15 16.35 1.15 5.25 5.45 1.0 39.6 1.0 43.85 5.25 43.85 16.35 M42.7 6.4 L39.2 6.4 39.2 15.25 42.7 15.25 42.7 6.4 M38.85 1.7 L38.85 5.55 42.8 5.55 38.85 1.7 M38.85 20.05 L42.8 16.2 38.85 16.2 38.85 20.05 M6.3 1.7 L2.35 5.55 6.3 5.55 6.3 1.7 M6.3 20.05 L6.3 16.2 2.35 16.2 6.3 20.05 M5.95 6.45 L2.3 6.45 2.3 15.15 5.95 15.15 5.95 6.45" fill="#ffff66" fill-opacity="0.0" fill-rule="evenodd" stroke="none"/>
      <path d="M36.4 5.0 Q36.4 6.3 34.85 6.3 L31.85 6.3 31.85 6.95 36.35 6.95 36.35 8.5 31.85 8.5 31.85 9.15 35.95 9.15 35.95 16.05 Q35.95 17.4 34.55 17.4 L26.25 17.4 26.25 9.15 29.7 9.15 29.7 8.5 25.6 8.5 25.6 16.05 Q25.6 17.6 23.95 17.6 L23.0 17.6 23.0 15.85 23.35 15.85 23.65 15.65 23.65 4.65 34.2 4.65 Q34.6 4.65 34.6 4.1 L36.4 4.1 36.4 5.0 M33.95 10.75 L28.2 10.75 28.2 11.35 33.95 11.35 33.95 10.75 M29.7 6.95 L29.7 6.3 25.6 6.3 25.6 6.95 29.7 6.95 M28.2 13.6 L33.95 13.6 33.95 12.9 28.2 12.9 28.2 13.6 M28.2 15.85 L33.55 15.85 Q33.95 15.85 33.95 15.3 L33.95 15.1 28.2 15.1 28.2 15.85 M21.4 15.95 Q21.4 17.55 19.6 17.55 L18.7 17.55 18.7 15.7 18.9 15.7 Q19.4 15.7 19.4 15.3 L19.4 7.05 15.85 7.05 15.55 7.95 Q15.35 8.65 14.95 8.65 L16.45 8.65 15.55 14.2 15.0 15.55 15.65 15.55 Q16.05 15.55 16.3 14.4 L17.25 8.65 19.25 8.65 18.25 15.05 Q17.85 17.3 16.3 17.3 L14.55 17.3 14.55 15.95 13.8 16.15 12.75 16.15 12.75 14.4 13.2 14.4 Q13.5 14.4 13.75 13.4 L14.5 8.65 13.4 8.65 13.4 6.75 13.75 6.75 14.0 6.4 14.7 4.1 16.85 4.1 16.5 5.25 21.4 5.25 21.4 15.95 M10.45 4.15 L12.35 4.15 12.35 6.1 13.1 6.1 13.1 7.9 12.35 7.9 12.35 9.7 13.1 9.7 13.1 11.75 12.35 11.75 12.35 17.55 10.45 17.55 10.45 14.5 9.65 16.15 Q9.2 16.9 7.9 16.9 L7.9 14.7 8.65 14.15 10.45 10.9 10.45 7.9 9.75 7.9 9.7 9.3 9.35 9.95 8.6 10.2 7.8 10.2 7.8 8.55 8.1 8.55 8.25 8.25 8.5 4.5 10.0 4.5 9.9 6.1 10.45 6.1 10.45 4.15" fill="#ffff66" fill-rule="evenodd" stroke="none"/>
    </g>
  </defs>
</svg>
