<?xml version="1.0" encoding="UTF-8" standalone="no"?>
<svg xmlns:ffdec="https://www.free-decompiler.com/flash" xmlns:xlink="http://www.w3.org/1999/xlink" ffdec:objectType="frame" height="21.6px" width="45.0px" xmlns="http://www.w3.org/2000/svg">
  <g transform="matrix(1.0, 0.0, 0.0, 1.0, 0.0, 0.0)">
    <use ffdec:characterId="1" height="21.6" transform="matrix(1.0, 0.0, 0.0, 1.0, 0.0, 0.0)" width="45.0" xlink:href="#shape0"/>
  </g>
  <defs>
    <g id="shape0" transform="matrix(1.0, 0.0, 0.0, 1.0, 0.0, 0.0)">
      <path d="M45.0 5.1 L45.0 16.5 44.85 16.85 40.3 21.45 40.05 21.55 39.85 21.6 5.2 21.6 5.0 21.55 4.7 21.45 0.15 16.85 0.0 16.5 0.0 5.1 0.15 4.8 4.7 0.2 5.0 0.1 5.2 0.0 39.85 0.0 40.05 0.1 40.3 0.2 44.85 4.8 45.0 5.1 M43.85 16.35 L43.85 5.25 39.6 1.0 5.45 1.0 1.15 5.25 1.15 16.35 5.45 20.65 39.6 20.65 43.85 16.35" fill="#00ffff" fill-rule="evenodd" stroke="none"/>
      <path d="M42.7 6.4 L42.7 15.25 39.2 15.25 39.2 6.4 42.7 6.4 M38.85 1.7 L42.8 5.55 38.85 5.55 38.85 1.7 M6.3 1.7 L6.3 5.55 2.35 5.55 6.3 1.7 M38.85 20.05 L38.85 16.2 42.8 16.2 38.85 20.05 M5.95 6.45 L5.95 15.15 2.3 15.15 2.3 6.45 5.95 6.45 M6.3 20.05 L2.35 16.2 6.3 16.2 6.3 20.05" fill="#ffff66" fill-rule="evenodd" stroke="none"/>
      <path d="M43.85 16.35 L39.6 20.65 5.45 20.65 1.15 16.35 1.15 5.25 5.45 1.0 39.6 1.0 43.85 5.25 43.85 16.35 M42.7 6.4 L39.2 6.4 39.2 15.25 42.7 15.25 42.7 6.4 M38.85 1.7 L38.85 5.55 42.8 5.55 38.85 1.7 M38.85 20.05 L42.8 16.2 38.85 16.2 38.85 20.05 M6.3 1.7 L2.35 5.55 6.3 5.55 6.3 1.7 M6.3 20.05 L6.3 16.2 2.35 16.2 6.3 20.05 M5.95 6.45 L2.3 6.45 2.3 15.15 5.95 15.15 5.95 6.45" fill="#ffff66" fill-opacity="0.0" fill-rule="evenodd" stroke="none"/>
      <path d="M35.25 4.2 L37.35 4.2 35.8 7.55 35.1 8.0 32.45 8.0 32.45 6.4 34.05 6.4 34.45 6.0 35.25 4.2 M32.25 11.1 L24.1 11.1 24.1 9.6 27.15 9.6 27.15 9.15 24.4 9.15 24.4 4.4 31.85 4.4 31.85 8.15 Q31.85 9.15 30.5 9.15 L29.1 9.15 29.1 9.6 32.25 9.6 32.25 11.1 M34.1 10.95 L34.6 10.5 35.55 8.35 37.65 8.35 35.9 12.05 Q35.7 12.6 35.2 12.6 L32.6 12.6 32.6 10.95 34.1 10.95 M26.25 6.15 L30.0 6.15 30.0 5.75 26.25 5.75 26.25 6.15 M26.25 7.75 L29.6 7.75 Q30.0 7.75 30.0 7.5 L30.0 7.35 26.25 7.35 26.25 7.75 M21.55 8.65 Q21.55 10.2 19.75 10.2 L18.9 10.2 18.9 8.6 19.3 8.6 19.65 8.3 19.65 6.2 18.55 6.2 17.95 8.95 Q17.7 10.2 16.55 10.2 L15.55 10.2 15.55 8.6 15.85 8.6 16.2 8.05 16.5 6.2 15.6 6.2 15.6 4.45 21.55 4.45 21.55 8.65 M29.85 13.15 L29.85 12.75 26.3 12.75 26.3 13.25 29.65 13.25 29.85 13.15 M27.35 16.15 L27.35 14.4 24.45 14.4 24.45 11.6 31.75 11.6 31.75 13.5 Q31.75 14.4 30.8 14.4 L29.05 14.4 29.05 17.0 Q29.05 17.75 28.05 17.75 L26.8 17.75 26.8 16.4 27.1 16.4 27.35 16.15 M29.35 14.85 L30.95 14.85 31.25 15.8 Q31.35 16.1 31.6 16.1 L32.15 16.1 32.15 17.55 30.8 17.55 Q30.35 17.55 30.05 16.9 L29.35 14.85 M26.0 16.95 Q25.7 17.65 25.1 17.65 L24.1 17.65 24.1 16.15 24.45 16.15 24.75 15.85 25.1 14.85 26.8 14.85 26.0 16.95 M21.75 17.7 L11.1 17.7 Q10.45 17.7 10.1 16.7 9.8 17.75 8.85 17.75 L8.05 17.75 8.05 15.9 8.25 15.9 8.5 15.3 8.95 12.15 10.9 12.15 10.65 13.75 11.45 15.45 11.45 10.8 8.35 10.8 8.35 8.9 10.9 8.9 10.9 7.1 8.55 7.1 8.55 5.25 10.9 5.25 10.9 4.25 13.05 4.25 13.05 5.25 15.1 5.25 15.1 7.1 13.05 7.1 13.05 8.9 15.2 8.9 15.2 10.8 13.5 10.8 13.5 11.8 15.1 11.8 15.1 13.7 13.5 13.7 13.5 15.9 21.75 15.9 21.75 17.7 M37.7 13.05 L36.0 17.0 Q35.8 17.55 35.3 17.55 L32.45 17.55 32.45 15.9 34.25 15.9 34.7 15.45 35.6 13.05 37.7 13.05 M21.55 14.15 Q21.55 15.4 20.1 15.4 L15.5 15.4 15.5 10.6 21.55 10.6 21.55 14.15 M17.5 12.15 L17.5 13.7 19.1 13.7 Q19.6 13.7 19.6 13.3 L19.6 12.15 17.5 12.15" fill="#ffff66" fill-rule="evenodd" stroke="none"/>
    </g>
  </defs>
</svg>
