<?xml version="1.0" encoding="UTF-8" standalone="no"?>
<svg xmlns:ffdec="https://www.free-decompiler.com/flash" xmlns:xlink="http://www.w3.org/1999/xlink" ffdec:objectType="frame" height="21.6px" width="45.0px" xmlns="http://www.w3.org/2000/svg">
  <g transform="matrix(1.0, 0.0, 0.0, 1.0, 0.0, 0.0)">
    <use ffdec:characterId="1" height="21.6" transform="matrix(1.0, 0.0, 0.0, 1.0, 0.0, 0.0)" width="45.0" xlink:href="#shape0"/>
  </g>
  <defs>
    <g id="shape0" transform="matrix(1.0, 0.0, 0.0, 1.0, 0.0, 0.0)">
      <path d="M45.0 5.1 L45.0 16.5 44.85 16.85 40.3 21.45 40.05 21.55 39.85 21.6 5.2 21.6 5.0 21.55 4.7 21.45 0.15 16.85 0.0 16.5 0.0 5.1 0.15 4.8 4.7 0.2 5.0 0.1 5.2 0.0 39.85 0.0 40.05 0.1 40.3 0.2 44.85 4.8 45.0 5.1 M43.85 16.35 L43.85 5.25 39.6 1.0 5.45 1.0 1.15 5.25 1.15 16.35 5.45 20.65 39.6 20.65 43.85 16.35" fill="#00ffff" fill-rule="evenodd" stroke="none"/>
      <path d="M42.7 6.4 L42.7 15.25 39.2 15.25 39.2 6.4 42.7 6.4 M38.85 1.7 L42.8 5.55 38.85 5.55 38.85 1.7 M6.3 1.7 L6.3 5.55 2.35 5.55 6.3 1.7 M38.85 20.05 L38.85 16.2 42.8 16.2 38.85 20.05 M5.95 6.45 L5.95 15.15 2.3 15.15 2.3 6.45 5.95 6.45 M6.3 20.05 L2.35 16.2 6.3 16.2 6.3 20.05" fill="#ffff66" fill-rule="evenodd" stroke="none"/>
      <path d="M43.85 16.35 L39.6 20.65 5.45 20.65 1.15 16.35 1.15 5.25 5.45 1.0 39.6 1.0 43.85 5.25 43.85 16.35 M42.7 6.4 L39.2 6.4 39.2 15.25 42.7 15.25 42.7 6.4 M38.85 1.7 L38.85 5.55 42.8 5.55 38.85 1.7 M38.85 20.05 L42.8 16.2 38.85 16.2 38.85 20.05 M6.3 1.7 L2.35 5.55 6.3 5.55 6.3 1.7 M6.3 20.05 L6.3 16.2 2.35 16.2 6.3 20.05 M5.95 6.45 L2.3 6.45 2.3 15.15 5.95 15.15 5.95 6.45" fill="#ffff66" fill-opacity="0.0" fill-rule="evenodd" stroke="none"/>
      <path d="M33.05 4.5 L35.25 4.5 35.25 10.3 36.7 10.3 36.7 12.2 35.25 12.2 35.25 18.1 33.05 18.1 33.05 12.2 27.75 12.2 27.75 16.1 Q27.75 16.95 27.2 17.5 26.8 18.0 25.95 18.0 L23.5 18.0 23.5 16.25 25.2 16.25 Q25.6 16.25 25.6 15.4 L25.6 12.2 23.4 12.2 23.4 10.3 25.6 10.3 25.6 6.85 23.45 6.85 23.45 5.1 27.75 5.1 Q28.2 5.1 28.35 4.5 L30.35 4.5 Q30.25 5.85 29.8 6.35 29.35 6.85 28.5 6.85 L27.75 6.85 27.75 10.3 33.05 10.3 33.05 4.5 M21.55 17.8 L10.3 17.8 Q9.05 17.8 9.0 16.9 L11.6 6.55 8.45 6.55 8.45 4.65 14.15 4.65 11.6 15.5 Q11.6 15.9 11.95 15.9 L21.55 15.9 21.55 17.8 M21.2 14.8 L16.7 14.8 Q15.65 14.8 15.25 13.45 L14.1 10.45 16.45 10.45 17.25 12.5 17.75 12.9 21.2 12.9 21.2 14.8 M18.25 5.0 L20.6 5.0 19.75 8.3 Q19.45 9.5 18.15 9.5 L14.1 9.5 14.1 7.6 17.4 7.6 17.75 7.2 18.25 5.0" fill="#ffff66" fill-rule="evenodd" stroke="none"/>
    </g>
  </defs>
</svg>
