<?xml version="1.0" encoding="UTF-8" standalone="no"?>
<svg xmlns:ffdec="https://www.free-decompiler.com/flash" xmlns:xlink="http://www.w3.org/1999/xlink" ffdec:objectType="frame" height="21.6px" width="45.0px" xmlns="http://www.w3.org/2000/svg">
  <g transform="matrix(1.0, 0.0, 0.0, 1.0, 0.0, 0.0)">
    <use ffdec:characterId="1" height="21.6" transform="matrix(1.0, 0.0, 0.0, 1.0, 0.0, 0.0)" width="45.0" xlink:href="#shape0"/>
  </g>
  <defs>
    <g id="shape0" transform="matrix(1.0, 0.0, 0.0, 1.0, 0.0, 0.0)">
      <path d="M45.0 5.1 L45.0 16.5 44.85 16.85 40.3 21.45 40.05 21.55 39.85 21.6 5.2 21.6 5.0 21.55 4.7 21.45 0.15 16.85 0.0 16.5 0.0 5.1 0.15 4.8 4.7 0.2 5.0 0.1 5.2 0.0 39.85 0.0 40.05 0.1 40.3 0.2 44.85 4.8 45.0 5.1 M43.85 16.35 L43.85 5.25 39.6 1.0 5.45 1.0 1.15 5.25 1.15 16.35 5.45 20.65 39.6 20.65 43.85 16.35" fill="#00ffff" fill-rule="evenodd" stroke="none"/>
      <path d="M42.7 6.4 L42.7 15.25 39.2 15.25 39.2 6.4 42.7 6.4 M38.85 1.7 L42.8 5.55 38.85 5.55 38.85 1.7 M6.3 1.7 L6.3 5.55 2.35 5.55 6.3 1.7 M38.85 20.05 L38.85 16.2 42.8 16.2 38.85 20.05 M5.95 6.45 L5.95 15.15 2.3 15.15 2.3 6.45 5.95 6.45 M6.3 20.05 L2.35 16.2 6.3 16.2 6.3 20.05" fill="#ffff66" fill-rule="evenodd" stroke="none"/>
      <path d="M43.85 16.35 L39.6 20.65 5.45 20.65 1.15 16.35 1.15 5.25 5.45 1.0 39.6 1.0 43.85 5.25 43.85 16.35 M42.7 6.4 L39.2 6.4 39.2 15.25 42.7 15.25 42.7 6.4 M38.85 1.7 L38.85 5.55 42.8 5.55 38.85 1.7 M38.85 20.05 L42.8 16.2 38.85 16.2 38.85 20.05 M6.3 1.7 L2.35 5.55 6.3 5.55 6.3 1.7 M6.3 20.05 L6.3 16.2 2.35 16.2 6.3 20.05 M5.95 6.45 L2.3 6.45 2.3 15.15 5.95 15.15 5.95 6.45" fill="#ffff66" fill-opacity="0.0" fill-rule="evenodd" stroke="none"/>
      <path d="M36.4 5.55 Q36.4 7.1 34.7 7.1 L26.0 7.1 26.0 9.65 36.6 9.65 36.6 11.4 34.15 11.4 34.15 17.9 32.0 17.9 32.0 11.4 26.0 11.4 26.0 16.3 Q26.0 17.9 24.3 17.9 L23.3 17.9 23.3 16.05 23.65 16.05 24.0 15.9 24.0 5.35 33.95 5.35 Q34.4 5.35 34.4 4.45 L36.4 4.45 36.4 5.55 M20.55 6.6 Q20.1 7.2 19.15 7.2 L16.05 7.2 16.05 10.45 21.7 10.45 21.7 12.4 16.05 12.4 16.05 17.95 13.9 17.95 13.9 12.4 8.2 12.4 8.2 10.45 13.9 10.45 13.9 7.2 8.8 7.2 8.8 5.35 18.25 5.35 Q18.75 5.35 18.95 4.4 L21.15 4.4 Q21.05 5.95 20.55 6.6" fill="#ffff66" fill-rule="evenodd" stroke="none"/>
    </g>
  </defs>
</svg>
