<?xml version="1.0" encoding="UTF-8" standalone="no"?>
<svg xmlns:ffdec="https://www.free-decompiler.com/flash" xmlns:xlink="http://www.w3.org/1999/xlink" ffdec:objectType="frame" height="21.6px" width="45.0px" xmlns="http://www.w3.org/2000/svg">
  <g transform="matrix(1.0, 0.0, 0.0, 1.0, 0.0, 0.0)">
    <use ffdec:characterId="1" height="21.6" transform="matrix(1.0, 0.0, 0.0, 1.0, 0.0, 0.0)" width="45.0" xlink:href="#shape0"/>
  </g>
  <defs>
    <g id="shape0" transform="matrix(1.0, 0.0, 0.0, 1.0, 0.0, 0.0)">
      <path d="M45.0 5.1 L45.0 16.5 44.85 16.85 40.3 21.45 40.05 21.55 39.85 21.6 5.2 21.6 5.0 21.55 4.7 21.45 0.15 16.85 0.0 16.5 0.0 5.1 0.15 4.8 4.7 0.2 5.0 0.1 5.2 0.0 39.85 0.0 40.05 0.1 40.3 0.2 44.85 4.8 45.0 5.1 M43.85 16.35 L43.85 5.25 39.6 1.0 5.45 1.0 1.15 5.25 1.15 16.35 5.45 20.65 39.6 20.65 43.85 16.35" fill="#00ffff" fill-rule="evenodd" stroke="none"/>
      <path d="M42.7 6.4 L42.7 15.25 39.2 15.25 39.2 6.4 42.7 6.4 M38.85 1.7 L42.8 5.55 38.85 5.55 38.85 1.7 M6.3 1.7 L6.3 5.55 2.35 5.55 6.3 1.7 M38.85 20.05 L38.85 16.2 42.8 16.2 38.85 20.05 M5.95 6.45 L5.95 15.15 2.3 15.15 2.3 6.45 5.95 6.45 M6.3 20.05 L2.35 16.2 6.3 16.2 6.3 20.05" fill="#ffff66" fill-rule="evenodd" stroke="none"/>
      <path d="M43.85 16.35 L39.6 20.65 5.45 20.65 1.15 16.35 1.15 5.25 5.45 1.0 39.6 1.0 43.85 5.25 43.85 16.35 M42.7 6.4 L39.2 6.4 39.2 15.25 42.7 15.25 42.7 6.4 M38.85 1.7 L38.85 5.55 42.8 5.55 38.85 1.7 M38.85 20.05 L42.8 16.2 38.85 16.2 38.85 20.05 M6.3 1.7 L2.35 5.55 6.3 5.55 6.3 1.7 M6.3 20.05 L6.3 16.2 2.35 16.2 6.3 20.05 M5.95 6.45 L2.3 6.45 2.3 15.15 5.95 15.15 5.95 6.45" fill="#ffff66" fill-opacity="0.0" fill-rule="evenodd" stroke="none"/>
      <path d="M31.25 4.5 L36.7 4.5 36.7 7.1 34.6 7.1 34.6 6.15 25.7 6.15 25.7 7.1 23.6 7.1 23.6 4.5 28.9 4.5 28.9 3.7 31.25 3.7 31.25 4.5 M34.0 10.85 L23.6 10.85 23.6 9.35 36.1 9.35 36.1 11.7 Q36.1 12.9 35.0 12.9 L26.1 12.9 26.1 13.5 26.4 13.6 36.7 13.6 36.7 16.3 Q36.7 17.4 35.65 17.4 L23.55 17.4 23.55 15.95 32.95 15.95 34.6 15.75 34.6 15.05 25.1 15.05 Q24.05 15.05 24.05 13.95 L24.05 11.55 33.7 11.55 34.0 11.45 34.0 10.85 M30.7 6.55 L33.0 6.55 33.5 7.35 34.1 7.55 36.9 7.55 36.9 9.1 32.9 9.1 Q32.25 9.1 31.8 8.45 L30.7 6.55 M21.9 4.55 L21.9 6.3 20.45 6.3 20.45 7.1 18.3 7.1 18.3 6.3 12.05 6.3 12.05 7.1 9.95 7.1 9.95 6.3 8.4 6.3 8.4 4.55 9.95 4.55 9.95 3.85 12.05 3.85 12.05 4.55 18.3 4.55 18.3 3.85 20.45 3.85 20.45 4.55 21.9 4.55 M21.9 9.85 L18.85 9.85 17.95 9.6 16.7 8.85 13.85 8.85 12.75 9.6 11.95 9.85 8.4 9.85 8.4 8.0 11.2 8.0 11.75 7.75 12.65 7.05 17.9 7.05 18.95 7.75 19.55 8.0 21.9 8.0 21.9 9.85 M23.5 7.5 L26.0 7.5 Q26.35 7.5 26.45 7.3 L27.0 6.55 29.3 6.55 28.15 8.4 Q27.8 9.05 26.85 9.05 L23.5 9.05 23.5 7.5 M21.75 17.25 L10.65 17.25 Q8.95 17.25 8.95 15.45 L8.95 10.4 21.4 10.4 21.4 13.0 Q21.4 14.6 19.8 14.6 L13.6 14.6 13.6 12.95 18.45 12.95 18.9 12.65 18.9 12.0 11.45 12.0 11.45 15.05 Q11.45 15.4 11.95 15.4 L21.75 15.4 21.75 17.25" fill="#ffff66" fill-rule="evenodd" stroke="none"/>
    </g>
  </defs>
</svg>
