<?xml version="1.0" encoding="UTF-8" standalone="no"?>
<svg xmlns:ffdec="https://www.free-decompiler.com/flash" xmlns:xlink="http://www.w3.org/1999/xlink" ffdec:objectType="frame" height="21.6px" width="45.0px" xmlns="http://www.w3.org/2000/svg">
  <g transform="matrix(1.0, 0.0, 0.0, 1.0, 0.0, 0.0)">
    <use ffdec:characterId="1" height="21.6" transform="matrix(1.0, 0.0, 0.0, 1.0, 0.0, 0.0)" width="45.0" xlink:href="#shape0"/>
  </g>
  <defs>
    <g id="shape0" transform="matrix(1.0, 0.0, 0.0, 1.0, 0.0, 0.0)">
      <path d="M44.85 4.8 L45.0 5.1 45.0 16.5 44.85 16.85 40.3 21.45 40.05 21.55 39.85 21.6 5.2 21.6 5.0 21.55 4.7 21.45 0.15 16.85 0.0 16.5 0.0 5.1 0.15 4.8 4.7 0.2 5.0 0.1 5.2 0.0 39.85 0.0 40.05 0.1 40.3 0.2 44.85 4.8 M43.85 16.35 L43.85 5.25 39.6 1.0 5.45 1.0 1.15 5.25 1.15 16.35 5.45 20.65 39.6 20.65 43.85 16.35" fill="#00ffff" fill-rule="evenodd" stroke="none"/>
      <path d="M42.7 6.4 L42.7 15.25 39.2 15.25 39.2 6.4 42.7 6.4 M38.85 1.7 L42.8 5.55 38.85 5.55 38.85 1.7 M6.3 1.7 L6.3 5.55 2.35 5.55 6.3 1.7 M38.85 20.05 L38.85 16.2 42.8 16.2 38.85 20.05 M5.95 6.45 L5.95 15.15 2.3 15.15 2.3 6.45 5.95 6.45 M2.35 16.2 L6.3 16.2 6.3 20.05 2.35 16.2" fill="#ffff66" fill-rule="evenodd" stroke="none"/>
      <path d="M43.85 16.35 L39.6 20.65 5.45 20.65 1.15 16.35 1.15 5.25 5.45 1.0 39.6 1.0 43.85 5.25 43.85 16.35 M42.7 6.4 L39.2 6.4 39.2 15.25 42.7 15.25 42.7 6.4 M38.85 1.7 L38.85 5.55 42.8 5.55 38.85 1.7 M38.85 20.05 L42.8 16.2 38.85 16.2 38.85 20.05 M6.3 1.7 L2.35 5.55 6.3 5.55 6.3 1.7 M2.35 16.2 L6.3 20.05 6.3 16.2 2.35 16.2 M5.95 6.45 L2.3 6.45 2.3 15.15 5.95 15.15 5.95 6.45" fill="#ffff66" fill-opacity="0.0" fill-rule="evenodd" stroke="none"/>
      <path d="M32.3 6.25 L32.3 17.6 30.35 17.6 30.35 4.4 36.65 4.4 36.65 14.05 Q36.65 14.85 36.15 15.4 35.75 15.85 35.0 15.85 L33.4 15.85 33.4 14.0 34.3 14.0 Q34.7 14.0 34.7 13.15 L34.7 6.25 32.3 6.25 M29.75 4.95 Q29.75 6.4 28.15 6.4 L25.35 6.4 25.35 9.75 29.7 9.75 29.7 11.5 25.35 11.5 25.35 14.8 Q25.35 15.2 25.65 15.2 L29.75 15.2 29.75 17.0 24.8 17.0 Q23.35 17.0 23.35 15.7 L23.35 4.75 27.45 4.75 Q27.75 4.75 27.9 4.15 L29.75 4.15 29.75 4.95 M21.7 11.65 L18.65 11.65 18.65 15.5 Q18.65 15.75 19.1 15.75 L21.45 15.75 21.45 17.55 17.8 17.55 Q16.5 17.55 16.5 16.5 L16.5 11.65 8.5 11.65 8.5 9.85 14.05 9.85 14.05 4.15 16.2 4.15 16.2 9.85 21.7 9.85 21.7 11.65 M20.5 7.9 Q20.2 8.85 18.95 8.85 L17.05 8.85 17.05 7.05 18.2 7.05 18.6 6.75 19.1 5.1 21.3 5.1 20.5 7.9 M12.1 7.05 L13.3 7.05 13.3 8.85 11.3 8.85 Q10.25 8.85 9.95 7.95 L9.0 5.1 11.25 5.1 11.8 6.75 12.1 7.05 M8.7 15.7 L10.45 15.7 10.95 15.3 11.45 12.6 13.65 12.6 12.95 16.45 Q12.8 17.55 11.75 17.55 L8.7 17.55 8.7 15.7" fill="#ffff66" fill-rule="evenodd" stroke="none"/>
    </g>
  </defs>
</svg>
