<?xml version="1.0" encoding="UTF-8" standalone="no"?>
<svg xmlns:ffdec="https://www.free-decompiler.com/flash" xmlns:xlink="http://www.w3.org/1999/xlink" ffdec:objectType="frame" height="21.6px" width="45.0px" xmlns="http://www.w3.org/2000/svg">
  <g transform="matrix(1.0, 0.0, 0.0, 1.0, 0.0, 0.0)">
    <use ffdec:characterId="1" height="21.6" transform="matrix(1.0, 0.0, 0.0, 1.0, 0.0, 0.0)" width="45.0" xlink:href="#shape0"/>
  </g>
  <defs>
    <g id="shape0" transform="matrix(1.0, 0.0, 0.0, 1.0, 0.0, 0.0)">
      <path d="M44.85 4.8 L45.0 5.1 45.0 16.5 44.85 16.85 40.3 21.45 40.05 21.55 39.85 21.6 5.2 21.6 5.0 21.55 4.7 21.45 0.15 16.85 0.0 16.5 0.0 5.1 0.15 4.8 4.7 0.2 5.0 0.1 5.2 0.0 39.85 0.0 40.05 0.1 40.3 0.2 44.85 4.8 M43.85 16.35 L43.85 5.25 39.6 1.0 5.45 1.0 1.15 5.25 1.15 16.35 5.45 20.65 39.6 20.65 43.85 16.35" fill="#00ffff" fill-rule="evenodd" stroke="none"/>
      <path d="M42.7 6.4 L42.7 15.25 39.2 15.25 39.2 6.4 42.7 6.4 M38.85 1.7 L42.8 5.55 38.85 5.55 38.85 1.7 M6.3 1.7 L6.3 5.55 2.35 5.55 6.3 1.7 M38.85 20.05 L38.85 16.2 42.8 16.2 38.85 20.05 M5.95 6.45 L5.95 15.15 2.3 15.15 2.3 6.45 5.95 6.45 M2.35 16.2 L6.3 16.2 6.3 20.05 2.35 16.2" fill="#ffff66" fill-rule="evenodd" stroke="none"/>
      <path d="M43.85 16.35 L39.6 20.65 5.45 20.65 1.15 16.35 1.15 5.25 5.45 1.0 39.6 1.0 43.85 5.25 43.85 16.35 M42.7 6.4 L39.2 6.4 39.2 15.25 42.7 15.25 42.7 6.4 M38.85 1.7 L38.85 5.55 42.8 5.55 38.85 1.7 M38.85 20.05 L42.8 16.2 38.85 16.2 38.85 20.05 M6.3 1.7 L2.35 5.55 6.3 5.55 6.3 1.7 M2.35 16.2 L6.3 20.05 6.3 16.2 2.35 16.2 M5.95 6.45 L2.3 6.45 2.3 15.15 5.95 15.15 5.95 6.45" fill="#ffff66" fill-opacity="0.0" fill-rule="evenodd" stroke="none"/>
      <path d="M36.8 5.85 L36.8 7.6 34.95 7.6 Q34.5 7.6 34.2 7.25 L33.15 5.95 27.4 5.95 26.3 7.25 25.45 7.6 23.5 7.6 23.5 5.85 24.65 5.85 25.15 5.45 26.05 4.15 34.5 4.15 35.3 5.45 35.8 5.85 36.8 5.85 M31.15 10.9 L36.5 10.9 36.5 12.55 31.15 12.55 31.15 15.85 36.7 15.85 36.7 17.5 23.55 17.5 23.55 15.85 29.1 15.85 29.1 12.55 23.75 12.55 23.75 10.9 29.1 10.9 29.1 9.8 23.95 9.8 23.95 8.15 36.25 8.15 36.25 9.8 31.15 9.8 31.15 10.9 M21.9 9.8 L13.85 9.8 13.85 8.05 14.75 8.05 14.25 6.8 16.5 6.8 17.0 8.05 18.85 8.05 19.5 6.8 21.7 6.8 21.1 8.05 21.9 8.05 21.9 9.8 M21.8 6.4 L13.9 6.4 13.9 4.65 16.9 4.65 16.9 3.95 19.15 3.95 19.15 4.65 21.8 4.65 21.8 6.4 M25.7 15.4 Q24.7 15.4 24.3 14.3 L23.9 13.1 26.05 13.1 26.15 13.6 26.5 13.9 28.2 13.9 28.2 15.4 25.7 15.4 M35.55 15.0 Q35.1 15.4 34.5 15.4 L32.05 15.4 32.05 13.9 33.65 13.9 Q34.05 13.9 34.3 13.1 L36.5 13.1 Q36.0 14.6 35.55 15.0 M21.7 16.15 Q21.7 17.6 20.2 17.6 L14.2 17.6 14.2 10.45 21.7 10.45 21.7 16.15 M10.45 6.05 L10.45 9.9 11.45 9.9 11.45 6.05 10.45 6.05 M10.45 11.65 L10.45 15.75 11.1 15.75 Q11.45 15.75 11.45 15.2 L11.45 11.65 10.45 11.65 M16.3 12.2 L16.3 13.2 19.6 13.2 19.6 12.2 16.3 12.2 M19.6 15.25 L19.6 14.85 16.3 14.85 16.3 15.85 19.2 15.85 Q19.6 15.85 19.6 15.25 M12.0 17.55 L8.55 17.55 8.55 4.3 13.4 4.3 13.4 16.05 Q13.4 17.55 12.0 17.55" fill="#ffff66" fill-rule="evenodd" stroke="none"/>
    </g>
  </defs>
</svg>
