<?xml version="1.0" encoding="UTF-8" standalone="no"?>
<svg xmlns:ffdec="https://www.free-decompiler.com/flash" xmlns:xlink="http://www.w3.org/1999/xlink" ffdec:objectType="frame" height="21.6px" width="45.0px" xmlns="http://www.w3.org/2000/svg">
  <g transform="matrix(1.0, 0.0, 0.0, 1.0, 0.0, 0.0)">
    <use ffdec:characterId="1" height="21.6" transform="matrix(1.0, 0.0, 0.0, 1.0, 0.0, 0.0)" width="45.0" xlink:href="#shape0"/>
  </g>
  <defs>
    <g id="shape0" transform="matrix(1.0, 0.0, 0.0, 1.0, 0.0, 0.0)">
      <path d="M45.0 5.1 L45.0 16.5 44.85 16.85 40.3 21.45 40.05 21.55 39.85 21.6 5.2 21.6 5.0 21.55 4.7 21.45 0.15 16.85 0.0 16.5 0.0 5.1 0.15 4.8 4.7 0.2 5.0 0.1 5.2 0.0 39.85 0.0 40.05 0.1 40.3 0.2 44.85 4.8 45.0 5.1 M43.85 16.35 L43.85 5.25 39.6 1.0 5.45 1.0 1.15 5.25 1.15 16.35 5.45 20.65 39.6 20.65 43.85 16.35" fill="#00ffff" fill-rule="evenodd" stroke="none"/>
      <path d="M42.7 6.4 L42.7 15.25 39.2 15.25 39.2 6.4 42.7 6.4 M38.85 1.7 L42.8 5.55 38.85 5.55 38.85 1.7 M6.3 1.7 L6.3 5.55 2.35 5.55 6.3 1.7 M38.85 20.05 L38.85 16.2 42.8 16.2 38.85 20.05 M5.95 6.45 L5.95 15.15 2.3 15.15 2.3 6.45 5.95 6.45 M6.3 20.05 L2.35 16.2 6.3 16.2 6.3 20.05" fill="#ffff66" fill-rule="evenodd" stroke="none"/>
      <path d="M43.85 16.35 L39.6 20.65 5.45 20.65 1.15 16.35 1.15 5.25 5.45 1.0 39.6 1.0 43.85 5.25 43.85 16.35 M42.7 6.4 L39.2 6.4 39.2 15.25 42.7 15.25 42.7 6.4 M38.85 1.7 L38.85 5.55 42.8 5.55 38.85 1.7 M38.85 20.05 L42.8 16.2 38.85 16.2 38.85 20.05 M6.3 1.7 L2.35 5.55 6.3 5.55 6.3 1.7 M6.3 20.05 L6.3 16.2 2.35 16.2 6.3 20.05 M5.95 6.45 L2.3 6.45 2.3 15.15 5.95 15.15 5.95 6.45" fill="#ffff66" fill-opacity="0.0" fill-rule="evenodd" stroke="none"/>
      <path d="M33.95 8.45 L26.45 8.45 26.45 9.05 33.95 9.05 33.95 8.45 M33.95 10.6 L26.45 10.6 26.45 11.25 33.75 11.25 Q33.95 11.25 33.95 10.85 L33.95 10.6 M36.8 6.7 L34.7 6.7 34.7 6.0 25.6 6.0 25.6 6.65 23.55 6.65 23.55 4.3 36.8 4.3 36.8 6.7 M36.0 11.65 Q36.0 12.85 35.0 12.85 L31.15 12.85 31.15 13.45 36.85 13.45 36.85 15.15 23.55 15.15 23.55 13.45 28.95 13.45 28.95 12.85 24.4 12.85 24.4 6.85 36.0 6.85 36.0 11.65 M21.95 6.65 L19.7 12.6 20.75 15.15 Q21.0 15.85 21.35 15.85 L21.8 15.85 21.8 17.7 20.05 17.7 Q19.6 17.7 19.25 16.85 L18.65 15.3 18.3 16.2 Q17.8 17.6 17.0 17.6 L15.4 17.6 15.4 15.7 16.05 15.7 16.55 15.25 17.55 12.45 15.4 6.95 17.4 6.95 18.5 9.7 19.65 6.45 15.4 6.45 15.4 4.6 21.95 4.6 21.95 6.65 M27.15 17.8 L23.7 17.8 23.7 16.25 26.25 16.25 26.6 16.1 26.9 15.45 29.25 15.45 28.25 17.2 Q27.95 17.8 27.15 17.8 M36.65 17.8 L33.25 17.8 Q32.7 17.8 32.25 17.2 L31.25 15.45 33.6 15.45 34.0 16.1 34.4 16.25 36.65 16.25 36.65 17.8 M12.6 6.35 L8.55 6.35 8.55 4.6 14.85 4.6 14.85 6.65 12.7 12.4 13.8 15.1 Q14.05 15.8 14.35 15.8 L14.9 15.8 14.9 17.6 13.1 17.6 Q12.6 17.6 12.3 16.8 L11.65 15.1 11.25 16.25 Q10.7 17.7 9.9 17.7 L8.55 17.7 8.55 15.6 9.0 15.6 Q9.35 15.6 9.5 15.2 L10.55 12.25 8.55 7.0 10.5 7.0 11.5 9.5 12.6 6.35" fill="#ffff66" fill-rule="evenodd" stroke="none"/>
    </g>
  </defs>
</svg>
