<?xml version="1.0" encoding="UTF-8" standalone="no"?>
<svg xmlns:ffdec="https://www.free-decompiler.com/flash" xmlns:xlink="http://www.w3.org/1999/xlink" ffdec:objectType="frame" height="21.6px" width="45.0px" xmlns="http://www.w3.org/2000/svg">
  <g transform="matrix(1.0, 0.0, 0.0, 1.0, 0.0, 0.0)">
    <use ffdec:characterId="1" height="21.6" transform="matrix(1.0, 0.0, 0.0, 1.0, 0.0, 0.0)" width="45.0" xlink:href="#shape0"/>
  </g>
  <defs>
    <g id="shape0" transform="matrix(1.0, 0.0, 0.0, 1.0, 0.0, 0.0)">
      <path d="M45.0 5.1 L45.0 16.5 44.85 16.85 40.3 21.45 40.05 21.55 39.85 21.6 5.2 21.6 5.0 21.55 4.7 21.45 0.15 16.85 0.0 16.5 0.0 5.1 0.15 4.8 4.7 0.2 5.0 0.1 5.2 0.0 39.85 0.0 40.05 0.1 40.3 0.2 44.85 4.8 45.0 5.1 M43.85 16.35 L43.85 5.25 39.6 1.0 5.45 1.0 1.15 5.25 1.15 16.35 5.45 20.65 39.6 20.65 43.85 16.35" fill="#00ffff" fill-rule="evenodd" stroke="none"/>
      <path d="M42.7 6.4 L42.7 15.25 39.2 15.25 39.2 6.4 42.7 6.4 M38.85 1.7 L42.8 5.55 38.85 5.55 38.85 1.7 M6.3 1.7 L6.3 5.55 2.35 5.55 6.3 1.7 M38.85 20.05 L38.85 16.2 42.8 16.2 38.85 20.05 M5.95 6.45 L5.95 15.15 2.3 15.15 2.3 6.45 5.95 6.45 M6.3 20.05 L2.35 16.2 6.3 16.2 6.3 20.05" fill="#ffff66" fill-rule="evenodd" stroke="none"/>
      <path d="M43.85 16.35 L39.6 20.65 5.45 20.65 1.15 16.35 1.15 5.25 5.45 1.0 39.6 1.0 43.85 5.25 43.85 16.35 M42.7 6.4 L39.2 6.4 39.2 15.25 42.7 15.25 42.7 6.4 M38.85 1.7 L38.85 5.55 42.8 5.55 38.85 1.7 M38.85 20.05 L42.8 16.2 38.85 16.2 38.85 20.05 M6.3 1.7 L2.35 5.55 6.3 5.55 6.3 1.7 M6.3 20.05 L6.3 16.2 2.35 16.2 6.3 20.05 M5.95 6.45 L2.3 6.45 2.3 15.15 5.95 15.15 5.95 6.45" fill="#ffff66" fill-opacity="0.0" fill-rule="evenodd" stroke="none"/>
      <path d="M33.7 8.8 L34.25 5.1 36.4 5.1 35.7 9.95 Q35.5 11.3 34.5 11.3 L31.9 11.3 31.9 9.45 33.2 9.45 Q33.6 9.45 33.7 8.8 M31.0 12.3 L33.1 15.45 Q33.5 15.8 34.1 15.8 L36.45 15.8 36.45 17.7 33.2 17.7 Q31.8 17.7 31.2 16.75 L29.7 14.3 27.95 16.75 Q27.35 17.7 26.15 17.7 L23.25 17.7 23.25 15.8 25.2 15.8 26.25 15.45 28.5 12.25 28.65 11.8 28.65 4.25 30.85 4.25 30.85 11.8 31.0 12.3 M21.45 9.7 L19.35 9.7 19.35 9.0 10.5 9.0 10.5 9.7 8.4 9.7 8.4 7.35 21.45 7.35 21.45 9.7 M25.4 11.35 Q24.1 11.35 23.95 9.9 L23.65 5.1 25.6 5.1 25.95 9.05 Q25.95 9.35 26.15 9.35 L27.7 9.35 27.7 11.35 25.4 11.35 M21.45 6.45 L20.05 6.45 20.05 6.95 17.8 6.95 17.8 6.45 12.05 6.45 12.05 6.95 9.8 6.95 9.8 6.45 8.4 6.45 8.4 4.65 9.8 4.65 9.8 4.1 12.05 4.1 12.05 4.65 17.8 4.65 17.8 4.1 20.05 4.1 20.05 4.65 21.45 4.65 21.45 6.45 M21.4 16.95 Q21.4 17.85 20.2 17.85 L8.35 17.85 8.35 16.2 13.85 16.2 13.85 15.1 8.65 15.1 8.65 10.3 13.85 10.3 13.85 9.35 15.95 9.35 15.95 10.3 21.1 10.3 21.1 13.95 Q21.1 15.1 19.65 15.1 L15.95 15.1 15.95 16.2 19.1 16.2 19.4 15.9 19.4 15.45 21.4 15.45 21.4 16.95 M10.85 11.95 L10.85 13.5 13.85 13.5 13.85 11.95 10.85 11.95 M15.95 11.95 L15.95 13.5 18.65 13.5 19.1 13.2 19.1 11.95 15.95 11.95" fill="#ffff66" fill-rule="evenodd" stroke="none"/>
    </g>
  </defs>
</svg>
