<?xml version="1.0" encoding="UTF-8" standalone="no"?>
<svg xmlns:ffdec="https://www.free-decompiler.com/flash" xmlns:xlink="http://www.w3.org/1999/xlink" ffdec:objectType="frame" height="21.6px" width="45.0px" xmlns="http://www.w3.org/2000/svg">
  <g transform="matrix(1.0, 0.0, 0.0, 1.0, 0.0, 0.0)">
    <use ffdec:characterId="1" height="21.6" transform="matrix(1.0, 0.0, 0.0, 1.0, 0.0, 0.0)" width="45.0" xlink:href="#shape0"/>
  </g>
  <defs>
    <g id="shape0" transform="matrix(1.0, 0.0, 0.0, 1.0, 0.0, 0.0)">
      <path d="M38.85 20.05 L38.85 16.2 42.8 16.2 38.85 20.05 M42.7 6.4 L42.7 15.25 39.2 15.25 39.2 6.4 42.7 6.4 M38.85 1.7 L42.8 5.55 38.85 5.55 38.85 1.7 M6.3 1.7 L6.3 5.55 2.35 5.55 6.3 1.7 M5.95 6.45 L5.95 15.15 2.3 15.15 2.3 6.45 5.95 6.45 M2.35 16.2 L6.3 16.2 6.3 20.05 2.35 16.2" fill="#ffff66" fill-rule="evenodd" stroke="none"/>
      <path d="M43.85 16.35 L39.6 20.65 5.45 20.65 1.15 16.35 1.15 5.25 5.45 1.0 39.6 1.0 43.85 5.25 43.85 16.35 M42.7 6.4 L39.2 6.4 39.2 15.25 42.7 15.25 42.7 6.4 M38.85 20.05 L42.8 16.2 38.85 16.2 38.85 20.05 M38.85 1.7 L38.85 5.55 42.8 5.55 38.85 1.7 M6.3 1.7 L2.35 5.55 6.3 5.55 6.3 1.7 M2.35 16.2 L6.3 20.05 6.3 16.2 2.35 16.2 M5.95 6.45 L2.3 6.45 2.3 15.15 5.95 15.15 5.95 6.45" fill="#ffff66" fill-opacity="0.0" fill-rule="evenodd" stroke="none"/>
      <path d="M44.85 4.8 L45.0 5.1 45.0 16.5 44.85 16.85 40.3 21.45 40.05 21.55 39.85 21.6 5.2 21.6 5.0 21.55 4.7 21.45 0.15 16.85 0.0 16.5 0.0 5.1 0.15 4.8 4.7 0.2 5.0 0.1 5.2 0.0 39.85 0.0 40.05 0.1 40.3 0.2 44.85 4.8 M43.85 16.35 L43.85 5.25 39.6 1.0 5.45 1.0 1.15 5.25 1.15 16.35 5.45 20.65 39.6 20.65 43.85 16.35" fill="#00ffff" fill-rule="evenodd" stroke="none"/>
      <path d="M31.85 11.4 L34.05 15.3 Q34.5 15.85 35.25 15.85 L36.85 15.85 36.85 17.75 34.05 17.75 Q32.5 17.75 31.85 16.45 L30.15 12.9 28.1 16.5 Q27.45 17.75 26.05 17.75 L23.45 17.75 23.45 15.85 24.9 15.85 Q25.65 15.85 26.1 15.3 L28.35 11.4 23.55 11.4 23.55 9.4 28.95 9.4 28.95 6.4 23.95 6.4 23.95 4.5 36.4 4.5 36.4 6.4 31.3 6.4 31.3 9.4 36.85 9.4 36.85 11.4 31.85 11.4 M20.3 11.7 Q19.9 11.7 19.55 11.35 L18.8 10.45 18.0 11.45 17.5 11.7 15.75 11.7 15.75 10.05 16.75 10.05 16.95 9.9 17.65 9.05 15.85 6.85 18.25 6.85 18.75 7.55 19.7 6.3 15.85 6.3 15.85 4.6 21.95 4.6 21.95 6.4 19.95 8.95 20.45 9.6 Q20.85 10.05 21.3 10.05 L21.85 10.05 21.85 11.7 20.3 11.7 M20.65 17.7 Q19.7 17.7 19.4 16.4 L18.55 12.3 20.5 12.3 21.1 15.35 Q21.2 15.95 21.4 15.95 L21.85 15.95 21.85 17.7 20.65 17.7 M14.55 4.5 L14.55 5.5 15.65 5.5 15.65 7.25 14.55 7.25 14.55 8.8 14.4 9.35 13.65 9.9 13.8 9.95 Q14.05 10.15 14.25 10.15 L15.4 10.15 15.4 11.8 13.4 11.8 12.85 11.6 12.1 11.05 11.35 11.6 10.8 11.8 8.7 11.8 8.7 10.15 10.05 10.15 10.35 10.0 10.45 9.95 9.6 9.35 Q9.45 9.25 9.45 8.9 L9.45 7.25 8.55 7.25 8.55 5.5 9.45 5.5 9.45 4.4 11.35 4.4 11.35 5.5 12.7 5.5 12.7 4.5 14.55 4.5 M12.7 7.25 L11.35 7.25 11.35 8.05 11.45 8.35 12.0 8.7 12.6 8.2 12.7 7.8 12.7 7.25 M8.55 17.75 L8.55 16.05 8.8 16.05 9.2 15.55 9.6 12.3 11.55 12.3 11.0 16.55 Q10.85 17.75 10.0 17.75 L8.55 17.75 M16.2 15.55 Q15.0 15.55 15.0 14.6 L15.0 12.6 17.0 12.6 17.0 13.6 17.4 13.9 18.3 13.9 18.3 15.55 16.2 15.55 M18.3 17.85 L13.45 17.85 Q12.2 17.85 12.2 16.75 L12.2 12.45 14.25 12.45 14.25 15.75 Q14.25 16.05 14.6 16.05 L18.3 16.05 18.3 17.85" fill="#ffff66" fill-rule="evenodd" stroke="none"/>
    </g>
  </defs>
</svg>
