<?xml version="1.0" encoding="UTF-8" standalone="no"?>
<svg xmlns:ffdec="https://www.free-decompiler.com/flash" xmlns:xlink="http://www.w3.org/1999/xlink" ffdec:objectType="frame" height="21.6px" width="45.0px" xmlns="http://www.w3.org/2000/svg">
  <g transform="matrix(1.0, 0.0, 0.0, 1.0, 0.0, 0.0)">
    <use ffdec:characterId="1" height="21.6" transform="matrix(1.0, 0.0, 0.0, 1.0, 0.0, 0.0)" width="45.0" xlink:href="#shape0"/>
  </g>
  <defs>
    <g id="shape0" transform="matrix(1.0, 0.0, 0.0, 1.0, 0.0, 0.0)">
      <path d="M42.7 6.4 L42.7 15.25 39.2 15.25 39.2 6.4 42.7 6.4 M38.85 1.7 L42.8 5.55 38.85 5.55 38.85 1.7 M6.3 1.7 L6.3 5.55 2.35 5.55 6.3 1.7 M38.85 20.05 L38.85 16.2 42.8 16.2 38.85 20.05 M5.95 6.45 L5.95 15.15 2.3 15.15 2.3 6.45 5.95 6.45 M2.35 16.2 L6.3 16.2 6.3 20.05 2.35 16.2" fill="#ffff66" fill-rule="evenodd" stroke="none"/>
      <path d="M43.85 16.35 L39.6 20.65 5.45 20.65 1.15 16.35 1.15 5.25 5.45 1.0 39.6 1.0 43.85 5.25 43.85 16.35 M42.7 6.4 L39.2 6.4 39.2 15.25 42.7 15.25 42.7 6.4 M38.85 1.7 L38.85 5.55 42.8 5.55 38.85 1.7 M38.85 20.05 L42.8 16.2 38.85 16.2 38.85 20.05 M6.3 1.7 L2.35 5.55 6.3 5.55 6.3 1.7 M2.35 16.2 L6.3 20.05 6.3 16.2 2.35 16.2 M5.95 6.45 L2.3 6.45 2.3 15.15 5.95 15.15 5.95 6.45" fill="#ffff66" fill-opacity="0.0" fill-rule="evenodd" stroke="none"/>
      <path d="M44.85 4.8 L45.0 5.1 45.0 16.5 44.85 16.85 40.3 21.45 40.05 21.55 39.85 21.6 5.2 21.6 5.0 21.55 4.7 21.45 0.15 16.85 0.0 16.5 0.0 5.1 0.15 4.8 4.7 0.2 5.0 0.1 5.2 0.0 39.85 0.0 40.05 0.1 40.3 0.2 44.85 4.8 M43.85 16.35 L43.85 5.25 39.6 1.0 5.45 1.0 1.15 5.25 1.15 16.35 5.45 20.65 39.6 20.65 43.85 16.35" fill="#00ffff" fill-rule="evenodd" stroke="none"/>
      <path d="M29.8 3.3 L29.5 7.0 34.15 6.75 33.65 15.05 Q33.5 16.15 34.3 16.15 L35.4 16.15 36.05 15.75 36.3 13.65 37.8 14.2 37.15 16.85 Q36.8 17.4 35.8 17.4 L33.7 17.4 Q32.25 17.4 32.25 15.65 L32.7 7.95 29.45 8.15 Q29.15 11.2 28.05 13.55 26.95 15.9 24.7 17.8 L23.5 16.7 Q24.9 15.95 26.25 13.9 27.65 11.8 28.05 8.2 L24.45 8.5 24.25 7.25 28.15 7.05 28.15 3.2 29.8 3.3 M21.15 9.8 L18.9 9.75 17.05 9.75 17.05 16.25 19.45 16.25 21.75 16.2 21.75 17.25 19.5 17.2 13.5 17.2 11.25 17.25 11.25 16.2 13.5 16.25 16.0 16.25 16.0 9.75 14.2 9.75 12.0 9.8 12.0 8.75 14.2 8.8 18.95 8.8 21.15 8.75 21.15 9.8 M21.65 6.0 L20.0 5.95 20.65 7.5 Q19.95 7.65 19.45 7.95 L19.0 5.95 18.4 5.95 17.5 8.05 Q17.0 7.75 16.3 7.7 L17.55 5.1 18.05 3.2 19.45 3.55 Q18.95 4.25 18.75 4.95 L19.7 4.95 21.65 4.9 21.65 6.0 M20.5 15.25 L19.25 13.45 18.4 15.55 17.3 15.05 18.4 12.75 18.8 10.8 20.25 11.2 19.55 12.45 21.5 14.55 20.5 15.25 M16.65 6.0 L14.8 5.95 15.55 7.7 14.45 8.0 13.75 5.95 12.5 8.25 Q12.05 7.75 11.45 7.55 L12.8 5.25 13.45 3.2 14.75 3.7 Q14.3 4.25 14.05 4.95 L14.95 4.95 16.65 4.9 16.65 6.0 M14.55 11.15 L14.0 12.25 15.8 14.3 14.8 15.05 Q14.5 14.3 13.65 13.25 L12.55 15.45 Q12.05 15.05 11.5 14.9 12.45 13.5 12.8 12.4 L13.25 10.7 14.55 11.15 M11.15 12.05 L11.2 14.9 10.05 14.9 10.05 13.45 8.5 13.45 8.5 16.15 7.4 16.15 7.45 13.3 7.45 7.65 7.4 4.7 11.2 4.7 11.15 7.65 11.15 12.05 M8.5 5.7 L8.5 12.45 10.05 12.45 10.05 5.7 8.5 5.7" fill="#ffff66" fill-rule="evenodd" stroke="none"/>
    </g>
  </defs>
</svg>
