<?xml version="1.0" encoding="UTF-8" standalone="no"?>
<svg xmlns:ffdec="https://www.free-decompiler.com/flash" xmlns:xlink="http://www.w3.org/1999/xlink" ffdec:objectType="frame" height="21.6px" width="45.0px" xmlns="http://www.w3.org/2000/svg">
  <g transform="matrix(1.0, 0.0, 0.0, 1.0, 0.0, 0.0)">
    <use ffdec:characterId="1" height="21.6" transform="matrix(1.0, 0.0, 0.0, 1.0, 0.0, 0.0)" width="45.0" xlink:href="#shape0"/>
  </g>
  <defs>
    <g id="shape0" transform="matrix(1.0, 0.0, 0.0, 1.0, 0.0, 0.0)">
      <path d="M43.85 16.35 L43.85 5.25 39.6 1.0 5.45 1.0 1.15 5.25 1.15 16.35 5.45 20.65 39.6 20.65 43.85 16.35 M45.0 16.5 L44.85 16.85 40.3 21.45 40.05 21.55 39.85 21.6 5.2 21.6 5.0 21.55 4.7 21.45 0.15 16.85 0.0 16.5 0.0 5.1 0.15 4.8 4.7 0.2 5.0 0.1 5.2 0.0 39.85 0.0 40.05 0.1 40.3 0.2 44.85 4.8 45.0 5.1 45.0 16.5" fill="#00ffff" fill-rule="evenodd" stroke="none"/>
      <path d="M42.7 6.4 L42.7 15.25 39.2 15.25 39.2 6.4 42.7 6.4 M38.85 1.7 L42.8 5.55 38.85 5.55 38.85 1.7 M38.85 20.05 L38.85 16.2 42.8 16.2 38.85 20.05 M6.3 1.7 L6.3 5.55 2.35 5.55 6.3 1.7 M5.95 6.45 L5.95 15.15 2.3 15.15 2.3 6.45 5.95 6.45 M6.3 16.2 L6.3 20.05 2.35 16.2 6.3 16.2" fill="#ffff66" fill-rule="evenodd" stroke="none"/>
      <path d="M43.85 16.35 L39.6 20.65 5.45 20.65 1.15 16.35 1.15 5.25 5.45 1.0 39.6 1.0 43.85 5.25 43.85 16.35 M42.7 6.4 L39.2 6.4 39.2 15.25 42.7 15.25 42.7 6.4 M38.85 1.7 L38.85 5.55 42.8 5.55 38.85 1.7 M29.15 15.95 L29.15 16.4 29.05 16.4 29.15 15.95 M29.55 15.65 L29.55 15.85 29.2 15.85 29.2 15.7 29.55 14.35 29.55 15.65 M26.9 11.95 L27.05 11.8 27.05 14.4 26.9 14.85 26.9 11.95 M26.9 7.0 L26.9 6.75 27.05 6.5 27.05 7.0 26.9 7.0 M21.5 5.45 L20.5 5.45 20.5 5.4 19.35 5.4 19.35 5.25 21.8 5.25 21.8 3.7 19.35 3.7 19.35 3.4 18.5 3.4 18.5 3.25 16.45 3.25 16.45 3.7 16.15 3.7 16.15 3.4 14.1 3.4 13.95 3.7 10.15 3.7 10.25 3.4 8.15 3.4 8.1 3.7 7.5 3.7 7.5 5.1 7.75 5.1 7.5 5.4 7.2 5.4 7.2 7.25 7.65 7.25 7.65 7.8 7.45 7.8 7.45 9.7 8.55 9.7 8.55 10.35 7.35 10.35 7.35 11.8 7.45 11.8 7.45 13.0 8.0 13.0 8.0 14.0 7.9 14.0 7.9 15.55 8.0 15.55 8.0 17.75 11.3 17.75 11.35 17.8 Q11.55 18.0 11.8 18.0 L20.6 18.0 20.6 17.75 21.95 17.75 21.95 15.75 21.05 15.75 21.05 15.7 20.8 14.45 20.8 14.0 19.35 14.0 19.35 13.6 20.6 13.6 20.6 13.45 Q21.25 13.2 21.25 12.35 L21.25 11.8 21.7 11.8 21.7 10.2 21.25 10.2 21.25 9.3 21.5 9.3 21.5 5.45 M29.05 5.5 L29.35 5.5 29.05 6.75 29.05 5.5 M32.9 6.25 L33.85 6.25 33.85 6.4 32.9 6.4 32.9 6.25 M33.35 9.4 L33.85 9.4 33.85 15.8 33.35 15.8 33.35 9.4 M37.5 3.65 L37.5 3.5 35.1 3.5 35.1 3.45 32.85 3.45 32.85 3.5 23.6 3.5 23.6 3.65 23.15 3.65 23.6 4.3 23.6 5.5 23.8 5.5 23.8 6.4 23.4 6.4 23.4 8.0 23.8 8.0 23.8 10.35 23.75 10.35 23.75 11.3 23.3 11.3 23.3 12.9 23.8 12.9 23.8 15.6 23.6 15.6 23.6 18.0 25.4 18.0 26.55 17.7 27.35 17.7 27.35 18.0 29.85 18.0 30.8 17.7 33.85 17.7 33.85 18.0 35.55 18.0 35.55 17.7 36.15 17.65 Q37.7 17.55 37.7 16.05 L37.7 6.4 37.5 6.4 37.5 6.25 38.0 6.25 38.0 4.35 37.85 4.35 37.85 3.65 37.5 3.65 M38.85 20.05 L42.8 16.2 38.85 16.2 38.85 20.05 M19.7 11.8 L19.7 11.85 19.65 12.1 19.35 12.1 19.35 11.8 19.7 11.8 M19.35 10.2 L19.35 9.55 19.7 9.55 19.7 10.2 19.35 10.2 M19.6 7.7 L19.6 8.2 19.35 8.2 19.35 7.7 19.6 7.7 M13.9 9.85 L13.9 9.45 14.45 9.45 14.45 9.55 15.6 9.55 15.6 9.85 13.9 9.85 M10.8 9.85 L10.6 9.85 10.55 9.9 10.55 9.7 10.8 9.7 10.8 9.85 M10.8 6.85 L10.8 7.1 10.05 7.1 10.05 7.55 9.55 7.55 9.55 6.85 10.8 6.85 M15.5 5.4 L15.5 5.35 15.55 5.3 15.6 5.25 17.1 5.25 17.1 5.45 16.55 5.45 16.55 5.4 15.5 5.4 M6.3 1.7 L2.35 5.55 6.3 5.55 6.3 1.7 M6.3 16.2 L2.35 16.2 6.3 20.05 6.3 16.2 M5.95 6.45 L2.3 6.45 2.3 15.15 5.95 15.15 5.95 6.45 M12.05 15.9 L10.95 15.9 10.55 15.6 10.55 15.55 12.05 15.55 12.05 15.9 M10.55 13.6 L12.05 13.6 12.05 14.0 10.55 14.0 10.55 13.6" fill="#ffff66" fill-opacity="0.0" fill-rule="evenodd" stroke="none"/>
      <path d="M31.3 7.7 L26.85 7.7 Q25.75 7.7 25.45 6.6 L24.8 3.75 27.2 3.75 27.55 5.15 Q27.65 5.7 28.05 5.7 L31.3 5.7 31.3 7.7 M35.35 3.2 L35.35 13.3 37.9 13.15 37.9 15.15 35.35 15.3 35.35 17.55 33.1 17.55 33.1 15.5 23.45 16.15 23.45 14.15 33.1 13.5 33.1 3.2 35.35 3.2 M21.65 5.25 L13.45 5.25 13.0 6.65 20.55 6.65 18.8 15.45 21.7 15.45 21.7 17.4 7.6 17.4 7.6 15.45 16.4 15.45 16.75 14.05 8.65 14.05 8.65 12.05 10.9 5.25 7.65 5.25 7.65 3.45 21.65 3.45 21.65 5.25 M24.35 8.5 L26.8 8.5 27.15 9.9 Q27.25 10.45 27.65 10.45 L31.45 10.45 31.45 12.45 26.45 12.45 Q25.35 12.45 25.1 11.35 L24.35 8.5 M17.2 12.05 L17.95 8.6 12.4 8.6 11.3 12.05 17.2 12.05" fill="#ffff66" fill-rule="evenodd" stroke="none"/>
    </g>
  </defs>
</svg>
