<?xml version="1.0" encoding="UTF-8" standalone="no"?>
<svg xmlns:ffdec="https://www.free-decompiler.com/flash" xmlns:xlink="http://www.w3.org/1999/xlink" ffdec:objectType="frame" height="21.6px" width="45.0px" xmlns="http://www.w3.org/2000/svg">
  <g transform="matrix(1.0, 0.0, 0.0, 1.0, 0.0, 0.0)">
    <use ffdec:characterId="1" height="21.6" transform="matrix(1.0, 0.0, 0.0, 1.0, 0.0, 0.0)" width="45.0" xlink:href="#shape0"/>
  </g>
  <defs>
    <g id="shape0" transform="matrix(1.0, 0.0, 0.0, 1.0, 0.0, 0.0)">
      <path d="M44.85 4.8 L45.0 5.1 45.0 16.5 44.85 16.85 40.3 21.45 40.05 21.55 39.85 21.6 5.2 21.6 5.0 21.55 4.7 21.45 0.15 16.85 0.0 16.5 0.0 5.1 0.15 4.8 4.7 0.2 5.0 0.1 5.2 0.0 39.85 0.0 40.05 0.1 40.3 0.2 44.85 4.8 M43.85 16.35 L43.85 5.25 39.6 1.0 5.45 1.0 1.15 5.25 1.15 16.35 5.45 20.65 39.6 20.65 43.85 16.35" fill="#00ffff" fill-rule="evenodd" stroke="none"/>
      <path d="M42.7 6.4 L42.7 15.25 39.2 15.25 39.2 6.4 42.7 6.4 M36.05 17.8 L35.55 17.95 35.25 17.95 33.95 17.95 33.95 16.1 34.5 16.1 Q34.85 16.1 34.85 15.2 L34.85 5.8 29.3 5.8 29.05 5.8 27.85 5.8 27.85 3.9 37.6 3.9 37.6 5.8 37.0 5.8 37.0 16.1 Q37.0 16.9 36.45 17.45 L36.05 17.8 M23.6 17.9 L23.2 17.9 23.2 17.7 23.2 16.2 23.95 16.2 24.5 15.65 25.25 12.95 27.6 12.95 26.6 16.65 Q26.25 17.9 24.75 17.9 L23.6 17.9 M23.65 9.85 L23.6 9.7 23.25 8.45 25.8 8.45 26.2 9.95 Q26.3 10.45 26.8 10.45 L27.7 10.45 27.7 12.3 25.55 12.3 Q24.35 12.3 24.05 11.25 L23.65 9.85 M23.6 4.9 L23.4 4.0 23.3 3.7 25.95 3.7 26.25 5.35 Q26.35 5.8 26.85 5.8 L27.7 5.8 27.7 7.7 25.55 7.7 Q24.35 7.7 24.05 6.65 L23.6 4.9 M38.85 1.7 L42.8 5.55 38.85 5.55 38.85 1.7 M21.1 3.7 L21.2 3.7 21.2 10.0 Q21.2 11.35 19.8 11.35 L15.6 11.35 15.6 15.9 16.0 16.2 17.0 16.2 17.0 17.95 14.95 17.95 Q13.55 17.95 13.55 16.5 L13.55 3.7 16.15 3.7 16.45 3.7 21.1 3.7 M21.5 11.8 L21.5 12.85 Q21.5 13.8 20.8 14.15 L19.85 14.3 18.8 14.3 19.2 15.55 Q19.35 16.3 19.8 16.3 L21.3 16.3 21.3 17.75 21.3 17.95 20.6 17.95 19.05 17.95 Q17.7 17.95 17.3 16.5 L16.05 11.8 18.1 11.8 18.4 12.75 19.5 12.75 19.8 12.5 19.8 11.8 21.5 11.8 M11.5 17.9 L9.7 17.9 8.95 17.75 Q8.5 17.5 8.5 16.9 L8.5 13.35 7.9 13.35 7.0 13.35 7.0 11.45 7.1 11.45 8.5 11.45 8.5 9.7 7.5 9.7 7.25 9.7 7.25 7.9 7.45 7.9 12.95 7.9 12.95 9.7 10.55 9.7 10.55 11.45 13.05 11.45 13.05 13.35 10.55 13.35 10.55 13.6 10.55 14.0 10.55 15.8 Q10.55 16.15 10.95 16.15 L12.65 16.15 12.65 17.9 11.5 17.9 M7.65 7.4 L7.1 7.4 7.1 7.25 7.1 5.65 7.7 5.65 8.0 5.3 8.45 3.5 10.25 3.5 10.45 3.5 10.4 3.7 10.2 4.5 13.0 4.5 13.0 6.35 9.75 6.35 9.7 6.4 Q9.45 7.4 8.35 7.4 L7.65 7.4 M31.8 14.7 L31.8 8.5 30.35 8.5 30.35 15.15 31.3 15.15 Q31.8 15.15 31.8 14.7 M32.35 17.1 L28.3 17.1 28.3 6.7 33.85 6.7 33.85 15.65 Q33.85 17.1 32.35 17.1 M38.85 20.05 L38.85 16.2 42.8 16.2 38.85 20.05 M15.6 5.5 L15.6 6.6 19.05 6.6 19.05 5.5 15.6 5.5 M19.05 8.35 L15.6 8.35 15.6 9.5 18.65 9.5 Q19.05 9.5 19.05 9.15 L19.05 8.35 M6.3 1.7 L6.3 5.55 2.35 5.55 6.3 1.7 M5.95 6.45 L5.95 15.15 2.3 15.15 2.3 6.45 5.95 6.45 M2.35 16.2 L6.3 16.2 6.3 20.05 2.35 16.2" fill="#ffff66" fill-rule="evenodd" stroke="none"/>
      <path d="M43.85 16.35 L39.6 20.65 5.45 20.65 1.15 16.35 1.15 5.25 5.45 1.0 39.6 1.0 43.85 5.25 43.85 16.35 M42.7 6.4 L39.2 6.4 39.2 15.25 42.7 15.25 42.7 6.4 M36.05 17.8 L36.6 17.7 37.4 17.7 37.4 17.25 37.65 16.6 37.7 16.05 37.7 6.4 37.5 6.4 37.5 6.25 38.0 6.25 38.0 4.35 37.85 4.35 37.85 3.65 37.5 3.65 37.5 3.5 35.1 3.5 35.1 3.45 32.85 3.45 32.85 3.5 32.7 3.5 32.7 3.25 30.65 3.25 30.65 3.5 23.6 3.5 23.6 3.65 23.15 3.65 23.4 4.0 23.6 4.9 23.6 5.15 23.35 5.15 23.35 7.15 23.4 7.15 23.4 7.7 22.95 7.7 22.95 9.7 23.6 9.7 23.65 9.85 23.65 11.3 23.3 11.3 23.3 12.9 23.65 12.9 23.65 15.45 23.25 15.45 23.25 15.85 22.95 15.85 22.95 17.7 23.2 17.7 23.2 17.9 23.6 17.9 23.6 18.0 25.4 18.0 26.55 17.7 27.35 17.7 27.35 18.0 29.85 18.0 30.8 17.7 33.85 17.7 33.85 18.0 35.55 18.0 35.55 17.95 36.05 17.8 M38.85 1.7 L38.85 5.55 42.8 5.55 38.85 1.7 M32.9 6.35 L32.9 6.25 33.05 6.25 32.9 6.35 M29.05 5.8 L29.3 5.8 29.1 6.5 29.05 6.5 29.05 5.8 M21.2 3.7 L21.1 3.7 21.15 3.45 19.35 3.45 19.35 3.4 18.5 3.4 18.5 3.25 16.45 3.25 16.45 3.7 16.15 3.7 16.15 3.4 15.8 3.4 15.8 3.35 13.15 3.35 13.15 3.7 10.4 3.7 10.45 3.5 10.25 3.5 10.25 3.4 8.15 3.4 8.1 3.7 7.5 3.7 7.5 3.9 7.25 3.9 7.25 5.1 6.95 5.1 6.95 7.25 7.1 7.25 7.1 7.4 7.65 7.4 7.65 7.8 7.45 7.8 7.45 7.9 7.25 7.9 7.25 9.7 7.5 9.7 7.15 9.8 7.1 9.8 7.1 11.45 7.0 11.45 7.0 13.35 7.9 13.35 7.9 17.7 8.0 17.7 8.0 17.75 8.95 17.75 9.7 17.9 11.5 17.9 11.8 18.0 20.6 18.0 20.6 17.95 21.3 17.95 21.3 17.75 21.95 17.75 21.95 15.75 21.7 15.75 21.7 14.7 20.85 14.7 20.8 14.45 20.8 14.15 Q21.5 13.8 21.5 12.85 L21.5 11.8 21.7 11.8 21.7 10.2 21.55 10.2 21.55 9.4 21.25 9.4 21.25 9.3 21.5 9.3 21.5 6.6 21.85 6.6 21.85 4.85 21.8 4.85 21.8 3.7 21.2 3.7 M38.85 20.05 L42.8 16.2 38.85 16.2 38.85 20.05 M10.55 13.6 L10.65 13.6 10.65 14.0 10.55 14.0 10.55 13.6 M6.3 1.7 L2.35 5.55 6.3 5.55 6.3 1.7 M5.95 6.45 L2.3 6.45 2.3 15.15 5.95 15.15 5.95 6.45 M2.35 16.2 L6.3 20.05 6.3 16.2 2.35 16.2" fill="#ffff66" fill-opacity="0.0" fill-rule="evenodd" stroke="none"/>
    </g>
  </defs>
</svg>
