<?xml version="1.0" encoding="UTF-8" standalone="no"?>
<svg xmlns:ffdec="https://www.free-decompiler.com/flash" xmlns:xlink="http://www.w3.org/1999/xlink" ffdec:objectType="frame" height="21.6px" width="45.0px" xmlns="http://www.w3.org/2000/svg">
  <g transform="matrix(1.0, 0.0, 0.0, 1.0, 0.0, 0.0)">
    <use ffdec:characterId="1" height="21.6" transform="matrix(1.0, 0.0, 0.0, 1.0, 0.0, 0.0)" width="45.0" xlink:href="#shape0"/>
  </g>
  <defs>
    <g id="shape0" transform="matrix(1.0, 0.0, 0.0, 1.0, 0.0, 0.0)">
      <path d="M43.85 16.35 L43.85 5.25 39.6 1.0 5.45 1.0 1.15 5.25 1.15 16.35 5.45 20.65 39.6 20.65 43.85 16.35 M45.0 16.5 L44.85 16.85 40.3 21.45 40.05 21.55 39.85 21.6 5.2 21.6 5.0 21.55 4.7 21.45 0.15 16.85 0.0 16.5 0.0 5.1 0.15 4.8 4.7 0.2 5.0 0.1 5.2 0.0 39.85 0.0 40.05 0.1 40.3 0.2 44.85 4.8 45.0 5.1 45.0 16.5" fill="#00ffff" fill-rule="evenodd" stroke="none"/>
      <path d="M42.7 6.4 L42.7 15.25 39.2 15.25 39.2 6.4 42.7 6.4 M23.65 3.9 L27.65 3.9 27.65 15.9 Q27.65 17.5 26.45 17.5 L23.65 17.5 23.65 4.7 23.65 3.9 M37.85 17.8 L27.75 17.8 27.75 16.0 31.7 16.0 31.7 15.3 30.95 15.3 Q30.3 15.3 30.1 14.35 L30.05 14.05 Q29.75 15.3 28.7 15.3 L28.05 15.3 28.05 13.5 28.15 13.5 28.45 12.95 28.9 10.4 30.7 10.4 30.55 11.3 30.95 11.3 31.3 13.15 31.55 13.5 31.7 13.5 31.7 9.55 28.2 9.55 28.2 7.75 37.45 7.75 37.45 9.55 33.75 9.55 33.75 13.55 33.9 13.55 34.25 13.0 34.7 10.25 36.6 10.25 36.35 11.5 36.9 11.5 37.2 13.15 37.4 13.5 37.7 13.5 37.7 15.3 36.85 15.3 Q36.2 15.3 36.0 14.4 L35.9 13.9 35.9 13.95 Q35.6 15.25 34.55 15.25 L33.75 15.25 33.75 16.0 37.9 16.0 37.9 17.7 37.9 17.8 37.85 17.8 M37.85 4.05 L37.85 5.2 37.25 5.2 37.4 5.8 37.65 6.05 37.9 6.05 37.9 7.45 36.95 7.45 Q36.2 7.45 35.95 6.7 L35.45 5.2 35.25 5.5 34.75 6.75 Q34.5 7.35 33.8 7.35 L32.95 7.35 32.95 5.9 Q33.35 5.9 33.45 5.35 L33.9 3.85 Q34.0 3.55 34.2 3.55 L37.85 3.55 37.85 4.05 M38.85 1.7 L42.8 5.55 38.85 5.55 38.85 1.7 M32.6 5.2 L32.2 5.2 32.3 5.55 32.4 5.8 32.8 5.8 32.8 7.25 31.7 7.25 Q31.05 7.25 30.9 6.55 L30.5 5.25 30.35 5.5 29.75 6.75 Q29.55 7.35 28.8 7.35 L27.85 7.35 27.85 5.9 Q28.3 5.9 28.45 5.35 L28.95 3.9 29.35 3.6 32.6 3.6 32.6 5.2 M7.65 18.0 L7.45 18.0 7.45 16.05 7.55 16.05 7.85 16.05 Q8.3 16.05 8.3 15.5 L8.3 4.2 18.85 4.2 Q19.3 4.2 19.55 3.55 L21.7 3.55 Q21.65 5.0 21.15 5.55 20.65 6.1 19.75 6.1 L10.35 6.1 10.35 7.35 21.4 7.35 21.4 9.2 16.9 14.0 17.95 15.1 Q18.65 15.9 19.6 15.9 L21.55 15.9 21.55 17.9 18.4 17.9 Q17.7 17.9 17.15 17.35 L15.5 15.55 13.7 17.45 12.45 17.9 10.6 17.9 10.6 15.9 11.7 15.9 Q12.4 15.9 13.0 15.25 L14.05 14.05 10.85 10.55 13.7 10.55 15.45 12.45 18.2 9.3 10.35 9.3 10.35 15.9 Q10.35 18.0 8.3 18.0 L7.65 18.0 M25.3 5.75 L25.3 15.6 25.7 15.6 Q26.05 15.6 26.05 15.0 L26.05 5.75 25.3 5.75 M6.3 1.7 L6.3 5.55 2.35 5.55 6.3 1.7 M38.85 20.05 L38.85 16.2 42.8 16.2 38.85 20.05 M5.95 6.45 L5.95 15.15 2.3 15.15 2.3 6.45 5.95 6.45 M2.35 16.2 L6.3 16.2 6.3 20.05 2.35 16.2" fill="#ffff66" fill-rule="evenodd" stroke="none"/>
      <path d="M43.85 16.35 L39.6 20.65 5.45 20.65 1.15 16.35 1.15 5.25 5.45 1.0 39.6 1.0 43.85 5.25 43.85 16.35 M42.7 6.4 L39.2 6.4 39.2 15.25 42.7 15.25 42.7 6.4 M37.85 3.55 L37.85 3.5 35.25 3.5 35.25 3.1 33.15 3.1 33.15 3.25 32.25 3.25 32.25 3.55 32.1 3.55 32.1 3.25 29.9 3.25 29.9 3.5 28.2 3.5 28.2 3.2 26.1 3.2 26.1 3.4 24.6 3.4 24.55 3.7 23.65 3.7 23.65 3.9 23.65 4.7 23.4 4.7 23.4 6.95 23.5 6.95 23.5 7.15 23.45 7.15 23.45 8.95 23.5 8.95 23.5 15.35 23.4 15.35 23.4 17.1 23.45 17.1 23.45 17.7 23.5 17.7 23.5 18.15 23.6 18.15 23.6 18.25 25.95 18.25 25.95 18.3 27.8 18.3 27.8 18.25 28.7 18.25 29.4 18.15 29.75 18.15 Q30.1 18.15 30.3 17.9 L30.3 18.15 33.0 18.15 33.0 18.3 35.05 18.3 35.05 18.15 37.85 18.15 37.85 17.8 37.9 17.8 37.9 17.7 37.95 17.7 37.95 17.5 38.2 16.75 38.2 14.9 37.9 14.9 37.95 14.5 37.95 14.15 38.3 14.15 38.3 12.15 37.95 12.15 37.95 11.9 38.1 11.65 37.95 11.65 37.95 11.1 38.0 11.1 38.0 10.45 38.15 10.45 38.15 8.7 37.95 8.7 37.95 8.25 38.05 8.25 38.05 7.3 38.35 7.3 38.35 4.5 38.0 4.5 38.05 4.35 37.9 4.35 37.9 4.05 37.85 4.05 37.85 3.55 M38.85 1.7 L38.85 5.55 42.8 5.55 38.85 1.7 M7.65 18.0 L7.65 18.15 22.1 18.15 22.1 18.05 22.2 18.05 22.2 17.8 22.35 17.8 22.35 17.7 22.45 17.7 22.45 15.95 22.35 15.95 22.35 15.85 22.1 15.85 22.1 15.75 21.45 15.75 Q22.3 15.5 22.3 14.55 L22.3 11.7 21.85 11.7 21.85 11.45 22.05 10.85 22.3 10.85 22.3 9.25 22.1 9.25 22.1 7.45 22.05 7.45 22.05 6.55 22.1 6.45 22.45 6.45 22.45 4.65 22.2 4.65 22.2 3.9 22.0 3.9 22.0 3.15 7.6 3.15 7.6 4.9 7.75 4.9 7.75 5.5 7.45 5.5 7.45 6.3 7.3 6.3 7.3 6.4 7.25 6.4 7.25 8.45 7.65 8.45 7.65 9.25 7.8 9.25 7.8 9.3 8.0 9.3 8.0 10.65 7.9 10.8 7.65 10.95 7.45 10.95 7.45 12.85 8.0 12.85 8.0 14.45 7.85 15.2 7.75 15.75 7.55 15.75 7.55 16.05 7.45 16.05 7.45 18.0 7.65 18.0 M38.85 20.05 L42.8 16.2 38.85 16.2 38.85 20.05 M6.3 1.7 L2.35 5.55 6.3 5.55 6.3 1.7 M2.35 16.2 L6.3 20.05 6.3 16.2 2.35 16.2 M5.95 6.45 L2.3 6.45 2.3 15.15 5.95 15.15 5.95 6.45" fill="#ffff66" fill-opacity="0.0" fill-rule="evenodd" stroke="none"/>
    </g>
  </defs>
</svg>
