<?xml version="1.0" encoding="UTF-8" standalone="no"?>
<svg xmlns:ffdec="https://www.free-decompiler.com/flash" xmlns:xlink="http://www.w3.org/1999/xlink" ffdec:objectType="frame" height="21.6px" width="45.0px" xmlns="http://www.w3.org/2000/svg">
  <g transform="matrix(1.0, 0.0, 0.0, 1.0, 0.0, 0.0)">
    <use ffdec:characterId="1" height="21.6" transform="matrix(1.0, 0.0, 0.0, 1.0, 0.0, 0.0)" width="45.0" xlink:href="#shape0"/>
  </g>
  <defs>
    <g id="shape0" transform="matrix(1.0, 0.0, 0.0, 1.0, 0.0, 0.0)">
      <path d="M44.85 4.8 L45.0 5.1 45.0 16.5 44.85 16.85 40.3 21.45 40.05 21.55 39.85 21.6 5.2 21.6 5.0 21.55 4.7 21.45 0.15 16.85 0.0 16.5 0.0 5.1 0.15 4.8 4.7 0.2 5.0 0.1 5.2 0.0 39.85 0.0 40.05 0.1 40.3 0.2 44.85 4.8 M43.85 16.35 L43.85 5.25 39.6 1.0 5.45 1.0 1.15 5.25 1.15 16.35 5.45 20.65 39.6 20.65 43.85 16.35" fill="#00ffff" fill-rule="evenodd" stroke="none"/>
      <path d="M42.7 6.4 L39.2 6.4 39.2 15.25 42.7 15.25 42.7 6.4 M43.85 16.35 L39.6 20.65 5.45 20.65 1.15 16.35 1.15 5.25 5.45 1.0 39.6 1.0 43.85 5.25 43.85 16.35 M37.45 3.35 L37.45 3.3 35.25 3.3 35.25 3.1 33.15 3.1 33.15 3.25 32.25 3.25 32.25 3.3 32.1 3.3 32.1 3.25 29.9 3.25 29.9 3.3 28.2 3.3 28.2 3.2 25.2 3.2 25.2 3.3 24.2 3.3 24.2 3.7 23.65 3.7 23.65 4.5 23.45 4.5 23.45 4.7 23.4 4.7 23.4 6.7 23.0 6.7 23.0 8.6 23.45 8.6 23.45 8.95 23.5 8.95 23.5 11.3 22.8 12.0 23.2 13.9 23.2 14.9 23.5 14.9 23.5 15.35 23.4 15.35 23.4 17.1 23.45 17.1 23.45 17.9 23.5 17.9 23.5 18.15 23.6 18.15 23.6 18.25 24.05 18.25 24.05 18.35 24.45 18.25 24.5 18.25 24.5 18.4 26.4 18.4 26.4 18.3 26.75 18.3 26.75 18.45 28.75 18.45 28.75 18.25 29.4 18.15 29.75 18.15 30.05 18.1 30.2 18.1 30.3 18.15 30.4 18.15 31.25 18.25 31.25 18.15 31.45 18.15 31.45 18.4 32.1 18.4 32.1 18.55 34.15 18.55 34.15 18.3 35.05 18.3 35.05 18.15 37.85 18.15 37.85 18.1 37.95 18.1 37.95 17.85 38.1 17.85 38.1 17.3 38.2 16.75 38.2 14.9 37.9 14.9 37.95 14.5 37.95 14.15 38.3 14.15 38.3 12.15 38.0 12.15 38.0 11.85 38.1 11.65 37.95 11.65 37.95 11.4 37.95 11.1 38.0 11.1 38.0 10.45 38.15 10.45 38.15 8.7 37.95 8.7 37.95 8.25 38.05 8.25 38.05 7.3 38.35 7.3 38.35 4.5 38.0 4.5 38.05 4.35 37.95 4.35 37.95 3.7 37.85 3.7 37.85 3.5 37.75 3.5 37.75 3.35 37.45 3.35 M38.85 1.7 L38.85 5.55 42.8 5.55 38.85 1.7 M21.85 15.6 L21.85 15.55 Q22.3 15.2 22.3 14.55 L22.3 11.7 21.95 11.7 22.25 10.85 22.3 10.85 22.3 9.15 22.1 9.15 22.1 7.45 22.05 7.45 22.05 6.8 22.2 6.8 22.2 6.45 22.45 6.45 22.45 4.65 22.2 4.65 22.2 3.9 22.1 3.9 22.15 3.5 22.15 3.2 22.0 3.2 22.0 3.15 7.6 3.15 7.6 4.6 7.4 4.6 7.4 6.3 7.3 6.3 7.3 6.4 7.25 6.4 7.25 8.45 7.65 8.45 7.65 9.25 7.7 9.25 7.7 10.95 7.45 10.95 7.45 12.65 7.2 12.7 7.2 14.95 7.7 14.95 7.7 15.6 7.65 15.6 7.65 15.75 7.55 15.75 7.55 17.55 7.65 17.55 7.65 17.6 7.65 18.15 11.1 18.15 11.25 18.4 11.35 18.55 11.85 18.15 12.0 18.15 12.0 18.65 14.55 18.65 Q15.4 18.65 15.9 18.15 L15.95 18.15 16.4 18.55 16.65 18.15 22.1 18.15 22.1 18.1 22.15 18.1 22.15 18.05 22.2 18.05 22.2 17.95 22.4 17.95 22.4 17.7 22.45 17.7 22.45 15.95 22.35 15.95 22.35 15.85 22.1 15.85 22.1 15.75 21.85 15.75 21.85 15.6 M38.85 20.05 L42.8 16.2 38.85 16.2 38.85 20.05 M6.3 1.7 L2.35 5.55 6.3 5.55 6.3 1.7 M5.95 6.45 L2.3 6.45 2.3 15.15 5.95 15.15 5.95 6.45 M2.35 16.2 L6.3 20.05 6.3 16.2 2.35 16.2" fill="#ffff66" fill-opacity="0.0" fill-rule="evenodd" stroke="none"/>
      <path d="M42.7 6.4 L42.7 15.25 39.2 15.25 39.2 6.4 42.7 6.4 M35.25 3.3 L37.45 3.3 37.45 3.35 37.45 6.85 Q37.45 7.9 35.95 7.9 L35.75 7.9 35.75 8.3 37.55 8.3 37.55 9.6 35.75 9.6 35.75 10.1 37.95 10.1 37.95 11.1 37.95 11.4 35.1 11.4 35.2 11.55 Q35.3 11.75 35.65 11.75 L38.0 11.75 38.0 11.85 38.0 12.15 38.0 13.15 34.45 13.15 Q33.85 13.15 33.4 12.55 L32.75 11.4 28.7 11.4 27.9 12.5 Q27.55 13.15 26.55 13.15 L23.55 13.15 23.55 11.75 25.65 11.75 Q26.0 11.75 26.15 11.5 L26.25 11.4 23.55 11.4 23.55 10.1 25.45 10.1 25.45 9.6 23.85 9.6 23.85 8.3 25.45 8.3 25.45 7.9 24.2 7.9 24.2 3.7 24.2 3.3 25.2 3.3 28.2 3.3 29.9 3.3 32.1 3.3 32.25 3.3 35.25 3.3 M38.85 1.7 L42.8 5.55 38.85 5.55 38.85 1.7 M35.3 4.55 L26.3 4.55 26.3 5.05 35.3 5.05 35.3 4.55 M33.7 9.6 L27.5 9.6 27.5 10.1 33.7 10.1 33.7 9.6 M33.7 7.9 L27.5 7.9 27.5 8.3 33.7 8.3 33.7 7.9 M35.3 6.25 L35.3 6.2 26.3 6.2 26.3 6.65 34.9 6.65 Q35.3 6.65 35.3 6.25 M21.85 15.6 L21.85 15.75 21.85 17.6 7.65 17.6 7.65 17.55 7.65 15.75 7.65 15.6 7.7 15.6 13.5 15.6 13.5 13.4 8.15 13.4 8.15 11.4 13.5 11.4 13.5 10.2 15.85 10.2 15.85 11.4 21.25 11.4 21.25 13.4 15.85 13.4 15.85 15.6 21.85 15.6 M21.75 8.85 L19.85 8.85 Q19.1 8.85 18.6 7.6 L17.25 4.0 19.7 4.0 20.3 6.1 Q20.5 6.75 21.05 6.75 L21.75 6.75 21.75 8.85 M28.8 15.05 L26.0 15.05 Q24.85 15.05 24.55 14.3 L24.15 13.4 26.65 13.4 26.7 13.45 Q26.8 13.75 27.2 13.75 L28.8 13.75 28.8 15.05 M26.25 15.5 L28.65 15.5 Q28.05 16.8 27.55 17.15 L26.3 17.5 23.8 17.5 23.8 16.2 25.65 16.2 26.25 15.5 M29.65 15.75 L29.65 11.95 31.8 11.95 31.8 16.65 Q31.8 17.6 30.5 17.6 L28.8 17.6 28.8 16.0 29.3 16.0 29.65 15.75 M36.5 14.75 L35.3 15.05 32.7 15.05 32.7 13.75 34.65 13.75 Q34.9 13.75 35.05 13.4 L37.55 13.4 36.5 14.75 M37.65 16.25 L37.65 17.5 34.65 17.5 Q33.55 17.5 33.25 16.85 L32.75 15.5 35.1 15.5 35.25 15.95 Q35.35 16.25 35.75 16.25 L37.65 16.25 M38.85 20.05 L38.85 16.2 42.8 16.2 38.85 20.05 M15.85 3.25 L15.85 9.5 13.5 9.5 13.5 3.25 15.85 3.25 M10.6 8.1 Q10.35 8.85 9.75 8.85 L7.7 8.85 7.7 6.75 8.45 6.75 8.85 6.4 9.8 4.0 12.25 4.0 10.6 8.1 M6.3 1.7 L6.3 5.55 2.35 5.55 6.3 1.7 M5.95 6.45 L5.95 15.15 2.3 15.15 2.3 6.45 5.95 6.45 M2.35 16.2 L6.3 16.2 6.3 20.05 2.35 16.2" fill="#ffff66" fill-rule="evenodd" stroke="none"/>
    </g>
  </defs>
</svg>
