<?xml version="1.0" encoding="UTF-8" standalone="no"?>
<svg xmlns:ffdec="https://www.free-decompiler.com/flash" xmlns:xlink="http://www.w3.org/1999/xlink" ffdec:objectType="frame" height="21.6px" width="45.0px" xmlns="http://www.w3.org/2000/svg">
  <g transform="matrix(1.0, 0.0, 0.0, 1.0, 0.0, 0.0)">
    <use ffdec:characterId="1" height="21.6" transform="matrix(1.0, 0.0, 0.0, 1.0, 0.0, 0.0)" width="45.0" xlink:href="#shape0"/>
  </g>
  <defs>
    <g id="shape0" transform="matrix(1.0, 0.0, 0.0, 1.0, 0.0, 0.0)">
      <path d="M38.85 20.05 L38.85 16.2 42.8 16.2 38.85 20.05 M42.7 6.4 L42.7 15.25 39.2 15.25 39.2 6.4 42.7 6.4 M38.85 1.7 L42.8 5.55 38.85 5.55 38.85 1.7 M6.3 1.7 L6.3 5.55 2.35 5.55 6.3 1.7 M5.95 6.45 L5.95 15.15 2.3 15.15 2.3 6.45 5.95 6.45 M6.3 20.05 L2.35 16.2 6.3 16.2 6.3 20.05" fill="#ffff66" fill-rule="evenodd" stroke="none"/>
      <path d="M43.85 16.35 L39.6 20.65 5.45 20.65 1.15 16.35 1.15 5.25 5.45 1.0 39.6 1.0 43.85 5.25 43.85 16.35 M42.7 6.4 L39.2 6.4 39.2 15.25 42.7 15.25 42.7 6.4 M38.85 20.05 L42.8 16.2 38.85 16.2 38.85 20.05 M38.85 1.7 L38.85 5.55 42.8 5.55 38.85 1.7 M6.3 1.7 L2.35 5.55 6.3 5.55 6.3 1.7 M6.3 20.05 L6.3 16.2 2.35 16.2 6.3 20.05 M5.95 6.45 L2.3 6.45 2.3 15.15 5.95 15.15 5.95 6.45" fill="#ffff66" fill-opacity="0.0" fill-rule="evenodd" stroke="none"/>
      <path d="M45.0 5.1 L45.0 16.5 44.85 16.85 40.3 21.45 40.05 21.55 39.85 21.6 5.2 21.6 5.0 21.55 4.7 21.45 0.15 16.85 0.0 16.5 0.0 5.1 0.15 4.8 4.7 0.2 5.0 0.1 5.2 0.0 39.85 0.0 40.05 0.1 40.3 0.2 44.85 4.8 45.0 5.1 M43.85 16.35 L43.85 5.25 39.6 1.0 5.45 1.0 1.15 5.25 1.15 16.35 5.45 20.65 39.6 20.65 43.85 16.35" fill="#00ffff" fill-rule="evenodd" stroke="none"/>
      <path d="M36.35 6.0 L33.15 6.0 33.15 6.65 37.95 6.65 37.95 8.35 33.15 8.35 33.15 9.05 37.55 9.05 37.55 16.4 Q37.55 17.85 36.0 17.85 L27.15 17.85 27.15 9.05 30.85 9.05 30.85 8.35 26.45 8.35 26.45 16.4 Q26.45 18.0 24.7 18.0 L23.7 18.0 23.7 16.15 24.1 16.15 24.4 16.0 24.4 4.2 35.65 4.2 Q36.1 4.2 36.1 3.65 L38.0 3.65 38.0 4.6 Q38.0 6.0 36.35 6.0 M35.4 10.7 L29.25 10.7 29.25 11.4 35.4 11.4 35.4 10.7 M30.85 6.0 L26.45 6.0 26.45 6.65 30.85 6.65 30.85 6.0 M29.25 13.8 L35.4 13.8 35.4 13.05 29.25 13.05 29.25 13.8 M29.25 16.15 L34.95 16.15 Q35.4 16.15 35.4 15.6 L35.4 15.4 29.25 15.4 29.25 16.15 M20.35 15.65 L18.95 15.65 18.95 18.15 16.9 18.15 16.9 15.65 14.1 15.65 14.1 4.95 16.9 4.95 16.9 3.4 18.95 3.4 18.95 4.95 21.85 4.95 21.85 14.35 Q21.85 15.65 20.35 15.65 M13.6 5.65 L8.0 5.65 8.0 3.9 13.6 3.9 13.6 5.65 M13.9 8.35 L11.7 8.35 11.7 18.15 9.85 18.15 9.85 8.35 7.8 8.35 7.8 6.55 13.9 6.55 13.9 8.35 M13.65 9.1 L13.65 15.55 13.9 15.85 14.15 15.85 14.15 17.65 13.05 17.65 Q12.15 17.65 12.15 16.6 L12.15 9.1 13.65 9.1 M18.95 6.8 L18.95 9.45 19.85 9.45 19.85 6.8 18.95 6.8 M16.0 6.8 L16.0 9.45 16.9 9.45 16.9 6.8 16.0 6.8 M16.0 11.25 L16.0 13.85 16.9 13.85 16.9 11.25 16.0 11.25 M18.95 11.25 L18.95 13.85 19.35 13.85 Q19.85 13.85 19.85 13.4 L19.85 11.25 18.95 11.25 M9.4 9.1 L9.4 16.65 Q9.4 17.8 8.45 17.8 L7.55 17.8 7.55 15.9 7.65 15.9 7.85 15.6 7.85 9.1 9.4 9.1" fill="#ffff66" fill-rule="evenodd" stroke="none"/>
    </g>
  </defs>
</svg>
