<?xml version="1.0" encoding="UTF-8" standalone="no"?>
<svg xmlns:ffdec="https://www.free-decompiler.com/flash" xmlns:xlink="http://www.w3.org/1999/xlink" ffdec:objectType="frame" height="21.6px" width="45.0px" xmlns="http://www.w3.org/2000/svg">
  <g transform="matrix(1.0, 0.0, 0.0, 1.0, 0.0, 0.0)">
    <use ffdec:characterId="1" height="21.6" transform="matrix(1.0, 0.0, 0.0, 1.0, 0.0, 0.0)" width="45.0" xlink:href="#shape0"/>
  </g>
  <defs>
    <g id="shape0" transform="matrix(1.0, 0.0, 0.0, 1.0, 0.0, 0.0)">
      <path d="M42.7 6.4 L42.7 15.25 39.2 15.25 39.2 6.4 42.7 6.4 M38.85 1.7 L42.8 5.55 38.85 5.55 38.85 1.7 M6.3 1.7 L6.3 5.55 2.35 5.55 6.3 1.7 M38.85 20.05 L38.85 16.2 42.8 16.2 38.85 20.05 M5.95 6.45 L5.95 15.15 2.3 15.15 2.3 6.45 5.95 6.45 M6.3 20.05 L2.35 16.2 6.3 16.2 6.3 20.05" fill="#ffff66" fill-rule="evenodd" stroke="none"/>
      <path d="M43.85 16.35 L39.6 20.65 5.45 20.65 1.15 16.35 1.15 5.25 5.45 1.0 39.6 1.0 43.85 5.25 43.85 16.35 M42.7 6.4 L39.2 6.4 39.2 15.25 42.7 15.25 42.7 6.4 M38.85 1.7 L38.85 5.55 42.8 5.55 38.85 1.7 M38.85 20.05 L42.8 16.2 38.85 16.2 38.85 20.05 M6.3 1.7 L2.35 5.55 6.3 5.55 6.3 1.7 M6.3 20.05 L6.3 16.2 2.35 16.2 6.3 20.05 M5.95 6.45 L2.3 6.45 2.3 15.15 5.95 15.15 5.95 6.45" fill="#ffff66" fill-opacity="0.0" fill-rule="evenodd" stroke="none"/>
      <path d="M45.0 5.1 L45.0 16.5 44.85 16.85 40.3 21.45 40.05 21.55 39.85 21.6 5.2 21.6 5.0 21.55 4.7 21.45 0.15 16.85 0.0 16.5 0.0 5.1 0.15 4.8 4.7 0.2 5.0 0.1 5.2 0.0 39.85 0.0 40.05 0.1 40.3 0.2 44.85 4.8 45.0 5.1 M43.85 16.35 L43.85 5.25 39.6 1.0 5.45 1.0 1.15 5.25 1.15 16.35 5.45 20.65 39.6 20.65 43.85 16.35" fill="#00ffff" fill-rule="evenodd" stroke="none"/>
      <path d="M30.8 5.9 L29.15 8.55 37.1 8.55 37.1 15.9 Q37.1 17.8 35.2 17.8 L25.35 17.8 25.35 12.95 23.55 12.95 23.55 10.85 24.0 10.85 Q25.0 10.85 25.55 9.9 L27.95 5.9 23.7 5.9 23.7 3.8 38.0 3.8 38.0 5.9 30.8 5.9 M21.55 9.05 Q21.55 10.7 19.55 10.7 L8.15 10.7 8.15 8.8 18.8 8.8 Q19.25 8.8 19.25 8.4 L19.25 8.0 8.4 8.0 8.4 6.25 19.25 6.25 19.25 5.55 8.15 5.55 8.15 3.7 21.55 3.7 21.55 9.05 M27.7 10.95 L27.7 15.9 34.3 15.9 Q34.7 15.9 34.7 15.5 L34.7 10.5 28.0 10.5 27.7 10.95 M22.0 17.8 L18.45 17.8 Q17.0 17.8 16.3 17.2 L14.7 15.7 12.95 17.25 Q12.35 17.8 11.15 17.8 L7.8 17.8 7.8 15.9 10.35 15.9 11.3 15.7 13.45 13.9 13.6 13.7 13.6 11.5 15.9 11.5 15.9 13.7 16.05 13.95 18.2 15.7 19.2 15.9 22.0 15.9 22.0 17.8 M21.05 13.65 Q20.75 14.5 19.7 14.5 L17.4 14.5 17.4 12.6 18.95 12.6 19.15 12.4 19.45 11.25 21.7 11.25 21.05 13.65 M12.1 12.6 L12.1 14.45 9.95 14.45 Q8.95 14.45 8.65 13.45 L8.0 11.25 10.3 11.25 10.55 12.1 Q10.65 12.6 11.05 12.6 L12.1 12.6" fill="#ffff66" fill-rule="evenodd" stroke="none"/>
    </g>
  </defs>
</svg>
