<?xml version="1.0" encoding="UTF-8" standalone="no"?>
<svg xmlns:ffdec="https://www.free-decompiler.com/flash" xmlns:xlink="http://www.w3.org/1999/xlink" ffdec:objectType="frame" height="21.6px" width="45.0px" xmlns="http://www.w3.org/2000/svg">
  <g transform="matrix(1.0, 0.0, 0.0, 1.0, 0.0, 0.0)">
    <use ffdec:characterId="1" height="21.6" transform="matrix(1.0, 0.0, 0.0, 1.0, 0.0, 0.0)" width="45.0" xlink:href="#shape0"/>
  </g>
  <defs>
    <g id="shape0" transform="matrix(1.0, 0.0, 0.0, 1.0, 0.0, 0.0)">
      <path d="M42.7 6.4 L42.7 15.25 39.2 15.25 39.2 6.4 42.7 6.4 M38.85 1.7 L42.8 5.55 38.85 5.55 38.85 1.7 M6.3 1.7 L6.3 5.55 2.35 5.55 6.3 1.7 M38.85 20.05 L38.85 16.2 42.8 16.2 38.85 20.05 M5.95 6.45 L5.95 15.15 2.3 15.15 2.3 6.45 5.95 6.45 M6.3 20.05 L2.35 16.2 6.3 16.2 6.3 20.05" fill="#ffff66" fill-rule="evenodd" stroke="none"/>
      <path d="M43.85 16.35 L39.6 20.65 5.45 20.65 1.15 16.35 1.15 5.25 5.45 1.0 39.6 1.0 43.85 5.25 43.85 16.35 M42.7 6.4 L39.2 6.4 39.2 15.25 42.7 15.25 42.7 6.4 M38.85 1.7 L38.85 5.55 42.8 5.55 38.85 1.7 M38.85 20.05 L42.8 16.2 38.85 16.2 38.85 20.05 M6.3 1.7 L2.35 5.55 6.3 5.55 6.3 1.7 M6.3 20.05 L6.3 16.2 2.35 16.2 6.3 20.05 M5.95 6.45 L2.3 6.45 2.3 15.15 5.95 15.15 5.95 6.45" fill="#ffff66" fill-opacity="0.0" fill-rule="evenodd" stroke="none"/>
      <path d="M44.85 4.8 L45.0 5.1 45.0 16.5 44.85 16.85 40.3 21.45 40.05 21.55 39.85 21.6 5.2 21.6 5.0 21.55 4.7 21.45 0.15 16.85 0.0 16.5 0.0 5.1 0.15 4.8 4.7 0.2 5.0 0.1 5.2 0.0 39.85 0.0 40.05 0.1 40.3 0.2 44.85 4.8 M43.85 16.35 L43.85 5.25 39.6 1.0 5.45 1.0 1.15 5.25 1.15 16.35 5.45 20.65 39.6 20.65 43.85 16.35" fill="#00ffff" fill-rule="evenodd" stroke="none"/>
      <path d="M37.9 5.85 L30.65 5.85 29.0 8.5 37.0 8.5 37.0 15.85 Q37.0 17.85 35.1 17.85 L25.15 17.85 25.15 12.85 23.3 12.85 23.3 10.9 23.85 10.9 Q24.75 10.9 25.4 9.85 L27.8 5.85 23.5 5.85 23.5 3.75 37.9 3.75 37.9 5.85 M21.25 8.75 Q21.25 10.2 19.65 10.2 L7.95 10.2 7.95 3.8 21.25 3.8 21.25 8.75 M27.55 10.9 L27.55 15.85 34.15 15.85 34.6 15.5 34.6 10.45 27.8 10.45 27.55 10.9 M21.7 16.55 Q21.7 17.85 20.15 17.85 L14.95 17.85 14.95 10.9 21.7 10.9 21.7 16.55 M19.05 5.55 L10.2 5.55 10.2 6.15 19.05 6.15 19.05 5.55 M19.05 7.8 L10.2 7.8 10.2 8.45 18.6 8.45 Q19.05 8.45 19.05 7.8 M9.65 13.55 L12.1 13.55 12.1 12.55 9.65 12.55 9.65 13.55 M9.65 16.1 L11.55 16.1 Q12.1 16.1 12.1 15.75 L12.1 15.2 9.65 15.2 9.65 16.1 M19.55 12.55 L17.1 12.55 17.1 13.55 19.55 13.55 19.55 12.55 M19.55 15.75 L19.55 15.2 17.1 15.2 17.1 16.1 19.05 16.1 19.55 15.75 M12.6 17.85 L7.5 17.85 7.5 10.9 14.25 10.9 14.25 16.55 Q14.25 17.85 12.6 17.85" fill="#ffff66" fill-rule="evenodd" stroke="none"/>
    </g>
  </defs>
</svg>
