<?xml version="1.0" encoding="UTF-8" standalone="no"?>
<svg xmlns:ffdec="https://www.free-decompiler.com/flash" xmlns:xlink="http://www.w3.org/1999/xlink" ffdec:objectType="frame" height="30.0px" width="30.0px" xmlns="http://www.w3.org/2000/svg">
  <g transform="matrix(1.0, 0.0, 0.0, 1.0, 0.0, 0.0)">
    <use ffdec:characterId="3684" height="30.0" transform="matrix(1.0, 0.0, 0.0, 1.0, 0.0, 0.0)" width="30.0" xlink:href="#shape0"/>
  </g>
  <defs>
    <g id="shape0" transform="matrix(1.0, 0.0, 0.0, 1.0, 0.0, 0.0)">
      <path d="M0.0 0.0 L30.0 0.0 30.0 30.0 0.0 30.0 0.0 0.0" fill="#33cc66" fill-opacity="0.0" fill-rule="evenodd" stroke="none"/>
      <path d="M29.3 15.0 Q29.3 19.25 25.2 22.2 21.15 25.15 15.4 25.15 9.6 25.15 5.55 22.2 1.5 19.25 1.5 15.0 1.5 10.8 5.55 7.8 9.6 4.85 15.4 4.85 21.15 4.85 25.2 7.8 29.3 10.8 29.3 15.0 M22.55 19.25 Q25.55 17.35 25.55 14.7 25.55 12.0 22.55 10.05 19.55 8.2 15.35 8.2 11.1 8.2 8.05 10.05 5.1 12.0 5.1 14.7 5.1 17.35 8.05 19.25 11.1 21.2 15.35 21.2 19.55 21.2 22.55 19.25 19.55 21.2 15.35 21.2 11.1 21.2 8.05 19.25 5.1 17.35 5.1 14.7 5.1 12.0 8.05 10.05 11.1 8.2 15.35 8.2 19.55 8.2 22.55 10.05 25.55 12.0 25.55 14.7 25.55 17.35 22.55 19.25" fill="url(#gradient0)" fill-rule="evenodd" stroke="none"/>
      <path d="M29.3 15.0 Q29.3 19.25 25.2 22.2 21.15 25.15 15.4 25.15 9.6 25.15 5.55 22.2 1.5 19.25 1.5 15.0 1.5 10.8 5.55 7.8 9.6 4.85 15.4 4.85 21.15 4.85 25.2 7.8 29.3 10.8 29.3 15.0" fill="none" stroke="#281511" stroke-linecap="round" stroke-linejoin="round" stroke-width="1.0"/>
      <path d="M22.55 19.25 Q19.55 21.2 15.35 21.2 11.1 21.2 8.05 19.25 5.1 17.35 5.1 14.7 5.1 12.0 8.05 10.05 11.1 8.2 15.35 8.2 19.55 8.2 22.55 10.05 25.55 12.0 25.55 14.7 25.55 17.35 22.55 19.25 Z" fill="none" stroke="#ffcc00" stroke-linecap="round" stroke-linejoin="round" stroke-width="2.0"/>
      <path d="M14.85 11.35 Q16.5 11.35 17.7 12.3 18.95 13.2 18.95 14.45 18.95 15.7 17.7 16.6 16.5 17.5 14.85 17.5 13.15 17.5 11.95 16.6 10.75 15.7 10.75 14.45 10.75 13.2 11.95 12.3 13.15 11.35 14.85 11.35" fill="#ffcc00" fill-rule="evenodd" stroke="none"/>
    </g>
    <linearGradient gradientTransform="matrix(-0.0028, -0.0094, 0.0248, -0.0074, -32.95, 28.05)" gradientUnits="userSpaceOnUse" id="gradient0" spreadMethod="pad" x1="-819.2" x2="819.2">
      <stop offset="0.0" stop-color="#190200"/>
      <stop offset="1.0" stop-color="#7d3200"/>
    </linearGradient>
  </defs>
</svg>
