<?xml version="1.0" encoding="UTF-8" standalone="no"?>
<svg xmlns:ffdec="https://www.free-decompiler.com/flash" xmlns:xlink="http://www.w3.org/1999/xlink" ffdec:objectType="frame" height="30.0px" width="30.0px" xmlns="http://www.w3.org/2000/svg">
  <g transform="matrix(1.0, 0.0, 0.0, 1.0, 0.0, 0.0)">
    <use ffdec:characterId="1678" height="30.0" transform="matrix(1.0, 0.0, 0.0, 1.0, 0.0, 0.0)" width="30.0" xlink:href="#shape0"/>
    <use ffdec:characterId="1680" height="27.1" transform="matrix(1.0, 0.0, 0.0, 1.0, 3.95, 2.15)" width="23.95" xlink:href="#sprite0"/>
  </g>
  <defs>
    <g id="shape0" transform="matrix(1.0, 0.0, 0.0, 1.0, 0.0, 0.0)">
      <path d="M0.0 30.0 L0.0 0.0 30.0 0.0 30.0 30.0 0.0 30.0" fill="#33cc66" fill-opacity="0.0" fill-rule="evenodd" stroke="none"/>
    </g>
    <g id="sprite0" transform="matrix(1.0, 0.0, 0.0, 1.0, 1.75, 1.75)">
      <use ffdec:characterId="1679" height="27.1" transform="matrix(1.0, 0.0, 0.0, 1.0, -1.75, -1.75)" width="23.95" xlink:href="#shape1"/>
    </g>
    <g id="shape1" transform="matrix(1.0, 0.0, 0.0, 1.0, 1.75, 1.75)">
      <path d="M19.05 11.45 L18.8 11.5 18.75 11.5 18.75 12.2 19.15 14.45 19.4 16.05 Q19.4 16.85 18.9 17.45 18.35 18.05 16.95 18.7 L16.9 18.6 Q17.0 18.1 16.45 17.9 16.0 18.35 15.6 19.6 L14.65 20.5 Q13.75 20.95 13.6 21.2 L13.4 22.1 13.4 23.0 13.3 23.15 10.3 23.6 9.05 23.15 8.3 22.8 Q8.2 21.6 7.35 21.6 L6.3 21.45 5.8 21.1 Q5.2 20.15 4.0 19.9 2.2 19.5 1.4 19.0 L0.9 18.6 0.75 18.2 0.75 18.05 0.15 16.0 0.15 15.85 0.1 14.0 0.45 14.45 0.55 14.4 0.9 14.55 1.55 14.3 1.5 13.75 Q1.5 13.15 0.75 12.65 0.0 12.15 0.0 10.85 L0.1 8.95 0.2 7.95 0.5 7.75 1.35 7.9 2.1 7.7 2.25 7.1 2.25 7.05 2.4 6.85 2.25 6.6 1.55 6.4 1.85 6.35 2.8 6.3 5.45 6.55 5.95 6.1 6.1 5.8 Q6.95 5.25 7.4 3.55 L7.45 3.4 8.05 3.55 Q8.65 3.55 8.65 3.0 L8.55 2.3 9.65 2.7 10.5 3.05 Q10.5 3.4 10.8 3.65 L12.4 2.25 13.5 0.65 13.4 0.2 13.25 0.0 13.35 0.0 14.35 0.6 14.35 0.65 15.15 1.95 16.35 3.25 16.6 3.25 16.65 3.25 Q16.9 3.5 17.35 3.6 L17.35 3.65 17.4 4.9 17.65 5.6 17.1 6.4 16.55 6.85 Q15.9 7.05 15.4 7.65 L15.0 8.4 15.1 8.65 15.3 8.7 16.3 7.95 16.95 7.25 17.1 7.25 16.15 8.45 Q15.15 9.95 14.5 9.95 14.0 9.95 13.9 9.75 14.05 10.4 14.55 10.8 L15.0 11.8 Q15.0 13.0 13.85 12.9 L13.0 12.05 13.25 11.2 Q12.15 11.6 11.55 12.95 11.1 14.15 10.65 14.15 10.1 14.15 9.7 13.65 9.25 13.2 9.25 12.5 L9.65 11.95 10.15 11.5 10.15 12.9 Q11.0 11.9 11.0 10.85 11.0 9.75 9.75 8.85 8.55 8.0 8.6 7.0 L8.4 7.0 8.0 8.65 6.65 10.3 6.65 10.15 Q7.25 9.75 7.5 8.4 L7.5 6.4 6.5 6.7 5.6 7.0 3.85 6.7 2.9 6.85 3.75 7.55 Q3.75 8.0 3.35 8.4 2.85 8.85 2.2 8.85 L1.45 8.8 0.9 8.4 0.45 10.2 Q0.45 11.85 1.8 12.9 3.1 13.9 3.1 14.6 2.85 15.55 2.1 15.55 1.45 15.55 1.1 14.95 L0.9 15.75 Q0.9 17.3 1.85 17.95 2.4 18.4 3.9 18.7 5.4 19.0 5.95 19.45 6.7 20.0 6.85 21.1 L8.4 21.1 8.9 22.55 Q9.05 22.95 9.95 22.95 L12.8 22.65 12.8 20.5 Q12.8 20.05 13.6 19.9 L15.0 19.55 Q15.6 19.1 15.65 17.55 15.7 16.3 16.95 16.15 L17.2 16.3 16.95 17.85 Q18.15 17.0 18.4 16.05 L18.5 13.9 Q18.5 11.8 17.85 11.5 L17.85 10.55 18.3 10.55 19.05 11.45 M17.95 6.75 L18.2 6.35 Q18.95 7.55 19.75 9.9 20.6 12.25 20.4 12.55 L19.75 11.95 19.15 11.5 19.15 11.25 17.6 7.3 17.95 6.75 M15.95 6.05 L16.2 6.7 16.85 5.85 16.6 5.0 16.65 4.9 16.45 4.1 Q15.85 4.2 15.25 5.0 L14.8 5.9 15.05 7.05 15.7 6.05 15.95 6.05 M14.4 1.15 Q13.3 1.95 12.4 3.7 L12.4 4.7 12.75 4.25 Q13.35 4.35 13.45 4.9 13.55 5.4 14.0 5.4 14.55 5.4 14.5 4.25 14.55 4.1 15.1 3.9 L15.55 3.4 Q15.55 3.0 14.85 2.65 14.15 2.3 14.15 2.0 L14.4 1.15 M10.85 4.8 Q10.05 3.0 8.9 2.8 L9.05 3.25 8.8 4.15 8.05 3.95 7.65 5.15 8.3 4.95 Q8.8 5.5 8.8 6.2 L9.25 5.7 Q9.6 5.3 9.9 5.3 L10.5 5.5 10.85 4.8 M6.0 0.95 L3.85 2.4 Q2.65 3.25 2.65 3.95 L2.65 4.5 Q3.0 3.7 3.4 3.7 3.8 3.7 4.15 4.4 4.5 5.05 5.1 5.05 6.0 5.05 6.0 3.65 6.0 3.15 5.6 2.8 L5.25 2.25 Q5.25 1.85 5.5 1.55 L6.0 0.95 6.0 1.5 Q6.15 2.6 6.75 3.0 L6.7 3.5 Q6.65 4.6 6.1 5.15 L5.95 5.1 5.6 5.45 5.0 5.55 4.3 5.4 4.35 5.35 4.3 5.15 4.0 5.1 3.95 5.0 3.45 4.5 Q3.15 4.5 2.95 4.8 L2.4 5.25 Q1.85 4.9 1.75 3.7 L1.7 3.45 1.95 3.2 Q3.95 1.65 6.0 0.4 L6.0 0.95 M13.15 5.6 L13.05 5.7 11.45 7.1 Q10.35 8.25 11.85 8.2 L11.85 9.1 11.5 9.7 Q12.5 9.65 12.85 8.55 13.2 7.5 14.0 7.5 L14.45 7.55 14.95 7.95 Q15.1 7.35 14.25 6.75 L13.15 5.6 M12.45 23.85 L12.6 23.8 12.55 23.85 12.45 23.85" fill="#0fb9ed" fill-rule="evenodd" stroke="none"/>
      <path d="M19.05 11.45 L18.3 10.55 17.85 10.55 17.85 11.5 Q18.5 11.8 18.5 13.9 L18.4 16.05 Q18.15 17.0 16.95 17.85 L17.2 16.3 16.95 16.15 Q15.7 16.3 15.65 17.55 15.6 19.1 15.0 19.55 L13.6 19.9 Q12.8 20.05 12.8 20.5 L12.8 22.65 9.95 22.95 Q9.05 22.95 8.9 22.55 L8.4 21.1 6.85 21.1 Q6.7 20.0 5.95 19.45 5.4 19.0 3.9 18.7 2.4 18.4 1.85 17.95 0.9 17.3 0.9 15.75 L1.1 14.95 Q1.45 15.55 2.1 15.55 2.85 15.55 3.1 14.6 3.1 13.9 1.8 12.9 0.45 11.85 0.45 10.2 L0.9 8.4 1.45 8.8 2.2 8.85 Q2.85 8.85 3.35 8.4 3.75 8.0 3.75 7.55 L2.9 6.85 3.85 6.7 5.6 7.0 6.5 6.7 7.5 6.4 7.5 8.4 Q7.25 9.75 6.65 10.15 L6.65 10.3 8.0 8.65 8.4 7.0 8.6 7.0 Q8.55 8.0 9.75 8.85 11.0 9.75 11.0 10.85 11.0 11.9 10.15 12.9 L10.15 11.5 9.65 11.95 9.25 12.5 Q9.25 13.2 9.7 13.65 10.1 14.15 10.65 14.15 11.1 14.15 11.55 12.95 12.15 11.6 13.25 11.2 L13.0 12.05 13.85 12.9 Q15.0 13.0 15.0 11.8 L14.55 10.8 Q14.05 10.4 13.9 9.75 14.0 9.95 14.5 9.95 15.15 9.95 16.15 8.45 L17.1 7.25 17.2 7.25 17.55 7.1 18.0 6.6 17.95 6.75 17.6 7.3 19.15 11.25 19.15 11.5 19.05 11.45 M10.85 4.8 L10.5 5.5 9.9 5.3 Q9.6 5.3 9.25 5.7 L8.8 6.2 Q8.8 5.5 8.3 4.95 L7.65 5.15 8.05 3.95 8.8 4.15 9.05 3.25 8.9 2.8 Q10.05 3.0 10.85 4.8 M14.4 1.15 L14.15 2.0 Q14.15 2.3 14.85 2.65 15.55 3.0 15.55 3.4 L15.1 3.9 Q14.55 4.1 14.5 4.25 14.55 5.4 14.0 5.4 13.55 5.4 13.45 4.9 13.35 4.35 12.75 4.25 L12.4 4.7 12.4 3.7 Q13.3 1.95 14.4 1.15 M15.95 6.05 L15.7 6.05 15.05 7.05 14.8 5.9 15.25 5.0 Q15.85 4.2 16.45 4.1 L16.65 4.9 16.6 5.0 16.85 5.85 16.2 6.7 15.95 6.05 M13.15 5.6 L14.25 6.75 Q15.1 7.35 14.95 7.95 L14.45 7.55 14.0 7.5 Q13.2 7.5 12.85 8.55 12.5 9.65 11.5 9.7 L11.85 9.1 11.85 8.2 Q10.35 8.25 11.45 7.1 L13.05 5.7 13.15 5.6 M6.0 0.95 L5.5 1.55 Q5.25 1.85 5.25 2.25 L5.6 2.8 Q6.0 3.15 6.0 3.65 6.0 5.05 5.1 5.05 4.5 5.05 4.15 4.4 3.8 3.7 3.4 3.7 3.0 3.7 2.65 4.5 L2.65 3.95 Q2.65 3.25 3.85 2.4 L6.0 0.95" fill="#2ce0ee" fill-rule="evenodd" stroke="none"/>
      <path d="M17.1 7.25 L16.95 7.25 16.3 7.95 15.3 8.7 15.1 8.65 15.0 8.4 15.4 7.65 Q15.9 7.05 16.55 6.85 L17.1 6.4 17.65 5.6 17.4 4.9 17.35 3.65 17.35 3.6 Q16.9 3.5 16.65 3.25 L16.6 3.25 16.35 3.25 15.15 1.95 14.35 0.65 14.35 0.6 13.35 0.0 13.25 0.0 13.4 0.2 13.5 0.65 12.4 2.25 10.8 3.65 Q10.5 3.4 10.5 3.05 L9.65 2.7 8.55 2.3 8.65 3.0 Q8.65 3.55 8.05 3.55 L7.45 3.4 7.4 3.55 Q6.95 5.25 6.1 5.8 L5.95 6.1 5.45 6.55 2.8 6.3 1.85 6.35 1.55 6.4 2.25 6.6 2.4 6.85 2.25 7.05 2.25 7.1 2.1 7.7 1.35 7.9 0.5 7.75 0.2 7.95 0.1 8.95 0.0 10.85 Q0.0 12.15 0.75 12.65 1.5 13.15 1.5 13.75 L1.55 14.3 0.9 14.55 0.55 14.4 0.45 14.45 0.1 14.0 0.15 15.85 0.15 16.0 0.75 18.05 0.75 18.2 0.9 18.6 1.4 19.0 Q2.2 19.5 4.0 19.9 5.2 20.15 5.8 21.1 L6.3 21.45 7.35 21.6 Q8.2 21.6 8.3 22.8 L9.05 23.15 10.3 23.6 13.3 23.15 13.4 23.0 13.4 22.1 13.6 21.2 Q13.75 20.95 14.65 20.5 L15.6 19.6 Q16.0 18.35 16.45 17.9 17.0 18.1 16.9 18.6 L16.95 18.7 Q18.35 18.05 18.9 17.45 19.4 16.85 19.4 16.05 L19.15 14.45 18.75 12.2 18.75 11.5 18.8 11.5 19.05 11.45 M17.1 7.25 L17.2 7.25 17.55 7.1 M17.95 6.75 L18.2 6.35 Q18.95 7.55 19.75 9.9 20.6 12.25 20.4 12.55 L19.75 11.95 19.15 11.5 M6.0 0.95 L6.0 0.4 Q3.95 1.65 1.95 3.2 L1.7 3.45 1.75 3.7 Q1.85 4.9 2.4 5.25 L2.95 4.8 Q3.15 4.5 3.45 4.5 L3.95 5.0 4.0 5.1 4.3 5.15 4.35 5.35 4.3 5.4 5.0 5.55 5.6 5.45 5.95 5.1 6.1 5.15 Q6.65 4.6 6.7 3.5 L6.75 3.0 Q6.15 2.6 6.0 1.5 L6.0 0.95 Z" fill="none" stroke="#ffffff" stroke-linecap="round" stroke-linejoin="round" stroke-width="3.5"/>
      <path d="M19.3 11.45 L19.25 11.45 19.0 11.5 18.95 11.5 18.95 12.2 19.35 14.45 19.6 16.05 Q19.6 16.85 19.1 17.45 18.55 18.05 17.15 18.7 L17.1 18.6 Q17.2 18.1 16.65 17.9 16.2 18.35 15.8 19.6 L14.85 20.5 Q13.95 20.95 13.8 21.2 L13.6 22.1 13.6 23.0 13.5 23.15 10.5 23.6 9.25 23.15 8.5 22.8 Q8.4 21.6 7.55 21.6 L6.5 21.45 6.0 21.1 Q5.4 20.15 4.2 19.9 L1.6 19.0 1.1 18.6 0.95 18.2 0.95 18.05 0.35 16.0 0.35 15.85 0.3 14.0 0.65 14.45 0.75 14.4 1.1 14.55 Q1.65 14.55 1.75 14.3 L1.7 13.75 Q1.7 13.15 0.95 12.65 0.2 12.15 0.2 10.85 L0.3 8.95 0.4 7.95 0.7 7.75 1.55 7.9 2.3 7.7 2.45 7.1 2.45 7.05 2.6 6.85 2.45 6.6 1.75 6.4 2.05 6.35 3.0 6.3 5.65 6.55 6.15 6.1 6.3 5.8 Q7.15 5.25 7.6 3.55 L7.65 3.4 8.25 3.55 Q8.85 3.55 8.85 3.0 L8.75 2.3 9.85 2.7 10.7 3.05 Q10.7 3.4 11.0 3.65 11.5 3.45 12.6 2.25 L13.7 0.65 13.6 0.2 13.45 0.0 13.55 0.0 14.55 0.6 14.55 0.65 15.35 1.95 16.55 3.25 16.8 3.25 16.85 3.25 Q17.1 3.5 17.55 3.6 L17.55 3.65 17.6 4.9 17.85 5.6 17.3 6.4 16.75 6.85 15.6 7.65 15.2 8.4 15.3 8.65 15.5 8.7 16.5 7.95 17.15 7.25 Q17.95 7.2 18.4 6.35 19.15 7.55 19.95 9.9 20.8 12.25 20.6 12.55 L19.95 11.95 Q19.6 11.55 19.35 11.5 L19.35 11.25 17.8 7.3 18.25 6.65 Q17.85 7.15 17.3 7.25 L16.35 8.45 Q15.35 9.95 14.75 9.95 L14.1 9.8 Q14.3 10.4 14.75 10.85 15.2 11.2 15.2 11.8 15.2 13.0 14.1 12.9 L13.2 12.05 13.45 11.2 Q12.35 11.6 11.8 12.95 11.3 14.15 10.85 14.15 10.3 14.15 9.9 13.65 9.5 13.2 9.5 12.5 9.5 12.35 9.85 11.95 L10.35 11.5 10.35 12.9 Q11.25 11.95 11.25 10.9 11.25 9.75 10.0 8.85 8.8 8.0 8.85 7.0 L8.6 7.0 8.2 8.65 Q7.85 9.6 6.85 10.3 L6.85 10.15 Q7.5 9.75 7.7 8.4 L7.7 6.4 6.75 6.7 5.8 7.0 4.1 6.7 3.1 6.85 3.95 7.55 3.55 8.4 2.45 8.85 1.65 8.8 1.1 8.4 0.65 10.2 Q0.65 11.85 2.0 12.9 3.3 13.9 3.3 14.6 3.05 15.55 2.35 15.55 1.65 15.55 1.3 14.95 L1.1 15.75 Q1.1 17.3 2.05 18.0 2.6 18.4 4.1 18.7 5.6 19.05 6.15 19.45 6.9 20.0 7.05 21.1 L8.6 21.1 9.15 22.6 Q9.25 22.95 10.15 22.95 L13.0 22.65 13.0 20.5 Q13.0 20.05 13.85 19.9 L15.2 19.6 Q15.8 19.15 15.9 17.55 15.95 16.3 17.15 16.15 17.15 16.3 17.4 16.3 L17.15 17.85 Q18.4 17.0 18.65 16.05 L18.7 13.9 Q18.7 11.8 18.05 11.5 L18.05 10.6 18.5 10.6 19.3 11.45 M15.75 3.4 Q15.75 3.0 15.05 2.65 14.35 2.3 14.35 2.0 L14.6 1.15 Q13.5 1.95 12.6 3.75 L12.6 4.7 12.95 4.25 Q13.6 4.35 13.7 4.9 13.75 5.4 14.25 5.4 14.8 5.4 14.75 4.25 L15.3 3.95 15.75 3.4 M16.2 6.05 L16.45 6.7 17.05 5.85 16.8 5.05 16.9 4.9 16.7 4.1 Q16.05 4.2 15.45 5.0 L15.0 5.9 15.25 7.05 15.9 6.05 16.2 6.05 M11.05 4.8 Q10.25 3.0 9.15 2.85 L9.25 3.25 9.0 4.15 8.25 4.0 7.85 5.15 8.5 5.0 Q9.05 5.5 9.0 6.2 L9.45 5.7 Q9.8 5.35 10.1 5.35 L10.7 5.5 11.05 4.8 M13.35 5.6 L13.25 5.7 Q12.2 6.55 11.65 7.15 10.55 8.25 12.1 8.2 L12.1 9.1 11.7 9.75 Q12.7 9.65 13.05 8.55 13.4 7.5 14.2 7.5 L14.7 7.55 15.15 7.95 Q15.3 7.4 14.5 6.75 13.45 6.0 13.35 5.6 M6.2 0.95 L4.1 2.4 Q2.9 3.25 2.9 4.0 L2.9 4.5 Q3.2 3.7 3.6 3.7 4.0 3.7 4.35 4.4 4.7 5.05 5.3 5.05 6.2 5.05 6.2 3.7 6.2 3.15 5.8 2.85 L5.45 2.25 5.7 1.6 6.2 0.95 6.2 1.5 Q6.35 2.6 6.95 3.0 L6.9 3.5 Q6.85 4.6 6.3 5.15 L6.15 5.1 5.8 5.45 5.2 5.55 4.5 5.4 4.55 5.35 4.5 5.15 4.2 5.1 4.15 5.0 3.65 4.5 3.15 4.8 2.6 5.25 Q2.05 4.9 1.95 3.7 L1.9 3.45 2.15 3.2 6.2 0.4 6.2 0.95 M12.8 23.8 L12.75 23.85 12.65 23.85 12.8 23.8" fill="#0fb9ed" fill-rule="evenodd" stroke="none"/>
      <path d="M19.3 11.45 L18.5 10.6 18.05 10.6 18.05 11.5 Q18.7 11.8 18.7 13.9 L18.65 16.05 Q18.4 17.0 17.15 17.85 L17.4 16.3 Q17.15 16.3 17.15 16.15 15.95 16.3 15.9 17.55 15.8 19.15 15.2 19.6 L13.85 19.9 Q13.0 20.05 13.0 20.5 L13.0 22.65 10.15 22.95 Q9.25 22.95 9.15 22.6 L8.6 21.1 7.05 21.1 Q6.9 20.0 6.15 19.45 5.6 19.05 4.1 18.7 2.6 18.4 2.05 18.0 1.1 17.3 1.1 15.75 L1.3 14.95 Q1.65 15.55 2.35 15.55 3.05 15.55 3.3 14.6 3.3 13.9 2.0 12.9 0.65 11.85 0.65 10.2 L1.1 8.4 1.65 8.8 2.45 8.85 3.55 8.4 3.95 7.55 3.1 6.85 4.1 6.7 5.8 7.0 6.75 6.7 7.7 6.4 7.7 8.4 Q7.5 9.75 6.85 10.15 L6.85 10.3 Q7.85 9.6 8.2 8.65 L8.6 7.0 8.85 7.0 Q8.8 8.0 10.0 8.85 11.25 9.75 11.25 10.9 11.25 11.95 10.35 12.9 L10.35 11.5 9.85 11.95 Q9.5 12.35 9.5 12.5 9.5 13.2 9.9 13.65 10.3 14.15 10.85 14.15 11.3 14.15 11.8 12.95 12.35 11.6 13.45 11.2 L13.2 12.05 14.1 12.9 Q15.2 13.0 15.2 11.8 15.2 11.2 14.75 10.85 14.3 10.4 14.1 9.8 L14.75 9.95 Q15.35 9.95 16.35 8.45 L17.3 7.25 Q17.85 7.15 18.25 6.65 L17.8 7.3 19.35 11.25 19.35 11.5 19.3 11.45 M11.05 4.8 L10.7 5.5 10.1 5.35 Q9.8 5.35 9.45 5.7 L9.0 6.2 Q9.05 5.5 8.5 5.0 L7.85 5.15 8.25 4.0 9.0 4.15 9.25 3.25 9.15 2.85 Q10.25 3.0 11.05 4.8 M16.2 6.05 L15.9 6.05 15.25 7.05 15.0 5.9 15.45 5.0 Q16.05 4.2 16.7 4.1 L16.9 4.9 16.8 5.05 17.05 5.85 16.45 6.7 16.2 6.05 M15.75 3.4 L15.3 3.95 14.75 4.25 Q14.8 5.4 14.25 5.4 13.75 5.4 13.7 4.9 13.6 4.35 12.95 4.25 L12.6 4.7 12.6 3.75 Q13.5 1.95 14.6 1.15 L14.35 2.0 Q14.35 2.3 15.05 2.65 15.75 3.0 15.75 3.4 M13.35 5.6 Q13.45 6.0 14.5 6.75 15.3 7.4 15.15 7.95 L14.7 7.55 14.2 7.5 Q13.4 7.5 13.05 8.55 12.7 9.65 11.7 9.75 L12.1 9.1 12.1 8.2 Q10.55 8.25 11.65 7.15 12.2 6.55 13.25 5.7 L13.35 5.6 M15.7 11.0 L15.9 11.4 15.95 11.6 Q15.95 12.05 14.35 13.4 L13.9 13.75 13.85 13.4 13.65 13.2 Q13.35 12.85 12.9 12.85 12.4 12.85 12.0 13.35 L11.65 13.9 11.0 15.15 10.65 15.0 10.1 14.9 Q8.8 14.9 8.5 15.75 L8.5 16.15 Q8.15 16.45 8.15 16.95 L8.3 17.2 8.35 17.2 7.55 17.9 Q6.65 18.45 6.65 18.7 L6.75 19.05 6.8 19.15 7.25 19.25 Q7.7 19.25 8.65 18.65 10.15 18.65 10.7 19.55 11.45 20.65 10.95 21.8 L13.4 18.9 Q15.15 16.65 16.4 15.7 L16.55 16.2 Q16.55 15.85 16.9 15.35 L16.9 14.95 17.0 14.8 17.6 13.4 17.7 12.35 17.35 11.4 16.95 10.55 17.55 9.9 18.15 9.2 Q18.15 8.25 16.85 8.8 15.5 9.35 15.5 10.0 L15.7 11.0 M6.2 0.95 L5.7 1.6 5.45 2.25 5.8 2.85 Q6.2 3.15 6.2 3.7 6.2 5.05 5.3 5.05 4.7 5.05 4.35 4.4 4.0 3.7 3.6 3.7 3.2 3.7 2.9 4.5 L2.9 4.0 Q2.9 3.25 4.1 2.4 L6.2 0.95 M13.85 16.75 L14.2 16.45 14.5 16.4 13.85 16.75 M2.9 9.05 Q1.25 10.15 1.25 11.15 1.25 12.05 2.7 12.6 4.15 13.2 4.15 14.65 L3.55 15.35 2.95 15.9 Q2.85 16.45 3.6 16.45 L3.95 16.2 5.45 16.0 5.7 16.2 Q5.9 16.4 6.25 16.4 L6.9 16.25 6.9 16.3 6.95 16.25 Q8.05 15.6 8.45 12.6 8.45 11.9 8.05 11.5 7.65 11.05 6.15 10.55 L6.8 9.2 7.05 8.2 Q7.05 7.75 6.55 7.5 4.45 8.0 2.9 9.05" fill="#2ce0ee" fill-rule="evenodd" stroke="none"/>
      <path d="M15.7 11.0 L15.5 10.0 Q15.5 9.35 16.85 8.8 18.15 8.25 18.15 9.2 L17.55 9.9 16.95 10.55 17.35 11.4 17.7 12.35 17.6 13.4 17.0 14.8 16.9 14.95 16.9 15.35 Q16.55 15.85 16.55 16.2 L16.4 15.7 Q15.15 16.65 13.4 18.9 L10.95 21.8 Q11.45 20.65 10.7 19.55 10.15 18.65 8.65 18.65 7.7 19.25 7.25 19.25 L6.8 19.15 6.75 19.05 6.65 18.7 Q6.65 18.45 7.55 17.9 L8.35 17.2 8.3 17.2 8.15 16.95 Q8.15 16.45 8.5 16.15 L8.5 15.75 Q8.8 14.9 10.1 14.9 L10.65 15.0 11.0 15.15 11.65 13.9 12.0 13.35 Q12.4 12.85 12.9 12.85 13.35 12.85 13.65 13.2 L13.85 13.4 13.9 13.75 14.35 13.4 Q15.95 12.05 15.95 11.6 L15.9 11.4 15.7 11.0 M2.9 9.05 Q4.45 8.0 6.55 7.5 7.05 7.75 7.05 8.2 L6.8 9.2 6.15 10.55 Q7.65 11.05 8.05 11.5 8.45 11.9 8.45 12.6 8.05 15.6 6.95 16.25 L6.9 16.3 6.9 16.25 6.25 16.4 Q5.9 16.4 5.7 16.2 L5.45 16.0 3.95 16.2 3.6 16.45 Q2.85 16.45 2.95 15.9 L3.55 15.35 4.15 14.65 Q4.15 13.2 2.7 12.6 1.25 12.05 1.25 11.15 1.25 10.15 2.9 9.05 M13.85 16.75 L14.5 16.4 14.2 16.45 13.85 16.75" fill="#f3f7b8" fill-rule="evenodd" stroke="none"/>
    </g>
  </defs>
</svg>
