<?xml version="1.0" encoding="UTF-8" standalone="no"?>
<svg xmlns:ffdec="https://www.free-decompiler.com/flash" xmlns:xlink="http://www.w3.org/1999/xlink" ffdec:objectType="frame" height="30.0px" width="30.0px" xmlns="http://www.w3.org/2000/svg">
  <g transform="matrix(1.0, 0.0, 0.0, 1.0, 0.0, 0.0)">
    <use ffdec:characterId="1752" height="30.0" transform="matrix(1.0, 0.0, 0.0, 1.0, 0.0, 0.0)" width="30.0" xlink:href="#shape0"/>
  </g>
  <defs>
    <g id="shape0" transform="matrix(1.0, 0.0, 0.0, 1.0, 0.0, 0.0)">
      <path d="M30.0 0.0 L30.0 30.0 0.0 30.0 0.0 0.0 30.0 0.0" fill="#33cc66" fill-opacity="0.0" fill-rule="evenodd" stroke="none"/>
      <path d="M18.05 11.0 L18.05 13.15 18.3 13.15 Q19.25 13.15 19.25 14.15 18.75 17.75 18.05 18.8 L17.85 19.0 17.45 19.15 Q16.95 19.15 16.6 18.7 L16.4 18.25 15.7 18.5 13.8 18.4 Q11.0 18.4 11.0 15.25 11.0 14.8 11.3 14.05 L11.6 12.4 11.5 10.85 11.6 10.75 Q11.65 10.1 11.95 9.9 12.2 9.7 12.6 9.7 13.05 9.7 13.85 10.4 L14.15 10.25 14.65 10.05 Q15.15 10.05 15.35 10.45 L15.6 11.0 16.4 9.85 16.55 9.6 Q17.25 9.0 17.85 9.9 L18.05 10.25 18.05 11.0" fill="#ffffff" fill-rule="evenodd" stroke="none"/>
      <path d="M23.25 5.75 Q22.95 5.75 22.8 5.9 L22.55 6.5 22.8 6.95 23.25 7.2 23.85 6.95 24.05 6.5 23.85 5.9 23.25 5.75 M18.05 18.8 L20.65 21.3 20.65 24.0 21.6 24.0 21.6 21.35 24.15 21.35 24.15 20.25 20.95 20.25 19.2 18.4 19.2 17.65 19.95 17.65 21.55 19.25 22.4 18.4 21.35 17.45 22.55 17.45 22.55 16.25 19.8 16.25 19.8 15.3 23.4 15.3 25.25 17.3 25.95 16.55 24.6 14.85 25.85 13.3 25.1 12.55 23.7 14.1 19.85 14.1 19.85 13.15 22.75 13.15 22.75 12.25 21.55 12.25 22.25 11.2 21.55 10.6 19.55 12.35 18.8 11.65 21.4 9.15 24.2 9.15 24.2 8.0 21.75 8.0 21.75 5.65 20.7 5.65 20.7 8.15 18.05 11.0 M17.85 19.0 L17.85 19.95 19.15 21.45 18.5 22.2 17.45 21.5 17.45 22.65 16.6 22.65 16.6 19.7 15.6 19.7 15.6 23.5 17.35 25.45 16.5 26.1 14.75 24.65 13.2 26.1 12.35 25.45 14.2 23.5 14.2 19.7 13.1 19.7 13.1 22.65 12.25 22.65 12.25 21.5 11.25 22.2 10.6 21.45 11.9 19.95 11.9 18.6 9.15 21.3 9.15 24.0 8.15 24.0 8.15 21.35 5.65 21.35 5.65 20.25 8.75 20.25 10.55 18.4 10.55 17.65 9.7 17.65 8.2 19.25 7.35 18.4 8.35 17.45 7.2 17.45 7.2 16.25 9.9 16.25 9.9 15.3 6.35 15.3 4.5 17.3 3.75 16.55 5.2 14.85 3.95 13.3 4.65 12.55 6.05 14.1 9.8 14.1 9.8 13.15 7.05 13.15 7.05 12.25 8.2 12.25 7.45 11.2 8.2 10.6 10.2 12.35 10.95 11.65 8.3 9.15 5.6 9.15 5.6 8.0 8.0 8.0 8.0 5.65 9.1 5.65 9.1 8.15 11.6 10.75 M11.95 9.9 L10.55 8.3 11.15 7.75 12.45 8.6 12.45 6.65 13.35 6.65 13.35 9.85 14.15 9.85 14.15 6.3 12.25 4.5 13.2 3.7 14.85 5.35 16.5 3.7 17.45 4.5 15.65 6.3 15.65 9.85 16.4 9.85 16.4 6.65 17.3 6.65 17.3 8.6 18.6 7.75 19.2 8.3 17.85 9.9 M26.55 14.2 L26.05 14.4 25.85 14.95 26.05 15.4 26.55 15.7 Q26.9 15.7 27.15 15.4 L27.3 14.95 27.15 14.4 26.55 14.2 M22.4 22.85 L22.65 23.35 23.1 23.55 23.7 23.35 23.9 22.85 23.7 22.3 23.1 22.1 22.65 22.3 Q22.4 22.6 22.4 22.85 M15.45 2.6 L14.8 2.45 Q14.5 2.45 14.35 2.6 L14.15 3.1 14.35 3.6 14.8 3.9 15.45 3.6 15.6 3.1 15.45 2.6 M7.0 5.9 L7.2 6.5 7.0 6.95 6.5 7.2 5.9 6.95 5.75 6.5 5.9 5.9 6.5 5.75 Q6.85 5.75 7.0 5.9 M3.65 14.4 L3.95 14.95 3.65 15.4 Q3.5 15.7 3.15 15.7 2.85 15.7 2.65 15.4 L2.4 14.95 Q2.4 14.6 2.65 14.4 L3.15 14.2 3.65 14.4 M7.1 23.35 L6.6 23.55 Q6.25 23.55 6.05 23.35 L5.85 22.85 6.05 22.3 Q6.25 22.1 6.6 22.1 L7.1 22.3 7.35 22.85 7.1 23.35 M15.6 26.7 L15.45 26.1 14.8 25.95 Q14.5 25.95 14.35 26.1 L14.15 26.7 14.35 27.2 14.8 27.5 15.45 27.2 15.6 26.7 Z" fill="none" stroke="#ffffff" stroke-linecap="round" stroke-linejoin="round" stroke-width="3.0"/>
      <path d="M19.05 9.9 L20.65 8.1 20.65 5.6 21.75 5.6 21.75 8.0 24.15 8.0 24.15 9.15 21.4 9.15 20.55 10.0 19.05 9.9 M22.75 5.9 Q22.9 5.75 23.2 5.75 L23.8 5.9 24.0 6.45 23.8 6.95 Q23.6 7.2 23.2 7.2 L22.75 6.95 22.5 6.45 22.75 5.9 M7.1 15.3 L6.35 15.3 4.5 17.3 3.8 16.55 5.15 14.9 3.9 13.3 4.65 12.55 6.0 14.1 8.1 14.1 7.1 15.3 M9.2 13.1 L7.05 13.1 7.05 12.25 8.15 12.25 7.45 11.2 8.15 10.55 10.15 12.4 10.95 11.65 8.3 9.15 5.55 9.15 5.55 8.0 8.0 8.0 8.0 5.6 9.05 5.6 9.05 8.1 11.85 11.15 12.45 10.4 10.55 8.3 11.1 7.7 12.45 8.65 12.45 6.65 13.35 6.65 13.35 9.9 14.05 9.9 14.05 6.3 12.25 4.5 13.2 3.65 14.85 5.35 16.45 3.65 17.45 4.5 15.65 6.3 15.65 9.9 16.35 9.9 16.35 6.65 17.3 6.65 17.3 8.65 18.6 7.7 19.2 8.3 17.75 9.95 Q14.6 10.1 11.5 11.6 L9.2 13.1 M15.6 3.1 L15.4 3.6 14.8 3.9 14.35 3.6 14.05 3.1 Q14.05 2.85 14.35 2.55 14.5 2.4 14.8 2.4 L15.4 2.55 15.6 3.1 M7.0 5.9 L7.2 6.45 7.0 6.95 6.45 7.2 Q6.15 7.2 5.9 6.95 L5.75 6.45 Q5.75 6.15 5.9 5.9 L6.45 5.75 7.0 5.9 M3.7 14.35 L3.9 14.95 3.7 15.4 3.1 15.7 2.6 15.4 2.45 14.95 2.6 14.35 Q2.85 14.2 3.1 14.2 L3.7 14.35" fill="#bcf7fb" fill-rule="evenodd" stroke="none"/>
      <path d="M19.05 9.9 L20.55 10.0 18.8 11.65 19.55 12.4 21.5 10.55 22.3 11.2 21.5 12.25 22.7 12.25 22.7 13.1 19.85 13.1 19.85 14.1 23.7 14.1 25.05 12.55 25.8 13.3 24.55 14.9 25.95 16.55 25.25 17.3 23.45 15.3 19.8 15.3 19.8 16.25 22.5 16.25 22.5 17.45 21.35 17.45 22.4 18.4 21.5 19.2 19.95 17.6 19.2 17.6 19.2 18.4 21.0 20.2 24.1 20.2 24.1 21.3 21.55 21.3 21.55 23.95 20.6 23.95 20.6 21.25 17.8 18.65 17.8 19.95 19.1 21.4 18.5 22.2 17.45 21.45 17.45 22.6 16.55 22.6 16.55 19.7 15.6 19.7 15.6 23.5 17.35 25.45 16.45 26.15 14.75 24.65 13.2 26.15 12.35 25.45 14.2 23.5 14.2 19.7 13.1 19.7 13.1 22.6 12.25 22.6 12.25 21.45 11.25 22.2 10.6 21.4 11.9 19.95 11.9 18.65 9.15 21.25 9.15 23.95 8.1 23.95 8.1 21.3 5.6 21.3 5.6 20.2 8.75 20.2 10.55 18.4 10.55 17.6 9.7 17.6 8.15 19.2 7.3 18.4 8.35 17.45 7.2 17.45 7.2 16.25 9.85 16.25 9.85 15.3 7.1 15.3 8.1 14.1 9.8 14.1 9.8 13.1 9.2 13.1 11.5 11.6 Q14.6 10.1 17.75 9.95 L17.3 10.4 17.85 11.15 19.05 9.9 M13.15 11.2 Q12.95 11.35 12.95 11.65 12.8 11.95 13.1 12.45 L13.65 12.9 14.2 12.85 14.45 12.45 14.3 11.7 13.75 11.2 Q13.45 11.05 13.15 11.2 M16.45 11.2 Q16.2 11.05 15.95 11.2 L15.4 11.7 15.2 12.45 15.55 12.85 16.0 12.9 16.5 12.45 16.75 11.65 16.45 11.2 M18.45 13.55 L18.0 13.2 17.25 13.1 16.55 13.5 Q16.45 13.75 16.5 14.1 16.55 14.35 16.9 14.35 L17.6 14.5 18.25 14.1 18.45 13.55 M16.9 15.35 Q16.55 15.55 16.55 15.9 L16.95 16.45 17.7 16.8 18.2 16.7 Q18.45 16.45 18.3 16.25 L17.95 15.5 Q17.65 15.15 17.25 15.2 17.05 15.1 16.9 15.35 M15.55 16.65 Q15.25 16.75 15.2 17.1 L15.4 17.8 15.95 18.35 16.45 18.35 16.75 17.85 16.5 17.1 16.0 16.6 15.55 16.65 M13.1 14.1 L13.05 13.5 12.45 13.1 11.65 13.2 Q11.3 13.25 11.25 13.55 L11.35 14.1 Q11.5 14.35 12.1 14.5 L12.75 14.35 13.1 14.1 M13.1 17.1 Q12.8 17.55 12.95 17.85 L13.15 18.35 13.75 18.35 14.3 17.8 14.45 17.1 14.2 16.65 13.65 16.6 Q13.25 16.7 13.1 17.1 M11.4 16.7 L11.95 16.8 12.7 16.45 13.05 15.9 Q13.05 15.55 12.75 15.35 12.6 15.1 12.45 15.2 12.05 15.15 11.7 15.5 11.35 15.9 11.3 16.25 L11.4 16.7" fill="url(#gradient0)" fill-rule="evenodd" stroke="none"/>
      <path d="M26.1 14.35 Q26.25 14.2 26.55 14.2 L27.1 14.35 27.35 14.95 27.1 15.4 26.55 15.7 26.1 15.4 25.8 14.95 26.1 14.35" fill="#11a3d5" fill-rule="evenodd" stroke="none"/>
      <path d="M22.4 22.85 Q22.4 22.55 22.65 22.3 L23.1 22.1 23.7 22.3 23.9 22.85 23.7 23.35 23.1 23.55 22.65 23.35 22.4 22.85 M6.0 23.35 L5.85 22.85 Q5.85 22.55 6.0 22.3 L6.6 22.1 7.1 22.3 7.3 22.85 7.1 23.35 6.6 23.55 6.0 23.35 M15.6 26.7 L15.4 27.2 14.8 27.45 14.35 27.2 14.05 26.7 Q14.05 26.35 14.35 26.15 14.5 25.95 14.8 25.95 L15.4 26.15 15.6 26.7" fill="#47d5ec" fill-rule="evenodd" stroke="none"/>
      <path d="M22.75 5.9 L22.5 6.45 22.75 6.95 23.2 7.2 Q23.6 7.2 23.8 6.95 L24.0 6.45 23.8 5.9 23.2 5.75 Q22.9 5.75 22.75 5.9 M20.55 10.0 L21.4 9.15 24.15 9.15 24.15 8.0 21.75 8.0 21.75 5.6 20.65 5.6 20.65 8.1 19.05 9.9 17.85 11.15 17.3 10.4 17.75 9.95 19.2 8.3 18.6 7.7 17.3 8.65 17.3 6.65 16.35 6.65 16.35 9.9 15.65 9.9 15.65 6.3 17.45 4.5 16.45 3.65 14.85 5.35 13.2 3.65 12.25 4.5 14.05 6.3 14.05 9.9 13.35 9.9 13.35 6.65 12.45 6.65 12.45 8.65 11.1 7.7 10.55 8.3 12.45 10.4 11.85 11.15 9.05 8.1 9.05 5.6 8.0 5.6 8.0 8.0 5.55 8.0 5.55 9.15 8.3 9.15 10.95 11.65 10.15 12.4 8.15 10.55 7.45 11.2 8.15 12.25 7.05 12.25 7.05 13.1 9.2 13.1 9.8 13.1 9.8 14.1 8.1 14.1 6.0 14.1 4.65 12.55 3.9 13.3 5.15 14.9 3.8 16.55 4.5 17.3 6.35 15.3 7.1 15.3 9.85 15.3 9.85 16.25 7.2 16.25 7.2 17.45 8.35 17.45 7.3 18.4 8.15 19.2 9.7 17.6 10.55 17.6 10.55 18.4 8.75 20.2 5.6 20.2 5.6 21.3 8.1 21.3 8.1 23.95 9.15 23.95 9.15 21.25 11.9 18.65 11.9 19.95 10.6 21.4 11.25 22.2 12.25 21.45 12.25 22.6 13.1 22.6 13.1 19.7 14.2 19.7 14.2 23.5 12.35 25.45 13.2 26.15 14.75 24.65 16.45 26.15 17.35 25.45 15.6 23.5 15.6 19.7 16.55 19.7 16.55 22.6 17.45 22.6 17.45 21.45 18.5 22.2 19.1 21.4 17.8 19.95 17.8 18.65 20.6 21.25 20.6 23.95 21.55 23.95 21.55 21.3 24.1 21.3 24.1 20.2 21.0 20.2 19.2 18.4 19.2 17.6 19.95 17.6 21.5 19.2 22.4 18.4 21.35 17.45 22.5 17.45 22.5 16.25 19.8 16.25 19.8 15.3 23.45 15.3 25.25 17.3 25.95 16.55 24.55 14.9 25.8 13.3 25.05 12.55 23.7 14.1 19.85 14.1 19.85 13.1 22.7 13.1 22.7 12.25 21.5 12.25 22.3 11.2 21.5 10.55 19.55 12.4 18.8 11.65 20.55 10.0 M26.1 14.35 L25.8 14.95 26.1 15.4 26.55 15.7 27.1 15.4 27.35 14.95 27.1 14.35 26.55 14.2 Q26.25 14.2 26.1 14.35 M22.4 22.85 L22.65 23.35 23.1 23.55 23.7 23.35 23.9 22.85 23.7 22.3 23.1 22.1 22.65 22.3 Q22.4 22.55 22.4 22.85 M15.6 3.1 L15.4 2.55 14.8 2.4 Q14.5 2.4 14.35 2.55 14.05 2.85 14.05 3.1 L14.35 3.6 14.8 3.9 15.4 3.6 15.6 3.1 M7.0 5.9 L7.2 6.45 7.0 6.95 6.45 7.2 Q6.15 7.2 5.9 6.95 L5.75 6.45 Q5.75 6.15 5.9 5.9 L6.45 5.75 7.0 5.9 M3.7 14.35 L3.9 14.95 3.7 15.4 3.1 15.7 2.6 15.4 2.45 14.95 2.6 14.35 Q2.85 14.2 3.1 14.2 L3.7 14.35 M6.0 23.35 L5.85 22.85 Q5.85 22.55 6.0 22.3 L6.6 22.1 7.1 22.3 7.3 22.85 7.1 23.35 6.6 23.55 6.0 23.35 M15.6 26.7 L15.4 26.15 14.8 25.95 Q14.5 25.95 14.35 26.15 14.05 26.35 14.05 26.7 L14.35 27.2 14.8 27.45 15.4 27.2 15.6 26.7 Z" fill="none" stroke="#469eb4" stroke-linecap="round" stroke-linejoin="round" stroke-width="0.5"/>
    </g>
    <linearGradient gradientTransform="matrix(0.0, 0.0083, -0.0124, 0.0, 15.85, 18.65)" gradientUnits="userSpaceOnUse" id="gradient0" spreadMethod="pad" x1="-819.2" x2="819.2">
      <stop offset="0.0" stop-color="#10a2d5"/>
      <stop offset="1.0" stop-color="#4edbef"/>
    </linearGradient>
  </defs>
</svg>
