<?xml version="1.0" encoding="UTF-8" standalone="no"?>
<svg xmlns:ffdec="https://www.free-decompiler.com/flash" xmlns:xlink="http://www.w3.org/1999/xlink" ffdec:objectType="frame" height="30.5px" width="29.1px" xmlns="http://www.w3.org/2000/svg">
  <g transform="matrix(1.0, 0.0, 0.0, 1.0, 28.85, 30.25)">
    <use ffdec:characterId="339" height="30.5" transform="matrix(1.0, 0.0, 0.0, 1.0, -28.85, -30.25)" width="29.1" xlink:href="#shape0"/>
  </g>
  <defs>
    <g id="shape0" transform="matrix(1.0, 0.0, 0.0, 1.0, 28.85, 30.25)">
      <path d="M-7.75 -16.3 Q-7.6 -15.6 -8.1 -15.15 -8.65 -14.6 -9.25 -14.6 -10.25 -14.6 -11.0 -15.55 -11.7 -16.55 -11.4 -18.05 -11.15 -19.55 -9.6 -20.7 -8.65 -21.55 -7.55 -21.75 -7.45 -25.0 -10.25 -27.0 -13.05 -28.95 -15.6 -28.75 L-19.0 -28.1 Q-16.4 -30.0 -13.05 -30.0 -8.85 -30.0 -5.75 -26.85 L-5.45 -26.45 Q-3.95 -24.7 -3.25 -22.45 L-2.9 -21.0 -2.65 -20.8 -2.25 -20.45 Q-1.5 -19.75 -0.75 -18.25 -0.1 -16.7 0.0 -14.4 0.15 -12.05 -1.05 -9.05 -1.9 -7.15 -3.25 -5.65 -4.05 -4.75 -5.15 -4.0 L-5.45 -3.8 Q-8.1 -2.05 -11.5 -3.6 -16.6 -5.85 -18.7 -2.45 -20.8 0.9 -24.35 -0.35 L-24.45 -0.4 -24.45 -0.45 -24.3 -0.6 -22.6 -0.8 Q-21.85 -1.1 -21.05 -1.7 -20.15 -2.3 -19.3 -3.95 L-17.55 -6.4 -16.4 -7.3 -15.9 -7.45 -14.55 -7.5 -13.2 -7.0 -10.15 -6.45 Q-8.0 -6.35 -5.55 -8.85 L-5.45 -9.0 Q-3.85 -10.55 -3.25 -12.45 L-2.9 -14.45 Q-2.85 -16.5 -3.25 -17.65 L-3.95 -18.9 Q-4.6 -19.55 -5.45 -19.9 L-6.45 -20.1 Q-7.9 -20.25 -8.75 -19.55 -9.8 -18.8 -9.8 -17.65 -9.8 -17.05 -9.45 -16.55 -9.2 -16.0 -8.5 -16.0 -8.3 -16.0 -7.9 -16.35 L-7.75 -16.3 M-28.45 -15.15 L-28.45 -13.9 -27.95 -11.3 Q-28.6 -12.55 -28.6 -13.85 L-28.45 -15.15" fill="#742497" fill-rule="evenodd" stroke="none"/>
      <path d="M-19.0 -28.1 L-15.6 -28.75 Q-13.05 -28.95 -10.25 -27.0 -7.45 -25.0 -7.55 -21.75 -8.65 -21.55 -9.6 -20.7 -11.15 -19.55 -11.4 -18.05 -11.7 -16.55 -11.0 -15.55 -10.25 -14.6 -9.25 -14.6 -8.65 -14.6 -8.1 -15.15 -7.6 -15.6 -7.75 -16.3 L-7.75 -16.35 -7.75 -16.45 -7.9 -16.35 Q-8.3 -16.0 -8.5 -16.0 -9.2 -16.0 -9.45 -16.55 -9.8 -17.05 -9.8 -17.65 -9.8 -18.8 -8.75 -19.55 -7.9 -20.25 -6.45 -20.1 L-5.45 -19.9 Q-4.6 -19.55 -3.95 -18.9 L-3.25 -17.65 Q-2.85 -16.5 -2.9 -14.45 L-3.25 -12.45 Q-3.85 -10.55 -5.45 -9.0 L-5.55 -8.85 Q-8.0 -6.35 -10.15 -6.45 L-13.2 -7.0 -14.55 -7.5 -15.9 -7.45 -16.4 -7.3 -17.55 -6.4 -19.3 -3.95 Q-20.15 -2.3 -21.05 -1.7 -21.85 -1.1 -22.6 -0.8 L-24.3 -0.6 -23.4 -1.65 Q-22.2 -3.2 -22.2 -4.2 -22.2 -6.05 -25.4 -8.5 -27.15 -9.8 -27.95 -11.3 L-28.45 -13.9 -28.45 -15.15 -28.45 -15.35 -28.4 -15.7 -28.3 -16.0 -26.9 -18.75 Q-25.3 -20.7 -23.25 -20.95 -22.75 -24.25 -20.35 -26.85 L-19.0 -28.1 M-15.05 -25.1 Q-15.05 -27.7 -17.1 -26.4 -19.1 -25.15 -19.1 -22.55 L-18.95 -21.7 Q-18.65 -21.0 -17.9 -20.95 L-17.8 -20.95 Q-17.5 -20.95 -15.05 -25.05 L-15.05 -25.1" fill="#e18be2" fill-rule="evenodd" stroke="none"/>
      <path d="M-7.75 -16.35 L-7.75 -16.3 -7.9 -16.35 -7.75 -16.35" fill="#2e214e" fill-rule="evenodd" stroke="none"/>
      <path d="M-15.05 -25.1 L-15.05 -25.05 Q-17.5 -20.95 -17.8 -20.95 L-17.9 -20.95 Q-18.65 -21.0 -18.95 -21.7 L-19.1 -22.55 Q-19.1 -25.15 -17.1 -26.4 -15.05 -27.7 -15.05 -25.1" fill="#ffffff" fill-rule="evenodd" stroke="none"/>
      <path d="M-19.0 -28.1 L-20.35 -26.85 Q-22.75 -24.25 -23.25 -20.95 -25.3 -20.7 -26.9 -18.75 L-28.3 -16.0 -28.4 -15.7 -28.45 -15.35 -28.45 -15.15 -28.6 -13.85 Q-28.6 -12.55 -27.95 -11.3 -27.15 -9.8 -25.4 -8.5 -22.2 -6.05 -22.2 -4.2 -22.2 -3.2 -23.4 -1.65 L-24.3 -0.6 -24.45 -0.45 -24.5 -0.4 -24.45 -0.4 -24.35 -0.35 Q-20.8 0.9 -18.7 -2.45 -16.6 -5.85 -11.5 -3.6 -8.1 -2.05 -5.45 -3.8 L-5.15 -4.0 Q-4.05 -4.75 -3.25 -5.65 -1.9 -7.15 -1.05 -9.05 0.15 -12.05 0.0 -14.4 -0.1 -16.7 -0.75 -18.25 -1.5 -19.75 -2.25 -20.45 L-2.65 -20.8 -2.9 -21.0 -3.25 -22.45 Q-3.95 -24.7 -5.45 -26.45 L-5.75 -26.85 Q-8.85 -30.0 -13.05 -30.0 -16.4 -30.0 -19.0 -28.1 Z" fill="none" stroke="#2d1e46" stroke-linecap="round" stroke-linejoin="round" stroke-width="0.5"/>
    </g>
  </defs>
</svg>
