<?xml version="1.0" encoding="UTF-8" standalone="no"?>
<svg xmlns:ffdec="https://www.free-decompiler.com/flash" xmlns:xlink="http://www.w3.org/1999/xlink" ffdec:objectType="frame" height="28.05px" width="41.0px" xmlns="http://www.w3.org/2000/svg">
  <g transform="matrix(1.0, 0.0, 0.0, 1.0, 0.5, 0.5)">
    <use ffdec:characterId="265" height="28.05" transform="matrix(1.0, 0.0, 0.0, 1.0, -0.5, -0.5)" width="41.0" xlink:href="#shape0"/>
  </g>
  <defs>
    <g id="shape0" transform="matrix(1.0, 0.0, 0.0, 1.0, 0.5, 0.5)">
      <path d="M39.75 15.2 Q39.1 11.0 36.5 5.9 33.35 0.0 32.3 0.0 31.95 0.0 28.95 4.15 26.3 7.25 23.95 7.7 L24.0 8.1 23.95 11.0 Q25.05 10.6 26.2 9.4 27.75 7.85 27.75 6.45 27.95 7.0 28.15 10.1 L28.4 13.85 29.05 13.85 30.5 9.3 30.8 11.3 30.6 13.6 30.75 15.0 30.7 16.15 31.95 13.8 33.2 11.1 Q33.9 13.8 33.9 17.0 L33.75 18.9 33.8 19.45 35.45 17.95 Q37.2 15.95 37.55 12.75 L38.3 13.95 Q39.05 15.15 39.7 15.35 L39.75 15.2 40.0 17.9 39.65 19.05 Q39.0 18.9 38.25 17.7 L37.5 16.45 Q37.15 19.7 35.4 21.7 L33.7 23.25 33.85 20.75 33.8 19.45 M30.6 13.6 L30.45 13.05 29.0 17.55 28.35 17.55 28.15 13.85 27.7 10.2 Q27.7 11.6 26.15 13.15 L23.9 14.75 23.95 11.85 23.75 7.75 23.95 7.7 M27.7 10.2 L27.7 9.65 M33.75 18.9 L33.15 14.85 31.9 17.55 29.45 21.95 29.2 21.95 Q29.2 21.5 29.95 19.35 L30.7 16.15" fill="none" stroke="#660033" stroke-linecap="round" stroke-linejoin="round" stroke-width="1.0"/>
      <path d="M30.6 13.6 L30.8 11.3 30.5 9.3 29.05 13.85 28.4 13.85 28.15 10.1 Q27.95 7.0 27.75 6.45 27.75 7.85 26.2 9.4 25.05 10.6 23.95 11.0 L24.0 8.1 23.95 7.7 Q26.3 7.25 28.95 4.15 31.95 0.0 32.3 0.0 33.35 0.0 36.5 5.9 39.1 11.0 39.75 15.2 L39.7 15.35 Q39.05 15.15 38.3 13.95 L37.55 12.75 Q37.2 15.95 35.45 17.95 L33.8 19.45 33.75 18.9 33.9 17.0 Q33.9 13.8 33.2 11.1 L31.95 13.8 30.7 16.15 30.75 15.0 30.6 13.6" fill="#ffffff" fill-rule="evenodd" stroke="none"/>
      <path d="M23.95 7.7 L24.0 8.1 23.95 11.0 Q25.05 10.6 26.2 9.4 27.75 7.85 27.75 6.45 27.95 7.0 28.15 10.1 L28.4 13.85 29.05 13.85 30.5 9.3 30.8 11.3 30.6 13.6 30.45 13.05 29.0 17.55 28.35 17.55 28.15 13.85 27.7 10.2 Q27.7 11.6 26.15 13.15 L23.9 14.75 23.95 11.85 23.75 7.75 23.95 7.7 M30.7 16.15 L31.95 13.8 33.2 11.1 Q33.9 13.8 33.9 17.0 L33.75 18.9 33.15 14.85 31.9 17.55 29.45 21.95 29.2 21.95 Q29.2 21.5 29.95 19.35 L30.7 16.15 M33.8 19.45 L35.45 17.95 Q37.2 15.95 37.55 12.75 L38.3 13.95 Q39.05 15.15 39.7 15.35 L39.75 15.2 40.0 17.9 39.65 19.05 Q39.0 18.9 38.25 17.7 L37.5 16.45 Q37.15 19.7 35.4 21.7 L33.7 23.25 33.85 20.75 33.8 19.45" fill="#a6c2ff" fill-rule="evenodd" stroke="none"/>
      <path d="M12.3 10.2 Q12.3 11.6 13.85 13.15 15.0 14.3 16.1 14.75 L16.05 11.85 16.2 7.75 16.05 7.7 16.0 8.1 16.05 11.0 Q14.95 10.6 13.8 9.4 12.25 7.85 12.25 6.45 12.05 7.0 11.8 10.1 L11.6 13.85 10.95 13.85 9.5 9.3 Q9.2 10.65 9.2 11.3 L9.4 13.6 9.55 13.05 11.0 17.55 11.65 17.55 11.85 13.85 Q12.1 10.7 12.3 10.2 L12.3 9.65 M16.05 7.7 Q13.65 7.25 11.05 4.15 8.05 0.0 7.7 0.0 6.65 0.0 3.5 5.9 0.9 11.0 0.2 15.2 L0.3 15.35 Q0.95 15.15 1.7 13.95 L2.45 12.75 Q2.8 15.95 4.55 17.95 5.3 18.95 6.2 19.45 L6.25 18.9 6.1 17.0 Q6.1 13.8 6.8 11.1 L8.05 13.8 9.25 16.15 9.25 15.0 9.4 13.6 M6.25 18.9 Q6.35 16.75 6.85 14.85 L8.1 17.55 10.55 21.95 10.75 21.95 10.0 19.35 Q9.45 17.75 9.25 16.15 M0.2 15.2 L0.0 17.9 Q0.0 18.45 0.35 19.05 1.0 18.9 1.75 17.7 L2.5 16.45 Q2.85 19.7 4.55 21.7 L6.3 23.25 6.15 20.75 6.2 19.45" fill="none" stroke="#660033" stroke-linecap="round" stroke-linejoin="round" stroke-width="1.0"/>
      <path d="M16.05 7.7 L16.0 8.1 16.05 11.0 Q14.95 10.6 13.8 9.4 12.25 7.85 12.25 6.45 12.05 7.0 11.8 10.1 L11.6 13.85 10.95 13.85 9.5 9.3 Q9.2 10.65 9.2 11.3 L9.4 13.6 9.25 15.0 9.25 16.15 8.05 13.8 6.8 11.1 Q6.1 13.8 6.1 17.0 L6.25 18.9 6.2 19.45 Q5.3 18.95 4.55 17.95 2.8 15.95 2.45 12.75 L1.7 13.95 Q0.95 15.15 0.3 15.35 L0.2 15.2 Q0.9 11.0 3.5 5.9 6.65 0.0 7.7 0.0 8.05 0.0 11.05 4.15 13.65 7.25 16.05 7.7" fill="#ffffff" fill-rule="evenodd" stroke="none"/>
      <path d="M9.4 13.6 L9.2 11.3 Q9.2 10.65 9.5 9.3 L10.95 13.85 11.6 13.85 11.8 10.1 Q12.05 7.0 12.25 6.45 12.25 7.85 13.8 9.4 14.95 10.6 16.05 11.0 L16.0 8.1 16.05 7.7 16.2 7.75 16.05 11.85 16.1 14.75 Q15.0 14.3 13.85 13.15 12.3 11.6 12.3 10.2 12.1 10.7 11.85 13.85 L11.65 17.55 11.0 17.55 9.55 13.05 9.4 13.6 M0.2 15.2 L0.3 15.35 Q0.95 15.15 1.7 13.95 L2.45 12.75 Q2.8 15.95 4.55 17.95 5.3 18.95 6.2 19.45 L6.15 20.75 6.3 23.25 4.55 21.7 Q2.85 19.7 2.5 16.45 L1.75 17.7 Q1.0 18.9 0.35 19.05 0.0 18.45 0.0 17.9 L0.2 15.2 M6.25 18.9 L6.1 17.0 Q6.1 13.8 6.8 11.1 L8.05 13.8 9.25 16.15 Q9.45 17.75 10.0 19.35 L10.75 21.95 10.55 21.95 8.1 17.55 6.85 14.85 Q6.35 16.75 6.25 18.9" fill="#a6c2ff" fill-rule="evenodd" stroke="none"/>
      <path d="M13.9 25.6 L13.6 25.4 11.8 23.8 Q9.1 20.85 8.9 16.75 L8.9 15.05 8.95 14.9 Q9.15 11.95 10.3 9.55 11.15 7.7 12.45 6.15 L13.6 5.05 Q14.25 4.45 14.95 4.0 L15.5 4.15 15.6 4.75 Q15.0 6.6 15.5 8.6 L18.05 4.5 19.2 3.1 20.05 2.65 Q20.6 2.65 20.95 3.1 L22.0 4.5 24.6 8.6 24.75 7.55 Q24.95 6.1 24.45 4.75 L24.45 4.6 26.3 7.65 Q27.55 10.15 27.55 12.8 27.55 14.5 27.2 16.1 26.6 15.7 26.0 15.7 L25.05 15.85 24.0 16.1 21.65 16.35 20.3 16.5 20.15 16.5 20.05 16.5 19.8 16.5 19.1 16.45 18.85 16.45 18.3 16.35 17.35 16.2 14.95 15.85 13.6 15.7 Q13.15 15.85 12.7 16.1 L12.55 16.15 11.75 16.95 Q11.2 17.75 11.55 18.75 11.9 20.45 13.25 21.7 L13.6 21.95 14.25 22.35 16.55 23.3 16.6 23.3 19.6 23.6 19.65 23.6 19.8 23.6 20.4 23.6 23.05 23.4 23.2 23.4 Q20.25 26.15 15.95 26.2 L13.9 25.6 M14.25 8.3 L13.65 7.4 13.6 7.45 Q12.5 7.7 11.95 8.85 L11.45 10.5 Q11.4 11.15 11.9 11.6 L12.45 11.6 13.6 10.05 13.75 9.6 14.25 8.3 M11.4 14.45 L12.2 12.95 11.9 12.6 Q11.0 11.9 10.4 12.8 L10.15 13.1 10.2 13.85 10.55 14.5 11.4 14.45" fill="#6699ff" fill-rule="evenodd" stroke="none"/>
      <path d="M24.45 4.6 Q24.4 4.35 24.6 4.25 L24.7 4.1 25.2 4.0 Q26.55 4.3 28.6 7.1 L29.5 8.6 30.0 9.55 30.3 10.6 Q30.9 12.5 31.1 14.95 31.3 17.95 30.3 20.35 L29.5 21.95 28.3 23.7 Q26.6 25.55 24.5 26.45 22.5 27.3 20.1 27.3 L19.2 27.3 19.05 27.3 18.85 27.25 Q16.75 27.05 14.95 26.2 L13.9 25.6 15.95 26.2 Q20.25 26.15 23.2 23.4 L23.4 23.3 23.45 23.3 Q25.25 22.8 26.7 21.7 28.1 20.45 28.45 18.75 28.75 17.85 28.3 17.0 L27.25 16.1 27.2 16.1 Q27.55 14.5 27.55 12.8 27.55 10.15 26.3 7.65 L24.45 4.6" fill="#6633cc" fill-rule="evenodd" stroke="none"/>
      <path d="M27.2 16.1 L27.25 16.1 28.3 17.0 Q28.75 17.85 28.45 18.75 28.1 20.45 26.7 21.7 25.25 22.8 23.45 23.3 L23.4 23.3 23.2 23.4 23.05 23.4 20.4 23.6 19.8 23.6 19.65 23.6 19.6 23.6 16.6 23.3 16.55 23.3 14.25 22.35 13.6 21.95 13.25 21.7 Q11.9 20.45 11.55 18.75 11.2 17.75 11.75 16.95 L12.55 16.15 12.7 16.1 Q13.15 15.85 13.6 15.7 L14.95 15.85 17.35 16.2 18.3 16.35 18.85 16.45 19.1 16.45 19.8 16.5 20.05 16.5 20.15 16.5 20.3 16.5 21.65 16.35 24.0 16.1 25.05 15.85 26.0 15.7 Q26.6 15.7 27.2 16.1 M25.65 18.05 L25.75 18.5 25.45 19.1 25.3 19.25 24.85 19.3 Q24.5 19.3 24.3 19.1 24.0 18.85 24.0 18.5 24.0 18.15 24.3 17.9 24.5 17.6 24.85 17.6 25.25 17.6 25.45 17.9 L25.65 18.05 M26.15 17.35 L25.85 17.0 25.1 16.75 Q24.45 16.75 24.0 17.35 23.6 18.05 23.6 19.1 23.6 20.2 24.0 20.85 L24.35 21.3 24.75 21.55 25.1 21.6 Q25.75 21.6 26.15 20.85 26.6 20.2 26.6 19.1 L26.55 18.25 26.15 17.35 M25.1 19.8 L25.35 20.3 24.9 20.65 24.7 20.55 24.7 20.5 24.65 20.35 Q24.65 19.8 25.05 19.8 L25.1 19.8 M26.15 19.25 L26.2 19.55 25.9 19.8 25.85 19.8 25.7 19.55 Q25.7 19.2 25.95 19.2 L26.15 19.25 M14.25 8.3 L13.75 9.6 13.6 10.05 12.45 11.6 11.9 11.6 Q11.4 11.15 11.45 10.5 L11.95 8.85 Q12.5 7.7 13.6 7.45 L13.65 7.4 14.25 8.3 M15.65 18.5 L15.45 19.1 14.85 19.3 Q14.4 19.3 14.25 19.1 13.95 18.85 13.95 18.5 13.95 18.15 14.25 17.9 14.4 17.6 14.85 17.6 15.15 17.6 15.45 17.9 L15.65 18.5 M11.4 14.45 L10.55 14.5 10.2 13.85 10.15 13.1 10.4 12.8 Q11.0 11.9 11.9 12.6 L12.2 12.95 11.4 14.45 M15.1 16.75 Q14.5 16.75 13.95 17.45 13.6 18.25 13.6 19.15 13.6 20.2 13.95 20.95 14.5 21.6 15.1 21.6 15.8 21.6 16.2 20.95 16.6 20.2 16.6 19.15 16.6 18.25 16.2 17.45 15.8 16.75 15.1 16.75 M14.3 20.45 L14.25 20.3 Q14.25 19.8 14.55 19.75 14.95 19.55 14.95 20.1 14.95 20.55 14.55 20.55 L14.3 20.45 M15.65 19.55 Q15.95 19.45 15.95 19.75 15.95 20.2 15.6 20.2 15.35 20.2 15.35 19.85 15.35 19.6 15.65 19.55" fill="#ffffff" fill-rule="evenodd" stroke="none"/>
      <path d="M25.65 18.05 L25.45 17.9 Q25.25 17.6 24.85 17.6 24.5 17.6 24.3 17.9 24.0 18.15 24.0 18.5 24.0 18.85 24.3 19.1 24.5 19.3 24.85 19.3 L25.3 19.25 25.45 19.1 25.75 18.5 25.65 18.05 M26.15 17.35 L26.55 18.25 26.6 19.1 Q26.6 20.2 26.15 20.85 25.75 21.6 25.1 21.6 L24.75 21.55 24.35 21.3 24.0 20.85 Q23.6 20.2 23.6 19.1 23.6 18.05 24.0 17.35 24.45 16.75 25.1 16.75 L25.85 17.0 26.15 17.35 M26.15 19.25 L25.95 19.2 Q25.7 19.2 25.7 19.55 L25.85 19.8 25.9 19.8 26.2 19.55 26.15 19.25 M25.1 19.8 L25.05 19.8 Q24.65 19.8 24.65 20.35 L24.7 20.5 24.7 20.55 24.9 20.65 25.35 20.3 25.1 19.8 M15.65 18.5 L15.45 17.9 Q15.15 17.6 14.85 17.6 14.4 17.6 14.25 17.9 13.95 18.15 13.95 18.5 13.95 18.85 14.25 19.1 14.4 19.3 14.85 19.3 L15.45 19.1 15.65 18.5 M15.1 16.75 Q15.8 16.75 16.2 17.45 16.6 18.25 16.6 19.15 16.6 20.2 16.2 20.95 15.8 21.6 15.1 21.6 14.5 21.6 13.95 20.95 13.6 20.2 13.6 19.15 13.6 18.25 13.95 17.45 14.5 16.75 15.1 16.75 M15.65 19.55 Q15.35 19.6 15.35 19.85 15.35 20.2 15.6 20.2 15.95 20.2 15.95 19.75 15.95 19.45 15.65 19.55 M14.3 20.45 L14.55 20.55 Q14.95 20.55 14.95 20.1 14.95 19.55 14.55 19.75 14.25 19.8 14.25 20.3 L14.3 20.45" fill="#6633ff" fill-rule="evenodd" stroke="none"/>
      <path d="M24.45 4.6 Q24.4 4.35 24.6 4.25 L24.7 4.1 25.2 4.0 Q26.55 4.3 28.6 7.1 L29.5 8.6 30.0 9.55 30.3 10.6 Q30.9 12.5 31.1 14.95 31.3 17.95 30.3 20.35 L29.5 21.95 28.3 23.7 Q26.6 25.55 24.5 26.45 22.5 27.3 20.1 27.3 L19.2 27.3 19.05 27.3 18.85 27.25 Q16.75 27.05 14.95 26.2 L13.9 25.6 13.6 25.4 11.8 23.8 Q9.1 20.85 8.9 16.75 L8.9 15.05 8.95 14.9 Q9.15 11.95 10.3 9.55 11.15 7.7 12.45 6.15 L13.6 5.05 Q14.25 4.45 14.95 4.0 L15.5 4.15 15.6 4.75 Q15.0 6.6 15.5 8.6 L18.05 4.5 19.2 3.1 20.05 2.65 Q20.6 2.65 20.95 3.1 L22.0 4.5 24.6 8.6 24.75 7.55 Q24.95 6.1 24.45 4.75 L24.45 4.6 Z" fill="none" stroke="#660033" stroke-linecap="round" stroke-linejoin="round" stroke-width="0.5"/>
      <path d="M21.0 6.8 L22.25 7.95 23.85 9.95 23.35 9.9 22.8 9.8 22.0 9.6 22.4 9.6 22.05 8.7 21.0 6.8" fill="#54f0ff" fill-rule="evenodd" stroke="none"/>
      <path d="M20.5 6.4 L21.0 6.8 22.05 8.7 22.4 9.6 22.0 9.6 20.85 9.4 21.45 9.45 20.95 9.0 Q20.7 8.4 20.5 6.4" fill="#62cfff" fill-rule="evenodd" stroke="none"/>
      <path d="M21.7 13.4 L21.5 13.7 21.35 13.8 21.3 13.9 20.95 13.3 20.7 11.75 Q20.65 11.05 19.45 9.45 L19.8 9.0 19.85 8.95 19.9 8.85 20.0 8.35 20.25 7.15 20.1 6.2 20.5 6.4 Q20.7 8.4 20.95 9.0 L21.45 9.45 20.85 9.4 22.0 9.6 22.8 9.8 20.85 9.55 21.3 13.5 21.7 13.4" fill="#e2f1ff" fill-rule="evenodd" stroke="none"/>
      <path d="M23.85 9.95 L22.5 12.2 23.35 9.9 23.85 9.95" fill="#66c8ff" fill-rule="evenodd" stroke="none"/>
      <path d="M22.5 12.2 L22.05 13.4 21.7 13.4 21.3 13.5 20.85 9.55 22.8 9.8 23.35 9.9 22.5 12.2 21.7 13.4 22.5 12.2" fill="#66a6ff" fill-rule="evenodd" stroke="none"/>
      <path d="M20.05 15.55 Q16.15 11.2 16.15 9.65 L18.3 9.3 19.8 9.0 19.45 9.45 16.75 9.65 16.9 10.4 18.35 12.8 Q19.55 14.6 20.0 14.75 20.9 14.05 21.0 13.6 L20.95 13.3 21.3 13.9 20.05 15.55 M19.9 8.85 L19.85 8.85 20.0 8.35 19.9 8.85" fill="#93ccff" fill-rule="evenodd" stroke="none"/>
      <path d="M20.95 13.3 L21.0 13.6 16.9 10.4 16.75 9.65 19.45 9.45 Q20.65 11.05 20.7 11.75 L20.95 13.3" fill="#2c62ff" fill-rule="evenodd" stroke="none"/>
      <path d="M21.5 13.7 L20.4 15.55 20.15 15.75 20.05 15.55 21.3 13.9 21.35 13.8 21.5 13.7" fill="#66aeff" fill-rule="evenodd" stroke="none"/>
      <path d="M19.55 6.65 L19.7 6.55 19.7 6.5 20.1 6.2 20.25 7.15 20.0 8.35 19.85 8.85 19.9 8.85 19.85 8.95 19.25 9.05 17.35 9.35 17.35 9.25 Q17.45 8.85 18.05 8.1 L19.55 6.65" fill="#6684ff" fill-rule="evenodd" stroke="none"/>
      <path d="M16.15 9.65 L18.05 7.8 19.55 6.65 18.05 8.1 Q17.45 8.85 17.35 9.25 L17.35 9.35 19.25 9.05 19.85 8.95 19.8 9.0 18.3 9.3 16.15 9.65" fill="#939cff" fill-rule="evenodd" stroke="none"/>
      <path d="M21.0 13.6 Q20.9 14.05 20.0 14.75 19.55 14.6 18.35 12.8 L16.9 10.4 21.0 13.6" fill="#0099ff" fill-rule="evenodd" stroke="none"/>
      <path d="M21.0 6.8 L22.25 7.95 23.85 9.95 22.5 12.2 21.7 13.4 21.5 13.7 20.4 15.55 20.15 15.75 20.05 15.55 Q16.15 11.2 16.15 9.65 L18.05 7.8 19.55 6.65 19.7 6.55 19.7 6.5 20.1 6.2 20.5 6.4 21.0 6.8 Z" fill="none" stroke="#2c62ff" stroke-linecap="round" stroke-linejoin="round" stroke-width="0.5"/>
    </g>
  </defs>
</svg>
