<?xml version="1.0" encoding="UTF-8" standalone="no"?>
<svg xmlns:ffdec="https://www.free-decompiler.com/flash" xmlns:xlink="http://www.w3.org/1999/xlink" ffdec:objectType="frame" height="57.4px" width="59.1px" xmlns="http://www.w3.org/2000/svg">
  <g transform="matrix(1.0, 0.0, 0.0, 1.0, 1.4, 1.45)">
    <clipPath id="clipPath0" transform="matrix(1.0, 0.0, 0.0, 1.0, 0.0, 0.0)">
      <path d="M50.5 0.0 Q53.95 0.0 53.95 3.3 L53.95 50.15 Q53.95 53.4 50.5 53.4 L3.3 53.4 Q0.0 53.4 0.0 50.15 L0.0 3.3 Q0.0 0.0 3.3 0.0 L50.5 0.0" fill="#000000" fill-rule="evenodd" stroke="none"/>
    </clipPath>
    <g clip-path="url(#clipPath0)">
      <use ffdec:characterId="2" height="57.4" transform="matrix(1.0, 0.0, 0.0, 1.0, -1.4, -1.45)" width="59.1" xlink:href="#shape1"/>
    </g>
    <use ffdec:characterId="3" height="53.4" transform="matrix(1.0, 0.0, 0.0, 1.0, 0.0, 0.0)" width="53.95" xlink:href="#shape2"/>
  </g>
  <defs>
    <g id="shape1" transform="matrix(1.0, 0.0, 0.0, 1.0, 1.4, 1.45)">
      <path d="M3.9 5.25 Q5.15 5.35 6.8 6.25 8.6 7.25 9.85 7.35 11.4 7.35 12.05 6.6 12.65 5.95 12.7 4.35 12.75 3.6 12.0 1.1 L11.5 -0.95 13.45 -0.95 13.4 -0.6 Q13.35 1.85 15.15 3.7 L17.6 6.5 17.6 6.55 Q20.5 7.7 21.45 7.35 L22.0 7.55 22.05 7.25 21.95 7.05 22.45 6.7 23.45 5.75 23.5 5.85 Q24.25 7.2 26.4 8.1 L30.45 10.1 28.3 9.85 Q23.9 9.7 20.45 11.45 L19.9 11.8 Q18.6 10.45 16.3 9.95 L14.45 10.15 13.75 10.3 12.15 11.05 11.95 11.45 Q11.3 12.8 11.25 14.3 L11.25 15.0 Q11.45 16.9 13.3 18.35 L13.45 18.45 13.55 18.55 Q14.5 19.2 15.35 19.55 L17.55 19.85 16.85 20.7 Q16.4 21.5 16.35 22.1 16.3 23.15 17.35 23.85 L18.05 24.25 18.95 24.45 19.05 24.45 17.45 24.75 16.7 24.65 Q15.9 24.5 15.4 24.2 14.9 23.85 14.85 23.3 L14.35 21.7 13.8 21.0 13.1 20.9 12.4 20.75 11.4 20.25 11.35 20.25 10.45 20.85 10.45 20.95 9.15 21.95 8.7 22.2 Q7.65 22.75 7.6 23.85 L8.2 26.05 8.7 27.7 8.75 28.6 Q8.75 29.8 7.65 33.55 L7.5 34.05 7.15 35.4 7.2 35.4 7.2 35.5 5.05 36.75 5.0 36.8 3.7 37.7 3.7 37.55 4.1 36.7 5.55 33.5 5.65 33.3 5.75 30.45 5.9 29.3 5.9 29.25 5.9 28.25 5.85 27.6 5.5 26.7 Q5.1 25.9 4.35 25.55 L3.6 25.3 2.85 25.0 2.65 24.55 Q1.8 22.55 1.8 21.4 L1.9 20.7 4.65 20.8 Q8.55 21.1 8.65 18.2 8.75 15.85 7.0 13.4 5.9 11.75 3.55 9.6 3.3 8.5 3.35 7.3 3.35 6.05 3.9 5.25 M42.05 18.4 L42.8 18.0 43.25 17.65 43.65 17.25 43.4 16.65 43.3 15.8 43.3 15.45 Q43.35 14.85 43.55 14.3 43.8 13.1 44.55 12.25 L44.8 11.9 45.45 11.4 Q46.45 10.7 47.85 10.6 L47.05 11.35 46.95 11.5 Q45.35 13.25 45.25 15.4 45.15 17.3 46.35 18.7 L46.5 18.8 Q48.0 20.45 50.85 20.55 51.95 20.6 52.8 20.0 L51.8 20.85 51.1 21.25 Q49.75 22.0 48.2 21.95 L46.95 21.6 46.1 21.3 45.15 21.9 44.4 22.5 Q43.55 20.35 42.6 19.2 L42.5 19.1 42.25 18.65 42.15 18.5 42.1 18.45 42.05 18.4 M48.35 38.95 L49.25 39.45 50.15 39.9 50.2 39.9 49.8 40.55 Q49.05 41.6 49.05 42.4 48.95 44.6 50.55 46.5 L52.2 47.95 54.25 48.5 55.05 48.45 Q55.85 48.35 56.45 47.8 L56.75 47.4 Q56.35 48.45 55.55 49.35 L55.0 49.9 Q53.55 51.15 51.85 51.05 50.5 50.95 48.5 50.1 L48.4 50.6 48.4 50.65 48.2 51.35 48.0 52.15 47.2 54.05 46.3 55.45 41.75 55.45 42.15 55.25 Q45.4 53.45 47.35 50.6 L47.8 49.8 48.6 48.15 48.6 48.45 48.75 47.3 Q48.9 43.45 48.35 38.95 M15.55 55.45 L6.85 55.45 Q4.7 53.8 3.6 52.05 L2.45 49.85 2.4 49.65 Q0.65 50.9 -0.9 51.45 L-0.9 48.6 Q0.45 48.3 1.7 47.45 L3.75 45.6 3.85 45.5 Q5.5 43.55 6.2 41.45 L6.2 41.35 Q6.2 42.25 6.35 43.1 L6.6 44.75 6.6 44.8 6.6 44.9 Q7.4 48.35 9.85 51.1 L12.65 53.7 Q13.95 54.65 15.55 55.45 M2.8 38.35 L2.8 38.3 2.85 38.25 2.85 38.3 2.8 38.35 M43.8 17.65 L43.65 17.25 43.8 17.65 M44.9 20.3 L45.75 21.05 46.1 21.3 45.75 21.05 44.9 20.3 M48.55 48.9 L48.55 49.0 48.5 50.05 48.5 50.1 48.5 50.05 48.55 49.0 48.55 48.9 48.45 50.05 48.4 50.6 48.45 50.05 48.55 48.9 48.55 48.6 48.55 48.9 M48.6 48.45 L48.55 48.55 48.55 48.6 48.55 48.55 48.6 48.45 M11.35 20.25 L10.95 19.9 Q9.85 18.85 9.85 17.0 9.8 15.45 10.1 14.25 L10.4 13.35 Q11.0 11.9 12.15 11.05 11.0 11.9 10.4 13.35 L10.1 14.25 Q9.8 15.45 9.85 17.0 9.85 18.85 10.95 19.9 L11.35 20.25 M1.45 10.3 L1.9 10.75 1.95 10.9 2.0 11.5 Q2.0 12.1 1.3 12.45 L0.35 12.65 -0.9 12.45 -0.9 11.3 -0.25 11.45 0.25 11.35 0.4 10.95 1.4 10.95 1.45 10.3 M16.7 20.4 L15.4 20.8 13.8 21.0 15.4 20.8 16.7 20.4 M2.4 49.6 L3.35 48.8 4.3 47.85 6.6 44.9 4.3 47.85 3.35 48.8 2.4 49.6 2.45 49.75 2.45 49.85 2.45 49.75 2.4 49.6 2.4 49.65 2.4 49.6" fill="#4190d2" fill-rule="evenodd" stroke="none"/>
      <path d="M10.15 -0.95 L11.5 -0.95 12.0 1.1 Q12.75 3.6 12.7 4.35 12.65 5.95 12.05 6.6 11.4 7.35 9.85 7.35 8.6 7.25 6.8 6.25 5.15 5.35 3.9 5.25 L4.6 4.4 Q4.8 4.15 5.05 4.05 5.7 4.2 7.2 4.9 8.95 5.75 9.65 5.8 10.5 5.85 10.9 5.1 L11.2 3.75 Q11.3 2.35 10.7 0.75 L10.15 -0.95 M13.45 -0.95 L16.4 -0.95 16.4 -0.8 Q16.4 0.0 16.9 0.65 17.4 1.3 18.15 1.35 19.15 1.4 19.15 0.45 L18.9 -0.95 20.55 -0.95 Q21.45 0.3 22.0 2.1 L22.25 2.85 23.45 5.75 22.45 6.7 21.95 7.05 21.05 5.1 20.15 2.8 19.95 2.1 19.9 2.0 Q19.4 1.65 19.0 1.65 L18.75 1.75 18.6 2.05 18.65 2.7 Q18.8 3.75 19.6 5.35 20.15 6.6 21.45 7.35 20.5 7.7 17.6 6.55 L17.6 6.5 15.15 3.7 Q13.35 1.85 13.4 -0.6 L13.45 -0.95 M30.45 10.1 L34.65 12.35 Q39.8 15.2 42.05 18.4 L42.1 18.45 42.15 18.5 42.25 18.7 42.5 19.1 42.6 19.2 Q43.55 20.35 44.4 22.5 45.7 25.65 46.9 30.85 L48.35 38.95 Q48.9 43.45 48.75 47.3 L48.6 48.45 48.6 48.15 47.8 49.8 47.35 50.6 Q45.4 53.45 42.15 55.25 L41.75 55.45 41.75 55.25 Q41.75 54.65 42.45 53.85 L42.6 53.6 43.85 52.15 Q45.8 49.8 46.0 46.9 L47.15 45.75 Q47.8 44.65 47.65 43.15 47.55 41.6 46.75 40.6 45.9 39.65 44.9 39.7 44.6 39.75 44.35 39.9 L43.35 38.3 43.45 38.2 Q44.45 36.9 44.5 35.3 44.55 34.3 43.95 33.0 43.55 31.95 43.0 31.4 L40.3 33.5 Q38.0 35.05 37.95 36.65 37.9 37.7 38.65 38.5 L36.7 39.25 34.25 40.0 27.8 37.1 27.8 36.95 27.75 36.6 Q27.75 35.4 27.0 34.75 L24.3 33.2 21.75 31.35 19.9 29.85 Q18.9 30.2 18.15 31.65 17.55 33.0 17.45 34.35 17.4 36.85 19.05 38.9 L19.35 39.2 18.85 39.5 17.9 40.1 Q17.15 39.65 16.25 39.55 14.6 39.35 13.4 40.2 12.15 41.15 12.0 42.65 11.9 43.55 12.3 44.4 L12.1 44.7 Q12.6 46.7 14.7 50.1 L16.1 52.6 Q16.8 54.0 16.75 54.6 L16.65 55.25 16.6 55.45 15.55 55.45 Q13.95 54.65 12.65 53.7 L9.85 51.1 Q7.4 48.35 6.6 44.9 L6.6 44.8 6.6 44.75 6.35 43.1 Q6.2 42.25 6.2 41.35 L6.2 41.45 Q5.5 43.55 3.85 45.5 L3.75 45.6 1.7 47.45 Q0.45 48.3 -0.9 48.6 L-0.9 42.05 -0.75 41.8 Q-0.75 41.55 -0.9 41.45 L-0.9 40.15 Q0.6 39.6 2.1 38.7 L2.8 38.35 2.85 38.3 2.85 38.25 2.8 38.3 3.4 36.7 3.7 36.05 4.75 33.45 5.75 30.45 5.65 33.3 5.55 33.5 4.1 36.7 3.7 37.55 3.7 37.7 5.0 36.8 5.05 36.75 7.2 35.5 7.2 35.4 7.15 35.4 7.5 34.05 7.65 33.55 Q8.75 29.8 8.75 28.6 L8.7 27.7 8.2 26.05 7.6 23.85 Q7.65 22.75 8.7 22.2 L9.15 21.95 10.45 20.95 10.45 20.85 11.35 20.25 11.4 20.25 12.4 20.75 13.1 20.9 13.8 21.0 14.35 21.7 14.85 23.3 Q14.9 23.85 15.4 24.2 15.9 24.5 16.7 24.65 L17.45 24.75 19.05 24.45 20.15 23.8 Q21.8 22.5 21.7 21.35 21.7 20.15 20.85 19.45 L19.95 18.35 Q21.45 16.45 21.3 14.65 L21.0 13.6 Q20.6 12.55 19.9 11.8 20.6 12.55 21.0 13.6 L21.3 14.65 Q21.45 16.45 19.95 18.35 L20.85 19.45 Q21.7 20.15 21.7 21.35 21.8 22.5 20.15 23.8 L19.05 24.45 18.95 24.45 18.05 24.25 17.35 23.85 Q16.3 23.15 16.35 22.1 16.4 21.5 16.85 20.7 L17.55 19.85 15.35 19.55 Q14.5 19.2 13.55 18.55 L13.45 18.45 13.3 18.35 Q11.45 16.9 11.25 15.0 L11.25 14.3 Q11.3 12.8 11.95 11.45 L12.15 11.05 13.75 10.3 14.45 10.15 16.3 9.95 Q18.6 10.45 19.9 11.8 L20.45 11.45 Q23.9 9.7 28.3 9.85 L30.45 10.1 M47.85 10.6 L48.4 10.6 Q49.95 10.65 51.25 11.65 L52.4 12.75 Q54.05 14.7 53.95 16.85 53.9 18.05 53.5 18.95 L52.8 20.0 Q51.95 20.6 50.85 20.55 48.0 20.45 46.5 18.8 L46.35 18.7 Q45.15 17.3 45.25 15.4 45.35 13.25 46.95 11.5 L47.05 11.35 47.85 10.6 M50.2 39.9 L52.1 40.75 Q54.3 41.45 55.3 42.0 L55.7 42.25 56.0 42.5 Q57.3 43.5 57.2 45.2 57.15 46.4 56.75 47.4 L56.45 47.8 Q55.85 48.35 55.05 48.45 L54.25 48.5 52.2 47.95 50.55 46.5 Q48.95 44.6 49.05 42.4 49.05 41.6 49.8 40.55 L50.2 39.9 M40.55 55.45 L39.15 55.45 39.15 55.35 Q39.3 54.65 39.85 53.75 L40.3 52.85 40.35 52.75 40.45 52.65 42.25 50.25 Q43.55 48.5 43.4 45.7 L43.65 46.05 Q44.2 46.75 44.85 46.95 L44.8 47.2 Q44.7 49.4 42.55 52.2 L41.4 53.8 Q40.75 54.75 40.55 55.45 M33.9 55.45 L30.4 55.45 30.4 55.4 Q31.35 54.05 32.4 54.1 33.15 54.1 33.9 55.45 M20.0 55.45 L17.9 55.45 18.05 54.7 Q18.1 52.9 16.3 49.85 L14.35 46.4 15.55 46.75 15.55 46.85 Q16.0 47.95 17.85 50.25 20.2 53.15 20.2 54.6 L20.2 54.7 20.0 55.45 M2.3 19.55 L3.35 19.75 5.05 19.65 Q6.15 19.55 6.8 18.75 7.4 17.9 7.2 15.95 7.1 15.0 6.4 13.9 L4.3 11.3 4.1 11.05 Q2.45 9.35 1.9 8.15 L3.55 9.6 Q5.9 11.75 7.0 13.4 8.75 15.85 8.65 18.2 8.55 21.1 4.65 20.8 L1.9 20.7 Q2.0 20.15 2.25 19.7 L2.3 19.55 M48.95 13.05 Q48.55 13.35 48.5 14.25 48.5 15.35 49.15 16.25 49.85 17.2 51.05 17.2 52.2 17.25 52.25 16.15 52.3 15.1 51.7 13.95 L51.6 13.65 51.4 13.4 Q50.8 12.85 50.0 12.8 49.35 12.75 48.95 13.05 M40.0 39.45 L40.45 39.55 40.5 39.55 40.8 39.55 Q41.65 39.6 42.4 39.2 L43.25 40.95 Q42.95 41.45 42.8 42.1 L42.35 41.1 Q41.65 40.1 40.7 40.1 L37.85 41.35 Q35.05 42.65 33.85 42.55 32.6 42.4 30.25 41.25 27.95 40.15 26.4 40.0 L26.6 39.8 27.3 38.8 27.55 38.25 28.7 38.8 31.1 40.1 34.2 41.55 36.2 40.9 39.1 39.8 40.0 39.45 M40.7 23.75 Q40.45 22.7 39.7 21.9 39.0 21.1 38.0 21.05 37.2 21.0 36.25 21.85 35.45 22.6 35.0 23.45 L34.15 24.4 Q33.55 25.05 33.35 26.3 33.2 27.5 34.0 28.0 34.85 28.45 36.6 28.6 38.4 28.75 39.35 28.2 40.3 27.7 40.55 26.25 40.9 24.85 40.7 23.75 M7.75 35.0 L7.2 35.45 7.2 35.5 7.2 35.45 7.75 35.0 M1.45 10.3 L1.4 10.95 0.4 10.95 0.4 10.8 0.1 10.1 -0.15 9.85 -0.85 9.45 -0.9 9.45 -0.9 8.05 -0.85 8.1 1.45 10.3 M17.95 15.45 Q18.8 14.95 18.85 14.0 18.85 13.4 18.45 12.75 L18.3 12.55 18.2 12.45 Q17.45 11.8 16.55 11.8 15.55 11.75 14.55 12.4 13.55 13.05 13.55 13.8 13.55 14.6 14.05 15.2 L14.2 15.3 Q14.95 11.95 15.25 15.8 L15.35 15.85 16.05 15.95 Q17.15 15.95 17.95 15.45 M18.9 19.35 L19.95 18.35 18.9 19.35 M2.85 38.25 L3.7 37.7 2.85 38.25 M19.1 41.0 L20.55 40.2 21.45 40.7 22.2 40.9 Q21.1 41.35 19.85 42.1 L19.1 41.0" fill="#3a9fef" fill-rule="evenodd" stroke="none"/>
      <path d="M40.7 23.75 Q40.9 24.85 40.55 26.25 40.3 27.7 39.35 28.2 38.4 28.75 36.6 28.6 34.85 28.45 34.0 28.0 33.2 27.5 33.35 26.3 33.55 25.05 34.15 24.4 L35.0 23.45 Q35.45 22.6 36.25 21.85 37.2 21.0 38.0 21.05 39.0 21.1 39.7 21.9 40.45 22.7 40.7 23.75 M36.45 24.05 Q35.1 25.05 35.1 25.65 35.05 26.1 35.7 26.3 L36.65 26.6 Q37.6 26.65 38.35 26.05 39.2 25.5 39.2 24.75 39.3 23.15 37.8 23.1 L36.45 24.05" fill="#48b8fa" fill-rule="evenodd" stroke="none"/>
      <path d="M21.15 55.45 L20.0 55.45 20.2 54.7 20.2 54.6 21.15 55.45 M16.95 55.45 L16.6 55.45 16.65 55.25 16.95 55.45 M15.55 46.85 L15.55 46.75 15.55 46.85" fill="#fae0b5" fill-rule="evenodd" stroke="none"/>
      <path d="M41.75 55.45 L40.55 55.45 Q40.75 54.75 41.4 53.8 L42.55 52.2 Q44.7 49.4 44.8 47.2 L44.85 46.95 45.5 47.0 46.0 46.9 Q45.8 49.8 43.85 52.15 L42.6 53.6 42.45 53.85 Q41.75 54.65 41.75 55.25 L41.75 55.45 M39.15 55.45 L33.9 55.45 Q33.15 54.1 32.4 54.1 31.35 54.05 30.4 55.4 L30.4 55.45 21.15 55.45 20.2 54.6 Q20.2 53.15 17.85 50.25 16.0 47.95 15.55 46.85 L15.55 46.75 15.85 46.8 Q17.65 47.0 18.9 46.15 20.1 45.2 20.1 43.7 20.15 42.85 19.85 42.1 21.1 41.35 22.2 40.9 L23.25 41.05 Q25.15 41.1 26.4 40.0 27.95 40.15 30.25 41.25 32.6 42.4 33.85 42.55 35.05 42.65 37.85 41.35 L40.7 40.1 Q41.65 40.1 42.35 41.1 L42.8 42.1 42.7 43.55 Q42.8 44.8 43.4 45.7 43.55 48.5 42.25 50.25 L40.45 52.65 40.35 52.75 40.3 52.85 39.85 53.75 Q39.3 54.65 39.15 55.35 L39.15 55.45 M17.9 55.45 L16.95 55.45 16.65 55.25 16.75 54.6 Q16.8 54.0 16.1 52.6 L14.7 50.1 Q12.6 46.7 12.1 44.7 L12.3 44.4 12.95 45.4 14.35 46.4 16.3 49.85 Q18.1 52.9 18.05 54.7 L17.9 55.45 M38.65 38.5 L38.8 38.7 40.0 39.45 39.1 39.8 36.2 40.9 34.2 41.55 31.1 40.1 28.7 38.8 27.55 38.25 27.8 37.1 34.25 40.0 36.7 39.25 38.65 38.5 M42.4 39.2 L43.3 38.35 43.35 38.3 44.35 39.9 Q43.7 40.15 43.25 40.95 L42.4 39.2 M17.9 40.1 L18.85 39.5 19.35 39.2 20.55 40.2 19.1 41.0 19.05 40.95 Q18.55 40.4 17.9 40.1" fill="#fff7e3" fill-rule="evenodd" stroke="none"/>
      <path d="M38.65 38.5 Q37.9 37.7 37.95 36.65 38.0 35.05 40.3 33.5 L43.0 31.4 Q43.55 31.95 43.95 33.0 44.55 34.3 44.5 35.3 44.45 36.9 43.45 38.2 L43.35 38.3 43.3 38.35 42.4 39.2 Q41.65 39.6 40.8 39.55 L40.5 39.55 40.45 39.55 40.0 39.45 38.8 38.7 38.65 38.5 M40.8 36.75 L40.95 36.1 40.9 35.8 40.55 35.45 Q40.35 35.15 39.95 35.1 39.75 35.1 39.5 35.55 39.2 35.9 39.2 36.2 L39.4 36.85 Q39.75 37.25 40.15 37.3 40.55 37.3 40.8 36.75 M19.35 39.2 L19.05 38.9 Q17.4 36.85 17.45 34.35 17.55 33.0 18.15 31.65 18.9 30.2 19.9 29.85 L21.75 31.35 24.3 33.2 27.0 34.75 Q27.75 35.4 27.75 36.6 L27.8 36.95 27.8 37.1 27.55 38.25 27.3 38.8 26.6 39.8 26.4 40.0 Q25.15 41.1 23.25 41.05 L22.2 40.9 21.45 40.7 20.55 40.2 19.35 39.2 M20.1 32.8 Q19.45 33.1 19.4 33.6 L19.65 34.5 Q20.0 35.05 20.55 35.05 L21.4 34.55 Q21.8 34.15 21.8 33.65 21.8 33.1 21.6 32.9 21.45 32.55 21.05 32.55 20.65 32.5 20.1 32.8" fill="#371b0a" fill-rule="evenodd" stroke="none"/>
      <path d="M44.35 39.9 Q44.6 39.75 44.9 39.7 45.9 39.65 46.75 40.6 47.55 41.6 47.65 43.15 47.8 44.65 47.15 45.75 L46.0 46.9 45.5 47.0 44.85 46.95 Q44.2 46.75 43.65 46.05 L43.4 45.7 Q42.8 44.8 42.7 43.55 L42.8 42.1 Q42.95 41.45 43.25 40.95 43.7 40.15 44.35 39.9 M17.9 40.1 Q18.55 40.4 19.05 40.95 L19.1 41.0 19.85 42.1 Q20.15 42.85 20.1 43.7 20.1 45.2 18.9 46.15 17.65 47.0 15.85 46.8 L15.55 46.75 14.35 46.4 12.95 45.4 12.3 44.4 Q11.9 43.55 12.0 42.65 12.15 41.15 13.4 40.2 14.6 39.35 16.25 39.55 17.15 39.65 17.9 40.1" fill="#ffaabd" fill-rule="evenodd" stroke="none"/>
      <path d="M16.4 -0.95 L18.9 -0.95 19.15 0.45 Q19.15 1.4 18.15 1.35 17.4 1.3 16.9 0.65 16.4 0.0 16.4 -0.8 L16.4 -0.95 M-0.9 42.05 L-0.9 41.45 Q-0.75 41.55 -0.75 41.8 L-0.9 42.05 M48.95 13.05 Q49.35 12.75 50.0 12.8 50.8 12.85 51.4 13.4 L51.6 13.65 51.7 13.95 Q52.3 15.1 52.25 16.15 52.2 17.25 51.05 17.2 49.85 17.2 49.15 16.25 48.5 15.35 48.5 14.25 48.55 13.35 48.95 13.05 M21.95 7.05 L22.05 7.25 22.0 7.55 21.45 7.35 Q20.15 6.6 19.6 5.35 18.8 3.75 18.65 2.7 L18.6 2.05 18.75 1.75 19.0 1.65 Q19.4 1.65 19.9 2.0 L19.95 2.1 20.15 2.8 21.05 5.1 21.95 7.05 M0.4 10.95 L0.25 11.35 -0.25 11.45 -0.9 11.3 -0.9 9.45 -0.85 9.45 -0.15 9.85 0.1 10.1 0.4 10.8 0.4 10.95 M17.95 15.45 Q17.15 15.95 16.05 15.95 L15.35 15.85 15.25 15.8 Q14.95 11.95 14.2 15.3 L14.05 15.2 Q13.55 14.6 13.55 13.8 13.55 13.05 14.55 12.4 15.55 11.75 16.55 11.8 17.45 11.8 18.2 12.45 L18.3 12.55 18.45 12.75 Q18.85 13.4 18.85 14.0 18.8 14.95 17.95 15.45" fill="#b4ddff" fill-rule="evenodd" stroke="none"/>
      <path d="M5.05 4.05 Q4.8 4.15 4.6 4.4 L3.9 5.25 Q3.35 6.05 3.35 7.3 3.3 8.5 3.55 9.6 L1.9 8.15 Q1.55 7.2 1.7 6.5 L2.1 5.35 Q2.5 4.55 3.1 4.3 L4.8 4.0 5.05 4.05 M2.85 25.0 L1.9 24.4 1.8 24.4 Q0.35 23.35 0.3 21.65 L0.3 21.35 Q0.3 20.4 0.6 20.05 1.0 19.5 2.1 19.55 L2.3 19.55 2.25 19.7 Q2.0 20.15 1.9 20.7 L1.8 21.4 Q1.8 22.55 2.65 24.55 L2.85 25.0 M36.45 24.05 L37.8 23.1 Q39.3 23.15 39.2 24.75 39.2 25.5 38.35 26.05 37.6 26.65 36.65 26.6 L35.7 26.3 Q35.05 26.1 35.1 25.65 35.1 25.05 36.45 24.05" fill="#9ffbff" fill-rule="evenodd" stroke="none"/>
      <path d="M40.8 36.75 Q40.55 37.3 40.15 37.3 39.75 37.25 39.4 36.85 L39.2 36.2 Q39.2 35.9 39.5 35.55 39.75 35.1 39.95 35.1 40.35 35.15 40.55 35.45 L40.9 35.8 40.95 36.1 40.8 36.75 M20.1 32.8 Q20.65 32.5 21.05 32.55 21.45 32.55 21.6 32.9 21.8 33.1 21.8 33.65 21.8 34.15 21.4 34.55 L20.55 35.05 Q20.0 35.05 19.65 34.5 L19.4 33.6 Q19.45 33.1 20.1 32.8" fill="#daeeff" fill-rule="evenodd" stroke="none"/>
      <path d="M43.65 17.25 L43.8 17.65 M46.1 21.3 L45.75 21.05 44.9 20.3 M48.6 48.15 L48.6 48.45 48.55 48.55 48.55 48.6 M48.55 48.9 L48.45 50.05 48.4 50.6 M19.9 11.8 Q20.6 12.55 21.0 13.6 L21.3 14.65 Q21.45 16.45 19.95 18.35 L20.85 19.45 Q21.7 20.15 21.7 21.35 21.8 22.5 20.15 23.8 L19.05 24.45 17.45 24.75 16.7 24.65 Q15.9 24.5 15.4 24.2 14.9 23.85 14.85 23.3 L14.35 21.7 13.8 21.0 13.1 20.9 12.4 20.75 11.4 20.25 11.35 20.25 10.95 19.9 Q9.85 18.85 9.85 17.0 9.8 15.45 10.1 14.25 L10.4 13.35 Q11.0 11.9 12.15 11.05 L13.75 10.3 14.45 10.15 16.3 9.95 Q18.6 10.45 19.9 11.8 M13.8 21.0 L15.4 20.8 16.7 20.4 M19.95 18.35 L18.9 19.35 M2.4 49.6 L2.45 49.75 2.45 49.85" fill="none" stroke="#02436c" stroke-linecap="round" stroke-linejoin="round" stroke-width="1.0"/>
      <path d="M10.15 -0.95 L10.7 0.75 Q11.3 2.35 11.2 3.75 L10.9 5.1 Q10.5 5.85 9.65 5.8 8.95 5.75 7.2 4.9 5.7 4.2 5.05 4.05 L4.8 4.0 3.1 4.3 Q2.5 4.55 2.1 5.35 L1.7 6.5 Q1.55 7.2 1.9 8.15 2.45 9.35 4.1 11.05 L4.3 11.3 6.4 13.9 Q7.1 15.0 7.2 15.95 7.4 17.9 6.8 18.75 6.15 19.55 5.05 19.65 L3.35 19.75 2.3 19.55 2.1 19.55 Q1.0 19.5 0.6 20.05 0.3 20.4 0.3 21.35 L0.3 21.65 Q0.35 23.35 1.8 24.4 L1.9 24.4 2.85 25.0 3.6 25.3 4.35 25.55 Q5.1 25.9 5.5 26.7 L5.85 27.6 5.9 28.25 5.9 29.25 5.9 29.3 5.75 30.45 4.75 33.45 3.7 36.05 3.4 36.7 2.8 38.3 2.8 38.35 2.1 38.7 Q0.6 39.6 -0.9 40.15 M20.55 -0.95 Q21.45 0.3 22.0 2.1 L22.25 2.85 23.45 5.75 23.5 5.85 Q24.25 7.2 26.4 8.1 L30.45 10.1 34.65 12.35 Q39.8 15.2 42.05 18.4 L42.8 18.0 43.25 17.65 43.65 17.25 43.4 16.65 43.3 15.8 43.3 15.45 Q43.35 14.85 43.55 14.3 43.8 13.1 44.55 12.25 L44.8 11.9 45.45 11.4 Q46.45 10.7 47.85 10.6 L48.4 10.6 Q49.95 10.65 51.25 11.65 L52.4 12.75 Q54.05 14.7 53.95 16.85 53.9 18.05 53.5 18.95 L52.8 20.0 51.8 20.85 51.1 21.25 Q49.75 22.0 48.2 21.95 L46.95 21.6 46.1 21.3 45.15 21.9 44.4 22.5 Q45.7 25.65 46.9 30.85 L48.35 38.95 49.25 39.45 50.15 39.9 50.2 39.9 52.1 40.75 Q54.3 41.45 55.3 42.0 L55.7 42.25 56.0 42.5 Q57.3 43.5 57.2 45.2 57.15 46.4 56.75 47.4 56.35 48.45 55.55 49.35 L55.0 49.9 Q53.55 51.15 51.85 51.05 50.5 50.95 48.5 50.1 L48.4 50.6 48.4 50.65 48.2 51.35 48.0 52.15 47.2 54.05 46.3 55.45 M6.85 55.45 Q4.7 53.8 3.6 52.05 L2.45 49.85 2.4 49.65 Q0.65 50.9 -0.9 51.45 M42.15 18.5 L42.1 18.45 42.05 18.4 M44.4 22.5 Q43.55 20.35 42.6 19.2 L42.5 19.1 42.25 18.7 42.15 18.5 M48.6 48.45 L48.75 47.3 Q48.9 43.45 48.35 38.95 M48.5 50.1 L48.5 50.05 48.55 49.0 48.55 48.9 48.55 48.6 M7.2 35.5 L7.2 35.45 7.75 35.0 M-0.9 12.45 L0.35 12.65 1.3 12.45 Q2.0 12.1 2.0 11.5 L1.95 10.9 1.9 10.75 1.45 10.3 -0.85 8.1 -0.9 8.05 M3.7 37.7 L5.0 36.8 5.05 36.75 7.2 35.5 M3.7 37.7 L2.85 38.25 2.85 38.3 2.8 38.35 M6.6 44.9 L4.3 47.85 3.35 48.8 2.4 49.6 2.4 49.65 M6.6 44.8 L6.6 44.9" fill="none" stroke="#004470" stroke-linecap="round" stroke-linejoin="round" stroke-width="1.0"/>
    </g>
    <g id="shape2" transform="matrix(1.0, 0.0, 0.0, 1.0, 0.0, 0.0)">
      <path d="M50.5 0.0 Q53.95 0.0 53.95 3.3 L53.95 50.15 Q53.95 53.4 50.5 53.4 L3.3 53.4 Q0.0 53.4 0.0 50.15 L0.0 3.3 Q0.0 0.0 3.3 0.0 L50.5 0.0" fill="#000000" fill-opacity="0.003921569" fill-rule="evenodd" stroke="none"/>
    </g>
  </defs>
</svg>
