<?xml version="1.0" encoding="UTF-8" standalone="no"?>
<svg xmlns:ffdec="https://www.free-decompiler.com/flash" xmlns:xlink="http://www.w3.org/1999/xlink" ffdec:objectType="frame" height="57.9px" width="57.55px" xmlns="http://www.w3.org/2000/svg">
  <g transform="matrix(1.0, 0.0, 0.0, 1.0, -0.65, -1.0)">
    <use ffdec:characterId="4" height="54.8" transform="matrix(1.0565, 0.0, 0.0, 1.0562, 0.6717, 1.0219)" width="54.45" xlink:href="#sprite0"/>
  </g>
  <defs>
    <g id="sprite0" transform="matrix(1.0, 0.0, 0.0, 1.0, 0.5, 0.5)">
      <clipPath id="clipPath0" transform="matrix(1.0, 0.0, 0.0, 1.0, 0.0, 0.0)">
        <path d="M50.5 0.0 Q53.95 0.0 53.95 3.3 L53.95 50.15 Q53.95 53.4 50.5 53.4 L3.3 53.4 Q0.0 53.4 0.0 50.15 L0.0 3.3 Q0.0 0.0 3.3 0.0 L50.5 0.0" fill="#000000" fill-rule="evenodd" stroke="none"/>
      </clipPath>
      <g clip-path="url(#clipPath0)">
        <use ffdec:characterId="2" height="54.8" transform="matrix(1.0, 0.0, 0.0, 1.0, -0.5, -0.5)" width="53.85" xlink:href="#shape1"/>
      </g>
      <use ffdec:characterId="3" height="53.4" transform="matrix(1.0, 0.0, 0.0, 1.0, 0.0, 0.0)" width="53.95" xlink:href="#shape2"/>
    </g>
    <g id="shape1" transform="matrix(1.0, 0.0, 0.0, 1.0, 0.5, 0.5)">
      <path d="M48.3 0.0 L48.35 0.15 48.6 1.9 48.55 2.95 Q48.3 5.6 46.7 7.9 L43.1 11.6 42.45 12.15 Q39.9 14.25 38.7 15.65 L38.55 15.8 38.2 16.25 Q37.3 17.35 36.85 18.6 L36.8 18.7 Q36.3 20.15 36.3 21.75 36.3 24.1 36.8 25.95 37.25 27.45 38.05 28.5 39.85 30.95 43.5 32.4 L38.95 31.95 36.8 31.1 Q35.1 30.15 33.65 28.6 L32.6 27.25 32.45 26.3 32.4 23.15 Q32.4 19.2 34.3 16.4 35.1 15.2 36.8 13.7 L38.55 12.25 41.05 10.15 43.0 8.1 Q44.55 6.15 45.15 3.65 L45.55 2.95 46.2 1.8 Q47.15 0.05 48.3 0.0 M0.0 34.35 L0.0 32.75 Q2.2 32.0 3.95 29.05 4.35 31.1 5.2 33.2 L5.9 34.7 4.7 34.25 0.75 34.1 0.0 34.35 M8.85 4.2 L11.25 4.55 Q12.4 4.85 13.4 5.5 14.9 3.8 16.7 2.65 L17.6 2.15 18.2 1.8 18.95 1.5 18.6 2.1 Q18.3 2.7 18.3 3.2 18.3 4.25 19.35 6.15 L20.25 7.6 20.65 8.15 Q21.8 9.6 23.3 10.85 24.85 12.15 27.2 12.85 29.95 13.6 34.15 11.7 L35.8 10.85 36.8 10.25 38.75 8.85 Q41.1 6.8 41.1 4.7 L41.1 4.3 41.15 4.3 43.55 6.05 43.1 6.65 42.55 7.25 40.05 9.55 38.85 10.45 Q37.7 11.2 36.8 11.9 L35.7 12.8 34.55 13.7 32.95 15.25 32.3 16.05 31.85 16.85 26.1 15.75 Q22.05 14.7 18.4 12.9 L17.55 12.45 16.7 12.0 14.0 10.3 13.25 9.65 Q12.05 8.6 11.9 7.7 L11.5 7.7 Q10.05 7.7 8.8 8.8 L8.9 4.85 8.85 4.2 M13.4 5.5 L13.15 5.75 12.15 6.85 Q11.9 7.2 11.9 7.5 L11.9 7.7 11.9 7.5 Q11.9 7.2 12.15 6.85 L13.15 5.75 13.4 5.5" fill="#b3445a" fill-rule="evenodd" stroke="none"/>
      <path d="M43.95 39.75 Q46.75 40.4 48.6 41.75 L49.55 42.55 Q50.9 43.85 50.9 45.35 L50.85 45.6 49.55 45.9 47.4 46.0 44.4 45.9 44.4 45.75 Q44.4 43.5 43.75 41.95 L42.9 40.55 43.95 39.75 M43.1 51.15 Q44.55 52.2 45.5 53.4 L45.8 53.8 43.05 53.8 42.45 53.55 Q42.2 53.6 42.0 53.8 L40.85 53.8 40.85 53.0 41.9 52.45 43.1 51.15 M0.0 44.0 L0.0 39.15 0.75 39.4 1.35 39.7 1.65 41.2 1.55 41.8 0.55 43.4 0.0 44.0 M48.6 44.4 L49.55 44.4 Q47.25 42.75 45.7 42.75 45.3 42.9 45.3 43.55 45.3 44.2 46.4 44.3 L48.6 44.4" fill="#41243a" fill-rule="evenodd" stroke="none"/>
      <path d="M48.3 0.0 L48.85 0.05 Q49.35 0.2 49.9 0.6 L50.9 2.95 51.1 3.55 Q49.7 4.0 48.65 8.05 L47.0 13.6 46.4 14.85 44.35 18.55 Q43.2 20.7 42.75 22.55 42.45 23.65 42.45 24.7 42.45 27.05 43.5 28.2 L44.4 28.85 Q45.65 29.5 47.7 29.5 L49.7 29.2 Q48.25 31.25 45.95 31.95 L45.15 32.15 44.65 32.25 43.5 32.4 Q39.85 30.95 38.05 28.5 37.25 27.45 36.8 25.95 36.3 24.1 36.3 21.75 36.3 20.15 36.8 18.7 L36.85 18.6 Q37.3 17.35 38.2 16.25 L38.55 15.8 38.7 15.65 Q39.9 14.25 42.45 12.15 L43.1 11.6 46.7 7.9 Q48.3 5.6 48.55 2.95 L48.6 1.9 48.35 0.15 48.3 0.0 M0.0 32.75 L0.0 22.0 Q3.3 21.5 5.4 14.75 7.05 9.55 7.05 5.75 L6.95 4.25 8.85 4.2 8.9 4.85 8.8 8.8 8.55 9.0 8.35 9.25 Q7.15 10.55 7.15 12.4 L7.4 13.55 Q6.05 15.1 5.15 17.2 2.7 23.0 3.95 29.05 2.2 32.0 0.0 32.75 M11.25 4.55 Q11.65 3.4 13.65 2.75 L17.6 2.15 16.7 2.65 Q14.9 3.8 13.4 5.5 12.4 4.85 11.25 4.55 M18.95 1.5 L20.8 0.85 21.8 0.65 Q21.5 1.15 21.5 1.9 L21.55 2.3 Q21.8 4.1 24.45 5.65 L26.45 6.6 30.1 7.25 30.4 7.25 33.15 7.1 35.45 6.45 Q37.9 5.45 37.9 2.95 L37.85 2.65 38.6 2.95 Q39.95 3.55 41.1 4.25 L41.15 4.3 41.1 4.3 41.1 4.7 Q41.1 6.8 38.75 8.85 L36.8 10.25 35.8 10.85 34.15 11.7 Q29.95 13.6 27.2 12.85 24.85 12.15 23.3 10.85 21.8 9.6 20.65 8.15 L20.25 7.6 19.35 6.15 Q18.3 4.25 18.3 3.2 18.3 2.7 18.6 2.1 L18.95 1.5" fill="#dd6f85" fill-rule="evenodd" stroke="none"/>
      <path d="M50.85 45.6 L50.65 46.5 49.55 47.05 47.9 47.75 43.95 49.25 44.35 46.75 44.4 45.9 47.4 46.0 49.55 45.9 50.85 45.6 M0.0 50.6 L0.0 44.0 0.55 43.4 1.55 41.8 1.65 41.2 1.35 39.7 1.45 39.75 Q2.65 40.5 3.55 41.8 L4.0 42.5 Q4.9 44.2 4.8 46.15 L4.7 46.75 4.4 48.35 4.35 48.45 2.65 49.6 0.0 50.6" fill="#2b1326" fill-rule="evenodd" stroke="none"/>
      <path d="M40.85 53.8 L39.2 53.8 39.3 53.4 39.4 53.2 40.85 53.0 40.85 53.8 M0.0 37.5 L0.0 34.35 0.75 34.1 4.7 34.25 5.9 34.7 6.4 34.9 Q9.3 36.25 11.1 38.8 12.4 40.6 12.9 42.75 L13.1 44.15 13.1 46.35 Q12.25 46.95 10.25 46.95 8.5 46.95 7.65 45.95 L7.1 45.05 6.1 42.65 Q5.3 41.05 4.35 40.0 2.75 38.15 1.4 37.75 L0.0 37.5 M42.45 40.85 L42.9 40.55 43.75 41.95 Q44.4 43.5 44.4 45.75 L44.4 45.9 44.35 46.75 44.15 46.95 Q43.6 47.5 42.85 47.5 41.35 47.5 40.35 46.8 L40.35 46.55 40.2 43.85 40.15 43.65 40.1 43.5 42.45 40.85" fill="#f1eeeb" fill-rule="evenodd" stroke="none"/>
      <path d="M43.3 50.85 L43.25 50.9 43.1 51.15 41.9 52.45 40.85 53.0 39.4 53.2 39.95 50.9 39.95 50.7 Q40.35 48.85 40.35 46.8 41.35 47.5 42.85 47.5 43.6 47.5 44.15 46.95 L44.35 46.75 43.95 49.25 43.75 49.9 43.3 50.85 M10.05 53.8 L0.0 53.8 0.0 52.25 2.05 51.4 3.25 50.5 3.55 50.2 4.35 48.45 4.4 48.35 4.7 46.75 4.8 46.15 Q4.9 44.2 4.0 42.5 L3.55 41.8 Q2.65 40.5 1.45 39.75 L1.35 39.7 0.75 39.4 0.0 39.15 0.0 37.5 1.4 37.75 Q2.75 38.15 4.35 40.0 5.3 41.05 6.1 42.65 L7.1 45.05 7.65 45.95 Q8.5 46.95 10.25 46.95 12.25 46.95 13.1 46.35 13.0 48.4 12.3 50.4 11.85 51.75 11.0 52.8 L10.85 52.95 10.05 53.8 M31.85 16.85 L31.6 17.4 31.5 17.7 31.35 18.25 27.85 17.85 26.0 17.6 25.85 17.6 Q19.25 16.7 15.3 15.65 L12.95 14.95 11.05 14.2 9.95 13.65 9.6 13.4 8.6 12.35 8.5 12.15 Q8.1 11.4 8.1 10.4 L8.35 9.25 8.55 9.0 8.8 8.8 Q10.05 7.7 11.5 7.7 L11.9 7.7 Q12.05 8.6 13.25 9.65 L14.0 10.3 16.7 12.0 17.55 12.45 18.4 12.9 Q22.05 14.7 26.1 15.75 L31.85 16.85 M20.7 43.3 L25.05 44.1 28.0 44.4 29.85 44.35 33.85 44.05 Q36.7 43.65 39.35 42.55 L42.45 40.85 40.1 43.5 Q36.1 47.05 30.15 47.35 22.05 47.9 15.05 44.05 L12.9 42.75 Q12.4 40.6 11.1 38.8 9.3 36.25 6.4 34.9 L5.9 34.7 5.2 33.2 Q4.35 31.1 3.95 29.05 2.7 23.0 5.15 17.2 6.05 15.1 7.4 13.55 7.8 14.3 8.75 14.85 L8.75 14.95 7.55 17.6 Q6.8 18.85 6.25 20.4 4.05 27.5 8.3 32.85 11.2 39.25 17.95 42.25 L20.7 43.3" fill="#cec7b4" fill-rule="evenodd" stroke="none"/>
      <path d="M26.3 18.2 L27.6 20.65 Q28.65 23.5 28.05 26.45 27.5 29.4 25.5 31.55 23.65 33.55 21.8 34.2 15.4 36.45 10.1 32.05 5.85 27.25 7.85 20.75 9.0 17.4 11.4 15.75 L16.7 17.1 20.5 17.7 26.3 18.2 M8.75 14.85 L8.85 14.9 8.75 14.95 8.75 14.85 M14.7 23.7 Q14.35 23.35 14.35 22.85 14.35 22.3 14.7 21.95 15.0 21.55 15.35 21.55 15.75 21.55 16.05 21.95 L16.35 22.85 16.05 23.7 15.35 24.1 14.7 23.7 M14.15 21.25 Q12.75 22.8 12.75 24.9 12.75 27.0 14.15 28.5 15.5 30.0 17.4 30.0 19.3 30.0 20.7 28.5 22.0 27.0 22.0 24.9 22.0 22.8 20.7 21.25 19.3 19.75 17.4 19.75 15.5 19.75 14.15 21.25" fill="#ffffff" fill-rule="evenodd" stroke="none"/>
      <path d="M43.05 53.8 L42.0 53.8 Q42.2 53.6 42.45 53.55 L43.05 53.8 M48.6 44.4 L46.4 44.3 Q45.3 44.2 45.3 43.55 45.3 42.9 45.7 42.75 47.25 42.75 49.55 44.4 L48.6 44.4" fill="#7e4670" fill-rule="evenodd" stroke="none"/>
      <path d="M50.65 46.5 L49.55 47.8 49.3 48.0 43.85 50.65 43.3 50.9 43.3 50.85 43.75 49.9 43.95 49.25 47.9 47.75 49.55 47.05 50.65 46.5 M0.0 52.25 L0.0 50.6 2.65 49.6 4.35 48.45 3.55 50.2 3.25 50.5 2.05 51.4 0.0 52.25" fill="#411f3a" fill-rule="evenodd" stroke="none"/>
      <path d="M11.0 52.8 L12.15 53.35 10.85 52.95 11.0 52.8" fill="#ee8b2b" fill-rule="evenodd" stroke="none"/>
      <path d="M49.9 31.4 L48.4 34.7 47.2 36.45 44.25 36.75 43.5 36.75 37.0 35.85 31.45 34.9 Q28.85 34.9 26.9 36.5 25.0 38.0 25.0 39.85 25.0 41.95 26.85 43.5 L28.0 44.4 25.05 44.1 20.7 43.3 Q20.45 42.3 20.45 40.8 20.45 37.95 22.0 36.05 L22.3 35.9 Q24.4 35.2 26.4 33.05 29.75 31.45 31.4 31.4 L37.6 32.15 43.65 33.0 44.65 33.0 Q47.05 32.85 49.0 31.95 L49.9 31.4 M39.2 53.8 L29.15 53.8 14.4 53.8 10.05 53.8 10.85 52.95 12.15 53.35 11.0 52.8 Q11.85 51.75 12.3 50.4 13.0 48.4 13.1 46.35 L13.1 44.15 12.9 42.75 15.05 44.05 Q22.05 47.9 30.15 47.35 36.1 47.05 40.1 43.5 L40.15 43.65 40.2 43.85 40.35 46.55 40.35 46.8 Q40.35 48.85 39.95 50.7 L39.95 50.9 39.4 53.2 39.3 53.4 39.2 53.8 M16.5 47.65 Q15.9 48.15 15.9 49.2 15.9 51.9 19.45 53.05 L21.75 53.65 23.95 53.65 30.6 53.15 33.25 52.65 35.3 52.2 36.2 52.0 36.95 51.8 37.9 50.7 Q38.55 49.65 38.55 48.7 38.55 47.8 37.35 47.1 36.6 46.65 35.85 46.55 L35.25 46.75 34.25 47.1 31.9 47.6 28.15 47.9 19.75 47.15 18.55 47.05 Q17.3 47.3 16.5 47.65 M39.95 50.7 L39.1 51.2 36.55 52.25 36.2 52.35 35.3 52.65 34.85 52.75 33.25 53.05 30.5 53.6 29.15 53.8 30.5 53.6 33.25 53.05 34.85 52.75 35.3 52.65 36.2 52.35 36.55 52.25 39.1 51.2 39.95 50.7 M14.4 53.8 L12.35 53.35 12.15 53.35 12.35 53.35 14.4 53.8" fill="#f5d66a" fill-rule="evenodd" stroke="none"/>
      <path d="M47.2 36.45 L46.1 37.65 44.2 39.5 43.95 39.75 42.9 40.55 42.45 40.85 39.35 42.55 Q36.7 43.65 33.85 44.05 L29.85 44.35 28.0 44.4 26.85 43.5 Q25.0 41.95 25.0 39.85 25.0 38.0 26.9 36.5 28.85 34.9 31.45 34.9 L37.0 35.85 43.5 36.75 44.25 36.75 47.2 36.45 M16.5 47.65 Q17.3 47.3 18.55 47.05 L19.75 47.15 28.15 47.9 31.9 47.6 34.25 47.1 35.25 46.75 35.85 46.55 Q36.6 46.65 37.35 47.1 38.55 47.8 38.55 48.7 38.55 49.65 37.9 50.7 L36.95 51.8 36.2 52.0 35.3 52.2 33.25 52.65 30.6 53.15 23.95 53.65 21.75 53.65 19.45 53.05 Q15.9 51.9 15.9 49.2 15.9 48.15 16.5 47.65" fill="#fbebc8" fill-rule="evenodd" stroke="none"/>
      <path d="M49.7 29.2 L47.7 29.5 Q45.65 29.5 44.4 28.85 L43.5 28.2 Q42.45 27.05 42.45 24.7 42.45 23.65 42.75 22.55 43.2 20.7 44.35 18.55 L46.4 14.85 47.0 13.6 48.65 8.05 Q49.7 4.0 51.1 3.55 L51.95 6.6 52.1 7.25 Q52.75 10.55 52.8 13.55 L52.7 18.6 52.1 23.35 Q51.75 25.5 50.65 27.55 L50.65 27.6 49.9 28.9 49.7 29.2 M0.0 22.0 L0.0 13.3 0.7 13.4 Q2.05 13.4 3.25 12.35 4.1 11.65 4.15 10.35 4.4 9.85 4.15 9.2 3.7 8.05 2.6 8.05 1.25 8.05 0.3 8.85 L0.0 9.15 0.0 6.35 Q2.1 5.3 4.5 4.7 L6.95 4.25 7.05 5.75 Q7.05 9.55 5.4 14.75 3.3 21.5 0.0 22.0 M21.8 0.65 L27.25 0.25 Q32.0 0.25 37.5 2.5 L37.85 2.65 37.9 2.95 Q37.9 5.45 35.45 6.45 L33.15 7.1 30.4 7.25 30.1 7.25 26.45 6.6 24.45 5.65 Q21.8 4.1 21.55 2.3 L21.5 1.9 Q21.5 1.15 21.8 0.65 M50.15 11.25 Q49.35 11.0 48.9 11.85 48.5 12.7 48.55 13.6 L48.85 15.05 Q49.0 15.55 49.95 15.55 50.5 15.55 51.05 14.75 51.6 13.9 51.6 13.0 L51.25 12.0 Q50.95 11.45 50.15 11.25 M49.8 17.85 L49.7 17.85 49.7 17.9 Q49.45 18.0 49.2 19.6 48.95 21.1 48.8 24.0 L48.8 24.2 48.8 24.25 48.9 24.05 49.85 21.55 50.35 19.8 50.4 18.05 Q50.25 17.75 49.8 17.85" fill="#e38a9c" fill-rule="evenodd" stroke="none"/>
      <path d="M0.0 13.3 L0.0 9.15 0.3 8.85 Q1.25 8.05 2.6 8.05 3.7 8.05 4.15 9.2 4.4 9.85 4.15 10.35 4.1 11.65 3.25 12.35 2.05 13.4 0.7 13.4 L0.0 13.3" fill="#f9e3e8" fill-rule="evenodd" stroke="none"/>
      <path d="M43.55 6.05 L45.15 3.65 Q44.55 6.15 43.0 8.1 L41.05 10.15 38.55 12.25 36.8 13.7 Q35.1 15.2 34.3 16.4 32.4 19.2 32.4 23.15 L32.45 26.3 32.6 27.25 Q31.3 25.2 31.15 22.35 31.0 19.85 31.35 18.25 L31.5 17.7 31.6 17.4 31.85 16.85 32.3 16.05 32.95 15.25 34.55 13.7 35.7 12.8 36.8 11.9 Q37.7 11.2 38.85 10.45 L40.05 9.55 42.55 7.25 43.1 6.65 43.55 6.05" fill="#de72a7" fill-rule="evenodd" stroke="none"/>
      <path d="M43.5 32.4 L44.65 32.25 45.15 32.15 45.95 31.95 Q48.25 31.25 49.7 29.2 L49.9 28.9 50.65 27.6 50.65 27.65 50.55 28.6 49.9 31.4 49.0 31.95 Q47.05 32.85 44.65 33.0 L43.65 33.0 37.6 32.15 31.4 31.4 Q29.75 31.45 26.4 33.05 L26.6 32.85 Q28.95 30.35 29.55 26.95 30.25 23.55 29.05 20.25 L28.1 18.25 31.35 18.25 Q31.0 19.85 31.15 22.35 31.3 25.2 32.6 27.25 L33.65 28.6 Q35.1 30.15 36.8 31.1 L38.95 31.95 43.5 32.4 M48.9 24.05 L48.8 24.25 48.8 24.2 48.9 24.05 M22.0 36.05 Q20.45 37.95 20.45 40.8 20.45 42.3 20.7 43.3 L17.95 42.25 Q11.2 39.25 8.3 32.85 L8.85 33.45 Q14.85 38.4 22.0 36.05 M9.65 15.15 Q8.45 16.15 7.55 17.6 L8.75 14.95 8.85 14.9 8.9 14.9 9.65 15.15" fill="#fd9802" fill-rule="evenodd" stroke="none"/>
      <path d="M50.15 11.25 Q50.95 11.45 51.25 12.0 L51.6 13.0 Q51.6 13.9 51.05 14.75 50.5 15.55 49.95 15.55 49.0 15.55 48.85 15.05 L48.55 13.6 Q48.5 12.7 48.9 11.85 49.35 11.0 50.15 11.25 M49.8 17.85 Q50.25 17.75 50.4 18.05 L50.35 19.8 49.85 21.55 48.9 24.05 48.8 24.2 48.8 24.0 Q48.95 21.1 49.2 19.6 49.45 18.0 49.7 17.9 L49.8 17.85" fill="#fadee4" fill-rule="evenodd" stroke="none"/>
      <path d="M26.4 33.05 Q24.4 35.2 22.3 35.9 L22.0 36.05 Q14.85 38.4 8.85 33.45 L8.3 32.85 Q4.05 27.5 6.25 20.4 6.8 18.85 7.55 17.6 8.45 16.15 9.65 15.15 L11.4 15.75 Q9.0 17.4 7.85 20.75 5.85 27.25 10.1 32.05 15.4 36.45 21.8 34.2 23.65 33.55 25.5 31.55 27.5 29.4 28.05 26.45 28.65 23.5 27.6 20.65 L26.3 18.2 28.1 18.25 29.05 20.25 Q30.25 23.55 29.55 26.95 28.95 30.35 26.6 32.85 L26.4 33.05" fill="#776860" fill-rule="evenodd" stroke="none"/>
      <path d="M26.3 18.2 L20.5 17.7 16.7 17.1 11.4 15.75 9.65 15.15 8.9 14.9 8.85 14.9 8.75 14.85 Q7.8 14.3 7.4 13.55 L7.15 12.4 Q7.15 10.55 8.35 9.25 L8.1 10.4 Q8.1 11.4 8.5 12.15 L8.6 12.35 9.6 13.4 9.95 13.65 11.05 14.2 12.95 14.95 15.3 15.65 Q19.25 16.7 25.85 17.6 L26.0 17.6 27.85 17.85 31.35 18.25 28.1 18.25 26.3 18.2" fill="#f3efe5" fill-rule="evenodd" stroke="none"/>
      <path d="M14.7 23.7 L15.35 24.1 16.05 23.7 16.35 22.85 16.05 21.95 Q15.75 21.55 15.35 21.55 15.0 21.55 14.7 21.95 14.35 22.3 14.35 22.85 14.35 23.35 14.7 23.7 M14.15 21.25 Q15.5 19.75 17.4 19.75 19.3 19.75 20.7 21.25 22.0 22.8 22.0 24.9 22.0 27.0 20.7 28.5 19.3 30.0 17.4 30.0 15.5 30.0 14.15 28.5 12.75 27.0 12.75 24.9 12.75 22.8 14.15 21.25" fill="#381d1d" fill-rule="evenodd" stroke="none"/>
      <path d="M1.35 39.7 L1.45 39.75 Q2.65 40.5 3.55 41.8 L4.0 42.5 Q4.9 44.2 4.8 46.15 L4.7 46.75 4.4 48.35 4.35 48.45 3.55 50.2 3.25 50.5 2.05 51.4 0.0 52.25 M0.0 39.15 L0.75 39.4 1.35 39.7" fill="none" stroke="#200d1c" stroke-linecap="round" stroke-linejoin="round" stroke-width="1.0"/>
      <path d="M43.3 50.85 L43.25 50.9 43.1 51.15 41.9 52.45 40.85 53.0 40.85 53.8 M44.4 45.9 L44.4 45.75 Q44.4 43.5 43.75 41.95 L42.9 40.55 M44.35 46.75 L43.95 49.25 43.75 49.9 43.3 50.85 M44.35 46.75 L44.4 45.9 M7.4 13.55 Q6.05 15.1 5.15 17.2 2.7 23.0 3.95 29.05 4.35 31.1 5.2 33.2 L5.9 34.7 6.4 34.9 Q9.3 36.25 11.1 38.8 12.4 40.6 12.9 42.75 L15.05 44.05 Q22.05 47.9 30.15 47.35 36.1 47.05 40.1 43.5 L42.45 40.85 M0.0 34.35 L0.75 34.1 4.7 34.25 5.9 34.7 M13.1 46.35 L13.1 44.15 12.9 42.75 M39.4 53.2 L40.85 53.0 M11.0 52.8 Q11.85 51.75 12.3 50.4 13.0 48.4 13.1 46.35 M10.85 52.95 L11.0 52.8 M10.85 52.95 L10.05 53.8" fill="none" stroke="#747064" stroke-linecap="round" stroke-linejoin="round" stroke-width="1.0"/>
      <path d="M8.85 14.9 L8.75 14.95 M40.1 43.5 L40.15 43.65 40.2 43.85 40.35 46.55 40.35 46.8 Q40.35 48.85 39.95 50.7 L39.95 50.9 39.4 53.2 39.3 53.4 39.2 53.8 M29.15 53.8 L30.5 53.6 33.25 53.05 34.85 52.75 35.3 52.65 36.2 52.35 36.55 52.25 39.1 51.2 39.95 50.7 M12.15 53.35 L12.35 53.35 14.4 53.8 M12.15 53.35 L10.85 52.95" fill="none" stroke="#875101" stroke-linecap="round" stroke-linejoin="round" stroke-width="1.0"/>
      <path d="M43.5 32.4 L44.65 32.25 45.15 32.15 45.95 31.95 Q48.25 31.25 49.7 29.2 L49.9 28.9 50.65 27.6 M43.55 6.05 L43.1 6.65 42.55 7.25 40.05 9.55 38.85 10.45 Q37.7 11.2 36.8 11.9 L35.7 12.8 34.55 13.7 32.95 15.25 32.3 16.05 31.85 16.85 31.6 17.4 31.5 17.7 31.35 18.25 Q31.0 19.85 31.15 22.35 31.3 25.2 32.6 27.25 L33.65 28.6 Q35.1 30.15 36.8 31.1 L38.95 31.95 43.5 32.4 M26.3 18.2 L20.5 17.7 16.7 17.1 11.4 15.75 9.65 15.15 8.9 14.9 8.85 14.9 M26.3 18.2 L28.1 18.25 31.35 18.25 M31.85 16.85 L26.1 15.75 Q22.05 14.7 18.4 12.9 L17.55 12.45 16.7 12.0 14.0 10.3 13.25 9.65 Q12.05 8.6 11.9 7.7" fill="none" stroke="#7b2c3c" stroke-linecap="round" stroke-linejoin="round" stroke-width="1.0"/>
      <path d="M26.4 33.05 Q24.4 35.2 22.3 35.9 L22.0 36.05 Q14.85 38.4 8.85 33.45 L8.3 32.85 M28.1 18.25 L29.05 20.25 Q30.25 23.55 29.55 26.95 28.95 30.35 26.6 32.85 L26.4 33.05 M11.4 15.75 Q9.0 17.4 7.85 20.75 5.85 27.25 10.1 32.05 15.4 36.45 21.8 34.2 23.65 33.55 25.5 31.55 27.5 29.4 28.05 26.45 28.65 23.5 27.6 20.65 L26.3 18.2 M9.65 15.15 Q8.45 16.15 7.55 17.6" fill="none" stroke="#3f3530" stroke-linecap="round" stroke-linejoin="round" stroke-width="1.0"/>
      <path d="M51.1 3.55 L50.9 2.95 49.9 0.6 Q49.35 0.2 48.85 0.05 L48.3 0.0 Q47.15 0.05 46.2 1.8 L45.55 2.95 45.15 3.65 43.55 6.05 41.15 4.3 41.1 4.25 Q39.95 3.55 38.6 2.95 L37.85 2.65 37.5 2.5 Q32.0 0.25 27.25 0.25 L21.8 0.65 20.8 0.85 18.95 1.5 18.2 1.8 17.6 2.15 13.65 2.75 Q11.65 3.4 11.25 4.55 12.4 4.85 13.4 5.5 14.9 3.8 16.7 2.65 L17.6 2.15 M51.1 3.55 L51.95 6.6 52.1 7.25 Q52.75 10.55 52.8 13.55 L52.7 18.6 52.1 23.35 Q51.75 25.5 50.65 27.55 L50.65 27.6 50.65 27.65 50.55 28.6 49.9 31.4 48.4 34.7 47.2 36.45 46.1 37.65 44.2 39.5 43.95 39.75 42.9 40.55 42.45 40.85 39.35 42.55 Q36.7 43.65 33.85 44.05 L29.85 44.35 28.0 44.4 25.05 44.1 20.7 43.3 17.95 42.25 Q11.2 39.25 8.3 32.85 4.05 27.5 6.25 20.4 6.8 18.85 7.55 17.6 L8.75 14.95 8.75 14.85 8.85 14.9 M0.0 6.35 Q2.1 5.3 4.5 4.7 L6.95 4.25 8.85 4.2 11.25 4.55 M8.35 9.25 Q7.15 10.55 7.15 12.4 L7.4 13.55 Q7.8 14.3 8.75 14.85 M11.9 7.7 L11.5 7.7 Q10.05 7.7 8.8 8.8 L8.55 9.0 8.35 9.25 M11.9 7.7 L11.9 7.5 Q11.9 7.2 12.15 6.85 L13.15 5.75 13.4 5.5" fill="none" stroke="#64222f" stroke-linecap="round" stroke-linejoin="round" stroke-width="1.0"/>
      <path d="M43.95 39.75 Q46.75 40.4 48.6 41.75 L49.55 42.55 Q50.9 43.85 50.9 45.35 L50.85 45.6 50.65 46.5 49.55 47.8 49.3 48.0 43.85 50.65 43.3 50.9 M43.1 51.15 Q44.55 52.2 45.5 53.4 L45.8 53.8" fill="none" stroke="#2b1326" stroke-linecap="round" stroke-linejoin="round" stroke-width="1.0"/>
    </g>
    <g id="shape2" transform="matrix(1.0, 0.0, 0.0, 1.0, 0.0, 0.0)">
      <path d="M50.5 0.0 Q53.95 0.0 53.95 3.3 L53.95 50.15 Q53.95 53.4 50.5 53.4 L3.3 53.4 Q0.0 53.4 0.0 50.15 L0.0 3.3 Q0.0 0.0 3.3 0.0 L50.5 0.0" fill="#000000" fill-opacity="0.003921569" fill-rule="evenodd" stroke="none"/>
    </g>
  </defs>
</svg>
