<?xml version="1.0" encoding="UTF-8" standalone="no"?>
<svg xmlns:ffdec="https://www.free-decompiler.com/flash" xmlns:xlink="http://www.w3.org/1999/xlink" ffdec:objectType="frame" height="55.45px" width="55.5px" xmlns="http://www.w3.org/2000/svg">
  <g transform="matrix(1.0, 0.0, 0.0, 1.0, 1.05, 1.15)">
    <clipPath id="clipPath0" transform="matrix(1.0, 0.0, 0.0, 1.0, 0.0, 0.0)">
      <path d="M50.5 0.0 Q53.95 0.0 53.95 3.3 L53.95 50.15 Q53.95 53.4 50.5 53.4 L3.3 53.4 Q0.0 53.4 0.0 50.15 L0.0 3.3 Q0.0 0.0 3.3 0.0 L50.5 0.0" fill="#000000" fill-rule="evenodd" stroke="none"/>
    </clipPath>
    <g clip-path="url(#clipPath0)">
      <use ffdec:characterId="2" height="55.45" transform="matrix(1.0, 0.0, 0.0, 1.0, -1.05, -1.15)" width="55.5" xlink:href="#shape1"/>
    </g>
    <use ffdec:characterId="3" height="53.4" transform="matrix(1.0, 0.0, 0.0, 1.0, 0.0, 0.0)" width="53.95" xlink:href="#shape2"/>
  </g>
  <defs>
    <g id="shape1" transform="matrix(1.0, 0.0, 0.0, 1.0, 1.05, 1.15)">
      <path d="M45.75 33.1 L45.45 32.85 45.3 32.35 45.25 31.9 45.45 31.15 45.5 31.0 45.55 31.0 45.8 30.85 45.95 30.85 46.15 31.0 46.25 31.15 46.5 31.8 46.5 31.9 46.5 32.05 Q46.45 32.85 46.15 33.05 L45.9 33.1 45.75 33.1 M25.7 27.05 L25.95 27.2 Q26.8 27.9 26.8 28.95 26.5 30.35 25.6 30.75 L24.8 30.85 Q24.1 30.85 23.6 30.35 23.15 29.95 23.0 29.35 L22.9 28.65 Q22.9 27.7 23.5 27.15 L23.7 27.05 23.85 26.95 Q24.2 26.7 24.7 26.7 L25.05 26.7 25.7 27.05 M26.25 48.85 L26.2 48.3 Q26.2 47.65 26.8 47.05 L26.85 47.0 27.0 46.9 Q28.4 46.7 30.6 48.1 L31.95 49.1 32.55 49.8 Q33.2 50.7 33.2 51.75 33.2 52.2 32.8 52.55 32.25 53.05 31.3 53.05 29.5 53.05 27.85 51.6 L26.75 50.3 26.25 48.85" fill="#ffffff" fill-rule="evenodd" stroke="none"/>
      <path d="M51.85 0.85 L51.9 1.9 Q51.9 5.5 50.7 8.6 L50.1 9.75 49.5 8.3 48.55 6.45 48.65 8.55 48.3 11.4 45.2 13.25 44.3 13.65 44.4 15.2 44.45 16.65 44.45 17.25 44.35 16.75 44.1 15.1 43.9 13.85 Q40.3 15.35 36.75 15.35 30.95 15.35 27.1 12.9 25.5 11.85 24.35 10.45 23.1 13.0 22.5 15.8 22.55 12.95 23.65 9.5 22.7 8.1 22.15 6.35 L22.0 5.8 21.65 3.95 Q22.7 3.6 23.8 2.65 L24.0 2.4 Q25.45 1.0 26.0 -0.65 L28.65 -0.65 Q26.9 1.55 25.4 5.0 L25.2 5.35 25.05 5.8 24.65 5.4 24.6 5.4 24.2 5.35 Q23.8 5.35 23.5 5.75 L23.4 6.1 Q23.4 6.6 23.75 6.9 L24.1 7.05 24.55 6.95 23.65 9.5 24.35 10.45 Q25.65 7.85 27.45 5.85 29.5 3.5 32.25 1.95 L32.75 2.4 Q35.75 4.85 40.0 4.85 L41.05 4.8 Q42.1 6.9 42.95 10.2 L43.3 11.55 43.9 13.85 44.3 13.65 44.2 12.3 43.65 7.5 43.3 4.3 45.1 3.4 45.3 3.25 46.4 2.3 46.9 1.7 Q47.6 0.6 47.6 -0.6 L47.6 -0.65 51.4 -0.65 51.85 0.85" fill="#f7ad0b" fill-rule="evenodd" stroke="none"/>
      <path d="M17.7 -0.65 L26.0 -0.65 Q25.45 1.0 24.0 2.4 L23.8 2.65 Q22.7 3.6 21.65 3.95 L22.0 5.8 22.15 6.35 Q22.7 8.1 23.65 9.5 22.55 12.95 22.5 15.8 23.1 13.0 24.35 10.45 25.5 11.85 27.1 12.9 30.95 15.35 36.75 15.35 40.3 15.35 43.9 13.85 L44.1 15.1 44.35 16.75 44.45 17.25 44.45 16.65 44.4 15.2 44.3 13.65 45.2 13.25 48.3 11.4 48.65 8.55 48.55 6.45 49.5 8.3 50.1 9.75 50.7 8.6 Q51.9 5.5 51.9 1.9 L51.85 0.85 Q52.35 3.0 52.35 5.3 L52.15 8.3 Q51.65 11.45 50.1 14.15 L48.2 16.9 47.05 18.15 47.0 18.15 45.65 19.4 Q41.85 21.35 37.35 21.35 L34.8 21.25 33.5 21.1 Q32.75 19.65 30.9 18.2 27.9 15.85 24.25 15.85 L21.75 16.1 Q20.25 14.4 19.55 12.8 18.6 10.7 18.15 7.75 L18.1 7.45 Q17.65 4.65 17.65 1.05 L17.7 -0.65 M25.05 5.8 L25.1 5.95 25.1 6.1 24.95 6.5 24.85 6.7 24.55 6.95 24.1 7.05 23.75 6.9 Q23.4 6.6 23.4 6.1 L23.5 5.75 Q23.8 5.35 24.2 5.35 L24.6 5.4 24.65 5.4 25.05 5.8" fill="#e27e1d" fill-rule="evenodd" stroke="none"/>
      <path d="M28.65 -0.65 L47.6 -0.65 47.6 -0.6 Q47.6 0.6 46.9 1.7 L46.4 2.3 45.3 3.25 45.1 3.4 43.3 4.3 43.65 7.5 44.2 12.3 44.3 13.65 43.9 13.85 43.3 11.55 42.95 10.2 Q42.1 6.9 41.05 4.8 L40.0 4.85 Q35.75 4.85 32.75 2.4 L32.25 1.95 Q29.5 3.5 27.45 5.85 25.65 7.85 24.35 10.45 L23.65 9.5 24.55 6.95 24.85 6.7 24.95 6.5 25.1 6.1 25.1 5.95 25.05 5.8 25.2 5.35 25.4 5.0 Q26.9 1.55 28.65 -0.65" fill="#fcee29" fill-rule="evenodd" stroke="none"/>
      <path d="M48.3 39.05 L48.05 39.4 47.7 39.95 47.2 40.6 44.25 43.8 39.9 47.05 36.85 48.5 35.3 48.8 35.25 48.8 39.45 46.2 41.85 44.15 44.4 41.45 45.55 39.9 45.55 39.85 44.95 39.35 Q43.05 37.7 42.75 35.1 L42.7 33.95 42.8 33.05 42.85 33.1 43.15 33.3 44.1 33.95 44.2 34.0 Q44.2 35.8 44.95 37.0 45.75 38.35 46.8 38.35 L47.85 38.05 48.0 38.35 48.3 39.05 M37.0 31.0 L37.05 31.5 Q37.05 37.15 34.05 39.65 L33.85 39.75 Q31.8 42.25 28.3 42.25 24.45 42.25 21.6 39.95 20.15 38.8 19.6 37.85 L18.25 39.4 17.9 39.8 17.2 41.05 Q16.7 42.35 16.7 43.3 16.7 44.55 17.2 45.55 19.45 47.05 22.2 47.9 21.55 48.75 21.25 49.65 L17.65 48.5 16.6 47.9 Q15.65 46.25 15.5 44.35 L15.5 43.6 Q15.5 40.45 16.95 37.95 L17.1 37.65 Q17.9 36.4 19.0 35.4 L19.95 34.6 Q20.45 36.55 22.0 38.05 24.35 40.4 27.65 40.4 31.0 40.4 33.3 38.05 34.85 36.55 35.4 34.6 L35.65 32.45 35.5 30.8 36.2 30.85 36.75 30.95 37.0 31.0 M14.3 21.1 L14.15 19.0 14.2 17.75 14.3 17.4 Q15.85 17.75 17.35 18.8 15.7 19.75 14.3 21.1 M35.45 44.35 Q35.6 43.7 36.45 43.15 37.3 42.55 38.0 42.55 38.75 42.55 39.05 43.2 L39.15 43.45 39.1 43.7 38.75 43.65 Q37.75 43.65 36.8 44.35 L36.1 45.15 36.0 45.15 35.5 44.4 35.45 44.35" fill="#aabebf" fill-rule="evenodd" stroke="none"/>
      <path d="M46.25 26.15 Q46.55 25.5 47.2 24.8 48.2 23.6 49.05 23.1 49.4 24.0 49.4 25.85 L49.2 27.5 47.5 26.75 46.25 26.15 M37.0 31.0 L38.65 31.35 39.65 31.6 42.2 32.7 42.6 32.95 42.8 33.05 42.7 33.95 42.75 35.1 Q43.05 37.7 44.95 39.35 L45.55 39.85 45.55 39.9 44.4 41.45 41.85 44.15 39.45 46.2 35.25 48.8 Q33.6 48.0 32.55 47.9 L31.45 46.8 Q29.5 45.35 27.05 45.35 L26.1 45.45 Q24.25 45.75 22.8 47.2 L22.2 47.9 Q19.45 47.05 17.2 45.55 16.7 44.55 16.7 43.3 16.7 42.35 17.2 41.05 L17.9 39.8 18.25 39.4 19.6 37.85 Q20.15 38.8 21.6 39.95 24.45 42.25 28.3 42.25 31.8 42.25 33.85 39.75 L34.05 39.65 Q37.05 37.15 37.05 31.5 L37.0 31.0 M14.3 21.1 Q15.7 19.75 17.35 18.8 L18.05 19.4 Q19.45 20.55 20.35 21.9 19.0 22.15 17.7 22.95 L16.95 23.45 Q16.0 24.15 15.95 24.75 L15.5 24.25 Q14.6 23.0 14.3 21.1 M39.15 43.45 L39.05 43.2 Q38.75 42.55 38.0 42.55 37.3 42.55 36.45 43.15 35.6 43.7 35.45 44.35 L35.4 44.6 Q35.4 45.1 36.0 45.15 L36.05 45.2 36.1 45.15 36.8 44.35 Q37.75 43.65 38.75 43.65 L39.1 43.7 39.1 43.95 39.2 43.75 39.15 43.45" fill="#e0f6e9" fill-rule="evenodd" stroke="none"/>
      <path d="M49.1 18.45 Q51.35 22.8 51.35 28.05 L51.15 31.25 50.95 30.9 Q49.6 28.75 46.9 28.75 44.6 28.75 43.3 30.05 42.8 30.55 42.55 31.2 L42.45 31.55 42.2 31.4 41.0 30.9 39.95 30.4 39.3 30.2 38.8 30.05 36.2 29.6 36.0 27.7 Q35.7 26.1 35.0 24.9 L38.95 24.2 38.7 24.45 Q38.25 25.05 38.25 25.9 38.25 27.65 39.6 28.5 L40.15 28.75 41.35 29.0 42.0 28.9 42.85 28.4 Q43.4 27.9 43.4 27.2 43.4 26.6 42.7 25.6 41.95 24.6 41.0 24.3 L39.85 23.95 Q42.25 23.2 44.5 21.85 46.65 20.6 49.1 18.45 M48.8 22.05 L47.15 23.1 46.2 24.05 Q45.2 25.1 44.65 26.5 L47.4 27.55 Q48.55 28.05 49.7 28.65 L49.85 26.6 Q49.85 25.0 49.35 23.35 L48.8 22.05 M41.0 24.8 L40.7 24.85 40.65 24.85 Q40.4 24.95 40.3 25.05 L40.3 24.8 40.7 24.85 40.95 24.75 41.0 24.8 M13.5 21.9 L13.9 23.35 Q14.45 25.25 15.15 26.4 L17.55 24.5 18.7 23.7 19.0 23.95 19.15 24.2 19.35 24.5 19.6 24.85 20.45 25.5 19.8 26.25 Q18.3 28.35 18.3 31.45 18.3 33.05 18.7 34.4 L17.45 35.4 16.95 35.85 16.45 36.35 16.1 37.1 16.1 37.15 15.65 37.95 Q14.5 40.65 14.5 43.0 L14.55 43.45 14.35 43.3 Q13.6 41.1 11.85 39.75 L11.35 39.4 Q11.35 38.45 11.8 38.2 L12.15 38.15 12.3 38.2 12.5 38.45 12.3 38.75 12.15 38.7 11.95 38.7 11.9 38.7 11.75 38.95 12.0 39.65 12.4 40.0 12.55 40.0 13.0 39.65 13.25 38.55 13.05 37.75 Q12.75 37.25 12.25 37.25 11.95 37.3 11.65 37.5 L11.45 37.6 Q11.0 37.85 10.85 38.35 L10.5 37.6 10.0 36.05 10.35 36.1 11.3 36.0 Q12.25 35.7 12.85 34.75 13.45 33.75 13.45 32.6 13.45 31.2 12.75 30.8 L12.05 30.7 Q11.1 30.7 10.35 31.4 9.65 32.05 9.65 32.6 9.65 33.35 10.35 33.9 11.05 34.5 11.75 34.35 L11.8 34.35 12.25 33.4 Q12.25 32.5 11.55 32.35 L11.15 32.7 10.95 33.1 10.85 33.0 10.6 32.55 Q10.6 31.75 11.85 31.75 12.95 31.75 12.95 33.05 12.95 34.05 12.1 34.75 L11.1 35.35 10.6 35.4 9.75 35.1 Q9.35 33.3 9.35 31.25 9.35 26.95 12.6 22.9 L13.5 21.9" fill="#f27597" fill-rule="evenodd" stroke="none"/>
      <path d="M45.65 19.4 L47.0 18.15 47.05 18.15 48.2 16.9 48.75 17.85 49.1 18.45 Q46.65 20.6 44.5 21.85 42.25 23.2 39.85 23.95 39.3 23.85 38.95 24.2 L35.0 24.9 Q35.7 26.1 36.0 27.7 L36.2 29.6 38.8 30.05 39.3 30.2 39.95 30.4 41.0 30.9 42.2 31.4 42.45 31.55 42.55 31.2 Q42.8 30.55 43.3 30.05 44.6 28.75 46.9 28.75 49.6 28.75 50.95 30.9 L51.15 31.25 Q50.75 33.75 49.85 36.05 L49.4 37.1 49.1 37.6 48.9 38.0 48.3 39.05 48.0 38.35 47.85 38.05 48.7 37.0 49.4 35.15 49.5 33.95 Q49.5 32.15 48.7 30.9 47.9 29.6 46.8 29.6 45.75 29.6 44.95 30.9 L44.85 31.05 Q44.2 32.35 44.2 33.95 L44.2 34.0 44.1 33.95 43.15 33.3 42.85 33.1 42.8 33.05 42.6 32.95 42.2 32.7 39.65 31.6 38.65 31.35 37.0 31.0 36.75 30.95 36.2 30.85 35.5 30.8 Q35.05 28.5 33.3 26.7 31.0 24.45 27.65 24.45 24.35 24.45 22.0 26.7 L21.65 27.1 Q19.65 29.35 19.65 32.45 19.65 33.55 19.95 34.6 L19.0 35.4 Q17.9 36.4 17.1 37.65 L16.95 37.95 Q15.5 40.45 15.5 43.6 L15.5 44.35 Q15.65 46.25 16.6 47.9 L14.9 47.2 14.9 46.9 Q14.9 44.9 14.35 43.3 L14.55 43.45 14.5 43.0 Q14.5 40.65 15.65 37.95 L16.1 37.15 16.1 37.1 16.45 36.35 16.95 35.85 17.45 35.4 18.7 34.4 Q18.3 33.05 18.3 31.45 18.3 28.35 19.8 26.25 L20.45 25.5 19.6 24.85 19.35 24.5 19.15 24.2 19.0 23.95 18.7 23.7 17.55 24.5 15.15 26.4 Q14.45 25.25 13.9 23.35 L13.5 21.9 12.6 22.9 Q9.35 26.95 9.35 31.25 9.35 33.3 9.75 35.1 L10.6 35.4 11.1 35.35 12.1 34.75 Q12.95 34.05 12.95 33.05 12.95 31.75 11.85 31.75 10.6 31.75 10.6 32.55 L10.85 33.0 10.95 33.1 11.15 32.7 11.55 32.35 Q12.25 32.5 12.25 33.4 L11.8 34.35 11.75 34.35 Q11.05 34.5 10.35 33.9 9.65 33.35 9.65 32.6 9.65 32.05 10.35 31.4 11.1 30.7 12.05 30.7 L12.75 30.8 Q13.45 31.2 13.45 32.6 13.45 33.75 12.85 34.75 12.25 35.7 11.3 36.0 L10.35 36.1 10.0 36.05 10.5 37.6 10.85 38.35 Q11.0 37.85 11.45 37.6 L11.65 37.5 Q11.95 37.3 12.25 37.25 12.75 37.25 13.05 37.75 L13.25 38.55 13.0 39.65 12.55 40.0 12.4 40.0 12.0 39.65 11.75 38.95 11.9 38.7 11.95 38.7 12.15 38.7 12.3 38.75 12.5 38.45 12.3 38.2 12.15 38.15 11.8 38.2 Q11.35 38.45 11.35 39.4 9.15 37.95 5.8 37.85 L5.7 37.85 5.55 37.85 Q3.15 33.4 3.15 28.05 3.15 24.25 4.35 20.95 L5.8 19.75 Q11.95 15.2 18.1 13.8 19.35 16.1 21.35 18.15 L22.0 18.75 Q26.5 22.9 32.5 23.35 L34.2 23.45 Q38.95 23.45 42.8 21.3 L44.2 20.5 44.6 20.2 45.65 19.4 M48.8 22.05 L49.35 23.35 Q49.85 25.0 49.85 26.6 L49.7 28.65 Q48.55 28.05 47.4 27.55 L44.65 26.5 Q45.2 25.1 46.2 24.05 L47.15 23.1 48.8 22.05 M46.25 26.15 L47.5 26.75 49.2 27.5 49.4 25.85 Q49.4 24.0 49.05 23.1 48.2 23.6 47.2 24.8 46.55 25.5 46.25 26.15 M17.35 18.8 L17.8 18.6 16.95 18.05 Q15.0 16.9 13.45 16.6 L13.2 17.55 13.05 18.3 Q13.05 19.9 13.5 21.9 L14.3 21.1 Q14.6 23.0 15.5 24.25 L15.95 24.75 Q16.0 24.15 16.95 23.45 L17.7 22.95 Q19.0 22.15 20.35 21.9 19.45 20.55 18.05 19.4 L17.35 18.8" fill="#c65076" fill-rule="evenodd" stroke="none"/>
      <path d="M17.7 -0.65 L17.65 1.05 Q17.65 4.65 18.1 7.45 L18.15 7.75 Q18.6 10.7 19.55 12.8 20.25 14.4 21.75 16.1 L24.25 15.85 Q27.9 15.85 30.9 18.2 32.75 19.65 33.5 21.1 L34.8 21.25 37.35 21.35 Q41.85 21.35 45.65 19.4 L44.6 20.2 44.2 20.5 42.8 21.3 Q38.95 23.45 34.2 23.45 L32.5 23.35 Q26.5 22.9 22.0 18.75 L21.35 18.15 Q19.35 16.1 18.1 13.8 16.8 11.45 16.35 8.8 L16.25 8.25 16.05 5.3 Q16.05 2.1 17.0 -0.65 L17.7 -0.65" fill="#d7510f" fill-rule="evenodd" stroke="none"/>
      <path d="M16.25 8.25 L16.35 8.8 Q16.8 11.45 18.1 13.8 11.95 15.2 5.8 19.75 L4.35 20.95 Q6.05 16.15 10.2 12.35 12.05 10.65 14.05 9.45 L16.25 8.25" fill="#a33c5d" fill-rule="evenodd" stroke="none"/>
      <path d="M44.85 31.05 L44.95 30.9 Q45.75 29.6 46.8 29.6 47.9 29.6 48.7 30.9 49.5 32.15 49.5 33.95 L49.4 35.15 48.7 35.25 47.95 35.4 47.9 35.4 48.0 35.25 Q48.35 34.65 48.35 33.9 48.35 32.6 47.7 32.0 L47.35 31.7 46.95 31.6 46.5 31.8 46.25 31.15 46.15 31.0 45.95 30.85 45.8 30.85 45.55 31.0 45.5 31.0 45.45 31.15 45.25 31.9 45.3 32.35 45.45 32.85 45.75 33.1 45.65 33.85 45.65 34.2 45.6 34.1 45.05 32.95 44.85 31.05 M21.65 27.1 L22.0 26.7 Q24.35 24.45 27.65 24.45 31.0 24.45 33.3 26.7 35.05 28.5 35.5 30.8 L35.65 32.45 35.4 34.6 33.35 34.75 Q33.8 33.7 33.8 32.45 L33.5 30.65 Q33.1 29.35 32.05 28.3 30.35 26.6 27.95 26.6 26.75 26.6 25.7 27.05 L25.05 26.7 24.7 26.7 Q24.2 26.7 23.85 26.95 L23.7 27.05 23.5 27.15 Q22.9 27.7 22.9 28.65 L23.0 29.35 Q22.65 29.9 22.45 30.5 21.75 29.0 21.65 27.1" fill="#30bdde" fill-rule="evenodd" stroke="none"/>
      <path d="M40.3 25.05 Q40.4 24.95 40.65 24.85 L40.7 24.85 41.0 24.8 41.5 25.05 Q42.0 25.4 42.0 25.95 42.0 26.6 41.6 26.6 L41.4 26.6 40.8 26.25 Q40.25 25.85 40.3 25.25 L40.3 25.05" fill="#ffd2de" fill-rule="evenodd" stroke="none"/>
      <path d="M39.85 23.95 L41.0 24.3 Q41.95 24.6 42.7 25.6 43.4 26.6 43.4 27.2 43.4 27.9 42.85 28.4 L42.0 28.9 41.35 29.0 40.15 28.75 39.6 28.5 Q38.25 27.65 38.25 25.9 38.25 25.05 38.7 24.45 L38.95 24.2 Q39.3 23.85 39.85 23.95 M40.3 25.05 L40.3 25.25 Q40.25 25.85 40.8 26.25 L41.4 26.6 41.6 26.6 Q42.0 26.6 42.0 25.95 42.0 25.4 41.5 25.05 L41.0 24.8 40.95 24.75 40.7 24.85 40.3 24.8 40.3 25.05" fill="#fc8dab" fill-rule="evenodd" stroke="none"/>
      <path d="M44.85 31.05 L45.05 32.95 45.6 34.1 45.65 34.2 Q45.75 35.15 46.25 35.6 L47.0 35.9 Q47.5 35.9 47.9 35.4 L47.95 35.4 48.7 35.25 49.4 35.15 48.7 37.0 47.85 38.05 46.8 38.35 Q45.75 38.35 44.95 37.0 44.2 35.8 44.2 34.0 L44.2 33.95 Q44.2 32.35 44.85 31.05 M19.95 34.6 Q19.65 33.55 19.65 32.45 19.65 29.35 21.65 27.1 21.75 29.0 22.45 30.5 22.1 31.4 22.1 32.45 L22.15 33.15 Q22.35 35.1 23.8 36.55 25.55 38.3 27.95 38.3 30.35 38.3 32.05 36.55 L33.35 34.75 35.4 34.6 Q34.85 36.55 33.3 38.05 31.0 40.4 27.65 40.4 24.35 40.4 22.0 38.05 20.45 36.55 19.95 34.6" fill="#1c93af" fill-rule="evenodd" stroke="none"/>
      <path d="M45.65 34.2 L45.65 33.85 45.75 33.1 45.9 33.1 46.15 33.05 Q46.45 32.85 46.5 32.05 L46.5 31.9 46.5 31.8 46.95 31.6 47.35 31.7 47.7 32.0 Q48.35 32.6 48.35 33.9 48.35 34.65 48.0 35.25 L47.9 35.4 Q47.1 35.4 46.5 34.95 L45.65 34.2 M25.7 27.05 Q26.75 26.6 27.95 26.6 30.35 26.6 32.05 28.3 33.1 29.35 33.5 30.65 L33.8 32.45 Q33.8 33.7 33.35 34.75 L31.05 34.95 Q28.55 34.95 26.7 34.25 25.15 33.7 24.0 32.6 L23.75 32.35 22.45 30.5 Q22.65 29.9 23.0 29.35 23.15 29.95 23.6 30.35 24.1 30.85 24.8 30.85 L25.6 30.75 Q26.5 30.35 26.8 28.95 26.8 27.9 25.95 27.2 L25.7 27.05" fill="#157a5c" fill-rule="evenodd" stroke="none"/>
      <path d="M47.9 35.4 Q47.5 35.9 47.0 35.9 L46.25 35.6 Q45.75 35.15 45.65 34.2 L46.5 34.95 Q47.1 35.4 47.9 35.4 M33.35 34.75 L32.05 36.55 Q30.35 38.3 27.95 38.3 25.55 38.3 23.8 36.55 22.35 35.1 22.15 33.15 L22.1 32.45 Q22.1 31.4 22.45 30.5 L23.75 32.35 24.0 32.6 Q25.15 33.7 26.7 34.25 28.55 34.95 31.05 34.95 L33.35 34.75" fill="#0c5d45" fill-rule="evenodd" stroke="none"/>
      <path d="M47.85 42.25 L48.05 42.15 48.5 42.05 48.9 41.95 49.0 41.95 49.1 41.9 49.15 41.9 50.7 42.15 Q52.25 42.7 52.25 44.0 L52.0 44.65 Q51.55 45.3 50.3 45.3 L50.1 45.3 48.7 44.9 Q47.15 44.3 47.15 43.1 47.15 42.7 47.6 42.4 L47.85 42.25" fill="#faefc7" fill-rule="evenodd" stroke="none"/>
      <path d="M47.7 39.95 Q51.45 40.25 53.95 42.45 L53.95 52.2 50.0 52.95 Q49.05 51.0 47.2 49.7 44.95 48.15 43.05 47.85 L42.3 47.8 41.5 47.8 40.55 48.05 39.9 47.05 44.25 43.8 47.2 40.6 47.7 39.95 M47.85 42.25 L47.6 42.4 Q47.15 42.7 47.15 43.1 47.15 44.3 48.7 44.9 L50.1 45.3 50.3 45.3 Q51.55 45.3 52.0 44.65 L52.25 44.0 Q52.25 42.7 50.7 42.15 L49.15 41.9 49.1 41.9 49.0 41.95 48.9 41.95 48.5 42.05 48.05 42.15 47.85 42.25" fill="#eee2b7" fill-rule="evenodd" stroke="none"/>
      <path d="M39.6 53.8 L36.55 53.8 Q36.8 52.0 37.65 50.65 L37.9 50.3 38.35 49.65 Q39.35 48.5 40.55 48.05 L41.5 47.8 42.3 47.8 43.05 47.85 Q42.9 47.9 42.8 48.0 42.2 48.4 41.55 49.3 L40.75 50.35 Q39.8 51.85 39.55 53.15 L39.6 53.8" fill="#e9dca9" fill-rule="evenodd" stroke="none"/>
      <path d="M50.4 53.8 L47.2 53.8 43.45 53.8 39.6 53.8 39.55 53.15 Q39.8 51.85 40.75 50.35 L41.55 49.3 Q42.2 48.4 42.8 48.0 42.9 47.9 43.05 47.85 44.95 48.15 47.2 49.7 49.05 51.0 50.0 52.95 L50.4 53.8 M36.55 53.8 L26.5 53.8 Q25.35 52.3 25.2 50.2 L25.15 49.45 25.2 48.7 Q25.3 46.85 26.1 45.45 L27.05 45.35 Q29.5 45.35 31.45 46.8 L32.55 47.9 Q33.6 48.0 35.25 48.8 L35.3 48.8 35.65 49.0 37.1 49.8 37.7 50.2 37.9 50.3 37.65 50.65 Q36.8 52.0 36.55 53.8 M5.25 53.8 L1.0 53.8 Q2.7 52.55 5.2 52.55 L5.4 52.55 5.1 53.05 5.25 53.8 M8.8 39.95 L8.7 39.9 Q10.35 40.3 12.15 42.0 14.4 44.2 14.4 45.9 L14.2 46.6 14.15 46.8 14.05 46.9 14.05 46.95 14.3 47.0 Q14.25 48.0 13.7 48.85 12.7 50.65 10.35 50.65 9.4 50.65 8.8 50.1 7.95 49.35 7.95 47.75 L8.15 46.2 8.45 46.0 Q9.45 45.25 10.1 43.7 L10.25 43.3 Q10.25 41.2 8.8 39.95 M26.25 48.85 L26.75 50.3 27.85 51.6 Q29.5 53.05 31.3 53.05 32.25 53.05 32.8 52.55 33.2 52.2 33.2 51.75 33.2 50.7 32.55 49.8 L31.95 49.1 30.6 48.1 Q28.4 46.7 27.0 46.9 L26.85 47.0 26.8 47.05 Q26.2 47.65 26.2 48.3 L26.25 48.85 M33.6 49.6 L33.35 49.05 32.55 47.9 33.35 49.05 33.6 49.6 M43.45 53.8 L44.25 52.95 45.3 52.7 Q46.2 52.7 47.2 53.8 46.2 52.7 45.3 52.7 L44.25 52.95 43.45 53.8" fill="#fdfaeb" fill-rule="evenodd" stroke="none"/>
      <path d="M17.35 18.8 Q15.85 17.75 14.3 17.4 L14.2 17.75 14.15 19.0 14.3 21.1 13.5 21.9 Q13.05 19.9 13.05 18.3 L13.2 17.55 13.45 16.6 Q15.0 16.9 16.95 18.05 L17.8 18.6 17.35 18.8" fill="#a13558" fill-rule="evenodd" stroke="none"/>
      <path d="M53.95 52.2 L53.95 53.8 50.4 53.8 50.0 52.95 53.95 52.2 M26.5 53.8 L20.9 53.8 21.0 51.4 21.0 51.35 21.0 50.3 21.25 49.65 21.0 50.3 21.0 51.35 Q19.3 49.6 17.65 48.5 L21.25 49.65 Q21.55 48.75 22.2 47.9 L22.8 47.2 Q24.25 45.75 26.1 45.45 25.3 46.85 25.2 48.7 L25.15 49.45 25.2 50.2 Q25.35 52.3 26.5 53.8 M-0.55 42.95 L-0.55 39.55 Q2.0 37.85 5.3 37.85 L5.55 37.85 5.7 37.85 5.8 37.85 5.7 37.95 5.6 38.0 4.35 38.8 0.2 42.3 -0.55 42.95 M40.55 48.05 Q39.35 48.5 38.35 49.65 L37.9 50.3 37.7 50.2 37.1 49.8 35.65 49.0 35.3 48.8 36.85 48.5 39.9 47.05 40.55 48.05 M39.15 43.45 L39.2 43.75 39.1 43.95 39.1 43.7 39.15 43.45 M36.1 45.15 L36.05 45.2 36.0 45.15 Q35.4 45.1 35.4 44.6 L35.45 44.35 35.5 44.4 36.0 45.15 36.1 45.15 M36.85 48.5 L35.65 49.0 36.85 48.5" fill="#dacd9d" fill-rule="evenodd" stroke="none"/>
      <path d="M20.9 53.8 L5.25 53.8 5.1 53.05 5.4 52.55 5.2 52.55 Q2.7 52.55 1.0 53.8 L-0.55 53.8 -0.55 42.95 0.2 42.3 4.35 38.8 5.6 38.0 5.7 37.95 5.8 37.85 Q9.15 37.95 11.35 39.4 L11.85 39.75 Q13.6 41.1 14.35 43.3 14.9 44.9 14.9 46.9 L14.9 47.2 16.6 47.9 17.65 48.5 Q19.3 49.6 21.0 51.35 L21.0 51.4 20.9 53.8 M8.8 39.95 Q10.25 41.2 10.25 43.3 L10.1 43.7 Q9.45 45.25 8.45 46.0 L8.15 46.2 7.95 47.75 Q7.95 49.35 8.8 50.1 9.4 50.65 10.35 50.65 12.7 50.65 13.7 48.85 14.25 48.0 14.3 47.0 L14.05 46.95 14.05 46.9 14.15 46.8 14.2 46.6 14.4 45.9 Q14.4 44.2 12.15 42.0 10.35 40.3 8.7 39.9 L8.8 39.95 M8.55 43.05 Q8.3 42.7 7.85 42.7 6.85 42.7 6.2 43.8 5.55 44.9 5.55 46.6 5.55 49.15 7.1 50.5 8.4 51.65 10.35 51.65 12.3 51.65 13.6 50.35 14.8 49.1 14.9 47.2 14.8 49.1 13.6 50.35 12.3 51.65 10.35 51.65 8.4 51.65 7.1 50.5 5.55 49.15 5.55 46.6 5.55 44.9 6.2 43.8 6.85 42.7 7.85 42.7 8.3 42.7 8.55 43.05" fill="#f3e7bb" fill-rule="evenodd" stroke="none"/>
      <path d="M45.65 19.4 L47.0 18.15 47.05 18.15 48.2 16.9 50.1 14.15 Q51.65 11.45 52.15 8.3 L52.35 5.3 Q52.35 3.0 51.85 0.85 L51.4 -0.65 M17.0 -0.65 Q16.05 2.1 16.05 5.3 L16.25 8.25 16.35 8.8 Q16.8 11.45 18.1 13.8 19.35 16.1 21.35 18.15 L22.0 18.75 Q26.5 22.9 32.5 23.35 L34.2 23.45 Q38.95 23.45 42.8 21.3 L44.2 20.5 44.6 20.2 45.65 19.4 M48.2 16.9 L48.75 17.85 49.1 18.45 Q51.35 22.8 51.35 28.05 L51.15 31.25 Q50.75 33.75 49.85 36.05 L49.4 37.1 49.1 37.6 48.9 38.0 48.3 39.05 48.05 39.4 47.7 39.95 47.2 40.6 44.25 43.8 39.9 47.05 36.85 48.5 35.65 49.0 M5.55 37.85 Q3.15 33.4 3.15 28.05 3.15 24.25 4.35 20.95 6.05 16.15 10.2 12.35 12.05 10.65 14.05 9.45 L16.25 8.25 M49.4 35.15 L49.5 33.95 Q49.5 32.15 48.7 30.9 47.9 29.6 46.8 29.6 45.75 29.6 44.95 30.9 L44.85 31.05 Q44.2 32.35 44.2 33.95 L44.2 34.0 44.1 33.95 43.15 33.3 42.85 33.1 42.8 33.05 42.6 32.95 42.2 32.7 39.65 31.6 38.65 31.35 37.0 31.0 36.75 30.95 36.2 30.85 35.5 30.8 Q35.05 28.5 33.3 26.7 31.0 24.45 27.65 24.45 24.35 24.45 22.0 26.7 L21.65 27.1 Q19.65 29.35 19.65 32.45 19.65 33.55 19.95 34.6 L19.0 35.4 Q17.9 36.4 17.1 37.65 L16.95 37.95 Q15.5 40.45 15.5 43.6 L15.5 44.35 Q15.65 46.25 16.6 47.9 M49.4 35.15 L48.7 37.0 47.85 38.05 48.0 38.35 48.3 39.05 M46.25 26.15 L47.5 26.75 49.2 27.5 49.4 25.85 Q49.4 24.0 49.05 23.1 48.2 23.6 47.2 24.8 46.55 25.5 46.25 26.15 M47.85 38.05 L46.8 38.35 Q45.75 38.35 44.95 37.0 44.2 35.8 44.2 34.0 M14.3 21.1 L14.15 19.0 14.2 17.75 14.3 17.4 Q15.85 17.75 17.35 18.8 L18.05 19.4 Q19.45 20.55 20.35 21.9 19.0 22.15 17.7 22.95 L16.95 23.45 Q16.0 24.15 15.95 24.75 L15.5 24.25 Q14.6 23.0 14.3 21.1 M35.4 34.6 L35.65 32.45 35.5 30.8 M35.4 34.6 Q34.85 36.55 33.3 38.05 31.0 40.4 27.65 40.4 24.35 40.4 22.0 38.05 20.45 36.55 19.95 34.6 M35.45 44.35 Q35.6 43.7 36.45 43.15 37.3 42.55 38.0 42.55 38.75 42.55 39.05 43.2 L39.15 43.45 39.2 43.75 39.1 43.95 M36.0 45.15 Q35.4 45.1 35.4 44.6 L35.45 44.35 M36.0 45.15 L36.1 45.15 M21.25 49.65 L17.65 48.5" fill="none" stroke="#430c0c" stroke-linecap="round" stroke-linejoin="round" stroke-width="1.0"/>
      <path d="M47.7 39.95 Q51.45 40.25 53.95 42.45 M-0.55 39.55 Q2.0 37.85 5.3 37.85 L5.55 37.85 5.7 37.85 5.8 37.85 Q9.15 37.95 11.35 39.4 L11.85 39.75 Q13.6 41.1 14.35 43.3 14.9 44.9 14.9 46.9 L14.9 47.2 Q14.8 49.1 13.6 50.35 12.3 51.65 10.35 51.65 8.4 51.65 7.1 50.5 5.55 49.15 5.55 46.6 5.55 44.9 6.2 43.8 6.85 42.7 7.85 42.7 8.3 42.7 8.55 43.05 M22.2 47.9 L22.8 47.2 Q24.25 45.75 26.1 45.45 L27.05 45.35 Q29.5 45.35 31.45 46.8 L32.55 47.9 33.35 49.05 33.6 49.6 M43.05 47.85 L42.3 47.8 41.5 47.8 40.55 48.05 Q39.35 48.5 38.35 49.65 L37.9 50.3 37.65 50.65 Q36.8 52.0 36.55 53.8 M21.25 49.65 L21.0 50.3 21.0 51.35 21.0 51.4 M47.2 53.8 Q46.2 52.7 45.3 52.7 L44.25 52.95 43.45 53.8 M50.0 52.95 Q49.05 51.0 47.2 49.7 44.95 48.15 43.05 47.85 M50.4 53.8 L50.0 52.95 M22.2 47.9 Q21.55 48.75 21.25 49.65" fill="none" stroke="#af9d6a" stroke-linecap="round" stroke-linejoin="round" stroke-width="1.0"/>
    </g>
    <g id="shape2" transform="matrix(1.0, 0.0, 0.0, 1.0, 0.0, 0.0)">
      <path d="M50.5 0.0 Q53.95 0.0 53.95 3.3 L53.95 50.15 Q53.95 53.4 50.5 53.4 L3.3 53.4 Q0.0 53.4 0.0 50.15 L0.0 3.3 Q0.0 0.0 3.3 0.0 L50.5 0.0" fill="#000000" fill-opacity="0.003921569" fill-rule="evenodd" stroke="none"/>
    </g>
  </defs>
</svg>
