<?xml version="1.0" encoding="UTF-8" standalone="no"?>
<svg xmlns:ffdec="https://www.free-decompiler.com/flash" xmlns:xlink="http://www.w3.org/1999/xlink" ffdec:objectType="frame" height="55.65px" width="57.0px" xmlns="http://www.w3.org/2000/svg">
  <g transform="matrix(1.0, 0.0, 0.0, 1.0, 2.6, 0.0)">
    <clipPath id="clipPath0" transform="matrix(1.0, 0.0, 0.0, 1.0, 0.0, 0.0)">
      <path d="M50.5 0.0 Q53.95 0.0 53.95 3.3 L53.95 50.15 Q53.95 53.4 50.5 53.4 L3.3 53.4 Q0.0 53.4 0.0 50.15 L0.0 3.3 Q0.0 0.0 3.3 0.0 L50.5 0.0" fill="#000000" fill-rule="evenodd" stroke="none"/>
    </clipPath>
    <g clip-path="url(#clipPath0)">
      <use ffdec:characterId="2" height="55.45" transform="matrix(1.0, 0.0, 0.0, 1.0, -2.6, 0.2)" width="57.0" xlink:href="#shape1"/>
    </g>
    <use ffdec:characterId="3" height="53.4" transform="matrix(1.0, 0.0, 0.0, 1.0, 0.0, 0.0)" width="53.95" xlink:href="#shape2"/>
  </g>
  <defs>
    <g id="shape1" transform="matrix(1.0, 0.0, 0.0, 1.0, 2.6, -0.2)">
      <path d="M-2.35 32.1 L-2.35 31.95 -0.7 29.65 -0.45 30.8 -0.35 31.9 -1.4 32.7 -2.05 31.9 -2.35 32.1 M-2.35 30.85 L-2.35 27.45 -1.6 25.95 -1.35 25.25 -1.3 25.95 -0.85 28.75 -0.75 29.3 -2.35 30.85 M-2.35 22.65 L-2.35 17.45 -2.2 18.7 -2.1 19.25 -2.1 19.55 -2.35 22.65 M1.25 40.1 L1.6 41.35 1.65 41.55 1.1 42.6 0.55 43.8 0.8 42.65 0.8 42.6 1.05 41.35 1.25 40.1" fill="#3e6f8d" fill-rule="evenodd" stroke="none"/>
      <path d="M-2.35 17.45 L-2.35 14.05 -0.4 13.1 -0.45 14.95 -0.7 17.85 1.9 19.3 2.25 19.5 2.75 21.8 2.45 22.15 2.85 22.35 3.1 23.2 3.25 23.7 3.3 24.05 3.15 24.25 2.25 26.0 1.9 26.5 3.8 26.0 3.8 26.1 4.3 28.3 2.65 29.55 2.35 29.9 1.8 31.35 1.5 32.3 0.5 36.0 0.45 33.6 0.45 32.75 0.5 31.25 -0.35 31.9 -0.45 30.8 -0.7 29.65 0.5 28.05 -0.75 29.3 -0.85 28.75 -1.3 25.95 -1.35 25.25 0.0 22.0 -1.35 20.3 -1.55 21.45 -2.05 19.25 -2.1 19.55 -2.1 19.25 -2.2 18.7 -2.35 17.45 M-2.35 13.9 L-2.35 8.05 -1.1 9.5 -2.35 13.9 M-2.35 4.1 L-2.35 4.05 -2.3 4.1 -2.35 4.1 M-2.35 2.15 L-2.35 1.8 -1.1 2.3 -0.8 4.05 -2.35 2.15 M-2.35 0.55 L-2.35 0.45 -1.3 0.45 -1.25 0.9 -2.35 0.55 M-1.15 1.65 L-1.1 2.05 -1.65 1.65 -1.15 1.65 M1.25 40.1 L1.7 38.55 2.6 34.8 3.0 33.45 3.45 32.05 4.5 31.85 5.1 31.65 5.55 33.15 3.0 38.7 1.75 41.35 1.65 41.55 1.6 41.35 1.25 40.1 M5.7 41.45 L5.4 42.7 4.9 45.2 4.75 46.05 4.4 49.45 4.4 49.25 4.05 46.0 4.05 44.85 4.1 42.7 4.15 41.4 4.15 41.35 4.3 40.5 4.4 40.5 6.05 40.4 Q5.8 40.95 5.7 41.45" fill="#416c8f" fill-rule="evenodd" stroke="none"/>
      <path d="M-2.35 4.05 L-2.35 2.65 -1.25 3.75 -0.9 4.05 -0.75 4.2 -0.35 7.1 -2.3 4.1 -2.35 4.05" fill="#254056" fill-rule="evenodd" stroke="none"/>
      <path d="M2.2 0.45 L4.95 0.45 5.05 0.95 5.35 1.8 2.2 0.45 M1.05 14.0 L1.05 13.9 0.85 8.9 0.85 8.85 -0.05 7.3 -0.3 7.15 -0.35 7.1 -0.75 4.2 -0.25 4.8 4.5 9.45 4.6 9.6 4.6 9.5 4.65 8.1 6.4 9.1 7.7 9.45 6.75 7.15 6.35 6.4 7.0 6.45 8.15 9.6 8.9 11.3 9.0 11.55 9.2 11.9 Q10.05 14.0 11.05 16.1 L11.85 18.9 11.85 19.0 10.7 19.8 10.45 19.95 10.4 19.55 10.0 18.1 9.9 17.55 9.3 15.35 7.15 13.45 5.65 12.5 Q4.5 11.75 3.25 11.2 L3.1 11.9 3.45 13.65 3.65 14.85 3.65 15.05 3.75 14.95 Q4.65 16.95 5.35 17.75 L6.8 19.45 7.4 20.15 6.3 19.8 5.65 19.4 5.2 19.2 2.3 17.45 1.7 17.05 0.95 16.6 1.05 14.0 M10.3 16.7 L9.3 15.35 10.3 16.7" fill="#2f3866" fill-rule="evenodd" stroke="none"/>
      <path d="M5.35 1.8 L6.0 3.85 Q3.65 2.7 0.7 1.65 L-1.0 1.0 -1.25 0.9 -1.3 0.45 2.2 0.45 5.35 1.8" fill="#4d5896" fill-rule="evenodd" stroke="none"/>
      <path d="M44.75 14.1 L44.8 14.7 Q44.5 14.8 44.1 15.05 L43.2 15.55 42.05 16.1 43.3 18.95 44.95 22.7 46.3 22.45 47.05 22.35 47.9 23.4 47.4 24.3 46.7 25.45 44.1 24.4 43.3 24.0 42.95 23.8 Q40.5 22.95 35.6 22.3 L29.4 21.6 23.05 25.05 19.55 27.1 18.4 27.7 19.4 26.9 23.7 23.2 18.7 25.05 17.25 25.55 17.05 24.3 16.75 23.15 Q15.6 22.7 13.85 21.7 L12.4 18.9 13.0 19.0 15.0 19.4 11.7 15.2 9.4 12.2 9.1 11.65 9.1 11.55 8.9 11.3 10.45 12.15 12.45 13.25 13.1 13.6 13.1 13.5 11.65 9.2 10.85 7.1 10.5 6.25 Q8.7 5.0 6.0 3.85 L5.35 1.8 5.9 2.05 10.1 3.85 8.5 2.5 5.65 0.45 7.9 0.45 13.5 3.75 13.5 3.6 15.55 4.95 17.05 5.85 14.65 2.5 13.5 0.9 18.05 3.95 19.55 4.9 21.95 7.05 23.0 7.9 23.35 8.25 24.5 9.1 22.65 8.75 21.95 8.6 21.3 8.45 16.4 7.8 17.0 10.35 17.15 11.4 15.3 14.75 13.85 17.05 17.2 16.5 16.75 22.1 19.3 21.55 19.85 21.3 22.25 20.6 22.95 21.95 23.2 22.55 Q24.25 21.8 27.5 20.3 L29.75 19.3 Q30.6 19.3 32.05 19.75 L32.55 19.85 32.3 18.1 34.0 16.1 35.4 14.5 35.45 14.75 35.6 16.05 35.2 16.8 35.05 16.85 33.85 19.0 Q34.15 18.75 34.65 18.55 L35.5 18.2 36.5 17.2 37.25 16.35 38.65 14.75 38.7 14.75 38.9 15.25 38.95 15.6 38.7 17.05 38.3 19.2 39.9 17.35 40.8 16.2 42.8 13.65 43.5 13.35 44.75 14.1 M15.1 14.25 L13.8 12.15 13.35 11.45 13.1 13.5 13.35 11.45 13.8 12.15 15.1 14.25 M34.55 11.65 L32.45 12.35 28.2 10.05 26.05 8.6 25.95 8.65 25.7 8.4 25.45 8.3 25.45 8.4 25.4 9.25 25.1 9.2 21.6 4.75 26.85 7.4 Q32.2 10.15 34.55 11.65 M32.25 14.75 L32.8 13.25 33.0 12.85 Q33.0 12.75 33.15 12.75 L33.8 12.35 34.55 12.0 34.1 13.2 33.7 14.45 32.15 15.55 32.25 14.75 M33.2 20.05 L34.35 20.3 35.1 20.4 36.4 18.7 37.4 17.45 36.0 18.65 35.05 19.4 33.2 20.05" fill="#55548e" fill-rule="evenodd" stroke="none"/>
      <path d="M46.45 15.2 L45.75 15.4 43.55 16.35 44.95 18.7 45.45 19.5 46.6 21.6 Q47.5 21.15 49.15 20.95 L49.15 22.4 49.8 23.0 50.2 23.45 49.5 25.25 49.45 25.35 49.1 26.4 48.1 29.15 46.85 27.95 45.35 26.7 44.9 26.3 42.35 24.2 39.6 23.75 35.85 23.2 33.1 22.65 30.0 22.15 Q28.9 22.65 27.75 23.35 L24.6 25.0 24.1 25.2 20.85 27.05 20.25 27.4 18.4 28.55 18.15 28.65 17.85 28.9 17.75 29.15 16.55 26.95 15.7 25.35 16.45 24.2 15.85 24.5 15.4 24.7 14.6 23.3 13.85 21.7 Q15.6 22.7 16.75 23.15 L17.05 24.3 17.25 25.55 18.7 25.05 23.7 23.2 19.4 26.9 18.4 27.7 19.55 27.1 23.05 25.05 29.4 21.6 35.6 22.3 Q40.5 22.95 42.95 23.8 L43.3 24.0 44.1 24.4 46.7 25.45 47.4 24.3 47.9 23.4 47.05 22.35 46.3 22.45 44.95 22.7 43.3 18.95 42.05 16.1 43.2 15.55 44.1 15.05 Q44.5 14.8 44.8 14.7 L44.75 14.1 46.45 15.2 M42.8 13.65 L40.8 16.2 39.9 17.35 38.3 19.2 38.7 17.05 38.95 15.6 39.05 15.85 Q39.2 15.7 39.35 15.65 L42.8 13.65 M38.65 14.75 L37.25 16.35 36.5 17.2 35.5 18.2 34.65 18.55 Q34.15 18.75 33.85 19.0 L35.05 16.85 35.2 16.8 35.6 16.05 35.6 16.1 Q36.2 15.9 37.25 15.3 L38.65 14.75 M35.4 14.5 L34.0 16.1 32.3 18.1 32.55 19.85 32.05 19.75 Q30.6 19.3 29.75 19.3 L27.5 20.3 Q24.25 21.8 23.2 22.55 L22.95 21.95 22.25 20.6 19.85 21.3 19.3 21.55 16.75 22.1 17.2 16.5 13.85 17.05 15.3 14.75 17.15 11.4 17.0 10.35 16.4 7.8 21.3 8.45 21.95 8.6 22.65 8.75 24.5 9.1 25.1 9.2 25.4 9.25 25.45 8.4 25.45 8.3 25.7 8.4 25.95 8.65 28.6 10.45 32.45 13.45 32.25 14.75 32.15 15.55 33.7 14.45 33.55 14.75 Q34.0 14.5 34.8 14.35 L35.35 14.2 35.4 14.5 M30.95 14.0 L28.75 11.55 26.3 9.2 26.25 9.5 25.95 10.6 25.25 10.3 24.8 10.1 23.55 9.75 23.1 9.65 21.65 9.35 21.25 9.3 20.0 9.2 17.95 9.0 18.6 11.3 16.8 13.45 15.75 14.95 15.35 15.6 16.45 15.3 18.5 14.9 18.4 16.2 18.4 16.45 18.4 16.85 17.95 20.8 23.8 19.05 23.8 19.3 23.75 20.0 Q23.6 20.45 23.6 20.9 L25.45 20.05 26.45 19.6 28.35 18.9 Q29.3 18.45 30.2 18.2 L30.65 18.4 31.1 18.7 31.15 18.75 31.15 17.55 31.15 17.35 31.1 16.1 31.05 14.75 31.2 14.3 31.25 14.2 31.05 14.05 30.95 14.0 31.05 14.05 30.95 14.05 30.95 14.0 M33.2 20.05 L35.05 19.4 36.0 18.65 37.4 17.45 36.4 18.7 35.1 20.4 34.35 20.3 33.2 20.05 M11.05 16.1 L9.6 12.7 9.4 12.2 11.7 15.2 15.0 19.4 13.0 19.0 12.4 18.9 11.05 16.1" fill="#363566" fill-rule="evenodd" stroke="none"/>
      <path d="M50.2 23.45 L49.8 23.0 49.15 22.4 49.15 20.95 Q47.5 21.15 46.6 21.6 L45.45 19.5 44.95 18.7 43.55 16.35 45.75 15.4 46.45 15.2 47.35 14.85 47.3 16.0 47.25 18.4 48.85 18.7 49.95 19.0 50.45 20.8 50.85 22.1 51.1 23.2 50.75 24.05 50.2 23.45" fill="#2e1513" fill-rule="evenodd" stroke="none"/>
      <path d="M17.75 29.15 L17.85 28.9 18.15 28.65 18.4 28.55 20.25 27.4 20.85 27.05 24.1 25.2 24.6 25.0 27.75 23.35 Q28.9 22.65 30.0 22.15 L33.1 22.65 35.85 23.2 39.6 23.75 42.35 24.2 44.9 26.3 45.35 26.7 46.85 27.95 48.1 29.15 47.85 29.65 46.1 30.4 44.95 30.95 44.65 31.05 44.0 31.2 43.45 30.8 41.8 29.45 Q40.85 28.75 39.9 28.2 L39.75 28.05 39.35 27.8 39.15 27.7 Q37.9 26.9 36.9 26.4 L36.1 26.0 35.35 25.75 32.85 26.1 32.4 26.2 31.55 26.3 31.45 26.3 28.9 26.85 28.6 26.9 26.55 27.45 Q26.4 27.55 26.2 27.6 L25.45 27.75 23.6 28.4 22.65 28.75 22.5 29.4 22.25 29.95 22.2 30.2 22.05 30.7 22.0 30.85 21.75 31.9 21.2 31.9 Q19.55 31.8 18.65 31.25 L18.6 30.95 18.45 30.1 17.85 30.95 17.35 31.65 16.55 32.85 16.75 32.4 16.35 32.45 15.9 32.5 17.75 29.15 M46.55 35.0 L46.55 35.15 46.55 35.45 46.55 36.0 46.55 36.3 46.4 38.6 43.7 38.95 41.6 39.4 41.0 37.2 40.45 35.5 41.55 34.65 43.3 33.25 43.35 32.95 43.35 35.3 44.5 35.4 46.25 35.15 46.55 35.0 M29.7 32.95 L29.65 33.0 28.35 33.75 27.95 34.0 Q27.6 34.2 27.4 34.35 L27.3 34.35 27.15 34.5 27.0 34.6 26.85 34.65 26.85 34.7 26.1 35.2 25.85 35.3 25.8 35.35 25.7 35.45 25.55 35.5 25.35 35.7 Q24.3 36.3 23.7 36.85 L22.75 37.7 Q21.6 38.7 21.15 39.55 L19.35 38.3 18.05 37.05 17.55 36.4 17.05 35.8 15.05 36.75 15.2 36.35 Q15.75 36.05 16.45 35.7 L17.05 35.4 18.7 34.55 19.95 36.5 21.25 35.9 21.55 36.3 21.7 36.55 24.95 35.0 25.35 34.8 Q25.5 34.65 25.75 34.55 L25.85 34.5 26.1 34.45 26.1 34.35 26.15 34.35 26.35 34.3 26.75 34.1 Q27.15 33.8 27.7 33.6 L27.75 33.55 Q28.9 32.9 29.95 32.4 L30.1 32.3 32.35 31.1 Q33.25 30.6 33.8 30.35 L36.4 30.6 37.0 30.75 36.95 29.35 37.4 29.4 37.8 29.4 38.3 31.0 38.7 32.65 38.55 33.3 38.55 33.35 38.45 33.15 37.75 32.6 37.3 32.3 Q36.3 31.7 34.4 31.05 L32.85 31.55 32.55 31.6 32.4 31.7 30.9 32.3 30.2 32.7 29.7 32.95 M26.85 34.65 L25.85 35.3 26.85 34.65" fill="#a1965d" fill-rule="evenodd" stroke="none"/>
      <path d="M51.1 23.2 L50.85 22.1 50.45 20.8 49.95 19.0 48.85 18.7 47.25 18.4 47.3 16.0 47.35 14.85 47.5 14.8 50.35 16.8 51.2 17.6 52.9 19.2 51.1 23.2 M51.0 18.65 L50.85 19.15 51.05 19.8 51.6 20.05 Q52.0 20.05 52.0 19.6 L51.6 19.0 51.0 18.6 51.0 18.65" fill="#4d2724" fill-rule="evenodd" stroke="none"/>
      <path d="M51.0 18.65 L51.0 18.6 51.6 19.0 52.0 19.6 Q52.0 20.05 51.6 20.05 L51.05 19.8 50.85 19.15 51.0 18.65" fill="#af7f7b" fill-rule="evenodd" stroke="none"/>
      <path d="M53.55 36.7 L54.15 36.35 54.15 39.95 54.0 39.9 53.55 36.7" fill="#b0bac3" fill-rule="evenodd" stroke="none"/>
      <path d="M36.9 26.4 Q37.9 26.9 39.15 27.7 L39.35 27.8 39.75 28.05 39.9 28.2 Q40.85 28.75 41.8 29.45 L43.45 30.8 44.0 31.2 43.75 31.25 43.35 32.9 43.35 32.95 42.3 31.6 41.1 30.15 39.65 30.4 39.25 36.4 38.7 36.85 37.25 37.7 38.15 35.05 38.55 33.35 38.55 33.3 38.7 32.65 38.3 31.0 37.8 29.4 37.5 28.3 37.3 27.75 37.3 27.7 37.1 27.05 36.9 26.4 M36.1 26.0 L35.5 27.1 33.6 27.45 33.25 27.6 32.8 26.85 32.75 26.8 32.4 26.2 32.85 26.1 35.35 25.75 36.1 26.0 M31.45 26.3 L31.1 27.05 30.5 28.4 29.65 28.65 29.1 28.8 29.15 29.0 29.5 30.25 29.65 30.7 29.55 30.85 29.3 31.1 29.15 30.85 28.9 30.5 28.5 30.0 28.0 29.3 27.8 29.0 27.05 28.05 26.55 27.45 28.6 26.9 28.9 26.85 31.45 26.3 M32.25 28.05 L32.25 28.25 32.25 28.5 32.3 29.45 32.35 29.75 31.1 30.0 30.85 30.1 31.55 29.1 31.65 28.9 32.05 28.3 32.25 28.05 M25.55 33.0 L25.65 32.1 25.7 32.0 25.8 30.15 25.85 29.6 25.85 29.5 26.75 31.45 26.85 31.6 27.2 32.6 26.8 32.85 26.05 33.45 25.55 33.0 M22.5 29.4 L22.65 28.75 23.6 28.4 25.45 27.75 25.3 28.65 25.3 28.75 25.25 29.35 25.25 29.45 25.1 30.35 Q24.7 30.5 24.25 30.75 L24.5 31.3 24.85 32.45 24.75 32.3 24.55 32.1 24.15 31.8 23.6 31.2 23.5 31.1 22.75 30.1 22.6 29.85 22.5 29.4 M22.85 33.75 L23.4 31.9 23.45 31.95 24.0 32.95 24.4 33.8 24.7 34.35 24.4 34.55 22.85 33.75" fill="#a4c6c4" fill-rule="evenodd" stroke="none"/>
      <path d="M37.3 27.7 L37.3 27.75 37.5 28.3 37.8 29.4 37.4 29.4 36.95 29.35 36.2 29.35 36.1 29.35 36.2 29.15 36.6 28.55 37.25 27.75 37.3 27.7 M39.25 36.4 L39.65 30.4 41.1 30.15 42.3 31.6 43.35 32.95 43.3 33.25 41.55 34.65 40.45 35.5 39.95 35.95 39.25 36.4 M35.5 27.1 L35.1 27.95 34.5 29.15 34.4 29.35 34.35 29.25 33.55 28.15 33.35 27.7 33.25 27.6 33.6 27.45 35.5 27.1 M29.65 30.7 L29.5 30.25 29.15 29.0 29.1 28.8 29.65 28.65 30.5 28.4 30.45 28.55 30.15 29.3 30.0 29.75 29.9 30.0 29.65 30.7" fill="#d6fdfa" fill-rule="evenodd" stroke="none"/>
      <path d="M36.9 26.4 L37.1 27.05 37.3 27.7 37.25 27.75 36.6 28.55 36.2 29.15 36.1 29.35 34.55 29.45 34.4 29.35 34.5 29.15 35.1 27.95 35.5 27.1 36.1 26.0 36.9 26.4 M32.4 26.2 L32.75 26.8 32.8 26.85 33.25 27.6 33.35 27.7 33.55 28.15 34.35 29.25 34.4 29.35 34.35 29.45 33.85 29.5 33.75 29.4 33.35 29.0 32.7 28.25 32.7 28.2 32.35 27.9 32.25 28.05 32.05 28.3 31.65 28.9 31.55 29.1 30.85 30.1 30.6 30.15 30.2 30.4 30.05 30.5 29.65 30.8 29.55 30.85 29.65 30.7 29.9 30.0 30.0 29.75 30.15 29.3 30.45 28.55 30.5 28.4 31.1 27.05 31.45 26.3 31.55 26.3 32.4 26.2 M26.55 27.45 L27.05 28.05 27.8 29.0 28.0 29.3 28.5 30.0 28.9 30.5 29.15 30.85 29.3 31.1 29.1 31.2 28.75 31.0 28.5 30.8 28.35 30.75 28.05 30.5 26.6 29.75 25.85 29.5 25.85 29.6 25.8 30.15 25.7 32.0 25.65 32.1 25.55 33.0 25.0 32.6 25.0 32.45 25.0 32.15 25.1 30.35 25.25 29.45 25.25 29.35 25.3 28.75 25.3 28.65 25.45 27.75 26.2 27.6 Q26.4 27.55 26.55 27.45 M21.75 31.9 L22.0 30.85 22.05 30.7 22.2 30.2 22.25 29.95 22.5 29.4 22.6 29.85 22.75 30.1 23.5 31.1 23.6 31.2 24.15 31.8 24.55 32.1 24.75 32.3 24.85 32.45 24.95 32.5 25.0 32.6 25.0 32.85 25.0 33.1 24.6 32.8 24.55 32.7 24.25 32.5 24.15 32.45 23.8 32.15 23.45 31.95 23.4 31.9 22.85 33.75 22.75 33.7 22.2 33.35 22.2 33.3 21.55 32.85 21.75 32.0 21.75 31.9" fill="#200002" fill-rule="evenodd" stroke="none"/>
      <path d="M44.65 31.05 L44.9 31.1 46.55 31.9 46.55 34.65 46.55 34.95 46.55 35.0 46.25 35.15 44.5 35.4 43.35 35.3 43.35 32.95 43.35 32.9 43.75 31.25 44.0 31.2 44.65 31.05 M15.2 36.35 L15.7 35.0 16.55 32.85 17.35 31.65 17.85 30.95 18.45 30.1 18.6 30.95 18.65 31.25 Q19.55 31.8 21.2 31.9 L21.75 31.9 21.75 32.0 21.55 32.85 22.2 33.3 22.2 33.35 22.75 33.7 22.85 33.75 24.4 34.55 24.7 34.35 25.0 34.15 25.05 34.1 25.4 33.8 25.55 33.7 25.65 33.65 25.7 33.65 26.05 33.45 26.8 32.85 27.2 32.6 28.65 31.55 29.1 31.2 29.3 31.1 29.55 30.85 29.65 30.8 30.05 30.5 30.2 30.4 30.6 30.15 30.85 30.1 31.1 30.0 32.35 29.75 32.6 29.65 32.85 29.6 33.85 29.5 34.35 29.45 34.55 29.45 36.1 29.35 36.2 29.35 36.95 29.35 37.0 30.75 36.4 30.6 33.8 30.35 Q33.25 30.6 32.35 31.1 L30.1 32.3 29.95 32.4 Q28.9 32.9 27.75 33.55 L27.7 33.6 Q27.15 33.8 26.75 34.1 L26.35 34.3 26.15 34.35 26.1 34.35 26.1 34.45 25.85 34.5 25.75 34.55 Q25.5 34.65 25.35 34.8 L24.95 35.0 21.7 36.55 21.55 36.3 21.25 35.9 19.95 36.5 18.7 34.55 17.05 35.4 16.45 35.7 Q15.75 36.05 15.2 36.35" fill="#d4c781" fill-rule="evenodd" stroke="none"/>
      <path d="M36.9 40.65 L36.2 40.7 36.3 39.05 36.4 36.05 34.9 36.25 34.6 35.0 34.35 33.5 32.5 34.0 31.7 34.35 31.65 34.2 31.25 33.85 30.4 33.3 30.2 33.15 29.7 32.95 30.2 32.7 30.9 32.3 32.4 31.7 32.55 31.6 32.85 31.55 34.4 31.05 Q36.3 31.7 37.3 32.3 L37.75 32.6 38.45 33.15 38.55 33.35 38.15 35.05 37.25 37.7 38.7 36.85 36.9 40.65" fill="#505493" fill-rule="evenodd" stroke="none"/>
      <path d="M41.05 52.15 L40.15 53.4 40.5 49.0 40.7 45.2 40.1 45.4 39.45 45.65 39.2 45.7 39.45 42.8 39.6 40.15 37.3 40.55 36.9 40.65 38.7 36.85 39.25 36.4 39.95 35.95 40.45 35.5 41.0 37.2 41.6 39.4 43.7 38.95 41.6 49.9 41.05 52.15" fill="#4e5790" fill-rule="evenodd" stroke="none"/>
      <path d="M46.55 35.15 L47.1 36.15 47.65 37.2 48.65 39.4 47.6 39.35 47.1 39.35 46.95 41.35 46.55 45.55 46.05 44.85 45.4 44.0 44.85 45.35 43.3 48.45 41.05 52.15 41.6 49.9 43.7 38.95 46.4 38.6 46.55 36.3 46.55 36.0 46.55 35.45 46.55 35.15" fill="#4d568f" fill-rule="evenodd" stroke="none"/>
      <path d="M45.0 46.25 L44.95 46.1 46.95 46.85 50.35 48.25 51.2 51.35 51.45 52.4 51.85 54.2 51.25 53.9 49.9 53.05 49.8 53.0 49.25 54.2 48.9 55.0 47.9 48.35 46.9 47.6 45.0 46.25 M53.7 43.45 L53.75 43.25 54.15 42.95 54.15 45.55 53.6 45.3 53.6 44.9 53.7 43.45" fill="#90a1b1" fill-rule="evenodd" stroke="none"/>
      <path d="M51.8 55.4 L51.3 55.4 51.05 55.3 50.4 55.05 49.9 54.85 49.85 55.0 49.85 55.05 49.7 55.4 46.1 55.4 45.85 55.25 46.15 50.55 45.6 48.1 45.05 46.5 47.2 48.75 48.85 55.05 48.9 55.0 49.25 54.2 49.8 53.0 49.9 53.05 51.25 53.9 51.85 54.2 51.95 54.8 51.8 55.4 M54.15 45.55 L54.15 46.4 51.95 45.15 53.7 43.45 53.6 44.9 53.6 45.3 54.15 45.55" fill="#5c687e" fill-rule="evenodd" stroke="none"/>
      <path d="M45.05 46.5 L45.0 46.25 46.9 47.6 47.9 48.35 48.9 55.0 48.85 55.05 47.2 48.75 45.05 46.5 M47.65 48.9 L47.75 48.75 47.6 48.45 47.6 48.35 Q47.35 48.3 47.35 48.6 L47.5 48.8 47.65 48.9" fill="#bfd0de" fill-rule="evenodd" stroke="none"/>
      <path d="M54.15 39.95 L54.15 42.1 53.5 41.25 52.5 41.5 50.6 42.2 51.1 39.6 51.55 37.85 Q52.45 37.25 53.55 36.7 L54.0 39.9 54.15 39.95" fill="#909dad" fill-rule="evenodd" stroke="none"/>
      <path d="M47.65 48.9 L47.5 48.8 47.35 48.6 Q47.35 48.3 47.6 48.35 L47.6 48.45 47.75 48.75 47.65 48.9" fill="#dcebf7" fill-rule="evenodd" stroke="none"/>
      <path d="M25.95 8.65 L26.05 8.6 28.2 10.05 32.45 12.35 34.55 11.65 34.6 11.7 34.55 12.0 33.8 12.35 33.15 12.75 Q33.0 12.75 33.0 12.85 L32.8 13.25 32.25 14.75 32.45 13.45 28.6 10.45 25.95 8.65" fill="#7978bb" fill-rule="evenodd" stroke="none"/>
      <path d="M24.5 9.1 L23.35 8.25 23.0 7.9 21.95 7.05 19.55 4.9 21.6 6.05 21.4 4.6 21.55 4.75 21.6 4.75 25.1 9.2 24.5 9.1 M13.5 0.9 L14.65 2.5 17.05 5.85 15.55 4.95 13.5 3.6 13.5 0.9 M5.65 0.45 L8.5 2.5 10.1 3.85 5.9 2.05 5.35 1.8 5.05 0.95 4.95 0.45 5.65 0.45 M10.85 7.1 L11.65 9.2 13.1 13.5 13.1 13.6 12.45 13.25 10.45 12.15 8.9 11.3 8.15 9.6 7.0 6.45 9.1 6.7 10.85 7.1" fill="#383e6d" fill-rule="evenodd" stroke="none"/>
      <path d="M21.25 9.3 L21.65 9.35 23.1 9.65 23.55 9.75 24.8 10.1 25.25 10.3 25.95 10.6 26.25 9.5 26.3 9.2 28.75 11.55 30.95 14.0 30.95 14.05 27.5 12.85 27.15 12.75 24.55 11.9 24.55 12.3 Q24.55 14.25 25.55 15.3 26.55 16.45 28.2 16.45 L29.6 16.1 30.65 15.3 31.05 14.75 31.1 16.1 31.15 17.35 31.15 17.55 27.15 17.35 23.85 16.7 22.35 17.6 19.95 16.95 19.45 11.35 21.25 9.3 M24.55 11.9 L23.55 11.7 24.55 11.9" fill="#ffc312" fill-rule="evenodd" stroke="none"/>
      <path d="M31.15 17.55 L31.15 18.75 31.1 18.7 30.65 18.4 30.2 18.2 Q29.3 18.45 28.35 18.9 L26.45 19.6 25.45 20.05 23.6 20.9 Q23.6 20.45 23.75 20.0 L23.8 19.3 23.8 19.05 17.95 20.8 18.4 16.85 18.4 16.45 18.4 16.2 18.5 14.9 16.45 15.3 15.35 15.6 15.75 14.95 16.8 13.45 18.6 11.3 17.95 9.0 20.0 9.2 21.25 9.3 19.45 11.35 19.95 16.95 22.35 17.6 23.85 16.7 27.15 17.35 31.15 17.55" fill="#d08615" fill-rule="evenodd" stroke="none"/>
      <path d="M29.6 16.1 L28.2 16.45 Q26.55 16.45 25.55 15.3 24.55 14.25 24.55 12.3 L24.55 11.9 27.15 12.75 27.5 12.85 Q27.1 13.05 26.75 13.35 L26.65 13.4 26.15 13.1 25.95 13.1 25.85 13.1 25.7 13.25 25.65 13.65 Q25.65 14.2 26.2 14.3 L26.2 14.35 Q26.2 15.15 27.4 15.65 L29.6 16.1" fill="#2fbeea" fill-rule="evenodd" stroke="none"/>
      <path d="M31.05 14.05 L31.25 14.2 31.2 14.3 31.05 14.75 30.65 15.3 29.6 16.1 27.4 15.65 Q26.2 15.15 26.2 14.35 L26.2 14.3 26.6 14.05 26.75 13.7 26.65 13.4 26.75 13.35 Q27.1 13.05 27.5 12.85 L30.95 14.05 31.05 14.05 M29.4 15.1 L29.55 14.85 Q29.55 14.45 28.6 14.1 L27.7 13.7 Q27.2 13.7 27.0 13.95 L26.95 13.95 Q26.6 14.2 26.6 14.45 26.6 14.9 27.3 15.15 L28.35 15.3 28.75 15.3 29.4 15.1" fill="#25e4f7" fill-rule="evenodd" stroke="none"/>
      <path d="M26.2 14.3 Q25.65 14.2 25.65 13.65 L25.7 13.25 25.85 13.1 25.95 13.1 26.15 13.1 26.65 13.4 26.75 13.7 26.6 14.05 26.2 14.3" fill="#d4fdff" fill-rule="evenodd" stroke="none"/>
      <path d="M29.4 15.1 L28.75 15.3 28.35 15.3 27.3 15.15 Q26.6 14.9 26.6 14.45 26.6 14.2 26.95 13.95 L27.0 13.95 Q27.2 13.7 27.7 13.7 L28.6 14.1 Q29.55 14.45 29.55 14.85 L29.4 15.1" fill="#36e0ff" fill-rule="evenodd" stroke="none"/>
      <path d="M6.0 3.85 Q8.7 5.0 10.5 6.25 L10.85 7.1 9.1 6.7 7.0 6.45 6.0 3.85" fill="#51588f" fill-rule="evenodd" stroke="none"/>
      <path d="M15.4 24.7 L15.85 24.5 16.45 24.2 15.7 25.35 15.4 24.7 M-2.35 46.7 L-2.35 45.8 -1.85 46.55 -2.35 46.7 M9.0 11.55 L9.1 11.55 9.1 11.65 9.4 12.2 9.6 12.7 11.05 16.1 Q10.05 14.0 9.2 11.9 L9.0 11.55 M10.55 43.8 L10.7 43.7 10.5 43.95 10.55 43.8" fill="#2e406d" fill-rule="evenodd" stroke="none"/>
      <path d="M7.0 6.45 L6.35 6.4 6.75 7.15 7.7 9.45 6.4 9.1 4.65 8.1 4.6 9.5 4.6 9.6 4.5 9.45 -0.25 4.8 -0.75 4.2 -0.8 4.05 -1.1 2.3 -0.4 2.55 -1.1 2.05 -1.15 1.65 0.7 1.65 Q3.65 2.7 6.0 3.85 L7.0 6.45" fill="#4d5890" fill-rule="evenodd" stroke="none"/>
      <path d="M0.7 1.65 L-1.15 1.65 -1.25 0.9 -1.0 1.0 0.7 1.65 M-1.1 2.05 L-0.4 2.55 -1.1 2.3 -1.1 2.05" fill="#7a86c4" fill-rule="evenodd" stroke="none"/>
      <path d="M-2.35 2.65 L-2.35 2.15 -0.8 4.05 -0.75 4.2 -0.9 4.05 -1.25 3.75 -2.35 2.65 M-2.35 1.8 L-2.35 0.55 -1.25 0.9 -1.15 1.65 -1.65 1.65 -1.1 2.05 -1.1 2.3 -2.35 1.8" fill="#5f8fb6" fill-rule="evenodd" stroke="none"/>
      <path d="M19.65 55.4 L5.25 55.4 4.7 54.8 4.7 54.75 4.55 54.0 4.1 52.25 3.9 51.55 2.55 45.75 1.85 42.6 1.65 41.55 1.75 41.35 3.0 38.7 5.55 33.15 6.5 36.85 7.1 38.95 7.55 40.45 7.0 41.5 6.4 42.75 5.8 44.3 7.7 42.8 8.05 42.5 8.1 42.5 8.3 42.85 8.55 43.8 9.5 46.55 9.9 47.6 13.65 48.3 14.7 48.45 16.15 48.75 16.4 50.0 16.95 49.1 17.05 48.85 17.1 48.65 18.05 47.05 18.65 46.1 21.55 48.85 22.15 45.4 Q23.05 40.9 24.1 39.9 L25.5 41.0 25.5 41.15 25.55 41.35 23.75 40.7 24.1 42.2 24.7 44.1 25.5 45.65 25.65 45.8 24.95 46.1 23.55 46.5 24.15 47.0 Q25.05 47.7 26.3 48.25 L28.4 48.9 Q26.05 50.2 22.65 51.3 L21.3 51.8 Q20.9 51.9 20.35 52.1 L20.3 52.2 19.7 54.85 19.65 55.4 M-2.35 27.45 L-2.35 25.6 -2.05 23.75 -1.8 22.5 -1.55 21.45 -1.35 20.3 0.0 22.0 -1.35 25.25 -1.6 25.95 -2.35 27.45 M-2.35 14.05 L-2.35 13.9 -1.1 9.5 -2.35 8.05 -2.35 4.1 -2.3 4.1 -0.35 7.1 -0.3 7.15 -0.3 7.25 0.35 10.45 1.05 14.0 0.95 16.6 1.7 17.05 2.25 19.5 1.9 19.3 -0.7 17.85 -0.45 14.95 -0.4 13.1 -2.35 14.05 M3.3 24.05 L3.8 26.0 1.9 26.5 2.25 26.0 3.15 24.25 3.3 24.05 M4.3 28.3 L5.1 31.65 4.5 31.85 3.45 32.05 3.0 33.45 2.6 34.8 1.7 38.55 1.25 40.1 0.95 38.5 0.55 36.65 0.5 36.05 0.45 36.0 0.2 34.5 -0.05 33.25 -0.05 32.95 -0.35 31.9 0.5 31.25 0.45 32.75 0.45 33.6 0.5 36.0 1.5 32.3 1.8 31.35 2.35 29.9 2.65 29.55 4.3 28.3 M2.75 21.8 L2.85 22.35 2.45 22.15 2.75 21.8 M5.7 41.45 Q5.8 40.95 6.05 40.4 L4.4 40.5 4.3 40.5 4.15 41.35 4.15 41.4 4.1 42.7 4.05 44.85 4.05 46.0 4.4 49.25 4.4 49.45 4.75 46.05 4.9 45.2 5.4 42.7 5.7 41.45" fill="#264a66" fill-rule="evenodd" stroke="none"/>
      <path d="M-0.3 7.15 L-0.05 7.3 0.85 8.85 0.85 8.9 1.05 13.9 1.05 14.0 0.35 10.45 -0.3 7.25 -0.3 7.15 M1.7 17.05 L2.3 17.45 5.2 19.2 5.65 19.4 6.3 19.8 7.4 20.15 9.55 20.45 5.35 23.4 7.9 23.5 7.95 23.5 10.45 23.35 11.5 23.2 11.3 23.5 10.75 24.35 9.0 26.35 8.15 27.15 9.55 26.4 13.75 24.05 13.45 25.45 15.4 24.7 15.7 25.35 14.5 26.8 12.1 28.8 8.55 31.3 9.15 31.25 10.65 31.2 10.3 31.9 9.9 32.85 12.85 32.7 Q10.9 34.6 8.3 38.95 L8.25 39.15 7.55 40.45 7.1 38.95 6.5 36.85 5.55 33.15 6.4 31.25 5.1 31.65 4.3 28.3 6.9 26.25 6.9 25.85 6.85 25.35 6.8 25.15 3.8 26.0 3.3 24.05 3.5 23.65 4.1 22.5 3.25 22.4 2.85 22.35 2.75 21.8 3.95 20.4 2.25 19.5 1.7 17.05 M8.1 42.5 L9.3 41.65 10.65 40.55 11.5 39.95 11.05 41.75 10.9 42.25 10.75 43.05 10.55 43.8 10.5 43.95 10.7 43.7 11.25 43.25 11.6 43.1 13.55 41.75 15.45 40.45 15.45 41.05 15.45 41.65 15.45 43.45 15.5 44.2 16.0 47.9 16.05 47.95 16.15 48.75 14.7 48.45 13.65 48.3 9.9 47.6 9.5 46.55 8.55 43.8 8.3 42.85 8.1 42.5" fill="#2a3c5d" fill-rule="evenodd" stroke="none"/>
      <path d="M7.4 20.15 L6.8 19.45 Q7.45 19.4 7.85 19.0 8.35 18.4 8.35 17.45 8.35 16.05 7.1 15.15 6.1 14.4 5.0 14.4 L4.4 14.5 3.8 14.8 3.75 14.95 3.65 15.05 3.65 14.85 3.45 13.65 3.1 11.9 3.25 11.2 Q4.5 11.75 5.65 12.5 L7.15 13.45 9.3 15.35 9.9 17.55 10.0 18.1 10.4 19.55 10.45 19.95 9.55 20.45 7.4 20.15" fill="#918253" fill-rule="evenodd" stroke="none"/>
      <path d="M6.8 19.45 L5.35 17.75 Q4.65 16.95 3.75 14.95 L3.8 14.8 4.4 14.5 5.0 14.4 Q6.1 14.4 7.1 15.15 8.35 16.05 8.35 17.45 8.35 18.4 7.85 19.0 7.45 19.4 6.8 19.45" fill="#cdb97a" fill-rule="evenodd" stroke="none"/>
      <path d="M-2.35 31.95 L-2.35 30.85 -0.75 29.3 0.5 28.05 -0.7 29.65 -2.35 31.95 M-2.35 25.6 L-2.35 22.65 -2.1 19.55 -2.05 19.25 -1.55 21.45 -1.8 22.5 -2.05 23.75 -2.35 25.6" fill="#5993c2" fill-rule="evenodd" stroke="none"/>
      <path d="M12.4 18.9 L13.85 21.7 12.4 20.85 10.7 19.8 11.85 19.0 11.85 18.9 12.4 18.9 M2.85 22.35 L3.25 22.4 4.1 22.5 3.5 23.65 3.3 24.05 3.25 23.7 3.1 23.2 2.85 22.35 M3.8 26.0 L6.8 25.15 6.85 25.35 6.9 25.85 6.9 26.25 4.3 28.3 3.8 26.1 3.8 26.0 M5.1 31.65 L6.4 31.25 5.55 33.15 5.1 31.65 M2.75 21.8 L2.25 19.5 3.95 20.4 2.75 21.8" fill="#485f8b" fill-rule="evenodd" stroke="none"/>
      <path d="M13.85 21.7 L14.6 23.3 15.4 24.7 13.45 25.45 13.75 24.05 9.55 26.4 8.15 27.15 9.0 26.35 10.75 24.35 11.3 23.5 11.5 23.2 10.45 23.35 7.95 23.5 7.9 23.5 5.35 23.4 9.55 20.45 10.45 19.95 10.7 19.8 12.4 20.85 13.85 21.7 M15.7 25.35 L16.55 26.95 17.75 29.15 15.9 32.5 16.35 32.45 16.75 32.4 16.55 32.85 15.7 35.0 15.2 36.35 15.05 36.75 17.05 35.8 17.55 36.4 18.05 37.05 19.35 38.3 21.15 39.55 Q21.6 38.7 22.75 37.7 L23.7 36.85 Q24.3 36.3 25.35 35.7 L25.55 35.5 25.8 36.05 25.7 36.3 Q25.45 37.75 25.45 39.65 L25.5 41.0 24.1 39.9 Q23.05 40.9 22.15 45.4 L21.55 48.85 18.65 46.1 18.05 47.05 17.1 48.65 17.05 48.85 16.95 49.1 16.4 50.0 16.15 48.75 16.05 47.95 16.0 47.9 15.5 44.2 15.45 43.45 15.45 41.65 15.45 41.05 15.45 40.45 13.55 41.75 11.6 43.1 11.25 43.25 10.7 43.7 10.55 43.8 10.75 43.05 10.9 42.25 11.05 41.75 11.5 39.95 10.65 40.55 9.3 41.65 8.1 42.5 8.05 42.5 7.7 42.8 5.8 44.3 6.4 42.75 7.0 41.5 7.55 40.45 8.25 39.15 8.3 38.95 Q10.9 34.6 12.85 32.7 L9.9 32.85 10.3 31.9 10.65 31.2 9.15 31.25 8.55 31.3 12.1 28.8 14.5 26.8 15.7 25.35 M12.4 18.9 L11.85 18.9 11.05 16.1 12.4 18.9" fill="#304266" fill-rule="evenodd" stroke="none"/>
      <path d="M-2.35 45.8 L-2.35 32.1 -2.05 31.9 -1.4 32.7 -0.35 31.9 -0.05 32.95 -0.05 33.25 0.2 34.5 0.45 36.0 0.5 36.05 0.55 36.65 0.95 38.5 1.25 40.1 1.05 41.35 0.8 42.6 0.8 42.65 0.55 43.8 1.1 42.6 1.65 41.55 1.85 42.6 2.55 45.75 3.9 51.55 4.1 52.25 4.55 54.0 4.7 54.75 4.7 54.8 4.1 54.15 3.05 53.0 2.75 52.65 2.55 52.4 -0.55 48.35 -1.85 46.55 -2.35 45.8" fill="#2b536b" fill-rule="evenodd" stroke="none"/>
      <path d="M-2.35 55.05 L-2.35 53.65 -0.15 53.4 -0.8 52.65 0.15 52.55 2.55 52.4 0.15 52.55 -0.8 52.65 -2.35 52.75 -2.35 51.35 -1.95 51.25 -2.35 50.65 -2.35 46.7 -1.85 46.55 -0.55 48.35 2.55 52.4 2.75 52.65 3.05 53.0 4.1 54.15 0.9 54.65 -0.35 54.8 -2.35 55.05" fill="#135c77" fill-rule="evenodd" stroke="none"/>
      <path d="M32.35 29.75 L32.3 29.45 32.25 28.5 32.25 28.25 32.25 28.05 32.35 27.9 32.7 28.2 32.7 28.25 33.35 29.0 33.75 29.4 33.85 29.5 32.85 29.6 32.6 29.65 32.35 29.75" fill="#dfffff" fill-rule="evenodd" stroke="none"/>
      <path d="M25.85 29.5 L26.6 29.75 28.05 30.5 28.35 30.75 28.5 30.8 28.75 31.0 29.1 31.2 28.65 31.55 27.2 32.6 26.85 31.6 26.75 31.45 25.85 29.5" fill="#dcf9ff" fill-rule="evenodd" stroke="none"/>
      <path d="M26.85 34.65 L31.6 38.5 29.05 38.8 29.55 39.35 29.85 39.65 27.0 40.95 27.0 42.7 25.8 43.1 25.45 43.15 26.3 45.55 29.5 47.7 30.0 48.0 30.2 48.1 30.3 48.2 30.9 48.65 32.5 49.6 31.15 49.85 31.1 49.85 30.95 49.85 28.1 50.5 28.05 51.7 27.95 54.0 28.0 55.4 19.65 55.4 19.7 54.85 20.3 52.2 20.35 52.1 Q20.9 51.9 21.3 51.8 L22.65 51.3 Q26.05 50.2 28.4 48.9 L26.3 48.25 Q25.05 47.7 24.15 47.0 L23.55 46.5 24.95 46.1 25.65 45.8 25.5 45.65 24.7 44.1 24.1 42.2 23.75 40.7 25.55 41.35 25.5 41.15 25.5 41.0 25.45 39.65 Q25.45 37.75 25.7 36.3 L25.8 36.05 25.55 35.5 25.7 35.45 25.8 35.35 25.85 35.3 26.1 35.2 26.85 34.7 26.85 34.65 M25.55 33.6 L25.65 33.65 25.55 33.7 25.4 33.8 25.05 34.1 25.0 34.15 25.0 34.0 25.0 33.15 25.55 33.6 M25.8 35.35 L25.8 35.65 25.85 35.3 25.8 35.65 25.8 35.35" fill="#616383" fill-rule="evenodd" stroke="none"/>
      <path d="M25.1 30.35 L25.0 32.15 25.0 32.45 25.0 32.6 24.95 32.5 24.85 32.45 24.5 31.3 24.25 30.75 Q24.7 30.5 25.1 30.35 M23.45 31.95 L23.8 32.15 24.15 32.45 24.25 32.5 24.55 32.7 24.6 32.8 25.0 33.1 25.0 33.15 25.0 34.0 25.0 34.15 24.7 34.35 24.4 33.8 24.0 32.95 23.45 31.95" fill="#daf3ff" fill-rule="evenodd" stroke="none"/>
      <path d="M25.0 32.6 L25.55 33.0 25.55 33.6 25.2 33.3 25.0 33.1 25.0 32.85 25.0 32.6" fill="#170408" fill-rule="evenodd" stroke="none"/>
      <path d="M29.85 39.65 L30.05 39.9 29.6 41.15 29.45 41.65 32.8 43.35 31.7 46.6 33.75 49.45 32.5 49.6 30.9 48.65 30.3 48.2 30.2 48.1 30.0 48.0 29.5 47.7 26.3 45.55 25.45 43.15 25.8 43.1 27.0 42.7 27.0 40.95 29.85 39.65" fill="#84869f" fill-rule="evenodd" stroke="none"/>
      <path d="M37.15 55.4 L37.5 54.5 38.9 50.8 39.35 53.55 39.35 53.9 39.5 55.4 37.15 55.4 M35.25 55.35 L35.3 55.4 34.3 55.4 34.5 54.85 35.25 55.35" fill="#18585d" fill-rule="evenodd" stroke="none"/>
      <path d="M31.1 49.85 L32.25 52.4 30.0 51.55 29.9 53.9 29.85 55.4 28.0 55.4 27.95 54.0 28.05 51.7 28.1 50.5 30.95 49.85 31.1 49.85" fill="#5e6580" fill-rule="evenodd" stroke="none"/>
      <path d="M32.25 52.4 L33.55 55.4 29.85 55.4 29.9 53.9 30.0 51.55 32.25 52.4" fill="#81879f" fill-rule="evenodd" stroke="none"/>
      <path d="M50.1 55.4 L49.7 55.4 49.85 55.05 50.1 55.4 M46.1 55.4 L45.45 55.4 45.4 55.25 45.3 54.85 45.7 55.1 45.85 55.25 46.1 55.4" fill="#273d64" fill-rule="evenodd" stroke="none"/>
      <path d="M45.45 55.4 L45.2 55.4 44.95 54.95 44.85 54.65 44.85 54.6 45.3 54.85 45.4 55.25 45.45 55.4" fill="#2a3d64" fill-rule="evenodd" stroke="none"/>
      <path d="M5.25 55.4 L1.55 55.4 0.9 54.65 4.1 54.15 4.7 54.8 5.25 55.4" fill="#b86a0b" fill-rule="evenodd" stroke="none"/>
      <path d="M-2.35 53.65 L-2.35 52.75 -0.8 52.65 -0.15 53.4 -2.35 53.65 M-2.35 51.35 L-2.35 50.65 -1.95 51.25 -2.35 51.35" fill="#1e84aa" fill-rule="evenodd" stroke="none"/>
      <path d="M1.55 55.4 L-2.35 55.4 -2.35 55.05 -0.35 54.8 0.9 54.65 1.55 55.4" fill="#d99212" fill-rule="evenodd" stroke="none"/>
      <path d="M43.15 55.3 L43.15 55.4 43.0 55.4 43.1 55.3 43.15 55.3" fill="#334872" fill-rule="evenodd" stroke="none"/>
      <path d="M54.15 53.75 L54.15 55.4 51.8 55.4 51.95 54.8 52.6 52.65 54.15 53.75 M51.3 55.4 L50.1 55.4 49.85 55.05 49.85 55.0 49.9 54.85 50.4 55.05 51.05 55.3 51.3 55.4" fill="#396785" fill-rule="evenodd" stroke="none"/>
      <path d="M51.2 51.35 Q52.45 50.75 54.15 50.0 L54.15 53.75 52.6 52.65 51.95 54.8 51.85 54.2 51.45 52.4 51.2 51.35" fill="#ab8791" fill-rule="evenodd" stroke="none"/>
      <path d="M45.2 55.4 L44.05 55.4 44.0 55.35 43.25 54.5 42.15 53.3 43.5 53.95 44.6 54.7 44.95 54.95 45.2 55.4" fill="#a31c81" fill-rule="evenodd" stroke="none"/>
      <path d="M43.55 53.85 L44.85 54.65 44.95 54.95 44.6 54.7 43.5 53.95 43.55 53.85" fill="#d737af" fill-rule="evenodd" stroke="none"/>
      <path d="M45.05 46.5 L45.0 46.25 44.95 46.1 46.95 46.85 50.35 48.25 51.2 51.35 Q52.45 50.75 54.15 50.0 M44.85 54.65 L44.85 54.6 45.3 54.85 45.7 55.1 45.85 55.25 46.15 50.55 45.6 48.1 45.05 46.5 M53.7 43.45 L53.75 43.25 54.15 42.95 M54.15 46.4 L51.95 45.15 53.7 43.45 M37.15 55.4 L37.5 54.5 38.9 50.8 39.35 53.55 39.35 53.9 39.5 55.4 M35.25 55.35 L34.5 54.85 34.3 55.4 M51.85 54.2 L51.45 52.4 51.2 51.35 M54.15 53.75 L52.6 52.65 51.95 54.8 51.8 55.4 M51.3 55.4 L51.05 55.3 50.4 55.05 49.9 54.85 49.85 55.0 49.85 55.05 49.7 55.4 M51.95 54.8 L51.85 54.2 M46.1 55.4 L45.85 55.25 M43.15 55.3 L43.15 55.4 M43.0 55.4 L43.1 55.3 43.15 55.25 43.15 55.3 M44.95 54.95 L44.85 54.65 M45.2 55.4 L44.95 54.95" fill="none" stroke="#170d42" stroke-linecap="round" stroke-linejoin="round" stroke-width="0.5"/>
      <path d="M50.2 23.45 L49.8 23.0 49.15 22.4 49.15 20.95 Q47.5 21.15 46.6 21.6 L45.45 19.5 44.95 18.7 43.55 16.35 45.75 15.4 46.45 15.2 44.75 14.1 43.5 13.35 42.8 13.65 39.35 15.65 Q39.2 15.7 39.05 15.85 L38.95 15.6 38.9 15.25 38.7 14.75 38.65 14.75 37.25 15.3 Q36.2 15.9 35.6 16.1 L35.6 16.05 35.45 14.75 35.4 14.5 35.35 14.2 34.8 14.35 Q34.0 14.5 33.55 14.75 L33.7 14.45 34.1 13.2 34.55 12.0 34.6 11.7 34.55 11.65 Q32.2 10.15 26.85 7.4 L21.6 4.75 21.55 4.75 21.4 4.6 21.6 6.05 19.55 4.9 18.05 3.95 13.5 0.9 13.5 3.6 13.5 3.75 7.9 0.45 M48.1 29.15 L49.1 26.4 49.45 25.35 49.5 25.25 50.2 23.45 50.75 24.05 51.1 23.2 52.9 19.2 51.2 17.6 50.35 16.8 47.5 14.8 47.35 14.85 46.45 15.2 M48.1 29.15 L47.85 29.65 46.1 30.4 44.95 30.95 44.65 31.05 44.9 31.1 46.55 31.9 46.55 34.65 46.55 34.95 46.55 35.0 46.55 35.15 47.1 36.15 47.65 37.2 48.65 39.4 47.6 39.35 47.1 39.35 46.95 41.35 46.55 45.55 46.05 44.85 45.4 44.0 44.85 45.35 43.3 48.45 41.05 52.15 40.15 53.4 40.5 49.0 40.7 45.2 40.1 45.4 39.45 45.65 39.2 45.7 39.45 42.8 39.6 40.15 37.3 40.55 36.9 40.65 36.2 40.7 36.3 39.05 36.4 36.05 34.9 36.25 34.6 35.0 34.35 33.5 32.5 34.0 31.7 34.35 31.65 34.2 31.25 33.85 30.4 33.3 30.2 33.15 29.7 32.95 29.65 33.0 28.35 33.75 27.95 34.0 Q27.6 34.2 27.4 34.35 L27.3 34.35 27.15 34.5 27.0 34.6 26.85 34.65 26.85 34.7 26.1 35.2 25.85 35.3 25.8 35.65 25.8 35.35 25.7 35.45 25.55 35.5 25.35 35.7 Q24.3 36.3 23.7 36.85 L22.75 37.7 Q21.6 38.7 21.15 39.55 L19.35 38.3 18.05 37.05 17.55 36.4 M44.0 31.2 L43.45 30.8 41.8 29.45 Q40.85 28.75 39.9 28.2 L39.75 28.05 39.35 27.8 39.15 27.7 Q37.9 26.9 36.9 26.4 L37.1 27.05 37.3 27.7 37.3 27.75 37.5 28.3 37.8 29.4 38.3 31.0 38.7 32.65 38.55 33.3 38.55 33.35 38.15 35.05 37.25 37.7 38.7 36.85 39.25 36.4 39.95 35.95 40.45 35.5 41.0 37.2 41.6 39.4 43.7 38.95 46.4 38.6 46.55 36.3 46.55 36.0 46.55 35.45 46.55 35.15 M43.35 32.95 L43.35 32.9 43.75 31.25 44.0 31.2 44.65 31.05 M43.35 32.95 L43.3 33.25 41.55 34.65 40.45 35.5 M25.5 41.0 L25.45 39.65 Q25.45 37.75 25.7 36.3 L25.8 36.05 M4.7 54.8 L5.25 55.4 M34.55 29.45 L36.1 29.35 36.2 29.35 36.95 29.35 37.4 29.4 37.8 29.4 M36.9 26.4 L36.1 26.0 35.35 25.75 32.85 26.1 32.4 26.2 31.55 26.3 31.45 26.3 28.9 26.85 28.6 26.9 26.55 27.45 Q26.4 27.55 26.2 27.6 L25.45 27.75 23.6 28.4 22.65 28.75 22.5 29.4 22.25 29.95 22.2 30.2 22.05 30.7 22.0 30.85 21.75 31.9 21.75 32.0 21.55 32.85 22.2 33.3 22.2 33.35 22.75 33.7 22.85 33.75 24.4 34.55 24.7 34.35 25.0 34.15 25.05 34.1 25.4 33.8 25.55 33.7 25.65 33.65 25.7 33.65 26.05 33.45 26.8 32.85 27.2 32.6 28.65 31.55 29.1 31.2 29.3 31.1 29.55 30.85 29.65 30.8 30.05 30.5 30.2 30.4 30.6 30.15 30.85 30.1 31.1 30.0 32.35 29.75 32.6 29.65 32.85 29.6 33.85 29.5 34.35 29.45 34.55 29.45 M29.7 32.95 L30.2 32.7 30.9 32.3 32.4 31.7 32.55 31.6 32.85 31.55 34.4 31.05 Q36.3 31.7 37.3 32.3 L37.75 32.6 38.45 33.15 38.55 33.35 M25.8 35.35 L25.85 35.3 26.85 34.65 M19.65 55.4 L19.7 54.85 20.3 52.2 20.35 52.1 Q20.9 51.9 21.3 51.8 L22.65 51.3 Q26.05 50.2 28.4 48.9 L26.3 48.25 Q25.05 47.7 24.15 47.0 L23.55 46.5 24.95 46.1 25.65 45.8 25.5 45.65 24.7 44.1 24.1 42.2 23.75 40.7 25.55 41.35 25.5 41.15 25.5 41.0 M-1.85 46.55 L-0.55 48.35 2.55 52.4 2.75 52.65 3.05 53.0 4.1 54.15 4.7 54.8 M-1.85 46.55 L-2.35 45.8" fill="none" stroke="#1d0f33" stroke-linecap="round" stroke-linejoin="round" stroke-width="0.5"/>
      <path d="M6.0 3.85 Q8.7 5.0 10.5 6.25 L10.85 7.1 11.65 9.2 13.1 13.5 M-0.3 7.15 L-0.05 7.3 0.85 8.85 0.85 8.9 1.05 13.9 1.05 14.0 0.95 16.6 1.7 17.05 2.3 17.45 5.2 19.2 5.65 19.4 6.3 19.8 7.4 20.15 9.55 20.45 M6.0 3.85 Q3.65 2.7 0.7 1.65 L-1.0 1.0 -1.25 0.9 -2.35 0.55 M-0.3 7.15 L-0.35 7.1 -2.3 4.1" fill="none" stroke="#131641" stroke-linecap="round" stroke-linejoin="round" stroke-width="0.5"/>
      <path d="M44.05 55.4 L44.0 55.35 43.25 54.5 42.15 53.3 41.75 52.9 43.55 53.85 44.85 54.65" fill="none" stroke="#461316" stroke-linecap="round" stroke-linejoin="round" stroke-width="0.5"/>
      <path d="M53.55 36.7 L54.15 36.35 M54.15 42.1 L53.5 41.25 52.5 41.5 50.6 42.2 51.1 39.6 51.55 37.85 Q52.45 37.25 53.55 36.7" fill="none" stroke="#58324b" stroke-linecap="round" stroke-linejoin="round" stroke-width="0.5"/>
      <path d="M21.25 9.3 L21.65 9.35 23.1 9.65 23.55 9.75 24.8 10.1 25.25 10.3 25.95 10.6 26.25 9.5 26.3 9.2 28.75 11.55 30.95 14.0 31.05 14.05 M31.05 14.75 L31.1 16.1 31.15 17.35 31.15 17.55 31.15 18.75 31.1 18.7 30.65 18.4 30.2 18.2 Q29.3 18.45 28.35 18.9 L26.45 19.6 25.45 20.05 23.6 20.9 Q23.6 20.45 23.75 20.0 L23.8 19.3 23.8 19.05 17.95 20.8 18.4 16.85 18.4 16.45 18.4 16.2 18.5 14.9 16.45 15.3 15.35 15.6 15.75 14.95 16.8 13.45 18.6 11.3 17.95 9.0 20.0 9.2 21.25 9.3 M30.95 14.05 L30.95 14.0" fill="none" stroke="#33184b" stroke-linecap="round" stroke-linejoin="round" stroke-width="0.5"/>
      <path d="M31.05 14.05 L31.25 14.2 31.2 14.3 31.05 14.75 30.65 15.3 29.6 16.1 28.2 16.45 Q26.55 16.45 25.55 15.3 24.55 14.25 24.55 12.3 L24.55 11.9 27.15 12.75 27.5 12.85 30.95 14.05 31.05 14.05 M23.55 11.7 L24.55 11.9" fill="none" stroke="#3a1326" stroke-linecap="round" stroke-linejoin="round" stroke-width="0.5"/>
      <path d="M15.4 24.7 L15.85 24.5 16.45 24.2 15.7 25.35 14.5 26.8 12.1 28.8 8.55 31.3 9.15 31.25 10.65 31.2 10.3 31.9 9.9 32.85 12.85 32.7 Q10.9 34.6 8.3 38.95 L8.25 39.15 7.55 40.45 7.0 41.5 6.4 42.75 5.8 44.3 7.7 42.8 8.05 42.5 8.1 42.5 9.3 41.65 10.65 40.55 11.5 39.95 11.05 41.75 10.9 42.25 10.75 43.05 10.55 43.8 10.7 43.7 11.25 43.25 11.6 43.1 13.55 41.75 15.45 40.45 15.45 41.05 15.45 41.65 15.45 43.45 15.5 44.2 16.0 47.9 16.05 47.95 16.15 48.75 16.4 50.0 16.95 49.1 17.05 48.85 17.1 48.65 18.05 47.05 18.65 46.1 21.55 48.85 22.15 45.4 Q23.05 40.9 24.1 39.9 M13.1 13.5 L13.35 11.45 13.8 12.15 15.1 14.25 M9.1 11.55 L8.9 11.3 10.45 12.15 12.45 13.25 13.1 13.6 13.1 13.5 M9.4 12.2 L9.1 11.65 M11.05 16.1 L9.6 12.7 9.4 12.2 M10.7 19.8 L10.45 19.95 9.55 20.45 5.35 23.4 7.9 23.5 7.95 23.5 10.45 23.35 11.5 23.2 11.3 23.5 10.75 24.35 9.0 26.35 8.15 27.15 9.55 26.4 13.75 24.05 13.45 25.45 15.4 24.7 M11.85 18.9 L11.85 19.0 10.7 19.8 M11.85 18.9 L11.05 16.1 M10.55 43.8 L10.5 43.95 10.7 43.7" fill="none" stroke="#221948" stroke-linecap="round" stroke-linejoin="round" stroke-width="0.5"/>
      <path d="M9.0 11.55 L9.1 11.55 9.1 11.65 M2.55 52.4 L0.15 52.55 -0.8 52.65 -2.35 52.75 M4.1 54.15 L0.9 54.65 -0.35 54.8 -2.35 55.05 M-2.35 46.7 L-1.85 46.55" fill="none" stroke="#1c1d49" stroke-linecap="round" stroke-linejoin="round" stroke-width="0.5"/>
      <path d="M3.45 13.65 L3.1 11.9 3.25 11.2 Q4.5 11.75 5.65 12.5 L7.15 13.45 9.3 15.35 10.3 16.7" fill="none" stroke="#1f184c" stroke-linecap="round" stroke-linejoin="round" stroke-width="0.5"/>
      <path d="M26.85 34.65 L31.6 38.5 29.05 38.8 29.55 39.35 29.85 39.65 30.05 39.9 29.6 41.15 29.45 41.65 32.8 43.35 31.7 46.6 33.75 49.45 32.5 49.6 31.15 49.85 31.1 49.85 32.25 52.4 33.55 55.4 M25.55 33.6 L25.65 33.65 M25.0 33.15 L25.55 33.6 M28.0 55.4 L27.95 54.0 28.05 51.7 28.1 50.5 30.95 49.85 31.1 49.85" fill="none" stroke="#452f44" stroke-linecap="round" stroke-linejoin="round" stroke-width="0.5"/>
    </g>
    <g id="shape2" transform="matrix(1.0, 0.0, 0.0, 1.0, 0.0, 0.0)">
      <path d="M50.5 0.0 Q53.95 0.0 53.95 3.3 L53.95 50.15 Q53.95 53.4 50.5 53.4 L3.3 53.4 Q0.0 53.4 0.0 50.15 L0.0 3.3 Q0.0 0.0 3.3 0.0 L50.5 0.0" fill="#000000" fill-opacity="0.003921569" fill-rule="evenodd" stroke="none"/>
    </g>
  </defs>
</svg>
