<?xml version="1.0" encoding="UTF-8" standalone="no"?>
<svg xmlns:ffdec="https://www.free-decompiler.com/flash" xmlns:xlink="http://www.w3.org/1999/xlink" ffdec:objectType="frame" height="54.95px" width="55.5px" xmlns="http://www.w3.org/2000/svg">
  <g transform="matrix(1.0, 0.0, 0.0, 1.0, 1.05, 1.1)">
    <clipPath id="clipPath0" transform="matrix(1.0, 0.0, 0.0, 1.0, 0.0, 0.0)">
      <path d="M50.5 0.0 Q53.95 0.0 53.95 3.3 L53.95 50.15 Q53.95 53.4 50.5 53.4 L3.3 53.4 Q0.0 53.4 0.0 50.15 L0.0 3.3 Q0.0 0.0 3.3 0.0 L50.5 0.0" fill="#000000" fill-rule="evenodd" stroke="none"/>
    </clipPath>
    <g clip-path="url(#clipPath0)">
      <use ffdec:characterId="2" height="54.95" transform="matrix(1.0, 0.0, 0.0, 1.0, -1.05, -1.1)" width="55.5" xlink:href="#shape1"/>
    </g>
    <use ffdec:characterId="3" height="53.4" transform="matrix(1.0, 0.0, 0.0, 1.0, 0.0, 0.0)" width="53.95" xlink:href="#shape2"/>
  </g>
  <defs>
    <g id="shape1" transform="matrix(1.0, 0.0, 0.0, 1.0, 1.05, 1.1)">
      <path d="M26.55 36.15 L25.85 36.65 25.4 37.05 25.3 37.1 25.2 37.2 23.55 36.95 22.9 36.85 20.8 36.45 20.6 36.4 20.45 36.35 20.4 36.35 20.2 36.3 19.1 36.05 18.95 35.8 16.65 32.25 14.75 29.05 15.1 28.95 17.55 29.95 17.95 30.0 17.95 30.45 17.8 30.35 17.75 30.35 17.4 30.45 17.35 30.45 Q17.15 30.6 17.15 30.9 17.15 31.45 17.5 31.95 L18.35 32.5 Q18.75 33.55 19.45 34.1 L20.65 34.55 20.75 34.55 21.0 34.55 21.8 34.35 21.85 34.35 Q21.95 34.25 22.15 34.25 22.55 34.25 22.95 34.55 L23.35 34.85 23.55 35.0 23.95 35.7 Q24.35 35.35 25.0 35.35 L25.35 35.35 25.6 35.5 26.35 35.95 26.55 36.15" fill="#cdf70d" fill-rule="evenodd" stroke="none"/>
      <path d="M18.35 32.5 L17.5 31.95 Q17.15 31.45 17.15 30.9 17.15 30.6 17.35 30.45 L17.4 30.45 17.75 30.35 17.8 30.35 17.95 30.45 Q18.3 30.55 18.55 30.8 19.3 31.3 19.3 31.9 19.3 32.45 18.75 32.5 L18.55 32.5 18.35 32.5" fill="#fcfdf7" fill-rule="evenodd" stroke="none"/>
      <path d="M18.2 26.8 L16.6 26.5 15.7 26.4 15.65 26.2 14.7 23.65 14.65 23.6 14.4 22.85 14.0 21.95 15.35 22.9 16.0 23.3 16.55 23.65 16.6 23.75 17.25 24.85 17.7 25.7 18.2 26.8 M30.1 33.0 L28.4 32.05 27.7 31.65 27.55 31.6 27.55 31.55 27.35 30.75 27.3 30.65 27.25 30.4 28.45 31.2 29.15 31.7 29.6 31.95 30.1 33.0" fill="#4b4f34" fill-rule="evenodd" stroke="none"/>
      <path d="M11.35 53.35 L8.7 53.35 9.0 52.85 9.7 52.5 11.35 53.35" fill="#f7d639" fill-rule="evenodd" stroke="none"/>
      <path d="M39.8 47.2 L40.15 49.45 40.15 49.5 40.1 49.65 39.8 49.9 39.3 50.5 37.9 51.7 37.7 51.95 36.0 53.15 35.3 52.9 34.25 52.5 31.8 51.95 31.45 51.9 31.05 51.9 28.6 52.05 28.0 52.2 26.9 52.35 26.35 52.6 26.0 52.75 25.2 53.0 25.15 53.05 23.9 53.3 23.55 53.3 22.55 53.15 Q20.9 52.75 18.8 51.4 L18.5 51.2 16.1 49.15 16.05 48.25 16.05 47.75 16.05 47.25 Q18.15 47.85 19.65 48.85 L20.6 49.0 27.55 50.1 28.65 50.3 30.55 50.45 31.15 50.45 32.5 50.5 35.85 50.25 37.0 50.05 37.45 49.5 37.85 49.05 38.4 48.55 39.25 47.7 39.8 47.2" fill="#a31e1f" fill-rule="evenodd" stroke="none"/>
      <path d="M17.35 53.35 L17.15 53.35 16.65 51.9 17.35 53.35 M11.5 53.35 L11.35 53.35 9.7 52.5 Q13.1 50.6 15.0 48.15 L15.15 48.05 15.35 48.3 15.35 48.35 15.25 48.45 14.35 49.5 Q12.65 51.4 11.5 53.35" fill="#fa8f0d" fill-rule="evenodd" stroke="none"/>
      <path d="M17.15 53.35 L12.85 53.35 Q13.35 51.5 14.35 49.5 L15.25 48.45 15.35 48.35 15.35 48.3 15.15 48.05 15.75 47.15 16.05 47.25 16.05 47.75 16.05 48.25 16.1 49.15 16.1 49.5 16.65 51.9 17.15 53.35" fill="#e83e1a" fill-rule="evenodd" stroke="none"/>
      <path d="M40.15 49.5 Q40.75 51.45 42.1 53.35 L40.6 53.35 40.4 52.95 40.5 53.35 36.55 53.35 36.0 53.15 37.7 51.95 37.9 51.7 39.3 50.5 39.8 49.9 40.1 49.65 40.15 49.5" fill="#fcb920" fill-rule="evenodd" stroke="none"/>
      <path d="M36.55 53.35 L33.65 53.35 32.0 52.75 31.4 52.75 31.2 52.75 27.95 53.35 21.65 53.35 Q20.25 52.75 18.6 51.65 L18.5 51.55 16.1 49.5 16.1 49.15 18.5 51.2 18.8 51.4 Q20.9 52.75 22.55 53.15 L23.55 53.3 23.9 53.3 25.15 53.05 25.2 53.0 26.0 52.75 26.35 52.6 26.9 52.35 28.0 52.2 28.6 52.05 31.05 51.9 31.45 51.9 31.8 51.95 34.25 52.5 35.3 52.9 36.0 53.15 36.55 53.35 M12.85 53.35 L11.5 53.35 Q12.65 51.4 14.35 49.5 13.35 51.5 12.85 53.35" fill="#e76821" fill-rule="evenodd" stroke="none"/>
      <path d="M33.65 53.35 L27.95 53.35 31.2 52.75 31.4 52.75 32.0 52.75 33.65 53.35 M21.65 53.35 L17.35 53.35 16.65 51.9 16.1 49.5 18.5 51.55 18.6 51.65 Q20.25 52.75 21.65 53.35" fill="#e21416" fill-rule="evenodd" stroke="none"/>
      <path d="M40.6 53.35 L40.5 53.35 40.4 52.95 40.6 53.35" fill="#fce53d" fill-rule="evenodd" stroke="none"/>
      <path d="M23.5 -0.6 L23.95 -0.3 23.8 -0.6 24.5 -0.6 24.55 -0.45 24.85 0.5 26.65 0.8 28.85 1.4 30.6 2.1 30.7 2.15 31.15 2.35 31.85 2.65 Q34.15 3.65 35.85 4.75 L36.4 5.1 38.65 6.95 38.65 7.1 38.65 7.3 35.95 5.95 33.0 4.45 32.3 4.05 32.05 3.95 33.4 5.4 33.8 6.05 Q34.55 7.05 35.15 8.4 L35.25 8.75 Q36.75 12.05 36.9 15.7 L37.4 16.5 37.85 17.3 36.95 18.75 37.45 19.3 37.75 19.65 Q39.2 21.25 39.85 22.75 L38.3 22.95 Q36.25 22.95 34.65 21.65 33.25 20.55 31.6 18.2 L31.25 17.75 31.35 17.75 31.0 17.35 30.1 16.45 30.55 16.2 29.8 15.4 28.6 14.2 28.0 13.7 27.35 13.2 25.0 11.7 21.7 8.55 19.45 5.85 19.95 8.75 19.95 9.75 17.2 5.55 14.95 2.2 13.95 0.65 13.5 -0.6 23.5 -0.6 M36.5 -0.6 L37.45 -0.6 40.1 2.35 Q43.0 5.9 45.2 10.55 L45.4 10.95 43.95 10.1 43.9 10.1 42.15 9.0 38.9 3.25 36.5 -0.6 M31.85 5.55 L30.65 3.3 29.95 3.0 Q27.85 2.05 26.45 1.7 L25.1 1.5 26.25 2.85 26.45 3.05 26.2 5.1 29.25 5.55 31.7 6.2 32.2 6.35 31.85 5.55" fill="#ffcf2a" fill-rule="evenodd" stroke="none"/>
      <path d="M45.4 10.95 L47.1 15.05 46.8 15.55 46.8 15.6 45.8 16.9 45.75 16.95 45.3 17.3 44.85 17.0 44.8 16.95 43.9 16.1 43.9 16.05 43.15 14.8 42.95 13.4 42.95 12.8 43.15 11.85 42.75 12.2 42.2 12.7 41.55 13.4 41.35 13.75 Q40.05 14.25 38.35 16.65 L37.85 17.3 37.4 16.5 36.9 15.7 Q36.75 12.05 35.25 8.75 L35.15 8.4 Q34.55 7.05 33.8 6.05 L33.4 5.4 32.05 3.95 32.3 4.05 33.0 4.45 35.95 5.95 38.65 7.3 38.65 7.1 38.65 6.95 37.85 3.5 37.7 2.9 36.5 -0.6 38.9 3.25 42.15 9.0 43.9 10.1 43.95 10.1 45.4 10.95 M31.85 5.55 L32.2 6.35 31.7 6.2 29.25 5.55 26.2 5.1 26.45 3.05 26.25 2.85 25.1 1.5 26.45 1.7 Q27.85 2.05 29.95 3.0 L30.65 3.3 31.85 5.55" fill="#ea852c" fill-rule="evenodd" stroke="none"/>
      <path d="M11.8 3.2 L10.9 2.15 10.45 2.15 10.35 0.95 10.25 0.15 10.15 -0.6 13.5 -0.6 13.95 0.65 14.95 2.2 17.2 5.55 19.95 9.75 19.95 8.75 19.45 5.85 21.7 8.55 25.0 11.7 24.2 11.3 23.75 11.1 23.65 11.1 22.2 10.65 Q21.65 10.4 21.2 10.3 L21.25 10.75 21.35 12.1 21.1 15.05 Q20.9 15.7 20.05 15.75 19.8 13.35 18.6 10.75 L18.0 9.55 16.6 7.25 16.3 6.8 15.35 5.5 13.85 3.65 12.95 2.8 11.8 3.2 M6.55 32.35 L7.95 30.95 7.0 29.1 8.05 29.0 10.05 28.8 10.35 29.5 10.6 29.55 10.9 29.6 12.25 29.9 12.5 30.0 13.3 30.1 13.3 30.15 14.4 33.7 Q15.1 35.45 16.5 37.05 L17.25 37.8 17.5 37.9 17.55 37.9 Q21.55 39.0 24.65 39.1 L24.85 38.9 25.9 38.1 27.1 37.05 28.2 37.75 30.6 39.3 30.55 39.75 30.55 39.9 30.55 39.95 Q30.55 40.95 30.85 42.05 L30.65 42.05 30.35 42.05 23.75 41.55 23.25 41.45 18.85 40.45 18.45 40.4 17.7 39.6 17.4 39.3 14.45 36.35 11.85 34.15 10.35 32.6 10.1 32.2 10.05 32.15 10.0 32.1 10.0 32.05 9.85 32.1 9.25 32.55 9.1 32.6 9.0 32.65 8.6 32.85 6.5 33.15 6.55 32.35 M3.45 23.65 L2.95 22.9 2.25 21.8 Q1.35 20.3 0.75 18.7 L0.55 18.1 1.55 18.3 1.7 18.4 2.35 18.6 3.0 18.95 3.0 19.0 3.3 19.2 3.65 19.6 3.75 19.7 3.9 19.9 3.95 20.05 4.0 20.1 4.1 20.55 4.3 21.4 4.4 21.55 4.4 21.6 4.35 21.9 4.35 22.05 Q4.2 22.95 3.45 23.65 M31.25 17.75 L31.6 18.2 Q33.25 20.55 34.65 21.65 36.25 22.95 38.3 22.95 L39.85 22.75 Q39.2 21.25 37.75 19.65 L37.45 19.3 37.55 19.2 Q38.1 18.9 38.5 18.75 L38.5 18.5 38.5 18.3 38.55 18.2 38.7 17.75 38.85 18.5 40.55 20.0 41.55 21.35 41.65 22.05 41.7 22.2 40.3 24.05 38.75 25.9 37.75 27.0 37.4 27.45 34.95 26.0 32.85 24.75 29.0 22.2 28.8 22.05 28.8 21.8 29.15 20.85 29.4 20.4 Q30.25 18.5 31.25 17.75" fill="#aa1c1a" fill-rule="evenodd" stroke="none"/>
      <path d="M10.45 2.15 L10.3 2.15 9.7 2.1 9.3 2.1 8.5 2.15 8.15 2.2 8.3 1.3 8.25 1.1 8.2 1.1 7.85 -0.6 10.15 -0.6 10.25 0.15 10.35 0.95 10.45 2.15" fill="#e9532e" fill-rule="evenodd" stroke="none"/>
      <path d="M23.5 -0.6 L23.8 -0.6 23.95 -0.3 23.5 -0.6 M44.5 42.7 L41.0 45.95 40.95 46.0 39.8 47.2 39.25 47.7 38.4 48.55 36.8 47.45 35.45 46.15 34.4 44.9 35.25 45.55 35.65 45.85 36.9 46.25 37.55 46.15 38.6 45.35 39.0 45.05 39.9 44.45 41.15 43.45 42.95 42.05 44.25 40.75 44.5 42.7 M33.8 44.4 L33.9 44.45 33.5 44.55 33.4 44.55 32.15 44.9 32.1 44.85 32.15 44.8 32.45 44.7 33.35 44.4 33.8 44.4" fill="#efea58" fill-rule="evenodd" stroke="none"/>
      <path d="M35.85 4.75 L35.85 4.6 Q35.85 2.5 35.25 -0.6 L36.5 -0.6 37.7 2.9 37.85 3.5 38.65 6.95 36.4 5.1 35.85 4.75 M37.45 19.3 L36.95 18.75 37.85 17.3 38.35 16.65 Q40.05 14.25 41.35 13.75 L41.25 13.85 40.8 14.25 Q39.45 15.7 38.7 17.75 L38.55 18.2 38.5 18.3 38.5 18.5 38.5 18.75 Q38.1 18.9 37.55 19.2 L37.45 19.3" fill="#e41b13" fill-rule="evenodd" stroke="none"/>
      <path d="M17.7 17.15 Q16.85 16.2 16.3 14.65 L15.85 13.35 15.65 12.55 15.6 12.2 15.55 12.1 15.2 10.05 15.1 8.95 15.05 8.85 15.0 7.35 15.0 7.15 14.9 7.0 14.6 6.65 13.6 5.3 12.95 4.55 12.35 3.8 12.0 3.45 11.85 3.25 11.8 3.2 12.95 2.8 13.85 3.65 15.35 5.5 16.3 6.8 16.6 7.25 18.0 9.55 18.6 10.75 Q19.8 13.35 20.05 15.75 20.9 15.7 21.1 15.05 L21.35 12.1 21.25 10.75 21.2 10.3 Q21.65 10.4 22.2 10.65 L21.85 10.55 22.75 12.1 22.75 12.15 22.8 12.15 22.85 12.4 23.6 14.05 24.1 15.7 24.35 17.6 24.3 18.0 23.8 18.4 23.6 18.5 23.45 18.55 22.05 19.1 21.7 19.15 20.5 19.0 19.5 18.65 19.0 18.4 18.8 18.25 18.65 18.15 18.15 17.7 18.05 17.6 17.7 17.15 M45.8 30.15 Q45.15 32.1 45.1 33.7 L45.05 34.4 45.1 35.4 44.7 35.95 42.95 37.6 42.75 37.75 40.85 37.45 38.5 39.95 37.6 40.05 35.75 40.15 35.3 40.15 31.5 39.9 31.05 39.6 31.05 39.3 31.0 38.95 31.0 38.85 30.65 38.7 30.6 39.3 28.2 37.75 27.1 37.05 25.9 38.1 24.85 38.9 24.65 39.1 Q21.55 39.0 17.55 37.9 L17.5 37.9 17.25 37.8 16.5 37.05 Q15.1 35.45 14.4 33.7 L13.3 30.15 13.3 30.1 12.5 30.0 12.25 29.9 10.9 29.6 10.6 29.55 10.35 29.5 10.05 28.8 10.9 28.7 12.3 28.6 12.65 28.55 12.7 28.55 14.8 28.4 14.85 28.4 15.6 28.35 15.8 28.35 15.85 28.35 16.2 28.4 15.1 28.95 14.75 29.05 16.65 32.25 18.95 35.8 19.1 36.05 20.2 36.3 20.4 36.35 20.45 36.35 20.6 36.4 20.8 36.45 22.9 36.85 23.55 36.95 25.2 37.2 25.3 37.1 25.4 37.05 25.85 36.65 26.55 36.15 27.6 35.2 28.5 34.4 28.7 34.6 Q28.8 34.6 28.95 34.75 L29.05 34.85 29.15 34.95 29.3 35.0 29.75 35.35 30.2 35.65 30.7 36.0 30.8 36.0 31.4 36.5 31.5 36.5 32.15 36.9 32.25 36.95 32.3 37.0 32.65 37.2 32.95 37.4 33.15 37.5 33.25 37.6 33.55 37.75 34.3 38.15 34.35 38.2 34.75 38.4 35.45 38.7 35.55 38.7 35.85 38.85 36.05 38.95 36.05 39.0 36.1 39.0 36.2 39.0 36.3 39.1 36.6 38.9 38.0 37.8 38.65 37.25 38.75 37.15 38.85 37.05 39.05 36.85 38.85 37.05 38.8 36.95 38.8 36.65 38.8 36.6 39.0 36.8 39.05 36.85 39.4 36.5 39.6 36.35 39.9 36.0 40.85 35.05 41.1 34.75 41.4 34.4 41.5 34.35 41.65 34.2 42.0 33.8 42.95 32.8 43.1 32.65 43.95 31.8 44.15 31.6 44.5 31.25 45.1 30.7 45.25 30.6 45.35 30.5 45.8 30.15 M30.1 16.45 L31.0 17.35 31.35 17.75 31.25 17.75 Q30.25 18.5 29.4 20.4 L29.15 20.85 28.8 21.8 28.8 22.05 29.0 22.2 32.85 24.75 34.95 26.0 37.4 27.45 37.75 27.0 38.75 25.9 40.3 24.05 41.7 22.2 41.75 22.85 41.75 23.05 41.35 23.7 41.1 24.0 40.85 24.5 40.1 25.7 39.9 25.9 39.3 26.8 38.9 27.35 38.5 27.9 37.7 29.15 37.6 29.3 37.5 29.4 37.4 29.5 37.3 29.65 37.25 29.8 37.15 29.7 37.05 29.65 36.9 29.55 36.4 29.2 35.8 28.85 34.05 27.55 33.45 27.15 33.4 27.1 32.7 26.6 31.9 25.95 31.2 25.4 30.9 25.1 30.4 24.75 29.8 24.25 28.8 23.45 28.45 20.8 28.45 20.5 28.45 20.05 Q28.5 19.0 28.8 18.2 L29.25 17.3 29.3 17.2 29.7 16.75 29.95 16.5 30.1 16.45 M41.25 13.85 L40.4 15.1 39.95 16.0 39.85 16.25 39.45 17.15 40.15 18.2 40.4 18.55 41.05 20.0 41.55 21.35 40.55 20.0 38.85 18.5 38.7 17.75 Q39.45 15.7 40.8 14.25 L41.25 13.85 M41.65 34.2 L41.5 34.35 41.4 34.4 41.4 34.1 41.4 34.05 41.65 34.2 M4.0 20.1 L4.05 20.15 Q4.4 20.8 4.4 21.55 L4.3 21.4 4.1 20.55 4.0 20.1" fill="#791418" fill-rule="evenodd" stroke="none"/>
      <path d="M45.1 35.4 L45.25 37.2 43.75 38.4 42.15 39.65 39.75 41.45 39.2 41.55 36.8 41.85 35.85 41.9 35.45 41.9 34.55 42.0 33.35 42.0 31.9 42.05 31.85 41.95 31.8 41.75 31.1 39.85 31.05 39.6 31.0 39.55 30.6 39.3 30.65 38.7 31.0 38.85 31.0 38.95 31.05 39.3 31.05 39.6 31.5 39.9 35.3 40.15 35.75 40.15 37.6 40.05 38.5 39.95 40.85 37.45 42.75 37.75 42.95 37.6 44.7 35.95 45.1 35.4 M18.45 40.4 L18.85 40.45 23.25 41.45 23.75 41.55 30.35 42.05 30.65 42.05 30.85 42.05 30.95 42.35 31.9 44.55 31.95 44.6 32.1 44.85 32.15 44.9 31.75 45.0 31.2 45.2 Q29.7 45.9 28.75 47.25 L28.7 47.25 26.6 46.3 24.55 45.25 21.2 43.1 19.8 41.8 18.45 40.4" fill="#e4421b" fill-rule="evenodd" stroke="none"/>
      <path d="M45.25 37.2 L45.95 40.7 46.1 41.3 44.5 42.7 44.25 40.75 44.2 40.6 43.75 38.4 45.25 37.2 M31.9 42.05 L32.0 42.3 32.7 43.3 33.55 44.2 33.6 44.25 33.8 44.4 33.35 44.4 32.45 44.7 32.15 44.8 32.1 44.85 31.95 44.6 31.9 44.55 30.95 42.35 30.85 42.05 30.9 42.05 31.15 42.05 31.5 42.05 31.85 41.95 31.9 42.05 M34.2 44.45 L34.3 44.45 35.4 44.4 38.5 44.9 38.95 45.05 39.0 45.05 38.6 45.35 37.55 46.15 36.9 46.25 35.65 45.85 35.25 45.55 34.4 44.9 34.25 44.55 34.2 44.45 M31.6 48.25 L31.2 48.15 30.9 48.05 28.6 47.45 28.7 47.25 28.75 47.25 31.2 48.1 31.6 48.25" fill="#fab826" fill-rule="evenodd" stroke="none"/>
      <path d="M43.75 38.4 L44.2 40.6 44.25 40.75 42.95 42.05 41.15 43.45 39.9 44.45 39.0 45.05 38.95 45.05 38.5 44.9 35.4 44.4 34.3 44.45 34.2 44.45 34.0 44.45 33.9 44.45 33.8 44.4 33.6 44.25 33.55 44.2 32.7 43.3 32.0 42.3 31.9 42.05 33.35 42.0 34.55 42.0 35.45 41.9 35.85 41.9 36.8 41.85 39.2 41.55 39.75 41.45 42.15 39.65 43.75 38.4 M30.85 42.05 Q30.55 40.95 30.55 39.95 L30.55 39.9 30.55 39.75 30.6 39.3 31.0 39.55 31.05 39.6 31.1 39.85 31.8 41.75 31.85 41.95 31.5 42.05 31.15 42.05 30.9 42.05 30.85 42.05" fill="#f5841a" fill-rule="evenodd" stroke="none"/>
      <path d="M8.05 40.25 L8.05 40.15 7.55 40.15 7.1 40.15 Q5.25 40.05 3.2 39.2 L1.65 38.4 1.25 38.25 1.3 37.8 Q1.3 36.65 0.95 35.7 L0.6 34.8 0.6 34.75 0.35 34.3 -0.55 33.2 -0.55 31.25 -0.2 31.75 0.7 33.25 1.4 34.5 2.25 35.7 2.45 35.9 2.65 36.1 4.4 36.4 5.6 36.25 Q6.75 35.95 7.65 35.15 L9.85 32.1 10.0 32.05 10.0 32.1 10.05 32.15 10.1 32.2 10.3 32.65 11.45 34.4 12.3 35.6 Q13.95 38.05 15.35 39.5 L16.3 40.3 16.3 40.4 16.45 40.5 17.65 41.6 Q18.55 42.4 19.6 43.1 L19.7 43.2 20.55 43.75 Q23.2 45.35 26.45 46.65 L28.6 47.45 28.1 48.35 Q24.35 47.75 19.65 46.05 L19.1 45.85 16.9 45.0 15.15 44.25 14.4 43.9 13.7 43.55 12.5 42.9 8.5 40.4 8.05 40.25" fill="#e11518" fill-rule="evenodd" stroke="none"/>
      <path d="M15.75 47.15 L14.95 46.95 13.85 46.75 12.85 46.6 9.0 46.3 8.7 46.3 7.1 45.15 5.8 44.05 8.05 44.35 9.0 44.4 Q10.55 44.4 11.7 43.6 L12.3 43.15 12.5 42.95 12.5 42.9 13.7 43.55 14.4 43.9 15.15 44.25 16.9 45.0 19.1 45.85 19.65 46.05 Q24.35 47.75 28.1 48.35 L28.6 47.45 30.9 48.05 31.2 48.15 31.6 48.25 31.65 48.25 31.75 48.25 33.45 48.65 33.15 48.65 32.95 48.65 31.55 48.65 31.15 48.65 30.45 48.65 28.1 48.35 Q27.7 49.15 27.55 50.1 L20.6 49.0 19.65 48.85 Q18.15 47.85 16.05 47.25 L15.75 47.15 M10.1 32.2 L10.35 32.6 11.85 34.15 14.45 36.35 17.4 39.3 17.7 39.6 18.45 40.4 17.7 40.2 17.55 40.15 16.45 39.8 16.35 39.75 15.9 39.6 15.45 39.5 15.35 39.45 15.35 39.5 Q13.95 38.05 12.3 35.6 L11.45 34.4 10.3 32.65 10.1 32.2" fill="#e6421c" fill-rule="evenodd" stroke="none"/>
      <path d="M5.8 44.05 L5.65 43.9 4.0 42.3 4.1 42.3 Q5.6 42.3 6.85 41.55 L7.25 41.35 7.7 41.9 Q8.3 42.65 8.3 43.2 L8.05 44.35 5.8 44.05 M-0.55 31.25 L-0.55 28.3 0.2 28.45 Q0.45 29.65 1.15 30.9 L2.15 32.3 3.0 33.25 3.7 33.3 4.85 33.1 5.85 33.15 6.5 33.15 Q6.25 34.1 5.2 34.8 3.95 35.6 2.25 35.7 L1.4 34.5 0.7 33.25 -0.2 31.75 -0.55 31.25" fill="#fbea42" fill-rule="evenodd" stroke="none"/>
      <path d="M7.25 41.35 Q8.05 40.8 8.05 40.25 L8.5 40.4 12.5 42.9 12.5 42.95 12.3 43.15 11.7 43.6 Q10.55 44.4 9.0 44.4 L8.05 44.35 8.3 43.2 Q8.3 42.65 7.7 41.9 L7.25 41.35 M2.25 35.7 Q3.95 35.6 5.2 34.8 6.25 34.1 6.5 33.15 L8.6 32.85 9.0 32.65 9.1 32.6 9.25 32.55 9.85 32.1 7.65 35.15 Q6.75 35.95 5.6 36.25 L4.4 36.4 2.65 36.1 2.45 35.9 2.25 35.7" fill="#ee8512" fill-rule="evenodd" stroke="none"/>
      <path d="M15.35 39.5 L15.35 39.45 15.45 39.5 15.9 39.6 16.35 39.75 16.45 39.8 17.55 40.15 17.7 40.2 18.45 40.4 19.8 41.8 21.2 43.1 24.55 45.25 26.6 46.3 28.7 47.25 28.6 47.45 26.45 46.65 Q23.2 45.35 20.55 43.75 L19.7 43.2 19.6 43.1 Q18.55 42.4 17.65 41.6 L16.45 40.5 16.3 40.4 16.3 40.3 15.35 39.5 M33.45 48.65 L31.75 48.25 31.65 48.25 31.6 48.25 31.2 48.1 28.75 47.25 Q29.7 45.9 31.2 45.2 L31.75 45.0 32.15 44.9 32.85 45.95 32.9 46.0 33.6 47.0 33.75 47.1 35.0 47.95 36.25 48.8 36.6 49.0 36.15 49.0 33.65 48.65 33.45 48.65" fill="#ea8819" fill-rule="evenodd" stroke="none"/>
      <path d="M33.9 44.45 L34.0 44.45 34.2 44.45 34.25 44.55 34.4 44.9 35.45 46.15 36.8 47.45 38.4 48.55 37.85 49.05 36.6 49.0 36.25 48.8 35.0 47.95 33.75 47.1 33.6 47.0 32.9 46.0 32.85 45.95 32.15 44.9 33.4 44.55 33.5 44.55 33.9 44.45" fill="#ffe97e" fill-rule="evenodd" stroke="none"/>
      <path d="M27.55 50.1 Q27.7 49.15 28.1 48.35 L30.45 48.65 31.15 48.65 31.55 48.65 32.95 48.65 33.15 48.65 33.45 48.65 33.65 48.65 36.15 49.0 36.6 49.0 37.85 49.05 37.45 49.5 37.0 50.05 35.85 50.25 32.5 50.5 31.15 50.45 30.55 50.45 28.65 50.3 27.55 50.1" fill="#e98718" fill-rule="evenodd" stroke="none"/>
      <path d="M15.1 28.95 L16.2 28.4 16.3 28.4 16.45 28.45 18.05 28.95 18.1 28.95 18.45 29.05 18.6 29.15 18.85 29.2 19.25 29.4 19.35 29.45 19.45 29.5 19.95 29.65 23.2 31.15 23.4 31.25 23.55 31.25 23.75 31.4 23.8 31.45 23.95 31.55 24.05 31.6 24.2 31.65 24.25 31.65 25.75 32.45 25.95 32.6 26.35 32.85 25.95 32.7 25.65 32.6 24.0 32.05 23.55 31.9 Q23.4 33.05 22.6 33.8 L21.8 34.35 21.0 34.55 20.75 34.55 20.65 34.55 19.45 34.1 Q18.75 33.55 18.35 32.5 L18.55 32.5 18.75 32.5 Q19.3 32.45 19.3 31.9 19.3 31.3 18.55 30.8 18.3 30.55 17.95 30.45 L17.95 30.0 17.55 29.95 15.1 28.95" fill="#466800" fill-rule="evenodd" stroke="none"/>
      <path d="M28.5 34.4 L27.6 35.2 26.55 36.15 26.35 35.95 25.6 35.5 25.35 35.35 25.0 35.35 Q24.35 35.35 23.95 35.7 L23.55 35.0 23.35 34.85 22.95 34.55 Q22.55 34.25 22.15 34.25 21.95 34.25 21.85 34.35 L21.8 34.35 22.6 33.8 Q23.4 33.05 23.55 31.9 L24.0 32.05 25.65 32.6 25.95 32.7 26.35 32.85 26.45 32.9 26.75 33.15 26.9 33.3 27.25 33.5 28.1 34.1 28.2 34.2 28.25 34.25 28.5 34.4" fill="#699b00" fill-rule="evenodd" stroke="none"/>
      <path d="M47.1 15.05 L47.1 14.95 47.1 14.9 47.3 14.2 47.45 13.1 Q47.45 12.2 46.95 11.05 L46.75 10.55 46.1 9.6 Q46.65 8.5 47.65 7.15 L48.0 6.65 48.65 5.8 Q49.65 4.6 50.55 4.15 L50.6 4.1 50.55 3.4 50.55 2.95 51.85 2.7 52.6 4.15 52.95 4.8 53.9 7.7 53.95 8.55 53.7 9.25 53.6 9.6 53.2 9.6 52.75 9.75 52.05 10.25 Q51.05 11.1 50.4 12.85 L50.4 12.95 Q50.15 13.8 50.05 14.6 49.9 15.4 50.05 16.2 L50.1 16.55 50.15 16.8 50.15 16.9 51.35 15.8 51.55 15.55 52.9 14.15 52.95 14.3 53.05 15.4 53.1 18.2 52.85 19.85 52.3 20.1 Q52.0 20.3 51.6 20.65 50.85 21.25 50.05 22.3 L49.9 22.45 49.9 22.5 48.65 24.25 48.1 25.7 49.45 25.5 49.65 25.45 51.0 25.05 50.95 25.4 50.65 26.3 50.4 26.95 50.35 27.1 49.75 28.1 49.5 28.45 49.45 28.45 48.75 28.65 Q48.15 28.8 47.65 29.05 L46.95 29.4 46.7 29.0 46.45 28.6 47.85 27.8 48.8 27.35 49.2 27.15 49.35 26.5 48.4 26.65 48.05 26.75 48.0 26.75 46.8 26.95 46.75 26.95 46.4 27.05 46.4 26.75 46.5 26.4 46.7 25.85 46.9 25.35 47.05 24.9 47.3 24.4 47.4 24.3 47.45 24.15 47.85 23.6 48.0 23.3 48.1 23.15 48.15 23.0 48.35 22.8 49.1 21.75 49.15 21.75 49.3 21.65 51.2 19.65 51.6 19.3 51.6 17.75 51.55 17.15 49.75 19.05 49.7 19.1 48.65 20.15 48.35 20.5 48.15 20.7 48.1 20.8 48.0 20.85 47.95 20.65 48.0 19.6 48.0 19.45 48.0 19.3 48.0 19.2 48.05 18.55 48.05 18.4 48.05 18.25 48.05 18.1 48.45 15.65 48.65 14.45 48.75 14.35 49.15 12.7 49.25 12.55 49.3 12.15 49.85 11.1 50.25 10.4 50.55 10.15 51.4 9.4 51.9 9.05 52.65 8.55 Q52.45 7.15 51.65 5.4 50.65 6.05 49.7 7.15 L48.75 8.35 48.05 9.25 Q48.5 10.8 48.5 12.7 L48.5 12.8 48.35 14.3 48.3 14.45 48.2 14.7 47.8 15.85 47.55 16.45 47.5 16.5 47.45 16.5 46.6 17.95 46.6 18.0 45.95 18.8 45.4 18.6 44.25 18.05 43.95 17.85 43.75 17.7 42.95 17.0 42.2 15.95 41.85 16.35 41.8 16.55 41.65 16.75 41.25 17.3 41.4 17.5 42.2 18.95 42.65 19.95 43.6 22.3 43.5 22.7 43.1 23.5 43.1 23.65 43.05 23.75 42.95 23.85 42.45 24.9 42.25 25.25 42.15 25.5 41.95 25.85 41.85 25.85 40.9 27.35 40.25 28.2 39.95 28.55 39.8 28.7 39.75 28.8 39.15 29.4 38.05 30.35 37.55 30.7 37.45 30.8 37.35 30.85 37.2 30.8 37.3 29.65 37.4 29.5 37.5 29.4 37.6 29.3 37.7 29.15 38.5 27.9 38.9 27.35 39.3 26.8 39.9 25.9 40.1 25.7 40.85 24.5 41.1 24.0 41.35 23.7 41.75 23.05 41.75 22.85 41.7 22.2 41.65 22.05 41.55 21.35 41.05 20.0 40.4 18.55 40.15 18.2 39.45 17.15 39.85 16.25 39.95 16.0 40.4 15.1 41.25 13.85 41.35 13.75 41.55 13.4 42.2 12.7 42.75 12.2 43.15 11.85 42.95 12.8 42.95 13.4 43.15 14.8 43.9 16.05 43.9 16.1 44.8 16.95 44.85 17.0 45.3 17.3 45.75 16.95 45.8 16.9 46.8 15.6 46.8 15.55 47.1 15.05 M3.4 28.7 L3.3 28.65 2.95 28.55 2.9 28.55 3.4 28.25 3.4 28.7 M50.1 16.55 L50.05 16.8 50.05 16.85 49.9 17.1 49.75 17.3 49.5 17.75 48.2 19.4 48.05 19.5 48.0 19.6 48.05 19.5 48.2 19.4 49.5 17.75 49.75 17.3 49.9 17.1 50.05 16.85 50.05 16.8 50.1 16.55 M36.8 35.95 L37.25 35.55 38.35 34.65 39.25 33.3 39.15 33.8 39.3 33.3 38.95 34.65 38.95 34.75 38.9 35.35 38.85 35.65 38.7 37.0 38.8 36.65 38.8 36.95 38.85 37.05 38.75 37.15 38.65 37.25 38.0 37.8 36.6 38.9 Q36.6 37.45 36.75 36.15 L36.6 36.15 36.45 36.2 36.25 36.45 36.25 36.4 36.15 35.0 36.1 34.3 36.1 34.1 36.05 33.8 36.0 33.5 35.8 32.5 Q35.35 31.2 34.2 29.4 L33.8 28.8 35.6 29.9 35.85 30.0 36.35 30.3 36.8 30.6 37.0 30.7 37.05 30.75 37.2 30.8 36.9 34.1 36.85 34.45 36.8 34.6 36.8 34.75 36.75 36.05 36.8 36.0 36.8 35.95 M41.55 32.1 L42.5 31.4 43.05 31.0 43.9 30.3 43.95 30.35 43.95 30.4 44.05 30.45 44.05 30.5 41.5 32.65 41.5 32.5 41.5 32.3 41.55 32.1 M22.8 12.15 L22.75 12.15 22.75 12.1 21.85 10.55 22.2 10.65 23.65 11.1 23.75 11.1 22.8 12.15" fill="#ff6600" fill-rule="evenodd" stroke="none"/>
      <path d="M40.9 27.35 L41.85 25.85 41.95 25.85 42.15 25.5 42.25 25.25 42.45 24.9 42.95 23.85 43.05 23.75 43.1 23.65 43.1 23.5 43.5 22.7 43.6 22.3 42.65 19.95 42.2 18.95 41.4 17.5 41.25 17.3 41.65 16.75 41.8 16.55 41.85 16.35 42.2 15.95 42.95 17.0 43.75 17.7 43.95 17.85 44.25 18.05 45.4 18.6 45.95 18.8 46.6 18.0 46.6 17.95 47.45 16.5 47.5 16.5 47.55 16.45 47.8 15.85 48.2 14.7 48.3 14.45 48.35 14.3 48.5 12.8 48.5 12.7 Q48.5 10.8 48.05 9.25 L48.75 8.35 49.7 7.15 Q50.65 6.05 51.65 5.4 52.45 7.15 52.65 8.55 L51.9 9.05 51.4 9.4 50.55 10.15 50.25 10.4 49.85 11.1 49.3 12.15 49.25 12.55 49.15 12.7 48.75 14.35 48.65 14.45 48.45 15.65 48.05 18.1 48.05 18.25 48.05 18.4 48.05 18.55 48.0 19.2 48.0 19.3 48.0 19.45 48.0 19.6 47.95 20.65 48.0 20.85 48.1 20.8 48.15 20.7 48.35 20.5 48.65 20.15 49.7 19.1 49.75 19.05 51.55 17.15 51.6 17.75 51.6 19.3 51.2 19.65 49.3 21.65 49.15 21.75 49.1 21.75 48.35 22.8 48.15 23.0 48.1 23.15 48.0 23.3 47.85 23.6 47.45 24.15 47.4 24.3 47.3 24.4 47.05 24.9 46.9 25.35 46.7 25.85 46.5 26.4 46.4 26.75 46.4 27.05 46.75 26.95 46.8 26.95 48.0 26.75 48.05 26.75 48.4 26.65 49.35 26.5 49.2 27.15 48.8 27.35 47.85 27.8 46.45 28.6 46.4 28.5 46.35 28.35 46.35 28.3 46.25 27.85 46.2 27.75 46.1 27.15 46.1 27.1 46.1 26.6 46.1 26.45 46.25 25.25 46.4 24.6 46.6 24.2 46.4 24.25 46.3 24.45 45.8 25.3 45.65 25.5 45.6 25.55 45.35 26.0 45.15 26.2 44.85 26.7 44.6 27.3 43.9 29.55 43.85 30.15 43.9 30.3 43.05 31.0 42.5 31.4 41.55 32.1 41.9 31.05 41.85 30.95 41.85 30.8 41.5 31.1 41.4 31.2 41.2 31.4 40.9 31.65 40.55 32.05 40.5 32.05 40.1 32.45 40.1 32.5 39.95 32.55 39.75 32.8 39.3 33.3 39.3 33.15 39.25 33.3 38.35 34.65 37.25 35.55 36.8 35.95 36.9 35.35 37.05 34.5 37.1 34.3 37.45 33.95 37.8 33.6 38.05 33.3 39.45 32.0 39.45 31.95 39.6 31.3 39.95 30.95 40.55 30.3 40.6 30.15 40.65 30.15 41.4 29.1 43.1 26.1 43.15 25.95 41.55 27.9 40.9 27.35 M44.45 19.2 L44.7 19.5 45.15 20.35 45.2 20.45 44.9 22.4 44.85 22.5 44.85 22.7 44.6 23.25 44.2 24.1 44.0 24.45 43.55 25.2 44.3 24.85 45.25 24.1 45.5 23.85 45.65 23.75 Q45.7 23.65 45.8 23.65 L46.7 22.3 46.95 21.75 Q47.65 20.45 47.8 19.25 L47.85 18.4 47.4 18.75 47.25 18.8 46.65 19.25 46.2 19.6 45.2 19.2 45.2 19.15 45.15 19.15 44.4 18.75 44.25 18.75 44.1 18.7 44.3 18.95 44.45 19.15 44.45 19.2" fill="#ffd231" fill-rule="evenodd" stroke="none"/>
      <path d="M44.45 19.2 L44.45 19.15 44.3 18.95 44.1 18.7 44.25 18.75 44.4 18.75 45.15 19.15 45.2 19.15 45.2 19.2 46.2 19.6 46.65 19.25 47.25 18.8 47.4 18.75 47.85 18.4 47.8 19.25 Q47.65 20.45 46.95 21.75 L46.7 22.3 45.8 23.65 Q45.7 23.65 45.65 23.75 L45.5 23.85 45.25 24.1 44.3 24.85 43.55 25.2 44.0 24.45 44.2 24.1 44.6 23.25 44.85 22.7 44.85 22.5 44.9 22.4 45.2 20.45 45.15 20.35 44.7 19.5 44.45 19.2" fill="#ffffb8" fill-rule="evenodd" stroke="none"/>
      <path d="M39.25 33.3 L39.3 33.15 39.3 33.3 39.25 33.3 39.3 33.3 39.15 33.8 39.25 33.3 M39.75 32.8 L39.95 32.55 40.1 32.5 40.1 32.45 40.5 32.05 40.55 32.05 40.9 31.65 41.2 31.4 41.4 31.2 41.5 31.1 41.85 30.8 41.85 30.95 41.9 31.05 41.55 32.1 41.5 32.3 41.5 32.5 41.15 32.8 40.9 33.0 40.8 33.1 39.9 33.9 39.75 33.95 39.75 32.8 M44.85 26.7 L45.15 26.2 45.35 26.0 45.6 25.55 45.65 25.5 45.8 25.3 46.3 24.45 46.4 24.25 46.6 24.2 46.4 24.6 46.25 25.25 46.1 26.45 46.1 26.6 46.1 27.1 46.1 27.15 46.2 27.75 46.25 27.85 46.35 28.3 46.3 28.3 46.25 28.4 44.85 29.6 44.85 29.2 44.85 26.7" fill="#7eb20d" fill-rule="evenodd" stroke="none"/>
      <path d="M50.55 2.95 L49.55 -0.6 49.65 -0.6 51.85 2.7 50.55 2.95" fill="#ffff99" fill-rule="evenodd" stroke="none"/>
      <path d="M46.95 29.4 L46.85 29.5 46.8 29.5 46.6 29.6 46.05 30.0 45.95 30.0 45.8 30.15 45.35 30.5 45.25 30.6 45.1 30.7 44.5 31.25 44.15 31.6 43.95 31.8 43.1 32.65 42.95 32.8 42.0 33.8 41.65 34.2 41.4 34.05 41.4 34.1 41.4 34.4 41.1 34.75 40.85 35.05 39.9 36.0 39.6 36.35 39.4 36.5 39.0 36.8 38.8 36.6 38.8 36.65 38.7 37.0 38.85 35.65 38.9 35.35 38.95 34.75 38.95 34.65 39.3 33.3 39.75 32.8 39.75 33.95 39.9 33.9 40.8 33.1 40.9 33.0 41.15 32.8 41.5 32.5 41.5 32.65 44.05 30.5 44.05 30.45 43.95 30.4 43.95 30.35 43.9 30.3 43.85 30.15 43.9 29.55 44.6 27.3 44.85 26.7 44.85 29.2 44.85 29.6 46.25 28.4 46.3 28.3 46.35 28.3 46.35 28.35 46.4 28.5 46.45 28.6 46.7 29.0 46.95 29.4 M27.65 29.4 L28.6 30.0 29.25 30.45 29.9 30.9 30.15 31.1 30.35 31.3 30.55 31.5 30.85 31.9 31.2 32.5 31.35 32.6 31.4 32.8 31.5 32.85 31.55 32.95 31.55 33.0 32.15 34.1 32.2 34.2 31.35 33.7 30.9 33.5 30.5 33.3 30.45 33.25 30.4 33.25 30.25 33.15 30.1 33.0 29.6 31.95 29.15 31.7 28.45 31.2 27.25 30.4 27.25 30.35 27.25 30.15 26.95 28.95 27.35 29.2 27.65 29.4 M17.25 22.85 L17.4 22.9 17.4 22.95 17.75 23.4 17.3 22.95 17.25 22.85 M22.3 29.3 L22.5 28.85 22.55 28.85 22.95 29.05 23.0 29.1 23.05 29.1 23.25 29.2 23.4 29.25 23.45 29.25 23.45 29.3 23.9 29.5 24.3 29.8 24.7 30.0 26.25 30.9 26.15 31.1 23.8 30.0 22.3 29.3" fill="#4a7c00" fill-rule="evenodd" stroke="none"/>
      <path d="M37.2 30.8 L37.35 30.85 37.35 30.95 37.4 31.0 37.55 30.95 38.2 30.55 39.3 29.8 39.6 29.55 40.05 29.2 40.1 29.15 40.25 28.95 40.15 29.25 40.15 29.4 40.2 29.35 40.4 29.15 41.5 27.9 41.55 27.9 43.15 25.95 43.1 26.1 41.4 29.1 40.65 30.15 40.6 30.15 40.55 30.3 39.95 30.95 39.6 31.3 39.45 31.95 39.45 32.0 38.05 33.3 37.8 33.6 37.45 33.95 37.1 34.3 37.05 34.5 36.9 35.35 36.8 35.95 36.8 36.0 36.75 36.05 36.8 34.75 36.8 34.6 36.85 34.45 36.9 34.1 37.2 30.8" fill="#ffffcb" fill-rule="evenodd" stroke="none"/>
      <path d="M37.35 30.85 L37.45 30.8 37.55 30.7 38.05 30.35 39.15 29.4 39.75 28.8 39.8 28.7 39.95 28.55 40.25 28.2 40.9 27.35 41.55 27.9 41.5 27.9 40.4 29.15 40.2 29.35 40.15 29.4 40.15 29.25 40.25 28.95 40.1 29.15 40.05 29.2 39.6 29.55 39.3 29.8 38.2 30.55 37.55 30.95 37.4 31.0 37.35 30.95 37.35 30.85" fill="#ffec25" fill-rule="evenodd" stroke="none"/>
      <path d="M16.75 18.1 L17.7 17.15 18.05 17.6 18.15 17.7 18.65 18.15 18.8 18.25 19.0 18.4 19.5 18.65 20.5 19.0 21.7 19.15 22.05 20.4 20.9 20.7 19.8 20.9 19.45 20.65 19.25 20.45 19.05 20.3 18.45 19.7 17.8 19.2 17.7 19.05 17.55 18.9 17.4 18.75 17.25 18.65 16.75 18.1 M25.0 11.7 L27.35 13.2 28.0 13.7 28.6 14.2 29.8 15.4 30.55 16.2 30.1 16.45 29.95 16.5 29.7 16.75 29.3 17.2 29.25 17.3 28.8 18.2 Q28.5 19.0 28.45 20.05 L28.45 20.5 28.45 20.8 28.8 23.45 29.8 24.25 30.4 24.75 30.9 25.1 31.2 25.4 31.9 25.95 32.7 26.6 33.4 27.1 33.45 27.15 34.05 27.55 35.8 28.85 36.4 29.2 36.9 29.55 37.05 29.65 37.15 29.7 37.25 29.8 37.3 29.65 37.2 30.8 37.05 30.75 37.0 30.7 36.8 30.6 36.35 30.3 35.85 30.0 35.6 29.9 33.8 28.8 33.3 28.5 32.8 28.2 32.7 28.1 32.5 28.0 31.4 27.3 31.05 27.1 30.4 26.65 30.3 26.65 29.4 26.0 27.55 24.9 27.35 24.8 27.35 24.75 26.85 21.7 26.85 21.5 26.75 20.85 26.75 20.8 26.75 20.1 26.85 19.35 26.95 18.55 27.3 17.4 27.5 17.1 28.05 16.2 27.6 15.85 26.0 14.65 25.5 14.2 24.7 13.55 24.8 13.8 Q25.5 15.05 25.55 16.4 L25.6 16.75 25.45 18.15 25.4 18.2 24.3 18.0 24.35 17.6 24.1 15.7 23.6 14.05 22.85 12.4 22.8 12.15 23.75 11.1 24.2 11.3 25.0 11.7" fill="#f03a00" fill-rule="evenodd" stroke="none"/>
      <path d="M-0.55 14.9 L-0.55 14.25 -0.15 14.5 -0.2 14.6 -0.55 14.9 M25.4 18.2 L25.45 18.15 25.6 16.75 25.55 16.4 Q25.5 15.05 24.8 13.8 L24.7 13.55 25.5 14.2 26.0 14.65 27.6 15.85 28.05 16.2 27.5 17.1 27.3 17.4 26.95 18.55 26.85 19.35 26.75 20.1 26.75 20.8 26.75 20.85 26.85 21.5 26.85 21.7 27.35 24.75 27.35 24.8 27.55 24.9 29.4 26.0 30.3 26.65 30.4 26.65 31.05 27.1 31.4 27.3 32.5 28.0 32.7 28.1 32.8 28.2 33.3 28.5 33.8 28.8 34.2 29.4 Q35.35 31.2 35.8 32.5 L36.0 33.5 36.05 33.8 36.1 34.1 36.1 34.3 36.15 35.0 36.25 36.4 36.15 36.35 36.05 36.3 35.85 36.15 35.6 36.0 35.2 35.8 Q34.75 35.05 31.55 33.0 L31.55 32.95 31.5 32.85 31.4 32.8 31.35 32.6 31.2 32.5 30.85 31.9 31.5 32.25 31.7 32.35 32.15 32.65 33.4 33.3 33.4 33.15 Q33.4 31.55 32.9 30.3 L32.8 30.0 32.65 29.7 32.65 29.65 30.35 27.55 30.0 27.25 27.25 25.75 25.95 25.0 25.9 24.95 25.85 24.95 25.9 24.85 25.9 24.6 26.15 21.85 26.2 21.5 26.3 20.85 26.3 20.8 26.35 20.4 26.35 20.1 26.5 19.25 26.5 19.2 26.85 17.1 26.45 16.9 25.9 16.65 25.9 16.8 25.8 18.15 25.8 18.2 25.5 20.0 25.45 20.15 25.25 20.8 24.35 21.1 23.9 21.2 23.1 21.4 19.9 21.75 19.8 21.75 19.8 20.9 20.9 20.7 22.05 20.4 22.5 20.25 22.55 20.25 23.5 19.85 24.85 19.2 25.3 18.85 25.35 18.5 25.4 18.2" fill="#ffb410" fill-rule="evenodd" stroke="none"/>
      <path d="M19.8 21.75 L19.9 21.75 23.1 21.4 23.9 21.2 24.35 21.1 25.25 20.8 25.45 20.15 25.5 20.0 25.8 18.2 25.8 18.15 25.9 16.8 25.9 16.65 26.45 16.9 26.85 17.1 26.5 19.2 26.5 19.25 26.35 20.1 26.35 20.4 26.3 20.8 26.3 20.85 26.2 21.5 26.15 21.85 25.9 24.6 25.9 24.85 25.85 24.95 25.9 24.95 25.95 25.0 27.25 25.75 30.0 27.25 30.35 27.55 32.65 29.65 32.65 29.7 32.8 30.0 32.9 30.3 Q33.4 31.55 33.4 33.15 L33.4 33.3 32.15 32.65 31.7 32.35 31.5 32.25 30.85 31.9 30.55 31.5 30.35 31.3 30.15 31.1 29.9 30.9 29.25 30.45 28.6 30.0 27.65 29.4 27.0 28.4 26.8 28.1 26.3 27.3 25.15 25.35 23.45 22.05 23.3 22.05 20.8 22.2 19.85 22.3 18.6 22.35 18.5 22.3 17.25 21.1 16.45 20.25 16.1 19.85 15.6 19.3 15.35 19.15 15.6 19.25 15.65 19.25 15.95 19.55 16.0 19.6 16.45 19.85 16.85 20.25 17.05 20.4 17.1 20.45 17.2 20.45 17.3 20.6 17.95 21.05 18.35 21.35 18.85 21.75 19.8 21.75" fill="#ffff8a" fill-rule="evenodd" stroke="none"/>
      <path d="M25.4 18.2 L25.35 18.5 25.3 18.85 24.85 19.2 23.5 19.85 22.55 20.25 22.5 20.25 22.05 20.4 21.7 19.15 22.05 19.1 23.45 18.55 23.6 18.5 23.8 18.4 24.3 18.0 25.4 18.2" fill="#e23a00" fill-rule="evenodd" stroke="none"/>
      <path d="M3.4 4.95 L4.15 4.75 5.55 4.45 6.35 4.25 6.5 4.2 6.6 4.2 7.2 4.05 7.5 4.0 7.7 3.95 7.95 3.85 9.35 3.65 9.45 3.7 9.85 4.15 9.95 4.3 10.4 4.75 10.45 4.8 12.05 6.75 12.05 6.8 12.75 7.6 12.95 7.9 13.1 8.9 13.25 9.7 13.3 10.15 13.3 10.3 13.3 10.35 13.35 10.65 13.4 10.8 13.45 11.2 13.45 11.45 13.5 11.8 13.5 11.95 13.55 12.15 13.65 13.15 13.7 13.5 13.75 13.7 13.75 14.05 13.85 14.8 13.5 15.0 13.55 15.05 13.6 15.05 13.85 15.55 14.05 15.95 14.4 16.7 15.8 19.25 13.85 17.0 13.1 16.15 12.55 15.45 12.5 15.4 12.5 15.35 12.5 15.1 12.2 13.95 12.15 13.8 12.0 13.2 12.05 13.8 12.05 13.95 12.1 14.65 12.1 14.85 12.1 15.45 12.1 15.65 12.05 16.25 12.05 16.3 12.45 16.65 12.5 16.7 13.7 17.8 15.0 18.95 16.05 19.85 16.1 19.85 16.45 20.25 17.25 21.1 18.5 22.3 18.6 22.35 19.85 22.3 20.8 22.2 23.3 22.05 23.45 22.05 25.15 25.35 26.3 27.3 26.8 28.1 27.0 28.4 27.65 29.4 27.35 29.2 26.95 28.95 26.5 28.65 26.3 28.5 26.15 28.45 25.8 28.25 25.7 28.1 25.65 28.15 25.55 28.3 25.6 28.6 25.8 29.05 25.2 28.7 25.1 28.7 25.05 28.65 25.0 28.7 22.8 27.15 20.75 25.75 17.4 22.95 17.4 22.9 17.25 22.85 17.0 22.55 16.6 22.1 16.45 21.9 Q16.3 21.75 16.15 21.7 L16.05 21.6 15.6 21.3 15.5 21.2 15.05 20.95 14.75 20.8 14.7 20.75 13.65 20.15 13.25 19.9 12.9 19.7 12.55 19.5 11.8 19.1 10.75 18.45 10.45 18.35 9.95 18.05 9.65 18.35 8.55 18.45 8.2 16.85 8.2 16.75 7.8 16.15 7.55 15.75 7.3 15.45 7.25 15.4 6.45 14.95 6.35 14.9 5.7 14.7 5.65 14.65 5.55 14.65 5.25 14.6 3.6 13.75 3.8 13.75 3.9 13.75 5.65 13.45 5.75 13.4 5.8 13.4 5.8 13.35 5.65 13.3 5.65 13.25 4.25 13.0 3.95 13.0 3.9 13.0 3.7 13.0 2.5 13.15 2.35 13.15 2.3 13.2 1.5 13.5 -0.15 14.5 -0.55 14.25 -0.55 13.3 -0.5 13.2 -0.4 13.15 -0.1 12.75 0.45 12.2 0.55 12.2 1.25 11.65 2.1 11.55 2.15 11.55 3.0 11.45 3.1 11.45 3.4 11.55 3.6 11.6 3.75 11.6 3.9 11.6 4.0 11.65 4.5 11.75 4.75 11.75 5.05 11.8 5.65 11.9 7.1 12.15 7.25 12.2 7.75 12.3 7.9 12.3 8.45 12.45 9.05 12.65 9.35 12.85 9.9 13.15 10.25 13.05 10.1 12.35 10.1 12.15 9.6 10.25 9.45 9.9 9.15 9.25 8.4 8.15 8.0 7.8 7.5 7.5 6.7 7.15 6.15 7.05 5.95 7.0 5.65 6.95 5.55 6.95 5.15 6.85 5.05 6.85 4.3 6.8 4.4 6.35 5.55 5.95 5.7 5.9 5.85 5.8 6.0 5.7 6.15 5.7 6.5 5.7 6.9 5.75 6.95 5.8 7.3 5.85 9.3 6.25 9.4 6.7 9.5 7.15 10.25 8.8 10.25 8.9 10.5 9.3 10.5 9.35 10.95 10.2 11.05 10.4 11.25 10.75 11.8 11.75 11.8 11.8 11.85 11.9 11.8 11.9 11.9 12.4 11.95 12.55 12.0 13.0 11.95 11.85 11.9 11.8 11.85 11.7 11.85 11.4 11.55 10.15 11.35 9.2 10.95 7.95 9.75 6.35 9.65 6.25 9.35 5.9 9.3 5.7 7.3 5.55 7.25 5.55 6.65 5.45 6.6 5.45 6.7 5.4 6.5 5.45 6.15 5.45 6.05 5.45 5.8 5.45 5.65 5.45 4.6 5.4 4.0 5.3 3.7 5.25 3.45 5.15 3.4 4.95" fill="#ffaa2c" fill-rule="evenodd" stroke="none"/>
      <path d="M0.15 -0.6 L0.45 -0.6 1.55 1.15 1.6 1.2 3.1 2.9 3.3 3.2 3.7 3.55 3.75 3.65 4.5 3.2 4.55 3.2 5.65 2.7 5.75 2.7 6.0 2.65 6.75 2.4 7.25 2.3 8.05 2.2 8.15 2.2 8.5 2.15 9.3 2.1 9.7 2.1 10.3 2.15 10.45 2.15 10.9 2.15 11.8 3.2 11.85 3.25 12.0 3.45 12.35 3.8 12.95 4.55 13.6 5.3 14.6 6.65 14.9 7.0 15.0 7.15 15.0 7.35 15.05 8.85 15.1 8.95 15.2 10.05 15.55 12.1 15.6 12.2 15.65 12.55 15.85 13.35 16.3 14.65 Q16.85 16.2 17.7 17.15 L16.75 18.1 16.65 18.0 15.15 16.35 15.0 16.15 14.55 15.7 14.2 15.25 14.1 15.15 13.95 14.9 13.85 14.8 13.75 14.05 13.75 13.7 13.7 13.5 13.65 13.15 13.55 12.15 13.5 11.95 13.5 11.8 13.45 11.45 13.45 11.2 13.4 10.8 13.35 10.65 13.3 10.35 13.3 10.3 13.3 10.15 13.25 9.7 13.1 8.9 12.95 7.9 12.75 7.6 12.05 6.8 12.05 6.75 10.45 4.8 10.4 4.75 9.95 4.3 9.85 4.15 9.45 3.7 9.35 3.65 7.95 3.85 7.7 3.95 7.5 4.0 7.2 4.05 6.6 4.2 6.5 4.2 6.35 4.25 5.55 4.45 4.15 4.75 3.4 4.95 2.65 4.65 1.9 3.7 1.05 1.95 0.3 -0.1 0.15 -0.6" fill="#f0701e" fill-rule="evenodd" stroke="none"/>
      <path d="M-0.55 15.5 L-0.55 14.9 -0.2 14.6 -0.15 14.5 1.5 13.5 2.3 13.2 2.35 13.15 2.5 13.15 3.7 13.0 3.9 13.0 3.95 13.0 4.25 13.0 5.65 13.25 5.65 13.3 5.8 13.35 5.8 13.4 5.75 13.4 5.65 13.45 3.9 13.75 3.8 13.75 3.6 13.75 5.25 14.6 3.95 14.45 3.7 14.45 3.55 14.45 2.6 14.55 1.8 14.65 1.1 14.85 -0.25 15.35 -0.55 15.5 M15.95 19.55 L15.65 19.25 15.6 19.25 15.35 19.15 15.6 19.3 16.1 19.85 16.05 19.85 15.0 18.95 13.7 17.8 12.5 16.7 12.45 16.65 12.05 16.3 12.05 16.25 12.1 15.65 12.1 15.45 12.1 14.85 12.1 14.65 12.05 13.95 12.05 13.8 12.0 13.2 12.15 13.8 12.2 13.95 12.5 15.1 12.5 15.35 12.5 15.4 12.55 15.45 13.1 16.15 13.85 17.0 15.8 19.25 15.95 19.55 M3.45 5.15 L3.7 5.25 4.0 5.3 4.6 5.4 5.65 5.45 5.8 5.45 6.05 5.45 6.15 5.45 6.5 5.45 6.7 5.4 6.6 5.45 6.65 5.45 7.25 5.55 7.3 5.55 9.3 5.7 9.35 5.9 9.65 6.25 9.75 6.35 10.95 7.95 11.35 9.2 11.55 10.15 11.85 11.4 11.85 11.7 11.9 11.8 11.95 11.85 12.0 13.0 11.95 12.55 11.9 12.4 11.8 11.9 11.85 11.9 11.8 11.8 11.8 11.75 11.25 10.75 11.05 10.4 10.95 10.2 10.5 9.35 10.5 9.3 10.25 8.9 10.25 8.8 9.5 7.15 9.4 6.7 9.3 6.25 7.3 5.85 6.95 5.8 6.9 5.75 6.5 5.7 6.15 5.7 6.0 5.7 5.85 5.8 5.7 5.9 5.55 5.95 4.4 6.35 3.9 6.25 3.7 6.2 2.35 5.55 Q0.75 4.7 0.75 4.3 L0.85 4.0 1.05 3.8 2.55 4.85 2.6 4.9 3.3 5.1 3.35 5.1 3.45 5.15" fill="#ffff87" fill-rule="evenodd" stroke="none"/>
      <path d="M0.15 -0.6 L0.3 -0.1 1.05 1.95 1.9 3.7 2.65 4.65 3.4 4.95 3.45 5.15 3.35 5.1 3.3 5.1 2.6 4.9 2.55 4.85 1.05 3.8 0.85 4.0 0.75 4.3 Q0.75 4.7 2.35 5.55 L3.7 6.2 3.9 6.25 4.4 6.35 4.3 6.8 4.2 6.75 3.8 6.7 2.95 6.6 2.15 6.35 Q1.45 6.2 1.0 5.9 L0.6 5.55 -0.2 4.35 -0.35 4.0 -0.55 3.45 -0.55 -0.6 0.15 -0.6" fill="#ffec43" fill-rule="evenodd" stroke="none"/>
      <path d="M-0.55 17.0 L-0.55 15.5 -0.25 15.35 1.1 14.85 1.8 14.65 2.6 14.55 3.55 14.45 3.7 14.45 3.95 14.45 5.25 14.6 5.55 14.65 5.65 14.65 5.7 14.7 6.35 14.9 6.45 14.95 7.25 15.4 7.3 15.45 7.55 15.75 7.8 16.15 8.2 16.75 8.2 16.85 8.55 18.45 8.65 19.7 8.2 22.5 8.05 22.9 7.65 24.15 7.5 24.5 8.85 23.35 9.3 22.85 Q9.85 22.0 10.0 20.95 L10.05 20.8 10.1 20.05 9.95 18.75 9.95 18.7 9.9 18.6 9.65 18.35 9.95 18.05 10.65 18.85 10.65 18.9 10.85 19.05 11.8 20.35 11.8 20.4 11.3 20.65 11.5 21.1 11.6 21.25 Q12.0 22.35 12.0 23.75 L11.55 26.0 11.4 26.5 9.9 26.65 8.65 26.65 7.0 26.65 6.45 26.65 5.45 26.65 5.2 26.65 3.15 26.6 2.3 26.5 1.75 26.4 1.7 26.35 0.65 26.05 1.3 26.05 1.6 26.05 1.85 26.05 2.35 26.0 3.0 26.0 4.7 25.65 4.8 25.6 4.95 25.45 5.4 25.05 5.45 25.0 5.55 24.9 6.2 23.9 6.25 23.7 6.65 22.2 6.75 21.6 6.8 20.75 6.8 20.5 6.75 19.85 5.35 18.65 4.75 18.25 4.3 17.95 4.1 17.85 3.85 17.75 3.75 17.65 3.55 17.6 3.3 17.5 3.0 17.4 2.3 17.15 1.85 17.05 1.15 16.95 0.95 16.95 0.6 16.9 0.45 16.9 0.2 16.9 -0.55 17.0 M-0.55 8.05 L-0.55 3.45 -0.35 4.0 -0.2 4.35 0.6 5.55 1.0 5.9 Q1.45 6.2 2.15 6.35 L2.95 6.6 3.8 6.7 4.2 6.75 4.3 6.8 5.05 6.85 5.15 6.85 5.55 6.95 5.65 6.95 5.95 7.0 6.15 7.05 6.7 7.15 7.5 7.5 8.0 7.8 8.4 8.15 9.15 9.25 9.45 9.9 9.6 10.25 10.1 12.15 10.1 12.35 10.25 13.05 9.9 13.15 9.15 12.5 9.1 12.4 8.25 11.75 8.2 11.7 8.15 11.65 7.55 11.2 6.9 10.75 6.7 10.65 6.35 10.45 5.65 10.15 5.5 10.05 5.35 10.0 5.15 9.85 4.85 9.7 4.7 9.7 4.65 9.65 3.95 9.35 3.6 9.25 3.45 9.2 3.35 9.2 3.15 9.1 2.3 8.9 0.75 8.55 0.65 8.55 -0.3 8.4 -0.55 8.05 M31.55 33.0 Q34.75 35.05 35.2 35.8 L34.35 35.35 34.2 35.25 33.7 35.0 33.4 34.9 33.15 34.75 33.15 34.7 33.05 34.6 32.75 34.45 32.7 34.4 32.4 34.25 32.15 34.1 31.55 33.0 M17.4 22.95 L20.75 25.75 22.8 27.15 25.0 28.7 25.0 29.05 24.85 29.55 24.8 29.7 24.7 29.85 24.7 30.0 24.3 29.8 23.9 29.5 23.45 29.3 23.45 29.25 23.4 29.25 23.25 29.15 23.1 29.05 22.65 28.8 20.05 27.1 20.0 26.95 19.7 26.2 19.45 25.8 18.9 24.85 18.4 24.1 18.15 23.8 17.75 23.4 17.4 22.95 M20.2 27.4 L20.15 27.3 20.05 27.1 22.65 28.8 23.1 29.05 23.25 29.15 23.4 29.25 23.25 29.2 23.05 29.1 23.0 29.1 22.95 29.05 22.55 28.85 22.5 28.85 22.35 28.7 20.6 27.75 20.4 27.6 20.2 27.55 20.2 27.45 20.2 27.4 M23.9 29.5 L23.45 29.25 23.9 29.5" fill="#e55b1c" fill-rule="evenodd" stroke="none"/>
      <path d="M7.0 29.1 L6.8 29.1 6.75 29.1 5.85 29.05 5.8 29.05 4.35 28.85 3.7 28.75 3.4 28.7 3.4 28.25 2.9 28.55 2.05 28.25 1.55 28.0 1.55 27.95 0.2 27.25 0.1 27.15 -0.25 26.9 -0.55 26.65 -0.55 25.0 -0.1 25.0 0.1 25.0 1.35 24.75 2.45 24.25 2.7 24.1 2.75 24.1 3.15 23.8 3.3 23.75 3.45 23.65 Q4.2 22.95 4.35 22.05 L4.35 21.9 4.4 21.6 4.4 21.55 Q4.4 20.8 4.05 20.15 L4.0 20.1 3.95 20.05 3.9 19.9 3.75 19.7 3.65 19.6 3.3 19.2 3.0 19.0 3.0 18.95 2.35 18.6 1.7 18.4 1.55 18.3 0.55 18.1 0.5 18.1 0.1 18.1 -0.15 18.1 -0.55 18.1 -0.55 17.0 0.2 16.9 0.45 16.9 0.6 16.9 0.95 16.95 1.15 16.95 1.85 17.05 2.3 17.15 3.0 17.4 3.3 17.5 3.55 17.6 3.75 17.65 3.85 17.75 4.1 17.85 4.3 17.95 4.75 18.25 5.35 18.65 6.75 19.85 6.8 20.5 6.8 20.75 6.75 21.6 6.65 22.2 6.25 23.7 6.2 23.9 5.55 24.9 5.45 25.0 5.4 25.05 4.95 25.45 4.8 25.6 4.7 25.65 3.0 26.0 2.35 26.0 1.85 26.05 1.6 26.05 1.3 26.05 0.65 26.05 1.7 26.35 1.75 26.4 2.3 26.5 3.15 26.6 5.2 26.65 5.45 26.65 6.45 26.65 7.0 26.65 8.65 26.65 9.9 26.65 11.4 26.5 11.55 26.0 12.0 23.75 Q12.0 22.35 11.6 21.25 L11.5 21.1 11.3 20.65 11.8 20.4 12.15 20.95 12.25 21.0 13.1 22.65 13.3 22.85 13.5 23.35 13.65 23.75 13.75 23.8 13.9 24.15 14.05 24.85 14.25 25.5 14.2 25.85 13.9 26.3 13.9 26.35 12.7 28.5 12.65 28.55 12.3 28.6 10.9 28.7 10.05 28.8 8.05 29.0 7.0 29.1 M-0.55 13.3 L-0.55 11.2 -0.55 8.05 -0.3 8.4 0.65 8.55 0.75 8.55 2.3 8.9 3.15 9.1 3.35 9.2 3.45 9.2 3.6 9.25 3.95 9.35 4.65 9.65 4.7 9.7 4.85 9.7 5.15 9.85 5.35 10.0 5.5 10.05 5.65 10.15 6.35 10.45 6.7 10.65 6.9 10.75 7.55 11.2 7.3 11.9 7.35 11.9 7.5 11.95 7.9 12.15 7.95 12.15 8.6 12.45 9.05 12.65 8.45 12.45 7.9 12.3 7.75 12.3 7.25 12.2 7.1 12.15 5.65 11.9 5.05 11.8 4.75 11.75 4.5 11.75 4.0 11.65 3.9 11.6 3.75 11.6 3.6 11.6 3.4 11.55 3.1 11.45 3.0 11.45 2.15 11.55 2.1 11.55 1.25 11.65 0.55 12.2 0.45 12.2 -0.1 12.75 -0.4 13.15 -0.5 13.2 -0.55 13.3 M-0.55 11.2 L0.6 10.8 1.3 10.7 2.4 10.6 2.45 10.6 3.15 10.7 3.35 10.75 3.4 10.75 3.6 10.8 4.1 10.9 4.25 10.95 4.55 11.0 5.05 11.1 5.45 11.25 5.55 11.3 5.65 11.3 5.7 11.3 6.55 11.65 6.8 11.7 7.3 11.85 7.3 11.9 7.3 11.85 6.8 11.7 6.55 11.65 5.7 11.3 5.65 11.3 5.55 11.3 5.45 11.25 5.05 11.1 4.55 11.0 4.25 10.95 4.1 10.9 3.6 10.8 3.4 10.75 3.35 10.75 3.15 10.7 2.45 10.6 2.4 10.6 1.3 10.7 0.6 10.8 -0.55 11.2 M36.6 38.9 L36.3 39.1 36.2 39.0 36.1 39.0 36.05 39.0 36.05 38.95 35.85 38.85 35.55 38.7 35.45 38.7 34.75 38.4 34.35 38.2 34.3 38.15 33.55 37.75 33.25 37.6 33.15 37.5 32.95 37.4 33.1 37.2 33.25 37.55 33.25 36.85 Q32.9 35.55 32.2 34.2 L32.15 34.1 32.4 34.25 32.7 34.4 32.75 34.45 33.05 34.6 33.15 34.7 33.15 34.75 33.4 34.9 33.7 35.0 34.2 35.25 34.35 35.35 35.2 35.8 35.6 36.0 35.85 36.15 36.05 36.3 36.15 36.35 36.25 36.4 36.25 36.45 36.45 36.2 36.6 36.15 36.75 36.15 Q36.6 37.45 36.6 38.9 M25.0 28.7 L25.05 28.65 25.1 28.7 25.2 28.7 25.8 29.05 25.8 29.25 25.95 29.8 26.0 29.95 26.05 30.2 26.15 30.7 26.2 30.8 26.25 30.9 24.7 30.0 24.7 29.85 24.8 29.7 24.85 29.55 25.0 29.05 25.0 28.7" fill="#b82300" fill-rule="evenodd" stroke="none"/>
      <path d="M9.05 12.65 L8.6 12.45 7.95 12.15 7.9 12.15 7.5 11.95 7.35 11.9 7.3 11.9 7.55 11.2 8.15 11.65 8.2 11.7 8.25 11.75 9.1 12.4 9.15 12.5 9.9 13.15 9.35 12.85 9.05 12.65" fill="#ce2300" fill-rule="evenodd" stroke="none"/>
      <path d="M13.85 14.8 L13.95 14.9 14.1 15.15 14.2 15.25 14.55 15.7 15.0 16.15 15.15 16.35 16.65 18.0 16.75 18.1 17.25 18.65 17.4 18.75 17.55 18.9 17.7 19.05 17.8 19.2 18.45 19.7 19.05 20.3 19.25 20.45 19.45 20.65 19.8 20.9 19.8 21.75 18.85 21.75 18.35 21.35 17.95 21.05 17.3 20.6 17.2 20.45 17.1 20.45 17.05 20.4 16.85 20.25 16.45 19.85 16.0 19.6 15.95 19.55 15.8 19.25 14.4 16.7 14.05 15.95 13.85 15.55 13.6 15.05 13.55 15.05 13.5 15.0 13.85 14.8 M9.65 18.35 L9.9 18.6 9.95 18.7 9.95 18.75 10.1 20.05 10.05 20.8 10.0 20.95 Q9.85 22.0 9.3 22.85 L8.85 23.35 7.5 24.5 7.65 24.15 8.05 22.9 8.2 22.5 8.65 19.7 8.55 18.45 9.65 18.35" fill="#ffbf2a" fill-rule="evenodd" stroke="none"/>
      <path d="M32.65 37.2 L32.3 37.0 32.25 36.95 32.15 36.9 31.5 36.5 31.4 36.5 30.8 36.0 30.7 36.0 30.2 35.65 29.75 35.35 29.3 35.0 29.15 34.95 29.05 34.85 28.95 34.75 Q28.8 34.6 28.7 34.6 L28.5 34.4 28.25 34.25 28.2 34.2 28.1 34.1 27.25 33.5 26.9 33.3 26.75 33.15 26.45 32.9 26.35 32.85 25.95 32.6 25.75 32.45 24.25 31.65 24.2 31.65 24.05 31.6 23.95 31.55 23.8 31.45 23.75 31.4 23.55 31.25 23.4 31.25 23.2 31.15 19.95 29.65 19.45 29.5 19.35 29.45 19.25 29.4 18.85 29.2 18.6 29.15 18.45 29.05 18.1 28.95 18.05 28.95 16.45 28.45 16.3 28.4 16.2 28.4 15.85 28.35 15.8 28.35 15.6 28.35 14.85 28.4 14.8 28.4 12.7 28.55 12.65 28.55 12.7 28.5 13.9 26.35 13.9 26.3 14.2 25.85 14.25 25.5 14.05 24.85 13.9 24.15 13.75 23.8 13.65 23.75 13.5 23.35 13.3 22.85 13.1 22.65 12.25 21.0 12.15 20.95 11.8 20.4 11.8 20.35 10.85 19.05 10.65 18.9 10.65 18.85 9.95 18.05 10.45 18.35 10.75 18.45 11.8 19.1 12.55 19.5 12.9 19.7 13.25 20.35 14.0 21.95 14.4 22.85 14.65 23.6 14.7 23.65 15.65 26.2 15.7 26.4 16.6 26.5 18.2 26.8 18.3 27.1 18.35 27.35 19.35 27.9 22.05 29.2 22.3 29.3 23.8 30.0 26.15 31.1 26.25 30.9 26.2 30.8 26.15 30.7 26.05 30.2 26.0 29.95 25.95 29.8 25.8 29.25 25.8 29.05 25.6 28.6 25.55 28.3 25.65 28.15 25.7 28.1 25.8 28.25 26.15 28.45 26.3 28.5 26.5 28.65 26.95 28.95 27.25 30.15 27.25 30.35 27.25 30.4 27.3 30.65 27.35 30.75 27.55 31.55 27.55 31.6 27.7 31.65 28.4 32.05 30.1 33.0 30.25 33.15 30.4 33.25 30.45 33.25 30.5 33.3 30.9 33.5 31.35 33.7 32.2 34.2 Q32.9 35.55 33.25 36.85 L33.25 37.55 33.1 37.2 32.65 37.2" fill="#4c460b" fill-rule="evenodd" stroke="none"/>
      <path d="M12.9 19.7 L13.25 19.9 13.65 20.15 14.7 20.75 14.75 20.8 15.05 20.95 15.5 21.2 15.6 21.3 16.05 21.6 16.15 21.7 Q16.3 21.75 16.45 21.9 L16.6 22.1 17.0 22.55 17.25 22.85 17.3 22.95 17.75 23.4 18.15 23.8 18.4 24.1 18.9 24.85 19.45 25.8 19.7 26.2 20.0 26.95 20.05 27.1 20.15 27.3 20.2 27.4 20.2 27.45 20.2 27.55 20.4 27.6 20.6 27.75 22.35 28.7 22.5 28.85 22.3 29.3 22.05 29.2 19.35 27.9 18.35 27.35 18.3 27.1 18.2 26.8 17.7 25.7 17.25 24.85 16.6 23.75 16.55 23.65 16.0 23.3 15.35 22.9 14.0 21.95 13.25 20.35 12.9 19.7" fill="#4aaa1c" fill-rule="evenodd" stroke="none"/>
      <path d="M39.4 36.5 L39.05 36.85 39.0 36.8 39.4 36.5 M32.95 37.4 L32.65 37.2 33.1 37.2 32.95 37.4" fill="#6d0000" fill-rule="evenodd" stroke="none"/>
      <path d="M39.3 33.15 L39.3 33.3 39.75 32.8 39.95 32.55 40.1 32.5 40.1 32.45 40.5 32.05 40.55 32.05 40.9 31.65 41.2 31.4 41.4 31.2 41.5 31.1 41.85 30.8 41.85 30.95 41.9 31.05 41.55 32.1 41.5 32.3 41.5 32.5 41.5 32.65 44.05 30.5 44.05 30.45 43.95 30.4 43.95 30.35 43.9 30.3 43.85 30.15 43.9 29.55 44.6 27.3 44.85 26.7 45.15 26.2 45.35 26.0 45.6 25.55 45.65 25.5 45.8 25.3 46.3 24.45 46.4 24.25 46.6 24.2 46.4 24.6 46.25 25.25 46.1 26.45 46.1 26.6 46.1 27.1 46.1 27.15 46.2 27.75 46.25 27.85 46.35 28.3 46.35 28.35 46.4 28.5 46.45 28.6 46.7 29.0 46.95 29.4 M39.25 33.3 L39.3 33.3 38.95 34.65 38.95 34.75 38.9 35.35 38.85 35.65 38.7 37.0 M39.3 33.3 L39.15 33.8" fill="none" stroke="#7e5300" stroke-linecap="round" stroke-linejoin="round" stroke-width="1.0"/>
      <path d="M17.7 17.15 Q16.85 16.2 16.3 14.65 L15.85 13.35 15.65 12.55 15.6 12.2 15.55 12.1 15.2 10.05 15.1 8.95 15.05 8.85 15.0 7.35 15.0 7.15 14.9 7.0 14.6 6.65 13.6 5.3 12.95 4.55 12.35 3.8 12.0 3.45 11.85 3.25 11.8 3.2 10.9 2.15 10.45 2.15 10.3 2.15 9.7 2.1 9.3 2.1 8.5 2.15 8.15 2.2 8.05 2.2 7.25 2.3 6.75 2.4 6.0 2.65 5.75 2.7 5.65 2.7 4.55 3.2 4.5 3.2 3.75 3.65 3.7 3.55 3.3 3.2 3.1 2.9 1.6 1.2 1.55 1.15 0.45 -0.6 M7.85 -0.6 L8.2 1.1 8.25 1.1 8.3 1.3 8.15 2.2 M24.5 -0.6 L24.55 -0.45 24.85 0.5 26.65 0.8 28.85 1.4 30.6 2.1 30.7 2.15 31.15 2.35 31.85 2.65 Q34.15 3.65 35.85 4.75 L35.85 4.6 Q35.85 2.5 35.25 -0.6 M37.45 -0.6 L40.1 2.35 Q43.0 5.9 45.2 10.55 L45.4 10.95 47.1 15.05 47.1 14.95 47.1 14.9 47.3 14.2 47.45 13.1 Q47.45 12.2 46.95 11.05 L46.75 10.55 46.1 9.6 Q46.65 8.5 47.65 7.15 L48.0 6.65 48.65 5.8 Q49.65 4.6 50.55 4.15 L50.6 4.1 50.55 3.4 50.55 2.95 49.55 -0.6 M49.65 -0.6 L51.85 2.7 52.6 4.15 52.95 4.8 53.9 7.7 53.95 8.55 53.7 9.25 53.6 9.6 M53.2 9.6 L52.75 9.75 52.05 10.25 Q51.05 11.1 50.4 12.85 L50.4 12.95 Q50.15 13.8 50.05 14.6 49.9 15.4 50.05 16.2 L50.1 16.55 50.15 16.8 50.15 16.9 51.35 15.8 51.55 15.55 52.9 14.15 52.95 14.1 52.95 14.3 53.05 15.4 53.1 18.2 52.85 19.85 52.3 20.1 Q52.0 20.3 51.6 20.65 50.85 21.25 50.05 22.3 L49.9 22.45 M49.9 22.5 L48.65 24.25 48.1 25.7 49.45 25.5 49.65 25.45 51.0 25.05 50.95 25.4 50.65 26.3 50.4 26.95 50.35 27.1 49.75 28.1 49.5 28.45 49.45 28.45 48.75 28.65 Q48.15 28.8 47.65 29.05 L46.95 29.4 46.85 29.5 46.8 29.5 46.6 29.6 46.05 30.0 45.95 30.0 45.8 30.15 Q45.15 32.1 45.1 33.7 L45.05 34.4 45.1 35.4 45.25 37.2 45.95 40.7 46.1 41.3 44.5 42.7 41.0 45.95 40.95 46.0 39.8 47.2 40.15 49.45 40.15 49.5 Q40.75 51.45 42.1 53.35 M8.7 53.35 L9.0 52.85 9.7 52.5 Q13.1 50.6 15.0 48.15 L15.15 48.05 15.75 47.15 14.95 46.95 13.85 46.75 12.85 46.6 9.0 46.3 8.7 46.3 7.1 45.15 5.8 44.05 5.65 43.9 4.0 42.3 4.1 42.3 Q5.6 42.3 6.85 41.55 L7.25 41.35 Q8.05 40.8 8.05 40.25 L8.05 40.15 7.55 40.15 7.1 40.15 Q5.25 40.05 3.2 39.2 L1.65 38.4 1.25 38.25 1.3 37.8 Q1.3 36.65 0.95 35.7 L0.6 34.8 0.6 34.75 M0.35 34.3 L-0.55 33.2 M-0.55 28.3 L0.2 28.45 Q0.45 29.65 1.15 30.9 L2.15 32.3 3.0 33.25 3.7 33.3 4.85 33.1 5.75 32.75 6.55 32.35 7.95 30.95 7.0 29.1 6.8 29.1 6.75 29.1 5.85 29.05 5.8 29.05 4.35 28.85 3.7 28.75 3.4 28.7 3.3 28.65 2.95 28.55 2.9 28.55 2.05 28.25 1.55 28.0 1.55 27.95 0.2 27.25 0.1 27.15 -0.25 26.9 -0.55 26.65 M-0.55 25.0 L-0.1 25.0 0.1 25.0 1.35 24.75 2.45 24.25 2.7 24.1 2.75 24.1 3.15 23.8 3.3 23.75 3.45 23.65 2.95 22.9 2.25 21.8 Q1.35 20.3 0.75 18.7 L0.55 18.1 0.5 18.1 0.1 18.1 -0.15 18.1 -0.55 18.1 M25.0 11.7 L27.35 13.2 28.0 13.7 28.6 14.2 29.8 15.4 30.55 16.2 30.1 16.45 29.95 16.5 29.7 16.75 29.3 17.2 29.25 17.3 28.8 18.2 Q28.5 19.0 28.45 20.05 L28.45 20.5 28.45 20.8 28.8 23.45 29.8 24.25 30.4 24.75 30.9 25.1 31.2 25.4 31.9 25.95 32.7 26.6 33.4 27.1 33.45 27.15 34.05 27.55 35.8 28.85 36.4 29.2 36.9 29.55 37.05 29.65 37.15 29.7 37.25 29.8 37.3 29.65 37.4 29.5 37.5 29.4 37.6 29.3 37.7 29.15 38.5 27.9 38.9 27.35 39.3 26.8 39.9 25.9 40.1 25.7 40.85 24.5 41.1 24.0 41.35 23.7 41.75 23.05 41.75 22.85 41.7 22.2 41.65 22.05 41.55 21.35 41.05 20.0 40.4 18.55 40.15 18.2 39.45 17.15 39.85 16.25 39.95 16.0 40.4 15.1 41.25 13.85 41.35 13.75 41.55 13.4 42.2 12.7 42.75 12.2 43.15 11.85 42.95 12.8 42.95 13.4 43.15 14.8 43.9 16.05 43.9 16.1 44.8 16.95 44.85 17.0 45.3 17.3 45.75 16.95 45.8 16.9 46.8 15.6 46.8 15.55 47.1 15.05 M38.65 6.95 L36.4 5.1 35.85 4.75 M9.05 12.65 L8.6 12.45 7.95 12.15 7.9 12.15 7.5 11.95 7.35 11.9 7.3 11.9 7.3 11.85 6.8 11.7 6.55 11.65 5.7 11.3 5.65 11.3 5.55 11.3 5.45 11.25 5.05 11.1 4.55 11.0 4.25 10.95 4.1 10.9 3.6 10.8 3.4 10.75 3.35 10.75 3.15 10.7 2.45 10.6 2.4 10.6 1.3 10.7 0.6 10.8 -0.55 11.2 M48.0 19.6 L48.05 19.5 48.2 19.4 49.5 17.75 49.75 17.3 49.9 17.1 50.05 16.85 50.05 16.8 50.1 16.55 M52.95 14.3 L52.9 14.15 M41.65 34.2 L42.0 33.8 42.95 32.8 43.1 32.65 43.95 31.8 44.15 31.6 44.5 31.25 45.1 30.7 45.25 30.6 45.35 30.5 45.8 30.15 M41.4 34.4 L41.5 34.35 41.65 34.2 M41.4 34.4 L41.1 34.75 40.85 35.05 39.9 36.0 39.6 36.35 39.4 36.5 39.05 36.85 38.85 37.05 38.75 37.15 38.65 37.25 38.0 37.8 36.6 38.9 36.3 39.1 36.2 39.0 36.1 39.0 36.05 39.0 36.05 38.95 35.85 38.85 35.55 38.7 35.45 38.7 34.75 38.4 34.35 38.2 34.3 38.15 33.55 37.75 33.25 37.6 M33.15 37.5 L32.95 37.4 32.65 37.2 32.3 37.0 32.25 36.95 32.15 36.9 31.5 36.5 31.4 36.5 30.8 36.0 30.7 36.0 30.2 35.65 29.75 35.35 29.3 35.0 29.15 34.95 29.05 34.85 28.95 34.75 Q28.8 34.6 28.7 34.6 L28.5 34.4 28.25 34.25 28.2 34.2 28.1 34.1 27.25 33.5 26.9 33.3 26.75 33.15 26.45 32.9 26.35 32.85 25.95 32.6 25.75 32.45 24.25 31.65 24.2 31.65 24.05 31.6 23.95 31.55 23.8 31.45 23.75 31.4 23.55 31.25 23.4 31.25 23.2 31.15 19.95 29.65 19.45 29.5 19.35 29.45 19.25 29.4 18.85 29.2 18.6 29.15 18.45 29.05 18.1 28.95 18.05 28.95 16.45 28.45 16.3 28.4 16.2 28.4 15.85 28.35 15.8 28.35 15.6 28.35 14.85 28.4 14.8 28.4 12.7 28.55 12.65 28.55 12.3 28.6 10.9 28.7 10.05 28.8 8.05 29.0 7.0 29.1 M22.2 10.65 L21.85 10.55 22.75 12.1 22.75 12.15 22.8 12.15 22.85 12.4 23.6 14.05 24.1 15.7 24.35 17.6 24.3 18.0 23.8 18.4 23.6 18.5 23.45 18.55 22.05 19.1 21.7 19.15 20.5 19.0 19.5 18.65 19.0 18.4 18.8 18.25 18.65 18.15 18.15 17.7 18.05 17.6 17.7 17.15 M23.75 11.1 L23.65 11.1 22.2 10.65 M25.0 11.7 L24.2 11.3 23.75 11.1 M9.9 13.15 L9.35 12.85 9.05 12.65 M0.55 18.1 L1.55 18.3 1.7 18.4 2.35 18.6 3.0 18.95 3.0 19.0 3.3 19.2 3.65 19.6 3.75 19.7 3.9 19.9 3.95 20.05 4.0 20.1 4.05 20.15 Q4.4 20.8 4.4 21.55 L4.4 21.6 4.35 21.9 4.35 22.05 Q4.2 22.95 3.45 23.65 M15.75 47.15 L16.05 47.25 Q18.15 47.85 19.65 48.85 L20.6 49.0 27.55 50.1 28.65 50.3 30.55 50.45 31.15 50.45 32.5 50.5 35.85 50.25 37.0 50.05 37.45 49.5 37.85 49.05 38.4 48.55 39.25 47.7 39.8 47.2" fill="none" stroke="#6d0000" stroke-linecap="round" stroke-linejoin="round" stroke-width="1.0"/>
      <path d="M27.65 29.4 L28.6 30.0 29.25 30.45 29.9 30.9 30.15 31.1 30.35 31.3 30.55 31.5 30.85 31.9 31.2 32.5 31.35 32.6 31.4 32.8 31.5 32.85 31.55 32.95 31.55 33.0 32.15 34.1 M11.8 20.4 L11.8 20.35 10.85 19.05 10.65 18.9 10.65 18.85 9.95 18.05 10.45 18.35 10.75 18.45 11.8 19.1 12.55 19.5 12.9 19.7 13.25 19.9 13.65 20.15 14.7 20.75 14.75 20.8 15.05 20.95 15.5 21.2 15.6 21.3 16.05 21.6 16.15 21.7 Q16.3 21.75 16.45 21.9 L16.6 22.1 17.0 22.55 17.25 22.85 17.3 22.95 17.75 23.4 17.4 22.95 17.4 22.9 M25.8 29.05 L25.6 28.6 25.55 28.3 25.65 28.15 25.7 28.1 25.8 28.25 26.15 28.45 26.3 28.5 26.5 28.65 26.95 28.95 27.35 29.2 27.65 29.4 M11.8 20.4 L12.15 20.95 12.25 21.0 13.1 22.65 13.3 22.85 13.5 23.35 13.65 23.75 13.75 23.8 13.9 24.15 14.05 24.85 14.25 25.5 M14.2 25.85 L13.9 26.3 13.9 26.35 12.7 28.5 12.65 28.55 M20.2 27.4 L20.15 27.3 20.05 27.1 20.0 26.95 19.7 26.2 19.45 25.8 18.9 24.85 18.4 24.1 18.15 23.8 17.75 23.4 M33.25 37.55 L33.25 36.85 Q32.9 35.55 32.2 34.2 M26.25 30.9 L26.2 30.8 26.15 30.7 26.05 30.2 26.0 29.95 25.95 29.8 25.8 29.25 25.8 29.05 M24.7 30.0 L26.25 30.9 M23.4 29.25 L23.25 29.15 23.1 29.05 22.65 28.8 20.05 27.1 M23.4 29.25 L23.45 29.25 23.9 29.5 24.3 29.8 24.7 30.0" fill="none" stroke="#664300" stroke-linecap="round" stroke-linejoin="round" stroke-width="1.0"/>
      <path d="M28.5 34.4 L27.6 35.2 26.55 36.15 25.85 36.65 25.4 37.05 25.3 37.1 25.2 37.2 23.55 36.95 22.9 36.85 20.8 36.45 20.6 36.4 20.45 36.35 20.4 36.35 20.2 36.3 19.1 36.05 18.95 35.8 16.65 32.25 14.75 29.05 15.1 28.95 16.2 28.4 M23.0 29.1 L23.05 29.1" fill="none" stroke="#550000" stroke-linecap="round" stroke-linejoin="round" stroke-width="1.0"/>
    </g>
    <g id="shape2" transform="matrix(1.0, 0.0, 0.0, 1.0, 0.0, 0.0)">
      <path d="M50.5 0.0 Q53.95 0.0 53.95 3.3 L53.95 50.15 Q53.95 53.4 50.5 53.4 L3.3 53.4 Q0.0 53.4 0.0 50.15 L0.0 3.3 Q0.0 0.0 3.3 0.0 L50.5 0.0" fill="#000000" fill-opacity="0.003921569" fill-rule="evenodd" stroke="none"/>
    </g>
  </defs>
</svg>
