<?xml version="1.0" encoding="UTF-8" standalone="no"?>
<svg xmlns:ffdec="https://www.free-decompiler.com/flash" xmlns:xlink="http://www.w3.org/1999/xlink" ffdec:objectType="frame" height="55.9px" width="57.75px" xmlns="http://www.w3.org/2000/svg">
  <g transform="matrix(1.0, 0.0, 0.0, 1.0, 0.95, 0.5)">
    <clipPath id="clipPath0" transform="matrix(1.0, 0.0, 0.0, 1.0, 0.0, 0.0)">
      <path d="M50.5 0.0 Q53.95 0.0 53.95 3.3 L53.95 50.15 Q53.95 53.4 50.5 53.4 L3.3 53.4 Q0.0 53.4 0.0 50.15 L0.0 3.3 Q0.0 0.0 3.3 0.0 L50.5 0.0" fill="#000000" fill-rule="evenodd" stroke="none"/>
    </clipPath>
    <g clip-path="url(#clipPath0)">
      <use ffdec:characterId="2" height="55.9" transform="matrix(1.0, 0.0, 0.0, 1.0, -0.95, -0.5)" width="57.75" xlink:href="#shape1"/>
    </g>
    <use ffdec:characterId="3" height="53.4" transform="matrix(1.0, 0.0, 0.0, 1.0, 0.0, 0.0)" width="53.95" xlink:href="#shape2"/>
  </g>
  <defs>
    <g id="shape1" transform="matrix(1.0, 0.0, 0.0, 1.0, 0.95, 0.5)">
      <path d="M41.25 23.7 L41.15 23.3 41.05 22.7 Q40.4 20.35 39.05 18.55 L38.35 17.7 37.95 18.3 37.4 19.1 Q34.85 22.75 32.15 25.65 L31.4 24.75 29.8 22.75 29.65 22.6 29.0 21.75 28.95 21.7 22.75 14.0 20.4 11.25 17.1 7.95 16.0 7.0 Q14.9 6.2 13.55 5.55 12.0 4.8 10.1 4.3 L9.85 1.2 Q13.15 2.55 16.15 4.75 L18.35 6.55 Q20.35 8.3 22.25 10.55 L25.15 14.25 28.4 18.85 32.15 24.1 32.2 24.15 33.65 22.3 35.95 19.05 36.95 17.45 37.35 16.9 38.35 15.15 38.4 15.2 38.9 15.9 Q41.65 19.85 43.1 24.3 L43.45 27.9 41.25 23.7 M37.0 41.9 L37.95 40.55 Q39.3 38.45 40.1 36.6 L40.4 35.8 40.95 35.2 43.35 32.25 42.7 35.95 40.1 39.05 37.05 41.9 37.0 41.9 M41.05 33.1 L41.2 32.5 41.4 30.7 41.5 26.5 43.55 30.1 41.05 33.1" fill="#f2f5f9" fill-rule="evenodd" stroke="none"/>
      <path d="M37.05 54.9 L31.8 54.9 31.35 47.1 Q32.25 46.5 33.3 45.85 L33.6 46.55 33.7 46.85 35.05 50.0 36.0 52.25 37.05 54.9 M28.7 54.9 L15.25 54.9 15.1 54.0 Q15.1 52.4 15.7 51.45 16.4 50.5 17.6 50.5 19.8 50.5 23.55 52.3 L27.25 54.15 28.7 54.9 M36.95 17.45 L35.95 19.05 Q35.15 18.75 34.55 17.75 L34.3 17.25 33.9 15.95 33.9 15.55 Q33.85 15.1 34.15 15.0 L31.4 11.9 29.9 10.85 29.6 10.65 30.0 10.7 30.3 10.8 30.5 10.85 Q33.25 11.65 35.4 14.15 35.0 14.6 34.95 15.25 34.85 16.25 35.4 16.85 36.0 17.4 36.75 17.45 L36.95 17.45 M25.6 34.6 L25.75 33.75 26.15 32.15 Q27.35 32.35 28.05 32.95 L28.45 34.3 28.5 34.35 29.15 35.7 29.65 36.45 31.75 38.65 Q32.85 39.45 34.2 39.8 L36.25 43.55 35.5 43.55 Q34.3 43.3 33.25 42.05 L27.0 34.9 25.6 34.6 M21.65 47.35 Q22.55 46.0 24.1 45.0 L24.9 44.55 27.9 46.8 27.9 47.2 27.9 50.4 27.6 50.95 21.65 47.35" fill="#847697" fill-rule="evenodd" stroke="none"/>
      <path d="M41.45 54.9 L38.55 54.9 36.5 51.0 37.25 51.4 38.9 51.85 39.75 51.9 39.95 51.1 Q39.95 48.55 36.5 47.45 L34.1 46.9 33.85 46.5 34.8 46.4 35.2 46.35 35.6 46.4 Q38.35 46.5 40.35 48.5 41.45 49.55 41.95 50.9 L42.45 53.0 41.5 54.8 41.45 54.9 M11.95 54.9 L10.25 54.9 11.15 51.65 11.3 48.8 Q11.1 46.7 10.3 45.1 L11.65 44.3 14.5 46.1 Q12.1 47.55 11.9 52.95 L11.95 54.9 M55.5 44.6 L56.3 43.3 56.3 48.35 55.3 45.1 55.3 45.05 55.45 44.7 55.5 44.6 M28.4 18.85 L25.15 14.25 22.25 10.55 Q25.3 9.65 29.1 10.5 28.55 11.15 28.25 13.8 L28.2 14.75 Q28.05 16.65 28.4 18.85 M16.75 19.75 L16.8 21.65 16.9 22.4 Q18.2 26.75 19.45 27.45 L21.55 28.55 23.7 29.1 25.0 29.4 22.9 29.9 Q21.3 30.6 20.9 31.2 20.6 31.6 20.45 32.6 L20.25 34.0 Q19.95 36.55 20.55 39.4 L20.8 40.3 21.25 40.9 22.45 42.2 22.5 42.25 Q21.05 42.75 19.5 43.5 19.15 43.6 18.85 43.85 L18.7 43.9 Q17.95 44.25 17.3 44.7 L13.2 42.15 14.05 42.45 14.1 42.4 16.9 36.9 17.0 37.0 17.75 37.4 17.2 36.35 16.15 34.1 15.05 31.45 Q13.65 27.8 14.1 23.65 L14.3 22.3 Q14.65 19.65 15.3 17.9 L16.75 19.75" fill="#3c374e" fill-rule="evenodd" stroke="none"/>
      <path d="M25.8 29.5 L27.4 31.0 29.45 32.3 Q28.9 33.55 29.35 35.05 30.75 37.65 34.15 38.9 L33.6 36.2 31.95 33.9 32.45 34.2 37.0 41.85 37.0 41.9 37.05 41.9 40.1 39.05 39.95 39.5 39.25 41.45 37.6 42.7 37.15 43.0 36.55 43.5 36.25 43.55 34.2 39.8 Q32.85 39.45 31.75 38.65 L29.65 36.45 29.15 35.7 28.5 34.35 28.45 34.3 28.05 32.95 Q27.35 32.35 26.15 32.15 L25.75 33.75 25.6 34.6 25.35 34.6 25.25 34.6 Q23.15 34.3 21.4 35.2 20.65 38.2 21.25 40.9 L20.8 40.3 20.55 39.4 Q19.95 36.55 20.25 34.0 L20.45 32.6 Q20.6 31.6 20.9 31.2 21.3 30.6 22.9 29.9 L25.0 29.4 25.8 29.5 M47.1 54.85 L47.2 54.9 47.1 54.9 47.1 54.85 M15.25 54.9 L11.95 54.9 11.9 52.95 Q12.1 47.55 14.5 46.1 L14.7 46.2 27.25 54.15 23.55 52.3 Q19.8 50.5 17.6 50.5 16.4 50.5 15.7 51.45 15.1 52.4 15.1 54.0 L15.25 54.9 M11.3 41.2 L12.65 41.8 13.2 42.15 17.3 44.7 Q17.95 44.25 18.7 43.9 L18.85 43.85 Q19.15 43.6 19.5 43.5 21.05 42.75 22.5 42.25 L24.9 44.55 24.1 45.0 Q22.55 46.0 21.65 47.35 L27.6 50.95 29.35 52.05 29.25 47.55 29.55 47.75 29.55 52.2 21.9 47.6 16.95 44.65 11.3 41.2 M56.3 43.0 L56.3 43.3 55.5 44.6 56.15 43.05 56.3 43.0 M35.95 19.05 L33.65 22.3 32.2 24.15 32.15 24.1 28.4 18.85 Q28.05 16.65 28.2 14.75 L28.25 13.8 Q28.55 11.15 29.1 10.5 L29.6 10.65 29.9 10.85 31.4 11.9 34.15 15.0 Q33.85 15.1 33.9 15.55 L33.9 15.95 34.3 17.25 34.55 17.75 Q35.15 18.75 35.95 19.05 M17.3 44.7 L21.65 47.35 17.3 44.7 M34.1 46.9 L36.5 47.45 Q39.95 48.55 39.95 51.1 L39.75 51.9 38.9 51.85 37.25 51.4 36.5 51.0 34.1 46.9" fill="#4f4660" fill-rule="evenodd" stroke="none"/>
      <path d="M41.25 23.7 L40.95 23.2 34.65 28.95 34.55 29.1 40.0 36.2 40.4 35.8 40.1 36.6 Q39.3 38.45 37.95 40.55 L37.0 41.9 37.0 41.85 32.45 34.2 31.95 33.9 29.45 32.3 27.4 31.0 25.8 29.5 25.7 29.3 24.45 26.95 23.65 23.95 Q22.6 19.8 20.2 17.0 18.8 15.35 16.85 14.25 L16.75 14.2 15.7 13.65 14.2 12.65 13.2 11.6 Q15.65 12.65 17.05 13.5 L17.25 13.65 Q19.3 14.8 20.85 16.75 22.2 18.25 22.9 19.5 L23.95 21.75 25.4 26.3 26.5 28.3 33.35 33.0 37.4 39.9 38.05 38.7 38.95 36.2 33.2 28.65 38.95 22.75 38.25 20.7 Q35.55 24.55 31.7 27.6 L20.8 14.15 19.0 12.1 15.7 9.15 13.4 7.65 Q12.1 6.9 10.75 6.45 L10.65 6.4 10.1 4.3 Q12.0 4.8 13.55 5.55 14.9 6.2 16.0 7.0 L17.1 7.95 20.4 11.25 22.75 14.0 28.95 21.7 29.0 21.75 29.65 22.6 29.8 22.75 31.4 24.75 32.15 25.65 Q34.85 22.75 37.4 19.1 L37.95 18.3 38.35 17.7 39.05 18.55 Q40.4 20.35 41.05 22.7 L41.15 23.3 41.25 23.7 M41.5 26.5 L41.4 30.7 41.2 32.5 41.05 33.1 38.05 29.25 38.0 29.2 41.5 26.5 M30.5 10.85 L30.45 10.45 Q30.1 8.9 30.4 7.0 L31.0 3.65 Q34.95 7.75 36.65 14.0 L37.25 16.8 35.4 14.15 Q33.25 11.65 30.5 10.85 M30.3 10.8 L30.0 10.7 30.05 10.55 29.95 10.2 30.3 10.8 M22.6 23.5 L20.2 22.25 Q20.25 20.95 19.1 19.4 L17.95 18.1 Q16.9 17.0 15.95 16.45 L15.4 16.15 Q14.9 15.9 14.45 15.8 L14.3 14.95 15.8 15.5 16.25 15.7 18.8 17.65 18.85 17.7 20.2 19.05 Q22.05 21.25 22.6 23.5 M16.8 21.65 Q18.45 22.25 19.65 22.95 L20.0 23.15 Q21.2 23.85 21.9 24.6 23.5 26.3 23.7 29.1 L21.55 28.55 21.25 28.15 21.5 27.55 Q21.6 26.25 20.5 24.9 L19.7 24.1 Q18.6 23.1 16.9 22.4 L16.8 21.65" fill="#acadc4" fill-rule="evenodd" stroke="none"/>
      <path d="M34.65 28.95 L40.95 23.2 41.25 23.7 41.5 25.65 37.05 29.1 34.65 28.95 M38.05 29.25 L41.05 33.1 40.95 33.75 40.9 33.9 37.05 29.1 38.05 29.25 M31.8 54.9 L30.3 54.9 20.75 48.85 21.05 48.25 16.15 45.15 16.95 44.65 21.9 47.6 Q21.3 47.9 21.05 48.25 L30.5 53.7 30.35 47.75 30.4 47.65 31.35 47.1 31.8 54.9 M10.25 54.9 L8.85 54.9 1.05 54.9 -0.3 54.0 -0.45 53.85 -0.45 41.5 0.15 41.45 4.4 42.2 4.25 42.2 3.95 42.65 3.75 43.35 Q3.75 44.05 4.35 44.75 L5.85 45.85 5.95 45.9 6.6 46.0 6.8 46.0 7.3 45.85 Q8.0 45.6 8.05 45.05 L8.2 45.15 8.75 46.45 9.05 47.25 9.15 47.6 9.4 50.05 9.05 53.9 8.85 54.9 9.15 54.6 11.15 51.65 10.25 54.9 M35.9 44.0 L37.65 43.65 38.9 43.6 Q41.55 43.6 43.6 44.85 45.95 46.25 45.95 48.55 45.95 50.3 44.65 50.3 43.9 50.3 43.15 49.9 L42.25 48.6 Q40.6 46.3 37.3 45.85 L35.2 45.65 35.2 45.4 Q35.2 44.7 35.9 44.0 M22.45 42.2 L21.25 40.9 Q20.65 38.2 21.4 35.2 23.15 34.3 25.25 34.6 L25.35 34.6 25.6 34.6 25.4 35.85 25.45 35.85 26.6 36.0 32.65 42.9 Q32.5 43.95 31.75 44.85 L31.25 45.35 30.3 46.05 29.55 46.5 29.3 46.6 29.2 46.45 28.1 45.0 28.05 44.95 27.8 44.6 27.5 44.15 27.25 43.7 27.15 43.55 26.45 42.45 26.25 42.05 25.9 41.35 25.7 40.8 Q25.3 39.6 25.25 38.5 L25.4 36.2 25.4 35.85 25.1 35.85 24.65 35.8 24.5 35.8 24.35 35.8 Q23.25 35.75 22.2 36.2 L22.05 37.4 Q21.6 40.35 22.45 42.2" fill="#779dc4" fill-rule="evenodd" stroke="none"/>
      <path d="M37.05 29.1 L41.5 25.65 41.25 23.7 43.45 27.9 43.55 30.1 41.5 26.5 38.0 29.2 38.05 29.25 37.05 29.1 M56.3 37.4 L55.7 37.0 Q55.25 36.6 55.25 36.3 55.25 35.85 55.7 35.65 L56.15 35.65 56.3 35.75 56.3 37.4 M41.05 33.1 L43.55 30.1 43.35 32.25 40.95 35.2 40.4 35.8 40.9 33.9 40.95 33.75 41.05 33.1 M37.6 42.7 L37.7 42.65 Q41.45 41.75 45.15 44.35 47.1 46.1 47.75 48.25 47.65 49.65 47.15 50.6 46.55 51.7 45.7 51.7 44.6 51.7 44.25 51.35 L43.15 49.9 Q43.9 50.3 44.65 50.3 45.95 50.3 45.95 48.55 45.95 46.25 43.6 44.85 41.55 43.6 38.9 43.6 L37.65 43.65 35.9 44.0 35.55 44.3 33.4 45.8 33.3 45.85 Q32.25 46.5 31.35 47.1 L30.4 47.65 30.35 47.75 30.25 47.75 30.35 47.75 30.5 53.7 21.05 48.25 Q21.3 47.9 21.9 47.6 L29.55 52.2 29.55 47.75 29.95 47.95 30.25 47.75 30.2 47.75 29.55 46.9 29.3 46.6 29.55 46.5 30.3 46.05 31.25 45.35 31.75 44.85 Q32.5 43.95 32.65 42.9 L26.6 36.0 25.45 35.85 25.4 35.85 25.6 34.6 27.0 34.9 33.25 42.05 Q34.3 43.3 35.5 43.55 L36.25 43.55 36.55 43.5 37.15 43.0 37.6 42.7 M-0.45 41.5 L-0.45 40.2 2.05 40.05 4.7 40.35 Q7.7 41.4 9.4 43.55 L10.3 45.1 Q11.1 46.7 11.3 48.8 L11.15 51.65 9.15 54.6 8.85 54.9 9.05 53.9 9.4 50.05 9.15 47.6 9.05 47.25 8.75 46.45 8.2 45.15 8.05 45.05 Q8.0 45.6 7.3 45.85 L6.8 46.0 6.6 46.0 5.95 45.9 5.85 45.85 4.35 44.75 Q3.75 44.05 3.75 43.35 L3.95 42.65 4.25 42.2 4.4 42.2 0.15 41.45 -0.45 41.5 M36.55 43.5 L36.3 43.65 35.9 44.0 36.3 43.65 36.55 43.5" fill="#bfe1ed" fill-rule="evenodd" stroke="none"/>
      <path d="M34.65 28.95 L37.05 29.1 40.9 33.9 40.4 35.8 40.0 36.2 34.55 29.1 34.65 28.95 M47.75 48.25 Q48.25 49.95 47.9 51.95 L47.4 52.45 Q46.45 53.2 45.35 53.2 L44.4 53.05 44.25 53.0 44.25 53.4 44.15 54.55 44.05 54.9 42.4 54.9 42.5 53.65 42.45 53.0 41.95 50.9 Q41.45 49.55 40.35 48.5 38.35 46.5 35.6 46.4 L35.2 46.35 34.8 46.4 33.85 46.5 33.4 45.8 35.55 44.3 35.9 44.0 Q35.2 44.7 35.2 45.4 L35.2 45.65 37.3 45.85 Q40.6 46.3 42.25 48.6 L43.15 49.9 44.25 51.35 Q44.6 51.7 45.7 51.7 46.55 51.7 47.15 50.6 47.65 49.65 47.75 48.25 M30.3 54.9 L28.7 54.9 27.25 54.15 14.7 46.2 16.0 45.25 16.15 45.15 9.9 41.4 11.3 41.2 16.95 44.65 16.15 45.15 21.05 48.25 20.75 48.85 30.3 54.9 M1.05 54.9 L-0.45 54.9 -0.45 53.85 -0.3 54.0 1.05 54.9 M22.5 42.25 L22.45 42.2 Q21.6 40.35 22.05 37.4 L22.2 36.2 Q23.25 35.75 24.35 35.8 L24.5 35.8 24.65 35.8 24.55 36.6 Q24.3 38.8 25.1 40.45 L25.7 41.4 26.25 42.05 26.45 42.45 27.15 43.55 27.25 43.7 27.5 44.15 27.8 44.6 28.05 44.95 28.1 45.0 29.2 46.45 29.3 46.6 29.55 46.9 30.2 47.75 30.25 47.75 29.95 47.95 29.55 47.75 29.25 47.55 28.55 47.2 27.9 46.8 24.9 44.55 22.5 42.25" fill="#4b6cb3" fill-rule="evenodd" stroke="none"/>
      <path d="M42.4 54.9 L41.45 54.9 41.5 54.8 42.45 53.0 42.5 53.65 42.4 54.9" fill="#322e41" fill-rule="evenodd" stroke="none"/>
      <path d="M47.9 51.95 L47.1 54.85 47.1 54.9 44.05 54.9 44.15 54.55 44.25 53.4 44.25 53.0 44.4 53.05 45.35 53.2 Q46.45 53.2 47.4 52.45 L47.9 51.95 M9.9 43.2 L9.9 41.4 16.15 45.15 16.0 45.25 14.7 46.2 14.5 46.1 11.65 44.3 9.9 43.2 M24.65 35.8 L25.1 35.85 25.4 35.85 25.4 36.2 25.25 38.5 Q25.3 39.6 25.7 40.8 L25.9 41.35 26.25 42.05 25.7 41.4 25.1 40.45 Q24.3 38.8 24.55 36.6 L24.65 35.8" fill="#344b7c" fill-rule="evenodd" stroke="none"/>
      <path d="M9.4 43.55 L9.9 43.2 11.65 44.3 10.3 45.1 9.4 43.55 M12.65 41.8 L12.1 41.45 15.5 35.25 Q11.45 29.85 12.65 23.25 13.15 20.55 14.5 17.7 L14.9 17.0 15.3 17.9 Q14.65 19.65 14.3 22.3 L14.1 23.65 Q13.65 27.8 15.05 31.45 L16.15 34.1 17.2 36.35 17.75 37.4 17.0 37.0 16.9 36.9 14.1 42.4 14.05 42.45 13.2 42.15 12.65 41.8 M16.9 36.9 L15.5 35.25 16.9 36.9" fill="#778085" fill-rule="evenodd" stroke="none"/>
      <path d="M38.55 54.9 L37.05 54.9 36.0 52.25 35.05 50.0 33.7 46.85 33.6 46.55 33.3 45.85 33.4 45.8 33.85 46.5 34.1 46.9 36.5 51.0 38.55 54.9 M27.9 46.8 L28.55 47.2 29.25 47.55 29.35 52.05 27.6 50.95 27.9 50.4 27.9 47.2 27.9 46.8" fill="#b7abc1" fill-rule="evenodd" stroke="none"/>
      <path d="M48.85 35.6 L48.85 35.85 Q48.85 36.7 49.25 37.3 L49.95 36.6 Q51.15 35.85 52.85 36.1 54.55 36.4 55.75 37.6 L56.3 38.25 56.3 43.0 56.15 43.05 53.95 43.55 Q51.75 43.55 50.05 42.05 48.9 41.1 48.4 39.85 L48.15 38.55 Q47.95 36.9 48.85 35.6 M50.9 39.85 Q50.25 39.15 50.3 38.55 L50.5 38.1 50.65 37.95 50.9 37.8 50.65 37.95 50.5 38.1 50.3 38.55 Q50.25 39.15 50.9 39.85 L50.95 39.9 51.9 40.6 52.5 40.85 52.75 40.9 Q53.8 41.2 54.6 40.9 55.4 40.65 55.5 40.05 L55.5 39.85 55.35 39.35 54.9 38.65 Q54.2 38.0 53.15 37.7 L51.25 37.65 50.9 37.8 51.4 38.4 52.2 39.05 52.0 39.2 51.75 39.85 50.9 39.85" fill="#5b9aa3" fill-rule="evenodd" stroke="none"/>
      <path d="M56.3 35.75 L56.15 35.65 55.7 35.65 Q55.25 35.85 55.25 36.3 55.25 36.6 55.7 37.0 L56.3 37.4 56.3 38.25 55.75 37.6 Q54.55 36.4 52.85 36.1 51.15 35.85 49.95 36.6 L49.25 37.3 Q48.85 36.7 48.85 35.85 L48.85 35.6 49.3 35.0 Q50.7 33.55 52.85 33.55 54.75 33.55 56.3 34.65 L56.3 35.75 M51.75 39.85 L52.0 39.2 52.2 39.05 53.15 39.4 55.05 39.45 55.35 39.35 55.5 39.85 55.5 40.05 Q55.4 40.65 54.6 40.9 53.8 41.2 52.75 40.9 L52.5 40.85 51.9 40.6 51.75 39.85" fill="#72cbc7" fill-rule="evenodd" stroke="none"/>
      <path d="M10.65 6.4 L10.75 6.45 Q12.1 6.9 13.4 7.65 L15.7 9.15 19.0 12.1 20.8 14.15 31.7 27.6 Q35.55 24.55 38.25 20.7 L38.95 22.75 33.2 28.65 38.95 36.2 38.05 38.7 37.4 39.9 33.35 33.0 26.5 28.3 25.4 26.3 23.95 21.75 22.9 19.5 Q22.2 18.25 20.85 16.75 19.3 14.8 17.25 13.65 L17.05 13.5 Q15.65 12.65 13.2 11.6 L12.85 11.1 Q11.9 9.75 11.3 8.2 L10.7 6.45 10.65 6.4 M14.2 12.65 L15.7 13.65 16.75 14.2 16.85 14.25 Q18.8 15.35 20.2 17.0 22.6 19.8 23.65 23.95 L24.45 26.95 25.7 29.3 25.8 29.5 25.0 29.4 23.7 29.1 Q23.5 26.3 21.9 24.6 21.2 23.85 20.0 23.15 L19.65 22.95 Q18.45 22.25 16.8 21.65 L16.75 19.75 19.55 21.8 20.1 22.1 20.2 22.25 20.1 22.1 19.55 21.8 16.75 19.75 15.3 17.9 14.9 17.0 Q14.6 16.4 14.45 15.8 14.9 15.9 15.4 16.15 L15.95 16.45 Q16.9 17.0 17.95 18.1 L19.1 19.4 Q20.25 20.95 20.2 22.25 L22.6 23.5 23.65 23.95 22.6 23.5 Q22.05 21.25 20.2 19.05 L18.85 17.7 18.8 17.65 16.25 15.7 15.8 15.5 14.3 14.95 14.2 12.65 M38.4 15.2 L38.35 15.15 37.35 16.9 37.3 16.85 37.25 16.8 36.65 14.0 Q34.95 7.75 31.0 3.65 L30.4 7.0 Q30.1 8.9 30.45 10.45 L30.5 10.85 30.3 10.8 29.95 10.2 29.4 8.95 29.3 8.25 Q28.35 4.25 30.1 0.0 35.4 4.8 38.1 14.0 L38.4 15.2 M16.9 22.4 Q18.6 23.1 19.7 24.1 L20.5 24.9 Q21.6 26.25 21.5 27.55 L21.25 28.15 21.55 28.55 19.45 27.45 Q18.2 26.75 16.9 22.4" fill="#d7e1ea" fill-rule="evenodd" stroke="none"/>
      <path d="M29.45 32.3 L31.95 33.9 33.6 36.2 34.15 38.9 Q30.75 37.65 29.35 35.05 28.9 33.55 29.45 32.3 M-0.45 12.1 L-0.45 10.15 10.7 6.45 11.3 8.2 7.15 9.5 -0.45 12.1 M18.35 6.55 L16.15 4.75 18.8 3.95 Q23.95 3.55 26.9 5.85 L26.85 5.95 26.05 7.15 23.95 6.0 18.35 6.55 M31.5 34.8 L31.6 34.5 31.45 34.15 31.35 34.0 31.2 33.8 30.95 33.55 30.35 33.25 Q30.1 33.2 29.95 33.5 29.75 33.65 29.75 34.35 29.75 35.05 31.1 36.45 32.4 37.85 33.15 37.85 L31.35 35.3 31.5 34.8" fill="#87dcdf" fill-rule="evenodd" stroke="none"/>
      <path d="M13.2 11.6 L14.2 12.65 14.3 14.95 14.45 15.8 Q14.6 16.4 14.9 17.0 L14.5 17.7 Q13.15 20.55 12.65 23.25 5.85 27.4 -0.45 33.8 L-0.45 12.1 7.15 9.5 11.3 8.2 Q11.9 9.75 12.85 11.1 L13.2 11.6 M22.25 10.55 Q20.35 8.3 18.35 6.55 L23.95 6.0 26.05 7.15 26.85 5.95 26.9 5.85 Q28.45 7.05 29.4 8.95 L29.95 10.2 30.05 10.55 30.0 10.7 29.6 10.65 29.1 10.5 Q25.3 9.65 22.25 10.55" fill="url(#gradient0)" fill-rule="evenodd" stroke="none"/>
      <path d="M37.35 16.9 L36.95 17.45 36.75 17.45 Q36.0 17.4 35.4 16.85 34.85 16.25 34.95 15.25 35.0 14.6 35.4 14.15 L37.25 16.8 37.3 16.85 37.35 16.9" fill="#b6a6cb" fill-rule="evenodd" stroke="none"/>
      <path d="M31.5 34.8 L31.35 35.3 33.15 37.85 Q32.4 37.85 31.1 36.45 29.75 35.05 29.75 34.35 29.75 33.65 29.95 33.5 30.1 33.2 30.35 33.25 L30.95 33.55 31.2 33.8 31.35 34.0 31.45 34.15 31.6 34.5 31.5 34.8" fill="#426f75" fill-rule="evenodd" stroke="none"/>
      <path d="M41.25 23.7 L40.95 23.2 34.65 28.95 34.55 29.1 40.0 36.2 40.4 35.8 40.95 35.2 43.35 32.25 43.55 30.1 43.45 27.9 41.25 23.7 M10.1 4.3 L10.65 6.4 10.7 6.45 11.3 8.2 Q11.9 9.75 12.85 11.1 L13.2 11.6 14.2 12.65 15.7 13.65 16.75 14.2 16.85 14.25 Q18.8 15.35 20.2 17.0 22.6 19.8 23.65 23.95 L24.45 26.95 25.7 29.3 25.8 29.5 27.4 31.0 29.45 32.3 31.95 33.9 32.45 34.2 37.0 41.85 37.0 41.9 37.05 41.9 40.1 39.05 42.7 35.95 43.35 32.25 M56.3 34.65 Q54.75 33.55 52.85 33.55 50.7 33.55 49.3 35.0 L48.85 35.6 Q47.95 36.9 48.15 38.55 L48.4 39.85 Q48.9 41.1 50.05 42.05 51.75 43.55 53.95 43.55 L56.15 43.05 55.5 44.6 M41.05 33.1 L43.55 30.1 41.5 26.5 38.0 29.2 38.05 29.25 41.05 33.1 M50.9 37.8 L50.65 37.95 50.5 38.1 50.3 38.55 Q50.25 39.15 50.9 39.85 L50.95 39.9 51.9 40.6 52.5 40.85 52.75 40.9 Q53.8 41.2 54.6 40.9 55.4 40.65 55.5 40.05 L55.5 39.85 55.35 39.35 54.9 38.65 Q54.2 38.0 53.15 37.7 L51.25 37.65 50.9 37.8 51.4 38.4 52.2 39.05 53.15 39.4 55.05 39.45 55.35 39.35 M37.6 42.7 L37.7 42.65 Q41.45 41.75 45.15 44.35 47.1 46.1 47.75 48.25 48.25 49.95 47.9 51.95 L47.1 54.85 47.2 54.9 M-0.45 40.2 L2.05 40.05 4.7 40.35 Q7.7 41.4 9.4 43.55 L9.9 43.2 9.9 41.4 11.3 41.2 16.95 44.65 21.9 47.6 29.55 52.2 29.55 47.75 29.95 47.95 30.25 47.75 30.35 47.75 30.4 47.65 31.35 47.1 Q32.25 46.5 33.3 45.85 L33.4 45.8 35.55 44.3 35.9 44.0 36.3 43.65 36.55 43.5 37.15 43.0 37.6 42.7 39.25 41.45 39.95 39.5 40.1 39.05 M12.65 41.8 L12.1 41.45 15.5 35.25 Q11.45 29.85 12.65 23.25 13.15 20.55 14.5 17.7 L14.9 17.0 15.3 17.9 16.75 19.75 16.8 21.65 16.9 22.4 Q18.2 26.75 19.45 27.45 L21.55 28.55 23.7 29.1 25.0 29.4 25.8 29.5 M56.3 43.0 L56.15 43.05 M56.3 48.35 L55.3 45.1 M43.45 27.9 L43.1 24.3 Q41.65 19.85 38.9 15.9 L38.4 15.2 38.35 15.15 37.35 16.9 36.95 17.45 35.95 19.05 33.65 22.3 32.2 24.15 32.15 24.1 28.4 18.85 25.15 14.25 22.25 10.55 Q20.35 8.3 18.35 6.55 L16.15 4.75 Q13.15 2.55 9.85 1.2 L10.1 4.3 M30.5 10.85 Q33.25 11.65 35.4 14.15 L37.25 16.8 37.3 16.85 37.35 16.9 M29.4 8.95 L29.3 8.25 Q28.35 4.25 30.1 0.0 35.4 4.8 38.1 14.0 L38.4 15.2 M30.0 10.7 L29.6 10.65 29.1 10.5 Q25.3 9.65 22.25 10.55 M33.9 15.95 L34.3 17.25 M30.3 10.8 L30.0 10.7 M30.3 10.8 L29.95 10.2 M23.65 23.95 L22.6 23.5 20.2 22.25 20.1 22.1 19.55 21.8 16.75 19.75 M30.5 10.85 L30.3 10.8 M14.45 15.8 Q14.6 16.4 14.9 17.0 M14.3 14.95 L14.45 15.8 M14.2 12.65 L14.3 14.95 M17.0 37.0 L16.9 36.9 15.5 35.25 M13.2 42.15 L17.3 44.7 21.65 47.35 27.6 50.95 29.35 52.05 29.25 47.55 29.55 47.75 M22.5 42.25 L22.45 42.2 21.25 40.9 Q20.65 38.2 21.4 35.2 23.15 34.3 25.25 34.6 L25.35 34.6 25.6 34.6 27.0 34.9 33.25 42.05 Q34.3 43.3 35.5 43.55 L36.25 43.55 36.55 43.5 M5.95 45.9 L6.6 46.0 M11.15 51.65 L11.3 48.8 Q11.1 46.7 10.3 45.1 L9.4 43.55 M13.2 42.15 L12.65 41.8 M14.5 46.1 L14.7 46.2 27.25 54.15 28.7 54.9 M14.5 46.1 L11.65 44.3 9.9 43.2 M24.9 44.55 L22.5 42.25 M27.9 46.8 L28.55 47.2 29.25 47.55 M24.9 44.55 L27.9 46.8 M42.45 53.0 L41.95 50.9 Q41.45 49.55 40.35 48.5 38.35 46.5 35.6 46.4 L35.2 46.35 34.8 46.4 33.85 46.5 34.1 46.9 36.5 51.0 38.55 54.9 M33.4 45.8 L33.85 46.5 M10.25 54.9 L11.15 51.65 M47.1 54.9 L47.1 54.85 M42.4 54.9 L42.5 53.65 42.45 53.0 M31.8 54.9 L31.35 47.1" fill="none" stroke="#382943" stroke-linecap="round" stroke-linejoin="round" stroke-width="1.0"/>
      <path d="M29.45 32.3 Q28.9 33.55 29.35 35.05 30.75 37.65 34.15 38.9 L33.6 36.2 31.95 33.9" fill="none" stroke="#426f75" stroke-linecap="round" stroke-linejoin="round" stroke-width="1.0"/>
      <path d="M12.65 23.25 Q5.85 27.4 -0.45 33.8 M-0.45 10.15 L10.7 6.45 M30.0 10.7 L30.05 10.55 29.95 10.2 29.4 8.95 Q28.45 7.05 26.9 5.85 23.95 3.55 18.8 3.95 L16.15 4.75" fill="none" stroke="url(#gradient1)" stroke-linecap="round" stroke-linejoin="round" stroke-width="1.0"/>
    </g>
    <linearGradient gradientTransform="matrix(-0.0197, 0.0274, 0.0256, 0.0184, -20.05, 25.75)" gradientUnits="userSpaceOnUse" id="gradient0" spreadMethod="pad" x1="-819.2" x2="819.2">
      <stop offset="0.0" stop-color="#5a83aa"/>
      <stop offset="1.0" stop-color="#72d3d9"/>
    </linearGradient>
    <linearGradient gradientTransform="matrix(-0.0595, -0.0059, -0.0032, 0.0322, -20.05, 25.75)" gradientUnits="userSpaceOnUse" id="gradient1" spreadMethod="pad" x1="-819.2" x2="819.2">
      <stop offset="0.011764705882352941" stop-color="#5a83aa"/>
      <stop offset="1.0" stop-color="#72d3d9"/>
    </linearGradient>
    <g id="shape2" transform="matrix(1.0, 0.0, 0.0, 1.0, 0.0, 0.0)">
      <path d="M50.5 0.0 Q53.95 0.0 53.95 3.3 L53.95 50.15 Q53.95 53.4 50.5 53.4 L3.3 53.4 Q0.0 53.4 0.0 50.15 L0.0 3.3 Q0.0 0.0 3.3 0.0 L50.5 0.0" fill="#000000" fill-opacity="0.003921569" fill-rule="evenodd" stroke="none"/>
    </g>
  </defs>
</svg>
