<?xml version="1.0" encoding="UTF-8" standalone="no"?>
<svg xmlns:ffdec="https://www.free-decompiler.com/flash" xmlns:xlink="http://www.w3.org/1999/xlink" ffdec:objectType="frame" height="56.85px" width="59.2px" xmlns="http://www.w3.org/2000/svg">
  <g transform="matrix(1.0, 0.0, 0.0, 1.0, 2.4, 1.9)">
    <clipPath id="clipPath0" transform="matrix(1.0, 0.0, 0.0, 1.0, 0.0, 0.0)">
      <path d="M50.5 0.0 Q53.95 0.0 53.95 3.3 L53.95 50.15 Q53.95 53.4 50.5 53.4 L3.3 53.4 Q0.0 53.4 0.0 50.15 L0.0 3.3 Q0.0 0.0 3.3 0.0 L50.5 0.0" fill="#000000" fill-rule="evenodd" stroke="none"/>
    </clipPath>
    <g clip-path="url(#clipPath0)">
      <use ffdec:characterId="2" height="56.85" transform="matrix(1.0, 0.0, 0.0, 1.0, -2.4, -1.9)" width="59.2" xlink:href="#shape1"/>
    </g>
    <use ffdec:characterId="3" height="53.4" transform="matrix(1.0, 0.0, 0.0, 1.0, 0.0, 0.0)" width="53.95" xlink:href="#shape2"/>
  </g>
  <defs>
    <g id="shape1" transform="matrix(1.0, 0.0, 0.0, 1.0, 2.4, 1.9)">
      <path d="M42.95 43.45 L42.8 43.45 42.3 43.55 41.8 43.45 Q41.35 43.25 41.35 42.9 41.35 42.35 41.9 42.25 L42.45 42.2 Q42.95 42.25 43.15 42.6 L43.25 43.0 43.15 43.2 43.15 43.25 42.95 43.45 M32.95 29.35 Q33.0 29.1 33.3 29.1 33.6 29.1 33.6 29.45 L33.6 29.5 33.6 29.55 33.3 29.7 Q32.95 29.7 32.95 29.4 L32.95 29.35 M31.05 52.15 L32.7 47.6 34.0 48.75 32.25 53.5 32.05 53.25 31.05 52.15" fill="#ffffff" fill-rule="evenodd" stroke="none"/>
      <path d="M43.2 54.45 L42.35 54.45 42.4 53.6 43.2 54.45 M14.9 54.45 L8.2 54.45 5.35 53.1 5.3 54.45 2.9 54.45 3.0 53.5 2.85 51.95 Q2.35 49.55 0.2 47.75 L7.3 50.3 13.9 52.6 14.9 54.45 M9.05 40.5 L9.0 39.75 9.25 39.95 9.05 40.5" fill="#a7b335" fill-rule="evenodd" stroke="none"/>
      <path d="M8.2 54.45 L5.3 54.45 5.35 53.1 8.2 54.45 M19.75 21.25 Q17.85 21.8 17.3 22.55 16.75 23.3 16.85 25.55 16.9 27.8 18.45 32.55 15.65 29.0 15.5 26.35 15.35 23.7 15.9 22.85 16.5 22.0 17.65 21.45 18.9 20.85 19.4 21.1 L19.75 21.25" fill="#87922c" fill-rule="evenodd" stroke="none"/>
      <path d="M22.25 -1.4 L23.45 -1.4 23.6 -1.4 23.55 -0.45 23.7 4.7 23.75 5.45 24.1 8.2 24.0 8.25 21.95 9.5 21.65 9.7 21.55 7.9 Q21.55 4.85 21.9 1.55 L22.0 0.4 22.25 -1.4 M42.65 45.05 L43.05 44.95 45.45 46.6 Q44.3 47.75 43.4 49.6 L40.7 45.9 Q40.8 46.25 40.2 46.5 L40.15 46.5 40.1 46.5 34.25 47.35 35.05 47.25 Q38.85 46.8 42.65 45.05 M42.35 54.45 L40.45 54.45 42.5 53.2 42.4 53.6 42.35 54.45 M23.45 -1.4 L23.4 -0.65 23.55 4.5 23.6 5.25 24.0 8.25 23.6 5.25 23.55 4.5 23.4 -0.65 23.45 -1.4 M28.0 22.75 L28.7 24.45 28.6 24.35 20.55 19.6 Q15.1 16.45 14.8 15.9 L15.2 15.2 25.05 21.0 26.4 21.75 27.9 22.7 28.0 22.75 M38.8 31.65 L40.45 32.6 40.2 32.7 Q37.5 34.2 35.4 34.1 33.3 34.0 31.9 32.95 30.5 31.85 30.05 31.2 L29.3 29.75 28.9 27.9 28.75 25.95 28.8 24.75 30.2 25.9 Q29.8 28.15 30.55 29.75 31.3 31.35 33.05 32.45 L36.15 32.8 Q37.5 32.55 38.8 31.65 M28.6 24.35 L27.9 22.7 28.6 24.35" fill="#758431" fill-rule="evenodd" stroke="none"/>
      <path d="M45.45 46.6 L50.15 49.8 52.4 54.45 43.2 54.45 42.4 53.6 42.5 53.2 44.9 51.65 43.4 49.6 Q44.3 47.75 45.45 46.6 M2.9 54.45 L-1.9 54.45 -1.9 47.0 0.2 47.75 Q2.35 49.55 2.85 51.95 L3.0 53.5 2.9 54.45 M19.75 21.25 L19.9 21.25 Q21.85 21.2 23.0 21.75 24.15 22.3 25.8 24.0 27.5 25.7 27.75 27.85 28.05 30.0 28.6 31.1 L27.85 30.2 26.8 28.55 Q24.9 25.5 19.0 30.0 L18.65 32.85 18.65 33.25 18.45 32.55 Q16.9 27.8 16.85 25.55 16.75 23.3 17.3 22.55 17.85 21.8 19.75 21.25" fill="#dee257" fill-rule="evenodd" stroke="none"/>
      <path d="M22.85 49.1 L23.3 47.65 Q25.4 46.15 27.7 46.15 L28.6 46.2 30.15 46.5 30.1 46.7 29.65 47.75 29.45 48.35 29.2 49.0 29.1 49.25 28.65 50.8 26.6 50.55 24.3 50.85 Q23.6 51.05 22.9 51.35 L21.9 52.0 22.7 49.55 22.85 49.1" fill="#798996" fill-rule="evenodd" stroke="none"/>
      <path d="M53.9 -1.4 L54.9 -1.4 Q55.2 -0.85 55.55 -0.85 55.95 -0.85 56.05 -1.05 L56.15 -1.3 56.15 -1.4 56.3 -1.4 56.3 1.45 53.9 -1.4 M55.4 10.25 L52.7 10.1 Q51.0 10.25 49.75 11.7 48.5 13.1 46.15 12.85 44.7 12.7 42.25 10.9 L41.25 10.15 40.9 9.85 Q39.6 8.65 39.15 7.7 42.75 7.95 45.15 6.75 L47.5 5.5 Q49.15 4.85 50.4 5.0 51.55 5.1 52.55 5.65 54.15 6.75 55.15 8.3 56.2 9.8 56.25 10.2 L55.4 10.25 M52.3 9.15 L54.6 9.3 Q51.4 5.0 47.85 6.7 43.5 9.85 41.15 8.6 L43.9 10.85 Q47.05 12.9 48.55 11.1 50.3 9.45 52.3 9.15 M36.8 16.3 L36.9 16.3 Q38.2 16.3 40.05 15.2 41.9 14.1 43.55 14.1 45.7 14.1 46.5 15.15 L45.65 15.05 Q44.05 15.05 43.0 17.05 L42.65 17.8 41.6 20.1 Q41.05 21.2 39.9 22.0 L38.55 20.05 37.55 18.2 37.25 17.55 36.45 17.7 Q34.9 17.7 32.65 14.8 31.05 12.8 30.05 10.7 29.05 8.55 26.9 7.0 L26.6 6.8 Q25.15 5.75 23.75 5.45 L23.7 4.7 Q25.55 5.0 27.4 6.35 28.85 7.45 30.3 9.2 L33.05 13.5 34.65 15.4 35.8 16.05 36.8 16.3 M49.65 32.8 L49.4 32.7 46.8 30.65 45.65 29.6 43.45 27.05 42.5 28.15 42.3 28.4 Q41.55 29.15 40.65 29.15 L39.3 28.8 38.5 28.5 37.25 28.3 Q36.45 28.3 35.55 28.85 L35.35 28.95 35.0 29.2 34.75 29.05 34.4 28.85 34.75 29.05 35.0 29.2 34.9 29.25 34.3 28.9 34.4 28.85 34.75 28.55 Q35.8 27.8 36.85 27.6 L38.65 27.8 41.35 27.85 41.6 27.6 42.8 26.1 43.15 25.6 43.4 25.45 Q46.5 22.8 50.15 25.15 L50.65 25.5 49.8 26.2 Q48.05 28.25 48.95 31.1 L49.0 31.25 49.65 32.8" fill="#ef626a" fill-rule="evenodd" stroke="none"/>
      <path d="M46.1 -1.4 L53.9 -1.4 56.3 1.45 56.3 3.75 50.55 1.75 Q47.1 0.0 46.1 -1.4 M47.85 36.2 L44.9 34.85 42.45 33.65 40.45 32.6 38.8 31.65 37.25 30.75 34.9 29.25 35.0 29.2 35.35 28.95 35.55 28.85 Q36.45 28.3 37.25 28.3 L38.5 28.5 39.3 28.8 40.65 29.15 Q41.55 29.15 42.3 28.4 L42.5 28.15 43.45 27.05 45.65 29.6 46.8 30.65 49.4 32.7 49.65 32.8 49.7 32.85 Q50.65 35.8 49.55 36.1 L48.35 36.3 47.7 36.0 Q40.45 32.8 35.0 29.2 40.45 32.8 47.7 36.0 L48.35 36.3 47.85 36.2 M30.5 54.45 L24.7 54.45 25.2 52.75 26.3 52.6 28.05 52.85 28.8 53.0 30.3 54.25 30.5 54.45 M39.9 22.0 L38.3 23.05 Q35.15 24.45 32.25 22.7 28.55 20.5 26.05 17.1 24.7 12.6 24.1 8.2 L23.75 5.45 Q25.15 5.75 26.6 6.8 L26.9 7.0 Q29.05 8.55 30.05 10.7 31.05 12.8 32.65 14.8 34.9 17.7 36.45 17.7 L37.25 17.55 37.55 18.2 38.55 20.05 39.9 22.0" fill="#a1383d" fill-rule="evenodd" stroke="none"/>
      <path d="M32.8 54.45 L30.5 54.45 30.3 54.25 28.8 53.0 28.05 52.85 26.3 52.6 25.2 52.75 Q24.25 53.0 23.45 53.75 L23.2 54.45 22.05 54.45 21.65 53.6 21.55 53.35 21.5 53.25 21.9 52.0 22.9 51.35 Q23.6 51.05 24.3 50.85 L26.6 50.55 28.65 50.8 Q29.5 51.05 30.3 51.55 L31.05 52.15 32.05 53.25 32.25 53.5 32.7 54.2 32.8 54.45" fill="#4d575e" fill-rule="evenodd" stroke="none"/>
      <path d="M34.1 54.45 L32.8 54.45 32.7 54.2 32.25 53.5 34.0 48.75 34.8 50.2 35.05 51.75 34.65 52.95 34.1 54.45 M28.65 50.8 L29.1 49.25 29.2 49.0 29.45 48.35 29.65 47.75 30.1 46.7 30.15 46.5 Q30.65 46.6 31.15 46.85 L31.85 47.15 32.7 47.6 31.05 52.15 30.3 51.55 Q29.5 51.05 28.65 50.8" fill="#a3aeb4" fill-rule="evenodd" stroke="none"/>
      <path d="M8.3 4.85 L6.0 10.25 6.6 8.5 6.95 7.65 8.3 4.85 M7.15 26.55 L6.75 22.6 Q6.45 18.95 7.7 13.85 9.0 8.8 10.85 5.3 12.75 1.75 16.0 -0.2 L18.1 -1.4 22.25 -1.4 22.0 0.4 21.9 1.55 Q21.55 4.85 21.55 7.9 L21.65 9.7 Q18.5 11.8 15.9 14.2 L15.5 14.5 15.0 15.05 15.2 15.2 14.8 15.9 Q15.1 16.45 20.55 19.6 L28.6 24.35 28.65 24.55 28.75 24.65 28.65 24.55 28.6 24.35 28.7 24.45 28.75 24.65 28.8 24.75 28.75 25.95 28.9 27.9 29.3 29.75 30.05 31.2 Q30.5 31.85 31.9 32.95 33.3 34.0 35.4 34.1 37.5 34.2 40.2 32.7 L40.45 32.6 42.45 33.65 Q40.8 33.75 38.8 34.75 35.0 36.7 32.45 34.75 L29.8 32.45 28.6 31.1 Q28.05 30.0 27.75 27.85 27.5 25.7 25.8 24.0 24.15 22.3 23.0 21.75 21.85 21.2 19.9 21.25 L19.75 21.25 19.4 21.1 Q18.9 20.85 17.65 21.45 16.5 22.0 15.9 22.85 15.35 23.7 15.5 26.35 15.65 29.0 18.45 32.55 L18.65 33.25 Q18.7 34.75 19.15 36.15 15.35 32.35 11.25 28.9 L7.15 26.55" fill="#a9b249" fill-rule="evenodd" stroke="none"/>
      <path d="M14.85 -1.4 L18.1 -1.4 16.0 -0.2 Q12.75 1.75 10.85 5.3 9.0 8.8 7.7 13.85 6.45 18.95 6.75 22.6 L7.15 26.55 6.4 26.1 4.35 25.45 Q3.9 23.55 4.05 20.95 4.3 16.0 5.15 13.1 L5.35 12.45 5.65 11.45 5.75 10.95 6.0 10.25 8.3 4.85 Q10.15 1.65 12.9 -0.3 L14.85 -1.4" fill="#b5c76d" fill-rule="evenodd" stroke="none"/>
      <path d="M1.0 16.95 L-1.9 13.95 -1.9 10.85 0.45 13.8 1.8 15.55 1.0 16.95 M26.05 17.1 L27.1 20.2 26.95 20.1 23.65 18.35 Q22.75 16.3 22.35 14.0 21.8 11.7 21.65 9.7 L21.95 9.5 24.0 8.25 24.1 8.2 Q24.7 12.6 26.05 17.1 M34.05 46.4 L34.65 46.9 35.05 47.25 34.25 47.35 34.05 47.35 31.85 47.15 31.15 46.85 Q30.65 46.6 30.15 46.5 L28.6 46.2 28.25 46.0 27.5 45.45 26.85 44.85 23.05 40.35 Q22.3 38.9 21.9 37.35 21.3 34.9 21.35 33.5 21.45 32.05 22.35 31.6 L23.7 31.2 Q24.15 31.2 26.65 33.65 26.8 37.75 30.4 42.45 32.05 44.6 34.05 46.4 M24.0 8.25 Q24.6 12.55 25.9 16.9 L26.95 20.1 25.9 16.9 Q24.6 12.55 24.0 8.25 M18.65 33.25 L18.65 32.85 19.0 30.0 Q24.9 25.5 26.8 28.55 L27.85 30.2 27.0 31.0 26.8 31.95 25.05 29.85 Q23.65 28.95 20.2 31.25 19.75 32.55 19.7 34.1 L19.8 36.4 19.9 36.95 19.15 36.15 Q18.7 34.75 18.65 33.25" fill="#708e46" fill-rule="evenodd" stroke="none"/>
      <path d="M6.0 10.25 L5.75 10.95 5.65 11.45 5.35 12.45 5.15 13.1 Q4.3 16.0 4.05 20.95 3.9 23.55 4.35 25.45 L0.6 24.3 -0.55 24.1 -1.9 23.85 -1.9 20.0 -1.0 19.85 2.7 19.5 0.85 17.95 0.4 17.55 1.45 17.4 1.0 16.95 1.8 15.55 0.45 13.8 -1.15 10.7 -1.35 10.3 -1.9 9.2 -1.9 1.7 Q3.45 5.1 6.95 7.65 L6.6 8.5 6.0 10.25 M44.9 34.85 L44.65 35.9 Q42.4 35.25 38.6 37.35 34.85 39.45 30.55 35.7 28.55 34.0 26.8 31.95 26.65 32.55 26.65 33.45 L26.65 33.65 28.25 35.25 Q32.4 39.45 35.4 39.45 37.05 39.45 39.05 38.45 L41.4 37.25 41.25 38.1 41.2 39.1 41.4 41.05 Q41.8 43.35 38.4 44.6 35.05 45.9 34.05 46.4 32.05 44.6 30.4 42.45 26.8 37.75 26.65 33.65 24.15 31.2 23.7 31.2 L22.35 31.6 Q21.45 32.05 21.35 33.5 21.3 34.9 21.9 37.35 22.3 38.9 23.05 40.35 L19.9 36.95 19.8 36.4 19.7 34.1 Q19.75 32.55 20.2 31.25 23.65 28.95 25.05 29.85 L26.8 31.95 27.0 31.0 27.85 30.2 28.6 31.1 29.8 32.45 32.45 34.75 Q35.0 36.7 38.8 34.75 40.8 33.75 42.45 33.65 L44.9 34.85 M27.1 20.2 L28.0 22.75 27.9 22.7 26.95 20.1 27.1 20.2 M21.65 9.7 Q21.8 11.7 22.35 14.0 22.75 16.3 23.65 18.35 L26.95 20.1 27.9 22.7 26.4 21.75 25.05 21.0 23.65 18.35 15.9 14.2 Q18.5 11.8 21.65 9.7 M27.1 45.2 L26.85 44.85 27.5 45.45 28.25 46.0 27.7 45.75 27.1 45.2 M32.3 29.4 L32.8 29.35 32.95 29.35 32.95 29.4 Q32.95 29.7 33.3 29.7 L33.6 29.55 33.6 29.5 Q34.45 29.75 35.15 30.6 L35.6 31.2 33.55 30.8 Q32.75 30.25 32.3 29.4" fill="#92c261" fill-rule="evenodd" stroke="none"/>
      <path d="M44.65 35.9 Q43.9 40.0 44.7 43.95 L42.65 45.05 Q38.85 46.8 35.05 47.25 L34.65 46.9 34.05 46.4 Q35.05 45.9 38.4 44.6 41.8 43.35 41.4 41.05 L41.2 39.1 41.25 38.1 41.4 37.25 39.05 38.45 Q37.05 39.45 35.4 39.45 32.4 39.45 28.25 35.25 L26.65 33.65 26.65 33.45 Q26.65 32.55 26.8 31.95 28.55 34.0 30.55 35.7 34.85 39.45 38.6 37.35 42.4 35.25 44.65 35.9 M-1.9 20.0 L-1.9 17.95 0.4 17.55 0.85 17.95 2.7 19.5 -1.0 19.85 -1.9 20.0 M-1.9 10.85 L-1.9 9.2 -1.35 10.3 -1.15 10.7 0.45 13.8 -1.9 10.85 M-1.9 1.7 L-1.9 -0.8 8.3 4.85 6.95 7.65 Q3.45 5.1 -1.9 1.7 M43.15 42.6 Q42.95 42.25 42.45 42.2 L41.9 42.25 Q41.35 42.35 41.35 42.9 41.35 43.25 41.8 43.45 L42.3 43.55 42.8 43.45 42.95 43.45 43.3 43.1 43.15 42.6 M15.2 15.2 L15.0 15.05 15.5 14.5 15.9 14.2 23.65 18.35 25.05 21.0 15.2 15.2" fill="#cff796" fill-rule="evenodd" stroke="none"/>
      <path d="M42.95 43.45 L43.15 43.25 43.15 43.2 43.25 43.0 43.15 42.6 43.3 43.1 42.95 43.45" fill="#dffab8" fill-rule="evenodd" stroke="none"/>
      <path d="M34.9 29.25 L37.25 30.75 35.6 31.2 35.15 30.6 Q34.45 29.75 33.6 29.5 L33.6 29.45 Q33.6 29.1 33.3 29.1 33.0 29.1 32.95 29.35 L32.8 29.35 32.3 29.4 Q32.0 28.5 32.15 27.4 L34.0 28.7 34.3 28.9 34.9 29.25" fill="#6c8e3a" fill-rule="evenodd" stroke="none"/>
      <path d="M30.55 29.75 L31.15 29.55 32.3 29.4 Q32.75 30.25 33.55 30.8 L35.6 31.2 Q36.05 31.95 36.15 32.8 L33.05 32.45 Q31.3 31.35 30.55 29.75" fill="#e6f3e1" fill-rule="evenodd" stroke="none"/>
      <path d="M37.25 30.75 L38.8 31.65 Q37.5 32.55 36.15 32.8 36.05 31.95 35.6 31.2 L37.25 30.75 M30.2 25.9 L32.15 27.4 Q32.0 28.5 32.3 29.4 L31.15 29.55 30.55 29.75 Q29.8 28.15 30.2 25.9" fill="#c2dcf1" fill-rule="evenodd" stroke="none"/>
      <path d="M23.6 -1.4 L26.65 -1.4 Q27.45 -0.15 28.9 1.1 L27.7 1.15 26.15 0.95 24.5 0.3 23.55 -0.45 23.6 -1.4 M29.35 -1.4 L33.8 -1.4 33.85 -1.3 34.3 0.05 Q32.25 0.45 30.05 -0.8 L29.35 -1.4 M56.3 13.4 L56.3 13.8 55.8 13.8 54.35 13.75 Q53.05 13.7 53.2 13.95 L53.2 14.0 52.95 13.8 56.3 13.4 M56.3 32.65 L56.3 35.9 56.3 36.25 55.45 37.35 Q53.55 38.95 49.25 36.8 L47.85 36.2 48.35 36.3 49.55 36.1 Q50.65 35.8 49.7 32.85 L50.3 33.3 50.55 32.7 Q50.55 31.7 51.05 30.85 51.55 29.75 52.1 29.75 52.7 29.75 52.95 31.1 53.2 32.45 55.3 32.75 L56.3 32.65 M43.9 10.85 L41.15 8.6 Q43.5 9.85 47.85 6.7 51.4 5.0 54.6 9.3 L52.3 9.15 51.8 8.7 Q51.0 8.05 50.15 8.05 48.55 8.05 46.9 9.45 45.3 10.75 43.9 10.85 M38.55 4.45 L38.05 4.9 Q35.95 6.9 35.95 11.2 L35.95 11.8 Q36.05 13.95 36.8 16.3 L35.8 16.05 34.65 15.4 34.45 12.95 Q34.45 8.85 35.3 7.3 L35.4 7.2 36.05 6.2 37.9 4.8 38.55 4.45 M56.3 35.9 L56.15 36.05 55.3 37.15 Q53.4 38.75 49.1 36.6 L48.35 36.3 49.1 36.6 Q53.4 38.75 55.3 37.15 L56.15 36.05 56.3 35.9 M42.8 26.1 L41.6 27.6 41.35 27.85 38.65 27.8 36.85 27.6 Q35.8 27.8 34.75 28.55 L34.4 28.85 34.15 28.7 33.85 28.5 Q31.05 26.6 28.75 24.65 31.05 26.6 33.85 28.5 L34.15 28.7 34.4 28.85 34.3 28.9 34.0 28.7 32.15 27.4 30.2 25.9 28.8 24.75 28.75 24.65 28.7 24.45 28.0 22.75 27.1 20.2 26.05 17.1 Q28.55 20.5 32.25 22.7 35.15 24.45 38.3 23.05 L39.9 22.0 42.8 26.1" fill="#a7a89a" fill-rule="evenodd" stroke="none"/>
      <path d="M26.65 -1.4 L27.65 -1.4 Q29.65 1.5 33.05 1.5 34.45 1.5 35.9 0.7 L37.25 -0.15 37.65 -0.6 Q44.15 -0.2 50.55 1.75 L56.3 3.75 56.3 4.4 54.6 4.1 49.65 3.3 43.8 2.9 42.95 2.95 Q41.0 3.1 39.55 3.85 L39.4 3.95 38.55 4.45 37.9 4.8 36.05 6.2 35.4 7.2 35.3 7.3 Q34.45 8.85 34.45 12.95 L34.65 15.4 33.05 13.5 30.3 9.2 Q28.85 7.45 27.4 6.35 25.55 5.0 23.7 4.7 L23.55 -0.45 24.5 0.3 26.15 0.95 27.7 1.15 28.9 1.1 Q27.45 -0.15 26.65 -1.4 M33.8 -1.4 L36.3 -1.4 36.3 -1.2 36.2 -0.7 36.15 -0.7 36.0 -0.6 34.3 0.05 33.85 -1.3 33.8 -1.4 M56.3 13.8 L56.3 16.7 49.0 18.8 48.65 19.1 56.3 17.55 56.3 22.75 52.15 25.85 51.9 26.3 56.3 23.5 56.3 30.2 56.15 30.25 56.05 30.25 Q55.9 30.25 55.65 30.05 L55.9 29.55 55.7 28.85 55.25 28.4 55.1 28.35 54.65 28.35 Q54.05 28.35 53.75 28.85 L53.7 28.95 53.65 29.25 53.65 29.7 54.0 30.5 Q54.5 31.3 55.6 31.3 L55.9 31.3 56.3 31.3 56.3 32.65 55.3 32.75 Q53.2 32.45 52.95 31.1 52.7 29.75 52.1 29.75 51.55 29.75 51.05 30.85 50.55 31.7 50.55 32.7 L50.3 33.3 49.7 32.85 49.65 32.8 49.0 31.25 48.95 31.1 Q48.05 28.25 49.8 26.2 L50.65 25.5 50.15 25.15 Q46.5 22.8 43.4 25.45 L43.15 25.6 42.8 26.1 39.9 22.0 Q41.05 21.2 41.6 20.1 L42.65 17.8 44.65 16.6 Q47.65 15.05 50.75 14.25 L51.8 14.05 52.95 13.8 53.2 14.0 53.2 13.95 Q53.05 13.7 54.35 13.75 L55.8 13.8 56.3 13.8 M52.3 9.15 Q50.3 9.45 48.55 11.1 47.05 12.9 43.9 10.85 45.3 10.75 46.9 9.45 48.55 8.05 50.15 8.05 51.0 8.05 51.8 8.7 L52.3 9.15" fill="#cbc9bc" fill-rule="evenodd" stroke="none"/>
      <path d="M27.65 -1.4 L29.35 -1.4 30.05 -0.8 Q32.25 0.45 34.3 0.05 L36.0 -0.6 36.15 -0.7 36.2 -0.7 37.65 -0.6 37.25 -0.15 35.9 0.7 Q34.45 1.5 33.05 1.5 29.65 1.5 27.65 -1.4 M36.3 -1.4 L37.1 -1.4 36.2 -0.7 36.3 -1.2 36.3 -1.4 M56.3 4.4 L56.3 13.4 52.95 13.8 51.8 14.05 50.75 14.25 Q47.65 15.05 44.65 16.6 L42.65 17.8 43.0 17.05 Q44.05 15.05 45.65 15.05 L46.5 15.15 Q45.7 14.1 43.55 14.1 41.9 14.1 40.05 15.2 38.2 16.3 36.9 16.3 L36.8 16.3 Q36.05 13.95 35.95 11.8 L35.95 11.2 Q35.95 6.9 38.05 4.9 L38.55 4.45 39.4 3.95 39.55 3.85 Q41.0 3.1 42.95 2.95 L43.8 2.9 49.65 3.3 54.6 4.1 56.3 4.4 M55.4 10.25 L56.25 10.2 Q56.2 9.8 55.15 8.3 54.15 6.75 52.55 5.65 51.55 5.1 50.4 5.0 49.15 4.85 47.5 5.5 L45.15 6.75 Q42.75 7.95 39.15 7.7 39.6 8.65 40.9 9.85 L41.25 10.15 42.25 10.9 Q44.7 12.7 46.15 12.85 48.5 13.1 49.75 11.7 51.0 10.25 52.7 10.1 L55.4 10.25" fill="#ebefde" fill-rule="evenodd" stroke="none"/>
      <path d="M37.1 -1.4 L46.1 -1.4 Q47.1 0.0 50.55 1.75 44.15 -0.2 37.65 -0.6 L36.2 -0.7 37.1 -1.4" fill="#742736" fill-rule="evenodd" stroke="none"/>
      <path d="M54.9 -1.4 L56.15 -1.4 56.15 -1.3 56.05 -1.05 Q55.95 -0.85 55.55 -0.85 55.2 -0.85 54.9 -1.4" fill="#e8adaf" fill-rule="evenodd" stroke="none"/>
      <path d="M38.45 54.45 L34.1 54.45 34.65 52.95 36.95 51.25 Q38.15 50.25 39.1 50.0 L40.4 49.4 40.5 49.85 Q40.5 51.6 38.45 54.45 M22.05 54.45 L21.85 54.45 21.65 53.6 22.05 54.45 M0.6 24.3 L0.55 24.6 Q0.55 26.95 1.2 29.2 1.85 31.65 3.3 33.9 L3.85 34.65 5.25 36.9 Q6.1 38.45 6.1 39.85 6.1 40.65 5.5 40.65 L3.65 40.2 4.15 40.2 Q5.5 40.0 5.3 39.35 L4.5 37.7 3.0 35.3 2.35 34.3 0.15 30.8 -0.4 29.5 -0.55 28.55 -0.55 28.2 -0.55 24.1 0.6 24.3 M19.15 36.15 L19.9 36.95 23.05 40.35 26.85 44.85 27.1 45.2 27.7 46.15 Q25.4 46.15 23.3 47.65 L22.85 49.1 22.75 48.9 20.55 45.15 19.9 44.45 18.25 42.95 15.05 40.25 12.05 37.35 13.55 38.2 Q15.0 38.45 17.5 39.75 19.2 40.6 20.5 41.55 L20.55 41.3 Q18.9 39.0 15.5 35.45 10.9 30.55 9.6 28.65 L11.25 28.9 Q15.35 32.35 19.15 36.15" fill="#ffe09d" fill-rule="evenodd" stroke="none"/>
      <path d="M4.35 25.45 L6.4 26.1 7.15 26.55 11.25 28.9 9.6 28.65 Q10.9 30.55 15.5 35.45 18.9 39.0 20.55 41.3 L20.5 41.55 Q19.2 40.6 17.5 39.75 15.0 38.45 13.55 38.2 L12.05 37.35 15.05 40.25 18.25 42.95 19.9 44.45 20.55 45.15 22.75 48.9 22.85 49.1 22.7 49.55 Q15.45 43.15 9.25 39.95 L9.0 39.75 9.05 40.5 9.0 41.0 Q9.0 42.9 11.0 45.95 13.05 49.2 14.75 49.2 15.45 49.2 15.65 48.85 L16.0 48.05 21.55 53.35 21.65 53.6 21.85 54.45 18.05 54.45 Q17.5 53.05 16.15 52.1 L12.4 49.95 Q11.65 49.2 6.1 45.75 1.45 42.8 -1.9 42.0 L-1.9 37.6 -1.85 37.6 -0.75 38.25 0.6 39.0 1.35 39.35 3.65 40.2 5.5 40.65 Q6.1 40.65 6.1 39.85 6.1 38.45 5.25 36.9 L3.85 34.65 3.3 33.9 Q1.85 31.65 1.2 29.2 0.55 26.95 0.55 24.6 L0.6 24.3 4.35 25.45 M40.45 54.45 L38.45 54.45 Q40.5 51.6 40.5 49.85 L40.4 49.4 39.1 50.0 Q38.15 50.25 36.95 51.25 L34.65 52.95 35.05 51.75 34.8 50.2 Q37.5 49.1 40.15 46.5 L40.2 46.5 Q40.8 46.25 40.7 45.9 L43.4 49.6 44.9 51.65 42.5 53.2 40.45 54.45 M-1.9 47.0 L-1.9 44.85 Q-0.65 45.95 1.65 46.7 4.5 47.5 6.65 49.6 L7.3 50.3 0.2 47.75 -1.9 47.0" fill="#e8b891" fill-rule="evenodd" stroke="none"/>
      <path d="M18.05 54.45 L14.9 54.45 13.9 52.6 7.3 50.3 6.65 49.6 Q4.5 47.5 1.65 46.7 -0.65 45.95 -1.9 44.85 L-1.9 42.0 Q1.45 42.8 6.1 45.75 11.65 49.2 12.4 49.95 L16.15 52.1 Q17.5 53.05 18.05 54.45 M-1.9 37.6 L-1.9 34.1 -1.9 23.85 -0.55 24.1 -0.55 28.2 -0.55 28.55 -0.4 29.5 0.15 30.8 2.35 34.3 3.0 35.3 4.5 37.7 5.3 39.35 Q5.5 40.0 4.15 40.2 L3.65 40.2 1.35 39.35 0.6 39.0 -0.75 38.25 -1.85 37.6 -1.9 37.6 M27.7 46.15 L27.1 45.2 27.7 45.75 28.25 46.0 28.6 46.2 27.7 46.15 M9.05 40.5 L9.25 39.95 Q15.45 43.15 22.7 49.55 L21.9 52.0 21.5 53.25 21.55 53.35 16.0 48.05 15.65 48.85 Q15.45 49.2 14.75 49.2 13.05 49.2 11.0 45.95 9.0 42.9 9.0 41.0 L9.05 40.5 Q9.65 43.75 12.7 47.05 9.65 43.75 9.05 40.5 M2.55 38.6 L1.1 36.8 -1.9 34.1 1.1 36.8 2.55 38.6 M32.7 47.6 L31.85 47.15 34.05 47.35 34.25 47.35 40.1 46.5 40.15 46.5 Q37.5 49.1 34.8 50.2 L34.0 48.75 32.7 47.6" fill="#967650" fill-rule="evenodd" stroke="none"/>
      <path d="M24.7 54.45 L23.2 54.45 23.45 53.75 Q24.25 53.0 25.2 52.75 L24.7 54.45" fill="#a3955c" fill-rule="evenodd" stroke="none"/>
      <path d="M56.3 16.7 L56.3 17.55 48.65 19.1 49.0 18.8 56.3 16.7 M56.3 22.75 L56.3 23.5 51.9 26.3 52.15 25.85 56.3 22.75 M56.3 30.2 L56.3 31.3 55.9 31.3 55.6 31.3 Q54.5 31.3 54.0 30.5 L53.65 29.7 53.65 29.25 53.7 28.95 53.75 28.85 Q54.05 28.35 54.65 28.35 L55.1 28.35 55.25 28.4 55.7 28.85 55.9 29.55 55.65 30.05 Q55.9 30.25 56.05 30.25 L56.15 30.25 56.3 30.2" fill="#3f3323" fill-rule="evenodd" stroke="none"/>
      <path d="M14.85 -1.4 L12.9 -0.3 Q10.15 1.65 8.3 4.85 L6.0 10.25 5.75 10.95 5.65 11.45 5.35 12.45 M4.05 20.95 Q3.9 23.55 4.35 25.45 L6.4 26.1 7.15 26.55 11.25 28.9 Q15.35 32.35 19.15 36.15 L19.9 36.95 23.05 40.35 26.85 44.85 27.1 45.2 27.7 46.15 M44.9 34.85 L44.65 35.9 Q43.9 40.0 44.7 43.95 L42.65 45.05 43.05 44.95 45.45 46.6 50.15 49.8 52.4 54.45 M-1.9 17.95 L0.4 17.55 1.45 17.4 1.0 16.95 -1.9 13.95 M-1.9 -0.8 L8.3 4.85 M24.0 8.25 L23.6 5.25 23.55 4.5 23.4 -0.65 23.45 -1.4 M34.3 0.05 Q32.25 0.45 30.05 -0.8 L29.35 -1.4 M36.2 -0.7 L36.15 -0.7 36.0 -0.6 34.3 0.05 M37.65 -0.6 L36.2 -0.7 37.1 -1.4 M37.65 -0.6 Q44.15 -0.2 50.55 1.75 L56.3 3.75 M48.35 36.3 L49.1 36.6 Q53.4 38.75 55.3 37.15 L56.15 36.05 56.3 35.9 M35.0 29.2 Q40.45 32.8 47.7 36.0 L48.35 36.3 M28.75 24.65 Q31.05 26.6 33.85 28.5 L34.15 28.7 34.4 28.85 34.75 29.05 35.0 29.2 M35.05 47.25 Q38.85 46.8 42.65 45.05 M21.65 9.7 L21.95 9.5 24.0 8.25 24.1 8.2 M26.95 20.1 L25.9 16.9 Q24.6 12.55 24.0 8.25 M28.75 24.65 L28.65 24.55 28.6 24.35 27.9 22.7 26.95 20.1 M15.2 15.2 L15.0 15.05 15.5 14.5 15.9 14.2 Q18.5 11.8 21.65 9.7 M28.0 22.75 L27.9 22.7 26.4 21.75 25.05 21.0 15.2 15.2 M18.65 33.25 L18.65 32.85 19.0 30.0 Q24.9 25.5 26.8 28.55 L27.85 30.2 28.6 31.1 29.8 32.45 32.45 34.75 Q35.0 36.7 38.8 34.75 40.8 33.75 42.45 33.65 M0.6 24.3 L-0.55 24.1 -1.9 23.85 M18.65 33.25 Q18.7 34.75 19.15 36.15 M9.25 39.95 L9.0 39.75 9.05 40.5 Q9.65 43.75 12.7 47.05 M9.25 39.95 Q15.45 43.15 22.7 49.55 M-1.9 34.1 L1.1 36.8 2.55 38.6 M35.6 31.2 L37.25 30.75 M30.55 29.75 Q31.3 31.35 33.05 32.45 L36.15 32.8 Q37.5 32.55 38.8 31.65 M35.6 31.2 L33.55 30.8 Q32.75 30.25 32.3 29.4 32.0 28.5 32.15 27.4 M28.6 46.2 L28.25 46.0 27.7 45.75 27.1 45.2 M31.85 47.15 L34.05 47.35 34.25 47.35 35.05 47.25 M34.8 50.2 Q37.5 49.1 40.15 46.5 L40.1 46.5 34.25 47.35 M43.4 49.6 L40.7 45.9 Q40.8 46.25 40.2 46.5 L40.15 46.5 M30.55 29.75 Q29.8 28.15 30.2 25.9 M4.35 25.45 L0.6 24.3 M7.3 50.3 L13.9 52.6 14.9 54.45 M7.3 50.3 L0.2 47.75 -1.9 47.0 M42.5 53.2 L40.45 54.45 M42.5 53.2 L44.9 51.65 43.4 49.6" fill="none" stroke="#3f3323" stroke-linecap="round" stroke-linejoin="round" stroke-width="1.0"/>
      <path d="M36.8 16.3 L36.9 16.3 Q38.2 16.3 40.05 15.2 41.9 14.1 43.55 14.1 45.7 14.1 46.5 15.15 L45.65 15.05 Q44.05 15.05 43.0 17.05 L42.65 17.8 41.6 20.1 Q41.05 21.2 39.9 22.0 L38.3 23.05 Q35.15 24.45 32.25 22.7 28.55 20.5 26.05 17.1 M49.7 32.85 Q50.65 35.8 49.55 36.1 L48.35 36.3 47.85 36.2 M34.4 28.85 L34.75 28.55 Q35.8 27.8 36.85 27.6 L38.65 27.8 41.35 27.85 41.6 27.6 42.8 26.1 43.15 25.6 43.4 25.45 Q46.5 22.8 50.15 25.15 L50.65 25.5 49.8 26.2 Q48.05 28.25 48.95 31.1 M49.7 32.85 L49.65 32.8 49.0 31.25 M34.65 15.4 L35.8 16.05 36.8 16.3 M34.65 15.4 L33.05 13.5 30.3 9.2 Q28.85 7.45 27.4 6.35 25.55 5.0 23.7 4.7 M34.3 28.9 L34.4 28.85" fill="none" stroke="#742736" stroke-linecap="round" stroke-linejoin="round" stroke-width="1.0"/>
      <path d="M22.85 49.1 L23.3 47.65 Q25.4 46.15 27.7 46.15 L28.6 46.2 30.15 46.5 Q30.65 46.6 31.15 46.85 L31.85 47.15 32.7 47.6 34.0 48.75 34.8 50.2 35.05 51.75 34.65 52.95 34.1 54.45 M22.7 49.55 L22.85 49.1 M21.55 53.35 L21.5 53.25 21.9 52.0 22.7 49.55 M30.5 54.45 L30.3 54.25 28.8 53.0 28.05 52.85 26.3 52.6 25.2 52.75 Q24.25 53.0 23.45 53.75 L23.2 54.45 M22.05 54.45 L21.65 53.6 21.55 53.35" fill="none" stroke="#29343a" stroke-linecap="round" stroke-linejoin="round" stroke-width="1.0"/>
      <path d="M48.3 10.85 L48.25 10.85 Q47.35 11.95 45.75 11.4 44.4 10.95 42.65 9.55 44.9 9.45 48.1 7.15 50.9 5.95 53.45 8.8 50.65 8.65 48.3 10.85 M55.15 9.35 L55.0 8.95 Q51.5 4.35 47.6 6.25 L47.5 6.25 Q43.55 9.15 41.4 8.15 L41.0 8.1 40.9 8.15 40.9 8.25 41.5 9.25 42.1 9.9 Q44.05 11.6 45.55 12.1 47.65 12.75 48.8 11.35 50.9 9.35 53.4 9.5 L53.6 9.5 54.65 9.35 55.1 9.4 55.15 9.35" fill="#3f3323" fill-rule="evenodd" stroke="none"/>
    </g>
    <g id="shape2" transform="matrix(1.0, 0.0, 0.0, 1.0, 0.0, 0.0)">
      <path d="M50.5 0.0 Q53.95 0.0 53.95 3.3 L53.95 50.15 Q53.95 53.4 50.5 53.4 L3.3 53.4 Q0.0 53.4 0.0 50.15 L0.0 3.3 Q0.0 0.0 3.3 0.0 L50.5 0.0" fill="#000000" fill-opacity="0.003921569" fill-rule="evenodd" stroke="none"/>
    </g>
  </defs>
</svg>
