<?xml version="1.0" encoding="UTF-8" standalone="no"?>
<svg xmlns:ffdec="https://www.free-decompiler.com/flash" xmlns:xlink="http://www.w3.org/1999/xlink" ffdec:objectType="frame" height="56.85px" width="55.85px" xmlns="http://www.w3.org/2000/svg">
  <g transform="matrix(1.0, 0.0, 0.0, 1.0, 1.9, 1.45)">
    <clipPath id="clipPath0" transform="matrix(1.0, 0.0, 0.0, 1.0, 0.0, 0.0)">
      <path d="M50.5 0.0 Q53.95 0.0 53.95 3.3 L53.95 50.15 Q53.95 53.4 50.5 53.4 L3.3 53.4 Q0.0 53.4 0.0 50.15 L0.0 3.3 Q0.0 0.0 3.3 0.0 L50.5 0.0" fill="#000000" fill-rule="evenodd" stroke="none"/>
    </clipPath>
    <g clip-path="url(#clipPath0)">
      <use ffdec:characterId="2" height="56.85" transform="matrix(1.0, 0.0, 0.0, 1.0, -1.9, -1.45)" width="55.85" xlink:href="#shape1"/>
    </g>
    <use ffdec:characterId="3" height="53.4" transform="matrix(1.0, 0.0, 0.0, 1.0, 0.0, 0.0)" width="53.95" xlink:href="#shape2"/>
  </g>
  <defs>
    <g id="shape1" transform="matrix(1.0, 0.0, 0.0, 1.0, 1.9, 1.45)">
      <path d="M17.6 -0.95 L19.8 -0.95 19.25 1.55 18.8 4.15 18.75 4.45 18.65 4.45 18.4 4.4 17.05 4.0 Q16.85 1.7 17.6 -0.95 M29.0 -0.95 L29.7 -0.95 29.6 0.3 29.55 0.95 29.55 1.35 29.55 1.8 29.6 2.45 29.5 2.4 29.3 2.2 29.1 2.0 28.75 1.7 28.45 1.3 28.55 0.8 28.8 -0.3 29.0 -0.95" fill="#5239b1" fill-rule="evenodd" stroke="none"/>
      <path d="M16.1 -0.95 L17.6 -0.95 Q16.85 1.7 17.05 4.0 L16.15 3.75 15.0 3.35 14.6 3.2 Q15.0 1.7 15.65 0.15 L15.9 -0.5 16.1 -0.95 M16.65 3.2 L15.0 3.35 16.65 3.2 M26.55 -0.85 L26.6 -0.95 29.0 -0.95 28.8 -0.3 28.55 0.8 28.45 1.3 27.55 0.35 27.35 0.1 27.2 -0.05 26.9 -0.4 26.55 -0.85 M39.1 9.1 L40.05 10.15 38.45 12.4 37.9 13.15 36.55 14.6 35.65 15.55 35.45 15.8 33.85 17.15 31.15 18.8 30.95 18.8 Q26.65 18.5 22.1 13.35 19.75 10.65 18.55 8.2 L18.45 8.0 18.3 8.0 16.65 7.4 16.6 7.35 16.15 7.2 Q12.55 5.85 9.1 4.1 L7.4 3.25 7.5 1.6 7.7 1.7 11.35 4.6 Q12.85 5.7 14.85 6.6 L17.25 7.55 17.55 7.7 18.2 7.9 19.65 8.35 20.7 9.65 21.9 10.75 22.7 11.4 25.5 13.15 26.45 13.65 Q28.45 14.55 30.45 15.1 L30.8 15.2 31.7 15.4 35.35 12.8 Q38.0 10.65 39.1 9.1 M37.85 17.6 L38.05 17.75 37.7 18.0 36.35 19.0 37.65 17.8 37.85 17.6 M38.3 24.0 L38.25 24.05 38.25 23.9 38.3 24.0 M21.85 27.05 L21.8 27.1 21.7 27.05 21.85 27.05" fill="#33127a" fill-rule="evenodd" stroke="none"/>
      <path d="M19.25 1.55 L19.8 -0.95 25.15 -0.95 25.7 -0.75 25.8 -0.75 26.2 -0.6 26.55 -0.85 26.9 -0.4 27.2 -0.05 27.35 0.1 27.55 0.35 28.45 1.3 28.75 1.7 29.1 2.0 28.25 2.45 28.2 2.45 24.45 3.9 24.4 3.9 22.0 2.8 21.5 2.55 20.75 2.2 20.0 1.9 19.25 1.55 M29.7 -0.95 L33.15 -0.95 33.45 -0.3 33.95 0.8 33.75 0.95 33.1 1.8 Q32.2 2.9 32.25 3.2 31.3 3.2 29.65 2.45 L29.6 2.45 29.55 1.8 29.55 1.35 29.55 0.95 29.6 0.3 29.7 -0.95" fill="#6e64c5" fill-rule="evenodd" stroke="none"/>
      <path d="M25.15 -0.95 L26.5 -0.95 26.55 -0.85 26.2 -0.6 25.8 -0.75 25.7 -0.75 25.15 -0.95" fill="#88b6ff" fill-rule="evenodd" stroke="none"/>
      <path d="M17.05 4.0 L18.4 4.4 18.65 4.45 18.75 4.45 18.8 4.15 19.25 1.55 20.0 1.9 20.75 2.2 21.5 2.55 22.0 2.8 24.4 3.9 24.45 3.9 28.2 2.45 28.25 2.45 29.1 2.0 29.3 2.2 29.5 2.4 29.6 2.5 29.65 2.45 Q31.3 3.2 32.25 3.2 32.2 2.9 33.1 1.8 L33.75 0.95 33.95 0.8 34.05 0.95 35.25 3.4 36.25 5.05 38.05 7.75 Q37.1 7.25 36.05 7.25 L35.2 7.3 33.95 7.45 Q30.65 8.1 28.25 10.8 27.05 12.3 26.45 13.65 L25.5 13.15 22.7 11.4 21.9 10.75 20.7 9.65 19.65 8.35 18.2 7.9 17.55 7.7 17.25 7.55 14.85 6.6 Q12.85 5.7 11.35 4.6 L7.7 1.7 Q11.5 3.3 14.55 3.35 L14.7 3.35 15.0 3.35 16.15 3.75 17.05 4.0 M30.75 3.5 L29.75 2.65 29.6 2.5 29.75 2.65 30.75 3.5" fill="#553eb0" fill-rule="evenodd" stroke="none"/>
      <path d="M-1.4 9.3 L-1.4 8.0 -1.25 8.25 Q0.05 10.55 1.65 12.1 L1.6 12.25 -0.9 9.85 -1.4 9.3" fill="#bbfdfb" fill-rule="evenodd" stroke="none"/>
      <path d="M-1.4 8.0 L-1.4 4.7 1.1 8.35 1.55 7.05 1.65 6.75 2.35 5.0 2.6 5.4 3.65 7.05 6.65 11.95 7.25 12.1 7.95 12.3 Q8.2 12.35 8.2 12.45 L8.0 12.5 7.4 12.6 6.95 12.7 6.55 12.75 5.75 12.85 5.5 12.15 4.4 9.95 4.2 9.6 3.75 8.8 2.95 7.45 2.5 8.35 2.35 8.75 Q1.65 10.35 1.65 12.1 0.05 10.55 -1.25 8.25 L-1.4 8.0" fill="#a53ccc" fill-rule="evenodd" stroke="none"/>
      <path d="M50.55 31.85 L50.5 32.35 50.35 33.6 50.2 34.45 50.2 34.55 50.15 34.6 49.5 35.2 49.25 35.4 47.6 36.85 47.55 36.85 46.4 37.85 46.15 38.1 46.1 38.15 45.25 38.8 45.1 38.95 44.8 39.2 44.45 39.45 43.95 38.8 42.55 38.25 44.15 37.45 44.55 37.2 44.65 37.2 45.15 36.9 45.75 36.6 45.9 36.5 47.0 35.7 47.5 35.35 49.1 33.9 49.4 33.5 49.9 32.9 49.9 32.85 50.15 32.6 50.45 32.05 50.55 31.85 M-1.4 22.9 L-1.4 17.0 2.45 17.5 4.9 17.6 5.1 17.6 8.9 17.3 9.7 17.15 9.85 17.1 11.4 16.6 9.75 15.4 8.65 14.65 8.55 14.6 7.9 14.1 8.15 13.05 8.15 12.9 8.2 12.45 Q8.2 12.35 7.95 12.3 L7.25 12.1 6.65 11.95 3.65 7.05 2.6 5.4 2.35 5.0 1.65 6.75 1.55 7.05 1.1 8.35 -1.4 4.7 -1.4 -0.95 -0.3 -0.95 0.6 -0.05 5.25 3.75 1.9 2.75 3.3 4.9 Q5.2 7.85 6.45 8.95 L7.5 9.6 8.3 10.1 10.05 11.2 9.9 12.15 9.75 13.2 12.45 15.35 12.75 15.55 Q13.9 16.4 14.85 17.2 L13.4 17.85 12.0 18.25 11.1 18.45 9.05 18.75 7.2 18.8 5.3 18.8 3.75 18.75 1.6 18.6 1.55 18.8 3.55 21.3 2.25 22.6 0.9 24.15 0.8 24.15 -1.4 22.9 M11.75 16.45 L11.4 16.6 11.75 16.45" fill="#c147ea" fill-rule="evenodd" stroke="none"/>
      <path d="M-0.3 -0.95 L0.9 -0.95 Q3.5 1.0 6.35 2.65 L6.8 2.9 6.95 3.0 7.4 3.25 9.1 4.1 Q12.55 5.85 16.15 7.2 L16.6 7.35 16.65 7.4 18.3 8.0 18.45 8.0 18.55 8.2 18.4 8.25 17.7 8.85 17.05 9.8 17.35 11.45 16.6 9.5 16.45 9.45 15.45 9.1 Q12.2 7.9 9.25 6.25 L8.8 6.0 7.25 5.1 6.45 4.55 5.9 4.25 5.6 4.0 5.25 3.75 0.6 -0.05 -0.3 -0.95 M41.55 14.55 L41.9 14.15 43.05 12.85 43.5 12.35 43.6 12.25 44.15 11.65 44.55 12.25 44.75 12.5 45.15 13.15 45.85 14.35 45.95 14.55 45.9 14.55 45.85 14.6 45.75 14.7 45.6 14.85 45.5 14.9 45.5 14.95 45.2 15.2 44.0 16.4 41.55 19.15 41.5 19.2 40.8 20.1 40.5 20.5 40.25 20.9 40.05 21.1 39.25 22.35 38.3 24.0 38.25 23.9 38.25 24.05 38.6 25.65 38.85 26.55 38.95 26.85 Q39.6 28.7 40.6 30.65 L41.65 32.55 43.1 34.5 41.05 35.15 40.95 35.2 39.4 33.3 Q37.55 31.25 36.85 31.25 L35.6 31.6 35.4 31.7 Q34.05 32.25 31.7 33.6 L31.55 33.6 31.4 33.35 28.2 30.3 26.05 30.6 25.1 29.9 24.5 29.5 23.8 28.95 21.8 27.1 21.85 27.05 24.0 26.4 Q25.0 26.0 26.45 25.55 L26.75 25.45 27.95 25.0 Q31.2 23.8 33.75 22.15 L34.5 21.6 34.8 21.45 36.6 20.0 38.0 18.75 38.5 18.2 39.1 17.6 39.7 16.85 40.7 15.7 41.55 14.55" fill="#e473ff" fill-rule="evenodd" stroke="none"/>
      <path d="M-1.4 13.9 L-1.4 9.3 -0.9 9.85 1.6 12.25 1.65 12.1 Q1.65 10.35 2.35 8.75 L2.5 8.35 2.95 7.45 3.75 8.8 4.2 9.6 4.4 9.95 4.45 10.35 Q4.45 11.6 3.7 12.35 L2.45 13.2 Q1.1 13.75 -1.2 13.9 L-1.4 13.9" fill="#00ffff" fill-rule="evenodd" stroke="none"/>
      <path d="M-1.4 24.3 L-1.4 24.1 -1.25 24.2 -0.7 24.6 -1.4 24.3" fill="#c0ffff" fill-rule="evenodd" stroke="none"/>
      <path d="M-1.4 24.1 L-1.4 22.9 0.8 24.15 0.85 24.2 0.9 24.15 2.25 22.6 3.55 21.3 5.3 23.3 6.0 24.1 8.0 26.25 9.4 27.6 9.2 28.55 7.6 28.25 7.55 28.25 6.2 27.9 5.45 27.6 4.6 26.0 3.35 23.45 2.6 25.3 2.2 26.45 0.8 25.65 0.6 25.55 -0.7 24.6 -1.25 24.2 -1.4 24.1" fill="#a43fc1" fill-rule="evenodd" stroke="none"/>
      <path d="M0.45 33.45 L-1.4 32.6 -1.4 29.3 -0.85 28.9 Q0.55 27.65 0.8 25.65 L2.2 26.45 2.6 25.3 3.35 23.45 4.6 26.0 5.45 27.6 6.2 27.9 7.55 28.25 8.0 29.15 8.3 30.15 Q8.3 31.35 6.95 32.4 L6.65 32.6 6.2 32.85 4.8 33.4 2.65 33.65 0.45 33.45 M-1.4 15.85 L-1.4 13.9 -1.2 13.9 Q1.1 13.75 2.45 13.2 L3.7 12.35 Q4.45 11.6 4.45 10.35 L4.4 9.95 5.5 12.15 5.75 12.85 6.55 12.75 Q6.45 14.65 4.6 15.35 L-0.2 15.9 -1.4 15.85" fill="#00c1e0" fill-rule="evenodd" stroke="none"/>
      <path d="M7.75 34.25 L6.15 34.4 4.9 34.4 4.45 34.4 3.7 34.4 3.55 34.4 3.35 34.35 2.5 34.15 2.65 33.65 4.8 33.4 6.2 32.85 6.65 32.6 6.95 32.4 Q8.3 31.35 8.3 30.15 L8.0 29.15 7.55 28.25 7.6 28.25 9.2 28.55 10.0 28.7 13.7 29.45 13.55 29.85 13.4 30.05 Q12.5 31.45 10.45 32.8 L8.2 34.05 7.75 34.25 M-1.4 17.0 L-1.4 15.85 -0.2 15.9 4.6 15.35 Q6.45 14.65 6.55 12.75 L6.95 12.7 7.4 12.6 8.0 12.5 8.2 12.45 8.15 12.9 8.15 13.05 7.9 14.1 8.55 14.6 8.65 14.65 9.75 15.4 11.4 16.6 9.85 17.1 9.7 17.15 8.9 17.3 5.1 17.6 4.9 17.6 2.45 17.5 -1.4 17.0" fill="#2062ae" fill-rule="evenodd" stroke="none"/>
      <path d="M-1.4 29.3 L-1.4 24.3 -0.7 24.6 0.6 25.55 0.8 25.65 Q0.55 27.65 -0.85 28.9 L-1.4 29.3" fill="#05fafd" fill-rule="evenodd" stroke="none"/>
      <path d="M-1.4 53.15 L-1.4 53.05 -0.85 53.35 -1.4 53.15" fill="#e772ff" fill-rule="evenodd" stroke="none"/>
      <path d="M-0.85 53.35 L1.45 54.6 1.3 54.9 -1.4 54.9 -1.4 53.15 -0.85 53.35" fill="#9844b6" fill-rule="evenodd" stroke="none"/>
      <path d="M32.45 50.1 L29.4 48.1 29.25 48.0 27.95 47.15 27.45 46.8 26.45 46.1 27.8 45.3 28.65 44.8 27.85 43.2 27.8 43.05 27.75 42.9 27.25 41.7 26.65 39.95 28.25 40.2 28.55 40.25 29.7 40.25 31.4 40.25 34.15 40.05 34.8 39.95 36.15 39.8 37.0 40.45 37.25 40.65 40.65 43.1 41.3 43.6 40.15 45.1 39.95 45.35 39.75 45.65 39.45 46.0 38.45 47.25 38.1 47.55 37.9 47.75 37.9 47.8 37.85 47.85 37.7 47.9 37.55 48.0 37.45 48.05 36.6 48.4 36.05 48.65 35.1 49.15 34.7 49.3 34.15 49.5 33.95 49.6 33.05 50.0 32.65 50.2 32.45 50.1 M37.7 47.55 L37.1 47.5 37.0 47.55 36.3 47.6 36.6 47.8 37.25 47.9 Q37.65 47.95 37.7 47.55" fill="#ffffff" fill-rule="evenodd" stroke="none"/>
      <path d="M42.9 4.7 Q44.95 7.4 46.6 10.95 L47.0 11.75 47.45 12.8 47.55 13.05 47.55 13.1 47.3 13.3 46.5 14.0 46.3 14.15 45.95 14.55 45.85 14.35 45.15 13.15 44.75 12.5 44.55 12.25 44.15 11.65 43.6 12.25 43.5 12.35 43.05 12.85 41.9 14.15 41.55 14.55 40.7 15.35 39.6 16.4 38.95 17.0 38.05 17.75 37.85 17.6 38.8 16.55 39.4 15.8 40.8 13.65 Q41.65 12.0 42.15 10.2 L42.2 9.95 42.2 9.9 42.7 7.6 42.75 7.3 42.9 5.5 42.9 5.05 42.9 4.7" fill="#e8b2ff" fill-rule="evenodd" stroke="none"/>
      <path d="M40.05 10.15 L40.1 10.0 40.95 8.45 41.05 8.2 41.1 8.1 41.4 7.3 41.9 5.75 41.95 5.7 42.35 4.5 42.9 4.7 42.9 5.05 42.9 5.5 42.75 7.3 42.7 7.6 42.2 9.9 42.2 9.95 42.15 10.2 Q41.65 12.0 40.8 13.65 L39.4 15.8 38.8 16.55 37.85 17.6 37.65 17.8 36.35 19.0 36.25 19.1 36.2 19.1 36.2 19.15 36.15 19.15 36.15 19.2 36.0 19.25 35.1 20.0 34.6 20.3 30.4 22.7 Q25.7 21.75 22.1 18.2 L22.0 18.15 22.05 18.15 Q25.2 20.05 28.15 20.05 30.5 20.05 30.95 18.8 L31.15 18.8 33.85 17.15 35.45 15.8 35.65 15.55 36.55 14.6 37.9 13.15 38.45 12.4 40.05 10.15" fill="#9237af" fill-rule="evenodd" stroke="none"/>
      <path d="M47.55 13.1 L47.8 13.8 47.7 13.9 47.6 13.95 47.5 14.0 47.45 14.0 46.55 14.4 46.35 14.55 46.25 14.65 46.2 14.7 46.05 14.8 45.95 14.55 46.3 14.15 46.5 14.0 47.3 13.3 47.55 13.1" fill="#e176ff" fill-rule="evenodd" stroke="none"/>
      <path d="M47.7 13.9 L48.0 13.8 48.05 13.8 48.15 14.1 49.7 17.25 49.85 17.65 51.25 20.85 51.45 21.35 51.25 21.4 49.2 19.8 48.7 21.85 48.7 21.95 48.55 22.8 48.45 23.35 48.4 23.75 48.35 24.35 48.35 24.6 48.3 24.9 48.3 24.95 48.15 25.9 47.95 27.8 47.95 28.25 47.9 28.4 47.4 28.55 47.35 27.8 47.1 20.45 47.1 20.35 47.1 20.0 47.1 19.75 47.15 18.9 47.15 18.7 47.15 18.0 47.15 17.65 47.15 17.6 47.35 15.75 47.5 14.4 47.5 14.3 47.5 14.0 47.6 13.95 47.7 13.9 M47.65 17.65 L47.75 18.35 Q47.95 18.7 48.4 18.7 L48.5 18.7 48.75 18.6 48.8 18.6 49.0 18.2 48.95 18.05 48.8 17.7 48.75 17.65 48.45 17.2 48.3 17.15 48.15 17.15 47.75 17.15 47.65 17.65" fill="#acffff" fill-rule="evenodd" stroke="none"/>
      <path d="M46.05 14.8 L46.2 14.7 46.25 14.65 46.35 14.55 46.55 14.4 47.45 14.0 47.5 14.0 47.5 14.3 47.5 14.4 46.75 15.3 46.75 15.4 46.55 15.6 46.45 15.8 46.3 15.95 46.15 16.3 46.05 16.5 45.95 16.6 45.85 16.8 44.75 19.2 44.15 20.65 42.9 24.35 43.45 24.75 46.3 26.95 47.35 27.8 47.4 28.55 47.15 28.4 46.55 28.15 43.2 26.5 43.05 26.4 42.6 26.2 41.7 25.7 41.3 25.55 40.15 24.95 39.65 24.65 39.65 24.6 39.45 24.2 39.7 23.7 39.85 23.45 40.4 22.5 40.4 22.45 41.15 21.2 41.3 21.05 42.15 19.7 44.15 16.9 45.3 15.55 45.35 15.5 45.6 15.2 45.65 15.2 45.7 15.15 45.95 14.85 46.05 14.8" fill="#00f4ff" fill-rule="evenodd" stroke="none"/>
      <path d="M45.85 14.6 L46.05 14.8 45.95 14.85 45.7 15.15 45.65 15.2 45.6 15.2 45.35 15.5 45.3 15.55 44.15 16.9 42.15 19.7 41.3 21.05 41.15 21.2 40.4 22.45 40.4 22.5 39.85 23.45 39.7 23.7 39.45 24.2 39.65 24.6 39.65 24.65 41.0 27.3 42.35 29.3 42.35 29.35 42.8 29.9 42.9 30.0 44.9 32.35 44.85 32.45 43.7 34.05 43.55 34.25 43.45 34.35 43.35 34.4 43.1 34.5 41.65 32.55 40.6 30.65 Q39.6 28.7 38.95 26.85 L38.85 26.55 38.6 25.65 38.25 24.05 38.3 24.0 39.25 22.35 40.05 21.1 40.25 20.9 40.5 20.5 40.8 20.1 41.5 19.2 41.55 19.15 44.0 16.4 45.2 15.2 45.5 14.95 45.5 14.9 45.6 14.85 45.75 14.7 45.85 14.6" fill="#a345cd" fill-rule="evenodd" stroke="none"/>
      <path d="M44.9 32.35 L42.9 30.0 42.8 29.9 42.35 29.35 42.35 29.3 41.0 27.3 39.65 24.65 40.15 24.95 41.3 25.55 41.7 25.7 42.6 26.2 42.7 26.4 42.9 27.0 43.95 29.6 44.25 30.4 44.9 32.35 M47.35 27.8 L46.3 26.95 43.45 24.75 42.9 24.35 44.15 20.65 44.75 19.2 45.85 16.8 45.95 16.6 46.05 16.5 46.15 16.3 46.3 15.95 46.45 15.8 46.55 15.6 46.75 15.4 46.75 15.3 47.5 14.4 47.35 15.75 47.15 17.6 47.15 17.65 47.15 18.0 47.15 18.7 47.15 18.9 47.1 19.75 47.1 20.0 47.1 20.35 47.1 20.45 47.35 27.8" fill="#0193e0" fill-rule="evenodd" stroke="none"/>
      <path d="M47.65 17.65 L47.75 17.15 48.15 17.15 48.3 17.15 48.45 17.2 48.75 17.65 48.8 17.7 48.95 18.05 49.0 18.2 48.8 18.6 48.75 18.6 48.5 18.7 48.4 18.7 Q47.95 18.7 47.75 18.35 L47.65 17.65" fill="#fffdfc" fill-rule="evenodd" stroke="none"/>
      <path d="M38.05 17.75 L38.95 17.0 39.6 16.4 40.7 15.35 41.55 14.55 40.7 15.7 39.7 16.85 39.1 17.6 38.5 18.2 38.0 18.75 36.6 20.0 34.8 21.45 34.5 21.6 33.75 22.15 Q31.2 23.8 27.95 25.0 L26.75 25.45 25.8 25.0 Q24.65 24.4 23.3 23.2 L23.1 23.0 Q19.3 19.55 18.05 14.55 L17.35 11.45 18.75 14.1 20.2 16.05 20.85 16.9 21.25 17.35 21.95 18.05 21.95 18.1 22.0 18.1 22.0 18.15 22.1 18.2 Q25.7 21.75 30.4 22.7 L34.6 20.3 35.1 20.0 36.0 19.25 36.15 19.2 36.15 19.15 36.2 19.15 36.2 19.1 36.25 19.1 36.35 19.0 37.7 18.0 38.05 17.75" fill="#c249e2" fill-rule="evenodd" stroke="none"/>
      <path d="M51.45 21.35 L51.55 21.6 53.45 26.6 53.35 26.75 53.0 26.85 51.15 27.4 50.55 27.6 50.3 27.7 49.8 27.85 49.55 27.9 49.1 28.05 49.05 28.05 48.95 28.1 48.45 28.25 47.95 28.4 47.95 28.25 47.95 27.8 48.15 25.9 48.3 24.95 48.3 24.9 48.35 24.6 48.35 24.35 48.4 23.75 48.45 23.35 48.55 22.8 48.7 21.95 48.7 21.85 49.2 19.8 51.25 21.4 51.45 21.35" fill="#01ffff" fill-rule="evenodd" stroke="none"/>
      <path d="M53.35 26.75 L53.05 27.05 51.95 28.05 51.6 28.4 50.75 29.1 50.75 29.15 50.7 29.15 50.4 29.3 50.25 29.4 49.95 29.55 49.5 29.8 49.45 29.8 49.3 29.9 49.2 29.9 48.7 30.2 47.0 31.2 46.65 31.4 45.45 32.1 44.95 32.35 44.9 32.35 45.35 31.75 45.95 30.9 46.75 29.55 47.15 28.6 47.4 28.55 47.9 28.4 47.95 28.4 48.45 28.25 48.95 28.1 49.05 28.05 49.1 28.05 49.55 27.9 49.8 27.85 50.3 27.7 50.55 27.6 51.15 27.4 53.0 26.85 53.35 26.75" fill="#0aceff" fill-rule="evenodd" stroke="none"/>
      <path d="M50.7 29.15 L50.7 29.25 50.65 30.75 50.55 31.85 50.45 32.05 50.15 32.6 49.9 32.85 49.9 32.9 49.4 33.5 49.1 33.9 47.5 35.35 47.0 35.7 45.9 36.5 45.75 36.6 45.15 36.9 44.65 37.2 44.55 37.2 44.15 37.45 42.55 38.25 41.85 37.9 40.5 37.4 39.75 37.05 39.1 37.15 35.75 37.55 35.7 37.55 35.5 37.55 31.7 33.75 31.95 33.65 33.8 34.3 34.75 35.05 35.6 35.65 36.3 36.25 37.4 36.3 37.45 36.3 40.1 36.0 40.8 36.2 41.7 36.35 41.45 36.0 41.0 35.25 40.95 35.2 41.05 35.15 43.1 34.5 43.35 34.4 43.45 34.35 43.55 34.3 43.75 34.25 45.2 33.55 45.35 33.45 45.65 33.3 45.95 33.15 47.15 32.45 48.8 31.15 49.25 30.6 49.4 30.45 49.5 30.35 49.55 30.2 49.95 29.55 50.25 29.4 50.4 29.3 50.7 29.15" fill="#e276ff" fill-rule="evenodd" stroke="none"/>
      <path d="M42.6 26.2 L43.05 26.4 43.2 26.5 46.55 28.15 47.15 28.4 47.4 28.55 47.15 28.6 46.75 29.55 45.95 30.9 45.35 31.75 44.9 32.35 44.25 30.4 43.95 29.6 42.9 27.0 42.7 26.4 42.6 26.2" fill="#2559bc" fill-rule="evenodd" stroke="none"/>
      <path d="M43.45 34.35 L43.55 34.25 43.7 34.05 44.85 32.45 44.9 32.35 44.9 32.4 44.95 32.35 45.45 32.1 46.65 31.4 47.0 31.2 48.7 30.2 49.2 29.9 49.3 29.9 49.45 29.8 49.5 29.8 49.95 29.55 49.55 30.2 49.5 30.35 49.4 30.45 49.25 30.6 48.8 31.15 47.15 32.45 45.95 33.15 45.65 33.3 45.35 33.45 45.2 33.55 43.75 34.25 43.55 34.3 43.45 34.35" fill="#a231db" fill-rule="evenodd" stroke="none"/>
      <path d="M21.8 27.1 L23.8 28.95 24.5 29.5 25.1 29.9 26.05 30.6 28.2 30.3 31.4 33.35 31.55 33.6 31.65 33.65 31.7 33.75 35.5 37.55 35.7 37.55 35.75 37.55 39.1 37.15 39.75 37.05 40.5 37.4 41.85 37.9 42.55 38.25 43.95 38.8 44.45 39.45 42.25 41.05 39.9 40.2 39.0 39.85 38.95 39.85 37.0 38.9 35.75 38.25 35.4 38.1 35.2 37.95 34.35 37.5 32.25 36.35 27.35 33.35 25.5 32.0 24.85 31.5 24.3 31.1 24.3 30.85 22.35 31.85 21.7 32.3 21.6 33.0 21.5 33.7 Q21.5 35.6 22.2 38.55 L22.85 41.6 Q22.85 42.6 20.5 43.45 L20.35 43.5 18.65 44.05 17.95 44.15 17.9 44.1 17.7 41.8 17.6 40.0 Q17.6 36.45 18.75 33.7 L19.45 32.45 20.25 31.2 19.7 30.5 18.9 29.65 18.45 29.2 17.8 29.2 17.35 29.25 16.65 29.4 16.45 29.4 15.65 29.55 15.15 29.6 13.55 29.85 13.7 29.45 10.0 28.7 9.2 28.55 9.4 27.6 8.0 26.25 9.8 26.55 11.85 26.8 15.9 27.25 16.6 27.3 17.7 27.35 19.6 27.2 19.85 27.15 20.5 27.05 21.05 27.0 21.6 27.1 21.7 27.05 21.8 27.1 M31.95 33.65 L34.25 32.95 35.45 32.6 36.6 32.3 37.35 32.85 38.9 34.05 40.55 35.25 40.95 35.55 41.45 36.0 41.7 36.35 40.8 36.2 40.1 36.0 40.15 36.0 40.05 35.9 39.3 35.35 36.95 33.8 36.7 33.65 36.55 33.65 35.5 33.85 34.35 34.0 33.65 34.15 33.8 34.3 31.95 33.65" fill="#a33fc6" fill-rule="evenodd" stroke="none"/>
      <path d="M31.7 33.6 Q34.05 32.25 35.4 31.7 L35.6 31.6 36.85 31.25 Q37.55 31.25 39.4 33.3 L40.95 35.2 41.0 35.25 41.45 36.0 40.95 35.55 40.55 35.25 38.9 34.05 37.35 32.85 36.6 32.3 35.45 32.6 34.25 32.95 31.95 33.65 31.7 33.6 M17.35 11.45 L18.05 14.55 Q19.3 19.55 23.1 23.0 L23.3 23.2 Q24.65 24.4 25.8 25.0 24.7 24.8 23.55 24.2 L22.7 23.65 Q20.7 22.2 18.65 19.25 L16.35 15.55 Q15.4 13.8 14.85 12.1 L14.8 11.95 11.4 8.9 9.9 7.55 8.75 6.55 7.25 5.25 6.45 4.55 7.25 5.1 8.8 6.0 9.25 6.25 Q12.2 7.9 15.45 9.1 L16.45 9.45 16.6 9.5 17.35 11.45" fill="#eab6ff" fill-rule="evenodd" stroke="none"/>
      <path d="M46.1 38.15 L48.7 42.05 48.55 42.35 45.7 42.45 44.6 39.8 44.8 39.2 45.1 38.95 45.25 38.8 46.1 38.15" fill="#e66bff" fill-rule="evenodd" stroke="none"/>
      <path d="M48.55 42.35 Q48.05 43.5 46.9 44.25 L46.2 44.65 Q44.75 45.35 42.5 45.55 L42.65 45.35 42.75 45.05 42.8 44.85 42.9 44.6 43.2 43.7 44.6 39.8 45.7 42.45 48.55 42.35" fill="#b649d8" fill-rule="evenodd" stroke="none"/>
      <path d="M42.5 45.55 Q41.6 46.7 39.75 47.85 L39.5 48.0 39.3 48.1 38.2 48.7 36.9 49.3 36.6 49.4 36.0 49.7 35.25 50.0 35.0 50.1 33.75 50.55 33.45 50.7 33.25 50.55 32.65 50.2 33.05 50.0 33.95 49.6 34.15 49.5 34.7 49.3 35.1 49.15 36.05 48.65 36.6 48.4 37.45 48.05 37.55 48.0 37.7 47.9 37.85 47.85 37.9 47.8 37.9 47.75 38.1 47.55 38.45 47.25 39.45 46.0 39.75 45.65 39.95 45.35 40.15 45.1 41.3 43.6 40.65 43.1 37.25 40.65 37.0 40.45 36.15 39.8 34.8 39.95 34.15 40.05 31.4 40.25 29.7 40.25 28.55 40.25 28.25 40.2 26.65 39.95 27.25 41.7 27.75 42.9 27.8 43.05 27.85 43.2 28.65 44.8 27.8 45.3 26.45 46.1 27.45 46.8 27.95 47.15 29.25 48.0 29.4 48.1 32.45 50.1 32.2 50.45 29.1 48.95 28.2 48.5 25.55 47.1 25.2 46.9 25.1 46.85 23.85 46.1 24.45 45.9 25.4 45.65 Q26.35 45.35 26.9 45.05 L25.55 42.7 25.5 42.65 Q23.1 38.15 22.8 34.35 L23.8 35.2 24.0 35.35 24.45 35.95 Q25.65 37.4 28.6 38.25 L28.8 38.3 28.85 38.3 29.1 38.55 29.2 38.6 30.2 39.05 33.9 39.45 35.95 39.2 37.0 38.9 38.95 39.85 39.0 39.85 39.9 40.2 42.25 41.05 44.45 39.45 44.8 39.2 44.6 39.8 43.2 43.7 42.9 44.6 42.8 44.85 42.75 45.05 42.65 45.35 42.5 45.55 M31.55 33.6 L31.7 33.6 31.95 33.65 31.7 33.75 31.65 33.65 31.55 33.6 M24.3 31.1 L24.85 31.5 25.5 32.0 23.45 32.6 22.8 32.85 22.8 32.45 24.3 31.1 M35.2 37.95 L35.4 38.1 34.8 38.25 35.2 37.95" fill="#e5b4ec" fill-rule="evenodd" stroke="none"/>
      <path d="M39.5 48.0 L39.55 48.0 39.65 48.1 40.55 48.6 41.5 49.1 41.85 49.75 42.5 50.8 43.75 53.0 43.75 53.2 43.55 53.2 42.85 53.25 42.8 53.25 41.75 52.15 39.95 49.5 39.9 49.3 39.55 48.65 39.35 48.25 39.3 48.1 39.5 48.0" fill="#5f53d1" fill-rule="evenodd" stroke="none"/>
      <path d="M38.05 7.75 L39.1 9.1 Q38.0 10.65 35.35 12.8 L31.7 15.4 30.8 15.2 30.45 15.1 Q28.45 14.55 26.45 13.65 27.05 12.3 28.25 10.8 30.65 8.1 33.95 7.45 L35.2 7.3 36.05 7.25 Q37.1 7.25 38.05 7.75" fill="#3e1e8d" fill-rule="evenodd" stroke="none"/>
      <path d="M30.95 18.8 Q30.5 20.05 28.15 20.05 25.2 20.05 22.05 18.15 L22.0 18.15 22.0 18.1 21.95 18.1 21.95 18.05 21.25 17.35 20.85 16.9 20.2 16.05 18.75 14.1 17.35 11.45 17.05 9.8 17.7 8.85 18.4 8.25 18.55 8.2 Q19.75 10.65 22.1 13.35 26.65 18.5 30.95 18.8" fill="#a340c1" fill-rule="evenodd" stroke="none"/>
      <path d="M26.75 25.45 L26.45 25.55 Q25.0 26.0 24.0 26.4 L21.85 27.05 21.4 26.95 19.7 26.6 19.05 26.45 16.9 26.0 16.55 25.9 15.5 25.65 12.7 24.6 12.2 24.3 9.4 22.5 6.25 20.55 5.5 20.05 3.75 18.75 5.3 18.8 7.2 18.8 9.05 18.75 11.1 18.45 12.0 18.25 13.4 17.85 14.85 17.2 Q13.9 16.4 12.75 15.55 L12.45 15.35 9.75 13.2 9.9 12.15 10.05 11.2 8.3 10.1 7.5 9.6 6.45 8.95 Q5.2 7.85 3.3 4.9 L1.9 2.75 5.25 3.75 5.6 4.0 5.9 4.25 6.45 4.55 7.25 5.25 8.75 6.55 9.9 7.55 11.4 8.9 14.8 11.95 14.85 12.1 Q15.4 13.8 16.35 15.55 L18.65 19.25 Q20.7 22.2 22.7 23.65 L23.55 24.2 Q24.7 24.8 25.8 25.0 L26.75 25.45" fill="#eb6fff" fill-rule="evenodd" stroke="none"/>
      <path d="M3.75 18.75 L5.5 20.05 6.25 20.55 9.4 22.5 12.2 24.3 12.15 24.4 12.7 24.6 15.5 25.65 16.55 25.9 16.9 26.0 19.05 26.45 19.7 26.6 21.4 26.95 21.85 27.05 21.7 27.05 21.6 27.1 21.05 27.0 20.5 27.05 19.85 27.15 19.6 27.2 17.7 27.35 16.6 27.3 15.9 27.25 11.85 26.8 9.8 26.55 8.0 26.25 6.0 24.1 5.3 23.3 3.55 21.3 1.55 18.8 1.6 18.6 3.75 18.75 M17.95 44.15 L18.65 44.05 20.35 43.5 20.5 43.45 Q22.85 42.6 22.85 41.6 L22.2 38.55 Q21.5 35.6 21.5 33.7 L21.6 33.0 21.7 32.3 22.35 31.85 24.3 30.85 24.3 31.1 22.8 32.45 22.8 32.85 22.75 33.25 22.8 34.35 Q23.1 38.15 25.5 42.65 L25.55 42.7 26.9 45.05 Q26.35 45.35 25.4 45.65 L24.45 45.9 23.85 46.1 20.05 46.65 19.55 46.65 18.35 46.6 18.15 45.55 17.9 44.15 17.95 44.15" fill="#c049e1" fill-rule="evenodd" stroke="none"/>
      <path d="M15.65 29.55 L16.45 29.4 16.65 29.4 17.35 29.25 17.8 29.2 Q17.25 29.45 16.65 30.15 L16.65 30.2 Q15.65 31.4 14.65 33.95 13.25 37.7 13.55 38.9 L13.55 39.45 Q13.05 38.8 11.95 35.65 L12.45 34.45 Q13.8 31.25 15.65 29.55" fill="#ecbefe" fill-rule="evenodd" stroke="none"/>
      <path d="M11.95 35.65 Q13.05 38.8 13.55 39.45 L13.55 38.9 Q13.25 37.7 14.65 33.95 15.65 31.4 16.65 30.2 L16.65 30.15 Q17.25 29.45 17.8 29.2 L18.45 29.2 18.9 29.65 19.7 30.5 20.25 31.2 19.45 32.45 18.75 33.7 Q17.6 36.45 17.6 40.0 L17.7 41.8 17.9 44.1 17.6 44.15 17.55 44.15 17.45 44.15 16.25 43.9 14.7 43.15 14.2 42.85 13.3 42.15 Q12.35 41.25 11.75 40.15 L11.15 38.15 11.2 37.85 11.95 35.65" fill="#e374ff" fill-rule="evenodd" stroke="none"/>
      <path d="M11.9 45.35 L11.85 45.3 Q9.7 44.25 7.95 42.15 6.4 40.3 5.65 38.4 5.1 36.95 4.95 35.45 L6.05 35.05 7.75 34.25 8.2 34.05 10.45 32.8 Q12.5 31.45 13.4 30.05 L13.55 29.85 15.15 29.6 15.65 29.55 Q13.8 31.25 12.45 34.45 L11.95 35.65 11.2 37.85 11.15 38.15 11.75 40.15 Q12.35 41.25 13.3 42.15 L14.2 42.85 14.7 43.15 16.25 43.9 17.45 44.15 17.55 44.15 17.6 44.15 17.9 44.1 17.95 44.15 17.9 44.15 18.15 45.55 18.35 46.6 17.95 46.55 17.65 46.55 16.9 46.4 16.65 46.3 16.6 46.3 15.65 46.3 Q13.8 46.15 12.2 45.45 L11.9 45.35" fill="#c647de" fill-rule="evenodd" stroke="none"/>
      <path d="M8.7 54.9 L6.0 54.9 Q3.95 53.5 2.8 50.65 L2.35 49.3 2.0 48.05 2.8 48.6 Q3.5 49.05 4.35 49.35 6.2 50.0 8.5 50.05 L8.8 50.05 8.95 50.05 10.3 49.95 11.35 49.7 11.6 49.5 Q12.2 48.85 12.2 48.1 L11.9 47.0 11.9 46.95 11.15 45.85 11.9 45.35 12.2 45.45 Q13.8 46.15 15.65 46.3 L16.6 46.3 16.65 46.3 16.9 46.4 17.65 46.55 17.95 46.55 18.35 46.6 19.55 46.65 17.05 48.5 16.9 48.6 16.8 48.65 16.95 48.65 17.15 49.7 16.35 50.0 Q15.1 50.4 13.8 51.1 12.75 51.7 12.05 52.3 L11.55 52.75 11.3 52.95 11.1 52.15 11.05 52.1 10.9 51.25 Q10.9 50.3 11.6 49.65 L11.35 49.7 11.1 49.9 10.45 51.0 Q9.65 52.15 9.45 53.1 L9.0 54.1 8.7 54.8 8.7 54.9" fill="#3b228a" fill-rule="evenodd" stroke="none"/>
      <path d="M2.0 48.05 L1.75 47.1 4.6 47.4 6.95 47.25 9.1 46.75 Q10.2 46.4 11.15 45.85 L11.9 46.95 11.9 47.0 12.2 48.1 Q12.2 48.85 11.6 49.5 L11.35 49.7 10.3 49.95 8.95 50.05 8.8 50.05 8.5 50.05 Q6.2 50.0 4.35 49.35 3.5 49.05 2.8 48.6 L2.0 48.05" fill="#604cd2" fill-rule="evenodd" stroke="none"/>
      <path d="M34.2 54.9 L31.8 54.9 Q31.75 54.05 30.9 53.3 L30.6 53.1 Q29.8 52.45 28.75 52.4 L28.75 53.1 29.0 54.9 26.1 54.9 25.45 53.4 24.45 52.05 23.65 51.2 Q22.8 50.45 21.8 49.85 L21.7 49.8 21.4 49.55 Q21.15 49.3 20.85 49.4 L19.95 49.35 17.15 49.7 16.95 48.65 17.05 48.5 Q19.05 47.75 20.75 47.35 L21.65 47.15 24.05 46.9 25.1 46.85 25.2 46.9 25.55 47.1 28.2 48.5 29.1 48.95 32.2 50.45 32.45 50.1 32.65 50.2 33.25 50.55 33.3 50.75 Q33.95 52.7 34.2 54.9 M33.3 50.75 L33.05 50.8 32.55 50.6 32.4 50.5 32.2 50.45 32.4 50.5 32.55 50.6 33.05 50.8 33.3 50.75" fill="#3e218d" fill-rule="evenodd" stroke="none"/>
      <path d="M35.45 54.9 L34.2 54.9 Q33.95 52.7 33.3 50.75 L33.45 50.7 33.75 50.55 35.0 50.1 35.25 50.0 35.4 51.85 35.45 53.25 35.45 53.9 35.45 54.9 M33.25 50.55 L33.45 50.7 33.3 50.75 33.25 50.55 M23.85 46.1 L25.1 46.85 24.05 46.9 21.65 47.15 20.75 47.35 Q19.05 47.75 17.05 48.5 L19.55 46.65 20.05 46.65 23.85 46.1" fill="#340f54" fill-rule="evenodd" stroke="none"/>
      <path d="M28.9 34.9 L29.0 34.95 30.5 35.65 30.7 35.75 31.7 36.4 Q32.6 37.05 33.05 37.9 L32.55 37.95 31.55 38.0 31.4 38.0 29.9 37.95 29.1 37.85 29.0 37.85 28.25 36.5 28.15 36.0 Q28.9 35.95 28.9 35.2 L28.9 34.9" fill="#28c250" fill-rule="evenodd" stroke="none"/>
      <path d="M27.35 33.35 L32.25 36.35 34.35 37.5 35.2 37.95 34.8 38.25 33.4 38.6 31.8 38.7 31.4 38.7 29.75 38.6 29.2 38.6 29.1 38.55 28.85 38.3 28.8 38.3 28.7 38.2 28.1 37.65 27.9 37.45 27.55 37.05 25.8 34.85 25.35 34.25 27.05 33.4 27.35 33.35 M28.15 36.0 L28.25 36.5 29.0 37.85 29.1 37.85 29.9 37.95 31.4 38.0 31.55 38.0 32.55 37.95 33.05 37.9 Q32.6 37.05 31.7 36.4 L30.7 35.75 30.5 35.65 29.0 34.95 28.9 34.9 28.85 34.85 28.45 34.45 28.2 34.4 Q27.25 34.4 27.25 35.15 27.25 35.45 27.55 35.75 L28.05 36.0 28.15 36.0" fill="#26774c" fill-rule="evenodd" stroke="none"/>
      <path d="M33.8 34.3 L33.65 34.15 34.35 34.0 35.5 33.85 36.55 33.65 36.7 33.65 36.95 33.8 36.65 34.3 36.45 35.1 36.7 35.65 Q37.0 36.05 37.45 36.1 L37.45 36.3 37.4 36.3 36.3 36.25 35.6 35.65 34.75 35.05 33.8 34.3" fill="#098cd2" fill-rule="evenodd" stroke="none"/>
      <path d="M36.95 33.8 L39.3 35.35 40.05 35.9 40.15 36.0 40.1 36.0 37.45 36.3 37.45 36.1 Q37.0 36.05 36.7 35.65 L36.45 35.1 36.65 34.3 36.95 33.8" fill="#0dfcf7" fill-rule="evenodd" stroke="none"/>
      <path d="M25.5 32.0 L27.35 33.35 27.05 33.4 25.35 34.25 25.8 34.85 27.55 37.05 27.9 37.45 28.1 37.65 28.7 38.2 28.8 38.3 28.6 38.25 Q25.65 37.4 24.45 35.95 L24.0 35.35 23.8 35.2 22.8 34.35 22.75 33.25 22.8 32.85 23.45 32.6 25.5 32.0 M35.4 38.1 L35.75 38.25 37.0 38.9 35.95 39.2 33.9 39.45 30.2 39.05 29.2 38.6 29.75 38.6 31.4 38.7 31.8 38.7 33.4 38.6 34.8 38.25 35.4 38.1 M24.0 35.35 Q26.05 36.95 28.6 38.25 26.05 36.95 24.0 35.35" fill="#fd91cf" fill-rule="evenodd" stroke="none"/>
      <path d="M28.9 34.9 L28.9 35.2 Q28.9 35.95 28.15 36.0 L28.05 36.0 27.55 35.75 Q27.25 35.45 27.25 35.15 27.25 34.4 28.2 34.4 L28.45 34.45 28.85 34.85 28.9 34.9" fill="#abff8c" fill-rule="evenodd" stroke="none"/>
      <path d="M37.0 47.55 L37.1 47.5 37.7 47.55 37.0 47.55 37.7 47.55 Q37.65 47.95 37.25 47.9 L36.6 47.8 36.3 47.6 37.0 47.55" fill="#c197c6" fill-rule="evenodd" stroke="none"/>
      <path d="M41.9 54.9 L37.75 54.9 37.65 54.85 36.7 53.9 35.45 53.9 35.45 53.25 35.4 51.85 35.25 50.0 36.0 49.7 36.6 49.4 36.9 49.3 38.2 48.7 39.3 48.1 39.35 48.25 39.55 48.65 39.9 49.3 39.95 49.5 41.75 52.15 42.8 53.25 42.85 53.25 43.55 53.2 43.75 53.35 43.15 53.45 42.7 53.45 42.6 53.45 42.05 53.3 40.7 52.8 40.35 52.7 40.35 52.85 41.9 54.9" fill="#523aaa" fill-rule="evenodd" stroke="none"/>
      <path d="M24.15 54.9 L12.05 54.9 12.05 52.3 Q12.75 51.7 13.8 51.1 15.1 50.4 16.35 50.0 L17.15 49.7 19.95 49.35 20.85 49.4 Q21.15 49.3 21.4 49.55 L21.7 49.8 21.8 49.85 23.1 51.85 23.4 52.5 24.0 54.25 24.15 54.9" fill="#6a66df" fill-rule="evenodd" stroke="none"/>
      <path d="M43.4 54.9 L41.9 54.9 40.35 52.85 40.35 52.7 40.7 52.8 42.05 53.3 42.6 53.45 42.7 53.45 43.4 54.9" fill="#6754c0" fill-rule="evenodd" stroke="none"/>
      <path d="M36.85 54.9 L35.45 54.9 35.45 53.9 36.7 53.9 36.8 54.5 36.85 54.9" fill="#5949c3" fill-rule="evenodd" stroke="none"/>
      <path d="M41.5 49.1 Q43.45 50.05 45.35 50.5 L46.4 52.05 46.6 52.35 46.2 52.5 43.75 53.2 43.75 53.0 42.5 50.8 41.85 49.75 41.5 49.1 M37.75 54.9 L36.85 54.9 36.8 54.5 36.7 53.9 37.65 54.85 37.75 54.9" fill="#6c68e3" fill-rule="evenodd" stroke="none"/>
      <path d="M31.8 54.9 L29.0 54.9 28.75 53.1 28.75 52.4 Q29.8 52.45 30.6 53.1 L30.9 53.3 Q31.75 54.05 31.8 54.9" fill="#452997" fill-rule="evenodd" stroke="none"/>
      <path d="M49.85 51.0 L50.7 50.85 Q50.5 53.35 49.2 54.9 L47.95 54.9 47.4 53.85 47.0 53.1 46.6 52.35 47.2 52.15 47.7 52.0 47.75 51.95 49.85 51.0" fill="#523aa8" fill-rule="evenodd" stroke="none"/>
      <path d="M26.1 54.9 L24.15 54.9 24.0 54.25 23.4 52.5 23.1 51.85 21.8 49.85 Q22.8 50.45 23.65 51.2 L24.45 52.05 25.45 53.4 26.1 54.9" fill="#4d42a0" fill-rule="evenodd" stroke="none"/>
      <path d="M12.05 54.9 L11.5 54.9 11.45 53.75 11.55 52.75 12.05 52.3 12.05 54.9" fill="#738ef7" fill-rule="evenodd" stroke="none"/>
      <path d="M45.35 50.5 L47.3 50.9 49.4 51.0 49.85 51.0 47.75 51.95 47.7 52.0 47.2 52.15 46.6 52.35 46.4 52.05 45.35 50.5" fill="#7790ec" fill-rule="evenodd" stroke="none"/>
      <path d="M11.5 54.9 L8.7 54.9 8.7 54.8 9.0 54.1 9.45 53.1 Q9.65 52.15 10.45 51.0 L11.1 49.9 11.35 49.7 11.6 49.65 Q10.9 50.3 10.9 51.25 L11.05 52.1 11.1 52.15 11.3 52.95 11.55 52.75 11.45 53.75 11.5 54.9 M10.05 52.3 L9.45 53.1 10.05 52.3" fill="#5536b5" fill-rule="evenodd" stroke="none"/>
      <path d="M47.95 54.9 L45.65 54.9 43.75 53.35 43.55 53.2 43.75 53.2 46.2 52.5 46.6 52.35 47.0 53.1 47.4 53.85 47.95 54.9" fill="#42287f" fill-rule="evenodd" stroke="none"/>
      <path d="M45.65 54.9 L43.4 54.9 42.7 53.45 43.15 53.45 43.75 53.35 45.65 54.9" fill="#6765ec" fill-rule="evenodd" stroke="none"/>
      <path d="M16.1 -0.95 L15.9 -0.5 15.65 0.15 Q15.0 1.7 14.6 3.2 L14.55 3.35 14.7 3.35 15.0 3.35 16.65 3.2 M26.5 -0.95 L26.55 -0.85 26.6 -0.95 M34.05 0.95 L35.25 3.4 36.25 5.05 38.05 7.75 39.1 9.1 40.05 10.15 M39.5 48.0 L39.55 48.0 39.65 48.1 40.55 48.6 41.5 49.1 M6.0 54.9 Q3.95 53.5 2.8 50.65 L2.35 49.3 2.0 48.05 1.75 47.1 4.6 47.4 6.95 47.25 9.1 46.75 Q10.2 46.4 11.15 45.85 L11.9 45.35 M7.4 3.25 L7.5 1.6 7.7 1.7 Q11.5 3.3 14.55 3.35 M26.55 -0.85 L26.9 -0.4 27.2 -0.05 27.35 0.1 27.55 0.35 28.45 1.3 28.75 1.7 29.1 2.0 29.3 2.2 29.5 2.4 29.6 2.5 29.75 2.65 30.75 3.5 M9.45 53.1 L10.05 52.3 M8.7 54.9 L8.7 54.8 9.0 54.1 9.45 53.1 M43.55 53.2 L43.75 53.35 45.65 54.9" fill="none" stroke="#370542" stroke-linecap="round" stroke-linejoin="round" stroke-width="1.0"/>
      <path d="M45.35 50.5 L47.3 50.9 49.4 51.0 49.85 51.0 50.7 50.85 Q50.5 53.35 49.2 54.9 M3.35 34.35 L2.5 34.15 0.45 33.45 -1.4 32.6" fill="none" stroke="#4923c1" stroke-linecap="round" stroke-linejoin="round" stroke-width="1.0"/>
      <path d="M33.15 -0.95 L33.45 -0.3 33.95 0.8 34.05 0.95 M41.5 49.1 Q43.45 50.05 45.35 50.5" fill="none" stroke="#491595" stroke-linecap="round" stroke-linejoin="round" stroke-width="1.0"/>
      <path d="M40.05 10.15 L40.1 10.0 40.95 8.45 41.05 8.2 41.1 8.1 41.4 7.3 41.9 5.75 41.95 5.7 42.35 4.5 42.5 4.1 42.7 4.4 42.9 4.7 Q44.95 7.4 46.6 10.95 L47.0 11.75 47.45 12.8 47.55 13.05 M47.55 13.1 L47.8 13.8 47.7 13.9 48.0 13.8 48.05 13.8 48.15 14.1 49.7 17.25 49.85 17.65 51.25 20.85 51.45 21.35 51.55 21.6 53.45 26.6 53.35 26.75 53.05 27.05 51.95 28.05 51.6 28.4 50.75 29.1 50.75 29.15 50.7 29.15 50.7 29.25 50.65 30.75 50.55 31.85 50.5 32.35 50.35 33.6 50.2 34.45 50.2 34.55 50.15 34.6 49.5 35.2 49.25 35.4 47.6 36.85 47.55 36.85 46.4 37.85 46.15 38.1 M46.1 38.15 L48.7 42.05 48.55 42.35 Q48.05 43.5 46.9 44.25 L46.2 44.65 Q44.75 45.35 42.5 45.55 M11.9 45.35 L11.85 45.3 Q9.7 44.25 7.95 42.15 6.4 40.3 5.65 38.4 5.1 36.95 4.95 35.45 L6.05 35.05 7.75 34.25 6.15 34.4 4.9 34.4 4.45 34.4 3.7 34.4 3.55 34.4 M0.9 -0.95 Q3.5 1.0 6.35 2.65 L6.8 2.9 6.95 3.0 7.4 3.25 9.1 4.1 Q12.55 5.85 16.15 7.2 L16.6 7.35 16.65 7.4 18.3 8.0 18.45 8.0 18.55 8.2 Q19.75 10.65 22.1 13.35 26.65 18.5 30.95 18.8 L31.15 18.8 33.85 17.15 35.45 15.8 35.65 15.55 36.55 14.6 37.9 13.15 38.45 12.4 40.05 10.15 M47.6 13.95 L47.7 13.9 M11.4 16.6 L11.75 16.45 M-1.4 17.0 L2.45 17.5 4.9 17.6 5.1 17.6 8.9 17.3 9.7 17.15 9.85 17.1 11.4 16.6 M26.9 45.05 Q26.35 45.35 25.4 45.65 L24.45 45.9 23.85 46.1 20.05 46.65 19.55 46.65 18.35 46.6 17.95 46.55 17.65 46.55 16.9 46.4 16.65 46.3 16.6 46.3 15.65 46.3 Q13.8 46.15 12.2 45.45 L11.9 45.35 M13.4 30.05 Q12.5 31.45 10.45 32.8 L8.2 34.05 7.75 34.25 M-0.85 53.35 L1.45 54.6 1.3 54.9 M-1.4 53.05 L-0.85 53.35" fill="none" stroke="#4c0a44" stroke-linecap="round" stroke-linejoin="round" stroke-width="1.0"/>
      <path d="M42.9 4.7 L42.9 5.05 42.9 5.5 42.75 7.3 42.7 7.6 42.2 9.9 42.2 9.95 42.15 10.2 Q41.65 12.0 40.8 13.65 L39.4 15.8 38.8 16.55 37.85 17.6 37.65 17.8 36.35 19.0 36.25 19.1 36.2 19.1 36.2 19.15 36.15 19.15 36.15 19.2 36.0 19.25 35.1 20.0 34.6 20.3 30.4 22.7 Q25.7 21.75 22.1 18.2 L22.0 18.15 M46.05 14.8 L46.2 14.7 46.25 14.65 46.35 14.55 46.55 14.4 47.45 14.0 M39.65 24.65 L39.65 24.6 39.45 24.2 39.7 23.7 39.85 23.45 40.4 22.5 40.4 22.45 41.15 21.2 41.3 21.05 42.15 19.7 44.15 16.9 45.3 15.55 45.35 15.5 45.6 15.2 45.65 15.2 45.7 15.15 45.95 14.85 46.05 14.8 M44.9 32.35 L42.9 30.0 42.8 29.9 42.35 29.35 42.35 29.3 41.0 27.3 39.65 24.65 M44.95 32.35 L45.45 32.1 46.65 31.4 47.0 31.2 48.7 30.2 49.2 29.9 49.3 29.9 49.45 29.8 49.5 29.8 49.95 29.55 M44.95 32.35 L44.9 32.4 44.9 32.35 M33.8 34.3 L33.65 34.15 34.35 34.0 35.5 33.85 36.55 33.65 36.7 33.65 36.95 33.8 39.3 35.35 40.05 35.9 40.15 36.0 40.1 36.0 37.45 36.3 37.4 36.3 36.3 36.25 35.6 35.65 34.75 35.05 33.8 34.3 M37.0 38.9 L38.95 39.85 39.0 39.85 39.9 40.2 42.25 41.05 44.45 39.45 M17.35 11.45 L18.75 14.1 20.2 16.05 20.85 16.9 21.25 17.35 21.95 18.05 21.95 18.1 22.0 18.1 M6.45 4.55 L5.9 4.25 5.6 4.0 5.25 3.75 0.6 -0.05 -0.3 -0.95 M6.45 4.55 L7.25 5.1 8.8 6.0 9.25 6.25 Q12.2 7.9 15.45 9.1 L16.45 9.45 16.6 9.5 17.35 11.45 M1.65 12.1 Q1.65 10.35 2.35 8.75 L2.5 8.35 2.95 7.45 3.75 8.8 4.2 9.6 M4.4 9.95 L5.5 12.15 5.75 12.85 6.55 12.75 6.95 12.7 7.4 12.6 8.0 12.5 8.2 12.45 8.15 12.9 8.15 13.05 7.9 14.1 8.55 14.6 8.65 14.65 9.75 15.4 11.4 16.6 M20.25 31.2 L19.45 32.45 18.75 33.7 Q17.6 36.45 17.6 40.0 L17.7 41.8 17.9 44.1 17.95 44.15 17.9 44.15 18.15 45.55 18.35 46.6 M24.3 31.1 L24.85 31.5 25.5 32.0 27.35 33.35 32.25 36.35 34.35 37.5 35.2 37.95 35.4 38.1 35.75 38.25 37.0 38.9 M22.8 34.35 Q23.1 38.15 25.5 42.65 L25.55 42.7 26.9 45.05 M13.7 29.45 L10.0 28.7 9.2 28.55 7.6 28.25 7.55 28.25 6.2 27.9 5.45 27.6 4.6 26.0 3.35 23.45 2.6 25.3 2.2 26.45 0.8 25.65 0.6 25.55 -0.7 24.6 -1.25 24.2 -1.4 24.1 M22.8 32.45 L24.3 31.1 M22.8 34.35 L22.75 33.25 M-1.4 8.0 L-1.25 8.25 Q0.05 10.55 1.65 12.1" fill="none" stroke="#5b1260" stroke-linecap="round" stroke-linejoin="round" stroke-width="1.0"/>
      <path d="M46.15 38.1 L46.1 38.15 45.25 38.8 45.1 38.95 44.8 39.2 44.45 39.45 M42.5 45.55 Q41.6 46.7 39.75 47.85 L39.5 48.0 39.3 48.1 38.2 48.7 36.9 49.3 36.6 49.4 36.0 49.7 35.25 50.0 35.0 50.1 33.75 50.55 33.45 50.7 33.3 50.75 33.05 50.8 32.55 50.6 32.4 50.5 32.2 50.45 29.1 48.95 28.2 48.5 25.55 47.1 25.2 46.9 25.1 46.85 23.85 46.1 M3.55 34.4 L3.35 34.35 M47.45 14.0 L47.5 14.0 47.6 13.95 M44.6 39.8 L43.2 43.7 42.9 44.6 42.8 44.85 42.75 45.05 42.65 45.35 42.5 45.55 M44.6 39.8 L44.8 39.2 M13.55 29.85 L13.7 29.45 M22.75 33.25 L22.8 32.85 22.8 32.45" fill="none" stroke="#35002f" stroke-linecap="round" stroke-linejoin="round" stroke-width="1.0"/>
      <path d="M29.1 38.55 L28.85 38.3 M24.0 35.35 L23.8 35.2 22.8 34.35 M22.8 32.85 L23.45 32.6 25.5 32.0 M37.0 47.55 L37.7 47.55 M28.6 38.25 Q26.05 36.95 24.0 35.35" fill="none" stroke="#51084f" stroke-linecap="round" stroke-linejoin="round" stroke-width="1.0"/>
      <path d="M29.2 38.6 L29.1 38.55 M28.85 38.3 L28.8 38.3 28.7 38.2 28.1 37.65 27.9 37.45 27.55 37.05 25.8 34.85 25.35 34.25 27.05 33.4 27.35 33.35 M34.8 38.25 L33.4 38.6 31.8 38.7 31.4 38.7 29.75 38.6 29.2 38.6 M35.4 38.1 L34.8 38.25" fill="none" stroke="#053b2e" stroke-linecap="round" stroke-linejoin="round" stroke-width="1.0"/>
    </g>
    <g id="shape2" transform="matrix(1.0, 0.0, 0.0, 1.0, 0.0, 0.0)">
      <path d="M50.5 0.0 Q53.95 0.0 53.95 3.3 L53.95 50.15 Q53.95 53.4 50.5 53.4 L3.3 53.4 Q0.0 53.4 0.0 50.15 L0.0 3.3 Q0.0 0.0 3.3 0.0 L50.5 0.0" fill="#000000" fill-opacity="0.003921569" fill-rule="evenodd" stroke="none"/>
    </g>
  </defs>
</svg>
