<?xml version="1.0" encoding="UTF-8" standalone="no"?>
<svg xmlns:ffdec="https://www.free-decompiler.com/flash" xmlns:xlink="http://www.w3.org/1999/xlink" ffdec:objectType="frame" height="58.25px" width="58.25px" xmlns="http://www.w3.org/2000/svg">
  <g transform="matrix(1.0, 0.0, 0.0, 1.0, 3.8, 1.9)">
    <clipPath id="clipPath0" transform="matrix(1.0, 0.0, 0.0, 1.0, 0.0, 0.0)">
      <path d="M50.5 0.0 Q53.95 0.0 53.95 3.3 L53.95 50.15 Q53.95 53.4 50.5 53.4 L3.3 53.4 Q0.0 53.4 0.0 50.15 L0.0 3.3 Q0.0 0.0 3.3 0.0 L50.5 0.0" fill="#000000" fill-rule="evenodd" stroke="none"/>
    </clipPath>
    <g clip-path="url(#clipPath0)">
      <use ffdec:characterId="2" height="58.25" transform="matrix(1.0, 0.0, 0.0, 1.0, -3.8, -1.9)" width="58.25" xlink:href="#shape1"/>
    </g>
    <use ffdec:characterId="3" height="53.4" transform="matrix(1.0, 0.0, 0.0, 1.0, 0.0, 0.0)" width="53.95" xlink:href="#shape2"/>
  </g>
  <defs>
    <g id="shape1" transform="matrix(1.0, 0.0, 0.0, 1.0, 3.8, 1.9)">
      <path d="M23.55 13.75 L25.1 15.65 24.05 15.5 18.25 15.75 Q13.5 16.4 13.5 18.4 13.5 19.1 13.85 20.0 L14.7 21.4 15.1 21.9 16.2 21.35 Q17.25 20.8 18.3 20.55 L20.85 20.2 Q23.35 20.2 25.75 22.0 27.5 23.3 28.8 25.5 L32.4 24.25 38.45 24.55 39.5 25.85 34.0 25.85 33.3 25.85 32.8 26.1 25.85 29.2 25.85 30.5 26.7 33.5 23.45 32.3 Q23.6 30.5 24.85 29.0 25.5 28.2 26.45 27.45 24.55 23.65 21.2 22.65 18.45 21.85 14.8 22.75 L14.1 24.3 13.8 23.9 13.3 23.0 12.7 21.75 13.3 23.0 13.8 23.9 14.1 24.3 13.8 24.85 10.9 25.6 Q10.5 25.25 10.0 25.15 L12.55 21.65 12.7 21.75 13.7 21.55 13.15 20.9 Q11.5 18.9 11.35 17.85 11.2 16.6 12.95 16.0 L15.45 15.15 18.65 14.8 21.8 14.7 Q22.55 14.85 22.25 14.3 L21.85 13.65 22.65 13.75 23.55 13.75 M4.65 44.9 L8.05 48.2 9.35 49.45 9.4 49.45 9.8 49.9 14.15 54.15 14.75 54.85 15.75 55.85 10.75 55.85 7.35 52.7 4.85 50.4 2.75 48.5 1.3 47.15 1.85 47.2 2.3 47.15 Q2.95 47.05 3.55 46.55 4.45 45.9 4.65 44.9 M17.25 55.85 L15.1 53.45 14.8 53.1 12.45 50.5 10.0 47.9 8.95 46.8 10.3 47.05 11.2 46.65 11.25 46.55 11.5 46.2 11.65 45.25 11.65 44.9 15.35 49.85 16.1 50.9 20.15 55.85 17.25 55.85 M8.7 39.25 L5.05 35.2 Q7.2 31.85 10.25 28.7 L11.6 30.15 Q11.2 32.45 11.4 34.8 L8.7 39.25 M-0.2 54.3 L-0.05 54.35 1.3 54.6 Q1.8 54.6 2.2 54.1 L2.25 54.05 Q2.65 53.5 2.65 52.65 L2.65 52.3 5.35 55.85 1.3 55.85 -0.2 54.3 M-3.3 53.7 L-1.05 55.85 -3.3 55.85 -3.3 53.7 M7.25 55.85 L4.25 51.95 5.65 53.1 8.8 55.85 7.25 55.85" fill="#393535" fill-rule="evenodd" stroke="none"/>
      <path d="M25.1 15.65 Q30.15 21.45 35.3 21.75 37.15 21.75 38.05 20.7 38.8 19.7 38.8 17.9 L39.5 19.0 40.9 20.7 Q45.4 25.75 51.3 29.05 L53.8 30.3 50.1 29.0 Q48.05 28.2 45.25 26.2 L42.0 23.7 41.25 24.25 Q41.0 24.55 41.5 25.0 L48.7 31.35 48.1 32.7 48.05 32.25 43.5 28.85 42.85 28.35 42.05 27.7 39.7 25.85 39.5 25.85 38.45 24.55 32.4 24.25 28.8 25.5 Q27.5 23.3 25.75 22.0 23.35 20.2 20.85 20.2 L18.3 20.55 Q17.25 20.8 16.2 21.35 L15.1 21.9 14.7 21.4 13.85 20.0 Q13.5 19.1 13.5 18.4 13.5 16.4 18.25 15.75 L24.05 15.5 25.1 15.65 M-3.3 34.0 L-2.6 33.65 -1.0 33.35 Q0.15 33.25 0.65 34.35 L1.6 36.2 Q1.8 36.75 2.35 36.95 L3.15 37.1 4.0 37.0 Q4.55 36.9 4.65 36.6 L4.95 36.05 8.15 40.25 9.3 41.75 9.15 41.9 9.45 41.95 11.65 44.9 11.65 45.25 11.5 46.2 11.25 46.55 11.2 46.65 10.3 47.05 8.95 46.8 10.0 47.9 12.45 50.5 14.8 53.1 15.1 53.45 17.25 55.85 15.75 55.85 14.75 54.85 14.15 54.15 9.8 49.9 9.4 49.45 9.35 49.45 8.05 48.2 4.65 44.9 4.7 44.3 Q4.7 43.4 4.15 42.1 L4.05 41.9 3.2 41.1 2.35 40.25 1.1 39.05 0.15 38.25 -3.3 35.1 -3.3 34.0 M10.0 40.7 L8.7 39.25 11.4 34.8 Q11.5 36.25 11.9 37.7 L10.0 40.7 M-3.3 43.0 L-3.3 37.35 -1.15 39.4 0.15 40.6 0.65 41.05 1.5 41.85 4.65 44.9 Q4.45 45.9 3.55 46.55 2.95 47.05 2.3 47.15 L1.85 47.2 1.3 47.15 -0.4 45.7 -1.95 44.35 -2.75 43.6 -3.3 43.0 M-3.3 44.35 L-1.6 46.55 -0.4 48.2 2.65 52.3 2.65 52.65 Q2.65 53.5 2.25 54.05 L2.2 54.1 Q1.8 54.6 1.3 54.6 L-0.05 54.35 -0.2 54.3 -0.25 54.25 -3.3 51.15 -0.25 54.25 -0.2 54.3 1.3 55.85 -1.05 55.85 -3.3 53.7 -3.3 51.15 -3.3 44.35 M2.65 52.3 L2.5 50.55 2.2 49.35 0.2 47.05 1.3 47.15 2.75 48.5 4.85 50.4 7.35 52.7 10.75 55.85 8.8 55.85 5.65 53.1 4.25 51.95 7.25 55.85 5.35 55.85 2.65 52.3 M50.25 36.5 Q50.05 36.6 49.55 35.4 49.0 34.2 49.75 31.95 L51.0 32.4 53.3 32.8 53.75 32.8 53.6 33.65 50.25 36.5 M23.45 32.3 L26.7 33.5 27.05 33.7 Q25.7 35.7 25.25 37.75 L24.55 37.1 24.05 36.5 23.7 35.55 Q23.2 33.8 23.45 32.3 M11.25 42.35 L11.3 42.35 15.15 43.05 Q20.05 48.2 25.85 47.3 L26.2 49.95 25.5 49.2 24.0 48.35 20.95 47.95 Q19.5 47.95 18.35 48.55 L17.0 49.65 21.25 55.85 20.15 55.85 16.1 50.9 15.35 49.85 11.65 44.9 11.25 42.35 M11.3 42.35 L17.0 49.65 11.3 42.35 M25.85 30.5 L26.15 30.35 26.2 30.5 25.85 30.5 M2.2 49.35 L4.25 51.95 2.2 49.35" fill="#443e3e" fill-rule="evenodd" stroke="none"/>
      <path d="M5.05 35.2 L4.05 34.1 4.65 33.1 8.7 27.0 10.25 28.7 Q7.2 31.85 5.05 35.2 M21.85 13.65 L22.25 14.3 Q22.55 14.85 21.8 14.7 L18.65 14.8 15.45 15.15 12.95 16.0 Q11.2 16.6 11.35 17.85 11.5 18.9 13.15 20.9 L13.7 21.55 12.7 21.75 12.55 21.65 6.6 15.85 Q13.35 13.65 19.9 13.65 L21.85 13.65 M10.0 25.15 Q10.5 25.25 10.9 25.6 L9.4 26.0 10.0 25.15" fill="#6a5564" fill-rule="evenodd" stroke="none"/>
      <path d="M13.75 -1.4 L15.35 -1.4 21.45 5.1 22.25 6.25 26.4 12.1 Q31.05 18.15 35.05 18.15 36.9 18.15 36.9 15.75 L36.9 15.65 36.9 15.55 Q36.9 13.7 35.55 11.35 L36.95 12.55 37.3 12.55 Q38.7 15.8 38.8 17.9 38.8 19.7 38.05 20.7 37.15 21.75 35.3 21.75 30.15 21.45 25.1 15.65 L23.55 13.75 Q18.25 6.05 13.75 -1.4 M33.65 -1.4 Q37.6 7.75 42.25 15.15 46.95 22.5 49.75 24.8 L52.6 27.05 52.65 27.1 53.95 29.55 53.9 30.35 53.8 30.3 51.3 29.05 50.15 27.3 47.8 25.1 45.3 22.95 Q44.0 21.75 43.0 20.3 39.35 14.9 35.85 7.05 L33.65 -1.4 M14.1 24.3 L14.8 22.75 Q18.45 21.85 21.2 22.65 19.0 23.3 17.3 25.85 L17.1 26.2 16.4 24.35 15.1 24.6 13.8 24.85 14.1 24.3 M11.6 30.15 L13.4 31.85 14.0 31.95 14.2 31.95 15.25 31.85 15.25 32.6 15.35 35.85 14.35 35.45 14.15 35.35 13.35 36.2 11.9 37.7 Q11.5 36.25 11.4 34.8 11.2 32.45 11.6 30.15 M15.15 43.05 L17.55 43.5 18.0 42.25 Q20.6 45.0 25.5 45.0 L25.6 45.0 Q28.85 44.95 31.35 42.4 33.0 40.75 33.85 38.5 L34.0 38.1 34.4 36.5 34.7 36.5 34.5 38.9 Q33.35 45.0 27.85 46.8 L25.85 47.3 Q20.05 48.2 15.15 43.05" fill="#8f8586" fill-rule="evenodd" stroke="none"/>
      <path d="M48.1 32.7 L48.45 34.75 47.45 35.95 47.3 36.2 47.3 36.15 46.65 34.0 46.4 33.65 42.4 30.6 36.55 30.95 32.4 33.55 33.3 36.1 31.8 37.1 27.05 33.7 26.7 33.5 25.85 30.5 25.85 29.2 32.8 26.1 37.45 30.0 43.5 28.85 48.05 32.25 48.1 32.7 M35.45 34.75 L39.0 34.4 38.4 37.05 42.65 37.05 44.7 38.7 45.55 40.35 45.25 40.65 42.4 38.25 36.9 38.25 37.65 35.4 35.3 35.6 35.45 34.75 M43.0 45.45 L42.2 45.05 40.95 44.55 Q40.2 44.2 40.15 44.05 L39.7 42.1 39.1 39.55 40.1 39.35 Q40.05 38.8 40.75 39.2 L41.8 39.75 43.2 40.65 43.55 40.95 43.0 45.45 M15.95 26.35 L16.05 26.9 16.1 27.05 16.2 27.5 16.2 27.9 Q16.05 29.15 15.15 29.35 L14.75 29.4 14.45 29.4 Q13.6 29.3 12.45 28.65 L11.1 27.8 10.1 27.15 11.2 27.55 13.45 28.15 14.3 28.2 14.6 28.2 15.45 27.9 Q15.95 27.6 15.95 26.85 L15.95 26.8 15.95 26.35 M14.25 36.3 L14.4 36.2 14.7 36.2 Q15.3 36.2 16.05 37.25 16.85 38.25 16.85 39.1 16.85 40.0 15.35 40.65 L14.2 41.15 11.0 41.95 10.1 42.1 9.75 42.0 10.75 41.7 12.9 40.95 14.85 39.75 14.9 39.7 Q15.75 38.9 15.55 37.8 15.35 36.7 14.4 36.4 L14.25 36.3 M25.85 30.5 L26.2 30.5 26.15 30.35 25.85 30.5" fill="#894e46" fill-rule="evenodd" stroke="none"/>
      <path d="M42.85 28.35 L43.5 28.85 37.45 30.0 32.8 26.1 33.3 25.85 34.0 25.85 37.95 29.15 42.85 28.35 M47.3 36.15 L45.95 37.75 44.55 36.85 44.05 36.5 43.85 36.45 43.35 36.05 40.25 36.3 40.15 36.3 39.45 36.35 40.1 33.45 36.5 33.8 36.4 33.9 35.45 34.75 35.4 34.75 35.1 35.05 34.7 35.35 35.1 35.05 35.4 34.75 35.45 34.75 35.3 35.6 37.65 35.4 36.9 38.25 42.4 38.25 45.25 40.65 44.4 40.05 43.55 40.85 43.55 40.95 43.2 40.65 41.8 39.75 40.75 39.2 Q40.05 38.8 40.1 39.35 L39.1 39.55 39.7 42.1 40.15 44.05 Q40.2 44.2 40.95 44.55 L42.2 45.05 43.0 45.45 42.4 47.05 39.1 46.55 35.5 39.65 34.5 38.9 34.7 36.5 34.7 35.8 34.7 35.6 34.7 35.35 34.7 35.05 33.3 36.1 32.4 33.55 36.55 30.95 42.4 30.6 46.4 33.65 46.65 34.0 47.3 36.15 M40.55 45.0 Q40.55 44.45 40.1 44.45 39.65 44.35 39.65 45.1 L39.65 45.4 39.95 45.65 Q40.4 45.65 40.5 45.3 L40.55 45.0 M15.1 24.6 L16.4 24.35 17.1 26.2 Q17.4 27.3 17.35 28.35 L17.1 29.85 Q16.65 31.45 15.25 31.85 L14.2 31.95 14.0 31.95 13.4 31.85 11.6 30.15 10.25 28.7 8.7 27.0 8.05 26.3 8.1 26.3 8.95 26.65 9.7 27.0 10.1 27.15 11.1 27.8 12.45 28.65 Q13.6 29.3 14.45 29.4 L14.75 29.4 15.15 29.35 Q16.05 29.15 16.2 27.9 L16.2 27.5 16.1 27.05 16.05 26.9 15.95 26.35 15.95 26.25 15.85 25.6 15.1 24.6 M14.25 36.3 L14.2 36.3 14.0 36.25 13.35 36.2 14.15 35.35 14.35 35.45 15.35 35.85 Q17.15 36.65 17.85 38.1 18.7 40.0 18.0 42.25 L17.55 43.5 15.15 43.05 11.3 42.35 11.25 42.35 10.1 42.1 11.0 41.95 14.2 41.15 15.35 40.65 Q16.85 40.0 16.85 39.1 16.85 38.25 16.05 37.25 15.3 36.2 14.7 36.2 L14.4 36.2 14.25 36.3" fill="#c7705c" fill-rule="evenodd" stroke="none"/>
      <path d="M48.5 30.55 Q48.5 29.85 49.25 30.0 50.15 30.1 50.15 30.75 L50.15 31.15 49.55 31.2 48.95 31.05 Q48.5 30.85 48.5 30.55 M24.0 48.35 L25.5 49.2 26.2 49.95 26.45 52.4 28.8 55.85 25.8 55.85 25.25 55.2 24.0 48.35" fill="#918888" fill-rule="evenodd" stroke="none"/>
      <path d="M9.45 41.95 L9.15 41.9 9.3 41.75 10.0 40.7 11.9 37.7 13.35 36.2 14.0 36.25 14.2 36.3 14.25 36.3 14.4 36.4 Q15.35 36.7 15.55 37.8 15.75 38.9 14.9 39.7 L14.85 39.75 12.9 40.95 10.75 41.7 9.75 42.0 9.45 41.95 M48.45 34.75 L48.8 36.75 45.55 40.35 44.7 38.7 42.65 37.05 38.4 37.05 39.0 34.4 35.45 34.75 36.4 33.9 36.5 33.8 40.1 33.45 39.45 36.35 40.15 36.3 40.25 36.3 43.35 36.05 43.85 36.45 44.05 36.5 44.55 36.85 45.95 37.75 47.3 36.15 47.3 36.2 47.45 35.95 48.45 34.75 M40.55 45.0 L40.5 45.3 Q40.4 45.65 39.95 45.65 L39.65 45.4 39.65 45.1 Q39.65 44.35 40.1 44.45 40.55 44.45 40.55 45.0 M10.9 25.6 L13.8 24.85 15.1 24.6 15.85 25.6 15.95 26.25 15.95 26.35 15.95 26.8 15.95 26.85 Q15.95 27.6 15.45 27.9 L14.6 28.2 14.3 28.2 13.45 28.15 11.2 27.55 10.1 27.15 9.7 27.0 8.95 26.65 8.1 26.3 9.4 26.0 10.9 25.6" fill="#d79d82" fill-rule="evenodd" stroke="none"/>
      <path d="M9.3 41.75 L8.15 40.25 4.95 36.05 4.65 36.6 Q4.55 36.9 4.0 37.0 L3.15 37.1 2.35 36.95 Q1.8 36.75 1.6 36.2 L0.65 34.35 Q0.15 33.25 -1.0 33.35 L-2.6 33.65 -3.3 34.0 -3.3 32.75 1.7 31.65 4.05 34.1 5.05 35.2 8.7 39.25 10.0 40.7 9.3 41.75 M-3.3 35.1 L0.15 38.25 1.1 39.05 2.35 40.25 3.2 41.1 4.05 41.9 4.15 42.1 Q4.7 43.4 4.7 44.3 L4.65 44.9 1.5 41.85 0.65 41.05 0.15 40.6 -1.15 39.4 -3.3 37.35 -3.3 35.1 M11.65 44.9 L9.45 41.95 9.75 42.0 10.1 42.1 11.25 42.35 11.65 44.9 M-3.3 43.0 L-2.75 43.6 -1.95 44.35 -0.4 45.7 1.3 47.15 0.2 47.05 2.2 49.35 2.5 50.55 2.65 52.3 -0.4 48.2 -1.6 46.55 -3.3 44.35 -3.3 43.0 M-2.75 43.6 L0.2 47.05 -2.75 43.6 M48.1 32.7 L48.7 31.35 41.5 25.0 Q41.0 24.55 41.25 24.25 L42.0 23.7 45.25 26.2 Q48.05 28.2 50.1 29.0 L53.8 30.3 53.9 30.35 53.9 32.0 53.75 32.8 53.3 32.8 51.0 32.4 49.75 31.95 Q49.0 34.2 49.55 35.4 50.05 36.6 50.25 36.5 L49.0 37.6 48.8 36.75 48.45 34.75 48.1 32.7 M48.5 30.55 Q48.5 30.85 48.95 31.05 L49.55 31.2 50.15 31.15 50.15 30.75 Q50.15 30.1 49.25 30.0 48.5 29.85 48.5 30.55 M21.25 55.85 L17.0 49.65 18.35 48.55 Q19.5 47.95 20.95 47.95 L24.0 48.35 25.25 55.2 25.8 55.85 21.25 55.85" fill="#5b5756" fill-rule="evenodd" stroke="none"/>
      <path d="M35.55 11.35 Q36.9 13.7 36.9 15.55 L36.9 15.65 36.9 15.75 Q36.8 16.75 34.9 16.75 32.9 16.75 25.05 8.8 L21.45 5.1 15.35 -1.4 17.8 -1.4 Q27.15 3.85 35.55 11.35 M33.65 -1.4 L33.8 -1.4 40.55 7.8 Q45.6 14.65 49.1 20.9 L52.65 27.1 52.6 27.05 49.75 24.8 Q46.95 22.5 42.25 15.15 37.6 7.75 33.65 -1.4 M40.8 9.1 L39.65 7.35 38.3 5.7 38.15 5.9 Q41.75 12.45 42.85 13.2 L42.85 13.25 43.3 13.55 43.55 13.3 43.55 13.05 43.45 12.65 43.45 12.6 42.4 11.1 40.8 9.1 M44.15 14.95 L44.55 15.4 44.7 15.15 44.35 14.4 Q43.95 14.1 43.95 14.6 L44.15 14.95 M20.55 1.85 L29.3 8.3 29.55 8.3 29.55 8.25 29.7 8.2 29.7 7.9 Q29.7 7.4 26.3 4.75 22.6 1.8 20.6 1.3 L20.55 1.85 M24.85 29.0 Q23.6 30.5 23.45 32.3 23.2 33.8 23.7 35.55 L24.05 36.5 24.55 37.1 24.55 37.3 Q24.55 38.2 23.8 38.85 23.1 39.45 22.5 39.45 21.65 39.45 20.9 38.85 L20.9 38.75 Q19.25 36.2 19.25 32.75 19.25 31.3 19.65 30.15 19.85 29.5 20.2 29.0 21.2 27.5 22.7 27.5 23.8 27.5 24.7 28.75 L24.85 29.0 M22.7 28.85 Q21.8 28.85 21.55 30.65 L21.45 31.3 21.35 32.65 21.4 33.85 Q21.55 34.65 22.0 34.95 22.5 34.85 22.5 34.4 L22.2 32.4 22.3 31.8 Q22.4 31.2 22.85 30.6 L23.5 29.45 Q23.5 28.85 22.7 28.85" fill="#cbc5c5" fill-rule="evenodd" stroke="none"/>
      <path d="M38.8 17.9 Q38.7 15.8 37.3 12.55 L35.85 7.05 Q39.35 14.9 43.0 20.3 44.0 21.75 45.3 22.95 L47.8 25.1 50.15 27.3 51.3 29.05 Q45.4 25.75 40.9 20.7 L39.5 19.0 38.8 17.9 M36.9 15.75 Q36.9 18.15 35.05 18.15 31.05 18.15 26.4 12.1 L22.25 6.25 21.45 5.1 25.05 8.8 Q32.9 16.75 34.9 16.75 36.8 16.75 36.9 15.75 M49.1 20.9 Q45.6 14.65 40.55 7.8 L40.45 -0.65 Q46.45 10.75 49.1 20.9" fill="#787272" fill-rule="evenodd" stroke="none"/>
      <path d="M44.15 14.95 L43.95 14.6 Q43.95 14.1 44.35 14.4 L44.7 15.15 44.55 15.4 44.15 14.95 M40.8 9.1 L42.4 11.1 43.45 12.6 43.45 12.65 43.55 13.05 43.55 13.3 43.3 13.55 42.85 13.25 42.85 13.2 Q41.75 12.45 38.15 5.9 L38.3 5.7 39.65 7.35 40.8 9.1 M20.55 1.85 L20.6 1.3 Q22.6 1.8 26.3 4.75 29.7 7.4 29.7 7.9 L29.7 8.2 29.55 8.25 29.55 8.3 29.3 8.3 20.55 1.85 M22.7 28.85 Q23.5 28.85 23.5 29.45 L22.85 30.6 Q22.4 31.2 22.3 31.8 L22.2 32.4 22.5 34.4 Q22.5 34.85 22.0 34.95 21.55 34.65 21.4 33.85 L21.35 32.65 21.45 31.3 21.55 30.65 Q21.8 28.85 22.7 28.85" fill="#ffffff" fill-rule="evenodd" stroke="none"/>
      <path d="M42.05 27.7 L42.85 28.35 37.95 29.15 34.0 25.85 39.5 25.85 39.7 25.85 37.25 27.0 38.3 28.25 42.05 27.7" fill="#a2834d" fill-rule="evenodd" stroke="none"/>
      <path d="M42.05 27.7 L38.3 28.25 37.25 27.0 39.7 25.85 42.05 27.7" fill="#ffff86" fill-rule="evenodd" stroke="none"/>
      <path d="M21.2 22.65 Q24.55 23.65 26.45 27.45 25.5 28.2 24.85 29.0 L24.7 28.75 Q23.8 27.5 22.7 27.5 21.2 27.5 20.2 29.0 19.85 29.5 19.65 30.15 19.25 31.3 19.25 32.75 19.25 36.2 20.9 38.75 L20.9 38.85 Q22.55 41.25 25.15 41.6 L25.9 41.65 Q28.75 41.65 30.9 40.1 L33.15 38.0 33.7 37.3 34.7 35.8 34.7 36.5 34.4 36.5 34.0 38.1 33.85 38.5 Q33.0 40.75 31.35 42.4 28.85 44.95 25.6 45.0 L25.5 45.0 Q20.6 45.0 18.0 42.25 18.7 40.0 17.85 38.1 17.15 36.65 15.35 35.85 L15.25 32.6 15.25 31.85 Q16.65 31.45 17.1 29.85 L17.35 28.35 Q17.4 27.3 17.1 26.2 L17.3 25.85 Q19.0 23.3 21.2 22.65" fill="#7f7778" fill-rule="evenodd" stroke="none"/>
      <path d="M33.3 36.1 L34.7 35.05 34.7 35.35 34.7 35.6 34.7 35.8 33.7 37.3 33.15 38.0 30.9 40.1 Q28.75 41.65 25.9 41.65 L25.15 41.6 Q22.55 41.25 20.9 38.85 21.65 39.45 22.5 39.45 23.1 39.45 23.8 38.85 24.55 38.2 24.55 37.3 L24.55 37.1 25.25 37.75 Q27.6 39.45 31.8 37.1 L33.3 36.1" fill="#a09696" fill-rule="evenodd" stroke="none"/>
      <path d="M13.75 -1.4 Q18.25 6.05 23.55 13.75 L25.1 15.65 Q30.15 21.45 35.3 21.75 37.15 21.75 38.05 20.7 38.8 19.7 38.8 17.9 38.7 15.8 37.3 12.55 L36.95 12.55 35.55 11.35 Q27.15 3.85 17.8 -1.4 M52.65 27.1 L49.1 20.9 Q45.6 14.65 40.55 7.8 L33.8 -1.4 M9.45 41.95 L9.15 41.9 9.3 41.75 10.0 40.7 8.7 39.25 5.05 35.2 4.05 34.1 1.7 31.65 -3.3 32.75 M-3.3 43.0 L-2.75 43.6 0.2 47.05 2.2 49.35 4.25 51.95 7.25 55.85 M-3.3 51.15 L-0.25 54.25 -0.2 54.3 1.3 55.85 M48.1 32.7 L48.45 34.75 48.8 36.75 49.0 37.6 50.25 36.5 53.6 33.65 53.75 32.8 53.9 32.0 53.9 30.35 53.8 30.3 51.3 29.05 Q45.4 25.75 40.9 20.7 L39.5 19.0 38.8 17.9 M35.85 7.05 L37.3 12.55 M53.9 30.35 L53.95 29.55 52.65 27.1 M42.05 27.7 L42.85 28.35 43.5 28.85 48.05 32.25 48.1 32.7 M45.55 40.35 L48.8 36.75 M33.3 36.1 L34.7 35.05 34.7 35.35 34.7 35.6 M45.25 40.65 L45.55 40.35 M43.0 45.45 L43.55 40.95 43.55 40.85 44.4 40.05 45.25 40.65 M34.5 38.9 L35.5 39.65 39.1 46.55 42.4 47.05 43.0 45.45 M23.55 13.75 L22.65 13.75 21.85 13.65 19.9 13.65 Q13.35 13.65 6.6 15.85 L12.55 21.65 10.0 25.15 9.4 26.0 10.9 25.6 13.8 24.85 14.1 24.3 14.8 22.75 Q18.45 21.85 21.2 22.65 24.55 23.65 26.45 27.45 25.5 28.2 24.85 29.0 23.6 30.5 23.45 32.3 L26.7 33.5 25.85 30.5 25.85 29.2 32.8 26.1 33.3 25.85 34.0 25.85 39.5 25.85 39.7 25.85 42.05 27.7 M12.7 21.75 L13.3 23.0 13.8 23.9 14.1 24.3 M12.55 21.65 L12.7 21.75 M15.1 24.6 L16.4 24.35 17.1 26.2 Q17.4 27.3 17.35 28.35 L17.1 29.85 Q16.65 31.45 15.25 31.85 L14.2 31.95 14.0 31.95 13.4 31.85 11.6 30.15 Q11.2 32.45 11.4 34.8 11.5 36.25 11.9 37.7 L10.0 40.7 M8.1 26.3 L8.05 26.3 8.7 27.0 10.25 28.7 11.6 30.15 M13.35 36.2 L11.9 37.7 M15.35 35.85 L14.35 35.45 14.15 35.35 13.35 36.2 M10.1 42.1 L11.25 42.35 11.3 42.35 15.15 43.05 17.55 43.5 18.0 42.25 Q18.7 40.0 17.85 38.1 17.15 36.65 15.35 35.85 M9.4 26.0 L8.1 26.3 M8.7 27.0 L4.65 33.1 4.05 34.1 M9.45 41.95 L9.75 42.0 10.1 42.1 M21.25 55.85 L17.0 49.65 11.3 42.35 M34.7 36.5 L34.7 35.8 M24.55 37.1 L24.05 36.5 23.7 35.55 Q23.2 33.8 23.45 32.3 M33.3 36.1 L31.8 37.1 Q27.6 39.45 25.25 37.75 L24.55 37.1 M42.85 28.35 L37.95 29.15 34.0 25.85 M26.7 33.5 L27.05 33.7 31.8 37.1 M25.85 47.3 L27.85 46.8 Q33.35 45.0 34.5 38.9 L34.7 36.5 M28.8 55.85 L26.45 52.4 26.2 49.95 25.85 47.3 Q20.05 48.2 15.15 43.05 M27.05 33.7 Q25.7 35.7 25.25 37.75 M15.1 24.6 L13.8 24.85 M49.1 20.9 Q46.45 10.75 40.45 -0.65 L40.55 7.8 M33.65 -1.4 L35.85 7.05" fill="none" stroke="#282c35" stroke-linecap="round" stroke-linejoin="round" stroke-width="1.0"/>
      <path d="M35.45 34.75 L39.0 34.4 38.4 37.05 42.65 37.05 44.7 38.7 45.55 40.35 M34.7 35.35 L35.1 35.05 35.4 34.75 35.45 34.75" fill="none" stroke="#53302b" stroke-linecap="round" stroke-linejoin="round" stroke-width="1.0"/>
    </g>
    <g id="shape2" transform="matrix(1.0, 0.0, 0.0, 1.0, 0.0, 0.0)">
      <path d="M50.5 0.0 Q53.95 0.0 53.95 3.3 L53.95 50.15 Q53.95 53.4 50.5 53.4 L3.3 53.4 Q0.0 53.4 0.0 50.15 L0.0 3.3 Q0.0 0.0 3.3 0.0 L50.5 0.0" fill="#000000" fill-opacity="0.003921569" fill-rule="evenodd" stroke="none"/>
    </g>
  </defs>
</svg>
