<?xml version="1.0" encoding="UTF-8" standalone="no"?>
<svg xmlns:ffdec="https://www.free-decompiler.com/flash" xmlns:xlink="http://www.w3.org/1999/xlink" ffdec:objectType="frame" height="54.5px" width="54.15px" xmlns="http://www.w3.org/2000/svg">
  <g transform="matrix(1.0, 0.0, 0.0, 1.0, 0.2, 0.5)">
    <clipPath id="clipPath0" transform="matrix(1.0, 0.0, 0.0, 1.0, 0.0, 0.0)">
      <path d="M50.5 0.0 Q53.95 0.0 53.95 3.3 L53.95 50.15 Q53.95 53.4 50.5 53.4 L3.3 53.4 Q0.0 53.4 0.0 50.15 L0.0 3.3 Q0.0 0.0 3.3 0.0 L50.5 0.0" fill="#000000" fill-rule="evenodd" stroke="none"/>
    </clipPath>
    <g clip-path="url(#clipPath0)">
      <use ffdec:characterId="2" height="54.5" transform="matrix(1.0, 0.0, 0.0, 1.0, -0.2, -0.5)" width="54.1" xlink:href="#shape1"/>
    </g>
    <use ffdec:characterId="3" height="53.4" transform="matrix(1.0, 0.0, 0.0, 1.0, 0.0, 0.0)" width="53.95" xlink:href="#shape2"/>
  </g>
  <defs>
    <g id="shape1" transform="matrix(1.0, 0.0, 0.0, 1.0, 0.2, 0.5)">
      <path d="M4.05 -0.1 L4.05 -0.2 4.1 -0.45 8.35 -0.45 8.4 0.8 8.45 2.75 8.45 2.8 8.4 3.3 8.35 3.9 8.3 3.9 7.25 3.95 5.1 3.7 3.55 3.3 3.4 3.25 3.55 2.2 4.05 -0.1" fill="#3f3f61" fill-rule="evenodd" stroke="none"/>
      <path d="M4.1 -0.45 L4.05 -0.2 4.05 -0.1 3.7 0.05 2.35 0.9 2.2 1.0 1.95 0.9 1.0 0.3 1.25 0.2 0.4 -0.45 4.1 -0.45" fill="#7c8c9c" fill-rule="evenodd" stroke="none"/>
      <path d="M0.4 -0.45 L1.25 0.2 1.0 0.3 0.5 0.55 -0.15 0.2 -0.15 -0.45 0.4 -0.45" fill="#4f506f" fill-rule="evenodd" stroke="none"/>
      <path d="M8.45 2.75 L8.4 0.8 8.35 -0.45 8.75 -0.45 8.75 -0.35 8.7 0.25 8.7 0.4 8.7 0.5 8.7 0.6 8.65 0.95 8.45 2.75" fill="#848aa2" fill-rule="evenodd" stroke="none"/>
      <path d="M8.7 0.6 L8.7 0.5 8.7 0.4 8.7 0.25 8.75 -0.35 8.75 -0.45 15.25 -0.45 15.3 -0.35 12.9 1.55 11.4 2.7 9.7 3.65 9.6 3.7 9.1 3.95 9.0 3.55 8.95 3.15 8.75 1.0 8.7 0.6" fill="#60687f" fill-rule="evenodd" stroke="none"/>
      <path d="M24.25 0.9 L24.2 -0.45 27.45 -0.45 27.6 0.0 27.7 0.4 27.4 0.5 25.9 0.8 24.35 0.9 24.25 0.9" fill="#545e77" fill-rule="evenodd" stroke="none"/>
      <path d="M23.75 -0.45 L23.85 0.85 23.9 2.0 23.75 2.0 22.05 1.85 21.4 1.7 21.4 1.55 21.7 -0.45 23.75 -0.45" fill="#454966" fill-rule="evenodd" stroke="none"/>
      <path d="M23.75 -0.45 L24.2 -0.45 24.25 0.9 24.45 3.0 23.95 3.05 23.9 2.0 23.85 0.85 23.75 -0.45" fill="#65859c" fill-rule="evenodd" stroke="none"/>
      <path d="M39.7 15.15 L39.7 16.05 42.2 14.85 42.3 14.75 41.95 16.1 41.9 16.2 40.95 19.1 40.8 19.3 40.65 19.7 41.9 19.8 42.15 19.8 41.15 21.55 40.55 22.6 39.55 22.3 38.65 22.0 37.7 21.65 37.2 21.35 37.9 21.0 39.0 20.25 39.15 18.85 39.3 17.3 39.3 17.15 39.45 16.65 39.7 15.15" fill="#1a133f" fill-rule="evenodd" stroke="none"/>
      <path d="M48.9 30.4 L50.55 29.05 51.85 32.25 51.4 32.45 50.75 32.9 49.85 33.55 49.2 32.6 49.05 31.65 49.05 31.5 48.9 30.4" fill="#1f244e" fill-rule="evenodd" stroke="none"/>
      <path d="M51.85 32.25 L53.45 36.95 53.85 38.35 53.8 38.55 52.85 38.35 52.05 37.9 52.0 37.5 51.85 36.1 51.8 35.95 50.8 34.8 50.6 34.55 49.85 33.55 50.75 32.9 51.4 32.45 51.85 32.25" fill="#251d4c" fill-rule="evenodd" stroke="none"/>
      <path d="M47.85 30.45 L48.4 30.75 48.9 30.4 49.05 31.5 49.05 31.65 49.2 32.6 49.85 33.55 50.6 34.55 50.8 34.8 51.8 35.95 51.85 36.1 52.0 37.5 52.05 37.9 52.85 38.35 53.8 38.55 52.9 41.25 52.3 42.65 51.65 41.2 50.25 39.1 50.15 39.1 48.75 39.15 48.75 39.0 48.6 38.05 48.4 38.1 48.5 37.6 49.1 37.95 49.35 36.8 49.55 35.75 49.25 35.15 48.75 34.25 47.8 32.75 47.45 32.3 47.15 32.75 47.35 32.05 47.65 31.4 47.85 30.45" fill="#171137" fill-rule="evenodd" stroke="none"/>
      <path d="M44.8 28.45 L45.85 29.25 47.85 30.45 47.65 31.4 47.35 32.05 47.15 32.75 46.6 33.55 46.55 33.65 46.05 33.05 45.7 32.65 45.1 31.95 44.05 30.5 43.55 29.9 44.8 28.45" fill="#1f224f" fill-rule="evenodd" stroke="none"/>
      <path d="M43.6 25.4 L44.05 26.85 44.05 26.9 43.6 27.05 41.4 28.3 40.65 28.25 40.2 28.1 40.1 28.1 40.05 27.7 39.9 27.75 39.85 27.75 39.85 27.7 39.8 26.65 39.75 26.25 39.75 26.15 42.0 25.65 43.6 25.4" fill="#2c2558" fill-rule="evenodd" stroke="none"/>
      <path d="M44.05 26.9 L44.6 28.35 44.8 28.45 43.55 29.9 43.3 30.25 42.95 30.75 42.5 31.55 41.6 33.25 41.35 33.85 40.35 33.95 40.15 33.95 40.1 33.9 39.95 33.75 39.7 33.95 39.75 33.55 39.85 32.75 39.95 31.75 37.15 31.65 36.55 31.65 36.9 31.4 37.0 31.35 38.7 29.8 38.7 29.7 38.8 29.7 39.75 29.55 41.1 29.05 41.25 29.05 42.9 28.4 41.4 28.3 43.6 27.05 44.05 26.9 M34.1 32.75 L34.75 32.65 34.9 33.0 35.25 33.95 34.15 35.35 33.9 35.8 34.05 34.85 34.1 34.7 34.3 33.9 34.3 33.65 34.25 33.45 34.15 33.2 34.1 32.75" fill="#282753" fill-rule="evenodd" stroke="none"/>
      <path d="M41.4 28.3 L42.9 28.4 41.25 29.05 41.1 29.05 39.75 29.55 39.8 28.75 39.85 28.0 39.85 27.95 39.85 27.75 39.9 27.75 40.05 27.7 40.1 28.1 40.2 28.1 40.65 28.25 41.4 28.3" fill="#191844" fill-rule="evenodd" stroke="none"/>
      <path d="M41.35 33.85 L41.6 33.25 42.5 31.55 42.95 30.75 43.3 30.25 43.55 29.9 44.05 30.5 45.1 31.95 45.7 32.65 44.3 33.55 44.2 33.6 44.05 33.75 43.9 33.55 43.8 33.35 42.95 33.55 42.9 33.55 41.35 33.85" fill="#24234f" fill-rule="evenodd" stroke="none"/>
      <path d="M40.45 23.2 Q40.95 23.45 41.45 23.85 L43.6 25.4 42.0 25.65 39.75 26.15 39.75 26.25 39.8 26.65 39.3 26.25 38.9 25.95 37.35 24.5 37.7 23.8 38.5 23.6 39.8 23.3 40.45 23.2" fill="#282552" fill-rule="evenodd" stroke="none"/>
      <path d="M48.75 39.15 L48.45 39.25 48.15 39.45 46.9 40.9 46.85 40.9 46.8 40.95 46.55 39.6 46.45 39.15 45.3 38.15 43.5 36.85 43.55 36.7 44.2 35.95 43.9 35.65 43.4 35.1 43.5 34.75 43.6 34.25 43.75 33.9 43.9 33.55 44.05 33.75 Q45.45 36.2 46.95 37.35 L46.95 37.45 47.1 38.25 48.4 38.1 48.6 38.05 48.75 39.0 48.75 39.15" fill="#23133a" fill-rule="evenodd" stroke="none"/>
      <path d="M43.4 35.1 L43.25 35.0 40.95 35.3 40.2 37.0 39.1 37.15 38.7 37.2 38.6 37.2 37.65 37.25 36.7 37.2 38.3 36.3 38.7 35.7 39.7 34.5 39.7 33.95 39.95 33.75 40.1 33.9 40.15 33.95 40.35 33.95 41.35 33.85 42.9 33.55 42.95 33.55 43.8 33.35 43.9 33.55 43.75 33.9 43.6 34.25 43.5 34.75 43.4 35.1" fill="#19173e" fill-rule="evenodd" stroke="none"/>
      <path d="M44.05 33.75 L44.2 33.6 44.3 33.55 45.7 32.65 46.05 33.05 46.55 33.65 46.0 34.7 45.75 35.1 47.15 36.5 47.2 36.5 48.5 37.6 48.4 38.1 47.1 38.25 46.95 37.45 46.95 37.35 Q45.45 36.2 44.05 33.75" fill="#2a234d" fill-rule="evenodd" stroke="none"/>
      <path d="M46.55 33.65 L46.6 33.55 47.15 32.75 47.45 32.3 47.8 32.75 47.7 32.95 Q47.35 33.5 47.15 34.2 L47.05 34.9 47.05 35.35 47.15 36.5 45.75 35.1 46.0 34.7 46.55 33.65" fill="#34c5fa" fill-rule="evenodd" stroke="none"/>
      <path d="M47.15 36.5 L47.05 35.35 47.05 34.9 47.15 34.2 Q47.35 33.5 47.7 32.95 L47.8 32.75 48.75 34.25 49.25 35.15 49.55 35.75 49.35 36.8 49.1 37.95 48.5 37.6 47.2 36.5 47.15 36.5" fill="#19bbf9" fill-rule="evenodd" stroke="none"/>
      <path d="M46.3 41.25 L46.55 41.7 46.65 41.9 46.8 42.15 47.05 42.65 47.45 43.55 47.55 43.45 47.7 45.85 47.25 46.0 46.25 46.2 46.15 46.2 46.2 44.05 46.2 43.65 46.25 42.6 46.25 42.5 46.3 41.25" fill="#2f2955" fill-rule="evenodd" stroke="none"/>
      <path d="M45.55 41.6 L45.6 40.05 46.3 41.25 46.25 42.5 46.25 42.6 46.2 43.65 46.2 44.05 46.15 46.2 46.15 46.5 46.2 46.7 46.55 47.8 46.15 48.0 45.95 48.1 45.95 47.9 45.85 46.3 45.75 45.55 45.75 45.5 45.75 44.95 45.75 44.85 45.65 43.35 45.65 42.8 45.6 42.6 45.6 42.5 45.55 41.6 M46.25 50.05 L46.3 50.05 46.65 49.95 46.45 52.45 46.0 52.8 46.25 50.1 46.25 50.05" fill="#4d4f82" fill-rule="evenodd" stroke="none"/>
      <path d="M45.4 42.45 L45.45 42.1 45.55 41.6 45.6 42.5 45.6 42.6 45.65 42.8 45.65 43.35 45.75 44.85 45.75 44.95 45.75 45.5 45.75 45.55 44.6 46.9 43.45 47.95 43.5 47.0 43.5 46.7 43.4 44.75 43.5 44.9 43.55 45.1 43.6 45.15 44.3 44.45 44.35 44.45 44.65 44.05 44.75 44.0 44.8 43.95 45.2 43.55 45.3 43.1 45.4 42.5 45.4 42.45 M47.8 43.35 L48.9 42.65 49.7 45.75 49.05 46.65 49.6 47.95 50.15 49.2 49.6 49.8 49.35 49.25 48.95 48.55 47.85 46.4 48.35 45.5 48.15 45.5 47.8 43.35 M49.2 50.3 L48.65 51.0 47.2 53.05 46.65 53.95 38.6 53.95 35.35 50.05 34.0 48.2 30.9 46.35 30.75 46.3 31.0 45.75 31.0 45.6 31.25 45.1 31.35 44.9 32.4 45.45 33.3 45.9 33.7 45.45 33.7 45.4 33.7 44.45 34.1 44.0 34.15 43.95 34.3 43.85 34.35 44.05 35.15 46.35 35.6 46.75 39.5 50.0 40.05 50.45 41.45 51.65 41.55 51.7 41.6 51.8 41.8 51.95 41.85 51.95 42.85 52.85 43.25 53.15 43.5 51.5 43.7 50.05 44.35 51.15 45.0 52.45 45.4 53.2 46.0 52.8 46.45 52.45 48.7 50.7 49.2 50.3 M41.95 44.75 L42.25 44.5 41.95 46.4 41.75 47.25 41.25 46.8 41.05 46.65 40.5 46.2 40.7 45.6 40.7 45.7 41.9 44.8 41.95 44.75 M35.3 42.65 L35.45 42.65 36.1 42.6 36.75 42.45 36.75 42.3 36.8 39.8 36.75 38.75 36.9 38.85 37.35 40.05 37.7 41.25 37.7 41.3 37.9 42.6 37.9 43.0 37.9 43.35 37.9 43.85 37.8 43.95 37.8 44.0 37.35 44.2 36.15 44.55 35.85 44.6 35.65 44.6 35.55 43.75 35.3 42.65" fill="#19143c" fill-rule="evenodd" stroke="none"/>
      <path d="M40.45 39.4 L41.05 39.7 42.15 37.65 42.8 38.55 42.45 41.85 42.15 43.75 42.0 44.45 41.95 44.75 41.9 44.8 40.7 45.7 40.7 45.6 40.45 44.85 40.15 43.3 40.05 42.6 39.95 42.4 39.95 42.3 39.9 42.1 39.7 41.75 39.85 41.25 39.9 41.1 40.45 39.4" fill="#14daf7" fill-rule="evenodd" stroke="none"/>
      <path d="M42.8 38.55 L43.6 39.7 45.4 42.45 45.3 43.1 45.2 43.55 44.8 43.95 44.75 44.0 44.65 44.05 44.35 44.45 44.3 44.45 43.6 45.15 43.55 45.1 43.5 44.9 43.4 44.75 42.85 44.15 42.25 44.5 41.95 44.75 42.0 44.45 42.15 43.75 42.45 41.85 42.8 38.55" fill="#0da6f4" fill-rule="evenodd" stroke="none"/>
      <path d="M42.25 44.5 L42.85 44.15 43.4 44.75 43.5 46.7 43.3 48.55 43.25 49.35 41.3 47.6 41.05 47.4 41.25 46.8 41.75 47.25 41.95 46.4 42.25 44.5" fill="#27214d" fill-rule="evenodd" stroke="none"/>
      <path d="M40.7 45.6 L40.5 46.2 41.05 46.65 41.25 46.8 41.05 47.4 41.05 47.5 40.75 48.4 40.55 48.15 40.25 47.7 39.95 47.2 40.05 46.95 40.45 44.85 40.7 45.6" fill="#262050" fill-rule="evenodd" stroke="none"/>
      <path d="M40.75 48.4 L41.05 47.5 41.05 47.4 41.3 47.6 43.25 49.35 43.0 51.65 42.85 52.85 41.85 51.95 41.8 51.95 41.75 51.8 41.75 51.7 41.6 51.2 41.15 49.5 40.95 48.6 40.75 48.4" fill="#252049" fill-rule="evenodd" stroke="none"/>
      <path d="M40.75 48.4 L40.95 48.6 41.15 49.5 40.95 49.65 40.85 49.7 40.75 49.75 40.45 49.2 40.2 48.8 40.55 48.15 40.75 48.4" fill="#484272" fill-rule="evenodd" stroke="none"/>
      <path d="M45.75 45.55 L45.85 46.3 45.95 47.9 45.95 48.1 45.95 48.85 46.0 49.15 46.0 49.55 45.4 49.75 44.2 50.1 43.25 49.35 43.3 48.55 43.5 46.7 43.5 47.0 43.45 47.95 44.6 46.9 45.75 45.55" fill="#242249" fill-rule="evenodd" stroke="none"/>
      <path d="M47.55 43.45 L47.8 43.35 48.15 45.5 48.35 45.5 47.85 46.4 48.95 48.55 49.35 49.25 49.6 49.8 49.2 50.3 48.7 50.7 48.7 50.35 48.8 49.5 48.8 49.2 47.25 47.05 47.75 46.1 47.7 46.0 47.7 45.85 47.55 43.45" fill="#4d4775" fill-rule="evenodd" stroke="none"/>
      <path d="M46.55 47.8 L46.2 46.7 46.15 46.5 46.15 46.2 46.25 46.2 47.25 46.0 47.7 45.85 47.7 46.0 47.75 46.1 47.25 47.05 48.8 49.2 48.8 49.5 47.55 49.65 46.75 49.55 46.75 49.2 46.8 48.65 46.55 47.8" fill="#262350" fill-rule="evenodd" stroke="none"/>
      <path d="M45.95 48.1 L46.15 48.0 46.55 47.8 46.8 48.65 46.75 49.2 46.75 49.55 46.65 49.95 46.3 50.05 46.25 50.05 46.25 49.85 46.2 49.5 46.15 49.45 46.05 49.15 45.95 48.85 45.95 48.1" fill="#8d89bc" fill-rule="evenodd" stroke="none"/>
      <path d="M33.1 8.6 L33.9 9.25 34.75 9.85 37.4 11.65 37.7 12.1 37.0 13.05 35.5 13.5 34.95 13.65 35.0 13.5 35.3 12.4 35.0 12.1 32.4 9.95 32.45 10.6 32.5 13.2 32.5 14.15 30.9 14.35 30.4 12.85 30.15 12.15 30.1 12.0 29.8 11.2 30.6 10.55 32.0 9.45 33.1 8.6" fill="#09c0c6" fill-rule="evenodd" stroke="none"/>
      <path d="M33.9 9.25 L34.0 8.95 34.05 8.85 34.65 7.6 36.45 10.1 37.1 11.1 37.4 11.65 34.75 9.85 33.9 9.25" fill="#3a3053" fill-rule="evenodd" stroke="none"/>
      <path d="M30.1 6.0 L31.2 7.05 31.3 7.1 32.7 8.3 33.1 8.6 32.0 9.45 30.6 10.55 29.8 11.2 29.65 10.7 29.25 10.55 28.95 10.45 28.5 10.3 28.35 10.3 28.15 9.45 28.0 9.15 27.6 8.1 28.8 7.05 29.1 6.8 29.85 6.15 30.1 6.0" fill="#1aa6a7" fill-rule="evenodd" stroke="none"/>
      <path d="M32.5 13.2 L32.45 10.6 32.4 9.95 35.0 12.1 33.45 12.8 32.5 13.2" fill="#423465" fill-rule="evenodd" stroke="none"/>
      <path d="M37.8 11.9 L37.9 11.8 38.4 11.0 38.6 10.75 38.9 10.3 38.95 10.25 39.75 9.25 38.8 11.9 38.6 12.4 38.55 12.5 38.3 13.15 38.25 13.35 Q37.75 14.65 37.15 16.7 L37.1 17.0 36.9 17.6 36.9 17.65 36.65 18.7 36.55 18.85 36.55 18.8 36.05 17.65 35.65 16.9 35.2 15.95 35.25 15.85 36.5 13.8 37.0 13.05 37.7 12.1 37.7 12.0 37.8 11.9" fill="#211d4f" fill-rule="evenodd" stroke="none"/>
      <path d="M39.75 9.25 L39.75 10.95 39.2 12.2 39.0 12.7 38.7 13.4 37.65 16.45 37.6 16.85 37.15 16.7 Q37.75 14.65 38.25 13.35 L38.3 13.15 38.55 12.5 38.6 12.4 38.8 11.9 39.75 9.25 M37.5 17.6 L37.5 18.0 37.45 18.05 36.65 18.7 36.9 17.65 36.9 17.6 37.0 17.65 37.2 17.65 37.5 17.6" fill="#585783" fill-rule="evenodd" stroke="none"/>
      <path d="M39.75 10.95 L39.7 15.15 39.45 16.65 39.15 16.85 38.35 17.4 37.5 18.0 37.5 17.6 37.6 16.85 37.65 16.45 38.7 13.4 39.0 12.7 39.2 12.2 39.75 10.95" fill="#2d2b53" fill-rule="evenodd" stroke="none"/>
      <path d="M24.45 3.0 L24.25 0.9 24.35 0.9 25.9 0.8 27.4 0.5 27.7 0.4 29.15 4.15 28.9 4.15 27.85 4.05 25.75 3.9 24.5 3.6 24.45 3.0" fill="#3f617d" fill-rule="evenodd" stroke="none"/>
      <path d="M29.15 4.15 L29.85 5.8 30.1 6.0 29.85 6.15 29.1 6.8 28.8 7.05 27.6 8.1 27.5 7.65 27.35 7.8 27.35 7.55 27.05 7.25 26.8 7.0 25.7 5.6 24.8 4.2 24.5 3.65 24.5 3.6 25.75 3.9 27.85 4.05 28.9 4.15 29.15 4.15" fill="#2e8797" fill-rule="evenodd" stroke="none"/>
      <path d="M23.9 2.0 L23.95 3.05 23.95 3.45 23.95 4.0 23.95 4.95 23.95 5.1 23.9 5.8 22.3 6.8 22.2 6.9 21.55 7.3 21.4 6.95 21.1 6.4 20.4 5.25 Q21.1 3.4 21.4 1.7 L22.05 1.85 23.75 2.0 23.9 2.0" fill="#3d5172" fill-rule="evenodd" stroke="none"/>
      <path d="M23.95 3.05 L24.45 3.0 24.5 3.6 24.5 3.65 24.8 4.2 24.5 4.5 24.35 4.6 23.95 4.0 23.95 3.45 23.95 3.05" fill="#648ea6" fill-rule="evenodd" stroke="none"/>
      <path d="M24.35 4.6 L24.5 4.5 24.8 4.2 25.7 5.6 26.8 7.0 27.05 7.25 27.35 7.55 27.35 7.8 27.0 8.2 26.05 7.0 25.85 6.75 24.35 4.6" fill="#5a95a7" fill-rule="evenodd" stroke="none"/>
      <path d="M23.95 4.0 L24.35 4.6 25.85 6.75 26.05 7.0 27.0 8.2 26.7 8.5 26.05 9.35 25.8 9.35 24.65 6.95 24.35 6.4 23.85 6.7 23.9 5.8 23.95 5.1 23.95 4.95 23.95 4.0" fill="#365975" fill-rule="evenodd" stroke="none"/>
      <path d="M23.9 5.8 L23.85 6.7 23.55 6.95 22.3 7.85 21.8 7.8 21.55 7.3 22.2 6.9 22.3 6.8 23.9 5.8" fill="#3a5372" fill-rule="evenodd" stroke="none"/>
      <path d="M23.85 6.7 L24.35 6.4 24.65 6.95 25.8 9.35 24.8 9.25 23.15 9.1 22.15 9.65 21.45 8.1 21.25 7.7 21.2 7.65 21.25 7.7 21.45 8.1 22.15 9.65 Q21.8 9.8 21.5 10.0 L20.35 10.6 19.4 11.05 19.35 10.95 19.25 10.65 19.15 10.55 18.75 10.65 18.5 10.35 18.4 10.25 18.85 9.85 19.1 9.75 19.15 9.7 19.1 9.75 18.85 9.85 19.1 9.7 19.15 9.7 19.35 9.35 19.7 8.65 20.4 7.4 20.7 6.95 20.8 6.8 20.85 6.95 21.15 7.55 21.2 7.65 21.8 7.8 22.3 7.85 23.55 6.95 23.85 6.7" fill="#414568" fill-rule="evenodd" stroke="none"/>
      <path d="M25.8 9.35 L26.05 9.35 25.85 9.5 Q25.55 9.85 25.4 10.25 L25.25 10.3 24.6 11.2 24.5 11.3 23.75 12.2 23.7 12.3 23.65 12.3 23.65 12.25 23.1 11.5 22.0 11.95 21.85 12.0 20.85 12.45 20.0 11.7 20.0 11.65 19.8 11.5 19.55 11.1 19.45 11.2 19.4 11.05 20.35 10.6 21.5 10.0 Q21.8 9.8 22.15 9.65 L23.15 9.1 24.8 9.25 25.8 9.35 M22.45 10.3 L22.15 9.65 22.45 10.3" fill="#43516e" fill-rule="evenodd" stroke="none"/>
      <path d="M21.85 12.0 L22.0 11.95 23.1 11.5 23.65 12.25 23.65 12.3 23.7 12.3 23.75 12.2 24.5 11.3 24.6 11.2 Q25.55 12.1 26.75 12.6 L26.9 12.7 29.05 13.05 29.25 13.95 28.95 14.25 28.65 14.6 27.2 14.1 26.1 13.8 25.9 13.8 25.1 14.0 24.8 14.05 24.75 14.05 23.1 14.15 22.65 14.15 22.45 14.15 22.35 13.8 21.85 12.0" fill="#275974" fill-rule="evenodd" stroke="none"/>
      <path d="M24.6 11.2 L25.25 10.3 25.85 10.45 27.3 10.7 27.35 10.7 27.6 10.7 28.45 10.6 28.65 11.35 28.75 11.5 28.75 11.55 28.8 11.95 29.05 13.05 26.9 12.7 26.75 12.6 Q25.55 12.1 24.6 11.2" fill="#324f6d" fill-rule="evenodd" stroke="none"/>
      <path d="M27.0 8.2 L27.35 7.8 27.5 7.65 27.6 8.1 28.0 9.15 28.15 9.45 28.35 10.3 28.45 10.6 27.6 10.7 27.35 10.7 27.3 10.7 25.85 10.45 25.25 10.3 25.4 10.25 Q25.55 9.85 25.85 9.5 L26.05 9.35 26.7 8.5 27.0 8.2" fill="#44466d" fill-rule="evenodd" stroke="none"/>
      <path d="M28.35 10.3 L28.5 10.3 28.95 10.45 29.25 10.55 29.65 10.7 29.8 11.2 30.1 12.0 30.15 12.15 30.4 12.85 29.75 13.45 29.25 13.95 29.05 13.05 28.8 11.95 28.75 11.55 28.75 11.5 28.65 11.35 28.45 10.6 28.35 10.3" fill="#33426b" fill-rule="evenodd" stroke="none"/>
      <path d="M30.4 12.85 L30.9 14.35 31.35 15.6 30.75 16.1 30.25 16.65 30.35 17.15 28.6 17.4 28.5 17.1 28.45 16.8 28.2 16.1 27.9 15.25 27.85 15.0 25.85 14.95 24.85 14.95 23.45 14.9 22.65 14.9 21.0 14.9 20.8 14.9 20.25 14.85 20.35 14.95 20.6 15.25 21.3 16.1 22.75 18.0 20.1 16.5 19.95 16.4 19.55 16.1 19.05 15.85 18.5 15.55 17.6 15.75 18.5 14.0 20.25 14.1 21.2 14.15 22.15 14.15 22.45 14.15 22.65 14.15 23.1 14.15 24.75 14.05 24.8 14.05 25.1 14.0 25.9 13.8 26.1 13.8 27.2 14.1 28.65 14.6 29.45 14.85 29.35 14.3 29.25 13.95 29.75 13.45 30.4 12.85" fill="#138698" fill-rule="evenodd" stroke="none"/>
      <path d="M21.0 14.9 L22.65 14.9 23.45 14.9 24.85 14.95 25.85 14.95 27.85 15.0 27.9 15.25 27.05 16.1 26.95 16.2 26.9 16.25 26.45 16.75 25.8 16.55 25.15 16.35 24.85 16.25 23.75 15.9 23.05 15.65 22.8 15.6 21.0 14.9" fill="#353460" fill-rule="evenodd" stroke="none"/>
      <path d="M29.25 13.95 L29.35 14.3 29.45 14.85 28.65 14.6 28.95 14.25 29.25 13.95" fill="#154e6b" fill-rule="evenodd" stroke="none"/>
      <path d="M27.9 15.25 L28.2 16.1 28.45 16.8 28.5 17.1 27.5 18.6 26.8 17.4 26.5 16.8 26.45 16.75 26.9 16.25 26.95 16.2 27.05 16.1 27.9 15.25" fill="#373662" fill-rule="evenodd" stroke="none"/>
      <path d="M26.45 16.75 L26.5 16.8 26.8 17.4 26.65 17.65 26.35 17.9 26.05 17.6 26.0 17.45 25.85 17.45 25.8 17.4 25.7 17.0 25.7 16.75 25.8 16.55 26.45 16.75" fill="#9998c4" fill-rule="evenodd" stroke="none"/>
      <path d="M20.35 14.95 L20.25 14.85 20.8 14.9 21.0 14.9 22.8 15.6 23.05 15.65 23.75 15.9 24.85 16.25 25.15 16.35 25.8 16.55 25.7 16.75 25.7 17.0 25.8 17.4 25.2 17.1 24.85 16.9 23.75 16.4 23.1 16.1 20.35 14.95" fill="#53527e" fill-rule="evenodd" stroke="none"/>
      <path d="M22.75 18.0 L21.3 16.1 20.6 15.25 20.35 14.95 23.1 16.1 23.75 16.4 24.85 16.9 25.2 17.1 25.8 17.4 25.85 17.45 26.0 17.45 26.05 17.6 26.35 17.9 27.05 18.7 27.25 18.9 27.6 19.3 28.5 20.5 28.6 20.65 28.65 20.75 28.65 20.85 28.65 21.35 28.55 22.7 28.5 23.3 28.25 24.7 27.9 26.3 27.9 26.05 27.7 25.35 27.2 23.25 27.2 23.2 27.05 22.8 26.7 22.5 26.1 21.95 25.85 21.9 25.05 21.85 24.35 21.9 24.35 22.3 25.4 23.3 25.75 23.7 24.55 23.45 23.05 22.9 22.85 24.1 24.6 25.35 24.65 25.4 24.85 26.15 25.15 27.1 25.4 27.65 25.7 28.25 26.05 28.3 26.4 28.35 26.6 28.35 27.35 28.4 27.25 28.75 26.7 30.1 26.3 30.9 26.2 31.0 25.45 31.05 24.85 29.3 24.8 29.2 24.6 28.6 24.35 28.4 23.7 28.05 22.4 27.25 22.0 27.05 20.85 26.45 20.8 26.45 20.5 26.2 19.15 25.4 19.15 24.35 19.15 23.7 19.55 23.3 19.65 23.25 21.15 22.05 21.15 21.7 21.1 20.95 21.1 20.8 21.1 20.5 21.7 20.2 22.0 20.1 23.65 19.3 23.6 19.25 23.3 18.8 23.1 18.55 23.05 18.5 22.85 18.2 22.75 18.0 M28.0 20.4 L27.5 20.5 26.3 20.7 24.8 21.0 24.15 20.05 23.65 19.3 24.15 20.05 24.8 21.0 26.3 20.7 27.5 20.5 28.0 20.4" fill="#211749" fill-rule="evenodd" stroke="none"/>
      <path d="M26.8 17.4 L27.5 18.6 27.6 18.85 28.5 20.5 27.6 19.3 27.25 18.9 27.05 18.7 26.35 17.9 26.65 17.65 26.8 17.4" fill="#51507c" fill-rule="evenodd" stroke="none"/>
      <path d="M28.5 17.1 L28.6 17.4 28.95 18.55 29.05 18.65 29.5 18.55 29.5 19.75 28.85 20.25 28.5 20.5 27.6 18.85 27.5 18.6 28.5 17.1" fill="#2f2e5a" fill-rule="evenodd" stroke="none"/>
      <path d="M28.6 17.4 L30.35 17.15 30.55 18.3 30.1 18.4 29.55 18.55 29.5 18.55 29.05 18.65 28.95 18.55 28.6 17.4" fill="#0da8aa" fill-rule="evenodd" stroke="none"/>
      <path d="M29.5 18.55 L29.55 18.55 30.1 18.4 31.35 19.55 32.4 20.5 30.75 20.7 29.85 20.95 28.65 21.35 28.65 20.85 28.65 20.75 28.6 20.65 28.5 20.5 28.85 20.25 29.5 19.75 29.5 18.55" fill="#2b2d56" fill-rule="evenodd" stroke="none"/>
      <path d="M30.35 17.15 L30.25 16.65 30.75 16.1 31.35 15.6 32.5 14.7 33.6 14.0 33.65 14.0 32.15 17.7 31.8 18.55 32.1 18.95 32.6 19.85 33.05 20.45 33.15 20.65 33.35 20.95 33.95 21.7 33.65 21.45 33.4 21.3 33.15 21.1 32.4 20.5 31.35 19.55 30.1 18.4 30.55 18.3 30.35 17.15" fill="#1a1d4a" fill-rule="evenodd" stroke="none"/>
      <path d="M20.0 11.7 L20.85 12.45 21.85 12.0 22.35 13.8 22.45 14.15 22.15 14.15 21.2 14.15 20.25 14.1 18.5 14.0 18.8 13.35 19.75 11.9 19.8 11.8 20.0 11.7" fill="#306e85" fill-rule="evenodd" stroke="none"/>
      <path d="M19.05 15.85 L19.55 16.1 19.95 16.4 20.1 16.5 22.75 18.0 22.85 18.2 23.05 18.5 21.2 17.95 19.8 17.7 19.15 17.5 19.05 17.5 18.85 17.45 18.95 17.0 19.05 15.85" fill="#363e6d" fill-rule="evenodd" stroke="none"/>
      <path d="M23.05 18.5 L23.1 18.55 23.3 18.8 23.6 19.25 23.1 19.0 21.6 18.55 Q21.25 18.4 19.75 18.0 L19.25 17.8 19.1 17.8 19.15 17.5 19.8 17.7 21.2 17.95 23.05 18.5" fill="#525082" fill-rule="evenodd" stroke="none"/>
      <path d="M19.1 17.8 L19.25 17.8 19.75 18.0 Q21.25 18.4 21.6 18.55 L23.1 19.0 23.6 19.25 23.65 19.3 22.0 20.1 21.7 20.2 21.1 20.5 21.1 20.45 19.9 19.9 19.6 19.8 Q18.5 19.3 16.2 18.55 L14.25 17.95 13.35 17.65 12.05 17.35 13.3 17.45 14.3 17.5 15.75 17.6 16.85 17.65 18.2 17.75 18.85 17.8 19.1 17.8" fill="#211a50" fill-rule="evenodd" stroke="none"/>
      <path d="M21.1 20.5 L21.1 20.8 20.4 21.25 19.75 21.4 19.7 21.3 19.65 21.05 19.6 20.15 19.6 19.8 19.9 19.9 21.1 20.45 21.1 20.5 M12.15 15.55 L13.35 16.1 13.35 16.8 12.85 16.9 12.05 17.15 12.15 15.55 M12.9 18.3 L12.15 18.55 12.15 18.4 12.1 18.4 12.1 18.35 12.1 18.2 12.05 17.35 13.35 17.65 13.35 18.0 12.9 18.3" fill="#91fcff" fill-rule="evenodd" stroke="none"/>
      <path d="M21.1 20.8 L21.1 20.95 21.15 21.7 21.15 22.05 19.65 23.25 18.4 22.65 17.45 22.25 16.55 22.7 Q15.65 23.2 15.5 23.6 L14.85 23.4 14.75 23.25 14.85 21.3 14.85 21.05 14.75 20.95 14.15 20.45 13.8 19.75 13.65 19.8 13.35 19.95 12.4 20.45 11.4 19.95 10.85 19.75 9.9 19.4 9.05 20.2 8.15 20.7 7.8 20.65 7.55 20.55 7.35 20.45 7.2 20.35 7.35 18.35 7.35 18.1 6.55 17.5 6.15 16.55 Q5.75 15.75 5.75 14.1 L5.95 12.1 7.95 13.4 10.25 14.65 12.15 15.55 12.05 17.15 11.65 17.2 11.8 17.3 12.05 17.35 12.1 18.2 12.1 18.35 12.1 18.4 12.15 18.4 12.15 18.55 12.9 18.3 13.35 18.1 13.65 19.45 13.8 19.75 13.65 19.45 13.35 18.1 12.9 18.3 13.35 18.0 13.35 17.65 14.25 17.95 16.2 18.55 Q18.5 19.3 19.6 19.8 L19.6 20.15 19.65 21.05 19.7 21.3 19.75 21.4 20.4 21.25 21.1 20.8 M21.1 20.95 L20.4 21.25 21.1 20.95 M13.35 16.1 L14.4 16.45 14.55 16.5 14.4 16.55 13.35 16.8 13.35 16.1 M13.35 18.0 L13.35 18.1 13.35 18.0" fill="#2efbff" fill-rule="evenodd" stroke="none"/>
      <path d="M25.15 27.1 L24.85 26.15 24.65 25.4 24.6 25.35 22.85 24.1 23.05 22.9 24.55 23.45 25.75 23.7 25.4 23.3 24.35 22.3 24.35 21.9 25.05 21.85 25.85 21.9 26.1 21.95 26.7 22.5 26.2 23.5 Q25.8 24.3 25.5 25.45 L25.15 27.1" fill="#332f61" fill-rule="evenodd" stroke="none"/>
      <path d="M28.65 21.35 L29.85 20.95 30.75 20.7 30.95 22.8 29.8 22.95 28.85 23.25 28.5 23.3 28.55 22.7 28.65 21.35" fill="#2b3163" fill-rule="evenodd" stroke="none"/>
      <path d="M26.05 28.3 L25.7 28.25 25.4 27.65 25.15 27.1 25.5 25.45 Q25.8 24.3 26.2 23.5 L26.7 22.5 27.05 22.8 27.2 23.2 27.2 23.25 27.7 25.35 27.9 26.05 27.9 26.3 27.95 26.9 27.1 27.5 26.65 27.85 Q26.3 28.1 26.05 28.3" fill="#2b3361" fill-rule="evenodd" stroke="none"/>
      <path d="M27.9 26.3 L28.25 24.7 28.5 23.3 28.85 23.25 29.25 24.0 29.2 25.05 29.25 26.75 29.35 27.15 29.4 27.75 30.35 29.0 30.55 29.25 30.65 29.35 30.1 30.2 29.7 30.85 29.4 30.5 Q28.75 29.8 28.3 28.4 L27.95 26.9 27.9 26.3" fill="#285880" fill-rule="evenodd" stroke="none"/>
      <path d="M28.85 23.25 L29.8 22.95 30.95 22.8 31.2 24.3 31.2 24.45 30.9 24.7 30.7 24.5 30.6 24.8 29.25 24.0 28.85 23.25" fill="#225779" fill-rule="evenodd" stroke="none"/>
      <path d="M34.95 13.65 L35.5 13.5 37.0 13.05 36.5 13.8 35.25 15.85 35.2 15.95 35.15 16.1 35.05 16.25 34.65 16.1 34.1 15.95 34.6 14.85 34.95 13.65 M30.9 14.35 L32.5 14.15 32.5 14.7 31.35 15.6 30.9 14.35" fill="#23c1cd" fill-rule="evenodd" stroke="none"/>
      <path d="M37.15 16.7 L37.6 16.85 37.5 17.6 37.2 17.65 37.0 17.65 36.9 17.6 37.1 17.0 37.15 16.7" fill="#9695c1" fill-rule="evenodd" stroke="none"/>
      <path d="M37.5 18.0 L38.35 17.4 39.15 16.85 39.45 16.65 39.3 17.15 39.3 17.3 39.15 18.85 39.0 20.25 37.9 21.0 37.0 20.1 36.5 19.5 36.45 19.5 36.55 18.85 36.65 18.7 37.45 18.05 37.5 18.0" fill="#322d56" fill-rule="evenodd" stroke="none"/>
      <path d="M35.2 15.95 L35.65 16.9 36.05 17.65 34.1 17.95 34.0 16.2 34.0 16.1 34.0 15.9 34.1 15.95 34.65 16.1 35.05 16.25 35.15 16.1 35.2 15.95 M34.1 15.95 L34.0 16.2 34.1 15.95" fill="#372d5f" fill-rule="evenodd" stroke="none"/>
      <path d="M32.5 13.2 L33.45 12.8 35.0 12.1 35.3 12.4 35.0 13.5 34.95 13.65 34.6 14.85 34.1 15.95 34.0 15.9 34.0 15.25 34.05 14.4 34.05 13.95 34.05 13.8 34.05 13.7 33.95 13.75 33.65 14.0 33.6 14.0 32.5 14.7 32.5 14.15 32.5 13.2" fill="#3b396b" fill-rule="evenodd" stroke="none"/>
      <path d="M33.65 14.0 L33.95 13.75 34.05 13.7 34.05 13.8 34.05 13.95 34.05 14.4 Q32.8 16.85 32.5 18.1 L32.45 17.75 32.15 17.7 33.65 14.0" fill="#3d3e6c" fill-rule="evenodd" stroke="none"/>
      <path d="M34.05 14.4 L34.0 15.25 34.0 15.9 34.0 16.1 34.0 16.2 34.1 17.95 34.1 18.55 34.15 18.8 34.3 20.1 34.25 20.1 33.9 20.45 33.8 20.5 33.6 20.75 Q33.45 20.8 33.35 20.95 L33.15 20.65 33.1 20.45 32.6 18.8 32.5 18.1 Q32.8 16.85 34.05 14.4" fill="#322f5e" fill-rule="evenodd" stroke="none"/>
      <path d="M32.15 17.7 L32.45 17.75 32.5 18.1 32.6 18.8 32.1 18.95 31.8 18.55 32.15 17.7" fill="#939ac6" fill-rule="evenodd" stroke="none"/>
      <path d="M36.05 17.65 L36.55 18.8 36.55 18.85 36.45 19.5 36.5 19.5 37.0 20.1 35.35 20.35 34.95 20.25 35.2 19.15 34.1 18.55 34.1 17.95 36.05 17.65" fill="#201d4a" fill-rule="evenodd" stroke="none"/>
      <path d="M34.1 18.55 L35.2 19.15 34.95 20.25 34.75 20.95 34.6 21.6 34.3 21.15 33.9 20.65 34.25 20.1 34.3 20.1 34.15 18.8 34.1 18.55" fill="#336b84" fill-rule="evenodd" stroke="none"/>
      <path d="M30.75 20.7 L32.4 20.5 33.15 21.1 33.4 21.3 33.65 21.45 33.95 21.7 33.35 20.95 Q33.45 20.8 33.6 20.75 L33.8 20.5 33.9 20.65 34.3 21.15 33.7 22.55 33.8 22.6 33.7 22.6 33.2 22.55 30.95 22.8 30.75 20.7 M33.6 20.75 L33.9 20.65 33.6 20.75" fill="#2c3764" fill-rule="evenodd" stroke="none"/>
      <path d="M33.15 20.65 L33.05 20.45 32.6 19.85 32.1 18.95 32.6 18.8 33.1 20.45 33.15 20.65" fill="#464a79" fill-rule="evenodd" stroke="none"/>
      <path d="M37.9 21.0 L37.2 21.35 37.7 21.65 36.5 22.9 36.15 23.3 34.6 21.6 34.75 20.95 34.95 20.25 35.35 20.35 37.0 20.1 37.9 21.0" fill="#26234e" fill-rule="evenodd" stroke="none"/>
      <path d="M34.3 21.15 L34.6 21.6 36.15 23.3 37.15 24.35 37.35 24.5 37.0 25.4 35.65 24.3 35.25 23.85 34.1 22.9 33.8 22.6 33.7 22.55 34.3 21.15" fill="#181446" fill-rule="evenodd" stroke="none"/>
      <path d="M31.2 24.45 L31.2 24.3 30.95 22.8 33.2 22.55 33.7 22.6 33.8 22.6 34.1 22.9 35.25 23.85 34.55 24.95 Q33.45 24.0 32.2 24.0 L32.15 24.05 Q31.6 24.2 31.2 24.45" fill="#29627f" fill-rule="evenodd" stroke="none"/>
      <path d="M31.2 24.45 Q31.6 24.2 32.15 24.05 L32.2 24.0 Q33.45 24.0 34.55 24.95 35.55 25.75 35.75 27.05 L35.75 27.2 33.7 26.3 33.35 26.15 31.8 25.25 30.9 24.7 31.2 24.45" fill="#1f99ae" fill-rule="evenodd" stroke="none"/>
      <path d="M30.6 24.8 L30.7 24.5 30.9 24.7 31.8 25.25 33.35 26.15 33.7 26.3 33.35 27.4 33.2 27.55 32.25 28.75 31.55 28.35 31.5 28.3 31.3 28.1 30.65 27.05 30.45 25.65 30.55 25.25 30.6 24.8 M31.7 25.4 L31.35 25.45 31.3 25.45 31.25 25.6 Q31.1 25.75 31.1 26.2 31.1 26.75 31.35 27.05 L31.7 27.25 32.4 26.95 32.5 26.85 32.6 26.35 32.3 25.7 Q31.95 25.4 31.7 25.4" fill="#1dffff" fill-rule="evenodd" stroke="none"/>
      <path d="M40.55 22.6 L40.35 23.1 40.45 23.2 39.8 23.3 38.5 23.6 37.7 23.8 37.35 24.5 37.15 24.35 36.15 23.3 36.5 22.9 37.7 21.65 38.65 22.0 39.55 22.3 40.55 22.6" fill="#231c45" fill-rule="evenodd" stroke="none"/>
      <path d="M34.55 24.95 L35.25 23.85 35.65 24.3 37.0 25.4 36.5 26.85 35.75 27.05 Q35.55 25.75 34.55 24.95" fill="#21788c" fill-rule="evenodd" stroke="none"/>
      <path d="M9.1 3.95 L9.6 3.7 9.7 3.65 11.4 2.7 12.9 1.55 15.3 -0.35 16.0 1.15 16.95 2.95 16.4 3.35 Q15.7 3.95 15.0 5.05 L14.5 5.75 14.45 5.8 14.25 6.05 13.5 7.85 Q13.05 8.0 12.75 8.25 L12.1 8.1 Q11.1 7.7 10.4 6.7 L10.0 6.1 9.7 5.55 9.1 3.95" fill="#54627f" fill-rule="evenodd" stroke="none"/>
      <path d="M13.5 7.85 L14.25 6.05 14.45 5.8 14.5 5.75 15.0 5.05 Q15.7 3.95 16.4 3.35 L16.95 2.95 18.85 6.6 18.8 6.65 18.5 6.65 17.65 6.75 16.75 6.95 16.25 7.0 14.75 7.35 13.5 7.85" fill="#4f5474" fill-rule="evenodd" stroke="none"/>
      <path d="M13.5 7.85 L14.75 7.35 16.25 7.0 16.75 6.95 17.65 6.75 18.5 6.65 17.65 6.8 16.95 7.0 14.85 7.7 14.7 7.85 13.25 8.5 12.85 8.65 12.55 8.9 12.0 8.65 11.35 8.3 10.85 7.95 10.75 7.85 10.2 7.3 10.2 7.25 10.2 7.2 10.3 6.95 10.4 6.7 Q11.1 7.7 12.1 8.1 L12.75 8.25 Q13.05 8.0 13.5 7.85" fill="#7a83a2" fill-rule="evenodd" stroke="none"/>
      <path d="M18.5 6.65 L18.8 6.65 18.85 6.6 19.0 6.8 19.4 7.0 19.25 7.25 19.0 7.25 18.5 7.35 17.9 7.55 17.65 7.65 16.75 7.9 15.45 8.25 15.1 9.2 15.0 9.45 Q14.7 10.15 14.55 10.75 L14.7 10.9 14.75 11.0 15.05 11.3 15.15 11.4 16.7 10.7 17.05 10.6 17.05 10.55 17.9 10.15 18.25 10.05 18.4 10.25 18.5 10.35 18.75 10.65 Q18.35 10.75 17.95 10.95 L17.25 11.3 15.8 12.55 15.35 13.2 Q14.55 14.6 14.4 16.45 L13.35 16.1 12.15 15.55 10.25 14.65 7.95 13.4 10.8 8.15 10.85 8.0 10.85 7.95 11.35 8.3 12.0 8.65 12.55 8.9 12.85 8.65 13.25 8.5 14.7 7.85 14.85 7.7 16.95 7.0 17.65 6.8 18.5 6.65" fill="#393e64" fill-rule="evenodd" stroke="none"/>
      <path d="M8.3 3.9 L8.35 3.9 8.4 3.3 8.45 2.8 8.45 2.75 8.65 0.95 8.7 0.6 8.75 1.0 8.95 3.15 9.0 3.55 9.1 3.95 9.7 5.55 10.0 6.1 10.4 6.7 10.3 6.95 10.2 7.2 10.2 7.25 9.65 6.5 9.4 6.2 8.5 4.75 8.45 4.6 8.35 4.15 8.3 3.95 8.3 3.9" fill="#909cb4" fill-rule="evenodd" stroke="none"/>
      <path d="M3.4 3.25 L3.55 3.3 5.1 3.7 7.25 3.95 8.3 3.9 8.3 3.95 8.35 4.15 8.45 4.6 8.5 4.75 9.4 6.2 9.65 6.5 10.2 7.25 10.2 7.3 10.75 7.85 10.85 7.95 10.85 8.0 10.8 8.15 7.95 13.4 5.95 12.1 2.9 9.35 2.9 9.2 Q2.95 6.4 3.4 3.45 L3.4 3.25" fill="#393d63" fill-rule="evenodd" stroke="none"/>
      <path d="M18.25 10.05 L17.9 10.15 17.05 10.55 17.05 10.6 16.7 10.7 15.15 11.4 15.05 11.3 14.75 11.0 14.7 10.9 14.55 10.75 Q14.7 10.15 15.0 9.45 L15.1 9.2 15.45 8.25 16.75 7.9 16.9 8.15 17.15 8.95 17.55 9.4 18.1 9.85 18.25 10.05" fill="#50567a" fill-rule="evenodd" stroke="none"/>
      <path d="M17.65 7.65 L17.9 7.55 18.5 7.35 19.0 7.25 19.25 7.25 19.4 7.0 19.55 7.05 20.0 7.25 20.2 7.35 20.4 7.4 19.7 8.65 19.35 9.35 19.15 9.7 19.1 9.7 18.65 9.25 18.5 9.2 17.95 8.75 17.5 8.25 17.6 7.7 17.65 7.65" fill="#4f5673" fill-rule="evenodd" stroke="none"/>
      <path d="M18.4 10.25 L18.25 10.05 18.1 9.85 17.55 9.4 17.95 8.75 18.5 9.2 18.65 9.25 19.1 9.7 18.85 9.85 18.4 10.25" fill="#53597d" fill-rule="evenodd" stroke="none"/>
      <path d="M16.75 7.9 L17.65 7.65 17.6 7.7 17.5 8.25 17.95 8.75 17.55 9.4 17.15 8.95 16.9 8.15 16.75 7.9" fill="#9198b5" fill-rule="evenodd" stroke="none"/>
      <path d="M19.4 11.05 L19.45 11.2 19.3 11.3 Q18.55 11.8 17.5 13.1 L17.05 13.75 16.9 13.6 15.8 12.55 17.25 11.3 17.95 10.95 Q18.35 10.75 18.75 10.65 L19.15 10.55 19.25 10.65 19.35 10.95 19.4 11.05" fill="#425677" fill-rule="evenodd" stroke="none"/>
      <path d="M19.45 11.2 L19.55 11.1 19.8 11.5 20.0 11.65 20.0 11.7 19.8 11.8 19.75 11.9 18.8 13.35 18.5 14.0 17.6 15.75 16.2 16.1 15.8 16.2 Q16.1 15.0 17.05 13.75 L17.5 13.1 Q18.55 11.8 19.3 11.3 L19.45 11.2" fill="#333c63" fill-rule="evenodd" stroke="none"/>
      <path d="M2.2 1.0 L2.35 0.9 3.7 0.05 4.05 -0.1 3.55 2.2 2.85 2.15 2.2 2.15 1.0 2.15 0.15 2.2 -0.15 2.35 -0.15 1.1 1.05 1.3 1.15 1.3 1.3 1.3 1.65 1.25 1.7 1.25 2.2 1.0" fill="#4c5c75" fill-rule="evenodd" stroke="none"/>
      <path d="M3.55 2.2 L3.4 3.25 3.4 3.45 Q1.25 5.3 -0.15 7.5 L-0.15 3.8 1.0 2.15 2.2 2.15 2.85 2.15 3.55 2.2" fill="#44e7ee" fill-rule="evenodd" stroke="none"/>
      <path d="M1.0 0.3 L1.95 0.9 2.2 1.0 1.7 1.25 1.65 1.25 1.3 1.3 1.15 1.3 1.05 1.3 -0.15 1.1 -0.15 0.2 0.5 0.55 1.0 0.3" fill="#7e83a1" fill-rule="evenodd" stroke="none"/>
      <path d="M-0.15 3.8 L-0.15 2.7 -0.1 2.5 0.15 2.2 1.0 2.15 -0.15 3.8" fill="#81f2f8" fill-rule="evenodd" stroke="none"/>
      <path d="M5.75 29.8 L4.35 30.8 4.2 30.55 3.75 30.2 1.0 27.55 2.15 25.95 Q3.4 24.2 4.3 23.55 L4.4 22.3 4.4 22.2 4.4 22.0 4.45 21.65 4.5 21.1 3.2 19.45 2.5 18.25 2.3 18.0 2.9 16.7 2.9 16.65 2.35 14.0 2.3 13.8 2.05 13.9 Q0.95 14.25 0.4 14.65 L-0.1 13.65 -0.15 12.15 -0.15 9.5 2.9 9.2 2.9 9.35 5.95 12.1 5.75 14.1 Q5.75 15.75 6.15 16.55 L6.55 17.5 7.35 18.1 7.35 18.35 7.2 20.35 7.35 20.45 7.55 20.55 7.5 21.35 7.25 21.85 7.05 22.35 7.15 23.8 6.6 26.25 6.0 27.7 5.95 27.95 5.75 29.8 M12.7 22.9 L11.75 24.65 11.85 24.05 12.25 21.9 12.45 21.55 12.7 22.9" fill="#14fffc" fill-rule="evenodd" stroke="none"/>
      <path d="M-0.15 9.5 L-0.15 7.5 Q1.25 5.3 3.4 3.45 2.95 6.4 2.9 9.2 L-0.15 9.5 M13.35 19.95 L13.65 19.8 13.8 19.75 14.15 20.45 14.75 20.95 13.55 20.65 13.0 22.35 12.7 22.9 12.45 21.55 12.95 20.75 13.35 19.95 M-0.1 2.5 L-0.15 2.35 0.15 2.2 -0.1 2.5" fill="#1cffff" fill-rule="evenodd" stroke="none"/>
      <path d="M-0.15 16.9 L-0.15 12.15 -0.1 13.65 0.4 14.65 Q0.95 14.25 2.05 13.9 L1.75 15.25 Q1.05 16.15 0.05 16.75 L-0.1 16.85 -0.15 16.9" fill="#576f7b" fill-rule="evenodd" stroke="none"/>
      <path d="M-0.15 17.6 L-0.15 16.9 -0.1 16.85 0.05 16.75 Q1.05 16.15 1.75 15.25 L2.05 13.9 2.3 13.8 2.35 14.0 2.3 14.25 2.05 15.45 1.7 15.9 0.75 16.85 0.15 17.35 -0.15 17.6" fill="#adbbc8" fill-rule="evenodd" stroke="none"/>
      <path d="M-0.15 19.1 L-0.15 17.6 0.15 17.35 0.75 16.85 1.7 15.9 2.05 15.45 2.3 14.25 2.35 14.0 2.9 16.65 2.9 16.7 2.3 18.0 2.5 18.25 1.1 18.65 0.75 18.8 -0.15 19.1" fill="#89a1ad" fill-rule="evenodd" stroke="none"/>
      <path d="M-0.15 23.3 L-0.15 19.1 0.75 18.8 1.1 18.65 2.5 18.25 3.2 19.45 4.5 21.1 4.45 21.65 4.2 21.75 2.8 22.9 2.7 22.95 1.3 23.25 -0.15 23.3" fill="#879ba2" fill-rule="evenodd" stroke="none"/>
      <path d="M4.45 21.65 L4.4 22.0 4.4 22.2 Q4.1 22.35 3.8 22.6 L3.0 23.25 1.45 25.1 1.15 25.55 0.95 25.95 0.15 26.0 0.05 25.6 1.15 25.1 1.25 25.05 1.3 25.0 1.45 24.7 2.7 22.95 2.8 22.9 4.2 21.75 4.45 21.65" fill="#96a9ba" fill-rule="evenodd" stroke="none"/>
      <path d="M-0.15 28.25 L-0.15 26.05 -0.1 26.05 0.15 26.0 0.95 25.95 1.15 25.55 1.45 25.1 3.0 23.25 3.8 22.6 Q4.1 22.35 4.4 22.2 L4.4 22.3 4.3 23.55 Q3.4 24.2 2.15 25.95 L1.0 27.55 0.95 27.7 0.95 27.75 0.95 28.7 0.5 28.5 0.45 28.5 0.15 28.4 -0.15 28.25" fill="#6a7b8f" fill-rule="evenodd" stroke="none"/>
      <path d="M-0.15 25.65 L-0.15 23.3 1.3 23.25 2.7 22.95 1.45 24.7 1.3 25.0 1.25 25.05 1.15 25.1 0.05 25.6 -0.05 25.6 -0.15 25.65" fill="#7b8f9a" fill-rule="evenodd" stroke="none"/>
      <path d="M7.8 20.65 L8.15 20.7 9.05 20.2 9.9 19.4 10.85 19.75 11.4 19.95 11.35 20.05 10.55 21.3 9.4 22.7 9.35 23.0 9.35 23.45 9.3 24.45 9.55 26.6 9.55 26.75 9.6 26.85 9.5 26.8 9.35 26.75 Q7.85 26.15 7.2 25.35 L7.15 23.8 7.05 22.35 7.25 21.85 7.5 21.35 7.8 20.65" fill="#0ffffb" fill-rule="evenodd" stroke="none"/>
      <path d="M7.55 20.55 L7.8 20.65 7.5 21.35 7.55 20.55" fill="#3effff" fill-rule="evenodd" stroke="none"/>
      <path d="M11.4 19.95 L12.4 20.45 13.35 19.95 12.95 20.75 12.45 21.55 12.25 21.9 10.25 24.2 10.25 24.3 10.2 24.45 Q10.2 25.9 10.45 26.8 L10.55 27.2 9.6 26.85 9.55 26.75 9.55 26.6 9.3 24.45 9.35 23.45 9.35 23.0 9.4 22.7 10.55 21.3 11.35 20.05 11.4 19.95" fill="#70fcff" fill-rule="evenodd" stroke="none"/>
      <path d="M14.4 16.45 Q14.55 14.6 15.35 13.2 L15.8 12.55 16.9 13.6 17.05 13.75 Q16.1 15.0 15.8 16.2 L14.55 16.5 14.4 16.45" fill="#436080" fill-rule="evenodd" stroke="none"/>
      <path d="M12.05 17.35 L11.8 17.3 11.65 17.2 12.05 17.15 12.85 16.9 13.3 17.05 15.7 17.3 15.75 17.3 16.9 17.35 17.3 17.4 18.1 17.4 18.1 17.5 18.15 17.6 18.2 17.75 16.85 17.65 15.75 17.6 14.3 17.5 13.3 17.45 12.05 17.35" fill="#615a8e" fill-rule="evenodd" stroke="none"/>
      <path d="M17.6 15.75 L18.5 15.55 19.05 15.85 18.95 17.0 18.85 17.45 18.8 17.4 18.1 17.4 17.3 17.4 16.9 17.35 15.75 17.3 15.7 17.3 13.3 17.05 12.85 16.9 13.35 16.8 14.4 16.55 14.55 16.5 15.8 16.2 16.2 16.1 17.6 15.75" fill="#3c3e6f" fill-rule="evenodd" stroke="none"/>
      <path d="M19.15 17.5 L19.1 17.8 18.85 17.8 18.2 17.75 18.15 17.6 18.1 17.5 18.1 17.4 18.8 17.4 18.85 17.45 19.05 17.5 19.15 17.5" fill="#a89fd4" fill-rule="evenodd" stroke="none"/>
      <path d="M21.15 30.3 Q20.25 29.95 19.75 29.55 18.45 28.3 17.85 26.8 L17.75 26.55 17.6 26.55 Q15.7 26.55 13.6 27.8 11.15 29.3 11.8 31.25 L11.35 32.1 10.75 31.1 Q10.25 30.0 10.25 28.8 L10.3 28.35 11.05 26.65 11.75 24.65 12.7 22.9 13.0 22.35 13.55 20.65 14.75 20.95 14.85 21.05 14.85 21.3 14.75 23.25 14.85 23.4 15.5 23.6 Q15.65 23.2 16.55 22.7 L17.45 22.25 18.4 22.65 19.65 23.25 19.55 23.3 19.15 23.7 19.15 24.35 19.15 25.4 20.5 26.2 20.8 26.45 20.85 26.45 20.85 26.5 20.1 27.5 20.5 28.3 21.25 30.1 21.2 30.2 21.15 30.3 M24.35 28.4 L24.6 28.6 24.8 29.2 24.85 29.3 25.45 31.05 26.2 31.0 26.15 31.5 24.6 31.25 23.95 29.9 23.85 29.6 24.35 28.4" fill="#24fcff" fill-rule="evenodd" stroke="none"/>
      <path d="M11.35 32.1 L11.65 32.4 10.9 33.75 10.45 34.5 10.4 34.5 10.2 33.95 Q9.7 32.85 9.5 31.2 L9.1 27.8 9.35 27.15 9.5 26.8 9.6 26.85 10.55 27.2 10.45 26.8 Q10.2 25.9 10.2 24.45 L10.25 24.3 10.25 24.2 12.25 21.9 11.85 24.05 11.75 24.65 11.05 26.65 10.3 28.35 10.25 28.8 Q10.25 30.0 10.75 31.1 L11.35 32.1" fill="#74ffff" fill-rule="evenodd" stroke="none"/>
      <path d="M10.4 34.5 L9.7 34.55 Q8.3 34.6 7.25 34.05 L6.05 33.05 5.95 32.3 5.75 30.2 5.75 29.8 5.95 27.95 6.0 27.7 6.6 26.25 7.15 23.8 7.2 25.35 Q7.85 26.15 9.35 26.75 L9.5 26.8 9.35 27.15 9.1 27.8 9.5 31.2 Q9.7 32.85 10.2 33.95 L10.4 34.5" fill="#19fffe" fill-rule="evenodd" stroke="none"/>
      <path d="M30.75 46.3 Q27.05 44.0 24.65 42.65 L21.85 41.0 21.0 41.55 20.0 42.35 Q18.95 40.8 18.25 39.0 L17.2 35.6 17.2 35.45 17.95 35.0 19.8 33.75 21.15 30.3 21.2 30.2 21.25 30.1 20.5 28.3 20.1 27.5 20.85 26.5 20.85 26.45 22.0 27.05 22.0 27.65 22.0 29.8 22.0 29.95 22.0 30.4 22.1 30.7 22.35 31.65 22.45 32.1 22.65 32.85 22.45 33.15 22.3 33.5 21.75 34.45 20.85 35.9 20.95 36.6 21.15 37.2 21.4 38.15 21.45 38.45 22.35 38.65 23.25 40.5 23.4 40.5 23.65 40.5 25.15 40.3 25.35 40.85 25.8 41.3 25.85 41.45 25.9 41.45 27.25 42.6 28.45 43.35 28.1 41.1 27.8 39.45 27.8 39.25 27.8 39.15 27.85 39.05 28.15 38.5 28.75 37.25 28.75 37.15 28.85 37.15 29.7 36.95 29.1 38.1 28.8 38.75 28.65 39.0 28.3 39.6 28.55 40.3 28.65 40.55 29.15 41.6 29.2 41.75 30.3 44.15 31.0 44.65 31.2 44.8 31.35 44.9 31.25 45.1 31.0 45.6 31.0 45.75 30.75 46.3 M30.4 39.3 L31.25 40.2 31.8 40.7 31.95 40.9 32.1 41.0 32.5 40.95 33.0 40.85 32.8 41.0 32.3 41.8 31.8 42.6 31.6 42.75 31.35 43.0 31.0 42.05 30.95 41.9 30.85 41.55 30.3 40.25 30.1 39.7 30.4 39.3" fill="#1d1649" fill-rule="evenodd" stroke="none"/>
      <path d="M-0.15 26.05 L-0.15 25.65 -0.05 25.6 0.05 25.6 0.15 26.0 -0.1 26.05 -0.15 26.05" fill="#c3d5e9" fill-rule="evenodd" stroke="none"/>
      <path d="M4.35 30.8 L4.7 31.75 4.95 33.0 4.95 34.1 Q4.95 35.2 4.45 36.25 L4.2 34.45 4.15 34.25 Q3.8 32.9 3.0 31.65 L3.0 31.55 2.35 30.9 0.95 29.35 0.95 29.3 0.95 28.95 0.95 28.7 0.95 27.75 0.95 27.7 1.0 27.55 3.75 30.2 4.2 30.55 4.35 30.8" fill="#45bcd0" fill-rule="evenodd" stroke="none"/>
      <path d="M-0.15 30.05 L-0.15 28.25 0.15 28.4 0.45 28.5 0.5 28.5 0.95 28.7 0.95 28.95 0.95 29.3 0.95 29.35 0.95 29.6 1.0 29.7 0.05 30.0 -0.05 30.0 -0.15 30.05" fill="#363868" fill-rule="evenodd" stroke="none"/>
      <path d="M-0.15 31.85 L-0.15 30.05 -0.05 30.0 0.05 30.0 1.0 29.7 1.15 31.15 0.1 31.75 -0.15 31.85" fill="#241e4c" fill-rule="evenodd" stroke="none"/>
      <path d="M-0.15 32.15 L-0.15 31.85 0.1 31.75 1.15 31.15 1.0 29.7 0.95 29.6 0.95 29.35 2.35 30.9 Q1.45 31.35 1.1 31.55 L0.7 31.8 -0.15 32.15" fill="#4dc7cc" fill-rule="evenodd" stroke="none"/>
      <path d="M-0.15 34.75 L-0.15 32.15 0.7 31.8 1.1 31.55 Q1.45 31.35 2.35 30.9 L3.0 31.55 3.0 31.65 Q3.8 32.9 4.15 34.25 L2.2 34.75 0.95 34.8 -0.15 34.75" fill="#3f9faf" fill-rule="evenodd" stroke="none"/>
      <path d="M4.45 36.25 L3.9 37.05 3.2 37.9 3.0 37.9 1.25 37.95 -0.15 37.9 -0.15 34.75 0.95 34.8 2.2 34.75 4.15 34.25 4.2 34.45 4.45 36.25" fill="#3a93a1" fill-rule="evenodd" stroke="none"/>
      <path d="M37.0 25.4 L37.35 24.5 38.9 25.95 39.3 26.25 39.8 26.65 39.85 27.7 39.85 27.75 39.5 27.85 38.7 28.15 38.6 27.05 37.0 25.4" fill="#16103e" fill-rule="evenodd" stroke="none"/>
      <path d="M38.7 29.7 L38.7 29.8 37.0 31.35 36.7 31.0 36.25 30.3 36.2 30.25 36.2 30.2 36.2 29.9 35.9 28.95 36.55 27.75 35.8 27.45 35.85 27.25 35.75 27.2 35.75 27.05 36.5 26.85 37.0 25.4 38.6 27.05 38.7 28.15 38.7 29.2 38.7 29.7" fill="#124a6b" fill-rule="evenodd" stroke="none"/>
      <path d="M33.7 26.3 L35.75 27.2 35.85 27.25 35.8 27.45 35.75 27.55 35.05 28.35 Q34.25 29.0 33.3 29.0 L33.05 29.0 32.55 28.9 32.25 28.75 33.2 27.55 33.35 27.4 33.7 26.3" fill="#0ff9f8" fill-rule="evenodd" stroke="none"/>
      <path d="M35.8 27.45 L36.55 27.75 35.9 28.95 35.65 29.35 33.1 30.1 33.05 29.0 33.3 29.0 Q34.25 29.0 35.05 28.35 L35.75 27.55 35.8 27.45" fill="#21d7e5" fill-rule="evenodd" stroke="none"/>
      <path d="M35.9 28.95 L36.2 29.9 36.2 30.2 36.2 30.25 36.25 30.3 35.95 30.45 34.55 31.0 33.35 31.25 33.15 31.25 33.0 31.25 31.25 31.0 31.2 30.9 Q30.75 30.8 30.45 30.5 L30.1 30.2 30.65 29.35 Q31.5 30.1 32.9 30.1 L33.1 30.1 35.65 29.35 35.9 28.95" fill="#226985" fill-rule="evenodd" stroke="none"/>
      <path d="M37.0 31.35 L36.9 31.4 36.55 31.65 35.8 32.15 35.8 32.1 34.55 32.1 34.75 32.65 34.1 32.75 34.05 32.25 33.75 32.35 33.65 32.35 33.4 32.45 32.9 32.6 32.0 32.75 31.95 32.7 31.6 32.85 31.5 32.85 31.35 31.8 30.9 31.65 30.85 31.55 29.7 30.85 30.1 30.2 30.45 30.5 Q30.75 30.8 31.2 30.9 L31.25 31.0 33.0 31.25 33.15 31.25 33.35 31.25 34.55 31.0 35.95 30.45 36.25 30.3 36.7 31.0 37.0 31.35" fill="#1e4a6d" fill-rule="evenodd" stroke="none"/>
      <path d="M39.85 27.75 L39.85 27.95 39.85 28.0 39.8 28.75 39.15 29.0 38.7 29.2 38.7 28.15 39.5 27.85 39.85 27.75" fill="#13163f" fill-rule="evenodd" stroke="none"/>
      <path d="M39.8 28.75 L39.75 29.55 38.8 29.7 38.7 29.7 38.7 29.2 39.15 29.0 39.8 28.75" fill="#211140" fill-rule="evenodd" stroke="none"/>
      <path d="M31.7 25.4 Q31.95 25.4 32.3 25.7 L32.6 26.35 32.5 26.85 32.4 26.95 31.7 27.25 31.35 27.05 Q31.1 26.75 31.1 26.2 31.1 25.75 31.25 25.6 L31.3 25.45 31.35 25.45 31.7 25.4" fill="#e3ffff" fill-rule="evenodd" stroke="none"/>
      <path d="M30.6 24.8 L30.55 25.25 30.45 25.65 30.65 27.05 31.3 28.1 30.9 28.7 30.55 29.25 30.35 29.0 29.4 27.75 29.35 27.15 29.25 26.75 29.2 25.05 29.25 24.0 30.6 24.8" fill="#13fcff" fill-rule="evenodd" stroke="none"/>
      <path d="M32.25 28.75 L32.55 28.9 33.05 29.0 33.1 30.1 32.9 30.1 Q31.5 30.1 30.65 29.35 L30.55 29.25 30.9 28.7 31.3 28.1 31.5 28.3 31.55 28.35 32.25 28.75" fill="#21f3f4" fill-rule="evenodd" stroke="none"/>
      <path d="M33.75 32.35 L34.05 32.25 34.1 32.75 34.15 33.2 34.25 33.45 34.3 33.65 34.3 33.9 34.1 34.7 34.05 34.85 33.9 35.8 33.3 36.55 34.0 34.3 33.75 32.35" fill="#3a4270" fill-rule="evenodd" stroke="none"/>
      <path d="M32.0 32.75 L32.9 32.6 33.4 32.45 33.65 32.35 33.75 32.35 34.0 34.3 33.3 36.55 32.9 37.0 33.15 34.7 32.4 33.35 32.0 32.75" fill="#180f3c" fill-rule="evenodd" stroke="none"/>
      <path d="M33.9 35.8 L34.15 35.35 35.25 33.95 34.9 33.0 35.65 32.45 36.7 33.95 36.4 35.45 35.85 37.2 34.9 38.25 34.6 38.65 32.1 41.0 31.95 40.9 31.8 40.7 31.25 40.2 30.4 39.3 30.3 39.15 30.3 39.0 30.4 36.8 30.25 36.85 29.7 36.95 28.85 37.15 30.7 35.4 30.75 35.35 32.4 33.35 33.15 34.7 32.9 37.0 33.3 36.55 33.9 35.8" fill="#18f0fd" fill-rule="evenodd" stroke="none"/>
      <path d="M26.3 30.9 L26.7 30.1 27.25 28.75 27.35 28.4 26.6 28.35 26.4 28.35 26.05 28.3 Q26.3 28.1 26.65 27.85 L27.1 27.5 27.95 26.9 28.3 28.4 Q28.75 29.8 29.4 30.5 L29.7 30.85 30.85 31.55 30.9 31.65 31.35 31.8 31.5 32.85 30.7 33.05 30.25 32.55 28.35 30.6 26.3 30.9" fill="#293a65" fill-rule="evenodd" stroke="none"/>
      <path d="M31.5 32.85 L31.6 32.85 31.95 32.7 32.0 32.75 32.4 33.35 30.75 35.35 30.7 35.4 28.85 37.15 28.75 37.15 28.35 34.3 28.3 33.6 28.45 33.55 28.8 33.45 29.65 33.25 30.25 32.55 30.7 33.05 31.5 32.85" fill="#1df3fe" fill-rule="evenodd" stroke="none"/>
      <path d="M36.55 31.65 L37.15 31.65 39.95 31.75 39.85 32.75 39.75 33.55 39.7 33.95 39.0 34.7 37.8 36.0 36.7 37.2 35.85 37.2 36.4 35.45 36.7 33.95 36.75 33.0 36.2 32.45 35.8 32.15 36.55 31.65" fill="#211c44" fill-rule="evenodd" stroke="none"/>
      <path d="M36.7 37.2 L37.8 36.0 39.0 34.7 39.7 33.95 39.7 34.5 38.7 35.7 38.3 36.3 36.7 37.2" fill="#575487" fill-rule="evenodd" stroke="none"/>
      <path d="M22.0 27.05 L22.4 27.25 22.4 27.85 22.4 28.4 22.4 29.9 22.45 30.5 22.5 30.85 22.65 31.15 22.85 32.0 22.75 32.0 22.7 32.05 22.45 32.1 22.35 31.65 22.1 30.7 22.0 30.4 22.0 29.95 22.0 29.8 22.0 27.65 22.0 27.05" fill="#353068" fill-rule="evenodd" stroke="none"/>
      <path d="M23.7 28.05 L24.35 28.4 23.85 29.6 23.95 29.9 23.6 29.85 23.35 29.85 22.4 29.9 22.4 28.4 22.4 27.85 23.3 28.05 23.7 28.05" fill="#2f2a60" fill-rule="evenodd" stroke="none"/>
      <path d="M22.85 32.0 L22.65 31.15 22.5 30.85 22.45 30.5 22.4 29.9 23.35 29.85 23.6 29.85 23.95 29.9 24.6 31.25 24.8 31.85 25.1 32.55 25.6 33.5 25.25 34.6 24.35 33.8 24.15 33.55 23.0 32.35 22.85 32.0" fill="#3d427a" fill-rule="evenodd" stroke="none"/>
      <path d="M22.4 27.25 L23.7 28.05 23.3 28.05 22.4 27.85 22.4 27.25" fill="#343c6d" fill-rule="evenodd" stroke="none"/>
      <path d="M22.45 32.1 L22.7 32.05 22.75 32.0 22.85 32.0 23.0 32.35 23.15 33.05 22.55 33.9 22.55 33.95 22.5 33.9 22.3 33.5 22.45 33.15 22.65 32.85 22.45 32.1" fill="#685e90" fill-rule="evenodd" stroke="none"/>
      <path d="M23.0 32.35 L24.15 33.55 24.35 33.8 25.25 34.6 24.75 36.05 24.35 37.0 24.15 37.65 23.9 37.65 23.85 37.75 22.1 38.05 21.7 37.75 21.55 36.9 21.4 35.65 21.4 35.5 22.55 33.95 22.55 33.9 23.15 33.05 23.0 32.35" fill="#292759" fill-rule="evenodd" stroke="none"/>
      <path d="M22.55 33.95 L21.4 35.5 21.4 35.65 21.55 36.9 21.7 37.75 22.1 38.05 22.65 38.35 22.85 38.45 23.05 39.3 23.25 39.9 23.4 40.5 23.25 40.5 22.35 38.65 21.45 38.45 21.4 38.15 21.15 37.2 20.95 36.6 20.85 35.9 21.75 34.45 22.3 33.5 22.5 33.9 22.55 33.95" fill="#454375" fill-rule="evenodd" stroke="none"/>
      <path d="M25.6 33.5 L25.7 33.6 27.8 32.6 27.0 33.9 26.1 35.35 25.35 36.85 25.05 37.3 24.9 37.5 24.8 37.75 24.95 38.45 24.95 38.5 25.15 39.1 25.2 39.4 25.4 39.9 25.8 41.25 25.85 41.3 25.9 41.45 25.85 41.45 25.8 41.3 25.35 40.85 25.15 40.3 25.05 40.0 24.15 40.1 24.05 40.1 23.55 40.0 23.25 39.9 23.05 39.3 22.85 38.45 22.65 38.35 22.1 38.05 23.85 37.75 23.9 37.65 24.15 37.65 24.35 37.0 24.75 36.05 25.25 34.6 25.6 33.5" fill="#18184e" fill-rule="evenodd" stroke="none"/>
      <path d="M28.3 33.6 L28.35 34.3 28.75 37.15 28.75 37.25 28.15 38.5 27.25 38.2 26.9 38.1 26.65 37.95 25.2 37.45 25.2 37.25 25.4 37.05 28.2 32.75 28.3 33.6" fill="#353571" fill-rule="evenodd" stroke="none"/>
      <path d="M27.8 32.6 L28.2 32.4 28.2 32.75 25.4 37.05 25.35 36.85 26.1 35.35 27.0 33.9 27.8 32.6 M25.35 38.4 L25.5 39.65 25.6 40.3 25.8 41.25 25.4 39.9 25.2 39.4 25.15 39.1 24.95 38.5 24.95 38.45 25.35 38.4" fill="#5e5e94" fill-rule="evenodd" stroke="none"/>
      <path d="M25.35 36.85 L25.4 37.05 25.2 37.25 25.2 37.45 25.35 38.4 24.95 38.45 24.8 37.75 24.9 37.5 25.05 37.3 25.35 36.85" fill="#7571ac" fill-rule="evenodd" stroke="none"/>
      <path d="M29.7 36.95 L30.25 36.85 29.4 38.55 29.05 39.35 28.8 39.1 28.65 39.0 28.8 38.75 29.1 38.1 29.7 36.95" fill="#404877" fill-rule="evenodd" stroke="none"/>
      <path d="M28.65 40.55 L28.55 40.3 28.3 39.6 28.65 39.0 28.8 39.1 29.05 39.35 28.9 39.65 29.1 40.35 28.85 40.4 28.65 40.55" fill="#7379ab" fill-rule="evenodd" stroke="none"/>
      <path d="M30.25 36.85 L30.4 36.8 30.3 39.0 30.3 39.15 30.4 39.3 30.1 39.7 30.3 40.25 30.85 41.55 30.95 41.9 31.0 42.05 31.35 43.0 31.6 42.75 31.4 43.55 31.3 44.2 31.2 44.8 31.0 44.65 30.35 43.4 29.75 42.05 29.2 40.7 29.1 40.35 28.9 39.65 29.05 39.35 29.4 38.55 30.25 36.85" fill="#2b2d66" fill-rule="evenodd" stroke="none"/>
      <path d="M28.15 38.5 L27.85 39.05 27.8 39.15 27.1 39.9 26.65 40.35 26.65 40.4 25.85 41.3 25.8 41.25 25.6 40.3 25.5 39.65 25.35 38.4 25.2 37.45 26.65 37.95 26.9 38.1 27.25 38.2 28.15 38.5" fill="#36376f" fill-rule="evenodd" stroke="none"/>
      <path d="M27.8 39.15 L27.8 39.25 27.8 39.45 28.1 41.1 28.45 43.35 27.25 42.6 25.9 41.45 25.85 41.3 26.65 40.4 26.65 40.35 27.1 39.9 27.8 39.15" fill="#22215a" fill-rule="evenodd" stroke="none"/>
      <path d="M28.65 40.55 L28.85 40.4 29.1 40.35 29.2 40.7 29.75 42.05 30.35 43.4 31.0 44.65 30.3 44.15 29.2 41.75 29.15 41.6 28.65 40.55" fill="#413b79" fill-rule="evenodd" stroke="none"/>
      <path d="M23.4 40.5 L23.25 39.9 23.55 40.0 24.05 40.1 24.15 40.1 25.05 40.0 25.15 40.3 23.65 40.5 23.4 40.5" fill="#3a356b" fill-rule="evenodd" stroke="none"/>
      <path d="M38.7 37.2 L38.65 38.5 40.1 39.25 40.45 39.4 39.9 41.1 39.85 41.25 39.7 41.75 38.9 40.8 38.8 40.65 37.9 39.7 37.7 39.55 37.65 39.45 37.5 39.35 37.4 39.3 36.9 38.85 36.75 38.75 36.8 39.8 36.75 42.3 36.75 42.45 36.1 42.6 35.45 42.65 35.3 42.65 35.05 42.6 34.6 41.6 34.05 40.55 33.75 40.6 Q33.4 40.65 33.0 40.85 L32.5 40.95 32.1 41.0 34.6 38.65 34.9 38.25 35.85 37.2 36.7 37.2 37.65 37.25 38.6 37.2 38.7 37.2" fill="#15e6ed" fill-rule="evenodd" stroke="none"/>
      <path d="M37.4 39.3 L37.65 39.45 37.7 39.55 37.9 39.7 38.8 40.65 38.9 40.8 39.7 41.75 39.9 42.1 39.95 42.3 39.95 42.4 40.05 42.6 38.5 44.65 38.5 44.35 38.4 43.9 38.4 43.05 38.4 41.8 38.4 41.7 38.1 40.95 37.8 40.3 37.4 39.3" fill="#333162" fill-rule="evenodd" stroke="none"/>
      <path d="M37.7 41.3 L37.7 41.25 37.35 40.05 36.9 38.85 37.4 39.3 37.8 40.3 38.1 40.95 37.7 41.3" fill="#606390" fill-rule="evenodd" stroke="none"/>
      <path d="M37.9 43.85 L37.9 43.35 37.9 43.0 37.9 42.6 37.7 41.3 38.1 40.95 38.4 41.7 38.4 41.8 38.4 43.05 38.4 43.9 38.5 44.35 38.3 44.25 38.2 44.25 37.9 44.05 37.9 43.85" fill="#3d3872" fill-rule="evenodd" stroke="none"/>
      <path d="M38.5 44.65 L40.05 42.6 40.15 43.3 40.45 44.85 40.05 46.95 39.95 47.2 39.7 46.7 38.8 45.2 38.5 44.65" fill="#343261" fill-rule="evenodd" stroke="none"/>
      <path d="M31.2 44.8 L31.3 44.2 31.4 43.55 31.6 42.75 31.8 42.6 32.3 41.8 32.8 41.0 33.0 40.85 Q33.4 40.65 33.75 40.6 L34.0 43.05 34.1 43.95 34.1 44.0 33.7 44.45 33.7 45.4 33.7 45.45 33.3 45.9 32.4 45.45 31.35 44.9 31.2 44.8" fill="#242150" fill-rule="evenodd" stroke="none"/>
      <path d="M35.3 42.65 L35.55 43.75 35.65 44.6 35.85 44.6 35.85 44.65 35.75 45.55 35.6 46.75 35.15 46.35 34.35 44.05 34.3 43.85 34.15 43.95 34.1 44.0 34.1 43.95 34.0 43.05 33.75 40.6 34.05 40.55 34.6 41.6 35.05 42.6 35.3 42.65" fill="#211e49" fill-rule="evenodd" stroke="none"/>
      <path d="M38.5 44.35 L38.5 44.65 38.8 45.2 38.25 45.55 38.25 45.5 38.05 45.25 37.95 45.05 37.9 44.65 37.9 44.05 38.2 44.25 38.3 44.25 38.5 44.35" fill="#7c77b1" fill-rule="evenodd" stroke="none"/>
      <path d="M35.85 44.6 L36.15 44.55 37.35 44.2 37.8 44.0 37.8 43.95 37.9 43.85 37.9 44.05 37.9 44.65 37.95 45.05 38.05 45.25 38.25 45.5 38.25 45.55 38.55 46.05 39.8 48.15 40.2 48.8 40.45 49.2 40.75 49.75 41.05 50.25 41.55 51.7 41.45 51.65 40.05 50.45 39.5 50.0 35.6 46.75 35.75 45.55 35.85 44.65 35.85 44.6" fill="#251f4b" fill-rule="evenodd" stroke="none"/>
      <path d="M41.15 49.5 L41.6 51.2 41.75 51.7 41.75 51.8 41.8 51.95 41.6 51.8 41.55 51.7 41.05 50.25 40.75 49.75 40.85 49.7 40.95 49.65 41.15 49.5 M38.25 45.55 L38.8 45.2 39.7 46.7 39.95 47.2 40.25 47.7 40.55 48.15 40.2 48.8 39.8 48.15 38.55 46.05 38.25 45.55" fill="#3e376a" fill-rule="evenodd" stroke="none"/>
      <path d="M48.8 49.5 L48.7 50.35 48.7 50.7 46.45 52.45 46.65 49.95 46.75 49.55 47.55 49.65 48.8 49.5" fill="#251d50" fill-rule="evenodd" stroke="none"/>
      <path d="M42.85 52.85 L43.0 51.65 43.25 49.35 44.2 50.1 45.4 49.75 46.0 49.55 46.2 49.5 46.25 49.85 46.25 50.05 46.25 50.1 46.0 52.8 45.4 53.2 45.0 52.45 44.35 51.15 43.7 50.05 43.5 51.5 43.25 53.15 42.85 52.85" fill="#241e4e" fill-rule="evenodd" stroke="none"/>
      <path d="M-0.15 2.7 L-0.15 2.35 -0.1 2.5 -0.15 2.7" fill="#64bebe" fill-rule="evenodd" stroke="none"/>
      <path d="M15.3 -0.35 L15.25 -0.45 M27.45 -0.45 L27.6 0.0 27.7 0.4 29.15 4.15 29.85 5.8 M21.7 -0.45 L21.4 1.55 21.4 1.7 Q21.1 3.4 20.4 5.25 L21.1 6.4 21.4 6.95 21.55 7.3 21.8 7.8 M18.85 6.6 L16.95 2.95 16.0 1.15 15.3 -0.35 M19.0 6.8 L18.85 6.6" fill="none" stroke="#002242" stroke-linecap="round" stroke-linejoin="round" stroke-width="0.1"/>
      <path d="M4.05 -0.1 L4.05 -0.2 4.1 -0.45 M4.05 -0.1 L3.55 2.2 3.4 3.25 3.4 3.45 Q2.95 6.4 2.9 9.2 L2.9 9.35 5.95 12.1 7.95 13.4 10.25 14.65 12.15 15.55 13.35 16.1 14.4 16.45 14.55 16.5 M35.0 12.1 L32.4 9.95 32.45 10.6 32.5 13.2 32.5 14.15 32.5 14.7 M35.0 12.1 L35.3 12.4 35.0 13.5 34.95 13.65 34.6 14.85 34.1 15.95 34.0 16.2 M27.0 8.2 L27.35 7.8 27.5 7.65 27.6 8.1 28.0 9.15 28.15 9.45 28.35 10.3 28.5 10.3 28.95 10.45 29.25 10.55 29.65 10.7 29.8 11.2 30.1 12.0 30.15 12.15 30.4 12.85 30.9 14.35 31.35 15.6 M23.85 6.7 L24.35 6.4 24.65 6.95 25.8 9.35 M26.05 9.35 L26.7 8.5 27.0 8.2 M21.8 7.8 L22.3 7.85 23.55 6.95 23.85 6.7 M22.15 9.65 L22.45 10.3 M21.8 7.8 L21.2 7.65 21.25 7.7 21.45 8.1 22.15 9.65 M25.4 10.25 Q25.55 9.85 25.85 9.5 L26.05 9.35 M20.4 7.4 L20.7 6.95 20.8 6.8 20.85 6.95 21.15 7.55 21.2 7.65 M28.45 10.6 L28.35 10.3 M28.8 11.95 L28.75 11.55 28.75 11.5 28.65 11.35 28.45 10.6 M19.4 7.0 L19.0 6.8 M19.4 7.0 L19.55 7.05 20.0 7.25 20.2 7.35 20.4 7.4 19.7 8.65 19.35 9.35 19.15 9.7 19.1 9.75 18.85 9.85" fill="none" stroke="#001043" stroke-linecap="round" stroke-linejoin="round" stroke-width="0.1"/>
      <path d="M33.9 9.25 L34.0 8.95 34.05 8.85 34.65 7.6 36.45 10.1 37.1 11.1 37.4 11.65 37.7 12.1 37.7 12.0 37.8 11.9 37.9 11.8 38.4 11.0 38.6 10.75 38.9 10.3 38.95 10.25 39.75 9.25 39.75 10.95 39.7 15.15 39.7 16.05 42.2 14.85 42.3 14.75 41.95 16.1 41.9 16.2 40.95 19.1 40.8 19.3 40.65 19.7 41.9 19.8 42.15 19.8 41.15 21.55 40.55 22.6 40.35 23.1 40.45 23.2 Q40.95 23.45 41.45 23.85 L43.6 25.4 44.05 26.85 44.05 26.9 44.6 28.35 44.8 28.45 45.85 29.25 47.85 30.45 48.4 30.75 48.9 30.4 50.55 29.05 51.85 32.25 53.45 36.95 53.85 38.35 53.8 38.55 52.9 41.25 52.3 42.65 51.65 41.2 50.25 39.1 50.15 39.1 48.75 39.15 48.45 39.25 48.15 39.45 46.9 40.9 46.85 40.9 46.8 40.95 46.55 39.6 46.45 39.15 45.3 38.15 43.5 36.85 43.55 36.7 44.2 35.95 43.9 35.65 43.4 35.1 43.25 35.0 40.95 35.3 40.2 37.0 39.1 37.15 38.7 37.2 38.6 37.2 37.65 37.25 36.7 37.2 35.85 37.2 36.4 35.45 36.7 33.95 36.75 33.0 36.2 32.45 35.8 32.15 35.8 32.1 34.55 32.1 34.75 32.65 34.9 33.0 35.25 33.95 34.15 35.35 33.9 35.8 33.3 36.55 32.9 37.0 33.15 34.7 32.4 33.35 32.0 32.75 31.95 32.7 31.6 32.85 31.5 32.85 30.7 33.05 30.25 32.55 28.35 30.6 26.3 30.9 26.2 31.0 25.45 31.05 24.85 29.3 M45.4 42.45 L45.45 42.1 45.55 41.6 45.6 40.05 46.3 41.25 46.55 41.7 46.65 41.9 46.8 42.15 47.05 42.65 47.45 43.55 47.55 43.45 47.8 43.35 48.9 42.65 49.7 45.75 49.05 46.65 49.6 47.95 50.15 49.2 49.6 49.8 49.2 50.3 48.65 51.0 47.2 53.05 46.65 53.95 M38.6 53.95 L35.35 50.05 34.0 48.2 30.9 46.35 30.75 46.3 Q27.05 44.0 24.65 42.65 L21.85 41.0 21.0 41.55 20.0 42.35 Q18.95 40.8 18.25 39.0 L17.2 35.6 17.2 35.45 17.95 35.0 19.8 33.75 21.15 30.3 21.2 30.2 21.25 30.1 20.5 28.3 20.1 27.5 20.85 26.5 20.85 26.45 22.0 27.05 22.4 27.25 23.7 28.05 24.35 28.4 24.6 28.6 24.8 29.2 M45.3 43.1 L45.4 42.5 45.4 42.45 M41.95 44.75 L42.25 44.5 42.85 44.15 43.4 44.75 43.5 44.9 43.55 45.1 43.6 45.15 44.3 44.45 44.35 44.45 M44.75 44.0 L44.8 43.95 45.2 43.55 45.3 43.1 M41.95 44.75 L41.9 44.8 40.7 45.7 40.7 45.6 40.45 44.85 40.15 43.3 40.05 42.6 39.95 42.4 39.95 42.3 39.9 42.1 39.7 41.75 38.9 40.8 38.8 40.65 37.9 39.7 37.7 39.55 37.65 39.45 37.4 39.3 36.9 38.85 36.75 38.75 36.8 39.8 36.75 42.3 36.75 42.45 36.1 42.6 35.45 42.65 35.3 42.65 35.05 42.6 34.6 41.6 34.05 40.55 33.75 40.6 Q33.4 40.65 33.0 40.85 L32.5 40.95 32.1 41.0 31.95 40.9 31.8 40.7 31.25 40.2 30.4 39.3 30.3 39.15 30.3 39.0 30.4 36.8 30.25 36.85 29.7 36.95 28.85 37.15 28.75 37.15 28.35 34.3 28.3 33.6 28.2 32.75 28.2 32.4 27.8 32.6 25.7 33.6 25.6 33.5 25.1 32.55 24.8 31.85 24.6 31.25 23.95 29.9 23.85 29.6 24.35 28.4 M37.0 13.05 L37.7 12.1 M17.6 15.75 L18.5 15.55 M22.75 18.0 L21.3 16.1 20.6 15.25 20.35 14.95 20.25 14.85 20.8 14.9 21.0 14.9 22.65 14.9 23.45 14.9 24.85 14.95 25.85 14.95 27.85 15.0 27.9 15.25 28.2 16.1 28.45 16.8 28.5 17.1 28.6 17.4 28.95 18.55 29.05 18.65 29.5 18.55 29.55 18.55 30.1 18.4 30.55 18.3 30.35 17.15 30.25 16.65 30.75 16.1 31.35 15.6 32.5 14.7 33.6 14.0 33.65 14.0 33.95 13.75 34.05 13.7 34.05 13.8 34.05 13.95 34.05 14.4 34.0 15.25 34.0 15.9 34.1 15.95 34.65 16.1 35.05 16.25 35.15 16.1 35.2 15.95 35.25 15.85 36.5 13.8 37.0 13.05 M23.05 18.5 L22.85 18.2 22.75 18.0 M23.6 19.25 L23.3 18.8 23.1 18.55 23.05 18.5 M23.6 19.25 L23.65 19.3 24.15 20.05 24.8 21.0 26.3 20.7 27.5 20.5 28.0 20.4 M23.65 19.3 L22.0 20.1 21.7 20.2 21.1 20.5 21.1 20.8 21.1 20.95 21.15 21.7 21.15 22.05 19.65 23.25 19.55 23.3 19.15 23.7 19.15 24.35 19.15 25.4 20.5 26.2 20.8 26.45 20.85 26.45 M21.1 20.5 L21.1 20.45 19.9 19.9 19.6 19.8 Q18.5 19.3 16.2 18.55 L14.25 17.95 13.35 17.65 12.05 17.35 11.8 17.3 11.65 17.2 12.05 17.15 12.85 16.9 13.35 16.8 14.4 16.55 14.55 16.5 15.8 16.2 16.2 16.1 17.6 15.75 M34.0 15.9 L34.0 16.1 34.0 16.2 34.1 17.95 34.1 18.55 34.15 18.8 34.3 20.1 34.25 20.1 33.9 20.65 33.6 20.75 M0.95 27.7 L0.95 27.75 0.95 28.7 0.95 28.95 0.95 29.3 0.95 29.35 0.95 29.6 1.0 29.7 1.15 31.15 0.1 31.75 -0.15 31.85" fill="none" stroke="#0b0438" stroke-linecap="round" stroke-linejoin="round" stroke-width="0.1"/>
      <path d="M46.55 33.65 L46.6 33.55 47.15 32.75 47.45 32.3 47.8 32.75 48.75 34.25 49.25 35.15 49.55 35.75 49.35 36.8 49.1 37.95 48.5 37.6 47.2 36.5 47.15 36.5 45.75 35.1 46.0 34.7 46.55 33.65" fill="none" stroke="#001b53" stroke-linecap="round" stroke-linejoin="round" stroke-width="0.1"/>
      <path d="M38.7 37.2 L38.65 38.5 40.1 39.25 40.45 39.4 41.05 39.7 42.15 37.65 42.8 38.55 43.6 39.7 45.4 42.45 M30.25 32.55 L29.65 33.25 28.8 33.45 28.45 33.55 28.3 33.6 M34.9 33.0 L35.65 32.45 36.7 33.95" fill="none" stroke="#0066ad" stroke-linecap="round" stroke-linejoin="round" stroke-width="0.1"/>
      <path d="M29.85 5.8 L30.1 6.0 31.2 7.05 31.3 7.1 32.7 8.3 33.1 8.6 33.9 9.25 34.75 9.85 37.4 11.65 37.8 11.9" fill="none" stroke="#0d4961" stroke-linecap="round" stroke-linejoin="round" stroke-width="0.1"/>
      <path d="M11.35 32.1 L11.65 32.4 10.9 33.75 10.45 34.5 10.4 34.5 9.7 34.55 Q8.3 34.6 7.25 34.05 L6.05 33.05 5.95 32.3 5.75 30.2 5.75 29.8 5.95 27.95 6.0 27.7 6.6 26.25 7.15 23.8 7.2 25.35 Q7.85 26.15 9.35 26.75 L9.5 26.8 9.6 26.85 10.55 27.2 10.45 26.8 Q10.2 25.9 10.2 24.45 L10.25 24.3 10.25 24.2 12.25 21.9 12.45 21.55 12.95 20.75 13.35 19.95 13.65 19.8 13.8 19.75 13.65 19.45 13.35 18.1 12.9 18.3 12.15 18.55 12.15 18.4 12.1 18.4 12.1 18.35 12.1 18.2 12.05 17.35 M20.4 21.25 L21.1 20.95 M19.6 19.8 L19.6 20.15 19.65 21.05 19.7 21.3 19.75 21.4 20.4 21.25 M5.95 12.1 L5.75 14.1 Q5.75 15.75 6.15 16.55 L6.55 17.5 7.35 18.1 7.35 18.35 7.2 20.35 7.35 20.45 7.55 20.55 7.8 20.65 8.15 20.7 9.05 20.2 9.9 19.4 10.85 19.75 11.4 19.95 12.4 20.45 13.35 19.95 M12.05 17.15 L12.15 15.55 M7.55 20.55 L7.5 21.35 7.8 20.65 M7.5 21.35 L7.25 21.85 7.05 22.35 7.15 23.8 M13.35 16.8 L13.35 16.1 M13.35 18.1 L13.35 18.0 13.35 17.65 M19.65 23.25 L18.4 22.65 17.45 22.25 16.55 22.7 Q15.65 23.2 15.5 23.6 L14.85 23.4 14.75 23.25 14.85 21.3 14.85 21.05 14.75 20.95 14.15 20.45 13.8 19.75 M11.75 24.65 L11.05 26.65 10.3 28.35 10.25 28.8 Q10.25 30.0 10.75 31.1 L11.35 32.1 M11.75 24.65 L11.85 24.05 12.25 21.9" fill="none" stroke="#008296" stroke-linecap="round" stroke-linejoin="round" stroke-width="0.1"/>
      <path d="M30.6 24.8 L30.7 24.5 30.9 24.7 31.8 25.25 33.35 26.15 33.7 26.3 35.75 27.2 35.85 27.25 35.8 27.45 35.75 27.55 35.05 28.35 Q34.25 29.0 33.3 29.0 L33.05 29.0 32.55 28.9 32.25 28.75 31.55 28.35 31.5 28.3 31.3 28.1 30.65 27.05 30.45 25.65 30.55 25.25 30.6 24.8" fill="none" stroke="#004677" stroke-linecap="round" stroke-linejoin="round" stroke-width="0.1"/>
      <path d="M2.05 13.9 L2.3 13.8 2.35 14.0 2.9 16.65 2.9 16.7 2.3 18.0 2.5 18.25 3.2 19.45 4.5 21.1 4.45 21.65 4.4 22.0 4.4 22.2 4.4 22.3 4.3 23.55 Q3.4 24.2 2.15 25.95 L1.0 27.55 0.95 27.7 M-0.15 12.15 L-0.1 13.65 0.4 14.65 Q0.95 14.25 2.05 13.9" fill="none" stroke="#003260" stroke-linecap="round" stroke-linejoin="round" stroke-width="0.1"/>
      <path d="M18.5 15.55 L19.05 15.85 19.55 16.1 19.95 16.4 20.1 16.5 22.75 18.0" fill="none" stroke="#184772" stroke-linecap="round" stroke-linejoin="round" stroke-width="0.1"/>
      <path d="M4.35 30.8 L4.7 31.75 4.95 33.0 4.95 34.1 Q4.95 35.2 4.45 36.25 L3.9 37.05 3.2 37.9 3.0 37.9 1.25 37.95 -0.15 37.9 M3.4 3.45 Q1.25 5.3 -0.15 7.5 M1.0 27.55 L3.75 30.2 4.2 30.55 4.35 30.8" fill="none" stroke="#006696" stroke-linecap="round" stroke-linejoin="round" stroke-width="0.1"/>
      <path d="M-0.1 2.5 L-0.15 2.35" fill="none" stroke="#00325d" stroke-linecap="round" stroke-linejoin="round" stroke-width="0.1"/>
    </g>
    <g id="shape2" transform="matrix(1.0, 0.0, 0.0, 1.0, 0.0, 0.0)">
      <path d="M50.5 0.0 Q53.95 0.0 53.95 3.3 L53.95 50.15 Q53.95 53.4 50.5 53.4 L3.3 53.4 Q0.0 53.4 0.0 50.15 L0.0 3.3 Q0.0 0.0 3.3 0.0 L50.5 0.0" fill="#000000" fill-opacity="0.003921569" fill-rule="evenodd" stroke="none"/>
    </g>
  </defs>
</svg>
