<?xml version="1.0" encoding="UTF-8" standalone="no"?>
<svg xmlns:ffdec="https://www.free-decompiler.com/flash" xmlns:xlink="http://www.w3.org/1999/xlink" ffdec:objectType="frame" height="55.45px" width="56.35px" xmlns="http://www.w3.org/2000/svg">
  <g transform="matrix(1.0, 0.0, 0.0, 1.0, 1.45, 0.5)">
    <clipPath id="clipPath0" transform="matrix(1.0, 0.0, 0.0, 1.0, 0.0, 0.0)">
      <path d="M50.5 0.0 Q53.95 0.0 53.95 3.3 L53.95 50.15 Q53.95 53.4 50.5 53.4 L3.3 53.4 Q0.0 53.4 0.0 50.15 L0.0 3.3 Q0.0 0.0 3.3 0.0 L50.5 0.0" fill="#000000" fill-rule="evenodd" stroke="none"/>
    </clipPath>
    <g clip-path="url(#clipPath0)">
      <use ffdec:characterId="2" height="55.45" transform="matrix(1.0, 0.0, 0.0, 1.0, -1.45, -0.5)" width="56.35" xlink:href="#shape1"/>
    </g>
    <use ffdec:characterId="3" height="53.4" transform="matrix(1.0, 0.0, 0.0, 1.0, 0.0, 0.0)" width="53.95" xlink:href="#shape2"/>
  </g>
  <defs>
    <g id="shape1" transform="matrix(1.0, 0.0, 0.0, 1.0, 1.45, 0.5)">
      <path d="M31.3 24.4 L32.7 23.75 35.15 25.15 35.15 25.25 34.7 26.25 Q33.55 25.45 32.85 25.25 32.3 25.5 31.5 25.9 L31.35 26.0 31.2 25.15 31.3 24.4 M39.1 28.1 L39.85 28.8 40.2 28.6 Q40.8 29.15 40.85 29.85 L40.85 29.95 40.85 30.0 40.1 30.3 39.8 30.5 38.0 28.85 Q38.15 28.5 38.45 28.3 L38.55 28.25 38.65 28.15 39.1 28.1 M41.95 30.4 Q42.1 30.15 42.4 30.1 L42.5 31.15 42.5 31.25 41.95 30.4 M18.2 36.6 L19.5 36.25 19.6 36.2 19.6 36.25 19.65 36.65 18.95 36.75 18.2 36.6 M20.0 44.3 Q20.05 43.55 20.45 43.1 L22.95 44.9 22.95 45.45 22.85 46.35 20.0 44.3" fill="#b85b21" fill-rule="evenodd" stroke="none"/>
      <path d="M23.3 22.55 Q24.65 22.8 26.85 23.85 L29.6 25.25 30.45 24.8 31.3 24.4 31.2 25.15 31.35 26.0 31.15 26.1 29.9 26.85 28.6 26.0 27.4 25.25 26.4 24.7 24.15 23.8 Q24.1 24.45 24.4 26.45 L24.95 26.35 25.65 26.25 26.35 26.4 Q27.45 26.65 28.75 27.75 L29.6 28.6 30.75 30.05 31.95 32.5 32.35 34.1 Q33.4 35.15 34.85 35.3 L35.15 35.3 36.4 35.0 36.6 34.9 37.25 34.3 37.35 36.5 37.3 37.55 37.4 37.6 38.05 37.75 38.35 37.05 38.45 36.7 39.05 35.4 39.4 35.75 40.0 36.05 40.25 36.0 40.25 35.9 40.7 34.95 41.6 32.95 41.85 32.5 42.55 31.65 42.7 32.5 42.2 33.05 41.75 34.05 Q41.2 35.4 41.15 36.15 L40.55 36.6 40.1 36.75 39.9 36.7 39.5 36.5 39.25 36.25 39.05 37.3 39.1 37.55 39.15 37.55 40.55 37.45 41.1 37.35 41.55 36.75 41.6 36.65 41.6 36.7 41.85 37.8 42.1 39.5 42.1 39.65 41.9 39.55 38.4 38.7 32.75 38.2 32.5 38.2 32.7 39.05 Q33.05 39.85 34.15 40.8 35.3 41.85 36.35 42.3 L37.4 42.65 37.6 42.75 38.1 42.6 Q39.45 42.25 40.7 41.25 L41.55 40.55 42.1 39.75 42.15 39.7 42.15 39.8 42.2 39.85 42.2 40.05 42.45 40.2 42.75 40.45 41.4 42.0 40.85 42.55 Q40.65 42.65 40.5 42.8 L39.5 43.1 41.2 44.1 42.35 45.1 42.65 43.9 42.8 43.2 43.25 42.4 43.65 41.1 44.05 41.4 43.8 42.45 43.8 42.5 43.55 43.2 42.25 47.35 42.15 47.55 42.15 47.45 42.1 46.95 Q41.95 45.6 41.1 44.55 40.3 43.6 39.05 43.2 L38.9 43.15 38.1 42.95 38.1 42.6 38.1 42.95 36.45 42.8 35.2 42.85 35.15 42.85 Q32.35 43.15 29.25 44.55 L27.2 45.65 Q26.6 46.0 26.3 46.35 L26.2 46.45 25.9 46.8 25.8 47.95 25.8 48.2 25.8 48.3 25.4 48.05 22.85 46.35 22.95 45.45 22.95 44.9 24.75 45.85 25.7 46.25 26.1 46.1 26.4 46.0 26.9 45.6 Q28.45 44.45 30.9 43.5 32.6 42.8 34.25 42.4 L33.2 41.6 32.95 41.35 31.35 39.0 31.1 39.0 30.25 39.1 30.2 39.1 28.9 39.0 26.85 39.25 26.0 39.8 24.3 40.65 23.65 40.95 20.85 41.9 20.65 41.95 20.35 41.85 19.65 41.6 19.65 42.25 20.45 43.1 Q20.05 43.55 20.0 44.3 L19.6 44.0 19.1 43.65 18.65 43.3 18.65 42.9 18.7 40.25 18.85 37.5 18.75 37.55 16.2 38.1 15.7 38.25 15.6 37.25 15.5 36.1 15.7 35.85 17.3 33.95 19.0 32.15 18.55 31.1 18.05 29.35 Q18.85 28.65 19.95 27.8 22.05 26.2 23.05 25.75 L23.05 25.7 22.9 23.25 22.95 22.45 23.3 22.55 M35.15 25.15 L35.55 25.4 39.1 28.1 38.65 28.15 38.55 28.25 38.45 28.3 Q38.15 28.5 38.0 28.85 L37.05 28.05 35.95 27.15 34.7 26.25 35.15 25.25 35.15 25.15 M40.2 28.6 L40.6 28.3 42.0 27.45 42.15 28.05 42.35 29.6 40.85 30.0 40.85 29.95 40.85 29.85 Q40.8 29.15 40.2 28.6 M42.9 32.15 L42.9 32.4 42.9 32.15 M19.65 36.65 L19.65 39.0 19.65 40.1 21.25 37.1 21.2 37.0 20.9 36.2 20.85 36.1 20.2 34.1 19.5 33.95 18.9 34.05 18.3 34.8 17.05 36.3 17.25 36.75 18.2 36.6 18.95 36.75 19.65 36.65 M33.45 35.85 L32.5 35.15 31.65 33.9 31.1 32.8 30.2 30.9 Q28.25 27.25 25.35 27.25 23.7 27.25 22.6 28.2 L22.05 28.7 Q20.8 30.1 20.8 32.5 L20.95 33.65 21.65 35.55 22.15 36.35 Q21.25 39.55 20.2 41.15 L22.7 40.4 Q24.65 39.7 26.5 38.4 L26.55 38.4 28.9 37.95 29.85 37.45 30.05 37.3 31.0 36.4 32.95 36.7 33.15 36.7 33.3 36.75 35.0 37.0 36.6 37.1 36.65 36.2 36.65 35.55 35.85 36.0 34.85 36.25 34.05 36.1 33.45 35.85" fill="#bd7b2b" fill-rule="evenodd" stroke="none"/>
      <path d="M43.65 41.1 L43.25 42.4 42.8 43.2 42.65 43.9 42.35 45.1 41.2 44.1 39.5 43.1 40.5 42.8 Q40.65 42.65 40.85 42.55 L41.4 42.0 42.75 40.45 43.45 40.95 43.65 41.1 M18.2 36.6 L17.25 36.75 17.05 36.3 18.3 34.8 18.9 34.05 19.5 33.95 20.2 34.1 20.85 36.1 20.9 36.2 21.2 37.0 21.25 37.1 19.65 40.1 19.65 39.0 19.65 36.65 20.0 36.4 20.2 36.2 20.35 35.75 Q20.35 35.3 19.85 35.0 L19.2 34.8 19.15 34.8 Q18.95 34.8 18.7 34.95 18.4 35.05 18.35 35.15 L18.3 35.15 Q17.85 35.55 17.85 35.9 L17.95 36.3 18.2 36.6 M20.45 43.1 L19.65 42.25 19.65 41.6 20.35 41.85 20.65 41.95 20.85 41.9 23.65 40.95 24.3 40.65 26.0 39.8 26.85 39.25 28.9 39.0 30.2 39.1 30.25 39.1 31.1 39.0 31.35 39.0 32.95 41.35 33.2 41.6 34.25 42.4 Q32.6 42.8 30.9 43.5 28.45 44.45 26.9 45.6 L26.4 46.0 26.1 46.1 25.7 46.25 24.75 45.85 22.95 44.9 22.6 43.55 Q22.15 42.6 21.4 42.6 20.8 42.6 20.45 43.05 L20.45 43.1 M25.75 43.05 L25.1 43.25 25.05 43.25 25.0 43.3 24.8 43.55 Q24.65 43.75 24.65 44.05 24.65 44.85 25.5 44.9 L25.65 44.9 Q26.2 44.9 26.55 44.55 L26.75 44.05 26.3 43.3 25.8 43.05 25.75 43.05 M27.65 42.0 L28.1 41.85 28.2 41.6 28.0 41.3 27.75 41.3 27.65 41.3 27.35 41.4 27.25 41.65 27.3 41.8 Q27.35 42.0 27.65 42.0 M30.1 41.4 L30.2 41.7 30.65 41.95 Q31.2 41.95 31.3 41.6 L31.35 41.45 Q31.35 41.15 30.95 41.0 L30.65 40.95 30.55 40.9 30.35 40.95 30.25 41.05 Q30.1 41.25 30.1 41.4 M24.1 41.4 L24.05 41.4 23.95 41.5 23.9 41.5 23.7 41.75 23.65 42.05 Q23.65 42.9 24.25 42.9 L24.5 42.85 24.6 42.75 24.7 42.4 24.45 41.7 24.1 41.4" fill="#e9bc49" fill-rule="evenodd" stroke="none"/>
      <path d="M25.75 43.05 L25.8 43.05 26.3 43.3 26.75 44.05 26.55 44.55 Q26.2 44.9 25.65 44.9 L25.5 44.9 Q24.65 44.85 24.65 44.05 24.65 43.75 24.8 43.55 L25.0 43.3 25.05 43.25 25.1 43.25 25.75 43.05 M20.45 43.1 L20.45 43.05 Q20.8 42.6 21.4 42.6 22.15 42.6 22.6 43.55 L22.95 44.9 20.45 43.1 M23.95 41.5 L24.1 41.4 24.45 41.7 24.7 42.4 24.6 42.75 24.5 42.85 24.25 42.9 Q23.65 42.9 23.65 42.05 L23.7 41.75 23.9 41.5 23.95 41.5" fill="#d8872b" fill-rule="evenodd" stroke="none"/>
      <path d="M38.0 28.85 Q37.85 29.15 37.85 29.55 37.85 30.45 38.35 30.8 L39.45 31.05 40.2 30.9 40.5 30.65 40.75 30.4 40.85 30.0 42.35 29.6 42.4 30.1 Q42.1 30.15 41.95 30.4 L41.9 30.45 Q41.75 30.75 41.75 31.0 41.75 31.45 42.3 31.45 L42.55 31.4 42.55 31.65 41.85 32.5 41.6 32.95 40.7 34.95 40.25 35.9 40.25 36.0 40.0 36.05 39.4 35.75 39.05 35.4 38.45 36.7 38.35 37.05 38.05 37.75 37.4 37.6 37.3 37.55 37.35 36.5 37.25 34.3 36.6 34.9 36.4 35.0 35.15 35.3 34.85 35.3 Q33.4 35.15 32.35 34.1 L31.95 32.5 30.75 30.05 29.6 28.6 28.75 27.75 Q27.45 26.65 26.35 26.4 L25.65 26.25 24.95 26.35 24.4 26.45 Q24.1 24.45 24.15 23.8 L26.4 24.7 27.4 25.25 28.6 26.0 29.9 26.85 31.15 26.1 31.35 26.0 31.7 26.5 Q32.2 26.9 32.85 26.9 33.9 26.9 34.6 26.35 L34.7 26.25 35.95 27.15 37.05 28.05 38.0 28.85 M35.95 27.4 L35.9 27.35 35.15 27.45 34.95 28.0 Q34.95 28.6 35.7 28.6 L35.95 28.6 36.4 28.4 36.6 28.1 36.3 27.55 35.95 27.4 M33.95 29.55 L33.9 29.5 33.9 29.45 Q33.4 29.05 32.9 29.05 L32.45 29.1 32.25 29.2 32.05 29.3 31.8 29.5 Q31.45 29.8 31.45 30.15 31.45 30.9 32.0 31.25 L32.5 31.45 32.95 31.5 33.35 31.5 33.6 31.75 34.25 32.15 35.35 32.35 36.6 32.05 Q37.15 31.75 37.15 31.3 37.15 30.35 36.15 29.85 35.35 29.5 34.25 29.5 L34.15 29.5 33.95 29.55 M34.25 29.85 L34.55 29.85 34.45 29.85 34.25 29.85 M34.85 33.65 L35.35 33.45 35.55 33.05 Q35.55 32.6 35.2 32.45 34.5 32.5 34.5 33.25 34.5 33.65 34.8 33.65 L34.85 33.65 M39.55 32.7 Q39.4 32.85 39.4 33.25 39.4 33.75 39.85 33.7 L40.2 33.65 40.4 33.5 40.55 33.15 40.3 32.75 40.05 32.65 39.9 32.65 39.55 32.7 M26.35 26.05 L26.8 25.55 Q26.8 25.05 26.4 24.85 L26.2 24.85 25.95 24.8 Q25.7 24.8 25.6 24.95 L25.6 25.0 25.55 25.05 25.45 25.45 Q25.45 26.05 26.25 26.05 L26.35 26.05" fill="#e7b74b" fill-rule="evenodd" stroke="none"/>
      <path d="M54.4 26.45 L54.15 25.2 54.4 25.15 54.4 26.45 M50.45 48.5 L50.8 48.75 51.9 47.45 51.7 46.45 51.5 46.05 Q52.85 43.95 53.75 41.55 L54.4 41.7 54.4 43.95 54.35 43.95 53.6 45.9 52.9 47.8 53.4 49.3 53.0 49.85 53.0 49.9 52.55 50.45 54.4 53.6 54.4 54.45 52.4 54.45 51.7 52.55 50.55 48.9 50.45 48.5 M1.45 53.7 L1.15 54.45 -0.95 54.45 -0.95 54.3 -0.3 52.85 1.45 53.7 M42.55 53.55 L42.6 53.5 44.5 52.5 44.3 54.45 42.35 54.45 42.55 53.55" fill="#482a34" fill-rule="evenodd" stroke="none"/>
      <path d="M47.35 29.2 L50.75 25.45 50.9 25.45 51.5 25.45 54.15 25.2 54.4 26.45 54.4 30.3 Q53.6 29.65 52.6 29.4 L52.4 29.2 52.3 29.1 50.85 28.4 50.2 28.2 49.0 28.95 48.2 29.55 47.4 29.35 47.25 29.3 47.4 29.35 48.2 29.55 48.15 29.55 47.45 29.5 47.2 29.45 47.2 29.4 47.25 29.3 47.35 29.2 M41.65 36.65 L41.6 36.7 41.6 36.65 41.65 36.65 M44.05 41.4 L43.85 42.2 43.8 42.45 44.05 41.4 M42.15 47.55 L41.85 48.3 43.05 48.9 43.25 49.0 44.8 49.5 44.85 49.4 44.7 50.6 44.65 51.1 44.5 52.5 42.6 53.5 42.55 53.55 42.85 52.15 42.45 51.8 42.15 51.55 41.15 50.7 38.25 51.9 37.6 54.0 37.45 54.45 35.8 54.45 36.0 52.15 35.95 51.3 35.1 51.6 33.9 52.05 33.3 52.3 Q31.45 53.0 30.3 53.6 L28.2 52.4 24.9 50.2 24.15 53.05 23.75 54.45 22.35 54.45 22.3 54.2 Q21.85 51.35 21.3 50.0 L18.7 51.15 19.05 54.45 14.45 54.45 14.55 54.2 Q15.2 52.2 16.5 49.65 L16.25 48.95 18.4 48.25 21.0 48.4 22.7 48.35 23.2 48.3 23.45 48.3 24.25 48.25 25.4 48.05 25.8 48.3 26.15 48.55 27.2 49.2 30.35 51.05 32.05 50.6 35.2 49.65 36.25 49.3 37.0 49.0 37.8 49.4 40.3 48.35 Q41.3 47.9 42.15 47.55 M51.35 45.85 L51.45 44.2 51.55 41.7 51.6 40.85 51.6 40.8 53.0 41.35 53.75 41.55 Q52.85 43.95 51.5 46.05 L51.35 45.85 M33.25 7.95 L33.2 8.05 32.6 6.7 33.25 7.95 M17.45 1.85 L17.65 2.35 17.2 1.9 15.75 0.6 15.2 0.2 16.75 0.35 17.1 1.1 17.45 1.85 M0.95 4.5 L0.35 4.05 -0.95 3.75 -0.95 2.8 -0.05 3.1 0.35 4.05 0.65 4.1 0.95 4.5 M-0.95 23.5 L-0.6 23.55 0.1 23.7 0.8 23.85 Q0.55 25.1 0.55 26.45 L0.55 27.3 -0.05 27.45 -0.65 27.55 -0.95 27.65 -0.95 23.5 M0.05 39.05 L0.65 39.7 2.9 39.0 3.4 38.3 4.05 39.35 4.0 39.4 3.25 40.4 Q3.45 41.3 5.2 42.9 L1.45 53.7 -0.3 52.85 0.2 51.75 1.25 49.5 2.2 47.4 0.95 48.4 -0.25 49.2 -0.7 49.5 0.65 47.5 2.0 45.2 0.85 44.5 1.55 43.55 Q0.2 44.25 -0.8 44.85 L-0.95 44.95 -0.95 39.55 0.05 39.05" fill="#352635" fill-rule="evenodd" stroke="none"/>
      <path d="M54.4 53.6 L52.55 50.45 53.0 49.9 53.0 49.85 53.4 49.3 52.9 47.8 53.6 45.9 54.35 43.95 54.4 43.95 54.4 53.6 M40.55 54.45 L42.55 53.55 42.35 54.45 40.55 54.45 M-0.95 52.5 L-0.3 52.85 -0.95 54.3 -0.95 52.5" fill="#5c3643" fill-rule="evenodd" stroke="none"/>
      <path d="M0.8 23.85 L3.3 24.35 4.95 24.6 3.45 26.7 2.15 28.2 2.0 28.1 0.8 27.25 0.55 27.3 0.55 26.45 Q0.55 25.1 0.8 23.85 M3.95 37.3 L4.9 37.2 5.25 38.0 4.05 39.35 3.4 38.3 3.5 38.1 3.85 37.55 3.95 37.3 M18.65 43.3 L19.1 43.65 19.6 44.0 20.0 44.3 22.85 46.35 25.4 48.05 24.25 48.25 23.45 48.3 23.2 48.3 22.7 48.35 21.0 48.4 18.4 48.25 18.85 48.1 21.4 47.2 19.45 44.65 18.65 43.55 18.65 43.3 M23.95 41.5 L24.05 41.4 24.1 41.4 23.95 41.5" fill="#312031" fill-rule="evenodd" stroke="none"/>
      <path d="M-0.95 44.95 L-0.8 44.85 Q0.2 44.25 1.55 43.55 L0.85 44.5 2.0 45.2 0.65 47.5 -0.7 49.5 -0.25 49.2 0.95 48.4 2.2 47.4 1.25 49.5 0.2 51.75 -0.3 52.85 -0.95 52.5 -0.95 44.95 M23.75 54.45 L24.15 53.05 24.9 50.2 28.2 52.4 30.3 53.6 Q31.45 53.0 33.3 52.3 L33.9 52.05 35.1 51.6 35.95 51.3 36.0 52.15 35.8 54.45 23.75 54.45 M37.45 54.45 L37.6 54.0 38.25 51.9 41.15 50.7 42.15 51.55 42.45 51.8 42.85 52.15 42.55 53.55 40.55 54.45 37.45 54.45 M19.05 54.45 L18.7 51.15 21.3 50.0 Q21.85 51.35 22.3 54.2 L22.35 54.45 19.05 54.45" fill="#4a374a" fill-rule="evenodd" stroke="none"/>
      <path d="M52.7 0.0 L52.7 1.6 52.65 5.15 52.65 6.6 52.65 7.3 52.6 11.25 Q53.4 11.95 54.4 12.2 L54.4 15.35 Q53.8 14.85 52.75 14.7 L51.8 14.6 50.5 14.8 Q49.6 15.0 48.75 15.55 L48.65 15.6 48.65 15.5 48.65 15.4 48.75 15.3 49.8 12.95 50.0 12.25 49.5 10.35 50.0 12.25 49.8 12.95 48.75 15.3 48.65 15.4 48.65 15.35 48.5 13.9 47.95 12.2 Q47.55 11.45 47.0 11.0 L45.85 10.25 44.4 9.95 43.9 9.9 42.75 10.15 43.2 9.45 44.4 7.45 45.1 6.2 46.65 3.2 46.95 3.65 46.95 5.8 46.95 6.55 46.9 7.15 46.85 8.05 46.85 8.35 46.8 9.25 46.85 9.25 47.25 9.6 47.6 9.85 Q48.6 10.5 49.5 10.35 L49.4 10.0 48.85 8.3 48.85 8.15 49.4 6.75 50.45 3.8 51.65 0.0 52.7 0.0 M38.1 0.0 L38.95 0.55 Q40.15 1.2 41.2 1.2 L41.25 1.2 42.2 1.05 42.25 1.1 42.35 1.1 42.6 1.25 42.55 2.0 42.5 2.1 42.35 3.7 42.2 4.8 42.15 5.25 41.6 4.3 40.15 2.85 40.05 2.75 Q38.75 1.9 37.0 1.9 35.0 1.9 33.65 2.75 L32.65 3.45 32.65 3.5 32.55 3.65 Q31.95 4.15 31.65 4.8 L31.15 3.65 31.05 3.5 31.2 3.25 31.35 2.9 32.7 0.0 38.1 0.0 M53.8 38.9 L54.0 38.7 54.4 38.2 54.4 41.7 53.75 41.55 53.0 41.35 51.6 40.8 51.5 40.65 53.8 38.9 M54.4 31.35 L53.35 30.05 52.6 29.4 Q53.6 29.65 54.4 30.3 L54.4 31.35 M44.85 49.4 L45.15 49.05 Q46.15 47.9 47.8 47.9 L49.8 48.2 49.85 48.2 50.45 48.5 50.55 48.9 51.7 52.55 52.4 54.45 49.2 54.45 48.85 51.05 47.7 50.8 47.05 50.75 46.3 50.6 44.7 50.6 44.85 49.4 M-0.05 3.1 L-0.95 2.8 -0.95 0.0 -0.25 0.0 -0.3 0.5 -0.2 2.0 -0.05 3.1 M-0.95 30.45 L-0.75 30.55 0.05 31.2 Q1.75 32.8 1.75 35.65 L1.5 36.75 1.0 38.45 0.9 38.7 0.05 39.05 -0.95 39.55 -0.95 30.45 M5.9 40.85 L6.0 40.75 Q7.2 40.2 8.7 40.2 L9.45 40.2 10.75 40.4 11.9 40.8 12.9 41.45 13.7 42.35 14.1 43.6 14.25 44.1 12.4 43.2 10.75 42.65 9.1 42.25 8.45 44.1 Q7.75 46.3 7.3 49.75 L7.05 51.8 6.8 54.4 6.85 54.45 1.15 54.45 1.45 53.7 5.2 42.9 5.2 42.8 5.65 41.5 5.9 40.85" fill="#b4a389" fill-rule="evenodd" stroke="none"/>
      <path d="M53.65 0.25 L53.45 2.15 53.3 5.5 53.3 6.7 53.3 7.15 53.35 10.1 Q53.6 10.75 54.25 11.3 L54.4 11.45 54.4 12.2 Q53.4 11.95 52.6 11.25 L52.65 7.3 52.65 6.6 52.65 5.15 52.7 1.6 52.7 0.0 53.05 0.0 53.65 0.25 M49.4 10.0 L49.5 10.35 Q48.6 10.5 47.6 9.85 L47.25 9.6 46.85 9.25 46.8 9.25 46.85 8.35 46.85 8.05 46.9 7.15 46.95 6.55 46.95 5.8 46.95 3.65 47.55 4.95 47.35 6.4 47.3 6.85 47.15 8.8 47.25 8.95 47.8 9.45 48.1 9.6 Q48.8 10.0 49.4 10.0 M39.65 0.0 L40.9 0.25 41.65 0.25 42.45 0.15 42.5 0.15 42.6 0.35 42.6 0.7 42.6 1.05 42.6 1.25 42.35 1.1 42.25 1.1 42.2 1.05 41.25 1.2 41.2 1.2 Q40.15 1.2 38.95 0.55 L38.1 0.0 39.65 0.0 M6.85 54.45 L6.8 54.4 7.05 51.8 7.3 49.75 Q7.75 46.3 8.45 44.1 L9.1 42.25 10.75 42.65 12.4 43.2 14.25 44.1 14.45 44.6 13.35 44.15 11.65 43.75 10.8 43.9 10.5 43.95 10.8 44.7 10.8 45.15 10.7 45.65 10.2 45.85 Q9.95 45.85 9.65 45.6 L9.2 44.85 Q8.6 46.3 8.1 48.95 7.6 51.6 7.6 53.25 L8.2 54.45 6.85 54.45 M44.65 51.1 L44.7 50.6 46.3 50.6 47.05 50.75 47.7 50.8 48.85 51.05 49.2 54.45 48.95 54.45 48.8 53.15 48.75 52.75 47.45 51.75 46.3 51.3 44.65 51.1" fill="#f3eecf" fill-rule="evenodd" stroke="none"/>
      <path d="M53.65 0.25 L53.95 0.4 54.4 1.6 54.4 11.45 54.25 11.3 Q53.6 10.75 53.35 10.1 L53.3 7.15 53.3 6.7 53.3 5.5 53.45 2.15 53.65 0.25 M48.85 8.3 L49.4 10.0 Q48.8 10.0 48.1 9.6 L47.8 9.45 47.25 8.95 47.15 8.8 47.3 6.85 47.35 6.4 47.55 4.95 48.35 6.95 48.6 7.6 48.75 8.0 48.8 8.2 48.85 8.3 M42.5 0.15 L42.45 0.15 41.65 0.25 40.9 0.25 39.65 0.0 42.4 0.0 42.5 0.15 M8.2 54.45 L7.6 53.25 Q7.6 51.6 8.1 48.95 8.6 46.3 9.2 44.85 L9.65 45.6 Q9.95 45.85 10.2 45.85 L10.7 45.65 10.8 45.15 10.8 44.7 10.5 43.95 10.8 43.9 11.65 43.75 13.35 44.15 14.45 44.6 14.55 44.8 15.15 46.35 16.25 48.95 16.5 49.65 Q15.2 52.2 14.55 54.2 L14.45 54.45 8.2 54.45 M44.5 52.5 L44.65 51.1 46.3 51.3 47.45 51.75 48.75 52.75 48.8 53.15 48.95 54.45 44.3 54.45 44.5 52.5" fill="#d8d2ae" fill-rule="evenodd" stroke="none"/>
      <path d="M50.5 14.8 L51.8 14.6 52.75 14.7 Q53.8 14.85 54.4 15.35 L54.4 17.45 54.35 17.45 54.15 17.6 Q53.3 16.8 52.35 16.45 L52.05 16.35 50.55 16.1 50.3 16.05 50.3 16.0 50.45 14.85 50.5 14.8 M42.15 5.25 L42.4 5.8 42.4 5.85 41.85 6.9 41.55 7.25 Q40.85 6.4 39.35 5.65 L38.6 5.35 Q36.8 4.65 34.8 4.6 L34.65 4.6 34.05 4.65 33.75 4.0 33.7 3.8 33.6 3.0 33.65 2.75 Q35.0 1.9 37.0 1.9 38.75 1.9 40.05 2.75 L40.15 2.85 41.6 4.3 42.15 5.25 M44.4 9.95 L45.85 10.25 47.0 11.0 Q47.55 11.45 47.95 12.2 L48.5 13.9 48.4 14.05 47.3 14.95 46.8 14.3 46.0 13.45 45.55 13.25 44.8 12.9 44.65 12.85 44.05 12.6 43.8 12.5 43.9 11.65 44.0 11.15 44.4 9.95 M53.8 38.9 L52.7 38.65 52.35 38.45 52.7 37.4 53.1 35.6 53.15 34.5 Q53.15 32.35 51.3 30.35 L51.65 29.75 52.3 29.1 52.4 29.2 52.6 29.4 53.35 30.05 54.4 31.35 54.4 38.2 54.0 38.7 53.8 38.9 M44.0 46.2 L44.55 45.55 Q45.5 44.7 46.7 44.4 L48.4 44.15 Q49.7 44.15 50.65 45.0 L50.25 45.6 48.95 47.0 47.85 46.9 44.8 47.3 44.5 46.9 44.0 46.2 M-0.05 27.45 L0.6 27.8 0.65 27.85 1.65 28.7 1.85 28.95 Q2.85 30.25 3.2 32.4 L2.95 32.6 2.7 32.8 2.4 32.3 2.3 32.1 1.65 31.1 0.95 30.35 0.8 30.2 0.3 29.75 0.2 29.7 Q-0.35 29.3 -0.95 29.05 L-0.95 27.65 -0.65 27.55 -0.05 27.45 M6.3 37.15 L6.45 37.05 6.55 37.0 6.7 37.0 7.2 36.95 7.55 36.95 9.65 37.25 10.85 37.6 Q12.4 38.15 13.75 39.3 L12.8 40.15 Q12.4 39.9 11.85 39.7 L10.8 39.35 10.5 39.25 9.5 39.0 7.05 38.75 6.45 38.8 6.25 37.7 6.3 37.15" fill="#ab3b2d" fill-rule="evenodd" stroke="none"/>
      <path d="M48.65 15.4 L48.65 15.5 48.65 15.6 48.75 15.55 Q49.6 15.0 50.5 14.8 L50.45 14.85 50.3 16.0 50.3 16.05 50.55 16.1 52.05 16.35 52.35 16.45 Q53.3 16.8 54.15 17.6 L54.35 17.45 54.4 17.45 54.4 21.85 54.35 21.95 54.35 22.05 54.25 22.2 54.05 22.3 52.95 22.85 52.8 22.9 52.35 23.1 52.9 21.65 Q53.45 20.6 53.45 19.7 53.45 18.15 52.15 17.55 L50.25 17.25 Q49.1 17.25 48.2 17.6 L48.15 17.6 47.4 18.0 47.3 18.15 47.3 18.0 47.25 17.75 47.25 17.7 47.15 17.2 46.55 15.95 46.5 15.85 Q45.9 14.95 45.1 14.5 L44.85 14.35 44.7 14.25 44.65 14.25 Q43.6 13.7 42.15 13.7 L40.85 13.85 40.85 13.8 41.15 12.2 42.0 11.4 42.4 11.1 42.4 11.05 42.6 10.85 42.65 10.65 42.75 10.2 42.75 10.15 42.75 10.2 42.65 10.65 42.6 10.85 42.4 11.05 42.4 11.1 42.0 11.4 41.15 12.2 41.0 12.35 41.1 10.65 41.1 10.55 41.05 9.65 40.75 8.25 Q40.05 6.6 38.4 6.25 L37.25 6.1 37.0 6.1 Q35.35 6.1 34.3 6.75 L34.2 6.8 Q33.5 7.25 33.25 7.95 L32.6 6.7 31.75 5.0 31.65 4.8 Q31.95 4.15 32.55 3.65 L32.65 3.5 32.65 3.45 33.65 2.75 33.6 3.0 33.7 3.8 33.75 4.0 34.05 4.65 34.65 4.6 34.8 4.6 Q36.8 4.65 38.6 5.35 L39.35 5.65 Q40.85 6.4 41.55 7.25 L41.85 6.9 42.4 5.85 Q42.9 7.15 42.9 8.7 L42.85 9.35 42.75 10.0 42.75 10.15 43.9 9.9 44.4 9.95 44.0 11.15 43.9 11.65 43.8 12.5 44.05 12.6 44.65 12.85 44.8 12.9 45.55 13.25 46.0 13.45 46.8 14.3 47.3 14.95 48.4 14.05 48.5 13.9 48.65 15.35 48.65 15.4 M48.65 15.6 L48.5 16.35 48.35 17.4 48.2 17.55 48.2 17.6 48.2 17.55 48.35 17.4 48.5 16.35 48.65 15.6 M52.3 29.1 L51.65 29.75 51.3 30.35 Q53.15 32.35 53.15 34.5 L53.1 35.6 52.7 37.4 52.35 38.45 52.7 38.65 53.8 38.9 51.5 40.65 50.45 38.15 51.35 37.25 Q52.0 36.25 52.15 34.75 L52.15 34.15 Q52.15 32.2 51.1 31.1 L50.9 30.85 50.4 30.45 49.05 29.8 48.4 29.6 48.2 29.55 49.0 28.95 50.2 28.2 50.85 28.4 52.3 29.1 M43.05 48.9 Q43.05 47.35 44.0 46.2 L44.5 46.9 44.8 47.3 47.85 46.9 48.95 47.0 50.25 45.6 50.65 45.0 51.05 45.4 51.35 45.85 51.5 46.05 51.7 46.45 51.9 47.45 50.8 48.75 50.45 48.5 49.85 48.2 49.8 48.2 47.8 47.9 Q46.15 47.9 45.15 49.05 L44.85 49.4 44.8 49.5 43.25 49.0 43.05 48.9 M3.75 0.0 Q3.35 0.95 3.35 2.05 3.35 3.5 3.85 4.4 L5.6 5.1 5.4 5.5 4.95 6.35 4.9 6.45 4.85 6.45 1.55 5.35 1.65 5.45 Q0.95 5.5 0.4 5.95 -0.2 6.4 -0.6 7.3 L-0.8 7.7 -0.95 8.1 -0.95 3.75 0.35 4.05 0.95 4.5 1.55 5.35 0.95 4.5 0.65 4.1 0.35 4.05 -0.05 3.1 -0.2 2.0 -0.3 0.5 -0.25 0.0 3.75 0.0 M2.15 28.2 L2.2 28.25 Q3.05 29.1 3.7 30.3 4.6 32.05 4.6 33.8 4.6 35.75 3.95 37.3 L3.85 37.55 3.5 38.1 3.4 38.3 2.9 39.0 0.65 39.7 0.05 39.05 0.9 38.7 1.0 38.45 1.5 36.75 1.75 35.65 Q1.75 32.8 0.05 31.2 L-0.75 30.55 -0.95 30.45 -0.95 29.05 Q-0.35 29.3 0.2 29.7 L0.3 29.75 0.8 30.2 0.95 30.35 1.65 31.1 2.3 32.1 2.4 32.3 2.7 32.8 2.95 32.6 3.2 32.4 Q2.85 30.25 1.85 28.95 L1.65 28.7 0.65 27.85 0.6 27.8 -0.05 27.45 0.55 27.3 0.8 27.25 2.0 28.1 2.15 28.2 M1.0 13.0 L0.05 14.1 -0.95 13.95 -0.95 11.35 1.0 13.0 M2.5 37.4 L2.95 37.4 3.95 37.3 2.95 37.4 2.5 37.4 M13.75 39.3 L13.8 39.4 14.35 39.95 15.9 42.0 16.4 42.9 14.85 44.45 14.7 44.65 14.6 44.7 14.55 44.8 14.45 44.6 14.25 44.1 14.1 43.6 13.7 42.35 12.9 41.45 11.9 40.8 10.75 40.4 9.45 40.2 8.7 40.2 Q7.2 40.2 6.0 40.75 L5.9 40.85 5.65 41.5 5.2 42.8 5.2 42.9 Q3.45 41.3 3.25 40.4 L4.0 39.4 4.05 39.35 5.25 38.0 6.3 37.15 6.25 37.7 6.45 38.8 7.05 38.75 9.5 39.0 10.5 39.25 10.8 39.35 11.85 39.7 Q12.4 39.9 12.8 40.15 L13.75 39.3" fill="#9c2924" fill-rule="evenodd" stroke="none"/>
      <path d="M41.15 12.2 L40.85 13.8 40.85 13.85 42.15 13.7 Q43.6 13.7 44.65 14.25 L44.7 14.25 44.85 14.35 45.1 14.5 Q45.9 14.95 46.5 15.85 L46.55 15.95 47.15 17.2 47.25 17.7 47.25 17.75 47.3 18.0 47.3 18.15 47.25 18.25 47.15 18.65 47.15 18.7 47.55 18.25 48.15 17.6 48.2 17.6 Q49.1 17.25 50.25 17.25 L52.15 17.55 Q53.45 18.15 53.45 19.7 53.45 20.6 52.9 21.65 L52.35 23.1 52.8 22.9 52.95 22.85 51.15 24.95 51.05 25.1 50.95 25.2 50.75 25.45 47.35 29.2 46.9 28.35 48.0 26.8 49.05 25.25 50.15 23.3 49.35 21.55 Q48.5 21.0 47.5 21.0 L47.15 21.15 46.7 21.8 46.4 22.2 45.4 24.0 45.1 23.2 44.9 22.55 43.65 23.2 43.6 23.1 44.6 20.7 45.25 18.95 44.75 18.15 Q43.85 16.9 42.4 16.9 L42.2 16.95 41.75 17.0 41.55 17.05 40.85 18.25 40.35 19.2 39.6 18.45 39.4 18.25 39.1 17.95 39.5 14.4 39.7 12.35 Q39.4 11.55 38.9 10.9 38.15 9.95 37.15 9.95 36.65 9.95 36.05 10.3 L35.95 10.35 36.75 14.4 37.15 16.25 36.6 15.8 36.25 15.0 35.5 13.35 35.25 12.8 34.5 10.85 33.25 7.95 Q33.5 7.25 34.2 6.8 L34.3 6.75 Q35.35 6.1 37.0 6.1 L37.25 6.1 38.4 6.25 Q40.05 6.6 40.75 8.25 L41.05 9.65 41.1 10.55 41.1 10.65 41.0 12.35 41.15 12.2 M40.1 17.8 L40.2 17.25 40.55 15.4 40.85 13.85 40.55 15.4 40.2 17.25 40.1 17.8 M47.25 17.75 L46.15 20.45 45.45 22.25 45.1 23.2 45.45 22.25 46.15 20.45 47.25 17.75 M48.2 29.55 L48.4 29.6 49.05 29.8 50.4 30.45 50.9 30.85 51.1 31.1 Q52.15 32.2 52.15 34.15 L52.15 34.75 Q52.0 36.25 51.35 37.25 L50.45 38.15 51.5 40.65 51.6 40.8 51.6 40.85 51.55 41.7 51.45 44.2 51.35 45.85 51.05 45.4 50.65 45.0 Q49.7 44.15 48.4 44.15 L46.7 44.4 Q45.5 44.7 44.55 45.55 L44.0 46.2 Q43.05 47.35 43.05 48.9 L41.85 48.3 42.15 47.55 42.25 47.35 42.65 46.75 42.65 46.7 43.7 42.95 43.8 42.5 43.7 42.95 42.65 46.7 42.65 46.75 42.25 47.35 43.55 43.2 43.8 42.5 43.8 42.45 43.85 42.2 44.05 41.4 44.05 41.3 44.1 41.15 43.65 40.85 42.85 40.3 42.3 39.9 42.2 39.85 42.3 39.9 42.85 40.3 43.65 40.85 44.1 41.15 44.05 41.3 44.05 41.4 43.65 41.1 43.45 40.95 42.75 40.45 42.45 40.2 42.2 40.05 42.2 39.85 42.15 39.8 42.15 39.7 42.1 39.65 42.1 39.5 41.85 37.8 41.6 36.7 41.65 36.65 42.35 35.25 43.1 33.6 43.15 33.45 43.15 33.05 43.25 32.85 43.35 33.35 43.5 34.0 43.0 35.0 42.8 35.4 42.55 35.85 42.5 35.95 42.4 36.15 43.65 39.95 43.85 40.1 44.35 40.5 44.55 43.1 45.7 42.1 46.2 42.8 46.35 43.0 47.65 42.3 48.0 39.65 48.05 39.25 48.05 38.55 48.5 39.55 49.15 41.0 49.5 40.2 49.6 39.9 49.35 39.0 48.5 36.15 49.6 36.3 49.7 36.3 47.3 29.8 47.2 29.45 47.45 29.5 48.15 29.55 48.2 29.55 M50.45 38.15 L49.7 36.3 50.45 38.15 M30.6 2.65 L29.95 2.4 29.85 2.35 28.65 0.0 29.35 0.0 30.05 1.45 30.6 2.65 M27.1 0.0 L27.05 1.35 26.7 0.0 27.1 0.0 M25.3 0.0 L25.3 0.15 25.2 0.0 25.3 0.0 M23.05 0.0 L23.25 1.35 23.2 1.35 23.1 1.35 17.45 1.85 17.1 1.1 16.75 0.35 16.6 0.0 23.05 0.0 M15.2 0.2 L15.75 0.6 17.2 1.9 16.5 2.05 16.4 2.1 16.9 3.3 16.05 2.2 14.2 0.35 13.9 0.05 13.85 0.0 15.0 0.0 15.2 0.2 M15.1 0.05 L15.0 0.0 15.05 0.0 15.1 0.05 M9.45 0.0 L8.8 1.15 10.95 3.15 11.6 3.8 7.55 6.2 7.3 6.35 5.65 5.65 5.4 5.5 5.65 5.65 7.3 6.35 7.4 6.4 6.6 8.05 5.5 7.8 4.75 7.7 5.15 8.1 3.95 9.3 2.2 8.75 2.3 10.05 3.0 10.4 2.65 10.9 2.5 11.1 1.2 13.15 Q0.35 14.6 -0.15 16.2 L-0.95 16.1 -0.95 13.95 0.05 14.1 1.0 13.0 1.2 13.15 1.0 13.0 -0.95 11.35 -0.95 8.1 -0.8 7.7 -0.6 7.3 Q-0.2 6.4 0.4 5.95 0.95 5.5 1.65 5.45 L1.55 5.35 4.85 6.45 4.9 6.45 4.95 6.35 5.4 5.5 5.6 5.1 3.85 4.4 Q3.35 3.5 3.35 2.05 3.35 0.95 3.75 0.0 L9.45 0.0 M4.9 37.2 L4.65 36.65 4.55 36.4 Q6.05 32.15 7.95 28.65 L10.1 29.65 10.3 29.75 10.15 30.1 8.9 33.25 9.35 34.2 10.25 32.5 11.1 31.0 11.5 30.3 11.55 30.3 10.95 34.05 10.75 35.1 10.9 35.3 11.25 35.75 11.3 35.85 11.9 34.8 12.45 36.45 13.0 36.55 13.25 36.55 14.2 33.65 14.95 31.7 15.2 31.75 Q14.4 36.9 14.35 39.95 L13.8 39.4 13.75 39.3 Q12.4 38.15 10.85 37.6 L9.65 37.25 7.55 36.95 7.2 36.95 6.7 37.0 6.55 37.0 6.45 37.05 6.3 37.15 5.25 38.0 4.9 37.2 M-0.95 17.1 L-0.45 17.3 -0.6 17.8 -0.95 17.9 -0.95 17.1" fill="#cd7027" fill-rule="evenodd" stroke="none"/>
      <path d="M40.35 19.2 L40.85 18.25 41.55 17.05 41.75 17.0 42.2 16.95 42.4 16.9 Q43.85 16.9 44.75 18.15 L45.25 18.95 44.6 20.7 43.6 23.1 42.6 21.8 40.35 19.2 M45.4 24.0 L46.4 22.2 46.7 21.8 47.15 21.15 47.5 21.0 Q48.5 21.0 49.35 21.55 L50.15 23.3 49.05 25.25 48.0 26.8 46.9 28.35 46.7 27.95 45.9 25.55 45.4 24.0 M35.55 13.55 L35.5 13.35 36.25 15.0 36.6 15.8 36.1 15.45 36.15 14.9 35.55 13.55 M37.15 16.25 L36.75 14.4 35.95 10.35 36.05 10.3 Q36.65 9.95 37.15 9.95 38.15 9.95 38.9 10.9 39.4 11.55 39.7 12.35 L39.5 14.4 39.1 17.95 37.15 16.25 M28.65 0.0 L29.85 2.35 27.2 1.7 23.25 1.35 23.05 0.0 25.2 0.0 25.3 0.15 25.3 0.0 26.7 0.0 27.05 1.35 27.1 0.0 28.65 0.0 M13.85 0.0 L13.9 0.05 14.2 0.35 16.05 2.2 13.55 2.95 11.6 3.8 10.95 3.15 8.8 1.15 9.45 0.0 13.85 0.0 M5.5 7.8 L5.15 8.1 4.75 7.7 5.5 7.8 M3.95 9.3 L3.0 10.4 2.3 10.05 2.2 8.75 3.95 9.3 M-0.95 16.1 L-0.15 16.2 -0.45 17.3 -0.95 17.1 -0.95 16.1 M-0.95 17.9 L-0.6 17.8 -0.95 19.55 -0.95 17.9" fill="#d89135" fill-rule="evenodd" stroke="none"/>
      <path d="M43.6 23.1 L43.65 23.2 42.25 23.95 41.4 24.4 40.3 23.8 39.05 22.05 40.35 19.2 42.6 21.8 43.6 23.1 M46.9 28.35 L47.35 29.2 47.25 29.3 47.2 29.4 46.7 27.95 46.9 28.35 M25.0 11.5 L28.2 11.9 29.55 12.2 Q31.7 12.8 33.85 14.0 L34.05 14.95 34.2 15.35 34.2 15.55 34.15 18.5 32.4 17.95 29.6 17.65 28.85 17.7 27.65 17.8 27.55 17.85 27.35 17.35 27.05 16.6 26.25 14.6 26.2 14.45 25.0 11.5 M34.5 18.6 L34.9 16.8 35.2 15.35 35.25 14.9 36.1 15.45 36.6 15.8 37.35 17.75 37.65 18.45 37.5 17.8 37.15 16.25 39.1 17.95 39.0 18.65 38.8 20.0 39.2 19.2 38.75 21.75 38.2 21.15 Q36.55 19.5 34.5 18.6 M25.35 18.3 Q24.4 18.6 23.5 19.0 L23.35 19.15 Q22.4 19.6 21.5 20.2 L21.85 19.4 22.15 18.9 22.2 18.8 22.5 18.9 22.2 18.8 17.0 17.55 14.4 19.85 Q13.5 16.7 13.5 15.3 L13.6 14.35 Q14.75 13.75 16.0 13.3 L17.0 12.95 17.15 12.85 19.4 15.05 19.7 15.4 19.0 13.6 18.6 12.4 18.7 12.35 18.8 12.35 22.15 11.65 22.95 13.3 25.15 17.85 25.35 18.3" fill="#e8b34b" fill-rule="evenodd" stroke="none"/>
      <path d="M42.9 31.25 L43.25 32.85 43.15 33.05 43.15 32.65 43.1 32.5 43.0 32.4 42.9 32.4 42.9 32.15 42.9 31.25 M40.45 26.2 L39.05 26.25 35.55 23.8 34.15 22.75 33.2 22.1 32.65 22.2 30.65 22.6 30.3 22.65 29.7 22.8 28.75 20.8 28.6 20.45 28.05 19.25 27.85 18.7 28.05 18.75 27.65 17.8 28.85 17.7 29.6 17.65 32.4 17.95 34.15 18.5 34.5 18.6 Q36.55 19.5 38.2 21.15 L38.75 21.75 39.05 22.05 40.3 23.8 41.4 24.4 40.2 25.05 40.25 25.4 40.35 25.8 40.45 26.2 M25.6 18.5 L26.35 20.05 26.8 20.9 27.05 21.4 27.85 22.85 26.0 21.9 24.0 20.75 23.45 21.1 23.3 22.55 22.95 22.45 22.9 23.25 23.05 25.7 23.05 25.75 Q22.05 26.2 19.95 27.8 18.85 28.65 18.05 29.35 L18.55 31.1 19.0 32.15 17.3 33.95 15.7 35.85 15.55 35.05 16.4 30.75 Q17.2 26.85 17.85 24.95 22.05 21.95 23.45 21.1 L23.55 20.45 23.6 19.9 23.7 19.4 21.35 20.55 21.4 20.35 21.5 20.2 Q22.4 19.6 23.35 19.15 L23.5 19.0 Q24.4 18.6 25.35 18.3 L25.45 18.3 25.55 18.55 25.6 18.5 M39.05 25.7 L39.75 25.35 40.2 25.05 39.75 25.35 39.05 25.7 M36.3 31.1 Q36.45 30.85 36.7 30.85 L36.8 30.9 36.3 31.1" fill="#eab74a" fill-rule="evenodd" stroke="none"/>
      <path d="M45.15 26.6 L45.6 26.0 45.9 25.55 46.7 27.95 47.2 29.4 47.2 29.45 47.3 29.8 49.7 36.3 49.6 36.3 48.5 36.15 47.6 33.25 46.55 30.05 45.15 26.6 M31.65 4.8 L31.75 5.0 32.6 6.7 33.2 8.05 33.25 7.95 34.5 10.85 35.25 12.8 35.5 13.35 35.55 13.55 35.25 14.9 34.2 14.2 33.85 14.0 32.65 9.95 30.4 3.8 29.95 2.7 29.85 2.35 29.95 2.4 30.6 2.65 30.85 3.15 31.05 3.5 31.15 3.65 31.65 4.8 M39.1 17.95 L39.4 18.25 39.6 18.45 39.4 18.9 39.2 19.2 38.8 20.0 39.0 18.65 39.1 17.95 M23.25 1.35 L23.25 1.4 23.65 4.15 25.5 7.9 24.3 8.0 24.75 11.0 24.85 11.5 24.6 11.5 22.15 11.65 20.7 8.6 20.35 9.2 19.8 10.35 17.05 3.55 16.9 3.3 16.4 2.1 16.5 2.05 17.2 1.9 17.65 2.35 17.45 1.85 23.1 1.35 23.2 1.35 23.25 1.35 M20.2 8.4 L19.3 6.3 18.55 4.5 17.65 2.35 18.55 4.5 19.3 6.3 20.2 8.4 M36.6 15.8 L37.15 16.25 37.5 17.8 37.65 18.45 37.35 17.75 36.6 15.8 M11.6 3.8 L12.7 4.95 12.8 5.05 14.15 6.05 14.95 6.6 15.2 6.75 15.1 6.95 15.1 7.0 14.75 8.0 16.1 9.45 18.45 11.95 18.6 12.35 18.6 12.4 17.15 12.85 16.05 12.1 14.0 10.4 13.2 9.8 12.5 9.3 12.3 9.15 12.15 9.0 10.5 8.0 7.65 6.5 7.4 6.4 7.3 6.35 7.55 6.2 11.6 3.8 M5.15 8.1 L7.5 10.4 3.95 9.3 5.15 8.1 M3.0 10.4 L3.7 10.75 5.5 11.65 4.6 12.6 7.15 14.75 9.5 16.45 9.85 16.65 9.9 16.65 11.8 19.25 12.25 19.9 13.2 21.1 Q10.3 24.3 7.95 28.65 10.3 24.3 13.2 21.1 L13.25 21.05 13.4 21.35 14.1 22.55 13.15 24.05 11.95 26.25 11.45 27.25 10.3 29.75 10.1 29.65 7.95 28.65 Q6.05 32.15 4.55 36.4 L4.65 36.65 4.9 37.2 3.95 37.3 Q4.6 35.75 4.6 33.8 4.6 32.05 3.7 30.3 3.05 29.1 2.2 28.25 L2.15 28.2 3.45 26.7 4.95 24.6 3.3 24.35 0.8 23.85 0.1 23.7 -0.6 23.55 -0.95 23.5 -0.95 22.0 0.1 22.3 1.15 22.55 4.1 22.85 6.8 22.9 8.25 22.85 10.85 21.1 10.8 21.05 7.55 18.8 7.45 18.85 7.3 18.85 Q6.95 18.75 6.95 18.3 L6.25 17.6 6.0 17.55 4.4 17.15 0.85 16.4 -0.15 16.2 Q0.35 14.6 1.2 13.15 L2.5 11.1 2.65 10.9 3.0 10.4 M1.2 13.15 L1.9 13.75 5.1 16.45 5.8 17.0 6.2 17.35 6.65 17.7 6.9 17.75 6.65 17.7 6.2 17.35 5.8 17.0 5.1 16.45 1.9 13.75 1.2 13.15 M-0.6 17.8 L-0.45 17.3 0.3 17.7 -0.6 17.8 M-0.95 20.3 L-0.45 20.2 -0.05 20.15 -0.3 20.5 -0.95 21.5 -0.95 20.3" fill="#d27a24" fill-rule="evenodd" stroke="none"/>
      <path d="M27.85 18.7 L26.15 18.25 25.6 18.5 25.55 18.55 25.45 18.3 27.55 17.85 27.65 17.8 28.05 18.75 27.85 18.7 M29.85 2.35 L29.95 2.7 30.4 3.8 32.65 9.95 33.85 14.0 Q31.7 12.8 29.55 12.2 L28.2 11.9 25.0 11.5 24.85 11.5 24.75 11.0 24.3 8.0 25.5 7.9 23.65 4.15 23.25 1.4 23.25 1.35 27.2 1.7 29.85 2.35 M35.25 14.9 L35.55 13.55 36.15 14.9 36.1 15.45 35.25 14.9 M16.9 3.3 L17.05 3.55 19.8 10.35 20.35 9.2 20.7 8.6 22.15 11.65 18.8 12.35 18.7 12.35 18.6 12.4 18.6 12.35 18.45 11.95 16.1 9.45 14.75 8.0 15.1 7.0 15.1 6.95 15.2 6.75 14.95 6.6 14.15 6.05 12.8 5.05 12.7 4.95 11.6 3.8 13.55 2.95 16.05 2.2 16.9 3.3 M12.3 9.15 L12.15 9.05 10.5 8.0 12.15 9.05 12.3 9.15 12.5 9.3 13.2 9.8 14.0 10.4 16.05 12.1 17.15 12.85 17.0 12.95 16.0 13.3 Q14.75 13.75 13.6 14.35 L9.95 16.6 9.9 16.65 9.85 16.65 9.5 16.45 7.15 14.75 4.6 12.6 5.5 11.65 3.7 10.75 3.0 10.4 3.95 9.3 7.5 10.4 5.15 8.1 5.5 7.8 6.6 8.05 7.4 6.4 7.65 6.5 10.5 8.0 12.15 9.0 12.3 9.15 M-0.15 16.2 L0.85 16.4 4.4 17.15 6.0 17.55 6.25 17.6 6.95 18.3 Q6.95 18.75 7.3 18.85 L6.35 19.85 Q5.0 21.3 4.1 22.85 L1.15 22.55 0.1 22.3 -0.95 22.0 -0.95 21.5 -0.3 20.5 -0.05 20.15 -0.45 20.2 -0.95 20.3 -0.95 19.55 -0.6 17.8 0.3 17.7 -0.45 17.3 -0.15 16.2" fill="#e2a040" fill-rule="evenodd" stroke="none"/>
      <path d="M33.85 14.0 L34.2 14.2 35.25 14.9 35.2 15.35 34.9 16.8 34.5 18.6 34.15 18.5 34.2 15.55 34.2 15.35 34.05 14.95 33.85 14.0 M39.6 18.45 L40.35 19.2 39.05 22.05 38.75 21.75 39.2 19.2 39.4 18.9 39.6 18.45 M24.85 11.5 L25.0 11.5 26.2 14.45 26.25 14.6 27.05 16.6 27.35 17.35 27.55 17.85 25.45 18.3 25.35 18.3 25.15 17.85 22.95 13.3 22.15 11.65 24.6 11.5 24.85 11.5 M18.6 12.4 L19.0 13.6 19.7 15.4 19.4 15.05 17.15 12.85 18.6 12.4" fill="#de9237" fill-rule="evenodd" stroke="none"/>
      <path d="M9.9 16.65 L9.95 16.6 13.6 14.35 13.5 15.3 Q13.5 16.7 14.4 19.85 L13.25 21.05 13.2 21.1 12.25 19.9 11.8 19.25 9.9 16.65 M7.3 18.85 L7.45 18.85 7.55 18.8 10.8 21.05 10.85 21.1 8.25 22.85 6.8 22.9 4.1 22.85 Q5.0 21.3 6.35 19.85 L7.3 18.85" fill="#e3a945" fill-rule="evenodd" stroke="none"/>
      <path d="M40.85 30.0 L40.75 30.4 40.5 30.65 40.2 30.9 39.45 31.05 38.35 30.8 Q37.85 30.45 37.85 29.55 37.85 29.15 38.0 28.85 L39.8 30.5 40.1 30.3 40.85 30.0 M42.55 31.4 L42.3 31.45 Q41.75 31.45 41.75 31.0 41.75 30.75 41.9 30.45 L41.95 30.4 42.5 31.25 42.55 31.4 M39.55 32.7 L39.9 32.65 40.05 32.65 40.3 32.75 40.55 33.15 40.4 33.5 40.2 33.65 39.85 33.7 Q39.4 33.75 39.4 33.25 39.4 32.85 39.55 32.7" fill="#de923e" fill-rule="evenodd" stroke="none"/>
      <path d="M39.05 43.2 Q40.3 43.6 41.1 44.55 41.95 45.6 42.1 46.95 L39.9 47.95 38.1 48.5 37.75 48.4 Q37.35 48.15 37.2 47.65 L37.8 46.4 38.9 43.25 39.05 43.2 M26.2 46.45 L26.3 46.35 Q26.6 46.0 27.2 45.65 L29.25 44.55 Q32.35 43.15 35.15 42.85 L35.2 42.85 37.8 43.3 38.0 43.3 37.25 46.25 36.3 48.7 32.65 47.6 28.85 47.05 28.25 47.0 28.0 47.0 27.85 47.0 26.35 46.5 26.2 46.45 M27.85 47.0 L28.0 47.0 28.25 47.0 28.3 47.15 27.85 47.0" fill="#f8e19e" fill-rule="evenodd" stroke="none"/>
      <path d="M38.1 42.95 L38.9 43.15 39.05 43.2 38.9 43.25 37.8 46.4 37.2 47.65 Q37.35 48.15 37.75 48.4 L38.1 48.5 39.9 47.95 42.1 46.95 42.15 47.45 42.15 47.55 Q41.3 47.9 40.3 48.35 L37.8 49.4 37.0 49.0 36.6 48.8 36.3 48.7 37.25 46.25 38.0 43.3 38.1 42.95 38.0 43.3 37.8 43.3 35.2 42.85 36.45 42.8 38.1 42.95 M27.2 49.2 L27.15 49.1 27.35 48.3 27.45 48.05 27.8 48.0 29.55 47.9 Q32.0 47.9 33.6 48.6 34.5 49.05 35.2 49.65 L32.05 50.6 30.35 51.05 27.2 49.2" fill="#dbc689" fill-rule="evenodd" stroke="none"/>
      <path d="M18.2 36.6 L17.95 36.3 17.85 35.9 Q17.85 35.55 18.3 35.15 L18.35 35.15 Q18.4 35.05 18.7 34.95 18.95 34.8 19.15 34.8 L19.2 34.8 19.85 35.0 Q20.35 35.3 20.35 35.75 L20.2 36.2 20.0 36.4 19.65 36.65 19.6 36.25 19.6 36.2 19.5 36.25 18.2 36.6 M35.95 27.4 L36.3 27.55 36.6 28.1 36.4 28.4 35.95 28.6 35.7 28.6 Q34.95 28.6 34.95 28.0 L35.15 27.45 35.9 27.35 35.95 27.4 M33.35 31.5 L32.95 31.5 32.5 31.45 32.0 31.25 Q31.45 30.9 31.45 30.15 31.45 29.8 31.8 29.5 L32.05 29.3 32.25 29.2 32.45 29.1 32.9 29.05 Q33.4 29.05 33.9 29.45 L33.9 29.5 33.95 29.55 Q33.05 29.75 33.0 30.35 L32.95 30.5 Q32.95 31.05 33.35 31.5 M34.85 33.65 L34.8 33.65 Q34.5 33.65 34.5 33.25 34.5 32.5 35.2 32.45 35.55 32.6 35.55 33.05 L35.35 33.45 34.85 33.65 M26.35 26.05 L26.25 26.05 Q25.45 26.05 25.45 25.45 L25.55 25.05 25.6 25.0 25.6 24.95 Q25.7 24.8 25.95 24.8 L26.2 24.85 26.4 24.85 Q26.8 25.05 26.8 25.55 L26.35 26.05" fill="#d5892b" fill-rule="evenodd" stroke="none"/>
      <path d="M36.3 31.1 L36.8 30.9 36.85 30.9 36.9 30.95 37.0 31.15 36.75 31.6 36.6 31.6 36.2 31.35 36.3 31.1 M33.35 31.5 Q32.95 31.05 32.95 30.5 L33.0 30.35 Q33.05 29.75 33.95 29.55 L34.25 29.85 34.2 29.9 34.2 29.95 Q34.05 30.0 34.05 30.15 L34.45 30.45 34.45 30.6 34.15 31.15 33.5 31.5 33.35 31.5" fill="#f0a34d" fill-rule="evenodd" stroke="none"/>
      <path d="M36.8 30.9 L36.7 30.85 Q36.45 30.85 36.3 31.1 L36.2 31.35 36.6 31.6 36.75 31.6 37.0 31.15 36.9 30.95 36.85 30.9 36.8 30.9 M33.95 29.55 L34.15 29.5 34.25 29.5 Q35.35 29.5 36.15 29.85 37.15 30.35 37.15 31.3 37.15 31.75 36.6 32.05 L35.35 32.35 34.25 32.15 33.6 31.75 33.35 31.5 33.5 31.5 34.15 31.15 34.45 30.6 34.45 30.45 34.55 30.45 34.85 30.15 34.55 29.85 34.25 29.85 33.95 29.55" fill="#f7c658" fill-rule="evenodd" stroke="none"/>
      <path d="M34.7 26.25 L34.6 26.35 Q33.9 26.9 32.85 26.9 32.2 26.9 31.7 26.5 L31.35 26.0 31.5 25.9 Q32.3 25.5 32.85 25.25 33.55 25.45 34.7 26.25" fill="#d0873a" fill-rule="evenodd" stroke="none"/>
      <path d="M34.45 30.45 L34.05 30.15 Q34.05 30.0 34.2 29.95 L34.2 29.9 34.25 29.85 34.45 29.85 34.55 29.85 34.85 30.15 34.55 30.45 34.45 30.45" fill="#ffe2a1" fill-rule="evenodd" stroke="none"/>
      <path d="M30.1 41.4 Q30.1 41.25 30.25 41.05 L30.35 40.95 30.55 40.9 30.65 40.95 30.95 41.0 Q31.35 41.15 31.35 41.45 L31.3 41.6 Q31.2 41.95 30.65 41.95 L30.2 41.7 30.1 41.4 M27.65 42.0 Q27.35 42.0 27.3 41.8 L27.25 41.65 27.35 41.4 27.65 41.3 27.75 41.3 28.0 41.3 28.2 41.6 28.1 41.85 27.65 42.0" fill="#e49f3a" fill-rule="evenodd" stroke="none"/>
      <path d="M25.8 48.3 L25.8 48.2 25.8 47.95 25.9 46.8 26.2 46.45 26.35 46.5 27.85 47.0 28.3 47.15 28.25 47.0 28.85 47.05 32.65 47.6 36.3 48.7 36.6 48.8 37.0 49.0 36.25 49.3 35.2 49.65 Q34.5 49.05 33.6 48.6 32.0 47.9 29.55 47.9 L27.8 48.0 27.45 48.05 27.35 48.3 27.15 49.1 27.2 49.2 26.15 48.55 25.8 48.3 M27.3 47.15 L27.85 47.0 27.3 47.15" fill="#b6a471" fill-rule="evenodd" stroke="none"/>
      <path d="M42.1 39.65 L42.15 39.7 42.1 39.75 41.55 40.55 40.45 40.5 39.95 40.45 36.75 40.0 Q34.85 39.5 33.65 38.85 L32.75 38.2 38.4 38.7 41.9 39.55 42.1 39.65 M42.2 33.05 L41.6 35.65 40.55 37.45 39.15 37.55 39.1 37.55 39.05 37.3 39.25 36.25 39.5 36.5 39.9 36.7 40.1 36.75 40.55 36.6 41.15 36.15 Q41.2 35.4 41.75 34.05 L42.2 33.05 M22.6 28.2 Q23.7 27.25 25.35 27.25 28.25 27.25 30.2 30.9 L31.1 32.8 31.65 33.9 32.5 35.15 33.45 35.85 32.95 35.9 32.15 35.9 22.6 28.2 M39.3 39.85 Q39.3 40.25 40.05 40.3 L40.15 40.3 40.75 40.05 40.45 39.7 40.2 39.6 39.95 39.55 39.9 39.55 39.6 39.5 39.4 39.65 39.3 39.85" fill="#373334" fill-rule="evenodd" stroke="none"/>
      <path d="M42.9 32.4 L43.0 32.4 43.1 32.5 43.15 32.65 43.15 33.05 43.15 33.45 43.1 33.6 42.35 35.25 41.65 36.65 41.6 36.65 41.55 36.75 41.1 37.35 40.55 37.45 41.6 35.65 42.2 33.05 42.7 32.5 42.9 32.4 M41.55 40.55 L40.7 41.25 Q39.45 42.25 38.1 42.6 L37.6 42.75 37.4 42.65 36.35 42.3 Q35.3 41.85 34.15 40.8 33.05 39.85 32.7 39.05 L32.5 38.2 32.75 38.2 33.65 38.85 Q34.85 39.5 36.75 40.0 L39.95 40.45 40.45 40.5 41.55 40.55 M33.45 35.85 L34.05 36.1 34.85 36.25 35.85 36.0 36.65 35.55 36.65 36.2 36.6 37.1 35.0 37.0 33.3 36.75 33.15 36.7 32.95 36.7 31.0 36.4 31.3 35.95 30.85 35.55 30.1 34.85 29.65 34.45 26.95 32.4 25.65 31.45 25.05 31.05 23.9 30.3 Q22.85 30.75 22.55 32.3 L22.45 33.65 Q22.45 36.0 23.7 37.3 24.75 38.35 26.5 38.4 24.65 39.7 22.7 40.4 L20.2 41.15 Q21.25 39.55 22.15 36.35 L21.65 35.55 20.95 33.65 20.8 32.5 Q20.8 30.1 22.05 28.7 L22.6 28.2 32.15 35.9 32.95 35.9 33.45 35.85" fill="#2a2327" fill-rule="evenodd" stroke="none"/>
      <path d="M31.0 36.4 L30.05 37.3 30.05 37.25 29.9 36.65 29.6 36.8 Q28.4 37.6 26.65 37.6 23.15 37.6 23.15 34.15 23.15 32.7 23.45 32.1 L22.55 32.3 Q22.85 30.75 23.9 30.3 L25.05 31.05 24.55 31.5 24.15 32.25 Q23.95 32.7 23.9 33.25 L23.85 34.0 Q23.85 35.55 24.7 36.4 25.55 37.2 26.8 37.2 28.0 37.2 29.0 36.45 L29.05 36.4 29.3 36.15 30.1 34.85 30.85 35.55 31.3 35.95 31.0 36.4" fill="#9a95be" fill-rule="evenodd" stroke="none"/>
      <path d="M24.65 33.05 L24.65 33.35 Q24.65 34.15 25.3 34.15 25.75 34.15 26.0 33.8 L26.25 33.2 26.25 33.15 Q27.3 33.5 28.0 34.3 L28.85 35.7 29.65 34.45 30.1 34.85 29.3 36.15 29.05 36.4 29.0 36.45 28.9 36.0 28.85 35.7 28.75 35.75 28.35 36.05 Q27.55 36.6 26.55 36.6 25.6 36.6 25.0 35.9 24.45 35.15 24.45 34.15 24.45 33.55 24.6 33.05 L23.9 33.25 Q23.95 32.7 24.15 32.25 L24.55 31.5 25.05 31.05 25.65 31.45 25.25 31.8 Q24.85 32.25 24.65 32.85 L24.6 33.05 24.65 33.05" fill="#0f87ff" fill-rule="evenodd" stroke="none"/>
      <path d="M24.65 33.05 L24.7 32.95 24.8 32.55 24.9 32.45 25.05 32.35 25.5 32.25 Q25.7 32.3 25.95 32.5 L26.25 33.15 26.25 33.2 26.0 33.8 Q25.75 34.15 25.3 34.15 24.65 34.15 24.65 33.35 L24.65 33.05" fill="#bbddff" fill-rule="evenodd" stroke="none"/>
      <path d="M26.25 33.15 L25.95 32.5 Q25.7 32.3 25.5 32.25 L25.05 32.35 24.9 32.45 24.8 32.55 24.7 32.95 24.65 33.05 24.6 33.05 24.65 32.85 Q24.85 32.25 25.25 31.8 L25.65 31.45 26.95 32.4 29.65 34.45 28.85 35.7 28.0 34.3 Q27.3 33.5 26.25 33.15" fill="#0747d7" fill-rule="evenodd" stroke="none"/>
      <path d="M23.9 33.25 L24.6 33.05 Q24.45 33.55 24.45 34.15 24.45 35.15 25.0 35.9 25.6 36.6 26.55 36.6 27.55 36.6 28.35 36.05 L28.75 35.75 28.85 35.7 28.9 36.0 29.0 36.45 Q28.0 37.2 26.8 37.2 25.55 37.2 24.7 36.4 23.85 35.55 23.85 34.0 L23.9 33.25" fill="#3fbaff" fill-rule="evenodd" stroke="none"/>
      <path d="M30.05 37.3 L29.85 37.45 28.9 37.95 26.55 38.4 26.5 38.4 Q24.75 38.35 23.7 37.3 22.45 36.0 22.45 33.65 L22.55 32.3 23.45 32.1 Q23.15 32.7 23.15 34.15 23.15 37.6 26.65 37.6 28.4 37.6 29.6 36.8 L29.9 36.65 30.05 37.25 30.05 37.3" fill="#cfd3d6" fill-rule="evenodd" stroke="none"/>
      <path d="M39.3 39.85 L39.4 39.65 39.6 39.5 39.9 39.55 39.95 39.55 40.2 39.6 40.45 39.7 40.75 40.05 40.15 40.3 40.05 40.3 Q39.3 40.25 39.3 39.85" fill="#bdacb0" fill-rule="evenodd" stroke="none"/>
      <path d="M42.7 30.25 L42.85 31.05 42.9 31.25 42.9 32.15 42.9 32.4 42.7 32.5 42.55 31.65 42.55 31.4 42.5 31.25 42.5 31.15 42.4 30.1 42.35 29.6 42.15 28.05 42.7 30.25 M40.5 26.75 L41.25 27.05 41.9 27.2 42.0 27.45 40.6 28.3 40.2 28.6 39.85 28.8 39.1 28.1 35.55 25.4 35.15 25.15 32.7 23.75 31.3 24.4 30.45 24.8 29.6 25.25 26.85 23.85 Q24.65 22.8 23.3 22.55 L23.45 21.1 24.0 20.75 26.0 21.9 27.85 22.85 27.05 21.4 26.8 20.9 26.35 20.05 25.6 18.5 26.15 18.25 27.85 18.7 28.05 19.25 28.6 20.45 28.75 20.8 29.7 22.8 30.3 22.65 30.65 22.6 32.65 22.2 33.2 22.1 34.15 22.75 35.55 23.8 39.05 26.25 40.45 26.2 40.5 26.75 M21.35 20.55 L23.7 19.4 23.6 19.9 23.55 20.45 23.45 21.1 Q22.05 21.95 17.85 24.95 17.2 26.85 16.4 30.75 L15.55 35.05 15.7 35.85 15.5 36.1 15.6 37.25 15.7 38.25 16.2 38.1 18.75 37.55 16.85 40.6 16.3 41.45 15.9 42.0 14.35 39.95 Q14.4 36.9 15.2 31.75 L15.2 31.65 15.35 30.85 Q15.85 27.8 16.5 25.55 L17.35 22.95 Q18.0 22.65 18.8 22.25 L21.0 21.3 21.35 20.55 M21.0 21.3 L21.45 21.2 21.0 21.3" fill="#dd9a3f" fill-rule="evenodd" stroke="none"/>
      <path d="M18.75 37.55 L18.85 37.5 18.7 40.25 18.65 42.9 18.65 43.3 18.65 43.55 19.45 44.65 21.4 47.2 18.85 48.1 18.4 48.25 16.25 48.95 15.15 46.35 14.55 44.8 14.6 44.7 14.7 44.65 14.85 44.45 16.4 42.9 15.9 42.0 16.3 41.45 16.85 40.6 18.75 37.55 M14.7 44.65 L14.65 44.7 14.55 44.8 14.65 44.7 14.7 44.65" fill="#d07f31" fill-rule="evenodd" stroke="none"/>
      <path d="M43.65 23.2 L44.9 22.55 45.1 23.2 45.4 24.0 45.9 25.55 45.6 26.0 45.15 26.6 44.45 25.2 40.35 25.8 40.25 25.4 40.2 25.05 41.4 24.4 42.25 23.95 43.65 23.2 M21.85 19.4 L21.6 19.35 19.75 19.15 16.2 19.5 15.8 20.05 14.9 21.35 14.25 22.35 14.1 22.55 13.4 21.35 13.25 21.05 14.4 19.85 17.0 17.55 22.2 18.8 22.15 18.9 21.85 19.4" fill="#d78433" fill-rule="evenodd" stroke="none"/>
      <path d="M45.15 26.6 L46.55 30.05 47.6 33.25 48.5 36.15 47.4 36.0 44.65 35.75 43.35 35.8 42.55 35.85 42.8 35.4 43.0 35.0 43.5 34.0 43.35 33.35 43.25 32.85 42.9 31.25 42.85 31.05 42.7 30.25 42.95 29.9 42.95 29.85 44.35 27.8 45.15 26.6 M14.1 22.55 L14.8 23.55 15.15 24.05 15.55 24.5 16.5 25.55 Q15.85 27.8 15.35 30.85 L15.2 31.65 15.2 31.75 14.95 31.7 11.55 30.3 11.5 30.3 11.15 30.15 10.3 29.75 11.45 27.25 11.95 26.25 13.15 24.05 14.1 22.55" fill="#e5ac43" fill-rule="evenodd" stroke="none"/>
      <path d="M40.35 25.8 L44.45 25.2 45.15 26.6 44.35 27.8 42.95 29.85 42.95 29.9 42.7 30.25 42.15 28.05 42.0 27.45 41.9 27.2 41.25 27.05 40.5 26.75 40.45 26.2 40.35 25.8 M21.5 20.2 L21.4 20.35 21.35 20.55 21.0 21.3 18.8 22.25 Q18.0 22.65 17.35 22.95 L16.5 25.55 15.55 24.5 15.15 24.05 14.8 23.55 14.1 22.55 14.25 22.35 14.9 21.35 15.8 20.05 16.2 19.5 19.75 19.15 21.6 19.35 21.85 19.4 21.5 20.2" fill="#e6b050" fill-rule="evenodd" stroke="none"/>
      <path d="M42.55 35.85 L43.35 35.8 44.65 35.75 47.4 36.0 48.5 36.15 49.35 39.0 49.6 39.9 49.5 40.2 49.15 41.0 48.5 39.55 48.05 38.55 48.05 39.25 48.0 39.65 47.65 42.3 46.35 43.0 46.2 42.8 45.7 42.1 44.55 43.1 44.35 40.5 43.85 40.1 43.65 39.95 42.4 36.15 42.5 35.95 42.55 35.85 M10.3 29.75 L11.15 30.15 11.5 30.3 11.1 31.0 10.25 32.5 9.35 34.2 8.9 33.25 10.15 30.1 10.3 29.75 M11.55 30.3 L14.95 31.7 14.2 33.65 13.25 36.55 13.0 36.55 12.45 36.45 11.9 34.8 11.3 35.85 11.25 35.75 10.9 35.3 10.75 35.1 10.95 34.05 11.55 30.3" fill="#dd9839" fill-rule="evenodd" stroke="none"/>
      <path d="M41.15 12.2 L40.85 13.8 40.85 13.85 40.55 15.4 40.2 17.25 40.1 17.8 M43.65 23.2 L44.9 22.55 45.1 23.2 45.45 22.25 46.15 20.45 47.25 17.75 M41.4 24.4 L42.25 23.95 43.65 23.2 M45.1 23.2 L45.4 24.0 45.9 25.55 46.7 27.95 47.2 29.4 47.2 29.45 47.3 29.8 49.7 36.3 50.45 38.15 51.5 40.65 51.6 40.8 51.6 40.85 51.55 41.7 51.45 44.2 51.35 45.85 M47.35 29.2 L50.75 25.45 50.95 25.2 51.05 25.1 51.15 24.95 52.95 22.85 M48.4 29.6 L49.05 29.8 M48.15 29.55 L47.45 29.5 47.2 29.45 M47.35 29.2 L47.25 29.3 47.2 29.4 M42.7 30.25 L42.85 31.05 42.9 31.25 43.25 32.85 43.15 33.05 M42.0 27.45 L41.9 27.2 41.25 27.05 40.5 26.75 M23.3 22.55 Q24.65 22.8 26.85 23.85 L29.6 25.25 30.45 24.8 31.3 24.4 32.7 23.75 35.15 25.15 35.55 25.4 39.1 28.1 39.85 28.8 40.2 28.6 40.6 28.3 42.0 27.45 42.15 28.05 42.7 30.25 M42.55 31.65 L42.55 31.4 42.5 31.25 42.5 31.15 42.4 30.1 42.35 29.6 42.15 28.05 M41.65 36.65 L41.6 36.7 41.85 37.8 42.1 39.5 42.1 39.65 42.15 39.7 42.15 39.8 42.2 39.85 42.3 39.9 42.85 40.3 43.65 40.85 44.1 41.15 44.05 41.3 44.05 41.4 43.85 42.2 43.8 42.45 43.8 42.5 43.7 42.95 42.65 46.7 42.65 46.75 42.25 47.35 M42.9 32.4 L42.9 32.15 M42.55 31.65 L42.7 32.5 M41.6 36.65 L41.6 36.7 M38.1 42.6 L38.1 42.95 38.0 43.3 37.25 46.25 36.3 48.7 36.6 48.8 37.0 49.0 37.8 49.4 40.3 48.35 Q41.3 47.9 42.15 47.55 M44.05 41.4 L43.8 42.45 M32.6 6.7 L31.75 5.0 31.65 4.8 31.15 3.65 31.05 3.5 30.85 3.15 30.6 2.65 30.05 1.45 29.35 0.0 M35.55 13.55 L35.5 13.35 35.25 12.8 34.5 10.85 33.25 7.95 32.6 6.7 33.2 8.05 M41.4 24.4 L40.2 25.05 39.75 25.35 39.05 25.7 M36.15 14.9 L35.55 13.55 M17.45 1.85 L17.65 2.35 18.55 4.5 19.3 6.3 20.2 8.4 M15.7 35.85 L17.3 33.95 19.0 32.15 18.55 31.1 18.05 29.35 Q18.85 28.65 19.95 27.8 22.05 26.2 23.05 25.75 L23.05 25.7 22.9 23.25 22.95 22.45 23.3 22.55 M16.5 25.55 L17.35 22.95 Q18.0 22.65 18.8 22.25 L21.0 21.3 21.45 21.2 M22.2 18.8 L22.5 18.9 M16.75 0.35 L17.1 1.1 17.45 1.85 M16.6 0.0 L16.75 0.35 M15.2 0.2 L15.75 0.6 17.2 1.9 17.65 2.35 M15.0 0.0 L15.2 0.2 M15.05 0.0 L15.1 0.05 M5.4 5.5 L5.65 5.65 7.3 6.35 7.4 6.4 7.65 6.5 10.5 8.0 12.15 9.05 12.3 9.15 12.5 9.3 13.2 9.8 M-0.95 23.5 L-0.6 23.55 0.1 23.7 0.8 23.85 3.3 24.35 4.95 24.6 3.45 26.7 2.15 28.2 M3.95 37.3 L4.9 37.2 4.65 36.65 4.55 36.4 Q6.05 32.15 7.95 28.65 10.3 24.3 13.2 21.1 L13.25 21.05 14.4 19.85 17.0 17.55 22.2 18.8 M6.9 17.75 L6.65 17.7 6.2 17.35 5.8 17.0 5.1 16.45 1.9 13.75 1.2 13.15 1.0 13.0 -0.95 11.35 M15.2 31.75 L15.2 31.65 15.35 30.85 Q15.85 27.8 16.5 25.55 M15.7 35.85 L15.5 36.1 15.6 37.25 15.7 38.25 16.2 38.1 18.75 37.55 18.85 37.5 18.7 40.25 18.65 42.9 18.65 43.3 19.1 43.65 19.6 44.0 20.0 44.3 22.85 46.35 25.4 48.05 25.8 48.3 26.15 48.55 27.2 49.2 30.35 51.05 32.05 50.6 35.2 49.65 36.25 49.3 37.0 49.0 M3.95 37.3 L2.95 37.4 2.5 37.4 M14.35 39.95 Q14.4 36.9 15.2 31.75 M5.25 38.0 L4.9 37.2 M18.65 43.3 L18.65 43.55 19.45 44.65 21.4 47.2 18.85 48.1 18.4 48.25 16.25 48.95 M28.25 47.0 L28.0 47.0 27.85 47.0 27.3 47.15 M28.25 47.0 L28.85 47.05 32.65 47.6 36.3 48.7" fill="none" stroke="#8a4323" stroke-linecap="round" stroke-linejoin="round" stroke-width="1.0"/>
      <path d="M54.4 25.15 L54.15 25.2 51.5 25.45 50.9 25.45 50.75 25.45 M16.75 0.35 L15.2 0.2" fill="none" stroke="#38283a" stroke-linecap="round" stroke-linejoin="round" stroke-width="1.0"/>
      <path d="M48.65 15.4 L48.65 15.5 48.65 15.6 48.75 15.55 Q49.6 15.0 50.5 14.8 L51.8 14.6 52.75 14.7 Q53.8 14.85 54.4 15.35 M42.15 5.25 L42.4 5.8 42.4 5.85 Q42.9 7.15 42.9 8.7 L42.85 9.35 42.75 10.0 42.75 10.15 43.9 9.9 44.4 9.95 45.85 10.25 47.0 11.0 Q47.55 11.45 47.95 12.2 L48.5 13.9 48.65 15.35 48.65 15.4 M33.65 2.75 Q35.0 1.9 37.0 1.9 38.75 1.9 40.05 2.75 L40.15 2.85 41.6 4.3 42.15 5.25 M42.75 10.15 L42.75 10.2 42.65 10.65 42.6 10.85 42.4 11.05 42.4 11.1 42.0 11.4 41.15 12.2 41.0 12.35 41.1 10.65 41.1 10.55 41.05 9.65 40.75 8.25 Q40.05 6.6 38.4 6.25 L37.25 6.1 37.0 6.1 Q35.35 6.1 34.3 6.75 L34.2 6.8 Q33.5 7.25 33.25 7.95 L33.2 8.05 M40.85 13.85 L42.15 13.7 Q43.6 13.7 44.65 14.25 L44.7 14.25 44.85 14.35 45.1 14.5 Q45.9 14.95 46.5 15.85 L46.55 15.95 47.15 17.2 47.25 17.7 47.25 17.75 47.3 18.0 47.3 18.15 47.4 18.0 48.15 17.6 48.2 17.6 48.2 17.55 48.35 17.4 48.5 16.35 48.65 15.6 M47.3 18.15 L47.25 18.25 47.15 18.65 47.15 18.7 47.55 18.25 48.15 17.6 M48.2 17.6 Q49.1 17.25 50.25 17.25 L52.15 17.55 Q53.45 18.15 53.45 19.7 53.45 20.6 52.9 21.65 L52.35 23.1 52.8 22.9 52.95 22.85 54.05 22.3 54.25 22.2 54.35 22.05 54.35 21.95 54.4 21.85 M53.8 38.9 L54.0 38.7 54.4 38.2 M54.4 31.35 L53.35 30.05 52.6 29.4 52.4 29.2 52.3 29.1 50.85 28.4 50.2 28.2 49.0 28.95 48.2 29.55 48.4 29.6 M49.05 29.8 L50.4 30.45 50.9 30.85 51.1 31.1 Q52.15 32.2 52.15 34.15 L52.15 34.75 Q52.0 36.25 51.35 37.25 L50.45 38.15 M51.5 40.65 L53.8 38.9 M47.25 29.3 L47.4 29.35 48.2 29.55 48.15 29.55 M41.85 48.3 L43.05 48.9 Q43.05 47.35 44.0 46.2 L44.55 45.55 Q45.5 44.7 46.7 44.4 L48.4 44.15 Q49.7 44.15 50.65 45.0 L51.05 45.4 51.35 45.85 51.5 46.05 51.7 46.45 51.9 47.45 50.8 48.75 50.45 48.5 49.85 48.2 49.8 48.2 47.8 47.9 Q46.15 47.9 45.15 49.05 L44.85 49.4 44.8 49.5 43.25 49.0 43.05 48.9 M31.65 4.8 Q31.95 4.15 32.55 3.65 L32.65 3.5 32.65 3.45 33.65 2.75 M3.75 0.0 Q3.35 0.95 3.35 2.05 3.35 3.5 3.85 4.4 L5.6 5.1 5.4 5.5 4.95 6.35 4.9 6.45 4.85 6.45 1.55 5.35 0.95 4.5 0.65 4.1 0.35 4.05 -0.05 3.1 -0.2 2.0 -0.3 0.5 -0.25 0.0 M0.95 4.5 L0.35 4.05 -0.95 3.75 M-0.95 8.1 L-0.8 7.7 -0.6 7.3 Q-0.2 6.4 0.4 5.95 0.95 5.5 1.65 5.45 L1.55 5.35 M2.15 28.2 L2.2 28.25 Q3.05 29.1 3.7 30.3 4.6 32.05 4.6 33.8 4.6 35.75 3.95 37.3 L3.85 37.55 3.5 38.1 3.4 38.3 2.9 39.0 0.65 39.7 0.05 39.05 M1.0 13.0 L0.05 14.1 -0.95 13.95 M0.55 27.3 L0.8 27.25 2.0 28.1 2.15 28.2 M0.55 27.3 L-0.05 27.45 -0.65 27.55 -0.95 27.65 M-0.95 30.45 L-0.75 30.55 0.05 31.2 Q1.75 32.8 1.75 35.65 L1.5 36.75 1.0 38.45 0.9 38.7 M6.3 37.15 L6.45 37.05 6.55 37.0 6.7 37.0 7.2 36.95 7.55 36.95 9.65 37.25 10.85 37.6 Q12.4 38.15 13.75 39.3 L13.8 39.4 14.35 39.95 15.9 42.0 16.4 42.9 14.85 44.45 14.7 44.65 14.6 44.7 14.55 44.8 14.65 44.7 14.7 44.65 M14.1 43.6 L13.7 42.35 12.9 41.45 11.9 40.8 10.75 40.4 9.45 40.2 8.7 40.2 Q7.2 40.2 6.0 40.75 L5.9 40.85 M5.25 38.0 L6.3 37.15 M5.2 42.9 Q3.45 41.3 3.25 40.4 L4.0 39.4 4.05 39.35 5.25 38.0" fill="none" stroke="#75281e" stroke-linecap="round" stroke-linejoin="round" stroke-width="1.0"/>
      <path d="M53.95 0.4 L53.8 0.0 M54.4 1.6 L53.95 0.4 M51.65 0.0 L50.45 3.8 49.4 6.75 48.85 8.15 48.85 8.3 49.4 10.0 49.5 10.35 50.0 12.25 49.8 12.95 48.75 15.3 48.65 15.4 M46.95 3.65 L47.55 4.95 48.35 6.95 48.6 7.6 48.75 8.0 48.8 8.2 48.85 8.3 M42.75 10.15 L43.2 9.45 44.4 7.45 45.1 6.2 46.65 3.2 46.95 3.65 M42.5 0.15 L42.4 0.0 M42.6 1.25 L42.6 1.05 42.6 0.7 42.6 0.35 42.5 0.15 M42.6 1.25 L42.55 2.0 42.5 2.1 42.35 3.7 42.2 4.8 42.15 5.25 M52.6 29.4 Q53.6 29.65 54.4 30.3 M50.45 48.5 L50.55 48.9 51.7 52.55 52.4 54.45 M54.4 41.7 L53.75 41.55 53.0 41.35 51.6 40.8 M31.05 3.5 L31.2 3.25 31.35 2.9 32.7 0.0 M-0.05 3.1 L-0.95 2.8 M0.9 38.7 L0.05 39.05 -0.95 39.55 M5.9 40.85 L5.65 41.5 5.2 42.8 5.2 42.9 1.45 53.7 1.15 54.45 M14.25 44.1 L14.1 43.6 M14.45 54.45 L14.55 54.2 Q15.2 52.2 16.5 49.65 L16.25 48.95 15.15 46.35 14.55 44.8 14.45 44.6 14.25 44.1 M44.5 52.5 L44.65 51.1 44.7 50.6 44.85 49.4 M44.3 54.45 L44.5 52.5" fill="none" stroke="#94614c" stroke-linecap="round" stroke-linejoin="round" stroke-width="1.0"/>
      <path d="M42.9 32.4 L43.0 32.4 43.1 32.5 43.15 32.65 43.15 33.05 43.15 33.45 43.1 33.6 42.35 35.25 41.65 36.65 41.6 36.65 41.55 36.75 41.1 37.35 40.55 37.45 39.15 37.55 39.1 37.55 39.05 37.3 39.25 36.25 39.5 36.5 39.9 36.7 40.1 36.75 40.55 36.6 41.15 36.15 Q41.2 35.4 41.75 34.05 L42.2 33.05 42.7 32.5 42.9 32.4 M42.15 39.7 L42.1 39.75 41.55 40.55 40.7 41.25 Q39.45 42.25 38.1 42.6 L37.6 42.75 37.4 42.65 36.35 42.3 Q35.3 41.85 34.15 40.8 33.05 39.85 32.7 39.05 L32.5 38.2 32.75 38.2 38.4 38.7 41.9 39.55 42.1 39.65 M22.6 28.2 Q23.7 27.25 25.35 27.25 28.25 27.25 30.2 30.9 L31.1 32.8 31.65 33.9 32.5 35.15 33.45 35.85 34.05 36.1 34.85 36.25 35.85 36.0 36.65 35.55 36.65 36.2 36.6 37.1 35.0 37.0 33.3 36.75 M33.15 36.7 L32.95 36.7 31.0 36.4 M26.5 38.4 Q24.65 39.7 22.7 40.4 L20.2 41.15 Q21.25 39.55 22.15 36.35 L21.65 35.55 20.95 33.65 20.8 32.5 Q20.8 30.1 22.05 28.7 L22.6 28.2" fill="none" stroke="#2a2422" stroke-linecap="round" stroke-linejoin="round" stroke-width="1.0"/>
      <path d="M31.0 36.4 L30.05 37.3 29.85 37.45 28.9 37.95 26.55 38.4 26.5 38.4 Q24.75 38.35 23.7 37.3 22.45 36.0 22.45 33.65 L22.55 32.3 Q22.85 30.75 23.9 30.3 L25.05 31.05 25.65 31.45 26.95 32.4 29.65 34.45 30.1 34.85 30.85 35.55 31.3 35.95 31.0 36.4" fill="none" stroke="#061735" stroke-linecap="round" stroke-linejoin="round" stroke-width="1.0"/>
      <path d="M25.05 31.05 L24.55 31.5 24.15 32.25 Q23.95 32.7 23.9 33.25 L23.85 34.0 Q23.85 35.55 24.7 36.4 25.55 37.2 26.8 37.2 28.0 37.2 29.0 36.45 L29.05 36.4 29.3 36.15 30.1 34.85" fill="none" stroke="#132d77" stroke-linecap="round" stroke-linejoin="round" stroke-width="1.0"/>
    </g>
    <g id="shape2" transform="matrix(1.0, 0.0, 0.0, 1.0, 0.0, 0.0)">
      <path d="M50.5 0.0 Q53.95 0.0 53.95 3.3 L53.95 50.15 Q53.95 53.4 50.5 53.4 L3.3 53.4 Q0.0 53.4 0.0 50.15 L0.0 3.3 Q0.0 0.0 3.3 0.0 L50.5 0.0" fill="#000000" fill-opacity="0.003921569" fill-rule="evenodd" stroke="none"/>
    </g>
  </defs>
</svg>
