<?xml version="1.0" encoding="UTF-8" standalone="no"?>
<svg xmlns:ffdec="https://www.free-decompiler.com/flash" xmlns:xlink="http://www.w3.org/1999/xlink" ffdec:objectType="frame" height="56.85px" width="55.4px" xmlns="http://www.w3.org/2000/svg">
  <g transform="matrix(1.0, 0.0, 0.0, 1.0, 1.45, 0.5)">
    <clipPath id="clipPath0" transform="matrix(1.0, 0.0, 0.0, 1.0, 0.0, 0.0)">
      <path d="M50.5 0.0 Q53.95 0.0 53.95 3.3 L53.95 50.15 Q53.95 53.4 50.5 53.4 L3.3 53.4 Q0.0 53.4 0.0 50.15 L0.0 3.3 Q0.0 0.0 3.3 0.0 L50.5 0.0" fill="#000000" fill-rule="evenodd" stroke="none"/>
    </clipPath>
    <g clip-path="url(#clipPath0)">
      <use ffdec:characterId="2" height="56.85" transform="matrix(1.0, 0.0, 0.0, 1.0, -1.45, -0.5)" width="49.65" xlink:href="#shape1"/>
    </g>
    <use ffdec:characterId="3" height="53.4" transform="matrix(1.0, 0.0, 0.0, 1.0, 0.0, 0.0)" width="53.95" xlink:href="#shape2"/>
  </g>
  <defs>
    <g id="shape1" transform="matrix(1.0, 0.0, 0.0, 1.0, 1.45, 0.5)">
      <path d="M41.95 38.8 L42.0 38.8 40.45 40.75 40.4 40.6 39.25 41.9 Q37.2 43.85 33.5 43.4 30.25 43.0 22.95 39.95 21.85 37.55 21.85 35.35 L21.9 34.8 Q22.95 35.6 24.65 36.3 L24.9 36.4 28.2 37.45 29.7 37.8 30.5 37.8 30.8 35.65 32.85 37.5 35.05 39.25 36.55 40.25 37.2 39.75 37.45 39.25 37.5 39.3 39.0 38.05 Q40.5 39.3 41.85 38.8 L41.85 38.9 41.95 38.8 M23.2 49.85 L23.45 50.05 23.9 50.75 24.65 52.15 Q25.05 52.8 26.4 53.35 L28.35 54.25 Q29.1 54.6 29.65 55.3 L30.15 54.6 30.65 53.9 31.05 53.45 Q31.4 53.55 31.4 53.9 L31.15 54.8 30.75 55.85 29.55 55.85 28.75 55.15 27.45 54.25 26.1 53.9 Q24.9 53.75 24.5 53.45 L24.4 53.35 24.35 53.35 24.3 53.25 23.3 51.05 23.05 50.15 Q23.05 49.8 23.2 49.85" fill="#ffffff" fill-rule="evenodd" stroke="none"/>
      <path d="M5.5 35.65 Q6.55 34.5 6.55 33.65 L6.45 33.15 7.6 32.45 9.7 33.85 10.35 34.95 9.1 35.8 6.65 39.95 Q6.6 41.35 7.75 42.95 6.1 43.7 4.65 44.65 L3.0 45.95 1.85 47.1 -0.95 46.75 -0.95 42.0 0.3 41.55 2.05 40.2 3.0 39.05 3.55 38.05 Q3.8 37.5 3.2 37.6 4.85 36.45 5.5 35.65 M-0.05 49.65 L-0.1 49.55 0.05 49.35 -0.05 49.55 -0.05 49.65 M41.7 0.0 L44.05 10.55 44.05 11.5 Q44.2 17.6 43.4 22.75 L43.0 23.95 42.55 21.15 41.95 16.15 41.15 14.3 40.85 13.7 Q39.95 11.95 38.65 10.35 L36.8 8.15 36.95 7.05 Q39.05 8.0 39.5 8.9 L40.6 10.75 41.7 12.5 41.7 12.25 Q41.9 10.9 41.4 7.25 L40.95 4.45 40.65 3.4 40.4 2.45 39.75 0.2 39.7 0.0 41.7 0.0 M38.75 22.75 L39.75 22.15 Q42.5 33.25 37.5 39.3 L37.45 39.25 29.75 32.35 30.1 31.8 30.5 31.1 30.7 30.75 31.45 29.65 33.65 31.55 Q36.55 33.75 38.1 33.75 38.65 33.75 38.95 31.05 L39.2 27.4 39.05 24.5 38.75 22.75 M20.45 0.0 L22.3 3.6 Q27.05 13.9 27.75 22.4 L27.65 22.4 Q24.05 15.85 18.7 11.75 L13.25 11.35 13.3 9.05 16.05 8.95 17.6 9.1 19.85 9.6 22.4 12.0 19.55 5.75 18.85 4.4 16.45 0.0 20.45 0.0 M12.9 38.2 Q11.3 37.25 10.45 35.1 11.5 36.7 12.9 38.2 M15.85 47.05 L15.75 47.05 15.4 46.7 15.85 47.05 M38.25 55.1 L38.4 54.95 38.95 54.55 39.25 54.65 40.15 54.8 38.25 55.1" fill="#1d1c20" fill-rule="evenodd" stroke="none"/>
      <path d="M5.5 35.65 L3.2 36.75 Q0.35 37.95 -0.25 37.95 L-0.95 37.55 -0.95 34.8 0.1 35.5 Q2.65 35.4 6.45 33.15 L6.55 33.65 Q6.55 34.5 5.5 35.65 M-0.95 39.2 L0.55 38.8 2.75 38.2 Q0.55 39.9 -0.95 40.4 L-0.95 39.2 M41.7 0.0 L43.4 0.0 44.55 4.8 45.85 10.95 45.55 16.85 Q45.3 21.2 44.6 24.1 43.95 24.95 43.0 23.95 L43.4 22.75 Q44.2 17.6 44.05 11.5 L44.05 10.55 41.7 0.0 M28.85 15.95 Q29.5 19.3 29.6 22.6 29.0 23.7 28.2 23.1 L27.8 22.6 27.75 22.4 Q27.05 13.9 22.3 3.6 L20.45 0.0 22.8 0.0 24.65 3.5 25.95 6.45 27.0 9.2 27.25 10.0 27.65 11.1 28.85 15.95" fill="#485466" fill-rule="evenodd" stroke="none"/>
      <path d="M-0.95 37.55 L-0.25 37.95 Q0.35 37.95 3.2 36.75 L5.5 35.65 Q4.85 36.45 3.2 37.6 3.8 37.5 3.55 38.05 L3.0 39.05 2.05 40.2 0.3 41.55 -0.95 42.0 -0.95 40.4 Q0.55 39.9 2.75 38.2 L0.55 38.8 -0.95 39.2 -0.95 37.55 M39.7 0.0 L39.75 0.2 40.4 2.45 40.65 3.4 40.95 4.45 41.4 7.25 Q41.9 10.9 41.7 12.25 L41.7 12.5 40.6 10.75 39.5 8.9 Q39.05 8.0 36.95 7.05 L37.5 3.25 36.0 0.0 39.7 0.0 M36.8 24.1 L38.75 22.75 39.05 24.5 39.2 27.4 38.95 31.05 Q38.65 33.75 38.1 33.75 36.55 33.75 33.65 31.55 L31.45 29.65 34.0 26.6 36.8 24.1 M16.45 0.0 L18.85 4.4 19.55 5.75 22.4 12.0 19.85 9.6 17.6 9.1 16.05 8.95 13.3 9.05 13.45 5.05 9.35 0.0 16.45 0.0 M23.8 54.95 L24.95 54.85 Q26.65 54.85 27.9 55.85 L25.6 55.85 Q24.8 55.25 23.8 54.95" fill="#2b323c" fill-rule="evenodd" stroke="none"/>
      <path d="M12.65 47.75 L12.7 47.75 12.75 47.75 13.4 48.05 16.15 48.7 16.3 48.7 16.7 48.7 17.0 48.7 17.85 48.65 Q19.25 48.45 17.0 47.1 17.25 46.85 17.75 46.7 L19.0 46.4 19.4 46.35 20.7 46.5 22.2 46.75 22.25 46.75 23.05 46.9 25.2 47.15 Q27.25 47.15 28.4 45.55 L28.4 45.5 26.75 45.15 26.6 45.1 21.35 43.45 19.05 42.35 18.95 42.3 17.9 41.65 17.7 41.5 17.1 41.05 16.25 40.25 15.25 38.85 15.85 38.75 16.65 38.65 17.8 38.6 20.7 38.95 22.95 39.95 Q30.25 43.0 33.5 43.4 37.2 43.85 39.25 41.9 L39.3 42.0 39.3 42.1 38.95 43.45 38.2 44.7 37.15 45.95 36.65 46.5 36.45 46.7 Q35.65 47.4 33.8 48.05 L31.35 48.9 31.1 49.0 31.0 49.0 30.1 48.95 29.95 49.0 Q29.5 49.2 29.5 49.95 L29.5 50.05 Q29.65 50.85 31.5 51.65 L31.95 51.8 Q32.35 51.85 33.4 52.25 L34.8 52.55 34.9 52.55 36.9 52.4 37.5 52.3 38.9 52.25 39.1 52.25 39.25 52.25 39.45 52.25 39.7 52.3 39.75 52.3 41.0 52.7 42.1 53.4 42.75 54.1 43.15 54.65 43.45 55.3 43.4 55.35 43.05 55.75 42.95 55.85 37.45 55.85 38.25 55.1 40.15 54.8 39.25 54.65 38.95 54.55 35.85 54.15 Q35.0 54.15 34.15 54.65 L33.05 55.5 32.75 55.85 32.15 55.85 32.5 52.05 29.75 52.8 29.65 52.7 28.7 52.0 28.05 51.8 27.0 52.05 25.45 50.85 25.4 50.8 22.8 47.95 22.65 48.2 21.95 49.75 Q21.4 49.85 20.8 50.3 L20.3 50.75 20.15 50.9 19.95 51.05 19.9 51.1 19.35 51.55 19.1 51.7 17.9 52.15 16.7 52.05 15.25 51.8 14.75 51.9 Q14.5 52.0 14.3 52.2 L14.05 52.45 13.15 53.0 11.7 53.5 Q11.35 53.7 11.25 54.55 L11.25 54.6 10.5 54.6 10.1 55.35 10.0 55.55 9.9 55.85 9.3 55.85 8.6 55.4 8.4 55.3 Q8.1 54.25 8.1 53.45 L8.1 53.4 8.1 52.8 8.15 52.5 8.35 51.5 8.8 50.6 9.8 49.55 10.0 49.35 10.8 48.85 11.05 48.7 11.8 48.3 12.35 47.95 12.65 47.8 12.65 47.75 M43.0 23.95 Q43.95 24.95 44.6 24.1 45.3 21.2 45.55 16.85 48.05 23.0 46.45 28.45 L46.35 28.8 46.25 29.05 44.4 31.85 Q42.7 26.15 39.75 22.15 L38.75 22.75 38.65 22.3 Q35.25 23.25 33.45 24.4 L31.25 25.75 30.7 26.1 27.1 22.4 27.65 22.4 27.8 22.6 28.2 23.1 Q29.0 23.7 29.6 22.6 29.5 19.3 28.85 15.95 L29.2 14.75 29.45 14.35 30.25 13.25 Q30.85 12.5 31.95 11.7 33.0 10.95 34.0 10.55 35.75 9.9 36.95 9.8 L39.6 13.0 40.0 13.55 40.55 14.4 41.15 15.4 42.55 21.15 43.0 23.95 M41.2 17.15 L41.25 16.7 41.05 15.7 40.9 15.45 40.4 14.5 39.85 13.7 39.6 13.4 38.85 12.75 38.75 12.65 Q38.4 12.4 38.25 12.65 38.0 12.8 38.0 13.35 L38.5 14.5 Q38.9 15.95 39.45 16.45 40.2 17.65 40.6 17.65 L41.2 17.15 M41.45 19.35 Q40.95 19.0 40.95 19.75 L41.1 20.4 Q41.3 20.9 41.6 20.9 L41.85 20.6 41.95 20.25 Q41.95 19.65 41.45 19.35 M40.15 54.8 L40.8 54.7 40.15 54.8" fill="#617d92" fill-rule="evenodd" stroke="none"/>
      <path d="M10.35 34.95 L9.7 33.85 8.65 31.8 8.0 29.9 7.65 28.35 7.5 26.85 7.5 26.8 7.45 25.95 5.9 24.95 Q5.05 24.5 5.05 22.95 5.05 21.75 5.45 20.55 L6.1 19.5 Q7.45 17.25 8.65 16.1 L9.35 15.95 Q11.95 15.3 14.5 15.3 L14.95 15.3 16.95 15.55 27.1 22.4 30.7 26.1 31.25 25.75 33.45 24.4 Q35.25 23.25 38.65 22.3 L38.75 22.75 36.8 24.1 Q34.4 25.2 33.15 25.95 30.85 27.3 28.95 29.25 L26.0 26.75 Q20.8 22.65 19.2 22.65 L17.95 22.95 Q17.4 23.2 16.8 23.6 L14.7 25.15 Q13.85 25.75 13.05 26.85 L12.5 27.6 Q12.0 28.35 12.0 30.2 12.0 32.05 14.35 36.15 L15.85 38.75 15.25 38.85 Q13.9 38.8 12.9 38.2 11.5 36.7 10.45 35.1 L10.35 34.9 10.35 34.95 M36.8 8.15 L38.65 10.35 Q39.95 11.95 40.85 13.7 L41.15 14.3 41.95 16.15 42.55 21.15 41.15 15.4 40.55 14.4 40.0 13.55 39.6 13.0 36.95 9.8 Q35.75 9.9 34.0 10.55 33.0 10.95 31.95 11.7 30.85 12.5 30.25 13.25 L29.45 14.35 29.2 14.75 28.85 15.95 27.65 11.1 27.25 10.0 28.95 8.4 Q30.65 7.15 32.65 6.75 34.75 7.2 36.8 8.15 M16.65 38.65 L15.4 35.35 Q14.25 31.95 14.1 30.7 13.95 29.4 14.25 28.6 L14.95 27.4 15.4 27.0 Q17.5 25.45 18.3 25.2 L18.55 25.15 19.05 25.25 20.0 25.8 20.05 25.85 19.5 26.1 18.85 26.45 18.6 26.55 16.0 28.4 Q16.05 32.95 17.8 38.6 L16.65 38.65" fill="#4e5a6d" fill-rule="evenodd" stroke="none"/>
      <path d="M41.45 19.35 Q41.95 19.65 41.95 20.25 L41.85 20.6 41.6 20.9 Q41.3 20.9 41.1 20.4 L40.95 19.75 Q40.95 19.0 41.45 19.35 M41.2 17.15 L40.6 17.65 Q40.2 17.65 39.45 16.45 38.9 15.95 38.5 14.5 L38.0 13.35 Q38.0 12.8 38.25 12.65 38.4 12.4 38.75 12.65 L38.85 12.75 39.6 13.4 39.85 13.7 40.4 14.5 40.9 15.45 41.05 15.7 41.25 16.7 41.2 17.15" fill="#a0afbc" fill-rule="evenodd" stroke="none"/>
      <path d="M39.75 22.15 Q42.7 26.15 44.4 31.85 L40.75 36.3 39.0 38.05 37.5 39.3 Q42.5 33.25 39.75 22.15" fill="#55555e" fill-rule="evenodd" stroke="none"/>
      <path d="M39.0 38.05 L40.75 36.3 44.4 31.85 41.95 38.65 41.95 38.7 41.85 38.8 Q40.5 39.3 39.0 38.05 M20.8 25.9 L22.0 26.65 22.7 27.05 Q25.75 29.05 29.1 31.8 29.7 33.65 29.75 35.35 L29.65 36.75 27.7 36.2 27.6 36.2 27.45 36.15 Q27.4 35.0 26.45 33.0 25.8 31.6 25.05 30.85 L25.2 30.75 25.3 30.65 25.4 30.45 Q25.4 29.45 24.15 29.1 23.05 28.8 22.95 29.55 L22.95 29.7 23.05 29.95 Q22.3 30.0 21.95 30.25 21.5 30.6 21.45 31.35 L21.1 30.55 Q20.75 29.35 20.7 28.2 L20.7 26.95 20.7 26.45 20.8 25.9" fill="#0c507c" fill-rule="evenodd" stroke="none"/>
      <path d="M27.65 22.4 L27.1 22.4 16.95 15.55 14.95 15.3 14.5 15.3 Q11.95 15.3 9.35 15.95 L8.65 16.1 7.85 16.35 8.65 15.45 Q10.8 13.3 13.25 11.35 L18.7 11.75 Q24.05 15.85 27.65 22.4 M25.95 6.45 Q28.6 6.05 31.25 6.45 L32.65 6.75 Q30.65 7.15 28.95 8.4 L27.25 10.0 27.0 9.2 25.95 6.45 M36.8 24.1 L34.0 26.6 31.45 29.65 30.7 30.75 30.5 31.1 30.1 31.8 29.75 32.35 29.1 31.8 Q25.75 29.05 22.7 27.05 L22.0 26.65 20.8 25.9 20.4 25.7 20.05 25.85 20.0 25.8 19.05 25.25 18.55 25.15 18.3 25.2 Q17.5 25.45 15.4 27.0 L14.95 27.4 14.25 28.6 Q13.95 29.4 14.1 30.7 14.25 31.95 15.4 35.35 L16.65 38.65 15.85 38.75 14.35 36.15 Q12.0 32.05 12.0 30.2 12.0 28.35 12.5 27.6 L13.05 26.85 Q13.85 25.75 14.7 25.15 L16.8 23.6 Q17.4 23.2 17.95 22.95 L19.2 22.65 Q20.8 22.65 26.0 26.75 L28.95 29.25 Q30.85 27.3 33.15 25.95 34.4 25.2 36.8 24.1 M7.5 26.8 L7.5 26.85 7.65 28.35 8.0 29.9 7.05 29.3 4.45 27.4 4.1 27.05 1.55 24.7 1.8 24.35 3.75 25.65 Q5.85 26.85 7.3 26.85 L7.45 26.8 7.5 26.8" fill="#384250" fill-rule="evenodd" stroke="none"/>
      <path d="M8.65 16.1 Q7.45 17.25 6.1 19.5 L5.45 20.55 Q5.05 21.75 5.05 22.95 5.05 24.5 5.9 24.95 L7.45 25.95 7.5 26.8 7.45 26.8 7.3 26.85 Q5.85 26.85 3.75 25.65 L1.8 24.35 Q4.05 20.45 7.2 17.0 L7.85 16.35 8.65 16.1" fill="#677b8f" fill-rule="evenodd" stroke="none"/>
      <path d="M29.1 31.8 L29.75 32.35 37.45 39.25 37.2 39.75 36.55 40.25 35.05 39.25 32.85 37.5 30.8 35.65 30.5 37.8 29.7 37.8 28.2 37.45 24.9 36.4 24.65 36.3 Q22.95 35.6 21.9 34.8 L21.85 35.35 Q21.85 37.55 22.95 39.95 L20.7 38.95 17.8 38.6 Q16.05 32.95 16.0 28.4 L18.6 26.55 18.85 26.45 19.5 26.1 20.05 25.85 20.7 26.45 20.7 26.95 20.7 28.2 Q20.75 29.35 21.1 30.55 L21.45 31.35 21.85 32.3 23.9 34.3 Q25.4 35.4 27.45 36.15 L27.6 36.2 27.7 36.2 29.65 36.75 29.75 35.35 Q29.7 33.65 29.1 31.8" fill="#97abaa" fill-rule="evenodd" stroke="none"/>
      <path d="M9.7 33.85 L7.6 32.45 6.1 31.3 Q4.55 30.05 3.4 28.8 2.0 27.3 1.05 25.7 L1.55 24.7 4.1 27.05 4.45 27.4 7.05 29.3 8.0 29.9 8.65 31.8 9.7 33.85" fill="#8a87b6" fill-rule="evenodd" stroke="none"/>
      <path d="M23.05 29.95 L22.95 29.7 22.95 29.55 Q23.05 28.8 24.15 29.1 25.4 29.45 25.4 30.45 L25.3 30.65 25.2 30.75 25.05 30.85 24.65 30.9 Q23.95 30.9 23.45 30.45 L23.05 29.95" fill="#8acffd" fill-rule="evenodd" stroke="none"/>
      <path d="M23.05 29.95 L23.45 30.45 Q23.95 30.9 24.65 30.9 L25.05 30.85 Q25.8 31.6 26.45 33.0 27.4 35.0 27.45 36.15 25.4 35.4 23.9 34.3 L21.85 32.3 21.45 31.35 Q21.5 30.6 21.95 30.25 22.3 30.0 23.05 29.95" fill="#1491e2" fill-rule="evenodd" stroke="none"/>
      <path d="M22.65 48.2 L22.8 47.95 25.4 50.8 25.45 50.85 26.8 52.35 Q27.7 52.6 28.5 53.1 L29.75 52.8 32.5 52.05 32.15 55.85 30.75 55.85 31.15 54.8 31.4 53.9 Q31.4 53.55 31.05 53.45 L30.65 53.9 30.15 54.6 29.65 55.3 Q29.1 54.6 28.35 54.25 L26.4 53.35 Q25.05 52.8 24.65 52.15 L23.9 50.75 23.45 50.05 23.2 49.85 22.65 48.2 M14.0 55.85 L13.7 55.4 18.65 54.8 19.0 54.4 18.7 55.2 18.5 55.85 14.0 55.85" fill="#c8d4ff" fill-rule="evenodd" stroke="none"/>
      <path d="M47.7 52.0 L46.9 51.9 Q46.25 51.9 45.6 52.25 L45.1 52.5 44.75 51.8 Q44.1 50.6 42.85 49.2 L47.1 48.7 Q47.7 50.5 47.7 52.0" fill="#595860" fill-rule="evenodd" stroke="none"/>
      <path d="M40.75 46.85 L42.85 49.2 Q44.1 50.6 44.75 51.8 L44.85 52.7 45.1 52.5 45.6 52.25 Q46.25 51.9 46.9 51.9 L47.7 52.0 47.7 52.25 47.15 52.3 Q46.15 52.45 45.6 53.05 L44.65 54.45 44.65 54.5 44.5 54.7 Q43.7 55.75 43.25 55.75 L43.05 55.75 43.4 55.35 43.45 55.3 43.15 54.65 42.75 54.1 42.1 53.4 41.0 52.7 39.75 52.3 39.7 52.3 39.45 52.25 39.25 52.25 39.1 52.25 38.9 52.25 37.5 52.3 36.9 52.4 34.9 52.55 34.8 52.55 33.4 52.25 Q32.35 51.85 31.95 51.8 L31.5 51.65 Q29.65 50.85 29.5 50.05 L29.5 49.95 Q29.5 49.2 29.95 49.0 L30.1 48.95 31.0 49.0 31.1 49.0 33.65 48.55 34.35 48.3 36.35 47.45 36.4 47.4 37.05 47.05 37.1 47.05 37.6 46.75 37.85 46.65 37.9 46.6 38.25 46.35 39.6 45.1 41.3 42.7 Q41.8 43.85 41.9 45.25 L40.75 46.85 39.45 48.1 39.3 48.3 38.85 48.6 38.7 48.7 38.45 48.85 37.8 49.25 35.45 50.15 32.3 50.55 35.45 50.15 37.8 49.25 38.45 48.85 38.7 48.7 38.85 48.6 39.3 48.3 39.45 48.1 40.75 46.85" fill="#555869" fill-rule="evenodd" stroke="none"/>
      <path d="M9.1 35.8 L10.35 34.95 10.35 34.9 10.45 35.1 Q11.3 37.25 12.9 38.2 13.9 38.8 15.25 38.85 L16.25 40.25 17.1 41.05 17.7 41.5 17.9 41.65 18.95 42.3 19.05 42.35 21.35 43.45 26.6 45.1 26.55 45.15 26.15 45.25 24.8 45.45 20.95 44.75 20.4 44.6 19.1 44.2 19.0 44.15 18.9 44.1 16.6 43.45 13.9 42.9 13.65 43.0 13.55 43.15 13.45 43.45 13.5 43.8 13.6 44.1 13.85 44.6 14.3 45.25 14.65 45.8 Q16.1 46.5 16.95 47.05 L17.0 47.1 Q19.25 48.45 17.85 48.65 L17.0 48.7 16.7 48.7 16.3 48.7 16.15 48.7 Q14.7 48.0 13.55 47.1 L12.35 45.95 11.35 44.75 11.1 44.35 10.6 43.5 10.55 43.4 Q9.7 41.7 9.45 39.7 L9.35 37.95 9.5 36.55 Q9.55 36.3 9.1 35.8 M13.65 45.3 L14.2 45.6 14.65 45.8 14.2 45.6 13.65 45.3 M15.85 47.05 L15.4 46.7 15.75 47.05 15.85 47.05" fill="#364153" fill-rule="evenodd" stroke="none"/>
      <path d="M7.75 42.95 Q6.6 41.35 6.65 39.95 L9.1 35.8 Q9.55 36.3 9.5 36.55 L9.35 37.95 9.45 39.7 Q9.7 41.7 10.55 43.4 L10.6 43.5 11.1 44.35 11.35 44.75 12.35 45.95 13.55 47.1 Q14.7 48.0 16.15 48.7 L13.4 48.05 12.75 47.75 12.7 47.75 12.65 47.7 10.25 45.9 9.8 45.45 9.45 45.1 8.1 43.4 7.75 42.95" fill="#535965" fill-rule="evenodd" stroke="none"/>
      <path d="M1.85 47.1 L3.0 45.95 4.65 44.65 Q6.1 43.7 7.75 42.95 L8.1 43.4 9.45 45.1 9.8 45.45 10.25 45.9 12.65 47.7 12.7 47.75 12.65 47.75 11.6 47.8 10.5 47.85 10.2 47.9 9.55 47.9 8.65 48.0 7.3 48.15 6.45 48.25 5.95 48.3 5.75 48.3 5.65 48.3 5.3 48.35 Q3.6 48.55 2.3 49.0 L0.3 49.85 0.0 49.65 -0.05 49.65 -0.05 49.55 0.05 49.35 0.25 49.0 0.45 48.75 Q1.1 47.85 1.85 47.1 M-0.95 51.85 L-0.9 51.85 0.7 51.75 2.25 51.85 Q3.15 52.0 3.9 52.3 L6.1 53.7 6.75 54.15 7.0 54.3 8.4 55.3 8.6 55.4 9.3 55.85 2.65 55.85 -0.95 55.85 -0.95 55.25 -0.95 51.85 M2.65 55.85 L-0.8 54.95 -0.95 55.25 -0.8 54.95 2.65 55.85" fill="#424355" fill-rule="evenodd" stroke="none"/>
      <path d="M-0.95 46.75 L1.85 47.1 Q1.1 47.85 0.45 48.75 L0.25 49.0 0.05 49.35 -0.1 49.55 -0.05 49.65 -0.4 50.1 -0.6 50.15 -0.95 50.1 -0.95 46.75" fill="#6e7d84" fill-rule="evenodd" stroke="none"/>
      <path d="M-0.95 50.1 L-0.6 50.15 -0.4 50.1 -0.05 49.65 0.0 49.65 0.3 49.85 2.3 49.0 Q3.6 48.55 5.3 48.35 L5.65 48.3 5.75 48.3 5.95 48.3 6.45 48.25 7.3 48.15 8.65 48.0 9.55 47.9 10.2 47.9 10.5 47.85 11.6 47.8 12.65 47.75 12.65 47.8 12.35 47.95 11.8 48.3 11.05 48.7 10.8 48.85 10.0 49.35 9.8 49.55 8.8 50.6 8.35 51.5 8.15 52.5 8.1 52.8 8.1 53.4 8.1 53.45 Q8.1 54.25 8.4 55.3 L7.0 54.3 6.75 54.15 6.1 53.7 3.9 52.3 Q3.15 52.0 2.25 51.85 L0.7 51.75 -0.9 51.85 -0.95 51.85 -0.95 50.1 M11.25 54.6 L12.25 55.85 10.55 55.85 Q10.5 55.3 11.25 54.6" fill="#4a5567" fill-rule="evenodd" stroke="none"/>
      <path d="M17.0 47.1 L16.95 47.05 Q16.1 46.5 14.65 45.8 L14.3 45.25 13.85 44.6 13.6 44.1 13.5 43.8 13.45 43.45 13.55 43.15 13.65 43.0 13.9 42.9 16.6 43.45 18.9 44.1 19.0 44.15 19.1 44.2 20.4 44.6 20.95 44.75 24.8 45.45 26.15 45.25 26.55 45.15 26.6 45.1 26.75 45.15 28.4 45.5 28.4 45.55 Q27.25 47.15 25.2 47.15 L23.05 46.9 22.25 46.75 22.2 46.75 20.7 46.5 19.4 46.35 19.0 46.4 17.75 46.7 Q17.25 46.85 17.0 47.1" fill="#515d6d" fill-rule="evenodd" stroke="none"/>
      <path d="M41.3 42.7 L39.6 45.1 38.25 46.35 37.9 46.6 37.85 46.65 37.6 46.75 37.1 47.05 37.05 47.05 36.4 47.4 36.35 47.45 34.35 48.3 33.65 48.55 31.1 49.0 31.35 48.9 33.8 48.05 Q35.65 47.4 36.45 46.7 L36.65 46.5 37.15 45.95 38.2 44.7 38.95 43.45 39.3 42.1 39.3 42.0 39.25 41.9 40.4 40.6 40.45 40.75 41.3 42.7 M43.05 55.75 L43.25 55.75 Q43.7 55.75 44.5 54.7 L44.65 54.5 44.65 54.45 45.6 53.05 Q46.15 52.45 47.15 52.3 L47.7 52.25 Q47.6 54.35 46.3 55.85 L42.95 55.85 43.05 55.75" fill="#9eb7be" fill-rule="evenodd" stroke="none"/>
      <path d="M38.95 54.55 L38.4 54.95 38.25 55.1 37.05 55.25 36.25 55.85 37.05 55.25 38.25 55.1 37.45 55.85 36.25 55.85 32.75 55.85 33.05 55.5 34.15 54.65 Q35.0 54.15 35.85 54.15 L38.95 54.55" fill="#585b6c" fill-rule="evenodd" stroke="none"/>
      <path d="M29.75 52.8 L28.5 53.1 Q27.7 52.6 26.8 52.35 L25.45 50.85 27.0 52.05 28.05 51.8 28.7 52.0 29.65 52.7 29.75 52.8 M11.25 54.6 L11.25 54.55 Q11.35 53.7 11.7 53.5 L13.15 53.0 14.05 52.45 14.3 52.2 Q14.5 52.0 14.75 51.9 L15.25 51.8 16.7 52.05 17.9 52.15 19.1 51.7 19.35 51.55 19.9 51.1 19.95 51.05 20.15 50.9 20.3 50.75 20.8 50.3 Q21.4 49.85 21.95 49.75 L20.3 53.25 Q19.8 53.6 19.0 54.4 L18.65 54.8 13.7 55.4 14.0 55.85 12.25 55.85 11.25 54.6 M23.8 54.95 Q24.8 55.25 25.6 55.85 L22.0 55.85 Q22.8 55.25 23.8 54.95" fill="#555d70" fill-rule="evenodd" stroke="none"/>
      <path d="M9.9 55.85 L10.0 55.55 10.1 55.35 10.5 54.6 11.25 54.6 Q10.5 55.3 10.55 55.85 L9.9 55.85" fill="#657982" fill-rule="evenodd" stroke="none"/>
      <path d="M22.65 48.2 L23.2 49.85 Q23.05 49.8 23.05 50.15 L23.3 51.05 24.3 53.25 24.35 53.35 24.4 53.35 24.5 53.45 Q24.9 53.75 26.1 53.9 L27.45 54.25 28.75 55.15 29.55 55.85 27.9 55.85 Q26.65 54.85 24.95 54.85 L23.8 54.95 Q22.8 55.25 22.0 55.85 L18.5 55.85 18.7 55.2 19.0 54.4 Q19.8 53.6 20.3 53.25 L21.95 49.75 22.65 48.2" fill="#858aca" fill-rule="evenodd" stroke="none"/>
      <path d="M6.45 33.15 Q2.65 35.4 0.1 35.5 L-0.95 34.8 M-0.95 46.75 L1.85 47.1 3.0 45.95 4.65 44.65 Q6.1 43.7 7.75 42.95 6.6 41.35 6.65 39.95 L9.1 35.8 10.35 34.95 9.7 33.85 7.6 32.45 6.45 33.15 M-0.1 49.55 L0.05 49.35 M0.25 49.0 L0.45 48.75 Q1.1 47.85 1.85 47.1 M12.7 47.75 L12.65 47.7 10.25 45.9 9.8 45.45 9.45 45.1 8.1 43.4 7.75 42.95 M-0.95 55.25 L-0.8 54.95 2.65 55.85 M41.7 0.0 L44.05 10.55 44.05 11.5 Q44.2 17.6 43.4 22.75 L43.0 23.95 Q43.95 24.95 44.6 24.1 45.3 21.2 45.55 16.85 L45.85 10.95 44.55 4.8 43.4 0.0 M36.95 7.05 L36.8 8.15 38.65 10.35 Q39.95 11.95 40.85 13.7 L41.15 14.3 41.95 16.15 42.55 21.15 43.0 23.95 M28.85 15.95 Q29.5 19.3 29.6 22.6 29.0 23.7 28.2 23.1 L27.8 22.6 27.65 22.4 Q24.05 15.85 18.7 11.75 L13.25 11.35 Q10.8 13.3 8.65 15.45 L7.85 16.35 7.2 17.0 Q4.05 20.45 1.8 24.35 L1.55 24.7 1.05 25.7 Q2.0 27.3 3.4 28.8 4.55 30.05 6.1 31.3 L7.6 32.45 M38.75 22.75 L39.75 22.15 Q42.7 26.15 44.4 31.85 L46.25 29.05 46.3 29.0 46.3 28.95 46.25 29.05 M46.35 28.8 L46.45 28.45 Q48.05 23.0 45.55 16.85 M46.3 29.0 L46.35 28.8 M39.0 38.05 L40.75 36.3 44.4 31.85 41.95 38.65 41.95 38.7 41.85 38.8 41.95 38.8 42.0 38.8 42.05 38.75 Q45.25 36.1 46.3 29.0 M41.85 38.8 L41.85 38.9 41.95 38.8 M42.85 49.2 L40.75 46.85 39.45 48.1 39.3 48.3 38.85 48.6 38.7 48.7 38.45 48.85 37.8 49.25 35.45 50.15 32.3 50.55 M40.75 46.85 L41.9 45.25 Q41.8 43.85 41.3 42.7 L40.45 40.75 42.0 38.8 M47.7 52.25 L47.7 52.0 Q47.7 50.5 47.1 48.7 L42.85 49.2 Q44.1 50.6 44.75 51.8 L45.1 52.5 M36.0 0.0 L37.5 3.25 36.95 7.05 M32.65 6.75 L31.25 6.45 Q28.6 6.05 25.95 6.45 L27.0 9.2 27.25 10.0 27.65 11.1 28.85 15.95 M32.65 6.75 Q34.75 7.2 36.8 8.15 M20.45 0.0 L22.3 3.6 Q27.05 13.9 27.75 22.4 L27.8 22.6 M25.95 6.45 L24.65 3.5 22.8 0.0 M38.75 22.75 L36.8 24.1 34.0 26.6 31.45 29.65 30.7 30.75 30.5 31.1 30.1 31.8 29.75 32.35 29.1 31.8 Q25.75 29.05 22.7 27.05 L22.0 26.65 20.8 25.9 20.4 25.7 20.05 25.85 19.5 26.1 18.85 26.45 18.6 26.55 16.0 28.4 Q16.05 32.95 17.8 38.6 L20.7 38.95 22.95 39.95 Q30.25 43.0 33.5 43.4 37.2 43.85 39.25 41.9 L40.4 40.6 40.45 40.75 M13.3 9.05 L13.25 11.35 M9.35 0.0 L13.45 5.05 13.3 9.05 M7.45 25.95 L7.5 26.8 7.5 26.85 7.65 28.35 8.0 29.9 8.65 31.8 9.7 33.85 M15.85 38.75 L16.65 38.65 17.8 38.6 M37.45 39.25 L29.75 32.35 M10.45 35.1 L10.35 34.9 10.35 34.95 M16.15 48.7 L16.3 48.7 16.7 48.7 17.0 48.7 17.85 48.65 Q19.25 48.45 17.0 47.1 L16.95 47.05 Q16.1 46.5 14.65 45.8 L14.2 45.6 13.65 45.3 M15.25 38.85 L15.85 38.75 M26.6 45.1 L21.35 43.45 19.05 42.35 18.95 42.3 17.9 41.65 17.7 41.5 17.1 41.05 16.25 40.25 15.25 38.85 Q13.9 38.8 12.9 38.2 11.3 37.25 10.45 35.1 11.5 36.7 12.9 38.2 M16.15 48.7 L13.4 48.05 12.75 47.75 12.7 47.75 M21.45 31.35 L21.1 30.55 Q20.75 29.35 20.7 28.2 L20.7 26.95 20.7 26.45 20.8 25.9 M27.45 36.15 L27.6 36.2 27.7 36.2 29.65 36.75 29.75 35.35 Q29.7 33.65 29.1 31.8 M21.45 31.35 L21.85 32.3 23.9 34.3 Q25.4 35.4 27.45 36.15 M25.45 50.85 L25.4 50.8 22.8 47.95 22.65 48.2 21.95 49.75 20.3 53.25 Q19.8 53.6 19.0 54.4 L18.65 54.8 13.7 55.4 14.0 55.85 M32.15 55.85 L32.5 52.05 29.75 52.8 28.5 53.1 Q27.7 52.6 26.8 52.35 L25.45 50.85 M28.4 45.5 L26.75 45.15 26.6 45.1 M37.5 39.3 L37.45 39.25 M39.0 38.05 L37.5 39.3 M38.25 55.1 L40.15 54.8 40.8 54.7 M36.25 55.85 L37.05 55.25 38.25 55.1 M11.25 54.6 L12.25 55.85 M27.9 55.85 Q26.65 54.85 24.95 54.85 L23.8 54.95 Q24.8 55.25 25.6 55.85 M23.8 54.95 Q22.8 55.25 22.0 55.85 M46.3 55.85 Q47.6 54.35 47.7 52.25 M41.85 38.8 Q40.5 39.3 39.0 38.05" fill="none" stroke="#230e0d" stroke-linecap="round" stroke-linejoin="round" stroke-width="1.0"/>
    </g>
    <g id="shape2" transform="matrix(1.0, 0.0, 0.0, 1.0, 0.0, 0.0)">
      <path d="M50.5 0.0 Q53.95 0.0 53.95 3.3 L53.95 50.15 Q53.95 53.4 50.5 53.4 L3.3 53.4 Q0.0 53.4 0.0 50.15 L0.0 3.3 Q0.0 0.0 3.3 0.0 L50.5 0.0" fill="#000000" fill-opacity="0.003921569" fill-rule="evenodd" stroke="none"/>
    </g>
  </defs>
</svg>
