<?xml version="1.0" encoding="UTF-8" standalone="no"?>
<svg xmlns:ffdec="https://www.free-decompiler.com/flash" xmlns:xlink="http://www.w3.org/1999/xlink" ffdec:objectType="frame" height="56.35px" width="57.25px" xmlns="http://www.w3.org/2000/svg">
  <g transform="matrix(1.0, 0.0, 0.0, 1.0, 1.45, 0.95)">
    <clipPath id="clipPath0" transform="matrix(1.0, 0.0, 0.0, 1.0, 0.0, 0.0)">
      <path d="M50.5 0.0 Q53.95 0.0 53.95 3.3 L53.95 50.15 Q53.95 53.4 50.5 53.4 L3.3 53.4 Q0.0 53.4 0.0 50.15 L0.0 3.3 Q0.0 0.0 3.3 0.0 L50.5 0.0" fill="#000000" fill-rule="evenodd" stroke="none"/>
    </clipPath>
    <g clip-path="url(#clipPath0)">
      <use ffdec:characterId="2" height="56.35" transform="matrix(1.0, 0.0, 0.0, 1.0, -1.45, -0.95)" width="57.25" xlink:href="#shape1"/>
    </g>
    <use ffdec:characterId="3" height="53.4" transform="matrix(1.0, 0.0, 0.0, 1.0, 0.0, 0.0)" width="53.95" xlink:href="#shape2"/>
  </g>
  <defs>
    <g id="shape1" transform="matrix(1.0, 0.0, 0.0, 1.0, 1.45, 0.95)">
      <path d="M37.4 52.85 L37.45 52.7 38.3 52.65 Q41.25 52.65 43.8 54.9 L39.4 54.9 38.9 54.35 38.85 54.35 38.05 53.5 37.4 52.85" fill="#321939" fill-rule="evenodd" stroke="none"/>
      <path d="M52.15 32.3 L51.7 32.05 51.25 31.95 Q50.75 31.95 50.1 32.7 L49.65 33.1 49.1 33.35 Q48.15 33.35 47.65 32.9 47.35 32.4 47.35 31.75 47.35 30.8 47.95 30.45 L49.25 30.25 Q50.4 30.25 51.1 30.9 L52.15 32.3 52.2 32.3 52.2 32.35 52.15 32.3 M49.65 32.5 L50.1 32.05 50.2 31.6 Q50.2 30.95 49.15 30.6 48.15 30.25 48.1 31.2 L47.9 31.9 Q47.9 32.6 48.9 32.6 L49.65 32.5" fill="#a68f9f" fill-rule="evenodd" stroke="none"/>
      <path d="M51.25 35.15 L51.4 34.85 Q52.1 33.95 53.2 33.85 L53.5 36.95 Q53.5 41.15 51.5 43.85 49.5 46.55 46.45 46.55 L46.05 46.45 46.4 46.45 Q48.3 46.45 49.7 44.7 L50.35 43.7 Q51.8 41.2 51.8 38.1 51.8 36.75 51.25 35.15" fill="#44354c" fill-rule="evenodd" stroke="none"/>
      <path d="M37.45 52.7 L37.55 52.3 43.85 52.05 46.6 54.9 43.8 54.9 Q41.25 52.65 38.3 52.65 L37.45 52.7" fill="#3d909e" fill-rule="evenodd" stroke="none"/>
      <path d="M49.65 32.5 L48.9 32.6 Q47.9 32.6 47.9 31.9 L48.1 31.2 Q48.15 30.25 49.15 30.6 50.2 30.95 50.2 31.6 L50.1 32.05 49.65 32.5 M19.15 29.6 L19.05 29.5 18.9 28.8 18.9 28.6 18.9 28.5 19.4 28.45 Q19.95 28.45 20.25 28.85 L20.45 29.4 20.4 29.7 19.8 29.95 19.15 29.6" fill="#ffffff" fill-rule="evenodd" stroke="none"/>
      <path d="M5.75 54.9 L0.1 54.9 2.4 54.55 5.75 54.9" fill="#37dddd" fill-rule="evenodd" stroke="none"/>
      <path d="M43.45 47.45 L42.85 46.8 Q37.9 50.35 35.5 45.15 L34.95 42.9 35.35 42.55 35.55 42.7 Q36.95 43.7 38.45 43.7 40.5 43.7 41.7 42.05 42.55 40.8 43.3 38.2 L44.35 39.7 45.65 40.45 45.7 40.8 45.75 41.05 Q45.75 42.15 45.05 43.1 L44.35 44.3 44.35 44.35 Q44.35 45.0 44.7 45.5 L44.45 46.0 43.45 47.45 M31.8 45.45 L31.85 48.0 32.5 52.1 29.65 51.9 Q27.5 52.05 25.75 53.2 L25.15 53.6 24.85 53.85 Q23.45 51.35 20.95 48.85 18.45 46.45 16.1 45.15 15.25 46.15 14.95 46.75 14.65 47.35 14.5 47.9 L14.0 47.7 11.65 46.9 14.1 40.05 15.25 41.45 15.95 42.25 Q19.35 45.85 25.15 49.1 L27.8 48.95 28.95 47.8 31.8 45.45 M8.15 54.9 L5.75 54.9 2.4 54.55 10.45 50.0 12.6 51.25 8.15 54.9 M1.65 46.35 L0.95 46.75 -0.95 47.45 -0.95 37.95 -0.15 39.15 Q1.7 42.35 1.7 45.25 L1.65 46.35 M43.6 45.5 L42.85 46.8 43.6 45.5" fill="#754c5a" fill-rule="evenodd" stroke="none"/>
      <path d="M2.0 -0.45 L2.55 2.45 2.6 2.65 2.6 2.7 1.85 4.85 Q1.1 7.25 1.0 10.0 L1.15 11.6 2.35 15.0 4.3 19.55 5.15 21.4 Q5.4 25.3 7.45 29.7 L7.75 30.3 5.95 30.3 5.6 30.3 7.25 32.85 5.25 30.9 Q3.35 29.1 1.45 29.0 L-0.8 28.9 -0.95 28.9 -0.95 -0.45 2.0 -0.45 M34.55 5.95 Q32.7 4.4 30.5 3.65 L30.9 -0.45 34.85 -0.45 Q37.15 3.3 38.05 6.45 37.55 7.05 37.35 8.4 L37.25 8.95 Q36.0 7.2 34.55 5.95 M39.4 54.9 L39.35 54.9 38.6 54.9 38.05 54.35 37.9 54.2 37.85 54.1 38.05 53.5 38.85 54.35 38.9 54.35 39.4 54.9 M17.7 54.9 L8.15 54.9 12.6 51.25 Q15.3 52.9 17.7 54.9 M14.5 47.9 Q14.65 47.35 14.95 46.75 15.25 46.15 16.1 45.15 18.45 46.45 20.95 48.85 23.45 51.35 24.85 53.85 L24.2 54.45 Q20.15 50.2 14.5 47.9 M38.85 54.35 L39.35 54.9 38.85 54.35" fill="#cd6157" fill-rule="evenodd" stroke="none"/>
      <path d="M23.8 2.7 L24.35 2.65 Q30.15 2.8 34.55 5.95 36.0 7.2 37.25 8.95 L37.35 8.4 38.85 10.15 38.85 10.3 37.75 9.55 Q36.75 8.85 35.4 8.4 L33.0 7.95 Q29.5 7.95 27.05 10.9 L26.45 11.7 Q25.75 7.6 24.25 3.85 L23.8 2.7 M24.65 17.45 L24.65 17.65 Q24.65 20.55 26.1 23.7 21.1 17.9 14.2 14.4 11.75 12.95 12.15 9.55 L10.5 11.35 Q9.2 13.05 8.6 15.3 8.1 18.45 11.2 22.35 L9.7 24.4 Q8.2 23.7 6.7 22.5 6.3 25.2 8.0 27.85 L7.9 28.25 7.45 29.7 Q5.4 25.3 5.15 21.4 5.0 19.75 5.2 18.25 5.45 16.15 6.2 14.25 8.9 7.3 15.6 4.55 L15.9 4.75 16.3 5.2 17.85 7.2 19.2 9.2 Q17.95 9.35 17.7 10.1 17.45 10.95 18.45 12.5 22.5 16.4 24.65 17.45 M29.6 29.3 L32.75 32.7 Q34.85 34.55 36.25 34.25 L36.25 34.45 Q35.1 35.4 33.05 34.4 L31.65 33.55 30.55 32.55 Q30.35 31.0 29.6 29.3" fill="#24798d" fill-rule="evenodd" stroke="none"/>
      <path d="M42.5 16.55 L43.3 18.75 Q41.7 23.55 40.05 25.75 L37.45 29.65 Q36.55 31.2 36.3 32.9 L36.25 34.25 Q34.85 34.55 32.75 32.7 L29.6 29.3 Q28.75 27.25 27.1 24.95 L27.0 24.8 26.1 23.7 Q24.65 20.55 24.65 17.65 L24.65 17.45 Q26.7 18.4 26.95 16.75 L26.45 11.7 27.05 10.9 Q29.5 7.95 33.0 7.95 L35.4 8.4 Q36.75 8.85 37.75 9.55 L38.85 10.3 38.9 10.75 39.05 11.6 38.7 11.35 Q38.2 12.65 38.1 13.85 L38.1 14.15 Q36.75 13.3 35.4 13.3 33.25 13.3 31.9 14.7 L31.45 15.2 31.25 15.45 31.05 15.8 Q29.95 17.65 29.95 19.9 29.95 22.7 31.75 24.95 L32.0 25.25 Q33.95 27.5 36.3 27.5 38.0 27.5 39.15 26.3 L39.9 25.35 39.95 25.25 Q41.1 23.2 41.1 20.15 L41.1 19.25 42.05 17.95 42.5 16.55 M38.9 10.75 L38.7 11.35 38.9 10.75" fill="#35dac9" fill-rule="evenodd" stroke="none"/>
      <path d="M28.65 54.9 L17.7 54.9 Q15.3 52.9 12.6 51.25 L10.45 50.0 11.65 46.9 14.0 47.7 14.5 47.9 Q20.15 50.2 24.2 54.45 L24.85 53.85 25.15 53.6 25.75 53.2 Q27.5 52.05 29.65 51.9 29.0 53.5 28.65 54.9" fill="#2f1634" fill-rule="evenodd" stroke="none"/>
      <path d="M31.85 48.0 L37.4 52.85 38.05 53.5 37.85 54.1 37.9 54.2 38.05 54.35 38.6 54.9 32.4 54.9 31.55 54.85 31.25 54.9 28.65 54.9 Q29.0 53.5 29.65 51.9 L32.5 52.1 31.85 48.0" fill="#332348" fill-rule="evenodd" stroke="none"/>
      <path d="M47.6 27.6 Q51.0 26.45 53.6 31.45 L54.75 34.1 53.45 33.8 53.2 33.85 Q52.1 33.95 51.4 34.85 L51.25 35.15 51.15 34.9 Q50.8 34.4 50.6 34.65 49.7 35.9 48.05 35.9 47.15 35.9 46.4 35.45 L45.45 34.6 45.2 34.25 Q47.6 32.3 47.0 28.65 L47.35 28.05 47.6 27.6 M52.15 32.3 L51.1 30.9 Q50.4 30.25 49.25 30.25 L47.95 30.45 Q47.35 30.8 47.35 31.75 47.35 32.4 47.65 32.9 48.15 33.35 49.1 33.35 L49.65 33.1 50.1 32.7 Q50.75 31.95 51.25 31.95 L51.7 32.05 52.15 32.3 52.2 32.35 52.2 32.3 52.15 32.3" fill="#30183a" fill-rule="evenodd" stroke="none"/>
      <path d="M54.75 34.1 Q56.55 40.05 52.7 46.15 L51.5 47.65 49.95 48.9 Q46.85 50.85 43.45 47.45 L44.45 46.0 44.7 45.5 45.05 45.85 46.05 46.45 46.45 46.55 Q49.5 46.55 51.5 43.85 53.5 41.15 53.5 36.95 L53.2 33.85 53.45 33.8 54.75 34.1" fill="#60336a" fill-rule="evenodd" stroke="none"/>
      <path d="M46.05 46.45 L45.05 45.85 44.7 45.5 Q44.35 45.0 44.35 44.35 L44.35 44.3 45.05 43.1 Q45.75 42.15 45.75 41.05 L45.7 40.8 45.65 40.45 44.35 39.7 43.3 38.2 42.7 36.95 42.5 36.05 Q43.55 35.3 44.3 34.85 L45.2 34.25 45.45 34.6 46.4 35.45 Q47.15 35.9 48.05 35.9 49.7 35.9 50.6 34.65 50.8 34.4 51.15 34.9 L51.25 35.15 Q51.8 36.75 51.8 38.1 51.8 41.2 50.35 43.7 L49.7 44.7 Q48.3 46.45 46.4 46.45 L46.05 46.45 M50.65 36.95 Q49.15 41.95 45.65 40.45 49.15 41.95 50.65 36.95" fill="#2e1a35" fill-rule="evenodd" stroke="none"/>
      <path d="M8.05 33.8 L7.9 35.3 7.3 38.1 6.4 40.75 Q4.45 44.65 1.65 46.35 L1.7 45.25 Q1.7 42.35 -0.15 39.15 L-0.95 37.95 -0.95 28.9 -0.8 28.9 1.45 29.0 Q3.35 29.1 5.25 30.9 L7.25 32.85 8.05 33.8 M42.5 36.05 L42.7 36.95 43.3 38.2 Q42.55 40.8 41.7 42.05 40.5 43.7 38.45 43.7 36.95 43.7 35.55 42.7 L35.35 42.55 36.8 41.3 39.8 37.95 40.05 37.65 42.5 36.05" fill="#94575e" fill-rule="evenodd" stroke="none"/>
      <path d="M2.6 2.65 Q3.45 0.7 4.55 -0.45 L10.4 -0.45 11.85 -0.45 12.9 0.45 Q14.75 2.05 15.6 3.45 L16.05 4.35 16.3 5.2 15.9 4.75 15.6 4.55 15.45 4.45 Q13.75 3.4 12.0 2.75 9.35 1.7 6.85 1.8 4.5 4.3 3.55 8.1 L3.15 10.0 3.0 11.35 5.2 18.25 Q5.0 19.75 5.15 21.4 L4.3 19.55 2.35 15.0 1.15 11.6 1.0 10.0 Q1.1 7.25 1.85 4.85 L2.6 2.7 2.6 2.65 M10.4 -0.45 L10.8 -0.15 Q13.25 1.7 15.5 4.25 L15.7 4.5 15.9 4.75 15.7 4.5 15.5 4.25 Q13.25 1.7 10.8 -0.15 L10.4 -0.45" fill="#97578b" fill-rule="evenodd" stroke="none"/>
      <path d="M15.95 42.25 Q17.75 40.5 20.1 38.85 L22.25 37.5 22.2 38.3 22.25 39.15 Q22.5 41.35 23.95 43.5 23.55 43.8 23.45 44.4 L23.7 44.4 23.9 44.15 24.35 44.0 24.8 44.65 Q26.7 46.9 28.95 47.8 L27.8 48.95 25.15 49.1 Q19.35 45.85 15.95 42.25" fill="#cc9f76" fill-rule="evenodd" stroke="none"/>
      <path d="M34.95 42.9 L31.8 45.45 28.95 47.8 Q26.7 46.9 24.8 44.65 L24.35 44.0 28.2 43.8 28.25 43.6 28.0 43.05 27.4 42.95 25.0 43.1 23.95 43.5 Q22.5 41.35 22.25 39.15 L22.2 38.3 22.25 37.5 23.6 36.7 26.25 39.6 26.85 40.25 Q28.8 38.6 29.8 36.4 31.8 37.65 34.1 39.8 L34.15 39.75 34.95 39.1 36.4 37.9 36.4 38.15 37.5 40.4 39.8 37.95 36.8 41.3 35.35 42.55 34.95 42.9" fill="#fddcac" fill-rule="evenodd" stroke="none"/>
      <path d="M32.4 54.9 L31.25 54.9 31.55 54.85 32.4 54.9 M41.1 19.25 L41.1 20.15 Q41.1 23.2 39.95 25.25 L39.9 25.35 39.15 26.3 Q38.0 27.5 36.3 27.5 33.95 27.5 32.0 25.25 L31.75 24.95 Q29.95 22.7 29.95 19.9 29.95 17.65 31.05 15.8 L31.25 15.45 31.45 15.2 31.9 14.7 Q33.25 13.3 35.4 13.3 36.75 13.3 38.1 14.15 38.05 15.3 38.45 16.4 L37.8 15.75 37.4 15.4 Q36.65 14.8 35.95 14.8 34.95 14.8 34.35 15.45 L34.0 15.9 33.85 16.15 33.75 16.5 33.65 17.35 33.9 18.75 34.6 20.2 35.75 21.4 36.85 21.7 Q37.85 21.7 38.45 20.85 39.0 20.05 39.0 18.95 L39.0 18.65 38.95 17.75 Q39.3 18.6 39.8 19.1 40.4 19.75 41.1 19.25" fill="#75f1bb" fill-rule="evenodd" stroke="none"/>
      <path d="M38.95 17.75 L39.0 18.65 39.0 18.95 Q39.0 20.05 38.45 20.85 37.85 21.7 36.85 21.7 L35.75 21.4 34.6 20.2 33.9 18.75 33.65 17.35 33.75 16.5 33.85 16.15 34.0 15.9 34.35 15.45 Q34.95 14.8 35.95 14.8 36.65 14.8 37.4 15.4 L37.8 15.75 38.45 16.4 38.75 17.25 38.95 17.75" fill="#a0fac9" fill-rule="evenodd" stroke="none"/>
      <path d="M43.6 7.7 Q43.7 10.9 43.15 13.85 L42.5 16.55 42.05 17.95 41.1 19.25 Q40.4 19.75 39.8 19.1 39.3 18.6 38.95 17.75 L38.75 17.25 38.45 16.4 Q38.05 15.3 38.1 14.15 L38.1 13.85 Q38.2 12.65 38.7 11.35 L39.05 11.6 38.9 10.75 38.85 10.3 38.85 10.15 38.05 6.45 Q38.7 5.65 39.7 5.65 41.85 5.65 43.6 7.7 M26.45 11.7 L26.95 16.75 Q26.7 18.4 24.65 17.45 22.5 16.4 18.45 12.5 17.45 10.95 17.7 10.1 17.95 9.35 19.2 9.2 L17.85 7.2 Q18.0 6.55 18.3 5.8 19.05 3.85 20.0 3.2 L21.1 2.8 21.85 2.9 22.6 3.1 24.25 3.85 Q25.75 7.6 26.45 11.7 M38.75 36.25 Q38.55 30.7 43.8 25.6 L43.9 27.85 Q40.2 29.1 38.75 36.25 M20.9 11.85 L19.2 9.2 20.9 11.85 M39.05 11.6 L39.15 13.25 39.05 11.6 M30.3 35.25 L30.35 35.0 30.45 34.85 30.55 34.0 31.85 34.75 33.25 35.45 34.45 35.75 36.25 35.3 36.4 37.9 34.95 39.1 33.75 38.0 31.8 36.4 30.3 35.25 M16.5 22.9 L16.75 23.0 17.35 23.3 Q24.35 26.55 25.5 32.45 L25.7 34.65 25.15 32.55 Q23.2 27.8 16.1 25.5 L16.5 22.9 M22.45 36.25 L23.1 36.45 22.3 37.05 22.45 36.25 M23.95 43.5 L25.0 43.1 27.4 42.95 28.0 43.05 28.25 43.6 28.2 43.8 24.35 44.0 23.95 43.5" fill="#d85abe" fill-rule="evenodd" stroke="none"/>
      <path d="M14.1 40.05 L11.2 36.2 12.5 36.65 Q17.2 34.65 22.45 36.25 L22.3 37.05 23.1 36.45 23.5 36.6 23.6 36.7 22.25 37.5 20.1 38.85 Q17.75 40.5 15.95 42.25 L15.25 41.45 14.1 40.05 M29.8 36.4 L30.3 35.25 31.8 36.4 33.75 38.0 34.95 39.1 34.15 39.75 34.1 39.8 Q31.8 37.65 29.8 36.4 M30.55 34.0 L30.55 32.55 31.65 33.55 33.05 34.4 Q35.1 35.4 36.25 34.45 L36.25 35.3 34.45 35.75 33.25 35.45 31.85 34.75 30.55 34.0 M13.85 25.25 Q11.8 25.35 9.7 24.4 L11.2 22.35 13.75 25.1 13.85 25.25 M10.1 30.3 L7.75 30.3 7.45 29.7 7.9 28.25 8.0 27.85 Q8.8 29.1 10.1 30.3 M24.35 44.0 L23.9 44.15 23.7 44.4 23.45 44.4 Q23.55 43.8 23.95 43.5 L24.35 44.0" fill="#975293" fill-rule="evenodd" stroke="none"/>
      <path d="M2.0 -0.45 L4.55 -0.45 Q3.45 0.7 2.6 2.65 L2.55 2.45 2.0 -0.45 M11.85 -0.45 L22.3 -0.45 23.8 2.7 24.25 3.85 22.6 3.1 21.85 2.9 21.1 2.8 20.0 3.2 Q19.05 3.85 18.3 5.8 18.0 6.55 17.85 7.2 L16.3 5.2 16.05 4.35 15.6 3.45 Q14.75 2.05 12.9 0.45 L11.85 -0.45 M34.85 -0.45 L42.4 -0.45 Q43.5 3.8 43.6 7.7 41.85 5.65 39.7 5.65 38.7 5.65 38.05 6.45 37.15 3.3 34.85 -0.45" fill="#d86393" fill-rule="evenodd" stroke="none"/>
      <path d="M43.3 18.75 L43.4 18.4 Q45.05 13.4 43.95 9.85 45.45 11.65 46.8 14.5 48.2 17.35 47.65 21.05 L48.15 22.5 48.45 24.1 Q48.45 25.8 47.6 27.6 L47.35 28.05 47.0 28.65 Q47.6 32.3 45.2 34.25 L44.3 34.85 Q43.55 35.3 42.5 36.05 L40.05 37.65 42.45 35.4 42.5 35.35 42.85 35.0 44.5 33.55 44.75 33.3 45.7 32.0 45.8 31.75 46.0 30.0 45.15 30.9 45.05 30.6 45.8 29.1 46.25 28.25 46.55 27.4 47.3 24.3 47.15 23.4 46.1 25.4 45.95 24.7 46.4 23.25 46.8 21.05 Q46.8 19.2 45.6 15.25 45.25 18.45 43.95 21.45 42.95 23.65 41.4 25.7 38.65 29.35 37.55 31.85 L37.2 33.35 37.05 34.7 Q36.9 35.95 37.05 36.95 L37.1 37.2 37.5 40.4 36.4 38.15 36.4 37.9 36.25 35.3 36.25 34.45 36.25 34.25 36.3 32.9 Q36.55 31.2 37.45 29.65 L40.05 25.75 Q41.7 23.55 43.3 18.75 M26.1 23.7 L27.0 24.8 27.1 24.95 Q28.75 27.25 29.6 29.3 30.35 31.0 30.55 32.55 L30.55 34.0 30.45 34.85 30.35 35.0 30.3 35.25 29.8 36.4 Q28.8 38.6 26.85 40.25 L26.25 39.6 Q27.45 37.55 28.25 35.5 L28.6 34.55 28.7 34.25 28.7 32.8 27.85 30.2 Q26.8 27.8 24.5 24.55 19.35 19.1 12.85 15.9 9.95 13.9 10.5 11.35 L12.15 9.55 Q11.75 12.95 14.2 14.4 21.1 17.9 26.1 23.7 M47.65 21.05 Q47.6 22.25 47.15 23.4 47.6 22.25 47.65 21.05 M46.0 30.0 L47.0 28.65 46.0 30.0 M6.7 22.5 Q8.2 23.7 9.7 24.4 11.8 25.35 13.85 25.25 L13.9 25.3 Q13.6 26.95 12.6 26.9 L10.45 26.3 9.05 25.5 8.85 25.35 7.3 23.65 6.7 22.5 M16.75 23.0 L16.5 22.9 16.1 25.5 Q15.95 27.05 16.35 28.4 17.1 30.95 19.95 32.35 L24.5 34.45 25.6 35.0 25.3 34.95 23.2 34.3 Q18.45 32.8 17.0 31.45 14.85 29.55 14.85 24.7 L14.85 23.3 Q14.95 22.25 15.35 22.25 15.65 22.25 16.4 22.8 L16.75 23.0 M10.55 30.75 L10.65 31.2 Q10.65 31.8 9.7 31.8 L8.35 31.55 8.1 31.45 7.45 31.2 5.95 30.3 7.75 30.3 10.1 30.3 10.55 30.75 M30.1 33.4 Q30.1 32.6 29.45 32.4 28.95 32.25 28.9 32.9 L28.85 33.25 Q28.85 34.05 29.5 34.05 30.0 34.05 30.1 33.7 L30.1 33.4" fill="#9e475a" fill-rule="evenodd" stroke="none"/>
      <path d="M11.2 36.2 Q9.5 35.4 8.05 33.8 L7.25 32.85 5.6 30.3 5.95 30.3 7.45 31.2 8.1 31.45 8.35 31.55 9.7 31.8 Q10.65 31.8 10.65 31.2 L10.55 30.75 11.0 31.1 10.55 30.75 10.1 30.3 Q8.8 29.1 8.0 27.85 6.3 25.2 6.7 22.5 L7.3 23.65 8.85 25.35 9.05 25.5 10.45 26.3 12.6 26.9 Q13.6 26.95 13.9 25.3 L13.85 25.25 13.75 25.1 11.2 22.35 Q8.1 18.45 8.6 15.3 9.2 13.05 10.5 11.35 9.95 13.9 12.85 15.9 19.35 19.1 24.5 24.55 26.8 27.8 27.85 30.2 L28.7 32.8 28.7 34.25 28.6 34.55 28.25 35.5 Q27.45 37.55 26.25 39.6 L23.6 36.7 23.5 36.6 23.1 36.45 22.45 36.25 Q17.2 34.65 12.5 36.65 L11.2 36.2 M47.15 23.4 L47.3 24.3 46.55 27.4 46.25 28.25 45.8 29.1 45.05 30.6 45.15 30.9 46.0 30.0 45.8 31.75 45.7 32.0 44.75 33.3 44.5 33.55 42.85 35.0 42.5 35.35 42.45 35.4 40.05 37.65 39.8 37.95 37.5 40.4 37.1 37.2 37.05 36.95 Q36.9 35.95 37.05 34.7 L37.2 33.35 37.55 31.85 Q38.65 29.35 41.4 25.7 42.95 23.65 43.95 21.45 45.25 18.45 45.6 15.25 46.8 19.2 46.8 21.05 L46.4 23.25 45.95 24.7 46.1 25.4 47.15 23.4 M45.9 25.7 L46.1 25.4 45.9 25.7 M43.9 27.85 L43.8 25.6 Q38.55 30.7 38.75 36.25 L38.75 36.5 Q41.0 35.15 42.9 32.7 43.85 30.0 43.9 27.85 M25.7 34.65 L25.5 32.45 Q24.35 26.55 17.35 23.3 L16.75 23.0 16.4 22.8 Q15.65 22.25 15.35 22.25 14.95 22.25 14.85 23.3 L14.85 24.7 Q14.85 29.55 17.0 31.45 18.45 32.8 23.2 34.3 L25.3 34.95 25.6 35.0 25.7 35.0 25.7 34.65" fill="#5b2a42" fill-rule="evenodd" stroke="none"/>
      <path d="M24.5 34.45 L19.95 32.35 Q17.1 30.95 16.35 28.4 L17.35 28.25 18.85 28.55 18.9 28.6 18.9 28.8 19.05 29.5 19.15 29.6 Q19.2 30.55 19.8 31.2 20.55 32.05 21.75 32.05 L22.75 31.9 23.2 31.7 23.75 32.7 24.05 33.25 24.5 34.45" fill="#3d1a59" fill-rule="evenodd" stroke="none"/>
      <path d="M43.9 27.85 Q43.85 30.0 42.9 32.7 41.0 35.15 38.75 36.5 L38.75 36.25 Q40.2 29.1 43.9 27.85 M16.1 25.5 Q23.2 27.8 25.15 32.55 L25.7 34.65 25.7 35.0 25.6 35.0 24.5 34.45 24.05 33.25 23.75 32.7 23.2 31.7 22.75 31.9 21.75 32.05 Q20.55 32.05 19.8 31.2 19.2 30.55 19.15 29.6 L19.8 29.95 20.4 29.7 20.45 29.4 20.25 28.85 Q19.95 28.45 19.4 28.45 L18.9 28.5 18.9 28.6 18.85 28.55 17.35 28.25 16.35 28.4 Q15.95 27.05 16.1 25.5" fill="#251037" fill-rule="evenodd" stroke="none"/>
      <path d="M30.1 33.4 L30.1 33.7 Q30.0 34.05 29.5 34.05 28.85 34.05 28.85 33.25 L28.9 32.9 Q28.95 32.25 29.45 32.4 30.1 32.6 30.1 33.4" fill="#c57c8c" fill-rule="evenodd" stroke="none"/>
      <path d="M22.3 -0.45 L23.8 2.7 24.35 2.65 Q30.15 2.8 34.55 5.95 M30.5 3.65 L30.9 -0.45 M42.4 -0.45 Q43.5 3.8 43.6 7.7 43.7 10.9 43.15 13.85 L42.5 16.55 43.3 18.75 43.4 18.4 Q45.05 13.4 43.95 9.85 45.45 11.65 46.8 14.5 48.2 17.35 47.65 21.05 L48.15 22.5 48.45 24.1 Q48.45 25.8 47.6 27.6 51.0 26.45 53.6 31.45 L54.75 34.1 Q56.55 40.05 52.7 46.15 L51.5 47.65 49.95 48.9 Q46.85 50.85 43.45 47.45 L42.85 46.8 Q37.9 50.35 35.5 45.15 L34.95 42.9 31.8 45.45 31.85 48.0 37.4 52.85 37.45 52.7 37.55 52.3 43.85 52.05 46.6 54.9 M0.1 54.9 L2.4 54.55 10.45 50.0 11.65 46.9 14.1 40.05 11.2 36.2 Q9.5 35.4 8.05 33.8 L7.9 35.3 7.3 38.1 6.4 40.75 Q4.45 44.65 1.65 46.35 L0.95 46.75 -0.95 47.45 M15.9 4.75 L15.7 4.5 15.5 4.25 Q13.25 1.7 10.8 -0.15 L10.4 -0.45 M41.1 19.25 L42.05 17.95 42.5 16.55 M41.1 19.25 Q40.4 19.75 39.8 19.1 39.3 18.6 38.95 17.75 L38.75 17.25 38.45 16.4 Q38.05 15.3 38.1 14.15 L38.1 13.85 Q38.2 12.65 38.7 11.35 L38.9 10.75 38.85 10.3 38.85 10.15 38.05 6.45 Q37.15 3.3 34.85 -0.45 M26.45 11.7 L26.95 16.75 Q26.7 18.4 24.65 17.45 22.5 16.4 18.45 12.5 17.45 10.95 17.7 10.1 17.95 9.35 19.2 9.2 L20.9 11.85 M26.1 23.7 L27.0 24.8 27.1 24.95 Q28.75 27.25 29.6 29.3 30.35 31.0 30.55 32.55 L30.55 34.0 30.45 34.85 30.35 35.0 30.3 35.25 29.8 36.4 Q28.8 38.6 26.85 40.25 L26.25 39.6 23.6 36.7 23.5 36.6 23.1 36.45 22.45 36.25 Q17.2 34.65 12.5 36.65 L11.2 36.2 M36.25 34.25 L36.3 32.9 Q36.55 31.2 37.45 29.65 L40.05 25.75 Q41.7 23.55 43.3 18.75 M47.15 23.4 L46.1 25.4 45.9 25.7 M47.15 23.4 Q47.6 22.25 47.65 21.05 M45.2 34.25 L44.3 34.85 Q43.55 35.3 42.5 36.05 L42.7 36.95 43.3 38.2 44.35 39.7 45.65 40.45 Q49.15 41.95 50.65 36.95 M47.6 27.6 L47.35 28.05 47.0 28.65 Q47.6 32.3 45.2 34.25 M47.0 28.65 L46.0 30.0 45.15 30.9 M40.05 37.65 L42.5 36.05 M38.75 36.25 Q38.55 30.7 43.8 25.6 L43.9 27.85 Q43.85 30.0 42.9 32.7 41.0 35.15 38.75 36.5 L38.75 36.25 M35.35 42.55 L34.95 42.9 M42.85 46.8 L43.6 45.5 M39.05 11.6 L38.9 10.75 M37.35 8.4 L38.85 10.15 M24.25 3.85 L23.8 2.7 M26.45 11.7 Q25.75 7.6 24.25 3.85 M17.85 7.2 L19.2 9.2 M39.15 13.25 L39.05 11.6 M5.2 18.25 L3.0 11.35 3.15 10.0 3.55 8.1 Q4.5 4.3 6.85 1.8 9.35 1.7 12.0 2.75 13.75 3.4 15.45 4.45 L15.6 4.55 15.9 4.75 16.3 5.2 17.85 7.2 M26.1 23.7 Q21.1 17.9 14.2 14.4 11.75 12.95 12.15 9.55 L10.5 11.35 Q9.2 13.05 8.6 15.3 8.1 18.45 11.2 22.35 L13.75 25.1 M5.15 21.4 Q5.0 19.75 5.2 18.25 5.45 16.15 6.2 14.25 8.9 7.3 15.6 4.55 M9.7 24.4 Q8.2 23.7 6.7 22.5 6.3 25.2 8.0 27.85 L7.9 28.25 7.45 29.7 7.75 30.3 5.95 30.3 5.6 30.3 7.25 32.85 8.05 33.8 M13.85 25.25 Q11.8 25.35 9.7 24.4 L11.2 22.35 M16.5 22.9 L16.1 25.5 Q15.95 27.05 16.35 28.4 17.1 30.95 19.95 32.35 L24.5 34.45 25.6 35.0 25.7 35.0 25.7 34.65 25.5 32.45 Q24.35 26.55 17.35 23.3 L16.75 23.0 M10.55 30.75 L11.0 31.1 M10.1 30.3 L7.75 30.3 M8.0 27.85 Q8.8 29.1 10.1 30.3 L10.55 30.75 M15.95 42.25 L15.25 41.45 14.1 40.05 M22.25 37.5 L20.1 38.85 Q17.75 40.5 15.95 42.25 19.35 45.85 25.15 49.1 L27.8 48.95 28.95 47.8 31.8 45.45 M24.35 44.0 L23.9 44.15 M22.25 37.5 L23.6 36.7 M24.85 53.85 L25.15 53.6 25.75 53.2 Q27.5 52.05 29.65 51.9 L32.5 52.1 31.85 48.0 M11.65 46.9 L14.0 47.7 14.5 47.9 Q20.15 50.2 24.2 54.45 L24.85 53.85 M36.25 34.45 Q35.1 35.4 33.05 34.4 L31.65 33.55 30.55 32.55 M36.25 35.3 L36.25 34.45 36.25 34.25 M24.35 44.0 L28.2 43.8 M39.8 37.95 L37.5 40.4 36.4 38.15 36.4 37.9 34.95 39.1 34.15 39.75 34.1 39.8 Q31.8 37.65 29.8 36.4 M40.05 37.65 L39.8 37.95 36.8 41.3 35.35 42.55 M36.4 37.9 L36.25 35.3 M7.45 29.7 Q5.4 25.3 5.15 21.4 M38.6 54.9 L38.05 54.35 37.9 54.2 37.85 54.1 38.05 53.5 37.4 52.85 M39.35 54.9 L38.85 54.35 38.05 53.5 M38.85 54.35 L38.9 54.35 39.4 54.9 M31.25 54.9 L31.55 54.85 32.4 54.9 M17.7 54.9 Q15.3 52.9 12.6 51.25 L10.45 50.0 M5.75 54.9 L2.4 54.55" fill="none" stroke="#230930" stroke-linecap="round" stroke-linejoin="round" stroke-width="1.0"/>
    </g>
    <g id="shape2" transform="matrix(1.0, 0.0, 0.0, 1.0, 0.0, 0.0)">
      <path d="M50.5 0.0 Q53.95 0.0 53.95 3.3 L53.95 50.15 Q53.95 53.4 50.5 53.4 L3.3 53.4 Q0.0 53.4 0.0 50.15 L0.0 3.3 Q0.0 0.0 3.3 0.0 L50.5 0.0" fill="#000000" fill-opacity="0.003921569" fill-rule="evenodd" stroke="none"/>
    </g>
  </defs>
</svg>
