<?xml version="1.0" encoding="UTF-8" standalone="no"?>
<svg xmlns:ffdec="https://www.free-decompiler.com/flash" xmlns:xlink="http://www.w3.org/1999/xlink" ffdec:objectType="frame" height="55.9px" width="55.9px" xmlns="http://www.w3.org/2000/svg">
  <g transform="matrix(1.0, 0.0, 0.0, 1.0, 1.45, 1.45)">
    <clipPath id="clipPath0" transform="matrix(1.0, 0.0, 0.0, 1.0, 0.0, 0.0)">
      <path d="M50.5 0.0 Q53.95 0.0 53.95 3.3 L53.95 50.15 Q53.95 53.4 50.5 53.4 L3.3 53.4 Q0.0 53.4 0.0 50.15 L0.0 3.3 Q0.0 0.0 3.3 0.0 L50.5 0.0" fill="#000000" fill-rule="evenodd" stroke="none"/>
    </clipPath>
    <g clip-path="url(#clipPath0)">
      <use ffdec:characterId="2" height="55.9" transform="matrix(1.0, 0.0, 0.0, 1.0, -1.45, -1.45)" width="55.9" xlink:href="#shape1"/>
    </g>
    <use ffdec:characterId="3" height="53.4" transform="matrix(1.0, 0.0, 0.0, 1.0, 0.0, 0.0)" width="53.95" xlink:href="#shape2"/>
  </g>
  <defs>
    <g id="shape1" transform="matrix(1.0, 0.0, 0.0, 1.0, 1.45, 1.45)">
      <path d="M0.9 -0.95 L9.45 -0.95 11.6 0.25 13.95 1.45 14.95 2.0 16.1 3.0 Q19.85 6.35 21.8 9.35 L22.0 9.65 23.0 11.25 23.9 12.85 24.55 14.05 24.75 14.05 24.75 11.85 25.05 12.7 28.35 12.5 Q33.3 12.5 36.4 13.55 L36.4 13.1 Q36.4 8.65 38.5 3.75 39.7 0.95 40.55 -0.2 L40.5 -0.2 Q40.05 -0.4 39.55 -0.95 L43.45 -0.95 45.25 0.75 45.9 1.35 45.8 3.9 45.65 8.05 Q45.1 9.0 44.65 10.55 43.95 12.75 43.95 13.95 43.95 16.25 45.2 19.8 44.4 18.65 42.4 16.9 L41.7 16.3 40.1 15.2 Q38.6 14.3 36.85 13.7 L36.8 13.65 36.4 13.55 36.8 13.65 36.85 13.7 36.4 13.65 34.45 13.45 30.55 13.8 Q29.05 14.65 27.75 16.2 L25.65 19.35 Q24.1 22.3 23.75 24.35 L25.45 24.25 30.25 24.9 30.3 24.95 Q32.7 25.45 34.5 26.25 36.0 27.65 37.2 31.0 38.15 33.55 38.5 35.4 L38.4 35.45 38.1 35.6 38.0 35.3 37.9 34.9 37.0 32.25 36.5 31.15 36.3 30.75 Q35.4 29.05 34.35 28.0 34.0 27.65 33.7 27.45 L33.6 27.4 33.0 27.1 Q30.9 26.3 28.9 26.3 26.85 26.3 25.05 26.95 23.9 27.35 22.85 28.0 21.3 28.9 20.8 29.6 L20.85 29.7 21.35 30.5 21.5 30.7 Q21.55 31.55 21.75 32.25 22.1 33.95 22.85 35.15 23.6 36.35 24.75 37.1 L24.85 37.15 25.15 37.35 23.7 37.85 24.2 38.6 Q26.25 41.5 31.15 43.85 L31.8 44.15 35.9 45.75 36.1 45.8 37.55 46.2 38.3 46.35 38.75 46.35 42.2 45.9 41.15 46.4 41.0 46.45 Q39.6 47.05 38.5 47.25 L38.45 47.25 38.3 47.25 35.75 47.05 31.05 46.05 29.4 45.45 25.1 43.95 22.5 42.2 20.85 43.6 Q19.1 44.55 17.35 44.6 L16.9 44.6 16.3 44.55 12.55 43.95 11.8 43.75 10.45 43.2 Q9.65 42.85 9.25 42.45 L12.1 39.45 Q13.35 38.4 14.85 37.85 L14.0 38.55 Q12.65 39.75 12.5 40.35 L15.0 40.7 15.3 40.75 17.3 41.05 18.65 41.0 19.45 40.75 19.6 40.65 19.95 40.3 20.6 39.7 21.1 39.15 20.75 38.55 20.45 38.2 20.4 38.15 19.85 37.65 19.55 37.45 19.55 37.4 19.5 37.3 19.55 37.3 19.35 37.1 18.05 35.25 16.75 35.8 Q14.35 36.7 11.6 36.7 L11.25 36.7 11.6 37.05 12.6 38.1 10.8 40.2 Q8.5 42.95 8.1 44.35 L8.05 44.35 4.4 44.7 4.35 44.7 3.75 44.65 3.45 44.75 4.4 45.1 Q3.05 50.45 1.65 53.55 L1.45 53.95 -0.95 53.95 -0.95 43.1 -0.9 43.05 Q0.15 41.7 0.45 41.7 L1.3 41.95 Q2.2 42.4 3.5 43.65 L4.3 44.35 4.35 44.35 Q6.45 42.85 8.15 37.6 L8.6 36.2 8.5 36.15 7.35 35.65 6.9 35.45 Q5.6 34.8 4.55 33.95 1.6 30.7 -0.2 26.15 L-0.3 25.9 1.0 25.9 1.25 25.95 5.05 26.5 8.15 27.45 6.85 27.45 5.25 27.45 Q5.55 28.85 6.15 29.95 6.8 31.15 7.7 32.05 L9.15 33.2 9.4 33.35 11.05 33.85 11.65 33.9 14.7 33.65 17.05 33.2 17.45 33.0 18.0 32.75 16.85 31.2 16.8 31.15 Q15.7 30.15 15.1 30.05 13.45 29.8 12.8 29.4 L11.9 28.65 11.95 28.65 14.05 27.75 16.5 26.0 16.45 25.95 16.0 25.5 15.95 25.45 15.0 24.5 14.9 24.4 14.55 24.1 13.75 25.7 13.65 25.85 13.5 26.15 13.15 26.6 12.2 27.5 Q11.6 27.95 10.65 28.25 L10.6 28.2 11.1 25.95 10.25 25.55 9.05 24.85 6.8 23.05 8.6 24.0 11.25 25.0 11.35 24.6 12.35 22.5 12.75 21.7 14.35 21.7 15.1 21.65 18.15 21.9 18.15 22.2 18.7 20.8 18.75 20.65 18.9 20.1 Q19.6 17.7 19.55 15.3 L19.4 13.3 18.85 11.2 18.8 11.05 Q18.05 9.45 16.25 8.25 L13.65 6.55 Q13.05 6.15 12.45 5.9 11.3 5.3 10.2 4.95 L9.85 4.85 5.9 3.65 5.15 3.3 Q3.6 2.6 2.7 1.65 1.55 3.85 1.2 5.65 0.85 7.1 0.85 9.95 L1.1 13.05 1.5 15.35 1.65 15.85 1.45 15.45 0.7 13.4 Q-0.25 10.3 -0.25 6.9 L-0.15 4.0 Q0.1 1.0 0.9 -0.95 M11.15 25.6 L11.1 25.95 11.15 25.6 M53.55 32.1 Q53.05 33.7 51.8 35.05 49.65 37.4 48.5 37.3 47.5 37.2 46.9 36.45 L47.3 35.4 47.4 35.1 47.5 34.65 47.7 33.85 Q48.35 34.9 48.95 34.9 50.5 34.9 53.25 32.45 L53.55 32.1 M50.3 43.4 L50.4 43.9 50.3 44.0 49.75 44.45 Q48.65 45.1 46.95 45.1 L45.3 44.75 44.7 44.35 44.8 44.25 45.6 43.5 46.05 43.1 46.1 43.15 Q46.95 43.95 47.9 43.95 L50.3 43.4 M36.75 53.95 L35.3 53.95 33.95 52.75 33.35 52.35 33.15 52.25 32.9 52.5 32.1 53.25 31.4 53.95 27.95 53.95 27.5 53.75 27.45 53.4 Q27.45 52.5 28.1 51.8 L28.7 51.3 27.55 50.15 27.05 49.7 26.75 49.4 25.0 48.0 24.55 47.75 24.55 47.8 24.5 48.2 24.15 49.8 22.9 52.0 22.85 52.05 19.6 51.3 19.65 50.2 19.65 48.9 Q20.9 48.25 23.0 46.25 L26.1 47.6 27.8 48.25 30.85 49.3 31.25 49.4 32.65 49.8 33.3 50.0 Q33.4 50.65 33.75 50.8 34.9 51.3 36.3 53.2 L36.75 53.95 M44.35 34.0 L44.15 34.25 43.95 34.5 43.95 34.35 44.0 33.85 44.55 31.7 44.9 30.1 45.3 28.9 Q45.85 27.6 47.45 26.8 L47.45 26.9 47.45 27.5 47.45 27.85 Q46.8 27.6 45.9 29.05 44.8 30.75 44.5 32.95 L44.4 33.5 44.35 33.85 44.35 34.0 M45.85 30.75 L46.3 30.25 46.25 30.3 45.85 30.75 M26.2 17.4 L26.15 16.9 26.05 16.35 25.85 15.45 25.05 12.7 25.85 15.45 26.05 16.35 26.15 16.9 26.2 17.4 M18.35 35.15 L18.05 35.25 18.35 35.15 M8.6 36.2 L11.25 36.7 8.6 36.2 M20.3 37.55 L19.65 37.4 19.55 37.4 19.65 37.4 20.3 37.55 M3.75 44.65 L4.3 44.35 3.75 44.65 M23.2 40.6 L23.25 41.05 22.5 42.2 23.25 41.05 23.2 40.6 M22.7 30.65 L23.1 30.6 22.85 30.6 22.7 30.65 M34.25 44.3 L33.9 44.15 33.85 44.05 Q34.35 43.7 35.4 43.4 L36.35 43.15 36.7 43.1 36.95 43.1 37.7 43.2 37.1 43.85 35.75 44.0 34.35 44.3 34.25 44.3" fill="#df70a3" fill-rule="evenodd" stroke="none"/>
      <path d="M9.45 -0.95 L17.75 -0.95 19.05 0.7 Q21.35 3.95 23.3 8.3 L23.4 8.5 24.25 10.5 24.75 11.85 24.75 14.05 24.55 14.05 23.9 12.85 23.0 11.25 22.0 9.65 21.8 9.35 Q19.85 6.35 16.1 3.0 L14.95 2.0 13.95 1.45 11.6 0.25 9.45 -0.95 M36.85 13.7 Q38.6 14.3 40.1 15.2 L39.75 16.25 39.75 16.3 39.5 17.1 38.2 16.6 37.95 16.6 37.65 16.55 35.9 16.8 35.6 16.95 34.45 16.2 34.3 16.15 Q32.4 15.15 30.45 14.9 L30.3 14.85 Q30.05 14.9 30.05 15.1 30.05 15.7 30.45 16.05 L30.6 16.15 31.55 17.15 29.85 18.95 Q29.25 19.9 29.25 20.5 29.25 22.4 31.95 23.4 L32.4 23.55 36.8 24.7 36.95 24.75 37.25 24.85 Q38.15 28.7 40.0 31.55 L41.85 33.9 42.8 31.95 Q43.7 29.55 43.7 24.45 L43.7 24.2 44.6 23.85 Q45.2 23.5 45.45 22.8 L45.65 21.45 45.65 20.95 45.6 20.4 45.45 20.15 45.2 19.8 Q43.95 16.25 43.95 13.95 43.95 12.75 44.65 10.55 45.1 9.0 45.65 8.05 L45.8 3.9 45.9 1.35 45.25 0.75 43.45 -0.95 45.65 -0.95 46.55 -0.9 46.75 -0.95 48.75 -0.95 49.5 0.25 48.85 6.25 48.6 7.3 48.3 7.85 Q47.05 9.45 46.15 12.05 45.4 14.2 45.4 15.8 L45.45 16.15 Q45.5 17.5 46.0 18.95 L46.45 20.05 46.7 20.6 48.1 22.8 47.3 24.4 46.9 23.25 45.6 20.4 46.9 23.25 47.3 24.4 47.25 24.45 47.4 24.95 47.4 25.1 47.5 25.7 47.6 26.8 47.6 26.9 47.6 27.5 47.6 27.95 47.45 27.85 47.45 27.5 47.45 26.9 47.45 26.8 Q45.85 27.6 45.3 28.9 L44.9 30.1 44.55 31.7 44.0 33.85 43.95 34.35 43.95 34.5 44.15 34.25 44.35 34.0 44.25 34.6 44.15 35.35 44.1 35.75 44.05 35.9 43.6 37.35 43.6 37.4 43.55 37.35 43.25 37.15 42.85 37.1 42.6 37.1 41.95 37.1 40.9 37.15 Q39.25 37.3 39.5 38.35 L39.95 39.4 40.35 39.8 41.8 40.25 42.75 40.0 43.2 39.6 Q43.7 38.95 43.7 38.0 L43.7 37.65 44.05 37.55 Q44.3 37.4 44.5 37.35 L44.65 37.25 44.8 37.5 45.15 37.85 45.7 38.1 46.2 37.6 46.15 39.0 46.15 39.4 46.2 39.65 Q46.95 39.8 47.65 40.25 48.5 40.75 49.25 41.75 L50.3 43.4 47.9 43.95 Q46.95 43.95 46.1 43.15 L46.05 43.1 46.15 43.0 46.45 41.6 46.3 40.35 46.25 40.05 46.2 39.65 46.25 40.05 46.3 40.35 46.45 41.6 46.15 43.0 46.05 43.1 45.6 43.5 44.8 44.25 44.7 44.35 42.2 45.9 38.75 46.35 38.3 46.35 37.55 46.2 36.1 45.8 35.9 45.75 31.8 44.15 31.15 43.85 Q26.25 41.5 24.2 38.6 L23.7 37.85 25.15 37.35 27.05 38.2 29.1 38.7 31.2 38.75 33.4 38.55 37.15 37.55 37.5 37.65 38.55 37.95 38.35 36.95 38.1 35.6 38.4 35.45 38.5 35.4 Q38.15 33.55 37.2 31.0 36.0 27.65 34.5 26.25 32.7 25.45 30.3 24.95 L30.25 24.9 25.45 24.25 23.75 24.35 Q24.1 22.3 25.65 19.35 L27.75 16.2 Q29.05 14.65 30.55 13.8 L34.45 13.45 36.4 13.65 36.85 13.7 M47.85 28.55 L49.1 29.65 49.6 30.15 50.15 30.7 52.3 29.4 53.85 28.7 53.95 29.75 Q53.95 30.95 53.55 32.1 L53.25 32.45 Q50.5 34.9 48.95 34.9 48.35 34.9 47.7 33.85 L47.7 33.8 47.9 32.65 48.0 31.6 48.0 30.85 48.0 29.8 48.0 29.55 47.95 28.9 47.85 28.55 M35.3 53.95 L31.4 53.95 32.1 53.25 32.9 52.5 33.15 52.25 33.35 52.35 33.95 52.75 35.3 53.95 M-0.95 43.1 L-0.95 40.65 -0.25 37.25 0.95 38.85 3.15 42.0 4.25 43.9 4.35 44.35 4.3 44.35 3.5 43.65 Q2.2 42.4 1.3 41.95 L0.45 41.7 Q0.15 41.7 -0.9 43.05 L-0.95 43.1 M8.15 27.45 L8.2 27.45 10.25 28.1 10.6 28.2 10.65 28.25 11.4 28.45 11.9 28.65 12.8 29.4 Q13.45 29.8 15.1 30.05 15.7 30.15 16.8 31.15 L16.85 31.2 18.0 32.75 17.45 33.0 17.05 33.2 14.7 33.65 11.65 33.9 11.05 33.85 9.4 33.35 9.15 33.2 7.7 32.05 Q6.8 31.15 6.15 29.95 5.55 28.85 5.25 27.45 L6.85 27.45 8.15 27.45 M46.9 23.25 L47.0 23.55 47.25 24.45 47.0 23.55 46.9 23.25 M43.45 41.2 L41.9 40.95 Q40.35 40.95 39.65 41.45 39.8 42.0 40.45 42.6 41.2 43.35 41.85 43.35 42.4 43.35 43.15 42.55 L43.9 41.55 43.45 41.2 M19.4 37.4 L19.5 37.4 19.55 37.45 19.85 37.65 20.4 38.15 20.45 38.2 20.75 38.55 21.1 39.15 20.6 39.7 19.95 40.3 19.6 40.65 19.45 40.75 18.65 41.0 17.3 41.05 15.3 40.75 15.0 40.7 12.5 40.35 Q12.65 39.75 14.0 38.55 L14.85 37.85 Q16.35 37.3 18.1 37.3 L19.4 37.4 M37.1 43.85 L37.7 43.2 36.95 43.1 36.7 43.1 36.35 43.15 35.4 43.4 Q34.35 43.7 33.85 44.05 L33.9 44.15 34.25 44.3 34.35 44.3 35.75 44.0 37.1 43.85" fill="#fadaf1" fill-rule="evenodd" stroke="none"/>
      <path d="M13.5 45.75 L10.5 46.05 5.45 45.35 4.4 45.1 4.4 46.35 Q4.4 49.9 2.95 53.25 L2.65 53.95 1.45 53.95 1.65 53.55 Q3.05 50.45 4.4 45.1 L3.45 44.75 3.75 44.65 4.35 44.7 4.4 44.7 8.05 44.35 8.1 44.35 Q8.5 42.95 10.8 40.2 L12.6 38.1 11.6 37.05 11.25 36.7 11.6 36.7 Q14.35 36.7 16.75 35.8 L18.05 35.25 19.35 37.1 19.55 37.3 19.5 37.3 19.4 37.4 18.1 37.3 Q16.35 37.3 14.85 37.85 13.35 38.4 12.1 39.45 L9.25 42.45 Q9.65 42.85 10.45 43.2 L11.8 43.75 12.55 43.95 16.3 44.55 15.7 44.85 14.15 45.65 13.5 45.75 M10.65 28.25 Q11.6 27.95 12.2 27.5 L13.15 26.6 13.5 26.15 13.65 25.85 13.75 25.7 14.55 24.1 14.9 24.4 15.0 24.5 15.95 25.45 16.0 25.5 16.45 25.95 16.5 26.0 14.05 27.75 11.95 28.65 11.9 28.65 11.4 28.45 10.65 28.25 M17.35 44.6 Q19.1 44.55 20.85 43.6 L22.5 42.2 25.1 43.95 29.4 45.45 31.05 46.05 35.75 47.05 34.8 48.25 34.55 48.55 34.25 48.85 33.3 49.95 33.3 50.0 32.65 49.8 31.25 49.4 30.85 49.3 27.8 48.25 26.1 47.6 23.0 46.25 Q20.9 48.25 19.65 48.9 L19.65 50.2 19.6 51.3 18.8 51.2 18.75 50.55 18.3 48.15 17.35 44.6" fill="#852e73" fill-rule="evenodd" stroke="none"/>
      <path d="M22.85 52.05 L22.9 52.0 24.15 49.8 24.5 48.2 24.55 47.8 24.55 47.75 25.0 48.0 26.75 49.4 27.05 49.7 27.55 50.15 28.7 51.3 28.1 51.8 Q27.45 52.5 27.45 53.4 L27.5 53.75 26.85 53.45 24.1 52.45 22.85 52.05" fill="#318ae4" fill-rule="evenodd" stroke="none"/>
      <path d="M40.1 15.2 L41.7 16.3 42.4 16.9 Q44.4 18.65 45.2 19.8 L45.45 20.15 45.6 20.4 45.65 20.95 45.65 21.45 45.45 22.8 Q45.2 23.5 44.6 23.85 L43.7 24.2 43.7 24.45 Q43.7 29.55 42.8 31.95 L41.85 33.9 40.0 31.55 Q38.15 28.7 37.25 24.85 L36.95 24.75 36.8 24.7 32.4 23.55 31.95 23.4 Q29.25 22.4 29.25 20.5 29.25 19.9 29.85 18.95 L31.55 17.15 30.6 16.15 30.45 16.05 Q30.05 15.7 30.05 15.1 30.05 14.9 30.3 14.85 L30.45 14.9 Q32.4 15.15 34.3 16.15 L34.45 16.2 35.6 16.95 Q35.15 17.15 34.65 17.45 L34.4 17.65 34.2 17.85 Q32.95 18.9 32.95 19.85 32.95 20.5 34.8 21.0 L35.25 21.1 36.4 21.4 36.55 21.45 36.6 21.45 39.1 21.8 40.0 21.75 40.25 21.6 Q41.2 21.0 41.25 20.15 L41.9 19.15 Q41.85 18.1 39.5 17.1 L39.75 16.3 39.75 16.25 40.1 15.2" fill="#1de6f6" fill-rule="evenodd" stroke="none"/>
      <path d="M41.15 50.7 L42.85 52.5 43.6 53.7 43.75 53.95 38.6 53.95 39.3 52.8 38.65 51.75 38.25 51.1 38.25 50.2 39.3 50.2 Q40.1 50.25 41.15 50.7 M27.95 53.95 L13.8 53.95 14.2 53.0 15.1 50.95 16.6 50.85 16.7 50.85 17.5 51.15 18.8 51.2 19.6 51.3 22.85 52.05 24.1 52.45 26.85 53.45 27.5 53.75 27.95 53.95" fill="#f4eefa" fill-rule="evenodd" stroke="none"/>
      <path d="M38.3 47.25 L38.35 48.9 Q39.95 49.65 41.15 50.7 40.1 50.25 39.3 50.2 L38.25 50.2 38.25 51.1 38.65 51.75 39.3 52.8 38.6 53.95 37.55 53.95 36.75 53.95 36.3 53.2 Q34.9 51.3 33.75 50.8 33.4 50.65 33.3 50.0 L33.3 49.95 34.25 48.85 34.55 48.55 34.8 48.25 35.75 47.05 38.3 47.25 M13.8 53.95 L8.1 53.95 8.05 53.2 8.15 52.05 8.3 51.5 9.75 50.05 13.5 45.75 14.15 45.65 15.7 44.85 16.3 44.55 16.9 44.6 17.35 44.6 18.3 48.15 18.75 50.55 18.8 51.2 17.5 51.15 16.7 50.85 16.6 50.85 15.1 50.95 14.2 53.0 13.8 53.95 M38.25 53.2 L37.55 53.95 38.25 53.2 M16.7 50.85 L15.95 50.6 16.7 50.85" fill="#dfc6e6" fill-rule="evenodd" stroke="none"/>
      <path d="M46.75 -0.95 L46.55 -0.9 45.65 -0.95 46.75 -0.95 M39.5 17.1 L39.45 17.4 39.35 17.8 Q40.35 18.0 40.85 18.8 41.25 19.4 41.25 20.05 L41.25 20.15 41.05 20.35 Q39.85 21.55 37.95 21.55 L36.55 21.45 36.4 21.4 35.5 20.9 35.3 20.8 Q34.7 20.25 34.7 19.5 34.7 18.2 36.35 17.5 L35.6 16.95 35.9 16.8 37.65 16.55 37.95 16.6 38.2 16.6 39.5 17.1 M43.6 37.4 L43.5 37.7 43.7 37.65 43.7 38.0 Q43.7 38.95 43.2 39.6 L42.75 40.0 41.8 40.25 40.35 39.8 39.95 39.4 39.5 38.35 Q39.25 37.3 40.9 37.15 L41.95 37.1 42.6 37.1 42.85 37.1 43.25 37.15 43.55 37.35 43.6 37.4" fill="#fdf5ff" fill-rule="evenodd" stroke="none"/>
      <path d="M1.65 15.85 L1.5 15.35 1.1 13.05 0.85 9.95 Q0.85 7.1 1.2 5.65 1.55 3.85 2.7 1.65 3.6 2.6 5.15 3.3 L4.8 4.05 Q4.2 5.9 4.2 7.85 L4.25 9.85 4.65 12.4 Q5.3 15.65 7.05 18.1 L8.7 20.0 9.2 20.45 8.9 20.25 8.55 20.1 6.2 18.7 5.95 18.55 4.5 18.55 4.75 19.6 5.5 21.7 4.9 21.0 4.15 20.05 Q2.6 18.0 1.65 15.85 M49.5 0.25 L49.6 0.45 50.75 4.75 50.95 5.7 51.05 6.45 51.25 9.75 50.8 14.45 50.55 14.4 Q50.0 14.4 48.85 16.45 49.35 14.8 49.35 12.75 L48.6 7.3 48.85 6.25 49.5 0.25" fill="#efb26f" fill-rule="evenodd" stroke="none"/>
      <path d="M12.35 22.5 L11.35 24.6 11.25 25.0 8.6 24.0 6.8 23.05 5.9 22.1 5.5 21.7 4.75 19.6 4.5 18.55 5.95 18.55 6.2 18.7 8.55 20.1 8.9 20.25 9.2 20.45 9.9 21.0 11.3 21.95 12.35 22.5 M50.8 14.45 L49.25 19.95 48.1 22.8 46.7 20.6 46.45 20.05 47.3 19.15 Q47.95 18.75 48.55 17.4 L48.85 16.45 Q50.0 14.4 50.55 14.4 L50.8 14.45" fill="#fff1aa" fill-rule="evenodd" stroke="none"/>
      <path d="M5.15 3.3 L5.9 3.65 9.85 4.85 10.2 4.95 Q11.3 5.3 12.45 5.9 13.05 6.15 13.65 6.55 L16.25 8.25 Q18.05 9.45 18.8 11.05 L18.85 11.2 19.4 13.3 19.55 15.3 Q19.6 17.7 18.9 20.1 L18.75 20.65 18.75 20.55 18.95 18.4 Q18.95 15.9 17.75 14.25 L17.7 14.15 Q16.95 13.2 15.9 12.7 14.6 12.1 12.85 12.1 L11.4 12.5 Q11.25 13.1 11.25 14.3 L11.3 15.45 11.75 17.9 Q12.15 19.25 12.95 20.3 L14.35 21.7 12.75 21.7 12.35 22.5 11.3 21.95 9.9 21.0 9.2 20.45 8.7 20.0 7.05 18.1 Q5.3 15.65 4.65 12.4 L4.25 9.85 4.2 7.85 Q4.2 5.9 4.8 4.05 L5.15 3.3 M45.45 16.15 L45.4 15.8 Q45.4 14.2 46.15 12.05 47.05 9.45 48.3 7.85 L48.6 7.3 49.35 12.75 Q49.35 14.8 48.85 16.45 L48.55 17.4 Q47.95 18.75 47.3 19.15 L47.6 18.65 Q48.4 17.25 48.4 15.75 L48.2 14.5 48.0 13.05 Q46.95 13.2 45.45 16.15" fill="#b35a2e" fill-rule="evenodd" stroke="none"/>
      <path d="M18.75 20.65 L18.7 20.8 18.15 22.2 18.15 21.9 15.1 21.65 14.35 21.7 12.95 20.3 Q12.15 19.25 11.75 17.9 L11.3 15.45 11.25 14.3 Q11.25 13.1 11.4 12.5 L12.85 12.1 Q14.6 12.1 15.9 12.7 16.95 13.2 17.7 14.15 L17.75 14.25 Q18.95 15.9 18.95 18.4 L18.75 20.55 18.75 20.65 M45.45 16.15 Q46.95 13.2 48.0 13.05 L48.2 14.5 48.4 15.75 Q48.4 17.25 47.6 18.65 L47.3 19.15 46.45 20.05 46.0 18.95 Q45.5 17.5 45.45 16.15" fill="#7a2f18" fill-rule="evenodd" stroke="none"/>
      <path d="M43.45 41.2 L43.9 41.55 43.15 42.55 Q42.4 43.35 41.85 43.35 41.2 43.35 40.45 42.6 39.8 42.0 39.65 41.45 40.35 40.95 41.9 40.95 L43.45 41.2" fill="#361438" fill-rule="evenodd" stroke="none"/>
      <path d="M47.6 27.95 L47.7 28.05 47.85 28.55 47.95 28.9 48.0 29.55 47.5 29.15 47.35 29.05 47.15 29.0 Q45.8 29.0 45.1 32.35 L45.05 32.75 44.95 33.25 45.05 33.2 45.7 32.7 45.7 32.75 46.0 33.0 46.7 32.45 46.8 32.45 46.85 33.3 46.85 33.75 46.7 34.3 46.55 34.7 46.25 35.1 45.45 35.7 45.2 35.7 45.0 35.7 44.7 35.5 44.65 35.8 44.6 36.2 44.5 37.35 Q44.3 37.4 44.05 37.55 L43.7 37.65 43.5 37.7 43.6 37.4 43.6 37.35 44.05 35.9 44.1 35.75 44.15 35.35 44.25 34.6 44.35 34.0 44.35 33.85 44.4 33.5 44.5 32.95 Q44.8 30.75 45.9 29.05 46.8 27.6 47.45 27.85 L47.6 27.95 M38.1 35.6 L38.35 36.95 38.55 37.95 37.5 37.65 37.15 37.55 37.0 36.05 36.95 35.7 36.95 35.6 Q36.6 33.55 35.85 31.75 L35.65 31.2 35.6 31.2 Q34.9 29.6 33.55 28.7 L33.4 28.6 32.6 28.15 31.9 27.9 31.85 27.85 31.3 27.7 31.0 27.6 30.75 27.55 30.45 27.5 28.55 27.25 Q26.8 27.25 24.85 28.05 L23.8 28.5 Q22.3 29.3 21.35 30.5 L20.85 29.7 20.8 29.6 Q21.3 28.9 22.85 28.0 23.9 27.35 25.05 26.95 26.85 26.3 28.9 26.3 30.9 26.3 33.0 27.1 L33.6 27.4 33.7 27.45 Q34.0 27.65 34.35 28.0 35.4 29.05 36.3 30.75 L36.5 31.15 37.0 32.25 37.9 34.9 38.0 35.3 38.1 35.6 M29.95 31.85 L29.95 31.9 Q29.95 33.2 30.6 33.7 L31.35 34.0 31.4 34.5 31.45 35.0 30.4 35.65 29.85 35.8 28.6 35.95 Q27.45 35.95 26.5 35.2 L26.2 34.95 Q25.4 34.15 25.2 33.15 L25.1 32.5 Q25.1 31.95 25.25 31.9 L26.0 31.5 26.2 31.45 27.65 31.15 27.7 31.15 Q29.0 31.15 29.95 31.85" fill="#4a1300" fill-rule="evenodd" stroke="none"/>
      <path d="M46.9 36.45 L46.2 37.6 45.7 38.1 45.15 37.85 44.8 37.5 44.65 37.25 44.5 37.35 44.6 36.2 44.65 35.8 44.85 35.85 45.3 35.9 45.35 35.9 45.2 36.35 45.65 36.65 45.7 36.7 46.2 36.45 46.3 36.35 46.45 36.25 46.7 36.05 47.3 35.4 46.9 36.45 M45.05 32.75 L45.1 32.35 Q45.8 29.0 47.15 29.0 L47.35 29.05 47.5 29.15 48.0 29.55 48.0 29.8 47.95 29.8 47.45 29.85 47.35 31.3 47.0 32.4 47.0 32.35 46.95 31.95 46.9 31.95 47.15 30.95 47.15 30.75 46.95 30.4 46.6 30.15 Q46.4 30.15 46.3 30.25 L45.85 30.75 45.75 30.9 Q45.5 31.45 45.5 31.95 L45.55 32.4 45.05 32.75 M37.15 37.55 L33.4 38.55 31.2 38.75 29.1 38.7 27.05 38.2 25.15 37.35 24.85 37.15 24.75 37.1 Q23.6 36.35 22.85 35.15 22.1 33.95 21.75 32.25 21.55 31.55 21.5 30.7 L21.35 30.5 Q22.3 29.3 23.8 28.5 L24.85 28.05 Q26.8 27.25 28.55 27.25 L30.45 27.5 30.75 27.55 31.0 27.6 31.3 27.7 31.85 27.85 31.9 27.9 32.6 28.15 33.4 28.6 33.55 28.7 Q34.9 29.6 35.6 31.2 L35.65 31.2 35.85 31.75 Q36.6 33.55 36.95 35.6 L36.95 35.7 37.0 36.05 37.15 37.55 M32.1 34.15 L32.85 34.15 33.3 34.15 Q34.4 33.95 34.6 32.9 L34.6 32.4 34.6 32.0 Q34.4 29.9 32.2 29.85 L32.0 29.85 31.6 29.9 30.75 30.2 30.5 30.45 30.2 30.75 30.05 31.1 Q29.5 30.7 28.95 30.6 L28.35 30.6 26.35 30.85 25.4 31.15 24.7 31.6 Q24.35 31.8 24.35 32.1 L24.35 32.4 24.2 31.7 23.95 30.6 23.1 30.6 22.7 30.65 22.45 30.75 22.25 30.9 22.25 31.15 Q22.45 32.75 23.05 34.0 L23.4 34.65 24.2 35.75 25.15 36.6 26.85 37.5 27.55 37.75 29.65 38.05 30.45 38.1 34.05 37.55 34.75 37.35 36.45 36.75 36.4 36.3 36.4 36.0 36.25 35.5 Q35.95 34.35 35.4 34.35 L34.65 35.05 32.35 35.45 32.1 35.45 32.15 35.3 32.2 35.1 32.1 34.15" fill="#b24832" fill-rule="evenodd" stroke="none"/>
      <path d="M47.0 32.4 L47.35 31.3 47.45 29.85 47.95 29.8 48.0 29.8 48.0 30.85 48.0 31.6 47.9 32.65 47.7 33.8 47.7 33.85 47.5 34.65 47.4 35.1 47.3 35.4 46.7 36.05 46.45 36.25 46.55 36.05 46.6 35.9 46.6 35.8 46.7 35.4 46.45 35.55 46.4 35.6 46.0 35.9 45.9 36.0 45.75 36.3 45.65 36.45 45.85 36.5 45.9 36.5 46.2 36.45 45.7 36.7 45.65 36.65 45.2 36.35 45.35 35.9 Q46.0 35.9 46.45 35.3 L46.65 34.9 46.9 34.2 47.05 33.55 47.05 33.05 47.0 32.4 M47.3 33.25 L47.05 34.05 47.05 34.1 46.95 34.6 46.95 34.8 47.3 34.0 47.45 33.45 47.45 33.15 47.45 32.85 47.3 33.25 M32.1 35.45 L32.35 35.45 34.65 35.05 35.4 34.35 Q35.95 34.35 36.25 35.5 L36.4 36.0 36.4 36.3 36.45 36.75 34.75 37.35 34.05 37.55 30.45 38.1 29.65 38.05 27.55 37.75 26.85 37.5 25.15 36.6 24.2 35.75 Q24.75 36.2 25.2 36.2 25.45 36.2 25.5 35.85 L24.8 34.3 24.45 33.75 23.8 32.95 23.7 32.85 23.3 32.85 23.0 33.15 23.0 33.5 23.05 34.0 Q22.45 32.75 22.25 31.15 L22.25 30.9 22.45 30.75 22.7 30.65 22.85 30.6 23.1 30.6 23.95 30.6 24.2 31.7 24.35 32.4 24.55 33.65 Q24.9 34.75 25.75 35.5 L26.0 35.7 Q27.15 36.6 28.9 36.6 L28.95 36.6 30.9 36.25 31.6 35.9 32.1 35.45 M26.2 36.45 L26.05 36.45 25.8 36.5 Q26.25 37.05 27.0 37.25 L27.85 37.5 28.2 37.55 28.1 37.3 Q27.7 36.55 26.55 36.45 L26.25 36.45 26.2 36.45" fill="#e27554" fill-rule="evenodd" stroke="none"/>
      <path d="M46.2 36.45 L45.9 36.5 45.85 36.5 45.65 36.45 45.75 36.3 45.9 36.0 46.0 35.9 46.4 35.6 46.45 35.55 46.7 35.4 46.6 35.8 46.6 35.9 46.55 36.05 46.45 36.25 46.3 36.35 46.2 36.45 M47.3 33.25 L47.45 32.85 47.45 33.15 47.45 33.45 47.3 34.0 46.95 34.8 46.95 34.6 47.05 34.1 47.05 34.05 47.3 33.25 M24.2 35.75 L23.4 34.65 23.05 34.0 23.0 33.5 23.0 33.15 23.3 32.85 23.7 32.85 23.8 32.95 24.45 33.75 24.8 34.3 25.5 35.85 Q25.45 36.2 25.2 36.2 24.75 36.2 24.2 35.75 M26.2 36.45 L26.25 36.45 26.55 36.45 Q27.7 36.55 28.1 37.3 L28.2 37.55 27.85 37.5 27.0 37.25 Q26.25 37.05 25.8 36.5 L26.05 36.45 26.2 36.45" fill="#f0a152" fill-rule="evenodd" stroke="none"/>
      <path d="M45.55 32.4 L45.5 31.95 Q45.5 31.45 45.75 30.9 L45.85 30.75 46.25 30.3 46.3 30.25 Q46.4 30.15 46.6 30.15 L46.95 30.4 47.15 30.75 47.15 30.95 46.9 31.95 46.85 32.1 46.7 32.45 46.0 33.0 45.7 32.75 45.7 32.7 45.65 32.6 45.55 32.4 M30.05 31.1 L30.2 30.75 30.5 30.45 30.75 30.2 31.6 29.9 32.0 29.85 32.2 29.85 Q34.4 29.9 34.6 32.0 L34.6 32.4 34.6 32.9 Q34.4 33.95 33.3 34.15 L32.85 34.15 32.1 34.15 31.9 34.1 31.35 34.0 30.6 33.7 Q29.95 33.2 29.95 31.9 L29.95 31.85 30.05 31.1" fill="#ffddb0" fill-rule="evenodd" stroke="none"/>
      <path d="M39.5 17.1 Q41.85 18.1 41.9 19.15 L41.25 20.15 41.25 20.05 Q41.25 19.4 40.85 18.8 40.35 18.0 39.35 17.8 L39.45 17.4 39.5 17.1 M41.25 20.15 Q41.2 21.0 40.25 21.6 L40.0 21.75 39.1 21.8 36.6 21.45 36.55 21.45 37.95 21.55 Q39.85 21.55 41.05 20.35 L41.25 20.15 M36.4 21.4 L35.25 21.1 34.8 21.0 Q32.95 20.5 32.95 19.85 32.95 18.9 34.2 17.85 L34.4 17.65 34.65 17.45 Q35.15 17.15 35.6 16.95 L36.35 17.5 Q34.7 18.2 34.7 19.5 34.7 20.25 35.3 20.8 L35.5 20.9 36.4 21.4" fill="#4afaff" fill-rule="evenodd" stroke="none"/>
      <path d="M45.05 32.75 L45.55 32.4 45.65 32.6 45.7 32.7 45.05 33.2 44.95 33.25 45.05 32.75 M46.9 31.95 L46.95 31.95 47.0 32.35 47.0 32.4 47.05 33.05 47.05 33.55 46.9 34.2 46.65 34.9 46.45 35.3 Q46.0 35.9 45.35 35.9 L45.3 35.9 44.85 35.85 44.65 35.8 44.7 35.5 45.0 35.7 45.2 35.7 45.45 35.7 46.25 35.1 46.55 34.7 46.7 34.3 46.85 33.75 46.85 33.3 46.8 32.45 46.7 32.45 46.85 32.1 46.9 31.95 M32.1 34.15 L32.2 35.1 32.15 35.3 32.1 35.45 31.6 35.9 30.9 36.25 28.95 36.6 28.9 36.6 Q27.15 36.6 26.0 35.7 L25.75 35.5 Q24.9 34.75 24.55 33.65 L24.35 32.4 24.35 32.1 Q24.35 31.8 24.7 31.6 L25.4 31.15 26.35 30.85 28.35 30.6 28.95 30.6 Q29.5 30.7 30.05 31.1 L29.95 31.85 Q29.0 31.15 27.7 31.15 L27.65 31.15 26.2 31.45 26.0 31.5 25.25 31.9 Q25.1 31.95 25.1 32.5 L25.2 33.15 Q25.4 34.15 26.2 34.95 L26.5 35.2 Q27.45 35.95 28.6 35.95 L29.85 35.8 30.4 35.65 31.45 35.0 31.4 34.5 31.35 34.0 31.9 34.1 32.1 34.15" fill="#85351e" fill-rule="evenodd" stroke="none"/>
      <path d="M0.9 -0.95 Q0.1 1.0 -0.15 4.0 L-0.25 6.9 Q-0.25 10.3 0.7 13.4 L1.45 15.45 1.65 15.85 Q2.6 18.0 4.15 20.05 L4.9 21.0 5.5 21.7 5.9 22.1 6.8 23.05 9.05 24.85 10.25 25.55 11.1 25.95 11.15 25.6 M24.75 11.85 L24.25 10.5 23.4 8.5 23.3 8.3 Q21.35 3.95 19.05 0.7 L17.75 -0.95 M39.55 -0.95 Q40.05 -0.4 40.5 -0.2 L40.55 -0.2 Q39.7 0.95 38.5 3.75 36.4 8.65 36.4 13.1 L36.4 13.55 36.8 13.65 36.85 13.7 Q38.6 14.3 40.1 15.2 L41.7 16.3 42.4 16.9 Q44.4 18.65 45.2 19.8 L45.45 20.15 45.6 20.4 46.9 23.25 47.3 24.4 47.25 24.45 47.4 24.95 47.4 25.1 47.5 25.7 47.6 26.8 47.6 26.9 47.6 27.5 47.6 27.95 M49.5 0.25 L49.6 0.45 50.75 4.75 50.95 5.7 51.05 6.45 51.25 9.75 50.8 14.45 49.25 19.95 48.1 22.8 47.3 24.4 47.4 24.95 M47.85 28.55 L49.1 29.65 49.6 30.15 50.15 30.7 52.3 29.4 53.85 28.7 53.95 29.75 Q53.95 30.95 53.55 32.1 53.05 33.7 51.8 35.05 49.65 37.4 48.5 37.3 47.5 37.2 46.9 36.45 M46.2 37.6 L46.15 39.0 46.15 39.4 46.2 39.65 Q46.95 39.8 47.65 40.25 48.5 40.75 49.25 41.75 L50.3 43.4 50.4 43.9 50.3 44.0 49.75 44.45 Q48.65 45.1 46.95 45.1 L45.3 44.75 44.7 44.35 42.2 45.9 41.15 46.4 41.0 46.45 Q39.6 47.05 38.5 47.25 L38.45 47.25 38.3 47.25 35.75 47.05 31.05 46.05 29.4 45.45 25.1 43.95 22.5 42.2 23.25 41.05 23.2 40.6 M13.5 45.75 L10.5 46.05 5.45 45.35 4.4 45.1 4.4 46.35 Q4.4 49.9 2.95 53.25 L2.65 53.95 M-0.95 40.65 L-0.25 37.25 0.95 38.85 3.15 42.0 4.25 43.9 4.35 44.35 Q6.45 42.85 8.15 37.6 L8.6 36.2 8.5 36.15 7.35 35.65 6.9 35.45 Q5.6 34.8 4.55 33.95 1.6 30.7 -0.2 26.15 L-0.3 25.9 1.0 25.9 1.25 25.95 5.05 26.5 8.15 27.45 8.2 27.45 10.25 28.1 10.6 28.2 11.1 25.95 M49.5 0.25 L48.75 -0.95 M47.25 24.45 L47.0 23.55 46.9 23.25 M46.05 43.1 L46.15 43.0 46.45 41.6 46.3 40.35 46.25 40.05 46.2 39.65 M44.7 44.35 L44.8 44.25 45.6 43.5 46.05 43.1 M25.05 12.7 L25.85 15.45 26.05 16.35 26.15 16.9 26.2 17.4 M24.75 11.85 L25.05 12.7 28.35 12.5 Q33.3 12.5 36.4 13.55 M16.5 26.0 L14.05 27.75 11.95 28.65 11.9 28.65 11.4 28.45 10.65 28.25 10.6 28.2 M11.25 36.7 L11.6 36.7 Q14.35 36.7 16.75 35.8 L18.05 35.25 18.35 35.15 M11.25 36.7 L8.6 36.2 M19.5 37.3 L19.55 37.4 19.65 37.4 20.3 37.55 M4.3 44.35 L4.35 44.35 M3.75 44.65 L3.45 44.75 4.4 45.1 M4.3 44.35 L3.75 44.65 M19.5 37.4 L19.4 37.4 18.1 37.3 Q16.35 37.3 14.85 37.85 13.35 38.4 12.1 39.45 L9.25 42.45 Q9.65 42.85 10.45 43.2 L11.8 43.75 12.55 43.95 16.3 44.55 16.9 44.6 17.35 44.6 Q19.1 44.55 20.85 43.6 L22.5 42.2 M19.5 37.4 L19.55 37.4 19.55 37.45 M13.5 45.75 L14.15 45.65 15.7 44.85 16.3 44.55 M33.3 50.0 L33.3 49.95 34.25 48.85 34.55 48.55 34.8 48.25 35.75 47.05 M36.75 53.95 L36.3 53.2 Q34.9 51.3 33.75 50.8 33.4 50.65 33.3 50.0" fill="none" stroke="#480b3a" stroke-linecap="round" stroke-linejoin="round" stroke-width="1.0"/>
      <path d="M37.55 53.95 L38.25 53.2 M15.95 50.6 L16.7 50.85 17.5 51.15 18.8 51.2" fill="none" stroke="#77535f" stroke-linecap="round" stroke-linejoin="round" stroke-width="1.0"/>
      <path d="M38.3 47.25 L38.35 48.9 Q39.95 49.65 41.15 50.7 L42.85 52.5 43.6 53.7 43.75 53.95 M8.1 53.95 L8.05 53.2 8.15 52.05 8.3 51.5 9.75 50.05 13.5 45.75 M17.35 44.6 L18.3 48.15 18.75 50.55 18.8 51.2 19.6 51.3 22.85 52.05 24.1 52.45 26.85 53.45 27.5 53.75 27.95 53.95" fill="none" stroke="#332429" stroke-linecap="round" stroke-linejoin="round" stroke-width="1.0"/>
      <path d="M34.25 44.3 L34.35 44.3 35.75 44.0 37.1 43.85" fill="none" stroke="#622641" stroke-linecap="round" stroke-linejoin="round" stroke-width="1.0"/>
      <path d="M47.6 27.95 L47.7 28.05 47.85 28.55 47.95 28.9 48.0 29.55 48.0 29.8 48.0 30.85 48.0 31.6 47.9 32.65 47.7 33.8 47.7 33.85 47.5 34.65 47.4 35.1 47.3 35.4 46.9 36.45 46.2 37.6 45.7 38.1 45.15 37.85 44.8 37.5 44.65 37.25 44.5 37.35 Q44.3 37.4 44.05 37.55 L43.7 37.65 43.5 37.7 43.6 37.4 43.6 37.35 44.05 35.9 44.1 35.75 44.15 35.35 44.25 34.6 44.35 34.0 44.35 33.85 44.4 33.5 44.5 32.95 Q44.8 30.75 45.9 29.05 46.8 27.6 47.45 27.85 L47.6 27.95 M38.1 35.6 L38.35 36.95 38.55 37.95 37.5 37.65 37.15 37.55 33.4 38.55 31.2 38.75 29.1 38.7 27.05 38.2 25.15 37.35 24.85 37.15 24.75 37.1 Q23.6 36.35 22.85 35.15 22.1 33.95 21.75 32.25 21.55 31.55 21.5 30.7 L21.35 30.5 20.85 29.7 20.8 29.6 Q21.3 28.9 22.85 28.0 23.9 27.35 25.05 26.95 26.85 26.3 28.9 26.3 30.9 26.3 33.0 27.1 L33.6 27.4 33.7 27.45 Q34.0 27.65 34.35 28.0 35.4 29.05 36.3 30.75 L36.5 31.15 37.0 32.25 37.9 34.9 38.0 35.3 38.1 35.6 Z" fill="none" stroke="#2c0200" stroke-linecap="round" stroke-linejoin="round" stroke-width="1.0"/>
    </g>
    <g id="shape2" transform="matrix(1.0, 0.0, 0.0, 1.0, 0.0, 0.0)">
      <path d="M50.5 0.0 Q53.95 0.0 53.95 3.3 L53.95 50.15 Q53.95 53.4 50.5 53.4 L3.3 53.4 Q0.0 53.4 0.0 50.15 L0.0 3.3 Q0.0 0.0 3.3 0.0 L50.5 0.0" fill="#000000" fill-opacity="0.003921569" fill-rule="evenodd" stroke="none"/>
    </g>
  </defs>
</svg>
