<?xml version="1.0" encoding="UTF-8" standalone="no"?>
<svg xmlns:ffdec="https://www.free-decompiler.com/flash" xmlns:xlink="http://www.w3.org/1999/xlink" ffdec:objectType="frame" height="54.75px" width="55.9px" xmlns="http://www.w3.org/2000/svg">
  <g transform="matrix(1.0, 0.0, 0.0, 1.0, 0.8, 0.8)">
    <clipPath id="clipPath0" transform="matrix(1.0, 0.0, 0.0, 1.0, 0.0, 0.0)">
      <path d="M50.5 0.0 Q53.95 0.0 53.95 3.3 L53.95 50.15 Q53.95 53.4 50.5 53.4 L3.3 53.4 Q0.0 53.4 0.0 50.15 L0.0 3.3 Q0.0 0.0 3.3 0.0 L50.5 0.0" fill="#000000" fill-rule="evenodd" stroke="none"/>
    </clipPath>
    <g clip-path="url(#clipPath0)">
      <use ffdec:characterId="2" height="54.75" transform="matrix(1.0, 0.0, 0.0, 1.0, -0.8, -0.8)" width="55.9" xlink:href="#shape1"/>
    </g>
    <use ffdec:characterId="3" height="53.4" transform="matrix(1.0, 0.0, 0.0, 1.0, 0.0, 0.0)" width="53.95" xlink:href="#shape2"/>
  </g>
  <defs>
    <g id="shape1" transform="matrix(1.0, 0.0, 0.0, 1.0, 0.8, 0.8)">
      <path d="M6.3 0.2 L5.95 -0.1 5.7 -0.3 8.0 -0.3 8.05 -0.15 8.25 0.9 8.3 1.25 8.4 2.05 6.3 0.2 M43.8 1.4 L45.05 0.35 47.05 0.35 49.65 0.35 50.45 0.4 51.65 0.4 52.15 0.4 53.55 0.5 53.9 0.6 54.6 1.9 54.6 5.9 54.55 5.8 54.1 4.85 53.95 4.5 53.8 4.6 52.05 5.9 51.4 6.4 50.5 7.1 50.45 7.1 50.2 7.3 50.45 7.05 50.5 6.95 51.45 5.55 51.55 5.4 51.6 5.35 52.7 3.75 52.7 3.65 52.4 3.15 52.35 3.1 52.3 3.1 52.05 3.15 51.9 3.25 50.75 3.8 50.7 3.8 51.4 2.75 51.4 2.7 51.6 2.35 51.7 2.15 50.5 2.15 50.35 2.15 49.75 2.15 46.85 2.05 44.3 2.05 43.9 1.55 43.8 1.4 M50.65 12.0 L51.1 11.4 51.8 10.5 52.25 9.95 52.4 9.75 53.6 8.0 54.45 6.35 54.6 6.05 54.6 9.8 51.65 13.4 51.55 13.45 50.85 13.5 50.65 12.0" fill="#80ffff" fill-rule="evenodd" stroke="none"/>
      <path d="M5.7 -0.3 L5.95 -0.1 6.3 0.2 6.05 0.2 6.65 3.0 7.05 5.25 5.25 7.05 5.1 7.25 3.55 8.8 3.45 8.9 3.3 8.95 3.3 8.9 Q2.1 8.9 -0.3 8.1 L-0.3 3.6 0.15 3.75 0.35 3.8 0.55 3.75 2.8 3.3 3.2 3.3 1.2 1.55 0.65 1.2 0.5 1.1 0.2 1.05 -0.3 0.95 -0.3 -0.3 5.7 -0.3 M50.45 7.05 Q50.1 6.0 50.1 5.0 50.1 4.15 50.35 3.55 50.6 2.9 51.15 2.55 L51.2 2.5 51.6 2.35 51.4 2.7 51.4 2.75 50.7 3.8 50.75 3.8 51.9 3.25 52.05 3.15 52.3 3.1 52.35 3.1 52.4 3.15 52.7 3.65 52.7 3.75 51.6 5.35 51.55 5.4 51.45 5.55 50.5 6.95 50.45 7.05 M52.25 9.95 Q51.7 9.6 51.05 8.5 L50.9 8.1 50.5 7.25 50.45 7.1 50.5 7.1 51.4 6.4 52.05 5.9 53.8 4.6 53.95 4.5 54.1 4.85 54.55 5.8 54.6 5.9 54.6 6.05 54.45 6.35 53.6 8.0 52.4 9.75 52.25 9.95 M51.55 13.45 L50.9 13.6 50.85 13.5 51.55 13.45" fill="#1ba7be" fill-rule="evenodd" stroke="none"/>
      <path d="M6.3 0.2 L8.4 2.05 8.45 3.4 8.25 6.4 Q7.75 9.85 6.05 12.35 L5.3 13.3 5.1 13.55 4.15 14.45 2.8 15.55 2.7 15.65 1.8 16.3 Q1.7 16.35 1.55 16.45 0.75 16.95 -0.15 17.0 L-0.3 17.05 -0.3 8.1 Q2.1 8.9 3.3 8.9 L3.3 8.95 3.45 8.9 3.55 8.8 5.1 7.25 5.25 7.05 7.05 5.25 6.65 3.0 6.05 0.2 6.3 0.2 M-0.3 0.95 L0.2 1.05 0.5 1.1 0.65 1.2 1.2 1.55 3.2 3.3 2.8 3.3 0.55 3.75 0.35 3.8 0.15 3.75 -0.3 3.6 -0.3 0.95 M51.6 2.35 L51.2 2.5 51.15 2.55 Q50.6 2.9 50.35 3.55 50.1 4.15 50.1 5.0 50.1 6.0 50.45 7.05 L50.2 7.3 50.45 7.1 50.5 7.25 50.9 8.1 51.05 8.5 Q51.7 9.6 52.25 9.95 L51.8 10.5 51.1 11.4 50.65 12.0 50.65 11.55 50.55 11.15 50.05 9.95 49.5 8.95 48.95 8.1 46.5 4.8 44.85 2.8 44.6 2.4 44.3 2.05 46.85 2.05 49.75 2.15 50.35 2.15 50.5 2.15 51.7 2.15 51.6 2.35" fill="#168799" fill-rule="evenodd" stroke="none"/>
      <path d="M42.6 -0.3 L42.75 -0.1 42.95 0.4 43.2 0.7 43.35 0.9 42.75 2.1 42.35 2.85 Q40.75 1.15 38.45 -0.3 L42.6 -0.3" fill="#706466" fill-rule="evenodd" stroke="none"/>
      <path d="M42.35 2.85 L42.75 2.1 43.35 0.9 43.8 1.4 43.9 1.55 44.3 2.05 44.6 2.4 44.85 2.8 46.5 4.8 48.95 8.1 48.15 7.95 47.45 8.45 Q46.5 6.95 44.75 5.25 L44.4 4.9 42.85 3.4 42.65 3.15 42.35 2.9 42.35 2.85 M54.6 43.5 L54.6 45.65 53.8 44.65 53.35 44.1 52.65 43.2 51.95 42.3 51.85 42.15 50.65 40.6 48.55 37.55 47.05 35.15 46.6 34.15 46.2 33.25 46.0 32.8 45.55 31.9 45.05 30.95 44.65 29.95 44.8 29.9 46.05 29.6 46.5 30.75 46.55 30.95 47.65 33.1 Q49.0 35.55 51.3 39.0 L52.85 41.15 53.8 42.45 54.6 43.5 M12.0 53.45 L10.55 53.45 10.25 50.3 10.05 48.2 10.0 47.05 10.0 46.75 9.95 46.1 9.85 44.5 9.75 40.65 9.75 40.35 9.75 40.3 9.85 37.05 10.35 34.15 10.5 33.05 Q10.65 31.6 10.95 30.45 L11.4 30.3 11.85 30.2 12.8 29.8 12.1 32.5 11.7 35.55 11.5 39.0 11.45 40.95 11.45 42.45 11.45 43.45 11.45 44.25 11.55 46.4 11.6 47.5 11.65 48.25 11.75 50.0 12.0 53.45 M-0.3 45.3 L-0.3 32.55 0.2 35.75 0.25 36.55 0.35 38.75 0.3 40.2 0.3 40.35 0.1 42.3 -0.3 45.3" fill="#e2faa5" fill-rule="evenodd" stroke="none"/>
      <path d="M18.75 -0.3 L17.5 0.5 17.4 0.6 17.0 0.5 14.4 -0.1 13.55 -0.25 13.75 -0.15 13.55 -0.15 13.4 -0.3 18.75 -0.3 M15.05 19.85 L15.1 19.75 15.35 19.1 14.4 18.05 14.35 17.95 13.95 17.4 Q12.65 15.3 12.5 13.3 12.35 10.4 14.55 7.5 L14.75 7.45 14.75 7.4 14.7 7.4 14.65 7.35 14.6 7.2 14.1 6.55 13.95 6.25 13.15 5.1 13.0 4.9 12.75 4.35 12.95 4.15 13.45 3.8 14.4 3.1 15.55 4.7 15.55 4.75 15.8 5.0 15.8 5.1 16.1 5.4 16.4 5.75 16.45 5.8 16.5 5.9 16.7 5.8 Q19.1 4.05 22.1 4.45 L22.9 4.6 23.05 4.65 23.25 3.9 24.1 1.45 25.3 1.85 26.5 2.05 26.05 3.6 25.75 4.7 25.55 5.55 25.85 5.65 Q27.9 7.2 28.7 9.7 L29.0 10.95 31.3 11.05 31.3 13.1 30.75 13.15 30.05 13.25 28.9 13.35 28.45 14.85 28.3 15.25 Q27.15 18.05 25.4 19.5 22.4 22.0 17.55 20.4 L17.5 20.5 17.25 21.1 16.95 21.65 16.75 21.95 16.65 22.1 16.6 22.15 16.5 22.25 16.35 22.3 16.3 22.3 15.35 21.9 14.85 21.55 14.65 21.25 15.05 19.95 15.05 19.85 M51.45 20.8 L51.1 20.8 49.55 21.1 48.1 21.4 47.8 21.45 46.95 21.3 46.6 21.0 Q45.65 20.25 45.45 19.0 L45.1 16.55 44.85 16.55 43.5 16.4 42.15 15.95 42.2 14.1 43.8 13.95 44.55 13.95 44.75 11.3 44.85 11.3 44.8 11.25 44.8 11.2 44.75 11.2 43.0 8.8 42.6 8.25 42.55 8.1 42.6 8.0 43.25 7.35 43.75 6.85 44.05 6.7 46.7 9.0 46.8 8.9 46.85 8.85 Q46.9 8.8 47.45 8.45 L48.15 7.95 48.95 8.1 49.5 8.95 48.5 9.35 48.65 9.95 48.55 10.0 48.0 10.5 47.35 11.15 46.15 12.5 45.75 12.5 45.75 12.6 45.65 13.4 45.55 14.5 45.6 15.9 45.55 16.05 45.75 16.05 46.4 16.6 46.15 17.5 46.7 19.7 Q47.1 20.1 47.85 20.3 L50.85 19.75 51.45 19.8 51.45 20.8 M30.65 3.15 L30.25 2.75 29.75 2.15 29.05 1.4 28.75 1.0 27.85 0.0 27.85 -0.05 27.9 -0.3 38.45 -0.3 Q40.75 1.15 42.35 2.85 L42.35 2.9 42.3 3.0 41.25 4.85 40.75 5.65 38.75 5.8 37.95 5.85 37.4 5.9 35.4 6.0 33.85 6.05 33.75 6.0 33.5 5.8 30.65 3.15 M44.85 11.3 L45.45 11.65 47.45 9.7 47.2 9.25 46.8 8.9 47.2 9.25 47.45 9.7 45.45 11.65 44.85 11.3 M45.1 16.55 L45.5 16.2 45.55 16.05 45.5 16.2 45.1 16.55 M44.55 13.95 L45.55 13.95 45.55 14.5 45.55 13.95 44.55 13.95 M22.85 5.55 L23.05 4.65 22.85 5.55 Q20.45 5.25 18.2 6.2 L17.15 6.7 16.65 6.95 14.1 10.4 Q13.7 12.25 13.85 13.85 L14.2 15.5 14.25 15.7 14.85 17.0 16.25 18.0 Q18.35 19.35 20.55 19.95 L23.45 18.95 Q25.7 17.75 27.15 15.45 L27.25 13.5 26.8 10.95 27.25 10.95 29.0 10.95 27.25 10.95 27.15 10.25 Q26.85 8.3 25.25 6.8 L25.15 7.45 22.75 6.8 22.85 5.55 M25.55 5.55 L25.25 6.8 25.55 5.55 M28.9 13.35 L27.25 13.5 28.9 13.35 M14.75 7.45 L15.05 7.95 16.65 6.95 15.05 7.95 14.75 7.45 M17.15 6.7 L16.5 5.9 17.15 6.7 M15.35 19.1 L15.6 18.5 17.75 19.75 17.55 20.4 17.75 19.75 15.6 18.5 15.35 19.1" fill="#3f3b3c" fill-rule="evenodd" stroke="none"/>
      <path d="M8.4 2.05 L8.3 1.25 8.25 0.9 8.05 -0.15 8.0 -0.3 10.7 -0.3 10.05 4.75 10.05 4.95 9.85 6.6 9.85 6.65 9.15 11.85 9.05 12.4 10.8 16.45 10.9 16.6 10.9 16.65 11.3 16.9 12.4 17.65 13.2 18.25 13.3 18.3 13.3 18.35 14.0 18.85 14.65 19.35 14.95 19.7 15.05 19.85 15.05 19.95 14.65 21.25 14.85 21.55 15.35 21.9 16.3 22.3 16.35 22.3 16.5 22.25 16.6 22.15 16.65 22.3 16.85 22.6 16.95 22.75 17.15 23.05 17.65 23.85 18.45 25.05 19.1 26.1 19.25 26.3 21.6 26.6 22.55 26.75 24.8 27.1 25.3 27.15 25.5 27.2 25.65 27.25 25.5 27.55 Q25.2 28.3 25.2 29.5 L25.05 30.0 23.5 29.7 22.75 29.5 22.0 29.35 20.7 29.05 19.85 28.85 16.3 27.9 15.85 27.75 15.05 27.5 15.15 27.25 14.9 27.1 15.05 25.25 15.0 24.5 15.05 24.35 14.85 23.8 13.8 22.45 13.6 22.25 13.2 21.75 12.25 20.8 11.5 20.1 11.0 19.6 10.6 19.2 9.5 18.25 9.45 18.2 9.35 18.1 9.2 18.0 8.8 17.6 8.15 17.1 7.65 16.7 7.6 16.55 7.15 16.45 5.0 16.8 4.8 16.85 4.65 16.95 3.55 17.5 Q3.25 17.65 2.9 17.9 L2.45 18.2 2.15 18.5 2.1 18.55 1.85 18.75 1.55 19.05 0.75 19.9 0.25 20.5 -0.3 21.4 -0.3 17.05 -0.15 17.0 Q0.75 16.95 1.55 16.45 1.7 16.35 1.8 16.3 L2.7 15.65 2.8 15.55 4.15 14.45 5.1 13.55 5.3 13.3 6.05 12.35 Q7.75 9.85 8.25 6.4 L8.45 3.4 8.4 2.05 M47.9 24.4 L48.2 24.1 48.4 24.25 50.25 25.55 50.7 25.55 51.1 25.5 51.45 25.4 51.45 26.05 51.4 27.3 51.3 27.55 50.95 27.7 49.55 28.4 49.25 27.85 49.25 27.35 49.1 26.35 47.9 24.4 M0.1 53.45 L-0.3 53.45 -0.3 45.3 0.1 42.3 0.3 40.35 0.3 40.2 0.35 38.75 0.25 36.55 0.2 35.75 -0.3 32.55 -0.3 30.0 0.15 30.0 Q0.75 30.4 2.1 30.8 L2.25 30.8 2.5 30.85 2.65 30.95 2.05 37.25 2.05 37.3 2.0 37.95 1.95 38.45 1.8 39.6 0.95 40.6 Q0.45 41.5 0.25 42.45 -0.1 43.9 0.45 45.6 L0.55 45.95 1.05 46.95 0.95 47.5 0.6 50.35 0.15 52.95 0.1 53.45" fill="#748555" fill-rule="evenodd" stroke="none"/>
      <path d="M13.4 -0.3 L13.55 -0.15 13.75 -0.15 13.55 -0.25 14.4 -0.1 17.0 0.5 17.4 0.6 17.5 0.5 18.75 -0.3 27.9 -0.3 27.85 -0.05 27.85 0.0 28.75 1.0 29.05 1.4 29.75 2.15 30.25 2.75 30.65 3.15 30.15 3.3 Q29.8 3.45 29.65 3.7 L29.65 3.75 Q29.5 3.95 29.5 4.25 29.5 6.45 32.2 9.3 L33.2 10.25 35.75 12.35 Q36.75 13.0 37.7 13.35 L40.0 13.8 40.7 13.8 41.45 13.7 Q43.5 13.4 44.3 12.15 L44.75 11.3 44.55 13.95 43.8 13.95 42.2 14.1 42.15 15.95 43.5 16.4 44.85 16.55 45.1 16.55 45.45 19.0 Q45.65 20.25 46.6 21.0 L46.95 21.3 47.8 21.45 48.1 21.4 49.55 21.1 51.1 20.8 51.45 20.8 51.55 23.4 51.5 24.35 51.45 25.4 51.1 25.5 50.7 25.55 50.25 25.55 48.4 24.25 48.2 24.1 47.9 24.4 47.45 23.8 46.9 23.0 45.65 21.55 45.4 21.2 44.65 20.45 43.45 19.2 42.55 18.2 41.5 18.0 37.05 20.9 36.7 21.1 36.55 21.15 36.4 21.2 35.85 21.55 35.6 21.7 35.05 22.0 33.85 22.65 32.6 23.3 30.95 24.1 30.45 24.4 29.4 24.9 27.7 25.8 27.65 25.8 26.4 26.4 26.3 26.45 25.95 26.8 25.65 27.25 25.5 27.2 25.3 27.15 24.8 27.1 22.55 26.75 21.6 26.6 19.25 26.3 19.1 26.1 18.45 25.05 17.65 23.85 17.15 23.05 16.95 22.75 16.85 22.6 16.65 22.3 16.6 22.15 16.65 22.1 16.75 21.95 16.95 21.65 17.25 21.1 17.5 20.5 17.55 20.4 Q22.4 22.0 25.4 19.5 27.15 18.05 28.3 15.25 L28.45 14.85 28.9 13.35 30.05 13.25 30.75 13.15 31.3 13.1 31.3 11.05 29.0 10.95 28.7 9.7 Q27.9 7.2 25.85 5.65 L25.55 5.55 25.75 4.7 26.05 3.6 26.5 2.05 25.3 1.85 24.1 1.45 23.25 3.9 23.05 4.65 22.9 4.6 22.1 4.45 Q19.1 4.05 16.7 5.8 L16.5 5.9 16.45 5.8 16.4 5.75 16.1 5.4 15.8 5.1 15.8 5.0 15.55 4.75 15.55 4.7 14.4 3.1 13.45 3.8 12.95 4.15 12.75 4.35 13.0 4.9 13.15 5.1 13.95 6.25 14.1 6.55 14.6 7.2 14.65 7.35 14.7 7.4 14.75 7.4 14.75 7.45 14.55 7.5 Q12.35 10.4 12.5 13.3 12.65 15.3 13.95 17.4 L14.35 17.95 14.4 18.05 15.35 19.1 15.1 19.75 15.05 19.85 14.95 19.7 14.65 19.35 14.0 18.85 13.3 18.35 13.3 18.3 13.2 18.25 12.4 17.65 11.3 16.9 10.9 16.65 10.9 16.6 10.8 16.45 9.05 12.4 9.15 11.85 9.85 6.65 9.85 6.6 10.05 4.95 10.05 4.75 10.7 -0.3 13.4 -0.3 M54.6 45.65 L54.6 47.75 54.5 47.6 54.25 47.0 53.05 44.6 52.15 43.2 52.05 43.05 51.4 42.1 51.25 41.95 50.25 40.55 50.25 40.5 50.1 40.35 50.1 40.3 49.75 39.85 47.05 36.2 46.35 35.3 44.15 32.45 43.5 31.6 42.55 31.0 42.0 30.8 41.75 30.4 42.35 30.3 42.5 30.3 42.6 30.3 42.7 30.25 43.4 30.15 44.45 30.0 44.65 29.95 45.05 30.95 45.55 31.9 46.0 32.8 46.2 33.25 46.6 34.15 47.05 35.15 48.55 37.55 50.65 40.6 51.85 42.15 51.95 42.3 52.65 43.2 53.35 44.1 53.8 44.65 54.6 45.65 M54.6 51.75 L54.6 53.45 51.65 53.45 51.0 52.45 51.8 53.05 53.45 52.85 54.45 51.95 54.6 51.75 M10.55 53.45 L9.1 53.45 Q9.6 51.25 9.6 47.85 L9.6 47.7 9.6 47.3 9.6 46.35 9.55 45.55 9.5 44.15 9.5 43.9 9.45 43.2 9.35 41.3 9.3 39.85 9.2 38.1 8.85 32.7 8.75 31.45 8.55 31.05 8.6 31.0 8.9 30.95 10.55 30.55 10.95 30.45 Q10.65 31.6 10.5 33.05 L10.35 34.15 9.85 37.05 9.75 40.3 9.75 40.35 9.75 40.65 9.85 44.5 9.95 46.1 10.0 46.75 10.0 47.05 10.05 48.2 10.25 50.3 10.55 53.45 M2.6 53.45 L0.1 53.45 0.15 52.95 0.6 50.35 0.95 47.5 1.05 46.95 0.55 45.95 0.45 45.6 Q-0.1 43.9 0.25 42.45 0.45 41.5 0.95 40.6 L1.8 39.6 1.95 38.45 2.0 37.95 2.05 37.3 2.05 37.25 2.65 30.95 4.1 31.2 4.7 31.25 5.85 31.3 6.0 31.3 Q5.1 33.55 4.25 38.65 L3.8 38.7 2.65 39.0 2.5 39.1 2.0 39.4 1.8 39.6 2.0 39.4 2.5 39.1 2.65 39.0 3.8 38.7 4.25 38.65 4.2 39.05 3.95 40.7 3.95 40.85 3.85 41.15 3.7 42.25 3.7 42.5 3.2 46.35 3.15 46.7 2.75 46.35 2.6 46.1 Q2.15 45.45 2.0 44.8 L1.95 44.2 Q1.95 42.75 2.7 41.9 L2.75 41.8 3.2 41.45 Q3.5 41.25 3.85 41.15 3.5 41.25 3.2 41.45 L2.75 41.8 2.7 41.9 Q1.95 42.75 1.95 44.2 L2.0 44.8 Q2.15 45.45 2.6 46.1 L2.75 46.35 3.15 46.7 3.0 48.0 2.9 48.6 2.25 48.3 1.05 46.95 2.25 48.3 2.9 48.6 2.6 53.25 2.6 53.45" fill="#a5ba7f" fill-rule="evenodd" stroke="none"/>
      <path d="M51.45 25.4 L51.5 24.35 51.6 24.45 53.25 26.0 54.6 27.25 54.6 29.45 Q53.8 28.0 52.45 26.8 L51.5 26.05 51.45 26.05 51.45 25.4 M49.5 8.95 L50.05 9.95 50.55 11.15 50.65 11.55 50.65 12.0 50.85 13.5 50.9 13.6 51.0 14.3 51.3 14.45 51.3 14.85 51.3 15.6 51.3 15.8 51.4 19.35 51.45 19.65 51.45 19.8 50.85 19.75 47.85 20.3 Q47.1 20.1 46.7 19.7 L46.15 17.5 46.4 16.6 45.75 16.05 45.55 16.05 45.6 15.9 45.55 14.5 45.65 13.4 45.75 12.6 45.75 12.5 46.15 12.5 47.35 11.15 48.0 10.5 48.55 10.0 48.65 9.95 48.5 9.35 49.5 8.95 M48.45 14.5 L48.25 14.55 48.2 14.6 48.1 14.65 Q47.9 14.8 47.85 15.05 L47.85 15.1 Q47.85 15.7 48.2 15.75 L48.25 15.75 48.55 15.6 48.75 15.55 48.9 15.15 48.9 15.1 48.9 14.9 48.9 14.35 48.65 14.35 48.45 14.5 M39.7 30.65 L40.2 31.3 40.45 31.65 41.5 33.75 Q42.05 35.2 41.5 36.5 L41.1 37.25 Q39.55 39.4 37.2 37.9 34.9 36.45 34.3 33.6 34.1 32.4 34.5 31.25 L34.55 31.0 36.1 30.95 39.7 30.65 M30.6 30.85 Q30.85 32.15 30.0 34.55 29.1 37.2 26.85 38.6 23.8 40.45 20.15 40.55 L18.75 40.45 18.1 39.75 Q16.75 38.5 14.9 38.3 L14.25 37.45 Q12.35 34.35 13.6 31.05 14.35 29.0 15.85 27.75 L16.3 27.9 19.85 28.85 20.7 29.05 22.0 29.35 22.75 29.5 23.5 29.7 25.05 30.0 25.2 30.05 25.9 30.2 27.1 30.4 27.45 31.25 Q27.45 32.55 25.6 34.8 23.85 36.85 23.3 36.85 L21.6 36.5 18.95 35.7 17.25 35.05 Q17.0 34.9 17.0 34.15 17.0 33.3 17.65 31.0 18.3 28.6 18.6 28.6 L19.85 28.85 18.6 28.6 Q18.3 28.6 17.65 31.0 17.0 33.3 17.0 34.15 17.0 34.9 17.25 35.05 L18.95 35.7 21.6 36.5 23.3 36.85 Q23.85 36.85 25.6 34.8 27.45 32.55 27.45 31.25 L27.1 30.4 30.6 30.85 M22.85 5.55 L22.75 6.8 25.15 7.45 25.25 6.8 Q26.85 8.3 27.15 10.25 L27.25 10.95 26.8 10.95 27.25 13.5 27.15 15.45 Q25.7 17.75 23.45 18.95 L20.55 19.95 Q18.35 19.35 16.25 18.0 L14.85 17.0 14.25 15.7 14.2 15.5 13.85 13.85 Q13.7 12.25 14.1 10.4 L16.65 6.95 17.15 6.7 18.2 6.2 Q20.45 5.25 22.85 5.55 M21.5 12.9 L21.85 12.1 21.85 11.95 21.65 11.7 21.3 11.6 20.8 11.6 20.35 11.8 20.4 12.45 20.65 13.05 20.85 13.05 21.1 13.1 21.5 13.0 21.5 12.9 M7.65 16.7 L8.15 17.1 8.8 17.6 9.2 18.0 9.35 18.1 9.45 18.2 9.5 18.25 10.6 19.2 11.0 19.6 11.5 20.1 12.25 20.8 13.2 21.75 13.6 22.25 13.8 22.45 14.85 23.8 15.05 24.35 15.0 24.5 15.05 25.25 14.9 27.1 15.15 27.25 15.05 27.5 Q14.9 28.3 14.2 28.95 L12.8 29.8 11.85 30.2 11.4 30.3 10.95 30.45 10.55 30.55 8.9 30.95 11.15 29.4 11.35 29.25 12.25 28.4 12.35 28.3 12.5 28.15 12.55 27.15 12.55 27.05 12.55 26.65 12.55 26.3 12.55 26.1 12.6 25.55 9.1 22.25 7.4 20.75 6.6 20.0 5.3 18.85 4.3 18.85 2.85 19.35 Q2.3 19.6 1.8 19.95 L0.65 20.75 0.25 20.5 0.75 19.9 1.55 19.05 1.85 18.75 2.1 18.55 2.15 18.5 2.45 18.2 2.9 17.9 Q3.25 17.65 3.55 17.5 L4.65 16.95 4.8 16.85 5.0 16.8 7.15 16.45 7.65 16.7 M37.2 31.6 L36.3 31.6 36.3 33.15 37.0 34.75 37.7 35.15 38.85 35.05 39.55 34.9 39.8 33.45 39.85 33.2 40.15 31.85 39.85 33.2 39.8 33.45 39.55 34.9 38.85 35.05 37.7 35.15 37.0 34.75 36.3 33.15 36.3 31.6 37.2 31.6 M20.35 32.95 L21.1 33.2 21.65 33.4 22.35 31.6 22.95 29.75 22.0 29.35 22.95 29.75 22.35 31.6 21.65 33.4 21.1 33.2 20.35 32.95" fill="#ffffe6" fill-rule="evenodd" stroke="none"/>
      <path d="M44.75 11.3 L44.3 12.15 Q43.5 13.4 41.45 13.7 L40.7 13.8 40.0 13.8 37.7 13.35 Q36.75 13.0 35.75 12.35 L33.2 10.25 32.2 9.3 Q29.5 6.45 29.5 4.25 29.5 3.95 29.65 3.75 L29.65 3.7 Q29.8 3.45 30.15 3.3 L30.65 3.15 33.5 5.8 33.75 6.0 33.85 6.05 35.4 6.0 35.35 6.5 Q35.35 8.5 36.45 9.65 L36.7 9.95 Q37.6 10.65 38.9 10.85 L39.7 10.9 41.0 10.75 41.7 10.4 41.95 10.2 Q42.5 9.55 42.6 8.25 L43.0 8.8 44.75 11.2 44.75 11.3 M41.25 4.85 L42.3 3.0 42.35 2.9 42.65 3.15 42.85 3.4 44.4 4.9 44.75 5.25 Q46.5 6.95 47.45 8.45 46.9 8.8 46.85 8.85 L46.8 8.9 46.7 9.0 44.05 6.7 43.75 6.85 43.25 7.35 42.6 8.0 42.6 7.6 Q42.6 6.15 41.8 5.3 L41.4 4.95 41.25 4.85 M54.6 47.75 L54.6 51.75 54.45 51.95 53.45 52.85 51.8 53.05 51.0 52.45 47.7 47.0 47.35 46.4 47.3 46.35 48.0 45.2 48.2 45.1 Q49.0 44.55 49.3 43.75 L49.35 42.6 49.0 41.75 48.9 41.6 47.85 40.75 47.5 40.6 47.85 40.75 48.9 41.6 49.0 41.75 49.35 42.6 49.3 43.75 Q49.0 44.55 48.2 45.1 L48.0 45.2 48.2 44.5 Q48.45 42.8 47.65 40.95 L47.5 40.6 Q46.8 39.15 45.7 38.3 L45.9 38.3 Q48.2 37.95 49.75 39.85 48.2 37.95 45.9 38.3 L45.7 38.3 45.45 38.1 Q44.45 37.4 43.6 37.45 44.05 33.85 42.0 30.8 L42.55 31.0 43.5 31.6 44.15 32.45 46.35 35.3 47.05 36.2 49.75 39.85 50.1 40.3 50.1 40.35 50.25 40.5 50.25 40.55 51.25 41.95 51.4 42.1 52.05 43.05 52.15 43.2 53.05 44.6 54.25 47.0 54.5 47.6 54.6 47.75 M9.1 53.45 L2.6 53.45 2.6 53.25 2.9 48.6 3.0 48.0 3.15 46.7 3.75 47.05 4.7 47.2 Q5.75 47.2 6.55 46.65 L7.35 45.55 7.5 44.55 7.5 44.35 7.45 43.85 7.1 42.85 6.2 41.75 5.5 41.45 4.45 41.1 4.35 41.1 3.85 41.15 4.35 41.1 4.45 41.1 5.5 41.45 6.2 41.75 7.1 42.85 7.45 43.85 7.5 44.35 7.5 44.55 7.35 45.55 6.55 46.65 Q5.75 47.2 4.7 47.2 L3.75 47.05 3.15 46.7 3.2 46.35 3.7 42.5 3.7 42.25 3.85 41.15 3.95 40.85 3.95 40.7 4.2 39.05 4.25 38.65 Q5.1 33.55 6.0 31.3 L6.7 31.25 7.25 31.2 8.55 31.05 8.75 31.45 8.85 32.7 9.2 38.1 9.3 39.85 9.35 41.3 9.45 43.2 9.5 43.9 9.5 44.15 9.55 45.55 9.6 46.35 9.6 47.3 9.6 47.7 9.6 47.85 Q9.6 51.25 9.1 53.45 M50.25 40.55 L50.8 41.75 50.9 42.0 51.0 42.85 Q51.0 44.3 49.7 45.65 L49.35 46.0 48.4 46.65 47.7 47.0 48.4 46.65 49.35 46.0 49.7 45.65 Q51.0 44.3 51.0 42.85 L50.9 42.0 50.8 41.75 50.25 40.55 M9.45 43.2 L9.15 41.85 Q8.4 39.65 5.7 38.85 L4.25 38.65 5.7 38.85 Q8.4 39.65 9.15 41.85 L9.45 43.2 M2.9 48.6 L3.9 48.85 5.15 48.85 5.75 48.7 Q7.8 48.2 8.75 46.85 L9.2 46.0 9.4 45.2 9.5 44.15 9.4 45.2 9.2 46.0 8.75 46.85 Q7.8 48.2 5.75 48.7 L5.15 48.85 3.9 48.85 2.9 48.6" fill="#c4dd95" fill-rule="evenodd" stroke="none"/>
      <path d="M41.25 4.85 L41.4 4.95 41.8 5.3 Q42.6 6.15 42.6 7.6 L42.6 8.0 42.55 8.1 42.6 8.25 Q42.5 9.55 41.95 10.2 L41.7 10.4 41.0 10.75 39.7 10.9 38.9 10.85 Q37.6 10.65 36.7 9.95 L36.45 9.65 Q35.35 8.5 35.35 6.5 L35.4 6.0 37.4 5.9 37.95 5.85 38.75 5.8 40.75 5.65 41.25 4.85" fill="#dff5b8" fill-rule="evenodd" stroke="none"/>
      <path d="M30.95 24.1 L32.6 23.3 33.85 22.65 35.05 22.0 35.6 21.7 35.85 21.55 36.4 21.2 36.55 21.15 36.7 21.1 37.05 20.9 41.5 18.0 42.55 18.2 43.45 19.2 44.65 20.45 45.4 21.2 45.65 21.55 46.9 23.0 47.45 23.8 47.9 24.4 49.1 26.35 49.25 27.35 49.25 27.85 49.55 28.4 49.5 28.4 49.45 28.45 49.2 28.55 47.7 29.1 47.6 25.7 47.45 25.45 47.2 25.05 45.45 22.75 44.75 21.9 43.9 20.95 43.75 20.7 42.75 19.85 42.65 19.75 42.55 19.7 42.15 19.65 41.2 19.6 39.2 20.7 37.75 21.5 37.2 21.75 37.0 21.85 36.7 22.0 36.1 22.3 35.7 22.5 35.45 22.55 35.35 22.6 35.3 22.65 34.0 23.15 32.95 23.55 31.0 24.35 30.95 24.1 M44.05 26.4 L43.55 26.1 43.25 25.9 43.2 25.8 43.0 24.65 43.2 21.85 43.2 21.7 43.3 21.45 43.45 21.25 43.5 21.2 43.65 21.15 44.1 21.5 44.3 22.1 44.4 22.35 44.25 22.35 44.15 22.2 43.75 21.6 43.5 21.8 43.45 21.85 43.5 22.0 43.6 23.65 43.8 25.8 43.85 26.0 43.9 26.2 44.05 26.4 M34.75 26.45 L34.6 26.3 34.35 26.1 34.25 25.85 34.2 25.25 34.5 25.0 34.65 24.9 36.1 23.7 36.3 23.55 36.75 23.2 36.9 23.1 37.6 22.55 37.8 22.4 39.4 21.2 39.45 21.15 39.5 21.1 39.7 21.0 39.75 20.95 39.85 20.9 39.9 20.9 40.3 21.05 40.35 21.1 40.6 21.35 40.7 21.55 40.25 22.0 40.05 22.25 40.0 22.3 39.05 23.4 38.85 23.55 38.95 23.3 39.7 22.1 39.75 22.1 39.75 22.05 39.8 22.0 39.8 21.85 39.55 21.55 38.05 22.75 38.0 22.75 37.85 22.9 37.15 23.4 36.9 23.1 36.9 23.55 36.5 23.85 36.3 24.0 34.95 25.0 34.8 25.1 34.7 25.2 34.8 25.35 34.75 26.45" fill="#ffd0ea" fill-rule="evenodd" stroke="none"/>
      <path d="M25.65 27.25 L25.95 26.8 26.3 26.45 26.4 26.4 27.65 25.8 27.7 25.8 29.4 24.9 30.45 24.4 30.95 24.1 31.0 24.35 32.95 23.55 34.0 23.15 35.3 22.65 35.35 22.6 35.45 22.55 35.7 22.5 36.1 22.3 36.7 22.0 37.0 21.85 37.2 21.75 37.75 21.5 39.2 20.7 41.2 19.6 42.15 19.65 42.55 19.7 42.65 19.75 42.75 19.85 43.75 20.7 43.9 20.95 44.75 21.9 45.45 22.75 47.2 25.05 47.45 25.45 47.6 25.7 47.7 29.1 47.15 29.3 46.5 29.5 46.05 29.6 44.8 29.9 44.65 29.95 44.45 30.0 43.4 30.15 42.7 30.25 42.6 30.3 42.5 30.3 42.35 30.3 41.75 30.4 41.0 30.5 39.7 30.65 36.1 30.95 34.55 31.0 30.75 30.85 30.6 30.85 27.1 30.4 25.9 30.2 25.2 30.05 25.05 30.0 25.2 29.5 Q25.2 28.3 25.5 27.55 L25.65 27.25 M44.25 22.35 L44.4 22.35 44.3 22.1 44.1 21.5 43.65 21.15 43.5 21.2 43.45 21.25 43.3 21.45 43.2 21.7 43.2 21.85 43.0 24.65 43.2 25.8 43.25 25.9 43.55 26.1 44.05 26.4 44.25 26.6 44.5 26.75 44.95 27.15 45.15 27.25 45.2 27.2 45.25 27.1 45.5 26.8 45.9 26.35 46.2 26.05 46.35 25.8 46.3 25.7 45.1 23.7 44.25 22.35 M38.85 23.55 L39.05 23.4 40.0 22.3 40.05 22.25 40.25 22.0 40.7 21.55 40.6 21.35 40.35 21.1 40.3 21.05 39.9 20.9 39.85 20.9 39.75 20.95 39.7 21.0 39.5 21.1 39.45 21.15 39.4 21.2 37.8 22.4 37.6 22.55 36.9 23.1 36.75 23.2 36.3 23.55 36.1 23.7 34.65 24.9 34.5 25.0 34.2 25.25 34.25 25.85 34.35 26.1 34.6 26.3 34.75 26.45 34.8 26.45 35.0 26.6 35.25 26.7 36.25 27.0 36.4 27.0 36.5 27.0 Q36.7 27.0 36.55 26.8 L36.75 26.6 37.55 25.45 37.7 25.25 37.95 24.85 38.2 24.5 38.6 23.85 38.65 23.8 38.85 23.55 M36.9 23.55 L36.9 23.1 37.15 23.4 37.0 23.55 36.9 23.55" fill="#fd9ed4" fill-rule="evenodd" stroke="none"/>
      <path d="M44.05 26.4 L43.9 26.2 43.85 26.0 43.8 25.8 43.6 23.65 43.5 22.0 43.45 21.85 43.5 21.8 43.75 21.6 44.15 22.2 44.25 22.35 45.1 23.7 46.3 25.7 46.35 25.8 46.2 26.05 45.9 26.35 45.5 26.8 45.25 27.1 45.2 27.2 45.15 27.25 44.95 27.15 44.5 26.75 44.25 26.6 44.05 26.4 M38.85 23.55 L38.65 23.8 38.6 23.85 38.2 24.5 37.95 24.85 37.7 25.25 37.55 25.45 36.75 26.6 36.55 26.8 Q36.7 27.0 36.5 27.0 L36.4 27.0 36.25 27.0 35.25 26.7 35.0 26.6 34.8 26.45 34.75 26.45 34.8 25.35 34.7 25.2 34.8 25.1 34.95 25.0 36.3 24.0 36.5 23.85 36.9 23.55 37.0 23.55 37.15 23.4 37.85 22.9 38.0 22.75 38.05 22.75 39.55 21.55 39.8 21.85 39.8 22.0 39.75 22.05 39.75 22.1 39.7 22.1 38.95 23.3 38.85 23.55" fill="#6c3647" fill-rule="evenodd" stroke="none"/>
      <path d="M51.45 26.05 L51.5 26.05 52.45 26.8 Q53.8 28.0 54.6 29.45 L54.6 34.1 54.2 34.35 Q54.55 32.8 54.4 32.0 54.2 30.95 52.8 30.15 L52.8 29.85 52.2 29.8 51.3 29.4 49.2 28.55 49.45 28.45 49.5 28.4 49.55 28.4 50.95 27.7 51.3 27.55 51.4 27.55 51.4 27.3 51.4 27.55 51.3 27.55 51.4 27.3 51.45 26.05 M-0.3 23.0 L-0.3 21.4 0.25 20.5 0.65 20.75 1.8 19.95 Q2.3 19.6 2.85 19.35 L4.3 18.85 5.3 18.85 6.6 20.0 7.4 20.75 9.1 22.25 12.6 25.55 12.55 26.1 12.55 26.3 12.55 26.65 12.55 27.05 12.55 27.15 11.95 27.25 10.5 27.4 8.7 27.65 8.45 27.55 5.1 25.95 4.85 25.8 3.95 25.4 0.6 23.55 0.35 23.4 -0.3 23.0 M19.15 45.35 L19.65 45.35 20.05 45.3 22.75 47.8 22.15 48.55 20.6 48.2 19.75 47.95 17.35 47.35 17.25 47.35 18.1 46.7 19.15 45.35 M7.6 16.55 L7.65 16.7 7.15 16.45 7.6 16.55 M10.2 27.95 L9.9 28.0 9.7 27.95 10.25 27.9 10.2 27.95" fill="#ddddcd" fill-rule="evenodd" stroke="none"/>
      <path d="M52.2 29.8 L52.8 29.85 52.8 30.15 52.8 30.2 Q52.45 30.55 51.9 32.35 50.9 31.7 49.4 31.35 L48.35 31.1 46.55 30.95 46.5 30.75 46.05 29.6 46.5 29.5 47.15 29.3 49.95 29.55 50.0 29.55 52.2 29.8" fill="#554d50" fill-rule="evenodd" stroke="none"/>
      <path d="M49.2 28.55 L51.3 29.4 52.2 29.8 50.0 29.55 49.95 29.55 47.15 29.3 47.7 29.1 49.2 28.55 M52.8 30.15 Q54.2 30.95 54.4 32.0 54.55 32.8 54.2 34.35 L53.65 34.15 53.45 34.1 51.45 33.55 51.75 32.75 51.9 32.35 Q52.45 30.55 52.8 30.2 L52.8 30.15 M-0.3 29.15 L-0.3 23.0 0.35 23.4 0.6 23.55 3.95 25.4 4.85 25.8 5.1 25.95 8.45 27.55 8.7 27.65 10.5 27.4 11.95 27.25 12.55 27.15 12.5 28.15 12.35 28.3 12.25 28.4 11.5 28.6 10.95 28.7 9.2 29.2 5.15 29.85 4.25 29.85 2.75 29.7 2.6 29.65 -0.3 29.15 M10.2 27.95 L10.25 27.9 9.7 27.95 9.9 28.0 10.2 27.95" fill="#bdbdad" fill-rule="evenodd" stroke="none"/>
      <path d="M51.9 32.35 L51.75 32.75 51.45 33.55 51.05 35.2 54.05 37.65 54.6 38.1 54.6 43.5 53.8 42.45 52.85 41.15 51.3 39.0 Q49.0 35.55 47.65 33.1 L46.55 30.95 48.35 31.1 49.4 31.35 Q50.9 31.7 51.9 32.35 M48.45 53.45 L44.2 53.45 43.4 51.25 43.35 51.25 42.55 49.25 43.1 49.1 43.25 49.05 44.7 48.75 45.3 48.65 45.15 48.45 45.65 48.5 45.65 48.6 45.3 48.65 48.0 52.8 48.45 53.45 M40.95 53.45 L30.6 53.45 30.45 53.4 30.1 53.2 24.55 53.4 20.85 53.1 19.35 52.85 19.25 53.35 19.25 53.45 12.0 53.45 11.75 50.0 11.65 48.25 11.6 47.5 Q12.8 48.15 14.3 48.15 15.95 48.15 17.25 47.35 L17.35 47.35 19.75 47.95 20.6 48.2 22.15 48.55 23.55 48.85 23.6 48.85 24.1 49.0 24.75 49.15 26.15 49.45 33.2 50.6 34.3 50.6 36.15 50.7 36.75 50.7 37.15 50.65 37.2 50.65 39.95 50.2 40.1 50.75 40.45 51.7 40.95 53.45 M39.7 30.65 L41.0 30.5 41.75 30.4 42.0 30.8 Q44.05 33.85 43.6 37.45 L42.85 37.65 Q41.65 38.1 41.4 39.8 41.3 40.45 41.35 41.15 L39.3 41.75 Q35.75 41.8 34.4 38.4 L34.35 38.15 33.85 37.95 Q31.4 39.15 29.3 41.2 L27.6 42.65 Q24.1 44.85 20.05 45.3 L19.65 45.35 19.15 45.35 Q19.65 44.35 19.65 43.2 19.65 41.65 18.75 40.45 L20.15 40.55 Q23.8 40.45 26.85 38.6 29.1 37.2 30.0 34.55 30.85 32.15 30.6 30.85 L30.75 30.85 34.55 31.0 34.5 31.25 Q34.1 32.4 34.3 33.6 34.9 36.45 37.2 37.9 39.55 39.4 41.1 37.25 L41.5 36.5 Q42.05 35.2 41.5 33.75 L40.45 31.65 40.2 31.3 39.7 30.65 M15.05 27.5 L15.85 27.75 Q14.35 29.0 13.6 31.05 12.35 34.35 14.25 37.45 L14.9 38.3 14.3 38.3 Q12.75 38.3 11.5 39.0 L11.7 35.55 12.1 32.5 12.8 29.8 14.2 28.95 Q14.9 28.3 15.05 27.5" fill="#3d383c" fill-rule="evenodd" stroke="none"/>
      <path d="M51.45 33.55 L53.45 34.1 53.65 34.15 54.2 34.35 54.6 34.5 54.6 38.1 54.05 37.65 51.05 35.2 51.45 33.55 M20.05 45.3 Q24.1 44.85 27.6 42.65 L29.3 41.2 Q31.4 39.15 33.85 37.95 L34.35 38.15 34.4 38.4 Q35.75 41.8 39.3 41.75 L41.35 41.15 Q41.45 42.25 41.95 43.35 42.75 45.25 44.15 46.25 L44.85 46.65 44.1 47.3 43.95 47.4 42.9 48.25 42.65 48.45 42.35 48.65 41.4 46.4 40.35 44.4 40.2 44.25 40.15 44.1 40.1 44.05 40.1 43.95 Q40.15 43.5 39.7 43.0 L39.7 42.95 Q39.15 42.35 38.6 42.35 L38.45 42.4 38.3 42.4 38.2 42.45 38.05 42.5 37.8 42.65 Q37.5 42.85 37.3 43.2 L37.3 43.25 36.9 43.25 35.75 43.55 35.7 43.55 33.85 43.95 33.55 43.75 33.2 44.25 33.05 44.75 33.05 45.3 33.05 45.55 33.05 45.75 33.05 45.9 Q33.15 46.65 33.65 47.15 L34.2 47.55 34.25 47.6 34.4 47.2 35.75 46.6 36.1 46.45 Q36.55 46.25 36.9 46.2 L37.4 46.1 37.6 46.45 37.65 46.45 Q37.75 46.6 38.0 46.6 L38.45 46.35 38.55 46.3 38.75 46.9 38.95 47.4 39.25 48.3 39.5 48.9 39.95 50.2 37.2 50.65 37.15 50.65 36.75 50.7 36.15 50.7 34.3 50.6 33.2 50.6 26.15 49.45 24.75 49.15 24.1 49.0 23.6 48.85 23.55 48.85 22.15 48.55 22.75 47.8 20.05 45.3 M35.25 47.6 L34.4 47.6 34.25 47.6 34.4 47.6 35.25 47.6 M34.15 43.05 L33.6 43.75 33.55 43.75 33.6 43.75 34.15 43.05" fill="#fffffa" fill-rule="evenodd" stroke="none"/>
      <path d="M45.0 39.7 Q45.1 39.55 45.3 39.55 45.9 39.5 46.35 40.45 L46.4 40.55 46.65 41.1 46.55 41.75 46.4 41.9 45.6 41.35 45.15 40.7 45.1 40.6 Q44.85 39.95 45.0 39.7 M42.95 42.15 L42.8 42.25 Q42.4 42.4 42.1 41.65 41.95 41.35 42.1 41.0 42.3 40.6 42.75 40.7 L42.85 40.95 42.95 41.15 43.05 41.6 42.95 42.15 M43.6 39.5 L43.45 39.25 Q43.25 38.8 43.55 38.65 L43.75 38.6 Q44.05 38.5 44.2 38.75 L44.5 39.1 44.65 39.4 44.65 39.5 44.4 39.9 44.15 39.95 43.6 39.5 M17.3 43.55 L17.0 43.6 Q16.45 43.6 16.1 42.8 L15.85 41.9 Q15.85 41.2 16.3 41.0 L16.85 41.0 Q17.9 41.2 17.9 42.3 L17.9 42.95 17.3 43.55 M15.85 40.7 L15.15 40.95 Q14.35 40.95 14.2 40.3 L14.2 39.95 Q14.2 39.4 15.0 39.5 15.85 39.6 15.85 40.25 L15.85 40.6 15.85 40.7 M12.0 41.35 L12.0 41.5 11.95 42.0 11.7 42.3 11.45 42.45 11.45 40.95 12.0 41.05 12.0 41.35" fill="#ffd2d6" fill-rule="evenodd" stroke="none"/>
      <path d="M18.75 40.45 Q19.65 41.65 19.65 43.2 19.65 44.35 19.15 45.35 L18.1 46.7 17.25 47.35 Q15.95 48.15 14.3 48.15 12.8 48.15 11.6 47.5 L11.55 46.4 11.45 44.25 12.15 45.3 12.6 45.65 Q13.35 46.15 14.3 46.15 15.55 46.15 16.45 45.3 L16.75 44.95 17.3 43.55 17.9 42.95 17.9 42.3 Q17.9 41.2 16.85 41.0 L16.3 41.0 15.85 40.7 15.85 40.6 15.85 40.25 Q15.85 39.6 15.0 39.5 14.2 39.4 14.2 39.95 L14.2 40.3 Q13.0 40.3 12.15 41.15 L12.0 41.35 12.0 41.05 11.45 40.95 11.5 39.0 Q12.75 38.3 14.3 38.3 L14.9 38.3 Q16.75 38.5 18.1 39.75 L18.75 40.45 M41.35 41.15 Q41.3 40.45 41.4 39.8 41.65 38.1 42.85 37.65 L43.6 37.45 Q44.45 37.4 45.45 38.1 L45.7 38.3 Q46.8 39.15 47.5 40.6 L47.65 40.95 Q48.45 42.8 48.2 44.5 L48.0 45.2 47.3 46.35 46.75 46.7 44.85 46.65 44.15 46.25 Q42.75 45.25 41.95 43.35 41.45 42.25 41.35 41.15 M46.55 41.75 L46.65 41.1 46.4 40.55 46.35 40.45 Q45.9 39.5 45.3 39.55 45.1 39.55 45.0 39.7 L44.65 39.5 44.65 39.4 44.5 39.1 44.2 38.75 Q44.05 38.5 43.75 38.6 L43.55 38.65 Q43.25 38.8 43.45 39.25 L43.6 39.5 43.35 39.65 Q42.95 40.0 42.85 40.75 L42.85 40.95 42.75 40.7 Q42.3 40.6 42.1 41.0 41.95 41.35 42.1 41.65 42.4 42.4 42.8 42.25 L42.95 42.15 43.2 42.85 Q43.65 43.95 44.5 44.55 45.3 45.15 46.0 44.9 L46.3 44.65 46.4 44.55 46.8 43.6 Q46.9 42.7 46.55 41.75" fill="#ffbcc2" fill-rule="evenodd" stroke="none"/>
      <path d="M45.0 39.7 Q44.85 39.95 45.1 40.6 L45.15 40.7 45.6 41.35 46.4 41.9 46.55 41.75 Q46.9 42.7 46.8 43.6 L46.4 44.55 46.3 44.65 46.0 44.9 Q45.3 45.15 44.5 44.55 43.65 43.95 43.2 42.85 L42.95 42.15 43.05 41.6 42.95 41.15 42.85 40.95 42.85 40.75 Q42.95 40.0 43.35 39.65 L43.6 39.5 44.15 39.95 44.4 39.9 44.65 39.5 45.0 39.7 M16.3 41.0 Q15.85 41.2 15.85 41.9 L16.1 42.8 Q16.45 43.6 17.0 43.6 L17.3 43.55 16.75 44.95 16.45 45.3 Q15.55 46.15 14.3 46.15 13.35 46.15 12.6 45.65 L12.15 45.3 11.45 44.25 11.45 43.45 11.45 42.45 11.7 42.3 11.95 42.0 12.0 41.5 12.0 41.35 12.15 41.15 Q13.0 40.3 14.2 40.3 14.35 40.95 15.15 40.95 L15.85 40.7 16.3 41.0" fill="#f59ba3" fill-rule="evenodd" stroke="none"/>
      <path d="M51.65 53.45 L48.45 53.45 48.0 52.8 45.3 48.65 45.65 48.6 45.65 48.5 45.15 48.45 45.3 48.65 44.7 48.75 43.25 49.05 43.1 49.1 42.55 49.25 42.35 48.65 42.65 48.45 42.9 48.25 43.95 47.4 44.1 47.3 44.85 46.65 46.75 46.7 47.3 46.35 47.35 46.4 47.7 47.0 51.0 52.45 51.65 53.45 M30.6 53.45 L19.25 53.45 19.25 53.35 19.35 52.85 20.85 53.1 24.55 53.4 30.1 53.2 30.45 53.4 30.6 53.45" fill="#5c5355" fill-rule="evenodd" stroke="none"/>
      <path d="M42.35 53.45 L40.95 53.45 40.45 51.7 40.1 50.75 39.95 50.2 39.5 48.9 39.25 48.3 38.95 47.4 38.75 46.9 38.55 46.3 38.45 46.35 38.0 46.6 Q37.75 46.6 37.65 46.45 L37.6 46.45 37.55 46.1 37.4 46.1 36.9 46.2 Q36.55 46.25 36.1 46.45 L35.75 46.6 34.4 47.2 34.25 47.6 34.2 47.55 33.65 47.15 Q33.15 46.65 33.05 45.9 L33.35 45.8 35.6 45.45 35.95 45.4 36.9 45.1 37.25 44.9 37.25 44.65 37.25 44.25 37.25 44.15 37.3 43.25 37.3 43.2 Q37.5 42.85 37.8 42.65 L38.05 42.5 38.2 42.45 38.3 42.4 38.3 42.55 38.3 42.65 38.25 42.95 38.2 43.55 38.35 44.55 38.5 45.65 39.05 45.15 39.15 44.85 39.25 44.7 39.4 44.5 39.55 44.25 39.7 44.15 39.8 44.05 40.15 44.1 40.2 44.25 40.35 44.4 Q39.95 44.65 39.8 45.3 L39.75 45.45 39.65 46.0 39.6 46.15 39.55 46.35 39.85 47.3 40.6 49.3 40.65 49.3 40.85 49.8 42.05 52.85 42.35 53.45" fill="#ff9d26" fill-rule="evenodd" stroke="none"/>
      <path d="M43.2 53.45 L42.35 53.45 42.05 52.85 40.85 49.8 40.65 49.3 40.6 49.3 39.85 47.3 39.55 46.35 39.6 46.15 39.65 46.0 39.75 45.45 39.8 45.3 41.0 48.1 41.5 49.35 41.7 49.8 42.65 52.15 43.2 53.45 M37.6 46.45 L37.4 46.1 37.55 46.1 37.6 46.45 M37.25 44.25 L37.25 44.65 37.25 44.9 36.9 45.1 35.95 45.4 35.6 45.45 33.35 45.8 33.05 45.9 33.05 45.75 33.05 45.55 33.05 45.3 35.55 44.65 35.85 44.55 36.95 44.3 37.25 44.25 M38.3 42.4 L38.45 42.4 38.5 42.6 38.7 43.55 38.7 43.65 38.75 43.9 39.05 43.85 39.15 43.5 39.25 43.5 39.55 44.25 39.4 44.5 39.25 44.7 39.15 44.85 39.05 45.15 38.5 45.65 38.35 44.55 38.2 43.55 38.25 42.95 38.3 42.65 38.3 42.55 38.3 42.4 M40.1 44.05 L40.15 44.1 39.8 44.05 40.1 44.05" fill="#ffd926" fill-rule="evenodd" stroke="none"/>
      <path d="M44.2 53.45 L43.2 53.45 42.65 52.15 41.7 49.8 41.5 49.35 41.0 48.1 39.8 45.3 Q39.95 44.65 40.35 44.4 L41.4 46.4 42.35 48.65 42.55 49.25 43.35 51.25 43.4 51.25 44.2 53.45 M37.3 43.25 L37.25 44.15 37.25 44.25 36.95 44.3 35.85 44.55 35.55 44.65 33.05 45.3 33.05 44.75 33.2 44.25 33.55 43.75 33.85 43.95 35.7 43.55 35.75 43.55 36.9 43.25 37.3 43.25 M39.55 44.25 L39.25 43.5 39.15 43.5 39.05 43.85 38.75 43.9 38.7 43.65 38.7 43.55 38.5 42.6 38.45 42.4 38.6 42.35 Q39.15 42.35 39.7 42.95 L39.7 43.0 Q40.15 43.5 40.1 43.95 L40.1 44.05 39.8 44.05 39.7 44.15 39.55 44.25" fill="#ffed9a" fill-rule="evenodd" stroke="none"/>
      <path d="M-0.3 30.0 L-0.3 29.15 2.6 29.65 2.75 29.7 4.25 29.85 5.15 29.85 9.2 29.2 10.95 28.7 11.5 28.6 12.25 28.4 11.35 29.25 11.15 29.4 8.9 30.95 8.6 31.0 8.55 31.05 7.25 31.2 6.7 31.25 6.0 31.3 5.85 31.3 4.7 31.25 4.1 31.2 2.65 30.95 2.5 30.85 2.25 30.8 2.1 30.8 Q0.75 30.4 0.15 30.0 L-0.3 30.0" fill="#d5d6d2" fill-rule="evenodd" stroke="none"/>
      <path d="M8.4 2.05 L8.3 1.25 8.25 0.9 8.05 -0.15 M15.05 19.85 L15.1 19.75 15.35 19.1 14.4 18.05 14.35 17.95 13.95 17.4 Q12.65 15.3 12.5 13.3 12.35 10.4 14.55 7.5 M14.75 7.45 L14.75 7.4 14.7 7.4 14.65 7.35 14.6 7.2 14.1 6.55 13.95 6.25 13.15 5.1 13.0 4.9 12.75 4.35 12.95 4.15 13.45 3.8 14.4 3.1 15.55 4.7 15.55 4.75 15.8 5.0 15.8 5.1 16.1 5.4 16.4 5.75 16.45 5.8 16.5 5.9 17.15 6.7 16.65 6.95 15.05 7.95 14.75 7.45 M16.7 5.8 Q19.1 4.05 22.1 4.45 L22.9 4.6 M23.05 4.65 L23.25 3.9 24.1 1.45 25.3 1.85 26.5 2.05 26.05 3.6 25.75 4.7 25.55 5.55 25.25 6.8 25.15 7.45 22.75 6.8 22.85 5.55 23.05 4.65 M25.85 5.65 Q27.9 7.2 28.7 9.7 L29.0 10.95 31.3 11.05 31.3 13.1 30.75 13.15 30.05 13.25 28.9 13.35 28.45 14.85 28.3 15.25 Q27.15 18.05 25.4 19.5 22.4 22.0 17.55 20.4 L17.5 20.5 17.25 21.1 16.95 21.65 16.75 21.95 16.65 22.1 16.6 22.15 16.5 22.25 16.35 22.3 16.3 22.3 15.35 21.9 14.85 21.55 14.65 21.25 15.05 19.95 15.05 19.85 M25.65 27.25 L25.95 26.8 26.3 26.45 26.4 26.4 27.65 25.8 27.7 25.8 29.4 24.9 30.45 24.4 30.95 24.1 32.6 23.3 33.85 22.65 35.05 22.0 35.6 21.7 35.85 21.55 36.4 21.2 36.55 21.15 36.7 21.1 37.05 20.9 41.5 18.0 42.55 18.2 43.45 19.2 44.65 20.45 45.4 21.2 45.65 21.55 46.9 23.0 47.45 23.8 47.9 24.4 49.1 26.35 49.25 27.35 49.25 27.85 M51.45 25.4 L51.5 24.35 51.55 23.4 51.45 20.8 51.45 19.8 51.45 19.65 51.4 19.35 51.3 15.8 51.3 15.6 51.3 14.85 51.3 14.45 M51.1 20.8 L49.55 21.1 48.1 21.4 47.8 21.45 46.95 21.3 46.6 21.0 Q45.65 20.25 45.45 19.0 L45.1 16.55 45.5 16.2 45.55 16.05 45.6 15.9 45.55 14.5 45.55 13.95 44.55 13.95 44.75 11.3 44.75 11.2 44.8 11.2 44.8 11.25 44.85 11.3 44.75 11.3 M44.85 16.55 L43.5 16.4 42.15 15.95 42.2 14.1 43.8 13.95 44.55 13.95 M43.35 0.9 L43.2 0.7 42.95 0.4 42.75 -0.1 42.6 -0.3 M43.35 0.9 L43.8 1.4 43.9 1.55 44.3 2.05 44.6 2.4 44.85 2.8 46.5 4.8 48.95 8.1 49.5 8.95 50.05 9.95 50.55 11.15 50.65 11.55 50.65 12.0 50.85 13.5 50.9 13.6 51.0 14.3 M45.05 0.35 L44.65 0.35 43.6 0.35 M54.6 1.9 L53.9 0.6 53.55 0.5 52.15 0.4 51.65 0.4 50.45 0.4 49.65 0.35 47.05 0.35 45.05 0.35 M54.6 9.8 L51.65 13.4 51.55 13.45 M42.6 8.0 L43.25 7.35 43.75 6.85 44.05 6.7 46.7 9.0 M46.85 8.85 Q46.9 8.8 47.45 8.45 L48.15 7.95 48.95 8.1 M42.6 8.25 L42.55 8.1 42.6 8.0 M44.75 11.2 L43.0 8.8 42.6 8.25 M46.8 8.9 L47.2 9.25 47.45 9.7 45.45 11.65 44.85 11.3 M48.9 14.9 L48.55 14.5 48.45 14.5 48.25 14.55 48.2 14.6 48.1 14.65 Q47.9 14.8 47.85 15.05 L47.85 15.1 Q47.85 15.7 48.2 15.75 L48.25 15.75 48.55 15.6 48.5 15.6 48.35 15.6 48.3 15.55 48.25 15.55 Q48.1 15.4 48.1 15.1 L48.1 15.0 48.25 14.65 48.35 14.6 48.5 14.7 48.55 14.7 48.6 14.75 48.65 14.8 48.65 15.5 48.35 15.6 M48.45 14.5 L48.65 14.35 48.9 14.35 48.9 14.9 48.9 15.1 48.9 15.15 48.75 15.55 48.55 15.6 48.6 15.55 48.7 15.5 48.9 15.1 M48.55 14.7 L48.5 14.75 48.55 14.75 48.55 15.25 48.25 15.25 48.3 15.55 M48.25 15.25 L48.25 15.2 48.25 15.1 48.25 14.75 48.4 14.7 48.5 14.7 M48.3 14.95 L48.5 14.75 48.35 14.8 48.3 14.95 48.25 15.1 M54.6 27.25 L53.25 26.0 51.6 24.45 51.5 24.35 M51.45 25.4 L51.45 26.05 51.4 27.3 51.4 27.55 51.3 27.55 51.4 27.3 M50.95 27.7 L49.55 28.4 49.5 28.4 49.45 28.45 49.2 28.55 47.7 29.1 47.15 29.3 49.95 29.55 50.0 29.55 52.2 29.8 52.8 29.85 52.8 30.15 52.8 30.2 Q52.45 30.55 51.9 32.35 L51.75 32.75 51.45 33.55 53.45 34.1 53.65 34.15 54.2 34.35 54.6 34.5 M54.2 34.35 L54.6 34.1 M51.45 33.55 L51.05 35.2 54.05 37.65 54.6 38.1 M46.05 29.6 L46.5 29.5 47.15 29.3 M46.55 30.95 L46.5 30.75 46.05 29.6 44.8 29.9 44.65 29.95 44.45 30.0 43.4 30.15 42.7 30.25 42.6 30.3 42.5 30.3 42.35 30.3 41.75 30.4 41.0 30.5 39.7 30.65 40.2 31.3 40.45 31.65 41.5 33.75 Q42.05 35.2 41.5 36.5 L41.1 37.25 Q39.55 39.4 37.2 37.9 34.9 36.45 34.3 33.6 34.1 32.4 34.5 31.25 L34.55 31.0 30.75 30.85 30.6 30.85 Q30.85 32.15 30.0 34.55 29.1 37.2 26.85 38.6 23.8 40.45 20.15 40.55 L18.75 40.45 M19.15 45.35 L19.65 45.35 20.05 45.3 Q24.1 44.85 27.6 42.65 L29.3 41.2 Q31.4 39.15 33.85 37.95 L34.35 38.15 M34.4 38.4 Q35.75 41.8 39.3 41.75 L41.35 41.15 M43.6 37.45 Q44.05 33.85 42.0 30.8 L41.75 30.4 M46.55 30.95 L47.65 33.1 Q49.0 35.55 51.3 39.0 L52.85 41.15 53.8 42.45 54.6 43.5 M49.75 39.85 Q48.2 37.95 45.9 38.3 L45.7 38.3 M47.5 40.6 L47.85 40.75 48.9 41.6 49.0 41.75 49.35 42.6 49.3 43.75 Q49.0 44.55 48.2 45.1 L48.0 45.2 M47.35 46.4 L47.7 47.0 48.4 46.65 49.35 46.0 49.7 45.65 Q51.0 44.3 51.0 42.85 L50.9 42.0 50.8 41.75 50.25 40.55 M50.25 40.5 L50.1 40.35 50.1 40.3 49.75 39.85 M44.85 46.65 L44.1 47.3 43.95 47.4 42.9 48.25 42.65 48.45 42.35 48.65 42.55 49.25 43.35 51.25 43.4 51.25 44.2 53.45 M42.35 48.65 L41.4 46.4 40.35 44.4 40.2 44.25 M20.7 12.2 L20.7 12.1 20.6 12.0 20.45 12.2 20.6 12.55 20.7 12.65 20.7 12.3 20.7 12.2 20.9 12.5 20.85 12.25 20.7 12.1 20.85 11.9 20.95 11.8 21.05 11.8 21.2 11.8 21.35 11.8 21.35 11.95 21.5 12.1 21.5 12.9 21.85 12.1 21.85 11.95 21.7 11.8 21.65 11.7 21.3 11.6 20.8 11.6 20.35 11.8 20.4 12.45 20.65 13.05 20.85 13.05 20.7 12.65 20.85 12.75 20.95 12.65 20.95 12.6 20.9 12.5 20.95 12.4 20.85 12.25 20.8 12.05 20.7 12.1 M20.8 12.05 L20.8 12.0 20.85 11.9 21.05 11.8 M21.2 11.8 L21.35 11.95 21.4 12.0 21.4 12.6 21.05 12.65 21.0 12.6 20.95 12.65 21.3 12.95 21.5 12.9 21.5 13.0 21.1 13.1 20.85 13.05 21.5 13.0 M21.05 12.65 L21.15 12.5 21.05 12.0 20.95 12.0 21.05 12.2 21.05 12.6 21.0 12.6 20.95 12.5 20.95 12.6 21.0 12.6 M20.95 12.4 L20.95 12.0 20.8 12.05 M21.65 11.7 L21.85 11.95 M29.0 10.95 L27.25 10.95 26.8 10.95 27.25 13.5 28.9 13.35 M14.25 15.7 L14.2 15.5 M20.9 12.5 L20.95 12.5 20.95 12.4 M8.4 2.05 L8.45 3.4 8.25 6.4 Q7.75 9.85 6.05 12.35 L5.3 13.3 5.1 13.55 4.15 14.45 2.8 15.55 2.7 15.65 1.8 16.3 Q1.7 16.35 1.55 16.45 0.75 16.95 -0.15 17.0 L-0.3 17.05 M7.65 16.7 L8.15 17.1 8.8 17.6 9.2 18.0 9.35 18.1 9.45 18.2 9.5 18.25 10.6 19.2 11.0 19.6 11.5 20.1 12.25 20.8 13.2 21.75 13.6 22.25 13.8 22.45 14.85 23.8 15.05 24.35 15.0 24.5 15.05 25.25 14.9 27.1 M15.15 27.25 L15.05 27.5 15.85 27.75 16.3 27.9 19.85 28.85 20.7 29.05 22.0 29.35 22.75 29.5 23.5 29.7 25.05 30.0 25.2 30.05 25.9 30.2 27.1 30.4 27.45 31.25 Q27.45 32.55 25.6 34.8 23.85 36.85 23.3 36.85 L21.6 36.5 18.95 35.7 17.25 35.05 Q17.0 34.9 17.0 34.15 17.0 33.3 17.65 31.0 18.3 28.6 18.6 28.6 L19.85 28.85 M25.2 29.5 Q25.2 28.3 25.5 27.55 L25.65 27.25 M7.15 16.45 L7.6 16.55 M0.25 20.5 L0.75 19.9 1.55 19.05 1.85 18.75 2.1 18.55 2.15 18.5 2.45 18.2 2.9 17.9 Q3.25 17.65 3.55 17.5 L4.65 16.95 4.8 16.85 5.0 16.8 7.15 16.45 M0.25 20.5 L-0.3 21.4 M17.55 20.4 L17.75 19.75 15.6 18.5 15.35 19.1 M8.9 30.95 L10.55 30.55 10.95 30.45 11.4 30.3 11.85 30.2 12.8 29.8 14.2 28.95 Q14.9 28.3 15.05 27.5 M8.9 30.95 L8.6 31.0 8.55 31.05 7.25 31.2 6.7 31.25 6.0 31.3 5.85 31.3 4.7 31.25 4.1 31.2 2.65 30.95 2.5 30.85 2.25 30.8 2.1 30.8 Q0.75 30.4 0.15 30.0 M9.45 43.2 L9.5 43.9 9.5 44.15 9.4 45.2 9.2 46.0 8.75 46.85 Q7.8 48.2 5.75 48.7 L5.15 48.85 3.9 48.85 2.9 48.6 2.25 48.3 1.05 46.95 0.55 45.95 0.45 45.6 Q-0.1 43.9 0.25 42.45 0.45 41.5 0.95 40.6 L1.8 39.6 2.0 39.4 2.5 39.1 2.65 39.0 3.8 38.7 4.25 38.65 5.7 38.85 Q8.4 39.65 9.15 41.85 L9.45 43.2 M12.8 29.8 L12.1 32.5 11.7 35.55 11.5 39.0 11.45 40.95 11.45 42.45 11.45 43.45 11.45 44.25 11.55 46.4 11.6 47.5 11.65 48.25 11.75 50.0 12.0 53.45 M14.9 38.3 L14.25 37.45 Q12.35 34.35 13.6 31.05 14.35 29.0 15.85 27.75 M3.15 46.7 L3.75 47.05 4.7 47.2 Q5.75 47.2 6.55 46.65 L7.35 45.55 7.5 44.55 7.5 44.35 7.45 43.85 7.1 42.85 6.2 41.75 5.5 41.45 4.45 41.1 4.35 41.1 3.85 41.15 Q3.5 41.25 3.2 41.45 L2.75 41.8 2.7 41.9 Q1.95 42.75 1.95 44.2 L2.0 44.8 Q2.15 45.45 2.6 46.1 L2.75 46.35 3.15 46.7 M17.25 47.35 L17.35 47.35 19.75 47.95 20.6 48.2 22.15 48.55 23.55 48.85 23.6 48.85 24.1 49.0 24.75 49.15 26.15 49.45 33.2 50.6 34.3 50.6 36.15 50.7 36.75 50.7 37.15 50.65 37.2 50.65 39.95 50.2 39.5 48.9 39.25 48.3 38.95 47.4 38.75 46.9 38.55 46.3 38.45 46.35 38.0 46.6 Q37.75 46.6 37.65 46.45 L37.6 46.45 37.4 46.1 36.9 46.2 Q36.55 46.25 36.1 46.45 L35.75 46.6 34.4 47.2 M40.15 31.85 L39.85 33.2 39.8 33.45 39.55 34.9 38.85 35.05 37.7 35.15 37.0 34.75 36.3 33.15 36.3 31.6 37.2 31.6 M34.55 31.0 L36.1 30.95 39.7 30.65 M22.0 29.35 L22.95 29.75 22.35 31.6 21.65 33.4 21.1 33.2 20.35 32.95 M34.25 47.6 L34.4 47.6 35.25 47.6 M38.3 42.4 L38.2 42.45 38.05 42.5 37.8 42.65 Q37.5 42.85 37.3 43.2 L37.3 43.25 36.9 43.25 35.75 43.55 35.7 43.55 33.85 43.95 M33.05 45.9 Q33.15 46.65 33.65 47.15 L34.2 47.55 34.25 47.6 M33.55 43.75 L33.2 44.25 33.05 44.75 33.05 45.3 33.05 45.55 33.05 45.75 33.05 45.9 M38.45 42.4 L38.3 42.4 M38.45 42.4 L38.6 42.35 Q39.15 42.35 39.7 42.95 L39.7 43.0 Q40.15 43.5 40.1 43.95 L40.1 44.05 M33.55 43.75 L33.6 43.75 34.15 43.05 M30.6 30.85 L27.1 30.4 M39.95 50.2 L40.1 50.75 40.45 51.7 40.95 53.45 M51.0 52.45 L51.65 53.45 M51.0 52.45 L47.7 47.0" fill="none" stroke="#382429" stroke-linecap="round" stroke-linejoin="round" stroke-width="1.0"/>
    </g>
    <g id="shape2" transform="matrix(1.0, 0.0, 0.0, 1.0, 0.0, 0.0)">
      <path d="M50.5 0.0 Q53.95 0.0 53.95 3.3 L53.95 50.15 Q53.95 53.4 50.5 53.4 L3.3 53.4 Q0.0 53.4 0.0 50.15 L0.0 3.3 Q0.0 0.0 3.3 0.0 L50.5 0.0" fill="#000000" fill-opacity="0.003921569" fill-rule="evenodd" stroke="none"/>
    </g>
  </defs>
</svg>
