<?xml version="1.0" encoding="UTF-8" standalone="no"?>
<svg xmlns:ffdec="https://www.free-decompiler.com/flash" xmlns:xlink="http://www.w3.org/1999/xlink" ffdec:objectType="frame" height="59.3px" width="58.25px" xmlns="http://www.w3.org/2000/svg">
  <g transform="matrix(1.0, 0.0, 0.0, 1.0, 1.45, 1.5)">
    <clipPath id="clipPath0" transform="matrix(1.0, 0.0, 0.0, 1.0, 0.0, 0.0)">
      <path d="M50.5 0.0 Q53.95 0.0 53.95 3.3 L53.95 50.15 Q53.95 53.4 50.5 53.4 L3.3 53.4 Q0.0 53.4 0.0 50.15 L0.0 3.3 Q0.0 0.0 3.3 0.0 L50.5 0.0" fill="#000000" fill-rule="evenodd" stroke="none"/>
    </clipPath>
    <g clip-path="url(#clipPath0)">
      <use ffdec:characterId="2" height="59.3" transform="matrix(1.0, 0.0, 0.0, 1.0, -1.45, -1.5)" width="58.25" xlink:href="#shape1"/>
    </g>
    <use ffdec:characterId="3" height="53.4" transform="matrix(1.0, 0.0, 0.0, 1.0, 0.0, 0.0)" width="53.95" xlink:href="#shape2"/>
  </g>
  <defs>
    <g id="shape1" transform="matrix(1.0, 0.0, 0.0, 1.0, 1.45, 1.5)">
      <path d="M16.9 56.1 L16.55 56.15 12.35 56.05 12.15 54.7 Q12.15 53.8 12.35 53.6 L12.65 53.0 13.3 52.05 13.6 51.65 Q14.4 50.65 15.3 50.9 L18.3 51.6 15.25 51.6 14.6 52.2 15.35 54.6 16.9 56.1 M33.2 33.9 L30.95 34.65 30.75 34.65 29.3 34.85 29.0 34.9 27.85 35.05 27.2 35.15 27.15 35.1 27.55 33.45 27.8 32.35 28.05 31.65 Q28.3 31.0 28.75 30.7 29.2 30.3 29.85 30.3 L31.05 30.45 Q31.75 30.65 32.2 31.15 L32.4 31.35 Q33.05 32.15 33.2 33.9" fill="#e6de66" fill-rule="evenodd" stroke="none"/>
      <path d="M56.3 47.6 L56.3 57.3 51.65 57.3 52.5 52.75 53.3 49.2 Q54.05 47.5 55.65 47.5 L56.3 47.6 M14.05 57.3 L11.95 57.3 11.9 57.25 12.35 56.85 Q13.25 57.0 14.05 57.3 M35.45 7.8 L36.0 8.05 37.35 8.85 Q39.05 9.95 40.5 12.85 41.9 15.8 42.35 18.85 L41.25 20.25 40.8 20.25 Q40.8 20.2 41.05 20.05 L41.1 20.0 Q41.4 19.85 41.35 18.85 41.3 17.9 40.85 16.65 L40.55 15.9 39.35 13.6 Q39.45 13.95 39.05 14.05 L38.35 14.1 Q37.35 14.1 36.45 13.05 L35.75 11.7 35.65 10.95 Q35.65 10.6 35.8 10.35 L35.85 10.3 36.05 10.15 35.9 9.9 Q35.5 9.5 34.3 9.1 L33.95 9.0 33.85 9.0 32.15 8.6 Q31.15 8.6 30.55 9.05 L30.0 9.4 30.75 8.4 33.55 7.85 34.0 7.85 35.45 7.8 M37.55 12.0 Q38.2 12.75 38.7 12.75 39.05 12.75 39.25 12.45 L39.35 12.05 Q39.35 10.95 38.15 10.4 36.9 9.85 36.9 10.95 L37.55 12.0" fill="#9ce5e1" fill-rule="evenodd" stroke="none"/>
      <path d="M56.3 44.6 L56.3 47.6 55.65 47.5 Q54.05 47.5 53.3 49.2 L52.5 52.75 51.65 57.3 Q51.5 54.5 51.0 51.65 52.75 43.9 56.3 44.6 M52.65 1.25 Q53.35 0.8 54.15 0.45 L56.3 -0.4 56.3 0.35 56.3 2.2 Q54.4 2.4 52.3 3.2 L52.6 1.4 52.65 1.25 52.6 1.4 52.3 3.2 51.15 3.65 50.4 3.65 49.55 3.65 Q50.85 2.25 52.65 1.25 M54.15 0.45 L54.35 0.8 54.7 1.5 Q54.85 1.35 55.0 1.35 L55.15 1.3 56.3 0.35 55.15 1.3 55.0 1.35 Q54.85 1.35 54.7 1.5 L54.35 0.8 54.15 0.45" fill="#7cc6c2" fill-rule="evenodd" stroke="none"/>
      <path d="M18.65 -0.95 L26.55 -0.95 26.4 0.35 26.2 1.0 24.85 2.15 23.3 3.35 20.8 1.05 18.65 -0.95 M46.85 49.25 L45.0 51.75 43.0 50.7 40.8 49.5 40.45 49.3 40.6 47.0 43.95 44.2 Q45.25 47.0 46.85 49.25 M18.55 50.45 L18.35 51.5 18.3 51.6 15.3 50.9 Q14.4 50.65 13.6 51.65 L13.3 52.05 12.65 53.0 12.35 53.6 Q12.15 53.8 12.15 54.7 L12.35 56.05 9.1 54.95 5.8 53.1 4.5 52.15 10.1 52.6 12.2 50.9 11.5 50.0 8.75 48.85 8.45 47.7 8.25 47.05 11.55 48.4 16.3 47.9 18.0 49.8 18.55 50.45 M33.7 30.0 L34.0 33.6 33.2 33.9 Q33.05 32.15 32.4 31.35 L32.2 31.15 Q31.75 30.65 31.05 30.45 L29.85 30.3 Q29.2 30.3 28.75 30.7 28.3 31.0 28.05 31.65 L27.8 32.35 27.55 33.45 27.15 35.1 27.05 34.95 26.9 33.4 Q26.75 31.25 27.4 30.0 27.95 28.85 29.2 28.45 L29.4 28.6 30.25 29.2 31.25 29.55 31.65 29.65 32.6 29.85 33.65 30.0 33.7 30.0" fill="#dfbb6e" fill-rule="evenodd" stroke="none"/>
      <path d="M34.4 -0.95 L35.3 -0.95 35.0 -0.45 35.4 7.3 35.45 7.8 34.0 7.85 34.0 7.1 34.1 4.2 34.4 -0.95 M44.2 16.55 L47.75 10.25 48.5 12.05 47.35 18.6 46.05 24.75 42.9 27.85 40.65 36.0 36.25 37.25 35.75 37.35 39.5 34.7 41.6 26.55 44.65 23.7 45.45 20.5 46.45 15.35 46.45 15.2 45.8 16.2 45.15 17.0 42.0 21.0 38.15 20.8 38.15 20.25 40.8 20.25 41.25 20.25 42.35 18.85 44.2 16.55 M22.35 51.65 L22.15 51.65 21.9 51.25 Q21.4 50.35 21.25 49.65 L21.15 49.1 21.55 48.4 22.45 48.65 23.5 48.85 Q24.0 48.85 24.85 47.85 L24.9 47.8 25.95 46.25 26.3 45.55 26.0 46.45 25.35 47.7 25.0 48.25 24.55 48.75 Q24.05 49.15 23.2 49.15 L22.7 49.1 22.2 49.0 Q21.9 49.0 21.7 49.2 21.55 49.4 21.55 49.7 21.55 50.15 22.1 51.2 L22.35 51.65 M16.55 56.95 L16.9 57.3 16.55 57.3 16.55 56.95 M-0.95 9.45 L-0.95 7.75 Q-0.55 7.75 -0.45 7.45 L-0.35 7.2 Q-0.35 6.85 -0.95 6.4 L-0.95 5.65 0.2 6.85 Q3.8 12.05 6.15 17.25 L6.1 17.25 3.6 17.1 2.95 16.0 -0.85 9.6 -0.95 9.45 M17.2 34.4 L17.4 34.05 17.9 33.4 18.25 34.2 19.15 35.55 20.35 36.85 22.15 37.9 22.15 38.0 22.1 38.2 Q21.0 38.1 20.5 37.7 L19.75 37.05 17.4 34.6 17.2 34.4 M7.7 43.4 L8.15 42.9 8.2 42.9 11.1 44.8 Q12.6 45.55 13.8 45.55 L15.25 45.65 15.65 45.9 15.3 45.95 15.0 46.0 11.6 45.85 Q10.45 45.4 7.75 43.45 L7.7 43.4 M1.4 42.85 L0.8 42.9 0.65 43.7 -0.6 42.7 -0.7 42.05 -0.15 41.55 1.4 42.85 M10.85 50.7 L10.6 50.9 9.9 51.25 9.8 51.25 9.3 51.15 7.95 50.9 7.0 50.75 5.85 50.5 4.55 49.3 Q4.65 48.75 4.95 48.75 L6.35 49.65 7.4 50.15 9.55 50.55 9.7 50.55 10.05 50.5 10.5 50.5 10.85 50.7 M28.55 37.15 L28.8 37.5 28.7 37.6 27.5 38.4 Q27.1 38.65 27.1 39.15 L27.25 39.75 26.85 40.15 Q26.5 39.7 26.5 39.25 26.5 38.15 27.6 37.85 L28.55 37.15" fill="#67435e" fill-rule="evenodd" stroke="none"/>
      <path d="M12.35 -0.95 L13.55 -0.95 13.45 0.45 14.25 3.25 13.7 3.8 12.35 -0.95 M28.55 -0.95 L34.4 -0.95 34.1 4.2 34.0 7.1 34.0 7.85 33.55 7.85 30.75 8.4 30.0 9.4 29.7 9.75 29.6 9.65 28.55 8.55 28.35 8.4 28.55 8.55 28.15 8.55 28.15 8.4 28.35 8.4 26.8 6.8 26.15 6.2 27.7 2.3 28.55 -0.95 M24.95 51.5 L22.35 51.65 22.1 51.2 Q21.55 50.15 21.55 49.7 21.55 49.4 21.7 49.2 21.9 49.0 22.2 49.0 L22.7 49.1 23.2 49.15 Q24.05 49.15 24.55 48.75 L25.0 48.25 25.25 49.6 24.95 51.5 M18.35 51.5 L19.55 52.6 19.2 54.85 17.1 54.55 16.65 54.25 16.55 54.15 15.35 52.95 14.6 52.2 15.25 51.6 18.3 51.6 18.35 51.5 M11.95 57.3 L11.85 57.3 11.9 57.25 11.95 57.3 M-0.95 17.3 L-0.95 9.45 -0.85 9.6 2.95 16.0 3.6 17.1 0.0 17.1 -0.95 17.3 M38.15 20.25 L38.15 20.8 42.0 21.0 45.15 17.0 45.8 16.2 46.45 15.2 46.45 15.35 45.45 20.5 44.65 23.7 41.6 26.55 39.5 34.7 35.75 37.35 32.5 35.5 35.05 34.1 34.7 24.85 27.75 18.8 Q26.55 14.4 26.55 11.8 L26.6 10.7 Q26.8 10.3 27.25 10.25 L29.85 12.6 38.1 20.25 38.15 20.25 M27.05 21.0 L28.15 21.95 Q28.0 23.55 28.25 25.1 28.55 26.85 29.4 28.6 L29.2 28.45 Q27.95 28.85 27.4 30.0 26.75 31.25 26.9 33.4 L27.05 34.95 26.0 33.55 23.55 30.3 Q23.45 29.1 24.0 28.4 L25.35 27.55 27.95 27.3 27.55 26.0 27.15 23.65 Q26.95 22.3 27.05 21.0 M28.8 22.15 L28.75 22.0 28.8 22.05 28.8 22.15 M28.4 24.65 L28.4 24.6 28.55 24.6 28.6 24.7 28.4 24.65 M17.2 34.4 Q16.9 33.8 16.85 32.75 L16.8 32.25 16.8 31.75 Q16.9 31.6 17.2 31.6 17.55 31.6 17.65 32.5 L17.9 33.4 Q18.55 32.7 19.45 32.7 20.1 32.7 20.95 33.15 21.25 34.4 22.2 35.55 L23.15 36.6 23.2 36.6 23.65 37.1 23.65 38.95 Q23.1 38.2 22.15 38.2 L22.1 38.2 22.15 38.0 22.15 37.9 20.35 36.85 19.15 35.55 18.25 34.2 17.9 33.4 17.4 34.05 17.2 34.4 M12.95 41.0 Q13.45 42.3 14.6 43.7 L16.85 44.65 17.45 45.7 15.65 45.9 15.25 45.65 13.8 45.55 Q12.6 45.55 11.1 44.8 L8.2 42.9 8.15 42.9 7.7 43.4 Q5.15 41.5 5.05 40.15 L5.0 39.45 5.9 39.7 6.05 40.45 6.9 41.7 8.15 42.9 9.25 42.0 Q10.85 41.0 12.65 41.0 L12.95 41.0 M11.5 50.0 L10.85 50.7 10.5 50.5 10.05 50.5 9.7 50.55 9.55 50.55 7.4 50.15 6.35 49.65 4.95 48.75 Q4.65 48.75 4.55 49.3 L4.05 48.75 4.25 48.5 4.5 48.3 4.95 48.05 5.4 47.8 6.6 47.4 6.75 47.35 Q7.65 47.35 8.45 47.7 L8.75 48.85 11.5 50.0 M29.0 34.9 L29.3 34.85 29.3 35.25 Q29.35 36.95 28.8 37.5 29.4 38.55 29.4 39.6 L29.25 40.7 28.15 41.2 26.85 40.15 27.25 39.75 27.1 39.15 Q27.1 38.65 27.5 38.4 L28.7 37.6 28.8 37.5 28.55 37.15 28.85 36.2 28.95 35.4 29.0 34.9" fill="#442d3a" fill-rule="evenodd" stroke="none"/>
      <path d="M-0.95 7.75 L-0.95 6.4 Q-0.35 6.85 -0.35 7.2 L-0.45 7.45 Q-0.55 7.75 -0.95 7.75" fill="#b086a6" fill-rule="evenodd" stroke="none"/>
      <path d="M13.7 3.8 L14.25 3.25 19.0 19.65 19.05 19.85 17.55 20.85 12.9 7.0 13.7 3.8 M26.55 -0.95 L28.55 -0.95 27.7 2.3 26.15 6.2 23.3 3.35 24.85 2.15 26.2 1.0 26.4 0.35 26.55 -0.95 M-0.95 51.7 L-0.95 43.3 -0.6 42.7 0.65 43.7 0.05 46.5 1.5 48.85 -0.9 51.7 -0.95 51.7 M-0.95 29.6 L-0.95 28.9 -0.7 28.6 -0.25 28.9 -0.95 29.6" fill="#d6a643" fill-rule="evenodd" stroke="none"/>
      <path d="M28.3 47.9 Q27.15 50.4 25.1 51.45 L24.95 51.5 25.25 49.6 25.0 48.25 25.35 47.7 26.0 46.45 26.3 45.55 25.95 46.25 24.9 47.8 24.85 47.85 Q24.0 48.85 23.5 48.85 L22.45 48.65 21.55 48.4 21.15 49.1 21.25 49.65 Q21.4 50.35 21.9 51.25 L22.15 51.65 21.3 51.7 20.2 50.8 20.15 50.6 20.05 49.95 19.8 49.95 19.8 48.6 20.75 46.95 22.5 47.6 24.2 46.5 Q25.15 45.5 25.75 43.8 L25.75 43.3 25.75 41.9 25.75 40.8 25.55 40.65 Q25.25 40.3 25.1 39.5 L25.65 37.8 27.4 36.85 27.6 36.2 27.6 36.1 27.75 35.55 27.85 35.05 29.0 34.9 28.95 35.4 28.85 36.2 28.55 37.15 27.6 37.85 Q26.5 38.15 26.5 39.25 26.5 39.7 26.85 40.15 L28.15 41.2 27.85 41.3 26.7 41.1 26.55 41.05 25.75 40.8 26.55 41.05 26.7 41.1 27.85 41.3 28.2 42.6 28.25 42.8 28.25 42.85 28.65 45.6 28.65 46.25 28.55 47.25 28.3 47.9 M19.2 54.85 L16.9 56.1 15.35 54.6 14.6 52.2 15.35 52.95 16.55 54.15 16.65 54.25 17.1 54.55 19.2 54.85 M-0.95 43.3 L-0.95 42.3 -0.75 42.1 -0.7 42.05 -0.6 42.7 -0.95 43.3 M27.25 10.25 Q26.8 10.3 26.6 10.7 L26.55 11.8 Q26.55 14.4 27.75 18.8 L34.7 24.85 35.05 34.1 32.5 35.5 31.75 35.1 30.95 34.65 31.75 35.1 Q31.7 37.65 31.1 39.45 L31.0 39.5 29.25 40.7 29.4 39.6 Q29.4 38.55 28.8 37.5 29.35 36.95 29.3 35.25 L29.3 34.85 30.75 34.65 30.95 34.65 33.2 33.9 34.0 33.6 33.7 30.0 33.7 29.35 33.5 26.5 29.25 22.9 28.15 21.95 27.05 21.0 26.15 20.3 25.25 19.35 23.8 9.35 24.15 7.7 24.25 7.8 24.25 7.45 26.05 9.15 27.25 10.25 M28.8 22.15 L28.8 22.05 28.75 22.0 28.8 22.15 M16.05 27.75 L21.05 31.6 20.9 33.0 20.95 33.15 Q20.1 32.7 19.45 32.7 18.55 32.7 17.9 33.4 L17.65 32.5 Q17.55 31.6 17.2 31.6 16.9 31.6 16.8 31.75 L16.8 32.25 16.85 32.75 Q16.9 33.8 17.2 34.4 L17.4 34.6 19.75 37.05 20.5 37.7 Q21.0 38.1 22.1 38.2 L22.15 38.2 Q23.1 38.2 23.65 38.95 L22.75 39.7 20.35 39.45 18.0 37.55 17.05 36.6 16.95 36.5 15.85 35.4 Q16.3 32.35 16.1 28.95 L16.05 27.75 M8.1 40.25 L10.95 40.25 12.65 38.7 Q12.5 39.8 12.95 41.0 L12.65 41.0 Q10.85 41.0 9.25 42.0 L8.15 42.9 6.9 41.7 6.05 40.45 5.9 39.7 8.1 40.25 M17.45 45.7 L16.3 47.9 11.55 48.4 8.25 47.05 7.5 46.6 Q5.75 45.6 4.65 44.35 L3.5 42.65 4.65 44.35 Q5.75 45.6 7.5 46.6 L8.25 47.05 8.45 47.7 Q7.65 47.35 6.75 47.35 L6.6 47.4 5.4 47.8 4.95 48.05 4.5 48.3 4.25 48.5 4.05 48.75 4.55 49.3 5.85 50.5 7.0 50.75 7.95 50.9 9.3 51.15 9.8 51.25 9.9 51.25 10.6 50.9 10.85 50.7 11.5 50.0 12.2 50.9 10.1 52.6 4.5 52.15 2.5 50.35 2.2 50.05 1.5 48.85 0.05 46.5 0.65 43.7 0.8 42.9 1.4 42.85 3.25 42.65 3.5 42.65 3.45 42.5 2.8 39.75 2.9 39.05 3.8 38.35 3.65 39.1 5.0 39.45 5.05 40.15 Q5.15 41.5 7.7 43.4 L7.75 43.45 Q10.45 45.4 11.6 45.85 L15.0 46.0 15.3 45.95 15.65 45.9 17.45 45.7" fill="#372732" fill-rule="evenodd" stroke="none"/>
      <path d="M16.0 -0.95 L17.55 -0.95 23.45 5.1 23.5 5.35 23.6 5.7 23.45 6.2 22.65 6.2 19.8 3.2 17.95 1.3 16.3 -0.55 16.0 -0.95 M-0.95 28.45 L-0.95 23.6 0.0 23.8 0.25 23.9 -0.15 24.55 -0.65 26.05 Q-0.65 26.5 0.7 28.15 L1.0 28.5 1.55 29.1 Q3.15 30.85 4.1 32.55 L3.75 32.55 3.3 32.55 3.2 32.55 Q2.45 30.85 -0.25 28.9 L-0.7 28.6 -0.95 28.45 M-0.95 20.9 L-0.95 17.3 0.0 17.1 3.6 17.1 6.1 17.25 6.15 17.25 6.25 17.3 6.15 17.35 4.4 17.9 4.2 18.0 Q1.85 18.95 1.85 20.15 1.85 20.9 3.0 21.8 L5.1 23.2 6.15 24.05 8.15 26.5 8.4 26.85 8.25 26.85 8.1 26.85 6.5 25.2 6.05 24.8 Q2.4 21.65 -0.95 20.9 M14.15 24.65 L13.6 24.7 18.85 21.45 19.15 21.3 Q19.45 21.25 19.75 21.55 L20.25 22.55 Q20.45 23.25 18.8 23.7 L18.55 23.8 15.85 24.35 14.9 24.5 14.15 24.65" fill="#e3ecce" fill-rule="evenodd" stroke="none"/>
      <path d="M13.9 -0.95 L16.0 -0.95 16.3 -0.55 17.95 1.3 19.8 3.2 22.65 6.2 23.45 6.2 23.6 5.7 23.5 5.35 23.45 5.1 17.55 -0.95 18.65 -0.95 20.8 1.05 23.3 3.35 26.15 6.2 26.8 6.8 26.75 8.15 Q26.7 9.05 26.05 9.15 L24.25 7.45 24.25 7.8 24.15 7.7 23.9 7.5 Q23.15 6.9 22.65 6.9 22.0 6.9 21.95 9.8 L22.0 11.7 13.9 -0.95 M35.3 -0.95 L36.3 -0.95 36.3 -0.9 36.4 -0.55 Q38.55 6.05 38.55 7.05 L38.45 7.55 Q38.25 8.05 37.5 8.05 36.9 8.05 36.05 7.65 L35.4 7.3 35.0 -0.45 35.3 -0.95 M50.15 17.55 L49.2 15.05 51.3 14.35 Q53.65 14.85 56.3 16.85 L56.3 36.15 Q52.55 37.35 50.65 40.2 49.45 42.0 48.7 45.65 L48.5 46.85 48.0 50.75 46.85 49.25 Q45.25 47.0 43.95 44.2 42.7 41.5 41.7 38.35 L41.5 37.65 42.25 37.6 Q47.5 37.1 50.15 34.15 53.05 30.95 53.25 27.25 53.45 23.55 52.15 20.85 51.35 19.1 50.15 17.55 M16.55 56.15 L16.55 56.95 16.55 57.3 14.05 57.3 Q13.25 57.0 12.35 56.85 L11.9 57.25 11.85 57.3 10.35 57.3 10.25 57.15 9.85 56.65 Q9.25 55.85 9.1 54.95 L12.35 56.05 16.55 56.15 M6.25 17.3 Q8.75 18.85 10.65 20.45 L12.15 21.7 12.15 22.35 12.1 23.5 Q11.95 24.65 11.0 25.6 10.05 26.5 8.4 26.85 L8.15 26.5 6.15 24.05 5.1 23.2 3.0 21.8 Q1.85 20.9 1.85 20.15 1.85 18.95 4.2 18.0 L4.4 17.9 6.15 17.35 6.25 17.3 M13.8 23.3 L17.55 20.85 19.05 19.85 19.0 19.65 Q19.9 20.2 20.45 20.7 21.35 21.5 21.7 22.45 21.95 23.0 22.0 24.15 22.05 25.35 21.4 25.45 L21.0 25.5 19.4 25.55 16.95 25.5 16.35 25.45 15.65 25.4 14.15 25.25 13.65 25.25 13.5 25.25 13.25 25.2 12.85 25.15 12.75 25.15 12.05 24.4 12.9 23.85 13.8 23.3 M40.6 47.0 L40.45 49.3 40.8 49.5 39.6 50.8 Q38.65 51.75 37.8 51.75 37.1 51.75 36.3 51.1 37.0 49.5 39.15 48.15 L40.6 47.0 M26.15 20.3 L27.05 21.0 Q26.95 22.3 27.15 23.65 L27.55 26.0 27.95 27.3 26.55 25.85 25.9 24.2 Q25.65 23.5 25.8 22.3 L26.0 20.8 26.15 20.3 M24.15 7.7 L24.25 7.45 24.15 7.7 M14.15 24.65 L14.9 24.5 15.85 24.35 18.55 23.8 18.8 23.7 Q20.45 23.25 20.25 22.55 L19.75 21.55 Q19.45 21.25 19.15 21.3 L18.85 21.45 13.6 24.7 14.15 24.65 M23.65 38.95 L23.65 37.1 23.2 36.6 23.45 36.35 23.5 36.3 Q23.8 36.05 24.2 35.9 25.3 35.35 26.55 35.35 L27.25 35.4 27.75 35.55 27.6 36.1 27.6 36.2 27.4 36.85 25.65 37.8 25.1 39.5 Q25.25 40.3 25.55 40.65 L25.75 40.8 25.75 41.9 24.65 42.25 Q23.95 42.45 20.9 41.2 17.9 39.95 17.9 38.95 L17.95 37.7 18.0 37.55 20.35 39.45 22.75 39.7 23.65 38.95 M0.25 23.9 Q2.35 24.65 4.05 25.7 L5.8 27.0 5.9 27.05 6.5 27.6 6.55 27.85 6.55 28.05 6.75 29.5 Q6.75 31.1 6.0 31.85 L5.8 32.05 Q5.15 32.45 4.1 32.55 3.15 30.85 1.55 29.1 L1.0 28.5 0.7 28.15 Q-0.65 26.5 -0.65 26.05 L-0.15 24.55 0.25 23.9 M22.75 39.7 Q23.95 40.35 25.55 40.65 23.95 40.35 22.75 39.7" fill="#8ecf4c" fill-rule="evenodd" stroke="none"/>
      <path d="M14.25 3.25 L13.45 0.45 13.55 -0.95 13.9 -0.95 22.0 11.7 21.95 9.8 Q22.0 6.9 22.65 6.9 23.15 6.9 23.9 7.5 L24.15 7.7 23.8 9.35 25.25 19.35 26.15 20.3 26.0 20.8 25.8 22.3 Q25.65 23.5 25.9 24.2 L26.55 25.85 24.95 26.1 23.65 26.85 23.1 27.5 Q22.25 28.65 22.25 30.45 L22.45 32.6 23.0 33.1 21.05 31.6 16.05 27.75 13.75 26.0 12.75 25.2 12.75 25.15 12.75 25.2 13.75 26.0 13.9 26.45 Q14.3 27.8 14.3 28.8 L14.2 30.7 14.2 30.55 Q13.1 32.15 11.6 32.15 L10.0 32.0 9.75 32.7 9.4 31.85 8.2 29.6 6.5 27.6 5.9 27.05 5.8 27.0 4.05 25.7 Q2.35 24.65 0.25 23.9 L0.0 23.8 -0.95 23.6 -0.95 20.9 Q2.4 21.65 6.05 24.8 L6.5 25.2 8.1 26.85 8.25 26.85 8.4 26.85 Q10.05 26.5 11.0 25.6 11.95 24.65 12.1 23.5 L12.15 22.35 12.9 23.85 12.05 24.4 12.75 25.15 12.85 25.15 13.25 25.2 13.5 25.25 13.65 25.25 14.15 25.25 15.65 25.4 16.35 25.45 16.95 25.5 19.4 25.55 21.0 25.5 21.4 25.45 Q22.05 25.35 22.0 24.15 21.95 23.0 21.7 22.45 21.35 21.5 20.45 20.7 19.9 20.2 19.0 19.65 L14.25 3.25 M36.3 -0.95 L37.3 -0.95 Q41.6 8.15 44.2 16.55 L42.35 18.85 Q41.9 15.8 40.5 12.85 39.05 9.95 37.35 8.85 L36.0 8.05 35.45 7.8 35.4 7.3 36.05 7.65 Q36.9 8.05 37.5 8.05 38.25 8.05 38.45 7.55 L38.55 7.05 Q38.55 6.05 36.4 -0.55 L36.3 -0.9 36.3 -0.95 M36.55 37.4 L36.75 37.55 41.45 37.55 Q54.9 31.55 50.15 17.55 51.35 19.1 52.15 20.85 53.45 23.55 53.25 27.25 53.05 30.95 50.15 34.15 47.5 37.1 42.25 37.6 L41.5 37.65 41.7 38.35 40.7 39.5 40.5 39.6 37.45 40.55 Q36.75 40.55 36.6 40.25 36.45 40.05 36.45 39.2 L36.55 37.4 M56.3 36.15 L56.3 41.9 Q52.9 41.75 50.85 45.2 49.1 48.45 49.2 51.65 L48.8 51.65 48.0 50.75 48.5 46.85 48.7 45.65 Q49.45 42.0 50.65 40.2 52.55 37.35 56.3 36.15 M19.8 49.95 L18.55 50.45 18.0 49.8 19.45 47.0 20.65 44.15 Q20.9 43.4 19.0 42.25 17.1 41.1 17.05 39.85 L16.95 37.65 17.05 36.6 18.0 37.55 17.95 37.7 17.75 38.85 Q17.75 39.85 18.35 40.6 18.9 41.35 21.45 42.35 L21.65 43.65 Q21.7 44.5 21.25 45.2 L20.85 45.95 20.9 46.15 21.85 45.35 23.85 43.15 25.75 43.3 25.75 43.8 Q25.15 45.5 24.2 46.5 L22.5 47.6 20.75 46.95 19.8 48.6 19.8 49.95 M10.35 57.3 L6.85 57.3 6.4 56.75 Q5.55 55.5 5.55 54.5 5.55 53.8 5.8 53.1 L9.1 54.95 Q9.25 55.85 9.85 56.65 L10.25 57.15 10.35 57.3 M-0.95 39.4 L-0.95 31.95 Q0.3 33.1 0.3 34.9 0.25 37.55 -0.5 38.7 L-0.95 39.4 M29.85 12.6 L27.25 10.25 26.05 9.15 Q26.7 9.05 26.75 8.15 L26.8 6.8 28.35 8.4 28.15 8.4 28.15 8.55 28.55 8.55 29.6 9.65 29.7 9.75 Q29.5 11.35 29.85 12.6 M41.5 37.65 L41.45 37.55 41.5 37.65 M40.8 49.5 L43.0 50.7 41.35 52.85 Q38.95 55.75 37.95 55.75 35.95 55.75 32.7 51.85 L31.15 49.9 28.65 46.25 28.65 45.6 Q31.15 44.25 37.45 46.6 L39.15 48.15 Q37.0 49.5 36.3 51.1 37.1 51.75 37.8 51.75 38.65 51.75 39.6 50.8 L40.8 49.5 M21.85 16.65 L21.65 13.8 19.5 10.35 17.3 7.3 Q17.0 7.7 18.1 11.15 19.15 14.6 19.5 17.2 20.0 19.4 21.6 19.9 L21.85 16.65 M23.2 36.6 L23.15 36.6 22.2 35.55 Q23.15 34.65 24.45 34.1 25.25 33.7 26.0 33.55 L27.05 34.95 27.15 35.1 27.2 35.15 27.85 35.05 27.75 35.55 27.25 35.4 26.55 35.35 Q25.3 35.35 24.2 35.9 23.8 36.05 23.5 36.3 L23.45 36.35 23.2 36.6 M14.25 25.55 L20.05 28.9 Q20.6 28.85 21.05 28.05 L21.55 26.5 14.25 25.55 M4.1 32.55 Q5.15 32.45 5.8 32.05 L6.0 31.85 Q6.75 31.1 6.75 29.5 L6.55 28.05 7.75 30.1 7.9 30.5 Q8.65 32.2 8.8 34.35 L8.65 34.6 Q7.65 35.75 6.0 35.8 L5.9 35.8 Q4.7 35.8 3.9 35.25 3.75 33.8 3.2 32.55 L3.3 32.55 3.75 32.55 4.1 32.55" fill="#669641" fill-rule="evenodd" stroke="none"/>
      <path d="M36.25 37.25 L36.55 37.4 36.45 39.2 Q36.45 40.05 36.6 40.25 36.75 40.55 37.45 40.55 L40.5 39.6 40.7 39.5 37.55 42.75 35.9 42.75 37.55 46.65 37.45 46.6 Q31.15 44.25 28.65 45.6 L28.25 42.85 28.25 42.8 28.2 42.6 27.85 41.3 28.15 41.2 29.25 40.7 31.0 39.5 31.1 39.45 Q31.7 37.65 31.75 35.1 L32.5 35.5 35.75 37.35 36.25 37.25 M56.3 41.9 L56.3 44.6 Q52.75 43.9 51.0 51.65 L49.2 51.65 Q49.1 48.45 50.85 45.2 52.9 41.75 56.3 41.9 M6.85 57.3 L3.2 57.3 2.3 56.3 1.9 55.75 Q0.7 53.9 0.95 52.7 1.25 51.6 2.5 50.35 L4.5 52.15 5.8 53.1 Q5.55 53.8 5.55 54.5 5.55 55.5 6.4 56.75 L6.85 57.3 M1.85 57.3 L-0.95 57.3 -0.95 51.7 -0.9 51.7 Q-0.35 54.05 1.0 56.15 L1.85 57.3 M-0.95 42.3 L-0.95 39.4 -0.5 38.7 Q0.25 37.55 0.3 34.9 0.3 33.1 -0.95 31.95 L-0.95 29.6 -0.25 28.9 Q2.45 30.85 3.2 32.55 3.75 33.8 3.9 35.25 4.7 35.8 5.9 35.8 L6.0 35.8 Q7.65 35.75 8.65 34.6 L8.8 34.35 Q8.65 32.2 7.9 30.5 L7.75 30.1 6.55 28.05 6.55 27.85 6.5 27.6 8.2 29.6 9.4 31.85 9.75 32.7 10.0 32.0 11.6 32.15 Q13.1 32.15 14.2 30.55 L14.2 30.7 14.3 28.8 Q14.3 27.8 13.9 26.45 L13.75 26.0 16.05 27.75 16.1 28.95 Q16.3 32.35 15.85 35.4 L15.75 35.75 12.65 38.7 15.75 35.75 15.85 35.4 16.95 36.5 17.05 36.6 16.95 37.65 17.05 39.85 Q17.1 41.1 19.0 42.25 20.9 43.4 20.65 44.15 L19.45 47.0 18.0 49.8 16.3 47.9 17.45 45.7 16.85 44.65 14.6 43.7 Q13.45 42.3 12.95 41.0 12.5 39.8 12.65 38.7 L10.95 40.25 8.1 40.25 5.9 39.7 5.0 39.45 3.65 39.1 3.8 38.35 2.9 39.05 0.15 41.25 -0.15 41.55 -0.7 42.05 -0.75 42.1 -0.95 42.3 M-0.95 28.9 L-0.95 28.45 -0.7 28.6 -0.95 28.9 M12.15 21.7 L13.8 23.3 12.9 23.85 12.15 22.35 12.15 21.7 M21.85 16.65 L21.6 19.9 Q20.0 19.4 19.5 17.2 19.15 14.6 18.1 11.15 17.0 7.7 17.3 7.3 L19.5 10.35 21.65 13.8 21.85 16.65 M26.55 25.85 L27.95 27.3 25.35 27.55 24.0 28.4 Q23.45 29.1 23.55 30.3 L26.0 33.55 Q25.25 33.7 24.45 34.1 23.15 34.65 22.2 35.55 21.25 34.4 20.95 33.15 L20.9 33.0 21.05 31.6 23.0 33.1 22.45 32.6 22.25 30.45 Q22.25 28.65 23.1 27.5 L23.65 26.85 24.95 26.1 26.55 25.85 M14.25 25.55 L21.55 26.5 21.05 28.05 Q20.6 28.85 20.05 28.9 L14.25 25.55 M8.1 40.25 Q10.25 38.8 10.35 34.95 L9.75 32.7 10.35 34.95 Q10.25 38.8 8.1 40.25 M3.9 35.25 Q4.05 36.7 3.8 38.35 4.05 36.7 3.9 35.25 M23.0 33.1 L23.55 30.3 23.0 33.1 M28.2 42.6 L28.7 42.3 Q30.4 41.5 32.45 41.7 L34.25 42.1 Q35.05 42.35 35.9 42.75 35.05 42.35 34.25 42.1 L32.45 41.7 Q30.4 41.5 28.7 42.3 L28.2 42.6" fill="#3f6b30" fill-rule="evenodd" stroke="none"/>
      <path d="M56.3 2.2 L56.3 5.45 Q54.15 4.7 52.0 4.4 L51.1 4.3 51.15 3.65 52.3 3.2 Q54.4 2.4 56.3 2.2 M52.0 4.4 L52.3 3.2 52.0 4.4" fill="#b4f3ef" fill-rule="evenodd" stroke="none"/>
      <path d="M33.85 9.0 L33.95 9.0 34.3 9.1 Q35.5 9.5 35.9 9.9 L36.05 10.15 35.85 10.3 35.8 10.35 Q35.65 10.6 35.65 10.95 L35.75 11.7 36.45 13.05 Q37.35 14.1 38.35 14.1 L39.05 14.05 Q39.45 13.95 39.35 13.6 L40.55 15.9 40.85 16.65 Q41.3 17.9 41.35 18.85 41.4 19.85 41.1 20.0 L41.05 20.05 40.65 18.4 39.8 16.8 38.95 16.85 39.05 16.5 38.95 15.9 Q38.75 15.55 37.95 15.35 L36.5 15.1 35.5 14.9 35.45 14.9 34.3 14.35 33.6 13.7 33.3 13.1 32.95 12.65 Q32.6 11.8 32.7 11.05 32.9 9.4 33.85 9.0 M38.35 16.8 L38.15 16.8 Q36.95 16.75 35.45 15.6 L35.15 15.4 35.45 15.5 36.95 15.75 Q38.5 15.95 38.5 16.5 L38.35 16.8" fill="#21527a" fill-rule="evenodd" stroke="none"/>
      <path d="M38.15 20.25 L38.1 20.25 29.85 12.6 Q29.5 11.35 29.7 9.75 L30.0 9.4 30.55 9.05 Q31.15 8.6 32.15 8.6 L33.85 9.0 Q32.9 9.4 32.7 11.05 32.6 11.8 32.95 12.65 L33.3 13.1 33.6 13.7 34.3 14.35 35.45 14.9 35.5 14.9 36.5 15.1 37.95 15.35 Q38.75 15.55 38.95 15.9 L39.05 16.5 38.95 16.85 39.8 16.8 40.65 18.4 41.05 20.05 Q40.8 20.2 40.8 20.25 L38.15 20.25 M38.35 16.8 L38.5 16.5 Q38.5 15.95 36.95 15.75 L35.45 15.5 35.15 15.4 35.45 15.6 Q36.95 16.75 38.15 16.8 L38.35 16.8" fill="#4b8cc1" fill-rule="evenodd" stroke="none"/>
      <path d="M37.55 12.0 L36.9 10.95 Q36.9 9.85 38.15 10.4 39.35 10.95 39.35 12.05 L39.25 12.45 Q39.05 12.75 38.7 12.75 38.2 12.75 37.55 12.0" fill="#ffffff" fill-rule="evenodd" stroke="none"/>
      <path d="M28.15 21.95 L29.25 22.9 29.2 24.6 29.25 24.8 28.9 24.8 Q28.6 24.8 28.25 25.1 28.0 23.55 28.15 21.95 M33.7 29.35 L33.7 30.0 33.65 30.0 32.6 29.85 32.65 29.35 32.7 29.2 33.7 29.35 M28.4 24.65 L28.6 24.7 28.55 24.6 28.4 24.6 28.4 24.65" fill="#c5c7de" fill-rule="evenodd" stroke="none"/>
      <path d="M29.25 22.9 L33.5 26.5 33.7 29.35 32.7 29.2 32.6 29.15 32.7 29.15 32.75 28.4 32.7 27.9 31.6 27.85 31.3 27.65 31.15 27.5 Q30.6 27.05 30.55 26.3 L31.1 26.55 31.4 26.5 31.4 26.25 Q31.1 25.7 30.6 25.6 L30.95 25.35 30.1 24.9 29.5 24.8 29.25 24.8 29.2 24.6 29.25 22.9" fill="#8b6d14" fill-rule="evenodd" stroke="none"/>
      <path d="M17.95 37.7 L17.9 38.95 Q17.9 39.95 20.9 41.2 23.95 42.45 24.65 42.25 L25.75 41.9 25.75 43.3 23.85 43.15 21.85 45.35 20.9 46.15 20.85 45.95 21.25 45.2 Q21.7 44.5 21.65 43.65 L21.45 42.35 Q18.9 41.35 18.35 40.6 17.75 39.85 17.75 38.85 L17.95 37.7" fill="#ccdda5" fill-rule="evenodd" stroke="none"/>
      <path d="M29.25 24.8 L29.5 24.8 30.1 24.9 30.95 25.35 30.6 25.6 30.25 25.6 30.25 25.8 30.55 26.3 Q30.6 27.05 31.15 27.5 L31.3 27.65 31.6 27.85 32.7 27.9 32.75 28.4 32.7 29.15 32.6 29.15 32.0 28.95 31.45 28.7 31.15 28.55 Q30.3 27.95 29.8 27.0 29.35 26.05 29.25 24.8" fill="#ffcc33" fill-rule="evenodd" stroke="none"/>
      <path d="M29.25 24.8 Q29.35 26.05 29.8 27.0 30.3 27.95 31.15 28.55 L31.45 28.7 32.0 28.95 32.6 29.15 32.7 29.2 32.65 29.35 32.6 29.85 31.65 29.65 31.25 29.55 30.25 29.2 29.4 28.6 Q28.55 26.85 28.25 25.1 28.6 24.8 28.9 24.8 L29.25 24.8 M30.55 26.3 L30.25 25.8 30.25 25.6 30.6 25.6 Q31.1 25.7 31.4 26.25 L31.4 26.5 31.1 26.55 30.55 26.3" fill="#ecdfe4" fill-rule="evenodd" stroke="none"/>
      <path d="M45.0 51.75 Q42.3 55.25 39.5 57.3 L36.6 57.3 Q34.3 55.6 32.5 53.7 29.9 51.0 28.3 47.9 L28.55 47.25 28.65 46.25 31.15 49.9 32.7 51.85 Q35.95 55.75 37.95 55.75 38.95 55.75 41.35 52.85 L43.0 50.7 45.0 51.75 M3.2 57.3 L1.85 57.3 1.0 56.15 Q-0.35 54.05 -0.9 51.7 L1.5 48.85 2.2 50.05 2.5 50.35 Q1.25 51.6 0.95 52.7 0.7 53.9 1.9 55.75 L2.3 56.3 3.2 57.3" fill="#a597a6" fill-rule="evenodd" stroke="none"/>
      <path d="M12.35 -0.95 L13.7 3.8 14.25 3.25 13.45 0.45 13.55 -0.95 M37.3 -0.95 Q41.6 8.15 44.2 16.55 L47.75 10.25 48.5 12.05 47.35 18.6 46.05 24.75 42.9 27.85 40.65 36.0 36.25 37.25 36.55 37.4 36.75 37.55 41.45 37.55 Q54.9 31.55 50.15 17.55 L49.2 15.05 51.3 14.35 Q53.65 14.85 56.3 16.85 M51.65 57.3 Q51.5 54.5 51.0 51.65 L49.2 51.65 48.8 51.65 48.0 50.75 46.85 49.25 45.0 51.75 Q42.3 55.25 39.5 57.3 M36.6 57.3 Q34.3 55.6 32.5 53.7 29.9 51.0 28.3 47.9 27.15 50.4 25.1 51.45 L24.95 51.5 22.35 51.65 22.15 51.65 21.3 51.7 20.2 50.8 20.15 50.6 19.8 49.95 18.55 50.45 18.35 51.5 19.55 52.6 19.2 54.85 16.9 56.1 16.55 56.15 16.55 56.95 16.9 57.3 M-0.95 5.65 L0.2 6.85 Q3.8 12.05 6.15 17.25 L6.25 17.3 Q8.75 18.85 10.65 20.45 L12.15 21.7 13.8 23.3 17.55 20.85 12.9 7.0 13.7 3.8 M35.4 7.3 L35.0 -0.45 35.3 -0.95 M35.4 7.3 L35.45 7.8 36.0 8.05 37.35 8.85 Q39.05 9.95 40.5 12.85 41.9 15.8 42.35 18.85 L44.2 16.55 M52.65 1.25 Q53.35 0.8 54.15 0.45 L56.3 -0.4 M56.3 5.45 Q54.15 4.7 52.0 4.4 L51.1 4.3 49.05 4.2 49.55 3.65 Q50.85 2.25 52.65 1.25 M38.15 20.25 L38.1 20.25 29.85 12.6 27.25 10.25 26.05 9.15 24.25 7.45 24.15 7.7 23.8 9.35 25.25 19.35 26.15 20.3 27.05 21.0 28.15 21.95 29.25 22.9 33.5 26.5 33.7 29.35 33.7 30.0 34.0 33.6 33.2 33.9 30.95 34.65 31.75 35.1 32.5 35.5 35.75 37.35 36.25 37.25 M40.8 20.25 L41.25 20.25 42.35 18.85 M41.5 37.65 L41.7 38.35 Q42.7 41.5 43.95 44.2 45.25 47.0 46.85 49.25 M40.7 39.5 L41.7 38.35 M41.45 37.55 L41.5 37.65 M43.95 44.2 L40.6 47.0 40.45 49.3 40.8 49.5 43.0 50.7 45.0 51.75 M34.0 7.85 L33.55 7.85 30.75 8.4 30.0 9.4 29.7 9.75 29.6 9.65 28.55 8.55 28.35 8.4 26.8 6.8 26.15 6.2 27.7 2.3 28.55 -0.95 M35.45 7.8 L34.0 7.85 M23.3 3.35 L26.15 6.2 M23.3 3.35 L20.8 1.05 18.65 -0.95 M19.0 19.65 L19.05 19.85 17.55 20.85 M27.95 27.3 L27.55 26.0 27.15 23.65 Q26.95 22.3 27.05 21.0 M29.25 24.8 L29.2 24.6 29.25 22.9 M29.85 12.6 Q29.5 11.35 29.7 9.75 M6.15 17.25 L6.1 17.25 3.6 17.1 0.0 17.1 -0.95 17.3 M0.25 23.9 L0.0 23.8 -0.95 23.6 M12.9 23.85 L13.8 23.3 M12.9 23.85 L12.05 24.4 12.75 25.15 12.75 25.2 13.75 26.0 16.05 27.75 21.05 31.6 23.0 33.1 23.55 30.3 Q23.45 29.1 24.0 28.4 L25.35 27.55 27.95 27.3 M14.25 3.25 L19.0 19.65 M15.85 35.4 Q16.3 32.35 16.1 28.95 L16.05 27.75 M20.95 33.15 L20.9 33.0 21.05 31.6 M23.65 38.95 L23.65 37.1 23.2 36.6 23.15 36.6 22.2 35.55 Q21.25 34.4 20.95 33.15 M17.05 36.6 L18.0 37.55 20.35 39.45 22.75 39.7 23.65 38.95 M12.65 38.7 L15.75 35.75 15.85 35.4 16.95 36.5 M0.25 23.9 Q2.35 24.65 4.05 25.7 L5.8 27.0 5.9 27.05 6.5 27.6 8.2 29.6 9.4 31.85 9.75 32.7 10.35 34.95 Q10.25 38.8 8.1 40.25 L10.95 40.25 12.65 38.7 Q12.5 39.8 12.95 41.0 13.45 42.3 14.6 43.7 L16.85 44.65 17.45 45.7 16.3 47.9 18.0 49.8 18.55 50.45 M3.2 32.55 Q3.75 33.8 3.9 35.25 4.05 36.7 3.8 38.35 L3.65 39.1 5.0 39.45 5.9 39.7 8.1 40.25 M2.9 39.05 L3.8 38.35 M2.9 39.05 L2.8 39.75 3.45 42.5 3.5 42.65 4.65 44.35 Q5.75 45.6 7.5 46.6 L8.25 47.05 11.55 48.4 16.3 47.9 M1.4 42.85 L0.8 42.9 0.65 43.7 0.05 46.5 1.5 48.85 2.2 50.05 2.5 50.35 4.5 52.15 10.1 52.6 12.2 50.9 11.5 50.0 8.75 48.85 8.45 47.7 8.25 47.05 M3.5 42.65 L3.25 42.65 1.4 42.85 -0.15 41.55 -0.7 42.05 -0.6 42.7 0.65 43.7 M-0.15 41.55 L0.15 41.25 2.9 39.05 M25.75 41.9 L25.75 40.8 25.55 40.65 Q23.95 40.35 22.75 39.7 M29.25 24.8 Q29.35 26.05 29.8 27.0 30.3 27.95 31.15 28.55 L31.45 28.7 32.0 28.95 32.6 29.15 32.7 29.2 33.7 29.35 M29.4 28.6 L30.25 29.2 31.25 29.55 31.65 29.65 32.6 29.85 33.65 30.0 33.7 30.0 M27.15 35.1 L27.2 35.15 27.85 35.05 29.0 34.9 29.3 34.85 30.75 34.65 30.95 34.65 M28.25 25.1 Q28.55 26.85 29.4 28.6 M29.2 28.45 Q27.95 28.85 27.4 30.0 26.75 31.25 26.9 33.4 L27.05 34.95 27.15 35.1 M26.0 33.55 L23.55 30.3 M27.75 35.55 L27.6 36.1 27.6 36.2 27.4 36.85 25.65 37.8 25.1 39.5 Q25.25 40.3 25.55 40.65 M29.25 40.7 L31.0 39.5 31.1 39.45 Q31.7 37.65 31.75 35.1 M26.0 33.55 L27.05 34.95 M27.85 35.05 L27.75 35.55 M28.15 41.2 L29.25 40.7 M25.75 40.8 L26.55 41.05 26.7 41.1 27.85 41.3 28.15 41.2 M25.75 41.9 L25.75 43.3 25.75 43.8 Q25.15 45.5 24.2 46.5 L22.5 47.6 20.75 46.95 19.8 48.6 19.8 49.95 M20.05 49.95 L20.15 50.6 M35.9 42.75 Q35.05 42.35 34.25 42.1 L32.45 41.7 Q30.4 41.5 28.7 42.3 L28.2 42.6 28.25 42.8 28.25 42.85 28.65 45.6 Q31.15 44.25 37.45 46.6 L37.55 46.65 35.9 42.75 37.55 42.75 40.7 39.5 M28.2 42.6 L27.85 41.3 M28.3 47.9 L28.55 47.25 28.65 46.25 28.65 45.6 M39.15 48.15 L37.45 46.6 M28.25 25.1 Q28.0 23.55 28.15 21.95 M36.3 51.1 Q37.0 49.5 39.15 48.15 L40.6 47.0 M18.3 51.6 L18.35 51.5 M14.6 52.2 L15.35 54.6 16.9 56.1 M12.35 56.05 L16.55 56.15 M14.6 52.2 L15.25 51.6 18.3 51.6 M11.9 57.25 L12.35 56.85 Q13.25 57.0 14.05 57.3 M16.55 57.3 L16.55 56.95 M5.8 53.1 L4.5 52.15 M5.8 53.1 L9.1 54.95 12.35 56.05 M1.85 57.3 L1.0 56.15 Q-0.35 54.05 -0.9 51.7 L-0.95 51.7 M56.3 44.6 Q52.75 43.9 51.0 51.65 M38.15 20.25 L40.8 20.25 M-0.25 28.9 L-0.95 29.6 M-0.95 28.9 L-0.7 28.6 -0.95 28.45 M-0.7 28.6 L-0.25 28.9 Q2.45 30.85 3.2 32.55 M-0.6 42.7 L-0.95 43.3 M-0.95 42.3 L-0.75 42.1 -0.7 42.05 M1.5 48.85 L-0.9 51.7" fill="none" stroke="#40101c" stroke-linecap="round" stroke-linejoin="round" stroke-width="1.0"/>
      <path d="M54.15 0.45 L53.75 0.1 54.2 0.1 53.8 -0.65 53.2 -0.95 53.05 -1.0 53.05 -0.95 52.65 1.25 52.6 1.4 52.3 3.2 52.0 4.4 M56.3 0.35 L55.15 1.3 55.0 1.35 Q54.85 1.35 54.7 1.5 L54.35 0.8 54.15 0.45" fill="none" stroke="#ffffff" stroke-linecap="round" stroke-linejoin="round" stroke-width="1.0"/>
    </g>
    <g id="shape2" transform="matrix(1.0, 0.0, 0.0, 1.0, 0.0, 0.0)">
      <path d="M50.5 0.0 Q53.95 0.0 53.95 3.3 L53.95 50.15 Q53.95 53.4 50.5 53.4 L3.3 53.4 Q0.0 53.4 0.0 50.15 L0.0 3.3 Q0.0 0.0 3.3 0.0 L50.5 0.0" fill="#000000" fill-opacity="0.003921569" fill-rule="evenodd" stroke="none"/>
    </g>
  </defs>
</svg>
