<?xml version="1.0" encoding="UTF-8" standalone="no"?>
<svg xmlns:ffdec="https://www.free-decompiler.com/flash" xmlns:xlink="http://www.w3.org/1999/xlink" ffdec:objectType="frame" height="58.25px" width="56.8px" xmlns="http://www.w3.org/2000/svg">
  <g transform="matrix(1.0, 0.0, 0.0, 1.0, 1.05, 2.05)">
    <clipPath id="clipPath0" transform="matrix(1.0, 0.0, 0.0, 1.0, 0.0, 0.0)">
      <path d="M50.5 0.0 Q53.95 0.0 53.95 3.3 L53.95 50.15 Q53.95 53.4 50.5 53.4 L3.3 53.4 Q0.0 53.4 0.0 50.15 L0.0 3.3 Q0.0 0.0 3.3 0.0 L50.5 0.0" fill="#000000" fill-rule="evenodd" stroke="none"/>
    </clipPath>
    <g clip-path="url(#clipPath0)">
      <use ffdec:characterId="2" height="58.25" transform="matrix(1.0, 0.0, 0.0, 1.0, -1.05, -2.05)" width="56.8" xlink:href="#shape1"/>
    </g>
    <use ffdec:characterId="3" height="53.4" transform="matrix(1.0, 0.0, 0.0, 1.0, 0.0, 0.0)" width="53.95" xlink:href="#shape2"/>
  </g>
  <defs>
    <g id="shape1" transform="matrix(1.0, 0.0, 0.0, 1.0, 1.05, 2.05)">
      <path d="M14.1 43.7 L14.35 43.25 15.0 43.5 18.7 44.1 Q22.85 44.2 24.8 42.6 25.85 41.95 26.95 39.4 L27.9 37.0 29.2 37.55 31.35 38.55 33.05 37.55 Q33.75 37.15 34.3 36.9 L34.75 39.4 35.2 40.6 35.45 41.15 35.8 41.8 Q37.0 43.65 39.05 43.7 40.4 43.8 42.05 42.55 L42.55 42.1 42.8 42.75 41.9 43.1 41.45 43.25 41.3 43.45 41.1 44.0 41.3 44.15 43.2 43.75 43.4 45.3 43.05 45.35 41.5 45.7 41.3 46.25 42.8 46.3 43.35 46.25 43.35 46.6 38.7 48.25 34.65 49.25 34.35 49.3 30.45 49.75 28.4 49.8 27.6 49.75 22.1 49.25 19.2 48.7 15.7 47.75 15.5 47.7 16.15 47.55 16.4 47.5 16.25 46.65 13.45 46.65 13.75 44.65 14.15 44.75 14.65 44.85 16.05 44.85 15.8 44.15 14.95 43.9 14.15 43.7 14.1 43.7 M30.55 43.05 L29.75 43.25 29.7 43.3 31.3 43.9 Q31.8 43.9 32.8 43.15 L32.65 43.05 32.7 42.95 32.55 42.85 32.45 42.8 32.3 42.9 31.5 43.0 30.6 43.0 30.55 43.05 M26.2 45.05 L26.15 45.3 Q26.2 45.85 26.7 46.3 L26.8 46.35 27.75 46.65 28.55 46.6 29.2 46.45 30.4 46.0 31.05 45.5 31.25 45.4 31.4 45.3 31.7 45.7 33.0 45.95 34.05 45.7 34.05 45.6 34.3 45.35 34.4 45.0 34.35 44.85 34.05 45.05 32.85 45.35 32.15 45.15 Q31.55 44.85 31.4 44.6 L30.55 45.3 Q29.6 45.95 28.7 45.95 L27.6 45.85 Q27.0 45.65 27.0 45.1 L26.95 44.95 26.7 44.9 26.25 45.0 26.2 45.05" fill="#ffffff" fill-rule="evenodd" stroke="none"/>
      <path d="M50.05 21.35 L50.25 21.8 50.3 21.95 50.9 23.65 51.4 25.8 51.45 25.95 Q51.0 26.4 50.4 26.45 L50.1 24.8 49.5 22.0 49.4 21.5 48.65 18.4 49.3 19.6 49.45 19.95 50.05 21.35 M50.35 38.45 L50.25 38.75 49.85 40.75 49.55 42.3 49.5 42.45 48.05 49.4 47.95 49.85 47.5 49.45 47.5 49.4 47.6 46.95 47.65 45.5 47.65 42.6 47.65 41.15 47.95 41.0 48.45 40.55 49.5 39.45 50.05 38.8 50.35 38.45 M36.25 49.95 L36.85 50.2 34.9 51.05 34.75 50.25 36.25 49.95 M38.35 51.65 L38.45 51.85 38.4 51.95 37.65 53.3 37.45 53.55 37.35 53.8 35.95 55.7 35.45 55.7 34.6 52.95 34.9 51.6 35.4 51.9 Q36.45 52.5 37.05 52.5 L38.1 51.9 38.35 51.65 M13.45 55.05 L13.0 55.1 13.0 55.0 13.0 54.95 12.75 53.2 Q12.25 51.9 11.15 51.05 L10.9 50.9 11.85 49.65 Q12.4 49.0 13.4 48.95 L13.55 48.9 13.7 48.95 14.95 49.25 15.3 49.65 15.35 49.7 Q16.05 50.65 15.85 52.1 15.6 53.7 15.0 54.3 14.5 54.8 13.45 55.05 M3.5 47.65 L2.75 46.25 Q2.15 44.8 1.05 40.5 L0.55 38.55 0.1 37.0 -0.05 36.4 0.5 36.85 2.1 37.9 2.7 38.25 5.15 39.35 5.1 39.6 4.85 41.35 Q4.65 43.0 4.6 44.6 4.5 46.55 4.65 48.1 L4.7 49.0 3.5 47.65 M39.2 10.6 L39.25 10.8 38.9 10.65 38.45 10.45 38.05 10.25 36.85 9.9 35.75 9.6 34.9 9.45 32.55 9.05 32.5 9.0 32.1 7.95 31.95 7.1 35.1 7.95 38.3 9.25 38.55 9.55 38.95 10.1 39.0 10.2 39.2 10.6 M18.95 6.9 L19.0 8.8 18.9 10.0 18.8 10.35 18.8 10.45 17.7 10.85 Q16.8 11.15 15.95 11.55 14.35 12.3 13.05 13.25 12.55 12.65 12.6 11.6 L12.6 11.45 Q12.7 10.0 13.65 9.1 L15.4 7.85 18.95 6.9 M25.5 9.2 L25.5 9.1 26.0 8.5 26.1 8.35 26.2 8.45 26.7 8.8 27.1 9.05 27.15 9.1 26.25 9.15 25.5 9.2 M5.95 17.95 L5.95 18.15 6.0 18.25 6.1 18.8 6.2 19.8 6.2 20.2 Q6.1 21.95 5.3 24.25 L4.2 26.45 Q3.25 27.75 2.05 27.7 1.2 27.65 0.55 27.15 L0.0 26.35 -0.15 25.3 -0.1 24.6 Q0.2 23.15 1.25 21.75 L2.55 20.35 2.95 19.95 Q4.0 19.1 5.4 18.2 L5.95 17.95 M12.9 49.7 L12.4 50.2 Q12.4 50.65 13.45 51.3 L14.5 51.95 14.6 51.55 14.7 51.1 Q14.75 50.25 14.35 49.85 L13.35 49.55 13.25 49.6 12.9 49.7" fill="#e29425" fill-rule="evenodd" stroke="none"/>
      <path d="M36.85 50.2 L37.65 50.8 38.35 51.65 38.1 51.9 37.05 52.5 Q36.45 52.5 35.4 51.9 L34.9 51.6 34.9 51.2 34.9 51.05 36.85 50.2 M39.25 10.8 L39.4 11.05 39.4 11.2 39.4 11.45 39.25 11.8 39.25 11.85 39.15 12.0 39.1 12.05 39.05 12.05 36.65 10.65 Q35.1 9.8 34.3 9.75 L33.15 9.9 33.0 9.95 32.8 9.5 32.55 9.05 34.9 9.45 35.75 9.6 36.85 9.9 38.05 10.25 38.45 10.45 38.9 10.65 39.25 10.8 M30.65 15.65 L30.55 16.15 30.15 17.25 29.1 17.7 27.75 18.0 Q26.45 18.0 25.6 17.3 L25.05 16.75 24.9 16.4 24.55 15.7 24.35 14.75 24.3 13.8 24.3 13.65 24.3 13.3 24.3 12.95 24.55 11.55 24.8 10.75 Q25.1 9.8 25.5 9.2 L26.25 9.15 27.15 9.1 Q28.85 10.3 29.65 11.5 L29.8 11.75 29.85 11.8 30.45 13.0 30.55 13.35 30.65 14.0 30.7 15.0 30.65 15.65 M50.4 26.45 L50.2 26.45 Q49.5 26.45 49.05 26.05 L48.5 25.4 Q48.05 24.65 47.85 23.35 47.65 22.35 47.7 21.0 L47.65 20.5 47.7 20.15 47.75 19.8 47.75 19.55 48.0 17.4 48.55 18.2 48.65 18.4 49.4 21.5 49.5 22.0 50.1 24.8 50.4 26.45 M18.8 10.45 L18.45 11.45 18.25 11.9 17.15 13.3 17.0 13.4 Q16.25 13.9 15.2 13.9 L13.45 13.55 13.1 13.3 13.05 13.25 Q14.35 12.3 15.95 11.55 16.8 11.15 17.7 10.85 L18.8 10.45 M12.9 49.7 L13.25 49.6 13.35 49.55 14.35 49.85 Q14.75 50.25 14.7 51.1 L14.6 51.55 14.5 51.95 13.45 51.3 Q12.4 50.65 12.4 50.2 L12.9 49.7" fill="#f0cf34" fill-rule="evenodd" stroke="none"/>
      <path d="M47.7 3.8 L48.5 3.5 50.05 3.1 48.6 6.55 48.6 6.65 Q46.7 7.15 44.9 8.35 L46.4 7.1 Q47.35 5.95 47.7 3.8 M51.65 18.6 L50.5 20.7 50.45 20.8 50.05 21.35 49.45 19.95 49.3 19.6 48.65 18.4 48.55 18.2 48.7 17.85 49.45 16.0 51.25 18.15 51.65 18.6 M38.4 51.95 L39.05 52.4 38.6 53.05 38.5 53.3 37.85 54.3 38.55 54.9 39.45 55.7 35.95 55.7 37.35 53.8 37.45 53.55 37.65 53.3 38.4 51.95 M13.0 55.0 Q12.3 55.25 11.6 55.65 L11.5 55.7 9.15 55.7 9.5 55.5 10.3 55.15 Q11.35 54.55 12.0 54.3 12.0 53.85 11.5 53.35 L10.85 52.65 Q10.35 52.95 9.8 53.5 L10.45 51.45 11.15 51.05 Q12.25 51.9 12.75 53.2 L13.0 54.95 13.0 55.0 M43.3 9.55 L43.05 9.55 42.9 9.65 42.9 9.55 43.05 9.55 44.65 8.5 44.75 8.45 44.6 8.55 43.3 9.55" fill="#d78258" fill-rule="evenodd" stroke="none"/>
      <path d="M50.05 3.1 L53.1 2.65 53.55 4.05 53.65 4.8 53.55 9.75 53.4 11.45 53.3 12.25 53.25 12.6 52.85 14.65 52.0 17.65 51.65 18.6 51.25 18.15 49.45 16.0 50.0 13.7 50.15 12.45 50.2 11.6 50.25 10.7 50.3 9.5 50.25 7.15 50.2 6.35 49.85 6.35 48.65 6.6 48.6 6.65 48.6 6.55 50.05 3.1 M39.05 52.4 L39.7 52.85 40.85 53.55 41.6 54.15 43.85 55.7 39.45 55.7 38.55 54.9 37.85 54.3 38.5 53.3 38.6 53.05 39.05 52.4 M9.15 55.7 L9.05 55.7 9.8 53.5 Q10.35 52.95 10.85 52.65 L11.5 53.35 Q12.0 53.85 12.0 54.3 11.35 54.55 10.3 55.15 L9.5 55.5 9.15 55.7 M44.2 46.05 L44.7 45.9 44.7 45.95 44.0 46.3 44.0 46.1 44.0 46.05 44.2 46.05" fill="#e2aa74" fill-rule="evenodd" stroke="none"/>
      <path d="M43.9 47.65 L43.05 47.95 Q39.75 49.25 36.25 49.95 L34.75 50.25 33.3 50.45 30.75 50.7 27.45 50.85 24.75 50.75 21.1 50.4 21.0 50.4 14.95 49.25 13.7 48.95 13.55 48.9 12.0 48.45 12.1 47.7 13.35 47.8 13.5 47.8 15.1 47.7 15.5 47.7 15.7 47.75 19.2 48.7 22.1 49.25 27.6 49.75 28.4 49.8 30.45 49.75 34.35 49.3 34.65 49.25 38.7 48.25 43.35 46.6 43.35 46.25 43.85 46.15 44.0 46.05 44.0 46.1 44.0 46.3 44.0 46.5 43.9 47.65 M42.95 41.15 L43.15 41.65 43.35 42.5 42.8 42.75 42.55 42.1 42.05 42.55 Q40.4 43.8 39.05 43.7 37.0 43.65 35.8 41.8 L35.45 41.15 35.2 40.6 34.75 39.4 34.3 36.9 Q33.75 37.15 33.05 37.55 L31.35 38.55 29.2 37.55 27.9 37.0 26.95 39.4 Q25.85 41.95 24.8 42.6 22.85 44.2 18.7 44.1 L15.0 43.5 14.35 43.25 14.1 43.7 13.55 43.6 13.85 43.1 13.9 43.05 14.4 42.2 14.9 42.5 Q16.5 43.35 18.5 43.5 L18.8 43.55 Q22.65 43.7 25.1 41.0 26.6 39.3 27.1 37.05 L27.15 36.75 27.25 34.15 27.2 33.65 27.0 32.3 27.1 32.25 28.65 32.7 28.8 32.7 29.55 33.35 31.15 34.9 31.7 34.0 Q32.35 33.0 32.95 32.6 L34.15 31.65 34.8 31.45 35.4 31.6 35.1 33.3 35.0 34.35 35.0 36.45 35.0 36.5 Q35.15 38.65 35.9 40.35 L36.3 41.1 37.1 42.05 Q38.05 42.85 39.5 42.8 L40.9 42.6 Q41.75 42.3 42.45 41.65 L42.95 41.15 M43.6 43.6 L43.9 45.1 43.65 45.2 43.4 45.3 43.2 43.75 43.35 43.7 43.35 43.65 43.6 43.6 M13.75 44.65 L13.45 46.65 12.3 46.7 12.3 46.65 13.1 44.55 13.75 44.65 M32.65 43.05 L32.8 43.15 Q31.8 43.9 31.3 43.9 L29.7 43.3 29.75 43.25 30.55 43.05 30.05 43.2 30.65 43.45 31.5 43.55 32.3 43.35 32.65 43.05" fill="#d7af9b" fill-rule="evenodd" stroke="none"/>
      <path d="M47.5 49.4 L46.9 48.8 46.25 48.15 45.25 47.1 45.1 46.95 45.6 43.0 45.8 40.95 45.8 40.75 46.1 40.9 47.5 41.15 47.55 41.15 47.65 41.15 47.65 42.6 47.65 45.5 47.6 46.95 47.5 49.4 M8.25 38.7 Q7.85 40.3 7.6 41.85 L7.1 45.45 7.05 46.5 6.9 46.75 6.9 46.8 6.4 47.3 5.4 48.4 4.75 49.05 4.7 49.0 4.65 48.1 Q4.5 46.55 4.6 44.6 4.65 43.0 4.85 41.35 L5.1 39.6 5.15 39.35 5.2 39.35 5.9 39.45 6.3 39.45 Q7.2 39.35 8.25 38.7 M14.95 49.25 L21.0 50.4 21.1 50.4 20.9 51.0 20.9 51.15 20.85 51.05 21.0 50.4 20.85 51.05 20.9 51.15 20.95 52.3 Q18.05 51.35 15.35 49.7 L15.3 49.65 14.95 49.25" fill="#bd7227" fill-rule="evenodd" stroke="none"/>
      <path d="M35.45 55.7 L33.25 55.7 Q34.2 54.3 34.6 52.95 L35.45 55.7 M22.75 55.7 L16.5 55.7 16.25 55.45 16.1 55.3 15.85 55.7 13.2 55.7 13.45 55.05 Q14.5 54.8 15.0 54.3 15.6 53.7 15.85 52.1 16.05 50.65 15.35 49.7 18.05 51.35 20.95 52.3 L20.95 52.6 Q20.95 53.65 22.75 55.7 M40.6 10.5 L40.65 10.55 41.25 10.9 41.6 11.15 43.55 12.55 43.7 12.7 43.75 12.75 44.55 13.45 45.65 14.5 45.8 14.65 46.95 16.0 47.05 16.1 47.45 16.55 47.5 16.65 48.0 17.4 47.75 19.55 47.75 19.8 47.7 20.15 47.65 20.5 47.7 21.0 Q47.65 22.35 47.85 23.35 47.4 22.4 47.1 21.05 L47.0 20.35 46.9 19.6 46.8 18.8 46.8 17.65 46.8 17.2 Q46.05 15.65 44.45 14.15 L41.2 11.6 40.55 11.15 40.1 10.95 40.0 10.95 Q39.6 10.7 39.2 10.6 L39.0 10.2 38.95 10.1 38.55 9.55 38.3 9.25 38.75 9.5 39.05 9.65 40.6 10.5" fill="#a60000" fill-rule="evenodd" stroke="none"/>
      <path d="M51.45 25.95 L51.6 26.75 51.8 28.35 51.9 28.85 52.35 33.0 51.8 34.1 Q51.0 35.85 50.35 38.45 L50.05 38.8 49.5 39.45 48.45 40.55 47.95 41.0 47.65 41.15 47.55 41.15 47.5 41.15 47.5 40.65 47.55 39.2 47.25 32.85 47.2 32.3 46.95 30.45 46.95 30.35 46.95 30.3 46.9 30.05 Q48.75 34.25 50.6 34.4 L51.0 31.75 Q51.05 30.15 50.4 26.45 51.0 26.4 51.45 25.95 M16.5 55.7 L15.85 55.7 16.1 55.3 16.25 55.45 16.5 55.7 M9.05 55.7 L2.45 55.7 2.15 55.3 Q0.5 53.05 0.6 50.1 L0.65 48.8 0.35 48.55 0.7 48.45 8.05 50.05 9.2 50.4 10.5 51.15 10.45 51.45 9.8 53.5 9.05 55.7 M-0.05 36.4 L-0.55 35.0 -0.55 21.4 -0.1 20.45 0.15 20.05 0.85 18.9 1.35 18.1 2.8 16.2 Q4.25 14.5 6.05 13.05 L6.6 12.65 Q7.1 12.2 7.65 11.85 8.6 11.15 9.6 10.6 L10.75 9.9 10.85 9.8 Q13.05 8.65 15.4 7.85 L13.65 9.1 Q12.7 10.0 12.6 11.45 L12.6 11.6 Q12.55 12.65 13.05 13.25 L13.1 13.3 13.45 13.55 15.2 13.9 Q16.25 13.9 17.0 13.4 L17.15 13.3 18.25 11.9 18.45 11.45 18.8 10.45 18.8 10.35 18.9 10.0 19.0 8.8 18.95 6.9 22.45 6.45 23.35 6.4 23.55 6.4 23.85 6.4 24.8 6.35 25.0 6.35 31.95 7.1 32.1 7.95 32.5 9.0 32.55 9.05 32.8 9.5 33.0 9.95 33.05 9.95 32.85 10.05 32.35 10.35 32.3 10.25 Q31.4 9.55 31.05 8.9 L30.9 8.9 30.4 8.85 28.6 8.95 Q29.2 9.9 29.65 11.3 L29.8 11.75 29.65 11.5 Q28.85 10.3 27.15 9.1 L27.1 9.05 26.7 8.8 26.2 8.45 26.1 8.35 26.0 8.5 25.5 9.1 25.5 9.2 Q25.1 9.8 24.8 10.75 L24.55 11.55 24.3 12.95 24.3 13.3 24.3 13.65 24.3 13.8 24.35 14.75 24.55 15.7 24.9 16.4 25.05 16.75 24.4 15.7 24.35 15.6 Q23.7 14.25 23.8 12.45 23.85 10.9 24.3 9.6 L24.45 9.2 24.0 9.2 22.65 9.35 21.6 9.55 20.5 9.75 19.9 9.95 18.85 12.8 18.4 13.4 Q17.1 14.95 14.55 14.85 12.9 14.8 12.2 14.1 L12.1 14.0 10.85 15.1 10.7 15.2 9.4 16.65 Q7.6 18.9 7.5 20.9 7.4 23.75 8.6 26.55 L8.5 26.8 Q7.1 30.0 6.2 33.8 L6.0 34.65 5.65 36.45 5.65 36.7 5.2 39.35 5.15 39.35 2.7 38.25 2.1 37.9 0.5 36.85 -0.05 36.4 M5.95 17.95 L5.4 18.2 Q4.0 19.1 2.95 19.95 L2.55 20.35 1.25 21.75 Q0.2 23.15 -0.1 24.6 L-0.15 25.3 0.0 26.35 0.55 27.15 Q1.2 27.65 2.05 27.7 3.25 27.75 4.2 26.45 L5.3 24.25 Q6.1 21.95 6.2 20.2 L6.2 19.8 6.1 18.8 6.0 18.25 5.95 18.15 5.95 17.95" fill="#b8150b" fill-rule="evenodd" stroke="none"/>
      <path d="M-0.55 48.85 L-0.55 48.3 -0.2 48.2 0.35 48.55 -0.55 48.85 M8.6 26.55 Q9.85 23.65 11.4 21.3 L13.25 20.5 15.1 19.9 15.95 19.75 16.65 19.85 17.4 20.3 Q18.25 20.95 19.0 22.4 L20.05 24.7 20.1 24.75 23.3 26.25 24.05 26.55 24.85 26.85 25.1 26.95 26.85 27.55 30.3 28.6 Q32.15 28.4 35.1 26.9 L35.75 26.55 Q37.65 25.5 38.95 24.35 L39.55 23.2 40.2 22.2 40.7 21.55 Q41.4 20.65 41.95 20.3 L43.85 21.4 44.15 21.7 45.65 23.1 Q45.75 24.25 46.2 26.35 L46.2 26.6 46.6 28.55 46.9 30.05 46.8 29.9 46.75 29.7 46.7 29.6 46.45 28.9 45.3 26.05 45.05 25.45 44.75 24.8 44.15 23.85 44.15 23.9 43.5 22.95 42.95 23.55 42.8 23.75 41.8 25.0 41.35 25.5 40.45 26.35 39.55 27.1 39.5 27.15 37.4 28.75 37.25 28.85 37.05 28.95 36.9 29.0 36.45 29.2 36.0 29.4 Q32.5 30.8 29.85 31.0 L28.7 31.05 28.6 31.05 28.25 30.95 28.0 30.95 26.5 30.6 25.45 30.25 25.1 30.1 23.95 29.65 21.95 28.5 21.0 27.95 20.95 27.9 19.6 27.05 17.8 25.6 17.05 24.9 16.85 24.7 15.0 22.8 14.1 23.15 14.0 23.25 12.8 24.65 Q11.4 26.5 10.5 28.1 L10.05 28.95 9.65 28.3 9.35 27.95 8.5 26.8 8.6 26.55" fill="#fab2c2" fill-rule="evenodd" stroke="none"/>
      <path d="M33.25 55.7 L31.55 55.7 31.6 55.6 Q33.3 53.6 33.35 52.45 L33.4 52.15 33.3 51.1 33.35 50.85 33.35 50.75 33.3 50.45 34.75 50.25 34.9 51.05 34.9 51.2 34.9 51.6 34.6 52.95 Q34.2 54.3 33.25 55.7 M25.15 55.7 L22.75 55.7 Q20.95 53.65 20.95 52.6 L20.95 52.3 20.9 51.15 20.9 51.0 21.1 50.4 24.75 50.75 24.4 50.95 Q23.8 51.35 23.6 51.95 L23.55 52.0 23.5 52.15 23.45 52.7 23.45 53.0 Q23.5 54.0 24.35 54.95 L24.8 55.4 25.15 55.7 M27.45 50.85 L30.75 50.7 30.7 50.9 30.65 51.2 29.4 52.3 Q28.95 51.7 27.85 51.1 L27.8 51.05 27.45 50.85" fill="#2eb148" fill-rule="evenodd" stroke="none"/>
      <path d="M30.75 50.7 L33.3 50.45 33.35 50.75 33.35 50.85 33.3 51.1 33.05 51.85 Q32.65 52.65 31.8 52.65 30.6 52.6 30.65 51.25 L30.65 51.2 30.7 50.9 30.75 50.7 M25.35 50.95 L25.5 50.85 26.0 50.9 26.4 51.0 26.75 51.1 Q26.85 51.75 26.0 51.7 25.35 51.7 25.15 51.25 L25.15 51.2 25.05 51.05 25.35 50.95" fill="#f3fff5" fill-rule="evenodd" stroke="none"/>
      <path d="M20.55 -1.55 L22.5 -1.55 23.95 0.1 25.8 -1.55 29.55 -1.55 29.7 -1.05 Q27.6 -0.15 25.5 2.5 L25.4 2.65 24.05 4.75 23.15 2.45 Q22.4 0.75 21.25 -0.7 L20.55 -1.55 M31.55 55.7 L25.15 55.7 24.8 55.4 24.35 54.95 Q23.5 54.0 23.45 53.0 L23.45 52.7 23.5 52.15 23.55 52.0 23.6 51.95 Q23.8 51.35 24.4 50.95 L24.75 50.75 27.45 50.85 27.8 51.05 27.85 51.1 Q28.95 51.7 29.4 52.3 L30.65 51.2 30.65 51.25 Q30.6 52.6 31.8 52.65 32.65 52.65 33.05 51.85 L33.3 51.1 33.4 52.15 33.35 52.45 Q33.3 53.6 31.6 55.6 L31.55 55.7 M25.35 50.95 L25.05 51.05 25.15 51.2 25.15 51.25 Q25.35 51.7 26.0 51.7 26.85 51.75 26.75 51.1 L26.4 51.0 26.0 50.9 25.5 50.85 25.35 50.95 M53.1 52.75 L53.95 52.2 55.25 53.9 55.25 55.7 51.7 55.7 52.05 54.75 53.1 52.75" fill="#a7f65f" fill-rule="evenodd" stroke="none"/>
      <path d="M-0.55 47.9 L-0.55 41.95 1.0 44.2 1.05 44.3 2.6 46.75 2.85 47.15 1.1 47.5 -0.55 47.9 M-0.55 21.4 L-0.55 18.65 0.95 17.35 2.2 16.1 1.85 16.0 0.4 15.35 -0.55 14.85 -0.55 13.35 -0.2 13.15 1.4 12.45 Q2.75 11.9 4.4 11.65 L4.4 11.55 2.05 10.8 1.45 10.8 1.2 10.75 -0.55 10.25 -0.55 5.55 1.2 6.9 2.6 7.8 3.5 8.25 Q5.1 9.0 6.8 9.4 L10.75 9.9 9.6 10.6 Q8.6 11.15 7.65 11.85 7.1 12.2 6.6 12.65 L6.05 13.05 Q4.25 14.5 2.8 16.2 L1.35 18.1 0.85 18.9 0.15 20.05 -0.1 20.45 -0.55 21.4 M-0.55 2.2 L-0.55 0.65 -0.35 0.55 Q2.6 -0.4 5.0 -0.3 7.75 -0.2 9.95 1.15 L12.35 3.1 12.35 3.25 Q12.7 0.85 13.4 0.15 14.0 -0.5 15.45 -0.45 16.55 -0.45 17.85 0.75 L19.7 2.6 20.8 3.8 21.85 5.3 23.45 6.15 23.55 6.4 23.35 6.4 22.45 6.45 18.95 6.9 15.4 7.85 Q13.05 8.65 10.85 9.8 7.05 9.55 4.15 7.65 2.8 6.75 1.7 5.5 0.3 4.0 -0.55 2.2 M26.7 4.05 L26.35 5.7 26.35 5.8 Q26.95 4.1 29.5 3.1 30.4 2.7 31.55 2.45 L38.75 1.75 Q41.2 1.85 42.9 2.6 L44.45 3.3 41.7 5.3 Q41.25 5.6 40.85 5.85 L37.95 7.4 37.7 7.55 41.9 6.15 43.85 5.25 44.8 4.75 44.5 5.5 Q43.85 6.9 42.5 8.15 41.95 8.6 41.55 8.95 L40.6 10.4 40.6 10.5 39.05 9.65 38.75 9.5 38.3 9.25 35.1 7.95 31.95 7.1 25.0 6.35 26.7 4.05" fill="#33804b" fill-rule="evenodd" stroke="none"/>
      <path d="M-0.55 48.3 L-0.55 47.9 1.1 47.5 2.85 47.15 3.05 47.5 3.5 47.65 4.7 49.0 4.75 49.05 5.4 48.4 7.7 49.55 9.2 50.4 8.05 50.05 0.7 48.45 0.35 48.55 -0.2 48.2 -0.55 48.3 M8.5 26.8 L9.35 27.95 9.65 28.3 10.05 28.95 10.5 28.1 Q11.4 26.5 12.8 24.65 L14.0 23.25 14.1 23.15 15.0 22.8 16.85 24.7 17.05 24.9 17.8 25.6 19.6 27.05 20.95 27.9 21.0 27.95 21.95 28.5 23.95 29.65 25.1 30.1 25.45 30.25 26.5 30.6 28.0 30.95 28.25 30.95 28.6 31.05 28.7 31.05 29.85 31.0 Q32.5 30.8 36.0 29.4 L36.45 29.2 36.9 29.0 37.05 28.95 37.25 28.85 37.4 28.75 39.5 27.15 39.55 27.1 40.45 26.35 41.35 25.5 41.8 25.0 42.8 23.75 42.95 23.55 43.5 22.95 44.15 23.9 44.15 23.85 44.75 24.8 45.05 25.45 45.3 26.05 46.45 28.9 46.7 29.6 46.75 29.7 46.8 29.9 46.9 30.05 46.95 30.3 46.95 30.35 46.95 30.45 47.2 32.3 47.25 32.85 47.55 39.2 47.5 40.65 47.5 41.15 46.1 40.9 45.8 40.75 45.85 39.5 45.85 39.45 Q46.0 35.25 44.75 31.0 44.15 28.9 43.2 26.75 L43.15 26.55 42.85 26.0 42.8 26.05 42.35 26.55 42.0 26.9 41.75 27.15 41.1 27.75 39.4 29.0 39.2 29.1 36.2 30.85 35.5 31.15 34.8 31.45 34.15 31.65 Q31.6 32.55 28.8 32.7 L28.65 32.7 27.1 32.25 27.0 32.25 26.05 31.9 22.25 30.25 21.35 29.8 20.5 29.25 19.8 28.85 18.55 28.05 16.5 26.55 16.1 26.25 15.5 25.75 15.4 25.7 14.25 24.6 13.0 26.55 Q11.85 28.4 10.95 30.6 10.45 31.6 10.1 32.7 L9.8 33.45 9.3 34.85 8.95 36.05 8.25 38.7 Q7.2 39.35 6.3 39.45 L5.9 39.45 5.2 39.35 5.65 36.7 5.65 36.45 6.0 34.65 6.2 33.8 Q7.1 30.0 8.5 26.8" fill="#d47288" fill-rule="evenodd" stroke="none"/>
      <path d="M2.45 55.7 L-0.55 55.7 -0.55 54.0 -0.5 53.9 Q-0.05 53.45 -0.05 53.05 L-0.55 53.05 -0.55 48.85 0.35 48.55 0.65 48.8 0.6 50.1 Q0.5 53.05 2.15 55.3 L2.45 55.7 M39.2 10.6 Q39.6 10.7 40.0 10.95 L40.1 10.95 40.55 11.15 41.2 11.6 44.45 14.15 Q46.05 15.65 46.8 17.2 L46.8 17.65 46.8 18.8 46.9 19.6 47.0 20.35 47.1 21.05 Q47.4 22.4 47.85 23.35 48.05 24.65 48.5 25.4 L49.05 26.05 Q49.5 26.45 50.2 26.45 L50.4 26.45 Q51.05 30.15 51.0 31.75 L50.6 34.4 Q48.75 34.25 46.9 30.05 L46.6 28.55 46.2 26.6 46.2 26.35 Q45.75 24.25 45.65 23.1 L44.15 21.7 43.85 21.4 41.95 20.3 Q41.4 20.65 40.7 21.55 L40.2 22.2 39.55 23.2 38.95 24.35 Q37.65 25.5 35.75 26.55 L35.1 26.9 Q32.15 28.4 30.3 28.6 L26.85 27.55 25.1 26.95 24.85 26.85 24.05 26.55 23.3 26.25 20.1 24.75 20.05 24.7 19.0 22.4 Q18.25 20.95 17.4 20.3 L16.65 19.85 15.95 19.75 15.1 19.9 13.25 20.5 11.4 21.3 Q9.85 23.65 8.6 26.55 7.4 23.75 7.5 20.9 7.6 18.9 9.4 16.65 L10.7 15.2 10.85 15.1 12.1 14.0 12.2 14.1 Q12.9 14.8 14.55 14.85 17.1 14.95 18.4 13.4 L18.85 12.8 19.9 9.95 20.5 9.75 21.6 9.55 22.65 9.35 24.0 9.2 24.45 9.2 24.3 9.6 Q23.85 10.9 23.8 12.45 23.7 14.25 24.35 15.6 L24.4 15.7 25.05 16.75 25.6 17.3 Q26.45 18.0 27.75 18.0 L29.1 17.7 30.15 17.25 30.55 16.15 30.65 15.65 30.65 15.75 30.65 16.25 30.75 18.05 Q30.95 20.0 31.8 21.35 32.85 22.95 34.35 23.0 36.75 23.1 39.2 20.5 L39.7 19.9 40.0 19.45 Q40.95 17.85 41.0 16.7 41.0 15.55 40.45 14.15 39.95 12.95 39.1 12.1 L39.1 12.05 39.15 12.0 39.25 11.85 39.25 11.8 39.4 11.45 39.4 11.2 39.4 11.05 39.25 10.8 39.2 10.6 M41.75 15.6 L41.6 16.05 Q41.3 17.1 41.3 18.0 41.25 18.75 41.5 19.3 42.5 19.3 43.5 18.3 L44.05 17.7 44.35 16.95 Q44.35 16.4 43.6 15.8 42.95 15.25 42.5 15.2 42.25 15.2 41.85 15.5 L41.75 15.6 M29.8 11.75 L29.65 11.3 Q29.2 9.9 28.6 8.95 L30.4 8.85 30.9 8.9 31.05 8.9 Q31.4 9.55 32.3 10.25 L32.0 10.5 31.75 10.8 31.6 11.0 31.55 11.1 Q31.2 11.75 30.95 12.95 L30.7 15.0 30.65 14.0 30.55 13.35 30.45 13.0 29.85 11.8 29.8 11.75" fill="#e23a43" fill-rule="evenodd" stroke="none"/>
      <path d="M11.75 -1.55 L11.85 -1.35 12.0 -1.55 18.5 -1.55 Q19.95 -0.25 21.4 2.1 L21.6 2.5 23.45 6.15 21.85 5.3 20.8 3.8 19.7 2.6 17.85 0.75 Q16.55 -0.45 15.45 -0.45 14.0 -0.5 13.4 0.15 12.7 0.85 12.35 3.25 L12.35 3.1 9.95 1.15 Q7.75 -0.2 5.0 -0.3 2.6 -0.4 -0.35 0.55 L-0.55 0.65 -0.55 -1.55 11.75 -1.55 M30.0 1.05 L31.85 0.05 Q34.55 -1.3 38.5 -1.55 L41.75 -1.55 42.65 -1.55 47.9 -1.25 47.85 -0.2 47.85 1.75 47.7 3.8 Q47.35 5.95 46.4 7.1 L44.9 8.35 44.75 8.45 44.65 8.5 43.05 9.55 43.3 9.55 44.55 9.45 46.1 9.6 Q47.65 9.8 48.55 10.4 48.55 11.05 47.75 12.1 L47.4 12.55 47.0 13.1 45.8 14.3 45.7 14.45 45.65 14.5 44.55 13.45 44.85 13.15 44.85 13.05 45.5 12.25 46.0 11.5 44.75 11.15 43.95 10.95 42.1 10.65 40.65 10.55 40.6 10.5 40.6 10.4 41.55 8.95 Q41.95 8.6 42.5 8.15 43.85 6.9 44.5 5.5 L44.8 4.75 43.85 5.25 41.9 6.15 37.7 7.55 37.95 7.4 40.85 5.85 Q41.25 5.6 41.7 5.3 L44.45 3.3 42.9 2.6 Q41.2 1.85 38.75 1.75 L31.55 2.45 Q30.4 2.7 29.5 3.1 26.95 4.1 26.35 5.8 L26.35 5.7 26.7 4.05 27.85 2.85 30.0 1.05 M-0.55 18.65 L-0.55 17.65 -0.45 17.65 1.85 16.0 2.2 16.1 0.95 17.35 -0.55 18.65 M-0.55 13.35 L-0.55 12.3 0.2 11.8 0.25 11.8 0.4 11.75 Q1.0 11.35 1.75 11.05 L2.15 10.9 1.45 10.8 2.05 10.8 4.4 11.55 4.4 11.65 Q2.75 11.9 1.4 12.45 L-0.2 13.15 -0.55 13.35 M-0.55 5.55 L-0.55 2.2 Q0.3 4.0 1.7 5.5 2.8 6.75 4.15 7.65 7.05 9.55 10.85 9.8 L10.75 9.9 6.8 9.4 Q5.1 9.0 3.5 8.25 L2.6 7.8 1.2 6.9 -0.55 5.55 M43.05 9.55 L42.9 9.55 42.9 9.65 43.05 9.55" fill="#88d448" fill-rule="evenodd" stroke="none"/>
      <path d="M-0.55 54.0 L-0.55 53.05 -0.05 53.05 Q-0.05 53.45 -0.5 53.9 L-0.55 54.0 M39.1 12.1 Q39.95 12.95 40.45 14.15 41.0 15.55 41.0 16.7 40.95 17.85 40.0 19.45 L39.7 19.9 39.2 20.5 Q36.75 23.1 34.35 23.0 32.85 22.95 31.8 21.35 30.95 20.0 30.75 18.05 L30.65 16.25 30.65 15.75 30.65 15.65 30.7 15.0 30.95 12.95 Q31.2 11.75 31.55 11.1 L31.6 11.0 31.75 10.8 32.0 10.5 32.3 10.25 32.35 10.35 32.4 10.35 33.15 10.9 34.3 11.55 34.9 12.05 35.55 12.45 37.1 12.8 Q38.25 12.85 38.85 12.3 L39.0 12.2 39.1 12.1 M41.75 15.6 L41.85 15.5 Q42.25 15.2 42.5 15.2 42.95 15.25 43.6 15.8 44.35 16.4 44.35 16.95 L44.05 17.7 43.5 18.3 Q42.5 19.3 41.5 19.3 41.25 18.75 41.3 18.0 41.3 17.1 41.6 16.05 L41.75 15.6 M39.25 15.95 Q39.3 14.35 38.25 13.75 37.6 13.35 36.25 13.3 35.2 13.25 34.45 14.0 L34.5 14.25 Q34.15 14.85 34.05 16.3 34.0 17.75 34.55 18.45 35.05 19.05 35.95 19.1 L36.55 19.1 Q37.65 18.95 38.4 18.1 39.2 17.2 39.25 15.95" fill="#faa2b6" fill-rule="evenodd" stroke="none"/>
      <path d="M39.25 15.95 Q39.2 17.2 38.4 18.1 37.65 18.95 36.55 19.1 L35.95 19.1 Q35.05 19.05 34.55 18.45 34.0 17.75 34.05 16.3 34.15 14.85 34.5 14.25 L34.45 14.0 Q35.2 13.25 36.25 13.3 37.6 13.35 38.25 13.75 39.3 14.35 39.25 15.95" fill="#ffedf1" fill-rule="evenodd" stroke="none"/>
      <path d="M32.35 10.35 L32.85 10.05 33.05 9.95 33.05 10.0 33.45 10.6 34.3 11.55 33.15 10.9 32.4 10.35 32.35 10.35" fill="#fe6869" fill-rule="evenodd" stroke="none"/>
      <path d="M11.75 -1.55 L12.0 -1.55 11.85 -1.35 11.75 -1.55 M18.5 -1.55 L20.55 -1.55 21.25 -0.7 Q22.4 0.75 23.15 2.45 L24.05 4.75 25.4 2.65 25.5 2.5 Q27.6 -0.15 29.7 -1.05 L29.75 -0.9 30.0 1.05 27.85 2.85 26.7 4.05 25.0 6.35 24.8 6.35 23.85 6.4 23.55 6.4 23.45 6.15 21.6 2.5 21.4 2.1 Q19.95 -0.25 18.5 -1.55 M53.1 52.75 L52.05 54.75 51.7 55.7 51.05 55.7 51.1 55.45 Q51.85 53.75 53.1 52.75" fill="#36a151" fill-rule="evenodd" stroke="none"/>
      <path d="M-0.55 17.65 L-0.55 14.85 0.4 15.35 1.85 16.0 -0.45 17.65 -0.55 17.65 M-0.55 11.45 L-0.55 10.25 1.2 10.75 1.45 10.8 2.15 10.9 1.75 11.05 Q1.0 11.35 0.4 11.75 L0.25 11.8 -0.55 11.45 M45.65 14.5 L45.7 14.45 45.8 14.3 47.0 13.1 47.4 12.55 47.45 12.6 47.6 12.9 47.7 13.75 47.45 16.55 47.05 16.1 46.95 16.0 45.8 14.65 45.65 14.5 M46.1 9.6 L44.55 9.45 43.3 9.55 44.6 8.55 44.75 8.45 44.9 8.35 Q46.7 7.15 48.6 6.65 L48.65 6.6 49.85 6.35 50.2 6.35 50.25 7.15 49.25 7.4 47.95 8.1 46.45 9.25 46.1 9.6" fill="#932d43" fill-rule="evenodd" stroke="none"/>
      <path d="M-0.55 12.3 L-0.55 11.45 0.25 11.8 0.2 11.8 -0.55 12.3 M47.4 12.55 L47.75 12.1 Q48.55 11.05 48.55 10.4 47.65 9.8 46.1 9.6 L46.45 9.25 47.95 8.1 49.25 7.4 50.25 7.15 50.3 9.5 50.25 10.7 50.2 11.6 50.15 12.45 50.0 13.7 49.45 16.0 48.7 17.85 48.55 18.2 48.0 17.4 47.5 16.65 47.45 16.55 47.7 13.75 47.6 12.9 47.45 12.6 47.4 12.55" fill="#bf4b64" fill-rule="evenodd" stroke="none"/>
      <path d="M45.25 47.1 L45.05 47.2 44.55 47.4 43.9 47.65 44.0 46.5 44.0 46.3 44.7 45.95 44.7 45.9 44.2 46.05 44.7 45.85 44.75 45.35 44.75 44.8 43.9 45.1 43.6 43.6 44.65 43.15 44.6 41.95 43.35 42.5 43.15 41.65 42.95 41.15 43.45 40.45 Q44.4 38.95 44.7 36.9 L44.8 34.5 44.75 33.7 Q44.5 31.25 43.6 29.5 L42.95 28.5 41.75 27.15 42.0 26.9 42.35 26.55 42.8 26.05 42.85 26.0 43.15 26.55 43.2 26.75 Q44.15 28.9 44.75 31.0 46.0 35.25 45.85 39.45 L45.85 39.5 45.8 40.75 45.8 40.95 45.6 43.0 45.1 46.95 45.25 47.1 M35.5 31.15 L35.4 31.6 34.8 31.45 35.5 31.15 M15.4 25.7 L13.35 27.45 Q11.3 29.75 10.65 32.7 L10.4 34.15 Q10.2 36.85 11.3 38.95 L10.1 45.9 12.3 46.65 12.3 46.7 11.6 46.7 11.75 47.5 12.1 47.7 12.0 48.45 9.85 47.8 6.9 46.8 6.9 46.75 7.05 46.5 7.1 45.45 7.6 41.85 Q7.85 40.3 8.25 38.7 L8.95 36.05 9.3 34.85 9.8 33.45 10.1 32.7 Q10.45 31.6 10.95 30.6 11.85 28.4 13.0 26.55 L14.25 24.6 15.4 25.7 M27.0 32.3 L27.0 32.25 27.1 32.25 27.0 32.3 M34.15 31.65 L32.95 32.6 Q32.35 33.0 31.7 34.0 L31.15 34.9 29.55 33.35 28.8 32.7 Q31.6 32.55 34.15 31.65" fill="#cd6648" fill-rule="evenodd" stroke="none"/>
      <path d="M41.75 27.15 L42.95 28.5 43.6 29.5 Q44.5 31.25 44.75 33.7 L44.8 34.5 44.7 36.9 Q44.4 38.95 43.45 40.45 L42.95 41.15 42.45 41.65 Q41.75 42.3 40.9 42.6 L39.5 42.8 Q38.05 42.85 37.1 42.05 L36.3 41.1 35.9 40.35 Q35.15 38.65 35.0 36.5 L35.0 36.45 35.0 34.35 35.1 33.3 35.4 31.6 35.5 31.15 36.2 30.85 35.95 31.75 35.75 32.95 35.6 34.4 Q35.5 35.4 35.55 36.3 35.65 38.2 36.35 39.7 L37.0 40.75 37.35 41.1 37.65 41.35 Q38.45 41.85 39.5 41.8 41.45 41.75 42.7 40.2 L43.0 39.75 Q44.3 37.75 44.2 34.5 L44.15 33.9 Q43.9 31.0 42.55 29.25 L41.1 27.75 41.75 27.15 M16.1 26.25 L16.05 26.25 Q14.95 26.9 13.85 28.05 11.85 30.25 11.35 33.05 L11.2 34.15 Q11.05 36.05 11.65 37.65 12.1 38.95 13.1 40.05 L14.85 41.5 Q16.55 42.55 18.8 42.65 21.3 42.75 23.2 41.5 L23.4 41.35 24.5 40.35 Q25.8 38.9 26.25 37.0 26.55 35.65 26.45 34.15 L26.4 33.55 26.25 32.8 26.25 32.7 26.1 32.1 26.05 31.9 27.0 32.25 27.0 32.3 27.2 33.65 27.25 34.15 27.15 36.75 27.1 37.05 Q26.6 39.3 25.1 41.0 22.65 43.7 18.8 43.55 L18.5 43.5 Q16.5 43.35 14.9 42.5 L14.4 42.2 Q13.4 41.6 12.55 40.7 L11.3 38.95 Q10.2 36.85 10.4 34.15 L10.65 32.7 Q11.3 29.75 13.35 27.45 L15.4 25.7 15.5 25.75 16.1 26.25" fill="#581818" fill-rule="evenodd" stroke="none"/>
      <path d="M41.1 27.75 L42.55 29.25 Q43.9 31.0 44.15 33.9 L44.2 34.5 Q44.3 37.75 43.0 39.75 L42.7 40.2 Q41.45 41.75 39.5 41.8 38.45 41.85 37.65 41.35 L37.35 41.1 37.75 41.15 38.6 40.9 38.9 40.8 38.95 40.75 39.0 40.75 39.25 40.5 40.35 39.3 41.45 37.25 Q41.9 35.95 41.95 34.5 L41.95 34.1 Q41.95 32.75 41.25 31.1 40.5 29.5 39.4 29.0 L41.1 27.75 M23.4 41.35 L23.2 41.5 Q21.3 42.75 18.8 42.65 16.55 42.55 14.85 41.5 L13.1 40.05 Q12.1 38.95 11.65 37.65 11.05 36.05 11.2 34.15 L11.35 33.05 Q11.85 30.25 13.85 28.05 14.95 26.9 16.05 26.25 L16.1 26.25 16.5 26.55 18.55 28.05 Q16.3 28.65 15.05 30.55 14.0 32.15 13.8 34.05 L13.75 35.1 Q13.75 38.05 15.7 39.95 L15.75 40.0 15.9 40.2 17.1 41.05 18.55 41.65 20.65 41.9 22.5 41.7 23.4 41.35 M26.05 31.9 L26.1 32.1 26.05 31.9 M23.85 31.2 L24.05 31.2 Q24.85 31.35 25.35 32.35 L25.6 33.15 25.7 33.75 25.35 35.2 25.35 35.05 25.15 35.25 24.25 35.8 23.15 35.35 Q22.25 34.65 22.25 33.4 22.25 32.25 22.8 31.7 23.2 31.3 23.85 31.25 L23.85 31.2 M40.2 34.2 L40.15 34.25 39.5 34.95 39.4 34.95 Q38.75 34.95 38.35 34.5 37.85 34.0 37.85 33.15 L37.85 33.0 Q37.85 31.4 38.9 31.25 L39.1 31.2 39.15 31.2 39.1 31.15 Q39.9 31.15 40.2 31.85 L40.45 33.05 40.2 34.15 40.2 34.2" fill="#fcffff" fill-rule="evenodd" stroke="none"/>
      <path d="M37.35 41.1 L37.0 40.75 36.35 39.7 Q35.65 38.2 35.55 36.3 35.5 35.4 35.6 34.4 L35.75 32.95 35.95 31.75 36.2 30.85 39.2 29.1 39.4 29.0 Q40.5 29.5 41.25 31.1 41.95 32.75 41.95 34.1 L41.95 34.5 Q41.9 35.95 41.45 37.25 L40.35 39.3 39.25 40.5 39.0 40.75 38.95 40.75 38.9 40.8 38.6 40.9 37.75 41.15 37.35 41.1 M26.1 32.1 L26.25 32.7 26.25 32.8 26.4 33.55 26.45 34.15 Q26.55 35.65 26.25 37.0 25.8 38.9 24.5 40.35 L23.4 41.35 22.5 41.7 20.65 41.9 18.55 41.65 17.1 41.05 16.45 40.6 15.95 40.15 15.75 40.0 15.7 39.95 Q13.75 38.05 13.75 35.1 L13.8 34.05 Q14.0 32.15 15.05 30.55 16.3 28.65 18.55 28.05 L19.8 28.85 20.5 29.25 21.35 29.8 22.25 30.25 26.05 31.9 26.1 32.1 M23.85 31.2 Q22.6 30.2 20.85 30.3 18.8 30.35 17.5 31.75 16.3 33.05 16.15 34.85 L16.2 35.1 Q16.25 37.1 17.55 38.5 18.85 39.9 20.7 39.9 22.55 39.85 23.85 38.45 L24.9 36.85 25.35 35.2 25.7 33.75 25.6 33.15 25.35 32.35 Q24.85 31.35 24.05 31.2 L23.85 31.2 M40.2 34.2 L40.2 34.15 40.45 33.05 40.2 31.85 Q39.9 31.15 39.1 31.15 38.55 30.55 37.85 30.55 36.9 30.6 36.25 31.8 L36.2 31.9 Q35.95 32.35 35.85 32.9 35.6 33.75 35.6 34.8 35.6 35.55 35.75 36.25 L36.25 37.8 Q37.0 39.05 37.95 39.0 38.9 39.05 39.55 37.8 L40.15 35.65 40.2 35.05 40.2 34.75 40.2 34.25 40.2 34.2" fill="#ad355c" fill-rule="evenodd" stroke="none"/>
      <path d="M43.35 42.5 L44.6 41.95 44.65 43.15 43.6 43.6 43.35 43.65 43.35 43.7 43.2 43.75 41.3 44.15 41.1 44.0 41.3 43.45 41.45 43.25 41.9 43.1 42.8 42.75 43.35 42.5 M43.9 45.1 L44.75 44.8 44.75 45.35 44.7 45.85 44.2 46.05 44.0 46.05 43.85 46.15 43.35 46.25 42.8 46.3 41.3 46.25 41.5 45.7 43.05 45.35 43.4 45.3 43.65 45.2 43.9 45.1 M14.1 43.7 L14.15 43.7 14.95 43.9 15.8 44.15 16.05 44.85 14.65 44.85 14.15 44.75 13.75 44.65 13.1 44.55 11.35 44.25 11.2 43.35 11.8 43.35 13.55 43.6 14.1 43.7 M13.45 46.65 L16.25 46.65 16.4 47.5 16.15 47.55 15.5 47.7 15.1 47.7 13.5 47.8 13.35 47.8 12.1 47.7 11.75 47.5 11.6 46.7 12.3 46.7 13.45 46.65 M26.2 45.05 L26.25 45.0 26.7 44.9 26.95 44.95 27.0 45.1 Q27.0 45.65 27.6 45.85 L28.7 45.95 Q29.6 45.95 30.55 45.3 L31.4 44.6 Q31.55 44.85 32.15 45.15 L32.85 45.35 34.05 45.05 34.35 44.85 34.4 45.0 34.3 45.35 34.05 45.6 34.05 45.7 33.0 45.95 31.7 45.7 31.4 45.3 31.25 45.4 31.05 45.5 30.4 46.0 29.2 46.45 28.55 46.6 27.75 46.65 26.8 46.35 26.7 46.3 Q26.2 45.85 26.15 45.3 L26.2 45.05" fill="#7b4632" fill-rule="evenodd" stroke="none"/>
      <path d="M25.35 35.2 L24.9 36.85 23.85 38.45 Q22.55 39.85 20.7 39.9 18.85 39.9 17.55 38.5 16.25 37.1 16.2 35.1 L16.15 34.85 Q16.3 33.05 17.5 31.75 18.8 30.35 20.85 30.3 22.6 30.2 23.85 31.2 L23.85 31.25 Q23.2 31.3 22.8 31.7 22.25 32.25 22.25 33.4 22.25 34.65 23.15 35.35 L24.25 35.8 25.15 35.25 25.35 35.05 25.35 35.2 M39.1 31.15 L39.15 31.2 39.1 31.2 38.9 31.25 Q37.85 31.4 37.85 33.0 L37.85 33.15 Q37.85 34.0 38.35 34.5 38.75 34.95 39.4 34.95 L39.5 34.95 40.15 34.25 40.2 34.2 40.2 34.25 40.2 34.75 40.2 35.05 40.15 35.65 39.55 37.8 Q38.9 39.05 37.95 39.0 37.0 39.05 36.25 37.8 L35.75 36.25 Q35.6 35.55 35.6 34.8 35.6 33.75 35.85 32.9 35.95 32.35 36.2 31.9 L36.25 31.8 Q36.9 30.6 37.85 30.55 38.55 30.55 39.1 31.15 M32.65 43.05 L32.3 43.35 31.5 43.55 30.65 43.45 30.05 43.2 30.55 43.05 30.6 43.0 31.5 43.0 32.3 42.9 32.45 42.8 32.55 42.85 32.7 42.95 32.65 43.05" fill="#070101" fill-rule="evenodd" stroke="none"/>
      <path d="M11.3 38.95 L12.55 40.7 Q13.4 41.6 14.4 42.2 L13.9 43.05 13.85 43.1 13.55 43.6 11.8 43.35 11.2 43.35 11.35 44.25 13.1 44.55 12.3 46.65 10.1 45.9 11.3 38.95" fill="#e28267" fill-rule="evenodd" stroke="none"/>
      <path d="M40.65 10.55 L42.1 10.65 43.95 10.95 44.75 11.15 46.0 11.5 45.5 12.25 44.85 13.05 44.85 13.15 44.55 13.45 43.75 12.75 43.7 12.7 43.55 12.55 41.6 11.15 41.25 10.9 40.65 10.55" fill="#4b8a6d" fill-rule="evenodd" stroke="none"/>
      <path d="M39.1 12.05 L39.1 12.1 39.0 12.2 38.85 12.3 Q38.25 12.85 37.1 12.8 L35.55 12.45 34.9 12.05 34.3 11.55 33.45 10.6 33.05 10.0 33.05 9.95 33.0 9.95 33.15 9.9 34.3 9.75 Q35.1 9.8 36.65 10.65 L39.05 12.05 39.1 12.05" fill="#fcf7b6" fill-rule="evenodd" stroke="none"/>
      <path d="M11.15 51.05 Q12.25 51.9 12.75 53.2 L13.0 54.95 M35.95 55.7 L37.35 53.8 37.45 53.55 37.65 53.3 38.4 51.95" fill="none" stroke="#c25722" stroke-linecap="round" stroke-linejoin="round" stroke-width="1.0"/>
      <path d="M45.8 40.75 L45.85 39.5 45.85 39.45 Q46.0 35.25 44.75 31.0 44.15 28.9 43.2 26.75 L43.15 26.55 42.85 26.0 42.8 26.05 42.35 26.55 42.0 26.9 41.75 27.15 41.1 27.75 39.4 29.0 39.2 29.1 36.2 30.85 35.5 31.15 34.8 31.45 34.15 31.65 Q31.6 32.55 28.8 32.7 L28.65 32.7 27.1 32.25 27.0 32.25 26.05 31.9 22.25 30.25 21.35 29.8 20.5 29.25 19.8 28.85 18.55 28.05 16.5 26.55 16.1 26.25 15.5 25.75 15.4 25.7 14.25 24.6 13.0 26.55 Q11.85 28.4 10.95 30.6 10.45 31.6 10.1 32.7 L9.8 33.45 9.3 34.85 8.95 36.05 8.25 38.7 M45.1 46.95 L45.6 43.0 45.8 40.95 45.8 40.75" fill="none" stroke="#642331" stroke-linecap="round" stroke-linejoin="round" stroke-width="1.0"/>
      <path d="M34.75 50.25 L34.9 51.05 34.9 51.2 34.9 51.6 34.6 52.95 Q34.2 54.3 33.25 55.7 M20.9 51.15 L20.9 51.0 21.1 50.4 M20.9 51.15 L20.85 51.05 21.0 50.4 M20.95 52.3 L20.9 51.15 M22.75 55.7 Q20.95 53.65 20.95 52.6 L20.95 52.3" fill="none" stroke="#1c690b" stroke-linecap="round" stroke-linejoin="round" stroke-width="1.0"/>
      <path d="M39.2 10.6 L39.25 10.8 39.4 11.05 39.4 11.2 39.4 11.45 39.25 11.8 39.25 11.85 39.15 12.0 39.1 12.05 39.1 12.1 M30.65 15.65 L30.55 16.15 30.15 17.25 29.1 17.7 27.75 18.0 Q26.45 18.0 25.6 17.3 L25.05 16.75 24.9 16.4 24.55 15.7 24.35 14.75 24.3 13.8 24.3 13.65 24.3 13.3 24.3 12.95 24.55 11.55 24.8 10.75 Q25.1 9.8 25.5 9.2 L25.5 9.1 26.0 8.5 26.1 8.35 26.2 8.45 26.7 8.8 27.1 9.05 27.15 9.1 Q28.85 10.3 29.65 11.5 L29.8 11.75 29.85 11.8 30.45 13.0 30.55 13.35 30.65 14.0 30.7 15.0 30.65 15.65 M50.4 26.45 L50.2 26.45 Q49.5 26.45 49.05 26.05 L48.5 25.4 Q48.05 24.65 47.85 23.35 47.65 22.35 47.7 21.0 L47.65 20.5 47.7 20.15 47.75 19.8 47.75 19.55 48.0 17.4 M50.4 26.45 Q51.0 26.4 51.45 25.95 M31.95 7.1 L32.1 7.95 32.5 9.0 32.55 9.05 32.8 9.5 33.0 9.95 M18.95 6.9 L19.0 8.8 18.9 10.0 18.8 10.35 18.8 10.45 18.45 11.45 18.25 11.9 17.15 13.3 17.0 13.4 Q16.25 13.9 15.2 13.9 L13.45 13.55 13.1 13.3 13.05 13.25 Q12.55 12.65 12.6 11.6 L12.6 11.45 Q12.7 10.0 13.65 9.1 L15.4 7.85 M5.95 17.95 L5.4 18.2 Q4.0 19.1 2.95 19.95 L2.55 20.35 1.25 21.75 Q0.2 23.15 -0.1 24.6 L-0.15 25.3 0.0 26.35 0.55 27.15 Q1.2 27.65 2.05 27.7 3.25 27.75 4.2 26.45 L5.3 24.25 Q6.1 21.95 6.2 20.2 L6.2 19.8 6.1 18.8 6.0 18.25 5.95 18.15 5.95 17.95" fill="none" stroke="#d2501e" stroke-linecap="round" stroke-linejoin="round" stroke-width="1.0"/>
      <path d="M33.05 9.95 L33.0 9.95 M34.3 11.55 L33.45 10.6 33.05 10.0 33.05 9.95 M34.3 11.55 L34.9 12.05 35.55 12.45 37.1 12.8 Q38.25 12.85 38.85 12.3 L39.0 12.2 39.1 12.1" fill="none" stroke="#e09256" stroke-linecap="round" stroke-linejoin="round" stroke-width="1.0"/>
      <path d="M11.75 -1.55 L11.85 -1.35 12.0 -1.55 M26.7 4.05 L27.85 2.85 30.0 1.05 M23.45 6.15 L21.6 2.5 21.4 2.1 Q19.95 -0.25 18.5 -1.55 M25.0 6.35 L26.7 4.05 M1.85 16.0 L2.2 16.1" fill="none" stroke="#335b0a" stroke-linecap="round" stroke-linejoin="round" stroke-width="1.0"/>
      <path d="M50.35 38.45 L50.25 38.75 49.85 40.75 49.55 42.3 49.5 42.45 48.05 49.4 47.95 49.85 47.5 49.45 47.5 49.4 46.9 48.8 46.25 48.15 45.25 47.1 45.1 46.95 M36.25 49.95 L36.85 50.2 37.65 50.8 38.35 51.65 38.45 51.85 38.4 51.95 M13.45 55.05 L13.0 55.1 13.0 55.0 13.0 54.95 M3.5 47.65 L2.75 46.25 Q2.15 44.8 1.05 40.5 L0.55 38.55 0.1 37.0 -0.05 36.4 M7.05 46.5 L6.9 46.75 6.9 46.8 6.4 47.3 5.4 48.4 4.75 49.05 4.7 49.0 3.5 47.65 M13.55 48.9 L13.4 48.95 Q12.4 49.0 11.85 49.65 L10.9 50.9 11.15 51.05 M15.35 49.7 Q16.05 50.65 15.85 52.1 15.6 53.7 15.0 54.3 14.5 54.8 13.45 55.05 M15.35 49.7 L15.3 49.65 14.95 49.25" fill="none" stroke="#7b0c0c" stroke-linecap="round" stroke-linejoin="round" stroke-width="1.0"/>
      <path d="M22.5 -1.55 L23.95 0.1 25.8 -1.55 M29.55 -1.55 L29.7 -1.05 29.75 -0.9 30.0 1.05 31.85 0.05 Q34.55 -1.3 38.5 -1.55 M41.75 -1.55 L42.65 -1.55 47.9 -1.25 47.85 -0.2 47.85 1.75 47.7 3.8 Q47.35 5.95 46.4 7.1 L44.9 8.35 44.75 8.45 44.65 8.5 43.05 9.55 43.3 9.55 44.55 9.45 46.1 9.6 Q47.65 9.8 48.55 10.4 48.55 11.05 47.75 12.1 L47.4 12.55 47.0 13.1 45.8 14.3 45.7 14.45 45.65 14.5 M-0.55 41.95 L1.0 44.2 1.05 44.3 2.6 46.75 2.85 47.15 M0.25 11.8 L0.4 11.75 Q1.0 11.35 1.75 11.05 L2.15 10.9 1.45 10.8 1.2 10.75 -0.55 10.25 M-0.55 12.3 L0.2 11.8 0.25 11.8 M1.85 16.0 L0.4 15.35 -0.55 14.85 M55.25 53.9 L53.95 52.2 53.1 52.75 Q51.85 53.75 51.1 55.45 L51.05 55.7 M-0.55 17.65 L-0.45 17.65 1.85 16.0" fill="none" stroke="#193f04" stroke-linecap="round" stroke-linejoin="round" stroke-width="1.0"/>
      <path d="M8.25 38.7 Q7.85 40.3 7.6 41.85 L7.1 45.45 7.05 46.5" fill="none" stroke="#aa2f17" stroke-linecap="round" stroke-linejoin="round" stroke-width="1.0"/>
      <path d="M47.7 3.8 L48.5 3.5 50.05 3.1 53.1 2.65 53.55 4.05 53.65 4.8 53.55 9.75 53.4 11.45 53.3 12.25 53.25 12.6 52.85 14.65 52.0 17.65 51.65 18.6 50.5 20.7 50.45 20.8 50.05 21.35 M45.25 47.1 L45.05 47.2 44.55 47.4 43.9 47.65 43.05 47.95 Q39.75 49.25 36.25 49.95 L34.75 50.25 33.3 50.45 30.75 50.7 27.45 50.85 24.75 50.75 21.1 50.4 21.0 50.4 14.95 49.25 13.7 48.95 13.55 48.9 12.0 48.45 9.85 47.8 6.9 46.8 M38.4 51.95 L39.05 52.4 39.7 52.85 40.85 53.55 41.6 54.15 43.85 55.7 M13.0 55.0 Q12.3 55.25 11.6 55.65 L11.5 55.7 M46.45 28.9 L46.7 29.6 46.75 29.7 46.8 29.9 M46.95 30.35 L46.95 30.45 M11.15 51.05 L10.45 51.45" fill="none" stroke="#4a1b12" stroke-linecap="round" stroke-linejoin="round" stroke-width="1.0"/>
      <path d="M50.05 21.35 L50.25 21.8 50.3 21.95 50.9 23.65 51.4 25.8 51.45 25.95 51.6 26.75 51.8 28.35 51.9 28.85 52.35 33.0 51.8 34.1 Q51.0 35.85 50.35 38.45 M13.2 55.7 L13.45 55.05 M2.85 47.15 L3.05 47.5 3.5 47.65 M-0.05 36.4 L-0.55 35.0 M40.6 10.5 L40.65 10.55 41.25 10.9 41.6 11.15 43.55 12.55 43.7 12.7 43.75 12.75 44.55 13.45 45.65 14.5 45.8 14.65 46.95 16.0 47.05 16.1 47.45 16.55 47.5 16.65 48.0 17.4 48.55 18.2 48.65 18.4 49.3 19.6 49.45 19.95 50.05 21.35 M38.3 9.25 L35.1 7.95 31.95 7.1 25.0 6.35 24.8 6.35 23.85 6.4 23.55 6.4 23.35 6.4 22.45 6.45 18.95 6.9 15.4 7.85 Q13.05 8.65 10.85 9.8 L10.75 9.9 9.6 10.6 Q8.6 11.15 7.65 11.85 7.1 12.2 6.6 12.65 L6.05 13.05 Q4.25 14.5 2.8 16.2 L1.35 18.1 0.85 18.9 0.15 20.05 -0.1 20.45 -0.55 21.4 M38.3 9.25 L38.75 9.5 39.05 9.65 40.6 10.5 M34.6 52.95 L35.45 55.7 M10.45 51.45 L9.8 53.5 9.05 55.7 M9.2 50.4 L10.5 51.15 10.45 51.45 M5.4 48.4 L7.7 49.55 9.2 50.4" fill="none" stroke="#4d1414" stroke-linecap="round" stroke-linejoin="round" stroke-width="1.0"/>
    </g>
    <g id="shape2" transform="matrix(1.0, 0.0, 0.0, 1.0, 0.0, 0.0)">
      <path d="M50.5 0.0 Q53.95 0.0 53.95 3.3 L53.95 50.15 Q53.95 53.4 50.5 53.4 L3.3 53.4 Q0.0 53.4 0.0 50.15 L0.0 3.3 Q0.0 0.0 3.3 0.0 L50.5 0.0" fill="#000000" fill-opacity="0.003921569" fill-rule="evenodd" stroke="none"/>
    </g>
  </defs>
</svg>
