<?xml version="1.0" encoding="UTF-8" standalone="no"?>
<svg xmlns:ffdec="https://www.free-decompiler.com/flash" xmlns:xlink="http://www.w3.org/1999/xlink" ffdec:objectType="frame" height="54.95px" width="55.4px" xmlns="http://www.w3.org/2000/svg">
  <g transform="matrix(1.0, 0.0, 0.0, 1.0, 0.5, 0.95)">
    <clipPath id="clipPath0" transform="matrix(1.0, 0.0, 0.0, 1.0, 0.0, 0.0)">
      <path d="M50.5 0.0 Q53.95 0.0 53.95 3.3 L53.95 50.15 Q53.95 53.4 50.5 53.4 L3.3 53.4 Q0.0 53.4 0.0 50.15 L0.0 3.3 Q0.0 0.0 3.3 0.0 L50.5 0.0" fill="#000000" fill-rule="evenodd" stroke="none"/>
    </clipPath>
    <g clip-path="url(#clipPath0)">
      <use ffdec:characterId="2" height="54.95" transform="matrix(1.0, 0.0, 0.0, 1.0, -0.5, -0.95)" width="55.4" xlink:href="#shape1"/>
    </g>
    <use ffdec:characterId="3" height="53.4" transform="matrix(1.0, 0.0, 0.0, 1.0, 0.0, 0.0)" width="53.95" xlink:href="#shape2"/>
  </g>
  <defs>
    <g id="shape1" transform="matrix(1.0, 0.0, 0.0, 1.0, 0.5, 0.95)">
      <path d="M32.45 27.65 L36.45 31.0 38.55 32.9 39.05 34.05 39.2 34.4 39.65 36.0 39.85 37.7 39.85 37.85 39.85 37.95 39.8 38.55 39.3 38.35 38.1 37.8 36.1 37.1 36.05 37.1 35.25 36.9 34.75 36.8 34.4 36.4 Q33.0 34.9 32.05 32.75 L31.0 29.85 Q31.15 29.25 31.45 28.75 31.8 28.15 32.45 27.65 M35.6 35.05 L35.35 34.75 35.1 34.4 35.6 34.7 35.85 34.85 36.15 35.15 35.9 35.3 35.8 35.3 35.6 35.05 M33.75 31.95 L32.75 30.55 Q33.2 32.55 34.1 34.4 L34.65 35.35 35.5 36.55 35.7 36.65 36.15 36.85 37.75 37.3 38.45 37.5 38.95 37.6 38.75 37.15 38.7 37.1 38.55 36.8 38.45 36.6 38.25 36.2 38.15 36.0 37.65 35.6 36.8 34.9 35.5 33.75 35.1 33.4 33.75 31.95" fill="#ffffff" fill-rule="evenodd" stroke="none"/>
      <path d="M14.2 5.45 L15.45 8.95 15.7 9.9 Q16.35 12.25 16.5 14.05 L14.95 12.7 14.35 12.1 13.75 8.2 13.0 5.0 14.0 4.95 14.2 5.45" fill="#ba050e" fill-rule="evenodd" stroke="none"/>
      <path d="M20.7 19.85 L21.45 21.5 19.2 20.95 18.3 19.2 18.0 18.7 Q16.45 16.2 14.55 14.65 L14.5 14.6 14.35 12.1 12.55 10.2 Q12.15 8.2 11.05 5.9 L10.9 5.6 10.55 4.95 12.35 5.05 13.0 5.0 13.75 8.2 14.35 12.1 14.95 12.7 16.5 14.05 16.5 14.7 16.8 14.95 17.85 15.85 17.95 15.95 18.0 16.0 19.3 17.6 19.5 17.9 19.6 18.05 20.7 19.85" fill="#e00600" fill-rule="evenodd" stroke="none"/>
      <path d="M21.45 21.5 L22.05 23.7 22.15 24.35 22.25 25.35 22.25 25.75 22.2 26.3 20.15 26.9 19.5 25.95 17.55 23.8 17.5 23.7 Q15.8 22.0 14.4 21.3 L13.9 21.05 13.55 20.95 13.9 20.4 14.15 19.95 14.25 19.75 14.4 19.4 14.45 19.45 14.6 19.55 14.95 19.7 16.6 20.25 19.2 20.95 21.45 21.5" fill="#e1272a" fill-rule="evenodd" stroke="none"/>
      <path d="M13.15 2.05 L12.7 2.45 12.6 2.55 13.55 4.15 14.0 4.95 13.0 5.0 12.35 5.05 10.55 4.95 7.2 4.25 5.65 3.75 9.3 3.1 11.35 2.6 13.15 2.05" fill="#cd191c" fill-rule="evenodd" stroke="none"/>
      <path d="M4.15 3.85 L5.65 3.75 7.2 4.25 10.55 4.95 10.9 5.6 11.05 5.9 7.35 7.1 Q5.15 7.85 3.95 8.55 L3.1 8.5 0.5 8.25 Q1.2 6.4 3.45 4.4 L4.15 3.85" fill="#eb5308" fill-rule="evenodd" stroke="none"/>
      <path d="M9.2 13.4 L10.15 12.75 12.7 10.85 12.55 10.2 14.35 12.1 14.5 14.6 14.5 14.65 13.15 15.75 12.55 16.25 12.55 16.35 12.6 16.5 12.5 16.4 12.4 16.35 12.3 16.25 9.2 13.4" fill="#ff850c" fill-rule="evenodd" stroke="none"/>
      <path d="M12.55 10.2 L12.7 10.85 10.15 12.75 9.2 13.4 8.45 13.85 8.25 13.95 8.0 13.55 7.2 12.35 Q5.5 9.8 3.95 8.55 5.15 7.85 7.35 7.1 L11.05 5.9 Q12.15 8.2 12.55 10.2" fill="#fe8117" fill-rule="evenodd" stroke="none"/>
      <path d="M0.0 8.2 L0.0 3.6 1.3 3.8 4.15 3.85 3.45 4.4 Q1.2 6.4 0.5 8.25 L0.0 8.2" fill="#f34f1c" fill-rule="evenodd" stroke="none"/>
      <path d="M3.95 8.55 Q5.5 9.8 7.2 12.35 L8.0 13.55 5.55 12.3 2.95 11.2 2.95 10.5 2.95 10.3 3.05 9.05 3.1 8.5 3.95 8.55" fill="#f96014" fill-rule="evenodd" stroke="none"/>
      <path d="M0.0 10.4 L0.0 8.2 0.5 8.25 3.1 8.5 3.05 9.05 2.95 10.3 2.95 10.5 2.95 11.2 2.35 11.0 1.9 10.85 0.9 10.6 0.0 10.4" fill="#ee340e" fill-rule="evenodd" stroke="none"/>
      <path d="M0.0 21.5 L0.0 19.7 2.0 20.25 6.05 20.8 5.95 20.85 Q4.1 21.5 1.9 21.6 L1.05 21.6 0.4 21.6 0.0 21.5 M0.0 13.2 L0.0 11.05 0.9 10.6 1.9 10.85 2.35 11.0 1.1 12.25 0.15 13.05 0.0 13.2 M15.5 39.25 L17.4 41.6 18.05 42.2 18.6 42.65 18.35 43.05 17.65 44.45 17.6 44.5 17.4 44.4 15.75 43.7 15.7 43.7 15.55 43.6 14.95 43.2 Q14.95 41.85 15.25 40.35 L15.5 39.25" fill="#f0ba00" fill-rule="evenodd" stroke="none"/>
      <path d="M8.0 13.55 L8.25 13.95 9.05 15.3 9.6 15.8 10.9 16.95 11.3 17.25 14.4 19.4 14.25 19.75 14.2 19.75 Q13.15 18.95 10.5 17.8 L10.1 17.65 5.65 15.75 Q3.65 14.75 1.3 12.5 L1.1 12.25 2.35 11.0 2.95 11.2 5.55 12.3 8.0 13.55" fill="#f9731a" fill-rule="evenodd" stroke="none"/>
      <path d="M9.2 13.4 L12.3 16.25 12.4 16.35 12.5 16.4 12.6 16.5 14.4 19.4 11.3 17.25 10.9 16.95 9.6 15.8 9.05 15.3 8.25 13.95 8.45 13.85 9.2 13.4" fill="#ff4c15" fill-rule="evenodd" stroke="none"/>
      <path d="M0.0 19.7 L0.0 13.2 0.15 13.05 1.1 12.25 1.3 12.5 Q3.65 14.75 5.65 15.75 L10.1 17.65 7.0 20.4 6.05 20.8 2.0 20.25 0.0 19.7" fill="#ffa215" fill-rule="evenodd" stroke="none"/>
      <path d="M0.0 22.5 L0.0 21.5 0.4 21.6 1.05 21.6 1.9 21.6 Q4.1 21.5 5.95 20.85 L6.05 20.8 6.55 20.85 6.75 20.85 6.45 20.95 4.65 21.45 1.75 22.2 0.6 22.45 0.0 22.5" fill="#c20201" fill-rule="evenodd" stroke="none"/>
      <path d="M10.1 17.65 L10.5 17.8 Q13.15 18.95 14.2 19.75 L14.25 19.75 14.15 19.95 13.9 20.4 13.55 20.95 13.9 21.05 Q12.35 21.2 11.1 21.6 L10.55 21.8 Q8.3 22.55 6.2 23.75 5.2 24.35 4.55 24.8 L2.65 24.4 1.65 24.1 1.6 23.3 1.7 22.45 1.75 22.2 4.65 21.45 6.45 20.95 6.75 20.85 6.55 20.85 6.05 20.8 7.0 20.4 10.1 17.65" fill="#ff7e19" fill-rule="evenodd" stroke="none"/>
      <path d="M0.0 26.35 L0.0 23.8 0.45 22.8 0.6 22.45 1.75 22.2 1.7 22.45 1.6 23.3 1.65 24.1 2.65 24.4 4.55 24.8 5.85 24.9 6.6 24.9 10.4 24.35 11.5 24.1 11.15 24.55 10.6 25.2 9.95 26.0 9.6 26.3 9.0 26.4 8.05 26.5 6.9 26.6 4.05 26.75 2.85 26.75 0.25 26.4 0.0 26.35" fill="#ff991a" fill-rule="evenodd" stroke="none"/>
      <path d="M0.0 27.15 L0.0 26.35 0.25 26.4 2.85 26.75 4.05 26.75 6.9 26.6 8.05 26.5 9.0 26.4 9.6 26.3 9.5 26.45 8.65 27.3 8.5 27.3 6.4 27.55 4.5 27.65 2.2 27.55 0.0 27.15 M0.0 23.8 L0.0 22.5 0.6 22.45 0.45 22.8 0.0 23.8" fill="#fe1913" fill-rule="evenodd" stroke="none"/>
      <path d="M14.5 14.65 L14.55 14.65 Q16.45 16.2 18.0 18.7 L18.3 19.2 19.2 20.95 16.6 20.25 16.3 19.55 16.15 19.2 14.45 15.7 14.5 14.65" fill="#e62c1f" fill-rule="evenodd" stroke="none"/>
      <path d="M12.6 16.5 L12.55 16.35 12.55 16.25 13.15 15.75 14.5 14.65 14.45 15.7 16.15 19.2 16.3 19.55 16.6 20.25 14.95 19.7 14.6 19.55 14.45 19.45 14.4 19.4 12.6 16.5" fill="#ff6118" fill-rule="evenodd" stroke="none"/>
      <path d="M10.55 21.8 L11.1 21.6 Q12.35 21.2 13.9 21.05 L14.4 21.3 Q15.8 22.0 17.5 23.7 L17.55 23.8 15.0 24.1 13.7 24.25 12.75 24.4 12.15 23.75 10.55 21.8" fill="#fe4b2a" fill-rule="evenodd" stroke="none"/>
      <path d="M4.55 24.8 Q5.2 24.35 6.2 23.75 8.3 22.55 10.55 21.8 L12.15 23.75 12.75 24.4 11.15 24.55 11.5 24.1 10.4 24.35 6.6 24.9 5.85 24.9 4.55 24.8" fill="#ff551a" fill-rule="evenodd" stroke="none"/>
      <path d="M17.55 23.8 L19.5 25.95 Q19.45 27.0 18.7 27.75 L17.95 28.35 17.15 28.7 16.6 28.85 14.55 28.15 13.75 27.85 13.35 27.7 14.7 26.1 Q13.85 25.55 12.75 24.4 L13.7 24.25 15.0 24.1 17.55 23.8" fill="#f83823" fill-rule="evenodd" stroke="none"/>
      <path d="M11.15 24.55 L12.75 24.4 Q13.85 25.55 14.7 26.1 L13.35 27.7 Q11.15 26.8 9.95 26.0 L10.6 25.2 11.15 24.55" fill="#fe4f0c" fill-rule="evenodd" stroke="none"/>
      <path d="M19.5 25.95 L20.15 26.9 22.2 26.3 22.2 26.35 22.0 27.8 21.95 27.9 21.9 28.2 21.8 28.65 21.5 28.45 21.3 28.3 20.95 28.05 19.8 27.65 18.95 27.9 Q18.6 28.15 18.6 28.6 L18.85 29.6 18.6 29.3 17.95 28.35 18.7 27.75 Q19.45 27.0 19.5 25.95" fill="#ee2d32" fill-rule="evenodd" stroke="none"/>
      <path d="M23.95 37.9 Q23.75 41.0 24.15 43.45 L24.2 43.85 22.3 43.15 21.4 42.75 21.35 42.7 21.3 42.55 20.85 40.65 20.65 40.0 20.0 38.2 20.25 37.2 20.35 36.85 21.3 37.2 23.95 37.9 M16.6 28.85 L17.15 28.7 17.95 28.35 18.6 29.3 18.85 29.6 Q19.2 30.6 20.35 32.05 L20.3 32.15 19.6 33.7 18.75 32.95 18.1 32.4 18.0 32.35 17.5 31.3 17.4 30.85 Q16.9 30.9 16.6 31.25 L16.3 31.65 Q16.0 32.2 15.95 32.85 L15.95 33.1 16.15 34.05 Q13.2 33.95 13.2 31.55 L13.4 30.45 13.55 30.15 Q13.9 29.5 14.65 29.1 L14.85 29.0 16.6 28.85" fill="#d91428" fill-rule="evenodd" stroke="none"/>
      <path d="M13.35 27.7 L13.75 27.85 14.55 28.15 16.6 28.85 14.85 29.0 14.65 29.1 Q13.9 29.5 13.55 30.15 L13.4 30.45 11.8 30.85 12.45 30.45 11.25 30.75 11.05 30.8 10.8 30.5 9.95 29.45 8.5 27.3 8.65 27.3 9.5 26.45 9.6 26.3 9.95 26.0 Q11.15 26.8 13.35 27.7" fill="#fa7d11" fill-rule="evenodd" stroke="none"/>
      <path d="M3.65 35.0 L3.5 34.7 3.35 34.45 3.1 34.45 0.0 34.15 0.0 30.25 0.6 30.2 Q1.7 30.2 2.5 31.1 L3.0 32.0 3.6 32.05 3.9 32.05 8.85 31.3 10.1 31.05 11.05 30.8 11.25 30.75 12.45 30.45 11.8 30.85 11.35 31.15 10.25 31.8 8.75 32.65 8.65 32.7 Q6.15 34.05 3.65 35.0" fill="#d20b22" fill-rule="evenodd" stroke="none"/>
      <path d="M8.5 27.3 L9.95 29.45 10.8 30.5 11.05 30.8 10.1 31.05 8.85 31.3 3.9 32.05 3.6 32.05 4.85 30.4 5.1 30.0 6.4 27.55 8.5 27.3" fill="#fa770f" fill-rule="evenodd" stroke="none"/>
      <path d="M13.4 30.45 L13.2 31.55 Q13.2 33.95 16.15 34.05 L15.95 33.1 15.95 32.85 17.5 35.35 16.5 36.25 14.7 38.05 14.15 37.1 13.4 35.75 12.3 33.4 12.1 33.0 11.35 31.15 11.8 30.85 13.4 30.45" fill="#ff691a" fill-rule="evenodd" stroke="none"/>
      <path d="M11.25 37.75 L10.65 34.65 10.65 34.4 10.25 31.8 11.35 31.15 12.1 33.0 12.3 33.4 13.4 35.75 11.25 37.75" fill="#fe581a" fill-rule="evenodd" stroke="none"/>
      <path d="M11.25 37.75 L13.4 35.75 14.15 37.1 14.7 38.05 15.5 39.25 15.25 40.35 Q14.95 41.85 14.95 43.2 L12.15 40.85 11.9 40.0 11.9 39.9 11.25 37.75" fill="#fa9112" fill-rule="evenodd" stroke="none"/>
      <path d="M10.25 31.8 L10.65 34.4 10.65 34.65 11.25 37.75 11.9 39.9 11.15 40.7 10.1 38.65 Q9.45 37.2 9.15 35.8 L9.0 35.3 8.75 32.7 8.75 32.65 10.25 31.8" fill="#e83121" fill-rule="evenodd" stroke="none"/>
      <path d="M15.95 32.85 Q16.0 32.2 16.3 31.65 L16.6 31.25 Q16.9 30.9 17.4 30.85 L17.5 31.3 18.0 32.35 18.1 32.4 18.75 32.95 19.6 33.7 20.8 34.8 20.4 36.55 20.35 36.85 20.25 37.2 20.0 38.2 20.65 40.0 19.65 38.6 18.6 37.1 17.5 35.35 15.95 32.85" fill="#fd411c" fill-rule="evenodd" stroke="none"/>
      <path d="M14.7 38.05 L16.5 36.25 17.5 35.35 18.6 37.1 19.65 38.6 19.65 40.25 19.75 42.25 18.8 42.15 18.65 42.15 18.05 42.2 17.4 41.6 15.5 39.25 14.7 38.05" fill="#f96012" fill-rule="evenodd" stroke="none"/>
      <path d="M0.0 30.25 L0.0 29.1 2.2 27.55 4.5 27.65 6.4 27.55 5.1 30.0 4.85 30.4 3.6 32.05 3.0 32.0 2.5 31.1 Q1.7 30.2 0.6 30.2 L0.0 30.25" fill="#f63a15" fill-rule="evenodd" stroke="none"/>
      <path d="M2.25 38.3 L1.85 37.95 3.1 37.2 Q3.75 36.45 3.75 35.5 L3.65 35.0 Q6.15 34.05 8.65 32.7 L8.75 32.65 8.75 32.7 9.0 35.3 6.85 36.4 Q3.95 37.9 2.25 38.3" fill="#df161e" fill-rule="evenodd" stroke="none"/>
      <path d="M9.15 35.8 Q9.45 37.2 10.1 38.65 L11.15 40.7 Q12.15 42.4 13.4 43.6 L14.35 44.45 14.45 44.5 13.35 45.65 12.45 44.95 11.7 44.25 Q9.0 41.9 7.75 39.8 L9.1 35.95 9.15 35.8" fill="#e5371c" fill-rule="evenodd" stroke="none"/>
      <path d="M6.65 41.4 L6.45 41.05 6.35 40.8 Q4.8 40.3 3.1 39.0 L2.25 38.3 Q3.95 37.9 6.85 36.4 L9.0 35.3 9.15 35.8 9.1 35.95 7.75 39.8 7.55 40.1 6.65 41.4" fill="#d71c23" fill-rule="evenodd" stroke="none"/>
      <path d="M13.1 49.0 L13.1 48.95 Q10.9 47.5 8.85 44.7 L6.65 41.4 7.55 40.1 7.75 39.8 Q9.0 41.9 11.7 44.25 L12.45 44.95 13.35 45.65 15.85 47.4 16.55 49.35 16.9 50.75 17.1 51.8 16.8 51.8 16.15 51.75 15.9 51.4 15.4 50.85 Q14.3 49.55 13.1 49.0" fill="#cf141d" fill-rule="evenodd" stroke="none"/>
      <path d="M18.05 42.2 L18.65 42.15 18.8 42.15 19.75 42.25 19.65 40.25 19.65 38.6 20.65 40.0 20.85 40.65 21.3 42.55 21.35 42.7 21.4 42.75 21.35 42.9 21.5 44.7 21.55 44.75 20.9 44.55 19.5 43.85 18.35 43.05 18.6 42.65 18.05 42.2" fill="#ff7721" fill-rule="evenodd" stroke="none"/>
      <path d="M11.15 40.7 L11.9 39.9 11.9 40.0 12.15 40.85 14.95 43.2 15.55 43.6 15.7 43.7 15.6 44.3 15.55 45.4 14.45 44.5 14.35 44.45 13.4 43.6 Q12.15 42.4 11.15 40.7" fill="#dd2d15" fill-rule="evenodd" stroke="none"/>
      <path d="M13.35 45.65 L14.45 44.5 15.55 45.4 Q16.35 46.0 17.1 46.35 L18.3 46.8 Q18.45 45.55 18.7 45.0 L20.15 45.85 20.6 46.05 21.1 46.25 23.75 46.75 22.4 47.35 21.85 47.55 Q19.85 48.35 19.05 48.35 L17.95 48.2 17.25 47.95 17.05 47.85 15.85 47.4 13.35 45.65" fill="#ee4619" fill-rule="evenodd" stroke="none"/>
      <path d="M15.7 43.7 L15.75 43.7 17.4 44.4 17.6 44.5 17.65 44.45 18.35 43.05 Q18.35 43.75 18.65 44.25 L19.0 44.6 Q18.85 44.65 18.8 44.85 L18.7 45.0 Q18.45 45.55 18.3 46.8 L17.1 46.35 Q16.35 46.0 15.55 45.4 L15.6 44.3 15.7 43.7" fill="#e42924" fill-rule="evenodd" stroke="none"/>
      <path d="M18.35 43.05 L19.5 43.85 20.9 44.55 21.0 45.45 21.1 46.25 20.6 46.05 20.15 45.85 18.7 45.0 18.8 44.85 Q18.85 44.65 19.0 44.6 L18.65 44.25 Q18.35 43.75 18.35 43.05" fill="#c90f1a" fill-rule="evenodd" stroke="none"/>
      <path d="M26.45 48.95 L26.65 49.2 27.4 49.8 26.75 50.7 25.9 51.3 25.15 51.5 24.05 51.65 23.5 50.55 23.05 50.15 22.0 49.85 21.1 50.0 20.7 50.15 19.85 51.15 18.45 51.65 17.1 51.8 16.9 50.75 16.55 49.35 15.85 47.4 17.05 47.85 17.25 47.95 17.95 48.2 18.1 48.75 18.55 49.85 Q19.5 49.15 21.95 49.15 L22.75 49.2 23.5 49.25 23.7 49.75 23.85 49.95 Q24.2 50.3 24.55 50.3 L24.7 50.3 Q25.65 50.2 26.2 49.3 L26.45 48.95" fill="#db131d" fill-rule="evenodd" stroke="none"/>
      <path d="M25.15 46.85 L26.45 48.95 26.2 49.3 Q25.65 50.2 24.7 50.3 L24.55 50.3 Q24.2 50.3 23.85 49.95 L23.7 49.75 23.5 49.25 22.75 49.2 21.95 49.15 Q19.5 49.15 18.55 49.85 L18.1 48.75 17.95 48.2 19.05 48.35 Q19.85 48.35 21.85 47.55 L22.4 47.35 23.75 46.75 25.15 46.85" fill="#eb3f1b" fill-rule="evenodd" stroke="none"/>
      <path d="M25.5 35.95 L24.7 36.75 24.0 37.6 23.95 37.9 21.3 37.2 20.35 36.85 20.4 36.55 20.8 34.8 19.6 33.7 20.3 32.15 20.35 32.05 21.3 33.15 21.7 33.55 21.95 33.8 23.65 35.1 24.2 35.4 24.4 35.5 24.55 35.55 25.1 35.8 25.5 35.95" fill="#e31e27" fill-rule="evenodd" stroke="none"/>
      <path d="M24.2 43.85 L24.6 45.25 24.3 45.25 21.55 44.75 21.5 44.7 21.35 42.9 21.4 42.75 22.3 43.15 24.2 43.85" fill="#f96819" fill-rule="evenodd" stroke="none"/>
      <path d="M24.6 45.25 L24.9 46.15 25.15 46.85 23.75 46.75 21.1 46.25 21.0 45.45 20.9 44.55 21.55 44.75 24.3 45.25 24.6 45.25" fill="#d42a2d" fill-rule="evenodd" stroke="none"/>
      <path d="M30.7 52.0 L31.1 52.25 29.45 52.5 26.6 52.85 26.5 52.85 24.95 52.65 24.85 53.05 24.2 52.45 24.05 52.2 23.6 51.65 23.95 51.65 24.05 51.65 25.15 51.5 26.45 51.95 26.5 51.95 29.2 52.15 30.7 52.0" fill="#c1011a" fill-rule="evenodd" stroke="none"/>
      <path d="M31.1 52.25 L31.45 52.4 30.0 52.85 27.7 53.35 26.55 53.3 25.75 53.2 25.35 53.15 25.4 53.5 24.8 53.5 24.85 53.05 24.95 52.65 26.5 52.85 26.6 52.85 29.45 52.5 31.1 52.25 M14.1 53.5 L13.5 53.5 13.6 52.15 13.6 51.75 13.55 51.2 13.7 51.7 13.85 52.2 14.0 53.05 14.1 53.5" fill="#f8f400" fill-rule="evenodd" stroke="none"/>
      <path d="M27.4 49.8 L29.05 50.95 30.7 52.0 29.2 52.15 26.5 51.95 26.45 51.95 25.15 51.5 25.9 51.3 26.75 50.7 27.4 49.8" fill="#d61740" fill-rule="evenodd" stroke="none"/>
      <path d="M24.8 53.5 L21.25 53.5 21.2 53.05 21.0 50.8 21.1 50.0 22.0 49.85 23.05 50.15 23.5 50.55 24.05 51.65 23.95 51.65 23.6 51.65 24.05 52.2 24.2 52.45 24.85 53.05 24.8 53.5" fill="#da0029" fill-rule="evenodd" stroke="none"/>
      <path d="M21.25 53.5 L18.95 53.5 18.45 51.65 19.85 51.15 20.7 50.15 21.1 50.0 21.0 50.8 21.2 53.05 21.25 53.5" fill="#bc0217" fill-rule="evenodd" stroke="none"/>
      <path d="M17.1 53.5 L14.1 53.5 14.0 53.05 13.85 52.2 13.7 51.7 13.55 51.2 13.3 49.9 13.1 49.0 Q14.3 49.55 15.4 50.85 L15.9 51.4 16.15 51.75 17.1 53.5" fill="#a10000" fill-rule="evenodd" stroke="none"/>
      <path d="M18.95 53.5 L17.1 53.5 16.15 51.75 16.8 51.8 17.1 51.8 18.45 51.65 18.95 53.5" fill="#ac0005" fill-rule="evenodd" stroke="none"/>
      <path d="M0.0 11.05 L0.0 10.4 0.9 10.6 0.0 11.05" fill="#f84c02" fill-rule="evenodd" stroke="none"/>
      <path d="M0.0 29.1 L0.0 27.15 2.2 27.55 0.0 29.1" fill="#f52908" fill-rule="evenodd" stroke="none"/>
      <path d="M53.35 2.1 L53.4 2.05 54.4 0.9 54.4 2.6 54.0 2.8 53.55 3.0 53.4 2.4 53.4 2.35 53.35 2.1" fill="#ff471a" fill-rule="evenodd" stroke="none"/>
      <path d="M54.4 2.6 L54.4 3.1 54.0 2.8 54.4 2.6" fill="#ff441e" fill-rule="evenodd" stroke="none"/>
      <path d="M54.4 9.2 L54.4 11.25 53.05 10.95 52.5 10.8 53.55 9.9 54.4 9.2" fill="#ff5816" fill-rule="evenodd" stroke="none"/>
      <path d="M54.4 11.25 L54.4 12.05 54.25 11.9 53.05 10.95 54.4 11.25 M54.4 14.4 L54.4 18.75 53.65 19.1 52.7 19.55 52.4 19.7 Q50.4 20.5 48.85 20.5 L47.35 20.1 47.3 20.1 46.8 19.95 46.0 19.65 47.1 19.25 47.65 19.0 47.75 18.95 48.8 18.55 52.3 16.5 54.4 14.4" fill="#ff8600" fill-rule="evenodd" stroke="none"/>
      <path d="M54.4 3.55 L54.4 9.2 53.55 9.9 52.5 10.8 52.3 10.7 51.8 10.5 50.4 9.9 50.05 9.8 49.8 9.9 49.85 9.65 50.65 7.6 50.5 7.5 49.75 7.05 49.5 6.7 50.35 6.2 54.4 3.55" fill="#ff6412" fill-rule="evenodd" stroke="none"/>
      <path d="M38.65 8.25 L40.05 6.7 40.7 6.6 45.3 5.2 47.35 4.5 48.75 3.95 53.1 2.2 53.35 2.1 53.4 2.35 53.4 2.4 53.55 3.0 48.85 5.0 45.95 6.05 45.2 6.35 40.3 7.9 38.65 8.25" fill="#d52319" fill-rule="evenodd" stroke="none"/>
      <path d="M54.4 3.1 L54.4 3.55 50.35 6.2 49.5 6.7 Q49.05 6.05 48.85 5.15 L48.85 5.0 53.55 3.0 54.0 2.8 54.4 3.1" fill="#f74c16" fill-rule="evenodd" stroke="none"/>
      <path d="M54.4 12.05 L54.4 14.4 52.3 16.5 48.8 18.55 Q52.35 15.8 53.4 13.05 L52.7 12.05 51.8 10.5 52.3 10.7 52.5 10.8 53.05 10.95 54.25 11.9 54.4 12.05" fill="#f9b60e" fill-rule="evenodd" stroke="none"/>
      <path d="M51.8 10.5 L52.7 12.05 53.4 13.05 Q52.35 15.8 48.8 18.55 L47.75 18.95 47.25 18.2 Q46.8 17.25 46.45 15.65 46.05 14.05 46.05 12.8 L46.2 11.8 48.05 10.85 49.8 9.9 50.05 9.8 50.4 9.9 51.8 10.5" fill="#f9940e" fill-rule="evenodd" stroke="none"/>
      <path d="M48.85 5.0 L48.85 5.15 Q49.05 6.05 49.5 6.7 L44.75 9.4 45.2 6.35 45.95 6.05 48.85 5.0" fill="#ec4a0a" fill-rule="evenodd" stroke="none"/>
      <path d="M43.95 12.75 L44.4 10.85 44.75 9.4 49.5 6.7 49.75 7.05 50.5 7.5 50.65 7.6 49.85 9.65 49.8 9.9 48.05 10.85 46.2 11.8 43.95 12.75" fill="#f46c18" fill-rule="evenodd" stroke="none"/>
      <path d="M44.75 9.4 L44.4 10.85 43.95 12.75 Q43.15 15.65 42.0 17.95 L42.65 20.05 42.85 20.55 42.85 20.65 43.35 21.8 43.55 22.2 43.65 22.4 43.5 22.4 41.75 21.8 41.6 21.65 41.35 21.0 Q40.25 17.2 40.0 13.75 L39.95 11.8 39.95 11.6 Q40.0 9.4 40.3 7.9 L45.2 6.35 44.75 9.4" fill="#f05920" fill-rule="evenodd" stroke="none"/>
      <path d="M43.95 12.75 L46.2 11.8 46.05 12.8 Q46.05 14.05 46.45 15.65 46.8 17.25 47.25 18.2 L47.75 18.95 47.65 19.0 47.1 19.25 46.0 19.65 45.5 19.45 44.9 19.05 Q44.25 19.25 43.5 19.6 43.0 19.85 42.65 20.05 L42.0 17.95 Q43.15 15.65 43.95 12.75" fill="#fc9512" fill-rule="evenodd" stroke="none"/>
      <path d="M42.85 20.65 L42.85 20.55 42.65 20.05 Q43.0 19.85 43.5 19.6 44.25 19.25 44.9 19.05 L45.5 19.45 46.0 19.65 42.85 20.65" fill="#f56b12" fill-rule="evenodd" stroke="none"/>
      <path d="M43.65 22.4 L43.55 22.2 43.35 21.8 42.85 20.65 46.0 19.65 46.8 19.95 47.3 20.1 47.05 21.7 47.0 21.85 46.95 22.45 45.15 23.15 Q44.75 23.4 44.5 23.8 L43.65 22.4" fill="#fc540b" fill-rule="evenodd" stroke="none"/>
      <path d="M44.5 23.8 Q44.75 23.4 45.15 23.15 L46.95 22.45 47.0 21.85 48.05 22.1 49.55 22.35 49.95 22.35 49.7 23.7 Q49.3 25.1 48.25 26.5 L46.7 28.15 45.65 28.45 45.3 27.55 Q44.75 26.0 44.7 24.1 L44.5 23.8" fill="#f66103" fill-rule="evenodd" stroke="none"/>
      <path d="M37.45 10.15 L38.65 8.25 40.3 7.9 Q40.0 9.4 39.95 11.6 L39.95 11.8 40.0 13.75 Q40.25 17.2 41.35 21.0 L41.6 21.65 40.4 20.15 39.9 19.35 38.75 17.3 Q37.4 14.4 37.4 11.2 L37.45 10.15 M47.25 30.9 L46.15 31.55 44.95 32.25 44.95 32.1 44.95 31.35 44.7 28.35 Q44.25 25.85 43.1 23.5 L42.7 22.85 41.75 21.8 43.5 22.4 43.65 22.4 44.5 23.8 44.7 24.1 Q44.75 26.0 45.3 27.55 L45.65 28.45 46.7 28.15 47.6 27.8 47.25 30.9" fill="#fc3d09" fill-rule="evenodd" stroke="none"/>
      <path d="M54.4 18.75 L54.4 20.8 54.25 20.85 53.6 21.2 Q51.6 22.25 49.95 22.35 L49.55 22.35 48.05 22.1 47.0 21.85 47.05 21.7 47.3 20.1 47.35 20.1 48.85 20.5 Q50.4 20.5 52.4 19.7 L52.7 19.55 53.65 19.1 54.4 18.75" fill="#f74b03" fill-rule="evenodd" stroke="none"/>
      <path d="M54.4 23.15 L54.4 23.7 52.4 25.2 52.35 25.2 51.05 24.75 49.7 23.7 49.95 22.35 Q51.6 22.25 53.6 21.2 53.75 22.25 54.25 22.95 L54.4 23.15" fill="#ee320d" fill-rule="evenodd" stroke="none"/>
      <path d="M54.4 20.8 L54.4 23.15 54.25 22.95 Q53.75 22.25 53.6 21.2 L54.25 20.85 54.4 20.8" fill="#f50f12" fill-rule="evenodd" stroke="none"/>
      <path d="M54.4 23.7 L54.4 25.55 52.55 27.25 47.25 30.9 47.6 27.8 49.75 26.8 52.4 25.2 54.4 23.7" fill="#ec3410" fill-rule="evenodd" stroke="none"/>
      <path d="M46.7 28.15 L48.25 26.5 Q49.3 25.1 49.7 23.7 L51.05 24.75 52.35 25.2 52.4 25.2 49.75 26.8 47.6 27.8 46.7 28.15" fill="#f14217" fill-rule="evenodd" stroke="none"/>
      <path d="M20.2 -0.45 L22.3 -0.45 22.35 -0.25 22.3 -0.1 21.4 1.55 20.2 -0.45" fill="#e65600" fill-rule="evenodd" stroke="none"/>
      <path d="M22.3 -0.45 L22.45 -0.45 22.35 -0.25 22.3 -0.45" fill="#e82c07" fill-rule="evenodd" stroke="none"/>
      <path d="M15.95 0.75 L15.65 -0.45 16.6 -0.45 15.95 0.75" fill="#b00007" fill-rule="evenodd" stroke="none"/>
      <path d="M13.55 4.15 L14.6 2.85 15.5 1.6 15.75 1.2 15.95 0.75 16.6 -0.45 17.85 -0.45 17.9 -0.15 17.05 1.6 16.95 1.8 16.4 2.55 15.95 3.25 15.85 3.35 15.3 4.1 15.05 4.45 14.7 4.85 14.2 5.45 14.0 4.95 13.55 4.15" fill="#d51314" fill-rule="evenodd" stroke="none"/>
      <path d="M17.85 -0.45 L19.15 -0.45 19.35 0.15 19.3 0.25 Q18.9 1.3 18.65 2.45 L18.2 0.95 17.9 -0.15 17.85 -0.45" fill="#ea4b07" fill-rule="evenodd" stroke="none"/>
      <path d="M19.15 -0.45 L20.2 -0.45 21.4 1.55 21.65 1.9 22.7 3.45 22.5 5.15 22.5 5.7 22.5 5.95 22.55 6.75 22.0 6.05 21.7 5.6 20.95 4.15 20.65 3.5 19.35 0.15 19.15 -0.45" fill="#f5600e" fill-rule="evenodd" stroke="none"/>
      <path d="M28.65 -0.45 L29.95 -0.45 29.35 1.35 28.95 0.35 28.65 -0.45" fill="#f55c10" fill-rule="evenodd" stroke="none"/>
      <path d="M23.45 -0.45 L25.15 -0.45 25.1 0.3 25.05 1.4 25.05 2.05 23.45 -0.45" fill="#fe6f09" fill-rule="evenodd" stroke="none"/>
      <path d="M22.35 -0.25 L22.4 -0.15 22.65 0.4 Q23.95 3.2 25.5 5.55 L25.6 7.0 25.6 7.25 25.65 7.55 25.35 7.25 25.05 6.85 25.0 6.8 22.7 3.45 21.65 1.9 21.4 1.55 22.3 -0.1 22.35 -0.25" fill="#f57603" fill-rule="evenodd" stroke="none"/>
      <path d="M22.45 -0.45 L23.45 -0.45 25.05 2.05 25.15 2.25 25.15 2.35 25.5 5.55 Q23.95 3.2 22.65 0.4 L22.4 -0.15 22.35 -0.25 22.45 -0.45" fill="#f05d00" fill-rule="evenodd" stroke="none"/>
      <path d="M26.6 -0.45 L28.65 -0.45 28.95 0.35 29.35 1.35 30.1 3.1 27.7 0.8 26.6 -0.45" fill="#e83807" fill-rule="evenodd" stroke="none"/>
      <path d="M31.65 -0.45 L34.2 -0.45 34.6 0.1 33.7 0.8 33.2 1.25 32.55 1.9 31.85 0.3 31.65 -0.3 31.65 -0.45" fill="#ec4904" fill-rule="evenodd" stroke="none"/>
      <path d="M31.6 -0.45 L31.65 -0.45 31.65 -0.3 31.6 -0.45" fill="#cd1a04" fill-rule="evenodd" stroke="none"/>
      <path d="M29.95 -0.45 L31.6 -0.45 31.65 -0.3 31.85 0.3 32.55 1.9 33.3 3.45 33.25 5.65 31.95 6.8 30.55 4.1 30.5 3.95 30.15 3.15 30.1 3.1 29.35 1.35 29.95 -0.45" fill="#ef7f00" fill-rule="evenodd" stroke="none"/>
      <path d="M34.85 0.4 L35.05 0.7 35.55 -0.4 35.6 -0.45 37.6 -0.45 37.55 -0.4 Q36.45 1.0 36.45 3.65 L36.45 3.85 36.5 4.1 36.45 4.45 36.4 4.85 36.35 4.9 Q35.9 5.8 35.7 7.05 L35.65 7.3 35.6 8.9 35.65 10.0 35.7 10.35 35.7 10.6 36.2 12.9 37.9 17.85 38.4 19.1 38.9 20.4 40.55 23.95 42.45 28.0 42.55 28.65 42.65 29.3 42.9 31.5 42.9 31.6 42.95 32.5 42.95 33.3 42.95 33.7 43.25 34.2 Q44.2 33.65 44.9 32.45 44.8 34.5 44.35 36.15 L44.25 36.05 Q43.55 35.6 42.9 35.45 L42.0 35.3 40.9 36.65 40.55 37.25 40.5 37.35 40.4 37.55 40.2 38.1 39.95 37.95 40.0 36.6 40.0 36.0 40.05 36.0 40.5 35.8 40.8 35.5 40.65 33.1 40.6 32.7 40.0 29.4 40.0 29.35 39.75 28.35 39.55 27.3 38.75 24.4 38.35 23.7 36.55 20.15 36.1 19.05 36.0 18.75 35.15 16.25 Q34.4 13.55 34.2 10.75 L34.15 10.3 34.15 10.05 34.15 9.85 34.15 9.55 34.1 8.8 34.2 6.15 34.25 5.1 34.25 4.95 Q34.4 2.95 34.7 1.25 L34.85 0.4 M39.95 -0.45 L40.9 -0.45 40.45 2.75 40.0 4.25 40.15 2.2 40.05 0.2 39.95 -0.45" fill="#fefeff" fill-rule="evenodd" stroke="none"/>
      <path d="M41.6 21.65 L41.75 21.8 42.7 22.85 43.1 23.5 40.7 23.95 40.55 23.95 38.9 20.4 38.4 19.1 37.9 17.85 38.75 17.3 39.9 19.35 40.4 20.15 41.6 21.65" fill="#fedb0d" fill-rule="evenodd" stroke="none"/>
      <path d="M43.1 23.5 Q44.25 25.85 44.7 28.35 L42.55 28.65 42.45 28.0 40.55 23.95 40.7 23.95 43.1 23.5 M37.35 23.55 L38.8 26.1 39.5 28.85 39.55 28.95 39.65 29.5 38.85 29.75 38.05 30.1 Q37.5 30.35 37.1 30.6 L36.8 30.25 31.85 26.7 31.7 26.55 32.1 25.5 32.5 24.6 Q33.6 22.1 34.45 20.8 L34.5 20.9 35.5 22.05 36.6 23.4 37.15 23.5 37.35 23.55 M30.65 29.8 L30.9 30.7 31.7 33.7 32.95 35.7 33.2 36.0 31.4 34.2 30.55 33.2 30.65 30.3 30.65 29.8" fill="#fffe13" fill-rule="evenodd" stroke="none"/>
      <path d="M44.95 32.25 L44.9 32.45 Q44.2 33.65 43.25 34.2 L42.95 33.7 42.95 33.3 42.95 32.5 42.9 31.6 42.9 31.5 42.65 29.3 42.55 28.65 44.7 28.35 44.95 31.35 44.95 32.1 44.95 32.25 M44.35 36.15 L44.3 36.25 Q43.15 36.35 41.3 37.45 L40.75 37.85 39.9 38.45 39.95 37.95 40.2 38.1 40.4 37.55 40.5 37.35 40.55 37.25 40.9 36.65 42.0 35.3 42.9 35.45 Q43.55 35.6 44.25 36.05 L44.35 36.15 M40.5 35.8 L40.05 36.0 40.0 36.0 39.65 34.0 39.65 33.85 38.25 32.05 37.1 30.6 Q37.5 30.35 38.05 30.1 L38.85 29.75 39.65 29.5 40.3 33.2 40.5 35.8 M25.8 26.75 L26.05 26.9 26.8 27.55 27.4 28.25 28.0 29.05 28.1 29.25 28.3 29.6 28.65 30.2 29.0 30.95 29.05 31.05 29.4 31.6 30.55 33.2 31.4 34.2 33.2 36.0 34.7 37.5 35.0 37.5 37.75 38.0 39.6 38.75 Q39.1 39.2 39.05 39.6 L37.5 40.25 35.2 40.65 33.55 39.4 32.5 38.7 30.55 35.9 29.8 34.75 29.55 34.35 28.6 32.85 27.9 31.6 27.7 31.25 27.3 30.5 27.15 30.2 26.95 29.65 26.95 29.55 26.7 29.25 26.35 28.9 26.25 28.85 26.2 28.85 26.2 28.8 25.45 28.55 25.05 28.65 24.9 28.7 24.6 28.95 24.4 29.5 Q24.4 30.1 24.9 30.95 L24.95 31.1 25.1 31.4 25.4 31.8 25.1 31.55 24.8 31.2 24.15 30.35 Q23.4 29.2 23.4 28.0 L23.45 27.65 Q23.5 27.2 23.8 26.9 L24.05 26.75 24.8 26.45 24.9 26.45 Q25.35 26.45 25.8 26.75" fill="#fffd0f" fill-rule="evenodd" stroke="none"/>
      <path d="M38.35 23.7 L38.75 24.4 39.55 27.3 39.75 28.35 40.0 29.35 40.0 29.4 40.6 32.7 40.65 33.1 40.8 35.5 40.5 35.8 40.3 33.2 39.65 29.5 39.55 28.95 39.5 28.85 38.8 26.1 37.35 23.55 38.35 23.7" fill="#ffd513" fill-rule="evenodd" stroke="none"/>
      <path d="M44.3 36.25 L44.3 36.35 44.0 37.3 43.65 37.25 Q43.3 37.25 42.3 37.7 L41.7 38.0 41.15 38.95 40.8 39.3 40.0 40.05 38.5 41.25 38.05 41.55 Q36.95 42.1 35.8 42.1 L34.65 41.9 34.25 41.8 33.9 41.3 33.3 40.45 33.35 40.45 34.95 40.65 35.2 40.65 37.5 40.25 39.05 39.6 Q39.1 39.2 39.6 38.75 L39.85 38.9 39.9 38.45 40.75 37.85 41.3 37.45 Q43.15 36.35 44.3 36.25" fill="#ffbb28" fill-rule="evenodd" stroke="none"/>
      <path d="M44.3 38.1 L44.3 38.15 45.35 41.15 45.55 41.75 46.65 45.8 44.3 45.2 43.4 44.85 42.75 44.5 40.4 42.7 40.35 42.55 40.05 41.2 40.95 40.7 Q40.95 40.15 41.35 39.55 L41.85 39.05 Q42.45 38.4 43.15 38.2 43.0 38.35 43.0 38.65 43.0 39.4 43.55 39.4 44.0 39.4 44.0 38.85 44.0 38.5 43.7 38.3 43.55 38.15 43.45 38.15 L43.95 38.05 44.3 38.1 M44.3 39.8 L44.05 39.7 43.7 39.95 43.55 40.15 43.55 40.3 43.65 40.7 44.35 42.2 44.45 42.35 45.55 44.05 45.05 42.4 45.05 42.3 44.85 41.65 44.6 40.8 Q44.75 40.35 44.55 40.0 L44.3 39.8" fill="#fff70a" fill-rule="evenodd" stroke="none"/>
      <path d="M44.0 37.3 L43.95 37.4 44.2 37.9 44.3 38.1 43.95 38.05 43.45 38.15 43.4 38.1 43.3 38.1 43.15 38.2 Q42.45 38.4 41.85 39.05 L41.35 39.55 Q40.95 40.15 40.95 40.7 L40.05 41.2 40.35 42.55 40.4 42.7 Q40.65 43.6 41.0 44.0 L39.05 42.7 38.45 42.15 Q37.6 42.7 37.3 42.9 L36.85 43.3 Q37.5 44.25 39.95 45.2 L42.45 46.05 43.05 46.2 Q44.15 47.15 44.65 48.1 L45.0 48.9 45.65 50.6 45.05 51.35 Q44.9 49.65 43.8 48.15 L43.15 47.35 42.3 46.95 40.45 46.2 37.4 45.0 Q35.6 43.95 34.85 42.95 L34.45 42.35 34.2 41.85 34.25 41.8 34.65 41.9 35.8 42.1 Q36.95 42.1 38.05 41.55 L38.5 41.25 40.0 40.05 40.8 39.3 41.15 38.95 41.7 38.0 42.3 37.7 Q43.3 37.25 43.65 37.25 L44.0 37.3 M34.45 42.35 L34.25 41.8 34.45 42.35" fill="#ee8c2b" fill-rule="evenodd" stroke="none"/>
      <path d="M43.15 38.2 L43.3 38.1 43.4 38.1 43.45 38.15 Q43.55 38.15 43.7 38.3 44.0 38.5 44.0 38.85 44.0 39.4 43.55 39.4 43.0 39.4 43.0 38.65 43.0 38.35 43.15 38.2 M44.6 40.8 L44.85 41.65 45.05 42.3 45.05 42.4 45.55 44.05 44.45 42.35 44.35 42.2 43.65 40.7 43.55 40.3 43.55 40.15 43.7 39.95 44.05 39.7 44.3 39.8 44.6 40.8" fill="#fffaf0" fill-rule="evenodd" stroke="none"/>
      <path d="M46.65 45.8 L47.0 47.15 46.3 49.4 46.1 49.75 45.8 50.35 45.65 50.6 45.0 48.9 44.65 48.1 Q44.15 47.15 43.05 46.2 L42.45 46.05 39.95 45.2 Q37.5 44.25 36.85 43.3 L37.3 42.9 Q37.6 42.7 38.45 42.15 L39.05 42.7 41.0 44.0 Q40.65 43.6 40.4 42.7 L42.75 44.5 43.4 44.85 44.3 45.2 46.65 45.8" fill="#eec60d" fill-rule="evenodd" stroke="none"/>
      <path d="M36.4 4.85 Q36.25 5.45 36.25 5.95 L36.35 7.4 36.5 8.4 36.55 8.7 Q36.85 9.5 37.45 9.7 L37.45 9.85 37.45 10.0 37.45 10.15 37.4 11.2 Q37.4 14.4 38.75 17.3 L37.9 17.85 36.2 12.9 35.7 10.6 35.7 10.35 35.65 10.0 35.6 8.9 35.65 7.3 35.7 7.05 Q35.9 5.8 36.35 4.9 L36.4 4.85" fill="#efa30f" fill-rule="evenodd" stroke="none"/>
      <path d="M34.6 0.1 L34.85 0.4 34.7 1.25 Q34.4 2.95 34.25 4.95 L34.25 5.1 34.15 5.0 33.3 3.45 33.5 1.95 33.7 0.8 34.6 0.1" fill="#fa5c0f" fill-rule="evenodd" stroke="none"/>
      <path d="M32.55 1.9 L33.2 1.25 33.7 0.8 33.5 1.95 33.3 3.45 32.55 1.9 M30.15 3.15 L30.5 3.95 30.55 4.1 31.95 6.8 33.3 8.95 33.3 9.3 33.3 9.35 33.15 9.25 32.4 8.8 31.05 7.95 28.95 6.4 30.15 3.15" fill="#fa8f0f" fill-rule="evenodd" stroke="none"/>
      <path d="M33.3 3.45 L34.15 5.0 33.65 5.35 33.35 5.55 33.25 5.65 33.3 3.45" fill="#ef6900" fill-rule="evenodd" stroke="none"/>
      <path d="M34.15 5.0 L34.25 5.1 34.2 6.15 34.1 8.8 34.15 9.55 34.15 9.85 34.15 10.05 33.85 9.65 33.3 9.35 33.3 9.3 33.3 8.95 33.25 6.65 33.25 5.65 33.35 5.55 33.65 5.35 34.15 5.0" fill="#e16402" fill-rule="evenodd" stroke="none"/>
      <path d="M31.95 6.8 L33.25 5.65 33.25 6.65 33.3 8.95 31.95 6.8" fill="#e19202" fill-rule="evenodd" stroke="none"/>
      <path d="M31.05 7.95 L32.4 8.8 33.15 9.25 33.3 9.35 33.45 11.0 32.85 11.15 32.55 11.3 30.75 11.95 30.95 10.15 31.05 8.6 31.05 8.5 31.05 7.95" fill="#f4ab11" fill-rule="evenodd" stroke="none"/>
      <path d="M31.05 7.95 L31.05 8.5 31.05 8.6 30.95 10.15 30.75 11.95 30.0 12.3 27.95 13.6 27.2 12.8 26.6 12.1 26.5 12.0 27.1 10.1 27.35 9.35 27.35 9.3 27.45 8.9 27.55 8.65 27.65 8.3 27.75 7.75 28.2 5.8 28.95 6.4 31.05 7.95" fill="#ffbd0e" fill-rule="evenodd" stroke="none"/>
      <path d="M30.75 11.95 L32.55 11.3 32.85 11.15 33.45 11.0 Q33.8 14.55 34.85 17.75 L35.1 18.5 34.75 18.3 34.3 18.0 32.55 16.95 30.45 15.6 30.0 15.3 29.35 14.8 28.9 14.45 27.95 13.6 30.0 12.3 30.75 11.95" fill="#f3ae0b" fill-rule="evenodd" stroke="none"/>
      <path d="M34.15 10.05 L34.15 10.3 34.2 10.75 33.45 11.0 33.3 9.35 33.85 9.65 34.15 10.05" fill="#f47411" fill-rule="evenodd" stroke="none"/>
      <path d="M34.2 10.75 Q34.4 13.55 35.15 16.25 L36.0 18.75 35.7 18.85 35.1 18.5 34.85 17.75 Q33.8 14.55 33.45 11.0 L34.2 10.75" fill="#f38a0b" fill-rule="evenodd" stroke="none"/>
      <path d="M25.15 -0.45 L26.6 -0.45 27.7 0.8 30.1 3.1 30.15 3.15 28.95 6.4 28.2 5.8 25.6 2.85 25.15 2.25 25.05 2.05 25.05 1.4 25.1 0.3 25.15 -0.45" fill="#ffa30d" fill-rule="evenodd" stroke="none"/>
      <path d="M25.65 7.55 L25.6 7.25 25.6 7.0 25.5 5.55 25.15 2.35 25.15 2.25 25.6 2.85 28.2 5.8 27.75 7.75 27.65 8.3 27.55 8.65 27.45 8.9 27.35 9.3 27.35 9.35 27.1 10.1 26.5 12.0 25.55 10.85 25.6 10.6 25.65 9.1 25.65 8.2 25.65 7.55" fill="#fbaf04" fill-rule="evenodd" stroke="none"/>
      <path d="M18.65 2.45 Q18.9 1.3 19.3 0.25 L19.35 0.15 20.65 3.5 20.95 4.15 21.7 5.6 22.0 6.05 21.8 8.35 21.85 9.7 20.85 8.15 Q20.25 7.15 19.75 5.7 L19.25 4.4 19.15 4.05 18.75 2.85 18.65 2.45" fill="#fe920b" fill-rule="evenodd" stroke="none"/>
      <path d="M22.7 3.45 L25.0 6.8 25.05 6.85 25.35 7.25 25.65 7.55 25.65 8.2 25.65 9.1 25.6 10.6 25.55 10.85 25.4 10.65 25.2 10.4 25.15 10.3 22.85 7.15 22.65 6.9 22.55 6.75 22.5 5.95 22.5 5.7 22.5 5.15 22.7 3.45" fill="#f57e08" fill-rule="evenodd" stroke="none"/>
      <path d="M22.55 6.75 L22.65 6.9 22.85 7.15 25.15 10.3 25.2 10.4 25.4 10.65 25.55 10.85 26.5 12.0 26.6 12.1 27.2 12.8 26.7 15.2 26.05 14.6 25.3 13.9 25.2 13.8 23.85 12.35 23.15 11.5 21.85 9.7 21.8 8.35 22.0 6.05 22.55 6.75" fill="#fec00b" fill-rule="evenodd" stroke="none"/>
      <path d="M23.15 11.5 L21.9 12.15 21.7 12.25 Q20.7 10.7 19.65 10.7 L19.15 10.8 18.65 11.15 18.35 9.85 18.75 8.5 19.15 7.35 19.75 5.7 Q20.25 7.15 20.85 8.15 L21.85 9.7 23.15 11.5" fill="#ff6211" fill-rule="evenodd" stroke="none"/>
      <path d="M21.7 12.25 L21.9 12.15 23.15 11.5 23.85 12.35 25.2 13.8 25.3 13.9 24.6 15.45 24.0 16.9 23.75 17.65 23.1 16.0 23.35 15.8 22.8 14.4 22.65 14.0 21.7 12.25" fill="#f8970c" fill-rule="evenodd" stroke="none"/>
      <path d="M27.95 13.6 L28.9 14.45 29.35 14.8 30.0 15.3 30.45 15.6 32.95 18.95 34.45 20.8 Q33.6 22.1 32.5 24.6 L32.1 25.5 31.7 26.55 30.65 25.0 30.4 24.4 29.75 22.7 30.4 23.5 30.6 23.8 30.6 24.5 30.7 23.9 30.95 24.35 31.05 23.8 31.1 23.7 31.15 22.75 31.15 22.65 30.8 20.65 30.25 19.45 30.25 19.25 30.0 18.15 29.9 17.85 29.0 17.15 28.05 16.35 26.7 15.2 27.2 12.8 27.95 13.6 M28.95 27.15 L29.15 26.2 29.6 26.95 29.75 27.25 30.65 29.8 30.65 30.3 30.55 33.2 29.4 31.6 29.05 31.05 29.0 30.95 28.65 30.2 28.3 29.6 28.55 28.75 28.95 27.15" fill="#fcef17" fill-rule="evenodd" stroke="none"/>
      <path d="M23.75 17.65 L24.0 16.9 24.6 15.45 25.3 13.9 26.05 14.6 26.7 15.2 28.05 16.35 27.55 18.2 27.4 18.9 27.35 19.05 27.0 21.1 26.75 23.7 25.75 21.95 25.45 21.35 24.65 19.8 24.15 18.65 24.0 18.25 23.95 18.15 23.75 17.65" fill="#feb916" fill-rule="evenodd" stroke="none"/>
      <path d="M28.05 16.35 L29.0 17.15 29.9 17.85 30.0 18.15 30.25 19.25 30.25 19.45 Q29.7 18.65 29.0 18.65 28.35 18.65 27.85 19.05 L27.5 20.0 27.3 21.4 Q27.3 22.65 28.25 24.65 L28.75 25.45 29.15 26.2 28.95 27.15 28.05 25.75 27.5 24.9 26.75 23.7 27.0 21.1 27.35 19.05 27.4 18.9 27.55 18.2 28.05 16.35" fill="#f3d913" fill-rule="evenodd" stroke="none"/>
      <path d="M19.15 12.35 L19.45 12.25 19.7 12.25 20.65 13.1 21.8 15.4 22.05 16.1 22.25 16.75 22.5 17.7 22.9 20.2 22.9 20.8 23.35 21.75 23.25 21.9 23.2 21.95 23.05 22.1 22.9 21.8 22.65 21.25 22.2 20.35 21.9 17.85 21.85 17.45 21.7 16.9 Q21.2 14.6 20.3 13.7 L20.2 13.6 19.85 13.5 Q19.45 13.5 19.3 13.9 19.15 14.2 19.15 14.75 L19.2 15.15 18.9 14.15 18.8 13.55 Q18.8 13.15 18.95 12.85 L19.0 12.7 19.1 12.55 19.2 12.45 19.15 12.35" fill="#ed380d" fill-rule="evenodd" stroke="none"/>
      <path d="M19.15 10.8 L19.65 10.7 Q20.7 10.7 21.7 12.25 L22.65 14.0 22.8 14.4 23.35 15.8 23.1 16.0 22.75 16.25 22.25 16.75 22.05 16.1 21.8 15.4 20.65 13.1 19.7 12.25 19.45 12.25 19.15 12.35 19.1 12.0 19.1 11.8 19.15 10.8 M17.95 15.95 L18.15 15.35 18.35 14.8 19.25 15.35 19.3 15.35 19.55 15.4 19.7 15.4 19.9 15.35 19.95 15.9 19.95 16.2 19.95 16.35 19.95 16.4 19.9 16.5 19.55 17.2 19.3 17.6 18.0 16.0 17.95 15.95" fill="#fc940d" fill-rule="evenodd" stroke="none"/>
      <path d="M21.7 16.9 L21.85 17.45 21.9 17.85 22.2 20.35 22.65 21.25 22.9 21.8 23.05 22.1 23.2 21.95 23.25 21.9 23.35 21.75 23.45 21.95 24.85 24.65 24.9 24.8 25.2 25.4 26.05 26.9 25.8 26.75 25.0 25.45 24.35 24.35 23.05 22.1 22.05 23.7 21.45 21.5 20.7 19.85 20.95 19.0 21.05 18.75 21.55 17.35 21.7 16.9" fill="#f97e17" fill-rule="evenodd" stroke="none"/>
      <path d="M23.1 16.0 L23.75 17.65 23.95 18.15 24.0 18.25 24.15 18.65 24.65 19.8 25.45 21.35 25.75 21.95 Q25.1 22.85 24.9 24.8 L24.85 24.65 23.45 21.95 23.35 21.75 22.9 20.8 22.9 20.2 22.5 17.7 22.25 16.75 22.75 16.25 23.1 16.0" fill="#ffd012" fill-rule="evenodd" stroke="none"/>
      <path d="M19.2 15.15 L19.15 14.75 Q19.15 14.2 19.3 13.9 19.45 13.5 19.85 13.5 L20.2 13.6 20.3 13.7 Q21.2 14.6 21.7 16.9 L21.55 17.35 21.05 18.75 20.95 19.0 20.7 19.85 19.6 18.05 19.5 17.9 19.3 17.6 19.55 17.2 19.9 16.5 19.95 16.4 19.95 16.35 19.95 16.2 19.95 15.9 19.9 15.35 19.7 15.4 19.55 15.4 19.3 15.35 19.2 15.15" fill="#fb7b18" fill-rule="evenodd" stroke="none"/>
      <path d="M22.05 23.7 L23.05 22.1 24.35 24.35 25.0 25.45 25.8 26.75 Q25.35 26.45 24.9 26.45 L24.8 26.45 24.05 26.75 23.8 26.9 Q23.5 27.2 23.45 27.65 L22.8 26.95 22.2 26.35 22.2 26.3 22.25 25.75 22.25 25.35 22.15 24.35 22.05 23.7" fill="#ffb01d" fill-rule="evenodd" stroke="none"/>
      <path d="M26.05 26.9 L25.2 25.4 24.9 24.8 Q25.1 22.85 25.75 21.95 L26.75 23.7 27.5 24.9 28.05 25.75 28.95 27.15 28.55 28.75 28.3 29.6 28.1 29.25 28.0 29.05 27.4 28.25 26.8 27.55 26.05 26.9" fill="#ffe521" fill-rule="evenodd" stroke="none"/>
      <path d="M34.45 20.8 L32.95 18.95 30.45 15.6 32.55 16.95 34.3 18.0 34.75 18.3 35.1 18.5 36.05 20.85 37.35 23.55 37.15 23.5 36.6 23.4 35.5 22.05 34.5 20.9 34.45 20.8" fill="#ffb61c" fill-rule="evenodd" stroke="none"/>
      <path d="M36.0 18.75 L36.1 19.05 36.55 20.15 38.35 23.7 37.35 23.55 36.05 20.85 35.1 18.5 35.7 18.85 36.0 18.75" fill="#ec8c17" fill-rule="evenodd" stroke="none"/>
      <path d="M17.9 -0.15 L18.2 0.95 18.65 2.45 18.75 2.85 19.15 4.05 19.25 4.4 19.75 5.7 19.15 7.35 18.75 8.5 18.35 9.85 17.9 7.5 17.75 6.8 17.4 4.4 17.3 3.65 17.1 1.9 17.05 1.6 17.9 -0.15" fill="#fb4f0f" fill-rule="evenodd" stroke="none"/>
      <path d="M15.3 -0.45 L15.65 -0.45 15.95 0.75 15.75 1.2 15.5 1.6 14.6 2.85 13.55 4.15 12.6 2.55 12.7 2.45 13.15 2.05 15.3 -0.45" fill="#c8180b" fill-rule="evenodd" stroke="none"/>
      <path d="M17.05 1.6 L17.1 1.9 17.3 3.65 17.4 4.4 17.75 6.8 16.5 8.65 16.25 6.3 16.05 4.65 15.85 3.35 15.95 3.25 16.4 2.55 16.95 1.8 17.05 1.6" fill="#ed3012" fill-rule="evenodd" stroke="none"/>
      <path d="M15.85 3.35 L16.05 4.65 16.25 6.3 16.5 8.65 15.7 9.9 15.45 8.95 14.2 5.45 14.7 4.85 15.05 4.45 15.3 4.1 15.85 3.35" fill="#e22a12" fill-rule="evenodd" stroke="none"/>
      <path d="M18.35 9.85 L18.65 11.15 18.35 11.45 Q17.75 12.2 17.75 13.6 L17.85 15.15 17.95 15.95 17.85 15.85 16.8 14.95 16.8 14.8 16.8 14.35 16.5 8.65 17.75 6.8 17.9 7.5 18.35 9.85" fill="#e32c0a" fill-rule="evenodd" stroke="none"/>
      <path d="M18.65 11.15 L19.15 10.8 19.1 11.8 19.1 12.0 19.15 12.35 19.2 12.45 19.1 12.55 19.0 12.7 18.95 12.85 Q18.8 13.15 18.8 13.55 L18.9 14.15 19.2 15.15 19.3 15.35 19.25 15.35 18.35 14.8 18.15 15.35 17.95 15.95 17.85 15.15 17.75 13.6 Q17.75 12.2 18.35 11.45 L18.65 11.15" fill="#e47211" fill-rule="evenodd" stroke="none"/>
      <path d="M15.7 9.9 L16.5 8.65 16.8 14.35 16.8 14.8 16.8 14.95 16.5 14.7 16.5 14.05 Q16.35 12.25 15.7 9.9" fill="#ef371d" fill-rule="evenodd" stroke="none"/>
      <path d="M22.75 33.1 L22.65 33.0 22.55 32.95 21.9 32.35 20.6 30.65 19.85 29.4 19.95 29.25 20.25 29.05 Q20.7 29.05 21.6 30.05 L22.25 31.85 22.65 32.85 22.75 33.1 M24.6 28.95 L24.75 29.2 24.65 29.7 24.9 30.95 Q24.4 30.1 24.4 29.5 L24.6 28.95" fill="#f0292e" fill-rule="evenodd" stroke="none"/>
      <path d="M27.85 36.6 L26.35 36.15 26.0 36.1 25.6 35.95 25.5 35.95 25.1 35.8 24.55 35.55 24.4 35.5 24.2 35.4 23.65 35.1 21.95 33.8 21.7 33.55 21.3 33.15 20.35 32.05 Q19.2 30.6 18.85 29.6 L18.6 28.6 Q18.6 28.15 18.95 27.9 L19.8 27.65 20.95 28.05 21.3 28.3 21.5 28.45 22.0 29.6 22.3 30.3 22.75 31.6 22.15 30.75 21.8 30.3 21.6 30.05 Q20.7 29.05 20.25 29.05 L19.95 29.25 19.85 29.4 20.6 30.65 21.9 32.35 22.55 32.95 22.65 33.0 22.75 33.1 Q23.95 34.0 24.95 34.5 L25.45 34.75 25.95 34.95 26.05 34.95 26.45 35.1 26.55 35.1 27.85 36.6" fill="#c61e11" fill-rule="evenodd" stroke="none"/>
      <path d="M21.5 28.45 L21.8 28.65 21.9 28.2 21.95 27.9 22.0 27.8 23.95 31.9 24.5 32.95 25.45 34.75 24.95 34.5 Q23.95 34.0 22.75 33.1 L22.65 32.85 22.25 31.85 21.6 30.05 21.8 30.3 22.15 30.75 22.75 31.6 22.3 30.3 22.0 29.6 21.5 28.45 M24.6 28.95 L24.9 28.7 25.05 28.65 25.45 28.55 26.2 28.8 26.2 28.85 26.25 28.85 26.35 28.9 26.7 29.25 26.95 29.55 26.95 29.65 27.15 30.2 27.3 30.5 27.7 31.25 27.9 31.6 28.05 32.8 26.75 30.35 26.15 29.45 Q25.75 28.85 25.25 28.85 L24.75 29.2 24.6 28.95" fill="#ff3c30" fill-rule="evenodd" stroke="none"/>
      <path d="M28.45 35.1 L28.1 34.5 27.95 34.25 27.0 32.65 26.1 31.1 25.75 30.5 25.35 29.95 24.75 29.2 25.25 28.85 Q25.75 28.85 26.15 29.45 L26.75 30.35 28.05 32.8 28.2 33.65 28.2 33.8 28.35 34.5 28.45 35.1" fill="#fc9c11" fill-rule="evenodd" stroke="none"/>
      <path d="M28.9 37.05 L27.85 36.6 26.55 35.1 26.45 35.1 26.05 34.95 25.95 34.95 25.45 34.75 24.5 32.95 23.95 31.9 22.0 27.8 22.2 26.35 22.8 26.95 23.45 27.65 23.4 28.0 Q23.4 29.2 24.15 30.35 L24.8 31.2 25.1 31.55 25.4 31.8 25.1 31.4 24.95 31.1 24.9 30.95 24.65 29.7 24.75 29.2 25.35 29.95 25.75 30.5 26.1 31.1 27.0 32.65 27.95 34.25 28.1 34.5 28.45 35.1 28.9 37.05" fill="#ff901c" fill-rule="evenodd" stroke="none"/>
      <path d="M27.9 31.6 L28.6 32.85 29.55 34.35 29.8 34.75 30.55 35.9 32.5 38.7 33.55 39.4 35.2 40.65 34.95 40.65 33.35 40.45 30.15 36.2 29.0 34.4 28.35 33.3 28.05 32.8 27.9 31.6" fill="#ff6920" fill-rule="evenodd" stroke="none"/>
      <path d="M33.3 40.45 L33.2 40.3 32.95 40.0 32.7 39.75 30.55 37.95 30.5 37.9 30.05 37.6 29.8 37.5 28.9 37.05 28.45 35.1 28.35 34.5 28.2 33.8 28.2 33.65 28.05 32.8 28.35 33.3 29.0 34.4 30.15 36.2 33.35 40.45 33.3 40.45" fill="#ffa820" fill-rule="evenodd" stroke="none"/>
      <path d="M40.0 36.0 L40.0 36.6 39.95 37.95 39.9 38.45 39.85 38.9 39.6 38.75 37.75 38.0 35.0 37.5 34.7 37.5 33.2 36.0 32.95 35.7 31.7 33.7 30.9 30.7 30.65 29.8 29.75 27.25 29.6 26.95 29.15 26.2 28.75 25.45 28.25 24.65 Q27.3 22.65 27.3 21.4 L27.5 20.0 27.85 19.05 Q28.35 18.65 29.0 18.65 29.7 18.65 30.25 19.45 L30.8 20.65 31.15 22.65 31.15 22.75 31.1 23.7 31.05 23.8 30.95 24.35 30.7 23.9 30.75 23.3 Q30.75 21.5 30.1 20.25 L30.05 20.2 Q29.45 19.0 28.65 19.0 28.2 19.0 27.95 19.25 27.7 19.5 27.55 20.35 L27.55 20.6 Q27.55 22.2 28.65 24.25 L29.3 25.45 30.55 28.0 30.6 28.3 30.8 29.1 31.0 29.85 32.05 32.75 Q33.0 34.9 34.4 36.4 L34.75 36.8 35.25 36.9 36.05 37.1 36.1 37.1 38.1 37.8 39.3 38.35 39.8 38.55 39.85 37.95 39.85 37.85 39.85 37.7 39.65 36.0 39.2 34.4 39.05 34.05 38.55 32.9 36.45 31.0 32.45 27.65 32.35 27.55 31.6 26.9 Q29.85 25.25 29.45 23.8 29.3 23.35 29.3 22.9 29.3 22.35 29.45 22.0 L29.45 21.9 30.15 22.55 30.6 23.8 30.4 23.5 29.75 22.7 30.4 24.4 30.65 25.0 31.7 26.55 31.85 26.7 36.8 30.25 37.1 30.6 38.25 32.05 39.65 33.85 39.65 34.0 40.0 36.0" fill="#f9790b" fill-rule="evenodd" stroke="none"/>
      <path d="M30.7 23.9 L30.6 24.5 30.6 23.8 30.15 22.55 29.45 21.9 29.45 22.0 Q29.3 22.35 29.3 22.9 29.3 23.35 29.45 23.8 29.85 25.25 31.6 26.9 L32.35 27.55 32.45 27.65 Q31.8 28.15 31.45 28.75 31.15 29.25 31.0 29.85 L30.8 29.1 30.6 28.3 30.55 28.0 29.3 25.45 28.65 24.25 Q27.55 22.2 27.55 20.6 L27.55 20.35 Q27.7 19.5 27.95 19.25 28.2 19.0 28.65 19.0 29.45 19.0 30.05 20.2 L30.1 20.25 Q30.75 21.5 30.75 23.3 L30.7 23.9" fill="#edfaff" fill-rule="evenodd" stroke="none"/>
      <path d="M35.55 36.0 L35.25 35.45 34.8 34.7 34.55 34.25 34.0 32.95 34.95 33.95 35.75 34.6 36.05 34.8 35.85 34.85 35.6 34.7 35.1 34.4 35.35 34.75 35.6 35.05 35.55 35.15 35.4 35.55 35.5 35.85 35.55 36.0 M36.95 35.45 L37.4 35.75 37.5 35.85 37.9 36.35 38.35 37.05 37.7 36.95 36.5 36.7 36.8 36.5 37.05 35.95 37.05 35.9 36.95 35.5 36.95 35.45" fill="#1088de" fill-rule="evenodd" stroke="none"/>
      <path d="M36.05 34.8 L35.75 34.6 34.95 33.95 34.0 32.95 34.55 34.25 34.8 34.7 35.25 35.45 35.55 36.0 35.65 36.1 36.15 36.45 36.25 36.5 36.45 36.65 36.5 36.65 36.5 36.7 37.7 36.95 38.35 37.05 37.9 36.35 37.5 35.85 37.4 35.75 36.95 35.45 36.65 35.25 36.2 34.95 36.05 34.8 M33.75 31.95 L35.1 33.4 35.5 33.75 36.8 34.9 37.65 35.6 38.15 36.0 38.25 36.2 38.45 36.6 38.55 36.8 38.7 37.1 38.75 37.15 38.95 37.6 38.45 37.5 37.75 37.3 36.15 36.85 35.7 36.65 35.5 36.55 34.65 35.35 34.1 34.4 Q33.2 32.55 32.75 30.55 L33.75 31.95" fill="#052a5d" fill-rule="evenodd" stroke="none"/>
      <path d="M36.05 34.8 L36.2 34.95 36.65 35.25 36.95 35.45 36.95 35.5 37.05 35.9 37.05 35.95 36.8 36.5 36.5 36.7 36.5 36.65 36.45 36.65 36.25 36.5 36.15 36.45 35.65 36.1 35.55 36.0 35.5 35.85 35.4 35.55 35.55 35.15 35.6 35.05 35.8 35.3 35.9 35.3 36.15 35.15 35.85 34.85 36.05 34.8" fill="#2ffff9" fill-rule="evenodd" stroke="none"/>
      <path d="M26.65 49.2 L27.4 49.8 29.05 50.95 30.7 52.0 31.1 52.25 31.45 52.4 30.0 52.85 27.7 53.35 26.55 53.3 M13.5 53.5 L13.6 52.15 13.6 51.75 13.55 51.2 13.3 49.9 13.1 49.0 13.1 48.95" fill="none" stroke="#430569" stroke-linecap="round" stroke-linejoin="round" stroke-width="1.0"/>
      <path d="M15.3 -0.45 L13.15 2.05 12.7 2.45 12.6 2.55 M40.05 6.7 L40.7 6.6 45.3 5.2 47.35 4.5 48.75 3.95 53.1 2.2 53.35 2.1 53.4 2.05 54.4 0.9 M25.5 35.95 L24.7 36.75 24.0 37.6 23.95 37.9 Q23.75 41.0 24.15 43.45 L24.2 43.85 24.6 45.25 24.9 46.15 25.15 46.85 26.45 48.95 26.65 49.2 M13.1 48.95 Q10.9 47.5 8.85 44.7 L6.65 41.4 6.45 41.05 6.35 40.8 Q4.8 40.3 3.1 39.0 L2.25 38.3 1.85 37.95 3.1 37.2 Q3.75 36.45 3.75 35.5 L3.65 35.0 3.5 34.7 3.35 34.45 3.1 34.45 0.0 34.15 M0.0 3.6 L1.3 3.8 4.15 3.85 5.65 3.75 9.3 3.1 11.35 2.6 13.15 2.05" fill="none" stroke="#760d83" stroke-linecap="round" stroke-linejoin="round" stroke-width="1.0"/>
      <path d="M12.6 2.55 L13.55 4.15 14.0 4.95 14.2 5.45 15.45 8.95 15.7 9.9 Q16.35 12.25 16.5 14.05 L16.5 14.7 16.8 14.95 17.85 15.85 17.95 15.95 18.0 16.0 19.3 17.6 19.5 17.9 19.6 18.05 20.7 19.85 21.45 21.5 22.05 23.7 22.15 24.35 22.25 25.35 22.25 25.75 22.2 26.3 22.2 26.35 22.0 27.8 21.95 27.9 21.9 28.2 21.8 28.65 21.5 28.45 21.3 28.3 20.95 28.05 19.8 27.65 18.95 27.9 Q18.6 28.15 18.6 28.6 L18.85 29.6 Q19.2 30.6 20.35 32.05 L21.3 33.15 21.7 33.55 21.95 33.8 23.65 35.1 24.2 35.4 24.4 35.5 24.55 35.55 M34.2 -0.45 L34.6 0.1 34.85 0.4 35.05 0.7 35.55 -0.4 35.6 -0.45 M37.6 -0.45 L37.55 -0.4 Q36.45 1.0 36.45 3.65 L36.45 3.85 36.5 4.1 36.45 4.45 36.4 4.85 Q36.25 5.45 36.25 5.95 L36.35 7.4 36.5 8.4 36.55 8.7 Q36.85 9.5 37.45 9.7 M37.45 10.15 L38.65 8.25 40.05 6.7 M54.4 25.55 L52.55 27.25 47.25 30.9 46.15 31.55 44.95 32.25 M39.95 -0.45 L40.05 0.2 40.15 2.2 40.0 4.25 40.45 2.75 40.9 -0.45" fill="none" stroke="#931034" stroke-linecap="round" stroke-linejoin="round" stroke-width="1.0"/>
      <path d="M37.45 9.7 L37.45 9.85 37.45 10.0 37.45 10.15 37.4 11.2 Q37.4 14.4 38.75 17.3 L39.9 19.35 40.4 20.15 41.6 21.65 41.75 21.8 42.7 22.85" fill="none" stroke="#c91d1d" stroke-linecap="round" stroke-linejoin="round" stroke-width="1.0"/>
      <path d="M44.95 32.25 L44.9 32.45 Q44.8 34.5 44.35 36.15 L44.3 36.25 44.3 36.35 44.0 37.3 43.95 37.4 44.2 37.9 44.3 38.1 M44.3 38.15 L45.35 41.15 45.55 41.75 46.65 45.8 47.0 47.15 46.3 49.4 46.1 49.75 45.8 50.35 45.65 50.6 45.05 51.35 Q44.9 49.65 43.8 48.15 L43.15 47.35 42.3 46.95 40.45 46.2 37.4 45.0 Q35.6 43.95 34.85 42.95 L34.45 42.35 34.2 41.85 34.25 41.8 33.9 41.3 33.3 40.45 33.2 40.3 32.95 40.0 32.7 39.75 30.55 37.95 30.5 37.9 M26.55 53.3 L25.75 53.2 25.35 53.15 25.4 53.5 M42.7 22.85 L43.1 23.5 Q44.25 25.85 44.7 28.35 L44.95 31.35 44.95 32.1 44.95 32.25 M34.25 41.8 L34.65 41.9 35.8 42.1 Q36.95 42.1 38.05 41.55 L38.5 41.25 40.0 40.05 40.8 39.3 41.15 38.95 41.7 38.0 42.3 37.7 Q43.3 37.25 43.65 37.25 L44.0 37.3 M34.25 41.8 L34.45 42.35" fill="none" stroke="#ee4423" stroke-linecap="round" stroke-linejoin="round" stroke-width="1.0"/>
      <path d="M30.5 37.9 L30.05 37.6 29.8 37.5 28.9 37.05 27.85 36.6 26.35 36.15 26.0 36.1 25.6 35.95 25.5 35.95 25.1 35.8 24.55 35.55" fill="none" stroke="#9c0e0e" stroke-linecap="round" stroke-linejoin="round" stroke-width="1.0"/>
    </g>
    <g id="shape2" transform="matrix(1.0, 0.0, 0.0, 1.0, 0.0, 0.0)">
      <path d="M50.5 0.0 Q53.95 0.0 53.95 3.3 L53.95 50.15 Q53.95 53.4 50.5 53.4 L3.3 53.4 Q0.0 53.4 0.0 50.15 L0.0 3.3 Q0.0 0.0 3.3 0.0 L50.5 0.0" fill="#000000" fill-opacity="0.003921569" fill-rule="evenodd" stroke="none"/>
    </g>
  </defs>
</svg>
