<?xml version="1.0" encoding="UTF-8" standalone="no"?>
<svg xmlns:ffdec="https://www.free-decompiler.com/flash" xmlns:xlink="http://www.w3.org/1999/xlink" ffdec:objectType="frame" height="53.9px" width="54.8px" xmlns="http://www.w3.org/2000/svg">
  <g transform="matrix(1.0, 0.0, 0.0, 1.0, 0.85, 0.5)">
    <clipPath id="clipPath0" transform="matrix(1.0, 0.0, 0.0, 1.0, 0.0, 0.0)">
      <path d="M50.5 0.0 Q53.95 0.0 53.95 3.3 L53.95 50.15 Q53.95 53.4 50.5 53.4 L3.3 53.4 Q0.0 53.4 0.0 50.15 L0.0 3.3 Q0.0 0.0 3.3 0.0 L50.5 0.0" fill="#000000" fill-rule="evenodd" stroke="none"/>
    </clipPath>
    <g clip-path="url(#clipPath0)">
      <use ffdec:characterId="2" height="52.7" transform="matrix(1.0, 0.0, 0.0, 1.0, -0.85, -0.5)" width="53.9" xlink:href="#shape1"/>
    </g>
    <use ffdec:characterId="3" height="53.4" transform="matrix(1.0, 0.0, 0.0, 1.0, 0.0, 0.0)" width="53.95" xlink:href="#shape2"/>
  </g>
  <defs>
    <g id="shape1" transform="matrix(1.0, 0.0, 0.0, 1.0, 0.85, 0.5)">
      <path d="M46.05 26.25 Q47.15 26.25 47.15 28.25 L47.05 29.3 Q46.75 30.35 45.9 30.35 L45.0 30.2 44.65 30.0 44.4 29.65 Q44.25 29.4 44.25 28.65 L44.3 27.9 Q44.55 26.6 45.7 26.3 L46.05 26.25 M19.15 25.1 L19.55 25.25 Q20.2 25.6 20.2 26.65 L19.9 28.35 Q19.25 29.8 17.6 29.8 16.8 29.8 16.35 29.1 L16.2 28.9 16.05 28.05 16.05 27.95 Q16.05 26.1 17.95 25.3 L18.15 25.25 19.15 25.1" fill="#ffffff" fill-rule="evenodd" stroke="none"/>
      <path d="M47.95 0.0 L47.85 0.5 47.15 2.55 46.65 1.85 46.15 1.6 45.7 1.55 45.5 1.55 Q45.05 1.6 44.75 1.8 44.45 1.85 44.3 2.1 43.35 3.1 44.2 3.9 L44.7 4.25 45.55 4.35 46.55 4.1 46.15 4.5 44.4 5.9 42.6 5.65 42.5 5.5 42.0 4.85 Q41.6 4.2 41.0 3.9 40.15 3.45 38.95 3.5 L38.75 3.5 37.95 3.6 39.05 1.8 Q39.55 0.65 39.2 0.0 L47.95 0.0 M-0.35 23.05 L-0.35 19.05 Q1.45 20.5 3.35 22.85 L4.0 23.7 Q5.75 19.3 8.25 16.4 L10.15 14.5 10.2 15.4 Q9.55 16.35 9.05 17.45 6.9 21.8 6.55 28.55 L6.5 30.6 6.7 32.55 7.0 34.7 6.4 34.45 6.05 33.5 5.35 31.85 3.8 28.6 3.35 27.8 2.6 26.65 1.25 24.8 -0.35 23.05 M6.35 0.0 L17.7 0.0 17.45 1.1 17.35 1.4 16.9 2.55 16.65 2.45 15.65 2.2 14.85 2.05 Q14.1 1.9 13.4 2.05 12.4 2.3 11.55 3.2 L11.55 3.25 11.4 3.4 10.85 4.05 Q10.8 2.85 10.4 1.85 L9.8 0.8 Q9.35 0.35 8.8 0.35 L7.65 0.6 Q6.95 0.9 6.9 1.35 L6.9 1.3 6.35 0.0" fill="#00c9b3" fill-rule="evenodd" stroke="none"/>
      <path d="M17.6 47.95 L14.8 46.35 Q12.35 44.75 10.7 43.0 L9.55 41.6 10.05 40.7 Q10.5 40.25 11.1 40.4 L16.45 44.25 16.4 44.75 16.55 45.65 Q16.75 46.45 17.3 47.45 L17.6 47.95" fill="#aad6ff" fill-rule="evenodd" stroke="none"/>
      <path d="M52.1 38.8 Q51.75 40.45 50.75 42.05 L49.95 42.7 48.15 44.2 Q47.2 44.8 46.7 44.8 46.35 44.8 45.95 43.85 L45.8 43.4 52.1 38.8 M25.3 50.85 L24.25 50.6 23.8 50.5 22.15 50.0 21.15 49.6 19.35 48.8 18.2 48.25 17.6 47.95 17.3 47.45 Q16.75 46.45 16.55 45.65 L16.4 44.75 16.45 44.25 16.75 44.45 16.8 44.45 Q19.45 42.65 21.55 42.1 L24.65 44.0 24.0 44.7 Q23.6 45.35 23.6 46.3 L23.6 47.0 Q23.8 48.3 24.45 49.55 L25.3 50.85 M-0.35 13.15 L-0.35 0.0 1.6 0.0 4.85 4.2 5.55 3.6 5.6 3.65 Q7.5 5.55 10.05 5.95 9.8 9.3 10.05 13.05 6.75 15.95 4.3 19.35 L-0.35 13.15 M30.25 2.1 L34.2 6.3 33.95 6.55 Q28.4 5.5 23.5 6.7 L23.0 6.35 30.25 2.1 M39.0 38.6 L34.7 42.6 32.35 44.7 31.05 45.75 28.8 47.0 Q27.8 47.0 27.2 46.25 L26.45 45.2 26.6 45.25 27.85 44.6 29.65 43.6 35.9 39.75 36.9 39.05 37.05 38.95 38.1 38.25 39.0 38.6 M21.1 5.0 Q19.45 3.85 17.75 2.95 L18.4 2.05 21.1 5.0" fill="#c9e9ff" fill-rule="evenodd" stroke="none"/>
      <path d="M44.95 6.15 Q46.05 5.6 47.0 4.6 48.7 2.8 48.95 0.3 L49.0 0.0 50.05 0.0 Q50.0 2.9 47.95 5.0 L45.8 6.65 44.95 6.15 M46.05 3.65 L45.65 3.8 Q45.2 3.85 44.95 3.6 44.65 3.3 44.7 2.9 L44.9 2.5 46.05 2.45 Q46.6 3.1 46.05 3.65 M3.45 0.0 L5.05 0.0 Q5.6 1.5 6.8 2.7 L7.3 3.1 7.25 2.65 7.25 2.35 Q7.4 1.25 8.45 1.25 L8.85 1.35 9.25 1.65 Q9.6 2.05 9.6 2.5 L9.3 3.15 8.8 3.7 10.35 4.9 10.05 5.95 Q7.5 5.55 5.6 3.65 L5.55 3.6 Q3.95 2.0 3.45 0.0 M18.3 0.0 L19.25 0.0 18.4 2.05 17.75 2.95 17.2 2.65 17.8 1.5 17.95 1.2 18.3 0.0 M36.15 4.4 Q34.7 2.55 34.55 0.0 L36.0 0.0 36.05 0.65 36.35 0.3 36.7 0.0 38.0 0.0 38.1 0.1 38.4 0.9 38.1 1.75 37.45 2.05 36.75 2.05 37.0 3.85 Q36.5 4.1 36.15 4.4" fill="#eff0e8" fill-rule="evenodd" stroke="none"/>
      <path d="M49.0 0.0 L48.95 0.3 Q48.7 2.8 47.0 4.6 46.05 5.6 44.95 6.15 L44.4 5.9 46.15 4.5 46.55 4.1 45.55 4.35 44.7 4.25 44.2 3.9 Q43.35 3.1 44.3 2.1 44.45 1.85 44.75 1.8 45.05 1.6 45.5 1.55 L45.7 1.55 46.15 1.6 46.65 1.85 47.15 2.55 47.85 0.5 47.95 0.0 49.0 0.0 M46.05 3.65 Q46.6 3.1 46.05 2.45 L44.9 2.5 44.7 2.9 Q44.65 3.3 44.95 3.6 45.2 3.85 45.65 3.8 L46.05 3.65 M5.05 0.0 L6.35 0.0 6.9 1.3 6.9 1.35 Q6.95 0.9 7.65 0.6 L8.8 0.35 Q9.35 0.35 9.8 0.8 L10.4 1.85 Q10.8 2.85 10.85 4.05 L10.7 4.3 10.35 4.9 8.8 3.7 9.3 3.15 9.6 2.5 Q9.6 2.05 9.25 1.65 L8.85 1.35 8.45 1.25 Q7.4 1.25 7.25 2.35 L7.25 2.65 7.3 3.1 6.8 2.7 Q5.6 1.5 5.05 0.0 M17.7 0.0 L18.3 0.0 17.95 1.2 17.8 1.5 17.2 2.65 16.9 2.55 17.35 1.4 17.45 1.1 17.7 0.0 M36.0 0.0 L36.7 0.0 36.35 0.3 36.05 0.65 36.0 0.0 M38.0 0.0 L39.2 0.0 Q39.55 0.65 39.05 1.8 L37.95 3.6 37.65 3.7 37.0 3.85 36.75 2.05 37.45 2.05 38.1 1.75 38.4 0.9 38.1 0.1 38.0 0.0" fill="#8ff3db" fill-rule="evenodd" stroke="none"/>
      <path d="M-0.35 19.05 L-0.35 13.15 4.3 19.35 Q6.75 15.95 10.05 13.05 L10.15 14.5 8.25 16.4 Q5.75 19.3 4.0 23.7 L3.35 22.85 Q1.45 20.5 -0.35 19.05 M1.6 0.0 L3.45 0.0 Q3.95 2.0 5.55 3.6 L4.85 4.2 1.6 0.0 M19.25 0.0 L28.1 0.0 30.25 2.1 23.0 6.35 21.1 5.0 18.4 2.05 19.25 0.0" fill="#4bf7cf" fill-rule="evenodd" stroke="none"/>
      <path d="M44.95 6.15 L45.8 6.65 Q47.6 8.1 47.9 11.7 L47.9 11.95 47.35 12.75 Q46.65 13.7 45.55 14.05 L44.25 14.25 43.0 13.9 42.65 13.75 Q41.55 13.3 40.45 12.05 L39.75 11.0 Q39.3 10.1 39.25 8.9 L38.9 9.3 38.8 9.4 Q38.05 10.05 37.25 10.05 36.6 10.05 36.1 9.6 L35.35 8.6 35.2 8.35 34.55 8.8 Q33.7 9.4 33.35 9.9 32.7 10.8 32.7 12.5 L32.75 13.4 Q33.05 15.15 34.45 16.8 36.1 18.8 37.85 18.8 L38.8 18.7 Q39.8 19.85 40.7 20.35 L43.3 20.5 Q44.55 19.8 44.75 18.6 L44.55 18.7 43.1 19.05 Q42.3 19.05 41.7 18.65 L41.05 18.05 40.7 17.35 40.55 16.45 40.55 16.1 40.55 16.0 40.8 16.05 42.65 16.45 43.15 16.55 44.6 16.45 Q45.8 16.3 46.6 15.5 48.75 19.3 49.7 24.4 48.6 23.55 47.25 23.55 45.15 23.55 43.85 25.6 L43.65 25.9 Q42.45 27.85 42.6 30.55 42.7 33.5 44.3 35.55 45.4 37.05 46.8 37.45 L47.9 37.6 Q49.7 37.6 51.0 36.05 L52.1 38.8 45.8 43.4 45.65 43.55 Q42.85 40.8 39.0 38.6 L38.1 38.25 37.05 38.95 36.9 39.05 36.0 39.5 33.45 40.8 Q31.15 41.9 29.4 41.9 L27.6 41.55 27.6 41.45 27.4 41.35 Q29.4 40.1 30.65 38.75 L31.6 37.4 Q32.9 35.15 32.9 31.55 32.9 25.9 29.4 22.45 26.85 19.9 23.25 19.35 L21.05 19.15 20.15 19.25 20.1 19.3 17.15 19.95 13.85 20.8 Q12.75 20.8 12.1 19.5 11.6 18.4 11.6 16.95 11.6 15.65 12.5 13.65 15.25 10.9 18.75 9.15 L17.45 9.15 17.35 9.15 15.6 9.35 14.05 9.5 Q13.45 9.45 13.05 7.4 12.6 5.3 12.7 3.85 12.85 2.45 13.4 2.05 14.1 1.9 14.85 2.05 L15.65 2.2 16.65 2.45 16.9 2.55 17.2 2.65 17.75 2.95 Q19.45 3.85 21.1 5.0 L23.0 6.35 23.5 6.7 Q28.4 5.5 33.95 6.55 L34.7 6.65 34.7 6.7 Q34.45 7.5 34.55 8.8 34.45 7.5 34.7 6.7 L34.7 6.65 Q34.9 5.9 35.4 5.55 37.2 4.0 38.45 5.65 L39.35 4.7 Q40.35 3.8 41.0 3.9 41.6 4.2 42.0 4.85 L42.5 5.5 42.6 5.65 44.4 5.9 44.95 6.15 M39.3 7.7 L39.2 7.2 Q39.45 6.95 39.65 6.8 40.85 5.75 42.55 5.65 L42.6 5.65 42.55 5.65 Q40.85 5.75 39.65 6.8 39.45 6.95 39.2 7.2 L39.3 7.7 M43.75 7.35 L43.4 7.35 Q42.75 7.5 42.75 8.6 L42.95 9.7 Q43.3 10.4 44.3 10.5 L44.85 10.55 Q45.5 10.55 45.8 10.0 L45.95 9.45 Q45.95 8.05 44.35 7.45 L43.75 7.35 M44.6 16.45 Q44.95 17.65 44.75 18.6 44.95 17.65 44.6 16.45 M24.15 7.2 L23.5 6.7 24.15 7.2 M39.2 7.2 L38.8 6.15 38.45 5.65 38.8 6.15 39.2 7.2 M39.25 8.35 L38.8 9.4 39.25 8.35 39.5 8.5 39.25 8.35 M37.0 6.2 Q36.15 6.2 36.1 7.05 L36.5 7.55 37.15 7.8 37.65 7.6 37.75 7.4 37.85 7.0 37.75 6.6 Q37.55 6.25 37.0 6.2 M26.05 44.65 L25.95 44.65 25.95 44.45 26.05 44.65" fill="#a2e4fa" fill-rule="evenodd" stroke="none"/>
      <path d="M43.75 7.35 L44.35 7.45 Q45.95 8.05 45.95 9.45 L45.8 10.0 Q45.5 10.55 44.85 10.55 L44.3 10.5 Q43.3 10.4 42.95 9.7 L42.75 8.6 Q42.75 7.5 43.4 7.35 L43.75 7.35 M37.0 6.2 Q37.55 6.25 37.75 6.6 L37.85 7.0 37.75 7.4 37.65 7.6 37.15 7.8 36.5 7.55 36.1 7.05 Q36.15 6.2 37.0 6.2 M1.55 30.65 Q1.55 28.7 2.85 29.7 4.15 30.75 4.15 32.3 L4.1 32.8 Q3.9 33.2 3.15 33.2 2.65 33.2 2.3 32.85 1.7 32.25 1.55 30.65" fill="#caffff" fill-rule="evenodd" stroke="none"/>
      <path d="M47.4 14.25 L46.7 15.35 46.6 15.5 Q45.8 16.3 44.6 16.45 L43.15 16.55 42.65 16.45 40.8 16.05 40.55 16.0 40.55 16.1 40.2 16.0 39.05 15.3 Q38.2 14.65 38.0 13.4 37.85 12.15 38.3 12.15 L38.75 12.25 Q38.65 12.7 39.0 13.3 L40.4 14.9 Q41.25 15.75 43.55 15.85 L44.3 15.85 45.5 15.75 45.7 15.65 46.4 15.2 47.4 14.25 M40.55 16.0 L40.2 16.0 40.55 16.0 M9.95 18.6 L10.5 18.6 10.5 20.4 Q10.65 21.0 11.55 21.95 12.3 22.8 12.3 23.35 L11.6 24.5 Q10.85 25.45 10.85 26.05 L11.05 26.75 11.2 27.45 11.05 29.05 10.85 30.6 10.85 30.7 Q10.85 32.55 11.6 35.05 L12.2 36.75 12.95 38.2 14.4 40.55 14.4 40.7 13.2 40.1 Q12.4 39.6 11.85 39.55 L10.5 39.1 10.0 38.55 9.45 36.15 9.3 35.6 8.8 32.9 Q8.5 30.8 8.95 29.0 L8.8 27.15 8.65 24.9 Q8.65 20.4 9.65 19.35 L9.95 18.6" fill="#54adbd" fill-rule="evenodd" stroke="none"/>
      <path d="M47.4 14.25 L46.4 15.2 45.7 15.65 45.5 15.75 44.3 15.85 43.55 15.85 Q41.25 15.75 40.4 14.9 L39.0 13.3 Q38.65 12.7 38.75 12.25 L38.3 12.15 Q37.85 12.15 38.0 13.4 38.2 14.65 39.05 15.3 L40.2 16.0 40.55 16.1 40.55 16.45 40.7 17.35 41.05 18.05 41.7 18.65 Q42.3 19.05 43.1 19.05 L44.55 18.7 44.75 18.6 Q44.55 19.8 43.3 20.5 L40.7 20.35 Q39.8 19.85 38.8 18.7 L37.85 18.8 Q36.1 18.8 34.45 16.8 33.05 15.15 32.75 13.4 L32.7 12.5 Q32.7 10.8 33.35 9.9 33.7 9.4 34.55 8.8 L34.7 10.15 34.55 8.8 35.2 8.35 35.35 8.6 36.1 9.6 Q36.6 10.05 37.25 10.05 38.05 10.05 38.8 9.4 L38.9 9.3 39.25 8.9 Q39.3 10.1 39.75 11.0 L40.45 12.05 Q41.55 13.3 42.65 13.75 L43.0 13.9 44.25 14.25 45.55 14.05 Q46.65 13.7 47.35 12.75 L47.9 11.95 47.4 14.25 M-0.35 49.6 L-0.35 40.2 0.2 41.45 1.05 43.55 1.25 44.4 1.4 45.3 0.9 47.15 -0.35 49.6 M34.2 6.3 L36.15 4.4 Q36.5 4.1 37.0 3.85 L37.65 3.7 37.95 3.6 38.75 3.5 38.95 3.5 Q40.15 3.45 41.0 3.9 40.35 3.8 39.35 4.7 L38.45 5.65 Q37.2 4.0 35.4 5.55 34.9 5.9 34.7 6.65 L33.95 6.55 34.2 6.3 M37.75 10.5 L38.8 9.4 37.75 10.5 M26.45 45.2 L24.65 44.0 21.55 42.1 Q19.45 42.65 16.8 44.45 L16.75 44.45 16.45 44.25 11.1 40.4 Q10.5 40.25 10.05 40.7 9.05 38.35 8.6 35.7 L8.55 35.3 8.0 31.3 Q7.85 29.5 7.85 27.7 7.85 24.3 8.4 21.8 L9.05 18.5 9.05 17.45 Q9.55 16.35 10.2 15.4 L10.15 14.5 10.05 13.05 Q9.8 9.3 10.05 5.95 L10.35 4.9 10.7 4.3 10.85 4.05 11.4 3.4 11.55 3.25 11.55 3.2 Q12.4 2.3 13.4 2.05 12.85 2.45 12.7 3.85 12.6 5.3 13.05 7.4 13.45 9.45 14.05 9.5 L15.6 9.35 17.35 9.15 17.45 9.15 18.75 9.15 Q15.25 10.9 12.5 13.65 11.6 15.65 11.6 16.95 11.6 18.4 12.1 19.5 12.75 20.8 13.85 20.8 L17.15 19.95 20.1 19.3 20.15 19.25 21.05 19.15 23.25 19.35 Q26.85 19.9 29.4 22.45 32.9 25.9 32.9 31.55 32.9 35.15 31.6 37.4 L30.65 38.75 Q29.4 40.1 27.4 41.35 L27.6 41.45 27.6 41.55 29.4 41.9 Q31.15 41.9 33.45 40.8 L36.0 39.5 36.9 39.05 35.9 39.75 29.65 43.6 27.85 44.6 26.6 45.25 26.45 45.2 M38.35 18.15 L38.8 18.7 38.35 18.15 M10.3 16.15 L10.2 15.4 10.3 16.15 M9.95 18.6 L9.65 19.35 Q8.65 20.4 8.65 24.9 L8.8 27.15 8.95 29.0 Q8.5 30.8 8.8 32.9 L9.3 35.6 9.45 36.15 10.0 38.55 10.5 39.1 11.85 39.55 Q12.4 39.6 13.2 40.1 L14.4 40.7 14.4 40.55 12.95 38.2 12.2 36.75 11.6 35.05 Q10.85 32.55 10.85 30.7 L10.85 30.6 11.05 29.05 11.2 27.45 11.05 26.75 10.85 26.05 Q10.85 25.45 11.6 24.5 L12.3 23.35 Q12.3 22.8 11.55 21.95 10.65 21.0 10.5 20.4 L10.5 18.6 9.95 18.6 M13.2 29.95 L13.1 31.25 Q13.1 35.0 15.55 37.65 L16.35 38.4 Q18.4 40.2 21.1 40.25 L21.4 40.25 Q24.85 40.25 27.3 37.65 29.7 35.0 29.7 31.25 29.7 27.5 27.3 24.9 24.85 22.25 21.4 22.25 L19.15 22.55 Q17.15 23.15 15.55 24.9 13.55 27.05 13.2 29.95 M26.05 44.65 L25.95 44.45 25.95 44.65 26.05 44.65" fill="#68d4de" fill-rule="evenodd" stroke="none"/>
      <path d="M49.7 24.4 L50.9 25.6 Q52.45 27.7 52.55 30.55 52.7 33.5 51.35 35.55 L51.0 36.05 Q49.7 37.6 47.9 37.6 L46.8 37.45 Q45.4 37.05 44.3 35.55 42.7 33.5 42.6 30.55 42.45 27.85 43.65 25.9 L43.85 25.6 Q45.15 23.55 47.25 23.55 48.6 23.55 49.7 24.4 M44.65 30.0 L44.65 30.55 Q44.85 32.5 45.85 33.85 L46.05 34.15 Q46.95 35.25 48.05 35.25 49.25 35.25 50.05 33.85 50.8 32.5 50.65 30.55 50.45 28.6 49.5 27.2 48.5 25.85 47.25 25.85 46.6 25.85 46.05 26.25 L45.7 26.3 Q44.55 26.6 44.3 27.9 L44.25 28.65 Q44.25 29.4 44.4 29.65 L44.65 30.0 M19.15 25.1 L18.15 25.25 17.95 25.3 Q16.05 26.1 16.05 27.95 L16.05 28.05 16.2 28.9 Q15.95 29.85 15.95 31.0 15.95 33.65 17.55 35.55 19.2 37.45 21.45 37.45 23.75 37.45 25.35 35.55 26.95 33.65 26.95 31.0 26.95 28.3 25.35 26.4 23.75 24.5 21.45 24.5 20.2 24.5 19.15 25.1 M13.2 29.95 Q13.55 27.05 15.55 24.9 17.15 23.15 19.15 22.55 L21.4 22.25 Q24.85 22.25 27.3 24.9 29.7 27.5 29.7 31.25 29.7 35.0 27.3 37.65 24.85 40.25 21.4 40.25 L21.1 40.25 Q18.4 40.2 16.35 38.4 L15.55 37.65 Q13.1 35.0 13.1 31.25 L13.2 29.95" fill="#fdfe74" fill-rule="evenodd" stroke="none"/>
      <path d="M-0.35 40.2 L-0.35 39.75 Q0.15 40.1 0.75 40.3 L0.6 40.9 0.2 41.45 -0.35 40.2 M46.05 26.25 Q46.6 25.85 47.25 25.85 48.5 25.85 49.5 27.2 50.45 28.6 50.65 30.55 50.8 32.5 50.05 33.85 49.25 35.25 48.05 35.25 46.95 35.25 46.05 34.15 L45.85 33.85 Q44.85 32.5 44.65 30.55 L44.65 30.0 45.0 30.2 45.9 30.35 Q46.75 30.35 47.05 29.3 L47.15 28.25 Q47.15 26.25 46.05 26.25 M16.2 28.9 L16.35 29.1 Q16.8 29.8 17.6 29.8 19.25 29.8 19.9 28.35 L20.2 26.65 Q20.2 25.6 19.55 25.25 L19.15 25.1 Q20.2 24.5 21.45 24.5 23.75 24.5 25.35 26.4 26.95 28.3 26.95 31.0 26.95 33.65 25.35 35.55 23.75 37.45 21.45 37.45 19.2 37.45 17.55 35.55 15.95 33.65 15.95 31.0 15.95 29.85 16.2 28.9" fill="#0c5d54" fill-rule="evenodd" stroke="none"/>
      <path d="M50.75 42.05 L48.3 45.0 45.35 47.3 44.05 48.15 42.35 49.1 39.55 50.35 Q33.7 52.4 26.55 51.1 L25.3 50.85 24.45 49.55 Q23.8 48.3 23.6 47.0 L23.6 46.3 Q23.6 45.35 24.0 44.7 L24.65 44.0 26.45 45.2 27.2 46.25 Q27.8 47.0 28.8 47.0 L31.05 45.75 32.35 44.7 34.7 42.6 39.0 38.6 Q42.85 40.8 45.65 43.55 L45.8 43.4 45.95 43.85 Q46.35 44.8 46.7 44.8 47.2 44.8 48.15 44.2 L49.95 42.7 50.75 42.05" fill="#fefaee" fill-rule="evenodd" stroke="none"/>
      <path d="M1.4 47.3 Q1.1 49.5 -0.35 51.7 L-0.35 49.6 0.9 47.15 1.4 45.3 1.4 47.3 M9.05 17.45 L9.05 18.5 8.4 21.8 Q7.85 24.3 7.85 27.7 7.85 29.5 8.0 31.3 L8.55 35.3 8.6 35.7 Q9.05 38.35 10.05 40.7 L9.55 41.6 9.1 40.9 Q7.65 37.75 7.0 34.7 L6.7 32.55 6.5 30.6 6.55 28.55 Q6.9 21.8 9.05 17.45" fill="#b4ecee" fill-rule="evenodd" stroke="none"/>
      <path d="M14.8 46.35 L7.7 43.15 Q8.25 40.5 7.0 36.35 L6.65 35.25 6.4 35.9 Q5.85 36.95 4.9 37.2 L4.4 37.25 3.05 37.05 3.6 38.65 Q3.9 39.75 3.7 41.0 L3.7 41.3 2.85 43.25 Q2.25 44.15 1.25 44.4 L1.05 43.55 0.2 41.45 0.6 40.9 0.85 40.9 Q1.5 40.9 1.8 40.45 2.15 40.0 2.05 39.15 1.95 37.4 1.65 36.35 L1.25 34.8 1.15 34.45 2.5 34.9 3.7 34.8 Q4.4 34.6 4.9 34.2 L5.15 34.0 5.5 32.75 6.05 33.5 6.4 34.45 7.0 34.7 Q7.65 37.75 9.1 40.9 L9.55 41.6 10.7 43.0 Q12.35 44.75 14.8 46.35 M-0.35 30.35 L-0.35 24.85 0.55 24.7 1.25 24.8 2.6 26.65 3.35 27.8 3.45 28.5 2.2 28.35 Q1.1 28.35 0.5 28.85 -0.1 29.35 -0.15 30.4 L-0.25 30.4 -0.35 30.35 M6.65 35.25 L6.5 34.85 6.45 34.6 6.4 34.5 6.4 34.45 6.4 34.5 6.45 34.6 6.5 34.85 6.65 35.25" fill="#2ea8cf" fill-rule="evenodd" stroke="none"/>
      <path d="M-0.35 34.5 L-0.35 30.35 -0.25 30.4 -0.15 30.4 Q-0.1 29.35 0.5 28.85 1.1 28.35 2.2 28.35 L3.45 28.5 3.35 27.8 3.8 28.6 5.35 31.85 6.05 33.5 5.5 32.75 5.15 34.0 4.9 34.2 Q4.4 34.6 3.7 34.8 L2.5 34.9 1.15 34.45 1.25 34.8 1.65 36.35 Q1.95 37.4 2.05 39.15 2.15 40.0 1.8 40.45 1.5 40.9 0.85 40.9 L0.6 40.9 0.75 40.3 0.75 40.0 0.8 38.95 Q0.65 36.95 -0.35 34.5 M1.55 30.65 Q1.7 32.25 2.3 32.85 2.65 33.2 3.15 33.2 3.9 33.2 4.1 32.8 L4.15 32.3 Q4.15 30.75 2.85 29.7 1.55 28.7 1.55 30.65" fill="#95ebfd" fill-rule="evenodd" stroke="none"/>
      <path d="M7.7 43.15 Q7.0 46.65 3.2 47.45 L1.4 47.3 1.4 45.3 1.25 44.4 Q2.25 44.15 2.85 43.25 L3.7 41.3 3.7 41.0 Q3.9 39.75 3.6 38.65 L3.05 37.05 4.4 37.25 4.9 37.2 Q5.85 36.95 6.4 35.9 L6.65 35.25 7.0 36.35 Q8.25 40.5 7.7 43.15" fill="#68b8ff" fill-rule="evenodd" stroke="none"/>
      <path d="M-0.35 39.75 L-0.35 34.5 Q0.65 36.95 0.8 38.95 L0.75 40.0 0.75 40.3 Q0.15 40.1 -0.35 39.75" fill="#0881ba" fill-rule="evenodd" stroke="none"/>
      <path d="M-0.35 24.85 L-0.35 23.05 1.25 24.8 0.55 24.7 -0.35 24.85" fill="#1fd2fb" fill-rule="evenodd" stroke="none"/>
      <path d="M14.8 46.35 L7.7 43.15 Q7.0 46.65 3.2 47.45 L1.4 47.3 M28.1 0.0 L30.25 2.1 34.2 6.3 M23.0 6.35 L30.25 2.1 M18.4 2.05 L21.1 5.0 M1.6 0.0 L4.85 4.2 5.55 3.6 M-0.35 13.15 L4.3 19.35 Q6.75 15.95 10.05 13.05 M3.35 27.8 L2.6 26.65 1.25 24.8 -0.35 23.05 M3.35 27.8 L3.8 28.6 5.35 31.85 6.05 33.5 6.4 34.45 7.0 34.7 M6.4 34.45 L6.4 34.5 6.45 34.6 6.5 34.85 6.65 35.25 7.0 36.35 Q8.25 40.5 7.7 43.15 M-0.35 34.5 Q0.65 36.95 0.8 38.95 L0.75 40.0 0.75 40.3 0.6 40.9 0.2 41.45" fill="none" stroke="#27717f" stroke-linecap="round" stroke-linejoin="round" stroke-width="1.0"/>
      <path d="M45.8 6.65 L47.95 5.0 Q50.0 2.9 50.05 0.0 M41.0 3.9 Q41.6 4.2 42.0 4.85 L42.5 5.5 42.6 5.65 M46.6 15.5 Q48.75 19.3 49.7 24.4 L50.9 25.6 Q52.45 27.7 52.55 30.55 52.7 33.5 51.35 35.55 L51.0 36.05 52.1 38.8 Q51.75 40.45 50.75 42.05 L48.3 45.0 45.35 47.3 44.05 48.15 42.35 49.1 39.55 50.35 Q33.7 52.4 26.55 51.1 L25.3 50.85 24.25 50.6 23.8 50.5 22.15 50.0 21.15 49.6 19.35 48.8 18.2 48.25 17.6 47.95 14.8 46.35 Q12.35 44.75 10.7 43.0 L9.55 41.6 10.05 40.7 Q10.5 40.25 11.1 40.4 L16.45 44.25 16.75 44.45 16.8 44.45 Q19.45 42.65 21.55 42.1 L24.65 44.0 26.45 45.2 26.6 45.25 27.85 44.6 29.65 43.6 35.9 39.75 36.9 39.05 M1.4 47.3 Q1.1 49.5 -0.35 51.7 M34.2 6.3 L36.15 4.4 Q34.7 2.55 34.55 0.0 M34.7 6.65 L33.95 6.55 Q28.4 5.5 23.5 6.7 L24.15 7.2 M51.0 36.05 Q49.7 37.6 47.9 37.6 L46.8 37.45 Q45.4 37.05 44.3 35.55 42.7 33.5 42.6 30.55 42.45 27.85 43.65 25.9 L43.85 25.6 Q45.15 23.55 47.25 23.55 48.6 23.55 49.7 24.4 M45.8 43.4 L45.65 43.55 Q42.85 40.8 39.0 38.6 L38.1 38.25 37.05 38.95 M52.1 38.8 L45.8 43.4 M37.95 3.6 L38.75 3.5 38.95 3.5 Q40.15 3.45 41.0 3.9 M37.0 3.85 L37.65 3.7 37.95 3.6 M36.15 4.4 Q36.5 4.1 37.0 3.85 M39.25 8.35 L39.5 8.5 M34.2 6.3 L33.95 6.55 M23.5 6.7 L23.0 6.35 21.1 5.0 Q19.45 3.85 17.75 2.95 L17.2 2.65 16.9 2.55 16.65 2.45 15.65 2.2 14.85 2.05 Q14.1 1.9 13.4 2.05 12.4 2.3 11.55 3.2 L11.55 3.25 11.4 3.4 10.85 4.05 10.7 4.3 10.35 4.9 10.05 5.95 Q9.8 9.3 10.05 13.05 L10.15 14.5 10.2 15.4 10.3 16.15 M19.25 0.0 L18.4 2.05 17.75 2.95 M5.55 3.6 L5.6 3.65 Q7.5 5.55 10.05 5.95 M5.55 3.6 Q3.95 2.0 3.45 0.0 M9.05 17.45 Q6.9 21.8 6.55 28.55 L6.5 30.6 6.7 32.55 7.0 34.7 Q7.65 37.75 9.1 40.9 L9.55 41.6 M9.05 17.45 Q9.55 16.35 10.2 15.4 M13.2 29.95 L13.1 31.25 Q13.1 35.0 15.55 37.65 L16.35 38.4 Q18.4 40.2 21.1 40.25 L21.4 40.25 Q24.85 40.25 27.3 37.65 29.7 35.0 29.7 31.25 29.7 27.5 27.3 24.9 24.85 22.25 21.4 22.25 L19.15 22.55 Q17.15 23.15 15.55 24.9 13.55 27.05 13.2 29.95 M1.25 44.4 L1.4 45.3 1.4 47.3 M0.2 41.45 L1.05 43.55 1.25 44.4 M0.2 41.45 L-0.35 40.2" fill="none" stroke="#1f6d7b" stroke-linecap="round" stroke-linejoin="round" stroke-width="1.0"/>
      <path d="M44.95 6.15 L45.8 6.65 Q47.6 8.1 47.9 11.7 L47.9 11.95 47.4 14.25 46.7 15.35 46.6 15.5 Q45.8 16.3 44.6 16.45 L43.15 16.55 42.65 16.45 40.8 16.05 40.55 16.0 40.2 16.0 M44.4 5.9 L44.95 6.15 M42.6 5.65 L42.55 5.65 Q40.85 5.75 39.65 6.8 39.45 6.95 39.2 7.2 L39.3 7.7 M42.6 5.65 L44.4 5.9 M38.8 9.4 L37.75 10.5 M44.75 18.6 Q44.95 17.65 44.6 16.45 M44.75 18.6 Q44.55 19.8 43.3 20.5 L40.7 20.35 Q39.8 19.85 38.8 18.7 L38.35 18.15 M34.55 8.8 Q34.45 7.5 34.7 6.7 L34.7 6.65 Q34.9 5.9 35.4 5.55 37.2 4.0 38.45 5.65 L38.8 6.15 39.2 7.2 M34.55 8.8 L34.7 10.15 M38.8 9.4 L39.25 8.35" fill="none" stroke="#206d7b" stroke-linecap="round" stroke-linejoin="round" stroke-width="1.0"/>
    </g>
    <g id="shape2" transform="matrix(1.0, 0.0, 0.0, 1.0, 0.0, 0.0)">
      <path d="M50.5 0.0 Q53.95 0.0 53.95 3.3 L53.95 50.15 Q53.95 53.4 50.5 53.4 L3.3 53.4 Q0.0 53.4 0.0 50.15 L0.0 3.3 Q0.0 0.0 3.3 0.0 L50.5 0.0" fill="#000000" fill-opacity="0.003921569" fill-rule="evenodd" stroke="none"/>
    </g>
  </defs>
</svg>
