<?xml version="1.0" encoding="UTF-8" standalone="no"?>
<svg xmlns:ffdec="https://www.free-decompiler.com/flash" xmlns:xlink="http://www.w3.org/1999/xlink" ffdec:objectType="frame" height="56.4px" width="57.75px" xmlns="http://www.w3.org/2000/svg">
  <g transform="matrix(1.0, 0.0, 0.0, 1.0, 1.9, 0.5)">
    <clipPath id="clipPath0" transform="matrix(1.0, 0.0, 0.0, 1.0, 0.0, 0.0)">
      <path d="M50.5 0.0 Q53.95 0.0 53.95 3.3 L53.95 50.15 Q53.95 53.4 50.5 53.4 L3.3 53.4 Q0.0 53.4 0.0 50.15 L0.0 3.3 Q0.0 0.0 3.3 0.0 L50.5 0.0" fill="#000000" fill-rule="evenodd" stroke="none"/>
    </clipPath>
    <g clip-path="url(#clipPath0)">
      <use ffdec:characterId="2" height="56.4" transform="matrix(1.0, 0.0, 0.0, 1.0, -1.9, -0.5)" width="57.75" xlink:href="#shape1"/>
    </g>
    <use ffdec:characterId="3" height="53.4" transform="matrix(1.0, 0.0, 0.0, 1.0, 0.0, 0.0)" width="53.95" xlink:href="#shape2"/>
  </g>
  <defs>
    <g id="shape1" transform="matrix(1.0, 0.0, 0.0, 1.0, 1.9, 0.5)">
      <path d="M19.85 12.25 L20.6 10.95 20.95 10.95 21.3 10.95 Q23.1 13.25 25.3 17.8 L25.5 18.15 25.95 19.1 25.0 17.9 24.25 17.0 24.05 16.75 23.45 16.05 21.75 13.6 21.05 12.65 20.65 12.05 20.5 12.2 19.55 13.2 19.15 13.65 19.25 13.3 19.85 12.25 M37.4 12.65 Q39.2 10.2 40.75 8.95 L40.9 9.05 42.4 10.2 43.9 12.2 44.7 14.0 Q45.45 16.15 45.75 18.7 L44.65 19.9 43.9 20.7 41.7 22.6 41.65 22.65 40.75 22.45 39.1 21.6 38.5 21.35 37.7 20.95 36.45 19.5 36.2 19.2 36.1 19.05 34.7 17.5 34.95 18.25 35.7 20.15 33.55 19.3 31.7 18.6 Q30.9 18.4 29.3 16.55 L28.1 15.1 25.75 11.75 29.05 12.8 31.7 13.75 33.9 14.7 35.45 15.45 Q35.3 16.35 35.6 16.65 L35.65 16.7 Q35.8 17.25 37.25 18.1 38.65 18.9 39.9 18.75 L40.9 18.55 41.85 18.0 42.4 17.15 42.5 16.6 42.4 16.05 41.85 15.1 Q41.5 14.7 40.9 14.6 L40.3 14.5 39.9 14.6 39.7 14.65 39.55 14.65 39.55 15.2 39.6 15.35 40.9 15.4 41.05 15.45 Q41.5 15.8 41.5 16.45 41.5 16.95 40.9 17.4 L39.75 17.8 38.55 17.7 38.1 17.55 37.7 17.4 36.9 16.65 Q36.3 15.85 36.3 14.65 L36.3 14.25 37.0 13.2 37.4 12.65 M32.4 11.7 L31.45 11.95 30.7 11.85 30.0 11.45 29.8 11.15 30.05 10.85 Q30.1 10.75 30.3 10.7 L31.45 10.7 32.15 10.95 32.55 11.3 32.4 11.7 M30.65 33.1 L30.65 33.05 30.5 32.55 31.15 32.7 31.55 32.8 31.65 32.8 32.75 33.0 32.75 33.75 32.8 35.5 32.8 35.55 32.8 35.8 32.75 35.8 Q32.25 35.8 31.5 34.5 L30.65 33.1 M36.7 26.3 L36.7 26.4 36.65 26.75 Q36.65 27.35 37.05 27.85 L37.7 28.3 Q38.25 28.3 38.55 27.45 L38.75 26.9 39.25 27.35 39.25 27.6 39.35 28.05 39.35 28.7 39.2 28.7 38.65 28.8 37.8 29.05 36.2 29.3 Q34.35 29.3 33.4 26.9 L35.25 26.5 36.7 26.3 M38.25 26.95 L38.15 26.95 Q37.95 26.95 37.85 26.8 L37.8 26.6 37.95 26.2 38.2 26.2 38.45 26.55 38.25 26.95" fill="#ffffff" fill-rule="evenodd" stroke="none"/>
      <path d="M21.3 10.95 L22.8 11.1 24.75 11.5 25.75 11.75 28.1 15.1 29.3 16.55 Q30.9 18.4 31.7 18.6 L33.55 19.3 35.7 20.15 34.95 18.25 34.7 17.5 36.1 19.05 36.2 19.2 36.45 19.5 37.7 20.95 38.5 21.35 39.1 21.6 40.75 22.45 41.65 22.65 Q40.65 23.3 39.85 23.3 L38.55 23.05 38.35 23.05 35.4 22.1 32.8 21.3 31.15 20.75 26.1 19.25 26.0 19.25 25.95 19.25 26.0 19.3 Q25.6 20.3 25.15 22.0 24.4 25.15 24.5 27.95 L24.6 28.05 23.85 28.1 20.25 27.45 17.95 26.6 17.1 25.75 16.85 24.25 16.8 22.95 Q16.8 21.2 17.15 19.5 17.65 16.65 19.1 13.75 L19.1 13.65 19.15 13.65 19.55 13.2 20.5 12.2 20.65 12.05 21.05 12.65 21.75 13.6 23.45 16.05 24.05 16.75 24.25 17.0 25.0 17.9 25.95 19.1 25.5 18.15 25.3 17.8 Q23.1 13.25 21.3 10.95 M46.25 55.4 L38.4 55.4 38.15 55.0 37.45 53.6 37.3 53.25 37.65 53.0 37.95 52.8 38.2 52.6 39.6 51.85 Q40.7 52.2 41.8 53.05 L42.55 53.7 44.25 55.25 46.65 53.95 46.8 53.85 46.65 54.4 46.3 55.3 46.25 55.4 M43.8 32.0 L41.3 34.95 40.8 35.45 40.4 35.9 40.6 34.65 40.65 33.8 40.45 33.6 42.3 32.7 43.8 32.0 M32.4 40.9 L32.35 40.35 32.2 39.45 31.95 38.1 31.75 37.2 31.7 36.9 31.65 36.65 31.55 36.3 31.55 36.25 31.1 34.55 30.8 33.4 30.65 33.1 31.5 34.5 Q32.25 35.8 32.75 35.8 L32.8 35.8 32.8 35.95 32.8 36.05 32.8 36.2 32.8 36.25 32.8 37.1 32.75 38.1 32.6 39.5 32.55 40.0 32.5 40.35 32.45 40.95 32.4 40.95 32.4 40.9 M29.2 49.75 L29.75 49.85 31.5 49.85 31.75 49.8 Q32.6 49.65 33.3 49.1 L33.8 48.7 34.1 48.35 34.35 48.9 34.35 48.95 35.3 50.85 36.5 51.1 38.35 51.65 38.7 51.7 38.3 51.9 38.05 52.05 37.3 52.55 37.25 52.55 36.95 52.45 35.95 52.2 35.0 51.9 30.5 50.3 30.0 50.1 29.2 49.75" fill="#b3a4f6" fill-rule="evenodd" stroke="none"/>
      <path d="M15.55 32.3 Q17.8 34.0 20.2 34.4 L20.4 34.6 Q21.0 33.75 21.45 33.75 L22.45 33.85 22.2 34.6 Q22.4 35.15 24.55 35.85 L28.95 36.45 29.35 36.45 29.8 37.35 27.55 37.4 26.2 37.4 25.9 37.35 25.85 37.5 26.8 37.7 30.15 38.1 30.95 39.35 26.65 38.8 Q24.9 40.9 24.4 40.9 L21.35 39.75 21.15 39.7 20.9 39.2 17.8 41.95 Q17.95 40.7 18.4 39.6 L19.4 37.65 19.45 37.55 18.85 37.25 16.4 35.65 16.15 35.45 16.05 35.4 Q15.5 34.25 15.5 32.8 L15.55 32.3 M7.2 44.5 L9.05 43.8 9.2 43.75 9.35 44.05 8.45 44.95 7.2 44.5 M13.45 52.95 L13.55 53.35 14.0 55.4 12.5 55.4 12.6 54.95 13.1 54.35 13.1 53.85 12.25 53.85 11.9 53.7 11.8 53.7 9.75 53.55 8.05 52.9 6.85 52.4 6.85 52.45 6.25 51.85 5.05 50.55 5.05 50.65 5.85 52.25 6.6 53.3 6.45 54.1 Q6.45 54.8 6.75 55.4 L0.4 55.4 0.2 53.7 0.4 51.9 Q1.5 50.65 2.55 49.95 4.05 49.0 5.85 48.5 L5.55 49.15 Q5.65 51.15 8.5 52.4 10.6 53.3 12.25 53.3 L13.05 53.3 13.45 52.95 M31.7 40.3 L32.4 40.9 32.4 40.95 29.35 41.65 Q29.0 42.4 29.0 43.9 29.0 44.85 29.15 45.55 L28.9 45.35 Q27.5 44.45 27.5 42.65 27.5 41.6 28.05 40.55 L28.25 40.3 30.3 40.3 31.55 40.3 31.7 40.3 M32.8 37.1 L32.8 36.25 32.8 36.2 32.85 36.25 33.9 36.65 32.85 37.05 32.8 37.1 M20.4 34.6 L20.8 35.05 20.4 34.6 M20.8 35.05 L20.9 35.2 20.95 34.75 20.9 34.75 20.8 35.05 M21.85 36.45 L20.9 35.2 21.85 36.45 21.95 36.6 22.35 37.15 21.65 38.25 21.2 38.9 22.35 38.85 Q24.15 38.8 24.15 38.35 24.15 37.8 22.5 36.8 L21.95 36.5 21.85 36.45 M20.9 39.2 L21.2 38.9 20.9 39.2 M35.4 40.4 L35.05 40.5 34.5 40.6 32.45 40.95 32.5 40.35 35.05 40.4 35.4 40.4 M37.15 37.4 L37.3 38.0 37.65 39.6 35.6 39.75 34.95 39.7 32.6 39.5 32.75 38.1 34.6 37.65 35.05 37.35 35.35 37.6 36.4 38.65 36.55 38.65 36.55 38.15 36.25 37.5 36.6 37.5 37.15 37.4" fill="#616195" fill-rule="evenodd" stroke="none"/>
      <path d="M-1.4 31.85 L0.55 31.65 Q1.95 31.65 2.9 32.65 L3.25 33.0 3.3 33.05 3.35 33.1 3.4 33.15 Q3.85 33.9 3.85 34.75 3.85 35.45 3.15 36.25 2.45 37.05 1.85 37.05 L1.65 37.05 1.95 36.3 Q1.95 34.75 -0.6 34.75 L-1.3 34.8 -1.4 34.9 -1.4 31.85 M-1.4 35.65 L-1.05 35.9 -0.85 36.15 -0.15 36.85 1.4 39.0 1.8 39.8 2.0 40.15 2.3 40.8 2.4 41.0 2.65 41.6 2.85 42.1 2.9 42.25 3.15 42.95 3.15 43.1 4.25 43.1 7.0 42.7 7.05 42.7 7.3 42.65 8.25 42.4 8.6 42.3 8.7 42.3 9.1 42.15 10.25 41.7 13.0 40.5 Q13.1 40.0 13.5 39.45 L14.15 38.65 Q15.3 37.4 16.55 37.2 L16.6 37.75 Q16.6 38.2 14.65 39.0 L14.05 39.85 13.55 40.8 10.9 41.75 9.05 42.35 8.95 42.4 8.7 42.45 8.55 42.5 7.7 42.8 7.15 42.95 7.0 42.7 6.85 42.75 4.65 43.5 3.75 43.75 2.55 43.75 2.2 42.6 2.1 42.3 1.6 42.35 0.7 42.4 -1.4 42.35 -1.4 35.65 M50.65 28.65 L51.4 29.2 52.4 30.1 54.2 31.9 55.35 33.3 55.35 39.0 55.15 38.8 Q52.6 35.95 50.65 35.95 50.3 35.95 49.75 37.5 L49.4 38.7 48.9 38.3 48.9 37.9 Q48.9 35.3 51.05 31.95 L51.45 31.35 51.5 31.3 51.7 31.0 51.55 30.9 51.45 30.85 51.25 30.75 50.65 30.5 50.95 30.1 50.4 29.45 49.6 28.7 50.15 28.65 50.65 28.65 M55.35 40.7 L55.35 40.85 54.85 40.9 54.75 40.9 55.35 40.7 M48.1 47.4 L48.1 47.5 48.1 48.0 47.85 50.0 47.75 49.9 46.35 49.5 46.0 49.55 44.3 49.75 44.2 49.8 Q42.15 50.15 40.3 50.95 L38.7 51.7 38.35 51.65 36.5 51.1 35.3 50.85 34.35 48.95 34.35 48.9 34.1 48.35 Q34.85 47.5 34.9 46.6 L34.8 45.4 36.45 44.8 39.6 43.3 Q40.35 42.9 41.95 41.2 L43.35 41.25 45.05 43.95 46.55 45.9 48.1 47.4 M51.75 50.15 L52.7 50.7 Q53.6 51.85 53.8 52.85 L55.35 54.5 55.35 55.4 48.45 55.4 47.95 55.3 48.15 55.4 47.3 55.4 47.4 55.4 49.05 54.7 49.95 54.35 50.2 54.2 Q52.05 53.2 52.05 52.1 L51.75 50.15 M10.5 55.4 L10.4 55.4 9.8 54.9 9.3 54.25 11.45 54.45 11.05 55.0 10.5 55.4 M38.05 31.5 L38.55 31.1 Q39.5 30.55 40.75 30.2 L43.2 29.7 43.7 29.65 43.95 29.6 44.05 30.5 44.1 31.6 43.8 32.0 42.3 32.7 40.45 33.6 40.3 33.6 39.95 33.5 39.65 33.45 38.45 33.25 37.05 32.85 35.7 32.4 35.95 32.2 36.6 32.25 38.05 31.5 M36.95 52.45 L37.25 52.55 37.15 52.55 37.0 52.65 36.95 52.45 M39.6 51.85 Q40.85 51.25 42.25 50.85 L42.5 50.8 Q44.45 50.25 45.85 50.25 L47.05 50.4 47.65 50.6 47.75 50.65 47.15 52.85 46.8 53.85 46.65 53.95 44.25 55.25 42.55 53.7 41.8 53.05 Q40.7 52.2 39.6 51.85" fill="#edf0ff" fill-rule="evenodd" stroke="none"/>
      <path d="M39.05 6.55 Q39.6 5.8 39.85 5.7 L39.4 5.6 37.6 5.7 33.1 5.1 33.1 5.0 34.65 4.5 35.4 4.3 36.7 4.0 34.9 3.25 31.75 2.05 Q27.25 0.5 21.7 0.75 L23.3 0.1 23.45 0.05 24.4 0.05 31.35 0.85 32.25 1.0 34.3 1.3 40.7 1.85 44.1 1.15 45.0 0.9 Q44.25 2.9 43.35 4.1 42.05 5.8 40.45 6.2 L39.05 6.55" fill="#ffbd6d" fill-rule="evenodd" stroke="none"/>
      <path d="M-1.4 28.45 L-0.95 28.2 Q3.15 26.1 8.2 25.65 9.1 25.95 10.35 26.6 L11.6 27.45 Q11.85 28.3 12.55 29.25 L14.25 31.2 15.55 32.3 15.5 32.8 Q15.5 34.25 16.05 35.4 L16.05 35.45 16.2 35.75 16.9 36.75 17.0 36.85 17.4 37.25 16.95 37.15 16.55 37.2 Q15.3 37.4 14.15 38.65 L13.5 39.45 Q13.1 40.0 13.0 40.5 L10.25 41.7 9.1 42.15 8.7 42.3 8.6 42.3 8.25 42.4 7.3 42.65 7.05 42.7 7.0 42.7 4.25 43.1 3.15 43.1 3.15 42.95 2.9 42.25 2.85 42.1 2.65 41.6 2.4 41.0 2.3 40.8 2.0 40.15 1.8 39.8 1.4 39.0 -0.15 36.85 -0.85 36.15 -1.05 35.9 -1.4 35.65 -1.4 34.9 -1.3 34.8 -0.6 34.75 Q1.95 34.75 1.95 36.3 L1.65 37.05 1.85 37.05 Q2.45 37.05 3.15 36.25 3.85 35.45 3.85 34.75 3.85 33.9 3.4 33.15 4.0 33.8 4.0 34.75 4.0 35.65 3.45 36.45 2.75 37.4 1.7 37.4 L1.25 37.3 1.45 36.85 1.65 36.5 1.65 36.4 1.65 36.25 1.35 35.65 1.05 35.4 Q0.55 35.05 -0.1 35.05 L-1.0 35.25 Q-0.1 35.95 0.75 37.2 L1.95 39.2 2.0 39.25 2.35 40.0 2.5 40.35 2.8 41.0 3.35 42.15 5.15 41.85 6.15 41.65 6.65 41.55 7.7 41.25 8.3 41.1 9.4 40.8 10.4 40.45 13.05 39.65 Q14.05 37.55 16.5 36.9 L16.45 36.7 15.6 35.3 15.15 34.75 14.5 34.0 14.35 33.8 Q12.15 31.45 11.9 30.55 L11.25 29.25 10.8 28.85 8.6 28.4 5.85 28.0 3.6 28.15 3.15 28.2 1.8 28.4 Q0.05 29.55 -1.4 31.5 L-1.4 28.45 M23.65 31.2 L22.65 31.5 21.95 31.8 Q19.65 30.85 17.05 28.55 13.8 25.7 12.85 22.55 13.75 23.15 15.4 23.8 15.4 22.45 15.75 21.0 L16.15 19.35 Q16.75 17.5 17.95 15.5 L19.1 13.75 Q17.65 16.65 17.15 19.5 16.8 21.2 16.8 22.95 L16.85 24.25 17.1 25.75 17.95 26.6 Q20.7 29.25 23.75 30.95 L24.0 31.1 23.65 31.2 M42.65 27.55 L43.3 27.0 44.65 26.75 45.95 26.55 47.25 26.85 49.6 28.7 Q49.05 28.75 48.65 29.05 47.95 29.5 47.95 30.6 47.95 31.65 48.8 32.45 48.5 31.5 49.05 30.9 49.5 30.45 50.15 30.45 L50.65 30.5 51.25 30.75 51.45 30.85 51.55 30.9 51.7 31.0 51.5 31.3 51.45 31.35 51.05 31.95 Q48.9 35.3 48.9 37.9 L48.9 38.3 49.0 38.6 48.6 38.5 46.45 37.7 46.1 37.55 45.9 37.05 45.4 37.05 44.9 37.1 43.7 36.6 43.5 36.25 Q42.6 34.95 41.3 34.95 L43.8 32.0 44.1 31.6 44.05 30.5 43.95 29.6 43.7 29.65 42.5 28.05 42.65 27.55 M35.5 55.4 L34.5 55.4 34.5 55.25 34.35 54.7 34.15 54.35 33.6 53.55 32.6 54.05 32.4 54.15 31.75 54.5 30.8 55.35 30.9 55.35 31.05 55.4 30.1 55.4 30.1 54.85 30.45 54.6 31.95 53.8 32.25 53.65 34.0 52.9 34.65 54.15 35.25 55.05 35.5 55.4 M27.3 55.4 L23.6 55.4 21.55 54.65 Q18.45 53.45 17.6 51.85 18.6 51.45 19.65 50.25 L20.3 49.45 21.2 47.7 21.4 47.15 21.45 46.85 21.6 46.2 21.65 45.95 21.9 46.3 22.2 47.0 22.25 47.15 22.3 47.5 22.45 48.15 22.45 48.25 22.25 50.15 22.15 50.9 Q24.1 51.9 28.9 52.95 L30.15 53.25 Q29.0 53.85 28.05 54.75 L27.3 55.4 M35.45 15.45 L33.9 14.7 31.7 13.75 34.45 14.0 35.25 13.0 36.2 12.15 Q36.25 12.05 36.35 12.05 L36.4 12.05 36.7 12.2 37.4 12.65 37.0 13.2 36.3 14.25 35.9 14.85 35.75 15.1 35.5 15.5 35.45 15.45 M51.35 31.15 L51.0 30.9 50.55 30.65 50.25 31.25 49.0 33.35 Q48.15 33.7 47.65 33.95 L46.85 34.5 Q46.85 36.25 48.55 37.95 48.55 36.6 49.15 35.0 49.9 33.1 51.35 31.15 M30.95 39.35 L31.7 40.3 31.55 40.3 30.3 40.3 28.25 40.3 27.5 40.3 27.15 40.85 26.0 43.4 25.5 44.7 25.2 44.2 24.2 42.6 24.15 42.5 22.75 42.1 22.05 41.95 21.9 41.5 21.45 40.4 21.15 39.7 21.35 39.75 24.4 40.9 Q24.9 40.9 26.65 38.8 L30.95 39.35 M21.3 44.4 L21.8 43.1 22.15 43.1 22.15 44.1 21.95 44.55 Q21.65 45.15 21.65 45.5 L21.3 44.4 M37.0 40.4 L36.9 40.45 35.4 40.4 35.05 40.4 32.5 40.35 32.55 40.0 32.6 39.5 34.95 39.7 35.6 39.75 37.65 39.6 37.7 39.8 37.75 40.05 37.0 40.4 M26.15 53.3 L24.4 53.3 24.1 53.3 Q24.75 54.05 26.35 54.85 L28.25 53.85 Q27.85 53.45 26.15 53.3" fill="#562c6b" fill-rule="evenodd" stroke="none"/>
      <path d="M-1.4 11.45 L-1.4 9.95 2.45 7.65 7.05 4.9 8.3 4.25 13.8 1.85 15.8 1.15 17.2 0.8 20.3 0.25 23.45 0.05 23.3 0.1 21.7 0.75 Q27.25 0.5 31.75 2.05 L34.9 3.25 36.7 4.0 35.4 4.3 34.65 4.5 33.1 5.0 33.1 5.1 37.6 5.7 39.4 5.6 39.85 5.7 Q39.6 5.8 39.05 6.55 L37.7 6.9 37.65 6.95 Q36.25 7.35 35.9 7.65 L35.7 7.95 35.1 8.25 33.65 9.3 32.7 9.05 31.3 8.8 25.65 9.3 26.45 8.7 25.2 8.45 Q24.2 8.2 23.95 7.9 L26.6 7.0 28.85 6.2 24.6 4.75 20.25 2.9 Q21.4 2.3 23.35 1.85 L24.05 1.7 23.25 1.7 Q20.4 1.7 14.4 3.55 8.4 5.4 5.55 7.2 L-1.4 11.45" fill="#fa3235" fill-rule="evenodd" stroke="none"/>
      <path d="M12.85 22.55 L12.5 21.0 Q12.8 19.8 13.3 18.85 13.85 17.5 14.65 16.4 L14.35 17.5 15.1 16.6 17.5 14.4 18.25 13.85 19.25 13.3 19.15 13.65 19.1 13.65 19.1 13.75 17.95 15.5 Q16.75 17.5 16.15 19.35 L15.75 21.0 Q15.4 22.45 15.4 23.8 13.75 23.15 12.85 22.55 M31.7 13.75 L29.05 12.8 25.75 11.75 24.75 11.5 26.2 11.3 28.9 10.95 28.7 11.05 28.55 11.4 Q28.55 11.9 30.0 12.35 L31.85 12.7 32.95 12.4 Q33.55 12.05 33.55 11.65 L33.55 11.55 33.55 11.5 33.3 11.3 33.65 11.4 34.75 11.75 36.2 12.15 35.25 13.0 34.45 14.0 31.7 13.75" fill="#bf58ff" fill-rule="evenodd" stroke="none"/>
      <path d="M17.85 13.35 L19.85 12.25 19.25 13.3 18.25 13.85 17.5 14.4 15.1 16.6 14.35 17.5 14.65 16.4 Q16.0 14.65 17.85 13.35 M22.8 11.1 Q25.9 10.2 29.4 10.2 31.55 10.2 33.9 11.0 L34.45 11.2 34.7 11.3 Q35.6 11.65 36.35 12.05 36.25 12.05 36.2 12.15 L34.75 11.75 33.65 11.4 33.3 11.3 33.55 11.5 33.55 11.55 33.55 11.65 Q33.55 12.05 32.95 12.4 L31.85 12.7 30.0 12.35 Q28.55 11.9 28.55 11.4 L28.7 11.05 28.9 10.95 26.2 11.3 24.75 11.5 22.8 11.1 M48.85 34.65 L48.3 35.5 47.8 34.6 Q47.8 34.45 49.05 33.8 L48.85 34.65 M32.4 11.7 L32.55 11.3 32.15 10.95 31.45 10.7 30.3 10.7 Q30.1 10.75 30.05 10.85 L29.8 11.15 30.0 11.45 30.7 11.85 31.45 11.95 32.4 11.7" fill="#ffe5ff" fill-rule="evenodd" stroke="none"/>
      <path d="M-1.4 11.45 L5.55 7.2 Q8.4 5.4 14.4 3.55 20.4 1.7 23.25 1.7 L24.05 1.7 23.35 1.85 Q21.4 2.3 20.25 2.9 L24.6 4.75 28.85 6.2 26.6 7.0 23.95 7.9 Q24.2 8.2 25.2 8.45 L26.45 8.7 25.65 9.3 31.3 8.8 32.7 9.05 33.65 9.3 35.1 8.25 35.7 7.95 33.9 11.0 Q31.55 10.2 29.4 10.2 25.9 10.2 22.8 11.1 L21.3 10.95 20.95 10.95 20.6 10.95 19.85 12.25 17.85 13.35 15.8 11.4 Q14.7 10.55 13.6 10.55 9.6 10.55 0.25 15.2 -0.65 15.65 -1.4 16.05 L-1.4 11.45" fill="#950d0f" fill-rule="evenodd" stroke="none"/>
      <path d="M22.45 33.85 L23.15 32.6 23.65 31.2 24.0 31.1 24.3 31.25 24.35 31.25 26.8 32.6 27.9 33.55 28.25 34.05 28.55 34.65 28.75 35.15 28.95 35.6 29.35 36.45 28.95 36.45 24.55 35.85 Q22.4 35.15 22.2 34.6 L22.45 33.85 M9.2 43.75 L12.35 42.3 13.35 42.15 15.9 41.9 17.75 42.0 17.8 41.95 20.9 39.2 21.15 39.7 21.45 40.4 21.9 41.5 22.05 41.95 21.8 43.1 21.3 44.4 20.95 45.15 20.05 46.7 18.15 47.6 Q17.7 49.1 16.2 50.7 L15.6 51.3 15.25 51.6 15.0 51.8 14.3 50.45 11.85 47.6 Q10.2 46.0 8.85 46.0 8.25 46.0 6.9 46.7 L7.65 45.75 8.45 44.95 9.35 44.05 9.2 43.75 M51.0 49.25 L51.5 49.6 51.75 50.15 52.05 52.1 Q52.05 53.2 50.2 54.2 L49.95 54.35 49.05 54.7 47.4 55.4 47.3 55.4 46.25 55.4 46.3 55.3 46.4 55.25 46.6 55.2 46.75 55.15 48.65 54.35 49.3 54.1 49.55 53.95 Q51.4 52.95 51.4 51.85 L51.0 49.25 M14.35 52.2 L13.5 52.9 13.45 52.95 13.05 53.3 12.25 53.3 Q10.6 53.3 8.5 52.4 5.65 51.15 5.55 49.15 L5.85 48.5 5.95 48.3 Q6.05 50.55 10.3 51.6 L14.35 52.2 M38.85 37.45 L41.1 37.25 42.2 37.7 Q41.25 38.05 40.25 38.55 L37.75 40.05 37.7 39.8 37.65 39.6 37.3 38.0 37.15 37.4 37.65 37.1 38.4 37.85 38.5 37.75 38.85 37.45 M17.4 37.25 L17.5 37.25 17.5 37.4 17.4 37.25 M38.7 51.7 L40.3 50.95 Q42.15 50.15 44.2 49.8 L44.3 49.75 46.0 49.55 46.35 49.5 47.75 49.9 47.85 50.0 47.8 50.5 47.75 50.65 47.65 50.6 47.05 50.4 45.85 50.25 Q44.45 50.25 42.5 50.8 L42.25 50.85 Q40.85 51.25 39.6 51.85 L38.2 52.6 37.95 52.8 37.65 53.0 37.3 53.25 37.1 52.8 37.0 52.65 37.15 52.55 37.25 52.55 37.3 52.55 38.05 52.05 38.3 51.9 38.7 51.7" fill="#192144" fill-rule="evenodd" stroke="none"/>
      <path d="M16.55 37.2 L16.95 37.15 17.4 37.25 17.0 36.85 16.9 36.75 16.2 35.75 16.05 35.45 16.05 35.4 16.15 35.45 16.4 35.65 18.85 37.25 19.45 37.55 19.4 37.65 18.4 39.6 Q17.95 40.7 17.8 41.95 L17.75 42.0 15.9 41.9 13.35 42.15 12.35 42.3 9.2 43.75 9.05 43.8 7.2 44.5 Q4.6 45.4 1.95 45.9 L-1.4 46.45 -1.4 42.35 0.7 42.4 1.6 42.35 2.1 42.3 2.2 42.6 2.55 43.75 3.75 43.75 4.65 43.5 6.85 42.75 7.0 42.7 7.15 42.95 7.7 42.8 8.55 42.5 8.7 42.45 8.95 42.4 9.05 42.35 10.9 41.75 13.55 40.8 14.05 39.85 14.65 39.0 Q16.6 38.2 16.6 37.75 L16.55 37.2 M55.35 39.0 L55.35 40.7 54.75 40.9 52.7 40.85 50.3 40.55 Q48.1 40.2 46.7 39.55 L46.1 37.55 46.45 37.7 48.6 38.5 49.0 38.6 48.9 38.3 49.4 38.7 49.75 37.5 Q50.3 35.95 50.65 35.95 52.6 35.95 55.15 38.8 L55.35 39.0 M12.5 55.4 L10.5 55.4 11.05 55.0 11.45 54.45 9.3 54.25 9.8 54.9 10.4 55.4 6.75 55.4 Q6.45 54.8 6.45 54.1 L6.6 53.3 5.85 52.25 5.05 50.65 5.05 50.55 6.25 51.85 6.85 52.45 6.85 52.4 8.05 52.9 9.75 53.55 11.8 53.7 11.9 53.7 12.25 53.85 13.1 53.85 13.1 54.35 12.6 54.95 12.5 55.4 M36.3 14.25 L36.3 14.65 Q36.3 15.85 36.9 16.65 L37.7 17.4 38.1 17.55 38.55 17.7 39.75 17.8 40.9 17.4 Q41.5 16.95 41.5 16.45 41.5 15.8 41.05 15.45 L40.9 15.4 39.6 15.35 39.55 15.2 39.55 14.65 39.7 14.65 39.7 15.0 40.05 15.0 40.4 14.9 Q41.1 14.9 41.7 15.4 L42.0 16.1 42.2 16.75 Q42.2 17.45 41.2 17.9 40.35 18.3 39.45 18.3 38.1 18.3 37.65 17.85 L36.45 16.6 Q35.85 15.85 35.75 15.1 L35.9 14.85 36.3 14.25 M49.6 28.7 L50.4 29.45 50.95 30.1 50.65 30.5 50.15 30.45 Q49.5 30.45 49.05 30.9 48.5 31.5 48.8 32.45 47.95 31.65 47.95 30.6 47.95 29.5 48.65 29.05 49.05 28.75 49.6 28.7 M41.3 34.95 Q42.6 34.95 43.5 36.25 L43.7 36.6 44.9 37.1 Q43.65 37.15 42.2 37.7 L41.1 37.25 38.85 37.45 40.4 35.9 40.8 35.45 41.3 34.95 M17.4 37.25 L17.5 37.4 17.5 37.25 17.4 37.25 M29.15 45.55 Q29.0 44.85 29.0 43.9 29.0 42.4 29.35 41.65 L32.4 40.95 32.45 40.95 34.5 40.6 35.05 40.5 35.4 40.4 36.9 40.45 37.0 40.4 38.05 40.75 41.95 41.2 Q40.35 42.9 39.6 43.3 L36.45 44.8 34.8 45.4 34.35 44.55 Q33.8 43.8 32.5 43.2 L32.85 43.7 33.1 44.55 32.75 45.45 Q32.25 46.0 31.15 46.0 L29.15 45.55 M32.5 43.2 L32.5 43.15 32.45 43.15 32.5 43.2" fill="#aea2f6" fill-rule="evenodd" stroke="none"/>
      <path d="M15.0 51.8 L14.35 52.2 10.3 51.6 Q6.05 50.55 5.95 48.3 L6.9 46.7 Q8.25 46.0 8.85 46.0 10.2 46.0 11.85 47.6 L14.3 50.45 15.0 51.8" fill="#2c5b8d" fill-rule="evenodd" stroke="none"/>
      <path d="M46.7 39.55 L47.3 42.3 48.1 47.4 46.55 45.9 45.05 43.95 43.35 41.25 41.95 41.2 42.6 40.45 44.4 38.4 45.3 37.25 45.4 37.05 45.9 37.05 46.1 37.55 46.7 39.55 M50.75 49.1 L51.0 49.25 51.4 51.85 Q51.4 52.95 49.55 53.95 L49.3 54.1 48.65 54.35 46.75 55.15 46.6 55.2 46.6 55.1 46.65 54.4 46.8 53.85 47.15 52.85 47.75 50.65 47.8 50.5 48.05 50.25 Q49.0 49.45 50.75 49.1 M34.1 48.35 L33.5 46.5 Q33.5 45.85 34.7 45.4 L34.8 45.4 34.9 46.6 Q34.85 47.5 34.1 48.35" fill="#e368ce" fill-rule="evenodd" stroke="none"/>
      <path d="M48.1 48.0 Q49.6 48.45 50.75 49.1 49.0 49.45 48.05 50.25 L47.8 50.5 47.85 50.0 48.1 48.0 M48.45 55.4 L48.15 55.4 47.95 55.3 48.45 55.4 M44.9 37.1 L45.4 37.05 45.3 37.25 44.4 38.4 42.6 40.45 41.95 41.2 38.05 40.75 37.0 40.4 37.75 40.05 40.25 38.55 Q41.25 38.05 42.2 37.7 43.65 37.15 44.9 37.1 M31.5 49.85 L31.65 49.8 31.7 49.75 Q32.55 49.15 32.8 48.35 L32.9 47.3 32.6 47.6 32.1 47.6 Q30.4 47.6 29.7 46.7 29.3 46.25 29.15 45.55 L31.15 46.0 Q32.25 46.0 32.75 45.45 L33.1 44.55 32.85 43.7 32.5 43.2 Q33.8 43.8 34.35 44.55 L34.8 45.4 34.7 45.4 Q33.5 45.85 33.5 46.5 L34.1 48.35 33.8 48.7 33.3 49.1 Q32.6 49.65 31.75 49.8 L31.5 49.85 M46.3 55.3 L46.65 54.4 46.6 55.1 46.6 55.2 46.4 55.25 46.3 55.3" fill="#c34094" fill-rule="evenodd" stroke="none"/>
      <path d="M25.5 44.7 L26.0 43.4 27.15 40.85 27.5 40.3 28.25 40.3 28.05 40.55 Q27.5 41.6 27.5 42.65 27.5 44.45 28.9 45.35 L29.15 45.55 Q29.3 46.25 29.7 46.7 30.4 47.6 32.1 47.6 L32.6 47.6 32.9 47.3 32.8 48.35 Q32.55 49.15 31.7 49.75 L31.65 49.8 31.5 49.85 29.75 49.85 29.2 49.75 28.2 49.3 Q26.2 48.35 25.3 47.5 L24.85 47.05 24.85 46.9 25.15 45.7 25.25 45.4 25.5 44.7" fill="#6b0e5b" fill-rule="evenodd" stroke="none"/>
      <path d="M-1.4 31.85 L-1.4 31.5 Q0.05 29.55 1.8 28.4 L3.15 28.2 3.6 28.15 5.85 28.0 8.6 28.4 10.8 28.85 11.25 29.25 11.9 30.55 Q12.15 31.45 14.35 33.8 L14.5 34.0 15.15 34.75 15.6 35.3 16.45 36.7 16.5 36.9 Q14.05 37.55 13.05 39.65 L10.4 40.45 9.4 40.8 8.3 41.1 7.7 41.25 6.65 41.55 6.15 41.65 5.15 41.85 3.35 42.15 2.8 41.0 2.5 40.35 2.35 40.0 2.0 39.25 1.95 39.2 0.75 37.2 Q-0.1 35.95 -1.0 35.25 L-0.1 35.05 Q0.55 35.05 1.05 35.4 L1.35 35.65 1.65 36.25 1.65 36.4 1.65 36.5 1.45 36.85 1.25 37.3 1.7 37.4 Q2.75 37.4 3.45 36.45 4.0 35.65 4.0 34.75 4.0 33.8 3.4 33.15 L3.35 33.1 3.3 33.05 3.25 33.0 2.9 32.65 Q1.95 31.65 0.55 31.65 L-1.4 31.85 M47.25 26.85 Q48.9 27.35 50.65 28.65 L50.15 28.65 49.6 28.7 47.25 26.85 M34.5 55.4 L31.05 55.4 30.9 55.35 30.8 55.35 31.75 54.5 32.4 54.15 32.6 54.05 33.6 53.55 34.15 54.35 34.35 54.7 34.5 55.25 34.5 55.4 M51.35 31.15 Q49.9 33.1 49.15 35.0 48.55 36.6 48.55 37.95 46.85 36.25 46.85 34.5 L47.65 33.95 Q48.15 33.7 49.0 33.35 L50.25 31.25 50.55 30.65 51.0 30.9 51.35 31.15 M48.85 34.65 L49.05 33.8 Q47.8 34.45 47.8 34.6 L48.3 35.5 48.85 34.65 M10.75 32.65 L9.35 30.6 Q8.7 30.05 7.45 29.8 6.7 30.05 6.1 30.6 L5.25 31.7 4.85 32.5 Q4.55 33.3 4.55 33.65 4.55 34.15 5.0 34.5 L6.25 35.15 8.3 35.55 Q10.5 35.55 10.9 34.45 L10.95 33.95 10.75 32.65 M12.6 35.25 L13.0 35.35 13.9 35.35 13.65 34.65 13.5 34.3 12.7 33.85 12.65 34.25 12.6 34.55 12.6 35.25 M26.15 53.3 Q27.85 53.45 28.25 53.85 L26.35 54.85 Q24.75 54.05 24.1 53.3 L24.4 53.3 26.15 53.3" fill="#9555d3" fill-rule="evenodd" stroke="none"/>
      <path d="M29.1 55.4 L28.0 55.4 28.6 54.85 28.75 54.75 30.1 53.95 30.7 53.6 31.0 53.45 Q32.05 52.85 33.8 52.3 L34.8 52.0 35.0 51.9 35.95 52.2 35.65 52.3 34.75 52.65 34.0 52.9 32.25 53.65 31.95 53.8 30.45 54.6 30.1 54.85 29.6 55.1 29.1 55.4" fill="#1f0c25" fill-rule="evenodd" stroke="none"/>
      <path d="M12.6 35.25 L12.6 34.55 12.65 34.25 12.7 33.85 13.5 34.3 13.65 34.65 13.9 35.35 13.0 35.35 12.6 35.25 M10.75 32.65 L10.95 33.95 10.9 34.45 Q10.5 35.55 8.3 35.55 L6.25 35.15 5.0 34.5 Q4.55 34.15 4.55 33.65 4.55 33.3 4.85 32.5 L5.25 31.7 6.1 30.6 Q6.7 30.05 7.45 29.8 8.7 30.05 9.35 30.6 L10.75 32.65" fill="#d7c1d7" fill-rule="evenodd" stroke="none"/>
      <path d="M29.8 37.35 L29.85 37.5 29.95 37.65 30.05 37.9 30.15 38.1 26.8 37.7 25.85 37.5 25.9 37.35 26.2 37.4 27.55 37.4 29.8 37.35 M32.8 37.1 L32.85 37.05 33.9 36.65 34.7 37.0 36.25 37.5 36.55 38.15 36.55 38.65 36.4 38.65 35.35 37.6 35.05 37.35 34.6 37.65 32.75 38.1 32.8 37.1 M20.9 35.2 L20.8 35.05 20.9 34.75 20.95 34.75 20.9 35.2 M21.85 36.45 L21.95 36.5 22.5 36.8 Q24.15 37.8 24.15 38.35 24.15 38.8 22.35 38.85 L21.2 38.9 21.65 38.25 22.35 37.15 21.95 36.6 21.85 36.45" fill="#7f7fc3" fill-rule="evenodd" stroke="none"/>
      <path d="M38.4 55.4 L35.5 55.4 35.25 55.05 34.65 54.15 34.0 52.9 34.75 52.65 35.65 52.3 35.95 52.2 36.95 52.45 37.0 52.65 37.1 52.8 37.3 53.25 37.45 53.6 38.15 55.0 38.4 55.4 M30.1 55.4 L29.1 55.4 29.6 55.1 30.1 54.85 30.1 55.4 M28.0 55.4 L27.3 55.4 28.05 54.75 Q29.0 53.85 30.15 53.25 L28.9 52.95 Q24.1 51.9 22.15 50.9 L22.25 50.15 22.45 48.25 22.45 48.15 22.3 47.5 22.25 47.15 22.2 47.0 21.9 46.3 21.65 45.95 21.6 46.2 21.45 46.85 21.4 47.15 21.2 47.7 20.3 49.45 19.65 50.25 Q18.6 51.45 17.6 51.85 18.45 53.45 21.55 54.65 L23.6 55.4 20.7 55.4 19.1 54.3 16.45 52.05 15.6 51.3 16.2 50.7 17.2 50.85 17.35 50.85 Q18.4 50.75 19.5 49.15 L19.6 48.95 20.4 47.4 20.6 46.85 20.65 46.55 20.8 45.95 20.9 45.3 20.95 45.15 21.3 44.4 21.65 45.5 Q21.65 45.15 21.95 44.55 L22.15 44.1 22.15 43.1 21.8 43.1 22.05 41.95 22.75 42.1 24.15 42.5 24.2 42.6 25.2 44.2 25.5 44.7 25.25 45.4 25.15 45.7 24.85 46.9 24.85 47.05 25.3 47.5 Q26.2 48.35 28.2 49.3 L29.2 49.75 30.0 50.1 30.5 50.3 35.0 51.9 34.8 52.0 33.8 52.3 Q32.05 52.85 31.0 53.45 L30.7 53.6 30.1 53.95 28.75 54.75 28.6 54.85 28.0 55.4" fill="#3e2662" fill-rule="evenodd" stroke="none"/>
      <path d="M16.2 50.7 Q17.7 49.1 18.15 47.6 L20.05 46.7 20.95 45.15 20.9 45.3 20.8 45.95 20.65 46.55 20.6 46.85 20.4 47.4 19.6 48.95 19.5 49.15 Q18.4 50.75 17.35 50.85 L17.2 50.85 16.2 50.7" fill="#130620" fill-rule="evenodd" stroke="none"/>
      <path d="M45.75 18.7 L45.8 19.4 45.85 20.4 45.6 20.35 Q45.05 20.35 43.55 21.5 L41.7 22.6 43.9 20.7 44.65 19.9 45.75 18.7 M39.7 14.65 L39.9 14.6 40.3 14.5 40.9 14.6 Q41.5 14.7 41.85 15.1 L42.4 16.05 42.5 16.6 42.4 17.15 41.85 18.0 40.9 18.55 39.9 18.75 Q38.65 18.9 37.25 18.1 35.8 17.25 35.65 16.7 L35.6 16.65 Q35.3 16.35 35.45 15.45 L35.5 15.5 35.75 15.1 Q35.85 15.85 36.45 16.6 L37.65 17.85 Q38.1 18.3 39.45 18.3 40.35 18.3 41.2 17.9 42.2 17.45 42.2 16.75 L42.0 16.1 41.7 15.4 Q41.1 14.9 40.4 14.9 L40.05 15.0 39.7 15.0 39.7 14.65" fill="#8c83d0" fill-rule="evenodd" stroke="none"/>
      <path d="M45.85 20.4 L45.85 20.85 45.85 21.15 45.5 24.8 45.45 25.05 45.3 25.6 45.3 25.7 44.65 25.8 44.4 25.8 43.7 25.85 43.6 25.9 42.9 25.9 42.6 25.9 39.95 25.9 39.75 25.85 38.8 25.85 38.35 25.8 37.9 25.75 37.75 25.75 37.6 25.75 36.9 25.7 34.45 25.45 34.3 25.4 32.25 25.05 28.75 24.1 28.6 25.9 28.5 26.9 28.6 27.95 29.1 29.25 29.15 29.35 29.3 29.5 30.7 30.9 30.8 30.95 31.75 31.8 32.0 32.0 32.05 32.05 32.15 32.15 32.25 32.25 32.7 32.8 32.75 33.0 31.65 32.8 31.55 32.8 31.15 32.7 30.5 32.55 30.45 32.55 30.3 32.45 29.65 32.0 28.85 31.4 27.8 30.65 26.75 29.9 25.9 29.2 25.85 29.15 25.2 28.35 25.05 28.0 24.95 27.8 24.9 27.25 Q24.9 26.3 25.6 24.9 26.35 23.45 27.35 22.7 27.85 22.25 28.5 22.2 L32.4 22.0 32.45 22.0 32.6 21.9 32.7 22.0 33.25 22.0 34.85 22.4 38.35 23.05 38.55 23.05 39.85 23.3 Q40.65 23.3 41.65 22.65 L41.7 22.6 43.55 21.5 Q45.05 20.35 45.6 20.35 L45.85 20.4" fill="#98b5e9" fill-rule="evenodd" stroke="none"/>
      <path d="M43.6 25.9 L43.55 25.95 43.45 26.05 43.2 26.1 42.25 26.25 42.2 26.25 40.25 26.45 40.45 27.0 40.55 27.3 40.2 27.35 40.2 27.25 40.2 27.2 40.0 26.45 39.75 25.85 39.95 25.9 42.6 25.9 42.9 25.9 43.6 25.9 M35.45 30.6 L36.25 30.95 35.65 30.95 Q33.65 30.95 32.1 29.8 30.4 28.5 30.05 26.25 L31.1 25.75 29.9 25.55 29.65 25.9 29.45 26.3 Q29.1 27.25 29.1 27.8 29.1 28.5 29.55 29.3 29.85 29.95 30.5 30.65 L30.7 30.9 29.3 29.5 29.15 29.35 29.1 29.25 28.6 27.95 28.5 26.9 28.6 25.9 28.75 24.1 32.25 25.05 34.3 25.4 34.45 25.45 34.3 25.45 32.7 25.6 31.65 25.85 31.25 25.95 30.5 26.3 Q30.6 26.95 31.05 27.7 L31.85 28.75 32.55 29.45 34.5 30.45 34.75 30.55 35.45 30.6 M32.8 36.05 L33.1 36.1 34.75 36.25 35.3 36.35 35.8 36.4 36.0 36.45 36.55 36.6 36.9 36.75 37.65 37.1 37.15 37.4 36.6 37.5 36.25 37.5 34.7 37.0 33.9 36.65 32.85 36.25 32.8 36.2 32.8 36.05" fill="#a95c5c" fill-rule="evenodd" stroke="none"/>
      <path d="M43.45 26.05 L42.95 27.0 40.95 27.2 40.55 27.3 40.45 27.0 40.25 26.45 42.2 26.25 42.25 26.25 43.2 26.1 43.45 26.05 M40.2 27.35 L40.55 27.3 41.1 29.05 40.4 28.2 40.25 27.55 40.2 27.35 M41.1 29.05 L41.15 29.4 40.5 29.4 Q39.7 29.55 38.15 30.3 L36.25 30.95 35.45 30.6 36.45 30.6 37.95 30.2 40.1 29.15 41.1 29.05 M36.25 30.95 L37.2 31.25 37.6 31.35 38.05 31.5 36.6 32.25 35.95 32.2 35.9 32.2 34.2 32.1 33.75 32.1 32.45 32.15 32.15 32.15 32.05 32.05 32.0 32.0 31.75 31.8 30.8 30.95 30.7 30.9 30.5 30.65 Q29.85 29.95 29.55 29.3 29.1 28.5 29.1 27.8 29.1 27.25 29.45 26.3 L29.65 25.9 29.9 25.55 31.1 25.75 30.05 26.25 Q30.4 28.5 32.1 29.8 33.65 30.95 35.65 30.95 L36.25 30.95" fill="#d9ad91" fill-rule="evenodd" stroke="none"/>
      <path d="M42.95 27.0 L42.65 27.55 42.5 28.05 43.7 29.65 43.2 29.7 40.75 30.2 Q39.5 30.55 38.55 31.1 L38.05 31.5 37.6 31.35 37.2 31.25 36.25 30.95 38.15 30.3 Q39.7 29.55 40.5 29.4 L41.15 29.4 41.1 29.05 40.55 27.3 40.95 27.2 42.95 27.0" fill="#fff6db" fill-rule="evenodd" stroke="none"/>
      <path d="M40.4 35.9 L38.85 37.45 38.5 37.75 38.4 37.85 37.65 37.1 36.9 36.75 36.55 36.6 36.0 36.45 35.8 36.4 35.3 36.35 34.75 36.25 33.1 36.1 32.8 36.05 32.8 35.95 32.8 35.8 32.8 35.55 32.8 35.5 32.75 33.75 32.75 33.0 32.7 32.8 32.25 32.25 32.15 32.15 32.45 32.15 33.75 32.1 34.2 32.1 35.9 32.2 35.95 32.2 35.7 32.4 37.05 32.85 38.45 33.25 39.65 33.45 39.95 33.5 40.3 33.6 40.45 33.6 40.65 33.8 40.6 34.65 40.4 35.9 M26.0 19.3 L26.0 19.25 26.1 19.25 31.15 20.75 32.8 21.3 35.4 22.1 38.35 23.05 34.85 22.4 33.25 22.0 32.7 22.0 32.6 21.9 32.45 22.0 32.4 22.0 28.5 22.2 Q27.85 22.25 27.35 22.7 26.35 23.45 25.6 24.9 24.9 26.3 24.9 27.25 L24.95 27.8 25.05 28.0 25.2 28.35 25.85 29.15 25.9 29.2 26.75 29.9 27.8 30.65 28.85 31.4 29.65 32.0 30.3 32.45 30.45 32.55 30.5 32.55 30.65 33.05 30.65 33.1 30.8 33.4 31.1 34.55 31.55 36.25 31.55 36.3 31.65 36.65 31.7 36.9 31.75 37.2 31.95 38.1 32.2 39.45 32.35 40.35 32.4 40.9 31.7 40.3 30.95 39.35 30.15 38.1 30.05 37.9 29.95 37.65 29.85 37.5 29.8 37.35 29.35 36.45 28.95 35.6 28.75 35.15 28.55 34.65 28.25 34.05 27.9 33.55 26.8 32.6 24.35 31.25 24.3 31.25 24.0 31.1 23.75 30.95 Q20.7 29.25 17.95 26.6 L20.25 27.45 23.85 28.1 24.6 28.05 24.5 27.95 Q24.4 25.15 25.15 22.0 25.6 20.3 26.0 19.3" fill="#9275bd" fill-rule="evenodd" stroke="none"/>
      <path d="M41.1 29.05 L40.1 29.15 37.95 30.2 36.45 30.6 35.45 30.6 34.75 30.55 34.5 30.45 32.55 29.45 31.85 28.75 31.05 27.7 Q30.6 26.95 30.5 26.3 L31.25 25.95 31.65 25.85 32.7 25.6 34.3 25.45 34.45 25.45 36.9 25.7 36.85 25.8 34.5 25.95 33.5 26.05 33.25 26.1 Q32.0 26.35 31.35 26.75 L31.45 27.05 Q31.95 28.65 33.25 29.45 34.3 30.1 35.35 30.1 L37.3 29.85 37.75 29.7 38.85 29.2 39.45 29.0 39.85 28.6 39.7 27.8 39.7 27.75 39.65 27.65 39.6 27.6 39.3 26.7 39.15 26.55 38.8 26.25 38.8 25.9 38.8 25.85 39.75 25.85 40.0 26.45 40.2 27.2 40.2 27.25 40.2 27.35 40.25 27.55 40.4 28.2 41.1 29.05" fill="#31152a" fill-rule="evenodd" stroke="none"/>
      <path d="M37.9 25.75 L38.4 25.85 38.55 26.05 38.8 26.25 38.8 26.45 38.8 26.55 38.75 26.9 38.55 27.45 Q38.25 28.3 37.7 28.3 L37.05 27.85 Q36.65 27.35 36.65 26.75 L36.7 26.4 36.7 26.3 36.85 25.8 37.5 25.75 37.6 25.75 37.75 25.75 37.9 25.75 M38.25 26.95 L38.45 26.55 38.2 26.2 37.95 26.2 37.8 26.6 37.85 26.8 37.5 27.25 37.15 27.15 37.15 26.4 37.05 26.4 37.0 26.7 37.15 27.45 37.65 27.85 38.15 27.1 38.25 26.95" fill="#121e9c" fill-rule="evenodd" stroke="none"/>
      <path d="M36.85 25.8 L36.7 26.3 35.25 26.5 33.4 26.9 Q34.35 29.3 36.2 29.3 L37.8 29.05 38.65 28.8 39.2 28.7 39.35 28.7 39.35 28.05 39.25 27.6 39.25 27.35 38.75 26.9 38.8 26.55 39.15 26.55 39.3 26.7 39.6 27.6 39.65 27.65 39.7 27.75 39.7 27.8 39.85 28.6 39.45 29.0 38.85 29.2 37.75 29.7 37.3 29.85 35.35 30.1 Q34.3 30.1 33.25 29.45 31.95 28.65 31.45 27.05 L31.35 26.75 Q32.0 26.35 33.25 26.1 L33.5 26.05 34.5 25.95 36.85 25.8" fill="#b7c1e9" fill-rule="evenodd" stroke="none"/>
      <path d="M37.85 26.8 Q37.95 26.95 38.15 26.95 L38.25 26.95 38.15 27.1 37.65 27.85 37.15 27.45 37.0 26.7 37.05 26.4 37.15 26.4 37.15 27.15 37.5 27.25 37.85 26.8" fill="#2ca4c1" fill-rule="evenodd" stroke="none"/>
      <path d="M17.85 13.35 L19.85 12.25 M22.8 11.1 Q25.9 10.2 29.4 10.2 31.55 10.2 33.9 11.0 L34.45 11.2 34.7 11.3 Q35.6 11.65 36.35 12.05 L36.4 12.05 36.7 12.2 37.4 12.65 M-1.4 28.45 L-0.95 28.2 Q3.15 26.1 8.2 25.65 9.1 25.95 10.35 26.6 L11.6 27.45 Q11.85 28.3 12.55 29.25 L14.25 31.2 15.55 32.3 M23.65 31.2 L22.65 31.5 21.95 31.8 Q19.65 30.85 17.05 28.55 13.8 25.7 12.85 22.55 L12.5 21.0 Q12.8 19.8 13.3 18.85 13.85 17.5 14.65 16.4 16.0 14.65 17.85 13.35 M42.65 27.55 L43.3 27.0 44.65 26.75 45.95 26.55 47.25 26.85 Q48.9 27.35 50.65 28.65 M46.7 39.55 L47.3 42.3 48.1 47.4 M48.1 48.0 Q49.6 48.45 50.75 49.1 L51.0 49.25 51.5 49.6 51.75 50.15 M20.7 55.4 L19.1 54.3 16.45 52.05 15.6 51.3 M44.9 37.1 L45.4 37.05 45.9 37.05 46.1 37.55 46.7 39.55 M42.2 37.7 Q43.65 37.15 44.9 37.1 M38.75 26.9 L38.8 26.55 M24.0 31.1 L23.65 31.2 M25.5 44.7 L26.0 43.4 27.15 40.85 27.5 40.3 28.25 40.3 M22.05 41.95 L22.75 42.1 24.15 42.5 24.2 42.6 25.2 44.2 25.5 44.7 25.25 45.4 25.15 45.7 24.85 46.9 24.85 47.05 25.3 47.5 Q26.2 48.35 28.2 49.3 L29.2 49.75 29.75 49.85 31.5 49.85 M32.5 43.2 L32.45 43.15 32.5 43.15 32.5 43.2 M37.75 40.05 L40.25 38.55 Q41.25 38.05 42.2 37.7 M37.25 52.55 L36.95 52.45 37.0 52.65 M48.15 55.4 L47.95 55.3 48.45 55.4" fill="none" stroke="#31152a" stroke-linecap="round" stroke-linejoin="round" stroke-width="1.0"/>
      <path d="M19.85 12.25 L20.6 10.95 20.95 10.95 21.3 10.95 22.8 11.1 24.75 11.5 25.75 11.75 29.05 12.8 31.7 13.75 33.9 14.7 35.45 15.45 35.5 15.5 35.75 15.1 35.9 14.85 36.3 14.25 37.0 13.2 37.4 12.65 Q39.2 10.2 40.75 8.95 L40.9 9.05 42.4 10.2 43.9 12.2 44.7 14.0 Q45.45 16.15 45.75 18.7 L45.8 19.4 45.85 20.4 45.85 20.85 45.85 21.15 45.5 24.8 45.45 25.05 45.3 25.6 45.3 25.7 44.65 25.8 44.4 25.8 43.7 25.85 43.6 25.9 42.9 25.9 42.6 25.9 39.95 25.9 39.75 25.85 38.8 25.85 38.35 25.8 37.9 25.75 37.75 25.75 37.6 25.75 36.9 25.7 34.45 25.45 34.3 25.4 32.25 25.05 28.75 24.1 28.6 25.9 28.5 26.9 28.6 27.95 29.1 29.25 29.15 29.35 29.3 29.5 30.7 30.9 30.8 30.95 31.75 31.8 32.0 32.0 32.05 32.05 32.15 32.15 32.25 32.25 32.7 32.8 32.75 33.0 32.75 33.75 32.8 35.5 32.8 35.55 32.8 35.8 32.8 35.95 32.8 36.05 33.1 36.1 34.75 36.25 35.3 36.35 35.8 36.4 36.0 36.45 36.55 36.6 36.9 36.75 37.65 37.1 38.4 37.85 38.5 37.75 38.85 37.45 41.1 37.25 42.2 37.7 M15.55 32.3 Q17.8 34.0 20.2 34.4 L20.4 34.6 Q21.0 33.75 21.45 33.75 L22.45 33.85 22.2 34.6 Q22.4 35.15 24.55 35.85 L28.95 36.45 29.35 36.45 29.8 37.35 29.85 37.5 29.95 37.65 30.05 37.9 30.15 38.1 30.95 39.35 31.7 40.3 32.4 40.9 32.4 40.95 32.45 40.95 32.5 40.35 35.05 40.4 35.4 40.4 36.9 40.45 37.0 40.4 37.75 40.05 37.7 39.8 37.65 39.6 37.3 38.0 37.15 37.4 M-1.4 46.45 L1.95 45.9 Q4.6 45.4 7.2 44.5 L9.05 43.8 9.2 43.75 12.35 42.3 13.35 42.15 15.9 41.9 17.75 42.0 17.8 41.95 20.9 39.2 21.2 38.9 21.65 38.25 22.35 37.15 21.95 36.6 21.85 36.45 20.9 35.2 20.8 35.05 20.4 34.6 M50.65 28.65 L51.4 29.2 52.4 30.1 54.2 31.9 55.35 33.3 M55.35 40.85 L54.85 40.9 54.75 40.9 52.7 40.85 50.3 40.55 Q48.1 40.2 46.7 39.55 M48.1 47.4 L48.1 47.5 48.1 48.0 47.85 50.0 47.8 50.5 47.75 50.65 47.15 52.85 46.8 53.85 46.65 54.4 46.3 55.3 46.25 55.4 M8.45 44.95 L7.2 44.5 M38.05 31.5 L38.55 31.1 Q39.5 30.55 40.75 30.2 L43.2 29.7 43.7 29.65 43.95 29.6 44.05 30.5 44.1 31.6 43.8 32.0 41.3 34.95 40.8 35.45 40.4 35.9 38.85 37.45 M17.95 26.6 Q20.7 29.25 23.75 30.95 L24.0 31.1 24.3 31.25 24.35 31.25 26.8 32.6 27.9 33.55 28.25 34.05 28.55 34.65 28.75 35.15 28.95 35.6 29.35 36.45 M19.15 13.65 L19.1 13.65 19.1 13.75 Q17.65 16.65 17.15 19.5 16.8 21.2 16.8 22.95 L16.85 24.25 17.1 25.75 17.95 26.6 M19.25 13.3 L19.85 12.25 M19.25 13.3 L19.15 13.65 M38.8 26.25 L38.8 25.9 38.8 25.85 M36.85 25.8 L36.9 25.7 M32.15 32.15 L32.45 32.15 33.75 32.1 34.2 32.1 35.9 32.2 35.95 32.2 36.6 32.25 38.05 31.5 M32.8 36.2 L32.8 36.25 32.8 37.1 32.75 38.1 32.6 39.5 32.55 40.0 32.5 40.35 M32.8 36.2 L32.8 36.05 M28.25 40.3 L30.3 40.3 31.55 40.3 31.7 40.3 M35.95 52.2 L35.0 51.9 30.5 50.3 30.0 50.1 29.2 49.75 M36.95 52.45 L35.95 52.2 M37.0 52.65 L37.15 52.55 37.25 52.55 M38.4 55.4 L38.15 55.0 37.45 53.6 37.3 53.25 37.1 52.8 37.0 52.65" fill="none" stroke="#373d67" stroke-linecap="round" stroke-linejoin="round" stroke-width="1.0"/>
      <path d="M41.95 41.2 L43.35 41.25 45.05 43.95 46.55 45.9 48.1 47.4 M28.25 40.3 L28.05 40.55 Q27.5 41.6 27.5 42.65 27.5 44.45 28.9 45.35 L29.15 45.55 31.15 46.0 Q32.25 46.0 32.75 45.45 L33.1 44.55 32.85 43.7 32.5 43.2 Q33.8 43.8 34.35 44.55 L34.8 45.4 34.9 46.6 Q34.85 47.5 34.1 48.35 L33.8 48.7 33.3 49.1 Q32.6 49.65 31.75 49.8 L31.5 49.85 M41.95 41.2 L38.05 40.75 37.0 40.4" fill="none" stroke="#622346" stroke-linecap="round" stroke-linejoin="round" stroke-width="1.0"/>
      <path d="M43.6 25.9 L43.55 25.95 43.45 26.05 42.95 27.0 42.65 27.55 42.5 28.05 43.7 29.65 M33.9 36.65 L32.85 36.25 32.8 36.2 M36.25 37.5 L34.7 37.0 33.9 36.65 M37.15 37.4 L36.6 37.5 36.25 37.5 M37.65 37.1 L37.15 37.4" fill="none" stroke="#481616" stroke-linecap="round" stroke-linejoin="round" stroke-width="1.0"/>
      <path d="M36.85 25.8 L36.7 26.3 36.7 26.4 36.65 26.75 Q36.65 27.35 37.05 27.85 L37.7 28.3 Q38.25 28.3 38.55 27.45 L38.75 26.9 M38.8 26.55 L38.8 26.45 38.8 26.25" fill="none" stroke="#23165d" stroke-linecap="round" stroke-linejoin="round" stroke-width="1.0"/>
      <path d="M22.45 33.85 L23.15 32.6 23.65 31.2 M15.6 51.3 L15.25 51.6 15.0 51.8 14.35 52.2 13.5 52.9 13.45 52.95 M5.85 48.5 L5.95 48.3 6.9 46.7 7.65 45.75 8.45 44.95 9.35 44.05 9.2 43.75 M20.95 45.15 L20.05 46.7 18.15 47.6 Q17.7 49.1 16.2 50.7 L15.6 51.3 M20.95 45.15 L21.3 44.4 21.8 43.1 22.05 41.95 21.9 41.5 21.45 40.4 21.15 39.7 20.9 39.2" fill="none" stroke="#130620" stroke-linecap="round" stroke-linejoin="round" stroke-width="1.0"/>
      <path d="M35.7 7.95 L35.9 7.65 Q36.25 7.35 37.65 6.95 M37.7 6.9 L39.05 6.55 40.45 6.2 Q42.05 5.8 43.35 4.1 44.25 2.9 45.0 0.9 L44.1 1.15 40.7 1.85 34.3 1.3 32.25 1.0 31.35 0.85 24.4 0.05 23.45 0.05 20.3 0.25 17.2 0.8 15.8 1.15 13.8 1.85 8.3 4.25 7.05 4.9 2.45 7.65 -1.4 9.95 M-1.4 16.05 Q-0.65 15.65 0.25 15.2 9.6 10.55 13.6 10.55 14.7 10.55 15.8 11.4 L17.85 13.35 M33.9 11.0 L35.7 7.95" fill="none" stroke="#2e0a18" stroke-linecap="round" stroke-linejoin="round" stroke-width="1.0"/>
      <path d="M51.75 50.15 L52.7 50.7 Q53.6 51.85 53.8 52.85 L55.35 54.5 M13.45 52.95 L13.55 53.35 14.0 55.4 M0.4 55.4 L0.2 53.7 0.4 51.9 Q1.5 50.65 2.55 49.95 4.05 49.0 5.85 48.5" fill="none" stroke="#192144" stroke-linecap="round" stroke-linejoin="round" stroke-width="1.0"/>
    </g>
    <g id="shape2" transform="matrix(1.0, 0.0, 0.0, 1.0, 0.0, 0.0)">
      <path d="M50.5 0.0 Q53.95 0.0 53.95 3.3 L53.95 50.15 Q53.95 53.4 50.5 53.4 L3.3 53.4 Q0.0 53.4 0.0 50.15 L0.0 3.3 Q0.0 0.0 3.3 0.0 L50.5 0.0" fill="#000000" fill-opacity="0.003921569" fill-rule="evenodd" stroke="none"/>
    </g>
  </defs>
</svg>
