<?xml version="1.0" encoding="UTF-8" standalone="no"?>
<svg xmlns:ffdec="https://www.free-decompiler.com/flash" xmlns:xlink="http://www.w3.org/1999/xlink" ffdec:objectType="frame" height="57.05px" width="58.25px" xmlns="http://www.w3.org/2000/svg">
  <g transform="matrix(1.0, 0.0, 0.0, 1.0, 1.45, 0.7)">
    <clipPath id="clipPath0" transform="matrix(1.0, 0.0, 0.0, 1.0, 0.0, 0.0)">
      <path d="M50.5 0.0 Q53.95 0.0 53.95 3.3 L53.95 50.15 Q53.95 53.4 50.5 53.4 L3.3 53.4 Q0.0 53.4 0.0 50.15 L0.0 3.3 Q0.0 0.0 3.3 0.0 L50.5 0.0" fill="#000000" fill-rule="evenodd" stroke="none"/>
    </clipPath>
    <g clip-path="url(#clipPath0)">
      <use ffdec:characterId="2" height="57.05" transform="matrix(1.0, 0.0, 0.0, 1.0, -1.45, -0.7)" width="58.25" xlink:href="#shape1"/>
    </g>
    <use ffdec:characterId="3" height="53.4" transform="matrix(1.0, 0.0, 0.0, 1.0, 0.0, 0.0)" width="53.95" xlink:href="#shape2"/>
  </g>
  <defs>
    <g id="shape1" transform="matrix(1.0, 0.0, 0.0, 1.0, 1.45, 0.7)">
      <path d="M56.3 4.7 L56.3 5.95 56.05 6.3 55.65 6.0 56.3 4.7" fill="#b663f5" fill-rule="evenodd" stroke="none"/>
      <path d="M53.35 4.2 L53.8 3.5 56.3 -0.2 56.3 4.7 55.65 6.0 55.6 5.95 54.8 5.25 54.65 5.2 54.15 4.8 53.35 4.2 M56.3 18.65 L56.3 21.75 56.3 23.15 Q54.2 24.15 53.4 25.35 54.2 25.4 56.3 27.05 L56.3 28.85 56.2 28.85 48.8 29.25 48.15 28.2 48.55 27.8 54.25 23.7 52.75 22.1 46.05 15.0 46.15 14.85 46.3 14.8 47.05 14.6 47.6 14.5 47.9 14.55 48.6 14.65 49.9 15.05 Q51.2 15.45 52.4 16.15 L53.4 16.85 53.8 17.05 53.9 17.15 54.05 17.3 54.1 17.3 54.35 17.5 55.55 18.25 56.3 18.65 M56.3 21.75 L52.75 22.1 56.3 21.75" fill="#6d6da8" fill-rule="evenodd" stroke="none"/>
      <path d="M56.3 5.95 L56.3 6.45 56.05 6.3 56.3 5.95" fill="#869ed7" fill-rule="evenodd" stroke="none"/>
      <path d="M8.5 15.75 L7.3 15.55 6.6 15.45 6.15 15.5 Q7.5 13.45 8.0 11.2 L9.25 10.9 9.45 10.8 10.45 10.4 9.6 13.75 8.5 15.75 M-0.45 17.15 L-0.95 17.4 -0.95 14.9 0.15 14.2 Q0.05 15.85 -0.45 17.15 M48.6 14.65 L49.35 13.05 49.7 11.55 50.7 12.25 50.35 13.6 49.9 15.05 48.6 14.65 M54.35 17.5 L55.05 16.15 55.15 15.85 55.95 16.3 56.3 16.45 56.2 16.85 55.55 18.25 54.35 17.5 M44.45 15.15 L44.9 15.35 45.75 15.45 45.9 15.4 45.85 15.9 45.75 17.1 46.0 20.55 46.0 20.65 46.0 21.15 45.55 23.6 45.5 23.9 45.45 24.05 45.4 24.2 45.3 24.6 44.95 25.65 43.6 27.45 42.85 28.4 42.75 28.45 42.2 29.1 42.0 29.4 41.1 30.4 40.1 31.75 39.75 32.1 39.45 32.45 38.75 33.25 38.25 33.8 37.7 34.3 37.25 34.0 36.05 33.25 35.3 32.95 34.7 32.6 34.5 32.45 32.4 31.4 30.5 30.7 25.85 29.15 23.65 28.55 22.95 28.45 22.5 28.15 20.95 26.95 20.45 26.7 17.9 24.75 17.7 23.75 17.45 22.5 17.15 20.3 16.95 19.6 18.55 17.7 23.2 18.1 18.55 17.7 Q20.15 15.45 20.9 12.35 L21.45 9.1 22.4 9.95 23.25 10.9 22.75 9.5 21.75 7.55 21.55 7.25 21.55 6.55 21.55 6.35 Q26.75 7.75 31.5 10.0 29.0 11.5 29.1 14.1 29.2 16.7 31.0 17.7 L34.6 19.8 23.2 18.1 25.25 22.5 25.7 23.4 27.05 25.55 27.4 25.65 26.9 26.05 29.3 27.4 Q31.65 28.5 33.75 28.85 36.2 30.45 37.9 32.25 L38.15 32.6 38.4 32.2 41.8 27.2 43.35 24.95 44.0 24.05 43.95 24.0 44.25 21.8 44.6 17.1 44.5 15.55 44.45 15.15 M41.55 12.7 L41.05 13.6 40.6 14.0 40.05 11.7 39.9 11.15 38.75 7.5 38.5 6.9 37.9 5.0 38.4 5.5 39.3 7.25 40.95 11.15 41.55 12.7 M23.25 10.9 L24.15 13.7 23.0 13.25 20.9 12.35 23.0 13.25 24.15 13.7 23.25 10.9 M10.15 47.4 L10.75 45.45 12.65 46.25 12.35 47.15 10.2 47.4 10.15 47.4" fill="#562c6b" fill-rule="evenodd" stroke="none"/>
      <path d="M43.8 0.2 L45.85 -0.15 46.7 -0.1 46.8 0.0 47.5 0.15 Q48.05 0.3 48.65 0.75 L48.75 1.0 49.2 3.05 49.7 6.1 50.05 6.95 50.1 7.9 50.05 9.05 49.85 10.6 49.7 11.55 49.05 11.2 48.7 11.1 46.65 10.4 46.35 10.35 Q45.2 8.4 45.2 7.5 45.35 4.65 45.05 3.25 44.75 1.45 43.8 0.2 M9.1 0.15 Q10.9 0.1 12.85 0.75 L13.75 1.05 Q14.2 2.05 14.2 3.55 L14.2 3.8 14.2 3.9 Q14.15 7.25 12.15 9.2 L10.45 10.4 10.55 9.6 10.6 7.75 10.35 4.6 9.9 2.35 9.1 0.15 M51.15 8.4 L51.7 8.75 52.0 8.9 52.1 8.95 53.0 9.55 53.05 9.35 53.45 9.55 53.55 9.6 53.65 9.65 53.7 9.7 56.05 11.05 55.95 12.55 55.45 15.15 55.15 15.85 53.95 14.95 53.45 14.55 52.95 14.1 52.0 13.3 50.7 12.25 50.85 11.25 51.15 8.4 M43.95 24.0 L44.0 24.05 43.35 24.95 43.25 25.0 42.5 24.45 Q41.1 23.5 39.6 23.35 L39.0 22.2 Q38.15 21.25 37.05 21.25 35.85 21.25 34.75 22.45 33.95 23.25 33.75 24.45 L32.6 24.95 Q30.95 25.8 30.0 26.7 L29.3 27.4 26.9 26.05 27.4 25.65 Q32.65 21.0 37.1 21.0 40.8 20.9 43.95 24.0 M8.2 5.15 L8.45 7.75 8.2 10.15 8.0 11.2 4.45 12.05 Q3.65 12.15 0.15 14.2 L0.15 13.25 0.15 13.05 0.05 10.45 0.0 9.7 0.2 9.6 0.55 9.5 Q2.2 8.85 5.85 6.85 7.3 6.0 8.2 5.15 M5.4 51.7 L7.45 50.75 Q8.75 49.8 9.8 48.05 L10.15 47.4 10.2 47.4 12.35 47.15 12.0 48.2 11.55 49.45 11.3 50.0 Q10.85 51.65 10.7 53.45 L10.65 54.3 10.55 54.35 8.65 54.45 7.25 54.6 5.9 54.85 5.45 54.95 5.4 51.7" fill="#068a61" fill-rule="evenodd" stroke="none"/>
      <path d="M48.65 0.75 L48.8 0.8 48.95 1.3 Q49.9 4.15 50.05 6.95 L49.7 6.1 49.2 3.05 48.75 1.0 48.65 0.75 M50.2 1.8 L53.3 4.15 53.35 4.2 54.15 4.8 54.65 5.2 54.8 5.25 55.6 5.95 55.65 6.0 55.8 6.7 56.05 10.45 56.05 11.05 53.7 9.7 53.65 9.65 53.55 9.6 53.45 9.55 53.05 9.35 53.0 9.55 52.1 8.95 52.0 8.9 51.7 8.75 51.15 8.4 51.15 7.9 51.15 7.4 Q51.1 5.6 50.7 3.85 L50.2 1.8 M-0.95 6.3 L-0.95 4.25 Q1.7 2.8 4.3 1.45 5.55 0.85 6.7 0.5 7.85 2.7 8.2 5.15 7.3 6.0 5.85 6.85 2.2 8.85 0.55 9.5 L0.2 9.6 0.0 9.7 -0.75 6.8 -0.95 6.3 M33.75 28.85 Q31.65 28.5 29.3 27.4 L30.0 26.7 Q30.95 25.8 32.6 24.95 L33.75 24.45 33.65 25.1 Q33.65 26.65 34.75 27.55 35.85 28.4 37.05 28.2 38.15 28.05 39.0 26.9 39.75 25.8 39.75 24.5 L39.6 23.35 Q41.1 23.5 42.5 24.45 L43.25 25.0 Q40.65 28.2 37.3 28.85 35.6 29.15 33.75 28.85" fill="#47ec5f" fill-rule="evenodd" stroke="none"/>
      <path d="M56.3 28.85 L56.3 37.0 54.4 36.8 52.85 37.0 52.1 37.15 51.25 34.9 Q50.55 32.25 48.8 29.25 L56.2 28.85 56.3 28.85" fill="#bbb2f3" fill-rule="evenodd" stroke="none"/>
      <path d="M56.3 23.15 L56.3 27.05 Q54.2 25.4 53.4 25.35 54.2 24.15 56.3 23.15 M56.3 50.25 L56.3 55.85 55.15 55.85 55.0 53.85 55.05 53.7 55.75 51.7 56.3 50.25" fill="#aea2f6" fill-rule="evenodd" stroke="none"/>
      <path d="M56.3 37.0 L56.3 47.45 55.5 46.55 Q54.05 44.95 53.4 44.75 53.15 40.45 52.1 37.15 L52.85 37.0 54.4 36.8 56.3 37.0 M-0.95 45.4 L-0.95 29.6 Q1.75 31.85 4.8 35.0 L5.9 36.2 7.5 38.0 7.55 38.0 7.6 38.1 8.9 39.55 9.2 39.95 9.95 42.0 10.65 44.5 10.8 45.1 10.75 45.45 10.15 47.4 9.8 48.05 Q8.75 49.8 7.45 50.75 L5.4 51.7 5.15 49.85 4.05 46.8 Q2.85 46.05 0.7 45.6 L-0.95 45.4 M48.8 29.25 Q50.55 32.25 51.25 34.9 49.6 34.05 48.45 33.9 47.25 31.5 45.15 30.7 L45.35 30.6 47.6 28.7 47.6 28.65 48.15 28.2 48.8 29.25" fill="#823c9c" fill-rule="evenodd" stroke="none"/>
      <path d="M-0.95 27.4 L-0.95 19.9 1.65 18.7 Q2.4 18.3 3.15 18.05 L3.3 18.0 Q6.0 17.0 8.25 16.45 L8.25 16.6 Q8.2 17.55 8.4 18.35 L3.55 23.0 3.4 23.2 2.2 24.3 Q0.1 26.15 -0.45 27.3 L0.6 27.8 Q2.05 28.45 4.65 29.15 L11.95 30.75 13.2 31.0 Q13.2 35.8 15.4 39.25 L14.45 38.8 6.6 34.6 6.35 34.0 Q5.65 32.4 4.3 31.0 L4.05 30.8 Q1.05 29.05 0.0 27.8 L-0.95 27.4 M25.85 44.3 L25.85 43.95 25.9 43.95 28.35 45.55 28.4 44.45 27.55 43.65 25.75 42.2 25.7 41.9 25.6 41.2 26.4 41.6 27.8 42.25 Q29.0 42.75 30.2 43.4 L32.7 43.75 35.0 43.9 34.9 44.65 34.9 44.85 35.5 44.45 36.15 48.0 36.1 48.35 34.4 48.75 34.35 49.25 33.85 52.7 33.5 53.7 33.15 53.8 32.75 53.7 Q32.45 53.5 32.3 52.7 31.95 52.0 31.55 50.3 L31.5 49.85 29.85 50.55 29.1 48.0 Q28.75 46.05 26.65 44.7 L25.85 44.3 M30.2 43.4 L32.1 44.35 35.0 43.9 32.1 44.35 30.2 43.4" fill="#6d6da3" fill-rule="evenodd" stroke="none"/>
      <path d="M-0.95 29.6 L-0.95 27.85 Q2.4 29.95 4.2 32.6 L4.8 33.55 5.9 36.2 4.8 35.0 Q1.75 31.85 -0.95 29.6 M45.15 30.7 Q47.25 31.5 48.45 33.9 L47.9 33.85 46.15 33.95 44.65 31.3 44.65 31.1 45.0 30.75 45.15 30.7 M15.4 39.25 Q18.45 44.2 25.85 46.3 L25.85 44.3 26.65 44.7 Q28.75 46.05 29.1 48.0 L29.85 50.55 29.65 50.55 27.85 51.45 Q26.9 50.2 26.0 50.2 24.85 50.2 22.8 51.2 L21.05 52.15 20.8 52.2 20.55 52.1 Q17.5 50.65 15.1 49.55 L16.75 47.0 17.85 44.9 17.2 44.3 17.0 44.0 Q14.7 41.5 13.45 40.5 L8.9 39.55 7.6 38.1 7.6 38.05 7.55 38.0 7.5 38.0 7.0 35.7 6.6 34.6 14.45 38.8 15.4 39.25 M36.1 48.35 L36.15 48.0 36.2 48.35 36.1 48.35" fill="#54547e" fill-rule="evenodd" stroke="none"/>
      <path d="M36.2 55.85 L35.6 55.85 36.35 52.6 36.35 52.5 36.6 50.25 37.0 52.3 36.7 54.05 36.5 54.7 36.2 55.85 M30.0 55.85 L29.3 55.85 28.25 53.3 Q27.8 52.35 27.2 51.85 L26.8 51.45 Q26.85 51.0 26.05 51.0 L26.0 51.0 Q24.2 51.05 20.95 53.1 L20.8 55.65 20.8 55.8 20.8 55.85 19.65 55.85 19.65 55.75 19.9 52.75 16.75 51.45 14.35 50.5 15.1 49.55 Q17.5 50.65 20.55 52.1 L20.8 52.2 21.05 52.15 22.8 51.2 Q24.85 50.2 26.0 50.2 26.9 50.2 27.85 51.45 28.6 52.5 29.35 54.45 L30.0 55.85 M5.5 55.85 L5.35 55.85 5.45 54.95 5.9 54.85 5.5 55.85 M-0.95 27.85 L-0.95 27.4 0.0 27.8 Q1.05 29.05 4.05 30.8 L4.3 31.0 Q5.65 32.4 6.35 34.0 L6.6 34.6 7.0 35.7 7.5 38.0 5.9 36.2 4.8 33.55 4.2 32.6 Q2.4 29.95 -0.95 27.85 M44.65 31.3 L46.15 33.95 45.05 34.0 Q44.6 32.9 44.65 31.3 M7.55 38.0 L7.6 38.05 7.6 38.1 7.55 38.0" fill="#19203c" fill-rule="evenodd" stroke="none"/>
      <path d="M10.0 55.85 L5.5 55.85 5.9 54.85 7.25 54.6 8.65 54.45 10.0 55.85 M11.55 53.5 L14.35 50.5 16.75 51.45 19.9 52.75 19.65 55.75 Q18.6 55.2 17.35 54.8 L16.65 54.6 13.95 53.85 11.55 53.5" fill="#4b295b" fill-rule="evenodd" stroke="none"/>
      <path d="M35.6 55.85 L30.0 55.85 29.35 54.45 Q28.6 52.5 27.85 51.45 L29.65 50.55 29.85 50.55 30.4 51.95 Q31.85 55.35 33.35 55.35 34.5 55.35 35.3 52.75 L35.8 50.15 35.95 49.3 36.0 49.05 36.1 48.35 36.2 48.35 36.6 50.25 36.35 52.5 36.35 52.6 35.6 55.85 M8.25 16.45 L9.0 16.3 9.9 16.1 10.55 16.3 8.4 18.35 Q8.2 17.55 8.25 16.6 L8.25 16.45" fill="#938acd" fill-rule="evenodd" stroke="none"/>
      <path d="M25.85 43.95 L25.85 42.85 25.75 42.2 27.55 43.65 28.4 44.45 28.35 45.55 25.9 43.95 25.85 43.95 M35.0 43.9 L35.3 43.9 35.4 43.9 35.5 44.45 34.9 44.85 34.9 44.65 35.0 43.9 M29.85 50.55 L31.5 49.85 31.55 50.3 Q31.95 52.0 32.3 52.7 32.45 53.5 32.75 53.7 L33.15 53.8 33.5 53.7 33.85 52.7 34.35 49.25 34.4 48.75 36.1 48.35 36.0 49.05 35.95 49.3 35.8 50.15 35.3 52.75 Q34.5 55.35 33.35 55.35 31.85 55.35 30.4 51.95 L29.85 50.55" fill="#c7c9e2" fill-rule="evenodd" stroke="none"/>
      <path d="M37.7 55.85 L36.2 55.85 36.5 54.7 36.7 54.05 37.0 52.3 37.7 55.85 M29.3 55.85 L20.8 55.85 20.8 55.8 Q23.95 53.5 27.2 51.85 27.8 52.35 28.25 53.3 L29.3 55.85 M19.65 55.85 L10.0 55.85 8.65 54.45 10.55 54.35 10.65 54.3 11.55 53.5 13.95 53.85 16.65 54.6 17.35 54.8 Q18.6 55.2 19.65 55.75 L19.65 55.85" fill="#a33a7d" fill-rule="evenodd" stroke="none"/>
      <path d="M20.8 55.8 L20.8 55.65 20.95 53.1 Q24.2 51.05 26.0 51.0 L26.05 51.0 Q26.85 51.0 26.8 51.45 L27.2 51.85 Q23.95 53.5 20.8 55.8" fill="#5b114e" fill-rule="evenodd" stroke="none"/>
      <path d="M38.4 5.5 L39.05 5.95 40.85 7.65 41.7 8.75 41.75 8.85 42.7 10.35 42.75 10.5 43.25 11.3 43.75 12.3 43.9 12.65 45.95 14.9 46.05 15.0 45.95 15.15 45.9 15.4 45.75 15.45 44.9 15.35 44.45 15.15 44.5 15.55 44.6 17.1 44.25 21.8 43.95 24.0 Q40.8 20.9 37.1 21.0 32.65 21.0 27.4 25.65 L27.05 25.55 25.7 23.4 25.25 22.5 23.2 18.1 34.6 19.8 31.0 17.7 Q29.2 16.7 29.1 14.1 29.0 11.5 31.5 10.0 32.6 10.5 33.65 11.15 35.55 6.75 37.35 5.35 L37.9 5.0 38.5 6.9 38.75 7.5 39.9 11.15 40.05 11.7 40.6 14.0 41.05 13.6 41.55 12.7 42.7 10.35 41.55 12.7 40.95 11.15 39.3 7.25 38.4 5.5 M43.35 24.95 L41.8 27.2 38.4 32.2 38.15 32.6 37.9 32.25 Q36.2 30.45 33.75 28.85 35.6 29.15 37.3 28.85 40.65 28.2 43.25 25.0 L43.35 24.95 M40.6 14.55 L41.05 13.6 40.6 14.55 M44.45 15.15 L36.6 20.1 34.6 19.8 36.6 20.1 44.45 15.15 M21.45 9.1 L21.55 7.25 21.75 7.55 22.75 9.5 23.25 10.9 22.4 9.95 21.45 9.1" fill="#bf58ff" fill-rule="evenodd" stroke="none"/>
      <path d="M56.3 47.45 L56.3 50.25 55.75 51.7 55.05 53.7 55.0 53.85 55.15 55.85 53.3 55.85 53.45 52.95 53.45 52.05 53.45 51.05 53.05 50.75 51.25 49.2 Q50.25 48.4 49.35 47.95 L48.9 47.75 47.6 47.3 46.55 47.3 46.55 48.45 46.95 51.0 47.35 53.1 47.35 53.15 47.7 54.65 48.05 55.8 48.05 55.85 37.7 55.85 37.0 52.3 36.6 50.25 36.2 48.35 36.15 48.0 35.5 44.45 35.4 43.9 38.05 43.55 41.4 39.0 41.25 39.7 Q43.2 43.0 47.3 44.5 L47.8 36.15 Q45.8 35.75 45.05 34.0 L46.15 33.95 47.9 33.85 48.45 33.9 Q49.6 34.05 51.25 34.9 L52.1 37.15 Q53.15 40.45 53.4 44.75 54.05 44.95 55.5 46.55 L56.3 47.45 M5.35 55.85 L-0.95 55.85 -0.95 45.4 0.7 45.6 Q2.85 46.05 4.05 46.8 L5.15 49.85 5.4 51.7 5.45 54.95 5.35 55.85" fill="#192144" fill-rule="evenodd" stroke="none"/>
      <path d="M56.3 11.2 L56.3 16.45 55.95 16.3 55.15 15.85 55.45 15.15 55.95 12.55 56.05 11.05 56.15 11.1 56.3 11.2 M-0.95 14.9 L-0.95 10.1 0.0 9.7 0.05 10.45 0.15 13.05 0.15 13.25 0.15 14.2 -0.95 14.9 M7.9 0.3 L9.1 0.15 9.9 2.35 10.35 4.6 10.6 7.75 10.55 9.6 10.45 10.4 9.45 10.8 9.25 10.9 8.0 11.2 8.2 10.15 8.45 7.75 8.2 5.15 9.1 3.95 9.55 2.5 Q9.5 0.2 7.9 0.3 M21.55 4.95 Q24.0 3.75 26.6 3.3 26.7 3.9 28.1 4.55 L29.75 5.1 32.2 6.65 33.85 8.1 Q34.0 8.4 34.55 7.55 35.15 6.75 35.15 6.15 35.15 5.0 34.55 3.8 L37.4 4.75 37.9 5.0 37.35 5.35 Q35.55 6.75 33.65 11.15 32.6 10.5 31.5 10.0 26.75 7.75 21.55 6.35 L21.55 4.95 M49.7 11.55 L49.85 10.6 50.05 9.05 50.1 7.9 50.05 6.95 50.75 8.05 50.95 8.35 51.15 8.4 50.85 11.25 50.7 12.25 49.7 11.55 M50.45 25.45 L50.35 25.65 48.55 27.8 45.35 30.55 48.55 27.8 48.15 28.2 47.6 28.65 47.6 28.7 45.35 30.6 45.35 30.55 Q44.8 29.5 44.8 28.75 L44.9 28.1 45.05 27.6 45.9 27.3 46.65 27.15 46.05 26.95 45.3 27.15 44.7 27.3 Q44.25 27.7 44.25 28.8 L44.45 30.3 44.45 30.4 44.65 31.1 44.65 31.3 Q44.6 32.9 45.05 34.0 45.8 35.75 47.8 36.15 L47.3 44.5 Q43.2 43.0 41.25 39.7 L41.4 39.0 41.4 38.9 41.8 36.75 41.95 35.7 41.95 35.5 42.0 35.05 42.1 34.95 42.4 34.3 42.6 33.95 42.75 33.2 42.85 33.1 43.05 32.35 43.25 31.1 43.3 30.9 43.55 29.15 43.6 27.45 44.95 25.65 45.3 24.6 45.4 24.9 45.9 24.85 Q46.95 24.65 48.5 23.45 L49.35 24.3 50.35 25.45 50.45 25.45 M16.95 19.6 L17.15 20.3 17.45 22.5 17.7 23.75 17.9 24.75 20.45 26.7 20.95 26.95 20.55 28.9 20.75 30.0 20.9 30.6 17.55 30.6 17.55 35.15 18.25 37.5 20.75 39.7 21.85 40.45 Q23.1 41.4 24.5 42.15 L25.85 42.85 25.85 43.95 25.85 44.3 25.85 46.3 Q18.45 44.2 15.4 39.25 13.2 35.8 13.2 31.0 L14.5 30.3 15.65 29.3 15.95 29.1 16.9 27.6 Q16.9 26.95 15.4 26.2 14.2 25.55 13.85 25.55 L11.95 26.0 11.9 26.15 15.1 26.6 Q15.75 26.95 15.75 27.65 15.75 28.1 14.75 28.8 L13.75 29.65 13.7 29.65 11.95 30.75 4.65 29.15 5.4 27.85 6.4 26.45 6.85 25.8 10.1 25.3 10.7 25.0 11.4 24.6 13.85 23.1 15.65 21.6 15.65 21.15 15.4 20.3 15.95 19.7 16.35 20.1 16.95 19.6 M39.6 23.35 L39.75 24.5 Q39.75 25.8 39.0 26.9 38.15 28.05 37.05 28.2 35.85 28.4 34.75 27.55 33.65 26.65 33.65 25.1 L33.75 24.45 Q33.95 23.25 34.75 22.45 35.85 21.25 37.05 21.25 38.15 21.25 39.0 22.2 L39.6 23.35 M36.8 23.1 Q36.2 23.2 35.85 23.6 L35.7 23.7 Q35.3 24.25 35.3 24.9 35.3 25.65 35.85 26.2 36.35 26.75 37.1 26.75 37.85 26.75 38.4 26.2 39.0 25.65 39.0 24.9 39.0 24.15 38.4 23.6 L38.25 23.55 38.25 23.5 38.25 23.25 Q38.15 22.5 37.4 22.7 36.95 22.85 36.8 23.1" fill="#c34094" fill-rule="evenodd" stroke="none"/>
      <path d="M48.8 0.8 L49.2 1.05 50.2 1.8 50.7 3.85 Q51.1 5.6 51.15 7.4 L51.15 7.9 51.15 8.4 50.95 8.35 50.75 8.05 50.05 6.95 Q49.9 4.15 48.95 1.3 L48.8 0.8 M56.3 6.45 L56.3 11.2 56.15 11.1 56.05 11.05 56.05 10.45 55.8 6.7 55.65 6.0 55.6 5.95 55.65 6.0 56.05 6.3 56.3 6.45 M-0.95 10.1 L-0.95 6.3 -0.75 6.8 0.0 9.7 -0.95 10.1 M6.7 0.5 L7.75 0.3 7.9 0.3 Q9.5 0.2 9.55 2.5 L9.1 3.95 8.2 5.15 Q7.85 2.7 6.7 0.5 M26.6 3.3 Q30.5 2.65 34.55 3.8 35.15 5.0 35.15 6.15 35.15 6.75 34.55 7.55 34.0 8.4 33.85 8.1 L32.2 6.65 29.75 5.1 28.1 4.55 Q26.7 3.9 26.6 3.3 M45.85 15.9 L49.1 21.5 49.7 22.4 49.75 22.5 50.1 22.95 50.7 23.7 51.0 24.15 51.0 24.3 Q50.85 24.5 50.85 24.75 L50.45 25.45 50.35 25.45 49.35 24.3 48.5 23.45 Q46.95 24.65 45.9 24.85 L45.4 24.9 45.3 24.6 45.4 24.2 45.45 24.05 45.5 23.9 45.55 23.6 46.0 21.15 46.0 20.65 46.0 20.55 45.75 17.1 45.85 15.9 M32.45 5.35 L32.55 6.0 Q32.8 6.65 33.55 6.65 L34.25 6.4 34.4 6.0 Q33.75 4.7 33.15 4.7 32.45 4.7 32.45 5.35 M0.6 27.8 L3.55 24.6 4.2 24.5 7.95 23.4 Q8.2 23.25 8.4 23.2 L9.0 23.15 12.15 22.5 13.2 22.05 14.35 21.3 15.4 20.3 15.65 21.15 15.65 21.6 13.85 23.1 11.4 24.6 10.7 25.0 10.1 25.3 6.85 25.8 6.4 26.45 5.4 27.85 4.65 29.15 Q2.05 28.45 0.6 27.8 M21.85 40.45 L20.75 39.7 18.25 37.5 17.55 35.15 17.55 30.6 20.9 30.6 21.95 32.9 22.1 33.05 21.85 32.95 19.75 32.1 19.55 32.1 Q19.8 32.5 20.45 35.8 L20.95 37.65 21.5 39.85 21.85 40.45" fill="#da7ceb" fill-rule="evenodd" stroke="none"/>
      <path d="M46.05 15.0 L52.75 22.1 54.25 23.7 48.55 27.8 50.35 25.65 50.45 25.45 50.85 24.75 Q50.85 24.5 51.0 24.3 L51.0 24.15 50.7 23.7 50.1 22.95 49.75 22.5 49.7 22.4 49.1 21.5 45.85 15.9 45.9 15.4 45.95 15.15 46.05 15.0 M32.45 5.35 Q32.45 4.7 33.15 4.7 33.75 4.7 34.4 6.0 L34.25 6.4 33.55 6.65 Q32.8 6.65 32.55 6.0 L32.45 5.35 M36.8 23.1 Q36.95 22.85 37.4 22.7 38.15 22.5 38.25 23.25 L38.25 23.5 38.25 23.55 Q38.25 24.6 37.5 24.6 36.85 24.6 36.6 24.15 L36.5 23.75 36.55 23.5 36.8 23.1 M0.6 27.8 L-0.45 27.3 Q0.1 26.15 2.2 24.3 L3.4 23.2 3.55 23.0 8.4 18.35 10.55 16.3 Q13.45 17.3 15.95 19.7 L15.4 20.3 14.35 21.3 13.2 22.05 12.15 22.5 9.0 23.15 8.4 23.2 Q8.2 23.25 7.95 23.4 L4.2 24.5 3.55 24.6 0.6 27.8 M25.85 42.85 L24.5 42.15 Q23.1 41.4 21.85 40.45 L21.5 39.85 20.95 37.65 20.45 35.8 Q19.8 32.5 19.55 32.1 L19.75 32.1 21.85 32.95 22.1 33.05 22.6 33.85 23.35 34.95 23.65 35.2 24.5 35.9 24.55 35.95 24.8 36.1 25.1 36.75 25.1 36.8 25.15 37.15 25.45 39.25 25.55 40.5 25.6 41.2 25.7 41.9 25.75 42.2 25.85 42.85 M30.75 39.15 L31.15 39.15 32.2 39.25 34.2 39.55 36.1 39.25 36.95 39.15 37.3 39.15 Q36.4 39.9 36.9 40.8 34.1 41.9 31.35 40.7 L30.75 39.15" fill="#ffe5ff" fill-rule="evenodd" stroke="none"/>
      <path d="M8.9 39.55 L13.45 40.5 Q14.7 41.5 17.0 44.0 L17.2 44.3 17.85 44.9 16.75 47.0 15.1 49.55 14.35 50.5 11.55 53.5 10.65 54.3 10.7 53.45 Q10.85 51.65 11.3 50.0 L11.55 49.45 12.0 48.2 12.35 47.15 12.65 46.25 10.75 45.45 10.8 45.1 10.65 44.5 9.95 42.0 9.2 39.95 8.9 39.55" fill="#616195" fill-rule="evenodd" stroke="none"/>
      <path d="M53.3 55.85 L48.05 55.85 48.05 55.8 47.7 54.65 47.35 53.15 47.35 53.1 46.95 51.0 46.55 48.45 46.55 47.3 47.6 47.3 48.9 47.75 49.35 47.95 Q50.25 48.4 51.25 49.2 L53.05 50.75 53.45 51.05 53.45 52.05 53.45 52.95 53.3 55.85" fill="#2c5b8d" fill-rule="evenodd" stroke="none"/>
      <path d="M56.3 16.45 L56.3 18.65 55.55 18.25 56.2 16.85 56.3 16.45 M9.9 16.1 L8.5 15.75 9.6 13.75 10.45 10.4 12.15 9.2 Q14.15 7.25 14.2 3.9 L14.2 3.8 14.2 3.55 Q14.2 2.05 13.75 1.05 17.75 2.25 21.5 4.2 L21.55 4.95 21.55 6.35 21.55 6.55 21.55 7.25 21.45 9.1 20.9 12.35 Q20.15 15.45 18.55 17.7 L16.95 19.6 16.35 20.1 15.95 19.7 Q13.45 17.3 10.55 16.3 L9.9 16.1 M6.15 15.5 Q2.8 15.9 -0.45 17.15 0.05 15.85 0.15 14.2 3.65 12.15 4.45 12.05 L8.0 11.2 Q7.5 13.45 6.15 15.5 M37.4 4.75 L37.4 3.7 Q40.0 1.85 42.7 0.65 L43.3 0.3 43.8 0.2 Q44.75 1.45 45.05 3.25 45.35 4.65 45.2 7.5 45.2 8.4 46.35 10.35 L46.65 10.4 48.7 11.1 49.05 11.2 49.7 11.55 49.35 13.05 48.6 14.65 47.9 14.55 47.6 14.5 47.05 14.6 46.3 14.8 46.15 14.85 45.95 14.9 43.9 12.65 43.75 12.3 43.25 11.3 42.75 10.5 42.7 10.35 41.75 8.85 41.7 8.75 40.85 7.65 39.05 5.95 38.4 5.5 37.9 5.0 37.4 4.75 M50.7 12.25 L52.0 13.3 52.95 14.1 53.45 14.55 53.95 14.95 55.15 15.85 55.05 16.15 54.35 17.5 54.1 17.3 54.05 17.3 53.9 17.15 53.8 17.05 53.4 16.85 52.4 16.15 Q51.2 15.45 49.9 15.05 L50.35 13.6 50.7 12.25" fill="#046044" fill-rule="evenodd" stroke="none"/>
      <path d="M44.65 31.1 L44.45 30.4 44.45 30.3 44.25 28.8 Q44.25 27.7 44.7 27.3 L45.3 27.15 46.05 26.95 46.65 27.15 45.9 27.3 45.05 27.6 44.9 28.1 44.8 28.75 Q44.8 29.5 45.35 30.55 L45.0 30.75 45.35 30.55 45.35 30.6 45.15 30.7 45.0 30.75 44.65 31.1 M11.95 30.75 L13.7 29.65 13.75 29.65 14.75 28.8 Q15.75 28.1 15.75 27.65 15.75 26.95 15.1 26.6 L11.9 26.15 11.95 26.0 13.85 25.55 Q14.2 25.55 15.4 26.2 16.9 26.95 16.9 27.6 L15.95 29.1 15.65 29.3 14.5 30.3 13.2 31.0 11.95 30.75" fill="#6b0e5b" fill-rule="evenodd" stroke="none"/>
      <path d="M20.95 26.95 L22.5 28.15 22.95 28.45 23.65 28.55 25.85 29.15 30.5 30.7 32.4 31.4 34.5 32.45 34.7 32.6 35.3 32.95 36.05 33.25 37.25 34.0 37.7 34.3 38.25 33.8 38.75 33.25 39.45 32.45 39.75 32.1 40.1 31.75 41.1 30.4 42.0 29.4 42.2 29.1 42.75 28.45 42.85 28.4 43.6 27.45 43.55 29.15 43.3 30.9 43.25 31.1 43.05 32.35 42.85 33.1 42.75 33.2 42.6 33.95 42.4 34.3 42.1 34.95 42.0 35.05 41.95 35.5 41.95 35.7 41.8 36.75 41.4 37.3 40.85 38.2 40.95 37.3 41.1 35.85 41.1 35.75 41.2 35.05 41.1 35.05 41.1 34.25 40.95 34.45 40.8 34.5 40.6 34.75 40.3 34.8 39.85 34.9 39.45 34.8 39.05 35.35 38.15 35.95 37.25 35.5 36.95 35.3 36.55 35.05 35.45 34.45 35.15 34.3 34.25 33.9 33.15 34.6 33.05 34.6 32.3 34.95 30.5 35.75 27.6 36.25 24.65 35.95 24.55 35.95 24.5 35.9 23.65 35.2 23.35 34.95 22.6 33.85 22.1 33.05 21.95 32.9 20.9 30.6 20.75 30.0 20.55 28.9 20.95 26.95" fill="url(#gradient0)" fill-rule="evenodd" stroke="none"/>
      <path d="M24.55 35.95 L24.65 35.95 27.6 36.25 30.5 35.75 32.3 34.95 33.05 34.6 33.15 34.6 34.25 33.9 35.15 34.3 35.45 34.45 36.55 35.05 36.95 35.3 37.25 35.5 38.15 35.95 39.05 35.35 39.45 34.8 39.85 34.9 40.3 34.8 40.6 34.75 40.8 34.5 40.95 34.45 41.1 34.25 41.1 35.05 Q40.6 35.45 40.05 35.45 L39.9 35.45 39.4 35.8 38.75 36.15 38.75 36.2 38.9 36.4 39.6 37.05 39.4 37.5 Q39.15 37.75 39.15 38.1 L38.2 37.65 37.35 37.15 37.5 36.4 37.25 36.35 36.6 36.1 36.25 35.95 34.95 35.35 34.0 34.95 33.0 35.45 31.65 35.95 28.1 36.6 27.9 36.6 26.2 36.25 26.2 36.75 26.2 37.0 26.35 40.0 29.9 42.25 32.7 43.75 30.2 43.4 25.55 40.5 30.2 43.4 Q29.0 42.75 27.8 42.25 L26.4 41.6 25.6 41.2 25.55 40.5 25.45 39.25 25.15 37.15 25.1 36.8 25.1 36.75 24.8 36.1 24.55 35.95 M28.55 38.55 L28.8 37.9 Q29.1 37.35 29.55 37.35 30.05 37.35 30.0 37.75 L29.75 38.0 29.3 38.45 Q29.2 39.05 28.85 39.05 L28.55 38.8 28.55 38.55" fill="#d9ad91" fill-rule="evenodd" stroke="none"/>
      <path d="M41.1 35.05 L41.2 35.05 41.1 35.75 41.1 35.85 40.95 37.3 40.85 38.2 41.4 37.3 41.8 36.75 41.4 38.9 41.4 39.0 38.05 43.55 35.4 43.9 35.3 43.9 35.0 43.9 32.7 43.75 29.9 42.25 26.35 40.0 26.2 37.0 26.2 36.75 26.2 36.25 27.9 36.6 28.1 36.6 31.65 35.95 33.0 35.45 34.0 34.95 34.95 35.35 36.25 35.95 36.6 36.1 37.25 36.35 37.5 36.4 37.35 37.15 38.2 37.65 39.15 38.1 Q39.15 37.75 39.4 37.5 L39.6 37.05 38.9 36.4 38.75 36.2 38.75 36.15 39.4 35.8 39.9 35.45 40.05 35.45 Q40.6 35.45 41.1 35.05 M28.55 38.55 L28.55 38.8 28.85 39.05 Q29.2 39.05 29.3 38.45 L29.75 38.0 30.0 37.75 Q30.05 37.35 29.55 37.35 29.1 37.35 28.8 37.9 L28.55 38.55 M37.3 39.15 L36.95 39.15 36.1 39.25 34.2 39.55 32.2 39.25 31.15 39.15 30.75 39.15 31.35 40.7 Q34.1 41.9 36.9 40.8 36.4 39.9 37.3 39.15 L37.5 39.0 37.7 38.9 37.6 38.95 37.5 39.0 37.6 38.95 37.7 38.9 37.5 39.0 37.3 39.15 M30.75 39.15 L30.4 38.7 30.75 39.15" fill="#fff6db" fill-rule="evenodd" stroke="none"/>
      <path d="M38.25 23.55 L38.4 23.6 Q39.0 24.15 39.0 24.9 39.0 25.65 38.4 26.2 37.85 26.75 37.1 26.75 36.35 26.75 35.85 26.2 35.3 25.65 35.3 24.9 35.3 24.25 35.7 23.7 L35.85 23.6 Q36.2 23.2 36.8 23.1 L36.55 23.5 36.5 23.75 36.6 24.15 Q36.85 24.6 37.5 24.6 38.25 24.6 38.25 23.55" fill="#31152a" fill-rule="evenodd" stroke="none"/>
      <path d="M11.55 53.5 L13.95 53.85 16.65 54.6 17.35 54.8 Q18.6 55.2 19.65 55.75 M8.65 54.45 L10.0 55.85" fill="none" stroke="#5b114e" stroke-linecap="round" stroke-linejoin="round" stroke-width="1.0"/>
      <path d="M21.55 4.95 Q24.0 3.75 26.6 3.3 30.5 2.65 34.55 3.8 L37.4 4.75 37.9 5.0 38.4 5.5 39.05 5.95 40.85 7.65 41.7 8.75 41.75 8.85 42.7 10.35 42.75 10.5 43.25 11.3 43.75 12.3 43.9 12.65 45.95 14.9 46.05 15.0 52.75 22.1 54.25 23.7 48.55 27.8 45.35 30.55 45.0 30.75 44.65 31.1 44.65 31.3 Q44.6 32.9 45.05 34.0 45.8 35.75 47.8 36.15 L47.3 44.5 Q43.2 43.0 41.25 39.7 M44.45 15.15 L44.9 15.35 45.75 15.45 45.9 15.4 45.85 15.9 45.75 17.1 46.0 20.55 46.0 20.65 46.0 21.15 45.55 23.6 45.5 23.9 45.45 24.05 45.4 24.2 45.3 24.6 44.95 25.65 43.6 27.45 42.85 28.4 42.75 28.45 42.2 29.1 42.0 29.4 41.1 30.4 40.1 31.75 39.75 32.1 39.45 32.45 38.75 33.25 38.25 33.8 37.7 34.3 37.25 34.0 36.05 33.25 35.3 32.95 34.7 32.6 34.5 32.45 32.4 31.4 30.5 30.7 25.85 29.15 23.65 28.55 22.95 28.45 22.5 28.15 20.95 26.95 20.45 26.7 17.9 24.75 17.7 23.75 17.45 22.5 17.15 20.3 16.95 19.6 M43.95 24.0 L44.0 24.05 43.35 24.95 43.25 25.0 Q40.65 28.2 37.3 28.85 35.6 29.15 33.75 28.85 31.65 28.5 29.3 27.4 L26.9 26.05 27.4 25.65 Q32.65 21.0 37.1 21.0 40.8 20.9 43.95 24.0 M23.2 18.1 L18.55 17.7 M34.6 19.8 L36.6 20.1 44.45 15.15 M39.6 23.35 L39.75 24.5 Q39.75 25.8 39.0 26.9 38.15 28.05 37.05 28.2 35.85 28.4 34.75 27.55 33.65 26.65 33.65 25.1 L33.75 24.45 Q33.95 23.25 34.75 22.45 35.85 21.25 37.05 21.25 38.15 21.25 39.0 22.2 L39.6 23.35 M23.2 18.1 L34.6 19.8 M0.6 27.8 L-0.45 27.3 Q0.1 26.15 2.2 24.3 L3.4 23.2 3.55 23.0 8.4 18.35 10.55 16.3 M0.6 27.8 Q2.05 28.45 4.65 29.15 L11.95 30.75 13.2 31.0 Q13.2 35.8 15.4 39.25 18.45 44.2 25.85 46.3 L25.85 44.3 25.85 43.95 25.85 42.85 25.75 42.2 25.7 41.9 25.6 41.2 M8.9 39.55 L13.45 40.5 Q14.7 41.5 17.0 44.0 L17.2 44.3 17.85 44.9 16.75 47.0 15.1 49.55 14.35 50.5 11.55 53.5 10.65 54.3 10.55 54.35 8.65 54.45 7.25 54.6 5.9 54.85 5.45 54.95 M30.75 39.15 L31.15 39.15 32.2 39.25 34.2 39.55 36.1 39.25 36.95 39.15 37.3 39.15 37.5 39.0 37.7 38.9 37.6 38.95 37.5 39.0 M30.75 39.15 L31.35 40.7 Q34.1 41.9 36.9 40.8 36.4 39.9 37.3 39.15 M30.4 38.7 L30.75 39.15" fill="none" stroke="#31152a" stroke-linecap="round" stroke-linejoin="round" stroke-width="1.0"/>
      <path d="M43.8 0.2 L45.85 -0.15 46.7 -0.1 46.8 0.0 47.5 0.15 Q48.05 0.3 48.65 0.75 L48.8 0.8 49.2 1.05 50.2 1.8 53.3 4.15 53.35 4.2 53.8 3.5 56.3 -0.2 M9.9 16.1 L8.5 15.75 7.3 15.55 6.6 15.45 6.15 15.5 Q2.8 15.9 -0.45 17.15 L-0.95 17.4 M-0.95 4.25 Q1.7 2.8 4.3 1.45 5.55 0.85 6.7 0.5 L7.75 0.3 7.9 0.3 9.1 0.15 Q10.9 0.1 12.85 0.75 L13.75 1.05 Q17.75 2.25 21.5 4.2 L21.55 4.95 21.55 6.35 21.55 6.55 21.55 7.25 21.45 9.1 20.9 12.35 Q20.15 15.45 18.55 17.7 L16.95 19.6 16.35 20.1 15.95 19.7 Q13.45 17.3 10.55 16.3 L9.9 16.1 M37.4 4.75 L37.4 3.7 Q40.0 1.85 42.7 0.65 L43.3 0.3 43.8 0.2 M55.6 5.95 L55.65 6.0 56.05 6.3 56.3 6.45 M55.6 5.95 L54.8 5.25 54.65 5.2 54.15 4.8 53.35 4.2 M45.95 14.9 L46.15 14.85 46.3 14.8 47.05 14.6 47.6 14.5 47.9 14.55 48.6 14.65 49.9 15.05 Q51.2 15.45 52.4 16.15 L53.4 16.85 53.8 17.05 53.9 17.15 54.05 17.3 54.1 17.3 54.35 17.5 55.55 18.25 56.3 18.65 M46.05 15.0 L46.15 14.85 M52.75 22.1 L56.3 21.75 M45.95 15.15 L46.05 15.0 M51.25 34.9 L52.1 37.15 Q53.15 40.45 53.4 44.75 54.05 44.95 55.5 46.55 L56.3 47.45 M48.45 33.9 Q49.6 34.05 51.25 34.9 M46.15 33.95 L47.9 33.85 48.45 33.9 M45.05 34.0 L46.15 33.95 M-0.95 29.6 Q1.75 31.85 4.8 35.0 L5.9 36.2 7.5 38.0 7.55 38.0 7.6 38.1 8.9 39.55 9.2 39.95 9.95 42.0 10.65 44.5 10.8 45.1 10.75 45.45 10.15 47.4 9.8 48.05 Q8.75 49.8 7.45 50.75 L5.4 51.7 5.45 54.95 5.35 55.85 M-0.95 45.4 L0.7 45.6 Q2.85 46.05 4.05 46.8 L5.15 49.85 5.4 51.7 M36.15 48.0 L35.5 44.45 35.4 43.9 M36.2 48.35 L36.15 48.0 M37.0 52.3 L36.6 50.25 36.2 48.35 M37.0 52.3 L37.7 55.85" fill="none" stroke="#28223c" stroke-linecap="round" stroke-linejoin="round" stroke-width="1.0"/>
      <path d="M41.55 12.7 L41.05 13.6 40.6 14.55 M41.05 13.6 L40.6 14.0 40.05 11.7 39.9 11.15 38.75 7.5 38.5 6.9 37.9 5.0 37.35 5.35 Q35.55 6.75 33.65 11.15 32.6 10.5 31.5 10.0 26.75 7.75 21.55 6.35 M42.7 10.35 L41.55 12.7 M23.25 10.9 L22.75 9.5 21.75 7.55 21.55 7.25 M20.9 12.35 L23.0 13.25 24.15 13.7 23.25 10.9" fill="none" stroke="#462258" stroke-linecap="round" stroke-linejoin="round" stroke-width="1.0"/>
      <path d="M41.8 36.75 L41.95 35.7 41.95 35.5 42.0 35.05 42.1 34.95 42.4 34.3 42.6 33.95 42.75 33.2 42.85 33.1 43.05 32.35 43.25 31.1 43.3 30.9 43.55 29.15 43.6 27.45 M41.8 36.75 L41.4 38.9 41.4 39.0 M20.9 30.6 L20.75 30.0 20.55 28.9 20.95 26.95 M20.9 30.6 L21.95 32.9 22.1 33.05 22.6 33.85 23.35 34.95 23.65 35.2 24.5 35.9 24.55 35.95 24.8 36.1 25.1 36.75 25.1 36.8 25.15 37.15 25.45 39.25 25.55 40.5 25.6 41.2" fill="none" stroke="#552355" stroke-linecap="round" stroke-linejoin="round" stroke-width="1.0"/>
      <path d="M-0.95 19.9 L1.65 18.7 Q2.4 18.3 3.15 18.05 L3.3 18.0 Q6.0 17.0 8.25 16.45 L9.0 16.3 9.9 16.1 M45.15 30.7 Q47.25 31.5 48.45 33.9" fill="none" stroke="#252135" stroke-linecap="round" stroke-linejoin="round" stroke-width="1.0"/>
      <path d="M25.55 40.5 L30.2 43.4 32.1 44.35 35.0 43.9 M35.3 43.9 L35.4 43.9 38.05 43.55 41.4 39.0" fill="none" stroke="#481616" stroke-linecap="round" stroke-linejoin="round" stroke-width="1.0"/>
    </g>
    <linearGradient gradientTransform="matrix(0.0, 0.0035, -0.0068, 0.0, 32.25, 33.75)" gradientUnits="userSpaceOnUse" id="gradient0" spreadMethod="pad" x1="-819.2" x2="819.2">
      <stop offset="0.0" stop-color="#000000"/>
      <stop offset="1.0" stop-color="#a95c5c"/>
    </linearGradient>
    <g id="shape2" transform="matrix(1.0, 0.0, 0.0, 1.0, 0.0, 0.0)">
      <path d="M50.5 0.0 Q53.95 0.0 53.95 3.3 L53.95 50.15 Q53.95 53.4 50.5 53.4 L3.3 53.4 Q0.0 53.4 0.0 50.15 L0.0 3.3 Q0.0 0.0 3.3 0.0 L50.5 0.0" fill="#000000" fill-opacity="0.003921569" fill-rule="evenodd" stroke="none"/>
    </g>
  </defs>
</svg>
