<?xml version="1.0" encoding="UTF-8" standalone="no"?>
<svg xmlns:ffdec="https://www.free-decompiler.com/flash" xmlns:xlink="http://www.w3.org/1999/xlink" ffdec:objectType="frame" height="56.85px" width="58.75px" xmlns="http://www.w3.org/2000/svg">
  <g transform="matrix(1.0, 0.0, 0.0, 1.0, 1.45, 0.5)">
    <clipPath id="clipPath0" transform="matrix(1.0, 0.0, 0.0, 1.0, 0.0, 0.0)">
      <path d="M50.5 0.0 Q53.95 0.0 53.95 3.3 L53.95 50.15 Q53.95 53.4 50.5 53.4 L3.3 53.4 Q0.0 53.4 0.0 50.15 L0.0 3.3 Q0.0 0.0 3.3 0.0 L50.5 0.0" fill="#000000" fill-rule="evenodd" stroke="none"/>
    </clipPath>
    <g clip-path="url(#clipPath0)">
      <use ffdec:characterId="2" height="56.85" transform="matrix(1.0, 0.0, 0.0, 1.0, -1.45, -0.5)" width="58.75" xlink:href="#shape1"/>
    </g>
    <use ffdec:characterId="3" height="53.4" transform="matrix(1.0, 0.0, 0.0, 1.0, 0.0, 0.0)" width="53.95" xlink:href="#shape2"/>
  </g>
  <defs>
    <g id="shape1" transform="matrix(1.0, 0.0, 0.0, 1.0, 1.45, 0.5)">
      <path d="M19.95 0.0 L23.2 0.0 24.85 2.9 27.25 7.2 27.8 8.35 29.85 12.65 Q31.1 15.45 31.8 17.75 L32.25 17.95 33.65 18.65 34.1 18.9 34.45 19.05 35.8 19.9 36.5 20.25 36.85 20.5 39.0 21.95 36.85 23.2 36.6 23.4 36.5 23.45 36.15 23.65 Q32.85 25.5 31.35 25.8 L33.1 24.7 33.15 24.7 33.15 24.65 33.2 24.65 33.2 24.55 35.3 22.8 35.35 22.7 35.45 22.45 33.85 21.15 33.3 20.75 33.45 19.75 31.25 18.15 31.2 18.1 Q30.2 15.1 27.2 9.7 L24.05 4.35 Q24.3 4.7 24.55 9.35 L24.7 11.3 Q24.8 13.8 25.05 16.05 L24.25 13.0 23.8 11.2 19.95 0.0 M45.35 22.4 L48.3 22.65 48.9 22.7 49.15 22.75 52.25 23.2 53.6 23.65 53.75 23.9 54.35 24.55 54.65 26.3 Q54.65 27.45 54.05 29.45 L53.2 30.55 51.9 31.7 50.2 32.85 51.8 30.85 51.85 30.8 Q53.65 28.2 53.65 26.6 53.65 24.75 51.75 24.1 L49.55 23.7 49.25 23.55 Q47.7 22.9 45.35 22.4 M-0.95 43.1 L-0.95 42.0 1.25 42.3 2.25 42.3 3.0 42.3 3.2 42.3 3.35 42.3 4.25 42.25 4.65 42.15 6.2 41.7 7.2 41.3 8.6 40.7 9.15 40.7 6.6 42.05 Q4.4 42.95 1.7 43.1 L0.4 43.15 -0.75 43.15 -0.95 43.1 M56.05 14.3 L56.15 15.15 55.8 16.3 55.75 16.3 54.5 19.05 54.4 18.9 53.8 16.05 Q53.8 15.65 54.3 15.0 L54.75 14.4 54.95 14.4 56.05 14.3" fill="#ffffff" fill-rule="evenodd" stroke="none"/>
      <path d="M15.75 24.2 L10.95 25.05 9.05 19.15 7.0 13.15 6.15 12.7 7.05 18.85 Q7.55 22.55 8.4 24.0 L6.25 20.6 5.55 18.0 -0.85 5.65 -0.95 5.45 -0.95 1.5 8.4 13.15 8.55 13.65 9.5 16.85 10.05 18.75 11.65 24.05 13.35 24.2 15.75 24.1 15.75 24.2 M34.5 11.5 L34.05 8.0 33.55 3.05 33.75 0.0 38.2 0.0 37.75 2.0 Q37.3 4.15 37.15 6.1 L38.3 17.2 38.3 18.2 38.15 18.2 38.15 17.4 37.15 10.15 37.0 9.35 37.15 11.15 36.95 9.8 36.05 4.25 35.25 5.95 35.75 10.6 36.5 17.25 36.6 18.05 34.45 19.05 34.1 18.9 34.8 18.2 34.95 18.1 35.5 17.55 35.5 17.35 34.95 14.1 34.5 11.5 M36.75 2.8 L36.7 2.8 36.7 2.9 36.75 2.8" fill="#fffd85" fill-rule="evenodd" stroke="none"/>
      <path d="M-0.95 10.8 L-0.95 5.45 -0.85 5.65 5.55 18.0 6.25 20.6 8.4 24.0 Q7.55 22.55 7.05 18.85 L6.15 12.7 7.0 13.15 9.05 19.15 10.95 25.05 15.75 24.2 Q14.05 26.6 12.8 28.85 L12.15 30.2 12.5 30.35 13.15 30.6 13.35 30.7 13.85 30.9 14.5 30.9 15.95 30.95 16.3 30.95 16.5 31.5 16.65 32.2 16.7 32.4 16.7 32.45 16.85 33.6 16.9 34.3 16.9 34.9 16.65 37.4 15.75 37.4 14.5 37.4 14.05 37.3 13.55 37.25 12.65 34.35 12.15 33.0 10.4 29.55 9.15 27.75 Q8.5 27.0 7.7 26.8 L6.65 26.75 6.1 26.7 5.7 26.55 2.85 24.75 0.0 13.9 -0.95 10.8 M38.2 0.0 L38.6 0.0 Q38.95 2.3 40.35 7.8 L40.95 10.35 40.95 12.0 40.8 20.15 40.8 20.2 40.8 20.4 40.15 20.1 Q39.7 20.1 39.5 20.4 39.3 20.65 39.0 21.95 L36.85 20.5 36.5 20.25 35.8 19.9 34.45 19.05 36.6 18.05 36.5 17.25 35.75 10.6 35.25 5.95 36.05 4.25 36.95 9.8 37.15 11.15 37.0 9.35 37.15 10.15 38.15 17.4 38.15 18.2 38.3 18.2 38.3 17.2 37.15 6.1 Q37.3 4.15 37.75 2.0 L38.2 0.0 M39.5 24.3 L39.2 29.0 39.25 32.2 38.75 32.7 37.75 33.15 37.1 33.35 37.05 31.6 37.05 31.25 37.0 26.7 37.6 26.15 38.1 25.7 39.5 24.3 M36.75 2.8 L36.7 2.9 36.7 2.8 36.75 2.8" fill="#f09f34" fill-rule="evenodd" stroke="none"/>
      <path d="M16.85 33.6 L16.7 32.45 16.75 32.45 Q18.45 35.1 19.1 35.65 20.2 36.7 22.25 36.7 L22.85 36.7 23.6 36.6 24.0 36.55 25.85 36.45 27.3 36.6 27.75 36.75 27.85 36.75 27.85 36.7 27.75 36.3 27.65 35.8 Q26.8 34.25 25.6 33.05 L25.4 32.85 25.0 32.5 25.05 32.85 Q25.05 33.65 24.3 33.65 22.3 33.3 22.3 31.4 L22.3 31.15 23.8 31.25 25.65 32.15 27.0 32.75 27.4 33.6 27.7 34.4 28.2 36.05 28.35 36.65 28.4 36.85 28.5 37.25 28.25 37.2 27.45 37.0 26.9 36.95 26.25 36.95 25.9 36.95 25.25 36.95 25.2 36.95 24.2 37.05 22.8 37.2 22.3 37.2 Q20.0 37.2 18.8 36.05 18.2 35.6 16.85 33.6 M16.5 31.5 L16.3 30.95 18.1 31.0 18.0 31.0 17.95 31.0 16.5 31.5 M56.8 36.2 L56.8 38.0 56.3 37.9 54.15 37.15 53.8 37.0 53.1 36.65 54.65 35.65 54.75 35.7 54.85 35.7 56.8 36.2 M-0.95 48.95 L-0.95 47.0 1.6 45.25 1.8 45.0 1.85 44.95 2.15 44.4 1.85 44.25 1.1 44.2 -0.2 44.35 -0.95 44.5 -0.95 43.45 0.25 43.35 1.8 43.5 2.2 43.55 2.85 43.75 3.35 43.95 3.9 44.05 3.9 44.7 Q3.9 46.45 0.2 48.4 L-0.65 48.85 -0.95 48.95 M51.9 31.7 L53.2 30.55 53.7 30.5 51.9 31.7 M50.55 31.2 Q50.1 32.25 49.15 33.15 L49.1 33.1 Q48.8 32.45 48.8 31.8 L49.0 31.8 49.3 31.8 50.0 31.4 50.55 31.2 M49.3 33.45 L49.25 33.35 49.65 33.2 49.3 33.45 M31.45 32.3 L32.7 29.7 33.8 29.1 34.05 29.75 34.1 30.2 34.0 30.65 Q33.85 31.6 33.2 31.6 32.7 31.6 32.55 31.25 L32.45 30.45 32.25 31.15 32.15 31.6 31.7 34.3 31.7 35.7 31.75 35.65 32.4 34.8 33.3 34.75 34.9 34.35 35.55 33.65 35.95 32.65 36.5 30.15 36.5 29.35 36.25 28.3 36.05 27.85 36.05 27.75 36.05 27.65 35.85 27.65 36.4 27.2 36.45 27.25 36.5 27.4 36.6 27.7 36.7 27.9 36.85 29.05 36.85 29.75 Q36.85 31.3 36.4 32.7 L35.4 34.65 35.2 34.75 Q34.55 35.2 33.3 35.3 L33.15 35.3 32.25 35.4 31.95 35.75 31.55 36.4 31.5 36.5 31.4 33.85 31.4 32.75 31.45 32.3" fill="#af2c24" fill-rule="evenodd" stroke="none"/>
      <path d="M16.7 32.4 L16.65 32.2 16.5 31.5 17.95 31.0 18.0 31.0 18.1 31.0 18.8 31.0 22.3 31.15 22.3 31.4 Q22.3 33.3 24.3 33.65 25.05 33.65 25.05 32.85 L25.0 32.5 25.4 32.85 25.6 33.05 Q26.8 34.25 27.65 35.8 L27.75 36.3 27.85 36.7 27.85 36.75 27.75 36.75 27.3 36.6 25.85 36.45 24.0 36.55 23.6 36.6 22.85 36.7 22.25 36.7 Q20.2 36.7 19.1 35.65 18.45 35.1 16.75 32.45 L16.9 32.35 16.7 32.4 M56.8 34.25 L56.8 34.9 56.65 34.85 56.05 34.75 56.8 34.25 M-0.95 46.1 L-0.95 44.5 -0.2 44.35 Q0.2 44.4 0.2 44.7 0.2 45.2 -0.95 46.1 M33.8 29.1 L35.85 27.65 36.05 27.65 36.05 27.75 36.05 27.85 36.25 28.3 36.5 29.35 36.5 30.15 35.95 32.65 35.55 33.65 34.9 34.35 33.3 34.75 32.4 34.8 31.75 35.65 31.7 35.7 31.7 34.3 32.15 31.6 32.25 31.15 32.45 30.45 32.55 31.25 Q32.7 31.6 33.2 31.6 33.85 31.6 34.0 30.65 L34.1 30.2 34.05 29.75 33.8 29.1 M17.5 32.0 L17.3 32.15 Q18.95 34.5 20.05 35.25 20.85 35.8 22.2 35.8 L22.45 35.8 26.75 35.55 25.55 34.0 25.25 34.2 25.05 34.75 24.0 34.95 Q21.2 34.95 21.05 32.35 L18.0 31.95 17.5 32.0 M32.7 33.1 L32.65 33.0 32.45 32.45 32.4 32.2 Q32.15 33.2 32.25 34.4 L32.25 34.5 Q33.85 34.55 34.95 33.05 L35.1 32.85 Q35.95 31.5 35.95 29.75 L35.95 29.7 35.85 28.65 35.8 28.7 34.75 29.45 34.7 31.3 34.5 31.95 34.35 32.4 34.0 33.1 34.0 32.85 Q34.0 32.5 33.3 32.45 L32.8 32.45 32.7 33.1" fill="#f14a38" fill-rule="evenodd" stroke="none"/>
      <path d="M56.8 34.9 L56.8 36.2 54.85 35.7 54.75 35.7 54.65 35.65 56.05 34.75 56.65 34.85 56.8 34.9 M-0.95 47.0 L-0.95 46.1 Q0.2 45.2 0.2 44.7 0.2 44.4 -0.2 44.35 L1.1 44.2 1.85 44.25 2.15 44.4 1.85 44.95 1.8 45.0 1.6 45.25 -0.95 47.0 M19.55 32.85 Q18.8 33.05 18.6 33.3 18.9 34.25 19.6 34.8 L20.6 35.25 20.9 35.15 21.05 34.35 19.95 32.7 19.55 32.85 M17.5 32.0 L18.0 31.95 21.05 32.35 Q21.2 34.95 24.0 34.95 L25.05 34.75 25.25 34.2 25.55 34.0 26.75 35.55 22.45 35.8 22.2 35.8 Q20.85 35.8 20.05 35.25 18.95 34.5 17.3 32.15 L17.5 32.0 M34.0 33.1 L34.35 32.4 34.5 31.95 34.7 31.3 34.75 29.45 35.8 28.7 35.85 28.65 35.95 29.7 35.95 29.75 Q35.95 31.5 35.1 32.85 L34.95 33.05 Q33.85 34.55 32.25 34.5 L32.25 34.4 Q32.15 33.2 32.4 32.2 L32.45 32.45 32.65 33.0 32.7 33.1 32.7 33.35 32.8 33.95 Q33.4 33.85 33.8 33.4 L34.0 33.1 M34.7 31.95 L34.6 32.2 34.55 32.5 34.75 32.45 34.9 32.2 35.2 31.25 34.95 31.6 34.75 31.95 34.7 31.95 M21.75 34.9 L21.55 34.9 21.5 35.0 21.55 35.3 21.8 35.35 22.65 35.2 Q22.5 35.0 21.85 34.9 L21.75 34.9" fill="#ffae66" fill-rule="evenodd" stroke="none"/>
      <path d="M56.8 50.75 L56.8 55.85 56.5 55.85 53.45 54.0 Q53.45 53.5 54.4 49.0 55.2 49.0 56.3 50.2 L56.8 50.75" fill="#f154fa" fill-rule="evenodd" stroke="none"/>
      <path d="M56.8 45.85 L56.8 47.2 Q56.2 47.3 56.05 47.45 L56.15 47.45 56.8 48.05 56.8 49.85 54.4 48.65 51.55 49.7 51.15 49.85 49.55 50.45 47.6 51.1 47.6 51.15 Q45.85 54.15 45.1 54.15 43.8 53.5 42.55 52.25 40.1 49.85 40.1 47.0 40.1 45.9 40.45 44.9 L44.7 42.15 45.6 43.3 Q46.35 44.55 49.05 45.35 L56.2 45.85 56.8 45.85 M8.75 55.85 L6.75 55.85 7.15 55.4 7.8 55.2 8.9 55.0 8.8 55.45 8.75 55.85 M20.2 40.9 L20.25 40.95 20.65 41.15 22.75 42.05 23.0 42.15 25.15 42.9 26.55 43.35 28.55 44.0 29.8 44.3 30.55 43.8 31.25 43.3 Q33.15 41.75 35.25 39.05 L35.55 38.15 35.85 37.35 36.15 37.6 36.05 38.05 34.5 41.4 31.85 44.0 Q28.1 47.25 24.95 48.05 L23.15 47.15 Q21.8 45.8 20.65 43.4 L20.0 41.95 20.2 40.9 M25.7 40.05 L25.65 40.0 25.7 40.0 25.7 40.05 M47.05 51.3 L47.6 51.15 47.05 51.3" fill="#192144" fill-rule="evenodd" stroke="none"/>
      <path d="M6.1 26.7 L6.65 26.75 7.7 26.8 Q8.5 27.0 9.15 27.75 L10.4 29.55 12.15 33.0 12.65 34.35 13.55 37.25 10.9 36.75 Q9.45 36.35 9.05 35.9 L8.95 35.75 7.7 34.05 6.75 32.65 5.25 30.2 5.15 29.7 5.25 29.1 5.6 27.75 6.1 26.7 M49.55 13.4 L48.35 13.35 45.4 12.85 46.35 11.1 49.75 9.15 Q54.0 6.95 54.75 6.95 L56.25 7.0 56.55 7.05 56.8 7.1 56.8 10.35 55.7 10.45 Q52.1 11.5 51.45 12.75 L50.45 13.6 50.45 13.45 49.95 13.45 49.55 13.4 M56.8 38.0 L56.8 38.9 55.9 38.6 55.7 38.5 54.6 38.1 52.7 37.25 52.45 37.1 53.1 36.65 53.8 37.0 54.15 37.15 56.3 37.9 56.8 38.0 M56.8 43.3 L56.8 45.85 56.2 45.85 49.05 45.35 Q46.35 44.55 45.6 43.3 L44.7 42.15 49.5 39.05 Q51.45 40.6 56.6 43.15 L56.8 43.3 M47.4 55.85 L41.4 55.85 41.05 55.6 Q38.85 53.85 37.55 51.25 L37.3 50.45 37.3 50.4 Q37.1 49.7 37.05 48.65 L38.55 46.15 40.45 44.9 Q40.1 45.9 40.1 47.0 40.1 49.85 42.55 52.25 43.8 53.5 45.1 54.15 45.85 54.15 47.6 51.15 L47.6 51.1 49.55 50.45 49.0 52.1 47.4 55.85 M36.0 55.85 L35.3 55.85 Q36.3 54.85 36.25 51.85 L36.55 52.65 37.0 53.75 36.0 55.85 M29.8 55.85 L26.9 55.85 26.35 55.55 25.35 54.7 26.45 54.0 27.0 54.4 Q28.15 55.05 28.85 55.05 L28.9 55.05 29.9 54.9 29.8 55.85 M15.6 55.85 L11.65 55.85 11.9 53.95 11.95 53.85 13.4 52.3 13.4 52.4 13.35 52.95 Q13.35 54.0 13.7 54.7 L14.05 55.05 Q14.75 55.6 15.4 55.6 L15.75 55.6 16.25 55.45 15.6 55.85 M10.65 55.85 L8.75 55.85 8.8 55.45 8.9 55.0 11.0 54.45 10.85 54.95 10.65 55.85 M6.75 55.85 L6.05 55.85 7.15 55.4 6.75 55.85 M4.45 55.85 L-0.5 55.85 0.05 54.9 0.2 54.55 1.1 53.65 1.55 52.85 1.65 52.1 Q1.65 51.1 1.2 50.65 0.95 50.4 0.5 50.35 L4.5 47.2 Q5.95 45.75 5.95 45.05 L5.95 44.9 Q4.65 45.15 4.2 45.6 L3.0 47.3 Q1.15 48.85 -0.25 49.45 L-0.3 49.5 -0.95 49.75 -0.95 48.95 -0.65 48.85 0.2 48.4 Q3.9 46.45 3.9 44.7 L3.9 44.05 3.85 43.85 3.7 43.85 5.85 43.35 8.1 42.9 12.55 42.45 12.15 43.35 Q11.25 43.6 10.65 44.1 9.95 44.7 8.7 47.9 7.75 50.4 7.35 51.9 L6.65 52.7 5.25 53.55 Q4.6 53.85 4.6 54.0 L4.4 54.55 4.4 55.2 4.45 55.85 M-0.95 52.55 L-0.95 51.45 -0.45 51.25 Q0.3 51.25 0.75 51.7 L1.0 52.35 0.95 52.65 -0.95 52.55 M40.8 20.2 L41.4 20.95 42.15 22.3 42.4 22.7 42.45 23.65 42.45 23.9 42.45 24.3 42.4 25.35 42.15 26.65 41.85 28.0 41.5 29.35 41.15 29.8 39.9 31.4 39.25 32.2 39.2 29.0 39.5 24.3 39.55 24.2 39.55 25.45 40.35 25.4 41.05 25.45 Q40.9 25.7 40.7 27.0 L40.55 28.2 40.5 28.85 40.7 28.2 Q41.55 25.2 41.55 23.9 41.55 22.85 40.6 21.85 L39.9 22.2 39.8 22.25 39.75 22.5 39.5 22.35 39.0 21.95 Q39.3 20.65 39.5 20.4 39.7 20.1 40.15 20.1 L40.8 20.4 40.8 20.2 M49.15 33.15 L48.65 33.5 48.75 33.5 49.25 33.35 49.3 33.45 41.9 38.35 41.75 38.2 41.9 38.35 40.4 39.4 41.75 38.2 41.65 38.05 40.95 37.3 Q39.5 35.7 39.5 35.3 39.5 34.95 40.2 34.35 40.95 33.7 42.3 32.95 L42.65 32.75 43.15 32.7 44.7 32.4 48.8 31.8 Q48.8 32.45 49.1 33.1 L49.15 33.15 M33.3 20.75 L33.85 21.15 35.45 22.45 35.35 22.7 34.65 22.3 33.2 21.45 33.05 21.35 Q29.5 19.3 28.55 19.3 L28.1 20.1 27.7 20.7 27.4 21.05 27.3 21.15 26.85 22.7 Q26.85 23.1 29.75 27.7 30.2 25.65 30.45 25.45 L32.7 24.75 33.1 24.7 31.35 25.8 30.95 26.05 30.35 28.2 29.45 30.7 29.35 30.65 Q28.65 30.15 24.55 27.85 L18.0 27.85 19.6 24.65 21.2 22.1 Q21.9 21.05 22.65 20.35 L25.1 21.0 27.05 21.15 27.35 20.75 27.65 20.25 27.8 19.9 27.9 19.7 28.35 18.75 28.45 18.45 29.0 18.65 29.5 18.8 Q30.85 19.3 32.15 20.05 L33.3 20.75 M34.1 18.9 L33.65 18.65 32.25 17.95 31.8 17.75 Q31.1 15.45 29.85 12.65 32.65 14.15 34.6 17.5 L34.95 18.1 34.8 18.2 34.1 18.9 M24.5 23.9 L25.9 24.75 27.05 25.4 25.4 23.0 24.5 23.9 M10.05 18.75 L12.0 14.75 11.8 16.6 Q11.8 17.85 12.25 18.35 L12.85 18.7 Q13.7 18.7 14.9 16.8 15.95 15.15 16.1 14.05 16.2 12.85 16.6 12.65 L18.1 12.3 18.15 12.3 18.2 20.9 15.75 24.1 13.35 24.2 11.65 24.05 10.05 18.75 M5.6 30.15 L6.8 31.65 8.55 33.8 8.7 34.0 8.85 34.0 8.85 33.75 7.8 31.4 Q7.8 30.95 8.4 30.7 L9.35 30.4 Q8.8 29.45 7.9 28.6 L7.3 28.05 6.45 28.85 Q5.75 29.55 5.65 30.0 L5.6 30.15 M19.0 42.85 L19.55 42.5 Q19.6 46.25 20.95 47.65 L20.9 47.8 19.7 52.15 19.6 52.4 19.55 52.7 19.55 52.9 19.5 53.25 17.2 54.8 17.5 54.5 18.45 52.8 18.45 52.7 18.6 52.15 18.6 51.65 18.15 50.3 Q17.55 49.45 16.5 49.35 L17.7 48.35 Q19.05 46.95 19.05 43.85 L19.0 42.85 M20.15 52.8 L20.2 52.65 20.3 52.2 Q21.1 49.35 21.95 48.15 L22.85 48.35 24.45 48.15 24.5 48.15 24.95 48.05 Q28.1 47.25 31.85 44.0 L34.5 41.4 33.85 42.65 32.95 43.75 31.25 45.1 Q30.5 45.65 30.1 46.25 L20.15 52.8" fill="#075496" fill-rule="evenodd" stroke="none"/>
      <path d="M9.5 16.85 Q10.45 14.45 12.75 12.15 15.4 9.55 18.1 8.55 L18.15 12.3 18.1 12.3 16.6 12.65 Q16.2 12.85 16.1 14.05 15.95 15.15 14.9 16.8 13.7 18.7 12.85 18.7 L12.25 18.35 Q11.8 17.85 11.8 16.6 L12.0 14.75 10.05 18.75 9.5 16.85 M27.25 7.2 Q29.5 7.9 32.2 9.75 L34.5 11.5 34.95 14.1 35.5 17.35 35.5 17.55 34.95 18.1 34.6 17.5 Q32.65 14.15 29.85 12.65 L27.8 8.35 27.25 7.2 M46.35 11.1 Q47.45 9.05 48.9 7.0 50.9 4.25 53.65 1.35 L54.95 0.0 56.8 0.0 56.8 3.7 55.55 4.5 55.35 5.05 55.35 5.25 55.6 5.15 56.8 4.4 56.8 7.1 56.55 7.05 56.25 7.0 54.75 6.95 Q54.0 6.95 49.75 9.15 L46.35 11.1 M56.8 38.9 L56.8 43.3 56.6 43.15 Q51.45 40.6 49.5 39.05 L52.45 37.1 52.7 37.25 54.6 38.1 55.7 38.5 55.9 38.6 56.8 38.9 M26.9 55.85 L23.6 55.85 25.35 54.7 26.35 55.55 26.9 55.85 M-0.5 55.85 L-0.95 55.85 -0.95 54.2 -0.95 52.55 0.95 52.65 Q0.8 53.1 0.1 53.55 -0.45 54.0 -0.95 54.2 L-0.4 54.7 0.2 54.55 0.05 54.9 -0.5 55.85 M-0.95 50.5 L-0.95 49.75 -0.3 49.5 -0.25 49.45 Q1.15 48.85 3.0 47.3 L4.2 45.6 Q4.65 45.15 5.95 44.9 L5.95 45.05 Q5.95 45.75 4.5 47.2 L0.5 50.35 0.2 50.3 -0.15 50.3 -0.95 50.5 M39.75 22.5 L39.8 22.25 39.9 22.2 40.6 21.85 Q41.55 22.85 41.55 23.9 41.55 25.2 40.7 28.2 L40.5 28.85 40.55 28.2 40.7 27.0 Q40.9 25.7 41.05 25.45 L40.35 25.4 39.55 25.45 39.55 24.2 40.55 23.2 39.85 22.6 39.75 22.5 M35.35 22.7 L35.3 22.8 33.2 24.55 33.2 24.65 33.15 24.65 33.15 24.7 33.1 24.7 32.7 24.75 30.45 25.45 Q30.2 25.65 29.75 27.7 26.85 23.1 26.85 22.7 L27.3 21.15 27.4 21.05 27.7 20.7 28.1 20.1 28.55 19.3 Q29.5 19.3 33.05 21.35 L33.2 21.45 34.65 22.3 35.35 22.7 M28.75 20.65 L27.9 21.85 27.9 22.1 29.2 22.35 31.3 22.35 Q31.2 21.8 30.05 21.05 L29.45 20.65 28.85 20.45 28.75 20.65 M24.5 23.9 L25.4 23.0 27.05 25.4 25.9 24.75 24.5 23.9 M15.4 12.65 L14.2 12.65 13.85 13.0 13.15 14.05 12.8 14.8 12.8 15.1 12.8 15.25 Q12.85 16.15 13.35 16.15 13.9 16.15 14.7 15.35 15.4 14.5 15.4 13.8 L15.4 12.65 M5.6 30.15 L5.65 30.0 Q5.75 29.55 6.45 28.85 L7.3 28.05 7.9 28.6 Q8.8 29.45 9.35 30.4 L8.4 30.7 Q7.8 30.95 7.8 31.4 L8.85 33.75 8.85 34.0 8.7 34.0 8.55 33.8 6.8 31.65 5.6 30.15 M20.95 47.65 Q19.6 46.25 19.55 42.5 L19.9 42.2 20.0 41.95 20.65 43.4 Q21.8 45.8 23.15 47.15 L23.7 47.65 22.1 47.95 21.35 47.9 20.95 47.65 M38.55 46.15 L37.05 48.65 37.0 47.7 37.0 47.15 38.55 46.15" fill="#35b0e4" fill-rule="evenodd" stroke="none"/>
      <path d="M-0.95 51.45 L-0.95 50.5 -0.15 50.3 0.2 50.3 0.5 50.35 Q0.95 50.4 1.2 50.65 1.65 51.1 1.65 52.1 L1.55 52.85 1.1 53.65 0.2 54.55 -0.4 54.7 -0.95 54.2 Q-0.45 54.0 0.1 53.55 0.8 53.1 0.95 52.65 L1.0 52.35 0.75 51.7 Q0.3 51.25 -0.45 51.25 L-0.95 51.45 M19.5 53.25 L19.55 52.9 19.55 52.7 19.6 52.4 19.7 52.15 20.9 47.8 20.95 47.65 21.35 47.9 22.1 47.95 23.7 47.65 23.15 47.15 24.95 48.05 24.5 48.15 24.45 48.15 22.85 48.35 21.95 48.15 Q21.1 49.35 20.3 52.2 L20.2 52.65 20.15 52.8 19.5 53.25" fill="#303962" fill-rule="evenodd" stroke="none"/>
      <path d="M16.3 30.95 L15.95 30.95 14.5 30.9 13.85 30.9 13.35 30.7 13.15 30.6 12.5 30.35 Q14.3 26.65 19.35 20.9 L19.05 1.35 18.95 0.0 19.95 0.0 23.8 11.2 24.25 13.0 25.05 16.05 25.7 19.25 25.9 20.25 26.1 20.25 26.15 20.45 27.7 19.9 27.8 19.9 27.65 20.25 27.35 20.75 27.05 21.15 25.1 21.0 22.65 20.35 Q21.9 21.05 21.2 22.1 L19.6 24.65 18.0 27.85 24.55 27.85 Q28.65 30.15 29.35 30.65 L29.7 31.95 29.7 32.15 Q30.45 30.45 31.35 28.95 L32.25 27.5 36.85 24.8 36.95 24.75 39.2 23.1 39.75 22.7 39.85 22.6 40.55 23.2 39.55 24.2 39.5 24.3 38.1 25.7 37.6 26.15 37.0 26.7 36.4 27.2 35.85 27.65 33.8 29.1 32.7 29.7 31.45 32.3 30.35 34.2 27.0 32.75 25.65 32.15 23.8 31.25 22.3 31.15 18.8 31.0 18.1 31.0 16.3 30.95 M49.15 22.75 L49.15 22.5 Q49.0 19.55 49.2 16.7 49.4 13.8 49.55 13.4 L49.95 13.45 50.45 13.6 51.45 12.75 Q52.1 11.5 55.7 10.45 L56.8 10.35 56.8 11.4 56.8 12.8 Q56.55 12.45 56.3 12.45 55.1 12.95 53.85 13.7 L53.65 14.25 53.65 15.45 53.65 16.75 54.05 19.75 54.2 20.15 54.2 20.2 54.45 20.65 55.35 22.45 56.8 24.6 56.8 26.2 56.8 28.45 53.7 30.5 53.2 30.55 54.05 29.45 Q54.65 27.45 54.65 26.3 L54.35 24.55 53.75 23.9 53.6 23.65 52.25 23.2 49.15 22.75 M56.8 20.25 L56.8 24.55 56.2 23.55 Q55.85 22.65 55.8 21.0 L56.8 20.25 M41.4 55.85 L36.0 55.85 37.0 53.75 36.55 52.65 36.25 51.85 36.2 51.05 36.15 50.1 37.05 48.65 Q37.1 49.7 37.3 50.4 L37.3 50.45 37.55 51.25 Q38.85 53.85 41.05 55.6 L41.4 55.85 M11.65 55.85 L10.65 55.85 10.85 54.95 11.0 54.45 11.9 53.95 11.65 55.85 M-0.95 43.45 L-0.95 43.1 -0.75 43.15 0.4 43.15 1.7 43.1 1.8 43.5 0.25 43.35 -0.95 43.45 M-0.95 42.0 L-0.95 40.1 -0.75 40.2 -0.4 40.35 1.45 40.9 1.6 40.9 0.5 40.0 Q0.2 39.65 0.2 38.85 0.2 37.5 0.9 36.55 L2.1 35.4 5.55 33.75 4.75 32.85 Q4.35 32.85 3.5 33.2 L2.9 33.4 2.65 33.5 Q0.8 34.65 -0.2 35.45 L-0.8 35.95 -0.95 36.1 -0.95 34.4 Q1.5 32.1 4.15 30.7 L3.9 30.4 3.6 30.05 5.25 29.1 5.15 29.7 5.25 30.2 6.75 32.65 7.7 34.05 8.95 35.75 9.05 35.9 7.75 36.15 6.8 34.25 4.8 34.9 Q2.15 35.75 1.6 37.25 L1.4 38.1 Q1.4 40.7 2.5 41.1 L6.1 41.6 6.15 41.6 4.65 42.15 4.25 42.25 3.35 42.3 3.2 42.3 3.0 42.3 2.25 42.3 1.25 42.3 -0.95 42.0 M41.85 28.0 L42.15 26.65 42.4 25.35 42.45 24.3 42.45 23.9 44.2 23.8 46.95 23.55 46.2 23.55 46.7 23.45 47.0 23.55 47.95 23.6 49.25 23.7 49.55 23.7 51.75 24.1 Q53.65 24.75 53.65 26.6 53.65 28.2 51.85 30.8 L51.8 30.85 50.2 32.85 49.65 33.2 49.25 33.35 48.75 33.5 49.2 33.25 Q50.6 32.25 51.25 31.1 L51.35 30.95 51.7 29.5 Q51.7 27.95 49.9 27.35 L47.3 27.0 46.8 26.95 46.6 26.95 44.3 27.3 41.85 28.0 M53.65 14.25 Q53.35 15.25 53.2 16.8 L53.1 19.55 53.15 21.7 Q53.25 23.0 53.6 23.65 53.25 23.0 53.15 21.7 L53.1 19.55 53.2 16.8 Q53.35 15.25 53.65 14.25 M56.8 11.4 Q55.3 11.7 54.55 12.5 L53.85 13.7 54.55 12.5 Q55.3 11.7 56.8 11.4 M51.7 25.9 L51.05 25.4 49.4 25.0 47.9 24.9 47.6 24.9 45.3 25.1 43.15 25.25 43.05 26.5 43.65 26.35 46.15 26.15 46.25 26.15 47.45 26.15 49.55 26.3 49.6 26.3 Q52.05 26.8 52.05 29.0 52.35 28.6 52.35 27.35 L52.35 27.1 51.7 25.9 M50.6 29.55 L50.9 30.0 50.85 30.3 50.6 29.55 M41.65 38.05 L41.75 38.2 40.4 39.4 39.5 40.0 39.45 38.85 40.85 38.35 41.65 38.05 M54.35 24.55 L56.8 26.2 54.35 24.55 M16.5 49.35 Q17.55 49.45 18.15 50.3 L18.6 51.65 18.6 52.15 18.45 52.7 18.45 52.8 17.5 54.5 17.2 54.8 16.25 55.45 15.75 55.6 15.4 55.6 Q14.75 55.6 14.05 55.05 L13.7 54.7 Q13.35 54.0 13.35 52.95 L13.4 52.4 13.4 52.3 14.2 51.5 14.2 51.7 14.45 52.35 14.65 52.6 15.05 52.9 Q15.95 53.55 16.85 53.55 17.5 53.55 17.85 53.1 L18.1 52.65 18.2 52.2 18.2 51.9 Q18.2 51.25 17.5 50.45 16.8 49.75 16.15 49.7 L16.5 49.35 M29.85 53.1 L29.9 53.95 29.9 54.9 28.9 55.05 28.85 55.05 Q28.15 55.05 27.0 54.4 L26.45 54.0 27.95 53.0 29.0 53.15 29.25 53.15 29.85 53.1" fill="#5b80a3" fill-rule="evenodd" stroke="none"/>
      <path d="M56.8 3.7 L56.8 4.4 55.6 5.15 55.35 5.25 55.35 5.05 55.55 4.5 56.8 3.7 M28.75 20.65 L28.85 20.45 29.45 20.65 30.05 21.05 Q31.2 21.8 31.3 22.35 L29.2 22.35 27.9 22.1 27.9 21.85 28.75 20.65" fill="#9ff5ff" fill-rule="evenodd" stroke="none"/>
      <path d="M12.5 30.35 L12.15 30.2 12.8 28.85 Q14.05 26.6 15.75 24.2 L15.75 24.1 18.2 20.9 18.15 12.3 18.1 8.55 18.0 2.7 17.85 0.0 18.95 0.0 19.05 1.35 19.35 20.9 Q14.3 26.65 12.5 30.35 M42.85 22.3 L43.5 22.3 45.35 22.4 Q47.7 22.9 49.25 23.55 L49.55 23.7 49.25 23.7 47.95 23.6 47.0 23.55 46.7 23.45 46.2 23.55 46.95 23.55 44.2 23.8 42.45 23.9 42.45 23.65 42.4 22.7 42.15 22.3 42.85 22.3 M56.8 12.8 L56.8 20.25 55.8 21.0 Q55.85 22.65 56.2 23.55 L56.8 24.55 56.8 24.6 55.35 22.45 54.45 20.65 54.2 20.2 54.2 20.15 54.05 19.75 53.65 16.75 53.65 15.45 53.65 14.25 53.85 13.7 Q55.1 12.95 56.3 12.45 56.55 12.45 56.8 12.8 M56.8 31.8 L56.8 34.25 56.05 34.75 54.65 35.65 53.1 36.65 52.45 37.1 49.5 39.05 44.7 42.15 40.45 44.9 38.55 46.15 37.0 47.15 36.2 47.65 37.0 47.15 37.0 47.7 37.05 48.65 36.15 50.1 Q36.1 48.7 36.2 47.65 L34.9 48.5 33.1 49.65 32.8 49.85 29.8 51.8 29.8 51.95 29.8 52.45 29.85 53.1 29.25 53.15 29.0 53.15 27.95 53.0 26.45 54.0 25.35 54.7 23.6 55.85 20.15 55.85 56.8 31.8 M-0.95 40.1 L-0.95 36.1 -0.8 35.95 -0.2 35.45 Q0.8 34.65 2.65 33.5 L2.9 33.4 3.5 33.2 Q4.35 32.85 4.75 32.85 L5.55 33.75 2.1 35.4 0.9 36.55 Q0.2 37.5 0.2 38.85 0.2 39.65 0.5 40.0 L1.6 40.9 1.45 40.9 -0.4 40.35 -0.75 40.2 -0.95 40.1 M-0.95 34.4 L-0.95 33.15 Q1.2 31.45 3.6 30.05 L3.9 30.4 4.15 30.7 Q1.5 32.1 -0.95 34.4 M47.2 0.0 L47.65 0.0 46.85 1.65 47.2 0.0 M39.0 21.95 L39.5 22.35 39.75 22.5 39.85 22.6 39.75 22.7 39.2 23.1 36.95 24.75 36.85 24.8 32.25 27.5 31.35 28.95 Q30.45 30.45 29.7 32.15 L29.7 31.95 29.35 30.65 29.45 30.7 30.35 28.2 30.95 26.05 31.35 25.8 Q32.85 25.5 36.15 23.65 L36.5 23.45 36.6 23.4 36.85 23.2 39.0 21.95 M41.15 29.8 L41.5 29.35 41.85 28.0 44.3 27.3 46.6 26.95 46.8 26.95 47.3 27.0 49.9 27.35 Q51.7 27.95 51.7 29.5 L51.35 30.95 51.25 31.1 Q50.6 32.25 49.2 33.25 L48.75 33.5 48.65 33.5 49.15 33.15 Q50.1 32.25 50.55 31.2 L50.85 30.3 50.9 30.0 50.6 29.55 49.7 28.8 Q48.75 28.15 48.05 28.15 L47.65 28.15 47.2 28.15 46.05 28.3 43.35 29.0 41.15 29.8 M56.05 14.3 L54.95 14.4 54.75 14.4 54.3 15.0 Q53.8 15.65 53.8 16.05 L54.4 18.9 54.5 19.05 55.75 16.3 55.8 16.3 56.15 15.15 56.05 14.3 M51.7 25.9 L52.35 27.1 52.35 27.35 Q52.35 28.6 52.05 29.0 52.05 26.8 49.6 26.3 L49.55 26.3 47.45 26.15 46.25 26.15 46.15 26.15 43.65 26.35 43.05 26.5 43.15 25.25 45.3 25.1 47.6 24.9 47.9 24.9 49.4 25.0 51.05 25.4 51.7 25.9 M25.05 16.05 Q24.8 13.8 24.7 11.3 L24.55 9.35 Q24.3 4.7 24.05 4.35 L27.2 9.7 Q30.2 15.1 31.2 18.1 L31.25 18.15 33.45 19.75 33.3 20.75 32.15 20.05 Q30.85 19.3 29.5 18.8 L29.0 18.65 28.45 18.45 28.35 18.75 27.9 19.7 27.8 19.9 27.7 19.9 26.15 20.45 26.1 20.25 25.9 20.25 25.7 19.25 25.05 16.05 M7.75 36.15 Q4.85 36.9 2.6 37.9 L2.6 38.15 2.6 38.35 3.0 39.75 4.75 40.2 5.65 40.35 8.6 40.7 7.2 41.3 6.2 41.7 4.65 42.15 6.15 41.6 6.1 41.6 2.5 41.1 Q1.4 40.7 1.4 38.1 L1.6 37.25 Q2.15 35.75 4.8 34.9 L6.8 34.25 7.75 36.15 M27.95 53.0 L29.8 51.8 27.95 53.0 M16.15 49.7 Q16.8 49.75 17.5 50.45 18.2 51.25 18.2 51.9 L18.2 52.2 18.1 52.65 17.85 53.1 Q17.5 53.55 16.85 53.55 15.95 53.55 15.05 52.9 L14.65 52.6 14.45 52.35 14.2 51.7 14.2 51.5 15.75 50.05 16.15 49.7 M15.95 50.95 L15.75 51.1 15.6 51.3 15.5 51.35 15.9 51.95 16.45 52.25 Q16.8 52.25 16.95 52.05 L17.0 51.45 Q17.0 50.8 16.35 50.75 L15.95 50.95" fill="#96bdd6" fill-rule="evenodd" stroke="none"/>
      <path d="M56.8 49.85 L56.8 50.75 56.3 50.2 Q55.2 49.0 54.4 49.0 53.45 53.5 53.45 54.0 L56.5 55.85 51.65 55.85 50.85 54.95 51.7 52.85 Q52.35 51.0 52.7 50.65 L51.3 49.9 51.25 49.9 51.15 49.85 51.55 49.7 54.4 48.65 56.8 49.85 M12.15 43.35 L13.2 43.15 14.35 43.05 14.2 43.3 13.7 44.65 13.65 44.75 14.1 44.75 16.95 44.05 17.7 43.75 17.95 43.85 16.5 47.0 Q15.5 48.45 14.1 49.45 L12.7 50.25 12.0 50.6 11.75 50.7 11.35 50.8 11.65 50.45 12.25 49.65 12.6 49.2 13.0 48.75 13.35 48.35 14.1 47.65 14.05 47.65 13.55 47.85 12.7 48.15 12.25 48.4 Q11.2 49.05 10.1 50.65 L9.15 52.15 8.65 52.7 Q8.05 53.15 7.05 53.3 5.5 53.5 4.4 54.55 L4.6 54.0 Q4.6 53.85 5.25 53.55 L6.65 52.7 7.35 51.9 Q7.75 50.4 8.7 47.9 9.95 44.7 10.65 44.1 11.25 43.6 12.15 43.35 M32.95 43.75 L32.8 44.45 30.1 46.25 Q30.5 45.65 31.25 45.1 L32.95 43.75 M34.9 48.5 L35.15 49.3 35.0 50.15 34.35 52.0 33.1 55.6 33.1 49.65 34.9 48.5 M32.8 49.85 L31.2 54.2 30.15 53.0 29.8 52.45 29.8 51.95 29.8 51.8 32.8 49.85" fill="#409f45" fill-rule="evenodd" stroke="none"/>
      <path d="M13.55 37.25 L14.05 37.3 14.5 37.4 15.75 37.4 16.65 37.4 16.9 34.9 16.9 34.3 17.1 34.2 17.2 34.3 18.2 38.4 18.25 38.55 19.0 42.85 18.25 38.55 20.2 40.9 20.0 41.95 19.9 42.2 19.55 42.5 19.0 42.85 19.05 43.85 Q19.05 46.95 17.7 48.35 L16.5 49.35 16.15 49.7 15.75 50.05 14.2 51.5 13.4 52.3 11.95 53.85 11.9 53.95 11.0 54.45 8.9 55.0 7.8 55.2 7.15 55.4 6.05 55.85 4.45 55.85 4.4 55.2 4.4 54.55 Q5.5 53.5 7.05 53.3 8.05 53.15 8.65 52.7 L9.15 52.15 10.1 50.65 Q11.2 49.05 12.25 48.4 L12.7 48.15 13.55 47.85 14.05 47.65 14.1 47.65 13.35 48.35 13.0 48.75 12.6 49.2 12.25 49.65 11.65 50.45 11.35 50.8 11.75 50.7 12.0 50.6 12.7 50.25 14.1 49.45 Q15.5 48.45 16.5 47.0 L17.95 43.85 17.7 43.75 16.95 44.05 14.1 44.75 13.65 44.75 13.7 44.65 14.2 43.3 14.35 43.05 Q15.8 42.3 15.75 37.4 15.8 42.3 14.35 43.05 L13.2 43.15 12.3 40.95 10.85 37.4 10.9 36.75 13.55 37.25 M40.8 20.15 L42.85 22.3 42.15 22.3 41.4 20.95 40.8 20.2 40.8 20.15 M51.65 55.85 L47.4 55.85 49.0 52.1 49.55 50.45 51.15 49.85 51.25 49.9 51.3 49.9 52.7 50.65 Q52.35 51.0 51.7 52.85 L50.85 54.95 51.65 55.85 M35.3 55.85 L29.8 55.85 29.9 54.9 29.9 53.95 29.85 53.1 29.8 52.45 30.15 53.0 31.2 54.2 32.8 49.85 33.1 49.65 33.1 55.6 34.35 52.0 35.0 50.15 35.15 49.3 34.9 48.5 36.2 47.65 Q36.1 48.7 36.15 50.1 L36.2 51.05 36.25 51.85 Q36.3 54.85 35.3 55.85 M39.25 32.2 L39.9 31.4 41.15 29.8 43.35 29.0 46.05 28.3 47.2 28.15 47.65 28.15 48.6 29.75 49.0 31.8 48.8 31.8 44.7 32.4 43.15 32.7 42.65 32.75 42.3 32.95 Q40.95 33.7 40.2 34.35 39.5 34.95 39.5 35.3 39.5 35.7 40.95 37.3 L41.65 38.05 40.85 38.35 39.45 38.85 39.5 40.0 32.8 44.45 32.95 43.75 33.85 42.65 34.5 41.4 36.05 38.05 36.15 37.6 35.85 37.35 36.1 36.4 36.55 35.0 36.95 32.25 36.95 31.75 37.05 31.6 37.1 33.35 37.75 33.15 38.75 32.7 39.25 32.2 M14.05 37.3 L14.25 37.4 14.5 37.4 14.25 37.4 14.05 37.3 M38.75 32.7 Q39.35 34.9 39.35 36.3 L39.45 38.85 39.35 36.3 Q39.35 34.9 38.75 32.7 M36.55 35.0 L36.15 37.6 36.55 35.0" fill="#286a2c" fill-rule="evenodd" stroke="none"/>
      <path d="M56.8 47.2 L56.8 48.05 56.15 47.45 56.05 47.45 Q56.2 47.3 56.8 47.2" fill="#2c5b8d" fill-rule="evenodd" stroke="none"/>
      <path d="M15.95 50.95 L16.35 50.75 Q17.0 50.8 17.0 51.45 L16.95 52.05 Q16.8 52.25 16.45 52.25 L15.9 51.95 15.5 51.35 15.6 51.3 15.75 51.1 15.95 50.95" fill="#daf8fe" fill-rule="evenodd" stroke="none"/>
      <path d="M19.55 32.85 L19.95 32.7 21.05 34.35 20.9 35.15 20.6 35.25 19.6 34.8 Q18.9 34.25 18.6 33.3 18.8 33.05 19.55 32.85 M32.7 33.1 L32.8 32.45 33.3 32.45 Q34.0 32.5 34.0 32.85 L34.0 33.1 33.8 33.4 Q33.4 33.85 32.8 33.95 L32.7 33.35 32.7 33.1 M34.7 31.95 L34.75 31.95 34.95 31.6 35.2 31.25 34.9 32.2 34.75 32.45 34.55 32.5 34.6 32.2 34.7 31.95 M21.75 34.9 L21.85 34.9 Q22.5 35.0 22.65 35.2 L21.8 35.35 21.55 35.3 21.5 35.0 21.55 34.9 21.75 34.9" fill="#ffeeec" fill-rule="evenodd" stroke="none"/>
      <path d="M16.9 34.3 L16.85 33.6 Q18.2 35.6 18.8 36.05 20.0 37.2 22.3 37.2 L22.8 37.2 24.2 37.05 25.2 36.95 25.25 36.95 25.9 36.95 26.25 36.95 26.9 36.95 27.45 37.0 28.25 37.2 28.5 37.25 28.4 36.85 28.35 36.65 28.2 36.05 27.7 34.4 27.4 33.6 27.0 32.75 30.35 34.2 31.45 32.3 31.4 32.75 31.4 33.85 31.5 36.5 31.55 36.4 31.95 35.75 32.25 35.4 33.15 35.3 33.3 35.3 Q34.55 35.2 35.2 34.75 L35.4 34.65 36.4 32.7 Q36.85 31.3 36.85 29.75 L36.85 29.05 36.7 27.9 36.6 27.7 36.5 27.4 36.45 27.25 36.4 27.2 37.0 26.7 37.05 31.25 37.05 31.6 36.95 31.75 36.95 32.25 36.55 35.0 36.1 36.4 35.85 37.35 35.55 38.15 34.35 37.25 33.2 36.45 33.0 36.3 32.45 36.0 32.15 36.15 31.95 36.35 31.75 36.55 31.5 37.15 31.4 37.15 31.4 36.55 31.4 36.4 31.3 35.85 31.2 35.45 30.5 35.35 29.75 35.4 29.2 35.6 28.35 35.95 28.6 36.6 28.65 36.8 28.9 37.7 28.85 37.7 28.4 37.65 26.6 37.25 Q24.85 38.95 22.75 42.05 L20.65 41.15 20.25 40.95 20.2 40.9 18.25 38.55 18.2 38.4 17.2 34.3 17.1 34.2 16.9 34.3" fill="#cbaf9e" fill-rule="evenodd" stroke="none"/>
      <path d="M16.7 32.45 L16.7 32.4 16.9 32.35 16.75 32.45 16.7 32.45" fill="#2ca4c1" fill-rule="evenodd" stroke="none"/>
      <path d="M22.75 42.05 Q24.85 38.95 26.6 37.25 L28.4 37.65 28.85 37.7 28.9 37.7 28.65 36.8 28.6 36.6 28.35 35.95 29.2 35.6 29.75 35.4 30.5 35.35 31.2 35.45 31.3 35.85 31.4 36.4 31.4 36.55 31.4 37.15 31.5 37.15 31.75 36.55 31.95 36.35 32.15 36.15 32.45 36.0 33.0 36.3 33.2 36.45 34.35 37.25 35.55 38.15 35.25 39.05 Q33.15 41.75 31.25 43.3 L30.55 43.8 29.8 44.3 28.55 44.0 26.55 43.35 25.15 42.9 23.0 42.15 22.75 42.05 M30.2 38.95 L30.9 38.95 31.6 38.8 31.8 38.65 31.4 38.15 30.65 37.5 30.45 37.4 30.2 38.35 30.2 38.95 M25.7 40.05 L25.7 40.0 25.65 40.0 25.7 40.05 25.8 40.6 Q26.3 41.0 26.9 41.05 L28.0 40.9 29.5 40.45 30.15 40.3 29.55 40.4 29.3 40.4 27.75 40.65 26.6 40.4 25.7 40.05 M27.5 41.75 L29.0 42.15 29.15 41.8 29.1 41.7 28.85 41.45 28.65 41.25 28.5 41.3 28.15 41.35 27.65 41.55 27.45 41.65 27.45 41.75 27.5 41.75" fill="#fee4e3" fill-rule="evenodd" stroke="none"/>
      <path d="M30.2 38.95 L30.2 38.35 30.45 37.4 30.65 37.5 31.4 38.15 31.8 38.65 31.6 38.8 30.9 38.95 30.2 38.95 M27.5 41.75 L27.45 41.75 27.45 41.65 27.65 41.55 28.15 41.35 28.5 41.3 28.65 41.25 28.85 41.45 29.1 41.7 29.15 41.8 29.0 42.15 27.5 41.75" fill="#b69682" fill-rule="evenodd" stroke="none"/>
      <path d="M25.7 40.05 L26.6 40.4 27.75 40.65 29.3 40.4 29.55 40.4 30.15 40.3 29.5 40.45 28.0 40.9 26.9 41.05 Q26.3 41.0 25.8 40.6 L25.7 40.05" fill="#a95c5c" fill-rule="evenodd" stroke="none"/>
      <path d="M15.4 12.65 L15.4 13.8 Q15.4 14.5 14.7 15.35 13.9 16.15 13.35 16.15 12.85 16.15 12.8 15.25 L12.8 15.1 12.8 14.8 13.15 14.05 13.85 13.0 14.2 12.65 15.4 12.65" fill="#9bf3fe" fill-rule="evenodd" stroke="none"/>
      <path d="M56.8 28.45 L56.8 31.8 20.15 55.85 15.6 55.85 16.25 55.45 17.2 54.8 19.5 53.25 20.15 52.8 30.1 46.25 32.8 44.45 39.5 40.0 40.4 39.4 41.9 38.35 49.3 33.45 49.65 33.2 50.2 32.85 51.9 31.7 53.7 30.5 56.8 28.45" fill="#f1f8fa" fill-rule="evenodd" stroke="none"/>
      <path d="M-0.95 10.8 L0.0 13.9 2.85 24.75 5.7 26.55 6.1 26.7 M14.5 37.4 L15.75 37.4 16.65 37.4 16.9 34.9 16.9 34.3 16.85 33.6 16.7 32.45 16.7 32.4 16.65 32.2 16.5 31.5 16.3 30.95 M-0.95 1.5 L8.4 13.15 8.55 13.65 9.5 16.85 M34.5 11.5 L34.05 8.0 33.55 3.05 33.75 0.0 M38.6 0.0 Q38.95 2.3 40.35 7.8 L40.95 10.35 40.95 12.0 40.8 20.15 40.8 20.2 M37.05 31.6 L37.05 31.25 37.0 26.7 M14.5 37.4 L14.25 37.4 14.05 37.3 M38.75 32.7 L37.75 33.15 M37.1 33.35 L37.05 31.6 M39.25 32.2 L38.75 32.7" fill="none" stroke="#6b3f09" stroke-linecap="round" stroke-linejoin="round" stroke-width="1.0"/>
      <path d="M13.55 37.25 L14.05 37.3 14.5 37.4 M9.5 16.85 Q10.45 14.45 12.75 12.15 15.4 9.55 18.1 8.55 L18.0 2.7 17.85 0.0 M23.2 0.0 L24.85 2.9 27.25 7.2 Q29.5 7.9 32.2 9.75 L34.5 11.5 M42.85 22.3 L43.5 22.3 45.35 22.4 48.3 22.65 48.9 22.7 49.15 22.75 49.15 22.5 Q49.0 19.55 49.2 16.7 49.4 13.8 49.55 13.4 L48.35 13.35 45.4 12.85 46.35 11.1 Q47.45 9.05 48.9 7.0 50.9 4.25 53.65 1.35 L54.95 0.0 M-0.95 33.15 Q1.2 31.45 3.6 30.05 L5.25 29.1 5.6 27.75 6.1 26.7 M1.7 43.1 L0.4 43.15 -0.75 43.15 -0.95 43.1 M3.9 44.05 L3.35 43.95 M49.55 13.4 L49.95 13.45 M40.8 20.2 L41.4 20.95 42.15 22.3 42.85 22.3 M40.8 20.2 L40.8 20.4 M39.25 32.2 L39.9 31.4 41.15 29.8 43.35 29.0 46.05 28.3 47.2 28.15 47.65 28.15 48.05 28.15 Q48.75 28.15 49.7 28.8 L50.6 29.55 50.85 30.3 50.55 31.2 Q50.1 32.25 49.15 33.15 L48.65 33.5 M53.85 13.7 L53.65 14.25 Q53.35 15.25 53.2 16.8 L53.1 19.55 53.15 21.7 Q53.25 23.0 53.6 23.65 L52.25 23.2 49.15 22.75 M53.85 13.7 L54.55 12.5 Q55.3 11.7 56.8 11.4 M53.2 30.55 L54.05 29.45 Q54.65 27.45 54.65 26.3 L54.35 24.55 53.75 23.9 53.6 23.65 M50.2 32.85 L51.9 31.7 53.2 30.55 M53.7 30.5 L56.8 28.45 M50.85 30.3 L50.9 30.0 50.6 29.55 M53.1 36.65 L52.45 37.1 49.5 39.05 44.7 42.15 45.6 43.3 Q46.35 44.55 49.05 45.35 L56.2 45.85 56.8 45.85 M54.65 35.65 L53.1 36.65 M56.8 34.25 L56.05 34.75 54.65 35.65 M51.9 31.7 L53.7 30.5 M41.65 38.05 L40.95 37.3 Q39.5 35.7 39.5 35.3 39.5 34.95 40.2 34.35 40.95 33.7 42.3 32.95 L42.65 32.75 43.15 32.7 44.7 32.4 48.8 31.8 M49.25 33.35 L48.75 33.5 M49.65 33.2 L50.2 32.85 M49.3 33.45 L49.65 33.2 49.25 33.35 M41.75 38.2 L41.65 38.05 40.85 38.35 39.45 38.85 M39.5 40.0 L40.4 39.4 41.9 38.35 49.3 33.45 M41.75 38.2 L41.9 38.35 M56.8 26.2 L54.35 24.55 M22.3 31.15 L18.8 31.0 18.1 31.0 16.3 30.95 M22.3 31.15 L23.8 31.25 25.65 32.15 27.0 32.75 30.35 34.2 31.45 32.3 32.7 29.7 33.8 29.1 35.85 27.65 36.4 27.2 37.0 26.7 M9.05 35.9 L7.75 36.15 Q4.85 36.9 2.6 37.9 L2.6 38.15 2.6 38.35 3.0 39.75 4.75 40.2 5.65 40.35 8.6 40.7 9.15 40.7 6.6 42.05 Q4.4 42.95 1.7 43.1 L1.8 43.5 M3.9 44.05 L3.85 43.85 3.7 43.85 5.85 43.35 8.1 42.9 12.55 42.45 12.15 43.35 M2.2 43.55 L3.7 43.85 M10.9 36.75 Q9.45 36.35 9.05 35.9 M19.55 42.5 L19.0 42.85 M17.2 54.8 L19.5 53.25 20.15 52.8 30.1 46.25 32.8 44.45 39.5 40.0 M19.55 42.5 L19.9 42.2 20.0 41.95 20.2 40.9 M13.55 37.25 L10.9 36.75 M37.75 33.15 L37.1 33.35 M35.85 37.35 L36.15 37.6 M33.1 49.65 L32.8 49.85 29.8 51.8 27.95 53.0 26.45 54.0 25.35 54.7 23.6 55.85 M40.45 44.9 L38.55 46.15 37.0 47.15 36.2 47.65 34.9 48.5 33.1 49.65 M47.6 51.15 L47.05 51.3 M16.25 55.45 L17.2 54.8 M15.6 55.85 L16.25 55.45 M8.75 55.85 L8.8 55.45 8.9 55.0 M6.75 55.85 L7.15 55.4 M56.8 49.85 L54.4 48.65 51.55 49.7 51.15 49.85 49.55 50.45 47.6 51.1 47.6 51.15 M47.4 55.85 L49.0 52.1 49.55 50.45 M44.7 42.15 L40.45 44.9" fill="none" stroke="#323955" stroke-linecap="round" stroke-linejoin="round" stroke-width="1.0"/>
      <path d="M40.8 20.15 L42.85 22.3 M47.65 28.15 L48.6 29.75 49.0 31.8 M39.45 38.85 L39.5 40.0 M18.25 38.55 L18.2 38.4 17.2 34.3 17.1 34.2 16.9 34.3 M12.15 43.35 L13.2 43.15 12.3 40.95 10.85 37.4 10.9 36.75 M19.0 42.85 L18.25 38.55 M36.55 35.0 L36.95 32.25 36.95 31.75 37.05 31.6 M19.0 42.85 L19.05 43.85 Q19.05 46.95 17.7 48.35 L16.5 49.35 16.15 49.7 15.75 50.05 14.2 51.5 13.4 52.3 11.95 53.85 11.9 53.95 11.0 54.45 8.9 55.0 7.8 55.2 7.15 55.4 6.05 55.85 M14.35 43.05 L13.2 43.15 M4.4 54.55 L4.4 55.2 4.45 55.85 M12.15 43.35 Q11.25 43.6 10.65 44.1 9.95 44.7 8.7 47.9 7.75 50.4 7.35 51.9 L6.65 52.7 5.25 53.55 Q4.6 53.85 4.6 54.0 L4.4 54.55 M15.75 37.4 Q15.8 42.3 14.35 43.05 M39.45 38.85 L39.35 36.3 Q39.35 34.9 38.75 32.7 M36.15 37.6 L36.05 38.05 34.5 41.4 33.85 42.65 32.95 43.75 31.25 45.1 Q30.5 45.65 30.1 46.25 M36.15 37.6 L36.55 35.0 M29.8 52.45 L29.85 53.1 29.9 53.95 29.9 54.9 29.8 55.85 M36.2 47.65 Q36.1 48.7 36.15 50.1 L36.2 51.05 36.25 51.85 Q36.3 54.85 35.3 55.85 M29.8 51.8 L29.8 51.95 29.8 52.45 M56.8 50.75 L56.3 50.2 Q55.2 49.0 54.4 49.0 53.45 53.5 53.45 54.0 L56.5 55.85" fill="none" stroke="#1f4d25" stroke-linecap="round" stroke-linejoin="round" stroke-width="1.0"/>
      <path d="M3.35 43.95 L2.85 43.75 2.2 43.55 1.8 43.5 0.25 43.35 -0.95 43.45 M53.2 30.55 L53.7 30.5 M49.0 31.8 L49.3 31.8 50.0 31.4 50.55 31.2 M48.8 31.8 L49.0 31.8 M3.7 43.85 L3.35 43.95" fill="none" stroke="#871c16" stroke-linecap="round" stroke-linejoin="round" stroke-width="1.0"/>
      <path d="M18.25 38.55 L20.2 40.9 20.25 40.95 20.65 41.15 22.75 42.05 23.0 42.15 25.15 42.9 26.55 43.35 28.55 44.0 29.8 44.3 30.55 43.8 31.25 43.3 Q33.15 41.75 35.25 39.05 L35.55 38.15 35.85 37.35 36.1 36.4 36.55 35.0" fill="none" stroke="#623127" stroke-linecap="round" stroke-linejoin="round" stroke-width="1.0"/>
      <path d="M47.2 0.0 L46.85 1.65 47.65 0.0" fill="none" stroke="#495585" stroke-linecap="round" stroke-linejoin="round" stroke-width="1.0"/>
    </g>
    <g id="shape2" transform="matrix(1.0, 0.0, 0.0, 1.0, 0.0, 0.0)">
      <path d="M50.5 0.0 Q53.95 0.0 53.95 3.3 L53.95 50.15 Q53.95 53.4 50.5 53.4 L3.3 53.4 Q0.0 53.4 0.0 50.15 L0.0 3.3 Q0.0 0.0 3.3 0.0 L50.5 0.0" fill="#000000" fill-opacity="0.003921569" fill-rule="evenodd" stroke="none"/>
    </g>
  </defs>
</svg>
