<?xml version="1.0" encoding="UTF-8" standalone="no"?>
<svg xmlns:ffdec="https://www.free-decompiler.com/flash" xmlns:xlink="http://www.w3.org/1999/xlink" ffdec:objectType="frame" height="97.05px" width="82.6px" xmlns="http://www.w3.org/2000/svg">
  <g transform="matrix(1.0, 0.0, 0.0, 1.0, 22.95, 34.1)">
    <clipPath id="clipPath0" transform="matrix(1.0, 0.0, 0.0, 1.0, 0.0, 0.0)">
      <path d="M50.5 0.0 Q53.95 0.0 53.95 3.3 L53.95 50.15 Q53.95 53.4 50.5 53.4 L3.3 53.4 Q0.0 53.4 0.0 50.15 L0.0 3.3 Q0.0 0.0 3.3 0.0 L50.5 0.0" fill="#000000" fill-rule="evenodd" stroke="none"/>
    </clipPath>
    <g clip-path="url(#clipPath0)">
      <use ffdec:characterId="2" height="97.05" transform="matrix(1.0, 0.0, 0.0, 1.0, -22.95, -34.1)" width="75.15" xlink:href="#shape1"/>
      <filter id="filter0">
        <feColorMatrix in="SourceGraphic" result="filterResult0" type="matrix" values="0 0 0 0 0.30980393,0 0 0 0 0.95686275,0 0 0 0 1.0,0 0 0 1 0"/>
        <feConvolveMatrix divisor="16.0" in="filterResult0" kernelMatrix="1 1 1 1 1 1 1 1 1 1 1 1 1 1 1 1" order="4 4" result="filterResult1"/>
        <feComposite in="SourceGraphic" in2="filterResult1" operator="over" result="filterResult2"/>
      </filter>
      <use ffdec:characterId="4" filter="url(#filter0)" height="46.25" transform="matrix(0.8165, -3.0E-4, 3.0E-4, 0.8165, 36.8356, -7.5543)" width="27.95" xlink:href="#sprite0"/>
    </g>
    <use ffdec:characterId="5" height="53.4" transform="matrix(1.0, 0.0, 0.0, 1.0, 0.0, 0.0)" width="53.95" xlink:href="#shape3"/>
  </g>
  <defs>
    <g id="shape1" transform="matrix(1.0, 0.0, 0.0, 1.0, 22.95, 34.1)">
      <path d="M-11.9 31.55 Q1.95 41.4 10.65 50.25 L16.2 56.6 Q19.85 56.85 23.1 58.8 L24.85 60.0 25.25 60.55 Q23.1 59.45 20.7 59.1 L18.2 59.0 17.75 59.1 18.7 60.3 19.1 60.9 18.1 59.9 17.35 59.35 16.15 62.45 14.0 62.45 14.2 62.15 15.7 59.45 13.4 57.1 11.5 55.0 11.55 55.55 11.65 55.45 12.85 57.65 Q13.55 59.2 13.5 60.5 L13.1 62.45 3.6 62.45 0.1 57.7 -2.9 54.1 -3.2 52.8 -5.65 46.35 -10.15 35.85 -12.15 32.05 -12.55 31.4 -11.9 31.55" fill="#f2f6f5" fill-rule="evenodd" stroke="none"/>
      <path d="M24.85 60.0 L23.1 58.8 Q19.85 56.85 16.2 56.6 L10.65 50.25 Q1.95 41.4 -11.9 31.55 1.45 35.25 12.4 45.25 19.3 51.65 24.85 60.0 M-12.15 32.05 L-10.15 35.85 -5.65 46.35 -3.2 52.8 -2.9 54.1 0.1 57.7 3.6 62.45 2.0 62.45 1.5 61.6 Q-0.5 58.35 -4.3 54.0 L-5.3 49.95 Q-7.5 41.85 -12.15 32.05 M13.1 62.45 L13.5 60.5 Q13.55 59.2 12.85 57.65 L11.65 55.45 11.55 55.55 11.5 55.0 13.4 57.1 15.7 59.45 14.2 62.15 14.0 62.45 13.1 62.45 M16.15 62.45 L17.35 59.35 18.1 59.9 19.1 60.9 19.1 61.0 19.2 61.0 19.35 61.2 Q18.9 61.65 18.85 62.25 L18.8 62.45 16.15 62.45" fill="#aabaeb" fill-rule="evenodd" stroke="none"/>
      <path d="M19.1 60.9 L18.7 60.3 17.75 59.1 18.2 59.0 20.7 59.1 Q23.1 59.45 25.25 60.55 L25.55 60.95 25.65 61.2 26.2 62.45 22.45 62.45 22.3 62.4 21.7 62.1 21.55 61.95 20.65 61.65 19.8 61.6 Q19.75 61.5 19.7 61.65 19.5 61.65 19.65 61.7 L19.5 61.7 Q19.25 61.75 19.15 61.9 L19.15 62.05 19.15 62.2 19.1 62.3 19.1 62.45 18.8 62.45 18.85 62.25 Q18.9 61.65 19.35 61.2 L19.2 61.0 19.1 61.0 19.1 60.9" fill="#7990d4" fill-rule="evenodd" stroke="none"/>
      <path d="M19.1 62.45 L19.1 62.3 19.15 62.2 19.15 62.05 19.15 61.9 Q19.25 61.75 19.5 61.7 L19.65 61.7 Q19.5 61.65 19.7 61.65 19.75 61.5 19.8 61.6 L20.65 61.65 21.55 61.95 21.7 62.1 22.3 62.4 22.45 62.45 21.75 62.45 21.65 62.4 21.4 62.2 Q20.7 61.7 19.65 61.9 19.4 62.05 19.5 62.25 L19.45 62.45 19.1 62.45" fill="#1b6aaf" fill-rule="evenodd" stroke="none"/>
      <path d="M21.75 62.45 L21.7 62.45 21.65 62.4 21.75 62.45" fill="#aaffff" fill-rule="evenodd" stroke="none"/>
      <path d="M21.65 62.4 L21.7 62.45 19.45 62.45 19.5 62.25 Q19.4 62.05 19.65 61.9 20.7 61.7 21.4 62.2 L21.65 62.4" fill="#3bc2fc" fill-rule="evenodd" stroke="none"/>
      <path d="M-11.9 31.55 L-12.55 31.4 -12.15 32.05 Q-7.5 41.85 -5.3 49.95 L-4.3 54.0 Q-0.5 58.35 1.5 61.6 L2.0 62.45 M25.25 60.55 L24.85 60.0 Q19.3 51.65 12.4 45.25 1.45 35.25 -11.9 31.55 M26.2 62.45 L25.65 61.2 25.55 60.95 25.25 60.55" fill="none" stroke="#4d4e66" stroke-linecap="round" stroke-linejoin="round" stroke-width="1.0"/>
      <path d="M11.35 59.6 L10.85 55.4 Q10.45 53.2 8.5 48.35 L6.65 43.9 6.7 42.6 5.95 35.45 4.55 24.25 3.7 20.1 3.5 19.3 4.0 19.6 Q14.2 32.9 20.15 44.1 L23.8 52.1 Q27.25 53.55 29.9 56.5 L31.35 58.3 31.6 58.95 Q29.75 57.2 27.55 56.1 26.15 55.4 25.2 55.25 L24.65 55.15 25.3 56.65 25.65 57.45 24.85 56.1 24.2 55.25 22.15 58.45 21.3 59.6 11.35 59.6 M20.3 55.2 L18.65 58.95 18.7 59.05 20.55 57.05 22.7 54.9 21.05 51.75 19.75 49.0 19.75 49.65 19.8 49.5 20.4 52.15 Q20.7 54.05 20.3 55.2" fill="#f2f6f5" fill-rule="evenodd" stroke="none"/>
      <path d="M3.7 20.1 L4.55 24.25 5.95 35.45 6.7 42.6 6.65 43.9 8.5 48.35 Q10.45 53.2 10.85 55.4 L11.35 59.6 10.1 59.6 9.95 58.8 8.8 52.7 Q7.8 48.9 5.3 43.45 L5.5 39.2 Q5.55 30.7 3.7 20.1 M21.3 59.6 L22.15 58.45 24.2 55.25 24.85 56.1 25.65 57.45 25.75 57.75 Q25.3 58.1 24.95 58.75 L24.55 59.6 21.3 59.6 M31.35 58.3 L29.9 56.5 Q27.25 53.55 23.8 52.1 L20.15 44.1 Q14.2 32.9 4.0 19.6 15.3 26.8 22.95 39.6 28.0 48.1 31.35 58.3 M20.3 55.2 Q20.7 54.05 20.4 52.15 L19.8 49.5 19.75 49.65 19.75 49.0 21.05 51.75 22.7 54.9 20.55 57.05 18.7 59.05 18.65 58.95 20.3 55.2" fill="#aabaeb" fill-rule="evenodd" stroke="none"/>
      <path d="M25.65 57.45 L25.3 56.65 24.65 55.15 25.2 55.25 Q26.15 55.4 27.55 56.1 29.75 57.2 31.6 58.95 L31.75 59.5 31.75 59.6 27.95 59.6 27.8 59.45 27.6 59.3 26.8 58.6 26.1 58.3 25.95 58.3 25.85 58.3 25.75 58.3 25.75 58.35 Q25.55 58.35 25.45 58.5 L25.35 58.55 25.25 58.8 25.15 59.15 24.95 59.6 24.55 59.6 24.95 58.75 Q25.3 58.1 25.75 57.75 L25.65 57.45" fill="#7990d4" fill-rule="evenodd" stroke="none"/>
      <path d="M27.95 59.6 L27.6 59.6 27.45 59.45 Q26.85 58.75 25.75 58.55 L25.55 58.8 25.35 59.6 24.95 59.6 25.15 59.15 25.35 58.55 25.45 58.5 Q25.55 58.35 25.75 58.35 L25.75 58.3 25.85 58.3 25.95 58.3 26.1 58.3 26.8 58.6 27.6 59.3 27.8 59.45 27.95 59.6" fill="#1b6aaf" fill-rule="evenodd" stroke="none"/>
      <path d="M27.6 59.6 L25.35 59.6 25.55 58.8 25.75 58.55 Q26.85 58.75 27.45 59.45 L27.6 59.6" fill="#3bc2fc" fill-rule="evenodd" stroke="none"/>
      <path d="M31.6 58.95 L31.35 58.3 Q28.0 48.1 22.95 39.6 15.3 26.8 4.0 19.6 L3.5 19.3 3.7 20.1 Q5.55 30.7 5.5 39.2 L5.3 43.45 Q7.8 48.9 8.8 52.7 L9.95 58.8 10.1 59.6 M31.6 58.95 L31.75 59.5 31.75 59.6" fill="none" stroke="#4d4e66" stroke-linecap="round" stroke-linejoin="round" stroke-width="1.0"/>
      <path d="M21.85 49.45 L23.45 53.2 23.9 55.8 23.85 56.65 23.85 56.75 23.85 56.8 23.8 56.8 Q22.6 60.15 20.5 62.45 L11.15 62.45 Q11.8 59.95 11.8 57.6 L11.65 56.9 11.5 56.35 16.45 52.95 17.75 52.0 Q20.05 50.4 21.85 49.45" fill="#3d63ae" fill-rule="evenodd" stroke="none"/>
      <path d="M21.85 49.45 L23.15 48.75 Q24.85 50.8 25.05 53.25 L25.15 53.75 Q25.55 56.15 24.2 62.35 L24.2 62.45 22.65 62.45 23.55 57.9 23.8 56.85 23.8 56.8 23.85 56.8 23.85 56.75 23.85 56.65 23.9 55.8 23.45 53.2 21.85 49.45" fill="#aabaeb" fill-rule="evenodd" stroke="none"/>
      <path d="M23.8 56.8 L23.8 56.85 23.55 57.9 22.65 62.45 20.5 62.45 Q22.6 60.15 23.8 56.8" fill="#7990d4" fill-rule="evenodd" stroke="none"/>
      <path d="M24.2 62.45 L24.2 62.35 Q25.55 56.15 25.15 53.75 L25.05 53.25 Q24.85 50.8 23.15 48.75 L21.85 49.45 Q20.05 50.4 17.75 52.0 L16.45 52.95 11.5 56.35 11.65 56.9 11.8 57.6 Q11.8 59.95 11.15 62.45" fill="none" stroke="#4d4e66" stroke-linecap="round" stroke-linejoin="round" stroke-width="1.0"/>
      <path d="M-12.45 60.55 Q-15.6 54.05 -15.6 47.4 L-15.5 46.15 Q-8.55 44.6 0.8 40.05 9.5 35.65 13.55 31.85 L16.85 32.9 Q22.55 35.25 25.35 39.7 L26.3 41.25 Q12.2 48.05 3.7 54.65 L2.75 54.35 1.35 54.05 2.25 53.3 Q8.5 48.2 11.05 46.55 L10.85 46.55 Q9.7 47.4 1.75 51.45 L-2.0 53.4 -1.45 56.6 -0.95 58.55 -2.9 60.55 -12.45 60.55" fill="#a65679" fill-rule="evenodd" stroke="none"/>
      <path d="M-2.9 60.55 L-0.95 58.55 -0.15 60.55 -2.9 60.55 M3.7 54.65 Q12.2 48.05 26.3 41.25 27.7 44.1 28.2 47.9 L28.25 48.6 Q23.1 52.0 17.9 58.95 L16.75 60.55 14.0 60.55 14.45 59.6 Q13.6 59.6 10.7 57.55 L8.85 56.15 10.35 54.35 Q15.75 48.55 19.95 48.0 L19.5 47.35 Q15.95 48.55 10.35 52.8 8.4 54.3 6.9 55.55 L3.7 54.65" fill="#e7dae1" fill-rule="evenodd" stroke="none"/>
      <path d="M14.0 60.55 L-0.15 60.55 -0.95 58.55 0.05 57.7 3.7 54.65 6.9 55.55 Q8.4 54.3 10.35 52.8 15.95 48.55 19.5 47.35 L19.95 48.0 Q15.75 48.55 10.35 54.35 L8.85 56.15 10.7 57.55 Q13.6 59.6 14.45 59.6 L14.0 60.55" fill="#fffcfc" fill-rule="evenodd" stroke="none"/>
      <path d="M-0.95 58.55 L-1.45 56.6 -2.0 53.4 1.75 51.45 Q9.7 47.4 10.85 46.55 L11.05 46.55 Q8.5 48.2 2.25 53.3 L1.35 54.05 2.75 54.35 3.7 54.65 0.05 57.7 -0.95 58.55" fill="#de8aa4" fill-rule="evenodd" stroke="none"/>
      <path d="M26.3 41.25 L25.35 39.7 Q22.55 35.25 16.85 32.9 L13.55 31.85 Q9.5 35.65 0.8 40.05 -8.55 44.6 -15.5 46.15 L-15.6 47.4 Q-15.6 54.05 -12.45 60.55" fill="none" stroke="#793b56" stroke-linecap="round" stroke-linejoin="round" stroke-width="1.0"/>
      <path d="M26.3 41.25 Q27.7 44.1 28.2 47.9 L28.25 48.6 Q23.1 52.0 17.9 58.95 L16.75 60.55" fill="none" stroke="#4d4e66" stroke-linecap="round" stroke-linejoin="round" stroke-width="1.0"/>
      <path d="M-3.65 -12.05 L-2.75 -10.7 -0.5 -8.1 Q-0.2 -8.75 -0.2 -9.4 L-0.35 -10.1 -0.5 -10.8 -0.45 -11.15 -0.35 -11.35 Q3.1 -6.3 8.3 -4.5 L10.75 -3.55 Q14.3 -2.0 17.3 0.25 L19.3 1.95 15.55 -3.9 17.55 -2.9 19.55 -1.75 19.75 -1.75 17.65 -4.85 20.7 -3.35 Q22.0 -2.65 23.3 -1.4 L25.75 1.55 26.1 2.15 26.9 3.45 25.3 1.9 Q23.9 0.7 22.65 0.4 22.5 0.55 22.5 1.05 22.5 1.6 23.35 3.6 L23.5 3.95 24.25 6.1 24.8 9.2 24.8 11.5 Q22.0 8.7 21.0 6.8 L20.85 6.6 20.8 6.4 20.6 6.05 Q19.05 3.2 15.9 0.7 L12.1 -1.85 9.6 -3.2 6.15 -4.85 2.9 -6.3 Q3.95 -5.45 5.7 -2.0 L6.2 -1.0 8.35 3.4 6.65 1.15 4.6 -1.6 4.55 -1.75 2.95 -3.1 2.1 -3.7 1.95 -3.7 3.0 -1.1 4.2 2.2 Q2.85 0.7 0.4 -0.2 L-1.2 -0.65 -8.55 -1.8 -9.45 -1.95 -9.45 -4.2 -9.2 -4.2 -9.0 -4.2 -9.45 -4.55 -9.45 -5.2 -4.0 -3.35 -0.25 -2.35 -1.5 -3.8 Q-3.8 -6.85 -3.8 -10.3 L-3.65 -12.05 M39.95 4.5 L38.85 5.3 35.55 7.35 35.55 7.2 35.75 5.9 33.9 7.4 32.0 9.2 32.0 9.05 32.3 8.3 33.25 6.2 39.7 1.4 Q42.4 -0.45 43.4 -2.85 41.75 1.5 39.95 4.5 M19.3 1.95 L19.55 2.35 19.55 2.2 19.3 1.95 M18.25 26.35 L18.85 26.35 18.6 26.3 20.5 26.5 20.8 26.55 23.0 26.85 23.1 26.85 23.25 26.95 23.75 27.1 25.6 27.65 25.6 27.85 21.1 30.2 Q19.1 31.2 14.8 32.05 L12.55 32.4 7.3 32.4 Q8.85 31.4 13.75 29.6 L16.3 28.75 19.4 27.9 20.2 27.85 20.05 27.65 19.7 27.65 19.0 27.4 18.3 27.05 17.1 26.35 18.25 26.35 M2.75 35.0 L3.55 35.0 5.0 35.35 7.55 36.1 9.25 36.65 9.85 36.9 8.15 37.5 7.05 37.85 6.35 38.1 -1.5 40.1 -1.5 39.9 1.7 38.6 3.5 37.85 3.55 37.4 3.3 36.4 3.25 36.15 2.75 35.0 M-3.15 44.7 L-2.8 44.65 -2.45 44.7 -1.5 44.8 -6.35 46.45 -5.4 45.65 -4.75 45.2 -4.05 44.75 -3.15 44.7" fill="#4ff4ff" fill-rule="evenodd" stroke="none"/>
      <path d="M26.9 3.45 L28.1 5.8 Q30.65 11.35 31.2 18.85 L31.25 19.5 31.4 21.05 Q31.5 23.05 31.15 24.4 L29.25 23.95 27.4 23.75 25.6 23.75 26.7 25.25 27.1 25.9 27.35 26.35 28.25 28.15 28.55 28.95 Q26.05 28.95 19.75 31.55 14.25 33.8 11.8 34.5 L10.6 34.85 11.05 35.15 13.5 36.6 16.15 38.1 Q12.55 37.75 3.05 41.3 L1.85 41.8 1.05 42.1 -0.95 42.9 -1.15 43.0 -0.05 43.4 2.4 44.3 Q1.75 44.3 1.75 44.65 -1.35 45.5 -8.25 49.7 L-9.45 50.45 -9.45 39.7 -6.6 37.65 -0.85 33.55 -0.8 33.45 -0.7 33.4 Q-2.2 35.25 -2.45 37.65 -2.5 38.35 -3.25 38.9 -0.05 37.0 1.5 34.5 3.4 31.55 5.35 30.95 8.7 29.85 10.85 28.05 L13.85 25.85 13.35 25.85 13.35 26.05 13.25 25.9 10.0 26.85 2.75 28.5 -3.95 29.45 -9.45 30.0 -9.45 27.5 -4.3 27.7 1.35 27.85 Q4.1 27.85 9.3 26.3 L14.85 24.55 14.85 24.4 11.75 24.2 9.15 24.05 6.6 24.25 3.0 24.4 2.6 24.4 -3.2 23.5 -8.7 22.6 -9.45 22.7 -9.45 19.6 -7.7 20.15 -0.95 21.6 1.2 21.6 1.95 21.45 1.95 21.6 1.2 21.6 -2.95 22.3 1.5 22.8 3.95 23.05 4.4 22.9 4.15 23.05 Q4.45 23.05 4.15 23.1 L4.85 23.0 7.1 22.6 11.0 22.3 16.85 22.95 13.35 19.45 Q12.1 18.3 10.7 17.6 L9.65 17.6 3.15 17.7 Q-2.75 17.7 -9.45 16.2 L-9.45 -1.95 -8.55 -1.8 -1.2 -0.65 0.4 -0.2 Q2.85 0.7 4.2 2.2 L3.0 -1.1 1.95 -3.7 2.1 -3.7 2.95 -3.1 4.55 -1.75 4.6 -1.6 6.65 1.15 8.35 3.4 8.45 3.65 8.6 3.65 8.35 3.4 6.2 -1.0 5.7 -2.0 Q3.95 -5.45 2.9 -6.3 L6.15 -4.85 9.6 -3.2 12.1 -1.85 15.9 0.7 Q19.05 3.2 20.6 6.05 L20.8 6.4 20.85 6.6 21.3 8.0 21.85 9.35 21.0 6.8 Q22.0 8.7 24.8 11.5 L24.8 9.2 24.25 6.1 23.5 3.95 23.35 3.6 Q22.5 1.6 22.5 1.05 22.5 0.55 22.65 0.4 23.9 0.7 25.3 1.9 L26.9 3.45 M-9.45 39.0 L-9.45 36.15 -7.1 34.5 Q-4.3 32.6 -0.25 31.4 L0.3 31.1 0.3 31.25 -0.25 31.4 Q-1.8 32.45 -5.65 35.65 L-9.45 39.0 M-9.45 24.15 L-9.45 23.0 Q-6.8 23.55 -5.9 24.15 L-4.45 25.4 -5.65 25.05 -6.95 24.65 -7.25 24.55 -9.45 24.15 M32.0 9.05 L32.0 9.2 33.9 7.4 35.75 5.9 35.55 7.2 35.55 7.35 38.85 5.3 39.95 4.5 Q38.65 6.6 37.35 8.1 34.9 10.7 31.5 12.0 L31.5 10.35 32.0 9.05 M20.55 21.15 L20.7 19.85 Q20.7 16.05 20.2 14.7 19.75 13.4 18.1 12.5 L15.25 10.95 13.45 9.9 Q9.65 7.5 5.35 3.5 L5.35 3.65 6.15 6.1 Q6.95 8.45 7.5 8.9 9.9 10.75 11.5 12.8 L12.5 14.15 13.05 14.95 12.1 14.65 Q10.85 14.25 10.6 13.95 L10.6 14.1 11.55 15.25 13.2 17.15 Q14.9 17.4 16.4 18.35 18.05 19.5 20.4 22.3 L20.55 21.15 M18.25 26.35 L17.1 26.35 18.3 27.05 19.0 27.4 19.7 27.65 20.05 27.65 20.2 27.85 19.4 27.9 16.3 28.75 13.75 29.6 Q8.85 31.4 7.3 32.4 L12.55 32.4 14.8 32.05 Q19.1 31.2 21.1 30.2 L25.6 27.85 25.6 27.65 23.75 27.1 23.25 26.95 23.1 26.85 23.0 26.85 20.8 26.55 20.5 26.5 18.6 26.3 18.4 26.2 Q18.25 26.1 18.25 26.35 M2.75 35.0 L3.25 36.15 3.3 36.4 3.55 37.4 3.5 37.85 1.7 38.6 -1.5 39.9 -1.5 40.1 6.35 38.1 7.05 37.85 8.15 37.5 9.85 36.9 9.25 36.65 7.55 36.1 5.0 35.35 3.55 35.0 2.75 35.0 M-4.05 44.75 L-4.75 45.2 -5.4 45.65 -6.35 46.45 -1.5 44.8 -2.45 44.7 -2.8 44.65 -3.15 44.7 Q-2.95 44.5 -3.4 44.5 L-4.05 44.75" fill="#00b6df" fill-rule="evenodd" stroke="none"/>
      <path d="M-3.65 -12.05 L-3.2 -14.5 -2.65 -16.45 Q-1.75 -19.15 -0.4 -20.7 -1.0 -19.25 -1.0 -18.45 -1.0 -16.0 0.25 -13.9 3.15 -9.2 12.7 -6.65 L16.6 -5.3 17.65 -4.85 19.75 -1.75 19.55 -1.75 17.55 -2.9 15.55 -3.9 19.3 1.95 17.3 0.25 Q14.3 -2.0 10.75 -3.55 L8.3 -4.5 Q3.1 -6.3 -0.35 -11.35 L-0.45 -11.15 -0.5 -10.8 -0.35 -10.1 -0.2 -9.4 Q-0.2 -8.75 -0.5 -8.1 L-2.75 -10.7 -3.65 -12.05 M-9.45 -4.2 L-9.45 -4.55 -9.0 -4.2 -9.2 -4.2 -9.45 -4.2" fill="#fffdff" fill-rule="evenodd" stroke="none"/>
      <path d="M-9.45 39.7 L-9.45 39.0 -5.65 35.65 Q-1.8 32.45 -0.25 31.4 L0.3 31.25 0.3 31.1 -0.25 31.4 Q-4.3 32.6 -7.1 34.5 L-9.45 36.15 -9.45 30.0 -3.95 29.45 2.75 28.5 10.0 26.85 13.25 25.9 13.35 26.05 13.35 25.85 13.85 25.85 10.85 28.05 Q8.7 29.85 5.35 30.95 3.4 31.55 1.5 34.5 -0.05 37.0 -3.25 38.9 -2.5 38.35 -2.45 37.65 -2.2 35.25 -0.7 33.4 L-0.8 33.45 -0.85 33.55 -6.6 37.65 -9.45 39.7 M-9.45 27.5 L-9.45 24.15 -7.25 24.55 -6.95 24.65 -5.65 25.05 -4.45 25.4 -5.9 24.15 Q-6.8 23.55 -9.45 23.0 L-9.45 22.7 -8.7 22.6 -3.2 23.5 2.6 24.4 3.0 24.4 6.6 24.25 9.15 24.05 11.75 24.2 14.85 24.4 14.85 24.55 9.3 26.3 Q4.1 27.85 1.35 27.85 L-4.3 27.7 -9.45 27.5 M-9.45 19.6 L-9.45 16.2 Q-2.75 17.7 3.15 17.7 L9.65 17.6 10.7 17.6 Q12.1 18.3 13.35 19.45 L16.85 22.95 11.0 22.3 7.1 22.6 4.85 23.0 4.15 23.1 Q4.45 23.05 4.15 23.05 L4.4 22.9 3.95 23.05 1.5 22.8 -2.95 22.3 1.2 21.6 1.95 21.6 1.95 21.45 1.2 21.6 -0.95 21.6 -7.7 20.15 -9.45 19.6 M20.55 21.15 L20.4 22.3 Q18.05 19.5 16.4 18.35 14.9 17.4 13.2 17.15 L11.55 15.25 10.6 14.1 10.6 13.95 Q10.85 14.25 12.1 14.65 L13.05 14.95 12.5 14.15 11.5 12.8 Q9.9 10.75 7.5 8.9 6.95 8.45 6.15 6.1 L5.35 3.65 5.35 3.5 Q9.65 7.5 13.45 9.9 L15.25 10.95 18.1 12.5 Q19.75 13.4 20.2 14.7 20.7 16.05 20.7 19.85 L20.55 21.15" fill="#2c70ad" fill-rule="evenodd" stroke="none"/>
      <path d="M17.65 -4.85 L16.6 -5.3 12.7 -6.65 Q3.15 -9.2 0.25 -13.9 -1.0 -16.0 -1.0 -18.45 -1.0 -19.25 -0.4 -20.7 -1.75 -19.15 -2.65 -16.45 L-3.2 -14.5 -3.65 -12.05 -3.8 -10.3 Q-3.8 -6.85 -1.5 -3.8 L-0.25 -2.35 -4.0 -3.35 -9.45 -5.2 M17.65 -4.85 L20.7 -3.35 Q22.0 -2.65 23.3 -1.4 L25.75 1.55 26.1 2.15 26.9 3.45 28.1 5.8 Q30.65 11.35 31.2 18.85 L31.25 19.5 31.4 21.05 Q31.5 23.05 31.15 24.4 L29.25 23.95 27.4 23.75 25.6 23.75 26.7 25.25 27.1 25.9 27.35 26.35 28.25 28.15 28.55 28.95 Q26.05 28.95 19.75 31.55 14.25 33.8 11.8 34.5 L10.6 34.85 11.05 35.15 13.5 36.6 16.15 38.1 Q12.55 37.75 3.05 41.3 L1.85 41.8 1.05 42.1 -0.95 42.9 -1.15 43.0 -0.05 43.4 2.4 44.3 Q1.75 44.3 1.75 44.65 -1.35 45.5 -8.25 49.7 L-9.45 50.45 M43.4 -2.85 L43.55 -3.25 M39.95 4.5 Q41.75 1.5 43.4 -2.85 42.4 -0.45 39.7 1.4 L33.25 6.2 32.3 8.3 32.0 9.05 31.5 10.35 31.5 12.0 Q34.9 10.7 37.35 8.1 38.65 6.6 39.95 4.5 Z" fill="none" stroke="#188ad3" stroke-linecap="round" stroke-linejoin="round" stroke-width="1.0"/>
      <path d="M32.4 2.75 L32.35 2.55 28.95 -8.35 29.1 -8.35 31.05 -6.4 31.1 -6.35 33.65 -0.15 37.35 9.7 36.95 9.45 36.45 8.2 35.3 6.45 35.45 7.55 35.55 8.45 35.05 8.05 34.2 7.35 33.1 4.65 32.45 2.9 32.4 2.75 M30.6 0.6 L31.7 5.3 32.25 7.75 33.6 9.55 34.85 10.95 35.25 11.5 35.7 11.9 37.1 13.6 32.35 12.4 32.0 12.2 31.5 11.95 Q29.55 13.65 28.9 14.5 29.15 13.8 29.95 12.45 30.45 11.6 30.9 11.05 L30.95 11.0 29.85 8.15 26.7 0.3 22.5 -9.5 Q25.3 -7.1 28.05 -4.8 L30.6 0.6 M38.15 16.5 L38.4 16.7 Q40.1 18.25 41.1 19.5 L42.25 23.85 41.6 23.4 39.25 18.75 38.15 16.5 M16.9 -9.75 L16.7 -10.15 Q15.25 -16.9 13.55 -25.8 L12.4 -31.6 13.0 -31.45 15.55 -21.55 16.7 -17.35 16.9 -9.75 M11.65 35.1 L11.3 32.7 10.4 26.25 9.5 25.5 7.6 23.8 2.6 19.75 -13.0 7.15 -15.45 4.3 Q-20.75 -2.0 -22.45 -4.9 L-22.3 -4.8 -15.9 0.9 Q-8.3 7.5 -3.0 10.9 3.25 14.95 12.45 22.15 L14.85 24.05 18.1 26.65 18.2 28.5 18.35 31.85 18.4 32.55 12.7 33.0 12.5 31.6 12.2 29.3 12.3 29.4 Q12.95 28.75 13.85 26.75 L14.6 25.15 14.65 25.0 4.7 17.85 -1.85 13.25 10.15 23.65 10.55 23.95 Q11.35 25.45 12.2 29.0 L12.2 29.1 12.25 29.25 12.2 29.3 12.15 35.0 11.65 35.1 M28.9 14.5 L28.8 14.85 28.7 14.85 28.9 14.5 M34.0 52.0 L33.95 51.9 23.85 38.35 23.55 37.9 21.7 35.75 18.95 32.5 18.9 32.5 19.7 30.85 20.65 28.75 20.55 28.65 20.7 28.5 Q21.95 27.6 24.25 26.3 L25.35 25.65 24.85 37.05 32.2 46.9 32.45 47.7 33.45 50.5 35.1 52.6 37.65 55.65 34.0 52.0 M45.95 49.8 L46.8 51.95 47.7 55.05 47.65 55.55 45.95 52.1 44.8 50.0 45.95 49.8" fill="#fdcd2f" fill-rule="evenodd" stroke="none"/>
      <path d="M31.1 -6.35 L31.05 -6.4 29.1 -8.35 28.95 -8.35 32.35 2.55 32.4 2.75 Q30.85 -1.1 29.0 -6.65 L23.55 -19.95 18.1 -33.15 17.95 -33.6 20.2 -31.05 22.2 -27.0 29.1 -11.15 31.1 -6.35 M32.35 12.4 L37.1 13.6 35.7 11.9 35.25 11.5 34.85 10.95 33.6 9.55 32.25 7.75 31.7 5.3 30.6 0.6 33.35 7.15 34.1 8.05 34.3 8.35 36.6 10.5 38.1 11.7 39.05 12.45 40.95 19.0 41.1 19.5 Q40.1 18.25 38.4 16.7 L38.15 16.5 Q35.4 14.05 32.35 12.4 M28.05 -4.8 Q25.3 -7.1 22.5 -9.5 L26.7 0.3 29.85 8.15 Q28.3 4.7 25.55 -0.5 21.1 -8.75 18.25 -12.25 L18.0 -12.8 16.7 -17.35 15.55 -21.55 13.0 -31.45 13.3 -31.35 Q18.0 -24.0 22.2 -16.3 25.3 -10.65 28.05 -4.8 M-22.3 -4.8 L-3.65 6.9 19.9 21.85 21.45 22.8 Q23.6 24.2 25.35 25.35 L25.35 25.65 24.25 26.3 Q21.95 27.6 20.7 28.5 L20.55 28.65 20.65 28.75 19.7 30.85 18.9 32.5 18.95 32.5 21.7 35.75 23.55 37.9 23.85 38.35 33.95 51.9 34.0 52.0 34.0 52.1 33.35 51.4 33.1 51.05 18.65 34.6 18.4 34.3 18.0 34.2 13.85 33.2 12.7 33.0 18.4 32.55 18.35 31.85 18.2 28.5 18.1 26.65 14.85 24.05 12.45 22.15 Q3.25 14.95 -3.0 10.9 -8.3 7.5 -15.9 0.9 L-22.3 -4.8" fill="#f8fefa" fill-rule="evenodd" stroke="none"/>
      <path d="M32.4 2.75 L32.45 2.9 33.1 4.65 34.2 7.35 35.05 8.05 35.55 8.45 35.45 7.55 35.3 6.45 36.45 8.2 36.95 9.45 37.35 9.7 38.1 11.7 36.6 10.5 34.3 8.35 34.1 8.05 33.35 7.15 30.6 0.6 28.05 -4.8 Q25.3 -10.65 22.2 -16.3 L20.55 -22.45 Q18.75 -29.55 18.1 -33.15 L23.55 -19.95 29.0 -6.65 Q30.85 -1.1 32.4 2.75 M29.85 8.15 L30.95 11.0 30.9 11.05 Q30.45 11.6 29.95 12.45 29.15 13.8 28.9 14.5 29.55 13.65 31.5 11.95 L32.0 12.2 32.35 12.4 Q35.4 14.05 38.15 16.5 L39.25 18.75 41.6 23.4 38.75 20.95 Q35.45 17.85 33.95 15.7 L33.85 15.6 33.4 15.6 30.45 15.6 Q27.3 15.35 26.2 13.4 L26.35 13.5 Q25.25 7.4 21.1 -1.1 L16.9 -9.75 16.7 -17.35 18.0 -12.8 18.25 -12.25 Q21.1 -8.75 25.55 -0.5 28.3 4.7 29.85 8.15 M25.75 27.2 L25.85 30.3 25.9 30.75 26.0 32.45 26.0 33.8 26.15 35.85 27.1 37.25 30.15 41.9 31.25 43.6 34.2 48.2 34.6 48.75 36.0 51.0 38.9 56.05 39.1 57.75 Q36.7 56.35 32.15 52.85 L27.35 49.15 28.4 48.5 25.35 45.7 23.4 44.4 23.2 44.3 22.05 44.7 21.95 44.6 19.85 42.8 21.95 43.0 Q20.85 40.75 19.35 38.65 17.4 35.85 15.7 34.9 L13.3 35.0 12.15 35.0 12.2 29.3 12.25 29.25 12.2 29.1 12.2 29.0 Q11.35 25.45 10.55 23.95 L10.15 23.65 -1.85 13.25 4.7 17.85 14.65 25.0 14.6 25.15 13.85 26.75 Q12.95 28.75 12.3 29.4 L12.2 29.3 12.5 31.6 12.7 33.0 13.85 33.2 18.0 34.2 18.4 34.3 18.65 34.6 33.1 51.05 33.35 51.4 34.0 52.1 34.0 52.0 37.65 55.65 35.1 52.6 33.45 50.5 32.45 47.7 32.2 46.9 24.85 37.05 25.35 25.65 25.35 25.35 25.5 25.4 25.55 25.6 25.75 26.65 25.75 27.2 M28.9 14.5 L28.7 14.85 28.8 14.85 28.9 14.5 M45.5 48.75 L45.55 48.9 45.95 49.8 44.8 50.0 45.95 52.1 47.65 55.55 47.7 55.8 44.4 51.25 43.4 49.95 43.05 49.45 43.25 49.0 43.25 48.9 43.6 48.9 44.25 48.85 45.35 48.8 45.5 48.75" fill="#cb7230" fill-rule="evenodd" stroke="none"/>
      <path d="M33.95 15.7 L33.55 15.75 33.4 15.6 33.85 15.6 33.95 15.7" fill="#01b0f1" fill-rule="evenodd" stroke="none"/>
      <path d="M33.4 15.6 L33.55 15.75 33.95 15.7 Q35.45 17.85 38.75 20.95 L41.6 23.4 42.25 23.85 Q42.5 25.4 43.1 27.45 L40.55 26.7 39.35 26.45 37.2 26.15 40.05 25.9 36.95 20.75 33.55 15.75 28.85 16.7 24.2 17.65 27.45 20.5 32.65 24.3 28.0 22.05 Q24.0 20.05 21.6 19.6 L21.35 19.6 21.3 19.55 17.5 14.85 Q13.55 9.7 12.25 6.5 L14.75 6.9 26.2 13.4 Q27.3 15.35 30.45 15.6 L33.4 15.6" fill="#fffff3" fill-rule="evenodd" stroke="none"/>
      <path d="M42.25 30.05 L41.15 30.05 38.1 30.3 35.55 30.75 33.4 29.85 Q30.95 28.95 28.9 28.95 L26.9 29.2 26.7 33.55 26.75 34.6 Q28.5 36.8 30.6 40.45 L30.45 40.5 30.15 41.9 27.1 37.25 26.15 35.85 26.0 33.8 26.0 32.45 25.9 30.75 25.85 30.3 25.75 27.2 26.4 27.15 Q30.45 27.2 32.7 28.2 L35.1 29.3 35.9 29.75 Q39.35 28.75 41.55 28.9 L41.7 28.9 41.9 29.35 42.25 30.05" fill="#a65679" fill-rule="evenodd" stroke="none"/>
      <path d="M21.35 19.6 L21.6 19.6 Q24.0 20.05 28.0 22.05 L32.65 24.3 35.7 25.95 37.2 26.15 39.35 26.45 40.55 26.7 43.1 27.45 43.65 29.35 Q42.85 28.95 41.7 28.9 L41.55 28.9 Q39.35 28.75 35.9 29.75 L35.1 29.3 32.7 28.2 Q30.45 27.2 26.4 27.15 L25.75 27.2 25.75 26.65 25.55 25.6 25.5 25.4 25.35 25.35 Q23.6 24.2 21.45 22.8 L19.9 21.85 19.0 20.5 18.85 20.25 21.4 21.35 21.35 19.6 M47.2 39.25 L45.25 37.8 44.25 36.75 44.2 36.55 43.95 35.4 43.95 35.2 43.8 34.95 43.75 34.4 44.3 34.45 44.55 34.55 45.45 34.75 47.25 35.05 44.95 34.9 44.6 34.95 44.3 34.9 Q44.75 36.9 45.25 37.35 L47.65 39.0 47.2 39.2 47.2 39.25 M3.55 39.15 L3.7 39.05 Q4.85 37.9 7.25 36.55 L7.65 36.55 13.35 36.1 13.3 36.2 7.95 37.85 3.55 39.15 M24.2 47.6 L25.65 48.35 19.1 51.35 19.2 51.25 21.55 49.55 24.2 47.6" fill="#7990d4" fill-rule="evenodd" stroke="none"/>
      <path d="M30.6 40.45 Q28.5 36.8 26.75 34.6 L26.7 33.55 26.9 29.2 28.9 28.95 Q30.95 28.95 33.4 29.85 L35.55 30.75 38.1 30.3 41.15 30.05 42.25 30.05 42.9 31.8 42.95 31.9 41.8 31.85 Q40.35 31.85 39.2 32.5 L38.55 32.95 38.6 33.45 38.6 34.05 37.7 33.3 38.45 35.5 38.35 35.4 Q35.75 32.8 34.55 32.05 31.85 30.2 29.5 30.85 L28.55 30.85 28.0 30.7 27.25 30.5 27.5 30.95 28.5 32.6 29.25 34.85 Q29.95 37.85 31.75 38.9 L33.3 39.55 33.75 39.65 30.9 40.35 30.6 40.45" fill="#de8aa4" fill-rule="evenodd" stroke="none"/>
      <path d="M12.25 6.5 Q13.55 9.7 17.5 14.85 L21.3 19.55 21.35 19.6 21.4 21.35 18.85 20.25 14.75 12.85 Q12.4 8.55 11.55 6.45 L12.25 6.5 M32.65 24.3 L27.45 20.5 24.2 17.65 28.85 16.7 33.55 15.75 36.95 20.75 40.05 25.9 37.2 26.15 35.7 25.95 32.65 24.3 M43.75 34.4 L43.75 34.35 43.5 33.6 46.7 34.1 Q50.5 34.7 51.55 35.2 50.9 36.95 47.65 39.0 L45.25 37.35 Q44.75 36.9 44.3 34.9 L44.6 34.95 44.95 34.9 47.25 35.05 45.45 34.75 44.55 34.55 44.3 34.45 43.75 34.4 M44.7 35.25 Q44.8 36.5 45.15 36.8 L45.95 37.4 49.65 35.6 49.5 35.55 45.25 35.2 44.7 35.25 M19.85 42.8 L-0.7 41.0 Q-4.5 39.7 -5.65 39.35 -7.25 38.75 -7.85 38.2 -6.8 37.65 -5.85 37.45 L-5.4 37.35 0.15 36.1 1.95 35.7 3.15 35.45 10.85 35.1 11.65 35.1 12.15 35.0 13.3 35.0 15.7 34.9 Q17.4 35.85 19.35 38.65 20.85 40.75 21.95 43.0 L19.85 42.8 M3.55 39.15 L7.95 37.85 13.3 36.2 13.35 36.1 7.65 36.55 7.25 36.55 Q4.85 37.9 3.7 39.05 L3.55 39.15 M22.05 44.7 L23.2 44.3 23.4 44.4 25.35 45.7 28.4 48.5 27.35 49.15 27.25 49.2 20.6 52.65 Q16.4 54.8 15.65 54.8 L15.05 54.55 14.95 53.9 14.9 53.8 17.95 49.6 20.45 46.35 21.8 44.75 22.05 44.7 M7.85 38.1 Q2.55 39.6 0.9 40.35 L19.15 42.3 20.65 42.3 Q16.9 37.85 15.05 36.1 L7.85 38.1 M24.2 47.6 L21.55 49.55 19.2 51.25 19.1 51.35 25.65 48.35 24.2 47.6 M21.15 46.15 L16.55 52.5 16.45 52.55 19.5 50.35 24.35 47.0 23.05 45.45 21.15 46.15" fill="#aabaeb" fill-rule="evenodd" stroke="none"/>
      <path d="M30.6 40.45 L30.9 40.35 33.75 39.65 34.0 39.7 36.25 40.0 36.35 40.0 37.55 40.2 Q39.35 40.5 40.3 41.3 L40.3 41.1 40.3 40.95 40.15 40.3 39.55 38.3 39.55 38.25 39.5 37.85 39.45 37.7 39.4 37.65 39.25 37.1 39.15 36.9 38.45 35.5 37.7 33.3 38.6 34.05 38.6 33.45 38.55 32.95 39.2 32.5 Q40.35 31.85 41.8 31.85 L42.95 31.9 43.5 33.6 43.75 34.35 43.75 34.4 43.8 34.95 43.95 35.2 43.95 35.4 44.2 36.55 41.6 35.7 40.3 35.05 38.6 34.05 38.65 34.7 40.7 37.1 41.0 39.1 41.1 39.85 41.15 41.2 41.15 41.65 41.9 42.65 41.9 42.75 40.95 42.15 40.75 42.05 40.75 42.1 40.6 42.0 40.6 42.05 40.4 41.85 40.2 41.75 40.0 41.7 39.55 41.65 37.7 41.35 35.8 41.3 33.55 41.4 34.9 44.45 Q35.75 46.3 35.45 47.1 L35.75 46.95 Q37.75 46.95 39.9 48.25 L42.25 49.45 42.45 49.05 42.8 48.6 41.2 47.65 37.9 46.85 37.95 46.85 38.75 46.45 39.6 46.4 Q42.0 46.45 43.75 47.55 L43.8 47.6 44.6 48.1 44.8 48.3 44.9 48.25 47.2 47.9 48.05 47.45 51.6 44.85 51.5 45.45 Q50.6 46.55 49.15 47.45 47.6 48.2 46.7 48.75 L45.9 48.75 45.5 48.75 45.35 48.8 44.25 48.85 43.6 48.9 43.25 48.9 43.25 49.0 43.05 49.45 42.85 49.75 42.55 50.15 40.85 50.1 Q38.8 48.9 38.0 48.9 L34.6 48.75 34.2 48.2 Q33.55 46.1 31.65 42.45 L30.9 41.0 30.6 40.45 M50.65 41.9 L50.7 42.05 50.75 42.35 50.8 43.9 50.25 43.6 49.45 43.25 49.4 43.25 49.05 42.05 49.0 41.65 50.65 41.9 M41.0 47.45 Q41.95 47.65 42.95 48.35 L43.0 48.35 43.15 48.5 44.05 48.35 44.45 48.35 43.8 48.05 43.05 47.45 Q42.15 46.9 39.1 46.7 L38.9 46.65 38.5 46.75 40.5 47.3 41.0 47.45" fill="#e7dae1" fill-rule="evenodd" stroke="none"/>
      <path d="M51.6 44.85 L48.05 47.45 47.2 47.9 44.9 48.25 44.8 48.3 44.6 48.1 43.8 47.6 43.75 47.55 Q42.0 46.45 39.6 46.4 L38.75 46.45 37.95 46.85 37.9 46.85 41.2 47.65 42.8 48.6 42.45 49.05 42.25 49.45 39.9 48.25 Q37.75 46.95 35.75 46.95 L35.45 47.1 Q35.75 46.3 34.9 44.45 L33.55 41.4 35.8 41.3 37.7 41.35 39.55 41.65 40.0 41.7 40.2 41.75 40.4 41.85 40.6 42.05 40.6 42.0 40.75 42.1 40.75 42.05 40.95 42.15 41.9 42.75 41.9 42.65 41.15 41.65 41.15 41.2 41.1 39.85 41.0 39.1 40.7 37.1 38.65 34.7 38.6 34.05 40.3 35.05 41.6 35.7 44.2 36.55 44.25 36.75 45.25 37.8 47.2 39.25 48.2 39.85 48.5 40.1 51.55 41.6 51.7 43.0 51.6 44.85 M33.55 35.3 L33.3 35.2 Q33.05 35.15 33.1 34.85 33.1 34.5 33.25 34.2 33.5 33.85 33.75 33.8 L33.85 33.8 34.3 34.05 34.45 34.15 34.55 34.15 34.9 34.55 34.95 34.6 35.45 35.55 35.35 35.8 35.15 35.8 34.2 35.55 34.15 35.55 33.55 35.3 M43.45 38.0 L43.3 37.9 43.1 37.95 43.4 38.0 43.45 38.0 M50.65 41.9 L49.0 41.65 49.05 42.05 49.4 43.25 49.45 43.25 50.25 43.6 50.8 43.9 50.75 42.35 50.7 42.05 50.65 41.9" fill="#fffcfc" fill-rule="evenodd" stroke="none"/>
      <path d="M33.85 33.8 L33.75 33.8 Q33.5 33.85 33.25 34.2 33.1 34.5 33.1 34.85 33.05 35.15 33.3 35.2 L33.55 35.3 33.5 36.15 33.55 36.75 Q33.6 38.1 34.2 38.9 L33.4 38.75 32.3 38.25 Q30.8 36.55 30.8 34.5 L30.9 33.65 32.4 33.6 33.9 33.7 33.85 33.8 M38.65 38.2 L39.2 39.7 38.25 39.4 Q38.65 38.85 38.65 38.2" fill="#feeaf6" fill-rule="evenodd" stroke="none"/>
      <path d="M34.55 33.95 L34.55 33.9 34.75 33.55 36.9 35.4 37.05 35.6 37.9 36.75 37.3 37.2 36.9 37.0 Q36.6 36.7 36.6 36.25 L36.65 35.85 Q35.4 34.35 34.55 33.95" fill="#644317" fill-rule="evenodd" stroke="none"/>
      <path d="M33.55 35.3 L34.15 35.55 34.1 36.2 34.1 36.3 Q34.1 37.6 34.75 38.6 L35.05 39.0 34.2 38.9 Q33.6 38.1 33.55 36.75 L33.5 36.15 33.55 35.3 M34.45 34.15 L34.3 34.05 33.85 33.8 33.9 33.7 34.1 33.15 34.75 33.55 34.55 33.9 34.55 33.95 34.45 34.15 M38.0 38.7 L38.2 37.4 38.2 37.2 38.65 38.05 38.65 38.2 Q38.65 38.85 38.25 39.4 L37.7 39.3 37.95 38.8 38.0 38.7" fill="#583028" fill-rule="evenodd" stroke="none"/>
      <path d="M33.9 33.7 L32.4 33.6 30.9 33.65 30.8 34.5 Q30.8 36.55 32.3 38.25 29.95 36.65 29.75 31.8 L30.0 31.75 Q31.55 31.8 33.1 32.35 L34.1 33.15 33.9 33.7" fill="#c9c3cd" fill-rule="evenodd" stroke="none"/>
      <path d="M34.15 35.55 L34.2 35.55 35.15 35.8 34.65 35.95 34.6 36.55 34.55 36.75 Q34.5 37.85 35.35 38.55 36.0 39.05 36.9 39.05 L38.0 38.7 37.95 38.8 37.7 39.3 36.65 39.15 35.05 39.0 34.75 38.6 Q34.1 37.6 34.1 36.3 L34.1 36.2 34.15 35.55 M35.35 35.8 L35.45 35.55 34.95 34.6 34.9 34.55 34.55 34.15 34.45 34.15 34.55 33.95 Q35.4 34.35 36.65 35.85 L36.6 36.25 Q36.6 36.7 36.9 37.0 L37.3 37.2 37.9 36.75 38.0 36.95 Q37.8 37.75 37.05 37.75 35.95 37.25 35.95 36.55 35.95 36.15 36.2 35.8 L35.35 35.8" fill="#e88b12" fill-rule="evenodd" stroke="none"/>
      <path d="M33.75 39.65 L33.3 39.55 31.75 38.9 Q29.95 37.85 29.25 34.85 L28.5 32.6 27.5 30.95 27.25 30.5 28.0 30.7 28.55 30.85 29.5 30.85 Q31.85 30.2 34.55 32.05 35.75 32.8 38.35 35.4 L38.45 35.5 39.15 36.9 39.25 37.1 39.4 37.65 39.45 37.7 39.5 37.85 39.55 38.25 39.55 38.3 40.15 40.3 40.3 40.95 40.3 41.1 40.3 41.3 Q39.35 40.5 37.55 40.2 L36.35 40.0 36.25 40.0 34.0 39.7 33.75 39.65 M32.3 38.25 L33.4 38.75 34.2 38.9 35.05 39.0 36.65 39.15 37.7 39.3 38.25 39.4 39.2 39.7 38.65 38.2 38.65 38.05 38.2 37.2 38.0 36.95 37.9 36.75 37.05 35.6 36.9 35.4 34.75 33.55 34.1 33.15 33.1 32.35 Q31.55 31.8 30.0 31.75 L29.75 31.8 Q29.95 36.65 32.3 38.25 M39.35 40.4 L39.3 40.55 39.35 40.55 39.35 40.4" fill="#362b27" fill-rule="evenodd" stroke="none"/>
      <path d="M35.15 35.8 L35.35 35.8 36.2 35.8 Q35.95 36.15 35.95 36.55 35.95 37.25 37.05 37.75 37.8 37.75 38.0 36.95 L38.2 37.2 38.2 37.4 38.0 38.7 36.9 39.05 Q36.0 39.05 35.35 38.55 34.5 37.85 34.55 36.75 L34.6 36.55 34.65 35.95 35.15 35.8 M34.9 36.75 Q34.9 37.8 35.65 38.3 36.2 38.75 36.9 38.75 37.8 38.75 38.15 37.9 L38.15 37.65 38.0 37.65 Q37.55 38.1 37.05 38.1 36.3 38.1 36.0 37.5 L35.6 36.3 35.5 36.4 35.4 36.5 35.1 36.6 34.9 36.75" fill="#deae37" fill-rule="evenodd" stroke="none"/>
      <path d="M34.9 36.75 L35.1 36.6 35.4 36.5 35.5 36.4 35.6 36.3 36.0 37.5 Q36.3 38.1 37.05 38.1 37.55 38.1 38.0 37.65 L38.15 37.65 38.15 37.9 Q37.8 38.75 36.9 38.75 36.2 38.75 35.65 38.3 34.9 37.8 34.9 36.75" fill="#f7e13d" fill-rule="evenodd" stroke="none"/>
      <path d="M44.7 35.25 L45.25 35.2 49.5 35.55 49.65 35.6 45.95 37.4 45.15 36.8 Q44.8 36.5 44.7 35.25 M7.85 38.1 L15.05 36.1 Q16.9 37.85 20.65 42.3 L19.15 42.3 0.9 40.35 Q2.55 39.6 7.85 38.1 M21.15 46.15 L23.05 45.45 24.35 47.0 19.5 50.35 16.45 52.55 16.55 52.5 21.15 46.15" fill="#f2f6f5" fill-rule="evenodd" stroke="none"/>
      <path d="M30.15 41.9 L30.45 40.5 30.6 40.45 30.9 41.0 31.65 42.45 Q33.55 46.1 34.2 48.2 L31.25 43.6 30.15 41.9 M41.0 47.45 L40.5 47.3 38.5 46.75 38.9 46.65 39.1 46.7 Q42.15 46.9 43.05 47.45 L43.8 48.05 44.45 48.35 44.05 48.35 43.15 48.5 43.0 48.35 42.95 48.35 Q41.95 47.65 41.0 47.45" fill="#8b92aa" fill-rule="evenodd" stroke="none"/>
      <path d="M37.35 9.7 L33.65 -0.15 31.1 -6.35 29.1 -11.15 22.2 -27.0 20.2 -31.05 17.95 -33.6 18.1 -33.15 Q18.75 -29.55 20.55 -22.45 L22.2 -16.3 Q18.0 -24.0 13.3 -31.35 L13.0 -31.45 12.4 -31.6 13.55 -25.8 Q15.25 -16.9 16.7 -10.15 L16.9 -9.75 21.1 -1.1 Q25.25 7.4 26.35 13.5 L26.2 13.4 M41.1 19.5 L40.95 19.0 39.05 12.45 38.1 11.7 37.35 9.7 M41.1 19.5 L42.25 23.85 M11.65 35.1 L11.3 32.7 10.4 26.25 9.5 25.5 7.6 23.8 2.6 19.75 -13.0 7.15 -15.45 4.3 Q-20.75 -2.0 -22.45 -4.9 L-22.3 -4.8 -3.65 6.9 19.9 21.85 M19.85 42.8 L21.95 44.6 M27.35 49.15 L32.15 52.85 Q36.7 56.35 39.1 57.75 L38.9 56.05 36.0 51.0 34.6 48.75 M45.5 48.75 L45.55 48.9 45.95 49.8 46.8 51.95 47.7 55.05 M47.7 55.8 L44.4 51.25 43.4 49.95 43.05 49.45" fill="none" stroke="#7b4d15" stroke-linecap="round" stroke-linejoin="round" stroke-width="1.0"/>
      <path d="M26.2 13.4 L14.75 6.9 12.25 6.5 11.55 6.45 Q12.4 8.55 14.75 12.85 L18.85 20.25 19.0 20.5 19.9 21.85 M43.1 27.45 Q42.5 25.4 42.25 23.85 M42.25 30.05 L41.9 29.35 41.7 28.9 Q42.85 28.95 43.65 29.35 L43.1 27.45 M42.95 31.9 L42.9 31.8 42.25 30.05 M51.6 44.85 L51.7 43.0 51.55 41.6 48.5 40.1 48.2 39.85 47.2 39.25 47.2 39.2 47.65 39.0 Q50.9 36.95 51.55 35.2 50.5 34.7 46.7 34.1 L43.5 33.6 42.95 31.9 M19.85 42.8 L-0.7 41.0 Q-4.5 39.7 -5.65 39.35 -7.25 38.75 -7.85 38.2 -6.8 37.65 -5.85 37.45 L-5.4 37.35 0.15 36.1 1.95 35.7 3.15 35.45 10.85 35.1 11.65 35.1 M21.95 44.6 L22.05 44.7 21.8 44.75 21.95 44.6 M27.35 49.15 L27.25 49.2 20.6 52.65 Q16.4 54.8 15.65 54.8 L15.05 54.55 14.95 53.9 14.9 53.8 17.95 49.6 20.45 46.35 21.8 44.75 M51.6 44.85 L51.5 45.45 Q50.6 46.55 49.15 47.45 47.6 48.2 46.7 48.75 L45.9 48.75 45.5 48.75 M47.7 55.05 L47.65 55.55 47.7 55.8 M43.05 49.45 L42.85 49.75 42.55 50.15 40.85 50.1 Q38.8 48.9 38.0 48.9 L34.6 48.75" fill="none" stroke="#4d4e66" stroke-linecap="round" stroke-linejoin="round" stroke-width="1.0"/>
    </g>
    <g id="sprite0" transform="matrix(1.0, 0.0, 0.0, 1.0, 27.25, 46.25)">
      <use ffdec:characterId="3" height="46.25" transform="matrix(1.0, 0.0, 0.0, 1.0, -27.25, -46.25)" width="27.95" xlink:href="#shape2"/>
    </g>
    <g id="shape2" transform="matrix(1.0, 0.0, 0.0, 1.0, 27.25, 46.25)">
      <path d="M0.7 -26.6 L0.7 -20.25 Q-5.75 -10.5 -14.05 0.0 L-15.7 -3.6 Q-17.0 -5.45 -19.1 -5.45 L-22.7 -4.85 -24.65 -4.45 -22.95 -15.9 Q-22.95 -18.05 -23.75 -18.7 -24.6 -19.4 -27.25 -19.05 L-26.05 -20.35 Q-24.35 -21.9 -21.95 -25.45 -19.3 -29.35 -16.85 -34.55 L-14.85 -39.45 -15.5 -34.2 -15.85 -27.95 -15.8 -27.1 Q-7.5 -30.85 -0.45 -44.05 L0.7 -46.25 0.7 -39.35 -2.95 -34.35 -5.25 -31.7 -7.85 -28.95 -9.35 -27.0 Q-10.7 -25.4 -11.75 -24.95 L-15.1 -23.4 Q-16.3 -22.85 -16.85 -22.85 -17.4 -22.85 -17.85 -23.25 -18.45 -23.75 -18.45 -24.7 L-18.05 -27.25 -17.9 -27.65 -19.5 -24.55 Q-21.25 -21.6 -22.65 -20.65 -21.3 -20.7 -20.55 -19.55 -19.85 -18.5 -19.85 -16.85 -19.85 -13.85 -22.15 -8.75 L-22.15 -8.65 -19.85 -9.45 -17.15 -9.85 Q-14.75 -9.85 -13.35 -8.1 L-11.4 -10.55 -7.15 -15.65 -5.35 -18.2 -5.0 -18.75 -4.85 -18.85 0.4 -26.25 0.7 -26.6" fill="#4ff4ff" fill-opacity="0.8980392" fill-rule="evenodd" stroke="none"/>
      <path d="M0.7 -26.6 L0.4 -26.25 -4.85 -18.85 -5.0 -18.75 -5.35 -18.2 -7.15 -15.65 -11.4 -10.55 -13.35 -8.1 Q-14.75 -9.85 -17.15 -9.85 L-19.85 -9.45 -22.15 -8.65 -22.15 -8.75 Q-19.85 -13.85 -19.85 -16.85 -19.85 -18.5 -20.55 -19.55 -21.3 -20.7 -22.65 -20.65 -21.25 -21.6 -19.5 -24.55 L-17.9 -27.65 -18.05 -27.25 -18.45 -24.7 Q-18.45 -23.75 -17.85 -23.25 -17.4 -22.85 -16.85 -22.85 -16.3 -22.85 -15.1 -23.4 L-11.75 -24.95 Q-10.7 -25.4 -9.35 -27.0 L-7.85 -28.95 -5.25 -31.7 -2.95 -34.35 0.7 -39.35 0.7 -26.6" fill="#e5fcf0" fill-opacity="0.8980392" fill-rule="evenodd" stroke="none"/>
    </g>
    <g id="shape3" transform="matrix(1.0, 0.0, 0.0, 1.0, 0.0, 0.0)">
      <path d="M50.5 0.0 Q53.95 0.0 53.95 3.3 L53.95 50.15 Q53.95 53.4 50.5 53.4 L3.3 53.4 Q0.0 53.4 0.0 50.15 L0.0 3.3 Q0.0 0.0 3.3 0.0 L50.5 0.0" fill="#000000" fill-opacity="0.003921569" fill-rule="evenodd" stroke="none"/>
    </g>
  </defs>
</svg>
