<?xml version="1.0" encoding="UTF-8" standalone="no"?>
<svg xmlns:ffdec="https://www.free-decompiler.com/flash" xmlns:xlink="http://www.w3.org/1999/xlink" ffdec:objectType="frame" height="64.45px" width="110.9px" xmlns="http://www.w3.org/2000/svg">
  <g transform="matrix(1.0, 0.0, 0.0, 1.0, 28.1, 3.0)">
    <use ffdec:characterId="4" height="64.45" transform="matrix(1.0, 0.0, 0.0, 1.0, -28.1, -3.0)" width="110.9" xlink:href="#sprite0"/>
  </g>
  <defs>
    <g id="sprite0" transform="matrix(1.0, 0.0, 0.0, 1.0, 28.1, 3.0)">
      <clipPath id="clipPath0" transform="matrix(1.0, 0.0, 0.0, 1.0, 0.0, 0.0)">
        <path d="M50.5 0.0 Q53.95 0.0 53.95 3.3 L53.95 50.15 Q53.95 53.4 50.5 53.4 L3.3 53.4 Q0.0 53.4 0.0 50.15 L0.0 3.3 Q0.0 0.0 3.3 0.0 L50.5 0.0" fill="#000000" fill-rule="evenodd" stroke="none"/>
      </clipPath>
      <g clip-path="url(#clipPath0)">
        <use ffdec:characterId="2" height="64.45" transform="matrix(1.0, 0.0, 0.0, 1.0, -28.1, -3.0)" width="110.9" xlink:href="#shape1"/>
      </g>
      <use ffdec:characterId="3" height="53.4" transform="matrix(1.0, 0.0, 0.0, 1.0, 0.0, 0.0)" width="53.95" xlink:href="#shape2"/>
    </g>
    <g id="shape1" transform="matrix(1.0, 0.0, 0.0, 1.0, 28.1, 3.0)">
      <path d="M9.3 -1.75 L7.8 10.65 7.95 4.95 8.65 -1.75 9.3 -1.75 M8.65 39.05 L9.6 32.85 10.85 24.2 12.6 8.9 13.85 -1.75 14.25 -1.75 13.9 1.25 14.4 -1.75 14.9 -1.75 13.15 8.1 13.05 8.1 Q10.15 31.95 8.9 40.1 L8.65 39.05 M12.55 -1.75 L8.65 30.65 Q8.4 30.9 8.3 30.65 L12.05 -1.75 12.55 -1.75 M10.3 -1.75 L9.2 6.35 9.1 6.3 10.1 -1.75 10.3 -1.75 M7.7 -1.75 L7.5 0.9 7.45 4.35 7.15 7.35 7.0 7.25 7.3 1.7 7.6 -1.75 7.7 -1.75 M7.35 10.15 L7.25 13.5 7.15 16.2 6.05 25.65 6.0 25.75 5.9 25.15 5.95 24.3 7.35 10.15 M9.95 39.45 L9.9 39.5 9.4 42.05 9.35 42.05 9.4 40.15 10.25 35.4 11.35 29.65 13.05 19.0 14.8 8.25 16.3 -1.75 16.65 -1.75 9.95 39.45 M23.65 25.2 L22.0 28.15 20.85 30.4 19.7 32.2 19.65 32.1 21.6 28.6 23.65 25.2 M18.95 34.1 L17.85 36.2 16.95 37.95 13.2 43.75 13.15 43.8 13.3 43.4 13.6 42.85 Q14.2 41.7 18.95 34.1 M27.35 19.1 L40.05 -1.75 40.35 -1.75 24.2 24.9 27.35 19.1 M41.55 -1.75 L41.95 -1.75 41.45 -1.0 26.5 23.0 19.1 34.55 21.0 30.9 26.65 21.95 41.55 -1.75 M43.3 -1.75 L43.6 -1.75 43.55 -1.7 32.65 15.25 21.35 32.2 21.3 32.1 32.8 14.65 43.3 -1.75 M44.7 -1.75 L45.05 -1.75 36.8 11.25 36.35 13.3 42.5 4.15 46.4 -1.75 46.6 -1.75 43.9 2.4 43.45 4.35 42.8 6.7 45.8 2.45 48.7 -1.75 49.0 -1.75 48.6 -1.1 48.0 0.3 47.3 1.95 45.3 5.15 51.85 -1.75 52.95 -1.75 43.3 8.2 30.35 27.0 28.95 29.05 11.4 53.9 11.35 53.95 10.25 55.45 10.2 55.35 10.8 54.2 12.85 51.35 15.4 48.0 19.9 41.65 24.4 35.15 28.8 28.8 30.35 26.65 37.0 17.05 42.7 8.85 44.55 5.95 46.5 2.9 47.6 0.65 47.8 0.1 Q42.6 8.15 42.35 7.6 L42.45 6.75 33.2 20.75 30.3 24.95 23.4 34.6 23.3 34.6 10.5 54.0 10.7 53.3 13.25 49.5 16.8 44.35 22.8 35.0 29.15 25.05 34.75 16.05 35.35 14.95 Q35.15 15.1 35.4 14.6 L35.55 14.4 36.55 11.7 34.15 15.45 13.35 47.8 Q13.05 47.85 13.1 47.7 L33.7 15.5 44.7 -1.75 M43.55 2.95 L35.85 14.55 35.0 16.25 25.85 30.65 28.4 27.0 33.3 20.05 38.25 12.45 42.6 6.2 42.85 5.35 43.55 2.95" fill="#fe9292" fill-rule="evenodd" stroke="none"/>
      <path d="M7.8 10.65 L7.75 23.4 7.75 28.9 Q7.75 32.3 7.9 34.75 L8.65 39.05 8.9 40.1 9.1 41.15 9.4 42.3 9.4 42.05 9.9 39.5 9.95 39.45 11.95 28.8 13.95 17.9 15.6 7.75 16.7 1.65 17.35 -1.75 18.35 -1.75 17.95 0.15 13.45 26.35 Q11.1 40.05 9.75 44.95 L9.95 47.35 9.7 47.9 9.4 46.15 9.25 45.95 8.05 50.1 7.9 50.05 8.95 44.2 8.0 38.8 Q7.2 33.3 7.15 29.8 L7.15 16.2 7.25 13.5 7.35 10.15 7.35 7.05 7.45 4.35 7.5 0.9 7.7 -1.75 8.15 -1.75 8.0 0.95 7.95 4.95 7.8 10.65 M23.65 25.2 L24.1 24.3 26.25 20.25 30.3 12.75 32.05 9.5 32.05 9.4 33.25 7.15 38.45 -1.75 39.15 -1.75 31.4 11.6 29.7 14.5 27.35 19.1 24.2 24.9 22.3 28.35 21.0 30.9 19.1 34.55 15.05 42.8 13.25 46.35 11.6 50.2 10.7 53.3 10.5 54.0 10.25 54.75 10.1 55.6 10.25 55.45 11.35 53.95 11.4 53.9 16.1 47.7 20.8 41.2 25.1 35.15 27.7 31.55 30.35 27.95 30.3 28.8 32.1 26.75 30.35 29.2 29.05 31.0 17.8 46.55 9.5 57.45 8.85 59.05 8.55 59.35 8.9 58.05 8.9 57.85 6.8 60.25 6.75 60.15 9.3 56.75 10.35 52.9 Q11.55 49.05 12.65 46.8 L16.95 37.95 17.85 36.2 18.95 34.1 20.0 32.05 20.85 30.4 22.0 28.15 23.65 25.2 M29.65 29.6 L30.3 28.8 29.65 29.6" fill="#fc2525" fill-rule="evenodd" stroke="none"/>
      <path d="M9.3 -1.75 L10.1 -1.75 9.1 6.3 9.2 6.35 10.3 -1.75 12.05 -1.75 8.3 30.65 Q8.4 30.9 8.65 30.65 L12.55 -1.75 13.85 -1.75 12.6 8.9 10.85 24.2 9.6 32.85 8.65 39.05 7.9 34.75 Q7.75 32.3 7.75 28.9 L7.75 23.4 7.8 10.65 9.3 -1.75 M8.15 -1.75 L8.65 -1.75 7.95 4.95 8.0 0.95 8.15 -1.75 M17.35 -1.75 L16.7 1.65 15.6 7.75 13.95 17.9 11.95 28.8 9.95 39.45 16.65 -1.75 17.35 -1.75 M9.4 42.05 L9.4 42.3 9.1 41.15 8.9 40.1 Q10.15 31.95 13.05 8.1 L13.15 8.1 14.9 -1.75 16.3 -1.75 14.8 8.25 13.05 19.0 11.35 29.65 10.25 35.4 9.4 40.15 9.35 42.05 9.4 42.05 M14.4 -1.75 L13.9 1.25 14.25 -1.75 14.4 -1.75 M32.1 26.75 L30.3 28.8 30.35 27.95 27.7 31.55 25.1 35.15 20.8 41.2 16.1 47.7 11.4 53.9 28.95 29.05 30.35 27.0 43.3 8.2 52.95 -1.75 56.2 -1.75 55.25 -0.7 32.1 26.75 M39.15 -1.75 L40.05 -1.75 27.35 19.1 29.7 14.5 31.4 11.6 39.15 -1.75 M40.35 -1.75 L41.55 -1.75 26.65 21.95 21.0 30.9 22.3 28.35 24.2 24.9 40.35 -1.75 M41.95 -1.75 L43.3 -1.75 32.8 14.65 21.3 32.1 21.35 32.2 32.65 15.25 43.55 -1.7 43.6 -1.75 44.7 -1.75 33.7 15.5 13.1 47.7 Q13.05 47.85 13.35 47.8 L34.15 15.45 36.55 11.7 35.55 14.4 35.4 14.6 Q35.15 15.1 35.35 14.95 L34.75 16.05 29.15 25.05 22.8 35.0 16.8 44.35 13.25 49.5 10.7 53.3 11.6 50.2 13.25 46.35 15.05 42.8 19.1 34.55 26.5 23.0 41.45 -1.0 41.95 -1.75 M45.05 -1.75 L46.4 -1.75 42.5 4.15 36.35 13.3 36.8 11.25 45.05 -1.75 M46.6 -1.75 L48.7 -1.75 45.8 2.45 42.8 6.7 43.45 4.35 43.9 2.4 46.6 -1.75 M49.0 -1.75 L51.85 -1.75 45.3 5.15 47.3 1.95 48.0 0.3 48.6 -1.1 49.0 -1.75 M10.5 54.0 L23.3 34.6 23.4 34.6 30.3 24.95 33.2 20.75 42.45 6.75 42.35 7.6 Q42.6 8.15 47.8 0.1 L47.6 0.65 46.5 2.9 44.55 5.95 42.7 8.85 37.0 17.05 30.35 26.65 28.8 28.8 24.4 35.15 19.9 41.65 15.4 48.0 12.85 51.35 10.8 54.2 10.2 55.35 10.25 55.45 10.1 55.6 10.25 54.75 10.5 54.0 M43.55 2.95 L42.85 5.35 42.6 6.2 38.25 12.45 33.3 20.05 28.4 27.0 25.85 30.65 35.0 16.25 35.85 14.55 43.55 2.95" fill="#fd0b0b" fill-opacity="0.101960786" fill-rule="evenodd" stroke="none"/>
      <path d="M32.1 26.75 L30.3 28.8 29.65 29.6 M56.2 -1.75 L55.25 -0.7 32.1 26.75" fill="none" stroke="#fc2525" stroke-linecap="round" stroke-linejoin="round" stroke-width="2.5"/>
      <path d="M40.85 9.5 L40.85 9.85 40.55 12.0 39.45 10.45 38.9 9.85 39.1 10.55 39.5 12.5 37.7 11.85 37.6 10.9 37.6 10.75 37.35 8.65 36.4 9.9 36.3 8.2 36.15 5.25 40.7 9.35 40.85 9.5 M34.75 7.55 L35.25 9.2 35.55 10.25 35.7 10.85 35.8 11.05 35.6 10.95 34.75 10.55 34.05 10.15 Q31.15 8.6 28.85 6.65 30.6 5.9 31.95 4.85 L34.75 7.55" fill="#515f66" fill-rule="evenodd" stroke="none"/>
      <path d="M36.15 5.25 L36.3 8.2 36.4 9.9 37.35 8.65 37.6 10.75 37.6 10.9 37.7 11.85 39.5 12.5 39.1 10.55 38.9 9.85 39.45 10.45 40.55 12.0 40.85 9.85 40.85 9.5 42.15 10.85 45.55 14.65 Q44.6 15.3 43.7 15.9 40.8 17.6 36.2 20.9 L35.1 21.7 Q32.1 18.95 29.5 15.8 L23.5 7.55 28.35 6.8 28.85 6.65 Q31.15 8.6 34.05 10.15 L34.75 10.55 35.6 10.95 35.8 11.05 35.7 10.85 35.55 10.25 35.25 9.2 34.75 7.55 34.85 7.7 36.0 5.15 36.15 5.25" fill="#343946" fill-rule="evenodd" stroke="none"/>
      <path d="M23.5 7.55 L29.5 15.8 Q32.1 18.95 35.1 21.7 L36.2 20.9 Q40.8 17.6 43.7 15.9 44.6 15.3 45.55 14.65 L46.5 15.9 44.4 23.45 42.35 29.75 40.5 34.85 39.8 34.15 Q38.35 32.95 36.15 32.95 L35.15 33.0 35.05 33.2 34.6 34.6 Q31.95 30.55 28.2 30.55 26.6 30.55 25.05 31.2 24.15 31.6 23.35 32.2 21.6 33.45 20.0 35.55 L18.4 38.05 18.25 38.3 17.8 39.2 17.45 40.1 Q16.95 41.2 16.7 42.4 L16.6 42.95 16.55 43.15 16.25 45.05 16.25 45.45 16.2 45.95 16.2 46.5 16.3 48.5 16.35 48.75 16.25 49.35 16.25 49.4 15.8 52.15 15.6 52.95 14.95 55.45 13.6 59.45 -17.15 59.45 -13.3 55.85 -13.9 53.25 -14.05 51.25 -13.95 48.9 -13.85 48.35 -13.6 47.05 -13.4 47.0 -13.15 46.7 -13.1 46.55 -13.0 46.1 -13.1 45.8 -13.15 45.9 -12.4 43.85 -11.95 43.05 Q-12.65 41.45 -14.3 40.05 -15.65 38.85 -16.9 38.3 L-16.8 37.85 -13.25 36.85 -12.5 36.7 -10.8 36.35 -11.1 35.65 -9.0 36.1 -6.2 36.9 -6.0 36.95 -6.75 32.65 -6.85 32.1 -7.65 28.4 -7.4 28.05 -7.05 27.6 Q-6.0 28.75 -5.0 30.2 -3.6 32.4 -2.3 35.05 L-1.45 32.4 -2.1 30.15 -2.85 27.65 -4.7 22.3 -4.6 21.95 Q-3.05 23.5 -1.5 25.65 L0.3 28.65 1.8 26.45 0.35 24.3 -1.4 22.3 Q-2.95 20.65 -4.2 19.75 L-4.1 17.6 Q-4.1 14.15 -5.05 11.15 L-5.65 9.55 -0.3 9.55 6.55 9.45 10.2 10.9 12.05 11.65 14.85 12.55 12.7 10.9 12.2 10.5 9.6 8.4 10.1 5.8 Q10.6 3.9 11.3 2.5 L11.3 2.45 11.7 2.8 12.7 5.15 14.7 8.5 17.35 12.45 17.9 12.65 18.2 12.75 19.9 13.35 19.45 12.65 18.65 11.25 17.3 8.35 19.1 10.4 20.3 11.55 Q19.75 9.35 19.6 7.25 L22.8 7.55 23.5 7.55 M13.0 36.5 L13.4 34.15 Q12.05 32.4 9.95 30.55 L7.25 28.55 9.05 34.25 11.7 35.8 13.0 36.5 M15.35 38.0 L13.55 37.15 12.95 36.9 9.3 34.95 8.25 34.25 8.0 33.5 7.2 30.85 6.65 29.0 6.4 28.05 6.35 27.85 6.1 27.2 6.0 27.85 5.9 28.35 5.85 28.45 5.2 32.1 4.4 37.55 4.35 38.05 5.45 38.15 9.05 38.25 12.7 38.35 15.55 38.4 16.3 38.4 15.35 38.0 M2.05 39.4 L1.9 38.3 1.5 35.15 1.2 37.4 1.05 39.45 1.05 39.7 1.05 40.4 1.1 41.5 2.65 42.5 2.05 39.4 M4.4 27.1 L4.0 27.75 Q2.6 30.2 1.9 33.25 1.9 35.25 2.4 37.5 2.9 39.85 3.85 42.35 L4.35 43.5 5.5 44.15 6.55 44.6 6.2 43.85 7.6 44.55 11.9 46.85 15.5 45.7 15.35 43.5 12.3 45.05 11.85 42.2 12.6 38.85 9.45 38.75 5.4 38.65 3.9 38.6 4.05 37.5 4.35 34.35 Q4.85 29.8 5.35 27.55 L4.4 27.1 M8.15 45.4 L7.4 45.05 6.9 44.8 7.95 46.3 12.35 53.4 12.65 53.85 13.05 52.75 14.6 48.4 14.75 47.95 15.25 46.35 15.35 46.05 15.15 46.1 14.55 46.35 13.85 46.6 12.45 47.15 12.4 47.15 11.95 47.35 11.35 47.05 11.2 46.95 9.6 46.15 Q8.75 45.7 8.15 45.4 M-13.95 48.9 L-13.4 47.0 -13.95 48.9 M-12.2 47.55 L-9.6 49.75 -7.05 51.5 -6.5 51.8 -4.8 52.7 -5.8 51.15 -7.05 49.4 -8.0 47.9 -7.05 48.6 -5.45 49.7 -7.05 45.8 -9.0 41.05 Q-10.4 43.25 -11.9 46.8 L-12.2 47.55" fill="#414551" fill-rule="evenodd" stroke="none"/>
      <path d="M-16.8 37.85 Q-16.45 36.3 -15.4 35.1 -14.65 34.2 -13.4 33.25 L-10.9 31.6 -10.1 31.0 -7.65 28.4 -6.85 32.1 -6.75 32.65 -6.0 36.95 -6.2 36.9 -9.0 36.1 -11.1 35.65 -10.8 36.35 -12.5 36.7 -13.25 36.85 -16.8 37.85 M-7.05 27.6 Q-5.4 25.1 -4.7 22.3 L-2.85 27.65 -2.1 30.15 -1.45 32.4 -2.3 35.05 Q-3.6 32.4 -5.0 30.2 -6.0 28.75 -7.05 27.6 M-4.6 21.95 L-4.2 19.75 Q-2.95 20.65 -1.4 22.3 L0.35 24.3 1.8 26.45 0.3 28.65 -1.5 25.65 Q-3.05 23.5 -4.6 21.95 M6.55 9.45 L8.55 9.3 9.45 9.25 9.6 8.4 12.2 10.5 12.7 10.9 14.85 12.55 12.05 11.65 10.2 10.9 6.55 9.45 M11.7 2.8 Q13.95 5.15 16.9 6.4 L19.6 7.25 Q19.75 9.35 20.3 11.55 L19.1 10.4 17.3 8.35 18.65 11.25 19.45 12.65 19.9 13.35 18.2 12.75 17.9 12.65 17.35 12.45 14.7 8.5 12.7 5.15 11.7 2.8 M13.0 36.5 L11.7 35.8 9.05 34.25 7.25 28.55 9.95 30.55 Q12.05 32.4 13.4 34.15 L13.0 36.5 M4.4 27.1 L5.35 27.55 Q4.85 29.8 4.35 34.35 L4.05 37.5 3.9 38.6 5.4 38.65 9.45 38.75 12.6 38.85 11.85 42.2 12.3 45.05 15.35 43.5 15.5 45.7 11.9 46.85 7.6 44.55 6.2 43.85 6.55 44.6 5.5 44.15 4.35 43.5 3.85 42.35 Q2.9 39.85 2.4 37.5 1.9 35.25 1.9 33.25 2.6 30.2 4.0 27.75 L4.4 27.1 M2.05 39.4 L2.65 42.5 1.1 41.5 1.05 40.4 1.05 39.7 1.05 39.45 1.2 37.4 1.5 35.15 1.9 38.3 2.05 39.4 M-12.2 47.55 L-11.9 46.8 Q-10.4 43.25 -9.0 41.05 L-7.05 45.8 -5.45 49.7 -7.05 48.6 -8.0 47.9 -7.05 49.4 -5.8 51.15 -4.8 52.7 -6.5 51.8 -7.05 51.5 -9.6 49.75 -12.2 47.55" fill="#7a8388" fill-rule="evenodd" stroke="none"/>
      <path d="M15.55 38.4 L12.7 38.35 9.05 38.25 5.45 38.15 4.35 38.05 4.4 37.55 5.2 32.1 5.85 28.45 5.9 28.35 6.0 27.85 6.1 27.2 6.35 27.85 6.4 28.05 6.65 29.0 7.2 30.85 8.0 33.5 8.25 34.25 9.3 34.95 12.95 36.9 13.55 37.15 15.35 38.0 14.4 37.95 13.0 37.45 Q10.3 36.4 7.75 35.0 L7.05 32.8 6.4 30.35 Q5.75 34.3 5.5 37.6 L10.8 37.8 14.4 37.95 15.55 38.4 M10.1 47.35 L9.15 46.9 11.15 50.0 12.75 52.25 14.45 46.8 11.75 48.05 10.1 47.35 M8.15 45.4 Q8.75 45.7 9.6 46.15 L11.2 46.95 11.35 47.05 11.95 47.35 12.4 47.15 12.45 47.15 13.85 46.6 14.55 46.35 15.15 46.1 15.35 46.05 15.25 46.35 14.75 47.95 14.6 48.4 13.05 52.75 12.65 53.85 12.35 53.4 7.95 46.3 6.9 44.8 7.4 45.05 8.15 45.4" fill="#72ebff" fill-rule="evenodd" stroke="none"/>
      <path d="M15.55 38.4 L14.4 37.95 10.8 37.8 5.5 37.6 Q5.75 34.3 6.4 30.35 L7.05 32.8 7.75 35.0 Q10.3 36.4 13.0 37.45 L14.4 37.95 15.35 38.0 16.3 38.4 15.55 38.4 M10.1 47.35 L11.75 48.05 14.45 46.8 12.75 52.25 11.15 50.0 9.15 46.9 10.1 47.35" fill="#14dfff" fill-rule="evenodd" stroke="none"/>
      <path d="M34.6 34.6 L34.35 36.15 33.85 36.3 30.3 37.7 29.65 38.0 29.05 37.75 28.85 37.65 27.3 36.5 26.45 35.5 Q25.3 33.7 25.05 31.2 26.6 30.55 28.2 30.55 31.95 30.55 34.6 34.6 M34.25 37.25 L34.15 38.05 31.85 38.4 31.6 38.4 31.35 38.4 Q32.75 37.75 34.25 37.25 M34.1 39.35 L34.1 39.95 34.1 40.2 Q34.1 41.95 34.4 43.75 L33.35 43.9 33.25 43.9 32.9 43.95 31.75 42.85 Q29.95 41.4 27.85 40.25 L28.1 40.15 Q28.35 39.95 28.65 39.8 L28.85 39.7 29.8 39.2 30.75 39.35 32.05 39.35 33.1 39.35 34.1 39.35 M38.85 54.6 L39.5 55.4 39.85 55.9 Q41.0 57.3 42.15 59.45 L41.05 59.45 40.3 59.3 39.2 58.5 38.15 57.75 37.45 56.25 38.85 54.6 M28.95 59.45 L19.3 59.45 21.0 57.3 23.3 54.95 24.6 55.7 28.95 59.45 M16.55 59.45 L13.6 59.45 14.95 55.45 15.6 52.95 15.8 52.15 16.25 49.4 16.25 49.35 16.35 48.75 16.3 48.5 16.2 46.5 16.2 45.95 16.25 45.45 16.25 45.05 16.55 43.15 16.6 42.95 16.7 42.4 Q16.95 41.2 17.45 40.1 L18.1 41.05 18.2 41.25 18.75 41.9 17.9 42.35 Q17.75 43.45 17.75 45.0 L17.7 47.4 Q17.7 49.2 18.05 51.95 L18.15 52.7 18.95 56.7 16.55 59.45 M18.25 38.3 L18.4 38.05 20.0 35.55 Q21.6 33.45 23.35 32.2 23.7 34.65 25.1 36.4 L26.1 37.4 Q27.05 38.2 28.25 38.7 L27.15 39.3 26.6 39.65 26.55 39.6 26.3 39.5 25.85 39.55 Q23.75 39.9 21.8 40.65 L20.35 41.2 19.5 40.25 18.75 39.2 18.6 39.0 18.25 38.3" fill="#868a9f" fill-rule="evenodd" stroke="none"/>
      <path d="M34.15 38.05 L34.1 39.35 33.1 39.35 32.05 39.35 30.75 39.35 29.8 39.2 30.6 38.75 31.35 38.4 31.6 38.4 31.85 38.4 34.15 38.05 M34.4 43.75 L34.65 45.45 34.5 45.5 34.45 45.5 32.9 43.95 33.25 43.9 33.35 43.9 34.4 43.75 M41.05 59.45 L38.95 59.45 38.8 59.1 39.15 59.15 39.7 59.2 40.3 59.3 41.05 59.45 M19.3 59.45 L16.55 59.45 18.95 56.7 19.85 55.75 21.85 54.05 23.3 54.95 21.0 57.3 19.3 59.45 M17.45 40.1 L17.8 39.2 18.25 38.3 18.6 39.0 18.75 39.2 19.5 40.25 20.35 41.2 18.75 41.9 18.2 41.25 18.1 41.05 17.45 40.1 M23.35 32.2 Q24.15 31.6 25.05 31.2 25.3 33.7 26.45 35.5 L27.3 36.5 28.85 37.65 29.05 37.75 29.65 38.0 28.25 38.7 Q27.05 38.2 26.1 37.4 L25.1 36.4 Q23.7 34.65 23.35 32.2" fill="#697283" fill-rule="evenodd" stroke="none"/>
      <path d="M34.65 45.45 L34.8 45.95 34.8 46.0 Q35.3 48.0 36.15 50.05 L33.65 49.7 29.85 50.15 Q27.45 50.65 25.15 51.9 24.05 50.3 24.05 48.0 24.05 46.8 24.45 45.55 L28.7 46.1 29.4 46.1 34.45 45.5 34.5 45.5 34.65 45.45 M36.6 50.9 L37.2 52.05 38.85 54.6 37.45 56.25 38.15 57.75 38.25 57.9 37.35 57.25 36.9 56.9 35.6 56.15 34.05 55.65 Q28.55 54.9 26.25 53.1 L26.05 52.85 Q27.9 51.7 30.0 51.1 L34.1 50.55 36.6 50.9 M35.3 59.45 L28.95 59.45 24.6 55.7 23.3 54.95 25.15 53.5 25.4 53.6 Q27.5 54.65 33.75 57.05 L35.2 58.0 36.45 59.25 35.3 59.45 M18.75 41.9 L19.75 42.95 22.7 44.9 Q22.05 46.35 22.05 47.55 22.05 50.85 23.9 52.6 22.85 53.25 21.85 54.05 L18.05 51.95 Q17.7 49.2 17.7 47.4 L17.75 45.0 Q17.75 43.45 17.9 42.35 L18.75 41.9 M23.55 43.2 L21.7 42.3 20.35 41.2 21.8 40.65 Q23.75 39.9 25.85 39.55 L26.3 39.5 26.55 39.6 26.6 39.65 Q25.3 40.5 23.8 42.7 L23.55 43.2 M25.2 43.65 L25.75 42.7 Q26.8 41.05 27.85 40.25 29.95 41.4 31.75 42.85 L32.9 43.95 30.55 44.1 29.2 44.1 25.2 43.65" fill="#d5d5d3" fill-rule="evenodd" stroke="none"/>
      <path d="M36.15 50.05 L36.6 50.9 34.1 50.55 30.0 51.1 Q27.9 51.7 26.05 52.85 L25.15 51.9 Q27.45 50.65 29.85 50.15 L33.65 49.7 36.15 50.05 M36.65 59.45 L35.3 59.45 36.45 59.25 36.65 59.45 M22.7 44.9 L19.75 42.95 18.75 41.9 20.35 41.2 21.7 42.3 23.55 43.2 22.7 44.9 M28.25 38.7 L29.65 38.0 30.45 38.25 31.35 38.4 30.6 38.75 29.8 39.2 29.0 38.95 28.8 38.9 28.25 38.7 M25.2 43.65 L29.2 44.1 30.55 44.1 32.9 43.95 34.45 45.5 29.4 46.1 28.7 46.1 24.45 45.55 25.2 43.65 M25.15 53.5 L23.3 54.95 21.85 54.05 Q22.85 53.25 23.9 52.6 L25.15 53.5 M38.25 57.9 L38.15 57.75 39.2 58.5 40.3 59.3 39.7 59.2 39.15 59.15 38.8 59.1 38.25 57.9" fill="#959ba6" fill-rule="evenodd" stroke="none"/>
      <path d="M34.35 36.15 L34.25 37.25 Q32.75 37.75 31.35 38.4 L30.45 38.25 29.65 38.0 30.3 37.7 33.85 36.3 34.35 36.15 M28.25 38.7 L28.8 38.9 29.0 38.95 29.8 39.2 28.85 39.7 28.65 39.8 Q28.35 39.95 28.1 40.15 L27.85 40.25 26.6 39.65 27.15 39.3 28.25 38.7" fill="#aeb1bf" fill-rule="evenodd" stroke="none"/>
      <path d="M26.6 39.65 L27.85 40.25 Q26.8 41.05 25.75 42.7 L25.2 43.65 23.55 43.2 23.8 42.7 Q25.3 40.5 26.6 39.65 M23.9 52.6 Q22.05 50.85 22.05 47.55 22.05 46.35 22.7 44.9 L24.45 45.55 Q24.05 46.8 24.05 48.0 24.05 50.3 25.15 51.9 24.5 52.2 23.9 52.6 M36.45 59.25 L35.2 58.0 33.75 57.05 Q27.5 54.65 25.4 53.6 L25.15 53.5 26.05 52.85 26.25 53.1 Q28.55 54.9 34.05 55.65 L35.6 56.15 36.9 56.9 37.35 57.25 38.25 57.9 38.8 59.1 38.4 59.1 36.45 59.25" fill="#ffffff" fill-rule="evenodd" stroke="none"/>
      <path d="M38.95 59.45 L36.65 59.45 36.45 59.25 38.4 59.1 38.8 59.1 38.95 59.45 M22.7 44.9 L23.55 43.2 25.2 43.65 24.45 45.55 22.7 44.9 M23.9 52.6 Q24.5 52.2 25.15 51.9 L26.05 52.85 25.15 53.5 23.9 52.6" fill="#bfc3c9" fill-rule="evenodd" stroke="none"/>
      <path d="M21.85 54.05 L19.85 55.75 18.95 56.7 18.15 52.7 18.05 51.95 21.85 54.05" fill="#a4a6af" fill-rule="evenodd" stroke="none"/>
      <path d="M40.85 9.5 L40.7 9.35 36.15 5.25 36.0 5.15 34.85 7.7 34.75 7.55 31.95 4.85 Q30.6 5.9 28.85 6.65 L28.35 6.8 23.5 7.55 22.8 7.55 19.6 7.25 16.9 6.4 Q13.95 5.15 11.7 2.8 L11.3 2.45 11.3 2.5 Q10.6 3.9 10.1 5.8 L9.6 8.4 9.45 9.25 8.55 9.3 6.55 9.45 -0.3 9.55 -5.65 9.55 -5.05 11.15 Q-4.1 14.15 -4.1 17.6 L-4.2 19.75 -4.6 21.95 -4.7 22.3 Q-5.4 25.1 -7.05 27.6 L-7.4 28.05 -7.65 28.4 -10.1 31.0 -10.9 31.6 -13.4 33.25 Q-14.65 34.2 -15.4 35.1 -16.45 36.3 -16.8 37.85 L-16.9 38.3 Q-15.65 38.85 -14.3 40.05 -12.65 41.45 -11.95 43.05 L-12.4 43.85 -13.15 45.9 -13.4 47.0 -13.95 48.9 -13.85 48.35 M45.55 14.65 L42.15 10.85 40.85 9.5 M45.55 14.65 L46.5 15.9 44.4 23.45 42.35 29.75 40.5 34.85 M-17.15 59.45 L-13.3 55.85 -13.9 53.25 -14.05 51.25 -13.95 48.9" fill="none" stroke="#262b38" stroke-linecap="round" stroke-linejoin="round" stroke-width="1.0"/>
      <path d="M40.5 34.85 L39.8 34.15 Q38.35 32.95 36.15 32.95 L35.15 33.0 35.05 33.2 34.6 34.6 34.35 36.15 34.25 37.25 34.15 38.05 34.1 39.35 34.1 39.95 34.1 40.2 Q34.1 41.95 34.4 43.75 L34.65 45.45 34.8 45.95 34.8 46.0 Q35.3 48.0 36.15 50.05 L36.6 50.9 37.2 52.05 38.85 54.6 39.5 55.4 39.85 55.9 Q41.0 57.3 42.15 59.45" fill="none" stroke="#59636d" stroke-linecap="round" stroke-linejoin="round" stroke-width="1.0"/>
      <path d="M51.75 60.95 L52.4 59.2 53.75 55.85 55.35 51.65 56.0 49.75 56.9 47.1 57.1 46.55 57.1 46.5 57.3 45.95 59.2 45.25 58.15 42.4 57.2 42.45 56.45 42.6 56.9 45.1 57.0 45.3 56.95 45.35 56.95 45.4 56.65 46.05 56.6 46.1 56.6 46.15 56.2 47.25 54.75 50.85 53.15 55.0 52.55 56.6 52.05 57.85 50.75 60.95 50.3 60.95 51.6 57.8 51.65 57.75 51.85 57.25 52.9 54.6 54.55 50.55 55.25 48.6 55.95 46.7 56.25 45.8 56.4 45.35 55.25 41.15 58.7 41.1 60.9 45.5 57.5 46.6 57.4 46.85 57.15 47.5 57.05 47.75 55.5 51.9 53.95 56.1 53.3 57.75 53.25 57.8 52.55 59.6 52.05 60.95 51.75 60.95 M11.0 60.95 L8.95 60.95 8.8 60.45 11.0 60.95 M-10.85 60.95 L-11.65 60.95 -17.1 56.45 -17.1 56.2 -15.5 57.55 -10.85 60.95 M-14.95 60.95 L-15.8 60.95 -17.1 59.75 -17.1 59.0 -15.1 60.85 -14.95 60.95 M44.3 60.95 L44.7 60.6 47.35 58.6 47.5 60.25 47.55 60.95 44.3 60.95" fill="#d94007" fill-rule="evenodd" stroke="none"/>
      <path d="M50.75 60.95 L52.05 57.85 52.55 56.6 53.15 55.0 54.75 50.85 56.2 47.25 56.6 46.15 56.6 46.1 56.65 46.05 56.95 45.4 56.95 45.35 57.0 45.3 56.9 45.1 56.45 42.6 57.2 42.45 58.15 42.4 59.2 45.25 57.3 45.95 57.1 46.5 57.1 46.55 56.9 47.1 56.0 49.75 55.35 51.65 53.75 55.85 52.4 59.2 51.75 60.95 50.75 60.95 M-11.65 60.95 L-14.95 60.95 -15.1 60.85 -17.1 59.0 -17.1 56.45 -11.65 60.95" fill="#fa4e10" fill-rule="evenodd" stroke="none"/>
      <path d="M52.05 60.95 L52.55 59.6 53.25 57.8 53.3 57.75 53.95 56.1 55.5 51.9 57.05 47.75 57.15 47.5 57.4 46.85 57.5 46.6 60.9 45.5 58.7 41.1 55.25 41.15 56.4 45.35 56.25 45.8 55.95 46.7 55.25 48.6 54.55 50.55 52.9 54.6 51.85 57.25 51.65 57.75 51.6 57.8 50.3 60.95 47.55 60.95 47.5 60.25 47.35 58.6 44.7 60.6 44.3 60.95 41.2 60.95 41.1 59.0 41.0 58.8 40.8 58.5 40.4 57.8 39.6 56.5 39.15 55.8 39.25 55.7 39.35 55.65 45.0 49.8 45.05 49.7 49.3 45.05 51.45 42.65 50.9 41.35 Q49.8 39.05 48.4 37.8 L59.15 38.55 60.2 38.7 61.6 38.95 62.2 39.1 62.35 39.15 63.25 39.35 63.45 39.45 62.95 40.95 60.15 49.45 59.9 49.3 59.8 49.2 57.6 55.05 56.15 58.5 55.9 59.05 55.4 60.2 55.05 60.95 52.05 60.95 M59.8 49.2 L60.15 48.4 59.8 49.2 M60.25 48.1 L61.05 45.8 61.25 45.25 62.65 41.2 63.25 39.35 62.65 41.2 61.25 45.25 61.05 45.8 60.25 48.1 M-8.0 38.3 L-2.0 45.85 -0.5 47.8 1.7 50.6 3.4 52.75 4.4 54.15 5.3 55.25 7.8 58.4 8.95 59.8 12.3 60.5 14.4 60.95 11.0 60.95 8.8 60.45 8.95 60.95 2.15 60.95 0.0 58.15 -2.45 51.9 -3.4 49.65 -3.55 49.35 -5.65 44.55 Q-7.6 40.35 -9.05 37.7 L-8.0 38.3 M43.15 55.8 L42.6 55.9 40.4 56.3 42.6 57.45 42.45 60.85 47.95 56.9 47.15 55.1 43.15 55.8" fill="#e09300" fill-rule="evenodd" stroke="none"/>
      <path d="M10.6 49.05 L4.65 47.7 -0.65 46.25 -5.6 39.55 Q-0.7 42.2 7.8 47.35 L10.6 49.05 M12.3 60.5 L10.25 58.6 21.05 59.7 26.65 60.4 27.15 60.95 14.4 60.95 12.3 60.5 M21.8 55.8 L15.65 55.05 5.25 53.2 2.5 50.05 0.9 48.1 13.6 50.85 21.8 55.8 M2.15 60.95 L-9.8 60.95 Q-13.6 58.25 -17.05 55.15 L-14.35 54.65 -11.75 54.1 -8.25 53.35 Q-3.4 56.7 0.2 58.8 L0.0 58.15 2.15 60.95 M-17.1 51.4 L-17.1 48.1 -16.85 48.15 -15.0 48.45 -11.65 50.95 -17.1 51.4 M-17.1 47.1 L-17.1 46.85 -16.7 47.15 -17.1 47.1 M43.15 55.8 L47.15 55.1 47.95 56.9 42.45 60.85 42.6 57.45 40.4 56.3 42.6 55.9 43.15 55.8" fill="#ffee00" fill-rule="evenodd" stroke="none"/>
      <path d="M-5.6 39.55 L-0.65 46.25 4.65 47.7 10.6 49.05 13.6 50.85 0.9 48.1 2.5 50.05 5.25 53.2 15.65 55.05 21.8 55.8 22.25 56.05 22.85 56.75 24.0 57.8 26.65 60.4 21.05 59.7 10.25 58.6 12.3 60.5 8.95 59.8 7.8 58.4 5.3 55.25 4.4 54.15 3.4 52.75 1.7 50.6 -0.5 47.8 -2.0 45.85 -8.0 38.3 -5.6 39.55 M-9.8 60.95 L-10.85 60.95 -15.5 57.55 -17.1 56.2 -17.1 51.4 -11.65 50.95 -11.2 51.25 -8.25 53.35 -11.75 54.1 -14.35 54.65 -17.05 55.15 Q-13.6 58.25 -9.8 60.95 M-17.1 48.1 L-17.1 47.1 -16.7 47.15 -15.0 48.45 -16.85 48.15 -17.1 48.1" fill="#fffcec" fill-rule="evenodd" stroke="none"/>
      <path d="M-15.8 60.95 L-17.1 60.95 -17.1 59.75 -15.8 60.95" fill="#ffb600" fill-rule="evenodd" stroke="none"/>
      <path d="M82.15 52.65 L82.75 53.0" fill="none" stroke="#984009" stroke-linecap="round" stroke-linejoin="round" stroke-width="0.1"/>
      <path d="M41.2 60.95 L41.1 59.0 41.0 58.8 40.8 58.5 40.4 57.8 39.6 56.5 39.15 55.8 39.25 55.7 39.35 55.65 45.0 49.8 45.05 49.7 49.3 45.05 51.45 42.65 50.9 41.35 Q49.8 39.05 48.4 37.8 L59.15 38.55 60.2 38.7 61.6 38.95 62.2 39.1 62.35 39.15 63.25 39.3 63.25 39.35 62.65 41.2 61.25 45.25 61.05 45.8 60.25 48.1 M59.8 49.2 L57.6 55.05 56.15 58.5 55.9 59.05 55.4 60.2 55.05 60.95 M60.15 48.4 L59.8 49.2 M10.6 49.05 L7.8 47.35 Q-0.7 42.2 -5.6 39.55 L-8.0 38.3 -9.05 37.7 Q-7.6 40.35 -5.65 44.55 L-3.55 49.35 -3.4 49.65 -2.45 51.9 0.0 58.15 0.2 58.8 Q-3.4 56.7 -8.25 53.35 L-11.2 51.25 -11.65 50.95 -15.0 48.45 -16.7 47.15 -17.1 46.85 M26.65 60.4 L24.0 57.8 22.85 56.75 22.25 56.05 21.8 55.8 13.6 50.85 10.6 49.05 M26.65 60.4 L27.15 60.95" fill="none" stroke="#984009" stroke-linecap="round" stroke-linejoin="round" stroke-width="1.0"/>
      <path d="M45.45 33.2 L45.4 33.2 44.95 33.5 44.55 33.8 43.1 34.75 43.05 38.45 42.45 37.95 42.1 37.55 39.65 35.1 36.85 31.75 35.55 30.2 33.85 28.0 33.8 27.1 33.8 26.7 33.75 24.05 33.75 22.15 33.8 21.2 Q38.6 24.15 43.2 29.65 L44.55 31.25 44.9 31.7 45.45 32.35 45.8 32.95 45.45 33.2 M42.05 35.3 L41.7 33.6 44.3 32.1 41.8 29.65 39.6 29.6 37.4 29.4 35.95 26.8 34.95 25.0 35.05 25.8 35.45 28.75 35.7 29.05 35.95 29.3 38.85 32.4 42.05 35.3" fill="#414551" fill-rule="evenodd" stroke="none"/>
      <path d="M42.05 35.3 L38.85 32.4 35.95 29.3 35.7 29.05 35.45 28.75 35.05 25.8 34.95 25.0 35.95 26.8 37.4 29.4 39.6 29.6 41.8 29.65 44.3 32.1 41.7 33.6 42.05 35.3" fill="#7a8388" fill-rule="evenodd" stroke="none"/>
      <path d="M43.3 27.9 L44.45 29.1 44.15 29.05 44.25 29.2 41.25 28.9 38.35 28.55 37.95 28.5 37.35 28.45 37.35 28.4 37.2 27.95 36.25 24.4 36.2 24.25 35.85 23.05 34.55 18.65 Q36.6 20.25 41.3 25.7 L43.3 27.9 M39.75 27.2 L36.8 23.95 37.9 28.05 40.75 28.3 39.75 27.2" fill="#10fff7" fill-rule="evenodd" stroke="none"/>
      <path d="M39.75 27.2 L40.75 28.3 37.9 28.05 36.8 23.95 39.75 27.2" fill="#14dfff" fill-rule="evenodd" stroke="none"/>
      <path d="M31.1 -1.75 L31.15 -1.1 30.65 -1.45 30.2 -1.75 31.1 -1.75 M31.15 -1.1 L31.75 -1.75 36.8 -1.75 36.9 -0.15 36.9 0.05 37.0 1.55 38.3 0.65 39.95 -0.5 41.65 -0.15 42.85 0.1 44.5 4.15 45.8 7.25 46.65 9.25 49.65 13.1 50.1 13.7 51.25 15.15 54.35 19.25 54.35 24.65 53.6 24.25 51.4 29.65 50.05 32.85 49.65 33.7 48.85 35.35 46.4 31.8 45.7 31.0 44.55 29.6 Q39.45 23.75 33.25 20.15 L33.15 23.4 33.1 23.35 32.15 22.4 30.0 20.2 26.1 18.45 22.2 16.6 23.2 16.85 21.0 2.05 22.65 5.35 23.2 6.5 25.1 10.2 25.25 10.45 27.05 14.15 28.3 16.5 30.5 16.85 32.05 17.1 32.3 17.15 33.3 17.35 34.95 18.85 40.4 23.9 41.5 24.95 47.35 30.3 47.1 28.45 47.05 27.7 46.8 27.3 46.6 27.05 42.85 22.5 42.3 21.85 39.45 18.4 37.85 16.45 34.3 12.2 35.2 12.6 35.45 12.65 36.25 12.95 38.7 13.6 39.1 13.7 39.9 13.85 43.75 14.0 43.9 12.65 Q43.9 11.25 43.4 9.55 L43.15 8.8 Q40.3 6.1 37.35 3.65 L37.25 3.55 37.1 3.45 35.85 2.45 35.5 2.15 34.1 1.05 32.8 0.05 Q32.35 -0.25 32.0 -0.5 L31.15 -1.1 M44.55 33.75 L44.85 34.55 44.45 34.8 43.65 35.35 44.0 39.2 42.3 38.2 42.25 38.05 42.05 37.55 42.45 37.9 43.05 38.45 43.1 34.7 44.55 33.75 M49.35 47.45 L49.2 52.05 49.05 56.1 47.85 52.6 46.2 48.1 Q43.4 45.4 38.55 41.6 L35.5 39.25 Q32.25 36.75 30.3 35.5 L30.3 32.9 27.75 33.35 24.7 33.95 24.55 34.0 24.7 29.9 31.2 28.4 31.8 32.15 31.8 32.35 32.55 33.0 35.4 35.5 37.8 37.65 38.65 38.35 42.2 41.45 44.5 43.4 46.7 45.2 49.35 47.45 M14.45 42.05 L14.25 42.2 13.45 42.85 14.6 37.3 15.55 32.7 15.6 32.45 Q8.45 26.7 -3.25 18.35 L-8.9 14.2 -14.3 10.2 -16.95 8.3 -27.6 0.45 -27.25 0.55 Q-19.2 4.85 -13.7 8.0 L-12.9 8.45 -10.1 10.05 -3.65 13.65 0.55 16.0 2.0 16.75 11.65 27.1 11.95 27.5 17.4 32.7 18.5 33.7 Q17.45 28.15 17.1 24.75 L19.7 25.95 22.3 27.1 19.8 31.9 18.7 33.95 18.6 34.25 14.45 42.05 M45.2 17.3 L43.45 17.0 43.15 16.95 38.45 16.5 40.95 19.6 43.0 22.1 44.5 18.95 45.2 17.3 M50.25 23.2 Q48.85 23.2 48.2 23.95 47.55 24.6 47.55 26.0 47.55 26.75 47.85 27.4 L49.5 27.6 50.1 25.9 50.75 24.0 51.0 23.3 50.25 23.2 M15.15 23.9 L15.15 23.8 15.0 23.2 15.4 23.05 15.85 22.9 16.95 22.6 18.3 22.2 20.4 21.7 22.15 21.25 20.65 20.9 15.65 19.7 6.8 17.85 6.05 17.75 4.5 17.5 5.35 18.4 5.85 18.9 4.65 18.25 3.65 17.7 3.05 17.1 5.15 17.3 6.6 17.5 13.9 18.6 23.0 20.4 25.3 20.95 21.55 21.95 19.0 22.65 17.0 23.3 16.4 23.45 15.95 23.6 16.1 24.3 15.8 24.2 15.25 23.85 15.15 23.9" fill="#e09300" fill-rule="evenodd" stroke="none"/>
      <path d="M31.15 -1.1 L31.1 -1.75 31.75 -1.75 31.15 -1.1 M42.85 0.1 L41.65 -0.15 39.95 -0.5 38.3 0.65 37.0 1.55 36.9 0.05 36.9 -0.15 36.8 -1.75 37.1 -1.75 37.15 -0.5 37.2 0.8 37.75 0.4 38.25 0.05 39.8 -1.05 42.7 -0.25 42.4 -0.95 43.75 -0.55 44.05 0.1 42.7 -0.25 42.85 0.1 M3.65 17.7 L4.1 18.15 10.25 24.5 10.6 24.85 Q14.45 28.75 16.85 30.85 L17.65 31.55 17.2 29.6 16.1 24.3 17.1 24.75 Q17.45 28.15 18.5 33.7 L17.4 32.7 11.95 27.5 11.65 27.1 2.0 16.75 2.5 17.05 3.65 17.7" fill="#ffb600" fill-rule="evenodd" stroke="none"/>
      <path d="M39.1 -1.75 L38.2 -0.85 37.5 -0.1 37.45 -0.8 37.45 -1.75 38.1 -1.75 38.15 -1.45 38.5 -1.75 39.1 -1.75 M42.4 -0.95 L41.8 -1.1 40.4 -1.5 39.5 -1.75 42.7 -1.75 44.5 -1.35 43.85 -1.75 45.05 -1.75 45.7 -1.25 46.05 -1.0 48.45 0.9 47.35 0.55 43.75 -0.55 42.4 -0.95 M5.85 18.9 L5.35 18.4 4.5 17.5 6.05 17.75 6.8 17.85 15.65 19.7 20.65 20.9 22.15 21.25 20.4 21.7 18.3 22.2 16.95 22.6 15.85 22.9 15.4 23.05 15.0 23.2 15.15 23.8 15.15 23.9 15.95 26.75 16.65 29.05 16.95 29.85 16.35 29.35 9.05 22.3 8.35 21.55 5.85 18.9 M9.0 19.15 L7.25 18.75 6.75 18.65 7.75 19.75 13.2 25.65 16.1 28.5 15.3 25.95 14.4 22.4 16.75 21.8 18.85 21.3 13.15 20.0 9.0 19.15" fill="#d94007" fill-rule="evenodd" stroke="none"/>
      <path d="M42.7 -0.25 L39.8 -1.05 38.25 0.05 37.75 0.4 37.2 0.8 37.15 -0.5 37.1 -1.75 37.45 -1.75 37.45 -0.8 37.5 -0.1 38.2 -0.85 39.1 -1.75 39.5 -1.75 40.4 -1.5 41.8 -1.1 42.4 -0.95 42.7 -0.25 M5.85 18.9 L8.35 21.55 9.05 22.3 16.35 29.35 16.95 29.85 16.65 29.05 15.95 26.75 15.15 23.9 15.25 23.85 15.8 24.2 16.1 24.3 17.2 29.6 17.65 31.55 16.85 30.85 Q14.45 28.75 10.6 24.85 L10.25 24.5 4.1 18.15 3.65 17.7 4.65 18.25 5.85 18.9" fill="#bd5300" fill-rule="evenodd" stroke="none"/>
      <path d="M38.5 -1.75 L38.15 -1.45 38.1 -1.75 38.5 -1.75 M43.85 -1.75 L44.5 -1.35 42.7 -1.75 43.85 -1.75 M9.0 19.15 L13.15 20.0 18.85 21.3 16.75 21.8 14.4 22.4 15.3 25.95 16.1 28.5 13.2 25.65 7.75 19.75 6.75 18.65 7.25 18.75 9.0 19.15" fill="#fa4e10" fill-rule="evenodd" stroke="none"/>
      <path d="M43.75 -0.55 L47.35 0.55 48.45 0.9 46.05 -1.0 45.7 -1.25 45.05 -1.75 46.0 -1.75 47.55 -0.6 51.1 2.1 44.05 0.1 43.75 -0.55" fill="#db9000" fill-rule="evenodd" stroke="none"/>
      <path d="M44.05 0.1 L51.1 2.1 47.55 -0.6 46.0 -1.75 52.45 -1.75 54.35 2.3 54.35 7.0 53.6 6.65 49.4 4.3 44.55 1.25 44.25 0.65 44.2 0.45 44.05 0.1 M54.35 10.45 L54.35 16.75 51.7 14.8 48.95 11.3 46.2 5.1 46.2 5.05 54.2 10.35 54.35 10.45 M44.85 34.55 L45.95 37.3 48.0 42.4 49.4 45.7 49.4 45.8 43.75 41.75 42.3 38.2 44.0 39.2 43.65 35.35 44.45 34.8 44.85 34.55 M24.4 34.2 L23.55 34.8 21.5 36.4 15.4 41.25 15.6 40.95 Q18.5 35.6 23.85 26.75 L16.4 23.45 17.0 23.3 19.0 22.65 21.55 21.95 25.3 20.95 23.0 20.4 13.9 18.6 6.6 17.5 5.15 17.3 3.95 16.75 1.85 15.7 5.3 14.95 11.0 13.9 12.95 13.6 21.1 16.2 22.2 16.6 26.1 18.45 30.0 20.2 32.15 22.4 33.1 23.35 33.15 23.4 33.15 23.85 33.35 29.3 35.5 31.7 35.35 35.1 35.35 35.2 33.5 33.6 32.5 32.75 Q32.1 31.25 31.8 27.65 L31.8 27.55 31.7 27.6 28.1 28.55 28.05 28.55 23.95 29.8 24.25 32.85 24.4 34.2 M-21.75 2.35 L-1.8 8.85 -11.6 8.5 -11.85 8.4 -21.55 2.5 -21.75 2.35 M1.2 9.85 L3.1 10.45 8.15 12.05 4.2 12.65 2.35 12.9 -2.45 13.5 -9.05 10.0 -2.7 9.75 1.2 9.85 M22.3 3.0 L27.15 7.0 24.95 6.2 24.75 6.15 23.65 5.75 22.3 3.0 M29.0 8.55 L29.65 9.1 30.15 9.5 31.75 10.7 27.2 10.55 26.25 10.5 25.05 8.35 24.25 6.75 25.3 7.15 28.6 8.4 29.0 8.55 M33.7 11.9 L34.3 12.2 37.85 16.45 39.45 18.4 42.3 21.85 42.85 22.5 46.6 27.05 46.8 27.3 47.05 27.7 47.1 28.45 Q43.7 25.9 38.65 21.05 L33.7 16.3 29.8 15.95 28.25 13.75 29.15 13.45 30.0 13.2 33.7 11.9 M41.7 40.2 L40.55 39.35 37.7 37.05 37.05 33.45 37.5 33.9 40.25 36.55 40.7 37.75 41.7 40.2" fill="#ffee00" fill-rule="evenodd" stroke="none"/>
      <path d="M42.85 0.1 L42.7 -0.25 44.05 0.1 44.2 0.45 44.25 0.65 44.55 1.25 49.4 4.3 53.6 6.65 54.35 7.0 54.35 10.45 54.2 10.35 46.2 5.05 46.2 5.1 48.95 11.3 51.7 14.8 54.35 16.75 54.35 19.25 51.25 15.15 50.1 13.7 49.65 13.1 46.65 9.25 45.8 7.25 44.5 4.15 42.85 0.1 M49.4 45.8 L49.35 47.45 46.7 45.2 44.5 43.4 42.2 41.45 38.65 38.35 37.8 37.65 35.4 35.5 32.55 33.0 31.8 32.35 31.8 32.15 31.2 28.4 24.7 29.9 24.55 34.0 24.4 34.2 24.25 32.85 23.95 29.8 28.05 28.55 28.1 28.55 31.7 27.6 31.8 27.55 31.8 27.65 Q32.1 31.25 32.5 32.75 L33.5 33.6 35.35 35.2 35.35 35.1 35.5 31.7 33.35 29.3 33.15 23.85 33.15 23.4 33.75 24.05 33.75 24.25 33.8 26.25 33.8 26.7 33.8 27.05 33.85 27.95 35.55 30.15 36.85 31.75 39.65 35.1 42.05 37.55 42.25 38.05 42.3 38.2 43.75 41.75 49.4 45.8 M15.4 41.25 L14.45 42.05 18.6 34.25 18.7 33.95 19.8 31.9 22.3 27.1 19.7 25.95 17.1 24.75 16.1 24.3 15.95 23.6 16.4 23.45 23.85 26.75 Q18.5 35.6 15.6 40.95 L15.4 41.25 M-27.25 0.55 L-21.75 2.35 -21.55 2.5 -11.85 8.4 -11.6 8.5 -1.8 8.85 1.2 9.85 -2.7 9.75 -9.05 10.0 -2.45 13.5 2.35 12.9 4.2 12.65 8.15 12.05 12.95 13.6 11.0 13.9 5.3 14.95 1.85 15.7 3.95 16.75 5.15 17.3 3.05 17.1 3.65 17.7 2.5 17.05 2.0 16.75 0.55 16.0 -3.65 13.65 -10.1 10.05 -12.9 8.45 -13.7 8.0 Q-19.2 4.85 -27.25 0.55 M21.0 2.05 L21.0 1.9 22.3 3.0 23.65 5.75 24.75 6.15 24.95 6.2 27.15 7.0 29.0 8.55 28.6 8.4 25.3 7.15 24.25 6.75 25.05 8.35 26.25 10.5 27.2 10.55 31.75 10.7 31.85 10.8 33.7 11.9 30.0 13.2 29.15 13.45 28.25 13.75 29.8 15.95 33.7 16.3 38.65 21.05 Q43.7 25.9 47.1 28.45 L47.35 30.3 41.5 24.95 40.4 23.9 34.95 18.85 33.3 17.35 32.3 17.15 32.05 17.1 30.5 16.85 28.3 16.5 27.05 14.15 25.25 10.45 25.1 10.2 23.2 6.5 22.65 5.35 21.0 2.05 M41.7 40.2 L40.7 37.75 40.25 36.55 37.5 33.9 37.05 33.45 37.7 37.05 40.55 39.35 41.7 40.2" fill="#fffcec" fill-rule="evenodd" stroke="none"/>
      <path d="M48.85 35.35 L48.4 36.15 48.2 36.4 47.9 36.0 47.45 35.25 45.8 32.9 45.4 32.35 44.9 31.7 44.55 31.2 43.8 30.3 43.2 29.6 Q38.6 24.15 33.8 21.15 L33.75 22.1 33.75 24.05 33.15 23.4 33.25 20.15 Q39.45 23.75 44.55 29.6 L45.7 31.0 46.4 31.8 48.85 35.35 M45.2 17.3 L44.5 18.95 43.0 22.1 40.95 19.6 38.45 16.5 43.15 16.95 43.45 17.0 45.2 17.3 M43.65 17.4 L41.3 17.1 40.15 17.0 39.5 17.0 39.15 17.0 43.05 21.3 44.55 17.6 43.75 17.45 43.65 17.4 M50.25 23.2 L51.0 23.3 50.75 24.0 50.1 25.9 49.5 27.6 47.85 27.4 Q47.55 26.75 47.55 26.0 47.55 24.6 48.2 23.95 48.85 23.2 50.25 23.2 M50.25 23.95 Q49.55 24.05 48.95 24.5 48.05 25.2 48.05 26.45 L48.05 26.7 49.0 26.8 49.05 26.8 49.3 26.8 49.45 26.45 49.75 25.6 50.25 24.0 50.25 23.95" fill="#bd5d00" fill-rule="evenodd" stroke="none"/>
      <path d="M43.65 17.4 L43.75 17.45 44.55 17.6 43.05 21.3 39.15 17.0 39.5 17.0 40.15 17.0 41.3 17.1 43.65 17.4 M43.55 18.1 L42.45 17.95 40.85 17.75 42.9 20.0 43.55 18.1 M50.25 23.95 L50.25 24.0 49.75 25.6 49.45 26.45 49.3 26.8 49.05 26.8 49.0 26.8 48.05 26.7 48.05 26.45 Q48.05 25.2 48.95 24.5 49.55 24.05 50.25 23.95 M48.9 25.1 Q48.6 25.55 48.4 26.15 L49.1 26.35 49.65 24.25 49.05 24.9 48.9 25.1" fill="#414551" fill-rule="evenodd" stroke="none"/>
      <path d="M43.55 18.1 L42.9 20.0 40.85 17.75 42.45 17.95 43.55 18.1 M48.9 25.1 L49.05 24.9 49.65 24.25 49.1 26.35 48.4 26.15 Q48.6 25.55 48.9 25.1" fill="#7a8388" fill-rule="evenodd" stroke="none"/>
      <path d="M30.2 -1.75 L30.65 -1.45 31.15 -1.1 32.0 -0.5 Q32.35 -0.25 32.8 0.05 L34.1 1.05 35.5 2.15 35.85 2.45 37.1 3.45 37.25 3.55 37.35 3.65 Q40.3 6.1 43.15 8.8 L43.4 9.55 Q43.9 11.25 43.9 12.65 L43.75 14.0 39.9 13.85 39.1 13.7 38.7 13.6 36.25 12.95 35.45 12.65 35.2 12.6 34.3 12.2 33.7 11.9 31.85 10.8 31.75 10.7 30.15 9.5 29.65 9.1 29.0 8.55 27.15 7.0 22.3 3.0 21.0 1.9 21.0 2.05 23.2 16.85 22.2 16.6 21.1 16.2 12.95 13.6 8.15 12.05 3.1 10.45 1.2 9.85 -1.8 8.85 -21.75 2.35 -27.25 0.55 -27.6 0.45 -16.95 8.3 -14.3 10.2 -8.9 14.2 -3.25 18.35 Q8.45 26.7 15.6 32.45 L15.55 32.7 14.6 37.3 13.45 42.85 14.25 42.2 14.45 42.05 15.4 41.25 21.5 36.4 23.55 34.8 24.4 34.2 24.55 34.0 24.7 33.95 27.75 33.35 30.3 32.9 30.3 35.5 Q32.25 36.75 35.5 39.25 L38.55 41.6 Q43.4 45.4 46.2 48.1 L47.85 52.6 49.05 56.1 49.2 52.05 49.35 47.45 49.4 45.8 49.4 45.7 48.0 42.4 45.95 37.3 44.85 34.55 44.55 33.75 44.95 33.5 45.35 33.2 45.4 33.2 45.8 32.9 47.45 35.25 47.9 36.0 48.2 36.4 48.4 36.15 48.85 35.35 49.65 33.7 50.05 32.85 51.4 29.65 53.6 24.25 54.35 24.65 M54.35 2.3 L52.45 -1.75" fill="none" stroke="#984009" stroke-linecap="round" stroke-linejoin="round" stroke-width="1.0"/>
    </g>
    <g id="shape2" transform="matrix(1.0, 0.0, 0.0, 1.0, 0.0, 0.0)">
      <path d="M50.5 0.0 Q53.95 0.0 53.95 3.3 L53.95 50.15 Q53.95 53.4 50.5 53.4 L3.3 53.4 Q0.0 53.4 0.0 50.15 L0.0 3.3 Q0.0 0.0 3.3 0.0 L50.5 0.0" fill="#000000" fill-opacity="0.003921569" fill-rule="evenodd" stroke="none"/>
    </g>
  </defs>
</svg>
