<?xml version="1.0" encoding="UTF-8" standalone="no"?>
<svg xmlns:ffdec="https://www.free-decompiler.com/flash" xmlns:xlink="http://www.w3.org/1999/xlink" ffdec:objectType="frame" height="94.1px" width="85.8px" xmlns="http://www.w3.org/2000/svg">
  <g transform="matrix(1.0, 0.0, 0.0, 1.0, 21.95, 28.45)">
    <use ffdec:characterId="4" height="94.1" transform="matrix(1.0, 0.0, 0.0, 1.0, -21.95, -28.45)" width="85.8" xlink:href="#sprite0"/>
  </g>
  <defs>
    <g id="sprite0" transform="matrix(1.0, 0.0, 0.0, 1.0, 21.95, 28.45)">
      <clipPath id="clipPath0" transform="matrix(1.0, 0.0, 0.0, 1.0, 0.0, 0.0)">
        <path d="M50.5 0.0 Q53.95 0.0 53.95 3.3 L53.95 50.15 Q53.95 53.4 50.5 53.4 L3.3 53.4 Q0.0 53.4 0.0 50.15 L0.0 3.3 Q0.0 0.0 3.3 0.0 L50.5 0.0" fill="#000000" fill-rule="evenodd" stroke="none"/>
      </clipPath>
      <g clip-path="url(#clipPath0)">
        <use ffdec:characterId="2" height="178.45" transform="matrix(0.5274, 0.0, 0.0, 0.5274, -21.9513, -28.45)" width="162.65" xlink:href="#shape1"/>
      </g>
      <use ffdec:characterId="3" height="53.4" transform="matrix(1.0, 0.0, 0.0, 1.0, 0.0, 0.0)" width="53.95" xlink:href="#shape2"/>
    </g>
    <g id="shape1" transform="matrix(1.0, 0.0, 0.0, 1.0, -3.6, 135.85)">
      <path d="M117.0 -32.35 L116.45 -33.95 115.9 -35.6 113.2 -42.55 112.15 -45.25 111.4 -47.3 Q111.45 -47.7 115.25 -50.25 119.0 -52.8 122.3 -54.75 L125.85 -56.8 126.35 -56.95 128.65 -57.5 130.1 -55.9 131.1 -54.8 130.6 -51.65 134.6 -52.45 136.0 -52.8 135.6 -48.35 135.0 -43.75 134.4 -39.45 134.35 -39.15 132.5 -35.75 130.35 -34.05 127.0 -31.45 126.9 -31.4 125.6 -30.55 125.4 -30.2 124.95 -30.25 121.15 -30.75 Q117.2 -31.35 117.0 -32.25 L117.0 -32.35" fill="#3e4e67" fill-rule="evenodd" stroke="none"/>
      <path d="M131.1 -54.8 L132.25 -53.45 136.1 -55.45 Q139.55 -57.1 142.25 -57.8 L142.15 -55.9 141.15 -53.05 Q139.4 -48.45 134.85 -40.05 L134.55 -39.45 134.35 -39.15 134.4 -39.45 135.0 -43.75 135.6 -48.35 136.0 -52.8 134.6 -52.45 130.6 -51.65 131.1 -54.8" fill="#7f9bb3" fill-rule="evenodd" stroke="none"/>
      <path d="M141.05 -42.75 L141.7 -42.8 144.3 -42.85 144.65 -42.85 144.85 -42.35 143.75 -38.35 142.9 -37.7 143.0 -38.45 143.0 -39.35 139.3 -39.35 138.3 -39.15 137.3 -39.15 139.3 -41.2 141.05 -42.75" fill="#fffdff" fill-rule="evenodd" stroke="none"/>
      <path d="M134.85 -40.05 L140.2 -42.7 141.05 -42.75 139.3 -41.2 137.3 -39.15 138.3 -39.15 139.3 -39.35 143.0 -39.35 143.0 -38.45 142.9 -37.7 140.95 -36.3 141.2 -37.95 136.0 -36.2 Q133.05 -35.2 130.35 -34.05 L132.5 -35.75 134.35 -39.15 134.55 -39.45 134.85 -40.05 M143.25 -36.55 L142.3 -33.45 142.2 -33.25 141.95 -32.8 139.5 -27.1 138.25 -26.05 Q139.65 -29.3 140.55 -33.45 L140.6 -33.65 Q138.45 -32.3 135.8 -30.3 L133.15 -28.25 132.05 -25.9 131.5 -24.15 130.6 -23.25 130.9 -24.1 132.6 -27.8 132.85 -28.4 133.5 -28.95 140.65 -34.6 140.75 -34.65 142.65 -36.1 143.25 -36.55" fill="#fffd85" fill-rule="evenodd" stroke="none"/>
      <path d="M138.25 -26.05 L133.8 -22.45 129.9 -19.4 127.7 -16.7 125.85 -14.95 125.15 -14.4 125.8 -19.35 125.85 -19.8 127.85 -21.25 128.55 -21.75 129.0 -22.1 130.1 -22.9 130.55 -23.25 130.6 -23.25 131.5 -24.15 132.05 -25.9 133.15 -28.25 135.8 -30.3 Q138.45 -32.3 140.6 -33.65 L140.55 -33.45 Q139.65 -29.3 138.25 -26.05 M124.95 -30.25 L125.4 -30.2 125.6 -30.55 126.9 -31.4 127.0 -31.45 130.35 -34.05 Q133.05 -35.2 136.0 -36.2 L141.2 -37.95 140.95 -36.3 132.1 -29.8 130.55 -26.2 129.75 -24.3 126.75 -21.95 126.05 -21.4 126.4 -26.85 Q126.4 -28.2 126.05 -28.7 L124.95 -30.25" fill="#f79f33" fill-rule="evenodd" stroke="none"/>
      <path d="M143.75 -38.35 L143.25 -36.55 142.65 -36.1 140.75 -34.65 140.65 -34.6 133.5 -28.95 132.85 -28.4 132.6 -27.8 130.9 -24.1 130.6 -23.25 130.55 -23.25 130.1 -22.9 129.0 -22.1 128.55 -21.75 127.85 -21.25 125.85 -19.8 125.8 -19.35 125.15 -14.4 121.95 -12.15 122.2 -12.7 123.15 -15.25 124.05 -19.8 124.1 -20.15 124.15 -20.8 124.2 -23.15 Q124.2 -24.95 122.95 -27.0 121.15 -30.0 117.7 -30.0 116.85 -30.0 115.95 -28.95 L116.85 -31.95 117.0 -32.35 117.0 -32.25 Q117.2 -31.35 121.15 -30.75 L124.95 -30.25 126.05 -28.7 Q126.4 -28.2 126.4 -26.85 L126.05 -21.4 126.75 -21.95 129.75 -24.3 130.55 -26.2 132.1 -29.8 140.95 -36.3 142.9 -37.7 143.75 -38.35" fill="#aa5d0f" fill-rule="evenodd" stroke="none"/>
      <path d="M114.65 -7.55 Q113.6 -8.15 112.6 -9.95 111.8 -11.35 111.45 -13.15 110.95 -15.65 111.35 -18.8 L111.5 -19.35 113.2 -24.1 Q114.65 -27.5 115.95 -28.95 116.85 -30.0 117.7 -30.0 121.15 -30.0 122.95 -27.0 124.2 -24.95 124.2 -23.15 L124.15 -20.8 122.45 -19.5 121.25 -18.4 120.7 -17.4 120.15 -15.55 119.7 -14.5 118.25 -11.75 Q116.5 -8.65 114.65 -7.55" fill="#949ab1" fill-rule="evenodd" stroke="none"/>
      <path d="M122.95 -18.3 L122.95 -18.15 122.3 -15.05 122.2 -14.55 Q121.65 -13.2 119.55 -11.55 L121.35 -16.6 122.95 -18.3" fill="#e0dfef" fill-rule="evenodd" stroke="none"/>
      <path d="M121.95 -12.15 Q119.6 -7.25 115.65 -7.25 115.15 -7.25 114.65 -7.55 116.5 -8.65 118.25 -11.75 L119.7 -14.5 120.15 -15.55 120.7 -17.4 121.25 -18.4 124.05 -19.8 123.15 -15.25 122.2 -12.7 121.95 -12.15 M122.95 -18.3 L121.35 -16.6 119.55 -11.55 Q121.65 -13.2 122.2 -14.55 L122.3 -15.05 122.95 -18.15 122.95 -18.3" fill="#c2c7da" fill-rule="evenodd" stroke="none"/>
      <path d="M117.0 -32.35 L116.45 -33.95 115.9 -35.6 113.2 -42.55 112.15 -45.25 111.4 -47.3 Q111.45 -47.7 115.25 -50.25 119.0 -52.8 122.3 -54.75 L125.85 -56.8 126.35 -56.95 128.65 -57.5 130.1 -55.9 131.1 -54.8 132.25 -53.45 136.1 -55.45 Q139.55 -57.1 142.25 -57.8 L142.15 -55.9 141.15 -53.05 Q139.4 -48.45 134.85 -40.05" fill="none" stroke="#23293c" stroke-linecap="round" stroke-linejoin="round" stroke-width="1.0"/>
      <path d="M134.85 -40.05 L140.2 -42.7 141.05 -42.75 141.7 -42.8 144.3 -42.85 144.65 -42.85 144.85 -42.35 143.75 -38.35 143.25 -36.55 142.3 -33.45 142.2 -33.25 141.95 -32.8 139.5 -27.1 138.25 -26.05 133.8 -22.45 129.9 -19.4 127.7 -16.7 125.85 -14.95 125.15 -14.4 121.95 -12.15" fill="none" stroke="#6b2e09" stroke-linecap="round" stroke-linejoin="round" stroke-width="1.0"/>
      <path d="M121.95 -12.15 Q119.6 -7.25 115.65 -7.25 115.15 -7.25 114.65 -7.55 113.6 -8.15 112.6 -9.95 111.8 -11.35 111.45 -13.15 110.95 -15.65 111.35 -18.8 L111.5 -19.35 113.2 -24.1 Q114.65 -27.5 115.95 -28.95 116.85 -30.0 117.7 -30.0 121.15 -30.0 122.95 -27.0 124.2 -24.95 124.2 -23.15 L124.15 -20.8 124.1 -20.15 124.05 -19.8 123.15 -15.25 122.2 -12.7 121.95 -12.15 Z" fill="none" stroke="#625d6d" stroke-linecap="round" stroke-linejoin="round" stroke-width="1.0"/>
      <path d="M113.2 -120.1 Q112.6 -115.3 112.6 -107.75 L113.6 -84.15 113.2 -75.65 113.25 -74.9 114.65 -72.15 115.85 -69.8 116.25 -57.6 124.05 -61.65 124.7 -62.9 124.45 -60.15 Q123.5 -47.85 122.2 -38.75 121.5 -33.7 119.95 -29.3 116.8 -34.5 114.5 -38.85 L112.55 -42.55 111.95 -43.85 112.6 -47.0 Q113.1 -50.05 113.3 -56.05 L113.4 -65.35 113.4 -67.55 111.8 -72.7 110.85 -75.55 111.2 -94.1 Q111.75 -111.25 112.95 -119.6 L113.2 -120.1 M66.0 -60.2 Q70.7 -49.35 74.05 -36.95 L61.65 -44.8 58.85 -46.6 53.4 -60.25 52.8 -61.6 Q50.35 -63.5 45.15 -69.1 43.35 -72.45 41.75 -76.9 38.45 -85.65 34.8 -99.15 L30.0 -117.0 31.75 -115.6 Q39.25 -89.2 43.9 -78.2 L47.1 -71.3 50.1 -68.8 54.25 -65.25 56.45 -60.25 57.0 -60.25 66.0 -60.2" fill="#949ab1" fill-rule="evenodd" stroke="none"/>
      <path d="M124.7 -62.9 L124.05 -61.65 116.25 -57.6 115.85 -69.8 114.65 -72.15 113.25 -74.9 113.2 -75.65 113.6 -84.15 112.6 -107.75 Q112.6 -115.3 113.2 -120.1 L113.2 -120.15 113.4 -119.9 Q114.75 -118.25 117.2 -111.3 119.8 -103.9 122.5 -93.95 L123.45 -86.4 Q124.7 -75.8 125.1 -69.0 L124.7 -62.9 M31.75 -115.6 L36.65 -110.9 Q40.0 -107.4 42.6 -104.0 L55.2 -81.15 Q61.8 -69.45 64.5 -63.55 L66.0 -60.2 57.0 -60.25 56.45 -60.25 54.25 -65.25 50.1 -68.8 47.1 -71.3 43.9 -78.2 Q39.25 -89.2 31.75 -115.6" fill="#c2c7da" fill-rule="evenodd" stroke="none"/>
      <path d="M124.7 -62.9 L125.1 -69.0 Q124.7 -75.8 123.45 -86.4 L122.5 -93.95 Q119.8 -103.9 117.2 -111.3 114.75 -118.25 113.4 -119.9 L113.2 -120.15 113.2 -120.1 112.95 -119.6 Q111.75 -111.25 111.2 -94.1 L110.85 -75.55 111.8 -72.7 113.4 -67.55 113.4 -65.35 113.3 -56.05 Q113.1 -50.05 112.6 -47.0 L111.95 -43.85 112.55 -42.55 114.5 -38.85 Q116.8 -34.5 119.95 -29.3 121.5 -33.7 122.2 -38.75 123.5 -47.85 124.45 -60.15 L124.7 -62.9 M31.75 -115.6 L36.65 -110.9 Q40.0 -107.4 42.6 -104.0 L55.2 -81.15 Q61.8 -69.45 64.5 -63.55 L66.0 -60.2 Q70.7 -49.35 74.05 -36.95 L61.65 -44.8 58.85 -46.6 53.4 -60.25 52.8 -61.6 Q50.35 -63.5 45.15 -69.1 43.35 -72.45 41.75 -76.9 38.45 -85.65 34.8 -99.15 L30.0 -117.0 31.75 -115.6 Z" fill="none" stroke="#625d6d" stroke-linecap="round" stroke-linejoin="round" stroke-width="1.0"/>
      <path d="M118.25 1.1 L120.3 -0.5 Q123.4 -2.6 126.45 -3.75 L130.65 -3.05 132.0 -1.45 133.25 0.6 133.9 1.95 133.95 2.05 133.3 3.35 132.1 4.1 131.8 4.15 131.4 4.15 126.4 6.15 129.05 6.4 132.5 7.1 133.4 7.45 Q134.0 7.7 135.85 9.05 L136.15 8.8 137.15 15.25 Q137.5 18.7 137.5 22.65 L137.5 23.55 137.5 23.8 137.4 25.5 137.2 23.95 137.15 23.65 137.05 22.8 Q136.5 18.75 135.7 15.85 L134.9 13.35 123.75 13.65 122.15 8.75 122.0 8.35 121.8 7.9 Q120.55 4.6 119.55 3.2 L118.25 1.1 M135.8 -1.2 L136.2 -1.7 137.4 -1.35 Q142.45 0.15 147.35 2.55 L147.45 2.65 147.95 3.4 148.65 4.95 148.7 5.1 Q149.35 6.55 149.8 8.5 L149.8 8.55 149.95 9.3 Q150.8 13.85 150.8 15.95 L150.7 17.75 150.3 18.75 150.3 18.65 Q150.3 17.65 149.5 15.2 L148.8 13.2 144.25 12.95 143.75 13.0 143.3 16.9 141.9 17.9 141.4 21.95 141.35 22.4 140.8 24.9 137.45 26.05 137.4 25.65 139.2 24.5 139.35 23.75 139.55 22.95 Q139.9 20.95 139.9 18.5 L139.85 16.55 141.85 15.25 141.65 13.35 140.9 9.6 140.8 9.1 Q141.35 8.35 141.3 7.9 141.45 7.75 145.25 7.95 L147.35 7.8 148.3 7.7 148.6 7.35 147.0 6.0 145.95 5.3 145.4 4.95 143.15 4.3 140.9 3.7 138.7 1.95 137.45 0.9 135.8 -1.2" fill="#7f9bb3" fill-rule="evenodd" stroke="none"/>
      <path d="M137.5 23.8 L137.5 23.55 137.5 22.65 Q137.5 18.7 137.15 15.25 L136.15 8.8 135.6 6.65 134.6 3.65 133.95 2.05 133.9 1.95 133.25 0.6 133.95 0.65 135.7 0.95 Q137.65 3.45 138.7 7.5 139.75 11.55 139.75 12.85 L139.55 14.2 Q139.2 14.35 138.8 14.7 L138.8 15.85 138.55 19.85 138.2 22.25 Q138.15 23.25 137.8 23.55 L137.5 23.8" fill="#f54a38" fill-rule="evenodd" stroke="none"/>
      <path d="M132.0 -1.45 L135.3 -0.6 135.8 -1.2 137.45 0.9 Q138.85 3.05 139.85 6.05 L140.45 7.95 140.8 9.1 140.9 9.6 141.65 13.35 141.85 15.25 139.85 16.55 139.9 18.5 Q139.9 20.95 139.55 22.95 L139.35 23.75 139.2 24.5 137.4 25.65 137.4 25.5 137.5 23.8 137.8 23.55 Q138.15 23.25 138.2 22.25 L138.55 19.85 138.8 15.85 138.8 14.7 Q139.2 14.35 139.55 14.2 L139.75 12.85 Q139.75 11.55 138.7 7.5 137.65 3.45 135.7 0.95 L133.95 0.65 133.25 0.6 132.0 -1.45" fill="#a92733" fill-rule="evenodd" stroke="none"/>
      <path d="M136.15 8.8 L135.85 9.05 Q134.0 7.7 133.4 7.45 L132.5 7.1 129.05 6.4 126.4 6.15 131.4 4.15 131.8 4.15 132.1 4.1 133.3 3.35 133.95 2.05 134.6 3.65 135.6 6.65 136.15 8.8 M137.45 0.9 L138.7 1.95 140.9 3.7 143.15 4.3 145.4 4.95 145.95 5.3 147.0 6.0 148.6 7.35 148.3 7.7 147.35 7.8 145.25 7.95 Q141.45 7.75 141.3 7.9 141.35 8.35 140.8 9.1 L140.45 7.95 139.85 6.05 Q138.85 3.05 137.45 0.9" fill="#afdcef" fill-rule="evenodd" stroke="none"/>
      <path d="M147.95 3.4 L148.65 4.45 150.35 5.05 Q152.2 5.75 154.05 6.6 156.9 7.95 159.65 9.65 163.4 11.9 165.75 14.25 L165.5 14.6 162.9 17.75 158.05 22.6 158.65 21.75 160.9 18.5 162.85 15.5 163.4 14.65 158.1 11.35 Q154.1 9.2 151.1 8.65 L149.8 8.5 Q149.35 6.55 148.7 5.1 L148.65 4.95 147.95 3.4" fill="#667282" fill-rule="evenodd" stroke="none"/>
      <path d="M158.05 22.6 L154.6 25.75 153.55 26.7 154.1 25.6 155.8 21.65 155.15 21.5 150.45 20.0 150.5 19.55 150.7 17.75 150.8 15.95 Q150.8 13.85 149.95 9.3 L149.8 8.55 149.8 8.5 151.1 8.65 Q154.1 9.2 158.1 11.35 L163.4 14.65 162.85 15.5 160.9 18.5 158.65 21.75 158.05 22.6" fill="#2a3b55" fill-rule="evenodd" stroke="none"/>
      <path d="M119.55 3.2 Q120.55 4.6 121.8 7.9 L122.0 8.35 122.15 8.75 123.75 13.65 134.9 13.35 135.7 15.85 Q136.5 18.75 137.05 22.8 L137.15 23.65 137.2 23.95 137.4 25.5 137.4 25.65 137.45 26.05 140.8 24.9 141.35 22.4 141.4 21.95 141.9 17.9 143.3 16.9 143.75 13.0 144.25 12.95 148.8 13.2 149.5 15.2 Q150.3 17.65 150.3 18.65 L150.3 18.75 150.7 17.75 150.5 19.55 150.45 20.0 150.4 20.65 150.35 21.4 148.55 23.0 143.4 26.45 140.65 28.1 137.2 27.0 136.85 28.75 131.6 32.5 Q130.55 33.05 129.65 33.05 L127.35 32.35 125.15 31.4 124.95 31.3 123.35 30.65 122.0 30.1 122.45 27.9 122.55 27.5 123.25 27.55 123.75 27.55 123.8 27.5 124.1 24.45 123.9 20.4 123.75 19.1 123.6 18.1 123.45 18.05 122.65 17.65 122.25 13.9 121.9 11.5 121.4 8.9 121.3 8.5 Q120.55 5.3 119.55 3.2 M123.6 29.0 L123.7 28.95 123.6 28.85 123.6 29.0" fill="#3e4e67" fill-rule="evenodd" stroke="none"/>
      <path d="M153.55 26.7 L152.3 27.75 150.3 29.45 Q145.1 33.7 141.25 35.85 L137.85 36.6 137.75 36.65 128.2 37.35 127.75 37.35 124.8 37.15 123.5 36.45 122.55 35.95 120.8 34.85 121.4 32.55 122.0 30.1 123.35 30.65 124.95 31.3 125.15 31.4 127.35 32.35 129.65 33.05 Q130.55 33.05 131.6 32.5 L136.85 28.75 137.2 27.0 140.65 28.1 143.4 26.45 148.55 23.0 150.35 21.4 150.4 20.65 150.45 20.0 155.15 21.5 155.8 21.65 154.1 25.6 153.55 26.7" fill="#1d2339" fill-rule="evenodd" stroke="none"/>
      <path d="M120.8 34.85 L114.1 30.45 114.05 30.05 113.6 26.45 113.4 24.5 Q112.5 16.8 112.5 13.35 L112.55 11.05 112.55 10.25 112.7 7.05 116.8 2.45 117.35 3.95 Q118.15 6.25 118.75 9.05 L121.3 8.5 121.4 8.9 121.9 11.5 122.25 13.9 122.65 17.65 123.45 18.05 123.6 18.1 123.75 19.1 123.9 20.4 124.1 24.45 123.8 27.5 123.75 27.55 123.25 27.55 122.55 27.5 122.45 27.9 122.0 30.1 121.4 32.55 120.8 34.85" fill="#aa5d0f" fill-rule="evenodd" stroke="none"/>
      <path d="M116.8 2.45 L118.25 1.1 119.55 3.2 Q120.55 5.3 121.3 8.5 L118.75 9.05 Q118.15 6.25 117.35 3.95 L116.8 2.45" fill="#f79f33" fill-rule="evenodd" stroke="none"/>
      <path d="M118.25 1.1 L120.3 -0.5 Q123.4 -2.6 126.45 -3.75 L130.65 -3.05 132.0 -1.45 M135.3 -0.6 L135.8 -1.2 136.2 -1.7 137.4 -1.35 Q142.45 0.15 147.35 2.55 L147.45 2.65 147.95 3.4 148.65 4.45 150.35 5.05 Q152.2 5.75 154.05 6.6 156.9 7.95 159.65 9.65 163.4 11.9 165.75 14.25 L165.5 14.6 162.9 17.75 158.05 22.6 154.6 25.75 153.55 26.7 152.3 27.75 150.3 29.45 Q145.1 33.7 141.25 35.85 L137.85 36.6 137.75 36.65 128.2 37.35 127.75 37.35 124.8 37.15 123.5 36.45 122.55 35.95 120.8 34.85" fill="none" stroke="#23293c" stroke-linecap="round" stroke-linejoin="round" stroke-width="1.0"/>
      <path d="M132.0 -1.45 L135.3 -0.6" fill="none" stroke="#700101" stroke-linecap="round" stroke-linejoin="round" stroke-width="1.0"/>
      <path d="M120.8 34.85 L114.1 30.45 114.05 30.05 113.6 26.45 113.4 24.5 Q112.5 16.8 112.5 13.35 L112.55 11.05 112.55 10.25 112.7 7.05 116.8 2.45 118.25 1.1" fill="none" stroke="#6b2e09" stroke-linecap="round" stroke-linejoin="round" stroke-width="1.0"/>
      <path d="M111.5 -1.1 L114.85 0.2 115.4 0.45 Q117.5 1.45 120.65 3.45 L120.45 4.15 119.45 4.85 Q117.0 6.3 113.8 6.25 L116.85 3.85 Q112.8 1.7 110.15 0.7 L110.6 0.05 110.9 -0.35 111.5 -1.1 M77.75 1.3 L79.45 0.4 84.6 -1.85 86.3 -2.3 87.7 -0.2 88.5 0.95 87.4 1.4 Q86.65 1.7 85.75 2.15 L84.65 2.7 86.65 4.45 Q86.6 5.25 86.15 5.25 L82.7 4.45 78.55 3.0 Q77.4 2.4 77.4 1.95 77.4 1.75 77.75 1.3" fill="#e0dfef" fill-rule="evenodd" stroke="none"/>
      <path d="M108.6 -1.9 L111.5 -1.1 110.9 -0.35 110.6 0.05 110.15 0.7 108.9 0.25 108.85 0.05 108.6 -1.9 M120.45 4.15 L120.15 5.2 118.35 7.25 Q117.55 7.6 115.9 8.7 L113.55 10.3 Q113.3 11.4 113.3 13.0 L113.3 13.25 113.4 14.85 113.3 14.85 112.95 13.0 112.5 10.5 111.9 10.25 109.85 9.35 108.7 8.75 110.05 8.25 111.5 7.55 113.8 6.25 Q117.0 6.3 119.45 4.85 L120.45 4.15 M71.95 6.7 L71.9 6.65 Q71.9 6.2 72.55 5.15 L72.9 4.55 73.35 3.8 77.75 1.3 Q77.4 1.75 77.4 1.95 77.4 2.4 78.55 3.0 L82.7 4.45 86.15 5.25 Q86.6 5.25 86.65 4.45 L88.8 5.6 92.05 6.9 Q95.95 8.25 99.3 8.9 L100.4 9.75 99.65 10.5 98.2 11.75 97.7 12.2 98.5 13.7 98.9 14.45 99.9 16.25 99.8 16.25 98.35 14.45 97.4 13.45 96.35 12.35 92.45 11.4 92.25 11.35 92.05 11.3 90.45 10.85 87.65 9.85 87.3 9.75 Q80.55 7.3 78.0 5.5 76.85 4.05 76.0 4.05 L73.55 5.55 71.95 6.7 M86.3 -2.3 L88.25 -2.75 89.25 -2.95 89.15 -1.55 89.0 0.75 88.5 0.95 87.7 -0.2 86.3 -2.3" fill="#c2c7da" fill-rule="evenodd" stroke="none"/>
      <path d="M89.25 -2.95 L89.45 -5.3 Q90.65 -6.2 92.35 -7.1 95.15 -8.45 96.45 -8.45 100.95 -8.45 108.45 -3.45 L108.6 -1.9 108.85 0.05 108.9 0.25 109.3 3.15 110.05 8.25 108.7 8.75 108.2 8.9 107.95 9.6 107.4 11.0 Q106.9 12.25 106.05 12.25 105.15 12.25 103.35 11.0 L102.25 10.2 101.0 9.15 99.3 8.9 Q95.95 8.25 92.05 6.9 L88.8 5.6 88.95 1.75 89.0 1.2 89.0 0.75 89.15 -1.55 89.25 -2.95 M120.85 42.1 L120.45 42.1 120.6 41.85 120.85 42.1 M99.95 42.1 L93.6 42.1 93.65 42.05 97.9 40.85 99.95 42.1 M118.6 15.65 L118.65 15.6 118.75 15.5 119.75 14.4 119.9 14.3 119.3 19.55 119.85 20.3 121.5 22.7 123.5 26.0 124.0 27.0 123.95 27.45 Q123.8 29.85 122.45 34.3 L121.1 38.5 120.5 38.15 120.7 34.3 120.7 33.75 Q120.65 30.15 119.7 27.3 118.4 23.45 115.65 20.85 L113.45 19.1 112.55 18.75 111.55 18.5 110.8 18.4 110.1 18.35 109.9 18.35 109.5 18.35 Q107.6 18.45 105.6 19.45 L104.2 20.9 102.75 22.9 Q100.1 27.35 99.75 34.0 L99.7 36.0 99.75 37.0 99.75 37.8 99.85 38.8 Q99.35 38.5 99.05 38.35 L92.55 40.15 94.85 35.7 97.25 29.7 99.35 22.3 99.4 22.2 97.05 19.4 96.55 18.8 95.45 17.5 95.15 17.15 95.35 17.2 95.75 17.4 96.2 17.65 96.45 17.7 Q97.95 18.3 101.6 19.85 L102.05 20.25 Q104.55 18.25 106.55 17.45 108.0 16.9 109.7 16.8 L109.8 16.8 110.25 16.85 111.55 17.15 112.8 17.5 113.9 17.9 Q115.35 18.4 116.4 19.1 L116.5 18.95 116.5 18.9 117.15 17.75 118.6 15.65" fill="#3e4e67" fill-rule="evenodd" stroke="none"/>
      <path d="M88.95 1.75 L88.8 5.6 86.65 4.45 84.65 2.7 85.75 2.15 Q86.65 1.7 87.4 1.4 L88.5 0.95 88.65 1.25 88.95 1.75 M110.05 8.25 L109.3 3.15 108.9 0.25 110.15 0.7 Q112.8 1.7 116.85 3.85 L113.8 6.25 111.5 7.55 110.05 8.25 M109.5 1.85 L109.5 1.9 Q109.5 2.15 109.6 1.95 L109.5 1.85" fill="#3f3f4f" fill-rule="evenodd" stroke="none"/>
      <path d="M121.6 12.65 L121.95 12.8 Q123.45 14.35 124.95 16.65 L126.6 19.4 128.55 23.45 128.4 23.45 127.95 23.55 128.7 23.85 128.85 24.15 129.85 27.3 129.75 27.8 129.2 30.25 128.1 32.2 Q126.4 35.1 126.4 35.85 L126.4 35.75 126.65 30.8 126.85 28.05 126.85 27.65 126.3 26.3 125.75 25.2 124.9 24.05 127.95 23.55 125.1 22.75 122.7 22.05 120.15 18.75 120.55 16.9 121.6 12.65 M94.85 17.0 L95.05 17.1 95.15 17.15 95.45 17.5 96.55 18.8 97.05 19.4 99.4 22.2 99.35 22.3 97.95 21.5 96.75 20.9 Q90.45 23.4 84.05 25.2 L79.75 26.35 80.4 20.7 81.25 14.05 81.45 13.95 81.7 13.75 83.2 12.95 Q86.3 13.05 93.05 16.15 L93.5 16.35 94.85 17.0 M83.05 31.75 Q84.8 34.8 87.0 37.5 L83.25 34.25 Q80.5 31.7 79.15 29.7 L79.4 28.35 81.6 28.9 83.05 31.75" fill="#f54a38" fill-rule="evenodd" stroke="none"/>
      <path d="M120.15 5.2 L119.1 8.35 118.45 10.1 119.5 11.7 119.9 12.55 119.55 13.9 119.45 14.05 119.05 14.35 Q117.15 15.75 115.6 17.3 L113.45 15.95 110.95 14.45 108.65 13.45 106.6 12.8 Q105.65 13.25 105.0 13.8 L104.85 13.95 103.35 15.65 101.55 18.25 98.85 17.45 97.75 17.25 96.8 17.1 93.95 16.45 Q91.0 14.8 86.8 12.9 L85.3 12.25 Q80.6 10.25 78.35 9.85 75.15 11.6 74.4 12.25 L72.75 8.65 71.95 6.7 73.55 5.55 76.0 4.05 Q76.85 4.05 78.0 5.5 80.55 7.3 87.3 9.75 L87.65 9.85 90.45 10.85 92.05 11.3 92.25 11.35 92.45 11.4 96.35 12.35 97.4 13.45 98.35 14.45 99.8 16.25 99.9 16.25 98.9 14.45 98.5 13.7 97.7 12.2 98.2 11.75 99.65 10.5 100.4 9.75 99.3 8.9 101.0 9.15 102.25 10.2 103.35 11.0 Q105.15 12.25 106.05 12.25 106.9 12.25 107.4 11.0 L107.95 9.6 108.2 8.9 108.7 8.75 109.85 9.35 111.9 10.25 112.5 10.5 112.95 13.0 113.3 14.85 113.4 14.85 113.3 13.25 113.3 13.0 Q113.3 11.4 113.55 10.3 L115.9 8.7 Q117.55 7.6 118.35 7.25 L120.15 5.2" fill="#9797b1" fill-rule="evenodd" stroke="none"/>
      <path d="M123.1 42.1 L121.7 42.1 120.2 40.1 119.75 41.0 119.7 41.05 119.1 42.1 117.75 42.1 119.2 39.15 119.4 38.6 120.0 37.9 120.5 38.15 121.1 38.5 120.95 38.85 120.9 39.1 123.1 42.1 M103.85 42.1 L102.2 42.1 102.15 42.05 101.9 41.65 100.35 40.8 99.5 40.4 98.4 39.75 96.35 40.45 96.1 40.5 Q95.4 40.7 95.0 40.85 L93.4 41.35 92.45 42.1 90.45 42.1 92.3 40.55 92.55 40.15 99.05 38.35 Q99.35 38.5 99.85 38.8 L100.8 39.35 102.35 40.25 102.8 40.55 103.6 41.8 103.85 42.1 M119.9 14.3 L119.75 14.4 118.75 15.5 118.65 15.6 118.6 15.65 117.75 16.6 117.3 17.1 116.95 17.5 116.75 17.8 116.55 18.0 116.05 18.55 110.35 15.25 107.95 14.2 106.85 13.8 106.65 13.7 106.45 13.65 106.35 13.75 106.05 14.0 Q104.6 15.3 103.25 17.2 L102.05 19.05 99.85 18.45 97.2 17.85 96.45 17.7 96.2 17.65 95.75 17.4 95.35 17.2 95.15 17.15 95.05 17.1 94.85 17.0 93.95 16.45 96.8 17.1 97.75 17.25 98.85 17.45 101.55 18.25 103.35 15.65 104.85 13.95 105.0 13.8 Q105.65 13.25 106.6 12.8 L108.65 13.45 110.95 14.45 113.45 15.95 115.6 17.3 Q117.15 15.75 119.05 14.35 L119.45 14.05 119.55 13.9 119.9 12.55 119.95 13.65 Q120.25 13.9 119.9 14.3" fill="#1c2834" fill-rule="evenodd" stroke="none"/>
      <path d="M119.5 11.7 L121.6 12.65 120.55 16.9 120.15 18.75 122.7 22.05 125.1 22.75 127.95 23.55 124.9 24.05 125.75 25.2 126.3 26.3 126.85 27.65 126.85 28.05 126.65 30.8 126.4 35.75 126.4 35.85 Q126.4 35.1 128.1 32.2 L129.2 30.25 127.35 35.75 126.45 37.9 124.5 42.1 123.1 42.1 120.9 39.1 120.95 38.85 121.1 38.5 122.45 34.3 Q123.8 29.85 123.95 27.45 L124.0 27.0 123.5 26.0 121.5 22.7 119.85 20.3 119.3 19.55 119.9 14.3 Q120.25 13.9 119.95 13.65 L119.9 12.55 119.5 11.7 M90.45 42.1 L76.9 42.1 76.7 41.9 76.25 41.4 Q73.1 38.05 70.5 33.4 L70.3 29.85 Q70.3 25.6 70.65 21.9 70.85 19.65 71.2 17.65 L71.85 14.6 72.15 14.3 74.4 12.25 Q75.15 11.6 78.35 9.85 80.6 10.25 85.3 12.25 L86.8 12.9 Q91.0 14.8 93.95 16.45 L94.85 17.0 93.5 16.35 93.05 16.15 Q86.3 13.05 83.2 12.95 L81.7 13.75 81.45 13.95 81.25 14.05 80.4 20.7 79.75 26.35 84.05 25.2 Q90.45 23.4 96.75 20.9 L97.95 21.5 99.35 22.3 97.25 29.7 94.85 35.7 92.55 40.15 92.3 40.55 90.45 42.1 M83.05 31.75 L81.6 28.9 79.4 28.35 79.15 29.7 Q80.5 31.7 83.25 34.25 L87.0 37.5 Q84.8 34.8 83.05 31.75" fill="#a92733" fill-rule="evenodd" stroke="none"/>
      <path d="M121.7 42.1 L120.85 42.1 120.6 41.85 120.45 42.1 119.1 42.1 119.7 41.05 119.75 41.0 120.2 40.1 121.7 42.1 M102.2 42.1 L99.95 42.1 97.9 40.85 93.65 42.05 93.6 42.1 92.45 42.1 93.4 41.35 95.0 40.85 Q95.4 40.7 96.1 40.5 L96.35 40.45 98.4 39.75 99.5 40.4 100.35 40.8 101.9 41.65 102.15 42.05 102.2 42.1 M96.45 17.7 L97.2 17.85 99.85 18.45 102.05 19.05 103.25 17.2 Q104.6 15.3 106.05 14.0 L106.35 13.75 106.45 13.65 106.65 13.7 106.85 13.8 107.95 14.2 110.35 15.25 116.05 18.55 116.55 18.0 116.75 17.8 116.95 17.5 117.3 17.1 117.75 16.6 118.6 15.65 117.15 17.75 116.5 18.9 116.5 18.95 116.4 19.1 Q115.35 18.4 113.9 17.9 L112.8 17.5 111.55 17.15 110.25 16.85 109.8 16.8 109.7 16.8 Q108.0 16.9 106.55 17.45 104.55 18.25 102.05 20.25 L101.6 19.85 Q97.95 18.3 96.45 17.7 M104.3 17.65 L108.6 15.95 107.3 14.65 106.2 14.05 105.15 15.75 Q104.25 17.4 104.3 17.65" fill="#7f9bb3" fill-rule="evenodd" stroke="none"/>
      <path d="M117.75 42.1 L114.95 42.1 115.15 41.65 115.9 39.75 116.4 38.25 Q117.0 36.3 117.0 32.7 L116.9 31.05 116.85 30.9 116.6 30.0 116.05 28.5 114.9 26.45 Q112.55 23.05 109.05 23.05 L108.75 23.05 108.1 23.15 Q107.6 23.25 107.2 23.5 L105.9 24.65 105.65 24.9 Q104.4 26.05 103.7 27.5 102.6 29.65 102.3 33.15 L102.1 36.9 Q102.1 38.75 102.35 40.25 L100.8 39.35 99.85 38.8 99.75 37.8 100.35 37.65 Q101.5 37.4 101.1 36.65 L99.75 37.0 99.7 36.0 99.75 34.0 Q100.1 27.35 102.75 22.9 L104.2 20.9 105.6 19.45 Q107.6 18.45 109.5 18.35 L109.3 20.7 109.4 21.65 109.6 21.65 109.9 19.45 110.1 18.35 110.8 18.4 111.55 18.5 112.55 18.75 113.45 19.1 115.65 20.85 Q118.4 23.45 119.7 27.3 120.65 30.15 120.7 33.75 L118.6 34.95 118.85 35.05 120.0 34.65 120.7 34.3 120.5 38.15 120.0 37.9 119.4 38.6 119.2 39.15 117.75 42.1" fill="#242841" fill-rule="evenodd" stroke="none"/>
      <path d="M120.7 33.75 L120.7 34.3 120.0 34.65 118.85 35.05 118.6 34.95 120.7 33.75 M109.5 18.35 L109.9 18.35 110.1 18.35 109.9 19.45 109.6 21.65 109.4 21.65 109.3 20.7 109.5 18.35 M99.75 37.8 L99.75 37.0 101.1 36.65 Q101.5 37.4 100.35 37.65 L99.75 37.8" fill="#131520" fill-rule="evenodd" stroke="none"/>
      <path d="M111.6 27.85 L111.7 28.05 Q111.65 27.35 112.1 26.9 L112.15 26.9 112.4 26.65 113.4 26.55 114.3 27.45 Q115.4 28.85 115.4 31.2 115.4 33.2 114.6 33.65 L114.1 33.75 114.05 33.75 Q113.15 33.7 112.3 31.95 L111.9 31.0 111.55 29.35 111.5 28.9 111.6 27.85" fill="#fffdfb" fill-rule="evenodd" stroke="none"/>
      <path d="M114.95 42.1 L112.8 42.1 Q113.6 41.05 114.1 38.55 L114.6 34.1 114.6 33.65 Q115.4 33.2 115.4 31.2 115.4 28.85 114.3 27.45 L113.4 26.55 112.4 26.65 112.15 26.9 112.05 26.8 Q110.9 25.15 109.8 25.15 L108.0 27.45 Q109.4 27.9 111.4 29.75 L110.6 30.75 Q110.4 30.25 109.15 29.45 107.95 28.65 107.45 28.65 L106.95 30.6 106.9 30.9 Q107.7 31.1 108.15 31.6 108.8 32.35 108.8 33.9 108.8 36.25 108.2 37.7 107.7 38.75 107.1 38.95 L108.2 40.15 109.1 40.85 Q110.1 40.85 110.7 38.6 111.2 36.8 111.2 34.85 L112.0 35.25 112.6 35.75 Q112.6 37.1 111.6 39.45 L110.3 41.75 110.2 41.85 110.6 42.1 103.85 42.1 103.6 41.8 102.8 40.55 102.35 40.25 Q102.1 38.75 102.1 36.9 L102.3 33.15 Q102.6 29.65 103.7 27.5 104.4 26.05 105.65 24.9 L105.9 24.65 107.2 23.5 Q107.6 23.25 108.1 23.15 L108.75 23.05 109.05 23.05 Q112.55 23.05 114.9 26.45 L116.05 28.5 116.6 30.0 116.85 30.9 116.9 31.05 117.0 32.7 Q117.0 36.3 116.4 38.25 L115.9 39.75 115.15 41.65 114.95 42.1" fill="#9f1e22" fill-rule="evenodd" stroke="none"/>
      <path d="M112.8 42.1 L110.6 42.1 110.2 41.85 110.3 41.75 111.6 39.45 Q112.6 37.1 112.6 35.75 L112.0 35.25 111.2 34.85 Q111.2 36.8 110.7 38.6 110.1 40.85 109.1 40.85 L108.2 40.15 107.1 38.95 Q107.7 38.75 108.2 37.7 108.8 36.25 108.8 33.9 108.8 32.35 108.15 31.6 107.7 31.1 106.9 30.9 L106.95 30.6 107.45 28.65 Q107.95 28.65 109.15 29.45 110.4 30.25 110.6 30.75 L111.4 29.75 Q109.4 27.9 108.0 27.45 L109.8 25.15 Q110.9 25.15 112.05 26.8 L112.15 26.9 112.1 26.9 Q111.65 27.35 111.7 28.05 L111.6 27.85 110.95 27.35 110.2 27.55 110.1 27.65 111.2 28.95 111.55 29.35 111.9 31.0 110.8 32.15 109.4 30.55 109.2 31.5 Q109.7 31.95 109.85 32.85 L109.9 34.6 Q109.9 37.7 109.0 38.15 L109.3 38.55 109.6 38.75 Q110.25 38.75 110.65 36.75 L111.1 34.15 Q112.9 34.65 112.9 35.4 112.9 36.5 111.7 40.75 L112.4 40.95 Q113.3 40.95 114.1 34.85 L114.05 33.75 114.1 33.75 114.6 33.65 114.6 34.1 114.1 38.55 Q113.6 41.05 112.8 42.1" fill="#ee4832" fill-rule="evenodd" stroke="none"/>
      <path d="M111.55 29.35 L111.2 28.95 110.1 27.65 110.2 27.55 110.95 27.35 111.6 27.85 111.5 28.9 111.55 29.35 M111.9 31.0 L112.3 31.95 Q113.15 33.7 114.05 33.75 L114.1 34.85 Q113.3 40.95 112.4 40.95 L111.7 40.75 Q112.9 36.5 112.9 35.4 112.9 34.65 111.1 34.15 L110.65 36.75 Q110.25 38.75 109.6 38.75 L109.3 38.55 109.0 38.15 Q109.9 37.7 109.9 34.6 L109.85 32.85 Q109.7 31.95 109.2 31.5 L109.4 30.55 110.8 32.15 111.9 31.0" fill="#ffc778" fill-rule="evenodd" stroke="none"/>
      <path d="M104.3 17.65 Q104.25 17.4 105.15 15.75 L106.2 14.05 107.3 14.65 108.6 15.95 104.3 17.65" fill="#afdcef" fill-rule="evenodd" stroke="none"/>
      <path d="M108.6 -1.9 L111.5 -1.1 114.85 0.2 115.4 0.45 Q117.5 1.45 120.65 3.45 L120.45 4.15 120.15 5.2 119.1 8.35 118.45 10.1 119.5 11.7 M74.4 12.25 L72.75 8.65 71.95 6.7 71.9 6.65 Q71.9 6.2 72.55 5.15 L72.9 4.55 73.35 3.8 77.75 1.3 79.45 0.4 84.6 -1.85 86.3 -2.3 88.25 -2.75 89.25 -2.95 M88.8 5.6 L92.05 6.9 Q95.95 8.25 99.3 8.9 L101.0 9.15 102.25 10.2 103.35 11.0 Q105.15 12.25 106.05 12.25 106.9 12.25 107.4 11.0 L107.95 9.6 108.2 8.9 108.7 8.75 110.05 8.25 111.5 7.55 113.8 6.25 116.85 3.85 Q112.8 1.7 110.15 0.7 L108.9 0.25 M88.5 0.95 L87.4 1.4 Q86.65 1.7 85.75 2.15 L84.65 2.7 86.65 4.45 88.8 5.6 M88.5 0.95 L89.0 0.75" fill="none" stroke="#625d6d" stroke-linecap="round" stroke-linejoin="round" stroke-width="1.0"/>
      <path d="M89.25 -2.95 L89.45 -5.3 Q90.65 -6.2 92.35 -7.1 95.15 -8.45 96.45 -8.45 100.95 -8.45 108.45 -3.45 L108.6 -1.9 108.85 0.05 108.9 0.25 109.3 3.15 110.05 8.25 M89.25 -2.95 L89.15 -1.55 89.0 0.75 89.0 1.2 88.95 1.75 88.8 5.6" fill="none" stroke="#23293c" stroke-linecap="round" stroke-linejoin="round" stroke-width="1.0"/>
      <path d="M119.5 11.7 L121.6 12.65 121.95 12.8 Q123.45 14.35 124.95 16.65 L126.6 19.4 128.55 23.45 128.7 23.85 128.85 24.15 129.85 27.3 129.75 27.8 129.2 30.25 127.35 35.75 126.45 37.9 124.5 42.1 M76.9 42.1 L76.7 41.9 76.25 41.4 Q73.1 38.05 70.5 33.4 L70.3 29.85 Q70.3 25.6 70.65 21.9 70.85 19.65 71.2 17.65 L71.85 14.6 72.15 14.3 74.4 12.25" fill="none" stroke="#700101" stroke-linecap="round" stroke-linejoin="round" stroke-width="1.0"/>
      <path d="M85.2 -23.95 L89.7 -23.95 95.5 -23.7 Q97.35 -21.9 100.3 -19.3 L104.55 -15.7 102.9 -14.1 97.1 -18.8 96.9 -18.95 91.1 -19.35 87.2 -19.1 90.35 -14.85 93.25 -11.7 93.5 -11.65 98.5 -11.55 95.45 -9.75 93.25 -8.45 92.3 -7.9 89.85 -8.15 Q87.2 -12.0 83.8 -17.95 L82.65 -20.0 82.7 -20.15 83.7 -21.75 85.2 -23.95 M106.75 -13.95 L107.45 -13.45 111.6 -17.3 Q114.8 -20.4 117.25 -23.75 118.0 -23.35 119.8 -22.7 L121.9 -21.95 121.75 -20.95 120.3 -20.3 119.85 -20.05 116.9 -15.25 Q114.4 -11.55 112.2 -9.25 L111.7 -8.8 110.7 -9.1 109.35 -7.9 107.3 -6.25 106.45 -5.55 105.8 -5.9 102.5 -8.2 102.55 -8.25 102.95 -8.75 103.0 -8.8 103.9 -8.05 104.45 -7.65 Q105.3 -7.05 106.2 -6.6 L106.9 -8.05 107.7 -10.5 106.75 -11.25 106.2 -11.55 105.45 -12.1 106.75 -13.95" fill="#9f1e22" fill-rule="evenodd" stroke="none"/>
      <path d="M114.4 -7.6 L112.95 -5.8 110.05 -7.45 109.15 -6.7 106.2 -4.65 105.6 -4.35 104.5 -5.05 101.25 -7.35 96.1 -6.8 93.7 -6.5 Q93.95 -5.7 94.65 -4.45 L95.4 -3.05 100.7 1.4 100.85 1.5 101.3 1.85 102.9 2.15 105.8 0.65 107.4 -0.45 109.25 -1.95 110.45 -3.0 109.35 -1.9 109.0 -1.55 108.35 -0.9 105.35 1.95 104.75 2.95 104.3 3.6 102.5 3.85 Q100.35 2.95 97.85 1.45 92.45 -1.8 86.85 -6.9 L86.45 -7.55 81.8 -15.3 82.65 -16.45 83.8 -17.95 Q87.2 -12.0 89.85 -8.15 L92.3 -7.9 93.6 -7.9 100.2 -8.35 102.15 -8.55 102.5 -8.2 105.8 -5.9 106.45 -5.55 107.3 -6.25 109.35 -7.9 110.7 -9.1 111.7 -8.8 112.05 -8.65 114.4 -7.6" fill="#c2c7da" fill-rule="evenodd" stroke="none"/>
      <path d="M104.55 -15.7 L106.75 -13.95 105.45 -12.1 103.4 -9.35 103.0 -8.8 102.95 -8.75 102.5 -9.25 99.25 -8.9 93.35 -8.45 93.25 -8.45 95.45 -9.75 98.5 -11.55 100.0 -12.4 100.7 -12.8 102.75 -13.9 102.95 -14.05 102.9 -14.1 104.55 -15.7 M121.75 -20.95 Q121.2 -18.55 119.7 -15.0 117.8 -10.5 115.85 -8.0 L114.7 -8.45 112.2 -9.25 Q114.4 -11.55 116.9 -15.25 L119.85 -20.05 120.3 -20.3 121.75 -20.95" fill="#ffffff" fill-rule="evenodd" stroke="none"/>
      <path d="M115.85 -8.0 L115.15 -7.15 114.4 -7.6 112.05 -8.65 111.7 -8.8 112.2 -9.25 114.7 -8.45 115.85 -8.0 M100.0 -12.4 L98.5 -11.55 93.5 -11.65 93.25 -11.7 90.35 -14.85 87.2 -19.1 91.1 -19.35 96.9 -18.95 97.1 -18.8 102.9 -14.1 102.75 -13.9 100.7 -12.8 100.2 -13.4 95.8 -18.05 94.8 -18.15 91.8 -18.35 89.05 -18.2 Q90.25 -16.15 93.4 -12.85 L97.0 -12.6 100.0 -12.4 M93.25 -8.45 L93.35 -8.45 99.25 -8.9 102.5 -9.25 102.95 -8.75 102.55 -8.25 102.5 -8.2 102.15 -8.55 100.2 -8.35 93.6 -7.9 92.3 -7.9 93.25 -8.45 M103.0 -8.8 L103.4 -9.35 105.45 -12.1 106.2 -11.55 106.75 -11.25 107.7 -10.5 106.9 -8.05 106.2 -6.6 Q105.3 -7.05 104.45 -7.65 L103.9 -8.05 103.0 -8.8" fill="#ee4832" fill-rule="evenodd" stroke="none"/>
      <path d="M100.7 -12.8 L100.0 -12.4 97.0 -12.6 93.4 -12.85 Q90.25 -16.15 89.05 -18.2 L91.8 -18.35 94.8 -18.15 95.8 -18.05 100.2 -13.4 100.7 -12.8" fill="#ffefec" fill-rule="evenodd" stroke="none"/>
      <path d="M112.95 -5.8 L112.75 -5.55 110.0 -6.7 105.7 -3.85 105.1 -2.9 105.3 -2.5 104.75 -2.0 104.5 -2.0 101.6 -1.85 102.35 -1.2 103.3 -0.5 106.0 -1.15 106.3 -0.55 Q106.45 -0.3 106.7 -0.3 L107.4 -0.45 105.8 0.65 102.9 2.15 101.3 1.85 100.85 1.5 100.7 1.4 95.4 -3.05 94.65 -4.45 Q93.95 -5.7 93.7 -6.5 L96.1 -6.8 101.25 -7.35 104.5 -5.05 105.6 -4.35 106.2 -4.65 109.15 -6.7 110.05 -7.45 112.95 -5.8 M96.35 -4.75 L96.3 -4.9 96.25 -4.9 96.35 -4.75 96.6 -3.85 96.75 -3.5 96.95 -3.3 97.35 -2.9 97.85 -2.45 101.35 -2.3 101.65 -2.3 104.75 -2.45 104.6 -2.75 105.4 -3.8 100.8 -3.4 97.3 -3.75 97.05 -3.95 96.35 -4.75 M103.4 -4.95 Q102.6 -4.8 101.1 -4.05 L105.2 -4.1 Q105.05 -4.1 103.65 -4.85 L103.4 -4.95" fill="#e0dfef" fill-rule="evenodd" stroke="none"/>
      <path d="M96.35 -4.75 L97.05 -3.95 97.3 -3.75 100.8 -3.4 105.4 -3.8 104.6 -2.75 104.75 -2.45 101.65 -2.3 101.35 -2.3 97.85 -2.45 97.35 -2.9 96.95 -3.3 96.75 -3.5 96.6 -3.85 96.35 -4.75" fill="#949ab1" fill-rule="evenodd" stroke="none"/>
      <path d="M112.75 -5.55 L110.45 -3.0 109.25 -1.95 107.4 -0.45 106.7 -0.3 Q106.45 -0.3 106.3 -0.55 L106.0 -1.15 103.3 -0.5 102.35 -1.2 101.6 -1.85 104.5 -2.0 104.75 -2.0 105.3 -2.5 105.1 -2.9 105.7 -3.85 110.0 -6.7 112.75 -5.55 M103.4 -4.95 L103.65 -4.85 Q105.05 -4.1 105.2 -4.1 L101.1 -4.05 Q102.6 -4.8 103.4 -4.95" fill="#fffef9" fill-rule="evenodd" stroke="none"/>
      <path d="M121.75 -20.95 Q121.2 -18.55 119.7 -15.0 117.8 -10.5 115.85 -8.0 L115.15 -7.15 114.4 -7.6 M83.8 -17.95 L82.65 -20.0 82.7 -20.15 83.7 -21.75 85.2 -23.95" fill="none" stroke="#700101" stroke-linecap="round" stroke-linejoin="round" stroke-width="1.0"/>
      <path d="M114.4 -7.6 L112.95 -5.8 112.75 -5.55 110.45 -3.0 109.35 -1.9 109.0 -1.55 108.35 -0.9 105.35 1.95 104.75 2.95 104.3 3.6 102.5 3.85 Q100.35 2.95 97.85 1.45 92.45 -1.8 86.85 -6.9 L86.45 -7.55 81.8 -15.3 82.65 -16.45 83.8 -17.95" fill="none" stroke="#625d6d" stroke-linecap="round" stroke-linejoin="round" stroke-width="1.0"/>
      <path d="M54.85 -55.7 L59.4 -55.9 65.7 -56.0 Q67.65 -53.6 69.75 -47.25 L71.1 -42.8 Q71.65 -40.6 71.4 -40.2 L70.4 -36.9 69.75 -34.45 69.5 -33.25 60.95 -35.75 59.2 -36.75 57.6 -37.75 58.85 -40.0 54.9 -43.85 54.15 -44.6 Q50.55 -48.25 49.35 -49.85 L51.9 -50.5 52.7 -50.65 54.3 -54.5 54.85 -55.7" fill="#3e4e67" fill-rule="evenodd" stroke="none"/>
      <path d="M69.75 -34.45 L72.55 -32.65 74.1 -31.6 Q74.5 -29.85 74.5 -26.85 L74.15 -22.4 Q72.75 -22.45 71.75 -23.4 L67.9 -27.7 59.75 -30.0 54.5 -31.4 53.5 -31.7 48.45 -37.6 46.3 -40.1 52.8 -38.4 57.3 -37.25 59.2 -36.75 60.95 -35.75 69.5 -33.25 69.75 -34.45 M70.7 -15.5 L66.0 -19.15 59.4 -21.0 58.5 -21.25 57.4 -26.0 56.9 -27.65 56.4 -28.3 60.75 -27.5 65.8 -26.55 70.85 -21.55 Q71.75 -20.6 73.7 -20.35 L72.05 -17.55 70.7 -15.5 M51.3 -37.2 Q52.2 -35.5 53.0 -34.45 54.0 -33.15 54.75 -33.0 L63.7 -30.75 63.75 -30.75 Q58.7 -33.6 54.45 -35.7 L51.3 -37.2" fill="#f79f33" fill-rule="evenodd" stroke="none"/>
      <path d="M74.1 -31.6 L75.95 -30.4 76.95 -26.1 Q77.35 -24.15 76.95 -21.7 76.5 -19.25 75.85 -17.5 L75.0 -16.0 73.15 -14.3 73.05 -13.95 70.75 -15.5 70.7 -15.5 72.05 -17.55 73.7 -20.35 73.8 -20.6 73.45 -20.55 Q72.35 -20.35 70.15 -22.9 L67.3 -26.2 66.8 -26.7 65.1 -27.1 64.25 -27.3 55.55 -29.5 55.3 -29.55 54.8 -30.15 53.5 -31.7 54.5 -31.4 59.75 -30.0 67.9 -27.7 71.75 -23.4 Q72.75 -22.45 74.15 -22.4 L74.5 -26.85 Q74.5 -29.85 74.1 -31.6" fill="#aa5d0f" fill-rule="evenodd" stroke="none"/>
      <path d="M75.95 -30.4 L75.85 -30.7 80.0 -31.05 Q84.0 -31.05 85.4 -29.05 86.4 -27.6 86.4 -24.35 86.4 -19.05 84.85 -14.6 L84.1 -12.65 Q83.0 -10.3 81.45 -8.9 L80.55 -9.45 Q81.65 -10.85 82.65 -13.0 L82.8 -13.3 Q84.4 -16.85 84.4 -18.65 84.4 -20.1 83.65 -20.05 L79.5 -20.05 79.5 -19.05 Q79.5 -16.9 78.45 -14.9 L78.2 -14.4 Q77.45 -13.1 76.65 -12.65 77.2 -11.75 79.9 -9.9 L80.55 -9.45 79.75 -8.55 Q77.6 -9.5 75.8 -10.75 73.4 -12.4 72.95 -13.7 L73.05 -13.95 73.15 -14.3 75.0 -16.0 75.85 -17.5 Q76.5 -19.25 76.95 -21.7 77.35 -24.15 76.95 -26.1 L75.95 -30.4" fill="#c2c7da" fill-rule="evenodd" stroke="none"/>
      <path d="M58.5 -21.25 L55.75 -22.0 51.85 -24.75 47.4 -27.9 Q45.5 -30.6 43.9 -33.45 44.7 -37.25 45.3 -37.25 47.65 -37.25 51.9 -32.75 L56.7 -27.2 55.55 -29.5 64.25 -27.3 65.1 -27.1 66.8 -26.7 67.3 -26.2 70.15 -22.9 Q72.35 -20.35 73.45 -20.55 L73.8 -20.6 73.7 -20.35 Q71.75 -20.6 70.85 -21.55 L65.8 -26.55 60.75 -27.5 56.4 -28.3 56.9 -27.65 57.4 -26.0 58.5 -21.25 M51.3 -37.2 L54.45 -35.7 Q58.7 -33.6 63.75 -30.75 L63.7 -30.75 54.75 -33.0 Q54.0 -33.15 53.0 -34.45 52.2 -35.5 51.3 -37.2" fill="#fffd85" fill-rule="evenodd" stroke="none"/>
      <path d="M82.3 -19.25 L83.65 -19.05 83.0 -16.1 Q82.5 -14.2 81.75 -13.2 L81.4 -12.9 81.2 -13.35 80.7 -13.95 Q80.05 -14.6 80.05 -14.9 L80.45 -18.0 80.5 -18.15 81.2 -18.8 82.3 -19.25" fill="#fffef9" fill-rule="evenodd" stroke="none"/>
      <path d="M80.55 -9.45 L79.9 -9.9 Q77.2 -11.75 76.65 -12.65 77.45 -13.1 78.2 -14.4 L78.45 -14.9 Q79.5 -16.9 79.5 -19.05 L79.5 -20.05 83.65 -20.05 Q84.4 -20.1 84.4 -18.65 84.4 -16.85 82.8 -13.3 L82.65 -13.0 Q81.65 -10.85 80.55 -9.45 M82.3 -19.25 L81.2 -18.8 80.5 -18.15 80.45 -18.0 80.05 -14.9 Q80.05 -14.6 80.7 -13.95 L81.2 -13.35 81.4 -12.9 81.75 -13.2 Q82.5 -14.2 83.0 -16.1 L83.65 -19.05 82.3 -19.25" fill="#e0dfef" fill-rule="evenodd" stroke="none"/>
      <path d="M57.6 -37.75 Q54.55 -39.65 51.7 -41.7 47.35 -44.85 38.5 -53.2 37.65 -54.6 37.1 -56.0 L45.6 -54.6 52.55 -53.1 53.75 -55.7 54.85 -55.7 54.3 -54.5 52.7 -50.65 51.9 -50.5 49.35 -49.85 Q50.55 -48.25 54.15 -44.6 L54.9 -43.85 58.85 -40.0 57.6 -37.75" fill="#7f9bb3" fill-rule="evenodd" stroke="none"/>
      <path d="M43.9 -33.45 L43.7 -33.75 41.05 -39.0 41.45 -39.9 41.7 -40.3 43.4 -40.4 43.6 -40.4 43.9 -40.4 45.0 -40.5 46.3 -40.1 48.45 -37.6 53.5 -31.7 54.8 -30.15 55.3 -29.55 55.55 -29.5 56.7 -27.2 51.9 -32.75 Q47.65 -37.25 45.3 -37.25 44.7 -37.25 43.9 -33.45" fill="#fffdff" fill-rule="evenodd" stroke="none"/>
      <path d="M54.85 -55.7 L59.4 -55.9 65.7 -56.0 Q67.65 -53.6 69.75 -47.25 L71.1 -42.8 Q71.65 -40.6 71.4 -40.2 L70.4 -36.9 69.75 -34.45 M59.2 -36.75 L57.6 -37.75 Q54.55 -39.65 51.7 -41.7 47.35 -44.85 38.5 -53.2 37.65 -54.6 37.1 -56.0 L45.6 -54.6 52.55 -53.1 53.75 -55.7 54.85 -55.7" fill="none" stroke="#23293c" stroke-linecap="round" stroke-linejoin="round" stroke-width="1.0"/>
      <path d="M69.75 -34.45 L72.55 -32.65 74.1 -31.6 75.95 -30.4 M73.05 -13.95 L70.75 -15.5 70.7 -15.5 66.0 -19.15 59.4 -21.0 58.5 -21.25 55.75 -22.0 51.85 -24.75 47.4 -27.9 Q45.5 -30.6 43.9 -33.45 L43.7 -33.75 41.05 -39.0 41.45 -39.9 41.7 -40.3 43.4 -40.4 43.6 -40.4 43.9 -40.4 44.8 -40.55 45.0 -40.5 46.3 -40.1 52.8 -38.4 57.3 -37.25 59.2 -36.75 M43.9 -40.4 L45.0 -40.5" fill="none" stroke="#6b2e09" stroke-linecap="round" stroke-linejoin="round" stroke-width="1.0"/>
      <path d="M75.95 -30.4 L75.85 -30.7 80.0 -31.05 Q84.0 -31.05 85.4 -29.05 86.4 -27.6 86.4 -24.35 86.4 -19.05 84.85 -14.6 L84.1 -12.65 Q83.0 -10.3 81.45 -8.9 L80.6 -8.2 79.75 -8.55 Q77.6 -9.5 75.8 -10.75 73.4 -12.4 72.95 -13.7 L73.05 -13.95 73.15 -14.3" fill="none" stroke="#625d6d" stroke-linecap="round" stroke-linejoin="round" stroke-width="1.0"/>
      <path d="M110.8 -51.6 L107.45 -54.4 104.75 -56.2 104.5 -56.95 102.35 -62.85 105.9 -60.0 105.25 -60.0 105.2 -60.0 105.15 -59.75 Q105.15 -57.25 110.8 -53.45 L110.85 -54.15 112.1 -52.1 112.55 -51.25 114.35 -47.3 Q113.0 -49.4 111.1 -51.3 L110.8 -51.6 M90.6 -67.1 L91.25 -61.7 92.1 -55.0 Q89.85 -53.5 87.85 -51.2 L86.05 -49.0 Q83.0 -44.8 82.1 -40.5 L80.4 -42.5 Q79.2 -44.25 77.15 -48.5 L75.4 -52.55 75.95 -54.3 77.1 -55.0 78.55 -56.15 80.15 -54.75 Q81.9 -53.6 85.0 -52.4 85.0 -53.05 86.95 -55.0 L88.15 -56.15 Q87.75 -57.3 86.25 -59.5 L86.15 -59.7 Q84.2 -62.45 83.25 -62.9 84.25 -63.5 87.05 -66.0 L88.1 -66.9 89.95 -67.1 90.45 -67.1 90.6 -67.1" fill="#a42629" fill-rule="evenodd" stroke="none"/>
      <path d="M110.85 -54.15 L110.8 -53.45 Q105.15 -57.25 105.15 -59.75 L105.2 -60.0 105.25 -60.0 105.9 -60.0 Q108.7 -57.4 110.85 -54.15 M88.1 -66.9 L87.05 -66.0 Q84.25 -63.5 83.25 -62.9 84.2 -62.45 86.15 -59.7 L86.25 -59.5 Q87.75 -57.3 88.15 -56.15 L86.95 -55.0 Q85.0 -53.05 85.0 -52.4 81.9 -53.6 80.15 -54.75 L78.55 -56.15 77.1 -55.0 75.95 -54.3 Q77.7 -59.45 81.1 -62.9 84.4 -66.25 88.1 -66.9" fill="#f3472f" fill-rule="evenodd" stroke="none"/>
      <path d="M115.1 -42.25 L114.2 -44.75 Q112.85 -48.1 111.0 -51.25 L110.8 -51.6 111.1 -51.3 Q113.0 -49.4 114.35 -47.3 L115.05 -46.1 117.25 -41.6 117.8 -40.0 118.25 -38.05 118.3 -37.75 117.35 -39.4 117.15 -39.7 116.1 -41.1 115.1 -42.25 M87.85 -51.2 L86.8 -47.6 100.0 -44.25 100.45 -53.45 100.1 -60.1 100.0 -61.0 Q103.1 -54.45 104.95 -48.55 L105.35 -47.25 106.8 -41.35 106.9 -40.8 105.9 -47.65 105.85 -48.1 106.1 -47.75 107.85 -45.3 108.55 -44.2 108.5 -42.45 108.2 -39.15 107.9 -37.35 107.55 -35.7 107.45 -35.3 105.85 -36.35 101.6 -39.25 98.3 -41.8 98.1 -41.65 98.0 -41.75 95.95 -44.05 Q92.85 -41.9 90.25 -38.15 88.8 -36.05 87.9 -34.15 L87.35 -34.4 Q83.4 -36.25 81.7 -37.2 81.75 -38.85 82.1 -40.5 83.0 -44.8 86.05 -49.0 L87.85 -51.2" fill="#c2c7da" fill-rule="evenodd" stroke="none"/>
      <path d="M104.5 -56.95 L104.75 -56.2 107.45 -54.4 110.8 -51.6 111.0 -51.25 Q112.85 -48.1 114.2 -44.75 L115.1 -42.25 112.5 -44.6 112.05 -44.95 111.55 -45.3 111.4 -45.4 108.8 -46.75 108.4 -46.95 106.3 -47.9 105.85 -48.15 104.5 -56.95 M90.5 -67.6 L90.4 -68.5 Q88.8 -82.05 88.1 -93.4 L90.15 -91.0 90.35 -90.8 97.3 -75.1 97.75 -71.95 99.0 -63.3 98.95 -63.3 98.1 -66.65 91.95 -81.7 90.5 -67.6 M91.5 -51.6 L93.25 -53.7 Q94.5 -52.65 96.35 -50.0 L97.95 -47.55 Q95.15 -47.35 92.25 -48.25 90.8 -48.7 90.05 -49.1 90.3 -50.0 91.5 -51.6" fill="#fffef9" fill-rule="evenodd" stroke="none"/>
      <path d="M104.5 -56.95 L105.85 -48.15 105.85 -48.1 105.9 -47.65 106.9 -40.8 106.8 -41.35 105.35 -47.25 104.95 -48.55 Q103.1 -54.45 100.0 -61.0 L100.1 -60.1 100.45 -53.45 100.0 -44.25 86.8 -47.6 87.85 -51.2 Q89.85 -53.5 92.1 -55.0 L91.25 -61.7 90.6 -67.1 90.5 -67.6 91.95 -81.7 98.1 -66.65 98.95 -63.3 99.0 -63.3 97.75 -71.95 97.3 -75.1 97.6 -74.4 102.2 -63.25 102.35 -62.85 104.5 -56.95 M91.5 -51.6 Q90.3 -50.0 90.05 -49.1 90.8 -48.7 92.25 -48.25 95.15 -47.35 97.95 -47.55 L96.35 -50.0 Q94.5 -52.65 93.25 -53.7 L91.5 -51.6" fill="#e0dfef" fill-rule="evenodd" stroke="none"/>
      <path d="M105.85 -48.15 L106.3 -47.9 108.4 -46.95 108.8 -46.75 111.4 -45.4 111.55 -45.3 112.05 -44.95 112.5 -44.6 115.1 -42.25 116.1 -41.1 117.15 -39.7 117.35 -39.4 118.3 -37.75 118.3 -36.3 117.8 -35.45 117.55 -35.1 117.4 -34.8 Q116.8 -36.8 115.35 -38.85 L114.25 -40.25 114.2 -40.3 Q111.7 -43.35 108.7 -44.3 L108.55 -44.35 108.55 -44.2 107.85 -45.3 106.1 -47.75 105.85 -48.1 105.85 -48.15 M98.1 -41.65 L95.65 -39.5 Q93.3 -36.95 91.7 -34.55 L90.95 -33.3 90.7 -32.85 89.2 -33.55 87.9 -34.15 Q88.8 -36.05 90.25 -38.15 92.85 -41.9 95.95 -44.05 L98.0 -41.75 98.1 -41.65" fill="#949ab1" fill-rule="evenodd" stroke="none"/>
      <path d="M108.55 -44.2 L108.55 -44.35 108.7 -44.3 Q111.7 -43.35 114.2 -40.3 L114.25 -40.25 115.35 -38.85 Q116.8 -36.8 117.4 -34.8 L117.55 -35.1 117.8 -35.45 117.8 -35.0 117.9 -33.5 117.9 -32.75 Q117.9 -30.75 117.2 -28.35 117.15 -31.2 116.65 -33.05 L116.35 -33.85 Q115.55 -36.05 113.7 -38.05 L112.3 -39.45 109.55 -41.6 108.7 -37.75 108.1 -35.4 107.5 -33.5 106.0 -34.2 105.8 -34.3 104.0 -35.4 Q102.05 -36.65 99.95 -38.6 L96.7 -34.85 96.7 -34.7 97.35 -35.35 Q97.9 -35.75 98.9 -35.75 101.05 -35.75 102.45 -34.55 L103.65 -33.0 103.65 -32.95 Q104.5 -31.4 104.5 -29.95 104.5 -29.0 104.0 -28.05 L103.75 -27.55 104.2 -27.15 Q106.95 -24.45 110.35 -22.4 111.7 -22.4 112.95 -24.25 L114.7 -27.15 115.2 -27.05 116.25 -25.7 115.65 -24.4 114.6 -22.35 Q112.85 -19.1 111.05 -16.75 109.8 -15.75 108.8 -15.75 106.85 -15.75 99.35 -24.5 L99.25 -24.6 98.55 -25.45 Q100.35 -25.95 101.4 -27.65 102.4 -29.2 102.4 -30.55 L102.1 -31.85 101.4 -32.9 100.7 -33.6 Q99.7 -34.4 98.4 -34.4 97.1 -34.4 95.55 -33.4 94.1 -32.45 93.45 -31.0 L90.95 -33.3 91.7 -34.55 Q93.3 -36.95 95.65 -39.5 L98.1 -41.65 98.3 -41.8 101.6 -39.25 105.85 -36.35 107.45 -35.3 107.55 -35.7 107.9 -37.35 108.2 -39.15 108.5 -42.45 108.55 -44.2" fill="#a11e26" fill-rule="evenodd" stroke="none"/>
      <path d="M116.25 -25.7 L115.2 -27.05 114.7 -27.15 112.95 -24.25 Q111.7 -22.4 110.35 -22.4 106.95 -24.45 104.2 -27.15 L103.75 -27.55 104.0 -28.05 Q104.5 -29.0 104.5 -29.95 104.5 -31.4 103.65 -32.95 L103.65 -33.0 102.45 -34.55 Q101.05 -35.75 98.9 -35.75 97.9 -35.75 97.35 -35.35 L96.7 -34.7 96.7 -34.85 99.95 -38.6 Q102.05 -36.65 104.0 -35.4 L105.8 -34.3 106.0 -34.2 107.5 -33.5 108.1 -35.4 108.7 -37.75 109.55 -41.6 112.3 -39.45 113.7 -38.05 Q115.55 -36.05 116.35 -33.85 L116.65 -33.05 Q117.15 -31.2 117.2 -28.35 L117.05 -27.8 116.4 -26.1 116.25 -25.7 M111.2 -31.1 L110.55 -30.35 110.4 -30.25 Q109.2 -29.0 108.45 -29.0 108.4 -29.0 108.1 -29.15 L106.55 -30.15 105.45 -30.95 Q105.5 -29.45 106.1 -28.1 L106.8 -26.75 Q108.1 -24.75 109.75 -24.75 112.55 -24.75 114.7 -31.85 L114.7 -32.25 114.4 -33.95 114.4 -34.45 Q114.4 -36.8 113.45 -37.7 L113.3 -37.85 112.5 -38.3 112.45 -38.3 111.45 -38.4 Q110.55 -38.4 109.75 -37.75 108.85 -37.0 108.75 -35.75 L108.75 -35.45 Q108.75 -32.75 110.25 -31.6 110.65 -31.3 111.2 -31.1" fill="#ee4832" fill-rule="evenodd" stroke="none"/>
      <path d="M93.45 -31.0 Q94.1 -32.45 95.55 -33.4 97.1 -34.4 98.4 -34.4 99.7 -34.4 100.7 -33.6 L101.4 -32.9 102.1 -31.85 102.4 -30.55 Q102.4 -29.2 101.4 -27.65 100.35 -25.95 98.55 -25.45 L96.65 -27.6 94.5 -29.9 93.45 -31.0" fill="#9f1e22" fill-rule="evenodd" stroke="none"/>
      <path d="M114.4 -33.95 L114.7 -32.25 114.7 -31.85 Q112.55 -24.75 109.75 -24.75 108.1 -24.75 106.8 -26.75 L106.1 -28.1 Q105.5 -29.45 105.45 -30.95 L106.55 -30.15 108.1 -29.15 Q108.4 -29.0 108.45 -29.0 109.2 -29.0 110.4 -30.25 L110.55 -30.35 111.2 -31.1 111.85 -30.95 112.4 -30.95 Q113.25 -30.95 113.75 -31.85 L114.0 -32.4 114.4 -33.95" fill="#ffc778" fill-rule="evenodd" stroke="none"/>
      <path d="M114.4 -33.95 L114.0 -32.4 113.75 -31.85 Q113.25 -30.95 112.4 -30.95 L111.85 -30.95 111.2 -31.1 Q110.65 -31.3 110.25 -31.6 108.75 -32.75 108.75 -35.45 L108.75 -35.75 Q108.85 -37.0 109.75 -37.75 110.55 -38.4 111.45 -38.4 L112.45 -38.3 112.5 -38.3 113.3 -37.85 113.45 -37.7 Q114.4 -36.8 114.4 -34.45 L114.4 -33.95" fill="#fffdfb" fill-rule="evenodd" stroke="none"/>
      <path d="M114.35 -47.3 L112.55 -51.25 112.1 -52.1 110.85 -54.15 Q108.7 -57.4 105.9 -60.0 L102.35 -62.85 M75.95 -54.3 L75.4 -52.55 M75.95 -54.3 Q77.7 -59.45 81.1 -62.9 84.4 -66.25 88.1 -66.9 L89.95 -67.1 90.45 -67.1 90.6 -67.1" fill="none" stroke="#700101" stroke-linecap="round" stroke-linejoin="round" stroke-width="1.0"/>
      <path d="M97.3 -75.1 L97.6 -74.4 102.2 -63.25 102.35 -62.85 M90.5 -67.6 L90.4 -68.5 Q88.8 -82.05 88.1 -93.4 L90.15 -91.0 90.35 -90.8 97.3 -75.1 M90.5 -67.6 L90.6 -67.1 M114.35 -47.3 L115.05 -46.1 117.25 -41.6 117.8 -40.0 118.25 -38.05 118.3 -37.75" fill="none" stroke="#625d6d" stroke-linecap="round" stroke-linejoin="round" stroke-width="1.0"/>
      <path d="M120.95 -135.1 L120.8 -133.5 Q120.55 -128.6 120.55 -119.8 120.55 -104.1 120.85 -90.85 L122.6 -86.0 122.7 -85.7 122.8 -85.4 123.7 -82.9 123.75 -81.45 123.75 -76.6 Q123.75 -64.2 123.15 -54.15 L122.75 -48.4 122.45 -45.55 122.1 -42.75 121.1 -40.65 120.2 -38.7 Q119.65 -31.1 116.3 -25.4 113.2 -20.2 110.1 -18.5 112.5 -21.1 114.0 -24.1 115.95 -28.0 116.95 -36.35 L116.9 -38.45 119.8 -44.3 Q120.8 -52.8 121.1 -59.65 L121.4 -78.9 121.15 -81.75 119.25 -87.1 Q118.65 -88.55 118.35 -90.8 L119.9 -132.15 120.0 -132.45 120.25 -133.25 120.9 -135.15 120.95 -135.1 M107.15 -10.15 L107.05 -10.0 Q103.8 -12.1 99.9 -15.3 94.7 -19.65 92.75 -21.55 L85.15 -21.5 81.9 -21.55 Q71.5 -29.6 67.55 -33.1 L67.65 -37.25 Q67.6 -39.7 63.1 -50.6 58.6 -61.5 56.5 -65.7 L53.75 -68.6 50.55 -71.85 46.55 -78.8 Q33.95 -111.15 31.5 -133.9 40.0 -103.1 45.15 -89.8 L48.5 -81.9 51.0 -76.3 Q53.65 -73.5 56.0 -71.4 L59.0 -68.3 59.35 -67.65 Q64.8 -58.2 69.1 -44.1 L70.35 -39.85 70.5 -38.45 70.5 -38.35 70.7 -34.7 Q73.75 -31.65 82.95 -23.7 L87.1 -23.45 92.95 -23.65 Q95.85 -20.15 99.35 -16.8 L103.8 -12.65 Q105.1 -11.3 106.85 -10.3 L107.15 -10.15" fill="#949ab1" fill-rule="evenodd" stroke="none"/>
      <path d="M122.75 -48.4 L123.15 -54.15 Q123.75 -64.2 123.75 -76.6 L123.75 -81.45 123.7 -82.9 122.8 -85.4 122.7 -85.7 122.6 -86.0 120.85 -90.85 Q120.55 -104.1 120.55 -119.8 120.55 -128.6 120.8 -133.5 L120.95 -135.1 Q127.95 -106.15 129.85 -95.45 131.9 -83.5 132.45 -74.95 129.4 -89.8 127.0 -95.25 L126.5 -92.2 126.55 -90.85 126.7 -84.5 126.7 -80.6 126.7 -79.4 Q126.7 -69.4 126.35 -63.75 L126.25 -61.85 126.0 -59.7 125.7 -58.1 124.15 -52.25 122.75 -48.4 M31.5 -133.9 L31.35 -135.35 Q41.35 -124.5 53.0 -109.15 65.2 -93.05 68.9 -85.6 L68.9 -78.75 Q72.0 -67.65 76.85 -56.0 83.3 -40.35 87.55 -37.3 87.95 -37.3 92.55 -34.5 L97.2 -31.45 98.25 -29.7 98.5 -28.5 94.65 -31.55 90.0 -33.35 Q88.65 -33.85 87.65 -34.3 L87.05 -34.85 85.0 -36.8 79.9 -42.4 Q77.2 -45.45 74.05 -50.7 72.3 -53.55 70.4 -57.05 65.6 -65.9 62.65 -73.7 L58.55 -81.55 58.7 -76.3 Q58.95 -71.25 59.35 -67.65 L59.0 -68.3 56.0 -71.4 Q53.65 -73.5 51.0 -76.3 L48.5 -81.9 45.15 -89.8 Q40.0 -103.1 31.5 -133.9" fill="#fffef9" fill-rule="evenodd" stroke="none"/>
      <path d="M122.75 -48.4 L124.15 -52.25 125.7 -58.1 126.0 -59.7 126.25 -61.85 126.35 -63.75 Q126.7 -69.4 126.7 -79.4 L126.7 -80.6 126.7 -84.5 126.55 -90.85 126.5 -92.2 127.0 -95.25 Q129.4 -89.8 132.45 -74.95 L132.5 -74.55 132.3 -73.95 Q131.65 -69.8 130.7 -67.3 129.75 -64.85 129.4 -61.3 L129.1 -57.3 Q128.7 -58.65 128.25 -58.65 127.5 -58.65 126.55 -55.2 125.25 -50.5 122.45 -45.55 L122.75 -48.4 M74.05 -50.7 L73.65 -50.95 Q71.75 -52.25 71.15 -52.25 70.5 -52.25 70.5 -48.85 70.5 -46.65 71.05 -42.65 L71.7 -38.9 Q71.75 -37.4 71.95 -35.95 L71.05 -37.55 70.5 -38.45 70.35 -39.85 69.1 -44.1 Q64.8 -58.2 59.35 -67.65 58.95 -71.25 58.7 -76.3 L58.55 -81.55 62.65 -73.7 Q65.6 -65.9 70.4 -57.05 72.3 -53.55 74.05 -50.7" fill="#e0dfef" fill-rule="evenodd" stroke="none"/>
      <path d="M110.1 -18.5 Q113.2 -20.2 116.3 -25.4 119.65 -31.1 120.2 -38.7 L121.1 -40.65 122.1 -42.75 122.45 -45.55 Q125.25 -50.5 126.55 -55.2 127.5 -58.65 128.25 -58.65 128.7 -58.65 129.1 -57.3 L128.65 -48.35 128.0 -31.0 128.55 -29.55 128.8 -28.85 Q126.35 -25.5 122.85 -21.85 L122.2 -21.2 117.2 -21.65 110.35 -13.55 107.15 -10.15 106.85 -10.3 Q105.1 -11.3 103.8 -12.65 L99.35 -16.8 Q95.85 -20.15 92.95 -23.65 L87.1 -23.45 82.95 -23.7 Q73.75 -31.65 70.7 -34.7 L70.5 -38.35 70.5 -38.45 71.05 -37.55 71.95 -35.95 Q71.75 -37.4 71.7 -38.9 L71.05 -42.65 Q70.5 -46.65 70.5 -48.85 70.5 -52.25 71.15 -52.25 71.75 -52.25 73.65 -50.95 L74.05 -50.7 Q77.2 -45.45 79.9 -42.4 L85.0 -36.8 87.05 -34.85 87.65 -34.3 Q88.65 -33.85 90.0 -33.35 L94.65 -31.55 98.5 -28.5 98.25 -29.7 Q101.0 -25.4 105.05 -21.5 L109.15 -17.95 109.45 -17.75 110.1 -18.5" fill="#c2c7da" fill-rule="evenodd" stroke="none"/>
      <path d="M132.45 -74.95 Q131.9 -83.5 129.85 -95.45 127.95 -106.15 120.95 -135.1 L120.9 -135.15 120.25 -133.25 120.0 -132.45 119.9 -132.15 118.35 -90.8 Q118.65 -88.55 119.25 -87.1 L121.15 -81.75 121.4 -78.9 121.1 -59.65 Q120.8 -52.8 119.8 -44.3 L116.9 -38.45 116.95 -36.35 Q115.95 -28.0 114.0 -24.1 112.5 -21.1 110.1 -18.5 L109.45 -17.75 109.15 -17.95 105.05 -21.5 Q101.0 -25.4 98.25 -29.7 L97.2 -31.45 92.55 -34.5 Q87.95 -37.3 87.55 -37.3 83.3 -40.35 76.85 -56.0 72.0 -67.65 68.9 -78.75 L68.9 -85.6 Q65.2 -93.05 53.0 -109.15 41.35 -124.5 31.35 -135.35 L31.5 -133.9 Q33.95 -111.15 46.55 -78.8 L50.55 -71.85 53.75 -68.6 56.5 -65.7 Q58.6 -61.5 63.1 -50.6 67.6 -39.7 67.65 -37.25 L67.55 -33.1 Q71.5 -29.6 81.9 -21.55 L85.15 -21.5 92.75 -21.55 Q94.7 -19.65 99.9 -15.3 103.8 -12.1 107.05 -10.0 L107.15 -10.15 110.35 -13.55 117.2 -21.65 122.2 -21.2 122.85 -21.85 Q126.35 -25.5 128.8 -28.85 L128.55 -29.55 128.0 -31.0 128.65 -48.35 129.1 -57.3 129.4 -61.3 Q129.75 -64.85 130.7 -67.3 131.65 -69.8 132.3 -73.95 L132.5 -74.55 132.45 -74.95 Z" fill="none" stroke="#625d6d" stroke-linecap="round" stroke-linejoin="round" stroke-width="1.0"/>
      <path d="M55.15 -6.6 L57.75 -6.1 Q64.4 -4.7 67.85 -2.85 L70.4 1.85 70.75 2.65 71.05 4.8 71.5 9.35 71.35 13.7 69.75 13.05 67.65 11.65 64.8 11.0 59.65 10.55 59.45 10.55 59.1 17.4 Q59.2 19.4 58.25 23.2 L57.85 24.8 56.3 24.15 55.7 23.85 53.4 22.55 53.1 21.3 51.9 16.15 51.25 13.2 50.5 12.8 49.0 11.95 42.25 12.6 Q38.7 13.15 37.4 13.9 37.15 9.7 36.5 7.15 34.15 -1.45 32.2 -4.35 L39.45 -5.7 39.85 -5.75 41.7 -4.75 43.15 -3.6 45.1 -1.25 39.9 -0.55 Q37.65 0.0 36.4 0.65 L41.0 1.75 47.3 3.05 47.35 3.2 Q48.75 6.85 49.15 9.95 L50.25 10.15 53.6 11.1 Q54.45 13.7 54.7 21.35 L54.8 22.05 55.4 22.7 56.35 23.2 57.75 24.0 58.0 24.15 57.95 23.35 Q57.8 16.2 56.65 10.95 55.7 6.65 54.15 3.25 L54.2 3.25 Q63.8 3.25 68.85 6.7 67.65 5.0 62.75 2.55 59.95 1.15 57.75 0.25 L57.4 -0.25 52.8 -5.95 53.9 -6.3 55.15 -6.6" fill="#7f9bb3" fill-rule="evenodd" stroke="none"/>
      <path d="M32.2 -4.35 Q34.15 -1.45 36.5 7.15 37.15 9.7 37.4 13.9 38.7 13.15 42.25 12.6 L49.0 11.95 50.5 12.8 51.25 13.2 51.9 16.15 53.1 21.3 53.4 22.55 55.7 23.85 56.3 24.15 57.85 24.8 58.25 23.2 Q59.2 19.4 59.1 17.4 L59.45 10.55 59.65 10.55 64.8 11.0 67.65 11.65 69.75 13.05 71.35 13.7 71.5 9.35 71.05 4.8 70.75 2.65 71.5 4.65 72.9 9.55 Q73.7 13.2 73.7 16.5 L73.45 20.55 73.3 20.6 Q72.55 20.95 72.0 21.35 L71.8 24.4 71.4 30.05 72.3 30.4 72.85 30.65 71.6 35.2 71.0 36.45 67.6 35.6 67.45 35.55 Q63.1 34.4 60.8 33.45 L58.65 29.55 57.75 27.8 58.0 26.05 57.5 26.25 56.6 26.55 53.55 27.55 53.2 27.65 45.0 22.7 36.1 17.2 35.8 17.0 Q35.7 11.45 34.2 5.8 L32.75 0.95 Q32.0 -1.05 31.5 -1.05 31.15 -1.05 30.1 0.0 29.45 0.6 29.15 1.15 L27.25 1.5 28.3 -0.15 Q29.9 -2.6 31.6 -4.2 L32.2 -4.35" fill="#3e4e67" fill-rule="evenodd" stroke="none"/>
      <path d="M70.65 2.0 Q72.35 3.1 74.55 4.9 L75.7 9.3 Q76.5 12.55 76.5 18.75 L76.45 21.0 75.55 19.9 Q75.25 19.45 75.0 17.15 L74.1 11.2 Q73.75 10.15 72.9 9.55 L71.5 4.65 70.75 2.65 70.65 2.0" fill="#f79f33" fill-rule="evenodd" stroke="none"/>
      <path d="M76.45 21.0 Q76.25 26.05 75.15 30.85 74.7 32.85 73.65 34.15 L71.6 35.2 72.85 30.65 72.3 30.4 71.4 30.05 71.8 24.4 72.0 21.35 Q72.55 20.95 73.3 20.6 L73.45 20.55 73.7 16.5 Q73.7 13.2 72.9 9.55 73.75 10.15 74.1 11.2 L75.0 17.15 Q75.25 19.45 75.55 19.9 L76.45 21.0" fill="#aa5d0f" fill-rule="evenodd" stroke="none"/>
      <path d="M15.05 23.3 Q10.6 19.3 7.6 15.55 5.15 12.5 4.1 10.55 8.35 7.05 15.1 4.85 23.15 2.15 27.25 1.5 L29.15 1.15 30.8 1.0 29.6 3.15 28.55 5.4 Q24.3 5.55 17.4 7.4 11.2 9.1 6.75 11.05 7.65 14.35 13.5 21.45 L15.05 23.3" fill="#667282" fill-rule="evenodd" stroke="none"/>
      <path d="M67.45 35.55 L62.85 37.45 57.15 39.45 56.85 39.4 42.7 35.85 32.15 33.5 31.85 33.45 Q27.8 30.75 23.45 26.9 19.6 23.4 18.7 22.15 21.05 21.15 24.3 20.1 30.6 18.1 36.1 17.2 L45.0 22.7 53.2 27.65 53.55 27.55 56.6 26.55 57.5 26.25 58.0 26.05 57.75 27.8 58.65 29.55 60.8 33.45 Q63.1 34.4 67.45 35.55 M30.8 1.0 L29.15 1.15 Q29.45 0.6 30.1 0.0 31.15 -1.05 31.5 -1.05 32.0 -1.05 32.75 0.95 L30.8 1.0" fill="#1d2339" fill-rule="evenodd" stroke="none"/>
      <path d="M31.85 33.45 L31.6 33.4 17.3 25.3 15.45 23.7 15.05 23.3 13.5 21.45 Q7.65 14.35 6.75 11.05 11.2 9.1 17.4 7.4 24.3 5.55 28.55 5.4 L29.6 3.15 30.8 1.0 32.75 0.95 34.2 5.8 Q35.7 11.45 35.8 17.0 L36.1 17.2 Q30.6 18.1 24.3 20.1 21.05 21.15 18.7 22.15 19.6 23.4 23.45 26.9 27.8 30.75 31.85 33.45" fill="#2a3b55" fill-rule="evenodd" stroke="none"/>
      <path d="M54.15 3.25 Q55.7 6.65 56.65 10.95 57.8 16.2 57.95 23.35 L57.75 24.0 56.35 23.2 55.4 22.7 54.8 22.05 56.3 22.25 56.25 17.75 Q55.95 13.6 54.65 9.6 L53.75 9.2 53.25 8.95 Q52.85 5.7 50.7 1.75 48.3 -2.6 45.7 -4.15 L43.15 -3.6 41.7 -4.75 Q44.6 -5.6 44.75 -5.8 L46.6 -5.3 Q47.8 -4.85 49.0 -4.05 52.1 -1.2 54.15 3.25" fill="#a92733" fill-rule="evenodd" stroke="none"/>
      <path d="M54.8 22.05 L54.7 21.35 Q54.45 13.7 53.6 11.1 L50.25 10.15 49.15 9.95 Q48.75 6.85 47.35 3.2 L47.3 3.05 Q46.35 0.6 45.1 -1.25 L43.15 -3.6 45.7 -4.15 Q48.3 -2.6 50.7 1.75 52.85 5.7 53.25 8.95 L53.75 9.2 54.65 9.6 Q55.95 13.6 56.25 17.75 L56.3 22.25 54.8 22.05" fill="#f54a38" fill-rule="evenodd" stroke="none"/>
      <path d="M55.15 -6.6 L53.9 -6.3 52.8 -5.95 57.4 -0.25 57.75 0.25 Q59.95 1.15 62.75 2.55 67.65 5.0 68.85 6.7 63.8 3.25 54.2 3.25 L54.15 3.25 Q52.1 -1.2 49.0 -4.05 47.8 -4.85 46.6 -5.3 L44.75 -5.8 46.05 -7.35 48.4 -7.45 55.15 -6.6 M47.3 3.05 L41.0 1.75 36.4 0.65 Q37.65 0.0 39.9 -0.55 L45.1 -1.25 Q46.35 0.6 47.3 3.05" fill="#afdcef" fill-rule="evenodd" stroke="none"/>
      <path d="M70.4 1.85 L70.65 2.0 Q72.35 3.1 74.55 4.9 L75.7 9.3 Q76.5 12.55 76.5 18.75 L76.45 21.0 Q76.25 26.05 75.15 30.85 74.7 32.85 73.65 34.15 L71.6 35.2" fill="none" stroke="#6b2e09" stroke-linecap="round" stroke-linejoin="round" stroke-width="1.0"/>
      <path d="M70.4 1.85 L67.85 -2.85 Q64.4 -4.7 57.75 -6.1 L55.15 -6.6 48.4 -7.45 46.05 -7.35 44.75 -5.8 M41.7 -4.75 L39.85 -5.75 39.45 -5.7 32.2 -4.35 31.6 -4.2 Q29.9 -2.6 28.3 -0.15 L27.25 1.5 Q23.15 2.15 15.1 4.85 8.35 7.05 4.1 10.55 5.15 12.5 7.6 15.55 10.6 19.3 15.05 23.3 L15.45 23.7 17.3 25.3 31.6 33.4 31.85 33.45 32.15 33.5 42.7 35.85 56.85 39.4 57.15 39.45 62.85 37.45 67.45 35.55 67.6 35.6 71.0 36.45 71.6 35.2" fill="none" stroke="#23293c" stroke-linecap="round" stroke-linejoin="round" stroke-width="1.0"/>
      <path d="M44.75 -5.8 Q44.6 -5.6 41.7 -4.75" fill="none" stroke="#700101" stroke-linecap="round" stroke-linejoin="round" stroke-width="1.0"/>
    </g>
    <g id="shape2" transform="matrix(1.0, 0.0, 0.0, 1.0, 0.0, 0.0)">
      <path d="M50.5 0.0 Q53.95 0.0 53.95 3.3 L53.95 50.15 Q53.95 53.4 50.5 53.4 L3.3 53.4 Q0.0 53.4 0.0 50.15 L0.0 3.3 Q0.0 0.0 3.3 0.0 L50.5 0.0" fill="#000000" fill-opacity="0.003921569" fill-rule="evenodd" stroke="none"/>
    </g>
  </defs>
</svg>
