<?xml version="1.0" encoding="UTF-8" standalone="no"?>
<svg xmlns:ffdec="https://www.free-decompiler.com/flash" xmlns:xlink="http://www.w3.org/1999/xlink" ffdec:objectType="frame" height="67.2px" width="62.1px" xmlns="http://www.w3.org/2000/svg">
  <g transform="matrix(1.0, 0.0, 0.0, 1.0, 6.85, 1.9)">
    <use ffdec:characterId="4" height="67.2" transform="matrix(1.0, 0.0, 0.0, 1.0, -6.85, -1.9)" width="62.1" xlink:href="#sprite0"/>
  </g>
  <defs>
    <g id="sprite0" transform="matrix(1.0, 0.0, 0.0, 1.0, 6.85, 1.9)">
      <clipPath id="clipPath0" transform="matrix(1.0, 0.0, 0.0, 1.0, 0.0, 0.0)">
        <path d="M50.5 0.0 Q53.95 0.0 53.95 3.3 L53.95 50.15 Q53.95 53.4 50.5 53.4 L3.3 53.4 Q0.0 53.4 0.0 50.15 L0.0 3.3 Q0.0 0.0 3.3 0.0 L50.5 0.0" fill="#000000" fill-rule="evenodd" stroke="none"/>
      </clipPath>
      <g clip-path="url(#clipPath0)">
        <use ffdec:characterId="2" height="127.4" transform="matrix(0.5274, 0.0, 0.0, 0.5274, -6.8407, -1.8944)" width="117.75" xlink:href="#shape1"/>
      </g>
      <use ffdec:characterId="3" height="53.4" transform="matrix(1.0, 0.0, 0.0, 1.0, 0.0, 0.0)" width="53.95" xlink:href="#shape2"/>
    </g>
    <g id="shape1" transform="matrix(1.0, 0.0, 0.0, 1.0, -32.25, 85.5)">
      <path d="M103.6 9.75 L102.95 9.25 Q102.95 8.6 104.05 7.55 L106.5 5.55 Q110.1 3.05 111.75 3.15 L119.7 6.15 Q121.25 6.25 121.95 3.3 122.7 0.35 123.95 0.4 124.8 0.45 126.5 1.35 127.95 2.0 129.2 3.0 L130.3 3.9 130.3 4.9 130.25 5.35 129.25 5.05 127.95 4.75 Q126.9 4.7 124.75 6.7 122.6 8.75 121.55 8.7 120.15 8.65 116.6 7.35 113.1 6.0 112.9 6.0 L110.45 6.25 106.4 8.4 103.6 9.75" fill="#fc6009" fill-rule="evenodd" stroke="none"/>
      <path d="M103.6 9.75 L106.4 8.4 110.45 6.25 112.9 6.0 Q113.1 6.0 116.6 7.35 120.15 8.65 121.55 8.7 122.6 8.75 124.75 6.7 126.9 4.7 127.95 4.75 L129.25 5.05 130.25 5.35 130.3 4.9 132.1 5.9 132.1 6.0 133.15 6.35 132.3 10.35 132.9 12.5 129.3 13.9 124.1 16.1 121.0 16.0 Q118.0 15.7 116.05 14.7 L114.0 14.6 Q114.25 20.9 119.15 26.65 121.9 29.85 131.35 37.5 L134.85 40.5 126.4 40.5 Q118.55 34.9 108.1 25.7 107.25 20.75 106.15 16.7 L105.4 14.2 105.7 12.5 105.9 11.35 103.6 9.75" fill="#a34b07" fill-rule="evenodd" stroke="none"/>
      <path d="M132.1 5.9 Q132.7 5.1 133.35 5.05 L133.5 5.05 135.35 5.85 136.45 7.4 Q139.55 11.8 142.4 18.45 L143.55 23.7 Q144.8 29.1 144.65 33.45 L144.45 35.6 142.95 35.85 141.65 32.05 Q140.5 28.55 136.05 19.4 L132.9 12.5 132.3 10.35 133.15 6.35 132.1 6.0 132.1 5.9" fill="#fffd85" fill-rule="evenodd" stroke="none"/>
      <path d="M144.45 40.5 L134.85 40.5 131.35 37.5 Q121.9 29.85 119.15 26.65 114.25 20.9 114.0 14.6 L116.05 14.7 Q118.0 15.7 121.0 16.0 L124.1 16.1 129.3 13.9 132.9 12.5 136.05 19.4 Q140.5 28.55 141.65 32.05 L142.95 35.85 142.65 35.9 143.8 38.6 144.45 40.5" fill="#792f1b" fill-rule="evenodd" stroke="none"/>
      <path d="M142.4 18.45 Q145.2 25.05 147.65 33.75 L149.5 40.5 144.45 40.5 143.8 38.6 142.65 35.9 142.95 35.85 144.45 35.6 144.65 33.45 Q144.8 29.1 143.55 23.7 L142.4 18.45 M126.4 40.5 L124.05 40.5 122.55 39.45 117.45 35.75 104.55 25.9 103.95 23.35 Q103.05 19.7 103.15 17.9 L103.4 15.15 105.3 14.85 105.4 14.2 106.15 16.7 Q107.25 20.75 108.1 25.7 118.55 34.9 126.4 40.5" fill="#f3a135" fill-rule="evenodd" stroke="none"/>
      <path d="M130.3 4.9 L130.3 3.9 129.2 3.0 Q127.95 2.0 126.5 1.35 124.8 0.45 123.95 0.4 122.7 0.35 121.95 3.3 121.25 6.25 119.7 6.15 L111.75 3.15 Q110.1 3.05 106.5 5.55 L104.05 7.55 Q102.95 8.6 102.95 9.25 L103.6 9.75 105.9 11.35 105.7 12.5 105.4 14.2 105.3 14.85 M130.3 4.9 L132.1 5.9" fill="none" stroke="#8e2a0e" stroke-linecap="round" stroke-linejoin="round" stroke-width="1.0"/>
      <path d="M132.1 5.9 Q132.7 5.1 133.35 5.05 L133.5 5.05 135.35 5.85 136.45 7.4 Q139.55 11.8 142.4 18.45 145.2 25.05 147.65 33.75 L149.5 40.5 M124.05 40.5 L122.55 39.45 117.45 35.75 104.55 25.9 103.95 23.35 Q103.05 19.7 103.15 17.9 L103.4 15.15 105.3 14.85" fill="none" stroke="#6d4220" stroke-linecap="round" stroke-linejoin="round" stroke-width="1.0"/>
      <path d="M44.7 -17.05 L54.5 -16.1 Q59.9 -14.45 65.05 -7.7 72.65 2.2 76.25 12.55 79.3 20.95 79.1 27.9 78.95 33.2 71.35 39.55 L44.7 39.55 44.7 -17.05" fill="#3e508a" fill-rule="evenodd" stroke="none"/>
      <path d="M44.7 -17.05 L54.5 -16.1 Q59.9 -14.45 65.05 -7.7 72.65 2.2 76.25 12.55 79.3 20.95 79.1 27.9 78.95 33.2 71.35 39.55" fill="none" stroke="#2d3556" stroke-linecap="round" stroke-linejoin="round" stroke-width="1.0"/>
      <path d="M69.55 -54.15 Q68.0 -56.0 66.75 -59.65 65.2 -63.95 65.25 -67.1 67.75 -74.95 67.9 -76.7 L67.9 -76.55 Q68.75 -76.05 70.35 -72.6 71.95 -68.9 77.4 -65.35 L76.75 -70.65 76.85 -74.2 83.85 -71.35 Q90.25 -68.8 92.75 -66.6 L92.75 -67.0 Q92.95 -68.35 92.7 -68.9 L92.45 -69.6 Q92.55 -70.35 95.35 -76.1 96.4 -75.2 98.5 -74.4 100.1 -73.75 101.95 -73.25 L102.65 -70.65 Q103.4 -66.8 103.3 -63.9 102.7 -42.2 78.7 -33.4 L78.35 -33.3 Q64.0 -28.15 43.75 -27.9 L43.75 -54.8 44.1 -54.8 Q46.3 -54.75 48.7 -52.0 L48.7 -52.2 47.6 -53.4 Q46.9 -54.55 46.95 -56.45 47.0 -58.5 47.65 -58.9 L43.75 -63.2 43.75 -68.95 46.3 -67.55 51.3 -65.8 Q53.05 -65.2 54.65 -63.65 58.05 -60.7 61.15 -54.3 L65.1 -53.15 Q65.15 -53.85 64.6 -55.15 64.15 -56.5 64.2 -57.4 65.5 -55.95 66.35 -55.6 67.8 -55.25 69.55 -54.15 L69.95 -53.65 69.95 -53.85 69.55 -54.15" fill="#138fcf" fill-rule="evenodd" stroke="none"/>
      <path d="M95.35 -76.1 Q92.55 -70.35 92.45 -69.6 L92.7 -68.9 Q92.95 -68.35 92.75 -67.0 L92.75 -66.6 Q90.25 -68.8 83.85 -71.35 L76.85 -74.2 76.75 -70.65 77.4 -65.35 Q71.95 -68.9 70.35 -72.6 68.75 -76.05 67.9 -76.55 L67.9 -76.7 Q67.75 -74.95 65.25 -67.1 65.2 -63.95 66.75 -59.65 68.0 -56.0 69.55 -54.15 67.8 -55.25 66.35 -55.6 65.5 -55.95 64.2 -57.4 64.15 -56.5 64.6 -55.15 65.15 -53.85 65.1 -53.15 L61.15 -54.3 Q58.05 -60.7 54.65 -63.65 53.05 -65.2 51.3 -65.8 L46.3 -67.55 43.75 -68.95 43.75 -83.2 46.6 -83.45 Q54.65 -83.25 60.45 -77.7 L61.6 -76.55 Q64.5 -73.65 64.8 -71.8 L64.75 -77.3 64.75 -78.05 Q64.5 -82.95 63.95 -84.8 L63.95 -85.0 Q64.4 -82.4 71.8 -80.1 75.65 -78.8 81.7 -77.0 L87.75 -73.2 Q91.0 -70.95 91.6 -70.6 L90.95 -73.4 90.7 -76.75 90.9 -76.7 90.9 -76.85 Q90.95 -77.3 92.9 -78.65 L95.25 -80.35 95.45 -80.35 Q94.55 -79.65 94.5 -77.75 94.5 -76.9 95.35 -76.1 M43.75 -63.2 L47.65 -58.9 Q47.0 -58.5 46.95 -56.45 46.9 -54.55 47.6 -53.4 L48.7 -52.2 48.7 -52.0 Q46.3 -54.75 44.1 -54.8 L43.75 -54.8 43.75 -63.2" fill="#56c8fa" fill-rule="evenodd" stroke="none"/>
      <path d="M43.75 -27.9 Q64.0 -28.15 78.35 -33.3 L78.7 -33.4 Q102.7 -42.2 103.3 -63.9 103.4 -66.8 102.65 -70.65 L101.95 -73.25 Q100.1 -73.75 98.5 -74.4 96.4 -75.2 95.35 -76.1 94.5 -76.9 94.5 -77.75 94.55 -79.65 95.45 -80.35 L95.25 -80.35 92.9 -78.65 Q90.95 -77.3 90.9 -76.85 L90.9 -76.7 90.7 -76.75 90.95 -73.4 91.6 -70.6 Q91.0 -70.95 87.75 -73.2 L81.7 -77.0 Q75.65 -78.8 71.8 -80.1 64.4 -82.4 63.95 -85.0 L63.95 -84.8 Q64.5 -82.95 64.75 -78.05 L64.75 -77.3 64.8 -71.8 Q64.5 -73.65 61.6 -76.55 L60.45 -77.7 Q54.65 -83.25 46.6 -83.45 L43.75 -83.2" fill="none" stroke="#184380" stroke-linecap="round" stroke-linejoin="round" stroke-width="1.0"/>
      <path d="M133.7 27.85 L133.85 27.95 128.6 28.7 123.7 30.0 Q124.35 30.2 126.05 32.4 L123.8 32.5 122.65 32.35 120.15 32.2 118.55 32.25 Q115.65 32.0 114.15 30.25 111.15 26.55 110.5 15.4 L110.25 9.9 110.1 5.85 Q110.25 -1.1 111.9 -7.75 L112.8 -8.5 Q117.35 -8.75 124.35 -3.7 L127.5 -1.15 129.25 3.0 129.3 3.25 128.5 2.95 Q125.35 1.7 124.55 1.75 127.05 7.2 128.9 13.4 129.7 16.4 130.85 16.35 L132.95 16.05 134.05 15.5 134.25 15.5 Q133.45 17.25 126.75 20.15 L126.5 20.15 129.95 20.3 131.8 20.5 Q131.8 20.2 132.8 20.15 L133.0 20.2 131.7 21.85 130.5 23.55 127.45 23.7 128.0 24.1 127.1 24.0 Q124.55 23.7 123.95 23.25 123.7 27.15 131.5 27.75 L133.7 27.85" fill="#138fcf" fill-rule="evenodd" stroke="none"/>
      <path d="M129.3 3.25 L129.3 3.3 Q130.55 6.85 131.2 10.0 L133.25 9.9 Q136.05 8.8 137.9 7.05 L139.6 5.1 139.75 12.45 139.3 15.45 138.45 17.85 137.05 20.6 Q135.9 22.5 132.6 23.15 L130.5 23.55 131.7 21.85 133.0 20.2 132.8 20.15 Q131.8 20.2 131.8 20.5 L129.95 20.3 126.5 20.15 126.75 20.15 Q133.45 17.25 134.25 15.5 L134.05 15.5 132.95 16.05 130.85 16.35 Q129.7 16.4 128.9 13.4 127.05 7.2 124.55 1.75 125.35 1.7 128.5 2.95 L129.3 3.25 M128.0 24.1 L130.5 25.6 Q133.15 27.3 133.7 27.85 L131.5 27.75 Q123.7 27.15 123.95 23.25 124.55 23.7 127.1 24.0 L128.0 24.1" fill="#56c8fa" fill-rule="evenodd" stroke="none"/>
      <path d="M133.7 27.85 L133.85 27.95 128.6 28.7 123.7 30.0 Q124.35 30.2 126.05 32.4 L123.8 32.5 122.65 32.35 120.15 32.2 118.55 32.25 Q115.65 32.0 114.15 30.25 111.15 26.55 110.5 15.4 L110.25 9.9 110.1 5.85 Q110.25 -1.1 111.9 -7.75 L112.8 -8.5 Q117.35 -8.75 124.35 -3.7 L127.5 -1.15 129.25 3.0 129.3 3.25 129.3 3.3 Q130.55 6.85 131.2 10.0 L133.25 9.9 Q136.05 8.8 137.9 7.05 L139.6 5.1 139.75 12.45 139.3 15.45 138.45 17.85 137.05 20.6 Q135.9 22.5 132.6 23.15 L130.5 23.55 127.45 23.7 128.0 24.1 130.5 25.6 Q133.15 27.3 133.7 27.85 Z" fill="none" stroke="#184380" stroke-linecap="round" stroke-linejoin="round" stroke-width="1.0"/>
      <path d="M116.8 3.2 L116.5 3.35 Q115.0 6.15 112.75 8.9 L112.25 9.45 113.75 10.65 Q114.55 11.75 114.5 12.3 114.5 13.0 113.2 14.4 L112.75 14.9 115.6 17.85 115.85 17.9 115.85 17.5 118.5 15.65 Q121.2 13.65 121.2 12.7 120.05 2.3 119.2 2.25 118.2 2.25 116.8 3.2 M116.65 0.45 L117.1 0.05 118.05 -0.35 Q120.0 -0.25 121.85 6.75 123.3 12.5 123.25 14.0 123.25 15.3 121.2 16.95 118.7 18.9 113.2 21.35 112.8 21.35 111.55 19.55 L109.65 16.8 109.4 16.45 107.9 14.55 Q107.15 13.45 107.2 12.05 107.3 9.75 111.7 5.1 114.6 2.1 116.65 0.45" fill="#5c9117" fill-rule="evenodd" stroke="none"/>
      <path d="M107.6 6.75 L109.05 4.85 Q114.1 -1.05 115.1 -1.0 115.8 -1.0 116.65 0.45 114.6 2.1 111.7 5.1 107.3 9.75 107.2 12.05 107.15 13.45 107.9 14.55 L109.4 16.45 109.65 16.8 111.05 19.95 Q112.55 23.1 112.5 24.25 113.25 23.55 116.2 22.45 118.65 21.5 119.75 19.45 L120.75 21.1 117.9 23.95 117.5 24.2 113.0 28.05 110.15 24.7 107.4 21.35 Q103.75 16.65 103.8 13.6 103.9 11.45 107.6 6.75" fill="#f3a135" fill-rule="evenodd" stroke="none"/>
      <path d="M116.6 7.9 Q116.35 7.15 116.4 6.05 116.45 4.95 116.65 4.3 L116.8 4.05 Q117.65 3.25 118.25 3.3 120.05 3.35 119.95 5.65 119.9 6.85 119.25 7.9 118.6 8.95 117.95 8.95 117.5 9.0 117.05 8.65 L116.6 7.9 M119.0 12.05 L119.75 12.35 119.3 13.6 Q118.65 14.6 117.4 15.15 L117.4 14.75 118.45 12.35 119.0 12.05" fill="#def3d4" fill-rule="evenodd" stroke="none"/>
      <path d="M116.8 3.2 Q118.2 2.25 119.2 2.25 120.05 2.3 121.2 12.7 121.2 13.65 118.5 15.65 L115.85 17.5 115.85 17.9 115.6 17.85 112.75 14.9 113.2 14.4 Q114.5 13.0 114.5 12.3 114.55 11.75 113.75 10.65 L112.25 9.45 112.75 8.9 Q115.0 6.15 116.5 3.35 L116.8 3.2 M119.25 7.9 Q119.9 6.85 119.95 5.65 120.05 3.35 118.25 3.3 117.65 3.25 116.8 4.05 L116.65 4.3 Q116.45 4.95 116.4 6.05 116.35 7.15 116.6 7.9 115.9 8.35 115.45 8.75 L116.35 9.5 Q117.1 10.4 117.1 11.4 L116.7 13.05 116.35 13.9 116.35 14.1 117.75 12.8 118.0 12.55 118.65 11.75 Q119.15 10.65 119.25 7.9 M119.0 12.05 L118.45 12.35 117.4 14.75 117.4 15.15 Q118.65 14.6 119.3 13.6 L119.75 12.35 119.0 12.05" fill="#5fbb31" fill-rule="evenodd" stroke="none"/>
      <path d="M117.9 23.95 Q120.3 26.8 121.5 29.6 121.85 30.4 123.2 30.7 L123.0 30.8 Q120.85 31.8 118.3 33.85 117.55 33.1 116.0 32.2 L112.75 30.35 112.95 30.55 Q114.2 33.4 114.95 33.95 114.85 33.95 114.8 34.05 L114.75 34.15 Q113.1 33.25 110.0 32.15 110.0 31.7 109.8 31.7 L109.55 31.9 Q109.4 33.75 106.6 33.75 L103.45 33.45 Q103.3 35.25 105.15 35.65 L108.35 36.25 Q107.15 37.4 106.05 39.55 L97.85 39.55 Q100.2 34.05 102.05 30.9 103.7 28.05 108.25 25.6 109.25 25.1 110.15 24.7 L113.0 28.05 117.5 24.2 117.9 23.95 M127.9 30.8 L128.9 30.6 Q128.7 32.7 126.7 35.0 124.85 37.1 123.1 37.35 124.6 38.05 125.7 39.55 L125.35 39.55 123.3 37.95 Q119.85 35.8 119.75 35.55 120.55 35.35 124.8 32.8 L127.9 30.8 M123.1 37.35 L122.6 37.15 122.6 37.35 123.1 37.35" fill="#fc6009" fill-rule="evenodd" stroke="none"/>
      <path d="M123.2 30.7 L124.9 30.9 126.95 30.85 127.9 30.8 124.8 32.8 Q120.55 35.35 119.75 35.55 119.85 35.8 123.3 37.95 L125.35 39.55 106.05 39.55 Q107.15 37.4 108.35 36.25 L105.15 35.65 Q103.3 35.25 103.45 33.45 L106.6 33.75 Q109.4 33.75 109.55 31.9 L109.8 31.7 Q110.0 31.7 110.0 32.15 113.1 33.25 114.75 34.15 L114.8 34.05 Q114.85 33.95 114.95 33.95 114.2 33.4 112.95 30.55 L112.75 30.35 116.0 32.2 Q117.55 33.1 118.3 33.85 120.85 31.8 123.0 30.8 L123.2 30.7" fill="#fccd58" fill-rule="evenodd" stroke="none"/>
      <path d="M116.6 7.9 L117.05 8.65 Q117.5 9.0 117.95 8.95 118.6 8.95 119.25 7.9 119.15 10.65 118.65 11.75 L118.0 12.55 117.75 12.8 116.35 14.1 116.35 13.9 116.7 13.05 117.1 11.4 Q117.1 10.4 116.35 9.5 L115.45 8.75 Q115.9 8.35 116.6 7.9" fill="#37e98c" fill-rule="evenodd" stroke="none"/>
      <path d="M121.2 16.95 L121.85 19.4 Q121.85 19.9 120.75 21.1 L119.75 19.45 Q118.65 21.5 116.2 22.45 113.25 23.55 112.5 24.25 112.55 23.1 111.05 19.95 L109.65 16.8 111.55 19.55 Q112.8 21.35 113.2 21.35 118.7 18.9 121.2 16.95" fill="#fffd85" fill-rule="evenodd" stroke="none"/>
      <path d="M97.85 39.55 L94.95 39.55 94.75 39.25 Q95.3 37.45 96.15 35.35 L101.5 27.7 101.5 27.4 Q102.7 26.7 103.95 26.75 104.4 26.75 104.65 26.9 L103.15 25.85 101.8 24.75 Q101.5 24.45 100.15 20.65 98.75 16.85 98.1 16.1 L94.85 17.9 90.45 14.85 Q94.15 12.7 96.45 11.6 L101.95 9.5 Q104.25 8.65 107.6 6.75 103.9 11.45 103.8 13.6 103.75 16.65 107.4 21.35 L110.15 24.7 Q109.25 25.1 108.25 25.6 103.7 28.05 102.05 30.9 100.2 34.05 97.85 39.55 M67.2 39.55 L58.15 39.55 59.25 34.9 70.85 27.2 73.2 28.5 74.45 29.3 74.65 29.45 73.4 32.05 Q71.3 36.05 67.2 39.55 M77.1 23.05 L83.55 18.95 87.55 22.05 82.15 25.05 81.1 25.7 Q79.1 24.15 77.1 23.05" fill="#b4bfc3" fill-rule="evenodd" stroke="none"/>
      <path d="M90.15 39.55 L84.65 39.55 88.6 37.6 Q89.05 38.7 90.15 39.55 M73.85 39.55 L67.2 39.55 Q71.3 36.05 73.4 32.05 L74.65 29.45 Q77.35 31.2 77.3 32.1 L75.55 36.7 74.7 38.9 73.85 39.55 M87.55 22.05 L92.0 25.5 92.4 25.8 94.4 27.7 94.2 28.0 Q91.65 28.9 87.7 30.5 L86.55 31.0 Q86.3 30.2 85.05 28.9 84.05 27.9 82.35 26.6 L81.1 25.7 82.15 25.05 87.55 22.05 M94.85 17.9 L98.1 16.1 Q98.75 16.85 100.15 20.65 101.5 24.45 101.8 24.75 L103.15 25.85 104.65 26.9 Q104.4 26.75 103.95 26.75 102.7 26.7 101.5 27.4 101.3 25.8 99.4 23.0 L99.05 22.5 Q97.25 20.05 94.85 17.9 M96.15 35.35 Q95.3 37.45 94.75 39.25 94.3 38.45 94.3 37.85 L96.15 35.35" fill="#e1e5e4" fill-rule="evenodd" stroke="none"/>
      <path d="M94.95 39.55 L90.15 39.55 Q89.05 38.7 88.6 37.6 L88.6 37.55 Q96.45 33.2 96.9 27.15 L94.2 28.0 94.4 27.7 92.4 25.8 92.0 25.5 87.55 22.05 83.55 18.95 Q87.4 16.5 90.45 14.85 L94.85 17.9 Q97.25 20.05 99.05 22.5 L99.4 23.0 Q101.3 25.8 101.5 27.4 L101.5 27.7 96.15 35.35 94.3 37.85 Q94.3 38.45 94.75 39.25 L94.95 39.55 M70.85 27.2 L76.6 23.45 Q76.85 23.2 77.1 23.05 79.1 24.15 81.1 25.7 L82.35 26.6 Q84.05 27.9 85.05 28.9 86.3 30.2 86.55 31.0 L82.0 32.75 75.95 37.95 74.7 38.9 75.55 36.7 77.3 32.1 Q77.35 31.2 74.65 29.45 L74.45 29.3 73.2 28.5 70.85 27.2" fill="#494472" fill-rule="evenodd" stroke="none"/>
      <path d="M81.9 39.55 L74.45 39.55 74.7 38.9 75.95 37.95 82.0 32.75 86.55 31.0 86.55 31.25 Q86.5 32.35 84.0 36.3 L81.9 39.55 M94.2 28.0 L96.9 27.15 Q96.45 33.2 88.6 37.55 L88.6 37.6 Q88.3 36.8 88.3 35.9 88.3 35.4 91.35 31.65 L94.2 28.0" fill="#686895" fill-rule="evenodd" stroke="none"/>
      <path d="M84.65 39.55 L81.9 39.55 84.0 36.3 Q86.5 32.35 86.55 31.25 L86.55 31.0 87.7 30.5 Q91.65 28.9 94.2 28.0 L91.35 31.65 Q88.3 35.4 88.3 35.9 88.3 36.8 88.6 37.6 L84.65 39.55 M74.45 39.55 L73.85 39.55 74.7 38.9 74.45 39.55" fill="#f9f9f9" fill-rule="evenodd" stroke="none"/>
      <path d="M116.65 0.45 L117.1 0.05 118.05 -0.35 Q120.0 -0.25 121.85 6.75 123.3 12.5 123.25 14.0 123.25 15.3 121.2 16.95" fill="none" stroke="#3d4f02" stroke-linecap="round" stroke-linejoin="round" stroke-width="1.0"/>
      <path d="M107.6 6.75 L109.05 4.85 Q114.1 -1.05 115.1 -1.0 115.8 -1.0 116.65 0.45 M121.2 16.95 L121.85 19.4 Q121.85 19.9 120.75 21.1 L117.9 23.95" fill="none" stroke="#6d4220" stroke-linecap="round" stroke-linejoin="round" stroke-width="1.0"/>
      <path d="M117.9 23.95 Q120.3 26.8 121.5 29.6 121.85 30.4 123.2 30.7 L124.9 30.9 126.95 30.85 127.9 30.8 128.9 30.6 Q128.7 32.7 126.7 35.0 124.85 37.1 123.1 37.35 124.6 38.05 125.7 39.55 M123.1 37.35 L122.6 37.35 122.6 37.15 123.1 37.35" fill="none" stroke="#772b06" stroke-linecap="round" stroke-linejoin="round" stroke-width="1.0"/>
      <path d="M58.15 39.55 L59.25 34.9 70.85 27.2 76.6 23.45 Q76.85 23.2 77.1 23.05 L83.55 18.95 Q87.4 16.5 90.45 14.85 94.15 12.7 96.45 11.6 L101.95 9.5 Q104.25 8.65 107.6 6.75" fill="none" stroke="#414d58" stroke-linecap="round" stroke-linejoin="round" stroke-width="1.0"/>
      <path d="M47.9 26.15 L48.8 25.15 Q50.65 22.7 51.45 18.4 52.6 12.15 53.0 11.2 54.25 7.4 57.3 4.65 56.15 5.4 53.0 6.4 L46.1 8.3 Q46.35 7.7 47.5 6.4 L48.75 5.0 43.95 4.4 Q41.15 3.65 37.3 1.55 L40.4 0.65 Q42.8 -0.05 45.35 -1.6 45.15 -2.3 45.85 -4.85 L47.05 -8.85 46.85 -8.85 44.95 -8.3 42.85 -7.9 Q40.1 -7.95 38.65 -9.1 L35.05 -12.45 32.75 -14.1 39.2 -16.85 Q47.5 -22.2 48.95 -22.95 53.7 -25.35 61.0 -27.1 67.2 -28.55 78.8 -29.8 L85.15 -30.35 98.6 -31.95 98.65 -31.95 98.65 -32.05 Q102.9 -31.9 108.35 -30.35 116.5 -27.95 123.0 -26.75 L122.95 -25.7 Q120.15 -7.7 117.55 -1.25 115.5 3.8 111.95 8.45 L111.6 8.95 Q107.65 13.95 101.95 18.5 L99.2 20.6 100.4 19.35 Q108.85 10.45 110.4 1.9 L109.05 2.95 Q107.85 4.0 107.45 4.0 L107.5 2.7 107.95 0.7 107.75 0.7 103.5 3.75 Q98.9 6.8 96.8 8.3 L96.8 8.05 Q96.6 7.85 96.65 7.45 96.7 5.55 97.4 3.75 L98.05 1.85 Q93.7 2.6 92.9 5.2 90.9 11.55 89.55 13.75 88.1 16.15 80.25 18.1 L78.5 18.55 Q71.1 20.5 68.8 22.15 72.75 18.2 75.95 15.5 L79.35 12.75 Q80.85 11.35 82.9 4.35 L76.8 9.65 Q75.95 10.25 73.5 11.25 L67.35 13.3 Q65.05 14.0 62.25 17.7 60.3 20.3 58.7 23.35 L58.55 21.0 58.55 20.95 Q57.15 25.65 53.9 26.95 48.35 27.95 44.7 29.8 L45.3 29.25 47.35 28.3 Q47.85 28.0 47.9 26.55 L47.9 26.15 M63.5 -3.05 L62.85 -2.85 59.95 -1.85 58.75 -1.4 55.15 0.4 58.6 0.4 61.15 0.7 61.2 0.6 61.25 0.8 Q62.9 0.7 63.8 -0.25 L65.0 -1.55 67.85 -4.7 63.9 -3.2 63.5 -3.05 M71.75 -4.65 L71.1 -5.65 Q68.5 -3.2 67.1 0.05 L66.4 1.65 Q64.45 7.35 64.15 7.55 L64.15 7.75 71.6 4.35 72.6 3.85 Q74.35 3.0 74.35 2.6 74.35 2.35 75.2 1.8 76.0 1.25 76.95 0.85 75.15 0.6 74.55 -0.05 L73.7 -1.8 Q73.05 -1.85 70.3 0.0 L70.05 0.0 73.25 -2.85 71.75 -4.65 M110.85 1.65 L111.05 1.55 110.85 1.55 110.85 1.65 M58.65 20.4 L59.05 18.35 58.75 19.55 58.65 20.4" fill="#138fcf" fill-rule="evenodd" stroke="none"/>
      <path d="M47.9 26.15 L47.9 26.55 Q47.85 28.0 47.35 28.3 L45.3 29.25 44.7 29.8 Q48.35 27.95 53.9 26.95 57.15 25.65 58.55 20.95 L58.55 21.0 58.7 23.35 Q60.3 20.3 62.25 17.7 65.05 14.0 67.35 13.3 L73.5 11.25 Q75.95 10.25 76.8 9.65 L82.9 4.35 Q80.85 11.35 79.35 12.75 L75.95 15.5 Q72.75 18.2 68.8 22.15 71.1 20.5 78.5 18.55 L80.25 18.1 Q88.1 16.15 89.55 13.75 90.9 11.55 92.9 5.2 93.7 2.6 98.05 1.85 L97.4 3.75 Q96.7 5.55 96.65 7.45 96.6 7.85 96.8 8.05 L96.8 8.3 Q98.9 6.8 103.5 3.75 L107.75 0.7 107.95 0.7 107.5 2.7 107.45 4.0 Q107.85 4.0 109.05 2.95 L110.4 1.9 Q108.85 10.45 100.4 19.35 L99.2 20.6 Q94.8 23.5 90.65 24.4 L87.4 25.15 80.6 26.65 75.7 27.2 Q73.25 27.6 71.0 31.45 69.65 33.8 63.6 37.5 56.95 41.5 53.1 41.4 L49.55 41.1 Q49.7 39.2 52.4 34.2 53.8 31.4 55.15 30.05 L51.75 31.2 45.8 31.55 42.0 31.0 40.25 30.55 40.45 30.55 Q45.3 28.8 47.9 26.15 M71.75 -4.65 L73.25 -2.85 70.05 0.0 70.3 0.0 Q73.05 -1.85 73.7 -1.8 L74.55 -0.05 Q75.15 0.6 76.95 0.85 76.0 1.25 75.2 1.8 74.35 2.35 74.35 2.6 74.35 3.0 72.6 3.85 L71.6 4.35 64.15 7.75 64.15 7.55 Q64.45 7.35 66.4 1.65 L67.1 0.05 Q68.5 -3.2 71.1 -5.65 L71.75 -4.65 M63.5 -3.05 L63.9 -3.2 67.85 -4.7 65.0 -1.55 63.8 -0.25 Q62.9 0.7 61.25 0.8 L61.2 0.6 61.15 0.7 58.6 0.4 55.15 0.4 58.75 -1.4 59.95 -1.85 62.85 -2.85 63.5 -3.05" fill="#56c8fa" fill-rule="evenodd" stroke="none"/>
      <path d="M99.2 20.6 L101.95 18.5 Q107.65 13.95 111.6 8.95 L111.95 8.45 Q115.5 3.8 117.55 -1.25 120.15 -7.7 122.95 -25.7 L123.0 -26.75 Q116.5 -27.95 108.35 -30.35 102.9 -31.9 98.65 -32.05 L98.65 -31.95 98.6 -31.95 85.15 -30.35 78.8 -29.8 Q67.2 -28.55 61.0 -27.1 53.7 -25.35 48.95 -22.95 47.5 -22.2 39.2 -16.85 L32.75 -14.1 35.05 -12.45 38.65 -9.1 Q40.1 -7.95 42.85 -7.9 L44.95 -8.3 46.85 -8.85 47.05 -8.85 45.85 -4.85 Q45.15 -2.3 45.35 -1.6 42.8 -0.05 40.4 0.65 L37.3 1.55 Q41.15 3.65 43.95 4.4 L48.75 5.0 47.5 6.4 Q46.35 7.7 46.1 8.3 L53.0 6.4 Q56.15 5.4 57.3 4.65 54.25 7.4 53.0 11.2 52.6 12.15 51.45 18.4 50.65 22.7 48.8 25.15 L47.9 26.15 Q45.3 28.8 40.45 30.55 L40.25 30.55 42.0 31.0 45.8 31.55 51.75 31.2 55.15 30.05 Q53.8 31.4 52.4 34.2 49.7 39.2 49.55 41.1 L53.1 41.4 Q56.95 41.5 63.6 37.5 69.65 33.8 71.0 31.45 73.25 27.6 75.7 27.2 L80.6 26.65 87.4 25.15 90.65 24.4 Q94.8 23.5 99.2 20.6 M98.65 -32.05 L98.4 -32.05 98.6 -31.95 98.65 -32.05 Z" fill="none" stroke="#184380" stroke-linecap="round" stroke-linejoin="round" stroke-width="1.0"/>
      <path d="M41.0 -36.7 L41.0 -38.3 42.55 -42.2 43.45 -45.0 43.5 -45.1 45.85 -45.95 Q47.05 -46.6 47.55 -48.4 L47.7 -48.7 Q46.9 -45.6 46.25 -42.1 45.65 -38.7 45.6 -37.3 45.5 -34.65 48.0 -31.95 48.9 -30.9 49.75 -30.25 50.5 -29.65 51.3 -29.4 L50.65 -28.55 Q44.95 -29.25 44.35 -30.35 L44.3 -30.5 Q43.4 -33.2 41.0 -36.7" fill="#494472" fill-rule="evenodd" stroke="none"/>
      <path d="M48.55 -49.45 L51.1 -51.25 54.5 -53.25 Q56.0 -53.2 57.3 -51.05 L59.65 -46.0 64.9 -45.3 69.0 -44.5 Q71.6 -43.2 74.8 -34.25 L76.8 -28.85 77.85 -26.15 78.3 -25.3 77.45 -25.25 71.2 -24.9 69.55 -27.95 66.8 -32.2 Q65.3 -34.6 63.35 -35.65 L59.8 -37.0 58.1 -37.5 Q55.1 -36.15 54.1 -35.15 53.3 -34.45 51.25 -31.35 L48.1 -34.55 Q46.15 -36.65 46.2 -37.9 47.75 -44.15 48.55 -49.45 M41.0 -41.45 L41.0 -49.25 Q42.6 -50.05 43.0 -50.05 L43.05 -45.0 43.5 -45.1 43.45 -45.0 42.35 -43.5 41.0 -41.45" fill="#ffffff" fill-rule="evenodd" stroke="none"/>
      <path d="M47.7 -48.7 L48.55 -49.45 Q47.75 -44.15 46.2 -37.9 46.15 -36.65 48.1 -34.55 L51.25 -31.35 Q53.3 -34.45 54.1 -35.15 55.1 -36.15 58.1 -37.5 L59.8 -37.0 63.35 -35.65 Q65.3 -34.6 66.8 -32.2 L69.55 -27.95 71.2 -24.9 77.45 -25.25 78.3 -25.3 80.9 -20.25 79.1 -16.7 Q78.35 -17.55 75.4 -19.25 L72.7 -20.8 71.7 -22.2 70.5 -23.85 Q66.7 -29.45 64.55 -33.15 L63.0 -34.3 59.75 -36.5 59.3 -36.25 Q55.1 -33.9 54.1 -33.2 L52.35 -30.75 51.3 -29.4 Q50.5 -29.65 49.75 -30.25 48.9 -30.9 48.0 -31.95 45.5 -34.65 45.6 -37.3 45.65 -38.7 46.25 -42.1 46.9 -45.6 47.7 -48.7 M41.0 -28.15 L41.0 -36.7 Q43.4 -33.2 44.3 -30.5 L44.35 -30.35 Q44.95 -29.25 50.65 -28.55 L48.6 -26.2 47.75 -25.25 44.05 -21.85 42.8 -20.8 42.8 -20.9 44.45 -24.0 45.05 -25.25 44.8 -25.05 41.0 -28.15 M41.0 -38.3 L41.0 -41.45 42.35 -43.5 43.45 -45.0 42.55 -42.2 41.0 -38.3" fill="#e1e5e4" fill-rule="evenodd" stroke="none"/>
      <path d="M80.9 -20.25 L81.45 -19.05 Q85.25 -11.5 85.2 -8.6 85.2 -8.4 84.3 -8.15 L82.95 -7.7 83.6 -8.25 81.15 -11.0 76.95 -15.15 72.7 -20.8 75.4 -19.25 Q78.35 -17.55 79.1 -16.7 L80.9 -20.25 M41.05 -19.1 L41.0 -19.1 41.0 -28.15 44.8 -25.05 45.05 -25.25 44.45 -24.0 42.8 -20.9 42.8 -20.8 41.15 -19.3 41.05 -19.1" fill="#b4bfc3" fill-rule="evenodd" stroke="none"/>
      <path d="M82.95 -7.7 L82.65 -7.5 81.85 -7.0 Q79.6 -5.5 76.9 -4.45 L76.45 -4.45 Q70.7 -4.6 62.8 -12.4 L57.35 -17.7 Q54.65 -20.2 53.25 -20.2 44.2 -17.0 41.0 -16.5 L41.0 -19.0 41.05 -19.1 41.15 -19.3 42.8 -20.8 44.05 -21.85 47.75 -25.25 48.6 -26.2 50.65 -28.55 51.3 -29.4 52.35 -30.75 54.1 -33.2 Q55.1 -33.9 59.3 -36.25 L59.75 -36.5 63.0 -34.3 64.55 -33.15 Q66.7 -29.45 70.5 -23.85 L71.7 -22.2 72.7 -20.8 76.95 -15.15 81.15 -11.0 83.6 -8.25 82.95 -7.7 M44.25 -20.5 L44.25 -20.25 Q47.25 -20.5 50.3 -21.75 53.1 -22.95 54.0 -22.9 55.7 -22.85 60.45 -18.1 65.35 -13.25 67.8 -11.15 70.0 -10.5 71.95 -9.2 L72.6 -8.8 75.9 -8.0 75.95 -8.85 75.3 -11.4 Q72.5 -13.6 68.1 -18.3 63.3 -23.55 59.4 -26.0 L59.5 -34.05 Q58.55 -33.15 57.45 -30.5 L56.35 -27.65 56.1 -27.7 Q50.1 -24.9 47.65 -23.1 45.75 -21.35 44.25 -20.5" fill="#f3a135" fill-rule="evenodd" stroke="none"/>
      <path d="M44.25 -20.5 Q45.75 -21.35 47.65 -23.1 50.1 -24.9 56.1 -27.7 L56.35 -27.65 57.45 -30.5 Q58.55 -33.15 59.5 -34.05 L59.4 -26.0 Q63.3 -23.55 68.1 -18.3 72.5 -13.6 75.3 -11.4 L75.95 -8.85 75.9 -8.0 72.6 -8.8 71.95 -9.2 Q70.0 -10.5 67.8 -11.15 65.35 -13.25 60.45 -18.1 55.7 -22.85 54.0 -22.9 53.1 -22.95 50.3 -21.75 47.25 -20.5 44.25 -20.25 L44.25 -20.5" fill="#fffd85" fill-rule="evenodd" stroke="none"/>
      <path d="M47.7 -48.7 L48.55 -49.45 51.1 -51.25 54.5 -53.25 Q56.0 -53.2 57.3 -51.05 L59.65 -46.0 64.9 -45.3 69.0 -44.5 Q71.6 -43.2 74.8 -34.25 L76.8 -28.85 77.85 -26.15 78.3 -25.3 80.9 -20.25 81.45 -19.05 Q85.25 -11.5 85.2 -8.6 85.2 -8.4 84.3 -8.15 L82.95 -7.7 M41.05 -19.1 L41.0 -19.1 M41.0 -49.25 Q42.6 -50.05 43.0 -50.05 L43.05 -45.0 43.5 -45.1 45.85 -45.95 Q47.05 -46.6 47.55 -48.4 L47.7 -48.7" fill="none" stroke="#414d58" stroke-linecap="round" stroke-linejoin="round" stroke-width="1.0"/>
      <path d="M82.95 -7.7 L82.65 -7.5 81.85 -7.0 Q79.6 -5.5 76.9 -4.45 L76.45 -4.45 Q70.7 -4.6 62.8 -12.4 L57.35 -17.7 Q54.65 -20.2 53.25 -20.2 44.2 -17.0 41.0 -16.5 M82.95 -7.7 L83.6 -8.25" fill="none" stroke="#6d4220" stroke-linecap="round" stroke-linejoin="round" stroke-width="1.0"/>
      <path d="M88.5 -55.1 L87.7 -55.85 Q86.95 -56.5 82.8 -57.45 L78.75 -58.3 Q78.1 -57.9 77.85 -57.3 77.2 -56.3 77.15 -54.1 77.1 -52.95 78.05 -51.1 78.95 -49.25 80.1 -48.2 L77.95 -48.95 77.8 -49.0 76.8 -49.35 76.5 -49.5 Q71.25 -51.95 71.4 -58.1 71.5 -61.3 72.35 -64.05 L73.05 -66.6 Q79.55 -65.6 82.5 -63.7 84.35 -62.5 87.05 -59.8 L87.25 -59.5 87.9 -58.35 88.0 -57.85 88.45 -55.35 88.5 -55.1" fill="#4c70a4" fill-rule="evenodd" stroke="none"/>
      <path d="M80.1 -48.2 Q78.95 -49.25 78.05 -51.1 77.1 -52.95 77.15 -54.1 77.2 -56.3 77.85 -57.3 78.1 -57.9 78.75 -58.3 L82.8 -57.45 Q86.95 -56.5 87.7 -55.85 L88.5 -55.1 88.55 -54.8 89.2 -50.45 89.25 -50.05 89.2 -49.15 85.85 -49.25 85.4 -49.25 85.85 -46.75 82.45 -47.55 80.1 -48.2 M99.7 -7.05 L98.6 -7.2 97.9 -7.15 96.25 -7.05 93.9 -8.65 94.2 -11.75 94.4 -14.2 94.9 -18.1 96.9 -21.1 98.65 -19.55 100.0 -18.5 Q100.2 -22.25 101.15 -26.0 L101.15 -26.1 103.4 -28.25 102.2 -25.25 101.05 -21.6 101.45 -20.35 101.5 -20.2 101.6 -19.6 101.3 -19.15 100.9 -18.45 100.65 -17.95 100.1 -15.9 100.05 -14.9 99.8 -8.85 99.7 -7.05 M90.85 -10.8 Q90.5 -11.05 90.25 -11.25 L88.55 -11.05 86.8 -10.85 84.2 -13.0 84.2 -15.2 Q84.35 -21.4 85.7 -24.4 86.3 -25.7 87.1 -26.4 L89.7 -28.15 89.85 -28.25 Q91.55 -27.2 93.05 -25.65 L92.95 -25.55 92.85 -25.45 Q90.65 -22.2 90.55 -18.5 90.45 -15.0 90.85 -10.8 M95.95 -32.8 L98.35 -35.0 98.5 -34.95 96.8 -31.8 95.95 -32.8 M129.5 -41.5 L130.1 -41.5 Q127.5 -44.2 126.5 -45.8 L126.15 -46.15 Q125.4 -47.0 125.4 -47.95 125.55 -47.95 126.05 -48.3 126.5 -48.7 126.75 -48.7 127.4 -48.7 128.25 -48.1 L129.6 -47.05 Q131.15 -45.55 131.15 -44.85 131.1 -44.6 130.3 -44.3 L129.4 -44.1 131.2 -42.25 132.15 -40.95 130.4 -40.55 128.8 -40.35 128.7 -40.75 127.5 -41.5 129.5 -41.5 M129.4 -44.1 L129.25 -44.2 129.25 -44.1 129.4 -44.1" fill="#494472" fill-rule="evenodd" stroke="none"/>
      <path d="M77.8 -49.0 L77.95 -48.95 80.1 -48.2 82.45 -47.55 85.85 -46.75 85.4 -49.25 85.85 -49.25 88.6 -45.95 90.25 -44.25 90.4 -44.25 90.0 -44.85 90.05 -45.9 90.4 -49.35 91.15 -49.15 92.1 -48.8 92.35 -48.8 Q91.9 -50.8 92.05 -55.1 L92.35 -56.9 92.6 -55.3 Q92.8 -57.65 93.55 -60.0 L94.85 -63.55 95.3 -64.65 96.3 -67.55 Q97.05 -70.15 97.45 -73.2 L97.45 -70.6 97.3 -68.45 97.3 -68.25 97.0 -66.0 96.45 -62.85 95.65 -58.35 94.6 -53.5 Q98.0 -48.5 98.2 -47.75 L98.35 -47.05 99.15 -40.25 Q99.25 -39.75 99.7 -39.3 100.4 -38.35 102.45 -37.35 L103.7 -36.75 103.75 -36.35 103.1 -35.4 101.2 -33.6 Q98.85 -31.35 97.9 -30.95 L97.6 -30.85 97.45 -30.7 96.85 -31.4 96.7 -31.6 96.8 -31.8 98.5 -34.95 98.35 -35.0 95.95 -32.8 95.9 -32.7 95.75 -32.85 94.55 -34.4 93.0 -36.75 92.3 -38.05 91.8 -38.05 85.15 -35.8 83.6 -35.35 82.9 -34.65 82.3 -34.15 77.9 -34.55 70.9 -34.35 79.95 -32.15 87.2 -30.2 89.75 -28.35 89.8 -28.25 89.85 -28.25 89.7 -28.15 87.1 -26.4 Q86.3 -25.7 85.7 -24.4 84.35 -21.4 84.2 -15.2 L84.2 -13.0 Q80.95 -15.85 77.55 -19.7 L75.75 -21.8 Q72.5 -25.65 69.95 -29.65 67.8 -32.9 66.0 -36.2 L74.6 -36.8 81.25 -36.85 84.95 -42.95 Q82.3 -43.9 80.3 -44.75 77.6 -45.85 75.8 -46.75 L74.75 -47.25 73.6 -47.95 Q68.6 -51.3 68.85 -59.0 L68.85 -59.4 Q69.5 -54.85 70.7 -52.8 72.35 -50.15 76.65 -49.2 L77.8 -49.0 M136.7 -38.3 L136.75 -38.05 136.9 -37.15 137.15 -35.2 136.45 -34.5 Q134.8 -33.0 134.6 -33.05 L131.65 -33.5 Q131.3 -33.55 131.05 -33.7 L130.0 -33.8 128.8 -40.35 130.4 -40.55 131.7 -38.9 132.45 -39.6 133.6 -40.65 Q135.2 -39.85 136.7 -38.3 M136.1 -30.55 L137.6 -29.8 138.2 -29.45 139.8 -28.5 137.0 -29.45 135.4 -29.7 131.3 -29.7 128.05 -30.05 126.9 -30.15 126.8 -30.15 125.95 -30.2 Q118.55 -32.25 116.35 -33.15 L115.35 -33.6 115.3 -33.6 114.2 -34.25 114.0 -34.35 Q111.35 -35.85 110.3 -36.65 109.35 -37.3 109.0 -39.3 L108.95 -39.6 Q108.35 -43.95 107.1 -47.9 L107.25 -47.9 Q107.35 -47.7 108.2 -47.25 L109.6 -45.55 109.65 -45.45 Q109.85 -44.25 110.75 -41.6 L111.1 -40.7 112.45 -37.3 112.85 -36.5 113.0 -36.1 113.1 -35.85 114.1 -35.2 114.15 -35.1 114.8 -34.85 115.05 -34.75 116.6 -34.2 Q121.4 -32.35 125.95 -31.4 L128.7 -31.65 129.0 -31.7 130.9 -31.75 131.6 -31.75 133.25 -31.75 136.1 -30.55 M124.5 -2.3 L122.8 -2.9 121.1 -3.45 120.45 -3.65 114.75 -3.4 110.9 -3.25 110.45 -4.8 110.15 -5.95 109.45 -7.8 Q112.3 -12.05 113.6 -16.35 L113.65 -16.5 Q114.45 -15.45 115.05 -15.45 L116.7 -15.6 Q117.65 -14.3 120.6 -13.55 L121.15 -13.45 Q124.7 -12.55 125.15 -11.7 L126.8 -8.05 127.45 -5.55 126.15 -4.25 125.5 -3.45 125.2 -3.2 124.5 -2.3 M101.6 -6.65 L99.7 -7.05 99.8 -8.85 100.05 -14.9 100.1 -15.9 100.65 -17.95 100.9 -18.45 101.3 -19.15 101.7 -19.0 Q102.1 -16.0 102.0 -10.75 L102.0 -9.9 101.6 -6.65 M93.9 -8.65 L93.65 -8.9 92.55 -9.6 90.85 -10.8 Q90.45 -15.0 90.55 -18.5 90.65 -22.2 92.85 -25.45 L92.95 -25.55 93.45 -25.15 94.0 -24.55 94.15 -24.45 97.1 -21.45 96.9 -21.1 94.9 -18.1 94.4 -14.2 94.2 -11.75 93.9 -8.65 M110.25 -46.5 L111.7 -46.4 115.35 -46.8 119.2 -46.0 124.7 -44.8 124.75 -44.8 Q127.05 -44.0 129.5 -41.5 L127.5 -41.5 123.55 -43.65 122.65 -44.0 118.65 -45.15 118.05 -45.2 115.9 -45.65 111.75 -46.1 111.4 -46.05 111.0 -46.2 110.5 -46.4 110.25 -46.5 M101.15 -26.1 L101.2 -26.3 101.75 -27.6 102.25 -29.1 Q103.5 -32.3 104.3 -32.85 L107.15 -34.8 Q108.3 -35.5 108.95 -35.45 L109.5 -34.9 Q107.25 -33.9 105.15 -32.3 L103.4 -28.25 101.15 -26.1" fill="#b4bfc3" fill-rule="evenodd" stroke="none"/>
      <path d="M88.5 -55.1 L88.45 -55.35 88.0 -57.85 87.9 -58.35 87.25 -59.5 87.05 -59.8 Q84.35 -62.5 82.5 -63.7 79.55 -65.6 73.05 -66.6 L72.35 -64.05 Q71.5 -61.3 71.4 -58.1 71.25 -51.95 76.5 -49.5 L76.8 -49.35 77.8 -49.0 76.65 -49.2 Q72.35 -50.15 70.7 -52.8 69.5 -54.85 68.85 -59.4 69.0 -63.7 70.2 -68.2 L72.1 -74.9 Q82.0 -70.55 85.2 -68.8 89.2 -66.55 90.5 -64.5 L91.15 -63.05 91.6 -61.55 92.0 -58.95 92.15 -58.6 92.35 -56.9 92.05 -55.1 Q91.9 -50.8 92.35 -48.8 L92.1 -48.8 91.15 -49.15 90.4 -49.35 90.05 -45.9 90.0 -44.85 90.4 -44.25 90.25 -44.25 88.6 -45.95 85.85 -49.25 89.2 -49.15 89.25 -50.05 89.2 -50.45 88.55 -54.8 88.5 -55.1 M118.25 -56.05 L118.8 -55.35 120.2 -55.05 112.7 -54.1 Q111.75 -53.75 111.6 -53.05 L111.4 -50.95 111.35 -48.8 116.8 -47.3 120.2 -46.65 120.9 -46.55 125.2 -45.25 126.65 -44.75 126.8 -44.75 125.95 -45.95 125.45 -46.8 124.6 -48.6 Q124.6 -48.9 125.35 -49.0 L126.4 -49.15 Q127.55 -49.1 128.7 -48.55 L130.45 -47.3 131.65 -46.2 135.85 -40.5 136.15 -40.1 136.7 -38.3 Q135.2 -39.85 133.6 -40.65 L132.45 -39.6 131.7 -38.9 130.4 -40.55 132.15 -40.95 131.2 -42.25 129.4 -44.1 130.3 -44.3 Q131.1 -44.6 131.15 -44.85 131.15 -45.55 129.6 -47.05 L128.25 -48.1 Q127.4 -48.7 126.75 -48.7 126.5 -48.7 126.05 -48.3 125.55 -47.95 125.4 -47.95 125.4 -47.0 126.15 -46.15 L126.5 -45.8 Q127.5 -44.2 130.1 -41.5 L129.5 -41.5 Q127.05 -44.0 124.75 -44.8 L124.7 -44.8 119.2 -46.0 115.35 -46.8 111.7 -46.4 110.25 -46.5 109.6 -46.75 108.15 -47.3 108.2 -47.25 Q107.35 -47.7 107.25 -47.9 L107.1 -47.9 Q108.35 -43.95 108.95 -39.6 L109.0 -39.3 Q109.35 -37.3 110.3 -36.65 111.35 -35.85 114.0 -34.35 L114.2 -34.25 115.3 -33.6 115.35 -33.6 116.35 -33.15 Q118.55 -32.25 125.95 -30.2 L126.8 -30.15 126.9 -30.15 128.05 -30.05 131.3 -29.7 135.4 -29.7 137.0 -29.45 130.2 -29.4 126.45 -29.7 126.25 -29.75 Q122.15 -30.35 116.4 -31.85 L116.4 -31.55 116.6 -30.0 121.1 -26.9 121.75 -26.55 122.0 -26.35 122.75 -26.5 128.7 -27.3 Q129.25 -27.25 130.1 -26.6 L131.65 -24.85 Q128.75 -22.2 128.75 -21.4 128.7 -20.2 128.95 -19.25 L128.55 -19.25 119.15 -19.45 117.9 -22.15 117.45 -23.35 117.4 -23.45 Q117.15 -23.45 115.95 -23.9 L114.7 -24.3 Q114.6 -26.75 114.0 -29.35 113.55 -31.45 112.85 -32.8 111.9 -34.65 110.6 -35.3 L109.5 -34.9 108.95 -35.45 Q108.3 -35.5 107.15 -34.8 L104.3 -32.85 Q103.5 -32.3 102.25 -29.1 L101.75 -27.6 101.2 -26.3 101.15 -26.1 101.15 -26.0 99.15 -23.9 97.1 -21.45 94.15 -24.45 94.0 -24.55 93.45 -25.15 92.95 -25.55 93.05 -25.65 94.6 -28.15 96.4 -31.1 96.7 -31.6 96.85 -31.4 97.45 -30.7 97.6 -30.85 97.9 -30.95 Q98.85 -31.35 101.2 -33.6 L103.1 -35.4 103.75 -36.35 103.7 -36.75 102.45 -37.35 Q100.4 -38.35 99.7 -39.3 99.25 -39.75 99.15 -40.25 L98.35 -47.05 98.2 -47.75 Q98.0 -48.5 94.6 -53.5 L95.65 -58.35 96.45 -62.85 97.0 -66.0 97.3 -68.25 97.4 -68.5 Q98.3 -70.65 99.0 -71.1 L99.8 -70.4 101.3 -69.4 101.5 -69.25 Q102.2 -68.8 102.75 -68.5 L103.9 -67.55 105.45 -62.8 105.9 -60.65 105.9 -60.6 103.55 -59.05 Q100.05 -56.8 100.05 -56.1 99.95 -53.45 106.95 -48.6 L108.75 -47.6 109.6 -47.35 110.3 -47.0 110.2 -47.35 109.2 -50.1 108.5 -52.2 Q108.55 -52.7 109.2 -53.6 110.0 -54.65 110.95 -55.1 L114.85 -55.75 118.25 -56.05 M138.6 -18.25 L135.9 -14.65 135.1 -14.95 135.45 -16.85 Q135.8 -18.35 136.0 -18.3 L135.15 -19.45 Q134.4 -20.35 133.75 -21.55 L132.4 -24.1 Q133.35 -26.1 134.0 -26.25 L134.7 -26.2 134.65 -26.15 Q133.85 -25.45 133.85 -24.7 133.85 -24.3 135.25 -22.4 L136.4 -20.8 138.6 -18.25 M133.3 -10.65 L133.35 -10.25 133.35 -10.15 133.2 -10.15 130.4 -9.8 129.15 -9.55 129.5 -8.35 129.85 -6.9 131.3 0.15 125.05 -2.1 124.6 -2.25 125.2 -3.2 125.5 -3.45 126.15 -4.25 127.45 -5.55 126.8 -8.05 125.15 -11.7 Q124.7 -12.55 121.15 -13.45 L120.6 -13.55 Q117.65 -14.3 116.7 -15.6 L121.65 -15.75 124.7 -15.75 128.45 -15.85 Q129.95 -15.8 131.95 -12.65 L133.3 -10.65 M89.85 -28.25 L89.8 -28.25 89.75 -28.35 87.2 -30.2 79.95 -32.15 70.9 -34.35 77.9 -34.55 82.3 -34.15 82.9 -34.65 83.6 -35.35 85.15 -35.8 91.8 -38.05 92.3 -38.05 93.0 -36.75 94.55 -34.4 95.75 -32.85 95.9 -32.7 95.65 -32.55 Q93.55 -30.7 91.35 -29.25 L89.85 -28.25 M101.75 -49.35 L100.45 -49.4 Q101.05 -41.65 101.3 -41.1 101.6 -40.55 104.65 -38.25 L104.85 -38.25 Q106.25 -37.95 108.45 -36.7 L108.55 -38.65 108.05 -41.75 106.85 -45.1 Q105.9 -47.65 105.05 -48.1 103.55 -48.35 101.75 -49.35 M86.4 -33.7 L82.75 -33.0 91.3 -30.85 88.05 -32.9 86.4 -33.7" fill="#e1e5e4" fill-rule="evenodd" stroke="none"/>
      <path d="M120.2 -55.05 L120.75 -55.05 125.75 -55.0 128.0 -51.65 129.55 -49.3 130.75 -47.55 131.65 -46.2 130.45 -47.3 128.7 -48.55 Q127.55 -49.1 126.4 -49.15 L125.35 -49.0 Q124.6 -48.9 124.6 -48.6 L125.45 -46.8 125.95 -45.95 126.8 -44.75 126.65 -44.75 125.2 -45.25 120.9 -46.55 120.2 -46.65 116.8 -47.3 111.35 -48.8 111.4 -50.95 111.6 -53.05 Q111.75 -53.75 112.7 -54.1 L120.2 -55.05 M139.8 -28.5 L142.4 -26.35 142.55 -26.15 142.25 -26.3 Q140.85 -26.95 140.0 -27.0 L139.35 -27.0 135.2 -26.5 134.7 -26.2 134.0 -26.25 Q133.35 -26.1 132.4 -24.1 L133.75 -21.55 Q134.4 -20.35 135.15 -19.45 L136.0 -18.3 Q135.8 -18.35 135.45 -16.85 L135.1 -14.95 135.9 -14.65 135.35 -14.0 Q133.95 -15.35 133.2 -16.55 L132.4 -18.3 Q132.05 -18.8 129.8 -19.1 L128.95 -19.25 Q128.7 -20.2 128.75 -21.4 128.75 -22.2 131.65 -24.85 L130.1 -26.6 Q129.25 -27.25 128.7 -27.3 L122.75 -26.5 122.0 -26.35 121.75 -26.55 121.1 -26.9 116.6 -30.0 116.4 -31.55 116.4 -31.85 Q122.15 -30.35 126.25 -29.75 L126.45 -29.7 130.2 -29.4 137.0 -29.45 139.8 -28.5" fill="#f9f9f9" fill-rule="evenodd" stroke="none"/>
      <path d="M97.45 -73.2 L97.9 -76.95 Q101.1 -75.6 104.15 -73.9 L105.9 -72.9 107.15 -72.15 110.85 -69.75 117.8 -64.3 118.15 -64.0 117.8 -60.9 117.55 -58.75 116.0 -59.05 109.0 -59.7 108.35 -59.65 106.15 -58.5 105.75 -58.3 103.95 -57.2 Q102.4 -56.1 102.35 -55.55 L102.6 -54.55 Q103.2 -53.05 105.65 -50.6 107.9 -48.4 109.6 -47.35 L108.75 -47.6 106.95 -48.6 Q99.95 -53.45 100.05 -56.1 100.05 -56.8 103.55 -59.05 L105.9 -60.6 105.9 -60.65 105.45 -62.8 103.9 -67.55 102.75 -68.5 Q102.2 -68.8 101.5 -69.25 L101.3 -69.4 99.8 -70.4 99.0 -71.1 Q98.3 -70.65 97.4 -68.5 L97.3 -68.25 97.3 -68.45 97.45 -70.6 97.45 -73.2 M101.75 -49.35 Q103.55 -48.35 105.05 -48.1 105.9 -47.65 106.85 -45.1 L108.05 -41.75 108.55 -38.65 108.45 -36.7 Q106.25 -37.95 104.85 -38.25 L104.65 -38.25 Q101.6 -40.55 101.3 -41.1 101.05 -41.65 100.45 -49.4 L101.75 -49.35 M86.4 -33.7 L88.05 -32.9 91.3 -30.85 82.75 -33.0 86.4 -33.7" fill="#ffffff" fill-rule="evenodd" stroke="none"/>
      <path d="M117.55 -58.75 L117.4 -56.75 118.25 -56.05 114.85 -55.75 110.95 -55.1 Q110.0 -54.65 109.2 -53.6 108.55 -52.7 108.5 -52.2 L109.2 -50.1 110.2 -47.35 110.3 -47.0 109.6 -47.35 Q107.9 -48.4 105.65 -50.6 103.2 -53.05 102.6 -54.55 L102.35 -55.55 Q102.4 -56.1 103.95 -57.2 L105.75 -58.3 106.15 -58.5 108.35 -59.65 109.0 -59.7 116.0 -59.05 117.55 -58.75 M89.85 -28.25 L91.35 -29.25 Q93.55 -30.7 95.65 -32.55 L95.9 -32.7 95.95 -32.8 96.8 -31.8 96.7 -31.6 96.4 -31.1 94.6 -28.15 93.05 -25.65 Q91.55 -27.2 89.85 -28.25 M97.1 -21.45 L99.15 -23.9 101.15 -26.0 Q100.2 -22.25 100.0 -18.5 L98.65 -19.55 96.9 -21.1 97.1 -21.45" fill="#686895" fill-rule="evenodd" stroke="none"/>
      <path d="M137.15 -35.2 L137.2 -31.75 136.1 -30.55 133.25 -31.75 131.6 -31.75 130.9 -31.75 131.0 -31.85 130.15 -32.45 129.95 -32.7 128.7 -33.9 128.05 -35.65 Q127.3 -37.8 125.55 -40.3 L122.0 -42.15 121.7 -42.25 Q119.25 -43.25 116.05 -43.9 L112.5 -44.65 111.8 -44.7 110.65 -45.15 109.65 -45.55 109.65 -45.45 109.6 -45.55 108.2 -47.25 108.15 -47.3 109.6 -46.75 110.25 -46.5 110.5 -46.4 111.0 -46.2 111.4 -46.05 111.75 -46.1 115.9 -45.65 118.05 -45.2 118.65 -45.15 122.65 -44.0 123.55 -43.65 127.5 -41.5 128.7 -40.75 128.8 -40.35 130.0 -33.8 131.05 -33.7 Q131.3 -33.55 131.65 -33.5 L134.6 -33.05 Q134.8 -33.0 136.45 -34.5 L137.15 -35.2 M135.35 -14.0 L134.85 -13.45 134.8 -13.5 133.6 -13.55 132.3 -15.05 130.7 -17.05 129.45 -17.3 128.1 -17.55 127.5 -17.6 124.35 -18.0 117.45 -18.2 116.25 -20.65 116.15 -20.8 115.0 -21.55 114.5 -21.7 114.7 -23.4 114.7 -24.3 115.95 -23.9 Q117.15 -23.45 117.4 -23.45 L117.45 -23.35 117.9 -22.15 119.15 -19.45 128.55 -19.25 128.95 -19.25 129.8 -19.1 Q132.05 -18.8 132.4 -18.3 L133.2 -16.55 Q133.95 -15.35 135.35 -14.0 M133.0 -13.55 L132.75 -13.55 133.1 -11.85 133.3 -10.65 131.95 -12.65 Q129.95 -15.8 128.45 -15.85 L124.7 -15.75 121.65 -15.75 116.7 -15.6 115.05 -15.45 Q114.45 -15.45 113.65 -16.5 L114.0 -18.1 115.05 -17.3 115.1 -17.3 115.65 -17.3 116.35 -17.25 122.65 -17.55 126.85 -17.25 129.45 -16.5 Q131.4 -15.7 133.0 -13.55" fill="#4b5e65" fill-rule="evenodd" stroke="none"/>
      <path d="M109.65 -45.45 L109.65 -45.55 110.65 -45.15 111.8 -44.7 112.5 -44.65 116.05 -43.9 Q119.25 -43.25 121.7 -42.25 L122.0 -42.15 125.55 -40.3 Q127.3 -37.8 128.05 -35.65 L128.7 -33.9 129.95 -32.7 130.15 -32.45 131.0 -31.85 130.9 -31.75 129.0 -31.7 128.7 -31.65 125.95 -31.4 Q121.4 -32.35 116.6 -34.2 L115.05 -34.75 114.8 -34.85 114.15 -35.1 114.1 -35.2 113.1 -35.85 113.0 -36.1 112.85 -36.5 112.45 -37.3 111.1 -40.7 110.75 -41.6 Q109.85 -44.25 109.65 -45.45 M124.45 -39.2 L121.05 -41.2 119.95 -41.7 Q117.95 -42.5 114.6 -43.0 L112.35 -43.4 111.3 -43.5 111.2 -43.5 111.4 -42.95 111.6 -42.3 111.95 -41.3 112.4 -39.9 113.8 -35.95 115.25 -35.4 Q118.3 -34.25 125.25 -32.35 L125.65 -32.3 127.0 -32.05 127.05 -32.05 128.75 -32.15 128.65 -32.15 126.75 -33.65 125.8 -36.4 124.45 -39.2" fill="#212830" fill-rule="evenodd" stroke="none"/>
      <path d="M120.3 -40.25 Q120.5 -40.5 120.85 -40.5 L122.75 -39.85 Q123.7 -38.95 123.65 -37.75 L123.65 -37.4 123.55 -37.0 Q123.35 -36.65 122.65 -36.65 121.6 -36.7 120.8 -37.4 119.9 -38.05 119.95 -38.9 120.0 -39.9 120.3 -40.25" fill="#fffef3" fill-rule="evenodd" stroke="none"/>
      <path d="M120.3 -40.25 Q120.0 -39.9 119.95 -38.9 119.9 -38.05 120.8 -37.4 121.6 -36.7 122.65 -36.65 123.35 -36.65 123.55 -37.0 L123.65 -37.4 123.65 -37.75 Q123.7 -38.95 122.75 -39.85 L120.85 -40.5 Q120.5 -40.5 120.3 -40.25 M124.45 -39.2 L125.8 -36.4 126.75 -33.65 128.65 -32.15 128.75 -32.15 127.05 -32.05 127.0 -32.05 125.65 -32.3 125.25 -32.35 Q118.3 -34.25 115.25 -35.4 L113.8 -35.95 112.4 -39.9 111.95 -41.3 111.6 -42.3 111.4 -42.95 111.2 -43.5 111.3 -43.5 112.35 -43.4 114.6 -43.0 Q117.95 -42.5 119.95 -41.7 L121.05 -41.2 124.45 -39.2 M119.55 -39.0 L119.95 -40.4 118.6 -41.1 Q116.0 -42.2 113.1 -42.3 L112.6 -42.3 112.85 -41.2 113.3 -39.95 114.05 -38.0 Q114.7 -36.6 115.9 -36.35 L116.3 -38.5 116.8 -38.5 Q118.25 -38.65 119.0 -37.1 119.9 -35.15 120.8 -34.75 121.6 -34.3 123.5 -33.75 L125.6 -33.3 125.95 -33.3 124.3 -36.3 124.0 -36.75 123.55 -36.35 122.7 -36.3 Q121.7 -36.35 120.9 -36.85 119.5 -37.6 119.55 -39.0" fill="#dea34b" fill-rule="evenodd" stroke="none"/>
      <path d="M119.55 -39.0 Q119.5 -37.6 120.9 -36.85 121.7 -36.35 122.7 -36.3 L123.55 -36.35 124.0 -36.75 124.3 -36.3 125.95 -33.3 125.6 -33.3 123.5 -33.75 Q121.6 -34.3 120.8 -34.75 119.9 -35.15 119.0 -37.1 118.25 -38.65 116.8 -38.5 L116.3 -38.5 115.9 -36.35 Q114.7 -36.6 114.05 -38.0 L113.3 -39.95 112.85 -41.2 112.6 -42.3 113.1 -42.3 Q116.0 -42.2 118.6 -41.1 L119.95 -40.4 119.55 -39.0 M106.35 -20.35 L106.45 -20.35 106.35 -20.05 106.35 -20.35 M112.6 -17.8 L112.7 -17.65 111.9 -15.55 112.6 -17.8" fill="#fef99d" fill-rule="evenodd" stroke="none"/>
      <path d="M109.5 -34.9 L110.6 -35.3 Q111.9 -34.65 112.85 -32.8 113.55 -31.45 114.0 -29.35 114.6 -26.75 114.7 -24.3 L114.7 -23.4 114.5 -21.7 114.5 -21.15 114.4 -21.0 114.3 -19.8 114.1 -18.6 114.05 -18.25 114.0 -18.1 113.65 -16.5 113.6 -16.35 112.8 -17.45 112.7 -17.65 112.6 -17.8 112.0 -18.3 112.0 -18.55 111.95 -18.35 111.45 -18.8 Q109.6 -20.1 106.65 -20.3 L106.45 -20.35 106.35 -20.35 105.8 -20.35 102.95 -19.9 101.65 -19.3 101.6 -19.6 101.5 -20.2 101.45 -20.35 101.05 -21.6 102.2 -25.25 103.4 -28.25 105.15 -32.3 Q107.25 -33.9 109.5 -34.9 M111.15 -32.95 L110.65 -33.85 110.65 -33.65 110.15 -32.85 109.95 -32.5 109.95 -31.25 Q109.75 -28.75 108.3 -24.8 L106.8 -21.15 Q109.2 -21.0 110.95 -20.1 L112.8 -18.8 113.1 -19.9 113.3 -21.55 Q113.5 -28.6 111.4 -32.6 L111.15 -32.95" fill="#f3a135" fill-rule="evenodd" stroke="none"/>
      <path d="M111.15 -32.95 L111.4 -32.6 Q113.5 -28.6 113.3 -21.55 L113.1 -19.9 112.8 -18.8 110.95 -20.1 Q109.2 -21.0 106.8 -21.15 L108.3 -24.8 Q109.75 -28.75 109.95 -31.25 L109.95 -32.5 110.15 -32.85 110.65 -33.65 110.65 -33.85 111.15 -32.95" fill="#fffd85" fill-rule="evenodd" stroke="none"/>
      <path d="M109.45 -7.8 Q108.2 -5.85 106.6 -4.0 L105.4 -2.6 Q102.35 0.65 99.35 2.85 L99.75 1.55 101.25 -4.5 101.55 -6.25 101.6 -6.65 102.0 -9.9 102.0 -10.75 Q102.1 -16.0 101.7 -19.0 L101.65 -19.3 102.95 -19.9 105.8 -20.35 106.35 -20.35 106.35 -20.05 106.7 -15.5 Q106.6 -12.4 105.9 -8.65 105.2 -4.7 104.3 -3.15 108.6 -9.15 110.6 -12.8 L111.9 -15.55 112.7 -17.65 112.8 -17.45 113.6 -16.35 Q112.3 -12.05 109.45 -7.8" fill="#d9b88f" fill-rule="evenodd" stroke="none"/>
      <path d="M106.45 -20.35 L106.65 -20.3 Q109.6 -20.1 111.45 -18.8 L111.95 -18.35 112.0 -18.3 112.6 -17.8 111.9 -15.55 110.6 -12.8 Q108.6 -9.15 104.3 -3.15 105.2 -4.7 105.9 -8.65 106.6 -12.4 106.7 -15.5 L106.35 -20.05 106.45 -20.35" fill="#fafafa" fill-rule="evenodd" stroke="none"/>
      <path d="M142.55 -26.15 L142.8 -25.9 143.15 -25.65 143.9 -25.0 145.75 -23.2 Q145.0 -20.15 138.9 -18.0 L138.6 -18.25 136.4 -20.8 135.25 -22.4 Q133.85 -24.3 133.85 -24.7 133.85 -25.45 134.65 -26.15 L134.7 -26.2 135.2 -26.5 139.35 -27.0 140.0 -27.0 Q140.85 -26.95 142.25 -26.3 L142.55 -26.15 M133.6 -13.55 L133.0 -13.55 Q131.4 -15.7 129.45 -16.5 L126.85 -17.25 122.65 -17.55 116.35 -17.25 115.65 -17.3 115.1 -17.3 115.05 -17.3 114.0 -18.1 114.05 -18.25 114.1 -18.6 114.3 -19.8 114.4 -21.0 114.5 -21.15 114.5 -21.7 115.0 -21.55 116.15 -20.8 116.25 -20.65 117.45 -18.2 124.35 -18.0 127.5 -17.6 128.1 -17.55 129.45 -17.3 130.7 -17.05 132.3 -15.05 133.6 -13.55 M140.3 -22.8 Q141.6 -22.75 142.4 -24.4 142.4 -24.9 141.6 -25.55 L141.0 -26.05 139.6 -26.35 137.9 -25.75 Q138.8 -23.6 140.3 -22.8" fill="#343a46" fill-rule="evenodd" stroke="none"/>
      <path d="M140.3 -22.8 Q138.8 -23.6 137.9 -25.75 L139.6 -26.35 141.0 -26.05 141.6 -25.55 Q142.4 -24.9 142.4 -24.4 141.6 -22.75 140.3 -22.8" fill="#59677e" fill-rule="evenodd" stroke="none"/>
      <path d="M68.85 -59.4 Q69.0 -63.7 70.2 -68.2 L72.1 -74.9 Q82.0 -70.55 85.2 -68.8 89.2 -66.55 90.5 -64.5 L91.15 -63.05 91.6 -61.55 92.0 -58.95 92.15 -58.6 92.35 -56.9 92.6 -55.3 Q92.8 -57.65 93.55 -60.0 L94.85 -63.55 95.3 -64.65 96.3 -67.55 Q97.05 -70.15 97.45 -73.2 L97.9 -76.95 Q101.1 -75.6 104.15 -73.9 L105.9 -72.9 107.15 -72.15 110.85 -69.75 117.8 -64.3 118.15 -64.0 117.8 -60.9 117.55 -58.75 117.4 -56.75 118.25 -56.05 118.8 -55.35 120.2 -55.05 120.75 -55.05 125.75 -55.0 128.0 -51.65 129.55 -49.3 130.75 -47.55 131.65 -46.2 135.85 -40.5 136.15 -40.1 136.7 -38.3 136.75 -38.05 136.9 -37.15 137.15 -35.2 137.2 -31.75 136.1 -30.55 137.6 -29.8 138.2 -29.45 139.8 -28.5 142.4 -26.35 142.55 -26.15 M138.9 -18.0 L138.6 -18.25 135.9 -14.65 135.35 -14.0 134.85 -13.45 134.8 -13.5 133.6 -13.55 133.0 -13.55 132.75 -13.55 133.1 -11.85 133.3 -10.65 133.35 -10.25 133.35 -10.15 133.2 -10.15 130.4 -9.8 129.15 -9.55 129.5 -8.35 129.85 -6.9 131.3 0.15 125.05 -2.1 124.6 -2.25 124.5 -2.3 122.8 -2.9 121.1 -3.45 120.45 -3.65 114.75 -3.4 110.9 -3.25 110.45 -4.8 110.15 -5.95 109.45 -7.8 M101.6 -6.65 L99.7 -7.05 98.6 -7.2 97.9 -7.15 96.25 -7.05 93.9 -8.65 93.65 -8.9 92.55 -9.6 90.85 -10.8 Q90.5 -11.05 90.25 -11.25 L88.55 -11.05 86.8 -10.85 84.2 -13.0 Q80.95 -15.85 77.55 -19.7 L75.75 -21.8 Q72.5 -25.65 69.95 -29.65 67.8 -32.9 66.0 -36.2 L74.6 -36.8 81.25 -36.85 84.95 -42.95 Q82.3 -43.9 80.3 -44.75 77.6 -45.85 75.8 -46.75 L74.75 -47.25 73.6 -47.95 Q68.6 -51.3 68.85 -59.0 L68.85 -59.4" fill="none" stroke="#414d58" stroke-linecap="round" stroke-linejoin="round" stroke-width="1.0"/>
      <path d="M109.45 -7.8 Q108.2 -5.85 106.6 -4.0 L105.4 -2.6 Q102.35 0.65 99.35 2.85 L99.75 1.55 101.25 -4.5 101.55 -6.25 101.6 -6.65" fill="none" stroke="#5f432d" stroke-linecap="round" stroke-linejoin="round" stroke-width="1.0"/>
      <path d="M142.55 -26.15 L142.8 -25.9 143.15 -25.65 143.9 -25.0 145.75 -23.2 Q145.0 -20.15 138.9 -18.0" fill="none" stroke="#293138" stroke-linecap="round" stroke-linejoin="round" stroke-width="1.0"/>
    </g>
    <g id="shape2" transform="matrix(1.0, 0.0, 0.0, 1.0, 0.0, 0.0)">
      <path d="M50.5 0.0 Q53.95 0.0 53.95 3.3 L53.95 50.15 Q53.95 53.4 50.5 53.4 L3.3 53.4 Q0.0 53.4 0.0 50.15 L0.0 3.3 Q0.0 0.0 3.3 0.0 L50.5 0.0" fill="#000000" fill-opacity="0.003921569" fill-rule="evenodd" stroke="none"/>
    </g>
  </defs>
</svg>
