<?xml version="1.0" encoding="UTF-8" standalone="no"?>
<svg xmlns:ffdec="https://www.free-decompiler.com/flash" xmlns:xlink="http://www.w3.org/1999/xlink" ffdec:objectType="frame" height="54.8px" width="55.0px" xmlns="http://www.w3.org/2000/svg">
  <g transform="matrix(1.0, 0.0, 0.0, 1.0, 1.05, 0.0)">
    <clipPath id="clipPath0" transform="matrix(1.0, 0.0, 0.0, 1.0, 0.0, 0.0)">
      <path d="M50.5 0.0 Q53.95 0.0 53.95 3.3 L53.95 50.15 Q53.95 53.4 50.5 53.4 L3.3 53.4 Q0.0 53.4 0.0 50.15 L0.0 3.3 Q0.0 0.0 3.3 0.0 L50.5 0.0" fill="#000000" fill-rule="evenodd" stroke="none"/>
    </clipPath>
    <g clip-path="url(#clipPath0)">
      <use ffdec:characterId="2" height="54.3" transform="matrix(1.0, 0.0, 0.0, 1.0, -1.05, 0.5)" width="54.2" xlink:href="#shape1"/>
    </g>
    <use ffdec:characterId="3" height="53.4" transform="matrix(1.0, 0.0, 0.0, 1.0, 0.0, 0.0)" width="53.95" xlink:href="#shape2"/>
  </g>
  <defs>
    <g id="shape1" transform="matrix(1.0, 0.0, 0.0, 1.0, 1.05, -0.5)">
      <path d="M37.15 3.0 Q37.15 1.0 38.35 1.0 L39.0 1.25 41.7 4.25 41.75 4.25 43.75 7.25 44.0 7.8 44.35 8.45 44.45 8.7 44.65 9.05 44.7 9.2 44.8 9.5 45.15 10.45 45.25 10.65 45.5 11.5 45.65 12.0 45.6 12.05 45.4 12.15 45.3 12.05 44.65 11.0 44.1 10.05 44.05 10.0 43.9 9.7 43.75 9.45 43.5 9.05 43.4 9.05 43.35 9.8 Q43.2 10.0 42.95 10.0 42.6 10.0 42.25 9.6 L41.95 9.25 41.5 8.5 41.15 7.65 41.15 6.9 41.5 6.8 42.2 7.4 40.7 5.2 40.5 4.85 Q39.5 3.6 38.65 3.3 L38.05 3.15 Q37.7 3.15 37.5 3.4 L37.15 3.0 M46.35 11.15 L46.65 11.1 47.55 11.8 48.95 14.1 50.05 16.6 49.95 16.65 49.95 17.1 49.5 17.55 49.3 17.15 49.2 16.85 48.55 15.5 48.55 16.0 48.5 16.05 48.3 16.1 Q47.95 16.1 47.7 15.5 L47.55 14.7 47.6 14.2 47.85 14.15 48.0 14.15 47.45 13.25 47.4 13.15 Q46.75 12.25 46.25 12.05 L46.3 11.8 46.3 11.3 46.35 11.15 M52.0 19.65 L52.05 19.65 Q52.6 20.4 52.6 21.55 52.6 22.45 52.2 23.05 L51.55 23.75 51.35 23.9 51.3 23.95 51.05 24.05 50.95 23.65 50.35 22.25 50.95 22.0 51.35 21.7 51.45 21.6 51.25 21.45 51.05 20.5 51.1 20.45 51.6 20.6 51.95 20.75 52.05 19.95 52.0 19.65 M51.4 29.6 L52.45 33.9 52.45 34.05 52.5 34.05 Q53.2 38.45 50.65 42.1 L49.65 43.4 49.65 43.45 49.35 43.2 49.5 42.25 Q49.5 41.4 49.15 40.65 L49.3 40.45 50.25 39.2 51.2 37.6 51.65 36.4 51.3 36.3 51.1 34.05 50.45 34.15 Q49.65 34.15 49.1 33.3 48.65 32.6 48.65 32.0 L48.7 31.85 49.65 31.7 Q50.9 31.25 51.4 29.6 M-0.55 15.45 L-0.55 11.25 1.15 11.25 1.75 11.3 3.15 11.45 3.9 11.55 Q5.45 11.9 6.45 12.5 L6.55 12.55 6.6 12.5 6.9 12.8 7.4 13.3 7.75 13.6 8.25 14.1 8.3 14.15 8.75 14.75 7.55 14.6 7.1 14.5 6.4 14.4 5.35 14.2 3.8 14.0 2.6 13.85 0.9 13.7 0.65 13.65 0.0 13.65 0.55 14.5 Q0.55 15.2 -0.55 15.45 M1.8 5.85 L1.7 4.95 Q1.7 4.4 1.85 4.1 2.05 3.85 2.4 3.75 L2.8 3.75 3.65 3.9 5.25 4.45 7.95 5.65 9.3 6.4 9.5 6.45 12.2 7.95 14.95 9.55 15.1 9.6 15.95 10.15 16.3 10.35 17.5 11.2 20.45 13.5 23.2 16.1 22.95 16.1 20.55 16.45 16.9 13.55 15.5 12.6 15.15 12.35 13.65 11.45 12.85 10.95 12.0 10.45 12.0 11.0 10.1 11.0 9.75 11.0 9.45 10.95 7.9 9.9 7.6 9.5 Q6.25 8.0 6.35 7.15 L4.55 6.5 4.5 6.5 3.85 6.25 2.0 5.85 1.8 5.85 M48.1 14.3 L48.05 14.25 48.1 14.4 48.1 14.3 M48.0 14.2 L48.05 14.25 48.0 14.15 48.0 14.2" fill="#fff7bd" fill-rule="evenodd" stroke="none"/>
      <path d="M38.65 3.3 Q39.5 3.6 40.5 4.85 L40.7 5.2 42.2 7.4 41.5 6.8 41.15 6.9 41.15 7.65 41.5 8.5 41.95 9.25 42.25 9.6 Q42.6 10.0 42.95 10.0 43.2 10.0 43.35 9.8 L43.4 9.05 43.5 9.05 43.75 9.45 43.9 9.7 44.05 10.0 44.1 10.05 44.65 11.0 45.3 12.05 45.4 12.15 45.6 12.05 45.65 12.0 45.5 11.5 45.25 10.65 45.15 10.45 44.8 9.5 45.2 10.45 45.55 11.5 45.55 11.55 45.8 11.7 45.95 11.5 46.2 11.25 46.35 11.15 46.3 11.3 46.3 11.8 46.25 12.05 Q46.75 12.25 47.4 13.15 L47.45 13.25 48.0 14.15 47.85 14.15 47.6 14.2 47.55 14.7 47.7 15.5 Q47.95 16.1 48.3 16.1 L48.5 16.05 48.55 16.0 48.55 15.5 49.2 16.85 49.3 17.15 49.5 17.55 49.4 17.6 49.2 17.7 Q48.3 17.7 47.6 16.75 L46.9 15.35 46.65 14.75 Q46.3 13.65 46.25 12.85 L45.75 12.9 45.75 13.1 45.5 13.9 45.2 14.2 44.55 14.4 Q42.95 14.4 41.15 10.45 L40.5 9.05 39.55 6.65 Q38.85 4.6 38.65 3.3 M50.25 19.1 L50.35 19.05 50.25 19.2 50.25 19.1 M51.25 19.05 L51.75 19.35 52.0 19.65 52.05 19.95 51.95 20.75 51.6 20.6 51.1 20.45 51.05 20.5 51.0 20.0 51.05 19.8 51.25 19.05 M-0.55 27.65 L-0.55 22.9 -0.4 22.9 -0.1 23.0 1.15 23.3 1.5 23.4 1.6 23.4 1.95 23.45 2.25 23.5 2.4 23.55 2.75 23.7 3.1 23.9 3.5 24.1 4.05 24.7 4.3 25.35 Q4.3 25.9 3.8 26.35 L2.8 26.9 2.25 27.15 0.8 27.45 0.3 27.55 -0.55 27.65 M-0.55 20.5 L-0.55 15.45 Q0.55 15.2 0.55 14.5 L0.0 13.65 0.65 13.65 0.9 13.7 2.6 13.85 3.8 14.0 5.35 14.2 6.4 14.4 7.1 14.5 7.55 14.6 8.75 14.75 8.3 14.15 8.25 14.1 7.75 13.6 7.4 13.3 6.9 12.8 6.6 12.5 6.6 12.45 Q5.5 11.55 3.9 9.5 L3.8 9.35 3.7 9.25 Q2.35 7.45 1.95 6.15 L1.8 5.85 2.0 5.85 3.85 6.25 4.5 6.5 4.55 6.5 6.35 7.15 Q6.25 8.0 7.6 9.5 L7.9 9.9 9.45 10.95 9.75 11.0 10.1 11.0 12.0 11.0 12.0 10.45 12.85 10.95 13.65 11.45 15.15 12.35 15.5 12.6 16.9 13.55 20.55 16.45 Q18.45 17.05 16.3 18.8 14.45 20.3 13.4 21.7 L13.35 21.7 8.25 21.55 4.7 21.3 3.3 21.15 3.05 21.1 2.05 20.95 1.45 20.85 0.1 20.65 -0.1 20.6 -0.55 20.5 M45.65 12.0 L45.8 11.7 45.65 12.0 M48.0 14.2 L48.0 14.15 48.05 14.25 48.0 14.2 M48.1 14.3 L48.1 14.4 48.05 14.25 48.1 14.3 M51.35 21.7 L51.25 21.45 51.45 21.6 51.35 21.7" fill="#fcec81" fill-rule="evenodd" stroke="none"/>
      <path d="M37.15 3.0 L37.5 3.4 Q37.7 3.15 38.05 3.15 L38.65 3.3 Q38.85 4.6 39.55 6.65 L40.5 9.05 41.15 10.45 Q42.95 14.4 44.55 14.4 L45.2 14.2 45.5 13.9 45.75 13.1 45.75 12.9 46.25 12.85 Q46.3 13.65 46.65 14.75 L46.9 15.35 47.6 16.75 Q48.3 17.7 49.2 17.7 L49.4 17.6 49.5 17.55 49.95 17.1 49.95 16.65 50.05 16.6 Q50.35 17.6 50.25 18.15 L50.25 18.8 50.15 19.0 50.25 19.0 50.25 19.1 50.25 19.2 50.35 19.05 50.55 19.05 50.85 19.0 51.25 19.05 51.05 19.8 51.0 20.0 51.05 20.5 51.25 21.45 51.35 21.7 50.95 22.0 50.35 22.25 50.35 22.2 49.4 20.65 49.4 20.6 48.15 19.25 Q46.8 18.0 45.6 18.05 L44.85 18.2 Q44.15 18.45 43.65 19.15 L43.2 20.1 43.05 20.05 Q42.55 19.75 41.1 16.25 L39.8 13.0 38.85 10.35 38.25 8.55 37.35 4.95 37.2 3.85 37.15 3.0 M-0.55 30.1 L-0.55 27.65 0.3 27.55 0.8 27.45 2.25 27.15 2.8 26.9 3.8 26.35 Q4.3 25.9 4.3 25.35 L4.05 24.7 3.5 24.1 3.1 23.9 2.75 23.7 2.4 23.55 2.25 23.5 1.95 23.45 1.6 23.4 1.5 23.4 1.15 23.3 -0.1 23.0 -0.4 22.9 -0.55 22.9 -0.55 20.5 -0.1 20.6 0.1 20.65 1.45 20.85 2.05 20.95 3.05 21.1 3.3 21.15 4.7 21.3 8.25 21.55 13.35 21.7 13.4 21.7 Q14.45 20.3 16.3 18.8 18.45 17.05 20.55 16.45 L22.95 16.1 23.2 16.1 Q24.25 17.25 24.7 18.15 L24.7 18.6 22.55 18.8 Q20.9 19.15 19.5 20.05 L19.25 20.2 Q18.4 20.75 17.55 21.55 14.65 24.55 14.65 28.8 L14.65 29.35 10.4 30.3 9.95 30.35 8.9 30.5 7.1 30.7 6.45 30.7 3.25 30.55 2.45 30.5 0.65 30.3 -0.55 30.1 M34.8 29.35 L35.9 28.05 36.4 27.1 36.85 26.35 37.4 25.35 38.1 24.5 Q39.05 23.5 40.3 23.5 L41.8 23.7 43.05 24.2 43.6 26.2 43.65 26.3 41.45 26.65 Q39.4 27.25 37.75 28.75 L37.1 29.45 Q34.6 32.2 34.6 36.75 34.6 37.75 35.3 39.85 36.05 41.9 36.5 42.4 L36.6 42.55 36.65 42.5 Q38.05 40.5 39.95 39.0 42.7 36.85 44.75 36.85 46.15 36.85 47.1 37.55 L48.35 39.0 48.5 39.25 48.75 39.65 48.65 39.7 48.6 39.7 48.55 39.65 Q47.6 38.45 46.15 38.45 42.8 38.45 39.9 42.65 L38.85 44.25 Q37.6 46.4 37.35 48.4 L33.75 48.8 31.15 48.65 29.0 48.3 28.55 48.15 27.45 47.85 25.85 47.25 25.45 47.1 24.45 46.65 23.65 46.25 24.5 45.95 24.6 45.9 25.3 45.45 25.55 45.25 26.05 44.8 Q27.0 43.65 27.05 42.1 L27.1 40.5 27.45 38.6 Q29.9 37.9 31.85 35.95 34.6 33.2 34.8 29.35" fill="#ffd469" fill-rule="evenodd" stroke="none"/>
      <path d="M34.65 54.3 L32.0 54.3 31.7 53.55 31.7 53.45 31.95 53.2 33.0 53.55 33.95 53.95 34.65 54.3 M30.95 54.3 L27.95 54.3 27.6 53.95 27.3 53.85 Q27.5 53.05 27.85 52.35 28.35 51.35 28.9 50.9 L30.95 54.3 M26.8 54.3 L25.65 54.3 25.85 53.8 25.85 53.75 26.3 53.7 26.8 54.3 M10.1 49.85 L9.0 50.15 9.1 50.05 9.35 49.75 10.35 48.4 10.65 47.95 Q11.8 46.15 12.05 44.7 L12.15 43.8 12.05 43.8 11.3 44.3 10.75 44.7 9.35 46.05 9.1 45.9 9.2 45.75 9.35 45.45 9.25 45.4 9.05 45.5 10.4 44.05 10.55 43.9 Q12.25 42.15 12.5 42.15 12.95 42.15 12.95 43.35 L12.8 45.15 12.35 46.5 11.35 48.3 10.15 49.8 10.1 49.85 M-0.55 46.3 L-0.55 44.85 Q1.65 42.35 2.25 40.55 L2.3 40.35 2.3 38.95 2.15 38.95 1.45 39.4 1.1 39.6 1.05 39.6 0.4 40.1 0.35 40.15 0.05 40.3 -0.2 40.05 -0.2 40.0 0.65 39.4 1.2 39.05 1.75 38.7 3.1 37.8 Q4.2 37.2 4.45 37.15 L4.55 37.95 4.4 39.3 4.0 40.75 3.4 42.0 1.45 44.5 -0.55 46.3 M43.05 20.05 L43.2 20.1 42.95 21.1 41.95 21.55 41.35 21.75 38.75 22.15 37.25 22.15 37.15 22.15 36.55 22.15 35.75 22.1 35.05 22.0 Q31.1 21.35 28.4 18.25 L27.05 16.3 Q26.35 15.15 26.05 14.0 L25.8 12.15 Q25.8 11.1 26.2 10.15 L26.65 9.35 26.2 9.15 25.55 8.9 Q22.4 8.9 17.5 11.2 L16.3 10.35 17.1 10.05 Q21.95 8.35 24.8 8.35 L27.15 8.45 28.1 8.6 Q30.0 8.9 30.6 9.45 L30.4 9.65 29.9 10.2 Q29.55 10.65 29.55 11.1 29.55 13.4 31.6 15.25 33.65 17.1 36.35 17.2 L36.7 17.2 37.95 16.95 38.85 16.4 38.9 16.35 39.3 16.0 39.8 14.95 41.1 16.25 Q42.55 19.75 43.05 20.05 M39.8 14.95 L39.65 14.85 39.85 14.65 39.8 14.95" fill="#db4647" fill-rule="evenodd" stroke="none"/>
      <path d="M44.55 20.55 L44.7 20.35 Q45.0 19.95 45.45 19.95 46.1 19.95 47.2 20.75 L47.3 20.8 48.65 22.2 48.05 21.85 47.85 21.9 Q47.65 21.95 47.5 22.15 L47.3 22.9 Q47.3 23.65 47.65 24.25 L48.75 24.9 49.35 24.75 49.4 24.7 49.8 24.2 49.85 24.25 50.4 27.0 50.4 27.05 50.1 28.65 49.4 29.6 48.85 29.75 Q47.45 29.75 45.8 27.1 L45.35 26.4 44.85 25.35 Q44.1 23.7 44.1 22.25 44.1 21.7 44.25 21.25 L44.55 20.55 M24.8 20.85 Q27.35 20.85 29.55 22.9 32.2 25.35 32.2 29.2 32.2 31.65 29.85 33.6 27.55 35.45 24.9 35.45 22.25 35.45 19.7 33.2 17.35 31.15 17.65 29.85 L18.35 30.05 19.0 30.25 Q20.2 30.25 20.85 29.3 21.45 28.5 21.45 27.5 21.45 26.45 20.5 25.7 19.75 25.2 19.1 25.2 L18.4 25.35 18.25 25.45 18.25 25.35 Q18.6 23.15 20.5 21.9 22.25 20.85 24.8 20.85" fill="#4d211e" fill-rule="evenodd" stroke="none"/>
      <path d="M51.05 24.05 Q51.9 26.6 51.55 28.8 L51.4 29.6 Q50.9 31.25 49.65 31.7 L48.7 31.85 Q47.55 31.75 46.4 30.65 44.6 29.05 43.65 26.3 L43.6 26.2 43.05 24.2 Q42.75 22.55 42.95 21.1 L43.2 20.1 43.65 19.15 Q44.15 18.45 44.85 18.2 L45.6 18.05 Q46.8 18.0 48.15 19.25 L49.4 20.6 49.4 20.65 50.35 22.2 50.35 22.25 50.95 23.65 51.05 24.05 M44.55 20.55 L44.25 21.25 Q44.1 21.7 44.1 22.25 44.1 23.7 44.85 25.35 L45.35 26.4 45.8 27.1 Q47.45 29.75 48.85 29.75 L49.4 29.6 50.1 28.65 50.4 27.05 50.4 27.0 49.85 24.25 49.8 24.2 49.4 24.7 49.35 24.75 48.75 24.9 47.65 24.25 Q47.3 23.65 47.3 22.9 L47.5 22.15 Q47.65 21.95 47.85 21.9 L48.05 21.85 48.65 22.2 47.3 20.8 47.2 20.75 Q46.1 19.95 45.45 19.95 45.0 19.95 44.7 20.35 L44.55 20.55 M24.7 18.6 Q28.9 18.6 31.85 21.55 34.8 24.55 34.8 28.8 L34.8 29.35 Q34.6 33.2 31.85 35.95 29.9 37.9 27.45 38.6 L24.7 38.95 Q20.55 38.95 17.55 35.95 15.6 33.95 14.95 31.4 L14.65 29.35 14.65 28.8 Q14.65 24.55 17.55 21.55 18.4 20.75 19.25 20.2 L19.5 20.05 Q20.9 19.15 22.55 18.8 L24.7 18.6 M24.8 20.85 Q22.25 20.85 20.5 21.9 18.6 23.15 18.25 25.35 L18.25 25.45 18.4 25.35 19.1 25.2 Q19.75 25.2 20.5 25.7 21.45 26.45 21.45 27.5 21.45 28.5 20.85 29.3 20.2 30.25 19.0 30.25 L18.35 30.05 17.65 29.85 Q17.35 31.15 19.7 33.2 22.25 35.45 24.9 35.45 27.55 35.45 29.85 33.6 32.2 31.65 32.2 29.2 32.2 25.35 29.55 22.9 27.35 20.85 24.8 20.85" fill="#ffffff" fill-rule="evenodd" stroke="none"/>
      <path d="M32.0 54.3 L31.0 54.3 31.7 53.45 31.7 53.55 32.0 54.3 M25.65 54.3 L24.4 54.3 24.2 54.25 24.15 54.3 20.25 54.3 Q21.15 48.6 21.15 46.35 L21.1 45.95 21.85 46.3 21.65 46.55 23.75 47.75 24.0 47.9 25.35 48.5 27.1 49.1 27.3 49.15 27.35 48.95 27.4 49.0 28.7 50.6 28.9 50.9 Q28.35 51.35 27.85 52.35 27.5 53.05 27.3 53.85 L26.4 53.7 26.3 53.7 25.85 53.75 25.85 53.8 25.65 54.3 M19.3 44.9 L19.05 45.3 Q17.9 46.2 15.85 47.35 14.9 47.8 13.8 48.35 L12.6 48.9 10.1 49.85 10.15 49.8 11.35 48.3 12.35 46.5 12.8 45.15 12.95 43.35 Q12.95 42.15 12.5 42.15 12.25 42.15 10.55 43.9 L10.4 44.05 9.05 45.5 8.55 45.7 7.8 46.05 1.7 47.95 1.25 48.05 0.65 48.15 0.05 48.3 -0.55 48.4 -0.55 46.3 1.45 44.5 3.4 42.0 4.0 40.75 4.4 39.3 4.55 37.95 4.45 37.15 Q4.2 37.2 3.1 37.8 L1.75 38.7 1.2 39.05 0.65 39.4 -0.2 40.0 -0.2 40.05 0.05 40.3 -0.55 40.4 -0.55 31.7 0.55 31.9 2.3 32.2 3.1 32.35 5.95 32.55 6.55 32.55 9.5 32.35 9.9 33.5 9.95 33.55 Q10.8 35.7 12.0 37.65 L13.7 40.0 15.85 42.2 16.8 43.05 17.0 43.2 17.25 43.4 19.3 44.9 M17.5 11.2 Q22.4 8.9 25.55 8.9 L26.2 9.15 26.65 9.35 26.2 10.15 Q25.8 11.1 25.8 12.15 L26.05 14.0 Q26.35 15.15 27.05 16.3 L28.4 18.25 Q31.1 21.35 35.05 22.0 L35.75 22.1 36.55 22.15 37.15 22.15 37.25 22.15 38.75 22.15 41.35 21.75 41.95 21.55 42.95 21.1 Q42.75 22.55 43.05 24.2 L41.8 23.7 40.3 23.5 Q39.05 23.5 38.1 24.5 L37.4 25.35 36.85 26.35 36.4 27.1 35.9 28.05 34.8 29.35 34.8 28.8 Q34.8 24.55 31.85 21.55 28.9 18.6 24.7 18.6 L24.7 18.15 Q24.25 17.25 23.2 16.1 L20.45 13.5 17.5 11.2 M23.65 46.25 L23.0 46.4 22.95 45.9 22.4 45.55 21.0 44.65 20.3 44.15 19.65 43.65 19.2 43.3 17.15 41.55 16.0 40.5 14.3 38.75 13.65 37.95 13.5 37.7 Q12.05 35.7 10.95 33.1 L10.6 32.25 11.05 32.15 14.75 31.45 14.95 31.4 Q15.6 33.95 17.55 35.95 20.55 38.95 24.7 38.95 L27.45 38.6 27.1 40.5 27.05 42.1 Q27.0 43.65 26.05 44.8 L25.55 45.25 25.3 45.45 24.6 45.9 24.5 45.95 23.65 46.25" fill="#d12244" fill-rule="evenodd" stroke="none"/>
      <path d="M52.45 33.9 L52.5 34.05 52.45 34.05 52.45 33.9 M43.65 26.3 Q44.6 29.05 46.4 30.65 47.55 31.75 48.7 31.85 L48.65 32.0 Q48.65 32.6 49.1 33.3 49.65 34.15 50.45 34.15 L51.1 34.05 51.3 36.3 51.65 36.4 51.2 37.6 50.25 39.2 49.3 40.45 49.15 40.65 48.95 40.25 48.65 39.7 48.75 39.65 48.5 39.25 48.35 39.0 47.1 37.55 Q46.15 36.85 44.75 36.85 42.7 36.85 39.95 39.0 38.05 40.5 36.65 42.5 L36.6 42.55 36.5 42.4 Q36.05 41.9 35.3 39.85 34.6 37.75 34.6 36.75 34.6 32.2 37.1 29.45 L37.75 28.75 Q39.4 27.25 41.45 26.65 L43.65 26.3 M27.1 49.1 L27.2 49.05 27.35 48.95 27.3 49.15 27.1 49.1" fill="#fef183" fill-rule="evenodd" stroke="none"/>
      <path d="M49.65 43.45 Q47.55 45.9 44.6 47.55 41.15 49.45 37.3 49.95 L37.25 49.95 37.25 49.55 37.35 48.4 38.45 48.5 Q41.8 48.5 45.25 45.6 48.65 42.8 48.65 40.4 L48.6 39.7 48.65 39.7 48.95 40.25 49.15 40.65 Q49.5 41.4 49.5 42.25 L49.35 43.2 49.65 43.45" fill="#984d60" fill-rule="evenodd" stroke="none"/>
      <path d="M48.6 39.7 L48.65 40.4 Q48.65 42.8 45.25 45.6 41.8 48.5 38.45 48.5 L37.35 48.4 Q37.6 46.4 38.85 44.25 L39.9 42.65 Q42.8 38.45 46.15 38.45 47.6 38.45 48.55 39.65 L48.6 39.7" fill="#6b3140" fill-rule="evenodd" stroke="none"/>
      <path d="M30.25 49.75 L31.0 50.7 32.5 52.85 32.65 52.8 32.95 52.7 Q34.2 52.85 36.7 54.3 L34.65 54.3 33.95 53.95 33.0 53.55 31.95 53.2 31.7 53.45 31.0 54.3 30.95 54.3 28.9 50.9 28.7 50.6 27.4 49.0 28.25 49.25 29.55 49.6 30.25 49.75 M27.95 54.3 L26.8 54.3 26.3 53.7 26.4 53.7 27.3 53.85 27.6 53.95 27.95 54.3 M9.0 50.15 L8.3 50.3 7.75 49.55 7.75 49.45 8.75 46.75 8.75 46.65 9.1 45.9 9.35 46.05 10.75 44.7 11.3 44.3 12.05 43.8 12.15 43.8 12.05 44.7 Q11.8 46.15 10.65 47.95 L10.35 48.4 9.35 49.75 9.1 50.05 9.0 50.15 M-0.55 44.85 L-0.55 41.25 0.05 40.3 0.35 40.15 0.4 40.1 1.05 39.6 1.1 39.6 1.45 39.4 2.15 38.95 2.3 38.95 2.3 40.35 2.25 40.55 Q1.65 42.35 -0.55 44.85 M15.1 9.6 L17.5 8.55 Q20.85 7.4 24.3 7.15 L32.8 7.8 33.3 7.85 36.2 8.8 Q37.6 9.45 38.85 10.35 L39.8 13.0 41.1 16.25 39.8 14.95 39.3 16.0 38.9 16.35 38.85 16.4 37.95 16.95 36.7 17.2 36.35 17.2 Q33.65 17.1 31.6 15.25 29.55 13.4 29.55 11.1 29.55 10.65 29.9 10.2 L30.4 9.65 30.6 9.45 Q30.0 8.9 28.1 8.6 L27.15 8.45 24.8 8.35 Q21.95 8.35 17.1 10.05 L16.3 10.35 15.95 10.15 15.1 9.6 M39.8 14.95 L39.85 14.65 39.65 14.85 39.8 14.95" fill="#f06162" fill-rule="evenodd" stroke="none"/>
      <path d="M-0.55 31.7 L-0.55 30.1 0.65 30.3 2.45 30.5 3.25 30.55 6.45 30.7 7.1 30.7 8.9 30.5 9.95 30.35 10.4 30.3 14.65 29.35 14.95 31.4 14.75 31.45 11.05 32.15 10.6 32.25 9.5 32.35 6.55 32.55 5.95 32.55 3.1 32.35 2.3 32.2 0.55 31.9 -0.55 31.7" fill="#fff962" fill-rule="evenodd" stroke="none"/>
      <path d="M20.25 54.3 L18.35 54.3 Q19.55 48.25 19.65 45.15 L19.45 45.0 19.3 44.9 17.25 43.4 17.0 43.2 16.8 43.05 15.85 42.2 13.7 40.0 12.0 37.65 Q10.8 35.7 9.95 33.55 L9.9 33.5 9.5 32.35 10.6 32.25 10.95 33.1 Q12.05 35.7 13.5 37.7 L13.65 37.95 14.3 38.75 16.0 40.5 17.15 41.55 19.2 43.3 19.65 43.65 20.3 44.15 21.0 44.65 22.4 45.55 22.95 45.9 23.0 46.4 21.9 46.35 21.85 46.3 21.1 45.95 21.15 46.35 Q21.15 48.6 20.25 54.3 M21.1 45.95 L20.0 45.35 19.65 45.15 20.0 45.35 21.1 45.95" fill="#ff326a" fill-rule="evenodd" stroke="none"/>
      <path d="M37.25 49.95 L36.0 50.05 30.25 49.75 29.55 49.6 28.25 49.25 27.4 49.0 27.35 48.95 27.2 49.05 27.1 49.1 25.35 48.5 24.0 47.9 23.75 47.75 21.65 46.55 21.85 46.3 21.9 46.35 23.0 46.4 23.65 46.25 24.45 46.65 25.45 47.1 25.85 47.25 27.45 47.85 28.55 48.15 29.0 48.3 31.15 48.65 33.75 48.8 37.35 48.4 37.25 49.55 37.25 49.95" fill="#fcf550" fill-rule="evenodd" stroke="none"/>
      <path d="M44.65 9.05 L44.45 8.7 44.35 8.45 44.0 7.8 43.75 7.25 41.75 4.25 41.7 4.25 39.0 1.25 38.35 1.0 Q37.15 1.0 37.15 3.0 L37.2 3.85 37.35 4.95 38.25 8.55 38.85 10.35 Q37.6 9.45 36.2 8.8 L33.3 7.85 32.8 7.8 24.3 7.15 Q20.85 7.4 17.5 8.55 L15.1 9.6 14.95 9.55 12.2 7.95 9.5 6.45 9.3 6.4 7.95 5.65 5.25 4.45 3.65 3.9 2.8 3.75 2.4 3.75 Q2.05 3.85 1.85 4.1 1.7 4.4 1.7 4.95 L1.8 5.85 1.95 6.15 Q2.35 7.45 3.7 9.25 L3.8 9.35 3.9 9.5 Q5.5 11.55 6.6 12.45 M45.6 12.05 L45.65 12.0 45.8 11.7 45.95 11.5 46.2 11.25 46.35 11.15 46.65 11.1 47.55 11.8 48.95 14.1 50.05 16.6 Q50.35 17.6 50.25 18.15 L50.25 18.8 50.25 19.0 50.15 19.0 50.25 18.8 M44.8 9.5 L44.7 9.2 M44.8 9.5 L45.2 10.45 45.55 11.5 45.55 11.55 M50.25 19.1 L50.35 19.05 50.55 19.05 50.85 19.0 51.25 19.05 51.75 19.35 52.0 19.65 52.05 19.65 Q52.6 20.4 52.6 21.55 52.6 22.45 52.2 23.05 L51.55 23.75 51.35 23.9 51.3 23.95 M51.4 29.6 L52.45 33.9 52.5 34.05 Q53.2 38.45 50.65 42.1 L49.65 43.4 49.65 43.45 Q47.55 45.9 44.6 47.55 41.15 49.45 37.3 49.95 L37.25 49.95 36.0 50.05 30.25 49.75 31.0 50.7 32.5 52.85 M32.65 52.8 L32.95 52.7 Q34.2 52.85 36.7 54.3 M24.2 54.25 L24.15 54.3 M18.35 54.3 Q19.55 48.25 19.65 45.15 L19.45 45.0 19.3 44.9 17.25 43.4 17.0 43.2 16.8 43.05 15.85 42.2 13.7 40.0 12.0 37.65 Q10.8 35.7 9.95 33.55 L9.9 33.5 9.5 32.35 10.6 32.25 11.05 32.15 14.75 31.45 M19.05 45.3 Q17.9 46.2 15.85 47.35 14.9 47.8 13.8 48.35 L12.6 48.9 10.1 49.85 9.0 50.15 8.3 50.3 7.75 50.3 7.75 49.55 7.75 49.45 8.75 46.75 8.75 46.65 9.1 45.9 9.2 45.75 9.35 45.45 M9.25 45.4 L9.05 45.5 8.55 45.7 7.8 46.05 1.7 47.95 1.25 48.05 0.65 48.15 0.05 48.3 -0.55 48.4 M-0.55 41.25 L0.05 40.3 -0.55 40.4 M-0.55 11.25 L1.15 11.25 1.75 11.3 3.15 11.45 3.9 11.55 Q5.45 11.9 6.45 12.5 L6.55 12.55 M43.05 20.05 Q42.55 19.75 41.1 16.25 L39.8 13.0 38.85 10.35 M16.3 10.35 L17.5 11.2 20.45 13.5 23.2 16.1 Q24.25 17.25 24.7 18.15 M50.25 19.1 L50.25 19.2 M48.65 39.7 L48.95 40.25 49.15 40.65 Q49.5 41.4 49.5 42.25 L49.35 43.2 M48.65 39.7 L48.6 39.7 48.55 39.65 Q47.6 38.45 46.15 38.45 42.8 38.45 39.9 42.65 L38.85 44.25 Q37.6 46.4 37.35 48.4 L37.25 49.55 M27.2 49.05 L27.35 48.95 27.4 49.0 28.25 49.25 29.55 49.6 30.25 49.75 M24.7 18.6 Q28.9 18.6 31.85 21.55 34.8 24.55 34.8 28.8 L34.8 29.35 Q34.6 33.2 31.85 35.95 29.9 37.9 27.45 38.6 L24.7 38.95 Q20.55 38.95 17.55 35.95 15.6 33.95 14.95 31.4 L14.65 29.35 14.65 28.8 Q14.65 24.55 17.55 21.55 18.4 20.75 19.25 20.2 L19.5 20.05 Q20.9 19.15 22.55 18.8 L24.7 18.6 M16.3 10.35 L15.95 10.15 15.1 9.6 M-0.55 22.9 L-0.4 22.9 -0.1 23.0 1.15 23.3 1.5 23.4 M2.25 23.5 L2.4 23.55 2.75 23.7 M-0.55 31.7 L0.55 31.9 2.3 32.2 3.1 32.35 5.95 32.55 6.55 32.55 9.5 32.35 M19.65 45.15 L20.0 45.35 21.1 45.95 21.85 46.3 M27.3 53.85 L27.6 53.95 27.95 54.3" fill="none" stroke="#411c23" stroke-linecap="round" stroke-linejoin="round" stroke-width="1.0"/>
      <path d="M51.05 24.05 Q51.9 26.6 51.55 28.8 L51.4 29.6 Q50.9 31.25 49.65 31.7 L48.7 31.85 Q47.55 31.75 46.4 30.65 44.6 29.05 43.65 26.3 L43.6 26.2 43.05 24.2 Q42.75 22.55 42.95 21.1 L43.2 20.1 43.65 19.15 Q44.15 18.45 44.85 18.2 L45.6 18.05 Q46.8 18.0 48.15 19.25 L49.4 20.6 M49.4 20.65 L50.35 22.2 M50.35 22.25 L50.95 23.65 51.05 24.05" fill="none" stroke="#4d211e" stroke-linecap="round" stroke-linejoin="round" stroke-width="1.0"/>
      <path d="M34.8 29.35 L35.9 28.05 36.4 27.1 36.85 26.35 37.4 25.35 38.1 24.5 Q39.05 23.5 40.3 23.5 L41.8 23.7 43.05 24.2 M23.65 46.25 L23.0 46.4 21.9 46.35 21.85 46.3 M27.45 38.6 L27.1 40.5 27.05 42.1 Q27.0 43.65 26.05 44.8 L25.55 45.25 25.3 45.45 24.6 45.9 24.5 45.95 23.65 46.25" fill="none" stroke="#930d2a" stroke-linecap="round" stroke-linejoin="round" stroke-width="1.0"/>
    </g>
    <g id="shape2" transform="matrix(1.0, 0.0, 0.0, 1.0, 0.0, 0.0)">
      <path d="M50.5 0.0 Q53.95 0.0 53.95 3.3 L53.95 50.15 Q53.95 53.4 50.5 53.4 L3.3 53.4 Q0.0 53.4 0.0 50.15 L0.0 3.3 Q0.0 0.0 3.3 0.0 L50.5 0.0" fill="#000000" fill-opacity="0.003921569" fill-rule="evenodd" stroke="none"/>
    </g>
  </defs>
</svg>
