<?xml version="1.0" encoding="UTF-8" standalone="no"?>
<svg xmlns:ffdec="https://www.free-decompiler.com/flash" xmlns:xlink="http://www.w3.org/1999/xlink" ffdec:objectType="frame" height="58.3px" width="58.25px" xmlns="http://www.w3.org/2000/svg">
  <g transform="matrix(1.0, 0.0, 0.0, 1.0, 2.35, 2.7)">
    <clipPath id="clipPath0" transform="matrix(1.0, 0.0, 0.0, 1.0, 0.0, 0.0)">
      <path d="M50.5 0.0 Q53.95 0.0 53.95 3.3 L53.95 50.15 Q53.95 53.4 50.5 53.4 L3.3 53.4 Q0.0 53.4 0.0 50.15 L0.0 3.3 Q0.0 0.0 3.3 0.0 L50.5 0.0" fill="#000000" fill-rule="evenodd" stroke="none"/>
    </clipPath>
    <g clip-path="url(#clipPath0)">
      <use ffdec:characterId="2" height="58.3" transform="matrix(1.0, 0.0, 0.0, 1.0, -2.35, -2.7)" width="58.25" xlink:href="#shape1"/>
    </g>
    <use ffdec:characterId="3" height="53.4" transform="matrix(1.0, 0.0, 0.0, 1.0, 0.0, 0.0)" width="53.95" xlink:href="#shape2"/>
  </g>
  <defs>
    <g id="shape1" transform="matrix(1.0, 0.0, 0.0, 1.0, 2.35, 2.7)">
      <path d="M19.05 38.65 L19.35 38.35 19.65 38.2 20.15 38.4 20.3 38.8 20.35 39.2 Q20.35 40.0 19.9 40.0 L19.45 39.6 Q19.1 39.25 19.05 38.8 L19.05 38.7 19.05 38.65 M38.1 38.3 L38.25 38.8 38.15 39.25 37.55 39.25 37.1 38.4 37.05 38.3 37.1 38.1 37.4 37.85 37.95 38.1 38.1 38.3" fill="#ffffff" fill-rule="evenodd" stroke="none"/>
      <path d="M-1.85 14.35 L-0.9 14.4 Q1.1 14.0 3.25 12.4 L4.8 10.95 Q6.0 9.5 6.0 7.95 L6.0 7.75 Q5.9 6.2 4.65 5.05 L3.45 4.2 5.35 0.8 5.85 0.1 Q6.05 1.2 6.7 2.3 7.35 3.4 8.35 4.1 L8.4 4.5 8.7 7.25 8.65 8.45 8.0 10.9 Q7.05 13.1 4.8 14.55 2.9 15.75 0.75 16.15 L-0.85 16.15 -1.85 16.05 -1.85 14.35 M55.4 21.4 L55.4 24.4 55.3 24.45 53.45 25.5 50.05 27.2 49.25 27.5 49.15 27.6 45.85 28.8 Q39.65 30.75 31.45 31.35 L25.75 31.6 25.35 31.6 22.5 31.6 19.15 31.55 Q11.7 31.25 5.1 29.7 L-1.65 27.75 -1.85 27.55 -1.85 22.65 Q-0.75 24.05 1.1 25.25 L2.9 25.95 Q3.1 25.4 3.7 25.0 4.4 24.55 5.05 24.55 6.25 24.55 6.85 25.35 L7.35 26.35 7.4 27.0 7.35 27.3 11.6 28.2 15.55 28.85 20.6 29.35 26.3 29.55 26.45 29.55 36.8 28.6 43.0 27.9 45.75 27.5 45.9 27.45 46.05 27.35 46.75 27.05 51.05 24.75 51.1 24.7 51.35 24.5 55.4 21.4 M8.45 25.8 L9.0 25.7 9.35 25.75 9.6 25.95 9.65 26.25 Q9.7 26.9 9.0 26.9 8.45 26.9 8.4 26.15 L8.4 26.1 8.45 25.8" fill="#e56400" fill-rule="evenodd" stroke="none"/>
      <path d="M51.45 -2.2 L53.6 -2.2 55.4 0.6 55.4 1.05 55.15 1.45 Q54.55 2.6 54.55 4.45 54.55 5.7 55.4 6.15 L55.4 11.15 Q53.35 11.0 52.15 9.9 50.95 8.7 50.95 6.8 50.95 5.15 52.05 3.65 52.55 2.9 53.2 2.4 L53.75 2.0 Q52.95 -0.25 51.45 -2.2 M25.1 33.85 Q32.35 33.55 39.85 32.0 L46.95 30.35 47.85 30.1 47.1 30.6 Q44.95 31.8 42.85 32.4 L41.55 32.9 40.15 33.25 Q31.25 35.2 24.6 35.4 L25.1 33.85 M0.45 30.35 L0.85 30.5 1.65 31.25 Q2.15 31.6 2.65 32.05 L1.2 31.55 0.45 30.35" fill="#1768d9" fill-rule="evenodd" stroke="none"/>
      <path d="M53.45 25.5 L51.15 27.65 50.2 28.4 48.45 29.75 47.85 30.1 46.95 30.35 39.85 32.0 Q32.35 33.55 25.1 33.85 L25.75 31.6 31.45 31.35 Q39.65 30.75 45.85 28.8 L49.15 27.6 49.25 27.5 50.05 27.2 53.45 25.5 M0.85 30.5 L0.45 30.35 0.05 29.75 0.85 30.5" fill="#0c46c6" fill-rule="evenodd" stroke="none"/>
      <path d="M4.3 -2.2 Q1.35 1.05 0.9 4.6 1.2 4.7 1.5 4.95 0.05 6.3 -1.85 7.4 L-1.85 -2.2 4.3 -2.2 M10.5 34.25 Q6.7 33.45 3.05 32.2 L2.65 32.05 Q2.15 31.6 1.65 31.25 L0.85 30.5 2.25 30.95 3.6 31.35 Q7.9 32.5 12.3 33.15 L22.3 33.85 25.1 33.85 24.6 35.4 22.95 35.4 10.5 34.25" fill="#95e0f3" fill-rule="evenodd" stroke="none"/>
      <path d="M53.6 -2.2 L55.4 -2.2 55.4 0.6 53.6 -2.2 M55.4 1.05 L55.4 6.15 Q54.55 5.7 54.55 4.45 54.55 2.6 55.15 1.45 L55.4 1.05" fill="#31a1f3" fill-rule="evenodd" stroke="none"/>
      <path d="M4.3 -2.2 L5.75 -2.2 Q3.9 0.1 3.45 2.65 3.3 3.35 3.3 4.1 L3.45 4.2 4.65 5.05 Q5.9 6.2 6.0 7.75 L6.0 7.95 Q6.0 9.5 4.8 10.95 L3.25 12.4 Q1.1 14.0 -0.9 14.4 L-1.85 14.35 -1.85 7.4 Q0.05 6.3 1.5 4.95 1.2 4.7 0.9 4.6 1.35 1.05 4.3 -2.2 M25.75 31.6 L25.1 33.85 22.3 33.85 12.3 33.15 Q7.9 32.5 3.6 31.35 L2.25 30.95 0.85 30.5 0.05 29.75 -0.85 28.65 -1.65 27.75 5.1 29.7 Q11.7 31.25 19.15 31.55 L22.5 31.6 25.35 31.6 25.75 31.6" fill="#51b2e9" fill-rule="evenodd" stroke="none"/>
      <path d="M18.6 -2.2 L25.6 -2.2 Q24.1 -1.8 22.75 -1.05 L20.85 0.25 19.35 1.6 Q15.65 5.35 15.65 9.8 L15.7 10.75 Q16.05 14.8 19.45 17.1 L21.55 18.25 Q23.4 19.05 25.4 19.05 30.05 19.05 33.6 16.85 L35.25 15.4 36.2 15.75 38.0 15.9 Q39.1 15.85 40.05 14.95 L41.25 13.2 Q42.75 13.2 43.7 12.25 44.4 11.55 44.6 10.45 L44.65 9.8 Q44.65 8.4 43.95 7.15 43.0 5.4 40.95 5.4 L39.6 5.6 Q39.0 5.75 38.5 6.1 39.0 1.75 36.5 -0.4 35.05 -1.65 32.7 -2.2 L38.35 -2.2 Q39.7 -0.7 40.35 1.4 L40.4 1.7 40.4 2.55 40.4 2.75 41.1 2.75 Q43.3 2.75 45.35 4.45 L45.85 4.8 46.35 5.4 Q47.7 7.05 47.7 9.15 47.7 12.0 45.95 13.9 44.6 15.35 43.65 15.35 43.1 15.35 42.6 15.0 L41.25 17.7 Q40.15 19.3 38.25 19.3 L35.85 18.85 35.4 18.65 Q34.0 20.05 31.4 20.95 28.75 21.9 26.85 21.9 21.9 21.9 18.5 19.45 17.5 18.75 16.65 17.8 15.1 16.15 14.2 14.05 L13.6 11.95 13.35 10.6 13.25 9.9 13.2 8.8 13.2 8.7 Q13.2 3.65 17.3 -0.9 L18.6 -2.2" fill="#ecfdff" fill-rule="evenodd" stroke="none"/>
      <path d="M3.45 4.2 L3.3 4.1 Q3.3 3.35 3.45 2.65 3.9 0.1 5.75 -2.2 L7.5 -2.2 5.85 0.1 5.35 0.8 3.45 4.2 M47.8 -2.2 L51.45 -2.2 Q52.95 -0.25 53.75 2.0 L53.2 2.4 Q52.55 2.9 52.05 3.65 50.95 5.15 50.95 6.8 50.95 8.7 52.15 9.9 53.35 11.0 55.4 11.15 L55.4 12.65 55.0 12.55 53.5 12.25 Q51.95 11.95 50.8 10.9 48.6 9.0 48.6 5.0 L48.75 4.05 48.85 3.65 47.2 4.1 46.85 4.25 47.15 3.45 Q48.35 0.35 48.35 -0.85 L48.3 -1.75 47.8 -2.2 M49.65 -0.15 L49.4 0.25 49.3 0.65 Q49.3 1.6 50.0 2.15 50.5 2.6 50.9 2.6 L51.7 2.45 51.85 1.8 51.85 1.6 Q51.85 0.75 50.95 0.25 L49.7 -0.15 49.65 -0.15 M18.5 19.45 Q17.05 20.4 17.05 21.7 17.05 24.2 23.75 24.85 L24.0 24.9 36.15 25.15 Q44.05 25.15 51.05 24.75 L46.75 27.05 46.05 27.35 45.9 27.45 27.0 26.65 24.9 26.55 22.65 26.35 Q11.45 25.05 11.45 22.05 11.45 20.6 13.0 16.9 L14.2 14.05 Q15.1 16.15 16.65 17.8 17.5 18.75 18.5 19.45 M13.6 11.95 Q12.0 11.05 8.0 10.9 L8.65 8.45 13.25 9.9 13.35 10.6 13.6 11.95" fill="#ffbe2c" fill-rule="evenodd" stroke="none"/>
      <path d="M7.5 -2.2 L18.6 -2.2 17.3 -0.9 Q13.2 3.65 13.2 8.7 L13.2 8.8 13.25 9.9 8.65 8.45 8.7 7.25 8.4 4.5 8.35 4.1 Q7.35 3.4 6.7 2.3 6.05 1.2 5.85 0.1 L7.5 -2.2 M38.35 -2.2 L47.8 -2.2 48.3 -1.75 48.35 -0.85 Q48.35 0.35 47.15 3.45 L46.85 4.25 47.2 4.1 48.85 3.65 48.75 4.05 48.6 5.0 Q48.6 9.0 50.8 10.9 51.95 11.95 53.5 12.25 L55.0 12.55 55.4 12.65 55.4 21.4 51.35 24.5 51.1 24.7 51.05 24.75 Q44.05 25.15 36.15 25.15 L24.0 24.9 23.75 24.85 Q17.05 24.2 17.05 21.7 17.05 20.4 18.5 19.45 21.9 21.9 26.85 21.9 28.75 21.9 31.4 20.95 34.0 20.05 35.4 18.65 L35.85 18.85 38.25 19.3 Q40.15 19.3 41.25 17.7 L42.6 15.0 Q43.1 15.35 43.65 15.35 44.6 15.35 45.95 13.9 47.7 12.0 47.7 9.15 47.7 7.05 46.35 5.4 L45.85 4.8 45.35 4.45 Q43.3 2.75 41.1 2.75 L40.4 2.75 40.4 2.55 40.4 1.7 40.35 1.4 Q39.7 -0.7 38.35 -2.2 M-1.85 22.65 L-1.85 16.05 -0.85 16.15 0.75 16.15 Q2.9 15.75 4.8 14.55 7.05 13.1 8.0 10.9 12.0 11.05 13.6 11.95 L14.2 14.05 13.0 16.9 Q11.45 20.6 11.45 22.05 11.45 25.05 22.65 26.35 L24.9 26.55 27.0 26.65 45.9 27.45 45.75 27.5 43.0 27.9 36.8 28.6 26.45 29.55 26.3 29.55 20.6 29.35 15.55 28.85 11.6 28.2 7.35 27.3 7.4 27.0 7.35 26.35 6.85 25.35 Q6.25 24.55 5.05 24.55 4.4 24.55 3.7 25.0 3.1 25.4 2.9 25.95 L1.1 25.25 Q-0.75 24.05 -1.85 22.65 M8.45 25.8 L8.4 26.1 8.4 26.15 Q8.45 26.9 9.0 26.9 9.7 26.9 9.65 26.25 L9.6 25.95 9.35 25.75 9.0 25.7 8.45 25.8" fill="#f3970b" fill-rule="evenodd" stroke="none"/>
      <path d="M25.6 -2.2 L32.7 -2.2 Q35.05 -1.65 36.5 -0.4 39.0 1.75 38.5 6.1 L38.0 6.5 36.65 5.15 35.85 4.55 Q33.2 2.75 30.65 2.75 29.0 2.75 27.35 3.85 L27.0 4.1 26.7 4.35 Q25.7 5.2 25.7 7.0 25.7 9.75 27.25 10.85 28.1 11.4 29.15 11.4 30.55 11.4 31.6 10.45 32.5 9.65 32.7 8.7 32.7 7.65 32.2 7.05 31.55 6.15 30.2 6.15 L29.85 6.2 29.65 7.0 Q29.2 7.65 28.35 7.65 28.05 7.75 27.8 7.5 27.35 7.2 27.25 6.35 27.35 5.55 27.9 4.9 29.0 3.7 31.5 3.7 32.95 3.7 34.85 5.1 35.8 5.8 36.35 7.25 L36.65 8.3 36.7 8.65 36.85 9.9 Q36.45 11.25 35.0 12.65 32.65 15.0 29.55 15.0 26.4 15.0 23.35 12.75 19.6 9.9 19.6 5.2 19.6 2.55 20.85 0.25 L22.75 -1.05 Q24.1 -1.8 25.6 -2.2 M29.1 -1.0 Q26.35 -1.0 24.55 -0.25 L25.2 -0.35 28.25 -0.65 30.95 -0.45 32.5 -0.1 32.55 -0.25 32.6 -0.65 32.6 -0.8 29.1 -1.0 M33.55 -0.4 L33.45 -0.15 Q33.45 0.95 34.6 0.95 35.3 0.95 35.3 0.35 L35.3 0.3 34.55 -0.45 33.8 -0.7 33.55 -0.4 M41.15 6.25 L40.85 6.25 40.8 6.55 Q40.8 7.0 41.25 7.1 41.5 7.1 41.65 6.9 L41.8 6.55 Q41.8 6.2 41.4 6.2 L41.15 6.25 M44.6 10.45 Q43.85 11.25 42.7 11.25 42.2 11.25 41.8 10.95 L41.5 10.65 41.8 9.75 Q41.8 9.15 41.4 8.6 L41.3 8.5 40.95 8.15 40.2 8.4 Q39.25 8.4 39.25 7.05 39.35 6.2 39.6 5.6 L40.95 5.4 Q43.0 5.4 43.95 7.15 44.65 8.4 44.65 9.8 L44.6 10.45" fill="#2effb4" fill-rule="evenodd" stroke="none"/>
      <path d="M29.1 -1.0 L32.6 -0.8 32.6 -0.65 32.55 -0.25 32.5 -0.1 30.95 -0.45 28.25 -0.65 25.2 -0.35 24.55 -0.25 Q26.35 -1.0 29.1 -1.0 M33.55 -0.4 L33.8 -0.7 34.55 -0.45 35.3 0.3 35.3 0.35 Q35.3 0.95 34.6 0.95 33.45 0.95 33.45 -0.15 L33.55 -0.4 M41.15 6.25 L41.4 6.2 Q41.8 6.2 41.8 6.55 L41.65 6.9 Q41.5 7.1 41.25 7.1 40.8 7.0 40.8 6.55 L40.85 6.25 41.15 6.25" fill="#bfffe8" fill-rule="evenodd" stroke="none"/>
      <path d="M49.65 -0.15 L49.7 -0.15 50.95 0.25 Q51.85 0.75 51.85 1.6 L51.85 1.8 51.7 2.45 50.9 2.6 Q50.5 2.6 50.0 2.15 49.3 1.6 49.3 0.65 L49.4 0.25 49.65 -0.15" fill="#ffdd3c" fill-rule="evenodd" stroke="none"/>
      <path d="M55.4 24.4 L55.4 48.4 54.2 47.7 Q52.7 46.75 51.4 45.4 L50.7 44.65 50.5 44.4 49.15 42.45 Q47.25 39.05 47.25 34.8 47.25 33.2 47.7 31.65 47.95 30.65 48.45 29.75 L50.2 28.4 51.15 27.65 53.45 25.5 55.3 24.45 55.4 24.4" fill="#7cbce2" fill-rule="evenodd" stroke="none"/>
      <path d="M20.85 0.25 Q19.6 2.55 19.6 5.2 19.6 9.9 23.35 12.75 26.4 15.0 29.55 15.0 32.65 15.0 35.0 12.65 36.45 11.25 36.85 9.9 L36.9 10.5 36.75 12.5 Q36.4 14.1 35.25 15.4 L33.6 16.85 Q30.05 19.05 25.4 19.05 23.4 19.05 21.55 18.25 L19.45 17.1 Q16.05 14.8 15.7 10.75 L15.65 9.8 Q15.65 5.35 19.35 1.6 L20.85 0.25 M36.65 8.3 L36.35 7.25 Q35.8 5.8 34.85 5.1 32.95 3.7 31.5 3.7 29.0 3.7 27.9 4.9 27.35 5.55 27.25 6.35 27.35 7.2 27.8 7.5 28.05 7.75 28.35 7.65 29.2 7.65 29.65 7.0 L29.85 6.2 30.2 6.15 Q31.55 6.15 32.2 7.05 32.7 7.65 32.7 8.7 32.5 9.65 31.6 10.45 30.55 11.4 29.15 11.4 28.1 11.4 27.25 10.85 25.7 9.75 25.7 7.0 25.7 5.2 26.7 4.35 L27.0 4.1 27.35 3.85 Q29.0 2.75 30.65 2.75 33.2 2.75 35.85 4.55 L36.65 5.15 38.0 6.5 38.5 6.1 Q39.0 5.75 39.6 5.6 39.35 6.2 39.25 7.05 39.25 8.4 40.2 8.4 L40.95 8.15 41.3 8.5 41.4 8.6 Q41.8 9.15 41.8 9.75 L41.5 10.65 41.8 10.95 Q42.2 11.25 42.7 11.25 43.85 11.25 44.6 10.45 44.4 11.55 43.7 12.25 42.75 13.2 41.25 13.2 L41.2 13.2 Q40.15 13.2 39.65 12.4 L39.55 12.55 Q39.2 13.0 38.85 13.0 38.35 13.0 38.0 12.55 L37.95 12.45 38.15 10.65 37.85 8.2 37.4 7.1 Q36.9 7.65 36.65 8.3 M38.0 6.5 L37.55 6.9 37.4 7.1 37.55 6.9 38.0 6.5 M30.4 6.95 Q32.85 7.9 31.7 9.2 30.5 10.45 30.05 10.3 L28.7 9.65 Q27.25 8.7 27.25 6.65 L27.25 6.35 27.25 6.65 Q27.25 8.7 28.7 9.65 L30.05 10.3 Q30.5 10.45 31.7 9.2 32.85 7.9 30.4 6.95 M40.95 9.4 Q40.25 9.35 39.75 9.75 39.2 10.2 39.2 11.0 39.2 11.65 39.55 12.25 L39.65 12.4 39.55 12.25 Q39.2 11.65 39.2 11.0 39.2 10.2 39.75 9.75 40.25 9.35 40.95 9.4" fill="#0ebabf" fill-rule="evenodd" stroke="none"/>
      <path d="M36.85 9.9 L36.7 8.65 36.65 8.3 Q36.9 7.65 37.4 7.1 L37.85 8.2 38.15 10.65 37.95 12.45 38.0 12.55 Q38.35 13.0 38.85 13.0 39.2 13.0 39.55 12.55 L39.65 12.4 Q40.15 13.2 41.2 13.2 L41.25 13.2 40.05 14.95 Q39.1 15.85 38.0 15.9 L36.2 15.75 35.25 15.4 Q36.4 14.1 36.75 12.5 L36.9 10.5 36.85 9.9" fill="#0c87a6" fill-rule="evenodd" stroke="none"/>
      <path d="M-1.5 51.45 L-1.85 51.75 -1.85 38.0 -1.2 39.45 -0.95 40.15 Q0.3 43.3 0.4 45.45 L0.35 46.2 0.45 45.55 0.65 44.1 0.85 42.3 Q0.85 40.6 0.3 38.6 L0.05 37.75 -0.95 35.15 -1.15 35.1 -1.85 35.2 -1.85 27.55 -1.65 27.75 -0.85 28.65 0.05 29.75 0.45 30.35 1.2 31.55 2.35 33.85 3.3 36.9 Q3.8 38.95 3.8 41.2 3.8 43.65 2.85 45.9 L2.55 46.55 Q1.4 48.85 -0.85 50.9 L-1.3 51.3 -1.5 51.45" fill="#b9eefc" fill-rule="evenodd" stroke="none"/>
      <path d="M47.7 31.65 Q47.25 33.2 47.25 34.8 47.25 39.05 49.15 42.45 L48.85 43.7 48.75 44.05 48.6 44.4 48.15 44.95 47.5 45.4 47.15 45.6 47.1 45.65 Q43.85 47.6 38.1 49.05 L34.85 49.8 Q28.05 51.1 20.5 51.1 L17.15 51.0 9.25 49.7 Q6.3 48.9 4.35 47.6 L3.5 46.95 3.3 46.65 2.85 45.9 Q3.8 43.65 3.8 41.2 3.8 38.95 3.3 36.9 L2.35 33.85 2.7 32.95 3.05 32.2 Q6.7 33.45 10.5 34.25 L9.75 35.25 9.4 36.05 7.9 35.7 5.5 35.0 5.95 37.2 6.35 40.35 Q6.35 43.3 5.7 45.15 L5.7 45.2 Q8.55 47.25 9.95 47.85 12.8 49.05 17.05 49.5 L17.45 49.5 21.55 49.65 Q29.6 49.65 38.15 47.6 L39.65 47.25 Q44.2 46.05 47.4 44.5 L47.6 44.4 47.7 42.0 Q47.7 36.1 46.0 33.7 L43.8 34.35 43.85 34.55 Q44.5 36.45 44.55 38.25 L44.55 38.65 Q44.55 40.95 44.0 42.75 L43.1 44.6 41.65 45.05 41.25 44.55 41.35 44.5 Q43.45 42.3 43.45 39.25 L43.4 38.15 43.25 37.1 42.55 34.75 42.05 33.75 41.55 32.9 42.85 32.4 Q44.95 31.8 47.1 30.6 L47.7 31.65" fill="#6c8780" fill-rule="evenodd" stroke="none"/>
      <path d="M41.55 32.9 L42.05 33.75 42.55 34.75 43.25 37.1 43.4 38.15 43.45 39.25 Q43.45 42.3 41.35 44.5 L41.25 44.55 Q31.0 47.25 21.0 47.25 L13.7 46.5 12.65 46.25 Q11.25 45.4 10.5 44.35 8.9 42.15 8.7 40.3 L8.65 39.7 Q8.65 37.7 9.4 36.05 L9.75 35.25 10.5 34.25 22.95 35.4 24.6 35.4 Q31.25 35.2 40.15 33.25 L41.55 32.9 M10.4 40.15 Q10.65 42.0 11.7 43.4 12.75 44.8 14.3 45.4 L15.8 45.75 21.95 46.35 Q26.05 46.35 31.95 45.0 L39.65 42.95 40.3 42.0 Q41.65 40.1 41.65 38.75 L41.5 38.05 Q41.2 36.45 40.6 35.3 L38.95 35.7 39.15 36.0 Q39.75 36.9 40.0 38.1 L40.1 39.6 Q40.1 40.8 39.4 41.9 38.5 43.4 37.0 43.4 33.75 43.4 33.65 38.35 L33.65 38.2 Q33.65 37.35 33.95 36.6 L23.4 37.3 21.5 37.3 Q22.1 38.05 22.35 39.15 L22.45 40.45 Q22.45 41.65 21.85 42.85 20.85 44.75 18.7 44.75 17.2 44.75 16.05 43.7 14.6 42.4 14.45 39.8 L14.45 39.05 Q14.45 37.9 15.0 37.0 L15.05 36.9 10.95 36.35 10.8 36.3 10.65 36.6 Q10.3 37.75 10.3 38.8 L10.4 40.15 M16.8 37.8 Q16.0 38.75 16.0 40.15 16.0 41.5 16.8 42.5 17.6 43.5 18.7 43.5 19.85 43.5 20.65 42.5 21.45 41.5 21.45 40.15 L21.25 38.8 20.65 37.8 Q19.85 36.8 18.7 36.8 17.6 36.8 16.8 37.8 M39.15 39.75 L39.2 39.3 39.15 38.85 38.95 38.15 38.5 37.4 Q37.85 36.6 36.9 36.6 35.95 36.6 35.25 37.4 34.8 37.95 34.65 38.65 L34.6 39.3 Q34.6 40.4 35.25 41.2 35.95 42.0 36.9 42.0 37.85 42.0 38.5 41.2 L39.15 39.75" fill="#161223" fill-rule="evenodd" stroke="none"/>
      <path d="M41.65 45.05 L43.1 44.6 44.0 42.75 Q44.55 40.95 44.55 38.65 L44.55 38.25 Q44.5 36.45 43.85 34.55 L43.8 34.35 46.0 33.7 Q47.7 36.1 47.7 42.0 L47.6 44.4 47.4 44.5 Q44.2 46.05 39.65 47.25 L38.15 47.6 Q29.6 49.65 21.55 49.65 L17.45 49.5 17.05 49.5 Q12.8 49.05 9.95 47.85 8.55 47.25 5.7 45.2 L5.7 45.15 Q6.35 43.3 6.35 40.35 L5.95 37.2 5.5 35.0 7.9 35.7 7.8 36.3 7.55 38.35 7.65 40.45 Q7.95 43.7 9.3 45.75 L11.85 46.8 12.05 46.85 Q17.4 48.7 22.65 48.7 28.65 48.7 35.9 46.85 L41.65 45.05" fill="#8fa797" fill-rule="evenodd" stroke="none"/>
      <path d="M41.5 38.05 L41.65 38.75 Q41.65 40.1 40.3 42.0 L39.65 42.95 31.95 45.0 Q26.05 46.35 21.95 46.35 L15.8 45.75 14.3 45.4 Q12.75 44.8 11.7 43.4 10.65 42.0 10.4 40.15 L14.45 39.8 Q14.6 42.4 16.05 43.7 17.2 44.75 18.7 44.75 20.85 44.75 21.85 42.85 22.45 41.65 22.45 40.45 L22.35 39.15 33.65 38.35 Q33.75 43.4 37.0 43.4 38.5 43.4 39.4 41.9 40.1 40.8 40.1 39.6 L40.0 38.1 41.5 38.05" fill="#292946" fill-rule="evenodd" stroke="none"/>
      <path d="M41.25 44.55 L41.65 45.05 35.9 46.85 Q28.65 48.7 22.65 48.7 17.4 48.7 12.05 46.85 L11.85 46.8 12.3 46.45 12.65 46.25 13.7 46.5 21.0 47.25 Q31.0 47.25 41.25 44.55" fill="#b1cdc4" fill-rule="evenodd" stroke="none"/>
      <path d="M55.4 48.4 L55.4 51.85 49.95 51.45 48.45 51.45 47.0 54.15 44.3 53.7 44.2 54.0 43.85 53.9 43.05 53.65 42.55 53.5 40.3 52.75 43.9 52.15 44.1 51.4 42.8 50.9 42.0 50.7 48.9 49.8 50.9 49.5 53.6 49.1 54.2 47.7 55.4 48.4 M50.25 54.45 L51.55 54.4 50.6 55.1 49.4 55.1 50.25 54.45 M33.85 55.1 L31.4 55.1 30.6 54.55 29.1 55.05 29.15 55.1 22.45 55.1 19.6 54.0 17.9 53.15 10.65 52.15 8.05 51.45 Q6.7 53.1 4.0 55.1 L0.85 55.1 4.65 52.4 -1.15 51.55 -1.5 51.45 -1.3 51.3 -0.85 50.9 Q1.4 48.85 2.55 46.55 L3.5 46.95 4.35 47.6 Q6.3 48.9 9.25 49.7 L17.15 51.0 18.2 52.25 18.3 52.35 Q20.35 54.05 24.2 54.05 L30.05 53.2 Q32.15 52.65 33.35 51.85 34.75 50.95 34.85 49.8 L38.1 49.05 Q43.85 47.6 47.1 45.65 L47.15 45.6 50.5 44.4 50.7 44.65 Q48.65 46.55 45.0 48.3 40.2 50.65 36.75 50.8 35.55 52.1 33.25 53.35 L33.6 54.35 33.85 55.1 M16.35 55.1 L16.15 55.1 16.4 54.9 16.35 55.1 M10.8 55.1 L10.25 55.1 11.35 54.4 10.8 55.1 M48.45 51.45 L47.85 51.45 45.3 51.55 47.85 51.45 48.45 51.45 M44.3 53.7 L44.2 53.7 44.0 53.6 42.55 53.5 44.0 53.6 44.2 53.7 44.3 53.7" fill="#16a2e0" fill-rule="evenodd" stroke="none"/>
      <path d="M47.0 54.15 L50.1 54.45 50.25 54.45 49.4 55.1 33.85 55.1 33.6 54.35 33.25 53.35 Q35.55 52.1 36.75 50.8 40.2 50.65 45.0 48.3 48.65 46.55 50.7 44.65 L51.4 45.4 Q52.7 46.75 54.2 47.7 L53.6 49.1 50.9 49.5 48.9 49.8 42.0 50.7 42.8 50.9 44.1 51.4 43.9 52.15 40.3 52.75 42.55 53.5 43.05 53.65 43.85 53.9 44.2 54.0 44.3 53.7 47.0 54.15 M31.4 55.1 L29.15 55.1 29.1 55.05 30.6 54.55 31.4 55.1 M22.45 55.1 L16.35 55.1 16.4 54.9 16.15 55.1 10.8 55.1 11.35 54.4 10.25 55.1 4.0 55.1 Q6.7 53.1 8.05 51.45 L10.65 52.15 17.9 53.15 19.6 54.0 22.45 55.1" fill="#2edcff" fill-rule="evenodd" stroke="none"/>
      <path d="M10.4 40.15 L10.3 38.8 Q10.3 37.75 10.65 36.6 L10.8 36.3 10.95 36.35 15.05 36.9 15.0 37.0 Q14.45 37.9 14.45 39.05 L14.45 39.8 10.4 40.15 M22.35 39.15 Q22.1 38.05 21.5 37.3 L23.4 37.3 33.95 36.6 Q33.65 37.35 33.65 38.2 L33.65 38.35 22.35 39.15 M40.0 38.1 Q39.75 36.9 39.15 36.0 L38.95 35.7 40.6 35.3 Q41.2 36.45 41.5 38.05 L40.0 38.1" fill="#1e2133" fill-rule="evenodd" stroke="none"/>
      <path d="M7.9 35.7 L9.4 36.05 Q8.65 37.7 8.65 39.7 L8.7 40.3 Q8.9 42.15 10.5 44.35 11.25 45.4 12.65 46.25 L12.3 46.45 11.85 46.8 9.3 45.75 Q7.95 43.7 7.65 40.45 L7.55 38.35 7.8 36.3 7.9 35.7" fill="#addbda" fill-rule="evenodd" stroke="none"/>
      <path d="M-1.85 38.0 L-1.85 35.2 -1.15 35.1 -0.95 35.15 0.05 37.75 0.3 38.6 Q0.85 40.6 0.85 42.3 L0.65 44.1 0.45 45.55 0.35 46.2 0.4 45.45 Q0.3 43.3 -0.95 40.15 L-1.2 39.45 -1.85 38.0" fill="#f3fcff" fill-rule="evenodd" stroke="none"/>
      <path d="M19.05 38.65 L19.05 38.7 19.05 38.8 Q19.1 39.25 19.45 39.6 L19.9 40.0 Q20.35 40.0 20.35 39.2 L20.3 38.8 20.15 38.4 19.65 38.2 19.35 38.35 19.05 38.65 M16.8 37.8 Q17.6 36.8 18.7 36.8 19.85 36.8 20.65 37.8 L21.25 38.8 21.45 40.15 Q21.45 41.5 20.65 42.5 19.85 43.5 18.7 43.5 17.6 43.5 16.8 42.5 16.0 41.5 16.0 40.15 16.0 38.75 16.8 37.8 M39.15 39.75 L38.5 41.2 Q37.85 42.0 36.9 42.0 35.95 42.0 35.25 41.2 34.6 40.4 34.6 39.3 L34.65 38.65 Q34.8 37.95 35.25 37.4 35.95 36.6 36.9 36.6 37.85 36.6 38.5 37.4 L38.95 38.15 39.15 38.85 39.2 39.3 39.15 39.75 M38.1 38.3 L37.95 38.1 37.4 37.85 37.1 38.1 37.05 38.3 37.1 38.4 37.55 39.25 38.15 39.25 38.25 38.8 38.1 38.3" fill="#0aa2e3" fill-rule="evenodd" stroke="none"/>
      <path d="M17.15 51.0 L20.5 51.1 Q28.05 51.1 34.85 49.8 34.75 50.95 33.35 51.85 32.15 52.65 30.05 53.2 L24.2 54.05 Q20.35 54.05 18.3 52.35 L18.2 52.25 17.15 51.0 M27.8 52.75 L28.75 52.4 25.75 52.5 22.35 52.5 Q22.65 53.0 23.5 53.2 L24.9 53.2 27.8 52.75" fill="#c45905" fill-rule="evenodd" stroke="none"/>
      <path d="M27.8 52.75 L24.9 53.2 23.5 53.2 Q22.65 53.0 22.35 52.5 L25.75 52.5 28.75 52.4 27.8 52.75" fill="#d77805" fill-rule="evenodd" stroke="none"/>
      <path d="M-1.85 14.35 L-0.9 14.4 Q1.1 14.0 3.25 12.4 L4.8 10.95 Q6.0 9.5 6.0 7.95 L6.0 7.75 Q5.9 6.2 4.65 5.05 L3.45 4.2 3.3 4.1 Q3.3 3.35 3.45 2.65 3.9 0.1 5.75 -2.2 M55.4 51.85 L49.95 51.45 48.45 51.45 47.0 54.15 50.1 54.45 50.25 54.45 51.55 54.4 50.6 55.1 M0.85 55.1 L4.65 52.4 -1.15 51.55 -1.5 51.45 -1.85 51.75 M25.6 -2.2 Q24.1 -1.8 22.75 -1.05 L20.85 0.25 19.35 1.6 Q15.65 5.35 15.65 9.8 L15.7 10.75 Q16.05 14.8 19.45 17.1 L21.55 18.25 Q23.4 19.05 25.4 19.05 30.05 19.05 33.6 16.85 L35.25 15.4 Q36.4 14.1 36.75 12.5 L36.9 10.5 36.85 9.9 36.7 8.65 36.65 8.3 36.35 7.25 Q35.8 5.8 34.85 5.1 32.95 3.7 31.5 3.7 29.0 3.7 27.9 4.9 27.35 5.55 27.25 6.35 L27.25 6.65 Q27.25 8.7 28.7 9.65 L30.05 10.3 Q30.5 10.45 31.7 9.2 32.85 7.9 30.4 6.95 M38.0 6.5 L38.5 6.1 Q39.0 1.75 36.5 -0.4 35.05 -1.65 32.7 -2.2 M55.4 11.15 Q53.35 11.0 52.15 9.9 50.95 8.7 50.95 6.8 50.95 5.15 52.05 3.65 52.55 2.9 53.2 2.4 L53.75 2.0 Q52.95 -0.25 51.45 -2.2 M44.6 10.45 L44.65 9.8 Q44.65 8.4 43.95 7.15 43.0 5.4 40.95 5.4 L39.6 5.6 Q39.0 5.75 38.5 6.1 M44.6 10.45 Q44.4 11.55 43.7 12.25 42.75 13.2 41.25 13.2 L40.05 14.95 Q39.1 15.85 38.0 15.9 L36.2 15.75 35.25 15.4 M41.25 13.2 L41.2 13.2 Q40.15 13.2 39.65 12.4 L39.55 12.25 Q39.2 11.65 39.2 11.0 39.2 10.2 39.75 9.75 40.25 9.35 40.95 9.4 M37.4 7.1 Q36.9 7.65 36.65 8.3 M53.45 25.5 L55.3 24.45 55.4 24.4 M48.45 29.75 L50.2 28.4 51.15 27.65 53.45 25.5 50.05 27.2 49.25 27.5 49.15 27.6 45.85 28.8 Q39.65 30.75 31.45 31.35 L25.75 31.6 25.35 31.6 22.5 31.6 19.15 31.55 Q11.7 31.25 5.1 29.7 L-1.65 27.75 -1.85 27.55 M47.85 30.1 L48.45 29.75 Q47.95 30.65 47.7 31.65 47.25 33.2 47.25 34.8 47.25 39.05 49.15 42.45 L50.5 44.4 50.7 44.65 51.4 45.4 Q52.7 46.75 54.2 47.7 L55.4 48.4 M47.85 30.1 L47.1 30.6 47.7 31.65 M47.1 30.6 Q44.95 31.8 42.85 32.4 L41.55 32.9 42.05 33.75 42.55 34.75 43.25 37.1 43.4 38.15 43.45 39.25 Q43.45 42.3 41.35 44.5 L41.25 44.55 Q31.0 47.25 21.0 47.25 L13.7 46.5 12.65 46.25 Q11.25 45.4 10.5 44.35 8.9 42.15 8.7 40.3 L8.65 39.7 Q8.65 37.7 9.4 36.05 L9.75 35.25 10.5 34.25 Q6.7 33.45 3.05 32.2 L2.7 32.95 2.35 33.85 3.3 36.9 Q3.8 38.95 3.8 41.2 3.8 43.65 2.85 45.9 L3.3 46.65 3.5 46.95 4.35 47.6 Q6.3 48.9 9.25 49.7 L17.15 51.0 20.5 51.1 Q28.05 51.1 34.85 49.8 L38.1 49.05 Q43.85 47.6 47.1 45.65 L47.15 45.6 47.5 45.4 48.15 44.95 48.6 44.4 48.75 44.05 48.85 43.7 49.15 42.45 M50.5 44.4 L47.15 45.6 M37.4 7.1 L37.55 6.9 38.0 6.5 M0.05 29.75 L0.45 30.35 1.2 31.55 2.65 32.05 3.05 32.2 M24.6 35.4 Q31.25 35.2 40.15 33.25 L41.55 32.9 M2.35 33.85 L1.2 31.55 M3.5 46.95 L2.55 46.55 Q1.4 48.85 -0.85 50.9 L-1.3 51.3 -1.5 51.45 M2.55 46.55 L2.85 45.9 M16.8 37.8 Q17.6 36.8 18.7 36.8 19.85 36.8 20.65 37.8 L21.25 38.8 21.45 40.15 Q21.45 41.5 20.65 42.5 19.85 43.5 18.7 43.5 17.6 43.5 16.8 42.5 16.0 41.5 16.0 40.15 16.0 38.75 16.8 37.8 M24.6 35.4 L22.95 35.4 10.5 34.25 M39.15 39.75 L38.5 41.2 Q37.85 42.0 36.9 42.0 35.95 42.0 35.25 41.2 34.6 40.4 34.6 39.3 L34.65 38.65 Q34.8 37.95 35.25 37.4 35.95 36.6 36.9 36.6 37.85 36.6 38.5 37.4 L38.95 38.15 39.15 38.85 39.2 39.3 39.15 39.75 M17.15 51.0 L18.2 52.25 18.3 52.35 Q20.35 54.05 24.2 54.05 L30.05 53.2 Q32.15 52.65 33.35 51.85 34.75 50.95 34.85 49.8 M45.3 51.55 L47.85 51.45 48.45 51.45 M42.55 53.5 L44.0 53.6 44.2 53.7 44.3 53.7 47.0 54.15 M0.05 29.75 L-0.85 28.65 -1.65 27.75" fill="none" stroke="#8c2a71" stroke-linecap="round" stroke-linejoin="round" stroke-width="1.0"/>
    </g>
    <g id="shape2" transform="matrix(1.0, 0.0, 0.0, 1.0, 0.0, 0.0)">
      <path d="M50.5 0.0 Q53.95 0.0 53.95 3.3 L53.95 50.15 Q53.95 53.4 50.5 53.4 L3.3 53.4 Q0.0 53.4 0.0 50.15 L0.0 3.3 Q0.0 0.0 3.3 0.0 L50.5 0.0" fill="#000000" fill-opacity="0.003921569" fill-rule="evenodd" stroke="none"/>
    </g>
  </defs>
</svg>
