<?xml version="1.0" encoding="UTF-8" standalone="no"?>
<svg xmlns:ffdec="https://www.free-decompiler.com/flash" xmlns:xlink="http://www.w3.org/1999/xlink" ffdec:objectType="frame" height="55.95px" width="56.4px" xmlns="http://www.w3.org/2000/svg">
  <g transform="matrix(1.0, 0.0, 0.0, 1.0, 1.1, 1.2)">
    <clipPath id="clipPath0" transform="matrix(1.0, 0.0, 0.0, 1.0, 0.0, 0.0)">
      <path d="M50.5 0.0 Q53.95 0.0 53.95 3.3 L53.95 50.15 Q53.95 53.4 50.5 53.4 L3.3 53.4 Q0.0 53.4 0.0 50.15 L0.0 3.3 Q0.0 0.0 3.3 0.0 L50.5 0.0" fill="#000000" fill-rule="evenodd" stroke="none"/>
    </clipPath>
    <g clip-path="url(#clipPath0)">
      <use ffdec:characterId="2" height="55.95" transform="matrix(1.0, 0.0, 0.0, 1.0, -1.1, -1.2)" width="56.4" xlink:href="#shape1"/>
    </g>
    <use ffdec:characterId="3" height="53.4" transform="matrix(1.0, 0.0, 0.0, 1.0, 0.0, 0.0)" width="53.95" xlink:href="#shape2"/>
  </g>
  <defs>
    <g id="shape1" transform="matrix(1.0, 0.0, 0.0, 1.0, 1.1, 1.2)">
      <path d="M11.35 -0.7 L12.65 -0.7 11.55 0.6 Q8.35 4.1 4.6 5.2 L4.15 4.3 3.7 3.25 Q8.2 2.9 11.35 -0.7 M49.25 7.15 L49.05 9.35 47.0 8.25 46.7 7.55 Q45.55 7.3 44.45 6.55 L44.0 6.15 43.9 6.05 43.45 5.6 Q42.2 4.1 42.2 1.6 L42.3 0.7 44.0 1.6 44.25 1.7 Q43.9 2.55 43.9 3.5 43.9 4.8 44.6 5.25 L45.7 5.45 Q46.25 6.05 47.3 6.55 48.35 7.05 49.25 7.15" fill="#009bc9" fill-rule="evenodd" stroke="none"/>
      <path d="M15.55 -0.7 L19.8 -0.7 Q20.4 0.5 21.95 1.15 23.3 1.75 24.75 1.75 L27.2 1.4 28.1 1.15 Q23.7 3.0 17.85 6.1 L10.55 10.3 10.6 10.35 9.5 11.15 8.45 11.95 6.7 9.2 9.65 6.7 Q13.6 3.05 15.55 -0.7 M24.45 -0.7 L32.8 -0.7 34.35 -0.5 39.7 3.65 37.75 3.0 37.55 3.3 Q40.7 5.35 43.5 9.3 L43.0 8.7 40.1 6.0 39.8 5.8 38.0 4.5 35.0 2.7 31.3 1.4 31.2 1.65 31.1 1.9 30.95 1.75 30.95 1.65 30.65 1.35 31.55 1.05 30.15 0.85 29.5 0.25 27.35 0.4 Q25.8 0.4 24.6 -0.55 L24.45 -0.7 M31.95 1.0 L31.55 1.05 31.95 1.0 M37.2 3.05 L37.55 3.3 37.2 3.05 M47.0 8.25 L47.35 9.2 Q48.3 11.9 48.5 13.65 46.6 9.8 44.45 6.8 L47.0 8.25 M29.9 1.65 L29.85 1.65 Q27.9 2.45 23.35 5.55 21.55 6.8 19.3 8.4 15.05 11.5 12.65 13.55 L12.65 13.5 Q15.85 9.65 20.7 6.4 24.8 3.65 28.2 2.25 L29.85 1.6 29.9 1.65" fill="#50ddff" fill-rule="evenodd" stroke="none"/>
      <path d="M2.7 0.7 L4.75 -0.45 5.15 -0.7 11.35 -0.7 Q8.2 2.9 3.7 3.25 L2.7 0.7 M12.65 -0.7 L15.55 -0.7 Q13.6 3.05 9.65 6.7 L6.7 9.2 4.6 5.2 Q8.35 4.1 11.55 0.6 L12.65 -0.7 M49.85 4.85 L49.25 7.15 Q48.35 7.05 47.3 6.55 46.25 6.05 45.7 5.45 L44.6 5.25 Q43.9 4.8 43.9 3.5 43.9 2.55 44.25 1.7 L49.85 4.85 M34.35 -0.5 L36.9 -0.25 Q38.15 0.3 39.2 1.4 L40.35 3.05 40.4 2.6 Q40.4 1.15 39.85 -0.3 L39.8 -0.3 39.8 -0.35 39.8 -0.5 41.4 0.25 42.3 0.7 42.2 1.6 Q42.2 4.1 43.45 5.6 L43.9 6.05 Q42.4 4.85 40.05 3.85 L39.7 3.65 34.35 -0.5 M44.0 6.15 L44.45 6.55 Q45.55 7.3 46.7 7.55 L47.0 8.25 44.45 6.8 44.0 6.15" fill="#24c2ed" fill-rule="evenodd" stroke="none"/>
      <path d="M19.8 -0.7 L24.45 -0.7 24.6 -0.55 Q25.8 0.4 27.35 0.4 L29.5 0.25 30.15 0.85 29.15 0.75 28.1 1.15 27.2 1.4 24.75 1.75 Q23.3 1.75 21.95 1.15 20.4 0.5 19.8 -0.7 M32.8 -0.7 L34.1 -0.7 34.35 -0.5 32.8 -0.7 M49.05 9.35 L49.0 10.1 Q49.0 14.1 51.1 16.35 50.15 16.15 49.45 15.75 L48.5 13.65 Q48.3 11.9 47.35 9.2 L47.0 8.25 49.05 9.35 M30.05 1.55 L29.9 1.65 29.85 1.6 30.05 1.55" fill="#27bce5" fill-rule="evenodd" stroke="none"/>
      <path d="M34.1 -0.7 L39.25 -0.7 39.8 -0.3 39.85 -0.3 Q40.4 1.15 40.4 2.6 L40.35 3.05 39.2 1.4 Q38.15 0.3 36.9 -0.25 L34.35 -0.5 34.1 -0.7 M42.75 -0.7 L46.3 -0.7 45.8 -0.3 Q44.7 0.65 44.25 1.7 L44.0 1.6 42.3 0.7 42.75 -0.7" fill="#009ac4" fill-rule="evenodd" stroke="none"/>
      <path d="M39.25 -0.7 L42.75 -0.7 42.3 0.7 41.4 0.25 39.8 -0.5 39.8 -0.35 39.8 -0.3 39.25 -0.7 M46.3 -0.7 L52.95 -0.7 Q52.15 0.15 51.5 1.25 50.45 3.0 49.85 4.85 L44.25 1.7 Q44.7 0.65 45.8 -0.3 L46.3 -0.7" fill="#04afd7" fill-rule="evenodd" stroke="none"/>
      <path d="M43.9 6.05 L44.0 6.15 44.45 6.8 Q46.6 9.8 48.5 13.65 L49.45 15.75 49.8 16.5 51.0 19.45 51.2 19.8 51.9 20.9 52.15 21.35 51.95 22.1 51.9 22.2 52.25 23.4 53.2 27.85 53.4 28.65 52.15 28.95 51.3 24.15 50.95 22.65 50.85 22.15 50.5 20.9 49.5 17.2 48.35 15.5 43.5 9.3 Q40.7 5.35 37.55 3.3 L37.75 3.0 39.7 3.65 40.05 3.85 Q42.4 4.85 43.9 6.05 M51.4 20.6 L51.65 21.3 51.7 21.45 51.9 22.2 51.7 21.45 51.65 21.3 51.4 20.6 M51.95 22.1 L51.7 21.45 51.95 22.1 M10.6 10.35 L10.8 10.2 17.75 6.7 Q15.85 7.85 11.7 11.85 L11.4 12.05 10.7 12.75 9.75 13.7 9.45 14.0 8.3 15.15 8.05 15.2 7.6 15.25 4.4 15.8 3.75 16.0 Q6.05 13.85 8.45 11.95 L9.5 11.15 10.6 10.35" fill="#13b2e7" fill-rule="evenodd" stroke="none"/>
      <path d="M16.0 42.0 L14.4 42.15 11.75 42.05 9.2 41.8 Q8.1 37.7 7.75 33.7 L11.25 35.05 11.7 35.9 Q13.45 39.1 16.0 42.0" fill="#0082c9" fill-rule="evenodd" stroke="none"/>
      <path d="M48.05 18.0 Q46.95 14.8 45.1 11.75 L43.5 9.3 48.35 15.5 49.5 17.2 50.5 20.9 50.85 22.15 50.95 22.65 51.3 24.15 52.15 28.95 50.75 29.35 49.75 29.8 49.8 28.05 49.7 25.35 49.6 24.95 49.35 23.0 48.75 20.2 48.05 18.0 M17.75 6.7 L17.9 6.65 19.45 5.9 Q19.85 5.7 20.2 5.55 L17.5 7.85 12.1 12.6 10.3 14.45 10.15 14.55 9.85 14.95 9.6 14.95 9.5 15.0 9.1 15.05 8.4 15.15 8.3 15.15 9.45 14.0 9.75 13.7 10.7 12.75 11.4 12.05 11.7 11.85 Q15.85 7.85 17.75 6.7" fill="#14e3ff" fill-rule="evenodd" stroke="none"/>
      <path d="M49.75 29.8 L50.75 29.35 52.15 28.95 52.5 32.2 52.65 36.0 52.6 36.9 52.6 36.95 52.55 37.1 52.45 38.05 52.15 37.55 52.15 37.45 50.4 34.75 49.7 33.85 49.45 33.55 49.75 29.8 M8.3 15.15 L8.4 15.15 9.1 15.05 9.5 15.0 9.6 14.95 9.85 14.95 8.65 16.5 6.55 19.6 Q6.15 21.05 5.7 24.0 L5.5 25.45 5.25 27.45 4.95 27.2 4.1 26.6 3.6 26.25 3.95 24.75 Q5.1 20.0 7.6 15.8 L8.3 15.15 M0.85 24.3 L1.75 22.85 2.2 22.25 2.5 21.65 3.6 20.25 3.1 21.8 2.75 23.9 2.55 25.5 1.55 24.75 0.95 24.35 0.85 24.3" fill="#36fff5" fill-rule="evenodd" stroke="none"/>
      <path d="M54.4 34.65 L54.4 34.75 54.45 35.2 54.65 38.3 54.5 42.5 54.1 42.8 53.35 40.2 52.75 38.75 52.45 38.05 52.55 37.1 52.6 36.95 52.6 36.9 52.65 36.0 52.5 32.2 52.15 28.95 53.4 28.65 53.9 31.3 54.35 34.35 54.4 34.65 M-0.6 23.3 L-0.6 20.35 0.05 19.6 1.95 17.65 3.75 16.0 4.4 15.8 7.6 15.25 8.05 15.2 8.3 15.15 7.6 15.8 Q5.1 20.0 3.95 24.75 L3.6 26.25 3.15 25.95 2.75 25.65 2.55 25.5 2.75 23.9 3.1 21.8 3.6 20.25 2.5 21.65 2.2 22.25 1.75 22.85 0.85 24.3 0.75 24.25 0.65 24.15 -0.05 23.65 -0.6 23.3" fill="#0ecadb" fill-rule="evenodd" stroke="none"/>
      <path d="M-0.6 2.8 L-0.6 2.2 2.7 0.7 3.7 3.25 2.75 3.3 -0.4 2.85 -0.6 2.8 M13.7 35.75 L14.35 36.6 Q16.55 39.4 19.7 41.45 L16.75 41.9 16.0 42.0 Q13.45 39.1 11.7 35.9 L11.25 35.05 13.7 35.75" fill="#12a3e2" fill-rule="evenodd" stroke="none"/>
      <path d="M-0.6 5.55 L-0.6 2.8 -0.4 2.85 2.75 3.3 3.7 3.25 4.15 4.3 4.6 5.2 1.2 5.65 -0.6 5.55" fill="#0067c4" fill-rule="evenodd" stroke="none"/>
      <path d="M-0.6 20.35 L-0.6 5.55 1.2 5.65 4.6 5.2 6.7 9.2 Q3.25 11.75 -0.2 13.2 L-0.45 15.45 Q-0.45 17.75 0.05 19.6 L-0.6 20.35 M7.55 29.15 L7.55 29.0 Q7.55 27.2 7.7 25.55 L8.3 25.5 Q8.6 28.2 9.45 30.75 10.15 32.95 11.25 35.05 L7.75 33.7 Q7.5 31.4 7.55 29.15" fill="#0098e2" fill-rule="evenodd" stroke="none"/>
      <path d="M6.7 9.2 L8.45 11.95 Q6.05 13.85 3.75 16.0 L1.95 17.65 0.05 19.6 Q-0.45 17.75 -0.45 15.45 L-0.2 13.2 Q3.25 11.75 6.7 9.2 M7.7 25.55 L8.1 22.3 8.3 25.5 7.7 25.55" fill="#0fbcfa" fill-rule="evenodd" stroke="none"/>
      <path d="M54.1 42.8 L52.3 44.45 50.5 46.3 49.55 47.25 49.05 47.75 49.45 48.8 50.5 49.95 49.25 51.15 49.2 51.25 49.25 51.35 50.45 52.45 50.4 52.45 Q50.4 53.4 50.7 54.25 L48.5 54.25 48.0 53.0 Q47.7 51.85 47.7 50.5 L47.8 49.9 47.85 49.7 47.7 49.5 46.85 48.05 47.05 47.75 48.3 46.25 48.35 46.2 50.3 43.7 49.0 43.9 48.45 44.1 48.2 44.15 Q47.0 44.55 45.75 45.35 L45.6 45.5 46.65 43.3 Q48.2 42.05 49.65 41.5 L49.8 41.45 51.25 41.0 52.05 40.95 52.25 39.6 52.45 38.1 52.45 38.05 52.75 38.75 53.35 40.2 54.1 42.8 M4.0 48.45 L2.9 48.0 1.3 47.2 -0.6 46.2 -0.6 40.45 -0.45 40.6 -0.6 40.05 -0.6 34.35 0.6 39.2 0.65 39.45 1.85 43.15 3.35 44.6 3.65 44.9 4.6 45.7 5.2 46.1 5.0 45.65 4.5 44.1 4.25 43.5 4.05 42.95 3.45 40.5 2.75 35.9 Q2.45 33.35 2.4 30.6 L2.4 29.45 Q2.4 27.3 2.55 25.5 L2.75 25.65 3.15 25.95 3.6 26.25 Q3.15 28.6 3.05 31.05 L3.0 33.1 3.25 36.5 3.95 40.35 4.05 40.7 4.65 43.1 4.8 43.75 5.35 45.6 5.6 46.3 5.65 46.4 5.85 46.5 6.2 46.7 6.3 46.75 7.85 48.35 6.4 48.4 6.1 48.45 4.0 48.45 M-0.6 28.75 L-0.6 23.3 -0.05 23.65 0.65 24.15 0.75 24.25 0.85 24.3 Q-0.05 26.05 -0.5 28.15 L-0.6 28.75" fill="#0cd5db" fill-rule="evenodd" stroke="none"/>
      <path d="M53.25 54.25 L50.7 54.25 Q50.4 53.4 50.4 52.45 L50.45 52.45 Q51.85 53.65 53.25 54.25 M48.5 54.25 L47.4 54.25 47.7 53.6 48.0 53.05 48.0 53.0 48.5 54.25 M18.65 54.25 L9.85 54.25 9.85 54.0 9.4 50.7 8.35 49.0 7.85 48.35 6.3 46.75 6.55 46.85 6.7 46.9 6.75 46.9 8.3 47.4 8.65 48.3 9.65 48.2 10.55 48.1 10.8 48.1 12.95 50.75 13.5 50.65 Q15.8 50.65 17.35 51.6 L17.5 51.7 16.2 52.7 15.35 53.35 14.8 53.75 16.15 53.5 17.65 53.35 18.6 53.5 18.65 54.05 18.65 54.25" fill="#36ffd8" fill-rule="evenodd" stroke="none"/>
      <path d="M-0.6 53.15 L-0.05 53.85 -0.6 54.25 -0.6 53.15" fill="#16d0ca" fill-rule="evenodd" stroke="none"/>
      <path d="M47.4 54.25 L44.4 54.25 Q43.4 52.4 43.4 50.2 43.4 49.7 43.7 48.7 L44.05 48.15 44.5 47.5 44.95 46.65 45.05 46.45 45.6 45.5 45.75 45.35 Q47.0 44.55 48.2 44.15 L48.45 44.1 49.0 43.9 50.3 43.7 48.35 46.2 48.3 46.25 47.05 47.75 46.85 48.05 47.7 49.5 47.85 49.7 47.8 49.9 47.7 50.5 Q47.7 51.85 48.0 53.0 L48.0 53.05 47.7 53.6 47.4 54.25 M-0.6 40.45 L-0.6 40.05 -0.45 40.6 -0.6 40.45 M-0.6 34.35 L-0.6 28.75 -0.5 28.15 Q-0.05 26.05 0.85 24.3 L0.95 24.35 1.55 24.75 2.55 25.5 Q2.4 27.3 2.4 29.45 L2.4 30.6 Q2.45 33.35 2.75 35.9 L3.45 40.5 4.05 42.95 4.25 43.5 4.5 44.1 5.0 45.65 5.2 46.1 4.6 45.7 3.65 44.9 3.35 44.6 1.85 43.15 0.65 39.45 0.6 39.2 -0.6 34.35 M49.45 33.55 L49.7 33.85 50.4 34.75 52.15 37.45 52.15 37.55 52.45 38.05 52.45 38.1 52.25 39.6 52.05 40.95 51.25 41.0 49.8 41.45 49.65 41.5 Q48.2 42.05 46.65 43.3 L47.4 41.45 47.45 41.25 Q48.75 37.75 49.35 34.05 L49.45 33.55 M3.6 26.25 L4.1 26.6 4.95 27.2 5.25 27.45 5.2 28.5 5.35 32.5 Q5.65 35.95 6.4 39.3 L6.95 41.45 7.15 42.05 7.25 42.2 9.3 45.8 9.35 45.85 10.8 48.1 10.55 48.1 9.65 48.2 8.65 48.3 8.3 47.4 6.75 46.9 6.7 46.9 6.55 46.85 6.3 46.75 6.2 46.7 5.85 46.5 5.65 46.4 5.6 46.3 5.35 45.6 4.8 43.75 4.65 43.1 4.05 40.7 3.95 40.35 3.25 36.5 3.0 33.1 3.05 31.05 Q3.15 28.6 3.6 26.25" fill="#36ffe3" fill-rule="evenodd" stroke="none"/>
      <path d="M20.5 54.25 L18.65 54.25 18.65 54.05 18.6 53.5 17.65 53.35 16.15 53.5 14.8 53.75 15.35 53.35 16.2 52.7 17.5 51.7 17.35 51.6 Q15.8 50.65 13.5 50.65 L12.95 50.75 10.8 48.1 11.95 47.95 Q13.25 49.3 14.85 49.35 L17.45 49.9 Q18.55 50.15 19.45 50.8 L19.7 51.0 20.8 52.15 20.9 52.35 Q20.5 53.3 20.5 54.25 M18.35 51.85 L18.2 52.3 18.4 53.05 Q18.65 53.35 19.1 53.35 20.0 53.35 19.95 52.65 19.95 52.3 19.3 52.05 L18.35 51.85" fill="#aaffee" fill-rule="evenodd" stroke="none"/>
      <path d="M50.5 49.95 Q51.15 50.55 52.2 51.05 53.55 51.75 54.8 52.05 L54.8 54.25 53.25 54.25 Q51.85 53.65 50.45 52.45 L49.25 51.35 49.2 51.25 49.25 51.15 50.5 49.95 M44.4 54.25 L41.65 54.25 41.1 53.45 40.7 52.7 43.7 48.7 Q43.4 49.7 43.4 50.2 43.4 52.4 44.4 54.25 M9.85 54.25 L7.6 54.25 7.95 53.4 Q8.55 52.1 7.8 51.0 L6.95 49.95 6.5 49.5 6.4 49.35 4.0 48.45 6.1 48.45 6.4 48.4 7.85 48.35 8.35 49.0 9.4 50.7 9.85 54.0 9.85 54.25" fill="#12dae0" fill-rule="evenodd" stroke="none"/>
      <path d="M43.5 9.3 L45.1 11.75 Q46.95 14.8 48.05 18.0 L47.6 17.15 47.15 16.45 Q44.85 12.7 41.45 9.0 L41.35 8.95 Q37.8 5.05 34.85 3.15 32.55 1.65 31.2 1.65 L31.3 1.4 35.0 2.7 38.0 4.5 39.8 5.8 40.1 6.0 43.0 8.7 43.5 9.3 M48.75 20.2 L49.35 23.0 48.65 24.0 47.65 25.2 46.25 26.85 45.9 27.2 Q45.55 25.05 44.6 23.1 43.2 20.1 40.65 18.5 40.5 17.15 39.85 15.35 L39.35 14.0 39.4 13.25 39.45 13.15 39.55 12.05 39.05 11.9 39.75 12.0 40.3 12.3 40.3 12.45 40.35 13.15 Q41.05 14.5 41.2 15.6 L41.35 16.3 42.85 17.3 45.0 19.15 Q45.65 19.95 46.05 21.6 L46.05 21.75 48.35 20.55 48.75 20.2 M38.65 14.8 Q36.9 16.8 34.35 18.25 31.05 20.05 27.9 20.05 L24.95 19.75 Q26.15 18.35 26.15 17.35 26.15 16.1 25.2 15.15 24.0 13.9 21.8 13.9 18.65 13.9 15.45 15.7 13.85 16.6 13.05 17.45 L11.95 16.3 11.35 15.1 11.5 14.85 12.25 13.95 12.3 13.9 12.65 13.55 Q15.05 11.5 19.3 8.4 21.55 6.8 23.35 5.55 27.9 2.45 29.85 1.65 L28.0 3.8 Q27.05 4.2 25.9 4.9 23.4 6.3 19.7 8.9 15.75 11.75 14.1 13.4 17.0 12.25 21.55 12.25 24.85 12.25 27.05 13.6 28.95 14.8 28.95 15.9 L28.4 17.05 28.0 17.65 30.25 17.75 Q32.3 17.75 35.55 16.05 37.3 15.15 38.45 14.1 L38.65 14.8" fill="#00dfcb" fill-rule="evenodd" stroke="none"/>
      <path d="M31.2 1.65 Q32.55 1.65 34.85 3.15 37.8 5.05 41.35 8.95 L41.45 9.0 Q44.85 12.7 47.15 16.45 L47.6 17.15 48.05 18.0 48.75 20.2 48.35 20.55 46.05 21.75 46.05 21.6 Q45.65 19.95 45.0 19.15 L42.85 17.3 41.35 16.3 41.2 15.6 Q41.05 14.5 40.35 13.15 L40.3 12.45 40.3 12.3 39.75 12.0 39.05 11.9 38.6 11.75 36.35 10.95 37.1 9.65 38.7 7.35 33.8 6.95 Q30.25 6.55 28.95 5.85 L29.6 4.8 29.65 4.7 30.1 4.0 30.4 3.3 30.9 2.3 31.1 1.9 31.2 1.65 M28.0 3.8 L27.45 4.55 26.25 6.1 24.95 8.0 28.5 7.75 34.1 8.05 36.75 8.35 35.6 10.6 34.75 12.2 34.8 12.2 36.7 12.1 37.65 12.15 38.25 13.5 38.45 14.1 Q37.3 15.15 35.55 16.05 32.3 17.75 30.25 17.75 L28.0 17.65 28.4 17.05 28.95 15.9 Q28.95 14.8 27.05 13.6 24.85 12.25 21.55 12.25 17.0 12.25 14.1 13.4 15.75 11.75 19.7 8.9 23.4 6.3 25.9 4.9 27.05 4.2 28.0 3.8 M32.8 13.65 Q31.95 13.5 31.4 13.85 30.8 14.15 30.8 14.5 30.8 14.95 31.4 15.15 L32.2 15.3 33.4 14.9 33.9 14.15 33.75 13.65 32.8 13.65" fill="#51ffdc" fill-rule="evenodd" stroke="none"/>
      <path d="M51.1 16.35 L53.4 18.0 54.8 18.5 54.8 21.05 53.35 22.4 52.35 23.3 51.95 22.1 52.35 23.3 52.25 23.4 51.9 22.2 51.95 22.1 52.15 21.35 51.9 20.9 51.2 19.8 51.0 19.45 49.8 16.5 49.45 15.75 Q50.15 16.15 51.1 16.35 M49.35 23.0 L49.6 24.95 49.7 25.35 49.05 25.8 48.65 26.1 48.65 25.05 48.65 24.0 49.35 23.0 M9.85 25.3 Q10.2 28.35 11.25 31.05 12.2 33.55 13.7 35.75 L11.25 35.05 Q10.15 32.95 9.45 30.75 8.6 28.2 8.3 25.5 L9.85 25.3" fill="#2fc2f7" fill-rule="evenodd" stroke="none"/>
      <path d="M38.8 52.5 L39.1 54.25 34.4 54.25 Q33.15 53.15 32.85 51.6 L32.9 51.65 Q34.1 53.15 35.75 53.4 L36.35 53.45 Q37.65 53.45 38.4 52.75 L38.75 52.35 38.8 52.5 M28.85 54.25 L20.5 54.25 Q20.5 53.3 20.9 52.35 L21.2 51.7 Q21.75 50.65 22.85 49.55 L23.9 48.55 24.4 48.15 24.25 48.65 Q24.1 49.15 24.1 49.7 L24.1 49.95 Q24.15 50.95 24.7 51.35 L26.15 51.7 Q28.0 51.7 30.5 50.55 L30.6 50.55 Q30.95 50.4 31.25 50.2 L32.8 49.35 33.15 49.05 32.9 49.85 32.7 50.3 32.35 51.0 Q31.9 52.0 30.85 52.9 L28.85 54.25 M39.35 14.0 L39.85 15.35 Q40.5 17.15 40.65 18.5 43.2 20.1 44.6 23.1 45.55 25.05 45.9 27.2 L46.25 26.85 47.65 25.2 48.65 24.0 48.65 25.05 48.65 26.1 48.55 28.35 46.95 28.6 46.25 28.55 44.95 28.15 45.0 27.25 Q45.0 24.3 42.8 21.9 40.85 19.85 38.65 19.8 L38.55 18.45 38.55 18.25 34.8 19.4 28.4 20.5 26.8 20.45 27.5 21.85 Q28.3 24.35 28.3 28.4 L28.3 28.6 Q27.9 26.15 26.55 23.9 24.55 20.5 21.85 20.25 L23.05 20.15 23.6 19.45 24.0 18.8 24.25 18.45 24.55 18.05 24.6 17.85 24.6 17.8 Q24.65 17.2 24.2 16.65 L23.85 16.25 Q22.95 15.5 21.05 15.5 17.75 15.5 14.8 17.45 L14.35 17.75 14.3 17.85 Q13.65 18.8 13.65 19.9 13.65 21.1 14.7 22.2 L14.75 22.15 14.75 22.25 Q16.0 21.65 17.45 21.2 L15.6 22.4 Q13.5 24.05 13.1 25.65 L13.05 25.6 12.0 23.9 12.6 25.95 13.15 27.5 12.05 26.8 13.25 28.25 13.9 28.95 14.05 29.1 14.2 29.35 15.15 30.3 Q16.85 31.85 18.95 32.7 20.7 33.4 23.5 33.8 L26.6 33.55 27.4 33.35 26.55 34.75 Q24.65 34.75 21.95 33.95 L21.35 33.9 20.45 33.7 20.05 33.6 18.2 33.9 Q16.4 34.5 16.25 36.0 L17.35 37.15 17.5 37.25 18.35 38.05 19.6 39.0 20.0 39.3 20.3 39.5 20.95 39.9 21.2 40.05 21.95 40.4 21.3 40.65 21.1 40.75 20.7 41.1 Q20.0 41.8 20.0 42.9 20.0 43.65 20.4 44.2 L21.1 44.7 22.0 45.25 23.25 45.95 23.4 45.85 23.7 45.7 Q24.35 45.35 25.3 45.05 27.4 44.35 29.35 44.35 30.4 44.35 31.65 45.05 L32.6 45.65 Q32.85 45.45 33.45 45.2 L35.0 44.75 Q36.0 44.75 36.6 45.4 L36.85 45.4 38.6 45.0 38.75 44.95 41.0 44.05 42.0 43.65 41.65 43.9 39.35 45.7 Q37.15 47.3 34.95 48.25 L34.6 48.15 34.45 48.15 34.0 48.15 Q33.45 48.2 33.15 48.55 L32.75 47.55 32.0 46.8 Q31.25 46.25 30.0 46.2 L29.65 46.2 Q28.2 46.2 26.85 46.75 25.75 47.15 24.65 47.95 L20.3 46.45 Q17.6 45.4 15.3 44.15 L13.4 43.1 11.75 42.05 14.4 42.15 16.0 42.0 16.75 41.9 19.7 41.45 Q16.55 39.4 14.35 36.6 L13.7 35.75 Q12.2 33.55 11.25 31.05 10.2 28.35 9.85 25.3 L9.6 21.4 Q9.6 19.1 10.2 16.8 L10.65 16.1 11.35 15.1 11.95 16.3 12.7 17.95 13.05 17.45 12.7 17.95 11.95 16.3 13.05 17.45 Q13.85 16.6 15.45 15.7 18.65 13.9 21.8 13.9 24.0 13.9 25.2 15.15 26.15 16.1 26.15 17.35 26.15 18.35 24.95 19.75 L27.9 20.05 Q31.05 20.05 34.35 18.25 36.9 16.8 38.65 14.8 L39.3 13.9 39.35 14.0 M42.35 30.6 L41.8 31.85 Q41.4 33.2 41.4 34.65 L41.45 35.0 42.35 35.35 44.85 35.95 44.75 36.1 43.35 36.2 39.45 35.65 39.3 34.9 Q39.3 32.6 40.7 31.4 41.45 30.75 42.35 30.6 M44.85 30.1 Q44.15 29.45 43.15 29.45 L43.0 29.45 Q41.45 29.45 39.9 30.75 L38.85 31.8 Q39.45 30.65 40.45 30.05 41.05 29.65 41.85 29.55 L43.4 29.2 Q44.05 29.2 44.85 30.1 M38.15 33.65 L38.15 33.9 Q38.15 34.7 38.45 35.25 L38.55 35.4 37.95 35.25 38.15 33.65 M37.9 35.55 L39.05 36.2 Q41.65 37.45 46.1 37.6 L46.25 37.55 46.25 37.7 46.25 37.8 46.0 37.85 44.15 38.1 43.6 38.1 Q41.6 37.9 38.85 36.65 L37.95 36.25 37.9 35.85 37.9 35.55 M46.4 36.85 L46.2 36.8 46.5 36.65 46.4 36.85 M46.9 35.7 L46.3 35.8 45.55 35.95 Q46.1 35.1 46.1 33.45 46.1 32.2 45.65 31.2 L45.85 31.55 45.9 31.65 Q46.7 33.05 47.1 34.35 L47.0 35.25 46.9 35.7 M30.1 4.0 L29.65 4.7 30.05 4.0 30.1 4.0 M21.25 21.8 L20.55 22.5 Q19.5 23.95 19.5 25.9 19.5 27.45 20.6 29.0 L21.9 30.4 24.8 31.45 26.6 32.15 Q21.15 32.05 17.4 29.65 15.6 28.5 14.7 27.3 L14.1 26.0 Q14.35 24.6 16.35 23.35 18.55 21.9 21.25 21.8 M35.15 45.8 Q34.75 45.5 34.5 45.5 34.0 45.5 33.55 45.8 34.0 45.5 34.5 45.5 34.75 45.5 35.15 45.8" fill="#ebc58c" fill-rule="evenodd" stroke="none"/>
      <path d="M54.8 21.05 L54.8 30.7 53.9 31.3 53.4 28.65 53.2 27.85 52.25 23.4 52.35 23.3 53.35 22.4 54.8 21.05 M54.4 34.75 L54.8 34.1 54.8 34.3 54.45 35.2 54.4 34.75 M49.7 25.35 L49.8 28.05 49.75 29.8 49.45 33.55 49.35 34.05 47.15 35.2 47.3 34.85 47.75 33.45 Q48.35 31.3 48.55 28.35 L48.65 26.1 49.05 25.8 49.7 25.35 M53.1 25.65 L52.35 23.3 53.1 25.65 M46.65 43.3 L45.6 45.5 45.05 46.45 44.95 46.65 42.9 47.75 42.85 47.7 42.5 46.9 41.6 44.3 41.65 44.3 42.5 44.05 Q44.45 43.35 47.4 41.45 L46.65 43.3" fill="#02a1ed" fill-rule="evenodd" stroke="none"/>
      <path d="M54.8 30.7 L54.8 34.0 54.4 34.65 54.35 34.35 53.9 31.3 54.8 30.7 M39.35 45.7 L41.65 43.9 42.0 43.65 45.9 39.85 46.05 39.25 46.25 38.0 46.25 37.8 46.25 37.7 46.25 37.55 46.3 37.45 47.3 36.85 46.65 36.9 46.4 36.85 46.5 36.65 47.45 36.05 48.4 35.15 47.75 35.45 46.95 35.7 47.15 35.2 49.35 34.05 Q48.75 37.75 47.45 41.25 44.4 43.3 42.35 43.95 L41.6 44.15 41.65 44.3 41.6 44.3 42.5 46.9 42.85 47.7 42.35 47.9 41.7 47.6 Q40.4 46.95 39.35 45.7" fill="#006cd7" fill-rule="evenodd" stroke="none"/>
      <path d="M24.65 47.95 Q25.75 47.15 26.85 46.75 28.2 46.2 29.65 46.2 L30.0 46.2 Q31.25 46.25 32.0 46.8 L32.75 47.55 33.15 48.55 Q33.45 48.2 34.0 48.15 L34.45 48.15 34.6 48.15 34.95 48.25 Q36.25 48.6 37.5 50.2 L38.75 52.35 38.4 52.75 Q37.65 53.45 36.35 53.45 L35.75 53.4 Q34.1 53.15 32.9 51.65 L32.85 51.6 32.85 51.55 32.7 50.45 32.7 50.3 32.9 49.85 33.15 49.05 32.8 49.35 31.25 50.2 Q30.95 50.4 30.6 50.55 L30.5 50.55 Q28.0 51.7 26.15 51.7 L24.7 51.35 Q24.15 50.95 24.1 49.95 L24.1 49.7 Q24.1 49.15 24.25 48.65 L24.4 48.15 24.65 47.95 M42.0 43.65 L41.0 44.05 38.75 44.95 38.6 45.0 36.85 45.4 36.6 45.4 Q36.0 44.75 35.0 44.75 L33.45 45.2 Q32.85 45.45 32.6 45.65 L31.65 45.05 Q30.4 44.35 29.35 44.35 27.4 44.35 25.3 45.05 24.35 45.35 23.7 45.7 L23.4 45.85 23.25 45.95 22.0 45.25 21.1 44.7 20.4 44.2 Q20.0 43.65 20.0 42.9 20.0 41.8 20.7 41.1 L21.1 40.75 21.3 40.65 21.95 40.4 21.2 40.05 20.95 39.9 20.3 39.5 20.0 39.3 19.6 39.0 18.35 38.05 17.5 37.25 17.35 37.15 16.25 36.0 Q16.4 34.5 18.2 33.9 L20.05 33.6 20.45 33.7 21.35 33.9 21.95 33.95 Q24.65 34.75 26.55 34.75 L27.4 33.35 28.0 33.2 28.05 33.05 28.25 32.3 28.25 32.15 28.3 32.0 28.45 30.75 28.45 30.3 28.3 28.6 28.3 28.4 Q28.3 24.35 27.5 21.85 L26.8 20.45 28.4 20.5 34.8 19.4 38.55 18.25 38.55 18.45 38.65 19.8 Q40.85 19.85 42.8 21.9 45.0 24.3 45.0 27.25 L44.95 28.15 46.25 28.55 46.95 28.6 48.55 28.35 Q48.35 31.3 47.75 33.45 L47.3 34.85 47.15 35.2 46.95 35.7 46.9 35.7 47.0 35.25 47.1 34.35 Q46.7 33.05 45.9 31.65 L45.85 31.55 45.65 31.2 45.55 31.0 44.85 30.1 Q44.05 29.2 43.4 29.2 L41.85 29.55 Q41.05 29.65 40.45 30.05 39.45 30.65 38.85 31.8 38.25 32.7 38.15 33.65 L37.95 35.25 37.25 35.0 37.9 35.55 37.9 35.85 37.95 36.25 38.85 36.65 Q41.6 37.9 43.6 38.1 L44.15 38.1 46.0 37.85 46.25 37.8 46.25 38.0 46.05 39.25 45.9 39.85 42.0 43.65 M17.45 21.2 Q16.0 21.65 14.75 22.25 L14.75 22.15 14.7 22.2 Q13.65 21.1 13.65 19.9 13.65 18.8 14.3 17.85 L14.35 17.75 14.8 17.45 Q17.75 15.5 21.05 15.5 22.95 15.5 23.85 16.25 L24.2 16.65 Q24.65 17.2 24.6 17.8 L24.6 17.85 24.55 18.05 24.25 18.45 24.0 18.8 23.6 19.45 23.05 20.15 21.85 20.25 21.3 20.25 Q19.3 20.25 17.45 21.2 M42.35 30.6 L42.95 30.5 Q44.1 30.5 44.75 31.8 45.3 32.85 45.3 34.05 L45.1 35.0 44.85 35.95 42.35 35.35 41.45 35.0 41.4 34.65 Q41.4 33.2 41.8 31.85 L42.35 30.6 M26.6 32.15 L24.8 31.45 21.9 30.4 20.6 29.0 Q19.5 27.45 19.5 25.9 19.5 23.95 20.55 22.5 L21.25 21.8 21.65 21.8 Q24.45 21.8 25.9 24.3 27.2 26.45 27.2 29.85 L27.05 31.15 26.95 32.15 26.6 32.15 M33.2 27.45 L34.8 27.8 Q36.45 27.8 37.9 27.0 L38.15 26.85 39.0 26.25 39.05 25.45 Q39.05 24.5 38.65 23.55 L38.6 23.4 38.55 23.3 38.1 22.8 Q37.65 22.4 36.7 22.4 35.7 22.4 35.05 22.9 34.4 23.35 34.4 23.9 34.4 24.8 35.35 24.8 L37.1 24.35 37.15 24.75 36.9 25.4 36.85 25.45 Q36.3 25.95 35.1 25.95 L34.15 25.65 33.65 25.1 Q33.3 24.6 33.3 23.75 L33.45 23.05 Q33.65 22.4 34.35 21.9 35.1 21.2 36.0 21.05 L36.7 20.95 37.5 21.1 37.95 20.9 38.45 20.5 38.2 19.8 38.0 19.45 36.85 19.3 35.75 19.4 Q34.5 19.6 33.25 20.2 31.7 20.95 31.15 22.05 30.85 22.6 30.85 23.3 30.85 25.45 32.2 26.7 L33.2 27.45 M33.15 48.55 L33.15 49.0 33.15 49.05 33.15 49.0 33.15 48.55 M29.4 48.4 L30.3 48.15 30.6 47.85 30.8 47.35 30.45 47.15 30.15 47.05 30.0 47.0 29.5 47.1 29.35 47.15 29.15 47.25 29.05 47.35 Q28.6 47.5 28.6 47.95 28.6 48.4 29.4 48.4 M35.05 38.8 L34.55 38.55 34.55 39.45 34.75 39.7 34.85 39.85 35.05 40.05 35.3 39.95 35.4 39.55 Q35.4 39.05 35.05 38.85 L35.05 38.8 M33.8 49.2 L33.8 49.5 33.9 49.8 34.1 50.05 Q34.35 50.3 34.7 50.35 L35.05 50.4 35.55 50.1 35.65 49.75 Q35.65 49.45 35.05 49.3 L34.35 49.15 34.25 49.15 33.85 49.2 33.8 49.2" fill="#fff6a8" fill-rule="evenodd" stroke="none"/>
      <path d="M27.4 33.35 L26.6 33.55 23.5 33.8 Q20.7 33.4 18.95 32.7 16.85 31.85 15.15 30.3 L14.2 29.35 14.05 29.1 13.9 28.95 13.25 28.25 12.05 26.8 13.15 27.5 12.6 25.95 12.0 23.9 13.05 25.6 13.1 25.65 Q13.5 24.05 15.6 22.4 L17.45 21.2 Q19.3 20.25 21.3 20.25 L21.85 20.25 Q24.55 20.5 26.55 23.9 27.9 26.15 28.3 28.6 L28.45 30.3 28.45 30.75 28.3 32.0 28.25 32.15 28.25 32.3 28.05 33.05 28.0 33.2 27.4 33.35 M44.85 35.95 L45.1 35.0 45.3 34.05 Q45.3 32.85 44.75 31.8 44.1 30.5 42.95 30.5 L42.35 30.6 Q41.45 30.75 40.7 31.4 39.3 32.6 39.3 34.9 L39.45 35.65 43.35 36.2 44.75 36.1 44.85 35.95 M38.85 31.8 L39.9 30.75 Q41.45 29.45 43.0 29.45 L43.15 29.45 Q44.15 29.45 44.85 30.1 L45.55 31.0 45.65 31.2 Q46.1 32.2 46.1 33.45 46.1 35.1 45.55 35.95 L46.3 35.8 46.9 35.7 46.95 35.7 47.75 35.45 48.4 35.15 47.45 36.05 46.5 36.65 46.2 36.8 46.4 36.85 46.65 36.9 47.3 36.85 46.3 37.45 46.25 37.55 46.1 37.6 Q41.65 37.45 39.05 36.2 L37.9 35.55 37.25 35.0 37.95 35.25 38.55 35.4 38.45 35.25 Q38.15 34.7 38.15 33.9 L38.15 33.65 Q38.25 32.7 38.85 31.8 M26.6 32.15 L26.95 32.15 27.05 31.15 27.2 29.85 Q27.2 26.45 25.9 24.3 24.45 21.8 21.65 21.8 L21.25 21.8 Q18.55 21.9 16.35 23.35 14.35 24.6 14.1 26.0 L14.7 27.3 Q15.6 28.5 17.4 29.65 21.15 32.05 26.6 32.15" fill="#5d2242" fill-rule="evenodd" stroke="none"/>
      <path d="M44.05 48.15 Q41.05 49.8 39.85 51.15 39.25 51.8 38.8 52.5 L38.75 52.35 37.5 50.2 Q36.25 48.6 34.95 48.25 37.15 47.3 39.35 45.7 40.4 46.95 41.7 47.6 L42.35 47.9 42.85 47.7 42.9 47.75 44.95 46.65 44.5 47.5 44.05 48.15 M11.75 42.05 L13.4 43.1 12.8 44.1 Q14.3 45.6 18.2 46.95 L23.9 48.55 22.85 49.55 Q21.75 50.65 21.2 51.7 L20.8 52.15 19.7 51.0 19.45 50.8 19.35 50.7 14.9 47.8 Q12.95 46.7 10.75 46.15 10.05 44.75 9.45 42.7 L9.25 42.05 9.2 41.8 11.75 42.05 M42.35 43.95 L42.5 44.05 41.65 44.3 41.6 44.15 42.35 43.95 M42.35 47.9 L42.9 47.75 42.35 47.9" fill="#b7ded9" fill-rule="evenodd" stroke="none"/>
      <path d="M18.35 51.85 L19.3 52.05 Q19.95 52.3 19.95 52.65 20.0 53.35 19.1 53.35 18.65 53.35 18.4 53.05 L18.2 52.3 18.35 51.85" fill="#e7fffa" fill-rule="evenodd" stroke="none"/>
      <path d="M30.15 0.85 L31.55 1.05 30.65 1.35 30.05 1.55 29.85 1.6 28.2 2.25 28.1 2.2 27.85 2.05 Q24.35 3.55 20.2 5.55 19.85 5.7 19.45 5.9 L17.9 6.65 17.75 6.7 10.8 10.2 10.6 10.35 10.55 10.3 17.85 6.1 Q23.7 3.0 28.1 1.15 L29.15 0.75 30.15 0.85" fill="#61d6f9" fill-rule="evenodd" stroke="none"/>
      <path d="M39.35 14.0 L39.3 13.9 38.65 14.8 38.45 14.1 38.25 13.5 37.65 12.15 36.7 12.1 34.8 12.2 34.75 12.2 35.6 10.6 36.75 8.35 34.1 8.05 28.5 7.75 24.95 8.0 26.25 6.1 27.45 4.55 28.0 3.8 29.85 1.65 29.9 1.65 30.05 1.55 30.65 1.35 30.95 1.65 30.95 1.75 31.1 1.9 30.9 2.3 30.4 3.3 30.05 4.0 29.65 4.7 29.6 4.8 28.95 5.85 Q30.25 6.55 33.8 6.95 L38.7 7.35 37.1 9.65 36.35 10.95 38.6 11.75 39.05 11.9 39.55 12.05 39.45 13.15 39.4 13.25 39.35 14.0" fill="#18e2dc" fill-rule="evenodd" stroke="none"/>
      <path d="M20.2 5.55 Q24.35 3.55 27.85 2.05 L28.1 2.2 28.2 2.25 Q24.8 3.65 20.7 6.4 15.85 9.65 12.65 13.5 L12.3 13.9 12.25 13.95 11.5 14.85 11.4 14.85 11.25 14.85 10.7 14.9 9.85 14.95 10.15 14.55 10.3 14.45 12.1 12.6 17.5 7.85 20.2 5.55" fill="#a1f3ff" fill-rule="evenodd" stroke="none"/>
      <path d="M32.8 13.65 L33.75 13.65 33.9 14.15 33.4 14.9 32.2 15.3 31.4 15.15 Q30.8 14.95 30.8 14.5 30.8 14.15 31.4 13.85 31.95 13.5 32.8 13.65" fill="#d9fff6" fill-rule="evenodd" stroke="none"/>
      <path d="M33.65 25.1 L34.15 25.65 35.1 25.95 Q36.3 25.95 36.85 25.45 L36.9 25.4 37.15 24.75 37.1 24.35 35.35 24.8 Q34.4 24.8 34.4 23.9 34.4 23.35 35.05 22.9 35.7 22.4 36.7 22.4 37.65 22.4 38.1 22.8 L38.55 23.3 38.6 23.4 38.65 23.55 Q39.05 24.5 39.05 25.45 L39.0 26.25 38.15 26.85 37.9 27.0 Q36.45 27.8 34.8 27.8 L33.2 27.45 33.4 26.45 33.65 25.1" fill="#ff8fe9" fill-rule="evenodd" stroke="none"/>
      <path d="M33.2 27.45 L32.2 26.7 Q30.85 25.45 30.85 23.3 30.85 22.6 31.15 22.05 L31.7 22.4 33.45 23.05 33.3 23.75 Q33.3 24.6 33.65 25.1 L33.4 26.45 33.2 27.45" fill="#fd98de" fill-rule="evenodd" stroke="none"/>
      <path d="M31.15 22.05 Q31.7 20.95 33.25 20.2 34.5 19.6 35.75 19.4 L35.8 20.1 36.0 21.05 Q35.1 21.2 34.35 21.9 33.65 22.4 33.45 23.05 L31.7 22.4 31.15 22.05" fill="#fe98eb" fill-rule="evenodd" stroke="none"/>
      <path d="M35.75 19.4 L36.85 19.3 38.0 19.45 38.2 19.8 38.45 20.5 37.95 20.9 37.5 21.1 36.7 20.95 36.0 21.05 35.8 20.1 35.75 19.4" fill="#ffa6d6" fill-rule="evenodd" stroke="none"/>
      <path d="M11.35 15.1 L10.65 16.1 10.2 16.8 9.2 18.5 9.15 18.6 Q8.45 20.15 8.1 22.3 L7.7 25.55 Q7.55 27.2 7.55 29.0 L7.55 29.15 6.7 28.5 5.25 27.45 5.5 25.45 5.7 24.0 Q6.15 21.05 6.55 19.6 L8.65 16.5 9.85 14.95 10.7 14.9 11.25 14.85 11.4 14.85 11.5 14.85 11.35 15.1" fill="#b0fcf8" fill-rule="evenodd" stroke="none"/>
      <path d="M10.2 16.8 Q9.6 19.1 9.6 21.4 L9.85 25.3 8.3 25.5 8.1 22.3 Q8.45 20.15 9.15 18.6 L9.2 18.5 10.2 16.8" fill="#5fd4ff" fill-rule="evenodd" stroke="none"/>
      <path d="M12.3 13.9 L12.65 13.5 12.65 13.55 12.3 13.9" fill="#9ce9ff" fill-rule="evenodd" stroke="none"/>
      <path d="M5.25 27.45 L6.7 28.5 7.55 29.15 Q7.5 31.4 7.75 33.7 8.1 37.7 9.2 41.8 L9.25 42.05 9.45 42.7 Q10.05 44.75 10.75 46.15 11.3 47.25 11.95 47.95 L10.8 48.1 9.35 45.85 9.3 45.8 7.25 42.2 7.15 42.05 6.95 41.45 6.4 39.3 Q5.65 35.95 5.35 32.5 L5.2 28.5 5.25 27.45" fill="#b4fff4" fill-rule="evenodd" stroke="none"/>
      <path d="M13.4 43.1 L15.3 44.15 Q17.6 45.4 20.3 46.45 L24.65 47.95 24.4 48.15 23.9 48.55 18.2 46.95 Q14.3 45.6 12.8 44.1 L13.4 43.1" fill="#4fade0" fill-rule="evenodd" stroke="none"/>
      <path d="M29.4 48.4 Q28.6 48.4 28.6 47.95 28.6 47.5 29.05 47.35 L29.15 47.25 29.35 47.15 29.5 47.1 30.0 47.0 30.15 47.05 30.45 47.15 30.8 47.35 30.6 47.85 30.3 48.15 29.4 48.4 M33.8 49.2 L33.85 49.2 34.25 49.15 34.35 49.15 35.05 49.3 Q35.65 49.45 35.65 49.75 L35.55 50.1 35.05 50.4 34.7 50.35 Q34.35 50.3 34.1 50.05 L33.9 49.8 33.8 49.5 33.8 49.2" fill="#fffbe9" fill-rule="evenodd" stroke="none"/>
      <path d="M35.05 38.8 L35.05 38.85 Q35.4 39.05 35.4 39.55 L35.3 39.95 35.05 40.05 34.85 39.85 34.75 39.7 34.55 39.45 34.55 38.55 35.05 38.8" fill="#fffdec" fill-rule="evenodd" stroke="none"/>
      <path d="M34.4 54.25 L28.85 54.25 30.85 52.9 Q31.9 52.0 32.35 51.0 L32.7 50.3 32.7 50.45 32.85 51.55 32.85 51.6 Q33.15 53.15 34.4 54.25 M21.2 51.7 L20.9 52.35 20.8 52.15 21.2 51.7" fill="#d747bf" fill-rule="evenodd" stroke="none"/>
      <path d="M2.7 0.7 L4.75 -0.45 5.15 -0.7 M52.95 -0.7 Q52.15 0.15 51.5 1.25 50.45 3.0 49.85 4.85 L49.25 7.15 49.05 9.35 49.0 10.1 Q49.0 14.1 51.1 16.35 L53.4 18.0 54.8 18.5 M54.4 34.65 L54.4 34.75 54.8 34.1 M54.8 34.3 L54.45 35.2 54.65 38.3 54.5 42.5 54.1 42.8 52.3 44.45 50.5 46.3 49.55 47.25 49.05 47.75 49.45 48.8 50.5 49.95 Q51.15 50.55 52.2 51.05 53.55 51.75 54.8 52.05 M41.65 54.25 L41.1 53.45 40.7 52.7 43.7 48.7 44.05 48.15 Q41.05 49.8 39.85 51.15 39.25 51.8 38.8 52.5 L39.1 54.25 M7.6 54.25 L7.95 53.4 Q8.55 52.1 7.8 51.0 L6.95 49.95 6.5 49.5 6.4 49.35 4.0 48.45 2.9 48.0 1.3 47.2 -0.6 46.2 M-0.6 2.2 L2.7 0.7 M31.55 1.05 L31.95 1.0 M48.05 18.0 Q46.95 14.8 45.1 11.75 L43.5 9.3 Q40.7 5.35 37.55 3.3 L37.2 3.05 M41.35 8.95 L41.45 9.0 M48.05 18.0 L48.75 20.2 49.35 23.0 49.6 24.95 49.7 25.35 49.8 28.05 49.75 29.8 49.45 33.55 49.35 34.05 Q48.75 37.75 47.45 41.25 L47.4 41.45 46.65 43.3 45.6 45.5 45.05 46.45 44.95 46.65 42.9 47.75 42.35 47.9 41.7 47.6 Q40.4 46.95 39.35 45.7 L41.65 43.9 42.0 43.65 45.9 39.85 46.05 39.25 46.25 38.0 46.25 37.8 46.25 37.7 46.25 37.55 M51.95 22.1 L52.35 23.3 53.1 25.65 M48.65 24.0 L49.35 23.0 M48.65 24.0 L47.65 25.2 46.25 26.85 45.9 27.2 Q45.55 25.05 44.6 23.1 43.2 20.1 40.65 18.5 40.5 17.15 39.85 15.35 L39.35 14.0 39.3 13.9 38.65 14.8 Q36.9 16.8 34.35 18.25 31.05 20.05 27.9 20.05 L24.95 19.75 Q26.15 18.35 26.15 17.35 26.15 16.1 25.2 15.15 24.0 13.9 21.8 13.9 18.65 13.9 15.45 15.7 13.85 16.6 13.05 17.45 L12.7 17.95 11.95 16.3 11.35 15.1 10.65 16.1 10.2 16.8 Q9.6 19.1 9.6 21.4 L9.85 25.3 Q10.2 28.35 11.25 31.05 12.2 33.55 13.7 35.75 L14.35 36.6 Q16.55 39.4 19.7 41.45 L16.75 41.9 16.0 42.0 14.4 42.15 11.75 42.05 13.4 43.1 15.3 44.15 Q17.6 45.4 20.3 46.45 L24.65 47.95 Q25.75 47.15 26.85 46.75 28.2 46.2 29.65 46.2 L30.0 46.2 Q31.25 46.25 32.0 46.8 L32.75 47.55 33.15 48.55 Q33.45 48.2 34.0 48.15 L34.45 48.15 34.6 48.15 34.95 48.25 Q37.15 47.3 39.35 45.7 M48.55 28.35 L48.65 26.1 48.65 25.05 48.65 24.0 M51.9 22.2 L51.7 21.45 51.65 21.3 51.4 20.6 M51.9 22.2 L52.25 23.4 53.2 27.85 53.4 28.65 53.9 31.3 54.35 34.35 54.4 34.65 M51.7 21.45 L51.95 22.1 M54.4 34.75 L54.45 35.2 M47.15 35.2 L47.3 34.85 47.75 33.45 Q48.35 31.3 48.55 28.35 M46.4 36.85 L46.5 36.65 M46.95 35.7 L47.15 35.2 M42.35 43.95 L42.5 44.05 Q44.45 43.35 47.4 41.45 M42.5 44.05 L41.65 44.3 41.6 44.3 42.5 46.9 42.85 47.7 42.9 47.75 M44.05 48.15 L44.5 47.5 44.95 46.65 M30.65 1.35 L30.05 1.55 29.85 1.6 28.2 2.25 Q24.8 3.65 20.7 6.4 15.85 9.65 12.65 13.5 L12.3 13.9 12.25 13.95 11.5 14.85 11.35 15.1 M30.65 1.35 L31.55 1.05 M10.6 10.35 L10.8 10.2 M30.1 4.0 L30.05 4.0 M8.45 11.95 L9.5 11.15 10.6 10.35 M0.05 19.6 L1.95 17.65 3.75 16.0 Q6.05 13.85 8.45 11.95 M7.55 29.15 L7.55 29.0 Q7.55 27.2 7.7 25.55 L8.1 22.3 Q8.45 20.15 9.15 18.6 L9.2 18.5 10.2 16.8 M11.95 47.95 Q11.3 47.25 10.75 46.15 10.05 44.75 9.45 42.7 L9.25 42.05 9.2 41.8 Q8.1 37.7 7.75 33.7 7.5 31.4 7.55 29.15 M11.95 47.95 Q13.25 49.3 14.85 49.35 L17.45 49.9 Q18.55 50.15 19.45 50.8 L19.35 50.7 14.9 47.8 Q12.95 46.7 10.75 46.15 M11.75 42.05 L9.2 41.8 M23.9 48.55 L24.4 48.15 24.65 47.95 M33.15 49.05 L33.15 49.0 33.15 48.55 M33.55 45.8 Q34.0 45.5 34.5 45.5 34.75 45.5 35.15 45.8 M38.75 52.35 L37.5 50.2 Q36.25 48.6 34.95 48.25 M38.75 52.35 L38.8 52.5 M32.7 50.3 L32.35 51.0 Q31.9 52.0 30.85 52.9 L28.85 54.25 M33.15 49.05 L32.9 49.85 32.7 50.3 32.7 50.45 32.85 51.55 32.85 51.6 Q33.15 53.15 34.4 54.25 M20.9 52.35 L21.2 51.7 20.8 52.15 20.9 52.35 Q20.5 53.3 20.5 54.25 M21.2 51.7 Q21.75 50.65 22.85 49.55 L23.9 48.55 M19.45 50.8 L19.7 51.0 20.8 52.15 M-0.6 54.25 L-0.05 53.85 -0.6 53.15 M0.05 19.6 L-0.6 20.35" fill="none" stroke="#5d2242" stroke-linecap="round" stroke-linejoin="round" stroke-width="1.0"/>
    </g>
    <g id="shape2" transform="matrix(1.0, 0.0, 0.0, 1.0, 0.0, 0.0)">
      <path d="M50.5 0.0 Q53.95 0.0 53.95 3.3 L53.95 50.15 Q53.95 53.4 50.5 53.4 L3.3 53.4 Q0.0 53.4 0.0 50.15 L0.0 3.3 Q0.0 0.0 3.3 0.0 L50.5 0.0" fill="#000000" fill-opacity="0.003921569" fill-rule="evenodd" stroke="none"/>
    </g>
  </defs>
</svg>
