<?xml version="1.0" encoding="UTF-8" standalone="no"?>
<svg xmlns:ffdec="https://www.free-decompiler.com/flash" xmlns:xlink="http://www.w3.org/1999/xlink" ffdec:objectType="frame" height="54.75px" width="55.9px" xmlns="http://www.w3.org/2000/svg">
  <g transform="matrix(1.0, 0.0, 0.0, 1.0, 1.25, 0.0)">
    <clipPath id="clipPath0" transform="matrix(1.0, 0.0, 0.0, 1.0, 0.0, 0.0)">
      <path d="M50.5 0.0 Q53.95 0.0 53.95 3.3 L53.95 50.15 Q53.95 53.4 50.5 53.4 L3.3 53.4 Q0.0 53.4 0.0 50.15 L0.0 3.3 Q0.0 0.0 3.3 0.0 L50.5 0.0" fill="#000000" fill-rule="evenodd" stroke="none"/>
    </clipPath>
    <g clip-path="url(#clipPath0)">
      <use ffdec:characterId="2" height="54.25" transform="matrix(1.0, 0.0, 0.0, 1.0, -1.25, 0.5)" width="55.9" xlink:href="#shape1"/>
    </g>
    <use ffdec:characterId="3" height="53.4" transform="matrix(1.0, 0.0, 0.0, 1.0, 0.0, 0.0)" width="53.95" xlink:href="#shape2"/>
  </g>
  <defs>
    <g id="shape1" transform="matrix(1.0, 0.0, 0.0, 1.0, 1.25, -0.5)">
      <path d="M37.9 21.45 L38.8 21.5 40.5 21.4 40.9 21.35 41.05 21.3 42.15 21.0 43.15 23.0 43.95 24.65 43.85 24.55 43.6 24.4 43.15 24.4 41.05 24.75 39.8 24.3 39.6 24.2 39.35 24.3 39.1 24.35 38.45 24.65 38.65 25.05 37.5 25.1 35.15 24.85 35.45 24.6 35.4 24.05 35.4 23.85 31.35 21.4 29.85 22.7 29.75 22.8 29.4 22.6 27.4 21.4 26.85 20.9 26.45 20.55 22.15 20.85 22.05 20.95 21.75 20.55 22.05 20.95 Q20.35 21.55 18.85 22.9 L17.4 24.35 16.55 25.45 15.5 27.05 Q13.85 29.9 13.85 32.85 L13.9 33.9 13.7 33.8 13.65 33.6 13.55 33.15 13.2 32.45 12.65 33.6 12.25 34.55 12.65 35.05 12.85 35.25 13.0 35.4 14.4 36.8 Q15.3 39.8 17.7 42.65 19.6 44.9 22.25 46.85 L21.35 46.65 13.1 44.4 11.2 43.05 10.3 42.4 Q8.85 40.4 8.05 38.7 L7.75 37.95 7.7 37.75 7.2 35.9 Q6.95 34.55 6.95 33.05 6.95 31.7 7.1 30.55 7.7 26.1 10.7 23.95 12.05 23.0 14.45 22.5 L14.95 22.4 14.85 22.2 14.65 21.75 13.85 20.05 15.3 20.1 16.5 20.1 16.35 19.8 16.7 19.45 16.9 19.3 Q17.95 18.35 19.5 17.7 L19.75 17.55 Q21.55 16.75 23.4 16.55 L24.1 16.45 25.1 16.4 Q27.4 16.4 29.15 17.0 L30.15 17.35 32.55 18.7 33.45 19.5 33.7 19.7 34.65 20.35 34.8 20.45 Q36.3 21.3 37.9 21.45 M31.15 54.25 L24.15 54.25 23.5 53.2 23.25 52.85 22.7 52.1 22.65 52.05 Q25.3 50.55 28.2 49.8 L30.95 50.0 34.6 49.95 34.8 51.2 34.9 51.8 Q34.2 52.55 33.65 53.35 L32.85 53.6 31.15 54.25" fill="#ffde46" fill-rule="evenodd" stroke="none"/>
      <path d="M33.05 54.25 L31.15 54.25 32.85 53.6 33.65 53.35 33.05 54.25 M-0.75 48.8 L-0.75 48.5 -0.4 48.8 -0.6 48.8 -0.75 48.8 M43.95 24.65 L44.0 24.7 45.15 25.45 44.5 25.75 44.85 26.4 45.05 26.8 43.85 26.7 43.65 25.85 43.55 25.8 43.4 25.7 41.45 24.9 41.05 24.75 43.15 24.4 43.6 24.4 43.85 24.55 43.95 24.65 M47.75 32.65 Q48.6 35.0 48.85 36.95 L48.95 38.1 47.0 34.55 46.95 34.4 47.3 33.75 47.65 32.9 47.75 32.65 M47.25 43.6 Q46.3 44.75 44.8 45.6 L43.85 46.1 42.35 46.7 39.45 47.4 38.65 47.55 36.8 47.8 34.25 47.95 32.85 47.95 22.25 46.85 Q19.6 44.9 17.7 42.65 15.3 39.8 14.4 36.8 16.0 38.05 18.05 38.85 20.3 39.7 22.4 39.8 L26.35 36.15 Q29.9 33.1 31.9 32.15 L32.25 32.0 32.65 32.05 34.8 32.4 Q36.3 32.8 37.8 33.7 L39.1 34.45 41.9 38.45 45.2 44.4 45.25 44.4 47.25 43.6 M44.0 24.7 L43.4 25.7 44.0 24.7 M26.95 25.45 L24.45 23.25 22.05 20.95 24.45 23.25 26.95 25.45 26.6 25.9 Q25.2 24.05 22.85 23.6 20.4 23.15 18.35 24.45 16.35 25.75 15.9 28.05 L15.8 28.8 Q15.75 30.65 16.9 32.3 L17.75 33.25 17.55 33.4 15.55 34.55 13.9 33.9 13.85 32.85 Q13.85 29.9 15.5 27.05 L16.55 25.45 17.4 24.35 18.85 22.9 Q20.35 21.55 22.05 20.95 L22.15 20.85 26.45 20.55 26.85 20.9 27.4 21.4 29.4 22.6 29.75 22.8 27.25 25.15 26.95 25.45 M38.65 25.05 L38.85 25.7 38.95 26.45 Q38.95 27.1 38.4 27.6 37.85 28.1 37.2 28.1 35.65 28.1 34.9 27.2 34.35 26.55 34.35 25.85 34.35 25.45 35.0 24.95 L35.15 24.85 37.5 25.1 38.65 25.05 M22.95 45.6 Q26.1 44.1 26.9 44.1 L28.2 44.65 26.9 44.1 Q26.1 44.1 22.95 45.6 M-0.3 48.85 L-0.4 48.8 -0.25 48.8 -0.3 48.85" fill="#feed82" fill-rule="evenodd" stroke="none"/>
      <path d="M42.15 21.0 L43.4 20.5 43.4 20.55 43.55 20.75 45.4 22.4 45.65 22.45 Q45.75 23.75 46.65 26.2 L46.75 26.55 47.45 28.15 48.6 30.75 48.6 30.8 48.75 31.15 49.6 33.0 51.0 36.85 51.3 38.9 Q51.3 42.45 49.95 44.5 48.65 46.55 44.5 48.15 L42.95 48.7 41.2 49.2 37.35 49.85 36.95 49.85 35.75 50.95 35.4 51.3 34.9 51.8 34.8 51.2 34.6 49.95 30.95 50.0 28.2 49.8 26.65 49.5 20.05 47.6 19.75 47.55 Q16.25 46.35 13.1 44.4 L21.35 46.65 22.25 46.85 32.85 47.95 34.25 47.95 36.8 47.8 38.65 47.55 39.45 47.4 42.35 46.7 43.85 46.1 44.8 45.6 Q46.3 44.75 47.25 43.6 L47.65 43.4 50.0 42.15 50.15 41.65 50.45 40.15 50.2 40.15 48.95 38.1 48.85 36.95 Q48.6 35.0 47.75 32.65 47.95 31.55 47.75 30.35 47.35 28.55 46.15 27.5 L45.05 26.8 44.85 26.4 44.5 25.75 45.15 25.45 44.0 24.7 43.95 24.65 43.15 23.0 42.15 21.0 M6.35 54.25 L-0.75 54.25 -0.75 48.8 -0.6 48.8 -0.4 48.8 -0.75 48.5 -0.75 45.35 Q2.0 47.25 4.05 50.0 L4.2 50.2 4.2 50.25 4.3 50.35 Q5.0 51.3 5.5 52.35 L6.0 53.4 6.35 54.25 M36.95 49.85 L34.6 49.95 36.95 49.85 M-0.3 48.85 L-0.25 48.8 -0.4 48.8 -0.3 48.85" fill="#ffffbe" fill-rule="evenodd" stroke="none"/>
      <path d="M-0.75 29.35 L-0.75 17.25 -0.65 17.45 Q0.8 20.1 1.85 21.35 L2.15 21.5 2.05 21.6 1.15 23.8 1.1 24.0 Q0.6 25.35 0.6 26.8 0.6 28.45 1.1 30.2 L-0.65 29.4 -0.75 29.35 M51.0 36.85 L49.6 33.0 Q50.6 34.55 51.5 37.0 L51.0 36.85" fill="#925837" fill-rule="evenodd" stroke="none"/>
      <path d="M44.4 4.2 L44.8 4.35 Q45.55 4.7 46.25 5.3 L46.3 5.35 46.75 5.85 47.25 6.5 Q48.95 8.85 48.95 11.5 L48.9 13.25 47.6 16.65 47.6 16.75 47.5 16.8 47.3 16.9 47.0 17.25 46.4 18.05 45.95 18.3 46.0 18.5 43.45 20.5 43.4 20.5 42.15 21.0 41.05 21.3 40.9 21.35 40.5 21.4 38.8 21.5 37.9 21.45 37.95 21.1 39.9 20.85 40.3 20.7 41.2 20.3 42.7 19.35 43.6 18.5 Q46.1 15.8 46.1 12.0 L45.75 10.95 44.95 11.05 44.75 11.05 Q43.6 10.95 42.35 9.8 40.85 8.4 40.85 6.7 L41.1 5.5 41.25 5.25 Q41.9 4.15 43.05 4.15 L44.0 4.3 44.4 4.2 M47.2 17.4 L47.55 17.65 50.9 20.35 54.05 22.35 54.15 22.4 54.15 26.55 52.8 28.2 52.7 28.4 50.35 30.4 49.15 31.0 49.1 30.85 49.1 31.0 48.75 31.15 48.6 30.8 49.7 29.55 51.3 27.5 51.6 27.0 52.65 25.1 52.25 25.1 51.6 24.9 51.3 24.75 Q50.65 24.35 50.35 24.0 L50.35 22.45 50.6 22.45 48.55 20.85 Q47.15 19.7 46.25 18.25 L46.4 18.05 47.2 17.4 M12.4 9.8 L12.5 9.8 13.1 10.1 13.8 10.25 13.85 10.25 14.95 10.35 14.8 9.4 Q15.6 9.25 17.1 10.1 L18.7 11.2 16.75 11.3 16.95 11.9 17.0 11.95 17.15 12.55 17.0 12.55 15.1 11.7 14.95 11.6 14.25 11.3 14.2 11.4 14.1 11.6 13.9 12.1 13.6 12.85 13.1 11.6 12.9 11.1 12.65 10.75 12.35 10.2 12.35 10.1 12.4 9.8" fill="#5b81a6" fill-rule="evenodd" stroke="none"/>
      <path d="M44.4 4.2 L44.0 4.3 43.05 4.15 Q41.9 4.15 41.25 5.25 L41.1 5.5 40.85 6.7 Q40.85 8.4 42.35 9.8 43.6 10.95 44.75 11.05 L44.95 11.05 45.75 10.95 46.1 12.0 Q46.1 15.8 43.6 18.5 L42.7 19.35 41.5 19.5 40.1 19.6 Q37.35 19.6 35.85 17.35 L35.6 16.95 Q34.35 14.85 34.35 11.65 34.35 10.55 34.6 9.45 35.0 7.95 35.8 6.45 L35.9 6.3 36.15 5.85 36.65 5.45 Q38.65 3.75 41.0 3.75 L44.1 4.05 44.35 4.15 44.4 4.2 44.35 4.15 44.1 4.05 41.0 3.75 Q38.65 3.75 36.65 5.45 L36.15 5.85 35.8 6.25 35.4 6.7 32.95 8.35 Q30.95 9.55 29.15 9.55 27.4 9.55 25.7 8.85 L24.45 8.3 24.05 8.05 Q22.0 6.75 22.0 5.1 22.0 4.2 22.9 3.25 L22.95 3.2 24.3 2.15 28.75 1.75 32.4 1.3 36.6 1.0 Q41.05 1.0 44.6 3.8 L44.4 4.2 M46.0 18.5 L46.25 18.25 Q47.15 19.7 48.55 20.85 L50.6 22.45 50.35 22.45 50.35 24.0 Q50.65 24.35 51.3 24.75 L51.6 24.9 52.25 25.1 52.65 25.1 51.6 27.0 51.3 27.5 50.6 26.85 50.0 26.25 Q48.9 25.1 48.15 23.85 47.1 22.25 46.7 21.0 L46.0 18.5 M21.5 11.4 L21.5 11.45 21.7 11.6 21.25 11.85 20.1 12.45 17.8 13.2 16.8 13.45 15.25 13.7 13.75 13.8 13.3 13.8 Q11.7 13.8 10.7 12.85 L10.4 12.5 10.25 12.35 9.9 11.65 9.75 11.05 9.75 10.75 9.75 10.55 Q9.75 9.1 12.05 8.4 L13.95 8.1 15.3 8.0 16.1 8.05 16.3 8.1 17.65 8.55 Q18.5 8.95 19.4 9.65 L20.45 10.45 21.5 11.4 M12.4 9.8 L12.35 10.1 12.35 10.2 12.65 10.75 12.9 11.1 13.1 11.6 13.6 12.85 13.9 12.1 14.1 11.6 14.2 11.4 14.25 11.3 14.95 11.6 15.1 11.7 17.0 12.55 17.15 12.55 17.0 11.95 16.95 11.9 16.75 11.3 18.7 11.2 17.1 10.1 Q15.6 9.25 14.8 9.4 L14.95 10.35 13.85 10.25 13.8 10.25 13.1 10.1 12.5 9.8 12.4 9.8" fill="#406180" fill-rule="evenodd" stroke="none"/>
      <path d="M42.7 19.35 L41.2 20.3 40.3 20.7 39.9 20.85 37.95 21.1 37.9 21.45 Q36.3 21.3 34.8 20.45 L34.65 20.35 33.7 19.7 33.45 19.5 32.55 18.7 30.1 16.0 29.6 15.4 29.4 15.15 28.2 13.9 25.45 11.5 25.35 11.45 22.7 9.6 21.2 8.75 19.75 8.0 21.2 8.75 22.7 9.6 25.35 11.45 25.45 11.5 28.2 13.9 25.3 13.7 25.15 13.7 24.65 13.65 23.9 13.65 21.9 13.8 20.2 14.05 18.05 14.5 14.95 15.25 14.5 15.35 14.65 15.9 16.2 19.45 16.35 19.8 16.5 20.1 15.3 20.1 13.85 20.05 Q9.25 19.95 6.05 20.85 L5.55 21.05 Q3.75 20.25 1.8 17.4 L1.05 16.25 0.9 16.0 -0.1 13.8 -0.45 11.6 Q-0.45 10.2 0.0 9.5 L0.65 8.8 4.45 8.4 6.3 8.0 9.5 7.3 12.2 6.75 Q16.3 5.9 17.4 5.1 L17.9 4.95 17.95 4.85 18.25 4.15 18.45 3.85 Q19.0 3.05 20.05 2.65 L20.25 2.6 24.25 2.15 24.3 2.15 22.95 3.2 22.9 3.25 Q22.0 4.2 22.0 5.1 22.0 6.75 24.05 8.05 L24.45 8.3 25.7 8.85 Q27.4 9.55 29.15 9.55 30.95 9.55 32.95 8.35 L35.4 6.7 Q34.6 7.7 34.35 8.85 34.6 7.7 35.4 6.7 L35.8 6.25 36.15 5.85 35.9 6.3 35.8 6.45 Q35.0 7.95 34.6 9.45 34.35 10.55 34.35 11.65 34.35 14.85 35.6 16.95 L35.85 17.35 Q37.35 19.6 40.1 19.6 L41.5 19.5 42.7 19.35 M43.45 20.5 L46.0 18.5 45.95 18.3 46.4 18.05 47.0 17.25 47.2 17.4 46.4 18.05 46.25 18.25 46.0 18.5 46.7 21.0 Q47.1 22.25 48.15 23.85 48.9 25.1 50.0 26.25 L50.6 26.85 51.3 27.5 49.7 29.55 48.6 30.8 48.6 30.75 47.45 28.15 46.75 26.55 46.65 26.2 Q45.75 23.75 45.65 22.45 L45.4 22.4 43.55 20.75 43.4 20.55 43.45 20.5 M21.5 11.4 L20.45 10.45 19.4 9.65 Q18.5 8.95 17.65 8.55 L16.3 8.1 16.1 8.05 15.3 8.0 13.95 8.1 12.05 8.4 Q9.75 9.1 9.75 10.55 L9.75 10.75 9.75 11.05 9.9 11.65 10.25 12.35 10.4 12.5 10.7 12.85 Q11.7 13.8 13.3 13.8 L13.75 13.8 15.25 13.7 16.8 13.45 17.8 13.2 20.1 12.45 21.25 11.85 21.7 11.6 21.5 11.45 21.5 11.4 M1.15 23.8 L1.45 24.0 1.45 24.1 1.1 24.0 1.15 23.8" fill="#2d4a66" fill-rule="evenodd" stroke="none"/>
      <path d="M45.75 54.25 L38.85 54.25 39.05 54.05 40.35 52.5 41.5 51.0 41.6 50.9 41.8 50.6 42.6 49.3 42.95 48.7 44.5 48.15 Q48.65 46.55 49.95 44.5 51.3 42.45 51.3 38.9 L51.0 36.85 51.5 37.0 51.95 38.2 Q53.2 41.9 53.2 44.3 53.2 45.8 52.8 47.05 L52.65 47.55 52.35 48.25 51.6 50.3 51.25 51.1 50.85 50.9 Q50.2 50.55 49.8 50.55 L49.75 50.55 Q48.7 50.55 47.9 51.0 L46.7 51.95 Q46.15 52.6 45.9 53.35 L45.85 53.65 45.85 53.7 45.75 54.25 M15.75 54.25 L13.9 54.25 12.3 52.45 11.5 51.6 9.4 49.6 8.55 48.8 6.25 46.7 2.3 43.45 -0.75 41.05 -0.75 29.35 -0.65 29.4 1.1 30.2 Q1.85 33.0 3.85 35.8 L5.5 37.85 Q5.85 39.15 6.7 40.5 8.0 42.55 10.45 44.85 L17.35 50.45 17.1 50.4 Q16.65 50.4 16.0 50.85 L15.5 51.25 Q15.2 51.65 15.2 52.15 15.2 53.2 15.75 54.25" fill="#f2e8e0" fill-rule="evenodd" stroke="none"/>
      <path d="M45.05 26.8 L46.15 27.5 Q47.35 28.55 47.75 30.35 47.95 31.55 47.75 32.65 L47.65 32.9 47.3 33.75 46.95 34.4 Q46.25 35.25 45.2 35.5 43.9 35.8 42.7 34.7 41.4 33.6 41.1 31.85 L41.05 31.55 Q40.85 30.3 41.25 29.15 L41.5 28.5 Q41.95 27.55 42.7 27.05 43.1 26.8 43.55 26.7 L43.85 26.7 45.05 26.8 M41.25 29.15 L42.5 27.4 42.7 27.05 42.5 27.4 41.25 29.15 M46.3 31.25 L46.25 31.2 46.15 30.55 Q45.9 29.35 45.2 28.6 44.75 28.1 44.25 28.05 L43.8 28.05 Q43.05 28.2 42.75 29.2 42.45 30.2 42.7 31.35 L42.7 31.6 Q42.95 32.65 43.55 33.3 44.25 34.1 44.95 33.9 L45.8 33.25 46.05 33.3 46.3 33.2 Q46.7 33.0 46.7 32.5 L46.75 32.05 46.55 31.35 46.3 31.25 M17.75 33.25 L16.9 32.3 Q15.75 30.65 15.8 28.8 L15.9 28.05 Q16.35 25.75 18.35 24.45 20.4 23.15 22.85 23.6 25.2 24.05 26.6 25.9 L26.7 26.0 Q28.1 28.0 27.7 30.3 27.3 32.25 25.75 33.5 L25.2 33.85 Q23.2 35.15 20.75 34.7 19.0 34.35 17.75 33.25 M17.8 29.9 Q17.95 30.7 18.45 31.4 L19.2 32.2 19.6 32.55 21.05 33.05 23.45 32.8 23.95 32.5 24.0 32.45 24.3 32.25 Q25.45 31.35 25.75 29.95 26.0 28.45 25.2 27.2 L25.05 27.0 Q24.15 25.65 22.5 25.35 20.85 25.05 19.5 25.95 18.6 26.5 18.2 27.4 L18.15 27.35 17.5 27.45 Q17.1 27.65 17.0 28.1 L17.0 28.7 17.05 29.1 Q17.2 29.8 17.75 29.9 L17.8 29.9" fill="#2c509b" fill-rule="evenodd" stroke="none"/>
      <path d="M48.95 38.1 L50.2 40.15 50.45 40.15 50.15 41.65 50.0 42.15 47.65 43.4 47.25 43.6 45.25 44.4 45.2 44.4 41.9 38.45 39.1 34.45 37.8 33.7 Q36.3 32.8 34.8 32.4 L32.65 32.05 32.25 32.0 31.9 32.15 Q29.9 33.1 26.35 36.15 L22.4 39.8 Q20.3 39.7 18.05 38.85 16.0 38.05 14.4 36.8 L13.0 35.4 12.85 35.25 12.65 35.05 12.25 34.55 12.65 33.6 13.2 32.45 13.55 33.15 13.65 33.6 13.7 33.8 13.9 33.9 15.55 34.55 17.55 33.4 17.75 33.25 Q19.0 34.35 20.75 34.7 23.2 35.15 25.2 33.85 L25.75 33.5 Q27.3 32.25 27.7 30.3 28.1 28.0 26.7 26.0 L26.6 25.9 26.95 25.45 27.25 25.15 29.75 22.8 29.85 22.7 31.35 21.4 35.4 23.85 35.4 24.05 35.45 24.6 35.15 24.85 35.0 24.95 Q34.35 25.45 34.35 25.85 34.35 26.55 34.9 27.2 35.65 28.1 37.2 28.1 37.85 28.1 38.4 27.6 38.95 27.1 38.95 26.45 L38.85 25.7 38.65 25.05 38.45 24.65 39.1 24.35 39.35 24.3 39.6 24.2 39.8 24.3 41.05 24.75 41.45 24.9 43.4 25.7 43.55 25.8 43.65 25.85 43.85 26.7 43.55 26.7 Q43.1 26.8 42.7 27.05 L43.4 25.7 42.7 27.05 Q41.95 27.55 41.5 28.5 L41.25 29.15 Q40.85 30.3 41.05 31.55 L41.1 31.85 Q41.4 33.6 42.7 34.7 43.9 35.8 45.2 35.5 46.25 35.25 46.95 34.4 L47.0 34.55 48.95 38.1 M27.8 26.2 L26.95 25.45 27.8 26.2" fill="#fc7e47" fill-rule="evenodd" stroke="none"/>
      <path d="M45.8 33.25 L44.95 33.9 Q44.25 34.1 43.55 33.3 42.95 32.65 42.7 31.6 L42.7 31.35 Q42.45 30.2 42.75 29.2 43.05 28.2 43.8 28.05 L44.25 28.05 Q44.75 28.1 45.2 28.6 45.9 29.35 46.15 30.55 L46.25 31.2 46.3 31.25 46.0 31.25 45.55 31.5 45.15 32.0 45.15 32.4 Q45.15 32.75 45.45 33.05 L45.8 33.25 M18.2 27.4 Q18.6 26.5 19.5 25.95 20.85 25.05 22.5 25.35 24.15 25.65 25.05 27.0 L25.2 27.2 Q26.0 28.45 25.75 29.95 25.45 31.35 24.3 32.25 L24.0 32.45 23.95 32.5 23.45 32.8 21.05 33.05 19.6 32.55 19.2 32.2 18.45 31.4 Q17.95 30.7 17.8 29.9 L18.65 29.9 Q19.15 29.75 19.3 29.0 L19.35 28.65 19.4 28.35 19.1 28.0 18.7 27.7 18.2 27.4" fill="#76b3e0" fill-rule="evenodd" stroke="none"/>
      <path d="M45.8 33.25 L45.45 33.05 Q45.15 32.75 45.15 32.4 L45.15 32.0 45.55 31.5 46.0 31.25 46.3 31.25 46.55 31.35 46.75 32.05 46.7 32.5 Q46.7 33.0 46.3 33.2 L46.05 33.3 45.8 33.25 M18.2 27.4 L18.7 27.7 19.1 28.0 19.4 28.35 19.35 28.65 19.3 29.0 Q19.15 29.75 18.65 29.9 L17.8 29.9 17.75 29.9 Q17.2 29.8 17.05 29.1 L17.0 28.7 17.0 28.1 Q17.1 27.65 17.5 27.45 L18.15 27.35 18.2 27.4" fill="#bffdff" fill-rule="evenodd" stroke="none"/>
      <path d="M50.35 30.4 Q51.9 32.35 52.85 34.25 L54.15 37.3 54.15 38.2 Q53.65 37.8 52.75 37.4 L51.5 37.0 Q50.6 34.55 49.6 33.0 L48.75 31.15 49.1 31.0 49.1 30.85 49.15 31.0 50.35 30.4 M49.15 31.0 L49.1 31.0 49.15 31.0" fill="#b9633c" fill-rule="evenodd" stroke="none"/>
      <path d="M38.85 54.25 L37.5 54.25 37.75 53.9 38.0 53.6 39.1 52.2 40.45 50.4 40.75 49.9 40.8 49.85 41.2 49.2 42.95 48.7 42.6 49.3 41.8 50.6 41.6 50.9 41.5 51.0 40.35 52.5 39.05 54.05 38.85 54.25 M13.9 54.25 L8.75 54.25 6.9 52.55 4.3 50.35 4.2 50.25 4.2 50.2 4.05 50.0 Q2.0 47.25 -0.75 45.35 L-0.75 41.05 2.3 43.45 6.25 46.7 8.55 48.8 9.4 49.6 11.5 51.6 12.3 52.45 13.9 54.25 M4.3 50.35 L4.2 50.2 4.3 50.35" fill="#d3e1de" fill-rule="evenodd" stroke="none"/>
      <path d="M54.15 38.2 L54.15 51.85 52.65 54.25 45.75 54.25 45.85 53.7 45.85 53.65 45.9 53.35 Q46.15 52.6 46.7 51.95 L47.9 51.0 Q48.7 50.55 49.75 50.55 L49.8 50.55 Q50.2 50.55 50.85 50.9 L51.25 51.1 51.6 50.3 52.35 48.25 52.65 47.55 52.8 47.05 Q53.2 45.8 53.2 44.3 53.2 41.9 51.95 38.2 L51.5 37.0 52.75 37.4 Q53.65 37.8 54.15 38.2 M24.15 54.25 L15.75 54.25 Q15.2 53.2 15.2 52.15 15.2 51.65 15.5 51.25 L16.0 50.85 Q16.65 50.4 17.1 50.4 L17.35 50.45 10.45 44.85 Q8.0 42.55 6.7 40.5 5.85 39.15 5.5 37.85 L6.9 39.4 10.3 42.4 11.2 43.05 12.3 44.05 16.45 47.1 19.65 49.35 21.05 50.5 22.65 52.05 22.7 52.1 23.25 52.85 23.5 53.2 24.15 54.25" fill="#ffffff" fill-rule="evenodd" stroke="none"/>
      <path d="M7.1 54.25 L6.35 54.25 6.0 53.4 7.1 54.25 M13.1 44.4 Q16.25 46.35 19.75 47.55 L20.05 47.6 26.65 49.5 28.2 49.8 Q25.3 50.55 22.65 52.05 L21.05 50.5 19.65 49.35 16.45 47.1 12.3 44.05 11.2 43.05 13.1 44.4 M28.2 13.9 L29.4 15.15 29.6 15.4 30.1 16.0 32.55 18.7 30.15 17.35 29.15 17.0 Q27.4 16.4 25.1 16.4 L24.1 16.45 23.4 16.55 Q21.55 16.75 19.75 17.55 L19.5 17.7 Q17.95 18.35 16.9 19.3 L16.7 19.45 16.35 19.8 16.2 19.45 14.65 15.9 14.5 15.35 14.95 15.25 18.05 14.5 20.2 14.05 21.9 13.8 23.9 13.65 24.65 13.65 25.15 13.7 25.3 13.7 28.2 13.9 M13.85 20.05 L14.65 21.75 14.85 22.2 14.95 22.4 14.45 22.5 Q12.05 23.0 10.7 23.95 7.7 26.1 7.1 30.55 6.95 31.7 6.95 33.05 6.95 34.55 7.2 35.9 L7.7 37.75 7.75 37.95 8.05 38.7 Q8.85 40.4 10.3 42.4 L6.9 39.4 5.5 37.85 3.85 35.8 Q1.85 33.0 1.1 30.2 0.6 28.45 0.6 26.8 0.6 25.35 1.1 24.0 L1.45 24.1 1.45 24.0 Q2.35 22.1 5.55 21.05 L6.05 20.85 Q9.25 19.95 13.85 20.05" fill="#ffc658" fill-rule="evenodd" stroke="none"/>
      <path d="M-0.75 17.25 L-0.75 8.9 -0.7 8.9 0.65 8.8 0.0 9.5 Q-0.45 10.2 -0.45 11.6 L-0.1 13.8 0.9 16.0 1.05 16.25 1.8 17.4 Q3.75 20.25 5.55 21.05 2.35 22.1 1.45 24.0 L1.15 23.8 2.05 21.6 2.15 21.5 1.85 21.35 Q0.8 20.1 -0.65 17.45 L-0.75 17.25 M2.55 20.4 L2.15 21.5 2.55 20.4" fill="#205d98" fill-rule="evenodd" stroke="none"/>
      <path d="M37.5 54.25 L33.05 54.25 33.65 53.35 Q34.2 52.55 34.9 51.8 L35.4 51.3 35.75 50.95 36.95 49.85 37.35 49.85 41.2 49.2 40.8 49.85 40.75 49.9 40.45 50.4 39.1 52.2 38.0 53.6 37.75 53.9 37.5 54.25 M8.75 54.25 L7.1 54.25 6.0 53.4 5.5 52.35 Q5.0 51.3 4.3 50.35 L6.9 52.55 8.75 54.25" fill="#abb4b2" fill-rule="evenodd" stroke="none"/>
      <path d="M54.15 51.85 L54.15 54.25 52.65 54.25 54.15 51.85" fill="#eee4dd" fill-rule="evenodd" stroke="none"/>
      <path d="M47.0 17.25 L47.3 16.9 47.5 16.8 47.6 16.75 47.6 16.65 48.9 13.25 48.95 11.5 Q48.95 8.85 47.25 6.5 L46.75 5.85 46.3 5.35 46.25 5.3 Q45.55 4.7 44.8 4.35 L44.4 4.2 44.35 4.15 44.1 4.05 41.0 3.75 Q38.65 3.75 36.65 5.45 L36.15 5.85 35.8 6.25 35.4 6.7 Q34.6 7.7 34.35 8.85 M37.9 21.45 L38.8 21.5 40.5 21.4 40.9 21.35 41.05 21.3 42.15 21.0 43.4 20.5 43.45 20.5 46.0 18.5 46.25 18.25 46.4 18.05 47.0 17.25 M47.55 17.65 L50.9 20.35 54.05 22.35 54.15 22.4 M54.15 26.55 L52.8 28.2 52.7 28.4 50.35 30.4 Q51.9 32.35 52.85 34.25 L54.15 37.3 M-0.75 8.9 L-0.7 8.9 0.65 8.8 4.45 8.4 6.3 8.0 9.5 7.3 12.2 6.75 Q16.3 5.9 17.4 5.1 M17.9 4.95 L17.95 4.85 18.25 4.15 18.45 3.85 Q19.0 3.05 20.05 2.65 L20.25 2.6 24.25 2.15 24.3 2.15 28.75 1.75 32.4 1.3 36.6 1.0 Q41.05 1.0 44.6 3.8 L45.2 4.3 46.25 5.3 M48.6 30.8 L48.75 31.15 49.6 33.0 51.0 36.85 51.3 38.9 Q51.3 42.45 49.95 44.5 48.65 46.55 44.5 48.15 L42.95 48.7 41.2 49.2 37.35 49.85 36.95 49.85 34.6 49.95 30.95 50.0 28.2 49.8 26.65 49.5 20.05 47.6 19.75 47.55 Q16.25 46.35 13.1 44.4 L11.2 43.05 12.3 44.05 16.45 47.1 19.65 49.35 21.05 50.5 22.65 52.05 22.7 52.1 23.25 52.85 23.5 53.2 24.15 54.25 M49.1 31.0 L49.1 30.85 49.15 31.0 50.35 30.4 M43.55 20.75 L45.4 22.4 M45.65 22.45 Q45.75 23.75 46.65 26.2 L46.75 26.55 47.45 28.15 48.6 30.75 48.6 30.8 M45.05 26.8 L46.15 27.5 Q47.35 28.55 47.75 30.35 47.95 31.55 47.75 32.65 L47.65 32.9 47.3 33.75 46.95 34.4 Q46.25 35.25 45.2 35.5 43.9 35.8 42.7 34.7 41.4 33.6 41.1 31.85 L41.05 31.55 Q40.85 30.3 41.25 29.15 L42.5 27.4 42.7 27.05 Q41.95 27.55 41.5 28.5 L41.25 29.15 M43.4 25.7 L44.0 24.7 M51.5 37.0 L51.0 36.85 M45.05 26.8 L43.85 26.7 43.55 26.7 Q43.1 26.8 42.7 27.05 L43.4 25.7 M49.1 31.0 L49.15 31.0 M54.15 38.2 Q53.65 37.8 52.75 37.4 L51.5 37.0 M28.2 13.9 L25.45 11.5 25.35 11.45 22.7 9.6 21.2 8.75 19.75 8.0 M28.2 13.9 L29.4 15.15 29.6 15.4 30.1 16.0 32.55 18.7 33.45 19.5 33.7 19.7 34.65 20.35 34.8 20.45 Q36.3 21.3 37.9 21.45 M16.35 19.8 L16.5 20.1 15.3 20.1 13.85 20.05 Q9.25 19.95 6.05 20.85 L5.55 21.05 Q2.35 22.1 1.45 24.0 L1.45 24.1 M10.3 42.4 L11.2 43.05 M16.35 19.8 L16.2 19.45 14.65 15.9 14.5 15.35 14.95 15.25 18.05 14.5 20.2 14.05 21.9 13.8 23.9 13.65 24.65 13.65 25.15 13.7 25.3 13.7 28.2 13.9 M22.05 20.95 L24.45 23.25 26.95 25.45 27.8 26.2 M22.05 20.95 L21.75 20.55 M2.15 21.5 L2.05 21.6 1.15 23.8 1.1 24.0 Q0.6 25.35 0.6 26.8 0.6 28.45 1.1 30.2 1.85 33.0 3.85 35.8 L5.5 37.85 6.9 39.4 10.3 42.4 M2.15 21.5 L2.55 20.4 M17.75 33.25 L16.9 32.3 Q15.75 30.65 15.8 28.8 L15.9 28.05 Q16.35 25.75 18.35 24.45 20.4 23.15 22.85 23.6 25.2 24.05 26.6 25.9 L26.7 26.0 Q28.1 28.0 27.7 30.3 27.3 32.25 25.75 33.5 L25.2 33.85 Q23.2 35.15 20.75 34.7 19.0 34.35 17.75 33.25 M28.2 44.65 L26.9 44.1 Q26.1 44.1 22.95 45.6 M34.9 51.8 L35.4 51.3 35.75 50.95 36.95 49.85 M33.05 54.25 L33.65 53.35 Q34.2 52.55 34.9 51.8 M7.1 54.25 L6.0 53.4 M54.15 51.85 L52.65 54.25 M-0.75 17.25 L-0.65 17.45 Q0.8 20.1 1.85 21.35 M1.1 30.2 L-0.65 29.4 -0.75 29.35" fill="none" stroke="#5a0f0c" stroke-linecap="round" stroke-linejoin="round" stroke-width="1.0"/>
      <path d="M6.0 53.4 L6.35 54.25 M6.0 53.4 L5.5 52.35 Q5.0 51.3 4.3 50.35 L4.2 50.2 4.05 50.0 Q2.0 47.25 -0.75 45.35" fill="none" stroke="#641e17" stroke-linecap="round" stroke-linejoin="round" stroke-width="1.0"/>
    </g>
    <g id="shape2" transform="matrix(1.0, 0.0, 0.0, 1.0, 0.0, 0.0)">
      <path d="M50.5 0.0 Q53.95 0.0 53.95 3.3 L53.95 50.15 Q53.95 53.4 50.5 53.4 L3.3 53.4 Q0.0 53.4 0.0 50.15 L0.0 3.3 Q0.0 0.0 3.3 0.0 L50.5 0.0" fill="#000000" fill-opacity="0.003921569" fill-rule="evenodd" stroke="none"/>
    </g>
  </defs>
</svg>
