<?xml version="1.0" encoding="UTF-8" standalone="no"?>
<svg xmlns:ffdec="https://www.free-decompiler.com/flash" xmlns:xlink="http://www.w3.org/1999/xlink" ffdec:objectType="frame" height="56.05px" width="53.95px" xmlns="http://www.w3.org/2000/svg">
  <g transform="matrix(1.0, 0.0, 0.0, 1.0, 0.0, 0.9)">
    <clipPath id="clipPath0" transform="matrix(1.0, 0.0, 0.0, 1.0, 0.0, 0.0)">
      <path d="M50.5 0.0 Q53.95 0.0 53.95 3.3 L53.95 50.15 Q53.95 53.4 50.5 53.4 L3.3 53.4 Q0.0 53.4 0.0 50.15 L0.0 3.3 Q0.0 0.0 3.3 0.0 L50.5 0.0" fill="#000000" fill-rule="evenodd" stroke="none"/>
    </clipPath>
    <g clip-path="url(#clipPath0)">
      <use ffdec:characterId="2" height="56.05" transform="matrix(1.0, 0.0, 0.0, 1.0, 1.75, -0.9)" width="50.5" xlink:href="#shape1"/>
    </g>
    <use ffdec:characterId="3" height="53.4" transform="matrix(1.0, 0.0, 0.0, 1.0, 0.0, 0.0)" width="53.95" xlink:href="#shape2"/>
  </g>
  <defs>
    <g id="shape1" transform="matrix(1.0, 0.0, 0.0, 1.0, -1.75, 0.9)">
      <path d="M46.75 27.15 L46.45 28.35 Q46.15 28.85 45.75 28.85 45.3 28.85 45.05 28.35 44.75 27.85 44.75 27.15 44.75 26.45 45.05 25.95 45.3 25.45 45.75 25.45 46.15 25.45 46.45 25.95 L46.75 27.15 M26.6 28.0 L26.15 29.15 Q25.65 29.6 25.0 29.6 24.4 29.6 23.9 29.15 23.5 28.65 23.5 28.0 23.5 27.3 23.9 26.85 24.4 26.4 25.0 26.4 25.65 26.4 26.15 26.85 26.6 27.3 26.6 28.0" fill="#ffffff" fill-rule="evenodd" stroke="none"/>
      <path d="M46.75 27.15 L46.45 25.95 Q46.15 25.45 45.75 25.45 45.3 25.45 45.05 25.95 44.75 26.45 44.75 27.15 44.75 27.85 45.05 28.35 45.3 28.85 45.75 28.85 46.15 28.85 46.45 28.35 L46.75 27.15 M44.6 32.4 Q44.0 31.05 43.9 29.25 43.85 27.05 44.6 25.5 45.35 24.0 46.5 24.0 47.7 24.0 48.6 25.5 49.45 27.05 49.55 29.25 49.65 31.45 48.9 33.0 48.15 34.45 47.1 34.5 L46.65 33.35 Q46.1 32.25 45.25 32.25 L44.6 32.4 M31.2 26.0 Q32.9 27.75 32.9 30.15 32.9 32.6 31.2 34.35 29.45 36.1 27.0 36.1 24.55 36.1 22.85 34.35 21.15 32.6 21.15 30.15 21.15 27.75 22.85 26.0 24.55 24.25 27.0 24.25 29.45 24.25 31.2 26.0 M26.6 28.0 Q26.6 27.3 26.15 26.85 25.65 26.4 25.0 26.4 24.4 26.4 23.9 26.85 23.5 27.3 23.5 28.0 23.5 28.65 23.9 29.15 24.4 29.6 25.0 29.6 25.65 29.6 26.15 29.15 L26.6 28.0" fill="#4e2521" fill-rule="evenodd" stroke="none"/>
      <path d="M30.45 7.9 L30.7 5.5 Q31.05 3.4 32.0 1.8 32.75 0.5 34.0 0.1 L35.4 -0.05 35.55 -0.05 Q36.35 0.55 36.95 2.6 L37.15 3.5 37.2 3.8 37.3 4.05 37.6 6.25 37.5 6.25 35.8 6.05 Q34.2 6.05 32.6 6.9 31.3 7.6 30.7 8.5 L30.45 7.9 M49.0 48.65 Q47.85 50.25 44.75 50.0 42.55 49.85 40.8 48.1 L39.65 49.6 37.7 51.45 Q35.85 52.85 33.45 52.85 31.45 52.85 28.7 50.8 L28.4 50.55 30.6 50.6 33.2 50.4 35.6 49.85 35.95 49.75 36.45 49.6 Q38.65 48.9 40.65 47.9 L42.4 46.95 43.95 45.9 44.9 47.25 Q46.5 49.0 47.65 49.0 L49.0 48.65 M27.5 50.45 L25.05 53.05 Q23.3 54.8 21.15 54.65 19.05 53.15 17.35 50.6 15.9 48.45 14.85 45.75 L16.65 46.9 Q17.65 47.5 18.75 47.95 L21.0 48.9 23.35 49.6 25.75 50.15 27.5 50.45 M12.75 45.3 L12.0 46.6 11.45 47.4 Q9.55 49.75 7.45 49.75 6.15 49.75 5.05 48.95 3.8 46.65 3.8 44.25 3.8 40.7 5.4 37.2 6.2 35.4 7.3 33.85 L7.35 33.85 Q8.15 35.2 9.35 36.3 L9.4 36.35 Q10.7 37.45 12.25 37.95 L13.7 38.2 Q15.3 38.25 16.55 37.2 L16.85 36.95 14.35 42.2 13.7 43.7 13.25 44.5 12.75 45.3 M16.05 11.75 L14.4 10.0 Q11.6 6.8 11.6 5.3 11.6 3.05 13.85 1.3 L15.75 0.2 15.7 1.0 Q15.7 2.55 16.85 4.15 L19.4 6.95 19.95 7.5 18.35 8.7 Q16.7 10.1 16.05 11.75 M23.4 0.4 Q26.4 1.6 28.6 4.65 L30.25 7.5 Q28.15 6.15 25.2 6.15 L23.9 6.25 Q23.2 4.55 23.0 3.3 L23.2 3.3 Q23.8 3.3 23.8 2.75 23.8 2.25 23.3 1.65 L23.0 1.35 23.0 1.25 23.3 0.55 23.4 0.4 M40.8 48.1 L40.65 47.9 40.8 48.1 M11.3 41.65 L11.0 42.2 Q9.95 44.05 9.95 45.65 L10.25 46.65 Q11.0 46.3 11.85 44.35 L12.1 43.8 12.25 43.55 13.7 40.6 13.85 39.9 13.45 39.5 Q12.6 39.5 11.3 41.65" fill="#8f4441" fill-rule="evenodd" stroke="none"/>
      <path d="M42.2 9.85 L41.8 12.25 43.65 13.6 Q45.15 14.9 46.45 16.35 48.35 18.6 49.65 21.3 51.9 26.0 51.75 31.1 51.7 33.7 50.95 36.1 L50.2 35.6 Q49.85 35.25 49.95 34.0 51.0 31.4 50.3 27.5 49.95 25.6 48.7 24.05 L47.65 23.15 Q46.5 22.4 45.75 22.4 44.25 22.4 43.05 24.65 42.0 26.8 42.0 29.4 42.0 31.5 42.5 33.65 L42.55 34.15 42.35 34.45 42.05 35.0 39.95 32.95 Q38.45 31.75 37.05 32.1 L35.95 32.5 Q35.3 32.8 34.8 33.35 34.0 34.2 34.05 36.2 L33.85 36.05 Q33.4 35.7 33.95 34.35 34.5 33.0 34.7 30.6 34.95 28.15 33.15 25.75 31.4 23.35 28.45 22.8 22.45 21.9 19.85 27.4 18.85 29.5 18.45 30.95 L18.3 31.7 Q17.85 33.0 17.05 33.0 L15.55 32.65 14.5 31.4 14.35 30.95 14.2 30.3 14.1 29.7 Q13.9 27.65 14.1 25.65 14.65 21.05 18.55 18.3 L21.65 16.2 Q23.0 15.05 23.05 13.7 L23.05 13.5 23.05 13.3 23.05 13.25 22.65 11.4 21.5 9.4 19.95 7.5 Q21.8 6.45 23.9 6.25 L25.15 8.65 25.55 9.4 Q26.75 11.45 28.0 12.75 L28.1 12.7 Q30.0 14.5 32.85 14.5 35.9 14.5 36.85 12.95 L37.35 11.4 37.3 11.4 37.5 10.45 37.55 10.1 37.6 10.0 37.7 8.1 37.6 6.25 Q39.3 6.65 40.55 7.8 L41.15 8.4 42.2 9.85 M43.15 14.5 Q42.15 14.15 41.65 14.15 41.15 14.2 40.55 14.8 40.0 15.45 40.0 16.35 40.0 18.15 42.15 19.6 44.0 20.95 45.7 20.95 46.45 20.95 46.9 20.55 47.35 20.2 47.35 19.6 47.35 18.5 45.75 16.75 44.15 14.95 43.15 14.5 M41.55 13.4 L41.8 12.25 41.55 13.4" fill="#ffe27c" fill-rule="evenodd" stroke="none"/>
      <path d="M37.6 6.25 L37.3 4.05 37.2 3.8 37.15 3.5 36.95 2.6 Q36.35 0.55 35.55 -0.05 37.7 0.0 39.35 1.4 L40.55 2.65 Q41.15 3.4 41.55 4.3 42.25 6.05 42.3 8.0 L42.2 9.85 41.15 8.4 40.55 7.8 Q39.3 6.65 37.6 6.25 M50.55 37.2 L49.1 40.2 48.75 40.8 48.95 41.2 49.4 42.45 Q49.95 44.5 49.8 46.4 49.65 47.8 49.0 48.65 L47.65 49.0 Q46.5 49.0 44.9 47.25 L43.95 45.9 42.4 46.95 40.65 47.9 Q38.65 48.9 36.45 49.6 L35.95 49.75 35.6 49.85 35.1 49.85 Q30.35 49.85 26.75 48.5 L25.2 47.85 Q23.95 47.2 22.85 46.4 19.3 43.75 18.4 39.9 18.1 38.55 18.1 37.1 L18.2 36.05 18.55 36.0 Q19.35 36.0 20.2 36.8 L20.25 36.85 21.9 38.7 Q23.4 40.45 25.1 41.1 L25.2 41.15 27.0 41.45 27.6 41.4 28.65 41.05 30.85 39.7 31.2 39.4 Q32.75 38.1 34.15 38.05 L34.45 38.1 34.55 38.1 Q35.15 39.35 36.5 40.65 38.3 42.35 40.0 43.35 L41.1 43.9 41.8 43.45 Q44.15 41.8 45.55 39.85 47.15 37.6 47.15 35.6 48.55 35.8 49.65 36.45 50.2 36.8 50.55 37.2 M15.75 0.2 L19.05 -0.4 Q21.4 -0.4 23.4 0.4 L23.3 0.55 23.0 1.25 23.0 1.35 22.65 1.05 22.4 0.95 21.35 0.75 Q20.3 0.75 20.3 1.3 20.3 1.95 21.35 2.65 22.2 3.2 23.0 3.3 23.2 4.55 23.9 6.25 21.8 6.45 19.95 7.5 L19.4 6.95 16.85 4.15 Q15.7 2.55 15.7 1.0 L15.75 0.2 M48.75 40.8 Q46.8 43.8 43.95 45.9 46.8 43.8 48.75 40.8 M39.1 1.95 L38.3 1.85 Q37.9 1.85 37.9 2.25 37.9 2.7 38.7 3.6 39.55 4.5 39.9 4.5 40.3 4.5 40.3 3.9 40.3 3.1 39.1 1.95 M35.3 42.9 Q34.8 42.4 34.05 42.4 33.1 42.4 32.95 43.7 L32.85 44.35 Q32.85 44.9 33.2 45.65 33.7 46.8 34.6 46.8 L35.45 46.55 35.95 45.8 36.0 44.95 35.85 43.75 35.8 43.7 35.55 43.2 35.3 42.9" fill="#c85f63" fill-rule="evenodd" stroke="none"/>
      <path d="M43.15 14.5 Q44.15 14.95 45.75 16.75 47.35 18.5 47.35 19.6 47.35 20.2 46.9 20.55 46.45 20.95 45.7 20.95 44.0 20.95 42.15 19.6 40.0 18.15 40.0 16.35 40.0 15.45 40.55 14.8 41.15 14.2 41.65 14.15 42.15 14.15 43.15 14.5" fill="#fff2d5" fill-rule="evenodd" stroke="none"/>
      <path d="M30.45 7.9 L30.7 8.5 Q31.3 7.6 32.6 6.9 34.2 6.05 35.8 6.05 L37.5 6.25 37.6 6.25 37.7 8.1 37.6 10.0 37.55 10.1 37.5 10.45 37.3 11.4 37.35 11.4 36.85 12.95 Q35.9 14.5 32.85 14.5 30.0 14.5 28.1 12.7 L28.0 12.75 Q26.75 11.45 25.55 9.4 L25.15 8.65 23.9 6.25 25.2 6.15 Q28.15 6.15 30.25 7.5 L30.45 7.9 M50.95 36.1 L50.55 37.2 Q50.2 36.8 49.65 36.45 48.55 35.8 47.15 35.6 L47.1 34.5 Q48.15 34.45 48.9 33.0 49.65 31.45 49.55 29.25 49.45 27.05 48.6 25.5 47.7 24.0 46.5 24.0 45.35 24.0 44.6 25.5 43.85 27.05 43.9 29.25 44.0 31.05 44.6 32.4 43.8 32.7 43.05 33.55 L42.55 34.15 42.5 33.65 Q42.0 31.5 42.0 29.4 42.0 26.8 43.05 24.65 44.25 22.4 45.75 22.4 46.5 22.4 47.65 23.15 L48.7 24.05 Q49.95 25.6 50.3 27.5 51.0 31.4 49.95 34.0 49.85 35.25 50.2 35.6 L50.95 36.1 M6.55 32.4 L6.5 32.35 7.0 31.85 6.9 30.95 6.9 29.65 6.9 28.65 Q6.95 26.15 7.45 23.95 L7.5 23.8 Q8.65 18.95 11.95 15.25 13.75 13.2 16.05 11.75 16.7 10.1 18.35 8.7 L19.95 7.5 21.5 9.4 22.65 11.4 23.05 13.25 23.05 13.3 23.05 13.5 23.05 13.7 Q23.0 15.05 21.65 16.2 L18.55 18.3 Q14.65 21.05 14.1 25.65 13.9 27.65 14.1 29.7 L14.2 30.3 14.35 30.95 14.5 31.4 15.55 32.65 17.05 33.0 Q17.85 33.0 18.3 31.7 L18.45 30.95 Q18.85 29.5 19.85 27.4 22.45 21.9 28.45 22.8 31.4 23.35 33.15 25.75 34.95 28.15 34.7 30.6 34.5 33.0 33.95 34.35 33.4 35.7 33.85 36.05 L34.05 36.2 34.05 36.3 Q34.1 37.1 34.5 38.0 L34.55 38.1 34.45 38.1 34.15 38.05 Q32.75 38.1 31.2 39.4 L30.85 39.7 28.65 41.05 27.6 41.4 27.0 41.45 25.2 41.15 25.1 41.1 Q23.4 40.45 21.9 38.7 L20.25 36.85 20.2 36.8 Q19.35 36.0 18.55 36.0 L18.2 36.05 16.95 36.8 16.85 36.85 16.85 36.95 16.55 37.2 Q15.3 38.25 13.7 38.2 L12.25 37.95 Q10.7 37.45 9.4 36.35 L9.35 36.3 Q8.15 35.2 7.35 33.85 L7.3 33.85 6.55 32.4 M31.45 11.35 L31.4 11.0 30.9 9.05 30.7 8.5 30.9 9.05 31.4 11.0 31.45 11.35 M19.0 13.75 Q17.75 13.4 16.05 11.75 17.75 13.4 19.0 13.75 M17.25 36.05 L16.85 36.85 17.25 36.05 M7.0 31.85 L7.15 31.65 9.05 29.85 7.15 31.65 7.0 31.85 M31.2 26.0 Q29.45 24.25 27.0 24.25 24.55 24.25 22.85 26.0 21.15 27.75 21.15 30.15 21.15 32.6 22.85 34.35 24.55 36.1 27.0 36.1 29.45 36.1 31.2 34.35 32.9 32.6 32.9 30.15 32.9 27.75 31.2 26.0" fill="#f0ab66" fill-rule="evenodd" stroke="none"/>
      <path d="M42.35 34.45 L42.55 34.15 43.05 33.55 Q43.8 32.7 44.6 32.4 L45.25 32.25 Q46.1 32.25 46.65 33.35 L47.1 34.5 47.15 35.6 Q47.15 37.6 45.55 39.85 44.15 41.8 41.8 43.45 42.75 40.1 42.75 38.5 L42.75 38.05 42.55 35.55 42.35 34.45" fill="#f6ccfe" fill-rule="evenodd" stroke="none"/>
      <path d="M35.95 32.5 L37.05 32.1 Q38.45 31.75 39.95 32.95 L42.05 35.0 42.35 34.45 42.55 35.55 42.75 38.05 42.75 38.5 Q42.75 40.1 41.8 43.45 L41.1 43.9 40.0 43.35 40.05 43.3 40.15 41.4 39.85 38.55 39.4 37.05 38.2 34.7 Q37.05 33.1 35.95 32.5" fill="#eaa5c2" fill-rule="evenodd" stroke="none"/>
      <path d="M39.1 1.95 Q40.3 3.1 40.3 3.9 40.3 4.5 39.9 4.5 39.55 4.5 38.7 3.6 37.9 2.7 37.9 2.25 37.9 1.85 38.3 1.85 L39.1 1.95 M23.0 1.35 L23.3 1.65 Q23.8 2.25 23.8 2.75 23.8 3.3 23.2 3.3 L23.0 3.3 Q22.2 3.2 21.35 2.65 20.3 1.95 20.3 1.3 20.3 0.75 21.35 0.75 L22.4 0.95 22.65 1.05 23.0 1.35" fill="#e4b4b9" fill-rule="evenodd" stroke="none"/>
      <path d="M27.9 50.5 L27.5 50.45 25.75 50.15 23.35 49.6 21.0 48.9 18.75 47.95 Q17.65 47.5 16.65 46.9 L14.85 45.75 14.7 45.55 13.25 44.5 13.7 43.7 14.35 42.2 16.85 36.95 16.85 36.85 16.95 36.8 18.2 36.05 18.1 37.1 Q18.1 38.55 18.4 39.9 19.3 43.75 22.85 46.4 23.95 47.2 25.2 47.85 L26.75 48.5 Q30.35 49.85 35.1 49.85 L35.6 49.85 33.2 50.4 30.6 50.6 28.4 50.55 28.25 50.55 27.9 50.5" fill="#963f38" fill-rule="evenodd" stroke="none"/>
      <path d="M39.65 49.6 L37.45 52.0 Q35.35 53.95 33.1 53.95 30.85 53.95 28.75 51.55 L27.9 50.5 28.25 50.55 28.4 50.55 28.7 50.8 Q31.45 52.85 33.45 52.85 35.85 52.85 37.7 51.45 L39.65 49.6 M21.15 54.65 L20.9 54.6 Q18.6 54.25 16.0 50.95 14.45 48.9 12.75 45.3 L13.25 44.5 14.7 45.55 14.85 45.75 Q15.9 48.45 17.35 50.6 19.05 53.15 21.15 54.65 M5.05 48.95 L4.0 47.85 Q2.65 46.15 2.3 43.7 L2.3 43.6 Q2.0 41.05 3.35 37.45 4.55 34.95 6.05 32.95 L6.55 32.4 7.3 33.85 Q6.2 35.4 5.4 37.2 3.8 40.7 3.8 44.25 3.8 46.65 5.05 48.95" fill="#bb7c8d" fill-rule="evenodd" stroke="none"/>
      <path d="M11.3 41.65 Q12.6 39.5 13.45 39.5 L13.85 39.9 13.7 40.6 12.25 43.55 12.1 43.8 11.85 44.35 Q11.0 46.3 10.25 46.65 L9.95 45.65 Q9.95 44.05 11.0 42.2 L11.3 41.65 M35.3 42.9 L35.55 43.2 35.8 43.7 35.85 43.75 36.0 44.95 35.95 45.8 35.45 46.55 34.6 46.8 Q33.7 46.8 33.2 45.65 32.85 44.9 32.85 44.35 L32.95 43.7 Q33.1 42.4 34.05 42.4 34.8 42.4 35.3 42.9" fill="#dc9384" fill-rule="evenodd" stroke="none"/>
      <path d="M34.05 36.2 Q34.0 34.2 34.8 33.35 35.3 32.8 35.95 32.5 37.05 33.1 38.2 34.7 L39.4 37.05 39.85 38.55 40.15 41.4 40.05 43.3 40.0 43.35 Q38.3 42.35 36.5 40.65 35.15 39.35 34.55 38.1 L34.5 38.0 Q34.1 37.1 34.05 36.3 L34.05 36.2" fill="#cd879f" fill-rule="evenodd" stroke="none"/>
      <path d="M30.7 8.5 Q31.3 7.6 32.6 6.9 34.2 6.05 35.8 6.05 L37.5 6.25 37.6 6.25 Q39.3 6.65 40.55 7.8 L41.15 8.4 42.2 9.85 M23.9 6.25 Q21.8 6.45 19.95 7.5 L18.35 8.7 Q16.7 10.1 16.05 11.75 M34.05 36.2 Q34.0 34.2 34.8 33.35 35.3 32.8 35.95 32.5 L37.05 32.1 Q38.45 31.75 39.95 32.95 L42.05 35.0 42.35 34.45 42.55 34.15 43.05 33.55 Q43.8 32.7 44.6 32.4 L45.25 32.25 Q46.1 32.25 46.65 33.35 L47.1 34.5 47.15 35.6 Q48.55 35.8 49.65 36.45 50.2 36.8 50.55 37.2 M41.8 43.45 Q44.15 41.8 45.55 39.85 47.15 37.6 47.15 35.6 M41.8 43.45 L41.1 43.9 40.0 43.35 Q38.3 42.35 36.5 40.65 35.15 39.35 34.55 38.1 L34.45 38.1 34.15 38.05 Q32.75 38.1 31.2 39.4 L30.85 39.7 28.65 41.05 27.6 41.4 27.0 41.45 25.2 41.15 25.1 41.1 Q23.4 40.45 21.9 38.7 L20.25 36.85 20.2 36.8 Q19.35 36.0 18.55 36.0 L18.2 36.05 16.95 36.8 16.85 36.85 M23.9 6.25 L25.2 6.15 Q28.15 6.15 30.25 7.5 M7.3 33.85 L7.35 33.85 Q8.15 35.2 9.35 36.3 L9.4 36.35 Q10.7 37.45 12.25 37.95 L13.7 38.2 Q15.3 38.25 16.55 37.2 L16.85 36.95 M6.55 32.4 L7.3 33.85 M34.05 36.2 L34.05 36.3 Q34.1 37.1 34.5 38.0 L34.55 38.1" fill="none" stroke="#552222" stroke-linecap="round" stroke-linejoin="round" stroke-width="1.0"/>
      <path d="M47.1 34.5 Q48.15 34.45 48.9 33.0 49.65 31.45 49.55 29.25 49.45 27.05 48.6 25.5 47.7 24.0 46.5 24.0 45.35 24.0 44.6 25.5 43.85 27.05 43.9 29.25 44.0 31.05 44.6 32.4 M31.2 26.0 Q29.45 24.25 27.0 24.25 24.55 24.25 22.85 26.0 21.15 27.75 21.15 30.15 21.15 32.6 22.85 34.35 24.55 36.1 27.0 36.1 29.45 36.1 31.2 34.35 32.9 32.6 32.9 30.15 32.9 27.75 31.2 26.0" fill="none" stroke="#261404" stroke-linecap="round" stroke-linejoin="round" stroke-width="1.0"/>
      <path d="M35.55 -0.05 L35.4 -0.05 34.0 0.1 Q32.75 0.5 32.0 1.8 31.05 3.4 30.7 5.5 L30.45 7.9 30.7 8.5 30.9 9.05 31.4 11.0 31.45 11.35 M35.55 -0.05 Q37.7 0.0 39.35 1.4 L40.55 2.65 Q41.15 3.4 41.55 4.3 42.25 6.05 42.3 8.0 L42.2 9.85 41.8 12.25 43.65 13.6 Q45.15 14.9 46.45 16.35 48.35 18.6 49.65 21.3 51.9 26.0 51.75 31.1 51.7 33.7 50.95 36.1 L50.55 37.2 49.1 40.2 48.75 40.8 48.95 41.2 49.4 42.45 Q49.95 44.5 49.8 46.4 49.65 47.8 49.0 48.65 47.85 50.25 44.75 50.0 42.55 49.85 40.8 48.1 L39.65 49.6 37.45 52.0 Q35.35 53.95 33.1 53.95 30.85 53.95 28.75 51.55 L27.9 50.5 27.5 50.45 25.05 53.05 Q23.3 54.8 21.15 54.65 L20.9 54.6 Q18.6 54.25 16.0 50.95 14.45 48.9 12.75 45.3 L12.0 46.6 11.45 47.4 Q9.55 49.75 7.45 49.75 6.15 49.75 5.05 48.95 L4.0 47.85 Q2.65 46.15 2.3 43.7 L2.3 43.6 Q2.0 41.05 3.35 37.45 4.55 34.95 6.05 32.95 L6.55 32.4 6.5 32.35 7.0 31.85 6.9 30.95 6.9 29.65 6.9 28.65 Q6.95 26.15 7.45 23.95 L7.5 23.8 Q8.65 18.95 11.95 15.25 13.75 13.2 16.05 11.75 L14.4 10.0 Q11.6 6.8 11.6 5.3 11.6 3.05 13.85 1.3 L15.75 0.2 19.05 -0.4 Q21.4 -0.4 23.4 0.4 26.4 1.6 28.6 4.65 L30.25 7.5 30.45 7.9 M41.8 12.25 L41.55 13.4 M40.65 47.9 L40.8 48.1 M43.95 45.9 L42.4 46.95 40.65 47.9 Q38.65 48.9 36.45 49.6 L35.95 49.75 35.6 49.85 33.2 50.4 30.6 50.6 28.4 50.55 28.25 50.55 27.9 50.5 M43.95 45.9 Q46.8 43.8 48.75 40.8 M16.05 11.75 Q17.75 13.4 19.0 13.75 M16.85 36.85 L16.85 36.95 14.35 42.2 13.7 43.7 13.25 44.5 14.7 45.55 14.85 45.75 16.65 46.9 Q17.65 47.5 18.75 47.95 L21.0 48.9 23.35 49.6 25.75 50.15 27.5 50.45 M16.85 36.85 L17.25 36.05 M9.05 29.85 L7.15 31.65 7.0 31.85 M12.75 45.3 L13.25 44.5" fill="none" stroke="#411919" stroke-linecap="round" stroke-linejoin="round" stroke-width="1.0"/>
    </g>
    <g id="shape2" transform="matrix(1.0, 0.0, 0.0, 1.0, 0.0, 0.0)">
      <path d="M50.5 0.0 Q53.95 0.0 53.95 3.3 L53.95 50.15 Q53.95 53.4 50.5 53.4 L3.3 53.4 Q0.0 53.4 0.0 50.15 L0.0 3.3 Q0.0 0.0 3.3 0.0 L50.5 0.0" fill="#000000" fill-opacity="0.003921569" fill-rule="evenodd" stroke="none"/>
    </g>
  </defs>
</svg>
