<?xml version="1.0" encoding="UTF-8" standalone="no"?>
<svg xmlns:ffdec="https://www.free-decompiler.com/flash" xmlns:xlink="http://www.w3.org/1999/xlink" ffdec:objectType="frame" height="54.95px" width="55.45px" xmlns="http://www.w3.org/2000/svg">
  <g transform="matrix(1.0, 0.0, 0.0, 1.0, 0.45, 0.8)">
    <clipPath id="clipPath0" transform="matrix(1.0, 0.0, 0.0, 1.0, 0.0, 0.0)">
      <path d="M50.5 0.0 Q53.95 0.0 53.95 3.3 L53.95 50.15 Q53.95 53.4 50.5 53.4 L3.3 53.4 Q0.0 53.4 0.0 50.15 L0.0 3.3 Q0.0 0.0 3.3 0.0 L50.5 0.0" fill="#000000" fill-rule="evenodd" stroke="none"/>
    </clipPath>
    <g clip-path="url(#clipPath0)">
      <use ffdec:characterId="2" height="54.95" transform="matrix(1.0, 0.0, 0.0, 1.0, -0.45, -0.8)" width="55.45" xlink:href="#shape1"/>
    </g>
    <use ffdec:characterId="3" height="53.4" transform="matrix(1.0, 0.0, 0.0, 1.0, 0.0, 0.0)" width="53.95" xlink:href="#shape2"/>
  </g>
  <defs>
    <g id="shape1" transform="matrix(1.0, 0.0, 0.0, 1.0, 0.45, 0.8)">
      <path d="M45.8 11.15 L45.55 10.2 Q44.15 5.5 42.4 3.4 L40.1 3.9 Q38.05 3.9 36.7 2.1 35.85 0.95 35.6 -0.3 L41.3 -0.3 43.75 2.15 43.9 2.4 Q45.65 5.25 46.8 11.95 L45.8 11.15 M0.05 11.6 L0.05 8.95 Q1.7 10.4 3.0 12.05 L3.85 13.25 4.5 14.15 5.45 15.85 4.9 16.2 3.95 15.35 3.2 14.6 2.1 13.55 0.05 11.6" fill="#fcf3d2" fill-rule="evenodd" stroke="none"/>
      <path d="M28.45 -0.3 L35.6 -0.3 Q35.85 0.95 36.7 2.1 38.05 3.9 40.1 3.9 L42.4 3.4 Q44.15 5.5 45.55 10.2 L45.8 11.15 Q38.5 5.75 26.65 2.35 L25.3 2.05 28.45 -0.3 M48.6 43.5 L51.9 45.55 54.5 46.9 54.5 47.25 54.4 47.35 53.2 48.65 52.55 48.25 47.8 44.95 48.6 43.5 M50.15 53.65 L48.9 53.65 Q48.55 51.45 47.4 49.1 L47.35 48.95 46.6 47.6 46.15 46.9 46.6 46.5 47.8 44.95 52.55 48.25 53.2 48.65 Q51.85 50.25 50.85 52.1 L50.15 53.65 M18.0 53.65 L10.4 53.65 10.85 52.2 10.3 52.15 11.5 50.4 Q10.7 49.1 10.2 47.45 L10.05 46.85 10.2 47.45 Q10.7 49.1 11.5 50.4 L11.6 50.55 12.8 52.05 11.6 50.55 11.5 50.4 10.3 52.15 9.65 52.05 6.6 52.05 5.9 53.65 5.25 53.65 6.85 50.3 Q8.4 46.95 10.05 46.85 L9.7 45.35 9.65 44.55 9.65 44.05 9.65 43.5 9.65 43.25 9.65 43.1 Q9.9 40.25 11.25 37.35 13.0 33.7 16.25 30.8 L17.5 29.7 Q24.45 24.2 34.35 24.2 39.3 24.2 43.25 26.9 L43.4 27.0 Q47.7 30.05 47.7 34.4 L47.7 35.5 47.55 35.4 47.25 35.2 Q45.45 33.9 42.15 33.65 L39.45 33.55 32.5 34.55 Q26.4 35.75 23.0 37.7 L22.85 37.75 22.75 37.85 21.95 36.7 Q20.55 35.2 18.0 35.2 16.05 35.2 14.4 36.6 12.8 38.0 12.8 39.8 12.8 41.6 14.2 42.8 15.75 44.1 18.45 44.1 L18.5 44.1 Q18.5 45.55 19.1 46.8 L20.05 48.4 22.5 50.2 Q20.45 51.05 18.9 52.6 L18.0 53.65 M0.05 25.45 L0.05 19.15 0.95 19.75 2.15 20.3 3.05 20.4 Q5.35 20.4 6.45 18.45 L6.5 18.55 6.7 20.8 Q6.7 22.8 5.4 24.3 3.95 25.95 1.7 25.95 L0.65 25.7 0.05 25.45 M37.35 33.05 L36.7 32.55 37.25 31.0 36.7 32.55 37.35 33.05 M35.65 30.6 Q38.7 29.4 38.7 27.65 38.7 26.45 37.4 25.85 L35.7 25.35 33.6 25.15 29.7 25.35 29.15 25.5 Q27.9 25.85 26.75 26.5 24.15 27.85 24.15 29.2 24.15 31.7 29.5 31.7 32.85 31.7 35.65 30.6 M29.0 34.15 L29.9 33.3 29.25 32.25 29.9 33.3 29.0 34.15 M28.55 34.1 L19.0 31.5 28.55 34.1 M11.6 50.55 L10.85 52.2 11.6 50.55 M46.6 47.6 L49.7 50.85 50.85 52.1 49.7 50.85 46.6 47.6 M37.95 32.8 L43.7 28.75 37.95 32.8" fill="#fcd6a4" fill-rule="evenodd" stroke="none"/>
      <path d="M25.3 2.05 L26.65 2.35 Q38.5 5.75 45.8 11.15 L46.8 11.95 50.35 15.15 Q52.7 17.6 54.3 20.45 L54.3 20.5 54.5 21.0 54.5 24.95 Q53.4 23.6 51.75 22.65 49.0 21.05 44.85 20.3 43.8 18.15 42.0 15.8 39.4 12.55 35.7 9.9 L34.2 8.85 Q30.3 6.3 24.4 3.75 L23.9 3.55 18.6 1.5 19.1 1.5 24.55 1.9 25.3 2.05 M10.65 4.15 L10.65 4.1 Q11.75 3.45 12.8 2.95 14.2 2.3 15.75 1.9 L18.05 1.55 Q17.05 3.85 16.25 7.1 15.15 11.9 15.15 16.6 15.15 21.05 15.8 24.45 L14.25 25.2 Q11.45 26.2 9.05 23.15 6.7 20.1 7.1 15.05 7.55 10.0 8.25 7.3 L10.65 4.15" fill="#ecad5e" fill-rule="evenodd" stroke="none"/>
      <path d="M49.15 37.75 L49.45 39.35 Q49.1 40.75 48.25 41.9 L47.6 42.7 Q46.75 43.55 46.15 43.6 45.3 43.65 43.75 42.6 42.15 41.6 39.6 41.05 37.05 40.5 33.0 42.1 L27.3 44.35 27.3 44.6 26.4 44.75 Q23.25 44.75 22.0 43.05 21.25 42.0 21.25 40.3 L21.35 38.8 22.75 37.85 22.85 37.75 Q23.1 38.9 24.35 38.9 L30.75 37.3 Q36.25 35.7 39.6 35.45 41.9 35.3 43.9 35.9 L43.8 36.6 Q43.8 38.1 45.3 38.1 46.4 38.1 46.4 36.9 L47.5 37.4 48.7 38.1 49.15 37.75 M9.45 53.65 L5.9 53.65 6.6 52.05 9.65 52.05 9.4 53.3 9.45 53.65 M3.0 12.05 Q4.55 9.7 6.4 7.55 L7.7 6.3 6.55 8.35 3.85 13.25 3.0 12.05 M8.85 5.35 Q9.7 4.7 10.65 4.15 L8.25 7.3 8.55 6.25 8.85 5.35 M18.05 1.55 L18.6 1.5 23.9 3.55 24.4 3.75 Q30.3 6.3 34.2 8.85 L35.7 9.9 Q39.4 12.55 42.0 15.8 43.8 18.15 44.85 20.3 L37.15 19.75 Q31.0 19.75 24.75 21.3 19.95 22.5 15.8 24.45 15.15 21.05 15.15 16.6 15.15 11.9 16.25 7.1 17.05 3.85 18.05 1.55 M41.7 17.4 L41.7 16.85 41.35 16.2 41.15 16.05 Q40.55 15.6 39.8 15.6 L39.1 15.8 Q38.5 16.15 38.5 17.0 L39.1 18.0 Q39.75 18.8 40.4 18.8 41.25 18.8 41.55 18.4 L41.7 17.4 M35.45 12.25 Q37.9 13.9 38.3 14.95 39.0 14.95 39.3 14.15 37.7 12.05 35.15 10.4 L33.45 9.45 33.3 9.35 32.65 9.35 Q32.35 9.7 32.25 10.2 L35.45 12.25" fill="#7a6671" fill-rule="evenodd" stroke="none"/>
      <path d="M41.7 17.4 L41.55 18.4 Q41.25 18.8 40.4 18.8 39.75 18.8 39.1 18.0 L38.5 17.0 Q38.5 16.15 39.1 15.8 L39.8 15.6 Q40.55 15.6 41.15 16.05 L41.35 16.2 41.7 16.85 41.7 17.4 M43.9 35.9 Q44.05 35.55 44.4 35.5 L45.2 35.5 45.55 35.55 46.0 35.85 Q46.4 36.2 46.4 36.9 46.4 38.1 45.3 38.1 43.8 38.1 43.8 36.6 L43.9 35.9 M35.45 12.25 L32.25 10.2 Q32.35 9.7 32.65 9.35 L33.3 9.35 33.45 9.45 35.15 10.4 Q37.7 12.05 39.3 14.15 39.0 14.95 38.3 14.95 37.9 13.9 35.45 12.25" fill="#d9bacb" fill-rule="evenodd" stroke="none"/>
      <path d="M54.5 24.95 L54.5 27.3 53.45 29.9 Q52.35 31.8 50.35 33.6 L50.15 33.8 47.8 35.6 47.7 35.5 47.7 34.4 Q47.7 30.05 43.4 27.0 L43.25 26.9 Q45.1 22.5 44.85 20.3 49.0 21.05 51.75 22.65 53.4 23.6 54.5 24.95 M0.05 36.15 L0.05 29.15 0.65 25.7 1.7 25.95 Q3.95 25.95 5.4 24.3 6.7 22.8 6.7 20.8 L6.5 18.55 6.45 18.45 6.15 17.35 6.0 17.05 5.45 15.85 4.5 14.15 Q6.2 10.4 8.25 7.3 7.55 10.0 7.1 15.05 6.7 20.1 9.05 23.15 11.45 26.2 14.25 25.2 L15.8 24.45 16.05 25.65 Q16.45 27.25 17.0 28.65 L17.5 29.7 16.25 30.8 Q13.0 33.7 11.25 37.35 9.9 40.25 9.65 43.1 L9.65 43.25 Q3.35 41.75 0.7 38.95 L0.3 37.5 0.05 36.15" fill="#d48a2d" fill-rule="evenodd" stroke="none"/>
      <path d="M47.8 35.6 Q48.8 36.5 49.15 37.75 L48.7 38.1 47.5 37.4 46.4 36.9 Q46.4 36.2 46.0 35.85 L45.55 35.55 45.2 35.5 44.4 35.5 Q44.05 35.55 43.9 35.9 41.9 35.3 39.6 35.45 36.25 35.7 30.75 37.3 L24.35 38.9 Q23.1 38.9 22.85 37.75 L23.0 37.7 Q26.4 35.75 32.5 34.55 L39.45 33.55 42.15 33.65 Q45.45 33.9 47.25 35.2 L47.55 35.4 47.7 35.5 47.8 35.6" fill="#b699a9" fill-rule="evenodd" stroke="none"/>
      <path d="M49.45 39.35 L49.45 39.55 Q49.45 41.6 48.6 43.5 L47.8 44.95 46.6 46.5 46.15 46.9 46.1 46.95 45.55 47.45 44.1 48.55 43.95 48.7 43.2 49.15 43.1 49.25 42.1 49.8 41.55 50.1 38.9 51.15 38.8 51.15 38.7 51.2 38.55 51.25 38.35 51.3 38.2 51.35 38.05 51.4 38.0 51.4 37.85 51.45 37.8 51.45 37.7 51.5 37.35 51.6 37.25 51.6 37.15 51.65 37.05 51.65 36.95 51.65 35.95 51.85 Q31.2 52.7 27.5 52.05 L26.5 51.85 25.4 51.55 25.3 51.5 22.5 50.2 20.05 48.4 19.1 46.8 Q18.5 45.55 18.5 44.1 L18.55 43.05 Q18.85 40.7 21.35 38.8 L21.25 40.3 Q21.25 42.0 22.0 43.05 23.25 44.75 26.4 44.75 L27.3 44.6 27.3 44.35 33.0 42.1 Q37.05 40.5 39.6 41.05 42.15 41.6 43.75 42.6 45.3 43.65 46.15 43.6 46.75 43.55 47.6 42.7 L48.25 41.9 Q49.1 40.75 49.45 39.35 M54.5 47.25 L54.5 47.5 54.4 47.35 54.5 47.25 M9.7 45.35 L9.0 45.35 1.4 44.55 0.05 44.15 0.05 36.15 0.3 37.5 0.7 38.95 Q3.35 41.75 9.65 43.25 L9.65 43.5 9.65 44.05 9.65 44.55 9.7 45.35 M0.05 29.15 L0.05 25.45 0.65 25.7 0.05 29.15 M7.7 6.3 L8.85 5.35 8.55 6.25 8.25 7.3 Q6.2 10.4 4.5 14.15 L3.85 13.25 6.55 8.35 7.7 6.3 M44.85 20.3 Q45.1 22.5 43.25 26.9 39.3 24.2 34.35 24.2 24.45 24.2 17.5 29.7 L17.0 28.65 Q16.45 27.25 16.05 25.65 L15.8 24.45 Q19.95 22.5 24.75 21.3 31.0 19.75 37.15 19.75 L44.85 20.3 M31.1 46.45 L31.95 46.8 34.2 47.15 Q36.7 47.15 39.05 46.1 41.4 45.05 41.4 43.9 41.45 42.75 39.7 42.4 L39.1 42.35 38.4 42.4 38.75 42.6 Q39.55 43.2 39.55 43.65 39.55 44.6 37.15 45.6 34.7 46.55 32.1 46.55 L31.1 46.45 Q30.65 46.1 30.65 45.65 30.65 44.0 33.35 43.1 L38.4 42.4 33.35 43.1 Q30.65 44.0 30.65 45.65 30.65 46.1 31.1 46.45 M0.95 53.65 L1.7 53.3 Q1.9 53.2 2.5 53.65 L1.8 53.65 0.95 53.65 M1.8 53.65 L1.7 53.3 1.8 53.65" fill="#52454c" fill-rule="evenodd" stroke="none"/>
      <path d="M39.2 53.65 L37.3 53.65 25.5 53.65 18.0 53.65 18.9 52.6 Q20.45 51.05 22.5 50.2 L25.3 51.5 25.4 51.55 26.5 51.85 27.5 52.05 Q31.2 52.7 35.95 51.85 L36.95 51.65 37.05 51.65 37.15 51.65 37.25 51.6 37.35 51.6 37.7 51.5 37.8 51.45 37.85 51.45 38.0 51.4 38.05 51.4 38.2 51.35 38.35 51.3 38.55 51.25 38.7 51.2 38.8 51.15 38.9 51.15 41.55 50.1 42.1 49.8 43.1 49.25 43.2 49.15 43.95 48.7 44.1 48.55 45.55 47.45 46.1 46.95 46.15 46.9 46.6 47.6 47.35 48.95 45.55 50.75 45.25 50.95 44.9 50.1 44.7 49.65 44.1 48.55 44.7 49.65 44.9 50.1 45.25 50.95 43.2 52.3 40.9 53.2 39.2 53.65 M26.5 51.85 L25.5 53.65 26.5 51.85 M36.95 51.65 L37.05 52.0 37.3 53.65 37.05 52.0 36.95 51.65" fill="#ddd7b6" fill-rule="evenodd" stroke="none"/>
      <path d="M48.9 53.65 L46.15 53.65 39.2 53.65 40.9 53.2 43.2 52.3 45.25 50.95 45.55 50.75 47.35 48.95 47.4 49.1 Q48.55 51.45 48.9 53.65 M46.15 53.65 L45.25 50.95 46.15 53.65" fill="#f2eccc" fill-rule="evenodd" stroke="none"/>
      <path d="M54.5 47.5 L54.5 53.65 50.15 53.65 50.85 52.1 Q51.85 50.25 53.2 48.65 L54.4 47.35 54.5 47.5 M10.4 53.65 L9.45 53.65 9.4 53.3 9.65 52.05 10.3 52.15 10.85 52.2 10.4 53.65" fill="#b48345" fill-rule="evenodd" stroke="none"/>
      <path d="M0.05 19.15 L0.05 11.6 2.1 13.55 3.2 14.6 3.95 15.35 4.9 16.2 5.45 15.85 6.0 17.05 6.15 17.35 6.45 18.45 Q5.35 20.4 3.05 20.4 L2.15 20.3 0.95 19.75 0.05 19.15" fill="#fce3b3" fill-rule="evenodd" stroke="none"/>
      <path d="M22.75 37.85 L21.35 38.8 Q18.85 40.7 18.55 43.05 L18.5 44.1 18.45 44.1 Q15.75 44.1 14.2 42.8 12.8 41.6 12.8 39.8 12.8 38.0 14.4 36.6 16.05 35.2 18.0 35.2 20.55 35.2 21.95 36.7 L22.75 37.85" fill="#f77683" fill-rule="evenodd" stroke="none"/>
      <path d="M35.65 30.6 Q32.85 31.7 29.5 31.7 24.15 31.7 24.15 29.2 24.15 27.85 26.75 26.5 27.9 25.85 29.15 25.5 L29.7 25.35 33.6 25.15 35.7 25.35 37.4 25.85 Q38.7 26.45 38.7 27.65 38.7 29.4 35.65 30.6" fill="#fceeca" fill-rule="evenodd" stroke="none"/>
      <path d="M38.4 42.4 L39.1 42.35 39.7 42.4 Q41.45 42.75 41.4 43.9 41.4 45.05 39.05 46.1 36.7 47.15 34.2 47.15 L31.95 46.8 31.1 46.45 32.1 46.55 Q34.7 46.55 37.15 45.6 39.55 44.6 39.55 43.65 39.55 43.2 38.75 42.6 L38.4 42.4" fill="#412b37" fill-rule="evenodd" stroke="none"/>
      <path d="M28.45 -0.3 L25.3 2.05 26.65 2.35 Q38.5 5.75 45.8 11.15 L46.8 11.95 50.35 15.15 Q52.7 17.6 54.3 20.45 L54.3 20.5 54.5 21.0 M41.3 -0.3 L43.75 2.15 43.9 2.4 Q45.65 5.25 46.8 11.95 M54.5 27.3 L53.45 29.9 Q52.35 31.8 50.35 33.6 L50.15 33.8 47.8 35.6 Q48.8 36.5 49.15 37.75 L49.45 39.35 49.45 39.55 Q49.45 41.6 48.6 43.5 L51.9 45.55 54.5 46.9 M5.25 53.65 L6.85 50.3 Q8.4 46.95 10.05 46.85 L9.7 45.35 9.0 45.35 1.4 44.55 0.05 44.15 M0.05 8.95 Q1.7 10.4 3.0 12.05 4.55 9.7 6.4 7.55 L7.7 6.3 8.85 5.35 Q9.7 4.7 10.65 4.15 L10.65 4.1 Q11.75 3.45 12.8 2.95 14.2 2.3 15.75 1.9 L18.05 1.55 18.6 1.5 19.1 1.5 24.55 1.9 25.3 2.05 M43.25 26.9 L43.4 27.0 Q47.7 30.05 47.7 34.4 L47.7 35.5 47.8 35.6 M22.85 37.75 L22.75 37.85 21.35 38.8 Q18.85 40.7 18.55 43.05 L18.5 44.1 Q18.5 45.55 19.1 46.8 L20.05 48.4 22.5 50.2 25.3 51.5 25.4 51.55 26.5 51.85 27.5 52.05 Q31.2 52.7 35.95 51.85 L36.95 51.65 37.05 51.65 37.15 51.65 37.25 51.6 37.35 51.6 37.7 51.5 37.8 51.45 37.85 51.45 38.0 51.4 38.05 51.4 38.2 51.35 38.35 51.3 38.55 51.25 38.7 51.2 38.8 51.15 38.9 51.15 41.55 50.1 42.1 49.8 43.1 49.25 43.2 49.15 43.95 48.7 44.1 48.55 45.55 47.45 46.1 46.95 46.15 46.9 46.6 46.5 47.8 44.95 48.6 43.5 M22.85 37.75 L23.0 37.7 Q26.4 35.75 32.5 34.55 L39.45 33.55 42.15 33.65 Q45.45 33.9 47.25 35.2 L47.55 35.4 47.7 35.5 M47.35 48.95 L46.6 47.6 46.15 46.9 M48.9 53.65 Q48.55 51.45 47.4 49.1 L47.35 48.95 M53.2 48.65 L52.55 48.25 47.8 44.95 M54.4 47.35 L54.5 47.25 M53.2 48.65 L54.4 47.35 M17.5 29.7 Q24.45 24.2 34.35 24.2 39.3 24.2 43.25 26.9 M5.45 15.85 L6.0 17.05 6.15 17.35 6.45 18.45 6.5 18.55 6.7 20.8 Q6.7 22.8 5.4 24.3 3.95 25.95 1.7 25.95 L0.65 25.7 0.05 25.45 M5.45 15.85 L4.5 14.15 3.85 13.25 3.0 12.05 M17.5 29.7 L16.25 30.8 Q13.0 33.7 11.25 37.35 9.9 40.25 9.65 43.1 L9.65 43.25 9.65 43.5 9.65 44.05 9.65 44.55 9.7 45.35 M10.05 46.85 L10.2 47.45 Q10.7 49.1 11.5 50.4 L11.6 50.55 12.8 52.05 M37.25 31.0 L36.7 32.55 37.35 33.05 M29.25 32.25 L29.9 33.3 29.0 34.15 M31.1 46.45 L31.95 46.8 34.2 47.15 Q36.7 47.15 39.05 46.1 41.4 45.05 41.4 43.9 41.45 42.75 39.7 42.4 L39.1 42.35 38.4 42.4 33.35 43.1 Q30.65 44.0 30.65 45.65 30.65 46.1 31.1 46.45 M19.0 31.5 L28.55 34.1 M10.3 52.15 L10.85 52.2 11.6 50.55 M11.5 50.4 L10.3 52.15 9.65 52.05 6.6 52.05 5.9 53.65 M10.85 52.2 L10.4 53.65 M0.95 53.65 L1.7 53.3 Q1.9 53.2 2.5 53.65 M1.7 53.3 L1.8 53.65 M50.85 52.1 L49.7 50.85 46.6 47.6 M50.15 53.65 L50.85 52.1 Q51.85 50.25 53.2 48.65 M43.7 28.75 L37.95 32.8" fill="none" stroke="#2b0f03" stroke-linecap="round" stroke-linejoin="round" stroke-width="1.0"/>
      <path d="M45.25 50.95 L46.15 53.65 M22.5 50.2 Q20.45 51.05 18.9 52.6 L18.0 53.65 M37.3 53.65 L37.05 52.0 36.95 51.65 M25.5 53.65 L26.5 51.85 M45.25 50.95 L44.9 50.1 44.7 49.65 44.1 48.55" fill="none" stroke="#87571a" stroke-linecap="round" stroke-linejoin="round" stroke-width="1.0"/>
    </g>
    <g id="shape2" transform="matrix(1.0, 0.0, 0.0, 1.0, 0.0, 0.0)">
      <path d="M50.5 0.0 Q53.95 0.0 53.95 3.3 L53.95 50.15 Q53.95 53.4 50.5 53.4 L3.3 53.4 Q0.0 53.4 0.0 50.15 L0.0 3.3 Q0.0 0.0 3.3 0.0 L50.5 0.0" fill="#000000" fill-opacity="0.003921569" fill-rule="evenodd" stroke="none"/>
    </g>
  </defs>
</svg>
