<?xml version="1.0" encoding="UTF-8" standalone="no"?>
<svg xmlns:ffdec="https://www.free-decompiler.com/flash" xmlns:xlink="http://www.w3.org/1999/xlink" ffdec:objectType="frame" height="71.1px" width="62.5px" xmlns="http://www.w3.org/2000/svg">
  <g transform="matrix(1.0, 0.0, 0.0, 1.0, 4.25, 5.25)">
    <clipPath id="clipPath0" transform="matrix(1.0, 0.0, 0.0, 1.0, 0.0, 0.0)">
      <path d="M50.5 0.0 Q53.95 0.0 53.95 3.3 L53.95 50.15 Q53.95 53.4 50.5 53.4 L3.3 53.4 Q0.0 53.4 0.0 50.15 L0.0 3.3 Q0.0 0.0 3.3 0.0 L50.5 0.0" fill="#000000" fill-rule="evenodd" stroke="none"/>
    </clipPath>
    <g clip-path="url(#clipPath0)">
      <use ffdec:characterId="2" height="71.1" transform="matrix(1.0, 0.0, 0.0, 1.0, -4.25, -5.25)" width="62.5" xlink:href="#shape1"/>
    </g>
    <use ffdec:characterId="3" height="53.4" transform="matrix(1.0, 0.0, 0.0, 1.0, 0.0, 0.0)" width="53.95" xlink:href="#shape2"/>
  </g>
  <defs>
    <g id="shape1" transform="matrix(1.0, 0.0, 0.0, 1.0, 0.5, 0.5)">
      <path d="M13.7 0.0 L21.2 0.0 19.9 0.65 Q21.75 1.3 24.45 3.15 L26.05 5.4 Q27.7 8.25 29.1 10.3 L26.95 6.35 27.75 5.6 Q31.3 2.1 34.5 0.0 L35.15 0.0 33.9 2.6 33.7 3.1 32.6 5.3 33.7 7.45 34.1 8.25 34.55 9.2 34.85 9.8 35.85 11.65 35.9 11.75 37.0 13.7 37.55 14.7 37.65 14.8 38.95 16.85 39.45 17.15 40.4 17.6 41.75 18.35 41.9 18.45 42.35 18.65 42.5 18.7 42.9 18.85 43.4 19.15 43.45 19.15 43.7 19.1 43.9 18.95 43.9 19.0 44.45 24.45 44.5 25.1 44.7 25.25 45.05 25.3 45.9 24.45 47.3 22.75 45.9 25.65 45.45 26.45 45.3 26.8 45.15 27.1 43.3 29.95 42.95 30.3 42.05 31.05 42.0 31.05 41.85 31.15 41.75 31.3 41.2 31.3 40.05 26.0 Q39.4 22.8 38.65 21.45 38.15 20.6 36.05 19.4 L35.1 18.85 34.4 18.45 Q31.9 17.15 31.35 16.35 30.2 14.65 28.9 11.85 L28.6 11.1 26.9 7.55 Q24.7 3.7 20.65 3.25 L19.45 3.15 17.3 3.35 16.65 3.5 Q14.95 3.95 13.3 4.95 L11.3 6.2 10.65 6.6 7.95 8.85 7.3 9.5 6.05 8.4 Q8.3 3.4 13.7 0.0 M29.7 7.15 L29.4 8.75 32.0 13.45 32.1 13.6 34.45 14.75 34.1 12.15 33.65 11.35 31.6 7.95 31.4 7.85 29.7 7.15 M40.05 19.2 L36.45 18.1 35.7 17.8 37.3 18.95 39.0 20.15 41.45 22.2 Q42.2 23.15 42.55 24.25 L42.85 20.95 42.85 19.75 42.85 19.6 42.55 19.8 42.35 19.75 40.05 19.2" fill="#1c6da6" fill-rule="evenodd" stroke="none"/>
      <path d="M47.3 22.75 L45.9 24.45 45.05 25.3 44.7 25.25 44.5 25.1 44.45 24.45 43.9 19.0 43.9 18.95 44.15 18.85 44.35 18.8 45.05 22.55 45.2 22.55 Q45.7 21.6 47.7 18.8 48.35 17.85 48.5 16.1 L49.55 14.6 49.75 15.5 49.95 18.35 48.05 21.6 47.3 22.75 M34.5 0.0 Q31.3 2.1 27.75 5.6 L26.95 6.35 29.1 10.3 Q27.7 8.25 26.05 5.4 L24.45 3.15 Q21.75 1.3 19.9 0.65 L21.2 0.0 34.5 0.0 M42.35 19.75 L42.55 19.8 42.85 19.6 42.85 19.75 42.85 20.95 42.55 24.25 Q42.2 23.15 41.45 22.2 L39.0 20.15 37.3 18.95 35.7 17.8 36.45 18.1 40.05 19.2 41.75 21.8 42.15 20.35 42.25 20.05 42.35 19.75" fill="#9ce6ff" fill-rule="evenodd" stroke="none"/>
      <path d="M7.3 9.5 L7.95 8.85 10.65 6.6 11.3 6.2 13.3 4.95 Q14.95 3.95 16.65 3.5 L17.3 3.35 19.45 3.15 20.65 3.25 Q24.7 3.7 26.9 7.55 L28.6 11.1 28.9 11.85 Q30.2 14.65 31.35 16.35 31.9 17.15 34.4 18.45 L35.1 18.85 36.05 19.4 Q38.15 20.6 38.65 21.45 39.4 22.8 40.05 26.0 L41.2 31.3 41.75 31.3 40.95 31.4 39.25 31.3 39.2 31.1 39.75 29.35 Q39.75 26.05 37.0 23.5 L36.5 23.05 32.25 19.95 31.1 18.8 Q28.25 15.5 26.75 12.4 L26.5 11.95 26.35 10.9 Q25.9 7.85 24.85 6.5 24.4 5.85 23.75 5.45 22.3 4.45 19.8 4.45 15.6 4.45 12.45 8.75 L12.15 9.0 9.35 11.45 7.3 9.5" fill="#767fbd" fill-rule="evenodd" stroke="none"/>
      <path d="M45.15 27.1 L45.3 26.8 46.75 27.5 Q49.05 28.55 49.55 28.95 L49.2 32.75 49.15 32.95 Q48.45 36.8 46.75 42.35 L46.0 44.7 44.55 48.9 46.45 44.4 47.6 41.5 49.25 37.05 49.9 34.9 50.2 33.8 50.2 33.7 50.6 32.45 Q51.15 29.95 50.75 28.55 50.35 27.15 48.55 25.85 L52.65 25.4 52.6 25.25 53.65 24.95 54.1 24.8 54.9 24.55 55.1 24.5 55.55 24.35 59.3 23.15 60.2 22.85 61.5 22.5 61.5 24.3 59.85 25.2 59.3 25.45 61.5 25.95 61.5 27.65 57.55 27.15 57.0 27.1 56.35 27.0 56.3 27.0 55.4 26.9 55.3 26.85 55.0 26.85 54.2 26.75 52.35 30.6 53.1 27.85 53.15 27.8 53.9 26.75 54.15 26.5 54.7 26.1 55.05 25.85 54.7 25.95 54.6 26.0 54.05 26.05 52.9 26.2 50.85 26.05 Q50.75 26.2 50.8 26.45 L50.8 26.75 Q51.3 27.05 51.65 28.25 L51.7 28.4 51.7 28.55 51.85 30.05 Q49.9 35.4 48.1 40.9 L47.2 43.8 45.9 47.95 45.9 48.15 48.25 43.1 49.85 39.05 51.7 33.1 51.85 34.15 51.4 34.85 51.85 35.25 52.15 35.5 54.15 37.3 58.1 41.05 61.5 44.75 61.5 51.65 60.9 51.3 Q59.8 50.6 57.7 49.45 53.95 47.25 51.3 45.9 50.25 46.25 48.45 47.15 L46.35 48.25 44.45 54.8 44.45 55.05 44.75 58.65 45.0 60.55 45.25 62.35 46.1 66.95 46.15 67.25 46.95 70.1 45.8 70.1 44.7 66.55 44.8 69.9 44.75 70.1 44.1 70.1 44.3 69.75 44.25 68.7 Q43.8 66.1 43.5 63.05 L43.4 61.95 43.25 59.8 43.25 59.1 43.1 56.4 43.05 55.55 43.0 55.45 Q42.55 54.45 42.05 54.15 L41.35 54.0 39.6 54.05 37.9 54.15 36.65 54.3 37.7 54.0 41.9 52.6 42.15 52.45 44.65 46.25 45.1 45.35 45.5 44.65 45.35 44.1 45.45 43.75 Q46.7 39.6 47.0 36.6 L47.0 36.45 Q46.6 35.05 45.4 33.3 L45.5 31.1 Q45.5 29.0 45.15 27.1 M43.9 18.95 L43.7 19.1 43.45 19.15 43.4 19.15 42.9 18.85 42.5 18.7 42.35 18.65 41.9 18.45 41.75 18.35 40.4 17.6 39.45 17.15 38.95 16.85 37.65 14.8 37.55 14.7 37.0 13.7 35.9 11.75 35.85 11.65 34.85 9.8 34.55 9.2 34.1 8.25 33.7 7.45 32.6 5.3 33.7 3.1 33.9 2.6 35.15 0.0 37.4 0.0 37.4 0.05 37.0 0.3 35.8 3.55 35.75 3.65 35.2 5.15 35.55 5.9 40.25 2.1 39.6 3.1 37.95 5.5 37.3 6.75 37.3 6.85 38.2 10.75 40.25 9.85 42.3 8.95 42.85 8.7 43.65 7.75 44.35 6.9 46.15 4.6 49.8 1.1 49.6 1.35 44.45 7.05 43.75 7.9 43.15 8.5 42.4 9.35 39.35 12.7 39.3 12.75 39.45 13.55 39.55 14.3 40.5 15.2 41.65 16.2 42.3 15.95 42.75 15.75 43.2 15.55 43.5 15.4 44.15 15.1 45.75 14.5 46.6 12.7 46.65 12.65 47.0 12.15 47.35 11.65 48.0 10.75 49.25 8.95 52.1 4.55 53.1 3.05 55.15 0.0 55.9 0.0 53.8 2.8 53.75 2.85 53.75 2.9 51.9 5.3 50.1 8.85 48.65 11.95 48.2 12.8 47.65 13.75 48.25 13.6 48.35 13.5 48.95 12.75 53.3 7.3 54.05 6.2 56.85 2.85 57.25 2.75 57.25 2.95 Q56.55 3.7 56.2 5.25 L55.5 6.05 54.0 8.2 51.95 11.05 51.35 12.0 49.95 14.05 50.4 13.85 51.2 13.55 55.45 12.25 56.05 12.1 58.7 11.3 60.35 10.85 60.5 10.85 61.5 10.6 61.5 12.05 58.3 11.9 58.05 11.9 55.2 13.15 52.75 14.15 Q51.2 14.85 49.75 15.5 L49.55 14.6 48.5 16.1 48.4 16.2 48.25 16.35 46.85 17.25 45.7 18.0 45.0 18.4 44.35 18.8 44.15 18.85 43.9 18.95 M43.1 0.0 L41.2 1.35 42.85 0.0 43.1 0.0 M61.5 51.9 L61.5 56.75 57.65 64.2 56.95 65.45 57.5 65.2 57.8 65.2 57.85 65.25 61.3 69.45 61.5 69.7 61.5 70.1 60.15 70.1 58.1 67.95 56.45 66.3 55.8 67.4 55.45 67.95 55.2 68.5 54.2 70.1 52.7 70.1 53.65 69.45 55.1 66.8 56.5 63.9 56.85 63.15 59.9 56.5 60.9 54.1 61.0 52.9 61.5 51.9 M37.3 70.1 L35.0 70.1 33.55 67.05 33.4 66.7 33.1 65.95 32.75 65.05 32.35 64.1 31.05 61.05 31.1 60.75 30.6 56.4 32.3 55.85 33.15 58.35 33.95 60.8 34.25 61.7 34.35 62.05 34.35 61.85 35.4 64.6 35.55 65.05 35.9 66.15 36.15 66.85 36.75 68.45 37.3 70.1 M10.15 70.1 L6.85 70.1 7.3 68.85 7.55 68.3 7.6 68.15 9.3 63.35 9.35 63.55 9.7 62.55 10.65 59.55 10.75 59.4 10.8 59.0 Q10.85 58.05 10.5 57.25 L7.75 54.55 7.75 54.5 5.4 52.3 3.6 51.45 Q2.4 50.95 1.75 50.8 L1.0 50.7 Q0.4 50.75 0.0 51.65 L0.0 41.5 2.05 44.45 Q4.5 47.9 6.5 49.55 8.55 51.2 10.15 51.1 L10.7 51.0 Q11.7 50.7 12.4 49.95 L13.55 48.0 13.5 47.3 13.9 45.2 Q13.45 41.6 12.5 37.6 L11.85 34.75 11.15 32.25 10.65 30.7 10.25 29.4 9.5 27.85 8.0 24.85 6.75 22.65 5.9 21.5 5.15 21.0 4.5 20.7 3.3 20.4 3.1 20.35 3.05 20.35 2.7 20.3 1.1 19.95 0.0 20.65 0.0 15.45 Q2.25 16.15 4.55 17.35 L6.2 18.35 6.55 18.55 8.4 19.8 9.6 20.7 11.6 22.3 11.5 21.7 9.75 20.4 8.85 19.7 8.6 19.5 6.35 17.75 4.65 16.0 4.55 15.9 4.2 15.45 3.3 13.95 Q3.7 13.9 4.7 13.1 L5.0 12.85 5.25 12.65 6.05 11.95 5.75 11.45 5.45 10.9 5.2 10.65 0.0 5.7 0.0 4.35 0.6 4.95 Q3.55 7.95 5.25 10.45 L5.85 11.3 6.7 12.85 7.3 14.3 7.35 14.55 7.15 14.75 5.7 15.2 6.8 15.85 9.45 17.0 10.3 17.4 11.1 17.9 Q11.75 18.4 12.05 19.1 L12.2 19.6 Q13.0 21.65 13.45 27.05 L14.05 35.95 14.15 38.5 14.3 41.3 14.5 45.3 14.5 45.6 14.25 48.6 14.25 49.3 14.1 50.9 14.1 51.45 14.1 51.55 13.95 53.3 13.85 54.5 13.7 56.4 13.5 56.95 13.45 57.85 12.85 63.35 12.85 63.75 10.95 68.2 10.15 70.1 M49.95 14.05 L49.55 14.6 49.95 14.05 M33.5 55.35 L34.65 54.85 34.9 54.9 33.5 55.35" fill="#6ce1ec" fill-rule="evenodd" stroke="none"/>
      <path d="M45.9 25.65 L47.3 22.75 48.05 21.6 49.95 18.35 49.75 15.5 Q51.2 14.85 52.75 14.15 L56.05 13.8 57.05 13.8 60.1 14.1 Q60.9 14.5 61.1 16.15 L61.15 17.8 61.15 17.85 Q59.85 20.05 55.75 22.85 L55.1 23.4 54.75 23.6 54.5 23.8 54.2 23.95 54.1 23.95 53.8 24.0 53.7 24.0 53.25 24.1 52.2 24.3 47.6 25.2 Q46.75 25.4 46.05 25.7 L45.9 25.65 M46.15 4.6 L44.35 6.9 43.65 7.75 42.85 8.7 42.3 8.95 40.25 9.85 38.2 10.75 37.3 6.85 37.3 6.75 37.95 5.5 39.6 3.1 40.25 2.1 35.55 5.9 35.2 5.15 35.75 3.65 35.8 3.55 37.0 0.3 37.4 0.05 37.4 0.0 42.85 0.0 41.2 1.35 43.1 0.0 49.9 0.0 49.65 0.3 49.6 0.45 49.55 0.5 48.9 1.25 48.3 2.0 46.15 4.6 M56.85 2.85 L54.05 6.2 53.3 7.3 48.95 12.75 48.35 13.5 48.25 13.6 47.65 13.75 48.2 12.8 48.65 11.95 50.1 8.85 51.9 5.3 53.75 2.9 53.75 2.85 53.8 2.8 53.85 2.85 56.25 2.85 56.85 2.85 M61.5 27.65 L61.5 32.25 59.1 28.95 57.55 27.15 61.5 27.65 M61.5 40.5 L61.5 44.75 58.1 41.05 54.15 37.3 52.15 35.5 51.85 35.25 51.4 34.85 51.85 34.15 Q52.35 33.25 52.95 32.9 L53.1 32.8 53.85 32.4 54.95 31.8 56.0 32.0 57.3 32.3 58.5 32.55 59.85 33.3 Q60.75 36.35 61.5 40.5 M61.5 51.65 L61.5 51.9 61.0 52.9 58.8 57.0 56.15 61.95 55.2 63.65 Q54.0 64.0 52.15 64.7 L48.8 66.0 47.3 63.55 46.35 61.9 45.05 59.3 44.75 58.65 44.45 55.05 44.45 54.8 46.35 48.25 48.45 47.15 Q50.25 46.25 51.3 45.9 53.95 47.25 57.7 49.45 59.8 50.6 60.9 51.3 L61.5 51.65 M40.5 70.1 L38.85 70.1 37.0 67.85 36.15 66.85 35.9 66.15 35.55 65.05 35.4 64.6 34.35 61.85 34.35 62.05 34.25 61.7 33.95 60.8 33.15 58.35 32.3 55.85 33.5 55.35 34.9 54.9 34.65 54.85 37.9 53.0 38.15 52.8 Q39.7 51.7 41.05 50.45 L41.2 50.3 Q43.35 48.35 44.65 46.25 L42.15 52.45 41.9 52.6 37.7 54.0 36.65 54.3 37.9 54.15 38.6 54.8 40.25 56.4 41.1 60.15 41.75 63.8 42.25 67.15 40.5 70.1 M6.15 70.1 L3.6 70.1 2.5 66.7 1.3 62.65 2.0 58.6 2.9 54.3 4.7 52.85 5.4 52.3 7.75 54.5 7.75 54.55 10.5 57.25 Q10.85 58.05 10.8 59.0 L10.75 59.4 10.65 59.55 9.7 62.55 9.35 63.55 9.3 63.35 7.6 68.15 7.55 68.3 7.3 68.85 6.15 70.1 M0.0 41.5 L0.0 20.65 1.1 19.95 2.7 20.3 3.05 20.35 3.1 20.35 3.3 20.4 4.5 20.7 5.15 21.0 5.9 21.5 6.75 22.65 8.0 24.85 9.5 27.85 10.25 29.4 10.65 30.7 11.15 32.25 11.85 34.75 12.5 37.6 Q13.45 41.6 13.9 45.2 L13.5 47.3 13.55 48.0 12.4 49.95 Q11.7 50.7 10.7 51.0 L10.15 51.1 Q8.55 51.2 6.5 49.55 4.5 47.9 2.05 44.45 L0.0 41.5 M0.0 13.7 L0.0 6.85 2.75 10.35 Q3.3 11.65 2.85 12.75 2.6 13.4 2.0 13.8 L0.0 13.7 M45.4 33.3 Q46.6 35.05 47.0 36.45 L47.0 36.6 Q46.7 39.6 45.45 43.75 L45.35 44.1 Q44.9 43.1 43.7 41.8 L43.35 41.45 43.55 41.85 43.4 41.9 43.1 42.0 43.0 42.05 42.15 42.35 42.45 42.05 42.55 41.95 42.8 41.7 Q44.25 40.1 44.65 37.6 L44.85 36.4 45.4 33.3 M29.7 7.15 L31.4 7.85 31.6 7.95 33.65 11.35 34.1 12.15 34.45 14.75 32.1 13.6 32.0 13.45 29.4 8.75 29.7 7.15" fill="#4b9dd7" fill-rule="evenodd" stroke="none"/>
      <path d="M46.15 4.6 L48.3 2.0 48.9 1.25 49.55 0.5 49.6 0.45 49.65 0.3 49.9 0.0 50.9 0.0 50.55 0.35 50.25 0.75 49.9 0.95 49.85 1.05 49.8 1.1 46.15 4.6 M53.8 2.8 L55.9 0.0 59.9 0.0 57.15 3.85 56.2 5.25 Q56.55 3.7 57.25 2.95 L57.25 2.75 56.85 2.85 56.25 2.85 53.85 2.85 53.8 2.8 M44.35 18.8 L45.0 18.4 45.7 18.0 46.85 17.25 48.25 16.35 48.4 16.2 48.5 16.1 Q48.35 17.85 47.7 18.8 45.7 21.6 45.2 22.55 L45.05 22.55 44.35 18.8 M42.35 19.75 L42.25 20.05 42.15 20.35 41.75 21.8 40.05 19.2 42.35 19.75" fill="#d7fbff" fill-rule="evenodd" stroke="none"/>
      <path d="M45.3 26.8 L45.45 26.45 45.9 25.65 46.05 25.7 Q46.75 25.4 47.6 25.2 L52.2 24.3 53.25 24.1 53.7 24.0 53.8 24.0 54.1 23.95 54.2 23.95 54.5 23.9 54.85 23.8 55.25 23.7 59.3 23.15 55.55 24.35 55.1 24.5 54.9 24.55 54.1 24.8 53.65 24.95 52.6 25.25 52.65 25.4 48.55 25.85 Q50.35 27.15 50.75 28.55 51.15 29.95 50.6 32.45 L50.2 33.7 50.2 33.8 49.9 34.9 49.25 37.05 47.6 41.5 46.45 44.4 44.55 48.9 46.0 44.7 46.75 42.35 Q48.45 36.8 49.15 32.95 L49.2 32.75 49.55 28.95 Q49.05 28.55 46.75 27.5 L45.3 26.8 M49.8 1.1 L49.85 1.05 49.9 0.95 50.25 0.75 50.55 0.35 50.9 0.0 55.15 0.0 53.1 3.05 52.1 4.55 49.25 8.95 48.0 10.75 47.35 11.65 47.0 12.15 46.65 12.65 46.6 12.7 45.75 14.5 44.15 15.1 43.5 15.4 43.2 15.55 42.75 15.75 42.3 15.95 41.65 16.2 40.5 15.2 39.55 14.3 39.45 13.55 39.3 12.75 39.35 12.7 42.4 9.35 43.15 8.5 43.75 7.9 44.45 7.05 49.6 1.35 49.8 1.1 M61.5 32.25 L61.5 40.5 Q60.75 36.35 59.85 33.3 L58.5 32.55 57.3 32.3 56.0 32.0 54.95 31.8 53.85 32.4 53.1 32.8 52.95 32.9 Q52.35 33.25 51.85 34.15 L51.7 33.1 52.35 30.6 54.2 26.75 55.0 26.85 55.3 26.85 55.4 26.9 56.3 27.0 56.35 27.0 57.0 27.1 57.55 27.15 59.1 28.95 61.5 32.25 M61.5 68.35 L61.5 69.7 61.3 69.45 57.85 65.25 57.8 65.2 57.5 65.2 56.95 65.45 57.65 64.2 58.55 65.2 60.75 67.55 61.5 68.35 M60.15 70.1 L58.85 70.1 55.8 67.4 56.45 66.3 58.1 67.95 60.15 70.1 M52.7 70.1 L46.95 70.1 46.15 67.25 46.1 66.95 45.25 62.35 45.0 60.55 44.75 58.65 45.05 59.3 46.35 61.9 47.3 63.55 48.8 66.0 52.15 64.7 Q54.0 64.0 55.2 63.65 L56.15 61.95 58.8 57.0 61.0 52.9 60.9 54.1 59.9 56.5 56.85 63.15 56.5 63.9 55.1 66.8 53.65 69.45 52.7 70.1 M44.1 70.1 L40.5 70.1 42.25 67.15 41.75 63.8 41.1 60.15 40.25 56.4 38.6 54.8 37.9 54.15 39.6 54.05 41.35 54.0 42.05 54.15 Q42.55 54.45 43.0 55.45 L43.05 55.55 43.1 56.4 43.25 59.1 43.25 59.8 43.4 61.95 43.5 63.05 Q43.8 66.1 44.25 68.7 L44.3 69.75 44.1 70.1 M38.85 70.1 L37.3 70.1 36.75 68.45 36.15 66.85 37.0 67.85 38.85 70.1 M6.85 70.1 L6.15 70.1 7.3 68.85 6.85 70.1 M0.0 58.2 L0.0 51.65 Q0.4 50.75 1.0 50.7 L1.75 50.8 Q2.4 50.95 3.6 51.45 L5.4 52.3 4.7 52.85 2.9 54.3 2.0 58.6 1.3 62.65 0.0 58.2 M0.0 15.45 L0.0 13.7 2.0 13.8 Q2.6 13.4 2.85 12.75 3.3 11.65 2.75 10.35 L0.0 6.85 0.0 5.7 5.2 10.65 5.45 10.9 5.75 11.45 6.05 11.95 5.25 12.65 5.0 12.85 4.7 13.1 Q3.7 13.9 3.3 13.95 L4.2 15.45 4.55 15.9 4.65 16.0 6.35 17.75 8.6 19.5 8.85 19.7 9.75 20.4 11.5 21.7 11.6 22.3 9.6 20.7 8.4 19.8 6.55 18.55 6.2 18.35 4.55 17.35 Q2.25 16.15 0.0 15.45" fill="#316cbf" fill-rule="evenodd" stroke="none"/>
      <path d="M61.15 0.0 L61.5 0.0 61.5 7.0 58.7 11.3 56.05 12.1 55.45 12.25 51.2 13.55 50.4 13.85 49.95 14.05 51.35 12.0 56.2 9.25 56.85 8.9 60.05 2.2 61.15 0.0 M35.0 70.1 L31.9 70.1 32.45 67.7 32.6 67.1 33.4 66.7 33.55 67.05 35.0 70.1 M3.6 70.1 L0.0 70.1 0.0 58.2 1.3 62.65 2.5 66.7 3.6 70.1" fill="#2f3c4d" fill-rule="evenodd" stroke="none"/>
      <path d="M58.7 11.3 L61.5 7.0 61.5 10.6 60.5 10.85 60.35 10.85 58.7 11.3 M61.5 56.75 L61.5 68.35 60.75 67.55 58.55 65.2 57.65 64.2 61.5 56.75 M58.85 70.1 L54.2 70.1 55.2 68.5 55.45 67.95 55.8 67.4 58.85 70.1" fill="#212226" fill-rule="evenodd" stroke="none"/>
      <path d="M61.5 12.05 L61.5 22.5 60.2 22.85 59.3 23.15 55.25 23.7 54.85 23.8 54.5 23.9 54.2 23.95 54.5 23.8 54.75 23.6 55.1 23.4 55.75 22.85 Q59.85 20.05 61.15 17.85 L61.15 17.8 61.1 16.15 Q60.9 14.5 60.1 14.1 L57.05 13.8 56.05 13.8 52.75 14.15 55.2 13.15 58.05 11.9 58.3 11.9 61.5 12.05" fill="#3ec5db" fill-rule="evenodd" stroke="none"/>
      <path d="M6.05 8.4 L7.3 9.5 9.35 11.45 11.9 13.85 12.65 14.9 12.75 15.05 12.8 15.15 12.85 15.2 14.5 17.45 14.75 20.35 14.85 23.0 14.85 24.1 Q15.1 30.15 14.9 36.6 L14.85 36.8 14.85 37.35 14.8 40.2 14.55 45.35 14.5 45.6 14.5 45.3 14.3 41.3 14.15 38.5 14.05 35.95 13.45 27.05 Q13.0 21.65 12.2 19.6 L12.05 19.1 Q11.75 18.4 11.1 17.9 L10.3 17.4 9.45 17.0 6.8 15.85 5.7 15.2 7.15 14.75 7.35 14.55 7.3 14.3 6.7 12.85 5.85 11.3 5.25 10.45 Q3.55 7.95 0.6 4.95 L0.0 4.35 0.0 3.2 1.25 4.25 6.05 8.4 M61.5 24.3 L61.5 25.95 59.3 25.45 59.85 25.2 61.5 24.3 M45.8 70.1 L44.75 70.1 44.8 69.9 44.7 66.55 45.8 70.1 M0.0 3.0 L0.0 2.95 0.95 3.7 0.0 3.0 M51.7 33.1 L49.85 39.05 48.25 43.1 45.9 48.15 45.9 47.95 47.2 43.8 48.1 40.9 Q49.9 35.4 51.85 30.05 L51.7 28.55 51.7 28.4 51.65 28.25 Q51.3 27.05 50.8 26.75 L50.8 26.45 Q50.75 26.2 50.85 26.05 L52.9 26.2 54.05 26.05 54.6 26.0 54.7 25.95 55.05 25.85 54.7 26.1 54.15 26.5 53.9 26.75 53.15 27.8 53.1 27.85 52.35 30.6 51.7 33.1" fill="#d8f3fa" fill-rule="evenodd" stroke="none"/>
      <path d="M43.3 29.95 L45.15 27.1 Q45.5 29.0 45.5 31.1 L45.4 33.3 44.85 36.4 44.9 34.3 44.85 33.95 44.75 33.6 44.5 32.7 44.35 31.8 44.4 31.75 44.35 31.45 44.1 31.1 44.0 30.95 43.65 31.3 43.6 31.0 43.3 29.95" fill="url(#gradient0)" fill-rule="evenodd" stroke="none"/>
      <path d="M43.65 31.3 L44.0 30.95 44.1 31.1 44.35 31.45 44.4 31.75 44.35 31.8 44.5 32.7 44.75 33.6 44.85 33.95 44.9 34.3 44.85 36.4 44.65 37.6 Q44.25 40.1 42.8 41.7 L42.55 41.95 42.45 42.05 42.15 42.35 43.0 42.05 43.1 42.0 43.4 41.9 43.55 41.85 43.7 42.55 43.55 42.85 43.2 43.65 42.35 44.6 42.25 44.6 40.25 44.75 40.2 44.85 40.0 45.1 Q39.4 45.75 39.5 46.45 39.1 46.3 38.4 47.4 38.2 48.1 37.55 48.4 36.0 49.65 33.9 50.2 L31.6 50.4 29.7 50.4 29.7 50.15 29.65 49.6 29.25 47.6 29.2 47.0 29.15 46.9 Q29.3 46.6 29.1 46.65 28.7 46.15 27.4 46.0 L24.4 45.5 23.3 47.25 21.75 49.05 21.7 49.1 19.4 48.45 18.5 48.0 Q16.65 47.0 14.55 45.35 L14.8 40.2 14.85 37.35 16.0 39.1 15.6 43.55 Q17.15 44.85 18.95 45.6 L19.8 45.85 21.9 46.4 23.7 43.8 24.3 42.75 28.4 43.65 30.1 43.85 30.35 44.95 30.5 45.2 30.55 45.55 30.65 47.25 30.65 47.7 31.7 47.95 32.45 47.95 32.9 47.95 34.8 47.85 36.45 47.25 37.15 46.9 38.05 46.55 38.15 46.2 38.55 45.2 38.7 44.9 38.95 44.3 39.1 43.9 39.2 43.3 40.25 43.0 39.8 42.95 39.55 42.95 38.55 42.7 37.45 41.75 37.35 41.7 36.8 41.15 36.7 40.95 36.35 40.4 36.05 40.8 35.75 40.35 36.0 39.8 36.4 39.3 37.75 37.65 40.45 34.65 41.75 33.2 42.55 32.3 43.25 31.55 43.4 31.45 43.65 31.3 M40.65 42.1 Q41.45 41.85 42.2 41.2 43.55 39.9 44.05 37.7 L44.25 36.45 44.25 34.35 44.15 34.0 44.1 33.65 43.95 33.0 43.8 32.4 43.75 32.2 43.7 32.3 43.0 33.0 41.6 34.3 41.5 34.4 39.05 36.95 38.0 38.05 37.65 38.55 37.45 38.8 37.3 38.95 37.2 38.95 37.25 39.05 36.65 39.95 36.6 40.05 36.55 40.05 36.85 40.6 37.0 40.8 37.1 40.95 38.55 41.85 39.0 42.0 39.25 42.05 39.25 42.15 39.35 42.1 39.4 42.1 39.4 42.15 39.5 42.15 40.65 42.1 M22.05 25.6 L22.9 26.45 25.35 29.5 29.0 34.25 31.35 37.35 32.1 38.4 32.6 39.2 32.35 39.5 31.9 39.95 31.4 39.1 30.55 39.8 30.35 39.95 29.15 40.7 29.1 40.75 26.6 41.75 26.55 41.75 24.8 41.65 24.25 41.6 Q21.7 41.1 20.25 39.0 L20.1 38.8 19.8 38.35 Q18.25 35.6 18.4 32.35 18.55 29.45 19.3 28.0 L19.55 27.6 20.1 26.65 20.65 25.75 20.4 25.6 20.7 25.35 21.05 25.05 21.25 24.95 21.9 25.5 22.05 25.6 M23.8 28.55 L23.85 28.55 23.6 28.35 22.6 27.3 21.7 26.6 21.35 26.25 21.25 26.25 21.2 26.45 20.8 27.1 20.2 28.25 19.95 28.65 Q19.4 30.05 19.25 32.7 19.25 35.6 20.9 37.9 21.85 39.1 23.05 39.75 L25.1 40.35 25.2 40.35 25.6 40.45 26.9 40.45 Q28.75 40.35 29.85 39.55 L30.05 39.45 30.35 39.15 31.0 38.5 31.0 38.45 30.9 38.2 29.95 36.65 29.95 36.6 29.8 36.45 28.8 35.15 26.9 32.7 23.8 28.55 M42.15 42.35 L40.25 43.0 42.15 42.35" fill="#0e1425" fill-rule="evenodd" stroke="none"/>
      <path d="M41.5 34.4 L41.6 34.3 43.0 33.0 43.7 32.3 43.75 32.2 43.8 32.4 43.95 33.0 44.1 33.65 44.15 34.0 44.25 34.35 44.25 36.45 44.05 37.7 Q43.55 39.9 42.2 41.2 41.45 41.85 40.65 42.1 L41.75 41.0 Q42.9 39.5 43.35 37.4 L43.55 35.0 43.45 34.45 43.1 33.55 42.1 34.3 42.0 34.0 41.95 34.0 41.6 34.35 41.5 34.4" fill="url(#gradient1)" fill-rule="evenodd" stroke="none"/>
      <path d="M45.35 44.1 L45.5 44.65 45.1 45.35 44.65 46.25 Q43.35 48.35 41.2 50.3 L41.05 50.45 Q39.7 51.7 38.15 52.8 L37.9 53.0 34.65 54.85 33.5 55.35 32.3 55.85 30.6 56.4 30.35 56.45 30.6 56.35 33.75 54.6 35.2 53.5 35.8 53.05 Q40.25 49.5 42.2 44.75 L42.35 44.6 43.2 43.65 43.55 42.85 43.7 42.55 43.55 41.85 43.7 41.8 Q44.9 43.1 45.35 44.1" fill="url(#gradient2)" fill-rule="evenodd" stroke="none"/>
      <path d="M25.2 10.85 L24.4 8.95 23.9 8.25 22.7 6.65 22.0 6.25 21.05 5.9 19.75 5.7 Q16.5 5.7 12.45 8.75 15.6 4.45 19.8 4.45 22.3 4.45 23.75 5.45 24.4 5.85 24.85 6.5 25.9 7.85 26.35 10.9 L26.5 11.95 26.75 12.4 Q28.25 15.5 31.1 18.8 L32.25 19.95 36.5 23.05 37.0 23.5 Q39.75 26.05 39.75 29.35 L39.2 31.1 39.05 30.2 Q38.6 27.85 38.0 26.7 L37.1 25.3 36.1 24.1 Q34.65 22.45 33.2 21.45 L32.0 20.6 30.25 18.95 28.4 16.75 Q26.6 14.6 25.5 12.15 L25.35 11.9 25.2 10.85" fill="#575d87" fill-rule="evenodd" stroke="none"/>
      <path d="M12.45 8.75 Q16.5 5.7 19.75 5.7 L21.05 5.9 22.0 6.25 22.7 6.65 23.9 8.25 24.4 8.95 25.2 10.85 Q18.35 10.85 13.15 14.85 L12.8 15.15 12.75 15.05 12.65 14.9 11.9 13.85 9.35 11.45 12.15 9.0 12.45 8.75" fill="url(#gradient3)" fill-rule="evenodd" stroke="none"/>
      <path d="M25.2 10.85 L25.35 11.9 25.5 12.15 Q26.6 14.6 28.4 16.75 L30.25 18.95 32.0 20.6 33.2 21.45 Q34.65 22.45 36.1 24.1 L37.1 25.3 37.15 26.35 37.05 28.35 36.85 30.1 Q35.8 36.3 31.35 40.8 L29.5 42.45 29.45 42.55 28.95 42.85 28.3 43.35 28.35 43.45 28.4 43.6 28.4 43.65 24.3 42.75 23.7 43.8 21.9 46.4 19.8 45.85 18.95 45.6 Q17.15 44.85 15.6 43.55 L16.0 39.1 14.85 37.35 14.85 36.8 14.9 36.6 Q15.1 30.15 14.85 24.1 L14.85 23.0 14.75 20.35 14.5 17.45 12.85 15.2 13.15 14.85 Q18.35 10.85 25.2 10.85 M30.55 45.55 L31.6 45.65 32.3 45.6 33.2 44.7 33.25 44.65 33.3 44.55 33.35 44.5 34.1 43.35 34.15 43.2 35.55 43.8 37.15 44.15 37.45 44.15 37.5 44.15 36.45 45.35 36.3 45.35 36.2 45.45 35.3 46.3 32.9 47.95 32.45 47.95 31.7 47.95 30.65 47.7 30.65 47.25 30.55 45.55 M22.05 25.6 L21.9 25.5 21.25 24.95 21.05 25.05 20.7 25.35 20.4 25.6 20.65 25.75 20.1 26.65 19.55 27.6 19.3 28.0 Q18.55 29.45 18.4 32.35 18.25 35.6 19.8 38.35 L20.1 38.8 20.25 39.0 Q21.7 41.1 24.25 41.6 L24.8 41.65 26.55 41.75 26.6 41.75 29.1 40.75 29.15 40.7 30.35 39.95 30.55 39.8 31.4 39.1 31.9 39.95 32.35 39.5 32.6 39.2 32.1 38.4 31.35 37.35 29.0 34.25 25.35 29.5 22.9 26.45 22.05 25.6 M29.6 37.05 L29.7 37.2 29.7 37.3 29.65 37.2 29.6 37.05" fill="url(#gradient4)" fill-rule="evenodd" stroke="none"/>
      <path d="M41.75 31.3 L41.85 31.15 41.75 33.2 40.45 34.65 37.75 37.65 36.4 39.3 36.0 39.8 35.75 40.35 36.05 40.8 36.35 40.4 36.7 40.95 36.8 41.15 37.35 41.7 37.45 41.75 38.55 42.7 37.45 44.15 37.15 44.15 35.55 43.8 34.15 43.2 34.1 43.35 33.35 44.5 33.3 44.55 33.25 44.65 33.2 44.7 32.3 45.6 31.6 45.65 30.55 45.55 30.5 45.2 30.35 44.95 30.1 43.85 28.4 43.65 28.4 43.6 28.35 43.45 28.3 43.35 28.95 42.85 29.45 42.55 29.5 42.45 31.35 40.8 Q35.8 36.3 36.85 30.1 L37.05 28.35 37.15 26.35 37.1 25.3 38.0 26.7 Q38.6 27.85 39.05 30.2 L39.2 31.1 39.25 31.3 40.95 31.4 41.75 31.3 M29.15 46.9 L29.2 47.0 29.25 47.6 29.65 49.6 29.7 50.15 29.7 50.4 31.6 50.4 33.9 50.2 Q36.0 49.65 37.55 48.4 38.2 48.1 38.4 47.4 39.1 46.3 39.5 46.45 39.4 45.75 40.0 45.1 L40.2 44.85 40.25 44.75 42.25 44.6 42.35 44.6 42.2 44.75 42.15 44.75 40.15 48.4 Q38.5 51.25 32.95 54.4 L32.75 54.5 30.5 55.5 Q25.5 57.05 18.75 54.15 L18.85 54.05 19.0 54.2 19.05 53.95 20.9 52.75 23.55 51.3 25.7 49.8 29.15 46.9" fill="#221f2a" fill-rule="evenodd" stroke="none"/>
      <path d="M12.8 15.15 L13.15 14.85 12.85 15.2 12.8 15.15" fill="url(#gradient5)" fill-rule="evenodd" stroke="none"/>
      <path d="M23.05 39.75 Q21.85 39.1 20.9 37.9 19.25 35.6 19.25 32.7 19.4 30.05 19.95 28.65 L20.2 28.25 20.8 27.1 21.2 26.45 21.25 26.25 21.35 26.25 21.7 26.6 22.6 27.3 23.6 28.35 23.85 28.55 23.8 28.55 23.5 29.25 23.45 29.25 21.8 27.8 21.05 28.8 20.8 29.5 Q20.4 30.6 20.4 32.4 20.4 35.2 21.7 37.7 L23.05 39.75" fill="url(#gradient6)" fill-rule="evenodd" stroke="none"/>
      <path d="M23.5 29.25 L23.8 28.55 26.9 32.7 28.8 35.15 29.8 36.45 29.95 36.6 29.95 36.65 29.55 37.0 29.25 36.65 29.1 36.6 28.95 36.5 28.0 35.05 28.0 34.9 27.75 34.1 Q27.45 33.75 27.15 33.75 27.15 33.65 27.0 33.65 L24.4 30.2 23.95 29.7 23.5 29.25" fill="url(#gradient7)" fill-rule="evenodd" stroke="none"/>
      <path d="M23.45 29.25 L23.5 29.25 23.95 29.7 24.4 30.2 27.0 33.65 Q27.15 33.65 27.15 33.75 L27.05 33.75 Q26.65 33.7 26.35 34.05 L26.15 34.35 26.05 34.8 26.05 34.9 Q26.15 35.3 26.4 35.55 26.7 35.9 27.05 35.9 L27.5 35.85 27.75 35.6 28.0 35.05 28.95 36.5 28.35 36.4 28.25 36.4 27.9 36.45 27.7 36.65 27.6 36.9 27.2 36.9 26.8 36.8 26.6 36.65 26.65 36.65 26.2 36.35 25.5 35.85 Q25.1 35.4 25.1 34.95 L25.1 34.85 25.05 34.25 25.7 34.1 25.8 34.05 25.9 33.8 26.05 33.35 25.9 32.7 25.7 32.1 25.4 31.75 24.6 31.0 24.4 30.9 24.15 30.65 23.8 30.5 23.15 30.35 23.0 30.2 23.15 30.1 23.45 29.25 M22.6 32.55 L22.85 32.85 23.3 33.35 23.15 33.55 23.25 33.6 23.25 33.65 23.1 33.8 22.9 34.55 22.85 34.85 22.85 35.1 23.55 36.8 24.1 37.4 Q24.85 38.1 25.9 38.1 L26.0 38.1 26.2 38.05 26.7 37.95 26.65 37.95 27.4 37.55 27.75 37.4 27.95 37.8 28.15 37.95 28.3 38.05 27.75 38.25 27.2 38.35 26.6 38.45 26.35 38.5 26.05 38.5 25.9 38.5 Q22.65 38.4 22.45 34.25 L22.45 34.15 22.45 33.25 22.5 33.2 22.6 32.55" fill="url(#gradient8)" fill-rule="evenodd" stroke="none"/>
      <path d="M23.05 39.75 L21.7 37.7 Q20.4 35.2 20.4 32.4 20.4 30.6 20.8 29.5 L21.05 28.8 21.8 27.8 23.45 29.25 23.15 30.1 23.0 30.2 23.15 30.35 23.1 30.35 22.45 30.35 22.15 30.5 Q21.95 30.6 21.9 30.85 L21.9 30.9 Q21.95 31.6 22.6 32.55 L22.5 33.2 22.45 33.25 22.45 34.15 22.45 34.25 Q22.65 38.4 25.9 38.5 L26.05 38.5 26.35 38.5 26.6 38.45 27.2 38.35 27.75 38.25 28.3 38.05 28.5 38.2 28.55 38.2 29.1 38.25 29.15 38.25 29.6 38.15 29.7 38.05 29.6 38.2 29.1 38.3 Q28.85 39.35 28.0 39.8 27.15 40.35 25.2 40.35 L25.1 40.35 23.05 39.75" fill="url(#gradient9)" fill-rule="evenodd" stroke="none"/>
      <path d="M23.15 30.35 L23.8 30.5 24.15 30.65 24.4 30.9 24.6 31.0 25.4 31.75 25.7 32.1 25.9 32.7 26.05 33.35 25.9 33.8 25.8 34.05 25.7 34.1 25.05 34.25 24.85 34.25 24.75 34.25 24.6 34.2 23.85 33.85 23.6 33.65 23.55 33.6 23.3 33.35 22.85 32.85 22.6 32.55 Q21.95 31.6 21.9 30.9 L21.9 30.85 Q21.95 30.6 22.15 30.5 L22.45 30.35 23.1 30.35 23.15 30.35 M27.6 36.9 L27.7 36.65 27.9 36.45 28.25 36.4 28.35 36.4 28.95 36.5 29.1 36.6 29.25 36.65 29.55 37.0 29.6 37.05 29.65 37.2 29.7 37.3 29.8 37.6 29.8 37.7 29.75 37.9 29.75 37.95 29.7 38.05 29.6 38.15 29.15 38.25 29.1 38.25 28.55 38.2 28.5 38.2 28.3 38.05 28.15 37.95 27.95 37.8 27.75 37.4 27.7 37.3 27.6 36.9 M40.65 35.7 L41.05 35.4 41.25 35.3 41.5 35.2 41.7 35.15 42.0 35.1 42.1 35.1 42.55 35.1 42.75 35.2 42.85 35.4 42.8 35.6 42.2 36.9 42.2 36.95 42.0 37.05 Q41.85 37.15 41.65 37.35 L41.45 37.55 41.4 37.55 41.2 37.65 40.9 37.8 40.7 37.85 40.6 37.85 40.45 37.8 40.2 37.75 40.15 37.7 40.05 37.4 39.85 37.3 39.9 37.05 40.05 36.6 40.35 36.15 40.35 36.1 40.5 35.85 40.65 35.7 M37.85 38.95 L38.15 39.0 38.3 39.05 38.45 39.1 38.65 39.3 38.65 39.4 38.55 39.7 38.55 39.8 38.35 40.0 38.2 40.05 38.05 40.05 37.95 40.15 37.9 40.2 37.55 40.2 37.45 40.1 37.35 40.05 37.3 39.95 37.25 39.65 37.25 39.55 37.3 39.5 37.35 39.35 37.4 39.3 37.45 39.2 37.7 39.05 37.7 39.0 37.75 39.05 37.85 38.95" fill="#ffffff" fill-rule="evenodd" stroke="none"/>
      <path d="M23.3 33.35 L23.55 33.6 23.6 33.65 23.85 33.85 24.6 34.2 24.75 34.25 24.85 34.25 25.05 34.25 25.1 34.85 25.1 34.95 Q25.1 35.4 25.5 35.85 L26.2 36.35 26.65 36.65 26.6 36.65 26.8 36.8 27.2 36.9 27.6 36.9 27.7 37.3 27.75 37.4 27.4 37.55 26.65 37.95 26.7 37.95 26.2 38.05 26.0 38.1 25.9 38.1 Q24.85 38.1 24.1 37.4 L23.55 36.8 22.85 35.1 22.85 34.85 22.9 34.55 23.1 33.8 23.25 33.65 23.25 33.6 23.15 33.55 23.3 33.35" fill="url(#gradient10)" fill-rule="evenodd" stroke="none"/>
      <path d="M14.55 45.35 Q16.65 47.0 18.5 48.0 L19.4 48.45 21.7 49.1 21.75 49.05 23.3 47.25 24.4 45.5 27.4 46.0 Q28.7 46.15 29.1 46.65 29.3 46.6 29.15 46.9 L25.7 49.8 23.55 51.3 20.9 52.75 19.05 53.95 19.0 54.2 18.85 54.05 18.75 54.15 17.15 53.5 Q15.85 52.9 14.1 51.45 L14.1 50.9 14.25 49.3 14.25 48.6 14.5 45.6 14.55 45.35" fill="url(#gradient11)" fill-rule="evenodd" stroke="none"/>
      <path d="M14.1 51.45 Q15.85 52.9 17.15 53.5 L18.75 54.15 Q25.5 57.05 30.5 55.5 L32.75 54.5 32.95 54.4 Q38.5 51.25 40.15 48.4 L42.15 44.75 42.2 44.75 Q40.25 49.5 35.8 53.05 L35.2 53.5 33.75 54.6 30.6 56.35 30.35 56.45 28.45 56.9 28.25 56.95 24.25 57.45 22.25 57.4 Q18.1 57.0 14.5 54.9 L14.1 54.7 13.85 54.5 13.95 53.3 14.1 51.55 14.1 51.45" fill="url(#gradient12)" fill-rule="evenodd" stroke="none"/>
      <path d="M41.85 31.15 L42.0 31.05 42.05 31.05 42.95 30.3 43.3 29.95 43.6 31.0 43.65 31.3 43.4 31.45 43.25 31.55 42.55 32.3 41.75 33.2 41.85 31.15 M37.45 44.15 L38.55 42.7 39.55 42.95 39.8 42.95 40.25 43.0 39.2 43.3 39.1 43.9 38.7 43.95 38.55 43.95 38.05 44.1 37.8 44.15 37.5 44.15 37.45 44.15" fill="url(#gradient13)" fill-rule="evenodd" stroke="none"/>
      <path d="M37.3 38.95 L37.45 38.8 37.65 38.55 38.0 38.05 39.05 36.95 41.5 34.4 41.6 34.35 41.95 34.0 42.0 34.0 42.1 34.3 42.05 34.4 41.55 34.9 41.2 35.2 40.65 35.7 40.5 35.85 40.35 36.1 40.05 36.5 39.2 37.3 39.1 37.4 38.9 37.75 38.55 38.1 38.55 38.05 38.25 38.55 37.85 38.95 37.75 39.05 37.7 39.0 37.7 39.05 37.45 39.2 37.4 39.3 37.3 38.95" fill="url(#gradient14)" fill-rule="evenodd" stroke="none"/>
      <path d="M42.1 35.1 L42.0 35.1 41.7 35.15 41.5 35.2 41.25 35.3 41.05 35.4 40.65 35.7 41.2 35.2 41.55 34.9 42.05 34.4 42.1 34.3 42.15 34.9 42.15 34.95 42.1 35.1 M40.35 36.1 L40.35 36.15 40.05 36.6 39.9 37.05 39.85 37.3 39.65 37.2 39.6 37.2 39.3 37.3 39.2 37.3 40.05 36.5 40.35 36.1 M40.2 37.75 L40.45 37.8 40.45 38.25 40.35 38.35 39.9 38.95 Q39.8 38.95 39.5 39.2 L39.2 39.35 39.05 39.4 38.8 39.45 38.65 39.4 38.65 39.3 38.45 39.1 38.3 39.05 38.15 39.0 37.85 38.95 38.25 38.55 38.55 38.05 38.55 38.1 38.9 37.75 39.1 37.4 38.95 37.85 38.95 38.0 39.05 38.45 39.1 38.65 39.35 38.7 39.4 38.7 39.8 38.55 40.15 38.1 40.1 38.05 40.2 37.75 M41.65 37.35 Q41.85 37.15 42.0 37.05 L42.2 36.95 42.25 37.35 42.25 37.4 42.05 38.05 42.1 38.1 Q41.65 40.25 40.3 40.65 L40.1 40.7 40.05 40.7 39.75 40.75 39.35 40.65 39.3 40.65 39.1 40.6 38.7 40.45 38.4 40.3 38.05 40.05 38.2 40.05 38.35 40.0 38.55 39.8 38.6 39.9 39.05 40.2 39.1 40.3 39.35 40.4 39.45 40.45 39.5 40.45 39.85 40.5 40.85 40.05 41.05 39.8 41.65 38.85 41.75 38.7 41.75 38.55 41.75 38.25 41.75 37.8 41.65 37.6 41.65 37.55 41.7 37.6 41.65 37.35" fill="url(#gradient15)" fill-rule="evenodd" stroke="none"/>
      <path d="M40.65 42.1 L39.5 42.15 39.4 42.15 39.4 42.1 39.35 42.1 39.25 42.15 39.25 42.05 39.05 41.95 38.0 41.35 Q37.65 40.95 37.55 40.25 L37.5 40.25 37.85 40.2 37.9 40.2 37.95 40.15 38.05 40.05 38.4 40.3 38.7 40.45 39.1 40.6 39.3 40.65 39.35 40.65 39.75 40.75 40.05 40.7 40.1 40.7 40.3 40.65 Q41.65 40.25 42.1 38.1 L42.05 38.05 42.25 37.4 42.25 37.35 42.2 36.95 42.2 36.9 42.8 35.6 42.85 35.4 42.75 35.2 42.55 35.1 42.1 35.1 42.15 34.95 42.15 34.9 42.1 34.3 43.1 33.55 43.45 34.45 43.55 35.0 43.35 37.4 Q42.9 39.5 41.75 41.0 L40.65 42.1" fill="url(#gradient16)" fill-rule="evenodd" stroke="none"/>
      <path d="M28.0 35.05 L27.75 35.6 27.5 35.85 27.05 35.9 Q26.7 35.9 26.4 35.55 26.15 35.3 26.05 34.9 L26.05 34.8 26.15 34.35 26.35 34.05 Q26.65 33.7 27.05 33.75 L27.15 33.75 Q27.45 33.75 27.75 34.1 L28.0 34.9 28.0 35.05 M39.85 37.3 L40.05 37.4 40.15 37.7 40.2 37.75 40.1 38.05 40.15 38.1 39.8 38.55 39.4 38.7 39.35 38.7 39.1 38.65 39.05 38.45 38.95 38.0 38.95 37.85 39.1 37.4 39.2 37.3 39.3 37.3 39.6 37.2 39.65 37.2 39.85 37.3" fill="#692d00" fill-rule="evenodd" stroke="none"/>
      <path d="M39.25 42.05 L39.0 42.0 38.55 41.85 37.1 40.95 37.0 40.8 36.85 40.6 36.55 40.05 36.6 40.05 36.65 39.95 37.25 39.05 37.2 38.95 37.3 38.95 37.4 39.3 37.35 39.35 37.3 39.5 37.25 39.55 37.25 39.65 37.3 39.95 37.35 40.05 37.45 40.1 37.55 40.2 37.9 40.2 37.85 40.2 37.5 40.25 37.55 40.25 Q37.65 40.95 38.0 41.35 L39.05 41.95 39.25 42.05" fill="url(#gradient17)" fill-rule="evenodd" stroke="none"/>
      <path d="M40.45 37.8 L40.6 37.85 40.7 37.85 40.9 37.8 41.2 37.65 41.4 37.55 41.45 37.55 41.65 37.35 41.7 37.6 41.65 37.55 41.65 37.6 41.75 37.8 41.75 38.25 41.75 38.55 41.75 38.7 41.65 38.85 41.05 39.8 40.85 40.05 39.85 40.5 39.5 40.45 39.45 40.45 39.35 40.4 39.1 40.3 39.05 40.2 38.6 39.9 38.55 39.8 38.55 39.7 38.65 39.4 38.8 39.45 39.05 39.4 39.2 39.35 39.5 39.2 Q39.8 38.95 39.9 38.95 L40.35 38.35 40.45 38.25 40.45 37.8" fill="url(#gradient18)" fill-rule="evenodd" stroke="none"/>
      <path d="M43.55 41.85 L43.35 41.45 43.7 41.8 43.55 41.85" fill="url(#gradient19)" fill-rule="evenodd" stroke="none"/>
      <path d="M29.95 36.65 L30.9 38.2 31.0 38.45 31.0 38.5 30.35 39.15 30.05 39.45 29.85 39.55 Q28.75 40.35 26.9 40.45 L25.6 40.45 25.2 40.35 Q27.15 40.35 28.0 39.8 28.85 39.35 29.1 38.3 L29.6 38.2 29.7 38.05 29.75 37.95 29.75 37.9 29.8 37.7 29.8 37.6 29.7 37.3 29.7 37.2 29.6 37.05 29.55 37.0 29.95 36.65" fill="url(#gradient20)" fill-rule="evenodd" stroke="none"/>
      <path d="M32.9 47.95 L35.3 46.3 36.2 45.45 36.3 45.35 36.45 45.35 37.5 44.15 37.8 44.15 38.05 44.1 38.55 43.95 38.7 43.95 39.1 43.9 38.95 44.3 38.7 44.9 38.55 45.2 38.15 46.2 38.05 46.55 37.15 46.9 36.45 47.25 34.8 47.85 32.9 47.95" fill="url(#gradient21)" fill-rule="evenodd" stroke="none"/>
      <path d="M13.7 0.0 Q8.3 3.4 6.05 8.4 L1.25 4.25 0.0 3.2 0.0 3.0 0.95 3.7 0.0 2.95 0.0 0.0 13.7 0.0 M27.55 70.1 L10.15 70.1 10.95 68.2 12.85 63.75 12.85 63.35 13.45 57.85 13.5 56.95 13.7 56.4 13.85 54.5 14.1 54.7 14.5 54.9 Q18.1 57.0 22.25 57.4 L24.25 57.45 28.25 56.95 28.45 56.9 30.35 56.45 30.6 56.4 31.1 60.75 31.05 61.05 32.35 64.1 31.75 64.8 28.95 68.05 27.55 70.1" fill="url(#gradient22)" fill-rule="evenodd" stroke="none"/>
      <path d="M32.6 67.1 L30.75 67.8 Q29.75 68.5 29.35 70.1 L27.55 70.1 28.95 68.05 31.75 64.8 32.35 64.1 32.75 65.05 Q31.9 66.2 30.7 66.95 L30.85 66.95 32.8 66.1 33.1 65.95 33.4 66.7 32.6 67.1" fill="#8590db" fill-rule="evenodd" stroke="none"/>
      <path d="M32.75 65.05 L33.1 65.95 32.8 66.1 30.85 66.95 30.7 66.95 Q31.9 66.2 32.75 65.05" fill="#87c0ff" fill-rule="evenodd" stroke="none"/>
      <path d="M13.7 0.0 Q8.3 3.4 6.05 8.4 L7.3 9.5 9.35 11.45 11.9 13.85 12.65 14.9 12.75 15.05 12.8 15.15 12.85 15.2 14.5 17.45 14.75 20.35 14.85 23.0 14.85 24.1 Q15.1 30.15 14.9 36.6 L14.85 36.8 14.85 37.35 14.8 40.2 14.55 45.35 14.5 45.6 14.25 48.6 14.25 49.3 14.1 50.9 14.1 51.45 14.1 51.55 13.95 53.3 13.85 54.5 13.7 56.4 13.5 56.95 13.45 57.85 12.85 63.35 12.85 63.75 10.95 68.2 10.15 70.1 M41.75 31.3 L41.85 31.15 42.0 31.05 42.05 31.05 42.95 30.3 43.3 29.95 45.15 27.1 45.3 26.8 45.45 26.45 45.9 25.65 47.3 22.75 48.05 21.6 49.95 18.35 49.75 15.5 49.55 14.6 49.95 14.05 50.4 13.85 51.2 13.55 55.45 12.25 56.05 12.1 58.7 11.3 60.35 10.85 60.5 10.85 61.5 10.6 M43.9 18.95 L43.7 19.1 43.45 19.15 M51.35 12.0 L49.95 14.05 M32.6 67.1 L30.75 67.8 Q29.75 68.5 29.35 70.1 M56.2 5.25 L57.15 3.85 59.9 0.0 M51.35 12.0 L51.95 11.05 54.0 8.2 55.5 6.05 56.2 5.25 M44.35 18.8 L45.0 18.4 45.7 18.0 46.85 17.25 48.25 16.35 48.4 16.2 48.5 16.1 49.55 14.6 M43.9 18.95 L44.15 18.85 44.35 18.8 M39.2 31.1 L39.25 31.3 40.95 31.4 41.75 31.3 M30.6 56.4 L31.1 60.75 31.05 61.05 32.35 64.1 32.75 65.05 33.1 65.95 33.4 66.7 33.55 67.05 35.0 70.1 M32.6 67.1 L33.4 66.7 M0.0 2.95 L0.95 3.7 M1.25 4.25 L6.05 8.4" fill="none" stroke="#003366" stroke-linecap="round" stroke-linejoin="round" stroke-width="1.0"/>
      <path d="M61.15 0.0 L60.05 2.2 56.85 8.9 56.2 9.25 51.35 12.0 M31.9 70.1 L32.45 67.7 32.6 67.1 M1.3 62.65 L2.5 66.7 3.6 70.1 M1.3 62.65 L0.0 58.2" fill="none" stroke="#001c38" stroke-linecap="round" stroke-linejoin="round" stroke-width="1.0"/>
      <path d="M45.15 27.1 Q45.5 29.0 45.5 31.1 L45.4 33.3 44.85 36.4 M45.35 44.1 L45.5 44.65 45.1 45.35 44.65 46.25 Q43.35 48.35 41.2 50.3 L41.05 50.45 Q39.7 51.7 38.15 52.8 L37.9 53.0 34.65 54.85 33.5 55.35 32.3 55.85 30.6 56.4 30.35 56.45 28.45 56.9 28.25 56.95 24.25 57.45 22.25 57.4 Q18.1 57.0 14.5 54.9 L14.1 54.7 13.85 54.5 M42.15 42.35 L43.0 42.05 43.1 42.0 43.4 41.9 43.55 41.85 43.7 41.8 Q44.9 43.1 45.35 44.1 M12.8 15.15 L13.15 14.85 Q18.35 10.85 25.2 10.85 M28.4 43.65 L30.1 43.85 30.35 44.95 30.5 45.2 30.55 45.55 30.65 47.25 30.65 47.7 31.7 47.95 32.45 47.95 32.9 47.95 34.8 47.85 36.45 47.25 37.15 46.9 38.05 46.55 38.15 46.2 38.55 45.2 38.7 44.9 38.95 44.3 39.1 43.9 39.2 43.3 40.25 43.0 42.15 42.35 M14.85 37.35 L16.0 39.1 15.6 43.55 Q17.15 44.85 18.95 45.6 L19.8 45.85 21.9 46.4 23.7 43.8 24.3 42.75 28.4 43.65 M43.7 42.55 L43.55 41.85" fill="none" stroke="#1e1717" stroke-linecap="round" stroke-linejoin="round" stroke-width="1.0"/>
      <path d="M12.45 8.75 Q16.5 5.7 19.75 5.7 L21.05 5.9 22.0 6.25 22.7 6.65 23.9 8.25 24.4 8.95 25.2 10.85 25.35 11.9 25.5 12.15 Q26.6 14.6 28.4 16.75 L30.25 18.95 32.0 20.6 33.2 21.45 Q34.65 22.45 36.1 24.1 L37.1 25.3 38.0 26.7 Q38.6 27.85 39.05 30.2 L39.2 31.1" fill="none" stroke="#1c145b" stroke-linecap="round" stroke-linejoin="round" stroke-width="1.0"/>
    </g>
    <linearGradient gradientTransform="matrix(-0.0145, -0.0078, -0.0079, 0.0146, 40.05, 24.5)" gradientUnits="userSpaceOnUse" id="gradient0" spreadMethod="pad" x1="-819.2" x2="819.2">
      <stop offset="0.0" stop-color="#555061"/>
      <stop offset="1.0" stop-color="#c7c4ce"/>
    </linearGradient>
    <linearGradient gradientTransform="matrix(0.0016, 0.0015, -0.0037, 0.0039, 42.35, 37.85)" gradientUnits="userSpaceOnUse" id="gradient1" spreadMethod="pad" x1="-819.2" x2="819.2">
      <stop offset="0.0" stop-color="#43454d"/>
      <stop offset="1.0" stop-color="#7d878a"/>
    </linearGradient>
    <linearGradient gradientTransform="matrix(-0.0104, 0.0054, 0.0034, 0.0032, 45.25, 49.2)" gradientUnits="userSpaceOnUse" id="gradient2" spreadMethod="pad" x1="-819.2" x2="819.2">
      <stop offset="0.0" stop-color="#291f35"/>
      <stop offset="0.9882352941176471" stop-color="#a6a6a6"/>
    </linearGradient>
    <linearGradient gradientTransform="matrix(0.0227, -0.0269, -0.0166, -0.014, 16.85, 18.8)" gradientUnits="userSpaceOnUse" id="gradient3" spreadMethod="pad" x1="-819.2" x2="819.2">
      <stop offset="0.00784313725490196" stop-color="#030435"/>
      <stop offset="0.984313725490196" stop-color="#3d3e80"/>
    </linearGradient>
    <linearGradient gradientTransform="matrix(-0.0202, -0.0068, -0.0063, 0.0188, 19.8, 25.55)" gradientUnits="userSpaceOnUse" id="gradient4" spreadMethod="pad" x1="-819.2" x2="819.2">
      <stop offset="0.0" stop-color="#221f2a"/>
      <stop offset="1.0" stop-color="#605b6d"/>
    </linearGradient>
    <linearGradient gradientTransform="matrix(-0.0047, 0.0, 0.0, 0.0082, 9.25, 21.55)" gradientUnits="userSpaceOnUse" id="gradient5" spreadMethod="pad" x1="-819.2" x2="819.2">
      <stop offset="0.0" stop-color="#221f2a"/>
      <stop offset="1.0" stop-color="#6f56a6"/>
    </linearGradient>
    <linearGradient gradientTransform="matrix(-8.0E-4, 0.0058, 0.0081, 0.0011, 21.9, 31.75)" gradientUnits="userSpaceOnUse" id="gradient6" spreadMethod="pad" x1="-819.2" x2="819.2">
      <stop offset="0.0" stop-color="#43454d"/>
      <stop offset="1.0" stop-color="#7d878a"/>
    </linearGradient>
    <linearGradient gradientTransform="matrix(-0.0034, 0.0017, 0.0024, 0.0049, 27.2, 33.65)" gradientUnits="userSpaceOnUse" id="gradient7" spreadMethod="pad" x1="-819.2" x2="819.2">
      <stop offset="0.00392156862745098" stop-color="#932600"/>
      <stop offset="1.0" stop-color="#f59502"/>
    </linearGradient>
    <linearGradient gradientTransform="matrix(-0.0038, -3.0E-4, -4.0E-4, 0.0055, 25.8, 33.4)" gradientUnits="userSpaceOnUse" id="gradient8" spreadMethod="pad" x1="-819.2" x2="819.2">
      <stop offset="0.0" stop-color="#e77200"/>
      <stop offset="1.0" stop-color="#ffe94a"/>
    </linearGradient>
    <radialGradient cx="0" cy="0" fx="195.20000000000002" fy="0" gradientTransform="matrix(-0.0112, -0.0071, -0.0054, 0.0085, 26.35, 34.35)" gradientUnits="userSpaceOnUse" id="gradient9" r="819.2" spreadMethod="pad">
      <stop offset="0.0" stop-color="#ffffff"/>
      <stop offset="1.0" stop-color="#7c8689"/>
    </radialGradient>
    <linearGradient gradientTransform="matrix(-0.0038, -3.0E-4, -4.0E-4, 0.0055, 25.8, 33.4)" gradientUnits="userSpaceOnUse" id="gradient10" spreadMethod="pad" x1="-819.2" x2="819.2">
      <stop offset="0.0" stop-color="#ffa146"/>
      <stop offset="1.0" stop-color="#fff7bd"/>
    </linearGradient>
    <linearGradient gradientTransform="matrix(-0.0132, -0.0103, -0.0075, 0.014, 16.9, 34.15)" gradientUnits="userSpaceOnUse" id="gradient11" spreadMethod="pad" x1="-819.2" x2="819.2">
      <stop offset="0.0" stop-color="#221f2a"/>
      <stop offset="1.0" stop-color="#605b6d"/>
    </linearGradient>
    <linearGradient gradientTransform="matrix(-0.0067, 0.0112, 0.0135, 0.013, 18.05, 41.45)" gradientUnits="userSpaceOnUse" id="gradient12" spreadMethod="pad" x1="-819.2" x2="819.2">
      <stop offset="0.0" stop-color="#221f2a"/>
      <stop offset="1.0" stop-color="#6f56a6"/>
    </linearGradient>
    <linearGradient gradientTransform="matrix(-0.0059, 0.0059, 0.0087, 0.0087, 40.45, 42.4)" gradientUnits="userSpaceOnUse" id="gradient13" spreadMethod="pad" x1="-819.2" x2="819.2">
      <stop offset="0.0" stop-color="#221f2a"/>
      <stop offset="0.9882352941176471" stop-color="#514d5d"/>
    </linearGradient>
    <linearGradient gradientTransform="matrix(0.0023, 0.0018, -0.0031, 0.0027, 39.4, 37.2)" gradientUnits="userSpaceOnUse" id="gradient14" spreadMethod="pad" x1="-819.2" x2="819.2">
      <stop offset="0.00392156862745098" stop-color="#932600"/>
      <stop offset="1.0" stop-color="#f59502"/>
    </linearGradient>
    <linearGradient gradientTransform="matrix(-0.003, -7.0E-4, 0.0012, -0.0035, 40.45, 37.55)" gradientUnits="userSpaceOnUse" id="gradient15" spreadMethod="pad" x1="-819.2" x2="819.2">
      <stop offset="0.0" stop-color="#e77200"/>
      <stop offset="1.0" stop-color="#ffe94a"/>
    </linearGradient>
    <radialGradient cx="0" cy="0" fx="195.20000000000002" fy="0" gradientTransform="matrix(0.0085, -0.0023, 0.0019, 0.0063, 39.4, 37.85)" gradientUnits="userSpaceOnUse" id="gradient16" r="819.2" spreadMethod="pad">
      <stop offset="0.0" stop-color="#ffffff"/>
      <stop offset="1.0" stop-color="#7c8689"/>
    </radialGradient>
    <linearGradient gradientTransform="matrix(0.001, 0.0012, -0.0012, 0.001, 36.85, 39.75)" gradientUnits="userSpaceOnUse" id="gradient17" spreadMethod="pad" x1="-819.2" x2="819.2">
      <stop offset="0.0" stop-color="#43454d"/>
      <stop offset="1.0" stop-color="#7d878a"/>
    </linearGradient>
    <linearGradient gradientTransform="matrix(0.003, 5.0E-4, -9.0E-4, 0.0036, 40.5, 37.4)" gradientUnits="userSpaceOnUse" id="gradient18" spreadMethod="pad" x1="-819.2" x2="819.2">
      <stop offset="0.0" stop-color="#ffa146"/>
      <stop offset="1.0" stop-color="#fff7bd"/>
    </linearGradient>
    <linearGradient gradientTransform="matrix(0.004, 0.0056, 0.0031, -0.0035, 40.45, 49.15)" gradientUnits="userSpaceOnUse" id="gradient19" spreadMethod="pad" x1="-819.2" x2="819.2">
      <stop offset="0.0" stop-color="#221f2a"/>
      <stop offset="0.9882352941176471" stop-color="#a6a6a6"/>
    </linearGradient>
    <linearGradient gradientTransform="matrix(-0.0019, 0.0013, 0.0013, 0.0019, 29.15, 38.05)" gradientUnits="userSpaceOnUse" id="gradient20" spreadMethod="pad" x1="-819.2" x2="819.2">
      <stop offset="0.0" stop-color="#43454d"/>
      <stop offset="1.0" stop-color="#7d878a"/>
    </linearGradient>
    <linearGradient gradientTransform="matrix(0.0083, 0.01, 0.0027, -0.0022, 29.25, 44.1)" gradientUnits="userSpaceOnUse" id="gradient21" spreadMethod="pad" x1="-819.2" x2="819.2">
      <stop offset="0.0" stop-color="#221f2a"/>
      <stop offset="0.9882352941176471" stop-color="#514d5d"/>
    </linearGradient>
    <linearGradient gradientTransform="matrix(-0.0578, -0.0566, -0.012, 0.0123, 48.9, -8.35)" gradientUnits="userSpaceOnUse" id="gradient22" spreadMethod="pad" x1="-819.2" x2="819.2">
      <stop offset="0.00784313725490196" stop-color="#030435"/>
      <stop offset="0.984313725490196" stop-color="#3c3d64"/>
    </linearGradient>
    <g id="shape2" transform="matrix(1.0, 0.0, 0.0, 1.0, 0.0, 0.0)">
      <path d="M50.5 0.0 Q53.95 0.0 53.95 3.3 L53.95 50.15 Q53.95 53.4 50.5 53.4 L3.3 53.4 Q0.0 53.4 0.0 50.15 L0.0 3.3 Q0.0 0.0 3.3 0.0 L50.5 0.0" fill="#000000" fill-opacity="0.003921569" fill-rule="evenodd" stroke="none"/>
    </g>
  </defs>
</svg>
