<?xml version="1.0" encoding="UTF-8" standalone="no"?>
<svg xmlns:ffdec="https://www.free-decompiler.com/flash" xmlns:xlink="http://www.w3.org/1999/xlink" ffdec:objectType="frame" height="122.6px" width="121.25px" xmlns="http://www.w3.org/2000/svg">
  <g transform="matrix(1.0, 0.0, 0.0, 1.0, 61.9, 67.6)">
    <clipPath id="clipPath0" transform="matrix(1.0, 0.0, 0.0, 1.0, 0.0, 0.0)">
      <path d="M50.5 0.0 Q53.95 0.0 53.95 3.3 L53.95 50.15 Q53.95 53.4 50.5 53.4 L3.3 53.4 Q0.0 53.4 0.0 50.15 L0.0 3.3 Q0.0 0.0 3.3 0.0 L50.5 0.0" fill="#000000" fill-rule="evenodd" stroke="none"/>
    </clipPath>
    <g clip-path="url(#clipPath0)">
      <use ffdec:characterId="2" height="122.6" transform="matrix(1.0, 0.0, 0.0, 1.0, -61.9, -67.6)" width="121.25" xlink:href="#shape1"/>
    </g>
    <use ffdec:characterId="3" height="53.4" transform="matrix(1.0, 0.0, 0.0, 1.0, 0.0, 0.0)" width="53.95" xlink:href="#shape2"/>
  </g>
  <defs>
    <g id="shape1" transform="matrix(1.0, 0.0, 0.0, 1.0, 61.9, 67.6)">
      <path d="M-58.75 -66.8 L-61.9 -66.8 Q-60.8 -68.2 -58.85 -67.15 L-58.75 -66.8" fill="url(#gradient0)" fill-rule="evenodd" stroke="none"/>
      <path d="M1.35 -1.4 L3.55 -1.4 5.5 1.1 9.35 6.3 6.65 4.55 2.15 -0.5 1.35 -1.4 M24.7 -1.4 L27.15 -1.4 27.75 2.7 28.05 4.15 28.3 5.9 27.7 4.3 27.65 4.25 27.1 2.85 27.0 2.9 27.05 5.6 26.7 5.2 26.5 5.0 25.05 3.4 24.8 3.65 24.6 3.4 24.6 3.35 Q23.95 1.1 23.45 0.55 L23.45 0.5 23.4 0.45 23.25 0.45 23.3 0.35 Q23.3 -0.2 23.9 -0.5 24.55 -0.7 24.6 -0.85 L24.7 -1.4 M50.05 44.65 Q54.2 49.25 58.3 52.85 45.95 45.9 33.3 33.0 L32.9 32.55 32.85 32.65 30.45 37.3 30.35 37.25 33.0 31.0 33.5 31.5 38.7 36.25 49.2 45.4 50.05 44.65 M28.95 29.6 L28.85 27.6 28.95 27.6 Q29.7 30.6 30.85 33.8 L30.4 34.4 28.95 29.6 M0.2 26.95 L0.05 26.95 0.1 26.9 0.2 26.95 M31.1 33.4 L31.5 32.0 31.95 30.05 32.45 30.5 31.1 33.4" fill="#e79748" fill-rule="evenodd" stroke="none"/>
      <path d="M1.35 -1.4 L2.15 -0.5 6.65 4.55 Q4.1 3.05 1.35 1.85 L1.05 1.75 -1.9 -0.95 -1.9 -1.4 1.35 -1.4 M9.35 6.3 L5.5 1.1 3.55 -1.4 5.9 -1.4 8.9 1.95 10.65 3.95 11.6 5.15 12.0 5.5 13.6 7.4 14.25 8.2 14.5 8.45 17.4 12.55 17.65 12.9 19.8 16.7 20.35 17.9 22.0 21.9 23.25 26.0 Q24.05 29.2 24.5 32.6 L24.05 32.8 Q23.65 26.3 20.95 19.85 L19.2 16.05 Q14.95 10.3 9.35 6.3" fill="url(#gradient1)" fill-rule="evenodd" stroke="none"/>
      <path d="M11.25 -1.35 L11.25 -1.4 11.3 -1.4 11.25 -1.35 M26.5 5.0 L26.25 5.55 25.5 7.1 23.9 10.9 23.85 10.95 23.7 11.4 22.9 13.55 22.3 15.45 22.25 15.6 22.1 16.25 22.55 16.75 22.1 17.95 22.1 18.1 21.5 17.2 21.25 16.95 21.25 16.9 Q21.25 16.1 21.6 15.1 L22.2 13.45 22.3 13.3 22.4 13.0 24.25 8.15 23.35 6.5 23.4 6.4 23.85 5.4 24.15 4.9 24.7 3.85 24.8 3.65 25.05 3.4 26.5 5.0 M29.35 34.35 L30.0 36.85 30.05 37.3 30.15 37.6 30.0 37.6 29.35 40.8 28.35 43.5 27.85 44.6 27.15 44.35 26.4 44.0 25.95 43.75 26.0 43.6 24.8 42.4 25.45 39.95 25.45 39.8 25.6 38.5 24.9 36.85 24.15 35.45 24.15 34.1 25.75 36.95 27.7 41.45 28.35 43.5 27.7 41.45 25.75 36.95 27.05 33.2 27.2 32.8 29.35 34.35 M20.95 12.5 L20.9 12.7 20.6 13.55 18.25 10.5 17.2 9.35 15.15 7.1 14.65 6.6 15.2 6.6 16.1 6.55 20.95 12.5 M5.9 21.15 Q7.45 21.35 9.2 22.1 L10.45 22.65 11.85 23.5 12.0 23.55 Q13.0 24.25 13.8 25.0 L13.95 25.2 13.8 25.3 Q13.8 25.8 13.4 26.1 13.15 26.3 12.85 26.3 L12.8 26.3 11.25 24.55 11.0 24.3 10.7 24.0 9.95 23.45 8.85 22.75 Q8.0 22.2 7.0 21.7 L5.9 21.15 M13.0 35.05 L14.05 34.1 14.25 33.85 14.6 32.85 14.75 32.9 14.9 32.4 Q15.1 31.95 15.45 31.75 L16.15 31.5 Q16.85 31.5 17.35 31.9 17.7 34.15 17.2 35.55 16.75 36.6 15.85 37.15 L14.4 37.6 13.85 37.65 12.75 37.55 12.2 37.4 12.3 37.25 Q10.95 36.35 10.9 35.25 L11.6 35.3 13.0 35.05" fill="#f7dc37" fill-rule="evenodd" stroke="none"/>
      <path d="M10.65 3.95 Q10.1 2.95 10.1 1.7 10.1 -0.1 11.25 -1.35 L11.3 -1.4 19.15 -1.4 Q20.3 -0.1 20.3 1.7 20.3 3.75 18.8 5.15 17.8 6.1 16.6 6.45 L16.1 6.55 15.2 6.6 14.65 6.6 Q13.15 6.45 12.0 5.5 L11.6 5.15 10.65 3.95 M-1.9 24.2 L-1.65 24.4 -1.5 24.55 -1.9 24.75 -1.9 24.2 M-1.9 30.7 L-0.75 30.2 -1.65 31.3 -1.9 31.55 -1.9 30.7 M20.35 51.25 L21.55 51.45 Q22.65 51.8 23.55 52.65 24.4 53.45 24.8 54.5 L15.1 54.5 Q15.5 53.45 16.35 52.65 L16.45 52.6 Q17.25 51.8 18.25 51.5 L18.6 51.4 19.95 51.2 20.35 51.25" fill="#eff3a7" fill-rule="evenodd" stroke="none"/>
      <path d="M22.8 -1.4 L24.7 -1.4 24.6 -0.85 Q24.55 -0.7 23.9 -0.5 23.3 -0.2 23.3 0.35 L23.25 0.45 23.25 1.55 21.8 -0.15 22.8 -1.4" fill="#ffe618" fill-rule="evenodd" stroke="none"/>
      <path d="M20.65 -1.4 L22.8 -1.4 21.8 -0.15 20.65 -1.4 M29.2 -1.4 L32.2 -1.4 33.35 1.7 Q35.1 7.15 35.1 14.2 L35.1 14.35 34.9 18.3 Q34.6 21.15 33.9 24.25 L33.85 24.5 Q33.75 18.7 32.4 13.95 L32.3 13.9 32.15 13.55 31.55 12.4 29.4 -0.15 29.25 -1.2 29.2 -1.4" fill="#9089d6" fill-rule="evenodd" stroke="none"/>
      <path d="M19.15 -1.4 L20.65 -1.4 21.8 -0.15 23.25 1.55 24.55 3.35 24.6 3.35 24.6 3.4 24.6 3.45 23.3 5.65 23.05 6.0 22.45 6.95 22.0 7.65 21.4 8.75 Q20.95 9.7 20.8 10.5 L20.45 10.3 18.75 8.85 17.5 7.55 16.6 6.45 Q17.8 6.1 18.8 5.15 20.3 3.75 20.3 1.7 20.3 -0.1 19.15 -1.4" fill="url(#gradient2)" fill-rule="evenodd" stroke="none"/>
      <path d="M27.15 -1.4 L29.2 -1.4 29.25 -1.2 29.4 -0.15 29.35 3.3 29.6 9.1 28.6 7.6 28.35 6.15 28.3 5.9 28.05 4.15 27.75 2.7 27.15 -1.4" fill="#f4f8ac" fill-rule="evenodd" stroke="none"/>
      <path d="M33.75 -1.4 L34.1 -1.4 Q35.75 1.9 36.8 5.4 L36.8 5.6 Q38.25 17.25 35.1 26.75 L34.95 26.85 33.85 25.1 33.85 24.5 33.9 24.25 Q34.6 21.15 34.9 18.3 L35.1 14.35 35.1 14.2 Q35.25 9.45 34.6 4.4 L33.75 -1.4" fill="#babeee" fill-rule="evenodd" stroke="none"/>
      <path d="M32.2 -1.4 L33.75 -1.4 34.6 4.4 Q35.25 9.45 35.1 14.2 35.1 7.15 33.35 1.7 L32.2 -1.4" fill="#e7dced" fill-rule="evenodd" stroke="none"/>
      <path d="M35.1 26.75 L37.05 26.5 38.25 29.7 Q42.6 35.95 46.85 41.05 L47.5 41.85 47.35 42.0 47.45 42.1 48.7 43.15 50.05 44.65 49.2 45.4 38.7 36.25 33.5 31.5 33.0 31.0 33.2 30.3 33.5 30.7 33.6 30.8 33.8 31.05 Q42.3 37.65 47.35 42.0 43.45 38.45 34.3 29.05 L33.85 28.6 33.8 28.55 33.85 28.3 33.85 28.15 33.9 27.9 33.9 26.45 33.2 28.45 32.25 28.25 31.8 28.15 31.75 28.15 31.6 28.1 31.8 28.4 32.75 29.7 32.45 30.45 32.45 30.5 31.95 30.05 31.5 32.0 31.1 33.4 30.85 33.8 Q29.7 30.6 28.95 27.6 L28.85 27.6 28.85 27.5 31.15 24.3 31.45 23.9 32.35 22.65 33.85 25.1 34.95 26.85 35.1 26.75" fill="url(#gradient3)" fill-rule="evenodd" stroke="none"/>
      <path d="M23.25 1.55 L23.25 0.45 23.4 0.45 23.45 0.5 23.45 0.55 Q23.95 1.1 24.6 3.35 L24.55 3.35 23.25 1.55 M27.05 5.6 L27.0 2.9 27.1 2.85 27.65 4.25 27.7 4.3 28.3 5.9 28.35 6.15 28.6 7.6 27.05 5.6 M31.55 12.4 L29.6 9.1 29.35 3.3 29.4 -0.15 31.55 12.4" fill="url(#gradient4)" fill-rule="evenodd" stroke="none"/>
      <path d="M26.7 5.2 L27.05 5.95 27.45 6.7 29.1 10.6 29.25 11.0 29.4 11.45 29.45 11.55 29.85 12.55 30.6 14.65 Q30.9 15.55 30.95 15.35 L30.95 15.25 Q31.1 13.95 31.75 13.65 L32.15 13.55 32.3 13.9 32.4 13.95 Q33.75 18.7 33.85 24.5 L33.85 25.1 32.35 22.65 31.45 23.9 31.1 21.5 30.0 16.3 29.95 16.05 29.9 15.8 Q29.15 11.3 27.1 7.2 L26.6 6.25 25.75 8.15 Q24.95 9.95 24.3 11.85 L24.15 12.25 23.35 14.7 23.05 15.65 23.7 15.7 24.75 15.7 27.55 16.0 28.85 16.3 29.2 16.35 Q30.35 18.7 30.8 21.85 L31.15 24.3 28.85 27.5 28.85 27.6 28.95 29.6 27.2 24.55 25.15 20.0 22.75 15.95 22.45 15.45 22.3 15.5 22.15 16.15 22.55 16.65 Q25.8 20.9 29.35 34.25 L30.0 36.75 30.1 37.2 30.2 37.55 30.15 37.6 30.05 37.3 30.0 36.85 29.35 34.35 Q25.8 21.0 22.55 16.75 L22.1 16.25 22.25 15.6 22.3 15.45 22.9 13.55 23.7 11.4 23.85 10.95 23.9 10.9 25.5 7.1 26.25 5.55 26.5 5.0 26.7 5.2" fill="url(#gradient5)" fill-rule="evenodd" stroke="none"/>
      <path d="M27.05 5.6 L28.6 7.6 29.6 9.1 31.55 12.4 32.15 13.55 31.75 13.65 Q31.1 13.95 30.95 15.25 L30.95 15.35 Q30.9 15.55 30.6 14.65 L29.85 12.55 29.45 11.55 29.4 11.45 29.25 11.0 29.1 10.6 27.45 6.7 27.05 5.95 26.7 5.2 27.05 5.6" fill="#3e519f" fill-rule="evenodd" stroke="none"/>
      <path d="M16.6 6.45 L17.5 7.55 18.75 8.85 20.45 10.3 20.8 10.5 Q20.95 9.7 21.4 8.75 L22.0 7.65 22.45 6.95 23.05 6.0 23.3 5.65 24.6 3.45 24.6 3.4 24.8 3.65 24.7 3.85 24.15 4.9 23.85 5.4 23.4 6.4 23.35 6.5 22.4 8.6 21.8 10.1 20.95 12.5 16.1 6.55 16.6 6.45" fill="#4b5eb4" fill-rule="evenodd" stroke="none"/>
      <path d="M30.35 37.25 L30.45 37.3 32.85 32.65 32.9 32.55 33.3 33.0 31.55 39.15 31.45 39.4 28.5 43.95 28.35 43.5 28.5 43.95 31.45 39.4 Q30.25 42.8 28.55 45.95 L28.5 45.95 27.0 45.25 26.75 45.1 26.4 44.8 25.55 46.35 25.05 46.35 25.95 43.75 26.4 44.0 27.15 44.35 27.85 44.6 28.35 43.5 29.35 40.8 30.0 37.6 30.15 37.6 30.2 37.55 30.35 37.25 M23.35 6.5 L24.25 8.15 22.4 13.0 22.3 13.3 20.9 12.7 20.95 12.5 21.8 10.1 22.4 8.6 23.35 6.5 M23.25 26.0 Q23.6 25.3 24.1 25.0 24.55 24.7 25.1 24.7 L25.45 24.9 Q26.8 28.7 27.2 32.8 L27.05 33.2 25.75 36.95 24.15 34.1 24.05 32.8 24.5 32.6 Q24.05 29.2 23.25 26.0 M12.0 5.5 Q13.15 6.45 14.65 6.6 L15.15 7.1 14.5 8.45 14.25 8.2 13.6 7.4 12.0 5.5 M24.1 37.0 L24.15 35.45 24.9 36.85 25.6 38.5 25.45 39.8 25.45 39.95 24.8 42.4 23.65 41.35 23.5 41.2 23.5 41.15 23.65 39.6 23.75 39.55 23.85 39.5 23.9 38.9 24.1 37.0" fill="#e5a215" fill-rule="evenodd" stroke="none"/>
      <path d="M31.15 24.3 L30.8 21.85 Q30.35 18.7 29.2 16.35 L28.85 16.3 27.55 16.0 24.75 15.7 23.7 15.7 23.05 15.65 23.35 14.7 24.15 12.25 24.3 11.85 Q24.95 9.95 25.75 8.15 L26.6 6.25 27.1 7.2 Q29.15 11.3 29.9 15.8 L29.95 16.05 30.0 16.3 31.1 21.5 31.45 23.9 31.15 24.3" fill="url(#gradient6)" fill-rule="evenodd" stroke="none"/>
      <path d="M22.3 13.3 L22.2 13.45 21.6 15.1 Q21.25 16.1 21.25 16.9 L21.25 16.95 Q20.75 17.2 20.35 17.9 L19.8 16.7 20.6 13.55 20.9 12.7 22.3 13.3 M22.0 21.9 L22.05 21.8 Q22.7 20.95 23.4 20.75 L23.6 20.75 Q24.7 22.75 25.45 24.9 L25.1 24.7 Q24.55 24.7 24.1 25.0 23.6 25.3 23.25 26.0 L22.0 21.9 M14.5 8.45 L15.15 7.1 17.2 9.35 18.25 10.5 17.65 12.8 17.65 12.9 17.4 12.55 14.5 8.45 M6.45 22.4 L5.5 21.5 5.9 21.15 7.0 21.7 Q8.0 22.2 8.85 22.75 L9.95 23.45 10.7 24.0 11.0 24.3 11.25 24.55 12.8 26.3 13.8 27.95 14.65 29.7 14.7 29.85 14.8 31.2 14.8 31.9 14.6 32.85 14.25 33.85 14.05 34.1 13.0 35.05 13.5 34.05 13.85 33.25 14.1 31.8 Q14.1 30.1 13.15 28.35 12.5 27.1 11.35 25.8 L11.3 25.75 11.2 25.65 10.5 24.85 10.05 24.45 8.45 23.05 8.35 23.4 8.35 23.45 Q7.4 22.85 6.45 22.4 M11.55 52.7 L12.7 50.25 13.75 51.35 14.15 51.6 14.85 52.1 15.3 52.4 15.8 52.05 15.9 51.85 15.45 53.25 15.05 54.35 15.0 54.45 14.95 54.5 12.65 54.5 11.75 53.9 11.7 53.8 11.55 52.7 M14.45 47.15 L14.6 46.95 15.1 47.3 16.05 47.9 Q18.4 49.4 20.35 51.25 L19.95 51.2 18.6 51.4 17.7 50.65 17.35 50.3 17.25 50.4 16.85 49.9 14.95 47.75 14.45 47.15 M21.55 51.45 L21.4 51.2 21.3 51.0 20.8 50.25 Q21.25 50.4 21.7 50.7 L22.55 51.3 23.95 52.75 24.1 52.9 24.15 52.95 24.1 52.95 25.2 54.5 24.8 54.5 Q24.4 53.45 23.55 52.65 22.65 51.8 21.55 51.45 M28.5 45.95 L28.4 46.1 25.55 46.35 26.4 44.8 26.75 45.1 27.0 45.25 28.5 45.95" fill="#b88824" fill-rule="evenodd" stroke="none"/>
      <path d="M33.0 31.0 L30.35 37.25 30.2 37.55 30.1 37.2 30.0 36.75 29.35 34.25 Q25.8 20.9 22.55 16.65 L22.15 16.15 22.3 15.5 22.45 15.45 22.75 15.95 25.15 20.0 27.2 24.55 28.95 29.6 30.4 34.4 30.85 33.8 31.1 33.4 32.45 30.5 32.45 30.45 32.75 29.7 33.2 28.45 33.9 26.45 33.9 27.9 33.85 28.15 33.85 28.3 33.8 28.55 33.2 30.3 33.0 31.0" fill="#000000" fill-opacity="0.3019608" fill-rule="evenodd" stroke="none"/>
      <path d="M22.55 16.75 Q25.8 21.0 29.35 34.35 L27.2 32.8 Q26.8 28.7 25.45 24.9 24.7 22.75 23.6 20.75 L22.55 18.8 22.1 18.1 22.1 17.95 22.55 16.75" fill="#f4f7b2" fill-rule="evenodd" stroke="none"/>
      <path d="M21.25 16.95 L21.5 17.2 22.1 18.1 22.55 18.8 23.6 20.75 23.4 20.75 Q22.7 20.95 22.05 21.8 L22.0 21.9 20.35 17.9 Q20.75 17.2 21.25 16.95 M20.6 13.55 L19.8 16.7 17.65 12.9 17.65 12.8 18.25 10.5 20.6 13.55" fill="#674227" fill-rule="evenodd" stroke="none"/>
      <path d="M6.65 4.55 L9.35 6.3 Q14.95 10.3 19.2 16.05 L20.95 19.85 Q20.7 21.45 19.0 21.45 L17.4 21.05 17.05 20.9 16.85 20.8 13.1 18.9 Q18.0 22.85 20.7 28.25 22.2 31.15 23.1 33.55 L23.6 34.95 24.1 37.0 23.9 38.9 23.85 39.5 23.75 39.55 23.65 39.6 23.2 39.8 23.0 39.85 23.5 39.55 23.5 37.95 Q23.15 35.75 22.3 33.2 L20.95 29.85 Q18.6 24.7 15.7 21.95 L14.15 20.7 Q11.7 18.9 7.15 16.45 L-1.9 11.75 -1.9 0.45 1.05 1.75 1.35 1.85 Q4.1 3.05 6.65 4.55 M2.35 18.65 L3.45 18.75 0.25 19.9 -1.6 20.5 -1.55 20.6 -0.8 21.45 Q-0.65 21.8 -0.95 22.4 L-1.15 22.7 -1.9 23.4 -1.9 18.55 -0.9 18.55 2.35 18.65 M21.7 39.6 L22.65 40.55 22.65 40.35 23.05 40.7 23.35 40.95 23.5 41.15 23.5 41.2 23.65 41.35 24.15 42.4 Q24.55 43.5 24.55 44.4 L24.3 46.0 24.15 46.5 22.75 46.65 19.05 49.45 18.6 45.85 16.0 43.65 15.95 43.45 15.75 42.0 15.8 40.85 16.05 39.85 16.25 39.2 Q16.8 37.8 17.5 37.35 L18.15 37.55 Q19.75 38.1 21.7 39.6 M21.6 45.4 L21.75 45.6 22.75 46.65 21.75 45.6 21.6 45.4 Q20.6 44.35 20.15 43.0 L17.15 42.8 Q19.3 44.45 21.6 45.4" fill="#fffbff" fill-rule="evenodd" stroke="none"/>
      <path d="M3.45 18.75 L2.35 18.65 Q3.1 18.35 3.1 17.6 3.1 16.4 -1.9 14.35 L-1.9 13.9 Q6.7 17.9 12.05 21.2 13.95 22.55 15.65 24.2 16.75 26.1 17.5 28.05 18.75 31.45 18.75 34.5 L18.7 35.35 18.15 35.3 18.0 35.3 17.2 35.55 Q17.7 34.15 17.35 31.9 L17.15 30.8 Q16.8 29.2 16.05 27.85 L15.15 26.5 13.95 25.2 13.8 25.0 Q13.0 24.25 12.0 23.55 L11.85 23.5 10.45 22.65 9.2 22.1 6.4 19.65 5.95 19.25 5.25 19.0 5.05 18.95 4.85 18.9 3.45 18.75 M8.65 20.3 L6.7 19.2 6.45 19.2 5.35 19.0 5.25 19.0 5.35 19.0 6.45 19.2 6.7 19.2 8.65 20.3 8.85 20.45 9.15 20.0 8.65 20.3 M13.8 24.0 L8.85 20.45 13.8 24.0 M19.8 35.7 L19.9 34.15 20.15 31.7 20.2 31.3 20.2 31.15 20.25 31.25 20.4 31.6 20.75 32.55 20.95 33.05 20.8 34.3 Q20.7 35.3 20.75 36.2 L19.8 35.7 M14.75 41.85 L14.25 40.2 14.25 40.0 Q14.2 38.85 14.4 37.6 L15.85 37.15 Q15.2 38.6 15.2 40.8 L15.2 41.0 15.25 42.4 15.4 43.15 15.0 42.8 14.75 41.85" fill="#696ba4" fill-rule="evenodd" stroke="none"/>
      <path d="M3.45 18.75 L4.85 18.9 5.05 18.95 5.25 19.0 5.95 19.25 6.4 19.65 9.2 22.1 Q7.45 21.35 5.9 21.15 L5.5 21.5 6.45 22.4 Q2.7 20.6 -1.0 20.55 L-1.0 20.7 Q0.2 21.3 0.2 22.6 0.2 23.75 -1.5 24.55 L-1.65 24.4 -1.9 24.2 -1.9 23.4 -1.15 22.7 -0.95 22.4 Q-0.65 21.8 -0.8 21.45 L-1.55 20.6 -1.6 20.5 0.25 19.9 3.45 18.75 M5.9 21.15 L5.15 21.15 5.5 21.5 5.15 21.15 5.9 21.15 M-1.9 14.35 Q3.1 16.4 3.1 17.6 3.1 18.35 2.35 18.65 L-0.9 18.55 -1.9 18.55 -1.9 14.35 M-0.75 30.2 L2.15 28.45 2.45 28.25 3.8 28.55 Q4.15 30.1 4.65 31.3 L3.55 31.7 -1.9 31.75 -1.9 31.55 -1.65 31.3 -0.75 30.2" fill="url(#gradient7)" fill-rule="evenodd" stroke="none"/>
      <path d="M8.55 23.55 L8.35 23.45 8.35 23.4 8.45 23.05 10.05 24.45 10.5 24.85 11.2 25.65 11.3 25.75 11.35 25.8 Q12.5 27.1 13.15 28.35 14.1 30.1 14.1 31.8 L13.85 33.25 13.5 34.05 13.0 35.05 11.6 35.3 10.9 35.25 Q10.95 36.35 12.3 37.25 L12.2 37.4 Q10.1 36.95 8.15 35.4 L7.8 34.8 Q7.35 33.85 7.3 32.95 L7.3 32.9 7.35 32.75 Q8.35 33.6 9.1 33.6 9.7 33.6 9.95 33.25 L10.05 32.75 9.65 31.7 Q10.75 32.0 11.45 31.5 L11.75 31.25 Q12.25 30.5 12.1 29.2 11.95 28.15 11.4 27.1 L10.7 26.0 9.7 24.85 9.55 24.7 8.85 24.2 8.65 23.55 8.55 23.55 M9.05 24.9 L8.85 24.2 9.55 24.7 9.7 24.85 10.7 26.0 11.4 27.1 Q11.95 28.15 12.1 29.2 12.25 30.5 11.75 31.25 L11.45 31.5 Q10.75 32.0 9.65 31.7 L9.05 31.5 Q8.1 31.1 7.3 30.3 L7.25 30.25 6.35 29.25 6.25 29.1 6.5 29.15 6.6 29.0 9.5 26.9 9.5 26.85 9.45 26.6 10.75 27.9 11.1 28.55 11.55 29.45 11.25 28.05 Q10.85 26.9 9.8 25.7 L9.75 25.65 9.05 24.9 M0.6 49.35 L0.55 49.4 0.45 49.45 0.55 49.4 0.6 49.35 0.7 49.3 0.8 49.3 0.75 49.35 0.5 49.6 Q-0.65 50.4 -1.15 51.2 L-1.9 53.1 -1.9 51.25 -1.5 50.85 Q-0.6 50.0 0.4 49.5 L0.45 49.45 0.4 49.45 0.6 49.35 M10.8 54.5 L11.55 52.7 11.7 53.8 11.75 53.9 12.65 54.5 10.8 54.5 M15.1 54.5 L14.95 54.5 15.0 54.45 15.05 54.35 15.45 53.25 15.9 51.85 15.95 51.75 16.85 49.9 17.25 50.4 17.3 50.4 Q16.8 51.5 16.45 52.6 L16.35 52.65 Q15.5 53.45 15.1 54.5" fill="#f2941a" fill-rule="evenodd" stroke="none"/>
      <path d="M-1.5 24.55 Q0.2 23.75 0.2 22.6 0.2 21.3 -1.0 20.7 L-1.0 20.55 Q2.7 20.6 6.45 22.4 7.4 22.85 8.35 23.45 L8.55 23.55 8.65 23.55 8.85 24.2 9.05 24.9 9.45 26.6 9.5 26.85 9.5 26.9 6.6 29.0 6.5 29.15 6.25 29.1 4.3 28.7 3.8 28.55 2.45 28.25 2.15 28.45 0.2 26.95 0.1 26.9 0.05 26.95 -0.2 27.05 -1.6 27.6 -1.9 27.45 -1.9 24.75 -1.5 24.55" fill="url(#gradient8)" fill-rule="evenodd" stroke="none"/>
      <path d="M18.7 35.35 L18.75 34.5 Q18.75 31.45 17.5 28.05 16.75 26.1 15.65 24.2 L15.25 23.55 Q19.35 28.05 21.05 31.7 L21.1 31.75 21.05 31.85 20.95 33.05 20.75 32.55 20.4 31.6 20.25 31.25 20.2 31.15 20.2 31.3 20.15 31.7 19.9 34.15 19.8 35.7 19.8 36.5 19.85 37.0 19.95 37.1 21.9 38.9 21.95 38.95 22.1 39.05 22.2 39.2 22.2 38.65 22.2 38.5 22.65 38.9 22.65 39.55 22.65 39.9 22.65 40.35 22.65 40.55 21.7 39.6 20.35 38.3 18.65 36.55 18.7 35.35" fill="#071738" fill-rule="evenodd" stroke="none"/>
      <path d="M15.65 24.2 Q13.95 22.55 12.05 21.2 6.7 17.9 -1.9 13.9 L-1.9 11.75 7.15 16.45 Q11.7 18.9 14.15 20.7 L15.7 21.95 Q18.6 24.7 20.95 29.85 L22.3 33.2 Q23.15 35.75 23.5 37.95 L23.5 39.55 23.0 39.85 22.65 39.9 22.65 39.55 22.65 38.9 22.85 39.1 22.9 39.1 23.0 39.2 23.15 39.35 23.1 38.8 22.95 37.6 22.75 36.45 22.75 36.3 22.65 35.7 22.45 34.9 21.7 32.7 21.3 31.75 21.2 31.45 21.15 31.3 21.1 31.25 21.1 31.3 21.1 31.5 21.1 31.75 21.05 31.7 Q19.35 28.05 15.25 23.55 L15.65 24.2" fill="url(#gradient9)" fill-rule="evenodd" stroke="none"/>
      <path d="M24.1 37.0 L23.6 34.95 23.1 33.55 Q22.2 31.15 20.7 28.25 18.0 22.85 13.1 18.9 L16.85 20.8 17.05 20.9 17.4 21.05 19.0 21.45 Q20.7 21.45 20.95 19.85 23.65 26.3 24.05 32.8 L24.15 34.1 24.15 35.45 24.1 37.0" fill="#d6e6ff" fill-rule="evenodd" stroke="none"/>
      <path d="M14.6 32.85 L14.8 31.9 14.8 31.2 14.7 29.85 14.65 29.7 13.8 27.95 12.8 26.3 12.85 26.3 Q13.15 26.3 13.4 26.1 13.8 25.8 13.8 25.3 L13.95 25.2 15.15 26.5 16.05 27.85 Q16.8 29.2 17.15 30.8 L17.35 31.9 Q16.85 31.5 16.15 31.5 L15.45 31.75 Q15.1 31.95 14.9 32.4 L14.75 32.9 14.6 32.85 M32.75 29.7 L31.8 28.4 31.6 28.1 31.75 28.15 31.8 28.15 32.25 28.25 33.2 28.45 32.75 29.7 M33.8 28.55 L33.85 28.6 34.3 29.05 Q43.45 38.45 47.35 42.0 42.3 37.65 33.8 31.05 L33.6 30.8 33.5 30.7 33.2 30.3 33.8 28.55 M-1.9 -0.95 L1.05 1.75 -1.9 0.45 -1.9 -0.95" fill="#fefff5" fill-rule="evenodd" stroke="none"/>
      <path d="M9.05 24.9 L9.75 25.65 9.8 25.7 Q10.85 26.9 11.25 28.05 L11.55 29.45 11.1 28.55 10.75 27.9 9.45 26.6 9.05 24.9" fill="#ffccd1" fill-rule="evenodd" stroke="none"/>
      <path d="M17.2 35.55 L18.0 35.3 18.15 35.3 18.7 35.35 18.65 36.55 20.35 38.3 21.7 39.6 Q19.75 38.1 18.15 37.55 L17.5 37.35 Q16.8 37.8 16.25 39.2 L16.05 39.85 15.8 40.85 15.75 42.0 15.95 43.45 16.0 43.65 15.4 43.15 15.25 42.4 15.2 41.0 15.2 40.8 Q15.2 38.6 15.85 37.15 16.75 36.6 17.2 35.55 M19.8 35.7 L20.75 36.2 20.75 36.7 20.75 37.15 20.9 37.25 21.3 37.7 22.2 38.5 22.2 38.65 22.2 39.2 22.1 39.05 21.95 38.95 21.9 38.9 19.95 37.1 19.85 37.0 19.8 36.5 19.8 35.7 M22.65 39.9 L23.0 39.85 23.2 39.8 23.65 39.6 23.5 41.15 23.35 40.95 23.05 40.7 22.65 40.35 22.65 39.9 M24.8 42.4 L26.0 43.6 25.95 43.75 25.05 46.35 25.55 46.35 24.15 46.5 24.3 46.0 24.55 44.4 Q24.55 43.5 24.15 42.4 L23.65 41.35 24.8 42.4" fill="#afc3e8" fill-rule="evenodd" stroke="none"/>
      <path d="M6.25 29.1 L6.35 29.25 7.25 30.25 7.3 30.3 Q8.1 31.1 9.05 31.5 L9.65 31.7 10.05 32.75 9.95 33.25 Q9.7 33.6 9.1 33.6 8.35 33.6 7.35 32.75 L6.7 32.2 6.35 31.8 5.7 30.9 4.3 28.7 6.25 29.1" fill="#fcd147" fill-rule="evenodd" stroke="none"/>
      <path d="M0.05 26.95 L0.2 26.95 2.15 28.45 -0.75 30.2 -1.9 30.7 -1.9 27.7 -1.6 27.6 -0.2 27.05 0.05 26.95" fill="url(#gradient10)" fill-rule="evenodd" stroke="none"/>
      <path d="M7.35 32.75 L7.3 32.9 7.3 32.95 Q7.35 33.85 7.8 34.8 L8.15 35.4 7.65 35.05 5.5 32.85 5.5 32.8 5.45 32.75 4.65 31.3 Q4.15 30.1 3.8 28.55 L4.3 28.7 5.7 30.9 6.35 31.8 6.7 32.2 7.35 32.75 M13.95 48.0 L14.15 47.65 14.45 47.15 14.95 47.75 16.85 49.9 15.95 51.75 15.9 51.85 15.8 52.05 15.3 52.4 14.85 52.1 14.15 51.6 13.75 51.35 12.7 50.25 13.95 48.0" fill="#654200" fill-rule="evenodd" stroke="none"/>
      <path d="M8.15 35.4 Q10.1 36.95 12.2 37.4 L12.75 37.55 13.85 37.65 14.4 37.6 Q14.2 38.85 14.25 40.0 L14.25 40.2 14.75 41.85 Q13.65 43.9 13.45 46.55 L13.4 46.75 13.45 46.55 14.15 47.65 13.95 48.0 12.5 47.65 10.6 47.2 10.55 47.15 8.55 46.4 7.5 45.95 5.8 45.05 3.9 47.25 3.75 47.4 3.7 48.45 Q1.9 48.7 0.9 49.25 L0.85 49.25 0.7 49.3 0.6 49.35 0.4 49.45 0.45 49.45 0.4 49.5 Q-0.6 50.0 -1.5 50.85 L-1.9 51.25 -1.9 46.8 Q1.3 45.35 3.9 42.75 L4.35 42.3 4.5 42.15 4.8 42.4 4.5 42.15 -1.2 36.0 -1.9 35.25 -1.9 31.75 3.55 31.7 4.65 31.3 5.45 32.75 5.5 32.8 5.5 32.85 7.65 35.05 8.15 35.4 M4.85 42.45 L6.9 43.8 6.95 43.85 7.45 44.1 8.05 44.4 9.05 44.9 10.85 45.55 12.85 46.05 13.0 45.25 13.45 42.95 Q13.45 40.45 12.15 39.45 11.4 38.9 10.2 38.8 L9.8 38.8 Q8.3 38.8 6.95 39.8 L6.75 39.95 6.05 40.6 5.4 41.45 4.8 42.4 4.85 42.45 M13.4 46.75 L12.7 46.6 10.65 46.05 10.6 46.05 8.95 45.4 8.9 45.4 7.9 44.9 6.7 44.4 6.55 44.25 4.45 43.1 3.9 42.75 4.45 43.1 6.55 44.25 6.7 44.4 7.9 44.9 8.9 45.4 8.95 45.4 10.6 46.05 10.65 46.05 12.7 46.6 13.4 46.75" fill="#7069af" fill-rule="evenodd" stroke="none"/>
      <path d="M4.8 42.4 L5.4 41.45 6.05 40.6 6.75 39.95 6.95 39.8 Q8.3 38.8 9.8 38.8 L10.2 38.8 Q11.4 38.9 12.15 39.45 13.45 40.45 13.45 42.95 L13.0 45.25 12.85 46.05 10.85 45.55 9.05 44.9 8.05 44.4 7.45 44.1 6.95 43.85 6.9 43.8 4.85 42.45 4.8 42.4 M3.7 48.45 L3.75 47.4 3.9 47.25 5.8 45.05 7.5 45.95 8.55 46.4 10.55 47.15 10.55 47.2 10.6 47.2 12.5 47.65 13.95 48.0 12.7 50.25 11.55 52.7 10.8 54.5 9.6 54.5 10.05 51.95 10.3 49.25 Q9.9 48.8 9.15 48.55 L7.6 48.2 6.75 48.1 6.7 48.1 6.55 48.2 6.35 48.25 6.2 49.6 6.2 50.1 6.05 53.45 5.95 53.55 Q6.35 54.15 7.35 54.45 L7.5 54.5 6.3 54.5 4.4 53.4 4.35 53.35 4.35 53.15 Q4.1 51.85 4.4 50.65 4.7 49.35 5.55 48.1 L4.5 48.3 3.7 48.45 M9.0 44.45 L11.0 44.9 Q11.8 42.7 11.8 41.1 L11.7 39.9 11.65 39.9 10.9 39.65 Q10.35 39.65 9.65 40.2 8.6 41.1 7.2 43.4 L8.2 44.1 9.0 44.45" fill="#5697d7" fill-rule="evenodd" stroke="none"/>
      <path d="M4.5 42.15 L4.35 42.3 3.9 42.75 Q1.3 45.35 -1.9 46.8 L-1.9 44.9 -1.05 44.3 0.5 42.9 0.55 42.85 Q0.1 40.8 -1.65 37.6 L-1.9 37.15 -1.9 35.9 -1.9 35.25 -1.2 36.0 4.5 42.15 M-1.2 36.0 L-1.9 35.9 -1.2 36.0" fill="#6576ec" fill-rule="evenodd" stroke="none"/>
      <path d="M-1.9 37.15 L-1.65 37.6 Q0.1 40.8 0.55 42.85 L0.5 42.9 -1.05 44.3 -1.9 44.9 -1.9 37.15" fill="url(#gradient11)" fill-rule="evenodd" stroke="none"/>
      <path d="M0.5 49.6 L0.75 49.35 0.8 49.3 0.85 49.25 0.9 49.25 Q1.9 48.7 3.7 48.45 L4.5 48.3 5.55 48.1 Q4.7 49.35 4.4 50.65 4.1 51.85 4.35 53.15 L4.35 53.35 4.4 53.4 6.3 54.5 5.0 54.5 4.15 54.25 3.8 54.2 2.7 54.0 1.05 53.95 0.95 53.85 Q0.65 53.55 0.5 53.05 L0.45 52.85 0.2 51.55 Q0.2 50.8 0.5 49.6" fill="#edef8e" fill-rule="evenodd" stroke="none"/>
      <path d="M-1.9 53.1 L-1.15 51.2 Q-0.65 50.4 0.5 49.6 0.2 50.8 0.2 51.55 L0.45 52.85 0.5 53.05 Q0.65 53.55 0.95 53.85 L1.05 53.95 2.7 54.0 3.8 54.2 4.15 54.25 5.0 54.5 -1.9 54.5 -1.9 53.1 M0.8 49.3 L0.7 49.3 0.85 49.25 0.8 49.3" fill="#f9e335" fill-rule="evenodd" stroke="none"/>
      <path d="M7.5 54.5 L7.35 54.45 Q6.35 54.15 5.95 53.55 L6.05 53.45 6.2 50.1 6.2 49.6 6.35 48.25 6.55 48.2 6.7 48.1 6.75 48.1 7.6 48.2 9.15 48.55 Q9.9 48.8 10.3 49.25 L10.05 51.95 9.6 54.5 7.5 54.5 M9.0 44.45 L8.2 44.1 7.2 43.4 Q8.6 41.1 9.65 40.2 10.35 39.65 10.9 39.65 L11.65 39.9 11.7 39.9 11.8 41.1 Q11.8 42.7 11.0 44.9 L9.0 44.45" fill="#8ab0f7" fill-rule="evenodd" stroke="none"/>
      <path d="M22.95 37.6 L23.1 38.8 23.15 39.35 23.0 39.2 22.9 39.1 22.85 39.1 22.65 38.9 22.2 38.5 21.3 37.7 20.9 37.25 20.75 37.15 20.75 36.7 20.8 36.75 21.45 37.5 22.1 37.75 22.25 37.75 22.55 37.75 22.6 37.75 22.95 37.6 M21.6 45.4 Q19.3 44.45 17.15 42.8 L20.15 43.0 Q20.6 44.35 21.6 45.4" fill="#ffffff" fill-rule="evenodd" stroke="none"/>
      <path d="M21.1 31.5 L21.1 31.3 21.1 31.25 21.15 31.3 21.2 31.45 21.3 31.75 21.7 32.7 22.45 34.9 22.65 35.7 22.45 35.7 22.35 35.75 Q22.05 35.8 21.85 36.0 L21.75 36.1 21.55 36.65 21.5 36.75 21.55 36.7 21.75 36.45 21.9 36.4 22.4 36.25 22.45 36.25 22.75 36.3 22.75 36.45 22.95 37.6 22.6 37.75 22.55 37.75 22.05 37.5 21.55 36.9 21.5 36.85 21.5 36.8 21.45 36.65 21.4 36.2 Q21.4 35.9 21.55 35.55 L21.65 35.4 21.8 35.1 21.7 33.5 21.65 33.1 21.55 32.75 21.2 31.8 21.1 31.5" fill="#4ea8e7" fill-rule="evenodd" stroke="none"/>
      <path d="M20.75 36.2 Q20.7 35.3 20.8 34.3 L20.95 33.05 21.05 31.85 21.1 31.75 21.1 31.5 21.2 31.8 21.55 32.75 21.65 33.1 21.7 33.5 21.8 35.1 21.65 35.4 21.55 35.55 Q21.4 35.9 21.4 36.2 L21.45 36.65 21.5 36.8 21.5 36.85 21.55 36.9 22.05 37.5 22.55 37.75 22.25 37.75 22.1 37.75 21.45 37.5 20.8 36.75 20.75 36.7 20.75 36.2" fill="#6be6db" fill-rule="evenodd" stroke="none"/>
      <path d="M22.65 35.7 L22.75 36.3 22.45 36.25 22.4 36.25 21.9 36.4 21.75 36.45 21.55 36.7 21.5 36.75 21.55 36.65 21.75 36.1 21.85 36.0 Q22.05 35.8 22.35 35.75 L22.45 35.7 22.65 35.7" fill="#256fa3" fill-rule="evenodd" stroke="none"/>
      <path d="M17.7 50.65 L18.6 51.4 18.25 51.5 17.7 50.65" fill="url(#gradient12)" fill-rule="evenodd" stroke="none"/>
      <path d="M17.35 50.3 L17.7 50.65 18.25 51.5 Q17.25 51.8 16.45 52.6 16.8 51.5 17.3 50.4 L17.35 50.3" fill="url(#gradient13)" fill-rule="evenodd" stroke="none"/>
      <path d="M-1.6 27.6 L-1.9 27.7 -1.9 27.45 -1.6 27.6" fill="#f4f6e1" fill-rule="evenodd" stroke="none"/>
      <path d="M5.9 -1.4 L8.9 1.95 10.65 3.95 M11.25 -1.35 L11.25 -1.4 M35.1 26.75 L37.05 26.5 38.25 29.7 Q42.6 35.95 46.85 41.05 L47.5 41.85 47.55 41.85 48.7 43.15 50.05 44.65 Q54.2 49.25 58.3 52.85 L58.5 52.95 58.85 53.15 M22.8 -1.4 L21.8 -0.15 M29.4 -0.15 L29.25 -1.2 29.2 -1.4 M30.45 37.3 L32.85 32.65 M32.9 32.55 L33.3 33.0 Q45.95 45.9 58.3 52.85 M26.7 5.2 L26.5 5.0 26.25 5.55 25.5 7.1 23.9 10.9 23.85 10.95 23.7 11.4 22.9 13.55 22.3 15.45 22.25 15.6 22.1 16.25 22.55 16.75 Q25.8 21.0 29.35 34.35 L30.0 36.85 30.05 37.3 30.15 37.6 30.2 37.55 M28.95 29.6 L28.85 27.6 M28.85 27.5 L31.15 24.3 31.45 23.9 32.35 22.65 33.85 25.1 34.95 26.85 M24.8 3.65 L24.7 3.85 24.15 4.9 23.85 5.4 23.4 6.4 23.35 6.5 22.4 8.6 21.8 10.1 20.95 12.5 20.9 12.7 20.6 13.55 19.8 16.7 20.35 17.9 22.0 21.9 23.25 26.0 Q24.05 29.2 24.5 32.6 L24.05 32.8 M26.5 5.0 L25.05 3.4 24.8 3.65 M29.4 -0.15 L31.55 12.4 M14.5 8.45 L14.25 8.2 13.6 7.4 12.0 5.5 M-1.5 24.55 Q0.2 23.75 0.2 22.6 0.2 21.3 -1.0 20.7 M-1.0 20.55 Q2.7 20.6 6.45 22.4 L5.5 21.5 5.15 21.15 5.9 21.15 Q7.45 21.35 9.2 22.1 L10.45 22.65 11.85 23.5 12.0 23.55 Q13.0 24.25 13.8 25.0 L13.95 25.2 15.15 26.5 16.05 27.85 Q16.8 29.2 17.15 30.8 L17.35 31.9 Q17.7 34.15 17.2 35.55 16.75 36.6 15.85 37.15 L14.4 37.6 13.85 37.65 12.75 37.55 12.2 37.4 Q10.1 36.95 8.15 35.4 L7.65 35.05 5.5 32.85 5.5 32.8 5.45 32.75 4.65 31.3 Q4.15 30.1 3.8 28.55 L4.3 28.7 6.25 29.1 6.5 29.15 M8.55 23.55 L8.35 23.45 Q7.4 22.85 6.45 22.4 M9.05 24.9 L8.85 24.2 8.65 23.55 M17.65 12.9 L17.4 12.55 14.5 8.45 M19.8 16.7 L17.65 12.9 M9.45 26.6 L9.5 26.85 9.5 26.9 6.6 29.0 M9.45 26.6 L9.05 24.9 M-1.9 30.7 L-0.75 30.2 2.15 28.45 2.45 28.25 3.8 28.55 M0.45 49.45 L0.55 49.4 0.6 49.35 0.7 49.3 0.8 49.3 0.85 49.25 0.9 49.25 Q1.9 48.7 3.7 48.45 L4.5 48.3 5.55 48.1 Q4.7 49.35 4.4 50.65 4.1 51.85 4.35 53.15 M0.45 49.45 L0.4 49.5 Q-0.6 50.0 -1.5 50.85 L-1.9 51.25 M13.95 48.0 L14.15 47.65 14.45 47.15 14.6 46.95 15.1 47.3 16.05 47.9 Q18.4 49.4 20.35 51.25 M10.8 54.5 L11.55 52.7 12.7 50.25 13.95 48.0 M21.55 51.45 L21.4 51.2 21.3 51.0 20.8 50.25 Q21.25 50.4 21.7 50.7 L22.55 51.3 23.95 52.75 24.1 52.9 M24.1 52.95 L25.2 54.5 M17.35 50.3 L17.7 50.65 18.6 51.4 M24.8 42.4 L26.0 43.6 25.95 43.75 25.05 46.35 25.55 46.35 28.4 46.1 28.5 45.95 M31.55 39.15 L33.3 33.0 M23.5 41.15 L23.5 41.2 23.65 41.35 24.8 42.4 M23.65 39.6 L23.5 41.15 M28.55 45.95 Q30.25 42.8 31.45 39.4 M16.1 6.55 L20.95 12.5 M17.35 50.3 L17.3 50.4 Q16.8 51.5 16.45 52.6 M6.3 54.5 L4.4 53.4 4.35 53.35 M-1.5 24.55 L-1.9 24.75" fill="none" stroke="#933918" stroke-linecap="round" stroke-linejoin="round" stroke-width="1.0"/>
      <path d="M21.8 -0.15 L20.65 -1.4 M21.8 -0.15 L23.25 1.55 24.55 3.35 M27.05 5.6 L28.6 7.6 29.6 9.1 31.55 12.4 32.15 13.55 32.3 13.9 M27.05 5.6 L26.7 5.2 M33.85 25.1 L33.85 24.5 Q33.75 18.7 32.4 13.95 M24.8 3.65 L24.6 3.4" fill="none" stroke="#1b183c" stroke-linecap="round" stroke-linejoin="round" stroke-width="1.0"/>
      <path d="M6.65 4.55 L9.35 6.3 Q14.95 10.3 19.2 16.05 L20.95 19.85 Q23.65 26.3 24.05 32.8 L24.15 34.1 24.15 35.45 24.1 37.0 23.9 38.9 23.85 39.5 M34.1 -1.4 Q35.75 1.9 36.8 5.4 M36.8 5.6 Q38.25 17.25 35.1 26.75 M1.05 1.75 L1.35 1.85 Q4.1 3.05 6.65 4.55 M2.35 18.65 L3.45 18.75 4.85 18.9 5.05 18.95 5.25 19.0 5.35 19.0 6.45 19.2 6.7 19.2 8.65 20.3 8.85 20.45 13.8 24.0 M2.35 18.65 L-0.9 18.55 -1.9 18.55 M15.65 24.2 Q13.95 22.55 12.05 21.2 6.7 17.9 -1.9 13.9 M-1.9 31.75 L3.55 31.7 4.65 31.3 M4.85 42.45 L4.8 42.4 4.5 42.15 -1.2 36.0 -1.9 35.25 M4.35 42.3 L3.9 42.75 Q1.3 45.35 -1.9 46.8 M14.75 41.85 L14.25 40.2 M14.25 40.0 Q14.2 38.85 14.4 37.6 M16.0 43.65 L18.6 45.85 19.05 49.45 22.75 46.65 21.75 45.6 21.6 45.4 Q19.3 44.45 17.15 42.8 L20.15 43.0 Q20.6 44.35 21.6 45.4 M14.75 41.85 L15.0 42.8 15.4 43.15 16.0 43.65 M22.75 46.65 L24.15 46.5 25.55 46.35 M1.05 1.75 L-1.9 0.45" fill="none" stroke="#424d8c" stroke-linecap="round" stroke-linejoin="round" stroke-width="1.0"/>
      <path d="M9.65 31.7 Q10.75 32.0 11.45 31.5 L11.75 31.25 Q12.25 30.5 12.1 29.2 11.95 28.15 11.4 27.1 L10.7 26.0 9.7 24.85 9.55 24.7 8.85 24.2 M6.25 29.1 L6.35 29.25 7.25 30.25 7.3 30.3 Q8.1 31.1 9.05 31.5 L9.65 31.7" fill="none" stroke="#660000" stroke-linecap="round" stroke-linejoin="round" stroke-width="1.0"/>
      <path d="M3.9 42.75 L4.45 43.1 6.55 44.25 6.7 44.4 7.9 44.9 8.9 45.4 8.95 45.4 10.6 46.05 10.65 46.05 12.7 46.6 13.4 46.75" fill="none" stroke="#452451" stroke-linecap="round" stroke-linejoin="round" stroke-width="0.5"/>
      <path d="M13.4 46.75 L13.45 46.55 Q13.65 43.9 14.75 41.85 M14.15 47.65 L13.45 46.55" fill="none" stroke="#452451" stroke-linecap="round" stroke-linejoin="round" stroke-width="1.0"/>
      <path d="M28.35 43.5 L27.7 41.45 25.75 36.95 24.15 34.1 M28.35 43.5 L28.5 43.95 31.45 39.4 31.55 39.15" fill="none" stroke="#933918" stroke-linecap="round" stroke-linejoin="round" stroke-width="0.5"/>
      <path d="M-1.9 35.9 L-1.2 36.0" fill="none" stroke="#424d8c" stroke-linecap="round" stroke-linejoin="round" stroke-width="0.5"/>
    </g>
    <linearGradient gradientTransform="matrix(-0.0032, -0.0329, -0.0334, 0.0034, -38.7, -28.05)" gradientUnits="userSpaceOnUse" id="gradient0" spreadMethod="pad" x1="-819.2" x2="819.2">
      <stop offset="0.0" stop-color="#edae67"/>
      <stop offset="1.0" stop-color="#fafca9"/>
    </linearGradient>
    <linearGradient gradientTransform="matrix(0.0153, 0.0396, 0.3527, -0.1357, -38.5, 37.5)" gradientUnits="userSpaceOnUse" id="gradient1" spreadMethod="pad" x1="-819.2" x2="819.2">
      <stop offset="0.0" stop-color="#fda63c"/>
      <stop offset="1.0" stop-color="#eded1b"/>
    </linearGradient>
    <linearGradient gradientTransform="matrix(-0.0077, -0.0044, -0.1861, 0.3281, 44.0, -44.65)" gradientUnits="userSpaceOnUse" id="gradient2" spreadMethod="pad" x1="-819.2" x2="819.2">
      <stop offset="0.0" stop-color="#4b6cb1"/>
      <stop offset="0.3333333333333333" stop-color="#8bbb34"/>
      <stop offset="0.6470588235294118" stop-color="#88c247"/>
      <stop offset="0.9215686274509803" stop-color="#c9d921"/>
    </linearGradient>
    <linearGradient gradientTransform="matrix(-0.0155, -0.017, -0.2789, 0.2544, 142.0, -53.1)" gradientUnits="userSpaceOnUse" id="gradient3" spreadMethod="pad" x1="-819.2" x2="819.2">
      <stop offset="0.0" stop-color="#fda63c"/>
      <stop offset="1.0" stop-color="#eded1b"/>
    </linearGradient>
    <linearGradient gradientTransform="matrix(0.0012, 0.009, 0.3744, -0.0492, -108.55, 40.15)" gradientUnits="userSpaceOnUse" id="gradient4" spreadMethod="pad" x1="-819.2" x2="819.2">
      <stop offset="0.0" stop-color="#fda63c"/>
      <stop offset="1.0" stop-color="#eded1b"/>
    </linearGradient>
    <linearGradient gradientTransform="matrix(-2.0E-4, -0.0176, -0.3783, 0.0036, 99.85, 18.2)" gradientUnits="userSpaceOnUse" id="gradient5" spreadMethod="pad" x1="-819.2" x2="819.2">
      <stop offset="0.0" stop-color="#e49495"/>
      <stop offset="0.3333333333333333" stop-color="#b974c5"/>
      <stop offset="0.8392156862745098" stop-color="#5162b4"/>
    </linearGradient>
    <linearGradient gradientTransform="matrix(-0.0029, -0.0038, -0.3013, 0.2278, 70.75, -20.75)" gradientUnits="userSpaceOnUse" id="gradient6" spreadMethod="pad" x1="-819.2" x2="819.2">
      <stop offset="0.0" stop-color="#d5dcee"/>
      <stop offset="0.8274509803921568" stop-color="#9dc3f0"/>
    </linearGradient>
    <linearGradient gradientTransform="matrix(0.0101, 0.0057, 0.1852, -0.3293, -26.45, 77.55)" gradientUnits="userSpaceOnUse" id="gradient7" spreadMethod="pad" x1="-819.2" x2="819.2">
      <stop offset="0.0" stop-color="#c8b4c8"/>
      <stop offset="0.9215686274509803" stop-color="#8ba1de"/>
    </linearGradient>
    <linearGradient gradientTransform="matrix(0.0206, -1.0E-4, -0.0014, -0.3775, -12.05, 150.55)" gradientUnits="userSpaceOnUse" id="gradient8" spreadMethod="pad" x1="-819.2" x2="819.2">
      <stop offset="0.0" stop-color="#fda63c"/>
      <stop offset="1.0" stop-color="#eded1b"/>
    </linearGradient>
    <linearGradient gradientTransform="matrix(0.0115, 0.0322, 0.0321, -0.0114, -3.6, 12.6)" gradientUnits="userSpaceOnUse" id="gradient9" spreadMethod="pad" x1="-819.2" x2="819.2">
      <stop offset="0.0" stop-color="#c8b5c8"/>
      <stop offset="1.0" stop-color="#ceafd1"/>
    </linearGradient>
    <linearGradient gradientTransform="matrix(0.0174, 0.0032, 0.0676, -0.372, -18.2, 102.35)" gradientUnits="userSpaceOnUse" id="gradient10" spreadMethod="pad" x1="-819.2" x2="819.2">
      <stop offset="0.0" stop-color="#e79748"/>
      <stop offset="0.9921568627450981" stop-color="#ede81c"/>
    </linearGradient>
    <linearGradient gradientTransform="matrix(0.03, 0.0168, 0.1852, -0.3293, -95.3, 169.05)" gradientUnits="userSpaceOnUse" id="gradient11" spreadMethod="pad" x1="-819.2" x2="819.2">
      <stop offset="0.0" stop-color="#c8b4c8"/>
      <stop offset="0.9215686274509803" stop-color="#8ba1de"/>
    </linearGradient>
    <linearGradient gradientTransform="matrix(-0.0028, -0.0084, -0.3575, 0.1184, 122.85, 21.15)" gradientUnits="userSpaceOnUse" id="gradient12" spreadMethod="pad" x1="-819.2" x2="819.2">
      <stop offset="0.0" stop-color="#4b6cb1"/>
      <stop offset="0.3333333333333333" stop-color="#8bbb34"/>
      <stop offset="0.6470588235294118" stop-color="#88c247"/>
      <stop offset="0.9215686274509803" stop-color="#c9d921"/>
    </linearGradient>
    <linearGradient gradientTransform="matrix(0.0018, 0.0045, 0.3495, -0.1432, -78.95, 94.55)" gradientUnits="userSpaceOnUse" id="gradient13" spreadMethod="pad" x1="-819.2" x2="819.2">
      <stop offset="0.0" stop-color="#f9e335"/>
      <stop offset="0.9921568627450981" stop-color="#89be3c"/>
    </linearGradient>
    <g id="shape2" transform="matrix(1.0, 0.0, 0.0, 1.0, 0.0, 0.0)">
      <path d="M50.5 0.0 Q53.95 0.0 53.95 3.3 L53.95 50.15 Q53.95 53.4 50.5 53.4 L3.3 53.4 Q0.0 53.4 0.0 50.15 L0.0 3.3 Q0.0 0.0 3.3 0.0 L50.5 0.0" fill="#000000" fill-opacity="0.003921569" fill-rule="evenodd" stroke="none"/>
    </g>
  </defs>
</svg>
