<?xml version="1.0" encoding="UTF-8" standalone="no"?>
<svg xmlns:ffdec="https://www.free-decompiler.com/flash" xmlns:xlink="http://www.w3.org/1999/xlink" ffdec:objectType="frame" height="59.75px" width="60.1px" xmlns="http://www.w3.org/2000/svg">
  <g transform="matrix(1.0, 0.0, 0.0, 1.0, 2.4, 4.75)">
    <clipPath id="clipPath0" transform="matrix(1.0, 0.0, 0.0, 1.0, 0.0, 0.0)">
      <path d="M50.5 0.0 Q53.95 0.0 53.95 3.3 L53.95 50.15 Q53.95 53.4 50.5 53.4 L3.3 53.4 Q0.0 53.4 0.0 50.15 L0.0 3.3 Q0.0 0.0 3.3 0.0 L50.5 0.0" fill="#000000" fill-rule="evenodd" stroke="none"/>
    </clipPath>
    <g clip-path="url(#clipPath0)">
      <use ffdec:characterId="2" height="59.55" transform="matrix(1.0, 0.0, 0.0, 1.0, -2.4, -4.55)" width="59.8" xlink:href="#shape1"/>
      <filter id="filter0">
        <feConvolveMatrix divisor="100.0" in="SourceGraphic" kernelMatrix="1 1 1 1 1 1 1 1 1 1 1 1 1 1 1 1 1 1 1 1 1 1 1 1 1 1 1 1 1 1 1 1 1 1 1 1 1 1 1 1 1 1 1 1 1 1 1 1 1 1 1 1 1 1 1 1 1 1 1 1 1 1 1 1 1 1 1 1 1 1 1 1 1 1 1 1 1 1 1 1 1 1 1 1 1 1 1 1 1 1 1 1 1 1 1 1 1 1 1 1" order="10 10" result="filterResult0"/>
        <feColorMatrix in="filterResult0" result="filterResult1" type="matrix" values="0 0 0 0 0.0,0 0 0 0 0.2,0 0 0 0 1.0,0 0 0 1 0"/>
        <feConvolveMatrix divisor="25.0" in="filterResult1" kernelMatrix="1 1 1 1 1 1 1 1 1 1 1 1 1 1 1 1 1 1 1 1 1 1 1 1 1" order="5 5" result="filterResult2"/>
        <feComposite in="filterResult0" in2="filterResult2" operator="over" result="filterResult3"/>
      </filter>
      <use ffdec:characterId="4" filter="url(#filter0)" height="88.0" style="mix-blend-mode: lighten" transform="matrix(-0.3901, 0.0, 0.0, 0.3901, 57.7, -4.75)" width="92.4" xlink:href="#sprite0"/>
      <use ffdec:characterId="5" height="21.45" transform="matrix(1.0, 0.0, 0.0, 1.0, 8.8, 17.3)" width="20.05" xlink:href="#shape3"/>
      <use ffdec:characterId="9" height="40.75" style="mix-blend-mode: screen" transform="matrix(-0.3439, 0.0, 0.0, 0.3439, 41.2799, 15.4615)" width="16.55" xlink:href="#sprite1"/>
      <use ffdec:characterId="9" height="40.75" style="mix-blend-mode: screen" transform="matrix(-0.1805, 0.0, 0.0, 0.1805, 23.2584, 20.6284)" width="16.55" xlink:href="#sprite1"/>
      <use ffdec:characterId="10" height="12.05" transform="matrix(1.0, 0.0, 0.0, 1.0, 14.55, 22.6)" width="7.5" xlink:href="#shape6"/>
      <use ffdec:characterId="9" height="40.75" style="mix-blend-mode: screen" transform="matrix(-0.1805, 0.0, 0.0, 0.1805, 34.4084, 13.8784)" width="16.55" xlink:href="#sprite1"/>
      <use ffdec:characterId="9" height="40.75" style="mix-blend-mode: screen" transform="matrix(-0.1805, 0.0, 0.0, 0.1805, 21.7084, 45.4284)" width="16.55" xlink:href="#sprite1"/>
      <filter id="filter2">
        <feConvolveMatrix divisor="25.0" in="SourceGraphic" kernelMatrix="1 1 1 1 1 1 1 1 1 1 1 1 1 1 1 1 1 1 1 1 1 1 1 1 1" order="5 5" result="filterResult8"/>
      </filter>
      <use ffdec:characterId="12" filter="url(#filter2)" height="35.8" style="mix-blend-mode: overlay" transform="matrix(0.3375, 0.0, 0.0, 0.3375, 14.9, 22.15)" width="22.15" xlink:href="#sprite3"/>
    </g>
    <use ffdec:characterId="13" height="53.4" transform="matrix(1.0, 0.0, 0.0, 1.0, 0.0, 0.0)" width="53.95" xlink:href="#shape8"/>
  </g>
  <defs>
    <g id="shape1" transform="matrix(1.0, 0.0, 0.0, 1.0, 2.4, 4.55)">
      <path d="M24.15 28.7 L25.85 29.4 Q27.5 33.9 31.75 34.45 L31.8 34.45 Q35.45 34.75 36.25 31.7 37.4 36.0 33.3 38.65 28.0 40.4 22.25 34.85 L22.2 33.5 23.55 34.85 Q27.4 38.4 30.8 38.4 32.55 38.4 34.15 37.1 35.95 35.6 35.95 33.3 L35.7 33.7 34.85 34.6 33.9 34.95 32.5 35.25 29.85 34.75 Q28.25 34.15 27.6 33.6 L25.85 32.15 Q24.7 31.1 24.3 29.4 L24.15 28.7" fill="#4196f5" fill-rule="evenodd" stroke="none"/>
      <path d="M24.15 28.7 L24.3 29.4 Q24.7 31.1 25.85 32.15 L27.6 33.6 Q28.25 34.15 29.85 34.75 L32.5 35.25 33.9 34.95 34.85 34.6 35.7 33.7 35.95 33.3 Q35.95 35.6 34.15 37.1 32.55 38.4 30.8 38.4 27.4 38.4 23.55 34.85 L22.2 33.5 22.0 27.9 24.15 28.7" fill="#4e79fa" fill-rule="evenodd" stroke="none"/>
      <path d="M22.2 33.5 L22.25 34.85 Q28.0 40.4 33.3 38.65 37.4 36.0 36.25 31.7 35.45 34.75 31.8 34.45 L31.75 34.45 Q27.5 33.9 25.85 29.4 L24.15 28.7 22.0 27.9 22.2 33.5 Z" fill="none" stroke="#175498" stroke-linecap="round" stroke-linejoin="round" stroke-width="1.0"/>
      <path d="M0.95 -0.35 L1.75 -0.35 6.7 4.1 Q10.0 7.25 12.1 10.1 15.8 15.25 18.45 24.25 16.7 26.15 13.5 27.7 L15.4 32.55 15.1 33.05 13.85 34.3 8.85 32.95 0.95 30.35 0.95 5.2 2.1 7.15 2.25 7.7 2.85 8.35 2.1 7.15 1.15 3.35 0.95 2.55 0.95 -0.35" fill="#4f7cff" fill-opacity="0.3019608" fill-rule="evenodd" stroke="none"/>
      <path d="M2.95 44.7 L2.4 46.05 1.3 45.55 1.3 42.5 2.95 44.7 M1.3 39.45 L1.3 39.35 1.65 39.35 1.3 39.45 M1.3 36.9 L1.3 36.7 2.0 36.8 1.3 36.9 M1.3 35.7 L1.3 35.45 1.3 34.25 Q2.85 35.1 4.3 35.55 L2.05 35.6 1.3 35.7 M1.3 33.6 L1.3 31.65 1.3 28.75 1.3 24.2 3.85 25.25 3.35 24.35 Q2.2 22.35 1.4 20.4 L1.3 20.25 1.3 18.45 1.65 18.6 2.3 18.85 3.1 19.25 9.1 22.7 9.35 22.85 9.2 22.3 8.5 18.55 8.4 18.0 Q7.8 17.05 6.7 16.2 5.65 15.4 4.35 14.95 L4.25 14.95 3.4 14.7 2.5 14.6 2.3 14.6 1.85 14.65 Q1.3 15.25 1.4 15.8 L1.3 15.75 1.3 12.95 1.7 13.0 3.55 13.6 4.2 13.85 5.75 14.7 6.25 15.0 7.8 16.05 9.6 17.5 10.1 18.0 Q14.25 21.4 16.15 25.2 L17.05 31.35 Q14.9 27.0 10.25 23.5 L9.35 22.85 10.25 23.5 Q14.9 27.0 17.05 31.35 L17.5 34.1 17.6 34.9 16.15 33.9 16.0 34.1 Q15.5 35.25 15.6 35.95 15.05 34.0 12.65 32.25 L12.4 32.15 Q8.85 27.95 4.5 25.6 L3.85 25.25 4.5 25.6 Q8.85 27.95 12.4 32.15 9.2 30.45 5.65 30.2 L5.55 30.2 Q6.45 31.75 8.0 33.15 5.15 32.2 2.45 31.8 L1.3 31.65 2.45 31.8 Q5.15 32.2 8.0 33.15 L8.35 33.45 Q5.15 32.6 1.3 33.6 M12.05 25.5 L9.45 23.35 9.05 23.0 Q6.75 21.35 3.9 19.95 L3.7 19.9 2.9 19.65 2.7 19.65 1.95 19.6 3.45 20.4 5.2 21.4 8.8 23.9 9.85 24.7 Q14.05 28.25 16.6 32.7 L15.85 30.1 Q14.35 27.65 12.1 25.55 L12.05 25.5 M1.3 28.75 L1.7 28.85 5.65 30.2 1.7 28.85 1.3 28.75 M2.05 35.6 L1.3 35.45 2.05 35.6" fill="#ddfaa3" fill-rule="evenodd" stroke="none"/>
      <path d="M1.3 12.35 L1.3 9.1 3.9 12.2 3.55 13.6 1.7 13.0 1.3 12.35 M3.35 16.05 L2.95 15.45 2.75 15.1 2.5 14.6 3.4 14.7 3.35 16.05 M12.7 15.55 L13.9 18.5 11.1 16.1 10.5 15.4 10.35 15.05 9.95 13.05 Q9.95 12.15 8.05 8.3 11.55 12.7 12.7 15.55" fill="#f6ffe7" fill-rule="evenodd" stroke="none"/>
      <path d="M21.15 21.15 L22.8 23.85 22.85 23.9 23.15 24.6 23.55 25.4 24.15 27.75 24.15 27.8 23.7 27.35 22.5 26.45 22.3 26.25 22.05 26.6 20.9 28.2 20.85 28.35 20.15 29.75 20.0 30.5 19.85 29.95 19.8 29.65 19.8 29.6 19.7 29.35 19.45 27.5 19.45 25.4 19.7 24.7 21.15 21.15 M24.0 28.4 L24.3 29.95 24.4 31.7 24.15 33.35 24.1 33.45 24.0 33.25 23.5 32.2 23.2 32.5 Q22.25 33.6 21.8 34.5 L21.65 34.95 21.6 35.05 21.45 35.3 21.45 35.35 21.15 34.45 20.8 33.0 20.75 32.75 20.7 32.2 20.6 31.1 20.6 31.0 20.95 29.9 21.55 28.5 22.55 26.9 23.65 28.0 24.0 28.4 M16.0 43.5 L15.8 43.0 16.6 42.25 16.9 41.95 Q18.0 40.7 18.2 36.65 L18.15 31.55 18.25 31.65 18.45 31.75 18.7 35.65 18.7 37.3 Q18.55 39.0 18.05 40.35 17.35 42.2 16.0 43.5 M14.7 14.6 Q18.0 17.45 19.6 20.7 L20.05 21.7 19.7 22.65 19.3 23.6 19.25 23.75 19.15 23.9 18.95 24.5 18.9 24.6 Q18.55 25.55 18.3 27.05 L18.25 27.2 18.25 27.25 17.9 29.75 17.85 29.0 17.7 27.45 17.65 26.8 17.7 26.3 17.75 25.35 17.75 25.1 17.8 24.1 17.65 23.8 17.5 23.55 16.5 21.45 16.2 20.8 Q14.7 17.3 14.7 14.6 M22.3 26.25 L22.5 26.1 22.3 24.8 22.1 24.25 21.6 22.5 21.7 24.5 21.7 24.85 21.65 25.05 21.15 26.45 20.7 28.2 21.4 27.3 21.85 26.65 22.3 26.25 M19.2 20.85 L18.95 20.3 17.35 18.15 Q17.4 19.15 18.05 20.6 L18.4 21.3 18.75 22.05 18.35 26.05 19.75 22.15 19.2 20.85 M10.25 35.75 L10.15 36.25 10.15 36.75 10.3 37.35 10.25 37.35 9.85 37.05 9.45 36.8 9.1 36.6 8.75 36.5 8.5 36.45 Q8.6 36.3 9.25 36.05 L10.25 35.75 M10.65 36.05 L12.0 35.95 13.05 36.05 11.75 37.05 11.75 37.1 11.4 37.5 Q11.25 37.6 11.2 37.85 L10.85 37.1 10.75 36.8 10.65 36.05 M13.9 36.6 L14.25 36.6 14.35 36.65 14.9 36.85 16.05 37.55 16.45 38.05 Q15.25 37.5 14.0 37.55 L13.1 37.6 11.5 38.2 11.65 37.95 11.95 37.45 12.15 37.2 Q12.6 36.8 12.95 36.75 L13.85 36.6 13.9 36.6 M23.45 30.7 L23.4 30.35 23.35 30.0 23.3 29.9 22.95 28.5 22.85 30.1 22.85 30.55 22.8 30.95 22.4 32.1 21.65 34.6 22.35 33.45 22.9 32.7 23.5 32.1 23.45 30.7" fill="#ffe000" fill-rule="evenodd" stroke="none"/>
      <path d="M22.3 26.25 L21.85 26.65 21.4 27.3 20.7 28.2 21.15 26.45 21.65 25.05 21.7 24.85 21.7 24.5 21.6 22.5 22.1 24.25 22.3 24.8 22.5 26.1 22.3 26.25 M19.2 20.85 L19.75 22.15 18.35 26.05 18.75 22.05 18.4 21.3 18.05 20.6 Q17.4 19.15 17.35 18.15 L18.95 20.3 19.2 20.85 M23.45 30.7 L23.5 32.1 22.9 32.7 22.35 33.45 21.65 34.6 22.4 32.1 22.8 30.95 22.85 30.55 22.85 30.1 22.95 28.5 23.3 29.9 23.35 30.0 23.4 30.35 23.45 30.7" fill="#fff9cd" fill-rule="evenodd" stroke="none"/>
      <path d="M24.15 27.8 L24.0 28.4 23.65 28.0 22.55 26.9 22.35 26.7 21.25 28.35 20.8 29.4 20.7 29.7 20.25 31.0 20.25 31.1 19.85 33.7 19.8 34.85 19.8 37.2 Q19.6 41.05 16.2 44.25 19.6 41.05 19.8 37.2 L19.8 34.85 19.85 33.7 20.25 31.1 20.25 31.0 20.7 29.7 20.8 29.4 21.25 28.35 22.35 26.7 22.55 26.9 21.55 28.5 20.95 29.9 20.6 31.0 20.6 31.1 20.7 32.2 20.75 32.75 20.8 33.0 21.15 34.45 21.45 35.35 20.7 36.85 Q19.95 39.25 19.75 41.2 L20.0 41.0 Q18.35 43.5 16.2 45.15 L16.2 44.55 16.2 44.25 16.0 43.5 Q17.35 42.2 18.05 40.35 18.55 39.0 18.7 37.3 L18.7 35.65 18.45 31.75 Q18.4 29.75 18.6 27.85 L18.75 27.15 19.0 25.85 19.6 23.85 19.65 23.75 20.25 22.2 19.65 23.75 19.6 23.85 19.0 25.85 18.75 27.15 18.6 27.85 Q18.4 29.75 18.45 31.75 L18.25 31.65 18.15 31.55 18.2 36.65 Q18.0 40.7 16.9 41.95 L16.6 42.25 15.8 43.0 Q14.65 40.7 10.5 38.0 L8.8 37.0 7.55 36.3 10.3 35.6 10.35 35.6 10.75 35.85 10.75 35.9 13.2 35.95 13.75 36.3 14.65 36.5 15.05 36.65 Q16.1 37.15 16.6 38.15 L16.65 38.3 16.55 38.2 Q15.45 37.9 14.75 38.7 15.05 40.05 16.8 41.4 18.0 39.0 17.6 34.9 L17.5 34.1 17.05 31.35 16.15 25.2 15.95 23.9 15.9 23.85 15.8 23.0 14.95 18.75 14.9 18.35 14.35 14.35 14.7 14.6 Q14.7 17.3 16.2 20.8 L16.5 21.45 17.5 23.55 17.65 23.8 17.8 24.1 17.75 25.1 17.75 25.35 17.7 26.3 17.65 26.8 17.7 27.45 17.85 29.0 17.9 29.75 18.25 27.25 18.25 27.2 18.3 27.05 Q18.55 25.55 18.9 24.6 L18.95 24.5 19.15 23.9 19.25 23.75 19.3 23.6 19.7 22.65 20.05 21.7 20.25 22.2 20.9 20.75 21.15 21.15 19.7 24.7 19.45 25.4 19.45 27.5 19.7 29.35 19.8 29.6 19.8 29.65 19.85 29.95 20.0 30.5 20.15 29.75 20.85 28.35 20.9 28.2 22.05 26.6 22.3 26.25 22.5 26.45 23.7 27.35 24.15 27.8 M24.1 33.45 L23.85 33.95 23.5 32.6 Q22.45 33.65 21.6 35.05 L21.65 34.95 21.8 34.5 Q22.25 33.6 23.2 32.5 L23.5 32.2 24.0 33.25 24.1 33.45 M16.2 21.4 L16.15 21.65 Q16.15 23.05 16.4 24.45 L16.65 25.5 17.0 26.7 17.0 26.85 17.15 27.25 17.15 26.95 17.15 26.6 17.15 26.15 17.2 25.55 17.2 25.2 17.35 24.1 16.2 21.4 M19.35 28.85 L19.15 27.5 18.9 28.35 Q18.55 29.9 18.7 31.3 L18.95 33.3 18.95 32.6 Q19.1 30.95 19.6 30.1 L19.45 29.45 19.35 28.85 M10.25 35.75 L9.25 36.05 Q8.6 36.3 8.5 36.45 L8.75 36.5 9.1 36.6 9.45 36.8 9.85 37.05 10.25 37.35 10.3 37.35 10.15 36.75 10.15 36.25 10.25 35.75 M13.9 36.6 L13.85 36.6 12.95 36.75 Q12.6 36.8 12.15 37.2 L11.95 37.45 11.65 37.95 11.5 38.2 13.1 37.6 14.0 37.55 Q15.25 37.5 16.45 38.05 L16.05 37.55 14.9 36.85 14.35 36.65 14.25 36.6 13.9 36.6 M10.65 36.05 L10.75 36.8 10.85 37.1 11.2 37.85 Q11.25 37.6 11.4 37.5 L11.75 37.1 11.75 37.05 13.05 36.05 12.0 35.95 10.65 36.05 M20.0 34.3 L19.95 34.8 20.0 35.1 20.15 36.8 20.2 37.2 20.95 34.9 20.55 33.45 20.45 32.65 20.0 34.3" fill="#ff9a20" fill-rule="evenodd" stroke="none"/>
      <path d="M23.85 33.95 L23.8 35.4 Q23.6 36.8 22.85 38.1 22.05 39.35 21.05 40.15 L20.0 41.0 19.75 41.2 Q19.95 39.25 20.7 36.85 L21.45 35.35 21.45 35.3 21.6 35.05 Q22.45 33.65 23.5 32.6 L23.85 33.95 M21.65 36.4 L21.75 35.6 Q21.0 36.8 20.7 37.95 L20.25 40.55 20.4 40.45 20.65 40.15 21.25 39.5 21.35 39.45 22.5 38.0 22.5 37.95 22.95 37.3 22.75 37.45 22.5 37.55 21.9 37.7 21.75 37.7 21.65 36.8 21.65 36.4 M21.95 35.95 Q21.85 36.4 22.25 36.95 L22.6 37.25 23.35 35.5 23.4 34.8 23.25 33.5 21.95 35.95" fill="#00d1e7" fill-rule="evenodd" stroke="none"/>
      <path d="M22.5 36.0 L22.4 36.35 22.4 36.75 22.5 36.8 22.65 36.8 22.8 36.65 22.9 36.0 22.85 35.85 Q22.75 35.7 22.5 36.0 M21.95 35.95 L23.25 33.5 23.4 34.8 23.35 35.5 22.6 37.25 22.25 36.95 Q21.85 36.4 21.95 35.95" fill="#09ffea" fill-rule="evenodd" stroke="none"/>
      <path d="M2.9 19.65 L3.7 19.9 3.9 19.95 Q6.75 21.35 9.05 23.0 L9.45 23.35 12.05 25.5 11.65 25.35 9.65 24.2 8.9 23.7 6.45 22.1 4.7 20.9 2.9 19.65 M14.65 36.5 L12.4 35.25 11.9 34.95 10.4 33.95 10.35 33.9 9.35 33.2 Q7.25 31.65 6.45 30.6 L6.45 30.55 8.65 31.05 11.8 32.25 13.35 33.3 13.65 33.6 13.85 33.75 14.25 34.25 Q15.0 35.3 15.05 36.4 L15.05 36.65 14.65 36.5 M16.55 36.05 L16.15 35.35 Q16.0 34.85 16.2 34.25 L16.9 35.35 16.8 35.6 16.65 35.8 16.55 36.05 M1.3 33.8 L6.45 33.6 Q7.6 33.8 8.9 34.35 L9.2 34.45 10.85 35.25 8.0 35.35 6.4 35.25 5.8 35.15 Q2.55 34.6 1.3 33.8 M22.5 36.0 Q22.75 35.7 22.85 35.85 L22.9 36.0 22.8 36.65 22.65 36.8 22.5 36.8 22.4 36.75 22.4 36.35 22.5 36.0" fill="#ffffff" fill-rule="evenodd" stroke="none"/>
      <path d="M21.65 36.4 L21.65 36.8 21.75 37.7 21.9 37.7 22.5 37.55 22.75 37.45 22.95 37.3 22.5 37.95 22.5 38.0 21.35 39.45 21.25 39.5 20.65 40.15 20.4 40.45 20.25 40.55 20.7 37.95 Q21.0 36.8 21.75 35.6 L21.65 36.4 M22.4 37.7 L22.4 37.65 22.1 37.8 21.8 37.8 21.75 37.8 21.6 37.25 21.5 36.55 21.1 37.7 20.9 38.65 21.45 38.5 21.75 38.35 22.15 37.95 22.3 37.85 22.4 37.7" fill="#20a2ff" fill-rule="evenodd" stroke="none"/>
      <path d="M22.4 37.7 L22.3 37.85 22.15 37.95 21.75 38.35 21.45 38.5 20.9 38.65 21.1 37.7 21.5 36.55 21.6 37.25 21.75 37.8 21.8 37.8 22.1 37.8 22.4 37.65 22.4 37.7" fill="#002d93" fill-rule="evenodd" stroke="none"/>
      <path d="M16.2 21.4 L17.35 24.1 17.2 25.2 17.2 25.55 17.15 26.15 17.15 26.6 17.15 26.95 17.15 27.25 17.0 26.85 17.0 26.7 16.65 25.5 16.4 24.45 Q16.15 23.05 16.15 21.65 L16.2 21.4 M19.35 28.85 L19.45 29.45 19.6 30.1 Q19.1 30.95 18.95 32.6 L18.95 33.3 18.7 31.3 Q18.55 29.9 18.9 28.35 L19.15 27.5 19.35 28.85 M20.0 34.3 L20.45 32.65 20.55 33.45 20.95 34.9 20.2 37.2 20.15 36.8 20.0 35.1 19.95 34.8 20.0 34.3" fill="#d26e20" fill-rule="evenodd" stroke="none"/>
      <path d="M10.5 38.0 Q9.15 37.8 8.0 38.75 L7.9 38.8 Q6.25 41.45 9.05 49.85 L4.05 47.5 3.9 45.75 2.95 44.7 1.3 42.5 1.3 39.45 1.65 39.35 1.3 39.35 1.3 36.9 2.0 36.8 1.3 36.7 1.3 36.3 3.05 36.35 4.4 36.3 4.6 36.2 4.1 35.85 3.3 35.85 2.8 35.95 1.3 36.25 1.3 35.7 2.05 35.6 4.3 35.55 Q2.85 35.1 1.3 34.25 L1.3 33.8 1.3 33.6 Q5.15 32.6 8.35 33.45 L8.0 33.15 Q6.45 31.75 5.55 30.2 L5.65 30.2 Q9.2 30.45 12.4 32.15 L12.65 32.25 Q15.05 34.0 15.6 35.95 15.5 35.25 16.0 34.1 L16.15 33.9 17.6 34.9 Q18.0 39.0 16.8 41.4 15.05 40.05 14.75 38.7 15.45 37.9 16.55 38.2 L16.65 38.3 16.6 38.15 Q16.1 37.15 15.05 36.65 L15.05 36.4 Q15.0 35.3 14.25 34.25 L13.85 33.75 13.65 33.6 13.35 33.3 11.8 32.25 8.65 31.05 6.45 30.55 6.45 30.6 Q7.25 31.65 9.35 33.2 L10.35 33.9 10.4 33.95 11.9 34.95 12.4 35.25 14.65 36.5 13.75 36.3 13.2 35.95 10.75 35.9 10.75 35.85 10.35 35.6 10.3 35.6 7.55 36.3 8.8 37.0 10.5 38.0 M2.9 19.65 L4.7 20.9 6.45 22.1 8.9 23.7 9.65 24.2 11.65 25.35 12.05 25.5 12.1 25.55 Q14.35 27.65 15.85 30.1 L16.6 32.7 Q14.05 28.25 9.85 24.7 L8.8 23.9 5.2 21.4 3.45 20.4 1.95 19.6 2.7 19.65 2.9 19.65 M16.55 36.05 L16.65 35.8 16.8 35.6 16.9 35.35 16.2 34.25 Q16.0 34.85 16.15 35.35 L16.55 36.05 M3.05 36.85 L2.0 36.8 3.05 36.85 M1.3 33.8 Q2.55 34.6 5.8 35.15 L6.4 35.25 8.0 35.35 10.85 35.25 9.2 34.45 8.9 34.35 Q7.6 33.8 6.45 33.6 L1.3 33.8 M7.9 38.8 L6.85 39.1 7.9 38.8" fill="#fcf7ab" fill-rule="evenodd" stroke="none"/>
      <path d="M1.3 36.3 L1.3 36.25 2.8 35.95 3.3 35.85 4.1 35.85 4.6 36.2 4.4 36.3 3.05 36.35 1.3 36.3" fill="#fff1c6" fill-rule="evenodd" stroke="none"/>
      <path d="M1.3 18.25 L1.3 17.35 3.1 19.25 2.3 18.85 1.65 18.6 1.3 18.25" fill="url(#gradient0)" fill-rule="evenodd" stroke="none"/>
      <path d="M1.3 17.35 L1.3 15.75 1.4 15.8 Q1.3 15.25 1.85 14.65 L2.3 14.6 2.95 15.45 3.35 16.05 5.1 18.4 4.35 14.95 Q5.65 15.4 6.7 16.2 7.8 17.05 8.4 18.0 L8.5 18.55 9.2 22.3 9.1 22.7 3.1 19.25 1.3 17.35 M1.3 8.7 L1.3 7.85 Q2.95 10.1 4.75 11.95 L6.25 15.0 5.75 14.7 4.2 13.85 4.1 12.25 4.1 12.05 4.0 11.9 1.3 8.7" fill="url(#gradient1)" fill-rule="evenodd" stroke="none"/>
      <path d="M1.3 24.2 L1.3 20.25 1.4 20.4 Q2.2 22.35 3.35 24.35 L3.85 25.25 1.3 24.2 M1.3 18.45 L1.3 18.25 1.65 18.6 1.3 18.45" fill="url(#gradient2)" fill-rule="evenodd" stroke="none"/>
      <path d="M1.3 12.95 L1.3 12.35 1.7 13.0 1.3 12.95 M1.3 9.1 L1.3 8.7 4.0 11.9 4.1 12.05 4.1 12.25 4.2 13.85 3.55 13.6 3.9 12.2 1.3 9.1 M3.4 14.7 L4.25 14.95 4.35 14.95 5.1 18.4 3.35 16.05 3.4 14.7 M2.95 15.45 L2.3 14.6 2.5 14.6 2.75 15.1 2.95 15.45" fill="url(#gradient3)" fill-rule="evenodd" stroke="none"/>
      <path d="M4.75 11.95 Q2.4 6.75 1.5 1.05 6.5 5.2 10.0 9.95 12.95 13.9 14.9 18.35 L14.95 18.75 15.8 23.0 15.9 23.85 15.95 23.9 16.15 25.2 Q14.25 21.4 10.1 18.0 L9.6 17.5 7.8 16.05 6.25 15.0 4.75 11.95 M8.6 12.15 L8.65 12.35 9.2 13.8 9.9 15.75 14.55 20.25 Q13.5 15.55 9.95 10.6 7.65 7.2 4.1 3.75 6.85 8.1 8.6 12.15" fill="url(#gradient4)" fill-rule="evenodd" stroke="none"/>
      <path d="M8.6 12.15 Q6.85 8.1 4.1 3.75 7.65 7.2 9.95 10.6 13.5 15.55 14.55 20.25 L9.9 15.75 9.2 13.8 8.65 12.35 8.6 12.15 M12.7 15.55 Q11.55 12.7 8.05 8.3 9.95 12.15 9.95 13.05 L10.35 15.05 10.5 15.4 11.1 16.1 13.9 18.5 12.7 15.55" fill="url(#gradient5)" fill-rule="evenodd" stroke="none"/>
      <path d="M1.3 7.85 Q2.95 10.1 4.75 11.95 M9.2 22.3 L9.1 22.7 M1.65 18.6 L1.3 18.25" fill="none" stroke="#164a77" stroke-linecap="round" stroke-linejoin="round" stroke-width="1.0"/>
      <path d="M2.95 44.7 L2.4 46.05 1.3 45.55 M3.55 13.6 L4.2 13.85 5.75 14.7 6.25 15.0 7.8 16.05 9.6 17.5 10.1 18.0 Q14.25 21.4 16.15 25.2 M4.35 14.95 Q5.65 15.4 6.7 16.2 7.8 17.05 8.4 18.0 L8.5 18.55 9.2 22.3 9.35 22.85 10.25 23.5 Q14.9 27.0 17.05 31.35 M3.4 14.7 L4.25 14.95 4.35 14.95 M2.3 14.6 L1.85 14.65 Q1.3 15.25 1.4 15.8 L1.3 15.75 M2.5 14.6 L2.3 14.6 M1.3 12.95 L1.7 13.0 3.55 13.6 M2.5 14.6 L3.4 14.7 M1.3 20.25 L1.4 20.4 Q2.2 22.35 3.35 24.35 L3.85 25.25 4.5 25.6 Q8.85 27.95 12.4 32.15 M1.65 18.6 L2.3 18.85 3.1 19.25 9.1 22.7 9.35 22.85 M1.3 18.45 L1.65 18.6 M5.65 30.2 L1.7 28.85 1.3 28.75 M1.3 31.65 L2.45 31.8 Q5.15 32.2 8.0 33.15 M1.3 35.45 L2.05 35.6 M3.85 25.25 L1.3 24.2" fill="none" stroke="#4bb0c9" stroke-linecap="round" stroke-linejoin="round" stroke-width="1.0"/>
      <path d="M4.75 11.95 Q2.4 6.75 1.5 1.05 6.5 5.2 10.0 9.95 12.95 13.9 14.9 18.35 M6.25 15.0 L4.75 11.95" fill="none" stroke="#426b98" stroke-linecap="round" stroke-linejoin="round" stroke-width="1.0"/>
      <path d="M21.15 21.15 L22.8 23.85 22.85 23.9 23.15 24.6 23.55 25.4 24.15 27.75 24.15 27.8 24.0 28.4 24.3 29.95 24.4 31.7 24.15 33.35 24.1 33.45 23.85 33.95 M20.0 41.0 Q18.35 43.5 16.2 45.15 L16.2 44.55 16.2 44.25 16.0 43.5 15.8 43.0 Q14.65 40.7 10.5 38.0 L8.8 37.0 7.55 36.3 10.3 35.6 10.35 35.6 10.75 35.85 10.75 35.9 13.2 35.95 13.75 36.3 14.65 36.5 15.05 36.65 Q16.1 37.15 16.6 38.15 L16.65 38.3 16.55 38.2 Q15.45 37.9 14.75 38.7 15.05 40.05 16.8 41.4 18.0 39.0 17.6 34.9 L17.5 34.1 17.05 31.35 16.15 25.2 15.95 23.9 15.9 23.85 15.8 23.0 14.95 18.75 14.9 18.35 14.35 14.35 14.7 14.6 Q18.0 17.45 19.6 20.7 L20.05 21.7 20.25 22.2 20.9 20.75 21.15 21.15" fill="none" stroke="#8a341e" stroke-linecap="round" stroke-linejoin="round" stroke-width="1.0"/>
      <path d="M20.25 22.2 L19.65 23.75 19.6 23.85 19.0 25.85 18.75 27.15 18.6 27.85 Q18.4 29.75 18.45 31.75 L18.7 35.65 18.7 37.3 Q18.55 39.0 18.05 40.35 17.35 42.2 16.0 43.5 M16.2 44.25 Q19.6 41.05 19.8 37.2 L19.8 34.85 19.85 33.7 20.25 31.1 20.25 31.0 20.7 29.7 20.8 29.4 21.25 28.35 22.35 26.7 22.55 26.9 23.65 28.0 24.0 28.4" fill="none" stroke="#cb593b" stroke-linecap="round" stroke-linejoin="round" stroke-width="0.5"/>
      <path d="M23.85 33.95 L23.8 35.4 Q23.6 36.8 22.85 38.1 22.05 39.35 21.05 40.15 L20.0 41.0 19.75 41.2 Q19.95 39.25 20.7 36.85 L21.45 35.35 21.45 35.3 21.6 35.05 Q22.45 33.65 23.5 32.6 L23.85 33.95" fill="none" stroke="#006ead" stroke-linecap="round" stroke-linejoin="round" stroke-width="1.0"/>
      <path d="M10.5 38.0 Q9.15 37.8 8.0 38.75 L7.9 38.8 Q6.25 41.45 9.05 49.85 L4.05 47.5 3.9 45.75 2.95 44.7 1.3 42.5 M12.4 32.15 L12.65 32.25 Q15.05 34.0 15.6 35.95 15.5 35.25 16.0 34.1 L16.15 33.9 17.6 34.9 M8.0 33.15 Q6.45 31.75 5.55 30.2 L5.65 30.2 Q9.2 30.45 12.4 32.15 M8.0 33.15 L8.35 33.45 Q5.15 32.6 1.3 33.6 M2.0 36.8 L1.3 36.9 M1.3 36.7 L2.0 36.8 3.05 36.85 M1.3 34.25 Q2.85 35.1 4.3 35.55 L2.05 35.6 1.3 35.7 M6.85 39.1 L7.9 38.8 M1.3 39.35 L1.65 39.35 1.3 39.45" fill="none" stroke="#d2e281" stroke-linecap="round" stroke-linejoin="round" stroke-width="1.0"/>
      <path d="M26.3 47.0 L25.9 46.55 25.15 45.35 23.85 43.2 Q26.0 44.25 27.85 45.85 L29.25 47.25 30.05 49.6 30.4 52.4 30.25 53.45 Q29.65 51.5 28.7 50.0 L26.3 47.0 M29.85 45.95 L29.7 45.75 28.6 43.65 Q29.9 44.45 30.9 45.3 L32.05 46.25 Q33.5 47.7 33.5 48.6 L30.65 46.6 29.85 45.95" fill="#09ffea" fill-rule="evenodd" stroke="none"/>
      <path d="M32.4 53.85 L29.45 53.85 Q29.05 51.5 27.4 48.95 L24.6 45.35 24.45 45.15 22.5 42.0 23.45 42.5 Q25.85 43.65 26.85 44.4 L27.5 44.95 Q29.15 46.25 29.95 47.45 L31.0 49.3 Q31.9 50.8 32.2 52.1 L32.4 53.85 M29.5 45.75 L29.25 45.3 28.4 43.8 28.2 43.45 28.1 43.35 27.4 42.1 Q32.95 45.5 34.25 47.05 35.35 48.35 35.65 51.0 35.1 50.25 32.95 48.75 L30.7 46.95 30.55 46.8 29.75 46.0 29.5 45.75 M29.85 45.95 L30.65 46.6 33.5 48.6 Q33.5 47.7 32.05 46.25 L30.9 45.3 Q29.9 44.45 28.6 43.65 L29.7 45.75 29.85 45.95 M26.3 47.0 L28.7 50.0 Q29.65 51.5 30.25 53.45 L30.4 52.4 30.05 49.6 29.25 47.25 27.85 45.85 Q26.0 44.25 23.85 43.2 L25.15 45.35 25.9 46.55 26.3 47.0" fill="url(#gradient6)" fill-rule="evenodd" stroke="none"/>
      <path d="M24.4 53.85 L14.25 35.5 26.55 39.0 Q28.1 40.95 30.0 42.6 L34.0 46.15 Q36.1 48.25 36.25 51.15 36.35 52.6 35.85 53.85 L33.95 53.85 34.4 51.6 Q34.15 49.95 31.0 48.25 32.3 49.9 32.8 51.2 L32.85 51.35 33.1 53.85 32.4 53.85 32.2 52.1 Q31.9 50.8 31.0 49.3 L29.95 47.45 Q29.15 46.25 27.5 44.95 L26.85 44.4 Q25.85 43.65 23.45 42.5 L22.5 42.0 24.45 45.15 24.6 45.35 27.4 48.95 Q29.05 51.5 29.45 53.85 L24.4 53.85 M29.5 45.75 L29.75 46.0 30.55 46.8 30.7 46.95 32.95 48.75 Q35.1 50.25 35.65 51.0 35.35 48.35 34.25 47.05 32.95 45.5 27.4 42.1 L28.1 43.35 28.2 43.45 28.4 43.8 29.25 45.3 29.5 45.75" fill="url(#gradient7)" fill-rule="evenodd" stroke="none"/>
      <path d="M24.4 53.85 L14.25 35.5 26.55 39.0 Q28.1 40.95 30.0 42.6 L34.0 46.15 Q36.1 48.25 36.25 51.15 36.35 52.6 35.85 53.85 M33.95 53.85 L34.4 51.6 Q34.15 49.95 31.0 48.25 32.3 49.9 32.8 51.2 L32.85 51.35 33.1 53.85" fill="none" stroke="#175498" stroke-linecap="round" stroke-linejoin="round" stroke-width="1.0"/>
      <path d="M19.25 51.85 L20.25 52.75 20.3 52.85 19.7 52.85 19.25 51.85 M21.0 52.85 L20.85 52.45 20.75 52.15 Q19.75 50.0 18.15 49.65 L17.6 49.65 17.35 49.65 Q16.7 47.9 16.7 45.65 L16.75 44.7 18.0 46.2 20.7 49.8 21.45 51.3 22.15 52.85 21.0 52.85 M23.7 52.85 L23.65 52.35 23.75 51.6 23.75 51.25 24.05 51.25 24.15 51.25 24.65 52.85 23.7 52.85 M23.75 50.4 L23.55 50.3 23.15 50.4 23.05 50.5 23.0 51.2 23.1 52.6 22.15 50.5 20.1 45.65 20.1 45.35 Q22.05 47.1 23.35 49.55 L23.4 49.65 23.75 50.4" fill="#09ffea" fill-rule="evenodd" stroke="none"/>
      <path d="M11.5 52.85 L10.25 43.4 12.3 34.5 16.85 36.4 Q17.35 39.95 21.3 44.2 23.15 46.25 24.5 48.65 L26.55 52.85 26.2 52.85 24.2 49.1 24.1 48.95 Q22.45 45.9 20.0 43.8 L20.1 45.35 20.1 45.65 22.15 50.5 23.1 52.6 23.0 51.2 23.05 50.5 23.15 50.4 23.55 50.3 23.75 50.4 Q24.15 50.55 24.65 51.55 L25.15 52.85 24.8 52.0 24.15 51.25 24.05 51.25 23.75 51.25 23.75 51.6 23.65 52.35 23.7 52.85 22.15 52.85 21.45 51.3 20.7 49.8 18.0 46.2 16.75 44.7 14.0 40.95 Q13.75 43.35 14.35 45.4 14.9 47.4 16.65 50.65 16.7 49.8 17.35 49.65 L17.6 49.65 18.15 49.65 Q19.75 50.0 20.75 52.15 L20.85 52.45 21.0 52.85 20.3 52.85 20.25 52.75 19.25 51.85 19.1 51.75 18.45 51.55 17.95 52.0 17.85 52.75 17.9 52.85 11.5 52.85" fill="url(#gradient8)" fill-rule="evenodd" stroke="none"/>
      <path d="M17.9 52.85 L17.85 52.75 17.95 52.0 18.45 51.55 19.1 51.75 19.25 51.85 19.7 52.85 17.9 52.85 M24.15 51.25 L24.8 52.0 25.15 52.85 24.65 51.55 Q24.15 50.55 23.75 50.4 L23.4 49.65 23.35 49.55 Q22.05 47.1 20.1 45.35 L20.0 43.8 Q22.45 45.9 24.1 48.95 L24.2 49.1 26.2 52.85 25.15 52.85 24.65 52.85 24.15 51.25" fill="url(#gradient9)" fill-rule="evenodd" stroke="none"/>
      <path d="M17.35 49.65 Q16.7 49.8 16.65 50.65 14.9 47.4 14.35 45.4 13.75 43.35 14.0 40.95 L16.75 44.7 16.7 45.65 Q16.7 47.9 17.35 49.65" fill="url(#gradient10)" fill-rule="evenodd" stroke="none"/>
      <path d="M11.95 34.4 L12.3 34.5 12.5 33.6 M26.55 52.85 L24.5 48.65 Q23.15 46.25 21.3 44.2 17.35 39.95 16.85 36.4 L12.3 34.5 10.25 43.4 11.5 52.85 M16.75 35.85 L16.85 36.4 17.55 36.75" fill="none" stroke="#175498" stroke-linecap="round" stroke-linejoin="round" stroke-width="1.0"/>
      <path d="M-1.9 27.15 L-0.2 25.2 13.7 21.05 13.6 21.85 Q7.3 23.05 4.95 24.45 2.4 26.05 -0.95 29.55 L-1.9 30.65 -1.9 27.15 M13.25 25.9 L12.25 36.3 12.2 36.5 Q11.75 38.95 12.35 41.75 L12.1 43.0 11.1 42.0 Q9.35 40.05 8.0 37.2 L7.95 37.85 7.85 39.6 6.6 38.0 Q6.05 37.15 5.65 35.85 5.2 34.45 5.2 33.45 L5.3 31.75 5.4 31.35 Q3.35 33.75 3.85 38.35 5.0 39.9 8.1 41.7 L8.7 42.0 8.5 40.3 Q9.95 42.5 11.75 44.1 L13.0 45.1 13.1 44.15 14.0 46.35 14.25 47.3 14.3 47.4 14.15 51.1 Q11.9 47.1 9.35 44.5 L9.2 44.35 9.2 45.1 8.1 44.85 Q7.2 44.6 5.65 42.95 L5.6 43.55 Q5.6 45.0 6.4 46.35 7.25 47.7 8.25 47.7 L8.4 47.7 Q8.65 47.05 8.25 46.35 L8.8 46.25 Q9.1 46.25 9.65 46.75 10.25 47.2 10.0 48.15 9.8 49.1 8.05 48.65 L6.45 47.6 Q4.75 46.15 4.55 44.7 4.4 43.6 4.55 42.8 L4.7 42.35 Q3.65 41.6 1.85 38.35 L2.55 42.6 Q2.95 45.4 5.5 48.85 L5.65 48.85 Q8.55 49.65 11.5 51.55 L13.9 53.2 11.15 53.2 10.65 52.7 10.35 53.2 7.7 53.2 7.65 52.2 7.7 51.4 7.75 50.75 Q6.35 49.85 4.9 49.25 L6.9 53.2 5.6 53.2 5.1 51.05 5.0 50.75 2.6 46.0 Q1.4 42.6 1.4 37.95 1.4 30.6 10.75 26.8 L13.25 25.9 M15.6 51.6 L16.1 53.2 15.45 53.2 15.6 51.6 M-0.2 53.2 L-1.9 53.2 -1.9 45.95 Q-1.6 48.75 -0.75 51.6 L-0.5 52.4 -0.2 53.2 M-1.9 40.65 L-1.9 37.95 Q-0.85 34.4 1.25 31.5 L1.35 31.35 1.35 31.7 Q0.4 33.1 -0.5 35.25 -1.55 37.95 -1.9 40.65" fill="#96c3de" fill-rule="evenodd" stroke="none"/>
      <path d="M-1.9 30.65 L-0.95 29.55 Q2.4 26.05 4.95 24.45 7.3 23.05 13.6 21.85 L13.25 25.9 10.75 26.8 Q1.4 30.6 1.4 37.95 1.4 42.6 2.6 46.0 L5.0 50.75 5.1 51.05 5.6 53.2 -0.2 53.2 -0.5 52.4 -0.75 51.6 Q-1.6 48.75 -1.9 45.95 L-1.9 40.65 Q-1.55 37.95 -0.5 35.25 0.4 33.1 1.35 31.7 L1.35 31.35 1.25 31.5 Q-0.85 34.4 -1.9 37.95 L-1.9 30.65 M11.15 53.2 L10.35 53.2 10.65 52.7 11.15 53.2 M7.7 53.2 L6.9 53.2 4.9 49.25 Q6.35 49.85 7.75 50.75 L7.7 51.4 7.65 52.2 7.7 53.2 M4.25 42.6 L4.3 42.6 4.15 43.6 Q4.15 45.7 5.75 47.35 7.25 48.95 9.15 48.95 L9.6 48.95 9.7 48.95 10.15 48.4 10.3 47.6 10.2 47.0 Q9.95 46.6 9.5 46.35 8.65 45.75 7.65 45.75 L8.0 46.6 7.7 46.95 Q7.25 46.95 6.5 45.75 5.75 44.55 5.75 43.55 L6.4 44.2 7.3 44.85 8.4 45.15 9.45 45.35 9.6 45.35 9.65 45.3 10.75 46.55 Q11.4 47.7 12.4 51.85 11.25 50.85 9.3 50.0 L5.8 48.5 5.65 48.4 Q4.7 47.45 4.0 45.75 3.05 43.75 2.75 41.45 L3.75 42.2 4.25 42.6" fill="#f3faff" fill-rule="evenodd" stroke="none"/>
      <path d="M12.35 41.75 L13.1 44.15 13.0 45.1 11.75 44.1 Q9.95 42.5 8.5 40.3 L8.7 42.0 8.1 41.7 Q5.0 39.9 3.85 38.35 3.35 33.75 5.4 31.35 L5.3 31.75 5.2 33.45 Q5.2 34.45 5.65 35.85 6.05 37.15 6.6 38.0 L7.85 39.6 7.95 37.85 8.0 37.2 Q9.35 40.05 11.1 42.0 L12.1 43.0 12.35 41.75 M14.3 47.4 L15.6 51.6 15.45 53.2 13.9 53.2 11.5 51.55 Q8.55 49.65 5.65 48.85 L5.5 48.85 Q2.95 45.4 2.55 42.6 L1.85 38.35 Q3.65 41.6 4.7 42.35 L4.55 42.8 Q4.4 43.6 4.55 44.7 4.75 46.15 6.45 47.6 L8.05 48.65 Q9.8 49.1 10.0 48.15 10.25 47.2 9.65 46.75 9.1 46.25 8.8 46.25 L8.25 46.35 Q8.65 47.05 8.4 47.7 L8.25 47.7 Q7.25 47.7 6.4 46.35 5.6 45.0 5.6 43.55 L5.65 42.95 Q7.2 44.6 8.1 44.85 L9.2 45.1 9.2 44.35 9.35 44.5 Q11.9 47.1 14.15 51.1 L14.3 47.4 M4.25 42.6 L3.75 42.2 2.75 41.45 Q3.05 43.75 4.0 45.75 4.7 47.45 5.65 48.4 L5.8 48.5 9.3 50.0 Q11.25 50.85 12.4 51.85 11.4 47.7 10.75 46.55 L9.65 45.3 9.6 45.35 9.45 45.35 8.4 45.15 7.3 44.85 6.4 44.2 5.75 43.55 Q5.75 44.55 6.5 45.75 7.25 46.95 7.7 46.95 L8.0 46.6 7.65 45.75 Q8.65 45.75 9.5 46.35 9.95 46.6 10.2 47.0 L10.3 47.6 10.15 48.4 9.7 48.95 9.6 48.95 9.15 48.95 Q7.25 48.95 5.75 47.35 4.15 45.7 4.15 43.6 L4.3 42.6 4.25 42.6" fill="#8efff4" fill-rule="evenodd" stroke="none"/>
      <path d="M13.75 20.4 L13.7 21.05 14.35 20.8 M13.6 21.85 L13.7 21.05 -0.2 25.2 -1.9 27.15 M13.6 21.85 L13.25 25.9 12.25 36.3 12.2 36.5 Q11.75 38.95 12.35 41.75 L13.1 44.15 14.0 46.35 14.25 47.3 M14.3 47.4 L15.6 51.6 16.1 53.2 M-0.75 25.35 L-0.2 25.2 0.25 24.7" fill="none" stroke="#175498" stroke-linecap="round" stroke-linejoin="round" stroke-width="1.0"/>
      <path d="M-0.95 21.55 Q1.1 19.55 3.75 17.85 L4.15 17.65 4.2 17.65 3.4 19.65 3.25 20.85 3.15 22.05 3.0 23.2 Q2.95 23.7 3.4 24.65 L1.95 24.65 Q0.0 25.7 -0.4 26.25 L-0.95 27.2 -0.95 26.95 Q-0.35 25.85 0.95 24.6 2.25 23.35 1.65 22.2 1.4 21.85 1.0 21.8 L0.3 21.9 -0.65 22.9 -0.7 23.7 -0.15 23.9 0.35 23.75 0.8 23.25 Q0.95 22.95 0.75 22.8 1.4 23.25 0.75 24.15 L-0.6 25.4 -0.95 25.55 -0.95 21.55" fill="#09ffea" fill-rule="evenodd" stroke="none"/>
      <path d="M-0.95 25.55 L-0.6 25.4 0.75 24.15 Q1.4 23.25 0.75 22.8 0.95 22.95 0.8 23.25 L0.35 23.75 -0.15 23.9 -0.7 23.7 -0.65 22.9 0.3 21.9 1.0 21.8 Q1.4 21.85 1.65 22.2 2.25 23.35 0.95 24.6 -0.35 25.85 -0.95 26.95 L-0.95 25.55 M-0.95 27.2 L-0.4 26.25 Q0.0 25.7 1.95 24.65 L3.4 24.65 Q2.95 23.7 3.0 23.2 L3.15 22.05 3.25 20.85 3.4 19.65 4.2 17.65 Q6.9 16.95 8.9 18.35 L9.2 19.2 Q7.3 17.85 6.25 17.95 L4.65 18.3 4.1 19.65 4.0 20.2 Q3.8 20.85 3.75 21.45 3.55 22.35 3.75 24.95 L-0.45 27.5 -0.95 28.1 -0.95 27.2" fill="#39b4fa" fill-rule="evenodd" stroke="none"/>
      <path d="M9.2 19.2 L8.6 19.7 Q7.6 18.85 6.85 18.85 L5.5 19.0 Q4.8 19.45 4.4 20.4 4.05 21.45 4.05 23.1 L4.1 24.75 3.75 24.95 Q3.55 22.35 3.75 21.45 3.8 20.85 4.0 20.2 L4.1 19.65 4.65 18.3 6.25 17.95 Q7.3 17.85 9.2 19.2" fill="#4196f5" fill-rule="evenodd" stroke="none"/>
      <path d="M8.6 19.7 L6.35 23.9 4.1 24.75 4.05 23.1 Q4.05 21.45 4.4 20.4 4.8 19.45 5.5 19.0 L6.85 18.85 Q7.6 18.85 8.6 19.7" fill="#4e79fa" fill-rule="evenodd" stroke="none"/>
      <path d="M4.2 17.65 L4.15 17.65 3.75 17.85 Q1.1 19.55 -0.95 21.55 M4.2 17.65 Q6.9 16.95 8.9 18.35 L9.2 19.2 8.6 19.7" fill="none" stroke="#175498" stroke-linecap="round" stroke-linejoin="round" stroke-width="1.0"/>
      <path d="M12.55 54.5 L12.15 52.4 Q12.4 48.85 14.3 45.7 L14.45 45.9 Q13.45 47.4 13.1 49.0 12.75 50.35 12.75 52.65 L13.1 52.8 Q13.95 53.2 14.05 53.35 L14.05 53.0 Q13.85 52.85 14.05 51.45 L14.55 48.75 15.2 47.15 Q16.45 49.4 17.2 52.1 L17.2 52.7 17.0 54.5 12.55 54.5" fill="#ff9a20" fill-rule="evenodd" stroke="none"/>
      <path d="M15.2 47.15 L14.55 48.75 14.05 51.45 Q13.85 52.85 14.05 53.0 L14.05 53.35 Q13.95 53.2 13.1 52.8 L12.75 52.65 Q12.75 50.35 13.1 49.0 13.45 47.4 14.45 45.9 L15.2 47.15" fill="#ffe000" fill-rule="evenodd" stroke="none"/>
      <path d="M14.45 45.9 L14.3 45.7 Q12.4 48.85 12.15 52.4 L12.55 54.5 M17.0 54.5 L17.2 52.7 17.2 52.1 Q16.45 49.4 15.2 47.15 L14.45 45.9" fill="none" stroke="#8a341e" stroke-linecap="round" stroke-linejoin="round" stroke-width="1.0"/>
      <path d="M14.3 53.85 L14.1 53.05 Q13.9 50.15 15.1 47.85 L15.4 47.35 Q16.9 49.15 17.25 50.85 17.6 52.3 17.55 53.85 L17.0 53.85 17.0 53.75 16.95 53.85 15.9 53.85 15.3 53.15 Q14.65 52.05 14.65 50.55 L14.7 50.25 Q14.55 50.5 14.55 51.05 L14.55 52.4 14.75 53.85 14.3 53.85 M14.95 49.25 L14.85 49.95 Q14.85 51.1 15.35 51.85 L16.8 53.25 16.8 52.7 16.6 50.45 15.4 48.0 14.95 49.25" fill="#00d1e7" fill-rule="evenodd" stroke="none"/>
      <path d="M14.75 53.85 L14.55 52.4 14.55 51.05 Q14.55 50.5 14.7 50.25 L14.65 50.55 Q14.65 52.05 15.3 53.15 L15.9 53.85 15.55 53.85 Q14.9 53.15 14.8 52.4 L14.75 52.4 14.75 52.6 14.7 52.75 14.65 53.0 14.7 53.2 14.85 53.85 14.75 53.85 M16.95 53.85 L17.0 53.75 17.0 53.85 16.95 53.85" fill="#208aff" fill-rule="evenodd" stroke="none"/>
      <path d="M14.95 49.25 L15.4 48.0 16.6 50.45 16.8 52.7 16.8 53.25 15.35 51.85 Q14.85 51.1 14.85 49.95 L14.95 49.25 M16.25 51.15 Q16.1 50.9 15.9 51.15 L15.8 51.6 15.8 52.05 16.3 52.5 Q16.6 52.5 16.6 52.0 L16.55 51.6 16.25 51.15" fill="#09ffea" fill-rule="evenodd" stroke="none"/>
      <path d="M16.25 51.15 L16.55 51.6 16.6 52.0 Q16.6 52.5 16.3 52.5 L15.8 52.05 15.8 51.6 15.9 51.15 Q16.1 50.9 16.25 51.15" fill="#d7fbff" fill-rule="evenodd" stroke="none"/>
      <path d="M14.85 53.85 L14.7 53.2 14.65 53.0 14.7 52.75 14.75 52.6 14.75 52.4 14.8 52.4 Q14.9 53.15 15.55 53.85 L14.85 53.85" fill="#002d93" fill-rule="evenodd" stroke="none"/>
      <path d="M17.55 53.85 Q17.6 52.3 17.25 50.85 16.9 49.15 15.4 47.35 L15.1 47.85 Q13.9 50.15 14.1 53.05 L14.3 53.85" fill="none" stroke="#006ead" stroke-linecap="round" stroke-linejoin="round" stroke-width="1.0"/>
      <path d="M7.6 18.85 L7.95 18.6 8.5 18.35 Q12.3 16.85 16.95 16.55 L17.35 16.55 15.75 18.3 15.65 18.4 14.1 20.25 13.85 20.65 13.25 21.5 12.15 21.45 9.45 21.7 8.0 22.55 Q8.95 21.6 11.35 20.95 13.05 20.5 13.05 19.25 L12.75 18.6 12.1 18.4 Q11.25 18.4 10.75 18.75 10.35 19.05 10.35 19.45 L10.75 19.9 11.25 20.0 11.85 19.75 12.05 19.35 Q12.35 20.0 11.4 20.5 L9.65 20.85 Q8.85 20.85 8.85 20.15 8.85 19.85 9.7 19.2 L9.75 19.15 9.85 19.1 9.8 19.1 9.75 19.15 Q9.35 19.2 8.65 19.65 7.85 20.25 7.85 20.65 L8.0 20.95 8.25 21.1 Q7.6 21.15 6.9 22.1 L6.05 23.4 5.55 23.7 4.3 24.3 7.15 19.5 7.6 18.85 M16.2 17.25 Q16.2 16.9 15.4 17.25 14.65 17.55 14.65 18.1 L14.65 18.25 14.8 18.3 Q15.3 18.3 15.8 17.8 L16.2 17.25 M10.2 18.6 L10.3 18.55 10.25 18.55 10.2 18.6" fill="#09ffea" fill-rule="evenodd" stroke="none"/>
      <path d="M20.65 19.0 L20.1 19.5 19.05 18.85 17.85 18.4 Q17.0 18.4 16.25 19.0 15.45 19.7 14.65 21.15 L13.9 22.6 13.6 22.6 Q14.6 20.3 15.15 19.6 L16.0 18.65 16.35 18.25 Q17.2 17.35 17.45 17.35 18.15 17.35 19.0 17.8 19.9 18.25 20.65 19.0" fill="#4196f5" fill-rule="evenodd" stroke="none"/>
      <path d="M17.35 16.55 Q19.55 17.3 21.0 18.7 L20.65 19.0 Q19.9 18.25 19.0 17.8 18.15 17.35 17.45 17.35 17.2 17.35 16.35 18.25 L16.0 18.65 15.15 19.6 Q14.6 20.3 13.6 22.6 L8.8 22.75 Q6.25 23.6 3.6 25.55 4.6 21.15 7.6 18.85 L7.15 19.5 4.3 24.3 5.55 23.7 6.05 23.4 6.9 22.1 Q7.6 21.15 8.25 21.1 L8.0 20.95 7.85 20.65 Q7.85 20.25 8.65 19.65 9.35 19.2 9.75 19.15 L9.8 19.1 9.85 19.1 9.75 19.15 9.7 19.2 Q8.85 19.85 8.85 20.15 8.85 20.85 9.65 20.85 L11.4 20.5 Q12.35 20.0 12.05 19.35 L11.85 19.75 11.25 20.0 10.75 19.9 10.35 19.45 Q10.35 19.05 10.75 18.75 11.25 18.4 12.1 18.4 L12.75 18.6 13.05 19.25 Q13.05 20.5 11.35 20.95 8.95 21.6 8.0 22.55 L9.45 21.7 12.15 21.45 13.25 21.5 13.85 20.65 14.1 20.25 15.65 18.4 15.75 18.3 17.35 16.55" fill="#39dffa" fill-rule="evenodd" stroke="none"/>
      <path d="M16.2 17.25 L15.8 17.8 Q15.3 18.3 14.8 18.3 L14.65 18.25 14.65 18.1 Q14.65 17.55 15.4 17.25 16.2 16.9 16.2 17.25" fill="#ffffff" fill-rule="evenodd" stroke="none"/>
      <path d="M20.1 19.5 L16.25 22.85 13.9 22.6 14.65 21.15 Q15.45 19.7 16.25 19.0 17.0 18.4 17.85 18.4 L19.05 18.85 20.1 19.5" fill="#4e79fa" fill-rule="evenodd" stroke="none"/>
      <path d="M10.2 18.6 L10.25 18.55 10.3 18.55 10.2 18.6" fill="#9af1ff" fill-rule="evenodd" stroke="none"/>
      <path d="M7.6 18.85 L7.95 18.6 8.5 18.35 Q12.3 16.85 16.95 16.55 L17.35 16.55 Q19.55 17.3 21.0 18.7 L20.65 19.0 20.1 19.5 16.25 22.85 M3.6 25.55 Q4.6 21.15 7.6 18.85" fill="none" stroke="#175498" stroke-linecap="round" stroke-linejoin="round" stroke-width="1.0"/>
      <path d="M22.4 17.3 L23.1 17.0 Q24.95 16.2 27.1 15.6 L27.9 15.35 27.85 15.8 27.75 16.35 26.15 16.9 24.55 19.15 Q23.45 20.5 22.6 22.0 L21.25 24.35 21.15 24.55 21.1 24.55 21.1 24.3 Q21.25 21.6 22.4 17.3 M26.35 16.3 L26.35 16.45 26.4 16.5 26.8 16.4 27.1 16.1 Q27.0 15.85 26.65 15.95 26.35 16.1 26.35 16.3 M24.9 17.3 Q23.9 18.15 23.9 18.7 L24.1 18.85 Q24.65 18.85 25.35 17.9 L25.95 16.95 Q25.95 16.5 24.9 17.3 M23.6 18.45 L23.65 18.45 Q23.5 18.0 23.3 18.3 L23.5 18.45 23.6 18.45 M23.2 20.2 L23.6 19.5 22.95 19.55 Q22.4 20.15 22.4 20.7 L22.4 20.8 22.5 20.85 23.2 20.2" fill="#9cfff6" fill-rule="evenodd" stroke="none"/>
      <path d="M26.35 16.3 Q26.35 16.1 26.65 15.95 27.0 15.85 27.1 16.1 L26.8 16.4 26.4 16.5 26.35 16.45 26.35 16.3 M23.6 18.45 L23.5 18.45 23.3 18.3 Q23.5 18.0 23.65 18.45 L23.6 18.45 M24.9 17.3 Q25.95 16.5 25.95 16.95 L25.35 17.9 Q24.65 18.85 24.1 18.85 L23.9 18.7 Q23.9 18.15 24.9 17.3 M23.2 20.2 L22.5 20.85 22.4 20.8 22.4 20.7 Q22.4 20.15 22.95 19.55 L23.6 19.5 23.2 20.2" fill="#ffffff" fill-rule="evenodd" stroke="none"/>
      <path d="M21.15 24.55 L21.25 24.35 24.15 19.7 24.55 19.15 26.15 16.9 27.75 16.35 Q26.85 21.45 27.5 25.35 29.25 29.0 33.05 28.85 L32.3 29.55 Q30.3 29.2 28.7 27.85 26.05 25.75 26.05 22.1 26.05 19.7 26.35 18.25 L26.75 16.75 26.0 17.55 23.8 20.6 Q21.45 24.1 20.8 26.85 L15.6 23.1 Q17.4 20.65 21.55 18.75 L21.15 19.95 Q20.5 22.35 20.5 25.0 L20.5 25.8 21.15 24.55" fill="#39dffa" fill-rule="evenodd" stroke="none"/>
      <path d="M32.3 29.55 L31.8 29.95 Q28.4 32.25 23.65 29.0 L21.9 27.7 Q22.05 25.85 22.85 25.0 23.5 24.3 24.25 24.3 24.85 24.3 25.8 25.6 26.65 26.85 26.8 28.1 L25.6 28.45 Q24.9 28.45 23.35 27.6 21.75 26.75 22.1 27.2 L24.4 29.0 Q26.5 30.4 28.1 30.55 L30.45 30.35 31.7 29.65 Q28.8 28.7 27.5 27.2 25.6 25.1 25.6 21.35 25.6 20.45 25.75 20.0 L25.85 18.6 Q24.8 19.9 23.6 21.85 22.05 24.65 21.35 27.25 L20.8 26.85 Q21.45 24.1 23.8 20.6 L26.0 17.55 26.75 16.75 26.35 18.25 Q26.05 19.7 26.05 22.1 26.05 25.75 28.7 27.85 30.3 29.2 32.3 29.55" fill="#4196f5" fill-rule="evenodd" stroke="none"/>
      <path d="M22.4 17.3 Q21.25 21.6 21.1 24.3 L21.1 24.55 21.15 24.55 20.5 25.8 20.5 25.0 Q20.5 22.35 21.15 19.95 L21.55 18.75 Q17.4 20.65 15.6 23.1 L14.9 22.6 Q18.0 19.35 22.4 17.3 M21.25 24.35 L22.6 22.0 Q23.45 20.5 24.55 19.15 L24.15 19.7 21.25 24.35" fill="#09ffea" fill-rule="evenodd" stroke="none"/>
      <path d="M21.9 27.7 L21.35 27.25 Q22.05 24.65 23.6 21.85 24.8 19.9 25.85 18.6 L25.75 20.0 Q25.6 20.45 25.6 21.35 25.6 25.1 27.5 27.2 28.8 28.7 31.7 29.65 L30.45 30.35 28.1 30.55 Q26.5 30.4 24.4 29.0 L22.1 27.2 Q21.75 26.75 23.35 27.6 24.9 28.45 25.6 28.45 L26.8 28.1 Q26.65 26.85 25.8 25.6 24.85 24.3 24.25 24.3 23.5 24.3 22.85 25.0 22.05 25.85 21.9 27.7" fill="#4e79fa" fill-rule="evenodd" stroke="none"/>
      <path d="M27.75 16.35 L27.85 15.8 27.9 15.35 27.1 15.6 Q24.95 16.2 23.1 17.0 L22.4 17.3 Q18.0 19.35 14.9 22.6 L14.5 23.05 M27.75 16.35 Q26.85 21.45 27.5 25.35 29.25 29.0 33.05 28.85 L32.3 29.55 31.8 29.95 Q28.4 32.25 23.65 29.0 L21.9 27.7 21.35 27.25 20.8 26.85 15.6 23.1 14.9 22.6" fill="none" stroke="#175498" stroke-linecap="round" stroke-linejoin="round" stroke-width="1.0"/>
      <path d="M23.05 19.85 L21.5 21.15 Q19.3 23.15 17.75 25.05 16.25 27.05 15.6 29.0 15.2 27.45 15.4 25.25 L15.45 24.65 Q16.5 23.35 18.45 22.05 20.35 20.75 23.05 19.85" fill="#f3faff" fill-rule="evenodd" stroke="none"/>
      <path d="M14.25 24.35 Q18.55 20.8 23.4 19.55 L23.35 19.7 Q22.15 23.75 19.85 26.35 L18.95 26.45 19.4 25.85 20.65 23.75 20.8 23.35 20.8 23.25 19.45 23.9 Q17.8 25.85 16.85 27.45 L16.8 27.5 Q15.85 29.0 15.6 30.35 14.0 29.4 13.0 27.05 13.1 26.25 14.25 24.35 M23.05 19.85 Q20.35 20.75 18.45 22.05 16.5 23.35 15.45 24.65 L15.4 25.25 Q15.2 27.45 15.6 29.0 16.25 27.05 17.75 25.05 19.3 23.15 21.5 21.15 L23.05 19.85 M20.7 22.45 L19.45 23.9 20.7 22.45" fill="#96c3de" fill-rule="evenodd" stroke="none"/>
      <path d="M18.95 26.45 Q18.0 26.7 16.85 27.45 17.8 25.85 19.45 23.9 L20.8 23.25 20.8 23.35 20.65 23.75 19.4 25.85 18.95 26.45" fill="#fa92ae" fill-rule="evenodd" stroke="none"/>
      <path d="M14.25 24.35 Q18.55 20.8 23.4 19.55 L23.35 19.7 Q22.15 23.75 19.85 26.35 M16.85 27.45 L16.8 27.5 Q15.85 29.0 15.6 30.35 M19.45 23.9 L20.7 22.45 M19.45 23.9 Q17.8 25.85 16.85 27.45" fill="none" stroke="#316fb4" stroke-linecap="round" stroke-linejoin="round" stroke-width="1.0"/>
      <path d="M17.25 33.6 L16.5 33.35 16.25 33.3 Q15.25 32.5 14.95 30.55 14.65 28.85 14.9 27.8 13.3 29.1 12.45 30.2 L11.6 31.5 Q11.75 32.5 12.5 33.6 L12.6 33.7 12.8 33.7 15.8 34.3 16.35 34.45 Q18.2 35.1 19.9 36.2 21.7 37.35 22.65 38.65 L23.2 39.5 Q25.2 41.5 26.65 42.15 L27.55 42.3 27.45 40.3 27.15 38.4 Q26.9 38.0 24.65 36.9 L22.4 35.7 22.05 35.15 18.7 34.05 17.65 33.7 16.4 32.35 Q15.95 31.45 15.95 29.65 L15.95 29.5 15.5 28.75 15.4 28.7 15.4 29.5 Q15.25 31.55 16.45 32.9 L17.25 33.6 M9.65 23.55 L17.55 23.05 Q23.65 31.35 28.2 38.55 L28.15 41.85 28.05 42.25 27.95 42.45 27.6 42.7 Q26.4 43.35 25.15 43.4 L21.6 40.3 Q17.35 38.05 14.55 37.2 L12.6 37.35 Q10.0 36.4 7.2 34.05 L6.9 32.2 6.8 29.0 Q7.5 26.25 9.65 23.55" fill="#96c3de" fill-rule="evenodd" stroke="none"/>
      <path d="M17.65 33.7 L18.7 34.05 22.05 35.15 22.4 35.7 24.65 36.9 Q26.9 38.0 27.15 38.4 L27.45 40.3 27.55 42.3 26.65 42.15 Q25.2 41.5 23.2 39.5 L22.65 38.65 Q21.7 37.35 19.9 36.2 18.2 35.1 16.35 34.45 L15.8 34.3 12.8 33.7 12.6 33.7 12.5 33.6 Q11.75 32.5 11.6 31.5 L12.45 30.2 Q13.3 29.1 14.9 27.8 14.65 28.85 14.95 30.55 15.25 32.5 16.25 33.3 L16.5 33.35 17.25 33.6 17.65 33.7" fill="#f3faff" fill-rule="evenodd" stroke="none"/>
      <path d="M17.25 33.6 L16.45 32.9 Q15.25 31.55 15.4 29.5 L15.4 28.7 15.5 28.75 15.95 29.5 15.95 29.65 Q15.95 31.45 16.4 32.35 L17.65 33.7 17.25 33.6" fill="#25ffeb" fill-rule="evenodd" stroke="none"/>
      <path d="M9.65 23.55 L17.55 23.05 Q23.65 31.35 28.2 38.55 L28.15 41.85 28.05 42.25 27.95 42.45 27.6 42.7 Q26.4 43.35 25.15 43.4 L21.6 40.3 Q17.35 38.05 14.55 37.2 L12.6 37.35 Q10.0 36.4 7.2 34.05 L6.9 32.2 6.8 29.0" fill="none" stroke="#175498" stroke-linecap="round" stroke-linejoin="round" stroke-width="1.0"/>
      <path d="M24.15 28.1 Q32.3 24.75 37.25 22.0 42.5 19.1 45.3 16.2 48.15 13.35 50.2 10.3 52.3 7.35 53.55 4.4 L54.9 1.1 Q50.5 7.15 43.5 13.25 L40.2 15.8 37.55 17.3 29.55 20.95 23.95 22.9 24.1 22.75 27.15 21.5 Q32.6 19.2 38.25 16.2 L39.25 15.5 Q48.4 9.7 56.45 -2.25 L55.75 -0.05 Q54.5 3.85 52.65 7.25 48.8 14.4 42.5 19.45 35.3 23.95 28.05 27.5 L24.75 29.2 24.15 28.1" fill="url(#gradient11)" fill-rule="evenodd" stroke="none"/>
      <path d="M23.95 22.9 L22.4 24.7 24.15 28.1 24.75 29.2 28.05 27.5 Q35.3 23.95 42.5 19.45 48.8 14.4 52.65 7.25 54.5 3.85 55.75 -0.05 L56.45 -2.25 Q48.4 9.7 39.25 15.5 L38.25 16.2 Q32.6 19.2 27.15 21.5 L24.1 22.75 23.95 22.9 M57.4 -4.55 Q56.0 8.35 43.8 19.65 43.55 19.75 43.35 19.9 34.9 25.65 24.55 29.75 L21.35 24.6 23.25 22.35 Q30.9 19.5 33.9 17.8 L37.3 15.9 42.7 12.15 Q47.75 8.55 57.4 -4.55" fill="#3187ff" fill-opacity="0.4" fill-rule="evenodd" stroke="none"/>
      <path d="M23.95 22.9 L29.55 20.95 37.55 17.3 40.2 15.8 43.5 13.25 Q50.5 7.15 54.9 1.1 L53.55 4.4 Q52.3 7.35 50.2 10.3 48.15 13.35 45.3 16.2 42.5 19.1 37.25 22.0 32.3 24.75 24.15 28.1 L22.4 24.7 23.95 22.9" fill="url(#gradient12)" fill-rule="evenodd" stroke="none"/>
      <path d="M23.95 22.9 L22.4 24.7 24.15 28.1 24.75 29.2 28.05 27.5 Q35.3 23.95 42.5 19.45 48.8 14.4 52.65 7.25 54.5 3.85 55.75 -0.05 L56.45 -2.25 Q48.4 9.7 39.25 15.5 L38.25 16.2 Q32.6 19.2 27.15 21.5 L24.1 22.75 23.95 22.9 Z" fill="none" stroke="#006ead" stroke-linecap="round" stroke-linejoin="round" stroke-width="1.0"/>
    </g>
    <linearGradient gradientTransform="matrix(0.0066, 0.0225, 0.0103, -0.0029, -5.05, -3.9)" gradientUnits="userSpaceOnUse" id="gradient0" spreadMethod="pad" x1="-819.2" x2="819.2">
      <stop offset="0.0" stop-color="#16aadb"/>
      <stop offset="1.0" stop-color="#d1ff85"/>
    </linearGradient>
    <linearGradient gradientTransform="matrix(0.0105, 0.0207, -0.0133, 0.0054, 2.7, 3.55)" gradientUnits="userSpaceOnUse" id="gradient1" spreadMethod="pad" x1="-819.2" x2="819.2">
      <stop offset="0.0" stop-color="#16aadb"/>
      <stop offset="1.0" stop-color="#d1ff85"/>
    </linearGradient>
    <linearGradient gradientTransform="matrix(0.0125, 0.023, -0.0118, 0.005, -9.85, 5.2)" gradientUnits="userSpaceOnUse" id="gradient2" spreadMethod="pad" x1="-819.2" x2="819.2">
      <stop offset="0.0" stop-color="#16aadb"/>
      <stop offset="1.0" stop-color="#d1ff85"/>
    </linearGradient>
    <linearGradient gradientTransform="matrix(0.0103, 0.0195, 0.0036, -0.0015, -4.3, -4.25)" gradientUnits="userSpaceOnUse" id="gradient3" spreadMethod="pad" x1="-819.2" x2="819.2">
      <stop offset="0.0" stop-color="#16aadb"/>
      <stop offset="1.0" stop-color="#d1ff85"/>
    </linearGradient>
    <linearGradient gradientTransform="matrix(0.011, 0.0168, -0.0033, 0.0016, 6.75, 10.3)" gradientUnits="userSpaceOnUse" id="gradient4" spreadMethod="pad" x1="-819.2" x2="819.2">
      <stop offset="0.0" stop-color="#16aadb"/>
      <stop offset="1.0" stop-color="#d1ff85"/>
    </linearGradient>
    <linearGradient gradientTransform="matrix(0.0086, 0.0137, 0.0016, -8.0E-4, 6.1, 6.65)" gradientUnits="userSpaceOnUse" id="gradient5" spreadMethod="pad" x1="-819.2" x2="819.2">
      <stop offset="0.0" stop-color="#16aadb"/>
      <stop offset="1.0" stop-color="#d1ff85"/>
    </linearGradient>
    <linearGradient gradientTransform="matrix(0.006, 0.0116, -0.0035, 0.0018, 28.15, 50.5)" gradientUnits="userSpaceOnUse" id="gradient6" spreadMethod="pad" x1="-819.2" x2="819.2">
      <stop offset="0.0" stop-color="#41f0f5"/>
      <stop offset="1.0" stop-color="#4aaaff"/>
    </linearGradient>
    <linearGradient gradientTransform="matrix(0.0064, 0.017, -0.0089, 0.0033, 28.7, 52.0)" gradientUnits="userSpaceOnUse" id="gradient7" spreadMethod="pad" x1="-819.2" x2="819.2">
      <stop offset="0.0" stop-color="#41f0f5"/>
      <stop offset="0.3137254901960784" stop-color="#41bef5"/>
      <stop offset="1.0" stop-color="#247fd0"/>
    </linearGradient>
    <linearGradient gradientTransform="matrix(0.0019, 0.0208, -0.0104, 9.0E-4, 18.65, 54.65)" gradientUnits="userSpaceOnUse" id="gradient8" spreadMethod="pad" x1="-819.2" x2="819.2">
      <stop offset="0.0" stop-color="#41f0f5"/>
      <stop offset="0.3137254901960784" stop-color="#41bef5"/>
      <stop offset="1.0" stop-color="#247fd0"/>
    </linearGradient>
    <linearGradient gradientTransform="matrix(-0.0015, 0.0183, -0.004, -3.0E-4, 18.4, 62.75)" gradientUnits="userSpaceOnUse" id="gradient9" spreadMethod="pad" x1="-819.2" x2="819.2">
      <stop offset="0.0" stop-color="#41f0f5"/>
      <stop offset="1.0" stop-color="#4aaaff"/>
    </linearGradient>
    <linearGradient gradientTransform="matrix(-0.0015, 0.0183, -0.004, -3.0E-4, 18.4, 62.75)" gradientUnits="userSpaceOnUse" id="gradient10" spreadMethod="pad" x1="-819.2" x2="819.2">
      <stop offset="0.0" stop-color="#41f0f5"/>
      <stop offset="0.3137254901960784" stop-color="#41bef5"/>
      <stop offset="1.0" stop-color="#247fd0"/>
    </linearGradient>
    <linearGradient gradientTransform="matrix(-0.017, 0.0134, 0.0014, 0.0018, 50.45, 8.55)" gradientUnits="userSpaceOnUse" id="gradient11" spreadMethod="pad" x1="-819.2" x2="819.2">
      <stop offset="0.0" stop-color="#6281ff"/>
      <stop offset="0.5098039215686274" stop-color="#3fcdd2"/>
      <stop offset="1.0" stop-color="#25ffeb"/>
    </linearGradient>
    <linearGradient gradientTransform="matrix(0.0155, -0.0118, -0.0029, -0.0038, 39.0, 16.35)" gradientUnits="userSpaceOnUse" id="gradient12" spreadMethod="pad" x1="-819.2" x2="819.2">
      <stop offset="0.0" stop-color="#ffffff"/>
      <stop offset="0.5098039215686274" stop-color="#c9fdff"/>
      <stop offset="1.0" stop-color="#8afff4"/>
    </linearGradient>
    <g id="sprite0" transform="matrix(1.0, 0.0, 0.0, 1.0, 0.0, 0.0)">
      <use ffdec:characterId="3" height="88.0" transform="matrix(1.0, 0.0, 0.0, 1.0, 0.0, 0.0)" width="92.4" xlink:href="#shape2"/>
    </g>
    <g id="shape2" transform="matrix(1.0, 0.0, 0.0, 1.0, 0.0, 0.0)">
      <path d="M87.5 68.95 L92.4 74.8 84.2 88.0 Q57.75 77.55 36.0 62.8 L34.9 62.05 Q3.6 33.15 0.0 0.0 24.8 33.7 37.7 42.9 L51.5 52.55 60.2 57.4 Q67.95 61.7 87.5 68.95 M85.8 70.5 L85.35 70.0 77.55 66.85 Q63.55 60.9 49.15 53.25 L46.55 51.55 Q23.15 36.55 2.45 5.95 L4.2 11.65 Q7.45 21.65 12.2 30.4 22.05 48.7 38.2 61.55 56.7 73.2 75.25 82.25 L83.75 86.6 85.25 83.8 89.85 75.15 85.8 70.5" fill="#3187ff" fill-opacity="0.4" fill-rule="evenodd" stroke="none"/>
      <path d="M85.8 70.5 L89.85 75.15 85.25 83.8 Q64.3 75.3 51.7 68.25 38.2 60.65 31.0 53.3 23.75 45.9 18.4 38.25 13.05 30.6 9.9 22.95 L6.45 14.6 Q17.7 30.0 35.55 45.75 39.1 48.85 44.1 52.3 49.2 55.3 51.0 56.2 62.05 61.65 71.4 65.4 80.7 69.15 85.8 70.5" fill="url(#gradient13)" fill-rule="evenodd" stroke="none"/>
      <path d="M85.25 83.8 L83.75 86.6 75.25 82.25 Q56.7 73.2 38.2 61.55 22.05 48.7 12.2 30.4 7.45 21.65 4.2 11.65 L2.45 5.95 Q23.15 36.55 46.55 51.55 L49.15 53.25 Q63.55 60.9 77.55 66.85 L85.35 70.0 85.8 70.5 Q80.7 69.15 71.4 65.4 62.05 61.65 51.0 56.2 49.2 55.3 44.1 52.3 39.1 48.85 35.55 45.75 17.7 30.0 6.45 14.6 L9.9 22.95 Q13.05 30.6 18.4 38.25 23.75 45.9 31.0 53.3 38.2 60.65 51.7 68.25 64.3 75.3 85.25 83.8" fill="url(#gradient14)" fill-rule="evenodd" stroke="none"/>
      <path d="M85.25 83.8 L83.75 86.6 75.25 82.25 Q56.7 73.2 38.2 61.55 22.05 48.7 12.2 30.4 7.45 21.65 4.2 11.65 L2.45 5.95 Q23.15 36.55 46.55 51.55 L49.15 53.25 Q63.55 60.9 77.55 66.85 L85.35 70.0 85.8 70.5 89.85 75.15 85.25 83.8 Z" fill="none" stroke="#006ead" stroke-linecap="round" stroke-linejoin="round" stroke-width="1.0"/>
    </g>
    <linearGradient gradientTransform="matrix(-0.0398, -0.0303, 0.0075, -0.0098, 47.15, 53.7)" gradientUnits="userSpaceOnUse" id="gradient13" spreadMethod="pad" x1="-819.2" x2="819.2">
      <stop offset="0.0" stop-color="#ffffff"/>
      <stop offset="0.5098039215686274" stop-color="#c9fdff"/>
      <stop offset="1.0" stop-color="#8afff4"/>
    </linearGradient>
    <linearGradient gradientTransform="matrix(0.0435, 0.0344, -0.0037, 0.0047, 17.9, 33.65)" gradientUnits="userSpaceOnUse" id="gradient14" spreadMethod="pad" x1="-819.2" x2="819.2">
      <stop offset="0.0" stop-color="#6281ff"/>
      <stop offset="0.5098039215686274" stop-color="#3fcdd2"/>
      <stop offset="1.0" stop-color="#25ffeb"/>
    </linearGradient>
    <g id="shape3" transform="matrix(1.0, 0.0, 0.0, 1.0, -8.8, -17.3)">
      <path d="M24.65 33.3 L24.5 33.3 Q25.5 35.0 26.65 35.85 L24.9 35.35 24.55 35.0 Q23.85 34.35 23.85 33.5 23.85 33.0 24.25 32.95 L24.4 32.95 Q24.8 32.95 25.0 33.3 L25.1 33.4 24.65 33.3 M24.0 32.35 L23.75 32.35 Q23.45 32.35 23.2 32.85 L23.0 33.65 23.1 34.75 22.75 34.3 21.85 32.9 19.35 28.85 19.2 28.7 Q17.65 27.5 16.45 27.5 L17.1 25.6 17.75 22.85 17.65 21.95 19.4 23.85 19.15 25.25 Q19.15 27.65 20.2 28.7 L21.9 30.15 23.45 31.05 24.0 32.35" fill="#ffe000" fill-rule="evenodd" stroke="none"/>
      <path d="M24.0 32.35 L23.45 31.05 21.9 30.15 20.2 28.7 Q19.15 27.65 19.15 25.25 L19.4 23.85 17.65 21.95 17.75 22.85 17.1 25.6 16.45 27.5 Q17.65 27.5 19.2 28.7 L19.35 28.85 21.85 32.9 22.75 34.3 23.1 34.75 23.0 33.65 23.2 32.85 Q23.45 32.35 23.75 32.35 L24.0 32.35 M24.65 33.3 L25.1 33.4 25.0 33.3 Q24.8 32.95 24.4 32.95 L24.25 32.95 Q23.85 33.0 23.85 33.5 23.85 34.35 24.55 35.0 L24.9 35.35 26.65 35.85 Q25.5 35.0 24.5 33.3 L24.65 33.3 M23.25 35.85 L19.3 30.0 Q17.5 28.6 15.4 28.2 17.2 24.8 17.4 21.35 L17.55 21.45 Q19.7 22.75 20.9 24.35 L20.9 24.4 26.25 34.3 28.35 36.6 27.8 36.95 Q25.35 35.7 23.25 35.85" fill="#ff9a20" fill-rule="evenodd" stroke="none"/>
      <path d="M23.25 35.85 L19.3 30.0 Q17.5 28.6 15.4 28.2 17.2 24.8 17.4 21.35 L17.55 21.45 Q19.7 22.75 20.9 24.35 L20.9 24.4 26.25 34.3 28.35 36.6 27.8 36.95 Q25.35 35.7 23.25 35.85 Z" fill="none" stroke="#8a341e" stroke-linecap="round" stroke-linejoin="round" stroke-width="1.0"/>
      <path d="M24.95 22.5 Q23.65 23.05 21.65 24.25 21.85 25.6 22.5 26.9 L22.6 27.05 Q24.8 25.7 25.35 25.5 L26.25 24.65 26.5 25.4 24.75 27.8 28.05 27.05 28.3 27.45 24.2 30.55 Q23.3 30.1 22.5 29.35 L21.25 27.85 21.9 27.45 Q21.1 25.95 21.05 24.6 L20.45 24.95 20.25 23.85 24.9 22.3 24.95 22.5" fill="#ff9a20" fill-rule="evenodd" stroke="none"/>
      <path d="M24.95 22.5 L25.05 22.85 23.15 24.7 26.1 24.4 26.25 24.65 25.35 25.5 Q24.8 25.7 22.6 27.05 L22.5 26.9 Q21.85 25.6 21.65 24.25 23.65 23.05 24.95 22.5 M21.25 27.85 L20.9 27.15 Q20.55 26.3 20.45 24.95 L21.05 24.6 Q21.1 25.95 21.9 27.45 L21.25 27.85" fill="#ffe000" fill-rule="evenodd" stroke="none"/>
      <path d="M26.25 24.65 L26.1 24.4 23.15 24.7 25.05 22.85 24.95 22.5 24.9 22.3 20.25 23.85 20.45 24.95 Q20.55 26.3 20.9 27.15 L21.25 27.85 22.5 29.35 Q23.3 30.1 24.2 30.55 L28.3 27.45 28.05 27.05 24.75 27.8 26.5 25.4 26.25 24.65 Z" fill="none" stroke="#8a341e" stroke-linecap="round" stroke-linejoin="round" stroke-width="1.0"/>
      <path d="M21.9 38.25 L21.8 38.35 21.5 38.65 21.1 38.75 Q20.2 38.75 19.9 38.35 L19.7 37.45 19.7 37.2 19.9 37.55 Q20.15 37.9 20.6 37.9 L21.2 37.65 21.4 37.2 21.1 36.4 Q20.8 36.05 20.2 35.9 L18.45 34.75 Q17.05 33.9 15.9 33.65 15.25 33.65 14.35 34.0 L13.2 34.4 12.5 33.65 11.8 32.9 Q11.85 31.85 12.3 30.7 L12.8 29.75 12.65 30.4 12.45 31.6 12.7 32.65 Q13.05 33.4 13.5 33.75 L13.6 33.75 15.0 33.6 15.1 33.6 15.3 33.6 16.35 33.45 18.15 34.35 18.5 34.55 20.3 35.7 20.5 35.75 Q21.0 35.85 21.35 36.15 21.95 36.65 21.95 37.55 L21.9 38.25" fill="#25ffeb" fill-rule="evenodd" stroke="none"/>
      <path d="M16.65 19.6 L18.1 18.1 Q15.45 19.25 13.7 20.75 11.9 22.25 11.0 23.6 L11.0 24.3 Q11.0 26.45 11.5 27.95 12.0 25.95 13.35 23.8 14.65 21.75 16.65 19.6 M9.75 23.5 Q13.65 19.5 18.4 17.8 L18.35 18.0 Q17.55 22.1 15.5 24.95 L14.6 25.1 15.05 24.45 16.1 22.3 16.2 21.85 16.2 21.75 14.9 22.55 12.65 26.25 12.6 26.35 Q11.8 27.85 11.65 29.3 9.95 28.5 8.8 26.25 8.8 25.45 9.75 23.5 M16.0 20.95 L14.9 22.55 16.0 20.95" fill="#96c3de" fill-rule="evenodd" stroke="none"/>
      <path d="M14.6 25.1 Q13.7 25.45 12.65 26.25 L14.9 22.55 16.2 21.75 16.2 21.85 16.1 22.3 15.05 24.45 14.6 25.1" fill="#fa92ae" fill-rule="evenodd" stroke="none"/>
      <path d="M16.65 19.6 Q14.65 21.75 13.35 23.8 12.0 25.95 11.5 27.95 11.0 26.45 11.0 24.3 L11.0 23.6 Q11.9 22.25 13.7 20.75 15.45 19.25 18.1 18.1 L16.65 19.6" fill="#f3faff" fill-rule="evenodd" stroke="none"/>
      <path d="M9.75 23.5 Q13.65 19.5 18.4 17.8 L18.35 18.0 Q17.55 22.1 15.5 24.95 M12.65 26.25 L12.6 26.35 Q11.8 27.85 11.65 29.3 M14.9 22.55 L12.65 26.25 M14.9 22.55 L16.0 20.95" fill="none" stroke="#175498" stroke-linecap="round" stroke-linejoin="round" stroke-width="1.0"/>
    </g>
    <g id="sprite1" transform="matrix(1.0, 0.0, 0.0, 1.0, -6.6, -2.65)">
      <use ffdec:characterId="6" height="40.35" transform="matrix(1.0, 0.0, 0.0, 1.0, 6.6, 3.05)" width="16.55" xlink:href="#shape4"/>
      <filter id="filter1">
        <feConvolveMatrix divisor="100.0" in="SourceGraphic" kernelMatrix="1 1 1 1 1 1 1 1 1 1 1 1 1 1 1 1 1 1 1 1 1 1 1 1 1 1 1 1 1 1 1 1 1 1 1 1 1 1 1 1 1 1 1 1 1 1 1 1 1 1 1 1 1 1 1 1 1 1 1 1 1 1 1 1 1 1 1 1 1 1 1 1 1 1 1 1 1 1 1 1 1 1 1 1 1 1 1 1 1 1 1 1 1 1 1 1 1 1 1 1" order="10 10" result="filterResult4"/>
        <feColorMatrix in="filterResult4" result="filterResult5" type="matrix" values="0 0 0 0 0.0,0 0 0 0 0.4,0 0 0 0 1.0,0 0 0 1 0"/>
        <feConvolveMatrix divisor="25.0" in="filterResult5" kernelMatrix="1 1 1 1 1 1 1 1 1 1 1 1 1 1 1 1 1 1 1 1 1 1 1 1 1" order="5 5" result="filterResult6"/>
        <feComposite in="filterResult4" in2="filterResult6" operator="over" result="filterResult7"/>
      </filter>
      <use ffdec:characterId="8" filter="url(#filter1)" height="42.05" style="mix-blend-mode: hard-light" transform="matrix(0.7305, 0.0, 0.0, 0.9588, 6.65, 2.65)" width="22.6" xlink:href="#sprite2"/>
    </g>
    <g id="shape4" transform="matrix(1.0, 0.0, 0.0, 1.0, -6.6, -3.05)">
      <path d="M21.1 25.65 Q20.15 26.25 19.45 27.15 L18.3 28.85 Q17.75 30.0 17.45 31.5 17.05 33.45 16.9 37.8 L16.5 43.4 15.75 36.4 Q15.3 32.75 14.2 29.3 11.6 24.7 6.6 25.05 13.0 24.15 14.5 18.45 15.15 16.1 15.15 7.05 L15.15 5.7 15.15 5.35 15.3 4.7 15.6 3.05 15.9 6.85 15.95 7.1 16.0 7.75 16.7 15.65 Q17.0 18.8 17.8 21.15 18.2 22.4 21.5 24.0 L23.15 24.7 22.15 25.1 Q19.6 24.5 18.05 22.55 16.25 20.2 15.5 6.05 15.65 21.7 13.35 23.2 11.0 24.75 10.0 24.9 L8.65 25.1 Q14.05 26.3 14.65 28.4 15.3 30.45 16.5 40.6 16.35 28.75 18.75 27.0 19.95 26.1 21.1 25.65" fill="#0041ff" fill-opacity="0.4" fill-rule="evenodd" stroke="none"/>
      <path d="M22.15 25.1 L23.15 25.2 Q22.15 25.2 21.1 25.65 19.95 26.1 18.75 27.0 16.35 28.75 16.5 40.6 15.3 30.45 14.65 28.4 14.05 26.3 8.65 25.1 L10.0 24.9 Q11.0 24.75 13.35 23.2 15.65 21.7 15.5 6.05 16.25 20.2 18.05 22.55 19.6 24.5 22.15 25.1 M14.5 22.35 Q13.65 24.0 11.35 24.9 L9.55 25.2 Q13.75 26.05 14.65 27.8 15.6 29.65 16.35 37.25 16.8 27.95 17.85 27.0 18.85 26.05 19.9 25.85 L21.95 25.2 Q18.1 24.15 17.3 22.1 16.5 20.0 15.7 10.6 15.4 20.65 14.5 22.35" fill="#2cf1e4" fill-rule="evenodd" stroke="none"/>
      <path d="M14.5 22.35 Q15.4 20.65 15.7 10.6 16.5 20.0 17.3 22.1 18.1 24.15 21.95 25.2 L19.9 25.85 Q18.85 26.05 17.85 27.0 16.8 27.95 16.35 37.25 15.6 29.65 14.65 27.8 13.75 26.05 9.55 25.2 L11.35 24.9 Q13.65 24.0 14.5 22.35" fill="#e7feff" fill-rule="evenodd" stroke="none"/>
    </g>
    <g id="sprite2" transform="matrix(1.0, 0.0, 0.0, 1.0, 0.0, 0.0)">
      <use ffdec:characterId="7" height="42.05" transform="matrix(1.0, 0.0, 0.0, 1.0, 0.0, 0.0)" width="22.6" xlink:href="#shape5"/>
    </g>
    <g id="shape5" transform="matrix(1.0, 0.0, 0.0, 1.0, 0.0, 0.0)">
      <path d="M22.6 23.1 L19.85 23.55 Q18.5 24.15 17.55 25.1 16.65 25.9 16.0 26.9 15.25 28.1 14.85 29.65 14.25 31.7 14.1 36.2 13.9 40.2 13.5 42.05 L12.5 34.75 Q11.85 30.95 10.4 27.35 6.8 22.55 0.0 22.9 8.7 22.0 10.8 16.05 11.65 13.6 11.7 4.15 L11.7 2.75 11.7 2.35 11.85 1.7 12.3 0.0 12.7 3.95 12.75 4.2 12.85 4.9 13.8 13.1 Q14.2 16.4 15.3 18.85 15.85 20.15 20.4 21.8 L22.6 22.55 21.25 22.95 22.6 23.1" fill="#2c7ff1" fill-rule="evenodd" stroke="none"/>
    </g>
    <g id="shape6" transform="matrix(1.0, 0.0, 0.0, 1.0, -14.55, -22.6)">
      <path d="M15.3 26.45 L15.1 24.7 15.3 22.6 15.35 22.6 15.5 23.35 15.85 25.1 Q16.05 26.05 16.4 26.85 L16.85 27.75 16.9 27.8 Q16.8 27.45 16.85 26.9 16.95 26.25 17.2 25.8 L17.2 26.1 Q17.1 26.95 17.6 28.5 L17.65 28.6 17.75 29.05 18.1 29.4 18.1 29.2 Q18.15 28.4 18.55 27.9 L18.8 29.8 18.9 30.5 18.9 30.55 19.35 30.95 19.45 31.1 20.5 32.1 22.05 33.5 21.0 32.9 20.55 32.55 20.15 32.3 20.3 32.5 20.6 32.9 20.8 33.65 20.35 33.2 20.0 32.8 19.7 32.9 18.75 32.95 Q17.25 32.95 16.2 31.85 15.3 30.85 15.3 29.35 L15.35 28.4 15.4 27.95 15.35 27.8 15.35 27.75 15.3 27.65 14.9 26.35 15.4 26.85 15.3 26.5 15.3 26.45 M17.15 29.7 L16.95 28.85 16.75 28.0 16.7 28.0 16.65 28.65 16.65 29.15 16.45 28.95 16.0 27.4 16.0 27.5 16.1 28.25 16.15 29.05 16.1 29.3 15.95 30.25 Q16.0 31.0 16.85 31.9 17.65 32.75 18.4 32.85 L19.45 32.85 19.95 32.7 19.65 32.4 19.5 32.25 19.3 31.6 18.75 32.1 18.1 32.05 Q17.4 31.75 17.15 31.3 L16.95 30.85 17.0 30.9 Q17.35 30.9 17.55 30.5 L17.65 30.15 17.5 30.1 17.15 29.7" fill="url(#gradient15)" fill-rule="evenodd" stroke="none"/>
      <path d="M15.3 26.45 L15.3 26.5 15.4 26.85 14.9 26.35 15.3 27.65 15.35 27.75 15.35 27.8 15.4 27.95 15.35 28.4 15.3 29.35 Q15.3 30.85 16.2 31.85 17.25 32.95 18.75 32.95 L19.7 32.9 20.0 32.8 20.35 33.2 20.8 33.65 20.6 32.9 20.3 32.5 20.15 32.3 20.55 32.55 21.0 32.9 21.25 33.75 21.55 34.65 20.9 33.85 20.85 33.7 Q18.2 33.4 16.95 32.7 14.65 31.4 14.65 28.45 L14.7 27.75 14.9 26.75 14.55 25.85 14.9 26.15 15.3 26.45 M20.5 32.1 L19.45 31.1 19.35 30.95 18.9 30.55 18.9 30.5 18.8 29.8 20.2 31.6 20.5 32.1 M18.1 29.2 L18.1 29.4 17.75 29.05 17.65 28.6 17.6 28.5 17.75 28.6 18.1 29.2" fill="#22b6f7" fill-rule="evenodd" stroke="none"/>
      <path d="M19.65 32.4 L19.95 32.7 19.45 32.85 18.4 32.85 Q17.65 32.75 16.85 31.9 16.0 31.0 15.95 30.25 L16.1 29.3 16.15 29.05 16.1 28.25 16.0 27.5 16.0 27.4 16.45 28.95 16.65 29.15 16.65 28.65 16.7 28.0 16.75 28.0 16.95 28.85 17.15 29.7 17.15 29.75 17.15 29.85 17.0 30.15 16.8 30.25 16.35 30.2 16.35 30.45 Q16.6 31.65 17.65 32.15 L19.25 32.5 19.65 32.4" fill="#d7fbff" fill-rule="evenodd" stroke="none"/>
      <path d="M17.5 30.1 L17.65 30.15 17.55 30.5 Q17.35 30.9 17.0 30.9 L16.95 30.85 17.15 31.3 Q17.4 31.75 18.1 32.05 L18.75 32.1 19.3 31.6 19.5 32.25 18.85 32.4 Q18.35 32.5 17.55 31.95 16.8 31.35 16.8 30.75 L16.8 30.6 16.85 30.65 17.05 30.75 17.35 30.55 17.55 30.2 17.5 30.1" fill="#208aff" fill-rule="evenodd" stroke="none"/>
      <path d="M17.15 29.7 L17.5 30.1 17.55 30.2 17.35 30.55 17.05 30.75 16.85 30.65 16.8 30.6 16.8 30.75 Q16.8 31.35 17.55 31.95 18.35 32.5 18.85 32.4 L19.5 32.25 19.65 32.4 19.25 32.5 17.65 32.15 Q16.6 31.65 16.35 30.45 L16.35 30.2 16.8 30.25 17.0 30.15 17.15 29.85 17.15 29.75 17.15 29.7" fill="#25ffeb" fill-rule="evenodd" stroke="none"/>
    </g>
    <linearGradient gradientTransform="matrix(0.0046, 0.0075, 0.0022, -0.0014, 16.15, 27.3)" gradientUnits="userSpaceOnUse" id="gradient15" spreadMethod="pad" x1="-819.2" x2="819.2">
      <stop offset="0.0" stop-color="#3c82ff"/>
      <stop offset="1.0" stop-color="#14458a"/>
    </linearGradient>
    <g id="sprite3" transform="matrix(1.0, 0.0, 0.0, 1.0, 0.0, 0.0)">
      <use ffdec:characterId="11" height="35.8" transform="matrix(1.0, 0.0, 0.0, 1.0, 0.0, 0.0)" width="22.15" xlink:href="#shape7"/>
    </g>
    <g id="shape7" transform="matrix(1.0, 0.0, 0.0, 1.0, 0.0, 0.0)">
      <path d="M2.15 11.4 Q1.7 9.5 1.7 6.15 1.7 3.5 2.25 0.0 L2.35 0.0 2.9 2.25 3.85 7.35 Q4.4 10.2 5.5 12.65 L6.75 15.2 6.8 15.25 6.95 15.4 Q6.6 14.35 6.85 12.75 7.05 10.95 7.9 9.45 L7.9 10.45 Q7.55 12.9 9.05 17.45 L9.2 17.8 9.6 19.2 10.4 20.3 10.5 19.6 Q10.7 17.25 11.9 15.8 L12.55 21.4 12.8 23.45 12.85 23.5 14.25 24.9 14.6 25.25 17.55 28.15 22.15 32.3 19.1 30.5 17.85 29.6 16.65 28.75 17.0 29.25 18.0 30.45 18.5 32.8 18.5 32.85 18.55 33.0 17.15 31.4 16.05 30.25 15.2 30.45 12.45 30.7 Q7.95 30.7 5.0 27.45 2.2 24.4 2.2 20.0 L2.35 17.25 2.6 15.85 2.3 15.35 2.25 14.95 1.0 11.15 2.45 12.6 2.2 11.6 2.15 11.4 M15.1 29.1 L14.65 28.6 14.0 26.65 Q13.2 27.85 12.45 28.15 L10.45 28.0 Q8.5 27.25 7.7 25.8 L7.0 24.45 7.35 24.55 Q8.3 24.55 8.9 23.4 L9.2 22.35 8.75 22.15 7.7 21.05 5.05 18.2 Q4.15 20.45 4.2 22.75 4.25 25.0 6.75 27.6 9.2 30.15 11.4 30.35 13.55 30.55 14.6 30.35 L15.95 30.0 15.1 29.1" fill="url(#gradient16)" fill-rule="evenodd" stroke="none"/>
      <path d="M2.15 11.4 L2.2 11.6 2.45 12.6 1.0 11.15 2.25 14.95 2.3 15.35 2.6 15.85 2.35 17.25 2.2 20.0 Q2.2 24.4 5.0 27.45 7.95 30.7 12.45 30.7 L15.2 30.45 16.05 30.25 17.15 31.4 18.55 33.0 Q10.8 32.1 7.05 29.95 0.25 26.2 0.25 17.35 0.25 16.0 0.5 15.2 L1.0 12.35 0.0 9.8 0.95 10.5 2.15 11.4 M18.5 32.85 L18.5 32.8 18.0 30.45 17.0 29.25 16.65 28.75 17.85 29.6 19.1 30.5 19.85 33.1 20.75 35.8 18.9 33.4 18.6 33.0 18.5 32.85 M17.55 28.15 L14.6 25.25 14.25 24.9 12.85 23.5 12.8 23.45 12.55 21.4 16.8 26.65 17.55 28.15 M10.5 19.6 L10.4 20.3 9.6 19.2 9.2 17.8 9.05 17.45 9.5 17.85 Q10.2 18.65 10.5 19.6" fill="#22b6f7" fill-rule="evenodd" stroke="none"/>
      <path d="M15.1 29.1 L13.85 29.5 Q11.2 29.5 9.2 28.35 6.15 26.8 5.4 23.3 L5.4 22.55 6.6 22.8 7.35 22.5 Q7.75 22.15 7.75 21.6 L7.7 21.05 8.75 22.15 8.9 22.6 Q8.9 23.1 8.3 23.65 L7.45 24.15 6.8 23.9 6.7 23.8 6.65 23.8 6.65 24.15 Q6.6 26.05 8.85 27.7 11.2 29.4 12.65 29.1 L14.65 28.6 15.1 29.1" fill="#25ffeb" fill-rule="evenodd" stroke="none"/>
      <path d="M7.7 21.05 L7.75 21.6 Q7.75 22.15 7.35 22.5 L6.6 22.8 5.4 22.55 5.4 23.3 Q6.15 26.8 9.2 28.35 11.2 29.5 13.85 29.5 L15.1 29.1 15.95 30.0 14.6 30.35 Q13.55 30.55 11.4 30.35 9.2 30.15 6.75 27.6 4.25 25.0 4.2 22.75 4.15 20.45 5.05 18.2 L7.7 21.05" fill="#d7fbff" fill-rule="evenodd" stroke="none"/>
      <path d="M14.65 28.6 L12.65 29.1 Q11.2 29.4 8.85 27.7 6.6 26.05 6.65 24.15 L6.65 23.8 6.7 23.8 6.8 23.9 7.45 24.15 8.3 23.65 Q8.9 23.1 8.9 22.6 L8.75 22.15 9.2 22.35 8.9 23.4 Q8.3 24.55 7.35 24.55 L7.0 24.45 7.7 25.8 Q8.5 27.25 10.45 28.0 L12.45 28.15 Q13.2 27.85 14.0 26.65 L14.65 28.6" fill="#208aff" fill-rule="evenodd" stroke="none"/>
    </g>
    <linearGradient gradientTransform="matrix(0.0137, 0.0222, 0.0064, -0.004, 4.75, 13.95)" gradientUnits="userSpaceOnUse" id="gradient16" spreadMethod="pad" x1="-819.2" x2="819.2">
      <stop offset="0.0" stop-color="#3c82ff"/>
      <stop offset="1.0" stop-color="#14458a"/>
    </linearGradient>
    <g id="shape8" transform="matrix(1.0, 0.0, 0.0, 1.0, 0.0, 0.0)">
      <path d="M50.5 0.0 Q53.95 0.0 53.95 3.3 L53.95 50.15 Q53.95 53.4 50.5 53.4 L3.3 53.4 Q0.0 53.4 0.0 50.15 L0.0 3.3 Q0.0 0.0 3.3 0.0 L50.5 0.0" fill="#000000" fill-opacity="0.003921569" fill-rule="evenodd" stroke="none"/>
    </g>
  </defs>
</svg>
