<?xml version="1.0" encoding="UTF-8" standalone="no"?>
<svg xmlns:ffdec="https://www.free-decompiler.com/flash" xmlns:xlink="http://www.w3.org/1999/xlink" ffdec:objectType="frame" height="90.65px" width="75.25px" xmlns="http://www.w3.org/2000/svg">
  <g transform="matrix(1.0, 0.0, 0.0, 1.0, 21.3, 15.75)">
    <clipPath id="clipPath0" transform="matrix(1.0, 0.0, 0.0, 1.0, 0.0, 0.0)">
      <path d="M50.5 0.0 Q53.95 0.0 53.95 3.3 L53.95 50.15 Q53.95 53.4 50.5 53.4 L3.3 53.4 Q0.0 53.4 0.0 50.15 L0.0 3.3 Q0.0 0.0 3.3 0.0 L50.5 0.0" fill="#000000" fill-rule="evenodd" stroke="none"/>
    </clipPath>
    <g clip-path="url(#clipPath0)">
      <use ffdec:characterId="2" height="90.65" transform="matrix(1.0, 0.0, 0.0, 1.0, -21.3, -15.75)" width="71.8" xlink:href="#shape1"/>
    </g>
    <use ffdec:characterId="3" height="53.4" transform="matrix(1.0, 0.0, 0.0, 1.0, 0.0, 0.0)" width="53.95" xlink:href="#shape2"/>
  </g>
  <defs>
    <g id="shape1" transform="matrix(1.0, 0.0, 0.0, 1.0, 21.3, 15.75)">
      <path d="M48.25 -3.3 L47.85 -3.8 Q47.9 0.05 46.65 4.1 L45.0 10.5 44.4 13.0 Q44.2 21.8 42.5 29.5 L44.4 27.65 Q46.15 19.25 49.9 12.45 50.3 4.2 49.3 -1.8 L48.25 -3.3" fill="#9a2c18" fill-rule="evenodd" stroke="none"/>
      <path d="M48.25 -3.3 L47.85 -3.8 Q47.9 0.05 46.65 4.1 L45.0 10.5 44.4 13.0 Q44.2 21.8 42.5 29.5 L44.4 27.65 Q46.15 19.25 49.9 12.45 50.3 4.2 49.3 -1.8 L48.25 -3.3 Z" fill="none" stroke="#5b0000" stroke-linecap="round" stroke-linejoin="round" stroke-width="1.0"/>
      <path d="M39.95 29.15 L34.85 29.55 32.15 38.2 34.2 43.85 Q35.65 43.35 37.65 40.9 39.65 35.9 39.95 29.15" fill="#9a2c18" fill-rule="evenodd" stroke="none"/>
      <path d="M39.95 29.15 Q39.65 35.9 37.65 40.9 35.65 43.35 34.2 43.85 L32.15 38.2 34.85 29.55 39.95 29.15 Z" fill="none" stroke="#5b0000" stroke-linecap="round" stroke-linejoin="round" stroke-width="1.0"/>
      <path d="M28.9 60.8 Q29.85 57.5 30.05 53.3 L30.05 53.0 28.2 43.25 4.8 42.05 -9.85 39.5 Q-11.5 40.95 -12.0 43.55 L-12.0 43.65 -12.0 44.0 Q-11.6 52.15 -3.35 53.05 3.5 56.7 5.9 65.8 10.75 71.15 16.9 74.4 18.65 71.15 21.6 68.15 22.9 71.45 24.4 73.65 L25.0 70.45 Q24.6 66.0 28.9 60.8" fill="#9a2c18" fill-rule="evenodd" stroke="none"/>
      <path d="M28.9 60.8 Q29.85 57.5 30.05 53.3 L30.05 53.0 28.2 43.25 4.8 42.05 -9.85 39.5 Q-11.5 40.95 -12.0 43.55 L-12.0 43.65 -12.0 44.0 Q-11.6 52.15 -3.35 53.05 3.5 56.7 5.9 65.8 10.75 71.15 16.9 74.4 18.65 71.15 21.6 68.15 22.9 71.45 24.4 73.65 L25.0 70.45 Q24.6 66.0 28.9 60.8 Z" fill="none" stroke="#5b0000" stroke-linecap="round" stroke-linejoin="round" stroke-width="1.0"/>
      <path d="M-9.55 36.95 L-9.85 37.0 -9.95 37.1 Q-12.5 39.4 -12.1 44.0 -10.95 42.4 -9.25 41.05 -7.65 41.0 -5.5 42.95 L-4.8 43.75 -4.65 43.9 Q-1.15 48.35 2.2 51.35 L2.4 51.55 Q6.45 55.35 10.75 56.3 12.9 53.65 14.25 47.55 13.95 41.9 12.25 39.45 8.75 38.45 5.25 37.9 L2.15 37.4 4.75 40.25 Q5.6 41.35 6.55 44.5 7.45 47.6 7.35 49.3 L6.95 52.2 6.75 53.1 Q5.6 52.55 4.6 51.8 2.0 49.95 0.2 47.2 L-1.7 44.35 -3.7 41.4 Q-4.5 40.05 -6.3 38.95 L-9.55 36.95" fill="#9a2c18" fill-rule="evenodd" stroke="none"/>
      <path d="M-9.55 36.95 L-6.3 38.95 Q-4.5 40.05 -3.7 41.4 L-1.7 44.35 0.2 47.2 Q2.0 49.95 4.6 51.8 5.6 52.55 6.75 53.1 L6.95 52.2 7.35 49.3 Q7.45 47.6 6.55 44.5 5.6 41.35 4.75 40.25 L2.15 37.4 -9.55 36.95 M-1.7 42.9 L-2.7 41.65 -3.45 40.5 Q-3.45 39.35 -2.35 40.4 -1.35 41.45 -1.35 42.25 L-1.35 42.75 Q-1.35 42.9 -1.7 42.9" fill="#ff3a17" fill-rule="evenodd" stroke="none"/>
      <path d="M-1.7 42.9 Q-1.35 42.9 -1.35 42.75 L-1.35 42.25 Q-1.35 41.45 -2.35 40.4 -3.45 39.35 -3.45 40.5 L-2.7 41.65 -1.7 42.9" fill="#ff9393" fill-rule="evenodd" stroke="none"/>
      <path d="M2.15 37.4 L5.25 37.9 Q8.75 38.45 12.25 39.45 13.95 41.9 14.25 47.55 12.9 53.65 10.75 56.3 6.45 55.35 2.4 51.55 L2.2 51.35 Q-1.15 48.35 -4.65 43.9 L-4.8 43.75 -5.5 42.95 Q-7.65 41.0 -9.25 41.05 -10.95 42.4 -12.1 44.0 -12.5 39.4 -9.95 37.1 L-9.85 37.0 -9.55 36.95 2.15 37.4 Z" fill="none" stroke="#5b0000" stroke-linecap="round" stroke-linejoin="round" stroke-width="1.0"/>
      <path d="M36.85 47.2 Q36.8 49.05 36.25 50.7 35.35 53.5 32.05 55.2 31.7 52.35 33.0 48.1 L33.75 47.15 28.4 48.05 Q28.55 54.45 29.4 57.7 32.7 57.15 36.0 53.8 37.2 51.6 37.25 47.2 L36.85 47.2" fill="#9a2c18" fill-rule="evenodd" stroke="none"/>
      <path d="M33.75 47.15 L33.0 48.1 Q31.7 52.35 32.05 55.2 35.35 53.5 36.25 50.7 36.8 49.05 36.85 47.2 L33.75 47.15" fill="#ff3a17" fill-rule="evenodd" stroke="none"/>
      <path d="M33.75 47.15 L36.85 47.2 37.25 47.2 Q37.2 51.6 36.0 53.8 32.7 57.15 29.4 57.7 28.55 54.45 28.4 48.05 L33.75 47.15 Z" fill="none" stroke="#5b0000" stroke-linecap="round" stroke-linejoin="round" stroke-width="1.0"/>
      <path d="M28.05 49.4 L32.05 47.2 34.65 45.1 Q34.2 43.4 34.35 41.9 34.4 40.4 35.05 38.35 L37.65 33.75 Q35.15 31.7 37.65 26.3 L16.8 15.85 7.95 29.7 9.6 42.2 9.75 42.25 12.25 44.7 13.25 45.45 Q13.05 44.75 13.0 44.05 L12.95 43.75 Q12.8 42.4 12.8 40.75 L12.9 38.2 13.9 38.7 Q15.3 39.4 17.25 40.0 L17.35 40.0 Q16.65 39.25 15.7 35.9 L15.05 33.25 Q17.05 34.85 19.8 35.7 23.5 36.9 29.0 36.9 L29.55 36.9 Q29.85 40.75 31.2 42.95 L29.95 46.0 29.9 46.1 29.5 46.95 29.9 47.4 29.05 47.75 28.05 49.4" fill="#f7b58d" fill-rule="evenodd" stroke="none"/>
      <path d="M13.25 45.45 Q18.0 49.0 24.85 50.55 L28.05 49.4 29.05 47.75 29.9 47.4 29.5 46.95 29.05 47.7 29.05 47.75 28.7 48.05 26.4 49.5 25.6 49.7 23.95 49.5 21.05 48.55 17.15 47.05 Q14.2 45.65 13.0 44.05 13.05 44.75 13.25 45.45 M29.9 46.1 L29.95 46.0 31.2 42.95 Q29.85 40.75 29.55 36.9 L29.0 36.9 Q23.5 36.9 19.8 35.7 17.05 34.85 15.05 33.25 L15.7 35.9 Q16.65 39.25 17.35 40.0 L17.25 40.0 Q15.3 39.4 13.9 38.7 L12.9 38.2 12.8 40.75 Q12.8 42.4 12.95 43.75 15.8 45.55 19.25 46.5 22.3 47.4 25.4 47.4 L27.2 47.1 28.95 46.55 29.9 46.1" fill="#f7d1ac" fill-rule="evenodd" stroke="none"/>
      <path d="M29.5 46.95 L29.9 46.1 28.95 46.55 27.2 47.1 25.4 47.4 Q22.3 47.4 19.25 46.5 15.8 45.55 12.95 43.75 L13.0 44.05 Q14.2 45.65 17.15 47.05 L21.05 48.55 23.95 49.5 25.6 49.7 26.4 49.5 28.7 48.05 29.05 47.75 29.05 47.7 29.5 46.95" fill="#ffe3c9" fill-rule="evenodd" stroke="none"/>
      <path d="M28.05 49.4 L32.05 47.2 34.65 45.1 Q34.2 43.4 34.35 41.9 34.4 40.4 35.05 38.35 L37.65 33.75 Q35.15 31.7 37.65 26.3 L16.8 15.85 7.95 29.7 9.6 42.2 9.75 42.25 12.25 44.7 13.25 45.45 Q18.0 49.0 24.85 50.55 L28.05 49.4 Z" fill="none" stroke="#912d11" stroke-linecap="round" stroke-linejoin="round" stroke-width="1.0"/>
      <path d="M24.05 39.75 L24.6 39.25 25.55 38.3 27.8 39.9 27.6 39.7 27.6 39.65 Q26.2 38.45 24.55 37.45 L23.95 37.1 Q22.85 36.4 21.6 35.85 L21.05 35.6 20.2 35.15 18.85 34.4 18.65 34.3 18.55 34.25 18.1 33.9 16.5 32.75 15.8 32.35 15.8 34.0 15.9 35.1 16.4 36.95 16.45 37.25 16.85 38.3 Q16.4 35.6 16.4 34.1 L16.4 33.5 16.8 33.7 16.9 33.75 17.6 34.15 17.75 34.3 18.05 34.45 18.1 34.45 18.15 34.5 18.25 34.45 18.35 34.6 18.6 34.7 18.75 34.75 18.75 34.8 18.85 34.85 19.45 35.15 20.25 35.6 20.25 35.45 Q21.05 35.9 21.05 36.9 L20.85 37.9 21.0 38.3 21.15 38.65 Q21.55 39.35 22.25 39.4 23.05 39.45 23.45 38.7 L23.9 37.35 24.0 37.4 24.2 37.5 23.4 39.15 22.8 39.75 23.5 39.25 24.5 37.6 24.9 37.85 24.05 39.75 M27.3 39.25 L27.1 39.05 27.05 38.95 27.3 39.25 M21.7 36.25 L23.75 37.25 23.4 38.3 Q23.0 39.25 22.55 39.25 L22.4 39.25 Q21.8 39.05 21.6 38.05 L21.55 37.4 21.55 36.9 21.65 36.4 21.7 36.25" fill="#721107" fill-rule="evenodd" stroke="none"/>
      <path d="M16.45 37.25 L16.55 37.6 17.4 39.55 17.6 39.6 19.65 40.0 23.05 40.2 23.15 40.2 23.4 40.15 23.6 40.2 24.05 39.75 24.9 37.85 24.5 37.6 23.5 39.25 22.8 39.75 22.35 39.9 21.65 39.95 21.3 39.9 Q20.1 39.65 19.3 38.3 L19.25 38.1 Q18.75 39.05 18.35 39.0 L18.0 38.8 18.1 38.95 Q17.15 37.9 16.95 36.4 16.75 35.15 16.9 34.1 L16.9 33.75 16.8 33.7 16.4 33.5 16.4 34.1 Q16.4 35.6 16.85 38.3 L16.45 37.25 M20.85 37.9 L21.05 36.9 Q21.05 35.9 20.25 35.45 L20.25 35.6 19.45 35.15 18.85 34.9 18.35 34.7 18.35 34.75 19.1 35.45 Q19.8 36.25 19.75 37.1 19.65 37.9 19.35 37.8 L19.05 37.75 19.25 38.1 19.9 38.6 20.25 38.55 20.75 38.1 20.85 37.9 M18.1 34.7 L18.1 34.6 Q17.9 34.65 17.8 34.8 L17.75 34.85 18.0 34.95 18.2 35.05 18.1 34.7" fill="#ffb5ad" fill-rule="evenodd" stroke="none"/>
      <path d="M18.85 34.85 L18.75 34.8 18.75 34.75 18.6 34.7 18.35 34.6 18.25 34.45 18.15 34.5 18.1 34.45 18.05 34.45 17.75 34.3 17.6 34.15 16.9 33.75 16.9 34.1 Q16.75 35.15 16.95 36.4 17.15 37.9 18.1 38.95 L18.0 38.8 17.75 38.25 17.5 37.0 Q17.4 36.25 17.6 35.4 L17.7 35.05 17.75 34.85 17.8 34.8 Q17.9 34.65 18.1 34.6 L18.1 34.7 18.2 34.65 18.35 34.75 18.35 34.7 18.85 34.9 18.85 34.85 M19.25 38.1 L19.3 38.3 Q20.1 39.65 21.3 39.9 20.65 39.7 20.25 38.95 L19.9 38.6 19.25 38.1" fill="#b12d1d" fill-rule="evenodd" stroke="none"/>
      <path d="M27.6 39.65 L27.35 39.35 27.3 39.25 27.05 38.95 25.6 37.5 24.75 36.85 24.05 36.4 22.75 35.7 21.7 35.05 Q21.05 34.65 20.5 34.4 L19.7 33.9 15.3 31.6 16.5 32.75 18.1 33.9 18.55 34.25 18.65 34.3 18.85 34.4 20.2 35.15 21.05 35.6 21.6 35.85 Q22.85 36.4 23.95 37.1 L24.55 37.45 Q26.2 38.45 27.6 39.65 M21.7 36.25 L21.65 36.4 21.55 36.9 21.55 37.4 21.6 38.05 Q21.8 39.05 22.4 39.25 L22.55 39.25 Q23.0 39.25 23.4 38.3 L23.75 37.25 21.7 36.25" fill="#190500" fill-rule="evenodd" stroke="none"/>
      <path d="M18.35 34.75 L18.2 34.65 18.1 34.7 18.2 35.05 18.0 34.95 17.75 34.85 17.7 35.05 17.6 35.4 Q17.4 36.25 17.5 37.0 L17.75 38.25 18.0 38.8 18.35 39.0 Q18.75 39.05 19.25 38.1 L19.05 37.75 19.35 37.8 Q19.65 37.9 19.75 37.1 19.8 36.25 19.1 35.45 L18.35 34.75" fill="#fff6f5" fill-rule="evenodd" stroke="none"/>
      <path d="M21.15 38.65 L21.0 38.3 20.85 37.9 20.75 38.1 20.25 38.55 20.65 38.8 21.15 38.65 M19.45 35.15 L18.85 34.85 18.85 34.9 19.45 35.15" fill="#e53302" fill-rule="evenodd" stroke="none"/>
      <path d="M27.1 39.05 L26.65 38.25 24.2 36.25 24.1 36.2 22.8 35.1 22.15 34.5 18.8 31.05 19.85 33.1 20.65 34.25 Q16.9 32.1 14.2 30.7 L15.7 32.95 15.75 34.0 Q15.75 35.1 16.1 36.25 L16.4 36.95 15.9 35.1 15.8 34.0 15.8 32.35 16.5 32.75 15.3 31.6 19.7 33.9 20.5 34.4 Q21.05 34.65 21.7 35.05 L22.75 35.7 24.05 36.4 24.75 36.85 25.6 37.5 27.05 38.95 27.1 39.05 M17.4 39.55 Q16.65 39.35 16.25 38.9 16.25 39.15 16.6 39.55 L16.75 39.75 17.6 40.05 20.9 40.75 23.25 40.95 23.8 40.05 23.6 40.2 23.4 40.15 23.15 40.2 23.05 40.2 19.65 40.0 17.6 39.6 17.4 39.55" fill="#c44639" fill-rule="evenodd" stroke="none"/>
      <path d="M22.8 39.75 L23.4 39.15 24.2 37.5 24.0 37.4 23.9 37.35 23.45 38.7 Q23.05 39.45 22.25 39.4 21.55 39.35 21.15 38.65 L20.65 38.8 20.25 38.55 19.9 38.6 20.25 38.95 Q20.65 39.7 21.3 39.9 L21.65 39.95 22.35 39.9 22.8 39.75" fill="#a31100" fill-rule="evenodd" stroke="none"/>
      <path d="M34.65 33.15 L35.2 31.1 32.65 34.3 32.95 33.3 33.3 31.45 31.8 35.1 31.3 36.2 Q30.85 36.85 30.35 38.1 L30.15 38.75 30.65 37.75 31.65 36.35 32.25 35.6 33.2 34.55 33.8 33.75 34.6 32.55 34.65 33.15 M31.65 39.7 L31.55 39.65 31.85 40.4 32.8 40.25 34.15 39.5 34.55 39.25 34.55 39.05 34.7 38.45 34.2 39.1 34.15 39.15 33.3 39.5 31.85 39.75 31.7 39.7 31.65 39.7 M34.55 36.75 L34.65 36.1 34.65 33.65 34.65 35.0 34.55 36.75" fill="#c44639" fill-rule="evenodd" stroke="none"/>
      <path d="M30.15 38.75 L29.95 39.55 30.75 38.1 31.2 38.9 31.45 39.4 31.05 37.65 31.3 37.35 31.4 37.25 31.45 37.1 32.3 36.2 32.8 35.65 32.85 35.6 32.9 35.45 33.65 34.55 33.7 34.55 33.75 34.45 33.85 34.35 34.15 33.9 34.2 33.8 34.35 33.6 Q34.55 34.95 34.35 37.95 L34.5 37.3 34.55 37.0 34.55 36.75 34.65 35.0 34.65 33.65 34.65 33.3 34.65 33.15 34.6 32.55 33.8 33.75 33.2 34.55 32.25 35.6 31.65 36.35 30.65 37.75 30.15 38.75" fill="#721107" fill-rule="evenodd" stroke="none"/>
      <path d="M34.15 33.9 L33.85 34.35 33.75 34.45 33.7 34.55 33.65 34.55 32.9 35.45 32.85 35.6 32.85 35.9 33.0 35.75 33.7 34.6 33.85 34.8 33.85 34.85 33.95 35.05 33.95 35.4 34.05 36.75 34.0 37.9 33.95 38.4 34.3 36.25 34.15 33.9 M31.45 37.1 L31.4 37.25 31.3 37.35 31.7 38.8 Q32.05 39.55 32.3 39.4 32.75 39.25 32.85 38.75 33.1 38.1 32.95 36.65 L32.9 36.35 32.85 36.0 32.85 36.2 Q33.0 38.65 32.7 38.7 L32.4 37.35 32.4 37.75 Q32.35 38.75 32.1 38.85 31.85 38.9 31.7 38.1 L31.45 37.1" fill="#b12d1d" fill-rule="evenodd" stroke="none"/>
      <path d="M31.45 39.4 L31.65 39.7 31.7 39.7 31.85 39.75 33.3 39.5 34.15 39.15 34.2 39.1 34.5 37.3 34.35 37.95 Q34.55 34.95 34.35 33.6 L34.2 33.8 34.15 33.9 34.3 36.25 33.95 38.4 33.95 38.45 33.8 38.6 Q33.55 38.65 33.2 37.05 L33.05 36.05 33.85 34.85 33.85 34.8 33.7 34.6 33.0 35.75 32.85 35.9 32.85 36.0 32.9 36.35 32.95 36.65 Q33.1 38.1 32.85 38.75 32.75 39.25 32.3 39.4 32.05 39.55 31.7 38.8 L31.3 37.35 31.05 37.65 31.45 39.4 M32.7 36.4 L32.65 36.75 32.75 37.15 32.8 37.15 32.8 36.6 32.7 36.4" fill="#ffb5ad" fill-rule="evenodd" stroke="none"/>
      <path d="M33.95 38.4 L34.0 37.9 34.05 36.75 33.95 35.4 33.95 35.05 33.85 34.85 33.05 36.05 33.2 37.05 Q33.55 38.65 33.8 38.6 L33.95 38.45 33.95 38.4" fill="#fff6f5" fill-rule="evenodd" stroke="none"/>
      <path d="M32.85 35.6 L32.8 35.65 32.3 36.2 32.35 36.25 32.35 36.75 32.4 37.2 32.4 37.35 32.7 38.7 Q33.0 38.65 32.85 36.2 L32.85 36.0 32.85 35.9 32.85 35.6 M32.7 36.4 L32.8 36.6 32.8 37.15 32.75 37.15 32.65 36.75 32.7 36.4" fill="#d9250f" fill-rule="evenodd" stroke="none"/>
      <path d="M32.3 36.2 L31.45 37.1 31.7 38.1 Q31.85 38.9 32.1 38.85 32.35 38.75 32.4 37.75 L32.4 37.35 32.4 37.2 32.35 36.75 32.35 36.25 32.3 36.2" fill="#190500" fill-rule="evenodd" stroke="none"/>
      <path d="M28.75 30.55 L35.7 29.95 Q53.85 18.1 34.4 -10.0 L34.35 -10.1 Q33.0 -10.75 31.3 -9.7 L28.6 -7.0 Q24.25 -3.5 19.65 -2.35 8.75 -0.65 -1.8 -2.15 -10.95 -2.9 -16.8 -7.9 L-16.6 -5.65 Q-16.25 -1.8 -15.5 1.7 -13.0 5.5 -10.35 8.35 L4.95 10.35 13.55 20.3 27.75 29.95 Q28.75 23.75 25.5 20.65 22.15 17.45 17.7 17.35 15.25 17.3 15.15 16.15 13.6 17.65 15.75 11.75 18.7 3.95 12.0 12.7 8.5 6.0 11.55 0.05 16.4 -0.5 20.4 -1.6 25.65 -3.0 30.15 -7.15 L27.5 -3.9 26.6 -2.95 Q25.2 -1.45 23.9 -0.65 L20.9 1.05 Q19.75 1.7 18.85 1.8 L19.1 2.05 20.7 3.2 22.3 4.35 23.6 5.25 24.1 5.7 26.05 7.3 26.7 7.85 Q28.35 9.25 30.05 12.5 31.6 15.5 31.65 26.75 L31.6 26.85 30.9 27.85 29.5 29.55 28.75 30.55" fill="#721a03" fill-rule="evenodd" stroke="none"/>
      <path d="M27.75 29.95 L28.7 30.55 28.75 30.55 29.5 29.55 30.9 27.85 31.6 26.85 Q31.1 15.5 28.45 11.5 27.1 9.45 24.0 7.0 19.5 3.5 14.55 1.35 L16.15 1.35 Q18.55 -0.25 21.9 -1.3 L26.6 -2.95 27.5 -3.9 30.15 -7.15 Q25.65 -3.0 20.4 -1.6 16.4 -0.5 11.55 0.05 8.5 6.0 12.0 12.7 18.7 3.95 15.75 11.75 13.6 17.65 15.15 16.15 15.25 17.3 17.7 17.35 22.15 17.45 25.5 20.65 28.75 23.75 27.75 29.95" fill="#9a2c18" fill-rule="evenodd" stroke="none"/>
      <path d="M31.6 26.85 L31.65 26.75 Q31.6 15.5 30.05 12.5 28.35 9.25 26.7 7.85 L26.05 7.3 24.1 5.7 23.6 5.25 22.3 4.35 20.7 3.2 19.1 2.05 18.85 1.8 Q19.75 1.7 20.9 1.05 L23.9 -0.65 Q25.2 -1.45 26.6 -2.95 L21.9 -1.3 Q18.55 -0.25 16.15 1.35 L14.55 1.35 Q19.5 3.5 24.0 7.0 27.1 9.45 28.45 11.5 31.1 15.5 31.6 26.85" fill="#ff3a17" fill-rule="evenodd" stroke="none"/>
      <path d="M28.75 30.55 L35.7 29.95 Q53.85 18.1 34.4 -10.0 L34.35 -10.1 Q33.0 -10.75 31.3 -9.7 L28.6 -7.0 Q24.25 -3.5 19.65 -2.35 8.75 -0.65 -1.8 -2.15 -10.95 -2.9 -16.8 -7.9 L-16.6 -5.65 Q-16.25 -1.8 -15.5 1.7 -13.0 5.5 -10.35 8.35 L4.95 10.35 13.55 20.3 27.75 29.95 28.7 30.55 28.75 30.55 Z" fill="none" stroke="#5b0000" stroke-linecap="round" stroke-linejoin="round" stroke-width="1.0"/>
      <path d="M44.9 18.5 L45.8 11.25 47.15 7.0 45.8 6.85 44.15 10.85 43.65 15.5 42.95 19.35 44.9 18.5" fill="#fcda37" fill-rule="evenodd" stroke="none"/>
      <path d="M44.9 18.5 L42.95 19.35 42.7 20.65 Q42.0 24.4 40.55 29.1 L42.55 28.7 Q44.0 23.9 44.9 18.5" fill="#feab27" fill-rule="evenodd" stroke="none"/>
      <path d="M42.95 19.35 L43.65 15.5 44.15 10.85 45.8 6.85 47.15 7.0 45.8 11.25 44.9 18.5 Q44.0 23.9 42.55 28.7 L40.55 29.1 40.2 29.15 M42.95 19.35 L42.7 20.65 Q42.0 24.4 40.55 29.1 M42.45 29.1 L42.55 28.7 42.95 28.6" fill="none" stroke="#a83c1e" stroke-linecap="round" stroke-linejoin="round" stroke-width="1.0"/>
      <path d="M22.0 2.2 Q22.9 4.0 26.05 6.15 L26.15 6.25 Q30.3 9.05 31.7 13.85 33.25 20.45 32.15 28.3 L36.85 30.95 41.1 29.0 Q42.3 21.3 43.15 10.75 L44.05 8.7 Q44.65 7.5 45.1 5.45 L43.7 2.85 41.45 -0.45 Q40.0 -2.4 37.35 -7.35 L37.2 -7.6 Q36.2 -10.25 35.0 -11.0 L35.15 -10.35 Q37.45 -7.3 38.8 -3.45 L41.2 3.5 42.5 4.85 43.35 5.45 43.0 5.4 41.6 5.35 41.1 5.25 40.8 8.65 40.7 9.4 40.45 11.3 41.2 13.45 Q42.05 15.8 42.1 18.25 L42.1 18.5 41.5 16.65 Q41.0 15.2 40.05 14.0 L39.95 14.15 39.85 14.25 39.7 14.5 Q37.7 16.0 35.2 19.15 L33.95 20.85 Q33.35 15.65 32.55 13.2 31.1 9.0 28.7 7.0 23.7 3.65 23.35 3.0 L23.3 2.95 22.0 2.2" fill="#9a2c18" fill-rule="evenodd" stroke="none"/>
      <path d="M22.0 2.2 L23.3 2.95 23.35 3.0 Q23.7 3.65 28.7 7.0 31.1 9.0 32.55 13.2 33.35 15.65 33.95 20.85 L35.2 19.15 Q37.7 16.0 39.7 14.5 L39.7 14.45 39.6 12.05 39.55 11.85 39.45 11.15 Q39.1 10.7 38.5 10.65 36.75 10.5 34.5 14.15 37.15 7.9 39.25 6.35 L40.2 5.35 39.85 14.25 39.95 14.15 40.05 14.0 Q41.0 15.2 41.5 16.65 L42.1 18.5 42.1 18.25 Q42.05 15.8 41.2 13.45 L40.45 11.3 40.7 9.4 40.8 8.65 41.1 5.25 41.6 5.35 43.0 5.4 43.35 5.45 42.5 4.85 41.2 3.5 38.8 -3.45 Q37.45 -7.3 35.15 -10.35 L35.0 -11.0 34.85 -11.1 Q33.25 -10.8 31.15 -7.3 28.05 -2.15 24.05 0.25 22.4 0.85 21.9 1.85 L21.95 2.05 22.0 2.2 M34.6 -10.2 L34.8 -10.35 Q35.05 -10.4 35.05 -9.75 L37.5 -4.95 37.75 -3.85 39.15 0.1 39.45 1.2 39.55 1.35 40.35 5.05 39.85 5.0 39.7 5.0 39.45 5.0 36.4 4.7 31.85 4.1 26.15 3.0 22.55 2.05 Q23.25 1.1 24.35 0.75 25.45 0.4 27.9 -1.9 L32.5 -7.8 32.8 -8.3 Q33.7 -10.0 34.6 -10.2 M34.75 -5.45 L31.3 -4.6 Q29.75 -3.7 28.15 -0.45 L28.2 -0.3 Q28.8 0.85 31.05 2.2 L32.7 3.2 33.4 3.05 Q35.75 2.65 36.55 1.95 L37.5 0.5 37.75 -1.15 37.75 -1.5 37.7 -1.95 37.5 -3.05 36.95 -4.05 Q36.0 -5.1 34.75 -5.45" fill="#ff3a17" fill-rule="evenodd" stroke="none"/>
      <path d="M35.05 -9.75 Q35.05 -10.4 34.8 -10.35 L34.6 -10.2 34.4 -9.7 Q34.35 -9.15 34.65 -8.9 L34.9 -9.0 35.05 -9.6 35.05 -9.75 M39.45 5.0 L39.7 5.0 39.85 5.0 40.15 4.6 Q40.2 3.9 38.3 3.7 L38.25 3.75 38.25 3.95 38.7 4.5 39.45 5.0 M24.45 1.85 L25.15 1.4 25.55 0.85 25.55 0.7 Q24.9 0.6 24.55 0.85 24.25 1.05 24.2 1.4 24.15 1.7 24.45 1.85" fill="#ff9985" fill-rule="evenodd" stroke="none"/>
      <path d="M39.7 14.5 L39.85 14.25 40.2 5.35 39.25 6.35 Q37.15 7.9 34.5 14.15 36.75 10.5 38.5 10.65 39.1 10.7 39.45 11.15 L39.55 11.85 39.6 12.05 39.7 14.45 39.7 14.5 M35.05 -9.75 L35.05 -9.6 34.9 -9.0 34.65 -8.9 Q34.35 -9.15 34.4 -9.7 L34.6 -10.2 Q33.7 -10.0 32.8 -8.3 L32.5 -7.8 27.9 -1.9 Q25.45 0.4 24.35 0.75 23.25 1.1 22.55 2.05 L26.15 3.0 31.85 4.1 36.4 4.7 39.45 5.0 38.7 4.5 38.25 3.95 38.25 3.75 38.3 3.7 Q40.2 3.9 40.15 4.6 L39.85 5.0 40.35 5.05 39.55 1.35 39.45 1.2 39.15 0.1 37.75 -3.85 37.5 -4.95 35.05 -9.75 M34.75 -5.45 Q36.0 -5.1 36.95 -4.05 L37.5 -3.05 37.7 -1.95 37.75 -1.5 37.75 -1.15 37.5 0.5 36.55 1.95 Q35.75 2.65 33.4 3.05 L32.7 3.2 31.05 2.2 Q28.8 0.85 28.2 -0.3 L28.15 -0.45 Q29.75 -3.7 31.3 -4.6 L34.75 -5.45 M24.45 1.85 Q24.15 1.7 24.2 1.4 24.25 1.05 24.55 0.85 24.9 0.6 25.55 0.7 L25.55 0.85 25.15 1.4 24.45 1.85" fill="#ff3d17" fill-rule="evenodd" stroke="none"/>
      <path d="M35.0 -11.0 Q36.2 -10.25 37.2 -7.6 L37.35 -7.35 Q40.0 -2.4 41.45 -0.45 L43.7 2.85 45.1 5.45 Q44.65 7.5 44.05 8.7 L43.15 10.75 Q42.3 21.3 41.1 29.0 L36.85 30.95 32.15 28.3 Q33.25 20.45 31.7 13.85 30.3 9.05 26.15 6.25 L26.05 6.15 Q22.9 4.0 22.0 2.2 L21.95 2.05 21.9 1.85 Q22.4 0.85 24.05 0.25 28.05 -2.15 31.15 -7.3 33.25 -10.8 34.85 -11.1 L35.0 -11.0 Z" fill="none" stroke="#5b0000" stroke-linecap="round" stroke-linejoin="round" stroke-width="1.0"/>
      <path d="M13.5 1.55 L8.3 -2.0 Q1.05 -7.1 -5.45 -15.25 L-5.45 -15.15 -5.45 -14.85 -5.35 -14.15 Q-2.4 -8.85 2.45 -4.75 7.25 -0.65 13.35 3.35 L13.5 1.55" fill="#ff8b6b" fill-rule="evenodd" stroke="none"/>
      <path d="M-5.45 -14.85 L-5.5 -14.4 Q-6.25 -3.3 -3.5 5.5 L-3.35 6.5 -3.2 6.7 Q7.8 17.55 19.25 24.55 23.4 27.1 27.6 29.1 28.2 17.65 22.1 8.45 L22.05 8.35 Q18.6 5.1 13.5 1.55 L13.35 3.35 13.15 5.35 Q15.4 6.7 17.35 8.4 L20.1 11.0 Q22.45 14.4 23.6 18.65 24.35 21.3 24.55 23.7 L16.1 18.9 Q15.3 15.45 9.9 10.0 4.45 4.5 0.0 2.85 -1.5 0.65 -2.9 -3.5 -4.35 -7.6 -5.35 -14.15 L-5.45 -14.85" fill="#9a2c18" fill-rule="evenodd" stroke="none"/>
      <path d="M13.35 3.35 Q7.25 -0.65 2.45 -4.75 -2.4 -8.85 -5.35 -14.15 -4.35 -7.6 -2.9 -3.5 -1.5 0.65 0.0 2.85 4.45 4.5 9.9 10.0 15.3 15.45 16.1 18.9 L24.55 23.7 Q24.35 21.3 23.6 18.65 22.45 14.4 20.1 11.0 L17.35 8.4 Q15.4 6.7 13.15 5.35 L13.35 3.35 M13.65 7.85 Q13.1 7.85 12.75 7.1 L12.45 6.35 12.45 6.2 12.65 6.15 Q13.7 5.85 14.25 7.45 L14.05 7.75 13.65 7.85" fill="#ff3a17" fill-rule="evenodd" stroke="none"/>
      <path d="M13.65 7.85 L14.05 7.75 14.25 7.45 Q13.7 5.85 12.65 6.15 L12.45 6.2 12.45 6.35 12.75 7.1 Q13.1 7.85 13.65 7.85" fill="#ff9393" fill-rule="evenodd" stroke="none"/>
      <path d="M13.5 1.55 L8.3 -2.0 Q1.05 -7.1 -5.45 -15.25 L-5.45 -15.15 -5.45 -14.85 -5.5 -14.4 Q-6.25 -3.3 -3.5 5.5 L-3.35 6.5 -3.2 6.7 Q7.8 17.55 19.25 24.55 23.4 27.1 27.6 29.1 28.2 17.65 22.1 8.45 L22.05 8.35 Q18.6 5.1 13.5 1.55 Z" fill="none" stroke="#5b0000" stroke-linecap="round" stroke-linejoin="round" stroke-width="1.0"/>
      <path d="M24.55 12.15 L22.25 8.0 Q19.0 4.65 14.75 1.65 L14.85 4.3 Q17.65 6.35 20.9 9.8 L21.5 10.85 24.55 12.15" fill="#f9ff85" fill-rule="evenodd" stroke="none"/>
      <path d="M21.5 10.85 L23.2 14.6 24.35 15.1 26.05 15.75 24.55 12.15 21.5 10.85" fill="#fcda37" fill-rule="evenodd" stroke="none"/>
      <path d="M23.2 14.6 Q25.2 19.65 25.75 25.15 L28.1 26.9 Q27.65 20.8 26.05 15.75 L24.35 15.1 23.2 14.6" fill="#feab27" fill-rule="evenodd" stroke="none"/>
      <path d="M24.55 12.15 L22.25 8.0 Q19.0 4.65 14.75 1.65 L14.85 4.3" fill="none" stroke="#ee762b" stroke-linecap="round" stroke-linejoin="round" stroke-width="1.0"/>
      <path d="M26.05 15.75 L24.55 12.15" fill="none" stroke="#d26622" stroke-linecap="round" stroke-linejoin="round" stroke-width="1.0"/>
      <path d="M25.75 25.15 L28.1 26.9 Q27.65 20.8 26.05 15.75" fill="none" stroke="#a83c1e" stroke-linecap="round" stroke-linejoin="round" stroke-width="1.0"/>
      <path d="M-9.55 4.5 L-13.45 4.45 Q-17.85 8.25 -20.3 12.2 -21.35 17.75 -20.15 21.95 -18.55 17.4 -14.9 13.15 -10.65 13.8 -6.6 15.6 0.3 20.95 6.3 32.6 L6.4 32.6 Q11.75 29.85 21.1 31.95 17.4 22.2 12.45 15.65 L12.6 16.15 13.3 18.75 13.75 20.05 13.6 21.2 12.45 21.1 7.8 20.0 Q3.65 19.15 -1.3 16.7 -2.9 15.9 -7.05 12.4 -11.8 8.5 -11.65 7.25 -11.55 6.0 -9.65 4.5 L-9.55 4.5 M-14.9 13.15 L-17.65 12.85 -14.9 13.15" fill="#9a2c18" fill-rule="evenodd" stroke="none"/>
      <path d="M12.45 15.65 Q9.0 11.05 4.95 8.0 L4.9 8.0 Q1.3 6.35 -2.35 5.45 L-9.55 4.5 -9.65 4.5 Q-11.55 6.0 -11.65 7.25 -11.8 8.5 -7.05 12.4 -2.9 15.9 -1.3 16.7 3.65 19.15 7.8 20.0 L12.45 21.1 13.6 21.2 13.75 20.05 13.3 18.75 12.6 16.15 12.45 15.65 M2.45 11.35 L2.45 10.95 Q2.6 10.0 3.7 9.35 L4.15 9.4 Q3.55 11.85 2.85 11.75 2.45 11.7 2.45 11.35" fill="#ff3a17" fill-rule="evenodd" stroke="none"/>
      <path d="M2.45 11.35 Q2.45 11.7 2.85 11.75 3.55 11.85 4.15 9.4 L3.7 9.35 Q2.6 10.0 2.45 10.95 L2.45 11.35" fill="#ff9393" fill-rule="evenodd" stroke="none"/>
      <path d="M12.45 15.65 Q9.0 11.05 4.95 8.0 L4.9 8.0 Q1.3 6.35 -2.35 5.45 L-9.55 4.5 -13.45 4.45 Q-17.85 8.25 -20.3 12.2 -21.35 17.75 -20.15 21.95 -18.55 17.4 -14.9 13.15 -10.65 13.8 -6.6 15.6 0.3 20.95 6.3 32.6 L6.05 32.6 M12.45 15.65 Q17.4 22.2 21.1 31.95 11.75 29.85 6.4 32.6 L6.3 32.6 M-17.65 12.85 L-14.9 13.15" fill="none" stroke="#5b0000" stroke-linecap="round" stroke-linejoin="round" stroke-width="1.0"/>
      <path d="M32.2 27.35 Q33.55 29.95 37.4 35.3 29.6 31.45 25.25 27.25 19.7 21.75 16.65 13.15 L14.0 9.6 15.6 13.8 Q22.4 29.75 36.2 35.75 L32.75 38.85 32.05 39.55 Q29.0 37.6 25.05 33.4 21.2 29.15 18.9 25.6 21.15 30.1 25.2 34.65 29.2 39.25 31.45 40.2 L31.45 40.3 31.6 40.25 32.4 39.9 32.45 39.85 38.2 36.6 38.3 36.6 38.35 36.6 38.55 35.95 37.05 34.1 Q33.7 29.75 33.25 27.4 L35.45 30.05 35.7 30.3 Q38.1 27.3 39.75 22.0 L41.15 17.05 41.15 16.5 Q36.55 22.75 32.2 27.35" fill="#fcda37" fill-rule="evenodd" stroke="none"/>
      <path d="M16.65 13.15 Q19.7 21.75 25.25 27.25 29.6 31.45 37.4 35.3 33.55 29.95 32.2 27.35 L32.0 27.3 Q25.0 23.75 16.65 13.15 M41.15 17.05 L39.75 22.0 Q38.1 27.3 35.7 30.3 L35.45 30.05 33.25 27.4 Q33.7 29.75 37.05 34.1 L38.55 35.95 Q40.8 27.7 41.15 17.05" fill="#f9ff85" fill-rule="evenodd" stroke="none"/>
      <path d="M41.15 16.5 L41.15 17.05 Q40.8 27.7 38.55 35.95 L38.35 36.6 38.3 36.6 38.2 36.6 32.45 39.85 32.4 39.9 31.6 40.25 31.45 40.3 31.45 40.2 Q29.2 39.25 25.2 34.65 21.15 30.1 18.9 25.6 21.2 29.15 25.05 33.4 29.0 37.6 32.05 39.55 L32.75 38.85 36.2 35.75 Q22.4 29.75 15.6 13.8 L14.0 9.6 13.85 9.45 Q14.6 27.7 31.3 41.25 34.15 39.9 38.3 37.2 L39.2 36.65 39.45 36.4 Q45.5 30.85 47.8 18.25 44.95 24.95 41.5 28.95 41.7 23.25 41.15 16.8 L41.15 16.5" fill="#feab27" fill-rule="evenodd" stroke="none"/>
      <path d="M32.2 27.35 Q36.55 22.75 41.15 16.5 L41.15 16.8 Q41.7 23.25 41.5 28.95 44.95 24.95 47.8 18.25 45.5 30.85 39.45 36.4 L39.2 36.65 38.3 37.2 Q34.15 39.9 31.3 41.25 14.6 27.7 13.85 9.45 L14.0 9.6 16.65 13.15 Q25.0 23.75 32.0 27.3 L32.2 27.35 Z" fill="none" stroke="#a83c1e" stroke-linecap="round" stroke-linejoin="round" stroke-width="1.0"/>
      <path d="M19.0 46.05 L23.1 45.7 26.0 46.55 Q27.4 45.5 26.8 45.45 L24.85 45.25 21.4 44.9 18.95 44.55 Q18.7 44.4 19.0 46.05" fill="#721107" fill-rule="evenodd" stroke="none"/>
      <path d="M6.9 22.2 L5.3 20.95 Q2.45 19.8 -0.7 19.35 -2.65 31.6 7.8 41.3 9.25 42.4 10.65 42.75 10.4 36.05 14.45 30.35 L13.9 29.5 Q11.95 30.3 10.75 31.6 8.75 33.85 8.75 37.6 L8.75 38.25 Q8.35 37.25 8.35 35.15 8.35 32.5 8.8 31.1 L6.05 28.1 Q4.65 26.7 3.7 24.95 2.7 23.3 -0.2 20.3 2.7 22.6 3.65 22.4 L5.55 22.15 6.9 22.2" fill="#9a2c18" fill-rule="evenodd" stroke="none"/>
      <path d="M13.9 29.5 L11.7 26.75 Q9.55 24.35 6.9 22.2 L5.55 22.15 3.65 22.4 Q2.7 22.6 -0.2 20.3 2.7 23.3 3.7 24.95 4.65 26.7 6.05 28.1 L8.8 31.1 Q8.35 32.5 8.35 35.15 8.35 37.25 8.75 38.25 L8.75 37.6 Q8.75 33.85 10.75 31.6 11.95 30.3 13.9 29.5 M10.6 28.3 L10.5 27.6 Q11.7 27.6 11.7 28.3 L11.6 28.65 11.25 28.75 10.6 28.3" fill="#ff3a17" fill-rule="evenodd" stroke="none"/>
      <path d="M10.6 28.3 L11.25 28.75 11.6 28.65 11.7 28.3 Q11.7 27.6 10.5 27.6 L10.6 28.3" fill="#ff9985" fill-rule="evenodd" stroke="none"/>
      <path d="M6.9 22.2 L5.3 20.95 Q2.45 19.8 -0.7 19.35 -2.65 31.6 7.8 41.3 9.25 42.4 10.65 42.75 10.4 36.05 14.45 30.35 L13.9 29.5 11.7 26.75 Q9.55 24.35 6.9 22.2 Z" fill="none" stroke="#5b0000" stroke-linecap="round" stroke-linejoin="round" stroke-width="1.0"/>
      <path d="M5.65 34.0 L5.2 32.1 Q4.45 29.45 2.8 27.55 L1.35 26.3 Q0.65 27.2 0.55 28.55 1.3 29.05 2.2 30.7 L3.0 32.4 3.05 32.45 5.65 34.0 M-0.45 28.75 L-0.45 28.9 Q-0.45 31.1 0.8 33.05 1.8 34.5 3.05 35.1 L2.95 34.1 Q1.95 33.75 0.95 32.35 -0.15 30.65 0.1 28.95 L-0.45 28.75 M1.45 31.8 Q2.2 32.9 2.85 33.25 2.3 30.3 0.6 29.25 0.5 30.45 1.45 31.8" fill="#fcda37" fill-rule="evenodd" stroke="none"/>
      <path d="M5.65 34.0 L3.05 32.45 3.0 32.4 2.2 30.7 Q1.3 29.05 0.55 28.55 0.65 27.2 1.35 26.3 1.0 26.1 0.7 26.05 0.15 25.85 -0.2 26.05 L-0.55 26.3 Q-1.05 26.65 -1.15 27.6 L-1.15 28.75 -0.9 30.1 Q-0.35 32.25 0.95 34.1 2.05 35.7 3.15 36.35 L3.2 36.35 4.6 36.6 Q5.9 36.2 5.65 34.0 M1.45 31.8 Q0.5 30.45 0.6 29.25 2.3 30.3 2.85 33.25 2.2 32.9 1.45 31.8 M-0.45 28.75 L0.1 28.95 Q-0.15 30.65 0.95 32.35 1.95 33.75 2.95 34.1 L3.05 35.1 Q1.8 34.5 0.8 33.05 -0.45 31.1 -0.45 28.9 L-0.45 28.75" fill="#feab27" fill-rule="evenodd" stroke="none"/>
      <path d="M1.35 26.3 L2.8 27.55 Q4.45 29.45 5.2 32.1 L5.65 34.0 Q5.9 36.2 4.6 36.6 L3.2 36.35 3.15 36.35 Q2.05 35.7 0.95 34.1 -0.35 32.25 -0.9 30.1 L-1.15 28.75 -1.15 27.6 Q-1.05 26.65 -0.55 26.3 L-0.2 26.05 Q0.15 25.85 0.7 26.05 1.0 26.1 1.35 26.3 Z" fill="none" stroke="#a83c1e" stroke-linecap="round" stroke-linejoin="round" stroke-width="1.0"/>
      <path d="M20.65 55.85 L23.7 52.35 23.15 56.55 22.8 58.65 22.35 58.7 21.35 58.8 18.75 58.45 Q19.2 57.5 20.65 55.85 M23.15 58.5 L25.7 58.5 23.8 61.2 21.4 63.8 21.15 63.3 21.9 61.75 22.85 58.9 22.9 58.6 22.9 58.5 23.15 58.5 M26.25 57.7 Q25.4 54.7 23.9 51.45 20.55 54.7 17.6 58.85 19.15 61.7 20.9 64.05 L21.35 64.6 Q24.05 62.15 26.55 58.6 L26.55 58.5 26.25 57.7" fill="#fcda37" fill-rule="evenodd" stroke="none"/>
      <path d="M20.65 55.85 Q19.2 57.5 18.75 58.45 L21.35 58.8 22.35 58.7 22.8 58.65 23.15 56.55 23.7 52.35 20.65 55.85" fill="#f9ff85" fill-rule="evenodd" stroke="none"/>
      <path d="M23.15 58.5 L22.9 58.5 22.9 58.6 22.85 58.9 21.9 61.75 21.15 63.3 21.4 63.8 23.8 61.2 25.7 58.5 23.15 58.5" fill="#feab27" fill-rule="evenodd" stroke="none"/>
      <path d="M26.25 57.7 Q25.4 54.7 23.9 51.45 20.55 54.7 17.6 58.85 19.15 61.7 20.9 64.05 L21.35 64.6 Q24.05 62.15 26.55 58.6 L26.55 58.5 26.25 57.7 Z" fill="none" stroke="#a83c1e" stroke-linecap="round" stroke-linejoin="round" stroke-width="1.0"/>
    </g>
    <g id="shape2" transform="matrix(1.0, 0.0, 0.0, 1.0, 0.0, 0.0)">
      <path d="M50.5 0.0 Q53.95 0.0 53.95 3.3 L53.95 50.15 Q53.95 53.4 50.5 53.4 L3.3 53.4 Q0.0 53.4 0.0 50.15 L0.0 3.3 Q0.0 0.0 3.3 0.0 L50.5 0.0" fill="#000000" fill-opacity="0.003921569" fill-rule="evenodd" stroke="none"/>
    </g>
  </defs>
</svg>
