<?xml version="1.0" encoding="UTF-8" standalone="no"?>
<svg xmlns:ffdec="https://www.free-decompiler.com/flash" xmlns:xlink="http://www.w3.org/1999/xlink" ffdec:objectType="frame" height="60.2px" width="61.05px" xmlns="http://www.w3.org/2000/svg">
  <g transform="matrix(1.0, 0.0, 0.0, 1.0, 4.0, 5.0)">
    <clipPath id="clipPath0" transform="matrix(1.0, 0.0, 0.0, 1.0, 0.0, 0.0)">
      <path d="M50.5 0.0 Q53.95 0.0 53.95 3.3 L53.95 50.15 Q53.95 53.4 50.5 53.4 L3.3 53.4 Q0.0 53.4 0.0 50.15 L0.0 3.3 Q0.0 0.0 3.3 0.0 L50.5 0.0" fill="#000000" fill-rule="evenodd" stroke="none"/>
    </clipPath>
    <g clip-path="url(#clipPath0)">
      <filter id="filter0">
        <feColorMatrix in="SourceGraphic" result="filterResult0" type="matrix" values="1.25 0.0 0.0 0.0 0.035784315 0.0 1.25 0.0 0.0 0.035784315 0.0 0.0 1.25 0.0 0.035784315 0.0 0.0 0.0 1.0 0.0"/>
      </filter>
      <use ffdec:characterId="3" filter="url(#filter0)" height="60.2" transform="matrix(1.0, 0.0, 0.0, 1.0, -4.0, -5.0)" width="61.05" xlink:href="#sprite0"/>
    </g>
    <use ffdec:characterId="4" height="53.4" transform="matrix(1.0, 0.0, 0.0, 1.0, 0.0, 0.0)" width="53.95" xlink:href="#shape2"/>
  </g>
  <defs>
    <g id="sprite0" transform="matrix(1.0, 0.0, 0.0, 1.0, 0.25, 0.25)">
      <use ffdec:characterId="2" height="60.2" transform="matrix(1.0, 0.0, 0.0, 1.0, -0.25, -0.25)" width="61.05" xlink:href="#shape1"/>
    </g>
    <g id="shape1" transform="matrix(1.0, 0.0, 0.0, 1.0, 0.25, 0.25)">
      <path d="M48.45 16.45 L50.0 14.75 53.95 10.45 57.5 6.6 57.5 7.65 Q57.45 8.95 56.8 10.15 L53.95 15.1 53.7 15.5 53.95 15.5 56.65 14.9 59.25 14.25 59.0 15.05 58.5 16.6 54.7 18.75 57.7 16.15 53.15 16.15 52.95 16.25 53.95 13.95 54.7 12.2 55.95 9.3 53.95 11.3 49.85 15.1 48.45 16.45 M47.55 32.25 L47.4 32.55 47.05 33.15 46.95 33.15 45.3 33.25 45.0 33.25 44.5 33.25 44.15 33.25 43.0 33.2 42.65 33.15 42.85 33.05 42.65 32.85 42.4 32.6 42.3 31.8 42.05 31.3 Q41.7 30.75 41.0 30.55 39.65 30.1 38.2 31.5 L37.85 31.85 36.85 33.25 36.85 33.4 36.85 33.55 36.85 33.9 36.85 34.5 36.85 34.55 37.25 36.05 37.65 36.65 Q38.0 37.0 38.45 37.1 L38.45 37.15 39.95 37.1 Q38.6 38.4 37.95 38.25 37.25 38.15 37.0 37.15 36.5 36.3 36.4 35.2 36.3 34.1 36.45 33.55 L35.7 33.1 34.9 32.55 36.55 32.7 36.85 32.7 36.9 31.75 38.45 30.55 Q39.5 29.45 41.15 29.45 L42.3 29.55 43.15 29.9 43.7 30.85 43.9 31.2 44.95 31.9 47.55 32.25 M50.15 0.0 L50.2 2.4 50.2 2.5 48.3 5.9 46.2 10.15 Q45.15 12.4 44.45 14.5 L45.55 16.1 Q46.45 17.35 46.85 17.35 L47.7 17.1 45.4 19.0 Q44.3 18.3 43.7 17.05 44.45 13.8 46.45 9.4 L46.6 9.05 49.15 2.2 48.95 1.6 48.85 1.3 40.95 8.7 35.75 12.9 35.0 12.95 Q33.15 12.95 31.65 11.0 31.45 10.75 30.3 10.35 L30.05 10.3 27.85 10.75 23.15 11.6 Q20.3 11.6 16.55 10.1 L14.85 9.4 13.95 8.35 Q16.35 10.35 21.1 10.35 L25.5 9.65 29.3 8.6 29.55 8.6 31.15 8.95 32.35 9.2 32.4 9.8 Q32.55 10.65 33.15 11.35 33.95 12.35 35.0 12.35 37.6 12.35 45.1 4.25 L48.95 0.0 50.15 0.0 M42.2 33.6 L42.3 33.5 42.55 33.25 Q42.0 34.75 40.85 36.1 L41.65 34.85 42.0 34.0 42.05 33.95 42.1 33.8 42.2 33.6 M41.6 46.25 L41.7 46.25 41.4 46.85 41.05 46.75 41.35 46.95 41.55 47.05 39.8 46.6 38.1 46.15 34.4 45.2 34.25 45.2 31.0 45.2 30.55 45.9 30.05 46.65 30.0 46.7 29.7 47.35 29.65 47.4 29.3 47.4 29.0 46.5 28.6 45.6 28.5 45.5 28.45 45.5 27.05 45.25 24.8 44.95 14.6 44.0 13.45 44.1 13.05 44.65 12.95 44.75 12.5 45.6 11.1 45.8 9.0 45.4 8.8 45.35 8.15 45.1 7.85 43.9 8.6 44.1 10.4 44.5 11.15 44.5 11.25 44.4 11.6 44.05 12.4 43.15 15.15 43.05 15.85 43.0 15.9 43.0 Q20.8 43.0 28.05 44.35 L28.15 44.55 28.75 45.2 Q29.2 45.2 29.45 45.0 L29.9 44.5 Q30.2 44.2 30.8 44.1 L32.1 44.1 32.8 44.15 35.1 44.65 35.4 44.75 39.6 45.7 39.95 45.8 41.6 46.25 M28.55 15.8 Q30.25 16.7 31.4 18.1 35.2 22.4 35.7 25.9 L35.85 27.25 37.5 27.45 Q38.0 26.65 38.95 25.9 40.55 24.6 42.45 24.35 39.95 25.3 38.4 27.3 L37.55 28.2 37.0 28.5 36.4 28.3 35.6 27.9 Q34.6 22.65 31.75 19.0 30.3 17.05 28.55 15.8 M22.1 13.9 L20.2 13.85 Q14.85 13.85 10.65 17.55 9.6 18.45 8.8 19.5 L8.9 19.7 Q9.15 19.7 9.45 20.05 L9.45 21.9 Q8.55 21.9 8.55 23.0 L8.6 23.3 Q9.0 23.9 9.75 24.3 10.95 24.9 12.75 24.9 L13.6 24.45 14.95 23.7 Q17.65 22.4 20.6 22.3 L21.9 22.35 22.4 22.4 Q24.05 22.7 25.05 23.55 L26.65 25.15 27.45 26.9 28.6 29.45 28.85 29.55 Q29.55 30.65 30.7 31.35 L30.7 31.4 30.4 31.3 29.15 30.85 27.6 30.25 26.75 31.8 Q24.95 34.25 21.5 34.25 L20.75 34.1 20.5 35.45 Q16.9 34.95 15.25 32.7 13.55 30.4 13.55 26.3 L13.55 26.1 11.9 25.8 11.4 25.7 9.05 24.95 7.75 24.35 Q7.2 23.05 7.2 21.8 L7.4 19.8 7.85 19.1 9.15 17.5 9.85 16.85 Q13.3 13.75 18.8 13.75 L22.1 13.9 M5.3 2.0 Q4.3 6.2 2.1 10.3 L0.0 13.65 0.0 11.85 1.4 9.85 Q4.15 5.3 4.75 0.0 L5.35 0.0 5.3 2.0 M0.2 34.75 L2.4 34.65 4.4 34.8 5.1 34.85 5.7 36.35 2.85 36.05 0.35 36.1 0.0 36.1 0.0 35.0 0.2 34.75 M27.0 29.6 L27.45 28.75 Q27.0 27.55 26.2 26.55 L25.7 26.05 Q23.4 23.7 20.0 23.7 18.3 23.7 17.1 24.25 16.6 24.45 16.2 24.8 15.6 25.25 15.3 25.75 L14.5 25.95 14.0 26.1 14.35 26.45 14.85 26.9 14.95 27.15 15.05 27.4 15.1 27.55 15.2 27.7 15.35 28.85 16.45 31.3 Q17.4 32.95 20.85 33.05 L20.9 33.05 23.05 32.75 24.45 32.15 Q25.55 31.55 26.45 30.4 L26.5 30.4 27.0 29.6" fill="#411c00" fill-rule="evenodd" stroke="none"/>
      <path d="M54.7 18.75 L53.95 19.2 Q50.7 21.15 49.65 22.35 49.2 22.9 49.15 23.3 L49.35 23.9 49.4 24.45 47.3 25.65 47.2 25.95 47.4 26.3 Q47.95 27.55 47.95 30.95 L47.95 31.3 47.55 32.25 44.95 31.9 43.9 31.2 43.7 30.85 43.15 29.9 42.3 29.55 41.15 29.45 Q39.5 29.45 38.45 30.55 L36.9 31.75 36.85 32.7 36.55 32.7 34.9 32.55 35.7 33.1 36.45 33.55 Q36.3 34.1 36.4 35.2 36.5 36.3 37.0 37.15 37.25 38.15 37.95 38.25 38.6 38.4 39.95 37.1 L40.2 36.9 40.6 36.45 40.85 36.1 Q42.0 34.75 42.55 33.25 L42.6 33.2 42.65 33.15 43.0 33.2 44.15 33.25 44.5 33.25 45.0 33.25 Q45.3 35.15 45.3 41.3 L45.3 41.55 44.65 46.15 44.55 46.65 46.1 50.9 47.1 51.0 47.5 51.0 47.65 51.0 47.8 51.45 48.8 52.95 50.25 53.9 49.4 53.75 49.15 53.7 48.3 53.6 Q48.8 56.15 48.9 58.75 L48.6 59.45 48.8 59.65 48.85 59.7 47.2 59.7 46.35 57.7 46.25 57.5 45.25 56.55 44.65 55.25 Q44.45 53.8 44.4 52.05 L43.2 48.7 43.1 48.35 42.8 47.4 42.75 47.4 41.7 47.1 42.75 47.4 42.8 47.4 43.1 48.35 43.2 48.7 44.4 52.05 Q44.45 53.8 44.65 55.25 L45.25 56.55 46.25 57.5 46.35 57.7 47.2 59.7 44.2 59.7 43.05 56.7 42.0 54.05 42.0 54.0 42.15 54.35 43.2 56.45 44.15 58.15 44.25 58.15 44.25 57.6 43.1 53.5 41.85 49.85 41.65 49.5 41.6 49.4 Q41.4 48.35 40.6 47.85 L39.8 47.75 39.75 47.75 39.4 47.65 Q37.75 46.95 34.7 46.9 L34.65 46.95 34.6 46.9 Q33.1 46.4 32.25 46.4 L31.2 46.5 31.0 46.7 30.8 46.9 30.8 46.95 Q30.45 49.1 28.85 48.8 L28.85 49.7 Q29.45 50.65 30.25 51.15 30.9 51.55 30.9 52.2 L30.55 53.2 28.6 51.1 27.6 46.7 27.45 46.15 25.75 45.8 21.85 45.25 20.05 45.1 Q18.05 45.2 16.75 45.75 16.35 45.9 15.9 46.2 L14.35 46.2 14.35 47.3 14.35 47.4 14.25 50.1 13.55 50.1 Q13.9 48.8 13.25 48.4 L11.55 48.05 9.75 47.8 Q9.0 47.45 9.2 46.4 L7.95 46.3 6.95 46.2 Q6.55 46.2 6.35 46.6 L6.2 47.1 5.1 46.6 Q4.75 41.65 4.75 38.8 L4.75 38.55 4.1 38.45 3.95 38.7 3.4 38.8 2.95 38.95 2.9 38.95 2.45 39.5 Q1.75 40.8 0.9 43.95 L0.0 48.05 0.0 36.1 0.35 36.1 2.85 36.05 5.7 36.35 5.1 34.85 4.4 34.8 2.4 34.65 0.2 34.75 0.3 34.65 2.2 32.25 2.3 32.1 2.95 30.05 2.85 28.05 2.95 30.05 2.3 32.1 2.2 32.25 0.3 34.65 0.2 34.75 0.0 35.0 0.0 31.35 2.85 28.05 Q2.55 24.7 1.55 22.75 L0.35 20.9 0.0 20.6 0.35 20.9 0.0 20.8 0.0 20.6 0.0 13.65 2.1 10.3 Q4.3 6.2 5.3 2.0 L5.3 2.1 Q5.3 4.15 5.45 5.95 L7.1 6.6 8.25 6.95 8.25 6.8 Q8.35 6.15 8.95 5.65 L9.65 5.2 Q9.95 5.2 10.1 5.35 L10.35 5.8 Q9.7 3.25 9.55 0.0 L11.05 0.0 Q11.2 1.95 11.5 3.5 11.95 5.6 12.65 6.8 L13.95 8.35 14.85 9.4 16.55 10.1 Q20.3 11.6 23.15 11.6 L27.85 10.75 30.05 10.3 30.3 10.35 Q31.45 10.75 31.65 11.0 33.15 12.95 35.0 12.95 L35.75 12.9 40.95 8.7 48.85 1.3 48.95 1.6 49.15 2.2 46.6 9.05 46.45 9.4 Q44.45 13.8 43.7 17.05 44.3 18.3 45.4 19.0 L47.7 17.1 47.85 16.95 48.45 16.45 49.85 15.1 53.95 11.3 55.95 9.3 54.7 12.2 53.95 13.95 52.95 16.25 53.15 16.15 57.7 16.15 54.7 18.75 M46.85 4.4 L46.4 4.4 45.85 5.0 43.65 7.45 38.7 12.55 38.7 12.65 36.95 14.35 Q36.95 15.15 37.35 15.3 37.95 15.5 38.1 15.75 37.8 15.75 37.0 16.1 L36.7 16.25 Q35.4 15.2 33.25 14.5 L31.35 13.95 27.0 13.35 25.4 13.35 Q25.0 13.45 25.2 13.75 L25.45 14.15 Q28.5 14.75 31.45 16.25 36.6 18.85 37.25 23.1 L37.8 22.75 Q38.8 22.15 40.2 22.15 L42.15 22.55 44.2 23.2 45.25 23.7 Q44.4 22.2 43.2 21.15 L41.35 19.85 Q40.4 19.35 39.4 19.1 L38.55 18.9 Q38.35 18.3 38.95 17.75 L40.0 17.75 Q41.75 14.2 44.8 8.6 L46.85 4.4 M50.5 16.85 L49.45 18.15 48.65 19.2 47.65 20.9 47.85 21.1 Q48.75 21.0 50.7 19.6 51.2 19.2 51.85 18.7 L53.8 17.15 50.85 18.55 51.8 16.95 52.65 15.4 53.65 13.5 50.5 16.85 M47.2 25.95 Q46.1 24.3 43.35 24.3 L42.45 24.35 43.35 24.3 Q46.1 24.3 47.2 25.95 M46.7 27.85 L46.6 27.4 Q46.35 26.45 45.55 26.1 L42.65 25.7 42.15 25.7 41.9 25.7 41.35 25.85 Q40.45 26.15 40.0 26.45 L39.55 27.25 39.3 27.5 39.25 27.9 Q39.25 28.15 39.4 28.4 L39.85 28.25 41.1 28.1 42.05 28.15 44.05 28.55 Q44.65 28.85 45.1 29.35 L45.6 30.0 45.75 30.5 46.7 29.9 46.7 29.8 46.75 28.5 46.7 27.85 M41.6 46.25 Q41.7 43.8 42.05 41.6 42.4 39.35 43.0 37.35 43.5 35.65 44.25 34.1 L44.5 33.25 44.25 34.1 Q43.5 35.65 43.0 37.35 42.4 39.35 42.05 41.6 41.7 43.8 41.6 46.25 L39.95 45.8 39.6 45.7 35.4 44.75 35.1 44.65 32.8 44.15 32.1 44.1 30.8 44.1 Q30.2 44.2 29.9 44.5 L29.45 45.0 Q29.2 45.2 28.75 45.2 L28.15 44.55 28.05 44.35 Q20.8 43.0 15.9 43.0 L15.85 43.0 15.15 43.05 12.4 43.15 11.6 44.05 11.25 44.4 11.15 44.5 10.4 44.5 8.6 44.1 7.85 43.9 6.75 39.55 6.05 37.0 5.85 36.35 5.7 36.35 5.85 36.35 6.05 37.0 6.75 39.55 7.85 43.9 8.15 45.1 8.8 45.35 9.0 45.4 11.1 45.8 12.5 45.6 12.95 44.75 13.05 44.65 13.45 44.1 14.6 44.0 24.8 44.95 27.05 45.25 28.45 45.5 28.5 45.5 28.6 45.6 29.0 46.5 29.3 47.4 29.65 47.4 29.7 47.35 30.0 46.7 30.05 46.65 30.55 45.9 31.0 45.2 34.25 45.2 34.4 45.2 38.1 46.15 39.8 46.6 41.55 47.05 41.7 47.1 41.7 47.0 41.6 46.95 41.4 46.85 41.7 46.25 41.6 46.25 M28.55 15.8 L28.45 15.75 28.4 15.7 28.3 15.65 Q25.75 14.3 22.1 13.9 25.75 14.3 28.3 15.65 L28.4 15.7 28.45 15.75 28.55 15.8 Q30.3 17.05 31.75 19.0 34.6 22.65 35.6 27.9 L36.4 28.3 37.0 28.5 37.55 28.2 38.4 27.3 Q39.95 25.3 42.45 24.35 40.55 24.6 38.95 25.9 38.0 26.65 37.5 27.45 L35.85 27.25 35.7 25.9 Q35.2 22.4 31.4 18.1 30.25 16.7 28.55 15.8 M21.2 16.2 L19.95 16.15 18.3 16.35 Q17.1 16.55 17.15 15.95 L16.0 15.95 15.15 15.95 Q14.7 15.95 13.15 16.7 L12.95 16.85 Q12.85 17.45 12.15 17.9 11.35 18.45 10.75 18.15 L10.65 18.75 10.55 19.45 Q10.55 20.35 12.75 20.9 L15.05 21.35 17.05 21.0 18.25 20.8 19.25 20.75 22.0 21.0 22.6 21.15 22.75 21.2 Q24.5 21.75 25.6 22.9 L26.8 24.45 Q27.35 25.1 27.8 25.1 28.25 25.1 28.7 24.7 L29.1 25.25 29.45 26.05 29.45 26.1 29.2 26.5 28.85 27.0 30.75 28.4 31.8 29.15 33.25 30.25 34.25 30.25 34.25 26.3 Q33.95 24.45 33.25 22.9 32.0 20.1 29.45 18.45 27.1 16.95 23.85 16.45 L21.2 16.2 M30.7 31.4 L30.7 31.35 Q29.55 30.65 28.85 29.55 L28.6 29.45 27.45 26.9 26.65 25.15 25.05 23.55 Q24.05 22.7 22.4 22.4 L21.9 22.35 20.6 22.3 Q17.65 22.4 14.95 23.7 L13.6 24.45 12.75 24.9 Q10.95 24.9 9.75 24.3 9.0 23.9 8.6 23.3 L8.55 23.0 Q8.55 21.9 9.45 21.9 L9.45 20.05 Q9.15 19.7 8.9 19.7 L8.8 19.5 Q9.6 18.45 10.65 17.55 14.85 13.85 20.2 13.85 L22.1 13.9 18.8 13.75 Q13.3 13.75 9.85 16.85 L9.15 17.5 7.85 19.1 7.4 19.8 7.2 21.8 Q7.2 23.05 7.75 24.35 L9.05 24.95 11.4 25.7 10.75 25.7 10.45 25.7 Q10.2 26.75 11.1 29.1 L11.95 30.6 11.7 29.7 11.65 27.5 11.85 25.85 11.9 25.8 13.55 26.1 13.55 26.3 Q13.55 30.4 15.25 32.7 16.9 34.95 20.5 35.45 L20.75 34.1 21.5 34.25 Q24.95 34.25 26.75 31.8 L27.6 30.25 29.15 30.85 30.4 31.3 30.7 31.4 31.05 31.55 34.05 32.35 34.8 32.5 34.9 32.55 34.8 32.5 34.05 32.35 31.05 31.55 30.7 31.4 M7.85 11.75 L7.4 11.6 Q6.2 11.6 4.0 13.6 L3.25 14.4 Q2.9 15.6 2.9 16.75 2.9 19.6 3.7 22.3 L3.35 22.5 2.9 22.9 3.35 24.55 3.8 26.3 3.7 26.3 3.9 29.4 3.9 29.65 3.45 32.55 Q4.0 33.15 5.1 33.8 6.4 34.55 6.5 35.65 L7.1 39.15 7.3 38.1 7.35 37.85 7.65 37.7 8.5 37.45 8.6 38.2 9.75 36.7 10.95 35.4 11.95 34.55 Q10.95 34.7 9.95 35.25 9.5 35.5 9.2 35.75 L8.95 35.95 9.1 35.75 10.4 34.15 Q10.75 33.85 11.05 33.65 10.25 33.95 10.15 32.65 L10.1 31.8 9.85 30.9 Q9.1 28.1 7.75 27.25 6.4 26.35 5.8 25.05 5.3 24.05 6.0 21.8 L6.1 21.35 Q6.95 18.75 6.6 18.45 L6.0 18.1 Q6.6 16.85 7.65 16.35 L7.05 16.35 6.3 16.6 6.0 16.65 4.7 16.95 6.5 14.8 Q8.1 12.8 8.1 12.2 L7.85 11.75 M19.25 36.5 L16.5 36.3 16.25 37.1 15.85 39.95 16.3 40.85 Q16.55 41.5 17.2 41.75 L25.9 43.25 Q27.1 43.15 28.25 42.4 L29.5 41.65 29.55 41.6 29.6 41.65 34.55 43.25 34.95 43.4 36.7 44.1 Q37.9 44.65 38.8 44.65 40.2 44.65 40.35 44.2 L40.35 42.1 Q40.35 40.4 40.15 40.0 L40.0 39.75 39.65 39.9 38.45 40.05 Q37.0 40.05 36.75 39.25 36.55 38.6 35.9 38.35 L35.75 38.25 35.6 34.65 35.55 33.05 Q34.9 32.7 34.25 32.45 L33.45 32.25 Q33.15 32.25 32.9 32.7 L32.0 32.3 30.35 31.65 29.2 31.65 Q28.75 32.25 28.45 32.95 L28.05 33.95 28.0 34.45 26.95 34.55 26.75 34.55 26.05 35.6 25.75 36.05 25.55 36.5 25.2 36.5 23.95 36.65 23.5 36.65 22.0 36.65 19.25 36.5 M14.1 34.65 L13.45 34.4 12.75 34.8 12.4 35.1 10.5 37.1 Q9.55 38.25 8.85 39.6 L9.35 41.65 9.5 42.4 10.8 43.25 Q11.55 43.25 12.8 42.7 L15.05 42.3 14.85 40.55 Q14.85 39.05 15.2 36.85 L15.6 35.0 15.35 34.95 14.1 34.65 M16.25 59.7 L15.9 59.65 19.35 58.5 23.5 56.8 24.85 56.5 28.45 55.9 29.1 56.3 30.85 57.4 33.95 59.7 31.5 59.7 31.2 58.75 Q30.25 58.05 28.5 57.5 L26.85 57.1 21.2 59.25 20.05 59.7 16.25 59.7 M38.0 59.7 L38.45 59.25 Q39.2 58.35 39.8 58.35 L40.7 58.55 41.25 58.65 Q40.5 59.0 40.1 59.7 L38.0 59.7 M29.75 54.3 L29.7 54.3 29.65 54.25 29.75 54.3" fill="#693700" fill-rule="evenodd" stroke="none"/>
      <path d="M54.7 18.75 L58.5 16.6 59.0 15.05 59.25 14.25 56.65 14.9 53.95 15.5 53.7 15.5 53.95 15.1 56.8 10.15 Q57.45 8.95 57.5 7.65 L57.5 6.6 53.95 10.45 50.0 14.75 48.45 16.45 47.85 16.95 47.7 17.1 46.85 17.35 Q46.45 17.35 45.55 16.1 L44.45 14.5 Q45.15 12.4 46.2 10.15 L48.3 5.9 50.2 2.5 50.2 2.4 50.15 0.0 60.55 0.0 60.55 38.05 59.75 38.7 Q57.05 40.85 53.95 41.6 L50.25 42.05 48.9 41.95 47.25 41.7 47.0 41.65 47.2 40.65 46.6 36.75 46.1 33.85 45.5 33.4 45.3 33.25 46.95 33.15 47.05 33.15 47.4 32.55 47.55 32.25 47.95 31.3 47.95 30.95 Q47.95 27.55 47.4 26.3 L47.2 25.95 47.3 25.65 49.4 24.45 49.35 23.9 49.15 23.3 Q49.2 22.9 49.65 22.35 50.7 21.15 53.95 19.2 L54.7 18.75 M48.95 0.0 L45.1 4.25 Q37.6 12.35 35.0 12.35 33.95 12.35 33.15 11.35 32.55 10.65 32.4 9.8 L32.35 9.2 31.15 8.95 29.55 8.6 29.3 8.6 25.5 9.65 21.1 10.35 Q16.35 10.35 13.95 8.35 L12.65 6.8 Q11.95 5.6 11.5 3.5 11.2 1.95 11.05 0.0 L48.95 0.0 M4.75 0.0 Q4.15 5.3 1.4 9.85 L0.0 11.85 0.0 0.0 4.75 0.0" fill="#424d00" fill-rule="evenodd" stroke="none"/>
      <path d="M46.85 4.4 L44.8 8.6 Q41.75 14.2 40.0 17.75 L38.95 17.75 Q38.35 18.3 38.55 18.9 L39.4 19.1 Q40.4 19.35 41.35 19.85 L43.2 21.15 Q44.4 22.2 45.25 23.7 L44.2 23.2 42.15 22.55 40.2 22.15 Q38.8 22.15 37.8 22.75 L37.25 23.1 Q36.6 18.85 31.45 16.25 28.5 14.75 25.45 14.15 L25.2 13.75 Q25.0 13.45 25.4 13.35 L27.0 13.35 31.35 13.95 33.25 14.5 Q35.4 15.2 36.7 16.25 L37.0 16.1 Q37.8 15.75 38.1 15.75 37.95 15.5 37.35 15.3 36.95 15.15 36.95 14.35 L38.7 12.65 38.7 12.55 43.65 7.45 45.85 5.0 46.4 4.4 46.85 4.4 M46.3 27.25 Q45.9 26.3 44.3 26.3 42.75 26.3 41.95 26.85 L42.0 27.65 42.1 27.6 42.65 27.5 Q44.8 27.5 45.4 29.1 L46.1 28.45 46.25 28.35 46.5 28.1 46.45 27.8 46.3 27.25 M46.7 27.85 L46.75 28.5 46.7 29.8 46.7 29.9 45.75 30.5 45.6 30.0 45.1 29.35 Q44.65 28.85 44.05 28.55 L42.05 28.15 41.1 28.1 39.85 28.25 39.4 28.4 Q39.25 28.15 39.25 27.9 L39.3 27.5 39.55 27.25 40.0 26.45 Q40.45 26.15 41.35 25.85 L41.9 25.7 42.15 25.7 42.65 25.7 45.55 26.1 Q46.35 26.45 46.6 27.4 L46.7 27.85 M41.4 46.85 L41.6 46.95 41.7 47.0 41.7 47.1 41.55 47.05 41.35 46.95 41.05 46.75 41.4 46.85 41.35 46.95 41.4 46.85 M21.2 18.2 L21.25 18.65 21.35 19.7 21.45 19.7 22.15 19.95 22.25 19.0 22.4 17.15 21.2 17.15 21.2 18.2 M21.2 16.2 L23.85 16.45 Q27.1 16.95 29.45 18.45 32.0 20.1 33.25 22.9 33.95 24.45 34.25 26.3 L34.25 30.25 33.25 30.25 31.8 29.15 30.75 28.4 28.85 27.0 29.2 26.5 29.45 26.1 29.45 26.05 29.1 25.25 28.7 24.7 Q28.25 25.1 27.8 25.1 27.35 25.1 26.8 24.45 L25.6 22.9 Q24.5 21.75 22.75 21.2 L22.6 21.15 22.0 21.0 19.25 20.75 18.25 20.8 17.05 21.0 15.05 21.35 12.75 20.9 Q10.55 20.35 10.55 19.45 L10.65 18.75 10.75 18.15 Q11.35 18.45 12.15 17.9 12.85 17.45 12.95 16.85 L13.15 16.7 Q14.7 15.95 15.15 15.95 L16.0 15.95 17.15 15.95 Q17.1 16.55 18.3 16.35 L19.95 16.15 21.2 16.2 M11.4 25.7 L11.9 25.8 11.85 25.85 11.65 27.5 11.7 29.7 11.95 30.6 11.1 29.1 Q10.2 26.75 10.45 25.7 L10.75 25.7 11.4 25.7 M26.95 19.25 L26.9 19.25 26.35 20.6 26.0 21.35 26.55 21.8 26.75 21.5 27.3 21.1 27.45 21.15 27.75 21.35 28.8 22.3 28.7 22.85 28.4 23.1 Q29.3 23.55 30.2 25.0 L30.4 24.7 31.05 23.8 Q30.45 22.45 29.2 21.2 L26.95 19.25 M0.35 20.9 L1.55 22.75 Q2.55 24.7 2.85 28.05 L0.0 31.35 0.0 20.8 0.35 20.9 M7.85 11.75 L8.1 12.2 Q8.1 12.8 6.5 14.8 L4.7 16.95 6.0 16.65 6.3 16.6 7.05 16.35 7.65 16.35 Q6.6 16.85 6.0 18.1 L6.6 18.45 Q6.95 18.75 6.1 21.35 L6.0 21.8 Q5.3 24.05 5.8 25.05 6.4 26.35 7.75 27.25 9.1 28.1 9.85 30.9 L10.1 31.8 10.15 32.65 Q10.25 33.95 11.05 33.65 10.75 33.85 10.4 34.15 L9.1 35.75 8.95 35.95 9.2 35.75 Q9.5 35.5 9.95 35.25 10.95 34.7 11.95 34.55 L10.95 35.4 9.75 36.7 8.6 38.2 8.5 37.45 7.65 37.7 7.35 37.85 7.3 38.1 7.1 39.15 6.5 35.65 Q6.4 34.55 5.1 33.8 4.0 33.15 3.45 32.55 L3.9 29.65 3.9 29.4 3.7 26.3 3.8 26.3 3.35 24.55 2.9 22.9 3.35 22.5 3.7 22.3 Q2.9 19.6 2.9 16.75 2.9 15.6 3.25 14.4 L4.0 13.6 Q6.2 11.6 7.4 11.6 L7.85 11.75 M14.1 34.65 L15.35 34.95 15.6 35.0 15.2 36.85 Q14.85 39.05 14.85 40.55 L15.05 42.3 12.8 42.7 Q11.55 43.25 10.8 43.25 L9.5 42.4 9.35 41.65 8.85 39.6 Q9.55 38.25 10.5 37.1 L12.4 35.1 12.75 34.8 13.45 34.4 14.1 34.65 M19.25 36.5 L22.0 36.65 23.5 36.65 23.95 36.65 25.2 36.5 25.55 36.5 25.75 36.05 26.05 35.6 26.75 34.55 26.95 34.55 28.0 34.45 28.05 33.95 28.45 32.95 Q28.75 32.25 29.2 31.65 L30.35 31.65 32.0 32.3 32.9 32.7 Q33.15 32.25 33.45 32.25 L34.25 32.45 Q34.9 32.7 35.55 33.05 L35.6 34.65 35.75 38.25 35.9 38.35 Q36.55 38.6 36.75 39.25 37.0 40.05 38.45 40.05 L39.65 39.9 40.0 39.75 40.15 40.0 Q40.35 40.4 40.35 42.1 L40.35 44.2 Q40.2 44.65 38.8 44.65 37.9 44.65 36.7 44.1 L34.95 43.4 34.55 43.25 29.6 41.65 29.55 41.6 29.5 41.65 28.25 42.4 Q27.1 43.15 25.9 43.25 L17.2 41.75 Q16.55 41.5 16.3 40.85 L15.85 39.95 16.25 37.1 16.5 36.3 19.25 36.5 M18.9 39.05 L18.8 39.2 Q25.75 41.0 23.0 37.8 20.3 37.15 18.9 39.05 M30.65 34.1 L29.3 33.95 29.25 34.85 29.3 35.95 30.45 36.05 Q30.45 37.1 29.55 37.7 28.5 38.35 26.85 38.05 L26.65 38.7 26.45 39.85 Q26.45 41.3 27.65 41.25 L30.0 40.8 30.2 40.8 32.35 41.1 34.0 41.65 34.5 41.85 38.0 43.25 38.2 43.2 38.4 42.45 Q38.4 42.0 37.65 41.55 L36.0 40.6 35.05 39.65 Q33.6 37.8 33.6 34.45 L30.65 34.1" fill="#7f501a" fill-rule="evenodd" stroke="none"/>
      <path d="M45.3 33.25 L45.5 33.4 46.1 33.85 46.6 36.75 47.2 40.65 47.0 41.65 46.65 43.4 46.2 45.7 46.4 46.5 46.7 46.55 49.8 50.55 49.85 50.65 52.55 53.2 Q55.2 55.5 58.7 57.55 L60.55 58.6 60.55 59.7 60.1 59.7 Q53.2 56.35 48.35 50.3 L48.3 50.45 Q49.85 52.85 51.8 54.75 52.8 56.3 54.3 57.5 52.8 57.15 52.25 58.45 L54.6 59.7 48.85 59.7 48.8 59.65 48.6 59.45 48.9 58.75 Q48.8 56.15 48.3 53.6 L49.15 53.7 49.4 53.75 50.25 53.9 48.8 52.95 47.8 51.45 47.65 51.0 47.5 51.0 47.1 51.0 46.1 50.9 44.55 46.65 44.65 46.15 45.3 41.55 45.3 41.3 Q45.3 35.15 45.0 33.25 L45.3 33.25 M50.5 16.85 L53.65 13.5 52.65 15.4 51.8 16.95 50.85 18.55 53.8 17.15 51.85 18.7 Q51.2 19.2 50.7 19.6 48.75 21.0 47.85 21.1 L47.65 20.9 48.65 19.2 49.45 18.15 50.5 16.85 M41.65 49.5 L41.85 49.85 43.1 53.5 44.25 57.6 44.25 58.15 44.15 58.15 43.2 56.45 42.15 54.35 42.0 54.0 Q42.0 52.5 41.5 51.3 41.8 50.4 41.65 49.5 M42.0 54.05 L43.05 56.7 44.2 59.7 40.1 59.7 Q40.5 59.0 41.25 58.65 L40.7 58.55 39.8 58.35 Q39.2 58.35 38.45 59.25 L38.0 59.7 33.95 59.7 30.85 57.4 29.1 56.3 28.45 55.9 24.85 56.5 23.5 56.8 19.35 58.5 15.9 59.65 16.25 59.7 0.0 59.7 0.0 48.05 0.9 43.95 Q1.75 40.8 2.45 39.5 L2.9 38.95 2.95 38.95 3.4 38.8 3.95 38.7 4.1 38.45 4.75 38.55 4.75 38.8 Q4.75 41.65 5.1 46.6 L6.2 47.1 6.35 46.6 Q6.55 46.2 6.95 46.2 L7.95 46.3 9.2 46.4 Q9.0 47.45 9.75 47.8 L11.55 48.05 13.25 48.4 Q13.9 48.8 13.55 50.1 L14.25 50.1 14.35 47.4 14.35 47.3 14.35 46.2 15.9 46.2 Q16.35 45.9 16.75 45.75 18.05 45.2 20.05 45.1 L21.85 45.25 25.75 45.8 27.45 46.15 27.6 46.7 28.6 51.1 Q27.45 49.55 26.65 47.55 L25.35 47.35 23.05 47.05 20.25 47.5 Q20.0 47.55 19.8 47.85 L20.4 48.0 Q22.3 48.25 23.05 49.2 26.2 53.0 29.65 54.25 L29.7 54.3 29.75 54.3 31.95 54.8 30.55 53.2 30.9 52.2 Q30.9 51.55 30.25 51.15 29.45 50.65 28.85 49.7 L28.85 48.8 Q30.45 49.1 30.8 46.95 L30.8 46.9 31.0 46.7 31.2 46.5 32.25 46.4 Q33.1 46.4 34.6 46.9 L34.65 46.95 34.7 46.9 Q37.75 46.95 39.4 47.65 L39.75 47.75 Q36.6 47.75 33.6 46.85 L32.15 46.55 Q31.35 46.9 31.4 47.6 L33.75 47.4 35.5 49.0 Q34.75 51.5 35.9 53.8 L35.95 53.7 Q36.5 51.4 36.15 49.5 37.9 50.65 40.35 51.45 40.9 53.75 41.8 55.8 L41.85 55.5 42.0 54.05 M59.0 59.7 L56.25 59.7 Q55.3 58.95 54.0 58.35 54.7 58.5 55.2 57.6 56.95 58.8 59.0 59.7 M9.55 0.0 Q9.7 3.25 10.35 5.8 L10.1 5.35 Q9.95 5.2 9.65 5.2 L8.95 5.65 Q8.35 6.15 8.25 6.8 L8.25 6.95 7.1 6.6 5.45 5.95 Q5.3 4.15 5.3 2.1 L5.3 2.0 5.35 0.0 9.55 0.0 M20.05 59.7 L21.2 59.25 26.85 57.1 28.5 57.5 Q30.25 58.05 31.2 58.75 L31.5 59.7 20.05 59.7" fill="#80511b" fill-rule="evenodd" stroke="none"/>
      <path d="M46.3 27.25 L46.45 27.8 46.5 28.1 46.25 28.35 46.1 28.45 45.4 29.1 Q44.8 27.5 42.65 27.5 L42.1 27.6 42.0 27.65 41.95 26.85 Q42.75 26.3 44.3 26.3 45.9 26.3 46.3 27.25 M39.75 47.75 L39.8 47.75 40.6 47.85 Q41.4 48.35 41.6 49.4 L41.65 49.5 Q41.8 50.4 41.5 51.3 42.0 52.5 42.0 54.0 L42.0 54.05 41.85 55.5 41.8 55.8 Q40.9 53.75 40.35 51.45 37.9 50.65 36.15 49.5 36.5 51.4 35.95 53.7 L35.9 53.8 Q34.75 51.5 35.5 49.0 L33.75 47.4 31.4 47.6 Q31.35 46.9 32.15 46.55 L33.6 46.85 Q36.6 47.75 39.75 47.75 M60.1 59.7 L59.0 59.7 Q56.95 58.8 55.2 57.6 54.7 58.5 54.0 58.35 55.3 58.95 56.25 59.7 L54.6 59.7 52.25 58.45 Q52.8 57.15 54.3 57.5 52.8 56.3 51.8 54.75 49.85 52.85 48.3 50.45 L48.35 50.3 Q53.2 56.35 60.1 59.7 M21.2 18.2 L21.2 17.15 22.4 17.15 22.25 19.0 22.15 19.95 21.45 19.7 21.35 19.7 21.25 18.65 21.2 18.2 M26.95 19.25 L29.2 21.2 Q30.45 22.45 31.05 23.8 L30.4 24.7 30.2 25.0 Q29.3 23.55 28.4 23.1 L28.7 22.85 28.8 22.3 27.75 21.35 27.45 21.15 27.3 21.1 26.75 21.5 26.55 21.8 26.0 21.35 26.35 20.6 26.9 19.25 26.95 19.25 M28.6 51.1 L30.55 53.2 31.95 54.8 29.75 54.3 29.65 54.25 Q26.2 53.0 23.05 49.2 22.3 48.25 20.4 48.0 L19.8 47.85 Q20.0 47.55 20.25 47.5 L23.05 47.05 25.35 47.35 26.65 47.55 Q27.45 49.55 28.6 51.1 M18.9 39.05 Q20.3 37.15 23.0 37.8 25.75 41.0 18.8 39.2 L18.9 39.05 M30.65 34.1 L33.6 34.45 Q33.6 37.8 35.05 39.65 L36.0 40.6 37.65 41.55 Q38.4 42.0 38.4 42.45 L38.2 43.2 38.0 43.25 34.5 41.85 34.0 41.65 32.35 41.1 30.2 40.8 30.0 40.8 27.65 41.25 Q26.45 41.3 26.45 39.85 L26.65 38.7 26.85 38.05 Q28.5 38.35 29.55 37.7 30.45 37.1 30.45 36.05 L29.3 35.95 29.25 34.85 29.3 33.95 30.65 34.1" fill="#b17837" fill-rule="evenodd" stroke="none"/>
      <path d="M36.85 33.9 L36.85 33.55 36.85 33.4 36.85 33.25 37.85 31.85 38.2 31.5 Q39.65 30.1 41.0 30.55 41.7 30.75 42.05 31.3 L42.3 31.8 42.4 32.6 42.65 32.85 42.85 33.05 42.65 33.15 42.6 33.2 42.55 33.25 42.3 33.5 42.2 33.6 42.05 33.4 41.95 33.15 41.7 33.05 41.35 32.8 40.8 32.7 40.65 33.65 40.55 33.95 39.95 35.0 39.65 35.35 39.55 35.45 Q39.05 35.95 38.55 35.8 L38.4 35.7 38.45 35.35 38.45 35.25 38.6 35.3 39.3 35.15 39.4 35.0 39.65 34.6 39.5 34.7 39.3 34.85 38.7 35.0 38.3 34.55 38.15 34.3 38.25 34.85 38.35 35.15 38.0 35.05 37.95 34.7 37.9 33.75 38.35 33.5 39.05 32.7 Q39.05 32.4 38.55 32.4 38.1 32.4 37.55 32.75 L37.5 32.8 Q37.3 33.05 37.25 33.5 L36.85 33.9 M14.95 27.15 L14.85 26.9 14.35 26.45 14.0 26.1 14.5 25.95 15.3 25.75 Q15.6 25.25 16.2 24.8 16.6 24.45 17.1 24.25 18.3 23.7 20.0 23.7 23.4 23.7 25.7 26.05 L26.2 26.55 Q27.0 27.55 27.45 28.75 L27.0 29.6 25.8 28.4 25.3 28.0 23.85 30.15 Q22.9 31.3 21.65 31.3 20.25 31.3 19.5 30.35 L19.65 30.15 19.65 29.7 19.55 29.7 19.1 29.75 19.1 29.7 Q18.75 29.0 18.65 28.15 L18.65 28.1 Q19.25 27.95 19.65 27.6 20.35 27.0 20.35 26.5 20.35 26.15 19.1 25.75 L18.95 25.75 16.8 25.45 16.35 25.8 Q16.05 26.15 16.0 26.65 L15.5 26.85 14.95 27.15 M20.3 29.55 L20.05 29.25 Q20.15 29.85 20.4 30.15 20.85 30.7 21.9 30.7 22.55 30.7 23.05 30.25 L23.6 29.6 23.15 29.85 21.85 30.15 Q20.95 30.15 20.3 29.55" fill="#002754" fill-rule="evenodd" stroke="none"/>
      <path d="M38.4 35.7 L38.55 35.8 Q39.05 35.95 39.55 35.45 L39.65 35.35 39.95 35.0 40.55 33.95 40.65 33.65 40.8 32.7 41.35 32.8 41.25 33.35 40.95 34.15 40.8 34.55 40.55 35.0 40.1 35.6 39.85 35.95 39.8 35.95 39.1 36.4 38.4 36.4 37.95 36.15 37.8 35.95 37.9 35.95 38.0 35.95 Q38.3 35.95 38.4 35.7 M37.65 35.65 L37.55 35.35 37.45 34.4 37.55 34.25 37.6 33.85 37.75 33.85 37.9 33.75 37.95 34.7 38.0 35.05 38.0 35.1 37.85 35.15 37.75 35.35 37.65 35.65 M18.65 28.15 Q18.75 29.0 19.1 29.7 L19.1 29.75 18.8 29.8 18.75 29.85 18.4 30.2 18.2 30.45 Q17.5 29.5 17.4 28.3 L17.5 28.3 18.65 28.15 M19.5 30.35 Q20.25 31.3 21.65 31.3 22.9 31.3 23.85 30.15 L25.3 28.0 25.3 28.5 25.15 29.95 Q23.9 32.15 21.55 32.15 19.9 32.15 18.65 31.0 L19.0 30.8 19.5 30.35" fill="#008eb1" fill-rule="evenodd" stroke="none"/>
      <path d="M39.95 37.1 L38.45 37.15 38.45 37.1 Q38.0 37.0 37.65 36.65 L37.25 36.05 36.85 34.55 36.85 34.5 36.85 33.9 37.25 33.5 37.25 33.65 37.25 33.95 37.6 33.85 37.55 34.25 37.45 34.4 37.55 35.35 37.65 35.65 37.8 35.95 37.95 36.15 38.4 36.4 39.1 36.4 39.8 35.95 39.85 35.95 40.1 35.6 40.55 35.0 40.8 34.55 40.95 34.15 41.25 33.35 41.35 32.8 41.7 33.05 41.95 33.15 42.05 33.4 42.2 33.6 42.1 33.8 42.05 33.95 42.0 34.0 41.65 34.85 40.85 36.1 40.6 36.45 40.2 36.9 39.95 37.1 M14.95 27.15 L15.5 26.85 16.0 26.65 15.95 26.85 Q15.95 27.45 16.45 27.9 16.9 28.25 17.4 28.3 17.5 29.5 18.2 30.45 L17.95 30.85 18.2 30.95 18.5 31.05 18.65 31.0 Q19.9 32.15 21.55 32.15 23.9 32.15 25.15 29.95 L25.3 28.5 25.3 28.0 25.8 28.4 27.0 29.6 26.5 30.4 26.45 30.4 Q25.55 31.55 24.45 32.15 L23.05 32.75 20.9 33.05 20.85 33.05 Q17.4 32.95 16.45 31.3 L15.35 28.85 15.2 27.7 15.1 27.55 15.05 27.4 14.95 27.15" fill="#005fa3" fill-rule="evenodd" stroke="none"/>
      <path d="M37.8 35.95 L37.65 35.65 37.75 35.35 37.85 35.15 38.0 35.1 38.0 35.05 38.35 35.15 38.45 35.25 38.45 35.35 38.4 35.7 Q38.3 35.95 38.0 35.95 L37.9 35.95 37.8 35.95 M37.6 33.85 L37.25 33.95 37.25 33.65 37.25 33.5 Q37.3 33.05 37.5 32.8 L37.55 32.75 Q38.1 32.4 38.55 32.4 39.05 32.4 39.05 32.7 L38.35 33.5 37.9 33.75 37.75 33.85 37.6 33.85 M16.0 26.65 Q16.05 26.15 16.35 25.8 L16.8 25.45 18.95 25.75 19.1 25.75 Q20.35 26.15 20.35 26.5 20.35 27.0 19.65 27.6 19.25 27.95 18.65 28.1 L18.65 28.15 17.5 28.3 17.4 28.3 Q16.9 28.25 16.45 27.9 15.95 27.45 15.95 26.85 L16.0 26.65 M19.1 29.75 L19.55 29.7 19.65 29.7 19.65 30.15 19.5 30.35 19.0 30.8 18.65 31.0 18.5 31.05 18.2 30.95 17.95 30.85 18.2 30.45 18.4 30.2 18.75 29.85 18.8 29.8 19.1 29.75" fill="#85fff4" fill-rule="evenodd" stroke="none"/>
      <path d="M38.35 35.15 L38.25 34.85 38.15 34.3 38.3 34.55 38.7 35.0 39.3 34.85 39.5 34.7 39.65 34.6 39.4 35.0 39.3 35.15 38.6 35.3 38.45 35.25 38.35 35.15 M20.3 29.55 Q20.95 30.15 21.85 30.15 L23.15 29.85 23.6 29.6 23.05 30.25 Q22.55 30.7 21.9 30.7 20.85 30.7 20.4 30.15 20.15 29.85 20.05 29.25 L20.3 29.55" fill="#00f7ff" fill-rule="evenodd" stroke="none"/>
      <path d="M48.45 16.45 L50.0 14.75 53.95 10.45 57.5 6.6 57.5 7.65 Q57.45 8.95 56.8 10.15 L53.95 15.1 53.7 15.5 53.95 15.5 56.65 14.9 59.25 14.25 59.0 15.05 58.5 16.6 54.7 18.75 53.95 19.2 Q50.7 21.15 49.65 22.35 49.2 22.9 49.15 23.3 L49.35 23.9 49.4 24.45 47.3 25.65 47.2 25.95 47.4 26.3 Q47.95 27.55 47.95 30.95 L47.95 31.3 47.55 32.25 47.4 32.55 47.05 33.15 46.95 33.15 45.3 33.25 45.5 33.4 46.1 33.85 46.6 36.75 47.2 40.65 47.0 41.65 46.65 43.4 46.2 45.7 46.4 46.5 46.7 46.55 49.8 50.55 49.85 50.65 52.55 53.2 Q55.2 55.5 58.7 57.55 L60.55 58.6 M50.15 0.0 L50.2 2.4 50.2 2.5 48.3 5.9 46.2 10.15 Q45.15 12.4 44.45 14.5 L45.55 16.1 Q46.45 17.35 46.85 17.35 L47.7 17.1 47.85 16.95 48.45 16.45 M48.95 0.0 L45.1 4.25 Q37.6 12.35 35.0 12.35 33.95 12.35 33.15 11.35 32.55 10.65 32.4 9.8 L32.35 9.2 31.15 8.95 29.55 8.6 29.3 8.6 25.5 9.65 21.1 10.35 Q16.35 10.35 13.95 8.35 L12.65 6.8 Q11.95 5.6 11.5 3.5 11.2 1.95 11.05 0.0 M42.45 24.35 L43.35 24.3 Q46.1 24.3 47.2 25.95 M34.9 32.55 L35.7 33.1 36.45 33.55 Q36.3 34.1 36.4 35.2 36.5 36.3 37.0 37.15 37.25 38.15 37.95 38.25 38.6 38.4 39.95 37.1 M42.65 33.15 L43.0 33.2 44.15 33.25 44.5 33.25 45.0 33.25 45.3 33.25 M40.85 36.1 Q42.0 34.75 42.55 33.25 M44.5 33.25 L44.25 34.1 Q43.5 35.65 43.0 37.35 42.4 39.35 42.05 41.6 41.7 43.8 41.6 46.25 M41.7 46.25 L41.4 46.85 41.35 46.95 41.05 46.75 M41.7 47.1 L42.75 47.4 42.8 47.4 43.1 48.35 43.2 48.7 44.4 52.05 Q44.45 53.8 44.65 55.25 L45.25 56.55 46.25 57.5 46.35 57.7 47.2 59.7 M41.55 47.05 L41.35 46.95 M41.55 47.05 L41.7 47.1 M22.1 13.9 Q25.75 14.3 28.3 15.65 L28.4 15.7 28.45 15.75 28.55 15.8 Q30.25 16.7 31.4 18.1 35.2 22.4 35.7 25.9 L35.85 27.25 37.5 27.45 Q38.0 26.65 38.95 25.9 40.55 24.6 42.45 24.35 M22.1 13.9 L18.8 13.75 Q13.3 13.75 9.85 16.85 L9.15 17.5 7.85 19.1 7.4 19.8 7.2 21.8 Q7.2 23.05 7.75 24.35 L9.05 24.95 11.4 25.7 11.9 25.8 13.55 26.1 13.55 26.3 Q13.55 30.4 15.25 32.7 16.9 34.95 20.5 35.45 L20.75 34.1 21.5 34.25 Q24.95 34.25 26.75 31.8 L27.6 30.25 29.15 30.85 30.4 31.3 30.7 31.4 31.05 31.55 34.05 32.35 34.8 32.5 34.9 32.55 M0.0 20.6 L0.35 20.9 1.55 22.75 Q2.55 24.7 2.85 28.05 L2.95 30.05 2.3 32.1 2.2 32.25 0.3 34.65 0.2 34.75 0.0 35.0 M5.7 36.35 L5.85 36.35 6.05 37.0 6.75 39.55 7.85 43.9 8.15 45.1 8.8 45.35 9.0 45.4 11.1 45.8 12.5 45.6 12.95 44.75 13.05 44.65 13.45 44.1 14.6 44.0 24.8 44.95 27.05 45.25 28.45 45.5 28.5 45.5 28.6 45.6 29.0 46.5 29.3 47.4 29.65 47.4 29.7 47.35 30.0 46.7 30.05 46.65 30.55 45.9 31.0 45.2 34.25 45.2 34.4 45.2 38.1 46.15 39.8 46.6 41.55 47.05 M4.75 0.0 Q4.15 5.3 1.4 9.85 L0.0 11.85 M0.0 36.1 L0.35 36.1 2.85 36.05 5.7 36.35" fill="none" stroke="#4f2600" stroke-linecap="round" stroke-linejoin="round" stroke-width="0.5"/>
      <path d="M39.95 37.1 L38.45 37.15 38.45 37.1 Q38.0 37.0 37.65 36.65 L37.25 36.05 36.85 34.55 36.85 34.5 36.85 33.9 36.85 33.55 M36.85 33.4 L36.85 33.25 37.85 31.85 38.2 31.5 Q39.65 30.1 41.0 30.55 41.7 30.75 42.05 31.3 L42.3 31.8 42.4 32.6 42.65 32.85 42.85 33.05 42.65 33.15 42.6 33.2 42.55 33.25 42.3 33.5 42.2 33.6 42.1 33.8 42.05 33.95 42.0 34.0 41.65 34.85 40.85 36.1 40.6 36.45 40.2 36.9 39.95 37.1 M27.0 29.6 L27.45 28.75 Q27.0 27.55 26.2 26.55 L25.7 26.05 Q23.4 23.7 20.0 23.7 18.3 23.7 17.1 24.25 16.6 24.45 16.2 24.8 15.6 25.25 15.3 25.75 L14.5 25.95 14.0 26.1 14.35 26.45 14.85 26.9 14.95 27.15 15.05 27.4 15.1 27.55 15.2 27.7 15.35 28.85 16.45 31.3 Q17.4 32.95 20.85 33.05 L20.9 33.05 23.05 32.75 24.45 32.15 Q25.55 31.55 26.45 30.4 L26.5 30.4 27.0 29.6" fill="none" stroke="#003366" stroke-linecap="round" stroke-linejoin="round" stroke-width="0.5"/>
      <path d="M47.0 41.65 L47.25 41.7 48.9 41.95 50.25 42.05 53.95 41.6 Q57.05 40.85 59.75 38.7 L60.55 38.05" fill="none" stroke="#2d3f00" stroke-linecap="round" stroke-linejoin="round" stroke-width="0.5"/>
    </g>
    <g id="shape2" transform="matrix(1.0, 0.0, 0.0, 1.0, 0.0, 0.0)">
      <path d="M50.5 0.0 Q53.95 0.0 53.95 3.3 L53.95 50.15 Q53.95 53.4 50.5 53.4 L3.3 53.4 Q0.0 53.4 0.0 50.15 L0.0 3.3 Q0.0 0.0 3.3 0.0 L50.5 0.0" fill="#000000" fill-opacity="0.003921569" fill-rule="evenodd" stroke="none"/>
    </g>
  </defs>
</svg>
