<?xml version="1.0" encoding="UTF-8" standalone="no"?>
<svg xmlns:ffdec="https://www.free-decompiler.com/flash" xmlns:xlink="http://www.w3.org/1999/xlink" ffdec:objectType="frame" height="59.25px" width="57.8px" xmlns="http://www.w3.org/2000/svg">
  <g transform="matrix(1.0, 0.0, 0.0, 1.0, 2.4, 1.45)">
    <clipPath id="clipPath0" transform="matrix(1.0, 0.0, 0.0, 1.0, 0.0, 0.0)">
      <path d="M50.5 0.0 Q53.95 0.0 53.95 3.3 L53.95 50.15 Q53.95 53.4 50.5 53.4 L3.3 53.4 Q0.0 53.4 0.0 50.15 L0.0 3.3 Q0.0 0.0 3.3 0.0 L50.5 0.0" fill="#000000" fill-rule="evenodd" stroke="none"/>
    </clipPath>
    <g clip-path="url(#clipPath0)">
      <use ffdec:characterId="2" height="59.25" transform="matrix(1.0, 0.0, 0.0, 1.0, -2.4, -1.45)" width="57.8" xlink:href="#shape1"/>
    </g>
    <use ffdec:characterId="3" height="53.4" transform="matrix(1.0, 0.0, 0.0, 1.0, 0.0, 0.0)" width="53.95" xlink:href="#shape2"/>
  </g>
  <defs>
    <g id="shape1" transform="matrix(1.0, 0.0, 0.0, 1.0, 2.4, 1.45)">
      <path d="M4.25 -0.95 L6.6 -0.95 6.9 -0.45 7.5 0.65 8.5 2.35 8.8 2.95 9.2 3.6 9.3 3.75 8.8 5.3 7.05 10.35 6.95 10.5 5.85 10.8 5.55 10.9 1.2 5.85 1.15 5.75 4.25 -0.95" fill="url(#gradient0)" fill-rule="evenodd" stroke="none"/>
      <path d="M4.25 -0.95 L1.15 5.75 1.2 5.85 -0.7 7.4 -1.9 8.35 -1.9 8.3 2.75 -0.95 4.25 -0.95 M6.9 -0.45 L6.6 -0.95 7.25 -0.95 6.9 -0.45" fill="url(#gradient1)" fill-rule="evenodd" stroke="none"/>
      <path d="M24.8 -0.95 L28.0 -0.95 31.1 4.05 30.95 4.05 27.6 0.5 27.15 -0.05 27.05 -0.15 Q24.5 5.05 23.25 10.9 L23.0 6.7 22.95 2.9 23.5 1.55 24.8 -0.95 M54.9 18.95 L54.9 19.5 Q53.25 25.45 51.2 31.05 L50.8 28.65 50.55 27.65 50.0 26.45 49.7 25.85 51.2 20.25 52.45 14.85 54.9 18.95" fill="#1990e8" fill-rule="evenodd" stroke="none"/>
      <path d="M23.25 10.9 Q24.5 5.05 27.05 -0.15 L27.15 -0.05 27.35 0.55 27.45 0.8 Q26.45 2.4 25.35 6.0 24.1 10.1 24.1 12.6 L24.35 14.45 25.35 17.85 Q26.35 20.6 26.6 23.6 L26.65 25.8 26.65 26.0 26.65 26.25 26.75 26.45 28.35 31.2 29.4 33.3 30.45 35.55 30.55 35.8 31.1 36.7 30.8 36.95 30.4 37.05 30.25 36.55 30.1 36.35 30.1 36.25 Q28.6 33.2 25.95 30.6 L25.25 29.95 24.25 28.95 Q26.2 22.2 23.95 15.75 L23.65 15.05 23.0 13.6 22.85 13.3 22.85 13.2 22.95 12.65 23.25 10.9" fill="url(#gradient2)" fill-rule="evenodd" stroke="none"/>
      <path d="M28.0 -0.95 L28.95 -0.95 32.0 4.3 31.1 4.05 28.0 -0.95 M22.15 4.75 L22.95 2.9 23.0 6.7 23.25 10.9 22.95 12.65 22.85 13.2 22.8 12.45 Q22.25 8.65 22.15 4.75" fill="#98f6f8" fill-rule="evenodd" stroke="none"/>
      <path d="M22.1 -0.55 L22.3 -0.95 23.0 -0.95 22.95 2.75 22.95 2.9 22.15 4.75 22.1 -0.55 M47.15 23.0 L47.0 22.45 Q46.3 18.55 45.9 14.5 L45.75 13.35 45.75 13.3 Q46.4 11.8 47.15 10.9 L47.6 17.45 47.85 19.0 Q48.45 22.75 49.7 25.85 L50.0 26.45 50.55 27.65 50.8 28.65 51.2 31.05 50.55 32.75 50.5 32.85 50.2 33.55 49.5 29.1 49.5 29.05 49.15 28.2 Q48.45 26.0 47.3 24.05 L47.15 23.0 M50.7 9.7 Q52.7 13.45 54.9 16.75 L54.9 18.95 52.45 14.85 50.4 11.5 49.8 10.4 49.25 9.4 49.5 9.4 50.7 9.7" fill="#bbf8f0" fill-rule="evenodd" stroke="none"/>
      <path d="M23.0 -0.95 L24.8 -0.95 23.5 1.55 22.95 2.9 22.95 2.75 23.0 -0.95 M49.8 10.4 L50.4 11.5 52.45 14.85 51.2 20.25 49.7 25.85 Q48.45 22.75 47.85 19.0 L49.8 10.4" fill="#40d7e8" fill-rule="evenodd" stroke="none"/>
      <path d="M22.15 -0.95 L22.3 -0.95 22.1 -0.55 22.15 -0.95 M45.75 13.3 Q45.05 6.55 45.05 -0.95 L45.7 -0.95 48.8 5.9 50.7 9.7 49.5 9.4 49.25 9.4 48.15 7.4 46.6 4.05 47.15 10.8 47.15 10.9 Q46.4 11.8 45.75 13.3" fill="#f3fef8" fill-rule="evenodd" stroke="none"/>
      <path d="M48.15 7.4 L49.25 9.4 49.8 10.4 47.85 19.0 47.6 17.45 47.15 10.9 47.15 10.8 47.7 8.85 48.15 7.4" fill="#5ce8e9" fill-rule="evenodd" stroke="none"/>
      <path d="M47.15 10.8 L46.6 4.05 48.15 7.4 47.7 8.85 47.15 10.8" fill="#baf7b2" fill-rule="evenodd" stroke="none"/>
      <path d="M36.9 13.2 Q36.9 12.1 37.05 10.95 L37.45 7.25 Q38.0 3.2 38.15 3.8 L39.55 7.4 40.25 9.15 41.7 12.6 44.6 18.95 44.3 19.5 43.95 19.1 43.9 19.0 42.8 17.55 42.8 17.15 42.8 16.85 42.75 16.7 39.45 9.65 38.95 8.15 38.3 6.45 38.0 9.5 37.9 11.6 37.9 15.3 36.9 13.2 M45.6 20.8 L46.0 21.25 45.75 21.35 45.6 21.1 45.6 20.8" fill="#9bf6f7" fill-rule="evenodd" stroke="none"/>
      <path d="M39.45 9.65 L42.75 16.7 42.8 16.85 42.8 17.15 42.8 17.55 40.0 13.35 39.8 13.5 Q38.75 14.35 38.4 16.25 L37.9 15.3 37.9 11.6 38.15 11.25 39.45 9.65" fill="#3494ed" fill-rule="evenodd" stroke="none"/>
      <path d="M42.8 17.55 L43.9 19.0 43.95 19.1 44.2 19.55 43.6 20.6 39.8 13.5 40.0 13.35 42.8 17.55 M39.55 25.95 L39.95 26.1 Q38.7 26.7 37.75 27.55 L38.6 25.55 39.55 25.95 M36.45 43.8 L36.7 43.25 36.6 43.6 36.45 43.8 M45.35 34.75 L45.35 34.7 45.9 32.3 46.4 34.15 Q46.2 36.35 45.45 38.35 L44.45 38.6 43.2 40.75 42.55 40.9 40.7 41.35 Q39.0 42.0 37.75 42.85 L40.55 39.6 Q44.25 37.7 45.35 34.75 M32.8 35.1 Q34.5 33.3 35.8 31.2 35.1 33.9 36.15 37.65 L35.9 41.9 Q35.3 39.8 34.25 37.8 L32.8 35.1" fill="#a3c3ff" fill-rule="evenodd" stroke="none"/>
      <path d="M45.75 21.35 L45.85 21.45 46.2 21.9 46.3 21.95 47.15 23.0 47.3 24.05 Q48.45 26.0 49.15 28.2 L49.5 29.05 46.05 22.65 45.6 21.95 45.5 21.8 45.6 21.1 45.75 21.35 M43.95 19.1 L44.3 19.5 44.2 19.55 43.95 19.1" fill="#feffff" fill-rule="evenodd" stroke="none"/>
      <path d="M44.6 18.95 L45.9 16.6 45.6 20.8 45.6 21.1 45.5 21.8 45.35 23.75 45.05 27.4 Q46.0 30.05 45.9 32.3 L45.35 34.7 45.35 34.4 45.15 33.85 Q44.9 33.6 44.6 33.6 44.3 33.6 44.15 33.85 43.9 34.1 43.9 34.4 L43.9 34.55 43.65 34.8 42.9 35.85 41.8 37.1 40.65 37.9 39.95 38.2 39.8 38.4 38.3 40.35 37.75 41.2 39.95 36.95 40.0 36.95 Q40.85 37.05 41.8 36.15 42.9 35.15 43.45 33.4 44.05 31.6 43.75 30.05 L43.5 29.25 43.75 28.9 Q44.35 27.8 44.65 26.1 45.0 24.4 44.65 23.05 44.35 21.8 43.65 21.65 43.2 21.6 42.8 22.05 L43.6 20.6 44.2 19.55 44.3 19.5 44.6 18.95 M39.95 26.1 L40.55 25.8 41.65 24.0 41.25 25.45 Q40.95 27.0 41.25 28.25 L40.1 28.95 Q38.95 29.95 38.4 31.85 37.85 33.6 38.25 35.1 L38.75 36.35 37.15 40.65 37.9 36.8 37.9 36.7 Q37.3 35.45 37.3 34.1 37.3 33.3 37.6 31.9 L38.0 29.8 37.0 29.1 37.75 27.55 Q38.7 26.7 39.95 26.1" fill="#ffe14e" fill-rule="evenodd" stroke="none"/>
      <path d="M32.0 4.3 Q32.8 4.75 33.65 5.9 34.95 7.75 35.75 10.65 L35.75 10.7 35.9 11.4 Q36.6 14.85 36.15 17.45 L36.15 17.7 35.6 19.35 Q35.05 20.25 34.25 20.4 32.85 20.65 31.3 18.5 29.75 16.3 29.05 12.9 28.3 9.55 28.85 6.9 29.0 5.9 29.3 5.3 29.85 4.2 30.7 4.05 L30.95 4.05 31.1 4.05 32.0 4.3 M41.65 24.0 Q41.85 23.2 42.2 22.65 L42.35 22.5 42.8 22.05 Q43.2 21.6 43.65 21.65 44.35 21.8 44.65 23.05 45.0 24.4 44.65 26.1 44.35 27.8 43.75 28.9 L43.5 29.25 Q42.8 30.05 42.25 29.9 41.55 29.8 41.25 28.5 L41.25 28.25 Q40.95 27.0 41.25 25.45 L41.65 24.0 M5.85 47.5 L6.9 47.2 7.65 47.05 7.8 47.05 10.15 46.8 11.85 46.8 13.4 46.95 14.95 47.2 16.05 47.5 16.35 47.65 Q17.1 47.95 17.65 48.35 18.45 49.0 18.5 49.85 L18.5 50.2 Q18.3 51.4 16.2 52.25 L15.5 52.55 15.4 52.6 Q13.8 53.25 11.85 53.5 L10.7 53.55 10.45 53.55 8.9 53.55 5.1 52.95 4.65 52.8 4.25 52.6 3.55 52.3 2.4 51.3 2.15 50.55 Q2.05 49.35 3.8 48.45 4.1 48.2 4.45 48.05 L5.85 47.5 M12.45 48.75 L12.7 49.3 Q12.85 49.5 13.15 49.5 L13.4 49.5 13.7 49.3 13.95 48.75 13.7 48.2 13.55 48.1 13.15 47.95 12.7 48.2 12.55 48.6 12.45 48.75" fill="#ffba0e" fill-rule="evenodd" stroke="none"/>
      <path d="M42.35 22.5 L42.25 22.3 39.85 16.85 39.55 18.7 38.4 16.25 Q38.75 14.35 39.8 13.5 L43.6 20.6 42.8 22.05 42.35 22.5 M39.25 23.45 L39.55 25.95 38.6 25.55 39.25 23.45 M45.35 23.75 Q48.8 29.9 49.1 33.85 L49.15 34.7 49.15 35.65 48.1 36.7 45.45 38.35 Q46.2 36.35 46.4 34.15 L45.9 32.3 Q46.0 30.05 45.05 27.4 L45.35 23.75" fill="#4b78cd" fill-rule="evenodd" stroke="none"/>
      <path d="M39.55 18.7 L39.85 16.85 42.25 22.3 42.35 22.5 42.2 22.65 Q41.85 23.2 41.65 24.0 L40.55 25.8 39.95 26.1 39.55 25.95 39.25 23.45 39.6 21.95 39.8 20.1 39.6 18.95 39.55 18.7" fill="#104780" fill-rule="evenodd" stroke="none"/>
      <path d="M54.9 19.5 L54.9 24.55 51.5 33.6 49.65 38.05 48.7 37.25 48.65 37.2 49.15 36.1 49.55 35.15 49.15 36.1 48.65 37.2 48.55 37.4 48.4 37.7 48.4 37.8 49.4 38.65 49.65 38.8 52.1 41.05 52.5 41.3 54.9 43.85 54.9 45.0 51.55 41.3 48.8 38.8 48.45 38.6 47.95 38.8 47.4 39.05 45.15 39.5 45.0 39.75 44.35 40.65 43.65 41.75 44.2 41.55 Q44.35 41.35 44.6 41.3 L46.0 41.05 Q48.3 41.05 50.5 42.0 52.55 43.0 54.9 45.05 L54.9 45.75 54.5 45.55 Q52.8 44.8 50.95 45.0 L50.2 45.1 48.4 45.55 47.45 44.25 46.75 43.45 Q45.5 42.3 44.2 42.15 L43.9 42.15 43.25 42.15 Q42.75 42.2 42.25 42.55 L42.2 42.45 42.5 42.05 43.2 40.75 44.45 38.6 45.45 38.35 48.1 36.7 49.15 35.65 49.15 34.7 49.1 33.85 Q48.8 29.9 45.35 23.75 L45.5 21.8 45.6 21.95 46.05 22.65 49.5 29.05 49.5 29.1 50.2 33.55 50.5 32.85 50.55 32.75 51.2 31.05 Q53.25 25.45 54.9 19.5 M49.55 35.15 L49.15 35.65 49.55 35.15 49.55 35.1 49.7 34.6 50.1 33.75 50.2 33.55 50.1 33.75 49.7 34.6 49.55 35.1 49.55 35.15" fill="url(#gradient3)" fill-rule="evenodd" stroke="none"/>
      <path d="M41.25 28.25 L41.25 28.5 Q41.55 29.8 42.25 29.9 42.8 30.05 43.5 29.25 L43.75 30.05 Q44.05 31.6 43.45 33.4 42.9 35.15 41.8 36.15 40.85 37.05 40.0 36.95 L39.95 36.95 37.75 41.2 37.6 41.55 37.3 42.0 36.9 42.7 36.7 43.25 36.45 43.8 36.0 44.65 35.9 44.7 35.8 44.7 35.75 44.65 36.35 42.9 37.15 40.65 38.75 36.35 38.25 35.1 Q37.85 33.6 38.4 31.85 38.95 29.95 40.1 28.95 L41.25 28.25" fill="#3a150c" fill-rule="evenodd" stroke="none"/>
      <path d="M54.9 49.9 L54.9 50.7 53.6 51.05 50.7 52.0 49.25 52.45 48.85 51.9 48.4 54.7 48.0 57.3 45.45 57.3 Q44.2 56.5 42.9 56.1 L41.8 55.8 40.1 55.55 39.55 55.55 37.55 55.95 Q36.3 56.35 35.5 57.3 L33.4 57.3 33.75 56.8 33.15 57.3 33.05 57.3 30.8 54.65 27.2 50.45 23.15 45.85 22.1 44.55 23.15 45.4 30.8 51.05 36.05 54.95 36.2 54.95 37.7 54.5 37.9 54.4 37.9 54.25 38.25 51.7 38.4 50.3 38.4 50.05 38.6 47.2 38.7 47.25 39.7 49.2 40.5 50.7 41.65 52.7 42.8 54.85 43.1 54.95 44.35 55.55 44.45 55.55 46.7 52.45 47.95 50.75 47.85 50.7 48.0 50.7 48.15 50.45 49.3 48.8 49.0 50.85 50.65 51.0 54.9 49.9 M13.25 57.3 L10.65 57.3 9.65 56.8 11.85 53.5 Q13.8 53.25 15.4 52.6 L15.5 52.55 15.5 52.6 14.65 54.4 13.25 57.3 M-0.55 33.55 L-1.9 30.8 -1.9 27.8 0.05 32.75 -0.55 33.55 M43.9 34.55 L43.9 34.4 Q43.9 34.1 44.15 33.85 44.3 33.6 44.6 33.6 44.9 33.6 45.15 33.85 L45.35 34.4 45.35 34.7 45.35 34.75 45.15 35.0 44.6 35.15 44.15 35.0 43.9 34.55 M33.9 24.75 L34.2 24.2 Q34.5 23.85 35.05 23.85 35.6 23.85 36.0 24.2 L36.2 24.55 36.3 25.15 36.2 25.6 36.0 26.1 35.8 26.25 35.05 26.45 Q34.5 26.45 34.2 26.1 33.8 25.7 33.8 25.15 L33.9 24.75 M9.5 38.8 L9.65 38.9 Q10.0 39.2 10.0 39.65 10.0 40.15 9.65 40.45 L9.15 40.85 8.9 40.85 8.2 40.45 Q7.9 40.15 7.9 39.65 7.9 39.2 8.2 38.9 8.5 38.6 8.9 38.6 L9.5 38.8 M5.1 52.95 L8.9 53.55 7.8 55.2 7.5 55.75 4.45 54.15 5.1 52.95 M7.8 47.05 L7.65 47.05 7.65 46.95 7.8 47.05 M12.45 48.75 L12.55 48.6 12.7 48.2 13.15 47.95 13.55 48.1 13.7 48.2 13.95 48.75 13.7 49.3 13.4 49.5 13.15 49.5 Q12.85 49.5 12.7 49.3 L12.45 48.75 M17.65 44.4 L17.2 44.85 17.2 44.3 17.65 44.4 M35.5 49.45 L35.8 49.3 36.15 49.2 36.45 49.45 36.5 49.5 36.7 49.65 35.5 49.45" fill="#ffffff" fill-rule="evenodd" stroke="none"/>
      <path d="M37.15 40.65 L36.35 42.9 37.15 37.55 Q36.75 36.8 36.6 35.85 L36.6 33.85 36.75 31.9 36.75 31.75 35.9 31.15 37.0 29.1 38.0 29.8 37.6 31.9 Q37.3 33.3 37.3 34.1 37.3 35.45 37.9 36.7 L37.9 36.8 37.15 40.65 M36.7 43.25 L36.9 42.7 37.3 42.0 37.6 41.55 37.75 41.2 38.3 40.35 39.8 38.4 39.95 38.2 40.65 37.9 41.8 37.1 42.9 35.85 43.65 34.8 43.9 34.55 44.15 35.0 44.6 35.15 45.15 35.0 45.35 34.75 Q44.25 37.7 40.55 39.6 L37.75 42.85 36.5 44.15 36.6 43.6 36.7 43.25" fill="url(#gradient4)" fill-rule="evenodd" stroke="none"/>
      <path d="M54.9 43.65 L54.9 43.85 52.5 41.3 52.1 41.05 49.65 38.8 49.4 38.65 48.4 37.8 48.4 37.7 48.55 37.4 48.65 37.2 48.7 37.25 49.65 38.05 50.5 38.8 52.45 40.75 52.9 41.3 54.05 42.6 54.3 42.9 54.9 43.65" fill="#703d1a" fill-rule="evenodd" stroke="none"/>
      <path d="M54.9 24.55 L54.9 43.65 54.3 42.9 54.05 42.6 52.9 41.3 52.45 40.75 50.5 38.8 49.65 38.05 51.5 33.6 54.9 24.55 M54.9 45.75 L54.9 46.75 Q53.55 46.05 52.1 46.05 L49.95 45.65 48.3 46.05 Q47.85 45.0 46.9 44.4 46.0 43.8 44.75 43.6 L44.3 43.4 44.15 43.25 Q43.25 42.75 42.25 42.55 42.75 42.2 43.25 42.15 L43.9 42.15 44.2 42.15 Q45.5 42.3 46.75 43.45 L47.45 44.25 48.4 45.55 50.2 45.1 50.95 45.0 Q52.8 44.8 54.5 45.55 L54.9 45.75" fill="url(#gradient5)" fill-rule="evenodd" stroke="none"/>
      <path d="M54.9 45.0 L54.9 45.05 Q52.55 43.0 50.5 42.0 48.3 41.05 46.0 41.05 L44.6 41.3 Q44.35 41.35 44.2 41.55 L43.65 41.75 44.35 40.65 45.0 39.75 45.15 39.5 47.4 39.05 47.95 38.8 48.45 38.6 48.8 38.8 51.55 41.3 54.9 45.0" fill="url(#gradient6)" fill-rule="evenodd" stroke="none"/>
      <path d="M42.5 42.05 L42.2 42.45 42.25 42.55 Q43.25 42.75 44.15 43.25 L44.15 43.3 43.95 45.35 43.8 45.4 43.45 45.4 43.25 45.4 Q41.55 45.35 41.25 44.1 L41.2 43.45 41.25 43.0 42.25 42.05 42.5 42.05 M14.4 34.1 L18.15 34.6 18.2 34.6 18.2 34.85 20.4 36.0 20.45 36.0 21.1 36.25 22.15 36.65 21.3 36.0 21.25 36.0 20.4 35.55 18.2 34.45 Q17.45 31.65 16.1 29.05 17.6 29.8 19.0 29.95 L21.4 30.5 22.0 30.8 22.3 31.05 21.85 30.95 Q21.45 30.95 21.15 31.2 20.85 31.35 20.7 31.75 20.45 32.35 20.45 33.15 L20.55 33.7 Q20.6 34.45 21.15 35.25 L21.55 35.85 22.15 36.65 22.25 36.7 22.3 36.8 23.55 37.8 23.8 37.95 23.85 38.05 24.05 38.2 Q24.95 39.2 25.5 40.45 L25.6 40.75 Q24.2 39.3 22.7 38.65 L22.25 38.5 20.7 38.1 18.5 37.95 17.2 38.1 16.95 38.1 16.25 37.55 16.1 37.35 Q15.4 36.7 14.65 35.65 L14.15 35.0 13.3 33.75 14.4 34.1" fill="#98c0fe" fill-rule="evenodd" stroke="none"/>
      <path d="M35.8 44.7 L35.9 44.7 Q35.8 44.7 35.75 44.8 L35.8 44.7 M42.25 42.05 L41.25 43.0 40.5 43.55 40.1 43.45 40.0 43.45 39.3 43.55 37.85 43.85 36.9 44.25 36.35 44.5 Q39.3 42.9 42.25 42.05 M23.35 30.8 L23.85 31.3 24.8 32.3 24.95 35.1 24.9 35.1 24.25 33.05 23.35 30.8 M31.7 36.15 L31.95 35.95 Q34.6 40.05 35.65 44.8 L35.6 44.8 Q34.9 43.15 34.05 41.85 L33.95 41.7 33.1 40.45 32.65 37.9 31.7 36.15" fill="#457ac8" fill-rule="evenodd" stroke="none"/>
      <path d="M35.75 44.65 L35.8 44.7 35.75 44.8 35.65 44.8 Q34.6 40.05 31.95 35.95 L32.8 35.1 34.25 37.8 Q35.3 39.8 35.9 41.9 L35.75 44.65 M36.0 44.65 L36.45 43.8 36.6 43.6 36.5 44.15 37.75 42.85 Q39.0 42.0 40.7 41.35 L42.55 40.9 43.2 40.75 42.5 42.05 42.25 42.05 Q39.3 42.9 36.35 44.5 L36.05 44.65 36.0 44.65 M36.05 44.65 L36.5 44.15 36.05 44.65" fill="#50bcdb" fill-rule="evenodd" stroke="none"/>
      <path d="M44.15 43.3 L44.15 43.25 44.3 43.4 44.15 43.3" fill="#2d5fd5" fill-rule="evenodd" stroke="none"/>
      <path d="M54.9 46.75 L54.9 49.9 50.65 51.0 49.0 50.85 49.3 48.8 48.15 50.45 47.15 49.85 48.15 50.45 48.0 50.7 47.85 50.7 47.15 49.85 46.3 48.9 43.35 45.55 43.45 45.5 43.5 45.5 43.45 45.4 43.8 45.4 43.95 45.35 44.15 43.3 44.3 43.4 44.75 43.6 Q46.75 44.85 48.0 47.25 50.2 45.95 52.1 46.05 53.55 46.05 54.9 46.75 M54.9 50.7 L54.9 54.15 54.9 57.3 52.8 57.3 52.1 56.8 52.1 56.5 49.4 52.6 49.25 52.45 50.7 52.0 53.6 51.05 54.9 50.7 M43.8 45.4 L43.5 45.5 43.8 45.4 M54.9 54.15 L54.5 53.95 51.9 52.6 51.5 52.4 50.7 52.0 51.5 52.4 51.9 52.6 54.5 53.95 54.9 54.15" fill="url(#gradient7)" fill-rule="evenodd" stroke="none"/>
      <path d="M43.45 45.5 L43.45 45.4 43.5 45.5 43.45 45.5" fill="#97bffd" fill-rule="evenodd" stroke="none"/>
      <path d="M41.25 43.0 L41.2 43.45 41.25 44.1 Q41.55 45.35 43.25 45.4 L43.45 45.4 43.45 45.5 43.35 45.55 42.05 46.1 40.55 46.75 39.6 47.05 Q39.6 45.15 39.95 43.95 L40.5 43.55 41.25 43.0" fill="#6291bd" fill-rule="evenodd" stroke="none"/>
      <path d="M43.9 48.65 L42.95 48.65 42.75 48.75 42.25 49.05 41.4 49.65 40.65 50.55 40.55 50.55 40.5 50.7 39.7 49.2 39.6 47.95 39.6 47.25 39.6 47.05 40.55 46.75 42.05 46.1 43.9 48.65" fill="#a9b6d5" fill-rule="evenodd" stroke="none"/>
      <path d="M40.5 50.7 L40.55 50.55 40.65 50.55 41.4 49.65 42.25 49.05 42.75 48.75 42.95 48.65 43.9 48.65 45.0 50.15 46.4 52.0 46.3 52.0 Q45.35 52.0 44.45 52.6 L43.9 52.95 42.8 53.85 41.65 52.7 40.5 50.7" fill="#dae5f8" fill-rule="evenodd" stroke="none"/>
      <path d="M42.7 57.3 L41.75 57.3 41.5 57.1 41.55 56.5 41.65 56.25 41.8 55.8 42.9 56.1 42.7 57.3 M3.15 57.3 L1.75 57.3 0.5 54.4 0.5 53.3 0.45 52.8 0.45 52.55 0.6 52.1 2.45 48.5 2.75 47.9 2.85 47.75 3.45 46.35 7.25 38.75 6.5 35.45 6.55 35.3 6.9 35.0 7.4 34.25 7.95 33.55 8.1 33.4 8.65 34.15 8.65 34.4 9.5 38.8 8.9 38.6 Q8.5 38.6 8.2 38.9 7.9 39.2 7.9 39.65 L3.8 48.45 Q2.05 49.35 2.15 50.55 L2.4 51.3 1.45 53.3 3.15 57.3 M43.35 45.55 L46.3 48.9 46.05 49.2 45.7 49.45 45.0 50.15 43.9 48.65 42.05 46.1 43.35 45.55 M41.65 52.7 L42.8 53.85 43.05 54.15 43.2 54.35 43.1 54.95 42.8 54.85 41.65 52.7 M36.15 49.2 L36.2 49.15 36.45 49.45 36.15 49.2" fill="url(#gradient8)" fill-rule="evenodd" stroke="none"/>
      <path d="M52.1 56.8 L52.1 57.3 49.95 57.3 49.95 56.75 49.8 56.6 48.4 54.7 48.85 51.9 49.25 52.45 49.4 52.6 52.1 56.5 52.1 56.8 M46.3 48.9 L47.15 49.85 47.85 50.7 47.95 50.75 46.7 52.45 46.4 52.1 46.4 52.0 45.0 50.15 45.7 49.45 46.05 49.2 46.3 48.9" fill="#fee253" fill-rule="evenodd" stroke="none"/>
      <path d="M44.75 43.6 Q46.0 43.8 46.9 44.4 47.85 45.0 48.3 46.05 L49.95 45.65 52.1 46.05 Q50.2 45.95 48.0 47.25 46.75 44.85 44.75 43.6" fill="#f7fc48" fill-rule="evenodd" stroke="none"/>
      <path d="M27.6 0.5 L30.95 4.05 30.7 4.05 Q29.85 4.2 29.3 5.3 L27.7 1.4 27.6 1.25 27.45 0.8 27.35 0.55 27.6 0.5 M35.6 19.35 L36.15 17.7 36.35 21.45 36.3 23.0 Q36.3 21.5 35.6 19.35" fill="#ffee8b" fill-rule="evenodd" stroke="none"/>
      <path d="M9.2 3.6 L8.8 2.95 8.5 2.35 12.4 4.8 Q15.5 6.75 18.35 9.15 15.75 7.1 12.0 5.05 10.75 4.35 9.2 3.6 M38.0 9.5 L38.3 6.45 38.95 8.15 38.0 9.5" fill="#5ce7e8" fill-rule="evenodd" stroke="none"/>
      <path d="M35.9 10.95 L36.0 11.2 36.9 13.2 37.9 15.3 38.4 16.25 39.55 18.7 39.6 18.95 39.8 20.1 39.25 21.25 38.25 23.15 37.9 23.5 37.9 23.6 36.75 25.1 36.35 25.45 36.2 25.6 36.3 25.15 36.2 24.55 36.3 23.6 36.3 23.0 36.35 21.45 36.15 17.7 36.15 17.45 Q36.6 14.85 35.9 11.4 L35.75 10.7 35.9 10.95" fill="#ffecd3" fill-rule="evenodd" stroke="none"/>
      <path d="M8.8 5.3 L9.3 3.75 9.2 3.6 Q10.75 4.35 12.0 5.05 15.75 7.1 18.35 9.15 L18.75 9.5 19.9 10.65 22.0 12.8 21.7 13.05 21.7 12.95 Q18.75 10.0 14.95 8.0 12.6 6.7 8.8 5.3 M38.95 8.15 L39.45 9.65 38.15 11.25 37.9 11.6 38.0 9.5 38.95 8.15" fill="#43d8e6" fill-rule="evenodd" stroke="none"/>
      <path d="M29.3 5.3 Q29.0 5.9 28.85 6.9 28.3 9.55 29.05 12.9 29.75 16.3 31.3 18.5 32.85 20.65 34.25 20.4 35.05 20.25 35.6 19.35 36.3 21.5 36.3 23.0 L36.3 23.6 36.2 24.55 36.0 24.2 Q35.6 23.85 35.05 23.85 34.5 23.85 34.2 24.2 L33.9 24.75 33.8 24.7 Q32.8 23.7 31.55 21.9 L28.85 17.4 Q27.85 15.85 27.05 13.5 26.1 10.7 26.1 8.95 26.1 7.1 26.6 4.8 27.15 2.5 27.7 1.4 L29.3 5.3" fill="url(#gradient9)" fill-rule="evenodd" stroke="none"/>
      <path d="M27.7 1.4 Q27.15 2.5 26.6 4.8 26.1 7.1 26.1 8.95 26.1 10.7 27.05 13.5 27.85 15.85 28.85 17.4 L31.55 21.9 Q32.8 23.7 33.8 24.7 L33.9 24.75 33.8 25.15 Q33.8 25.7 34.2 26.1 34.5 26.45 35.05 26.45 L35.8 26.25 34.6 29.75 32.2 33.75 31.25 34.95 31.0 35.25 30.55 35.8 30.45 35.55 29.4 33.3 28.35 31.2 26.75 26.45 26.65 26.25 26.65 26.0 26.65 25.8 26.6 23.6 Q26.35 20.6 25.35 17.85 L24.35 14.45 24.1 12.6 Q24.1 10.1 25.35 6.0 26.45 2.4 27.45 0.8 L27.6 1.25 27.7 1.4 M30.45 35.55 L30.85 35.0 31.15 34.45 31.85 33.3 32.7 31.85 Q33.75 29.75 34.05 26.8 L34.1 26.55 33.05 25.3 31.7 23.7 Q30.15 21.6 29.05 19.5 L30.15 25.7 30.3 26.55 30.7 28.4 31.15 31.6 31.15 31.9 31.0 33.75 30.95 33.85 30.7 34.8 30.45 35.55" fill="url(#gradient10)" fill-rule="evenodd" stroke="none"/>
      <path d="M23.0 13.6 L23.65 15.05 23.95 15.75 Q26.2 22.2 24.25 28.95 L25.25 29.95 25.2 31.65 25.2 32.05 24.8 31.3 23.15 27.95 22.0 26.1 21.45 25.25 21.4 25.15 21.15 24.75 20.85 24.6 Q19.6 24.0 19.05 23.6 L18.2 22.75 16.05 20.4 17.9 23.0 20.0 25.1 20.6 25.6 21.25 26.55 22.0 28.05 22.3 28.5 21.0 28.4 18.45 27.85 17.8 27.7 17.6 27.65 17.2 27.55 Q15.95 27.0 15.05 26.1 L14.7 25.8 14.1 24.9 13.5 23.6 13.25 22.75 13.25 22.65 13.15 22.3 13.1 22.05 12.3 19.1 11.45 16.1 11.4 15.3 11.0 13.85 10.75 12.95 10.15 11.25 9.85 10.55 10.0 10.55 11.75 10.8 12.85 11.1 12.95 11.2 12.8 11.25 12.7 11.5 12.6 12.1 12.85 13.35 Q13.4 15.4 15.5 18.8 L15.55 18.85 Q18.85 23.9 21.45 23.9 23.35 23.9 23.35 20.4 23.35 18.65 22.7 16.1 L21.7 13.05 22.25 13.3 22.3 13.3 22.65 13.45 23.0 13.6" fill="#99c1ff" fill-rule="evenodd" stroke="none"/>
      <path d="M5.85 10.8 L6.95 10.5 7.05 10.35 7.95 12.1 11.25 18.5 Q11.4 20.1 11.85 21.5 L9.0 16.6 5.85 10.8 M8.5 2.35 L7.5 0.65 8.8 1.25 Q16.65 4.8 21.7 11.05 L22.8 12.45 22.85 13.2 22.85 13.3 23.0 13.6 22.65 13.45 22.3 13.3 22.0 12.8 19.9 10.65 18.75 9.5 18.35 9.15 Q15.5 6.75 12.4 4.8 L8.5 2.35" fill="#baf7ef" fill-rule="evenodd" stroke="none"/>
      <path d="M7.05 10.35 L8.8 5.3 Q12.6 6.7 14.95 8.0 18.75 10.0 21.7 12.95 L21.7 13.05 20.4 12.5 Q16.75 11.05 13.0 10.2 L9.45 9.55 9.85 10.55 10.15 11.25 10.6 13.05 11.0 15.3 11.15 16.15 Q11.05 17.3 11.25 18.5 L7.95 12.1 7.05 10.35 M36.45 48.9 L36.75 48.5 37.05 48.9 38.4 50.3 38.25 51.7 37.7 51.05 36.7 49.65 36.5 49.5 36.45 49.45 36.7 49.65 36.45 49.45 36.75 49.3 36.75 49.2 36.45 48.9 M37.35 47.5 L38.3 45.5 39.0 44.8 Q38.7 46.25 38.7 47.25 L38.6 47.2 38.4 50.05 38.0 49.2 37.7 48.45 37.35 47.5" fill="#1d9de4" fill-rule="evenodd" stroke="none"/>
      <path d="M21.7 13.05 L22.7 16.1 Q23.35 18.65 23.35 20.4 23.35 23.9 21.45 23.9 18.85 23.9 15.55 18.85 L15.5 18.8 Q13.4 15.4 12.85 13.35 L12.6 12.1 12.8 11.25 12.95 11.2 12.85 11.1 11.75 10.8 10.0 10.55 9.85 10.55 9.45 9.55 13.0 10.2 Q16.75 11.05 20.4 12.5 L21.7 13.05 M28.2 40.3 L28.15 40.2 28.05 40.15 27.7 39.8 27.45 39.65 27.15 39.3 27.0 37.65 27.0 37.4 26.9 35.55 26.9 34.3 26.9 33.4 28.3 34.55 28.35 34.6 Q28.2 35.15 28.2 36.1 L28.15 36.35 28.15 36.7 28.15 37.1 28.15 37.9 28.15 38.2 28.2 38.5 28.2 38.65 28.3 39.05 28.6 39.6 28.85 39.9 29.35 40.35 29.4 40.35 29.85 40.5 30.15 40.6 30.55 40.6 31.1 40.5 31.5 40.3 31.55 40.6 Q31.55 41.15 30.85 41.15 L29.25 40.75 28.55 40.35 28.3 40.3 28.2 40.3" fill="#fcffff" fill-rule="evenodd" stroke="none"/>
      <path d="M39.8 20.1 L39.6 21.95 39.25 23.45 38.6 25.55 37.75 27.55 37.0 29.1 35.9 31.15 35.8 31.2 Q34.5 33.3 32.8 35.1 L31.95 35.95 31.7 36.15 31.1 36.7 30.55 35.8 31.0 35.25 31.25 34.95 32.2 33.75 34.6 29.75 35.8 26.25 36.0 26.1 36.2 25.6 36.35 25.45 36.75 25.1 37.9 23.6 37.9 23.5 38.25 23.15 39.25 21.25 39.8 20.1" fill="#cf841d" fill-rule="evenodd" stroke="none"/>
      <path d="M30.45 35.55 L30.7 34.8 30.95 33.85 31.0 33.75 31.15 31.9 31.15 31.6 30.7 28.4 30.3 26.55 30.15 25.7 29.05 19.5 Q30.15 21.6 31.7 23.7 L33.05 25.3 34.1 26.55 34.05 26.8 Q33.75 29.75 32.7 31.85 L31.85 33.3 31.15 34.45 30.85 35.0 30.45 35.55" fill="url(#gradient11)" fill-rule="evenodd" stroke="none"/>
      <path d="M7.9 26.85 L6.05 23.5 Q4.45 21.05 3.95 19.8 L2.9 17.85 2.3 16.4 3.15 17.25 5.8 19.1 Q8.45 20.8 11.0 22.05 L11.85 22.45 12.25 22.65 12.3 22.85 12.4 23.05 12.4 23.2 12.55 23.6 12.25 23.35 13.95 27.35 13.95 27.55 14.95 30.5 Q13.15 29.35 10.45 27.0 L9.2 25.95 7.6 24.45 8.8 26.55 10.75 29.6 14.4 34.1 13.3 33.75 13.25 33.6 12.85 33.3 8.3 27.5 7.9 26.85" fill="url(#gradient12)" fill-rule="evenodd" stroke="none"/>
      <path d="M-1.2 11.65 L3.8 16.15 Q7.9 18.7 11.85 21.6 L11.85 21.65 12.25 22.65 11.85 22.45 11.0 22.05 Q8.45 20.8 5.8 19.1 L3.15 17.25 2.15 16.0 1.0 14.6 -1.35 11.9 -1.2 11.65" fill="#feefc6" fill-rule="evenodd" stroke="none"/>
      <path d="M7.5 27.1 L6.75 26.0 Q2.2 19.7 -1.35 11.9 L-1.75 11.05 -1.2 11.65 -1.35 11.9 1.0 14.6 2.15 16.0 3.15 17.25 2.3 16.4 2.9 17.85 3.95 19.8 Q4.45 21.05 6.05 23.5 L7.9 26.85 7.5 27.1" fill="#fbdc3e" fill-rule="evenodd" stroke="none"/>
      <path d="M18.35 38.95 Q17.75 39.05 17.3 39.3 14.4 37.7 12.7 33.55 L13.15 33.7 13.3 33.75 14.15 35.0 14.65 35.65 Q15.4 36.7 16.1 37.35 L16.25 37.55 16.95 38.1 17.2 38.1 18.5 37.95 20.7 38.1 22.25 38.5 22.7 38.65 Q24.2 39.3 25.6 40.75 L23.55 39.9 23.0 39.75 22.7 39.6 Q20.05 38.75 18.35 38.95 M11.85 21.6 L11.85 21.5 Q11.4 20.1 11.25 18.5 11.05 17.3 11.15 16.15 L11.45 16.1 12.3 19.1 13.1 22.05 13.15 22.3 13.25 22.65 13.25 22.75 13.5 23.6 14.1 24.9 14.7 25.8 15.05 26.1 Q15.95 27.0 17.2 27.55 L17.6 27.65 17.8 27.7 18.45 27.85 21.0 28.4 22.3 28.5 22.55 28.5 22.65 28.55 24.8 32.15 24.9 32.2 25.2 32.75 24.8 32.3 23.85 31.3 23.35 30.8 Q21.25 29.2 18.35 29.05 L17.6 29.05 Q16.6 28.9 15.8 28.4 13.55 27.1 12.55 23.6 L12.4 23.2 12.4 23.05 12.3 22.85 12.25 22.65 11.85 21.65 11.85 21.6" fill="#50c5d9" fill-rule="evenodd" stroke="none"/>
      <path d="M12.55 23.6 Q13.55 27.1 15.8 28.4 L16.1 29.05 Q17.45 31.65 18.2 34.45 17.8 34.55 18.15 34.6 L14.4 34.1 10.75 29.6 8.8 26.55 7.6 24.45 9.2 25.95 10.45 27.0 Q13.15 29.35 14.95 30.5 L13.95 27.55 13.95 27.35 12.25 23.35 12.55 23.6" fill="#d97629" fill-rule="evenodd" stroke="none"/>
      <path d="M22.3 28.5 L22.0 28.05 21.25 26.55 20.6 25.6 20.0 25.1 17.9 23.0 16.05 20.4 18.2 22.75 19.05 23.6 Q19.6 24.0 20.85 24.6 L21.15 24.75 21.4 25.15 21.45 25.25 22.0 26.1 23.15 27.95 24.8 31.3 25.2 32.05 25.25 32.75 25.2 32.75 24.9 32.2 24.8 32.15 22.65 28.55 22.55 28.5 22.3 28.5" fill="#839cd2" fill-rule="evenodd" stroke="none"/>
      <path d="M15.8 28.4 Q16.6 28.9 17.6 29.05 L18.35 29.05 Q21.25 29.2 23.35 30.8 L24.25 33.05 24.9 35.1 24.95 35.45 25.1 36.8 25.1 36.95 25.2 37.65 25.25 38.4 25.5 40.45 Q24.95 39.2 24.05 38.2 L23.85 38.05 23.8 37.95 23.55 37.8 22.85 37.2 22.25 36.7 22.15 36.65 21.55 35.85 21.15 35.25 Q20.6 34.45 20.55 33.7 L20.45 33.15 Q20.45 32.35 20.7 31.75 20.85 31.35 21.15 31.2 21.45 30.95 21.85 30.95 L22.3 31.05 22.0 30.8 21.4 30.5 19.0 29.95 Q17.6 29.8 16.1 29.05 L15.8 28.4" fill="#fbfefe" fill-rule="evenodd" stroke="none"/>
      <path d="M22.15 36.65 L21.1 36.25 20.45 36.0 20.4 36.0 18.2 34.85 18.2 34.6 18.2 34.45 20.4 35.55 21.25 36.0 21.3 36.0 22.15 36.65" fill="#829bd1" fill-rule="evenodd" stroke="none"/>
      <path d="M-1.9 40.15 L-1.9 36.25 -0.95 34.0 -0.55 33.55 0.05 32.75 1.45 31.05 1.6 31.15 0.75 32.2 1.05 32.2 Q2.0 32.2 2.4 32.85 L0.3 34.55 -1.9 40.15" fill="#d3772c" fill-rule="evenodd" stroke="none"/>
      <path d="M1.6 31.15 L2.15 30.45 7.9 32.9 8.1 33.4 7.95 33.55 7.4 34.25 6.9 35.0 6.55 35.3 6.5 35.45 6.35 34.8 2.45 33.15 2.4 32.85 Q2.0 32.2 1.05 32.2 L0.75 32.2 1.6 31.15" fill="#da7641" fill-rule="evenodd" stroke="none"/>
      <path d="M-1.9 47.65 L-1.9 40.15 0.3 34.55 2.4 32.85 2.45 33.15 6.35 34.8 6.5 35.45 7.25 38.75 3.45 46.35 3.4 46.35 3.4 46.25 Q1.35 46.5 -0.25 47.25 L-0.9 47.6 -1.2 47.75 -1.9 47.65" fill="#03186b" fill-rule="evenodd" stroke="none"/>
      <path d="M5.65 57.3 L4.75 57.3 3.3 54.0 3.25 52.95 3.55 52.3 4.25 52.6 3.95 53.25 5.65 57.3 M8.65 34.15 L10.75 37.35 11.15 37.55 11.6 43.45 11.15 43.0 10.3 42.85 Q9.85 42.85 9.35 43.15 L9.15 43.3 9.0 43.4 8.9 43.45 8.6 43.6 7.1 46.75 6.9 47.2 5.85 47.5 9.15 40.85 9.65 40.45 Q10.0 40.15 10.0 39.65 10.0 39.2 9.65 38.9 L9.5 38.8 8.65 34.4 8.65 34.15 M12.95 38.6 L15.25 39.9 15.1 44.5 14.85 44.4 14.7 44.4 Q13.7 44.55 13.3 46.5 L12.95 38.6" fill="#8aa5de" fill-rule="evenodd" stroke="none"/>
      <path d="M15.15 57.3 L13.25 57.3 14.65 54.4 15.5 52.6 15.5 52.55 16.2 52.25 Q18.3 51.4 18.5 50.2 L18.65 50.55 18.15 51.45 17.45 52.6 16.6 54.15 15.15 57.3 M9.1 57.3 L7.5 57.3 7.4 55.8 7.5 55.75 7.8 55.2 8.9 53.55 10.45 53.55 10.7 53.55 9.05 55.95 9.05 56.5 9.0 57.05 9.1 57.3 M4.75 57.3 L3.15 57.3 1.45 53.3 2.4 51.3 3.55 52.3 3.25 52.95 3.3 54.0 4.75 57.3 M9.15 40.85 L5.85 47.5 4.45 48.05 Q4.1 48.2 3.8 48.45 L7.9 39.65 Q7.9 40.15 8.2 40.45 L8.9 40.85 9.15 40.85 M17.65 48.35 Q17.1 47.95 16.35 47.65 L16.9 47.5 17.2 47.5 17.65 48.35" fill="#ffdb76" fill-rule="evenodd" stroke="none"/>
      <path d="M10.65 57.3 L9.1 57.3 9.0 57.05 9.2 56.6 9.05 56.5 9.05 55.95 10.7 53.55 11.85 53.5 9.65 56.8 10.65 57.3 M7.5 57.3 L5.65 57.3 3.95 53.25 4.25 52.6 4.65 52.8 5.1 52.95 4.45 54.15 7.5 55.75 7.4 55.8 7.5 57.3 M6.9 47.2 L7.1 46.75 8.6 43.6 8.9 43.45 9.0 43.4 9.15 43.3 9.35 43.15 Q9.85 42.85 10.3 42.85 L11.15 43.0 11.6 43.45 11.6 43.7 11.85 46.8 10.15 46.8 7.8 47.05 7.65 46.95 7.1 46.75 7.65 47.05 6.9 47.2 M14.95 47.2 L13.4 46.95 13.3 46.5 Q13.7 44.55 14.7 44.4 L14.85 44.4 15.1 44.5 14.95 47.2" fill="#c5dcfa" fill-rule="evenodd" stroke="none"/>
      <path d="M3.45 46.35 L2.85 47.75 3.4 46.35 3.45 46.35 M0.45 52.8 L0.5 53.3 0.45 53.25 0.35 52.95 0.45 52.8 M7.65 46.95 L7.65 47.05 7.1 46.75 7.65 46.95 M9.0 57.05 L9.05 56.5 9.2 56.6 9.0 57.05" fill="url(#gradient13)" fill-rule="evenodd" stroke="none"/>
      <path d="M-1.9 50.6 L-1.9 48.2 -1.2 47.75 -0.9 47.6 -0.25 47.25 Q1.35 46.5 3.4 46.25 L3.4 46.35 Q1.85 46.8 0.6 48.05 L0.5 48.1 -0.4 49.3 -1.25 50.55 -1.35 50.7 Q-1.4 50.6 -1.6 50.6 L-1.9 50.6" fill="#81afec" fill-rule="evenodd" stroke="none"/>
      <path d="M1.75 57.3 L-1.3 57.3 Q-0.95 55.3 -1.25 53.8 L-1.35 53.55 -1.7 52.6 -1.9 52.35 -1.9 50.6 -1.6 50.6 Q-1.4 50.6 -1.35 50.7 L-1.25 50.55 -0.4 49.3 0.5 48.1 0.6 48.05 Q1.85 46.8 3.4 46.35 L2.85 47.75 2.75 47.9 2.45 48.5 0.6 52.1 0.45 52.55 0.45 52.8 0.35 52.95 0.45 53.25 0.5 53.3 0.5 54.4 1.75 57.3" fill="#4579c9" fill-rule="evenodd" stroke="none"/>
      <path d="M17.35 39.95 L17.8 39.1 18.35 38.95 Q20.05 38.75 22.7 39.6 21.85 39.65 21.4 39.95 L21.1 40.3 20.75 40.65 Q20.4 41.35 20.45 42.9 L20.7 44.55 20.75 44.95 20.9 45.5 21.15 46.4 21.95 48.1 22.1 48.35 21.95 48.2 20.6 46.9 19.3 45.25 18.3 43.7 Q17.45 42.15 17.35 40.85 L17.35 40.75 17.35 39.95 M36.75 48.5 L37.05 48.1 37.35 47.5 37.7 48.45 38.0 49.2 38.4 50.05 38.4 50.3 37.05 48.9 36.75 48.5" fill="#065594" fill-rule="evenodd" stroke="none"/>
      <path d="M17.1 41.0 L17.1 40.85 17.35 40.85 Q17.45 42.15 18.3 43.7 L19.3 45.25 20.6 46.9 21.95 48.2 22.1 48.35 21.95 48.5 20.3 47.2 18.85 45.55 18.3 44.95 17.8 44.25 17.2 43.25 17.2 41.0 17.1 41.0 M39.6 47.05 L39.6 47.25 39.6 47.95 39.7 49.2 38.7 47.25 Q38.7 46.25 39.0 44.8 L39.4 44.4 39.4 44.3 39.95 43.95 Q39.6 45.15 39.6 47.05 M21.95 48.1 L21.15 46.4 20.9 45.5 20.75 44.95 20.7 44.55 20.45 42.9 Q20.4 41.35 20.75 40.65 L21.1 40.3 21.4 39.95 Q21.85 39.65 22.7 39.6 L23.0 39.75 Q22.4 41.45 22.15 43.8 L22.15 44.0 22.1 44.55 22.1 45.15 22.0 45.85 21.95 48.1" fill="#60e6e9" fill-rule="evenodd" stroke="none"/>
      <path d="M11.15 37.55 L12.95 38.6 13.3 46.5 13.4 46.95 11.85 46.8 11.6 43.7 11.6 43.45 11.15 37.55 M15.25 39.9 L17.1 41.0 17.2 41.0 17.2 43.25 17.2 44.3 17.2 44.85 17.1 47.4 16.9 47.5 16.35 47.65 16.05 47.5 14.95 47.2 15.1 44.5 15.25 39.9" fill="#e89513" fill-rule="evenodd" stroke="none"/>
      <path d="M16.2 57.3 L15.15 57.3 16.6 54.15 17.45 52.6 18.15 51.45 18.65 50.55 18.5 50.2 18.5 49.85 Q18.45 49.0 17.65 48.35 L17.2 47.5 16.9 47.5 17.1 47.4 17.2 44.85 17.65 44.4 17.8 44.25 18.3 44.95 18.85 45.55 18.75 45.65 18.3 44.95 18.75 45.65 20.0 47.5 21.25 49.05 22.85 50.85 22.7 50.9 22.5 51.05 22.7 50.9 22.95 51.45 22.5 51.05 18.05 53.5 16.2 57.3 M17.2 47.5 L17.1 47.4 17.2 47.5 M23.5 50.6 L23.15 45.95 23.15 45.85 Q24.55 48.1 26.45 49.85 L24.8 50.3 24.95 50.6 23.5 50.6 24.8 50.3 23.5 50.6" fill="#2a241c" fill-rule="evenodd" stroke="none"/>
      <path d="M18.75 45.65 L18.85 45.55 20.3 47.2 21.95 48.5 22.1 48.35 21.95 48.1 22.0 45.85 22.1 45.15 22.1 44.55 23.15 45.85 23.15 45.95 23.5 50.6 23.55 51.55 22.85 50.85 21.25 49.05 20.0 47.5 18.75 45.65 M23.55 39.9 L23.8 40.15 23.95 40.5 Q23.15 42.15 23.15 45.25 L23.15 45.4 22.1 44.55 22.15 44.0 22.15 43.8 Q22.4 41.45 23.0 39.75 L23.55 39.9 M36.2 49.15 L36.45 48.9 36.75 49.2 36.75 49.3 36.45 49.45 36.2 49.15" fill="#eafaee" fill-rule="evenodd" stroke="none"/>
      <path d="M30.1 36.25 L30.1 36.35 30.25 36.55 30.4 37.05 30.8 36.95 Q31.7 38.1 32.1 39.3 L32.35 40.85 32.25 41.7 30.55 41.45 29.25 40.9 29.25 40.75 30.85 41.15 Q31.55 41.15 31.55 40.6 L31.5 40.3 31.1 40.5 30.55 40.6 30.45 40.5 Q30.95 40.2 31.1 39.5 L31.1 39.05 30.85 37.95 30.6 37.65 30.0 37.25 29.4 37.1 Q28.9 37.1 28.7 37.35 L28.15 36.7 28.15 36.35 28.2 36.1 Q28.2 35.15 28.35 34.6 L30.1 36.25" fill="#0d6fdc" fill-rule="evenodd" stroke="none"/>
      <path d="M25.25 29.95 L25.95 30.6 Q28.6 33.2 30.1 36.25 L28.35 34.6 28.3 34.55 26.9 33.4 26.9 34.3 26.9 35.55 27.0 37.4 27.0 37.65 27.15 39.3 27.45 39.65 27.7 39.8 28.05 40.15 28.15 40.2 28.2 40.3 28.45 40.45 29.05 40.85 29.15 40.85 29.25 40.9 30.55 41.45 32.25 41.7 32.35 40.85 32.1 39.3 Q31.7 38.1 30.8 36.95 L31.1 36.7 31.7 36.15 32.65 37.9 33.1 40.45 33.1 41.75 33.1 41.85 33.1 42.85 Q32.85 42.55 32.0 42.3 L30.45 41.9 28.6 41.55 Q27.35 41.05 25.6 39.9 L25.25 38.4 25.25 38.05 25.25 37.65 25.1 36.8 24.95 35.45 24.95 35.1 24.8 32.3 25.2 32.75 25.25 32.75 25.2 32.05 25.2 31.65 25.25 29.95 M25.25 32.75 L25.35 33.0 25.2 32.75 25.35 33.0 25.25 32.75" fill="#23234c" fill-rule="evenodd" stroke="none"/>
      <path d="M36.35 42.9 L35.75 44.65 35.9 41.9 36.15 37.65 Q35.1 33.9 35.8 31.2 L35.9 31.15 36.75 31.75 36.75 31.9 36.6 33.85 36.6 35.85 Q36.75 36.8 37.15 37.55 L36.35 42.9" fill="#f5cc36" fill-rule="evenodd" stroke="none"/>
      <path d="M35.9 44.7 L36.0 44.65 36.05 44.65 36.35 44.5 36.9 44.25 37.85 43.85 39.3 43.55 40.0 43.45 40.1 43.45 40.5 43.55 39.95 43.95 39.4 44.3 39.4 44.4 39.1 44.4 36.9 44.95 36.35 45.15 35.9 45.4 34.9 46.1 34.75 46.2 34.75 45.8 34.75 45.65 Q34.75 44.4 33.8 42.9 L33.65 42.7 33.4 42.3 33.1 41.85 33.1 41.75 33.1 40.45 33.95 41.7 34.05 41.85 Q34.9 43.15 35.6 44.8 L35.65 44.8 35.75 44.8 Q35.8 44.7 35.9 44.7 M23.55 37.8 L22.3 36.8 22.25 36.7 22.85 37.2 23.55 37.8 M24.95 35.45 L24.9 35.1 24.95 35.1 24.95 35.45 M25.2 37.65 L25.1 36.95 25.1 36.8 25.25 37.65 25.2 37.65" fill="#9ccbf9" fill-rule="evenodd" stroke="none"/>
      <path d="M28.15 38.2 L28.15 37.9 28.15 37.1 28.15 36.7 28.7 37.35 29.15 37.95 29.6 38.6 29.6 38.65 28.6 38.4 28.35 38.25 28.2 38.2 28.15 38.2" fill="#f1f6f8" fill-rule="evenodd" stroke="none"/>
      <path d="M28.6 38.4 L29.6 38.65 29.6 38.6 29.15 37.95 29.3 37.95 Q29.7 37.95 29.95 38.2 L30.1 38.5 30.15 38.8 30.15 38.9 29.95 39.6 29.3 39.8 28.7 39.6 28.45 38.9 Q28.45 38.6 28.6 38.4" fill="#4ddbe1" fill-rule="evenodd" stroke="none"/>
      <path d="M30.15 40.6 L29.85 40.5 29.4 40.35 29.35 40.35 29.25 40.2 28.85 39.9 28.6 39.6 28.7 39.6 29.3 39.8 29.95 39.6 30.15 38.9 30.15 38.8 30.1 38.5 29.95 38.2 Q29.7 37.95 29.3 37.95 L29.15 37.95 28.7 37.35 Q28.9 37.1 29.4 37.1 L30.0 37.25 30.6 37.65 30.85 37.95 31.1 39.05 31.1 39.5 Q30.95 40.2 30.45 40.5 L30.15 40.6" fill="#21a8de" fill-rule="evenodd" stroke="none"/>
      <path d="M28.6 39.6 L28.3 39.05 28.2 38.65 28.2 38.5 28.2 38.2 28.35 38.25 28.6 38.4 Q28.45 38.6 28.45 38.9 L28.7 39.6 28.6 39.6" fill="#4ed8df" fill-rule="evenodd" stroke="none"/>
      <path d="M28.2 38.5 L28.15 38.2 28.2 38.2 28.2 38.5" fill="#0ba7c0" fill-rule="evenodd" stroke="none"/>
      <path d="M25.6 40.75 L25.5 40.45 25.25 38.4 25.2 37.65 25.25 37.65 25.25 38.05 25.25 38.4 25.6 39.9 Q27.35 41.05 28.6 41.55 L30.45 41.9 32.0 42.3 Q32.85 42.55 33.1 42.85 L33.1 41.85 33.4 42.3 33.65 42.7 33.8 42.9 Q34.75 44.4 34.75 45.65 L34.75 45.8 34.75 46.2 34.9 46.1 35.9 45.4 36.35 45.15 36.9 44.95 39.1 44.4 39.4 44.4 39.0 44.8 38.3 45.5 37.35 47.5 37.05 48.1 36.75 48.5 36.45 48.9 36.2 49.15 36.15 49.2 35.8 49.3 35.5 49.45 32.35 50.55 31.15 50.9 30.8 51.05 23.15 45.4 23.15 45.25 Q23.15 42.15 23.95 40.5 L23.8 40.15 23.55 39.9 25.6 40.75 M28.2 40.3 L28.3 40.3 28.55 40.35 29.25 40.75 29.25 40.9 29.15 40.85 29.05 40.85 28.45 40.45 28.2 40.3 M30.55 40.6 L30.15 40.6 30.45 40.5 30.55 40.6 M29.35 40.35 L28.85 39.9 29.25 40.2 29.35 40.35 M29.7 46.2 L26.05 45.5 Q26.3 45.7 27.85 46.1 L29.7 46.55 30.7 46.75 Q31.55 47.1 32.0 47.65 L32.1 47.8 32.7 48.1 32.55 47.4 32.0 46.9 30.85 46.1 29.7 46.2 M26.45 49.85 Q24.55 48.1 23.15 45.85 L27.2 50.45 26.45 49.85" fill="#fdfdff" fill-rule="evenodd" stroke="none"/>
      <path d="M29.7 46.2 L30.85 46.1 32.0 46.9 32.55 47.4 32.7 48.1 32.1 47.8 32.0 47.65 Q31.55 47.1 30.7 46.75 L29.7 46.55 27.85 46.1 Q26.3 45.7 26.05 45.5 L29.7 46.2" fill="#3a3a58" fill-rule="evenodd" stroke="none"/>
      <path d="M31.15 50.9 L32.35 50.55 33.35 50.6 37.9 54.25 37.7 54.5 36.2 54.95 35.6 54.4 33.4 52.6 32.95 52.25 31.15 50.9" fill="#9e6609" fill-rule="evenodd" stroke="none"/>
      <path d="M41.75 57.3 L39.05 57.3 37.55 55.95 39.55 55.55 41.5 57.1 41.75 57.3 M37.9 54.25 L37.9 54.4 37.7 54.5 37.9 54.25" fill="#dba430" fill-rule="evenodd" stroke="none"/>
      <path d="M39.05 57.3 L35.5 57.3 Q36.3 56.35 37.55 55.95 L39.05 57.3 M30.8 51.05 L31.15 50.9 32.95 52.25 33.4 52.6 35.6 54.4 36.2 54.95 36.05 54.95 30.8 51.05 M30.8 54.65 L27.85 52.6 24.95 50.6 24.8 50.3 26.45 49.85 27.2 50.45 30.8 54.65" fill="#272c56" fill-rule="evenodd" stroke="none"/>
      <path d="M33.4 57.3 L33.15 57.3 33.75 56.8 33.4 57.3 M33.05 57.3 L32.0 57.3 22.95 51.45 22.7 50.9 22.85 50.85 23.55 51.55 23.5 50.6 24.95 50.6 27.85 52.6 30.8 54.65 33.05 57.3" fill="#fce03f" fill-rule="evenodd" stroke="none"/>
      <path d="M32.0 57.3 L25.7 57.3 24.05 56.25 23.85 56.1 23.4 56.35 23.0 52.6 22.95 52.45 22.95 51.45 32.0 57.3" fill="url(#gradient14)" fill-rule="evenodd" stroke="none"/>
      <path d="M22.1 57.3 L19.65 57.3 19.85 56.95 Q21.1 55.2 22.25 54.65 L22.3 54.65 22.4 52.6 22.5 51.05 22.95 51.45 22.95 52.45 23.0 52.6 23.4 56.35 22.1 57.3" fill="#b97514" fill-rule="evenodd" stroke="none"/>
      <path d="M19.65 57.3 L16.2 57.3 18.05 53.5 22.5 51.05 22.4 52.6 22.3 54.65 22.25 54.65 Q21.1 55.2 19.85 56.95 L19.65 57.3" fill="url(#gradient15)" fill-rule="evenodd" stroke="none"/>
      <path d="M25.7 57.3 L22.1 57.3 23.4 56.35 23.85 56.1 24.05 56.25 25.7 57.3" fill="#7799d9" fill-rule="evenodd" stroke="none"/>
      <path d="M49.95 57.3 L48.0 57.3 48.4 54.7 49.8 56.6 49.95 56.75 49.95 57.3 M45.45 57.3 L42.7 57.3 42.9 56.1 Q44.2 56.5 45.45 57.3 M42.8 53.85 L43.9 52.95 44.45 52.6 Q45.35 52.0 46.3 52.0 L46.4 52.0 46.4 52.1 46.7 52.45 44.45 55.55 44.35 55.55 43.1 54.95 43.2 54.35 43.05 54.15 42.8 53.85" fill="#fefefe" fill-rule="evenodd" stroke="none"/>
      <path d="M-1.9 48.2 L-1.9 47.65 -1.2 47.75 -1.9 48.2" fill="#0b2770" fill-rule="evenodd" stroke="none"/>
      <path d="M-1.3 57.3 L-1.9 57.3 -1.9 56.4 -1.65 55.35 Q-1.65 54.7 -1.9 54.2 L-1.9 52.35 -1.7 52.6 -1.35 53.55 -1.25 53.8 Q-0.95 55.3 -1.3 57.3" fill="#3efbf0" fill-rule="evenodd" stroke="none"/>
      <path d="M-1.9 56.4 L-1.9 54.2 Q-1.65 54.7 -1.65 55.35 L-1.9 56.4" fill="#fdfdfe" fill-rule="evenodd" stroke="none"/>
      <path d="M2.75 -0.95 L-1.9 8.3 -1.9 -0.95 2.75 -0.95" fill="url(#gradient16)" fill-rule="evenodd" stroke="none"/>
      <path d="M23.25 10.9 Q24.5 5.05 27.05 -0.15 L27.15 -0.05 27.6 0.5 30.95 4.05 M35.9 10.95 L35.75 10.7 M22.85 13.2 L22.95 12.65 23.25 10.9" fill="none" stroke="#6d2807" stroke-linecap="round" stroke-linejoin="round" stroke-width="0.5"/>
      <path d="M22.15 -0.95 L22.1 -0.55 22.15 4.75 Q22.25 8.65 22.8 12.45 L22.85 13.2 M28.95 -0.95 L32.0 4.3 M35.75 10.65 L35.9 10.95 36.0 11.2 M47.15 23.0 L47.0 22.45 Q46.3 18.55 45.9 14.5 L45.75 13.35 45.75 13.3 Q45.05 6.55 45.05 -0.95 M45.7 -0.95 L48.8 5.9 50.7 9.7 Q52.7 13.45 54.9 16.75 M11.85 21.6 L11.85 21.5 9.0 16.6 5.85 10.8 M47.15 23.0 L47.3 24.05 Q48.45 26.0 49.15 28.2 L49.5 29.05 49.5 29.1 50.2 33.55 M22.8 12.45 L21.7 11.05 Q16.65 4.8 8.8 1.25 L7.5 0.65" fill="none" stroke="#27799f" stroke-linecap="round" stroke-linejoin="round" stroke-width="1.0"/>
      <path d="M45.75 21.35 L45.85 21.45 46.2 21.9 46.3 21.95 47.15 23.0 M42.8 17.55 L43.9 19.0 43.95 19.1 44.3 19.5 M39.8 13.5 Q38.75 14.35 38.4 16.25 M45.6 21.1 L45.75 21.35 M39.8 13.5 L40.0 13.35 42.8 17.55" fill="none" stroke="#1b3264" stroke-linecap="round" stroke-linejoin="round" stroke-width="1.0"/>
      <path d="M44.6 18.95 L45.9 16.6 45.6 20.8 45.6 21.1 45.5 21.8 45.35 23.75 45.05 27.4 Q46.0 30.05 45.9 32.3 L45.35 34.7 45.35 34.75 Q44.25 37.7 40.55 39.6 L37.75 42.85 36.5 44.15 36.05 44.65 36.0 44.65 35.9 44.7 M44.3 19.5 L44.6 18.95 M44.2 19.55 L44.3 19.5 M43.6 20.6 L44.2 19.55 M39.95 26.1 L40.55 25.8 41.65 24.0 M42.8 22.05 L43.6 20.6 M37.75 27.55 Q38.7 26.7 39.95 26.1 M35.8 31.2 Q35.1 33.9 36.15 37.65 L35.9 41.9 35.75 44.65" fill="none" stroke="#802d05" stroke-linecap="round" stroke-linejoin="round" stroke-width="1.0"/>
      <path d="M36.9 13.2 Q36.9 12.1 37.05 10.95 L37.45 7.25 Q38.0 3.2 38.15 3.8 L39.55 7.4 40.25 9.15 41.7 12.6 44.6 18.95 M45.6 20.8 L46.0 21.25" fill="none" stroke="#27799e" stroke-linecap="round" stroke-linejoin="round" stroke-width="1.0"/>
      <path d="M49.55 35.15 L49.15 36.1 48.65 37.2 48.55 37.4 48.4 37.7 M50.2 33.55 L50.5 32.85 50.55 32.75 51.2 31.05 Q53.25 25.45 54.9 19.5 M49.55 35.15 L49.55 35.1 49.7 34.6 50.1 33.75 50.2 33.55" fill="none" stroke="#692309" stroke-linecap="round" stroke-linejoin="round" stroke-width="0.5"/>
      <path d="M49.15 35.65 L49.55 35.15 M45.45 38.35 L48.1 36.7 49.15 35.65 M45.45 38.35 L44.45 38.6" fill="none" stroke="#5e1d00" stroke-linecap="round" stroke-linejoin="round" stroke-width="0.5"/>
      <path d="M39.55 25.95 L39.95 26.1 M45.9 32.3 L46.4 34.15 Q46.2 36.35 45.45 38.35 M42.5 42.05 L42.25 42.05 Q39.3 42.9 36.35 44.5 L36.05 44.65 M39.55 25.95 L38.6 25.55 M35.65 44.8 Q34.6 40.05 31.95 35.95 M35.75 44.8 L35.65 44.8 M35.8 44.7 L35.75 44.8" fill="none" stroke="#1b3264" stroke-linecap="round" stroke-linejoin="round" stroke-width="0.5"/>
      <path d="M18.35 38.95 Q17.75 39.05 17.3 39.3 14.4 37.7 12.7 33.55 M42.25 42.05 L41.25 43.0 40.5 43.55 39.95 43.95 39.4 44.3 39.4 44.4 39.0 44.8 38.3 45.5 37.35 47.5 37.05 48.1 36.75 48.5 36.45 48.9 36.2 49.15 36.15 49.2 35.8 49.3 35.5 49.45 32.35 50.55 31.15 50.9 30.8 51.05 M43.95 45.35 L44.15 43.3 44.15 43.25 M43.5 45.5 L43.8 45.4 M43.45 45.5 L43.35 45.55 42.05 46.1 40.55 46.75 39.6 47.05 M43.5 45.5 L43.45 45.5 M25.6 40.75 L25.5 40.45 25.25 38.4 25.2 37.65 25.1 36.95 25.1 36.8 24.95 35.45 24.9 35.1 24.25 33.05 23.35 30.8 M22.7 39.6 Q20.05 38.75 18.35 38.95 M23.55 39.9 L23.0 39.75 22.7 39.6 M23.55 39.9 L25.6 40.75 M26.45 49.85 Q24.55 48.1 23.15 45.85 M26.45 49.85 L27.2 50.45" fill="none" stroke="#195a9d" stroke-linecap="round" stroke-linejoin="round" stroke-width="1.0"/>
      <path d="M44.45 38.6 L43.2 40.75 42.5 42.05 42.2 42.45" fill="none" stroke="#5e1d00" stroke-linecap="round" stroke-linejoin="round" stroke-width="1.0"/>
      <path d="M42.2 42.45 L42.25 42.55 Q43.25 42.75 44.15 43.25 L44.3 43.4 44.75 43.6 Q46.75 44.85 48.0 47.25 50.2 45.95 52.1 46.05 53.55 46.05 54.9 46.75" fill="none" stroke="#692309" stroke-linecap="round" stroke-linejoin="round" stroke-width="1.0"/>
      <path d="M43.9 48.65 L42.05 46.1 M41.65 52.7 L42.8 53.85 43.05 54.15 M46.4 52.0 L45.0 50.15 43.9 48.65 M48.4 54.7 L49.8 56.6 M49.95 56.75 L49.95 57.3 M46.4 52.0 L46.4 52.1 46.7 52.45 M43.1 54.95 L43.2 54.35 M42.7 57.3 L42.9 56.1" fill="none" stroke="#e2b007" stroke-linecap="round" stroke-linejoin="round" stroke-width="0.5"/>
      <path d="M52.1 56.8 L52.1 57.3 M-1.9 36.25 L-0.95 34.0 -0.55 33.55 0.05 32.75 1.45 31.05 1.6 31.15 2.15 30.45 7.9 32.9 8.1 33.4 8.65 34.15 10.75 37.35 11.15 37.55 12.95 38.6 15.25 39.9 17.1 41.0 17.2 41.0 17.2 43.25 17.2 44.3 17.2 44.85 17.1 47.4 17.2 47.5 17.65 48.35 M43.35 45.55 L46.3 48.9 47.15 49.85 47.85 50.7 47.95 50.75 M0.75 32.2 L1.6 31.15 M6.5 35.45 L7.25 38.75 3.45 46.35 2.85 47.75 2.75 47.9 M2.45 48.5 L0.6 52.1 M0.45 52.55 L0.45 52.8 0.5 53.3 0.5 54.4 1.75 57.3 M6.5 35.45 L6.35 34.8 2.45 33.15 M36.45 49.45 L36.15 49.2 M36.7 49.65 L36.45 49.45 M37.9 54.25 L33.35 50.6 32.35 50.55 M39.55 55.55 L41.5 57.1 41.55 56.5 M41.65 56.25 L41.8 55.8 M23.5 50.6 L24.8 50.3 26.45 49.85 M22.5 51.05 L22.7 50.9 22.85 50.85 M22.5 51.05 L18.05 53.5 16.2 57.3 M18.5 50.2 L18.65 50.55 18.15 51.45 17.45 52.6 16.6 54.15 15.15 57.3 M52.1 56.8 L52.1 56.5 49.4 52.6 49.25 52.45 48.85 51.9 M41.75 57.3 L41.5 57.1" fill="none" stroke="#753406" stroke-linecap="round" stroke-linejoin="round" stroke-width="1.0"/>
      <path d="M23.0 13.6 L22.85 13.3 22.85 13.2 M23.0 13.6 L23.65 15.05 23.95 15.75 Q26.2 22.2 24.25 28.95" fill="none" stroke="#6d2807" stroke-linecap="round" stroke-linejoin="round" stroke-width="1.0"/>
      <path d="M22.3 13.3 L22.25 13.3 21.7 13.05 20.4 12.5 Q16.75 11.05 13.0 10.2 L9.45 9.55 9.85 10.55 10.15 11.25 10.6 13.05 11.0 15.3 11.15 16.15 Q11.05 17.3 11.25 18.5 11.4 20.1 11.85 21.5 M25.2 32.05 L25.2 31.65 25.25 29.95 M22.65 13.45 L23.0 13.6 M11.85 21.6 L11.85 21.65 12.25 22.65 12.3 22.85 12.4 23.05 12.4 23.2 12.55 23.6 Q13.55 27.1 15.8 28.4 16.6 28.9 17.6 29.05 L18.35 29.05 Q21.25 29.2 23.35 30.8 L23.85 31.3 24.8 32.3 25.2 32.75 25.35 33.0 25.25 32.75 25.2 32.05" fill="none" stroke="#195a9e" stroke-linecap="round" stroke-linejoin="round" stroke-width="1.0"/>
      <path d="M36.0 11.2 L36.9 13.2 37.9 15.3 38.4 16.25 39.55 18.7 39.6 18.95 39.8 20.1 39.6 21.95 39.25 23.45 38.6 25.55 37.75 27.55 37.0 29.1 35.9 31.15 35.8 31.2 Q34.5 33.3 32.8 35.1 L31.95 35.95 31.7 36.15 31.1 36.7 30.8 36.95 30.4 37.05 30.25 36.55 30.1 36.35 30.1 36.25 Q28.6 33.2 25.95 30.6 L25.25 29.95 24.25 28.95" fill="none" stroke="#4a1900" stroke-linecap="round" stroke-linejoin="round" stroke-width="1.0"/>
      <path d="M12.7 33.55 L12.6 33.45 7.95 27.8 7.5 27.1 6.75 26.0 Q2.2 19.7 -1.35 11.9 L-1.75 11.05 -1.2 11.65 3.8 16.15 Q7.9 18.7 11.85 21.6" fill="none" stroke="#902c05" stroke-linecap="round" stroke-linejoin="round" stroke-width="1.0"/>
      <path d="M14.4 34.1 L18.15 34.6 18.2 34.6 M18.2 34.45 Q17.45 31.65 16.1 29.05 L15.8 28.4 M12.7 33.55 L13.15 33.7 13.3 33.75 14.4 34.1" fill="none" stroke="#195a9d" stroke-linecap="round" stroke-linejoin="round" stroke-width="0.5"/>
      <path d="M2.4 32.85 L0.3 34.55 -1.9 40.15 M8.65 34.15 L8.65 34.4 9.5 38.8 M9.15 40.85 L5.85 47.5 M36.2 54.95 L35.6 54.4 33.4 52.6 32.95 52.25 31.15 50.9 M39.05 57.3 L37.55 55.95 M30.8 54.65 L27.85 52.6 24.95 50.6 23.5 50.6 M23.4 56.35 L23.85 56.1 M24.05 56.25 L25.7 57.3 M23.4 56.35 L22.1 57.3 M3.55 52.3 L3.25 52.95 3.3 54.0 4.75 57.3" fill="none" stroke="#753406" stroke-linecap="round" stroke-linejoin="round" stroke-width="0.5"/>
      <path d="M17.1 41.0 L17.1 40.85 17.1 40.75 17.35 39.95 17.8 39.1 18.35 38.95 M39.6 47.05 L39.6 47.25 39.6 47.95 39.7 49.2 M18.3 44.95 L18.75 45.65 20.0 47.5 21.25 49.05 22.85 50.85 23.55 51.55 23.5 50.6 23.15 45.95 23.15 45.85 M18.3 44.95 L17.8 44.25 17.2 43.25 M23.15 45.4 L23.15 45.25 Q23.15 42.15 23.95 40.5 L23.8 40.15 23.55 39.9 M36.2 49.15 L36.45 49.45 36.5 49.5 36.7 49.65 37.7 51.05 38.25 51.7 M39.95 43.95 Q39.6 45.15 39.6 47.05" fill="none" stroke="#27799d" stroke-linecap="round" stroke-linejoin="round" stroke-width="1.0"/>
      <path d="M11.6 43.45 L11.15 37.55 M13.3 46.5 L13.4 46.95 M11.85 46.8 L11.6 43.7 11.6 43.45 M12.95 38.6 L13.3 46.5 M8.9 53.55 L7.8 55.2 7.5 55.75 7.4 55.8 7.5 57.3 M9.1 57.3 L9.0 57.05 9.05 56.5 9.05 55.95 10.7 53.55" fill="none" stroke="#b87812" stroke-linecap="round" stroke-linejoin="round" stroke-width="0.5"/>
      <path d="M14.95 47.2 L15.1 44.5 15.25 39.9 M13.25 57.3 L14.65 54.4 15.5 52.6 15.5 52.55" fill="none" stroke="#d5990b" stroke-linecap="round" stroke-linejoin="round" stroke-width="0.5"/>
      <path d="M17.8 44.25 L17.65 44.4 17.2 44.85" fill="none" stroke="#252740" stroke-linecap="round" stroke-linejoin="round" stroke-width="1.0"/>
      <path d="M47.15 49.85 L48.15 50.45 M50.7 52.0 L51.5 52.4 51.9 52.6 54.5 53.95 54.9 54.15" fill="none" stroke="url(#gradient17)" stroke-linecap="round" stroke-linejoin="round" stroke-width="0.5"/>
      <path d="M52.8 57.3 L52.1 56.8" fill="none" stroke="url(#gradient18)" stroke-linecap="round" stroke-linejoin="round" stroke-width="1.0"/>
      <path d="M-1.2 47.75 L-0.9 47.6 -0.25 47.25 Q1.35 46.5 3.4 46.25 M-1.9 48.2 L-1.2 47.75" fill="none" stroke="#061438" stroke-linecap="round" stroke-linejoin="round" stroke-width="1.0"/>
      <path d="M-1.9 52.35 L-1.7 52.6 -1.35 53.55 -1.25 53.8 Q-0.95 55.3 -1.3 57.3" fill="none" stroke="#23234c" stroke-linecap="round" stroke-linejoin="round" stroke-width="0.5"/>
    </g>
    <linearGradient gradientTransform="matrix(-0.0033, -0.0467, -0.7246, 0.0514, 163.3, -43.15)" gradientUnits="userSpaceOnUse" id="gradient0" spreadMethod="pad" x1="-819.2" x2="819.2">
      <stop offset="0.00392156862745098" stop-color="#74edff"/>
      <stop offset="0.3803921568627451" stop-color="#74b6f0" stop-opacity="0.7490196"/>
      <stop offset="1.0" stop-color="#78aaff"/>
    </linearGradient>
    <linearGradient gradientTransform="matrix(-0.0537, 0.0, 0.0, 0.0421, -31.75, -17.05)" gradientUnits="userSpaceOnUse" id="gradient1" spreadMethod="pad" x1="-819.2" x2="819.2">
      <stop offset="0.00392156862745098" stop-color="#74edff"/>
      <stop offset="0.3803921568627451" stop-color="#74b6f0" stop-opacity="0.7490196"/>
      <stop offset="1.0" stop-color="#78aaff"/>
    </linearGradient>
    <linearGradient gradientTransform="matrix(-0.001, 0.0155, 0.7233, 0.0472, -161.8, 8.15)" gradientUnits="userSpaceOnUse" id="gradient2" spreadMethod="pad" x1="-819.2" x2="819.2">
      <stop offset="0.0" stop-color="#efe640"/>
      <stop offset="1.0" stop-color="#d7972e"/>
    </linearGradient>
    <linearGradient gradientTransform="matrix(-0.7266, 0.0, 0.0, 0.7266, 710.95, -180.25)" gradientUnits="userSpaceOnUse" id="gradient3" spreadMethod="pad" x1="-819.2" x2="819.2">
      <stop offset="0.0" stop-color="#dd7634"/>
      <stop offset="1.0" stop-color="#d8732b"/>
    </linearGradient>
    <linearGradient gradientTransform="matrix(-0.0032, 0.0059, 0.6374, 0.3467, -152.05, -66.5)" gradientUnits="userSpaceOnUse" id="gradient4" spreadMethod="pad" x1="-819.2" x2="819.2">
      <stop offset="0.0" stop-color="#d66c16"/>
      <stop offset="1.0" stop-color="#d3901f"/>
    </linearGradient>
    <linearGradient gradientTransform="matrix(-0.0045, 0.0179, 0.7044, 0.1758, -144.35, -16.65)" gradientUnits="userSpaceOnUse" id="gradient5" spreadMethod="pad" x1="-819.2" x2="819.2">
      <stop offset="0.0" stop-color="#ffdb48"/>
      <stop offset="1.0" stop-color="#e8a926"/>
    </linearGradient>
    <linearGradient gradientTransform="matrix(0.0025, 1.0E-4, 0.0255, -0.7261, 39.3, 264.3)" gradientUnits="userSpaceOnUse" id="gradient6" spreadMethod="pad" x1="-819.2" x2="819.2">
      <stop offset="0.0" stop-color="#bc3f13"/>
      <stop offset="1.0" stop-color="#b8450f"/>
    </linearGradient>
    <linearGradient gradientTransform="matrix(0.074, -0.0312, -0.2816, -0.6689, 184.95, 357.35)" gradientUnits="userSpaceOnUse" id="gradient7" spreadMethod="pad" x1="-819.2" x2="819.2">
      <stop offset="0.00392156862745098" stop-color="#2e43b2"/>
      <stop offset="1.0" stop-color="#273587"/>
    </linearGradient>
    <linearGradient gradientTransform="matrix(-0.0088, 0.0145, 0.6199, 0.3771, -197.95, -76.5)" gradientUnits="userSpaceOnUse" id="gradient8" spreadMethod="pad" x1="-819.2" x2="819.2">
      <stop offset="0.0" stop-color="#e89614"/>
      <stop offset="0.9921568627450981" stop-color="#ac650d"/>
    </linearGradient>
    <linearGradient gradientTransform="matrix(-0.0038, -0.005, -0.0118, 0.009, 31.25, 13.65)" gradientUnits="userSpaceOnUse" id="gradient9" spreadMethod="pad" x1="-819.2" x2="819.2">
      <stop offset="0.0" stop-color="#fad455"/>
      <stop offset="1.0" stop-color="#f5c545"/>
    </linearGradient>
    <linearGradient gradientTransform="matrix(-4.0E-4, -0.0143, -0.016, 5.0E-4, 28.75, 17.45)" gradientUnits="userSpaceOnUse" id="gradient10" spreadMethod="pad" x1="-819.2" x2="819.2">
      <stop offset="0.0" stop-color="#c1731e"/>
      <stop offset="1.0" stop-color="#f4c543"/>
    </linearGradient>
    <linearGradient gradientTransform="matrix(0.0011, 0.0077, 0.7186, -0.1049, -172.65, 59.0)" gradientUnits="userSpaceOnUse" id="gradient11" spreadMethod="pad" x1="-819.2" x2="819.2">
      <stop offset="0.0" stop-color="#802400"/>
      <stop offset="1.0" stop-color="#bb3500"/>
    </linearGradient>
    <linearGradient gradientTransform="matrix(-0.0036, -0.0061, -0.0138, 0.0081, 30.1, 18.35)" gradientUnits="userSpaceOnUse" id="gradient12" spreadMethod="pad" x1="-819.2" x2="819.2">
      <stop offset="0.0" stop-color="#c1731e"/>
      <stop offset="1.0" stop-color="#f4c543"/>
    </linearGradient>
    <linearGradient gradientTransform="matrix(-0.0083, 0.0161, 0.6443, 0.3335, -212.65, -46.25)" gradientUnits="userSpaceOnUse" id="gradient13" spreadMethod="pad" x1="-819.2" x2="819.2">
      <stop offset="0.0" stop-color="#1d3f86"/>
      <stop offset="0.5333333333333333" stop-color="#1d334b"/>
      <stop offset="0.9921568627450981" stop-color="#4c3ba5"/>
    </linearGradient>
    <linearGradient gradientTransform="matrix(-0.0072, -0.0021, -0.2036, 0.6968, 93.85, -166.05)" gradientUnits="userSpaceOnUse" id="gradient14" spreadMethod="pad" x1="-819.2" x2="819.2">
      <stop offset="0.0" stop-color="#9b5704"/>
      <stop offset="1.0" stop-color="#d48c1e"/>
    </linearGradient>
    <linearGradient gradientTransform="matrix(-0.0022, 0.0161, 0.7196, 0.0985, -232.2, 31.05)" gradientUnits="userSpaceOnUse" id="gradient15" spreadMethod="pad" x1="-819.2" x2="819.2">
      <stop offset="0.0" stop-color="#f6d03d"/>
      <stop offset="1.0" stop-color="#b97514"/>
    </linearGradient>
    <linearGradient gradientTransform="matrix(-0.0033, -0.0467, -0.7246, 0.0514, 163.3, -43.15)" gradientUnits="userSpaceOnUse" id="gradient16" spreadMethod="pad" x1="-819.2" x2="819.2">
      <stop offset="0.00392156862745098" stop-color="#74edff"/>
      <stop offset="0.3803921568627451" stop-color="#74b6f0"/>
      <stop offset="1.0" stop-color="#78aaff"/>
    </linearGradient>
    <linearGradient gradientTransform="matrix(0.1278, -0.066, -0.0799, -0.1549, 93.45, 21.2)" gradientUnits="userSpaceOnUse" id="gradient17" spreadMethod="pad" x1="-819.2" x2="819.2">
      <stop offset="0.00392156862745098" stop-color="#2f4086"/>
      <stop offset="1.0" stop-color="#1b1f5e"/>
    </linearGradient>
    <linearGradient gradientTransform="matrix(0.1098, -0.0473, -0.0689, -0.1601, 125.35, 125.95)" gradientUnits="userSpaceOnUse" id="gradient18" spreadMethod="pad" x1="-819.2" x2="819.2">
      <stop offset="0.00392156862745098" stop-color="#2f4086"/>
      <stop offset="1.0" stop-color="#1b1f5e"/>
    </linearGradient>
    <g id="shape2" transform="matrix(1.0, 0.0, 0.0, 1.0, 0.0, 0.0)">
      <path d="M50.5 0.0 Q53.95 0.0 53.95 3.3 L53.95 50.15 Q53.95 53.4 50.5 53.4 L3.3 53.4 Q0.0 53.4 0.0 50.15 L0.0 3.3 Q0.0 0.0 3.3 0.0 L50.5 0.0" fill="#000000" fill-opacity="0.003921569" fill-rule="evenodd" stroke="none"/>
    </g>
  </defs>
</svg>
