<?xml version="1.0" encoding="UTF-8" standalone="no"?>
<svg xmlns:ffdec="https://www.free-decompiler.com/flash" xmlns:xlink="http://www.w3.org/1999/xlink" ffdec:objectType="frame" height="56.85px" width="56.95px" xmlns="http://www.w3.org/2000/svg">
  <g transform="matrix(1.0, 0.0, 0.0, 1.0, 0.95, 1.95)">
    <clipPath id="clipPath0" transform="matrix(1.0, 0.0, 0.0, 1.0, 0.0, 0.0)">
      <path d="M50.5 0.0 Q53.95 0.0 53.95 3.3 L53.95 50.15 Q53.95 53.4 50.5 53.4 L3.3 53.4 Q0.0 53.4 0.0 50.15 L0.0 3.3 Q0.0 0.0 3.3 0.0 L50.5 0.0" fill="#000000" fill-rule="evenodd" stroke="none"/>
    </clipPath>
    <g clip-path="url(#clipPath0)">
      <use ffdec:characterId="2" height="56.85" transform="matrix(1.0, 0.0, 0.0, 1.0, -0.95, -1.95)" width="56.95" xlink:href="#shape1"/>
    </g>
    <use ffdec:characterId="3" height="53.4" transform="matrix(1.0, 0.0, 0.0, 1.0, 0.0, 0.0)" width="53.95" xlink:href="#shape2"/>
  </g>
  <defs>
    <g id="shape1" transform="matrix(1.0, 0.0, 0.0, 1.0, 0.95, 1.95)">
      <path d="M45.7 38.75 L46.0 41.45 Q46.0 45.45 43.85 48.0 L42.8 49.1 42.65 47.25 42.55 46.5 Q43.85 44.85 44.55 42.8 L44.6 42.7 44.65 42.5 45.7 38.75 M26.55 17.05 Q26.45 17.6 26.5 18.2 L26.5 18.45 25.2 18.1 21.0 17.7 Q17.1 17.7 12.7 18.95 L10.85 19.55 9.35 20.05 8.7 20.35 7.55 20.65 6.95 20.15 6.8 19.95 6.6 19.15 Q6.6 18.55 6.95 17.9 L7.45 18.4 7.5 18.4 7.65 18.5 8.4 18.65 12.95 17.4 13.7 17.15 Q17.25 16.15 20.8 16.15 L21.4 16.2 24.95 16.75 26.55 17.05 M22.5 19.95 Q25.05 21.55 26.05 24.4 L26.25 25.65 Q26.6 28.9 24.85 31.7 L23.4 33.3 Q22.05 34.4 20.1 34.65 17.1 35.2 14.7 33.3 L14.6 33.3 Q12.15 31.4 11.65 28.25 11.05 24.9 12.9 22.1 14.45 19.75 17.15 19.05 20.0 18.3 22.5 19.95 M6.65 34.9 L8.45 35.75 10.55 37.25 12.25 39.5 13.2 40.45 Q14.15 42.0 14.6 43.85 L14.8 45.05 14.9 46.45 Q12.7 46.35 11.7 44.5 L11.45 43.85 Q10.55 41.35 8.8 39.9 7.0 38.45 5.0 38.0 L1.8 37.45 1.3 37.35 Q0.15 36.85 0.6 36.1 L0.85 35.65 1.1 35.25 Q2.25 34.8 3.55 34.6 L6.65 34.9 M16.6 24.2 Q16.95 23.75 17.35 23.75 17.85 23.75 18.15 24.2 18.55 24.6 18.55 25.2 18.55 25.8 18.15 26.25 17.85 26.7 17.35 26.7 16.95 26.7 16.6 26.25 16.2 25.8 16.2 25.2 16.2 24.6 16.6 24.2 M16.3 23.95 Q15.2 25.2 15.2 26.95 15.2 28.7 16.3 29.95 17.4 31.2 18.95 31.2 20.45 31.2 21.6 29.95 22.7 28.7 22.7 26.95 22.7 25.2 21.6 23.95 20.45 22.7 18.95 22.7 17.4 22.7 16.3 23.95" fill="#ffffff" fill-rule="evenodd" stroke="none"/>
      <path d="M38.0 7.9 L38.65 7.95 37.5 7.4 Q32.0 4.45 31.55 -1.45 L33.85 -1.45 Q34.35 1.05 35.4 2.35 37.35 4.75 38.95 5.6 40.6 6.35 44.55 6.5 48.5 6.65 51.35 5.55 L52.25 5.05 Q54.7 3.8 55.5 1.1 L55.5 2.25 Q55.5 3.8 54.55 4.95 53.7 5.95 52.25 6.7 L49.65 7.5 49.75 8.95 49.9 10.45 49.25 10.0 Q47.9 9.4 45.8 9.4 43.2 9.4 41.25 10.75 L40.3 11.3 38.8 12.9 Q37.75 14.0 36.9 14.45 L35.65 15.15 35.05 15.45 Q33.65 16.1 31.9 16.9 30.1 18.2 30.1 21.9 30.1 27.55 37.8 32.0 36.1 31.45 34.55 30.4 31.55 28.45 29.45 25.7 L29.3 25.6 29.2 25.45 28.45 24.35 Q27.95 22.85 27.85 21.35 L27.85 20.35 Q27.85 19.25 28.15 18.25 L28.6 17.3 28.8 17.0 Q29.4 16.05 30.4 15.35 31.35 14.55 32.7 13.95 L33.6 13.65 36.05 12.55 Q37.3 11.95 37.55 11.05 L37.65 10.55 37.3 9.8 37.2 9.8 Q37.8 8.9 38.0 7.9 M45.85 31.6 L46.0 33.5 46.05 34.45 45.9 36.95 45.7 38.75 44.65 42.5 45.0 40.15 44.85 39.25 Q44.7 38.45 44.4 38.35 42.85 41.0 41.25 41.0 L40.7 40.75 40.95 40.7 43.6 36.5 44.1 35.6 44.55 34.5 44.75 34.1 45.85 31.6 M38.15 54.4 L35.35 54.4 35.45 54.3 35.65 54.05 36.85 53.0 Q38.4 51.75 39.65 51.65 39.0 52.35 38.15 54.4 M13.95 54.4 L13.25 54.4 12.95 53.95 12.05 52.75 11.55 52.2 12.2 52.65 12.3 52.75 12.5 52.95 13.95 54.4 M5.1 54.4 L1.55 54.4 1.55 53.15 1.6 52.65 1.75 51.85 2.15 50.15 Q3.35 48.8 5.4 48.3 L5.95 48.15 5.8 48.35 5.5 48.7 Q4.9 49.75 4.9 51.9 4.9 53.05 5.05 54.05 L5.1 54.35 5.1 54.4 M-0.45 32.3 L-0.45 27.1 Q0.1 27.0 0.5 26.7 L0.85 26.4 -0.45 26.25 -0.45 20.8 1.05 20.9 3.05 20.45 4.4 19.6 4.5 20.4 4.7 21.25 4.0 23.95 Q3.35 26.0 3.35 27.05 L3.5 28.65 Q3.75 29.9 4.3 31.15 5.1 33.05 6.65 34.9 L3.55 34.6 Q2.25 34.8 1.1 35.25 L0.75 35.45 0.5 34.95 0.4 34.7 -0.45 32.3 M0.95 12.55 Q3.0 10.5 6.05 9.2 8.1 8.3 10.2 7.9 7.9 9.3 6.6 11.25 5.3 13.05 4.8 15.7 4.5 14.4 3.45 13.65 2.55 12.85 0.95 12.55 M35.55 9.05 L36.9 10.3 35.95 11.25 Q34.6 12.35 32.55 13.05 L29.45 13.8 28.7 13.95 Q27.85 14.45 27.35 15.1 25.85 14.15 23.65 13.6 L18.85 12.95 Q15.15 12.95 11.05 14.85 10.35 15.15 9.8 15.5 L8.25 16.5 8.65 15.7 Q10.15 12.8 12.4 10.65 L13.0 11.25 Q13.7 11.8 15.4 11.6 L16.0 11.55 20.35 11.45 25.75 11.75 29.6 12.25 31.25 12.35 32.7 12.0 34.45 10.75 35.55 9.05 M48.8 7.7 L49.65 7.5 48.8 7.7 M43.75 8.0 L42.45 8.0 38.65 7.95 42.45 8.0 43.75 8.0 M28.7 35.1 Q29.6 34.3 30.3 34.15 29.25 34.95 28.4 37.15 L27.9 38.3 Q26.5 42.5 25.05 42.5 23.2 42.5 21.5 40.9 L23.55 41.15 25.6 38.45 Q27.4 36.2 28.7 35.1 M8.65 27.95 Q8.95 30.25 10.05 32.45 11.65 35.55 14.2 36.95 L16.05 38.5 Q15.7 38.85 15.7 39.45 15.7 40.25 17.15 41.7 18.95 43.45 21.9 45.15 26.65 47.65 33.05 49.1 L35.05 49.5 38.4 50.05 36.95 50.6 36.8 50.6 35.5 50.6 34.65 50.5 32.6 50.25 31.3 50.05 28.8 49.45 Q21.3 47.55 15.6 42.7 L13.2 40.45 12.25 39.5 10.55 37.25 Q8.35 34.1 7.3 30.25 6.5 27.05 6.6 23.4 6.6 22.1 6.75 20.85 L6.8 19.95 6.95 20.15 7.55 20.65 8.7 20.35 9.35 20.05 8.65 20.5 8.25 23.4 Q8.15 25.45 8.55 27.55 L8.65 27.95 M1.25 25.8 L0.85 26.4 1.25 25.8 M14.8 45.05 L14.6 43.85 16.0 45.1 14.8 45.05" fill="#b3445a" fill-rule="evenodd" stroke="none"/>
      <path d="M33.85 -1.45 L36.2 -1.45 Q36.85 -0.05 38.15 1.25 41.1 4.25 45.4 4.25 49.1 4.25 51.35 2.2 L52.25 1.2 52.85 0.15 53.2 -1.4 53.2 -1.45 55.15 -1.45 55.5 1.1 Q54.7 3.8 52.25 5.05 L51.35 5.55 Q48.5 6.65 44.55 6.5 40.6 6.35 38.95 5.6 37.35 4.75 35.4 2.35 34.35 1.05 33.85 -1.45 M40.8 -1.45 L49.45 -1.45 49.25 -1.2 Q48.3 -0.3 44.55 -0.3 43.35 -0.3 42.3 -0.65 L40.8 -1.45 M49.9 10.45 L50.05 13.15 50.25 15.7 Q50.35 18.65 50.05 21.25 L49.55 24.2 Q48.7 27.95 47.85 29.55 47.2 30.75 45.85 31.5 L43.25 32.35 42.8 32.4 42.7 32.45 42.55 32.45 41.65 32.55 41.35 32.55 37.8 32.0 Q30.1 27.55 30.1 21.9 30.1 18.2 31.9 16.9 33.65 16.1 35.05 15.45 L35.65 15.15 36.9 14.45 Q37.75 14.0 38.8 12.9 L40.3 11.3 41.25 10.75 Q43.2 9.4 45.8 9.4 47.9 9.4 49.25 10.0 L49.9 10.45 M42.65 52.55 Q43.7 53.2 44.75 54.4 L38.15 54.4 Q39.0 52.35 39.65 51.65 L39.85 51.65 40.2 51.7 Q41.45 51.75 42.65 52.55 M15.15 54.4 L13.95 54.4 12.5 52.95 12.3 52.75 12.2 52.65 11.55 52.2 12.05 52.75 12.95 53.95 13.25 54.4 11.45 54.4 10.75 53.35 10.55 53.05 9.2 51.6 8.4 51.35 Q7.65 51.25 7.3 51.7 6.7 52.45 6.7 53.8 L6.7 53.95 6.7 54.05 6.75 54.4 5.1 54.4 5.1 54.35 5.05 54.05 Q4.9 53.05 4.9 51.9 4.9 49.75 5.5 48.7 L5.8 48.35 5.95 48.15 8.5 47.95 8.55 47.95 8.8 48.0 10.15 48.05 12.25 48.2 12.25 48.5 Q12.25 50.05 13.3 51.8 L14.65 53.8 15.15 54.4 M0.4 54.4 L-0.45 54.4 -0.45 52.3 0.6 53.2 0.4 54.4 M-0.45 20.8 L-0.45 17.65 0.95 17.8 Q2.75 17.8 3.2 16.7 L3.2 16.2 Q3.9 15.5 3.9 14.8 L3.45 13.65 Q4.5 14.4 4.8 15.7 5.3 13.05 6.6 11.25 7.9 9.3 10.2 7.9 L16.4 7.7 17.55 7.1 Q21.0 5.4 24.6 5.4 L24.65 5.4 Q28.0 5.4 31.0 6.55 L31.4 6.7 Q33.75 7.6 35.55 9.05 L34.45 10.75 32.7 12.0 31.25 12.35 29.6 12.25 25.75 11.75 20.35 11.45 16.0 11.55 15.4 11.6 Q13.7 11.8 13.0 11.25 L12.4 10.65 Q13.6 9.5 15.05 8.5 L16.4 7.7 15.05 8.5 Q13.6 9.5 12.4 10.65 10.15 12.8 8.65 15.7 L8.25 16.5 Q7.35 17.15 6.95 17.9 6.6 18.55 6.6 19.15 L6.8 19.95 6.75 20.85 Q6.1 23.0 6.1 25.5 6.1 31.0 8.45 35.75 L6.65 34.9 Q5.1 33.05 4.3 31.15 3.75 29.9 3.5 28.65 L3.35 27.05 Q3.35 26.0 4.0 23.95 L4.7 21.25 4.5 20.4 4.4 19.6 3.05 20.45 1.05 20.9 -0.45 20.8 M47.7 14.6 L47.4 13.65 Q46.55 12.4 45.5 12.4 44.55 12.4 43.55 13.2 42.65 14.05 42.25 15.25 L41.1 16.8 40.8 17.1 39.05 18.25 38.8 18.4 Q37.2 19.3 35.95 21.1 34.65 23.2 34.65 25.3 34.65 28.0 36.7 29.35 38.35 30.4 40.75 30.4 L42.85 30.1 Q44.35 29.65 45.45 28.5 48.05 25.55 48.05 18.2 48.05 16.1 47.7 14.6 M30.3 34.15 L30.9 34.1 31.8 35.5 32.65 37.65 Q33.65 40.2 34.1 40.75 35.75 41.6 37.7 41.4 L38.0 41.4 40.7 40.75 41.25 41.0 Q42.85 41.0 44.4 38.35 44.7 38.45 44.85 39.25 L45.0 40.15 44.65 42.5 44.6 42.7 44.55 42.8 Q43.85 44.85 42.55 46.5 L40.3 48.8 39.3 49.55 38.4 50.05 35.05 49.5 33.05 49.1 Q26.65 47.65 21.9 45.15 18.95 43.45 17.15 41.7 15.7 40.25 15.7 39.45 15.7 38.85 16.05 38.5 L16.75 38.95 Q18.95 40.5 21.5 40.9 23.2 42.5 25.05 42.5 26.5 42.5 27.9 38.3 L28.4 37.15 Q29.25 34.95 30.3 34.15 M4.75 17.95 L4.8 17.6 4.8 15.7 4.8 17.6 4.75 17.95 M31.15 36.75 L30.95 36.7 30.75 36.65 Q30.2 36.65 30.0 38.2 L29.9 39.1 30.0 40.6 30.3 41.5 Q30.9 41.5 31.2 40.6 L31.5 38.75 31.45 37.6 31.15 36.75 M8.7 49.4 L11.55 52.2 8.7 49.4" fill="#dd6f85" fill-rule="evenodd" stroke="none"/>
      <path d="M36.2 -1.45 L40.8 -1.45 42.3 -0.65 Q43.35 -0.3 44.55 -0.3 48.3 -0.3 49.25 -1.2 L49.45 -1.45 53.2 -1.45 53.2 -1.4 52.85 0.15 52.25 1.2 51.35 2.2 Q49.1 4.25 45.4 4.25 41.1 4.25 38.15 1.25 36.85 -0.05 36.2 -1.45 M21.25 54.4 L16.55 54.4 15.25 53.95 15.1 54.0 15.3 54.4 15.15 54.4 14.65 53.8 13.3 51.8 Q12.25 50.05 12.25 48.5 L12.25 48.2 14.7 48.9 Q16.05 49.35 17.25 50.15 L19.35 52.0 20.95 54.0 21.25 54.4 M11.45 54.4 L6.75 54.4 6.7 54.05 6.7 53.95 6.7 53.8 Q6.7 52.45 7.3 51.7 7.65 51.25 8.4 51.35 L9.2 51.6 10.55 53.05 10.75 53.35 11.45 54.4 M-0.45 14.8 L-0.45 12.4 0.9 12.55 0.95 12.55 Q2.55 12.85 3.45 13.65 L3.9 14.8 Q3.9 15.5 3.2 16.2 3.05 15.65 2.1 15.25 0.75 14.7 -0.2 14.8 L-0.45 14.8 M47.3 18.0 L46.95 17.25 Q46.6 16.7 45.7 16.7 45.0 16.7 44.55 17.35 44.15 17.9 44.15 18.6 44.15 19.1 44.55 19.55 45.0 20.05 45.7 20.05 46.3 20.05 46.8 19.55 47.3 18.95 47.3 18.1 L47.3 18.0 M47.7 14.6 Q48.05 16.1 48.05 18.2 48.05 25.55 45.45 28.5 44.35 29.65 42.85 30.1 L40.75 30.4 Q38.35 30.4 36.7 29.35 34.65 28.0 34.65 25.3 34.65 23.2 35.95 21.1 37.2 19.3 38.8 18.4 L39.05 18.25 40.8 17.1 41.1 16.8 42.25 15.25 Q42.65 14.05 43.55 13.2 44.55 12.4 45.5 12.4 46.55 12.4 47.4 13.65 L47.7 14.6 M44.85 22.05 Q44.55 22.05 43.95 23.25 L43.5 24.4 Q42.75 26.3 42.65 27.1 L42.6 27.35 42.75 27.85 Q42.85 28.2 43.1 28.2 43.55 28.2 44.55 25.85 L44.75 25.5 45.6 23.25 45.6 22.8 Q45.5 22.05 44.85 22.05" fill="#e38a9c" fill-rule="evenodd" stroke="none"/>
      <path d="M45.85 31.5 L45.85 31.6 44.75 34.1 44.05 34.25 43.05 34.5 42.8 34.5 Q39.8 34.5 35.5 33.0 L32.45 31.8 29.9 30.8 29.45 33.3 28.7 35.1 Q27.4 36.2 25.6 38.45 L23.55 41.15 21.5 40.9 Q18.95 40.5 16.75 38.95 L16.05 38.5 14.2 36.95 Q16.85 38.35 20.45 38.05 23.95 37.75 26.35 35.1 30.2 30.85 29.3 25.6 L29.45 25.7 Q31.55 28.45 34.55 30.4 36.1 31.45 37.8 32.0 L41.35 32.55 41.65 32.55 42.55 32.45 42.7 32.45 42.8 32.4 43.25 32.35 45.85 31.5 M-0.45 52.3 L-0.45 52.0 0.7 52.75 0.6 53.2 -0.45 52.3 M-0.45 36.1 L-0.45 35.8 -0.3 36.0 -0.45 36.1 M26.5 18.45 L26.65 19.45 25.2 18.1 26.5 18.45 M10.85 19.55 Q8.75 22.15 8.55 26.0 L8.65 27.95 8.55 27.55 Q8.15 25.45 8.25 23.4 L8.65 20.5 9.35 20.05 10.85 19.55 M14.7 48.9 L14.9 47.5 14.9 46.45 14.8 45.05 16.0 45.1 Q22.2 50.05 30.45 50.3 L31.3 50.05 32.6 50.25 32.25 51.0 31.9 51.0 29.7 51.4 25.95 51.45 24.7 51.4 19.65 50.7 17.25 50.15 Q16.05 49.35 14.7 48.9" fill="#fd9802" fill-rule="evenodd" stroke="none"/>
      <path d="M16.6 24.2 Q16.2 24.6 16.2 25.2 16.2 25.8 16.6 26.25 16.95 26.7 17.35 26.7 17.85 26.7 18.15 26.25 18.55 25.8 18.55 25.2 18.55 24.6 18.15 24.2 17.85 23.75 17.35 23.75 16.95 23.75 16.6 24.2 M16.3 23.95 Q17.4 22.7 18.95 22.7 20.45 22.7 21.6 23.95 22.7 25.2 22.7 26.95 22.7 28.7 21.6 29.95 20.45 31.2 18.95 31.2 17.4 31.2 16.3 29.95 15.2 28.7 15.2 26.95 15.2 25.2 16.3 23.95" fill="#381d1d" fill-rule="evenodd" stroke="none"/>
      <path d="M30.15 -1.45 L31.55 -1.45 Q32.0 4.45 37.5 7.4 L38.65 7.95 38.0 7.9 Q33.6 7.5 31.7 6.05 30.05 4.75 30.05 1.1 L30.15 -1.45 M1.55 54.4 L0.4 54.4 0.6 53.2 0.7 52.75 0.8 52.45 1.3 51.3 2.15 50.15 1.75 51.85 1.6 52.65 1.55 53.15 1.55 54.4 M-0.45 35.8 L-0.45 32.3 0.4 34.7 0.5 34.95 0.75 35.45 Q0.2 35.65 -0.3 36.0 L-0.45 35.8 M-0.45 27.1 L-0.45 26.25 0.85 26.4 0.5 26.7 Q0.1 27.0 -0.45 27.1 M36.9 10.3 L37.2 9.8 37.3 9.8 37.65 10.55 37.55 11.05 Q37.3 11.95 36.05 12.55 L33.6 13.65 32.7 13.95 Q31.35 14.55 30.4 15.35 29.4 16.05 28.8 17.0 L28.6 17.3 28.15 18.25 Q27.85 19.25 27.85 20.35 L27.85 21.35 Q27.95 22.85 28.45 24.35 27.05 22.05 26.65 19.45 L26.5 18.45 26.5 18.2 Q26.45 17.6 26.55 17.05 26.7 15.95 27.35 15.1 27.85 14.45 28.7 13.95 L29.45 13.8 32.55 13.05 Q34.6 12.35 35.95 11.25 L36.9 10.3" fill="#de72a7" fill-rule="evenodd" stroke="none"/>
      <path d="M28.7 35.1 L29.45 33.3 29.9 30.8 32.45 31.8 35.5 33.0 Q39.8 34.5 42.8 34.5 L43.05 34.5 44.05 34.25 44.75 34.1 44.55 34.5 44.1 35.6 43.6 36.5 43.45 36.55 38.7 35.45 35.05 34.35 Q34.2 34.35 33.85 34.7 33.45 35.15 33.45 36.05 33.45 37.45 34.75 39.2 36.05 41.0 38.0 41.4 L37.7 41.4 Q35.75 41.6 34.1 40.75 33.65 40.2 32.65 37.65 L31.8 35.5 30.9 34.1 30.3 34.15 Q29.6 34.3 28.7 35.1 M32.25 51.0 L31.6 52.35 29.4 52.6 27.05 52.65 26.15 52.65 21.4 52.25 19.35 52.0 17.25 50.15 19.65 50.7 24.7 51.4 25.95 51.45 29.7 51.4 31.9 51.0 32.25 51.0" fill="#f5d66a" fill-rule="evenodd" stroke="none"/>
      <path d="M30.3 54.4 L21.25 54.4 20.95 54.0 19.35 52.0 21.4 52.25 26.15 52.65 27.05 52.65 29.4 52.6 31.6 52.35 30.3 54.4 M38.0 41.4 Q36.05 41.0 34.75 39.2 33.45 37.45 33.45 36.05 33.45 35.15 33.85 34.7 34.2 34.35 35.05 34.35 L38.7 35.45 43.45 36.55 43.6 36.5 40.95 40.7 40.7 40.75 38.0 41.4" fill="#fbebc8" fill-rule="evenodd" stroke="none"/>
      <path d="M30.65 54.4 L30.3 54.4 31.6 52.35 32.25 51.0 32.6 50.25 34.65 50.5 34.6 50.65 34.6 50.7 34.55 50.75 34.45 51.0 34.1 51.6 33.9 51.85 33.85 51.9 33.05 52.7 31.7 53.85 30.8 54.35 30.65 54.4 M-0.45 52.0 L-0.45 51.05 0.8 52.45 0.7 52.75 -0.45 52.0 M-0.45 41.8 L-0.45 36.1 -0.3 36.0 Q0.2 35.65 0.75 35.45 L1.1 35.25 0.85 35.65 0.6 36.1 Q0.15 36.85 1.3 37.35 L1.8 37.45 5.0 38.0 Q7.0 38.45 8.8 39.9 10.55 41.35 11.45 43.85 L11.7 44.5 Q12.7 46.35 14.9 46.45 L14.9 47.5 14.7 48.9 12.25 48.2 10.15 48.05 8.8 48.0 8.8 47.8 8.8 47.7 8.65 46.05 Q8.25 43.7 6.8 42.15 5.4 40.6 3.35 40.3 L2.25 40.2 Q0.8 40.2 -0.45 41.8 M27.35 15.1 Q26.7 15.95 26.55 17.05 L24.95 16.75 21.4 16.2 20.8 16.15 Q17.25 16.15 13.7 17.15 L12.95 17.4 8.4 18.65 7.65 18.5 7.5 18.4 7.45 18.4 6.95 17.9 Q7.35 17.15 8.25 16.5 L9.8 15.5 Q10.35 15.15 11.05 14.85 15.15 12.95 18.85 12.95 L23.65 13.6 Q25.85 14.15 27.35 15.1 M8.45 35.75 Q6.1 31.0 6.1 25.5 6.1 23.0 6.75 20.85 6.6 22.1 6.6 23.4 6.5 27.05 7.3 30.25 8.35 34.1 10.55 37.25 L8.45 35.75 M14.6 43.85 Q14.15 42.0 13.2 40.45 L15.6 42.7 Q21.3 47.55 28.8 49.45 L31.3 50.05 30.45 50.3 Q22.2 50.05 16.0 45.1 L14.6 43.85" fill="#cec7b4" fill-rule="evenodd" stroke="none"/>
      <path d="M26.65 19.45 Q27.05 22.05 28.45 24.35 L29.2 25.45 29.3 25.6 Q30.2 30.85 26.35 35.1 23.95 37.75 20.45 38.05 16.85 38.35 14.2 36.95 11.65 35.55 10.05 32.45 8.95 30.25 8.65 27.95 L8.55 26.0 Q8.75 22.15 10.85 19.55 L12.7 18.95 Q17.1 17.7 21.0 17.7 L25.2 18.1 26.65 19.45 M22.5 19.95 Q20.0 18.3 17.15 19.05 14.45 19.75 12.9 22.1 11.05 24.9 11.65 28.25 12.15 31.4 14.6 33.3 L14.7 33.3 Q17.1 35.2 20.1 34.65 22.05 34.4 23.4 33.3 L24.85 31.7 Q26.6 28.9 26.25 25.65 L26.05 24.4 Q25.05 21.55 22.5 19.95" fill="#776860" fill-rule="evenodd" stroke="none"/>
      <path d="M35.35 54.4 L32.7 54.4 31.7 53.85 33.05 52.7 33.85 51.9 Q34.0 52.95 34.65 53.65 L35.15 54.1 35.45 54.3 35.35 54.4 M-0.45 47.9 L-0.45 41.8 Q0.8 40.2 2.25 40.2 L3.35 40.3 Q2.85 40.5 2.55 40.85 2.05 41.55 2.05 43.25 2.05 44.85 2.95 46.35 3.85 47.85 5.4 48.3 3.35 48.8 2.15 50.15 L1.3 51.3 0.65 50.3 -0.45 47.9 M8.8 47.8 L8.8 48.0 8.55 47.95 8.8 47.8 M35.5 50.6 L36.8 50.6 36.95 50.6 38.4 50.05 39.3 49.55 39.55 50.2 39.65 50.5 40.2 51.7 39.85 51.65 39.65 51.65 Q38.4 51.75 36.85 53.0 L36.1 51.85 35.95 51.45 35.5 50.6" fill="#2b1326" fill-rule="evenodd" stroke="none"/>
      <path d="M42.8 49.1 L42.8 50.3 42.8 50.9 42.65 52.55 Q41.45 51.75 40.2 51.7 L39.65 50.5 39.55 50.2 39.3 49.55 40.3 48.8 42.55 46.5 42.65 47.25 42.8 49.1 M5.4 48.3 Q3.85 47.85 2.95 46.35 2.05 44.85 2.05 43.25 2.05 41.55 2.55 40.85 2.85 40.5 3.35 40.3 5.4 40.6 6.8 42.15 8.25 43.7 8.65 46.05 L8.8 47.7 8.8 47.8 8.55 47.95 8.5 47.95 5.95 48.15 5.4 48.3 M34.65 50.5 L35.5 50.6 35.95 51.45 36.1 51.85 36.85 53.0 35.65 54.05 35.45 54.3 35.15 54.1 34.65 53.65 Q34.0 52.95 33.85 51.9 L33.9 51.85 34.1 51.6 34.45 51.0 34.55 50.75 34.6 50.7 34.6 50.65 34.65 50.5" fill="#41243a" fill-rule="evenodd" stroke="none"/>
      <path d="M47.3 18.0 L47.3 18.1 Q47.3 18.95 46.8 19.55 46.3 20.05 45.7 20.05 45.0 20.05 44.55 19.55 44.15 19.1 44.15 18.6 44.15 17.9 44.55 17.35 45.0 16.7 45.7 16.7 46.6 16.7 46.95 17.25 L47.3 18.0 M44.85 22.05 Q45.5 22.05 45.6 22.8 L45.6 23.25 44.75 25.5 44.55 25.85 Q43.55 28.2 43.1 28.2 42.85 28.2 42.75 27.85 L42.6 27.35 42.65 27.1 Q42.75 26.3 43.5 24.4 L43.95 23.25 Q44.55 22.05 44.85 22.05" fill="#fadee4" fill-rule="evenodd" stroke="none"/>
      <path d="M16.55 54.4 L15.3 54.4 15.1 54.0 15.25 53.95 16.55 54.4 M-0.45 17.65 L-0.45 14.8 -0.2 14.8 Q0.75 14.7 2.1 15.25 3.05 15.65 3.2 16.2 L3.2 16.7 Q2.75 17.8 0.95 17.8 L-0.45 17.65" fill="#fccbd5" fill-rule="evenodd" stroke="none"/>
      <path d="M31.15 36.75 L31.45 37.6 31.5 38.75 31.2 40.6 Q30.9 41.5 30.3 41.5 L30.0 40.6 29.9 39.1 30.0 38.2 Q30.2 36.65 30.75 36.65 L30.95 36.7 31.15 36.75" fill="#eca4b2" fill-rule="evenodd" stroke="none"/>
      <path d="M32.7 54.4 L30.65 54.4 30.8 54.35 31.7 53.85 32.7 54.4" fill="#411f3a" fill-rule="evenodd" stroke="none"/>
      <path d="M-0.45 51.05 L-0.45 47.9 0.65 50.3 1.3 51.3 0.8 52.45 -0.45 51.05" fill="#3a1a32" fill-rule="evenodd" stroke="none"/>
      <path d="M38.0 7.9 L38.65 7.95 42.45 8.0 43.75 8.0 M49.65 7.5 L48.8 7.7 M37.8 32.0 L41.35 32.55 41.65 32.55 42.55 32.45 42.7 32.45 M43.25 32.35 L45.85 31.5 M28.7 35.1 Q29.6 34.3 30.3 34.15 L30.9 34.1 31.8 35.5 32.65 37.65 Q33.65 40.2 34.1 40.75 35.75 41.6 37.7 41.4 L38.0 41.4 40.7 40.75 40.95 40.7 43.6 36.5 44.1 35.6 44.55 34.5 44.75 34.1 45.85 31.6 M36.9 10.3 L35.95 11.25 Q34.6 12.35 32.55 13.05 L29.45 13.8 28.7 13.95 Q27.85 14.45 27.35 15.1 26.7 15.95 26.55 17.05 26.45 17.6 26.5 18.2 L26.5 18.45 26.65 19.45 Q27.05 22.05 28.45 24.35 L29.2 25.45 29.3 25.6 29.45 25.7 Q31.55 28.45 34.55 30.4 36.1 31.45 37.8 32.0 M25.2 18.1 L21.0 17.7 Q17.1 17.7 12.7 18.95 L10.85 19.55 9.35 20.05 8.65 20.5 8.25 23.4 Q8.15 25.45 8.55 27.55 L8.65 27.95 M27.35 15.1 Q25.85 14.15 23.65 13.6 L18.85 12.95 Q15.15 12.95 11.05 14.85 10.35 15.15 9.8 15.5 L8.25 16.5 M6.8 19.95 L6.95 20.15 7.55 20.65 8.7 20.35 9.35 20.05 M26.5 18.45 L25.2 18.1 M4.8 15.7 L4.8 17.6 4.75 17.95 M3.45 13.65 Q4.5 14.4 4.8 15.7 M0.95 12.55 Q2.55 12.85 3.45 13.65 M0.85 26.4 L1.25 25.8 M-0.45 27.1 Q0.1 27.0 0.5 26.7 L0.85 26.4 M16.05 38.5 L14.2 36.95 M21.5 40.9 Q18.95 40.5 16.75 38.95 L16.05 38.5 M28.7 35.1 Q27.4 36.2 25.6 38.45 L23.55 41.15 21.5 40.9 M11.55 52.2 L12.05 52.75 12.95 53.95 13.25 54.4 M11.55 52.2 L8.7 49.4" fill="none" stroke="#7b2c3c" stroke-linecap="round" stroke-linejoin="round" stroke-width="1.0"/>
      <path d="M10.85 19.55 Q8.75 22.15 8.55 26.0 L8.65 27.95 Q8.95 30.25 10.05 32.45 11.65 35.55 14.2 36.95 16.85 38.35 20.45 38.05 23.95 37.75 26.35 35.1 30.2 30.85 29.3 25.6 M25.2 18.1 L26.65 19.45 M22.5 19.95 Q20.0 18.3 17.15 19.05 14.45 19.75 12.9 22.1 11.05 24.9 11.65 28.25 12.15 31.4 14.6 33.3 L14.7 33.3 Q17.1 35.2 20.1 34.65 22.05 34.4 23.4 33.3 L24.85 31.7 Q26.6 28.9 26.25 25.65 L26.05 24.4 Q25.05 21.55 22.5 19.95" fill="none" stroke="#3f3530" stroke-linecap="round" stroke-linejoin="round" stroke-width="1.0"/>
      <path d="M45.7 38.75 L46.0 41.45 Q46.0 45.45 43.85 48.0 L42.8 49.1 M6.65 34.9 L8.45 35.75 Q6.1 31.0 6.1 25.5 6.1 23.0 6.75 20.85 M1.1 35.25 L0.75 35.45 Q0.2 35.65 -0.3 36.0 L-0.45 36.1 M1.1 35.25 Q2.25 34.8 3.55 34.6 L6.65 34.9 M14.7 48.9 L14.9 47.5 14.9 46.45 14.8 45.05 14.6 43.85 Q14.15 42.0 13.2 40.45 M10.55 37.25 L8.45 35.75 M16.0 45.1 L14.6 43.85 M16.0 45.1 Q22.2 50.05 30.45 50.3 L31.3 50.05 M34.65 50.5 L34.6 50.65 34.6 50.7 34.55 50.75 34.45 51.0 34.1 51.6 33.9 51.85 M31.7 53.85 L30.8 54.35 M31.7 53.85 L33.05 52.7 33.85 51.9 M0.7 52.75 L-0.45 52.0" fill="none" stroke="#747064" stroke-linecap="round" stroke-linejoin="round" stroke-width="1.0"/>
      <path d="M42.8 49.1 L42.8 50.3 42.8 50.9 42.65 52.55 M42.55 46.5 L42.65 47.25 42.8 49.1 M3.35 40.3 L2.25 40.2 Q0.8 40.2 -0.45 41.8 M8.8 47.8 L8.8 47.7 8.65 46.05 Q8.25 43.7 6.8 42.15 5.4 40.6 3.35 40.3 M8.8 48.0 L8.8 47.8 M35.5 50.6 L35.95 51.45 36.1 51.85 36.85 53.0 M-0.45 51.05 L0.8 52.45" fill="none" stroke="#200d1c" stroke-linecap="round" stroke-linejoin="round" stroke-width="1.0"/>
      <path d="M31.6 52.35 L32.25 51.0 32.6 50.25 M31.6 52.35 L30.3 54.4" fill="none" stroke="#875101" stroke-linecap="round" stroke-linejoin="round" stroke-width="1.0"/>
      <path d="M30.15 -1.45 L30.05 1.1 Q30.05 4.75 31.7 6.05 33.6 7.5 38.0 7.9 37.8 8.9 37.2 9.8 L36.9 10.3 35.55 9.05 Q33.75 7.6 31.4 6.7 L31.0 6.55 Q28.0 5.4 24.65 5.4 L24.6 5.4 Q21.0 5.4 17.55 7.1 L16.4 7.7 10.2 7.9 Q8.1 8.3 6.05 9.2 3.0 10.5 0.95 12.55 L0.9 12.55 -0.45 12.4 M55.15 -1.45 L55.5 1.1 55.5 2.25 Q55.5 3.8 54.55 4.95 53.7 5.95 52.25 6.7 L49.65 7.5 49.75 8.95 49.9 10.45 50.05 13.15 50.25 15.7 Q50.35 18.65 50.05 21.25 L49.55 24.2 Q48.7 27.95 47.85 29.55 47.2 30.75 45.85 31.5 L45.85 31.6 46.0 33.5 46.05 34.45 45.9 36.95 45.7 38.75 44.65 42.5 44.6 42.7 44.55 42.8 Q43.85 44.85 42.55 46.5 L40.3 48.8 39.3 49.55 38.4 50.05 36.95 50.6 36.8 50.6 35.5 50.6 34.65 50.5 32.6 50.25 31.3 50.05 28.8 49.45 Q21.3 47.55 15.6 42.7 L13.2 40.45 12.25 39.5 10.55 37.25 Q8.35 34.1 7.3 30.25 6.5 27.05 6.6 23.4 6.6 22.1 6.75 20.85 L6.8 19.95 6.6 19.15 Q6.6 18.55 6.95 17.9 7.35 17.15 8.25 16.5 L8.65 15.7 Q10.15 12.8 12.4 10.65 13.6 9.5 15.05 8.5 L16.4 7.7 M42.65 52.55 Q43.7 53.2 44.75 54.4 M5.95 48.15 L5.4 48.3 Q3.35 48.8 2.15 50.15 L1.3 51.3 0.8 52.45 0.7 52.75 0.6 53.2 -0.45 52.3 M8.55 47.95 L8.8 48.0 10.15 48.05 12.25 48.2 14.7 48.9 Q16.05 49.35 17.25 50.15 L19.35 52.0 20.95 54.0 21.25 54.4 M8.55 47.95 L8.5 47.95 5.95 48.15 M14.8 45.05 L16.0 45.1 M39.65 51.65 L39.85 51.65 40.2 51.7 Q41.45 51.75 42.65 52.55 M36.85 53.0 Q38.4 51.75 39.65 51.65 M35.45 54.3 L35.65 54.05 36.85 53.0 M35.45 54.3 L35.35 54.4 M0.4 54.4 L0.6 53.2 M-0.45 35.8 L-0.3 36.0" fill="none" stroke="#662331" stroke-linecap="round" stroke-linejoin="round" stroke-width="1.0"/>
    </g>
    <g id="shape2" transform="matrix(1.0, 0.0, 0.0, 1.0, 0.0, 0.0)">
      <path d="M50.5 0.0 Q53.95 0.0 53.95 3.3 L53.95 50.15 Q53.95 53.4 50.5 53.4 L3.3 53.4 Q0.0 53.4 0.0 50.15 L0.0 3.3 Q0.0 0.0 3.3 0.0 L50.5 0.0" fill="#000000" fill-opacity="0.003921569" fill-rule="evenodd" stroke="none"/>
    </g>
  </defs>
</svg>
