<?xml version="1.0" encoding="UTF-8" standalone="no"?>
<svg xmlns:ffdec="https://www.free-decompiler.com/flash" xmlns:xlink="http://www.w3.org/1999/xlink" ffdec:objectType="frame" height="56.85px" width="57.3px" xmlns="http://www.w3.org/2000/svg">
  <g transform="matrix(1.0, 0.0, 0.0, 1.0, 2.5, 1.6)">
    <clipPath id="clipPath0" transform="matrix(1.0, 0.0, 0.0, 1.0, 0.0, 0.0)">
      <path d="M50.5 0.0 Q53.95 0.0 53.95 3.3 L53.95 50.15 Q53.95 53.4 50.5 53.4 L3.3 53.4 Q0.0 53.4 0.0 50.15 L0.0 3.3 Q0.0 0.0 3.3 0.0 L50.5 0.0" fill="#000000" fill-rule="evenodd" stroke="none"/>
    </clipPath>
    <g clip-path="url(#clipPath0)">
      <use ffdec:characterId="2" height="56.85" transform="matrix(1.0, 0.0, 0.0, 1.0, -2.5, -1.6)" width="57.3" xlink:href="#shape1"/>
    </g>
    <use ffdec:characterId="3" height="53.4" transform="matrix(1.0, 0.0, 0.0, 1.0, 0.0, 0.0)" width="53.95" xlink:href="#shape2"/>
  </g>
  <defs>
    <g id="shape1" transform="matrix(1.0, 0.0, 0.0, 1.0, 2.5, 1.6)">
      <path d="M45.25 54.6 L45.2 54.75 45.0 54.75 45.25 54.6" fill="#ee5825" fill-rule="evenodd" stroke="none"/>
      <path d="M54.3 52.35 L53.8 52.5 54.05 50.1 54.3 50.05 54.3 52.35" fill="#201744" fill-rule="evenodd" stroke="none"/>
      <path d="M52.35 53.35 L53.0 53.15 53.75 52.95 54.3 52.85 54.3 54.75 50.15 54.75 50.8 53.9 51.45 53.65 52.35 53.35" fill="#0c0531" fill-rule="evenodd" stroke="none"/>
      <path d="M53.8 52.5 L54.3 52.35 54.3 52.85 53.75 52.95 53.0 53.15 52.35 53.35 52.3 53.0 53.8 52.5" fill="#413e69" fill-rule="evenodd" stroke="none"/>
      <path d="M54.05 50.1 L53.8 52.5 52.3 53.0 51.4 53.3 49.35 54.0 51.1 50.6 54.05 50.1" fill="#171642" fill-rule="evenodd" stroke="none"/>
      <path d="M52.3 53.0 L52.35 53.35 51.45 53.65 51.4 53.3 52.3 53.0" fill="#28264e" fill-rule="evenodd" stroke="none"/>
      <path d="M51.45 53.65 L50.8 53.9 50.15 54.75 49.3 54.75 49.15 54.45 49.35 54.0 51.4 53.3 51.45 53.65" fill="#34365f" fill-rule="evenodd" stroke="none"/>
      <path d="M49.15 54.45 L49.3 54.75 49.0 54.75 49.1 54.5 49.15 54.45" fill="#1e1c43" fill-rule="evenodd" stroke="none"/>
      <path d="M35.7 -1.1 L40.6 -1.1 40.7 -0.75 38.75 0.5 38.05 0.95 35.7 -1.1" fill="#0f0357" fill-rule="evenodd" stroke="none"/>
      <path d="M40.6 -1.1 L41.0 -1.1 41.05 -0.9 41.1 -0.75 40.9 -0.45 40.85 -0.3 40.7 -0.75 40.6 -1.1" fill="#764aa1" fill-rule="evenodd" stroke="none"/>
      <path d="M41.0 -1.1 L44.65 -1.1 44.45 -0.5 44.35 -0.15 44.45 0.3 42.85 1.0 41.9 1.5 41.1 -0.75 41.05 -0.9 41.0 -1.1" fill="#231459" fill-rule="evenodd" stroke="none"/>
      <path d="M40.7 4.4 L38.05 0.95 38.75 0.5 40.7 -0.75 40.85 -0.3 41.55 1.7 42.4 4.05 41.4 5.55 40.8 4.55 40.7 4.4" fill="#150756" fill-rule="evenodd" stroke="none"/>
      <path d="M40.85 -0.3 L40.9 -0.45 41.1 -0.75 41.9 1.5 42.75 3.6 43.45 5.2 44.25 7.05 44.35 7.3 45.6 10.0 44.95 10.35 44.0 7.9 43.65 7.05 42.4 4.05 41.55 1.7 40.85 -0.3" fill="#48307e" fill-rule="evenodd" stroke="none"/>
      <path d="M44.45 0.3 L45.5 5.45 45.45 5.55 44.65 6.9 44.35 7.3 44.25 7.05 43.45 5.2 42.75 3.6 41.9 1.5 42.85 1.0 44.45 0.3" fill="#2e1e5d" fill-rule="evenodd" stroke="none"/>
      <path d="M41.4 5.55 L42.4 4.05 43.65 7.05 44.0 7.9 44.95 10.35 44.15 10.75 43.95 10.9 43.35 9.4 41.4 5.55" fill="#1f0657" fill-rule="evenodd" stroke="none"/>
      <path d="M45.5 5.45 L45.55 5.6 46.55 9.3 46.75 9.85 46.05 10.35 46.0 9.75 45.6 10.0 44.35 7.3 44.65 6.9 45.45 5.55 45.5 5.45" fill="#2c1f57" fill-rule="evenodd" stroke="none"/>
      <path d="M3.0 -1.1 L11.75 -1.1 11.45 0.1 10.85 0.1 9.2 0.05 8.6 0.0 5.85 -0.3 3.0 -1.1" fill="#d42448" fill-rule="evenodd" stroke="none"/>
      <path d="M-2.0 0.35 L-2.0 -0.2 -1.3 -0.85 -1.0 -1.1 3.0 -1.1 1.3 3.65 1.25 4.0 1.25 3.6 0.75 1.95 0.05 1.1 -1.1 0.35 -2.0 0.35" fill="#f95f3a" fill-rule="evenodd" stroke="none"/>
      <path d="M3.0 -1.1 L5.85 -0.3 8.6 0.0 9.2 0.05 10.85 0.1 10.85 1.05 10.8 2.15 10.3 4.95 9.85 7.25 7.95 7.2 7.8 7.2 6.3 7.2 5.45 7.35 4.25 7.2 2.5 6.75 0.65 5.9 0.75 5.7 0.9 5.35 1.05 5.0 1.25 4.1 1.25 4.0 1.3 3.65 3.0 -1.1" fill="#fd7827" fill-rule="evenodd" stroke="none"/>
      <path d="M11.45 0.1 L11.75 -1.1 20.65 -1.1 19.9 -0.15 18.9 1.55 17.6 0.15 17.45 0.0 13.1 0.1 11.45 0.1" fill="#ee432f" fill-rule="evenodd" stroke="none"/>
      <path d="M21.2 -1.1 L21.45 -1.1 21.4 -0.9 21.2 -1.1 M23.1 -1.1 L29.0 -1.1 31.25 1.1 31.8 2.1 32.65 4.0 25.85 3.25 25.5 3.25 25.25 2.8 23.1 -1.1" fill="#ff9331" fill-rule="evenodd" stroke="none"/>
      <path d="M29.0 -1.1 L32.9 -1.1 32.95 -0.95 35.05 2.6 35.15 2.7 35.3 3.0 35.15 3.2 34.55 4.25 34.5 4.25 34.05 5.05 33.45 6.0 32.65 4.0 31.8 2.1 31.25 1.1 29.0 -1.1" fill="#ea424f" fill-rule="evenodd" stroke="none"/>
      <path d="M32.9 -1.1 L35.7 -1.1 38.05 0.95 40.7 4.4 39.4 4.15 37.0 4.55 36.85 4.6 36.1 4.9 35.9 4.45 35.3 3.0 35.15 2.7 35.05 2.6 32.95 -0.95 32.9 -1.1" fill="#ff724b" fill-rule="evenodd" stroke="none"/>
      <path d="M20.65 -1.1 L21.2 -1.1 21.4 -0.9 19.95 3.15 19.3 2.15 18.95 1.7 18.9 1.55 19.9 -0.15 20.65 -1.1" fill="#f35625" fill-rule="evenodd" stroke="none"/>
      <path d="M-2.0 3.6 L-2.0 0.35 -1.1 0.35 0.05 1.1 0.75 1.95 -0.1 2.25 -0.5 2.55 -1.35 3.5 -1.95 3.6 -2.0 3.6" fill="#ca1a5a" fill-rule="evenodd" stroke="none"/>
      <path d="M-2.0 5.85 L-2.0 4.45 -1.9 3.8 -1.95 3.6 -1.35 3.5 -0.5 2.55 -0.1 2.25 0.75 1.95 1.25 3.6 1.25 4.0 1.25 4.1 1.05 5.0 0.9 5.35 0.75 5.7 0.65 5.9 2.5 6.75 4.25 7.2 3.75 9.25 3.55 9.75 0.1 9.0 0.0 8.95 Q-0.95 8.5 -1.65 6.8 L-1.8 6.4 -2.0 5.85" fill="#df2d4f" fill-rule="evenodd" stroke="none"/>
      <path d="M-2.0 6.5 L-2.0 5.85 -1.8 6.4 -2.0 6.5 M-2.0 4.45 L-2.0 3.6 -1.95 3.6 -1.9 3.8 -2.0 4.45" fill="#ee353a" fill-rule="evenodd" stroke="none"/>
      <path d="M-2.0 18.1 L-2.0 15.4 -1.15 15.65 -1.7 18.1 -2.0 18.1" fill="#db2f31" fill-rule="evenodd" stroke="none"/>
      <path d="M-2.0 11.55 L-2.0 6.5 -1.8 6.4 -1.65 6.8 Q-0.95 8.5 0.0 8.95 L-0.55 9.6 -2.0 11.55" fill="#f4462c" fill-rule="evenodd" stroke="none"/>
      <path d="M13.35 12.75 L12.75 13.35 11.65 13.6 9.75 14.0 6.35 14.55 6.45 15.2 6.5 16.65 4.25 17.4 2.7 17.75 -1.05 18.1 -1.4 18.1 -1.7 18.1 -1.15 15.65 1.6 15.95 2.75 15.85 3.8 15.75 Q4.0 14.95 6.6 13.9 L7.25 13.7 Q10.05 12.75 13.1 12.75 L13.35 12.75" fill="#e13b2e" fill-rule="evenodd" stroke="none"/>
      <path d="M-2.0 15.4 L-2.0 11.55 -0.55 9.6 0.0 8.95 0.1 9.0 3.55 9.75 7.45 9.9 7.55 9.9 Q7.25 11.85 7.25 13.7 L6.6 13.9 Q4.0 14.95 3.8 15.75 L2.75 15.85 1.6 15.95 -1.15 15.65 -2.0 15.4" fill="#fb6421" fill-rule="evenodd" stroke="none"/>
      <path d="M36.1 4.9 L36.85 4.6 37.0 4.55 39.4 4.15 40.7 4.4 40.8 4.55 41.4 5.55 43.35 9.4 43.25 9.4 Q41.9 9.4 40.7 10.1 L39.85 10.75 Q39.45 11.15 39.3 11.65 L39.1 12.4 38.5 12.6 38.25 11.95 37.8 10.4 37.55 9.3 37.35 8.7 37.15 7.95 36.75 6.75 36.65 6.4 36.4 5.7 36.1 4.9" fill="#ff9a3e" fill-rule="evenodd" stroke="none"/>
      <path d="M43.35 9.4 L43.95 10.9 44.15 10.75 44.1 12.1 43.95 13.85 43.65 14.0 43.55 14.15 43.35 14.5 42.7 15.75 42.3 16.4 42.15 16.6 41.2 17.9 40.35 16.7 39.85 15.85 39.5 15.2 38.5 12.6 39.1 12.4 39.3 11.65 Q39.45 11.15 39.85 10.75 L40.7 10.1 Q41.9 9.4 43.25 9.4 L43.35 9.4" fill="#ffb42c" fill-rule="evenodd" stroke="none"/>
      <path d="M44.15 10.75 L44.95 10.35 45.6 10.0 46.0 9.75 46.05 10.35 45.7 10.6 Q45.55 12.05 45.55 14.8 L45.6 16.8 45.75 17.1 44.6 17.35 44.15 16.1 43.85 15.15 43.95 13.85 44.1 12.1 44.15 10.75" fill="#f75830" fill-rule="evenodd" stroke="none"/>
      <path d="M44.6 17.35 L45.75 17.1 Q46.5 18.9 47.0 21.6 L47.45 25.8 46.2 28.25 Q46.15 26.0 45.6 23.25 45.45 23.3 45.35 23.45 L40.05 26.85 39.8 27.05 39.75 26.9 39.75 26.65 41.2 23.9 41.6 22.65 42.7 21.85 43.95 21.1 44.15 22.85 44.3 22.85 Q45.2 22.65 45.6 22.15 45.45 20.2 44.6 17.4 L44.6 17.35" fill="#fe8c1a" fill-rule="evenodd" stroke="none"/>
      <path d="M41.2 17.9 L42.15 16.6 42.3 16.4 42.7 15.75 43.35 14.5 43.55 14.15 43.65 14.0 43.95 13.85 43.85 15.15 44.15 16.1 44.6 17.35 44.6 17.4 Q45.45 20.2 45.6 22.15 45.2 22.65 44.3 22.85 L44.15 22.85 43.95 21.1 43.65 20.0 42.75 19.5 42.6 19.35 41.2 17.9" fill="#ffae19" fill-rule="evenodd" stroke="none"/>
      <path d="M38.5 12.6 L39.5 15.2 39.85 15.85 40.35 16.7 41.2 17.9 42.6 19.35 42.75 19.5 43.65 20.0 43.95 21.1 42.7 21.85 41.6 22.65 41.9 21.0 39.8 19.6 38.85 18.75 38.65 18.5 37.5 17.2 36.55 15.75 36.35 14.8 36.0 13.45 38.5 12.6" fill="#fd9a23" fill-rule="evenodd" stroke="none"/>
      <path d="M41.6 22.65 L41.2 23.9 39.75 26.65 39.75 26.9 Q38.75 26.65 37.85 26.2 36.75 25.55 35.9 24.4 L35.35 23.45 35.75 22.3 35.75 21.3 Q35.75 19.9 35.2 18.0 L35.2 17.8 35.7 17.65 37.5 17.2 38.65 18.5 38.85 18.75 39.8 19.6 41.9 21.0 41.6 22.65" fill="#ffc012" fill-rule="evenodd" stroke="none"/>
      <path d="M35.3 3.0 L35.9 4.45 36.1 4.9 36.4 5.7 36.65 6.4 36.75 6.75 37.15 7.95 37.35 8.7 37.55 9.3 37.8 10.4 38.25 11.95 38.5 12.6 36.0 13.45 34.55 8.85 34.2 7.8 33.45 6.0 34.05 5.05 34.5 4.25 34.55 4.25 35.15 3.2 35.3 3.0" fill="#f97939" fill-rule="evenodd" stroke="none"/>
      <path d="M32.65 4.0 L33.45 6.0 34.2 7.8 34.55 8.85 Q33.15 9.6 31.65 10.9 L31.05 11.5 Q30.15 9.45 29.65 7.05 L29.6 7.7 Q29.6 9.75 30.3 12.25 L31.1 14.55 30.55 14.25 29.2 13.45 28.85 13.15 27.9 11.6 28.65 9.5 25.5 3.25 25.85 3.25 32.65 4.0" fill="#ffbe2b" fill-rule="evenodd" stroke="none"/>
      <path d="M37.5 17.2 L35.7 17.65 35.2 17.8 34.85 16.7 Q34.05 16.15 33.4 15.35 32.35 14.2 31.55 12.55 L31.05 11.5 31.65 10.9 Q33.15 9.6 34.55 8.85 L36.0 13.45 36.35 14.8 36.55 15.75 37.5 17.2" fill="#ffc425" fill-rule="evenodd" stroke="none"/>
      <path d="M17.75 8.35 L15.35 10.7 15.2 10.85 13.95 10.5 14.05 10.1 14.9 7.75 17.75 8.35" fill="#f97a1e" fill-rule="evenodd" stroke="none"/>
      <path d="M19.95 3.15 L18.3 7.75 17.75 8.35 14.9 7.75 12.15 7.4 12.3 7.25 Q13.0 6.25 14.7 4.85 L17.4 2.75 18.95 1.7 19.3 2.15 19.95 3.15" fill="#ffaf16" fill-rule="evenodd" stroke="none"/>
      <path d="M31.05 11.5 L31.55 12.55 Q32.35 14.2 33.4 15.35 L31.1 18.45 Q29.05 17.3 27.3 16.8 L27.15 17.25 27.0 17.95 27.85 19.5 28.45 20.55 30.95 23.0 30.85 23.85 30.15 23.15 25.5 18.0 25.25 17.7 27.15 13.35 27.9 11.6 28.85 13.15 29.2 13.45 30.55 14.25 31.1 14.55 30.3 12.25 Q29.6 9.75 29.6 7.7 L29.65 7.05 Q30.15 9.45 31.05 11.5" fill="#fe9d24" fill-rule="evenodd" stroke="none"/>
      <path d="M30.95 23.0 L28.45 20.55 27.85 19.5 27.0 17.95 27.15 17.25 27.3 16.8 Q29.05 17.3 31.1 18.45 L31.35 18.6 31.85 18.85 33.15 19.7 33.3 20.5 33.45 21.15 Q33.15 21.6 33.0 22.0 L32.6 22.7 32.8 24.4 30.95 23.0" fill="#ffc712" fill-rule="evenodd" stroke="none"/>
      <path d="M35.2 17.8 L35.2 18.0 Q35.75 19.9 35.75 21.3 L35.75 22.3 34.25 22.6 Q33.45 22.6 33.05 22.1 L33.0 22.0 Q33.15 21.6 33.45 21.15 L33.3 20.5 33.15 19.7 31.85 18.85 31.35 18.6 31.1 18.45 33.4 15.35 Q34.05 16.15 34.85 16.7 L35.2 17.8" fill="#fea51f" fill-rule="evenodd" stroke="none"/>
      <path d="M39.75 26.9 L39.8 27.05 36.85 28.8 36.85 28.85 34.4 26.9 30.85 23.85 30.95 23.0 32.8 24.4 32.6 22.7 33.0 22.0 33.05 22.1 Q33.45 22.6 34.25 22.6 L35.75 22.3 35.35 23.45 35.9 24.4 Q36.75 25.55 37.85 26.2 38.75 26.65 39.75 26.9" fill="#ffa117" fill-rule="evenodd" stroke="none"/>
      <path d="M10.85 0.1 L11.45 0.1 13.1 0.1 17.45 0.0 17.6 0.15 18.9 1.55 18.95 1.7 17.4 2.75 14.7 4.85 Q13.0 6.25 12.3 7.25 L12.15 7.4 11.5 7.35 10.95 7.3 9.85 7.25 10.3 4.95 10.8 2.15 10.85 1.05 10.85 0.1" fill="#ff9a1a" fill-rule="evenodd" stroke="none"/>
      <path d="M4.25 7.2 L5.45 7.35 6.3 7.2 7.8 7.2 7.95 7.2 9.85 7.25 10.95 7.3 11.5 7.35 12.15 7.4 14.9 7.75 14.05 10.1 13.95 10.5 12.75 10.2 11.7 10.0 10.15 9.9 8.95 9.8 8.7 9.8 7.55 9.9 7.45 9.9 3.55 9.75 3.75 9.25 4.25 7.2" fill="#f36025" fill-rule="evenodd" stroke="none"/>
      <path d="M15.2 10.85 L13.35 12.75 13.1 12.75 Q10.05 12.75 7.25 13.7 7.25 11.85 7.55 9.9 L8.7 9.8 8.95 9.8 10.15 9.9 11.7 10.0 12.75 10.2 13.95 10.5 15.2 10.85" fill="#ffa716" fill-rule="evenodd" stroke="none"/>
      <path d="M54.3 33.15 L54.3 33.75 51.85 34.7 51.6 34.85 50.9 35.05 50.5 32.2 50.75 31.95 54.3 33.15" fill="#1f2a4a" fill-rule="evenodd" stroke="none"/>
      <path d="M53.1 29.55 L53.95 31.0 54.3 31.55 54.3 32.65 52.4 32.05 51.1 31.6 53.1 29.55" fill="#344465" fill-rule="evenodd" stroke="none"/>
      <path d="M54.3 32.65 L54.3 33.15 50.75 31.95 51.1 31.6 52.4 32.05 54.3 32.65" fill="#7079a4" fill-rule="evenodd" stroke="none"/>
      <path d="M46.75 34.6 L46.8 34.6 46.75 34.6" fill="#256b84" fill-rule="evenodd" stroke="none"/>
      <path d="M50.9 35.05 L48.0 36.0 48.7 34.5 46.8 34.6 50.1 32.6 50.5 32.2 50.9 35.05" fill="#1d3f5a" fill-rule="evenodd" stroke="none"/>
      <path d="M54.3 27.35 L54.3 28.25 53.1 29.55 51.1 31.6 50.75 31.95 50.5 32.2 50.1 32.6 46.8 34.6 46.75 34.6 46.8 34.6 48.7 34.5 48.0 36.0 47.2 37.7 45.9 39.1 44.25 40.95 43.3 42.05 42.7 42.8 43.0 45.2 40.35 45.75 38.9 43.8 38.15 43.85 37.3 41.3 37.9 40.85 37.85 40.65 37.55 39.75 37.3 38.4 37.25 38.2 38.2 37.0 38.15 36.9 38.8 37.4 40.55 38.75 43.35 35.2 43.65 34.8 44.45 33.8 44.5 33.1 46.95 31.9 47.4 31.7 48.6 31.1 49.2 30.8 49.55 30.6 51.55 28.2 52.05 27.6 52.65 26.8 52.7 26.8 54.3 27.35 M10.75 54.75 L8.6 54.75 9.75 52.95 10.0 52.65 10.15 52.4 10.85 51.55 10.55 51.6 10.9 51.2 11.0 48.85 Q11.0 45.05 10.45 41.65 L10.3 40.7 9.95 38.95 9.75 38.1 7.8 34.3 9.4 32.95 11.05 31.35 13.9 28.45 13.95 31.65 13.95 32.4 13.9 40.0 13.85 40.65 13.8 42.7 13.55 47.45 13.55 47.55 13.45 48.1 Q12.95 51.15 10.75 54.75 M46.75 34.6 L44.0 36.4 40.55 38.75 44.0 36.4 46.75 34.6" fill="#2c3256" fill-rule="evenodd" stroke="none"/>
      <path d="M22.4 -1.1 L23.1 -1.1 25.25 2.8 25.5 3.25 28.65 9.5 27.9 11.6 27.15 13.35 25.25 17.7 25.5 18.0 30.15 23.15 30.85 23.85 34.4 26.9 36.85 28.85 36.85 28.8 37.5 30.95 37.65 31.35 38.5 34.1 37.1 34.3 36.5 33.75 34.45 32.1 33.75 31.5 30.7 29.15 29.35 28.1 27.45 26.7 24.5 24.45 23.9 24.15 23.65 24.0 23.4 23.85 18.45 21.3 17.5 20.8 15.5 20.7 15.55 20.65 15.6 20.55 17.8 17.45 18.6 16.25 22.9 10.2 22.9 9.15 22.75 3.9 22.7 2.8 22.5 0.25 22.4 -1.1 M46.75 9.85 L50.35 7.25 52.3 5.95 49.35 17.8 52.65 26.55 Q52.5 26.65 52.65 26.8 L52.05 27.6 51.55 28.2 49.55 30.6 49.2 30.8 48.6 31.1 47.4 31.7 46.95 31.9 44.5 33.1 44.5 32.8 44.7 30.65 44.95 27.6 45.35 23.45 Q45.45 23.3 45.6 23.25 46.15 26.0 46.2 28.25 L47.45 25.8 47.0 21.6 Q46.5 18.9 45.75 17.1 L45.6 16.8 45.55 14.8 Q45.55 12.05 45.7 10.6 L46.05 10.35 46.75 9.85 M47.2 37.7 L46.95 38.15 48.1 37.7 50.2 36.9 Q49.05 41.05 46.65 46.15 L46.65 46.2 46.0 47.55 45.5 48.6 45.15 49.2 44.3 50.4 43.75 51.05 43.55 51.25 43.4 51.4 43.1 51.5 42.9 51.55 43.1 50.95 43.3 50.0 43.35 49.6 43.35 49.25 43.0 45.65 43.0 45.2 42.7 42.8 43.3 42.05 44.25 40.95 45.9 39.1 47.2 37.7 M47.6 46.2 L49.5 45.3 Q48.25 47.3 47.25 49.45 46.65 50.8 46.4 51.7 L46.25 52.15 45.65 52.65 45.55 52.7 43.3 54.5 44.35 52.9 45.05 51.85 45.3 51.4 45.6 50.9 46.2 49.6 46.3 49.45 46.55 48.6 46.75 48.2 47.3 46.85 47.3 46.8 47.6 46.2 M41.8 54.75 L38.8 54.75 39.5 53.95 39.45 52.0 39.4 50.75 39.4 50.25 39.3 48.85 39.15 48.6 38.35 47.1 37.35 45.5 36.2 44.05 38.15 43.85 38.9 43.8 40.35 45.75 40.7 46.4 42.15 49.2 42.1 50.75 42.0 52.75 41.9 53.85 41.8 54.75 M13.5 54.75 L10.75 54.75 Q12.95 51.15 13.45 48.1 L13.55 47.55 13.55 47.45 13.8 42.7 13.85 40.65 13.9 40.0 13.95 32.4 13.95 31.65 13.9 28.45 14.55 31.6 15.85 36.45 16.35 38.3 16.45 38.65 16.85 40.0 17.35 40.3 17.35 40.85 17.25 42.1 17.2 43.9 17.15 44.75 16.65 49.75 14.05 53.9 13.5 54.75 M-2.0 44.85 L-2.0 40.65 -1.85 40.8 0.9 44.45 1.0 44.6 0.55 44.85 0.1 45.05 0.15 45.25 0.35 46.2 -0.4 45.85 -0.75 45.7 -1.6 45.4 -2.0 44.85 M-2.0 38.45 L-2.0 32.6 -0.7 34.4 -0.5 34.7 3.2 40.25 3.75 41.15 4.65 43.4 5.8 46.65 5.65 47.0 5.5 47.5 5.0 48.45 4.85 48.25 4.55 47.7 2.9 45.0 Q1.25 42.45 -0.6 40.15 L-1.95 38.5 -2.0 38.45 M-2.0 26.3 L-2.0 24.75 2.45 28.55 3.0 29.05 7.75 34.35 7.8 34.3 9.75 38.1 9.95 38.95 10.3 40.7 10.45 41.65 Q11.0 45.05 11.0 48.85 L10.9 51.2 10.55 51.6 9.7 51.9 8.9 52.1 8.4 52.3 8.25 50.3 8.2 49.95 7.45 44.35 6.6 40.8 6.3 39.55 6.05 38.65 5.25 37.0 Q3.85 34.3 1.4 30.85 L-0.35 28.45 -2.0 26.3 M18.45 40.8 L19.7 40.95 23.05 41.0 23.25 41.0 23.8 41.0 28.6 40.85 30.35 40.8 30.15 41.1 28.85 41.85 28.4 42.1 26.25 43.35 26.0 43.5 24.15 44.55 Q23.55 44.85 23.15 45.1 L21.7 45.85 21.45 46.0 18.8 47.3 18.65 44.5 18.6 42.7 18.45 40.8" fill="#7e83ba" fill-rule="evenodd" stroke="none"/>
      <path d="M21.45 -1.1 L22.4 -1.1 22.5 0.25 22.7 2.8 22.75 3.9 22.9 9.15 22.9 10.2 18.6 16.25 17.8 17.45 15.6 20.55 15.55 20.65 15.35 20.7 15.25 20.7 15.05 20.75 13.75 20.85 12.25 20.95 7.95 21.15 5.05 21.2 10.3 15.85 12.75 13.35 13.35 12.75 15.2 10.85 15.35 10.7 17.75 8.35 18.3 7.75 19.95 3.15 21.4 -0.9 21.45 -1.1 M50.2 36.9 L50.65 36.75 49.7 39.6 Q48.55 43.55 47.4 46.3 47.45 46.2 47.6 46.2 L47.3 46.8 46.75 46.3 46.65 46.2 46.65 46.15 Q49.05 41.05 50.2 36.9 M49.5 45.3 L50.65 44.8 48.85 49.05 46.8 53.45 45.85 54.1 45.6 54.3 45.25 54.6 45.0 54.75 41.8 54.75 41.9 53.85 42.0 52.75 42.1 50.75 42.15 49.2 40.7 46.4 40.35 45.75 43.0 45.2 43.0 45.65 43.35 49.25 43.35 49.6 43.3 50.0 43.1 50.95 42.9 51.55 43.1 51.5 43.4 51.4 43.55 51.25 43.75 51.05 44.3 50.4 44.75 51.3 45.05 51.85 44.35 52.9 43.3 54.5 45.55 52.7 45.65 52.65 46.25 52.15 46.4 51.7 Q46.65 50.8 47.25 49.45 48.25 47.3 49.5 45.3 M-2.0 32.6 L-2.0 26.3 -0.35 28.45 1.4 30.85 Q3.85 34.3 5.25 37.0 L6.05 38.65 6.3 39.55 6.6 40.8 7.45 44.35 8.2 49.95 8.25 50.3 8.4 52.3 7.75 52.5 6.95 49.7 6.6 48.6 5.85 46.5 5.8 46.65 4.65 43.4 3.75 41.15 3.2 40.25 -0.5 34.7 -0.7 34.4 -2.0 32.6" fill="#1d1e3d" fill-rule="evenodd" stroke="none"/>
      <path d="M44.3 50.4 L45.15 49.2 45.5 48.6 46.0 47.55 46.65 46.2 46.75 46.3 47.3 46.8 47.3 46.85 46.75 48.2 46.55 48.6 46.3 49.45 46.2 49.6 45.6 50.9 45.3 51.4 45.05 51.85 44.75 51.3 44.3 50.4" fill="#191434" fill-rule="evenodd" stroke="none"/>
      <path d="M27.15 45.75 L27.8 44.8 29.15 46.05 28.95 47.85 28.2 47.75 28.05 47.45 27.15 45.75" fill="#1f183a" fill-rule="evenodd" stroke="none"/>
      <path d="M38.8 54.75 L37.5 54.75 37.7 54.2 37.65 54.05 36.7 50.4 35.8 49.5 36.35 48.75 36.95 49.8 37.1 50.15 37.2 50.55 37.25 50.75 38.0 54.15 38.1 54.15 38.75 53.9 38.75 52.75 38.75 51.65 38.65 50.45 38.6 50.1 38.6 49.75 37.65 48.1 38.35 47.1 39.15 48.6 39.3 48.85 39.4 50.25 39.4 50.75 39.45 52.0 39.5 53.95 38.8 54.75 M-2.0 45.25 L-2.0 44.85 -1.6 45.4 -2.0 45.25 M5.05 21.2 L7.95 21.15 12.25 20.95 13.75 20.85 15.05 20.75 15.25 20.7 15.35 20.7 15.5 20.7 17.5 20.8 18.45 21.3 23.4 23.85 23.65 24.0 23.9 24.15 24.5 24.45 27.45 26.7 29.35 28.1 30.7 29.15 33.75 31.5 34.45 32.1 36.5 33.75 37.1 34.3 38.5 34.1 42.6 33.3 44.5 32.8 44.5 33.1 44.45 33.8 43.65 34.8 43.35 35.2 40.55 38.75 38.8 37.4 38.15 36.9 33.7 33.45 33.1 32.95 32.7 32.6 32.05 32.05 Q30.2 30.4 27.45 28.65 L26.45 28.0 24.6 26.95 23.3 26.2 22.95 26.1 20.9 25.5 19.75 25.2 13.75 23.6 11.7 23.1 4.85 21.4 5.05 21.2 M38.15 43.85 L36.2 44.05 36.1 43.85 34.4 43.7 33.75 43.55 34.4 43.15 35.2 42.6 35.45 42.45 35.6 42.35 35.75 42.25 37.05 41.45 37.3 41.3 38.15 43.85" fill="#13102d" fill-rule="evenodd" stroke="none"/>
      <path d="M-2.0 40.65 L-2.0 38.45 -1.95 38.5 -0.6 40.15 Q1.25 42.45 2.9 45.0 L4.55 47.7 4.85 48.25 4.45 47.85 1.1 44.6 1.0 44.6 0.9 44.45 -1.85 40.8 -2.0 40.65 M36.2 44.05 L37.35 45.5 38.35 47.1 37.65 48.1 37.05 46.95 36.4 47.15 35.65 47.45 36.35 48.75 35.8 49.5 35.2 48.95 35.05 48.85 34.05 48.05 33.25 48.3 32.0 48.65 31.7 48.55 30.55 48.2 30.05 48.1 30.5 46.3 31.4 45.35 32.45 44.5 32.6 44.35 33.0 44.1 33.4 43.8 33.75 43.55 34.4 43.7 36.1 43.85 36.2 44.05 M34.65 45.9 L35.25 46.8 36.55 46.3 35.6 44.6 Q34.7 44.95 34.35 45.25 L34.65 45.9" fill="#120926" fill-rule="evenodd" stroke="none"/>
      <path d="M30.05 48.1 L28.95 47.85 29.15 46.05 30.0 46.8 30.5 46.3 30.05 48.1" fill="#1b1b3d" fill-rule="evenodd" stroke="none"/>
      <path d="M52.3 5.95 L52.9 5.5 52.0 10.45 51.4 16.05 52.8 20.8 54.3 25.2 54.3 27.35 52.7 26.8 52.65 26.8 Q52.5 26.65 52.65 26.55 L49.35 17.8 52.3 5.95 M34.65 45.9 L34.35 45.25 Q34.7 44.95 35.6 44.6 L36.55 46.3 35.25 46.8 34.65 45.9 M36.35 48.75 L35.65 47.45 36.4 47.15 37.05 46.95 37.65 48.1 38.6 49.75 38.6 50.1 38.65 50.45 38.75 51.65 38.75 52.75 38.75 53.9 38.1 54.15 38.0 54.15 37.25 50.75 37.2 50.55 37.1 50.15 36.95 49.8 36.35 48.75" fill="#465284" fill-rule="evenodd" stroke="none"/>
      <path d="M19.9 27.55 L19.7 27.75 19.25 28.35 18.25 29.45 18.3 30.8 20.65 31.7 20.7 31.75 22.2 32.35 22.0 32.65 20.95 32.25 19.75 31.95 17.65 31.6 16.6 31.55 16.6 31.4 17.0 30.05 Q17.65 28.65 19.25 27.05 L19.9 27.55" fill="#91122f" fill-rule="evenodd" stroke="none"/>
      <path d="M20.9 25.5 L22.95 26.1 23.3 27.2 20.8 29.5 20.3 29.15 22.35 27.2 20.8 26.65 19.9 27.55 19.25 27.05 20.0 26.3 20.05 26.25 20.9 25.5" fill="#9f092f" fill-rule="evenodd" stroke="none"/>
      <path d="M19.25 28.35 L19.7 27.75 19.9 27.55 20.8 26.65 22.35 27.2 20.3 29.15 19.25 28.35" fill="#c52d2a" fill-rule="evenodd" stroke="none"/>
      <path d="M19.25 28.35 L20.3 29.15 19.25 30.1 21.35 30.55 20.7 31.75 20.65 31.7 18.3 30.8 18.25 29.45 19.25 28.35" fill="#ae123a" fill-rule="evenodd" stroke="none"/>
      <path d="M22.0 32.65 L22.2 32.35 23.8 33.0 23.8 33.1 23.85 33.75 23.85 36.9 24.6 35.95 25.3 35.05 24.7 33.25 25.2 33.0 25.95 34.9 24.7 36.9 26.7 36.45 27.4 36.3 28.2 36.05 29.75 35.5 31.5 34.85 31.7 35.65 27.85 36.7 27.8 36.75 26.9 36.95 24.25 37.55 Q24.2 37.95 24.45 38.8 L24.6 39.15 23.35 40.55 23.3 40.5 23.3 40.4 23.35 40.0 23.35 38.95 23.2 33.8 23.15 33.15 Q22.6 32.85 22.0 32.65" fill="#a10a2b" fill-rule="evenodd" stroke="none"/>
      <path d="M33.1 32.95 L33.7 33.45 33.05 34.55 32.6 35.45 31.7 35.65 31.5 34.85 32.45 34.5 32.8 33.6 33.1 32.95" fill="#c71e3b" fill-rule="evenodd" stroke="none"/>
      <path d="M32.7 32.6 L33.1 32.95 32.8 33.6 32.45 34.5 31.5 34.85 29.75 35.5 29.2 34.2 29.7 34.15 Q30.55 34.05 32.45 32.75 L32.7 32.6" fill="#210016" fill-rule="evenodd" stroke="none"/>
      <path d="M31.7 35.65 L32.6 35.45 33.05 34.55 33.45 36.6 33.0 36.55 32.25 36.55 31.2 37.2 30.45 37.7 30.7 38.75 29.5 38.05 27.8 36.75 27.85 36.7 31.7 35.65" fill="#e95d1f" fill-rule="evenodd" stroke="none"/>
      <path d="M30.7 38.75 L30.45 37.7 31.2 37.2 32.25 36.55 33.0 36.55 33.45 36.6 34.7 36.75 34.95 36.75 35.3 37.05 34.2 38.15 34.05 38.3 33.35 39.2 Q32.65 40.0 32.3 40.7 L31.85 40.4 31.6 40.2 31.7 40.0 31.85 39.6 30.95 39.7 30.7 38.75" fill="#ff801f" fill-rule="evenodd" stroke="none"/>
      <path d="M33.7 33.45 L38.15 36.9 38.2 37.0 37.25 38.2 37.3 38.4 36.4 37.8 36.25 37.7 35.3 37.05 34.95 36.75 34.7 36.75 33.45 36.6 33.05 34.55 33.7 33.45" fill="#e46228" fill-rule="evenodd" stroke="none"/>
      <path d="M22.95 26.1 L23.3 26.2 24.6 26.95 24.6 27.0 25.75 30.9 24.75 31.75 24.4 30.9 24.2 30.4 22.25 30.2 21.55 30.1 20.35 29.95 20.8 29.5 23.3 27.2 22.95 26.1" fill="#1d001b" fill-rule="evenodd" stroke="none"/>
      <path d="M20.8 29.5 L20.35 29.95 21.55 30.1 21.35 30.55 19.25 30.1 20.3 29.15 20.8 29.5" fill="#97002b" fill-rule="evenodd" stroke="none"/>
      <path d="M21.55 30.1 L22.25 30.2 24.2 30.4 24.4 30.9 24.0 31.25 23.95 31.15 21.35 30.55 21.55 30.1" fill="#aa1032" fill-rule="evenodd" stroke="none"/>
      <path d="M22.2 32.35 L20.7 31.75 21.35 30.55 23.95 31.15 24.0 31.25 24.7 33.25 23.85 33.75 23.8 33.1 23.8 33.0 22.2 32.35" fill="#e65320" fill-rule="evenodd" stroke="none"/>
      <path d="M24.7 33.25 L25.3 35.05 24.6 35.95 23.85 36.9 23.85 33.75 24.7 33.25" fill="#e84b2c" fill-rule="evenodd" stroke="none"/>
      <path d="M24.4 30.9 L24.75 31.75 25.2 33.0 24.7 33.25 24.0 31.25 24.4 30.9" fill="#c51c33" fill-rule="evenodd" stroke="none"/>
      <path d="M29.2 34.2 L29.75 35.5 28.2 36.05 27.4 36.3 26.7 36.45 24.7 36.9 25.95 34.9 25.2 33.0 24.75 31.75 25.75 30.9 25.8 31.05 26.25 32.6 26.65 34.3 27.15 34.3 29.2 34.2" fill="#1d0022" fill-rule="evenodd" stroke="none"/>
      <path d="M27.8 36.75 L29.5 38.05 30.7 38.75 30.95 39.7 28.35 39.85 28.05 39.85 26.9 36.95 27.8 36.75" fill="#ef4d1e" fill-rule="evenodd" stroke="none"/>
      <path d="M28.05 39.85 L26.0 39.9 24.95 39.9 24.6 39.15 24.45 38.8 Q24.2 37.95 24.25 37.55 L26.9 36.95 28.05 39.85" fill="#d32e2c" fill-rule="evenodd" stroke="none"/>
      <path d="M28.6 40.85 L23.8 41.0 23.35 40.55 24.6 39.15 24.95 39.9 26.0 39.9 28.05 39.85 28.35 39.85 28.6 40.85 M29.1 42.8 L29.2 43.15 30.15 43.4 30.35 42.9 Q30.4 43.9 30.75 44.4 L30.95 44.45 31.45 44.45 32.45 44.5 31.4 45.35 30.5 46.3 30.0 46.8 29.15 46.05 27.8 44.8 29.1 42.8" fill="#bc1040" fill-rule="evenodd" stroke="none"/>
      <path d="M30.15 41.1 L30.35 40.8 28.6 40.85 28.35 39.85 30.95 39.7 31.85 39.6 31.7 40.0 31.6 40.2 31.15 41.1 31.05 41.35 30.35 42.9 30.15 43.4 29.2 43.15 29.1 42.8 30.15 41.1" fill="#a6183e" fill-rule="evenodd" stroke="none"/>
      <path d="M37.3 38.4 L37.55 39.75 37.85 40.65 37.15 40.75 36.0 40.85 35.3 40.95 35.25 41.0 34.2 38.15 35.3 37.05 36.25 37.7 36.4 37.8 37.3 38.4 M36.8 40.05 Q36.8 40.5 37.05 40.55 L37.1 40.55 37.35 40.3 37.05 39.85 36.9 39.85 36.8 40.05" fill="#ff9c27" fill-rule="evenodd" stroke="none"/>
      <path d="M36.8 40.05 L36.9 39.85 37.05 39.85 37.35 40.3 37.1 40.55 37.05 40.55 Q36.8 40.5 36.8 40.05" fill="#ffc547" fill-rule="evenodd" stroke="none"/>
      <path d="M37.85 40.65 L37.9 40.85 37.3 41.3 37.05 41.45 35.75 42.25 35.3 40.95 36.0 40.85 37.15 40.75 37.85 40.65" fill="#d65c5b" fill-rule="evenodd" stroke="none"/>
      <path d="M35.25 41.0 L35.3 40.95 35.75 42.25 35.6 42.35 35.45 42.45 35.2 42.6 34.4 43.15 33.55 41.85 33.9 41.65 34.2 41.45 34.95 41.1 35.25 41.0" fill="#c8535b" fill-rule="evenodd" stroke="none"/>
      <path d="M34.2 38.15 L35.25 41.0 34.95 41.1 34.2 41.45 33.9 41.65 33.15 41.25 32.45 40.8 32.3 40.7 Q32.65 40.0 33.35 39.2 L34.05 38.3 34.2 38.15" fill="#ff8329" fill-rule="evenodd" stroke="none"/>
      <path d="M31.05 41.35 L31.15 41.1 31.6 40.2 31.85 40.4 32.3 40.7 32.45 40.8 33.15 41.25 33.9 41.65 33.55 41.85 34.4 43.15 33.75 43.55 33.4 43.8 33.3 43.65 33.15 43.4 32.35 43.35 32.15 43.1 31.45 42.1 31.05 41.35" fill="#e55032" fill-rule="evenodd" stroke="none"/>
      <path d="M30.35 42.9 L31.05 41.35 31.45 42.1 32.15 43.1 32.35 43.35 32.0 43.35 31.15 43.5 31.85 43.65 32.15 43.75 32.3 43.8 32.35 43.9 32.45 44.05 32.6 44.35 32.45 44.5 31.45 44.45 30.95 44.45 30.75 44.4 Q30.4 43.9 30.35 42.9" fill="#dc3b33" fill-rule="evenodd" stroke="none"/>
      <path d="M32.35 43.35 L33.15 43.4 33.3 43.65 33.4 43.8 33.0 44.1 32.6 44.35 32.45 44.05 32.35 43.9 32.3 43.8 32.15 43.75 31.85 43.65 31.15 43.5 32.0 43.35 32.35 43.35" fill="#b6263d" fill-rule="evenodd" stroke="none"/>
      <path d="M27.45 28.65 Q30.2 30.4 32.05 32.05 L32.7 32.6 32.45 32.75 Q30.55 34.05 29.7 34.15 L29.5 33.35 30.15 32.75 28.6 30.25 27.9 29.95 27.45 29.8 27.2 29.7 27.1 29.65 27.45 28.65" fill="#096100" fill-rule="evenodd" stroke="none"/>
      <path d="M27.9 29.95 L28.6 30.25 30.15 32.75 29.5 33.35 28.95 33.6 27.85 33.8 27.95 31.8 27.95 31.45 27.9 30.05 27.9 29.95" fill="#40de15" fill-rule="evenodd" stroke="none"/>
      <path d="M27.1 29.65 L27.2 29.7 27.45 29.8 27.9 29.95 27.9 30.05 27.95 31.45 27.95 31.8 27.85 33.8 27.75 33.8 27.05 33.65 26.65 32.05 26.2 30.5 25.9 29.3 27.1 29.65" fill="#3dd916" fill-rule="evenodd" stroke="none"/>
      <path d="M24.6 26.95 L26.45 28.0 27.45 28.65 27.1 29.65 25.9 29.3 26.2 30.5 26.65 32.05 26.25 32.6 25.8 31.05 25.75 30.9 24.6 27.0 24.6 26.95" fill="#0c590b" fill-rule="evenodd" stroke="none"/>
      <path d="M29.5 33.35 L29.7 34.15 29.2 34.2 27.15 34.3 26.65 34.3 26.25 32.6 26.65 32.05 27.05 33.65 27.75 33.8 27.85 33.8 28.95 33.6 29.5 33.35" fill="#005e00" fill-rule="evenodd" stroke="none"/>
      <path d="M10.0 52.65 L9.5 52.85 7.4 54.0 7.4 54.35 5.85 54.6 4.55 53.7 3.95 53.3 4.25 52.35 5.15 53.25 Q5.5 53.0 6.3 52.75 L6.1 49.65 5.65 49.05 5.25 49.5 5.0 49.8 4.6 49.3 3.95 48.5 4.45 47.85 4.85 48.25 5.0 48.45 5.5 47.5 6.15 48.15 6.6 48.6 6.95 49.7 7.75 52.5 8.4 52.3 8.9 52.1 9.7 51.9 10.15 52.4 10.0 52.65" fill="#fa6020" fill-rule="evenodd" stroke="none"/>
      <path d="M0.05 49.95 L-1.65 48.4 -1.9 48.15 -1.4 48.2 -0.35 47.3 0.45 46.7 0.35 46.2 0.15 45.25 0.55 44.85 1.0 44.6 1.1 44.6 4.45 47.85 3.95 48.5 3.9 48.4 2.55 47.15 1.45 47.55 2.1 48.95 1.25 49.45 0.6 49.95 0.2 49.9 0.05 49.95" fill="#ff6f26" fill-rule="evenodd" stroke="none"/>
      <path d="M2.1 48.95 L1.45 47.55 2.55 47.15 3.9 48.4 3.95 48.5 4.6 49.3 3.65 51.7 2.7 50.6 2.1 48.95" fill="#ffa024" fill-rule="evenodd" stroke="none"/>
      <path d="M0.05 49.95 L0.2 49.9 0.6 49.95 1.25 49.45 2.1 48.95 2.7 50.6 3.65 51.7 3.8 51.85 4.25 52.35 3.95 53.3 3.2 52.75 2.0 51.9 1.9 53.45 1.4 53.5 Q-0.05 53.5 -0.65 52.65 L-1.75 52.8 -1.8 51.75 -1.75 50.4 -1.15 50.15 0.05 49.95" fill="#fd7221" fill-rule="evenodd" stroke="none"/>
      <path d="M7.4 54.35 L7.35 54.75 6.05 54.75 5.85 54.6 7.4 54.35" fill="#fc5b24" fill-rule="evenodd" stroke="none"/>
      <path d="M4.25 52.35 L3.8 51.85 3.65 51.7 4.6 49.3 5.0 49.8 5.25 49.5 5.65 49.05 6.1 49.65 6.3 52.75 Q5.5 53.0 5.15 53.25 L4.25 52.35" fill="#ff9f21" fill-rule="evenodd" stroke="none"/>
      <path d="M6.05 54.75 L4.2 54.75 4.55 53.7 5.85 54.6 6.05 54.75" fill="#fc7e1a" fill-rule="evenodd" stroke="none"/>
      <path d="M4.2 54.75 L1.75 54.75 1.9 53.45 2.0 51.9 3.2 52.75 3.95 53.3 4.55 53.7 4.2 54.75" fill="#fc8f16" fill-rule="evenodd" stroke="none"/>
      <path d="M1.75 54.75 L-1.6 54.75 -1.75 52.8 -0.65 52.65 Q-0.05 53.5 1.4 53.5 L1.9 53.45 1.75 54.75" fill="#fe6925" fill-rule="evenodd" stroke="none"/>
      <path d="M-1.6 54.75 L-2.0 54.75 -2.0 52.85 -1.75 52.8 -1.6 54.75" fill="#f4402f" fill-rule="evenodd" stroke="none"/>
      <path d="M-2.0 52.85 L-2.0 48.15 -1.9 48.15 -1.65 48.4 0.05 49.95 -1.15 50.15 -1.75 50.4 -1.8 51.75 -1.75 52.8 -2.0 52.85" fill="#f54c23" fill-rule="evenodd" stroke="none"/>
      <path d="M-1.4 -1.1 L-1.0 -1.1 -1.3 -0.85 -1.4 -1.1" fill="#2d1961" fill-rule="evenodd" stroke="none"/>
      <path d="M-2.0 -0.2 L-2.0 -1.1 -1.4 -1.1 -1.3 -0.85 -2.0 -0.2" fill="#2d1d5b" fill-rule="evenodd" stroke="none"/>
      <path d="M2.7 17.75 L4.25 17.4 6.5 16.65 6.45 15.2 6.35 14.55 9.75 14.0 11.65 13.6 5.75 19.35 4.8 20.3 Q4.7 20.35 4.55 20.5 L3.5 21.6 4.45 22.0 8.35 23.45 11.35 24.25 11.8 24.4 14.15 24.9 15.05 25.1 14.2 25.1 11.65 24.9 11.2 24.8 10.3 24.7 4.15 23.75 3.0 23.55 2.8 21.15 2.75 20.95 2.65 18.5 2.7 17.75" fill="#353d61" fill-rule="evenodd" stroke="none"/>
      <path d="M-2.0 22.45 L-2.0 18.75 -1.8 18.55 -1.4 18.1 -1.05 18.1 2.7 17.75 2.65 18.5 2.75 20.95 2.8 21.15 3.0 23.55 2.8 23.5 -0.25 22.85 -1.4 22.6 -2.0 22.45" fill="#353b5f" fill-rule="evenodd" stroke="none"/>
      <path d="M12.75 13.35 L10.3 15.85 5.05 21.2 4.85 21.4 11.7 23.1 11.35 24.25 8.35 23.45 4.45 22.0 3.5 21.6 4.55 20.5 Q4.7 20.35 4.8 20.3 L5.75 19.35 11.65 13.6 12.75 13.35" fill="#232a56" fill-rule="evenodd" stroke="none"/>
      <path d="M-2.0 23.0 L-2.0 22.45 -1.4 22.6 -0.25 22.85 2.8 23.5 3.0 23.55 4.15 23.75 10.3 24.7 10.3 24.85 10.2 25.2 5.55 24.55 4.05 24.3 3.05 24.1 1.95 23.9 -1.5 23.1 -2.0 23.0" fill="#434f83" fill-rule="evenodd" stroke="none"/>
      <path d="M-2.0 23.4 L-2.0 23.0 -1.5 23.1 1.95 23.9 3.05 24.1 4.05 24.3 3.95 24.95 3.9 25.55 3.7 27.3 3.65 27.65 3.6 28.3 2.9 27.65 1.55 26.4 -2.0 23.4" fill="#1a1b49" fill-rule="evenodd" stroke="none"/>
      <path d="M4.05 24.3 L5.55 24.55 10.2 25.2 11.05 25.35 11.55 25.4 11.35 26.5 11.2 27.1 11.15 27.55 10.85 30.25 9.5 31.65 8.95 31.85 8.6 31.95 7.55 32.3 4.25 28.9 3.6 28.3 3.65 27.65 3.7 27.3 3.9 25.55 3.95 24.95 4.05 24.3" fill="#1b1d4d" fill-rule="evenodd" stroke="none"/>
      <path d="M15.35 20.7 L15.55 20.65 15.5 20.7 15.35 20.7 M11.7 23.1 L13.75 23.6 19.75 25.2 17.2 25.2 15.05 25.1 14.15 24.9 11.8 24.4 11.35 24.25 11.7 23.1" fill="#2b2958" fill-rule="evenodd" stroke="none"/>
      <path d="M11.55 25.4 L13.75 25.7 14.25 25.75 18.2 26.2 20.0 26.3 19.25 27.05 Q17.65 28.65 17.0 30.05 L16.6 31.4 15.95 31.45 15.8 31.5 15.35 30.3 14.85 29.0 14.05 27.0 10.85 30.25 11.15 27.55 11.2 27.1 11.35 26.5 11.55 25.4" fill="#1e214c" fill-rule="evenodd" stroke="none"/>
      <path d="M10.2 25.2 L10.3 24.85 10.3 24.7 11.2 24.8 11.65 24.9 14.2 25.1 15.05 25.1 17.2 25.2 19.75 25.2 20.9 25.5 20.05 26.25 20.0 26.3 18.2 26.2 14.25 25.75 13.75 25.7 11.55 25.4 11.05 25.35 10.2 25.2" fill="#454d7e" fill-rule="evenodd" stroke="none"/>
      <path d="M10.85 30.25 L14.05 27.0 14.85 29.0 15.35 30.3 15.8 31.5 15.6 31.55 14.55 31.6 13.9 28.45 11.05 31.35 9.4 32.95 8.95 31.85 9.5 31.65 10.85 30.25" fill="#0f0f2b" fill-rule="evenodd" stroke="none"/>
      <path d="M14.55 31.6 L15.6 31.55 15.8 31.5 16.6 34.15 16.65 34.35 16.8 34.85 17.5 37.45 16.35 38.3 15.85 36.45 14.55 31.6" fill="#293658" fill-rule="evenodd" stroke="none"/>
      <path d="M16.6 31.4 L16.6 31.55 17.65 31.6 18.6 33.9 Q19.1 35.0 19.75 35.8 L19.7 35.8 19.2 36.25 18.5 36.75 18.0 37.1 17.5 37.45 16.8 34.85 16.65 34.35 16.6 34.15 15.8 31.5 15.95 31.45 16.6 31.4" fill="#475884" fill-rule="evenodd" stroke="none"/>
      <path d="M19.4 36.6 L20.0 36.1 20.45 35.75 21.45 37.45 21.9 38.25 23.0 40.0 22.85 40.05 21.8 40.1 21.75 40.1 21.05 39.35 20.6 38.75 20.55 38.6 Q19.8 37.65 19.4 36.6" fill="#162141" fill-rule="evenodd" stroke="none"/>
      <path d="M18.5 36.75 L19.2 36.25 19.7 35.8 19.75 35.8 19.9 35.7 20.3 35.35 21.25 34.45 21.4 35.0 21.25 35.1 20.45 35.75 20.0 36.1 19.4 36.6 19.15 36.8 18.6 37.2 18.5 36.75" fill="#7a89b4" fill-rule="evenodd" stroke="none"/>
      <path d="M17.65 31.6 L19.75 31.95 22.05 33.35 21.65 33.9 21.25 34.45 20.3 35.35 19.9 35.7 19.75 35.8 Q19.1 35.0 18.6 33.9 L17.65 31.6" fill="#4a5b89" fill-rule="evenodd" stroke="none"/>
      <path d="M-2.0 24.75 L-2.0 23.4 1.55 26.4 2.9 27.65 2.45 28.55 -2.0 24.75" fill="#0f0b2e" fill-rule="evenodd" stroke="none"/>
      <path d="M8.95 31.85 L9.4 32.95 7.8 34.3 7.75 34.35 3.0 29.05 2.45 28.55 2.9 27.65 3.6 28.3 4.25 28.9 7.55 32.3 8.6 31.95 8.95 31.85" fill="#181f49" fill-rule="evenodd" stroke="none"/>
      <path d="M19.4 36.6 Q19.8 37.65 20.55 38.6 L20.6 38.75 21.05 39.35 21.75 40.1 20.05 39.9 20.0 39.9 19.6 39.75 19.3 39.7 18.4 38.65 17.85 38.0 17.7 37.8 18.2 37.5 18.6 37.2 19.15 36.8 19.4 36.6" fill="#192847" fill-rule="evenodd" stroke="none"/>
      <path d="M21.75 40.1 L21.8 40.1 22.85 40.05 23.0 40.0 23.35 40.0 23.3 40.4 23.3 40.5 23.25 41.0 23.05 41.0 19.7 40.95 18.45 40.8 18.3 40.8 17.85 40.55 17.55 40.4 18.4 38.65 19.3 39.7 19.6 39.75 20.0 39.9 20.05 39.9 21.75 40.1" fill="#0c3144" fill-rule="evenodd" stroke="none"/>
      <path d="M17.7 37.8 L17.85 38.0 18.4 38.65 17.55 40.4 17.35 40.3 16.85 40.0 16.45 38.65 16.55 38.6 17.35 38.1 Q17.5 37.95 17.6 37.9 L17.7 37.8" fill="#062945" fill-rule="evenodd" stroke="none"/>
      <path d="M17.5 37.45 L18.0 37.1 18.5 36.75 18.6 37.2 18.2 37.5 17.7 37.8 17.6 37.9 Q17.5 37.95 17.35 38.1 L16.55 38.6 16.45 38.65 16.35 38.3 17.5 37.45" fill="#405475" fill-rule="evenodd" stroke="none"/>
      <path d="M23.0 40.0 L21.9 38.25 21.45 37.45 20.45 35.75 21.25 35.1 21.4 35.0 23.15 33.15 23.2 33.8 23.35 38.95 23.35 40.0 23.0 40.0" fill="#181b3e" fill-rule="evenodd" stroke="none"/>
      <path d="M19.75 31.95 L20.95 32.25 22.0 32.65 Q22.6 32.85 23.15 33.15 L21.4 35.0 21.25 34.45 21.65 33.9 22.05 33.35 19.75 31.95" fill="#92a4d4" fill-rule="evenodd" stroke="none"/>
      <path d="M-2.0 18.75 L-2.0 18.1 -1.7 18.1 -1.4 18.1 -1.8 18.55 -2.0 18.75" fill="#2f3255" fill-rule="evenodd" stroke="none"/>
      <path d="M20.25 54.75 L13.5 54.75 14.05 53.9 16.65 49.75 17.15 44.75 17.2 43.9 17.25 42.1 17.35 40.85 17.35 40.3 17.55 40.4 17.85 40.55 18.3 40.8 18.45 40.8 18.6 42.7 18.65 44.5 18.8 47.3 21.45 46.0 21.7 45.85 23.15 45.1 Q23.55 44.85 24.15 44.55 L26.0 43.5 26.25 43.35 28.4 42.1 28.85 41.85 30.15 41.1 29.1 42.8 27.8 44.8 27.15 45.75 25.7 47.7 23.5 50.65 22.8 51.55 20.25 54.75 M39.8 27.05 L40.05 26.85 45.35 23.45 44.95 27.6 44.7 30.65 44.5 32.8 42.6 33.3 38.5 34.1 37.65 31.35 37.5 30.95 36.85 28.8 39.8 27.05" fill="#424f7c" fill-rule="evenodd" stroke="none"/>
      <path d="M21.65 54.75 L20.25 54.75 22.8 51.55 23.5 50.65 23.55 50.75 24.2 51.25 24.05 51.5 24.55 51.55 24.6 51.6 25.35 52.25 24.6 52.35 22.55 52.7 22.0 53.85 21.65 54.75" fill="#8a1024" fill-rule="evenodd" stroke="none"/>
      <path d="M26.85 49.95 L26.95 50.1 27.3 50.75 27.25 50.75 26.65 50.9 26.05 51.05 25.75 51.05 24.7 50.95 24.5 50.95 24.2 51.25 23.55 50.75 23.5 50.65 25.7 47.7 25.85 48.0 26.25 48.7 26.3 50.15 26.8 50.0 26.85 49.95" fill="#ad182e" fill-rule="evenodd" stroke="none"/>
      <path d="M26.85 49.95 L27.1 49.9 27.15 49.9 27.95 49.65 27.45 48.85 27.45 48.75 26.85 47.85 26.4 48.05 26.3 48.15 26.2 48.15 26.25 48.7 25.85 48.0 25.7 47.7 27.15 45.75 28.05 47.45 27.9 47.55 27.45 47.95 28.05 48.6 28.1 48.7 28.75 49.4 28.8 49.4 30.5 48.2 30.3 48.6 29.6 49.9 29.3 50.5 29.05 50.9 28.1 50.45 27.3 50.75 26.95 50.1 26.85 49.95" fill="#a01027" fill-rule="evenodd" stroke="none"/>
      <path d="M26.25 48.7 L26.2 48.15 26.3 48.15 26.4 48.05 26.85 47.85 27.45 48.75 27.45 48.85 27.95 49.65 27.15 49.9 27.1 49.9 26.85 49.95 26.8 50.0 26.3 50.15 26.25 48.7" fill="#d73425" fill-rule="evenodd" stroke="none"/>
      <path d="M30.5 48.2 L28.8 49.4 28.75 49.4 28.1 48.7 28.05 48.6 27.45 47.95 27.9 47.55 28.05 47.45 28.2 47.75 28.95 47.85 30.05 48.1 30.55 48.2 30.5 48.2" fill="#d33326" fill-rule="evenodd" stroke="none"/>
      <path d="M35.05 48.85 L35.2 48.95 35.8 49.5 36.7 50.4 37.65 54.05 36.75 53.7 36.45 53.2 35.85 52.05 34.9 50.7 34.6 50.4 34.4 50.4 33.9 50.3 32.6 50.45 32.5 50.6 32.25 50.5 34.05 49.45 35.05 48.85" fill="#a63832" fill-rule="evenodd" stroke="none"/>
      <path d="M29.05 50.9 L29.3 50.5 29.6 49.9 30.3 48.6 30.5 48.2 30.55 48.2 31.7 48.55 32.0 48.65 33.25 48.3 34.05 48.05 35.05 48.85 34.05 49.45 32.25 50.5 31.6 50.25 31.55 50.25 31.6 50.15 31.65 50.1 31.2 49.5 Q30.75 49.7 29.8 50.3 L29.85 51.05 29.65 51.1 29.05 50.9" fill="#b72b32" fill-rule="evenodd" stroke="none"/>
      <path d="M37.5 54.75 L36.9 54.75 37.05 54.25 36.75 53.7 37.65 54.05 37.7 54.2 37.5 54.75" fill="#de2a22" fill-rule="evenodd" stroke="none"/>
      <path d="M36.9 54.75 L34.1 54.75 32.2 53.95 32.05 53.55 31.9 53.25 32.3 53.15 32.5 53.15 34.1 53.0 34.5 53.0 35.05 53.05 35.65 53.1 36.25 53.15 36.45 53.2 36.75 53.7 37.05 54.25 36.9 54.75" fill="#fa6b29" fill-rule="evenodd" stroke="none"/>
      <path d="M32.5 50.6 L32.6 50.45 33.9 50.3 34.4 50.4 34.6 50.4 34.9 50.7 35.85 52.05 36.45 53.2 36.25 53.15 35.65 53.1 35.05 53.05 34.5 53.0 34.1 53.0 32.5 53.15 32.3 53.15 31.9 53.25 31.7 52.7 31.65 52.5 31.7 52.35 32.15 51.4 32.3 51.05 32.5 50.6" fill="#f75f2a" fill-rule="evenodd" stroke="none"/>
      <path d="M32.25 50.5 L32.5 50.6 32.3 51.05 32.15 51.4 31.7 52.35 31.65 52.5 31.7 52.7 31.9 53.25 32.05 53.55 31.8 53.75 31.65 53.9 31.35 53.35 31.2 53.05 29.85 52.45 29.0 52.05 28.05 52.0 27.7 51.45 28.05 51.4 28.55 51.35 28.85 51.4 30.95 52.05 30.7 51.2 30.8 51.1 31.05 50.85 31.55 50.25 31.6 50.25 32.25 50.5" fill="#b32825" fill-rule="evenodd" stroke="none"/>
      <path d="M27.3 50.75 L28.1 50.45 29.05 50.9 29.65 51.1 29.85 51.05 29.8 50.3 Q30.75 49.7 31.2 49.5 L31.65 50.1 31.6 50.15 31.55 50.25 31.05 50.85 30.8 51.1 30.7 51.2 30.95 52.05 28.85 51.4 28.55 51.35 28.05 51.4 27.7 51.45 27.4 51.5 27.4 51.55 27.25 50.75 27.3 50.75" fill="#fa6f22" fill-rule="evenodd" stroke="none"/>
      <path d="M32.55 54.75 L32.05 54.75 31.95 54.55 31.85 54.3 31.65 53.9 31.8 53.75 32.05 53.55 32.2 53.95 32.55 54.75" fill="#f34925" fill-rule="evenodd" stroke="none"/>
      <path d="M32.05 54.75 L28.05 54.75 26.7 52.05 28.05 52.0 29.0 52.05 29.85 52.45 31.2 53.05 31.35 53.35 31.65 53.9 31.85 54.3 31.95 54.55 32.05 54.75" fill="#ff8a1e" fill-rule="evenodd" stroke="none"/>
      <path d="M34.1 54.75 L32.55 54.75 32.2 53.95 34.1 54.75" fill="#fd7720" fill-rule="evenodd" stroke="none"/>
      <path d="M28.05 54.75 L25.0 54.75 24.75 53.65 24.6 52.35 25.35 52.25 25.7 52.2 26.7 52.05 28.05 54.75" fill="#fc6e22" fill-rule="evenodd" stroke="none"/>
      <path d="M24.2 51.25 L24.5 50.95 24.7 50.95 25.75 51.05 26.05 51.05 26.65 50.9 27.25 50.75 27.4 51.55 27.15 51.55 26.55 51.7 26.0 51.7 24.7 51.6 24.6 51.6 24.55 51.55 24.05 51.5 24.2 51.25" fill="#f25824" fill-rule="evenodd" stroke="none"/>
      <path d="M27.7 51.45 L28.05 52.0 26.7 52.05 25.7 52.2 25.35 52.25 24.6 51.6 24.7 51.6 26.0 51.7 26.55 51.7 27.15 51.55 27.4 51.55 27.4 51.5 27.7 51.45" fill="#c32826" fill-rule="evenodd" stroke="none"/>
      <path d="M25.0 54.75 L21.65 54.75 22.0 53.85 22.55 52.7 24.6 52.35 24.75 53.65 25.0 54.75" fill="#e43c28" fill-rule="evenodd" stroke="none"/>
      <path d="M-2.0 48.15 L-2.0 45.25 -1.6 45.4 -0.75 45.7 -0.4 45.85 0.35 46.2 0.45 46.7 -0.35 47.3 -1.4 48.2 -1.9 48.15 -2.0 48.15" fill="#1a1830" fill-rule="evenodd" stroke="none"/>
      <path d="M46.75 9.85 L50.35 7.25 52.3 5.95 52.9 5.5 52.0 10.45 51.4 16.05 52.8 20.8 54.3 25.2 M54.3 28.25 L53.1 29.55 51.1 31.6 50.75 31.95 50.5 32.2 50.1 32.6 46.8 34.6 48.7 34.5 48.0 36.0 47.2 37.7 46.95 38.15 48.1 37.7 50.2 36.9 50.65 36.75 49.7 39.6 Q48.55 43.55 47.4 46.3 47.45 46.2 47.6 46.2 L49.5 45.3 50.65 44.8 48.85 49.05 46.8 53.45 45.85 54.1 45.6 54.3 45.25 54.6 45.0 54.75 M21.45 -1.1 L21.4 -0.9 19.95 3.15 18.3 7.75 17.75 8.35 15.35 10.7 15.2 10.85 13.35 12.75 12.75 13.35 10.3 15.85 5.05 21.2 4.85 21.4 11.7 23.1 13.75 23.6 19.75 25.2 20.9 25.5 22.95 26.1 23.3 26.2 24.6 26.95 26.45 28.0 27.45 28.65 Q30.2 30.4 32.05 32.05 L32.7 32.6 33.1 32.95 33.7 33.45 38.15 36.9 38.8 37.4 40.55 38.75 44.0 36.4 46.75 34.6 46.8 34.6 M45.75 17.1 L45.6 16.8 45.55 14.8 Q45.55 12.05 45.7 10.6 L46.05 10.35 46.75 9.85 M39.8 27.05 L40.05 26.85 45.35 23.45 Q45.45 23.3 45.6 23.25 46.15 26.0 46.2 28.25 L47.45 25.8 47.0 21.6 Q46.5 18.9 45.75 17.1 M25.5 3.25 L28.65 9.5 27.9 11.6 27.15 13.35 25.25 17.7 25.5 18.0 30.15 23.15 30.85 23.85 34.4 26.9 36.85 28.85 36.85 28.8 39.8 27.05 M25.5 3.25 L25.25 2.8 23.1 -1.1 M30.05 48.1 L30.5 46.3" fill="none" stroke="#010017" stroke-linecap="round" stroke-linejoin="round" stroke-width="1.0"/>
      <path d="M-1.0 -1.1 L-1.3 -0.85 -2.0 -0.2" fill="none" stroke="#180346" stroke-linecap="round" stroke-linejoin="round" stroke-width="1.0"/>
      <path d="M44.65 -1.1 L44.45 -0.5 44.35 -0.15 44.45 0.3 45.5 5.45 45.55 5.6 46.55 9.3 46.75 9.85" fill="none" stroke="#0f003e" stroke-linecap="round" stroke-linejoin="round" stroke-width="1.0"/>
      <path d="M40.7 4.4 L38.05 0.95 35.7 -1.1 M40.7 4.4 L40.8 4.55 41.4 5.55 43.35 9.4 43.95 10.9 44.15 10.75 44.95 10.35 45.6 10.0 46.0 9.75 46.05 10.35" fill="none" stroke="#db0342" stroke-linecap="round" stroke-linejoin="round" stroke-width="1.0"/>
      <path d="M53.1 29.55 L53.95 31.0 54.3 31.55" fill="none" stroke="#0b0d26" stroke-linecap="round" stroke-linejoin="round" stroke-width="1.0"/>
      <path d="M54.3 33.75 L51.85 34.7 51.6 34.85" fill="none" stroke="#161b31" stroke-linecap="round" stroke-linejoin="round" stroke-width="1.0"/>
      <path d="M51.6 34.85 L50.9 35.05 48.0 36.0" fill="none" stroke="#133852" stroke-linecap="round" stroke-linejoin="round" stroke-width="1.0"/>
      <path d="M6.5 16.65 L6.45 15.2 6.35 14.55 9.75 14.0 11.65 13.6 12.75 13.35" fill="none" stroke="#1a0b34" stroke-linecap="round" stroke-linejoin="round" stroke-width="1.0"/>
      <path d="M-2.0 18.1 L-1.7 18.1 -1.4 18.1 -1.05 18.1 2.7 17.75 4.25 17.4 6.5 16.65" fill="none" stroke="#15122f" stroke-linecap="round" stroke-linejoin="round" stroke-width="1.0"/>
      <path d="M20.0 26.3 L20.05 26.25 20.9 25.5 M19.25 27.05 Q17.65 28.65 17.0 30.05 L16.6 31.4 16.6 31.55 M20.0 26.3 L19.25 27.05" fill="none" stroke="#160b2d" stroke-linecap="round" stroke-linejoin="round" stroke-width="1.0"/>
      <path d="M16.6 31.55 L17.65 31.6 19.75 31.95 20.95 32.25 22.0 32.65 Q22.6 32.85 23.15 33.15" fill="none" stroke="#1b2b4d" stroke-linecap="round" stroke-linejoin="round" stroke-width="1.0"/>
      <path d="M8.6 54.75 L9.75 52.95 10.0 52.65 10.15 52.4 10.85 51.55 10.55 51.6 9.7 51.9 8.9 52.1 8.4 52.3 7.75 52.5 6.95 49.7 6.6 48.6 5.85 46.5 5.8 46.65 5.65 47.0 5.5 47.5 5.0 48.45 4.85 48.25 4.45 47.85 1.1 44.6 1.0 44.6 0.55 44.85 0.1 45.05 0.15 45.25 0.35 46.2 0.45 46.7 -0.35 47.3 -1.4 48.2 -1.9 48.15 -2.0 48.15 M9.4 32.95 L11.05 31.35 13.9 28.45 14.55 31.6 15.85 36.45 16.35 38.3 16.45 38.65 16.85 40.0 17.35 40.3 17.55 40.4 17.85 40.55 18.3 40.8 18.45 40.8 19.7 40.95 23.05 41.0 23.25 41.0 23.8 41.0 28.6 40.85 30.35 40.8 30.15 41.1 29.1 42.8 27.8 44.8 27.15 45.75 25.7 47.7 23.5 50.65 22.8 51.55 20.25 54.75 M7.8 34.3 L7.75 34.35 3.0 29.05 2.45 28.55 -2.0 24.75 M9.4 32.95 L7.8 34.3" fill="none" stroke="#06001e" stroke-linecap="round" stroke-linejoin="round" stroke-width="1.0"/>
      <path d="M0.55 44.85 L0.15 45.25 M5.5 47.5 L6.15 48.15 6.6 48.6 M9.7 51.9 L10.15 52.4" fill="none" stroke="#e61115" stroke-linecap="round" stroke-linejoin="round" stroke-width="1.0"/>
      <path d="M38.15 36.9 L38.2 37.0 M23.35 40.55 L23.8 41.0 M23.3 40.5 L23.35 40.55 M30.5 46.3 L30.0 46.8 29.15 46.05 27.8 44.8 M35.2 42.6 L34.4 43.15 33.75 43.55 33.4 43.8 33.0 44.1 32.6 44.35 32.45 44.5 31.4 45.35 30.5 46.3" fill="none" stroke="#78164f" stroke-linecap="round" stroke-linejoin="round" stroke-width="1.0"/>
      <path d="M23.25 41.0 L23.3 40.5 23.3 40.4 23.35 40.0 23.35 38.95 23.2 33.8 23.15 33.15" fill="none" stroke="#110d2e" stroke-linecap="round" stroke-linejoin="round" stroke-width="1.0"/>
      <path d="M28.05 47.45 L27.15 45.75 M28.95 47.85 L30.05 48.1 30.55 48.2 31.7 48.55 32.0 48.65 33.25 48.3 34.05 48.05 35.05 48.85 35.2 48.95 35.8 49.5 36.7 50.4 37.65 54.05 37.7 54.2 M28.95 47.85 L28.2 47.75 28.05 47.45" fill="none" stroke="#1c012a" stroke-linecap="round" stroke-linejoin="round" stroke-width="1.0"/>
      <path d="M37.25 38.2 L37.3 38.4 37.55 39.75 37.85 40.65 37.9 40.85" fill="none" stroke="#cb507c" stroke-linecap="round" stroke-linejoin="round" stroke-width="1.0"/>
      <path d="M37.9 40.85 L37.3 41.3 37.05 41.45 35.75 42.25 35.6 42.35 35.45 42.45 35.2 42.6" fill="none" stroke="#854f71" stroke-linecap="round" stroke-linejoin="round" stroke-width="1.0"/>
      <path d="M38.2 37.0 L37.25 38.2" fill="none" stroke="#ad5971" stroke-linecap="round" stroke-linejoin="round" stroke-width="1.0"/>
      <path d="M37.7 54.2 L37.5 54.75" fill="none" stroke="#5e1425" stroke-linecap="round" stroke-linejoin="round" stroke-width="1.0"/>
      <path d="M7.4 54.0 L7.4 54.35 7.35 54.75" fill="none" stroke="#d52621" stroke-linecap="round" stroke-linejoin="round" stroke-width="1.0"/>
      <path d="M10.0 52.65 L9.5 52.85 7.4 54.0" fill="none" stroke="#d23643" stroke-linecap="round" stroke-linejoin="round" stroke-width="1.0"/>
      <path d="M54.3 50.05 L54.05 50.1 51.1 50.6" fill="none" stroke="#00001f" stroke-linecap="round" stroke-linejoin="round" stroke-width="1.0"/>
      <path d="M49.35 54.0 L49.15 54.45 49.1 54.5 49.0 54.75 M51.1 50.6 L49.35 54.0" fill="none" stroke="#02042b" stroke-linecap="round" stroke-linejoin="round" stroke-width="1.0"/>
      <path d="M45.25 54.6 L45.2 54.75" fill="none" stroke="#e21117" stroke-linecap="round" stroke-linejoin="round" stroke-width="1.0"/>
    </g>
    <g id="shape2" transform="matrix(1.0, 0.0, 0.0, 1.0, 0.0, 0.0)">
      <path d="M50.5 0.0 Q53.95 0.0 53.95 3.3 L53.95 50.15 Q53.95 53.4 50.5 53.4 L3.3 53.4 Q0.0 53.4 0.0 50.15 L0.0 3.3 Q0.0 0.0 3.3 0.0 L50.5 0.0" fill="#000000" fill-opacity="0.003921569" fill-rule="evenodd" stroke="none"/>
    </g>
  </defs>
</svg>
