<?xml version="1.0" encoding="UTF-8" standalone="no"?>
<svg xmlns:ffdec="https://www.free-decompiler.com/flash" xmlns:xlink="http://www.w3.org/1999/xlink" ffdec:objectType="frame" height="93.2px" width="86.8px" xmlns="http://www.w3.org/2000/svg">
  <g transform="matrix(1.0, 0.0, 0.0, 1.0, 26.55, 3.9)">
    <clipPath id="clipPath0" transform="matrix(1.0, 0.0, 0.0, 1.0, 0.0, 0.0)">
      <path d="M50.5 0.0 Q53.95 0.0 53.95 3.3 L53.95 50.15 Q53.95 53.4 50.5 53.4 L3.3 53.4 Q0.0 53.4 0.0 50.15 L0.0 3.3 Q0.0 0.0 3.3 0.0 L50.5 0.0" fill="#000000" fill-rule="evenodd" stroke="none"/>
    </clipPath>
    <g clip-path="url(#clipPath0)">
      <use ffdec:characterId="2" height="70.3" transform="matrix(1.0, 0.0, 0.0, 1.0, -1.2, -2.7)" width="57.6" xlink:href="#shape1"/>
      <filter id="filter0">
        <feConvolveMatrix divisor="25.0" in="SourceGraphic" kernelMatrix="1 1 1 1 1 1 1 1 1 1 1 1 1 1 1 1 1 1 1 1 1 1 1 1 1" order="5 5" result="filterResult0"/>
      </filter>
      <use ffdec:characterId="4" filter="url(#filter0)" height="60.75" style="mix-blend-mode: screen" transform="matrix(0.7847, 0.0098, 0.0, 0.7211, -1.3104, -1.0558)" width="52.2" xlink:href="#sprite0"/>
      <use ffdec:characterId="5" height="82.0" transform="matrix(1.0, 0.0, 0.0, 1.0, -4.9, -3.9)" width="65.15" xlink:href="#shape3"/>
      <filter id="filter1">
        <feConvolveMatrix divisor="25.0" in="SourceGraphic" kernelMatrix="1 1 1 1 1 1 1 1 1 1 1 1 1 1 1 1 1 1 1 1 1 1 1 1 1" order="5 5" result="filterResult1"/>
        <feColorMatrix in="filterResult1" result="filterResult2" type="matrix" values="0 0 0 0 1.0,0 0 0 0 0.0,0 0 0 0 0.0,0 0 0 1 0"/>
        <feConvolveMatrix divisor="900.0" in="filterResult2" kernelMatrix="1 1 1 1 1 1 1 1 1 1 1 1 1 1 1 1 1 1 1 1 1 1 1 1 1 1 1 1 1 1 1 1 1 1 1 1 1 1 1 1 1 1 1 1 1 1 1 1 1 1 1 1 1 1 1 1 1 1 1 1 1 1 1 1 1 1 1 1 1 1 1 1 1 1 1 1 1 1 1 1 1 1 1 1 1 1 1 1 1 1 1 1 1 1 1 1 1 1 1 1 1 1 1 1 1 1 1 1 1 1 1 1 1 1 1 1 1 1 1 1 1 1 1 1 1 1 1 1 1 1 1 1 1 1 1 1 1 1 1 1 1 1 1 1 1 1 1 1 1 1 1 1 1 1 1 1 1 1 1 1 1 1 1 1 1 1 1 1 1 1 1 1 1 1 1 1 1 1 1 1 1 1 1 1 1 1 1 1 1 1 1 1 1 1 1 1 1 1 1 1 1 1 1 1 1 1 1 1 1 1 1 1 1 1 1 1 1 1 1 1 1 1 1 1 1 1 1 1 1 1 1 1 1 1 1 1 1 1 1 1 1 1 1 1 1 1 1 1 1 1 1 1 1 1 1 1 1 1 1 1 1 1 1 1 1 1 1 1 1 1 1 1 1 1 1 1 1 1 1 1 1 1 1 1 1 1 1 1 1 1 1 1 1 1 1 1 1 1 1 1 1 1 1 1 1 1 1 1 1 1 1 1 1 1 1 1 1 1 1 1 1 1 1 1 1 1 1 1 1 1 1 1 1 1 1 1 1 1 1 1 1 1 1 1 1 1 1 1 1 1 1 1 1 1 1 1 1 1 1 1 1 1 1 1 1 1 1 1 1 1 1 1 1 1 1 1 1 1 1 1 1 1 1 1 1 1 1 1 1 1 1 1 1 1 1 1 1 1 1 1 1 1 1 1 1 1 1 1 1 1 1 1 1 1 1 1 1 1 1 1 1 1 1 1 1 1 1 1 1 1 1 1 1 1 1 1 1 1 1 1 1 1 1 1 1 1 1 1 1 1 1 1 1 1 1 1 1 1 1 1 1 1 1 1 1 1 1 1 1 1 1 1 1 1 1 1 1 1 1 1 1 1 1 1 1 1 1 1 1 1 1 1 1 1 1 1 1 1 1 1 1 1 1 1 1 1 1 1 1 1 1 1 1 1 1 1 1 1 1 1 1 1 1 1 1 1 1 1 1 1 1 1 1 1 1 1 1 1 1 1 1 1 1 1 1 1 1 1 1 1 1 1 1 1 1 1 1 1 1 1 1 1 1 1 1 1 1 1 1 1 1 1 1 1 1 1 1 1 1 1 1 1 1 1 1 1 1 1 1 1 1 1 1 1 1 1 1 1 1 1 1 1 1 1 1 1 1 1 1 1 1 1 1 1 1 1 1 1 1 1 1 1 1 1 1 1 1 1 1 1 1 1 1 1 1 1 1 1 1 1 1 1 1 1 1 1 1 1 1 1 1 1 1 1 1 1 1 1 1 1 1 1 1 1 1 1 1 1 1 1 1 1 1 1 1 1 1 1 1 1 1 1 1 1 1 1 1 1 1 1 1 1 1 1 1 1 1 1 1 1 1 1 1 1 1 1 1 1 1 1 1 1 1 1 1 1 1 1 1 1 1 1 1 1 1 1 1 1 1 1 1 1 1 1 1 1 1 1 1 1 1 1 1 1 1 1 1 1 1 1 1 1 1 1 1 1 1 1 1 1 1 1 1 1 1 1 1 1 1 1 1 1 1 1 1 1 1 1 1 1 1 1 1 1 1 1 1 1 1 1 1 1 1 1 1 1 1 1 1 1 1 1 1 1 1 1 1 1 1 1 1 1 1 1 1 1 1 1 1 1 1 1 1 1 1 1 1 1 1 1 1 1 1 1 1 1 1 1 1 1 1 1 1 1 1 1 1 1 1 1 1 1 1 1 1 1 1 1 1 1 1 1 1 1 1 1 1 1 1 1 1 1 1 1 1 1 1 1 1 1 1 1 1 1 1 1 1 1 1 1 1 1 1 1 1 1 1 1 1 1" order="30 30" result="filterResult3"/>
        <feComposite in="filterResult1" in2="filterResult3" operator="over" result="filterResult4"/>
      </filter>
      <use ffdec:characterId="7" filter="url(#filter1)" height="86.15" transform="matrix(0.1519, -0.1458, 0.1363, 0.1625, 28.3031, 52.5416)" width="68.55" xlink:href="#sprite1"/>
      <filter id="filter2">
        <feColorMatrix in="SourceGraphic" result="filterResult5" type="matrix" values="0 0 0 0 1.0,0 0 0 0 0.0,0 0 0 0 0.0,0 0 0 1 0"/>
        <feConvolveMatrix divisor="961.0" in="filterResult5" kernelMatrix="1 1 1 1 1 1 1 1 1 1 1 1 1 1 1 1 1 1 1 1 1 1 1 1 1 1 1 1 1 1 1 1 1 1 1 1 1 1 1 1 1 1 1 1 1 1 1 1 1 1 1 1 1 1 1 1 1 1 1 1 1 1 1 1 1 1 1 1 1 1 1 1 1 1 1 1 1 1 1 1 1 1 1 1 1 1 1 1 1 1 1 1 1 1 1 1 1 1 1 1 1 1 1 1 1 1 1 1 1 1 1 1 1 1 1 1 1 1 1 1 1 1 1 1 1 1 1 1 1 1 1 1 1 1 1 1 1 1 1 1 1 1 1 1 1 1 1 1 1 1 1 1 1 1 1 1 1 1 1 1 1 1 1 1 1 1 1 1 1 1 1 1 1 1 1 1 1 1 1 1 1 1 1 1 1 1 1 1 1 1 1 1 1 1 1 1 1 1 1 1 1 1 1 1 1 1 1 1 1 1 1 1 1 1 1 1 1 1 1 1 1 1 1 1 1 1 1 1 1 1 1 1 1 1 1 1 1 1 1 1 1 1 1 1 1 1 1 1 1 1 1 1 1 1 1 1 1 1 1 1 1 1 1 1 1 1 1 1 1 1 1 1 1 1 1 1 1 1 1 1 1 1 1 1 1 1 1 1 1 1 1 1 1 1 1 1 1 1 1 1 1 1 1 1 1 1 1 1 1 1 1 1 1 1 1 1 1 1 1 1 1 1 1 1 1 1 1 1 1 1 1 1 1 1 1 1 1 1 1 1 1 1 1 1 1 1 1 1 1 1 1 1 1 1 1 1 1 1 1 1 1 1 1 1 1 1 1 1 1 1 1 1 1 1 1 1 1 1 1 1 1 1 1 1 1 1 1 1 1 1 1 1 1 1 1 1 1 1 1 1 1 1 1 1 1 1 1 1 1 1 1 1 1 1 1 1 1 1 1 1 1 1 1 1 1 1 1 1 1 1 1 1 1 1 1 1 1 1 1 1 1 1 1 1 1 1 1 1 1 1 1 1 1 1 1 1 1 1 1 1 1 1 1 1 1 1 1 1 1 1 1 1 1 1 1 1 1 1 1 1 1 1 1 1 1 1 1 1 1 1 1 1 1 1 1 1 1 1 1 1 1 1 1 1 1 1 1 1 1 1 1 1 1 1 1 1 1 1 1 1 1 1 1 1 1 1 1 1 1 1 1 1 1 1 1 1 1 1 1 1 1 1 1 1 1 1 1 1 1 1 1 1 1 1 1 1 1 1 1 1 1 1 1 1 1 1 1 1 1 1 1 1 1 1 1 1 1 1 1 1 1 1 1 1 1 1 1 1 1 1 1 1 1 1 1 1 1 1 1 1 1 1 1 1 1 1 1 1 1 1 1 1 1 1 1 1 1 1 1 1 1 1 1 1 1 1 1 1 1 1 1 1 1 1 1 1 1 1 1 1 1 1 1 1 1 1 1 1 1 1 1 1 1 1 1 1 1 1 1 1 1 1 1 1 1 1 1 1 1 1 1 1 1 1 1 1 1 1 1 1 1 1 1 1 1 1 1 1 1 1 1 1 1 1 1 1 1 1 1 1 1 1 1 1 1 1 1 1 1 1 1 1 1 1 1 1 1 1 1 1 1 1 1 1 1 1 1 1 1 1 1 1 1 1 1 1 1 1 1 1 1 1 1 1 1 1 1 1 1 1 1 1 1 1 1 1 1 1 1 1 1 1 1 1 1 1 1 1 1 1 1 1 1 1 1 1 1 1 1 1 1 1 1 1 1 1 1 1 1 1 1 1 1 1 1 1 1 1 1 1 1 1 1 1 1 1 1 1 1 1 1 1 1 1 1 1 1 1 1 1 1 1 1 1 1 1 1 1 1 1 1 1 1 1 1 1 1 1 1 1 1 1 1 1 1 1 1 1 1 1 1 1 1 1 1 1 1 1 1 1 1 1 1 1 1 1 1 1 1 1 1 1 1 1 1 1 1 1 1 1 1 1 1 1 1 1 1 1 1 1 1 1 1 1 1 1 1 1 1 1 1 1 1 1 1 1 1 1 1 1 1 1 1 1 1 1 1 1 1 1 1 1 1 1 1 1 1 1 1 1 1 1 1 1 1 1 1 1 1 1 1 1 1 1 1 1 1 1 1 1 1 1 1 1 1 1 1 1 1 1 1" order="31 31" result="filterResult6"/>
        <feComposite in="SourceGraphic" in2="filterResult6" operator="over" result="filterResult7"/>
      </filter>
      <use ffdec:characterId="9" filter="url(#filter2)" height="284.75" transform="matrix(-0.1822, 0.0983, 0.0919, 0.1949, 26.0893, 5.4032)" width="289.0" xlink:href="#sprite2"/>
      <filter id="filter3">
        <feColorMatrix in="SourceGraphic" result="filterResult8" type="matrix" values="1.5834168 -0.5671076 -0.076309204 0.0 0.014941181 -0.28718317 1.3034923 -0.076309204 0.0 0.014941181 -0.28718317 -0.5671076 1.7942908 0.0 0.014941182 0.0 0.0 0.0 1.0 0.0"/>
        <feConvolveMatrix divisor="2304.0" in="filterResult8" kernelMatrix="1 1 1 1 1 1 1 1 1 1 1 1 1 1 1 1 1 1 1 1 1 1 1 1 1 1 1 1 1 1 1 1 1 1 1 1 1 1 1 1 1 1 1 1 1 1 1 1 1 1 1 1 1 1 1 1 1 1 1 1 1 1 1 1 1 1 1 1 1 1 1 1 1 1 1 1 1 1 1 1 1 1 1 1 1 1 1 1 1 1 1 1 1 1 1 1 1 1 1 1 1 1 1 1 1 1 1 1 1 1 1 1 1 1 1 1 1 1 1 1 1 1 1 1 1 1 1 1 1 1 1 1 1 1 1 1 1 1 1 1 1 1 1 1 1 1 1 1 1 1 1 1 1 1 1 1 1 1 1 1 1 1 1 1 1 1 1 1 1 1 1 1 1 1 1 1 1 1 1 1 1 1 1 1 1 1 1 1 1 1 1 1 1 1 1 1 1 1 1 1 1 1 1 1 1 1 1 1 1 1 1 1 1 1 1 1 1 1 1 1 1 1 1 1 1 1 1 1 1 1 1 1 1 1 1 1 1 1 1 1 1 1 1 1 1 1 1 1 1 1 1 1 1 1 1 1 1 1 1 1 1 1 1 1 1 1 1 1 1 1 1 1 1 1 1 1 1 1 1 1 1 1 1 1 1 1 1 1 1 1 1 1 1 1 1 1 1 1 1 1 1 1 1 1 1 1 1 1 1 1 1 1 1 1 1 1 1 1 1 1 1 1 1 1 1 1 1 1 1 1 1 1 1 1 1 1 1 1 1 1 1 1 1 1 1 1 1 1 1 1 1 1 1 1 1 1 1 1 1 1 1 1 1 1 1 1 1 1 1 1 1 1 1 1 1 1 1 1 1 1 1 1 1 1 1 1 1 1 1 1 1 1 1 1 1 1 1 1 1 1 1 1 1 1 1 1 1 1 1 1 1 1 1 1 1 1 1 1 1 1 1 1 1 1 1 1 1 1 1 1 1 1 1 1 1 1 1 1 1 1 1 1 1 1 1 1 1 1 1 1 1 1 1 1 1 1 1 1 1 1 1 1 1 1 1 1 1 1 1 1 1 1 1 1 1 1 1 1 1 1 1 1 1 1 1 1 1 1 1 1 1 1 1 1 1 1 1 1 1 1 1 1 1 1 1 1 1 1 1 1 1 1 1 1 1 1 1 1 1 1 1 1 1 1 1 1 1 1 1 1 1 1 1 1 1 1 1 1 1 1 1 1 1 1 1 1 1 1 1 1 1 1 1 1 1 1 1 1 1 1 1 1 1 1 1 1 1 1 1 1 1 1 1 1 1 1 1 1 1 1 1 1 1 1 1 1 1 1 1 1 1 1 1 1 1 1 1 1 1 1 1 1 1 1 1 1 1 1 1 1 1 1 1 1 1 1 1 1 1 1 1 1 1 1 1 1 1 1 1 1 1 1 1 1 1 1 1 1 1 1 1 1 1 1 1 1 1 1 1 1 1 1 1 1 1 1 1 1 1 1 1 1 1 1 1 1 1 1 1 1 1 1 1 1 1 1 1 1 1 1 1 1 1 1 1 1 1 1 1 1 1 1 1 1 1 1 1 1 1 1 1 1 1 1 1 1 1 1 1 1 1 1 1 1 1 1 1 1 1 1 1 1 1 1 1 1 1 1 1 1 1 1 1 1 1 1 1 1 1 1 1 1 1 1 1 1 1 1 1 1 1 1 1 1 1 1 1 1 1 1 1 1 1 1 1 1 1 1 1 1 1 1 1 1 1 1 1 1 1 1 1 1 1 1 1 1 1 1 1 1 1 1 1 1 1 1 1 1 1 1 1 1 1 1 1 1 1 1 1 1 1 1 1 1 1 1 1 1 1 1 1 1 1 1 1 1 1 1 1 1 1 1 1 1 1 1 1 1 1 1 1 1 1 1 1 1 1 1 1 1 1 1 1 1 1 1 1 1 1 1 1 1 1 1 1 1 1 1 1 1 1 1 1 1 1 1 1 1 1 1 1 1 1 1 1 1 1 1 1 1 1 1 1 1 1 1 1 1 1 1 1 1 1 1 1 1 1 1 1 1 1 1 1 1 1 1 1 1 1 1 1 1 1 1 1 1 1 1 1 1 1 1 1 1 1 1 1 1 1 1 1 1 1 1 1 1 1 1 1 1 1 1 1 1 1 1 1 1 1 1 1 1 1 1 1 1 1 1 1 1 1 1 1 1 1 1 1 1 1 1 1 1 1 1 1 1 1 1 1 1 1 1 1 1 1 1 1 1 1 1 1 1 1 1 1 1 1 1 1 1 1 1 1 1 1 1 1 1 1 1 1 1 1 1 1 1 1 1 1 1 1 1 1 1 1 1 1 1 1 1 1 1 1 1 1 1 1 1 1 1 1 1 1 1 1 1 1 1 1 1 1 1 1 1 1 1 1 1 1 1 1 1 1 1 1 1 1 1 1 1 1 1 1 1 1 1 1 1 1 1 1 1 1 1 1 1 1 1 1 1 1 1 1 1 1 1 1 1 1 1 1 1 1 1 1 1 1 1 1 1 1 1 1 1 1 1 1 1 1 1 1 1 1 1 1 1 1 1 1 1 1 1 1 1 1 1 1 1 1 1 1 1 1 1 1 1 1 1 1 1 1 1 1 1 1 1 1 1 1 1 1 1 1 1 1 1 1 1 1 1 1 1 1 1 1 1 1 1 1 1 1 1 1 1 1 1 1 1 1 1 1 1 1 1 1 1 1 1 1 1 1 1 1 1 1 1 1 1 1 1 1 1 1 1 1 1 1 1 1 1 1 1 1 1 1 1 1 1 1 1 1 1 1 1 1 1 1 1 1 1 1 1 1 1 1 1 1 1 1 1 1 1 1 1 1 1 1 1 1 1 1 1 1 1 1 1 1 1 1 1 1 1 1 1 1 1 1 1 1 1 1 1 1 1 1 1 1 1 1 1 1 1 1 1 1 1 1 1 1 1 1 1 1 1 1 1 1 1 1 1 1 1 1 1 1 1 1 1 1 1 1 1 1 1 1 1 1 1 1 1 1 1 1 1 1 1 1 1 1 1 1 1 1 1 1 1 1 1 1 1 1 1 1 1 1 1 1 1 1 1 1 1 1 1 1 1 1 1 1 1 1 1 1 1 1 1 1 1 1 1 1 1 1 1 1 1 1 1 1 1 1 1 1 1 1 1 1 1 1 1 1 1 1 1 1 1 1 1 1 1 1 1 1 1 1 1 1 1 1 1 1 1 1 1 1 1 1 1 1 1 1 1 1 1 1 1 1 1 1 1 1 1 1 1 1 1 1 1 1 1 1 1 1 1 1 1 1 1 1 1 1 1 1 1 1 1 1 1 1 1 1 1 1 1 1 1 1 1 1 1 1 1 1 1 1 1 1 1 1 1 1 1 1 1 1 1 1 1 1 1 1 1 1 1 1 1 1 1 1 1 1 1 1 1 1 1 1 1 1 1 1 1 1 1 1 1 1 1 1 1 1 1 1 1 1 1 1 1 1 1 1 1 1 1 1 1 1 1 1 1 1 1 1 1 1 1 1 1 1 1 1 1 1 1 1 1 1 1 1 1 1 1 1 1 1 1 1 1 1 1 1 1 1 1 1 1 1 1 1 1 1 1 1 1 1 1 1 1 1 1 1 1 1 1 1 1 1 1 1 1 1 1 1 1 1 1 1 1 1 1 1 1 1 1 1 1 1 1 1 1 1 1 1 1 1 1 1 1 1 1 1 1 1 1 1 1 1 1 1 1 1 1 1 1 1 1 1 1 1 1 1 1 1 1 1 1 1 1 1 1 1 1 1 1 1 1 1 1 1 1 1 1 1 1 1 1 1 1 1 1 1 1 1 1 1 1 1 1 1 1 1 1 1 1 1 1 1 1 1 1 1 1 1 1 1 1 1 1 1 1 1 1 1 1 1 1 1 1 1 1 1 1 1 1 1 1 1 1 1 1 1 1 1 1 1 1 1 1 1 1 1 1 1 1 1 1 1 1 1 1 1 1 1 1 1 1 1 1 1 1 1 1 1 1 1 1 1 1 1 1 1 1 1 1 1 1 1 1 1 1 1 1 1 1 1 1 1 1 1 1 1 1 1 1 1 1 1 1 1 1 1 1 1 1 1 1 1 1 1 1 1 1 1 1 1 1 1 1 1 1 1 1 1 1 1 1 1 1 1 1 1 1 1 1 1 1 1 1 1 1 1 1 1 1 1 1 1 1 1 1 1 1 1 1 1 1 1 1 1 1 1 1 1 1 1 1 1 1 1 1 1 1 1 1 1 1 1 1 1 1 1 1 1 1 1 1 1 1 1 1 1 1 1 1 1 1 1 1 1 1 1 1 1 1 1 1 1 1 1 1 1 1 1 1 1 1 1 1 1 1 1 1 1 1 1 1 1 1 1 1 1 1 1 1 1 1 1 1 1 1 1 1 1 1 1 1 1 1 1 1 1 1 1 1 1 1 1 1 1 1 1 1 1 1 1 1 1 1 1 1 1 1 1 1 1 1 1 1 1 1 1 1 1 1 1 1 1 1 1 1 1 1 1 1 1 1 1 1 1 1 1 1 1 1 1 1 1 1 1 1 1 1 1 1 1 1 1 1 1 1 1 1 1 1 1 1 1 1 1 1 1 1 1 1 1 1 1 1 1 1 1 1 1 1 1 1 1 1 1 1 1 1 1 1 1 1 1 1 1 1 1 1 1 1 1 1 1 1 1 1 1 1 1 1 1 1 1 1 1 1 1 1 1 1 1 1 1 1 1 1 1 1 1 1 1 1 1 1 1 1 1 1 1 1 1 1 1 1 1 1 1 1 1 1 1 1 1 1 1 1 1 1 1 1 1 1 1 1 1 1 1 1 1 1 1 1 1 1 1 1 1 1 1 1 1 1 1 1 1 1 1 1 1 1 1 1 1 1 1 1 1 1 1 1 1 1 1 1 1 1 1 1 1 1 1 1 1 1 1 1 1 1 1 1 1 1 1 1 1 1 1 1 1 1 1 1 1 1 1 1 1 1 1 1 1 1 1 1 1 1 1 1 1 1 1 1 1 1 1 1 1 1 1 1 1 1 1 1 1 1 1 1 1 1 1 1 1 1 1 1 1 1 1 1 1 1 1 1 1 1 1 1 1 1 1 1 1 1 1 1 1 1 1 1 1 1 1 1 1 1 1 1 1 1 1 1 1 1 1 1 1 1 1 1" order="48 48" result="filterResult9"/>
      </filter>
      <use ffdec:characterId="11" filter="url(#filter3)" height="79.9" transform="matrix(0.3064, 0.0, 0.0, 0.3186, 25.9, 43.35)" width="79.9" xlink:href="#sprite3"/>
    </g>
    <use ffdec:characterId="12" height="53.4" transform="matrix(1.0, 0.0, 0.0, 1.0, 0.0, 0.0)" width="53.95" xlink:href="#shape7"/>
  </g>
  <defs>
    <g id="shape1" transform="matrix(1.0, 0.0, 0.0, 1.0, 1.2, 2.7)">
      <path d="M46.65 -0.7 L47.2 -0.7 46.35 -0.1 46.65 -0.7 M49.4 -0.7 L51.95 -0.7 52.25 0.5 48.6 10.25 48.3 14.4 46.2 18.2 45.55 24.6 45.7 25.0 46.5 24.8 45.95 26.15 46.3 27.65 46.4 28.1 46.6 29.7 Q47.65 26.15 48.75 23.25 L50.05 20.1 53.75 11.7 53.8 11.55 54.05 11.05 54.4 11.0 54.4 21.1 Q50.6 27.35 47.55 37.6 L49.6 36.4 49.75 36.35 Q52.0 37.55 54.4 39.75 L54.4 59.95 52.2 60.65 52.15 60.65 51.0 60.3 50.65 62.0 9.5 62.0 9.1 61.8 9.2 62.0 -0.95 62.0 -0.95 -0.7 42.7 -0.7 42.6 7.65 41.05 15.9 41.25 17.8 49.3 1.15 49.4 -0.7 M54.4 60.2 L54.4 62.0 53.35 62.0 54.4 60.2" fill="#33ccff" fill-rule="evenodd" stroke="none"/>
      <path d="M46.65 -0.7 L46.35 -0.1 47.2 -0.7 M49.4 -0.7 L49.3 1.15 41.25 17.8 41.05 15.9 42.6 7.65 42.7 -0.7 M9.2 62.0 L9.1 61.8 9.5 62.0 M50.65 62.0 L51.0 60.3 52.15 60.65 52.2 60.65 54.4 59.95 M54.4 39.75 Q52.0 37.55 49.75 36.35 L49.6 36.4 47.55 37.6 Q50.6 27.35 54.4 21.1 M54.4 11.0 L54.05 11.05 53.8 11.55 53.75 11.7 50.05 20.1 48.75 23.25 Q47.65 26.15 46.6 29.7 L46.4 28.1 46.3 27.65 45.95 26.15 46.5 24.8 45.7 25.0 45.55 24.6 46.2 18.2 48.3 14.4 48.6 10.25 52.25 0.5 51.95 -0.7 M54.4 60.2 L53.35 62.0" fill="none" stroke="#0066ff" stroke-linecap="round" stroke-linejoin="round" stroke-width="4.0"/>
      <path d="M3.9 -0.7 L4.45 -0.15 4.55 -0.7 9.5 -0.7 9.35 -0.05 Q9.05 1.95 9.65 2.9 L10.4 3.65 Q7.35 4.45 7.15 4.6 4.55 5.6 4.25 7.75 2.45 4.1 -0.45 1.05 L-0.45 -0.7 3.9 -0.7 M19.75 -0.7 L22.7 -0.7 22.5 -0.4 Q21.9 0.65 21.85 1.05 20.75 0.45 19.75 -0.7 M24.95 -0.7 L28.75 -0.7 32.3 2.2 Q35.9 5.0 36.3 10.3 L36.3 10.5 36.45 7.0 Q36.45 4.6 35.0 2.65 L31.8 -0.4 31.5 -0.7 33.8 -0.7 Q36.15 1.6 37.25 3.4 39.1 6.55 39.05 11.7 L38.7 15.7 38.05 19.6 Q36.4 17.5 34.4 16.9 L34.55 15.3 34.65 13.6 34.1 9.05 33.4 6.2 32.6 4.55 27.65 1.35 Q25.85 0.2 24.95 -0.7" fill="#4af0ff" fill-rule="evenodd" stroke="none"/>
      <path d="M3.9 -0.7 L4.55 -0.7 4.45 -0.15 3.9 -0.7 M28.75 -0.7 L31.5 -0.7 31.8 -0.4 35.0 2.65 Q36.45 4.6 36.45 7.0 L36.3 10.5 36.3 10.3 Q35.9 5.0 32.3 2.2 L28.75 -0.7" fill="#9cf6ff" fill-rule="evenodd" stroke="none"/>
      <path d="M9.5 -0.7 L19.75 -0.7 Q20.75 0.45 21.85 1.05 21.9 0.65 22.5 -0.4 L22.7 -0.7 24.95 -0.7 Q25.85 0.2 27.65 1.35 L32.6 4.55 33.4 6.2 34.1 9.05 34.65 13.6 34.55 15.3 34.4 16.9 Q36.4 17.5 38.05 19.6 L37.1 23.85 35.65 21.8 33.05 18.15 Q33.4 16.4 33.4 14.35 33.4 9.8 31.5 6.5 30.65 4.95 29.65 4.05 L26.6 2.6 Q24.8 1.75 24.25 1.0 L24.25 0.9 Q24.1 1.6 24.1 2.5 L24.2 3.35 25.0 3.95 Q26.75 5.8 26.75 8.75 26.75 10.9 25.7 12.95 L25.35 13.55 Q23.65 10.2 20.0 8.25 L15.85 6.35 Q14.0 5.45 14.0 4.35 L14.25 2.75 Q12.4 4.2 11.0 6.0 L9.55 8.4 Q9.55 8.9 10.9 9.45 L14.5 10.3 14.35 10.3 Q13.0 9.9 10.55 11.9 8.4 13.6 7.9 15.65 5.2 11.65 2.0 9.0 L-0.45 7.1 -0.45 1.05 Q2.45 4.1 4.25 7.75 4.55 5.6 7.15 4.6 7.35 4.45 10.4 3.65 L9.65 2.9 Q9.05 1.95 9.35 -0.05 L9.5 -0.7 M9.25 39.6 L6.85 42.55 6.85 42.4 Q6.95 39.45 6.45 38.05 5.8 35.6 3.3 32.55 2.65 31.8 -0.45 29.65 L-0.45 26.2 Q1.85 27.5 3.7 29.15 8.7 33.7 9.25 39.6" fill="#00ccff" fill-rule="evenodd" stroke="none"/>
      <path d="M37.1 23.85 L36.5 25.1 Q35.9 26.3 33.25 28.4 L32.1 27.35 Q30.55 25.9 29.0 25.75 L28.15 25.8 25.95 28.65 Q24.8 30.0 20.8 31.65 L14.95 34.05 Q12.4 35.35 10.05 38.5 L9.25 39.6 Q8.7 33.7 3.7 29.15 1.85 27.5 -0.45 26.2 L-0.45 7.1 2.0 9.0 Q5.2 11.65 7.9 15.65 8.4 13.6 10.55 11.9 13.0 9.9 14.35 10.3 L14.5 10.3 10.9 9.45 Q9.55 8.9 9.55 8.4 L11.0 6.0 Q12.4 4.2 14.25 2.75 L14.0 4.35 Q14.0 5.45 15.85 6.35 L20.0 8.25 Q23.65 10.2 25.35 13.55 L25.7 12.95 Q26.75 10.9 26.75 8.75 26.75 5.8 25.0 3.95 L24.2 3.35 24.1 2.5 Q24.1 1.6 24.25 0.9 L24.25 1.0 Q24.8 1.75 26.6 2.6 L29.65 4.05 Q30.65 4.95 31.5 6.5 33.4 9.8 33.4 14.35 33.4 16.4 33.05 18.15 L35.65 21.8 37.1 23.85" fill="#2d5fee" fill-rule="evenodd" stroke="none"/>
      <path d="M33.8 -0.7 Q36.15 1.6 37.25 3.4 39.1 6.55 39.05 11.7 L38.7 15.7 38.05 19.6 37.1 23.85 36.5 25.1 Q35.9 26.3 33.25 28.4 L32.1 27.35 Q30.55 25.9 29.0 25.75 L28.15 25.8 25.95 28.65 Q24.8 30.0 20.8 31.65 L14.95 34.05 Q12.4 35.35 10.05 38.5 L9.25 39.6 6.85 42.55 6.85 42.4 Q6.95 39.45 6.45 38.05 5.8 35.6 3.3 32.55 2.65 31.8 -0.45 29.65" fill="none" stroke="#3589de" stroke-linecap="round" stroke-linejoin="round" stroke-width="1.0"/>
      <path d="M35.0 43.55 L46.1 49.25 37.4 67.1 11.4 55.8 Q2.2 52.15 -0.7 46.75 6.5 30.65 25.15 29.8 L32.35 36.75 35.0 43.55" fill="#216f98" fill-rule="evenodd" stroke="none"/>
      <path d="M35.0 43.55 L46.1 49.25 37.4 67.1 11.4 55.8 Q2.2 52.15 -0.7 46.75 6.5 30.65 25.15 29.8 L32.35 36.75 35.0 43.55 Z" fill="none" stroke="#272c31" stroke-linecap="round" stroke-linejoin="round" stroke-width="1.0"/>
      <path d="M51.85 60.2 Q47.0 58.75 41.4 54.95 L39.65 54.25 37.3 48.35 38.1 47.35 Q38.7 42.0 49.3 36.0 L49.55 36.6 Q52.0 41.75 52.85 44.1 53.75 46.65 53.9 50.15 54.15 53.55 51.85 60.2 M42.6 47.7 Q43.85 46.45 45.9 45.4 49.2 43.65 51.9 43.8 L50.65 40.65 Q49.5 37.85 48.7 37.1 46.65 38.4 44.0 40.75 40.25 44.05 40.25 45.75 L40.7 46.65 41.6 48.9 42.05 48.2 Q43.5 50.0 46.6 52.1 51.2 55.2 52.9 55.0 L53.05 52.4 51.6 52.45 Q50.65 52.45 47.5 50.7 44.95 49.35 42.6 47.7" fill="#4f88a6" fill-rule="evenodd" stroke="none"/>
      <path d="M42.6 47.7 Q44.95 49.35 47.5 50.7 50.65 52.45 51.6 52.45 L53.05 52.4 52.9 55.0 Q51.2 55.2 46.6 52.1 43.5 50.0 42.05 48.2 L41.6 48.9 40.7 46.65 40.25 45.75 Q40.25 44.05 44.0 40.75 46.65 38.4 48.7 37.1 49.5 37.85 50.65 40.65 L51.9 43.8 Q49.2 43.65 45.9 45.4 43.85 46.45 42.6 47.7" fill="#5ab8e9" fill-rule="evenodd" stroke="none"/>
      <path d="M49.3 36.0 L49.45 35.95 Q52.05 37.3 54.85 40.1 L54.85 40.65 54.45 40.25 Q52.6 38.7 51.25 38.2 L52.15 40.55 Q53.1 42.8 53.1 43.65 54.0 43.4 54.85 43.65 L54.85 52.35 54.65 52.4 Q54.35 53.9 53.4 55.35 L53.4 55.45 54.85 54.9 54.85 59.25 51.9 60.2 51.85 60.2 Q54.15 53.55 53.9 50.15 53.75 46.65 52.85 44.1 52.0 41.75 49.55 36.6 L49.3 36.0" fill="#ff8e20" fill-rule="evenodd" stroke="none"/>
      <path d="M54.85 40.65 L54.85 43.65 Q54.0 43.4 53.1 43.65 53.1 42.8 52.15 40.55 L51.25 38.2 Q52.6 38.7 54.45 40.25 L54.85 40.65 M54.85 52.35 L54.85 54.9 53.4 55.45 53.4 55.35 Q54.35 53.9 54.65 52.4 L54.85 52.35" fill="#ffb933" fill-rule="evenodd" stroke="none"/>
      <path d="M49.3 36.0 L49.45 35.95 Q52.05 37.3 54.85 40.1 M54.85 59.25 L51.9 60.2 M49.3 36.0 L49.55 36.6 Q52.0 41.75 52.85 44.1 53.75 46.65 53.9 50.15 54.15 53.55 51.85 60.2" fill="none" stroke="#833737" stroke-linecap="round" stroke-linejoin="round" stroke-width="1.0"/>
      <path d="M51.9 60.2 L51.85 60.2 Q47.0 58.75 41.4 54.95 L39.65 54.25 37.3 48.35 38.1 47.35 Q38.7 42.0 49.3 36.0" fill="none" stroke="#003366" stroke-linecap="round" stroke-linejoin="round" stroke-width="1.0"/>
      <path d="M42.8 51.0 L42.75 49.5 Q44.75 40.45 48.6 28.5 L45.05 33.35 Q46.75 27.4 48.45 22.85 L49.3 22.85 Q50.0 22.85 50.65 22.35 50.8 22.2 51.0 22.15 L50.15 24.65 49.85 25.35 49.85 25.5 49.25 27.5 Q45.5 39.2 42.8 51.0" fill="#ffd754" fill-rule="evenodd" stroke="none"/>
      <path d="M53.45 11.1 L53.75 10.65 54.85 10.4 54.85 12.65 54.2 12.9 54.2 13.2 53.45 11.1 M42.75 49.5 L42.65 46.95 42.5 44.1 Q43.8 38.25 45.05 33.35 L48.6 28.5 Q44.75 40.45 42.75 49.5" fill="#ff8e20" fill-rule="evenodd" stroke="none"/>
      <path d="M54.85 12.65 L54.85 13.05 54.25 13.25 51.4 21.75 51.3 22.0 49.35 27.85 Q49.15 28.35 49.1 28.8 L49.15 28.55 49.8 27.35 50.35 26.55 50.55 25.6 Q51.1 23.7 52.95 19.7 L53.6 18.35 54.35 16.8 54.85 15.8 54.85 20.15 54.2 20.45 Q47.55 31.4 43.1 54.4 L42.8 51.0 Q45.5 39.2 49.25 27.5 L49.85 25.5 49.85 25.35 50.15 24.65 51.0 22.15 53.8 14.0 53.85 13.85 54.2 13.2 54.2 12.9 54.85 12.65" fill="#cb5e36" fill-rule="evenodd" stroke="none"/>
      <path d="M54.85 13.05 L54.85 15.8 54.35 16.8 53.6 18.35 52.95 19.7 Q51.1 23.7 50.55 25.6 L50.35 26.55 49.8 27.35 49.15 28.55 49.1 28.8 Q49.15 28.35 49.35 27.85 L51.3 22.0 51.4 21.75 54.25 13.25 54.85 13.05" fill="#833e31" fill-rule="evenodd" stroke="none"/>
      <path d="M53.4 11.25 L53.45 11.1 54.2 13.2 53.85 13.85 53.8 14.0 51.0 22.15 Q50.8 22.2 50.65 22.35 L51.2 20.75 Q51.75 18.75 52.95 15.75 L53.7 13.3 53.4 11.25" fill="#fffaff" fill-rule="evenodd" stroke="none"/>
      <path d="M48.45 22.85 L49.7 19.65 53.4 11.25 53.7 13.3 52.95 15.75 Q51.75 18.75 51.2 20.75 L50.65 22.35 Q50.0 22.85 49.3 22.85 L48.45 22.85" fill="#fff39c" fill-rule="evenodd" stroke="none"/>
      <path d="M53.45 11.1 L53.75 10.65 54.85 10.4 M54.85 20.15 L54.2 20.45 Q47.55 31.4 43.1 54.4 L42.8 51.0 42.75 49.5 42.65 46.95 42.5 44.1 Q43.8 38.25 45.05 33.35 46.75 27.4 48.45 22.85 L49.7 19.65 53.4 11.25 53.45 11.1" fill="none" stroke="#833737" stroke-linecap="round" stroke-linejoin="round" stroke-width="1.0"/>
      <path d="M9.9 29.75 L13.45 34.95 16.3 38.95 16.65 39.15 Q20.5 41.3 26.8 45.85 L32.05 49.7 Q32.25 47.85 33.5 41.5 34.75 35.1 34.6 33.2 L36.2 33.35 33.85 52.45 15.8 43.05 5.55 29.1 9.9 29.75" fill="#2c6380" fill-rule="evenodd" stroke="none"/>
      <path d="M34.6 33.2 Q34.75 35.1 33.5 41.5 32.25 47.85 32.05 49.7 L26.8 45.85 Q20.5 41.3 16.65 39.15 L16.3 38.95 13.45 34.95 9.9 29.75 34.6 33.2" fill="#234074" fill-rule="evenodd" stroke="none"/>
      <path d="M34.6 33.2 L9.9 29.75 5.55 29.1 15.8 43.05 33.85 52.45 36.2 33.35 34.6 33.2 Z" fill="none" stroke="#003366" stroke-linecap="round" stroke-linejoin="round" stroke-width="1.0"/>
      <path d="M43.85 22.1 L38.1 22.0 37.75 33.25 43.2 35.4 44.75 36.35 Q45.9 30.6 43.85 22.1 M36.6 33.35 L36.85 20.3 44.0 20.9 44.55 22.15 Q47.0 28.65 46.4 36.75 L43.4 40.95 Q41.5 43.4 36.95 45.65 L31.2 41.25 36.6 33.35" fill="#4f88a6" fill-rule="evenodd" stroke="none"/>
      <path d="M43.85 22.1 Q45.9 30.6 44.75 36.35 L43.2 35.4 37.75 33.25 38.1 22.0 43.85 22.1" fill="#5ab8e9" fill-rule="evenodd" stroke="none"/>
      <path d="M36.6 33.35 L36.85 20.3 44.0 20.9 44.55 22.15 Q47.0 28.65 46.4 36.75 L43.4 40.95 Q41.5 43.4 36.95 45.65 L31.2 41.25 36.6 33.35 Z" fill="none" stroke="#003366" stroke-linecap="round" stroke-linejoin="round" stroke-width="1.0"/>
      <path d="M36.55 31.75 L36.9 28.2 36.55 11.35 38.75 4.8 Q41.7 15.2 41.35 31.55 L41.0 32.35 39.9 32.25 36.55 31.75" fill="#5cb6e5" fill-rule="evenodd" stroke="none"/>
      <path d="M41.0 32.35 Q37.9 38.95 34.1 42.45 L33.55 40.1 Q35.75 36.15 36.55 31.75 L39.9 32.25 41.0 32.35 M39.5 34.05 L40.3 32.55 37.35 32.55 Q37.75 34.35 36.55 36.75 L34.55 40.55 Q36.15 39.35 37.45 37.3 L39.5 34.05" fill="#4f88a6" fill-rule="evenodd" stroke="none"/>
      <path d="M39.5 34.05 L37.45 37.3 Q36.15 39.35 34.55 40.55 L36.55 36.75 Q37.75 34.35 37.35 32.55 L40.3 32.55 39.5 34.05" fill="#104866" fill-rule="evenodd" stroke="none"/>
      <path d="M36.55 31.75 L36.9 28.2 36.55 11.35 38.75 4.8 Q41.7 15.2 41.35 31.55 L41.0 32.35 Q37.9 38.95 34.1 42.45 L33.55 40.1 Q35.75 36.15 36.55 31.75 Z" fill="none" stroke="#003366" stroke-linecap="round" stroke-linejoin="round" stroke-width="1.0"/>
      <path d="M34.55 38.1 Q27.95 35.0 25.6 34.6 24.55 34.9 23.25 35.85 22.15 36.75 21.25 38.5 19.7 37.85 20.45 36.65 L19.75 33.3 24.95 23.8 35.6 36.75 34.55 38.1" fill="#adcddb" fill-rule="evenodd" stroke="none"/>
      <path d="M34.55 38.1 L32.45 40.6 30.0 42.85 29.35 43.9 Q24.4 41.1 21.25 38.5 22.15 36.75 23.25 35.85 24.55 34.9 25.6 34.6 27.95 35.0 34.55 38.1" fill="#fffaff" fill-rule="evenodd" stroke="none"/>
      <path d="M21.25 38.5 Q24.4 41.1 29.35 43.9 L30.0 42.85 32.45 40.6 34.55 38.1 35.6 36.75 24.95 23.8 19.75 33.3 20.45 36.65 Q19.7 37.85 21.25 38.5 Z" fill="none" stroke="#186492" stroke-linecap="round" stroke-linejoin="round" stroke-width="0.5"/>
      <path d="M21.9 27.65 Q21.9 26.5 23.65 27.55 L25.0 27.9 25.3 28.15 26.05 28.85 26.55 29.35 27.2 29.85 27.2 29.75 27.75 28.55 30.1 30.65 Q31.9 32.35 32.6 33.7 L32.45 34.35 32.15 35.6 Q30.3 31.55 28.45 30.4 L24.8 29.0 23.45 28.45 23.05 28.2 22.9 28.15 22.25 27.85 21.95 27.7 21.9 27.65 M32.1 36.0 L31.9 36.75 31.85 36.75 Q31.6 35.85 30.1 34.25 29.1 33.3 28.95 33.55 L25.6 34.3 23.4 34.75 21.95 31.95 Q20.45 27.85 21.9 27.7 L23.1 30.65 23.2 30.75 24.0 32.2 24.3 32.45 27.0 32.4 28.1 32.05 Q28.2 31.9 28.35 31.9 30.25 33.4 31.25 34.7 L32.1 36.0" fill="#18648e" fill-rule="evenodd" stroke="none"/>
      <path d="M32.15 35.6 L32.1 36.0 31.25 34.7 Q30.25 33.4 28.35 31.9 28.2 31.9 28.1 32.05 L27.0 32.4 24.3 32.45 24.0 32.2 24.85 32.25 27.15 31.8 28.4 31.45 26.9 30.2 Q26.25 29.75 24.8 29.0 L28.45 30.4 Q30.3 31.55 32.15 35.6 M21.9 27.7 L21.9 27.65 21.95 27.7 22.25 27.85 22.9 28.15 22.25 27.9 Q22.55 29.5 23.1 30.65 L21.9 27.7" fill="#79f3ff" fill-rule="evenodd" stroke="none"/>
      <path d="M22.9 28.15 L23.05 28.2 23.45 28.45 24.8 29.0 Q26.25 29.75 26.9 30.2 L28.4 31.45 27.15 31.8 24.85 32.25 24.0 32.2 23.2 30.75 23.1 30.65 Q22.55 29.5 22.25 27.9 L22.9 28.15" fill="#e2fcff" fill-rule="evenodd" stroke="none"/>
    </g>
    <g id="sprite0" transform="matrix(1.0, 0.0, 0.0, 1.0, -57.65, -74.1)">
      <use ffdec:characterId="3" height="60.75" transform="matrix(1.0, 0.0, 0.0, 1.0, 57.65, 74.1)" width="52.2" xlink:href="#shape2"/>
    </g>
    <g id="shape2" transform="matrix(1.0, 0.0, 0.0, 1.0, -57.65, -74.1)">
      <path d="M92.0 74.75 L96.95 74.7 100.75 78.0 Q105.35 81.8 105.85 89.2 L105.85 89.4 106.05 84.6 Q106.05 81.25 104.2 78.65 L100.4 74.65 103.3 74.6 Q105.85 77.35 107.05 79.6 109.4 84.0 109.35 91.1 L108.9 96.65 108.1 102.05 Q106.0 99.1 103.45 98.4 L103.65 96.1 103.8 93.8 103.05 87.5 102.15 83.55 Q101.7 81.95 101.15 81.3 L94.8 76.9 92.0 74.75 M85.3 74.85 L88.15 74.8 Q87.5 76.1 87.4 76.55 86.35 75.95 85.3 74.85 M58.15 76.0 L58.15 75.25 65.2 75.15 65.3 75.25 65.3 75.15 71.6 75.05 71.55 75.35 Q71.15 78.05 71.9 79.3 L72.8 80.4 68.7 81.75 Q65.4 83.25 65.0 86.15 62.4 80.5 58.15 76.0" fill="#4af0ff" fill-rule="evenodd" stroke="none"/>
      <path d="M100.4 74.65 L104.2 78.65 Q106.05 81.25 106.05 84.6 L105.85 89.4 105.85 89.2 Q105.35 81.8 100.75 78.0 L96.95 74.7 100.4 74.65 M65.3 75.15 L65.3 75.25 65.2 75.15 65.3 75.15" fill="#9cf6ff" fill-rule="evenodd" stroke="none"/>
      <path d="M92.0 74.75 L94.8 76.9 101.15 81.3 Q101.7 81.95 102.15 83.55 L103.05 87.5 103.8 93.8 103.65 96.1 103.45 98.4 Q106.0 99.1 108.1 102.05 L106.85 107.9 105.05 105.05 101.7 100.1 Q102.15 97.65 102.15 94.8 102.15 88.55 99.75 84.0 98.65 81.85 97.4 80.6 L93.5 78.7 Q91.2 77.5 90.55 76.4 L90.55 76.35 90.35 78.55 90.45 79.75 91.45 80.5 Q93.7 83.05 93.7 87.15 93.7 90.1 92.35 93.05 L91.95 93.9 Q89.7 89.25 85.1 86.65 L79.8 84.05 Q77.45 82.8 77.45 81.3 77.45 80.15 77.75 79.1 75.4 81.1 73.65 83.6 L71.75 87.05 Q71.75 87.7 73.5 88.35 L78.05 89.55 77.85 89.55 Q76.2 89.05 73.05 91.85 70.35 94.25 69.65 97.1 66.25 91.6 62.15 87.95 60.15 86.15 58.15 84.7 L58.15 76.0 Q62.4 80.5 65.0 86.15 65.4 83.25 68.7 81.75 L72.8 80.4 71.9 79.3 Q71.15 78.05 71.55 75.35 L71.6 75.05 85.3 74.85 Q86.35 75.95 87.4 76.55 87.5 76.1 88.15 74.8 L92.0 74.75 M58.15 111.25 Q61.65 113.3 64.35 115.9 70.7 122.1 71.4 130.25 68.95 133.8 68.3 134.35 L68.3 134.15 Q68.45 130.1 67.85 128.1 67.0 124.8 63.8 120.6 62.9 119.4 58.15 116.0 L58.15 111.25" fill="#00ccff" fill-rule="evenodd" stroke="none"/>
      <path d="M58.15 84.7 Q60.15 86.15 62.15 87.95 66.25 91.6 69.65 97.1 70.35 94.25 73.05 91.85 76.2 89.05 77.85 89.55 L78.05 89.55 73.5 88.35 Q71.75 87.7 71.75 87.05 L73.65 83.6 Q75.4 81.1 77.75 79.1 77.45 80.15 77.45 81.3 77.45 82.8 79.8 84.05 L85.1 86.65 Q89.7 89.25 91.95 93.9 L92.35 93.05 Q93.7 90.1 93.7 87.15 93.7 83.05 91.45 80.5 L90.45 79.75 90.35 78.55 90.55 76.35 90.55 76.4 Q91.2 77.5 93.5 78.7 L97.4 80.6 Q98.65 81.85 99.75 84.0 102.15 88.55 102.15 94.8 102.15 97.65 101.7 100.1 L105.05 105.05 106.85 107.9 106.15 109.7 Q105.35 111.4 101.95 114.3 L100.45 112.85 Q98.55 110.95 96.55 110.7 L95.5 110.8 92.65 114.8 Q91.2 116.7 86.05 119.05 L78.7 122.4 Q75.4 124.3 72.4 128.75 L71.4 130.25 Q70.7 122.1 64.35 115.9 61.65 113.3 58.15 111.25 L58.15 84.7" fill="#2d5fee" fill-rule="evenodd" stroke="none"/>
      <path d="M108.1 102.05 L108.9 96.65 109.35 91.1 Q109.4 84.0 107.05 79.6 105.85 77.35 103.3 74.6 M106.85 107.9 L108.1 102.05 M71.4 130.25 L72.4 128.75 Q75.4 124.3 78.7 122.4 L86.05 119.05 Q91.2 116.7 92.65 114.8 L95.5 110.8 96.55 110.7 Q98.55 110.95 100.45 112.85 L101.95 114.3 Q105.35 111.4 106.15 109.7 L106.85 107.9 M58.15 116.0 Q62.9 119.4 63.8 120.6 67.0 124.8 67.85 128.1 68.45 130.1 68.3 134.15 L68.3 134.35 Q68.95 133.8 71.4 130.25" fill="none" stroke="#3589de" stroke-linecap="round" stroke-linejoin="round" stroke-width="1.0"/>
    </g>
    <g id="shape3" transform="matrix(1.0, 0.0, 0.0, 1.0, 4.9, 3.9)">
      <path d="M23.6 17.45 L14.55 18.05 12.8 15.75 12.75 15.7 7.4 8.6 7.3 7.15 Q8.15 7.6 9.75 8.3 L12.65 9.7 Q12.45 8.6 12.65 7.2 L16.2 10.55 18.75 13.75 18.9 13.9 22.4 16.65 23.6 17.45 M41.6 6.85 L41.6 7.3 40.75 7.0 38.65 18.7 31.9 7.4 31.8 4.6 34.0 5.45 39.8 6.25 37.0 3.1 41.6 6.85 M32.75 20.05 L32.05 22.55 27.45 16.85 29.35 10.1 32.75 20.05" fill="#5ab8e9" fill-rule="evenodd" stroke="none"/>
      <path d="M8.35 -1.65 L9.45 -1.65 18.6 11.55 26.6 16.15 28.7 8.65 29.25 9.7 29.4 9.85 30.0 11.15 31.3 9.3 30.6 4.85 31.05 0.4 32.0 -1.65 33.25 -1.65 32.25 0.5 36.15 2.1 37.0 3.1 39.8 6.25 34.0 5.45 31.8 4.6 31.9 7.4 38.65 18.7 40.75 7.0 41.6 7.3 41.6 6.85 41.75 -1.65 42.4 -1.65 42.25 7.2 40.05 19.25 49.0 0.7 49.15 -1.65 51.5 -1.65 51.95 0.1 48.3 9.85 47.95 13.95 40.8 26.9 41.55 29.25 35.55 40.05 30.35 32.15 23.25 27.65 22.15 27.65 18.65 38.2 14.35 26.05 15.7 24.7 6.2 8.9 6.05 3.95 4.5 -1.65 5.75 -1.65 7.1 3.0 7.3 7.15 7.4 8.6 12.75 15.7 12.8 15.75 14.55 18.05 23.6 17.45 24.2 17.4 17.05 11.35 8.35 -1.65 M36.45 31.65 L30.35 32.15 36.45 31.65 M47.6 -1.65 L46.0 -0.5 46.55 -1.65 47.6 -1.65 M24.9 17.95 L24.35 18.05 24.15 18.05 17.8 18.75 13.5 19.35 13.8 19.9 Q14.35 20.15 15.9 21.6 L17.8 23.45 Q16.1 25.15 15.2 26.9 15.2 27.2 16.15 28.9 L18.15 31.8 19.3 27.5 Q20.3 23.85 20.2 23.15 L20.75 23.15 28.35 25.65 34.9 28.05 29.85 22.15 Q26.15 17.85 25.3 17.85 L25.2 17.85 24.9 17.95 M32.75 20.05 L29.35 10.1 27.45 16.85 32.05 22.55 32.75 20.05" fill="#4f88a6" fill-rule="evenodd" stroke="none"/>
      <path d="M8.35 -1.65 L17.05 11.35 24.2 17.4 23.6 17.45 22.4 16.65 18.9 13.9 18.75 13.75 16.2 10.55 12.65 7.2 Q12.45 8.6 12.65 9.7 L9.75 8.3 Q8.15 7.6 7.3 7.15 L7.1 3.0 5.75 -1.65 8.35 -1.65 M41.75 -1.65 L41.6 6.85 37.0 3.1 36.15 2.1 32.25 0.5 33.25 -1.65 41.75 -1.65" fill="#56f0ff" fill-rule="evenodd" stroke="none"/>
      <path d="M24.9 17.95 L25.2 17.85 25.3 17.85 Q26.15 17.85 29.85 22.15 L34.9 28.05 28.35 25.65 20.75 23.15 20.2 23.15 Q20.3 23.85 19.3 27.5 L18.15 31.8 16.15 28.9 Q15.2 27.2 15.2 26.9 16.1 25.15 17.8 23.45 L15.9 21.6 Q14.35 20.15 13.8 19.9 L13.5 19.35 17.8 18.75 24.15 18.05 24.35 18.05 24.9 17.95" fill="#1876a8" fill-rule="evenodd" stroke="none"/>
      <path d="M4.5 -1.65 L6.05 3.95 6.2 8.9 15.7 24.7 14.35 26.05 18.65 38.2 22.15 27.65 23.25 27.65 30.35 32.15 36.45 31.65 M32.0 -1.65 L31.05 0.4 30.6 4.85 31.3 9.3 30.0 11.15 29.4 9.85 M29.25 9.7 L28.7 8.65 26.6 16.15 18.6 11.55 9.45 -1.65 M47.6 -1.65 L46.0 -0.5 46.55 -1.65 M49.15 -1.65 L49.0 0.7 40.05 19.25 42.25 7.2 42.4 -1.65 M51.5 -1.65 L51.95 0.1 48.3 9.85 47.95 13.95 40.8 26.9 41.55 29.25 35.55 40.05 30.35 32.15" fill="none" stroke="#003366" stroke-linecap="round" stroke-linejoin="round" stroke-width="1.0"/>
      <path d="M19.65 -2.7 L24.75 7.45 25.3 10.2 25.55 10.5 24.7 20.65 25.9 14.9 27.15 13.35 28.4 13.4 30.1 14.9 30.3 15.45 28.1 14.25 27.15 19.95 31.15 25.5 Q30.55 25.65 29.8 25.95 L28.1 26.45 26.4 25.05 24.65 23.65 24.6 23.6 23.85 23.75 23.65 23.9 Q23.05 22.65 22.4 20.25 L23.15 20.5 24.15 7.55 18.8 -3.65 19.65 -2.7" fill="#ffd754" fill-rule="evenodd" stroke="none"/>
      <path d="M25.55 10.5 L25.3 10.2 24.75 7.45 19.65 -2.7 27.95 6.4 30.1 14.9 28.4 13.4 25.55 10.5" fill="#fff39c" fill-rule="evenodd" stroke="none"/>
      <path d="M28.4 13.4 L27.15 13.35 25.9 14.9 24.7 20.65 25.55 10.5 28.4 13.4" fill="#ffb064" fill-rule="evenodd" stroke="none"/>
      <path d="M22.4 20.25 Q23.05 22.65 23.65 23.9 L23.85 23.75 24.6 23.6 24.65 23.65 26.4 25.05 28.1 26.45 29.8 25.95 Q30.55 25.65 31.15 25.5 L31.55 25.95 29.15 30.15 25.25 24.85 23.5 25.85 21.3 19.85 22.4 20.25" fill="#ff8e20" fill-rule="evenodd" stroke="none"/>
      <path d="M19.65 -2.7 L18.8 -3.65 24.15 7.55 23.15 20.5 22.4 20.25 21.3 19.85 23.5 25.85 25.25 24.85 29.15 30.15 31.55 25.95 31.15 25.5 27.15 19.95 28.1 14.25 30.3 15.45 30.1 14.9 27.95 6.4 19.65 -2.7 M29.15 30.15 L29.6 30.65" fill="none" stroke="#833737" stroke-linecap="round" stroke-linejoin="round" stroke-width="0.5"/>
      <path d="M47.8 9.8 L47.65 10.0 45.7 12.6 44.35 16.6 42.55 18.5 42.25 18.65 44.55 11.1 50.4 4.0 47.8 9.8" fill="#fff39c" fill-rule="evenodd" stroke="none"/>
      <path d="M47.65 10.0 L47.8 9.8 46.35 12.9 45.15 24.65 46.2 24.35 44.35 29.3 43.6 28.05 41.0 31.95 40.65 29.75 43.85 24.2 44.3 17.85 45.45 13.85 47.65 10.0" fill="#ff8e20" fill-rule="evenodd" stroke="none"/>
      <path d="M42.55 18.5 L44.35 16.6 45.7 12.6 47.65 10.0 45.45 13.85 44.3 17.85 43.85 24.2 40.65 29.75 40.3 27.75 43.2 23.25 43.55 18.05 42.55 18.5" fill="#ffd754" fill-rule="evenodd" stroke="none"/>
      <path d="M47.8 9.8 L50.4 4.0 44.55 11.1 42.25 18.65 42.55 18.5 43.55 18.05 43.2 23.25 40.3 27.75 40.65 29.75 41.0 31.95 43.6 28.05 44.35 29.3 46.2 24.35 45.15 24.65 46.35 12.9 47.8 9.8 M41.0 31.95 L40.7 32.35" fill="none" stroke="#833737" stroke-linecap="round" stroke-linejoin="round" stroke-width="0.5"/>
      <path d="M40.0 13.6 L40.35 17.8 36.15 25.6 35.9 25.85 32.9 25.35 40.0 13.6 M35.7 26.0 L31.95 29.6 28.7 29.5 32.75 25.65 35.7 26.0" fill="#fff39c" fill-rule="evenodd" stroke="none"/>
      <path d="M40.0 13.6 L32.9 25.35 35.9 25.85 35.7 26.0 32.75 25.65 28.7 29.5 27.1 29.45 32.1 24.7 39.9 12.45 40.0 13.6" fill="#ffd754" fill-rule="evenodd" stroke="none"/>
      <path d="M35.9 25.85 L36.15 25.6 40.35 17.8 41.5 31.9 Q38.35 36.0 34.9 39.35 L30.65 32.85 26.9 29.6 27.1 29.45 28.7 29.5 31.95 29.6 35.7 26.0 35.9 25.85" fill="#ff8e20" fill-rule="evenodd" stroke="none"/>
      <path d="M40.35 17.8 L40.0 13.6 39.9 12.45 32.1 24.7 27.1 29.45 26.9 29.6 30.65 32.85 34.9 39.35 Q38.35 36.0 41.5 31.9 L40.35 17.8 Z" fill="none" stroke="#833737" stroke-linecap="round" stroke-linejoin="round" stroke-width="1.0"/>
      <path d="M39.3 21.6 L39.65 24.2 39.7 25.05 39.85 26.55 40.0 27.7 40.3 31.1 34.2 30.2 Q35.95 28.9 36.65 27.55 L37.55 26.1 38.15 24.6 39.3 21.6 M40.05 30.8 L40.05 30.75 Q40.3 29.4 39.4 28.55 38.5 30.15 40.05 30.8" fill="#ff93bc" fill-rule="evenodd" stroke="none"/>
      <path d="M40.0 27.7 L39.85 26.55 39.7 25.05 39.65 24.2 39.3 21.6 39.0 19.5 34.25 26.85 31.35 29.95 31.8 30.0 33.4 31.5 33.3 30.9 36.95 33.25 36.45 35.15 40.05 31.35 40.4 31.4 40.0 27.7 M30.55 29.75 L34.65 25.75 39.45 18.65 40.95 31.55 35.95 36.4 33.25 31.95 30.55 29.75" fill="#ff3c3c" fill-rule="evenodd" stroke="none"/>
      <path d="M39.3 21.6 L38.15 24.6 37.55 26.1 36.65 27.55 Q35.95 28.9 34.2 30.2 L40.3 31.1 40.0 27.7 40.4 31.4 40.05 31.35 31.8 30.0 31.35 29.95 34.25 26.85 39.0 19.5 39.3 21.6" fill="#ff5898" fill-rule="evenodd" stroke="none"/>
      <path d="M40.05 30.8 Q38.5 30.15 39.4 28.55 40.3 29.4 40.05 30.75 L40.05 30.8" fill="#fffaff" fill-rule="evenodd" stroke="none"/>
      <path d="M40.05 31.35 L36.45 35.15 36.95 33.25 33.3 30.9 33.4 31.5 31.8 30.0 40.05 31.35" fill="#950f0f" fill-rule="evenodd" stroke="none"/>
      <path d="M30.55 29.75 L34.65 25.75 39.45 18.65 40.95 31.55 35.95 36.4 33.25 31.95 30.55 29.75 Z" fill="none" stroke="#b12600" stroke-linecap="round" stroke-linejoin="round" stroke-width="0.5"/>
      <path d="M4.8 14.15 L3.45 12.3 1.7 7.75 Q10.45 13.45 20.2 25.95 L20.3 26.25 18.05 25.1 Q16.55 22.55 14.55 20.35 L8.85 15.4 6.7 13.5 5.3 12.4 4.8 14.15" fill="#56f0ff" fill-rule="evenodd" stroke="none"/>
      <path d="M3.45 12.3 L4.8 14.15 Q7.6 17.55 11.9 20.95 15.3 23.5 18.05 25.1 L20.3 26.25 20.45 26.85 19.55 27.5 19.3 27.75 16.75 29.55 14.8 26.65 4.15 14.2 3.45 12.3" fill="#409dcd" fill-rule="evenodd" stroke="none"/>
      <path d="M6.7 13.5 L8.85 15.4 Q6.85 15.0 6.7 13.5" fill="#95eaff" fill-rule="evenodd" stroke="none"/>
      <path d="M4.8 14.15 L5.3 12.4 6.7 13.5 Q6.85 15.0 8.85 15.4 L14.55 20.35 Q16.55 22.55 18.05 25.1 15.3 23.5 11.9 20.95 7.6 17.55 4.8 14.15" fill="#5ab8e9" fill-rule="evenodd" stroke="none"/>
      <path d="M19.4 28.05 L20.0 27.5 20.35 29.05 20.9 33.05 Q21.05 35.6 20.65 37.5 L19.85 33.3 Q19.25 30.65 17.75 29.6 L19.4 28.05" fill="#104866" fill-rule="evenodd" stroke="none"/>
      <path d="M16.75 29.55 L19.3 27.75 19.55 27.5 20.45 26.85 Q22.15 34.05 21.4 39.3 L16.7 38.1 Q17.35 33.3 16.75 29.55 M19.4 28.05 L17.75 29.6 Q19.25 30.65 19.85 33.3 L20.65 37.5 Q21.05 35.6 20.9 33.05 L20.35 29.05 20.0 27.5 19.4 28.05" fill="#286280" fill-rule="evenodd" stroke="none"/>
      <path d="M20.3 26.25 L20.2 25.95 Q10.45 13.45 1.7 7.75 L3.45 12.3 4.15 14.2 14.8 26.65 16.75 29.55 Q17.35 33.3 16.7 38.1 L21.4 39.3 Q22.15 34.05 20.45 26.85 L20.3 26.25 Z" fill="none" stroke="#003366" stroke-linecap="round" stroke-linejoin="round" stroke-width="1.0"/>
      <path d="M10.15 22.65 Q6.55 20.55 0.25 15.25 L-0.3 17.25 6.95 27.9 7.25 28.9 7.35 29.3 7.4 29.45 Q7.85 31.35 8.15 34.65 L8.7 40.8 7.65 40.65 6.75 29.4 -2.0 16.3 -4.4 9.85 Q2.15 14.2 10.9 21.55 L16.85 26.7 17.25 28.1 18.0 32.85 Q18.3 36.55 15.3 41.5 L8.85 40.8 9.15 38.55 9.45 34.3 9.5 35.0 Q9.55 33.95 10.65 32.7 12.5 30.65 15.8 30.6 L15.4 28.5 Q13.95 28.85 11.85 29.55 10.65 29.9 9.55 30.4 L9.5 30.4 9.5 29.25 16.45 27.7 15.85 27.0 Q13.55 24.55 10.4 22.8 L10.15 22.65" fill="#4f88a6" fill-rule="evenodd" stroke="none"/>
      <path d="M7.35 29.3 L7.25 28.9 6.95 27.9 -0.3 17.25 0.25 15.25 Q6.55 20.55 10.15 22.65 L9.75 23.15 Q7.95 26.0 7.35 29.3 M15.85 27.0 L16.45 27.7 9.5 29.25 9.5 30.4 9.5 30.45 9.45 34.3 9.15 38.55 8.85 40.8 8.7 40.8 8.15 34.65 Q7.85 31.35 7.4 29.45 L15.85 27.0" fill="#5ab8e9" fill-rule="evenodd" stroke="none"/>
      <path d="M10.15 22.65 L10.4 22.8 Q13.55 24.55 15.85 27.0 L7.4 29.45 7.35 29.3 Q7.95 26.0 9.75 23.15 L10.15 22.65 M14.2 27.0 L14.2 26.95 Q14.7 25.65 13.1 25.85 12.9 25.85 13.0 26.1 13.15 27.1 14.2 27.0" fill="#56f0ff" fill-rule="evenodd" stroke="none"/>
      <path d="M14.2 27.0 Q13.15 27.1 13.0 26.1 12.9 25.85 13.1 25.85 14.7 25.65 14.2 26.95 L14.2 27.0" fill="#dbfcff" fill-rule="evenodd" stroke="none"/>
      <path d="M9.5 30.4 L9.55 30.4 Q10.65 29.9 11.85 29.55 13.95 28.85 15.4 28.5 L15.8 30.6 Q12.5 30.65 10.65 32.7 9.55 33.95 9.5 35.0 L9.45 34.3 9.5 30.45 9.5 30.4" fill="#1876a8" fill-rule="evenodd" stroke="none"/>
      <path d="M8.85 40.8 L15.3 41.5 Q18.3 36.55 18.0 32.85 L17.25 28.1 16.85 26.7 10.9 21.55 Q2.15 14.2 -4.4 9.85 L-2.0 16.3 6.75 29.4 7.65 40.65 8.7 40.8 8.85 40.8 Z" fill="none" stroke="#003366" stroke-linecap="round" stroke-linejoin="round" stroke-width="1.0"/>
      <path d="M12.7 50.65 L13.0 50.6 16.3 51.05 19.15 51.65 21.3 52.35 21.35 52.35 22.9 52.75 23.0 52.65 Q26.45 55.1 26.9 59.0 27.05 60.05 26.55 61.1 L25.65 61.65 26.05 62.0 26.4 62.3 33.55 68.3 44.05 76.1 44.0 75.2 41.85 67.45 Q39.75 66.3 36.15 63.7 32.25 60.85 30.55 59.05 L30.6 59.15 Q30.0 59.4 29.35 59.75 L27.35 60.75 Q27.95 59.55 27.9 59.0 27.65 56.8 26.2 55.0 24.85 53.15 23.2 52.75 L23.2 52.55 25.2 51.5 29.3 49.35 31.0 51.9 Q29.85 53.95 29.95 56.75 35.0 61.65 41.25 66.25 L41.3 66.15 Q42.45 62.85 42.15 57.6 40.4 54.3 36.45 51.6 L35.9 49.2 38.0 45.8 Q41.1 46.55 44.05 48.45 L46.65 51.45 46.8 51.7 46.95 51.9 44.05 53.1 42.95 53.35 43.0 55.45 46.3 59.75 49.4 62.2 44.1 77.6 23.2 62.1 26.0 60.8 Q26.1 59.25 25.65 58.05 L25.0 57.05 Q23.6 54.75 20.75 53.5 L20.45 53.35 9.9 52.0 10.4 50.75 10.5 50.75 12.7 50.65 M45.75 51.3 L45.05 51.1 44.05 50.7 42.05 50.25 39.4 49.8 38.7 49.85 37.7 50.5 Q41.65 54.35 42.2 55.5 L41.95 54.65 41.85 53.45 Q41.85 52.15 43.45 51.6 L44.05 51.5 45.75 51.3 M47.6 63.25 L46.95 62.55 45.25 60.65 45.15 60.7 44.7 62.5 43.35 65.65 Q42.35 67.55 42.3 67.95 L42.45 67.85 Q43.0 68.55 43.6 71.15 L44.05 74.05 44.1 74.05 Q44.1 71.5 45.1 67.6 45.75 65.0 46.45 63.55 L46.6 64.8 46.55 65.65 47.25 64.1 47.6 63.25" fill="#ff8e20" fill-rule="evenodd" stroke="none"/>
      <path d="M16.3 51.05 L13.0 50.6 12.7 50.65 15.9 47.35 Q18.05 45.4 18.5 46.55 L18.05 48.45 Q17.35 50.05 16.3 51.05 M23.2 52.55 L23.2 52.75 Q24.85 53.15 26.2 55.0 27.65 56.8 27.9 59.0 27.95 59.55 27.35 60.75 L29.35 59.75 Q30.0 59.4 30.6 59.15 L30.55 59.05 Q32.25 60.85 36.15 63.7 39.75 66.3 41.85 67.45 L44.0 75.2 44.05 76.1 33.55 68.3 26.4 62.3 26.05 62.0 25.65 61.65 26.55 61.1 Q27.05 60.05 26.9 59.0 26.45 55.1 23.0 52.65 L23.2 52.55 M21.35 52.35 L21.3 52.35 Q20.95 50.65 21.15 49.75 21.6 47.3 24.8 47.3 L26.05 47.45 28.7 48.9 25.15 50.65 21.35 52.35" fill="#ffd754" fill-rule="evenodd" stroke="none"/>
      <path d="M12.7 50.65 L10.5 50.75 10.4 50.75 Q13.0 45.55 18.05 42.85 L26.05 47.45 24.8 47.3 Q21.6 47.3 21.15 49.75 20.95 50.65 21.3 52.35 L19.15 51.65 16.3 51.05 Q17.35 50.05 18.05 48.45 L18.5 46.55 Q18.05 45.4 15.9 47.35 L12.7 50.65 M29.3 49.35 L25.2 51.5 23.2 52.55 23.0 52.65 22.9 52.75 21.35 52.35 25.15 50.65 28.7 48.9 29.15 49.2 29.3 49.35" fill="#fff39c" fill-rule="evenodd" stroke="none"/>
      <path d="M45.75 51.3 L44.05 51.5 43.45 51.6 Q41.85 52.15 41.85 53.45 L41.95 54.65 42.2 55.5 Q41.65 54.35 37.7 50.5 L38.7 49.85 39.4 49.8 42.05 50.25 44.05 50.7 45.05 51.1 45.75 51.3 M47.6 63.25 L47.25 64.1 46.55 65.65 46.6 64.8 46.45 63.55 Q45.75 65.0 45.1 67.6 44.1 71.5 44.1 74.05 L44.05 74.05 43.6 71.15 Q43.0 68.55 42.45 67.85 L42.3 67.95 Q42.35 67.55 43.35 65.65 L44.7 62.5 45.15 60.7 45.25 60.65 46.95 62.55 47.6 63.25" fill="#d25c13" fill-rule="evenodd" stroke="none"/>
      <path d="M10.4 50.75 L9.9 52.0 20.45 53.35 20.75 53.5 Q23.6 54.75 25.0 57.05 L25.65 58.05 Q26.1 59.25 26.0 60.8 L23.2 62.1 44.1 77.6 49.4 62.2 46.3 59.75 43.0 55.45 42.95 53.35 44.05 53.1 46.95 51.9 46.8 51.7 46.65 51.45 44.05 48.45 Q41.1 46.55 38.0 45.8 L35.9 49.2 36.45 51.6 Q40.4 54.3 42.15 57.6 42.45 62.85 41.3 66.15 L41.25 66.25 Q35.0 61.65 29.95 56.75 29.85 53.95 31.0 51.9 L29.3 49.35 29.15 49.2 28.7 48.9 26.05 47.45 18.05 42.85 Q13.0 45.55 10.4 50.75 Z" fill="none" stroke="#833737" stroke-linecap="round" stroke-linejoin="round" stroke-width="1.0"/>
      <path d="M39.05 48.6 L39.1 47.75 Q39.25 46.2 38.85 43.95 L38.35 41.9 38.75 41.1 39.9 47.6 39.05 48.6 M35.55 53.7 L35.25 53.2 33.6 50.8 Q33.6 50.15 34.8 49.25 36.45 48.05 37.75 43.75 L37.85 43.75 38.1 44.5 38.35 45.3 37.85 47.2 Q37.3 48.9 37.3 49.65 L37.55 50.6 35.55 53.7" fill="#ff8a8a" fill-rule="evenodd" stroke="none"/>
      <path d="M38.35 41.9 L38.85 43.95 Q39.25 46.2 39.1 47.75 L39.05 48.6 37.95 50.1 37.55 50.6 37.3 49.65 Q37.3 48.9 37.85 47.2 L38.35 45.3 38.1 44.5 37.85 43.75 37.75 43.75 Q36.45 48.05 34.8 49.25 33.6 50.15 33.6 50.8 L35.25 53.2 35.55 53.7 34.9 54.85 34.2 56.05 34.1 55.85 31.9 53.25 32.05 54.3 31.8 55.05 Q31.8 55.65 32.5 56.15 33.2 56.75 33.2 57.35 L33.15 57.6 32.85 58.25 32.55 58.2 31.5 58.15 28.6 57.5 31.4 54.2 31.9 53.25 38.35 41.9" fill="#ff5898" fill-rule="evenodd" stroke="none"/>
      <path d="M39.9 47.6 L38.75 41.1 38.35 41.9 31.9 53.25 31.4 54.2 28.6 57.5 31.5 58.15 32.55 58.2 32.85 58.25 33.6 58.25 35.0 58.3 36.85 58.3 41.65 57.7 42.7 57.75 39.9 47.6 M43.95 57.85 L44.0 58.15 44.4 59.35 42.15 67.9 41.95 67.7 41.6 60.35 41.2 59.85 41.25 61.7 Q41.2 63.25 40.8 63.7 40.25 61.95 38.1 60.9 36.15 59.9 34.0 59.9 L33.4 60.05 34.05 61.35 33.65 61.55 32.9 60.2 32.85 60.15 32.25 59.35 31.95 58.9 32.5 58.9 33.6 59.0 37.0 59.35 Q40.05 59.75 41.05 61.6 L41.05 58.55 36.8 58.5 35.0 58.5 33.6 58.5 33.35 58.5 32.75 58.5 31.6 58.5 30.05 58.3 30.65 58.85 33.65 61.6 33.4 61.75 27.65 57.75 31.2 53.05 38.9 40.45 43.95 57.85 M44.1 59.45 L44.1 59.0 42.9 58.5 41.7 58.1 41.65 59.55 42.0 66.3 Q42.15 64.15 42.6 61.95 43.1 59.35 43.5 59.35 L44.1 59.45" fill="#ff3c3c" fill-rule="evenodd" stroke="none"/>
      <path d="M39.05 48.6 L39.9 47.6 42.7 57.75 41.65 57.7 36.85 58.3 35.0 58.3 33.6 58.25 32.85 58.25 33.15 57.6 33.2 57.35 Q33.2 56.75 32.5 56.15 31.8 55.65 31.8 55.05 L32.05 54.3 31.9 53.25 34.1 55.85 34.2 56.05 34.9 54.85 35.55 53.7 37.55 50.6 37.95 50.1 39.05 48.6 M35.5 58.05 L36.95 58.1 39.7 57.7 42.2 57.35 41.3 54.25 40.25 51.1 35.45 58.0 35.5 58.05" fill="#ffbdbd" fill-rule="evenodd" stroke="none"/>
      <path d="M35.5 58.05 L35.45 58.0 40.25 51.1 41.3 54.25 42.2 57.35 39.7 57.7 36.95 58.1 35.5 58.05" fill="#fffaff" fill-rule="evenodd" stroke="none"/>
      <path d="M33.65 61.6 L30.65 58.85 30.05 58.3 31.6 58.5 32.75 58.5 33.35 58.5 33.6 58.5 35.0 58.5 36.8 58.5 41.05 58.55 41.05 61.6 Q40.05 59.75 37.0 59.35 L33.6 59.0 32.5 58.9 31.95 58.9 32.25 59.35 32.85 60.15 32.9 60.2 33.65 61.55 33.8 61.7 33.65 61.6 M44.1 59.45 L43.5 59.35 Q43.1 59.35 42.6 61.95 42.15 64.15 42.0 66.3 L41.65 59.55 41.7 58.1 42.9 58.5 44.1 59.0 44.1 59.45" fill="#a31818" fill-rule="evenodd" stroke="none"/>
      <path d="M41.95 67.7 L33.4 61.75 33.65 61.6 33.8 61.7 33.65 61.55 34.05 61.35 33.4 60.05 34.0 59.9 Q36.15 59.9 38.1 60.9 40.25 61.95 40.8 63.7 41.2 63.25 41.25 61.7 L41.2 59.85 41.6 60.35 41.95 67.7" fill="#b53cff" fill-rule="evenodd" stroke="none"/>
      <path d="M44.0 58.15 L44.4 59.35 42.15 67.9 41.95 67.7 33.4 61.75 27.65 57.75 31.2 53.05 38.9 40.45 43.95 57.85" fill="none" stroke="#721800" stroke-linecap="round" stroke-linejoin="round" stroke-width="0.5"/>
      <path d="M0.0 36.65 L0.0 35.25 Q6.85 41.6 11.7 46.95 L11.55 48.6 Q6.2 42.6 0.0 36.65 M0.0 29.0 L0.0 28.65 0.65 29.25 0.0 29.0" fill="#ffd754" fill-rule="evenodd" stroke="none"/>
      <path d="M0.0 36.65 Q6.2 42.6 11.55 48.6 L11.0 52.4 Q5.75 45.6 0.0 39.8 L0.0 36.65" fill="#cb5e36" fill-rule="evenodd" stroke="none"/>
      <path d="M11.7 46.95 Q6.85 41.6 0.0 35.25 L0.0 29.0 0.65 29.25 Q6.2 34.6 11.65 41.1 L11.75 44.15 11.7 46.95" fill="#ff8e20" fill-rule="evenodd" stroke="none"/>
      <path d="M11.55 48.6 L11.7 46.95 11.75 44.15 11.65 41.1 Q6.2 34.6 0.65 29.25 L0.0 28.65 M0.0 39.8 Q5.75 45.6 11.0 52.4 L11.55 48.6" fill="none" stroke="#833737" stroke-linecap="round" stroke-linejoin="round" stroke-width="1.0"/>
      <path d="M0.0 38.6 L0.8 39.35 1.2 42.05 1.95 42.85 2.4 43.55 2.9 43.25 3.85 43.75 5.2 44.7 5.55 50.7 3.25 51.65 2.7 51.95 2.5 52.05 2.45 52.1 2.15 50.9 2.1 50.6 2.05 50.55 1.55 48.35 1.4 48.35 0.0 48.75 0.0 38.6" fill="#5ab8e9" fill-rule="evenodd" stroke="none"/>
      <path d="M0.0 48.75 L1.4 48.35 1.55 48.35 2.05 50.55 2.1 50.6 2.15 50.9 2.45 52.1 2.5 52.05 2.7 51.95 2.9 52.5 2.95 52.65 Q3.35 54.25 3.35 55.75 L3.45 55.5 Q4.4 53.4 4.8 53.4 L5.75 53.9 5.55 50.7 5.2 44.7 3.85 43.75 2.9 43.25 2.4 43.55 1.95 42.85 1.2 42.05 0.8 39.35 Q2.5 41.1 3.6 42.75 L6.3 44.6 6.9 55.85 3.25 57.1 0.0 59.55 0.0 54.15 1.25 54.5 1.3 54.7 1.7 55.35 1.5 54.5 1.25 52.65 1.2 52.25 0.9 50.05 0.0 49.4 0.0 48.75" fill="#4f88a6" fill-rule="evenodd" stroke="none"/>
      <path d="M2.7 51.95 L3.25 51.65 5.55 50.7 5.75 53.9 4.8 53.4 Q4.4 53.4 3.45 55.5 L3.35 55.75 Q3.35 54.25 2.95 52.65 L2.9 52.5 2.7 51.95 M0.0 54.15 L0.0 49.4 0.9 50.05 1.2 52.25 1.25 52.65 1.5 54.5 1.7 55.35 1.3 54.7 1.25 54.5 0.0 54.15" fill="#104866" fill-rule="evenodd" stroke="none"/>
      <path d="M0.8 39.35 L0.0 38.6 M0.8 39.35 Q2.5 41.1 3.6 42.75 L6.3 44.6 6.9 55.85 3.25 57.1 0.0 59.55" fill="none" stroke="#003366" stroke-linecap="round" stroke-linejoin="round" stroke-width="1.0"/>
      <path d="M49.65 44.0 L49.75 43.9 52.15 42.4 Q57.05 45.45 59.75 50.4 55.7 53.2 49.35 54.5 46.9 52.15 45.45 48.7 L45.6 48.5 45.6 48.45 Q47.45 45.8 49.65 44.0 M48.45 50.65 L48.15 50.45 47.15 49.65 46.6 49.3 45.6 48.5 46.1 49.45 46.85 50.8 Q48.25 53.35 49.4 53.95 L49.5 53.95 49.5 53.9 48.5 50.65 48.8 50.7 48.8 50.75 49.25 50.9 52.35 51.3 54.2 51.2 54.8 51.15 52.2 51.35 49.2 51.2 48.85 51.2 49.2 52.3 Q49.55 53.45 49.85 53.8 L51.85 53.15 51.6 53.15 50.7 53.25 50.5 53.25 50.25 53.1 Q50.65 52.4 52.4 52.0 L55.95 51.55 56.45 51.45 57.8 50.65 57.75 50.65 56.15 50.9 56.9 50.65 58.9 50.15 58.75 49.85 57.7 48.2 Q56.7 46.85 55.4 45.85 L54.3 44.75 52.55 43.65 52.0 43.45 51.65 43.4 51.25 43.9 50.9 44.55 49.85 46.5 49.3 48.05 48.65 49.95 48.65 50.1 48.6 50.25 48.55 50.35 48.5 50.45 48.45 50.65" fill="#ff3c3c" fill-rule="evenodd" stroke="none"/>
      <path d="M50.9 44.55 L51.25 43.9 51.65 43.4 52.0 43.45 52.55 43.65 54.3 44.75 55.4 45.85 Q56.7 46.85 57.7 48.2 L58.75 49.85 55.95 50.25 56.15 50.2 Q55.8 49.3 53.9 47.1 53.0 45.85 51.45 44.85 L51.2 44.7 50.9 44.55" fill="#ff5898" fill-rule="evenodd" stroke="none"/>
      <path d="M48.45 50.65 L48.5 50.45 48.55 50.35 52.2 51.2 50.6 49.8 Q50.0 49.05 50.0 47.45 L50.0 46.9 48.65 50.1 48.65 49.95 49.3 48.05 49.85 46.5 50.9 44.55 51.2 44.7 50.4 46.75 51.7 47.9 Q52.6 48.9 53.0 50.4 L55.95 50.25 58.75 49.85 58.9 50.15 56.9 50.65 56.15 50.9 54.85 51.15 54.8 51.15 54.2 51.2 52.35 51.3 49.25 50.9 48.8 50.75 48.8 50.7 48.5 50.65 48.45 50.65" fill="#ffadcc" fill-rule="evenodd" stroke="none"/>
      <path d="M51.2 44.7 L51.45 44.85 Q53.0 45.85 53.9 47.1 55.8 49.3 56.15 50.2 L55.95 50.25 53.0 50.4 Q52.6 48.9 51.7 47.9 L50.4 46.75 51.2 44.7" fill="#ff5f9c" fill-rule="evenodd" stroke="none"/>
      <path d="M56.15 50.9 L57.75 50.65 57.8 50.65 56.45 51.45 55.95 51.55 52.4 52.0 Q50.65 52.4 50.25 53.1 L50.5 53.25 50.7 53.25 51.6 53.15 51.85 53.15 49.85 53.8 Q49.55 53.45 49.2 52.3 L48.85 51.2 49.2 51.2 52.2 51.35 54.8 51.15 54.85 51.15 56.15 50.9" fill="#a31818" fill-rule="evenodd" stroke="none"/>
      <path d="M48.55 50.35 L48.6 50.25 48.65 50.1 50.0 46.9 50.0 47.45 Q50.0 49.05 50.6 49.8 L52.2 51.2 48.55 50.35" fill="#fffaff" fill-rule="evenodd" stroke="none"/>
      <path d="M45.6 48.5 L46.6 49.3 47.15 49.65 48.15 50.45 48.45 50.65 48.5 50.65 49.5 53.9 49.5 53.95 49.4 53.95 Q48.25 53.35 46.85 50.8 L46.1 49.45 45.6 48.5" fill="#b53cff" fill-rule="evenodd" stroke="none"/>
      <path d="M49.65 44.0 Q47.45 45.8 45.6 48.45 L45.6 48.5 45.45 48.7 Q46.9 52.15 49.35 54.5 55.7 53.2 59.75 50.4 57.05 45.45 52.15 42.4 L49.75 43.9" fill="none" stroke="#b12600" stroke-linecap="round" stroke-linejoin="round" stroke-width="1.0"/>
      <path d="M49.25 50.3 Q49.45 51.05 49.8 50.5 50.5 49.45 49.65 48.85 49.0 49.2 49.25 50.3" fill="#fffaff" fill-rule="evenodd" stroke="none"/>
    </g>
    <g id="sprite1" transform="matrix(1.0, 0.0, 0.0, 1.0, 173.45, 99.05)">
      <use ffdec:characterId="6" height="86.15" transform="matrix(1.0, 0.0, 0.0, 1.0, -173.45, -99.05)" width="68.55" xlink:href="#shape4"/>
    </g>
    <g id="shape4" transform="matrix(1.0, 0.0, 0.0, 1.0, 173.45, 99.05)">
      <path d="M-139.9 -33.1 L-136.9 -32.5 -130.65 -30.4 -128.9 -30.1 -127.6 -30.1 -127.45 -30.1 Q-124.4 -30.35 -121.05 -32.55 L-117.3 -35.45 -114.0 -37.5 Q-115.95 -36.2 -117.5 -34.1 -119.5 -31.5 -120.4 -28.2 L-120.95 -25.45 -121.0 -24.95 -121.05 -23.5 Q-121.05 -21.35 -121.4 -19.9 -122.1 -17.4 -125.2 -15.0 -128.95 -12.15 -132.65 -13.2 L-133.45 -13.4 Q-135.05 -14.0 -136.7 -15.1 L-139.05 -16.45 -140.35 -16.9 Q-144.35 -17.95 -147.25 -16.4 -150.1 -14.85 -153.85 -15.85 -159.7 -17.45 -160.9 -20.45 L-161.55 -22.45 Q-162.0 -23.35 -163.1 -23.65 L-164.35 -23.85 -165.6 -23.95 Q-167.2 -24.4 -168.25 -25.5 L-170.95 -28.7 -173.35 -31.55 Q-173.6 -32.1 -173.05 -34.15 -172.25 -37.1 -169.5 -38.05 -167.9 -38.6 -167.55 -38.85 -166.6 -39.4 -166.3 -40.5 -166.1 -41.25 -166.15 -42.1 -166.1 -43.95 -166.95 -46.55 -168.25 -50.4 -167.2 -54.25 -166.3 -57.7 -164.1 -59.2 L-163.5 -59.6 Q-160.65 -61.15 -156.45 -59.45 -158.75 -61.3 -160.25 -63.15 -163.4 -67.0 -162.6 -69.95 -162.0 -72.15 -160.8 -73.9 -159.35 -76.25 -156.9 -78.0 L-154.15 -79.6 Q-151.8 -80.7 -149.9 -80.15 -147.25 -79.45 -144.85 -77.5 L-149.05 -74.55 -149.3 -74.3 -151.2 -74.5 Q-153.4 -74.45 -155.6 -72.95 L-156.4 -72.35 Q-159.35 -70.05 -159.9 -67.9 -160.55 -65.6 -159.4 -64.15 L-156.15 -60.95 -153.8 -58.4 Q-152.35 -56.55 -152.65 -55.3 L-152.9 -54.5 Q-154.8 -55.55 -158.0 -54.4 L-158.15 -54.3 Q-161.65 -53.05 -162.35 -50.5 -162.45 -50.0 -161.75 -47.9 L-161.25 -46.2 -161.2 -45.05 Q-161.45 -44.1 -162.15 -43.5 -162.85 -42.95 -163.35 -41.1 L-163.55 -40.1 -164.85 -39.35 Q-167.0 -37.7 -167.7 -35.1 -168.4 -32.65 -167.85 -31.4 L-166.5 -29.55 Q-165.65 -29.2 -165.15 -28.4 -164.25 -27.15 -163.05 -26.8 L-161.9 -26.55 Q-161.85 -24.6 -160.5 -23.4 -159.3 -22.35 -156.65 -21.65 L-153.35 -21.0 -153.05 -20.45 Q-152.35 -19.35 -150.6 -18.85 L-147.65 -18.95 -145.65 -19.1 -140.55 -18.65 -136.75 -17.95 -135.9 -17.6 -134.75 -17.95 -132.05 -18.45 -129.2 -19.15 Q-127.4 -19.9 -126.85 -21.95 -126.3 -23.95 -126.7 -24.8 -127.2 -25.8 -129.35 -26.4 L-129.9 -26.5 -133.7 -27.0 -137.65 -27.4 -138.5 -27.8 Q-137.85 -29.0 -137.65 -29.8 -137.35 -30.8 -138.1 -31.75 L-139.9 -33.1 M-128.15 -79.65 L-128.65 -80.9 Q-129.1 -81.8 -131.9 -85.4 -133.6 -87.55 -134.65 -89.75 L-135.05 -90.8 Q-136.0 -93.15 -136.3 -95.55 L-136.45 -97.45 -135.5 -96.1 -133.2 -93.45 -130.75 -91.05 Q-127.1 -87.7 -123.75 -86.55 -122.05 -85.95 -120.6 -84.9 -118.1 -83.25 -116.25 -80.45 L-115.55 -79.2 Q-113.65 -75.65 -113.75 -71.3 L-113.75 -71.25 -113.95 -68.45 -114.65 -65.15 Q-115.3 -62.65 -117.35 -59.8 -118.9 -57.5 -121.4 -54.95 L-122.45 -53.9 -125.15 -51.15 Q-126.9 -49.3 -127.15 -48.45 L-127.25 -47.7 Q-127.3 -46.9 -127.0 -46.15 L-126.85 -45.9 Q-126.3 -44.8 -125.0 -44.4 L-124.8 -44.35 Q-123.4 -43.95 -122.0 -44.8 -120.8 -45.5 -120.6 -46.25 L-120.5 -46.95 -120.9 -47.55 -120.7 -47.5 Q-120.0 -47.35 -119.6 -45.45 -119.3 -43.55 -119.75 -41.95 -120.7 -38.45 -124.9 -36.15 L-125.95 -35.65 -127.55 -35.0 -128.5 -34.7 -132.75 -34.1 Q-135.3 -34.1 -137.95 -34.8 L-142.3 -36.35 -140.35 -36.8 -137.8 -37.8 -137.5 -37.9 -135.45 -38.3 -132.9 -38.55 -131.9 -38.75 Q-129.9 -39.45 -129.4 -41.35 -129.25 -41.9 -129.4 -43.45 L-129.6 -45.7 Q-129.45 -47.3 -129.65 -48.4 L-129.3 -50.55 -128.4 -52.7 -128.15 -52.75 Q-126.25 -52.95 -124.85 -54.2 -122.75 -56.15 -121.25 -61.65 L-121.25 -61.7 Q-120.55 -64.4 -122.1 -69.9 L-124.15 -76.0 Q-124.65 -77.55 -125.65 -78.4 L-126.3 -78.8 -128.05 -79.65 -128.15 -79.65" fill="#d2421d" fill-rule="evenodd" stroke="none"/>
      <path d="M-139.9 -33.1 L-138.1 -31.75 Q-137.35 -30.8 -137.65 -29.8 -137.85 -29.0 -138.5 -27.8 L-137.65 -27.4 -133.7 -27.0 -129.9 -26.5 -129.35 -26.4 Q-127.2 -25.8 -126.7 -24.8 -126.3 -23.95 -126.85 -21.95 -127.4 -19.9 -129.2 -19.15 L-132.05 -18.45 -134.75 -17.95 -135.9 -17.6 -136.75 -17.95 -140.55 -18.65 -145.65 -19.1 -147.65 -18.95 -145.05 -20.5 Q-143.6 -21.7 -142.75 -23.05 -142.3 -24.6 -145.05 -25.85 -147.5 -26.9 -148.2 -26.65 L-149.05 -26.9 -151.1 -26.0 Q-152.95 -24.9 -153.45 -23.0 -153.75 -21.9 -153.35 -21.0 L-156.65 -21.65 Q-159.3 -22.35 -160.5 -23.4 -161.85 -24.6 -161.9 -26.55 L-159.65 -26.45 Q-156.7 -26.5 -156.25 -28.05 -156.15 -28.55 -156.45 -29.5 L-156.7 -30.8 -155.65 -32.05 Q-154.7 -33.1 -154.6 -33.45 -154.25 -34.7 -155.35 -37.1 -156.65 -39.9 -156.3 -44.35 L-156.55 -43.4 Q-156.85 -42.25 -156.6 -40.75 L-157.0 -39.35 -158.5 -39.95 -159.8 -40.45 Q-161.7 -40.95 -163.55 -40.1 L-163.35 -41.1 Q-162.85 -42.95 -162.15 -43.5 -161.45 -44.1 -161.2 -45.05 L-161.25 -46.2 -161.75 -47.9 Q-162.45 -50.0 -162.35 -50.5 -161.65 -53.05 -158.15 -54.3 L-158.0 -54.4 Q-154.8 -55.55 -152.9 -54.5 L-152.65 -55.3 Q-152.35 -56.55 -153.8 -58.4 L-156.15 -60.95 -159.4 -64.15 Q-160.55 -65.6 -159.9 -67.9 -159.35 -70.05 -156.4 -72.35 L-155.6 -72.95 Q-153.4 -74.45 -151.2 -74.5 L-149.3 -74.3 -150.55 -73.35 -152.0 -72.15 Q-155.05 -69.5 -155.4 -68.25 -155.8 -66.8 -154.75 -66.15 -154.35 -65.85 -152.95 -65.45 L-150.15 -65.15 -147.05 -64.75 -145.45 -64.15 Q-143.95 -63.45 -143.1 -62.25 -141.85 -60.55 -141.9 -57.85 L-141.95 -57.3 -142.25 -54.2 Q-142.2 -52.45 -140.95 -52.1 L-139.4 -51.95 -138.95 -52.1 -137.55 -52.9 -131.95 -53.15 -128.4 -52.7 -129.3 -50.55 -129.65 -48.4 Q-129.45 -47.3 -129.6 -45.7 L-129.4 -43.45 Q-129.25 -41.9 -129.4 -41.35 -129.9 -39.45 -131.9 -38.75 L-132.9 -38.55 -135.45 -38.3 -137.5 -37.9 -137.8 -37.8 -140.35 -36.8 -142.3 -36.35 -142.7 -36.5 -147.45 -37.0 Q-149.6 -36.5 -150.45 -33.45 L-150.85 -31.75 -150.6 -30.75 -149.8 -30.5 Q-147.7 -32.3 -144.65 -32.9 L-139.9 -33.1 M-114.55 -60.3 L-112.9 -61.4 Q-111.4 -62.3 -109.8 -62.7 L-108.05 -62.9 -107.65 -62.75 Q-106.5 -62.25 -106.2 -60.7 -105.9 -59.3 -106.35 -57.1 L-108.65 -54.8 -108.7 -54.8 -110.35 -53.45 -110.1 -54.35 -109.9 -55.55 Q-109.75 -56.75 -110.1 -57.85 -110.45 -59.35 -111.25 -59.55 -112.25 -59.35 -113.3 -58.55 L-114.0 -58.05 Q-115.3 -56.85 -116.0 -55.1 L-115.65 -57.6 -115.25 -58.7 -114.55 -60.3 M-146.25 -59.4 L-146.25 -59.45 Q-147.15 -60.3 -147.85 -60.6 L-149.05 -59.2 Q-150.5 -57.5 -150.9 -55.95 L-151.05 -55.1 Q-151.05 -54.35 -150.65 -53.85 -150.25 -53.35 -149.65 -53.2 -148.2 -52.8 -146.7 -54.0 -145.45 -55.05 -145.1 -56.3 -144.65 -57.95 -146.25 -59.4 M-135.0 -45.15 L-134.35 -47.95 -136.35 -46.2 -136.4 -46.15 Q-139.1 -44.25 -141.9 -45.0 -143.05 -45.35 -145.0 -46.55 -146.95 -47.8 -147.65 -48.0 L-150.0 -47.9 -151.25 -47.35 Q-153.35 -46.35 -153.8 -44.85 -154.4 -42.5 -152.95 -40.85 -151.75 -39.45 -149.75 -38.9 -146.8 -38.1 -144.15 -39.55 L-141.85 -41.35 -141.75 -41.5 -139.9 -41.7 -138.1 -41.5 Q-136.3 -42.05 -135.7 -43.05 L-135.3 -44.15 -135.0 -45.15" fill="#df6124" fill-rule="evenodd" stroke="none"/>
      <path d="M-161.9 -26.55 L-163.05 -26.8 Q-164.25 -27.15 -165.15 -28.4 -165.65 -29.2 -166.5 -29.55 L-167.85 -31.4 Q-168.4 -32.65 -167.7 -35.1 -167.0 -37.7 -164.85 -39.35 L-163.55 -40.1 Q-161.7 -40.95 -159.8 -40.45 L-158.5 -39.95 -157.0 -39.35 -156.6 -40.75 Q-156.85 -42.25 -156.55 -43.4 L-156.3 -44.35 Q-156.65 -39.9 -155.35 -37.1 -154.25 -34.7 -154.6 -33.45 -154.7 -33.1 -155.65 -32.05 L-156.7 -30.8 -156.45 -29.5 Q-156.15 -28.55 -156.25 -28.05 -156.7 -26.5 -159.65 -26.45 L-161.9 -26.55 M-110.35 -53.45 Q-112.35 -52.15 -113.55 -52.5 -115.15 -52.95 -115.6 -53.85 L-116.0 -55.1 Q-115.3 -56.85 -114.0 -58.05 L-113.3 -58.55 Q-112.25 -59.35 -111.25 -59.55 -110.45 -59.35 -110.1 -57.85 -109.75 -56.75 -109.9 -55.55 L-110.1 -54.35 -110.35 -53.45 M-146.25 -59.4 Q-144.65 -57.95 -145.1 -56.3 -145.45 -55.05 -146.7 -54.0 -148.2 -52.8 -149.65 -53.2 -150.25 -53.35 -150.65 -53.85 -151.05 -54.35 -151.05 -55.1 L-150.9 -55.95 Q-150.5 -57.5 -149.05 -59.2 L-147.85 -60.6 Q-147.15 -60.3 -146.25 -59.45 L-146.25 -59.4 M-135.0 -45.15 L-135.3 -44.15 -135.7 -43.05 Q-136.3 -42.05 -138.1 -41.5 L-139.9 -41.7 -141.75 -41.5 -141.85 -41.35 -144.15 -39.55 Q-146.8 -38.1 -149.75 -38.9 -151.75 -39.45 -152.95 -40.85 -154.4 -42.5 -153.8 -44.85 -153.35 -46.35 -151.25 -47.35 L-150.0 -47.9 -147.65 -48.0 Q-146.95 -47.8 -145.0 -46.55 -143.05 -45.35 -141.9 -45.0 -139.1 -44.25 -136.4 -46.15 L-136.35 -46.2 -134.35 -47.95 -135.0 -45.15 M-153.35 -21.0 Q-153.75 -21.9 -153.45 -23.0 -152.95 -24.9 -151.1 -26.0 L-149.05 -26.9 -148.2 -26.65 Q-147.5 -26.9 -145.05 -25.85 -142.3 -24.6 -142.75 -23.05 -143.6 -21.7 -145.05 -20.5 L-147.65 -18.95 -149.0 -19.0 -150.7 -19.9 -152.65 -20.85 -153.35 -21.0" fill="#fffa01" fill-rule="evenodd" stroke="none"/>
      <path d="M-128.35 -99.05 L-128.2 -98.7 -129.1 -99.05 -128.35 -99.05" fill="#d3621e" fill-rule="evenodd" stroke="none"/>
      <path d="M-128.35 -99.05 L-128.2 -99.05 -128.2 -98.7 -128.35 -99.05 M-127.2 -64.4 L-129.2 -62.2 -128.95 -62.1 Q-126.85 -63.45 -126.05 -63.55 -125.85 -62.3 -126.15 -61.25 -126.5 -59.8 -128.3 -57.2 -130.5 -54.0 -132.0 -54.4 -133.5 -54.8 -134.55 -56.9 -135.4 -58.95 -135.6 -59.0 -136.4 -59.2 -137.75 -58.15 -139.05 -57.15 -139.75 -57.3 -140.4 -57.5 -140.45 -58.1 -140.6 -58.7 -140.2 -60.25 -139.35 -63.3 -137.25 -64.2 L-133.0 -64.65 Q-130.05 -64.65 -128.8 -65.25 -126.95 -66.1 -126.05 -68.5 -125.9 -67.2 -126.1 -66.45 -126.35 -65.55 -127.2 -64.4" fill="#f8a312" fill-rule="evenodd" stroke="none"/>
      <path d="M-114.55 -60.3 Q-114.0 -61.5 -113.15 -62.15 -112.15 -63.05 -109.95 -63.75 L-108.9 -64.15 -108.7 -64.25 -108.4 -64.35 -106.9 -65.3 Q-105.65 -66.25 -104.9 -68.2 L-104.95 -65.85 -105.1 -61.15 -105.2 -60.25 -105.25 -59.3 -105.4 -58.65 Q-105.55 -58.05 -106.35 -57.1 -105.9 -59.3 -106.2 -60.7 -106.5 -62.25 -107.65 -62.75 L-108.05 -62.9 -109.8 -62.7 Q-111.4 -62.3 -112.9 -61.4 L-114.55 -60.3" fill="#c84527" fill-rule="evenodd" stroke="none"/>
      <path d="M-149.3 -74.3 L-149.05 -74.55 -144.85 -77.5 -142.35 -75.05 -139.9 -72.3 Q-138.55 -70.95 -137.35 -70.65 L-134.4 -70.55 Q-133.2 -70.8 -131.95 -71.4 -131.35 -71.7 -130.8 -72.05 -128.75 -73.55 -128.1 -75.85 L-127.8 -77.1 Q-127.75 -78.45 -128.15 -79.65 L-128.05 -79.65 -126.3 -78.8 -125.65 -78.4 Q-124.65 -77.55 -124.15 -76.0 L-122.1 -69.9 Q-120.55 -64.4 -121.25 -61.7 L-121.25 -61.65 Q-122.75 -56.15 -124.85 -54.2 -126.25 -52.95 -128.15 -52.75 L-128.4 -52.7 -131.95 -53.15 -137.55 -52.9 -138.95 -52.1 -139.4 -51.95 -140.95 -52.1 Q-142.2 -52.45 -142.25 -54.2 L-141.95 -57.3 -141.9 -57.85 Q-141.85 -60.55 -143.1 -62.25 -143.95 -63.45 -145.45 -64.15 L-147.05 -64.75 -150.15 -65.15 -152.95 -65.45 Q-154.35 -65.85 -154.75 -66.15 -155.8 -66.8 -155.4 -68.25 -155.05 -69.5 -152.0 -72.15 L-150.55 -73.35 -149.3 -74.3 M-127.2 -64.4 Q-126.35 -65.55 -126.1 -66.45 -125.9 -67.2 -126.05 -68.5 -126.95 -66.1 -128.8 -65.25 -130.05 -64.65 -133.0 -64.65 L-137.25 -64.2 Q-139.35 -63.3 -140.2 -60.25 -140.6 -58.7 -140.45 -58.1 -140.4 -57.5 -139.75 -57.3 -139.05 -57.15 -137.75 -58.15 -136.4 -59.2 -135.6 -59.0 -135.4 -58.95 -134.55 -56.9 -133.5 -54.8 -132.0 -54.4 -130.5 -54.0 -128.3 -57.2 -126.5 -59.8 -126.15 -61.25 -125.85 -62.3 -126.05 -63.55 -126.85 -63.45 -128.95 -62.1 L-129.2 -62.2 -127.2 -64.4" fill="#c23515" fill-rule="evenodd" stroke="none"/>
    </g>
    <g id="sprite2" transform="matrix(1.0, 0.0, 0.0, 1.0, -87.0, 177.0)">
      <use ffdec:characterId="8" height="284.75" transform="matrix(1.0, 0.0, 0.0, 1.0, 87.0, -177.0)" width="289.0" xlink:href="#shape5"/>
    </g>
    <g id="shape5" transform="matrix(1.0, 0.0, 0.0, 1.0, -87.0, 177.0)">
      <path d="M164.55 94.85 L159.0 98.5 159.0 96.5 Q159.0 88.05 155.5 81.15 L153.1 76.6 Q152.0 74.35 152.0 72.5 L152.25 72.0 155.7 66.0 Q159.55 59.35 160.0 58.0 160.8 55.6 160.95 50.55 L161.0 44.0 160.9 37.75 Q158.4 32.6 155.3 24.7 L149.7 10.75 Q142.65 -5.85 132.75 -16.25 128.0 -15.35 128.15 -11.9 129.2 -7.85 128.5 -6.25 L128.5 -5.2 Q128.4 -4.75 126.85 -4.75 123.8 -4.75 115.15 -17.1 106.5 -29.5 105.0 -29.5 99.5 -29.5 96.2 -10.0 94.55 -0.25 94.0 9.75 94.0 17.3 95.3 25.55 97.5 23.05 100.5 20.25 107.75 13.45 109.8 10.7 114.0 5.15 114.0 -1.0 114.0 -3.9 111.9 -4.6 L109.95 -5.0 117.0 -5.0 Q133.35 1.4 140.8 15.95 146.0 26.1 146.0 37.5 146.0 55.15 136.15 64.4 132.7 67.6 128.0 69.8 L115.65 74.25 Q113.4 75.05 112.1 75.95 119.85 91.8 130.3 106.5 L128.2 105.4 Q118.0 88.25 111.5 76.4 110.0 77.6 110.0 79.0 L110.4 80.45 Q97.55 71.15 92.05 62.85 87.0 55.2 87.0 46.0 87.0 37.7 91.2 30.85 L93.4 27.8 Q92.0 18.8 92.0 9.5 92.0 1.2 93.3 -6.2 94.6 -13.7 97.75 -23.5 100.6 -32.25 104.15 -32.65 107.0 -32.95 111.0 -27.8 113.3 -24.8 118.05 -17.4 122.3 -11.25 125.25 -10.0 125.5 -12.35 124.6 -16.4 124.75 -19.25 130.35 -19.25 138.4 -19.25 144.8 -9.85 L138.45 -29.55 Q135.0 -40.3 135.0 -50.0 135.0 -56.75 136.65 -63.05 138.9 -71.7 144.25 -79.65 146.55 -83.1 149.45 -86.35 150.2 -90.9 152.25 -99.05 155.9 -113.55 160.4 -125.15 166.0 -139.7 171.1 -144.4 177.3 -150.05 182.0 -140.25 L186.15 -97.75 188.0 -77.95 189.0 -78.0 Q191.55 -78.0 193.15 -75.8 194.6 -73.75 195.0 -70.0 L201.0 -70.0 Q203.6 -71.05 208.8 -75.25 216.0 -80.95 216.0 -85.0 L207.0 -104.7 203.85 -112.1 Q198.0 -126.2 198.0 -130.0 198.0 -143.55 217.0 -161.05 224.4 -167.85 231.9 -172.5 239.2 -177.0 242.5 -177.0 246.2 -177.0 249.3 -175.4 L257.5 -175.25 Q259.5 -172.7 262.45 -159.95 265.25 -147.85 265.25 -143.75 265.25 -135.45 260.45 -125.7 257.25 -119.2 252.5 -113.15 249.0 -104.45 249.0 -98.75 249.0 -91.65 249.4 -89.75 250.45 -84.5 254.75 -81.5 L261.75 -81.75 Q263.75 -83.1 265.3 -85.45 267.1 -88.1 266.75 -90.0 L266.5 -90.75 Q265.65 -90.45 264.45 -89.65 L263.0 -88.75 Q259.75 -90.5 259.75 -90.85 259.75 -93.1 259.95 -93.5 260.3 -94.25 262.0 -94.25 268.1 -94.25 269.3 -92.0 269.9 -90.85 269.25 -89.5 269.25 -86.5 268.4 -85.15 267.0 -82.95 261.5 -79.0 L254.25 -79.0 Q246.75 -83.35 246.75 -89.85 246.75 -104.25 247.8 -109.15 L247.7 -109.2 Q246.3 -109.55 246.0 -110.0 247.95 -112.1 249.7 -114.35 252.7 -120.95 260.2 -132.35 262.75 -138.95 262.75 -144.1 262.75 -149.9 260.7 -158.4 L256.75 -172.25 254.1 -172.25 Q238.6 -164.9 234.55 -156.35 232.9 -152.9 232.8 -148.4 L233.0 -141.0 Q233.0 -137.3 235.05 -129.45 236.8 -134.9 238.9 -138.85 246.35 -152.7 254.55 -141.15 251.65 -144.0 249.0 -144.0 239.25 -144.0 235.25 -128.7 236.35 -124.5 238.0 -119.15 L238.05 -119.0 Q243.0 -103.05 243.0 -94.5 243.0 -85.8 236.6 -76.4 L233.95 -72.85 Q231.35 -69.6 214.0 -51.9 200.4 -38.05 194.05 -26.9 185.0 -10.95 185.0 7.0 185.0 16.7 191.05 21.05 192.9 22.35 196.35 23.8 L199.15 25.05 Q201.65 23.45 202.85 21.15 204.1 18.75 204.55 11.25 204.95 5.0 208.0 2.5 212.55 -1.25 225.0 -1.0 L231.0 -1.0 Q207.95 33.1 199.3 52.3 195.5 60.75 193.25 68.85 192.2 72.55 191.5 76.2 L180.65 83.9 172.3 89.6 Q172.0 86.35 172.0 83.0 172.0 73.6 174.15 63.65 L175.1 59.6 Q173.0 56.9 173.0 54.5 173.0 52.6 174.55 48.75 176.0 45.0 177.0 44.0 L176.0 44.0 Q167.55 52.8 164.6 60.05 162.0 66.35 162.0 76.0 162.0 85.15 164.55 94.85 M161.4 -97.3 Q166.05 -100.8 171.45 -103.95 169.6 -100.6 167.95 -96.5 L166.2 -91.8 Q164.65 -87.4 163.3 -82.35 161.35 -74.9 160.0 -67.0 159.0 -61.15 159.0 -60.0 159.0 -52.2 163.0 -48.0 166.85 -44.0 173.5 -44.0 176.05 -44.0 184.2 -51.15 L189.45 -55.85 188.25 -56.9 186.95 -58.15 Q184.4 -59.0 183.05 -63.95 182.0 -67.65 182.0 -70.5 182.0 -73.9 184.0 -75.95 184.8 -76.8 185.85 -77.3 181.55 -129.6 177.5 -145.75 165.75 -140.1 157.5 -111.85 154.0 -99.8 152.3 -89.4 156.4 -93.55 161.4 -97.3 M271.8 -106.9 L281.25 -81.75 Q286.15 -68.85 289.55 -54.1 L295.15 -60.75 Q312.1 -81.75 311.0 -92.0 312.0 -89.0 312.0 -82.5 312.0 -75.85 311.45 -73.55 310.45 -69.45 307.5 -63.3 300.4 -59.05 291.05 -49.8 L290.6 -49.3 291.1 -46.7 288.5 -44.85 288.1 -46.75 283.3 -41.25 255.5 -21.8 267.05 -5.25 Q258.85 -2.2 252.05 0.95 L251.4 1.3 Q259.0 -8.15 259.0 -12.0 L254.0 -12.0 249.7 -9.65 247.0 -8.0 247.0 -9.0 Q247.6 -10.25 248.75 -16.55 249.8 -22.35 251.0 -24.0 252.8 -26.65 257.8 -29.95 261.6 -32.4 265.0 -34.0 267.45 -35.15 270.05 -36.75 278.05 -41.75 287.1 -51.4 283.65 -67.0 279.25 -82.5 274.85 -98.1 270.55 -110.0 L271.8 -106.9 M362.0 -158.5 Q362.0 -161.6 360.45 -163.5 369.65 -160.1 373.25 -152.3 376.0 -146.4 376.0 -136.0 376.0 -128.8 374.0 -122.05 371.35 -113.0 366.5 -113.0 365.75 -113.0 363.2 -115.0 361.65 -116.2 359.7 -116.7 L357.0 -117.0 Q357.3 -114.85 354.8 -111.55 352.8 -108.9 355.0 -105.0 L355.0 -104.0 Q346.95 -107.5 343.9 -109.85 343.05 -112.55 342.15 -116.45 340.0 -125.8 340.0 -130.0 340.0 -134.05 343.4 -138.95 346.1 -142.9 351.0 -147.4 L358.55 -154.05 Q362.0 -157.2 362.0 -158.5 M286.7 22.8 L285.4 32.7 282.45 33.0 Q282.75 27.25 283.3 22.95 L283.95 18.85 286.7 22.8 M130.85 40.9 Q128.55 35.5 126.0 34.0 123.85 38.55 119.3 40.9 L111.0 43.8 Q106.1 45.4 103.95 47.7 101.0 51.0 101.0 57.5 101.0 63.1 103.2 66.2 104.5 68.05 107.95 70.35 110.35 69.25 113.65 68.6 L122.8 66.65 Q127.7 65.15 130.05 61.75 133.0 57.55 133.0 49.5 133.0 45.95 130.85 40.9 M95.25 81.25 L95.25 75.5 96.25 75.5 99.15 85.55 95.3 81.35 95.25 81.25 M132.0 93.0 Q132.0 88.4 136.8 83.0 140.7 78.55 144.0 77.0 144.0 85.2 146.4 96.65 147.5 101.85 148.65 105.2 L144.6 107.75 Q140.5 102.75 132.4 97.0 L132.0 93.0" fill="url(#gradient0)" fill-rule="evenodd" stroke="none"/>
      <path d="M277.0 27.0 L272.4 31.1 268.7 35.25 260.3 37.35 Q267.55 31.55 276.0 27.0 L277.0 27.0" fill="url(#gradient1)" fill-rule="evenodd" stroke="none"/>
      <path d="M172.3 89.6 L164.55 94.85 Q162.0 85.15 162.0 76.0 162.0 66.35 164.6 60.05 167.55 52.8 176.0 44.0 L177.0 44.0 Q176.0 45.0 174.55 48.75 173.0 52.6 173.0 54.5 173.0 56.9 175.1 59.6 L174.15 63.65 Q172.0 73.6 172.0 83.0 172.0 86.35 172.3 89.6 M130.85 40.9 Q133.0 45.95 133.0 49.5 133.0 57.55 130.05 61.75 127.7 65.15 122.8 66.65 L113.65 68.6 Q110.35 69.25 107.95 70.35 104.5 68.05 103.2 66.2 101.0 63.1 101.0 57.5 101.0 51.0 103.95 47.7 106.1 45.4 111.0 43.8 L119.3 40.9 Q123.85 38.55 126.0 34.0 128.55 35.5 130.85 40.9" fill="url(#gradient2)" fill-rule="evenodd" stroke="none"/>
    </g>
    <linearGradient gradientTransform="matrix(0.0162, -0.2431, 0.9976, 0.0664, 223.3, 62.6)" gradientUnits="userSpaceOnUse" id="gradient0" spreadMethod="pad" x1="-819.2" x2="819.2">
      <stop offset="0.050980392156862744" stop-color="#fff898" stop-opacity="0.8"/>
      <stop offset="0.3176470588235294" stop-color="#ff5312" stop-opacity="0.4117647"/>
      <stop offset="1.0" stop-color="#830015" stop-opacity="0.101960786"/>
    </linearGradient>
    <linearGradient gradientTransform="matrix(0.059, -0.119, 0.8948, 0.4433, 230.75, 176.1)" gradientUnits="userSpaceOnUse" id="gradient1" spreadMethod="pad" x1="-819.2" x2="819.2">
      <stop offset="0.0" stop-color="#fff898" stop-opacity="0.8"/>
      <stop offset="0.3176470588235294" stop-color="#ff5312" stop-opacity="0.4117647"/>
      <stop offset="1.0" stop-color="#830015" stop-opacity="0.101960786"/>
    </linearGradient>
    <linearGradient gradientTransform="matrix(0.0605, -0.1248, 0.8984, 0.4355, 255.05, 84.7)" gradientUnits="userSpaceOnUse" id="gradient2" spreadMethod="pad" x1="-819.2" x2="819.2">
      <stop offset="0.00392156862745098" stop-color="#fff898" stop-opacity="0.8"/>
      <stop offset="0.3176470588235294" stop-color="#ff5312" stop-opacity="0.4117647"/>
      <stop offset="1.0" stop-color="#830015" stop-opacity="0.101960786"/>
    </linearGradient>
    <g id="sprite3" transform="matrix(1.0, 0.0, 0.0, 1.0, 0.0, 0.0)">
      <use ffdec:characterId="10" height="79.9" transform="matrix(1.0, 0.0, 0.0, 1.0, 0.0, 0.0)" width="79.9" xlink:href="#shape6"/>
    </g>
    <g id="shape6" transform="matrix(1.0, 0.0, 0.0, 1.0, 0.0, 0.0)">
      <path d="M79.9 39.95 Q79.9 56.5 68.2 68.2 56.5 79.9 39.95 79.9 23.4 79.9 11.7 68.2 0.0 56.5 0.0 39.95 0.0 23.4 11.7 11.7 23.4 0.0 39.95 0.0 56.5 0.0 68.2 11.7 79.9 23.4 79.9 39.95 M69.05 39.95 Q69.05 27.9 60.55 19.4 52.0 10.85 39.95 10.85 27.95 10.85 19.4 19.4 10.9 27.9 10.9 39.95 10.9 52.0 19.4 60.5 27.95 69.05 39.95 69.05 52.0 69.05 60.55 60.5 69.05 52.0 69.05 39.95" fill="#d35300" fill-rule="evenodd" stroke="none"/>
      <path d="M57.7 39.95 Q57.7 32.6 52.5 27.4 47.3 22.2 39.95 22.2 32.65 22.2 27.4 27.4 22.25 32.6 22.25 39.95 22.25 47.3 27.4 52.45 32.65 57.7 39.95 57.7 47.3 57.7 52.5 52.45 57.7 47.3 57.7 39.95 M69.05 39.95 Q69.05 52.0 60.55 60.5 52.0 69.05 39.95 69.05 27.95 69.05 19.4 60.5 10.9 52.0 10.9 39.95 10.9 27.9 19.4 19.4 27.95 10.85 39.95 10.85 52.0 10.85 60.55 19.4 69.05 27.9 69.05 39.95" fill="#fff000" fill-rule="evenodd" stroke="none"/>
      <path d="M57.7 39.95 Q57.7 47.3 52.5 52.45 47.3 57.7 39.95 57.7 32.65 57.7 27.4 52.45 22.25 47.3 22.25 39.95 22.25 32.6 27.4 27.4 32.65 22.2 39.95 22.2 47.3 22.2 52.5 27.4 57.7 32.6 57.7 39.95" fill="#ffffff" fill-rule="evenodd" stroke="none"/>
    </g>
    <g id="shape7" transform="matrix(1.0, 0.0, 0.0, 1.0, 0.0, 0.0)">
      <path d="M50.5 0.0 Q53.95 0.0 53.95 3.3 L53.95 50.15 Q53.95 53.4 50.5 53.4 L3.3 53.4 Q0.0 53.4 0.0 50.15 L0.0 3.3 Q0.0 0.0 3.3 0.0 L50.5 0.0" fill="#000000" fill-opacity="0.003921569" fill-rule="evenodd" stroke="none"/>
    </g>
  </defs>
</svg>
