<?xml version="1.0" encoding="UTF-8" standalone="no"?>
<svg xmlns:ffdec="https://www.free-decompiler.com/flash" xmlns:xlink="http://www.w3.org/1999/xlink" ffdec:objectType="frame" height="54.95px" width="56.85px" xmlns="http://www.w3.org/2000/svg">
  <g transform="matrix(1.0, 0.0, 0.0, 1.0, 1.45, 0.5)">
    <clipPath id="clipPath0" transform="matrix(1.0, 0.0, 0.0, 1.0, 0.0, 0.0)">
      <path d="M50.5 0.0 Q53.95 0.0 53.95 3.3 L53.95 50.15 Q53.95 53.4 50.5 53.4 L3.3 53.4 Q0.0 53.4 0.0 50.15 L0.0 3.3 Q0.0 0.0 3.3 0.0 L50.5 0.0" fill="#000000" fill-rule="evenodd" stroke="none"/>
    </clipPath>
    <g clip-path="url(#clipPath0)">
      <use ffdec:characterId="2" height="54.95" transform="matrix(1.0, 0.0, 0.0, 1.0, -1.45, -0.5)" width="56.85" xlink:href="#shape1"/>
    </g>
    <use ffdec:characterId="3" height="53.4" transform="matrix(1.0, 0.0, 0.0, 1.0, 0.0, 0.0)" width="53.95" xlink:href="#shape2"/>
  </g>
  <defs>
    <g id="shape1" transform="matrix(1.0, 0.0, 0.0, 1.0, 1.45, 0.5)">
      <path d="M41.85 44.2 L42.7 43.6 42.55 45.75 42.5 46.8 42.45 47.6 41.75 53.95 40.2 53.95 40.25 53.45 40.9 52.6 41.0 50.8 41.1 49.2 40.8 49.95 40.6 50.45 40.55 50.65 40.45 50.7 39.15 51.75 38.7 52.15 38.3 52.55 38.2 51.95 38.15 51.75 39.35 50.65 39.6 50.4 40.3 49.8 40.55 49.4 40.8 46.35 40.9 46.25 41.35 45.3 41.5 44.95 41.75 44.3 41.85 44.2 M18.2 53.95 Q17.15 51.2 16.1 46.75 L15.95 46.45 18.55 46.95 21.9 49.4 22.9 50.55 23.35 51.75 23.45 52.0 23.5 52.05 23.55 52.05 25.9 52.35 27.6 52.55 27.8 52.55 29.25 52.7 29.15 52.8 29.15 53.5 29.15 53.6 28.6 53.5 27.8 53.45 25.9 53.25 24.15 53.1 24.0 53.05 23.65 53.0 22.65 53.0 22.4 52.9 21.55 52.6 22.45 53.95 18.2 53.95" fill="#869ed7" fill-rule="evenodd" stroke="none"/>
      <path d="M51.8 43.05 L52.2 42.5 52.55 42.5 54.9 42.2 54.9 42.85 51.8 43.05 M11.85 29.5 Q12.25 27.0 13.1 24.7 L13.2 24.5 13.4 24.1 Q14.05 22.5 15.0 20.95 L15.65 21.05 16.4 21.2 Q14.8 23.1 13.55 25.35 L13.35 25.75 Q12.45 27.55 11.85 29.5" fill="#b663f5" fill-rule="evenodd" stroke="none"/>
      <path d="M47.65 32.8 L48.7 34.0 48.3 34.3 48.05 34.3 46.35 34.1 45.35 34.1 44.45 34.2 Q42.9 34.8 42.45 35.45 42.9 35.55 44.45 36.8 L44.6 36.9 43.65 37.05 40.4 37.2 40.35 37.1 41.1 35.9 42.05 34.1 42.35 33.4 42.5 33.1 42.8 33.05 46.2 32.85 47.65 32.8 M42.05 34.1 L44.5 33.8 45.75 33.75 46.3 33.7 48.35 33.9 48.7 34.0 48.35 33.9 46.3 33.7 45.75 33.75 44.5 33.8 42.05 34.1 M46.2 48.05 L46.65 49.15 Q47.4 51.15 47.95 53.95 L47.4 53.95 46.75 52.65 46.15 51.3 46.2 48.15 46.2 48.05 M49.1 53.95 L48.8 50.95 49.5 49.7 50.05 48.85 51.8 46.2 Q52.95 44.6 54.75 44.2 L54.9 44.15 54.9 53.95 49.1 53.95 M1.5 31.1 L1.3 31.25 1.45 31.25 Q3.1 31.5 4.75 32.15 L5.7 33.05 4.7 34.15 3.5 35.5 3.2 35.4 Q2.1 32.8 -0.9 32.0 L-0.95 32.0 -0.95 31.75 -0.95 31.2 1.5 31.1 M15.95 46.45 L16.1 46.75 Q17.15 51.2 18.2 53.95 L17.3 53.95 16.6 52.0 Q15.75 49.5 15.55 46.4 L15.95 46.45 M1.3 31.25 L-0.95 31.75 1.3 31.25" fill="#6d6da8" fill-rule="evenodd" stroke="none"/>
      <path d="M48.3 46.4 L48.9 46.05 49.7 45.6 51.8 43.05 54.9 42.85 54.9 44.15 54.75 44.2 Q52.95 44.6 51.8 46.2 L50.05 48.85 49.5 49.7 48.8 50.95 49.1 53.95 47.95 53.95 Q47.4 51.15 46.65 49.15 L46.2 48.05 46.2 47.65 46.35 47.5 48.05 46.55 Q48.15 46.45 48.3 46.4 M17.7 36.9 L18.2 37.2 18.5 37.45 17.1 37.45 17.7 36.9 M-0.05 45.45 L-0.95 46.15 -0.95 45.85 -0.4 45.25 -0.05 45.45" fill="#883eb6" fill-rule="evenodd" stroke="none"/>
      <path d="M41.75 53.95 L42.45 47.6 42.5 46.8 42.6 46.8 43.0 46.95 45.75 47.9 46.2 47.65 46.2 48.05 46.2 48.15 46.15 51.3 46.75 52.65 46.3 52.55 45.5 52.65 45.25 52.6 43.7 51.85 42.8 51.85 43.25 53.8 43.3 53.95 41.75 53.95 M6.75 49.55 L7.7 49.2 11.5 47.7 12.35 47.35 12.55 49.5 Q12.5 51.6 11.65 53.3 L11.3 53.95 0.0 53.95 0.55 53.5 Q0.15 53.05 -0.8 52.65 L-0.95 52.6 -0.95 46.15 -0.05 45.45 0.2 45.6 0.7 46.0 1.6 46.75 2.3 47.5 2.5 47.7 4.15 49.45 4.75 49.7 5.65 49.95 6.75 49.55" fill="#192144" fill-rule="evenodd" stroke="none"/>
      <path d="M34.85 40.1 L35.3 39.9 33.4 40.05 31.2 39.7 30.9 39.6 Q29.65 39.15 28.95 38.55 L28.6 37.9 30.7 37.6 31.2 37.5 34.4 36.6 34.75 36.5 35.0 36.7 36.2 37.7 36.85 38.2 36.85 38.25 36.9 38.3 35.95 37.75 34.85 36.95 34.75 36.9 32.25 37.9 33.15 38.5 33.75 38.85 35.45 39.5 35.85 39.55 37.35 39.15 37.6 39.35 Q36.35 40.8 33.5 42.35 L32.8 42.8 30.4 43.9 30.25 43.9 28.6 42.95 27.35 42.0 28.3 41.5 29.05 41.0 28.75 40.3 28.3 39.45 28.6 39.4 28.65 39.35 28.8 39.35 29.9 39.85 30.55 40.05 30.65 40.1 32.65 40.45 33.3 40.45 34.15 40.4 34.25 40.35 34.4 40.3 34.45 40.3 34.65 40.2 35.1 40.1 34.85 40.1 M28.55 37.9 L28.25 38.4 Q28.1 38.6 28.1 38.8 L28.05 38.85 28.0 38.7 27.6 37.9 28.55 37.9 M32.35 41.45 L33.15 41.1 31.6 41.0 31.0 40.95 31.1 41.2 31.2 41.4 31.35 41.6 31.5 41.7 32.1 41.55 32.35 41.45" fill="#e0b492" fill-rule="evenodd" stroke="none"/>
      <path d="M46.75 52.65 L47.4 53.95 43.3 53.95 43.25 53.8 42.8 51.85 43.7 51.85 45.25 52.6 45.5 52.65 46.3 52.55 46.75 52.65 M-0.95 52.6 L-0.8 52.65 Q0.15 53.05 0.55 53.5 L0.0 53.95 -0.95 53.95 -0.95 52.6" fill="#224369" fill-rule="evenodd" stroke="none"/>
      <path d="M23.15 27.95 L23.85 28.6 24.25 28.9 23.95 30.3 23.8 31.3 Q23.8 32.9 24.6 34.3 L24.65 34.4 25.25 35.25 Q26.1 36.0 27.45 36.4 L27.8 36.5 29.4 36.75 29.5 36.75 30.0 36.75 Q32.0 36.65 35.45 35.35 L35.7 35.45 37.45 36.25 37.4 36.35 37.3 36.4 Q36.9 37.15 36.85 37.6 L36.8 37.7 36.85 38.2 36.2 37.7 35.0 36.7 34.75 36.5 34.4 36.6 31.2 37.5 30.7 37.6 28.6 37.9 28.95 38.55 Q29.65 39.15 30.9 39.6 L31.2 39.7 33.4 40.05 35.3 39.9 34.85 40.1 30.95 39.75 30.8 39.7 30.3 39.5 29.05 38.8 28.65 38.4 28.55 38.15 28.55 38.05 28.35 38.4 28.25 38.55 28.2 39.45 28.3 39.45 28.75 40.3 29.05 41.0 28.3 41.5 27.35 42.0 28.6 42.95 30.25 43.9 30.2 43.9 Q28.65 43.7 27.15 42.85 L26.5 42.45 25.7 41.7 26.6 41.35 28.25 40.7 27.9 40.05 27.65 39.6 26.65 37.95 25.6 36.5 25.0 35.8 23.9 34.55 22.45 33.15 22.4 32.3 22.2 30.6 22.5 27.6 22.55 27.35 22.6 27.3 22.65 27.35 22.75 27.5 23.15 27.95 M28.55 37.9 L27.6 37.9 28.0 38.7 28.05 38.85 28.1 38.8 Q28.1 38.6 28.25 38.4 L28.55 37.9" fill="#b46657" fill-rule="evenodd" stroke="none"/>
      <path d="M29.6 17.95 L31.35 20.45 31.9 21.05 32.45 21.65 32.75 22.0 33.0 22.3 33.8 23.1 34.1 23.5 37.25 26.6 37.3 26.65 38.65 27.75 42.65 30.4 41.55 32.25 41.0 33.25 40.3 34.3 40.0 34.7 39.6 34.55 39.35 34.45 38.55 34.1 34.65 32.3 Q31.6 30.85 28.5 28.85 L27.8 28.4 27.5 27.85 27.15 27.35 26.65 26.6 26.15 25.75 25.15 24.2 24.85 23.75 Q26.0 22.9 28.55 22.1 L29.45 18.75 29.6 17.95 M43.9 22.45 L44.5 22.3 44.55 22.25 47.05 21.95 48.6 22.15 50.4 22.6 Q51.25 22.9 52.3 23.85 L52.8 24.35 52.75 24.35 52.65 24.5 49.45 25.6 48.5 24.5 48.3 24.35 48.25 24.35 47.85 24.0 Q46.1 22.7 43.9 22.45 M53.5 23.65 L53.45 23.6 52.85 22.5 51.2 20.45 52.1 20.4 52.65 20.35 53.85 20.35 54.9 20.45 54.9 22.85 Q54.3 22.9 53.5 23.65 M50.0 34.75 L50.7 35.05 Q51.75 35.55 52.75 36.6 L52.75 36.7 49.5 37.55 49.2 37.65 50.0 34.75 M49.05 37.65 L47.45 37.95 46.2 38.0 45.2 37.35 44.6 36.9 Q45.45 36.7 45.85 36.3 L48.3 34.3 48.9 34.45 49.15 35.35 49.25 36.1 49.1 37.25 49.05 37.65 M-0.95 20.8 L-0.2 21.2 -0.15 21.25 Q3.65 23.5 6.65 26.5 L6.85 27.0 7.3 28.55 7.0 28.55 Q4.75 28.5 2.65 30.05 L2.15 30.45 0.3 28.4 -0.95 26.95 -0.95 20.8 M3.2 35.4 L3.5 36.2 3.5 37.55 -0.95 37.45 -0.95 34.55 3.2 35.4" fill="#f1ddf9" fill-rule="evenodd" stroke="none"/>
      <path d="M52.8 24.35 L52.9 24.45 52.65 24.5 52.75 24.35 52.8 24.35 M53.65 24.25 L53.5 23.65 Q54.3 22.9 54.9 22.85 L54.9 24.0 53.65 24.25" fill="#ecb3ea" fill-rule="evenodd" stroke="none"/>
      <path d="M52.9 24.45 L53.4 25.15 53.75 25.95 Q52.55 26.85 51.65 27.95 L51.65 27.9 51.45 26.8 51.45 26.45 Q51.65 25.6 52.65 24.5 L52.9 24.45 M53.85 25.9 L53.75 24.9 53.65 24.25 54.9 24.0 54.9 25.1 53.85 25.9 M24.55 23.25 L24.15 23.6 Q22.55 25.0 22.5 26.7 L22.65 27.35 22.6 27.3 22.55 27.35 22.5 27.6 22.2 30.6 22.4 32.3 21.9 32.15 20.25 31.55 Q19.65 30.95 19.6 29.1 L19.55 27.75 19.75 25.1 19.95 23.6 20.0 22.7 19.85 21.8 19.35 21.1 18.5 20.8 17.1 20.35 17.3 20.15 19.6 17.95 22.7 15.3 Q22.8 15.15 23.0 15.1 L23.1 20.85 23.25 21.1 24.55 23.25" fill="#e575cb" fill-rule="evenodd" stroke="none"/>
      <path d="M48.7 34.0 L48.85 34.3 48.9 34.45 48.3 34.3 48.7 34.0 M49.2 37.65 L49.5 37.55 52.75 36.7 52.75 36.6 Q51.75 35.55 50.7 35.05 L50.0 34.75 50.0 34.7 50.05 34.35 50.3 34.45 53.85 35.65 54.9 36.65 54.9 37.25 53.7 39.75 52.6 41.8 51.8 42.45 51.1 43.05 49.9 44.0 48.6 44.75 48.55 44.6 48.2 43.7 47.65 42.85 Q46.7 41.5 45.2 40.95 L44.1 40.7 42.9 40.55 42.2 40.65 41.65 40.75 Q41.55 39.15 40.4 37.2 L43.65 37.05 44.6 36.9 45.2 37.35 46.2 38.0 47.45 37.95 49.05 37.65 48.9 38.45 49.2 37.65 M-0.95 37.45 L3.5 37.55 3.5 36.2 3.2 35.4 3.5 35.5 4.7 34.15 5.7 33.05 Q6.5 33.9 7.05 35.15 L7.15 35.35 7.3 35.7 7.5 36.2 Q8.2 38.0 8.15 39.25 L7.75 41.5 Q6.2 42.1 5.15 42.85 L4.9 43.0 3.75 44.1 3.5 44.4 Q3.15 44.95 2.95 45.65 L2.95 45.75 2.85 45.7 2.3 45.2 1.3 44.35 -0.5 43.05 -0.95 42.9 -0.95 37.45" fill="#bbb2f3" fill-rule="evenodd" stroke="none"/>
      <path d="M42.65 30.4 L43.3 30.7 43.25 31.0 44.8 31.3 45.85 31.7 Q46.45 31.95 47.0 32.35 L47.65 32.8 46.2 32.85 42.8 33.05 42.5 33.1 42.35 33.4 42.05 34.1 41.1 35.9 40.35 37.1 40.15 37.35 39.35 38.45 39.05 38.25 38.6 37.3 38.25 36.6 37.45 36.25 35.7 35.45 35.45 35.35 34.75 35.05 34.3 34.85 33.1 34.25 31.95 33.7 30.95 33.15 30.85 33.15 30.45 32.95 29.55 32.45 29.25 32.25 25.05 29.55 24.95 29.5 24.65 29.25 24.6 29.2 24.25 28.9 23.85 28.6 23.15 27.95 23.15 27.3 23.15 27.2 Q23.15 25.1 24.85 23.8 L24.85 23.75 25.15 24.2 26.15 25.75 26.65 26.6 27.15 27.35 27.5 27.85 27.8 28.4 28.5 28.85 Q31.6 30.85 34.65 32.3 L38.55 34.1 39.35 34.45 39.6 34.55 40.0 34.7 40.3 34.3 41.0 33.25 41.55 32.25 42.65 30.4 M52.65 24.5 Q51.65 25.6 51.45 26.45 L51.45 26.8 51.65 27.9 51.65 27.95 50.6 29.4 Q50.65 28.2 50.25 27.2 L50.2 27.1 49.45 25.6 52.65 24.5 M43.25 31.0 L42.5 33.1 43.25 31.0 M44.6 36.9 L44.45 36.8 Q42.9 35.55 42.45 35.45 42.9 34.8 44.45 34.2 L45.35 34.1 46.35 34.1 48.05 34.3 48.3 34.3 45.85 36.3 Q45.45 36.7 44.6 36.9 M2.15 30.45 L1.5 31.1 -0.95 31.2 -0.95 26.95 0.3 28.4 2.15 30.45 M3.2 35.4 L-0.95 34.55 -0.95 32.0 -0.9 32.0 Q2.1 32.8 3.2 35.4" fill="#aea2f6" fill-rule="evenodd" stroke="none"/>
      <path d="M40.4 37.2 Q41.55 39.15 41.65 40.75 L42.2 40.65 42.9 40.55 44.1 40.7 45.2 40.95 Q46.7 41.5 47.65 42.85 L48.2 43.7 48.55 44.6 48.6 44.75 48.25 44.95 46.45 45.75 45.95 45.95 44.85 46.45 43.85 46.15 42.8 45.8 42.55 45.75 42.7 43.6 41.85 44.2 41.85 44.1 41.55 42.95 41.45 42.35 41.4 42.1 40.8 40.45 40.25 39.35 39.35 38.45 40.15 37.35 40.35 37.1 40.4 37.2 M37.45 36.25 L38.25 36.6 38.6 37.3 39.05 38.25 38.35 37.85 37.05 37.55 36.95 37.6 37.05 37.3 37.4 36.35 37.45 36.25 M11.65 31.95 L11.7 31.0 11.85 29.5 Q12.45 27.55 13.35 25.75 L13.55 25.35 Q14.8 23.1 16.4 21.2 L17.3 21.4 Q18.7 21.75 19.3 22.35 L19.35 23.0 19.25 24.15 18.8 27.85 18.8 29.45 18.9 31.15 Q19.45 32.1 20.8 32.65 L21.2 32.8 22.45 33.15 23.9 34.55 25.0 35.8 24.6 35.6 Q22.6 34.7 21.75 34.7 L21.3 34.8 21.3 35.1 21.95 37.05 22.0 37.2 22.55 38.85 23.5 42.5 22.7 42.75 Q22.05 41.2 21.0 39.85 L19.95 38.15 Q19.25 37.45 18.8 37.45 L18.5 37.45 18.2 37.2 17.7 36.9 15.7 35.75 Q13.95 34.85 11.85 34.3 L11.65 32.85 11.6 32.6 11.65 32.1 11.65 31.95 M4.75 32.15 L5.95 32.75 7.35 33.55 8.0 34.0 8.7 34.5 10.65 36.2 12.45 37.95 12.75 38.3 14.9 40.65 15.3 41.8 15.65 43.15 15.75 43.5 15.2 45.1 14.55 46.0 13.85 46.6 12.35 47.35 11.5 47.7 7.7 49.2 6.75 49.55 3.5 46.25 2.95 45.75 2.95 45.65 Q3.15 44.95 3.5 44.4 L3.75 44.1 4.9 43.0 5.15 42.85 Q6.2 42.1 7.75 41.5 L8.15 39.25 Q8.2 38.0 7.5 36.2 L7.3 35.7 7.15 35.35 7.05 35.15 Q6.5 33.9 5.7 33.05 L4.75 32.15" fill="#823c9c" fill-rule="evenodd" stroke="none"/>
      <path d="M42.55 45.75 L42.8 45.8 43.85 46.15 44.85 46.45 45.95 45.95 46.45 45.75 48.25 44.95 48.3 46.4 Q48.15 46.45 48.05 46.55 L46.35 47.5 46.2 47.65 45.75 47.9 43.0 46.95 42.6 46.8 42.5 46.8 42.55 45.75 M2.85 45.7 L2.95 45.75 3.5 46.25 6.75 49.55 5.65 49.95 4.75 49.7 4.15 49.45 2.5 47.7 2.3 47.5 1.6 46.75 0.7 46.0 2.85 45.7" fill="#6c258e" fill-rule="evenodd" stroke="none"/>
      <path d="M48.6 44.75 L49.9 44.0 51.1 43.05 51.8 42.45 52.6 41.8 52.4 42.15 52.2 42.5 51.8 43.05 49.7 45.6 48.9 46.05 48.3 46.4 48.25 44.95 48.6 44.75 M-0.95 42.9 L-0.5 43.05 1.3 44.35 2.3 45.2 2.85 45.7 0.7 46.0 0.2 45.6 -0.05 45.45 -0.4 45.25 -0.95 44.9 -0.95 42.9" fill="#606195" fill-rule="evenodd" stroke="none"/>
      <path d="M21.0 39.85 Q22.05 41.2 22.7 42.75 L23.5 42.5 25.35 41.85 25.7 41.7 26.5 42.45 27.15 42.85 Q28.65 43.7 30.2 43.9 L30.25 43.9 30.4 43.9 32.8 42.8 32.45 43.65 Q33.25 44.0 34.05 44.85 35.1 45.95 35.1 47.05 L34.85 48.4 34.8 48.65 33.6 49.4 33.45 49.5 33.35 49.5 33.45 49.5 33.4 49.5 33.35 49.5 33.15 49.6 33.3 49.5 33.2 49.5 33.2 49.45 31.55 49.2 31.55 49.1 30.75 47.5 Q30.6 47.15 29.0 47.1 L28.3 47.1 26.4 47.15 25.6 47.15 26.5 47.7 27.35 48.25 28.0 48.6 26.55 48.35 24.85 48.0 24.7 47.95 24.6 47.95 24.5 47.95 24.4 47.9 22.6 44.15 22.1 42.85 21.5 41.2 21.25 40.45 21.0 39.85 M33.35 49.5 L33.3 49.5 33.2 49.45 33.3 49.5 33.35 49.5 M28.9 45.4 L29.8 44.45 30.2 43.9 29.8 44.45 28.9 45.4 M33.1 45.8 L33.05 45.8 32.95 45.85 Q32.75 45.85 32.35 46.1 L32.05 46.35 31.4 46.9 32.05 47.95 32.6 48.75 32.8 48.75 33.1 46.25 33.1 45.8" fill="#a84a4a" fill-rule="evenodd" stroke="none"/>
      <path d="M28.0 48.6 L27.35 48.25 26.5 47.7 25.6 47.15 26.4 47.15 28.3 47.1 29.0 47.1 Q30.6 47.15 30.75 47.5 L31.55 49.1 31.55 49.2 28.0 48.6 M33.1 45.8 L33.1 46.25 32.8 48.75 32.6 48.75 32.05 47.95 31.4 46.9 32.05 46.35 32.35 46.1 Q32.75 45.85 32.95 45.85 L33.05 45.8 33.1 45.8" fill="#bd6e5f" fill-rule="evenodd" stroke="none"/>
      <path d="M32.8 42.8 L33.5 42.35 Q36.35 40.8 37.6 39.35 L37.35 39.15 36.9 38.3 36.85 38.25 36.85 38.2 36.8 37.7 36.85 37.6 36.95 37.6 37.05 37.55 38.35 37.85 37.65 37.65 37.1 37.65 37.1 37.7 37.75 38.1 38.25 39.65 38.55 41.5 38.65 43.2 38.6 44.2 38.45 45.1 38.45 45.15 37.9 46.6 34.8 48.65 34.85 48.4 35.1 47.05 Q35.1 45.95 34.05 44.85 33.25 44.0 32.45 43.65 L32.8 42.8 M-0.4 45.25 L-0.95 45.85 -0.95 44.9 -0.4 45.25" fill="#291246" fill-rule="evenodd" stroke="none"/>
      <path d="M28.95 16.95 L29.4 17.05 31.8 17.8 34.45 18.5 34.45 17.45 34.05 15.9 33.75 14.55 33.7 14.3 33.9 14.45 Q35.4 15.8 36.55 17.3 L36.9 17.9 36.95 17.8 Q38.95 15.6 42.65 13.7 L42.85 13.7 43.65 11.75 44.05 10.55 44.7 13.9 44.8 16.15 44.8 16.55 44.8 16.65 44.8 16.75 44.8 17.55 44.8 17.65 43.85 17.6 43.35 17.6 43.2 17.6 42.8 17.6 41.5 18.5 40.05 19.5 39.3 20.15 38.8 20.55 39.5 20.6 Q41.25 20.5 43.75 20.55 L42.65 21.3 44.3 20.95 47.2 20.65 48.55 20.7 48.6 20.7 Q51.2 21.05 52.85 22.5 L53.45 23.6 53.5 23.65 53.65 24.25 53.75 24.9 53.85 25.9 53.85 26.3 53.75 25.95 53.4 25.15 52.9 24.45 52.8 24.35 52.3 23.85 Q51.25 22.9 50.4 22.6 L48.6 22.15 47.05 21.95 44.55 22.25 44.5 22.3 43.9 22.45 42.7 22.55 42.6 22.55 42.45 22.55 Q41.7 22.55 41.1 22.95 L40.75 23.1 39.7 23.7 Q38.55 24.45 38.15 25.3 L39.0 25.05 39.6 25.05 40.1 25.1 41.7 25.4 Q42.3 25.55 42.8 25.95 L43.8 26.95 42.55 27.1 41.45 27.3 41.3 27.45 42.0 27.45 Q44.4 27.55 46.05 28.8 L46.3 29.0 46.95 29.6 47.35 30.2 47.4 30.25 Q48.15 31.35 48.55 32.85 L48.8 34.0 48.85 34.3 48.7 34.0 47.65 32.8 47.0 32.35 Q46.45 31.95 45.85 31.7 L44.8 31.3 43.25 31.0 43.3 30.7 42.65 30.4 38.65 27.75 37.3 26.65 37.25 26.6 34.1 23.5 33.8 23.1 33.0 22.3 32.75 22.0 32.45 21.65 31.9 21.05 31.35 20.45 29.6 17.95 29.15 17.25 28.95 16.95 M37.55 6.15 L37.75 6.7 Q35.35 4.9 30.3 3.2 L27.25 2.3 22.6 1.0 Q22.95 2.05 24.0 4.1 L24.95 5.65 26.8 8.45 23.25 6.4 Q23.8 6.8 24.25 8.4 L24.4 8.95 24.6 10.7 24.5 11.1 24.5 10.95 22.85 9.1 21.15 7.05 21.0 6.85 20.8 6.6 20.25 5.95 Q19.4 4.5 18.4 3.45 16.9 2.65 15.0 2.0 10.95 0.6 8.85 0.55 L6.3 0.7 Q7.45 1.55 8.9 4.2 L12.8 11.45 14.7 14.65 14.9 15.0 14.6 14.9 12.6 14.05 Q10.7 13.15 9.5 12.15 10.7 14.15 13.65 17.4 L14.35 18.15 16.1 19.4 15.7 19.9 Q16.15 20.8 15.0 20.95 14.05 22.5 13.4 24.1 L13.2 24.5 13.1 24.7 Q12.25 27.0 11.85 29.5 L11.7 31.0 11.65 31.95 11.4 31.85 10.55 31.65 7.85 31.1 6.85 31.2 Q7.5 30.75 8.9 30.15 L9.75 29.85 Q6.65 27.45 4.55 22.6 3.05 19.0 2.35 17.9 L0.7 15.95 2.75 15.85 6.05 16.45 7.1 16.65 -0.3 6.0 -0.95 5.1 -0.95 0.8 5.5 1.75 3.5 0.55 2.95 0.2 2.25 0.15 -0.3 0.35 -0.95 0.5 -0.95 0.0 12.6 0.0 Q15.2 0.9 17.15 2.25 L18.05 2.95 17.7 0.0 25.15 0.0 28.85 1.55 29.1 1.65 Q33.6 3.45 35.55 4.65 L37.55 6.15 M36.1 20.25 Q36.75 19.6 37.55 19.1 38.55 18.55 39.65 18.15 L41.9 17.7 42.8 17.6 41.9 17.7 39.65 18.15 Q38.55 18.55 37.55 19.1 36.75 19.6 36.1 20.25 M17.15 2.25 L18.4 3.45 17.15 2.25 M12.25 23.3 Q12.65 23.15 12.95 22.05 13.4 20.45 14.25 19.7 L12.9 19.15 12.75 19.1 12.5 19.0 11.1 18.45 11.0 18.45 8.0 18.25 6.05 17.95 4.85 17.65 4.75 17.65 Q5.6 18.05 7.4 19.8 L10.15 21.85 11.5 22.3 10.4 22.45 9.45 22.65 10.95 23.2 12.25 23.3" fill="#6e8693" fill-rule="evenodd" stroke="none"/>
      <path d="M42.05 9.8 L42.0 9.15 41.65 8.45 38.65 4.6 Q38.65 5.15 39.4 6.95 L40.15 9.05 40.1 9.05 40.15 9.25 40.2 9.3 41.75 11.85 41.75 11.7 42.05 9.8 M44.05 10.55 L43.65 11.75 42.85 13.7 42.65 13.7 Q38.95 15.6 36.95 17.8 L36.9 17.9 36.55 17.3 Q35.4 15.8 33.9 14.45 L33.7 14.3 33.75 14.55 34.05 15.9 34.45 17.45 34.45 18.5 31.8 17.8 29.4 17.05 28.95 16.95 28.85 16.65 28.45 16.0 Q27.9 14.65 27.9 13.2 L27.85 10.3 Q25.7 11.35 23.9 12.45 L21.8 9.25 21.45 8.75 Q18.2 4.6 13.45 3.65 L14.55 6.5 Q15.5 9.25 16.35 10.3 L17.4 10.55 18.6 11.15 20.2 12.3 19.1 12.0 15.95 11.6 20.0 12.9 Q21.25 13.4 21.65 14.0 18.3 16.4 16.1 19.4 L14.35 18.15 13.65 17.4 Q10.7 14.15 9.5 12.15 10.7 13.15 12.6 14.05 L14.6 14.9 14.9 15.0 14.7 14.65 12.8 11.45 8.9 4.2 Q7.45 1.55 6.3 0.7 L8.85 0.55 Q10.95 0.6 15.0 2.0 16.9 2.65 18.4 3.45 19.4 4.5 20.25 5.95 L20.7 6.7 21.0 6.85 20.7 6.7 20.25 5.95 20.8 6.6 21.0 6.85 21.15 7.05 22.85 9.1 24.5 10.95 24.5 11.1 24.6 10.7 24.4 8.95 24.25 8.4 Q23.8 6.8 23.25 6.4 L26.8 8.45 24.95 5.65 24.0 4.1 Q22.95 2.05 22.6 1.0 L27.25 2.3 30.3 3.2 Q35.35 4.9 37.75 6.7 L37.55 6.15 37.6 6.2 37.15 3.25 36.9 0.9 Q41.65 5.05 43.45 8.95 L43.85 10.0 43.95 10.25 44.05 10.55 M48.85 34.3 L48.8 34.0 48.55 32.85 Q48.15 31.35 47.4 30.25 L47.35 30.2 46.95 29.6 46.3 29.0 46.05 28.8 Q44.4 27.55 42.0 27.45 L41.3 27.45 41.45 27.3 42.55 27.1 43.8 26.95 42.8 25.95 Q42.3 25.55 41.7 25.4 L40.1 25.1 39.6 25.05 39.0 25.05 38.15 25.3 Q38.55 24.45 39.7 23.7 L40.75 23.1 41.1 22.95 42.6 22.55 42.7 22.55 43.9 22.45 Q46.1 22.7 47.85 24.0 L48.25 24.35 46.3 24.0 44.1 24.3 43.1 24.7 Q45.3 24.95 47.1 27.1 L47.45 27.55 48.95 30.1 49.6 31.5 50.2 33.35 50.05 34.35 50.0 34.7 50.0 34.75 49.2 37.65 48.9 38.45 49.05 37.65 49.1 37.25 49.25 36.1 49.15 35.35 48.9 34.45 48.85 34.3 M52.85 22.5 Q51.2 21.05 48.6 20.7 L48.55 20.7 47.2 20.65 44.3 20.95 42.65 21.3 43.75 20.55 Q41.25 20.5 39.5 20.6 L38.8 20.55 39.3 20.15 40.05 19.5 41.5 18.5 42.8 17.6 43.2 17.6 43.35 17.6 43.85 17.6 44.8 17.65 46.6 17.9 45.6 18.3 42.9 19.5 42.9 19.75 43.7 19.75 45.0 19.6 46.25 19.55 48.5 19.7 Q49.9 19.85 51.0 20.25 L51.2 20.45 52.85 22.5 M43.75 20.55 L43.95 20.55 43.95 20.4 43.75 20.55 M32.25 9.15 L30.85 8.5 27.35 7.1 28.55 9.05 28.85 9.55 Q30.1 11.45 30.1 12.1 L32.4 14.65 32.35 11.5 38.05 15.3 37.55 13.35 37.05 11.6 38.1 11.65 39.0 12.0 Q39.5 12.1 39.75 12.35 L39.8 12.1 39.9 12.1 Q39.75 10.7 38.6 9.35 L37.0 7.9 Q34.0 5.65 27.9 3.75 L29.8 5.65 Q31.5 7.6 32.35 9.15 L32.25 9.15 M12.25 23.3 L10.95 23.2 9.45 22.65 10.4 22.45 11.5 22.3 10.15 21.85 7.4 19.8 Q5.6 18.05 4.75 17.65 L4.85 17.65 6.05 17.95 8.0 18.25 11.0 18.45 11.1 18.45 12.5 19.0 12.75 19.1 12.9 19.15 14.25 19.7 Q13.4 20.45 12.95 22.05 12.65 23.15 12.25 23.3 L12.25 23.25 12.15 23.3 12.25 23.3" fill="#a3bdc2" fill-rule="evenodd" stroke="none"/>
      <path d="M42.05 9.8 L41.75 11.7 41.75 11.85 40.2 9.3 40.15 9.25 40.1 9.05 40.15 9.05 39.4 6.95 Q38.65 5.15 38.65 4.6 L41.65 8.45 42.0 9.15 42.05 9.8 M21.65 14.0 Q21.25 13.4 20.0 12.9 L15.95 11.6 19.1 12.0 20.2 12.3 18.6 11.15 17.4 10.55 16.35 10.3 Q15.5 9.25 14.55 6.5 L13.45 3.65 Q18.2 4.6 21.45 8.75 L21.8 9.25 23.9 12.45 21.65 14.0 M51.0 20.25 Q49.9 19.85 48.5 19.7 L46.25 19.55 45.0 19.6 43.7 19.75 42.9 19.75 42.9 19.5 45.6 18.3 46.6 17.9 48.3 18.45 Q49.4 18.9 50.3 19.65 L51.0 20.25 M50.2 33.35 L49.6 31.5 48.95 30.1 47.45 27.55 47.1 27.1 Q45.3 24.95 43.1 24.7 L44.1 24.3 46.3 24.0 48.25 24.35 48.3 24.35 48.5 24.5 49.45 25.6 50.2 27.1 50.25 27.2 Q50.65 28.2 50.6 29.4 L50.6 29.55 Q50.6 31.35 50.2 33.35 M32.25 9.15 L32.35 9.15 Q31.5 7.6 29.8 5.65 L27.9 3.75 Q34.0 5.65 37.0 7.9 L38.6 9.35 Q39.75 10.7 39.9 12.1 L39.8 12.1 39.75 12.35 Q39.5 12.1 39.0 12.0 L38.1 11.65 37.05 11.6 37.55 13.35 38.05 15.3 32.35 11.5 32.4 14.65 30.1 12.1 Q30.1 11.45 28.85 9.55 L28.55 9.05 27.35 7.1 30.85 8.5 32.25 9.15" fill="#dfecee" fill-rule="evenodd" stroke="none"/>
      <path d="M41.1 22.95 Q41.7 22.55 42.45 22.55 L42.6 22.55 41.1 22.95 M43.75 20.55 L43.95 20.4 43.95 20.55 43.75 20.55 M12.25 23.3 L12.15 23.3 12.25 23.25 12.25 23.3 M11.65 32.1 L11.6 32.6 11.65 32.85 11.85 34.3 Q13.95 34.85 15.7 35.75 L14.55 36.05 12.4 36.35 10.65 36.2 8.7 34.5 8.0 34.0 Q9.25 32.9 11.65 32.1" fill="#909ea6" fill-rule="evenodd" stroke="none"/>
      <path d="M28.85 16.65 L28.95 16.95 29.15 17.25 29.6 17.95 29.45 18.75 28.55 22.1 Q26.0 22.9 24.85 23.75 L24.85 23.8 Q23.15 25.1 23.15 27.2 L23.15 27.3 23.15 27.95 22.75 27.5 22.65 27.35 22.5 26.7 Q22.55 25.0 24.15 23.6 L24.55 23.25 Q25.45 22.6 26.3 22.25 27.25 21.85 27.9 21.6 L28.2 20.6 28.4 19.85 28.75 17.5 28.8 16.9 28.85 16.65 M15.0 20.95 Q16.15 20.8 15.7 19.9 L16.4 20.15 17.1 20.35 18.5 20.8 19.35 21.1 19.85 21.8 20.0 22.7 19.95 23.6 19.75 25.1 19.55 27.75 19.6 29.1 Q19.65 30.95 20.25 31.55 L21.9 32.15 22.4 32.3 22.45 33.15 21.2 32.8 20.8 32.65 Q19.45 32.1 18.9 31.15 L18.8 29.45 18.8 27.85 19.25 24.15 19.35 23.0 19.3 22.35 Q18.7 21.75 17.3 21.4 L16.4 21.2 15.65 21.05 15.0 20.95" fill="#4c295d" fill-rule="evenodd" stroke="none"/>
      <path d="M16.1 19.4 Q18.3 16.4 21.65 14.0 L23.9 12.45 Q25.7 11.35 27.85 10.3 L27.9 13.2 Q27.9 14.65 28.45 16.0 L28.85 16.65 28.8 16.9 28.75 17.5 28.4 19.85 28.2 20.6 27.9 21.6 Q27.25 21.85 26.3 22.25 25.45 22.6 24.55 23.25 L23.25 21.1 23.1 20.85 23.0 15.1 Q22.8 15.15 22.7 15.3 L19.6 17.95 17.3 20.15 17.1 20.35 16.4 20.15 15.7 19.9 16.1 19.4 M36.45 51.7 L36.75 51.85 36.55 52.1 Q36.45 52.1 35.5 52.65 L34.35 53.15 34.1 52.0 33.7 50.8 36.45 51.7" fill="#f1cbf3" fill-rule="evenodd" stroke="none"/>
      <path d="M-0.95 0.5 L-0.3 0.35 2.25 0.15 2.95 0.2 3.5 0.55 5.5 1.75 -0.95 0.8 -0.95 0.5" fill="#b6c8cb" fill-rule="evenodd" stroke="none"/>
      <path d="M25.05 29.55 L29.25 32.25 28.75 32.75 28.65 32.7 27.1 31.85 26.2 31.35 25.45 30.95 25.35 31.35 Q25.35 32.9 26.1 34.0 26.75 34.95 27.3 34.95 L28.25 34.9 28.4 35.15 28.75 35.35 28.9 35.35 29.35 35.2 29.6 35.1 30.35 34.15 30.75 33.95 30.7 33.9 30.55 33.85 30.55 33.75 30.85 33.15 30.95 33.15 31.95 33.7 33.1 34.25 34.3 34.85 34.75 35.05 33.95 35.3 32.7 35.7 29.7 36.15 29.5 36.15 Q28.05 36.05 26.85 35.45 L25.9 34.8 Q24.6 33.6 24.65 31.45 24.65 30.65 25.0 29.65 L25.0 29.6 25.05 29.55 M38.3 52.55 L38.7 52.15 39.15 51.75 40.45 50.7 40.55 50.65 40.6 50.45 40.8 49.95 41.1 49.2 41.0 50.8 40.9 52.6 40.25 53.45 39.9 53.95 38.5 53.95 38.3 52.55 M22.45 53.95 L21.55 52.6 22.4 52.9 22.65 53.0 23.65 53.0 24.0 53.05 24.15 53.1 25.9 53.25 27.8 53.45 28.6 53.5 29.15 53.6 29.2 53.95 22.45 53.95 M31.3 34.35 L30.95 34.5 30.95 34.6 31.7 34.7 32.35 34.6 32.2 34.55 31.3 34.35" fill="#d42956" fill-rule="evenodd" stroke="none"/>
      <path d="M30.35 34.15 L30.5 33.9 30.55 33.85 30.7 33.9 30.75 33.95 30.35 34.15 M28.25 34.9 L27.3 34.95 Q26.75 34.95 26.1 34.0 25.35 32.9 25.35 31.35 L25.45 30.95 26.2 31.35 27.1 31.85 28.65 32.7 28.75 32.75 28.75 32.8 Q28.3 33.45 28.3 34.3 L28.25 34.45 28.2 34.6 28.25 34.9 M31.3 34.35 L32.2 34.55 32.35 34.6 31.7 34.7 30.95 34.6 30.95 34.5 31.3 34.35 M28.1 33.05 L27.25 32.4 26.75 32.25 26.0 31.95 25.95 31.95 25.95 32.0 26.15 32.3 26.5 32.7 27.55 33.4 27.6 33.4 27.7 33.4 28.05 33.45 28.1 33.05" fill="#d96598" fill-rule="evenodd" stroke="none"/>
      <path d="M29.25 32.25 L29.55 32.45 30.45 32.95 30.85 33.15 30.55 33.75 30.55 33.85 30.5 33.9 30.35 34.15 29.6 35.1 29.35 35.2 28.9 35.35 28.75 35.35 28.4 35.15 28.25 34.9 28.2 34.6 28.25 34.45 28.3 34.3 Q28.3 33.45 28.75 32.8 L28.75 32.75 29.25 32.25 M29.2 33.3 L29.3 33.1 29.15 33.05 29.1 33.0 29.05 33.15 28.9 33.1 28.85 33.15 28.45 33.45 28.45 33.5 28.4 33.75 28.65 34.05 28.65 34.1 28.5 34.5 28.5 34.6 28.85 34.85 28.9 34.85 Q29.5 34.9 30.1 33.75 L30.2 33.55 29.85 33.35 29.6 33.9 29.35 34.15 28.95 34.0 29.1 33.8 29.2 33.4 29.2 33.3" fill="#310108" fill-rule="evenodd" stroke="none"/>
      <path d="M24.25 28.9 L24.6 29.2 24.65 29.25 24.95 29.5 25.05 29.55 25.0 29.6 25.0 29.65 Q24.65 30.65 24.65 31.45 24.6 33.6 25.9 34.8 L26.85 35.45 Q28.05 36.05 29.5 36.15 L29.7 36.15 32.7 35.7 33.95 35.3 34.75 35.05 35.45 35.35 Q32.0 36.65 30.0 36.75 L29.5 36.75 29.4 36.75 27.8 36.5 27.45 36.4 Q26.1 36.0 25.25 35.25 L24.65 34.4 24.6 34.3 Q23.8 32.9 23.8 31.3 L23.95 30.3 24.25 28.9" fill="#3a0606" fill-rule="evenodd" stroke="none"/>
      <path d="M37.35 39.15 L35.85 39.55 35.45 39.5 33.75 38.85 33.15 38.5 32.25 37.9 34.75 36.9 34.85 36.95 35.95 37.75 36.9 38.3 37.35 39.15 M32.35 41.45 L32.1 41.55 31.5 41.7 31.35 41.6 31.2 41.4 31.1 41.2 31.0 40.95 31.6 41.0 33.15 41.1 32.35 41.45" fill="#fffcee" fill-rule="evenodd" stroke="none"/>
      <path d="M23.5 42.5 L22.55 38.85 22.0 37.2 21.95 37.05 21.3 35.1 21.3 34.8 21.75 34.7 Q22.6 34.7 24.6 35.6 L25.0 35.8 25.6 36.5 26.65 37.95 27.65 39.6 27.9 40.05 28.25 40.7 26.6 41.35 25.7 41.7 25.35 41.85 23.5 42.5" fill="#bf7af3" fill-rule="evenodd" stroke="none"/>
      <path d="M29.2 33.3 L29.2 33.4 29.1 33.8 28.95 34.0 28.8 34.05 28.65 34.05 28.4 33.75 28.45 33.5 28.45 33.45 28.85 33.15 28.9 33.1 29.05 33.15 29.2 33.3" fill="#f5def7" fill-rule="evenodd" stroke="none"/>
      <path d="M29.05 33.15 L29.1 33.0 29.15 33.05 29.3 33.1 29.2 33.3 29.05 33.15 M28.95 34.0 L29.35 34.15 29.6 33.9 29.85 33.35 30.2 33.55 30.1 33.75 Q29.5 34.9 28.9 34.85 L28.85 34.85 28.5 34.6 28.5 34.5 28.65 34.1 28.55 34.4 Q28.55 34.7 28.85 34.7 L29.4 34.4 29.4 34.35 29.0 34.2 28.8 34.05 28.95 34.0" fill="#4d040c" fill-rule="evenodd" stroke="none"/>
      <path d="M28.1 33.05 L28.05 33.45 27.7 33.4 27.6 33.4 27.55 33.4 26.5 32.7 26.15 32.3 25.95 32.0 25.95 31.95 26.0 31.95 26.75 32.25 27.25 32.4 28.1 33.05" fill="#f0a8d3" fill-rule="evenodd" stroke="none"/>
      <path d="M28.65 34.1 L28.65 34.05 28.8 34.05 29.0 34.2 29.4 34.35 29.4 34.4 28.85 34.7 Q28.55 34.7 28.55 34.4 L28.65 34.1" fill="#8e1758" fill-rule="evenodd" stroke="none"/>
      <path d="M34.85 40.1 L35.1 40.1 34.65 40.2 34.45 40.3 34.4 40.3 34.25 40.35 34.15 40.4 33.3 40.45 32.65 40.45 30.65 40.1 30.55 40.05 29.9 39.85 28.8 39.35 28.65 39.35 28.6 39.4 28.3 39.45 28.2 39.45 28.25 38.55 28.35 38.4 28.55 38.05 28.55 38.15 28.65 38.4 29.05 38.8 30.3 39.5 30.8 39.7 30.95 39.75 34.85 40.1" fill="#773333" fill-rule="evenodd" stroke="none"/>
      <path d="M39.05 38.25 L39.35 38.45 40.25 39.35 40.8 40.45 41.4 42.1 41.45 42.35 41.2 42.2 40.35 42.0 39.4 41.85 39.3 42.85 39.2 43.8 39.2 44.7 40.5 43.8 40.8 43.6 41.55 42.95 41.85 44.1 41.85 44.2 41.75 44.3 40.55 45.0 38.55 46.15 37.9 46.6 38.45 45.15 38.45 45.1 38.6 44.2 38.65 43.2 38.55 41.5 38.25 39.65 37.75 38.1 37.1 37.7 37.1 37.65 37.65 37.65 38.35 37.85 39.05 38.25 M18.5 37.45 L18.8 37.45 Q19.25 37.45 19.95 38.15 L21.0 39.85 21.25 40.45 21.5 41.2 22.1 42.85 22.6 44.15 24.4 47.9 24.5 47.95 18.55 46.95 15.95 46.45 15.55 46.4 Q15.75 49.5 16.6 52.0 L17.3 53.95 13.85 53.95 14.25 53.3 Q15.05 51.75 15.05 50.5 15.0 47.8 14.55 46.0 L15.2 45.1 15.75 43.5 15.65 43.15 15.3 41.8 14.9 40.65 12.75 38.3 13.3 38.1 17.1 37.45 18.5 37.45 M19.95 45.95 L20.5 46.05 21.45 46.25 21.9 46.25 22.0 46.05 21.35 44.35 20.6 43.0 18.95 43.45 18.75 43.5 18.3 43.65 Q16.7 44.25 16.05 44.8 16.5 45.25 18.8 45.7 L19.95 45.95" fill="#6136a1" fill-rule="evenodd" stroke="none"/>
      <path d="M41.45 42.35 L41.55 42.95 40.8 43.6 40.5 43.8 39.2 44.7 39.2 43.8 39.3 42.85 39.4 41.85 40.35 42.0 41.2 42.2 41.45 42.35 M19.95 45.95 L18.8 45.7 Q16.5 45.25 16.05 44.8 16.7 44.25 18.3 43.65 L18.75 43.5 18.95 43.45 20.6 43.0 21.35 44.35 22.0 46.05 21.9 46.25 21.45 46.25 20.5 46.05 19.95 45.95" fill="#a760d2" fill-rule="evenodd" stroke="none"/>
      <path d="M41.75 44.3 L41.5 44.95 41.35 45.3 40.9 46.25 40.8 46.35 40.55 49.4 40.3 49.8 39.6 50.4 39.35 50.65 38.15 51.75 38.1 51.4 36.25 50.55 36.15 50.5 35.7 50.3 34.25 49.8 33.35 49.5 33.4 49.5 33.45 49.5 33.6 49.4 34.8 48.65 37.9 46.6 38.55 46.15 40.55 45.0 41.75 44.3 M40.25 53.45 L40.2 53.95 39.9 53.95 40.25 53.45 M29.25 52.7 L27.8 52.55 27.6 52.55 25.9 52.35 23.55 52.05 23.5 52.05 23.45 52.0 23.35 51.75 22.9 50.55 21.9 49.4 18.55 46.95 24.5 47.95 24.6 47.95 24.7 47.95 24.85 48.0 26.55 48.35 28.0 48.6 31.55 49.2 33.2 49.45 33.2 49.5 33.3 49.5 33.15 49.6 33.05 49.65 32.1 50.35 31.9 50.45 31.6 50.7 31.55 50.75 29.75 52.25 29.25 52.7" fill="#c0e1f0" fill-rule="evenodd" stroke="none"/>
      <path d="M12.35 47.35 L13.85 46.6 14.55 46.0 Q15.0 47.8 15.05 50.5 15.05 51.75 14.25 53.3 L13.85 53.95 11.3 53.95 11.65 53.3 Q12.5 51.6 12.55 49.5 L12.35 47.35" fill="#1f2231" fill-rule="evenodd" stroke="none"/>
      <path d="M38.15 51.75 L38.2 51.95 37.0 52.9 36.85 53.0 35.8 53.75 35.8 53.95 30.95 53.95 29.95 53.75 29.15 53.5 29.15 52.8 29.25 52.7 29.75 52.25 31.55 50.75 31.6 50.7 31.9 50.45 32.1 50.35 33.05 49.65 33.15 49.6 33.35 49.5 34.25 49.8 35.7 50.3 36.15 50.5 36.25 50.55 38.1 51.4 38.15 51.75 M36.45 51.7 L33.7 50.8 34.1 52.0 34.35 53.15 35.5 52.65 Q36.45 52.1 36.55 52.1 L36.75 51.85 36.45 51.7" fill="#e794d8" fill-rule="evenodd" stroke="none"/>
      <path d="M38.2 51.95 L38.3 52.55 38.5 53.95 35.8 53.95 35.8 53.75 36.85 53.0 37.0 52.9 38.2 51.95 M29.15 53.6 L29.15 53.5 29.95 53.75 30.95 53.95 29.2 53.95 29.15 53.6" fill="#b656aa" fill-rule="evenodd" stroke="none"/>
      <path d="M48.7 34.0 L48.35 33.9 46.3 33.7 45.75 33.75 44.5 33.8 42.05 34.1 M-0.95 31.75 L1.3 31.25" fill="none" stroke="#3e3551" stroke-linecap="round" stroke-linejoin="round" stroke-width="1.0"/>
      <path d="M30.25 43.9 L30.4 43.9 M36.85 38.25 L36.85 38.2 36.8 37.7 36.85 37.6 Q36.9 37.15 37.3 36.4 L37.4 36.35 37.45 36.25 M25.7 41.7 L26.5 42.45 27.15 42.85 Q28.65 43.7 30.2 43.9 L30.25 43.9 M36.9 38.3 L37.35 39.15" fill="none" stroke="#481616" stroke-linecap="round" stroke-linejoin="round" stroke-width="1.0"/>
      <path d="M30.2 43.9 L29.8 44.45 28.9 45.4" fill="none" stroke="#6d2521" stroke-linecap="round" stroke-linejoin="round" stroke-width="1.0"/>
      <path d="M21.0 6.85 L20.7 6.7 20.25 5.95 Q19.4 4.5 18.4 3.45 M40.75 23.1 L41.1 22.95 Q41.7 22.55 42.45 22.55 L42.6 22.55 42.7 22.55 43.9 22.45 M42.8 17.6 L41.9 17.7 39.65 18.15 Q38.55 18.55 37.55 19.1 36.75 19.6 36.1 20.25 M44.8 17.65 L43.85 17.6 43.35 17.6 43.2 17.6 42.8 17.6" fill="none" stroke="#3e5b7b" stroke-linecap="round" stroke-linejoin="round" stroke-width="1.0"/>
      <path d="M28.85 16.65 L28.95 16.95 M42.65 30.4 L43.3 30.7 43.25 31.0 42.5 33.1 42.35 33.4 42.05 34.1 41.1 35.9 40.35 37.1 40.15 37.35 39.35 38.45 40.25 39.35 40.8 40.45 41.4 42.1 41.45 42.35 41.55 42.95 41.85 44.1 41.85 44.2 42.7 43.6 42.55 45.75 42.5 46.8 42.45 47.6 41.75 53.95 M51.2 20.45 L52.1 20.4 52.65 20.35 53.85 20.35 54.9 20.45 M52.6 41.8 L53.7 39.75 54.9 37.25 M54.9 36.65 L53.85 35.65 50.3 34.45 50.05 34.35 M37.45 36.25 L38.25 36.6 38.6 37.3 39.05 38.25 39.35 38.45 M38.2 51.95 L38.3 52.55 M41.75 44.3 L41.85 44.2 M46.2 47.65 L45.75 47.9 43.0 46.95 42.6 46.8 42.5 46.8 M48.3 46.4 L48.9 46.05 49.7 45.6 51.8 43.05 52.2 42.5 52.4 42.15 52.6 41.8 M48.3 46.4 Q48.15 46.45 48.05 46.55 L46.35 47.5 46.2 47.65 M52.2 42.5 L52.55 42.5 54.9 42.2 M51.65 27.95 L50.6 29.4 M11.65 32.1 L11.65 31.95 M11.65 32.1 L11.6 32.6 11.65 32.85 11.85 34.3 Q13.95 34.85 15.7 35.75 L17.7 36.9 18.2 37.2 18.5 37.45 18.8 37.45 Q19.25 37.45 19.95 38.15 L21.0 39.85 Q22.05 41.2 22.7 42.75 L23.5 42.5 25.35 41.85 25.7 41.7 M-0.95 20.8 L-0.2 21.2 -0.15 21.25 Q3.65 23.5 6.65 26.5 L6.85 27.0 7.3 28.55 7.0 28.55 Q4.75 28.5 2.65 30.05 L2.15 30.45 1.5 31.1 1.3 31.25 1.45 31.25 Q3.1 31.5 4.75 32.15 L5.95 32.75 7.35 33.55 8.0 34.0 8.7 34.5 10.65 36.2 12.45 37.95 12.75 38.3 13.3 38.1 17.1 37.45 17.7 36.9 M6.75 49.55 L7.7 49.2 11.5 47.7 12.35 47.35 13.85 46.6 14.55 46.0 15.2 45.1 15.75 43.5 15.65 43.15 15.3 41.8 14.9 40.65 12.75 38.3 M0.7 46.0 L0.2 45.6 -0.05 45.45 -0.4 45.25 -0.95 45.85 M6.75 49.55 L5.65 49.95 4.75 49.7 4.15 49.45 2.5 47.7 2.3 47.5 1.6 46.75 0.7 46.0 M17.1 37.45 L18.5 37.45 M15.95 46.45 L15.55 46.4 M29.15 53.6 L29.15 53.5 M37.6 39.35 L37.35 39.15 M36.9 38.3 L36.85 38.25 M21.0 39.85 L21.25 40.45 21.5 41.2 22.1 42.85 22.6 44.15 24.4 47.9 24.5 47.95 24.6 47.95 M33.2 49.45 L33.3 49.5 33.35 49.5 33.4 49.5 33.45 49.5 33.6 49.4 M38.35 37.85 L39.05 38.25 M38.35 37.85 L37.65 37.65 37.1 37.65 37.1 37.7 37.75 38.1 38.25 39.65 38.55 41.5 38.65 43.2 38.6 44.2 38.45 45.1 38.45 45.15 37.9 46.6 M36.95 37.6 L37.05 37.3 37.4 36.35 M38.1 51.4 L38.15 51.75 M33.15 49.6 L33.35 49.5 M33.15 49.6 L33.3 49.5 33.2 49.5 33.2 49.45" fill="none" stroke="#28223c" stroke-linecap="round" stroke-linejoin="round" stroke-width="1.0"/>
      <path d="M44.05 10.55 L43.95 10.25 43.85 10.0 43.45 8.95 Q41.65 5.05 36.9 0.9 L37.15 3.25 37.6 6.2 37.55 6.15 35.55 4.65 Q33.6 3.45 29.1 1.65 L28.85 1.55 25.15 0.0 M43.25 31.0 L44.8 31.3 45.85 31.7 Q46.45 31.95 47.0 32.35 L47.65 32.8 48.7 34.0 48.85 34.3 48.9 34.45 49.15 35.35 49.25 36.1 49.1 37.25 49.05 37.65 48.9 38.45 49.2 37.65 50.0 34.75 50.0 34.7 50.05 34.35 50.2 33.35 Q50.6 31.35 50.6 29.55 L50.6 29.4 Q50.65 28.2 50.25 27.2 L50.2 27.1 49.45 25.6 48.5 24.5 48.3 24.35 48.25 24.35 47.85 24.0 Q46.1 22.7 43.9 22.45 L44.5 22.3 44.55 22.25 47.05 21.95 48.6 22.15 50.4 22.6 Q51.25 22.9 52.3 23.85 L52.8 24.35 52.9 24.45 53.4 25.15 53.75 25.95 53.85 26.3 53.85 25.9 53.75 24.9 53.65 24.25 53.5 23.65 53.45 23.6 52.85 22.5 51.2 20.45 51.0 20.25 50.3 19.65 Q49.4 18.9 48.3 18.45 L46.6 17.9 44.8 17.65 44.8 17.55 44.8 16.75 44.8 16.65 44.8 16.55 44.8 16.15 44.7 13.9 44.05 10.55 M12.6 0.0 Q15.2 0.9 17.15 2.25 L18.05 2.95 17.7 0.0 M18.4 3.45 L17.15 2.25 M-0.95 5.1 L-0.3 6.0 7.1 16.65 6.05 16.45 2.75 15.85 0.7 15.95 2.35 17.9 Q3.05 19.0 4.55 22.6 6.65 27.45 9.75 29.85 L8.9 30.15 Q7.5 30.75 6.85 31.2 L7.85 31.1 10.55 31.65 11.4 31.85 11.65 31.95 M10.65 36.2 L12.4 36.35 14.55 36.05 15.7 35.75 M8.0 34.0 Q9.25 32.9 11.65 32.1" fill="none" stroke="#272c3c" stroke-linecap="round" stroke-linejoin="round" stroke-width="1.0"/>
      <path d="M29.6 17.95 L31.35 20.45 31.9 21.05 32.45 21.65 32.75 22.0 33.0 22.3 33.8 23.1 34.1 23.5 37.25 26.6 37.3 26.65 38.65 27.75 42.65 30.4 M23.15 27.95 L23.85 28.6 24.25 28.9 24.6 29.2 24.65 29.25 24.95 29.5 25.05 29.55 29.25 32.25 29.55 32.45 30.45 32.95 30.85 33.15 30.95 33.15 31.95 33.7 33.1 34.25 34.3 34.85 34.75 35.05 35.45 35.35 35.7 35.45 37.45 36.25 M38.15 51.75 L38.2 51.95 M37.9 46.6 L38.55 46.15 40.55 45.0 41.75 44.3 M22.65 27.35 L22.75 27.5 23.15 27.95 M15.55 46.4 Q15.75 49.5 16.6 52.0 L17.3 53.95 M29.15 53.5 L29.15 52.8 29.25 52.7 29.75 52.25 31.55 50.75 31.6 50.7 31.9 50.45 32.1 50.35 33.05 49.65 33.15 49.6 M18.55 46.95 L15.95 46.45 M24.6 47.95 L24.7 47.95 24.85 48.0 26.55 48.35 28.0 48.6 31.55 49.2 33.2 49.45 M33.35 49.5 L33.45 49.5 M33.6 49.4 L34.8 48.65 37.9 46.6 M24.5 47.95 L18.55 46.95 M33.35 49.5 L34.25 49.8 35.7 50.3 36.15 50.5 36.25 50.55 38.1 51.4 M38.3 52.55 L38.5 53.95 M29.2 53.95 L29.15 53.6" fill="none" stroke="#373d67" stroke-linecap="round" stroke-linejoin="round" stroke-width="1.0"/>
      <path d="M11.65 31.95 L11.7 31.0 11.85 29.5 Q12.25 27.0 13.1 24.7 L13.2 24.5 13.4 24.1 Q14.05 22.5 15.0 20.95 16.15 20.8 15.7 19.9 M22.45 33.15 L22.4 32.3 22.2 30.6 22.5 27.6 22.55 27.35 22.6 27.3 22.65 27.35 M25.0 35.8 L23.9 34.55 22.45 33.15 M25.0 35.8 L25.6 36.5 26.65 37.95 27.65 39.6 27.9 40.05 28.25 40.7 26.6 41.35 25.7 41.7" fill="none" stroke="#2c224d" stroke-linecap="round" stroke-linejoin="round" stroke-width="1.0"/>
      <path d="M16.1 19.4 Q18.3 16.4 21.65 14.0 L23.9 12.45 Q25.7 11.35 27.85 10.3 L27.9 13.2 Q27.9 14.65 28.45 16.0 L28.85 16.65 M28.95 16.95 L29.15 17.25 29.6 17.95 M54.9 25.1 L53.85 25.9 M51.65 27.95 Q52.55 26.85 53.75 25.95 M15.7 19.9 L16.1 19.4" fill="none" stroke="#4a1843" stroke-linecap="round" stroke-linejoin="round" stroke-width="1.0"/>
      <path d="M46.2 47.65 L46.2 48.05 46.2 48.15 46.15 51.3 46.75 52.65 47.4 53.95 M-0.05 45.45 L-0.95 46.15 M11.3 53.95 L11.65 53.3 Q12.5 51.6 12.55 49.5 L12.35 47.35" fill="none" stroke="#15082e" stroke-linecap="round" stroke-linejoin="round" stroke-width="1.0"/>
      <path d="M30.4 43.9 L32.8 42.8 33.5 42.35 Q36.35 40.8 37.6 39.35" fill="none" stroke="#72271e" stroke-linecap="round" stroke-linejoin="round" stroke-width="1.0"/>
    </g>
    <g id="shape2" transform="matrix(1.0, 0.0, 0.0, 1.0, 0.0, 0.0)">
      <path d="M50.5 0.0 Q53.95 0.0 53.95 3.3 L53.95 50.15 Q53.95 53.4 50.5 53.4 L3.3 53.4 Q0.0 53.4 0.0 50.15 L0.0 3.3 Q0.0 0.0 3.3 0.0 L50.5 0.0" fill="#000000" fill-opacity="0.003921569" fill-rule="evenodd" stroke="none"/>
    </g>
  </defs>
</svg>
