<?xml version="1.0" encoding="UTF-8" standalone="no"?>
<svg xmlns:ffdec="https://www.free-decompiler.com/flash" xmlns:xlink="http://www.w3.org/1999/xlink" ffdec:objectType="frame" height="55.0px" width="55.65px" xmlns="http://www.w3.org/2000/svg">
  <g transform="matrix(1.0, 0.0, 0.0, 1.0, 0.95, 0.75)">
    <clipPath id="clipPath0" transform="matrix(1.0, 0.0, 0.0, 1.0, 0.0, 0.0)">
      <path d="M50.5 0.0 Q53.95 0.0 53.95 3.3 L53.95 50.15 Q53.95 53.4 50.5 53.4 L3.3 53.4 Q0.0 53.4 0.0 50.15 L0.0 3.3 Q0.0 0.0 3.3 0.0 L50.5 0.0" fill="#000000" fill-rule="evenodd" stroke="none"/>
    </clipPath>
    <g clip-path="url(#clipPath0)">
      <use ffdec:characterId="2" height="55.0" transform="matrix(1.0, 0.0, 0.0, 1.0, -0.95, -0.75)" width="55.65" xlink:href="#shape1"/>
    </g>
    <use ffdec:characterId="3" height="53.4" transform="matrix(1.0, 0.0, 0.0, 1.0, 0.0, 0.0)" width="53.95" xlink:href="#shape2"/>
  </g>
  <defs>
    <g id="shape1" transform="matrix(1.0, 0.0, 0.0, 1.0, 0.95, 0.75)">
      <path d="M2.4 -0.25 L11.35 -0.25 11.35 0.15 11.35 0.4 Q11.35 2.0 11.8 3.05 L10.95 2.7 Q9.5 2.15 8.4 1.55 L6.8 0.5 2.4 -0.25 M22.3 -0.25 L23.15 -0.25 25.4 3.15 24.85 2.95 24.75 2.9 23.75 1.75 23.4 1.25 22.3 -0.25 M31.1 -0.25 L32.45 -0.25 32.95 1.1 32.7 1.25 32.0 1.2 31.1 -0.25 M40.1 -0.25 L42.85 -0.25 43.7 5.05 Q43.4 4.35 43.05 4.35 L43.0 4.4 40.85 4.55 40.35 1.15 40.1 -0.25 M2.4 20.8 L1.8 18.9 6.4 18.6 11.1 18.9 11.7 19.05 14.9 22.6 14.95 23.75 12.8 22.5 12.65 22.6 Q8.95 20.4 4.6 20.4 3.55 20.4 2.55 20.75 L2.4 20.8 M0.75 1.05 L-0.45 1.05 -0.45 -0.25 0.9 -0.25 Q0.75 0.25 0.75 1.05 M40.95 41.8 L41.4 42.7 41.4 43.1 38.8 43.25 Q32.65 43.25 31.3 42.5 L30.2 41.45 30.2 41.4 29.0 39.95 Q27.9 38.8 26.8 38.5 L26.6 38.45 23.75 37.95 18.55 36.55 14.15 34.1 16.6 31.85 17.45 30.9 18.1 31.9 21.3 31.85 17.9 33.25 23.95 35.1 24.0 35.1 24.65 35.35 32.1 42.05 32.35 42.05 33.4 42.05 33.6 41.8 37.8 42.15 40.95 41.8" fill="#200e0e" fill-rule="evenodd" stroke="none"/>
      <path d="M13.95 -0.25 L16.5 -0.25 17.55 1.6 17.6 1.75 17.6 1.85 17.75 2.4 17.4 2.25 16.75 2.1 16.0 2.2 15.7 2.2 15.4 1.6 14.8 0.35 14.65 0.3 13.95 -0.25 M39.45 2.05 L39.6 2.8 39.55 2.85 37.25 4.3 37.85 3.7 38.4 3.1 39.45 2.05 M34.45 5.85 L34.95 5.95 34.55 6.25 34.45 5.85" fill="#bd3e3e" fill-rule="evenodd" stroke="none"/>
      <path d="M16.5 -0.25 L17.6 -0.25 18.35 1.2 19.05 2.6 16.1 5.7 15.25 6.6 Q12.65 5.85 10.4 4.9 10.7 4.55 11.15 4.55 L12.2 5.05 12.85 4.7 13.3 4.0 Q12.7 2.6 12.7 1.65 L12.7 0.85 12.7 0.7 Q12.8 0.45 13.1 0.45 L13.45 0.5 13.75 0.55 13.85 0.55 14.65 0.3 14.8 0.35 15.4 1.6 15.7 2.2 16.0 2.2 16.75 2.1 17.4 2.25 17.75 2.4 17.6 1.85 17.6 1.75 17.55 1.6 16.5 -0.25 M40.85 4.55 L40.85 4.8 39.75 3.05 39.6 2.8 39.45 2.05 40.35 1.15 40.85 4.55 M34.2 6.5 L34.2 5.8 34.45 5.85 34.55 6.25 34.2 6.5 M5.1 7.45 L3.15 6.25 0.9 4.85 1.05 3.9 1.05 3.7 1.5 3.65 Q4.3 5.05 5.65 6.45 L5.55 6.4 5.1 7.45 M2.7 18.0 L2.55 17.45 2.15 15.3 1.95 12.15 Q1.95 11.65 2.4 11.5 L3.75 11.35 4.2 11.4 4.45 11.5 5.05 11.8 5.1 11.65 5.15 10.9 5.25 10.25 5.8 11.6 5.8 11.65 4.95 13.65 4.8 13.85 4.65 14.2 4.8 14.45 6.6 17.55 2.7 18.0" fill="#aa2424" fill-rule="evenodd" stroke="none"/>
      <path d="M12.0 -0.25 L13.95 -0.25 14.65 0.3 13.85 0.55 13.75 0.55 13.45 0.5 13.1 0.45 Q12.8 0.45 12.7 0.7 L12.7 0.85 12.7 1.65 Q12.7 2.6 13.3 4.0 L12.85 4.7 12.2 5.05 11.15 4.55 Q10.7 4.55 10.4 4.9 L8.7 4.1 8.55 3.0 9.2 3.25 11.35 3.65 12.4 3.55 12.4 3.35 Q11.95 3.05 11.95 0.8 L12.0 -0.25 M38.9 -0.25 L40.1 -0.25 40.35 1.15 39.45 2.05 39.4 1.8 38.9 -0.25 M1.55 18.15 L0.6 18.25 0.6 17.25 0.45 15.3 0.4 14.75 0.35 13.9 0.35 12.05 1.1 11.5 1.45 11.2 2.25 10.8 3.45 10.6 3.9 10.6 4.05 10.75 4.05 9.1 Q4.0 7.75 3.55 6.8 L1.45 5.75 Q0.6 5.2 0.45 5.2 L0.15 5.45 0.15 5.4 -0.05 3.85 0.7 3.8 1.05 3.7 1.05 3.9 0.9 4.85 3.15 6.25 5.1 7.45 4.8 8.2 4.65 8.5 4.55 8.65 5.25 10.25 5.15 10.9 5.1 11.65 5.05 11.8 4.45 11.5 4.2 11.4 3.75 11.35 2.4 11.5 Q1.95 11.65 1.95 12.15 L2.15 15.3 2.55 17.45 2.7 18.0 1.55 18.15 M33.3 2.15 L33.55 2.95 34.0 4.25 32.75 2.35 33.3 2.15 M34.2 5.0 L34.45 5.85 34.2 5.8 34.2 5.0" fill="#741e1e" fill-rule="evenodd" stroke="none"/>
      <path d="M2.4 -0.25 L6.8 0.5 8.4 1.55 Q9.5 2.15 10.95 2.7 L11.8 3.05 Q11.35 2.0 11.35 0.4 L11.35 0.15 11.35 -0.25 12.0 -0.25 11.95 0.8 Q11.95 3.05 12.4 3.35 L12.4 3.55 11.35 3.65 9.2 3.25 8.55 3.0 8.7 4.1 4.2 1.2 3.95 1.2 3.0 1.15 0.75 1.05 Q0.75 0.25 0.9 -0.25 L2.4 -0.25 M1.8 18.9 L1.55 18.15 2.7 18.0 6.6 17.55 6.65 17.65 11.1 18.9 6.4 18.6 1.8 18.9 M0.6 18.25 L-0.45 18.4 -0.45 12.4 -0.4 12.4 0.35 11.6 1.65 10.6 2.75 9.95 2.55 9.25 1.65 6.15 -0.45 5.9 -0.45 3.9 -0.05 3.85 0.15 5.4 0.15 5.45 0.45 5.2 Q0.6 5.2 1.45 5.75 L3.55 6.8 Q4.0 7.75 4.05 9.1 L4.05 10.75 3.9 10.6 3.45 10.6 2.25 10.8 1.45 11.2 1.1 11.5 0.35 12.05 0.35 13.9 0.4 14.75 0.45 15.3 0.6 17.25 0.6 18.25 M40.95 41.8 L37.8 42.15 33.6 41.8 35.1 39.95 35.25 39.9 37.95 40.25 37.95 39.95 38.4 41.3 39.4 40.85 39.5 40.2 39.6 39.2 40.95 41.8 M24.65 35.35 L24.0 35.1 24.3 35.05 24.65 35.35 M23.95 35.1 L17.9 33.25 21.3 31.85 24.05 31.75 25.35 32.7 23.7 34.5 24.25 35.0 23.95 35.1 M32.95 1.1 L33.15 1.65 33.25 1.85 33.3 2.15 32.75 2.35 32.0 1.2 32.7 1.25 32.95 1.1 M30.7 27.3 L30.15 27.1 30.75 27.1 30.7 27.3" fill="#2e0505" fill-rule="evenodd" stroke="none"/>
      <path d="M23.15 -0.25 L24.35 -0.25 28.05 5.45 27.85 14.15 27.5 13.95 26.4 13.1 26.45 12.35 26.65 7.3 26.7 5.15 25.4 3.15 23.15 -0.25 M42.85 -0.25 L45.9 -0.25 46.65 8.2 43.55 16.55 42.4 16.65 41.45 18.85 43.0 12.0 43.4 10.35 43.6 9.5 44.05 7.45 43.7 5.05 42.85 -0.25" fill="#9891b8" fill-rule="evenodd" stroke="none"/>
      <path d="M24.35 -0.25 L24.8 -0.25 28.0 4.45 28.5 4.65 29.25 4.95 34.1 4.6 34.2 4.6 34.2 5.0 28.45 5.65 28.2 5.7 28.05 5.45 24.35 -0.25" fill="#e7f1ff" fill-rule="evenodd" stroke="none"/>
      <path d="M24.8 -0.25 L28.4 -0.25 28.5 0.5 28.65 2.6 28.65 3.05 28.5 4.65 28.0 4.45 24.8 -0.25 M46.25 -0.25 L46.9 -0.25 47.75 2.75 48.5 5.75 Q48.8 7.65 48.7 9.35 47.1 9.2 46.8 8.15 L46.8 7.85 46.7 5.85 46.25 -0.25 M54.2 50.2 L54.2 51.35 Q54.1 51.1 53.8 51.1 L53.65 51.35 Q53.15 52.05 53.8 51.9 L54.15 51.75 54.2 51.75 54.2 53.75 52.4 53.75 52.35 53.7 52.35 52.3 52.3 50.75 52.2 50.15 53.3 50.2 54.2 50.2 M50.7 53.75 L49.3 53.75 49.35 53.55 49.5 53.55 49.55 53.55 Q49.9 53.2 49.7 52.95 L49.65 52.95 49.55 52.85 49.6 52.7 49.8 52.1 49.9 51.7 50.55 51.7 50.7 53.75 M38.25 53.75 L36.6 53.75 37.15 52.6 37.5 51.8 38.2 50.3 38.2 51.65 38.25 53.75 M35.75 19.85 L34.75 21.85 25.6 17.9 32.2 18.15 35.75 19.85 M48.55 38.5 L48.7 38.7 49.7 40.4 50.65 41.95 47.4 42.4 46.2 41.85 44.0 38.95 43.95 38.9 46.45 38.7 47.8 38.6 48.55 38.5 M33.6 41.8 L33.4 42.05 32.35 42.05 32.55 41.55 32.6 41.45 32.95 41.75 32.95 41.65 33.05 41.4 33.7 40.45 34.45 39.75 35.05 39.25 37.15 37.75 37.85 38.4 38.35 39.05 38.95 39.95 38.9 39.2 38.95 39.05 39.05 39.3 39.5 40.2 39.4 40.85 38.4 41.3 37.95 39.95 37.6 38.85 35.25 39.9 35.1 39.95 33.6 41.8 M37.25 4.3 L39.55 2.85 39.55 3.15 36.0 5.75 Q35.55 6.1 35.25 6.4 L34.7 6.85 34.25 7.25 34.2 7.3 34.2 6.5 34.55 6.25 34.95 5.95 35.25 5.7 37.25 4.3 M28.45 5.65 L28.3 13.95 28.3 14.45 27.85 14.15 28.05 5.45 28.2 5.7 28.45 5.65 M40.1 14.75 L40.05 15.7 39.8 17.55 39.6 19.55 39.55 19.85 39.45 19.75 36.95 17.75 34.9 15.9 34.95 14.65 35.05 10.55 35.05 9.1 35.5 9.85 35.85 10.3 37.0 11.9 Q38.1 13.35 39.7 14.5 L40.1 14.75 M18.1 18.3 L19.1 18.5 19.3 18.55 22.2 18.9 22.45 19.15 24.3 21.35 24.75 21.95 24.75 24.35 24.1 24.65 22.9 25.25 18.1 18.3 M14.75 20.15 L15.15 20.1 15.6 20.0 15.65 19.95 16.9 21.6 20.2 26.0 21.3 27.65 21.5 27.7 21.4 27.8 20.95 28.4 14.75 20.15 M15.55 24.8 L19.75 29.7 19.9 29.7 19.15 30.65 18.9 31.1 18.85 31.1 18.7 31.1 17.9 30.15 17.15 29.05 17.1 29.0 16.35 27.85 16.05 27.45 15.55 26.65 15.55 24.8 M27.4 30.85 L27.6 30.7 28.35 30.4 30.25 31.7 31.2 32.3 Q33.9 33.8 36.95 34.1 L37.75 34.15 37.75 34.35 37.7 34.3 Q37.4 34.25 37.15 34.55 L37.0 34.9 36.85 35.45 36.95 36.3 37.35 36.75 37.4 36.75 37.35 36.8 34.35 38.3 34.2 38.2 33.65 37.7 Q34.25 37.65 34.6 37.2 L34.9 36.1 34.6 35.85 34.25 35.3 33.5 34.95 33.4 34.95 Q32.9 34.95 32.5 35.3 32.15 35.7 32.15 36.2 L32.15 36.25 30.55 34.5 Q31.2 34.25 31.2 33.3 L30.95 32.55 30.65 32.35 30.5 32.15 Q30.35 31.95 30.1 31.9 L29.65 31.8 Q29.1 31.8 28.75 32.15 L28.65 32.35 27.4 30.85 M28.5 33.6 L28.4 34.2 Q28.8 34.1 30.0 34.55 L30.45 35.05 32.35 37.2 32.55 37.45 33.65 38.75 33.75 38.85 33.35 39.5 33.2 39.75 32.3 41.35 32.3 41.2 32.5 39.85 32.45 39.2 32.35 38.55 31.45 37.55 30.05 36.45 27.65 35.0 26.2 34.2 25.8 34.15 24.65 34.25 24.6 34.25 25.75 33.2 25.9 33.05 26.3 32.6 27.1 31.8 27.35 31.55 28.45 32.75 28.45 32.85 28.4 33.05 28.45 33.4 28.5 33.6 M38.3 33.55 Q38.9 33.15 39.15 32.4 L39.25 32.45 39.3 32.45 39.25 33.45 39.25 33.5 38.3 33.65 38.2 33.6 38.3 33.55 M37.9 36.6 L38.25 35.85 38.45 36.15 38.5 36.15 38.15 36.85 37.95 37.0 37.75 37.15 37.5 36.9 37.75 36.75 37.9 36.6 M31.5 46.4 L31.8 46.75 31.85 46.75 31.6 46.3 31.15 45.5 31.05 45.3 31.9 46.4 34.7 49.75 33.95 49.75 32.55 49.75 31.55 50.2 31.65 52.9 31.45 53.2 30.05 49.45 31.35 49.4 31.65 49.3 Q32.55 49.05 32.55 48.85 L31.75 46.9 31.5 46.4" fill="#c4d7f3" fill-rule="evenodd" stroke="none"/>
      <path d="M32.45 -0.25 L32.95 -0.25 33.05 1.0 32.95 1.1 32.45 -0.25" fill="#3c1d1d" fill-rule="evenodd" stroke="none"/>
      <path d="M35.55 -0.25 L38.9 -0.25 39.4 1.8 39.45 2.05 38.4 3.1 37.85 3.7 37.25 4.3 35.25 5.7 34.95 5.95 34.45 5.85 34.2 5.0 34.2 4.6 34.0 4.25 33.55 2.95 33.3 2.15 Q34.2 1.7 35.2 0.25 L35.55 -0.25 M26.65 7.3 L26.45 12.35 23.85 6.2 23.8 6.0 19.05 2.6 18.35 1.2 19.3 1.1 21.9 1.45 22.15 1.55 22.8 2.25 23.2 3.0 24.35 5.3 Q25.0 6.65 25.2 6.7 L26.4 7.2 26.65 7.3" fill="#982b2b" fill-rule="evenodd" stroke="none"/>
      <path d="M17.6 -0.25 L22.3 -0.25 23.4 1.25 23.75 1.75 24.75 2.9 24.85 2.95 25.4 3.15 26.7 5.15 26.65 7.3 26.4 7.2 25.2 6.7 Q25.0 6.65 24.35 5.3 L23.2 3.0 22.8 2.25 22.15 1.55 21.9 1.45 19.3 1.1 18.35 1.2 17.6 -0.25 M32.95 -0.25 L35.55 -0.25 35.2 0.25 Q34.2 1.7 33.3 2.15 L33.25 1.85 33.15 1.65 32.95 1.1 33.05 1.0 32.95 -0.25 M40.85 4.8 L40.85 4.55 43.0 4.4 43.05 4.35 Q43.4 4.35 43.7 5.05 L44.05 7.45 43.6 9.5 43.35 9.05 40.85 4.8" fill="#4f1414" fill-rule="evenodd" stroke="none"/>
      <path d="M28.4 -0.25 L31.1 -0.25 32.0 1.2 32.75 2.35 34.0 4.25 34.2 4.6 34.1 4.6 29.25 4.95 28.5 4.65 28.65 3.05 28.65 2.6 28.5 0.5 28.4 -0.25 M49.3 53.75 L38.95 53.75 38.85 51.65 39.4 51.65 45.5 51.7 47.55 51.7 49.2 51.7 49.4 51.7 49.9 51.7 49.8 52.1 49.6 52.7 49.55 52.85 49.4 52.75 49.3 52.7 Q48.95 52.95 48.95 53.15 48.9 53.4 49.35 53.55 L49.3 53.75 M36.6 53.75 L34.25 53.75 34.0 50.4 33.95 49.75 34.7 49.75 35.85 49.8 38.15 49.8 38.2 50.3 37.5 51.8 37.15 52.6 36.6 53.75 M-0.45 34.85 L-0.45 30.2 4.7 35.5 5.05 35.9 5.7 36.55 5.85 37.55 5.95 38.4 6.85 45.9 7.7 53.4 7.75 53.7 3.65 51.75 1.05 36.25 -0.45 34.85 M40.2 13.55 L40.2 13.9 40.2 14.05 40.1 14.75 39.7 14.5 Q38.1 13.35 37.0 11.9 L35.85 10.3 35.5 9.85 35.05 9.1 35.1 8.35 35.25 6.4 Q35.55 6.1 36.0 5.75 L39.55 3.15 39.7 3.95 39.8 4.25 39.8 4.6 39.85 4.8 40.05 7.3 40.05 8.5 40.05 9.1 40.2 13.55 M39.5 23.0 L39.25 23.2 35.75 19.85 32.2 18.15 25.6 17.9 24.95 17.65 21.0 14.9 21.45 14.65 25.35 12.25 26.4 13.1 27.5 13.95 31.7 17.4 35.9 19.25 39.4 22.85 39.5 22.8 39.5 23.0 M43.95 38.9 L44.0 38.95 46.2 41.85 47.4 42.4 50.65 41.95 50.8 42.2 50.9 42.65 49.85 42.85 49.4 42.95 46.8 43.7 46.75 43.75 46.65 43.8 46.0 42.75 45.85 42.5 45.15 41.4 44.85 41.0 44.65 40.75 44.4 40.35 43.5 39.05 43.5 38.95 43.95 38.9 M14.15 34.1 L18.55 36.55 29.55 42.65 29.75 42.9 25.15 45.85 25.05 45.85 5.1 33.9 5.15 33.9 7.5 30.55 7.8 30.55 14.15 34.1 M18.1 18.3 L22.9 25.25 24.1 24.65 24.75 24.35 24.75 24.5 25.45 24.4 26.1 24.25 26.9 24.9 27.3 25.2 27.55 25.4 29.25 26.8 30.15 27.1 30.7 27.3 31.7 27.6 30.8 27.75 30.65 27.8 28.8 27.95 28.5 27.95 27.8 27.4 27.5 27.1 27.1 26.8 26.45 26.25 25.35 26.25 25.1 26.2 24.9 26.2 22.55 26.15 16.1 15.9 16.35 15.9 18.1 18.3 M37.5 27.7 L38.15 27.55 38.5 28.45 38.2 30.25 38.2 30.3 38.2 30.6 38.1 31.65 38.05 31.65 38.05 31.75 37.95 31.9 37.85 32.4 37.85 32.7 37.9 33.0 37.85 33.55 37.75 34.15 36.95 34.1 Q33.9 33.8 31.2 32.3 L30.25 31.7 28.35 30.4 29.1 30.1 28.4 30.25 27.3 30.4 26.6 29.9 25.05 28.75 24.7 28.8 20.8 29.05 20.65 28.9 18.95 26.6 16.05 22.8 15.95 22.65 14.8 21.05 14.75 20.15 20.95 28.4 21.4 27.8 21.5 27.7 22.4 27.7 26.65 27.45 29.1 30.1 Q31.4 29.25 33.8 28.6 L34.25 28.5 34.65 28.35 37.5 27.7 M19.9 29.7 L24.5 29.65 26.7 31.45 25.8 32.25 23.7 30.85 23.0 30.9 21.85 30.95 18.9 31.1 19.15 30.65 19.9 29.7 M27.0 31.15 L27.4 30.85 28.65 32.35 28.45 32.75 27.35 31.55 27.0 31.15 M36.2 31.35 Q36.2 30.85 35.8 30.45 35.45 30.1 35.05 30.1 L34.95 30.1 Q34.4 30.1 34.05 30.45 33.75 30.8 33.7 31.3 L33.6 31.45 33.45 31.7 Q33.45 33.0 35.0 33.0 35.75 33.0 36.0 32.7 L36.15 32.45 36.35 31.6 36.3 31.5 36.2 31.35 M30.55 34.5 L32.15 36.25 Q32.15 36.7 32.45 37.05 L32.5 37.05 Q32.9 37.45 33.4 37.45 L33.65 37.7 34.2 38.2 33.95 38.55 33.65 38.75 32.55 37.45 32.35 37.2 30.45 35.05 30.0 34.55 30.55 34.5 M36.55 52.05 Q36.7 51.4 36.05 51.2 34.65 52.15 36.3 52.25 L36.35 52.25 36.55 52.05 M39.95 52.65 L39.55 52.7 39.5 52.75 Q39.45 54.3 40.15 53.25 40.4 52.85 39.95 52.65" fill="#f7faff" fill-rule="evenodd" stroke="none"/>
      <path d="M45.9 -0.25 L46.25 -0.25 46.7 5.85 46.8 7.85 46.8 8.15 Q47.1 9.2 48.7 9.35 48.8 7.65 48.5 5.75 L47.75 2.75 46.9 -0.25 48.8 -0.25 49.05 6.6 49.15 9.5 46.0 15.75 45.15 17.4 44.35 22.55 42.7 23.5 39.65 25.3 39.15 25.55 34.7 23.0 33.4 22.4 24.8 18.55 24.75 18.5 20.25 15.7 20.2 15.65 20.0 15.5 20.1 15.45 21.0 14.9 24.95 17.65 25.6 17.9 34.75 21.85 35.75 19.85 39.25 23.2 39.5 23.0 39.6 24.5 43.5 22.3 44.4 16.9 43.35 17.15 43.3 17.15 42.15 20.4 39.5 23.0 39.5 22.8 41.85 20.6 43.25 16.9 42.4 16.65 43.55 16.55 46.65 8.2 45.9 -0.25 M38.95 53.75 L38.25 53.75 38.2 51.65 38.85 51.65 38.95 53.75 M7.75 53.75 L2.25 53.75 2.25 53.25 2.05 51.6 1.35 46.3 1.0 43.6 0.1 37.05 -0.45 36.55 -0.45 34.85 1.05 36.25 3.65 51.75 7.75 53.7 7.75 53.75 M39.6 2.8 L39.75 3.05 39.65 3.1 39.55 3.15 39.55 2.85 39.6 2.8 M47.25 11.9 Q47.45 11.1 48.0 10.25 L48.55 9.55 46.65 8.9 46.45 9.6 45.8 11.5 45.75 11.65 45.25 13.25 45.0 14.15 44.95 14.35 45.05 14.2 Q45.35 13.4 46.0 12.5 46.85 11.3 47.25 11.2 L47.25 11.9 M47.7 34.55 L48.55 34.6 50.95 34.75 52.75 34.85 52.95 34.85 53.1 34.95 50.55 36.45 43.55 35.95 42.15 35.55 43.55 34.3 45.9 34.45 47.7 34.55 M45.3 16.35 L45.15 17.4 45.3 16.35 M53.25 50.1 L53.3 50.2 52.2 50.15 52.05 50.15 53.15 49.8 53.25 50.1 M43.5 38.95 L43.5 39.05 44.4 40.35 44.65 40.75 44.85 41.0 45.15 41.4 45.85 42.5 46.0 42.75 46.65 43.8 46.75 43.75 46.9 44.3 47.1 44.7 47.7 46.25 45.3 41.75 45.0 41.4 44.45 40.75 44.3 40.55 43.35 39.1 43.3 38.95 43.5 38.95 M32.35 42.05 L32.1 42.05 24.65 35.35 24.3 35.05 24.25 35.0 23.7 34.5 25.35 32.7 24.05 31.75 21.3 31.85 18.1 31.9 17.45 30.9 16.65 29.75 15.55 28.15 15.55 28.05 15.55 27.15 15.55 26.65 16.05 27.45 16.35 27.85 17.1 29.0 17.15 29.05 17.9 30.15 18.7 31.1 18.85 31.1 18.9 31.1 21.85 30.95 23.0 30.9 23.7 30.85 25.8 32.25 26.7 31.45 24.5 29.65 19.9 29.7 19.75 29.7 15.55 24.8 15.55 24.75 14.95 24.2 14.95 23.75 14.9 22.6 14.8 21.05 15.95 22.65 16.05 22.8 18.95 26.6 20.65 28.9 20.8 29.05 24.7 28.8 25.05 28.75 26.6 29.9 27.3 30.4 28.4 30.25 29.1 30.1 28.35 30.4 27.6 30.7 27.4 30.85 27.0 31.15 26.7 31.45 27.0 31.15 27.35 31.55 27.1 31.8 26.3 32.6 25.9 33.05 25.75 33.2 24.6 34.25 24.65 34.25 25.8 34.15 26.2 34.2 27.65 35.0 30.05 36.45 31.45 37.55 32.35 38.55 32.45 39.2 32.5 39.85 32.3 41.2 32.3 41.35 33.2 39.75 33.35 39.5 33.75 38.85 33.65 38.75 33.95 38.55 34.2 38.2 34.35 38.3 34.2 38.4 33.8 38.9 33.4 39.55 33.35 39.6 33.35 39.95 33.3 39.9 33.2 39.8 33.15 39.95 32.5 41.3 32.6 41.4 32.6 41.45 32.55 41.55 32.35 42.05 M32.9 46.45 L35.85 49.8 34.7 49.75 31.9 46.4 31.05 45.3 30.95 45.2 30.65 44.7 30.35 44.2 30.0 43.65 29.65 43.1 28.95 43.55 27.8 44.4 26.4 45.35 25.3 45.95 27.9 49.0 29.8 51.05 29.25 49.6 Q28.9 48.3 28.9 47.4 L28.9 47.35 Q28.9 46.15 29.25 45.7 29.45 45.45 29.75 45.35 L30.4 45.25 30.75 45.55 31.3 46.15 31.5 46.4 31.75 46.9 32.55 48.85 Q32.55 49.05 31.65 49.3 L31.35 49.4 30.05 49.45 31.45 53.2 31.65 52.9 31.65 53.55 25.15 45.85 29.75 42.9 32.9 46.45 M16.1 15.9 L22.55 26.15 24.9 26.2 25.1 26.2 25.35 26.25 26.45 26.25 27.1 26.8 27.5 27.1 27.8 27.4 28.5 27.95 28.8 27.95 30.65 27.8 30.8 27.75 31.7 27.6 33.8 28.6 Q31.4 29.25 29.1 30.1 L26.65 27.45 26.3 27.1 21.35 26.85 16.45 19.75 16.55 19.7 16.5 19.2 16.05 15.9 16.1 15.9 M38.5 28.45 L38.8 29.25 39.0 29.85 40.1 32.85 39.95 35.0 39.7 38.0 39.6 39.2 39.5 40.2 39.05 39.3 38.95 39.05 38.95 38.25 38.8 38.05 38.55 37.7 38.5 37.65 37.95 37.0 38.15 36.85 38.3 36.95 38.6 37.5 Q38.4 36.35 38.9 34.7 L38.9 34.6 39.15 33.75 39.15 34.15 39.15 34.75 38.95 36.4 38.95 36.45 39.7 33.0 38.55 30.55 38.45 31.45 38.1 31.65 38.2 30.6 38.2 30.3 38.2 30.25 38.5 28.45 M37.75 34.35 L37.75 34.15 37.85 33.55 37.9 33.0 38.3 33.35 38.3 33.55 38.2 33.6 38.3 33.65 38.2 34.55 38.2 34.7 38.15 34.65 38.05 34.5 37.75 34.35 M25.8 32.25 L25.35 32.7 25.8 32.25" fill="#b5c1d2" fill-rule="evenodd" stroke="none"/>
      <path d="M31.65 53.75 L30.0 53.75 23.75 46.7 7.85 37.55 6.5 37.55 5.85 37.55 5.7 36.55 5.05 35.9 5.45 35.85 Q7.0 35.85 8.9 36.6 L5.0 34.0 4.9 33.9 4.9 34.0 4.9 34.05 4.7 35.5 -0.45 30.2 3.7 30.4 7.5 30.55 5.15 33.9 5.1 33.9 25.05 45.85 25.15 45.85 31.65 53.55 31.65 53.75 M39.75 3.05 L40.85 4.8 43.35 9.05 43.6 9.5 43.4 10.35 41.05 6.4 40.05 4.7 40.0 5.3 40.0 5.95 40.15 9.1 40.2 13.55 40.05 9.1 40.05 8.5 40.05 7.3 39.85 4.8 39.8 4.6 39.8 4.25 39.7 3.95 39.55 3.15 39.65 3.1 39.75 3.05 M43.0 12.0 L41.45 18.85 40.75 20.3 39.45 21.6 36.35 18.75 34.35 17.8 32.1 16.75 28.3 14.45 28.3 13.95 28.45 5.65 34.2 5.0 34.2 5.8 34.2 6.5 34.2 7.3 34.35 17.8 34.2 7.3 34.25 7.25 34.7 6.85 35.25 6.4 35.1 8.35 35.05 9.1 35.05 10.55 34.95 14.65 34.9 15.9 36.95 17.75 39.45 19.75 39.55 19.85 39.6 19.55 39.8 17.55 40.05 15.7 40.1 14.75 40.2 14.05 40.15 16.15 40.15 17.15 40.6 16.45 41.0 15.6 42.55 11.6 43.0 12.0 M39.5 23.0 L42.15 20.4 43.3 17.15 43.35 17.15 44.4 16.9 43.5 22.3 39.6 24.5 39.5 23.0 M41.5 35.4 L42.15 35.55 43.55 35.95 47.7 37.05 48.15 37.75 48.55 38.5 47.8 38.6 46.45 38.7 43.95 38.9 43.5 38.95 43.3 38.95 43.35 39.1 42.85 39.5 42.35 39.95 42.05 39.4 41.5 38.45 40.9 38.3 39.75 38.0 39.7 38.0 39.95 35.0 40.45 35.1 41.5 35.4 M42.45 40.2 L43.3 40.85 43.9 41.4 Q48.2 45.3 47.7 50.5 48.65 50.7 49.2 51.7 L47.55 51.7 44.7 44.3 42.85 40.9 42.45 40.2 M33.4 5.5 L28.65 6.2 28.5 6.2 28.5 8.0 28.5 10.15 28.3 13.95 Q28.6 10.95 29.4 9.45 29.65 8.95 30.0 8.6 L30.0 8.55 Q30.9 7.75 32.65 7.75 L33.45 7.9 33.5 7.95 33.65 9.5 33.65 5.45 33.4 5.5 M33.9 23.3 L34.7 23.9 35.4 24.45 36.25 25.1 36.3 25.1 36.35 25.15 36.4 25.15 36.5 25.25 37.3 25.8 37.3 26.0 37.35 26.25 37.5 27.7 34.65 28.35 34.7 24.8 34.55 24.5 33.9 23.3 M16.7 41.25 L15.3 40.4 16.65 41.4 17.3 41.9 21.6 44.45 Q24.0 45.9 24.4 46.55 L24.4 46.6 24.75 46.1 17.0 41.4 16.7 41.25" fill="#8c9aaf" fill-rule="evenodd" stroke="none"/>
      <path d="M43.4 10.35 L43.0 12.0 42.55 11.6 41.0 15.6 40.6 16.45 40.15 17.15 40.15 16.15 40.2 14.05 40.2 13.9 40.2 13.55 40.15 9.1 40.0 5.95 40.0 5.3 40.05 4.7 41.05 6.4 43.4 10.35 M47.25 11.9 L47.25 11.2 Q46.85 11.3 46.0 12.5 45.35 13.4 45.05 14.2 L44.95 14.35 45.0 14.15 45.25 13.25 45.75 11.65 45.8 11.5 46.45 9.6 46.65 8.9 48.55 9.55 48.0 10.25 Q47.45 11.1 47.25 11.9 M20.25 15.7 L24.75 18.5 24.8 18.55 24.8 19.4 24.75 21.95 24.3 21.35 22.45 19.15 22.2 18.9 19.3 18.55 19.1 18.5 18.1 18.3 16.35 15.9 20.25 15.7 M33.4 5.5 L33.65 5.45 33.65 9.5 33.5 7.95 33.45 7.9 32.65 7.75 Q30.9 7.75 30.0 8.55 L30.0 8.6 Q29.65 8.95 29.4 9.45 28.6 10.95 28.3 13.95 L28.5 10.15 28.5 8.0 28.5 6.2 28.65 6.2 33.4 5.5 M15.65 19.95 L16.45 19.75 21.35 26.85 26.3 27.1 26.65 27.45 22.4 27.7 21.5 27.7 21.3 27.65 20.2 26.0 16.9 21.6 15.65 19.95" fill="#6b7f9a" fill-rule="evenodd" stroke="none"/>
      <path d="M49.05 6.6 L54.2 14.7 54.2 16.75 50.7 17.6 48.0 18.0 48.55 34.6 47.7 34.55 47.25 18.05 47.5 18.05 47.25 17.65 46.0 15.75 49.15 9.5 49.05 6.6 M48.15 37.75 L48.65 37.8 48.7 38.7 48.55 38.5 48.15 37.75 M40.9 38.3 L41.5 38.45 42.05 39.4 42.1 39.9 41.0 39.05 40.9 38.3 M39.6 28.85 L40.45 27.4 41.5 35.4 40.45 35.1 39.6 28.85" fill="#9ab0d0" fill-rule="evenodd" stroke="none"/>
      <path d="M54.2 16.75 L54.2 36.45 53.1 34.95 52.95 34.85 52.75 34.85 52.95 34.55 53.25 33.9 53.5 32.65 Q53.65 31.6 53.25 30.8 52.95 30.2 52.55 30.05 L52.35 30.05 Q51.75 30.2 51.25 30.9 50.75 31.7 50.65 32.85 50.6 33.9 50.9 34.65 L50.95 34.75 48.55 34.6 48.0 18.0 50.7 17.6 54.2 16.75 M-0.45 30.2 L-0.45 20.9 3.1 29.05 3.7 30.4 -0.45 30.2 M46.0 15.75 L47.25 17.65 47.5 18.05 47.25 18.05 47.7 34.55 45.9 34.45 43.55 34.3 42.15 35.55 41.5 35.4 40.45 27.4 42.7 23.5 44.35 22.55 45.15 17.4 46.0 15.75 M53.0 23.7 Q53.1 22.65 52.75 21.9 52.45 21.1 51.9 21.1 51.6 21.15 51.3 21.35 L50.8 22.0 Q50.3 22.8 50.2 23.95 50.05 25.0 50.45 25.7 50.7 26.5 51.35 26.4 L51.9 26.25 52.4 25.6 Q52.95 24.85 53.0 23.7 M44.35 22.55 L45.9 34.45 44.35 22.55 M48.65 37.8 L49.75 37.9 51.75 40.3 49.7 40.4 48.7 38.7 48.65 37.8 M40.9 38.3 L41.0 39.05 39.75 38.0 40.9 38.3 M42.1 39.9 L42.05 39.4 42.35 39.95 42.3 40.05 42.1 39.9 M39.0 29.85 L39.6 28.85 40.45 35.1 39.95 35.0 40.1 32.85 39.0 29.85" fill="#7c889a" fill-rule="evenodd" stroke="none"/>
      <path d="M54.2 40.5 L54.2 50.2 53.3 50.2 53.25 50.1 53.2 47.25 53.1 41.85 51.75 40.3 49.75 37.9 48.65 37.8 48.15 37.75 47.7 37.05 43.55 35.95 50.55 36.45 54.2 40.5 M54.2 51.35 L54.2 51.75 54.15 51.75 53.8 51.9 Q53.15 52.05 53.65 51.35 L53.8 51.1 Q54.1 51.1 54.2 51.35 M52.35 53.7 L52.35 53.75 50.7 53.75 50.55 51.7 49.9 51.7 49.4 51.7 49.2 51.7 Q48.65 50.7 47.7 50.5 48.2 45.3 43.9 41.4 L43.3 40.85 42.45 40.2 42.25 40.05 42.3 40.05 42.35 39.95 42.85 39.5 43.35 39.1 44.3 40.55 44.45 40.75 45.0 41.4 45.3 41.75 47.7 46.25 48.85 48.65 49.35 50.45 49.4 51.7 49.35 50.45 49.35 50.25 50.15 50.05 52.05 50.15 52.2 50.15 52.3 50.75 52.35 52.3 52.35 53.7 M34.25 53.75 L31.65 53.75 31.65 53.55 31.65 52.9 31.55 50.2 32.55 49.75 33.95 49.75 34.0 50.4 34.25 53.75 M41.45 18.85 L42.4 16.65 43.25 16.9 41.85 20.6 39.5 22.8 39.4 22.85 35.9 19.25 31.7 17.4 27.5 13.95 27.85 14.15 28.3 14.45 32.1 16.75 34.35 17.8 36.35 18.75 39.45 21.6 40.75 20.3 41.45 18.85 M33.4 22.4 L34.7 23.0 39.15 25.55 39.65 25.3 38.8 29.25 38.5 28.45 38.15 27.55 37.5 27.7 37.35 26.25 37.3 26.0 37.3 25.8 36.5 25.25 36.4 25.15 36.35 25.15 36.3 25.1 36.25 25.1 35.4 24.45 34.7 23.9 33.9 23.3 33.4 22.4 M42.45 40.2 L42.45 40.15 42.35 39.95 42.45 40.15 42.45 40.2 M5.05 35.9 L4.7 35.5 4.9 34.05 4.9 34.0 4.9 33.9 5.0 34.0 8.9 36.6 Q7.0 35.85 5.45 35.85 L5.05 35.9 M16.7 41.25 L17.0 41.4 24.75 46.1 24.4 46.6 24.4 46.55 Q24.0 45.9 21.6 44.45 L17.3 41.9 16.65 41.4 15.3 40.4 16.7 41.25 M34.35 38.3 L37.35 36.8 37.4 36.75 37.45 36.75 37.55 36.75 37.75 36.75 37.5 36.9 37.75 37.15 37.95 37.0 38.5 37.65 38.55 37.7 38.8 38.05 38.95 38.25 38.95 39.05 38.9 39.2 38.95 39.95 38.35 39.05 37.85 38.4 37.15 37.75 35.05 39.25 34.45 39.75 33.7 40.45 33.05 41.4 32.95 41.65 32.95 41.75 32.6 41.45 32.6 41.4 32.5 41.3 33.15 39.95 33.2 39.8 33.3 39.9 33.35 39.95 33.35 39.6 33.4 39.55 33.8 38.9 34.2 38.4 34.35 38.3 M38.3 33.65 L39.25 33.5 39.25 33.45 39.3 32.45 39.25 32.45 39.15 32.4 Q38.9 33.15 38.3 33.55 L38.3 33.35 38.7 33.15 38.95 32.5 38.85 31.75 38.55 31.45 38.45 31.45 38.55 30.55 39.7 33.0 38.95 36.45 38.95 36.4 39.15 34.75 39.15 34.15 39.15 33.75 38.9 34.6 38.9 34.7 Q38.4 36.35 38.6 37.5 L38.3 36.95 38.15 36.85 38.5 36.15 38.45 36.15 38.25 35.85 37.9 36.6 37.95 36.45 38.25 35.6 38.2 34.7 38.2 34.55 38.3 33.65 M36.55 52.05 L36.35 52.25 36.3 52.25 Q34.65 52.15 36.05 51.2 36.7 51.4 36.55 52.05 M39.95 52.65 Q40.4 52.85 40.15 53.25 39.45 54.3 39.5 52.75 L39.55 52.7 39.95 52.65 M49.55 52.85 L49.65 52.95 49.7 52.95 Q49.9 53.2 49.55 53.55 L49.5 53.55 49.35 53.55 Q48.9 53.4 48.95 53.15 48.95 52.95 49.3 52.7 L49.4 52.75 49.55 52.85" fill="#6b7c95" fill-rule="evenodd" stroke="none"/>
      <path d="M53.0 23.7 Q52.95 24.85 52.4 25.6 L51.9 26.25 51.35 26.4 Q50.7 26.5 50.45 25.7 50.05 25.0 50.2 23.95 50.3 22.8 50.8 22.0 L51.3 21.35 Q51.6 21.15 51.9 21.1 52.45 21.1 52.75 21.9 53.1 22.65 53.0 23.7 M50.95 34.75 L50.9 34.65 Q50.6 33.9 50.65 32.85 50.75 31.7 51.25 30.9 51.75 30.2 52.35 30.05 L52.55 30.05 Q52.95 30.2 53.25 30.8 53.65 31.6 53.5 32.65 L53.25 33.9 52.95 34.55 52.75 34.85 50.95 34.75" fill="#562a2a" fill-rule="evenodd" stroke="none"/>
      <path d="M54.2 36.45 L54.2 40.5 50.55 36.45 53.1 34.95 54.2 36.45" fill="#c7d4e5" fill-rule="evenodd" stroke="none"/>
      <path d="M46.75 43.75 L46.8 43.7 49.4 42.95 49.85 42.85 50.9 42.65 51.9 45.75 53.15 49.8 52.05 50.15 50.15 50.05 49.35 50.25 49.35 50.45 48.85 48.65 47.7 46.25 47.1 44.7 46.9 44.3 46.75 43.75" fill="#8394ad" fill-rule="evenodd" stroke="none"/>
      <path d="M30.0 53.75 L20.55 53.75 20.65 53.05 20.5 53.0 20.25 52.75 20.35 52.15 25.5 52.0 23.35 50.5 13.7 44.05 10.7 41.95 6.5 37.55 7.85 37.55 23.75 46.7 30.0 53.75 M19.3 53.75 L18.9 53.75 19.2 52.4 19.5 52.75 19.3 53.75 M16.95 53.75 L12.5 53.75 10.9 51.0 Q9.3 48.35 6.85 45.9 L5.95 38.4 6.1 38.6 6.85 39.45 8.6 41.2 8.45 41.4 8.0 42.15 7.25 43.1 7.25 43.25 Q13.55 47.7 15.0 49.5 16.45 51.2 16.95 53.75 M-0.45 44.0 L-0.45 40.6 -0.05 41.4 0.2 41.9 0.5 42.55 0.85 43.3 1.0 43.6 1.35 46.3 0.65 45.35 -0.1 44.4 -0.35 44.1 -0.45 44.0 M53.2 47.25 L53.25 50.1 53.15 49.8 51.9 45.75 53.2 47.25 M41.3 41.45 L41.3 41.4 41.25 41.05 42.85 40.9 44.7 44.3 47.55 51.7 45.5 51.7 45.25 51.1 41.3 41.45" fill="#272f3c" fill-rule="evenodd" stroke="none"/>
      <path d="M41.4 43.1 L41.4 42.7 41.3 41.45 45.25 51.1 39.4 51.65 38.85 51.65 38.2 51.65 38.2 50.3 38.15 49.8 35.85 49.8 32.9 46.45 41.6 46.55 41.4 43.1 M13.7 44.05 L23.35 50.5 20.05 50.45 13.7 44.05" fill="#4b596d" fill-rule="evenodd" stroke="none"/>
      <path d="M3.1 29.05 L3.75 24.8 2.4 20.8 2.55 20.75 Q3.55 20.4 4.6 20.4 8.95 20.4 12.65 22.6 L9.0 24.25 7.8 24.8 10.85 29.15 14.75 32.3 16.65 29.75 17.45 30.9 16.6 31.85 14.15 34.1 7.8 30.55 7.5 30.55 3.7 30.4 3.1 29.05 M-0.45 12.4 L-0.45 11.75 0.35 11.6 -0.4 12.4 -0.45 12.4 M18.55 36.55 L23.75 37.95 26.6 38.45 26.8 38.5 Q27.9 38.8 29.0 39.95 L30.2 41.4 30.2 41.45 31.3 42.5 Q32.65 43.25 38.8 43.25 L41.4 43.1 41.6 46.55 32.9 46.45 29.75 42.9 29.55 42.65 18.55 36.55" fill="#121212" fill-rule="evenodd" stroke="none"/>
      <path d="M20.55 53.75 L20.4 53.75 20.5 53.0 20.65 53.05 20.55 53.75 M19.5 53.75 L19.3 53.75 19.5 52.75 19.2 52.4 14.9 47.85 8.8 41.4 8.6 41.2 6.85 39.45 6.1 38.6 5.95 38.4 5.85 37.55 6.5 37.55 10.7 41.95 19.9 51.7 19.5 53.75 M8.75 53.75 L7.75 53.75 7.75 53.7 7.7 53.4 8.75 53.75 M-0.45 48.0 L-0.45 44.0 -0.35 44.1 -0.1 44.4 0.65 45.35 1.35 46.3 2.05 51.6 0.35 49.1 -0.45 48.0 M-0.45 40.6 L-0.45 36.55 0.1 37.05 1.0 43.6 0.85 43.3 0.5 42.55 0.2 41.9 -0.05 41.4 -0.45 40.6 M51.75 40.3 L53.1 41.85 53.2 47.25 51.9 45.75 50.9 42.65 50.8 42.2 50.65 41.95 49.7 40.4 51.75 40.3 M26.45 12.35 L26.4 13.1 25.35 12.25 21.45 14.65 19.05 9.75 15.1 6.75 15.25 6.6 16.1 5.7 19.85 8.9 23.85 6.2 26.45 12.35 M23.1 8.65 Q23.75 8.65 24.0 8.95 L24.7 10.0 23.4 6.9 Q23.15 7.05 23.05 7.15 22.8 7.25 21.3 8.2 L21.3 8.25 20.1 9.0 22.35 13.0 22.0 11.55 21.65 10.3 21.85 9.65 22.1 9.35 22.35 9.05 Q22.55 8.65 23.1 8.65 M4.65 8.5 L13.55 14.3 16.5 19.2 16.55 19.7 16.45 19.75 14.15 16.35 14.0 15.45 13.85 15.2 13.7 15.05 13.25 14.25 Q13.4 14.7 13.15 14.8 L13.05 14.8 12.95 14.65 10.5 13.35 7.1 11.05 5.5 9.45 6.75 12.05 5.8 11.6 5.25 10.25 4.55 8.65 4.65 8.5 M12.9 16.9 L12.3 16.7 12.95 17.2 13.05 17.65 Q12.25 18.3 11.75 18.3 L11.05 17.85 Q10.45 17.45 9.5 17.15 L8.75 16.95 Q7.9 16.7 7.55 16.2 L7.5 16.1 7.05 14.85 4.8 14.45 4.65 14.2 4.8 13.85 12.9 16.9 M15.15 20.1 L15.0 19.85 14.7 19.3 13.5 17.25 13.45 17.15 13.75 17.25 13.8 17.25 15.6 20.0 15.15 20.1 M10.05 25.75 L12.25 25.15 15.55 27.15 15.55 28.05 15.0 28.15 11.9 27.6 10.35 26.15 10.05 25.75" fill="#38414f" fill-rule="evenodd" stroke="none"/>
      <path d="M23.1 8.65 Q22.55 8.65 22.35 9.05 L22.1 9.35 21.85 9.65 21.65 10.3 22.0 11.55 22.35 13.0 20.1 9.0 21.3 8.25 21.3 8.2 Q22.8 7.25 23.05 7.15 23.15 7.05 23.4 6.9 L24.7 10.0 24.0 8.95 Q23.75 8.65 23.1 8.65" fill="#743d67" fill-rule="evenodd" stroke="none"/>
      <path d="M19.05 2.6 L23.8 6.0 23.85 6.2 19.85 8.9 16.1 5.7 19.05 2.6 M15.35 9.1 L13.8 13.95 4.8 8.2 5.1 7.45 5.55 6.4 5.65 6.45 15.35 9.1 M5.8 11.6 L6.75 12.05 13.35 15.15 13.5 15.35 13.65 16.85 4.95 13.65 5.8 11.65 5.8 11.6" fill="#657895" fill-rule="evenodd" stroke="none"/>
      <path d="M0.7 3.8 L1.0 2.75 3.0 1.15 3.95 1.2 4.2 1.2 8.7 4.1 10.4 4.9 Q12.65 5.85 15.25 6.6 L15.1 6.75 19.05 9.75 21.45 14.65 21.0 14.9 20.1 15.45 15.5 9.1 15.35 9.1 5.65 6.45 Q4.3 5.05 1.5 3.65 L1.05 3.7 0.7 3.8 M20.2 15.65 L20.25 15.7 20.2 15.65 M24.0 35.1 L23.95 35.1 24.25 35.0 24.3 35.05 24.0 35.1 M31.7 27.6 L30.7 27.3 30.75 27.1 30.8 27.1 31.55 27.1 32.3 27.1 33.75 28.1 33.9 27.45 34.15 28.3 34.25 28.5 33.8 28.6 31.7 27.6 M35.25 39.9 L37.6 38.85 37.95 39.95 37.95 40.25 35.25 39.9" fill="#5d1212" fill-rule="evenodd" stroke="none"/>
      <path d="M24.75 21.95 L24.8 19.4 26.25 20.35 25.95 20.3 25.9 20.55 25.45 24.4 24.75 24.5 24.75 24.35 24.75 21.95 M27.3 25.2 L26.9 24.9 26.8 24.65 26.5 22.7 26.5 22.35 26.6 21.05 26.65 20.8 27.7 21.5 27.55 21.75 27.5 21.8 27.2 22.25 26.95 23.15 26.9 23.65 27.0 24.6 27.3 25.2 M32.9 24.55 L33.1 24.65 33.95 24.95 33.9 25.05 33.45 25.8 33.2 26.05 31.55 27.1 30.8 27.1 32.55 26.35 32.9 25.85 32.9 24.55" fill="#8e3c3c" fill-rule="evenodd" stroke="none"/>
      <path d="M39.65 25.3 L42.7 23.5 40.45 27.4 39.6 28.85 39.0 29.85 38.8 29.25 39.65 25.3 M27.55 25.4 L27.3 25.2 27.0 24.6 27.55 25.4 M26.9 24.9 L26.1 24.25 25.45 24.4 25.9 20.55 25.95 20.3 26.65 20.8 26.6 20.8 26.55 21.0 26.2 22.0 26.5 22.7 26.8 24.65 26.9 24.9 M27.9 21.35 L28.05 21.45 27.85 21.35 27.9 21.35 M33.9 25.05 L33.95 24.95 34.4 25.05 34.35 25.5 33.9 25.05" fill="#b86e6e" fill-rule="evenodd" stroke="none"/>
      <path d="M24.8 18.55 L33.4 22.4 33.9 23.3 34.55 24.5 34.4 25.05 33.95 24.95 33.1 24.65 32.9 24.55 32.8 24.5 32.4 24.35 32.0 24.15 31.95 24.15 31.55 23.9 31.0 23.65 31.0 23.6 Q31.1 23.25 30.65 23.1 30.5 23.15 30.35 23.3 L29.95 23.0 28.95 22.4 28.9 22.35 28.8 22.25 28.7 22.25 27.7 21.5 26.65 20.8 25.95 20.3 26.25 20.35 24.8 19.4 24.8 18.55 M27.9 21.35 L27.85 21.35 28.05 21.45 27.9 21.35" fill="#691919" fill-rule="evenodd" stroke="none"/>
      <path d="M30.15 27.1 L29.25 26.8 27.55 25.4 27.0 24.6 26.9 23.65 26.95 23.15 Q26.95 24.2 27.45 24.85 27.85 25.4 28.8 25.65 L28.45 25.0 Q28.3 24.6 28.3 23.9 L28.35 23.3 28.55 23.6 28.85 24.4 28.95 24.15 28.95 24.1 29.0 24.2 29.4 24.65 29.5 24.7 Q30.05 25.1 30.65 25.1 L30.3 25.15 29.55 24.85 Q29.9 25.45 30.7 25.6 L31.05 25.6 32.25 25.3 32.8 24.5 32.9 24.55 32.9 25.85 32.55 26.35 30.8 27.1 30.75 27.1 30.15 27.1 M26.5 22.7 L26.2 22.0 26.55 21.0 26.6 20.8 26.65 20.8 26.6 21.05 26.5 22.35 26.5 22.7 M28.75 22.55 L28.7 22.6 28.45 22.8 28.55 22.6 28.6 22.55 28.8 22.25 28.9 22.35 28.85 22.4 28.8 22.45 28.75 22.55 M32.0 24.15 L31.95 24.2 31.95 24.15 32.0 24.15 M31.55 27.1 L33.2 26.05 33.45 25.8 33.9 25.05 34.35 25.5 33.9 27.45 33.75 28.1 32.3 27.1 31.55 27.1" fill="#dba3a3" fill-rule="evenodd" stroke="none"/>
      <path d="M28.35 23.3 L28.3 23.2 Q28.0 23.85 28.15 24.15 L28.1 24.15 Q27.7 24.15 27.45 23.7 27.2 23.25 27.2 22.6 L27.2 22.25 27.5 21.8 27.55 21.75 27.7 21.5 28.7 22.25 28.55 22.5 28.35 22.9 28.45 22.8 28.7 22.6 28.75 22.55 28.95 22.4 29.95 23.0 30.35 23.3 30.35 23.35 30.2 23.6 30.2 23.7 29.1 23.8 28.55 23.6 28.35 23.3 M36.2 31.35 L36.3 31.5 36.35 31.6 36.15 32.45 36.0 32.7 Q35.75 33.0 35.0 33.0 33.45 33.0 33.45 31.7 L33.6 31.45 33.7 31.3 33.7 31.35 33.8 31.8 34.05 32.25 Q34.4 32.6 34.95 32.6 L35.0 32.6 Q35.45 32.6 35.8 32.25 L36.0 32.1 36.2 31.35 M30.65 32.35 L30.95 32.55 31.2 33.3 Q31.2 34.25 30.55 34.5 L30.0 34.55 Q28.8 34.1 28.4 34.2 L28.5 33.6 28.75 33.9 29.05 34.15 29.65 34.3 29.8 34.3 30.25 34.15 30.5 33.9 Q30.9 33.6 30.9 33.05 L30.9 32.95 30.65 32.35 M34.6 35.85 L34.9 36.1 34.6 37.2 Q34.25 37.65 33.65 37.7 L33.4 37.45 Q33.95 37.45 34.25 37.05 34.65 36.75 34.65 36.2 L34.65 36.05 34.6 35.85" fill="#ffffff" fill-rule="evenodd" stroke="none"/>
      <path d="M27.2 22.25 L27.2 22.6 Q27.2 23.25 27.45 23.7 27.7 24.15 28.1 24.15 L28.15 24.15 Q28.0 23.85 28.3 23.2 L28.35 23.3 28.3 23.9 Q28.3 24.6 28.45 25.0 L28.8 25.65 Q27.85 25.4 27.45 24.85 26.95 24.2 26.95 23.15 L27.2 22.25 M29.1 23.8 L30.2 23.7 30.2 23.6 30.75 24.0 30.95 23.85 31.0 23.65 31.55 23.9 31.35 24.6 30.65 25.1 Q30.05 25.1 29.5 24.7 L29.4 24.65 29.0 24.2 29.3 24.3 29.1 23.8 M28.45 22.8 L28.35 22.9 28.55 22.5 28.7 22.25 28.8 22.25 28.6 22.55 28.55 22.6 28.45 22.8" fill="#ffc6c6" fill-rule="evenodd" stroke="none"/>
      <path d="M28.55 23.6 L29.1 23.8 29.3 24.3 29.0 24.2 28.95 24.1 28.95 24.15 28.85 24.4 28.55 23.6 M30.2 23.6 L30.35 23.35 30.35 23.3 Q30.5 23.15 30.65 23.1 31.1 23.25 31.0 23.6 L31.0 23.65 30.95 23.85 30.75 24.0 30.2 23.6 M28.95 22.4 L28.75 22.55 28.8 22.45 28.85 22.4 28.9 22.35 28.95 22.4" fill="#773e3e" fill-rule="evenodd" stroke="none"/>
      <path d="M30.65 25.1 L31.35 24.6 31.55 23.9 31.95 24.15 31.95 24.2 32.0 24.15 32.4 24.35 32.8 24.5 32.25 25.3 31.05 25.6 30.7 25.6 Q29.9 25.45 29.55 24.85 L30.3 25.15 30.65 25.1" fill="#d05b5b" fill-rule="evenodd" stroke="none"/>
      <path d="M20.1 15.45 L20.0 15.5 20.2 15.65 20.25 15.7 16.35 15.9 16.1 15.9 16.05 15.9 16.5 19.2 13.55 14.3 4.65 8.5 4.8 8.2 13.8 13.95 15.35 9.1 15.5 9.1 20.1 15.45 M14.15 16.35 L16.45 19.75 15.65 19.95 15.6 20.0 13.8 17.25 13.75 17.25 13.45 17.15 13.45 17.1 13.2 17.0 12.9 16.9 4.8 13.85 4.95 13.65 13.65 16.85 13.5 15.35 14.15 16.35 M14.95 23.75 L14.95 24.2 15.55 24.75 15.55 24.8 15.55 26.65 15.55 27.15 12.25 25.15 10.05 25.75 9.0 24.25 12.65 22.6 12.8 22.5 14.95 23.75" fill="#4b5970" fill-rule="evenodd" stroke="none"/>
      <path d="M-0.45 11.75 L-0.45 5.9 1.65 6.15 2.55 9.25 2.75 9.95 1.65 10.6 0.35 11.6 -0.45 11.75" fill="#1c1b1b" fill-rule="evenodd" stroke="none"/>
      <path d="M6.75 12.05 L5.5 9.45 7.1 11.05 10.5 13.35 12.95 14.65 13.05 14.8 13.15 14.8 Q13.4 14.7 13.25 14.25 L13.7 15.05 13.85 15.2 14.0 15.45 14.15 16.35 13.5 15.35 13.35 15.15 6.75 12.05 M4.8 14.45 L7.05 14.85 7.5 16.1 7.55 16.2 Q7.9 16.7 8.75 16.95 L9.5 17.15 Q10.45 17.45 11.05 17.85 L11.75 18.3 Q12.25 18.3 13.05 17.65 L12.95 17.2 12.3 16.7 12.9 16.9 13.2 17.0 13.45 17.1 13.45 17.15 13.5 17.25 14.7 19.3 15.0 19.85 15.15 20.1 14.75 20.15 14.8 21.05 14.9 22.6 11.7 19.05 11.1 18.9 6.65 17.65 6.6 17.55 4.8 14.45 M9.0 24.25 L10.05 25.75 10.35 26.15 11.9 27.6 15.0 28.15 15.55 28.05 15.55 28.15 16.65 29.75 14.75 32.3 10.85 29.15 7.8 24.8 9.0 24.25" fill="#774848" fill-rule="evenodd" stroke="none"/>
      <path d="M18.9 53.75 L16.95 53.75 Q16.45 51.2 15.0 49.5 13.55 47.7 7.25 43.25 L7.25 43.1 8.0 42.15 8.45 41.4 8.6 41.2 8.8 41.4 14.9 47.85 19.2 52.4 18.9 53.75" fill="#151b25" fill-rule="evenodd" stroke="none"/>
      <path d="M20.4 53.75 L19.5 53.75 19.9 51.7 10.7 41.95 13.7 44.05 20.05 50.45 23.35 50.5 25.5 52.0 20.35 52.15 20.25 52.75 20.5 53.0 20.4 53.75 M39.4 51.65 L45.25 51.1 45.5 51.7 39.4 51.65" fill="#71849f" fill-rule="evenodd" stroke="none"/>
      <path d="M33.7 31.3 Q33.75 30.8 34.05 30.45 34.4 30.1 34.95 30.1 L35.05 30.1 Q35.45 30.1 35.8 30.45 36.2 30.85 36.2 31.35 L36.0 32.1 35.8 32.25 Q35.45 32.6 35.0 32.6 L34.95 32.6 Q34.4 32.6 34.05 32.25 L33.8 31.8 33.7 31.35 33.7 31.3 M32.15 36.25 L32.15 36.2 Q32.15 35.7 32.5 35.3 32.9 34.95 33.4 34.95 L33.5 34.95 34.25 35.3 34.6 35.85 34.65 36.05 34.65 36.2 Q34.65 36.75 34.25 37.05 33.95 37.45 33.4 37.45 32.9 37.45 32.5 37.05 L32.45 37.05 Q32.15 36.7 32.15 36.25 M37.4 36.75 L37.35 36.75 36.95 36.3 36.85 35.45 37.0 34.9 37.15 34.55 Q37.4 34.25 37.7 34.3 L37.75 34.35 38.05 34.5 38.15 34.65 38.2 34.7 38.25 35.6 37.95 36.45 37.9 36.6 37.75 36.75 37.55 36.75 37.45 36.75 37.4 36.75 M28.65 32.35 L28.75 32.15 Q29.1 31.8 29.65 31.8 L30.1 31.9 Q30.35 31.95 30.5 32.15 L30.65 32.35 30.9 32.95 30.9 33.05 Q30.9 33.6 30.5 33.9 L30.25 34.15 29.8 34.3 29.65 34.3 29.05 34.15 28.75 33.9 28.5 33.6 28.45 33.4 28.4 33.05 28.45 32.85 28.45 32.75 28.65 32.35 M38.45 31.45 L38.55 31.45 38.85 31.75 38.95 32.5 38.7 33.15 38.3 33.35 37.9 33.0 37.85 32.7 37.85 32.4 37.95 31.9 38.05 31.75 38.05 31.65 38.1 31.65 38.45 31.45" fill="#5e6d83" fill-rule="evenodd" stroke="none"/>
      <path d="M31.5 46.4 L31.3 46.15 30.75 45.55 30.4 45.25 29.75 45.35 Q29.45 45.45 29.25 45.7 28.9 46.15 28.9 47.35 L28.9 47.4 Q28.9 48.3 29.25 49.6 L29.8 51.05 27.9 49.0 25.3 45.95 26.4 45.35 27.8 44.4 28.95 43.55 29.65 43.1 30.0 43.65 30.35 44.2 30.65 44.7 30.95 45.2 31.05 45.3 31.15 45.5 31.6 46.3 31.85 46.75 31.8 46.75 31.5 46.4" fill="#d4dff0" fill-rule="evenodd" stroke="none"/>
      <path d="M12.5 53.75 L8.75 53.75 7.7 53.4 6.85 45.9 Q9.3 48.35 10.9 51.0 L12.5 53.75" fill="#363641" fill-rule="evenodd" stroke="none"/>
      <path d="M2.25 53.75 L-0.45 53.75 -0.45 48.0 0.35 49.1 2.05 51.6 2.25 53.25 2.25 53.75" fill="#545f70" fill-rule="evenodd" stroke="none"/>
      <path d="M49.05 6.6 L54.2 14.7 M-0.45 20.9 L3.1 29.05 3.75 24.8 2.4 20.8 1.8 18.9 1.55 18.15 0.6 18.25 -0.45 18.4 M-0.45 3.9 L-0.05 3.85 0.7 3.8 1.0 2.75 3.0 1.15 0.75 1.05 -0.45 1.05 M40.85 4.8 L40.85 4.55 40.35 1.15 40.1 -0.25 M45.9 34.45 L44.35 22.55 M41.0 39.05 L42.1 39.9 42.3 40.05 M41.4 42.7 L40.95 41.8 39.6 39.2 M41.4 43.1 L41.4 42.7 41.3 41.45 41.3 41.4 41.25 41.05 42.85 40.9 M41.4 43.1 L41.6 46.55 32.9 46.45 M53.2 47.25 L51.9 45.75 M49.7 40.4 L51.75 40.3 M23.85 6.2 L26.45 12.35 M19.05 2.6 L23.8 6.0 23.85 6.2 M16.1 5.7 L15.25 6.6 15.1 6.75 19.05 9.75 21.45 14.65 M19.05 2.6 L18.35 1.2 17.6 -0.25 M10.4 4.9 Q12.65 5.85 15.25 6.6 M16.1 5.7 L19.05 2.6 M20.1 15.45 L15.5 9.1 15.35 9.1 5.65 6.45 Q4.3 5.05 1.5 3.65 L1.05 3.7 0.7 3.8 M4.8 8.2 L4.65 8.5 4.55 8.65 5.25 10.25 5.8 11.6 5.8 11.65 4.95 13.65 4.8 13.85 4.65 14.2 4.8 14.45 6.6 17.55 6.65 17.65 11.1 18.9 11.7 19.05 14.9 22.6 M3.0 1.15 L3.95 1.2 4.2 1.2 8.7 4.1 10.4 4.9 M5.1 7.45 L5.55 6.4 5.65 6.45 M5.1 7.45 L4.8 8.2 M1.55 18.15 L2.7 18.0 6.6 17.55 M20.25 15.7 L20.2 15.65 M14.95 23.75 L12.8 22.5 12.65 22.6 9.0 24.25 7.8 24.8 10.85 29.15 14.75 32.3 16.65 29.75 M3.1 29.05 L3.7 30.4 M5.15 33.9 L5.1 33.9 M33.9 27.45 L34.15 28.3 34.25 28.5 M8.75 53.75 L7.7 53.4 M39.75 38.0 L41.0 39.05" fill="none" stroke="#1c1d27" stroke-linecap="round" stroke-linejoin="round" stroke-width="1.0"/>
      <path d="M48.8 -0.25 L49.05 6.6 49.15 9.5 46.0 15.75 45.15 17.4 45.3 16.35 M39.6 2.8 L39.75 3.05 40.85 4.8 43.35 9.05 43.6 9.5 44.05 7.45 43.7 5.05 42.85 -0.25 M43.4 10.35 L43.0 12.0 41.45 18.85 M43.6 9.5 L43.4 10.35 M47.7 34.55 L48.55 34.6 50.95 34.75 52.75 34.85 52.95 34.85 53.1 34.95 54.2 36.45 M21.0 14.9 L20.1 15.45 20.0 15.5 20.2 15.65 20.25 15.7 24.75 18.5 24.8 18.55 33.4 22.4 34.7 23.0 39.15 25.55 39.65 25.3 42.7 23.5 44.35 22.55 45.15 17.4 M41.5 35.4 L42.15 35.55 43.55 34.3 45.9 34.45 47.7 34.55 M42.15 35.55 L43.55 35.95 47.7 37.05 48.15 37.75 48.65 37.8 49.75 37.9 51.75 40.3 53.1 41.85 53.2 47.25 53.25 50.1 53.3 50.2 54.2 50.2 M48.55 38.5 L48.7 38.7 49.7 40.4 50.65 41.95 50.8 42.2 50.9 42.65 51.9 45.75 53.15 49.8 53.25 50.1 M48.15 37.75 L48.55 38.5 M42.05 39.4 L41.5 38.45 40.9 38.3 39.75 38.0 39.7 38.0 39.95 35.0 40.45 35.1 41.5 35.4 M42.05 39.4 L42.35 39.95 42.45 40.15 42.45 40.2 42.85 40.9 44.7 44.3 47.55 51.7 49.2 51.7 49.4 51.7 49.35 50.45 49.35 50.25 50.15 50.05 52.05 50.15 52.2 50.15 53.3 50.2 M33.6 41.8 L33.4 42.05 32.35 42.05 32.1 42.05 24.65 35.35 24.3 35.05 24.25 35.0 23.7 34.5 25.35 32.7 24.05 31.75 21.3 31.85 18.1 31.9 17.45 30.9 16.65 29.75 15.55 28.15 15.55 28.05 15.55 27.15 15.55 26.65 15.55 24.8 15.55 24.75 14.95 24.2 14.95 23.75 14.9 22.6 14.8 21.05 14.75 20.15 15.15 20.1 15.6 20.0 15.65 19.95 16.45 19.75 16.55 19.7 16.5 19.2 16.05 15.9 16.1 15.9 16.35 15.9 20.25 15.7 M14.15 34.1 L18.55 36.55 29.55 42.65 29.75 42.9 32.9 46.45 35.85 49.8 38.15 49.8 38.2 50.3 38.2 51.65 38.85 51.65 39.4 51.65 45.5 51.7 47.55 51.7 M37.25 4.3 L39.55 2.85 39.6 2.8 M34.0 4.25 L34.2 4.6 34.2 5.0 34.2 5.8 34.2 6.5 34.2 7.3 34.35 17.8 M34.95 5.95 L35.25 5.7 37.25 4.3 M32.75 2.35 L32.0 1.2 31.1 -0.25 M34.55 6.25 L34.95 5.95 M34.0 4.25 L32.75 2.35 M34.55 6.25 L34.2 6.5 M25.4 3.15 L26.7 5.15 26.65 7.3 26.45 12.35 26.4 13.1 M25.4 3.15 L23.15 -0.25 M21.45 14.65 L25.35 12.25 M21.45 14.65 L21.0 14.9 M24.75 21.95 L24.8 19.4 24.8 18.55 M31.7 27.6 L30.7 27.3 30.15 27.1 29.25 26.8 27.55 25.4 27.3 25.2 26.9 24.9 26.1 24.25 25.45 24.4 24.75 24.5 24.75 24.35 24.75 21.95 M33.4 22.4 L33.9 23.3 34.55 24.5 34.7 24.8 34.65 28.35 37.5 27.7 38.15 27.55 38.5 28.45 38.8 29.25 39.65 25.3 M26.7 31.45 L27.0 31.15 27.4 30.85 27.6 30.7 28.35 30.4 29.1 30.1 Q31.4 29.25 33.8 28.6 L34.25 28.5 34.65 28.35 M25.8 32.25 L26.7 31.45 M7.5 30.55 L7.8 30.55 14.15 34.1 M3.7 30.4 L7.5 30.55 M4.7 35.5 L5.05 35.9 5.7 36.55 5.85 37.55 5.95 38.4 6.85 45.9 7.7 53.4 7.75 53.7 M4.7 35.5 L-0.45 30.2 3.7 30.4 M6.5 37.55 L5.85 37.55 M30.0 53.75 L23.75 46.7 7.85 37.55 6.5 37.55 M1.35 46.3 L1.0 43.6 0.1 37.05 -0.45 36.55 M38.8 29.25 L39.0 29.85 40.1 32.85 39.95 35.0 M33.8 28.6 L31.7 27.6 M39.5 40.2 L39.6 39.2 39.7 38.0 M25.35 32.7 L25.8 32.25 M34.7 49.75 L35.85 49.8 M37.95 39.95 L37.6 38.85 35.25 39.9 35.1 39.95 33.6 41.8 M37.95 39.95 L38.4 41.3 39.4 40.85 39.5 40.2 M31.65 52.9 L31.55 50.2 32.55 49.75 33.95 49.75 34.7 49.75 M38.25 53.75 L38.2 51.65 M31.65 53.75 L31.65 53.55 31.65 52.9 M2.05 51.6 L2.25 53.25 2.25 53.75 M49.9 51.7 L49.4 51.7 M49.9 51.7 L50.55 51.7 50.7 53.75 M1.35 46.3 L2.05 51.6" fill="none" stroke="#383a48" stroke-linecap="round" stroke-linejoin="round" stroke-width="1.0"/>
      <path d="M15.55 24.8 L19.75 29.7 19.9 29.7 24.5 29.65 26.7 31.45 M26.65 27.45 L26.3 27.1 21.35 26.85 16.45 19.75 M26.65 27.45 L29.1 30.1" fill="none" stroke="#383a48" stroke-linecap="round" stroke-linejoin="round" stroke-width="0.5"/>
      <path d="M30.8 27.1 L31.55 27.1 32.3 27.1 33.75 28.1 33.9 27.45 34.35 25.5 34.4 25.05 34.55 24.5 M39.0 29.85 L39.6 28.85 40.45 27.4 42.7 23.5 M30.8 27.1 L30.75 27.1 30.15 27.1" fill="none" stroke="#561313" stroke-linecap="round" stroke-linejoin="round" stroke-width="1.0"/>
    </g>
    <g id="shape2" transform="matrix(1.0, 0.0, 0.0, 1.0, 0.0, 0.0)">
      <path d="M50.5 0.0 Q53.95 0.0 53.95 3.3 L53.95 50.15 Q53.95 53.4 50.5 53.4 L3.3 53.4 Q0.0 53.4 0.0 50.15 L0.0 3.3 Q0.0 0.0 3.3 0.0 L50.5 0.0" fill="#000000" fill-opacity="0.003921569" fill-rule="evenodd" stroke="none"/>
    </g>
  </defs>
</svg>
