<?xml version="1.0" encoding="UTF-8" standalone="no"?>
<svg xmlns:ffdec="https://www.free-decompiler.com/flash" xmlns:xlink="http://www.w3.org/1999/xlink" ffdec:objectType="frame" height="65.7px" width="68.2px" xmlns="http://www.w3.org/2000/svg">
  <g transform="matrix(1.0, 0.0, 0.0, 1.0, 12.35, 3.65)">
    <clipPath id="clipPath0" transform="matrix(1.0, 0.0, 0.0, 1.0, 0.0, 0.0)">
      <path d="M50.5 0.0 Q53.95 0.0 53.95 3.3 L53.95 50.15 Q53.95 53.4 50.5 53.4 L3.3 53.4 Q0.0 53.4 0.0 50.15 L0.0 3.3 Q0.0 0.0 3.3 0.0 L50.5 0.0" fill="#000000" fill-rule="evenodd" stroke="none"/>
    </clipPath>
    <g clip-path="url(#clipPath0)">
      <use ffdec:characterId="2" height="65.7" transform="matrix(1.0, 0.0, 0.0, 1.0, -12.35, -3.65)" width="68.2" xlink:href="#shape1"/>
      <filter id="filter0">
        <feConvolveMatrix divisor="25.0" in="SourceGraphic" kernelMatrix="1 1 1 1 1 1 1 1 1 1 1 1 1 1 1 1 1 1 1 1 1 1 1 1 1" order="5 5" result="filterResult0"/>
      </filter>
      <use ffdec:characterId="4" filter="url(#filter0)" height="7.7" transform="matrix(0.9068, 0.1483, -0.1594, 0.8683, 24.5, 30.8)" width="11.15" xlink:href="#sprite0"/>
      <use ffdec:characterId="5" height="33.4" transform="matrix(1.0, 0.0, 0.0, 1.0, -1.9, 21.55)" width="9.05" xlink:href="#shape3"/>
    </g>
    <use ffdec:characterId="6" height="53.4" transform="matrix(1.0, 0.0, 0.0, 1.0, 0.0, 0.0)" width="53.95" xlink:href="#shape4"/>
  </g>
  <defs>
    <g id="shape1" transform="matrix(1.0, 0.0, 0.0, 1.0, 12.35, 3.65)">
      <path d="M15.0 29.55 L18.3 30.15 29.35 32.3 Q30.15 32.7 33.0 36.15 L34.6 37.65 36.7 39.3 Q38.95 41.2 41.5 45.1 L43.45 48.5 Q45.2 52.0 45.2 54.9 45.2 57.05 44.8 58.4 L44.25 59.55 Q42.8 61.85 38.9 61.5 32.6 60.9 22.0 56.35 16.75 54.05 13.2 51.9 10.75 47.95 10.15 44.05 L9.95 41.4 Q9.95 35.2 15.0 29.55" fill="#3d2ead" fill-rule="evenodd" stroke="none"/>
      <path d="M13.2 51.9 Q9.3 49.55 7.45 47.4 3.6 42.7 0.75 37.25 L-0.35 35.1 Q3.65 30.55 9.25 28.0 L15.0 29.55 Q9.95 35.2 9.95 41.4 L10.15 44.05 Q10.75 47.95 13.2 51.9" fill="#715dff" fill-rule="evenodd" stroke="none"/>
      <path d="M15.0 29.55 L18.3 30.15 29.35 32.3 Q30.15 32.7 33.0 36.15 L34.6 37.65 36.7 39.3 Q38.95 41.2 41.5 45.1 L43.45 48.5 Q45.2 52.0 45.2 54.9 45.2 57.05 44.8 58.4 L44.25 59.55 Q42.8 61.85 38.9 61.5 32.6 60.9 22.0 56.35 16.75 54.05 13.2 51.9 9.3 49.55 7.45 47.4 3.6 42.7 0.75 37.25 L-0.35 35.1 Q3.65 30.55 9.25 28.0 L15.0 29.55 Z" fill="none" stroke="#5543aa" stroke-linecap="round" stroke-linejoin="round" stroke-width="1.0"/>
      <path d="M41.8 48.4 L43.9 47.85 47.5 54.9 41.8 54.9 41.65 50.95 41.8 48.4 M11.75 39.1 L20.75 46.2 22.5 54.9 8.85 54.9 5.25 52.9 5.55 53.85 5.75 54.9 2.95 54.9 -1.35 45.6 12.0 42.15 Q9.8 39.7 9.9 39.0 L11.75 39.1 M30.9 54.9 L24.0 54.9 23.65 53.3 22.85 47.95 28.85 53.1 30.9 54.9" fill="#2c2662" fill-rule="evenodd" stroke="none"/>
      <path d="M41.8 48.4 L41.65 50.95 41.8 54.9 41.1 54.9 41.05 54.85 41.05 54.9 38.05 54.9 39.1 49.25 41.8 48.4 M11.75 39.1 Q13.1 39.6 15.4 40.8 L20.15 43.55 20.5 45.15 20.75 46.2 11.75 39.1 M22.4 44.9 L26.35 47.4 37.8 54.9 30.9 54.9 28.85 53.1 22.85 47.95 22.4 44.9" fill="#3f368e" fill-rule="evenodd" stroke="none"/>
      <path d="M20.75 46.2 L20.5 45.15 20.15 43.55 22.4 44.9 22.85 47.95 23.65 53.3 24.0 54.9 22.5 54.9 20.75 46.2" fill="#715dff" fill-rule="evenodd" stroke="none"/>
      <path d="M8.85 54.9 L5.75 54.9 5.55 53.85 5.25 52.9 8.85 54.9" fill="#121643" fill-rule="evenodd" stroke="none"/>
      <path d="M41.1 54.9 L41.05 54.9 41.05 54.85 41.1 54.9" fill="#311d72" fill-rule="evenodd" stroke="none"/>
      <path d="M47.5 54.9 L43.9 47.85 M2.95 54.9 L-1.35 45.6 12.0 42.15" fill="none" stroke="#5543aa" stroke-linecap="round" stroke-linejoin="round" stroke-width="1.0"/>
      <path d="M55.35 45.45 L53.8 45.6 Q49.65 46.1 47.65 46.8 L47.0 50.25 46.65 53.3 46.6 53.95 44.7 53.95 45.0 46.0 55.35 43.4 55.35 45.45" fill="#595780" fill-rule="evenodd" stroke="none"/>
      <path d="M46.6 53.95 L46.65 53.3 47.0 50.25 47.65 46.8 Q49.65 46.1 53.8 45.6 L55.35 45.45 55.35 53.95 46.6 53.95" fill="#3d3b66" fill-rule="evenodd" stroke="none"/>
      <path d="M55.35 43.4 L45.0 46.0 44.7 53.95" fill="none" stroke="#524d6b" stroke-linecap="round" stroke-linejoin="round" stroke-width="1.0"/>
      <path d="M55.35 20.2 L55.35 20.6 53.9 27.7 53.9 27.6 54.0 26.8 54.15 25.75 54.5 23.8 55.35 20.2" fill="#8b8aad" fill-rule="evenodd" stroke="none"/>
      <path d="M55.35 20.2 L54.5 23.8 54.15 25.75 54.0 26.8 53.9 27.6 53.9 27.7 53.85 28.2 53.85 30.0 53.75 30.5 52.85 33.6 Q51.6 36.85 51.55 38.15 L51.4 41.7 54.1 35.95 54.2 35.8 54.45 35.2 55.35 36.7 55.35 38.25 55.35 38.45 49.85 45.75 51.05 35.65 52.55 31.95 53.15 26.0 55.35 16.1 55.35 20.2 M55.35 38.25 L54.1 35.95 55.35 38.25" fill="#b9b7f0" fill-rule="evenodd" stroke="none"/>
      <path d="M53.9 27.7 L55.35 20.6 55.35 26.35 55.2 26.3 53.85 28.2 53.9 27.7" fill="#4e4c74" fill-rule="evenodd" stroke="none"/>
      <path d="M55.35 26.35 L55.35 36.7 54.45 35.2 54.2 35.8 54.1 35.95 51.4 41.7 51.55 38.15 Q51.6 36.85 52.85 33.6 L53.75 30.5 53.85 30.0 53.85 28.2 55.2 26.3 55.35 26.35" fill="#7270b6" fill-rule="evenodd" stroke="none"/>
      <path d="M55.35 38.45 L49.85 45.75 51.05 35.65 52.55 31.95 53.15 26.0 55.35 16.1 M54.2 35.8 L54.1 35.95 55.35 38.25" fill="none" stroke="#322a51" stroke-linecap="round" stroke-linejoin="round" stroke-width="1.0"/>
      <path d="M43.15 37.75 L43.45 37.5 47.85 44.05 Q49.5 48.35 50.4 54.45 L49.05 54.45 48.95 53.85 47.0 44.75 45.2 48.55 43.5 52.75 42.95 54.45 42.9 54.45 41.35 51.25 41.25 51.1 36.85 46.5 37.05 43.05 38.45 41.9 38.35 42.9 Q38.35 46.15 39.4 47.1 L42.4 50.0 42.5 49.0 Q42.55 48.2 42.9 47.05 43.5 44.55 43.5 42.2 L43.35 39.2 43.15 37.75 M-7.45 27.25 L-3.2 37.25 Q-2.6 38.75 -1.05 41.05 L1.0 43.9 3.8 47.65 Q6.9 50.4 12.75 54.45 L10.35 54.45 0.95 48.5 -11.25 23.65 -8.65 26.15 -7.55 27.2 -7.45 27.25 M17.0 54.45 L16.4 52.95 14.85 48.45 14.25 45.75 15.25 46.65 15.7 47.0 16.0 48.05 Q16.5 49.85 17.55 52.45 L18.35 54.45 17.0 54.45" fill="#b9b7f0" fill-rule="evenodd" stroke="none"/>
      <path d="M49.05 54.45 L42.95 54.45 43.5 52.75 45.2 48.55 47.0 44.75 48.95 53.85 49.05 54.45 M14.25 45.75 L13.75 45.35 10.25 42.5 -2.0 32.15 Q1.75 33.85 10.4 38.2 10.9 38.4 11.35 38.7 L14.75 41.35 Q22.65 48.0 29.65 54.45 L24.9 54.45 22.9 52.85 22.2 52.3 20.65 51.0 15.7 47.0 15.25 46.65 14.25 45.75" fill="#fafdff" fill-rule="evenodd" stroke="none"/>
      <path d="M43.15 37.75 L43.35 39.2 43.5 42.2 Q43.5 44.55 42.9 47.05 42.55 48.2 42.5 49.0 L42.4 50.0 39.4 47.1 Q38.35 46.15 38.35 42.9 L38.45 41.9 43.15 37.75 M12.75 54.45 Q6.9 50.4 3.8 47.65 L1.0 43.9 -1.05 41.05 Q-2.6 38.75 -3.2 37.25 L-7.45 27.25 -3.95 30.45 Q-1.45 35.8 4.55 41.85 9.25 46.6 12.55 48.55 L13.1 49.15 15.75 52.6 14.1 46.8 13.75 45.35 14.25 45.75 14.85 48.45 16.4 52.95 17.0 54.45 12.75 54.45 M23.65 54.45 L19.25 54.45 17.95 51.85 Q16.85 49.7 16.75 48.65 L23.65 54.45" fill="#7270b6" fill-rule="evenodd" stroke="none"/>
      <path d="M-3.95 30.45 L-7.45 27.25 -7.55 27.2 -8.65 26.15 -11.25 23.65 -11.85 22.45 -1.65 28.25 11.35 38.7 Q10.9 38.4 10.4 38.2 1.75 33.85 -2.0 32.15 L-3.95 30.45 M24.9 54.45 L24.75 54.45 22.9 52.85 24.9 54.45" fill="#e8e0ff" fill-rule="evenodd" stroke="none"/>
      <path d="M13.75 45.35 L14.1 46.8 15.75 52.6 13.1 49.15 12.55 48.55 Q9.25 46.6 4.55 41.85 -1.45 35.8 -3.95 30.45 L-2.0 32.15 10.25 42.5 13.75 45.35" fill="#4f4d8e" fill-rule="evenodd" stroke="none"/>
      <path d="M24.75 54.45 L23.65 54.45 16.75 48.65 Q16.85 49.7 17.95 51.85 L19.25 54.45 18.35 54.45 17.55 52.45 Q16.5 49.85 16.0 48.05 L15.7 47.0 20.65 51.0 22.2 52.3 22.9 52.85 24.75 54.45" fill="#9290d7" fill-rule="evenodd" stroke="none"/>
      <path d="M43.15 37.75 L43.45 37.5 47.85 44.05 M41.25 51.1 L36.85 46.5 36.8 47.25 M38.45 41.9 L37.05 43.05 36.85 46.5 36.4 46.05 M38.45 41.9 L43.15 37.75" fill="none" stroke="#524d6b" stroke-linecap="round" stroke-linejoin="round" stroke-width="1.0"/>
      <path d="M47.85 44.05 Q49.5 48.35 50.4 54.45 M42.9 54.45 L41.35 51.25 41.25 51.1 M-11.25 23.65 L0.95 48.5 10.35 54.45 M11.35 38.7 L-1.65 28.25 -11.85 22.45 -11.25 23.65 M11.35 38.7 L14.75 41.35 Q22.65 48.0 29.65 54.45" fill="none" stroke="#322a51" stroke-linecap="round" stroke-linejoin="round" stroke-width="1.0"/>
      <path d="M1.75 54.9 L-1.4 54.9 -1.4 47.15 1.75 54.9" fill="#595780" fill-rule="evenodd" stroke="none"/>
      <path d="M1.75 54.9 L-1.4 47.15" fill="none" stroke="#2a263f" stroke-linecap="round" stroke-linejoin="round" stroke-width="1.0"/>
      <path d="M29.35 23.9 L31.4 22.6 36.8 31.9 34.9 35.7 35.05 37.2 Q35.55 41.05 35.45 42.0 L33.25 40.6 32.5 40.25 30.95 39.5 33.25 41.1 Q34.75 42.15 35.7 43.35 L34.5 43.05 34.45 43.05 34.4 43.0 33.4 42.25 Q31.25 40.8 29.45 39.25 L30.0 38.55 30.55 38.85 Q32.0 39.45 33.15 40.0 34.2 40.5 34.85 40.9 L34.5 39.0 Q34.1 37.8 32.95 36.35 L32.6 35.9 Q32.1 35.0 31.65 33.55 L31.1 31.7 30.75 30.3 30.55 29.5 29.35 23.9 M39.9 37.15 L40.5 38.45 40.15 40.1 38.35 43.75 37.45 45.5 37.35 45.6 38.8 41.05 Q39.35 38.55 39.9 37.15 M35.65 44.6 L36.0 43.75 Q36.9 44.8 37.2 45.85 L36.4 46.95 36.0 47.75 Q36.25 46.0 35.65 44.6" fill="#3d2ead" fill-rule="evenodd" stroke="none"/>
      <path d="M30.55 29.5 L30.75 30.3 30.65 31.75 30.35 32.45 30.55 34.2 30.8 35.15 Q31.05 35.7 31.3 35.7 32.15 35.9 32.55 37.05 L33.0 38.45 32.45 37.55 31.8 36.4 31.25 35.9 Q30.8 35.45 30.95 36.6 L30.75 35.6 29.75 31.6 29.35 31.65 25.0 32.3 24.1 32.35 23.2 32.3 24.95 34.0 25.25 34.1 27.6 35.0 Q28.9 35.55 29.45 36.0 L29.45 36.05 29.45 36.1 29.4 36.4 29.4 36.55 28.7 37.85 28.4 38.4 27.5 39.8 26.6 40.95 Q28.25 42.45 30.1 43.15 L32.85 44.05 33.4 45.4 Q32.2 47.05 31.6 48.4 L33.75 49.5 33.65 49.35 33.55 49.15 33.7 49.25 33.8 49.35 34.65 50.2 34.5 50.4 30.3 48.4 24.4 43.35 19.25 30.25 22.05 28.5 30.55 29.5" fill="#5cffff" fill-rule="evenodd" stroke="none"/>
      <path d="M29.35 23.9 L30.55 29.5 22.05 28.5 29.35 23.9 M30.75 30.3 L31.1 31.7 31.65 33.55 Q32.1 35.0 32.6 35.9 L32.95 36.35 Q34.1 37.8 34.5 39.0 L34.85 40.9 Q34.2 40.5 33.15 40.0 32.0 39.45 30.55 38.85 L30.0 38.55 30.5 37.75 31.0 38.0 33.05 38.85 33.3 39.05 33.0 38.45 32.55 37.05 Q32.15 35.9 31.3 35.7 31.05 35.7 30.8 35.15 L30.55 34.2 30.35 32.45 30.65 31.75 30.75 30.3 M29.45 39.25 Q31.25 40.8 33.4 42.25 L34.4 43.0 34.45 43.05 33.45 42.85 33.2 42.8 31.85 42.05 31.5 41.65 30.2 41.05 29.55 40.75 28.6 40.3 29.45 39.25 M40.15 40.1 L39.4 42.65 38.85 43.35 37.45 45.5 38.35 43.75 40.15 40.1 M35.0 45.75 L35.65 44.6 Q36.25 46.0 36.0 47.75 35.05 49.25 34.95 49.65 35.3 47.55 35.1 46.1 L35.0 45.75" fill="#4f4dbf" fill-rule="evenodd" stroke="none"/>
      <path d="M29.35 31.65 Q29.7 33.2 30.6 36.0 L30.95 37.1 31.05 37.05 31.35 36.25 Q31.9 37.45 32.9 38.6 L32.8 38.6 30.7 37.55 30.8 37.55 30.6 37.55 30.35 37.45 30.15 37.3 29.75 36.8 29.85 36.65 29.7 36.65 29.5 36.1 29.45 36.1 29.45 36.05 29.45 36.0 Q29.1 35.4 27.55 34.5 L24.75 32.8 24.1 32.35 25.0 32.3 29.35 31.65 M30.45 36.3 L30.4 36.25 29.95 35.3 29.0 32.05 25.35 32.7 26.75 33.7 28.75 35.0 29.4 35.25 29.85 35.85 30.15 36.9 30.25 37.05 30.55 37.25 30.85 37.5 30.85 37.35 30.45 36.3" fill="#35d8ff" fill-rule="evenodd" stroke="none"/>
      <path d="M30.0 38.55 L29.45 39.25 28.6 40.3 28.0 41.1 28.0 41.25 32.1 42.45 33.2 42.8 33.45 42.85 34.45 43.05 34.5 43.05 35.7 43.35 36.15 43.4 36.0 43.75 35.65 44.6 35.0 45.75 33.95 47.55 33.9 47.6 33.75 47.75 33.35 48.45 33.4 48.5 33.7 49.1 33.85 49.35 33.8 49.35 33.7 49.25 33.55 49.15 32.7 48.55 32.5 48.4 32.65 48.1 33.6 46.25 33.7 46.05 34.8 44.55 34.85 44.45 35.2 43.85 35.25 43.7 35.05 43.7 34.3 43.65 33.5 43.45 32.5 43.25 Q30.45 42.7 28.55 41.75 L27.05 41.15 27.25 41.0 27.15 40.95 27.25 40.95 28.0 40.0 28.75 38.65 29.1 38.1 29.45 37.4 29.25 37.4 29.4 36.55 29.4 36.4 29.45 36.1 29.5 36.1 29.7 36.65 29.85 36.65 29.75 36.8 30.15 37.3 30.35 37.45 30.6 37.55 30.8 37.55 30.7 37.55 32.8 38.6 32.9 38.6 Q31.9 37.45 31.35 36.25 L31.05 37.05 30.95 37.1 30.6 36.0 Q29.7 33.2 29.35 31.65 L29.75 31.6 30.75 35.6 30.95 36.6 Q30.8 35.45 31.25 35.9 L31.8 36.4 32.45 37.55 33.0 38.45 33.3 39.05 33.05 38.85 31.0 38.0 30.5 37.75 30.0 38.55 M24.1 32.35 L24.75 32.8 27.55 34.5 Q29.1 35.4 29.45 36.0 28.9 35.55 27.6 35.0 L25.25 34.1 24.95 34.0 23.2 32.3 24.1 32.35" fill="#35a0ff" fill-rule="evenodd" stroke="none"/>
      <path d="M30.45 36.3 L30.85 37.35 30.85 37.5 30.55 37.25 30.25 37.05 30.15 36.9 29.85 35.85 29.4 35.25 28.75 35.0 26.75 33.7 25.35 32.7 29.0 32.05 29.95 35.3 30.4 36.25 30.45 36.3" fill="#8cfffb" fill-rule="evenodd" stroke="none"/>
      <path d="M35.7 43.35 Q34.75 42.15 33.25 41.1 L30.95 39.5 32.5 40.25 33.25 40.6 35.45 42.0 Q35.55 41.05 35.05 37.2 L34.9 35.7 36.8 31.9 39.9 37.15 Q39.35 38.55 38.8 41.05 L37.35 45.6 37.3 45.75 37.2 45.85 Q36.9 44.8 36.0 43.75 L36.15 43.4 35.7 43.35" fill="#1b0f72" fill-rule="evenodd" stroke="none"/>
      <path d="M29.4 36.55 L29.25 37.4 29.45 37.4 29.1 38.1 28.75 38.65 28.0 40.0 27.25 40.95 27.15 40.95 27.25 41.0 27.05 41.15 28.55 41.75 Q30.45 42.7 32.5 43.25 L33.5 43.45 34.3 43.65 35.05 43.7 35.25 43.7 35.2 43.85 34.85 44.45 34.8 44.55 33.7 46.05 33.6 46.25 32.65 48.1 32.5 48.4 32.7 48.55 33.55 49.15 33.65 49.35 33.75 49.5 31.6 48.4 Q32.2 47.05 33.4 45.4 L33.65 44.85 33.9 44.35 33.6 44.25 32.85 44.05 30.1 43.15 Q28.25 42.45 26.6 40.95 L27.5 39.8 28.4 38.4 28.7 37.85 29.4 36.55" fill="#48dfff" fill-rule="evenodd" stroke="none"/>
      <path d="M28.6 40.3 L29.55 40.75 30.2 41.05 31.5 41.65 31.85 42.05 32.1 42.45 28.0 41.25 28.0 41.1 28.6 40.3" fill="#7871e9" fill-rule="evenodd" stroke="none"/>
      <path d="M39.4 42.65 L38.65 45.55 34.65 50.2 33.8 49.35 33.85 49.35 33.7 49.1 33.4 48.5 33.35 48.45 33.75 47.75 33.9 47.6 33.95 47.55 35.0 45.75 35.1 46.1 Q35.3 47.55 34.95 49.65 35.05 49.25 36.0 47.75 L36.4 46.95 37.2 45.85 37.3 45.75 37.35 45.6 37.45 45.5 38.85 43.35 39.4 42.65 M31.85 42.05 L33.2 42.8 32.1 42.45 31.85 42.05 M32.85 44.05 L33.6 44.25 33.9 44.35 33.65 44.85 33.4 45.4 32.85 44.05" fill="#7d7bff" fill-rule="evenodd" stroke="none"/>
      <path d="M36.8 31.9 L31.4 22.6 29.35 23.9 22.05 28.5 19.25 30.25 24.4 43.35 30.3 48.4 34.5 50.4 34.65 50.2 38.65 45.55 39.4 42.65 40.15 40.1 40.5 38.45 39.9 37.15 36.8 31.9 Z" fill="none" stroke="#503fcb" stroke-linecap="round" stroke-linejoin="round" stroke-width="1.0"/>
      <path d="M24.4 43.05 L19.95 39.25 Q18.05 37.4 16.3 35.0 L15.3 33.55 14.05 31.5 14.05 31.45 Q12.0 29.9 9.75 28.6 L6.1 26.5 Q4.6 25.5 3.05 25.15 L2.35 24.95 2.35 24.9 Q10.1 22.2 17.45 25.0 L24.4 43.05" fill="#7990bb" fill-rule="evenodd" stroke="none"/>
      <path d="M24.95 44.35 Q20.95 42.0 16.35 36.9 12.9 33.2 11.8 31.2 8.5 29.1 7.05 28.8 6.5 28.75 6.35 29.05 L6.1 29.75 Q5.85 30.95 6.45 33.25 2.85 28.9 2.35 24.95 L3.05 25.15 Q4.6 25.5 6.1 26.5 L9.75 28.6 Q12.0 29.9 14.05 31.45 L14.05 31.5 15.3 33.55 16.3 35.0 Q18.05 37.4 19.95 39.25 L24.4 43.05 24.95 44.35" fill="#8eafee" fill-rule="evenodd" stroke="none"/>
      <path d="M6.45 33.25 Q5.85 30.95 6.1 29.75 L6.35 29.05 Q6.5 28.75 7.05 28.8 8.5 29.1 11.8 31.2 12.9 33.2 16.35 36.9 20.95 42.0 24.95 44.35 L25.4 45.65 25.35 46.0 25.4 47.5 Q13.4 40.5 8.2 35.15 L6.45 33.25" fill="#bfd2f7" fill-rule="evenodd" stroke="none"/>
      <path d="M24.95 44.35 L24.4 43.05 17.45 25.0 Q10.1 22.2 2.35 24.9 L2.35 24.95 Q2.85 28.9 6.45 33.25 L8.2 35.15 Q13.4 40.5 25.4 47.5 L25.35 46.0 25.4 45.65 24.95 44.35" fill="none" stroke="#322a51" stroke-linecap="round" stroke-linejoin="round" stroke-width="1.0"/>
      <path d="M29.6 47.4 L30.1 47.65" fill="none" stroke="#113762" stroke-linecap="round" stroke-linejoin="round" stroke-width="0.1"/>
      <path d="M38.0 -1.4 L37.95 -3.15 44.35 18.2 43.8 18.25 42.65 18.5 41.7 18.8 41.7 18.85 41.3 19.0 41.35 18.95 41.45 18.25 40.3 14.3 40.15 13.75 39.0 5.05 38.0 -1.4 M47.15 35.4 L46.9 36.1 46.75 36.3 Q43.55 40.95 40.6 43.85 L40.0 40.55 44.0 34.85 47.15 35.4" fill="#dceef3" fill-rule="evenodd" stroke="none"/>
      <path d="M38.0 -1.4 L39.0 5.05 40.15 13.75 40.3 14.3 39.65 15.45 36.15 21.35 35.8 19.5 Q38.0 7.8 38.0 -1.4 M42.65 18.5 L43.8 18.25 44.35 18.2 44.3 18.65 50.05 16.05 50.85 16.75 45.05 33.5 Q44.95 33.5 44.9 33.6 45.3 28.85 42.95 32.5 L39.5 38.05 38.25 31.65 Q39.7 29.65 42.9 26.1 45.5 23.05 47.85 20.85 L48.75 19.95 46.35 20.0 42.45 20.05 42.65 18.5" fill="#b9b7f0" fill-rule="evenodd" stroke="none"/>
      <path d="M40.3 14.3 L41.45 18.25 41.35 18.95 41.3 19.0 41.7 18.85 41.7 18.8 42.65 18.5 42.45 20.05 46.35 20.0 48.75 19.95 47.85 20.85 Q45.5 23.05 42.9 26.1 39.7 29.65 38.25 31.65 L36.15 21.35 39.65 15.45 40.3 14.3" fill="#9290d7" fill-rule="evenodd" stroke="none"/>
      <path d="M50.85 16.75 L51.8 17.5 47.15 35.4 44.0 34.85 44.9 33.6 Q44.95 33.5 45.05 33.5 L50.85 16.75" fill="#fafdff" fill-rule="evenodd" stroke="none"/>
      <path d="M40.0 40.55 L39.5 38.05 42.95 32.5 Q45.3 28.85 44.9 33.6 L44.0 34.85 40.0 40.55" fill="#e8e0ff" fill-rule="evenodd" stroke="none"/>
      <path d="M44.35 18.2 L37.95 -3.15 38.0 -1.4 Q38.0 7.8 35.8 19.5 L36.15 21.35 38.25 31.65 39.5 38.05 40.0 40.55 40.6 43.85 Q43.55 40.95 46.75 36.3 L46.9 36.1 47.15 35.4 51.8 17.5 50.85 16.75 50.05 16.05 44.3 18.65 44.35 18.2 Z" fill="none" stroke="#322a51" stroke-linecap="round" stroke-linejoin="round" stroke-width="1.0"/>
      <path d="M42.9 24.0 Q44.5 30.3 43.9 34.25 L37.4 29.45 0.0 11.45 38.4 14.3 Q41.3 17.6 42.9 24.0" fill="#b9b7f0" fill-rule="evenodd" stroke="none"/>
      <path d="M42.9 24.0 Q41.3 17.6 38.4 14.3 L0.0 11.45 37.4 29.45 43.9 34.25 Q44.5 30.3 42.9 24.0 Z" fill="none" stroke="#322a51" stroke-linecap="round" stroke-linejoin="round" stroke-width="1.0"/>
      <path d="M16.85 30.9 L16.55 30.6 19.45 31.55 21.1 32.95 21.6 34.9 21.65 35.1 21.95 36.0 18.05 32.3 17.3 31.5 17.2 31.35 16.85 30.9 M24.25 43.0 L24.3 42.95 24.85 42.4 25.15 42.15 26.05 41.2 27.65 42.35 27.8 42.65 28.05 43.25 28.75 44.75 26.95 44.05 26.15 43.8 25.8 43.65 25.65 43.55 24.25 43.0" fill="#b1ddf7" fill-rule="evenodd" stroke="none"/>
      <path d="M19.45 31.55 L16.55 30.6 16.85 30.9 15.95 30.4 15.7 30.25 14.8 29.7 18.95 35.3 Q20.5 37.4 22.0 38.95 L22.05 39.85 Q22.05 41.05 22.2 41.6 L23.7 39.8 23.75 39.7 Q23.8 39.6 23.9 39.6 L24.65 38.85 24.7 38.8 26.75 37.7 27.05 37.55 28.1 36.9 28.85 36.6 28.95 36.65 25.95 41.15 26.05 41.2 25.15 42.15 24.85 42.4 24.3 42.95 24.25 43.0 23.8 42.75 23.65 42.7 21.75 41.9 23.45 43.15 23.85 43.4 24.5 43.75 26.35 45.1 27.25 45.6 27.45 45.8 29.8 47.35 29.5 48.85 30.6 47.9 32.95 45.95 34.4 44.75 34.9 44.7 29.75 50.2 25.05 47.25 Q16.55 38.55 12.75 27.45 L15.7 25.95 Q17.3 23.75 22.7 19.95 L32.25 26.2 32.35 31.2 19.35 31.45 19.45 31.55" fill="#7990bb" fill-rule="evenodd" stroke="none"/>
      <path d="M16.85 30.9 L17.2 31.35 17.3 31.5 18.05 32.3 21.95 36.0 23.25 37.05 23.85 37.05 26.5 36.8 27.05 36.75 28.8 36.6 28.85 36.6 28.1 36.9 27.05 37.55 26.75 37.7 24.7 38.8 24.65 38.85 23.9 39.6 Q23.8 39.6 23.75 39.7 L23.7 39.8 22.2 41.6 Q22.05 41.05 22.05 39.85 L22.0 38.95 Q20.5 37.4 18.95 35.3 L14.8 29.7 15.7 30.25 15.95 30.4 16.85 30.9 M34.4 44.75 L32.95 45.95 30.6 47.9 29.5 48.85 29.8 47.35 27.45 45.8 27.25 45.6 26.35 45.1 24.5 43.75 23.85 43.4 23.45 43.15 21.75 41.9 23.65 42.7 23.8 42.75 24.25 43.0 25.65 43.55 25.8 43.65 26.15 43.8 26.95 44.05 28.75 44.75 30.1 45.35 34.4 44.75" fill="#52587e" fill-rule="evenodd" stroke="none"/>
      <path d="M21.95 36.0 L21.65 35.1 21.6 34.9 21.1 32.95 22.55 34.15 28.8 36.6 27.05 36.75 26.5 36.8 23.85 37.05 23.25 37.05 21.95 36.0 M34.9 44.7 L34.4 44.75 30.1 45.35 28.75 44.75 28.05 43.25 27.8 42.65 27.65 42.35 29.8 43.7 35.05 44.5 34.9 44.7" fill="#d7fffd" fill-rule="evenodd" stroke="none"/>
      <path d="M19.45 31.55 L19.35 31.45 M32.35 31.2 L32.25 26.2 22.7 19.95 Q17.3 23.75 15.7 25.95 L12.75 27.45 M25.05 47.25 L29.75 50.2 34.9 44.7 35.05 44.5 M26.05 41.2 L25.95 41.15 M28.95 36.65 L28.85 36.6 28.8 36.6" fill="none" stroke="#322a51" stroke-linecap="round" stroke-linejoin="round" stroke-width="1.0"/>
      <path d="M21.1 32.95 L19.45 31.55 M19.35 31.45 L32.35 31.2 M25.95 41.15 L28.95 36.65 M21.1 32.95 L22.55 34.15 28.8 36.6 M26.05 41.2 L27.65 42.35 29.8 43.7 35.05 44.5" fill="none" stroke="#3c6695" stroke-linecap="round" stroke-linejoin="round" stroke-width="1.0"/>
      <path d="M40.3 43.6 L37.3 40.8 36.7 38.15 32.55 33.9 32.6 32.7 32.8 30.85 32.05 30.0 28.5 26.4 26.15 26.55 25.5 26.6 23.15 23.5 Q20.9 20.35 19.0 16.6 L18.6 16.6 18.7 16.5 18.6 16.4 18.75 16.05 19.2 15.2 19.4 14.7 19.5 14.5 19.5 14.45 21.4 10.95 21.8 10.1 22.4 9.05 Q23.7 6.8 25.15 4.7 L25.45 4.3 25.6 4.1 25.8 3.8 25.8 3.75 25.95 3.45 25.9 3.25 26.2 2.5 27.15 2.0 27.3 2.3 27.35 2.35 28.0 3.4 28.25 3.8 Q37.3 18.55 44.95 33.5 L44.2 35.65 43.05 38.3 42.85 38.85 Q41.0 36.8 38.9 33.9 L38.1 32.8 35.3 28.45 35.55 29.95 36.05 31.75 36.35 32.75 Q37.2 35.95 38.2 38.65 L38.4 39.05 38.7 39.9 40.3 43.6 M27.6 4.45 L27.25 4.7 26.5 5.35 25.3 6.5 22.95 10.15 Q25.45 15.15 29.3 21.8 L29.35 21.9 29.5 22.0 30.75 22.4 31.55 23.4 33.75 26.0 33.75 25.85 32.95 24.15 32.3 22.8 Q31.1 19.55 29.6 14.15 28.1 8.55 27.6 4.45 M25.55 17.65 L21.9 11.85 19.7 15.45 21.15 18.1 Q22.85 21.1 23.9 22.7 L25.75 25.9 26.15 25.95 28.05 25.95 28.3 25.9 28.85 25.95 29.45 26.45 33.6 30.2 33.6 31.7 33.55 32.25 33.6 33.0 33.6 33.3 35.8 36.0 36.4 36.8 35.85 34.55 35.2 31.8 34.95 30.85 34.4 28.6 32.9 26.65 30.4 23.2 28.95 23.05 25.55 17.65" fill="#fafdff" fill-rule="evenodd" stroke="none"/>
      <path d="M42.85 38.85 L42.8 38.95 41.45 41.6 40.3 43.65 40.3 43.6 38.7 39.9 38.4 39.05 38.2 38.65 Q37.2 35.95 36.35 32.75 L36.05 31.75 35.55 29.95 35.3 28.45 38.1 32.8 38.9 33.9 Q41.0 36.8 42.85 38.85 M37.3 40.8 L32.5 35.15 31.9 34.4 31.45 33.7 29.25 30.4 24.45 27.65 17.8 17.25 17.65 17.3 18.6 15.8 19.05 15.2 19.3 14.85 19.4 14.65 19.5 14.5 19.4 14.7 19.2 15.2 18.75 16.05 18.6 16.4 18.7 16.5 18.6 16.6 19.0 16.6 Q20.9 20.35 23.15 23.5 L25.5 26.6 26.15 26.55 28.5 26.4 32.05 30.0 32.8 30.85 32.6 32.7 32.55 33.9 36.7 38.15 37.3 40.8 M25.8 3.75 L25.8 3.8 25.6 4.1 25.7 3.95 25.8 3.75 M27.6 4.45 Q28.1 8.55 29.6 14.15 31.1 19.55 32.3 22.8 L32.95 24.15 33.75 25.85 33.75 26.0 31.55 23.4 30.75 22.4 29.5 22.0 29.35 21.9 29.3 21.8 Q25.45 15.15 22.95 10.15 L25.3 6.5 26.5 5.35 27.25 4.7 27.6 4.45 M25.55 17.65 L28.95 23.05 30.4 23.2 32.9 26.65 34.4 28.6 34.95 30.85 35.2 31.8 35.85 34.55 36.4 36.8 35.8 36.0 33.6 33.3 33.6 33.0 33.55 32.25 33.6 31.7 33.6 30.2 29.45 26.45 28.85 25.95 28.3 25.9 28.05 25.95 26.15 25.95 25.75 25.9 23.9 22.7 Q22.85 21.1 21.15 18.1 L19.7 15.45 21.9 11.85 25.55 17.65" fill="#e8e0ff" fill-rule="evenodd" stroke="none"/>
      <path d="M10.3 0.0 L15.5 0.0 18.0 5.6 13.75 8.85 Q11.9 6.0 10.8 3.65 L10.3 0.0 M25.6 2.7 L26.2 2.5 25.9 3.25 25.6 2.7" fill="#dceef3" fill-rule="evenodd" stroke="none"/>
      <path d="M17.65 17.3 L6.85 18.9 Q6.15 14.65 4.45 7.65 L6.35 4.55 5.3 0.75 6.4 0.0 9.05 0.0 8.45 2.95 8.35 3.25 9.05 5.85 9.25 6.55 9.15 6.7 8.05 8.0 Q8.6 10.1 8.65 12.0 8.7 14.0 9.15 14.95 L7.3 17.55 9.2 17.35 15.35 16.1 17.3 15.6 17.4 15.55 21.3 10.8 21.8 10.1 21.4 10.95 19.5 14.45 19.5 14.5 19.4 14.65 19.3 14.85 19.05 15.2 18.6 15.8 17.65 17.3 M9.75 0.0 L10.3 0.0 10.8 3.65 Q11.9 6.0 13.75 8.85 L13.2 9.15 13.75 8.85 18.0 5.6 25.6 2.7 25.9 3.25 25.95 3.45 25.8 3.75 25.7 3.95 25.6 4.1 25.5 4.0 Q23.4 4.55 20.9 5.65 18.95 6.4 17.25 7.3 15.4 8.6 13.75 10.05 L13.2 9.15 11.85 7.05 10.15 3.45 10.0 3.0 9.8 1.05 9.75 0.0" fill="#b9b7f0" fill-rule="evenodd" stroke="none"/>
      <path d="M9.05 0.0 L9.75 0.0 9.8 1.05 10.0 3.0 10.15 3.45 11.85 7.05 13.2 9.15 13.75 10.05 Q15.4 8.6 17.25 7.3 18.95 6.4 20.9 5.65 23.4 4.55 25.5 4.0 L25.6 4.1 25.45 4.3 25.15 4.7 Q23.7 6.8 22.4 9.05 L21.8 10.1 21.3 10.8 17.4 15.55 17.3 15.6 Q18.1 12.05 18.3 9.95 L18.05 9.9 Q16.5 9.8 8.8 11.2 L8.8 10.4 9.15 9.2 9.2 7.45 9.15 6.7 9.25 6.55 9.05 5.85 8.6 3.65 8.45 2.95 9.05 0.0" fill="#7270b6" fill-rule="evenodd" stroke="none"/>
      <path d="M9.15 6.7 L9.2 7.45 9.15 9.2 8.8 10.4 8.8 11.2 Q16.5 9.8 18.05 9.9 L18.3 9.95 Q18.1 12.05 17.3 15.6 L15.35 16.1 9.2 17.35 7.3 17.55 9.15 14.95 Q8.7 14.0 8.65 12.0 8.6 10.1 8.05 8.0 L9.15 6.7 M9.05 5.85 L8.35 3.25 8.45 2.95 8.6 3.65 9.05 5.85" fill="#9290d7" fill-rule="evenodd" stroke="none"/>
      <path d="M40.3 43.65 L40.3 43.6 37.3 40.8 32.5 35.15 31.9 34.4 31.45 33.7 29.25 30.4 24.45 27.65 17.8 17.25 17.65 17.3 6.85 18.9 Q6.15 14.65 4.45 7.65 L6.35 4.55 5.3 0.75 6.4 0.0 M15.5 0.0 L18.0 5.6 25.6 2.7 26.2 2.5 27.15 2.0 27.3 2.3 27.35 2.35 28.0 3.4 28.25 3.8 Q37.3 18.55 44.95 33.5 M13.2 9.15 L13.75 8.85 18.0 5.6" fill="none" stroke="#322a51" stroke-linecap="round" stroke-linejoin="round" stroke-width="1.0"/>
      <path d="M36.75 50.6 L38.75 44.9 40.1 44.75 37.65 50.8 36.75 50.6" fill="#b9b7f0" fill-rule="evenodd" stroke="none"/>
      <path d="M40.1 44.75 L38.75 44.9 36.75 50.6" fill="none" stroke="#3c6695" stroke-linecap="round" stroke-linejoin="round" stroke-width="1.0"/>
      <path d="M36.75 50.6 L37.65 50.8 40.1 44.75" fill="none" stroke="#322a51" stroke-linecap="round" stroke-linejoin="round" stroke-width="1.0"/>
    </g>
    <g id="sprite0" transform="matrix(1.0, 0.0, 0.0, 1.0, 0.0, 0.0)">
      <use ffdec:characterId="3" height="7.7" transform="matrix(1.0, 0.0, 0.0, 1.0, 0.0, 0.0)" width="11.15" xlink:href="#shape2"/>
    </g>
    <g id="shape2" transform="matrix(1.0, 0.0, 0.0, 1.0, 0.0, 0.0)">
      <path d="M5.45 0.15 L8.25 5.95 8.35 5.9 8.45 4.7 8.45 4.8 Q9.3 6.15 10.6 7.25 L10.5 7.25 7.65 6.4 6.9 5.8 6.4 4.9 6.35 4.85 Q5.9 4.4 4.0 3.65 L0.75 2.25 0.0 1.85 0.9 1.7 Q2.25 1.55 5.45 0.15 M5.45 4.0 L6.15 4.15 Q6.6 4.25 6.8 4.7 L7.35 5.9 Q7.45 6.1 7.8 6.15 8.15 6.2 8.2 6.35 L8.2 6.2 7.5 5.1 6.8 4.1 5.15 0.65 Q4.8 1.05 1.35 2.05 L3.05 2.9 5.45 4.0" fill="#35d8ff" fill-rule="evenodd" stroke="none"/>
      <path d="M6.4 4.9 L6.9 5.8 7.65 6.4 10.5 7.25 10.6 7.25 Q9.3 6.15 8.45 4.8 L8.45 4.7 8.35 5.9 8.25 5.95 5.45 0.15 5.85 0.0 8.15 5.35 Q7.75 4.1 8.3 4.5 L9.05 5.05 9.95 6.15 11.15 7.7 8.45 7.0 6.4 6.5 6.4 4.9" fill="#35a0ff" fill-rule="evenodd" stroke="none"/>
      <path d="M5.45 4.0 L3.05 2.9 1.35 2.05 Q4.8 1.05 5.15 0.65 L6.8 4.1 7.5 5.1 8.2 6.2 8.2 6.35 Q8.15 6.2 7.8 6.15 7.45 6.1 7.35 5.9 L6.8 4.7 Q6.6 4.25 6.15 4.15 L5.45 4.0" fill="#8cfffb" fill-rule="evenodd" stroke="none"/>
    </g>
    <g id="shape3" transform="matrix(1.0, 0.0, 0.0, 1.0, 1.9, -21.55)">
      <path d="M0.6 40.45 L0.45 39.6 -0.35 34.9 -1.4 28.95 -1.4 22.05 -1.15 22.35 -0.95 23.25 3.0 41.65 0.85 40.55 0.6 40.45" fill="#fafdff" fill-rule="evenodd" stroke="none"/>
      <path d="M-1.4 28.95 L-0.35 34.9 0.45 39.6 0.6 40.45 -1.4 39.5 -1.4 28.95" fill="#e8e0ff" fill-rule="evenodd" stroke="none"/>
      <path d="M0.6 40.45 L0.85 40.55 3.0 41.65 3.15 42.35 3.9 46.25 6.65 54.45 1.65 54.45 -1.4 50.9 -1.4 44.55 -1.35 44.55 Q0.85 44.75 3.25 48.95 L3.3 49.0 1.8 43.9 1.0 41.25 -1.4 39.95 -1.4 39.5 0.6 40.45" fill="#9290d7" fill-rule="evenodd" stroke="none"/>
      <path d="M1.8 43.9 L3.3 49.0 3.25 48.95 Q0.85 44.75 -1.35 44.55 L-1.4 44.55 -1.4 41.45 0.0 42.35 1.8 43.9" fill="#7270b6" fill-rule="evenodd" stroke="none"/>
      <path d="M1.8 43.9 L0.0 42.35 -1.4 41.45 -1.4 39.95 1.0 41.25 1.8 43.9" fill="#4f4d8e" fill-rule="evenodd" stroke="none"/>
      <path d="M-1.4 50.9 L1.65 54.45 -1.4 54.45 -1.4 50.9" fill="#b9b7f0" fill-rule="evenodd" stroke="none"/>
      <path d="M6.65 54.45 L3.9 46.25 3.15 42.35 3.0 41.65" fill="none" stroke="#322a51" stroke-linecap="round" stroke-linejoin="round" stroke-width="1.0"/>
      <path d="M3.0 41.65 L-0.95 23.25 -1.15 22.35 -1.4 22.05" fill="none" stroke="#574991" stroke-linecap="round" stroke-linejoin="round" stroke-width="1.0"/>
    </g>
    <g id="shape4" transform="matrix(1.0, 0.0, 0.0, 1.0, 0.0, 0.0)">
      <path d="M50.5 0.0 Q53.95 0.0 53.95 3.3 L53.95 50.15 Q53.95 53.4 50.5 53.4 L3.3 53.4 Q0.0 53.4 0.0 50.15 L0.0 3.3 Q0.0 0.0 3.3 0.0 L50.5 0.0" fill="#000000" fill-opacity="0.003921569" fill-rule="evenodd" stroke="none"/>
    </g>
  </defs>
</svg>
