<?xml version="1.0" encoding="UTF-8" standalone="no"?>
<svg xmlns:ffdec="https://www.free-decompiler.com/flash" xmlns:xlink="http://www.w3.org/1999/xlink" ffdec:objectType="frame" height="60.0px" width="60.45px" xmlns="http://www.w3.org/2000/svg">
  <g transform="matrix(1.0, 0.0, 0.0, 1.0, 3.25, 2.9)">
    <clipPath id="clipPath0" transform="matrix(1.0, 0.0, 0.0, 1.0, 0.0, 0.0)">
      <path d="M50.5 0.0 Q53.95 0.0 53.95 3.3 L53.95 50.15 Q53.95 53.4 50.5 53.4 L3.3 53.4 Q0.0 53.4 0.0 50.15 L0.0 3.3 Q0.0 0.0 3.3 0.0 L50.5 0.0" fill="#000000" fill-rule="evenodd" stroke="none"/>
    </clipPath>
    <g clip-path="url(#clipPath0)">
      <filter id="filter0">
        <feColorMatrix in="SourceGraphic" result="filterResult0" type="matrix" values="0 0 0 0 0.0,0 0 0 0 0.0,0 0 0 0 0.0,0 0 0 1 0"/>
        <feConvolveMatrix divisor="16.0" in="filterResult0" kernelMatrix="1 1 1 1 1 1 1 1 1 1 1 1 1 1 1 1" order="4 4" result="filterResult1"/>
        <feComposite in="SourceGraphic" in2="filterResult1" operator="over" result="filterResult2"/>
      </filter>
      <use ffdec:characterId="3" filter="url(#filter0)" height="52.25" transform="matrix(-1.1477, 0.0, 0.0, 1.1477, 57.1794, -2.8855)" width="52.65" xlink:href="#sprite0"/>
    </g>
    <use ffdec:characterId="4" height="53.4" transform="matrix(1.0, 0.0, 0.0, 1.0, 0.0, 0.0)" width="53.95" xlink:href="#shape2"/>
  </g>
  <defs>
    <g id="sprite0" transform="matrix(1.0, 0.0, 0.0, 1.0, -89.15, -32.25)">
      <use ffdec:characterId="2" height="52.25" transform="matrix(1.0, 0.0, 0.0, 1.0, 89.15, 32.25)" width="52.65" xlink:href="#shape1"/>
    </g>
    <g id="shape1" transform="matrix(1.0, 0.0, 0.0, 1.0, -89.15, -32.25)">
      <path d="M99.15 44.45 L99.2 44.9 99.4 48.4 103.75 51.55 101.45 48.25 100.25 46.35 99.85 43.95 Q99.45 42.05 99.4 40.4 99.3 38.3 99.8 37.75 100.25 37.3 101.5 37.95 102.85 38.6 104.1 40.15 103.35 38.4 100.6 34.6 L99.95 33.7 100.85 33.7 104.65 39.4 104.7 39.4 108.35 48.6 102.65 56.55 Q101.65 53.55 99.45 50.35 L99.35 49.6 99.35 49.4 99.25 48.35 98.8 43.7 98.5 41.3 96.9 33.7 97.15 33.7 Q98.65 39.25 99.15 44.45" fill="#8c8585" fill-rule="evenodd" stroke="none"/>
      <path d="M100.6 34.6 L100.05 34.55 Q99.75 34.55 99.4 34.9 98.6 35.7 98.95 40.85 L99.2 44.5 99.15 44.45 Q98.65 39.25 97.15 33.7 L99.95 33.7 100.6 34.6" fill="#232222" fill-rule="evenodd" stroke="none"/>
      <path d="M93.3 39.75 L93.5 33.7 96.9 33.7 98.5 41.3 98.8 43.7 Q96.0 41.15 93.3 39.75" fill="#c2c2c2" fill-rule="evenodd" stroke="none"/>
      <path d="M99.15 44.45 L99.2 44.5 98.95 40.85 Q98.6 35.7 99.4 34.9 99.75 34.55 100.05 34.55 L100.6 34.6 Q103.35 38.4 104.1 40.15 102.85 38.6 101.5 37.95 100.25 37.3 99.8 37.75 99.3 38.3 99.4 40.4 99.45 42.05 99.85 43.95 L100.25 46.35 101.45 48.25 103.75 51.55 99.4 48.4 99.2 44.9 99.15 44.45" fill="#585656" fill-rule="evenodd" stroke="none"/>
      <path d="M99.45 50.35 L99.0 49.75 96.45 55.3 95.6 59.3 Q93.5 52.8 93.1 46.2 L93.1 46.05 93.3 39.75 Q96.0 41.15 98.8 43.7 L99.25 48.35 99.35 49.4 99.35 49.6 99.45 50.35" fill="#e5e5e5" fill-rule="evenodd" stroke="none"/>
      <path d="M100.85 33.7 L104.65 39.4 104.7 39.4 108.35 48.6 102.65 56.55 Q101.65 53.55 99.45 50.35 L99.0 49.75 96.45 55.3 95.6 59.3 Q93.5 52.8 93.1 46.2 L93.1 46.05 93.3 39.75 93.5 33.7" fill="none" stroke="#332d2d" stroke-linecap="round" stroke-linejoin="round" stroke-width="0.8"/>
      <path d="M89.9 65.6 L90.0 65.45 91.2 67.7 91.1 67.6 89.95 69.9 91.1 67.6 91.2 67.7 Q94.0 71.25 95.5 74.8 96.95 77.2 97.55 79.7 L94.8 78.6 94.7 78.55 92.6 77.75 93.85 75.85 91.75 70.0 90.05 75.4 90.0 75.5 89.95 75.45 89.9 75.5 89.9 70.0 89.95 69.9 89.9 69.6 89.9 65.6 M94.05 75.55 L93.85 75.85 94.05 75.55" fill="#8c8585" fill-rule="evenodd" stroke="none"/>
      <path d="M89.9 69.6 L89.95 69.9 89.9 70.0 89.9 69.6 M92.5 77.95 L92.25 78.25 92.05 78.4 89.9 79.95 89.9 75.5 89.95 75.45 90.0 75.5 90.05 75.4 91.75 70.0 93.85 75.85 92.6 77.75 92.5 77.95 92.6 77.75 94.7 78.55 94.8 78.6 94.85 79.35 92.5 77.95" fill="#c2c2c2" fill-rule="evenodd" stroke="none"/>
      <path d="M91.2 67.7 L90.0 65.45 89.9 65.6 M89.95 69.9 L91.1 67.6 91.2 67.7 Q94.0 71.25 95.5 74.8 96.95 77.2 97.55 79.7 L97.9 79.85 M89.9 70.0 L89.95 69.9 M93.85 75.85 L94.05 75.55 M89.9 79.95 L92.05 78.4 92.25 78.25 92.5 77.95 92.6 77.75 93.85 75.85 M92.5 77.95 L94.85 79.35 94.8 78.6 94.7 78.55 92.6 77.75 M94.85 79.35 L95.2 79.5 M94.8 78.6 L97.55 79.7" fill="none" stroke="#332d2d" stroke-linecap="round" stroke-linejoin="round" stroke-width="0.8"/>
      <path d="M91.1 83.2 L90.15 83.2 91.85 76.95 92.9 77.0 91.1 83.2" fill="#312929" fill-rule="evenodd" stroke="none"/>
      <path d="M91.4 83.2 L91.6 82.3 93.05 77.0 103.3 77.45 106.35 83.2 91.4 83.2" fill="#000000" fill-rule="evenodd" stroke="none"/>
      <path d="M91.1 83.2 L92.9 77.0 93.05 77.0 91.6 82.3 91.4 83.2 91.1 83.2" fill="#1e1717" fill-rule="evenodd" stroke="none"/>
      <path d="M92.9 77.0 L91.85 76.95 90.15 83.2 M106.35 83.2 L103.3 77.45 93.05 77.0 92.9 77.0" fill="none" stroke="#171414" stroke-linecap="round" stroke-linejoin="round" stroke-width="0.8"/>
      <path d="M100.85 83.2 L108.9 71.15 133.75 69.7 139.55 78.95 Q142.1 79.75 141.1 83.2 L125.85 83.2 125.4 80.65 124.0 81.7 122.1 83.2 100.85 83.2" fill="#1e1717" fill-rule="evenodd" stroke="none"/>
      <path d="M125.85 83.2 L125.0 83.2 124.95 82.8 124.2 83.2 122.1 83.2 124.0 81.7 125.4 80.65 125.85 83.2" fill="#312929" fill-rule="evenodd" stroke="none"/>
      <path d="M125.0 83.2 L124.2 83.2 124.95 82.8 125.0 83.2" fill="#931414" fill-rule="evenodd" stroke="none"/>
      <path d="M100.85 83.2 L108.9 71.15 133.75 69.7 139.55 78.95 Q142.1 79.75 141.1 83.2" fill="none" stroke="#171414" stroke-linecap="round" stroke-linejoin="round" stroke-width="0.8"/>
      <path d="M117.35 73.95 L116.0 74.6 Q112.2 76.4 110.05 78.1 L108.25 79.8 107.85 80.6 107.7 80.9 106.55 83.6 105.95 78.75 108.6 74.25 115.1 72.6 123.75 66.05 125.05 68.3 123.05 71.25 117.35 73.95" fill="#585656" fill-rule="evenodd" stroke="none"/>
      <path d="M107.7 80.9 L107.85 80.6 108.25 79.8 110.05 78.1 Q112.2 76.4 116.0 74.6 L117.35 73.95 Q116.65 75.7 114.8 78.0 112.25 81.15 109.65 81.9 L109.25 81.75 107.7 80.9" fill="#c2c2c2" fill-rule="evenodd" stroke="none"/>
      <path d="M117.35 73.95 L123.05 71.25 118.15 78.5 106.6 84.1 106.55 83.6 107.7 80.9 109.25 81.75 109.65 81.9 Q112.25 81.15 114.8 78.0 116.65 75.7 117.35 73.95" fill="#8c8585" fill-rule="evenodd" stroke="none"/>
      <path d="M123.05 71.25 L125.05 68.3 123.75 66.05 115.1 72.6 108.6 74.25 105.95 78.75 106.55 83.6 106.6 84.1 118.15 78.5 123.05 71.25 Z" fill="none" stroke="#332d2d" stroke-linecap="round" stroke-linejoin="round" stroke-width="0.8"/>
      <path d="M99.8 79.35 L99.85 79.2 Q100.2 77.4 100.9 75.2 102.1 75.6 104.25 76.75 L105.6 77.5 103.15 82.35 103.05 83.2 102.0 83.2 101.9 83.0 100.95 81.2 99.8 79.35" fill="#482323" fill-rule="evenodd" stroke="none"/>
      <path d="M105.6 77.5 L104.25 76.75 Q102.1 75.6 100.9 75.2 100.2 77.4 99.85 79.2 L99.8 79.35 99.6 80.65 99.35 82.6 99.25 83.2 97.95 83.2 98.25 81.85 98.85 78.75 100.05 72.85 104.45 73.4 106.6 75.4 105.6 77.5" fill="#312929" fill-rule="evenodd" stroke="none"/>
      <path d="M98.85 78.75 L98.25 81.85 97.85 81.55 95.25 79.9 94.25 83.1 94.25 83.2 92.7 83.2 93.6 77.2 98.85 78.75" fill="#512030" fill-rule="evenodd" stroke="none"/>
      <path d="M98.25 81.85 L97.95 83.2 94.25 83.2 94.25 83.1 95.25 79.9 97.85 81.55 98.25 81.85" fill="#74354a" fill-rule="evenodd" stroke="none"/>
      <path d="M99.8 79.35 L100.95 81.2 101.9 83.0 102.0 83.2 99.25 83.2 99.35 82.6 99.6 80.65 99.8 79.35" fill="#773737" fill-rule="evenodd" stroke="none"/>
      <path d="M103.05 83.2 L103.15 82.35 105.6 77.5 106.6 75.4 104.45 73.4 100.05 72.85 98.85 78.75 98.25 81.85 97.95 83.2 M92.7 83.2 L93.6 77.2 98.85 78.75" fill="none" stroke="#171414" stroke-linecap="round" stroke-linejoin="round" stroke-width="0.8"/>
      <path d="M102.3 50.35 L100.15 48.45 99.6 46.85 Q98.75 44.25 98.05 43.5 L102.2 48.1 101.75 47.95 Q101.75 48.65 102.1 49.8 L102.3 50.35 M108.65 74.15 L108.4 74.85 108.35 75.0 108.2 74.45 Q106.25 66.55 104.7 62.2 103.1 57.25 100.0 50.25 L100.25 50.4 Q103.4 52.7 106.6 56.25 L105.8 55.85 Q104.9 55.5 104.6 55.85 103.65 57.0 105.95 65.25 L108.65 74.15" fill="#232222" fill-rule="evenodd" stroke="none"/>
      <path d="M102.2 48.1 L98.05 43.5 Q98.75 44.25 99.6 46.85 L100.15 48.45 102.3 50.35 107.1 54.45 107.25 54.4 102.2 48.1 M97.3 41.35 Q106.95 50.3 110.9 59.45 L110.3 69.55 Q109.9 73.8 109.15 78.05 L109.05 78.15 99.75 69.4 96.15 64.45 95.45 63.7 94.2 65.35 94.05 65.05 Q90.0 57.95 91.95 51.6 L92.95 49.5 93.1 49.7 Q95.1 51.35 96.95 53.9 L97.2 54.25 97.7 52.75 Q98.85 49.85 99.05 47.5 L99.05 47.0 98.25 44.25 98.0 43.45 97.3 41.35 M108.65 74.15 L109.05 71.7 109.35 68.4 Q108.4 69.45 108.0 69.05 107.1 67.05 106.5 64.8 105.15 60.3 106.3 58.95 106.5 58.7 107.7 58.95 L109.15 59.45 109.25 59.35 106.6 56.25 Q103.4 52.7 100.25 50.4 L100.0 50.25 Q103.1 57.25 104.7 62.2 106.25 66.55 108.2 74.45 L108.35 75.0 108.4 74.85 108.65 74.15 M105.65 65.95 Q103.35 59.1 99.85 50.9 L98.4 56.45 97.2 60.55 96.8 61.7 Q98.6 61.95 102.2 63.85 L105.65 65.95" fill="#8c8585" fill-rule="evenodd" stroke="none"/>
      <path d="M92.95 49.5 Q95.1 44.9 97.3 41.3 L97.3 41.35 98.0 43.45 98.25 44.25 99.05 47.0 99.05 47.5 Q98.85 49.85 97.7 52.75 L97.2 54.25 96.95 53.9 Q95.1 51.35 93.1 49.7 L92.95 49.5 M105.65 65.95 L102.2 63.85 Q98.6 61.95 96.8 61.7 L97.2 60.55 98.4 56.45 99.85 50.9 Q103.35 59.1 105.65 65.95" fill="#c2c2c2" fill-rule="evenodd" stroke="none"/>
      <path d="M102.3 50.35 L102.1 49.8 Q101.75 48.65 101.75 47.95 L102.2 48.1 107.25 54.4 107.1 54.45 102.3 50.35 M106.6 56.25 L109.25 59.35 109.15 59.45 107.7 58.95 Q106.5 58.7 106.3 58.95 105.15 60.3 106.5 64.8 107.1 67.05 108.0 69.05 108.4 69.45 109.35 68.4 L109.05 71.7 108.65 74.15 105.95 65.25 Q103.65 57.0 104.6 55.85 104.9 55.5 105.8 55.85 L106.6 56.25" fill="#585656" fill-rule="evenodd" stroke="none"/>
      <path d="M92.95 49.5 Q95.1 44.9 97.3 41.3 L97.3 41.35 Q106.95 50.3 110.9 59.45 L110.3 69.55 Q109.9 73.8 109.15 78.05 L109.05 78.15 99.75 69.4 96.15 64.45 95.45 63.7 94.2 65.35 94.05 65.05 Q90.0 57.95 91.95 51.6 L92.95 49.5 Z" fill="none" stroke="#332d2d" stroke-linecap="round" stroke-linejoin="round" stroke-width="0.8"/>
      <path d="M118.1 83.0 Q119.45 79.7 121.35 76.4 L122.25 74.9 122.1 76.85 121.8 82.3 121.8 82.65 121.85 82.9 122.9 81.4 124.85 78.95 125.9 77.7 126.65 76.85 126.3 77.35 130.3 72.8 131.55 71.6 131.6 71.55 131.7 72.25 131.85 73.55 131.85 75.2 131.85 76.2 130.2 78.05 129.8 78.55 129.7 78.65 128.45 80.1 126.2 83.0 128.45 80.1 129.7 78.65 129.8 80.25 129.85 80.75 130.1 83.0 126.2 83.0 125.45 83.0 127.05 79.95 127.0 78.9 127.0 78.85 127.05 77.65 127.1 76.75 126.1 77.7 125.1 78.95 122.3 83.0 118.1 83.0 M139.75 74.6 L139.75 82.85 139.55 83.0 137.0 83.0 137.75 82.2 137.65 80.0 137.7 78.65 137.75 77.45 137.8 76.6 139.75 74.6 M132.55 83.0 L132.2 83.0 134.0 80.8 135.05 79.6 135.9 78.65 135.2 79.55 133.15 82.2 132.55 83.0" fill="#482323" fill-rule="evenodd" stroke="none"/>
      <path d="M131.85 76.2 L131.85 75.2 131.85 73.55 131.7 72.25 131.6 71.55 131.55 71.6 Q131.1 69.95 130.55 69.2 L130.1 68.65 128.3 66.2 128.8 65.6 128.9 65.6 Q134.2 66.6 138.7 70.25 L134.4 73.35 134.2 73.6 131.85 76.2 M125.9 77.7 L124.85 78.95 122.9 81.4 121.85 82.9 121.8 82.65 121.8 82.3 122.1 76.85 122.25 76.9 124.45 77.6 125.9 77.7 M132.2 83.0 L130.1 83.0 129.85 80.75 129.8 80.25 130.4 80.25 135.05 79.6 134.0 80.8 132.2 83.0" fill="#312929" fill-rule="evenodd" stroke="none"/>
      <path d="M129.7 78.65 L129.8 78.55 130.2 78.05 131.85 76.2 134.2 73.6 134.4 73.35 138.7 70.25 139.75 69.55 139.75 74.6 137.8 76.6 137.25 77.15 136.85 77.6 135.9 78.65 135.05 79.6 130.4 80.25 129.8 80.25 129.7 78.65 M131.55 71.6 L130.3 72.8 126.3 77.35 126.65 76.85 125.9 77.7 124.45 77.6 122.25 76.9 122.1 76.85 122.25 74.9 Q124.85 70.55 128.3 66.2 L130.1 68.65 130.55 69.2 Q131.1 69.95 131.55 71.6" fill="#5b4242" fill-rule="evenodd" stroke="none"/>
      <path d="M122.3 83.0 L125.1 78.95 126.1 77.7 127.1 76.75 127.05 77.65 127.0 78.85 127.0 78.9 127.05 79.95 125.45 83.0 122.3 83.0 M137.0 83.0 L132.55 83.0 133.15 82.2 135.2 79.55 135.9 78.65 136.85 77.6 137.25 77.15 137.8 76.6 137.75 77.45 137.7 78.65 137.65 80.0 137.75 82.2 137.0 83.0" fill="#5f2b2b" fill-rule="evenodd" stroke="none"/>
      <path d="M122.25 74.9 L121.35 76.4 Q119.45 79.7 118.1 83.0 M126.2 83.0 L128.45 80.1 129.7 78.65 129.8 78.55 130.2 78.05 131.85 76.2 134.2 73.6 134.4 73.35 138.7 70.25 139.75 69.55 M122.25 74.9 Q124.85 70.55 128.3 66.2 L128.8 65.6 128.9 65.6 Q134.2 66.6 138.7 70.25 M139.75 82.85 L139.55 83.0" fill="none" stroke="#171414" stroke-linecap="round" stroke-linejoin="round" stroke-width="0.8"/>
      <path d="M121.35 71.45 Q122.7 63.7 122.5 62.3 122.25 60.9 122.35 60.45 L122.5 59.2 122.55 59.1 122.4 59.3 Q121.55 60.4 121.0 61.5 L121.0 61.4 120.95 60.45 Q120.8 59.3 120.25 58.25 119.65 57.1 118.7 56.4 115.1 58.05 112.7 59.9 111.05 61.1 107.5 64.1 L106.7 64.75 106.3 65.1 105.95 65.45 106.6 65.0 106.45 65.5 106.25 66.05 106.0 66.8 105.5 67.3 103.7 68.7 103.75 68.85 104.65 70.35 104.9 71.2 104.85 71.2 104.95 71.3 105.25 71.7 106.25 72.95 106.75 74.65 102.2 69.2 101.4 67.25 99.6 63.9 100.95 61.95 101.0 61.9 101.0 62.15 Q101.15 64.2 101.45 65.5 L102.1 67.85 102.4 68.35 102.8 69.1 103.5 69.95 103.55 70.0 103.65 69.2 103.65 68.85 103.4 65.85 102.05 60.45 109.9 49.6 125.9 49.95 125.65 62.8 121.35 71.45" fill="#dfafe9" fill-rule="evenodd" stroke="none"/>
      <path d="M106.0 66.8 L106.25 66.05 106.45 65.5 106.6 65.0 105.95 65.45 106.3 65.1 106.7 64.75 107.5 64.1 Q111.05 61.1 112.7 59.9 115.1 58.05 118.7 56.4 119.65 57.1 120.25 58.25 120.8 59.3 120.95 60.45 L121.0 61.4 121.0 61.5 Q121.55 60.4 122.4 59.3 L122.55 59.1 122.5 59.2 122.35 60.45 Q122.25 60.9 122.5 62.3 122.7 63.7 121.35 71.45 L121.25 71.6 Q116.05 75.6 108.55 77.7 L107.6 75.65 106.75 74.65 106.25 72.95 105.25 71.7 104.95 71.3 104.85 71.2 104.9 71.2 104.65 70.35 105.3 71.15 105.4 71.25 Q109.15 70.65 111.65 69.2 L112.9 68.4 113.1 68.25 115.9 66.8 116.4 66.5 Q116.75 66.25 118.75 65.1 L117.25 65.4 117.0 65.4 116.9 65.3 117.2 64.8 117.1 64.8 117.4 64.5 117.3 64.5 114.25 65.0 112.2 64.9 Q111.05 64.7 110.8 63.85 L110.75 63.95 110.45 64.25 110.45 64.2 110.35 64.3 108.95 65.4 108.8 65.5 Q107.5 66.4 106.8 66.4 L106.4 66.25 106.0 66.8 M120.05 65.25 L119.75 65.05 119.65 64.95 Q119.2 68.75 118.7 69.05 L118.7 69.15 Q119.55 68.65 120.05 65.25 M111.6 73.6 L108.1 74.3 108.5 76.1 108.8 76.7 108.9 76.85 109.0 76.85 Q112.05 75.7 114.35 74.2 L116.25 72.85 116.05 72.85 113.7 73.15 111.65 73.6 111.6 73.6" fill="#fff0fd" fill-rule="evenodd" stroke="none"/>
      <path d="M104.65 70.35 L103.75 68.85 103.7 68.7 105.5 67.3 106.0 66.8 106.4 66.25 106.8 66.4 Q107.5 66.4 108.8 65.5 L108.95 65.4 110.35 64.3 110.45 64.2 110.45 64.25 110.75 63.95 110.8 63.85 Q111.05 64.7 112.2 64.9 L114.25 65.0 117.3 64.5 117.4 64.5 117.1 64.8 117.2 64.8 116.9 65.3 117.0 65.4 117.25 65.4 118.75 65.1 Q116.75 66.25 116.4 66.5 L115.9 66.8 113.1 68.25 112.9 68.4 111.65 69.2 Q109.15 70.65 105.4 71.25 L105.3 71.15 104.65 70.35 M111.6 73.6 L111.65 73.6 113.7 73.15 116.05 72.85 116.25 72.85 114.35 74.2 Q112.05 75.7 109.0 76.85 L108.9 76.85 108.8 76.7 108.5 76.1 108.1 74.3 111.6 73.6" fill="#ffffff" fill-rule="evenodd" stroke="none"/>
      <path d="M102.05 60.45 L103.4 65.85 103.65 68.85 103.65 69.2 103.55 70.0 103.5 69.95 102.8 69.1 102.4 68.35 102.1 67.85 101.45 65.5 Q101.15 64.2 101.0 62.15 L101.0 61.9 102.05 60.45" fill="#5a1369" fill-rule="evenodd" stroke="none"/>
      <path d="M120.05 65.25 Q119.55 68.65 118.7 69.15 L118.7 69.05 Q119.2 68.75 119.65 64.95 L119.75 65.05 120.05 65.25" fill="#e9afaf" fill-rule="evenodd" stroke="none"/>
      <path d="M121.35 71.45 L125.65 62.8 125.9 49.95 109.9 49.6 102.05 60.45 101.0 61.9 100.95 61.95 99.6 63.9 101.4 67.25 102.2 69.2 106.75 74.65 107.6 75.65 108.55 77.7 Q116.05 75.6 121.25 71.6 L121.35 71.45 Z" fill="none" stroke="#4a0909" stroke-linecap="round" stroke-linejoin="round" stroke-width="0.8"/>
      <path d="M122.25 34.15 L129.9 34.15 128.25 36.85 119.05 46.95 104.45 59.0 96.4 50.7 90.7 35.75 90.35 34.15 91.15 34.15 92.0 37.3 95.2 40.3 96.6 44.9 96.75 44.55 97.65 41.7 98.45 39.5 96.6 34.65 96.4 34.15 97.05 34.15 100.05 40.95 99.2 45.55 103.7 52.35 105.75 47.3 109.6 42.9 113.8 36.6 114.15 34.15 115.35 34.15 114.95 38.2 Q117.95 37.1 119.15 36.15 L119.25 36.05 119.25 34.15 119.65 34.15 119.6 35.35 119.6 35.7 119.5 36.45 118.7 38.85 Q117.5 42.1 114.65 47.8 L114.65 47.9 119.2 42.35 122.95 37.8 122.25 34.15" fill="#b60032" fill-rule="evenodd" stroke="none"/>
      <path d="M94.9 34.15 L96.2 34.15 96.6 34.65 98.45 39.5 97.65 41.7 96.75 44.55 Q95.7 39.55 94.9 34.15 M120.1 34.15 L122.25 34.15 122.95 37.8 119.2 42.35 114.65 47.9 114.65 47.8 Q117.5 42.1 118.7 38.85 L119.5 36.45 119.6 35.7 119.6 35.35 119.65 35.6 119.65 35.95 120.1 34.15" fill="#5b0019" fill-rule="evenodd" stroke="none"/>
      <path d="M93.4 34.15 L94.9 34.15 Q95.7 39.55 96.75 44.55 L96.6 44.9 95.2 40.3 93.45 34.35 93.4 34.15 M96.2 34.15 L96.4 34.15 96.6 34.65 96.2 34.15 M119.65 34.15 L120.1 34.15 119.65 35.95 119.65 35.6 119.6 35.35 119.65 34.15" fill="#410011" fill-rule="evenodd" stroke="none"/>
      <path d="M91.15 34.15 L93.4 34.15 93.45 34.35 95.2 40.3 92.0 37.3 91.15 34.15 M115.35 34.15 L119.25 34.15 119.25 36.05 119.15 36.15 Q117.95 37.1 114.95 38.2 L115.35 34.15" fill="#ff0046" fill-rule="evenodd" stroke="none"/>
      <path d="M129.9 34.15 L128.25 36.85 119.05 46.95 104.45 59.0 96.4 50.7 90.7 35.75 90.35 34.15 M97.05 34.15 L100.05 40.95 99.2 45.55 103.7 52.35 105.75 47.3 109.6 42.9 113.8 36.6 114.15 34.15" fill="none" stroke="#48002f" stroke-linecap="round" stroke-linejoin="round" stroke-width="0.5"/>
      <path d="M131.8 34.1 L132.5 45.25 126.55 51.95 120.2 52.75 116.7 55.35 116.45 55.25 116.4 55.25 115.8 54.95 114.95 52.8 115.0 52.7 115.15 52.55 115.3 52.35 116.35 51.3 116.9 50.8 117.55 50.2 120.7 47.4 126.25 42.7 127.9 41.3 127.75 41.3 123.5 41.15 Q119.45 41.15 116.3 42.2 L115.25 42.6 113.1 43.6 112.55 44.1 112.1 44.55 108.9 47.6 108.6 47.9 108.45 48.05 108.05 48.45 107.35 48.15 107.3 48.1 107.85 47.6 112.05 44.0 112.2 43.85 112.65 43.5 116.15 41.4 117.35 40.8 117.75 39.6 Q118.55 37.0 119.0 33.95 L122.45 33.95 124.95 36.65 124.7 36.75 124.95 36.65 131.8 34.1 M127.45 45.05 L127.55 44.95 128.95 43.55 131.15 45.25 131.5 45.6 131.2 42.25 130.9 39.0 130.9 38.85 130.65 35.95 129.3 40.15 129.25 40.45 Q129.0 40.6 128.8 40.85 L126.45 43.0 123.0 46.1 116.35 52.05 115.85 52.5 115.7 52.6 115.3 53.0 115.25 53.0 115.35 53.1 115.4 53.15 115.55 53.3 116.0 53.75 116.6 54.4 116.85 54.65 Q118.85 52.25 121.85 50.65 L123.45 49.9 Q123.95 48.85 126.1 46.45 L126.9 45.6 127.45 45.05 M89.55 33.95 L90.55 33.95 91.3 36.55 91.25 38.65 91.35 40.75 93.85 50.55 93.95 50.9 94.15 51.5 94.25 51.9 93.9 52.35 93.9 52.95 93.6 52.65 93.45 52.45 93.5 52.75 93.75 55.35 93.85 55.6 94.0 55.85 95.35 58.55 96.6 60.8 Q98.9 64.75 100.05 65.15 L100.05 64.85 99.55 64.05 98.9 62.0 Q98.55 60.75 98.45 58.85 L98.4 57.45 Q97.3 56.85 94.6 53.75 L94.8 53.4 94.85 53.55 98.45 57.15 98.45 57.0 98.6 55.75 98.65 55.45 98.7 55.0 98.85 54.25 98.95 53.85 99.15 52.55 99.15 52.5 99.2 52.2 99.45 52.65 99.45 53.6 99.45 53.75 99.35 55.15 99.35 55.55 99.3 55.8 99.2 56.4 99.8 55.85 100.0 55.65 100.2 55.45 103.05 52.4 104.45 50.9 104.65 50.65 104.95 50.35 105.0 50.3 105.05 50.25 105.9 49.4 106.65 49.7 106.6 49.75 106.2 50.15 106.0 50.4 105.9 50.5 105.75 50.65 105.35 51.05 104.65 51.8 104.3 52.0 103.7 52.55 103.5 53.0 100.7 55.7 100.55 55.85 100.2 56.15 100.35 56.85 100.6 57.8 102.35 64.65 102.6 65.4 102.9 65.05 106.4 61.2 107.8 59.85 110.4 57.45 113.0 55.05 113.15 54.9 114.0 54.1 114.1 54.4 113.55 54.9 113.15 55.25 110.85 57.45 108.95 59.3 107.9 60.4 107.75 60.55 Q104.75 63.6 103.2 65.55 L103.65 66.2 Q108.4 60.95 110.75 59.0 112.5 57.6 114.45 56.5 L114.95 56.25 116.1 55.7 116.3 55.65 113.8 57.45 Q107.65 62.9 103.45 67.8 L100.1 65.85 98.7 64.35 Q97.1 62.45 95.6 59.9 L94.0 56.95 92.25 53.3 89.55 33.95" fill="#312929" fill-rule="evenodd" stroke="none"/>
      <path d="M112.2 43.85 L112.05 44.0 110.75 43.65 108.75 43.15 109.05 42.9 112.85 39.1 112.45 42.15 112.3 43.25 112.2 43.85 M108.05 48.45 L108.45 48.05 108.6 47.9 108.9 47.6 112.1 44.55 112.55 44.1 113.1 43.6 115.25 42.6 113.9 44.55 112.2 47.55 111.75 48.5 112.3 49.2 113.25 49.9 113.6 50.1 114.1 50.4 122.15 45.3 127.75 41.3 127.9 41.3 126.25 42.7 120.7 47.4 117.55 50.2 116.9 50.8 116.35 51.3 115.3 52.35 115.15 52.55 115.0 52.7 114.95 52.8 114.75 52.4 114.6 51.9 112.55 50.75 111.85 50.35 111.05 49.9 110.75 49.75 108.6 48.7 108.2 48.55 108.05 48.45 M108.75 48.1 L108.7 48.45 108.75 48.55 109.1 48.65 109.3 48.45 109.55 48.2 109.6 48.15 109.6 48.1 109.65 48.05 109.65 47.8 109.6 47.75 109.55 47.7 109.45 47.7 109.1 47.8 109.05 47.8 Q108.85 47.85 108.75 48.05 L108.75 48.1 M102.35 64.65 L100.6 57.8 100.35 56.85 100.2 56.15 100.55 55.85 100.7 55.7 101.25 55.95 101.5 56.05 103.55 57.3 107.3 56.15 112.35 54.4 112.9 54.2 112.5 54.55 109.65 57.1 109.25 57.45 105.95 60.7 Q104.1 62.6 102.35 64.65" fill="#695c5c" fill-rule="evenodd" stroke="none"/>
      <path d="M115.8 54.95 L116.4 55.25 116.45 55.25 116.7 55.35 116.3 55.65 116.1 55.7 115.8 54.95 M128.8 40.85 Q129.0 40.6 129.25 40.45 L129.3 40.15 130.65 35.95 130.9 38.85 130.9 39.0 131.2 42.25 131.5 45.6 131.15 45.25 128.95 43.55 127.55 44.95 127.45 45.05 128.8 40.85 M126.1 46.45 Q123.95 48.85 123.45 49.9 L121.85 50.65 Q118.85 52.25 116.85 54.65 L116.6 54.4 116.0 53.75 Q116.5 51.85 120.1 49.35 124.25 46.45 126.0 46.45 L126.1 46.45 M115.35 53.1 L115.25 53.0 115.3 53.0 115.35 53.1 M114.95 56.25 L114.45 56.5 Q112.5 57.6 110.75 59.0 108.4 60.95 103.65 66.2 L103.2 65.55 Q104.75 63.6 107.75 60.55 L107.9 60.4 108.95 59.3 110.85 57.45 113.15 55.25 113.55 54.9 114.1 54.4 114.95 56.25" fill="#1e1717" fill-rule="evenodd" stroke="none"/>
      <path d="M127.45 45.05 L126.9 45.6 126.1 46.45 126.0 46.45 Q124.25 46.45 120.1 49.35 116.5 51.85 116.0 53.75 L115.55 53.3 115.4 53.15 115.35 53.1 115.3 53.0 115.7 52.6 115.85 52.5 116.35 52.05 123.0 46.1 126.45 43.0 128.8 40.85 127.45 45.05" fill="#000000" fill-rule="evenodd" stroke="none"/>
      <path d="M119.0 33.95 Q118.55 37.0 117.75 39.6 L117.35 40.8 116.15 41.4 112.65 43.5 112.2 43.85 112.3 43.25 112.45 42.15 112.85 39.1 114.5 37.1 115.9 33.95 119.0 33.95 M115.25 42.6 L116.3 42.2 Q119.45 41.15 123.5 41.15 L127.75 41.3 122.15 45.3 114.1 50.4 113.6 50.1 113.25 49.9 112.3 49.2 111.75 48.5 112.2 47.55 113.9 44.55 115.25 42.6 M91.3 36.55 L92.05 39.2 95.4 45.2 94.5 48.6 Q94.2 49.9 94.2 50.85 L94.25 51.9 94.15 51.5 93.95 50.9 93.85 50.55 91.35 40.75 91.25 38.65 91.3 36.55 M105.0 50.3 L104.95 50.35 104.65 50.65 104.45 50.9 103.05 52.4 100.2 55.45 100.0 55.65 99.8 55.85 99.2 56.4 99.3 55.8 99.35 55.55 99.35 55.15 99.45 53.75 99.95 53.3 Q102.8 50.8 102.75 50.35 L104.05 50.2 104.15 50.2 104.75 50.3 104.85 50.3 105.0 50.3 M99.15 52.55 L98.95 53.85 98.85 54.25 98.7 55.0 98.65 55.45 98.6 55.75 98.45 57.0 98.45 57.15 94.85 53.55 94.8 53.4 95.5 53.45 97.1 53.35 99.15 52.55 M94.6 53.75 Q97.3 56.85 98.4 57.45 L98.45 58.85 Q98.55 60.75 98.9 62.0 L99.55 64.05 100.05 64.85 100.05 65.15 Q98.9 64.75 96.6 60.8 L95.35 58.55 94.55 53.8 94.55 53.7 94.6 53.75 M93.85 55.6 L93.75 55.35 93.5 52.75 93.45 52.45 93.6 52.65 93.9 52.95 93.9 53.15 93.8 54.4 93.85 55.25 93.85 55.6" fill="#584f4f" fill-rule="evenodd" stroke="none"/>
      <path d="M112.05 44.0 L107.85 47.6 107.3 48.1 107.25 47.95 107.0 47.15 106.9 46.75 106.5 45.0 108.75 43.15 110.75 43.65 112.05 44.0 M95.4 45.2 L97.0 48.15 95.65 50.05 95.45 50.35 94.35 51.8 94.25 51.9 94.2 50.85 Q94.2 49.9 94.5 48.6 L95.4 45.2 M97.3 48.7 L99.2 52.2 99.15 52.5 99.15 52.55 97.1 53.35 95.5 53.45 94.8 53.4 94.8 53.35 95.0 52.85 95.65 51.6 95.9 51.15 97.3 48.7 M99.45 52.65 L99.6 52.9 102.95 48.3 105.15 49.0 105.55 49.15 105.85 49.25 105.9 49.25 106.0 49.3 105.9 49.4 105.05 50.25 105.0 50.3 104.85 50.3 104.75 50.3 104.15 50.2 104.05 50.2 102.75 50.35 Q102.8 50.8 99.95 53.3 L99.45 53.75 99.45 53.6 99.45 52.65 M103.55 49.0 L103.5 49.0 103.35 49.0 103.25 49.05 103.2 49.15 103.2 49.2 103.25 49.2 103.25 49.25 103.3 49.3 103.35 49.35 103.45 49.3 103.5 49.3 103.6 49.2 103.6 49.05 103.55 49.0 M108.55 50.65 L109.85 51.35 110.0 51.45 110.25 51.55 110.35 51.6 110.6 51.75 111.0 52.0 111.35 52.2 113.3 53.4 113.4 53.45 113.75 53.7 113.8 53.7 114.0 54.1 113.15 54.9 113.0 55.05 110.4 57.45 109.45 57.45 109.25 57.45 109.65 57.1 112.5 54.55 112.9 54.2 112.35 54.4 107.3 56.15 Q108.25 53.95 108.55 50.9 L108.55 50.65" fill="#837575" fill-rule="evenodd" stroke="none"/>
      <path d="M107.3 48.1 L107.35 48.15 108.05 48.45 108.2 48.55 106.75 49.75 106.65 49.7 105.9 49.4 106.0 49.3 105.9 49.25 105.85 49.25 107.15 48.05 107.3 48.1 M114.95 52.8 L115.8 54.95 116.1 55.7 114.95 56.25 114.1 54.4 114.0 54.1 113.8 53.7 113.75 53.7 113.8 53.6 114.75 52.4 114.95 52.8 M97.0 48.15 L97.3 48.7 95.9 51.15 95.65 51.6 95.0 52.85 94.8 53.35 94.8 53.4 94.6 53.75 94.55 53.7 94.55 53.8 95.35 58.55 94.0 55.85 93.85 55.6 93.85 55.25 93.8 54.4 93.9 53.15 93.9 52.95 93.9 52.35 94.25 51.9 94.35 51.8 95.45 50.35 95.65 50.05 97.0 48.15" fill="#931414" fill-rule="evenodd" stroke="none"/>
      <path d="M103.55 49.0 L103.6 49.05 103.6 49.2 103.5 49.3 103.45 49.3 103.35 49.35 103.3 49.3 103.25 49.25 103.25 49.2 103.2 49.2 103.2 49.15 103.25 49.05 103.35 49.0 103.5 49.0 103.55 49.0 M105.75 46.45 L105.95 46.45 106.1 46.6 106.05 46.65 105.9 46.85 105.5 46.95 105.35 46.9 105.4 46.75 105.5 46.55 105.75 46.45 M108.75 48.1 L108.75 48.05 Q108.85 47.85 109.05 47.8 L109.1 47.8 109.45 47.7 109.55 47.7 109.6 47.75 109.65 47.8 109.65 48.05 109.6 48.1 109.6 48.15 109.55 48.2 109.3 48.45 109.1 48.65 108.75 48.55 108.7 48.45 108.75 48.1 M118.75 62.65 L119.5 62.6 119.95 62.6 Q117.3 64.2 115.15 64.2 L114.0 64.2 115.05 63.75 116.15 63.3 116.7 63.15 116.95 63.1 118.05 62.8 118.3 62.75 118.75 62.65 M103.5 53.0 L103.7 52.55 104.3 52.0 104.65 51.8 104.95 51.7 105.05 51.75 105.05 52.4 104.95 52.55 104.45 53.2 Q104.1 53.55 103.7 53.55 L103.55 53.55 103.45 53.3 103.5 53.0 M115.35 62.15 L115.45 61.95 115.65 61.05 115.6 61.2 115.3 61.6 114.9 61.65 114.6 61.65 Q114.3 61.5 114.3 61.15 114.3 60.6 114.65 60.3 114.95 59.95 115.45 60.1 L115.45 59.25 116.0 59.2 Q116.15 59.2 116.3 59.35 L116.5 59.5 116.65 59.75 116.65 59.9 116.65 60.05 116.6 60.4 116.6 60.45 116.1 61.5 115.35 62.15" fill="#ffffff" fill-rule="evenodd" stroke="none"/>
      <path d="M102.95 48.3 L103.65 47.3 104.1 46.95 106.1 47.65 106.1 47.85 105.85 48.5 105.55 49.15 105.15 49.0 102.95 48.3 M108.2 48.55 L108.6 48.7 110.75 49.75 111.05 49.9 111.85 50.35 111.0 52.0 110.6 51.75 110.35 51.6 110.25 51.55 110.0 51.45 109.85 51.35 108.55 50.65 106.75 49.75 108.2 48.55" fill="#ff77ba" fill-rule="evenodd" stroke="none"/>
      <path d="M104.1 46.95 L106.5 45.0 106.9 46.75 107.0 47.15 107.25 47.95 107.3 48.1 107.15 48.05 106.4 47.75 106.1 47.65 104.1 46.95 M105.75 46.45 L105.5 46.55 105.4 46.75 105.35 46.9 105.5 46.95 105.9 46.85 106.05 46.65 106.1 46.6 105.95 46.45 105.75 46.45 M106.75 49.75 L108.55 50.65 108.55 50.9 Q108.25 53.95 107.3 56.15 L103.55 57.3 101.5 56.05 101.25 55.95 102.2 55.0 103.7 53.55 Q104.1 53.55 104.45 53.2 L104.95 52.55 105.05 52.4 Q106.5 51.15 107.7 50.55 L106.3 50.15 106.2 50.15 106.6 49.75 106.65 49.7 106.75 49.75 M110.4 57.45 L107.8 59.85 106.4 61.2 102.9 65.05 102.6 65.4 102.35 64.65 Q104.1 62.6 105.95 60.7 L109.25 57.45 109.45 57.45 110.4 57.45" fill="#9a9090" fill-rule="evenodd" stroke="none"/>
      <path d="M105.55 49.15 L105.85 48.5 106.1 47.85 106.1 47.65 106.4 47.75 107.15 48.05 105.85 49.25 105.55 49.15 M111.0 52.0 L111.85 50.35 112.55 50.75 114.6 51.9 114.75 52.4 113.8 53.6 113.75 53.7 113.4 53.45 113.3 53.4 111.35 52.2 111.0 52.0" fill="#ff1970" fill-rule="evenodd" stroke="none"/>
      <path d="M108.75 65.1 L108.6 65.1 107.4 65.2 109.1 64.3 109.25 64.1 Q110.55 62.25 112.1 60.55 L112.9 59.7 113.6 59.05 115.35 57.6 115.45 57.5 Q117.35 56.05 119.55 55.0 120.5 53.8 121.9 53.2 L121.4 55.3 121.25 55.65 Q120.95 56.05 120.5 56.1 118.35 56.35 117.8 56.8 L115.65 58.2 Q114.4 58.85 113.5 59.75 L113.25 60.0 111.1 62.45 110.4 63.25 108.75 65.1 M113.25 60.9 L113.25 60.8 113.25 60.5 113.25 60.4 113.5 60.1 Q114.1 59.5 115.3 58.85 L115.2 59.7 Q114.55 59.65 114.15 60.15 113.8 60.55 113.8 61.0 113.8 61.6 114.45 61.8 L115.15 61.85 114.4 62.3 114.2 62.3 114.0 62.15 113.65 61.7 113.25 60.9" fill="#200404" fill-rule="evenodd" stroke="none"/>
      <path d="M121.25 55.65 L121.05 56.1 120.9 56.4 120.9 56.5 120.65 56.55 120.65 56.5 118.55 57.5 118.5 57.55 Q118.5 60.65 117.2 62.35 L117.05 62.55 116.5 63.05 116.55 63.05 116.8 62.95 116.9 62.9 116.8 63.05 116.7 63.15 116.15 63.3 115.05 63.75 114.8 63.8 114.05 63.85 113.7 63.85 112.35 63.6 112.3 63.6 110.95 63.2 110.7 63.15 110.55 63.3 109.3 65.05 108.75 65.1 110.4 63.25 111.1 62.45 113.25 60.0 113.5 59.75 Q114.4 58.85 115.65 58.2 L117.8 56.8 Q118.35 56.35 120.5 56.1 120.95 56.05 121.25 55.65 M114.2 62.3 L114.4 62.3 115.15 61.85 114.45 61.8 Q113.8 61.6 113.8 61.0 113.8 60.55 114.15 60.15 114.55 59.65 115.2 59.7 L115.3 58.85 Q114.1 59.5 113.5 60.1 L113.25 60.4 113.25 60.5 113.25 60.8 113.25 60.9 113.65 61.7 114.0 62.15 114.2 62.3 Q114.8 62.85 115.45 62.85 116.25 62.85 116.8 61.85 L117.25 60.5 116.95 61.4 117.05 60.0 117.0 59.55 116.7 58.55 115.45 59.25 115.45 60.1 Q114.95 59.95 114.65 60.3 114.3 60.6 114.3 61.15 114.3 61.5 114.6 61.65 L114.9 61.65 115.3 61.6 115.6 61.2 115.65 61.05 115.45 61.95 115.35 62.15 114.65 62.4 114.2 62.3 M113.25 60.9 Q112.75 61.2 111.4 62.7 L112.75 63.25 113.0 63.3 115.2 63.5 Q114.5 63.5 113.8 62.5 L113.7 62.4 Q113.2 61.55 113.25 60.9 M117.3 58.15 L117.55 59.1 117.6 59.85 117.35 61.95 Q118.05 60.25 118.15 58.55 L118.2 57.65 117.75 57.9 117.3 58.15" fill="#4d0e2d" fill-rule="evenodd" stroke="none"/>
      <path d="M114.2 62.3 L114.65 62.4 115.35 62.15 116.1 61.5 116.6 60.45 116.6 60.4 116.65 60.05 116.65 59.9 116.65 59.75 116.5 59.5 116.3 59.35 Q116.15 59.2 116.0 59.2 L115.45 59.25 116.7 58.55 117.0 59.55 117.05 60.0 116.95 61.4 117.25 60.5 116.8 61.85 Q116.25 62.85 115.45 62.85 114.8 62.85 114.2 62.3" fill="#ffa8a8" fill-rule="evenodd" stroke="none"/>
      <path d="M116.9 62.9 L116.8 62.95 116.55 63.05 116.5 63.05 117.05 62.55 117.2 62.35 Q118.5 60.65 118.5 57.55 L118.55 57.5 120.65 56.5 120.65 56.55 120.9 58.15 120.9 59.65 120.65 62.25 120.4 62.15 120.0 62.05 117.9 62.55 116.9 62.9" fill="#321f56" fill-opacity="0.5294118" fill-rule="evenodd" stroke="none"/>
      <path d="M120.9 56.5 L121.25 58.55 121.25 60.75 121.15 63.9 121.1 63.9 120.85 62.8 120.75 62.65 120.6 62.55 120.3 62.45 120.0 62.4 118.75 62.65 118.3 62.75 118.05 62.8 116.95 63.1 116.7 63.15 116.8 63.05 116.9 62.9 117.9 62.55 120.0 62.05 120.4 62.15 120.65 62.25 120.9 59.65 120.9 58.15 120.65 56.55 120.9 56.5" fill="#66274d" fill-rule="evenodd" stroke="none"/>
      <path d="M113.25 60.9 Q113.2 61.55 113.7 62.4 L113.8 62.5 Q114.5 63.5 115.2 63.5 L113.0 63.3 112.75 63.25 111.4 62.7 Q112.75 61.2 113.25 60.9 M117.3 58.15 L117.75 57.9 118.2 57.65 118.15 58.55 Q118.05 60.25 117.35 61.95 L117.6 59.85 117.55 59.1 117.3 58.15" fill="#c41c1c" fill-rule="evenodd" stroke="none"/>
      <path d="M100.7 55.7 L103.5 53.0 103.45 53.3 103.55 53.55 103.7 53.55 102.2 55.0 101.25 55.95 100.7 55.7 M104.65 51.8 L105.35 51.05 105.75 50.65 105.9 50.5 106.0 50.4 106.2 50.15 106.3 50.15 107.7 50.55 Q106.5 51.15 105.05 52.4 L105.05 51.75 104.95 51.7 104.65 51.8" fill="#cbc7c7" fill-rule="evenodd" stroke="none"/>
      <path d="M119.35 63.15 L118.2 63.8 Q116.5 64.65 114.9 64.75 L114.9 64.65 114.85 64.75 114.8 64.75 110.45 64.05 111.95 63.9 112.7 63.85 113.5 64.15 113.8 64.25 114.8 64.4 Q116.25 64.55 119.35 63.15" fill="#ff80b0" fill-rule="evenodd" stroke="none"/>
      <path d="M132.15 33.95 L131.8 34.1 132.5 45.25 133.05 44.65 M124.95 36.65 L122.45 33.95 M116.7 55.35 L120.2 52.75 126.55 51.95 132.5 45.25 132.55 45.65 M124.95 36.65 L124.7 36.75 M131.8 34.1 L124.95 36.65 M90.55 33.95 L91.3 36.55 92.05 39.2 95.4 45.2 97.0 48.15 97.3 48.7 99.2 52.2 99.45 52.65 99.6 52.9 102.95 48.3 103.65 47.3 104.1 46.95 106.5 45.0 108.75 43.15 109.05 42.9 112.85 39.1 114.5 37.1 115.9 33.95 M89.55 33.95 L92.25 53.3 94.0 56.95 95.6 59.9 Q97.1 62.45 98.7 64.35 L100.1 65.85 103.45 67.8 Q107.65 62.9 113.8 57.45 L116.3 55.65 116.7 55.35 M126.55 51.95 L127.05 51.85" fill="none" stroke="#171414" stroke-linecap="round" stroke-linejoin="round" stroke-width="0.8"/>
      <path d="M101.5 66.45 L101.5 63.85 101.4 63.85 101.35 64.2 101.1 64.25 Q100.75 64.25 100.4 63.8 L100.0 63.25 100.0 62.05 100.65 62.25 101.35 62.45 Q101.7 62.45 101.7 61.85 101.65 61.0 101.9 60.65 L101.9 59.85 Q101.4 60.0 100.85 60.3 L99.9 60.45 99.0 60.4 98.15 60.0 98.1 59.35 98.3 55.65 98.25 55.8 97.6 57.9 97.2 60.15 Q97.2 60.85 99.25 63.6 L101.5 66.45 Q98.9 64.65 96.75 60.2 97.15 56.5 98.75 54.05 L102.75 59.3 101.9 66.7 101.5 66.45 M98.6 54.95 L98.4 58.05 Q98.4 59.3 98.8 59.65 L100.3 59.95 Q101.1 59.95 101.85 59.5 L100.85 57.7 98.8 54.55 98.6 54.95" fill="#c41c1c" fill-rule="evenodd" stroke="none"/>
      <path d="M101.5 66.45 L99.25 63.6 Q97.2 60.85 97.2 60.15 L97.6 57.9 98.25 55.8 98.3 55.65 98.1 59.35 98.15 60.0 99.0 60.4 99.9 60.45 100.85 60.3 Q101.4 60.0 101.9 59.85 L101.9 60.65 Q101.65 61.0 101.7 61.85 101.7 62.45 101.35 62.45 L100.65 62.25 100.0 62.05 100.0 63.25 100.4 63.8 Q100.75 64.25 101.1 64.25 L101.35 64.2 101.4 63.85 101.5 63.85 101.5 66.45" fill="#5f0000" fill-rule="evenodd" stroke="none"/>
      <path d="M98.6 54.95 L98.8 54.55 100.85 57.7 101.85 59.5 Q101.1 59.95 100.3 59.95 L98.8 59.65 Q98.4 59.3 98.4 58.05 L98.6 54.95" fill="#ff4a8f" fill-rule="evenodd" stroke="none"/>
      <path d="M101.5 66.45 L101.9 66.7 102.75 59.3 98.75 54.05 Q97.15 56.5 96.75 60.2 98.9 64.65 101.5 66.45 Z" fill="none" stroke="#930e0e" stroke-linecap="round" stroke-linejoin="round" stroke-width="0.5"/>
      <path d="M134.75 34.65 L134.75 34.7 135.05 34.35 136.05 34.35 135.7 34.85 134.1 37.05 133.55 39.55 132.7 44.0 132.7 44.05 Q132.55 43.75 131.75 38.0 L134.45 35.05 134.75 34.65" fill="#585656" fill-rule="evenodd" stroke="none"/>
      <path d="M135.05 34.35 L134.75 34.7 134.75 34.65 135.0 34.35 135.05 34.35" fill="#232222" fill-rule="evenodd" stroke="none"/>
      <path d="M134.75 34.65 L134.45 35.05 131.75 38.0 Q132.55 43.75 132.7 44.05 L132.7 44.0 133.55 39.55 134.1 37.05 135.7 34.85 136.05 34.35 140.0 34.35 140.0 42.6 138.8 45.4 127.85 47.15 Q129.45 43.95 130.2 39.6 L130.75 38.95 130.95 38.75 131.7 37.85 134.65 34.35 135.0 34.35 134.75 34.65" fill="#8c8585" fill-rule="evenodd" stroke="none"/>
      <path d="M130.2 39.6 L130.35 38.8 123.85 41.1 119.9 43.65 Q122.5 38.65 125.85 34.35 L134.65 34.35 131.7 37.85 130.95 38.75 130.75 38.95 130.2 39.6" fill="#e5e5e5" fill-rule="evenodd" stroke="none"/>
      <path d="M140.0 42.6 L138.8 45.4 127.85 47.15 Q129.45 43.95 130.2 39.6 L130.35 38.8 123.85 41.1 119.9 43.65 Q122.5 38.65 125.85 34.35" fill="none" stroke="#332d2d" stroke-linecap="round" stroke-linejoin="round" stroke-width="0.8"/>
      <path d="M132.35 43.55 L132.35 43.8 Q132.35 46.35 131.55 49.35 L131.45 49.8 127.2 51.15 Q124.4 52.3 122.8 53.2 L121.15 54.25 Q124.0 46.65 130.1 44.1 L132.35 43.55 M120.85 74.2 L120.75 74.25 121.45 61.5 122.95 55.55 Q124.15 54.85 125.5 54.3 126.45 55.8 127.3 59.8 L127.9 63.8 125.95 66.85 120.85 74.2" fill="#e5e5e5" fill-rule="evenodd" stroke="none"/>
      <path d="M131.45 49.8 L131.55 49.35 Q132.35 46.35 132.35 43.8 L132.35 43.55 139.35 42.0 139.35 44.95 138.25 46.6 137.8 46.9 Q135.9 48.2 132.9 49.25 L131.45 49.8 M125.5 54.3 L126.6 53.85 130.6 52.15 135.8 49.7 Q131.7 57.7 127.9 63.8 L127.3 59.8 Q126.45 55.8 125.5 54.3" fill="#c2c2c2" fill-rule="evenodd" stroke="none"/>
      <path d="M121.15 54.25 L122.8 53.2 Q124.4 52.3 127.2 51.15 L131.45 49.8 132.9 49.25 Q135.9 48.2 137.8 46.9 L138.25 46.6 139.35 44.95 139.35 45.8 138.7 46.9 137.75 48.35 137.7 51.2 137.65 57.55 137.8 57.55 139.35 50.0 139.35 55.45 Q138.1 59.9 136.2 63.6 132.15 66.85 128.15 69.65 124.55 72.1 120.85 74.2 L125.95 66.85 127.9 63.8 Q131.7 57.7 135.8 49.7 L130.6 52.15 126.6 53.85 125.5 54.3 Q124.15 54.85 122.95 55.55 L123.15 54.5 121.05 54.6 121.15 54.25 M123.5 71.35 L125.7 70.1 128.4 68.2 Q127.0 68.15 127.0 67.6 L129.3 63.7 Q131.95 59.8 133.7 59.8 134.0 59.8 134.55 60.85 L135.15 62.35 135.25 62.35 135.95 58.35 Q136.6 53.65 136.35 49.7 L136.35 49.45 Q132.95 56.25 130.2 60.7 127.7 64.75 122.7 71.65 L122.85 71.65 123.5 71.35" fill="#8c8585" fill-rule="evenodd" stroke="none"/>
      <path d="M139.35 45.8 L139.35 49.5 139.2 49.3 Q138.65 49.65 138.0 50.75 L137.7 51.2 137.75 48.35 138.7 46.9 139.35 45.8 M135.95 58.35 L135.75 57.45 Q135.45 56.55 135.0 56.55 133.45 56.55 128.65 63.55 L123.5 71.35 122.85 71.65 122.7 71.65 Q127.7 64.75 130.2 60.7 132.95 56.25 136.35 49.45 L136.35 49.7 Q136.6 53.65 135.95 58.35" fill="#232222" fill-rule="evenodd" stroke="none"/>
      <path d="M139.35 49.5 L139.35 50.0 137.8 57.55 137.65 57.55 137.7 51.2 138.0 50.75 Q138.65 49.65 139.2 49.3 L139.35 49.5 M123.5 71.35 L128.65 63.55 Q133.45 56.55 135.0 56.55 135.45 56.55 135.75 57.45 L135.95 58.35 135.25 62.35 135.15 62.35 134.55 60.85 Q134.0 59.8 133.7 59.8 131.95 59.8 129.3 63.7 L127.0 67.6 Q127.0 68.15 128.4 68.2 L125.7 70.1 123.5 71.35" fill="#585656" fill-rule="evenodd" stroke="none"/>
      <path d="M132.35 43.55 L130.1 44.1 Q124.0 46.65 121.15 54.25 L121.05 54.6 123.15 54.5 122.95 55.55 121.45 61.5 120.75 74.25 120.85 74.2 Q124.55 72.1 128.15 69.65 132.15 66.85 136.2 63.6 138.1 59.9 139.35 55.45 M139.35 42.0 L132.35 43.55" fill="none" stroke="#332d2d" stroke-linecap="round" stroke-linejoin="round" stroke-width="0.8"/>
      <path d="M117.8 68.4 L117.7 68.5 117.65 68.6 117.4 69.1 117.35 69.15 116.95 69.95 116.5 70.85 116.7 71.5 116.15 71.6 115.35 71.6 114.55 71.75 111.05 72.45 110.05 72.8 109.5 73.0 109.4 73.05 108.2 72.0 107.85 71.65 107.35 70.95 107.85 71.15 108.45 71.3 108.8 71.4 113.2 69.25 115.2 68.1 116.15 67.5 Q117.45 66.8 118.2 66.6 L118.1 66.85 117.85 68.05 117.8 68.4 M115.8 69.35 L117.4 68.3 117.45 68.1 117.55 67.45 117.6 67.25 117.6 67.0 115.7 68.3 112.5 69.9 110.25 70.9 Q109.55 71.2 109.1 71.45 L108.8 71.7 107.95 71.4 108.9 72.25 109.5 72.7 110.5 72.45 110.95 72.3 114.7 71.3 115.5 71.05 115.8 71.05 115.85 70.95 116.5 69.9 116.85 69.3 115.7 69.85 114.15 70.35 112.85 70.75 115.8 69.35 M119.7 66.0 L119.75 65.35 119.65 64.8 119.4 64.6 117.6 65.4 118.8 64.45 119.9 64.1 119.95 64.1 119.7 66.0" fill="#aa365c" fill-rule="evenodd" stroke="none"/>
      <path d="M110.5 72.45 L109.5 72.7 108.9 72.25 107.95 71.4 108.8 71.7 109.1 71.45 Q109.55 71.2 110.25 70.9 L112.5 69.9 115.7 68.3 117.6 67.0 117.6 67.25 117.55 67.45 117.45 68.1 117.4 68.3 115.8 69.35 115.85 69.05 115.85 68.75 115.5 68.8 Q114.25 69.3 111.95 70.35 L109.9 71.3 109.75 71.7 109.65 71.95 110.5 72.45 M116.5 69.9 L115.85 70.95 115.8 71.05 115.5 71.05 114.7 71.3 114.85 70.95 115.15 70.45 Q115.6 70.0 116.35 69.9 L116.5 69.9" fill="#e9c7db" fill-rule="evenodd" stroke="none"/>
      <path d="M110.5 72.45 L109.65 71.95 109.75 71.7 109.9 71.3 111.95 70.35 Q114.25 69.3 115.5 68.8 L115.85 68.75 115.85 69.05 115.8 69.35 112.85 70.75 114.15 70.35 115.7 69.85 116.85 69.3 116.5 69.9 116.35 69.9 Q115.6 70.0 115.15 70.45 L114.85 70.95 114.7 71.3 110.95 72.3 110.5 72.45" fill="#ffffff" fill-rule="evenodd" stroke="none"/>
      <path d="M116.15 67.5 L118.95 65.35 118.8 65.95 117.8 68.4 117.85 68.05 118.1 66.85 118.2 66.6 Q117.45 66.8 116.15 67.5 M118.8 64.45 L119.9 63.6 120.25 63.35 120.2 64.5 119.7 67.05 119.7 66.0 119.95 64.1 119.9 64.1 118.8 64.45" fill="#5f1b31" fill-rule="evenodd" stroke="none"/>
      <path d="M97.05 47.05 L97.8 47.15 Q101.95 47.15 104.9 41.9 106.65 38.75 107.5 35.25 105.75 35.7 103.05 36.95 101.9 37.45 100.3 39.2 L98.65 41.15 98.45 41.45 97.9 42.3 Q96.45 44.6 96.3 45.6 L96.15 45.3 Q96.2 43.1 99.8 39.05 L100.2 38.6 Q103.2 35.45 107.55 34.55 L109.05 34.3 110.05 34.3 110.05 34.7 Q110.2 35.3 109.8 36.7 L109.7 37.0 109.6 37.3 108.7 39.6 107.85 41.55 105.85 44.95 104.25 46.3 Q99.4 50.6 99.4 51.85 L99.35 51.75 99.25 50.65 97.95 48.65 97.05 47.05" fill="#ff468d" fill-rule="evenodd" stroke="none"/>
      <path d="M96.3 45.6 Q96.45 44.6 97.9 42.3 L98.45 41.45 98.65 41.15 100.3 39.2 Q101.9 37.45 103.05 36.95 105.75 35.7 107.5 35.25 106.65 38.75 104.9 41.9 101.95 47.15 97.8 47.15 L97.05 47.05 96.3 45.6" fill="#ff9cc2" fill-rule="evenodd" stroke="none"/>
      <path d="M97.05 47.05 L97.95 48.65 99.25 50.65 99.35 51.75 99.4 51.85 Q99.4 50.6 104.25 46.3 L105.85 44.95 107.85 41.55 108.7 39.6 109.6 37.3 109.7 37.0 109.8 36.7 Q110.2 35.3 110.05 34.7 L110.05 34.3 109.05 34.3 107.55 34.55 Q103.2 35.45 100.2 38.6 L99.8 39.05 Q96.2 43.1 96.15 45.3 L96.3 45.6 97.05 47.05 M95.55 45.25 L95.85 44.4 Q98.55 36.5 105.95 33.85 110.35 32.65 114.25 32.65 L114.1 33.9 113.6 33.8 111.65 33.55 110.75 33.7 110.05 33.8 109.9 33.8 109.55 33.95 109.4 34.05 110.55 34.35 Q110.9 35.35 109.5 38.85 L108.3 41.6 107.75 42.7 Q110.5 41.85 112.5 37.8 L114.05 34.3 113.75 36.6 110.6 41.4 103.75 47.15 99.65 52.65 95.55 45.25" fill="#661010" fill-rule="evenodd" stroke="none"/>
      <path d="M114.05 34.3 L112.5 37.8 Q110.5 41.85 107.75 42.7 L108.3 41.6 Q109.55 40.25 110.7 37.25 L111.15 36.15 111.25 35.85 Q111.85 35.0 113.25 34.45 L114.05 34.15 114.05 34.3" fill="#3f0808" fill-rule="evenodd" stroke="none"/>
      <path d="M108.3 41.6 L109.5 38.85 Q110.9 35.35 110.55 34.35 L109.4 34.05 109.55 33.95 109.9 33.8 110.05 33.8 110.75 33.7 111.65 33.55 113.6 33.8 114.1 33.9 114.05 34.15 113.25 34.45 Q111.85 35.0 111.25 35.85 L111.15 36.15 110.7 37.25 Q109.55 40.25 108.3 41.6" fill="#270404" fill-rule="evenodd" stroke="none"/>
      <path d="M114.25 32.65 Q110.35 32.65 105.95 33.85 98.55 36.5 95.85 44.4 L95.55 45.25" fill="none" stroke="#4a0909" stroke-linecap="round" stroke-linejoin="round" stroke-width="0.8"/>
      <path d="M103.0 83.2 L106.5 78.4 106.6 78.65 105.55 81.85 106.0 83.2 105.7 83.2 105.45 82.35 104.45 83.2 103.0 83.2" fill="#c2c2c2" fill-rule="evenodd" stroke="none"/>
      <path d="M106.6 78.65 L107.7 81.2 107.45 81.75 106.85 83.2 106.0 83.2 105.55 81.85 106.6 78.65" fill="#e5e5e5" fill-rule="evenodd" stroke="none"/>
      <path d="M105.7 83.2 L104.45 83.2 105.45 82.35 105.7 83.2" fill="#c41c1c" fill-rule="evenodd" stroke="none"/>
      <path d="M107.7 81.2 L108.6 83.2 106.85 83.2 107.45 81.75 107.7 81.2" fill="#ffffff" fill-rule="evenodd" stroke="none"/>
      <path d="M103.0 83.2 L106.5 78.4 106.6 78.65 107.7 81.2 108.6 83.2" fill="none" stroke="#332d2d" stroke-linecap="round" stroke-linejoin="round" stroke-width="0.8"/>
    </g>
    <g id="shape2" transform="matrix(1.0, 0.0, 0.0, 1.0, 0.0, 0.0)">
      <path d="M50.5 0.0 Q53.95 0.0 53.95 3.3 L53.95 50.15 Q53.95 53.4 50.5 53.4 L3.3 53.4 Q0.0 53.4 0.0 50.15 L0.0 3.3 Q0.0 0.0 3.3 0.0 L50.5 0.0" fill="#000000" fill-opacity="0.003921569" fill-rule="evenodd" stroke="none"/>
    </g>
  </defs>
</svg>
