<?xml version="1.0" encoding="UTF-8" standalone="no"?>
<svg xmlns:ffdec="https://www.free-decompiler.com/flash" xmlns:xlink="http://www.w3.org/1999/xlink" ffdec:objectType="frame" height="118.15px" width="118.5px" xmlns="http://www.w3.org/2000/svg">
  <g transform="matrix(1.0, 0.0, 0.0, 1.0, 47.0, 49.35)">
    <clipPath id="clipPath0" transform="matrix(1.0, 0.0, 0.0, 1.0, 0.0, 0.0)">
      <path d="M50.5 0.0 Q53.95 0.0 53.95 3.3 L53.95 50.15 Q53.95 53.4 50.5 53.4 L3.3 53.4 Q0.0 53.4 0.0 50.15 L0.0 3.3 Q0.0 0.0 3.3 0.0 L50.5 0.0" fill="#000000" fill-rule="evenodd" stroke="none"/>
    </clipPath>
    <g clip-path="url(#clipPath0)">
      <use ffdec:characterId="2" height="69.55" transform="matrix(1.0, 0.0, 0.0, 1.0, -34.4, -0.75)" width="78.8" xlink:href="#shape1"/>
      <filter id="filter0">
        <feColorMatrix in="SourceGraphic" result="filterResult0" type="matrix" values="0 0 0 0 0.80784315,0 0 0 0 1.0,0 0 0 0 1.0,0 0 0 1 0"/>
        <feConvolveMatrix divisor="25.0" in="filterResult0" kernelMatrix="1 1 1 1 1 1 1 1 1 1 1 1 1 1 1 1 1 1 1 1 1 1 1 1 1" order="5 5" result="filterResult1"/>
        <feComposite in="SourceGraphic" in2="filterResult1" operator="over" result="filterResult2"/>
      </filter>
      <use ffdec:characterId="4" filter="url(#filter0)" height="71.5" transform="matrix(0.5106, -0.1841, 0.2679, 0.9031, 25.1576, -4.0977)" width="53.2" xlink:href="#sprite0"/>
      <use ffdec:characterId="5" height="52.1" transform="matrix(1.0, 0.0, 0.0, 1.0, -4.3, -0.9)" width="59.6" xlink:href="#shape3"/>
      <filter id="filter1">
        <feColorMatrix in="SourceGraphic" result="filterResult3" type="matrix" values="0 0 0 0 0.80784315,0 0 0 0 1.0,0 0 0 0 1.0,0 0 0 1 0"/>
        <feConvolveMatrix divisor="25.0" in="filterResult3" kernelMatrix="1 1 1 1 1 1 1 1 1 1 1 1 1 1 1 1 1 1 1 1 1 1 1 1 1" order="5 5" result="filterResult4"/>
        <feComposite in="SourceGraphic" in2="filterResult4" operator="over" result="filterResult5"/>
      </filter>
      <use ffdec:characterId="4" filter="url(#filter1)" height="71.5" transform="matrix(-1.1765, 0.0, 0.0, 1.1765, 15.597, -49.3328)" width="53.2" xlink:href="#sprite0"/>
      <use ffdec:characterId="6" height="20.75" transform="matrix(1.0, 0.0, 0.0, 1.0, -0.65, 33.35)" width="53.75" xlink:href="#shape4"/>
    </g>
    <use ffdec:characterId="7" height="53.4" transform="matrix(1.0, 0.0, 0.0, 1.0, 0.0, 0.0)" width="53.95" xlink:href="#shape5"/>
  </g>
  <defs>
    <g id="shape1" transform="matrix(1.0, 0.0, 0.0, 1.0, 34.4, 0.75)">
      <path d="M-34.0 68.4 Q-33.85 68.55 -34.0 68.75 -34.25 68.9 -34.35 68.6 L-34.2 68.3 -34.0 68.4" fill="#d75d11" fill-rule="evenodd" stroke="none"/>
      <path d="M3.15 -0.5 L4.65 -0.5 0.15 8.05 -1.2 10.8 -1.2 6.95 3.15 -0.5 M37.05 -0.5 L44.15 -0.5 Q42.6 5.5 40.2 12.25 L39.65 13.8 37.05 -0.5" fill="#ecffff" fill-rule="evenodd" stroke="none"/>
      <path d="M3.15 -0.5 L-1.2 6.95 M-1.2 10.8 L0.15 8.05 4.65 -0.5 M37.05 -0.5 L39.65 13.8 40.2 12.25 Q42.6 5.5 44.15 -0.5" fill="none" stroke="#adecfc" stroke-linecap="round" stroke-linejoin="round" stroke-width="0.5"/>
    </g>
    <g id="sprite0" transform="matrix(1.0, 0.0, 0.0, 1.0, 4.8, -25.6)">
      <use ffdec:characterId="3" height="71.5" transform="matrix(1.0, 0.0, 0.0, 1.0, -4.8, 25.6)" width="53.2" xlink:href="#shape2"/>
    </g>
    <g id="shape2" transform="matrix(1.0, 0.0, 0.0, 1.0, 4.8, -25.6)">
      <path d="M43.85 38.75 L48.4 39.7 42.6 50.8 Q41.95 49.95 39.85 49.95 36.4 49.95 32.7 52.55 29.95 54.55 26.0 58.75 L26.2 57.15 28.55 51.65 30.75 45.8 32.75 43.75 Q34.3 42.35 36.25 41.3 L37.35 40.75 Q40.2 39.5 43.85 38.75 M15.55 37.75 L15.75 37.5 16.15 37.3 16.55 37.35 16.8 37.4 17.0 37.55 Q17.2 37.7 17.2 38.0 L17.2 38.9 17.2 39.0 16.85 39.8 16.15 40.3 Q15.55 40.3 15.25 39.75 14.9 39.2 15.15 38.55 L15.55 37.75 M28.2 35.55 L30.9 36.1 30.5 36.95 30.3 37.45 Q28.55 41.5 27.45 45.8 L28.2 35.55 M21.4 40.05 L21.65 40.3 21.65 40.45 21.6 40.75 21.35 41.25 21.05 41.55 20.75 41.7 20.45 41.6 Q20.2 41.45 20.25 41.15 L20.15 40.5 Q20.0 40.2 20.3 40.05 20.45 39.95 20.55 39.9 L21.15 39.95 21.4 40.05 M10.4 61.4 L10.55 61.55 Q10.85 62.4 10.7 63.25 L9.95 65.45 Q9.35 66.6 8.25 67.15 L7.1 67.05 6.85 65.55 Q6.8 64.45 7.35 63.55 L8.8 61.75 Q9.15 61.4 9.55 61.3 L10.15 61.35 10.4 61.4 M10.5 54.95 L10.25 55.2 9.95 55.25 Q9.6 55.2 9.3 54.95 L8.9 54.3 8.85 54.15 8.9 54.0 9.0 53.85 9.35 53.7 9.95 53.55 9.95 53.5 Q10.35 53.45 10.55 53.75 L10.7 54.35 10.5 54.95 M16.8 62.4 L17.0 62.55 17.15 62.7 17.3 63.75 Q17.3 64.4 16.95 64.95 L16.3 66.15 15.75 66.5 Q15.25 66.45 15.25 65.95 L15.25 65.05 15.25 64.3 15.25 63.85 15.5 63.55 15.9 62.9 16.3 62.45 16.55 62.3 16.8 62.4 M2.25 80.25 L2.05 79.65 Q1.9 79.0 2.3 78.85 L2.55 78.75 2.55 78.7 2.95 78.75 3.05 78.75 3.2 78.8 3.35 78.95 3.5 79.25 3.8 79.65 4.35 80.15 4.45 80.3 4.35 80.6 4.3 80.75 4.25 81.2 4.25 81.65 4.35 82.05 4.45 82.85 4.4 83.0 4.3 83.1 3.95 83.25 3.35 83.05 2.9 82.65 2.75 82.5 2.65 81.75 2.5 80.9 2.25 80.25 M10.9 75.65 L10.85 75.6 Q10.6 75.45 10.65 75.15 L10.65 75.0 10.65 74.85 10.75 74.7 10.95 74.6 11.1 74.55 11.15 74.55 11.15 74.5 Q11.5 74.6 11.6 74.9 11.7 75.3 11.4 75.55 L10.9 75.65" fill="#ecffff" fill-rule="evenodd" stroke="none"/>
      <path d="M25.65 83.1 L24.55 85.2 23.7 85.2 25.65 83.1 M2.15 85.25 L1.05 84.85 -1.2 80.6 Q-4.8 72.8 -4.8 68.6 -4.8 63.55 2.0 58.35 L6.7 55.0 Q8.8 53.4 8.8 52.6 L7.2 44.4 5.6 36.4 Q5.6 34.7 6.45 30.45 L7.55 25.6 Q6.85 28.75 8.05 31.1 9.1 33.25 12.4 35.5 L15.55 37.75 15.15 38.55 Q14.9 39.2 15.25 39.75 15.55 40.3 16.15 40.3 L16.85 39.8 17.2 39.0 17.65 39.35 Q20.2 41.75 20.4 44.8 L23.8 34.7 27.9 35.5 Q25.85 40.5 23.2 48.9 L21.85 50.85 Q20.7 48.9 18.85 47.1 14.9 43.3 10.5 42.4 L12.3 44.2 Q13.9 46.45 13.9 51.2 L13.8 53.85 13.3 54.65 Q12.3 56.1 9.45 58.0 6.4 60.15 5.35 61.3 3.4 63.5 3.4 66.45 3.4 69.15 3.9 70.7 L2.6 69.5 0.0 67.65 0.65 69.05 Q1.4 71.1 1.4 73.5 L1.35 74.65 1.0 79.15 1.0 78.9 0.7 82.95 2.15 85.25 M38.3 37.6 L40.45 38.05 37.6 39.3 38.3 37.6 M10.5 54.95 L10.7 54.35 10.55 53.75 Q10.35 53.45 9.95 53.5 L9.95 53.55 9.35 53.7 9.0 53.85 8.9 54.0 8.85 54.15 8.9 54.3 9.3 54.95 Q9.6 55.2 9.95 55.25 L10.25 55.2 10.5 54.95" fill="url(#gradient0)" fill-rule="evenodd" stroke="none"/>
      <path d="M43.85 38.75 Q40.2 39.5 37.35 40.75 L37.3 39.05 37.35 37.4 38.3 37.6 37.6 39.3 40.45 38.05 43.85 38.75 M32.75 43.75 L30.75 45.8 28.55 51.65 26.2 57.15 26.0 58.75 Q29.95 54.55 32.7 52.55 36.4 49.95 39.85 49.95 41.95 49.95 42.6 50.8 L28.15 78.35 Q26.0 73.65 25.85 63.65 L24.35 66.3 Q21.45 71.2 20.05 72.3 L20.05 72.05 Q20.65 70.9 20.2 65.25 19.8 59.85 19.3 58.7 17.45 59.55 16.0 60.7 11.1 64.45 9.9 71.35 L8.85 77.3 Q8.25 79.15 7.05 80.1 L5.95 77.6 Q4.15 73.7 3.0 72.55 2.2 73.15 1.65 74.75 L1.55 75.05 1.35 74.65 1.4 73.5 Q1.4 71.1 0.65 69.05 L0.0 67.65 2.6 69.5 3.9 70.7 Q3.4 69.15 3.4 66.45 3.4 63.5 5.35 61.3 6.4 60.15 9.45 58.0 12.3 56.1 13.3 54.65 L13.8 53.85 13.9 51.2 Q13.9 46.45 12.3 44.2 L10.5 42.4 Q14.9 43.3 18.85 47.1 20.7 48.9 21.85 50.85 L23.2 48.9 Q25.85 40.5 27.9 35.5 L28.2 35.55 27.45 45.8 Q28.55 41.5 30.3 37.45 L30.5 36.95 30.9 36.1 35.0 36.95 33.85 40.4 33.15 42.45 32.75 43.75 M23.3 60.05 Q23.8 59.05 23.8 57.9 23.8 54.1 21.85 50.85 23.8 54.1 23.8 57.9 23.8 59.05 23.3 60.05 M10.4 61.4 L10.15 61.35 9.55 61.3 Q9.15 61.4 8.8 61.75 L7.35 63.55 Q6.8 64.45 6.85 65.55 L7.1 67.05 8.25 67.15 Q9.35 66.6 9.95 65.45 L10.7 63.25 Q10.85 62.4 10.55 61.55 L10.4 61.4 M6.3 75.1 Q6.2 73.05 3.9 70.7 6.2 73.05 6.3 75.1" fill="#cbfff9" fill-rule="evenodd" stroke="none"/>
      <path d="M37.35 40.75 L36.25 41.3 Q34.3 42.35 32.75 43.75 L33.15 42.45 33.85 40.4 35.0 36.95 37.35 37.4 37.3 39.05 37.35 40.75 M28.15 78.35 L25.65 83.1 23.7 85.2 Q22.05 87.1 20.4 89.55 17.2 94.3 17.2 95.45 L17.35 96.7 17.4 96.85 15.05 96.7 15.0 96.7 Q12.8 96.55 9.8 95.1 L8.3 94.3 Q6.35 92.75 5.45 91.0 L4.8 89.75 2.15 85.25 0.7 82.95 1.0 78.9 1.0 79.15 1.35 74.65 1.55 75.05 1.65 74.75 Q2.2 73.15 3.0 72.55 4.15 73.7 5.95 77.6 L7.05 80.1 Q8.25 79.15 8.85 77.3 L9.9 71.35 Q11.1 64.45 16.0 60.7 17.45 59.55 19.3 58.7 19.8 59.85 20.2 65.25 20.65 70.9 20.05 72.05 L20.05 72.3 Q21.45 71.2 24.35 66.3 L25.85 63.65 Q26.0 73.65 28.15 78.35 M16.8 62.4 L16.55 62.3 16.3 62.45 15.9 62.9 15.5 63.55 15.25 63.85 15.25 64.3 15.25 65.05 15.25 65.95 Q15.25 66.45 15.75 66.5 L16.3 66.15 16.95 64.95 Q17.3 64.4 17.3 63.75 L17.15 62.7 17.0 62.55 16.8 62.4 M2.25 80.25 L2.15 80.75 1.65 82.5 1.7 82.8 Q1.9 84.1 2.45 85.35 3.9 88.8 7.8 92.05 L8.0 92.2 Q11.75 95.3 15.05 96.3 14.95 92.7 15.9 90.6 16.7 88.9 19.65 84.55 L19.7 84.5 Q21.95 81.25 22.0 79.7 L21.75 79.7 19.75 80.65 17.75 81.35 Q16.8 81.35 15.7 79.4 14.25 76.9 13.7 73.75 13.15 70.55 13.7 68.25 L14.1 67.1 Q12.25 69.0 11.1 74.55 L10.95 74.6 10.75 74.7 10.65 74.85 10.65 75.0 10.65 75.15 Q10.6 75.45 10.85 75.6 L10.9 75.65 10.8 76.0 Q9.55 82.95 7.2 84.05 L6.55 83.4 4.3 80.75 4.35 80.6 4.45 80.3 4.35 80.15 3.8 79.65 3.5 79.25 3.35 78.95 3.2 78.8 3.05 78.75 2.2 76.8 2.3 78.3 2.3 78.85 Q1.9 79.0 2.05 79.65 L2.25 80.25" fill="#a6ffeb" fill-rule="evenodd" stroke="none"/>
      <path d="M11.1 74.55 Q12.25 69.0 14.1 67.1 L13.7 68.25 Q13.15 70.55 13.7 73.75 14.25 76.9 15.7 79.4 16.8 81.35 17.75 81.35 L19.75 80.65 21.75 79.7 22.0 79.7 Q21.95 81.25 19.7 84.5 L19.65 84.55 Q16.7 88.9 15.9 90.6 14.95 92.7 15.05 96.3 11.75 95.3 8.0 92.2 L7.8 92.05 Q3.9 88.8 2.45 85.35 1.9 84.1 1.7 82.8 L1.65 82.5 2.15 80.75 2.25 80.25 2.5 80.9 2.65 81.75 2.75 82.5 2.9 82.65 3.35 83.05 3.95 83.25 4.3 83.1 4.4 83.0 4.45 82.85 4.35 82.05 4.25 81.65 4.25 81.2 4.3 80.75 6.55 83.4 7.2 84.05 Q9.55 82.95 10.8 76.0 L10.9 75.65 11.4 75.55 Q11.7 75.3 11.6 74.9 11.5 74.6 11.15 74.5 L11.15 74.55 11.1 74.55 M2.3 78.85 L2.3 78.3 2.2 76.8 3.05 78.75 2.95 78.75 2.55 78.7 2.55 78.75 2.3 78.85" fill="#74d5de" fill-rule="evenodd" stroke="none"/>
      <path d="M23.7 85.2 Q22.05 87.1 20.4 89.55 17.2 94.3 17.2 95.45 L17.35 96.7 17.4 96.85 15.05 96.7 15.0 96.7 Q12.8 96.55 9.8 95.1 L8.3 94.3 Q6.35 92.75 5.45 91.0 L4.8 89.75 2.15 85.25 0.7 82.95 1.0 78.9 M1.35 74.65 L1.4 73.5 Q1.4 71.1 0.65 69.05 L0.0 67.65 2.6 69.5 3.9 70.7 Q3.4 69.15 3.4 66.45 3.4 63.5 5.35 61.3 6.4 60.15 9.45 58.0 12.3 56.1 13.3 54.65 L13.8 53.85 13.9 51.2 Q13.9 46.45 12.3 44.2 L10.5 42.4 Q14.9 43.3 18.85 47.1 20.7 48.9 21.85 50.85 L23.2 48.9 Q25.85 40.5 27.9 35.5 M38.3 37.6 L37.6 39.3 40.45 38.05 M21.85 50.85 Q23.8 54.1 23.8 57.9 23.8 59.05 23.3 60.05 M1.0 79.15 L1.35 74.65 M25.65 83.1 L23.7 85.2 M3.9 70.7 Q6.2 73.05 6.3 75.1" fill="none" stroke="#adecfc" stroke-linecap="round" stroke-linejoin="round" stroke-width="0.5"/>
    </g>
    <linearGradient gradientTransform="matrix(0.1755, -0.0154, 0.0051, 0.0583, 25.45, 110.1)" gradientUnits="userSpaceOnUse" id="gradient0" spreadMethod="pad" x1="-819.2" x2="819.2">
      <stop offset="0.0" stop-color="#9affff"/>
      <stop offset="1.0" stop-color="#ecffff" stop-opacity="0.0"/>
    </linearGradient>
    <g id="shape3" transform="matrix(1.0, 0.0, 0.0, 1.0, 4.3, 0.9)">
      <path d="M2.85 5.65 L6.5 2.65 9.15 0.4 9.15 0.1 9.2 -0.3 33.75 -0.3 35.3 4.05 Q37.2 10.2 37.2 12.4 L37.15 13.5 38.45 14.4 35.75 22.4 Q34.9 24.8 31.55 24.8 18.45 24.8 9.1 14.6 4.8 9.95 2.85 5.65" fill="#cd3800" fill-rule="evenodd" stroke="none"/>
      <path d="M5.35 -0.3 L5.35 -0.2 8.15 -0.05 8.2 -0.3 9.2 -0.3 9.15 0.1 9.15 0.4 6.5 2.65 2.85 5.65 -0.7 8.55 -0.7 -0.3 5.35 -0.3 M33.75 -0.3 L38.45 -0.3 Q41.0 6.7 40.8 16.1 L38.45 14.4 37.15 13.5 37.2 12.4 Q37.2 10.2 35.3 4.05 L33.75 -0.3" fill="#ff9f43" fill-rule="evenodd" stroke="none"/>
      <path d="M8.2 -0.3 L8.15 -0.05 5.35 -0.2 5.35 -0.3 8.2 -0.3" fill="#ffdc69" fill-rule="evenodd" stroke="none"/>
      <path d="M-0.7 8.55 L2.85 5.65 6.5 2.65 9.15 0.4 9.15 0.1 9.2 -0.3 M33.75 -0.3 L35.3 4.05 Q37.2 10.2 37.2 12.4 L37.15 13.5 38.45 14.4 40.8 16.1 Q41.0 6.7 38.45 -0.3" fill="none" stroke="#af3900" stroke-linecap="round" stroke-linejoin="round" stroke-width="0.8"/>
      <path d="M52.35 36.2 L48.45 36.65 46.4 37.0 46.4 36.9 46.4 36.6 Q46.25 33.55 44.35 26.55 42.15 18.9 39.35 14.05 L39.65 13.2 Q49.4 23.2 52.8 35.95 52.55 36.1 52.35 36.2" fill="#ffdc69" fill-rule="evenodd" stroke="none"/>
      <path d="M46.4 36.6 L46.4 36.9 46.4 37.0 48.45 36.65 52.35 36.2 Q45.25 39.85 40.85 45.9 L37.55 49.55 37.4 48.4 46.1 37.1 46.4 36.6" fill="#ff9f43" fill-rule="evenodd" stroke="none"/>
      <path d="M46.4 36.6 L46.1 37.1 37.4 48.4 34.45 28.45 39.35 14.05 Q42.15 18.9 44.35 26.55 46.25 33.55 46.4 36.6" fill="#c45824" fill-rule="evenodd" stroke="none"/>
      <path d="M37.4 48.4 L37.55 49.55 40.85 45.9 Q45.25 39.85 52.35 36.2 52.55 36.1 52.8 35.95 49.4 23.2 39.65 13.2 L39.35 14.05 34.45 28.45 37.4 48.4 Z" fill="none" stroke="#af3900" stroke-linecap="round" stroke-linejoin="round" stroke-width="0.8"/>
      <path d="M10.8 -0.5 L14.0 -0.5 12.75 0.65 9.55 3.65 Q9.4 2.5 8.55 2.15 L10.8 -0.5 M17.3 -0.5 L20.95 -0.5 20.45 0.8 Q19.35 1.45 17.7 3.2 L16.65 4.3 15.0 4.95 14.3 5.3 13.2 6.1 11.45 8.05 9.15 7.8 Q10.85 4.6 15.35 1.05 L17.3 -0.5" fill="#518ea3" fill-rule="evenodd" stroke="none"/>
      <path d="M12.75 0.65 L14.0 -0.5 14.45 -0.5 13.1 0.45 12.75 0.65 M23.25 -0.5 L29.55 -0.5 31.4 1.2 Q33.15 0.6 40.7 -0.25 L42.65 -0.5 45.3 -0.5 44.75 -0.4 44.9 -0.4 45.45 -0.5 54.9 -0.5 54.9 1.4 49.45 1.05 44.75 1.15 33.5 4.15 32.9 4.65 30.85 6.85 30.75 6.85 26.5 8.25 26.8 8.05 24.9 8.85 24.8 8.85 Q24.1 9.2 23.55 9.55 L23.4 9.65 22.55 11.45 22.5 11.6 22.8 13.55 22.85 13.8 23.05 14.15 22.15 14.4 21.75 14.5 20.8 14.9 19.5 15.4 19.2 15.4 Q21.2 14.65 22.0 11.4 L22.45 9.3 21.85 7.85 Q21.4 6.4 21.4 4.45 21.4 1.9 22.15 0.5 L23.25 -0.5" fill="#5983f3" fill-rule="evenodd" stroke="none"/>
      <path d="M10.8 -0.5 L8.55 2.15 7.75 1.95 9.8 -0.5 10.8 -0.5 M9.55 3.65 L12.75 0.65 13.1 0.45 14.45 -0.5 14.75 -0.5 Q11.55 2.25 9.65 4.6 L9.65 4.55 9.55 3.8 9.55 3.65 M16.35 -0.5 L17.3 -0.5 15.35 1.05 Q10.85 4.6 9.15 7.8 L8.5 7.75 9.05 6.15 Q11.8 3.05 15.4 0.2 L16.35 -0.5 M20.95 -0.5 L21.35 -0.5 20.65 0.5 20.5 0.8 20.35 1.15 20.05 1.85 17.5 3.9 17.3 4.15 17.2 4.2 17.15 4.15 17.15 4.1 17.05 4.2 16.7 4.55 16.3 4.65 Q15.75 4.85 15.1 5.15 L15.0 5.25 12.45 8.15 11.45 8.05 13.2 6.1 14.3 5.3 15.0 4.95 16.65 4.3 17.7 3.2 Q19.35 1.45 20.45 0.8 L20.95 -0.5 M29.55 -0.5 L30.1 -0.5 30.8 0.15 31.1 0.45 38.65 -0.5 42.65 -0.5 40.7 -0.25 Q33.15 0.6 31.4 1.2 L29.55 -0.5 M45.3 -0.5 L45.45 -0.5 44.9 -0.4 44.75 -0.4 45.3 -0.5 M54.9 1.5 L54.9 2.2 50.5 2.05 Q48.75 2.85 46.9 3.95 L43.9 5.95 Q41.45 7.85 38.9 10.25 L38.45 10.65 Q39.55 12.75 40.65 13.4 L40.9 13.5 40.75 14.5 Q40.3 18.75 41.35 22.1 L39.05 25.05 35.75 28.1 34.55 24.3 34.55 24.2 34.3 23.9 Q30.65 19.75 26.55 15.95 L25.1 14.75 24.85 14.5 24.4 14.1 24.2 13.9 24.0 13.65 23.5 14.05 23.55 13.55 23.65 13.2 23.4 13.4 22.85 13.8 22.8 13.55 22.5 11.6 22.55 11.45 23.4 9.65 23.55 9.55 Q24.1 9.2 24.8 8.85 L24.9 8.85 26.8 8.05 26.5 8.25 30.75 6.85 30.85 6.85 44.1 3.65 44.7 3.55 45.1 3.45 46.55 2.15 Q50.2 1.4 52.7 1.4 L54.9 1.5 M41.85 30.5 Q38.45 35.6 39.1 42.5 L37.65 35.85 41.35 30.75 41.85 30.5 M38.55 9.75 L39.45 8.8 Q40.7 7.5 45.7 3.8 L42.55 4.45 37.85 5.75 31.8 7.55 26.9 9.15 Q25.1 9.9 24.05 10.95 L24.35 11.85 24.45 12.25 Q25.1 13.9 25.85 14.5 25.35 12.95 29.0 11.15 32.55 9.3 36.2 9.3 L37.0 9.3 Q37.4 9.45 37.75 10.55 L38.55 9.75 M36.1 9.95 L35.8 9.75 35.7 9.8 35.65 9.8 Q31.8 11.05 29.2 13.4 L26.9 15.65 34.8 22.9 34.85 23.1 35.2 24.05 35.55 24.9 36.0 26.1 36.1 26.65 37.2 25.85 39.8 23.4 39.8 23.15 39.75 19.45 Q39.75 15.75 40.05 14.25 L40.2 13.95 38.1 11.85 37.3 11.05 36.85 10.65 36.1 9.95 M18.4 4.9 Q19.7 3.8 21.0 2.95 21.05 1.75 22.15 0.5 21.4 1.9 21.4 4.45 21.4 6.4 21.85 7.85 L22.45 9.3 22.0 11.4 Q21.2 14.65 19.2 15.4 16.9 14.85 17.0 13.1 17.05 11.25 18.3 10.8 L20.55 10.25 20.4 9.95 Q19.5 8.25 18.4 4.9 M19.5 15.4 L20.8 14.9 21.75 14.5 22.15 14.4 Q20.8 15.4 19.5 15.4 M8.1 8.95 L11.8 9.15 11.3 10.15 11.05 10.6 Q10.35 14.8 10.85 17.15 L11.55 21.75 11.7 22.85 12.75 21.65 Q14.85 19.3 15.85 19.3 16.3 19.3 16.3 20.6 16.3 21.85 15.3 25.05 14.35 27.8 13.45 29.1 L13.3 29.25 13.05 29.05 10.45 26.55 Q9.15 24.75 8.85 23.5 L8.85 22.85 Q8.85 20.15 9.15 16.15 L9.55 11.1 9.55 10.25 Q8.15 13.8 6.35 23.6 5.3 29.3 4.8 33.05 L4.75 32.95 Q4.65 20.5 8.1 8.95 M13.35 29.3 L14.45 29.15 16.65 29.4 17.1 29.65 14.15 31.45 14.0 31.55 15.3 33.2 15.35 33.3 17.1 35.95 16.15 36.2 16.05 36.85 15.75 38.05 15.65 38.55 14.9 40.8 8.35 35.75 Q9.75 33.3 10.3 32.6 11.5 31.05 12.85 30.45 L14.35 30.15 14.5 30.15 13.35 29.3" fill="#546cac" fill-rule="evenodd" stroke="none"/>
      <path d="M14.75 -0.5 L16.35 -0.5 15.4 0.2 Q11.8 3.05 9.05 6.15 L9.65 4.6 Q11.55 2.25 14.75 -0.5 M21.35 -0.5 L23.25 -0.5 22.15 0.5 Q21.05 1.75 21.0 2.95 19.7 3.8 18.4 4.9 L17.8 5.5 17.2 4.2 17.3 4.15 17.5 3.9 20.05 1.85 20.35 1.15 20.5 0.8 20.65 0.5 21.35 -0.5 M30.1 -0.5 L38.65 -0.5 31.1 0.45 30.8 0.15 30.1 -0.5 M38.55 9.75 L37.75 10.55 Q37.4 9.45 37.0 9.3 L36.2 9.3 Q32.55 9.3 29.0 11.15 25.35 12.95 25.85 14.5 25.1 13.9 24.45 12.25 26.3 10.9 27.45 10.25 31.5 8.1 35.9 8.1 37.85 8.1 38.15 8.8 L38.55 9.75" fill="#465e9f" fill-rule="evenodd" stroke="none"/>
      <path d="M54.9 1.4 L54.9 1.5 52.7 1.4 Q50.2 1.4 46.55 2.15 L45.1 3.45 44.7 3.55 44.75 3.5 45.2 3.05 45.7 2.1 Q45.7 1.75 45.35 1.75 L44.65 1.95 Q44.2 2.2 44.05 2.6 43.85 2.95 43.9 3.4 L44.1 3.65 30.85 6.85 32.9 4.65 33.5 4.15 44.75 1.15 49.45 1.05 54.9 1.4" fill="#64adff" fill-rule="evenodd" stroke="none"/>
      <path d="M44.7 3.55 L44.1 3.65 43.9 3.4 Q43.85 2.95 44.05 2.6 44.2 2.2 44.65 1.95 L45.35 1.75 Q45.7 1.75 45.7 2.1 L45.2 3.05 44.75 3.5 44.7 3.55 M36.1 9.95 L36.85 10.65 37.3 11.05 38.1 11.85 40.2 13.95 40.05 14.25 Q39.75 15.75 39.75 19.45 L39.8 23.15 39.8 23.4 37.2 25.85 37.85 23.4 38.5 19.75 38.9 18.95 38.9 17.6 38.4 16.4 38.3 16.25 37.45 13.65 36.5 11.1 36.1 9.95 M36.0 26.1 L35.55 24.9 35.2 24.05 34.85 23.1 34.8 22.9 26.9 15.65 29.2 13.4 Q31.8 11.05 35.65 9.8 L35.7 9.8 35.7 10.05 36.15 11.55 37.5 16.8 37.45 16.8 37.35 16.9 37.2 16.95 Q37.05 17.4 37.05 17.85 L37.05 18.8 Q37.15 19.5 37.65 19.85 L36.8 23.15 36.55 24.05 36.0 26.1" fill="#8ac1ff" fill-rule="evenodd" stroke="none"/>
      <path d="M24.45 12.25 L24.35 11.85 24.05 10.95 Q25.1 9.9 26.9 9.15 L31.8 7.55 37.85 5.75 42.55 4.45 45.7 3.8 Q40.7 7.5 39.45 8.8 L38.55 9.75 38.15 8.8 Q37.85 8.1 35.9 8.1 31.5 8.1 27.45 10.25 26.3 10.9 24.45 12.25" fill="#2e4480" fill-rule="evenodd" stroke="none"/>
      <path d="M41.45 21.95 L41.75 21.6 43.5 29.75 41.85 30.5 41.35 30.75 37.65 35.85 39.1 42.5 40.05 46.65 39.85 46.75 38.45 46.95 Q36.9 43.25 35.9 38.25 L35.45 35.6 41.1 28.95 40.8 26.9 Q38.35 31.2 35.0 34.5 L34.85 34.1 Q34.45 32.8 33.05 30.3 28.45 25.15 24.3 22.25 L22.75 26.75 22.8 26.8 21.7 27.25 20.7 27.75 23.45 31.5 Q24.9 33.55 25.0 35.9 L25.0 35.95 25.2 36.05 25.3 36.05 24.75 39.5 23.75 44.8 23.0 47.15 23.05 47.15 24.15 44.55 Q25.2 41.45 25.85 36.15 L26.55 36.25 27.7 36.3 29.65 35.9 31.8 35.45 32.0 35.65 Q29.2 41.5 26.1 45.45 25.3 45.8 23.85 47.15 L28.1 46.3 28.35 46.3 24.75 48.3 23.1 49.2 22.65 48.25 22.55 48.2 21.35 45.65 21.1 45.2 23.85 36.6 22.45 35.75 23.9 34.3 Q21.7 30.95 17.55 28.5 L14.15 28.85 17.2 28.1 17.4 28.05 20.2 27.15 22.4 25.95 22.35 25.6 22.4 25.55 Q22.45 25.1 23.45 22.8 L24.35 20.8 24.35 20.75 24.45 20.5 24.35 18.9 24.05 16.55 23.3 18.95 23.1 19.2 Q22.3 20.45 22.3 23.95 L22.3 25.45 Q21.75 22.8 21.75 21.05 L22.0 19.15 22.3 17.15 22.3 17.05 18.0 23.9 Q15.9 27.1 14.2 28.75 L16.35 23.75 Q17.85 19.3 16.1 17.9 14.7 17.75 12.3 22.05 11.9 19.65 11.85 16.5 L12.05 10.85 12.05 10.8 13.65 10.65 13.75 10.6 14.75 10.05 15.05 9.9 17.5 9.4 18.05 9.4 18.8 9.45 19.8 9.6 19.9 9.85 Q15.1 10.5 17.0 14.8 19.05 16.4 20.85 16.15 L23.5 14.05 24.0 13.65 24.2 13.9 24.2 14.1 24.7 20.8 24.7 20.85 24.9 20.95 25.05 21.1 25.3 21.25 Q30.05 24.95 33.3 28.55 L34.0 29.4 34.75 30.85 35.4 32.25 35.45 32.2 36.0 29.9 38.75 27.4 38.85 27.25 39.0 27.15 40.4 25.3 40.65 24.95 41.3 22.65 41.45 21.95 M17.65 9.6 L16.4 9.6 Q14.9 10.1 13.7 10.8 L13.55 10.85 13.15 11.1 13.1 11.65 12.9 13.4 12.85 13.8 12.45 18.9 14.0 14.1 Q14.5 12.55 15.15 11.6 15.85 10.6 16.75 10.25 L16.9 10.2 18.2 9.6 17.65 9.6" fill="#ff9f43" fill-rule="evenodd" stroke="none"/>
      <path d="M41.35 22.1 L41.45 21.95 41.3 22.65 40.65 24.95 40.4 25.3 39.0 27.15 38.85 27.25 38.75 27.4 36.0 29.9 35.45 32.2 35.4 32.25 34.75 30.85 34.0 29.4 33.3 28.55 Q30.05 24.95 25.3 21.25 L25.05 21.1 24.9 20.95 24.7 20.85 24.7 20.8 24.2 14.1 24.2 13.9 24.4 14.1 24.85 14.5 24.85 14.65 24.9 18.95 24.9 20.9 Q25.1 20.9 25.2 21.05 L25.3 21.1 25.9 21.55 29.15 23.9 31.3 26.15 33.4 28.3 34.55 24.3 35.75 28.1 39.05 25.05 41.35 22.1 M14.2 28.75 Q15.9 27.1 18.0 23.9 L22.3 17.05 22.3 17.15 22.0 19.15 21.75 21.05 Q21.75 22.8 22.3 25.45 L22.35 25.6 22.4 25.95 20.2 27.15 17.4 28.05 17.2 28.1 14.15 28.85 14.2 28.75 M28.1 46.3 L23.85 47.15 Q25.3 45.8 26.1 45.45 L25.7 45.9 28.1 46.3 M31.8 35.45 L29.65 35.9 27.7 36.3 26.55 36.25 25.85 36.15 Q25.2 41.45 24.15 44.55 L23.05 47.15 23.0 47.15 23.75 44.8 24.75 39.5 25.3 36.05 25.2 36.05 25.0 35.95 25.0 35.9 Q24.9 33.55 23.45 31.5 L20.7 27.75 21.7 27.25 22.8 26.8 24.05 27.75 26.2 29.55 Q25.8 30.3 25.5 32.1 L25.4 32.8 25.2 35.95 Q28.8 36.1 31.5 35.15 L31.8 35.45 M19.8 9.6 L18.8 9.45 18.05 9.4 17.5 9.4 15.05 9.9 14.75 10.05 13.75 10.6 13.65 10.65 12.05 10.8 13.05 9.15 13.7 8.25 14.9 6.55 15.8 5.5 16.7 4.55 17.05 4.2 17.15 4.1 17.15 4.15 Q15.4 6.4 14.55 8.2 L13.75 10.45 Q14.2 9.65 14.8 9.2 L15.15 8.9 15.9 8.75 16.35 8.75 18.35 8.95 19.7 9.45 19.8 9.6" fill="#ffdc69" fill-rule="evenodd" stroke="none"/>
      <path d="M54.9 12.8 Q53.75 13.3 52.55 13.85 L54.9 11.6 54.9 12.8" fill="#ffbf43" fill-rule="evenodd" stroke="none"/>
      <path d="M22.8 26.8 L22.75 26.75 24.3 22.25 Q28.45 25.15 33.05 30.3 34.45 32.8 34.85 34.1 L35.0 34.5 Q38.35 31.2 40.8 26.9 L41.1 28.95 35.45 35.6 35.9 38.25 35.5 38.6 34.45 39.75 Q32.45 31.85 25.0 25.95 L24.1 27.55 24.05 27.75 22.8 26.8" fill="#030d2a" fill-rule="evenodd" stroke="none"/>
      <path d="M35.7 9.8 L35.8 9.75 36.1 9.95 36.5 11.1 37.45 13.65 38.3 16.25 38.1 16.15 38.0 16.15 37.85 16.2 37.7 16.4 37.7 16.55 37.7 16.65 Q37.65 16.65 37.55 16.75 L37.5 16.8 36.15 11.55 35.7 10.05 35.7 9.8 M37.2 25.85 L36.1 26.65 36.0 26.1 36.55 24.05 36.8 23.15 37.65 19.85 37.75 19.9 38.1 19.95 38.5 19.75 37.85 23.4 37.2 25.85" fill="#b1d6ff" fill-rule="evenodd" stroke="none"/>
      <path d="M22.85 13.8 L23.4 13.4 23.65 13.2 23.55 13.55 23.5 14.05 20.85 16.15 Q19.05 16.4 17.0 14.8 15.1 10.5 19.9 9.85 L19.8 9.6 19.7 9.45 17.8 5.5 18.4 4.9 Q19.5 8.25 20.4 9.95 L20.55 10.25 18.3 10.8 Q17.05 11.25 17.0 13.1 16.9 14.85 19.2 15.4 L19.5 15.4 Q20.8 15.4 22.15 14.4 L23.05 14.15 22.85 13.8 M14.15 28.85 L17.55 28.5 Q21.7 30.95 23.9 34.3 L22.45 35.75 23.85 36.6 21.1 45.2 21.35 45.65 20.05 44.65 20.8 43.05 22.55 37.85 22.85 36.95 22.75 36.85 21.8 36.6 19.05 36.25 18.45 36.3 17.4 36.5 16.05 36.85 16.15 36.2 17.1 35.95 18.7 35.65 22.35 34.95 22.7 34.75 22.9 34.55 22.8 34.3 Q22.45 33.45 21.15 32.4 L19.1 30.9 17.2 29.75 17.15 29.75 17.1 29.65 16.65 29.4 14.45 29.15 13.35 29.3 13.3 29.3 13.3 29.25 13.45 29.1 Q14.35 27.8 15.3 25.05 16.3 21.85 16.3 20.6 16.3 19.3 15.85 19.3 14.85 19.3 12.75 21.65 L11.7 22.85 11.55 21.75 10.85 17.15 Q10.35 14.8 11.05 10.6 L11.3 10.15 11.8 9.15 8.1 8.95 8.5 7.75 9.15 7.8 11.45 8.05 12.45 8.15 15.0 5.25 15.1 5.15 Q15.75 4.85 16.3 4.65 L16.7 4.55 15.8 5.5 14.9 6.55 13.7 8.25 13.05 9.15 12.05 10.8 12.05 10.85 11.85 16.5 Q11.9 19.65 12.3 22.05 14.7 17.75 16.1 17.9 17.85 19.3 16.35 23.75 L14.2 28.75 14.15 28.85" fill="#354980" fill-rule="evenodd" stroke="none"/>
      <path d="M24.85 14.5 L25.1 14.75 26.55 15.95 Q30.65 19.75 34.3 23.9 L34.55 24.2 34.55 24.3 33.4 28.3 31.3 26.15 29.15 23.9 25.9 21.55 27.05 22.05 30.55 23.5 33.75 23.85 32.7 22.75 30.05 19.85 25.1 14.9 25.1 15.95 25.3 21.1 25.2 21.05 Q25.1 20.9 24.9 20.9 L24.9 18.95 24.85 14.65 24.85 14.5 M17.15 4.15 L17.2 4.2 17.8 5.5 19.7 9.45 18.35 8.95 16.35 8.75 15.9 8.75 15.15 8.9 14.8 9.2 Q14.2 9.65 13.75 10.45 L14.55 8.2 Q15.4 6.4 17.15 4.15 M31.5 35.15 Q28.8 36.1 25.2 35.95 L25.4 32.8 25.5 32.1 Q25.8 30.3 26.2 29.55 29.05 32.1 31.5 35.15" fill="#fff293" fill-rule="evenodd" stroke="none"/>
      <path d="M25.3 21.1 L25.1 15.95 25.1 14.9 30.05 19.85 32.7 22.75 33.75 23.85 30.55 23.5 27.05 22.05 25.9 21.55 25.3 21.1" fill="#fffad7" fill-rule="evenodd" stroke="none"/>
      <path d="M22.3 25.45 L22.3 23.95 Q22.3 20.45 23.1 19.2 L23.3 18.95 24.05 16.55 24.35 18.9 24.45 20.5 24.35 20.75 24.35 20.8 23.45 22.8 Q22.45 25.1 22.4 25.55 L22.35 25.6 22.3 25.45 M12.85 13.8 L13.1 13.3 Q13.7 12.3 15.15 11.05 L15.15 11.6 Q14.5 12.55 14.0 14.1 L12.45 18.9 12.85 13.8 M16.75 10.25 L17.65 9.6 18.2 9.6 16.9 10.2 16.75 10.25" fill="#e0732f" fill-rule="evenodd" stroke="none"/>
      <path d="M37.5 16.8 L37.55 16.75 Q37.65 16.65 37.7 16.65 L37.7 16.55 37.7 16.4 37.85 16.2 38.0 16.15 38.1 16.15 38.3 16.25 38.4 16.4 38.9 17.6 38.9 18.95 38.5 19.75 38.1 19.95 37.75 19.9 37.65 19.85 Q37.15 19.5 37.05 18.8 L37.05 17.85 Q37.05 17.4 37.2 16.95 L37.35 16.9 37.45 16.8 37.5 16.8" fill="#ffffff" fill-rule="evenodd" stroke="none"/>
      <path d="M12.85 13.8 L12.9 13.4 13.1 11.65 13.15 11.1 13.55 10.85 13.7 10.8 Q14.9 10.1 16.4 9.6 L17.65 9.6 16.75 10.25 Q15.85 10.6 15.15 11.6 L15.15 11.05 Q13.7 12.3 13.1 13.3 L12.85 13.8" fill="#a83c14" fill-rule="evenodd" stroke="none"/>
      <path d="M13.3 29.25 L13.3 29.3 13.35 29.3 14.5 30.15 14.35 30.15 12.85 30.45 Q11.5 31.05 10.3 32.6 9.75 33.3 8.35 35.75 L4.8 33.05 Q5.3 29.3 6.35 23.6 8.15 13.8 9.55 10.25 L9.55 11.1 9.15 16.15 Q8.85 20.15 8.85 22.85 L8.85 23.5 Q9.15 24.75 10.45 26.55 L13.05 29.05 13.3 29.25" fill="#738bcb" fill-rule="evenodd" stroke="none"/>
      <path d="M17.1 29.65 L17.15 29.75 17.2 29.75 17.2 30.4 17.4 32.85 17.45 33.9 19.15 34.2 20.4 34.4 22.7 34.75 22.35 34.95 18.7 35.65 17.1 35.95 15.35 33.3 15.3 33.2 14.0 31.55 14.15 31.45 17.1 29.65 M22.55 37.85 L20.8 43.05 20.05 44.65 14.9 40.8 15.65 38.55 15.75 38.05 16.35 38.6 17.1 39.4 18.7 40.45 Q19.4 39.65 21.35 38.5 L22.55 37.85" fill="#5b78c6" fill-rule="evenodd" stroke="none"/>
      <path d="M17.2 29.75 L19.1 30.9 21.15 32.4 Q22.45 33.45 22.8 34.3 L22.9 34.55 22.7 34.75 20.4 34.4 19.15 34.2 17.45 33.9 17.4 32.85 17.2 30.4 17.2 29.75 M16.05 36.85 L17.4 36.5 18.45 36.3 19.05 36.25 21.8 36.6 22.75 36.85 22.85 36.95 22.55 37.85 21.35 38.5 Q19.4 39.65 18.7 40.45 L17.1 39.4 16.35 38.6 15.75 38.05 16.05 36.85" fill="#5a80e5" fill-rule="evenodd" stroke="none"/>
      <path d="M39.85 46.75 L39.9 46.95 39.2 47.3 27.2 50.15 24.75 48.3 28.35 46.3 28.1 46.3 25.7 45.9 26.1 45.45 Q29.2 41.5 32.0 35.65 L31.8 35.45 31.5 35.15 Q29.05 32.1 26.2 29.55 L24.05 27.75 24.1 27.55 25.0 25.95 Q32.45 31.85 34.45 39.75 L35.5 38.6 35.9 38.25 Q36.9 43.25 38.45 46.95 L39.85 46.75" fill="#0a1c4f" fill-rule="evenodd" stroke="none"/>
      <path d="M8.55 2.15 Q9.4 2.5 9.55 3.65 L9.55 3.8 9.65 4.55 9.65 4.6 9.05 6.15 8.5 7.75 8.1 8.95 Q4.65 20.5 4.75 32.95 L4.75 33.4 M54.9 2.2 L50.5 2.05 Q48.75 2.85 46.9 3.95 L43.9 5.95 Q41.45 7.85 38.9 10.25 L38.45 10.65 Q39.55 12.75 40.65 13.4 L40.9 13.5 40.75 14.5 Q40.3 18.75 41.35 22.1 M9.8 -0.5 L7.75 1.95 8.55 2.15 M20.05 44.65 L21.35 45.65 M4.8 33.05 L8.35 35.75 14.9 40.8 20.05 44.65 M4.8 33.05 L4.75 32.95" fill="none" stroke="#102f51" stroke-linecap="round" stroke-linejoin="round" stroke-width="0.8"/>
      <path d="M41.35 22.1 L41.45 21.95 41.75 21.6 43.5 29.75 41.85 30.5 41.35 30.75 37.65 35.85 39.1 42.5 40.05 46.65 39.85 46.75 38.45 46.95 Q36.9 43.25 35.9 38.25 L35.45 35.6 41.1 28.95 40.8 26.9 Q38.35 31.2 35.0 34.5 L34.85 34.1 Q34.45 32.8 33.05 30.3 28.45 25.15 24.3 22.25 L22.75 26.75 22.8 26.8 24.05 27.75 26.2 29.55 Q29.05 32.1 31.5 35.15 L31.8 35.45 32.0 35.65 Q29.2 41.5 26.1 45.45 L25.7 45.9 28.1 46.3 28.35 46.3 24.75 48.3 23.1 49.2 22.65 48.25 22.55 48.2 21.35 45.65 21.1 45.2" fill="none" stroke="#af3900" stroke-linecap="round" stroke-linejoin="round" stroke-width="0.5"/>
      <path d="M54.9 11.6 L52.55 13.85 Q53.75 13.3 54.9 12.8" fill="none" stroke="#af3900" stroke-linecap="round" stroke-linejoin="round" stroke-width="0.8"/>
      <path d="M41.85 30.5 Q38.45 35.6 39.1 42.5 M39.85 46.75 L39.9 46.95 40.45 46.65 M39.9 46.95 L39.2 47.3 27.2 50.15 28.1 50.8 M27.2 50.15 L24.75 48.3" fill="none" stroke="#143d6b" stroke-linecap="round" stroke-linejoin="round" stroke-width="0.8"/>
      <path d="M2.15 13.8 L2.45 13.3 4.0 18.45 4.05 18.5 4.05 18.6 4.8 21.65 5.5 24.9 Q6.4 28.6 6.7 30.85 L6.7 31.0 6.7 31.8 6.75 32.5 7.0 32.8 7.05 32.8 7.65 32.85 7.85 32.8 10.0 32.95 13.0 33.25 Q6.1 36.45 -1.65 45.25 L-1.75 44.65 0.7 40.9 0.75 40.8 0.8 40.75 Q3.25 36.95 6.5 33.2 L6.5 33.1 6.45 32.95 6.4 32.55 Q5.9 30.6 5.7 28.4 L5.1 24.65 5.0 24.0 3.15 17.5 2.15 13.8" fill="#ff9f43" fill-rule="evenodd" stroke="none"/>
      <path d="M2.45 13.3 L3.7 11.3 10.85 26.15 12.1 29.85 10.2 27.75 Q9.5 26.95 6.9 25.6 L6.7 25.5 4.15 18.9 4.05 18.6 4.05 18.5 4.0 18.45 2.45 13.3" fill="#ffdc69" fill-rule="evenodd" stroke="none"/>
      <path d="M-1.75 44.65 L-3.9 23.55 -3.6 23.1 -2.55 27.0 Q-0.65 34.85 -0.65 39.95 -0.65 41.6 -0.95 42.85 L0.7 40.9 -1.75 44.65 M1.55 14.75 L2.15 13.8 3.15 17.5 5.0 24.0 5.1 24.65 5.7 28.4 Q5.9 30.6 6.4 32.55 L6.45 32.95 6.4 32.9 5.4 32.45 5.05 27.1 4.35 24.2 3.25 20.6 1.55 14.75" fill="#c45824" fill-rule="evenodd" stroke="none"/>
      <path d="M12.1 29.85 L13.25 33.15 13.0 33.25 10.0 32.95 7.85 32.8 7.9 32.65 8.0 32.6 8.05 32.5 8.25 32.3 8.25 31.65 8.0 30.9 Q7.65 30.45 7.05 30.5 L7.05 30.45 6.7 30.85 Q6.4 28.6 5.5 24.9 L4.8 21.65 4.05 18.6 4.15 18.9 6.7 25.5 6.9 25.6 Q9.5 26.95 10.2 27.75 L12.1 29.85" fill="#fff293" fill-rule="evenodd" stroke="none"/>
      <path d="M-3.6 23.1 L1.55 14.75 3.25 20.6 4.35 24.2 5.05 27.1 5.4 32.45 6.4 32.9 6.45 32.95 6.5 33.1 6.5 33.2 Q3.25 36.95 0.8 40.75 L0.75 40.8 0.7 40.9 -0.95 42.85 Q-0.65 41.6 -0.65 39.95 -0.65 34.85 -2.55 27.0 L-3.6 23.1" fill="#cd3800" fill-rule="evenodd" stroke="none"/>
      <path d="M6.7 30.85 L7.05 30.45 7.05 30.5 Q7.65 30.45 8.0 30.9 L8.25 31.65 8.25 32.3 8.05 32.5 8.0 32.6 7.9 32.65 7.85 32.8 7.65 32.85 7.05 32.8 7.0 32.8 6.75 32.5 6.7 31.8 6.7 31.0 6.7 30.85" fill="#ffffff" fill-rule="evenodd" stroke="none"/>
      <path d="M2.15 13.8 L2.45 13.3 3.7 11.3 10.85 26.15 12.1 29.85 13.25 33.15 13.0 33.25 Q6.1 36.45 -1.65 45.25 L-1.75 44.65 -3.9 23.55 -3.6 23.1 1.55 14.75 2.15 13.8 Z" fill="none" stroke="#af3900" stroke-linecap="round" stroke-linejoin="round" stroke-width="0.8"/>
    </g>
    <g id="shape4" transform="matrix(1.0, 0.0, 0.0, 1.0, 0.65, -33.35)">
      <path d="M36.0 46.6 L36.55 46.6 Q46.35 45.75 48.35 43.4 L52.7 46.3 52.45 46.9 Q49.3 48.4 45.15 49.3 L42.7 49.85 40.1 50.3 40.05 50.4 39.05 50.55 34.8 50.65 Q30.2 50.65 22.8 48.75 L18.45 47.55 16.45 46.9 14.0 44.9 10.9 41.95 9.9 40.95 Q8.55 39.65 6.45 35.85 8.85 39.55 11.2 42.1 14.45 45.4 17.55 46.3 L26.1 48.45 32.65 49.55 Q37.3 49.55 38.05 48.75 L38.1 48.6 38.1 48.5 36.0 46.6" fill="#fff293" fill-rule="evenodd" stroke="none"/>
      <path d="M6.45 35.85 Q8.55 39.65 9.9 40.95 L10.9 41.95 14.0 44.9 16.45 46.9 18.45 47.55 22.8 48.75 Q30.2 50.65 34.8 50.65 L39.05 50.55 40.05 50.4 40.1 50.3 42.7 49.85 45.15 49.3 Q49.3 48.4 52.45 46.9 L49.5 53.7 25.05 53.7 Q17.3 50.6 10.0 45.8 L7.7 48.15 6.05 45.45 -0.25 50.95 -0.25 48.45 5.3 43.8 5.55 43.5 5.7 43.6 6.65 44.6 7.75 46.2 7.9 46.2 7.9 45.85 7.9 44.75 7.9 43.8 7.55 42.15 7.35 42.15 5.2 42.15 4.5 42.2 1.3 42.4 -0.25 42.45 4.8 37.9 5.5 33.95 6.35 35.55 6.45 35.85" fill="#ff9f43" fill-rule="evenodd" stroke="none"/>
      <path d="M36.0 46.6 L38.1 48.5 38.1 48.6 38.05 48.75 Q37.3 49.55 32.65 49.55 L26.1 48.45 17.55 46.3 Q14.45 45.4 11.2 42.1 8.85 39.55 6.45 35.85 L6.35 35.55 5.5 33.95 5.55 33.75 7.8 34.05 11.1 37.85 Q21.0 45.65 36.0 46.6 M-0.25 48.45 L-0.25 46.9 Q0.8 46.2 3.3 44.85 L5.3 43.8 -0.25 48.45 M-0.25 43.95 L-0.25 42.45 1.3 42.4 -0.25 43.95 M7.9 44.75 L7.5 42.8 7.35 42.15 7.55 42.15 7.9 43.8 7.9 44.75 M7.9 45.85 L7.9 46.2 7.75 46.2 6.65 44.6 5.7 43.6 5.9 43.5 Q6.5 43.5 7.9 45.85" fill="#ffdc69" fill-rule="evenodd" stroke="none"/>
      <path d="M-0.25 46.9 L-0.25 43.95 1.3 42.4 4.5 42.2 5.2 42.15 7.35 42.15 7.5 42.8 7.9 44.75 7.9 45.85 Q6.5 43.5 5.9 43.5 L5.7 43.6 5.55 43.5 5.3 43.8 3.3 44.85 Q0.8 46.2 -0.25 46.9" fill="#fff893" fill-rule="evenodd" stroke="none"/>
      <path d="M24.0 53.7 L23.1 53.7 10.3 46.85 Q9.55 49.05 9.05 49.3 L7.45 50.3 6.5 50.9 6.2 49.85 6.0 49.15 5.75 48.3 5.45 48.6 -0.05 53.7 -0.25 53.7 -0.25 52.9 5.85 46.95 6.7 48.2 7.65 49.6 8.7 48.6 9.2 48.15 Q9.7 47.75 10.05 46.5 L24.0 53.7" fill="#4658c4" fill-rule="evenodd" stroke="none"/>
      <path d="M23.1 53.7 L14.9 53.7 13.1 52.4 9.65 49.8 7.55 50.75 6.0 51.5 5.7 49.4 Q3.1 51.3 0.75 53.7 L-0.05 53.7 5.45 48.6 5.75 48.3 6.0 49.15 6.2 49.85 6.5 50.9 7.45 50.3 9.05 49.3 Q9.55 49.05 10.3 46.85 L23.1 53.7" fill="#5983f3" fill-rule="evenodd" stroke="none"/>
      <path d="M25.05 53.7 L24.0 53.7 10.05 46.5 Q9.7 47.75 9.2 48.15 L8.7 48.6 7.65 49.6 6.7 48.2 5.85 46.95 -0.25 52.9 -0.25 50.95 6.05 45.45 7.7 48.15 10.0 45.8 Q17.3 50.6 25.05 53.7" fill="#3c4a9c" fill-rule="evenodd" stroke="none"/>
      <path d="M14.9 53.7 L0.75 53.7 Q3.1 51.3 5.7 49.4 L6.0 51.5 7.55 50.75 9.65 49.8 13.1 52.4 14.9 53.7" fill="#8ac1ff" fill-rule="evenodd" stroke="none"/>
      <path d="M52.45 46.9 L52.7 46.3 48.35 43.4 Q46.35 45.75 36.55 46.6 L36.0 46.6 Q21.0 45.65 11.1 37.85 L7.8 34.05 5.55 33.75 5.5 33.95 4.8 37.9 -0.25 42.45 M52.45 46.9 L49.5 53.7" fill="none" stroke="#af3900" stroke-linecap="round" stroke-linejoin="round" stroke-width="0.8"/>
      <path d="M45.25 53.7 L44.5 50.25 44.5 49.95 44.5 49.4 44.5 46.9 44.55 43.9 44.55 43.75 45.2 45.2 45.65 51.65 46.05 53.7 45.25 53.7 M40.45 47.55 Q38.35 50.4 36.6 53.7 L35.3 53.7 35.35 53.5 36.0 51.95 36.45 51.15 36.8 50.6 37.35 49.65 38.3 48.15 40.45 47.55" fill="#ff9f43" fill-rule="evenodd" stroke="none"/>
      <path d="M44.5 46.9 L44.15 44.25 40.4 49.3 37.4 53.7 36.6 53.7 Q38.35 50.4 40.45 47.55 42.2 45.15 44.35 43.15 L44.55 43.75 44.55 43.9 44.5 46.9 M38.3 48.15 L37.35 49.65 36.8 50.6 36.45 51.15 36.0 51.95 35.35 53.5 35.3 53.7 26.75 53.7 Q31.7 50.05 38.3 48.15" fill="#ffdc69" fill-rule="evenodd" stroke="none"/>
      <path d="M37.4 53.7 L40.4 49.3 44.15 44.25 44.5 46.9 44.5 49.4 44.5 49.95 44.5 50.25 45.25 53.7 37.4 53.7" fill="#fff293" fill-rule="evenodd" stroke="none"/>
      <path d="M45.2 45.2 L49.15 53.7 46.05 53.7 45.65 51.65 45.2 45.2" fill="#ee772d" fill-rule="evenodd" stroke="none"/>
      <path d="M44.55 43.75 L44.35 43.15 Q42.2 45.15 40.45 47.55 38.35 50.4 36.6 53.7 M44.55 43.75 L45.2 45.2 49.15 53.7 M38.3 48.15 L40.45 47.55 M26.75 53.7 Q31.7 50.05 38.3 48.15" fill="none" stroke="#af3900" stroke-linecap="round" stroke-linejoin="round" stroke-width="0.8"/>
    </g>
    <g id="shape5" transform="matrix(1.0, 0.0, 0.0, 1.0, 0.0, 0.0)">
      <path d="M50.5 0.0 Q53.95 0.0 53.95 3.3 L53.95 50.15 Q53.95 53.4 50.5 53.4 L3.3 53.4 Q0.0 53.4 0.0 50.15 L0.0 3.3 Q0.0 0.0 3.3 0.0 L50.5 0.0" fill="#000000" fill-opacity="0.003921569" fill-rule="evenodd" stroke="none"/>
    </g>
  </defs>
</svg>
