<?xml version="1.0" encoding="UTF-8" standalone="no"?>
<svg xmlns:ffdec="https://www.free-decompiler.com/flash" xmlns:xlink="http://www.w3.org/1999/xlink" ffdec:objectType="frame" height="61.05px" width="58.2px" xmlns="http://www.w3.org/2000/svg">
  <g transform="matrix(1.0, 0.0, 0.0, 1.0, 1.9, 6.15)">
    <clipPath id="clipPath0" transform="matrix(1.0, 0.0, 0.0, 1.0, 0.0, 0.0)">
      <path d="M50.5 0.0 Q53.95 0.0 53.95 3.3 L53.95 50.15 Q53.95 53.4 50.5 53.4 L3.3 53.4 Q0.0 53.4 0.0 50.15 L0.0 3.3 Q0.0 0.0 3.3 0.0 L50.5 0.0" fill="#000000" fill-rule="evenodd" stroke="none"/>
    </clipPath>
    <g clip-path="url(#clipPath0)">
      <use ffdec:characterId="5" height="61.05" transform="matrix(1.0, 0.0, 0.0, 1.0, -1.9, -6.15)" width="58.2" xlink:href="#shape1"/>
    </g>
    <use ffdec:characterId="6" height="53.4" transform="matrix(1.0, 0.0, 0.0, 1.0, 0.0, 0.0)" width="53.95" xlink:href="#shape2"/>
  </g>
  <defs>
    <g id="shape1" transform="matrix(1.0, 0.0, 0.0, 1.0, 1.9, 6.15)">
      <path d="M37.1 35.85 L39.15 43.2 41.1 51.6 41.6 53.9 38.45 53.9 37.75 42.65 37.1 35.85" fill="#340b0f" fill-rule="evenodd" stroke="none"/>
      <path d="M-0.95 -5.65 L4.85 -3.7 Q24.1 3.05 33.15 12.7 L35.0 21.4 35.45 23.9 Q34.4 24.9 33.0 27.2 30.2 31.9 30.2 37.0 L30.45 39.95 31.0 43.35 31.8 48.0 Q32.5 47.95 32.8 47.2 33.2 46.3 33.8 46.0 L33.8 49.2 32.2 53.9 23.45 53.9 23.35 52.75 23.15 50.75 Q20.55 39.55 17.4 36.4 L9.75 53.9 0.55 53.9 0.6 51.2 Q0.6 43.3 -0.25 30.6 L-0.3 30.0 -0.95 21.1 -0.95 -5.65" fill="#2c090f" fill-rule="evenodd" stroke="none"/>
      <path d="M-0.95 21.1 L-0.3 30.0 -0.25 30.6 Q0.6 43.3 0.6 51.2 L0.55 53.9 -0.95 53.9 -0.95 21.1" fill="#1e0508" fill-rule="evenodd" stroke="none"/>
      <path d="M32.2 53.9 L33.8 49.2 33.8 46.0 Q33.2 46.3 32.8 47.2 32.5 47.95 31.8 48.0 L31.0 43.35 30.45 39.95 30.2 37.0 Q30.2 31.9 33.0 27.2 34.4 24.9 35.45 23.9 36.45 29.75 37.1 35.85 L37.75 42.65 38.45 53.9 32.2 53.9" fill="#471317" fill-rule="evenodd" stroke="none"/>
      <path d="M9.75 53.9 L17.4 36.4 Q20.55 39.55 23.15 50.75 L23.35 52.75 23.45 53.9 9.75 53.9" fill="#27090b" fill-rule="evenodd" stroke="none"/>
      <path d="M35.45 23.9 L35.0 21.4 33.15 12.7 Q24.1 3.05 4.85 -3.7 L-0.95 -5.65 M35.45 23.9 Q36.45 29.75 37.1 35.85 L39.15 43.2 41.1 51.6 41.6 53.9 M38.45 53.9 L37.75 42.65 37.1 35.85" fill="none" stroke="#27060c" stroke-linecap="round" stroke-linejoin="round" stroke-width="1.0"/>
      <path d="M48.9 41.5 L47.2 36.45 47.45 36.0 54.2 43.6 55.3 44.9 55.3 47.8 Q52.55 43.9 48.9 40.35 L48.9 41.5" fill="#ff543f" fill-rule="evenodd" stroke="none"/>
      <path d="M52.95 54.4 L48.9 41.5 48.9 40.35 Q52.55 43.9 55.3 47.8 L55.3 54.4 52.95 54.4" fill="#e62021" fill-rule="evenodd" stroke="none"/>
      <path d="M38.25 54.4 L40.9 48.7 Q44.45 41.25 47.2 36.45 L48.9 41.5 52.95 54.4 50.7 54.4 47.95 45.25 Q45.2 49.7 42.95 54.4 L38.25 54.4" fill="#a21211" fill-rule="evenodd" stroke="none"/>
      <path d="M42.95 54.4 Q45.2 49.7 47.95 45.25 L50.7 54.4 42.95 54.4" fill="#581111" fill-rule="evenodd" stroke="none"/>
      <path d="M47.2 36.45 Q44.45 41.25 40.9 48.7 L38.25 54.4 M42.95 54.4 Q45.2 49.7 47.95 45.25 L50.7 54.4 M47.2 36.45 L47.45 36.0 54.2 43.6 55.3 44.9" fill="none" stroke="#33020a" stroke-linecap="round" stroke-linejoin="round" stroke-width="1.0"/>
      <path d="M12.05 41.2 L12.45 41.45 14.7 43.0 15.8 43.75 17.55 44.8 27.3 50.6 27.15 49.9 28.6 51.85 29.45 53.05 30.05 53.9 28.45 53.9 24.3 51.85 23.75 51.6 Q20.6 50.05 17.7 48.35 L15.8 47.2 13.9 46.15 12.6 42.85 12.2 41.7 12.05 41.2 M26.95 48.6 L26.45 45.25 33.7 51.0 33.75 51.35 33.95 53.0 34.05 53.9 32.9 53.9 30.4 51.7 26.95 48.6 M30.2 36.55 L30.45 36.35 31.45 35.6 33.8 39.85 36.05 44.25 36.8 45.75 39.0 50.8 40.25 53.9 37.4 53.9 36.45 53.15 35.3 52.25 35.0 51.2 33.25 45.45 33.2 45.2 30.2 36.55 M3.25 53.9 L0.7 53.9 -0.4 52.55 -0.45 52.5 -0.45 43.3 -0.25 43.5 Q2.6 46.6 4.85 49.45 L3.7 52.6 3.25 53.9" fill="#e51f1e" fill-rule="evenodd" stroke="none"/>
      <path d="M-0.45 52.55 L-0.45 52.5 -0.4 52.55 -0.45 52.55" fill="#751215" fill-rule="evenodd" stroke="none"/>
      <path d="M26.45 45.25 L25.95 41.9 25.65 39.85 27.6 38.5 30.2 36.55 33.2 45.2 33.25 45.45 35.0 51.2 35.3 52.25 34.1 51.3 33.7 51.0 26.45 45.25 M5.65 53.9 L3.25 53.9 3.7 52.6 4.85 49.45 5.9 50.75 6.25 51.2 6.5 51.5 6.05 52.7 5.65 53.9 M0.7 53.9 L-0.45 53.9 -0.45 52.55 -0.4 52.55 0.7 53.9" fill="#a11110" fill-rule="evenodd" stroke="none"/>
      <path d="M21.5 53.9 L12.5 53.9 10.0 53.35 9.9 53.9 8.2 53.9 8.1 50.2 8.1 49.85 8.15 48.7 11.0 49.7 11.9 50.05 13.35 50.6 15.8 51.55 21.5 53.9" fill="#ffffff" fill-rule="evenodd" stroke="none"/>
      <path d="M13.8 29.25 L15.55 32.2 13.75 34.3 Q11.55 36.75 11.55 38.35 L11.55 38.6 9.05 35.35 8.8 35.35 Q9.25 36.35 7.45 41.3 L6.95 42.75 9.0 45.35 12.0 48.95 13.35 50.6 11.9 50.05 11.0 49.7 8.15 48.7 7.95 48.6 7.85 48.6 6.95 50.5 6.5 51.5 6.25 51.2 5.9 50.75 4.85 49.45 Q2.6 46.6 -0.25 43.5 L-0.45 43.3 -0.45 10.95 Q5.55 17.0 9.5 22.6 L11.3 25.25 13.8 29.25" fill="#4a1318" fill-rule="evenodd" stroke="none"/>
      <path d="M13.8 29.25 L15.8 25.25 16.2 24.6 20.6 29.75 25.0 35.25 25.4 38.1 25.65 39.85 25.95 41.9 26.45 45.25 26.95 48.6 27.15 49.9 27.3 50.6 17.55 44.8 15.8 43.75 14.7 43.0 12.45 41.45 12.05 41.2 11.85 40.3 11.55 38.6 11.55 38.35 Q11.55 36.75 13.75 34.3 L15.55 32.2 13.8 29.25" fill="#3a1011" fill-rule="evenodd" stroke="none"/>
      <path d="M11.55 38.6 L11.85 40.3 12.05 41.2 12.2 41.7 12.6 42.85 13.9 46.15 15.8 47.2 17.7 48.35 Q20.6 50.05 23.75 51.6 L24.3 51.85 28.45 53.9 21.5 53.9 15.8 51.55 13.35 50.6 12.0 48.95 9.0 45.35 6.95 42.75 7.45 41.3 Q9.25 36.35 8.8 35.35 L9.05 35.35 11.55 38.6 M37.4 53.9 L34.05 53.9 33.95 53.0 33.75 51.35 33.7 51.0 34.1 51.3 35.3 52.25 36.45 53.15 37.4 53.9" fill="#77242b" fill-rule="evenodd" stroke="none"/>
      <path d="M27.15 49.9 L26.95 48.6 30.4 51.7 32.9 53.9 30.05 53.9 29.45 53.05 28.6 51.85 27.15 49.9" fill="#ffb3aa" fill-rule="evenodd" stroke="none"/>
      <path d="M8.2 53.9 L6.65 53.9 7.95 48.6 8.15 48.7 8.1 49.85 8.1 50.2 8.2 53.9" fill="#bd9d90" fill-rule="evenodd" stroke="none"/>
      <path d="M12.5 53.9 L9.9 53.9 10.0 53.35 12.5 53.9" fill="#eeebea" fill-rule="evenodd" stroke="none"/>
      <path d="M6.65 53.9 L5.65 53.9 6.05 52.7 6.5 51.5 6.95 50.5 7.85 48.6 7.95 48.6 6.65 53.9" fill="#dbcbd4" fill-rule="evenodd" stroke="none"/>
      <path d="M25.65 39.85 L25.4 38.1 25.0 35.25 20.6 29.75 16.2 24.6 15.8 25.25 13.8 29.25 15.55 32.2 13.75 34.3 Q11.55 36.75 11.55 38.35 L11.55 38.6 11.85 40.3 12.05 41.2 12.45 41.45 14.7 43.0 15.8 43.75 17.55 44.8 27.3 50.6 27.15 49.9 26.95 48.6 26.45 45.25 25.95 41.9 25.65 39.85 27.6 38.5 30.2 36.55 30.45 36.35 31.45 35.6 33.8 39.85 36.05 44.25 36.8 45.75 39.0 50.8 40.25 53.9 M-0.45 10.95 Q5.55 17.0 9.5 22.6 L11.3 25.25 13.8 29.25 M28.45 53.9 L24.3 51.85 23.75 51.6 Q20.6 50.05 17.7 48.35 L15.8 47.2 13.9 46.15 12.6 42.85 12.2 41.7 12.05 41.2 M35.3 52.25 L36.45 53.15 37.4 53.9 M33.7 51.0 L33.75 51.35 33.95 53.0 34.05 53.9 M35.3 52.25 L34.1 51.3 33.7 51.0 26.45 45.25 M6.5 51.5 L6.25 51.2 5.9 50.75 4.85 49.45 Q2.6 46.6 -0.25 43.5 L-0.45 43.3" fill="none" stroke="#33020a" stroke-linecap="round" stroke-linejoin="round" stroke-width="1.0"/>
      <path d="M13.35 50.6 L15.8 51.55 21.5 53.9 M7.95 48.6 L7.85 48.6 6.95 50.5 6.5 51.5 6.05 52.7 5.65 53.9 M8.15 48.7 L7.95 48.6 M13.35 50.6 L11.9 50.05 11.0 49.7 8.15 48.7" fill="none" stroke="#745654" stroke-linecap="round" stroke-linejoin="round" stroke-width="1.0"/>
      <path d="M28.75 29.8 L28.6 29.35 28.15 28.6 28.1 28.55 27.75 28.0 26.4 25.85 25.35 24.25 24.3 22.7 18.55 14.15 17.7 12.85 16.15 10.5 16.05 10.5 Q14.2 11.35 12.25 11.7 L10.65 4.65 10.15 2.4 9.95 1.45 9.55 -0.5 14.05 -0.5 14.5 0.7 14.55 0.75 15.05 2.1 15.95 4.65 16.2 5.4 16.8 6.15 18.35 8.4 20.3 11.15 21.5 12.85 25.25 18.5 28.6 23.85 30.15 26.4 32.2 29.65 32.55 30.1 33.05 30.85 Q35.2 34.0 36.4 35.15 L36.45 35.6 36.25 40.75 Q40.1 37.95 43.9 32.7 L45.65 30.1 Q48.2 25.95 48.65 22.7 L46.6 23.65 44.65 24.65 42.7 22.1 39.9 18.5 35.5 12.85 31.0 7.1 30.95 7.1 30.6 6.6 29.75 5.55 29.05 4.65 27.2 2.3 25.05 -0.5 26.2 -0.5 26.45 -0.2 27.95 1.45 29.5 3.15 30.85 4.65 32.0 5.9 35.3 9.65 36.2 10.7 38.05 12.85 42.15 17.85 42.8 18.7 45.9 22.7 46.35 22.35 46.5 22.2 49.55 19.55 52.55 16.45 53.95 14.75 53.7 18.3 53.55 19.05 50.95 24.4 48.55 29.75 48.35 30.1 Q46.05 35.25 44.05 37.1 L40.85 39.8 Q39.8 40.55 34.65 43.2 L33.75 43.65 33.3 39.65 33.1 38.45 32.5 35.05 29.35 30.5 29.05 30.1 28.85 29.8 28.75 29.8" fill="#a11110" fill-rule="evenodd" stroke="none"/>
      <path d="M22.15 -0.5 L25.05 -0.5 27.2 2.3 29.05 4.65 29.75 5.55 30.6 6.6 30.95 7.1 31.0 7.1 35.5 12.85 39.9 18.5 36.1 14.55 34.45 12.85 30.1 8.5 26.2 4.65 25.7 4.15 25.7 5.1 26.85 11.9 27.05 12.85 28.75 20.9 30.15 26.4 28.6 23.85 25.25 18.5 21.5 12.85 20.3 11.15 18.35 8.4 18.7 8.7 20.0 10.05 20.95 11.25 22.35 12.85 25.2 15.35 25.2 13.35 23.3 2.35 22.35 -0.1 22.15 -0.5" fill="#ffb3aa" fill-rule="evenodd" stroke="none"/>
      <path d="M6.2 -0.5 L6.2 -0.2 6.3 1.0 6.55 3.9 6.65 4.65 7.45 12.85 7.8 16.45 11.25 14.45 14.05 12.85 14.5 12.6 14.8 12.85 15.5 13.6 17.7 15.95 18.65 17.0 16.95 18.95 16.8 19.1 16.25 19.8 15.05 21.2 13.55 23.1 11.75 25.55 11.6 25.75 Q7.35 29.0 3.95 35.95 2.05 34.5 -0.45 28.9 L-1.0 27.6 -1.4 26.65 -1.4 14.75 0.9 13.95 0.8 12.85 0.75 12.7 0.25 8.3 0.05 6.75 -0.2 4.85 -0.25 4.65 -1.15 -0.5 6.2 -0.5 M26.2 -0.5 L37.8 -0.5 36.6 0.8 33.1 4.65 33.05 4.75 32.0 5.9 30.85 4.65 29.5 3.15 27.95 1.45 26.45 -0.2 26.2 -0.5" fill="#300c10" fill-rule="evenodd" stroke="none"/>
      <path d="M14.05 -0.5 L22.15 -0.5 22.35 -0.1 23.3 2.35 25.2 13.35 25.2 15.35 22.35 12.85 20.95 11.25 20.0 10.05 18.7 8.7 18.35 8.4 16.8 6.15 16.2 5.4 15.95 4.65 15.05 2.1 14.55 0.75 14.5 0.7 14.05 -0.5 M16.15 38.15 L13.75 35.6 13.05 32.2 12.8 30.95 13.3 30.6 14.0 30.1 14.6 29.75 14.7 27.9 15.6 29.1 16.4 30.1 18.05 32.15 22.35 37.6 22.4 37.7 16.2 33.45 15.75 33.65 15.7 33.7 Q15.2 33.95 15.2 34.65 15.2 35.4 15.5 36.35 L16.15 38.15 M39.9 18.5 L42.7 22.1 44.65 24.65 46.6 23.65 48.65 22.7 Q48.2 25.95 45.65 30.1 L43.9 32.7 Q40.1 37.95 36.25 40.75 L36.45 35.6 36.4 35.15 Q35.2 34.0 33.05 30.85 L32.55 30.1 32.2 29.65 30.15 26.4 28.75 20.9 27.05 12.85 26.85 11.9 25.7 5.1 25.7 4.15 26.2 4.65 30.1 8.5 34.45 12.85 36.1 14.55 39.9 18.5 M15.05 21.2 L16.25 19.8 16.8 19.1 18.55 25.1 17.65 24.45 17.2 23.9 17.2 23.95 17.35 24.3 16.6 23.25 15.05 21.2 M27.9 29.35 L27.35 29.35 26.5 29.5 25.6 29.6 25.6 31.1 26.45 33.5 26.45 33.65 25.45 32.6 24.95 31.95 24.35 30.2 24.55 30.1 25.0 29.9 25.3 29.7 26.85 28.7 27.9 29.35" fill="#e51f20" fill-rule="evenodd" stroke="none"/>
      <path d="M11.6 25.75 L9.75 28.5 8.75 30.1 Q4.95 36.4 4.5 40.8 1.2 37.0 -1.4 32.1 L-1.4 26.65 -1.0 27.6 -0.45 28.9 Q2.05 34.5 3.95 35.95 7.35 29.0 11.6 25.75" fill="#5d2c41" fill-rule="evenodd" stroke="none"/>
      <path d="M53.45 -0.5 L55.4 -0.5 54.55 4.65 54.35 5.8 54.25 4.65 53.45 -0.5 M54.9 13.35 L55.05 13.1 55.15 12.85 55.65 11.95 55.7 11.85 55.7 11.9 55.7 12.85 55.7 13.85 55.75 15.45 55.8 17.55 Q54.85 20.95 52.75 25.35 L52.45 25.95 50.25 30.1 46.3 36.35 Q43.7 39.05 40.65 41.3 37.7 43.5 34.85 44.9 L33.8 45.4 33.75 43.65 34.65 43.2 Q39.8 40.55 40.85 39.8 L44.05 37.1 Q46.05 35.25 48.35 30.1 L48.55 29.75 50.95 24.4 53.55 19.05 53.7 18.3 53.95 14.75 54.25 14.3 54.9 13.35" fill="#9272a1" fill-rule="evenodd" stroke="none"/>
      <path d="M-1.4 14.75 L-1.4 10.75 0.75 12.7 0.8 12.85 0.9 13.95 -1.4 14.75" fill="#b28c7f" fill-rule="evenodd" stroke="none"/>
      <path d="M51.6 -0.5 L53.45 -0.5 54.25 4.65 54.35 5.8 54.85 12.85 54.85 12.9 54.9 13.35 54.25 14.3 53.95 14.75 52.55 16.45 52.35 12.85 51.9 4.65 51.6 -0.5" fill="#dbcbd4" fill-rule="evenodd" stroke="none"/>
      <path d="M37.8 -0.5 L40.95 -0.5 40.5 0.35 39.8 1.8 39.35 2.85 38.55 4.65 37.15 8.0 38.25 9.85 40.35 12.85 40.95 13.6 41.0 13.65 41.95 14.8 42.2 15.15 Q45.5 20.6 46.3 20.6 L46.7 20.5 46.75 20.5 48.15 12.85 48.55 10.0 48.95 6.7 49.15 4.65 49.65 -0.5 51.6 -0.5 51.9 4.65 52.35 12.85 52.55 16.45 49.55 19.55 46.5 22.2 46.35 22.35 45.9 22.7 42.8 18.7 42.15 17.85 38.05 12.85 36.2 10.7 35.3 9.65 32.0 5.9 33.05 4.75 33.1 4.65 36.6 0.8 37.8 -0.5" fill="#bd9d90" fill-rule="evenodd" stroke="none"/>
      <path d="M40.95 -0.5 L41.65 -0.5 40.1 1.4 39.8 1.8 40.5 0.35 40.95 -0.5 M47.55 -0.5 L49.65 -0.5 49.15 4.65 48.95 6.7 48.55 10.0 48.15 12.85 46.75 20.5 46.7 20.5 46.9 18.7 47.4 12.85 47.6 9.2 47.7 4.65 47.7 4.35 47.55 -0.5 M-1.4 6.3 L-1.4 -0.5 -1.15 -0.5 -0.25 4.65 -0.2 4.85 0.05 6.75 0.25 8.3 -0.75 7.1 -1.4 6.3 M20.45 23.35 Q20.8 23.25 21.5 23.8 22.2 24.3 22.15 24.65 L22.15 24.75 21.9 24.8 Q21.45 24.8 20.95 24.25 L20.45 23.35" fill="#ffffff" fill-rule="evenodd" stroke="none"/>
      <path d="M41.65 -0.5 L47.55 -0.5 47.7 4.35 47.7 4.65 47.6 9.2 47.4 12.85 46.9 18.7 46.7 20.5 46.3 20.6 Q45.5 20.6 42.2 15.15 L41.95 14.8 41.0 13.65 40.95 13.6 40.35 12.85 38.25 9.85 37.15 8.0 38.55 4.65 39.35 2.85 39.8 1.8 40.1 1.4 41.65 -0.5 M-1.4 10.75 L-1.4 6.3 -0.75 7.1 0.25 8.3 0.75 12.7 -1.4 10.75" fill="#eeebea" fill-rule="evenodd" stroke="none"/>
      <path d="M6.2 -0.5 L9.55 -0.5 9.95 1.45 10.15 2.4 10.65 4.65 12.25 11.7 Q14.2 11.35 16.05 10.5 L16.15 10.5 17.7 12.85 18.55 14.15 24.3 22.7 25.35 24.25 26.4 25.85 27.75 28.0 28.1 28.55 28.15 28.6 28.6 29.35 28.75 29.8 28.5 29.35 28.05 28.75 28.0 28.65 27.65 28.2 26.35 26.45 26.15 26.25 25.65 25.55 23.9 23.3 23.15 22.35 21.1 19.85 19.5 17.95 18.65 17.0 17.7 15.95 15.5 13.6 14.8 12.85 14.5 12.6 14.05 12.85 11.25 14.45 7.8 16.45 7.45 12.85 6.65 4.65 6.55 3.9 6.3 1.0 6.2 -0.2 6.2 -0.5" fill="#9179ab" fill-rule="evenodd" stroke="none"/>
      <path d="M18.65 17.0 L19.5 17.95 21.1 19.85 23.15 22.35 23.9 23.3 25.65 25.55 26.15 26.25 26.35 26.45 27.65 28.2 28.0 28.65 28.05 28.75 28.5 29.35 28.75 29.8 28.85 29.8 29.05 30.1 27.9 29.35 26.85 28.7 25.3 29.7 25.0 29.9 24.55 30.1 24.35 30.2 24.95 31.95 25.15 32.45 24.0 31.5 22.4 30.1 21.1 28.95 20.85 28.7 18.2 26.4 17.35 24.3 17.2 23.95 17.2 23.9 17.65 24.45 18.55 25.1 16.8 19.1 16.95 18.95 18.65 17.0 M21.95 22.7 L20.6 21.25 19.65 20.15 19.45 22.6 Q19.7 26.1 20.7 27.55 L21.4 28.4 22.75 29.55 23.05 29.4 23.3 29.3 24.15 28.95 24.95 28.3 25.85 28.4 25.8 28.15 25.7 27.5 25.55 27.2 24.95 26.3 23.35 24.3 22.5 23.3 22.2 22.95 21.95 22.7" fill="#2a0904" fill-rule="evenodd" stroke="none"/>
      <path d="M33.1 38.45 L30.3 40.7 24.45 34.25 24.2 33.95 20.6 30.1 15.55 24.95 15.55 26.3 15.6 28.7 15.6 29.1 14.7 27.9 14.6 29.75 14.0 30.1 13.3 30.6 12.8 30.95 12.65 30.1 11.8 25.6 11.75 25.55 13.55 23.1 15.05 21.2 16.6 23.25 17.35 24.3 18.2 26.4 20.85 28.7 21.1 28.95 22.4 30.1 24.0 31.5 25.15 32.45 24.95 31.95 25.45 32.6 26.45 33.65 26.45 33.5 25.6 31.1 25.6 29.6 26.5 29.5 27.35 29.35 27.9 29.35 29.05 30.1 29.35 30.5 32.5 35.05 33.1 38.45" fill="#bda1a6" fill-rule="evenodd" stroke="none"/>
      <path d="M30.3 40.7 L28.9 41.75 28.4 42.1 Q26.3 43.65 22.65 45.05 L18.25 40.4 17.35 38.15 15.7 33.7 15.75 33.65 16.2 33.45 22.4 37.7 22.35 37.6 18.05 32.15 16.4 30.1 15.6 29.1 15.6 28.7 15.55 26.3 15.55 24.95 20.6 30.1 24.2 33.95 24.45 34.25 30.3 40.7" fill="#f9f2f9" fill-rule="evenodd" stroke="none"/>
      <path d="M20.6 21.25 L20.5 21.8 20.35 22.55 Q20.7 22.5 21.25 22.8 L21.8 23.15 21.95 22.7 22.2 22.95 22.5 23.3 22.35 23.5 22.3 23.55 Q22.75 24.0 22.75 24.55 L22.75 25.0 22.1 25.45 Q22.15 26.0 22.35 26.35 22.65 26.9 23.35 26.9 L24.7 26.45 24.95 26.3 25.55 27.2 24.7 27.55 23.1 27.6 22.05 27.0 21.8 26.55 Q21.55 26.05 21.45 25.4 L20.35 24.6 20.2 24.45 Q20.4 26.45 21.6 27.9 L21.85 28.15 Q22.5 28.9 23.3 29.3 L23.05 29.4 22.75 29.55 21.4 28.4 20.7 27.55 Q19.7 26.1 19.45 22.6 L19.65 20.15 20.6 21.25 M20.45 23.35 L20.95 24.25 Q21.45 24.8 21.9 24.8 L22.15 24.75 22.15 24.65 Q22.2 24.3 21.5 23.8 20.8 23.25 20.45 23.35" fill="#fda702" fill-rule="evenodd" stroke="none"/>
      <path d="M21.95 22.7 L21.8 23.15 21.25 22.8 Q20.7 22.5 20.35 22.55 L20.5 21.8 20.6 21.25 21.95 22.7 M23.3 29.3 Q22.5 28.9 21.85 28.15 L21.6 27.9 Q20.4 26.45 20.2 24.45 L20.35 24.6 21.45 25.4 Q21.55 26.05 21.8 26.55 L22.05 27.0 23.1 27.6 24.7 27.55 25.55 27.2 25.7 27.5 25.8 28.15 25.85 28.4 24.95 28.3 24.15 28.95 23.3 29.3 M24.95 26.3 L24.7 26.45 23.35 26.9 Q22.65 26.9 22.35 26.35 22.15 26.0 22.1 25.45 L22.75 25.0 22.75 24.55 Q22.75 24.0 22.3 23.55 L22.35 23.5 22.5 23.3 23.35 24.3 24.95 26.3" fill="#fdfc02" fill-rule="evenodd" stroke="none"/>
      <path d="M18.25 40.4 L16.15 38.15 15.5 36.35 Q15.2 35.4 15.2 34.65 15.2 33.95 15.7 33.7 L17.35 38.15 18.25 40.4" fill="#c8adb2" fill-rule="evenodd" stroke="none"/>
      <path d="M6.2 -0.5 L6.2 -0.2 6.3 1.0 6.55 3.9 6.65 4.65 7.45 12.85 7.8 16.45 11.25 14.45 14.05 12.85 14.5 12.6 14.8 12.85 15.5 13.6 17.7 15.95 18.65 17.0 19.5 17.95 21.1 19.85 23.15 22.35 23.9 23.3 25.65 25.55 26.15 26.25 26.35 26.45 27.65 28.2 28.0 28.65 28.05 28.75 28.5 29.35 28.75 29.8 28.85 29.8 29.05 30.1 29.35 30.5 32.5 35.05 33.1 38.45 33.3 39.65 33.75 43.65 33.8 45.4 34.85 44.9 Q37.7 43.5 40.65 41.3 43.7 39.05 46.3 36.35 L50.25 30.1 52.45 25.95 52.75 25.35 Q54.85 20.95 55.8 17.55 L55.75 15.45 55.7 13.85 55.7 12.85 55.7 11.9 55.7 11.85 55.65 11.95 55.15 12.85 55.05 13.1 54.9 13.35 54.25 14.3 53.95 14.75 52.55 16.45 49.55 19.55 46.5 22.2 46.35 22.35 45.9 22.7 42.8 18.7 42.15 17.85 38.05 12.85 36.2 10.7 35.3 9.65 32.0 5.9 30.85 4.65 29.5 3.15 27.95 1.45 26.45 -0.2 26.2 -0.5 M11.75 25.55 L11.6 25.75 9.75 28.5 8.75 30.1 Q4.95 36.4 4.5 40.8 1.2 37.0 -1.4 32.1 M15.05 21.2 L13.55 23.1 11.75 25.55 M16.8 19.1 L16.25 19.8 15.05 21.2 M16.8 19.1 L16.95 18.95 18.65 17.0" fill="none" stroke="#43000b" stroke-linecap="round" stroke-linejoin="round" stroke-width="1.0"/>
      <path d="M54.35 5.8 L54.85 12.85 54.85 12.9 54.9 13.35 M33.1 38.45 L30.3 40.7 28.9 41.75 28.4 42.1 Q26.3 43.65 22.65 45.05 L18.25 40.4 16.15 38.15 13.75 35.6 13.05 32.2 12.8 30.95 12.65 30.1 11.8 25.6 11.75 25.55 M32.0 5.9 L33.05 4.75 33.1 4.65 36.6 0.8 37.8 -0.5 M-1.15 -0.5 L-0.25 4.65 -0.2 4.85 0.05 6.75 0.25 8.3 0.75 12.7 0.8 12.85 0.9 13.95 -1.4 14.75" fill="none" stroke="#745654" stroke-linecap="round" stroke-linejoin="round" stroke-width="1.0"/>
      <path d="M55.4 -0.5 L54.55 4.65 54.35 5.8" fill="none" stroke="#33030b" stroke-linecap="round" stroke-linejoin="round" stroke-width="1.0"/>
      <path d="M54.35 5.8 L54.25 4.65 53.45 -0.5" fill="none" stroke="#80615f" stroke-linecap="round" stroke-linejoin="round" stroke-width="1.0"/>
    </g>
    <g id="shape2" transform="matrix(1.0, 0.0, 0.0, 1.0, 0.0, 0.0)">
      <path d="M50.5 0.0 Q53.95 0.0 53.95 3.3 L53.95 50.15 Q53.95 53.4 50.5 53.4 L3.3 53.4 Q0.0 53.4 0.0 50.15 L0.0 3.3 Q0.0 0.0 3.3 0.0 L50.5 0.0" fill="#000000" fill-opacity="0.003921569" fill-rule="evenodd" stroke="none"/>
    </g>
  </defs>
</svg>
