<?xml version="1.0" encoding="UTF-8" standalone="no"?>
<svg xmlns:ffdec="https://www.free-decompiler.com/flash" xmlns:xlink="http://www.w3.org/1999/xlink" ffdec:objectType="frame" height="64.6px" width="70.25px" xmlns="http://www.w3.org/2000/svg">
  <g transform="matrix(1.0, 0.0, 0.0, 1.0, 11.0, 7.25)">
    <clipPath id="clipPath0" transform="matrix(1.0, 0.0, 0.0, 1.0, 0.0, 0.0)">
      <path d="M50.5 0.0 Q53.95 0.0 53.95 3.3 L53.95 50.15 Q53.95 53.4 50.5 53.4 L3.3 53.4 Q0.0 53.4 0.0 50.15 L0.0 3.3 Q0.0 0.0 3.3 0.0 L50.5 0.0" fill="#000000" fill-rule="evenodd" stroke="none"/>
    </clipPath>
    <g clip-path="url(#clipPath0)">
      <use ffdec:characterId="5" height="64.6" transform="matrix(1.0, 0.0, 0.0, 1.0, -11.0, -7.25)" width="70.25" xlink:href="#shape1"/>
    </g>
    <use ffdec:characterId="6" height="53.4" transform="matrix(1.0, 0.0, 0.0, 1.0, 0.0, 0.0)" width="53.95" xlink:href="#shape2"/>
  </g>
  <defs>
    <g id="shape1" transform="matrix(1.0, 0.0, 0.0, 1.0, 11.0, 7.25)">
      <path d="M35.85 -5.25 L36.1 -5.25 36.3 -2.9 36.3 -2.25 36.2 -2.35 36.05 -2.5 36.05 -2.9 35.85 -5.25" fill="#b275ec" fill-rule="evenodd" stroke="none"/>
      <path d="M56.75 -5.25 L56.95 -5.25 56.75 -4.7 56.75 -5.25" fill="#455787" fill-rule="evenodd" stroke="none"/>
      <path d="M45.6 -5.25 L56.75 -5.25 56.75 -4.7 56.75 -2.9 56.75 -1.45 56.7 -0.45 56.15 6.8 55.95 9.75 55.7 11.95 55.65 12.65 55.4 13.1 54.6 15.45 54.1 18.0 54.25 20.7 54.0 21.85 Q53.35 24.2 50.05 24.1 L49.3 24.0 Q48.5 23.85 48.15 23.2 47.5 22.05 47.55 18.7 47.65 15.25 48.65 13.1 L49.7 11.55 Q49.75 9.75 48.9 7.0 L48.75 6.7 48.75 3.45 48.5 3.7 47.7 4.45 46.9 3.65 Q46.85 1.35 46.4 -1.25 L46.4 -1.45 46.15 -2.9 45.6 -5.25" fill="#4a809a" fill-rule="evenodd" stroke="none"/>
      <path d="M19.4 1.2 L14.5 -1.45 11.45 -2.9 9.15 -3.95 7.8 -4.55 7.8 -5.25 19.4 -5.25 19.4 -2.9 19.4 -2.4 19.45 -1.45 19.4 1.2 M25.4 -5.25 L27.85 -5.25 27.85 -5.2 28.75 -2.9 29.3 -1.45 30.85 3.25 29.05 3.1 28.7 3.1 27.0 -1.45 26.4 -2.9 25.85 -4.2 25.4 -5.25" fill="url(#gradient0)" fill-rule="evenodd" stroke="none"/>
      <path d="M20.45 1.75 L19.4 1.2 19.45 -1.45 19.4 -2.4 19.4 -2.9 19.4 -5.25 25.4 -5.25 25.85 -4.2 26.4 -2.9 27.0 -1.45 28.7 3.1 27.15 3.15 23.05 3.35 22.15 2.8 21.15 2.15 20.45 1.75 M30.85 3.25 L29.3 -1.45 28.75 -2.9 27.85 -5.2 27.85 -5.25 32.7 -5.25 32.7 -4.9 32.75 -2.9 32.75 -1.45 32.75 -1.4 32.75 -1.3 32.45 3.4 31.6 3.25 30.85 3.25 M33.9 -5.25 L35.85 -5.25 36.05 -2.9 36.05 -2.5 35.75 -2.9 34.55 -4.45 33.9 -5.25" fill="url(#gradient1)" fill-rule="evenodd" stroke="none"/>
      <path d="M7.8 -4.55 L6.25 -5.25 7.8 -5.25 7.8 -4.55" fill="url(#gradient2)" fill-rule="evenodd" stroke="none"/>
      <path d="M57.25 51.1 L57.25 53.05 54.1 51.6 52.45 50.95 51.45 50.6 Q49.6 49.9 46.75 48.95 L42.7 47.55 42.65 47.55 39.95 46.65 38.05 46.05 39.95 46.4 42.4 46.95 43.05 47.1 47.45 48.2 48.3 48.4 49.9 48.85 51.95 49.4 52.5 49.55 54.35 50.15 54.4 50.15 57.25 51.1 M50.85 55.35 L46.3 55.35 Q46.05 54.2 45.5 53.5 44.75 52.7 43.05 51.85 L41.35 51.2 41.9 52.35 42.35 53.25 42.4 53.35 Q42.75 53.8 44.85 54.95 L45.45 55.35 20.1 55.35 19.75 54.8 Q19.05 53.6 18.75 52.15 18.3 50.35 18.35 48.25 18.35 47.8 18.75 47.5 L18.9 47.6 Q21.75 48.65 24.15 49.8 L26.75 51.05 Q30.1 52.75 32.65 54.6 L32.65 53.25 Q30.9 50.8 28.3 49.0 L26.85 48.1 24.35 46.7 26.6 46.7 27.25 46.7 29.85 46.8 36.45 47.4 36.5 50.3 Q36.45 53.45 37.95 54.5 L38.15 54.5 38.15 53.5 38.5 47.8 39.7 47.95 39.8 47.95 40.75 48.25 40.75 48.4 43.6 50.3 47.8 53.05 50.85 55.35 M4.4 55.35 L3.1 55.35 3.7 54.55 4.7 53.15 5.05 52.7 5.2 52.5 5.05 53.85 5.35 54.25 5.25 54.35 4.4 55.35 M2.7 55.35 L1.6 55.35 0.4 54.45 -0.25 53.95 -0.65 54.0 -2.05 54.2 -3.4 53.4 -4.4 52.9 -3.55 52.85 -0.3 52.45 2.55 55.2 2.7 55.35 M-9.0 5.65 L-9.0 4.3 -6.15 8.35 -4.9 10.15 -3.65 12.0 -2.85 13.25 Q-3.45 12.35 -4.2 11.55 L-5.5 9.9 -7.25 7.8 -8.45 6.3 -9.0 5.65 M40.85 15.4 L40.9 14.9 41.15 15.35 40.85 15.4" fill="#5de6ec" fill-rule="evenodd" stroke="none"/>
      <path d="M56.95 -5.25 L57.25 -5.25 57.25 7.1 57.2 7.35 57.05 8.4 56.65 10.35 55.65 12.65 55.7 11.95 55.95 9.75 56.15 6.8 56.7 -0.45 56.75 -1.45 56.75 -2.9 56.75 -4.7 56.95 -5.25 M-9.0 7.45 L-9.0 5.65 -8.45 6.3 -7.25 7.8 -5.5 9.9 -4.2 11.55 -5.15 10.65 -5.55 10.3 -9.0 7.45 M47.15 16.3 L47.75 14.25 48.2 12.35 48.2 12.3 48.75 8.0 48.75 7.35 48.75 6.7 48.9 7.0 Q49.75 9.75 49.7 11.55 L48.65 13.1 Q47.65 15.25 47.55 18.7 L46.95 18.8 46.3 18.9 46.0 19.0 46.75 17.25 47.05 16.55 47.15 16.3 M47.7 4.45 L47.4 4.75 46.85 5.3 46.9 4.6 46.9 3.65 47.7 4.45 M47.55 18.7 Q47.5 22.05 48.15 23.2 48.5 23.85 49.3 24.0 L50.05 24.1 Q53.35 24.2 54.0 21.85 L54.25 20.7 54.5 24.75 53.4 28.5 53.15 29.25 52.25 32.05 51.55 33.85 51.45 34.15 Q48.15 43.2 45.6 45.5 45.45 45.5 45.45 45.0 44.7 45.15 43.05 47.1 L42.4 46.95 42.4 46.7 Q42.4 46.35 43.3 45.4 L45.15 43.1 45.85 41.95 Q47.95 38.4 48.05 33.4 L48.0 32.4 Q47.8 29.6 46.05 26.1 L45.6 25.25 45.35 24.8 44.9 24.0 46.05 22.0 46.85 20.25 47.55 18.7" fill="#4eacac" fill-rule="evenodd" stroke="none"/>
      <path d="M-9.0 24.15 L-9.0 11.0 -8.95 9.95 -9.0 9.75 -9.0 7.5 -7.6 9.9 Q-5.2 14.5 -5.25 17.75 L-5.3 18.3 Q-5.5 20.8 -6.9 22.55 L-7.0 22.65 Q-7.95 23.8 -9.0 24.15 M46.05 26.1 Q47.8 29.6 48.0 32.4 47.35 38.85 43.2 38.75 L42.55 38.65 42.75 38.2 42.9 37.6 43.35 35.8 43.45 35.05 43.7 33.05 43.7 32.0 43.7 30.75 42.75 28.55 43.25 28.05 Q44.1 27.05 44.85 26.55 45.5 26.15 46.05 26.1 M41.8 38.35 L42.4 38.55 42.55 38.65 41.8 38.35" fill="#57eabd" fill-rule="evenodd" stroke="none"/>
      <path d="M-1.3 -5.25 L0.25 -2.9 1.2 -1.45 4.9 3.35 5.55 4.2 7.55 6.55 8.1 7.1 9.6 8.7 16.9 7.0 19.3 6.3 Q20.9 5.6 20.95 5.0 20.95 4.35 20.1 3.15 L19.75 2.7 19.4 2.15 19.1 1.8 20.15 1.8 20.8 2.05 21.6 2.8 22.75 3.7 22.95 3.85 21.5 3.8 21.5 3.95 23.95 6.15 Q22.65 5.45 19.25 6.75 L18.35 7.1 18.3 7.1 17.8 7.3 Q13.3 9.25 13.2 10.85 13.2 11.3 14.95 12.95 L15.6 13.65 18.2 15.15 29.3 21.7 25.5 20.35 18.9 18.1 17.65 17.65 14.5 16.6 7.35 8.6 6.3 7.3 6.25 7.2 5.4 6.05 4.3 4.6 3.8 3.85 Q2.15 1.45 0.6 -1.45 L-0.15 -2.9 -1.3 -5.25 M-2.65 -5.25 L-2.35 -2.9 -2.3 -2.5 -2.65 -2.9 -3.55 -3.95 -3.75 -3.95 -3.5 -2.9 -3.5 -2.85 -3.5 -2.9 -4.2 -5.25 -2.65 -5.25 M39.15 1.9 L39.4 -1.45 39.5 -2.9 39.5 -3.1 39.7 -5.25 41.85 -5.25 41.55 -2.9 41.5 -2.8 41.5 -2.6 41.35 -1.45 Q40.85 2.2 40.7 4.3 L39.15 1.9 M44.05 -5.25 L45.6 -5.25 46.15 -2.9 46.4 -1.45 46.4 -1.25 Q46.85 1.35 46.9 3.65 L46.9 4.6 46.85 5.3 47.4 4.75 47.7 4.45 48.5 3.7 48.75 3.45 48.75 6.7 48.75 7.35 48.75 8.0 48.2 12.3 48.2 12.35 47.75 14.25 47.15 16.3 47.3 12.05 47.4 10.6 47.4 9.05 47.6 7.55 47.65 6.8 47.5 7.5 47.4 7.75 47.3 6.6 45.9 8.15 45.65 3.4 44.95 -1.45 44.9 -1.65 44.65 -2.9 44.65 -2.95 44.05 -5.25 M-9.0 -0.25 L-9.0 -1.05 -8.6 0.45 -9.0 -0.25 M-9.0 -1.45 L-9.0 -2.4 -8.7 -1.45 -8.7 -1.35 -8.65 -1.25 -8.95 -1.45 -9.0 -1.45 M35.25 9.15 L35.95 11.75 37.05 16.2 37.0 17.05 37.0 17.4 33.75 16.7 32.55 16.55 30.9 16.4 32.0 13.9 33.0 11.95 33.85 10.2 34.5 8.95 34.6 8.75 34.95 8.1 35.15 8.85 35.25 9.15 M15.2 31.5 L15.15 31.45 11.5 27.6 9.9 25.7 12.0 27.8 15.5 30.95 15.55 31.0 15.2 31.5 M31.3 29.2 L31.9 30.25 31.4 31.75 30.2 33.35 28.95 34.5 25.95 32.55 25.4 32.2 25.0 31.85 23.75 30.15 25.0 30.55 24.8 30.3 24.75 30.15 Q24.8 29.55 27.05 29.2 L28.8 29.1 29.6 29.1 29.85 29.1 30.1 29.1 31.3 29.2 M22.95 26.15 L22.85 25.85 22.9 25.65 23.25 25.65 24.1 25.8 24.1 25.85 24.75 26.4 24.75 27.05 24.45 27.05 Q24.1 27.05 23.5 26.65 L23.15 26.35 22.95 26.15 M27.25 27.5 L27.3 27.75 27.3 27.9 26.6 27.9 26.55 27.85 26.45 27.25 26.45 27.15 Q27.15 27.1 27.25 27.5 M23.35 31.1 L23.15 31.0 23.05 30.75 23.35 31.1" fill="#ffffff" fill-rule="evenodd" stroke="none"/>
      <path d="M35.8 30.75 L39.45 24.45 40.65 22.3 41.6 20.5 41.85 20.0 Q42.85 17.85 43.45 15.65 L43.45 15.4 41.95 10.95 40.95 8.5 40.1 6.55 Q38.3 2.5 36.3 -1.05 L36.1 -1.4 36.1 -1.45 35.25 -2.9 33.75 -5.25 33.9 -5.25 34.55 -4.45 35.75 -2.9 36.05 -2.5 36.2 -2.35 36.3 -2.25 36.9 -1.45 39.15 1.9 40.7 4.3 Q40.85 2.2 41.35 -1.45 L41.5 -2.6 41.5 -2.8 41.55 -2.9 41.85 -5.25 44.05 -5.25 44.65 -2.95 44.65 -2.9 44.9 -1.65 44.95 -1.45 45.65 3.4 45.9 8.15 47.3 6.6 47.4 7.75 46.15 11.3 46.05 11.35 45.95 11.5 45.9 8.6 45.65 6.75 44.75 3.7 44.25 2.45 Q44.0 2.8 43.75 4.3 L43.75 4.55 43.55 6.05 43.65 6.65 42.75 6.6 41.9 6.45 42.55 7.75 43.9 10.9 44.0 11.05 44.25 11.9 45.0 14.45 45.0 14.6 44.55 15.65 44.45 16.0 Q43.55 18.55 42.3 20.95 L41.7 21.95 41.3 22.6 40.65 23.65 42.1 26.9 42.2 27.15 42.55 28.05 42.6 28.15 42.65 28.2 42.75 28.55 43.7 30.75 43.7 32.0 43.7 33.05 43.45 35.05 43.35 35.8 42.9 37.6 42.7 35.4 42.4 31.65 41.7 30.05 40.8 27.9 40.75 27.8 39.6 25.2 39.15 26.0 38.15 27.45 37.3 28.75 36.7 29.55 35.85 30.85 35.8 30.75 M-9.0 4.3 L-9.0 -0.25 -8.6 0.45 -7.4 4.5 -6.15 8.35 -9.0 4.3 M-9.0 -2.4 L-9.0 -5.25 -4.2 -5.25 -3.5 -2.9 -3.5 -2.85 -3.15 -1.45 -3.1 -1.05 -1.5 4.6 -0.95 6.25 -0.4 7.7 -0.15 8.25 0.0 8.55 -0.25 8.25 -0.7 7.75 -1.7 6.55 -4.2 3.55 Q-6.95 0.35 -8.65 -1.25 L-8.7 -1.35 -8.7 -1.45 -9.0 -2.4 M47.4 9.05 L47.4 10.6 47.3 12.05 47.15 16.3 47.05 16.55 46.75 17.25 46.0 19.0 46.3 18.9 46.95 18.8 47.55 18.7 46.85 20.25 46.05 22.0 44.9 24.0 44.35 24.9 43.7 25.65 44.6 23.6 45.2 22.15 45.75 20.35 44.7 20.7 45.75 16.7 46.85 11.9 47.4 9.05 M40.7 4.3 L41.2 5.2 41.3 5.4 41.5 5.75 41.9 6.45 41.5 5.75 41.3 5.4 41.2 5.2 40.7 4.3 M40.65 23.65 L39.6 25.2 40.65 23.65" fill="#62fbf8" fill-rule="evenodd" stroke="none"/>
      <path d="M-1.3 -5.25 L-0.15 -2.9 0.6 -1.45 Q2.15 1.45 3.8 3.85 L4.3 4.6 5.4 6.05 6.0 7.1 6.0 7.15 6.1 7.25 7.25 9.25 Q9.95 13.7 12.35 17.15 L16.25 18.35 17.4 18.75 25.0 21.15 28.6 22.3 31.1 23.2 31.5 23.35 32.8 23.75 34.15 24.3 36.8 25.25 37.75 25.8 37.85 25.65 39.15 23.95 39.6 23.25 39.9 22.95 40.05 22.65 41.5 20.5 41.85 20.0 41.6 20.5 40.65 22.3 39.45 24.45 35.8 30.75 31.15 26.8 31.05 26.7 30.45 26.25 30.3 26.15 29.3 25.35 28.7 25.3 27.9 24.75 25.25 24.45 23.55 24.55 21.95 24.7 19.8 24.9 20.35 25.35 20.2 25.35 18.35 25.65 16.8 23.95 16.3 23.4 15.05 21.95 15.25 21.95 14.75 21.65 12.6 20.4 10.05 19.0 7.2 17.5 7.05 17.35 7.2 17.5 10.05 19.0 12.6 20.4 Q9.4 19.1 4.7 17.65 5.75 19.85 7.3 22.2 L7.45 22.5 7.9 23.35 8.25 24.1 8.7 24.8 8.8 24.95 10.2 27.35 12.7 31.0 14.5 32.5 14.55 32.55 13.25 34.65 12.9 35.25 12.85 35.2 9.15 31.6 7.55 29.8 7.25 29.35 5.4 26.8 5.1 26.15 4.75 25.55 4.5 25.15 4.15 24.35 3.6 23.3 3.15 22.2 3.0 21.85 Q1.95 19.15 1.5 16.7 L1.2 14.15 5.3 16.4 7.05 17.35 6.3 16.3 6.05 15.95 Q3.25 11.75 1.35 8.0 L1.15 7.55 0.35 5.75 -1.3 1.55 -2.05 -1.45 -2.3 -2.5 -2.35 -2.9 -2.65 -5.25 -1.3 -5.25 M22.95 3.85 L22.75 3.7 21.6 2.8 20.8 2.05 20.45 1.75 21.15 2.15 22.15 2.8 23.05 3.35 27.15 3.15 28.7 3.1 29.05 3.1 30.85 3.25 31.6 3.25 32.45 3.4 32.75 -1.3 34.6 3.45 34.8 4.0 35.55 5.9 35.35 5.9 34.25 5.25 31.5 4.65 31.25 4.65 29.2 4.55 28.3 4.5 25.55 4.6 25.65 4.9 26.15 6.1 26.4 6.65 22.95 3.85 M38.85 32.35 L40.6 35.3 41.05 36.05 42.4 38.55 41.8 38.35 38.8 36.75 38.1 36.35 38.0 36.25 36.9 35.35 37.0 35.2 37.3 34.85 38.85 32.35" fill="#5c72e9" fill-rule="evenodd" stroke="none"/>
      <path d="M20.8 2.05 L20.15 1.8 19.1 1.8 19.4 2.15 19.75 2.7 20.1 3.15 Q20.95 4.35 20.95 5.0 20.9 5.6 19.3 6.3 L16.9 7.0 9.6 8.7 8.1 7.1 7.55 6.55 5.55 4.2 4.9 3.35 1.2 -1.45 0.25 -2.9 -1.3 -5.25 6.25 -5.25 7.8 -4.55 9.15 -3.95 11.45 -2.9 14.5 -1.45 19.4 1.2 20.45 1.75 20.8 2.05 M29.3 21.7 L18.2 15.15 15.6 13.65 14.95 12.95 Q13.2 11.3 13.2 10.85 13.3 9.25 17.8 7.3 L18.3 7.1 18.35 7.1 19.25 6.75 Q22.65 5.45 23.95 6.15 L21.5 3.95 21.5 3.8 22.95 3.85 26.4 6.65 26.15 6.1 25.65 4.9 25.55 4.6 28.3 4.5 29.2 4.55 31.25 4.65 31.5 4.65 34.25 5.25 35.35 5.9 35.55 5.9 34.8 4.0 34.6 3.45 32.75 -1.3 32.75 -1.4 32.75 -1.45 32.75 -2.9 32.7 -4.9 32.7 -5.25 33.75 -5.25 35.25 -2.9 36.1 -1.45 36.1 -1.4 36.3 -1.05 Q38.3 2.5 40.1 6.55 L40.95 8.5 41.95 10.95 43.45 15.4 43.45 15.65 Q42.85 17.85 41.85 20.0 L41.5 20.5 40.05 22.65 39.9 22.95 39.6 23.25 39.15 23.95 37.85 25.65 36.8 25.25 34.4 23.95 Q33.6 23.55 32.65 23.1 L32.55 23.05 31.8 22.75 30.1 22.05 29.3 21.7 M40.85 15.4 L41.15 15.35 40.9 14.9 39.95 13.1 38.45 10.65 38.4 10.65 37.65 9.6 37.3 9.25 35.35 7.4 34.65 6.9 34.4 6.75 33.4 8.55 33.25 8.75 32.55 10.1 31.55 12.2 31.0 13.3 29.6 16.55 31.15 17.95 33.05 19.5 34.15 20.35 34.3 20.5 34.45 20.55 35.1 21.05 36.0 21.7 37.65 22.85 37.75 22.95 37.75 22.85 39.45 19.55 40.25 17.5 40.65 15.95 40.7 15.85 40.85 15.4" fill="url(#gradient3)" fill-rule="evenodd" stroke="none"/>
      <path d="M-2.3 -2.5 L-2.05 -1.45 -1.3 1.55 0.35 5.75 1.15 7.55 1.35 8.0 Q3.25 11.75 6.05 15.95 L6.3 16.3 7.05 17.35 5.3 16.4 1.2 14.15 1.5 16.7 Q1.95 19.15 3.0 21.85 L3.15 22.2 3.6 23.3 4.15 24.35 4.5 25.15 Q1.0 19.05 -2.85 13.25 L-3.65 12.0 -4.9 10.15 -6.15 8.35 -7.4 4.5 -8.6 0.45 -9.0 -1.05 -9.0 -1.45 -8.95 -1.45 -8.65 -1.25 Q-6.95 0.35 -4.2 3.55 L-1.7 6.55 -0.7 7.75 -0.25 8.25 0.0 8.55 -0.15 8.25 -0.4 7.7 -0.95 6.25 -1.5 4.6 -3.1 -1.05 -3.15 -1.45 -3.5 -2.85 -3.5 -2.9 -3.75 -3.95 -3.55 -3.95 -2.65 -2.9 -2.3 -2.5 M47.4 7.75 L47.5 7.5 47.65 6.8 47.6 7.55 47.4 9.05 46.85 11.9 45.75 16.7 44.7 20.7 45.75 20.35 45.2 22.15 44.6 23.6 43.7 25.65 42.1 26.9 40.65 23.65 41.3 22.6 41.7 21.95 42.3 20.95 Q43.55 18.55 44.45 16.0 L44.55 15.65 45.0 14.6 45.0 14.45 44.25 11.9 44.0 11.05 43.9 10.9 42.55 7.75 41.9 6.45 42.75 6.6 43.65 6.65 43.55 6.05 43.75 4.55 43.75 4.3 Q44.0 2.8 44.25 2.45 L44.75 3.7 45.65 6.75 45.9 8.6 45.95 11.5 46.05 11.35 46.15 11.3 47.4 7.75 M7.35 30.2 L5.4 26.8 7.25 29.35 7.55 29.8 7.35 30.2" fill="#49d5ca" fill-rule="evenodd" stroke="none"/>
      <path d="M57.25 44.3 L57.25 51.1 54.4 50.15 54.35 50.15 55.05 47.0 Q55.7 45.5 57.2 44.35 L57.25 44.3 M12.1 36.45 Q10.85 35.35 9.6 34.4 L9.05 33.35 7.35 30.2 7.55 29.8 9.15 31.6 12.85 35.2 12.3 36.25 12.25 36.3 12.1 36.45" fill="url(#gradient4)" fill-rule="evenodd" stroke="none"/>
      <path d="M40.25 17.5 L39.35 18.9 37.65 21.2 37.7 18.35 Q37.85 17.3 38.6 16.85 L38.65 16.85 Q39.45 16.3 39.85 15.25 L40.1 15.4 40.6 15.9 40.65 15.95 40.25 17.5" fill="#3aa9ad" fill-rule="evenodd" stroke="none"/>
      <path d="M57.25 27.0 L57.25 30.35 57.05 30.8 56.65 31.7 54.65 36.1 54.65 35.85 54.2 34.45 53.6 35.3 Q52.85 36.55 51.25 39.75 48.75 44.7 48.4 46.5 L49.65 46.5 Q50.0 47.2 50.0 48.1 L49.9 48.85 48.3 48.4 Q48.0 48.05 47.75 48.05 L47.45 48.2 43.05 47.1 Q44.7 45.15 45.45 45.0 45.45 45.5 45.6 45.5 48.15 43.2 51.45 34.15 L51.55 33.85 52.25 32.05 53.15 29.25 53.4 28.5 54.5 24.75 54.6 28.25 54.65 29.3 54.75 30.35 54.85 32.0 55.35 30.85 55.75 30.0 57.1 27.05 57.25 27.0 M1.6 55.35 L-2.95 55.35 -6.0 53.4 -3.4 53.4 -2.05 54.2 -0.65 54.0 -0.25 53.95 0.4 54.45 1.6 55.35" fill="#3ccbe2" fill-rule="evenodd" stroke="none"/>
      <path d="M57.2 7.35 L57.25 7.3 57.25 8.2 57.05 8.4 57.2 7.35 M57.25 19.05 L57.25 22.4 56.65 22.2 56.7 20.25 57.0 19.45 57.25 19.05 M57.25 24.45 L57.25 26.75 57.25 27.0 57.1 27.05 57.25 26.75 57.1 27.05 55.75 30.0 55.35 30.85 54.85 32.0 54.75 30.35 54.65 29.3 54.6 28.25 55.35 27.4 56.25 26.35 Q56.95 25.3 57.25 24.45" fill="#783c8a" fill-rule="evenodd" stroke="none"/>
      <path d="M57.25 8.2 L57.25 19.05 57.0 19.45 56.7 20.25 56.65 22.2 57.25 22.4 57.25 24.45 Q56.95 25.3 56.25 26.35 L55.35 27.4 54.6 28.25 54.5 24.75 54.25 20.7 54.1 18.0 54.6 15.45 55.4 13.1 55.65 12.65 56.65 10.35 57.05 8.4 57.25 8.2" fill="#441d4f" fill-rule="evenodd" stroke="none"/>
      <path d="M40.9 14.9 L40.85 15.4 40.7 15.85 40.65 15.95 40.6 15.9 40.1 15.4 39.85 15.25 Q39.45 16.3 38.65 16.85 L38.6 16.85 Q37.85 17.3 37.7 18.35 L37.65 21.2 39.35 18.9 40.25 17.5 39.45 19.55 37.75 22.85 37.75 22.95 37.65 22.85 36.0 21.7 35.1 21.05 34.45 20.55 34.3 20.5 34.15 20.35 33.05 19.5 31.15 17.95 29.6 16.55 31.0 13.3 31.55 12.2 32.55 10.1 33.25 8.75 33.4 8.55 34.4 6.75 34.65 6.9 35.35 7.4 37.3 9.25 37.65 9.6 38.4 10.65 38.45 10.65 39.95 13.1 40.9 14.9 M35.25 9.15 L35.15 8.85 34.95 8.1 34.6 8.75 34.5 8.95 33.85 10.2 33.0 11.95 32.0 13.9 30.9 16.4 32.55 16.55 33.75 16.7 37.0 17.4 37.0 17.05 37.05 16.2 35.95 11.75 35.25 9.15" fill="#60f7f2" fill-rule="evenodd" stroke="none"/>
      <path d="M57.25 30.35 L57.25 44.3 57.2 44.35 Q55.7 45.5 55.05 47.0 L54.35 50.15 52.5 49.55 51.95 49.4 49.9 48.85 50.0 48.1 Q50.0 47.2 49.65 46.5 L48.4 46.5 Q48.75 44.7 51.25 39.75 52.85 36.55 53.6 35.3 L54.2 34.45 54.65 35.85 54.65 36.1 56.65 31.7 57.05 30.8 57.25 30.35 M-2.95 55.35 L-9.0 55.35 -9.0 50.25 -4.4 52.9 -3.4 53.4 -6.0 53.4 -2.95 55.35 M47.45 48.2 L47.75 48.05 Q48.0 48.05 48.3 48.4 L47.45 48.2" fill="#66fbf9" fill-rule="evenodd" stroke="none"/>
      <path d="M-9.0 41.25 L-9.0 24.15 Q-7.95 23.8 -7.0 22.65 L-6.9 22.55 Q-5.5 20.8 -5.3 18.3 L-5.25 17.75 Q-5.2 14.5 -7.6 9.9 L-9.0 7.5 -9.0 7.45 -5.55 10.3 -5.15 10.65 -4.2 11.55 Q-3.45 12.35 -2.85 13.25 1.0 19.05 4.5 25.15 L4.75 25.55 5.1 26.15 5.4 26.8 7.35 30.2 9.05 33.35 8.6 33.1 6.3 32.05 Q4.7 31.35 3.5 31.0 L1.95 30.65 1.8 30.65 -1.35 30.55 -1.4 33.15 -1.4 33.75 Q-2.8 34.25 -4.2 36.1 L-4.65 36.8 Q-5.65 38.4 -5.85 39.65 -7.9 39.75 -9.0 41.25 M42.1 26.9 L43.7 25.65 44.35 24.9 44.9 24.0 45.35 24.8 45.6 25.25 46.05 26.1 Q45.5 26.15 44.85 26.55 44.1 27.05 43.25 28.05 L42.75 28.55 42.65 28.2 42.6 28.15 42.55 28.05 42.2 27.15 42.1 26.9 M36.9 35.35 L38.0 36.25 Q36.95 36.65 36.3 37.5 L36.05 37.9 35.95 37.0 35.95 36.65 36.15 36.4 36.9 35.35" fill="#50cfbe" fill-rule="evenodd" stroke="none"/>
      <path d="M5.4 6.05 L6.25 7.2 6.3 7.3 7.35 8.6 14.5 16.6 17.65 17.65 18.9 18.1 25.5 20.35 29.3 21.7 30.1 22.05 31.8 22.75 32.55 23.05 32.65 23.1 Q33.6 23.55 34.4 23.95 L36.8 25.25 34.15 24.3 32.8 23.75 31.5 23.35 31.1 23.2 28.6 22.3 25.0 21.15 17.4 18.75 16.25 18.35 12.35 17.15 Q9.95 13.7 7.25 9.25 L6.1 7.25 6.0 7.15 6.0 7.1 5.4 6.05 M39.6 25.2 L40.75 27.8 40.8 27.9 41.7 30.05 42.4 31.65 42.7 35.4 42.9 37.6 42.75 38.2 42.55 38.65 42.4 38.55 41.05 36.05 40.6 35.3 38.85 32.35 39.6 30.85 39.7 30.65 39.7 30.55 39.55 29.5 39.55 27.7 39.55 27.6 39.6 26.45 39.6 25.2 M14.55 32.55 L14.5 32.5 12.7 31.0 10.2 27.35 8.8 24.95 8.7 24.8 8.25 24.1 7.9 23.35 7.45 22.5 7.3 22.2 7.5 22.5 8.1 23.35 9.25 24.9 9.9 25.7 11.5 27.6 15.15 31.45 15.2 31.5 14.55 32.55" fill="#3f4eb6" fill-rule="evenodd" stroke="none"/>
      <path d="M48.0 32.4 L48.05 33.4 Q47.95 38.4 45.85 41.95 L45.05 42.4 Q42.75 43.55 41.15 43.45 39.85 43.45 38.5 42.15 L37.65 41.1 Q36.3 39.4 36.05 37.9 L36.3 37.5 Q36.95 36.65 38.0 36.25 L38.1 36.35 38.8 36.75 41.8 38.35 42.55 38.65 43.2 38.75 Q47.35 38.85 48.0 32.4 M38.7 47.0 L38.55 46.9 37.4 46.15 36.4 45.45 35.95 45.15 37.0 45.8 38.05 46.45 38.7 47.0" fill="#4badba" fill-rule="evenodd" stroke="none"/>
      <path d="M37.85 25.65 L37.75 25.8 36.8 25.25 37.85 25.65 M57.25 53.05 L57.25 55.35 53.2 55.35 51.35 53.5 50.15 52.55 43.75 49.7 41.05 48.3 40.85 48.2 40.2 47.8 38.7 47.0 38.05 46.45 37.0 45.8 37.35 45.85 38.05 46.05 37.35 45.85 37.0 45.8 35.95 45.15 35.65 44.95 34.3 44.0 33.3 42.2 32.95 41.6 32.8 41.45 32.35 40.6 32.7 40.65 33.05 40.7 35.3 37.5 35.95 36.65 35.95 37.0 36.05 37.9 Q36.3 39.4 37.65 41.1 L38.5 42.15 Q39.85 43.45 41.15 43.45 42.75 43.55 45.05 42.4 L45.85 41.95 45.15 43.1 43.3 45.4 Q42.4 46.35 42.4 46.7 L42.4 46.95 39.95 46.4 38.05 46.05 39.95 46.65 42.65 47.55 42.7 47.55 46.75 48.95 Q49.6 49.9 51.45 50.6 L52.45 50.95 54.1 51.6 57.25 53.05 M40.2 47.8 L39.95 47.65 38.05 46.45 39.95 47.65 40.2 47.8 M53.85 53.3 L54.25 53.6 54.85 53.95 55.25 53.9 55.3 53.65 54.85 53.3 54.0 52.95 53.85 53.2 53.85 53.3" fill="#48a0c8" fill-rule="evenodd" stroke="none"/>
      <path d="M20.35 25.35 L19.8 24.9 21.95 24.7 23.55 24.55 25.25 24.45 27.9 24.75 28.7 25.3 30.3 26.5 30.4 26.5 32.2 27.85 29.5 28.4 29.0 28.45 30.9 27.55 28.35 26.1 27.65 25.8 27.2 25.55 26.9 25.5 26.7 25.5 26.65 25.5 25.85 25.4 25.25 25.4 23.85 25.4 23.3 25.45 22.25 25.7 23.15 26.85 23.2 26.9 23.35 27.05 23.75 27.5 23.85 27.5 23.9 27.55 23.95 27.6 24.4 27.85 25.1 28.2 25.75 28.3 27.3 28.5 27.5 28.5 27.6 28.5 27.5 28.55 27.3 28.5 25.2 28.8 25.25 28.8 25.65 29.35 23.95 28.4 23.15 27.75 22.85 27.5 22.45 27.15 20.9 26.55 21.05 26.45 21.6 26.35 20.35 25.35" fill="#030310" fill-rule="evenodd" stroke="none"/>
      <path d="M12.6 20.4 L14.75 21.65 15.05 21.95 16.3 23.4 16.8 23.95 18.35 25.65 18.4 25.65 22.2 29.85 23.05 30.75 23.15 31.0 Q19.8 29.2 17.55 28.45 16.65 29.35 15.55 31.0 L15.5 30.95 12.0 27.8 9.9 25.7 9.25 24.9 8.1 23.35 7.5 22.5 7.3 22.2 Q5.75 19.85 4.7 17.65 9.4 19.1 12.6 20.4" fill="#78a8fd" fill-rule="evenodd" stroke="none"/>
      <path d="M18.35 25.65 L20.2 25.35 20.35 25.35 21.6 26.35 21.05 26.45 20.9 26.55 22.45 27.15 22.85 27.5 23.15 27.75 23.95 28.4 25.65 29.35 25.25 28.8 25.2 28.8 27.3 28.5 27.5 28.55 27.6 28.5 28.6 28.45 29.0 28.45 29.5 28.4 32.2 27.85 30.4 26.5 30.3 26.5 28.7 25.3 29.3 25.35 30.3 26.15 30.45 26.25 31.05 26.7 31.15 26.8 35.8 30.75 35.85 30.85 36.7 29.55 36.7 30.0 38.7 28.3 39.5 30.5 39.6 30.85 38.85 32.35 37.3 34.85 37.0 35.2 36.9 35.35 36.15 36.4 35.95 36.65 35.3 37.5 33.05 40.7 32.7 40.65 33.95 38.8 34.75 37.65 35.7 36.0 36.05 35.5 36.8 33.55 37.3 32.3 37.65 31.3 37.8 30.3 35.3 33.05 34.85 32.45 Q33.7 30.8 32.0 29.4 L31.3 29.2 30.1 29.1 29.85 29.1 29.6 29.1 28.8 29.1 27.05 29.2 Q24.8 29.55 24.75 30.15 L24.8 30.3 25.0 30.55 23.75 30.15 25.0 31.85 25.15 32.1 23.35 31.1 23.05 30.75 22.2 29.85 18.4 25.65 18.35 25.65" fill="#f5b6b6" fill-rule="evenodd" stroke="none"/>
      <path d="M32.35 40.6 L32.8 41.45 32.95 41.6 33.3 42.2 33.25 42.45 32.95 43.6 32.4 45.85 32.3 46.25 31.45 46.25 31.4 46.2 Q30.35 45.55 23.75 43.05 L22.8 42.7 18.15 40.9 17.4 40.55 Q16.55 39.1 13.85 37.2 L12.35 36.2 12.3 36.35 12.25 36.3 12.3 36.25 12.85 35.2 12.9 35.25 12.4 36.15 12.35 36.2 12.4 36.15 12.9 35.25 13.25 34.65 14.55 32.55 15.2 31.5 15.55 31.0 Q16.65 29.35 17.55 28.45 19.8 29.2 23.15 31.0 L23.35 31.1 25.15 32.1 25.4 32.2 25.95 32.55 28.95 34.5 31.1 35.85 31.1 35.95 30.95 36.4 30.8 36.8 Q30.75 37.5 32.35 40.6" fill="#151325" fill-rule="evenodd" stroke="none"/>
      <path d="M46.3 55.35 L45.45 55.35 44.85 54.95 Q42.75 53.8 42.4 53.35 L42.35 53.25 41.9 52.35 41.35 51.2 43.05 51.85 Q44.75 52.7 45.5 53.5 46.05 54.2 46.3 55.35 M20.1 55.35 L12.7 55.35 10.3 53.55 9.3 52.85 5.5 50.2 5.7 49.3 6.15 47.2 Q7.25 42.1 8.95 42.15 L9.2 42.15 12.2 36.5 12.1 36.45 12.25 36.3 12.3 36.35 12.2 36.5 12.3 36.35 12.35 36.2 13.85 37.2 Q16.55 39.1 17.4 40.55 L18.15 40.9 22.8 42.7 23.75 43.05 Q30.35 45.55 31.4 46.2 L31.45 46.25 32.3 46.25 32.4 45.85 32.95 43.6 33.25 42.45 33.3 42.2 34.3 44.0 35.65 44.95 35.95 45.15 36.4 45.45 36.45 47.4 29.85 46.8 27.25 46.7 26.6 46.7 24.35 46.7 Q22.4 45.65 19.85 44.5 L15.95 42.75 Q15.2 43.0 14.75 43.5 L13.65 45.75 18.75 47.5 Q18.35 47.8 18.35 48.25 18.3 50.35 18.75 52.15 19.05 53.6 19.75 54.8 L20.1 55.35 M38.7 47.0 L40.2 47.8 40.85 48.2 41.05 48.3 40.8 48.25 40.75 48.25 39.8 47.95 39.7 47.95 38.5 47.8 38.55 46.9 38.7 47.0" fill="#479fc5" fill-rule="evenodd" stroke="none"/>
      <path d="M-1.4 33.75 L-1.4 33.15 -1.35 30.55 1.8 30.65 1.95 30.65 3.5 31.0 Q4.7 31.35 6.3 32.05 L8.6 33.1 9.05 33.35 9.6 34.4 Q10.85 35.35 12.1 36.45 L12.2 36.5 9.2 42.15 8.95 42.15 Q7.25 42.1 6.15 47.2 L6.0 47.05 6.0 47.0 6.4 45.65 6.85 44.4 Q7.65 42.0 8.8 40.25 L8.35 39.1 Q7.2 36.95 6.0 36.9 4.05 36.9 1.9 41.05 L1.7 41.4 1.4 42.0 Q0.1 41.05 -1.35 40.5 L-1.3 40.4 -0.9 39.7 Q0.1 38.1 2.1 36.2 L1.35 34.65 Q0.55 33.6 -0.25 33.55 L-1.4 33.75" fill="#4dcac2" fill-rule="evenodd" stroke="none"/>
      <path d="M-1.4 33.75 L-0.25 33.55 Q0.55 33.6 1.35 34.65 L2.1 36.2 Q0.1 38.1 -0.9 39.7 L-1.3 40.4 -1.35 40.5 Q-2.1 41.95 -2.75 44.6 L-3.35 44.6 Q-4.45 44.6 -5.25 43.0 -5.9 41.55 -5.85 39.95 L-5.85 39.65 Q-5.65 38.4 -4.65 36.8 L-4.2 36.1 Q-2.8 34.25 -1.4 33.75 M1.4 42.0 L1.7 41.4 1.9 41.05 Q4.05 36.9 6.0 36.9 7.2 36.95 8.35 39.1 L8.8 40.25 Q7.65 42.0 6.85 44.4 L6.4 45.65 6.0 47.0 5.3 50.15 4.95 50.45 3.35 50.8 Q1.8 50.75 0.8 49.1 -0.05 47.7 0.0 46.15 0.0 44.85 1.4 42.0 M-3.05 39.35 Q-2.3 39.35 -2.05 38.9 L-1.95 38.6 -1.95 38.0 Q-1.85 36.65 -2.85 36.85 -3.5 37.0 -3.75 37.65 L-3.85 38.3 Q-3.9 39.35 -3.05 39.35 M2.05 42.5 Q1.85 43.0 1.8 43.8 1.8 44.4 2.1 44.8 2.45 45.5 3.35 45.5 4.0 45.5 4.4 44.95 L4.7 44.3 4.85 43.35 4.95 42.95 Q4.95 41.15 3.4 41.3 L2.4 41.85 Q2.15 42.1 2.05 42.5" fill="#60fbf5" fill-rule="evenodd" stroke="none"/>
      <path d="M-3.05 39.35 Q-3.9 39.35 -3.85 38.3 L-3.75 37.65 Q-3.5 37.0 -2.85 36.85 -1.85 36.65 -1.95 38.0 L-1.95 38.6 -2.05 38.9 Q-2.3 39.35 -3.05 39.35 M2.05 42.5 Q2.15 42.1 2.4 41.85 L3.4 41.3 Q4.95 41.15 4.95 42.95 L4.85 43.35 4.7 44.3 4.4 44.95 Q4.0 45.5 3.35 45.5 2.45 45.5 2.1 44.8 1.8 44.4 1.8 43.8 1.85 43.0 2.05 42.5" fill="#e5fffe" fill-rule="evenodd" stroke="none"/>
      <path d="M3.1 55.35 L2.7 55.35 2.55 55.2 -0.3 52.45 -3.55 52.85 -4.4 52.9 -9.0 50.25 -9.0 41.25 Q-7.9 39.75 -5.85 39.65 L-5.85 39.95 Q-5.9 41.55 -5.25 43.0 -4.45 44.6 -3.35 44.6 L-2.75 44.6 Q-2.1 41.95 -1.35 40.5 0.1 41.05 1.4 42.0 0.0 44.85 0.0 46.15 -0.05 47.7 0.8 49.1 1.8 50.75 3.35 50.8 L4.95 50.45 5.3 50.15 6.0 47.0 6.0 47.05 6.15 47.2 5.7 49.3 5.5 50.2 5.35 51.3 5.3 51.65 5.2 52.5 5.05 52.7 4.7 53.15 3.7 54.55 3.1 55.35" fill="#4babb7" fill-rule="evenodd" stroke="none"/>
      <path d="M36.7 29.55 L37.3 28.75 38.15 27.45 39.15 26.0 39.6 25.2 39.6 26.45 39.55 27.6 39.55 27.7 39.55 29.5 39.7 30.55 39.7 30.65 39.6 30.85 39.5 30.5 38.7 28.3 36.7 30.0 36.7 29.55" fill="#985e71" fill-rule="evenodd" stroke="none"/>
      <path d="M32.7 40.65 L32.35 40.6 Q30.75 37.5 30.8 36.8 L30.95 36.4 31.95 36.25 Q32.8 36.25 33.4 35.65 L34.05 34.85 Q32.15 35.4 31.1 35.95 L31.1 35.85 28.95 34.5 30.2 33.35 31.4 31.75 31.9 30.25 31.3 29.2 32.0 29.4 Q33.7 30.8 34.85 32.45 L35.3 33.05 37.8 30.3 37.65 31.3 37.3 32.3 36.8 33.55 36.05 35.5 35.7 36.0 34.75 37.65 33.95 38.8 32.7 40.65 M25.15 32.1 L25.0 31.85 25.4 32.2 25.15 32.1" fill="#fff4f2" fill-rule="evenodd" stroke="none"/>
      <path d="M31.1 35.95 Q32.15 35.4 34.05 34.85 L33.4 35.65 Q32.8 36.25 31.95 36.25 L30.95 36.4 31.1 35.95" fill="#99339f" fill-rule="evenodd" stroke="none"/>
      <path d="M29.0 28.45 L28.6 28.45 27.6 28.5 27.5 28.5 27.3 28.5 25.75 28.3 27.2 28.05 Q27.3 27.95 27.45 27.95 28.15 27.45 28.3 26.45 L28.35 26.1 30.9 27.55 29.0 28.45" fill="#552562" fill-rule="evenodd" stroke="none"/>
      <path d="M28.35 26.1 L28.3 26.45 Q28.15 27.45 27.45 27.95 27.3 27.95 27.2 28.05 L25.75 28.3 25.1 28.2 24.4 27.85 24.45 27.85 25.45 27.95 26.55 27.85 26.6 27.9 27.3 27.9 27.3 27.75 27.25 27.5 27.3 27.4 Q27.8 27.05 27.8 26.35 L27.8 26.3 27.05 26.1 26.6 25.95 26.1 26.9 Q25.35 27.6 24.3 27.6 L23.9 27.55 23.85 27.5 24.95 27.4 Q25.95 27.0 25.95 26.1 L25.95 25.9 24.4 25.7 24.1 25.85 24.1 25.8 23.25 25.65 22.9 25.65 22.85 25.85 22.95 26.15 23.15 26.6 23.3 27.0 23.2 26.9 23.15 26.85 22.25 25.7 23.3 25.45 23.85 25.4 25.25 25.4 25.85 25.4 26.65 25.5 26.7 25.5 26.9 25.5 27.2 25.55 27.65 25.8 28.35 26.1" fill="#d0409f" fill-rule="evenodd" stroke="none"/>
      <path d="M23.2 26.9 L23.3 27.0 23.15 26.6 22.95 26.15 23.15 26.35 23.5 26.65 Q24.1 27.05 24.45 27.05 L24.75 27.05 24.75 26.4 24.1 25.85 24.4 25.7 25.95 25.9 25.95 26.1 Q25.95 27.0 24.95 27.4 L23.85 27.5 23.75 27.5 23.35 27.05 23.2 26.9 M23.9 27.55 L24.3 27.6 Q25.35 27.6 26.1 26.9 L26.6 25.95 27.05 26.1 27.8 26.3 27.8 26.35 Q27.8 27.05 27.3 27.4 L27.25 27.5 Q27.15 27.1 26.45 27.15 L26.45 27.25 26.55 27.85 25.45 27.95 24.45 27.85 24.4 27.85 23.95 27.6 23.9 27.55" fill="#fc89f1" fill-rule="evenodd" stroke="none"/>
      <path d="M6.2 55.35 L4.4 55.35 5.25 54.35 5.35 54.25 6.2 55.35" fill="#60f9f6" fill-rule="evenodd" stroke="none"/>
      <path d="M12.7 55.35 L10.55 55.35 8.45 53.85 5.65 51.85 5.35 51.65 5.3 51.65 5.35 51.3 5.5 50.2 9.3 52.85 10.3 53.55 12.7 55.35 M38.55 46.9 L38.5 47.8 38.15 53.5 38.15 54.5 37.95 54.5 Q36.45 53.45 36.5 50.3 L36.45 47.4 36.4 45.45 37.4 46.15 38.55 46.9 M18.75 47.5 L13.65 45.75 14.75 43.5 Q15.2 43.0 15.95 42.75 L19.85 44.5 Q22.4 45.65 24.35 46.7 L26.85 48.1 28.3 49.0 Q30.9 50.8 32.65 53.25 L32.65 54.6 Q30.1 52.75 26.75 51.05 L24.15 49.8 Q21.75 48.65 18.9 47.6 L18.75 47.5" fill="#282540" fill-rule="evenodd" stroke="none"/>
      <path d="M10.55 55.35 L6.2 55.35 5.35 54.25 5.05 53.85 5.2 52.5 5.3 51.65 5.35 51.65 5.65 51.85 8.45 53.85 10.55 55.35" fill="#3f8cad" fill-rule="evenodd" stroke="none"/>
      <path d="M-9.0 11.0 L-9.0 9.75 -8.95 9.95 -9.0 11.0 M53.85 53.3 L53.85 53.2 54.0 52.95 54.85 53.3 55.3 53.65 55.25 53.9 54.85 53.95 54.25 53.6 53.85 53.3" fill="#8efaff" fill-rule="evenodd" stroke="none"/>
      <path d="M53.2 55.35 L50.85 55.35 47.8 53.05 43.6 50.3 40.75 48.4 40.75 48.25 40.8 48.25 41.05 48.3 43.75 49.7 50.15 52.55 51.35 53.5 53.2 55.35" fill="#dbfdff" fill-rule="evenodd" stroke="none"/>
      <path d="M20.45 1.75 L19.4 1.2 14.5 -1.45 11.45 -2.9 9.15 -3.95 7.8 -4.55 6.25 -5.25 M-2.65 -5.25 L-2.35 -2.9 -2.3 -2.5 -2.05 -1.45 -1.3 1.55 0.35 5.75 1.15 7.55 1.35 8.0 Q3.25 11.75 6.05 15.95 L6.3 16.3 7.05 17.35 7.2 17.5 10.05 19.0 12.6 20.4 14.75 21.65 15.25 21.95 15.05 21.95 16.3 23.4 16.8 23.95 18.35 25.65 20.2 25.35 20.35 25.35 M28.7 25.3 L29.3 25.35 30.3 26.15 30.45 26.25 31.05 26.7 31.15 26.8 35.8 30.75 35.85 30.85 36.7 29.55 37.3 28.75 38.15 27.45 39.15 26.0 39.6 25.2 40.65 23.65 42.1 26.9 43.7 25.65 44.35 24.9 44.9 24.0 46.05 22.0 46.85 20.25 47.55 18.7 46.95 18.8 46.3 18.9 46.0 19.0 46.75 17.25 47.05 16.55 47.15 16.3 47.75 14.25 48.2 12.35 48.2 12.3 48.75 8.0 48.75 7.35 48.75 6.7 48.75 3.45 48.5 3.7 47.7 4.45 47.4 4.75 46.85 5.3 46.9 4.6 46.9 3.65 Q46.85 1.35 46.4 -1.25 L46.4 -1.45 46.15 -2.9 45.6 -5.25 M28.7 3.1 L29.05 3.1 30.85 3.25 31.6 3.25 32.45 3.4 32.75 -1.3 32.75 -1.4 32.75 -1.45 32.75 -2.9 32.7 -4.9 32.7 -5.25 M36.1 -5.25 L36.3 -2.9 36.3 -2.25 36.9 -1.45 39.15 1.9 39.4 -1.45 39.5 -2.9 39.5 -3.1 39.7 -5.25 M57.25 7.1 L57.2 7.35 57.25 7.3 M36.05 -2.5 L35.75 -2.9 34.55 -4.45 33.9 -5.25 M36.3 -2.25 L36.2 -2.35 36.05 -2.5 M55.65 12.65 L56.65 10.35 57.05 8.4 57.2 7.35 M-2.85 13.25 L-3.65 12.0 -4.9 10.15 -6.15 8.35 -9.0 4.3 M6.85 44.4 L6.4 45.65 M12.2 36.5 L12.1 36.45 Q10.85 35.35 9.6 34.4 L9.05 33.35 7.35 30.2 5.4 26.8 5.1 26.15 4.75 25.55 4.5 25.15 Q1.0 19.05 -2.85 13.25 M1.6 55.35 L0.4 54.45 -0.25 53.95 -0.65 54.0 -2.05 54.2 -3.4 53.4 -4.4 52.9 -9.0 50.25 M41.9 6.45 L42.55 7.75 43.9 10.9 44.0 11.05 44.25 11.9 45.0 14.45 45.0 14.6 44.55 15.65 44.45 16.0 Q43.55 18.55 42.3 20.95 L41.7 21.95 41.3 22.6 40.65 23.65 M41.9 6.45 L41.5 5.75 41.3 5.4 41.2 5.2 40.7 4.3 39.15 1.9 M54.25 20.7 L54.1 18.0 54.6 15.45 55.4 13.1 55.65 12.65 M40.9 14.9 L40.85 15.4 41.15 15.35 40.9 14.9 39.95 13.1 38.45 10.65 38.4 10.65 37.65 9.6 37.3 9.25 35.35 7.4 34.65 6.9 34.4 6.75 33.4 8.55 33.25 8.75 32.55 10.1 31.55 12.2 31.0 13.3 29.6 16.55 31.15 17.95 33.05 19.5 34.15 20.35 34.3 20.5 34.45 20.55 35.1 21.05 36.0 21.7 37.65 22.85 37.75 22.95 37.75 22.85 39.45 19.55 40.25 17.5 40.65 15.95 40.7 15.85 40.85 15.4 M42.4 46.95 L43.05 47.1 Q44.7 45.15 45.45 45.0 45.45 45.5 45.6 45.5 48.15 43.2 51.45 34.15 L51.55 33.85 52.25 32.05 53.15 29.25 53.4 28.5 54.5 24.75 54.25 20.7 M57.1 27.05 L57.25 26.75 M54.6 28.25 L54.65 29.3 54.75 30.35 54.85 32.0 55.35 30.85 55.75 30.0 57.1 27.05 M49.9 48.85 L51.95 49.4 52.5 49.55 54.35 50.15 55.05 47.0 Q55.7 45.5 57.2 44.35 L57.25 44.3 M54.6 28.25 L54.5 24.75 M42.75 28.55 L42.65 28.2 42.6 28.15 42.55 28.05 42.2 27.15 42.1 26.9 M42.9 37.6 L43.35 35.8 43.45 35.05 43.7 33.05 43.7 32.0 43.7 30.75 42.75 28.55 M38.85 32.35 L37.3 34.85 37.0 35.2 36.9 35.35 38.0 36.25 38.1 36.35 38.8 36.75 41.8 38.35 42.4 38.55 42.55 38.65 42.75 38.2 42.9 37.6 M38.05 46.05 L37.35 45.85 37.0 45.8 38.05 46.45 39.95 47.65 40.2 47.8 M47.45 48.2 L48.3 48.4 49.9 48.85 M43.05 47.1 L47.45 48.2 M35.95 36.65 L35.3 37.5 33.05 40.7 32.7 40.65 32.35 40.6 M35.95 45.15 L37.0 45.8 M28.7 3.1 L27.15 3.15 23.05 3.35 22.15 2.8 21.15 2.15 20.45 1.75 M7.05 17.35 L5.3 16.4 1.2 14.15 1.5 16.7 Q1.95 19.15 3.0 21.85 L3.15 22.2 3.6 23.3 4.15 24.35 4.5 25.15 M15.05 21.95 L14.75 21.65 M23.05 30.75 L22.2 29.85 18.4 25.65 18.35 25.65 M12.25 36.3 L12.1 36.45 M12.85 35.2 L12.3 36.25 12.25 36.3 M12.9 35.25 L12.85 35.2 9.15 31.6 7.55 29.8 7.35 30.2 M7.55 29.8 L7.25 29.35 5.4 26.8 M39.6 30.85 L39.7 30.65 39.7 30.55 39.55 29.5 39.55 27.7 39.55 27.6 39.6 26.45 39.6 25.2 M36.9 35.35 L36.15 36.4 35.95 36.65 M38.85 32.35 L39.6 30.85 M23.05 30.75 L23.35 31.1 M38.05 46.05 L39.95 46.4 42.4 46.95 M4.4 55.35 L5.25 54.35 5.35 54.25 M54.35 50.15 L54.4 50.15 57.25 51.1" fill="none" stroke="#340e46" stroke-linecap="round" stroke-linejoin="round" stroke-width="4.0"/>
      <path d="M6.15 47.2 Q7.25 42.1 8.95 42.15 L9.2 42.15 12.2 36.5 12.3 36.35 12.35 36.2 12.4 36.15 12.9 35.25 13.25 34.65 14.55 32.55 15.2 31.5 15.55 31.0 Q16.65 29.35 17.55 28.45 19.8 29.2 23.15 31.0 L23.35 31.1 25.15 32.1 25.4 32.2 25.95 32.55 28.95 34.5 31.1 35.85 31.1 35.95 30.95 36.4 30.8 36.8 Q30.75 37.5 32.35 40.6 L32.8 41.45 32.95 41.6 33.3 42.2 34.3 44.0 35.65 44.95 35.95 45.15 36.4 45.45 37.4 46.15 38.55 46.9 38.7 47.0 40.2 47.8 40.85 48.2 41.05 48.3 43.75 49.7 50.15 52.55 51.35 53.5 53.2 55.35 M6.15 47.2 L5.7 49.3 5.5 50.2 5.35 51.3 5.3 51.65 5.2 52.5 5.05 53.85 5.35 54.25 6.2 55.35" fill="none" stroke="#333b70" stroke-linecap="round" stroke-linejoin="round" stroke-width="1.0"/>
      <path d="M42.95 -0.5 L44.25 -0.5 43.2 4.8 41.25 15.35 Q39.4 17.15 36.9 20.55 L32.95 26.05 33.05 24.5 Q31.05 26.45 29.35 30.4 L30.5 26.3 Q32.2 21.0 33.65 20.45 33.65 20.75 34.2 21.85 35.8 20.8 39.1 15.65 L39.75 14.6 41.05 8.5 42.95 -0.5" fill="#5de6ec" fill-rule="evenodd" stroke="none"/>
      <path d="M41.25 15.35 L43.2 4.8 43.35 4.7 Q44.85 3.25 46.2 3.3 47.4 3.35 48.35 5.2 L49.0 6.95 Q49.85 9.65 49.8 11.45 L48.75 13.0 Q47.75 15.2 47.65 18.6 47.6 22.0 48.25 23.15 48.6 23.8 49.4 23.95 L50.15 24.05 Q53.45 24.15 54.1 21.8 L54.35 20.65 54.6 24.7 52.35 31.95 51.65 33.8 51.55 34.1 Q48.25 43.15 45.7 45.45 45.55 45.45 45.55 44.9 44.65 45.05 42.8 47.5 42.5 47.15 42.5 46.65 42.5 46.25 43.4 45.3 L45.25 43.05 45.95 41.9 Q48.05 38.3 48.15 33.35 L48.1 32.3 Q47.9 29.5 46.2 26.05 L45.7 25.2 45.5 24.7 Q42.9 20.15 40.45 20.1 L40.35 20.1 41.25 15.35 M56.3 6.1 L56.3 11.3 55.75 12.6 55.8 11.85 56.05 9.7 56.25 6.7 56.3 6.1" fill="#4eacac" fill-rule="evenodd" stroke="none"/>
      <path d="M43.2 4.8 L44.25 -0.5 56.3 -0.5 56.3 6.1 56.25 6.7 56.05 9.7 55.8 11.85 55.75 12.6 55.5 13.05 54.7 15.35 Q54.25 16.9 54.25 17.9 L54.35 20.65 54.1 21.8 Q53.45 24.15 50.15 24.05 L49.4 23.95 Q48.6 23.8 48.25 23.15 47.6 22.0 47.65 18.6 47.75 15.2 48.75 13.0 L49.8 11.45 Q49.85 9.65 49.0 6.95 L48.35 5.2 Q47.4 3.35 46.2 3.3 44.85 3.25 43.35 4.7 L43.2 4.8" fill="#4a809a" fill-rule="evenodd" stroke="none"/>
      <path d="M56.3 26.3 L56.3 29.1 54.95 31.9 54.7 28.2 55.5 27.3 56.3 26.3" fill="#783c8a" fill-rule="evenodd" stroke="none"/>
      <path d="M56.3 11.3 L56.3 26.3 55.5 27.3 54.7 28.2 54.6 24.7 54.35 20.65 54.25 17.9 Q54.25 16.9 54.7 15.35 L55.5 13.05 55.75 12.6 56.3 11.3" fill="#441d4f" fill-rule="evenodd" stroke="none"/>
      <path d="M29.35 30.4 Q31.05 26.45 33.05 24.5 L32.95 26.05 36.9 20.55 Q39.4 17.15 41.25 15.35 L40.35 20.1 38.3 31.0 37.7 31.25 Q36.5 31.65 36.5 32.4 L36.9 33.35 37.4 34.1 36.5 35.2 Q36.1 35.9 36.1 36.9 L36.15 37.85 Q36.45 39.3 37.75 41.0 L38.6 42.05 Q39.95 43.35 41.25 43.4 42.85 43.45 45.15 42.35 L45.95 41.9 45.25 43.05 43.4 45.3 Q42.5 46.25 42.5 46.65 42.5 47.15 42.8 47.5 L40.25 51.05 37.4 55.35 27.4 55.35 27.15 54.2 Q27.0 49.45 26.35 44.5 L27.35 39.5 Q28.35 34.3 29.35 30.4" fill="#48a0c8" fill-rule="evenodd" stroke="none"/>
      <path d="M40.35 20.1 L40.45 20.1 Q42.9 20.15 45.5 24.7 L45.7 25.2 46.2 26.05 Q45.65 26.1 44.95 26.45 L43.35 27.95 Q40.8 30.65 40.75 33.95 L40.75 35.8 40.5 35.8 Q37.8 35.7 36.4 37.4 L36.15 37.85 36.1 36.9 Q36.1 35.9 36.5 35.2 L37.4 34.1 36.9 33.35 36.5 32.4 Q36.5 31.65 37.7 31.25 L38.3 31.0 40.35 20.1" fill="#50cfbe" fill-rule="evenodd" stroke="none"/>
      <path d="M56.3 29.1 L56.3 32.7 54.8 36.0 54.75 35.8 54.35 34.35 53.7 35.2 51.35 39.65 Q48.85 44.65 48.55 46.4 L49.8 46.45 50.1 48.05 49.85 49.25 Q49.8 49.45 49.4 49.45 L48.7 48.7 Q48.25 47.95 47.9 47.95 47.2 47.95 46.3 50.15 L44.95 53.75 44.95 55.35 37.4 55.35 40.25 51.05 42.8 47.5 Q44.65 45.05 45.55 44.9 45.55 45.45 45.7 45.45 48.25 43.15 51.55 34.1 L51.65 33.8 52.35 31.95 54.6 24.7 54.7 28.2 54.95 31.9 56.3 29.1 M52.1 55.35 L45.55 55.35 48.25 53.5 51.1 50.9 Q52.45 52.0 52.4 53.55 L52.1 55.35" fill="#3ccbe2" fill-rule="evenodd" stroke="none"/>
      <path d="M56.3 32.7 L56.3 45.2 Q55.55 46.0 55.15 46.9 54.75 47.95 53.8 54.15 L53.4 55.35 52.1 55.35 52.4 53.55 Q52.45 52.0 51.1 50.9 L48.25 53.5 45.55 55.35 44.95 55.35 44.95 53.75 46.3 50.15 Q47.2 47.95 47.9 47.95 48.25 47.95 48.7 48.7 L49.4 49.45 Q49.8 49.45 49.85 49.25 L50.1 48.05 49.8 46.45 48.55 46.4 Q48.85 44.65 51.35 39.65 L53.7 35.2 54.35 34.35 54.75 35.8 54.8 36.0 56.3 32.7" fill="#66fbf9" fill-rule="evenodd" stroke="none"/>
      <path d="M46.2 26.05 Q47.9 29.5 48.1 32.3 47.45 38.75 43.35 38.65 41.75 38.65 41.1 37.2 L41.1 37.05 40.75 35.8 40.75 33.95 Q40.8 30.65 43.35 27.95 L44.95 26.45 Q45.65 26.1 46.2 26.05" fill="#57eabd" fill-rule="evenodd" stroke="none"/>
      <path d="M48.1 32.3 L48.15 33.35 Q48.05 38.3 45.95 41.9 L45.15 42.35 Q42.85 43.45 41.25 43.4 39.95 43.35 38.6 42.05 L37.75 41.0 Q36.45 39.3 36.15 37.85 L36.4 37.4 Q37.8 35.7 40.5 35.8 L40.75 35.8 41.1 37.05 41.1 37.2 Q41.75 38.65 43.35 38.65 47.45 38.75 48.1 32.3" fill="#4badba" fill-rule="evenodd" stroke="none"/>
      <path d="M42.95 -0.5 L41.05 8.5 39.75 14.6 39.1 15.65 Q35.8 20.8 34.2 21.85 33.65 20.75 33.65 20.45 32.2 21.0 30.5 26.3 L29.35 30.4 Q28.35 34.3 27.35 39.5 L26.35 44.5 Q27.0 49.45 27.15 54.2 L27.4 55.35 M56.3 45.2 Q55.55 46.0 55.15 46.9 54.75 47.95 53.8 54.15 L53.4 55.35 M42.8 47.5 Q44.65 45.05 45.55 44.9 45.55 45.45 45.7 45.45 48.25 43.15 51.55 34.1 L51.65 33.8 52.35 31.95 54.6 24.7 M42.8 47.5 L40.25 51.05 37.4 55.35" fill="none" stroke="#333b70" stroke-linecap="round" stroke-linejoin="round" stroke-width="1.0"/>
      <path d="M55.75 12.6 L56.3 11.3 M55.75 12.6 L55.5 13.05 54.7 15.35 Q54.25 16.9 54.25 17.9 L54.35 20.65 54.6 24.7 54.7 28.2 54.95 31.9 56.3 29.1" fill="none" stroke="#100c27" stroke-linecap="round" stroke-linejoin="round" stroke-width="1.0"/>
      <path d="M36.2 -0.5 L36.45 -0.5 36.45 2.3 36.35 3.85 36.1 3.4 36.2 -0.5" fill="#b275ec" fill-rule="evenodd" stroke="none"/>
      <path d="M8.05 -0.5 L8.05 1.75 Q7.9 6.5 6.85 12.6 L6.1 16.25 -0.95 16.75 -0.95 -0.5 8.05 -0.5" fill="url(#gradient5)" fill-rule="evenodd" stroke="none"/>
      <path d="M8.05 -0.5 L19.55 -0.5 19.5 3.55 Q19.25 13.3 16.75 21.4 11.7 20.0 8.4 17.15 L7.15 16.1 6.1 16.25 6.85 12.6 Q7.9 6.5 8.05 1.75 L8.05 -0.5 M27.55 -0.5 L29.8 -0.5 Q33.2 9.4 34.3 20.45 L33.4 20.9 Q32.6 14.05 29.35 4.55 L27.55 -0.5" fill="url(#gradient6)" fill-rule="evenodd" stroke="none"/>
      <path d="M16.75 21.4 Q19.25 13.3 19.5 3.55 L19.55 -0.5 27.55 -0.5 29.35 4.55 Q32.6 14.05 33.4 20.9 29.4 22.6 24.9 22.5 L24.7 22.5 Q20.55 22.4 16.85 21.45 L16.75 21.4 M29.8 -0.5 L36.2 -0.5 36.1 3.4 36.35 3.85 36.3 5.25 37.35 6.6 Q38.95 9.7 38.8 15.3 L38.65 17.75 36.5 19.3 34.3 20.45 Q33.2 9.4 29.8 -0.5" fill="url(#gradient7)" fill-rule="evenodd" stroke="none"/>
      <path d="M6.1 16.25 L7.15 16.1 8.4 17.15 Q11.7 20.0 16.75 21.4 L16.85 21.45 Q20.55 22.4 24.7 22.5 L24.9 22.5 Q29.4 22.6 33.4 20.9 L34.3 20.45 36.5 19.3 38.65 17.75 38.8 15.3 Q38.95 9.7 37.35 6.6 L36.3 5.25 36.35 3.85 36.45 2.3 36.45 -0.5 M-0.95 16.75 L6.1 16.25" fill="none" stroke="#100c27" stroke-linecap="round" stroke-linejoin="round" stroke-width="1.0"/>
      <path d="M1.3 -0.5 L2.1 -0.5 5.0 3.25 5.7 4.15 8.2 7.0 8.2 7.05 9.7 8.6 17.0 6.95 Q21.05 5.85 21.05 4.9 21.05 4.25 20.2 3.05 L19.85 2.6 19.2 1.7 20.25 1.75 20.95 2.0 21.75 2.7 22.9 3.6 23.05 3.75 21.65 3.7 21.65 3.9 24.05 6.05 Q22.6 5.3 18.45 7.0 L17.9 7.2 Q13.4 9.15 13.3 10.75 13.3 11.2 15.05 12.85 L15.75 13.55 29.45 21.65 25.6 20.25 19.05 18.0 14.6 16.5 Q9.65 11.25 6.45 7.2 L6.35 7.1 5.5 5.95 4.4 4.5 3.9 3.75 1.3 -0.5 M39.3 1.8 L39.5 -0.5 41.3 -0.5 40.8 4.25 39.3 1.8 M45.3 -0.5 L46.7 -0.5 Q47.05 2.2 47.0 4.55 L46.95 5.25 47.55 4.65 48.6 3.6 48.85 3.35 48.9 7.25 48.85 7.95 48.35 12.25 48.35 12.3 47.9 14.15 47.25 16.25 47.45 11.95 47.55 10.5 47.55 8.95 47.7 7.45 47.8 6.75 47.6 7.4 47.55 7.65 47.45 6.5 46.0 8.05 Q45.9 3.35 45.3 -0.5 M27.75 39.3 L28.1 39.8 26.45 38.1 26.1 37.75 23.95 35.75 21.1 35.65 22.8 37.9 23.25 38.45 23.7 39.0 22.35 37.85 21.2 36.85 Q14.35 31.0 10.0 25.65 16.0 31.4 18.55 33.2 20.6 34.6 23.15 34.65 L24.3 34.7 Q25.05 34.65 25.05 34.1 L23.15 30.7 25.15 32.9 27.2 35.15 25.15 35.7 26.9 38.1 27.75 39.3 M35.35 9.05 L36.1 11.65 37.15 16.1 37.15 17.0 37.15 17.35 Q33.45 16.4 31.0 16.35 31.55 14.7 33.95 10.15 L34.6 8.9 34.75 8.65 35.1 8.0 35.25 8.75 35.35 9.05 M31.4 29.15 Q32.05 29.8 32.0 30.15 32.0 30.85 31.5 31.65 L30.35 33.25 28.65 34.65 26.6 33.1 25.1 31.75 23.9 30.05 25.1 30.45 24.9 30.05 Q24.9 29.45 27.2 29.15 L28.9 29.05 30.25 29.0 31.4 29.15" fill="#ffffff" fill-rule="evenodd" stroke="none"/>
      <path d="M-1.9 2.9 L-1.35 4.55 -0.85 6.15 -0.3 7.65 -0.05 8.2 0.1 8.45 -0.1 8.2 -0.55 7.65 -1.55 6.5 -1.9 6.05 -1.9 2.9 M-1.9 18.15 L0.8 21.45 1.9 22.6 1.85 23.2 1.8 23.5 1.7 23.95 1.4 25.4 1.35 27.35 Q1.7 27.1 2.4 27.0 L3.35 26.55 Q3.3 29.3 4.0 33.6 L4.1 34.2 4.25 35.05 3.55 35.8 2.9 33.9 2.85 33.75 2.3 31.75 2.05 29.9 2.25 28.35 2.3 28.1 1.65 28.35 0.4 28.9 0.35 27.7 Q0.4 25.85 0.75 23.9 L0.8 23.8 0.9 23.15 0.95 22.95 -1.7 21.0 -1.9 20.85 -1.9 18.15 M36.8 -0.5 L37.75 -0.5 39.3 1.8 40.8 4.25 41.35 5.1 41.45 5.3 42.0 6.35 41.45 5.3 41.35 5.1 40.8 4.25 41.3 -0.5 45.3 -0.5 Q45.9 3.35 46.0 8.05 L47.45 6.5 47.55 7.65 46.3 11.25 46.2 11.25 46.05 11.45 46.0 8.55 45.75 6.7 Q45.3 4.55 44.4 2.35 44.05 2.75 43.85 4.45 L43.7 5.95 43.75 6.6 42.0 6.35 Q43.2 8.55 44.05 10.8 L44.1 11.0 44.4 11.85 45.1 14.4 45.1 14.5 44.65 15.55 44.6 15.9 Q43.5 18.95 41.8 21.85 L41.45 22.5 40.75 23.55 42.2 26.85 42.35 27.05 42.7 28.0 42.7 28.05 42.75 28.1 43.8 30.7 43.8 31.95 43.8 33.0 43.55 34.95 43.45 35.7 43.0 37.5 42.8 35.3 42.5 31.6 41.8 29.95 40.9 27.8 40.85 27.7 39.75 25.1 38.25 27.35 37.4 28.65 36.8 29.5 36.0 30.75 35.9 30.7 40.75 22.2 41.95 19.95 Q42.95 17.8 43.6 15.55 L43.55 15.3 Q42.9 12.6 40.2 6.5 L36.8 -0.5 M47.25 16.25 L47.2 16.45 46.85 17.15 46.1 18.95 46.4 18.85 47.05 18.7 47.65 18.6 47.0 20.15 46.15 21.9 44.5 24.8 43.8 25.55 45.3 22.05 45.85 20.3 44.8 20.6 45.85 16.6 47.0 11.85 47.0 11.8 47.55 8.95 47.55 10.5 47.45 11.95 47.25 16.25 M39.75 25.1 L40.75 23.55 39.75 25.1" fill="#62fbf8" fill-rule="evenodd" stroke="none"/>
      <path d="M41.0 14.85 L40.95 15.35 40.75 15.9 40.2 15.35 Q40.1 15.2 39.95 15.2 39.55 16.2 38.75 16.75 37.95 17.2 37.8 18.25 L37.75 21.1 39.5 18.85 40.35 17.45 39.55 19.45 37.85 22.75 37.85 22.85 37.75 22.8 34.55 20.45 31.25 17.85 29.7 16.45 31.15 13.2 33.4 8.65 33.5 8.45 34.55 6.7 34.75 6.85 35.45 7.3 37.4 9.15 37.75 9.55 38.55 10.55 Q40.1 12.7 41.0 14.85 M35.35 9.05 L35.25 8.75 35.1 8.0 34.75 8.65 34.6 8.9 33.95 10.15 Q31.55 14.7 31.0 16.35 33.45 16.4 37.15 17.35 L37.15 17.0 37.15 16.1 36.1 11.65 35.35 9.05" fill="#60f7f2" fill-rule="evenodd" stroke="none"/>
      <path d="M7.7 29.7 L7.4 29.25 5.35 26.3 4.25 24.25 3.75 23.2 3.3 22.1 3.1 21.75 Q1.55 17.7 1.3 14.1 L7.15 17.25 Q3.65 12.3 1.45 7.9 L1.25 7.45 0.45 5.7 -1.2 1.45 -1.7 -0.5 1.3 -0.5 3.9 3.75 4.4 4.5 5.5 5.95 6.1 7.0 6.15 7.05 6.2 7.2 Q9.55 12.85 12.45 17.05 L16.35 18.3 25.15 21.1 31.25 23.1 32.9 23.7 36.9 25.15 37.85 25.75 37.95 25.6 39.25 23.9 40.0 22.85 40.2 22.6 41.95 19.95 40.75 22.2 35.9 30.7 31.15 26.6 30.45 26.05 29.4 25.3 24.85 24.95 24.0 24.95 20.3 25.25 18.45 25.55 16.9 23.85 16.45 23.35 15.2 21.9 15.35 21.85 14.85 21.55 12.7 20.3 10.15 18.95 7.3 17.4 7.15 17.25 7.3 17.4 10.15 18.95 12.7 20.3 Q9.5 19.0 4.8 17.6 L7.4 22.15 7.45 22.2 7.55 22.4 8.0 23.25 8.4 24.05 8.85 24.75 8.9 24.85 12.8 30.95 Q18.45 35.5 21.4 37.7 L21.5 37.75 24.5 39.85 26.3 41.05 Q28.1 42.5 29.8 43.65 L27.25 42.95 Q24.7 42.1 21.1 40.4 17.9 38.9 15.0 36.75 11.9 34.45 9.25 31.5 L7.7 29.7 M20.55 1.65 L21.3 2.05 22.3 2.7 23.2 3.25 27.25 3.05 29.2 3.0 31.7 3.2 32.6 3.3 32.85 -0.5 33.2 -0.5 34.7 3.35 34.9 3.9 35.65 5.85 35.45 5.85 Q35.1 5.45 34.35 5.15 L31.6 4.6 28.45 4.45 25.65 4.55 25.8 4.8 26.3 6.0 26.5 6.6 23.05 3.75 22.9 3.6 21.75 2.7 20.95 2.0 20.55 1.65 M42.5 38.5 Q40.4 37.65 38.9 36.7 L38.25 36.25 37.05 35.25 37.15 35.15 37.4 34.8 38.95 32.25 41.15 35.95 42.5 38.5" fill="#5c72e9" fill-rule="evenodd" stroke="none"/>
      <path d="M-1.9 2.9 L-1.9 -0.5 -1.7 -0.5 -1.2 1.45 0.45 5.7 1.25 7.45 1.45 7.9 Q3.65 12.3 7.15 17.25 L1.3 14.1 Q1.55 17.7 3.1 21.75 L3.3 22.1 3.75 23.2 4.25 24.25 5.35 26.3 7.4 29.25 7.7 29.7 6.7 31.5 6.2 32.3 4.75 34.4 4.25 35.05 4.1 34.2 4.0 33.6 Q3.3 29.3 3.35 26.55 L2.4 27.0 Q1.7 27.1 1.35 27.35 L1.4 25.4 1.7 23.95 1.8 23.5 1.85 23.2 1.9 22.6 0.8 21.45 -1.9 18.15 -1.9 6.05 -1.55 6.5 -0.55 7.65 -0.1 8.2 0.1 8.45 -0.05 8.2 -0.3 7.65 -0.85 6.15 -1.35 4.55 -1.9 2.9 M43.8 25.55 Q43.1 26.3 42.2 26.85 L40.75 23.55 41.45 22.5 41.8 21.85 Q43.5 18.95 44.6 15.9 L44.65 15.55 45.1 14.5 45.1 14.4 44.4 11.85 44.1 11.0 44.05 10.8 Q43.2 8.55 42.0 6.35 L43.75 6.6 43.7 5.95 43.85 4.45 Q44.05 2.75 44.4 2.35 45.3 4.55 45.75 6.7 L46.0 8.55 46.05 11.45 46.2 11.25 46.3 11.25 47.55 7.65 47.6 7.4 47.8 6.75 47.7 7.45 47.55 8.95 47.0 11.8 47.0 11.85 45.85 16.6 44.8 20.6 45.85 20.3 45.3 22.05 43.8 25.55" fill="#49d5ca" fill-rule="evenodd" stroke="none"/>
      <path d="M40.35 17.45 L39.5 18.85 37.75 21.1 37.8 18.25 Q37.95 17.2 38.75 16.75 39.55 16.2 39.95 15.2 40.1 15.2 40.2 15.35 L40.75 15.9 40.35 17.45" fill="#3aa9ad" fill-rule="evenodd" stroke="none"/>
      <path d="M43.0 37.5 L42.85 38.1 42.7 38.55 42.5 38.5 41.15 35.95 38.95 32.25 39.7 30.75 39.8 30.6 39.8 30.5 39.65 29.4 39.65 27.65 39.65 27.55 39.7 26.4 39.75 25.1 40.85 27.7 40.9 27.8 41.8 29.95 42.5 31.6 42.8 35.3 43.0 37.5 M36.9 25.15 L32.9 23.7 31.25 23.1 25.15 21.1 16.35 18.3 12.45 17.05 Q9.55 12.85 6.2 7.2 L6.15 7.05 6.1 7.0 5.5 5.95 6.35 7.1 6.45 7.2 Q9.65 11.25 14.6 16.5 L19.05 18.0 25.6 20.25 29.45 21.65 32.65 23.0 32.75 23.05 Q35.4 24.25 36.9 25.15 M7.45 22.2 L7.6 22.4 8.2 23.25 9.4 24.8 10.0 25.65 Q14.35 31.0 21.2 36.85 L22.35 37.85 23.7 39.0 26.3 41.05 24.5 39.85 21.5 37.75 21.4 37.7 Q18.45 35.5 12.8 30.95 L8.9 24.85 8.85 24.75 8.4 24.05 8.0 23.25 7.55 22.4 7.45 22.2" fill="#3f4eb6" fill-rule="evenodd" stroke="none"/>
      <path d="M28.1 39.8 L28.25 40.0 30.9 43.85 29.8 43.65 Q28.1 42.5 26.3 41.05 L23.7 39.0 23.25 38.45 22.8 37.9 21.1 35.65 23.95 35.75 26.1 37.75 26.45 38.1 28.1 39.8 M7.45 22.2 L7.4 22.15 4.8 17.6 Q9.5 19.0 12.7 20.3 L14.85 21.55 15.2 21.9 16.45 23.35 16.9 23.85 18.45 25.55 18.5 25.6 23.15 30.7 25.05 34.1 Q25.05 34.65 24.3 34.7 L23.15 34.65 Q20.6 34.6 18.55 33.2 16.0 31.4 10.0 25.65 L9.4 24.8 8.2 23.25 7.6 22.4 7.45 22.2 M28.25 42.25 L28.45 42.55 28.45 42.4 28.25 42.25" fill="#78a8fd" fill-rule="evenodd" stroke="none"/>
      <path d="M37.05 35.25 L36.25 36.3 35.4 37.4 33.2 40.65 32.85 40.55 34.1 38.75 34.85 37.55 35.8 35.9 36.15 35.4 37.4 32.2 37.95 30.25 35.4 33.0 34.95 32.35 Q33.8 30.7 32.15 29.3 L31.4 29.15 30.25 29.0 28.9 29.05 27.2 29.15 Q24.9 29.45 24.9 30.05 L25.1 30.45 23.9 30.05 25.1 31.75 25.85 32.85 28.35 35.75 26.95 36.05 Q27.5 37.3 28.25 38.0 L28.3 38.1 31.05 40.15 27.75 39.3 26.9 38.1 25.15 35.7 27.2 35.15 25.15 32.9 23.15 30.7 18.5 25.6 18.45 25.55 20.3 25.25 24.0 24.95 24.85 24.95 29.4 25.3 30.45 26.05 31.15 26.6 35.9 30.7 36.0 30.75 36.8 29.5 36.8 29.95 38.8 28.2 39.6 30.4 39.7 30.75 38.95 32.25 37.4 34.8 37.15 35.15 37.05 35.25" fill="#f5b6b6" fill-rule="evenodd" stroke="none"/>
      <path d="M32.85 40.55 L31.05 40.15 28.3 38.1 28.25 38.0 Q27.5 37.3 26.95 36.05 L28.35 35.75 25.85 32.85 25.1 31.75 26.6 33.1 28.65 34.65 30.35 33.25 31.5 31.65 Q32.0 30.85 32.0 30.15 32.05 29.8 31.4 29.15 L32.15 29.3 Q33.8 30.7 34.95 32.35 L35.4 33.0 37.95 30.25 37.4 32.2 36.15 35.4 35.8 35.9 34.85 37.55 34.1 38.75 32.85 40.55" fill="#fff4f2" fill-rule="evenodd" stroke="none"/>
      <path d="M39.75 25.1 L39.7 26.4 39.65 27.55 39.65 27.65 39.65 29.4 39.8 30.5 39.8 30.6 39.7 30.75 39.6 30.4 38.8 28.2 36.8 29.95 36.8 29.5 37.4 28.65 38.25 27.35 39.75 25.1" fill="#985e71" fill-rule="evenodd" stroke="none"/>
      <path d="M2.1 -0.5 L16.6 -0.5 20.55 1.65 20.95 2.0 20.25 1.75 19.2 1.7 19.85 2.6 20.2 3.05 Q21.05 4.25 21.05 4.9 21.05 5.85 17.0 6.95 L9.7 8.6 8.2 7.05 8.2 7.0 5.7 4.15 5.0 3.25 2.1 -0.5 M33.2 -0.5 L36.8 -0.5 40.2 6.5 Q42.9 12.6 43.55 15.3 L43.6 15.55 Q42.95 17.8 41.95 19.95 L40.2 22.6 40.0 22.85 39.25 23.9 37.95 25.6 36.9 25.15 Q35.4 24.25 32.75 23.05 L32.65 23.0 29.45 21.65 15.75 13.55 15.05 12.85 Q13.3 11.2 13.3 10.75 13.4 9.15 17.9 7.2 L18.45 7.0 Q22.6 5.3 24.05 6.05 L21.65 3.9 21.65 3.7 23.05 3.75 26.5 6.6 26.3 6.0 25.8 4.8 25.65 4.55 28.45 4.45 31.6 4.6 34.35 5.15 Q35.1 5.45 35.45 5.85 L35.65 5.85 34.9 3.9 34.7 3.35 33.2 -0.5 M40.95 15.35 L41.25 15.3 41.0 14.85 Q40.1 12.7 38.55 10.55 L37.75 9.55 37.4 9.15 35.45 7.3 34.75 6.85 34.55 6.7 33.5 8.45 33.4 8.65 31.15 13.2 29.7 16.45 31.25 17.85 34.55 20.45 37.75 22.8 37.85 22.85 37.85 22.75 39.55 19.45 40.35 17.45 40.75 15.9 40.95 15.35" fill="url(#gradient8)" fill-rule="evenodd" stroke="none"/>
      <path d="M4.25 35.05 L4.75 34.4 6.2 32.3 6.7 31.5 7.7 29.7 7.4 29.25 5.35 26.3 4.25 24.25 3.75 23.2 3.3 22.1 3.1 21.75 Q1.55 17.7 1.3 14.1 L7.15 17.25 Q3.65 12.3 1.45 7.9 L1.25 7.45 0.45 5.7 -1.2 1.45 -1.7 -0.5 M16.6 -0.5 L20.55 1.65 21.3 2.05 22.3 2.7 23.2 3.25 27.25 3.05 29.2 3.0 31.7 3.2 32.6 3.3 32.85 -0.5 M37.75 -0.5 L39.3 1.8 39.5 -0.5 M46.7 -0.5 Q47.05 2.2 47.0 4.55 L46.95 5.25 47.55 4.65 48.6 3.6 48.85 3.35 48.9 7.25 48.85 7.95 48.35 12.25 48.35 12.3 47.9 14.15 47.25 16.25 47.2 16.45 46.85 17.15 46.1 18.95 46.4 18.85 47.05 18.7 47.65 18.6 47.0 20.15 46.15 21.9 44.5 24.8 43.8 25.55 Q43.1 26.3 42.2 26.85 L42.35 27.05 42.7 28.0 42.7 28.05 42.75 28.1 43.8 30.7 43.8 31.95 43.8 33.0 43.55 34.95 43.45 35.7 43.0 37.5 42.85 38.1 42.7 38.55 42.5 38.5 Q40.4 37.65 38.9 36.7 L38.25 36.25 37.05 35.25 36.25 36.3 35.4 37.4 33.2 40.65 32.85 40.55 31.05 40.15 27.75 39.3 28.1 39.8 28.25 40.0 30.9 43.85 29.8 43.65 27.25 42.95 Q24.7 42.1 21.1 40.4 17.9 38.9 15.0 36.75 11.9 34.45 9.25 31.5 L7.7 29.7 M42.0 6.35 L41.45 5.3 41.35 5.1 40.8 4.25 39.3 1.8 M42.0 6.35 Q43.2 8.55 44.05 10.8 L44.1 11.0 44.4 11.85 45.1 14.4 45.1 14.5 44.65 15.55 44.6 15.9 Q43.5 18.95 41.8 21.85 L41.45 22.5 40.75 23.55 42.2 26.85 M41.0 14.85 L40.95 15.35 41.25 15.3 41.0 14.85 Q40.1 12.7 38.55 10.55 L37.75 9.55 37.4 9.15 35.45 7.3 34.75 6.85 34.55 6.7 33.5 8.45 33.4 8.65 31.15 13.2 29.7 16.45 31.25 17.85 34.55 20.45 37.75 22.8 37.85 22.85 37.85 22.75 39.55 19.45 40.35 17.45 40.75 15.9 40.95 15.35 M12.7 20.3 L10.15 18.95 7.3 17.4 7.15 17.25 M-1.9 20.85 L-1.7 21.0 0.95 22.95 0.9 23.15 0.8 23.8 0.75 23.9 Q0.4 25.85 0.35 27.7 L0.4 28.9 1.65 28.35 2.3 28.1 2.25 28.35 2.05 29.9 2.3 31.75 2.85 33.75 2.9 33.9 3.55 35.8 4.25 35.05 M23.15 30.7 L18.5 25.6 18.45 25.55 16.9 23.85 16.45 23.35 15.2 21.9 14.85 21.55 12.7 20.3 M15.2 21.9 L15.35 21.85 14.85 21.55 M39.75 25.1 L39.7 26.4 39.65 27.55 39.65 27.65 39.65 29.4 39.8 30.5 39.8 30.6 39.7 30.75 38.95 32.25 37.4 34.8 37.15 35.15 37.05 35.25 M39.75 25.1 L38.25 27.35 37.4 28.65 36.8 29.5 36.0 30.75 35.9 30.7 31.15 26.6 30.45 26.05 29.4 25.3 24.85 24.95 24.0 24.95 20.3 25.25 18.45 25.55 M27.75 39.3 L26.9 38.1 25.15 35.7 27.2 35.15 25.15 32.9 23.15 30.7 M40.75 23.55 L39.75 25.1" fill="none" stroke="#333b70" stroke-linecap="round" stroke-linejoin="round" stroke-width="1.0"/>
      <path d="M29.1 28.35 L29.6 28.3 32.3 27.75 30.5 26.45 30.45 26.4 28.0 24.7 25.35 24.4 23.65 24.5 22.1 24.6 19.95 24.85 21.7 26.3 21.15 26.4 21.05 26.45 22.55 27.05 22.95 27.4 23.25 27.65 24.05 28.3 25.75 29.25 25.35 28.7 25.3 28.7 27.4 28.45 27.65 28.45 27.75 28.45 27.65 28.45 25.85 28.25 25.2 28.1 24.5 27.8 24.05 27.55 24.0 27.45 23.9 27.4 23.45 27.0 23.3 26.8 23.25 26.75 22.35 25.6 23.4 25.35 23.95 25.3 25.35 25.3 25.95 25.3 26.75 25.4 26.85 25.4 27.05 25.4 27.3 25.5 27.75 25.7 28.45 26.05 31.05 27.45 29.1 28.35" fill="#030310" fill-rule="evenodd" stroke="none"/>
      <path d="M28.45 26.05 L27.75 25.7 27.3 25.5 27.05 25.4 26.85 25.4 26.75 25.4 25.95 25.3 25.35 25.3 23.95 25.3 23.4 25.35 22.35 25.6 23.25 26.75 23.3 26.8 23.45 26.9 23.25 26.55 23.1 26.05 23.0 25.75 23.0 25.6 23.35 25.6 24.2 25.75 24.25 25.75 24.5 25.65 26.05 25.85 26.05 26.05 Q26.05 26.9 25.05 27.3 L24.0 27.45 24.4 27.5 Q25.5 27.55 26.2 26.8 L26.7 25.85 27.15 26.0 27.2 26.0 27.9 26.2 27.9 26.25 Q27.9 26.95 27.4 27.35 L27.35 27.4 27.4 27.65 27.4 27.8 27.35 27.8 26.7 27.8 26.65 27.75 25.55 27.85 24.55 27.8 24.5 27.8 25.2 28.1 25.85 28.25 27.3 28.0 27.55 27.85 Q28.25 27.35 28.45 26.35 L28.45 26.05" fill="#d0409f" fill-rule="evenodd" stroke="none"/>
      <path d="M23.3 26.8 L23.45 27.0 23.9 27.4 24.0 27.45 24.05 27.55 24.5 27.8 24.55 27.8 25.55 27.85 26.65 27.75 26.55 27.2 26.6 27.05 Q27.25 27.0 27.35 27.4 L27.4 27.35 Q27.9 26.95 27.9 26.25 L27.9 26.2 27.2 26.0 27.15 26.0 26.7 25.85 26.2 26.8 Q25.5 27.55 24.4 27.5 L24.0 27.45 25.05 27.3 Q26.05 26.9 26.05 26.05 L26.05 25.85 24.5 25.65 24.25 25.75 24.9 26.3 24.9 26.9 24.85 26.95 24.6 27.0 Q24.25 27.0 23.65 26.55 L23.25 26.3 23.1 26.05 23.25 26.55 23.45 26.9 23.3 26.8" fill="#fc89f1" fill-rule="evenodd" stroke="none"/>
      <path d="M29.1 28.35 L31.05 27.45 28.45 26.05 28.45 26.35 Q28.25 27.35 27.55 27.85 L27.3 28.0 25.85 28.25 27.65 28.45 27.75 28.45 28.75 28.35 29.1 28.35" fill="#552562" fill-rule="evenodd" stroke="none"/>
      <path d="M24.25 25.75 L24.2 25.75 23.35 25.6 23.0 25.6 23.0 25.75 23.1 26.05 23.25 26.3 23.65 26.55 Q24.25 27.0 24.6 27.0 L24.85 26.95 24.9 26.9 24.9 26.3 24.25 25.75 M26.65 27.75 L26.7 27.8 27.35 27.8 27.4 27.8 27.4 27.65 27.35 27.4 Q27.25 27.0 26.6 27.05 L26.55 27.2 26.65 27.75" fill="#ffffff" fill-rule="evenodd" stroke="none"/>
      <path d="M34.15 34.75 Q30.8 35.75 30.0 36.7 L29.8 36.75 29.7 36.85 30.5 36.5 Q31.25 36.15 32.05 36.15 32.9 36.15 33.5 35.55 L34.15 34.75" fill="#99339f" fill-rule="evenodd" stroke="none"/>
      <path d="M10.45 52.4 L12.9 51.35 15.0 50.1 22.55 53.9 18.05 53.9 16.0 53.05 11.3 53.35 11.0 53.4 8.2 53.8 6.95 52.75 Q6.75 52.75 5.7 53.9 L4.25 53.9 4.8 53.05 6.2 51.15 7.25 52.0 8.4 53.0 10.45 52.4 M-0.95 52.55 L-0.2 52.35 1.35 53.9 -0.15 53.9 -0.55 53.9 -0.95 53.9 -0.95 52.55 M38.15 45.95 L40.05 46.35 52.05 49.3 52.65 49.5 54.55 50.1 56.3 50.65 56.3 52.5 Q54.45 51.6 52.55 50.85 L51.55 50.5 40.1 46.55 38.15 45.95" fill="#5de6ec" fill-rule="evenodd" stroke="none"/>
      <path d="M54.95 53.9 L54.35 53.5 53.95 53.15 54.1 52.9 54.95 53.2 55.4 53.55 55.35 53.8 54.95 53.9" fill="#8efaff" fill-rule="evenodd" stroke="none"/>
      <path d="M-0.95 30.45 L-0.95 15.9 Q4.4 24.35 9.2 33.25 L8.75 33.0 Q4.05 30.7 1.95 30.55 L-0.95 30.45" fill="#50cfbe" fill-rule="evenodd" stroke="none"/>
      <path d="M38.15 45.95 L40.1 46.55 51.55 50.5 52.55 50.85 Q54.45 51.6 56.3 52.5 L56.3 53.9 54.95 53.9 55.35 53.8 55.4 53.55 54.95 53.2 54.1 52.9 53.95 53.15 54.35 53.5 54.95 53.9 46.15 53.9 43.35 51.1 40.05 48.1 38.15 46.35 37.5 45.8 38.15 45.95 M42.65 49.3 L40.1 47.6 Q39.1 46.9 38.15 46.35 39.1 46.9 40.1 47.6 L42.65 49.3" fill="#48a0c8" fill-rule="evenodd" stroke="none"/>
      <path d="M-0.95 33.55 L-0.1 33.45 Q0.65 33.5 1.45 34.6 L2.2 36.15 Q0.25 38.0 -0.8 39.65 L-0.95 39.95 -0.95 33.55 M1.5 41.9 L1.85 41.35 2.0 41.0 Q4.15 36.8 6.1 36.85 7.3 36.85 8.45 39.0 L8.95 40.2 Q7.75 41.95 6.95 44.3 L6.5 45.55 6.15 46.9 5.45 50.05 5.05 50.35 3.45 50.7 Q1.9 50.65 0.9 49.05 0.05 47.6 0.1 46.05 0.15 44.75 1.5 41.9 M2.15 42.4 L1.95 43.75 Q1.9 44.3 2.2 44.75 2.6 45.4 3.45 45.4 4.1 45.45 4.5 44.85 L4.8 44.2 5.0 43.25 5.05 42.85 Q5.1 41.05 3.55 41.25 2.95 41.35 2.5 41.75 L2.15 42.4 M9.05 47.2 Q9.1 46.45 9.55 45.6 L10.0 44.7 Q11.0 43.3 11.75 43.3 12.75 43.35 13.5 44.8 L13.65 45.1 12.8 47.0 12.6 47.55 12.1 49.8 11.1 50.05 Q10.1 50.0 9.55 49.15 9.05 48.3 9.05 47.2 M10.0 47.45 L10.6 47.5 11.35 47.25 11.55 46.8 11.6 45.85 Q11.0 45.45 10.4 46.0 L10.35 46.0 Q10.0 46.5 10.0 47.0 L10.0 47.45" fill="#60fbf5" fill-rule="evenodd" stroke="none"/>
      <path d="M-0.95 39.95 L-0.8 39.65 Q0.25 38.0 2.2 36.15 L1.45 34.6 Q0.65 33.5 -0.1 33.45 L-0.95 33.55 -0.95 30.45 1.95 30.55 Q4.05 30.7 8.75 33.0 L9.2 33.25 9.7 34.3 13.6 37.4 17.45 40.75 16.65 40.75 Q19.15 41.8 23.0 43.75 L23.05 43.85 25.85 45.35 26.55 46.2 Q27.05 47.15 27.0 49.6 L26.9 50.55 26.4 52.0 Q25.85 52.9 24.35 52.85 L23.0 52.75 24.3 53.9 22.55 53.9 15.0 50.1 12.9 51.35 10.45 52.4 8.35 49.85 6.15 46.9 6.5 45.55 6.95 44.3 Q7.75 41.95 8.95 40.2 L8.45 39.0 Q7.3 36.85 6.1 36.85 4.15 36.8 2.0 41.0 L1.85 41.35 1.5 41.9 Q0.35 41.1 -0.95 40.55 L-0.95 39.95 M13.95 40.7 L16.65 40.75 13.95 40.7 M9.05 47.2 Q9.05 48.3 9.55 49.15 10.1 50.0 11.1 50.05 L12.1 49.8 12.6 47.55 12.8 47.0 13.65 45.1 13.5 44.8 Q12.75 43.35 11.75 43.3 11.0 43.3 10.0 44.7 L9.55 45.6 Q9.1 46.45 9.05 47.2" fill="#4dcac2" fill-rule="evenodd" stroke="none"/>
      <path d="M2.15 42.4 L2.5 41.75 Q2.95 41.35 3.55 41.25 5.1 41.05 5.05 42.85 L5.0 43.25 4.8 44.2 4.5 44.85 Q4.1 45.45 3.45 45.4 2.6 45.4 2.2 44.75 1.9 44.3 1.95 43.75 L2.15 42.4 M10.0 47.45 L10.0 47.0 Q10.0 46.5 10.35 46.0 L10.4 46.0 Q11.0 45.45 11.6 45.85 L11.55 46.8 11.35 47.25 10.6 47.5 10.0 47.45" fill="#e5fffe" fill-rule="evenodd" stroke="none"/>
      <path d="M-0.95 40.55 Q0.35 41.1 1.5 41.9 0.15 44.75 0.1 46.05 0.05 47.6 0.9 49.05 1.9 50.65 3.45 50.7 L5.05 50.35 5.45 50.05 6.15 46.9 8.35 49.85 10.45 52.4 8.4 53.0 7.25 52.0 6.2 51.15 4.8 53.05 4.25 53.9 1.35 53.9 -0.2 52.35 -0.95 52.55 -0.95 40.55" fill="#4babb7" fill-rule="evenodd" stroke="none"/>
      <path d="M5.7 53.9 Q6.75 52.75 6.95 52.75 L8.2 53.8 11.0 53.4 11.3 53.35 16.0 53.05 18.05 53.9 5.7 53.9" fill="#60f9f6" fill-rule="evenodd" stroke="none"/>
      <path d="M24.3 53.9 L23.0 52.75 24.35 52.85 Q25.85 52.9 26.4 52.0 L26.9 50.55 27.0 49.6 Q27.05 47.15 26.55 46.2 L25.85 45.35 23.05 43.85 23.0 43.75 Q19.15 41.8 16.65 40.75 L17.45 40.75 23.5 41.2 24.4 41.35 Q28.0 41.9 31.45 42.9 33.35 43.4 37.15 45.75 L38.15 46.35 40.05 48.1 43.35 51.1 46.15 53.9 24.3 53.9" fill="#4badba" fill-rule="evenodd" stroke="none"/>
      <path d="M16.65 40.75 L13.95 40.7 M9.2 33.25 Q4.4 24.35 -0.95 15.9 M17.45 40.75 L13.6 37.4 9.7 34.3 9.2 33.25 M17.45 40.75 L16.65 40.75 M38.15 46.35 L37.15 45.75 Q33.35 43.4 31.45 42.9 28.0 41.9 24.4 41.35 L23.5 41.2 17.45 40.75 M56.3 50.65 L54.55 50.1 52.65 49.5 52.05 49.3 40.05 46.35 38.15 45.95 37.5 45.8 37.15 45.75 M38.15 46.35 Q39.1 46.9 40.1 47.6 L42.65 49.3 M5.7 53.9 Q6.75 52.75 6.95 52.75 L8.2 53.8 11.0 53.4 11.3 53.35 16.0 53.05 18.05 53.9" fill="none" stroke="#333b70" stroke-linecap="round" stroke-linejoin="round" stroke-width="1.0"/>
    </g>
    <linearGradient gradientTransform="matrix(-0.0372, -0.0534, -0.023, 0.0161, -3.5, -66.25)" gradientUnits="userSpaceOnUse" id="gradient0" spreadMethod="pad" x1="-819.2" x2="819.2">
      <stop offset="0.0" stop-color="#62fdf9"/>
      <stop offset="1.0" stop-color="#584177"/>
    </linearGradient>
    <linearGradient gradientTransform="matrix(-0.0564, -0.0015, -0.0016, 0.0615, -6.3, -30.9)" gradientUnits="userSpaceOnUse" id="gradient1" spreadMethod="pad" x1="-819.2" x2="819.2">
      <stop offset="0.0" stop-color="#702885"/>
      <stop offset="1.0" stop-color="#37195f"/>
    </linearGradient>
    <linearGradient gradientTransform="matrix(-0.0404, -0.0011, -0.0016, 0.064, -24.2, -36.25)" gradientUnits="userSpaceOnUse" id="gradient2" spreadMethod="pad" x1="-819.2" x2="819.2">
      <stop offset="0.0" stop-color="#702885"/>
      <stop offset="1.0" stop-color="#37195f"/>
    </linearGradient>
    <linearGradient gradientTransform="matrix(0.0198, 0.0109, 0.0094, -0.0172, 29.6, 7.9)" gradientUnits="userSpaceOnUse" id="gradient3" spreadMethod="pad" x1="-819.2" x2="819.2">
      <stop offset="0.0" stop-color="#78c6fd"/>
      <stop offset="1.0" stop-color="#5c72e9"/>
    </linearGradient>
    <linearGradient gradientTransform="matrix(-0.1644, -0.0292, -0.1186, 0.6952, 44.7, -180.75)" gradientUnits="userSpaceOnUse" id="gradient4" spreadMethod="pad" x1="-819.2" x2="819.2">
      <stop offset="0.0" stop-color="#0c0910"/>
      <stop offset="0.3254901960784314" stop-color="#291e38"/>
      <stop offset="0.6941176470588235" stop-color="#2c203c"/>
      <stop offset="1.0" stop-color="#0c0910"/>
    </linearGradient>
    <linearGradient gradientTransform="matrix(-0.0404, -0.0011, -0.0016, 0.064, -24.1, -36.35)" gradientUnits="userSpaceOnUse" id="gradient5" spreadMethod="pad" x1="-819.2" x2="819.2">
      <stop offset="0.0" stop-color="#702885"/>
      <stop offset="1.0" stop-color="#37195f"/>
    </linearGradient>
    <linearGradient gradientTransform="matrix(-0.0372, -0.0534, -0.023, 0.0161, -3.4, -66.3)" gradientUnits="userSpaceOnUse" id="gradient6" spreadMethod="pad" x1="-819.2" x2="819.2">
      <stop offset="0.0" stop-color="#62fdf9"/>
      <stop offset="1.0" stop-color="#584177"/>
    </linearGradient>
    <linearGradient gradientTransform="matrix(-0.0564, -0.0015, -0.0016, 0.0615, -6.2, -31.0)" gradientUnits="userSpaceOnUse" id="gradient7" spreadMethod="pad" x1="-819.2" x2="819.2">
      <stop offset="0.0" stop-color="#702885"/>
      <stop offset="1.0" stop-color="#37195f"/>
    </linearGradient>
    <linearGradient gradientTransform="matrix(0.0198, 0.0109, 0.0094, -0.0172, 29.7, 7.8)" gradientUnits="userSpaceOnUse" id="gradient8" spreadMethod="pad" x1="-819.2" x2="819.2">
      <stop offset="0.0" stop-color="#78c6fd"/>
      <stop offset="1.0" stop-color="#5c72e9"/>
    </linearGradient>
    <g id="shape2" transform="matrix(1.0, 0.0, 0.0, 1.0, 0.0, 0.0)">
      <path d="M50.5 0.0 Q53.95 0.0 53.95 3.3 L53.95 50.15 Q53.95 53.4 50.5 53.4 L3.3 53.4 Q0.0 53.4 0.0 50.15 L0.0 3.3 Q0.0 0.0 3.3 0.0 L50.5 0.0" fill="#000000" fill-opacity="0.003921569" fill-rule="evenodd" stroke="none"/>
    </g>
  </defs>
</svg>
