<?xml version="1.0" encoding="UTF-8" standalone="no"?>
<svg xmlns:ffdec="https://www.free-decompiler.com/flash" xmlns:xlink="http://www.w3.org/1999/xlink" ffdec:objectType="frame" height="55.45px" width="56.75px" xmlns="http://www.w3.org/2000/svg">
  <g transform="matrix(1.0, 0.0, 0.0, 1.0, 0.95, 0.55)">
    <clipPath id="clipPath0" transform="matrix(1.0, 0.0, 0.0, 1.0, 0.0, 0.0)">
      <path d="M50.5 0.0 Q53.95 0.0 53.95 3.3 L53.95 50.15 Q53.95 53.4 50.5 53.4 L3.3 53.4 Q0.0 53.4 0.0 50.15 L0.0 3.3 Q0.0 0.0 3.3 0.0 L50.5 0.0" fill="#000000" fill-rule="evenodd" stroke="none"/>
    </clipPath>
    <g clip-path="url(#clipPath0)">
      <use ffdec:characterId="4" height="55.45" transform="matrix(1.0, 0.0, 0.0, 1.0, -0.95, -0.55)" width="56.75" xlink:href="#shape1"/>
    </g>
    <use ffdec:characterId="5" height="53.4" transform="matrix(1.0, 0.0, 0.0, 1.0, 0.0, 0.0)" width="53.95" xlink:href="#shape2"/>
  </g>
  <defs>
    <g id="shape1" transform="matrix(1.0, 0.0, 0.0, 1.0, 0.95, 0.55)">
      <path d="M5.35 -0.05 L10.85 -0.05 10.55 0.0 Q12.2 0.3 13.95 1.65 L14.75 2.3 19.85 6.65 23.55 8.15 Q26.5 9.15 28.05 9.95 L28.75 10.3 29.95 11.1 32.3 13.15 34.3 15.3 34.3 14.6 33.35 12.0 Q32.5 10.05 31.25 8.2 L28.55 4.5 Q26.25 1.7 24.25 -0.05 L24.9 -0.05 24.95 0.0 25.45 0.6 31.65 7.8 31.85 8.0 Q33.8 10.2 34.65 12.4 35.55 14.5 35.45 16.55 L35.4 17.45 34.5 23.5 33.9 24.25 Q34.5 23.6 34.45 23.85 L34.15 24.8 33.0 27.3 32.95 27.35 33.05 25.5 33.0 24.3 Q32.7 20.05 30.6 16.65 L29.2 14.7 Q27.4 12.65 24.8 11.1 L22.8 10.1 16.0 7.3 Q11.3 5.1 12.5 2.7 11.75 2.65 11.3 4.6 10.85 6.15 10.85 7.4 10.85 8.85 11.5 10.55 L12.25 12.2 10.8 10.65 9.35 9.1 10.55 10.7 12.55 13.05 13.15 13.65 13.4 14.0 13.5 14.15 13.3 14.0 9.9 10.8 9.4 10.3 Q7.25 7.75 6.25 5.2 L6.05 4.65 6.25 5.2 Q7.25 7.75 9.4 10.3 L9.15 10.2 8.75 9.95 8.2 9.95 6.5 8.35 4.3 6.25 4.3 6.2 4.05 6.2 4.05 9.4 4.05 9.95 3.35 8.8 2.65 7.2 Q2.05 5.4 2.05 3.3 L2.2 0.55 Q2.75 1.85 4.3 3.25 L6.05 4.65 Q5.3 2.55 5.3 0.45 L5.35 -0.05 M13.85 -0.05 L19.65 -0.05 20.65 0.6 20.7 0.65 22.35 2.2 21.55 -0.05 23.2 -0.05 Q23.8 1.3 24.4 3.7 L24.4 4.8 24.5 4.85 24.3 4.9 Q23.75 3.85 20.1 2.05 18.3 1.1 16.65 0.6 L13.85 -0.05 M31.75 -0.05 L33.8 -0.05 36.0 1.8 Q39.65 4.75 41.1 6.7 L42.15 8.35 Q41.6 7.45 39.9 5.85 L37.25 3.8 35.15 2.55 33.6 1.4 32.3 0.45 32.15 0.3 31.75 -0.05 M-0.45 14.1 L-0.45 10.7 1.2 12.45 2.0 13.15 2.05 13.2 2.0 13.2 1.55 13.15 -0.15 13.5 0.25 13.95 1.05 14.9 0.2 14.45 -0.25 14.2 -0.45 14.1 M-0.45 10.35 L-0.45 8.0 0.2 8.55 2.4 9.75 4.05 9.95 4.3 10.75 4.85 12.15 5.1 12.6 6.1 14.25 6.05 14.45 3.8 13.5 2.6 13.25 2.4 13.05 1.55 12.25 -0.45 10.35 M42.45 8.8 L42.45 9.05 42.4 8.85 42.45 8.8 M44.95 17.7 L44.9 17.35 45.0 17.5 45.05 17.6 44.95 17.7 M32.4 28.15 L32.3 28.0 32.45 28.05 32.4 28.15 M24.4 4.8 L22.35 2.2 24.4 4.8 M5.5 5.65 L4.6 5.6 4.35 5.95 4.6 6.45 5.4 6.5 Q5.6 6.75 5.6 6.15 L5.5 5.65 M33.55 28.2 L33.45 28.3 33.4 28.3 33.55 28.2" fill="#546c6e" fill-rule="evenodd" stroke="none"/>
      <path d="M13.15 13.65 L12.55 13.05 10.55 10.7 9.35 9.1 10.8 10.65 12.25 12.2 12.6 12.5 14.3 13.9 Q16.15 15.25 18.35 15.95 21.95 17.1 24.65 18.75 27.55 20.45 29.45 22.8 L29.35 22.9 Q27.7 21.2 24.8 19.45 L24.5 19.25 Q21.3 17.4 17.65 16.25 15.4 15.6 13.55 14.0 L13.15 13.65 M24.25 -0.05 Q26.25 1.7 28.55 4.5 L31.25 8.2 Q32.5 10.05 33.35 12.0 L34.3 14.6 34.3 15.3 32.3 13.15 29.95 11.1 28.75 10.3 28.05 9.95 Q26.5 9.15 23.55 8.15 L19.85 6.65 14.75 2.3 13.95 1.65 Q12.2 0.3 10.55 0.0 L10.85 -0.05 13.85 -0.05 16.65 0.6 Q18.3 1.1 20.1 2.05 23.75 3.85 24.3 4.9 L24.5 4.85 24.4 4.8 24.4 3.7 Q23.8 1.3 23.2 -0.05 L24.25 -0.05 M26.1 3.3 Q24.8 2.4 24.4 2.25 L24.35 2.3 25.35 3.2 27.05 5.1 28.25 7.05 28.8 8.1 28.9 8.1 28.9 7.65 28.45 5.85 28.05 4.9 26.5 3.65 26.1 3.3 M16.75 12.65 L16.4 12.85 16.1 12.6 16.75 12.4 16.75 12.65 M18.5 14.55 L18.55 14.2 18.65 14.25 Q19.5 14.15 19.5 14.8 L19.45 15.15 19.1 15.2 18.5 14.55" fill="#7a8f91" fill-rule="evenodd" stroke="none"/>
      <path d="M32.95 27.35 L33.0 27.3 34.15 24.8 34.45 23.85 Q34.5 23.6 33.9 24.25 L34.5 23.5 35.4 17.45 35.45 16.55 Q35.55 14.5 34.65 12.4 33.8 10.2 31.85 8.0 L31.65 7.8 25.45 0.6 24.95 0.0 24.9 -0.05 25.75 -0.05 31.75 -0.05 32.15 0.3 32.3 0.45 33.6 1.4 35.15 2.55 36.4 3.7 36.4 3.75 Q40.9 8.4 40.9 13.65 L40.9 14.95 Q40.7 16.8 40.1 18.6 L38.35 22.3 35.8 25.55 33.9 27.7 33.5 28.15 33.55 28.2 33.85 28.1 34.2 27.8 34.3 27.65 36.2 25.7 Q38.6 23.0 39.85 20.95 L40.5 19.7 40.9 19.05 41.1 18.55 42.05 15.55 42.4 12.45 42.2 10.25 42.8 11.05 43.2 11.85 43.25 11.85 43.3 12.0 43.25 12.05 43.45 13.6 43.25 16.2 42.2 19.8 40.5 22.7 40.25 22.95 39.85 23.5 37.2 25.9 37.15 25.9 37.3 26.1 40.25 24.1 Q42.2 22.55 43.5 20.55 L44.0 19.6 44.75 21.4 44.9 22.2 Q44.25 24.4 42.1 25.95 L41.95 26.1 40.95 26.65 40.7 26.8 39.3 27.45 36.1 28.2 35.25 28.3 33.55 28.35 33.55 28.2 33.4 28.3 33.3 28.35 33.25 28.35 33.1 28.4 32.9 28.5 32.85 28.5 32.75 28.55 32.7 28.55 32.7 28.5 32.45 28.2 32.4 28.15 32.45 28.05 32.85 27.45 32.95 27.35 M35.8 19.6 L36.75 17.15 36.8 17.05 37.05 15.7 36.75 13.15 Q35.9 9.6 32.8 6.15 L29.3 2.9 25.75 -0.05 29.3 2.9 32.8 6.15 Q35.9 9.6 36.75 13.15 L37.05 15.7 36.8 17.05 36.75 17.15 35.8 19.6 M43.25 12.05 L43.25 11.85 43.25 12.05 M37.15 25.9 L37.0 26.1 35.9 26.85 34.25 27.85 33.85 28.1 34.25 27.85 35.9 26.85 37.0 26.1 37.15 25.9 M41.3 29.75 L41.95 29.2 43.15 27.8 Q44.7 25.85 44.95 24.5 L45.05 24.6 45.85 29.25 45.85 29.3 45.9 29.3 45.85 29.35 45.05 31.75 Q43.7 32.05 40.9 33.15 L41.6 30.95 41.65 30.55 41.65 29.75 41.3 29.75 M43.15 24.1 Q42.45 24.05 42.05 24.5 L41.25 25.45 41.05 25.55 Q41.6 25.45 43.15 24.3 L43.15 24.1 M44.4 29.55 L42.95 31.2 Q43.55 31.1 44.15 30.65 44.9 30.15 44.9 29.7 L44.85 29.6 44.75 29.8 44.65 29.45 44.55 29.35 44.4 29.55" fill="#3e5859" fill-rule="evenodd" stroke="none"/>
      <path d="M20.55 -0.05 L21.55 -0.05 22.35 2.2 20.7 0.65 20.65 0.6 20.55 -0.05 M2.2 0.55 L2.05 3.3 Q2.05 5.4 2.65 7.2 L3.35 8.8 4.05 9.95 2.4 9.75 1.9 7.6 1.85 7.3 Q1.35 5.35 1.35 4.25 1.35 2.95 1.6 1.85 1.75 0.95 2.05 0.2 L2.2 0.55" fill="#7ff8ff" fill-rule="evenodd" stroke="none"/>
      <path d="M5.35 -0.05 L5.3 0.45 Q5.3 2.55 6.05 4.65 L4.3 3.25 Q2.75 1.85 2.2 0.55 L2.05 0.2 Q1.75 0.95 1.6 1.85 1.35 2.95 1.35 4.25 1.35 5.35 1.85 7.3 L1.9 7.6 2.4 9.75 0.2 8.55 -0.45 8.0 -0.45 -0.05 5.35 -0.05 M19.65 -0.05 L20.55 -0.05 20.65 0.6 19.65 -0.05 M47.05 -0.05 L50.8 -0.05 53.45 1.6 55.3 2.8 55.3 16.7 53.45 12.55 52.35 10.2 47.05 -0.05 M-0.45 24.3 L-0.45 23.9 1.25 26.25 1.75 26.85 1.85 27.0 1.6 27.1 -0.45 24.3 M3.6 29.15 L4.4 30.15 3.5 29.25 3.6 29.15" fill="url(#gradient0)" fill-rule="evenodd" stroke="none"/>
      <path d="M50.8 -0.05 L55.3 -0.05 55.3 2.8 53.45 1.6 50.8 -0.05" fill="url(#gradient1)" fill-rule="evenodd" stroke="none"/>
      <path d="M42.15 8.35 L41.1 6.7 Q39.65 4.75 36.0 1.8 L33.8 -0.05 47.05 -0.05 52.35 10.2 53.45 12.55 55.3 16.7 55.3 26.05 53.45 24.1 Q49.45 20.05 44.85 17.2 L44.2 14.6 43.3 12.0 43.25 11.85 42.45 9.1 42.45 9.05 42.45 8.8 42.4 8.85 42.15 8.35 M55.3 31.7 L55.3 33.9 Q54.3 33.3 53.45 33.1 L51.35 32.75 51.55 31.8 51.75 30.95 Q51.75 30.55 49.85 29.8 L47.4 29.1 45.95 29.2 Q46.4 27.05 46.45 24.9 L46.45 24.65 46.4 22.65 Q49.9 25.35 53.05 28.9 L53.0 28.9 53.45 29.45 55.3 31.7 M55.3 35.0 L55.3 39.8 53.45 37.65 53.2 37.35 53.15 37.35 52.6 37.55 53.0 37.15 53.2 37.15 53.3 37.25 53.4 37.15 53.45 37.15 54.5 36.2 55.3 35.0 M42.45 8.8 L42.5 9.15 42.45 9.1 42.5 9.15 42.45 8.8 M41.95 26.1 L42.1 25.95 41.9 26.6 41.95 26.1 M33.1 28.4 L33.1 28.45 32.9 28.5 33.1 28.4 M14.85 40.0 L14.95 39.9 15.05 40.25 14.85 40.0" fill="#d43f3e" fill-rule="evenodd" stroke="none"/>
      <path d="M35.15 2.55 L37.25 3.8 39.9 5.85 Q41.6 7.45 42.15 8.35 L42.4 8.85 42.45 9.05 42.45 9.1 43.25 11.85 43.2 11.85 42.8 11.05 42.2 10.25 42.4 12.45 42.05 15.55 41.1 18.55 40.95 18.5 41.65 15.35 41.7 13.45 Q41.7 5.9 36.4 3.75 L36.4 3.7 35.15 2.55 M43.25 12.05 L43.3 12.0 44.2 14.6 44.85 17.2 44.9 17.35 44.95 17.7 45.05 17.6 45.9 19.25 46.0 19.75 46.0 19.85 46.4 22.65 46.45 24.65 46.35 24.75 46.0 23.85 45.85 23.05 Q45.45 24.3 42.95 25.85 42.45 26.25 41.9 26.6 L42.1 25.95 Q44.25 24.4 44.9 22.2 L45.1 21.65 45.2 20.1 45.2 20.0 45.15 20.05 44.2 17.7 44.0 17.65 Q43.9 18.8 42.85 20.2 L42.2 21.0 40.5 22.7 42.2 19.8 43.25 16.2 43.45 13.6 43.25 12.05 M44.95 17.7 L45.15 19.45 45.2 19.8 45.2 20.0 45.2 19.8 45.15 19.45 44.95 17.7" fill="#1a2b2c" fill-rule="evenodd" stroke="none"/>
      <path d="M40.5 22.7 L42.2 21.0 42.85 20.2 Q43.9 18.8 44.0 17.65 L44.2 17.7 45.15 20.05 45.2 20.1 45.1 21.65 44.9 22.2 44.75 21.4 44.0 19.6 43.5 20.55 Q42.2 22.55 40.25 24.1 L37.3 26.1 37.15 25.9 37.2 25.9 39.85 23.5 40.25 22.95 40.5 22.7 M36.4 3.75 Q41.7 5.9 41.7 13.45 L41.65 15.35 40.95 18.5 41.1 18.55 40.9 19.05 40.5 19.7 39.85 20.95 Q38.6 23.0 36.2 25.7 L34.3 27.65 34.2 27.8 33.85 28.1 33.55 28.2 33.5 28.15 33.9 27.7 35.8 25.55 38.35 22.3 40.1 18.6 Q40.7 16.8 40.9 14.95 L40.9 13.65 Q40.9 8.4 36.4 3.75 M45.9 29.3 L45.85 29.3 45.85 29.25 45.05 24.6 44.95 24.5 Q44.7 25.85 43.15 27.8 L41.95 29.2 41.3 29.75 41.05 29.75 40.7 29.75 39.6 29.85 40.9 28.45 41.9 26.65 41.9 26.6 Q42.45 26.25 42.95 25.85 45.45 24.3 45.85 23.05 L46.0 23.85 46.35 24.75 46.35 24.8 46.45 24.65 46.45 24.9 Q46.4 27.05 45.95 29.2 L45.9 29.3 M22.45 24.45 L20.1 23.85 17.2 23.45 17.1 23.6 15.6 22.05 14.4 21.1 12.1 19.35 11.3 18.6 Q10.85 18.0 10.85 17.65 12.25 18.95 16.55 21.1 L18.0 21.8 Q20.65 23.15 22.45 24.45 M11.2 22.15 L11.3 22.1 12.2 22.7 14.85 24.3 15.6 24.85 18.65 27.45 18.7 27.8 18.7 28.0 18.8 29.55 18.7 29.55 17.75 29.4 17.5 29.0 14.25 25.1 11.85 22.75 11.2 22.15" fill="#293e3f" fill-rule="evenodd" stroke="none"/>
      <path d="M55.3 26.05 L55.3 31.7 53.45 29.45 53.0 28.9 53.05 28.9 Q49.9 25.35 46.4 22.65 L46.0 19.85 46.0 19.75 45.9 19.25 45.05 17.6 45.0 17.5 44.9 17.35 44.85 17.2 Q49.45 20.05 53.45 24.1 L55.3 26.05" fill="url(#gradient2)" fill-rule="evenodd" stroke="none"/>
      <path d="M45.15 20.05 L45.2 20.0 45.2 20.1 45.15 20.05 M46.45 24.65 L46.35 24.8 46.35 24.75 46.45 24.65 M23.65 24.95 L23.2 24.7 22.45 24.45 Q20.65 23.15 18.0 21.8 L16.55 21.1 Q12.25 18.95 10.85 17.65 10.85 18.0 11.3 18.6 8.9 16.5 8.25 15.0 L8.1 14.6 8.4 15.0 Q10.6 17.55 16.75 20.2 L20.0 21.75 Q23.0 23.3 24.55 24.9 L25.25 25.7 Q24.55 25.25 23.65 24.95" fill="#1b2d2e" fill-rule="evenodd" stroke="none"/>
      <path d="M43.15 24.1 L43.15 24.3 Q41.6 25.45 41.05 25.55 L41.25 25.45 42.05 24.5 Q42.45 24.05 43.15 24.1 M44.4 29.55 L44.55 29.35 44.65 29.45 44.75 29.8 44.85 29.6 44.9 29.7 Q44.9 30.15 44.15 30.65 43.55 31.1 42.95 31.2 L44.4 29.55" fill="#8ba6a8" fill-rule="evenodd" stroke="none"/>
      <path d="M55.3 33.9 L55.3 35.0 54.5 36.2 53.45 37.15 53.4 37.15 53.3 37.25 53.2 37.15 53.0 37.15 52.6 37.55 53.15 37.35 53.2 37.35 53.45 37.65 55.3 39.8 55.3 42.4 53.45 41.05 52.25 40.45 51.1 40.15 50.7 40.05 48.8 39.9 48.65 39.9 48.35 39.95 47.35 40.6 Q46.0 41.55 45.0 43.1 L45.15 43.2 Q47.85 43.35 51.3 46.2 L53.45 47.9 54.85 48.65 55.0 48.7 55.2 48.8 55.3 48.85 55.3 51.3 54.9 51.15 54.4 50.75 53.45 50.05 53.0 49.65 51.9 48.7 Q51.05 47.95 51.0 47.6 L50.9 48.7 50.8 49.35 51.6 51.95 51.8 52.45 52.7 54.4 49.75 54.4 46.6 53.85 45.6 54.05 45.3 54.2 45.65 54.4 41.75 54.4 37.65 48.7 35.85 46.4 35.7 46.1 35.45 45.85 34.6 46.2 31.65 47.65 31.8 47.2 34.2 45.4 35.65 43.95 35.15 44.9 Q38.15 43.25 42.1 40.1 L45.8 36.8 45.85 36.75 47.9 36.75 47.7 37.9 48.6 37.9 Q49.75 37.9 50.9 36.75 L51.65 35.4 52.0 35.0 Q52.75 34.25 53.45 34.1 L53.55 34.05 53.45 34.0 Q52.85 33.55 51.55 33.35 L49.5 33.15 49.5 32.75 50.0 32.2 50.25 31.5 50.15 31.5 50.25 31.25 47.4 31.25 45.05 31.75 45.85 29.35 45.9 29.3 45.95 29.2 47.4 29.1 49.85 29.8 Q51.75 30.55 51.75 30.95 L51.55 31.8 51.35 32.75 53.45 33.1 Q54.3 33.3 55.3 33.9 M1.45 54.4 L-0.45 54.4 -0.45 51.15 0.05 51.85 -0.15 51.85 -0.15 52.7 1.45 54.4 M-0.45 46.4 L-0.45 44.0 Q1.8 45.45 1.8 45.95 L1.75 46.25 Q1.6 46.6 0.85 46.6 L-0.45 46.4 M38.3 37.95 L38.45 37.8 38.5 37.95 38.3 37.95" fill="#0a0000" fill-rule="evenodd" stroke="none"/>
      <path d="M55.3 42.4 L55.3 48.85 55.2 48.8 55.0 48.7 54.85 48.65 53.45 47.9 51.3 46.2 Q47.85 43.35 45.15 43.2 L45.0 43.1 Q46.0 41.55 47.35 40.6 L48.35 39.95 48.65 39.9 48.8 39.9 50.7 40.05 51.1 40.15 52.25 40.45 53.45 41.05 55.3 42.4 M55.3 52.05 L55.3 54.4 52.7 54.4 51.8 52.45 51.6 51.95 50.8 49.35 50.9 48.7 51.0 47.6 Q51.05 47.95 51.9 48.7 L53.0 49.65 53.45 50.05 54.4 50.75 54.9 51.15 53.45 50.9 52.9 50.85 52.75 50.85 52.7 50.95 52.95 51.05 53.45 51.25 55.3 52.05 M49.75 54.4 L45.65 54.4 45.3 54.2 45.6 54.05 46.6 53.85 49.75 54.4 M17.0 54.4 L16.9 54.4 16.85 54.3 17.0 54.4 M15.4 54.4 L5.4 54.4 5.2 54.25 4.65 53.75 3.25 52.7 2.75 52.35 Q2.7 51.4 1.25 50.1 L-0.45 48.8 -0.45 47.6 0.45 47.4 Q1.55 47.4 4.5 48.5 L4.95 48.7 5.45 48.85 6.3 49.5 7.25 50.1 7.8 50.45 10.35 51.8 11.05 51.9 Q12.2 51.9 12.55 51.5 L12.6 51.45 12.7 51.05 11.65 50.25 10.35 49.35 9.75 48.9 10.95 49.25 12.35 49.9 12.65 50.05 Q13.9 50.7 14.8 51.45 L15.6 52.3 16.4 53.35 16.5 53.5 15.25 52.75 14.45 52.3 15.6 53.25 15.7 53.35 15.6 53.3 14.95 53.15 14.9 53.1 14.85 53.35 15.4 54.4 M3.05 54.4 L1.45 54.4 -0.15 52.7 -0.15 51.85 0.05 51.85 1.65 53.3 3.05 54.4 M-0.45 38.95 L-0.45 37.95 Q0.4 38.15 4.3 40.3 L5.15 40.8 6.1 40.8 2.25 37.15 3.9 38.05 Q4.3 38.05 5.0 38.45 L5.9 38.45 5.3 37.8 3.55 36.55 1.6 35.6 0.8 35.3 0.6 35.25 0.25 35.15 -0.45 35.15 -0.45 33.75 1.25 34.1 3.45 34.7 4.95 35.2 6.7 36.35 7.9 37.25 8.65 37.9 9.4 38.55 Q10.5 39.7 10.5 40.65 L9.75 41.75 11.25 43.05 12.55 44.45 12.7 44.65 11.4 44.65 Q8.5 44.45 4.95 42.55 L3.2 41.5 0.75 39.85 -0.45 38.95 M-0.45 37.85 L-0.45 37.1 -0.35 37.65 -0.45 37.85 M-0.45 29.0 L-0.45 28.7 -0.3 29.15 -0.45 29.0 M50.15 31.5 L50.25 31.5 50.0 32.2 49.5 32.75 49.5 33.15 51.55 33.35 Q52.85 33.55 53.45 34.0 L53.55 34.05 53.45 34.1 Q52.75 34.25 52.0 35.0 L51.65 35.4 50.9 36.75 Q49.75 37.9 48.6 37.9 L47.7 37.9 47.9 36.75 45.85 36.75 46.55 36.05 47.05 35.7 46.95 35.7 48.95 33.3 49.45 32.65 50.15 31.5 M48.0 36.35 L48.8 36.15 49.35 35.9 49.15 35.35 47.8 36.25 Q47.55 36.35 48.0 36.35 M49.9 40.25 L49.7 40.35 48.65 40.6 Q47.1 41.25 46.95 42.65 L49.25 42.3 50.45 42.35 Q51.0 42.45 51.55 42.85 L51.55 42.3 50.85 41.8 50.25 41.2 51.9 41.05 51.75 40.8 51.05 40.65 50.6 40.25 49.9 40.25 M48.15 43.65 L49.45 43.65 49.35 43.45 48.15 43.65 M53.45 44.6 L52.95 44.25 51.5 43.5 53.1 44.55 53.45 44.85 54.2 45.3 53.45 44.6 M0.0 29.95 L0.05 30.2 -0.15 30.2 -0.2 30.0 0.0 29.95 M9.05 40.1 L9.75 40.65 9.8 40.35 9.35 39.8 8.6 39.5 9.05 40.1 M0.65 48.7 Q2.8 50.45 4.25 51.1 L4.3 50.8 Q4.3 50.35 2.75 49.2 L2.55 49.05 4.05 49.65 4.3 49.45 3.1 48.7 2.4 48.45 2.35 48.45 0.75 48.05 0.2 47.95 0.05 48.2 0.65 48.7 M14.65 48.4 Q13.55 48.05 10.65 46.35 L10.8 46.05 Q11.35 45.75 13.05 46.65 14.8 47.5 14.8 48.15 14.8 48.6 14.65 48.4 M12.5 53.35 L13.05 53.65 13.75 53.5 13.9 53.35 14.05 53.1 13.65 53.05 12.1 52.85 12.5 53.35 M6.7 51.65 L6.25 51.6 6.6 51.85 7.45 52.4 Q7.35 51.8 6.7 51.65" fill="#3e0005" fill-rule="evenodd" stroke="none"/>
      <path d="M41.9 26.6 L41.9 26.65 40.9 28.45 39.6 29.85 39.6 29.8 39.45 30.55 39.4 30.8 Q39.15 31.95 38.4 32.95 L38.25 33.1 38.15 33.35 36.3 34.1 36.15 34.2 34.65 34.7 33.7 34.55 34.25 35.4 34.5 35.6 34.3 35.7 33.95 36.25 33.6 36.75 33.3 37.5 Q33.5 37.25 34.0 37.2 L34.25 37.15 35.45 36.95 35.45 37.0 35.55 37.1 35.75 37.5 Q36.05 37.9 36.6 37.9 L37.15 37.8 37.45 37.65 37.45 38.3 37.1 39.5 37.0 39.9 36.2 41.2 35.8 41.8 34.1 43.9 33.75 43.95 32.8 44.55 32.45 44.7 32.2 44.8 30.75 45.25 30.65 45.25 29.8 44.9 30.5 44.3 29.4 44.3 29.65 43.95 Q31.15 42.0 31.95 40.25 L32.65 38.3 32.85 36.5 32.85 36.35 32.7 34.95 33.25 33.65 33.5 32.25 33.35 29.4 32.1 32.25 32.1 32.2 31.85 31.4 31.5 30.7 31.1 29.95 31.05 29.9 28.7 26.15 28.6 26.0 28.45 25.75 26.15 22.35 25.4 21.15 25.7 21.0 28.1 22.75 29.65 24.3 31.55 26.75 32.3 28.0 32.4 28.15 32.45 28.2 32.7 28.5 32.7 28.55 32.75 28.55 32.85 28.5 32.9 28.5 33.1 28.45 33.1 28.4 33.25 28.35 33.3 28.35 33.4 28.35 33.55 28.35 35.25 28.3 36.1 28.2 39.3 27.45 40.7 26.8 40.95 26.65 41.95 26.1 41.9 26.6 M40.1 34.8 L39.95 35.1 39.95 35.05 40.1 34.8 M26.95 33.4 L28.2 34.2 28.25 34.35 28.45 34.75 29.0 35.3 28.95 35.7 27.2 35.65 26.1 35.6 24.55 35.3 24.3 35.25 24.3 35.1 Q25.15 35.0 25.85 34.55 L26.6 33.85 26.95 33.4" fill="#d47967" fill-rule="evenodd" stroke="none"/>
      <path d="M41.3 29.75 L41.65 29.75 41.65 30.55 41.6 30.95 40.9 33.15 40.85 33.3 39.75 33.5 38.15 33.35 38.25 33.1 38.4 32.95 Q39.15 31.95 39.4 30.8 L39.45 30.55 39.6 29.8 39.6 29.85 40.7 29.75 41.05 29.75 41.3 29.75 M32.8 44.55 L33.75 43.95 34.1 43.9 33.35 44.6 32.2 45.65 29.35 47.55 29.35 47.4 29.25 47.4 32.35 44.95 32.8 44.55 M27.95 48.3 L28.45 48.0 28.6 48.0 27.95 48.3" fill="#cc635c" fill-rule="evenodd" stroke="none"/>
      <path d="M40.9 33.15 Q43.7 32.05 45.05 31.75 L47.4 31.25 50.25 31.25 50.15 31.5 49.45 32.65 46.6 32.55 Q45.75 32.6 44.45 33.15 L42.8 33.8 40.05 35.2 39.95 35.1 40.1 34.8 40.25 34.55 40.3 34.55 41.1 33.65 41.65 33.05 40.85 33.3 40.9 33.15 M28.6 26.0 L28.7 26.15 31.05 29.9 31.1 29.95 31.5 30.7 31.85 31.4 32.1 32.2 32.1 32.25 32.15 32.5 32.1 32.5 Q31.85 32.6 31.35 32.85 L31.15 32.9 31.05 32.95 30.55 33.2 30.85 32.9 30.75 32.55 30.65 32.5 30.2 32.55 30.05 33.15 30.2 33.3 Q29.65 33.5 29.25 33.65 L27.7 32.55 25.35 31.05 25.25 30.95 23.75 30.15 21.25 29.75 20.95 29.1 20.75 29.1 20.65 29.45 19.75 28.0 19.2 27.1 18.45 25.75 18.2 25.25 20.75 25.25 24.1 25.75 25.7 26.25 26.0 26.35 26.05 26.35 26.6 26.9 26.6 25.45 26.6 25.3 26.25 23.6 28.3 25.7 28.6 26.0" fill="#e9a9a6" fill-rule="evenodd" stroke="none"/>
      <path d="M34.5 35.6 L34.25 35.4 33.7 34.55 34.65 34.7 36.15 34.2 36.3 34.1 38.15 33.35 39.75 33.5 40.85 33.3 41.65 33.05 41.1 33.65 40.3 34.55 40.25 34.55 40.2 34.55 39.9 34.45 39.7 34.4 38.85 34.25 38.2 34.2 37.9 34.2 37.65 34.3 37.6 34.3 36.6 34.7 36.15 34.85 35.85 35.0 35.7 35.1 35.2 35.3 34.55 35.65 34.5 35.6 M17.8 31.35 L17.65 31.35 16.6 29.9 15.9 28.6 17.6 29.35 17.75 29.4 18.7 29.55 18.8 29.55 19.9 29.65 21.25 29.75 23.75 30.15 25.25 30.95 25.35 31.05 27.7 32.55 29.25 33.65 29.3 33.65 29.6 33.9 30.15 33.95 30.35 33.9 30.25 33.95 29.45 34.35 28.8 34.6 28.2 34.2 26.95 33.4 26.55 33.15 26.3 32.95 25.45 32.45 25.45 32.4 25.4 32.4 24.7 31.95 24.65 31.95 24.55 31.85 24.0 31.55 22.6 31.2 22.05 31.1 21.0 31.05 20.9 31.0 20.85 31.05 20.75 31.05 19.75 31.1 19.25 31.15 19.1 31.15 17.8 31.35 M19.35 32.15 L19.5 32.4 19.95 33.3 20.0 33.4 20.1 33.6 19.1 32.9 18.7 32.55 18.55 32.45 Q19.05 32.25 19.3 32.2 L19.35 32.15 M39.6 34.7 L40.1 34.8 39.95 35.05 39.5 35.65 Q39.15 36.0 38.95 36.3 L38.7 36.5 39.2 35.55 39.35 35.25 39.6 34.7" fill="#111a1f" fill-rule="evenodd" stroke="none"/>
      <path d="M42.7 36.8 L42.6 36.55 43.1 35.9 Q43.75 35.1 44.6 35.05 L47.5 34.5 47.6 34.6 47.0 35.2 44.4 35.7 43.75 36.35 43.0 36.95 Q42.55 36.95 42.7 36.8 M39.7 39.45 L40.1 39.1 40.9 38.65 41.1 38.75 40.9 39.1 40.6 39.35 Q40.15 39.85 39.8 39.85 L39.45 39.75 39.7 39.45 M6.45 25.65 L6.5 25.35 6.05 24.75 4.45 23.75 2.55 22.25 Q1.9 21.4 1.85 20.8 2.75 21.85 5.95 24.2 L6.45 24.6 Q7.3 25.4 7.55 26.4 L7.75 27.05 7.75 27.45 7.65 27.8 7.6 27.8 6.45 27.65 6.25 27.5 6.2 27.1 6.2 26.75 6.45 25.65 M11.0 29.9 L11.0 30.05 Q11.1 30.95 12.65 32.3 L14.35 33.8 Q14.35 34.3 14.15 34.0 L11.75 32.1 9.8 30.25 9.8 30.15 9.85 29.95 9.95 29.9 11.0 29.9" fill="#360c16" fill-rule="evenodd" stroke="none"/>
      <path d="M45.85 36.75 L45.8 36.8 Q43.9 38.0 40.9 39.1 L41.1 38.75 40.9 38.65 40.1 39.1 39.7 39.45 39.45 39.55 Q38.45 39.85 37.65 40.45 L41.65 35.95 Q43.0 34.5 44.75 33.9 46.5 33.25 48.6 33.3 L48.95 33.3 46.95 35.7 Q46.7 35.9 46.55 36.05 L45.85 36.75 M39.95 35.1 L40.05 35.2 39.8 35.3 39.95 35.1 M42.7 36.8 Q42.55 36.95 43.0 36.95 L43.75 36.35 44.4 35.7 47.0 35.2 47.6 34.6 47.5 34.5 44.6 35.05 Q43.75 35.1 43.1 35.9 L42.6 36.55 42.7 36.8" fill="#c06d5c" fill-rule="evenodd" stroke="none"/>
      <path d="M44.45 33.15 Q45.75 32.6 46.6 32.55 L49.45 32.65 48.95 33.3 48.6 33.3 Q46.5 33.25 44.75 33.9 43.0 34.5 41.65 35.95 L37.65 40.45 Q39.8 36.75 41.7 35.0 43.0 33.8 44.45 33.15" fill="#a65849" fill-rule="evenodd" stroke="none"/>
      <path d="M40.05 35.2 L42.8 33.8 44.45 33.15 Q43.0 33.8 41.7 35.0 39.8 36.75 37.65 40.45 L37.6 40.45 36.85 41.45 36.75 41.4 36.85 41.2 37.85 38.75 37.9 38.65 38.1 38.35 38.25 37.95 38.4 37.8 38.55 37.55 38.75 37.2 38.8 37.15 39.8 35.3 40.05 35.2 M38.3 37.95 L38.5 37.95 38.45 37.8 38.3 37.95" fill="#803a2b" fill-rule="evenodd" stroke="none"/>
      <path d="M55.3 51.3 L55.3 52.05 53.45 51.25 52.95 51.05 52.7 50.95 52.75 50.85 52.9 50.85 53.45 50.9 54.9 51.15 55.3 51.3 M-0.45 37.95 L-0.45 37.85 -0.35 37.65 -0.45 37.1 -0.45 35.15 0.25 35.15 0.6 35.25 0.8 35.3 1.6 35.6 3.55 36.55 5.3 37.8 5.9 38.45 5.0 38.45 Q4.3 38.05 3.9 38.05 L2.25 37.15 6.1 40.8 5.15 40.8 4.3 40.3 Q0.4 38.15 -0.45 37.95 M46.55 36.05 Q46.7 35.9 46.95 35.7 L47.05 35.7 46.55 36.05 M48.0 36.35 Q47.55 36.35 47.8 36.25 L49.15 35.35 49.35 35.9 48.8 36.15 48.0 36.35 M49.9 40.25 L50.6 40.25 51.05 40.65 51.75 40.8 51.9 41.05 50.25 41.2 50.85 41.8 51.55 42.3 51.55 42.85 Q51.0 42.45 50.45 42.35 L49.25 42.3 46.95 42.65 Q47.1 41.25 48.65 40.6 L49.7 40.35 49.9 40.25 M53.45 44.6 L54.2 45.3 53.45 44.85 53.1 44.55 51.5 43.5 52.95 44.25 53.45 44.6 M48.15 43.65 L49.35 43.45 49.45 43.65 48.15 43.65 M9.05 40.1 L8.6 39.5 9.35 39.8 9.8 40.35 9.75 40.65 9.05 40.1 M0.65 48.7 L0.05 48.2 0.2 47.95 0.75 48.05 2.35 48.45 2.4 48.45 3.1 48.7 4.3 49.45 4.05 49.65 2.55 49.05 2.75 49.2 Q4.3 50.35 4.3 50.8 L4.25 51.1 Q2.8 50.45 0.65 48.7 M6.7 51.65 Q7.35 51.8 7.45 52.4 L6.6 51.85 6.25 51.6 6.7 51.65 M12.5 53.35 L12.1 52.85 13.65 53.05 14.05 53.1 13.9 53.35 13.75 53.5 13.05 53.65 12.5 53.35" fill="#8f1f27" fill-rule="evenodd" stroke="none"/>
      <path d="M45.8 36.8 L42.1 40.1 Q38.15 43.25 35.15 44.9 L35.65 43.95 36.15 42.7 36.2 42.6 36.6 41.7 36.75 41.4 36.85 41.45 37.6 40.45 37.65 40.45 Q38.45 39.85 39.45 39.55 L39.7 39.45 39.45 39.75 39.8 39.85 Q40.15 39.85 40.6 39.35 L40.9 39.1 Q43.9 38.0 45.8 36.8 M25.7 21.0 L25.4 21.15 26.15 22.35 28.45 25.75 28.6 26.0 28.3 25.7 26.25 23.6 26.6 25.3 26.6 25.45 26.6 26.9 26.05 26.35 26.0 26.35 25.7 26.25 24.1 25.75 20.75 25.25 18.2 25.25 18.1 25.3 17.95 24.8 17.85 24.65 17.75 24.4 17.2 23.45 20.1 23.85 22.45 24.45 23.2 24.7 23.65 24.95 Q24.55 25.25 25.25 25.7 L25.75 26.0 25.85 26.1 26.1 26.25 25.35 25.05 23.25 21.95 23.15 21.8 22.7 21.2 Q20.5 18.25 18.05 16.75 L17.5 16.4 18.1 16.65 18.15 16.65 Q20.1 17.6 22.0 18.7 L24.15 20.05 25.25 20.75 25.55 20.9 25.7 21.0 M6.2 27.1 L6.25 27.5 6.45 27.65 7.6 27.8 7.65 27.8 Q9.75 28.8 11.6 29.95 L14.6 32.0 16.25 33.25 16.4 33.15 16.4 33.3 16.25 34.45 16.4 34.5 16.4 34.6 Q16.3 35.1 16.65 36.5 L16.3 36.65 15.6 36.9 14.8 37.15 Q14.15 37.15 10.25 33.9 L9.7 33.4 6.3 30.5 5.0 29.3 Q4.8 29.1 5.0 28.95 L5.05 28.35 Q5.15 26.9 5.75 26.9 L6.2 27.1 M11.0 29.9 L9.95 29.9 9.85 29.95 9.8 30.15 9.8 30.25 11.75 32.1 14.15 34.0 Q14.35 34.3 14.35 33.8 L12.65 32.3 Q11.1 30.95 11.0 30.05 L11.0 29.9 M13.65 34.45 Q13.65 33.45 12.75 33.05 10.75 32.15 10.05 31.7 10.05 33.1 12.5 34.8 L13.55 34.8 13.65 34.45" fill="#e18f83" fill-rule="evenodd" stroke="none"/>
      <path d="M-0.45 10.7 L-0.45 10.35 1.55 12.25 2.4 13.05 2.6 13.25 5.05 15.45 4.8 15.45 2.05 13.2 2.0 13.15 1.2 12.45 -0.45 10.7 M26.1 3.3 L26.5 3.65 28.05 4.9 28.45 5.85 28.9 7.65 28.9 8.1 28.8 8.1 28.25 7.05 27.05 5.1 25.35 3.2 24.35 2.3 24.4 2.25 Q24.8 2.4 26.1 3.3 M5.5 5.65 L5.6 6.15 Q5.6 6.75 5.4 6.5 L4.6 6.45 4.35 5.95 4.6 5.6 5.5 5.65" fill="#c6ffff" fill-rule="evenodd" stroke="none"/>
      <path d="M9.4 10.3 L9.9 10.8 13.3 14.0 13.5 14.15 13.4 14.0 13.15 13.65 13.55 14.0 Q15.4 15.6 17.65 16.25 21.3 17.4 24.5 19.25 L24.8 19.45 Q27.7 21.2 29.35 22.9 L29.45 22.8 Q27.55 20.45 24.65 18.75 21.95 17.1 18.35 15.95 16.15 15.25 14.3 13.9 L12.6 12.5 12.25 12.2 11.5 10.55 Q10.85 8.85 10.85 7.4 10.85 6.15 11.3 4.6 11.75 2.65 12.5 2.7 11.3 5.1 16.0 7.3 L22.8 10.1 24.8 11.1 Q27.4 12.65 29.2 14.7 L30.6 16.65 Q32.7 20.05 33.0 24.3 L33.05 25.5 32.95 27.35 32.85 27.45 32.45 28.05 32.3 28.0 31.55 26.75 29.65 24.3 28.1 22.75 25.7 21.0 25.55 20.9 25.25 20.75 24.15 20.05 22.0 18.7 Q20.1 17.6 18.15 16.65 L18.1 16.65 17.5 16.4 18.05 16.75 Q20.5 18.25 22.7 21.2 L23.15 21.8 23.25 21.95 25.35 25.05 26.1 26.25 25.85 26.1 25.75 26.0 25.25 25.7 24.55 24.9 Q23.0 23.3 20.0 21.75 L16.75 20.2 Q10.6 17.55 8.4 15.0 L8.1 14.6 8.25 15.0 Q8.9 16.5 11.3 18.6 L12.1 19.35 14.4 21.1 15.6 22.05 17.1 23.6 17.2 23.45 17.75 24.4 17.85 24.65 17.95 24.8 18.1 25.3 18.65 27.45 15.6 24.85 14.85 24.3 12.2 22.7 11.3 22.1 11.2 22.15 10.55 21.65 Q8.25 19.65 5.35 17.7 L5.3 17.65 3.7 16.55 1.05 14.9 0.25 13.95 -0.15 13.5 1.55 13.15 2.0 13.2 2.05 13.2 4.8 15.45 5.05 15.45 2.6 13.25 3.8 13.5 6.05 14.45 6.1 14.25 5.1 12.6 4.85 12.15 4.3 10.75 4.05 9.95 4.05 9.4 4.05 6.2 4.3 6.2 4.3 6.25 6.5 8.35 8.2 9.95 8.75 9.95 9.15 10.2 9.4 10.3 M18.5 14.55 L19.1 15.2 19.45 15.15 19.5 14.8 Q19.5 14.15 18.65 14.25 L18.55 14.2 18.5 14.55 M16.75 12.65 L16.75 12.4 16.1 12.6 16.4 12.85 16.75 12.65 M13.5 14.15 Q15.45 15.55 17.45 16.35 L17.5 16.4 17.45 16.35 Q15.45 15.55 13.5 14.15" fill="#465e5f" fill-rule="evenodd" stroke="none"/>
      <path d="M-0.45 16.3 L-0.45 14.1 -0.25 14.2 0.2 14.45 1.05 14.9 3.7 16.55 5.3 17.65 5.35 17.7 Q8.25 19.65 10.55 21.65 L11.2 22.15 9.05 21.35 10.55 23.15 12.25 25.35 12.0 25.5 9.6 23.45 5.1 19.75 1.6 17.5 0.75 16.95 -0.45 16.3" fill="#f7bbb1" fill-rule="evenodd" stroke="none"/>
      <path d="M-0.45 17.65 L-0.45 16.3 0.75 16.95 1.6 17.5 5.1 19.75 9.6 23.45 12.0 25.5 12.25 25.35 12.4 25.5 13.15 26.6 13.0 26.8 11.65 25.7 8.9 23.65 0.35 18.1 -0.45 17.65" fill="#b15c47" fill-rule="evenodd" stroke="none"/>
      <path d="M-0.45 23.9 L-0.45 17.65 0.35 18.1 8.9 23.65 11.65 25.7 13.0 26.8 13.15 26.6 13.65 27.3 14.4 28.4 15.15 29.65 Q16.4 31.85 16.4 33.15 L16.25 33.25 14.6 32.0 12.3 29.9 8.25 26.85 7.55 26.4 Q7.3 25.4 6.45 24.6 L5.95 24.2 Q2.75 21.85 1.85 20.8 1.9 21.4 2.55 22.25 L4.45 23.75 6.05 24.75 6.5 25.35 6.45 25.65 6.25 25.5 5.65 25.1 5.5 25.05 Q0.9 22.2 -0.15 21.95 -0.15 23.85 1.25 26.25 L-0.45 23.9" fill="#cb6c55" fill-rule="evenodd" stroke="none"/>
      <path d="M16.4 33.15 Q16.4 31.85 15.15 29.65 L14.4 28.4 13.65 27.3 13.15 26.6 12.4 25.5 12.25 25.35 10.55 23.15 9.05 21.35 11.2 22.15 11.85 22.75 14.25 25.1 17.5 29.0 17.75 29.4 17.6 29.35 15.9 28.6 16.6 29.9 17.65 31.35 17.8 31.35 18.05 31.85 18.55 32.45 18.7 32.55 19.1 32.9 18.95 32.95 Q17.9 33.55 17.45 35.25 L17.4 35.6 17.3 35.9 17.2 36.55 17.15 38.5 16.75 37.05 16.75 36.75 16.65 36.5 Q16.3 35.1 16.4 34.6 L16.4 34.5 16.25 34.45 16.4 33.3 16.4 33.15" fill="#ad5d4a" fill-rule="evenodd" stroke="none"/>
      <path d="M32.7 34.95 L32.85 36.35 32.85 36.5 32.65 38.3 31.95 40.25 Q31.15 42.0 29.65 43.95 L29.4 44.3 24.6 44.2 24.55 45.4 24.6 45.45 24.95 45.05 25.25 44.9 26.85 44.65 28.3 44.65 29.05 44.8 27.35 46.7 26.65 47.3 26.35 47.6 25.95 48.0 24.95 47.45 24.7 47.25 Q21.6 44.55 20.05 41.65 L17.8 36.45 17.4 35.6 17.45 35.25 Q17.9 33.55 18.95 32.95 L19.1 32.9 20.1 33.6 20.0 33.4 20.2 33.6 20.7 34.0 21.3 34.75 Q22.45 35.9 23.85 35.9 L26.1 35.65 26.1 35.6 27.2 35.65 28.95 35.7 29.0 35.3 28.45 34.75 28.25 34.35 28.2 34.2 28.8 34.6 29.45 34.35 30.25 33.95 30.35 33.9 30.15 33.95 29.6 33.9 29.3 33.65 29.25 33.65 Q29.65 33.5 30.2 33.3 L30.3 33.35 30.55 33.2 31.05 32.95 31.15 32.9 31.35 32.85 Q31.85 32.6 32.1 32.5 L32.2 35.9 32.7 34.95 M18.1 25.3 L18.2 25.25 18.45 25.75 19.2 27.1 19.75 28.0 20.65 29.45 20.75 29.1 20.95 29.1 21.25 29.75 19.9 29.65 18.8 29.55 18.7 28.0 18.7 27.8 18.65 27.45 18.1 25.3 M20.85 31.05 L20.9 31.0 21.0 31.05 20.85 31.05 M19.45 37.15 Q19.45 38.7 21.2 38.7 22.4 38.7 22.7 37.95 L22.8 37.2 Q22.8 35.55 21.1 35.7 19.9 35.8 19.55 36.55 L19.45 37.15" fill="url(#gradient3)" fill-rule="evenodd" stroke="none"/>
      <path d="M30.2 33.3 L30.05 33.15 30.2 32.55 30.65 32.5 30.75 32.55 30.85 32.9 30.55 33.2 30.3 33.35 30.2 33.3 M12.7 33.15 Q13.1 33.25 13.1 33.65 L12.35 34.05 12.1 33.9 11.9 33.8 11.9 33.7 11.7 33.4 11.75 33.1 11.85 33.15 12.7 33.15 M20.1 36.9 L20.15 36.75 Q20.2 36.0 20.85 36.0 21.55 35.95 21.55 36.65 L21.5 37.25 21.5 37.35 20.85 37.45 20.15 37.3 20.1 36.9" fill="#fedbda" fill-rule="evenodd" stroke="none"/>
      <path d="M12.7 33.15 L11.85 33.15 11.75 33.1 11.7 33.4 11.9 33.7 11.9 33.8 12.1 33.9 12.35 34.05 13.1 33.65 Q13.1 33.25 12.7 33.15 M13.65 34.45 L13.55 34.8 12.5 34.8 Q10.05 33.1 10.05 31.7 10.75 32.15 12.75 33.05 13.65 33.45 13.65 34.45 M20.1 36.9 L20.15 37.3 20.85 37.45 21.5 37.35 21.5 37.25 21.55 36.65 Q21.55 35.95 20.85 36.0 20.2 36.0 20.15 36.75 L20.1 36.9 M19.45 37.15 L19.55 36.55 Q19.9 35.8 21.1 35.7 22.8 35.55 22.8 37.2 L22.7 37.95 Q22.4 38.7 21.2 38.7 19.45 38.7 19.45 37.15" fill="#e9aeab" fill-rule="evenodd" stroke="none"/>
      <path d="M19.1 31.15 L19.25 31.15 19.75 31.1 19.9 32.05 19.35 32.15 19.3 32.1 19.1 31.15 M26.3 32.95 L26.55 33.15 26.95 33.4 26.6 33.85 26.05 33.5 26.25 33.15 26.3 32.95 M38.9 34.75 L38.9 34.55 38.85 34.25 39.7 34.4 39.7 34.5 39.6 34.7 39.55 34.7 38.95 34.75 38.9 34.75" fill="#d9e0bd" fill-rule="evenodd" stroke="none"/>
      <path d="M40.25 34.55 L40.1 34.8 39.6 34.7 39.7 34.5 39.7 34.4 39.9 34.45 40.2 34.55 40.25 34.55 M19.1 31.15 L19.3 32.1 19.35 32.15 19.3 32.2 Q19.05 32.25 18.55 32.45 L18.05 31.85 17.8 31.35 19.1 31.15" fill="#090f12" fill-rule="evenodd" stroke="none"/>
      <path d="M19.35 32.15 L19.9 32.05 20.25 32.55 21.05 33.35 21.55 33.7 Q22.6 34.3 23.65 34.3 L24.15 34.25 24.35 34.45 24.4 34.45 24.95 34.45 25.0 34.1 25.0 34.05 25.1 34.0 26.05 33.5 26.6 33.85 25.85 34.55 Q25.15 35.0 24.3 35.1 L23.9 35.1 Q22.8 35.1 21.7 34.55 L20.95 34.1 20.7 34.0 20.2 33.6 20.0 33.4 19.95 33.3 19.5 32.4 19.35 32.15 M35.95 37.0 L35.75 36.75 35.55 36.5 36.2 36.75 36.6 36.8 37.1 36.8 37.2 36.75 37.3 36.9 37.55 37.0 37.7 36.8 38.05 36.65 38.05 36.4 38.2 36.25 38.55 35.85 38.9 34.8 38.9 34.75 38.95 34.75 39.55 34.7 39.6 34.7 39.35 35.25 39.2 35.55 38.7 36.5 38.5 36.75 38.4 36.9 Q37.75 37.3 37.0 37.3 L35.95 37.0" fill="#f9ffe5" fill-rule="evenodd" stroke="none"/>
      <path d="M19.9 32.05 L19.75 31.1 20.75 31.05 20.85 31.05 20.85 31.6 20.95 31.95 20.2 31.95 19.9 32.05 M25.45 32.45 L26.3 32.95 26.25 33.15 26.05 33.5 25.6 33.25 25.15 33.05 25.3 32.85 25.45 32.45 M38.45 34.75 L38.2 34.2 38.85 34.25 38.9 34.55 38.9 34.75 38.85 34.75 38.45 34.75 M35.7 35.1 L35.75 35.55 35.7 35.7 35.75 35.8 35.45 36.15 35.2 35.3 35.7 35.1" fill="#15d1d7" fill-rule="evenodd" stroke="none"/>
      <path d="M26.05 33.5 L25.1 34.0 25.0 34.05 24.9 33.75 24.6 33.7 24.55 33.65 24.35 33.9 24.15 34.05 24.15 34.25 23.65 34.3 Q22.6 34.3 21.55 33.7 L21.05 33.35 20.25 32.55 19.9 32.05 20.2 31.95 20.95 31.95 21.0 32.0 Q20.85 32.15 20.85 32.4 L20.85 32.55 Q20.95 33.25 21.65 33.25 L21.8 33.25 22.05 33.4 23.0 33.65 23.7 33.6 24.5 33.4 25.15 33.05 25.6 33.25 26.05 33.5 M35.45 36.15 L35.75 35.8 Q35.85 36.15 36.3 36.15 L36.45 36.15 36.65 36.15 36.75 36.15 37.35 36.05 37.65 35.95 37.75 35.85 Q38.4 35.4 38.45 34.85 L38.45 34.75 38.85 34.75 38.9 34.75 38.9 34.8 38.55 35.85 38.2 36.25 38.05 36.4 38.0 36.4 37.75 36.2 37.35 36.25 Q37.2 36.35 37.2 36.7 L37.2 36.75 37.1 36.8 36.6 36.8 36.2 36.75 35.55 36.5 35.45 36.15" fill="#19f8ff" fill-rule="evenodd" stroke="none"/>
      <path d="M16.65 36.5 L16.75 36.75 16.75 37.05 15.8 38.6 14.95 39.9 14.85 40.0 12.35 37.0 9.4 34.45 5.35 30.95 5.2 30.55 5.0 29.3 6.3 30.5 9.7 33.4 10.25 33.9 Q14.15 37.15 14.8 37.15 L15.6 36.9 16.3 36.65 16.65 36.5" fill="#b34348" fill-rule="evenodd" stroke="none"/>
      <path d="M17.15 38.5 L17.2 36.55 17.3 35.9 17.55 36.45 Q18.95 40.7 20.8 43.35 22.5 45.8 24.7 47.25 L24.95 47.45 25.95 48.0 24.9 48.7 24.7 48.8 24.55 48.9 24.35 48.8 24.2 48.7 23.75 48.35 21.2 45.85 Q19.25 43.65 17.85 41.0 L17.55 40.0 17.5 39.95 17.4 39.6 17.15 38.5" fill="#db7f6c" fill-rule="evenodd" stroke="none"/>
      <path d="M17.3 35.9 L17.4 35.6 17.8 36.45 20.05 41.65 Q21.6 44.55 24.7 47.25 22.5 45.8 20.8 43.35 18.95 40.7 17.55 36.45 L17.3 35.9" fill="#d07461" fill-rule="evenodd" stroke="none"/>
      <path d="M6.45 25.65 L6.2 26.75 6.2 27.1 5.75 26.9 Q5.15 26.9 5.05 28.35 L5.0 28.95 Q4.8 29.1 5.0 29.3 L5.2 30.55 5.35 30.95 4.4 30.15 3.6 29.15 1.85 27.0 1.75 26.85 1.25 26.25 Q-0.15 23.85 -0.15 21.95 0.9 22.2 5.5 25.05 L5.65 25.1 6.25 25.5 6.45 25.65 M7.65 27.8 L7.75 27.45 7.75 27.05 7.55 26.4 8.25 26.85 12.3 29.9 14.6 32.0 11.6 29.95 Q9.75 28.8 7.65 27.8" fill="#d87159" fill-rule="evenodd" stroke="none"/>
      <path d="M1.85 27.0 L3.6 29.15 3.5 29.25 3.35 29.1 1.6 27.1 1.85 27.0" fill="url(#gradient4)" fill-rule="evenodd" stroke="none"/>
      <path d="M21.25 54.4 L17.0 54.4 16.85 54.3 16.9 54.4 15.4 54.4 14.85 53.35 14.9 53.1 14.95 53.15 15.6 53.3 15.7 53.35 15.6 53.25 14.45 52.3 15.25 52.75 16.5 53.5 16.4 53.35 15.6 52.3 14.8 51.45 Q13.9 50.7 12.65 50.05 L12.35 49.9 10.95 49.25 9.75 48.9 10.35 49.35 11.65 50.25 12.7 51.05 12.6 51.45 12.55 51.5 Q12.2 51.9 11.05 51.9 L10.35 51.8 7.8 50.45 7.25 50.1 6.3 49.5 5.45 48.85 4.95 48.7 4.5 48.5 Q1.55 47.4 0.45 47.4 L-0.45 47.6 -0.45 46.4 0.85 46.6 Q1.6 46.6 1.75 46.25 L1.8 45.95 Q1.8 45.45 -0.45 44.0 L-0.45 38.95 0.75 39.85 3.2 41.5 4.95 42.55 Q8.5 44.45 11.4 44.65 L12.7 44.65 12.55 44.45 11.25 43.05 9.75 41.75 10.5 40.65 Q10.5 39.7 9.4 38.55 L8.65 37.9 7.9 37.25 6.7 36.35 4.95 35.2 3.45 34.7 1.25 34.1 -0.45 33.75 -0.45 29.0 -0.3 29.15 -0.45 28.7 -0.45 24.3 1.6 27.1 3.35 29.1 3.5 29.25 4.4 30.15 5.35 30.95 9.4 34.45 12.35 37.0 14.85 40.0 15.05 40.25 Q17.65 43.65 19.1 46.95 L19.85 48.7 Q20.7 51.05 21.1 53.6 L21.25 54.4 M5.4 54.4 L3.05 54.4 1.65 53.3 0.05 51.85 -0.45 51.15 -0.45 48.8 1.25 50.1 Q2.7 51.4 2.75 52.35 L3.25 52.7 4.65 53.75 5.2 54.25 5.4 54.4 M0.0 29.95 L-0.2 30.0 -0.15 30.2 0.05 30.2 0.0 29.95 M14.65 48.4 Q14.8 48.6 14.8 48.15 14.8 47.5 13.05 46.65 11.35 45.75 10.8 46.05 L10.65 46.35 Q13.55 48.05 14.65 48.4" fill="#160000" fill-rule="evenodd" stroke="none"/>
      <path d="M16.75 37.05 L17.15 38.5 17.4 39.6 17.5 39.95 17.55 40.0 17.85 41.0 Q19.25 43.65 21.2 45.85 L23.75 48.35 24.2 48.7 24.35 48.8 24.55 48.9 24.7 49.1 25.05 50.65 25.2 51.1 21.1 53.6 Q20.7 51.05 19.85 48.7 L19.1 46.95 Q17.65 43.65 15.05 40.25 L14.95 39.9 15.8 38.6 16.75 37.05" fill="#47150d" fill-rule="evenodd" stroke="none"/>
      <path d="M33.55 28.35 L33.4 28.35 33.3 28.35 33.4 28.3 33.45 28.3 33.55 28.2 33.55 28.35" fill="#4f7175" fill-rule="evenodd" stroke="none"/>
      <path d="M32.1 32.25 L33.35 29.4 33.5 32.25 33.25 33.65 32.7 34.95 32.2 35.9 32.1 32.5 32.15 32.5 32.1 32.25" fill="#0a130e" fill-rule="evenodd" stroke="none"/>
      <path d="M35.55 37.1 L35.45 37.0 35.45 36.95 34.25 37.15 34.0 37.2 Q33.5 37.25 33.3 37.5 L33.6 36.75 33.95 36.25 34.3 35.7 34.5 35.6 34.55 35.65 35.2 35.3 35.45 36.15 35.55 36.5 35.75 36.75 35.95 37.0 35.6 37.15 35.55 37.1" fill="#af5f55" fill-rule="evenodd" stroke="none"/>
      <path d="M21.0 31.05 L22.05 31.1 Q21.95 31.35 22.0 31.65 L21.55 31.65 Q21.2 31.75 21.05 31.95 L20.95 31.95 20.85 31.6 20.85 31.05 21.0 31.05 M24.7 31.95 L25.4 32.4 25.45 32.4 25.45 32.45 25.3 32.85 25.15 33.05 Q24.7 32.75 24.2 32.6 L24.5 32.45 24.7 31.95 M37.75 34.8 L37.75 34.75 37.65 34.3 37.9 34.2 38.2 34.2 38.45 34.75 37.75 34.8 M36.15 34.85 L36.2 34.95 36.2 35.1 Q35.9 35.2 35.75 35.55 L35.7 35.1 35.85 35.0 36.15 34.85" fill="#1aa4e0" fill-rule="evenodd" stroke="none"/>
      <path d="M36.95 35.7 L37.4 35.6 37.75 35.05 37.75 34.8 38.45 34.75 38.45 34.85 Q38.4 35.4 37.75 35.85 L37.65 35.95 37.35 36.05 36.75 36.15 36.65 36.15 36.45 36.15 36.9 36.1 36.95 36.05 36.95 35.7 M25.15 33.05 L24.5 33.4 23.7 33.6 23.0 33.65 22.05 33.4 21.8 33.25 22.25 33.15 22.3 32.35 22.95 32.9 23.4 33.0 Q23.75 33.0 24.2 32.6 24.7 32.75 25.15 33.05 M21.0 32.0 L20.95 31.95 21.05 31.95 21.0 32.0" fill="#22b6f7" fill-rule="evenodd" stroke="none"/>
      <path d="M36.6 35.05 L36.85 34.9 36.9 34.9 37.25 34.8 37.75 34.8 37.75 35.05 37.4 35.6 36.95 35.7 37.0 35.6 36.95 35.25 36.7 35.1 36.6 35.1 36.6 35.05 M24.2 32.6 Q23.75 33.0 23.4 33.0 L22.95 32.9 22.3 32.35 22.25 32.05 23.75 32.45 24.2 32.6" fill="#2e8bb4" fill-rule="evenodd" stroke="none"/>
      <path d="M22.05 31.1 L22.6 31.2 24.0 31.55 24.55 31.85 24.65 31.95 24.7 31.95 24.5 32.45 24.2 32.6 23.75 32.45 22.25 32.05 22.0 31.65 Q21.95 31.35 22.05 31.1 M37.75 34.8 L37.25 34.8 36.9 34.9 36.85 34.9 36.6 35.05 36.55 35.05 36.4 35.05 36.2 35.1 36.2 34.95 36.15 34.85 36.6 34.7 37.6 34.3 37.65 34.3 37.75 34.75 37.75 34.8" fill="#28799c" fill-rule="evenodd" stroke="none"/>
      <path d="M25.0 34.05 L25.0 34.1 24.95 34.45 24.4 34.45 24.35 34.45 24.15 34.25 24.15 34.05 24.35 33.9 24.55 33.65 24.6 33.7 24.9 33.75 25.0 34.05 M36.2 35.1 L36.4 35.05 36.55 35.05 36.6 35.05 36.6 35.1 36.7 35.1 36.95 35.25 37.0 35.6 36.95 35.7 36.95 36.05 36.9 36.1 36.45 36.15 36.3 36.15 Q35.85 36.15 35.75 35.8 L35.7 35.7 35.75 35.55 Q35.9 35.2 36.2 35.1 M37.2 36.75 L37.2 36.7 Q37.2 36.35 37.35 36.25 L37.75 36.2 38.0 36.4 38.05 36.4 38.05 36.65 37.7 36.8 37.55 37.0 37.3 36.9 37.2 36.75 M22.3 32.35 L22.25 33.15 21.8 33.25 21.65 33.25 Q20.95 33.25 20.85 32.55 L20.85 32.4 Q20.85 32.15 21.0 32.0 L21.05 31.95 Q21.2 31.75 21.55 31.65 L22.0 31.65 22.25 32.05 22.3 32.35" fill="#ffffff" fill-rule="evenodd" stroke="none"/>
      <path d="M37.45 38.3 L37.45 37.65 37.15 37.8 36.6 37.9 Q36.05 37.9 35.75 37.5 L35.55 37.1 35.6 37.15 35.95 37.0 37.0 37.3 Q37.75 37.3 38.4 36.9 L38.5 36.75 38.7 36.5 38.95 36.3 Q39.15 36.0 39.5 35.65 L39.95 35.05 39.95 35.1 39.8 35.3 38.8 37.15 38.75 37.2 38.55 37.55 38.4 37.8 38.25 37.95 38.1 38.35 37.9 38.65 37.45 38.3" fill="#b85953" fill-rule="evenodd" stroke="none"/>
      <path d="M20.7 34.0 L20.95 34.1 21.7 34.55 Q22.8 35.1 23.9 35.1 L24.3 35.1 24.3 35.25 24.55 35.3 26.1 35.6 26.1 35.65 23.85 35.9 Q22.45 35.9 21.3 34.75 L20.7 34.0" fill="#c97565" fill-rule="evenodd" stroke="none"/>
      <path d="M29.4 44.3 L30.5 44.3 29.8 44.9 29.7 44.95 29.05 44.8 28.3 44.65 26.85 44.65 25.25 44.9 24.95 45.05 24.6 45.45 24.55 45.4 24.6 44.2 29.4 44.3" fill="#4c252a" fill-rule="evenodd" stroke="none"/>
      <path d="M30.65 45.25 L30.75 45.25 32.2 44.8 32.45 44.7 32.8 44.55 32.35 44.95 29.25 47.4 28.8 47.45 28.4 47.8 28.4 47.95 28.45 48.0 27.95 48.3 27.65 48.45 27.25 48.65 27.15 48.7 25.3 49.5 Q25.0 49.25 24.7 49.1 L24.55 48.9 24.7 48.8 24.9 48.7 25.95 48.0 26.35 47.6 26.15 48.15 26.25 48.15 Q28.15 46.8 29.45 45.25 L30.65 45.25 M28.45 46.95 L28.4 46.95 28.2 47.05 28.35 47.15 28.45 47.05 28.45 46.95" fill="#ce704c" fill-rule="evenodd" stroke="none"/>
      <path d="M29.8 44.9 L30.65 45.25 29.45 45.25 Q28.15 46.8 26.25 48.15 L26.15 48.15 26.35 47.6 26.65 47.3 27.35 46.7 29.05 44.8 29.7 44.95 29.8 44.9" fill="#c26845" fill-rule="evenodd" stroke="none"/>
      <path d="M35.65 43.95 L34.2 45.4 31.8 47.2 29.8 48.35 29.15 48.7 Q27.55 49.55 26.25 50.0 L25.3 49.5 27.15 48.7 27.25 48.65 27.65 48.45 27.95 48.3 28.6 48.0 28.45 48.0 28.4 47.95 28.4 47.8 28.8 47.45 29.25 47.4 29.35 47.4 29.35 47.55 32.2 45.65 33.35 44.6 34.1 43.9 35.8 41.8 36.2 41.2 37.0 39.9 37.1 39.5 37.45 38.3 37.9 38.65 37.85 38.75 36.85 41.2 36.75 41.4 36.6 41.7 36.2 42.6 36.15 42.7 35.65 43.95 M28.45 46.95 L28.45 47.05 28.35 47.15 28.2 47.05 28.4 46.95 28.45 46.95" fill="#ff9687" fill-rule="evenodd" stroke="none"/>
      <path d="M31.8 47.2 L31.65 47.65 29.55 48.7 26.25 50.45 25.6 50.85 25.05 50.65 24.7 49.1 Q25.0 49.25 25.3 49.5 L26.25 50.0 Q27.55 49.55 29.15 48.7 L29.8 48.35 31.8 47.2" fill="#bb2f2e" fill-rule="evenodd" stroke="none"/>
      <path d="M28.3 54.4 L27.15 54.4 27.7 53.4 Q27.7 52.8 27.3 52.15 L26.85 51.4 26.25 50.45 29.55 48.7 31.65 47.65 34.6 46.2 34.35 48.7 34.25 49.4 34.0 49.55 33.7 49.7 Q32.5 50.55 31.55 51.35 L29.85 52.8 29.0 53.6 28.3 54.4" fill="#d27a17" fill-rule="evenodd" stroke="none"/>
      <path d="M37.1 54.4 L36.15 54.4 34.7 50.55 34.7 50.45 34.65 50.6 34.3 51.55 34.05 50.65 34.2 49.55 34.25 49.4 34.35 48.7 34.6 46.2 35.45 45.85 35.7 46.1 35.75 46.4 35.75 46.45 36.2 48.7 36.65 51.3 37.1 54.4 M34.6 49.55 L34.5 49.45 34.5 49.65 34.6 49.55" fill="#ffba56" fill-rule="evenodd" stroke="none"/>
      <path d="M35.7 46.1 L35.85 46.4 35.75 46.4 35.7 46.1" fill="#ea8207" fill-rule="evenodd" stroke="none"/>
      <path d="M35.75 46.4 L35.85 46.4 35.75 46.45 35.75 46.4" fill="#7b2d00" fill-rule="evenodd" stroke="none"/>
      <path d="M39.3 54.4 L37.1 54.4 36.65 51.3 36.2 48.7 35.75 46.45 35.85 46.4 37.05 48.7 38.95 53.35 39.3 54.4" fill="#2e0f00" fill-rule="evenodd" stroke="none"/>
      <path d="M41.75 54.4 L39.3 54.4 38.95 53.35 37.05 48.7 35.85 46.4 37.65 48.7 41.75 54.4" fill="#812c01" fill-rule="evenodd" stroke="none"/>
      <path d="M36.15 54.4 L35.1 54.4 34.3 51.55 34.65 50.6 34.7 50.45 34.7 50.55 36.15 54.4 M27.15 54.4 L21.25 54.4 21.1 53.6 25.2 51.1 25.6 50.85 26.25 50.45 26.85 51.4 27.3 52.15 Q27.7 52.8 27.7 53.4 L27.15 54.4" fill="#f89300" fill-rule="evenodd" stroke="none"/>
      <path d="M34.6 49.55 L34.5 49.65 34.5 49.45 34.6 49.55" fill="#de7b08" fill-rule="evenodd" stroke="none"/>
      <path d="M33.55 54.4 L28.3 54.4 29.0 53.6 29.85 52.8 31.55 51.35 Q32.5 50.55 33.7 49.7 L34.0 49.55 34.2 49.55 34.05 50.65 33.85 52.3 33.65 53.5 33.6 53.8 33.55 54.4" fill="#bd5500" fill-rule="evenodd" stroke="none"/>
      <path d="M35.1 54.4 L33.55 54.4 33.6 53.8 33.65 53.5 33.85 52.3 34.05 50.65 34.3 51.55 35.1 54.4" fill="#d76a11" fill-rule="evenodd" stroke="none"/>
      <path d="M34.2 49.55 L34.0 49.55 34.25 49.4 34.2 49.55" fill="#c46700" fill-rule="evenodd" stroke="none"/>
      <path d="M25.2 51.1 L25.05 50.65 25.6 50.85 25.2 51.1" fill="#5d0e00" fill-rule="evenodd" stroke="none"/>
      <path d="M5.35 -0.05 L5.3 0.45 Q5.3 2.55 6.05 4.65 L6.25 5.2 Q7.25 7.75 9.4 10.3 L9.9 10.8 13.3 14.0 13.5 14.15 Q15.45 15.55 17.45 16.35 L17.5 16.4 18.05 16.75 Q20.5 18.25 22.7 21.2 L23.15 21.8 23.25 21.95 25.35 25.05 26.1 26.25 25.85 26.1 25.75 26.0 25.25 25.7 Q24.55 25.25 23.65 24.95 M42.15 8.35 L41.1 6.7 Q39.65 4.75 36.0 1.8 L33.8 -0.05 M42.4 8.85 L42.15 8.35 M42.45 9.05 L42.45 8.8 42.5 9.15 42.45 9.1 42.45 9.05 42.4 8.85 M43.25 11.85 L42.45 9.1 M43.25 12.05 L43.45 13.6 43.25 16.2 42.2 19.8 40.5 22.7 40.25 22.95 M45.2 20.0 L45.2 19.8 45.15 19.45 44.95 17.7 44.9 17.35 44.85 17.2 44.2 14.6 43.3 12.0 43.25 11.85 43.25 12.05 M33.85 28.1 L34.25 27.85 35.9 26.85 37.0 26.1 37.15 25.9 37.2 25.9 39.85 23.5 M33.55 28.2 L33.85 28.1 M45.05 17.6 L45.0 17.5 44.9 17.35 M44.9 22.2 L45.1 21.65 45.2 20.1 45.2 20.0 M41.3 29.75 L41.65 29.75 41.65 30.55 41.6 30.95 40.9 33.15 Q43.7 32.05 45.05 31.75 L45.85 29.35 45.9 29.3 45.95 29.2 Q46.4 27.05 46.45 24.9 L46.45 24.65 46.4 22.65 46.0 19.85 46.0 19.75 45.9 19.25 45.05 17.6 M41.9 26.6 L41.9 26.65 40.9 28.45 39.6 29.85 40.7 29.75 41.05 29.75 M42.1 25.95 L41.95 26.1 40.95 26.65 40.7 26.8 39.3 27.45 36.1 28.2 35.25 28.3 33.55 28.35 33.4 28.35 33.3 28.35 33.25 28.35 M41.9 26.6 L42.1 25.95 Q44.25 24.4 44.9 22.2 M32.85 28.5 L32.75 28.55 32.7 28.55 32.7 28.5 32.45 28.2 32.4 28.15 32.3 28.0 31.55 26.75 29.65 24.3 28.1 22.75 25.7 21.0 25.55 20.9 25.25 20.75 24.15 20.05 22.0 18.7 Q20.1 17.6 18.15 16.65 L18.1 16.65 17.5 16.4 M22.45 24.45 L20.1 23.85 17.2 23.45 17.75 24.4 17.85 24.65 17.95 24.8 18.1 25.3 18.65 27.45 18.7 27.8 18.7 28.0 18.8 29.55 M6.05 4.65 L4.3 3.25 Q2.75 1.85 2.2 0.55 L2.05 0.2 Q1.75 0.95 1.6 1.85 1.35 2.95 1.35 4.25 1.35 5.35 1.85 7.3 L1.9 7.6 2.4 9.75 4.05 9.95 M1.05 14.9 L3.7 16.55 5.3 17.65 5.35 17.7 Q8.25 19.65 10.55 21.65 L11.2 22.15 11.85 22.75 14.25 25.1 17.5 29.0 17.75 29.4 M2.4 9.75 L0.2 8.55 -0.45 8.0 M-0.45 14.1 L-0.25 14.2 0.2 14.45 1.05 14.9 M33.55 28.2 L33.45 28.3 33.4 28.3 33.3 28.35 M33.1 28.4 L32.9 28.5" fill="none" stroke="#131d1e" stroke-linecap="round" stroke-linejoin="round" stroke-width="1.0"/>
      <path d="M45.95 29.2 L47.4 29.1 49.85 29.8 Q51.75 30.55 51.75 30.95 L51.55 31.8 51.35 32.75 53.45 33.1 Q54.3 33.3 55.3 33.9 M31.8 47.2 L31.65 47.65 M55.3 39.8 L53.45 37.65 53.2 37.35 53.15 37.35 52.6 37.55 53.0 37.15 53.2 37.15 53.3 37.25 53.4 37.15 53.45 37.15 54.5 36.2 55.3 35.0 M5.35 30.95 L9.4 34.45 12.35 37.0 14.85 40.0 15.05 40.25 Q17.65 43.65 19.1 46.95 L19.85 48.7 Q20.7 51.05 21.1 53.6 L21.25 54.4 M4.4 30.15 L5.35 30.95 M3.5 29.25 L3.35 29.1 1.6 27.1 -0.45 24.3 M3.5 29.25 L4.4 30.15" fill="none" stroke="#000000" stroke-linecap="round" stroke-linejoin="round" stroke-width="1.0"/>
      <path d="M45.85 36.75 L45.8 36.8 42.1 40.1 Q38.15 43.25 35.15 44.9 L35.65 43.95 34.2 45.4 31.8 47.2 29.8 48.35 29.15 48.7 Q27.55 49.55 26.25 50.0 L25.3 49.5 Q25.0 49.25 24.7 49.1 L24.55 48.9 M41.95 26.1 L41.9 26.6 M33.25 28.35 L33.1 28.4 33.1 28.45 32.9 28.5 32.85 28.5 M40.9 33.15 L40.85 33.3 M40.1 34.8 L39.95 35.1 39.8 35.3 38.8 37.15 38.75 37.2 38.55 37.55 38.4 37.8 38.25 37.95 38.1 38.35 M49.45 32.65 L50.15 31.5 50.25 31.25 47.4 31.25 45.05 31.75 M48.95 33.3 L49.45 32.65 M45.85 36.75 L46.55 36.05 Q46.7 35.9 46.95 35.7 L48.95 33.3 M16.4 34.5 L16.4 34.6 Q16.3 35.1 16.65 36.5 L16.75 36.75 16.75 37.05 17.15 38.5 17.4 39.6 17.5 39.95 17.55 40.0 17.85 41.0 Q19.25 43.65 21.2 45.85 L23.75 48.35 24.2 48.7 24.35 48.8 M14.85 40.0 L14.95 39.9 15.8 38.6 16.75 37.05 M1.75 26.85 L1.85 27.0 3.6 29.15 4.4 30.15 M14.95 39.9 L15.05 40.25 M25.05 50.65 L24.7 49.1 M37.9 38.65 L37.85 38.75 36.85 41.2 36.75 41.4 36.6 41.7 36.2 42.6 36.15 42.7 35.65 43.95 M-0.45 23.9 L1.25 26.25" fill="none" stroke="#743329" stroke-linecap="round" stroke-linejoin="round" stroke-width="1.0"/>
      <path d="M25.75 -0.05 L29.3 2.9 32.8 6.15 Q35.9 9.6 36.75 13.15 L37.05 15.7 36.8 17.05 36.75 17.15 35.8 19.6 M20.65 0.6 L20.7 0.65 22.35 2.2 24.4 4.8 24.5 4.85 M20.55 -0.05 L20.65 0.6 19.65 -0.05" fill="none" stroke="#223335" stroke-linecap="round" stroke-linejoin="round" stroke-width="1.0"/>
      <path d="M34.25 49.4 L34.35 48.7 34.6 46.2 M35.85 46.4 L37.05 48.7 38.95 53.35 39.3 54.4 M34.05 50.65 L33.85 52.3 33.65 53.5 33.6 53.8 33.55 54.4 M34.2 49.55 L34.05 50.65" fill="none" stroke="#5d1f00" stroke-linecap="round" stroke-linejoin="round" stroke-width="1.0"/>
      <path d="M31.65 47.65 L34.6 46.2 35.45 45.85 35.7 46.1 35.85 46.4 37.65 48.7 41.75 54.4 M21.1 53.6 L25.2 51.1 25.6 50.85 26.25 50.45 29.55 48.7 31.65 47.65 M35.7 46.1 L35.75 46.4 35.75 46.45 35.85 46.4 M34.25 49.4 L34.2 49.55" fill="none" stroke="#b13a00" stroke-linecap="round" stroke-linejoin="round" stroke-width="1.0"/>
      <path d="M25.2 51.1 L25.05 50.65 25.6 50.85" fill="none" stroke="#330107" stroke-linecap="round" stroke-linejoin="round" stroke-width="1.0"/>
    </g>
    <linearGradient gradientTransform="matrix(0.0047, -0.0928, -0.1442, -0.0124, 13.35, 17.7)" gradientUnits="userSpaceOnUse" id="gradient0" spreadMethod="pad" x1="-819.2" x2="819.2">
      <stop offset="0.0" stop-color="#f83837"/>
      <stop offset="0.20392156862745098" stop-color="#fc403f"/>
      <stop offset="0.4745098039215686" stop-color="#f47876"/>
      <stop offset="0.6352941176470588" stop-color="#ebcbdc"/>
      <stop offset="0.7647058823529411" stop-color="#cbecf1"/>
      <stop offset="0.8392156862745098" stop-color="#9bf7fd"/>
      <stop offset="0.9137254901960784" stop-color="#55e5ee"/>
      <stop offset="1.0" stop-color="#07b9c4"/>
    </linearGradient>
    <linearGradient gradientTransform="matrix(-0.1318, 0.0, 0.0, 0.1308, 18.3, 52.85)" gradientUnits="userSpaceOnUse" id="gradient1" spreadMethod="pad" x1="-819.2" x2="819.2">
      <stop offset="0.00392156862745098" stop-color="#431a00"/>
      <stop offset="0.40784313725490196" stop-color="#000000"/>
      <stop offset="1.0" stop-color="#010909"/>
      <stop offset="1.0" stop-color="#9bf7fd"/>
    </linearGradient>
    <linearGradient gradientTransform="matrix(-0.0571, 0.0, 0.0, 0.0567, 21.1, 56.45)" gradientUnits="userSpaceOnUse" id="gradient2" spreadMethod="pad" x1="-819.2" x2="819.2">
      <stop offset="0.00392156862745098" stop-color="#431a00"/>
      <stop offset="0.40784313725490196" stop-color="#000000"/>
      <stop offset="1.0" stop-color="#010909"/>
      <stop offset="1.0" stop-color="#9bf7fd"/>
    </linearGradient>
    <linearGradient gradientTransform="matrix(-0.0043, -0.0012, -0.0036, 0.0133, 28.2, 41.25)" gradientUnits="userSpaceOnUse" id="gradient3" spreadMethod="pad" x1="-819.2" x2="819.2">
      <stop offset="0.0" stop-color="#d47967"/>
      <stop offset="0.21176470588235294" stop-color="#e68f84"/>
      <stop offset="1.0" stop-color="#eca491"/>
    </linearGradient>
    <linearGradient gradientTransform="matrix(-0.0372, 0.0, 0.0, 0.0156, 17.5, 34.45)" gradientUnits="userSpaceOnUse" id="gradient4" spreadMethod="pad" x1="-819.2" x2="819.2">
      <stop offset="0.00392156862745098" stop-color="#431a00"/>
      <stop offset="0.40784313725490196" stop-color="#000000"/>
      <stop offset="1.0" stop-color="#010909"/>
      <stop offset="1.0" stop-color="#9bf7fd"/>
    </linearGradient>
    <g id="shape2" transform="matrix(1.0, 0.0, 0.0, 1.0, 0.0, 0.0)">
      <path d="M50.5 0.0 Q53.95 0.0 53.95 3.3 L53.95 50.15 Q53.95 53.4 50.5 53.4 L3.3 53.4 Q0.0 53.4 0.0 50.15 L0.0 3.3 Q0.0 0.0 3.3 0.0 L50.5 0.0" fill="#000000" fill-opacity="0.003921569" fill-rule="evenodd" stroke="none"/>
    </g>
  </defs>
</svg>
