<?xml version="1.0" encoding="UTF-8" standalone="no"?>
<svg xmlns:ffdec="https://www.free-decompiler.com/flash" xmlns:xlink="http://www.w3.org/1999/xlink" ffdec:objectType="frame" height="60.45px" width="61.3px" xmlns="http://www.w3.org/2000/svg">
  <g transform="matrix(1.0, 0.0, 0.0, 1.0, 7.35, 2.7)">
    <clipPath id="clipPath0" transform="matrix(1.0, 0.0, 0.0, 1.0, 0.0, 0.0)">
      <path d="M50.5 0.0 Q53.95 0.0 53.95 3.3 L53.95 50.15 Q53.95 53.4 50.5 53.4 L3.3 53.4 Q0.0 53.4 0.0 50.15 L0.0 3.3 Q0.0 0.0 3.3 0.0 L50.5 0.0" fill="#000000" fill-rule="evenodd" stroke="none"/>
    </clipPath>
    <g clip-path="url(#clipPath0)">
      <use ffdec:characterId="2" height="269.75" transform="matrix(-0.1974, -0.0322, -0.0322, 0.1974, 45.7529, 4.5323)" width="225.0" xlink:href="#shape1"/>
      <use ffdec:characterId="4" height="73.4" transform="matrix(0.7196, 0.0, 0.0, 0.7196, 0.5752, 0.5936)" width="69.0" xlink:href="#sprite0"/>
      <use ffdec:characterId="6" height="13.9" transform="matrix(0.7196, 0.0, 0.0, 0.7196, 1.386, 43.0254)" width="15.65" xlink:href="#sprite1"/>
      <use ffdec:characterId="8" height="63.5" transform="matrix(0.7196, 0.0, 0.0, 0.7196, 0.5782, 0.5916)" width="72.8" xlink:href="#sprite2"/>
    </g>
    <use ffdec:characterId="9" height="53.4" transform="matrix(1.0, 0.0, 0.0, 1.0, 0.0, 0.0)" width="53.95" xlink:href="#shape5"/>
  </g>
  <defs>
    <g id="shape1" transform="matrix(1.0, 0.0, 0.0, 1.0, -0.1, -5.5)">
      <path d="M152.0 158.1 Q140.8 128.2 119.9 117.95 91.65 104.15 78.6 106.0 L60.8 108.0 0.1 45.1 Q54.2 12.35 81.0 8.35 L81.75 10.9 Q53.3 20.55 34.55 44.4 108.45 20.55 152.5 95.25 124.6 68.9 89.1 66.7 141.1 99.55 152.0 158.1" fill="#4d4a6e" fill-rule="evenodd" stroke="none"/>
      <path d="M81.75 10.9 Q91.1 7.7 101.5 6.1 116.4 5.0 129.4 5.95 151.05 7.55 182.15 26.75 L225.1 53.25 188.85 275.25 186.65 274.9 Q180.25 225.75 176.9 174.65 171.35 212.2 169.6 254.75 L168.75 254.75 Q169.2 230.85 158.65 181.3 156.8 172.7 154.45 165.25 L152.0 158.1 Q141.1 99.55 89.1 66.7 124.6 68.9 152.5 95.25 108.45 20.55 34.55 44.4 53.3 20.55 81.75 10.9" fill="#656a96" fill-rule="evenodd" stroke="none"/>
      <path d="M186.65 274.9 L169.0 272.0 169.3 262.65 169.6 254.75 Q171.35 212.2 176.9 174.65 180.25 225.75 186.65 274.9" fill="#9da4d0" fill-rule="evenodd" stroke="none"/>
    </g>
    <g id="sprite0" transform="matrix(1.0, 0.0, 0.0, 1.0, 35.75, 83.6)">
      <use ffdec:characterId="3" height="73.4" transform="matrix(1.0, 0.0, 0.0, 1.0, -35.75, -83.6)" width="69.0" xlink:href="#shape2"/>
    </g>
    <g id="shape2" transform="matrix(1.0, 0.0, 0.0, 1.0, 35.75, 83.6)">
      <path d="M10.3 -66.85 L9.15 -66.95 Q7.65 -67.05 2.85 -68.45 -1.1 -69.6 -3.15 -69.3 L-4.5 -68.9 -5.3 -68.5 -5.4 -68.4 -5.5 -68.45 -6.1 -67.85 -6.15 -67.85 -7.45 -66.6 Q-7.95 -66.0 -8.45 -64.4 L-9.0 -62.05 -9.05 -61.75 Q-9.2 -63.5 -8.65 -65.25 -7.1 -70.2 -2.9 -71.2 L5.25 -70.75 5.6 -70.65 8.0 -70.15 8.2 -70.1 8.5 -69.85 10.75 -68.1 10.3 -66.85 M4.0 -10.7 L3.25 -10.7 Q2.55 -12.2 2.5 -12.85 L1.7 -12.35 1.3 -11.85 1.35 -10.7 -0.35 -10.7 -0.1 -11.0 3.05 -14.2 Q3.45 -12.15 4.0 -10.7 M-34.65 -83.1 L-31.8 -83.1 -31.05 -81.35 -27.1 -72.45 Q-25.3 -67.9 -25.6 -64.0 L-26.55 -64.15 -27.5 -63.45 -25.9 -59.65 Q-27.75 -62.8 -29.2 -67.0 L-32.0 -75.7 -34.65 -83.1 M1.5 -20.05 L1.35 -20.4 -0.1 -23.4 -0.3 -23.85 0.6 -25.65 0.9 -26.2 1.1 -26.5 1.15 -26.55 1.95 -26.05 1.5 -26.0 1.3 -25.85 1.1 -25.85 1.05 -25.75 0.9 -25.7 1.0 -25.25 1.2 -22.45 1.3 -21.55 1.5 -20.05 M2.45 -25.75 L2.5 -25.75 3.55 -25.2 3.1 -24.15 2.85 -23.35 2.5 -21.15 2.5 -19.75 2.5 -19.4 2.6 -17.6 1.8 -19.45 1.9 -19.35 2.1 -19.25 2.1 -20.35 2.25 -24.0 2.35 -25.05 2.45 -25.75 M-8.05 -55.35 L-8.0 -56.6 -7.7 -57.35 -7.5 -57.9 -7.5 -57.95 -6.65 -56.25 -6.2 -55.25 -8.05 -55.35" fill="#2e4054" fill-rule="evenodd" stroke="none"/>
      <path d="M6.4 -83.1 Q8.05 -76.6 8.45 -70.9 L8.4 -70.85 8.25 -70.35 8.2 -70.1 8.0 -70.15 5.6 -70.65 5.25 -70.75 -2.9 -71.2 Q-7.1 -70.2 -8.65 -65.25 -9.2 -63.5 -9.05 -61.75 -9.5 -58.6 -8.5 -55.4 L-9.95 -55.5 -12.1 -55.45 Q-14.0 -58.85 -15.6 -65.15 L-15.65 -65.45 -15.8 -66.0 Q-17.6 -73.4 -16.3 -75.4 -15.0 -77.55 -10.5 -77.2 L-5.95 -76.75 -5.1 -76.55 -0.05 -77.2 Q1.35 -77.5 2.35 -78.2 L2.6 -78.1 4.95 -78.35 5.25 -78.5 4.9 -83.1 6.4 -83.1 M-0.35 -10.7 L-3.2 -10.7 -3.0 -10.9 -1.8 -12.35 -1.7 -12.45 -1.55 -12.6 0.7 -14.85 1.8 -15.9 -0.2 -20.2 -0.4 -20.75 -2.05 -24.0 -3.9 -26.8 -5.65 -28.9 Q-8.75 -32.3 -13.55 -35.6 L-14.35 -36.15 -15.85 -37.1 -15.5 -37.7 -14.2 -39.2 -13.75 -39.55 -13.7 -39.6 -12.15 -40.55 -10.05 -41.25 -7.95 -41.5 -4.5 -41.3 -3.45 -41.15 Q-0.4 -40.65 2.7 -39.6 L4.95 -38.5 Q6.25 -37.75 7.35 -36.55 L8.8 -34.75 8.95 -34.5 10.1 -32.55 10.8 -31.15 10.9 -30.85 11.0 -30.6 Q12.2 -28.1 10.1 -26.35 L8.7 -26.25 8.65 -26.25 7.35 -26.3 4.65 -26.8 3.55 -25.2 2.5 -25.75 2.45 -25.75 1.95 -26.05 1.15 -26.55 1.1 -26.5 0.9 -26.2 0.6 -25.65 -0.3 -23.85 -0.1 -23.4 1.35 -20.4 1.5 -20.05 1.8 -19.45 2.6 -17.6 3.05 -14.2 -0.1 -11.0 -0.35 -10.7 M-35.25 -79.45 L-35.25 -83.1 -34.65 -83.1 -32.0 -75.7 -29.2 -67.0 Q-27.75 -62.8 -25.9 -59.65 -24.0 -56.5 -21.65 -54.45 L-21.25 -54.1 -23.1 -53.65 -24.65 -55.05 -28.7 -59.1 Q-30.7 -61.55 -32.65 -65.3 L-32.5 -65.6 -32.05 -66.6 Q-31.3 -69.1 -33.55 -75.3 L-35.25 -79.45" fill="#222b3a" fill-rule="evenodd" stroke="none"/>
      <path d="M-4.65 -55.0 L-0.25 -53.9 0.15 -53.8 0.45 -53.7 0.45 -55.6 0.75 -57.45 1.55 -57.9 1.65 -57.95 Q1.5 -57.55 1.75 -57.45 1.45 -56.05 1.9 -53.3 L0.45 -53.7 1.9 -53.3 3.95 -52.75 Q10.1 -50.95 12.15 -49.6 15.3 -47.5 17.8 -44.75 L18.3 -44.2 18.55 -43.7 18.4 -43.7 Q22.1 -36.35 22.1 -35.7 L21.9 -34.6 21.75 -33.65 Q20.9 -33.65 20.0 -34.0 18.9 -36.65 16.65 -39.95 14.95 -42.4 12.85 -44.4 L10.5 -46.45 5.15 -49.8 2.45 -51.0 1.6 -51.35 0.95 -51.45 0.1 -51.6 -0.2 -51.65 -1.2 -51.85 -2.25 -52.0 -3.0 -52.15 -4.4 -52.25 -7.05 -52.4 -7.2 -52.4 -10.25 -52.5 -11.3 -52.5 -11.8 -52.5 -14.65 -52.4 -19.0 -51.8 -20.7 -51.4 -22.1 -51.0 -24.55 -50.05 Q-25.05 -49.85 -25.5 -49.6 L-26.2 -49.25 Q-27.9 -48.4 -28.7 -47.65 -29.7 -46.75 -29.5 -46.1 -29.0 -44.6 -28.4 -44.1 L-26.75 -42.9 -26.05 -42.55 -23.9 -41.55 -21.1 -40.1 -18.05 -38.45 -15.85 -37.1 -14.35 -36.15 -13.55 -35.6 -10.7 -32.05 -12.1 -30.9 Q-13.25 -30.1 -13.7 -30.1 -14.8 -30.1 -17.35 -31.5 L-18.25 -32.0 -18.4 -32.1 -24.7 -35.95 -25.3 -36.35 -29.3 -38.6 Q-31.7 -39.9 -33.95 -40.85 L-35.25 -42.05 -35.25 -44.8 -34.8 -45.8 -34.05 -47.1 -33.8 -47.5 -33.05 -48.2 -31.8 -49.15 -28.6 -51.1 -25.4 -52.7 -24.2 -53.2 -23.45 -53.55 -23.1 -53.65 -21.25 -54.1 -20.0 -54.35 -16.0 -55.05 -12.9 -55.4 -12.1 -55.45 -9.95 -55.5 -8.5 -55.4 -8.05 -55.35 -6.2 -55.25 -5.7 -55.25 -5.2 -55.15 -4.65 -55.0 M23.75 -20.95 L21.65 -18.75 20.8 -17.7 20.65 -17.55 Q20.35 -16.8 20.35 -15.7 L20.5 -14.85 20.9 -13.95 20.95 -13.85 20.3 -14.45 19.95 -14.75 19.3 -15.15 18.85 -15.3 18.7 -15.3 18.6 -16.85 18.55 -17.25 18.55 -17.3 18.3 -17.75 17.4 -19.45 16.95 -20.3 17.15 -20.55 17.6 -21.05 19.5 -22.85 23.75 -20.95 M-3.2 -10.7 L-5.6 -10.7 -5.2 -11.7 -4.45 -12.95 -2.95 -13.7 0.85 -15.45 1.8 -15.9 0.7 -14.85 -1.55 -12.6 -1.7 -12.45 -1.8 -12.35 -3.0 -10.9 -3.2 -10.7 M-24.75 -10.7 L-27.4 -10.7 -27.3 -12.25 -27.15 -13.6 -26.0 -15.9 Q-25.1 -17.05 -23.2 -17.7 L-22.45 -17.75 Q-23.35 -16.55 -24.0 -14.75 -24.75 -12.6 -24.75 -10.7 M30.45 -14.25 L30.7 -13.8 32.75 -10.7 31.55 -10.7 30.55 -12.25 29.95 -13.55 29.95 -13.95 30.45 -14.25" fill="#ccbfb6" fill-rule="evenodd" stroke="none"/>
      <path d="M-7.7 -10.7 L-23.15 -10.7 -23.2 -11.55 Q-23.45 -14.6 -23.3 -15.6 -23.0 -16.8 -21.5 -17.55 L-21.25 -17.55 -20.95 -17.7 -20.75 -17.85 -20.7 -17.85 -20.45 -17.95 -20.25 -18.1 Q-19.75 -18.3 -19.45 -20.6 -19.1 -22.9 -23.4 -29.0 -27.65 -35.1 -31.55 -37.75 L-34.45 -39.7 -35.25 -40.4 -35.25 -42.05 -33.95 -40.85 Q-31.95 -39.3 -27.75 -36.9 L-24.6 -35.2 -24.2 -34.9 -20.3 -32.05 Q-17.45 -29.85 -15.0 -26.7 -13.4 -24.75 -12.25 -22.75 L-12.1 -22.45 -11.3 -21.1 -8.55 -16.0 Q-7.4 -13.3 -7.7 -10.85 L-7.7 -10.7 M-35.25 -44.8 L-35.25 -45.5 -34.15 -47.1 -33.8 -47.5 -34.05 -47.1 -34.8 -45.8 -35.25 -44.8 M29.9 -10.7 L29.65 -12.15 29.75 -13.25 29.9 -14.45 30.4 -14.35 30.45 -14.25 29.95 -13.95 29.95 -13.55 30.55 -12.25 Q30.65 -11.7 31.1 -10.7 L29.9 -10.7" fill="#a49a91" fill-rule="evenodd" stroke="none"/>
      <path d="M23.85 -12.1 L23.85 -12.95 24.35 -12.95 27.1 -10.7 25.45 -10.7 23.85 -12.1" fill="#a95732" fill-rule="evenodd" stroke="none"/>
      <path d="M23.85 -11.45 L23.85 -12.1 25.45 -10.7 24.0 -10.7 23.85 -10.85 23.85 -11.45" fill="url(#gradient0)" fill-rule="evenodd" stroke="none"/>
      <path d="M-3.0 -52.15 L-2.25 -52.0 -1.2 -51.85 -0.2 -51.65 0.1 -51.6 0.95 -51.45 1.6 -51.35 2.45 -51.0 5.15 -49.8 10.5 -46.45 12.85 -44.4 Q14.95 -42.4 16.65 -39.95 18.9 -36.65 20.0 -34.0 21.5 -30.45 20.85 -28.05 L19.5 -22.85 17.6 -21.05 17.15 -20.55 16.95 -20.3 16.65 -20.7 15.45 -22.8 14.8 -23.15 14.7 -23.2 14.65 -23.45 14.6 -23.8 14.55 -24.05 13.95 -25.25 13.5 -26.05 15.55 -27.75 Q17.3 -29.85 17.3 -32.85 17.3 -35.3 15.05 -38.85 L12.5 -42.25 10.5 -44.25 8.25 -46.15 2.85 -49.7 1.35 -50.4 0.15 -50.95 -0.15 -51.1 -2.0 -51.8 -3.0 -52.15 M31.55 -10.7 L31.1 -10.7 Q30.65 -11.7 30.55 -12.25 L31.55 -10.7" fill="#6c685f" fill-rule="evenodd" stroke="none"/>
      <path d="M2.3 -60.65 L2.6 -58.65 Q3.15 -55.15 3.95 -52.75 L1.9 -53.3 Q1.45 -56.05 1.75 -57.45 1.5 -57.55 1.65 -57.95 L1.55 -57.9 0.75 -57.45 0.85 -57.7 0.95 -58.0 Q1.45 -59.4 2.3 -60.65 M18.3 -44.2 L19.35 -43.0 Q20.7 -41.3 22.85 -37.3 25.65 -32.1 25.65 -29.6 25.65 -27.45 25.0 -24.75 L23.75 -20.95 19.5 -22.85 20.85 -28.05 Q21.5 -30.45 20.0 -34.0 20.9 -33.65 21.75 -33.65 L21.9 -34.6 22.1 -35.7 Q22.1 -36.35 18.4 -43.7 L18.55 -43.7 18.3 -44.2 M21.15 -13.65 L23.85 -11.45 23.85 -10.85 22.9 -11.9 22.2 -12.65 21.55 -13.35 21.15 -13.65 M18.7 -15.1 L18.7 -15.3 18.8 -15.2 18.75 -15.15 18.7 -15.1 M1.8 -15.9 L0.85 -15.45 -2.95 -13.7 -4.45 -12.95 -5.6 -15.95 -6.5 -17.95 -7.3 -19.4 -8.4 -21.3 -9.75 -23.2 Q-13.0 -27.55 -17.2 -30.85 L-18.15 -31.6 -18.7 -32.0 -24.25 -35.0 -24.6 -35.2 -27.75 -36.9 Q-31.95 -39.3 -33.95 -40.85 -31.7 -39.9 -29.3 -38.6 L-25.3 -36.35 -24.7 -35.95 -18.4 -32.1 -18.25 -32.0 -17.35 -31.5 Q-14.8 -30.1 -13.7 -30.1 -13.25 -30.1 -12.1 -30.9 L-10.7 -32.05 -13.55 -35.6 Q-8.75 -32.3 -5.65 -28.9 L-3.9 -26.8 -2.05 -24.0 -0.4 -20.75 -0.2 -20.2 1.8 -15.9" fill="#f3e2db" fill-rule="evenodd" stroke="none"/>
      <path d="M17.1 -10.7 L15.2 -10.7 Q15.65 -11.2 16.05 -11.2 L16.2 -11.2 16.4 -11.15 16.85 -10.85 17.1 -10.7" fill="#ff8469" fill-rule="evenodd" stroke="none"/>
      <path d="M-5.6 -10.7 L-7.7 -10.7 -7.7 -10.85 Q-7.4 -13.3 -8.55 -16.0 L-11.3 -21.1 -12.1 -22.45 -12.25 -22.75 Q-13.4 -24.75 -15.0 -26.7 -17.45 -29.85 -20.3 -32.05 L-24.2 -34.9 -24.6 -35.2 -24.25 -35.0 -18.7 -32.0 -18.15 -31.6 -17.2 -30.85 Q-13.0 -27.55 -9.75 -23.2 L-8.4 -21.3 -7.3 -19.4 -6.5 -17.95 -5.6 -15.95 -4.45 -12.95 -5.2 -11.7 -5.6 -10.7 M-23.15 -10.7 L-24.75 -10.7 Q-24.75 -12.6 -24.0 -14.75 -23.35 -16.55 -22.45 -17.75 L-20.75 -17.85 -21.1 -17.7 -21.5 -17.55 Q-23.0 -16.8 -23.3 -15.6 -23.45 -14.6 -23.2 -11.55 L-23.15 -10.7 M0.45 -55.6 L0.45 -53.7 0.15 -53.8 0.45 -55.6 M-3.0 -52.15 L-2.0 -51.8 -0.15 -51.1 0.15 -50.95 1.35 -50.4 2.85 -49.7 8.25 -46.15 10.5 -44.25 12.5 -42.25 15.05 -38.85 Q17.3 -35.3 17.3 -32.85 17.3 -29.85 15.55 -27.75 L13.5 -26.05 12.85 -27.3 11.0 -30.6 10.9 -30.85 10.8 -31.15 10.1 -32.55 8.95 -34.5 8.8 -34.75 7.35 -36.55 Q6.25 -37.75 4.95 -38.5 L2.7 -39.6 Q-0.4 -40.65 -3.45 -41.15 L-4.5 -41.3 -7.95 -41.5 -10.05 -41.25 -12.15 -40.55 -13.7 -39.6 -13.75 -39.55 -14.2 -39.2 -15.5 -37.7 -15.85 -37.1 -18.05 -38.45 -21.1 -40.1 -23.9 -41.55 -26.05 -42.55 -26.75 -42.9 -28.4 -44.1 Q-29.0 -44.6 -29.5 -46.1 -29.7 -46.75 -28.7 -47.65 -27.9 -48.4 -26.2 -49.25 L-25.5 -49.6 Q-25.05 -49.85 -24.55 -50.05 L-22.1 -51.0 -20.7 -51.4 -19.0 -51.8 -14.65 -52.4 -11.8 -52.5 -11.3 -52.5 -10.25 -52.5 -7.2 -52.4 -7.05 -52.4 -4.4 -52.25 -3.0 -52.15" fill="#7e796f" fill-rule="evenodd" stroke="none"/>
      <path d="M10.95 -83.1 L12.6 -83.1 12.65 -82.8 13.85 -76.65 Q14.3 -72.95 14.35 -70.15 L14.35 -68.15 14.35 -68.1 13.2 -67.5 12.65 -67.25 10.3 -66.85 10.75 -68.1 Q10.8 -68.35 11.95 -68.6 10.5 -69.7 9.85 -73.1 9.05 -77.35 10.4 -81.7 L10.8 -82.8 10.95 -83.1 M-5.4 -68.4 L-5.75 -67.65 -6.05 -66.6 Q-7.0 -63.7 -6.7 -60.9 L-7.5 -59.7 -8.0 -61.85 Q-8.1 -63.2 -7.45 -65.25 -7.0 -66.6 -6.2 -67.75 L-6.1 -67.85 -5.4 -68.4 M-31.8 -83.1 L-29.95 -83.1 -29.7 -82.6 -29.05 -81.4 -27.4 -78.05 -26.1 -75.2 -25.1 -72.85 -25.1 -72.8 -24.6 -71.35 -24.45 -70.95 -24.35 -70.65 -24.15 -69.9 -24.1 -69.85 -22.75 -64.8 -22.65 -64.35 -21.0 -57.55 -20.85 -57.0 -20.85 -56.95 -20.35 -55.45 -20.35 -55.4 -20.0 -54.35 -21.25 -54.1 -21.65 -54.45 Q-24.0 -56.5 -25.9 -59.65 L-27.5 -63.45 -26.55 -64.15 -25.6 -64.0 Q-25.3 -67.9 -27.1 -72.45 L-31.05 -81.35 -31.8 -83.1" fill="#546776" fill-rule="evenodd" stroke="none"/>
      <path d="M8.45 -70.9 Q9.45 -75.05 7.85 -83.1 L10.95 -83.1 10.8 -82.8 10.4 -81.7 Q9.05 -77.35 9.85 -73.1 10.5 -69.7 11.95 -68.6 10.8 -68.35 10.75 -68.1 L8.5 -69.85 8.2 -70.1 8.25 -70.35 8.4 -70.85 8.45 -70.9 M-6.7 -60.9 L-6.3 -58.85 -5.6 -56.85 -4.65 -55.0 -5.2 -55.15 -5.7 -55.25 -6.2 -55.25 -6.65 -56.25 -7.5 -57.95 -7.5 -57.9 -7.7 -57.35 -8.0 -56.6 -8.05 -55.35 -8.5 -55.4 Q-9.5 -58.6 -9.05 -61.75 L-9.0 -62.05 -8.45 -64.4 Q-7.95 -66.0 -7.45 -66.6 L-6.15 -67.85 -6.1 -67.85 -5.5 -68.45 -5.4 -68.4 -6.1 -67.85 -6.2 -67.75 Q-7.0 -66.6 -7.45 -65.25 -8.1 -63.2 -8.0 -61.85 L-7.5 -59.7 -6.7 -60.9 M-7.75 -65.55 L-6.2 -67.75 -7.75 -65.55" fill="#394c62" fill-rule="evenodd" stroke="none"/>
      <path d="M20.15 -10.7 L18.1 -10.7 17.1 -10.7 16.85 -10.85 16.4 -11.15 16.2 -11.2 16.1 -11.95 15.7 -13.3 16.1 -11.95 16.2 -11.2 16.05 -11.2 Q15.65 -11.2 15.2 -10.7 L13.85 -10.7 Q14.85 -11.25 15.45 -12.6 L15.7 -13.3 15.7 -13.35 15.55 -13.65 15.15 -14.55 15.05 -14.75 14.65 -15.55 14.6 -15.6 14.6 -15.65 14.55 -15.7 13.55 -17.0 13.5 -17.05 13.15 -17.35 13.2 -17.4 13.15 -17.35 13.1 -17.25 12.75 -17.2 12.2 -17.05 11.95 -17.0 11.5 -16.95 11.35 -16.95 9.75 -17.15 9.7 -17.2 7.7 -17.65 7.25 -17.75 6.5 -17.95 5.7 -18.25 2.85 -19.25 2.75 -19.3 2.5 -19.4 2.75 -19.3 2.85 -19.25 5.7 -18.25 6.5 -17.95 7.25 -17.75 7.7 -17.65 9.7 -17.2 9.75 -17.15 11.35 -16.95 11.5 -16.95 11.95 -17.0 11.45 -16.8 10.1 -16.65 9.35 -16.7 8.35 -16.8 7.8 -16.9 6.5 -17.15 4.9 -17.45 4.7 -15.95 4.8 -14.8 Q4.95 -13.5 5.45 -12.25 5.7 -11.45 6.1 -10.7 L4.0 -10.7 Q3.45 -12.15 3.05 -14.2 L2.6 -17.6 2.5 -19.4 2.5 -19.75 2.5 -21.15 2.85 -23.35 3.1 -24.15 3.55 -25.2 4.65 -26.8 7.35 -26.3 8.65 -26.25 8.7 -26.25 10.1 -26.35 Q12.2 -28.1 11.0 -30.6 L12.85 -27.3 13.5 -26.05 13.95 -25.25 13.95 -25.05 13.6 -22.6 13.65 -22.05 13.5 -21.9 13.75 -21.1 13.8 -20.8 13.95 -20.45 14.0 -20.1 14.25 -19.0 Q14.7 -19.8 14.75 -20.75 L14.75 -22.05 14.75 -22.55 15.1 -21.8 15.25 -21.5 15.7 -19.8 15.7 -19.05 15.35 -17.85 14.95 -16.9 14.9 -16.75 15.1 -16.2 15.35 -15.45 15.65 -14.65 15.85 -14.05 15.85 -14.0 16.1 -13.3 16.15 -13.1 16.35 -13.0 17.5 -11.85 18.3 -13.8 18.7 -15.1 18.7 -14.95 18.6 -13.55 18.25 -11.6 18.1 -10.7 18.25 -11.6 18.6 -13.55 18.7 -14.95 18.7 -15.1 18.75 -15.15 18.8 -15.2 18.85 -15.3 19.3 -15.15 19.4 -14.85 19.5 -14.5 19.6 -14.05 19.95 -12.6 20.15 -10.7 M10.1 -26.35 L10.8 -25.05 11.75 -23.15 12.1 -22.45 12.4 -21.7 12.1 -22.45 11.75 -23.15 10.8 -25.05 10.1 -26.35 M13.3 -17.85 L14.2 -18.85 14.25 -19.0 14.2 -18.85 13.3 -17.85 13.35 -18.1 13.35 -18.25 13.2 -19.4 13.15 -19.55 13.1 -19.8 13.1 -19.85 12.4 -21.7 11.0 -22.15 10.5 -22.3 10.4 -22.35 9.35 -22.7 7.55 -23.35 5.25 -24.35 5.2 -24.4 5.0 -24.0 4.7 -23.05 4.45 -22.25 4.3 -21.65 4.1 -20.15 Q4.1 -19.5 6.6 -18.55 L6.75 -18.5 7.2 -18.3 10.7 -17.55 10.85 -17.55 12.75 -17.4 13.2 -17.4 13.2 -17.45 13.3 -17.65 13.3 -17.7 13.3 -17.85" fill="#a18184" fill-rule="evenodd" stroke="none"/>
      <path d="M14.7 -23.2 L14.8 -23.15 15.45 -22.8 16.65 -20.7 Q16.15 -20.7 15.8 -20.0 L15.7 -19.8 15.25 -21.5 15.1 -21.8 14.75 -22.55 14.75 -22.9 14.7 -23.2 M13.75 -21.1 L13.8 -21.15 14.1 -22.65 14.6 -22.2 14.5 -21.9 13.95 -20.45 13.8 -20.8 13.75 -21.1 M14.95 -16.9 L15.1 -16.2 14.9 -16.75 14.95 -16.9 M15.35 -15.45 L15.85 -15.6 16.35 -15.8 17.05 -16.45 17.45 -17.45 18.4 -16.2 18.35 -15.95 18.25 -15.55 17.65 -14.25 Q17.15 -13.65 16.5 -13.65 L15.85 -14.05 15.65 -14.65 15.35 -15.45 M13.15 -17.35 L13.5 -17.05 12.2 -17.05 12.75 -17.2 13.1 -17.25 13.15 -17.35 M14.65 -15.55 L15.05 -14.75 15.15 -14.55 15.55 -13.65 15.7 -13.35 15.4 -12.65 Q14.75 -11.65 12.85 -11.65 L11.5 -11.7 9.25 -12.1 Q8.4 -12.4 7.9 -12.85 6.55 -14.05 6.5 -17.15 L7.8 -16.9 8.35 -16.8 9.35 -16.7 9.3 -16.45 Q9.3 -15.75 10.1 -14.85 11.15 -13.65 12.85 -13.65 L14.1 -13.85 14.2 -13.85 Q14.75 -14.2 14.75 -15.05 L14.65 -15.55 M10.5 -22.3 L10.3 -22.25 9.65 -22.0 Q9.1 -21.7 9.1 -21.25 9.1 -20.55 10.1 -20.05 L11.2 -19.7 11.8 -19.65 12.7 -19.65 13.1 -19.8 13.15 -19.55 13.2 -19.4 13.35 -18.25 12.85 -18.05 12.4 -18.05 10.1 -18.45 9.3 -18.75 Q8.35 -19.15 6.7 -20.3 5.8 -20.85 5.5 -22.45 L5.0 -24.0 5.2 -24.4 5.25 -24.35 7.55 -23.35 9.35 -22.7 10.4 -22.35 10.5 -22.3 M19.3 -15.15 L19.95 -14.75 19.7 -14.65 19.5 -14.5 19.4 -14.85 19.3 -15.15" fill="#dcbcbb" fill-rule="evenodd" stroke="none"/>
      <path d="M13.85 -10.7 L6.1 -10.7 Q5.7 -11.45 5.45 -12.25 4.95 -13.5 4.8 -14.8 L4.7 -15.95 4.9 -17.45 6.5 -17.15 Q6.55 -14.05 7.9 -12.85 8.4 -12.4 9.25 -12.1 L11.5 -11.7 12.85 -11.65 Q14.75 -11.65 15.4 -12.65 L15.7 -13.35 15.7 -13.3 15.45 -12.6 Q14.85 -11.25 13.85 -10.7 M14.6 -22.2 L14.75 -22.9 14.75 -22.55 14.75 -22.05 14.75 -20.75 Q14.7 -19.8 14.25 -19.0 L14.0 -20.1 13.95 -20.45 14.5 -21.9 14.6 -22.2 M18.4 -16.2 L18.55 -17.25 18.6 -16.85 18.7 -15.3 18.7 -15.1 18.3 -13.8 17.5 -11.85 16.35 -13.0 16.15 -13.1 16.1 -13.3 15.85 -14.0 15.85 -14.05 16.5 -13.65 Q17.15 -13.65 17.65 -14.25 L18.25 -15.55 18.35 -15.95 18.4 -16.2 M13.3 -17.85 L13.3 -17.7 13.3 -17.65 13.2 -17.45 13.2 -17.4 12.75 -17.4 10.85 -17.55 10.7 -17.55 7.2 -18.3 6.75 -18.5 6.6 -18.55 Q4.1 -19.5 4.1 -20.15 L4.3 -21.65 4.45 -22.25 4.7 -23.05 5.0 -24.0 5.5 -22.45 Q5.8 -20.85 6.7 -20.3 8.35 -19.15 9.3 -18.75 L10.1 -18.45 12.4 -18.05 12.85 -18.05 13.35 -18.25 13.35 -18.1 13.3 -17.85" fill="#caa8a7" fill-rule="evenodd" stroke="none"/>
      <path d="M-35.25 -11.5 L-35.25 -14.4 -34.85 -14.45 Q-33.5 -14.45 -32.55 -13.25 L-32.0 -12.3 -31.6 -11.75 -31.35 -11.45 -31.35 -11.05 -32.1 -11.1 -35.25 -11.5 M-35.25 -22.9 L-35.25 -26.95 -34.0 -25.85 -32.1 -24.2 -31.55 -23.8 -33.95 -23.2 -35.25 -22.9 M-35.25 -34.25 L-35.25 -34.65 -35.15 -34.3 -35.25 -34.25 M-35.25 -52.5 L-35.25 -55.45 -33.15 -55.7 Q-33.2 -56.25 -33.9 -57.05 -31.65 -56.2 -29.05 -54.8 L-28.6 -54.55 -29.35 -54.35 Q-31.75 -53.6 -32.95 -52.75 L-33.15 -52.75 -35.25 -52.5" fill="#853828" fill-rule="evenodd" stroke="none"/>
      <path d="M-35.25 -55.45 L-35.25 -57.5 -33.9 -57.05 Q-33.2 -56.25 -33.15 -55.7 L-35.25 -55.45" fill="#ad562f" fill-rule="evenodd" stroke="none"/>
      <path d="M-28.05 -10.7 L-34.55 -10.7 -34.95 -10.8 -35.25 -10.85 -35.25 -11.5 -32.1 -11.1 -31.35 -11.05 -31.35 -11.45 -31.6 -11.75 -32.0 -12.3 -32.55 -13.25 Q-33.5 -14.45 -34.85 -14.45 L-35.25 -14.4 -35.25 -17.45 -35.15 -17.4 -34.3 -16.95 -33.8 -16.7 Q-31.35 -15.25 -29.9 -13.75 L-29.55 -13.4 -28.95 -12.65 -28.45 -11.75 -28.05 -10.7 M-35.25 -20.5 L-35.25 -22.9 -33.95 -23.2 -31.55 -23.8 -32.1 -24.2 -34.0 -25.85 -35.25 -26.95 -35.25 -28.45 -31.9 -25.55 -31.4 -25.1 -30.8 -24.55 -30.65 -24.35 -30.35 -24.1 -29.15 -22.65 -29.5 -22.55 -32.35 -21.35 Q-33.5 -20.85 -34.45 -20.65 L-35.25 -20.5 M-35.25 -28.75 L-35.25 -34.25 -35.15 -34.3 -35.25 -34.65 -35.25 -39.05 -33.65 -37.15 -28.1 -30.45 Q-28.1 -29.95 -28.55 -29.35 L-28.9 -28.25 -30.9 -28.65 -31.05 -28.7 -33.25 -29.05 -35.25 -28.75 M-35.25 -47.35 L-35.25 -52.5 -33.15 -52.75 -32.95 -52.75 Q-31.75 -53.6 -29.35 -54.35 L-28.6 -54.55 -28.05 -54.25 -27.5 -53.95 -26.95 -53.65 Q-28.4 -52.75 -29.6 -52.0 L-28.6 -51.1 -31.8 -49.15 -33.05 -48.2 -33.8 -47.5 -34.15 -47.1 -34.55 -47.1 -35.25 -47.35" fill="#5d3734" fill-rule="evenodd" stroke="none"/>
      <path d="M-27.4 -10.7 L-28.05 -10.7 -28.45 -11.75 -28.95 -12.65 -29.55 -13.4 -29.9 -13.75 Q-31.35 -15.25 -33.8 -16.7 L-34.3 -16.95 -35.15 -17.4 -35.25 -17.45 -35.25 -20.5 -34.45 -20.65 Q-33.5 -20.85 -32.35 -21.35 L-29.5 -22.55 -29.15 -22.65 -30.35 -24.1 -30.65 -24.35 -30.8 -24.55 -31.4 -25.1 -31.9 -25.55 -35.25 -28.45 -35.25 -28.75 -33.25 -29.05 -31.05 -28.7 -30.9 -28.65 -28.9 -28.25 -28.55 -29.35 Q-28.1 -29.95 -28.1 -30.45 L-33.65 -37.15 -35.25 -39.05 -35.25 -40.4 -34.45 -39.7 -31.55 -37.75 Q-27.65 -35.1 -23.4 -29.0 -19.1 -22.9 -19.45 -20.6 -19.75 -18.3 -20.25 -18.1 L-20.45 -17.95 -20.7 -17.85 -20.75 -17.85 -22.45 -17.75 -23.2 -17.7 Q-25.1 -17.05 -26.0 -15.9 L-27.15 -13.6 -27.3 -12.25 -27.4 -10.7 M-35.25 -45.5 L-35.25 -47.35 -34.55 -47.1 -34.15 -47.1 -35.25 -45.5 M-26.95 -53.65 L-25.4 -52.7 -28.6 -51.1 -29.6 -52.0 Q-28.4 -52.75 -26.95 -53.65 M-21.1 -17.7 L-20.95 -17.7 -21.1 -17.7 -20.75 -17.85 -20.95 -17.7 -21.25 -17.55 -21.5 -17.55 -21.1 -17.7" fill="#403440" fill-rule="evenodd" stroke="none"/>
      <path d="M-34.55 -10.7 L-35.25 -10.7 -35.25 -10.85 -34.95 -10.8 -34.55 -10.7" fill="#a14330" fill-rule="evenodd" stroke="none"/>
      <path d="M3.25 -10.7 L1.35 -10.7 1.3 -11.85 1.7 -12.35 2.5 -12.85 Q2.55 -12.2 3.25 -10.7 M1.95 -26.05 L2.45 -25.75 2.35 -25.05 2.25 -24.0 2.1 -20.35 2.1 -19.25 1.9 -19.35 1.8 -19.45 1.5 -20.05 1.3 -21.55 1.2 -22.45 1.0 -25.25 0.9 -25.7 1.05 -25.75 1.1 -25.85 1.3 -25.85 1.5 -26.0 1.95 -26.05" fill="#506266" fill-rule="evenodd" stroke="none"/>
      <path d="M20.95 -13.85 L21.15 -13.65 21.55 -13.35 22.2 -12.65 22.9 -11.9 23.85 -10.85 24.0 -10.7 20.15 -10.7 19.95 -12.6 19.6 -14.05 19.5 -14.5 19.7 -14.65 19.95 -14.75 20.3 -14.45 20.95 -13.85 M13.95 -25.25 L14.55 -24.05 14.6 -23.8 14.65 -23.45 14.7 -23.2 14.75 -22.9 14.6 -22.2 14.1 -22.65 13.8 -21.15 13.75 -21.1 13.5 -21.9 13.65 -22.05 13.6 -22.6 13.95 -25.05 13.95 -25.25 M16.65 -20.7 L16.95 -20.3 17.4 -19.45 18.3 -17.75 18.55 -17.3 18.55 -17.25 18.4 -16.2 17.45 -17.45 17.05 -16.45 16.35 -15.8 15.85 -15.6 15.35 -15.45 15.1 -16.2 14.95 -16.9 15.35 -17.85 15.7 -19.05 15.7 -19.8 15.8 -20.0 Q16.15 -20.7 16.65 -20.7 M13.5 -17.05 L13.55 -17.0 14.55 -15.7 14.6 -15.65 14.6 -15.6 14.65 -15.55 14.75 -15.05 Q14.75 -14.2 14.2 -13.85 L14.1 -13.85 12.85 -13.65 Q11.15 -13.65 10.1 -14.85 9.3 -15.75 9.3 -16.45 L9.35 -16.7 10.1 -16.65 11.45 -16.8 11.95 -17.0 12.2 -17.05 13.5 -17.05 M13.1 -19.8 L12.7 -19.65 11.8 -19.65 11.2 -19.7 10.1 -20.05 Q9.1 -20.55 9.1 -21.25 9.1 -21.7 9.65 -22.0 L10.3 -22.25 10.5 -22.3 11.0 -22.15 12.4 -21.7 13.1 -19.85 13.1 -19.8" fill="#f2d5d3" fill-rule="evenodd" stroke="none"/>
      <path d="M-26.45 -83.1 L-24.3 -83.1 -23.8 -82.05 -23.0 -79.85 -23.0 -79.65 Q-23.1 -78.4 -23.35 -77.6 -24.4 -78.3 -25.55 -80.5 L-25.95 -81.35 -26.45 -83.1 M-8.55 -83.1 L3.65 -83.1 3.65 -83.0 3.65 -82.95 3.6 -81.4 3.35 -80.4 3.0 -79.65 2.9 -79.5 2.9 -79.45 2.8 -79.45 Q2.15 -79.05 1.35 -78.8 L-2.2 -78.25 -3.5 -78.25 -5.45 -78.3 -8.8 -78.6 -8.85 -78.6 -9.1 -78.6 Q-13.2 -78.95 -15.35 -78.65 L-15.5 -78.6 -18.15 -77.85 -19.45 -77.1 Q-19.25 -73.95 -18.5 -70.45 L-18.35 -69.9 -18.3 -69.6 -18.2 -69.1 -16.7 -64.05 -14.95 -59.6 -13.7 -56.95 -12.9 -55.4 -16.0 -55.05 -16.0 -55.1 -16.65 -55.35 -18.85 -56.2 Q-20.0 -56.35 -20.35 -55.4 L-20.35 -55.45 -20.85 -56.95 -19.4 -56.4 Q-18.8 -56.45 -18.25 -58.2 -17.2 -61.45 -18.8 -65.55 -19.8 -68.1 -20.95 -69.25 L-21.25 -69.5 -22.15 -70.05 -22.9 -70.15 -23.2 -70.15 -24.05 -70.2 -24.15 -69.9 -24.35 -70.65 -24.45 -70.95 -24.6 -71.35 -25.1 -72.8 -25.1 -72.85 -23.85 -72.35 -22.6 -71.9 Q-22.0 -71.25 -20.85 -70.65 L-19.55 -69.95 -19.55 -70.0 -19.8 -70.95 -19.85 -71.25 Q-21.15 -75.8 -22.95 -77.95 L-22.0 -77.85 -21.7 -77.9 -21.65 -77.95 Q-22.25 -80.15 -21.85 -81.45 L-21.8 -81.5 -21.8 -81.6 -21.75 -81.65 -21.75 -81.7 -21.7 -81.8 -21.05 -82.6 Q-20.35 -83.1 -19.1 -83.05 L-17.8 -82.8 -14.65 -82.15 -14.55 -82.1 -14.35 -82.1 -14.3 -82.05 -11.85 -81.85 -10.0 -82.15 Q-9.2 -82.45 -8.55 -83.1" fill="url(#gradient1)" fill-rule="evenodd" stroke="none"/>
      <path d="M-29.95 -83.1 L-26.45 -83.1 -25.95 -81.35 -25.55 -80.5 Q-24.4 -78.3 -23.35 -77.6 -23.1 -78.4 -23.0 -79.65 L-23.0 -79.85 -23.8 -82.05 -24.3 -83.1 -8.55 -83.1 Q-9.2 -82.45 -10.0 -82.15 L-11.85 -81.85 -14.3 -82.05 -14.35 -82.1 -14.55 -82.1 -14.65 -82.15 -17.8 -82.8 -19.1 -83.05 Q-20.35 -83.1 -21.05 -82.6 L-21.7 -81.8 -21.75 -81.7 -21.75 -81.65 -21.8 -81.6 -21.8 -81.5 -21.85 -81.45 Q-22.25 -80.15 -21.65 -77.95 L-21.7 -77.9 -22.0 -77.85 -22.95 -77.95 Q-21.15 -75.8 -19.85 -71.25 L-19.8 -70.95 -19.55 -70.0 -19.55 -69.95 -20.85 -70.65 Q-22.0 -71.25 -22.6 -71.9 L-23.85 -72.35 -25.1 -72.85 -26.1 -75.2 -27.4 -78.05 -29.05 -81.4 -29.7 -82.6 -29.95 -83.1 M-20.85 -56.95 L-20.85 -57.0 -21.0 -57.55 -22.65 -64.35 -22.75 -64.8 -24.1 -69.85 -24.15 -69.9 -24.05 -70.2 -23.2 -70.15 -22.9 -70.15 -22.15 -70.05 -21.25 -69.5 -20.95 -69.25 Q-19.8 -68.1 -18.8 -65.55 -17.2 -61.45 -18.25 -58.2 -18.8 -56.45 -19.4 -56.4 L-20.85 -56.95 M-20.35 -55.4 Q-20.0 -56.35 -18.85 -56.2 L-16.65 -55.35 -16.0 -55.1 -16.0 -55.05 -20.0 -54.35 -20.35 -55.4" fill="url(#gradient2)" fill-rule="evenodd" stroke="none"/>
      <path d="M-24.2 -53.2 L-25.15 -54.25 Q-29.95 -59.7 -32.9 -64.8 L-33.75 -66.4 -33.8 -66.5 -33.4 -67.0 -33.25 -67.55 Q-32.95 -68.55 -33.2 -69.65 -33.75 -72.55 -35.25 -76.3 L-35.25 -79.45 -33.55 -75.3 Q-31.3 -69.1 -32.05 -66.6 L-32.5 -65.6 -32.65 -65.3 Q-30.7 -61.55 -28.7 -59.1 L-24.65 -55.05 -23.1 -53.65 -23.45 -53.55 -24.2 -53.2 M3.65 -83.1 L4.9 -83.1 5.25 -78.5 4.95 -78.35 2.6 -78.1 2.35 -78.2 Q1.35 -77.5 -0.05 -77.2 L-5.1 -76.55 -5.95 -76.75 -10.5 -77.2 Q-15.0 -77.55 -16.3 -75.4 -17.6 -73.4 -15.8 -66.0 L-15.65 -65.45 -15.6 -65.15 Q-14.0 -58.85 -12.1 -55.45 L-12.9 -55.4 -13.7 -56.95 -14.95 -59.6 -16.7 -64.05 -18.2 -69.1 -18.3 -69.6 -18.35 -69.9 -18.5 -70.45 Q-19.25 -73.95 -19.45 -77.1 L-18.15 -77.85 -15.5 -78.6 -15.35 -78.65 Q-13.2 -78.95 -9.1 -78.6 L-8.85 -78.6 -8.8 -78.6 -5.45 -78.3 -3.5 -78.25 -2.2 -78.25 1.35 -78.8 Q2.15 -79.05 2.8 -79.45 L2.9 -79.45 2.9 -79.5 3.0 -79.65 3.35 -80.4 3.6 -81.4 3.65 -82.95 3.65 -83.0 3.65 -83.1 M2.9 -79.45 L3.0 -79.65 2.9 -79.45" fill="#5a6c74" fill-rule="evenodd" stroke="none"/>
      <path d="M-0.25 -53.9 Q-0.1 -56.25 0.75 -58.9 L1.45 -60.55 2.0 -61.3 2.15 -61.35 2.2 -61.3 2.3 -60.65 Q1.45 -59.4 0.95 -58.0 L0.85 -57.7 0.75 -57.45 0.45 -55.6 0.15 -53.8 -0.25 -53.9" fill="#9a9188" fill-rule="evenodd" stroke="none"/>
      <path d="M6.4 -83.1 L7.85 -83.1 Q9.45 -75.05 8.45 -70.9 8.05 -76.6 6.4 -83.1" fill="#2e3a4d" fill-rule="evenodd" stroke="none"/>
      <path d="M12.6 -83.1 L12.65 -82.8 13.85 -76.65 Q14.3 -72.95 14.35 -70.15 L14.35 -68.15 14.35 -68.1 13.2 -67.5 12.65 -67.25 10.3 -66.85 9.15 -66.95 Q7.65 -67.05 2.85 -68.45 -1.1 -69.6 -3.15 -69.3 L-4.5 -68.9 -5.3 -68.5 -5.4 -68.4 -5.75 -67.65 -6.05 -66.6 Q-7.0 -63.7 -6.7 -60.9 L-6.3 -58.85 -5.6 -56.85 -4.65 -55.0 M-24.2 -53.2 L-25.15 -54.25 Q-29.95 -59.7 -32.9 -64.8 L-33.75 -66.4 M-33.8 -66.5 L-33.4 -67.0 -33.25 -67.55 Q-32.95 -68.55 -33.2 -69.65 -33.75 -72.55 -35.25 -76.3 M3.65 -83.1 L3.65 -83.0 3.65 -82.95 3.6 -81.4 3.35 -80.4 3.0 -79.65 2.9 -79.45 2.8 -79.45 Q2.15 -79.05 1.35 -78.8 L-2.2 -78.25 -3.5 -78.25 -5.45 -78.3 -8.8 -78.6 -8.85 -78.6 -9.1 -78.6 Q-13.2 -78.95 -15.35 -78.65 L-15.5 -78.6 -18.15 -77.85 -19.45 -77.1 Q-19.25 -73.95 -18.5 -70.45 L-18.35 -69.9 -18.3 -69.6 -18.2 -69.1 -16.7 -64.05 -14.95 -59.6 -13.7 -56.95 -12.9 -55.4 M2.9 -79.45 L2.9 -79.5 3.0 -79.65 M-5.4 -68.4 L-6.1 -67.85 -6.2 -67.75 -7.75 -65.55 M-15.85 -37.1 L-15.5 -37.7 -14.2 -39.2 -13.75 -39.55 -13.7 -39.6 -12.15 -40.55 -10.05 -41.25 -7.95 -41.5 -4.5 -41.3 -3.45 -41.15 Q-0.4 -40.65 2.7 -39.6 L4.95 -38.5 Q6.25 -37.75 7.35 -36.55 L8.8 -34.75 8.95 -34.5 M-25.1 -72.85 L-26.1 -75.2 -27.4 -78.05 -29.05 -81.4 -29.7 -82.6 -29.95 -83.1 M-24.15 -69.9 L-24.35 -70.65 -24.45 -70.95 -24.6 -71.35 -25.1 -72.8 -25.1 -72.85 M-20.85 -56.95 L-20.85 -57.0 -21.0 -57.55 -22.65 -64.35 -22.75 -64.8 -24.1 -69.85 -24.15 -69.9 M-20.85 -56.95 L-20.35 -55.45 -20.35 -55.4 -20.0 -54.35" fill="none" stroke="#0e1823" stroke-linecap="round" stroke-linejoin="round" stroke-width="1.0"/>
      <path d="M-4.65 -55.0 L-0.25 -53.9 Q-0.1 -56.25 0.75 -58.9 L1.45 -60.55 2.0 -61.3 2.15 -61.35 2.2 -61.3 2.3 -60.65 2.6 -58.65 Q3.15 -55.15 3.95 -52.75 10.1 -50.95 12.15 -49.6 15.3 -47.5 17.8 -44.75 L18.3 -44.2 19.35 -43.0 Q20.7 -41.3 22.85 -37.3 25.65 -32.1 25.65 -29.6 25.65 -27.45 25.0 -24.75 L23.75 -20.95 21.65 -18.75 20.8 -17.7 20.65 -17.55 Q20.35 -16.8 20.35 -15.7 L20.5 -14.85 20.9 -13.95 20.95 -13.85 M21.15 -13.65 L23.85 -11.45 M-25.4 -52.7 L-24.2 -53.2 -23.45 -53.55 -23.1 -53.65 -21.25 -54.1 -20.0 -54.35 -16.0 -55.05 -12.9 -55.4 -12.1 -55.45 -9.95 -55.5 -8.5 -55.4 -8.05 -55.35 -6.2 -55.25 -5.7 -55.25 -5.2 -55.15 -4.65 -55.0 M0.45 -53.7 L1.9 -53.3 3.95 -52.75 M0.15 -53.8 L0.45 -53.7 M18.7 -15.3 L18.8 -15.2 M-3.2 -10.7 L-3.0 -10.9 -1.8 -12.35 -1.7 -12.45 -1.55 -12.6 0.7 -14.85 1.8 -15.9 M29.9 -10.7 L29.65 -12.15 29.75 -13.25 29.9 -14.45 30.4 -14.35 30.45 -14.25 30.7 -13.8 32.75 -10.7 M-28.6 -51.1 L-25.4 -52.7 M-33.8 -47.5 L-34.15 -47.1 -35.25 -45.5 M-33.8 -47.5 L-33.05 -48.2 -31.8 -49.15 -28.6 -51.1 M-20.7 -17.85 L-20.45 -17.95 -20.25 -18.1 Q-19.75 -18.3 -19.45 -20.6 -19.1 -22.9 -23.4 -29.0 -27.65 -35.1 -31.55 -37.75 L-34.45 -39.7 -35.25 -40.4 M-27.4 -10.7 L-27.3 -12.25 -27.15 -13.6 -26.0 -15.9 Q-25.1 -17.05 -23.2 -17.7 L-22.45 -17.75 -20.75 -17.85 -21.1 -17.7 -21.5 -17.55 Q-23.0 -16.8 -23.3 -15.6 -23.45 -14.6 -23.2 -11.55 L-23.15 -10.7 M-0.25 -53.9 L0.15 -53.8" fill="none" stroke="#5f5852" stroke-linecap="round" stroke-linejoin="round" stroke-width="1.0"/>
      <path d="M23.85 -11.45 L23.85 -12.1 23.85 -12.95 24.35 -12.95 27.1 -10.7 M-35.25 -57.5 L-33.9 -57.05 Q-31.65 -56.2 -29.05 -54.8 L-28.6 -54.55 -28.05 -54.25 -27.5 -53.95 -26.95 -53.65 -25.4 -52.7 M16.2 -11.2 L16.4 -11.15 16.85 -10.85 17.1 -10.7 M16.2 -11.2 L16.05 -11.2 Q15.65 -11.2 15.2 -10.7 M23.85 -10.85 L23.85 -11.45 M-34.55 -10.7 L-34.95 -10.8 -35.25 -10.85" fill="none" stroke="#3a120a" stroke-linecap="round" stroke-linejoin="round" stroke-width="1.0"/>
      <path d="M-33.75 -66.4 L-33.8 -66.5 M8.95 -34.5 L10.1 -32.55 10.8 -31.15 10.9 -30.85 11.0 -30.6 M1.8 -15.9 L-0.2 -20.2 -0.4 -20.75 -2.05 -24.0 -3.9 -26.8 -5.65 -28.9 Q-8.75 -32.3 -13.55 -35.6 L-14.35 -36.15 -15.85 -37.1 -18.05 -38.45 -21.1 -40.1 -23.9 -41.55 -26.05 -42.55 -26.75 -42.9 M-20.75 -17.85 L-20.7 -17.85 M-20.95 -17.7 L-21.1 -17.7 M-21.5 -17.55 L-21.25 -17.55 -20.95 -17.7 -20.75 -17.85" fill="none" stroke="#000000" stroke-linecap="round" stroke-linejoin="round" stroke-width="1.0"/>
      <path d="M20.95 -13.85 L21.15 -13.65 21.55 -13.35 22.2 -12.65 22.9 -11.9 23.85 -10.85 24.0 -10.7 M13.5 -26.05 L13.95 -25.25 14.55 -24.05 14.6 -23.8 14.65 -23.45 14.7 -23.2 14.8 -23.15 15.45 -22.8 16.65 -20.7 16.95 -20.3 17.4 -19.45 18.3 -17.75 18.55 -17.3 18.55 -17.25 18.6 -16.85 18.7 -15.3 18.85 -15.3 19.3 -15.15 19.95 -14.75 20.3 -14.45 20.95 -13.85 M11.0 -30.6 L12.85 -27.3 13.5 -26.05 M3.55 -25.2 L4.65 -26.8 7.35 -26.3 8.65 -26.25 8.7 -26.25 10.1 -26.35 Q12.2 -28.1 11.0 -30.6 M14.75 -22.9 L14.7 -23.2 M12.4 -21.7 L12.1 -22.45 11.75 -23.15 10.8 -25.05 10.1 -26.35 M14.75 -22.55 L14.75 -22.05 14.75 -20.75 Q14.7 -19.8 14.25 -19.0 L14.2 -18.85 13.3 -17.85 13.3 -17.7 13.3 -17.65 13.2 -17.45 13.2 -17.4 13.15 -17.35 13.5 -17.05 13.55 -17.0 14.55 -15.7 14.6 -15.65 14.6 -15.6 14.65 -15.55 15.05 -14.75 15.15 -14.55 15.55 -13.65 15.7 -13.35 15.7 -13.3 16.1 -11.95 16.2 -11.2 M14.75 -22.9 L14.75 -22.55 M13.1 -19.8 L13.1 -19.85 12.4 -21.7 M13.35 -18.25 L13.2 -19.4 13.15 -19.55 13.1 -19.8 M13.3 -17.85 L13.35 -18.1 13.35 -18.25 M12.2 -17.05 L12.75 -17.2 13.1 -17.25 13.15 -17.35 M11.95 -17.0 L12.2 -17.05 M11.95 -17.0 L11.5 -16.95 11.35 -16.95 9.75 -17.15 9.7 -17.2 7.7 -17.65 7.25 -17.75 6.5 -17.95 5.7 -18.25 2.85 -19.25 2.75 -19.3 2.5 -19.4 2.6 -17.6 3.05 -14.2 Q3.45 -12.15 4.0 -10.7 M18.7 -15.1 L18.7 -15.3 M18.8 -15.2 L18.85 -15.3 M18.7 -15.1 L18.7 -14.95 18.6 -13.55 18.25 -11.6 18.1 -10.7 M18.8 -15.2 L18.75 -15.15 18.7 -15.1 M3.55 -25.2 L3.1 -24.15 2.85 -23.35 2.5 -21.15 2.5 -19.75 2.5 -19.4" fill="none" stroke="#74595b" stroke-linecap="round" stroke-linejoin="round" stroke-width="1.0"/>
    </g>
    <linearGradient gradientTransform="matrix(-0.0028, -0.0048, -0.0063, 0.0037, 18.75, 11.35)" gradientUnits="userSpaceOnUse" id="gradient0" spreadMethod="pad" x1="-819.2" x2="819.2">
      <stop offset="0.0" stop-color="#2e3347"/>
      <stop offset="1.0" stop-color="#873c25"/>
    </linearGradient>
    <linearGradient gradientTransform="matrix(-0.0466, 0.0077, -0.0117, 0.1052, -31.2, -79.65)" gradientUnits="userSpaceOnUse" id="gradient1" spreadMethod="pad" x1="-819.2" x2="819.2">
      <stop offset="0.00784313725490196" stop-color="#8b986f"/>
      <stop offset="0.32941176470588235" stop-color="#cdc375"/>
      <stop offset="0.7529411764705882" stop-color="#d98f75"/>
      <stop offset="1.0" stop-color="#db8675"/>
    </linearGradient>
    <linearGradient gradientTransform="matrix(-0.0466, 0.0077, -0.0117, 0.1052, -31.2, -79.65)" gradientUnits="userSpaceOnUse" id="gradient2" spreadMethod="pad" x1="-819.2" x2="819.2">
      <stop offset="0.00784313725490196" stop-color="#a9c46d"/>
      <stop offset="0.32941176470588235" stop-color="#e5d76f"/>
      <stop offset="0.7529411764705882" stop-color="#ff9b79"/>
      <stop offset="1.0" stop-color="#f57d65"/>
    </linearGradient>
    <g id="sprite1" transform="matrix(1.0, 0.0, 0.0, 1.0, -9.5, 12.75)">
      <use ffdec:characterId="5" height="13.9" transform="matrix(1.0, 0.0, 0.0, 1.0, 9.5, -12.75)" width="15.65" xlink:href="#shape3"/>
    </g>
    <g id="shape3" transform="matrix(1.0, 0.0, 0.0, 1.0, -9.5, 12.75)">
      <path d="M10.0 -7.3 L11.3 -7.1 12.05 -10.35 Q13.95 -9.85 16.05 -8.9 16.4 -8.65 16.9 -8.55 18.6 -6.35 18.8 -4.65 L17.75 -4.75 17.0 -5.3 15.95 -5.3 15.95 -3.35 Q15.75 -2.1 15.0 -1.8 14.45 -2.6 10.0 -5.3 L10.0 -7.3 M10.0 -4.45 Q10.55 -4.45 13.4 -2.2 L16.8 0.55 16.8 0.35 Q16.5 -0.85 16.5 -2.65 17.1 -2.3 17.25 -3.25 17.45 -4.2 18.2 -4.2 19.65 -4.2 22.95 -0.85 L24.25 0.65 10.0 0.65 10.0 -4.45" fill="#615db1" fill-rule="evenodd" stroke="none"/>
      <path d="M16.9 -8.55 L16.25 -9.3 15.75 -9.85 17.75 -8.65 Q23.55 -4.85 24.65 0.65 L24.25 0.65 22.95 -0.85 Q19.65 -4.2 18.2 -4.2 17.45 -4.2 17.25 -3.25 17.1 -2.3 16.5 -2.65 16.5 -0.85 16.8 0.35 L16.8 0.55 13.4 -2.2 Q10.55 -4.45 10.0 -4.45 L10.0 -5.3 Q14.45 -2.6 15.0 -1.8 15.75 -2.1 15.95 -3.35 L15.95 -5.3 17.0 -5.3 17.75 -4.75 18.8 -4.65 Q18.6 -6.35 16.9 -8.55" fill="#83a9f2" fill-rule="evenodd" stroke="none"/>
      <path d="M10.0 -7.3 L10.0 -12.25 Q12.55 -11.7 15.75 -9.85 L16.25 -9.3 16.9 -8.55 Q16.4 -8.65 16.05 -8.9 13.95 -9.85 12.05 -10.35 L11.3 -7.1 10.0 -7.3" fill="#443f5f" fill-rule="evenodd" stroke="none"/>
      <path d="M15.75 -9.85 Q12.55 -11.7 10.0 -12.25 M24.65 0.65 Q23.55 -4.85 17.75 -8.65 L15.75 -9.85" fill="none" stroke="#100815" stroke-linecap="round" stroke-linejoin="round" stroke-width="1.0"/>
    </g>
    <g id="sprite2" transform="matrix(1.0, 0.0, 0.0, 1.0, 47.35, 17.8)">
      <use ffdec:characterId="7" height="63.5" transform="matrix(1.0, 0.0, 0.0, 1.0, -47.35, -17.8)" width="72.8" xlink:href="#shape4"/>
    </g>
    <g id="shape4" transform="matrix(1.0, 0.0, 0.0, 1.0, 47.35, 17.8)">
      <path d="M9.65 -4.05 L10.75 -3.9 11.45 -3.95 11.45 -4.35 Q11.35 -6.35 11.9 -13.5 L12.2 -17.3 12.8 -17.3 13.2 -15.3 14.1 -10.5 14.2 -9.9 14.75 -6.6 14.9 -5.85 14.95 -5.6 15.6 -1.2 16.75 7.9 17.3 13.5 17.7 18.2 17.8 19.65 17.85 22.3 17.85 22.65 17.6 22.35 16.7 21.25 16.45 20.9 15.2 19.35 14.9 19.0 14.55 18.55 12.6 16.2 12.2 15.75 6.25 8.65 3.85 5.85 1.0 2.5 -0.4 0.85 -1.25 -0.15 -2.45 -1.55 -5.45 -5.05 -5.5 -5.1 -7.2 -7.1 -8.2 -8.3 -11.15 -11.8 -11.9 -12.7 -5.75 -10.05 -5.25 -9.8 1.05 -7.1 4.0 -5.9 6.85 -4.85 9.65 -4.05 M15.3 -17.3 L19.1 -17.3 Q18.95 -14.15 18.95 -10.25 L18.9 -8.25 18.9 -8.2 18.9 -5.25 18.9 -3.3 18.9 -2.9 18.9 -2.0 18.75 8.45 18.65 11.85 18.45 10.2 17.5 2.95 17.05 -0.55 15.45 -12.35 14.9 -16.25 15.3 -17.3 M13.4 14.15 L14.25 15.0 14.85 15.55 15.5 16.1 15.7 15.35 15.9 15.05 Q15.6 14.7 14.85 12.6 L14.0 10.3 12.35 5.5 11.8 3.85 11.15 1.85 7.6 -0.2 0.35 -4.05 -5.35 -7.65 -5.6 -7.85 -7.35 -9.3 -7.25 -8.85 -5.55 -6.85 -5.4 -6.7 -4.4 -5.5 -0.35 -0.85 0.8 0.5 1.55 1.35 3.05 3.05 6.55 6.95 11.8 12.55 13.4 14.15 M1.1 4.7 Q6.45 10.75 11.2 16.7 L-10.25 0.35 -11.55 -0.6 -14.4 -2.8 -24.9 -10.7 -26.4 -11.8 -27.8 -12.8 -25.45 -12.5 -22.0 -11.65 -21.15 -11.35 Q-18.15 -10.2 -15.8 -10.1 L-12.85 -9.95 -9.5 -6.6 -7.1 -4.15 -5.4 -2.35 -4.2 -1.05 -3.0 0.25 -1.45 1.9 1.1 4.7" fill="#ffffff" fill-rule="evenodd" stroke="none"/>
      <path d="M4.0 -12.85 L4.15 -13.5 6.1 -16.5 6.45 -14.75 Q6.7 -13.5 7.5 -13.5 L8.0 -13.8 8.2 -12.35 7.95 -11.25 7.85 -10.95 Q7.35 -10.95 7.2 -11.8 L6.9 -12.95 6.3 -12.65 6.1 -12.35 5.7 -12.35 Q5.95 -12.8 5.55 -13.55 L4.9 -14.55 Q4.6 -14.3 4.0 -12.85" fill="#3c4e62" fill-rule="evenodd" stroke="none"/>
      <path d="M4.15 -13.5 L4.7 -15.75 5.25 -17.3 7.45 -17.3 7.95 -14.2 8.0 -13.8 7.5 -13.5 Q6.7 -13.5 6.45 -14.75 L6.1 -16.5 4.15 -13.5" fill="#4b6e84" fill-rule="evenodd" stroke="none"/>
      <path d="M10.55 -17.3 Q10.0 -14.95 10.1 -14.15 10.45 -12.15 9.95 -10.95 9.7 -10.25 8.7 -9.3 L7.95 -8.4 8.15 -11.05 8.25 -12.05 8.25 -12.1 8.4 -13.3 8.95 -17.3 10.55 -17.3 M13.5 -17.3 L15.3 -17.3 14.9 -16.25 15.45 -12.35 15.4 -12.35 Q14.1 -12.35 14.1 -10.5 L13.2 -15.3 13.5 -17.3 M19.1 -17.3 L19.75 -17.3 19.7 -17.05 19.2 -12.45 18.95 -10.25 Q18.95 -14.15 19.1 -17.3 M-14.1 30.85 L-14.75 30.95 -16.0 31.0 Q-16.3 29.6 -17.4 27.95 L-18.9 25.3 Q-18.9 24.5 -18.45 24.25 L-18.4 24.2 -18.25 24.45 -17.85 25.6 -17.15 27.1 -15.65 29.0 -14.1 30.85 M-44.9 21.5 L-46.85 20.15 -46.85 18.3 -46.75 18.3 -46.85 17.8 -46.85 14.3 -46.75 14.3 -46.75 12.9 -46.85 12.65 -46.85 10.65 -43.0 13.1 Q-40.6 14.65 -39.95 15.5 L-39.95 17.5 -42.35 17.5 -43.35 16.9 -43.95 16.3 -46.35 16.3 Q-46.05 17.4 -44.95 18.5 L-43.15 20.3 -43.15 21.5 -44.9 21.5 M-46.85 -5.45 L-46.85 -8.35 -45.95 -8.1 -45.75 -8.5 Q-45.55 -8.75 -45.55 -9.35 -45.55 -10.7 -46.85 -12.85 L-46.85 -17.3 -44.6 -17.3 -41.9 -14.9 -34.85 -9.2 -34.15 -8.7 -33.2 -8.0 -34.35 -8.1 Q-36.75 -8.1 -36.75 -5.9 -36.75 -5.2 -35.95 -4.2 -35.15 -3.2 -35.15 -1.7 -35.75 -1.4 -36.75 -1.15 L-38.55 -0.9 Q-40.7 -0.9 -44.9 -4.1 L-46.85 -5.45 M3.75 -11.4 L4.0 -12.85 Q4.6 -14.3 4.9 -14.55 L5.55 -13.55 Q5.95 -12.8 5.7 -12.35 L6.1 -12.35 6.3 -12.65 6.9 -12.95 7.2 -11.8 Q7.35 -10.95 7.85 -10.95 7.4 -9.8 6.5 -9.15 6.0 -9.55 5.8 -10.4 L5.5 -11.75 Q4.85 -11.7 4.35 -10.65 L3.75 -11.4 M-3.95 26.65 Q-3.9 29.25 -2.45 31.25 L-1.35 32.45 -0.65 32.85 -0.6 32.9 0.05 33.2 -0.25 33.15 -0.35 33.15 -0.85 33.1 -1.3 33.0 -2.35 32.9 -2.45 32.85 -3.55 31.8 Q-4.55 30.55 -4.7 28.7 L-4.7 26.3 -4.3 26.3 -3.95 26.65 M-43.15 -10.95 Q-43.15 -9.3 -42.25 -8.1 -41.25 -6.75 -39.55 -6.5 L-39.35 -6.8 Q-39.15 -6.95 -39.15 -7.5 L-39.4 -8.55 -42.35 -10.95 -43.15 -10.95 M-19.45 20.25 L-20.0 19.95 -21.1 19.3 -21.9 18.9 Q-22.9 18.35 -24.2 17.7 -25.85 16.9 -27.4 16.25 L-26.35 15.8 Q-23.7 14.65 -22.85 14.65 L-22.0 14.7 Q-21.55 16.5 -19.65 19.4 L-19.5 19.7 -18.7 20.8 Q-19.0 20.55 -19.45 20.25" fill="#2e4054" fill-rule="evenodd" stroke="none"/>
      <path d="M10.55 -17.3 L12.2 -17.3 11.9 -13.5 Q11.35 -6.35 11.45 -4.35 L10.75 -3.9 9.65 -4.05 7.9 -6.2 7.95 -8.4 7.9 -6.2 7.2 -7.15 4.35 -10.65 Q4.85 -11.7 5.5 -11.75 L5.8 -10.4 Q6.0 -9.55 6.5 -9.15 7.4 -9.8 7.85 -10.95 L7.95 -11.25 8.2 -12.35 8.25 -12.1 8.25 -12.05 8.15 -11.05 7.95 -8.4 8.7 -9.3 Q9.7 -10.25 9.95 -10.95 10.45 -12.15 10.1 -14.15 10.0 -14.95 10.55 -17.3 M12.8 -17.3 L13.5 -17.3 13.2 -15.3 12.8 -17.3 M-25.85 24.45 L-33.65 24.7 -39.35 24.1 -43.0 22.8 -44.9 21.5 -43.15 21.5 -43.15 20.3 -44.95 18.5 Q-46.05 17.4 -46.35 16.3 L-43.95 16.3 -43.35 16.9 -42.35 17.5 -39.95 17.5 -39.95 15.5 Q-40.6 14.65 -43.0 13.1 L-46.85 10.65 -46.85 8.6 Q-41.3 12.2 -36.65 14.6 -32.15 16.9 -30.65 16.9 L-30.15 16.8 -30.1 16.8 Q-29.5 19.75 -25.85 24.45 M-46.85 18.3 L-46.85 17.8 -46.75 18.3 -46.85 18.3 M-46.85 14.3 L-46.85 12.65 -46.75 12.9 -46.75 14.3 -46.85 14.3 M-46.85 -0.7 L-46.85 -5.45 -44.9 -4.1 Q-40.7 -0.9 -38.55 -0.9 L-36.75 -1.15 Q-35.75 -1.4 -35.15 -1.7 -35.15 -3.2 -35.95 -4.2 -36.75 -5.2 -36.75 -5.9 -36.75 -8.1 -34.35 -8.1 L-33.2 -8.0 -30.75 -6.25 -27.3 -3.95 -25.1 -2.45 -23.8 -1.55 -22.6 -0.75 -21.4 0.05 -22.8 -0.15 -23.65 -0.15 -24.65 0.15 -25.8 0.75 -26.2 1.1 -27.95 2.5 -30.1 4.4 Q-30.45 4.4 -31.3 5.05 L-33.5 4.7 -33.75 4.6 -37.4 3.3 -37.45 3.3 -37.5 3.25 -43.95 0.55 -46.85 -0.7 M-46.85 -8.35 L-46.85 -12.85 Q-45.55 -10.7 -45.55 -9.35 -45.55 -8.75 -45.75 -8.5 L-45.95 -8.1 -46.85 -8.35 M15.45 -12.35 L17.05 -0.55 16.5 0.45 16.2 1.0 16.15 0.3 16.0 -1.1 15.4 -7.4 15.2 -7.05 15.05 -6.8 14.75 -6.6 14.2 -9.9 14.1 -10.5 Q14.1 -12.35 15.4 -12.35 L15.45 -12.35 M-43.15 -10.95 L-42.35 -10.95 -39.4 -8.55 -39.15 -7.5 Q-39.15 -6.95 -39.35 -6.8 L-39.55 -6.5 Q-41.25 -6.75 -42.25 -8.1 -43.15 -9.3 -43.15 -10.95" fill="#293446" fill-rule="evenodd" stroke="none"/>
      <path d="M7.9 -6.2 L9.65 -4.05 6.85 -4.85 0.2 -13.9 -1.0 -15.4 -1.2 -15.8 -2.35 -17.3 -1.35 -17.3 2.5 -13.0 3.3 -12.0 3.55 -11.75 3.75 -11.4 4.35 -10.65 7.2 -7.15 7.9 -6.2 M-0.4 0.85 L1.0 2.5 -1.45 1.9 -3.0 0.25 -0.4 0.85 M14.55 18.55 L14.9 19.0 14.9 19.5 14.9 19.7 14.9 20.55 14.75 21.2 14.6 19.7 14.55 18.55 M15.6 -1.2 L14.95 -5.6 14.95 -6.15 15.05 -6.8 15.2 -7.05 15.4 -7.4 16.0 -1.1 15.7 -1.9 15.7 -2.05 15.6 -1.2" fill="#ff8469" fill-rule="evenodd" stroke="none"/>
      <path d="M19.2 -12.45 L19.35 -10.95 19.6 -9.4 20.35 -4.65 20.4 -4.3 21.25 -3.8 22.2 -2.9 23.35 -0.4 23.5 -0.05 24.0 0.95 24.4 3.75 24.65 6.25 24.95 13.3 24.85 18.35 24.75 18.7 24.7 18.9 23.95 20.8 22.7 22.7 22.2 23.4 21.8 23.9 21.75 23.95 21.1 24.8 Q20.9 28.95 20.3 31.15 19.65 33.8 18.25 34.95 L18.4 36.2 18.6 36.7 Q19.2 37.95 20.25 37.75 20.05 39.5 20.0 41.4 L19.8 41.9 18.7 43.75 18.15 43.2 16.05 36.35 Q14.75 31.5 12.5 24.7 L13.8 23.75 14.1 23.6 14.9 23.25 14.9 23.2 15.75 22.9 17.6 22.35 17.85 22.65 17.85 22.3 18.9 21.9 19.5 23.45 20.65 23.5 22.75 19.8 Q23.75 17.3 23.75 12.9 L23.35 9.5 23.15 8.0 22.55 8.3 Q22.2 7.4 22.0 6.0 L21.75 3.9 21.9 1.75 22.1 -0.5 22.55 -0.5 21.9 -1.75 Q20.75 -3.8 19.6 -4.1 L19.5 -3.95 18.9 -8.2 18.9 -8.25 18.95 -10.25 19.2 -12.45 M-46.85 1.85 L-46.85 -0.7 -43.95 0.55 -37.5 3.25 -37.45 3.3 -37.4 3.3 -37.35 3.35 -34.15 5.5 -34.15 5.9 -36.95 5.95 Q-41.2 4.55 -46.85 1.85 M20.4 -4.3 L20.3 -4.35 20.2 -4.35 19.6 -4.1 20.2 -4.35 20.3 -4.35 20.4 -4.3 M-9.25 4.15 Q-4.9 5.9 -1.9 7.6 1.6 9.6 3.65 11.7 L5.55 13.9 6.8 15.45 7.05 15.8 8.1 17.05 9.5 18.65 Q12.35 21.6 13.75 21.9 L13.9 21.95 14.05 21.95 14.6 21.85 14.8 21.85 14.85 21.85 14.9 21.85 15.3 21.9 16.25 21.75 15.8 22.55 14.9 22.7 14.85 22.7 13.95 22.7 13.85 22.7 13.3 22.7 Q10.45 22.7 6.25 18.95 L4.2 16.9 3.35 17.1 3.3 17.1 Q1.3 17.1 -1.1 15.5 -3.9 13.6 -3.9 11.3 L-3.9 9.9 Q-3.75 9.6 -2.5 9.5 L-3.5 8.7 Q-4.7 8.0 -11.3 5.8 L-15.5 4.45 Q-23.7 1.8 -24.6 0.9 L-24.75 0.65 -24.75 0.6 -23.65 -0.15 -22.8 -0.15 -21.4 0.05 -20.85 0.15 -12.55 2.9 -9.25 4.15 M19.95 27.5 L20.2 25.95 19.35 27.05 19.35 27.1 19.2 27.3 18.35 28.4 18.3 28.4 18.3 28.45 18.05 29.95 17.95 31.7 17.95 32.05 17.95 32.55 18.05 33.25 18.25 32.9 18.75 31.95 19.65 29.25 19.95 27.5 M18.25 34.95 L18.1 34.15 18.1 33.9 18.05 33.25 18.1 33.9 18.1 34.15 18.25 34.95 M20.2 25.95 L21.1 24.8 20.2 25.95" fill="#f3e2db" fill-rule="evenodd" stroke="none"/>
      <path d="M21.8 23.9 L21.75 24.3 21.6 27.25 21.55 27.5 21.1 32.85 20.65 35.2 20.45 36.2 20.25 37.75 Q19.2 37.95 18.6 36.7 L18.4 36.2 18.25 34.95 Q19.65 33.8 20.3 31.15 20.9 28.95 21.1 24.8 L21.75 23.95 21.8 23.9 M20.0 41.4 L20.0 41.45 19.6 43.2 19.2 43.55 Q18.65 44.15 18.85 44.45 18.9 44.6 18.65 44.55 L15.85 43.9 14.75 43.5 13.3 41.0 11.9 38.05 11.95 37.8 Q12.1 35.45 10.8 32.2 9.5 28.95 7.4 26.5 -2.6 17.2 -15.0 12.3 L-17.15 11.5 -19.5 10.7 -23.3 9.35 -25.35 8.6 Q-28.35 7.1 -28.35 4.7 -28.35 3.7 -26.6 2.1 L-25.2 0.95 -25.1 0.9 -25.0 0.8 -24.75 0.6 -24.75 0.65 -24.6 0.9 Q-23.7 1.8 -15.5 4.45 L-11.3 5.8 Q-4.7 8.0 -3.5 8.7 L-2.5 9.5 Q-3.75 9.6 -3.9 9.9 L-3.9 11.3 Q-3.9 13.6 -1.1 15.5 1.3 17.1 3.3 17.1 L3.35 17.1 4.2 16.9 6.25 18.95 Q10.45 22.7 13.3 22.7 L13.85 22.7 13.95 22.7 14.85 22.7 14.9 22.7 15.8 22.55 16.25 21.75 16.7 21.25 17.6 22.35 15.75 22.9 14.9 23.2 14.9 23.25 14.1 23.6 13.8 23.75 12.5 24.7 Q14.75 31.5 16.05 36.35 L18.15 43.2 18.7 43.75 19.8 41.9 20.0 41.4 M-46.85 4.3 L-46.85 1.85 Q-41.2 4.55 -36.95 5.95 L-34.15 5.9 -34.15 5.5 -37.35 3.35 -37.4 3.3 -33.75 4.6 -33.5 6.1 Q-33.5 7.0 -34.3 8.45 -35.0 9.9 -37.1 9.1 L-40.3 7.85 -46.85 4.3 M18.9 -2.9 L18.9 -3.3 18.9 -5.25 18.9 -8.2 19.5 -3.95 19.6 -4.1 Q20.75 -3.8 21.9 -1.75 L22.55 -0.5 22.1 -0.5 21.9 1.75 21.75 3.9 22.0 6.0 Q22.2 7.4 22.55 8.3 L23.15 8.0 23.35 9.5 23.75 12.9 Q23.75 17.3 22.75 19.8 L20.65 23.5 19.5 23.45 18.9 21.9 17.85 22.3 17.8 19.65 18.2 18.65 19.25 14.65 20.0 9.8 20.15 4.5 19.7 0.4 19.5 -0.75 18.9 -2.9 M19.5 -3.95 L18.9 -3.3 19.5 -3.95 M-18.15 23.65 L-17.65 23.9 -17.4 24.15 -14.4 27.2 Q-10.75 30.85 -6.95 32.1 L-2.5 32.85 -2.35 32.9 -1.3 33.0 -0.85 33.1 1.2 34.35 -2.15 34.1 -7.25 33.55 Q-9.3 33.2 -12.65 30.0 -15.35 27.45 -18.15 23.65" fill="#ccbfb6" fill-rule="evenodd" stroke="none"/>
      <path d="M10.75 -3.9 L11.45 -4.35 11.45 -3.95 10.75 -3.9 M14.9 -5.85 L14.75 -6.6 15.05 -6.8 14.95 -6.15 14.9 -5.85" fill="#873827" fill-rule="evenodd" stroke="none"/>
      <path d="M-6.2 -17.3 L-4.4 -17.3 -4.7 -15.85 -5.0 -13.0 -5.25 -9.8 -5.75 -10.05 -6.2 -17.1 -6.2 -17.3 M-4.2 -17.3 L-2.35 -17.3 -1.2 -15.8 -1.0 -15.4 0.2 -13.9 6.85 -4.85 4.0 -5.9 3.0 -7.35 Q-0.5 -12.6 -4.2 -17.3 M-5.5 -5.1 L-5.45 -5.05 -5.5 -4.45 -5.5 -5.1 M-2.45 -1.55 L-1.25 -0.15 -4.2 -1.05 -5.4 -2.35 -5.45 -3.0 Q-4.15 -2.15 -2.45 -1.55 M3.85 5.85 L6.25 8.65 12.2 15.75 12.6 16.2 13.75 21.9 Q12.35 21.6 9.5 18.65 L8.1 17.05 7.05 15.8 6.8 15.45 5.55 13.9 3.65 11.7 Q1.6 9.6 -1.9 7.6 -4.9 5.9 -9.25 4.15 L-10.55 1.45 -11.55 -0.6 -10.25 0.35 11.2 16.7 Q6.45 10.75 1.1 4.7 L3.85 5.85 M14.95 -5.6 L14.9 -5.85 14.95 -6.15 14.95 -5.6" fill="#6d2d20" fill-rule="evenodd" stroke="none"/>
      <path d="M14.9 19.0 L15.2 19.35 15.1 19.7 14.95 20.3 14.9 20.55 14.9 19.7 14.9 19.5 14.9 19.0 M16.75 7.9 L15.6 -1.2 15.7 -2.05 15.7 -1.9 16.0 -1.1 16.15 0.3 16.2 1.0 16.75 7.55 16.75 7.9" fill="#b8523d" fill-rule="evenodd" stroke="none"/>
      <path d="M18.45 10.2 L18.65 11.85 18.75 8.45 19.1 5.9 18.9 -2.0 18.9 -2.9 19.5 -0.75 19.7 0.4 20.15 4.5 20.0 9.8 19.25 14.65 18.2 18.65 17.8 19.65 17.7 18.2 17.3 13.5 Q17.95 12.55 18.45 10.2 M15.2 19.35 L16.45 20.9 16.7 21.25 16.25 21.75 15.3 21.9 14.9 21.85 14.85 21.85 14.8 21.85 14.6 21.85 14.6 21.7 14.75 21.2 14.9 20.55 14.95 20.3 15.1 19.7 15.2 19.35 M16.45 20.9 L15.85 21.3 15.15 21.7 14.9 21.8 14.85 21.85 14.9 21.8 15.15 21.7 15.85 21.3 16.45 20.9 M11.95 37.8 Q10.25 32.45 6.3 27.8 3.75 24.7 -0.9 20.9 L-5.6 17.65 -6.4 17.2 Q-8.65 16.0 -11.25 14.95 -21.2 10.75 -27.0 10.4 L-30.0 11.7 Q-33.5 13.3 -36.15 11.3 L-31.6 9.8 Q-28.9 8.8 -29.0 6.5 -29.05 4.4 -27.6 2.6 L-27.55 2.5 Q-26.65 1.45 -25.7 1.1 L-25.2 0.95 -26.6 2.1 Q-28.35 3.7 -28.35 4.7 -28.35 7.1 -25.35 8.6 L-23.3 9.35 -19.5 10.7 -17.15 11.5 -15.0 12.3 Q-2.6 17.2 7.4 26.5 9.5 28.95 10.8 32.2 12.1 35.45 11.95 37.8" fill="#7e796f" fill-rule="evenodd" stroke="none"/>
      <path d="M-46.85 8.6 L-46.85 4.3 -40.3 7.85 -37.1 9.1 Q-35.0 9.9 -34.3 8.45 -33.5 7.0 -33.5 6.1 L-33.75 4.6 -33.5 4.7 -31.3 5.05 Q-30.45 4.4 -30.1 4.4 L-27.95 2.5 -26.2 1.1 -25.8 0.75 -24.65 0.15 -23.65 -0.15 -24.75 0.6 -25.0 0.8 -25.1 0.9 -25.2 0.95 -25.7 1.1 Q-26.65 1.45 -27.55 2.5 L-27.6 2.6 Q-29.05 4.4 -29.0 6.5 -28.9 8.8 -31.6 9.8 L-36.15 11.3 Q-33.5 13.3 -30.0 11.7 L-27.0 10.4 Q-21.2 10.75 -11.25 14.95 -8.65 16.0 -6.4 17.2 L-5.6 17.65 -0.9 20.9 Q3.75 24.7 6.3 27.8 10.25 32.45 11.95 37.8 L11.9 38.05 13.3 41.0 14.75 43.5 Q12.1 42.55 9.25 40.85 5.8 38.75 2.55 37.35 -0.25 36.35 -2.9 36.35 -7.6 36.35 -11.9 31.3 L-15.65 27.45 -18.25 24.45 -18.4 24.2 -18.45 23.55 -18.35 23.55 -18.15 23.65 Q-15.35 27.45 -12.65 30.0 -9.3 33.2 -7.25 33.55 L-2.15 34.1 1.2 34.35 3.2 35.65 Q6.4 36.2 8.05 36.95 L7.9 36.35 7.75 35.6 7.9 36.35 7.45 35.85 7.7 35.7 7.75 35.6 6.6 32.25 6.5 32.1 Q5.4 30.5 1.95 27.9 L1.75 27.75 0.85 27.1 Q-1.7 25.3 -7.4 21.95 L-7.95 21.6 -10.9 19.9 -11.0 19.8 -11.35 19.55 -12.45 18.75 Q-17.1 15.5 -22.05 13.1 L-22.1 13.75 -22.1 14.1 -22.0 14.7 -22.85 14.65 Q-23.7 14.65 -26.35 15.8 L-27.4 16.25 -28.55 15.8 -30.0 15.15 -30.1 15.15 -30.15 15.3 -30.25 15.65 -30.25 15.9 -30.1 16.8 -30.15 16.8 -30.65 16.9 Q-32.15 16.9 -36.65 14.6 -41.3 12.2 -46.85 8.6 M17.05 -0.55 L17.5 2.95 18.45 10.2 Q17.95 12.55 17.3 13.5 L16.75 7.9 16.75 7.55 16.2 1.0 16.5 0.45 17.05 -0.55 M18.75 8.45 L18.9 -2.0 19.1 5.9 18.75 8.45 M8.2 37.55 L8.05 36.95 8.2 37.55" fill="#a49a91" fill-rule="evenodd" stroke="none"/>
      <path d="M-6.4 -17.3 L-6.2 -17.3 -6.2 -17.1 -6.4 -17.3" fill="#9c5059" fill-rule="evenodd" stroke="none"/>
      <path d="M-11.9 -17.3 L-10.1 -17.3 -9.8 -15.4 -11.9 -17.3" fill="#d77681" fill-rule="evenodd" stroke="none"/>
      <path d="M-30.75 -6.25 L-31.0 -7.15 -31.15 -7.65 -27.6 -6.5 -27.5 -6.5 -27.25 -6.55 -27.15 -6.65 -26.95 -7.25 -25.7 -3.95 -25.1 -2.45 -27.3 -3.95 -30.75 -6.25 M-27.5 -7.6 L-27.3 -7.55 -27.25 -7.5 -27.3 -7.75 -27.9 -9.15 -30.35 -16.5 -30.55 -17.3 -29.75 -17.3 Q-28.9 -13.45 -27.85 -10.05 -27.6 -10.85 -26.4 -11.8 L-24.9 -10.7 Q-26.95 -9.7 -27.3 -8.2 L-27.0 -7.3 -27.3 -7.45 -27.5 -7.6 M-16.65 -17.3 L-11.9 -17.3 -9.8 -15.4 -10.1 -17.3 -6.4 -17.3 -6.2 -17.1 -5.75 -10.05 -11.9 -12.7 -11.15 -11.8 -14.5 -12.35 -22.0 -11.65 -25.45 -12.5 -24.5 -13.15 Q-20.45 -15.65 -14.95 -15.75 L-16.65 -17.3 M-8.2 -8.3 L-7.2 -7.1 -5.5 -5.1 -5.5 -4.45 -5.45 -3.3 -5.45 -3.0 -5.4 -2.35 -7.1 -4.15 -8.2 -8.3 M-11.55 -0.6 L-10.55 1.45 -9.25 4.15 -12.55 2.9 Q-14.5 -1.9 -14.5 -2.4 L-14.4 -2.8 -11.55 -0.6" fill="#58262c" fill-rule="evenodd" stroke="none"/>
      <path d="M-31.15 -7.65 L-31.15 -7.7 -31.35 -8.4 -30.4 -8.25 -29.1 -7.95 -27.65 -7.6 -27.5 -6.5 -27.6 -6.5 -31.15 -7.65 M-29.75 -17.3 L-16.65 -17.3 -14.95 -15.75 Q-20.45 -15.65 -24.5 -13.15 L-25.45 -12.5 -27.8 -12.8 -26.4 -11.8 Q-27.6 -10.85 -27.85 -10.05 -28.9 -13.45 -29.75 -17.3" fill="#7b353d" fill-rule="evenodd" stroke="none"/>
      <path d="M-27.65 -7.6 L-27.5 -7.6 -27.3 -7.45 -27.0 -7.3 -27.3 -8.2 Q-26.95 -9.7 -24.9 -10.7 L-14.4 -2.8 -14.5 -2.4 Q-14.5 -1.9 -12.55 2.9 L-20.85 0.15 -21.4 0.05 -22.6 -0.75 -23.8 -1.55 -25.1 -2.45 -25.7 -3.95 -26.95 -7.25 -27.15 -6.65 -27.25 -6.55 -27.5 -6.5 -27.65 -7.6 M-11.15 -11.8 L-8.2 -8.3 -7.1 -4.15 -9.5 -6.6 -12.85 -9.95 -15.8 -10.1 Q-18.15 -10.2 -21.15 -11.35 L-22.0 -11.65 -14.5 -12.35 -11.15 -11.8" fill="#6b3037" fill-rule="evenodd" stroke="none"/>
      <path d="M-4.4 -17.3 L-4.2 -17.3 Q-0.5 -12.6 3.0 -7.35 L4.0 -5.9 1.05 -7.1 -5.25 -9.8 -5.0 -13.0 -4.7 -15.85 -4.4 -17.3 M-5.45 -5.05 L-2.45 -1.55 Q-4.15 -2.15 -5.45 -3.0 L-5.45 -3.3 -5.5 -4.45 -5.45 -5.05 M-1.25 -0.15 L-0.4 0.85 -3.0 0.25 -4.2 -1.05 -1.25 -0.15" fill="#803424" fill-rule="evenodd" stroke="none"/>
      <path d="M1.0 2.5 L3.85 5.85 1.1 4.7 -1.45 1.9 1.0 2.5 M12.6 16.2 L14.55 18.55 14.6 19.7 14.75 21.2 14.6 21.7 14.6 21.85 14.05 21.95 13.9 21.95 13.75 21.9 12.6 16.2" fill="#5d261b" fill-rule="evenodd" stroke="none"/>
      <path d="M-16.0 31.0 L-17.3 30.9 Q-19.4 30.6 -21.25 29.5 -23.2 27.85 -25.75 24.55 L-25.85 24.45 Q-29.5 19.75 -30.1 16.8 L-30.25 15.9 Q-28.25 16.6 -24.6 18.65 L-22.55 19.85 -19.65 21.5 -18.9 21.9 -19.2 21.4 -19.4 20.55 -19.45 20.25 Q-19.0 20.55 -18.7 20.8 L-19.5 19.7 -19.65 19.4 Q-21.55 16.5 -22.0 14.7 L-22.1 14.1 Q-19.15 15.3 -15.05 18.25 L-12.15 20.45 Q-9.3 22.75 -7.55 24.95 L-9.7 25.1 Q-10.6 25.1 -15.7 23.55 L-16.5 23.3 -16.9 22.9 -16.8 23.15 -16.1 24.3 -17.05 24.2 -17.4 24.15 -17.65 23.9 -18.15 23.65 -18.35 23.55 -18.45 23.55 -18.4 24.2 -18.45 24.25 Q-18.9 24.5 -18.9 25.3 L-17.4 27.95 Q-16.3 29.6 -16.0 31.0 M-18.7 20.8 L-16.9 22.9 -18.7 20.8" fill="url(#gradient3)" fill-rule="evenodd" stroke="none"/>
      <path d="M-19.45 20.25 L-19.4 20.55 -19.2 21.4 -18.9 21.9 -19.65 21.5 -22.55 19.85 -23.15 18.9 -21.9 18.9 -21.1 19.3 -20.0 19.95 -19.45 20.25 M-7.55 24.95 Q-9.3 22.75 -12.15 20.45 L-12.9 19.2 -12.8 18.85 -12.7 18.7 -12.45 18.75 -11.35 19.55 -11.0 19.8 -10.9 19.9 -8.75 21.55 -7.25 22.75 Q-6.75 23.9 -7.1 24.7 L-7.55 24.95" fill="#4a494f" fill-rule="evenodd" stroke="none"/>
      <path d="M-10.9 19.9 L-7.95 21.6 -7.4 21.95 Q-1.7 25.3 0.85 27.1 L1.75 27.75 1.95 27.9 Q5.4 30.5 6.5 32.1 L6.6 32.25 7.75 35.6 7.7 35.7 7.45 35.85 7.2 35.9 5.95 35.3 5.8 35.2 4.95 34.75 5.0 34.75 Q5.1 34.65 5.15 34.65 L5.4 34.1 5.45 33.65 5.05 32.25 4.65 31.5 4.5 31.3 Q3.75 30.1 2.45 29.0 L0.9 27.9 -0.7 26.95 -3.7 25.35 -3.9 25.8 -3.95 26.4 -3.95 26.65 -4.3 26.3 -4.7 26.3 -4.7 28.7 Q-4.55 30.55 -3.55 31.8 L-2.45 32.85 -2.35 32.9 -2.5 32.85 -6.95 32.1 Q-10.75 30.85 -14.4 27.2 L-17.4 24.15 -17.05 24.2 -16.1 24.3 -16.8 23.15 -16.9 22.9 -16.5 23.3 -15.7 23.55 Q-10.6 25.1 -9.7 25.1 L-7.55 24.95 -7.1 24.7 Q-6.75 23.9 -7.25 22.75 L-7.1 22.9 -5.95 23.9 -7.1 22.9 -7.25 22.75 -8.75 21.55 -10.9 19.9 M-13.7 25.4 Q-15.15 24.55 -16.5 23.3 -15.15 24.55 -13.7 25.4" fill="#222b3a" fill-rule="evenodd" stroke="none"/>
      <path d="M-12.15 20.45 L-15.05 18.25 Q-19.15 15.3 -22.1 14.1 L-22.1 13.75 -22.05 13.1 Q-17.1 15.5 -12.45 18.75 L-12.7 18.7 -12.8 18.85 -12.9 19.2 -12.15 20.45" fill="#a95732" fill-rule="evenodd" stroke="none"/>
      <path d="M-22.55 19.85 L-24.6 18.65 Q-28.25 16.6 -30.25 15.9 L-30.25 15.65 -30.15 15.3 -30.1 15.15 -30.0 15.15 -28.55 15.8 -27.4 16.25 Q-25.85 16.9 -24.2 17.7 -22.9 18.35 -21.9 18.9 L-23.15 18.9 -22.55 19.85" fill="#a7513a" fill-rule="evenodd" stroke="none"/>
      <path d="M17.95 32.55 Q18.4 32.25 18.9 30.6 L19.35 27.6 Q19.55 27.25 19.7 27.25 L19.95 27.5 19.65 29.25 18.75 31.95 18.25 32.9 18.05 33.25 17.95 32.55 M-0.65 32.85 Q-1.7 32.05 -2.4 30.55 -3.2 28.8 -3.2 27.7 L-3.1 26.9 Q-2.6 26.95 -1.15 28.0 L-0.25 28.65 Q-0.6 29.2 -0.6 30.2 -0.6 31.85 0.3 33.2 L0.3 33.25 0.05 33.2 -0.6 32.9 -0.65 32.85 M5.0 34.75 L5.4 34.1 5.15 34.65 Q5.1 34.65 5.0 34.75" fill="#feffaf" fill-rule="evenodd" stroke="none"/>
      <path d="M20.2 25.95 L19.95 27.5 19.7 27.25 Q19.55 27.25 19.35 27.6 L18.9 30.6 Q18.4 32.25 17.95 32.55 L17.95 32.05 17.95 31.7 18.1 31.7 Q18.4 31.7 18.7 30.45 L19.05 29.0 19.2 27.75 19.2 27.3 19.35 27.1 19.35 27.05 20.2 25.95 M4.05 31.4 L4.0 31.2 3.25 30.35 Q2.15 29.3 1.5 29.3 1.0 29.3 0.9 29.6 L0.9 30.2 Q0.9 31.5 2.0 32.85 3.0 34.0 3.7 34.0 4.0 34.0 4.2 33.65 L4.3 33.35 4.65 33.35 4.95 33.3 Q4.7 32.25 4.05 31.4 M-3.95 26.65 L-3.95 26.4 -3.9 25.8 -3.7 25.35 -0.7 26.95 0.9 27.9 2.45 29.0 Q3.75 30.1 4.5 31.3 L4.65 31.5 5.05 32.25 5.45 33.65 5.4 34.1 5.0 34.75 4.95 34.75 3.35 33.95 3.3 33.95 2.7 33.8 2.6 33.7 0.35 33.25 0.3 33.25 0.3 33.2 Q-0.6 31.85 -0.6 30.2 -0.6 29.2 -0.25 28.65 L-1.15 28.0 Q-2.6 26.95 -3.1 26.9 L-3.2 27.7 Q-3.2 28.8 -2.4 30.55 -1.7 32.05 -0.65 32.85 L-1.35 32.45 -2.45 31.25 Q-3.9 29.25 -3.95 26.65" fill="#ecca8a" fill-rule="evenodd" stroke="none"/>
      <path d="M-3.3 40.15 Q-5.15 39.05 -7.5 36.8 L-10.0 34.3 -6.85 35.85 Q-3.75 37.2 -2.0 37.5 L2.6 38.3 5.65 40.0 3.25 39.45 -4.5 37.95 Q-4.7 38.45 -3.3 40.15" fill="#2d3947" fill-rule="evenodd" stroke="none"/>
      <path d="M19.6 43.2 L19.55 43.35 18.9 44.7 18.85 44.8 18.7 44.9 18.1 45.2 15.7 44.65 14.5 44.2 11.3 42.85 10.25 42.35 5.65 40.0 2.6 38.3 -2.0 37.5 Q-3.75 37.2 -6.85 35.85 L-10.0 34.3 -11.45 33.5 -11.85 33.25 -14.1 30.85 -15.65 29.0 -17.15 27.1 -17.85 25.6 -18.25 24.45 -15.65 27.45 -11.9 31.3 Q-7.6 36.35 -2.9 36.35 -0.25 36.35 2.55 37.35 5.8 38.75 9.25 40.85 12.1 42.55 14.75 43.5 L15.85 43.9 18.65 44.55 Q18.9 44.6 18.85 44.45 18.65 44.15 19.2 43.55 L19.6 43.2" fill="#6a665d" fill-rule="evenodd" stroke="none"/>
      <path d="M7.9 36.35 L8.05 36.95 Q6.4 36.2 3.2 35.65 L1.2 34.35 -0.85 33.1 -0.35 33.15 -0.25 33.15 0.05 33.2 0.4 33.35 2.6 33.7 2.7 33.8 3.3 33.95 3.35 33.95 4.95 34.75 5.8 35.2 5.95 35.3 7.2 35.9 7.45 35.85 7.9 36.35" fill="#6c685f" fill-rule="evenodd" stroke="none"/>
      <path d="M4.95 42.45 L2.35 41.75 -0.35 41.1 -2.2 40.75 -3.3 40.15 Q-4.7 38.45 -4.5 37.95 L3.25 39.45 5.65 40.0 10.25 42.35 9.9 42.35 Q11.1 43.45 8.1 42.55 L3.1 41.3 4.95 42.45" fill="#2f374a" fill-rule="evenodd" stroke="none"/>
      <path d="M19.2 27.3 L19.2 27.75 19.05 29.0 19.0 29.05 Q18.7 30.0 18.25 30.4 L18.1 30.4 18.05 29.95 18.3 28.45 18.3 28.4 18.35 28.4 19.2 27.3 M4.3 33.35 Q3.5 33.25 3.05 32.55 L1.4 29.85 1.4 29.6 1.75 29.55 Q2.4 29.55 3.4 30.6 L4.05 31.4 Q4.7 32.25 4.95 33.3 L4.65 33.35 4.3 33.35" fill="#fffffa" fill-rule="evenodd" stroke="none"/>
      <path d="M19.05 29.0 L18.7 30.45 Q18.4 31.7 18.1 31.7 L17.95 31.7 18.05 29.95 18.1 30.4 18.25 30.4 Q18.7 30.0 19.0 29.05 L19.05 29.0 M4.3 33.35 L4.2 33.65 Q4.0 34.0 3.7 34.0 3.0 34.0 2.0 32.85 0.9 31.5 0.9 30.2 L0.9 29.6 Q1.0 29.3 1.5 29.3 2.15 29.3 3.25 30.35 L4.0 31.2 4.05 31.4 3.4 30.6 Q2.4 29.55 1.75 29.55 L1.4 29.6 1.4 29.85 3.05 32.55 Q3.5 33.25 4.3 33.35" fill="#e9edb0" fill-rule="evenodd" stroke="none"/>
      <path d="M14.5 44.2 L14.45 44.2 11.65 44.6 11.3 44.6 9.0 43.95 7.9 43.5 5.9 42.7 4.95 42.45 3.1 41.3 8.1 42.55 Q11.1 43.45 9.9 42.35 L10.25 42.35 11.3 42.85 14.5 44.2" fill="#425657" fill-rule="evenodd" stroke="none"/>
      <path d="M13.4 14.15 L11.8 12.55 6.55 6.95 3.05 3.05 1.55 1.35 0.8 0.5 -0.35 -0.85 -4.4 -5.5 Q1.5 -2.1 4.4 0.0 L6.0 1.3 7.0 2.35 7.3 2.8 7.6 3.4 7.95 4.3 8.25 4.95 10.3 8.45 11.15 9.95 11.3 10.2 13.4 14.15" fill="url(#gradient4)" fill-rule="evenodd" stroke="none"/>
      <path d="M-4.4 -5.5 L-5.4 -6.7 -5.55 -6.85 -7.25 -8.85 -7.35 -9.3 -5.6 -7.85 -5.35 -7.65 0.35 -4.05 7.6 -0.2 11.15 1.85 11.8 3.85 12.35 5.5 14.0 10.3 14.85 12.6 Q15.6 14.7 15.9 15.05 L15.7 15.35 15.5 16.1 14.85 15.55 14.25 15.0 13.4 14.15 11.3 10.2 11.15 9.95 10.3 8.45 8.25 4.95 7.95 4.3 7.6 3.4 7.3 2.8 7.0 2.35 6.0 1.3 4.4 0.0 Q1.5 -2.1 -4.4 -5.5" fill="url(#gradient5)" fill-rule="evenodd" stroke="none"/>
      <path d="M7.95 -8.4 L7.9 -6.2 M19.75 -17.3 L19.7 -17.05 19.2 -12.45 18.95 -10.25 M14.5 44.2 L14.45 44.2 11.65 44.6 11.3 44.6 9.0 43.95 7.9 43.5 5.9 42.7 4.95 42.45 2.35 41.75 -0.35 41.1 -2.2 40.75 -3.3 40.15 Q-5.15 39.05 -7.5 36.8 L-10.0 34.3 M-14.1 30.85 L-14.75 30.95 -16.0 31.0 -17.3 30.9 Q-19.4 30.6 -21.25 29.5 -23.2 27.85 -25.75 24.55 L-25.85 24.45 -33.65 24.7 -39.35 24.1 -43.0 22.8 -44.9 21.5 -46.85 20.15 M-44.6 -17.3 L-41.9 -14.9 -34.85 -9.2 -34.15 -8.7 -33.2 -8.0 -30.75 -6.25 -27.3 -3.95 -25.1 -2.45 -23.8 -1.55 -22.6 -0.75 -21.4 0.05 M3.75 -11.4 L4.0 -12.85 4.15 -13.5 4.7 -15.75 5.25 -17.3 M7.45 -17.3 L7.95 -14.2 8.0 -13.8 8.2 -12.35 8.25 -12.1 8.4 -13.3 8.95 -17.3 M8.25 -12.1 L8.25 -12.05 8.15 -11.05 7.95 -8.4 M-30.25 15.9 L-30.1 16.8 Q-29.5 19.75 -25.85 24.45 M-21.9 18.9 L-21.1 19.3 -20.0 19.95 -19.45 20.25 Q-19.0 20.55 -18.7 20.8 L-19.5 19.7 -19.65 19.4 Q-21.55 16.5 -22.0 14.7 L-22.1 14.1 -22.1 13.75 -22.05 13.1 Q-17.1 15.5 -12.45 18.75 L-11.35 19.55 -11.0 19.8 -10.9 19.9 -8.75 21.55 -7.25 22.75 -7.1 22.9 -5.95 23.9 M-27.4 16.25 Q-25.85 16.9 -24.2 17.7 -22.9 18.35 -21.9 18.9 M-16.9 22.9 L-18.7 20.8 M-16.9 22.9 L-16.5 23.3 Q-15.15 24.55 -13.7 25.4 M-27.4 16.25 L-28.55 15.8 -30.0 15.15 -30.1 15.15 -30.15 15.3 -30.25 15.65 -30.25 15.9" fill="none" stroke="#0e1823" stroke-linecap="round" stroke-linejoin="round" stroke-width="1.0"/>
      <path d="M7.9 -6.2 L9.65 -4.05 M10.75 -3.9 L11.45 -4.35 M-1.35 -17.3 L2.5 -13.0 3.3 -12.0 3.55 -11.75 3.75 -11.4 4.35 -10.65 7.2 -7.15 7.9 -6.2 M16.0 -1.1 L15.4 -7.4 15.2 -7.05 15.05 -6.8 14.75 -6.6 M16.2 1.0 L16.75 7.55 16.75 7.9 M16.2 1.0 L16.15 0.3 16.0 -1.1 M-11.55 -0.6 L-10.55 1.45 -9.25 4.15 M14.9 20.55 L14.95 20.3 15.1 19.7 15.2 19.35 M14.9 20.55 L14.75 21.2 14.6 21.7 14.6 21.85 M-6.2 -17.1 L-6.2 -17.3 M-6.2 -17.1 L-5.75 -10.05 M-5.45 -3.0 L-5.4 -2.35 M-5.5 -4.45 L-5.5 -5.1 M-5.5 -4.45 L-5.45 -3.3 -5.45 -3.0" fill="none" stroke="#511b0f" stroke-linecap="round" stroke-linejoin="round" stroke-width="1.0"/>
      <path d="M19.2 -12.45 L19.35 -10.95 19.6 -9.4 20.35 -4.65 20.4 -4.3 21.25 -3.8 22.2 -2.9 23.35 -0.4 23.5 -0.05 24.0 0.95 24.4 3.75 24.65 6.25 24.95 13.3 24.85 18.35 24.75 18.7 24.7 18.9 23.95 20.8 22.7 22.7 22.2 23.4 21.8 23.9 21.75 24.3 21.6 27.25 21.55 27.5 21.1 32.85 20.65 35.2 20.45 36.2 20.25 37.75 Q20.05 39.5 20.0 41.4 L20.0 41.45 19.6 43.2 19.55 43.35 18.9 44.7 18.85 44.8 18.7 44.9 18.1 45.2 15.7 44.65 14.5 44.2 11.3 42.85 10.25 42.35 5.65 40.0 2.6 38.3 -2.0 37.5 Q-3.75 37.2 -6.85 35.85 L-10.0 34.3 -11.45 33.5 -11.85 33.25 -14.1 30.85 -15.65 29.0 -17.15 27.1 -17.85 25.6 -18.25 24.45 -18.4 24.2 -18.45 23.55 -18.35 23.55 -18.15 23.65 -17.65 23.9 -17.4 24.15 -14.4 27.2 Q-10.75 30.85 -6.95 32.1 L-2.5 32.85 -2.35 32.9 -1.3 33.0 -0.85 33.1 -0.35 33.15 -0.25 33.15 0.05 33.2 0.4 33.35 2.6 33.7 2.7 33.8 3.3 33.95 3.35 33.95 4.95 34.75 5.8 35.2 5.95 35.3 7.2 35.9 7.45 35.85 7.7 35.7 7.75 35.6 7.9 36.35 8.05 36.95 8.2 37.55 M18.9 -3.3 L19.5 -3.95 19.6 -4.1 20.2 -4.35 20.3 -4.35 20.4 -4.3 M21.8 23.9 L21.75 23.95 21.1 24.8 20.2 25.95 19.35 27.05 19.35 27.1 19.2 27.3 18.35 28.4 18.3 28.4 18.3 28.45 18.05 29.95 17.95 31.7 17.95 32.05 17.95 32.55 18.05 33.25 18.1 33.9 18.1 34.15 18.25 34.95 18.4 36.2 M17.05 -0.55 L16.5 0.45 16.2 1.0 M-10.9 19.9 L-7.95 21.6 -7.4 21.95 Q-1.7 25.3 0.85 27.1 L1.75 27.75 1.95 27.9 Q5.4 30.5 6.5 32.1 L6.6 32.25 7.75 35.6" fill="none" stroke="#5b544e" stroke-linecap="round" stroke-linejoin="round" stroke-width="1.0"/>
      <path d="M-9.25 4.15 Q-4.9 5.9 -1.9 7.6 1.6 9.6 3.65 11.7 L5.55 13.9 6.8 15.45 7.05 15.8 8.1 17.05 9.5 18.65 Q12.35 21.6 13.75 21.9 L13.9 21.95 14.05 21.95 14.6 21.85 14.8 21.85 14.85 21.85 14.9 21.8 15.15 21.7 15.85 21.3 16.45 20.9 M-23.65 -0.15 L-24.65 0.15 -25.8 0.75 -26.2 1.1 -27.95 2.5 -30.1 4.4 Q-30.45 4.4 -31.3 5.05 L-33.5 4.7 -33.75 4.6 -37.4 3.3 -37.45 3.3 -37.5 3.25 -43.95 0.55 -46.85 -0.7 M-23.65 -0.15 L-22.8 -0.15 -21.4 0.05 -20.85 0.15 -12.55 2.9 -9.25 4.15 M-22.0 14.7 L-22.85 14.65 Q-23.7 14.65 -26.35 15.8 L-27.4 16.25 M-30.1 16.8 L-30.15 16.8 -30.65 16.9 Q-32.15 16.9 -36.65 14.6 -41.3 12.2 -46.85 8.6" fill="none" stroke="#5f5852" stroke-linecap="round" stroke-linejoin="round" stroke-width="1.0"/>
      <path d="M-30.75 -6.25 L-31.0 -7.15 -31.15 -7.65 -31.15 -7.7 -31.35 -8.4 -30.4 -8.25 -29.1 -7.95 -27.65 -7.6 -27.5 -7.6 -27.3 -7.55 -27.25 -7.5 -27.3 -7.75 -27.9 -9.15 -30.35 -16.5 -30.55 -17.3" fill="none" stroke="#3a120a" stroke-linecap="round" stroke-linejoin="round" stroke-width="1.0"/>
      <path d="M19.95 27.5 L20.2 25.95 M19.95 27.5 L19.65 29.25 18.75 31.95 18.25 32.9 18.05 33.25 M5.4 34.1 L5.45 33.65 5.05 32.25 4.65 31.5 4.5 31.3 Q3.75 30.1 2.45 29.0 L0.9 27.9 -0.7 26.95 -3.7 25.35 -3.9 25.8 -3.95 26.4 -3.95 26.65 Q-3.9 29.25 -2.45 31.25 L-1.35 32.45 -0.65 32.85 -0.6 32.9 0.05 33.2 M4.95 34.75 L5.0 34.75 Q5.1 34.65 5.15 34.65 L5.4 34.1" fill="none" stroke="#ffc400" stroke-linecap="round" stroke-linejoin="round" stroke-width="1.0"/>
    </g>
    <linearGradient gradientTransform="matrix(-0.0028, -0.0048, -0.0063, 0.0037, -15.55, 18.05)" gradientUnits="userSpaceOnUse" id="gradient3" spreadMethod="pad" x1="-819.2" x2="819.2">
      <stop offset="0.0" stop-color="#2e3347"/>
      <stop offset="1.0" stop-color="#873c25"/>
    </linearGradient>
    <linearGradient gradientTransform="matrix(0.0, 0.0, 0.0, 0.0, 186.3, -236.65)" gradientUnits="userSpaceOnUse" id="gradient4" spreadMethod="pad" x1="-819.2" x2="819.2">
      <stop offset="0.00784313725490196" stop-color="#ffffcc"/>
      <stop offset="0.5176470588235295" stop-color="#ffff66" stop-opacity="0.7490196"/>
      <stop offset="1.0" stop-color="#ffcc00" stop-opacity="0.5019608"/>
    </linearGradient>
    <linearGradient gradientTransform="matrix(0.0, 0.0, 0.0, 0.0, 8.05, 3.95)" gradientUnits="userSpaceOnUse" id="gradient5" spreadMethod="pad" x1="-819.2" x2="819.2">
      <stop offset="0.00784313725490196" stop-color="#eee794"/>
      <stop offset="0.5176470588235295" stop-color="#deb83d" stop-opacity="0.7490196"/>
      <stop offset="1.0" stop-color="#ffcc00" stop-opacity="0.5019608"/>
    </linearGradient>
    <g id="shape5" transform="matrix(1.0, 0.0, 0.0, 1.0, 0.0, 0.0)">
      <path d="M50.5 0.0 Q53.95 0.0 53.95 3.3 L53.95 50.15 Q53.95 53.4 50.5 53.4 L3.3 53.4 Q0.0 53.4 0.0 50.15 L0.0 3.3 Q0.0 0.0 3.3 0.0 L50.5 0.0" fill="#000000" fill-opacity="0.003921569" fill-rule="evenodd" stroke="none"/>
    </g>
  </defs>
</svg>
