<?xml version="1.0" encoding="UTF-8" standalone="no"?>
<svg xmlns:ffdec="https://www.free-decompiler.com/flash" xmlns:xlink="http://www.w3.org/1999/xlink" ffdec:objectType="frame" height="55.9px" width="54.45px" xmlns="http://www.w3.org/2000/svg">
  <g transform="matrix(1.0, 0.0, 0.0, 1.0, 0.5, 1.9)">
    <clipPath id="clipPath0" transform="matrix(1.0, 0.0, 0.0, 1.0, 0.0, 0.0)">
      <path d="M50.5 0.0 Q53.95 0.0 53.95 3.3 L53.95 50.15 Q53.95 53.4 50.5 53.4 L3.3 53.4 Q0.0 53.4 0.0 50.15 L0.0 3.3 Q0.0 0.0 3.3 0.0 L50.5 0.0" fill="#000000" fill-rule="evenodd" stroke="none"/>
    </clipPath>
    <g clip-path="url(#clipPath0)">
      <use ffdec:characterId="323" height="55.9" transform="matrix(1.0, 0.0, 0.0, 1.0, -0.5, -1.9)" width="54.4" xlink:href="#shape1"/>
    </g>
    <use ffdec:characterId="324" height="53.4" transform="matrix(1.0, 0.0, 0.0, 1.0, 0.0, 0.0)" width="53.95" xlink:href="#shape2"/>
  </g>
  <defs>
    <g id="shape1" transform="matrix(1.0, 0.0, 0.0, 1.0, 0.5, 1.9)">
      <path d="M6.95 53.5 L3.35 53.5 0.0 52.7 0.0 50.95 4.85 52.7 5.4 52.9 6.7 53.4 6.95 53.5 M3.3 29.2 L3.4 29.0 5.5 24.5 Q7.5 20.15 8.25 19.15 L8.45 19.0 9.2 19.55 9.5 19.7 9.7 19.9 9.95 20.0 9.95 20.05 Q9.8 20.1 9.65 20.25 L9.05 20.6 8.65 20.8 8.9 21.35 8.45 21.9 Q6.7 24.0 5.55 26.75 L4.75 29.0 4.1 31.15 3.8 32.3 3.4 33.75 3.15 32.25 3.15 31.45 3.2 30.6 3.3 29.2" fill="#b12766" fill-rule="evenodd" stroke="none"/>
      <path d="M4.35 -1.4 L17.45 -1.4 17.45 -1.35 17.45 -1.15 17.45 2.15 18.3 3.3 18.75 3.85 19.3 4.55 19.6 4.95 19.4 5.0 18.75 5.05 18.5 5.1 16.9 5.25 16.6 5.3 15.95 5.35 15.6 5.4 16.05 5.85 16.35 6.15 17.4 7.2 18.75 8.6 22.65 12.6 24.05 14.0 23.3 16.15 21.9 15.45 Q19.25 13.85 15.8 10.9 L15.2 10.4 14.05 9.35 Q10.25 5.75 7.05 1.55 L6.5 0.7 6.45 0.65 5.7 -0.1 5.55 -0.25 5.25 -0.55 4.35 -1.4 M30.85 -1.4 L32.15 -1.4 32.5 -0.7 32.95 0.35 32.15 0.65 31.75 0.85 31.4 1.05 31.3 1.05 30.35 1.4 30.45 0.65 30.6 -0.1 30.85 -1.4 M33.4 -1.4 L34.95 -1.4 Q36.3 2.05 37.15 5.4 L36.75 6.1 Q36.8 4.8 34.25 0.1 L34.3 -0.25 34.35 -0.3 34.05 -0.2 33.9 -0.45 33.4 -1.4 M32.35 10.1 L32.6 8.75 32.7 8.5 32.8 8.05 32.85 7.6 33.45 4.3 33.85 2.25 Q35.8 6.85 37.25 12.1 L37.3 12.4 38.2 14.0 38.25 13.85 38.35 13.8 38.6 13.4 39.15 11.85 Q39.55 10.6 39.4 10.1 L39.6 10.1 39.6 13.5 39.4 14.2 38.7 16.4 38.35 17.05 38.0 17.95 38.35 17.95 Q40.9 16.0 42.3 14.2 43.35 12.85 43.7 11.6 L43.75 11.55 43.25 16.75 42.6 17.15 42.35 17.3 42.1 17.5 40.05 18.6 39.25 19.05 38.8 19.25 38.25 19.5 38.0 19.15 37.55 18.55 34.9 14.65 32.75 11.8 32.35 11.25 32.15 11.0 32.35 10.1 M43.9 9.45 L43.85 7.15 Q43.6 3.65 43.95 1.35 L44.3 1.35 46.7 6.25 46.25 6.4 45.75 6.55 44.3 5.0 44.25 5.35 43.9 9.45" fill="#6a0d15" fill-rule="evenodd" stroke="none"/>
      <path d="M37.65 -1.4 L46.35 -1.4 46.35 -0.5 46.7 -1.4 49.85 -1.4 49.35 0.15 49.15 0.85 47.5 5.65 47.2 6.1 46.7 6.25 44.3 1.35 43.95 1.35 Q43.6 3.65 43.85 7.15 L43.9 9.45 43.85 10.1 43.7 10.1 Q43.7 9.5 42.7 6.75 L42.35 8.25 41.45 11.7 Q40.8 14.05 40.4 14.45 L40.6 10.95 Q40.6 7.15 39.3 2.9 L38.6 0.65 38.55 0.8 37.65 -1.4 M53.4 36.3 L53.4 43.15 52.7 39.8 Q51.7 35.4 50.85 34.35 L50.75 34.45 50.7 34.35 50.5 32.5 Q51.8 31.95 52.2 31.5 52.4 33.4 53.4 36.3 M53.4 44.5 L53.4 46.7 52.0 45.85 51.5 45.55 51.5 44.8 51.4 42.75 53.4 44.5 M19.75 53.5 L15.45 53.5 14.65 51.7 Q13.65 50.8 13.35 49.3 L13.3 48.75 13.15 47.75 13.15 47.55 14.5 47.65 14.95 47.7 18.45 48.1 15.5 44.85 13.5 42.5 14.1 41.1 15.3 41.2 16.65 41.35 16.6 44.7 17.4 45.35 21.1 48.8 20.35 51.35 19.75 53.5 M41.4 24.7 L44.75 27.05 43.75 27.2 43.7 27.75 40.8 25.5 40.8 25.45 40.9 25.35 41.35 24.65 41.4 24.7 40.9 25.35 41.4 24.7 M9.95 20.0 L10.4 20.35 11.7 21.2 12.0 21.55 Q10.8 20.8 10.3 20.8 L9.75 20.8 13.5 25.45 13.0 25.6 12.05 27.5 12.0 27.6 11.4 29.0 10.15 31.75 Q7.75 37.1 6.6 40.8 L6.6 40.75 6.4 40.05 Q6.05 38.7 6.05 38.2 6.85 35.5 8.0 32.85 L9.8 29.0 Q10.7 27.45 11.35 27.45 L10.7 25.8 10.5 25.25 8.9 21.35 8.65 20.8 9.05 20.6 9.65 20.25 Q9.8 20.1 9.95 20.05 L9.95 20.0" fill="#ae2b39" fill-rule="evenodd" stroke="none"/>
      <path d="M46.35 -1.4 L46.7 -1.4 46.35 -0.5 46.35 -1.4" fill="#e76b76" fill-rule="evenodd" stroke="none"/>
      <path d="M32.15 -1.4 L33.4 -1.4 33.9 -0.45 34.05 -0.2 32.95 0.35 32.5 -0.7 32.15 -1.4 M34.95 -1.4 L37.65 -1.4 38.55 0.8 38.6 0.65 39.3 2.9 Q40.6 7.15 40.6 10.95 L40.4 14.45 Q40.8 14.05 41.45 11.7 L42.35 8.25 42.7 6.75 Q43.7 9.5 43.7 10.1 L43.85 10.1 43.75 11.55 43.7 11.6 Q43.35 12.85 42.3 14.2 40.9 16.0 38.35 17.95 L38.0 17.95 38.35 17.05 38.7 16.4 39.4 14.2 39.6 13.5 39.6 10.1 39.4 10.1 Q39.55 10.6 39.15 11.85 L38.6 13.4 38.35 13.8 38.25 13.85 38.2 14.0 37.3 12.4 37.25 12.1 Q35.8 6.85 33.85 2.25 L34.25 0.1 Q36.8 4.8 36.75 6.1 L37.15 5.4 Q36.3 2.05 34.95 -1.4 M49.85 -1.4 L52.0 -1.4 47.5 5.65 49.15 0.85 49.35 0.15 49.85 -1.4 M47.2 6.1 L46.7 7.45 46.35 7.15 45.75 6.55 46.25 6.4 46.7 6.25 47.2 6.1" fill="#8b1b27" fill-rule="evenodd" stroke="none"/>
      <path d="M52.5 53.5 L52.45 53.5 52.55 52.8 52.5 53.5 M40.5 53.5 L30.2 53.5 25.85 52.5 26.85 50.35 27.1 49.8 28.8 50.0 29.9 50.05 33.35 49.85 32.4 50.8 35.2 50.0 35.25 50.05 Q37.25 51.15 40.5 53.5" fill="#cecfc9" fill-rule="evenodd" stroke="none"/>
      <path d="M52.45 53.5 L40.5 53.5 Q37.25 51.15 35.25 50.05 L35.2 50.0 32.4 50.8 33.35 49.85 34.15 49.75 Q37.75 49.2 40.05 47.5 42.05 46.1 42.5 44.65 L43.0 45.2 43.15 45.35 44.2 47.05 45.75 48.8 52.55 50.35 52.7 50.7 52.65 51.8 52.65 52.1 52.6 52.25 52.55 52.8 52.45 53.5 M34.05 -0.2 L34.35 -0.3 34.3 -0.25 34.25 0.1 33.85 2.25 33.45 4.3 32.85 7.6 32.8 8.05 32.7 8.5 32.7 7.95 32.55 6.6 32.55 6.5 31.7 7.0 31.4 7.15 30.6 7.95 29.95 9.75 30.1 10.45 32.4 8.85 32.6 8.75 32.35 10.1 32.1 10.1 Q31.3 10.1 29.85 11.65 L29.35 12.15 28.85 14.2 29.45 17.65 29.55 18.0 29.55 18.1 29.7 18.75 29.55 19.05 29.25 18.1 29.1 17.95 28.4 15.95 28.1 15.15 27.9 14.6 27.2 13.8 27.35 13.85 27.9 14.15 28.4 14.4 28.7 13.35 28.85 12.8 28.9 12.5 29.45 10.1 29.75 8.85 30.35 5.75 30.8 3.55 31.3 1.05 31.4 1.05 31.75 0.85 32.15 0.65 32.95 0.35 34.05 -0.2 M43.55 19.95 L45.05 17.1 45.15 17.15 45.15 17.25 45.35 18.1 43.55 19.95 M36.75 28.95 L35.55 28.95 34.65 28.5 Q34.15 28.3 34.1 27.95 L33.9 26.75 33.9 26.4 34.45 25.6 34.55 25.35 34.85 25.4 35.05 26.95 35.55 27.8 36.25 28.35 36.75 28.95" fill="#fffefa" fill-rule="evenodd" stroke="none"/>
      <path d="M50.35 31.4 L52.8 29.3 53.4 30.75 53.4 36.3 Q52.4 33.4 52.2 31.5 51.8 31.95 50.5 32.5 L50.35 31.4 M53.4 43.35 L53.4 44.5 51.4 42.75 51.35 41.5 53.4 43.35 M12.0 21.55 Q13.0 22.8 15.65 24.95 14.75 24.95 13.5 25.45 L9.75 20.8 10.3 20.8 Q10.8 20.8 12.0 21.55" fill="#df6c75" fill-rule="evenodd" stroke="none"/>
      <path d="M30.2 53.5 L25.4 53.5 25.4 53.35 25.85 52.5 30.2 53.5 M43.95 42.1 L44.75 43.35 44.85 43.45 45.05 44.35 45.4 46.35 45.5 46.4 46.55 46.85 50.8 48.8 52.2 49.35 52.55 50.35 45.75 48.8 44.2 47.05 43.15 45.35 43.0 45.2 42.5 44.65 Q42.05 46.1 40.05 47.5 37.75 49.2 34.15 49.75 L33.35 49.85 29.9 50.05 28.8 50.0 27.1 49.8 27.65 48.8 28.1 47.9 29.4 48.25 32.15 48.45 34.85 48.2 Q36.9 47.85 38.6 47.1 40.3 46.35 41.05 45.4 L41.6 44.35 41.65 44.0 41.7 43.75 41.7 43.7 41.7 43.3 41.65 43.0 41.6 41.6 41.8 39.9 41.7 39.05 42.0 39.4 42.05 39.45 43.4 41.3 43.95 42.1" fill="#9f9e9a" fill-rule="evenodd" stroke="none"/>
      <path d="M53.4 43.15 L53.4 43.35 51.35 41.5 50.75 34.45 50.85 34.35 Q51.7 35.4 52.7 39.8 L53.4 43.15 M15.45 53.5 L6.95 53.5 6.7 53.4 5.4 52.9 4.85 52.7 0.0 50.95 0.0 28.65 0.6 29.0 2.75 30.4 0.35 35.45 0.7 38.25 1.05 40.35 1.65 44.0 3.25 46.6 Q4.55 48.5 6.35 50.3 L8.4 52.2 9.2 52.9 9.55 52.05 13.5 42.5 15.5 44.85 18.45 48.1 14.95 47.7 14.5 47.65 13.15 47.55 13.15 47.75 13.3 48.75 13.35 49.3 Q13.65 50.8 14.65 51.7 L15.45 53.5 M8.45 19.0 L8.5 18.9 Q10.15 18.3 12.6 18.1 L14.15 18.1 17.6 20.55 20.1 25.45 21.15 27.25 19.0 27.45 17.2 26.1 16.4 25.5 15.65 24.95 Q13.0 22.8 12.0 21.55 L11.7 21.2 10.4 20.35 9.95 20.0 9.7 19.9 9.5 19.7 9.2 19.55 8.45 19.0 M40.8 25.5 L43.7 27.75 43.5 29.0 42.9 32.95 41.7 37.9 41.55 38.45 41.4 38.15 40.8 36.9 40.7 36.65 40.0 35.1 Q39.55 33.9 37.9 32.45 L36.95 31.7 Q39.1 30.15 39.4 29.25 L39.5 29.0 39.5 28.95 Q39.55 28.05 39.9 26.9 L40.05 26.6 40.8 25.5 M8.9 21.35 L10.5 25.25 10.7 25.8 11.35 27.45 Q10.7 27.45 9.8 29.0 L8.0 32.85 Q6.85 35.5 6.05 38.2 6.05 38.7 6.4 40.05 L6.6 40.75 Q5.7 39.65 4.7 37.45 3.8 35.4 3.4 33.75 L3.8 32.3 4.1 31.15 4.75 29.0 5.55 26.75 Q6.7 24.0 8.45 21.9 L8.9 21.35 M14.1 41.1 L14.8 39.35 16.55 35.1 16.65 40.55 16.65 41.35 15.3 41.2 14.1 41.1" fill="#8a1c27" fill-rule="evenodd" stroke="none"/>
      <path d="M53.4 52.95 L53.4 53.5 52.5 53.5 52.55 52.8 52.6 52.25 52.65 52.1 52.65 51.8 52.7 50.7 53.4 52.95 M37.9 32.45 Q39.55 33.9 40.0 35.1 L40.7 36.65 40.8 36.9 40.8 37.45 40.6 37.9 39.3 39.1 38.7 39.45 35.25 40.25 30.7 40.2 Q27.7 39.85 27.05 39.4 L27.05 38.1 28.1 37.45 28.9 36.9 32.7 37.4 32.85 37.45 32.7 37.4 31.4 37.15 Q29.9 36.75 29.9 36.05 29.9 35.55 30.15 35.15 L31.2 35.6 31.65 35.3 31.8 35.25 31.95 35.25 32.1 35.25 32.1 35.35 Q31.8 36.8 32.85 37.45 L32.9 37.45 33.55 37.45 34.25 37.45 35.75 37.35 Q38.1 36.9 38.1 35.4 L38.05 34.9 38.45 34.25 37.9 32.75 37.9 32.45 M41.6 41.6 L41.65 43.0 41.7 43.3 41.7 43.7 41.7 43.75 41.65 44.0 41.6 44.35 41.05 45.4 37.9 46.8 35.35 47.55 33.3 47.75 Q31.45 47.75 28.85 46.85 L27.25 46.2 25.5 44.6 25.4 44.05 Q28.4 45.6 31.2 45.6 35.35 45.6 37.85 44.7 L38.2 44.55 38.35 44.45 38.8 44.3 40.15 43.4 40.6 43.05 40.8 42.85 41.6 41.6 M41.15 43.7 L41.15 43.65 40.95 43.7 40.8 43.8 Q39.95 44.05 38.75 44.75 37.6 45.35 36.95 45.7 L36.15 46.15 36.15 46.35 36.45 46.3 Q38.2 46.0 39.05 45.5 40.2 44.95 41.1 43.8 L41.15 43.7 M39.55 36.15 L36.85 38.3 35.25 38.65 Q34.25 38.85 33.65 39.2 33.7 39.7 33.95 39.85 L34.65 39.85 Q36.45 39.85 38.25 39.0 39.3 38.45 39.9 37.8 L40.05 37.05 Q40.05 36.65 39.55 36.15" fill="#504d60" fill-rule="evenodd" stroke="none"/>
      <path d="M0.0 2.05 L5.15 4.7 7.0 5.65 7.15 5.0 Q7.15 3.55 5.3 1.15 L4.85 0.65 3.85 -0.35 2.55 -1.3 2.25 -1.4 4.35 -1.4 5.25 -0.55 5.55 -0.25 5.7 -0.1 6.45 0.65 6.5 0.7 7.05 1.55 Q10.25 5.75 14.05 9.35 L15.2 10.4 15.8 10.9 Q19.25 13.85 21.9 15.45 L23.3 16.15 24.05 14.0 27.3 17.25 28.3 18.25 27.4 18.7 25.4 20.1 Q24.0 21.5 24.0 23.45 24.0 24.2 24.55 26.1 24.3 26.15 23.95 26.35 L23.45 27.25 Q23.25 28.0 23.65 29.0 L24.0 29.75 23.9 29.65 23.4 29.0 22.05 27.2 Q19.55 23.5 17.4 18.05 L17.15 17.55 11.5 13.65 0.0 6.15 0.0 2.05 M53.4 16.55 L53.4 20.25 42.05 23.8 42.1 23.7 43.6 21.3 44.05 20.55 42.65 21.5 Q42.55 20.65 41.35 18.5 L39.6 19.4 38.85 19.7 37.65 20.05 Q37.25 20.05 36.5 19.3 L36.3 19.05 35.35 17.75 33.55 15.05 Q33.1 15.15 30.8 16.8 L31.4 14.15 32.15 11.0 32.35 11.25 32.75 11.8 34.9 14.65 37.55 18.55 38.0 19.15 38.25 19.5 38.8 19.25 39.25 19.05 40.05 18.6 42.1 17.5 42.35 17.3 42.6 17.15 43.25 16.75 42.9 21.1 42.95 21.2 44.25 20.1 47.75 17.05 51.65 16.7 53.4 16.55 M44.25 20.1 L44.05 20.55 44.25 20.1 M37.9 32.45 L37.9 32.75 38.45 34.25 38.05 34.9 38.1 35.4 Q38.1 36.9 35.75 37.35 L34.25 37.45 33.55 37.45 32.9 37.45 32.85 37.45 Q31.8 36.8 32.1 35.35 L32.1 35.25 31.95 35.25 31.8 35.25 31.8 35.2 32.25 34.9 33.1 34.3 36.8 31.75 36.95 31.7 37.9 32.45 M32.7 37.4 L28.9 36.9 28.1 37.45 27.05 38.1 27.05 39.4 Q27.7 39.85 30.7 40.2 L35.25 40.25 38.7 39.45 Q36.05 40.85 31.55 40.85 29.3 40.85 26.4 39.8 L26.35 39.75 25.4 39.4 25.0 39.2 24.9 39.25 24.4 39.6 Q23.85 40.25 23.85 41.35 23.85 42.55 24.8 43.75 L25.4 44.05 25.5 44.6 25.1 44.2 22.8 41.95 22.9 38.4 22.9 37.4 23.0 34.4 23.05 33.9 23.35 30.35 22.85 29.65 22.6 29.55 22.5 29.5 22.1 29.3 21.55 29.0 20.45 28.4 20.1 28.15 19.0 27.45 21.15 27.25 21.25 27.4 22.55 28.85 22.8 29.0 22.85 29.1 23.3 29.6 23.5 29.85 24.65 30.95 26.1 32.35 27.55 33.45 30.15 35.15 Q29.9 35.55 29.9 36.05 29.9 36.75 31.4 37.15 L32.7 37.4 M41.05 45.4 Q40.3 46.35 38.6 47.1 36.9 47.85 34.85 48.2 L32.15 48.45 29.4 48.25 28.1 47.9 28.45 47.35 27.25 46.2 28.85 46.85 Q31.45 47.75 33.3 47.75 L35.35 47.55 37.9 46.8 41.05 45.4 M32.25 34.9 L32.1 35.25 32.25 34.9 M37.95 34.6 L38.05 34.9 37.95 34.6 M23.5 29.85 L22.85 29.65 23.5 29.85 M24.65 30.95 L24.4 31.55 24.25 31.95 23.05 33.9 24.25 31.95 24.4 31.55 24.65 30.95 M23.0 34.4 L23.9 34.95 Q24.8 35.4 25.85 35.85 L28.9 36.9 25.85 35.85 Q24.8 35.4 23.9 34.95 L23.0 34.4" fill="#363847" fill-rule="evenodd" stroke="none"/>
      <path d="M24.0 29.75 L23.65 29.0 Q23.25 28.0 23.45 27.25 L23.95 26.35 Q24.3 26.15 24.55 26.1 L24.6 26.15 24.95 27.35 25.4 28.45 25.75 29.0 25.8 29.1 28.25 32.45 29.6 33.75 Q27.4 33.15 24.8 30.65 L24.1 29.95 24.05 29.85 24.0 29.75 M31.05 32.75 Q31.05 32.4 31.35 32.25 L32.1 32.15 32.9 32.25 32.9 32.4 32.55 32.9 31.95 33.35 31.35 33.15 Q31.05 32.95 31.05 32.75" fill="#9f9e99" fill-rule="evenodd" stroke="none"/>
      <path d="M53.4 46.7 L53.4 49.45 53.25 49.0 48.25 47.3 Q47.35 46.95 46.5 46.75 L46.5 46.5 46.5 45.6 47.55 45.6 50.2 46.35 Q50.7 46.5 51.0 46.7 L51.5 47.05 51.5 46.85 51.5 46.6 51.5 45.55 52.0 45.85 53.4 46.7 M25.0 53.5 L20.55 53.5 20.65 53.2 22.05 49.7 23.1 49.5 Q22.05 48.1 18.8 45.45 16.9 43.5 17.1 41.45 L22.8 43.45 26.8 47.8 27.65 48.8 27.1 49.8 26.85 50.35 25.85 52.5 25.4 53.35 25.0 53.5 M12.05 27.5 L13.0 25.6 13.5 25.45 13.6 25.5 13.65 25.55 16.45 29.0 16.95 29.6 16.5 31.3 16.0 32.75 14.9 31.4 14.95 31.35 14.6 30.95 14.0 30.15 13.7 29.9 13.1 29.0 12.05 27.5" fill="#493aa1" fill-rule="evenodd" stroke="none"/>
      <path d="M46.7 27.25 L49.0 29.0 50.2 30.1 50.35 31.4 50.5 32.5 50.7 34.35 50.75 34.45 51.35 41.5 51.4 42.75 51.5 44.8 51.5 45.55 51.5 46.6 51.5 46.85 51.5 47.05 51.0 46.7 50.5 46.3 50.15 41.75 49.75 35.15 49.7 34.6 49.65 32.85 49.5 32.0 49.3 31.3 48.95 30.55 48.15 30.4 48.25 30.25 47.05 29.0 45.2 27.45 45.8 27.1 46.7 27.25 M25.4 53.5 L25.0 53.5 25.4 53.35 25.4 53.5 M48.95 30.55 L49.5 30.6 48.95 30.55 M28.1 47.9 L27.65 48.8 26.8 47.8 22.8 43.45 17.1 41.45 16.7 41.35 17.1 41.35 20.45 41.7 21.7 41.7 21.7 41.5 22.25 30.95 22.25 30.35 21.7 30.95 18.45 30.95 17.15 33.7 17.05 33.95 16.55 35.1 14.8 39.35 14.1 41.1 13.5 42.5 9.55 52.05 9.2 52.9 8.4 52.2 8.85 50.9 Q11.3 43.85 14.45 36.8 L16.0 32.75 16.5 31.3 16.95 29.6 16.45 29.0 13.65 25.55 13.6 25.5 13.5 25.45 Q14.75 24.95 15.65 24.95 L16.4 25.5 17.2 26.1 19.0 27.45 20.1 28.15 20.45 28.4 21.45 29.0 22.45 29.5 22.5 29.5 22.6 29.55 22.85 29.65 23.35 30.35 23.05 33.9 23.0 34.4 22.9 37.4 22.9 38.4 22.8 41.95 25.1 44.2 25.5 44.6 27.25 46.2 28.45 47.35 28.1 47.9" fill="#6252b4" fill-rule="evenodd" stroke="none"/>
      <path d="M53.4 49.45 L53.4 52.95 52.7 50.7 52.55 50.35 52.2 49.35 50.8 48.8 46.55 46.85 45.5 46.4 45.4 46.35 45.05 44.35 44.85 43.45 44.85 43.35 44.7 42.2 44.8 41.4 45.35 38.75 45.5 38.05 47.65 40.05 47.7 39.55 47.55 35.65 47.25 33.45 47.15 32.6 47.0 32.1 47.2 31.55 47.35 31.2 47.85 30.4 48.0 30.35 48.15 30.4 48.95 30.55 49.3 31.3 49.5 32.0 49.65 32.85 49.7 34.6 49.75 35.15 50.15 41.75 50.5 46.3 51.0 46.7 Q50.7 46.5 50.2 46.35 L47.55 45.6 46.5 45.6 46.5 46.5 46.5 46.75 Q47.35 46.95 48.25 47.3 L53.25 49.0 53.4 49.45 M20.55 53.5 L19.75 53.5 20.35 51.35 21.1 48.8 17.4 45.35 16.6 44.7 16.65 41.35 16.65 40.55 16.55 35.1 17.05 33.95 17.15 33.7 18.45 30.95 21.7 30.95 22.25 30.35 22.25 30.95 21.7 41.5 21.7 41.7 20.45 41.7 17.1 41.35 16.7 41.35 17.1 41.45 Q16.9 43.5 18.8 45.45 22.05 48.1 23.1 49.5 L22.05 49.7 20.65 53.2 20.55 53.5 M44.75 27.05 L45.1 27.05 45.8 27.1 45.2 27.45 Q44.65 27.6 44.0 27.95 L45.35 29.0 45.5 29.1 46.85 29.95 45.75 34.4 45.35 35.8 45.25 36.35 44.75 38.45 43.95 42.1 43.4 41.3 42.05 39.45 42.0 39.4 41.7 39.05 41.55 38.45 41.7 37.9 42.9 32.95 43.5 29.0 43.7 27.75 43.75 27.2 44.75 27.05 M50.5 46.3 L49.0 45.0 44.8 41.4 49.0 45.0 50.5 46.3 M6.6 40.75 L6.6 40.8 Q7.75 37.1 10.15 31.75 L11.4 29.0 12.0 27.6 12.05 27.5 13.1 29.0 13.7 29.9 14.0 30.15 14.6 30.95 14.95 31.35 14.9 31.4 16.0 32.75 14.45 36.8 Q11.3 43.85 8.85 50.9 L8.4 52.2 6.35 50.3 Q4.55 48.5 3.25 46.6 L1.65 44.0 1.05 40.35 0.7 38.25 Q1.35 34.4 3.15 32.25 L3.4 33.75 Q3.8 35.4 4.7 37.45 5.7 39.65 6.6 40.75" fill="#312c80" fill-rule="evenodd" stroke="none"/>
      <path d="M26.5 -1.4 L30.85 -1.4 30.6 -0.1 30.45 0.65 30.35 1.4 29.75 4.65 29.75 5.0 29.75 5.15 29.6 5.85 29.45 6.45 29.1 8.3 29.3 6.7 29.5 5.0 29.55 4.6 29.6 0.85 29.6 0.45 29.25 -1.2 29.1 -0.8 Q28.85 -0.45 28.45 -0.45 27.45 -0.45 26.5 -1.4 M53.4 7.05 L53.4 12.45 52.5 13.05 50.3 14.6 49.85 14.95 50.2 14.6 52.7 12.15 53.2 11.5 53.3 11.35 53.1 10.3 53.1 10.0 53.35 7.4 53.4 7.05 M41.55 38.45 L41.7 39.05 41.8 39.9 41.6 41.6 40.8 42.85 40.8 41.4 Q40.8 41.95 39.85 42.35 39.2 42.75 38.35 42.75 L37.35 42.75 Q37.05 42.65 37.05 41.85 37.05 41.3 37.3 40.85 L34.9 41.25 31.25 41.7 Q29.15 41.7 27.25 40.95 L25.9 40.35 25.3 39.75 24.9 39.25 25.0 39.2 25.4 39.4 26.35 39.75 26.4 39.8 Q29.3 40.85 31.55 40.85 36.05 40.85 38.7 39.45 L39.3 39.1 40.6 37.9 40.8 37.45 40.8 36.9 41.4 38.15 41.55 38.45" fill="#ffd4d4" fill-rule="evenodd" stroke="none"/>
      <path d="M21.35 -1.4 L26.5 -1.4 Q27.45 -0.45 28.45 -0.45 28.85 -0.45 29.1 -0.8 L29.25 -1.2 29.6 0.45 29.6 0.85 29.55 4.6 29.5 5.0 29.3 6.7 29.1 8.3 28.2 12.65 28.2 9.9 28.1 9.0 27.45 3.05 27.1 1.15 26.5 2.15 25.6 2.4 25.4 2.4 Q23.4 2.2 21.35 -1.4 M53.3 -1.4 L53.4 -1.4 53.4 7.05 53.35 7.4 53.1 10.0 53.1 10.3 53.3 11.35 53.2 11.5 52.7 12.15 50.2 14.6 49.85 14.95 47.2 16.8 48.25 15.65 49.75 14.05 50.9 12.55 50.7 12.45 50.5 12.3 50.5 12.15 50.3 11.25 50.3 11.05 50.25 11.1 50.25 10.85 50.4 9.2 Q50.7 7.05 51.7 3.55 L52.0 2.4 53.3 -1.4 M40.8 42.85 L40.6 43.05 40.15 43.4 38.8 44.3 38.35 44.45 38.2 44.55 37.9 44.65 35.85 44.85 35.55 44.85 35.4 44.85 Q34.5 44.8 33.85 44.35 33.1 43.85 33.1 43.3 33.05 42.75 33.25 42.65 L31.05 42.9 27.25 42.35 Q26.1 42.0 25.6 41.35 25.3 40.85 25.3 40.25 L25.3 39.75 25.9 40.35 27.25 40.95 Q29.15 41.7 31.25 41.7 L34.9 41.25 37.3 40.85 Q37.05 41.3 37.05 41.85 37.05 42.65 37.35 42.75 L38.35 42.75 Q39.2 42.75 39.85 42.35 40.8 41.95 40.8 41.4 L40.8 42.85" fill="#d40000" fill-rule="evenodd" stroke="none"/>
      <path d="M17.45 -1.4 L19.35 -1.4 19.6 0.1 19.7 0.35 20.0 1.2 20.95 2.75 22.8 4.85 24.1 6.2 24.35 6.45 27.65 9.9 28.1 9.0 28.2 9.9 28.2 12.65 27.9 13.65 23.9 9.65 23.55 9.3 20.6 6.15 19.6 4.95 19.3 4.55 18.75 3.85 18.3 3.3 17.45 2.15 17.45 -1.15 17.45 -1.35 17.45 -1.4 M52.0 -1.4 L52.9 -1.4 Q50.3 2.55 49.6 4.3 49.0 5.65 48.65 7.25 L48.25 9.15 48.25 9.4 48.0 10.65 47.6 13.5 47.75 13.35 47.35 15.6 47.45 16.2 48.25 15.65 47.2 16.8 47.15 16.9 46.75 17.1 46.5 17.3 45.85 17.7 45.85 17.6 45.95 17.15 46.2 15.65 46.4 14.5 46.7 7.45 47.2 6.1 47.5 5.65 52.0 -1.4 M25.3 39.75 L25.3 40.25 Q25.3 40.85 25.6 41.35 25.65 42.7 28.85 43.85 31.9 44.85 35.4 44.85 L35.55 44.85 35.85 44.85 37.9 44.65 38.2 44.55 37.85 44.7 Q35.35 45.6 31.2 45.6 28.4 45.6 25.4 44.05 L24.8 43.75 Q23.85 42.55 23.85 41.35 23.85 40.25 24.4 39.6 L24.9 39.25 25.3 39.75" fill="#ff6464" fill-rule="evenodd" stroke="none"/>
      <path d="M19.35 -1.4 L21.35 -1.4 Q23.4 2.2 25.4 2.4 L25.6 2.4 26.5 2.15 27.1 1.15 27.45 3.05 28.1 9.0 27.65 9.9 24.35 6.45 24.1 6.2 22.8 4.85 20.95 2.75 20.0 1.2 19.7 0.35 19.6 0.1 19.35 -1.4 M52.9 -1.4 L53.3 -1.4 52.0 2.4 51.7 3.55 Q50.7 7.05 50.4 9.2 L50.25 10.85 50.25 11.1 50.3 11.05 50.3 11.25 50.5 12.15 50.5 12.3 50.7 12.45 50.9 12.55 49.75 14.05 48.25 15.65 47.45 16.2 47.35 15.6 47.75 13.35 47.6 13.5 48.0 10.65 48.25 9.4 48.25 9.15 48.65 7.25 Q49.0 5.65 49.6 4.3 50.3 2.55 52.9 -1.4 M25.6 41.35 Q26.1 42.0 27.25 42.35 L31.05 42.9 33.25 42.65 Q33.05 42.75 33.1 43.3 33.1 43.85 33.85 44.35 34.5 44.8 35.4 44.85 31.9 44.85 28.85 43.85 25.65 42.7 25.6 41.35" fill="#ff0000" fill-rule="evenodd" stroke="none"/>
      <path d="M2.75 30.4 L3.3 29.2 3.2 30.6 3.15 31.45 3.15 32.25 Q1.35 34.4 0.7 38.25 L0.35 35.45 2.75 30.4" fill="#482f85" fill-rule="evenodd" stroke="none"/>
      <path d="M41.85 24.1 L46.25 26.95 46.7 27.25 45.8 27.1 45.1 27.05 44.75 27.05 41.4 24.7 41.85 24.1 41.4 24.7 41.35 24.65 41.7 24.2 41.8 24.05 41.85 24.1" fill="#e37179" fill-rule="evenodd" stroke="none"/>
      <path d="M41.15 43.7 L41.1 43.8 Q40.2 44.95 39.05 45.5 38.2 46.0 36.45 46.3 L36.15 46.35 36.15 46.15 36.95 45.7 Q37.6 45.35 38.75 44.75 39.95 44.05 40.8 43.8 L40.95 43.7 41.15 43.65 41.15 43.7 M39.55 36.15 Q40.05 36.65 40.05 37.05 L39.9 37.8 Q39.3 38.45 38.25 39.0 36.45 39.85 34.65 39.85 L33.95 39.85 Q33.7 39.7 33.65 39.2 34.25 38.85 35.25 38.65 L36.85 38.3 39.55 36.15" fill="#78768c" fill-rule="evenodd" stroke="none"/>
      <path d="M48.15 30.4 L48.0 30.35 47.85 30.4 47.35 31.2 47.2 31.55 47.0 32.1 46.45 33.95 46.05 35.8 45.9 36.35 45.5 38.05 45.35 38.75 44.8 41.4 44.7 42.2 44.85 43.35 44.85 43.45 44.75 43.35 43.95 42.1 44.75 38.45 45.25 36.35 45.35 35.8 45.75 34.4 46.85 29.95 45.5 29.1 45.35 29.0 44.0 27.95 Q44.65 27.6 45.2 27.45 L47.05 29.0 48.25 30.25 48.15 30.4" fill="#5531ab" fill-rule="evenodd" stroke="none"/>
      <path d="M45.5 38.05 L45.9 36.35 46.05 35.8 46.45 33.95 47.0 32.1 47.15 32.6 47.25 33.45 47.55 35.65 47.7 39.55 47.65 40.05 45.5 38.05" fill="#8d1f22" fill-rule="evenodd" stroke="none"/>
      <path d="M0.0 -1.15 L0.0 -1.4 2.25 -1.4 2.55 -1.3 3.85 -0.35 4.85 0.65 5.3 1.15 Q7.15 3.55 7.15 5.0 L7.0 5.65 5.15 4.7 0.0 2.05 0.0 0.45 2.85 1.55 2.6 0.55 2.45 0.1 2.05 -0.7 0.0 -1.15 M53.4 12.45 L53.4 14.0 53.15 14.4 53.4 14.4 53.4 16.55 51.65 16.7 47.75 17.05 49.7 15.15 49.85 14.95 50.3 14.6 52.5 13.05 53.4 12.45 M30.8 16.8 Q33.1 15.15 33.55 15.05 L35.35 17.75 36.3 19.05 36.5 19.3 Q37.25 20.05 37.65 20.05 L38.85 19.7 39.6 19.4 41.35 18.5 Q42.55 20.65 42.65 21.5 L44.05 20.55 43.6 21.3 42.1 23.7 42.0 23.8 41.8 24.05 41.7 24.2 41.35 24.65 40.9 25.35 40.8 25.45 40.8 25.5 40.05 26.6 39.9 26.9 Q39.55 28.05 39.5 28.95 L39.5 28.8 Q39.5 28.2 39.05 27.8 38.55 27.4 37.75 27.4 L37.2 27.45 36.6 27.5 36.55 27.5 36.55 27.45 36.65 26.9 36.65 26.8 Q36.65 25.8 35.8 24.95 34.7 23.8 32.75 23.8 31.55 23.8 30.85 24.6 L30.55 25.0 Q30.2 25.7 29.85 27.3 L27.1 26.25 25.9 26.0 25.6 25.95 24.55 26.1 Q24.0 24.2 24.0 23.45 24.0 21.5 25.4 20.1 L27.4 18.7 28.3 18.25 28.4 18.3 28.45 18.45 29.1 19.0 29.4 19.3 29.8 19.65 29.85 19.75 29.95 19.85 30.2 19.2 30.4 18.1 30.8 16.8 M21.15 27.25 L20.1 25.45 21.5 27.2 23.15 29.0 23.65 29.45 23.9 29.65 24.0 29.75 24.05 29.85 24.1 29.95 24.75 30.8 26.1 32.35 24.65 30.95 23.5 29.85 23.3 29.6 22.85 29.1 22.8 29.0 22.55 28.85 21.25 27.4 21.15 27.25" fill="#4f4e60" fill-rule="evenodd" stroke="none"/>
      <path d="M14.15 18.1 L0.0 8.05 0.0 6.15 11.5 13.65 17.15 17.55 17.4 18.05 Q19.55 23.5 22.05 27.2 L23.4 29.0 23.9 29.65 23.65 29.45 23.15 29.0 21.5 27.2 20.1 25.45 17.6 20.55 14.15 18.1" fill="#4a515b" fill-rule="evenodd" stroke="none"/>
      <path d="M0.0 -1.15 L2.05 -0.7 2.45 0.1 2.6 0.55 2.85 1.55 0.0 0.45 0.0 -1.15 M53.4 14.0 L53.4 14.4 53.15 14.4 53.4 14.0" fill="#777688" fill-rule="evenodd" stroke="none"/>
      <path d="M16.35 6.15 L16.05 5.85 15.6 5.4 15.95 5.35 16.6 5.3 16.9 5.25 18.5 5.1 18.75 5.05 19.4 5.0 19.95 6.5 18.15 6.15 16.35 6.15 M29.7 18.75 L29.55 18.1 29.55 18.0 29.45 17.65 28.85 14.2 29.35 12.15 29.85 11.65 Q31.3 10.1 32.1 10.1 L32.35 10.1 32.15 11.0 31.4 14.15 30.4 17.05 29.95 18.1 29.7 18.75 M32.6 8.75 L32.4 8.85 30.1 10.45 29.95 9.75 30.6 7.95 31.4 7.15 31.7 7.0 32.55 6.5 32.55 6.6 32.7 7.95 32.7 8.5 32.6 8.75 M46.5 17.3 L46.75 17.1 47.15 16.9 47.2 16.8 49.85 14.95 49.7 15.15 47.75 17.05 44.25 20.1 42.95 21.2 42.9 21.1 43.55 19.95 45.35 18.1 45.4 18.35 46.5 17.3 M44.25 5.35 L44.3 5.0 45.75 6.55 46.35 7.15 46.1 8.5 44.45 5.65 44.25 5.35 M24.55 26.1 L25.6 25.95 25.9 26.0 27.1 26.25 29.85 27.3 Q30.2 25.7 30.55 25.0 L30.85 24.6 Q31.55 23.8 32.75 23.8 34.7 23.8 35.8 24.95 36.65 25.8 36.65 26.8 L36.65 26.9 36.55 27.45 36.55 27.5 36.6 27.5 37.2 27.45 37.75 27.4 Q38.55 27.4 39.05 27.8 39.5 28.2 39.5 28.8 L39.5 28.95 39.5 29.0 39.4 29.25 Q39.1 30.15 36.95 31.7 L36.8 31.75 33.1 34.3 32.25 34.9 31.8 35.2 31.8 35.25 31.65 35.3 31.2 35.6 30.15 35.15 27.55 33.45 26.1 32.35 24.75 30.8 24.1 29.95 24.8 30.65 Q27.4 33.15 29.6 33.75 L28.25 32.45 25.8 29.1 25.75 29.0 25.4 28.45 24.95 27.35 24.6 26.15 24.55 26.1 M36.75 28.95 L36.25 28.35 35.55 27.8 35.05 26.95 34.85 25.4 34.55 25.35 34.45 25.6 33.9 26.4 33.9 26.75 34.1 27.95 Q34.15 28.3 34.65 28.5 L35.55 28.95 36.75 28.95 M31.05 32.75 Q31.05 32.95 31.35 33.15 L31.95 33.35 32.55 32.9 32.9 32.4 32.9 32.25 32.1 32.15 31.35 32.25 Q31.05 32.4 31.05 32.75" fill="#cfcec9" fill-rule="evenodd" stroke="none"/>
      <path d="M24.05 14.0 L22.65 12.6 18.75 8.6 17.4 7.2 16.35 6.15 18.15 6.15 19.95 6.5 19.4 5.0 19.6 4.95 20.6 6.15 23.55 9.3 23.9 9.65 27.9 13.65 28.2 12.65 29.1 8.3 29.45 6.45 29.6 5.85 29.75 5.15 29.75 5.0 29.75 4.65 30.35 1.4 31.3 1.05 30.8 3.55 30.35 5.75 29.75 8.85 29.45 10.1 28.9 12.5 28.85 12.8 28.7 13.35 28.4 14.4 27.9 14.15 27.35 13.85 27.2 13.8 27.9 14.6 28.1 15.15 28.4 15.95 29.1 17.95 29.25 18.1 29.55 19.05 29.7 18.75 29.95 18.1 30.4 17.05 31.4 14.15 30.8 16.8 30.4 18.1 30.2 19.2 29.95 19.85 29.85 19.75 29.8 19.65 29.4 19.3 29.1 19.0 28.45 18.45 28.4 18.3 28.3 18.25 27.3 17.25 24.05 14.0 M46.7 7.45 L46.4 14.5 46.2 15.65 45.95 17.15 45.85 17.6 45.85 17.7 46.5 17.3 45.4 18.35 45.35 18.1 45.15 17.25 45.15 17.15 45.05 17.1 43.55 19.95 42.9 21.1 43.25 16.75 43.75 11.55 43.85 10.1 43.9 9.45 44.25 5.35 44.45 5.65 46.1 8.5 46.35 7.15 46.7 7.45" fill="#9c9b96" fill-rule="evenodd" stroke="none"/>
      <path d="M42.05 23.8 L41.85 24.1 41.4 24.7 40.9 25.35 40.8 25.45 M42.1 23.7 L42.05 23.8 42.0 23.8 41.8 24.05 41.7 24.2 41.35 24.65 40.9 25.35 M42.1 23.7 L42.0 23.8" fill="none" stroke="#000000" stroke-linecap="round" stroke-linejoin="round" stroke-width="1.0"/>
      <path d="M41.85 24.1 L46.25 26.95 46.7 27.25 M3.35 53.5 L0.0 52.7 M0.0 28.65 L0.6 29.0 2.75 30.4 M3.3 29.2 L3.4 29.0 5.5 24.5 Q7.5 20.15 8.25 19.15 L8.45 19.0 8.5 18.9 Q10.15 18.3 12.6 18.1 L14.15 18.1 M4.35 -1.4 L5.25 -0.55 5.55 -0.25 5.7 -0.1 6.45 0.65 6.5 0.7 7.05 1.55 Q10.25 5.75 14.05 9.35 L15.2 10.4 15.8 10.9 Q19.25 13.85 21.9 15.45 L23.3 16.15 24.05 14.0 M43.25 16.75 L42.6 17.15 42.35 17.3 42.1 17.5 40.05 18.6 M39.25 19.05 L38.8 19.25 38.25 19.5 38.0 19.15 37.55 18.55 34.9 14.65 32.75 11.8 32.35 11.25 32.15 11.0 M41.8 24.05 L41.85 24.1 M41.55 38.45 L41.7 39.05 41.8 39.9 41.6 41.6 40.8 42.85 40.6 43.05 40.15 43.4 38.8 44.3 M38.7 39.45 L39.3 39.1 40.6 37.9 40.8 37.45 40.8 36.9 41.4 38.15 41.55 38.45 M38.2 44.55 L38.35 44.45 M53.4 43.35 L51.35 41.5 M11.7 21.2 L12.0 21.55 M25.4 44.05 L24.8 43.75 Q23.85 42.55 23.85 41.35 23.85 40.25 24.4 39.6 L24.9 39.25 25.0 39.2 25.4 39.4 26.35 39.75 26.4 39.8 Q29.3 40.85 31.55 40.85 36.05 40.85 38.7 39.45 M25.4 44.05 Q28.4 45.6 31.2 45.6 35.35 45.6 37.85 44.7 L38.2 44.55" fill="none" stroke="#4c0604" stroke-linecap="round" stroke-linejoin="round" stroke-width="1.0"/>
      <path d="M50.35 31.4 L52.8 29.3 53.4 30.75" fill="none" stroke="#4a0604" stroke-linecap="round" stroke-linejoin="round" stroke-width="1.0"/>
      <path d="M24.05 14.0 L22.65 12.6 18.75 8.6 17.4 7.2 16.35 6.15 16.05 5.85 15.6 5.4 15.95 5.35 16.6 5.3 16.9 5.25 18.5 5.1 18.75 5.05 19.4 5.0 19.6 4.95 M34.25 0.1 L34.3 -0.25 34.35 -0.3 34.05 -0.2 32.95 0.35 32.15 0.65 31.75 0.85 31.4 1.05 31.3 1.05 30.35 1.4 M32.35 10.1 L32.6 8.75 32.7 8.5 32.8 8.05 32.85 7.6 33.45 4.3 33.85 2.25 34.25 0.1 M43.9 9.45 L44.25 5.35 44.3 5.0 45.75 6.55 46.35 7.15 46.7 7.45 M43.9 9.45 L43.85 10.1 43.75 11.55 43.25 16.75 42.9 21.1 42.95 21.2 44.25 20.1 47.75 17.05 49.7 15.15 49.85 14.95 M32.15 11.0 L31.4 14.15 30.8 16.8 30.4 18.1 30.2 19.2 29.95 19.85 29.85 19.75 29.8 19.65 29.4 19.3 29.1 19.0 28.45 18.45 28.4 18.3 28.3 18.25 27.3 17.25 24.05 14.0 M32.15 11.0 L32.35 10.1 M26.1 32.35 L27.55 33.45 30.15 35.15 31.2 35.6 31.65 35.3 31.8 35.25 31.8 35.2 32.25 34.9 33.1 34.3 36.8 31.75 36.95 31.7 Q39.1 30.15 39.4 29.25" fill="none" stroke="#85837a" stroke-linecap="round" stroke-linejoin="round" stroke-width="1.0"/>
      <path d="M53.4 20.25 L42.05 23.8 M14.15 18.1 L0.0 8.05 M44.05 20.55 L44.25 20.1 M44.05 20.55 L43.6 21.3 42.1 23.7 M44.75 27.05 L45.1 27.05 45.8 27.1 46.7 27.25 M40.8 25.45 L40.8 25.5 40.05 26.6 39.9 26.9 Q39.55 28.05 39.5 28.95 M43.7 27.75 L43.75 27.2 44.75 27.05 M43.95 42.1 L44.75 43.35 44.85 43.45 44.85 43.35 44.7 42.2 44.8 41.4 M50.5 46.3 L51.0 46.7 M51.4 42.75 L51.35 41.5 M43.7 27.75 L43.5 29.0 42.9 32.95 41.7 37.9 41.55 38.45 M41.7 39.05 L42.0 39.4 42.05 39.45 43.4 41.3 43.95 42.1 M40.8 36.9 L40.7 36.65 40.0 35.1 Q39.55 33.9 37.9 32.45 L36.95 31.7 M38.05 34.9 L38.1 35.4 Q38.1 36.9 35.75 37.35 L34.25 37.45 33.55 37.45 32.9 37.45 32.85 37.45 32.7 37.4 28.9 36.9 25.85 35.85 Q24.8 35.4 23.9 34.95 L23.0 34.4 23.05 33.9 M41.6 41.6 L41.65 43.0 41.7 43.3 41.7 43.7 41.7 43.75 41.65 44.0 41.6 44.35 41.05 45.4 Q40.3 46.35 38.6 47.1 36.9 47.85 34.85 48.2 L32.15 48.45 29.4 48.25 28.1 47.9 M27.65 48.8 L27.1 49.8 M19.0 27.45 L21.15 27.25 20.1 25.45 17.6 20.55 14.15 18.1 M3.4 33.75 Q3.8 35.4 4.7 37.45 5.7 39.65 6.6 40.75 M3.15 32.25 L3.15 31.45 3.2 30.6 3.3 29.2 M32.1 35.25 L32.25 34.9 M32.85 37.45 Q31.8 36.8 32.1 35.35 L32.1 35.25 M38.05 34.9 L37.95 34.6 M21.15 27.25 L21.25 27.4 22.55 28.85 M22.85 29.1 L23.3 29.6 23.5 29.85 24.65 30.95 26.1 32.35 M22.45 29.5 L22.5 29.5 22.6 29.55 22.85 29.65 M25.5 44.6 L27.25 46.2 M25.4 53.35 L25.4 53.5 M52.65 51.8 L52.7 50.7 52.55 50.35" fill="none" stroke="#2a2933" stroke-linecap="round" stroke-linejoin="round" stroke-width="1.0"/>
      <path d="M25.85 52.5 L26.85 50.35 27.1 49.8 M25.85 52.5 L25.4 53.35" fill="none" stroke="#201851" stroke-linecap="round" stroke-linejoin="round" stroke-width="1.0"/>
      <path d="M19.6 4.95 L19.3 4.55 18.75 3.85 18.3 3.3 17.45 2.15 17.45 -1.15 17.45 -1.35 17.45 -1.4 M30.35 1.4 L30.45 0.65 30.6 -0.1 30.85 -1.4 M49.85 14.95 L50.3 14.6 52.5 13.05 53.4 12.45 M47.5 5.65 L52.0 -1.4 M47.5 5.65 L47.2 6.1 46.7 7.45 46.4 14.5 46.2 15.65 45.95 17.15 45.85 17.6 45.85 17.7 46.5 17.3 46.75 17.1 47.15 16.9 47.2 16.8 49.85 14.95 M30.35 1.4 L29.75 4.65 29.75 5.0 29.75 5.15 29.6 5.85 29.45 6.45 29.1 8.3 28.2 12.65 27.9 13.65 23.9 9.65 23.55 9.3 20.6 6.15 19.6 4.95" fill="none" stroke="#850000" stroke-linecap="round" stroke-linejoin="round" stroke-width="1.0"/>
      <path d="M46.7 27.25 L49.0 29.0 50.2 30.1 50.35 31.4 50.5 32.5 50.7 34.35 50.75 34.45 51.35 41.5 M2.75 30.4 L3.3 29.2 M47.35 31.2 L47.85 30.4 48.0 30.35 48.15 30.4 48.95 30.55 49.5 30.6 M44.8 41.4 L45.35 38.75 45.5 38.05 45.9 36.35 46.05 35.8 46.45 33.95 47.0 32.1 47.2 31.55 M51.0 46.7 L51.5 47.05 51.5 46.85 51.5 46.6 51.5 45.55 51.5 44.8 51.4 42.75 M45.5 38.05 L47.65 40.05 47.7 39.55 47.55 35.65 47.25 33.45 47.15 32.6 47.0 32.1 M28.1 47.9 L27.65 48.8 M52.55 50.35 L52.2 49.35 50.8 48.8 46.55 46.85 45.5 46.4 45.4 46.35 45.05 44.35 44.85 43.45 M44.8 41.4 L49.0 45.0 50.5 46.3 M51.5 45.55 L52.0 45.85 53.4 46.7 M12.0 21.55 Q13.0 22.8 15.65 24.95 L16.4 25.5 17.2 26.1 19.0 27.45 20.1 28.15 20.45 28.4 21.45 29.0 22.45 29.5 M6.6 40.75 L6.6 40.8 Q7.75 37.1 10.15 31.75 L11.4 29.0 12.0 27.6 12.05 27.5 13.0 25.6 13.5 25.45 Q14.75 24.95 15.65 24.95 M16.55 35.1 L17.05 33.95 17.15 33.7 18.45 30.95 21.7 30.95 M8.4 52.2 L9.2 52.9 9.55 52.05 13.5 42.5 14.1 41.1 14.8 39.35 16.55 35.1 16.65 40.55 16.65 41.35 16.6 44.7 17.4 45.35 21.1 48.8 20.35 51.35 19.75 53.5 M3.4 33.75 L3.15 32.25 M0.7 38.25 L1.05 40.35 1.65 44.0 3.25 46.6 Q4.55 48.5 6.35 50.3 L8.4 52.2 M2.75 30.4 L0.35 35.45 0.7 38.25 M22.85 29.65 L23.5 29.85 M22.85 29.65 L23.35 30.35 23.05 33.9 24.25 31.95 24.4 31.55 24.65 30.95 M23.0 34.4 L22.9 37.4 22.9 38.4 22.8 41.95 25.1 44.2 25.5 44.6 M27.25 46.2 L28.45 47.35 28.1 47.9 M52.7 50.7 L53.4 52.95" fill="none" stroke="#271e5b" stroke-linecap="round" stroke-linejoin="round" stroke-width="1.0"/>
      <path d="M52.55 52.8 L52.6 52.25 52.65 52.1 52.65 51.8 M52.5 53.5 L52.55 52.8" fill="none" stroke="#858277" stroke-linecap="round" stroke-linejoin="round" stroke-width="1.0"/>
      <path d="M24.55 26.1 L25.6 25.95 25.9 26.0 27.1 26.25 29.85 27.3 Q30.2 25.7 30.55 25.0 L30.85 24.6 Q31.55 23.8 32.75 23.8 34.7 23.8 35.8 24.95 36.65 25.8 36.65 26.8 L36.65 26.9 36.55 27.45 36.55 27.5 36.6 27.5 37.2 27.45 37.75 27.4 Q38.55 27.4 39.05 27.8 39.5 28.2 39.5 28.8 L39.5 28.95 39.5 29.0 39.4 29.25 M24.0 29.75 L23.65 29.0 Q23.25 28.0 23.45 27.25 L23.95 26.35 Q24.3 26.15 24.55 26.1 M24.1 29.95 L24.75 30.8 26.1 32.35 M24.1 29.95 L24.05 29.85 24.0 29.75" fill="none" stroke="#2a2933" stroke-linecap="round" stroke-linejoin="round" stroke-width="0.5"/>
      <path d="M22.55 28.85 L22.8 29.0 22.85 29.1" fill="none" stroke="#000000" stroke-linecap="round" stroke-linejoin="round" stroke-width="0.5"/>
      <path d="M29.3 23.3 L28.7 21.8 27.45 20.95 25.9 20.15 24.95 19.75 Q23.2 19.1 22.25 19.15 L22.45 20.15 22.5 20.5 22.65 21.25 23.75 23.75 23.55 22.3 23.5 22.3 23.3 21.65 Q23.3 21.4 23.45 21.4 L23.6 21.45 23.7 21.25 23.7 21.55 23.85 21.6 24.25 21.95 24.3 22.0 24.35 22.2 24.2 22.5 Q24.7 23.25 25.6 23.25 26.1 23.25 26.85 22.7 L26.95 22.55 26.8 21.7 Q26.8 21.45 27.1 21.45 27.45 21.4 27.95 21.7 L28.6 22.2 28.7 23.1 28.55 23.75 28.75 24.05 28.8 23.95 29.3 23.3 M40.1 23.55 L40.05 23.55 Q39.35 23.55 38.55 24.15 37.55 24.85 36.5 26.6 L36.4 26.8 36.7 27.0 36.8 26.9 36.7 26.75 36.9 26.3 Q37.05 26.15 37.15 26.15 L37.3 26.15 37.3 26.45 38.2 26.0 38.6 25.55 38.25 25.2 38.25 25.1 Q38.25 24.75 38.75 24.4 39.25 24.05 39.6 24.05 L39.9 24.05 39.9 24.1 40.0 24.35 40.15 24.55 39.95 25.2 39.85 25.3 39.9 25.65 39.9 25.7 Q40.3 24.95 40.25 24.2 L40.1 23.55" fill="#58192e" fill-rule="evenodd" stroke="none"/>
      <path d="M22.65 21.25 L22.5 20.5 22.45 20.15 22.25 19.15 Q23.2 19.1 24.95 19.75 L25.9 20.15 27.45 20.95 28.7 21.8 29.3 23.3 29.55 24.0 29.6 25.05 29.45 26.0 29.3 26.05 27.1 26.15 25.1 26.15 28.95 26.8 29.5 26.9 30.25 27.25 30.4 27.35 30.45 26.95 30.6 24.6 30.55 23.7 31.05 23.85 31.25 23.95 30.75 22.95 28.95 20.55 Q27.95 20.1 25.95 19.4 L22.2 18.35 21.05 18.2 Q21.6 18.85 22.6 21.7 L22.9 22.7 22.65 21.25 M39.5 27.05 L39.95 26.55 42.35 23.75 43.1 23.35 42.85 23.3 42.1 23.05 41.9 22.95 41.1 22.55 40.65 22.55 Q39.9 22.5 38.05 23.15 L37.05 23.5 37.15 23.5 36.6 24.8 36.4 25.0 35.7 26.1 35.55 26.5 35.4 26.9 36.3 27.25 36.6 27.4 37.1 27.55 37.85 27.85 37.65 27.65 37.5 27.55 36.7 27.0 36.4 26.8 36.5 26.6 Q37.55 24.85 38.55 24.15 39.35 23.55 40.05 23.55 L40.1 23.55 41.45 23.55 41.25 23.95 41.0 24.55 41.0 24.7 40.4 25.55 39.9 26.3 39.5 27.05" fill="#540b00" fill-rule="evenodd" stroke="none"/>
      <path d="M28.75 24.05 L28.55 23.75 28.3 23.85 Q27.85 23.9 27.35 23.25 L26.95 22.55 26.85 22.7 Q26.1 23.25 25.6 23.25 24.7 23.25 24.2 22.5 L24.15 22.5 24.7 23.15 26.1 23.9 25.8 24.35 25.4 24.65 Q24.55 24.65 24.0 23.8 23.6 23.2 23.6 22.55 L23.65 22.45 23.55 22.3 23.75 23.75 23.95 24.1 Q25.1 25.1 26.35 25.1 27.7 25.1 28.75 24.05 M23.7 21.55 L23.7 21.25 23.6 21.45 23.7 21.55 M36.7 27.0 L37.5 27.55 Q38.75 27.4 39.5 26.3 L39.9 25.7 39.9 25.65 39.85 25.3 39.7 25.55 39.15 25.95 38.65 25.6 38.6 25.55 38.2 26.0 37.3 26.45 37.15 26.7 36.8 26.9 36.7 27.0 M38.85 26.1 L38.65 26.8 Q38.55 27.05 38.0 27.15 L37.25 27.25 37.15 27.15 37.4 26.9 37.5 26.85 38.25 26.55 38.85 26.1" fill="#834b4e" fill-rule="evenodd" stroke="none"/>
      <path d="M28.55 23.75 L28.7 23.1 28.6 22.2 27.95 21.7 Q27.45 21.4 27.1 21.45 26.8 21.45 26.8 21.7 L26.95 22.55 27.35 23.25 Q27.85 23.9 28.3 23.85 L28.55 23.75 M24.2 22.5 L24.35 22.2 24.3 22.0 24.25 21.95 23.85 21.6 23.7 21.55 23.6 21.45 23.45 21.4 Q23.3 21.4 23.3 21.65 L23.5 22.3 23.55 22.3 23.65 22.45 23.9 22.55 24.15 22.5 24.2 22.5 M39.85 25.3 L39.95 25.2 40.15 24.55 40.0 24.35 39.9 24.1 39.9 24.05 39.6 24.05 Q39.25 24.05 38.75 24.4 38.25 24.75 38.25 25.1 L38.25 25.2 38.6 25.55 38.65 25.6 39.15 25.95 39.7 25.55 39.85 25.3 M37.3 26.45 L37.3 26.15 37.15 26.15 Q37.05 26.15 36.9 26.3 L36.7 26.75 36.8 26.9 37.15 26.7 37.3 26.45" fill="#cfd3de" fill-rule="evenodd" stroke="none"/>
      <path d="M24.15 22.5 L23.9 22.55 23.65 22.45 23.6 22.55 Q23.6 23.2 24.0 23.8 24.55 24.65 25.4 24.65 L25.8 24.35 26.1 23.9 24.7 23.15 24.15 22.5 M38.85 26.1 L38.25 26.55 37.5 26.85 37.4 26.9 37.15 27.15 37.25 27.25 38.0 27.15 Q38.55 27.05 38.65 26.8 L38.85 26.1" fill="#fa90a6" fill-rule="evenodd" stroke="none"/>
      <path d="M29.3 23.3 L28.8 23.95 28.75 24.05 Q27.7 25.1 26.35 25.1 25.1 25.1 23.95 24.1 L24.05 24.3 Q24.75 25.3 27.1 26.15 L29.3 26.05 29.45 26.0 29.6 25.05 29.55 24.0 29.3 23.3 M37.65 27.65 L37.95 27.65 39.25 27.55 39.4 27.25 39.5 27.05 39.9 26.3 40.4 25.55 41.0 24.7 41.0 24.55 41.25 23.95 41.45 23.55 40.1 23.55 40.25 24.2 Q40.3 24.95 39.9 25.7 L39.5 26.3 Q38.75 27.4 37.5 27.55 L37.65 27.65" fill="#cecad9" fill-rule="evenodd" stroke="none"/>
      <path d="M30.15 30.9 L29.3 30.9 29.25 30.8 28.75 30.65 28.65 30.75 29.3 31.15 29.3 31.2 29.45 31.25 31.2 31.0 31.3 31.05 31.35 31.05 31.6 31.0 32.2 30.9 32.6 30.95 Q33.1 30.9 33.15 31.15 L33.55 31.25 33.55 31.4 33.6 31.4 33.75 31.4 34.25 31.35 34.4 31.2 34.3 31.2 33.8 31.1 33.75 31.1 33.3 30.65 33.05 30.65 32.4 30.6 30.15 30.95 30.15 30.9 M33.15 31.15 L33.4 31.15 33.15 31.15" fill="#858276" fill-rule="evenodd" stroke="none"/>
    </g>
    <g id="shape2" transform="matrix(1.0, 0.0, 0.0, 1.0, 0.0, 0.0)">
      <path d="M50.5 0.0 Q53.95 0.0 53.95 3.3 L53.95 50.15 Q53.95 53.4 50.5 53.4 L3.3 53.4 Q0.0 53.4 0.0 50.15 L0.0 3.3 Q0.0 0.0 3.3 0.0 L50.5 0.0" fill="#000000" fill-opacity="0.003921569" fill-rule="evenodd" stroke="none"/>
    </g>
  </defs>
</svg>
