<?xml version="1.0" encoding="UTF-8" standalone="no"?>
<svg xmlns:ffdec="https://www.free-decompiler.com/flash" xmlns:xlink="http://www.w3.org/1999/xlink" ffdec:objectType="frame" height="54.85px" width="56.45px" xmlns="http://www.w3.org/2000/svg">
  <g transform="matrix(1.0, 0.0, 0.0, 1.0, 1.25, 1.45)">
    <clipPath id="clipPath0" transform="matrix(1.0, 0.0, 0.0, 1.0, 0.0, 0.0)">
      <path d="M50.5 0.0 Q53.95 0.0 53.95 3.3 L53.95 50.15 Q53.95 53.4 50.5 53.4 L3.3 53.4 Q0.0 53.4 0.0 50.15 L0.0 3.3 Q0.0 0.0 3.3 0.0 L50.5 0.0" fill="#000000" fill-rule="evenodd" stroke="none"/>
    </clipPath>
    <g clip-path="url(#clipPath0)">
      <use ffdec:characterId="487" height="54.75" transform="matrix(1.0, 0.0, 0.0, 1.0, -1.25, -1.45)" width="56.45" xlink:href="#shape1"/>
    </g>
    <use ffdec:characterId="488" height="53.4" transform="matrix(1.0, 0.0, 0.0, 1.0, 0.0, 0.0)" width="53.95" xlink:href="#shape2"/>
  </g>
  <defs>
    <g id="shape1" transform="matrix(1.0, 0.0, 0.0, 1.0, 1.25, 1.45)">
      <path d="M0.0 2.95 L0.0 -0.95 10.05 -0.95 Q9.05 2.95 9.1 6.8 3.45 7.95 0.0 10.55 L0.0 6.2 Q0.75 5.4 0.75 4.4 L0.75 4.35 0.75 4.15 0.7 4.1 0.0 2.95 M42.35 -0.95 L44.95 -0.95 45.45 -0.35 44.35 1.0 42.35 -0.95 M5.3 50.25 L7.1 47.95 Q8.85 47.1 10.35 45.5 L10.65 46.3 9.5 48.05 8.2 50.1 7.55 51.3 7.0 50.8 6.05 50.45 5.3 50.25" fill="#5a85d4" fill-rule="evenodd" stroke="none"/>
      <path d="M25.4 50.4 L25.15 51.7 24.1 51.45 Q23.4 51.45 22.65 52.05 L21.8 52.05 25.15 49.9 25.4 50.4 M19.6 52.05 L18.0 52.05 17.75 51.5 Q17.3 50.65 16.6 50.55 L16.3 50.3 15.45 50.2 13.95 50.45 13.3 50.95 12.55 51.55 12.35 52.05 8.45 52.05 8.0 51.65 7.55 51.3 8.2 50.1 9.5 48.05 10.65 46.3 Q11.4 48.0 13.55 49.65 L17.15 49.05 Q18.1 51.0 19.6 52.05" fill="#363b7b" fill-rule="evenodd" stroke="none"/>
      <path d="M4.55 46.6 Q2.1 44.6 0.0 42.4 L0.0 40.05 2.6 42.2 Q3.3 44.8 4.55 46.6" fill="#526aaa" fill-rule="evenodd" stroke="none"/>
      <path d="M0.75 4.35 L0.75 4.4 Q0.75 5.4 0.0 6.2 L0.0 5.35 0.7 4.35 0.75 4.35 M44.95 -0.95 L46.0 -0.95 45.45 -0.35 44.95 -0.95 M8.45 52.05 L4.65 52.05 4.8 51.8 Q5.35 50.9 6.05 50.45 L7.0 50.8 7.55 51.3 8.0 51.65 8.45 52.05" fill="#57a9e1" fill-rule="evenodd" stroke="none"/>
      <path d="M9.1 6.8 Q9.05 2.95 10.05 -0.95 L24.35 -0.95 25.1 -0.65 26.25 -0.4 26.8 -0.45 26.8 -0.95 42.35 -0.95 44.35 1.0 45.45 -0.35 46.0 -0.95 53.95 -0.95 53.95 19.65 53.95 40.6 52.6 41.05 52.05 40.25 51.3 39.5 Q51.75 37.1 51.85 32.5 L51.85 30.3 51.9 27.75 51.9 27.6 51.95 25.3 52.4 23.95 Q49.6 17.95 45.6 14.05 L42.0 20.65 Q34.95 16.75 27.85 14.85 L27.35 14.7 27.2 15.0 25.4 15.45 23.5 19.4 19.85 19.3 Q15.4 19.4 11.35 20.3 10.25 23.55 10.45 26.3 L6.7 26.3 Q6.6 16.85 8.6 7.9 L9.1 7.7 9.1 6.8 M46.2 12.9 L45.6 14.05 46.2 12.9 M53.95 19.65 L52.4 23.95 53.95 19.65 M9.15 8.7 L9.1 7.7 9.15 8.7" fill="#fefefe" fill-rule="evenodd" stroke="none"/>
      <path d="M24.35 -0.95 L26.8 -0.95 26.8 -0.45 26.25 -0.4 25.1 -0.65 24.35 -0.95 M53.95 40.6 L53.95 43.15 53.65 44.4 Q51.3 44.2 49.8 42.9 47.0 47.95 43.05 51.05 L42.15 48.25 Q40.1 50.4 37.85 52.05 L34.3 52.05 33.45 50.7 31.55 52.05 26.65 52.05 25.4 50.4 25.15 49.9 21.8 52.05 19.6 52.05 Q18.1 51.0 17.15 49.05 L13.55 49.65 Q11.4 48.0 10.65 46.3 L10.35 45.5 Q8.85 47.1 7.1 47.95 L5.6 48.45 4.55 46.6 Q3.3 44.8 2.6 42.2 1.75 39.1 1.95 35.95 L0.0 35.7 0.0 21.7 1.05 18.7 0.0 17.9 0.0 12.85 Q3.6 9.5 8.6 7.9 6.6 16.85 6.7 26.3 L10.45 26.3 Q10.25 23.55 11.35 20.3 15.4 19.4 19.85 19.3 L23.5 19.4 25.4 15.45 27.2 15.0 Q25.7 18.85 25.9 23.7 19.15 22.2 14.15 22.65 13.15 26.0 14.55 30.45 L14.65 30.75 7.35 30.75 13.1 39.6 12.25 43.15 14.5 45.15 15.7 45.95 Q19.9 48.5 25.7 48.85 30.2 49.05 35.65 47.9 41.2 46.55 45.55 43.25 47.75 41.6 49.65 39.45 L49.55 37.65 49.55 37.05 49.65 34.95 Q49.8 32.7 50.25 30.35 L50.3 29.95 51.25 27.25 51.95 25.3 51.9 27.6 51.9 27.75 51.85 30.3 51.85 32.5 Q51.75 37.1 51.3 39.5 L52.05 40.25 52.6 41.05 53.95 40.6 M41.75 47.0 L42.15 48.25 41.75 47.0" fill="#c0d9ed" fill-rule="evenodd" stroke="none"/>
      <path d="M16.2 52.05 L14.7 52.05 14.7 52.0 15.05 51.9 16.2 52.05 M27.2 15.0 L27.35 14.7 27.85 14.85 Q34.95 16.75 42.0 20.65 L45.6 14.05 Q49.6 17.95 52.4 23.95 L51.95 25.3 51.25 27.25 51.1 27.0 Q50.5 26.65 49.95 26.65 L49.05 26.8 Q48.55 26.95 48.2 27.25 L47.6 27.85 46.75 28.65 46.4 29.2 46.2 29.4 45.0 26.3 46.3 22.4 44.35 20.9 36.05 21.15 34.3 24.1 35.85 26.0 32.05 30.3 31.8 30.05 30.05 28.2 Q27.05 25.55 23.8 25.55 22.4 25.55 17.8 27.3 16.4 27.8 14.55 30.45 13.15 26.0 14.15 22.65 19.15 22.2 25.9 23.7 25.7 18.85 27.2 15.0 M34.0 33.05 L38.3 29.4 40.05 31.55 42.95 31.2 43.95 28.55 45.3 31.55 Q44.85 33.0 44.6 34.95 L44.3 38.15 44.3 38.3 44.3 38.35 Q44.6 39.1 45.0 39.45 L45.3 39.65 45.35 40.1 Q45.35 42.05 43.3 43.15 41.6 44.05 39.2 44.05 37.35 44.05 36.45 42.9 35.55 41.8 35.55 39.65 35.65 35.8 34.0 33.15 L34.0 33.05 M42.2 42.15 L42.25 42.15 43.55 41.95 43.65 41.6 44.1 40.45 44.1 40.4 Q44.1 39.4 43.25 38.8 42.5 38.25 41.45 38.25 L40.05 38.4 38.7 38.8 Q37.25 39.5 37.25 40.9 L37.45 41.75 Q37.7 42.2 38.3 42.5 39.15 43.0 40.15 43.0 L41.35 42.55 Q42.0 42.2 42.2 42.15 M14.5 45.15 Q29.7 50.8 45.55 43.25 41.2 46.55 35.65 47.9 30.2 49.05 25.7 48.85 19.9 48.5 15.7 45.95 L14.5 45.15" fill="#71c3d8" fill-rule="evenodd" stroke="none"/>
      <path d="M25.15 51.7 L25.5 51.9 25.7 52.05 22.65 52.05 Q23.4 51.45 24.1 51.45 L25.15 51.7 M18.0 52.05 L16.2 52.05 15.05 51.9 14.7 52.0 14.7 52.05 12.35 52.05 12.55 51.55 13.3 50.95 13.95 50.45 15.45 50.2 16.3 50.3 16.6 50.55 Q17.3 50.65 17.75 51.5 L18.0 52.05 M32.05 30.3 L30.95 31.55 30.9 31.55 30.65 31.2 Q28.95 29.25 26.4 28.2 L26.35 28.2 Q25.2 27.7 24.1 27.55 21.1 27.1 18.45 28.8 L18.4 28.85 Q17.3 29.5 16.3 30.55 L16.2 30.75 16.2 30.85 16.25 30.8 16.9 31.15 17.2 31.55 17.05 32.6 16.95 33.0 16.95 34.45 17.4 36.55 Q18.1 39.15 19.6 40.7 L20.35 41.35 20.65 41.55 19.6 42.85 Q20.25 43.95 21.35 44.05 L23.1 42.5 25.05 42.65 Q29.45 42.55 31.65 40.15 L32.4 39.1 32.6 39.1 33.35 39.0 33.8 38.85 34.45 38.4 34.6 38.25 34.65 38.2 34.6 38.0 34.4 37.8 33.4 36.7 32.65 34.45 32.55 34.3 34.0 33.05 34.0 33.15 Q35.65 35.8 35.55 39.65 35.55 41.8 36.45 42.9 37.35 44.05 39.2 44.05 41.6 44.05 43.3 43.15 45.35 42.05 45.35 40.1 L45.3 39.65 45.45 39.7 46.1 39.6 46.65 39.15 46.8 38.95 46.95 38.7 47.85 37.15 47.85 37.1 48.15 37.85 48.2 37.7 49.0 36.3 48.5 35.05 48.55 34.95 48.85 32.75 48.95 29.25 48.95 29.1 49.05 29.05 49.35 29.35 49.55 29.85 49.6 29.95 49.8 29.8 49.9 29.55 Q49.65 28.15 49.05 27.75 48.8 27.6 48.55 27.6 L48.5 27.6 47.8 27.75 47.7 27.8 47.6 27.85 48.2 27.25 Q48.55 26.95 49.05 26.8 L49.95 26.65 Q50.5 26.65 51.1 27.0 L51.25 27.25 50.3 29.95 50.25 30.35 Q49.8 32.7 49.65 34.95 L49.55 37.05 49.55 37.65 49.65 39.45 Q47.75 41.6 45.55 43.25 29.7 50.8 14.5 45.15 L12.25 43.15 13.1 39.6 7.35 30.75 14.65 30.75 14.55 30.45 Q16.4 27.8 17.8 27.3 22.4 25.55 23.8 25.55 27.05 25.55 30.05 28.2 L31.8 30.05 32.05 30.3 M14.05 31.2 L14.15 31.0 14.05 31.05 14.05 31.2 M19.8 44.1 L19.75 44.1 19.75 44.2 19.8 44.1" fill="#5485ad" fill-rule="evenodd" stroke="none"/>
      <path d="M48.2 37.7 L48.15 37.85 47.85 37.1 47.9 37.0 48.2 37.7" fill="#9ee5f7" fill-rule="evenodd" stroke="none"/>
      <path d="M0.0 2.95 L0.7 4.1 0.75 4.2 0.7 4.35 0.0 5.35 0.0 2.95 M1.35 52.05 L0.0 52.05 0.0 50.2 4.0 49.95 3.55 50.1 2.55 50.45 Q1.85 50.8 1.35 52.05 M0.0 40.05 L0.0 35.7 1.95 35.95 Q1.75 39.1 2.6 42.2 L0.0 40.05 M0.0 21.7 L0.0 17.9 1.05 18.7 0.0 21.7" fill="#383c7c" fill-rule="evenodd" stroke="none"/>
      <path d="M0.0 10.55 Q3.45 7.95 9.1 6.8 L9.1 7.7 8.6 7.9 Q3.6 9.5 0.0 12.85 L0.0 10.55" fill="#4961a9" fill-rule="evenodd" stroke="none"/>
      <path d="M32.05 30.3 L35.85 26.0 34.3 24.1 36.05 21.15 44.35 20.9 46.3 22.4 45.0 26.3 46.2 29.4 46.0 29.85 45.55 30.85 45.3 31.55 43.95 28.55 42.95 31.2 40.05 31.55 38.3 29.4 34.0 33.05 32.55 34.3 Q31.9 32.75 30.95 31.55 L32.05 30.3 M48.5 35.05 L49.0 36.3 48.2 37.7 47.9 37.0 47.95 36.95 48.05 36.7 48.05 36.65 48.5 35.1 48.5 35.05 M42.2 42.15 Q42.0 42.2 41.35 42.55 L40.15 43.0 Q39.15 43.0 38.3 42.5 37.7 42.2 37.45 41.75 L37.25 40.9 Q37.25 39.5 38.7 38.8 L40.05 38.4 41.45 38.25 Q42.5 38.25 43.25 38.8 44.1 39.4 44.1 40.4 L44.1 40.45 43.65 41.6 43.55 41.95 42.25 42.15 42.2 42.15 M23.1 42.5 L21.35 44.05 Q20.25 43.95 19.6 42.85 L20.65 41.55 Q21.55 42.1 22.6 42.35 L23.1 42.5" fill="#90fefb" fill-rule="evenodd" stroke="none"/>
      <path d="M30.95 31.55 Q31.9 32.75 32.55 34.3 L32.65 34.45 33.4 36.7 34.4 37.8 34.6 38.0 34.65 38.2 34.6 38.25 34.45 38.4 33.8 38.85 33.35 39.0 32.6 39.1 32.4 39.1 31.65 40.15 Q29.45 42.55 25.05 42.65 L23.1 42.5 22.6 42.35 Q21.55 42.1 20.65 41.55 L20.35 41.35 19.6 40.7 Q18.1 39.15 17.4 36.55 L16.95 34.45 16.95 33.0 17.05 32.6 17.2 31.55 16.9 31.15 16.25 30.8 16.2 30.85 16.2 30.75 16.3 30.55 Q17.3 29.5 18.4 28.85 L18.45 28.8 Q21.1 27.1 24.1 27.55 25.2 27.7 26.35 28.2 L26.4 28.2 Q28.95 29.25 30.65 31.2 L30.9 31.55 30.95 31.55 M45.3 31.55 L45.55 30.85 46.0 29.85 46.2 29.4 46.4 29.2 46.75 28.7 47.6 27.9 47.7 27.8 47.75 27.8 47.8 27.75 48.5 27.6 48.55 27.6 Q48.8 27.6 49.05 27.75 49.65 28.15 49.9 29.55 L49.8 29.8 49.6 29.95 49.55 29.85 49.35 29.35 49.05 29.05 48.95 29.1 48.95 29.25 48.85 32.75 48.55 34.95 48.5 35.05 48.5 35.1 48.05 36.65 48.05 36.7 47.95 36.95 47.9 37.0 47.85 37.1 47.85 37.15 46.95 38.7 46.8 38.95 46.65 39.15 46.1 39.6 45.45 39.7 45.3 39.65 45.0 39.45 Q44.6 39.1 44.3 38.35 L44.3 38.3 44.3 38.15 44.6 34.95 Q44.85 33.0 45.3 31.55 M46.55 30.15 L46.05 31.25 45.95 31.65 45.75 32.5 45.3 34.95 45.0 38.1 45.45 38.9 45.8 38.95 46.5 38.2 47.4 36.45 47.45 36.25 47.85 34.95 48.1 34.05 Q48.55 32.2 48.45 30.75 48.35 28.35 46.9 29.7 L46.55 30.15 M31.15 39.65 Q31.95 38.8 32.4 37.55 L31.75 35.0 31.6 34.45 30.3 32.15 30.0 31.75 Q28.5 29.85 26.15 28.8 L26.15 28.85 Q22.2 27.3 18.9 29.35 17.6 31.7 17.95 34.45 L18.25 35.9 18.35 36.45 18.85 37.95 20.2 40.0 20.85 40.55 21.35 40.9 21.65 41.05 21.75 41.1 21.85 41.15 23.9 41.8 25.8 41.95 Q29.3 41.85 31.15 39.65" fill="#1d2049" fill-rule="evenodd" stroke="none"/>
      <path d="M47.25 30.55 L46.8 30.9 46.45 31.55 46.15 32.65 Q46.1 33.1 46.45 33.1 L47.15 32.4 47.25 32.05 47.4 31.45 47.25 30.55 M46.55 30.15 L46.9 29.7 Q48.35 28.35 48.45 30.75 48.55 32.2 48.1 34.05 L47.85 34.95 47.45 36.25 47.4 36.45 46.5 38.2 45.8 38.95 45.45 38.9 45.0 38.1 45.3 34.95 45.75 32.5 45.95 31.65 46.05 31.25 46.55 30.15 M46.6 34.95 L46.25 35.5 Q45.85 36.25 45.85 37.1 L45.85 37.55 46.2 37.85 46.45 37.8 Q46.9 37.55 47.25 36.45 L47.4 36.15 47.65 34.95 Q47.65 33.75 46.75 34.75 L46.75 34.8 46.6 34.95 M19.95 32.85 Q20.55 33.55 21.6 33.55 L21.9 33.5 22.45 33.35 Q23.8 32.8 23.8 31.35 23.8 29.05 21.5 29.05 20.55 29.05 19.95 29.7 19.5 30.3 19.5 31.15 19.5 32.2 19.95 32.85 M18.85 37.95 L18.35 36.45 18.25 35.9 17.95 34.45 Q17.6 31.7 18.9 29.35 22.2 27.3 26.15 28.85 L26.15 28.8 Q28.5 29.85 30.0 31.75 L30.3 32.15 31.6 34.45 31.75 35.0 32.4 37.55 Q31.95 38.8 31.15 39.65 L29.9 38.15 29.25 37.15 28.3 35.55 Q28.3 37.35 26.7 38.3 25.5 39.0 23.9 39.1 L24.0 38.4 23.95 38.15 24.0 38.05 23.55 36.1 Q23.0 34.8 22.15 34.55 L21.85 34.55 21.45 34.45 21.0 34.45 20.6 34.45 Q19.9 34.6 19.4 35.25 18.95 35.95 18.85 36.9 L18.85 37.25 18.85 37.95 M30.85 35.75 L30.85 35.55 30.55 34.45 29.5 32.95 29.3 32.75 29.15 32.6 Q27.55 31.0 25.8 30.3 25.65 30.3 25.65 30.45 L25.6 30.7 25.8 30.7 26.6 31.5 27.4 32.3 27.5 32.4 28.35 33.3 28.6 33.6 28.7 33.75 29.05 34.2 29.25 34.45 29.5 34.85 29.75 35.45 Q30.0 35.95 30.45 35.95 L30.7 35.9 30.8 35.8 30.85 35.75" fill="#2f4f8a" fill-rule="evenodd" stroke="none"/>
      <path d="M47.25 30.55 L47.4 31.45 47.25 32.05 47.15 32.4 46.45 33.1 Q46.1 33.1 46.15 32.65 L46.45 31.55 46.8 30.9 47.25 30.55 M19.95 32.85 Q19.5 32.2 19.5 31.15 19.5 30.3 19.95 29.7 20.55 29.05 21.5 29.05 23.8 29.05 23.8 31.35 23.8 32.8 22.45 33.35 L21.9 33.5 21.6 33.55 Q20.55 33.55 19.95 32.85" fill="#f3fae8" fill-rule="evenodd" stroke="none"/>
      <path d="M46.6 34.95 L46.75 34.8 46.75 34.75 Q47.65 33.75 47.65 34.95 L47.4 36.15 47.25 36.45 Q46.9 37.55 46.45 37.8 L46.2 37.85 45.85 37.55 45.85 37.1 Q45.85 36.25 46.25 35.5 L46.6 34.95 M21.85 41.15 L21.75 41.1 21.7 41.05 21.65 41.05 21.35 40.9 20.85 40.55 20.2 40.0 18.85 37.95 18.85 37.25 18.85 36.9 Q18.95 35.95 19.4 35.25 19.9 34.6 20.6 34.45 L21.0 34.45 21.45 34.45 21.85 34.55 22.15 34.55 Q23.0 34.8 23.55 36.1 L24.0 38.05 23.95 38.15 24.0 38.4 23.9 39.1 23.7 39.8 Q23.25 41.15 22.25 41.15 L22.15 41.15 21.95 41.15 21.85 41.15 M30.85 35.75 L30.8 35.8 30.7 35.9 30.45 35.95 Q30.0 35.95 29.75 35.45 L29.5 34.85 29.25 34.45 29.05 34.2 28.7 33.75 28.6 33.6 28.35 33.3 27.5 32.4 27.4 32.3 26.6 31.5 25.8 30.7 25.6 30.7 25.65 30.45 Q25.65 30.3 25.8 30.3 27.55 31.0 29.15 32.6 L29.3 32.75 29.5 32.95 30.55 34.45 30.85 35.55 30.85 35.75" fill="#50b0fd" fill-rule="evenodd" stroke="none"/>
      <path d="M31.15 39.65 Q29.3 41.85 25.8 41.95 L23.9 41.8 21.85 41.15 21.95 41.15 22.15 41.15 22.25 41.15 Q23.25 41.15 23.7 39.8 L23.9 39.1 Q25.5 39.0 26.7 38.3 28.3 37.35 28.3 35.55 L29.25 37.15 29.9 38.15 31.15 39.65" fill="#3070b0" fill-rule="evenodd" stroke="none"/>
      <path d="M4.65 52.05 L1.35 52.05 Q1.85 50.8 2.55 50.45 L3.55 50.1 4.0 49.95 5.3 50.25 6.05 50.45 Q5.35 50.9 4.8 51.8 L4.65 52.05" fill="#5a84d6" fill-rule="evenodd" stroke="none"/>
      <path d="M53.95 43.15 L53.65 44.4 Q51.3 44.2 49.8 42.9 47.0 47.95 43.05 51.05 L42.15 48.25 Q40.1 50.4 37.85 52.05 M34.3 52.05 L33.45 50.7 31.55 52.05 M26.65 52.05 L25.4 50.4 25.15 51.7 M0.0 50.2 L4.0 49.95 5.3 50.25 7.1 47.95 5.6 48.45 4.55 46.6 Q2.1 44.6 0.0 42.4 M7.1 47.95 Q8.85 47.1 10.35 45.5 L10.65 46.3 Q11.4 48.0 13.55 49.65 L17.15 49.05 Q18.1 51.0 19.6 52.05 M7.55 51.3 L8.0 51.65 M21.8 52.05 L25.15 49.9 25.4 50.4 M12.35 52.05 L12.55 51.55 M5.3 50.25 L6.05 50.45 7.0 50.8 7.55 51.3" fill="none" stroke="#1d2049" stroke-linecap="round" stroke-linejoin="round" stroke-width="2.5"/>
      <path d="M9.1 6.8 Q9.05 2.95 10.05 -0.95 M45.45 -0.35 L46.0 -0.95 M45.6 14.05 L46.2 12.9 M27.2 15.0 L27.35 14.7 27.85 14.85 Q34.95 16.75 42.0 20.65 L45.6 14.05 Q49.6 17.95 52.4 23.95 L53.95 19.65 M51.25 27.25 L51.95 25.3 52.4 23.95 M45.55 43.25 Q47.75 41.6 49.65 39.45 L49.55 37.65 49.55 37.05 49.65 34.95 Q49.8 32.7 50.25 30.35 L50.3 29.95 51.25 27.25 M42.15 48.25 L41.75 47.0 M27.2 15.0 Q25.7 18.85 25.9 23.7 19.15 22.2 14.15 22.65 13.15 26.0 14.55 30.45 L14.65 30.75 7.35 30.75 13.1 39.6 12.25 43.15 14.5 45.15 15.7 45.95 Q19.9 48.5 25.7 48.85 30.2 49.05 35.65 47.9 41.2 46.55 45.55 43.25 M9.1 7.7 L9.15 8.7 M9.1 7.7 L8.6 7.9 Q3.6 9.5 0.0 12.85 M9.1 6.8 L9.1 7.7 M0.0 21.7 L1.05 18.7 0.0 17.9 M2.6 42.2 Q1.75 39.1 1.95 35.95 L0.0 35.7 M2.6 42.2 Q3.3 44.8 4.55 46.6 M45.45 -0.35 L44.35 1.0 42.35 -0.95" fill="none" stroke="#1d2049" stroke-linecap="round" stroke-linejoin="round" stroke-width="1.0"/>
    </g>
    <g id="shape2" transform="matrix(1.0, 0.0, 0.0, 1.0, 0.0, 0.0)">
      <path d="M50.5 0.0 Q53.95 0.0 53.95 3.3 L53.95 50.15 Q53.95 53.4 50.5 53.4 L3.3 53.4 Q0.0 53.4 0.0 50.15 L0.0 3.3 Q0.0 0.0 3.3 0.0 L50.5 0.0" fill="#000000" fill-opacity="0.003921569" fill-rule="evenodd" stroke="none"/>
    </g>
  </defs>
</svg>
