<?xml version="1.0" encoding="UTF-8" standalone="no"?>
<svg xmlns:ffdec="https://www.free-decompiler.com/flash" xmlns:xlink="http://www.w3.org/1999/xlink" ffdec:objectType="frame" height="54.35px" width="55.85px" xmlns="http://www.w3.org/2000/svg">
  <g transform="matrix(1.0, 0.0, 0.0, 1.0, 0.0, 0.95)">
    <clipPath id="clipPath0" transform="matrix(1.0, 0.0, 0.0, 1.0, 0.0, 0.0)">
      <path d="M50.5 0.0 Q53.95 0.0 53.95 3.3 L53.95 50.15 Q53.95 53.4 50.5 53.4 L3.3 53.4 Q0.0 53.4 0.0 50.15 L0.0 3.3 Q0.0 0.0 3.3 0.0 L50.5 0.0" fill="#000000" fill-rule="evenodd" stroke="none"/>
    </clipPath>
    <g clip-path="url(#clipPath0)">
      <use ffdec:characterId="2262" height="53.9" transform="matrix(1.0, 0.0, 0.0, 1.0, 0.0, -0.95)" width="55.85" xlink:href="#shape1"/>
    </g>
    <use ffdec:characterId="2263" height="53.4" transform="matrix(1.0, 0.0, 0.0, 1.0, 0.0, 0.0)" width="53.95" xlink:href="#shape2"/>
  </g>
  <defs>
    <g id="shape1" transform="matrix(1.0, 0.0, 0.0, 1.0, 0.0, 0.95)">
      <path d="M16.45 33.7 L14.3 32.7 13.15 32.25 14.2 32.4 15.75 32.7 16.3 32.75 20.15 33.45 20.2 33.45 21.2 33.7 22.2 33.9 24.5 35.5 25.1 35.95 26.1 36.7 26.4 36.95 26.4 37.05 26.45 37.55 26.55 38.1 26.2 37.75 26.1 37.7 Q25.65 37.8 24.95 38.2 24.35 38.5 24.0 38.75 L22.8 37.8 21.15 36.55 Q18.85 34.85 16.45 33.7" fill="#fffbff" fill-rule="evenodd" stroke="none"/>
      <path d="M55.85 1.1 L55.85 2.35 55.8 2.35 53.05 0.05 53.35 -0.35 54.25 0.15 54.7 0.35 55.85 1.1 M45.6 21.9 L46.65 22.75 46.7 22.75 46.8 22.85 47.1 23.05 46.45 24.5 45.85 25.4 45.8 25.3 45.05 24.6 45.0 24.6 45.15 24.2 45.55 23.1 45.65 22.4 45.6 21.9 M32.55 11.05 L32.45 11.05 29.0 10.7 27.9 10.7 27.7 9.75 27.55 9.3 28.95 9.25 31.35 9.5 32.95 10.05 32.95 10.2 32.85 11.2 32.55 11.05" fill="#b0ffff" fill-rule="evenodd" stroke="none"/>
      <path d="M0.0 25.2 L0.0 24.15 0.1 24.15 1.1 24.85 1.35 25.3 1.85 26.25 1.3 25.95 0.45 25.5 0.0 25.2" fill="#e0ffff" fill-rule="evenodd" stroke="none"/>
      <path d="M38.1 19.05 L38.15 19.9 38.15 20.1 Q38.05 21.55 37.15 22.7 L36.95 22.85 35.9 23.7 Q34.9 24.25 33.65 24.3 L32.9 24.35 32.75 24.35 30.05 23.85 29.25 23.5 29.1 23.4 29.05 23.4 Q27.5 22.4 27.15 20.5 L27.0 19.75 26.95 18.8 Q26.95 17.75 27.35 16.9 L27.45 16.7 Q27.9 15.8 28.65 15.1 L29.4 14.45 30.65 13.7 32.0 13.4 32.65 13.45 32.75 13.5 33.15 13.6 Q34.95 13.85 36.3 15.3 L37.0 16.15 37.3 16.6 37.65 17.35 38.1 19.05" fill="#fffeff" fill-rule="evenodd" stroke="none"/>
      <path d="M41.55 12.25 Q42.3 13.6 42.5 15.3 L42.55 16.8 42.55 17.2 Q42.5 18.85 41.65 20.55 L40.95 19.05 40.0 18.95 40.0 18.5 Q40.0 16.7 39.1 15.05 38.65 13.7 37.6 12.65 L40.3 10.45 Q41.1 11.25 41.55 12.25" fill="#7bfcff" fill-rule="evenodd" stroke="none"/>
      <path d="M9.35 33.0 L11.55 34.4 11.65 34.45 13.35 35.55 16.1 37.35 17.5 38.3 20.6 40.6 21.4 43.0 21.55 43.5 22.0 44.95 21.35 45.7 20.5 43.95 20.4 43.65 19.3 41.55 19.3 41.5 19.1 41.35 16.9 39.4 14.9 37.9 13.9 37.2 12.3 36.1 10.2 34.65 9.25 34.05 9.35 33.0" fill="#d0ffff" fill-rule="evenodd" stroke="none"/>
      <path d="M0.0 24.0 L0.0 22.75 0.05 22.75 0.2 22.8 0.9 23.65 1.3 24.95 1.1 24.85 0.1 24.15 0.0 24.0 M3.4 23.55 Q3.75 24.75 3.75 26.0 L3.75 26.3 3.1 26.0 2.9 25.85 2.4 24.05 2.8 23.85 3.4 23.55" fill="#aaf6ff" fill-rule="evenodd" stroke="none"/>
      <path d="M12.6 12.35 L12.9 11.65 14.55 11.5 14.75 11.5 15.1 11.5 15.2 12.0 15.35 12.6 13.95 12.6 13.45 13.25 13.2 13.75 12.35 13.1 12.4 13.05 12.6 12.35" fill="#d1ffff" fill-rule="evenodd" stroke="none"/>
      <path d="M23.6 30.25 L24.0 30.6 25.1 31.2 25.4 31.3 26.0 31.55 25.3 32.0 23.05 31.15 23.05 30.7 23.05 30.25 23.6 30.25" fill="#bfffff" fill-rule="evenodd" stroke="none"/>
      <path d="M32.6 52.95 L31.55 52.95 31.75 50.7 32.65 50.5 32.6 52.95 M32.55 11.05 L32.85 11.2 Q33.9 11.45 34.65 12.0 36.45 13.2 37.25 14.45 L37.75 15.25 37.0 16.15 36.3 15.3 Q34.95 13.85 33.15 13.6 L32.75 13.5 32.7 12.8 32.65 12.2 32.6 11.45 32.55 11.05 M27.5 10.75 Q27.65 12.2 28.3 14.05 L28.65 15.1 Q27.9 15.8 27.45 16.7 L27.35 16.9 Q26.95 17.75 26.95 18.8 L27.0 19.75 26.75 19.75 24.2 19.55 24.1 18.1 24.1 17.6 24.15 16.7 24.3 15.75 Q24.6 13.9 24.8 13.55 L25.3 12.35 25.45 12.3 25.75 12.7 26.35 12.95 26.55 12.9 26.8 12.85 27.15 12.6 27.45 12.05 Q27.45 11.55 27.0 11.15 L27.0 11.1 26.75 10.95 26.75 10.9 27.0 10.85 27.5 10.75 M21.4 27.6 L22.05 27.8 23.35 28.15 23.4 28.15 23.55 28.15 24.05 28.2 24.0 28.35 23.95 28.7 23.95 28.75 23.9 29.55 23.9 30.2 23.6 30.25 23.05 30.25 23.05 29.9 23.0 28.9 22.95 28.9 21.85 28.55 21.25 28.35 21.4 27.6 M31.15 36.6 L31.2 36.6 32.35 36.5 32.45 36.5 32.95 36.55 32.45 37.95 32.15 39.0 31.15 36.6" fill="#edffff" fill-rule="evenodd" stroke="none"/>
      <path d="M0.0 28.4 L0.0 27.35 1.15 28.05 1.1 28.55 1.15 29.05 0.0 28.4 M35.95 39.85 L36.1 39.7 37.95 37.85 38.35 38.45 38.35 38.5 36.6 40.5 36.35 40.85 36.1 41.1 35.65 40.35 35.55 40.15 35.9 39.9 35.95 39.85" fill="#caffff" fill-rule="evenodd" stroke="none"/>
      <path d="M41.05 6.15 L41.1 6.15 41.65 6.65 41.55 6.9 40.85 8.8 41.35 9.5 41.8 10.05 41.45 10.75 41.4 10.8 40.75 10.05 39.6 8.9 39.8 8.6 39.85 8.6 40.25 7.8 40.6 7.1 41.05 6.15 M15.1 11.5 L16.2 11.55 16.4 12.75 15.75 12.6 15.35 12.6 15.2 12.0 15.1 11.5 M6.05 32.0 L7.0 34.65 7.35 35.5 7.75 36.55 8.05 37.35 Q9.1 40.25 9.85 43.85 L9.3 44.9 8.15 39.85 7.2 36.8 6.9 36.05 6.2 34.15 5.15 31.45 5.7 31.8 6.0 31.95 6.05 32.0" fill="#b8ffff" fill-rule="evenodd" stroke="none"/>
      <path d="M51.5 -0.95 L52.35 -0.95 52.8 -0.65 53.35 -0.35 53.05 0.05 Q52.6 -0.2 52.3 -0.4 L51.8 -0.75 51.5 -0.95 M51.65 11.1 L51.75 11.4 52.35 12.6 52.55 12.95 52.6 13.0 53.3 14.95 53.55 16.05 53.6 16.15 53.65 16.35 53.8 16.85 54.05 17.55 54.25 18.6 53.8 18.5 53.6 18.45 53.55 18.45 53.35 17.4 53.0 16.2 52.55 14.55 52.1 13.2 51.85 12.8 51.85 12.6 51.25 11.45 51.15 11.25 51.65 11.1" fill="#deffff" fill-rule="evenodd" stroke="none"/>
      <path d="M49.9 5.1 L50.35 5.7 50.9 6.45 51.85 8.05 51.85 8.2 52.8 9.75 53.6 11.25 53.8 11.6 53.75 11.95 53.7 12.1 53.65 12.4 53.6 13.05 53.4 12.55 53.25 12.2 52.75 11.25 51.45 8.95 50.15 6.85 49.6 6.1 49.9 5.1" fill="#eaffff" fill-rule="evenodd" stroke="none"/>
      <path d="M55.5 -0.95 L55.85 -0.95 55.85 -0.65 55.5 -0.95" fill="#beffff" fill-rule="evenodd" stroke="none"/>
      <path d="M53.55 18.45 L53.6 18.45 53.8 18.5 54.25 18.6 54.95 21.15 54.95 21.25 55.0 21.3 54.95 21.45 54.35 23.1 Q54.05 24.4 54.05 25.1 L54.05 25.7 53.95 25.8 53.7 26.05 53.7 25.9 53.55 24.75 Q53.55 23.25 53.8 22.2 L53.8 22.15 54.1 21.3 53.65 19.05 53.65 19.0 53.55 18.65 53.55 18.45 M3.85 5.6 L3.9 5.55 5.35 5.95 4.95 6.4 4.7 6.8 3.25 9.05 2.55 10.3 2.4 10.7 0.8 10.7 0.95 10.3 Q1.3 9.5 1.8 8.8 2.5 7.5 3.5 6.15 L3.85 5.6" fill="#dcffff" fill-rule="evenodd" stroke="none"/>
      <path d="M49.15 32.9 L49.2 33.3 48.55 33.7 Q47.65 34.4 46.7 35.35 45.25 36.65 43.85 38.5 L42.55 40.15 41.95 41.1 41.6 40.65 42.85 38.75 43.95 37.05 44.15 37.0 45.0 36.3 46.6 35.0 48.05 33.85 Q48.65 33.3 49.15 32.9" fill="#ceffff" fill-rule="evenodd" stroke="none"/>
      <path d="M24.5 26.05 L24.7 25.75 25.75 23.35 26.55 24.2 28.4 25.25 28.65 25.3 28.5 25.45 Q28.2 25.8 28.2 26.25 L28.6 26.9 29.25 27.15 29.95 26.9 30.1 26.7 30.3 26.1 30.15 25.7 31.1 25.7 33.25 25.5 33.6 26.25 33.55 26.25 33.3 26.35 Q31.2 27.3 28.7 27.3 26.25 27.3 24.5 26.05" fill="#79ffff" fill-rule="evenodd" stroke="none"/>
      <path d="M38.0 4.5 L37.7 4.75 37.3 5.05 36.1 6.35 36.05 6.5 35.35 6.3 34.6 6.1 34.6 5.65 34.65 5.35 34.75 5.0 35.45 5.15 35.5 5.15 36.1 5.2 Q36.55 4.8 37.25 4.35 L37.25 4.3 37.75 3.85 37.75 3.9 37.85 4.1 38.0 4.5 M45.6 15.2 L45.65 15.25 46.1 15.9 46.0 15.95 46.0 16.0 45.95 16.05 Q45.8 16.05 45.7 16.15 L45.6 17.15 45.6 17.7 45.6 18.05 44.9 17.9 44.85 17.9 44.7 17.15 44.65 16.85 44.45 15.7 44.8 15.55 44.85 15.55 Q45.15 15.4 45.6 15.2 M20.7 8.6 L20.8 8.8 Q20.4 8.95 20.1 9.2 L19.35 9.75 18.7 9.1 19.5 8.0 19.35 7.8 19.25 7.6 18.85 6.95 19.55 6.45 20.05 7.35 20.1 7.6 20.7 8.6" fill="#ddffff" fill-rule="evenodd" stroke="none"/>
      <path d="M0.0 18.4 L0.0 16.95 0.1 16.6 0.15 16.45 0.2 16.1 0.45 15.3 0.6 14.85 Q1.15 13.1 2.0 11.5 L2.4 10.7 2.55 10.3 4.8 10.25 4.9 10.25 4.35 11.35 3.15 13.85 3.05 14.25 2.6 15.25 2.1 16.75 2.05 16.9 0.65 17.9 0.55 18.0 0.0 18.4" fill="#2fe2ff" fill-rule="evenodd" stroke="none"/>
      <path d="M17.5 -0.95 L36.5 -0.95 Q34.3 0.95 32.25 1.85 L31.95 1.9 31.6 2.1 31.2 2.1 27.6 1.85 25.35 1.45 24.3 1.2 22.7 0.85 18.9 -0.35 17.5 -0.95 M55.85 25.7 L55.85 44.2 55.2 43.2 55.15 43.1 52.6 38.95 52.45 38.55 51.85 37.6 48.75 40.8 48.85 40.0 50.15 34.5 50.3 33.9 50.4 33.25 50.65 32.25 52.7 31.05 53.9 28.8 54.55 27.45 55.5 25.75 55.85 25.7 M10.4 52.95 L0.0 52.95 0.0 28.4 1.15 29.05 5.15 31.45 6.2 34.15 6.9 36.05 7.2 36.8 8.15 39.85 9.3 44.9 9.95 48.8 10.1 50.2 10.3 52.05 10.4 52.95" fill="#028ef0" fill-rule="evenodd" stroke="none"/>
      <path d="M55.85 25.35 L55.85 25.7 55.5 25.75 55.55 25.65 55.85 25.35" fill="#0994ff" fill-rule="evenodd" stroke="none"/>
      <path d="M55.85 44.2 L55.85 52.95 46.2 52.95 46.35 52.15 46.35 51.9 46.55 51.15 47.9 44.3 48.25 42.75 48.75 40.8 51.85 37.6 52.45 38.55 52.6 38.95 55.15 43.1 55.2 43.2 55.85 44.2" fill="#078eff" fill-rule="evenodd" stroke="none"/>
      <path d="M13.9 37.2 L14.9 37.9 16.9 39.4 19.1 41.35 19.3 41.5 19.3 41.55 20.4 43.65 19.15 44.3 18.6 43.4 Q16.6 40.65 14.45 39.05 L13.95 37.35 13.9 37.2" fill="#046ae6" fill-rule="evenodd" stroke="none"/>
      <path d="M1.3 24.95 L2.4 25.6 2.9 25.85 3.1 26.0 3.55 27.25 2.95 26.85 1.85 26.25 1.35 25.3 1.1 24.85 1.3 24.95" fill="#fffdff" fill-rule="evenodd" stroke="none"/>
      <path d="M43.3 25.5 L43.05 26.75 43.05 26.8 42.5 26.15 42.45 26.1 42.35 26.15 41.55 26.55 40.4 27.3 40.75 28.05 39.85 28.2 39.75 28.05 39.4 27.05 40.2 26.35 40.3 26.25 40.35 26.25 40.4 26.2 40.5 26.1 40.6 26.0 40.85 25.8 41.15 25.6 Q41.55 25.3 41.9 25.1 L42.3 24.85 42.3 24.9 43.3 25.5 M9.9 28.9 L10.25 29.1 10.95 30.65 10.55 30.45 9.7 30.1 9.5 29.75 9.05 28.6 9.9 28.9 M12.65 37.0 L12.3 36.1 13.9 37.2 13.95 37.35 14.45 39.05 15.25 42.0 15.75 43.85 14.8 44.95 13.8 40.85 12.95 38.0 12.65 37.0" fill="#c9ffff" fill-rule="evenodd" stroke="none"/>
      <path d="M12.65 37.0 L12.4 36.95 Q9.8 36.2 7.2 34.8 L7.0 34.65 6.05 32.0 9.25 34.05 10.2 34.65 12.3 36.1 12.65 37.0" fill="#0188fd" fill-rule="evenodd" stroke="none"/>
      <path d="M7.0 34.65 L7.2 34.8 Q9.8 36.2 12.4 36.95 L12.65 37.0 12.95 38.0 13.8 40.85 8.95 37.25 7.75 36.55 7.35 35.5 7.0 34.65" fill="#0d95ff" fill-rule="evenodd" stroke="none"/>
      <path d="M7.75 36.55 L8.95 37.25 13.8 40.85 14.8 44.95 15.05 46.1 14.4 46.9 11.0 51.2 10.65 48.6 9.85 43.85 Q9.1 40.25 8.05 37.35 L7.75 36.55" fill="#12a6ff" fill-rule="evenodd" stroke="none"/>
      <path d="M14.45 39.05 Q16.6 40.65 18.6 43.4 L19.15 44.3 Q20.6 46.55 21.65 49.25 L22.35 51.3 18.9 51.9 16.95 52.35 16.9 51.65 16.85 51.25 16.65 49.4 16.1 46.0 15.9 44.95 15.75 43.85 15.25 42.0 14.45 39.05" fill="#0785ff" fill-rule="evenodd" stroke="none"/>
      <path d="M11.2 52.95 L10.4 52.95 10.3 52.05 10.1 50.2 9.95 48.8 9.3 44.9 9.85 43.85 10.65 48.6 11.0 51.2 11.2 52.95" fill="#86fdff" fill-rule="evenodd" stroke="none"/>
      <path d="M17.0 52.95 L16.0 52.95 15.95 52.65 15.9 51.65 15.85 51.25 15.15 46.55 15.05 46.1 14.8 44.95 15.75 43.85 15.9 44.95 16.1 46.0 16.65 49.4 16.85 51.25 16.9 51.65 16.95 52.35 17.0 52.95" fill="#85f6ff" fill-rule="evenodd" stroke="none"/>
      <path d="M16.0 52.95 L11.2 52.95 11.0 51.2 14.4 46.9 15.05 46.1 15.15 46.55 15.85 51.25 15.9 51.65 15.95 52.65 16.0 52.95" fill="#0ca6fe" fill-rule="evenodd" stroke="none"/>
      <path d="M38.35 52.95 L35.65 52.95 35.85 52.5 36.85 50.15 37.5 48.8 37.55 48.65 37.75 48.15 38.9 46.0 40.15 43.75 41.55 41.55 41.95 41.1 42.55 40.15 41.75 45.35 41.6 46.05 40.35 48.75 40.15 49.0 39.6 50.35 38.75 52.1 38.35 52.95 M24.05 52.95 L22.8 52.95 22.5 51.95 22.35 51.3 21.65 49.25 Q20.6 46.55 19.15 44.3 L20.4 43.65 20.5 43.95 21.35 45.7 22.0 47.35 22.9 49.55 23.7 51.9 24.05 52.95" fill="#0069ff" fill-rule="evenodd" stroke="none"/>
      <path d="M13.15 -0.95 L15.05 -0.95 12.15 2.05 11.3 1.5 11.0 1.35 12.0 0.3 13.15 -0.95 M38.8 3.05 L39.5 2.55 39.55 2.6 40.3 3.05 40.6 3.35 40.3 3.8 40.15 4.1 39.3 3.75 39.25 3.75 39.1 3.8 38.7 4.0 38.0 4.5 37.85 4.1 37.75 3.9 37.75 3.85 38.0 3.65 38.75 3.05 38.8 3.05 M44.45 11.65 L44.65 11.55 45.7 11.05 45.75 11.05 46.25 10.85 46.25 10.9 47.1 13.35 47.2 13.6 47.1 13.65 46.75 13.65 46.6 13.7 46.5 13.7 46.45 13.7 46.45 13.65 46.25 13.2 46.2 13.1 45.35 12.1 45.3 12.05 44.5 12.35 44.45 11.65 M49.95 32.75 L50.25 32.55 50.65 32.25 50.4 33.25 50.3 33.9 49.95 33.75 49.7 33.65 49.8 33.2 49.95 32.75 M42.55 40.15 L43.85 38.5 42.9 43.55 42.9 43.65 42.55 46.15 42.45 46.85 42.2 48.25 41.2 49.25 41.35 47.8 41.6 46.05 41.75 45.35 42.55 40.15" fill="#d4ffff" fill-rule="evenodd" stroke="none"/>
      <path d="M49.2 33.3 L49.95 32.75 49.8 33.2 49.7 33.65 49.35 35.3 46.85 38.2 44.45 41.45 44.2 41.75 43.1 43.3 42.9 43.55 43.85 38.5 Q45.25 36.65 46.7 35.35 47.65 34.4 48.55 33.7 L49.2 33.3" fill="#0081ff" fill-rule="evenodd" stroke="none"/>
      <path d="M49.7 33.65 L49.95 33.75 50.3 33.9 50.15 34.5 48.85 40.0 48.75 40.8 48.25 42.75 47.9 44.3 47.35 44.5 47.7 42.4 47.9 41.55 48.1 40.55 49.35 35.3 49.7 33.65" fill="#bff9ff" fill-rule="evenodd" stroke="none"/>
      <path d="M49.35 35.3 L48.1 40.55 47.9 41.55 47.7 42.4 47.35 44.5 45.95 51.05 45.8 52.05 43.2 52.65 41.55 52.8 41.65 52.1 41.8 51.25 41.85 50.55 42.2 48.25 42.45 46.85 42.55 46.15 42.9 43.65 42.9 43.55 43.1 43.3 44.2 41.75 44.45 41.45 46.85 38.2 49.35 35.3" fill="#06a6fc" fill-rule="evenodd" stroke="none"/>
      <path d="M40.7 52.95 L38.35 52.95 38.75 52.1 39.6 50.35 40.15 49.0 40.35 48.75 41.6 46.05 41.35 47.8 41.2 49.25 41.05 50.5 40.9 51.15 40.8 52.45 40.7 52.8 40.7 52.95" fill="#0c8ff9" fill-rule="evenodd" stroke="none"/>
      <path d="M46.2 52.95 L45.65 52.95 45.8 52.05 45.95 51.05 47.35 44.5 47.9 44.3 46.55 51.15 46.35 51.9 46.35 52.15 46.2 52.95" fill="#7ceeff" fill-rule="evenodd" stroke="none"/>
      <path d="M22.8 52.95 L17.0 52.95 16.95 52.35 18.9 51.9 22.35 51.3 22.5 51.95 22.8 52.95" fill="#0f8cff" fill-rule="evenodd" stroke="none"/>
      <path d="M45.65 52.95 L41.55 52.95 41.55 52.8 43.2 52.65 45.8 52.05 45.65 52.95" fill="#06adfc" fill-rule="evenodd" stroke="none"/>
      <path d="M41.55 52.95 L40.7 52.95 40.7 52.8 40.8 52.45 40.9 51.15 41.05 50.5 41.2 49.25 42.2 48.25 41.85 50.55 41.8 51.25 41.65 52.1 41.55 52.8 41.55 52.95" fill="#90feff" fill-rule="evenodd" stroke="none"/>
      <path d="M41.8 10.05 L41.8 10.1 43.3 12.0 43.45 12.2 43.5 12.2 43.85 11.95 44.45 11.65 44.5 12.35 44.4 12.4 43.1 13.1 43.0 13.2 42.85 12.9 42.4 12.15 42.0 11.45 41.4 10.8 41.45 10.75 41.8 10.05" fill="#b7ffff" fill-rule="evenodd" stroke="none"/>
      <path d="M25.65 52.95 L25.05 52.95 25.45 52.6 25.65 52.95" fill="#eeffff" fill-rule="evenodd" stroke="none"/>
      <path d="M19.35 9.75 L18.35 10.95 18.3 11.0 17.6 12.2 17.55 12.35 Q17.4 12.6 17.4 12.9 L16.6 12.75 16.4 12.75 16.2 11.55 16.65 11.6 17.15 11.6 17.3 11.6 17.35 11.6 17.5 11.25 18.65 9.15 18.7 9.1 19.35 9.75" fill="#bbffff" fill-rule="evenodd" stroke="none"/>
      <path d="M26.55 38.1 L28.3 39.9 28.55 40.15 29.45 41.25 30.2 42.1 30.45 42.35 31.15 42.3 31.4 42.25 32.2 42.2 32.25 42.2 32.15 43.95 32.1 45.45 30.65 43.95 29.9 43.15 27.8 40.3 27.35 39.6 26.2 37.75 26.55 38.1" fill="#1296f8" fill-rule="evenodd" stroke="none"/>
      <path d="M9.7 30.1 L10.55 30.45 10.95 30.65 13.95 31.95 15.75 32.7 14.2 32.4 13.15 32.25 14.3 32.7 16.45 33.7 14.85 33.9 12.85 34.15 11.65 34.4 11.55 34.4 9.35 33.0 7.6 31.95 6.45 31.2 7.85 29.35 8.15 29.45 9.7 30.1" fill="#08a9fa" fill-rule="evenodd" stroke="none"/>
      <path d="M0.0 27.35 L0.0 25.2 0.45 25.5 1.3 25.95 1.85 26.25 2.95 26.85 3.55 27.25 3.7 27.25 4.15 27.5 5.5 28.2 7.85 29.35 6.45 31.2 5.4 30.55 4.65 30.15 4.65 30.1 1.15 28.05 0.0 27.35" fill="#15a6ff" fill-rule="evenodd" stroke="none"/>
      <path d="M6.45 31.2 L7.6 31.95 9.35 33.0 9.25 34.05 6.05 32.0 6.0 31.95 5.7 31.8 5.15 31.45 1.15 29.05 1.1 28.55 1.15 28.05 4.65 30.1 4.65 30.15 5.4 30.55 6.45 31.2" fill="#98f4ff" fill-rule="evenodd" stroke="none"/>
      <path d="M11.55 34.4 L11.65 34.4 12.85 34.15 14.85 33.9 16.35 34.8 18.4 36.15 16.1 37.35 13.35 35.55 11.65 34.45 11.55 34.4" fill="#22b6fe" fill-rule="evenodd" stroke="none"/>
      <path d="M14.85 33.9 L16.45 33.7 Q18.85 34.85 21.15 36.55 L21.1 38.35 19.35 36.9 18.4 36.15 16.35 34.8 14.85 33.9" fill="#18b9ff" fill-rule="evenodd" stroke="none"/>
      <path d="M39.7 38.45 L38.4 40.15 35.9 44.1 32.9 44.0 33.15 42.1 33.9 42.05 34.25 42.0 34.4 42.0 35.35 42.1 35.9 41.45 36.1 41.1 36.35 40.85 36.6 40.5 38.35 38.5 38.35 38.45 38.4 38.45 39.1 38.4 39.7 38.45" fill="#0ea2fa" fill-rule="evenodd" stroke="none"/>
      <path d="M50.2 32.0 L50.05 32.1 49.15 32.9 Q48.65 33.3 48.05 33.85 L46.6 35.0 46.45 34.15 46.15 33.25 49.5 30.5 49.7 30.35 49.95 30.3 50.2 31.65 50.2 32.0" fill="#0583f4" fill-rule="evenodd" stroke="none"/>
      <path d="M46.6 35.0 L45.0 36.3 44.15 37.0 43.95 37.05 42.85 38.75 41.6 40.65 41.15 41.4 39.65 40.75 38.4 40.15 39.7 38.45 40.85 38.6 41.1 38.65 41.55 38.0 43.9 35.4 44.0 35.25 Q44.95 34.3 46.15 33.25 L46.45 34.15 46.6 35.0" fill="#14b5ff" fill-rule="evenodd" stroke="none"/>
      <path d="M38.4 40.15 L39.65 40.75 41.15 41.4 38.5 45.95 38.35 45.9 35.35 45.0 35.9 44.1 38.4 40.15" fill="#1faafb" fill-rule="evenodd" stroke="none"/>
      <path d="M32.1 45.45 L32.15 43.95 32.25 42.2 33.15 42.1 32.9 44.0 32.75 46.15 32.7 47.25 32.65 48.65 32.65 50.5 31.75 50.7 31.95 48.5 32.0 47.35 32.1 45.45" fill="#e7ffff" fill-rule="evenodd" stroke="none"/>
      <path d="M32.9 44.0 L35.9 44.1 35.35 45.0 38.35 45.9 38.5 45.95 38.15 46.6 37.5 47.7 36.85 48.9 36.4 49.75 35.7 49.0 35.35 49.0 32.65 48.65 32.7 47.25 32.75 46.15 32.9 44.0" fill="#1cb4ff" fill-rule="evenodd" stroke="none"/>
      <path d="M41.15 41.4 L41.6 40.65 41.95 41.1 41.55 41.55 40.15 43.75 38.9 46.0 37.75 48.15 37.5 47.7 38.15 46.6 38.5 45.95 41.15 41.4" fill="#6ddcff" fill-rule="evenodd" stroke="none"/>
      <path d="M37.75 48.15 L37.55 48.65 37.5 48.8 36.85 50.15 35.85 52.5 35.45 52.3 35.1 52.1 36.4 49.75 36.85 48.9 37.5 47.7 37.75 48.15" fill="#92efff" fill-rule="evenodd" stroke="none"/>
      <path d="M53.8 27.35 L52.6 29.85 52.4 30.25 52.2 30.25 50.9 31.4 50.2 32.0 50.2 31.65 49.95 30.3 50.65 29.75 51.1 29.5 53.8 27.35" fill="#1798f6" fill-rule="evenodd" stroke="none"/>
      <path d="M21.1 38.35 L21.15 36.55 22.8 37.8 24.0 38.75 Q24.35 38.5 24.95 38.2 25.65 37.8 26.1 37.7 L26.2 37.75 27.35 39.6 27.8 40.3 26.95 41.1 25.05 42.95 24.7 42.0 24.3 41.35 24.05 40.8 21.1 38.35" fill="#0db8fe" fill-rule="evenodd" stroke="none"/>
      <path d="M16.1 37.35 L18.4 36.15 19.35 36.9 21.1 38.35 24.05 40.8 24.3 41.35 24.7 42.0 21.55 43.5 21.4 43.0 20.6 40.6 17.5 38.3 16.1 37.35" fill="#1bc5ff" fill-rule="evenodd" stroke="none"/>
      <path d="M21.55 43.5 L24.7 42.0 25.05 42.95 26.4 46.15 27.0 47.55 25.95 47.45 24.35 50.55 23.7 49.25 23.55 48.85 22.0 44.95 21.55 43.5" fill="#1ec3ff" fill-rule="evenodd" stroke="none"/>
      <path d="M21.35 45.7 L22.0 44.95 23.55 48.85 23.7 49.25 23.2 49.45 22.9 49.55 22.0 47.35 21.35 45.7" fill="#bff3ff" fill-rule="evenodd" stroke="none"/>
      <path d="M27.8 40.3 L29.9 43.15 30.65 43.95 32.1 45.45 32.0 47.35 31.95 48.5 30.25 48.2 27.0 47.55 26.4 46.15 25.05 42.95 26.95 41.1 27.8 40.3" fill="#11a7fe" fill-rule="evenodd" stroke="none"/>
      <path d="M28.25 52.95 L25.65 52.95 25.45 52.6 24.35 50.55 25.95 47.45 27.0 47.55 28.45 51.75 28.4 52.05 28.25 52.95" fill="#30c6f8" fill-rule="evenodd" stroke="none"/>
      <path d="M31.55 52.95 L28.25 52.95 28.4 52.05 28.45 51.75 27.0 47.55 30.25 48.2 31.95 48.5 31.75 50.7 31.55 52.95" fill="#1dbef5" fill-rule="evenodd" stroke="none"/>
      <path d="M34.7 52.95 L32.6 52.95 32.65 50.5 32.65 48.65 35.35 49.0 35.7 49.0 36.4 49.75 35.1 52.1 34.7 52.95" fill="#17c0fb" fill-rule="evenodd" stroke="none"/>
      <path d="M25.05 52.95 L24.05 52.95 23.7 51.9 22.9 49.55 23.2 49.45 23.7 49.25 24.35 50.55 25.45 52.6 25.05 52.95" fill="#bcffff" fill-rule="evenodd" stroke="none"/>
      <path d="M35.65 52.95 L34.7 52.95 35.1 52.1 35.45 52.3 35.85 52.5 35.65 52.95" fill="#e3ffff" fill-rule="evenodd" stroke="none"/>
      <path d="M54.95 26.25 L55.45 25.8 55.55 25.65 55.5 25.75 54.55 27.45 54.2 26.95 54.25 26.9 54.95 26.25" fill="#abf0ff" fill-rule="evenodd" stroke="none"/>
      <path d="M53.8 27.35 L54.0 27.25 54.2 26.95 54.55 27.45 53.9 28.8 52.7 31.05 50.65 32.25 50.25 32.55 49.95 32.75 49.2 33.3 49.15 32.9 50.05 32.1 50.2 32.0 50.9 31.4 52.2 30.25 52.4 30.25 52.6 29.85 53.8 27.35" fill="#caeeff" fill-rule="evenodd" stroke="none"/>
      <path d="M43.6 -0.95 L46.1 -0.95 46.25 -0.8 46.75 -0.4 48.1 0.95 47.7 1.35 47.25 1.9 46.95 1.7 45.45 0.4 44.15 -0.55 43.6 -0.95" fill="#1ec8ff" fill-rule="evenodd" stroke="none"/>
      <path d="M39.75 -0.95 L41.65 -0.95 42.5 -0.55 41.8 0.2 39.75 -0.95" fill="#10dfff" fill-rule="evenodd" stroke="none"/>
      <path d="M41.65 -0.95 L43.6 -0.95 44.15 -0.55 44.1 0.45 42.95 -0.25 42.5 -0.55 41.65 -0.95" fill="#8cfaff" fill-rule="evenodd" stroke="none"/>
      <path d="M40.75 28.05 L40.85 28.15 41.2 28.8 41.4 29.3 41.55 29.5 40.7 30.1 40.05 30.4 39.5 30.65 38.95 30.85 38.55 30.95 38.1 31.05 38.0 29.85 38.05 29.85 38.55 29.85 39.45 29.6 40.0 29.4 39.85 28.2 40.75 28.05 M4.15 14.55 L4.05 14.75 2.75 15.25 2.6 15.25 3.05 14.25 3.15 14.2 3.4 14.05 3.95 13.85 4.5 13.8 4.4 13.9 4.15 14.55" fill="#c5ffff" fill-rule="evenodd" stroke="none"/>
      <path d="M42.5 -0.55 L42.95 -0.25 44.1 0.45 44.65 0.9 45.05 1.15 46.1 2.1 46.05 2.1 45.3 2.55 44.95 2.65 44.0 1.85 43.55 1.5 41.8 0.2 42.5 -0.55" fill="#22e4ff" fill-rule="evenodd" stroke="none"/>
      <path d="M46.1 -0.95 L46.4 -0.95 46.25 -0.8 46.1 -0.95 M47.8 -0.95 L50.7 -0.95 50.8 0.3 50.95 1.05 50.4 0.7 47.8 -0.95" fill="#1fccf7" fill-rule="evenodd" stroke="none"/>
      <path d="M46.4 -0.95 L47.8 -0.95 50.4 0.7 50.35 0.75 50.3 0.85 49.05 2.0 48.1 0.95 46.75 -0.4 46.25 -0.8 46.4 -0.95" fill="#0ac4ff" fill-rule="evenodd" stroke="none"/>
      <path d="M29.45 41.25 L29.75 40.4 29.8 40.35 29.95 39.95 31.35 41.3 31.7 41.55 31.55 42.0 31.5 42.1 31.4 42.25 31.15 42.3 30.45 42.35 30.2 42.1 29.45 41.25" fill="#f3feff" fill-rule="evenodd" stroke="none"/>
      <path d="M36.5 -0.95 L38.2 -0.95 38.0 -0.8 37.4 -0.35 37.15 -0.1 32.95 2.9 32.45 2.25 32.25 1.85 Q34.3 0.95 36.5 -0.95" fill="#9fffff" fill-rule="evenodd" stroke="none"/>
      <path d="M37.15 -0.1 L37.4 -0.35 38.0 -0.8 39.4 -0.15 Q41.1 0.7 42.7 1.9 42.3 2.1 42.0 2.35 L40.35 3.05 39.55 2.55 39.55 2.6 39.5 2.55 38.8 3.05 38.45 2.35 37.15 -0.1" fill="#21cbff" fill-rule="evenodd" stroke="none"/>
      <path d="M38.2 -0.95 L39.75 -0.95 41.8 0.2 43.55 1.5 44.0 1.85 44.95 2.65 45.4 3.1 45.15 4.0 44.15 3.15 42.7 1.9 Q41.1 0.7 39.4 -0.15 L38.0 -0.8 38.2 -0.95" fill="#b9ffff" fill-rule="evenodd" stroke="none"/>
      <path d="M37.15 -0.1 L38.45 2.35 38.8 3.05 38.75 3.05 38.0 3.65 37.75 3.85 37.25 4.3 37.25 4.35 34.8 5.0 34.75 5.0 34.0 4.95 33.85 4.9 33.5 4.9 33.1 4.8 33.05 4.8 32.25 4.75 31.7 3.45 32.1 3.45 32.95 2.9 37.15 -0.1" fill="#2accfb" fill-rule="evenodd" stroke="none"/>
      <path d="M39.55 2.6 L39.55 2.55 40.35 3.05 40.65 3.35 41.8 4.5 40.6 3.35 40.3 3.05 39.55 2.6 M41.65 6.65 L42.35 5.15 42.05 4.75 42.4 5.15 41.7 6.65 41.6 6.9 40.85 8.8 41.55 6.9 41.65 6.65 M37.7 4.75 L37.35 5.05 36.1 6.35 37.3 5.05 37.7 4.75 M41.8 10.05 L41.35 9.5 40.85 8.8 41.4 9.5 41.8 10.05 41.85 10.1 43.35 12.0 43.5 12.2 43.45 12.2 43.3 12.0 41.8 10.1 41.8 10.05 M43.0 13.2 L43.1 13.1 44.4 12.4 44.5 12.35 45.3 12.05 45.35 12.1 44.55 12.35 44.5 12.35 44.45 12.4 Q43.6 12.8 43.15 13.1 L43.0 13.2 M47.1 13.65 L47.2 13.6 47.1 13.35 46.25 10.9 46.3 10.85 47.15 13.35 47.25 13.6 47.1 13.65 M47.35 14.05 L47.75 15.05 47.55 15.2 47.45 15.25 47.7 15.05 47.35 14.05 M45.95 16.05 L45.75 16.15 45.65 17.15 45.65 17.7 45.65 18.05 45.5 19.3 45.45 20.5 45.45 20.55 45.45 20.75 45.55 21.55 45.65 21.9 46.35 22.5 46.65 22.75 45.6 21.9 45.5 21.55 45.4 20.75 45.4 20.55 45.4 20.5 45.45 19.3 45.6 18.05 45.6 17.7 45.6 17.15 45.7 16.15 Q45.8 16.05 45.95 16.05 M44.2 26.0 L43.3 25.5 42.3 24.9 42.3 24.85 44.2 26.0 M43.9 27.6 L44.05 27.4 45.0 26.5 45.1 26.3 45.85 25.45 45.5 25.95 45.15 26.3 45.05 26.5 Q44.45 27.0 44.1 27.4 L43.9 27.6 M45.85 25.4 L46.45 24.5 47.1 23.05 46.5 24.5 45.85 25.4 M42.5 26.15 L42.4 26.15 41.6 26.55 Q40.85 27.0 40.45 27.3 L40.8 28.05 40.85 28.15 41.25 28.8 41.45 29.3 41.6 29.5 40.75 30.1 40.2 30.35 40.1 30.4 39.55 30.65 38.95 30.85 39.5 30.65 40.05 30.4 40.7 30.1 41.55 29.5 41.4 29.3 41.2 28.8 40.85 28.15 40.75 28.05 40.4 27.3 41.55 26.55 42.35 26.15 42.45 26.1 42.5 26.15 M34.8 5.0 L35.5 5.15 35.45 5.15 34.75 5.0 34.8 5.0 M36.05 6.5 L36.1 6.35 36.1 6.5 36.05 6.5 M27.75 5.5 L28.05 5.45 27.8 5.5 27.75 5.5 M33.85 4.9 L34.0 4.95 33.95 4.95 33.85 4.9 M15.35 12.6 L15.75 12.6 16.4 12.75 16.6 12.75 16.3 13.5 15.9 15.3 15.5 18.35 15.5 18.4 15.5 18.65 15.4 18.4 15.0 17.05 13.75 16.75 12.7 16.45 12.7 16.0 13.0 14.25 13.2 13.75 13.45 13.25 13.95 12.6 15.35 12.6 M36.85 28.7 L37.05 29.3 37.25 29.95 37.0 29.3 36.85 28.7 M35.7 30.05 L36.05 29.85 36.05 29.9 35.7 30.05 M33.2 30.5 L33.6 30.4 33.65 30.4 33.2 30.5 M33.7 30.4 L33.8 30.35 33.85 30.35 33.7 30.4 M34.45 30.3 L34.6 30.25 34.5 30.3 34.45 30.3 M38.95 30.85 L38.6 30.95 38.15 31.05 38.1 31.05 38.55 30.95 38.95 30.85 M25.4 31.3 L25.75 31.45 26.0 31.55 25.4 31.3 M27.55 31.65 L28.45 30.65 28.5 30.65 27.6 31.65 27.25 32.0 27.0 32.4 26.95 32.4 27.2 32.0 27.55 31.65" fill="#21dbff" fill-rule="evenodd" stroke="none"/>
      <path d="M40.35 3.05 L42.0 2.35 Q42.3 2.1 42.7 1.9 L44.15 3.15 45.15 4.0 45.2 4.1 45.05 4.2 42.7 5.9 41.7 6.65 42.4 5.15 42.05 4.75 41.8 4.5 40.65 3.35 40.35 3.05" fill="#1bdaff" fill-rule="evenodd" stroke="none"/>
      <path d="M40.15 4.1 L40.6 4.3 41.35 4.95 41.05 6.15 40.6 7.1 40.25 7.8 39.85 8.6 38.9 7.95 36.1 6.35 37.35 5.05 37.7 4.75 38.0 4.5 38.7 4.0 39.1 3.8 39.25 3.75 39.3 3.75 40.15 4.1" fill="#27e0f2" fill-rule="evenodd" stroke="none"/>
      <path d="M36.1 6.35 L38.9 7.95 39.85 8.6 39.8 8.6 39.6 8.9 40.75 10.05 41.4 10.8 42.0 11.45 42.4 12.15 41.55 12.25 Q41.1 11.25 40.3 10.45 38.05 8.25 33.8 7.45 L33.9 5.9 34.6 6.1 35.35 6.3 36.05 6.5 36.1 6.5 36.1 6.35" fill="#32f0fe" fill-rule="evenodd" stroke="none"/>
      <path d="M37.25 4.35 Q36.55 4.8 36.1 5.2 L35.5 5.15 34.8 5.0 37.25 4.35" fill="#64d4e2" fill-rule="evenodd" stroke="none"/>
      <path d="M28.05 5.45 L28.25 5.45 29.6 5.35 31.75 5.5 32.3 5.55 32.35 5.55 32.5 5.6 33.9 5.9 33.8 7.45 31.55 7.15 31.15 7.1 28.6 7.05 27.3 7.1 25.45 7.3 23.55 8.55 22.35 9.45 Q20.5 10.75 19.6 13.45 L19.55 13.8 18.8 13.2 17.55 12.35 17.6 12.2 18.3 11.0 18.35 10.95 19.35 9.75 20.1 9.2 Q20.4 8.95 20.8 8.8 L20.7 8.6 22.9 6.95 23.4 6.65 23.5 6.65 23.55 6.65 24.9 6.15 25.05 6.05 25.15 6.05 27.75 5.5 27.8 5.5 28.05 5.45" fill="#28ebff" fill-rule="evenodd" stroke="none"/>
      <path d="M46.1 2.1 L45.05 1.15 44.65 0.9 44.1 0.45 44.15 -0.55 45.45 0.4 46.95 1.7 47.25 1.9 48.1 2.85 49.55 4.6 49.9 5.1 49.6 6.1 48.95 5.25 48.8 4.95 47.4 3.45 47.05 3.05 46.65 2.65 46.1 2.1" fill="#8cfcff" fill-rule="evenodd" stroke="none"/>
      <path d="M49.05 2.0 L51.65 5.35 52.65 7.05 51.85 8.2 51.85 8.05 50.9 6.45 50.35 5.7 49.9 5.1 49.55 4.6 48.1 2.85 47.25 1.9 47.7 1.35 48.1 0.95 49.05 2.0" fill="#26c9f4" fill-rule="evenodd" stroke="none"/>
      <path d="M44.95 2.65 L45.3 2.55 46.05 2.1 46.1 2.1 46.65 2.65 47.05 3.05 47.4 3.45 48.8 4.95 48.95 5.25 49.6 6.1 50.15 6.85 49.25 7.25 49.25 7.3 49.2 7.25 48.25 6.15 46.0 3.65 45.4 3.1 44.95 2.65" fill="#20dcf7" fill-rule="evenodd" stroke="none"/>
      <path d="M49.25 7.3 L51.65 11.1 51.15 11.25 48.85 8.0 48.55 7.6 47.8 6.8 46.6 5.5 45.2 4.1 45.15 4.0 45.4 3.1 46.0 3.65 48.25 6.15 49.2 7.25 49.25 7.3" fill="#ccfffc" fill-rule="evenodd" stroke="none"/>
      <path d="M45.2 4.1 L46.6 5.5 47.8 6.8 47.65 7.05 47.15 7.95 45.75 11.05 45.7 11.05 44.65 11.55 44.45 11.65 43.85 11.95 43.5 12.2 43.35 12.0 41.85 10.1 41.8 10.05 41.4 9.5 40.85 8.8 41.6 6.9 41.7 6.65 42.7 5.9 45.05 4.2 45.2 4.1" fill="#28d2ff" fill-rule="evenodd" stroke="none"/>
      <path d="M51.15 11.25 L51.25 11.45 51.85 12.6 51.85 12.8 50.35 13.6 50.0 13.8 49.3 14.35 Q48.95 14.6 48.55 15.0 L48.05 15.45 47.55 15.9 47.55 15.75 47.35 15.25 47.45 15.25 47.55 15.2 47.75 15.05 47.35 14.05 47.35 13.85 47.25 13.6 47.15 13.35 46.3 10.85 46.25 10.9 46.25 10.85 45.75 11.05 47.15 7.95 47.65 7.05 47.8 6.8 48.55 7.6 48.85 8.0 51.15 11.25" fill="#23d4f5" fill-rule="evenodd" stroke="none"/>
      <path d="M18.9 -0.35 L22.7 0.85 24.3 1.2 25.35 1.45 27.6 1.85 27.55 2.3 27.4 3.05 25.55 2.7 25.25 2.65 24.75 2.55 24.6 2.55 21.6 1.6 18.8 0.5 18.9 -0.35" fill="#9ef9ff" fill-rule="evenodd" stroke="none"/>
      <path d="M25.25 2.65 L25.05 5.35 24.05 5.6 23.0 4.1 22.8 3.85 22.2 3.05 21.9 2.55 20.65 3.3 20.3 3.45 Q19.4 4.05 18.75 4.6 L18.6 4.55 18.15 4.35 19.2 3.4 21.6 1.6 24.6 2.55 24.75 2.55 25.25 2.65" fill="#21c1fb" fill-rule="evenodd" stroke="none"/>
      <path d="M23.5 6.65 L23.4 6.65 22.9 6.95 20.7 8.6 20.1 7.6 20.05 7.35 19.55 6.45 19.0 5.25 19.6 4.85 20.05 4.65 20.7 4.4 Q21.2 4.15 21.65 4.05 L22.55 5.05 22.6 5.1 23.05 5.7 23.2 6.05 23.5 6.65" fill="#28d5ff" fill-rule="evenodd" stroke="none"/>
      <path d="M18.15 4.35 L18.6 4.55 18.75 4.6 17.8 5.35 18.85 6.95 19.25 7.6 19.35 7.8 19.5 8.0 18.7 9.1 18.65 9.15 17.5 11.25 17.35 11.6 17.3 11.6 17.25 11.55 17.1 11.3 16.15 9.75 15.0 7.6 16.65 5.7 18.15 4.35" fill="#29c9ff" fill-rule="evenodd" stroke="none"/>
      <path d="M19.2 3.4 L18.15 4.35 16.65 5.7 15.0 7.6 14.2 8.6 11.5 8.2 9.6 7.8 10.55 6.15 11.15 5.0 12.75 2.4 13.95 2.8 14.4 2.85 14.55 2.9 18.6 3.4 19.2 3.4" fill="#18b7fb" fill-rule="evenodd" stroke="none"/>
      <path d="M15.6 -0.95 L15.8 -0.8 18.8 0.5 21.6 1.6 19.2 3.4 18.6 3.4 14.55 2.9 14.4 2.85 13.95 2.8 12.75 2.4 Q14.25 0.25 15.6 -0.95" fill="#16b0fa" fill-rule="evenodd" stroke="none"/>
      <path d="M19.55 13.8 L19.6 13.45 Q20.5 10.75 22.35 9.45 L23.55 8.55 23.85 9.65 24.0 10.25 24.1 10.5 23.4 10.85 Q22.75 11.65 22.2 13.0 L21.5 15.4 21.45 15.35 21.15 14.8 19.55 13.8" fill="#4cf6ff" fill-rule="evenodd" stroke="none"/>
      <path d="M27.6 1.85 L31.2 2.1 31.6 2.1 31.95 1.9 32.25 1.85 32.45 2.25 32.95 2.9 32.1 3.45 31.7 3.45 27.4 3.05 27.55 2.3 27.6 1.85" fill="#9cffff" fill-rule="evenodd" stroke="none"/>
      <path d="M32.25 4.75 L32.2 4.75 31.35 4.75 31.3 4.75 27.7 4.9 27.15 4.95 26.5 5.0 26.0 5.15 25.45 5.2 25.05 5.35 25.25 2.65 25.55 2.7 27.4 3.05 31.7 3.45 32.25 4.75" fill="#1ecff9" fill-rule="evenodd" stroke="none"/>
      <path d="M23.55 8.55 L25.45 7.3 27.3 7.1 28.6 7.05 31.15 7.1 31.35 9.5 28.95 9.25 27.55 9.3 Q26.45 9.5 25.4 9.95 L24.1 10.5 24.0 10.25 23.85 9.65 23.55 8.55" fill="#46ffff" fill-rule="evenodd" stroke="none"/>
      <path d="M40.3 10.45 L37.6 12.65 Q36.7 11.8 35.35 11.15 L34.0 10.6 Q33.45 10.25 32.95 10.05 L31.35 9.5 31.15 7.1 31.55 7.15 33.8 7.45 Q38.05 8.25 40.3 10.45" fill="#46f9fd" fill-rule="evenodd" stroke="none"/>
      <path d="M15.6 -0.95 L17.5 -0.95 18.9 -0.35 18.8 0.5 15.8 -0.8 15.6 -0.95" fill="#97faff" fill-rule="evenodd" stroke="none"/>
      <path d="M12.1 11.8 Q12.95 10.15 14.2 8.6 L15.0 7.6 16.15 9.75 17.1 11.3 17.25 11.55 17.3 11.6 17.15 11.6 16.65 11.6 16.2 11.55 15.1 11.5 14.75 11.5 14.55 11.5 12.9 11.65 12.6 12.35 12.1 11.8" fill="#1ecaff" fill-rule="evenodd" stroke="none"/>
      <path d="M17.55 12.35 L18.8 13.2 19.55 13.8 Q19.1 15.1 19.05 16.55 L19.0 17.35 19.0 17.65 Q19.05 19.25 19.45 20.6 L16.8 22.0 16.65 21.45 15.55 18.85 15.5 18.75 15.5 18.65 15.5 18.4 15.5 18.35 15.9 15.3 16.3 13.5 16.6 12.75 17.4 12.9 Q17.4 12.6 17.55 12.35" fill="#28ecff" fill-rule="evenodd" stroke="none"/>
      <path d="M21.5 15.4 L21.2 17.1 21.2 18.4 21.25 19.8 21.2 19.75 19.45 20.6 Q19.05 19.25 19.0 17.65 L19.0 17.35 19.05 16.55 Q19.1 15.1 19.55 13.8 L21.15 14.8 21.45 15.35 21.5 15.4" fill="#4bf2f8" fill-rule="evenodd" stroke="none"/>
      <path d="M21.25 19.8 Q21.5 22.8 23.05 24.75 L22.75 25.55 22.35 25.15 22.1 25.0 Q20.15 23.2 19.45 20.6 L21.2 19.75 21.25 19.8" fill="#52f2ff" fill-rule="evenodd" stroke="none"/>
      <path d="M23.05 24.75 L23.7 25.5 24.5 26.05 Q26.25 27.3 28.7 27.3 31.2 27.3 33.3 26.35 L33.55 26.25 33.55 27.1 29.8 27.6 Q25.55 27.6 22.75 25.55 L23.05 24.75" fill="#7bfcf7" fill-rule="evenodd" stroke="none"/>
      <path d="M16.8 22.0 L19.45 20.6 Q20.15 23.2 22.1 25.0 L22.35 25.15 22.75 25.55 22.45 26.6 22.05 27.8 21.4 27.6 20.1 26.95 19.95 26.85 19.0 25.85 18.9 25.8 18.65 25.5 17.05 23.35 17.15 23.2 17.3 23.0 16.8 22.0" fill="#2ae8ff" fill-rule="evenodd" stroke="none"/>
      <path d="M17.05 23.35 L18.65 25.5 18.9 25.8 19.0 25.85 19.95 26.85 19.55 26.6 19.25 26.9 19.0 27.1 18.75 27.3 18.5 27.5 17.9 28.05 17.55 27.7 16.8 26.6 16.65 26.5 16.15 25.65 15.95 25.3 16.05 24.95 16.35 24.35 16.5 24.15 Q16.7 23.65 17.05 23.35" fill="#2adef5" fill-rule="evenodd" stroke="none"/>
      <path d="M18.15 31.65 L16.65 29.85 14.75 27.4 15.15 26.9 15.6 26.3 16.3 27.4 16.3 27.45 17.1 28.55 17.5 29.1 17.85 29.5 Q18.05 29.0 18.6 28.4 L18.8 28.15 19.3 27.65 19.35 27.65 19.5 27.7 19.8 27.85 20.8 28.15 21.1 28.25 21.25 28.35 21.85 28.55 22.95 28.9 23.0 28.9 23.05 29.9 21.55 30.45 21.45 30.5 21.1 30.65 18.15 31.65" fill="#20d8ff" fill-rule="evenodd" stroke="none"/>
      <path d="M33.55 27.1 L33.6 29.4 33.55 29.4 33.15 29.45 30.7 29.7 30.65 29.7 30.0 29.8 29.8 29.8 29.2 29.8 29.0 29.8 27.65 29.65 27.6 29.65 27.5 29.85 26.4 29.55 23.95 28.7 24.0 28.35 24.05 28.2 23.55 28.15 23.4 28.15 23.35 28.15 22.05 27.8 22.45 26.6 22.75 25.55 Q25.55 27.6 29.8 27.6 L33.55 27.1" fill="#51f2ff" fill-rule="evenodd" stroke="none"/>
      <path d="M44.5 12.35 L44.55 12.35 45.35 12.1 46.2 13.1 46.25 13.2 46.45 13.65 46.45 13.7 46.5 13.7 46.7 14.55 46.65 14.55 45.75 15.05 45.6 15.2 Q45.15 15.4 44.85 15.55 L44.7 15.3 44.6 15.15 43.95 14.05 43.15 13.1 Q43.6 12.8 44.45 12.4 L44.5 12.35" fill="#1feef4" fill-rule="evenodd" stroke="none"/>
      <path d="M46.5 13.7 L46.6 13.7 46.75 13.65 47.1 13.65 47.25 13.6 47.35 13.85 47.35 14.05 46.95 14.3 46.7 14.55 46.5 13.7 M34.4 29.25 L34.6 29.2 34.85 29.15 36.3 28.8 36.4 28.8 36.85 28.7 37.0 29.3 37.25 29.95 38.0 29.85 38.1 31.05 37.8 31.05 37.75 31.05 36.65 31.2 36.6 31.2 36.05 29.9 36.05 29.85 35.7 30.05 35.6 30.05 34.6 30.25 34.55 29.85 34.4 29.25" fill="#e4ffff" fill-rule="evenodd" stroke="none"/>
      <path d="M42.4 12.15 L42.85 12.9 43.0 13.2 43.15 13.1 43.95 14.05 44.6 15.15 44.7 15.3 44.85 15.55 44.8 15.55 44.45 15.7 44.65 16.85 44.7 17.15 44.85 17.9 44.85 18.45 44.65 20.6 44.5 20.95 44.45 21.0 44.35 21.45 44.3 21.6 43.1 23.2 42.8 22.55 41.65 20.55 Q42.5 18.85 42.55 17.2 L42.55 16.8 42.5 15.3 Q42.3 13.6 41.55 12.25 L42.4 12.15" fill="#4ae8ff" fill-rule="evenodd" stroke="none"/>
      <path d="M51.85 12.8 L52.1 13.2 52.55 14.55 53.0 16.2 53.35 17.4 53.55 18.45 53.55 18.65 53.65 19.0 53.65 19.05 54.1 21.3 53.2 21.3 52.3 21.25 52.1 21.25 Q51.0 21.1 50.35 20.75 L50.3 20.75 49.55 20.8 48.85 20.8 48.7 20.75 48.35 20.75 48.35 20.7 48.25 18.75 47.9 17.0 47.8 16.55 47.55 15.9 48.05 15.45 48.55 15.0 Q48.95 14.6 49.3 14.35 L50.0 13.8 50.35 13.6 51.85 12.8" fill="#31c7ff" fill-rule="evenodd" stroke="none"/>
      <path d="M47.35 15.25 L47.55 15.75 47.55 15.9 47.8 16.55 47.9 17.0 48.25 18.75 48.35 20.7 48.35 20.75 47.75 20.75 47.65 20.75 46.75 20.65 45.45 20.55 45.45 20.5 45.5 19.3 45.65 18.05 45.65 17.7 45.65 17.15 45.75 16.15 45.95 16.05 46.0 16.0 46.0 15.95 46.1 15.9 47.35 15.25" fill="#30e5ff" fill-rule="evenodd" stroke="none"/>
      <path d="M37.6 12.65 Q38.65 13.7 39.1 15.05 L38.95 14.85 Q37.95 13.1 35.85 11.7 L34.0 10.6 35.35 11.15 Q36.7 11.8 37.6 12.65" fill="#bcfcfb" fill-rule="evenodd" stroke="none"/>
      <path d="M32.25 42.2 L32.2 42.2 31.4 42.25 31.5 42.1 31.55 42.0 31.7 41.55 31.35 41.3 32.15 41.3 32.3 41.3 32.9 41.25 33.0 41.25 33.25 41.2 33.85 41.15 33.8 41.3 33.85 41.8 33.9 42.0 33.9 42.05 33.15 42.1 32.25 42.2" fill="#c2ffff" fill-rule="evenodd" stroke="none"/>
      <path d="M40.0 18.95 L40.95 19.05 41.65 20.55 40.65 22.1 40.7 21.5 Q40.7 20.25 39.9 19.55 L40.0 18.95 M38.1 23.2 L38.7 23.3 39.85 23.1 39.15 23.75 Q36.75 26.25 33.55 27.1 L33.55 26.25 33.6 26.25 36.8 24.35 38.1 23.2 M4.05 14.75 L3.6 16.0 3.05 17.7 2.75 19.2 2.55 20.15 2.55 20.3 2.4 20.25 1.95 20.15 1.35 20.2 1.65 18.6 1.8 17.75 2.05 16.9 2.1 16.75 2.6 15.25 2.75 15.25 4.05 14.75" fill="#86ffff" fill-rule="evenodd" stroke="none"/>
      <path d="M41.65 20.55 L42.8 22.55 43.1 23.2 42.55 23.8 42.15 24.3 40.85 25.8 40.6 26.0 40.5 26.1 40.4 26.2 40.35 26.25 40.3 26.25 40.2 26.35 36.4 28.8 36.3 28.8 34.85 29.15 34.6 29.2 34.4 29.25 33.6 29.4 33.55 27.1 Q36.75 26.25 39.15 23.75 L39.85 23.1 40.65 22.1 41.65 20.55" fill="#5cf2ff" fill-rule="evenodd" stroke="none"/>
      <path d="M36.4 28.8 L40.2 26.35 39.4 27.05 39.75 28.05 39.85 28.2 40.0 29.4 39.45 29.6 38.55 29.85 38.05 29.85 38.0 29.85 37.25 29.95 37.05 29.3 36.85 28.7 36.4 28.8" fill="#2fe7ff" fill-rule="evenodd" stroke="none"/>
      <path d="M45.45 20.55 L46.75 20.65 47.65 20.75 47.75 20.75 48.35 20.75 48.25 21.9 Q48.1 23.9 47.1 25.8 L46.15 27.35 45.85 27.7 45.1 28.75 44.7 29.15 44.65 29.2 44.05 29.8 43.15 27.9 43.0 27.55 42.4 26.15 42.5 26.15 43.05 26.8 43.65 27.4 43.85 27.6 43.9 27.6 44.1 27.4 Q44.45 27.0 45.05 26.5 L45.15 26.3 45.5 25.95 45.85 25.45 45.85 25.4 46.5 24.5 47.1 23.05 46.8 22.85 46.7 22.75 46.65 22.75 46.35 22.5 45.65 21.9 45.55 21.55 45.45 20.75 45.45 20.55" fill="#38e3ff" fill-rule="evenodd" stroke="none"/>
      <path d="M43.1 23.2 L44.3 21.6 44.05 22.05 44.65 22.45 45.55 23.1 45.15 24.2 45.0 24.6 44.45 25.65 44.2 26.0 42.3 24.85 41.9 25.1 Q41.55 25.3 41.15 25.6 L40.85 25.8 42.15 24.3 42.55 23.8 43.1 23.2" fill="#23e6fa" fill-rule="evenodd" stroke="none"/>
      <path d="M48.35 20.75 L48.7 20.75 48.85 20.8 49.55 20.8 50.3 20.75 50.35 20.75 Q51.0 21.1 52.1 21.25 L52.3 21.25 53.2 21.3 54.1 21.3 53.8 22.15 53.8 22.2 Q53.55 23.25 53.55 24.75 L53.7 25.9 53.7 26.05 50.75 28.8 50.65 28.9 49.75 27.95 49.1 27.3 47.75 26.2 47.1 25.8 Q48.1 23.9 48.25 21.9 L48.35 20.75" fill="#26c6fa" fill-rule="evenodd" stroke="none"/>
      <path d="M40.85 28.15 L40.8 28.05 40.45 27.3 Q40.85 27.0 41.6 26.55 L42.4 26.15 43.0 27.55 43.15 27.9 44.05 29.8 43.1 30.65 42.9 30.8 41.25 31.95 40.15 30.55 40.1 30.4 40.2 30.35 40.75 30.1 41.6 29.5 41.45 29.3 41.25 28.8 40.85 28.15" fill="#27dcff" fill-rule="evenodd" stroke="none"/>
      <path d="M44.05 29.8 L44.65 29.2 44.7 29.15 45.1 28.75 45.85 27.7 46.15 27.35 47.1 25.8 47.75 26.2 49.1 27.3 49.75 27.95 50.65 28.9 49.7 29.55 48.75 30.25 47.35 31.05 46.8 31.3 45.75 31.95 45.25 32.25 45.0 31.75 44.7 31.1 44.5 30.85 44.4 30.55 44.05 29.8" fill="#18befa" fill-rule="evenodd" stroke="none"/>
      <path d="M9.8 -0.95 L12.1 -0.95 9.65 1.15 8.95 1.85 8.85 1.75 7.8 1.35 7.6 1.3 7.75 1.1 8.75 0.05 8.9 -0.05 9.8 -0.95 M12.7 17.65 L12.35 17.6 12.25 17.6 11.6 17.55 11.55 17.55 11.65 16.35 11.7 16.15 12.6 16.0 12.7 16.0 12.7 16.45 12.65 17.15 12.7 17.65" fill="#c3ffff" fill-rule="evenodd" stroke="none"/>
      <path d="M7.6 -0.95 L9.8 -0.95 8.9 -0.05 8.75 0.05 7.75 1.1 7.35 0.2 7.1 -0.4 7.6 -0.95" fill="#1ed5e7" fill-rule="evenodd" stroke="none"/>
      <path d="M12.1 -0.95 L13.15 -0.95 12.0 0.3 11.0 1.35 10.2 2.35 10.05 2.1 9.7 1.25 9.65 1.15 12.1 -0.95" fill="#2ee5ff" fill-rule="evenodd" stroke="none"/>
      <path d="M15.05 -0.95 L15.6 -0.95 Q14.25 0.25 12.75 2.4 L11.15 5.0 10.55 6.15 10.1 4.45 10.75 3.6 12.1 2.1 12.15 2.05 15.05 -0.95" fill="#21d0fb" fill-rule="evenodd" stroke="none"/>
      <path d="M4.7 2.45 L3.95 1.55 2.3 -0.05 0.8 -0.95 7.6 -0.95 7.1 -0.4 4.7 2.45" fill="#0daafb" fill-rule="evenodd" stroke="none"/>
      <path d="M7.6 1.3 L7.8 1.35 8.85 1.75 8.95 1.85 8.8 1.9 8.3 2.55 6.15 4.8 5.55 5.6 5.35 5.95 3.9 5.55 4.2 5.15 5.5 3.5 7.6 1.3 M26.0 31.55 L26.35 31.15 26.45 31.05 26.75 30.75 27.55 31.65 27.2 32.0 26.95 32.4 26.0 32.2 26.0 32.15 25.75 32.1 25.65 32.05 25.3 32.0 26.0 31.55" fill="#81ffff" fill-rule="evenodd" stroke="none"/>
      <path d="M8.95 1.85 L9.65 1.15 9.7 1.25 10.05 2.1 10.2 2.35 10.0 2.55 9.8 2.85 7.9 5.35 7.35 6.15 7.1 6.15 6.35 5.9 5.55 5.6 6.15 4.8 8.3 2.55 8.8 1.9 8.95 1.85" fill="#1bf1f9" fill-rule="evenodd" stroke="none"/>
      <path d="M3.2 4.7 L3.2 4.6 4.7 2.45 7.1 -0.4 7.35 0.2 7.75 1.1 7.6 1.3 5.5 3.5 4.2 5.15 3.9 5.55 3.85 5.6 3.55 5.2 3.2 4.7" fill="#20d1ff" fill-rule="evenodd" stroke="none"/>
      <path d="M0.0 7.95 L0.0 -0.95 0.8 -0.95 2.3 -0.05 3.95 1.55 4.7 2.45 3.2 4.6 3.2 4.7 1.9 6.65 0.95 8.45 0.0 7.95" fill="#16b4fd" fill-rule="evenodd" stroke="none"/>
      <path d="M5.55 5.6 L6.35 5.9 7.1 6.15 7.35 6.15 7.1 6.5 5.65 8.9 4.9 10.25 4.8 10.25 2.55 10.3 3.25 9.05 4.7 6.8 4.95 6.4 5.35 5.95 5.55 5.6" fill="#1aeff7" fill-rule="evenodd" stroke="none"/>
      <path d="M0.95 8.45 L1.9 6.65 3.2 4.7 3.55 5.2 3.85 5.6 3.5 6.15 Q2.5 7.5 1.8 8.8 1.3 9.5 0.95 10.3 L0.8 10.7 0.7 10.85 0.55 10.8 0.0 10.35 0.05 10.25 0.95 8.45" fill="#13c4f6" fill-rule="evenodd" stroke="none"/>
      <path d="M7.9 5.35 L9.5 5.3 8.75 6.3 8.1 6.35 7.1 6.5 7.35 6.15 7.9 5.35" fill="#e9fff6" fill-rule="evenodd" stroke="none"/>
      <path d="M4.9 10.25 L5.65 8.9 7.1 6.5 8.1 6.35 8.75 6.3 8.55 6.45 8.05 7.3 7.9 7.5 6.5 9.75 6.2 10.25 Q5.2 12.0 4.5 13.8 L3.95 13.85 3.4 14.05 3.15 14.2 3.05 14.25 3.15 13.85 4.35 11.35 4.9 10.25" fill="#a7ffff" fill-rule="evenodd" stroke="none"/>
      <path d="M9.5 5.3 L10.1 4.45 10.55 6.15 9.6 7.8 8.2 10.5 Q7.2 10.25 6.5 9.75 L7.9 7.5 8.05 7.3 8.55 6.45 8.75 6.3 9.5 5.3" fill="#59edff" fill-rule="evenodd" stroke="none"/>
      <path d="M39.1 15.05 Q40.0 16.7 40.0 18.5 L40.0 18.95 39.9 19.55 39.85 19.4 39.0 18.95 39.0 18.85 39.0 18.8 38.65 17.35 38.45 16.75 38.05 15.8 38.95 14.85 39.1 15.05 M11.0 1.35 L11.3 1.5 12.15 2.05 12.1 2.1 10.75 3.6 10.1 4.45 9.5 5.3 7.9 5.35 9.8 2.85 10.0 2.55 10.2 2.35 11.0 1.35" fill="#acffff" fill-rule="evenodd" stroke="none"/>
      <path d="M14.2 8.6 Q12.95 10.15 12.1 11.8 L11.25 13.35 10.9 13.45 6.6 14.0 8.2 10.5 9.6 7.8 11.5 8.2 14.2 8.6 M33.85 39.25 L33.25 40.75 33.2 40.85 33.0 41.25 32.9 41.25 32.3 41.3 32.15 41.3 31.35 41.3 29.95 39.95 31.6 39.75 33.85 39.25" fill="#1ebdff" fill-rule="evenodd" stroke="none"/>
      <path d="M0.0 7.95 L0.95 8.45 0.05 10.25 0.0 10.35 0.0 7.95" fill="#14b0fd" fill-rule="evenodd" stroke="none"/>
      <path d="M0.0 15.4 L0.0 12.6 0.7 10.85 0.8 10.7 2.4 10.7 2.0 11.5 Q1.15 13.1 0.6 14.85 L0.45 15.3 0.15 15.35 0.0 15.4" fill="#8ffcff" fill-rule="evenodd" stroke="none"/>
      <path d="M0.0 12.6 L0.0 10.35 0.55 10.8 0.7 10.85 0.0 12.6" fill="#27c5ff" fill-rule="evenodd" stroke="none"/>
      <path d="M55.85 22.15 L55.85 22.85 55.4 23.5 55.4 23.6 55.5 24.1 54.95 24.7 54.9 24.5 54.85 23.55 Q54.85 22.8 55.55 22.3 L55.85 22.15 M0.0 16.5 L0.0 15.4 0.15 15.35 0.45 15.3 0.2 16.1 0.15 16.45 0.0 16.5" fill="#b2ffff" fill-rule="evenodd" stroke="none"/>
      <path d="M0.0 16.95 L0.0 16.5 0.15 16.45 0.1 16.6 0.0 16.95" fill="#55fdfd" fill-rule="evenodd" stroke="none"/>
      <path d="M0.0 21.5 L0.0 18.4 0.55 18.0 0.65 17.9 2.05 16.9 1.8 17.75 1.65 18.6 1.35 20.2 1.3 20.8 1.3 21.1 1.3 21.7 1.3 21.85 0.7 21.7 0.65 21.65 0.6 21.65 0.0 21.5" fill="#21e2f1" fill-rule="evenodd" stroke="none"/>
      <path d="M0.0 24.15 L0.0 24.0 0.1 24.15 0.0 24.15 M0.0 22.75 L0.0 21.5 0.6 21.65 0.65 21.65 0.7 21.7 1.3 21.85 1.3 22.2 1.8 22.85 2.0 23.05 2.2 23.45 2.4 24.05 2.9 25.85 2.4 25.6 1.3 24.95 0.9 23.65 0.2 22.8 0.05 22.75 0.0 22.75" fill="#22dcf1" fill-rule="evenodd" stroke="none"/>
      <path d="M12.1 11.8 L12.6 12.35 12.4 13.05 12.35 13.1 12.15 14.05 11.7 16.15 11.65 16.35 11.55 17.55 11.6 17.55 12.25 17.6 12.35 17.6 12.7 17.65 13.1 17.7 13.55 17.85 13.95 17.9 14.25 18.7 14.3 18.8 14.35 19.05 12.75 19.25 12.15 19.3 11.3 19.35 9.3 19.55 9.5 18.6 9.7 17.75 9.7 17.65 Q10.2 15.45 11.25 13.35 L12.1 11.8" fill="#20d4f7" fill-rule="evenodd" stroke="none"/>
      <path d="M6.6 14.0 L10.9 13.45 11.25 13.35 Q10.2 15.45 9.7 17.65 7.4 17.9 5.05 18.85 L5.6 16.7 6.05 15.35 6.6 14.0" fill="#1dbfff" fill-rule="evenodd" stroke="none"/>
      <path d="M9.7 17.65 L9.7 17.75 9.5 18.6 9.3 19.55 9.25 20.1 9.05 23.25 9.05 23.7 9.15 25.25 8.5 24.85 Q6.9 23.85 4.75 23.4 L4.6 23.35 4.35 23.3 4.8 20.15 4.8 20.0 5.05 18.85 Q7.4 17.9 9.7 17.65" fill="#1dc2fc" fill-rule="evenodd" stroke="none"/>
      <path d="M11.3 19.35 L12.15 19.3 12.75 19.25 14.35 19.05 14.4 19.2 14.85 20.3 15.5 21.7 15.75 22.15 15.9 22.45 16.2 22.9 15.95 23.4 15.9 23.4 14.35 23.2 14.15 23.2 13.65 23.6 13.4 23.85 12.95 24.3 12.9 24.3 12.75 23.9 12.1 22.25 Q11.4 20.65 11.35 19.55 L11.3 19.35" fill="#23e0fe" fill-rule="evenodd" stroke="none"/>
      <path d="M8.2 10.5 L6.6 14.0 6.05 15.35 4.75 14.9 4.15 14.55 4.4 13.9 4.5 13.8 Q5.2 12.0 6.2 10.25 L6.5 9.75 Q7.2 10.25 8.2 10.5" fill="#2ce3e7" fill-rule="evenodd" stroke="none"/>
      <path d="M5.05 18.85 L4.8 20.0 3.5 19.6 3.15 19.4 2.75 19.2 3.05 17.7 3.6 16.0 4.05 14.75 4.15 14.55 4.75 14.9 6.05 15.35 5.6 16.7 5.05 18.85" fill="#14d9ff" fill-rule="evenodd" stroke="none"/>
      <path d="M4.8 20.0 L4.8 20.15 4.35 23.3 4.35 23.35 4.15 26.5 3.75 26.3 3.75 26.0 Q3.75 24.75 3.4 23.55 L3.4 23.4 3.3 23.2 3.25 23.05 3.0 22.3 2.4 21.45 2.5 20.55 2.55 20.3 2.55 20.15 2.75 19.2 3.15 19.4 3.5 19.6 4.8 20.0" fill="#21c3ff" fill-rule="evenodd" stroke="none"/>
      <path d="M1.35 20.2 L1.95 20.15 2.4 20.25 2.55 20.3 2.5 20.55 2.4 21.45 3.0 22.3 3.25 23.05 3.3 23.2 3.4 23.4 3.4 23.55 2.8 23.85 2.4 24.05 2.2 23.45 2.0 23.05 1.8 22.85 1.3 22.2 1.3 21.85 1.3 21.7 1.3 21.1 1.3 20.8 1.35 20.2" fill="#cffeff" fill-rule="evenodd" stroke="none"/>
      <path d="M4.35 23.3 L4.6 23.35 4.75 23.4 Q6.9 23.85 8.5 24.85 L9.15 25.25 Q9.25 26.45 9.5 27.5 L9.6 27.85 9.9 28.9 9.05 28.6 9.0 28.55 8.65 28.4 4.15 26.5 4.35 23.35 4.35 23.3" fill="#1eb8ff" fill-rule="evenodd" stroke="none"/>
      <path d="M3.75 26.3 L4.15 26.5 8.65 28.4 9.0 28.55 9.05 28.6 9.5 29.75 9.7 30.1 8.15 29.45 7.85 29.35 5.5 28.2 4.15 27.5 3.7 27.25 3.55 27.25 3.1 26.0 3.75 26.3" fill="#99ebff" fill-rule="evenodd" stroke="none"/>
      <path d="M12.9 24.3 L12.95 24.3 13.4 23.85 13.65 23.6 14.15 23.2 14.35 23.2 15.9 23.4 15.95 23.4 15.75 23.8 15.3 24.4 15.25 24.5 15.15 24.75 14.9 25.1 15.6 26.3 15.15 26.9 14.75 27.4 13.05 24.5 12.9 24.3" fill="#28d5fd" fill-rule="evenodd" stroke="none"/>
      <path d="M9.15 25.25 L9.05 23.7 9.05 23.25 9.25 20.1 9.3 19.55 11.3 19.35 11.35 19.55 Q11.4 20.65 12.1 22.25 L12.75 23.9 12.9 24.3 12.2 25.05 11.6 25.65 11.55 25.7 9.6 27.85 9.5 27.5 Q9.25 26.45 9.15 25.25" fill="#20c6ff" fill-rule="evenodd" stroke="none"/>
      <path d="M12.9 24.3 L13.05 24.5 14.75 27.4 16.65 29.85 18.15 31.65 19.1 32.55 17.3 31.85 13.35 30.3 13.05 30.25 10.25 29.1 9.9 28.9 9.6 27.85 11.55 25.7 11.6 25.65 12.2 25.05 12.9 24.3" fill="#29c5fe" fill-rule="evenodd" stroke="none"/>
      <path d="M10.25 29.1 L13.05 30.25 13.35 30.3 17.3 31.85 19.1 32.55 21.45 33.45 21.65 33.55 21.85 33.65 22.2 33.9 21.2 33.7 20.2 33.45 20.15 33.45 16.3 32.75 15.75 32.7 13.95 31.95 10.95 30.65 10.25 29.1" fill="#a1f3ff" fill-rule="evenodd" stroke="none"/>
      <path d="M50.75 28.8 L50.7 29.0 50.65 29.75 49.95 30.3 49.7 30.35 49.5 30.5 48.85 30.9 44.65 32.7 45.25 32.25 45.75 31.95 46.8 31.3 47.35 31.05 48.75 30.25 49.7 29.55 50.65 28.9 50.75 28.8" fill="#adfeff" fill-rule="evenodd" stroke="none"/>
      <path d="M44.05 29.8 L44.4 30.55 44.5 30.85 44.7 31.1 45.0 31.75 45.25 32.25 44.65 32.7 43.65 33.3 43.6 33.2 43.45 32.25 42.9 30.8 43.1 30.65 44.05 29.8" fill="#19bbff" fill-rule="evenodd" stroke="none"/>
      <path d="M44.65 32.7 L48.85 30.9 49.5 30.5 46.15 33.25 Q44.95 34.3 44.0 35.25 L43.9 35.4 41.55 38.0 41.1 38.65 40.85 38.6 39.7 38.45 39.1 38.4 38.4 38.45 38.35 38.45 37.95 37.85 39.85 36.25 43.6 33.4 43.65 33.3 44.65 32.7" fill="#fffaff" fill-rule="evenodd" stroke="none"/>
      <path d="M42.9 30.8 L43.45 32.25 43.6 33.2 43.65 33.3 43.6 33.4 39.85 36.25 37.95 37.85 36.1 39.7 35.95 39.85 36.0 39.65 36.5 38.25 36.6 37.9 36.85 35.95 36.85 34.75 36.8 34.2 36.75 33.95 Q39.15 33.2 41.25 31.95 L42.9 30.8" fill="#20b8ff" fill-rule="evenodd" stroke="none"/>
      <path d="M36.05 29.9 L36.6 31.2 36.65 31.2 37.75 31.05 37.8 31.05 38.1 31.05 38.15 31.05 38.6 30.95 38.95 30.85 38.75 31.1 36.55 33.3 36.75 33.95 36.8 34.2 36.85 34.75 35.45 35.0 34.7 35.2 33.45 35.4 33.85 34.65 33.9 34.35 34.4 33.65 33.9 33.55 33.85 33.55 33.15 33.5 32.5 33.45 32.05 33.5 32.0 33.5 30.9 33.6 29.95 33.7 29.9 33.7 29.8 33.7 30.7 35.5 30.75 35.55 28.1 35.5 28.05 35.0 28.05 34.75 28.35 33.3 27.9 32.8 27.25 32.0 27.6 31.65 28.5 30.65 29.25 30.8 30.05 30.8 30.25 30.8 30.3 30.8 30.95 30.75 31.0 30.75 33.2 30.5 33.65 30.4 33.7 30.4 33.85 30.35 34.45 30.3 34.5 30.3 34.6 30.25 35.6 30.05 35.7 30.05 36.05 29.9" fill="#27ebfb" fill-rule="evenodd" stroke="none"/>
      <path d="M38.95 30.85 L39.55 30.65 40.1 30.4 40.15 30.55 41.25 31.95 Q39.15 33.2 36.75 33.95 L36.55 33.3 38.75 31.1 38.95 30.85" fill="#25c3ff" fill-rule="evenodd" stroke="none"/>
      <path d="M33.15 33.5 L33.85 33.55 33.9 33.55 34.4 33.65 33.9 34.35 33.85 34.65 33.45 35.4 32.95 36.5 32.95 36.55 32.45 36.5 32.35 36.5 31.2 36.6 31.15 36.6 30.75 35.55 30.7 35.5 29.8 33.7 29.9 33.7 29.95 33.7 30.9 33.6 31.15 34.15 Q31.55 34.95 32.0 34.95 L32.15 34.95 32.7 34.8 32.95 34.4 33.15 33.7 33.15 33.5" fill="#f5fff8" fill-rule="evenodd" stroke="none"/>
      <path d="M33.15 33.5 L33.15 33.7 32.95 34.4 32.7 34.8 32.15 34.95 32.0 34.95 Q31.55 34.95 31.15 34.15 L30.9 33.6 32.0 33.5 32.05 33.5 32.5 33.45 33.15 33.5" fill="#7df5ff" fill-rule="evenodd" stroke="none"/>
      <path d="M34.7 35.2 L35.45 35.0 36.85 34.75 36.85 35.95 36.6 37.9 36.5 38.25 35.75 38.6 35.45 38.7 34.7 38.95 33.85 39.25 34.15 38.0 34.7 35.2" fill="#24d4ff" fill-rule="evenodd" stroke="none"/>
      <path d="M33.45 35.4 L34.7 35.2 34.15 38.0 33.85 39.25 31.6 39.75 29.95 39.95 29.3 39.25 Q28.2 37.05 28.1 35.5 L30.75 35.55 31.15 36.6 32.15 39.0 32.45 37.95 32.95 36.55 32.95 36.5 33.45 35.4" fill="#2be7ff" fill-rule="evenodd" stroke="none"/>
      <path d="M36.5 38.25 L36.0 39.65 35.95 39.85 35.9 39.9 35.55 40.15 34.7 41.1 33.95 41.1 33.85 41.15 33.25 41.2 33.0 41.25 33.2 40.85 33.25 40.75 33.85 39.25 34.7 38.95 35.45 38.7 35.75 38.6 36.5 38.25" fill="#1fc0f7" fill-rule="evenodd" stroke="none"/>
      <path d="M36.1 41.1 L35.9 41.45 35.35 42.1 34.4 42.0 34.25 42.0 33.9 42.05 33.9 42.0 33.85 41.8 33.8 41.3 33.85 41.15 33.95 41.1 34.7 41.1 35.55 40.15 35.65 40.35 36.1 41.1" fill="#e9ffff" fill-rule="evenodd" stroke="none"/>
      <path d="M23.95 28.7 L26.4 29.55 27.5 29.85 26.9 30.55 26.75 30.75 26.45 31.05 26.35 31.15 26.0 31.55 25.75 31.45 25.4 31.3 25.1 31.2 24.0 30.6 23.6 30.25 23.9 30.2 23.9 29.55 23.95 28.75 23.95 28.7" fill="#1fe5ff" fill-rule="evenodd" stroke="none"/>
      <path d="M19.1 32.55 L18.15 31.65 21.1 30.65 21.45 30.5 21.55 30.45 23.05 29.9 23.05 30.25 23.05 30.7 23.05 31.15 25.3 32.0 25.65 32.05 25.75 32.1 26.0 32.15 26.0 32.2 24.65 35.2 24.5 35.5 22.2 33.9 21.85 33.65 21.65 33.55 21.45 33.45 19.1 32.55" fill="#13c0fa" fill-rule="evenodd" stroke="none"/>
      <path d="M26.95 32.4 L27.0 32.4 27.25 32.0 27.9 32.8 28.35 33.3 28.05 34.75 28.05 35.0 28.1 35.5 Q28.2 37.05 29.3 39.25 L26.75 37.15 26.55 37.0 26.4 36.95 26.1 36.7 25.1 35.95 24.5 35.5 24.65 35.2 26.0 32.2 26.95 32.4" fill="#1dc2f8" fill-rule="evenodd" stroke="none"/>
      <path d="M33.6 29.4 L34.4 29.25 34.55 29.85 34.6 30.25 34.45 30.3 33.85 30.35 33.8 30.35 33.7 30.4 33.65 30.4 33.6 30.4 33.2 30.5 31.0 30.75 30.95 30.75 30.3 30.8 30.25 30.8 29.8 29.8 30.0 29.8 30.65 29.7 30.7 29.7 33.15 29.45 33.55 29.4 33.6 29.4 M26.4 36.95 L26.55 37.0 26.75 37.15 29.3 39.25 29.95 39.95 29.8 40.35 29.75 40.4 29.45 41.25 28.55 40.15 28.3 39.9 26.55 38.1 26.45 37.55 26.4 37.05 26.4 36.95" fill="#b3ffff" fill-rule="evenodd" stroke="none"/>
      <path d="M52.35 -0.95 L53.65 -0.95 52.8 -0.65 52.35 -0.95" fill="#15c9ff" fill-rule="evenodd" stroke="none"/>
      <path d="M50.7 -0.95 L51.5 -0.95 51.8 -0.75 52.3 -0.4 Q52.6 -0.2 53.05 0.05 L55.8 2.35 55.85 2.35 55.85 2.9 55.6 2.95 55.05 3.05 54.05 3.35 50.95 1.05 50.8 0.3 50.7 -0.95" fill="#0ad8f0" fill-rule="evenodd" stroke="none"/>
      <path d="M53.65 -0.95 L55.5 -0.95 55.85 -0.65 55.85 1.1 54.7 0.35 54.25 0.15 53.35 -0.35 52.8 -0.65 53.65 -0.95" fill="#20d7f6" fill-rule="evenodd" stroke="none"/>
      <path d="M54.4 3.6 L53.6 4.2 53.55 4.2 51.65 5.35 49.05 2.0 50.3 0.85 50.35 0.75 50.4 0.7 50.95 1.05 54.05 3.35 54.4 3.6" fill="#0ac1eb" fill-rule="evenodd" stroke="none"/>
      <path d="M55.85 4.75 L55.85 8.3 54.0 9.35 52.65 7.05 51.65 5.35 53.55 4.2 53.6 4.2 54.4 3.6 55.85 4.75" fill="#15b6fe" fill-rule="evenodd" stroke="none"/>
      <path d="M55.85 2.9 L55.85 4.75 54.4 3.6 54.05 3.35 55.05 3.05 55.6 2.95 55.85 2.9" fill="#1ecbff" fill-rule="evenodd" stroke="none"/>
      <path d="M51.75 11.4 L51.65 11.1 49.25 7.3 49.25 7.25 50.15 6.85 51.45 8.95 52.75 11.25 51.75 11.4" fill="#32e2fa" fill-rule="evenodd" stroke="none"/>
      <path d="M52.65 7.05 L54.0 9.35 54.5 10.45 54.2 11.35 54.0 12.1 53.9 11.85 53.8 11.6 53.6 11.25 52.8 9.75 51.85 8.2 52.65 7.05" fill="#25c2f7" fill-rule="evenodd" stroke="none"/>
      <path d="M55.85 8.3 L55.85 13.35 55.2 11.8 54.95 11.35 54.5 10.45 54.0 9.35 55.85 8.3" fill="#1dadff" fill-rule="evenodd" stroke="none"/>
      <path d="M55.85 13.35 L55.85 16.65 55.6 15.95 55.1 14.55 54.05 12.25 54.0 12.1 54.2 11.35 54.5 10.45 54.95 11.35 55.2 11.8 55.85 13.35" fill="#22cefe" fill-rule="evenodd" stroke="none"/>
      <path d="M55.85 16.65 L55.85 18.5 54.95 16.0 53.65 13.05 53.6 13.05 53.65 12.4 53.7 12.1 53.75 11.95 53.8 11.6 53.9 11.85 54.0 12.1 54.05 12.25 55.1 14.55 55.6 15.95 55.85 16.65 M19.95 26.85 L20.1 26.95 21.4 27.6 21.25 28.35 21.1 28.25 20.8 28.15 19.8 27.85 19.5 27.7 19.35 27.65 19.3 27.65 18.8 28.15 18.8 28.1 18.5 27.5 18.75 27.3 19.0 27.1 19.25 26.9 19.55 26.6 19.95 26.85" fill="#c6ffff" fill-rule="evenodd" stroke="none"/>
      <path d="M51.75 11.4 L52.75 11.25 53.25 12.2 53.4 12.55 53.6 13.05 53.65 13.05 54.95 16.0 53.8 16.15 53.6 16.15 53.55 16.05 53.3 14.95 52.6 13.0 52.55 12.95 52.35 12.6 51.75 11.4" fill="#1fe8fc" fill-rule="evenodd" stroke="none"/>
      <path d="M55.85 18.5 L55.85 20.35 54.95 21.15 54.25 18.6 54.05 17.55 53.8 16.85 53.65 16.35 53.6 16.15 53.8 16.15 54.95 16.0 55.85 18.5" fill="#28e6ff" fill-rule="evenodd" stroke="none"/>
      <path d="M55.85 20.35 L55.85 22.15 55.55 22.3 Q54.85 22.8 54.85 23.55 L54.9 24.5 54.95 24.7 54.75 24.9 54.05 25.7 54.05 25.1 Q54.05 24.4 54.35 23.1 L54.95 21.45 55.0 21.3 54.95 21.25 54.95 21.15 55.85 20.35" fill="#2cf0ff" fill-rule="evenodd" stroke="none"/>
      <path d="M55.85 22.85 L55.85 23.65 55.5 24.1 55.4 23.6 55.4 23.5 55.85 22.85" fill="#36d6ec" fill-rule="evenodd" stroke="none"/>
      <path d="M55.85 23.65 L55.85 25.35 55.55 25.65 55.45 25.8 54.95 26.25 54.75 24.9 54.95 24.7 55.5 24.1 55.85 23.65" fill="#c3f5ff" fill-rule="evenodd" stroke="none"/>
      <path d="M53.7 26.05 L53.95 25.8 54.05 25.7 54.75 24.9 54.95 26.25 54.25 26.9 54.2 26.95 54.0 27.25 53.8 27.35 51.1 29.5 50.65 29.75 50.7 29.0 50.75 28.8 53.7 26.05" fill="#f7fffa" fill-rule="evenodd" stroke="none"/>
      <path d="M41.05 6.15 L41.35 4.95 40.6 4.3 40.15 4.1 40.3 3.8 40.6 3.35 41.8 4.5 42.05 4.75 42.35 5.15 41.65 6.65 41.1 6.15 41.05 6.15" fill="#a3ffff" fill-rule="evenodd" stroke="none"/>
      <path d="M34.75 5.0 L34.65 5.35 34.6 5.65 34.6 6.1 33.9 5.9 32.5 5.6 32.35 5.55 32.3 5.55 31.75 5.5 29.6 5.35 28.25 5.45 28.05 5.45 27.75 5.5 27.7 4.9 31.3 4.75 31.35 4.75 32.2 4.75 32.25 4.75 33.05 4.8 33.1 4.8 33.5 4.9 33.85 4.9 33.95 4.95 34.0 4.95 34.75 5.0 M15.6 26.3 L14.9 25.1 15.15 24.75 15.25 24.5 15.3 24.4 15.75 23.8 16.4 24.1 16.5 24.15 16.35 24.35 16.05 24.95 15.95 25.3 16.15 25.65 16.65 26.5 16.3 27.4 15.6 26.3" fill="#97ffff" fill-rule="evenodd" stroke="none"/>
      <path d="M20.3 3.45 L20.65 3.3 21.9 2.55 22.2 3.05 22.8 3.85 23.0 4.1 22.55 5.05 21.65 4.05 Q21.2 4.15 20.7 4.4 L20.3 3.45" fill="#f2ffff" fill-rule="evenodd" stroke="none"/>
      <path d="M18.75 4.6 Q19.4 4.05 20.3 3.45 L20.7 4.4 20.05 4.65 19.6 4.85 19.0 5.25 19.55 6.45 18.85 6.95 17.8 5.35 18.75 4.6" fill="#b1fbff" fill-rule="evenodd" stroke="none"/>
      <path d="M27.7 4.9 L27.75 5.5 25.15 6.05 25.05 6.05 24.9 6.15 23.55 6.65 23.5 6.65 23.2 6.05 23.05 5.7 22.6 5.1 22.55 5.05 23.0 4.1 24.05 5.6 25.05 5.35 25.45 5.2 26.0 5.15 26.5 5.0 27.15 4.95 27.7 4.9" fill="#adffff" fill-rule="evenodd" stroke="none"/>
      <path d="M15.75 22.15 L16.8 22.0 17.3 23.0 17.15 23.2 17.05 23.35 Q16.7 23.65 16.5 24.15 L16.4 24.1 15.75 23.8 15.95 23.4 16.2 22.9 15.9 22.45 15.75 22.15" fill="#dbfcff" fill-rule="evenodd" stroke="none"/>
      <path d="M16.3 27.4 L16.65 26.5 16.8 26.6 17.55 27.7 17.9 28.05 18.5 27.5 18.8 28.1 18.8 28.15 18.6 28.4 Q18.05 29.0 17.85 29.5 L17.5 29.1 17.1 28.55 16.3 27.45 16.3 27.4" fill="#e4feff" fill-rule="evenodd" stroke="none"/>
      <path d="M47.45 15.25 L47.35 15.25 46.1 15.9 45.65 15.25 45.6 15.2 45.75 15.05 46.65 14.55 46.7 14.55 46.95 14.3 47.35 14.05 47.7 15.05 47.45 15.25" fill="#c8faff" fill-rule="evenodd" stroke="none"/>
      <path d="M44.5 20.95 L44.65 20.6 44.85 18.45 44.85 17.9 44.9 17.9 45.6 18.05 45.45 19.3 45.4 20.5 45.15 20.55 44.75 20.8 44.55 20.95 44.5 20.95" fill="#92ffff" fill-rule="evenodd" stroke="none"/>
      <path d="M44.3 21.6 L44.35 21.45 44.45 21.0 44.5 20.95 44.55 20.95 44.75 20.8 45.15 20.55 45.4 20.5 45.4 20.55 45.4 20.75 45.5 21.55 45.6 21.9 45.65 22.4 45.55 23.1 44.65 22.45 44.05 22.05 44.3 21.6" fill="#d6ffff" fill-rule="evenodd" stroke="none"/>
      <path d="M45.0 24.6 L45.05 24.6 45.8 25.3 45.85 25.4 45.85 25.45 45.1 26.3 45.0 26.5 44.05 27.4 43.9 27.6 43.85 27.6 43.65 27.4 43.05 26.8 43.05 26.75 43.3 25.5 44.2 26.0 44.45 25.65 45.0 24.6" fill="#a8ffff" fill-rule="evenodd" stroke="none"/>
      <path d="M11.7 16.15 L12.15 14.05 12.35 13.1 13.2 13.75 13.0 14.25 12.7 16.0 12.6 16.0 11.7 16.15" fill="#78efff" fill-rule="evenodd" stroke="none"/>
      <path d="M13.55 17.85 L13.1 17.7 12.7 17.65 12.65 17.15 12.7 16.45 13.75 16.75 13.55 17.85" fill="#abffff" fill-rule="evenodd" stroke="none"/>
      <path d="M14.35 19.05 L14.3 18.8 14.25 18.7 13.95 17.9 13.55 17.85 13.75 16.75 15.0 17.05 15.4 18.4 15.5 18.65 15.5 18.75 15.55 18.85 15.45 18.9 14.95 19.05 14.4 19.2 14.35 19.05" fill="#f3fcfb" fill-rule="evenodd" stroke="none"/>
      <path d="M15.55 18.85 L16.65 21.45 16.8 22.0 15.75 22.15 15.5 21.7 14.85 20.3 14.4 19.2 14.95 19.05 15.45 18.9 15.55 18.85" fill="#86fcff" fill-rule="evenodd" stroke="none"/>
      <path d="M29.8 29.8 L30.25 30.8 30.05 30.8 29.25 30.8 28.5 30.65 28.45 30.65 27.55 31.65 26.75 30.75 26.9 30.55 27.5 29.85 27.6 29.65 27.65 29.65 29.0 29.8 29.2 29.8 29.8 29.8" fill="#a6ffff" fill-rule="evenodd" stroke="none"/>
      <path d="M27.9 10.7 L29.0 10.7 32.45 11.05 32.55 11.05 32.6 11.45 32.65 12.2 32.7 12.8 32.75 13.5 32.65 13.45 32.0 13.4 30.65 13.7 29.4 14.45 28.65 15.1 28.3 14.05 Q27.65 12.2 27.5 10.75 L27.9 10.7" fill="#e2feff" fill-rule="evenodd" stroke="none"/>
      <path d="M27.55 9.3 L27.7 9.75 27.9 10.7 27.5 10.75 27.0 10.85 26.75 10.9 26.75 10.95 26.3 10.75 26.05 10.7 26.0 10.7 25.45 11.3 Q25.3 11.55 25.3 11.9 L25.45 12.3 25.3 12.35 24.8 13.55 Q24.6 13.9 24.3 15.75 L24.15 16.7 24.1 17.6 24.1 18.1 22.5 17.65 21.2 17.1 21.5 15.4 22.2 13.0 Q22.75 11.65 23.4 10.85 L24.1 10.5 25.4 9.95 Q26.45 9.5 27.55 9.3" fill="#9efdf9" fill-rule="evenodd" stroke="none"/>
      <path d="M25.45 12.3 L25.3 11.9 Q25.3 11.55 25.45 11.3 L26.0 10.7 26.05 10.7 26.3 10.75 26.75 10.95 27.0 11.1 27.0 11.15 Q27.45 11.55 27.45 12.05 L27.15 12.6 26.8 12.85 26.55 12.9 26.35 12.95 25.75 12.7 25.45 12.3" fill="#fbfffc" fill-rule="evenodd" stroke="none"/>
      <path d="M21.2 17.1 L22.5 17.65 24.1 18.1 24.2 19.55 Q24.45 21.3 25.25 22.6 L25.75 23.35 24.7 25.75 24.5 26.05 23.7 25.5 23.05 24.75 Q21.5 22.8 21.25 19.8 L21.2 18.4 21.2 17.1" fill="#86fcfc" fill-rule="evenodd" stroke="none"/>
      <path d="M25.75 23.35 L25.25 22.6 Q24.45 21.3 24.2 19.55 L26.75 19.75 27.0 19.75 27.15 20.5 Q27.5 22.4 29.05 23.4 L29.1 23.4 28.9 23.85 28.45 25.05 28.4 25.25 26.55 24.2 25.75 23.35" fill="#d5f7ff" fill-rule="evenodd" stroke="none"/>
      <path d="M37.15 22.7 L37.6 23.0 37.6 23.05 36.95 23.75 36.1 24.35 Q35.0 25.1 33.6 25.45 L33.25 25.5 31.1 25.7 30.15 25.7 29.9 25.3 29.45 25.1 29.3 25.05 29.15 25.05 Q28.85 25.1 28.65 25.3 L28.4 25.25 28.45 25.05 28.9 23.85 29.1 23.4 29.25 23.5 30.05 23.85 32.75 24.35 32.9 24.35 33.65 24.3 Q34.9 24.25 35.9 23.7 L36.95 22.85 37.15 22.7" fill="#c9fcfd" fill-rule="evenodd" stroke="none"/>
      <path d="M28.65 25.3 Q28.85 25.1 29.15 25.05 L29.3 25.05 29.45 25.1 29.9 25.3 30.15 25.7 30.3 26.1 30.1 26.7 29.95 26.9 29.25 27.15 28.6 26.9 28.2 26.25 Q28.2 25.8 28.5 25.45 L28.65 25.3" fill="#fff9ff" fill-rule="evenodd" stroke="none"/>
      <path d="M32.85 11.2 L32.95 10.2 32.95 10.05 Q33.45 10.25 34.0 10.6 L35.85 11.7 Q37.95 13.1 38.95 14.85 L38.05 15.8 37.75 15.25 37.25 14.45 Q36.45 13.2 34.65 12.0 33.9 11.45 32.85 11.2" fill="#b0fffe" fill-rule="evenodd" stroke="none"/>
      <path d="M39.0 18.95 L38.95 18.95 38.55 18.85 Q38.45 18.85 38.1 19.05 L37.65 17.35 37.3 16.6 37.0 16.15 37.75 15.25 38.05 15.8 38.45 16.75 38.65 17.35 39.0 18.8 39.0 18.85 39.0 18.95" fill="#fafefd" fill-rule="evenodd" stroke="none"/>
      <path d="M39.9 19.55 Q40.7 20.25 40.7 21.5 L40.65 22.1 39.85 23.1 38.7 23.3 38.1 23.2 37.6 23.05 37.6 23.0 37.15 22.7 Q38.05 21.55 38.15 20.1 L38.15 19.9 38.1 19.05 Q38.45 18.85 38.55 18.85 L38.95 18.95 39.0 18.95 39.85 19.4 39.9 19.55" fill="#fffaf8" fill-rule="evenodd" stroke="none"/>
      <path d="M37.6 23.05 L38.1 23.2 36.8 24.35 33.6 26.25 33.25 25.5 33.6 25.45 Q35.0 25.1 36.1 24.35 L36.95 23.75 37.6 23.05" fill="#74fcfc" fill-rule="evenodd" stroke="none"/>
    </g>
    <g id="shape2" transform="matrix(1.0, 0.0, 0.0, 1.0, 0.0, 0.0)">
      <path d="M50.5 0.0 Q53.95 0.0 53.95 3.3 L53.95 50.15 Q53.95 53.4 50.5 53.4 L3.3 53.4 Q0.0 53.4 0.0 50.15 L0.0 3.3 Q0.0 0.0 3.3 0.0 L50.5 0.0" fill="#000000" fill-opacity="0.003921569" fill-rule="evenodd" stroke="none"/>
    </g>
  </defs>
</svg>
