<?xml version="1.0" encoding="UTF-8" standalone="no"?>
<svg xmlns:ffdec="https://www.free-decompiler.com/flash" xmlns:xlink="http://www.w3.org/1999/xlink" ffdec:objectType="frame" height="54.55px" width="54.85px" xmlns="http://www.w3.org/2000/svg">
  <g transform="matrix(1.0, 0.0, 0.0, 1.0, 0.5, 0.55)">
    <clipPath id="clipPath0" transform="matrix(1.0, 0.0, 0.0, 1.0, 0.0, 0.0)">
      <path d="M50.5 0.0 Q53.95 0.0 53.95 3.3 L53.95 50.15 Q53.95 53.4 50.5 53.4 L3.3 53.4 Q0.0 53.4 0.0 50.15 L0.0 3.3 Q0.0 0.0 3.3 0.0 L50.5 0.0" fill="#000000" fill-rule="evenodd" stroke="none"/>
    </clipPath>
    <g clip-path="url(#clipPath0)">
      <use ffdec:characterId="2" height="54.55" transform="matrix(1.0, 0.0, 0.0, 1.0, -0.5, -0.55)" width="54.85" xlink:href="#shape1"/>
    </g>
    <use ffdec:characterId="3" height="53.4" transform="matrix(1.0, 0.0, 0.0, 1.0, 0.0, 0.0)" width="53.95" xlink:href="#shape2"/>
  </g>
  <defs>
    <g id="shape1" transform="matrix(1.0, 0.0, 0.0, 1.0, 0.5, 0.55)">
      <path d="M48.85 45.1 L49.25 44.6 49.4 44.75 48.85 45.1 M3.05 26.55 L3.0 27.75 3.05 29.2 2.65 29.3 1.75 29.65 0.95 27.95 0.3 27.6 0.8 27.35 3.05 26.55 M7.85 43.65 L8.1 43.3 8.25 43.2 8.3 43.15 8.3 43.2 8.3 43.6 8.15 44.2 7.9 43.7 7.85 43.65 M34.8 51.45 L34.85 51.55 34.95 51.65 35.1 52.1 35.05 52.1 34.65 52.5 34.7 51.9 34.8 51.55 34.8 51.45" fill="#b17fa8" fill-rule="evenodd" stroke="none"/>
      <path d="M3.1 29.9 Q3.4 32.55 4.35 35.25 3.0 33.65 2.95 31.6 L3.1 29.9" fill="#6a568a" fill-rule="evenodd" stroke="none"/>
      <path d="M48.85 40.8 Q51.15 43.3 52.5 46.25 L53.7 49.5 53.2 49.65 Q53.1 49.15 51.4 48.3 49.65 47.4 48.6 47.85 46.55 48.8 45.95 50.3 L45.85 50.55 Q45.7 50.3 44.4 50.05 L43.6 49.95 42.75 49.95 42.0 50.1 Q41.4 50.4 40.95 51.1 L40.55 51.75 40.45 52.0 40.35 51.95 39.95 51.4 40.1 51.4 40.0 51.2 Q39.75 50.65 39.9 50.0 L42.15 49.1 Q44.4 48.1 45.85 46.85 L47.85 44.8 48.2 44.85 48.85 45.1 49.4 44.75 49.25 44.6 48.45 43.6 48.7 42.7 48.75 42.0 48.85 40.8 M50.3 46.35 L49.75 45.35 49.4 44.75 49.75 45.35 50.3 46.35 M0.0 27.75 L0.3 27.6 0.95 27.95 1.75 29.65 0.0 30.35 0.0 27.75 M0.0 34.25 L0.7 35.15 0.9 36.0 0.75 36.35 1.65 36.55 2.6 37.0 2.65 37.05 3.0 37.3 Q3.65 37.9 3.9 39.2 L3.95 39.6 Q4.0 40.7 3.45 41.35 L3.35 41.45 3.4 41.55 2.9 41.9 2.8 41.95 2.7 41.7 2.55 40.95 Q2.3 40.1 1.85 39.7 L1.2 39.25 0.4 39.05 0.0 38.95 0.0 34.25 M8.3 43.15 L8.8 42.95 9.4 43.5 10.75 44.5 10.95 44.5 11.0 44.85 9.8 45.3 8.6 45.2 8.3 44.5 8.3 44.45 8.15 44.2 8.3 43.6 8.3 43.2 8.3 43.15 M31.9 51.55 L32.15 51.2 32.7 50.65 33.1 49.85 33.1 49.95 32.9 50.45 32.7 50.65 33.1 51.0 33.65 51.05 34.1 51.1 34.4 51.1 34.8 51.45 34.8 51.55 34.7 51.9 34.65 52.5 34.45 52.75 34.4 52.8 33.9 53.35 Q33.45 53.55 32.8 53.05 L32.5 52.85 32.25 51.8 31.9 51.55" fill="#a774ac" fill-rule="evenodd" stroke="none"/>
      <path d="M48.45 43.6 L49.25 44.6 48.85 45.1 48.2 44.85 47.85 44.8 48.0 44.55 48.45 43.6 M39.9 50.0 Q39.75 50.65 40.0 51.2 L40.1 51.4 39.95 51.4 40.35 51.95 40.45 52.0 40.1 52.95 Q39.25 52.55 38.2 52.25 L35.85 51.95 35.1 52.1 34.95 51.65 34.85 51.55 34.8 51.45 34.4 51.1 34.55 51.1 37.7 50.6 38.45 50.4 39.4 50.15 39.9 50.0 M3.05 29.2 L3.1 29.9 2.95 31.6 Q3.0 33.65 4.35 35.25 L5.1 37.2 5.45 38.05 5.5 38.1 Q6.9 41.0 8.7 42.85 L8.8 42.95 8.3 43.15 8.25 43.2 8.1 43.3 7.85 43.65 7.15 43.3 Q6.3 42.9 4.85 42.85 L2.85 42.95 2.8 41.95 2.9 41.9 3.4 41.55 3.35 41.45 3.45 41.35 Q4.0 40.7 3.95 39.6 L3.9 39.2 Q3.65 37.9 3.0 37.3 L2.65 37.05 2.6 37.0 1.65 36.55 0.75 36.35 0.9 36.0 0.7 35.15 0.0 34.25 0.0 30.35 1.75 29.65 2.65 29.3 3.05 29.2" fill="#7b6a96" fill-rule="evenodd" stroke="none"/>
      <path d="M45.0 10.6 Q47.3 10.15 48.05 11.1 L48.15 11.35 Q48.6 12.3 48.0 15.05 47.5 17.55 46.5 20.1 L46.15 19.45 45.6 18.5 46.75 15.65 Q47.55 13.2 47.35 12.15 L47.1 11.6 46.25 11.1 45.0 10.95 45.0 10.6 M29.6 10.1 Q28.6 10.75 26.5 11.6 L24.7 12.25 24.4 11.45 24.3 11.25 Q25.85 10.7 27.2 9.75 L27.7 9.35 27.35 8.25 Q26.75 6.4 25.55 4.4 24.1 1.9 22.95 1.3 L22.25 1.1 Q21.85 1.1 21.0 1.55 L19.8 2.55 19.45 2.3 Q21.1 -0.05 22.6 -0.05 L22.95 0.0 Q24.15 0.3 26.15 2.8 28.2 5.4 29.7 8.65 L29.95 9.2 30.15 9.6 29.6 10.1" fill="#76597b" fill-rule="evenodd" stroke="none"/>
      <path d="M45.0 10.6 L45.0 10.95 46.25 11.1 47.1 11.6 47.35 12.15 43.9 15.5 43.55 16.1 Q41.8 14.45 39.25 12.8 40.65 12.0 42.85 11.2 L45.0 10.6 M24.7 12.25 L21.75 12.8 Q19.8 12.8 17.95 12.1 L16.8 11.55 16.6 11.4 16.2 11.0 15.9 10.85 Q15.95 10.3 16.15 9.7 16.65 7.65 18.05 4.7 L19.45 2.3 19.8 2.55 21.0 1.55 Q21.85 1.1 22.25 1.1 L22.95 1.3 22.95 6.9 23.25 7.95 23.75 9.7 24.3 11.25 24.4 11.45 24.7 12.25" fill="#47384f" fill-rule="evenodd" stroke="none"/>
      <path d="M47.35 12.15 Q47.55 13.2 46.75 15.65 L45.6 18.5 43.55 16.1 43.9 15.5 47.35 12.15 M24.3 11.25 L23.75 9.7 23.25 7.95 22.95 6.9 22.95 1.3 Q24.1 1.9 25.55 4.4 26.75 6.4 27.35 8.25 L27.7 9.35 27.2 9.75 Q25.85 10.7 24.3 11.25" fill="#5e4762" fill-rule="evenodd" stroke="none"/>
      <path d="M49.0 28.6 L49.0 28.75 Q49.45 33.35 49.15 37.4 L48.85 40.8 48.75 42.0 48.7 42.7 48.25 42.85 47.9 43.0 Q44.95 43.95 42.9 43.95 L42.45 43.95 42.4 43.95 39.15 43.35 40.65 42.65 42.4 41.55 43.65 40.45 43.75 40.5 45.7 41.0 45.95 41.05 Q47.35 41.3 47.7 40.75 L47.8 40.2 47.85 39.75 Q47.8 39.0 47.2 38.2 L46.0 37.1 46.9 34.5 47.1 33.45 Q48.25 32.2 48.35 30.3 48.4 28.5 47.4 27.1 46.75 26.2 45.9 25.85 L44.85 24.05 Q41.6 19.05 35.75 17.45 30.5 15.95 25.9 18.05 24.6 17.1 22.9 17.0 L22.85 17.0 22.75 17.0 Q20.3 16.8 18.5 18.45 16.65 20.05 16.5 22.5 15.95 20.15 15.8 17.2 L15.8 15.45 Q15.8 13.4 16.45 11.45 L16.6 11.4 16.8 11.55 17.95 12.1 Q19.8 12.8 21.75 12.8 L24.7 12.25 26.5 11.6 Q28.6 10.75 29.6 10.1 L32.8 11.05 Q35.3 12.15 37.95 14.4 L38.0 14.45 37.95 14.6 37.95 14.65 Q37.95 15.3 38.3 16.0 L39.2 17.25 Q40.5 18.65 42.05 18.75 L42.25 18.75 43.15 18.55 43.5 18.2 44.8 19.95 45.8 21.6 46.8 23.45 Q48.25 26.25 48.95 28.6 L49.0 28.6 M18.55 27.65 L18.4 27.4 18.55 27.55 18.55 27.65 M31.0 50.65 L31.45 51.1 31.75 51.45 31.9 51.55 32.25 51.8 32.5 52.85 32.55 53.3 32.6 53.5 27.45 53.5 27.5 53.0 27.65 52.05 27.7 51.65 27.6 50.45 27.6 49.2 27.0 49.0 26.3 48.7 25.85 48.6 25.0 48.4 24.6 48.85 24.35 49.4 24.8 49.55 24.35 50.85 23.75 52.8 23.25 52.0 Q22.8 51.05 22.8 50.0 22.8 48.15 23.85 46.9 L23.95 46.8 25.65 47.45 26.3 47.7 26.35 47.75 26.6 47.85 28.0 48.55 28.15 48.6 29.1 49.15 29.75 49.6 29.95 49.75 31.0 50.65" fill="#eb9447" fill-rule="evenodd" stroke="none"/>
      <path d="M45.6 18.5 L46.15 19.45 46.5 20.1 Q48.6 24.2 49.0 28.6 L48.95 28.6 Q48.25 26.25 46.8 23.45 L45.8 21.6 44.8 19.95 43.5 18.2 43.15 18.55 42.25 18.75 42.05 18.75 Q40.5 18.65 39.2 17.25 L38.3 16.0 Q37.95 15.3 37.95 14.65 L37.95 14.6 38.0 14.45 37.95 14.4 Q35.3 12.15 32.8 11.05 L29.6 10.1 30.15 9.6 29.95 9.2 29.7 8.65 30.2 8.75 Q33.3 9.4 35.4 10.5 L39.25 12.8 Q41.8 14.45 43.55 16.1 L45.6 18.5 M16.6 11.4 L16.45 11.45 Q14.15 12.45 12.35 13.9 12.35 13.05 12.6 12.55 13.1 11.3 14.75 10.35 L16.15 9.7 Q15.95 10.3 15.9 10.85 L16.2 11.0 16.6 11.4" fill="#f7ce68" fill-rule="evenodd" stroke="none"/>
      <path d="M16.5 22.5 Q16.65 20.05 18.5 18.45 20.3 16.8 22.75 17.0 L22.85 17.35 Q20.75 17.25 19.15 18.75 17.55 20.25 17.45 22.5 17.35 24.75 18.7 26.4 L18.8 26.45 Q20.1 28.0 22.1 28.15 24.2 28.3 25.85 26.8 27.35 25.35 27.45 23.1 27.6 20.85 26.25 19.15 L25.4 18.3 Q24.3 17.45 22.85 17.35 L22.9 17.0 Q24.6 17.1 25.9 18.05 L26.95 19.0 Q28.55 20.85 28.45 23.3 28.25 25.85 26.45 27.5 24.6 29.05 22.1 28.95 20.05 28.8 18.55 27.55 L18.4 27.4 17.95 26.95 Q16.35 25.05 16.5 22.55 L16.5 22.5 M45.9 25.85 Q46.75 26.2 47.4 27.1 48.4 28.5 48.35 30.3 48.25 32.2 47.1 33.45 45.95 34.6 44.4 34.5 42.8 34.4 41.8 33.05 40.8 31.65 40.85 29.75 40.95 27.9 42.15 26.7 43.25 25.45 44.75 25.65 L44.85 25.9 Q43.55 25.8 42.5 26.9 41.55 28.05 41.45 29.75 41.4 31.35 42.25 32.6 43.1 33.8 44.4 33.95 45.7 34.05 46.7 32.9 L47.2 32.2 Q47.65 31.3 47.7 30.2 47.8 28.5 46.95 27.25 46.6 26.65 46.1 26.35 45.55 25.95 44.85 25.9 L44.85 25.65 45.9 25.85" fill="#ffefbf" fill-rule="evenodd" stroke="none"/>
      <path d="M22.75 17.0 L22.85 17.0 22.9 17.0 22.85 17.35 Q24.3 17.45 25.4 18.3 L26.25 19.15 Q27.6 20.85 27.45 23.1 27.35 25.35 25.85 26.8 24.2 28.3 22.1 28.15 20.1 28.0 18.8 26.45 L18.7 26.4 Q17.35 24.75 17.45 22.5 17.55 20.25 19.15 18.75 20.75 17.25 22.85 17.35 L22.75 17.0 M44.85 25.65 L44.85 25.9 Q45.55 25.95 46.1 26.35 46.6 26.65 46.95 27.25 47.8 28.5 47.7 30.2 47.65 31.3 47.2 32.2 L46.7 32.9 Q45.7 34.05 44.4 33.95 43.1 33.8 42.25 32.6 41.4 31.35 41.45 29.75 41.55 28.05 42.5 26.9 43.55 25.8 44.85 25.9 L44.75 25.65 44.85 25.65" fill="#fee9e6" fill-rule="evenodd" stroke="none"/>
      <path d="M25.9 18.05 Q30.5 15.95 35.75 17.45 41.6 19.05 44.85 24.05 L45.9 25.85 44.85 25.65 44.75 25.65 Q43.25 25.45 42.15 26.7 40.95 27.9 40.85 29.75 40.8 31.65 41.8 33.05 42.8 34.4 44.4 34.5 45.95 34.6 47.1 33.45 L46.9 34.5 46.0 37.1 45.3 36.7 Q44.05 36.1 43.3 36.25 42.25 36.4 41.95 37.9 L41.95 38.4 42.05 38.95 42.45 39.65 43.65 40.45 42.4 41.55 40.65 42.65 39.15 43.35 37.0 44.05 35.55 44.25 33.45 44.35 33.1 44.35 32.5 44.25 32.25 44.25 31.9 44.2 31.8 44.2 31.25 44.1 31.15 44.05 30.3 43.9 29.85 43.75 29.4 43.6 29.05 43.5 27.7 43.0 Q26.5 42.5 25.45 41.8 L24.1 40.85 23.75 40.55 22.95 39.85 21.05 37.6 20.75 37.15 20.2 36.25 Q19.65 35.25 19.25 34.25 L19.25 34.2 19.0 33.6 18.75 32.55 18.95 32.55 Q20.6 32.4 20.85 31.75 L20.75 31.2 Q20.7 30.25 19.45 29.45 L18.4 28.9 18.4 28.8 18.55 27.65 18.55 27.55 Q20.05 28.8 22.1 28.95 24.6 29.05 26.45 27.5 28.25 25.85 28.45 23.3 28.55 20.85 26.95 19.0 L25.9 18.05 M23.6 53.5 L23.75 52.8 24.35 50.85 24.8 49.55 24.85 49.35 25.3 49.5 26.1 49.8 26.5 50.0 26.55 52.15 26.5 52.75 26.5 52.95 26.5 53.5 23.6 53.5 M30.75 32.65 L29.85 33.1 Q29.15 33.6 29.15 34.0 29.15 35.35 30.2 36.25 31.3 37.15 33.0 37.15 L33.35 37.15 33.4 37.15 34.35 37.1 35.6 36.4 Q35.95 37.45 36.45 38.1 L36.6 38.3 Q37.15 38.95 37.85 38.95 38.45 38.95 39.15 38.3 L39.8 37.6 39.15 38.3 Q38.45 38.95 37.85 38.95 37.15 38.95 36.6 38.3 L36.45 38.1 Q35.95 37.45 35.6 36.4 L34.35 37.1 33.4 37.15 33.35 37.15 33.0 37.15 Q31.3 37.15 30.2 36.25 29.15 35.35 29.15 34.0 29.15 33.6 29.85 33.1 L30.75 32.65" fill="#3a1017" fill-rule="evenodd" stroke="none"/>
      <path d="M46.0 37.1 L47.2 38.2 Q47.8 39.0 47.85 39.75 L47.8 40.2 47.7 40.75 Q47.35 41.3 45.95 41.05 L45.7 41.0 43.75 40.5 43.65 40.45 42.45 39.65 42.05 38.95 41.95 38.4 41.95 37.9 Q42.25 36.4 43.3 36.25 44.05 36.1 45.3 36.7 L46.0 37.1 M17.55 32.65 L14.8 32.2 14.55 32.1 Q13.7 31.6 13.5 30.85 L13.45 30.55 Q13.4 29.8 13.6 29.35 14.2 28.1 16.8 28.5 L16.9 28.5 18.4 28.9 19.45 29.45 Q20.7 30.25 20.75 31.2 L20.85 31.75 Q20.6 32.4 18.95 32.55 L18.75 32.55 17.55 32.65" fill="#e78a9f" fill-rule="evenodd" stroke="none"/>
      <path d="M16.45 11.45 Q15.8 13.4 15.8 15.45 L15.8 17.2 Q15.95 20.15 16.5 22.5 L16.5 22.55 Q16.35 25.05 17.95 26.95 L18.4 27.4 18.55 27.65 18.4 28.8 18.4 28.9 16.9 28.5 16.8 28.5 15.65 26.3 Q14.15 23.7 13.1 22.65 L12.45 22.05 Q10.65 20.65 8.25 20.65 6.3 20.65 4.8 21.9 4.1 22.5 3.55 23.35 5.0 17.95 10.05 13.55 12.25 11.65 14.75 10.35 13.1 11.3 12.6 12.55 12.35 13.05 12.35 13.9 14.15 12.45 16.45 11.45 M39.15 43.35 L42.4 43.95 42.45 43.95 42.9 43.95 Q44.95 43.95 47.9 43.0 L48.25 42.85 48.7 42.7 48.45 43.6 48.0 44.55 47.85 44.8 45.85 46.85 Q44.4 48.1 42.15 49.1 L39.9 50.0 39.4 50.15 38.45 50.4 37.7 50.6 34.55 51.1 34.4 51.1 34.1 51.1 33.65 51.05 33.1 51.0 32.7 50.65 32.9 50.45 33.1 49.95 33.4 50.0 33.85 49.95 33.9 49.95 34.05 49.95 34.1 49.95 35.2 49.85 37.2 49.35 37.9 49.15 38.2 49.0 41.05 47.55 Q41.0 46.85 40.35 45.8 L40.25 45.65 39.35 44.45 39.25 44.45 37.4 44.9 37.25 44.9 35.8 45.2 34.8 45.3 33.65 45.25 32.9 45.15 32.8 45.1 32.7 45.05 32.05 44.8 31.85 44.7 31.25 44.1 31.8 44.2 31.9 44.2 32.25 44.25 32.5 44.25 33.1 44.35 33.45 44.35 35.55 44.25 37.0 44.05 39.15 43.35 M22.95 39.85 L20.45 37.65 19.65 36.6 19.0 35.55 18.7 35.0 18.55 34.75 18.5 34.7 18.0 33.65 17.95 33.5 17.55 32.65 18.75 32.55 19.0 33.6 19.25 34.2 19.25 34.25 Q19.65 35.25 20.2 36.25 L20.75 37.15 21.05 37.6 22.95 39.85 M11.9 45.95 L12.3 46.05 12.6 45.55 12.75 45.45 12.8 45.45 12.95 45.35 13.25 45.15 13.4 45.1 14.5 44.9 14.7 44.9 14.55 45.05 13.6 46.0 13.05 46.65 12.75 46.95 11.5 48.55 10.9 49.5 10.3 50.75 9.95 51.5 9.8 51.9 9.6 52.4 10.6 53.5 8.6 53.5 7.6 52.0 7.7 51.55 8.4 50.5 8.75 50.1 9.3 49.5 9.65 49.15 10.7 47.8 11.9 45.95 M18.2 53.5 Q17.6 52.4 17.6 51.15 L17.6 50.95 Q17.7 49.75 18.7 48.2 L19.15 47.5 Q20.05 46.5 20.85 46.45 L20.95 46.4 21.1 45.95 22.65 46.4 23.0 46.5 23.2 46.55 23.95 46.8 23.85 46.9 Q22.8 48.15 22.8 50.0 22.8 51.05 23.25 52.0 L23.75 52.8 23.6 53.5 18.2 53.5" fill="#db7434" fill-rule="evenodd" stroke="none"/>
      <path d="M3.55 23.35 Q4.1 22.5 4.8 21.9 6.3 20.65 8.25 20.65 10.65 20.65 12.45 22.05 L13.1 22.65 Q14.15 23.7 15.65 26.3 L16.8 28.5 Q14.2 28.1 13.6 29.35 13.4 29.8 13.45 30.55 L13.5 30.85 Q13.7 31.6 14.55 32.1 L14.8 32.2 17.55 32.65 17.95 33.5 18.0 33.65 18.5 34.7 18.55 34.75 18.7 35.0 19.0 35.55 19.65 36.6 20.45 37.65 22.95 39.85 23.75 40.55 24.1 40.85 25.45 41.8 Q26.5 42.5 27.7 43.0 L29.05 43.5 29.4 43.6 29.85 43.75 30.3 43.9 31.15 44.05 31.25 44.1 31.85 44.7 32.05 44.8 32.7 45.05 32.8 45.1 32.9 45.15 33.65 45.25 34.8 45.3 35.8 45.2 37.25 44.9 37.4 44.9 39.25 44.45 39.35 44.45 40.25 45.65 40.35 45.8 Q41.0 46.85 41.05 47.55 L38.2 49.0 37.9 49.15 37.2 49.35 35.2 49.85 34.1 49.95 35.1 49.35 Q35.7 48.85 35.7 48.1 35.7 46.95 33.8 46.2 L32.9 45.85 32.75 45.8 32.7 45.75 32.4 45.7 31.75 45.5 30.25 45.15 29.95 45.1 28.9 44.9 28.75 44.85 28.6 45.3 27.4 44.65 26.6 44.35 26.35 44.25 24.8 43.65 24.2 43.45 24.25 43.25 24.0 43.15 21.7 41.7 21.6 41.6 19.75 39.75 19.35 39.35 19.0 39.0 18.95 39.0 18.2 38.15 18.2 38.1 18.05 38.05 16.5 36.5 16.4 36.4 16.3 36.3 14.95 35.15 13.5 34.25 Q12.6 33.7 11.75 33.45 L11.7 33.45 10.3 33.25 9.05 33.4 Q8.6 33.55 8.2 33.75 7.5 34.05 6.95 34.6 L6.15 35.8 5.8 36.65 5.5 37.9 5.5 38.1 5.45 38.05 5.1 37.2 4.35 35.25 Q3.4 32.55 3.1 29.9 L3.05 29.2 3.0 27.75 3.05 26.55 Q3.15 24.9 3.55 23.35 M10.9 49.5 L11.3 50.1 Q12.0 51.05 13.1 51.1 L13.25 51.1 14.6 50.25 14.65 50.2 15.85 48.8 15.9 48.75 Q17.4 46.8 18.8 46.15 L19.6 45.85 19.65 45.55 20.25 45.7 20.3 45.75 20.75 45.85 20.9 45.9 21.1 45.95 20.95 46.4 20.85 46.45 Q20.05 46.5 19.15 47.5 L18.7 48.2 Q17.7 49.75 17.6 50.95 L17.6 51.15 Q17.6 52.4 18.2 53.5 L10.6 53.5 9.6 52.4 9.8 51.9 9.95 51.5 10.3 50.75 10.9 49.5 M24.8 49.55 L24.35 49.4 24.6 48.85 25.0 48.4 25.85 48.6 26.3 48.7 27.0 49.0 27.6 49.2 27.6 50.45 27.7 51.65 27.65 52.05 27.5 53.0 27.45 53.5 26.5 53.5 26.5 52.95 26.5 52.75 26.55 52.15 26.5 50.0 26.1 49.8 25.3 49.5 24.85 49.35 24.8 49.55" fill="#af652e" fill-rule="evenodd" stroke="none"/>
      <path d="M5.5 38.1 L5.5 37.9 5.8 36.65 6.15 35.8 6.95 34.6 Q7.5 34.05 8.2 33.75 8.6 33.55 9.05 33.4 L10.3 33.25 11.7 33.45 11.75 33.45 Q12.6 33.7 13.5 34.25 L14.95 35.15 16.3 36.3 16.4 36.4 16.5 36.5 18.05 38.05 18.2 38.1 18.2 38.15 18.95 39.0 19.0 39.0 19.35 39.35 19.75 39.75 21.6 41.6 21.7 41.7 24.0 43.15 24.25 43.25 24.2 43.45 24.15 43.4 23.5 43.2 22.4 42.85 20.25 42.35 19.8 42.25 19.15 42.15 19.1 42.15 19.0 42.1 18.55 42.05 18.45 42.05 17.75 41.95 16.45 41.9 15.95 41.9 15.05 41.95 14.75 41.95 14.45 42.0 14.05 42.05 13.1 42.2 12.8 42.3 12.2 42.55 12.1 42.6 Q10.95 43.2 10.95 44.5 L10.75 44.5 9.4 43.5 8.8 42.95 8.7 42.85 Q6.9 41.0 5.5 38.1 M28.6 45.3 L28.75 44.85 28.9 44.9 29.95 45.1 30.25 45.15 31.75 45.5 32.4 45.7 32.7 45.75 32.75 45.8 32.9 45.85 33.8 46.2 Q35.7 46.95 35.7 48.1 35.7 48.85 35.1 49.35 L34.1 49.95 34.05 49.95 33.9 49.95 33.85 49.95 33.4 50.0 33.1 49.95 33.1 49.85 Q33.1 48.4 31.35 47.0 L31.1 46.75 30.8 46.55 29.75 45.9 28.85 45.4 28.6 45.3 M14.7 44.9 L15.1 44.85 17.95 45.2 18.6 45.3 19.4 45.5 19.65 45.55 19.6 45.85 18.8 46.15 Q17.4 46.8 15.9 48.75 L15.85 48.8 14.65 50.2 14.6 50.25 13.25 51.1 13.1 51.1 Q12.0 51.05 11.3 50.1 L10.9 49.5 11.5 48.55 12.75 46.95 13.05 46.65 13.6 46.0 14.55 45.05 14.7 44.9" fill="#7a422d" fill-rule="evenodd" stroke="none"/>
      <path d="M24.2 43.45 L24.8 43.65 26.35 44.25 26.6 44.35 27.4 44.65 28.6 45.3 28.85 45.4 29.75 45.9 30.8 46.55 31.1 46.75 31.35 47.0 Q33.1 48.4 33.1 49.85 L32.7 50.65 32.15 51.2 31.9 51.55 31.75 51.45 31.45 51.1 31.0 50.65 31.1 50.6 31.3 49.7 31.15 48.85 31.0 48.55 30.65 48.55 29.9 48.35 29.5 48.05 29.4 47.95 29.0 47.25 29.0 47.1 28.6 46.85 27.05 46.0 27.0 46.0 26.15 45.6 25.35 45.3 25.2 45.2 24.55 44.95 22.75 44.3 22.0 44.05 20.5 43.55 19.3 43.25 19.05 43.2 18.85 43.15 17.95 42.95 16.55 42.65 16.05 42.6 16.05 42.45 15.95 41.9 16.45 41.9 17.75 41.95 18.45 42.05 18.55 42.05 19.0 42.1 19.1 42.15 19.15 42.15 19.8 42.25 20.25 42.35 22.4 42.85 23.5 43.2 24.15 43.4 24.2 43.45" fill="#e4465e" fill-rule="evenodd" stroke="none"/>
      <path d="M15.95 41.9 L16.05 42.45 16.05 42.6 16.55 42.65 17.95 42.95 18.85 43.15 18.85 43.25 Q18.85 44.4 19.4 45.5 L18.6 45.3 17.95 45.2 15.1 44.85 14.7 44.9 14.5 44.9 13.4 45.1 13.25 45.15 12.95 45.35 12.8 45.45 12.75 45.45 12.6 45.55 12.3 46.05 11.9 45.95 11.35 45.4 11.05 44.95 11.0 44.85 10.95 44.5 Q10.95 43.2 12.1 42.6 L12.2 42.55 12.8 42.3 13.1 42.2 14.05 42.05 14.45 42.0 14.75 41.95 15.05 41.95 15.95 41.9" fill="#852937" fill-rule="evenodd" stroke="none"/>
      <path d="M18.85 43.15 L19.05 43.2 19.3 43.25 20.5 43.55 22.0 44.05 22.75 44.3 24.55 44.95 25.2 45.2 25.35 45.3 26.15 45.6 27.0 46.0 27.05 46.0 28.6 46.85 29.0 47.1 29.0 47.25 29.4 47.95 29.5 48.05 29.9 48.35 30.65 48.55 31.0 48.55 31.15 48.85 31.3 49.7 31.1 50.6 31.0 50.65 29.95 49.75 29.75 49.6 29.1 49.15 28.15 48.6 28.0 48.55 26.6 47.85 26.35 47.75 26.3 47.7 25.65 47.45 23.95 46.8 23.2 46.55 23.0 46.5 22.65 46.4 21.1 45.95 20.9 45.9 20.75 45.85 20.3 45.75 20.25 45.7 19.65 45.55 19.4 45.5 Q18.85 44.4 18.85 43.25 L18.85 43.15" fill="#a33344" fill-rule="evenodd" stroke="none"/>
      <path d="M46.5 20.1 Q47.5 17.55 48.0 15.05 48.6 12.3 48.15 11.35 L48.05 11.1 Q47.3 10.15 45.0 10.6 L42.85 11.2 Q40.65 12.0 39.25 12.8 M48.85 40.8 Q51.15 43.3 52.5 46.25 L53.7 49.5 53.85 49.7 M29.6 10.1 Q28.6 10.75 26.5 11.6 L24.7 12.25 21.75 12.8 Q19.8 12.8 17.95 12.1 L16.8 11.55 16.6 11.4 16.2 11.0 M49.25 44.6 L48.45 43.6 M49.25 44.6 L49.4 44.75 49.75 45.35 50.3 46.35 M40.45 52.0 L40.55 51.75 40.95 51.1 Q41.4 50.4 42.0 50.1 L42.75 49.95 43.6 49.95 44.4 50.05 Q45.7 50.3 45.85 50.55 L45.95 50.3 Q46.55 48.8 48.6 47.85 49.65 47.4 51.4 48.3 53.1 49.15 53.2 49.65 M19.45 2.3 L18.05 4.7 Q16.65 7.65 16.15 9.7 15.95 10.3 15.9 10.85 M29.7 8.65 L29.95 9.2 M30.15 9.6 L29.6 10.1 M19.45 2.3 Q21.1 -0.05 22.6 -0.05 L22.95 0.0 Q24.15 0.3 26.15 2.8 28.2 5.4 29.7 8.65 M0.3 27.6 L0.0 27.75 M0.0 30.35 L1.75 29.65 2.65 29.3 3.05 29.2 M0.3 27.6 L0.8 27.35 3.05 26.55 M0.0 38.95 L0.4 39.05 1.2 39.25 1.85 39.7 Q2.3 40.1 2.55 40.95 L2.7 41.7 2.8 41.95 2.85 42.95 4.85 42.85 Q6.3 42.9 7.15 43.3 L7.85 43.65 7.9 43.7 8.15 44.2 8.3 44.45 8.3 44.5 8.6 45.2 9.8 45.3 11.0 44.85 M8.1 43.3 L8.25 43.2 8.3 43.15 8.8 42.95 M34.4 51.1 L34.8 51.45 34.85 51.55 34.95 51.65 M35.1 52.1 L35.85 51.95 38.2 52.25 Q39.25 52.55 40.1 52.95 L40.45 52.0 M34.65 52.5 L35.05 52.1 35.1 52.1 M32.5 52.85 L32.8 53.05 Q33.45 53.55 33.9 53.35 L34.4 52.8 34.45 52.75 34.65 52.5" fill="none" stroke="#503f6b" stroke-linecap="round" stroke-linejoin="round" stroke-width="1.0"/>
      <path d="M45.6 18.5 L46.15 19.45 46.5 20.1 Q48.6 24.2 49.0 28.6 L49.0 28.75 Q49.45 33.35 49.15 37.4 L48.85 40.8 48.75 42.0 48.7 42.7 48.45 43.6 48.0 44.55 47.85 44.8 45.85 46.85 Q44.4 48.1 42.15 49.1 L39.9 50.0 39.4 50.15 38.45 50.4 37.7 50.6 34.55 51.1 34.4 51.1 34.1 51.1 33.65 51.05 33.1 51.0 M39.25 12.8 Q41.8 14.45 43.55 16.1 L45.6 18.5 M25.9 18.05 Q30.5 15.95 35.75 17.45 41.6 19.05 44.85 24.05 L45.9 25.85 M47.1 33.45 L46.9 34.5 46.0 37.1 M43.65 40.45 L42.4 41.55 40.65 42.65 39.15 43.35 37.0 44.05 35.55 44.25 33.45 44.35 33.1 44.35 32.5 44.25 32.25 44.25 31.9 44.2 31.8 44.2 31.25 44.1 M29.7 8.65 L30.2 8.75 Q33.3 9.4 35.4 10.5 L39.25 12.8 M14.75 10.35 L16.15 9.7 M3.55 23.35 Q5.0 17.95 10.05 13.55 12.25 11.65 14.75 10.35 M3.55 23.35 Q3.15 24.9 3.05 26.55 L3.0 27.75 3.05 29.2 3.1 29.9 Q3.4 32.55 4.35 35.25 L5.1 37.2 5.45 38.05 5.5 38.1 Q6.9 41.0 8.7 42.85 L8.8 42.95 9.4 43.5 10.75 44.5 M24.2 43.45 L24.8 43.65 26.35 44.25 26.6 44.35 27.4 44.65 28.6 45.3 28.85 45.4 29.75 45.9 30.8 46.55 31.1 46.75 31.35 47.0 Q33.1 48.4 33.1 49.85 L33.1 49.95 32.9 50.45 32.7 50.65 32.15 51.2 M31.15 44.05 L30.3 43.9 29.85 43.75 29.4 43.6 29.05 43.5 27.7 43.0 Q26.5 42.5 25.45 41.8 L24.1 40.85 23.75 40.55 22.95 39.85 21.05 37.6 20.75 37.15 20.2 36.25 Q19.65 35.25 19.25 34.25 L19.25 34.2 19.0 33.6 18.75 32.55 M18.4 28.9 L18.4 28.8 18.55 27.65 18.55 27.55 M31.0 50.65 L31.45 51.1 31.75 51.45 M24.2 43.45 L24.15 43.4 23.5 43.2 22.4 42.85 20.25 42.35 19.8 42.25 19.15 42.15 19.1 42.15 19.0 42.1 18.55 42.05 18.45 42.05 17.75 41.95 16.45 41.9 15.95 41.9 15.05 41.95 14.75 41.95 14.45 42.0 14.05 42.05 13.1 42.2 12.8 42.3 12.2 42.55 12.1 42.6 Q10.95 43.2 10.95 44.5 L11.0 44.85 11.05 44.95 11.35 45.4 11.9 45.95 10.7 47.8 9.65 49.15 9.3 49.5 8.75 50.1 8.4 50.5 7.7 51.55 M12.3 46.05 L12.6 45.55 12.75 45.45 12.8 45.45 12.95 45.35 13.25 45.15 13.4 45.1 14.5 44.9 14.7 44.9 15.1 44.85 17.95 45.2 18.6 45.3 19.4 45.5 19.65 45.55 20.25 45.7 20.3 45.75 20.75 45.85 20.9 45.9 21.1 45.95 22.65 46.4 23.0 46.5 23.2 46.55 23.95 46.8 25.65 47.45 26.3 47.7 26.35 47.75 26.6 47.85 28.0 48.55 28.15 48.6 29.1 49.15 29.75 49.6 29.95 49.75 31.0 50.65 M23.6 53.5 L23.75 52.8 24.35 50.85 24.8 49.55 M32.6 53.5 L32.55 53.3 32.5 52.85 32.25 51.8 M26.5 53.5 L26.5 52.95 26.5 52.75 26.55 52.15 26.5 50.0 26.1 49.8 25.3 49.5 24.85 49.35 M8.6 53.5 L7.6 52.0" fill="none" stroke="#5d241f" stroke-linecap="round" stroke-linejoin="round" stroke-width="1.0"/>
      <path d="M39.8 37.6 L39.15 38.3 Q38.45 38.95 37.85 38.95 37.15 38.95 36.6 38.3 L36.45 38.1 Q35.95 37.45 35.6 36.4 L34.35 37.1 33.4 37.15 33.35 37.15 33.0 37.15 Q31.3 37.15 30.2 36.25 29.15 35.35 29.15 34.0 29.15 33.6 29.85 33.1 L30.75 32.65" fill="none" stroke="#fee9e6" stroke-linecap="round" stroke-linejoin="round" stroke-width="1.0"/>
    </g>
    <g id="shape2" transform="matrix(1.0, 0.0, 0.0, 1.0, 0.0, 0.0)">
      <path d="M50.5 0.0 Q53.95 0.0 53.95 3.3 L53.95 50.15 Q53.95 53.4 50.5 53.4 L3.3 53.4 Q0.0 53.4 0.0 50.15 L0.0 3.3 Q0.0 0.0 3.3 0.0 L50.5 0.0" fill="#000000" fill-opacity="0.003921569" fill-rule="evenodd" stroke="none"/>
    </g>
  </defs>
</svg>
