<?xml version="1.0" encoding="UTF-8" standalone="no"?>
<svg xmlns:ffdec="https://www.free-decompiler.com/flash" xmlns:xlink="http://www.w3.org/1999/xlink" ffdec:objectType="frame" height="54.2px" width="57.15px" xmlns="http://www.w3.org/2000/svg">
  <g transform="matrix(1.0, 0.0, 0.0, 1.0, 1.7, 0.0)">
    <clipPath id="clipPath0" transform="matrix(1.0, 0.0, 0.0, 1.0, 0.0, 0.0)">
      <path d="M50.5 0.0 Q53.95 0.0 53.95 3.3 L53.95 50.15 Q53.95 53.4 50.5 53.4 L3.3 53.4 Q0.0 53.4 0.0 50.15 L0.0 3.3 Q0.0 0.0 3.3 0.0 L50.5 0.0" fill="#000000" fill-rule="evenodd" stroke="none"/>
    </clipPath>
    <g clip-path="url(#clipPath0)">
      <use ffdec:characterId="2" height="53.5" transform="matrix(1.0, 0.0, 0.0, 1.0, -1.7, 0.7)" width="57.15" xlink:href="#shape1"/>
    </g>
    <use ffdec:characterId="3" height="53.4" transform="matrix(1.0, 0.0, 0.0, 1.0, 0.0, 0.0)" width="53.95" xlink:href="#shape2"/>
  </g>
  <defs>
    <g id="shape1" transform="matrix(1.0, 0.0, 0.0, 1.0, 1.7, -0.7)">
      <path d="M34.4 12.65 L40.1 16.5 42.65 18.15 43.75 18.9 44.15 19.2 44.3 19.3 44.65 19.55 47.25 21.5 48.2 21.9 Q48.3 24.2 48.8 26.15 49.45 28.7 50.8 30.55 53.25 33.75 53.25 36.15 53.25 39.5 51.35 41.25 L48.45 43.3 Q49.65 41.0 49.65 38.65 49.65 36.15 47.0 35.1 L44.9 34.55 41.65 33.9 Q40.2 33.4 40.2 32.1 40.2 29.2 43.4 27.7 L45.2 26.75 Q46.65 25.9 46.65 25.4 L46.3 24.0 46.1 23.45 Q45.35 22.85 43.8 21.8 L43.25 21.45 38.55 18.3 32.7 14.25 31.75 13.65 29.65 12.3 29.65 12.2 31.6 12.2 31.75 12.25 31.8 12.15 32.0 11.05 32.5 11.3 34.0 12.35 34.4 12.65 M19.0 9.8 L19.45 10.7 19.7 11.6 19.25 12.75 18.65 13.35 Q17.4 14.35 15.6 14.35 12.55 14.35 11.25 12.3 L11.05 11.95 10.6 11.65 5.3 8.75 4.5 8.4 3.15 7.8 2.9 7.65 -1.2 5.75 -1.2 2.6 1.55 3.8 2.0 4.0 3.15 4.55 8.75 7.3 Q14.95 10.4 16.0 10.65 L16.25 10.9 18.25 10.05 19.0 9.8 M8.75 47.45 L9.5 47.75 9.35 47.35 10.6 46.85 10.8 46.7 11.3 46.4 13.35 44.65 13.3 44.5 13.25 44.0 Q13.25 42.9 13.65 42.2 L14.3 41.45 Q15.25 40.65 16.65 40.65 L17.6 40.7 17.75 40.75 18.05 40.95 18.35 41.3 18.65 41.7 17.7 42.45 Q17.55 42.25 17.25 42.15 16.55 41.65 16.2 41.65 15.15 41.65 14.4 42.45 13.55 43.35 13.55 44.7 13.55 45.45 14.15 46.35 L14.7 46.95 14.1 47.8 13.95 48.05 13.85 48.15 Q13.05 48.9 11.65 49.25 L10.8 49.4 10.1 49.45 4.55 50.0 0.55 50.35 Q-0.35 50.35 -0.55 49.9 L-0.65 48.4 Q-0.65 45.25 1.55 42.8 L1.9 42.95 1.25 44.35 1.2 45.4 Q1.2 46.55 1.45 47.15 1.8 47.9 2.75 47.9 L8.6 47.45 8.75 47.45 M47.2 28.7 L46.9 28.65 46.6 28.6 Q45.95 28.6 44.35 29.4 42.35 30.4 42.35 31.45 42.35 32.45 44.45 32.95 L48.0 33.3 Q49.5 33.3 49.5 32.85 L48.6 30.85 47.2 28.7 M53.3 53.7 Q52.85 52.65 52.75 51.95 L52.75 51.7 53.3 51.4 54.95 53.7 53.3 53.7 M-1.2 36.25 L-1.15 36.3 0.35 37.5 -1.2 37.75 -1.2 36.25" fill="#54656d" fill-rule="evenodd" stroke="none"/>
      <path d="M46.05 1.35 L44.15 6.35 44.0 6.8 Q43.4 8.75 43.4 10.9 43.4 12.65 43.55 13.0 L44.4 14.0 44.3 14.5 Q44.0 16.25 44.15 18.2 L43.75 18.9 42.65 18.15 40.1 16.5 34.4 12.65 34.85 11.95 Q36.25 11.4 38.7 8.3 L38.8 8.15 42.0 3.65 42.65 2.7 42.95 2.45 Q43.65 1.95 45.05 1.6 L46.05 1.35 M-1.2 9.25 L-0.15 9.75 0.15 9.9 4.2 11.8 4.5 11.95 7.35 13.35 Q16.3 17.5 17.25 17.5 L20.2 16.8 20.6 16.65 Q21.8 16.15 22.75 16.1 L22.95 16.1 Q24.7 16.1 25.8 16.85 L27.35 17.95 27.05 17.95 Q25.95 17.95 24.15 18.8 23.7 19.05 23.2 19.35 L21.75 20.25 20.1 21.15 19.4 21.0 Q14.15 19.85 9.45 18.15 L6.05 16.75 5.5 16.55 1.1 14.35 -0.55 13.4 -1.2 13.0 -1.2 9.25 M19.1 30.8 Q16.85 31.6 15.35 32.65 14.65 33.1 14.1 33.65 12.45 35.25 12.4 37.1 L12.4 37.2 12.6 37.8 13.0 38.6 13.55 39.6 13.1 39.85 10.15 41.85 9.9 42.0 9.4 42.35 Q7.1 44.0 7.1 45.3 7.1 46.6 8.6 47.4 L8.75 47.45 8.6 47.45 2.75 47.9 Q1.8 47.9 1.45 47.15 1.2 46.55 1.2 45.4 L1.25 44.35 1.9 42.95 1.55 42.8 Q3.75 40.25 8.15 38.4 L8.4 38.3 8.15 38.4 Q3.75 40.25 1.55 42.8 -0.65 45.25 -0.65 48.4 L-0.55 49.9 Q-0.35 50.35 0.55 50.35 L4.55 50.0 10.1 49.45 10.8 49.4 11.65 49.25 Q13.05 48.9 13.85 48.15 L13.95 48.05 14.1 47.8 14.7 46.95 15.45 45.8 Q15.5 45.25 15.7 44.8 L16.7 45.15 Q17.2 45.4 17.6 45.9 L18.35 46.85 18.5 47.45 21.05 47.1 21.45 47.1 Q23.5 47.1 26.15 48.2 L27.2 48.75 27.5 48.25 27.9 48.5 28.05 48.55 Q30.1 49.65 33.75 49.65 36.5 49.65 38.9 48.65 L38.95 48.6 Q39.95 48.2 40.9 47.6 L42.4 46.4 42.55 46.3 44.2 45.0 45.05 44.35 45.1 44.3 46.05 44.1 46.8 44.35 47.05 44.2 49.25 46.8 49.65 47.3 Q51.75 50.3 52.0 52.45 51.75 50.3 49.65 47.3 L49.25 46.8 51.8 49.5 51.95 50.2 52.05 51.5 52.05 51.55 52.0 52.45 52.0 52.95 51.75 53.7 50.25 53.7 49.3 52.95 Q46.9 51.3 43.25 51.3 L42.25 51.4 Q40.05 51.65 39.0 53.55 L38.9 53.7 36.5 53.7 35.9 53.35 Q34.5 52.6 33.1 52.15 L31.0 51.65 28.45 49.5 28.1 49.25 27.2 48.75 28.1 49.25 28.45 49.5 31.0 51.65 30.8 51.6 30.7 51.6 29.45 51.5 Q25.95 51.5 23.2 53.7 L7.65 53.7 7.0 53.2 5.95 52.45 Q3.4 50.85 0.65 50.85 L-1.2 51.1 -1.2 37.75 0.35 37.5 -1.15 36.3 -1.2 36.25 -1.2 34.2 -0.65 34.4 2.8 34.95 5.9 34.6 6.0 34.85 6.0 34.9 6.7 35.8 6.3 34.75 6.3 34.6 6.3 33.2 6.3 33.0 6.45 32.75 Q7.1 31.6 8.6 30.6 L9.6 30.05 10.3 29.7 Q12.2 28.75 13.75 28.65 L14.25 28.6 Q15.8 28.6 17.6 29.75 L19.1 30.8 M8.25 37.95 L7.9 37.65 6.7 35.8 7.9 37.65 8.25 37.95 M15.0 48.75 L17.7 47.8 18.5 47.45 17.7 47.8 15.0 48.75" fill="#312a31" fill-rule="evenodd" stroke="none"/>
      <path d="M51.3 1.8 L51.5 2.1 50.0 3.5 Q48.55 4.4 48.3 4.8 47.05 6.35 47.05 8.3 L47.25 9.7 46.0 9.95 Q44.9 11.85 44.4 14.0 L43.55 13.0 Q43.4 12.65 43.4 10.9 43.4 8.75 44.0 6.8 L44.15 6.35 46.05 1.35 47.7 1.2 49.7 1.35 51.3 1.8 M32.0 11.05 L31.8 12.15 31.75 12.25 31.6 12.2 29.65 12.2 29.65 12.3 31.75 13.65 32.7 14.25 38.55 18.3 43.25 21.45 43.8 21.8 Q45.35 22.85 46.1 23.45 L46.3 24.0 46.65 25.4 Q46.65 25.9 45.2 26.75 L43.4 27.7 Q40.2 29.2 40.2 32.1 40.2 33.4 41.65 33.9 L44.9 34.55 47.0 35.1 Q49.65 36.15 49.65 38.65 49.65 41.0 48.45 43.3 47.95 43.6 47.35 44.05 L47.05 44.2 46.8 44.35 46.05 44.1 45.05 43.75 44.9 43.7 Q46.3 40.6 42.9 40.1 L42.15 40.0 41.3 39.9 41.15 39.9 Q38.35 39.8 36.15 41.5 L35.55 42.0 34.9 42.65 34.85 42.7 33.0 44.3 30.9 45.5 27.7 42.3 27.15 41.6 26.05 40.3 Q25.55 39.7 24.75 39.35 21.3 39.85 18.8 41.55 L18.65 41.7 18.35 41.3 18.05 40.95 17.75 40.75 17.6 40.7 16.65 40.65 Q15.25 40.65 14.3 41.45 L13.65 42.2 Q13.25 42.9 13.25 44.0 L13.3 44.5 13.35 44.65 11.3 46.4 10.8 46.7 10.6 46.85 9.35 47.35 9.5 47.75 8.75 47.45 8.6 47.4 Q7.1 46.6 7.1 45.3 7.1 44.0 9.4 42.35 L9.9 42.0 10.15 41.85 13.1 39.85 13.55 39.6 13.0 38.6 12.6 37.8 12.4 37.2 12.4 37.1 Q12.45 35.25 14.1 33.65 14.65 33.1 15.35 32.65 16.85 31.6 19.1 30.8 L20.95 32.5 21.6 33.1 Q23.75 35.1 25.95 35.9 L28.8 36.35 Q30.0 36.35 31.65 35.35 L32.15 35.0 Q33.3 34.25 34.0 33.5 L34.6 32.8 37.9 29.35 38.1 29.2 39.6 28.0 39.85 27.8 39.8 27.75 36.0 23.15 35.05 22.1 32.7 19.95 Q30.1 18.0 27.35 17.95 L25.8 16.85 Q24.7 16.1 22.95 16.1 L22.75 16.1 Q21.8 16.15 20.6 16.65 L20.2 16.8 17.25 17.5 Q16.3 17.5 7.35 13.35 L4.5 11.95 4.2 11.8 0.15 9.9 -0.15 9.75 -1.2 9.25 -1.2 5.75 2.9 7.65 3.15 7.8 4.5 8.4 5.3 8.75 10.6 11.65 11.05 11.95 11.25 12.3 Q12.55 14.35 15.6 14.35 17.4 14.35 18.65 13.35 L19.25 12.75 19.7 11.6 19.45 10.7 19.0 9.8 19.25 9.65 20.45 9.15 Q21.75 8.6 23.95 8.6 25.5 8.6 29.0 9.85 L30.55 10.45 31.15 10.65 32.0 11.05 M48.2 21.9 L47.25 21.5 48.2 21.6 48.2 21.9 M34.0 12.35 L34.35 12.6 34.4 12.65 34.0 12.35" fill="#41434f" fill-rule="evenodd" stroke="none"/>
      <path d="M44.4 14.0 Q44.9 11.85 46.0 9.95 L47.25 9.7 47.95 11.5 48.9 13.4 48.8 14.75 48.6 16.55 47.95 14.95 Q47.2 13.65 46.0 13.65 45.25 13.65 44.55 14.25 L44.4 14.0 M39.6 28.0 L38.1 29.2 37.9 29.35 34.6 32.8 34.0 33.5 Q33.3 34.25 32.15 35.0 L31.65 35.35 Q30.0 36.35 28.8 36.35 L25.95 35.9 Q23.75 35.1 21.6 33.1 24.05 34.65 26.3 34.65 29.4 34.65 31.95 31.75 L32.7 30.9 Q35.45 27.1 36.3 27.1 L39.65 27.9 39.6 28.0" fill="#a9dcff" fill-rule="evenodd" stroke="none"/>
      <path d="M43.75 18.9 L44.15 18.2 Q44.0 16.25 44.3 14.5 L44.4 14.0 44.55 14.25 Q45.25 13.65 46.0 13.65 47.2 13.65 47.95 14.95 L48.6 16.55 48.5 17.75 48.2 21.6 47.25 21.5 44.65 19.55 44.3 19.3 44.15 19.2 43.75 18.9 M27.35 17.95 Q30.1 18.0 32.7 19.95 L35.05 22.1 36.0 23.15 39.8 27.75 39.85 27.8 39.6 28.0 39.65 27.9 36.3 27.1 Q35.45 27.1 32.7 30.9 L31.95 31.75 Q29.4 34.65 26.3 34.65 24.05 34.65 21.6 33.1 L20.95 32.5 19.1 30.8 17.6 29.75 Q15.8 28.6 14.25 28.6 L13.75 28.65 Q12.2 28.75 10.3 29.7 L9.6 30.05 8.6 30.6 Q7.1 31.6 6.45 32.75 L6.3 33.0 6.3 33.2 5.85 33.2 5.8 33.2 Q4.8 30.95 4.4 28.95 L4.15 26.25 4.2 25.0 Q4.3 23.8 4.65 22.9 L4.55 22.55 4.1 21.7 3.1 21.45 Q1.4 21.45 -1.2 24.1 L-1.2 13.0 -0.55 13.4 1.1 14.35 5.5 16.55 6.05 16.75 9.45 18.15 Q14.15 19.85 19.4 21.0 L20.1 21.15 21.75 20.25 23.2 19.35 Q23.7 19.05 24.15 18.8 25.95 17.95 27.05 17.95 L27.35 17.95 M29.15 21.4 L28.75 21.15 26.3 19.75 26.05 20.05 25.65 19.8 26.3 19.75 25.65 19.8 25.5 19.7 24.35 20.95 Q21.6 24.6 23.45 29.4 24.4 31.95 27.2 32.15 33.1 32.5 34.7 27.3 L34.9 26.6 35.1 25.35 35.15 25.0 34.25 24.5 32.5 23.45 31.5 22.8 30.95 22.45 Q30.15 21.95 29.15 21.4 M5.9 34.6 L6.3 34.6 6.3 34.75 6.7 35.8 6.0 34.9 6.0 34.85 5.9 34.6" fill="#7da2e8" fill-rule="evenodd" stroke="none"/>
      <path d="M47.2 28.7 L48.6 30.85 49.5 32.85 Q49.5 33.3 48.0 33.3 L44.45 32.95 Q42.35 32.45 42.35 31.45 42.35 30.4 44.35 29.4 45.95 28.6 46.6 28.6 L46.9 28.65 47.2 28.7 M14.7 46.95 L14.15 46.35 Q13.55 45.45 13.55 44.7 13.55 43.35 14.4 42.45 15.15 41.65 16.2 41.65 16.55 41.65 17.25 42.15 17.55 42.25 17.7 42.45 L15.95 44.45 15.9 44.55 15.85 44.55 15.7 44.8 Q15.5 45.25 15.45 45.8 L14.7 46.95" fill="#7e8c99" fill-rule="evenodd" stroke="none"/>
      <path d="M36.15 41.5 Q38.35 39.8 41.15 39.9 L41.3 39.9 42.15 40.0 42.9 40.1 Q46.3 40.6 44.9 43.7 L45.05 44.35 44.2 45.0 42.55 46.3 43.4 44.3 43.85 42.75 Q43.85 41.45 40.6 41.35 L40.15 41.35 Q38.3 41.35 36.7 42.1 L36.6 42.1 36.15 41.5" fill="#b2a8c1" fill-rule="evenodd" stroke="none"/>
      <path d="M34.9 42.65 L35.55 42.0 36.15 41.5 36.6 42.1 36.7 42.1 Q38.3 41.35 40.15 41.35 L40.6 41.35 Q43.85 41.45 43.85 42.75 L43.4 44.3 42.55 46.3 42.4 46.4 40.9 47.6 40.65 47.25 41.0 46.8 Q41.55 46.0 41.55 44.65 41.55 43.35 40.65 42.95 L39.95 42.8 38.55 42.75 36.05 43.05 35.45 43.3 34.9 42.65" fill="#9294c5" fill-rule="evenodd" stroke="none"/>
      <path d="M27.7 42.3 L30.9 45.5 33.0 44.3 34.85 42.7 34.9 42.65 35.45 43.3 36.05 43.05 38.55 42.75 39.95 42.8 40.65 42.95 Q41.55 43.35 41.55 44.65 41.55 46.0 41.0 46.8 L40.65 47.25 40.9 47.6 Q39.95 48.2 38.95 48.6 L38.9 48.65 Q36.5 49.65 33.75 49.65 30.1 49.65 28.05 48.55 L27.9 48.5 27.55 47.75 Q27.0 46.5 27.0 45.5 27.0 43.85 27.3 42.95 L27.6 42.45 27.7 42.3 M44.9 43.7 L45.05 43.75 46.05 44.1 45.1 44.3 45.05 44.35 44.9 43.7 M15.7 44.8 L15.85 44.55 15.9 44.55 15.95 44.45 16.7 45.15 15.7 44.8" fill="#837f9a" fill-rule="evenodd" stroke="none"/>
      <path d="M28.75 21.15 L29.15 21.4 Q28.55 21.7 28.2 22.3 27.8 23.0 27.6 24.15 27.6 25.2 28.25 25.85 28.9 26.45 29.7 26.45 30.3 26.45 30.9 25.75 31.5 25.15 31.55 24.35 L31.6 23.9 31.5 22.8 32.5 23.45 32.55 25.0 32.55 25.2 32.25 26.55 Q32.05 27.15 31.5 27.45 L29.45 27.9 Q26.45 27.9 26.45 24.45 26.45 23.55 27.3 22.5 L27.7 22.1 28.75 21.15 27.7 22.1 27.3 22.5 Q26.45 23.55 26.45 24.45 26.45 27.9 29.45 27.9 L31.5 27.45 Q32.05 27.15 32.25 26.55 L32.55 25.2 32.55 25.0 32.5 23.45 34.25 24.5 33.7 26.3 33.6 26.6 33.4 27.1 31.75 28.9 Q30.6 29.8 28.85 29.75 27.1 29.75 25.85 28.2 24.6 26.65 24.55 25.0 24.55 23.35 25.6 21.7 26.7 20.1 26.05 20.05 L26.3 19.75 28.75 21.15" fill="#ec3a61" fill-rule="evenodd" stroke="none"/>
      <path d="M25.65 19.8 L26.05 20.05 Q26.7 20.1 25.6 21.7 24.55 23.35 24.55 25.0 24.6 26.65 25.85 28.2 27.1 29.75 28.85 29.75 30.6 29.8 31.75 28.9 L33.4 27.1 33.6 26.6 33.7 26.3 34.25 24.5 35.15 25.0 35.1 25.35 34.9 26.6 34.7 27.3 Q33.1 32.5 27.2 32.15 24.4 31.95 23.45 29.4 21.6 24.6 24.35 20.95 L25.5 19.7 25.65 19.8" fill="#390000" fill-rule="evenodd" stroke="none"/>
      <path d="M31.5 22.8 L31.6 23.9 31.55 24.35 Q31.5 25.15 30.9 25.75 30.3 26.45 29.7 26.45 28.9 26.45 28.25 25.85 27.6 25.2 27.6 24.15 27.8 23.0 28.2 22.3 28.55 21.7 29.15 21.4 30.15 21.95 30.95 22.45 L31.5 22.8" fill="#ffece5" fill-rule="evenodd" stroke="none"/>
      <path d="M4.55 22.55 L4.65 22.9 Q4.3 23.8 4.2 25.0 L4.15 26.25 4.4 28.95 Q4.8 30.95 5.8 33.2 L5.85 33.2 6.3 33.2 6.3 34.6 5.9 34.6 2.8 34.95 -0.65 34.4 -1.2 34.2 -1.2 24.1 Q1.4 21.45 3.1 21.45 L4.1 21.7 4.55 22.55" fill="#6687cc" fill-rule="evenodd" stroke="none"/>
      <path d="M18.65 41.7 L18.8 41.55 Q21.3 39.85 24.75 39.35 25.55 39.7 26.05 40.3 L27.15 41.6 27.7 42.3 27.6 42.45 27.3 42.95 Q27.0 43.85 27.0 45.5 27.0 46.5 27.55 47.75 L27.9 48.5 27.5 48.25 27.2 48.75 26.15 48.2 Q23.5 47.1 21.45 47.1 L21.05 47.1 18.5 47.45 18.35 46.85 17.6 45.9 Q17.2 45.4 16.7 45.15 L15.95 44.45 17.7 42.45 18.65 41.7" fill="#5f608c" fill-rule="evenodd" stroke="none"/>
      <path d="M31.0 51.65 L33.1 52.15 Q34.5 52.6 35.9 53.35 L36.5 53.7 23.2 53.7 Q25.95 51.5 29.45 51.5 L30.7 51.6 30.8 51.6 31.0 51.65 32.0 52.75 31.0 51.65 M38.9 53.7 L39.0 53.55 Q40.05 51.65 42.25 51.4 L43.25 51.3 Q46.9 51.3 49.3 52.95 L50.25 53.7 38.9 53.7 M51.75 53.7 L52.0 52.95 52.0 52.45 52.05 51.55 52.05 51.5 51.95 50.2 51.8 49.5 52.3 50.1 52.95 50.9 53.3 51.4 52.75 51.7 52.75 51.95 Q52.85 52.65 53.3 53.7 L51.75 53.7 M-1.2 51.1 L0.65 50.85 Q3.4 50.85 5.95 52.45 L7.0 53.2 7.65 53.7 -1.2 53.7 -1.2 51.1" fill="#41444d" fill-rule="evenodd" stroke="none"/>
      <path d="M51.3 1.8 L49.7 1.35 47.7 1.2 46.05 1.35 45.05 1.6 Q43.65 1.95 42.95 2.45 M47.25 9.7 L47.05 8.3 Q47.05 6.35 48.3 4.8 48.55 4.4 50.0 3.5 L51.5 2.1 M42.65 2.7 L42.0 3.65 38.8 8.15 38.7 8.3 Q36.25 11.4 34.85 11.95 M34.4 12.65 L40.1 16.5 42.65 18.15 43.75 18.9 44.15 19.2 M48.6 16.55 L48.8 14.75 48.9 13.4 47.95 11.5 47.25 9.7 M48.2 21.6 L48.5 17.75 48.6 16.55 M32.0 11.05 L31.15 10.65 30.55 10.45 29.0 9.85 Q25.5 8.6 23.95 8.6 21.75 8.6 20.45 9.15 L19.25 9.65 19.0 9.8 18.25 10.05 16.25 10.9 M18.65 41.7 L18.8 41.55 Q21.3 39.85 24.75 39.35 25.55 39.7 26.05 40.3 L27.15 41.6 27.7 42.3 30.9 45.5 33.0 44.3 34.85 42.7 34.9 42.65 35.55 42.0 36.15 41.5 Q38.35 39.8 41.15 39.9 L41.3 39.9 42.15 40.0 42.9 40.1 Q46.3 40.6 44.9 43.7 L45.05 43.75 M46.8 44.35 L47.05 44.2 47.35 44.05 Q47.95 43.6 48.45 43.3 L51.35 41.25 Q53.25 39.5 53.25 36.15 53.25 33.75 50.8 30.55 49.45 28.7 48.8 26.15 48.3 24.2 48.2 21.9 L48.2 21.6 M47.25 21.5 L44.65 19.55 M46.05 44.1 L45.1 44.3 45.05 44.35 44.2 45.0 42.55 46.3 42.4 46.4 40.9 47.6 Q39.95 48.2 38.95 48.6 L38.9 48.65 Q36.5 49.65 33.75 49.65 30.1 49.65 28.05 48.55 L27.9 48.5 27.5 48.25 M27.2 48.75 L28.1 49.25 28.45 49.5 31.0 51.65 32.0 52.75 M51.75 53.7 L52.0 52.95 52.0 52.45 Q51.75 50.3 49.65 47.3 L49.25 46.8 47.05 44.2 M34.0 12.35 L32.5 11.3 32.0 11.05 M34.4 12.65 L34.35 12.6 34.0 12.35 M16.0 10.65 Q14.95 10.4 8.75 7.3 L3.15 4.55 2.0 4.0 1.55 3.8 -1.2 2.6 M-1.2 13.0 L-0.55 13.4 1.1 14.35 5.5 16.55 6.05 16.75 9.45 18.15 Q14.15 19.85 19.4 21.0 M-1.2 34.2 L-0.65 34.4 2.8 34.95 5.9 34.6 6.0 34.85 6.0 34.9 6.7 35.8 6.3 34.75 M6.7 35.8 L7.9 37.65 8.25 37.95 M8.4 38.3 L8.15 38.4 Q3.75 40.25 1.55 42.8 -0.65 45.25 -0.65 48.4 L-0.55 49.9 Q-0.35 50.35 0.55 50.35 L4.55 50.0 10.1 49.45 10.8 49.4 11.65 49.25 Q13.05 48.9 13.85 48.15 L13.95 48.05 14.1 47.8 14.7 46.95 15.45 45.8 Q15.5 45.25 15.7 44.8 L15.85 44.55 15.9 44.55 15.95 44.45 17.7 42.45 18.65 41.7 M16.7 45.15 Q17.2 45.4 17.6 45.9 L18.35 46.85 M18.5 47.45 L21.05 47.1 21.45 47.1 Q23.5 47.1 26.15 48.2 L27.2 48.75 M18.5 47.45 L17.7 47.8 15.0 48.75 M54.95 53.7 L53.3 51.4 52.95 50.9 52.3 50.1 51.8 49.5 49.25 46.8" fill="none" stroke="#300a09" stroke-linecap="round" stroke-linejoin="round" stroke-width="1.0"/>
      <path d="M44.4 14.0 Q44.9 11.85 46.0 9.95 M44.15 18.2 Q44.0 16.25 44.3 14.5 L44.4 14.0 M27.35 17.95 Q30.1 18.0 32.7 19.95 L35.05 22.1 36.0 23.15 39.8 27.75 39.85 27.8 M39.6 28.0 L38.1 29.2 37.9 29.35 34.6 32.8 34.0 33.5 Q33.3 34.25 32.15 35.0 L31.65 35.35 Q30.0 36.35 28.8 36.35 L25.95 35.9 Q23.75 35.1 21.6 33.1 L20.95 32.5 19.1 30.8 17.6 29.75 Q15.8 28.6 14.25 28.6 L13.75 28.65 Q12.2 28.75 10.3 29.7 L9.6 30.05 8.6 30.6 Q7.1 31.6 6.45 32.75 L6.3 33.0 M20.1 21.15 L21.75 20.25 23.2 19.35 Q23.7 19.05 24.15 18.8 25.95 17.95 27.05 17.95 L27.35 17.95 M5.85 33.2 L5.8 33.2 Q4.8 30.95 4.4 28.95 L4.15 26.25 4.2 25.0 Q4.3 23.8 4.65 22.9 L4.55 22.55" fill="none" stroke="#5574b6" stroke-linecap="round" stroke-linejoin="round" stroke-width="1.0"/>
      <path d="M29.15 21.4 L28.75 21.15 27.7 22.1 27.3 22.5 Q26.45 23.55 26.45 24.45 26.45 27.9 29.45 27.9 L31.5 27.45 Q32.05 27.15 32.25 26.55 L32.55 25.2 32.55 25.0 32.5 23.45 31.5 22.8 M29.15 21.4 Q30.15 21.95 30.95 22.45 M26.3 19.75 L25.65 19.8 M34.25 24.5 L32.5 23.45 M25.5 19.7 L24.35 20.95 Q21.6 24.6 23.45 29.4 24.4 31.95 27.2 32.15 33.1 32.5 34.7 27.3 L34.9 26.6 35.1 25.35 M35.15 25.0 L34.25 24.5 M28.75 21.15 L26.3 19.75" fill="none" stroke="#2c0f25" stroke-linecap="round" stroke-linejoin="round" stroke-width="1.0"/>
    </g>
    <g id="shape2" transform="matrix(1.0, 0.0, 0.0, 1.0, 0.0, 0.0)">
      <path d="M50.5 0.0 Q53.95 0.0 53.95 3.3 L53.95 50.15 Q53.95 53.4 50.5 53.4 L3.3 53.4 Q0.0 53.4 0.0 50.15 L0.0 3.3 Q0.0 0.0 3.3 0.0 L50.5 0.0" fill="#000000" fill-opacity="0.003921569" fill-rule="evenodd" stroke="none"/>
    </g>
  </defs>
</svg>
