<?xml version="1.0" encoding="UTF-8" standalone="no"?>
<svg xmlns:ffdec="https://www.free-decompiler.com/flash" xmlns:xlink="http://www.w3.org/1999/xlink" ffdec:objectType="frame" height="54.75px" width="54.65px" xmlns="http://www.w3.org/2000/svg">
  <g transform="matrix(1.0, 0.0, 0.0, 1.0, 0.7, 0.0)">
    <clipPath id="clipPath0" transform="matrix(1.0, 0.0, 0.0, 1.0, 0.0, 0.0)">
      <path d="M50.5 0.0 Q53.95 0.0 53.95 3.3 L53.95 50.15 Q53.95 53.4 50.5 53.4 L3.3 53.4 Q0.0 53.4 0.0 50.15 L0.0 3.3 Q0.0 0.0 3.3 0.0 L50.5 0.0" fill="#000000" fill-rule="evenodd" stroke="none"/>
    </clipPath>
    <g clip-path="url(#clipPath0)">
      <use ffdec:characterId="2" height="54.3" transform="matrix(1.0, 0.0, 0.0, 1.0, -0.7, 0.45)" width="54.0" xlink:href="#shape1"/>
    </g>
    <use ffdec:characterId="3" height="53.4" transform="matrix(1.0, 0.0, 0.0, 1.0, 0.0, 0.0)" width="53.95" xlink:href="#shape2"/>
  </g>
  <defs>
    <g id="shape1" transform="matrix(1.0, 0.0, 0.0, 1.0, 0.7, -0.45)">
      <path d="M35.15 1.65 L39.8 7.3 42.2 10.65 43.05 12.2 43.25 13.15 Q41.25 13.75 40.5 15.9 40.0 17.4 39.85 19.85 L39.55 20.95 Q39.05 22.9 38.85 24.35 L37.75 24.3 37.75 24.15 Q38.35 21.85 38.55 19.85 L38.65 18.9 Q39.55 15.8 39.55 13.85 39.55 10.9 37.05 6.85 35.6 4.45 33.6 2.3 L34.1 0.95 35.15 1.65 M45.95 30.55 Q49.0 26.5 47.15 23.1 L45.95 21.45 45.95 21.4 Q49.3 22.65 51.5 26.25 L51.6 28.0 51.5 29.7 Q51.25 31.8 50.45 33.9 49.0 37.5 46.8 37.95 L46.05 38.05 Q47.5 34.65 45.9 30.65 L45.95 30.55 M35.55 19.7 L35.7 19.85 37.05 22.95 37.5 24.3 Q35.75 24.5 34.05 26.1 L33.05 27.1 Q32.85 22.8 30.85 19.85 L29.65 18.4 29.6 18.35 Q26.1 14.8 21.15 14.45 L18.3 14.55 18.15 14.55 Q15.15 14.55 11.8 17.15 8.5 19.75 6.1 19.3 3.75 18.9 2.25 17.45 0.75 16.05 0.2 14.85 L-0.2 13.85 -0.2 8.45 0.6 9.2 4.25 11.35 Q6.2 12.55 8.15 12.9 L12.3 13.25 15.55 13.05 19.15 12.8 Q25.1 12.8 30.55 16.25 L30.8 16.5 Q34.9 19.7 35.55 19.7 M28.6 38.2 L26.35 39.35 Q21.55 41.9 18.5 41.9 12.0 41.9 7.85 38.5 3.65 35.0 3.25 31.1 2.85 27.15 4.2 25.8 5.55 24.4 7.0 24.4 L9.0 24.5 9.85 24.7 Q6.85 28.65 11.0 32.5 16.05 37.15 22.4 36.4 L24.4 36.1 24.45 36.1 28.6 38.2 M2.7 46.3 L0.95 48.55 Q0.8 46.8 -0.2 45.45 L-0.2 41.35 1.7 42.85 2.7 46.3" fill="#54433b" fill-rule="evenodd" stroke="none"/>
      <path d="M39.85 19.85 Q40.0 17.4 40.5 15.9 41.25 13.75 43.25 13.15 L43.05 12.2 42.2 10.65 39.8 7.3 35.15 1.65 Q40.7 5.05 44.7 11.0 L45.85 13.55 43.95 14.0 43.5 14.25 Q42.25 14.95 41.4 16.2 40.5 17.35 39.85 19.85 M14.25 11.05 L21.2 11.75 Q27.65 12.05 31.75 15.25 34.0 17.0 35.55 19.7 34.9 19.7 30.8 16.5 L30.55 16.25 Q25.1 12.8 19.15 12.8 L15.55 13.05 12.3 13.25 8.15 12.9 Q6.2 12.55 4.25 11.35 L0.6 9.2 -0.2 8.45 -0.2 6.3 Q6.45 9.75 14.25 11.05 M4.85 9.25 Q2.9 8.6 2.9 10.0 5.55 11.65 6.3 11.65 L6.8 11.6 6.85 10.85 Q6.85 10.0 4.85 9.25" fill="#755c51" fill-rule="evenodd" stroke="none"/>
      <path d="M38.85 24.35 Q39.05 22.9 39.55 20.95 L39.85 19.85 Q40.5 17.35 41.4 16.2 42.25 14.95 43.5 14.25 L43.95 14.0 45.85 13.55 Q46.4 15.15 46.6 16.95 46.45 19.4 45.95 21.35 L45.95 21.4 45.95 21.45 45.85 22.05 45.25 23.95 Q46.15 20.2 44.85 15.6 L43.4 16.8 Q41.0 19.25 40.15 24.7 L38.85 24.35 M45.95 30.55 L45.9 30.65 45.85 30.6 45.95 30.55 M18.3 14.55 L21.15 14.45 Q26.1 14.8 29.6 18.35 L29.65 18.4 30.85 19.85 Q32.85 22.8 33.05 27.1 L31.35 29.1 31.35 28.55 31.05 26.0 Q30.75 24.25 30.0 22.85 28.25 19.2 24.05 18.0 L23.9 18.0 22.05 17.65 17.7 18.0 Q14.3 19.05 12.4 23.0 L11.3 23.75 11.3 23.15 8.9 23.3 Q9.7 21.45 10.85 19.85 L13.35 16.85 Q15.35 15.0 18.3 14.55 M26.6 32.5 L27.6 32.2 Q27.5 32.2 27.4 32.35 21.05 34.5 16.3 31.55 12.55 28.6 11.6 25.55 L11.55 25.3 12.35 26.3 Q13.3 28.9 15.3 30.55 16.95 31.85 19.25 32.5 23.4 33.65 26.6 32.5" fill="#1f1f1d" fill-rule="evenodd" stroke="none"/>
      <path d="M43.85 17.85 Q44.2 17.75 44.55 18.0 L44.6 18.25 44.15 18.9 43.05 20.0 42.65 19.85 42.6 19.6 Q42.65 18.95 43.2 18.3 L43.85 17.85 M17.9 19.65 L20.25 20.1 Q21.1 20.4 21.15 21.05 L21.1 21.4 Q20.95 21.7 20.3 21.8 L18.55 21.8 17.15 20.75 16.95 20.7 Q16.55 20.3 16.55 19.95 L16.65 19.65 16.95 19.55 17.9 19.65" fill="#fafac7" fill-rule="evenodd" stroke="none"/>
      <path d="M43.85 17.85 L43.4 16.8 44.85 15.6 Q46.15 20.2 45.25 23.95 L44.75 25.55 43.5 27.3 43.7 26.75 Q45.05 22.65 44.15 18.9 L44.6 18.25 44.55 18.0 Q44.2 17.75 43.85 17.85 M11.3 23.75 L12.4 23.0 Q14.3 19.05 17.7 18.0 L22.05 17.65 Q19.65 18.0 17.9 19.65 L16.95 19.55 16.65 19.65 16.55 19.95 Q16.55 20.3 16.95 20.7 15.45 22.7 15.55 25.25 15.75 28.3 18.3 30.55 19.8 31.9 21.55 32.5 L24.15 32.9 24.65 32.9 26.6 32.5 Q23.4 33.65 19.25 32.5 16.95 31.85 15.3 30.55 13.3 28.9 12.35 26.3 L11.55 25.3 10.65 24.2 11.3 23.75" fill="#cbbc6c" fill-rule="evenodd" stroke="none"/>
      <path d="M43.4 16.8 L43.85 17.85 43.2 18.3 Q42.65 18.95 42.6 19.6 L42.65 19.85 43.05 20.0 44.15 18.9 Q45.05 22.65 43.7 26.75 L43.5 27.3 43.5 27.35 Q42.2 25.9 40.5 24.9 L40.15 24.7 Q41.0 19.25 43.4 16.8 M22.05 17.65 L23.9 18.0 24.05 18.0 Q28.25 19.2 30.0 22.85 30.75 24.25 31.05 26.0 L31.35 28.55 31.35 29.1 30.5 30.45 Q28.9 31.1 27.65 32.15 L27.6 32.2 26.6 32.5 24.65 32.9 24.15 32.9 21.55 32.5 Q19.8 31.9 18.3 30.55 15.75 28.3 15.55 25.25 15.45 22.7 16.95 20.7 L17.15 20.75 18.55 21.8 20.3 21.8 Q20.95 21.7 21.1 21.4 L21.15 21.05 Q21.1 20.4 20.25 20.1 L17.9 19.65 Q19.65 18.0 22.05 17.65" fill="#0e3e4f" fill-rule="evenodd" stroke="none"/>
      <path d="M37.75 24.15 L37.75 24.3 37.5 24.3 37.05 22.95 35.7 19.85 35.55 19.7 Q34.0 17.0 31.75 15.25 27.65 12.05 21.2 11.75 L14.25 11.05 Q17.45 7.9 21.9 6.95 L21.8 7.75 Q21.8 9.4 23.45 10.1 L26.6 10.8 Q29.25 11.3 32.65 14.1 35.5 16.35 36.7 19.55 L36.85 19.85 37.4 22.35 37.75 24.15 M43.5 27.3 L44.75 25.55 45.25 23.95 45.85 22.05 45.95 21.45 47.15 23.1 Q49.0 26.5 45.95 30.55 L45.85 30.6 45.7 30.3 Q44.75 28.6 43.5 27.35 L43.5 27.3 M46.6 16.95 L46.85 19.0 46.85 19.05 Q46.95 20.1 45.95 21.35 46.45 19.4 46.6 16.95 M11.3 23.15 L11.3 23.75 10.65 24.2 11.55 25.3 11.6 25.55 11.05 26.4 11.0 27.75 Q11.0 30.7 15.35 33.05 19.1 35.05 22.25 35.05 L25.1 34.85 24.5 35.85 24.4 36.1 22.4 36.4 Q16.05 37.15 11.0 32.5 6.85 28.65 9.85 24.7 L11.3 23.15 M26.1 35.35 L26.5 35.4 26.1 35.45 26.1 35.35" fill="#efddc5" fill-rule="evenodd" stroke="none"/>
      <path d="M33.6 2.3 Q35.6 4.45 37.05 6.85 39.55 10.9 39.55 13.85 39.55 15.8 38.65 18.9 38.8 16.85 38.55 15.3 38.1 11.85 37.25 10.15 36.45 8.4 34.05 7.75 33.05 4.7 33.6 2.3 M46.05 38.05 L46.8 37.95 Q49.0 37.5 50.45 33.9 51.25 31.8 51.5 29.7 L51.6 28.0 51.5 26.25 Q52.25 27.7 52.6 29.35 53.05 32.25 52.45 34.6 51.4 38.25 47.55 40.35 45.6 41.3 44.25 40.95 L45.55 39.05 46.05 38.05 M14.85 50.75 Q18.65 52.0 22.9 54.25 L7.85 54.25 11.5 51.95 7.3 51.45 4.15 54.25 -0.2 54.25 -0.2 49.85 0.95 48.55 -0.2 49.85 -0.2 45.45 Q0.8 46.8 0.95 48.55 L2.7 46.3 1.7 42.85 -0.2 41.35 -0.2 37.65 1.2 37.1 1.45 37.4 Q2.95 47.35 13.65 50.35 L14.85 50.75 M18.3 14.55 Q15.35 15.0 13.35 16.85 L10.85 19.85 Q9.7 21.45 8.9 23.3 L11.3 23.15 9.85 24.7 9.0 24.5 7.0 24.4 Q5.55 24.4 4.2 25.8 2.85 27.15 3.25 31.1 3.65 35.0 7.85 38.5 12.0 41.9 18.5 41.9 21.55 41.9 26.35 39.35 L28.6 38.2 30.0 38.85 29.3 39.75 Q23.5 46.45 14.05 44.3 11.4 43.7 9.1 42.75 6.7 41.05 3.6 37.35 2.0 35.45 1.25 33.5 L0.85 32.5 Q0.4 31.1 0.35 29.8 L0.35 28.55 Q0.5 25.75 1.45 24.45 2.6 22.85 3.9 22.2 L2.45 21.5 Q0.85 20.6 -0.2 19.25 L-0.2 13.85 0.2 14.85 Q0.75 16.05 2.25 17.45 3.75 18.9 6.1 19.3 8.5 19.75 11.8 17.15 15.15 14.55 18.15 14.55 L18.3 14.55 M8.9 23.3 Q6.5 23.05 4.55 22.4 L3.9 22.2 4.55 22.4 Q6.5 23.05 8.9 23.3 M2.7 46.3 L3.0 45.85 2.7 46.3" fill="#352b26" fill-rule="evenodd" stroke="none"/>
      <path d="M45.9 30.65 Q47.5 34.65 46.05 38.05 L45.55 39.05 44.35 39.1 43.35 39.05 44.3 36.9 44.6 34.65 Q44.6 33.4 43.95 31.9 L43.45 30.9 42.15 28.95 41.95 28.65 41.15 27.9 Q42.35 27.4 43.45 27.35 L43.5 27.35 Q44.75 28.6 45.7 30.3 L45.85 30.6 45.9 30.65" fill="#fffff8" fill-rule="evenodd" stroke="none"/>
      <path d="M37.75 24.3 L38.85 24.35 40.15 24.7 40.5 24.9 Q42.2 25.9 43.5 27.35 L43.45 27.35 Q42.35 27.4 41.15 27.9 L39.9 26.65 38.7 25.95 37.55 25.7 Q36.0 25.7 34.2 28.25 L32.8 30.3 32.2 31.15 32.1 31.3 32.05 31.35 Q31.75 31.55 31.4 31.85 30.5 32.45 28.95 33.55 L28.1 34.35 27.35 35.3 28.4 35.3 32.05 35.85 33.55 36.4 33.9 36.5 34.85 36.9 Q36.75 37.65 37.95 39.45 L38.6 41.45 Q38.9 42.65 39.9 42.65 L40.5 42.55 41.85 41.1 42.8 39.95 43.35 39.05 44.35 39.1 45.55 39.05 44.25 40.95 43.45 41.8 42.65 42.55 41.15 43.8 Q38.8 45.45 37.7 44.45 L37.15 43.65 36.8 42.25 36.5 40.65 Q35.85 39.05 34.35 38.55 L31.4 37.55 30.3 37.25 30.2 37.2 30.05 37.15 26.95 36.4 25.1 36.0 24.5 35.85 25.1 34.85 Q26.05 33.4 27.4 32.35 27.5 32.2 27.6 32.2 L27.65 32.15 Q28.9 31.1 30.5 30.45 L31.35 29.1 33.05 27.1 34.05 26.1 Q35.75 24.5 37.5 24.3 L37.75 24.3 M26.1 35.35 L26.1 35.45 26.5 35.4 26.1 35.35" fill="#f9e23b" fill-rule="evenodd" stroke="none"/>
      <path d="M41.15 27.9 L41.95 28.65 42.15 28.95 43.45 30.9 43.95 31.9 Q44.6 33.4 44.6 34.65 L44.3 36.9 43.35 39.05 42.1 38.7 39.8 37.35 Q38.9 36.65 38.3 35.8 L37.6 34.5 Q37.25 33.55 37.25 32.5 L37.25 32.35 Q37.35 30.7 38.8 29.35 L39.6 28.75 39.75 28.65 Q40.5 28.15 41.15 27.9" fill="#fdd689" fill-rule="evenodd" stroke="none"/>
      <path d="M43.35 39.05 L42.8 39.95 41.85 41.1 40.5 42.55 39.9 42.65 Q38.9 42.65 38.6 41.45 L37.95 39.45 Q36.75 37.65 34.85 36.9 L33.9 36.5 33.55 36.4 33.0 35.55 32.95 35.5 32.35 34.1 32.3 33.75 32.1 32.4 32.1 32.15 32.1 32.1 32.1 31.9 32.15 31.6 32.2 31.15 32.8 30.3 34.2 28.25 Q36.0 25.7 37.55 25.7 L38.7 25.95 39.9 26.65 41.15 27.9 Q40.5 28.15 39.75 28.65 L39.6 28.75 38.8 29.35 Q37.35 30.7 37.25 32.35 L37.25 32.5 Q37.25 33.55 37.6 34.5 L38.3 35.8 Q38.9 36.65 39.8 37.35 L42.1 38.7 43.35 39.05" fill="#f7bc31" fill-rule="evenodd" stroke="none"/>
      <path d="M42.65 42.55 L43.45 41.8 44.25 40.95 Q45.6 41.3 47.55 40.35 51.4 38.25 52.45 34.6 52.6 38.95 51.2 42.7 L50.75 43.8 Q50.4 42.85 49.9 42.55 L47.45 43.95 Q46.0 44.65 44.85 44.65 44.25 44.65 43.85 44.25 L42.65 42.55 M41.15 43.8 L38.85 46.15 Q36.4 48.85 35.05 48.85 34.75 48.85 33.25 46.75 L31.6 44.65 Q31.0 44.65 30.25 45.95 29.25 47.6 29.25 49.8 L29.25 50.15 29.4 51.85 29.4 52.3 29.25 52.4 22.65 50.3 16.2 46.75 Q15.85 46.75 15.35 48.25 14.85 49.6 14.85 50.15 L14.85 50.75 13.65 50.35 Q2.95 47.35 1.45 37.4 4.5 40.8 9.1 42.75 11.4 43.7 14.05 44.3 23.5 46.45 29.3 39.75 L30.0 38.85 32.55 40.1 Q34.2 42.5 36.8 42.25 L37.15 43.65 37.7 44.45 Q38.8 45.45 41.15 43.8 M35.4 54.25 L36.15 53.5 37.55 52.15 Q38.75 51.05 39.0 50.95 39.7 52.5 39.7 54.0 L39.7 54.25 35.4 54.25 M-0.2 35.35 L1.2 37.1 -0.2 37.65 -0.2 35.35" fill="#e1d9ca" fill-rule="evenodd" stroke="none"/>
      <path d="M38.65 18.9 L38.55 19.85 Q38.35 21.85 37.75 24.15 L37.4 22.35 36.85 19.85 36.7 19.55 Q35.5 16.35 32.65 14.1 29.25 11.3 26.6 10.8 L23.45 10.1 Q21.8 9.4 21.8 7.75 L21.9 6.95 Q27.15 5.9 34.05 7.75 36.45 8.4 37.25 10.15 38.1 11.85 38.55 15.3 38.8 16.85 38.65 18.9 M42.65 42.55 L43.85 44.25 Q44.25 44.65 44.85 44.65 46.0 44.65 47.45 43.95 L49.9 42.55 Q50.4 42.85 50.75 43.8 49.3 47.0 46.55 49.65 L46.05 46.7 Q43.9 50.75 40.05 54.25 L39.7 54.25 39.7 54.0 Q39.7 52.5 39.0 50.95 38.75 51.05 37.55 52.15 L36.15 53.5 35.4 54.25 22.9 54.25 Q18.65 52.0 14.85 50.75 L14.85 50.15 Q14.85 49.6 15.35 48.25 15.85 46.75 16.2 46.75 L22.65 50.3 29.25 52.4 29.4 52.3 29.4 51.85 29.25 50.15 29.25 49.8 Q29.25 47.6 30.25 45.95 31.0 44.65 31.6 44.65 L33.25 46.75 Q34.75 48.85 35.05 48.85 36.4 48.85 38.85 46.15 L41.15 43.8 42.65 42.55 M11.6 25.55 Q12.55 28.6 16.3 31.55 21.05 34.5 27.4 32.35 26.05 33.4 25.1 34.85 L22.25 35.05 Q19.1 35.05 15.35 33.05 11.0 30.7 11.0 27.75 L11.05 26.4 11.6 25.55" fill="#fbfcfb" fill-rule="evenodd" stroke="none"/>
      <path d="M4.85 9.25 Q6.85 10.0 6.85 10.85 L6.8 11.6 6.3 11.65 Q5.55 11.65 2.9 10.0 2.9 8.6 4.85 9.25" fill="#bc9684" fill-rule="evenodd" stroke="none"/>
      <path d="M3.9 22.2 Q2.6 22.85 1.45 24.45 0.5 25.75 0.35 28.55 L0.35 29.8 Q0.4 31.1 0.85 32.5 L1.25 33.5 Q2.0 35.45 3.6 37.35 6.7 41.05 9.1 42.75 4.5 40.8 1.45 37.4 L1.2 37.1 -0.2 35.35 -0.2 24.05 Q0.85 22.75 2.45 21.5 L3.9 22.2 M4.15 54.25 L7.3 51.45 11.5 51.95 7.85 54.25 4.15 54.25" fill="#3d3f3c" fill-rule="evenodd" stroke="none"/>
      <path d="M32.2 31.15 L32.15 31.6 32.1 31.9 32.1 32.1 32.1 32.15 32.1 32.4 32.3 33.75 32.35 34.1 32.95 35.5 33.0 35.55 33.55 36.4 32.05 35.85 28.4 35.3 27.35 35.3 28.1 34.35 28.95 33.55 Q30.5 32.45 31.4 31.85 31.75 31.55 32.05 31.35 L32.1 31.3 32.2 31.15 M30.0 38.85 L28.6 38.2 24.45 36.1 24.4 36.1 24.5 35.85 25.1 36.0 26.95 36.4 30.05 37.15 30.2 37.2 30.3 37.25 31.4 37.55 34.35 38.55 Q35.85 39.05 36.5 40.65 L36.8 42.25 Q34.2 42.5 32.55 40.1 L30.0 38.85" fill="#f8912d" fill-rule="evenodd" stroke="none"/>
      <path d="M35.15 1.65 L34.1 0.95 33.6 2.3 Q33.05 4.7 34.05 7.75 36.45 8.4 37.25 10.15 38.1 11.85 38.55 15.3 38.8 16.85 38.65 18.9 L38.55 19.85 Q38.35 21.85 37.75 24.15 L37.75 24.3 38.85 24.35 40.15 24.7 40.5 24.9 Q42.2 25.9 43.5 27.35 L43.5 27.3 44.75 25.55 45.25 23.95 Q46.15 20.2 44.85 15.6 L43.4 16.8 Q41.0 19.25 40.15 24.7 M45.85 13.55 L44.7 11.0 Q40.7 5.05 35.15 1.65 M46.6 16.95 Q46.4 15.15 45.85 13.55 M45.95 21.45 L47.15 23.1 Q49.0 26.5 45.95 30.55 L45.9 30.65 Q47.5 34.65 46.05 38.05 L45.55 39.05 44.25 40.95 43.45 41.8 42.65 42.55 41.15 43.8 Q38.8 45.45 37.7 44.45 L37.15 43.65 36.8 42.25 Q34.2 42.5 32.55 40.1 L30.0 38.85 28.6 38.2 24.45 36.1 24.4 36.1 24.5 35.85 25.1 36.0 26.95 36.4 30.05 37.15 30.2 37.2 30.3 37.25 31.4 37.55 34.35 38.55 Q35.85 39.05 36.5 40.65 L36.8 42.25 M51.5 26.25 Q49.3 22.65 45.95 21.4 L45.95 21.45 45.85 22.05 45.25 23.95 M45.95 21.35 Q46.95 20.1 46.85 19.05 L46.85 19.0 46.6 16.95 Q46.45 19.4 45.95 21.35 L45.95 21.4 M52.45 34.6 Q53.05 32.25 52.6 29.35 52.25 27.7 51.5 26.25 M43.5 27.35 Q44.75 28.6 45.7 30.3 L45.85 30.6 45.95 30.55 M45.9 30.65 L45.85 30.6 M50.75 43.8 L51.2 42.7 Q52.6 38.95 52.45 34.6 51.4 38.25 47.55 40.35 45.6 41.3 44.25 40.95 M14.85 50.75 Q18.65 52.0 22.9 54.25 M40.05 54.25 Q43.9 50.75 46.05 46.7 L46.55 49.65 Q49.3 47.0 50.75 43.8 M21.9 6.95 Q17.45 7.9 14.25 11.05 L21.2 11.75 Q27.65 12.05 31.75 15.25 34.0 17.0 35.55 19.7 L35.7 19.85 37.05 22.95 37.5 24.3 37.75 24.3 M8.9 23.3 L11.3 23.15 11.3 23.75 12.4 23.0 Q14.3 19.05 17.7 18.0 L22.05 17.65 23.9 18.0 24.05 18.0 Q28.25 19.2 30.0 22.85 30.75 24.25 31.05 26.0 L31.35 28.55 31.35 29.1 33.05 27.1 34.05 26.1 Q35.75 24.5 37.5 24.3 M26.6 32.5 L27.6 32.2 27.65 32.15 Q28.9 31.1 30.5 30.45 L31.35 29.1 M34.05 7.75 Q27.15 5.9 21.9 6.95 M9.1 42.75 Q11.4 43.7 14.05 44.3 23.5 46.45 29.3 39.75 L30.0 38.85 M9.85 24.7 L11.3 23.15 M2.45 21.5 L3.9 22.2 4.55 22.4 Q6.5 23.05 8.9 23.3 M11.55 25.3 L10.65 24.2 11.3 23.75 M26.6 32.5 Q23.4 33.65 19.25 32.5 16.95 31.85 15.3 30.55 13.3 28.9 12.35 26.3 L11.55 25.3 11.6 25.55 Q12.55 28.6 16.3 31.55 21.05 34.5 27.4 32.35 27.5 32.2 27.6 32.2 M25.1 34.85 Q26.05 33.4 27.4 32.35 M1.45 37.4 Q4.5 40.8 9.1 42.75 M3.0 45.85 L2.7 46.3 0.95 48.55 -0.2 49.85 M4.15 54.25 L7.3 51.45 M1.7 42.85 L-0.2 41.35 M1.2 37.1 L1.45 37.4 Q2.95 47.35 13.65 50.35 L14.85 50.75 M24.5 35.85 L25.1 34.85 M9.85 24.7 Q6.85 28.65 11.0 32.5 16.05 37.15 22.4 36.4 L24.4 36.1 M-0.2 35.35 L1.2 37.1 -0.2 37.65 M-0.2 19.25 Q0.85 20.6 2.45 21.5 0.85 22.75 -0.2 24.05 M14.25 11.05 Q6.45 9.75 -0.2 6.3" fill="none" stroke="#0a0c0b" stroke-linecap="round" stroke-linejoin="round" stroke-width="1.0"/>
    </g>
    <g id="shape2" transform="matrix(1.0, 0.0, 0.0, 1.0, 0.0, 0.0)">
      <path d="M50.5 0.0 Q53.95 0.0 53.95 3.3 L53.95 50.15 Q53.95 53.4 50.5 53.4 L3.3 53.4 Q0.0 53.4 0.0 50.15 L0.0 3.3 Q0.0 0.0 3.3 0.0 L50.5 0.0" fill="#000000" fill-opacity="0.003921569" fill-rule="evenodd" stroke="none"/>
    </g>
  </defs>
</svg>
