<?xml version="1.0" encoding="UTF-8" standalone="no"?>
<svg xmlns:ffdec="https://www.free-decompiler.com/flash" xmlns:xlink="http://www.w3.org/1999/xlink" ffdec:objectType="frame" height="57.75px" width="59.05px" xmlns="http://www.w3.org/2000/svg">
  <g transform="matrix(1.0, 0.0, 0.0, 1.0, 2.55, 2.4)">
    <clipPath id="clipPath0" transform="matrix(1.0, 0.0, 0.0, 1.0, 0.0, 0.0)">
      <path d="M50.5 0.0 Q53.95 0.0 53.95 3.3 L53.95 50.15 Q53.95 53.4 50.5 53.4 L3.3 53.4 Q0.0 53.4 0.0 50.15 L0.0 3.3 Q0.0 0.0 3.3 0.0 L50.5 0.0" fill="#000000" fill-rule="evenodd" stroke="none"/>
    </clipPath>
    <g clip-path="url(#clipPath0)">
      <use ffdec:characterId="2" height="57.75" transform="matrix(1.0, 0.0, 0.0, 1.0, -2.55, -2.4)" width="59.05" xlink:href="#shape1"/>
    </g>
    <use ffdec:characterId="3" height="53.4" transform="matrix(1.0, 0.0, 0.0, 1.0, 0.0, 0.0)" width="53.95" xlink:href="#shape2"/>
  </g>
  <defs>
    <g id="shape1" transform="matrix(1.0, 0.0, 0.0, 1.0, 2.55, 2.4)">
      <path d="M36.95 36.55 L37.05 36.35 37.6 35.95 37.65 35.95 Q38.1 35.95 38.45 36.7 38.85 37.5 38.9 38.55 39.0 39.6 38.7 40.35 38.4 41.15 37.95 41.15 37.45 41.15 37.1 40.35 36.7 39.6 36.65 38.55 36.6 37.5 36.85 36.7 L36.9 36.6 36.95 36.55 M25.75 35.95 Q26.8 35.95 27.55 36.8 28.3 37.65 28.3 38.8 28.3 40.0 27.55 40.85 26.8 41.7 25.75 41.7 L25.7 41.7 Q24.65 41.65 23.95 40.85 23.2 40.0 23.2 38.8 23.2 37.65 23.95 36.8 24.65 36.05 25.55 36.0 L25.75 35.95" fill="#ffffff" fill-rule="evenodd" stroke="none"/>
      <path d="M24.05 -1.9 L25.85 -1.9 27.35 3.7 26.65 3.15 Q25.55 2.55 24.9 2.8 24.7 2.85 24.6 3.0 L24.55 3.0 24.05 -1.9 M26.9 -1.9 L29.45 -1.9 30.1 -0.6 31.7 2.55 31.95 3.05 32.7 4.45 32.8 4.6 32.65 4.6 32.25 4.65 31.95 4.85 Q31.7 5.1 31.7 5.5 L32.0 6.25 32.25 6.95 Q32.25 7.4 31.45 8.0 L30.65 8.4 30.5 7.9 30.45 7.8 26.9 -1.9 M0.8 41.25 L0.15 54.85 -2.05 54.85 -2.05 49.3 -1.1 41.45 0.0 41.3 0.8 41.25 M1.15 33.95 L4.05 35.15 5.6 35.8 9.6 37.35 10.5 37.25 10.85 36.85 11.2 37.25 11.7 37.85 Q11.15 38.35 11.1 38.4 L10.45 38.55 Q8.8 38.55 5.6 37.4 L3.7 36.7 1.05 35.6 -0.3 35.0 -1.7 34.4 -1.0 33.85 -0.15 33.45 0.0 32.2 0.45 33.55 0.45 33.65 1.15 33.95 M46.4 36.65 L45.8 35.6 44.35 32.95 46.25 35.6 50.95 41.9 55.5 48.1 55.35 48.1 54.4 47.9 54.15 47.75 53.8 47.65 Q53.25 47.4 52.95 47.4 L52.6 47.45 50.05 43.0 46.85 37.4 46.9 37.3 46.4 36.65 M40.7 42.65 L40.7 42.7 40.75 43.15 40.8 43.9 40.85 44.35 41.05 46.15 41.15 47.75 41.2 48.2 40.05 47.2 37.65 51.1 35.9 50.1 Q35.85 44.1 34.9 36.0 L34.6 33.5 35.5 32.45 35.85 32.1 36.3 32.35 38.1 33.45 39.0 32.3 39.7 36.1 39.8 36.5 39.85 36.9 40.0 37.6 40.65 42.5 40.7 42.65 M31.0 2.55 L30.8 2.25 30.3 1.85 29.8 1.65 29.4 1.75 Q29.1 1.9 29.1 2.3 29.1 2.8 29.6 3.3 30.05 3.7 30.5 3.8 L30.7 3.8 31.1 3.65 31.25 3.25 31.1 2.7 31.0 2.55 M16.9 41.8 L16.65 41.85 Q15.7 41.85 14.85 39.8 14.2 38.15 14.2 37.35 L14.4 36.25 Q14.65 35.85 15.05 35.85 L15.45 35.95 15.65 36.05 Q16.45 36.65 17.1 37.9 17.8 40.25 16.9 41.8 M30.6 32.7 L31.0 33.0 33.55 34.7 33.75 38.85 33.85 44.45 32.95 44.65 31.6 44.85 30.65 33.0 30.6 32.7 M36.35 36.15 L35.95 37.55 35.95 38.4 Q36.0 39.75 36.6 40.7 37.15 41.65 37.9 41.65 38.6 41.65 39.05 40.7 39.5 39.75 39.4 38.4 39.35 37.1 38.8 36.15 L38.75 36.15 38.55 35.8 Q38.05 35.2 37.5 35.2 36.75 35.2 36.35 36.15 M25.7 51.7 L25.7 50.4 25.7 43.75 29.15 42.6 29.35 52.0 27.15 50.5 25.7 51.7 M0.45 33.65 L-0.15 33.45 0.45 33.65" fill="#ecb678" fill-rule="evenodd" stroke="none"/>
      <path d="M20.85 -1.9 L21.1 -1.9 21.05 -1.65 21.1 -1.9 22.55 -1.9 22.35 1.45 22.35 1.95 22.2 1.75 21.75 1.55 21.15 2.05 Q20.8 2.55 20.8 3.45 20.8 4.0 21.1 4.35 21.35 4.7 21.7 4.7 L22.2 4.5 22.0 8.45 22.0 8.85 21.65 8.55 Q21.5 8.3 21.5 7.65 L21.35 6.65 Q21.1 6.25 20.3 6.25 L19.85 6.35 20.05 4.85 20.35 2.9 20.6 1.35 20.6 1.15 21.05 -1.65 20.85 -1.9 M41.35 32.5 L41.65 32.35 42.2 31.7 42.75 32.65 42.65 32.65 Q41.7 32.65 41.7 33.35 L41.7 33.55 41.35 32.5 M10.35 44.05 L10.0 42.85 8.55 42.2 5.6 41.45 2.0 41.2 0.8 41.25 0.0 41.3 -1.1 41.45 -1.4 41.45 -1.7 41.1 Q-2.2 40.3 -1.6 38.45 -1.15 37.2 -0.55 37.0 L-0.05 37.05 1.0 37.5 1.9 37.9 5.6 39.55 Q9.15 41.05 10.45 41.05 11.8 41.05 12.35 40.35 12.85 39.8 12.85 38.65 L12.6 37.65 12.25 36.7 Q12.85 36.8 13.25 37.35 L13.4 37.6 13.85 38.65 13.85 40.2 13.8 40.6 14.25 41.85 Q14.75 42.85 15.75 42.85 16.15 42.85 16.75 42.3 L16.9 41.8 Q17.8 40.25 17.1 37.9 16.45 36.65 15.65 36.05 L15.45 35.85 Q14.75 35.45 13.85 35.45 L14.25 33.35 16.0 35.25 19.65 32.7 21.7 34.5 21.1 44.4 20.65 50.95 20.05 51.4 17.75 53.05 15.3 49.7 12.55 51.75 11.3 49.6 11.7 47.2 11.95 45.6 10.95 44.95 10.35 44.05 M52.65 9.9 Q53.85 12.65 55.05 16.45 L55.1 16.7 54.3 16.9 54.1 17.2 51.85 10.75 51.85 10.7 52.65 9.9 M41.9 34.0 Q42.1 34.2 42.45 34.2 L43.05 33.95 43.35 33.65 44.2 35.0 44.05 35.0 43.95 35.0 44.05 35.0 44.45 35.5 45.75 37.3 46.1 38.0 46.0 38.05 52.0 48.0 51.75 48.65 Q51.4 50.0 50.7 50.25 L49.85 50.65 49.4 51.0 Q49.05 51.4 48.85 52.1 L48.7 51.7 47.85 49.6 47.8 49.4 47.75 49.35 43.9 39.3 44.45 39.15 43.9 39.3 42.9 39.9 42.85 39.9 Q42.05 40.5 41.35 41.45 L40.7 42.65 40.65 42.5 40.0 37.6 39.85 36.9 40.45 37.8 41.8 37.55 41.95 37.55 43.1 37.25 44.15 36.95 44.15 36.2 43.7 36.4 43.75 36.2 43.95 35.0 43.55 34.95 42.85 36.5 42.5 35.6 41.9 34.0 M23.9 20.15 L24.5 20.15 23.85 20.3 23.8 20.35 23.45 20.35 22.9 20.5 20.5 20.9 20.15 25.05 20.05 26.15 19.85 26.15 Q18.65 26.15 18.0 25.35 17.55 24.8 17.3 23.6 L17.15 23.05 15.55 22.8 15.4 22.8 15.35 21.1 15.3 19.85 13.0 19.2 10.8 18.85 10.75 19.55 Q10.4 19.65 10.15 20.0 9.8 20.4 9.7 20.95 9.65 21.45 10.15 22.1 L10.55 22.45 10.25 25.85 10.15 25.7 Q9.8 25.15 9.8 24.8 L9.85 24.3 9.95 23.8 Q9.95 23.15 9.3 22.6 8.75 22.1 8.15 22.1 7.75 22.1 7.6 22.4 L7.35 23.05 Q7.0 24.0 5.9 24.0 5.3 24.0 4.85 23.55 L5.95 18.3 4.2 17.45 2.55 16.65 2.35 17.05 1.3 20.45 1.1 21.2 0.9 21.15 Q0.3 21.15 -0.15 20.55 -0.5 20.0 -0.5 19.35 L-0.3 18.1 -0.3 17.95 -0.5 17.15 -0.4 16.4 -0.25 15.4 Q0.1 16.05 0.75 16.05 1.75 16.05 1.75 14.55 L1.65 13.85 1.4 13.25 0.95 12.8 0.5 12.6 0.2 12.7 0.65 10.5 Q5.4 16.15 13.5 18.55 L13.85 18.6 15.35 19.0 16.35 19.2 16.35 19.25 17.5 19.5 20.1 19.85 23.15 20.1 23.4 20.1 23.9 20.15 M12.45 42.75 L13.45 41.75 13.8 40.6 13.45 41.75 12.45 42.75 M16.75 42.3 L15.5 44.5 15.5 44.55 14.7 45.35 Q14.0 45.85 13.2 45.85 L11.95 45.6 13.2 45.85 Q14.0 45.85 14.7 45.35 L15.5 44.55 15.5 44.5 16.75 42.3" fill="#906542" fill-rule="evenodd" stroke="none"/>
      <path d="M22.55 -1.9 L24.05 -1.9 24.55 3.0 Q23.9 3.5 23.9 4.3 23.95 5.1 24.45 6.0 L24.9 7.25 Q24.9 8.05 24.3 8.55 23.7 9.0 22.8 9.0 L22.25 8.95 22.0 8.85 22.0 8.45 22.2 4.5 22.35 4.35 22.65 3.5 22.6 2.95 22.5 2.3 22.35 1.95 22.35 1.45 22.55 -1.9 M25.85 -1.9 L26.9 -1.9 30.45 7.8 30.5 7.9 30.65 8.4 30.5 8.5 30.1 8.55 Q29.5 8.55 28.85 8.1 28.25 7.65 28.1 5.8 28.05 4.45 27.35 3.7 L25.85 -1.9 M53.4 8.45 L53.45 8.45 54.5 10.4 Q54.35 10.65 54.35 11.25 54.35 12.25 54.75 13.25 55.15 14.25 55.65 14.25 L55.95 14.05 56.0 13.75 56.0 16.4 55.2 16.7 55.1 16.7 55.05 16.45 Q53.85 12.65 52.65 9.9 L53.1 9.1 53.25 8.9 53.4 8.5 53.4 8.45 M40.3 33.35 Q40.4 32.9 40.75 32.7 L41.35 32.5 41.7 33.55 41.8 33.85 41.9 34.0 42.5 35.6 42.85 36.5 42.85 36.55 42.65 36.6 41.65 36.7 42.65 36.6 42.85 36.55 42.85 36.5 43.55 34.95 43.95 35.0 43.75 36.2 43.7 36.4 44.15 36.2 44.15 36.95 43.1 37.25 41.95 37.55 41.8 37.55 40.45 37.8 39.85 36.9 39.8 36.5 39.7 36.1 40.5 36.7 41.05 36.75 41.65 36.7 40.3 33.35 M42.2 31.7 L42.25 31.45 Q42.4 31.05 42.85 31.0 L42.95 31.0 Q43.6 31.0 44.15 31.7 44.6 32.25 45.15 32.35 L47.85 35.6 48.0 35.75 56.0 45.35 56.0 47.95 55.5 48.1 50.95 41.9 46.25 35.6 44.35 32.95 45.8 35.6 46.4 36.65 45.75 35.85 45.15 35.1 44.2 35.0 45.15 35.1 45.75 35.85 46.4 36.65 46.9 37.3 46.85 37.4 50.05 43.0 52.6 47.45 Q52.2 47.55 52.0 48.0 L46.0 38.05 46.1 38.0 45.75 37.3 44.45 35.5 44.05 35.0 44.2 35.0 43.35 33.65 43.4 33.35 43.3 32.9 43.2 32.8 42.75 32.65 42.2 31.7 M-2.05 49.3 L-2.05 41.2 -2.05 34.75 -2.05 33.6 Q-1.5 33.6 -1.15 32.8 -0.75 31.95 -0.3 31.95 L0.0 32.2 -0.15 33.45 -1.0 33.85 -1.7 34.4 -0.3 35.0 1.05 35.6 3.7 36.7 5.6 37.4 Q8.8 38.55 10.45 38.55 L11.1 38.4 Q11.15 38.35 11.7 37.85 L11.2 37.25 10.85 36.85 10.95 36.8 11.0 36.75 Q12.2 35.45 13.7 35.45 L13.85 35.45 Q14.75 35.45 15.45 35.85 L15.65 36.05 15.45 35.95 15.05 35.85 Q14.65 35.85 14.4 36.25 L14.2 37.35 Q14.2 38.15 14.85 39.8 15.7 41.85 16.65 41.85 L16.9 41.8 16.75 42.3 Q16.15 42.85 15.75 42.85 14.75 42.85 14.25 41.85 L13.8 40.6 13.85 40.2 13.85 38.65 13.4 37.6 13.25 37.35 Q12.85 36.8 12.25 36.7 L12.6 37.65 12.85 38.65 Q12.85 39.8 12.35 40.35 11.8 41.05 10.45 41.05 9.15 41.05 5.6 39.55 L1.9 37.9 1.0 37.5 -0.05 37.05 -0.55 37.0 Q-1.15 37.2 -1.6 38.45 -2.2 40.3 -1.7 41.1 L-1.4 41.45 -1.1 41.45 -2.05 49.3 M-2.05 17.1 L-2.05 12.55 Q-1.4 10.4 -0.4 8.4 L0.1 9.65 0.3 10.05 0.65 10.5 0.2 12.7 -0.2 13.0 Q-0.6 13.5 -0.6 14.2 L-0.3 15.35 -0.25 15.4 -0.4 16.4 -0.5 17.15 -0.6 17.8 -1.8 17.2 -2.05 17.1 M47.7 14.95 L48.65 15.7 49.2 17.95 49.05 18.0 46.7 18.7 Q45.0 19.35 43.75 20.0 L43.6 20.05 Q42.95 20.35 42.7 20.9 L42.45 21.65 42.35 24.1 Q42.25 25.0 40.85 25.55 L37.85 26.05 Q36.05 26.05 35.2 25.45 34.7 25.05 34.3 24.1 L33.45 22.75 33.15 22.55 31.35 22.65 29.75 22.7 Q29.3 23.15 29.2 24.05 L29.1 24.95 29.0 25.55 Q28.85 26.35 28.45 26.6 L28.35 26.65 27.55 27.0 26.3 27.25 Q23.9 27.25 23.25 25.7 L23.0 24.9 22.9 24.6 Q22.65 24.1 22.2 24.1 21.65 24.1 21.55 24.45 L21.45 24.95 21.45 25.15 Q21.35 26.1 20.05 26.15 L20.15 25.05 20.5 20.9 22.9 20.5 23.45 20.35 23.8 20.35 23.85 20.3 24.5 20.15 26.35 20.25 27.0 20.25 29.15 20.2 29.4 20.2 30.5 20.15 31.7 20.1 Q38.5 19.75 42.45 18.6 L42.7 18.55 42.95 18.5 43.75 18.2 Q45.25 17.65 46.2 16.9 L46.25 16.85 46.9 16.1 47.7 14.95 M42.85 36.55 L43.7 36.4 42.85 36.55 M42.9 39.9 L43.9 39.3 47.75 49.35 46.75 47.75 45.55 46.4 45.5 46.35 45.4 46.2 42.9 39.9 M48.7 51.7 L48.85 52.1 48.8 52.2 48.7 51.7 M39.7 20.75 L39.5 20.6 38.4 20.2 Q37.8 20.2 37.35 20.6 36.85 21.1 36.8 21.8 36.7 22.5 37.3 23.15 37.85 23.85 38.55 23.75 39.25 23.65 39.8 23.15 40.4 22.65 40.4 22.05 L40.25 21.4 39.95 20.95 39.7 20.75 M23.95 22.75 Q23.95 23.4 24.4 23.95 24.95 24.6 25.85 24.6 26.6 24.6 27.2 24.1 27.85 23.55 27.85 22.75 L27.7 22.15 27.5 21.75 26.8 21.1 26.75 21.1 25.7 21.0 Q25.1 21.1 24.55 21.65 23.95 22.15 23.95 22.75 M10.55 22.45 L11.5 22.7 12.7 22.35 Q13.05 22.0 13.05 21.4 L12.9 20.75 12.6 20.25 11.8 19.7 10.9 19.55 10.75 19.55 10.8 18.85 13.0 19.2 15.3 19.85 15.35 21.1 15.4 22.8 14.35 22.65 14.45 23.15 14.6 24.3 14.55 24.8 14.1 25.45 14.05 25.45 12.95 26.0 11.25 26.35 Q10.7 26.35 10.25 25.85 L10.55 22.45 M12.25 36.7 L12.05 36.65 10.95 36.8 12.05 36.65 12.25 36.7 M20.65 50.95 L21.1 44.4 21.7 34.5 21.95 34.75 24.15 33.35 25.35 32.55 26.3 33.25 27.45 34.15 28.75 33.15 29.9 32.25 30.6 32.7 30.65 33.0 31.6 44.85 32.95 44.65 33.85 44.45 33.75 38.85 33.55 34.7 33.55 34.65 34.6 33.5 34.9 36.0 Q35.85 44.1 35.9 50.1 L34.2 49.15 30.8 53.05 29.35 52.0 29.15 42.6 25.7 43.75 25.7 50.4 25.7 51.7 23.5 53.5 20.9 50.75 20.65 50.95 M25.55 35.0 Q24.3 35.05 23.35 36.1 22.35 37.2 22.35 38.75 22.35 40.35 23.35 41.45 24.3 42.55 25.7 42.55 27.1 42.55 28.1 41.45 28.8 40.7 29.0 39.75 L29.1 38.75 28.85 37.35 28.1 36.1 Q27.1 35.0 25.7 35.0 L25.55 35.0 M-2.05 41.2 L-1.75 41.5 -1.4 41.45 -1.75 41.5 -2.05 41.2 M-1.7 34.4 L-2.05 34.75 -1.7 34.4" fill="#ce9665" fill-rule="evenodd" stroke="none"/>
      <path d="M33.75 3.2 L33.85 3.2 Q38.55 3.7 42.7 4.7 L42.95 4.75 43.05 4.8 Q46.2 5.55 49.05 6.6 L50.05 6.95 51.55 7.6 53.4 8.45 53.4 8.5 53.25 8.9 53.1 9.1 52.65 9.9 51.85 10.7 51.85 10.75 51.8 10.7 50.5 10.95 45.85 11.85 44.35 12.1 45.25 12.85 45.7 13.25 Q40.1 15.75 31.25 15.95 L30.25 15.95 28.1 15.95 27.35 15.95 28.1 15.95 30.25 15.95 31.25 15.95 Q40.1 15.75 45.7 13.25 L46.1 13.6 47.2 14.5 47.7 14.95 46.9 16.1 46.25 16.85 46.2 16.9 Q45.25 17.65 43.75 18.2 L42.95 18.5 42.7 18.55 42.45 18.6 Q38.5 19.75 31.7 20.1 L30.5 20.15 29.4 20.2 29.15 20.2 27.0 20.25 26.35 20.25 24.5 20.15 23.9 20.15 Q25.1 17.65 27.1 16.15 L27.35 15.95 29.15 15.1 29.45 15.05 30.5 14.9 33.45 14.35 Q35.75 13.8 37.25 13.05 42.7 11.85 43.15 10.15 L43.15 10.05 Q42.85 6.9 35.1 5.75 42.85 6.9 43.15 10.05 L43.15 10.15 Q42.7 11.85 37.25 13.05 39.75 11.8 39.75 10.05 39.75 8.05 36.1 6.2 L35.1 5.75 34.0 5.25 Q33.45 4.65 33.45 4.05 L33.65 3.3 33.75 3.2 M56.0 47.95 L56.0 50.15 54.4 47.9 55.35 48.1 55.5 48.1 56.0 47.95 M48.7 54.85 L46.9 54.85 43.65 54.85 40.15 54.85 40.4 54.65 40.5 54.55 41.0 54.1 42.85 51.4 42.95 51.15 44.0 48.2 44.25 47.7 44.75 46.9 45.55 47.75 46.5 49.05 Q47.15 50.2 47.4 51.4 L47.55 52.95 46.9 54.85 47.55 52.95 47.4 51.4 Q47.15 50.2 46.5 49.05 L45.55 47.75 44.75 46.9 45.45 46.45 45.55 46.4 46.75 47.75 47.75 49.35 47.8 49.4 47.85 49.6 48.7 51.7 48.8 52.2 49.05 53.15 49.1 53.65 48.75 54.75 48.7 54.85 M43.05 4.8 Q49.6 7.15 45.85 11.85 49.6 7.15 43.05 4.8 M43.65 54.85 L44.1 54.3 Q45.0 53.15 45.1 51.75 45.15 50.45 44.6 49.2 L44.0 48.2 44.6 49.2 Q45.15 50.45 45.1 51.75 45.0 53.15 44.1 54.3 L43.65 54.85" fill="#fce6ad" fill-rule="evenodd" stroke="none"/>
      <path d="M31.95 3.05 L33.65 3.2 33.75 3.2 33.65 3.3 33.45 4.05 Q33.45 4.65 34.0 5.25 L35.1 5.75 34.4 5.6 33.25 5.5 34.4 5.6 35.1 5.75 36.1 6.2 Q39.75 8.05 39.75 10.05 39.75 11.8 37.25 13.05 35.75 13.8 33.45 14.35 L30.5 14.9 29.45 15.05 29.15 15.1 27.35 15.95 26.0 15.9 22.35 15.65 Q17.0 15.1 11.8 13.7 3.55 10.85 4.95 9.35 3.55 10.85 11.8 13.7 17.0 15.1 22.35 15.65 L26.0 15.9 27.35 15.95 27.1 16.15 Q25.1 17.65 23.9 20.15 L23.4 20.1 23.15 20.1 20.1 19.85 17.5 19.5 16.35 19.25 16.35 19.2 15.35 19.0 13.85 18.6 13.5 18.55 Q5.4 16.15 0.65 10.5 L0.3 10.05 0.1 9.65 -0.4 8.4 -0.35 8.3 1.95 6.95 Q4.95 5.45 8.5 4.5 L13.5 3.45 20.35 2.9 20.05 4.85 19.85 6.35 19.75 6.95 19.5 8.7 19.05 11.75 Q19.05 13.2 23.4 13.45 L25.6 13.5 27.45 13.4 29.85 13.2 30.5 13.1 31.95 12.8 32.2 12.75 32.4 12.7 Q36.35 11.6 35.25 9.15 L34.05 6.95 33.25 5.5 32.9 4.85 32.8 4.6 32.7 4.45 31.95 3.05 M55.7 23.5 L50.5 23.45 50.3 22.4 50.05 21.5 Q51.3 21.4 51.75 20.75 52.05 20.35 52.05 18.7 52.05 16.3 51.3 14.75 L50.1 12.6 Q49.55 11.85 49.05 11.85 L49.0 11.85 46.8 12.25 45.25 12.85 46.8 12.25 49.0 11.85 49.05 11.85 Q49.55 11.85 50.1 12.6 L51.3 14.75 Q52.05 16.3 52.05 18.7 52.05 20.35 51.75 20.75 51.3 21.4 50.05 21.5 L49.7 20.15 49.4 18.8 49.7 17.65 Q49.7 16.35 49.15 15.4 L49.05 15.2 Q48.55 14.55 47.95 14.4 L47.65 14.4 47.2 14.5 47.65 14.4 47.95 14.4 Q48.55 14.55 49.05 15.2 L49.15 15.4 Q49.7 16.35 49.7 17.65 L49.4 18.8 49.2 17.95 48.65 15.7 47.7 14.95 47.2 14.5 46.1 13.6 45.7 13.25 45.25 12.85 44.35 12.1 45.85 11.85 50.5 10.95 51.8 10.7 51.85 10.75 54.1 17.2 55.7 23.5 M56.0 50.15 L56.0 50.25 56.0 54.85 55.1 54.85 49.2 54.85 49.2 54.7 49.2 54.6 49.1 53.65 49.05 53.15 48.8 52.2 48.85 52.1 Q49.05 51.4 49.4 51.0 L49.85 50.65 50.7 50.25 Q51.4 50.0 51.75 48.65 L52.0 48.0 Q52.2 47.55 52.6 47.45 L52.95 47.4 Q53.25 47.4 53.8 47.65 L54.15 47.75 54.4 47.9 56.0 50.15 M40.15 54.85 L38.2 54.85 39.4 53.8 Q40.55 52.65 41.35 51.15 L41.2 48.2 41.15 47.75 41.05 46.15 40.85 44.35 40.8 43.9 40.75 43.15 40.8 43.2 41.1 43.3 41.25 43.4 41.6 43.55 44.95 45.8 45.4 46.2 45.5 46.35 45.55 46.4 45.45 46.45 44.75 46.9 44.25 47.7 44.0 48.2 42.95 51.15 42.85 51.4 41.0 54.1 40.5 54.55 40.4 54.65 40.15 54.85 M18.0 54.85 L17.6 54.85 17.9 54.3 18.0 54.85 M14.05 54.85 L9.55 54.85 6.7 54.85 4.6 54.85 4.05 53.2 3.95 52.1 3.95 51.9 3.95 51.8 4.1 50.55 Q4.8 47.05 7.65 45.2 8.85 44.5 10.35 44.05 L10.95 44.95 11.95 45.6 11.7 47.2 11.3 49.6 10.95 51.7 Q12.25 53.55 14.05 54.85 M50.5 10.95 Q51.5 13.0 52.4 15.9 53.35 19.2 53.35 20.5 53.35 21.35 53.0 21.75 52.45 22.4 50.8 22.4 L50.3 22.4 50.8 22.4 Q52.45 22.4 53.0 21.75 53.35 21.35 53.35 20.5 53.35 19.2 52.4 15.9 51.5 13.0 50.5 10.95 M46.1 13.6 L46.55 13.45 47.7 13.2 49.05 13.6 50.05 14.65 Q50.95 16.1 50.95 18.2 L50.5 19.5 49.7 20.15 50.5 19.5 50.95 18.2 Q50.95 16.1 50.05 14.65 L49.05 13.6 47.7 13.2 46.55 13.45 46.1 13.6 M41.05 46.15 Q42.65 46.7 43.65 47.75 L44.0 48.2 43.65 47.75 Q42.65 46.7 41.05 46.15 M40.85 44.35 Q43.2 45.4 44.75 46.9 43.2 45.4 40.85 44.35 M17.8 7.2 L12.55 7.45 9.55 8.05 Q8.75 8.35 8.1 8.95 7.5 9.55 9.15 10.6 10.8 11.65 13.35 12.5 15.95 13.35 18.7 13.8 L29.25 14.2 29.4 14.2 29.5 14.2 37.25 13.05 29.5 14.2 29.4 14.2 29.25 14.2 18.7 13.8 Q15.95 13.35 13.35 12.5 10.8 11.65 9.15 10.6 7.5 9.55 8.1 8.95 8.75 8.35 9.55 8.05 L12.55 7.45 17.8 7.2 M5.25 8.8 Q7.9 5.7 17.7 4.95 7.9 5.7 5.25 8.8 M9.55 54.85 L8.6 53.55 8.55 53.5 Q6.8 49.2 10.15 47.7 L11.7 47.2 10.15 47.7 Q6.8 49.2 8.55 53.5 L8.6 53.55 9.55 54.85 M10.85 46.15 Q6.9 46.55 5.95 50.7 5.65 52.75 6.7 54.85 5.65 52.75 5.95 50.7 6.9 46.55 10.85 46.15 M56.0 50.25 L53.8 47.65 56.0 50.25 M49.85 50.65 L55.1 54.85 49.85 50.65" fill="#e0c494" fill-rule="evenodd" stroke="none"/>
      <path d="M54.5 10.4 L54.65 10.7 56.0 13.7 56.0 13.75 55.95 14.05 55.65 14.25 Q55.15 14.25 54.75 13.25 54.35 12.25 54.35 11.25 54.35 10.65 54.5 10.4 M56.0 16.4 L56.0 19.7 55.1 16.7 55.2 16.7 56.0 16.4 M50.5 23.45 L51.3 26.6 49.05 27.8 48.9 27.85 47.7 28.35 46.45 28.8 45.7 29.05 42.7 29.85 41.85 30.0 39.15 30.4 38.6 30.5 19.55 31.2 19.8 28.35 19.85 27.9 20.05 26.15 Q21.35 26.1 21.45 25.15 L21.45 24.95 21.55 24.45 Q21.65 24.1 22.2 24.1 22.65 24.1 22.9 24.6 L23.0 24.9 23.25 25.7 Q23.9 27.25 26.3 27.25 L27.55 27.0 28.35 26.65 28.45 26.6 Q28.85 26.35 29.0 25.55 L29.1 24.95 29.2 24.05 Q29.3 23.15 29.75 22.7 L31.35 22.65 33.15 22.55 33.45 22.75 34.3 24.1 Q34.7 25.05 35.2 25.45 36.05 26.05 37.85 26.05 L40.85 25.55 Q42.25 25.0 42.35 24.1 L42.45 21.65 42.7 20.9 Q42.95 20.35 43.6 20.05 L43.75 20.0 Q45.0 19.35 46.7 18.7 L49.05 18.0 49.2 17.95 49.4 18.8 49.7 20.15 50.05 21.5 50.3 22.4 50.5 23.45 M38.2 54.85 L24.2 54.85 Q21.7 53.75 20.6 52.25 L20.05 51.4 20.65 50.95 20.9 50.75 23.5 53.5 25.7 51.7 27.15 50.5 29.35 52.0 30.8 53.05 34.2 49.15 35.9 50.1 37.65 51.1 40.05 47.2 41.2 48.2 41.35 51.15 Q40.55 52.65 39.4 53.8 L38.2 54.85 M-1.35 24.8 L-2.05 24.35 -2.05 17.1 -1.8 17.2 -0.6 17.8 -1.35 24.8 M31.0 2.55 L31.1 2.7 31.25 3.25 31.1 3.65 30.7 3.8 30.5 3.8 Q30.05 3.7 29.6 3.3 29.1 2.8 29.1 2.3 29.1 1.9 29.4 1.75 L29.8 1.65 30.3 1.85 30.8 2.25 31.0 2.55 M30.65 8.4 L31.45 8.0 Q32.25 7.4 32.25 6.95 L32.0 6.25 31.7 5.5 Q31.7 5.1 31.95 4.85 L32.25 4.65 32.65 4.6 32.8 4.6 32.9 4.85 33.25 5.5 34.05 6.95 35.25 9.15 Q36.35 11.6 32.4 12.7 L31.65 12.65 30.5 11.9 Q28.15 10.35 26.7 8.15 25.6 6.4 25.1 4.35 L24.9 2.8 Q25.55 2.55 26.65 3.15 L27.35 3.7 Q28.05 4.45 28.1 5.8 28.25 7.65 28.85 8.1 29.5 8.55 30.1 8.55 L30.5 8.5 30.65 8.4 M15.4 22.8 L15.4 25.0 15.5 27.15 15.5 28.35 15.5 29.25 15.05 29.25 11.4 28.5 10.85 28.35 10.05 28.1 10.1 27.6 10.25 25.85 Q10.7 26.35 11.25 26.35 L12.95 26.0 14.05 25.45 14.1 25.45 14.55 24.8 14.6 24.3 14.45 23.15 14.35 22.65 15.4 22.8 M23.95 22.75 Q23.95 22.15 24.55 21.65 25.1 21.1 25.7 21.0 L26.75 21.1 26.8 21.1 27.5 21.75 27.7 22.15 27.85 22.75 Q27.85 23.55 27.2 24.1 26.6 24.6 25.85 24.6 24.95 24.6 24.4 23.95 23.95 23.4 23.95 22.75 M39.7 20.75 L39.95 20.95 40.25 21.4 40.4 22.05 Q40.4 22.65 39.8 23.15 39.25 23.65 38.55 23.75 37.85 23.85 37.3 23.15 36.7 22.5 36.8 21.8 36.85 21.1 37.35 20.6 37.8 20.2 38.4 20.2 L39.5 20.6 39.7 20.75 M10.75 19.55 L10.9 19.55 11.8 19.7 12.6 20.25 12.9 20.75 13.05 21.4 Q13.05 22.0 12.7 22.35 L11.5 22.7 10.55 22.45 10.75 19.55 M-0.25 15.4 L-0.3 15.35 -0.6 14.2 Q-0.6 13.5 -0.2 13.0 L0.2 12.7 -0.25 15.4" fill="#fb910a" fill-rule="evenodd" stroke="none"/>
      <path d="M56.0 19.7 L56.0 23.15 55.7 23.5 54.1 17.2 54.3 16.9 55.1 16.7 56.0 19.7 M-2.05 33.6 L-2.05 28.7 -1.8 28.75 -0.15 29.25 0.3 29.5 1.15 30.15 1.3 30.45 1.15 33.95 0.45 33.65 0.45 33.55 0.0 32.2 -0.3 31.95 Q-0.75 31.95 -1.15 32.8 -1.5 33.6 -2.05 33.6 M14.75 30.85 L9.9 29.9 5.4 28.35 Q1.9 26.95 -1.35 24.8 L-0.6 17.8 -0.5 17.15 -0.3 17.95 -0.3 18.1 -0.5 19.35 Q-0.5 20.0 -0.15 20.55 0.3 21.15 0.9 21.15 L1.1 21.2 1.3 20.45 2.35 17.05 2.55 16.65 4.2 17.45 5.95 18.3 4.85 23.55 Q5.3 24.0 5.9 24.0 7.0 24.0 7.35 23.05 L7.6 22.4 Q7.75 22.1 8.15 22.1 8.75 22.1 9.3 22.6 9.95 23.15 9.95 23.8 L9.85 24.3 9.8 24.8 Q9.8 25.15 10.15 25.7 L10.25 25.85 10.1 27.6 10.05 28.1 10.85 28.35 11.4 28.5 15.05 29.25 15.5 29.25 15.5 28.35 15.5 27.15 15.4 25.0 15.4 22.8 15.55 22.8 17.15 23.05 17.3 23.6 Q17.55 24.8 18.0 25.35 18.65 26.15 19.85 26.15 L20.05 26.15 19.85 27.9 19.8 28.35 19.55 31.2 18.25 31.15 14.75 30.85 M42.75 32.65 L43.2 32.8 43.3 32.9 43.4 33.35 43.35 33.65 43.05 33.95 42.45 34.2 Q42.1 34.2 41.9 34.0 L41.8 33.85 41.7 33.55 41.7 33.35 Q41.7 32.65 42.65 32.65 L42.75 32.65 M24.9 2.8 L25.1 4.35 Q25.6 6.4 26.7 8.15 28.15 10.35 30.5 11.9 L31.65 12.65 30.5 12.55 26.3 11.6 Q23.25 10.55 22.25 8.95 L22.8 9.0 Q23.7 9.0 24.3 8.55 24.9 8.05 24.9 7.25 L24.45 6.0 Q23.95 5.1 23.9 4.3 23.9 3.5 24.55 3.0 L24.6 3.0 Q24.7 2.85 24.9 2.8 M0.2 12.7 L0.5 12.6 0.95 12.8 1.4 13.25 1.65 13.85 1.75 14.55 Q1.75 16.05 0.75 16.05 0.1 16.05 -0.25 15.4 L0.2 12.7 M10.75 19.55 L10.55 22.45 10.15 22.1 Q9.65 21.45 9.7 20.95 9.8 20.4 10.15 20.0 10.4 19.65 10.75 19.55 M21.7 34.5 L21.75 33.3 23.4 33.35 24.15 33.35 21.95 34.75 21.7 34.5 M26.3 33.25 L28.75 33.15 27.45 34.15 26.3 33.25 M31.0 33.0 L35.5 32.45 34.6 33.5 33.55 34.65 33.55 34.7 31.0 33.0 M36.3 32.35 L38.9 32.0 39.0 32.3 38.1 33.45 36.3 32.35" fill="#aa6e22" fill-rule="evenodd" stroke="none"/>
      <path d="M24.2 54.85 L18.0 54.85 17.9 54.3 17.6 54.85 14.05 54.85 Q12.25 53.55 10.95 51.7 L11.3 49.6 12.55 51.75 15.3 49.7 17.75 53.05 20.05 51.4 20.6 52.25 Q21.7 53.75 24.2 54.85 M14.25 33.35 L14.4 32.35 14.75 30.85 18.25 31.15 19.55 31.2 38.6 30.5 38.7 30.85 38.9 32.0 36.3 32.35 35.85 32.1 35.5 32.45 31.0 33.0 30.6 32.7 29.9 32.25 28.75 33.15 26.3 33.25 25.35 32.55 24.15 33.35 23.4 33.35 21.75 33.3 21.7 34.5 19.65 32.7 16.0 35.25 14.25 33.35 M31.65 12.65 L32.4 12.7 32.2 12.75 31.95 12.8 30.5 13.1 29.85 13.2 27.45 13.4 25.6 13.5 23.4 13.45 Q19.05 13.2 19.05 11.75 L19.5 8.7 19.75 6.95 19.85 6.35 20.3 6.25 Q21.1 6.25 21.35 6.65 L21.5 7.65 Q21.5 8.3 21.65 8.55 L22.0 8.85 22.25 8.95 Q23.25 10.55 26.3 11.6 L30.5 12.55 31.65 12.65 M22.2 4.5 L21.7 4.7 Q21.35 4.7 21.1 4.35 20.8 4.0 20.8 3.45 20.8 2.55 21.15 2.05 L21.75 1.55 22.2 1.75 22.35 1.95 22.5 2.3 22.6 2.95 22.65 3.5 22.35 4.35 22.2 4.5" fill="#85581e" fill-rule="evenodd" stroke="none"/>
      <path d="M36.35 36.15 Q36.75 35.2 37.5 35.2 38.05 35.2 38.55 35.8 L38.75 36.15 38.8 36.15 Q39.35 37.1 39.4 38.4 39.5 39.75 39.05 40.7 38.6 41.65 37.9 41.65 37.15 41.65 36.6 40.7 36.0 39.75 35.95 38.4 L35.95 37.55 36.35 36.15 M37.6 35.95 L37.05 36.35 36.95 36.55 36.9 36.6 36.85 36.7 Q36.6 37.5 36.65 38.55 36.7 39.6 37.1 40.35 37.45 41.15 37.95 41.15 38.4 41.15 38.7 40.35 39.0 39.6 38.9 38.55 38.85 37.5 38.45 36.7 38.1 35.95 37.65 35.95 L37.6 35.95 M25.75 35.95 L25.55 36.0 Q24.65 36.05 23.95 36.8 23.2 37.65 23.2 38.8 23.2 40.0 23.95 40.85 24.65 41.65 25.7 41.7 L25.75 41.7 Q26.8 41.7 27.55 40.85 28.3 40.0 28.3 38.8 28.3 37.65 27.55 36.8 26.8 35.95 25.75 35.95 M25.55 35.0 L25.7 35.0 Q27.1 35.0 28.1 36.1 L28.85 37.35 29.1 38.75 29.0 39.75 Q28.8 40.7 28.1 41.45 27.1 42.55 25.7 42.55 24.3 42.55 23.35 41.45 22.35 40.35 22.35 38.75 22.35 37.2 23.35 36.1 24.3 35.05 25.55 35.0" fill="#060000" fill-rule="evenodd" stroke="none"/>
      <path d="M49.2 54.85 L48.7 54.85 48.75 54.75 49.1 53.65 49.2 54.6 49.2 54.7 49.2 54.85" fill="#7f534a" fill-rule="evenodd" stroke="none"/>
      <path d="M4.6 54.85 L3.8 54.85 3.95 52.1 4.05 53.2 4.6 54.85" fill="#633e36" fill-rule="evenodd" stroke="none"/>
      <path d="M20.85 -1.9 L21.05 -1.65 21.1 -1.9 M29.45 -1.9 L30.1 -0.6 31.7 2.55 31.95 3.05 33.65 3.2 33.75 3.2 33.85 3.2 Q38.55 3.7 42.7 4.7 L42.95 4.75 43.05 4.8 Q46.2 5.55 49.05 6.6 L50.05 6.95 51.55 7.6 53.4 8.45 53.45 8.45 54.5 10.4 54.65 10.7 56.0 13.7 M56.0 23.15 L55.7 23.5 50.5 23.45 51.3 26.6 49.05 27.8 48.9 27.85 47.7 28.35 46.45 28.8 45.7 29.05 42.7 29.85 41.85 30.0 39.15 30.4 40.3 33.35 41.65 36.7 42.65 36.6 42.85 36.55 42.85 36.5 43.55 34.95 43.95 35.0 44.05 35.0 44.2 35.0 45.15 35.1 45.75 35.85 46.4 36.65 46.9 37.3 M3.8 54.85 L3.95 52.1 3.95 51.9 M3.95 51.8 L4.1 50.55 Q4.8 47.05 7.65 45.2 8.85 44.5 10.35 44.05 L10.0 42.85 8.55 42.2 5.6 41.45 2.0 41.2 0.8 41.25 0.15 54.85 M-2.05 28.7 L-1.8 28.75 -0.15 29.25 0.3 29.5 1.15 30.15 1.3 30.45 1.15 33.95 4.05 35.15 5.6 35.8 9.6 37.35 10.5 37.25 10.85 36.85 10.95 36.8 11.0 36.75 Q12.2 35.45 13.7 35.45 L13.85 35.45 14.25 33.35 14.4 32.35 14.75 30.85 9.9 29.9 5.4 28.35 Q1.9 26.95 -1.35 24.8 L-2.05 24.35 M-2.05 12.55 Q-1.4 10.4 -0.4 8.4 L-0.35 8.3 1.95 6.95 Q4.95 5.45 8.5 4.5 L13.5 3.45 20.35 2.9 20.6 1.35 20.6 1.15 21.05 -1.65 M53.25 8.9 L53.1 9.1 52.65 9.9 51.85 10.7 51.85 10.75 54.1 17.2 55.7 23.5 M45.85 11.85 L50.5 10.95 51.8 10.7 51.85 10.75 M45.7 13.25 L45.25 12.85 44.35 12.1 45.85 11.85 M50.05 21.5 L50.3 22.4 50.5 23.45 M49.4 18.8 L49.7 20.15 50.05 21.5 M46.1 13.6 L47.2 14.5 47.7 14.95 48.65 15.7 49.2 17.95 49.4 18.8 M46.1 13.6 L45.7 13.25 M46.25 16.85 L46.9 16.1 M19.55 31.2 L38.6 30.5 39.15 30.4 M24.5 20.15 L26.35 20.25 27.0 20.25 29.15 20.2 29.4 20.2 30.5 20.15 31.7 20.1 Q38.5 19.75 42.45 18.6 L42.7 18.55 42.95 18.5 43.75 18.2 Q45.25 17.65 46.2 16.9 M39.7 36.1 L40.5 36.7 41.05 36.75 41.65 36.7 M44.15 36.2 L43.7 36.4 42.85 36.55 M43.9 39.3 L44.45 39.15 M40.7 42.65 L41.35 41.45 Q42.05 40.5 42.85 39.9 L42.9 39.9 43.9 39.3 M47.75 49.35 L47.8 49.4 47.85 49.6 48.7 51.7 48.8 52.2 49.05 53.15 49.1 53.65 49.2 54.6 49.2 54.7 49.2 54.85 M40.7 42.65 L40.7 42.7 40.75 43.15 40.8 43.2 41.1 43.3 41.25 43.4 41.6 43.55 44.95 45.8 45.4 46.2 42.9 39.9 M39.85 36.9 L40.0 37.6 40.65 42.5 40.7 42.65 M45.55 46.4 L45.5 46.35 45.4 46.2 M41.2 48.2 L41.15 47.75 41.05 46.15 40.85 44.35 40.8 43.9 40.75 43.15 M45.55 46.4 L46.75 47.75 47.75 49.35 M32.8 4.6 L32.7 4.45 31.95 3.05 M32.8 4.6 L32.9 4.85 33.25 5.5 34.05 6.95 35.25 9.15 Q36.35 11.6 32.4 12.7 L32.2 12.75 31.95 12.8 30.5 13.1 29.85 13.2 27.45 13.4 25.6 13.5 23.4 13.45 Q19.05 13.2 19.05 11.75 L19.5 8.7 19.75 6.95 19.85 6.35 20.05 4.85 20.35 2.9 M23.9 20.15 L24.5 20.15 M0.65 10.5 Q5.4 16.15 13.5 18.55 L13.85 18.6 15.35 19.0 16.35 19.2 16.35 19.25 17.5 19.5 20.1 19.85 23.15 20.1 23.4 20.1 23.9 20.15 M0.1 9.65 L0.3 10.05 0.65 10.5 M10.95 36.8 L12.05 36.65 12.25 36.7 Q12.85 36.8 13.25 37.35 L13.4 37.6 13.85 38.65 13.85 40.2 13.8 40.6 13.45 41.75 12.45 42.75 M16.75 42.3 L16.9 41.8 M15.65 36.05 L15.45 35.85 Q14.75 35.45 13.85 35.45 M14.75 30.85 L18.25 31.15 19.55 31.2 M0.45 33.65 L1.15 33.95 M-1.1 41.45 L0.0 41.3 0.8 41.25 M-1.4 41.45 L-1.1 41.45 M11.95 45.6 L11.7 47.2 11.3 49.6 10.95 51.7 Q12.25 53.55 14.05 54.85 M38.9 32.0 L38.7 30.85 38.6 30.5 M10.35 44.05 L10.95 44.95 11.95 45.6 13.2 45.85 Q14.0 45.85 14.7 45.35 L15.5 44.55 15.5 44.5 16.75 42.3 M15.65 36.05 Q16.45 36.65 17.1 37.9 M41.2 48.2 L41.35 51.15 Q40.55 52.65 39.4 53.8 L38.2 54.85 M38.9 32.0 L39.0 32.3 39.7 36.1 39.8 36.5 39.85 36.9 M36.35 36.15 L35.95 37.55 35.95 38.4 Q36.0 39.75 36.6 40.7 37.15 41.65 37.9 41.65 38.6 41.65 39.05 40.7 39.5 39.75 39.4 38.4 39.35 37.1 38.8 36.15 L38.75 36.15 38.55 35.8 Q38.05 35.2 37.5 35.2 36.75 35.2 36.35 36.15 M36.95 36.55 L36.9 36.6 36.85 36.7 Q36.6 37.5 36.65 38.55 36.7 39.6 37.1 40.35 37.45 41.15 37.95 41.15 38.4 41.15 38.7 40.35 39.0 39.6 38.9 38.55 38.85 37.5 38.45 36.7 38.1 35.95 37.65 35.95 L37.6 35.95 M25.75 35.95 L25.55 36.0 Q24.65 36.05 23.95 36.8 23.2 37.65 23.2 38.8 23.2 40.0 23.95 40.85 24.65 41.65 25.7 41.7 L25.75 41.7 Q26.8 41.7 27.55 40.85 28.3 40.0 28.3 38.8 28.3 37.65 27.55 36.8 26.8 35.95 25.75 35.95 M25.55 35.0 Q24.3 35.05 23.35 36.1 22.35 37.2 22.35 38.75 22.35 40.35 23.35 41.45 24.3 42.55 25.7 42.55 27.1 42.55 28.1 41.45 28.8 40.7 29.0 39.75 L29.1 38.75 28.85 37.35 28.1 36.1 Q27.1 35.0 25.7 35.0 L25.55 35.0 M18.0 54.85 L17.9 54.3 17.6 54.85 M-1.7 34.4 L-1.0 33.85 -0.15 33.45 0.45 33.65 M-2.05 34.75 L-1.7 34.4 M-1.4 41.45 L-1.75 41.5 -2.05 41.2" fill="none" stroke="#7b380b" stroke-linecap="round" stroke-linejoin="round" stroke-width="1.0"/>
      <path d="M35.1 5.75 Q42.85 6.9 43.15 10.05 L43.15 10.15 Q42.7 11.85 37.25 13.05 L29.5 14.2 29.4 14.2 29.25 14.2 18.7 13.8 Q15.95 13.35 13.35 12.5 10.8 11.65 9.15 10.6 7.5 9.55 8.1 8.95 8.75 8.35 9.55 8.05 L12.55 7.45 17.8 7.2 M27.35 15.95 L28.1 15.95 30.25 15.95 31.25 15.95 Q40.1 15.75 45.7 13.25 M45.85 11.85 Q49.6 7.15 43.05 4.8 M45.25 12.85 L46.8 12.25 49.0 11.85 49.05 11.85 Q49.55 11.85 50.1 12.6 L51.3 14.75 Q52.05 16.3 52.05 18.7 52.05 20.35 51.75 20.75 51.3 21.4 50.05 21.5 M50.3 22.4 L50.8 22.4 Q52.45 22.4 53.0 21.75 53.35 21.35 53.35 20.5 53.35 19.2 52.4 15.9 51.5 13.0 50.5 10.95 M47.2 14.5 L47.65 14.4 47.95 14.4 Q48.55 14.55 49.05 15.2 L49.15 15.4 Q49.7 16.35 49.7 17.65 L49.4 18.8 M49.7 20.15 L50.5 19.5 50.95 18.2 Q50.95 16.1 50.05 14.65 L49.05 13.6 47.7 13.2 46.55 13.45 46.1 13.6 M55.5 48.1 L56.0 47.95 M52.0 48.0 Q52.2 47.55 52.6 47.45 L52.95 47.4 Q53.25 47.4 53.8 47.65 L54.15 47.75 54.4 47.9 55.35 48.1 55.5 48.1 M48.85 52.1 Q49.05 51.4 49.4 51.0 L49.85 50.65 50.7 50.25 Q51.4 50.0 51.75 48.65 L52.0 48.0 M44.0 48.2 L43.65 47.75 Q42.65 46.7 41.05 46.15 M44.0 48.2 L44.6 49.2 Q45.15 50.45 45.1 51.75 45.0 53.15 44.1 54.3 L43.65 54.85 M46.9 54.85 L47.55 52.95 47.4 51.4 Q47.15 50.2 46.5 49.05 L45.55 47.75 44.75 46.9 Q43.2 45.4 40.85 44.35 M33.25 5.5 L34.4 5.6 35.1 5.75 M27.35 15.95 L26.0 15.9 22.35 15.65 Q17.0 15.1 11.8 13.7 3.55 10.85 4.95 9.35 M17.7 4.95 Q7.9 5.7 5.25 8.8 M11.7 47.2 L10.15 47.7 Q6.8 49.2 8.55 53.5 L8.6 53.55 9.55 54.85 M6.7 54.85 Q5.65 52.75 5.95 50.7 6.9 46.55 10.85 46.15 M48.8 52.2 L48.85 52.1 M55.1 54.85 L49.85 50.65 M53.8 47.65 L56.0 50.25" fill="none" stroke="#91713a" stroke-linecap="round" stroke-linejoin="round" stroke-width="1.0"/>
      <path d="M3.95 51.9 L3.95 51.8 M4.6 54.85 L4.05 53.2 3.95 52.1 M48.7 54.85 L48.75 54.75 49.1 53.65" fill="none" stroke="#331c18" stroke-linecap="round" stroke-linejoin="round" stroke-width="1.0"/>
    </g>
    <g id="shape2" transform="matrix(1.0, 0.0, 0.0, 1.0, 0.0, 0.0)">
      <path d="M50.5 0.0 Q53.95 0.0 53.95 3.3 L53.95 50.15 Q53.95 53.4 50.5 53.4 L3.3 53.4 Q0.0 53.4 0.0 50.15 L0.0 3.3 Q0.0 0.0 3.3 0.0 L50.5 0.0" fill="#000000" fill-opacity="0.003921569" fill-rule="evenodd" stroke="none"/>
    </g>
  </defs>
</svg>
