<?xml version="1.0" encoding="UTF-8" standalone="no"?>
<svg xmlns:ffdec="https://www.free-decompiler.com/flash" xmlns:xlink="http://www.w3.org/1999/xlink" ffdec:objectType="frame" height="54.95px" width="56.15px" xmlns="http://www.w3.org/2000/svg">
  <g transform="matrix(1.0, 0.0, 0.0, 1.0, 2.2, 0.85)">
    <clipPath id="clipPath0" transform="matrix(1.0, 0.0, 0.0, 1.0, 0.0, 0.0)">
      <path d="M50.5 0.0 Q53.95 0.0 53.95 3.3 L53.95 50.15 Q53.95 53.4 50.5 53.4 L3.3 53.4 Q0.0 53.4 0.0 50.15 L0.0 3.3 Q0.0 0.0 3.3 0.0 L50.5 0.0" fill="#000000" fill-rule="evenodd" stroke="none"/>
    </clipPath>
    <g clip-path="url(#clipPath0)">
      <use ffdec:characterId="2" height="54.95" transform="matrix(1.0, 0.0, 0.0, 1.0, -2.2, -0.85)" width="54.75" xlink:href="#shape1"/>
    </g>
    <use ffdec:characterId="3" height="53.4" transform="matrix(1.0, 0.0, 0.0, 1.0, 0.0, 0.0)" width="53.95" xlink:href="#shape2"/>
  </g>
  <defs>
    <g id="shape1" transform="matrix(1.0, 0.0, 0.0, 1.0, 2.2, 0.85)">
      <path d="M4.45 6.0 L5.0 5.9 Q6.1 2.85 6.1 -0.35 L8.2 -0.35 8.05 1.95 Q7.4 6.65 4.25 9.85 L3.25 10.15 2.65 10.25 2.6 10.25 2.65 11.25 Q0.8 12.7 -1.2 13.4 L-1.25 13.35 -1.35 13.4 -1.7 13.3 -1.7 12.45 Q-0.35 12.05 1.2 11.2 L1.95 10.35 2.2 9.95 2.55 9.5 Q3.7 7.75 4.45 6.0" fill="#ffff5e" fill-rule="evenodd" stroke="none"/>
      <path d="M3.85 -0.35 L6.1 -0.35 Q6.1 2.85 5.0 5.9 L4.45 6.0 2.8 6.1 Q3.9 2.9 3.85 -0.35 M-1.7 6.35 L-1.7 2.4 -0.15 -0.35 2.2 -0.35 Q0.8 3.05 -1.7 6.35 M47.45 31.55 L48.15 31.2 Q48.95 30.8 49.7 30.5 L50.45 30.25 50.55 30.55 50.1 34.3 Q49.7 36.75 49.0 38.1 L48.65 38.6 46.55 40.75 46.4 40.8 45.3 41.4 45.05 41.2 44.2 40.35 43.6 39.3 Q43.35 38.55 43.35 37.55 43.35 36.85 43.5 36.25 43.9 34.6 45.3 33.3 L46.55 32.4 47.45 31.55 M33.05 37.6 L32.7 37.9 32.5 38.1 31.85 38.7 32.25 38.95 32.3 39.0 32.2 39.1 31.15 39.95 Q26.35 43.8 22.05 42.6 L19.55 40.1 19.15 39.55 18.4 38.45 17.8 37.1 Q17.4 36.05 17.4 35.05 17.4 33.8 18.4 32.1 L18.75 31.55 22.75 32.35 Q28.1 33.8 32.6 37.25 L33.05 37.6 M45.1 35.85 L43.5 36.25 45.1 35.85 M13.7 31.25 L13.65 31.4 13.65 31.25 13.7 31.25 M24.65 36.25 L26.5 36.65 Q29.3 37.2 31.85 38.7 29.3 37.2 26.5 36.65 L24.65 36.25" fill="#ffffff" fill-rule="evenodd" stroke="none"/>
      <path d="M3.85 -0.35 Q3.9 2.9 2.8 6.1 L4.45 6.0 Q3.7 7.75 2.55 9.5 L2.2 9.95 1.95 10.35 -0.8 10.1 -1.7 9.95 -1.7 6.35 Q0.8 3.05 2.2 -0.35 L3.85 -0.35 M4.25 9.85 L2.65 11.25 2.6 10.25 2.65 10.25 3.25 10.15 4.25 9.85 M-1.2 13.4 L-1.65 13.6 -1.7 13.6 -1.7 13.3 -1.35 13.4 -1.2 13.4 M-1.7 2.4 L-1.7 -0.35 -0.15 -0.35 -1.7 2.4" fill="#ffe84d" fill-rule="evenodd" stroke="none"/>
      <path d="M16.9 -0.35 L17.55 1.0 Q19.25 3.65 22.85 3.65 24.25 3.65 24.85 3.1 L25.0 2.9 Q25.15 4.0 25.65 4.7 L27.3 6.4 28.5 7.4 26.95 8.65 24.85 9.35 24.9 9.35 24.7 10.15 Q24.7 11.1 26.05 12.4 L27.35 13.4 28.35 13.75 29.25 13.85 Q31.05 13.85 31.7 12.8 32.3 11.95 32.0 11.1 34.95 11.85 38.9 14.95 L40.75 16.5 41.95 17.7 41.6 18.7 41.25 19.55 40.45 22.0 40.6 22.8 40.55 23.05 40.55 23.15 40.5 23.3 40.45 23.4 40.05 23.15 39.95 22.9 Q38.35 19.6 34.05 17.3 L33.75 17.1 Q31.4 15.85 28.3 14.9 L27.55 14.65 27.5 14.65 27.2 14.55 21.6 13.4 20.85 13.3 19.4 13.0 Q18.95 13.15 18.75 13.35 L18.8 12.9 14.35 12.15 13.3 12.15 13.25 12.35 13.2 12.7 Q13.2 13.85 14.15 15.7 L14.6 16.55 Q16.0 18.95 17.75 20.45 L18.2 20.85 17.4 20.75 Q14.95 20.75 13.05 22.5 L11.9 23.8 9.85 22.1 Q6.1 18.75 5.3 14.85 L4.1 15.15 5.15 13.75 Q7.0 11.5 9.65 9.8 L9.85 10.05 Q11.9 8.95 13.3 8.65 L16.95 8.3 20.05 8.55 19.65 8.2 19.75 7.9 18.1 7.3 17.4 6.55 Q14.85 3.55 13.7 0.9 L13.25 -0.35 16.9 -0.35 M20.35 8.05 L19.75 7.9 20.35 8.05 M-1.7 35.9 L-1.7 30.5 -0.75 30.6 Q0.05 30.6 0.35 30.3 0.6 32.75 1.15 34.55 L0.3 34.4 -0.45 34.05 -0.75 35.45 -1.7 35.9 M-1.7 26.2 L-1.7 23.9 -1.6 23.95 Q-0.9 24.45 0.25 25.55 0.15 26.85 0.2 28.2 -0.05 27.7 -0.6 27.15 L-1.15 26.6 -1.35 26.45 -1.7 26.2 M42.0 49.3 L42.1 49.3 42.7 49.1 Q43.85 48.65 44.35 47.9 45.2 46.65 45.1 43.0 L45.05 41.5 45.3 41.4 46.4 40.8 46.55 40.75 46.7 42.5 Q46.7 45.05 45.85 46.75 L45.4 47.4 Q43.75 49.8 40.05 49.8 L38.95 49.65 42.0 49.3 M39.5 25.85 L39.55 25.95 39.55 26.45 39.4 26.6 39.15 26.05 39.5 25.85 M18.8 12.9 L19.4 13.0 18.8 12.9 M1.2 34.75 L3.25 34.45 3.5 34.45 3.75 34.45 3.8 34.45 Q6.6 34.5 9.05 35.95 10.4 36.75 11.2 37.8 12.3 39.05 12.5 40.65 L12.4 41.0 12.4 41.05 12.5 43.45 12.25 45.05 11.9 46.25 11.15 47.55 10.7 48.15 10.0 48.35 7.2 48.9 Q2.65 48.9 0.6 46.5 L0.05 45.85 Q-1.0 44.15 -1.0 41.6 L-0.7 39.55 Q-0.15 37.55 1.45 35.9 L0.35 35.0 1.1 34.75 1.2 34.75 M9.8 40.15 Q9.65 39.25 9.2 38.9 L9.65 38.4 Q9.15 38.0 8.65 37.75 L7.9 37.5 Q6.9 37.5 6.2 38.1 5.3 38.85 5.0 40.65 L4.9 41.35 4.85 42.8 4.85 43.85 Q5.1 47.05 6.8 47.05 8.15 47.05 9.05 45.15 L9.3 44.65 Q9.8 43.4 9.85 41.95 L9.85 41.6 9.8 40.15 M40.55 23.05 Q40.25 22.7 40.45 22.0 40.25 22.7 40.55 23.05" fill="#4d4843" fill-rule="evenodd" stroke="none"/>
      <path d="M16.9 -0.35 L25.25 -0.35 Q24.95 0.7 24.95 2.0 L25.0 2.9 24.85 3.1 Q24.25 3.65 22.85 3.65 19.25 3.65 17.55 1.0 L16.9 -0.35 M13.25 -0.35 L13.7 0.9 Q14.85 3.55 17.4 6.55 L18.1 7.3 19.75 7.9 19.65 8.2 20.05 8.55 16.95 8.3 13.3 8.65 Q11.9 8.95 9.85 10.05 L9.65 9.8 Q12.7 7.9 16.75 6.7 L16.8 6.7 16.25 6.45 13.35 4.1 13.05 3.75 Q11.8 2.2 11.15 0.4 L10.95 -0.35 13.25 -0.35 M18.1 7.3 L16.75 6.7 18.1 7.3 M32.55 7.6 L32.5 8.5 31.55 8.45 31.05 8.5 31.15 8.5 32.3 9.2 37.1 11.9 Q40.05 13.75 41.75 16.25 L42.5 16.15 42.55 16.15 42.2 17.0 42.2 17.1 41.95 17.7 40.75 16.5 38.9 14.95 Q34.95 11.85 32.0 11.1 32.3 11.95 31.7 12.8 31.05 13.85 29.25 13.85 L28.35 13.75 27.35 13.4 26.05 12.4 Q24.7 11.1 24.7 10.15 L24.9 9.35 24.85 9.35 26.95 8.65 28.5 7.4 27.3 6.4 27.75 6.45 28.3 6.7 28.8 6.8 Q30.65 6.95 32.55 7.6 M50.25 39.4 L51.15 40.7 Q51.85 41.8 52.0 43.1 52.25 45.45 51.35 47.5 L50.25 49.3 49.05 50.45 46.95 51.85 45.55 52.4 45.0 51.25 47.1 49.3 48.2 48.05 Q50.25 45.5 50.25 43.6 50.25 41.75 49.6 40.05 L50.25 39.4 M0.4 51.45 L-1.35 50.9 -1.7 50.75 -1.7 48.2 -1.55 48.35 1.1 50.3 0.4 51.45 M-1.7 30.5 L-1.7 29.55 -0.75 29.55 -1.15 28.7 -1.7 27.95 -1.7 26.2 -1.35 26.45 -1.15 26.6 -0.6 27.15 Q-0.05 27.7 0.2 28.2 0.15 26.85 0.25 25.55 0.4 23.65 0.9 21.8 L1.1 21.8 Q1.1 24.35 1.45 26.65 2.0 30.75 3.55 34.0 L3.75 34.3 3.8 34.45 3.75 34.45 3.5 34.45 3.25 34.45 1.2 34.75 1.15 34.55 Q0.6 32.75 0.35 30.3 L0.2 28.3 0.2 28.2 0.2 28.3 0.35 30.3 Q0.05 30.6 -0.75 30.6 L-1.7 30.5 M28.8 7.65 L28.5 7.4 28.8 7.65 M12.5 43.45 L12.9 43.75 13.05 43.8 Q12.5 44.75 12.5 45.45 L12.35 46.3 12.35 46.35 11.9 46.25 12.25 45.05 12.5 43.45 M9.8 40.15 L9.85 41.6 9.85 41.95 Q9.8 43.4 9.3 44.65 L9.05 45.15 Q8.15 47.05 6.8 47.05 5.1 47.05 4.85 43.85 L4.85 42.8 4.9 41.35 5.0 40.65 Q5.3 38.85 6.2 38.1 6.9 37.5 7.9 37.5 L8.65 37.75 Q9.15 38.0 9.65 38.4 L9.2 38.9 Q9.65 39.25 9.8 40.15 M7.3 39.75 L6.7 39.85 Q6.15 40.1 6.15 40.75 L6.4 42.1 Q6.7 42.8 7.1 43.0 L7.45 43.05 7.5 43.05 8.15 42.8 8.4 42.5 8.55 42.0 Q8.55 39.75 7.3 39.75" fill="#706c68" fill-rule="evenodd" stroke="none"/>
      <path d="M43.0 14.85 L42.95 14.8 43.0 14.85 42.7 15.55 42.7 15.6 42.55 16.15 42.5 16.15 41.75 16.25 Q40.05 13.75 37.1 11.9 L32.3 9.2 31.15 8.5 31.05 8.5 31.55 8.45 32.5 8.5 32.55 7.6 35.65 8.85 Q39.95 11.05 42.9 14.75 L42.95 14.8 43.0 14.8 43.0 14.85 M-1.7 29.55 L-1.7 27.95 -1.15 28.7 -0.75 29.55 -1.7 29.55 M7.3 39.75 Q8.55 39.75 8.55 42.0 L8.4 42.5 8.15 42.8 7.5 43.05 7.45 43.05 7.1 43.0 Q6.7 42.8 6.4 42.1 L6.15 40.75 Q6.15 40.1 6.7 39.85 L7.3 39.75" fill="#a9a29a" fill-rule="evenodd" stroke="none"/>
      <path d="M43.0 14.85 L43.0 14.8 42.95 14.8 44.35 12.9 45.75 11.35 Q46.9 12.3 47.4 15.05 47.75 16.9 47.75 18.8 47.75 20.55 47.2 21.55 L46.55 22.75 46.3 23.15 45.75 23.3 45.7 23.0 45.55 22.35 45.75 21.05 45.85 20.55 46.05 19.05 Q46.05 17.9 45.35 16.0 L44.35 17.05 43.7 18.1 43.5 18.4 43.05 19.15 Q42.0 21.05 41.05 23.6 L40.45 23.4 40.5 23.3 40.55 23.15 40.55 23.05 40.6 22.8 40.45 22.0 41.25 19.55 41.6 18.7 41.95 17.7 42.2 17.1 42.2 17.0 42.55 16.15 42.7 15.6 42.7 15.55 43.0 14.85 M19.4 13.0 L20.85 13.3 21.6 13.4 27.2 14.55 27.5 14.65 27.55 14.65 28.3 14.9 Q31.4 15.85 33.75 17.1 L34.05 17.3 Q38.35 19.6 39.95 22.9 L39.55 23.15 39.55 25.95 39.5 25.85 38.6 24.3 38.2 23.75 36.35 21.7 36.3 21.65 35.2 20.75 33.05 19.05 32.9 19.05 33.2 20.25 30.55 18.4 Q29.65 17.8 28.75 17.45 L28.95 16.9 27.95 16.5 27.8 16.4 Q25.35 15.45 22.25 15.15 L21.7 15.15 20.75 15.05 18.35 14.95 16.1 14.85 16.6 16.45 Q17.4 18.4 19.55 21.1 L18.2 20.85 17.75 20.45 Q16.0 18.95 14.6 16.55 L14.15 15.7 Q13.2 13.85 13.2 12.7 L13.25 12.35 13.3 12.15 14.35 12.15 18.8 12.9 18.75 13.35 Q18.95 13.15 19.4 13.0" fill="#5ea092" fill-rule="evenodd" stroke="none"/>
      <path d="M43.05 19.15 L43.5 18.4 43.7 18.1 44.35 17.05 45.35 16.0 Q46.05 17.9 46.05 19.05 L45.85 20.55 45.75 21.05 45.55 22.35 Q45.25 21.25 44.3 20.25 L44.0 19.9 43.05 19.15 M18.35 14.95 L20.75 15.05 21.7 15.15 22.25 15.15 Q25.35 15.45 27.8 16.4 L27.95 16.5 28.95 16.9 28.75 17.45 Q29.65 17.8 30.55 18.4 L33.2 20.25 32.9 19.05 33.05 19.05 35.2 20.75 36.3 21.65 36.35 21.7 38.2 23.75 38.6 24.3 38.05 23.8 36.95 23.0 35.85 22.45 35.05 22.1 Q32.0 20.8 29.35 20.65 L29.25 20.65 29.05 20.65 Q26.7 20.35 23.3 19.05 L21.95 18.5 20.75 17.9 Q18.45 16.5 18.35 14.95" fill="#4e8a7c" fill-rule="evenodd" stroke="none"/>
      <path d="M40.45 23.4 L41.05 23.6 Q42.0 21.05 43.05 19.15 L44.0 19.9 44.3 20.25 Q45.25 21.25 45.55 22.35 L45.7 23.0 45.75 23.3 45.65 23.3 45.55 23.4 45.1 23.15 44.9 23.15 43.65 24.25 42.7 25.25 42.7 23.95 42.25 24.55 40.8 26.65 40.6 27.0 40.45 27.0 40.45 26.8 40.45 23.4 M37.6 26.3 L37.55 27.1 37.4 27.25 37.2 26.95 36.55 26.3 35.4 25.4 35.05 25.25 Q33.3 24.25 30.55 23.95 L30.25 23.9 29.95 23.9 27.65 23.6 27.5 23.6 24.0 22.85 22.15 22.15 21.55 21.85 20.75 21.5 20.65 21.5 20.35 21.35 20.25 21.35 19.55 21.1 Q17.4 18.4 16.6 16.45 L16.1 14.85 18.35 14.95 Q18.45 16.5 20.75 17.9 L21.95 18.5 23.3 19.05 Q26.7 20.35 29.05 20.65 L29.25 20.65 29.35 20.65 Q32.0 20.8 35.05 22.1 L35.85 22.45 36.95 23.0 38.05 23.8 38.6 24.3 39.5 25.85 39.15 26.05 38.75 25.45 38.0 24.55 37.8 24.35 37.7 24.35 37.7 24.6 37.65 25.5 37.6 26.3" fill="#3c655c" fill-rule="evenodd" stroke="none"/>
      <path d="M45.75 23.3 L46.3 23.15 46.55 22.75 47.0 24.4 45.55 23.4 45.65 23.3 45.75 23.3 M40.8 26.65 L42.25 24.55 42.7 23.95 42.7 25.25 41.6 26.6 41.4 26.6 40.8 26.65 M24.85 48.2 L23.55 48.5 23.1 48.6 20.3 48.85 19.8 48.85 19.65 48.85 19.55 48.85 18.95 48.85 Q15.7 48.75 13.95 47.65 13.0 47.05 12.7 46.3 L12.5 45.45 Q12.5 44.75 13.05 43.8 L13.1 43.7 Q13.75 42.55 15.15 41.15 L17.2 39.4 18.35 40.5 18.55 40.7 Q18.2 41.6 18.2 42.55 18.2 43.5 19.0 44.5 L19.85 45.25 20.7 45.65 22.65 45.95 23.1 45.95 25.75 45.65 26.15 45.55 27.65 45.05 Q29.85 44.25 30.8 43.0 L33.45 45.4 34.75 46.45 36.95 47.8 38.75 48.55 42.0 49.1 42.0 49.3 38.95 49.65 38.9 49.65 38.7 49.65 37.15 49.6 36.15 49.5 32.1 48.75 28.55 47.4 27.05 47.7 24.85 48.2 M40.45 26.8 L39.9 27.1 Q39.35 27.5 39.25 27.85 39.25 27.5 38.75 27.1 L37.65 26.3 37.6 26.3 37.65 25.5 37.7 24.6 37.7 24.35 37.8 24.35 38.0 24.55 38.75 25.45 39.15 26.05 39.4 26.6 39.55 26.45 39.55 25.95 39.55 23.15 39.95 22.9 40.05 23.15 40.45 23.4 40.45 26.8 M21.55 21.85 L21.25 21.95 20.75 22.4 20.75 22.55 20.75 22.7 20.8 22.7 21.8 23.85 22.3 24.25 22.3 24.3 21.5 24.3 20.9 24.35 20.25 24.25 20.05 24.2 18.6 24.35 Q18.0 24.55 17.8 25.05 16.85 25.75 16.4 27.0 L16.0 27.4 13.85 27.8 13.55 30.65 13.7 31.25 13.65 31.25 13.65 31.4 Q13.5 32.85 13.85 34.15 10.9 31.15 10.9 27.3 10.9 25.3 11.9 23.8 L13.05 22.5 Q14.95 20.75 17.4 20.75 L18.2 20.85 19.55 21.1 20.25 21.35 20.35 21.35 20.65 21.5 20.75 21.5 21.55 21.85 M32.2 39.1 L31.7 39.7 31.5 39.8 31.15 39.95 32.2 39.1 M39.55 37.45 L39.65 36.25 39.85 35.15 40.2 35.95 40.55 36.65 40.65 36.9 40.55 36.65 40.8 36.55 40.65 36.9 40.55 37.6 40.55 37.95 40.55 38.0 40.55 38.25 39.55 37.45 M41.2 37.5 L40.8 37.9 40.55 37.95 40.55 37.6 40.65 36.9 41.2 37.5 M32.25 38.95 L31.85 38.7 32.5 38.1 32.25 38.95" fill="#bcc3c9" fill-rule="evenodd" stroke="none"/>
      <path d="M43.65 24.25 L44.9 23.15 45.1 23.15 45.55 23.4 47.0 24.4 48.2 25.35 Q50.15 27.0 50.55 27.95 L50.95 28.05 51.55 28.05 51.8 29.85 50.5 30.25 50.45 30.25 49.7 30.5 Q48.95 30.8 48.15 31.2 L47.45 31.55 46.4 32.1 45.55 32.5 44.5 33.2 Q42.35 34.55 41.35 35.75 L40.7 35.25 42.85 32.7 43.8 31.75 44.65 30.9 Q46.2 29.45 47.55 28.8 L46.85 26.75 45.25 25.35 44.3 24.7 43.65 24.25 M30.65 31.9 L30.55 31.9 Q29.4 31.9 28.4 30.8 L27.6 29.4 27.6 29.25 Q27.6 28.3 28.45 28.3 L29.15 28.5 29.2 28.5 29.95 28.75 30.65 29.55 Q31.3 30.65 31.3 31.3 31.3 31.85 30.65 31.9" fill="#8a8a95" fill-rule="evenodd" stroke="none"/>
      <path d="M42.7 25.25 L43.65 24.25 44.3 24.7 45.25 25.35 46.85 26.75 47.55 28.8 Q46.2 29.45 44.65 30.9 L43.8 31.75 43.2 30.9 Q42.1 29.55 40.35 28.35 L41.05 27.3 41.6 26.6 42.7 25.25 M22.3 24.3 L23.2 24.3 Q26.05 24.45 28.1 25.45 32.25 27.5 33.3 33.1 L33.1 33.1 31.95 33.3 31.75 33.3 Q29.2 33.2 24.75 31.15 L23.8 30.75 Q20.85 29.25 19.9 27.75 19.45 27.05 19.45 26.35 19.45 25.4 20.55 24.75 L21.2 24.4 21.5 24.3 22.3 24.3 M17.6 28.2 L17.8 28.35 17.8 28.4 17.6 28.2 M30.65 31.9 Q31.3 31.85 31.3 31.3 31.3 30.65 30.65 29.55 L29.95 28.75 29.2 28.5 29.15 28.5 28.45 28.3 Q27.6 28.3 27.6 29.25 L27.6 29.4 28.4 30.8 Q29.4 31.9 30.55 31.9 L30.65 31.9" fill="#717175" fill-rule="evenodd" stroke="none"/>
      <path d="M41.6 26.6 L41.05 27.3 40.35 28.35 40.25 28.45 40.1 28.4 39.75 29.35 Q38.9 32.4 39.85 35.15 L39.65 36.25 39.55 37.45 39.3 37.3 38.2 36.55 36.95 36.05 Q36.65 36.05 36.45 36.7 L36.35 37.0 36.45 36.7 Q36.65 36.05 36.95 36.05 L36.5 36.75 36.35 37.0 36.05 38.3 35.6 38.95 34.8 39.0 33.8 39.1 Q33.3 39.1 33.05 39.5 L32.7 40.65 32.55 41.95 32.65 42.65 33.6 43.1 33.85 43.1 33.9 43.45 34.2 43.9 35.25 44.55 36.65 45.2 36.95 45.35 38.1 45.75 38.7 45.9 Q39.55 45.9 40.55 43.6 41.25 42.05 41.45 40.5 42.4 41.65 44.15 41.65 L45.05 41.5 45.1 43.0 Q45.2 46.65 44.35 47.9 43.85 48.65 42.7 49.1 L42.1 49.3 42.0 49.3 42.0 49.1 38.75 48.55 36.95 47.8 34.75 46.45 33.45 45.4 30.8 43.0 Q29.85 44.25 27.65 45.05 L26.15 45.55 25.75 45.65 23.1 45.95 22.65 45.95 20.7 45.65 19.85 45.25 19.0 44.5 Q18.2 43.5 18.2 42.55 18.2 41.6 18.55 40.7 20.25 42.1 22.05 42.6 26.35 43.8 31.15 39.95 L31.5 39.8 31.7 39.7 32.2 39.1 32.3 39.0 32.7 37.9 32.3 39.0 32.25 38.95 32.5 38.1 32.7 37.9 33.05 37.6 33.7 37.3 Q33.7 34.95 33.3 33.1 32.25 27.5 28.1 25.45 26.05 24.45 23.2 24.3 L22.3 24.3 22.3 24.25 21.8 23.85 20.8 22.7 20.75 22.7 20.75 22.55 20.75 22.4 21.25 21.95 21.55 21.85 22.15 22.15 24.0 22.85 27.5 23.6 27.65 23.6 29.95 23.9 30.25 23.9 30.55 23.95 Q33.3 24.25 35.05 25.25 L35.4 25.4 36.55 26.3 37.2 26.95 37.4 27.25 37.55 27.1 37.6 26.3 37.65 26.3 38.75 27.1 Q39.25 27.5 39.25 27.85 39.35 27.5 39.9 27.1 L40.45 26.8 40.45 27.0 40.6 27.0 40.8 26.65 41.4 26.6 41.6 26.6 M17.8 25.05 Q18.0 24.55 18.6 24.35 L20.05 24.2 20.25 24.25 20.9 24.35 19.25 24.5 Q18.4 24.65 17.8 25.05" fill="#dbdcd7" fill-rule="evenodd" stroke="none"/>
      <path d="M41.35 35.75 Q42.35 34.55 44.5 33.2 L45.55 32.5 46.4 32.1 47.45 31.55 46.55 32.4 45.3 33.3 Q43.9 34.6 43.5 36.25 43.35 36.85 43.35 37.55 43.35 38.55 43.6 39.3 L44.2 40.35 45.05 41.2 45.3 41.4 45.05 41.5 44.15 41.65 Q42.4 41.65 41.45 40.5 L41.55 39.4 41.65 39.25 40.55 38.25 40.55 38.0 40.55 37.95 40.8 37.9 41.2 37.5 40.65 36.9 40.8 36.55 41.35 35.75 M22.05 42.6 Q20.25 42.1 18.55 40.7 L18.35 40.5 17.2 39.4 14.8 36.3 Q14.15 35.25 13.85 34.15 13.5 32.85 13.65 31.4 L13.7 31.25 16.65 31.35 18.75 31.55 18.4 32.1 Q17.4 33.8 17.4 35.05 17.4 36.05 17.8 37.1 L18.4 38.45 19.15 39.55 19.55 40.1 22.05 42.6 M41.2 37.5 Q41.75 37.0 42.6 36.6 L43.5 36.25 42.6 36.6 Q41.75 37.0 41.2 37.5" fill="#cdedff" fill-rule="evenodd" stroke="none"/>
      <path d="M43.8 31.75 L42.85 32.7 40.7 35.25 41.35 35.75 40.8 36.55 40.55 36.65 40.2 35.95 39.85 35.15 Q38.9 32.4 39.75 29.35 L40.1 28.4 40.25 28.45 40.35 28.35 Q42.1 29.55 43.2 30.9 L43.8 31.75 M33.3 33.1 Q33.7 34.95 33.7 37.3 L33.05 37.6 32.6 37.25 Q28.1 33.8 22.75 32.35 L18.75 31.55 16.65 31.35 13.7 31.25 13.55 30.65 13.85 27.8 16.0 27.4 16.4 27.0 Q16.85 25.75 17.8 25.05 18.4 24.65 19.25 24.5 L20.9 24.35 21.5 24.3 21.2 24.4 20.55 24.75 Q19.45 25.4 19.45 26.35 19.45 27.05 19.9 27.75 20.85 29.25 23.8 30.75 L24.75 31.15 Q29.2 33.2 31.75 33.3 L31.95 33.3 33.1 33.1 33.3 33.1 M17.6 28.2 L17.8 28.4 17.8 28.35 17.6 28.2" fill="#5f5757" fill-rule="evenodd" stroke="none"/>
      <path d="M49.0 38.1 L50.25 39.4 49.6 40.05 Q50.25 41.75 50.25 43.6 50.25 45.5 48.2 48.05 L47.1 49.3 45.0 51.25 45.55 52.4 43.4 52.85 41.65 52.6 Q40.65 52.25 39.7 51.5 L38.95 50.9 38.9 49.65 38.95 49.65 40.05 49.8 Q43.75 49.8 45.4 47.4 L45.85 46.75 Q46.7 45.05 46.7 42.5 L46.55 40.75 48.65 38.6 49.0 38.1 M5.15 51.7 L3.1 51.95 0.4 51.45 1.1 50.3 -1.55 48.35 -1.7 48.2 -1.7 35.9 -0.75 35.45 -0.45 34.05 0.3 34.4 1.15 34.55 1.2 34.75 1.1 34.75 0.35 35.0 1.45 35.9 Q-0.15 37.55 -0.7 39.55 L-1.0 41.6 Q-1.0 44.15 0.05 45.85 L0.6 46.5 Q2.65 48.9 7.2 48.9 L10.0 48.35 10.7 48.15 9.9 49.0 7.65 50.55 Q6.8 51.15 5.85 51.45 L5.25 51.65 5.15 51.7 M0.9 21.8 L1.1 21.15 Q2.1 18.05 4.1 15.15 L5.3 14.85 Q6.1 18.75 9.85 22.1 L11.9 23.8 Q10.9 25.3 10.9 27.3 10.9 31.15 13.85 34.15 14.15 35.25 14.8 36.3 L17.2 39.4 15.15 41.15 Q13.75 42.55 13.1 43.7 L13.05 43.8 12.9 43.75 12.5 43.45 12.4 41.05 12.4 41.0 12.5 40.65 Q12.3 39.05 11.2 37.8 10.4 36.75 9.05 35.95 6.6 34.5 3.8 34.45 L3.75 34.3 3.55 34.0 Q2.0 30.75 1.45 26.65 1.1 24.35 1.1 21.8 L0.9 21.8 M0.35 35.0 L-0.75 35.45 0.35 35.0" fill="#443f39" fill-rule="evenodd" stroke="none"/>
      <path d="M38.95 50.9 L38.95 51.3 38.95 51.35 Q38.95 52.65 38.6 53.6 L36.45 53.6 Q37.2 52.15 37.2 50.35 L37.15 49.7 37.15 49.6 38.7 49.65 38.9 49.65 38.95 50.9 M33.5 53.6 L31.7 53.6 31.8 53.25 32.0 52.5 32.15 51.85 32.4 50.8 Q32.7 49.7 33.0 49.7 L33.45 49.8 33.7 50.05 33.7 50.2 33.7 50.3 33.7 51.75 33.5 53.45 33.5 53.6 M23.75 53.6 L22.95 53.6 23.45 51.9 23.75 53.6 M20.3 48.85 Q20.6 49.85 20.35 52.1 L20.15 52.15 20.35 52.45 20.2 53.6 18.5 53.6 18.55 53.0 18.95 50.75 18.95 48.85 19.55 48.85 19.65 48.85 19.8 48.85 20.3 48.85 M14.9 53.6 L13.65 53.6 Q14.1 52.8 14.35 52.9 14.6 52.95 14.75 53.15 L14.95 53.45 14.9 53.6 M4.45 53.6 L3.85 53.6 4.6 52.4 4.45 53.6 M41.45 40.5 Q41.25 42.05 40.55 43.6 39.55 45.9 38.7 45.9 L38.1 45.75 36.95 45.35 36.65 45.2 36.15 44.45 36.15 44.4 36.7 44.5 38.55 44.9 39.35 42.95 39.75 41.6 39.15 41.4 Q38.4 41.05 38.4 40.05 38.4 39.45 38.65 39.1 L39.05 38.65 38.25 38.0 37.9 37.7 36.5 36.75 36.95 36.05 38.2 36.55 39.3 37.3 39.55 37.45 40.55 38.25 41.65 39.25 41.55 39.4 41.45 40.5" fill="#fffb85" fill-rule="evenodd" stroke="none"/>
      <path d="M-1.7 12.45 L-1.7 9.95 -0.8 10.1 1.95 10.35 1.2 11.2 Q-0.35 12.05 -1.7 12.45 M-1.2 13.4 L-1.35 13.4 -1.25 13.35 -1.2 13.4" fill="#ffc64d" fill-rule="evenodd" stroke="none"/>
      <path d="M24.05 50.25 L24.65 48.65 24.85 48.2 27.05 47.7 28.55 47.4 32.1 48.75 36.15 49.5 34.75 50.95 33.7 51.75 33.7 50.3 33.7 50.2 33.7 50.05 33.45 49.8 33.0 49.7 Q32.7 49.7 32.4 50.8 L32.15 51.85 32.0 52.5 29.3 52.9 29.15 52.9 27.9 52.7 25.85 51.85 Q24.8 51.15 24.05 50.25 M17.5 53.6 L14.95 53.6 14.9 53.6 14.95 53.45 14.95 53.6 14.95 53.45 14.75 53.15 Q14.6 52.95 14.35 52.9 14.1 52.8 13.65 53.6 L7.5 53.6 6.9 53.0 5.85 51.45 Q6.8 51.15 7.65 50.55 L9.9 49.0 10.7 48.15 11.15 47.55 11.9 46.25 12.35 46.35 12.35 46.3 12.5 45.45 12.7 46.3 Q13.0 47.05 13.95 47.65 15.7 48.75 18.95 48.85 L18.95 50.75 18.55 53.0 17.95 53.35 17.5 53.6 M36.65 45.2 L35.25 44.55 34.2 43.9 33.9 43.45 33.85 43.1 33.6 43.1 32.65 42.65 32.55 41.95 32.7 40.65 33.05 39.5 Q33.3 39.1 33.8 39.1 L34.8 39.0 35.6 38.95 36.05 38.3 36.35 37.0 36.5 36.75 37.9 37.7 38.25 38.0 Q38.25 39.1 36.9 40.2 35.55 41.35 35.55 42.5 35.55 43.35 36.1 44.4 L36.15 44.4 36.15 44.45 36.65 45.2 M34.25 41.65 Q33.85 41.95 33.85 43.1 33.85 41.95 34.25 41.65" fill="#d6844b" fill-rule="evenodd" stroke="none"/>
      <path d="M36.45 53.6 L33.5 53.6 33.5 53.45 33.7 51.75 34.75 50.95 36.15 49.5 37.15 49.6 37.15 49.7 37.2 50.35 Q37.2 52.15 36.45 53.6 M31.7 53.6 L23.75 53.6 23.45 51.9 23.5 51.75 24.05 50.25 Q24.8 51.15 25.85 51.85 L27.9 52.7 29.15 52.9 29.3 52.9 32.0 52.5 31.8 53.25 31.7 53.6 M20.35 52.1 L20.35 52.45 20.15 52.15 20.35 52.1 M18.5 53.6 L17.5 53.6 17.95 53.35 18.55 53.0 18.5 53.6 M7.5 53.6 L4.45 53.6 4.6 52.4 4.7 52.25 5.15 51.7 5.25 51.65 5.85 51.45 6.9 53.0 7.5 53.6 M38.25 38.0 L39.05 38.65 38.65 39.1 Q38.4 39.45 38.4 40.05 38.4 41.05 39.15 41.4 L39.75 41.6 39.35 42.95 38.55 44.9 36.7 44.5 36.15 44.4 36.1 44.4 Q35.55 43.35 35.55 42.5 35.55 41.35 36.9 40.2 38.25 39.1 38.25 38.0" fill="#ff8f4d" fill-rule="evenodd" stroke="none"/>
      <path d="M8.2 -0.35 L8.05 1.95 Q7.4 6.65 4.25 9.85 L2.65 11.25 Q0.8 12.7 -1.2 13.4 L-1.65 13.6 -1.7 13.6" fill="none" stroke="#a12314" stroke-linecap="round" stroke-linejoin="round" stroke-width="1.0"/>
      <path d="M3.85 -0.35 Q3.9 2.9 2.8 6.1 L4.45 6.0 5.0 5.9 Q6.1 2.85 6.1 -0.35 M-1.7 2.4 L-0.15 -0.35 M2.2 -0.35 Q0.8 3.05 -1.7 6.35" fill="none" stroke="#ff6600" stroke-linecap="round" stroke-linejoin="round" stroke-width="1.0"/>
      <path d="M25.0 2.9 L24.95 2.0 Q24.95 0.7 25.25 -0.35 M18.1 7.3 L19.75 7.9 20.35 8.05 M10.95 -0.35 L11.15 0.4 Q11.8 2.2 13.05 3.75 L13.35 4.1 16.25 6.45 16.75 6.7 18.1 7.3 M16.8 6.7 L16.75 6.7 Q12.7 7.9 9.65 9.8 7.0 11.5 5.15 13.75 L4.1 15.15 Q2.1 18.05 1.1 21.15 L0.9 21.8 Q0.4 23.65 0.25 25.55 0.15 26.85 0.2 28.2 L0.2 28.3 0.35 30.3 Q0.6 32.75 1.15 34.55 L1.2 34.75 M42.95 14.8 L43.0 14.85 M43.0 14.8 L42.95 14.8 42.9 14.75 Q39.95 11.05 35.65 8.85 L32.55 7.6 Q30.65 6.95 28.8 6.8 L28.3 6.7 M28.5 7.4 L27.3 6.4 25.65 4.7 Q25.15 4.0 25.0 2.9 M46.3 23.15 L46.55 22.75 47.2 21.55 Q47.75 20.55 47.75 18.8 47.75 16.9 47.4 15.05 46.9 12.3 45.75 11.35 L44.35 12.9 42.95 14.8 M42.7 25.25 L43.65 24.25 44.9 23.15 M45.1 23.15 L45.55 23.4 47.0 24.4 48.2 25.35 Q50.15 27.0 50.55 27.95 M41.35 35.75 Q42.35 34.55 44.5 33.2 L45.55 32.5 46.4 32.1 47.45 31.55 48.15 31.2 Q48.95 30.8 49.7 30.5 L50.45 30.25 50.5 30.25 51.8 29.85 51.55 28.05 50.95 28.05 M46.55 22.75 L47.0 24.4 M50.55 30.55 L50.1 34.3 Q49.7 36.75 49.0 38.1 L50.25 39.4 51.15 40.7 Q51.85 41.8 52.0 43.1 52.25 45.45 51.35 47.5 L50.25 49.3 49.05 50.45 46.95 51.85 45.55 52.4 43.4 52.85 41.65 52.6 Q40.65 52.25 39.7 51.5 L38.95 50.9 38.95 51.3 38.95 51.35 Q38.95 52.65 38.6 53.6 M22.95 53.6 L23.45 51.9 M23.5 51.75 L24.05 50.25 24.65 48.65 24.85 48.2 23.55 48.5 23.1 48.6 20.3 48.85 Q20.6 49.85 20.35 52.1 L20.35 52.45 20.2 53.6 M3.85 53.6 L4.6 52.4 M4.7 52.25 L5.15 51.7 3.1 51.95 0.4 51.45 -1.35 50.9 -1.7 50.75 M-1.7 23.9 L-1.6 23.95 Q-0.9 24.45 0.25 25.55 M42.7 25.25 L41.6 26.6 41.05 27.3 40.35 28.35 40.25 28.45 M23.2 24.3 Q26.05 24.45 28.1 25.45 32.25 27.5 33.3 33.1 33.7 34.95 33.7 37.3 M32.7 37.9 L32.3 39.0 32.2 39.1 31.15 39.95 Q26.35 43.8 22.05 42.6 20.25 42.1 18.55 40.7 L18.35 40.5 17.2 39.4 14.8 36.3 Q14.15 35.25 13.85 34.15 13.5 32.85 13.65 31.4 M42.0 49.3 L42.1 49.3 42.7 49.1 Q43.85 48.65 44.35 47.9 45.2 46.65 45.1 43.0 L45.05 41.5 44.15 41.65 Q42.4 41.65 41.45 40.5 41.25 42.05 40.55 43.6 39.55 45.9 38.7 45.9 L38.1 45.75 36.95 45.35 36.65 45.2 35.25 44.55 34.2 43.9 33.9 43.45 33.85 43.1 Q33.85 41.95 34.25 41.65 M33.6 43.1 L32.65 42.65 32.55 41.95 32.7 40.65 33.05 39.5 Q33.3 39.1 33.8 39.1 L34.8 39.0 35.6 38.95 36.05 38.3 36.35 37.0 36.45 36.7 Q36.65 36.05 36.95 36.05 L38.2 36.55 39.3 37.3 39.55 37.45 40.55 38.25 41.65 39.25 M39.85 35.15 Q38.9 32.4 39.75 29.35 L40.1 28.4 M40.8 36.55 L41.35 35.75 M40.55 36.65 L40.65 36.9 40.8 36.55 M40.55 36.65 L40.2 35.95 39.85 35.15 M43.5 36.25 L45.1 35.85 M43.5 36.25 L42.6 36.6 Q41.75 37.0 41.2 37.5 L40.8 37.9 M40.55 37.95 L40.55 38.0 40.55 38.25 M41.55 39.4 L41.45 40.5 M45.3 41.4 L46.4 40.8 46.55 40.75 48.65 38.6 49.0 38.1 M38.95 49.65 L38.9 49.65 38.95 50.9 M40.65 36.9 L40.55 37.6 40.55 37.95 M45.05 41.5 L45.3 41.4 M28.5 7.4 L28.8 7.65 M20.9 24.35 L21.5 24.3 M16.0 27.4 L13.85 27.8 13.55 30.65 M13.7 31.25 L16.65 31.35 18.75 31.55 22.75 32.35 Q28.1 33.8 32.6 37.25 L33.05 37.6 M17.8 25.05 Q16.85 25.75 16.4 27.0 M13.65 31.25 L13.7 31.25 M3.25 34.45 L3.5 34.45 M12.4 41.05 L12.5 43.45 12.25 45.05 11.9 46.25 11.15 47.55 10.7 48.15 9.9 49.0 7.65 50.55 Q6.8 51.15 5.85 51.45 L5.25 51.65 5.15 51.7 M13.05 43.8 L13.1 43.7 Q13.75 42.55 15.15 41.15 L17.2 39.4 M1.1 34.75 L0.35 35.0 -0.75 35.45 -1.7 35.9 M12.35 46.3 L12.35 46.35 11.9 46.25 M13.05 43.8 Q12.5 44.75 12.5 45.45 L12.7 46.3 Q13.0 47.05 13.95 47.65 15.7 48.75 18.95 48.85 L19.55 48.85 19.65 48.85 19.8 48.85 20.3 48.85 M31.85 38.7 Q29.3 37.2 26.5 36.65 L24.65 36.25 M36.15 49.5 L32.1 48.75 28.55 47.4 27.05 47.7 24.85 48.2 M20.9 24.35 L19.25 24.5 Q18.4 24.65 17.8 25.05 M38.9 49.65 L38.7 49.65 37.15 49.6 36.15 49.5 M33.7 51.75 L33.5 53.45 33.5 53.6 M33.45 49.8 L33.7 50.05 33.7 50.2 33.7 50.3 33.7 51.75 M14.95 53.45 L14.9 53.6 M14.75 53.15 L14.95 53.45 M42.0 49.3 L38.95 49.65" fill="none" stroke="#560b12" stroke-linecap="round" stroke-linejoin="round" stroke-width="1.0"/>
      <path d="M42.55 16.15 L42.7 15.6 M42.2 17.1 L41.95 17.7 41.6 18.7 41.25 19.55 40.45 22.0 Q40.25 22.7 40.55 23.05 M42.55 16.15 L42.2 17.0 M24.0 22.85 L22.15 22.15 21.55 21.85 20.75 21.5 20.65 21.5 20.35 21.35 20.25 21.35 19.55 21.1 18.2 20.85 17.75 20.45 Q16.0 18.95 14.6 16.55 L14.15 15.7 Q13.2 13.85 13.2 12.7 L13.25 12.35 13.3 12.15 14.35 12.15 18.8 12.9 19.4 13.0 20.85 13.3 21.6 13.4 27.2 14.55 27.5 14.65 27.55 14.65 28.3 14.9 Q31.4 15.85 33.75 17.1 L34.05 17.3 Q38.35 19.6 39.95 22.9 M11.9 23.8 L13.05 22.5 Q14.95 20.75 17.4 20.75 L18.2 20.85 M13.85 34.15 Q10.9 31.15 10.9 27.3 10.9 25.3 11.9 23.8" fill="none" stroke="#383f43" stroke-linecap="round" stroke-linejoin="round" stroke-width="1.0"/>
      <path d="M14.95 53.45 L14.95 53.6" fill="none" stroke="#ff00ff" stroke-linecap="round" stroke-linejoin="round" stroke-width="1.0"/>
    </g>
    <g id="shape2" transform="matrix(1.0, 0.0, 0.0, 1.0, 0.0, 0.0)">
      <path d="M50.5 0.0 Q53.95 0.0 53.95 3.3 L53.95 50.15 Q53.95 53.4 50.5 53.4 L3.3 53.4 Q0.0 53.4 0.0 50.15 L0.0 3.3 Q0.0 0.0 3.3 0.0 L50.5 0.0" fill="#000000" fill-opacity="0.003921569" fill-rule="evenodd" stroke="none"/>
    </g>
  </defs>
</svg>
