<?xml version="1.0" encoding="UTF-8" standalone="no"?>
<svg xmlns:ffdec="https://www.free-decompiler.com/flash" xmlns:xlink="http://www.w3.org/1999/xlink" ffdec:objectType="frame" height="54.25px" width="54.5px" xmlns="http://www.w3.org/2000/svg">
  <g transform="matrix(1.0, 0.0, 0.0, 1.0, 0.2, 0.45)">
    <clipPath id="clipPath0" transform="matrix(1.0, 0.0, 0.0, 1.0, 0.0, 0.0)">
      <path d="M50.5 0.0 Q53.95 0.0 53.95 3.3 L53.95 50.15 Q53.95 53.4 50.5 53.4 L3.3 53.4 Q0.0 53.4 0.0 50.15 L0.0 3.3 Q0.0 0.0 3.3 0.0 L50.5 0.0" fill="#000000" fill-rule="evenodd" stroke="none"/>
    </clipPath>
    <g clip-path="url(#clipPath0)">
      <use ffdec:characterId="2" height="54.25" transform="matrix(1.0, 0.0, 0.0, 1.0, -0.2, -0.45)" width="54.5" xlink:href="#shape1"/>
    </g>
    <use ffdec:characterId="3" height="53.4" transform="matrix(1.0, 0.0, 0.0, 1.0, 0.0, 0.0)" width="53.95" xlink:href="#shape2"/>
  </g>
  <defs>
    <g id="shape1" transform="matrix(1.0, 0.0, 0.0, 1.0, 0.2, 0.45)">
      <path d="M22.05 0.05 L26.1 0.05 24.05 1.25 24.0 1.15 23.5 0.8 22.05 0.05" fill="#878c57" fill-rule="evenodd" stroke="none"/>
      <path d="M44.75 15.3 L44.95 15.45 44.65 15.45 42.8 15.65 42.05 15.9 41.6 16.15 41.7 16.55 41.2 16.8 40.85 17.0 40.45 17.3 40.95 18.35 41.65 19.6 41.95 20.05 Q43.05 21.5 44.6 22.65 L50.65 27.45 51.15 28.3 51.75 29.7 53.5 29.55 53.8 29.55 53.8 43.75 53.35 43.2 53.3 44.35 53.4 45.8 52.3 43.65 52.2 43.45 52.1 43.25 51.75 43.1 51.2 42.9 51.15 42.9 50.25 42.7 50.15 42.7 48.45 42.95 Q47.8 43.15 47.2 43.45 L46.3 44.2 Q45.65 44.85 45.6 45.75 L45.6 46.0 45.8 46.3 45.6 46.45 41.75 48.4 41.5 48.5 Q38.85 49.55 36.95 49.9 L38.3 51.1 40.05 52.5 37.2 51.75 Q35.25 51.05 32.65 49.55 L32.5 49.5 31.7 49.7 30.35 49.95 29.0 50.15 Q27.75 51.0 27.6 51.8 L26.65 49.8 26.55 50.05 26.3 50.95 Q26.15 51.7 26.15 52.75 L26.25 53.3 16.6 53.3 13.45 50.65 10.6 47.55 8.65 44.6 Q7.75 43.0 7.35 41.6 L6.95 40.1 5.1 40.5 Q2.4 41.25 2.35 42.2 L2.15 41.8 1.85 40.95 Q1.25 39.1 1.25 36.45 1.25 33.5 1.8 30.95 L2.05 29.85 2.3 28.9 3.35 27.95 4.2 27.1 Q5.25 25.65 5.25 23.8 5.25 22.55 4.8 22.0 L4.6 21.75 4.6 21.7 4.8 21.45 Q5.55 20.4 5.55 18.85 L5.55 18.65 5.45 18.0 5.05 16.8 4.2 15.95 3.15 15.75 0.95 16.15 Q1.2 14.35 2.25 12.45 L2.45 12.05 Q4.55 8.2 9.4 3.75 L12.35 1.3 14.05 0.05 22.05 0.05 23.5 0.8 24.0 1.15 24.05 1.25 23.65 1.45 19.2 4.7 16.95 6.1 15.5 7.0 15.8 7.3 16.1 7.45 16.95 7.7 21.7 6.05 Q24.45 4.95 25.8 4.1 L24.9 6.45 24.15 8.65 Q24.8 9.3 25.95 9.55 L26.55 9.35 28.15 8.65 29.65 7.5 30.75 10.45 31.15 11.4 31.8 12.7 32.15 13.0 32.3 12.95 33.45 12.75 34.9 12.55 35.25 12.55 35.3 12.45 35.7 11.4 35.8 11.1 35.9 10.85 37.7 6.25 37.25 8.95 36.9 11.25 36.8 12.5 39.0 12.2 40.9 12.4 Q39.95 13.15 39.3 14.0 L39.35 14.05 40.2 14.2 44.75 15.3 M53.8 51.45 L53.8 51.55 53.45 51.2 53.8 51.45 M50.5 53.3 L49.45 53.3 48.6 52.5 48.0 51.95 45.4 49.95 48.85 52.1 49.0 52.15 50.5 53.3 M33.3 53.3 L29.1 53.3 31.6 52.05 31.75 52.15 33.3 53.3 M49.0 29.75 L48.75 28.95 48.55 28.45 48.25 27.8 47.25 26.2 45.25 24.8 42.1 21.9 40.5 20.05 Q39.35 18.55 39.15 17.5 L39.05 17.15 39.0 16.9 38.85 16.2 38.35 15.3 Q37.75 14.4 36.8 14.1 L35.75 13.95 35.7 13.95 34.8 14.0 33.7 14.2 33.45 14.25 33.3 14.3 32.8 14.5 32.65 14.55 32.25 14.0 31.7 13.45 Q30.85 12.7 29.55 12.05 L28.95 11.75 28.85 11.7 Q26.55 10.7 23.7 10.4 L21.1 10.25 Q19.0 10.25 17.15 10.8 L15.25 11.55 15.1 11.6 13.9 12.35 13.9 12.3 Q13.9 11.55 13.1 11.55 L12.7 11.55 Q13.65 10.85 14.7 10.25 L14.6 10.2 14.55 10.1 Q13.25 10.15 11.0 12.0 L10.2 12.7 9.2 13.7 9.05 14.05 8.5 15.0 8.4 15.2 7.2 17.55 Q6.45 19.15 6.05 20.45 L6.15 22.9 5.8 26.0 5.35 28.7 5.35 28.85 5.55 29.75 5.65 30.15 5.65 30.25 5.65 30.3 6.05 33.75 6.0 34.3 5.15 36.9 6.75 36.95 9.55 37.05 10.1 39.1 10.3 39.6 12.65 40.85 13.05 41.05 16.75 43.25 19.2 41.25 19.35 41.1 20.25 40.4 23.15 37.9 23.4 36.95 24.1 36.85 24.35 36.8 24.55 36.75 25.25 36.65 26.0 36.5 26.05 37.05 Q24.5 39.15 24.5 41.9 L24.5 42.35 Q24.6 44.7 25.65 46.2 L26.7 47.2 Q27.8 48.05 29.35 48.3 32.45 47.7 35.55 46.4 L36.9 45.85 37.05 45.8 37.55 48.65 37.55 48.75 39.2 48.1 40.65 47.45 44.3 45.6 44.3 44.35 44.3 44.1 44.3 41.5 45.85 40.3 49.1 37.4 50.8 35.35 51.15 34.9 51.15 33.95 Q51.15 31.95 50.4 30.5 L49.9 29.75 49.75 29.75 49.0 29.75 M45.85 42.15 L45.4 42.85 45.35 42.9 45.25 43.15 45.5 43.0 46.55 42.6 46.3 42.45 45.85 42.15 M17.3 0.85 L17.05 0.95 17.05 1.05 17.3 0.85" fill="#b26821" fill-rule="evenodd" stroke="none"/>
      <path d="M34.65 0.05 L37.5 0.05 37.45 1.15 37.4 1.15 36.55 1.05 Q35.6 0.85 34.85 0.2 L34.75 0.15 34.65 0.05" fill="#239ac9" fill-rule="evenodd" stroke="none"/>
      <path d="M45.85 42.15 L46.3 42.45 46.55 42.6 45.5 43.0 45.25 43.15 45.35 42.9 45.4 42.85 45.85 42.15 M17.3 0.85 L17.05 1.05 17.05 0.95 17.3 0.85" fill="#a84f18" fill-rule="evenodd" stroke="none"/>
      <path d="M41.7 16.55 L42.1 17.65 Q43.6 21.4 48.25 24.55 L49.75 25.5 51.6 26.5 53.5 27.3 53.8 27.4 53.8 29.55 53.5 29.55 51.75 29.7 51.15 28.3 50.65 27.45 44.6 22.65 Q43.05 21.5 41.95 20.05 L41.65 19.6 40.95 18.35 40.45 17.3 40.85 17.0 41.2 16.8 41.7 16.55 M53.8 43.75 L53.8 51.45 53.45 51.2 53.8 51.55 53.8 52.5 50.8 50.4 49.9 49.75 46.65 47.3 Q47.55 49.05 49.7 51.4 L50.5 52.25 50.75 52.55 51.5 53.3 50.5 53.3 49.0 52.15 48.85 52.1 45.4 49.95 48.0 51.95 48.6 52.5 49.45 53.3 47.5 53.3 46.55 52.95 42.7 51.3 41.85 50.85 42.4 51.4 Q43.45 52.3 45.35 53.3 L33.3 53.3 31.75 52.15 31.6 52.05 29.1 53.3 26.25 53.3 26.15 52.75 Q26.15 51.7 26.3 50.95 L26.55 50.05 26.65 49.8 27.6 51.8 Q27.75 51.0 29.0 50.15 L30.35 49.95 31.7 49.7 32.5 49.5 32.65 49.55 Q35.25 51.05 37.2 51.75 L40.05 52.5 38.3 51.1 36.95 49.9 Q38.85 49.55 41.5 48.5 L41.75 48.4 45.6 46.45 45.8 46.3 45.6 46.0 45.6 45.75 Q45.65 44.85 46.3 44.2 L47.2 43.45 Q47.8 43.15 48.45 42.95 L50.15 42.7 50.25 42.7 51.15 42.9 51.2 42.9 51.75 43.1 52.1 43.25 52.2 43.45 52.3 43.65 53.4 45.8 53.3 44.35 53.35 43.2 53.8 43.75 M38.95 5.45 Q39.45 7.6 40.45 9.6 41.25 11.25 42.35 12.65 L44.45 15.0 44.75 15.3 40.2 14.2 39.35 14.05 39.3 14.0 Q39.95 13.15 40.9 12.4 L39.0 12.2 36.8 12.5 36.9 11.25 37.25 8.95 37.7 6.25 35.9 10.85 35.8 11.1 35.7 11.4 35.3 12.45 35.25 12.55 34.9 12.55 33.45 12.75 32.3 12.95 32.15 13.0 31.8 12.7 31.15 11.4 30.75 10.45 29.65 7.5 28.15 8.65 26.55 9.35 25.95 9.55 Q24.8 9.3 24.15 8.65 L24.9 6.45 25.8 4.1 Q24.45 4.95 21.7 6.05 L16.95 7.7 16.1 7.45 15.8 7.3 15.5 7.0 16.95 6.1 19.2 4.7 23.65 1.45 24.05 1.25 24.3 1.4 25.6 2.55 26.3 3.05 26.55 3.1 Q26.75 3.1 27.35 2.7 L27.5 2.6 28.3 2.1 28.6 2.1 Q28.45 2.85 29.0 3.15 L30.0 3.35 33.65 2.95 34.1 2.95 33.6 4.8 32.1 9.95 32.35 10.65 32.5 10.95 Q33.15 12.2 34.05 12.2 L34.75 11.9 35.4 11.4 35.45 11.05 35.55 9.5 35.55 8.95 35.2 3.25 36.05 3.65 37.4 4.5 38.95 5.45 M23.0 35.2 L23.25 35.1 26.1 33.95 26.05 34.45 25.95 35.4 25.95 35.55 25.95 35.65 25.25 36.65 24.55 36.75 24.35 36.8 24.1 36.85 23.4 36.95 23.15 37.9 20.25 40.4 19.35 41.1 19.2 41.25 16.75 43.25 13.05 41.05 12.65 40.85 10.3 39.6 10.1 39.1 9.55 37.05 6.75 36.95 5.15 36.9 6.0 34.3 6.05 33.75 5.65 30.3 5.65 30.25 5.65 30.15 5.55 29.75 5.35 28.85 5.35 28.7 5.8 26.0 6.15 22.9 6.05 20.45 Q6.45 19.15 7.2 17.55 L8.4 15.2 8.5 15.0 9.05 14.05 9.2 13.7 10.2 12.7 11.0 12.0 Q13.25 10.15 14.55 10.1 L14.6 10.2 14.7 10.25 Q13.65 10.85 12.7 11.55 L11.8 12.3 10.7 13.4 Q8.8 15.5 7.8 18.2 L7.6 18.7 Q6.55 21.65 6.55 25.25 L6.6 25.85 6.75 27.35 7.2 29.35 Q8.4 33.15 12.1 35.25 L12.75 36.2 13.3 37.0 14.05 38.35 14.5 39.2 14.55 38.45 14.55 38.4 Q14.8 37.35 15.55 36.7 L20.3 37.3 23.4 36.95 23.45 36.55 23.2 35.45 23.0 35.2 M26.75 5.05 L27.15 3.7 27.2 3.5 Q26.7 4.15 26.1 5.65 L25.55 7.4 25.35 8.15 25.4 8.3 25.55 8.8 25.95 9.25 26.35 8.95 26.5 8.75 26.45 8.25 Q26.55 6.1 26.75 5.05 M15.4 37.9 L15.55 38.3 Q16.1 39.35 17.35 40.3 L17.95 40.75 18.3 40.95 18.15 40.6 18.05 40.4 17.5 39.1 17.25 38.35 17.2 38.3 17.05 37.75 15.4 37.9" fill="#dd9e35" fill-rule="evenodd" stroke="none"/>
      <path d="M26.1 0.05 L31.35 0.05 32.0 0.5 33.0 0.3 34.1 0.15 34.8 0.4 35.9 1.0 36.5 1.3 38.4 1.85 Q38.5 3.7 38.95 5.45 L37.4 4.5 36.05 3.65 35.2 3.25 35.15 2.85 34.8 0.4 34.1 2.95 33.65 2.95 30.0 3.35 29.0 3.15 Q28.45 2.85 28.6 2.1 L28.3 2.1 27.5 2.6 27.35 2.7 Q26.75 3.1 26.55 3.1 L26.3 3.05 25.6 2.55 24.3 1.4 24.05 1.25 26.1 0.05" fill="#a8ad75" fill-rule="evenodd" stroke="none"/>
      <path d="M31.35 0.05 L34.65 0.05 34.75 0.15 34.85 0.2 Q35.6 0.85 36.55 1.05 L37.4 1.15 37.45 1.15 38.4 0.95 38.4 1.85 36.5 1.3 35.9 1.0 34.8 0.4 34.1 0.15 33.0 0.3 32.0 0.5 31.35 0.05" fill="#66bcbb" fill-rule="evenodd" stroke="none"/>
      <path d="M38.6 23.45 L39.6 23.1 40.15 22.55 40.25 22.4 40.55 21.7 42.6 23.8 44.85 25.65 46.9 27.05 47.5 28.6 46.4 28.75 Q46.3 27.9 45.8 27.1 L44.65 26.0 43.5 25.75 43.1 25.8 Q42.6 25.85 42.15 26.05 L41.95 26.1 41.9 26.15 41.45 26.4 41.2 26.6 Q39.95 25.45 38.6 23.45 M29.75 33.4 L27.15 34.7 27.1 34.4 26.8 32.25 Q24.45 33.35 22.35 33.85 L19.8 34.25 19.35 34.2 16.65 33.35 14.35 32.1 14.15 31.95 13.85 31.7 Q10.05 28.6 10.05 22.95 10.05 19.9 11.6 17.2 L12.3 16.2 13.6 14.65 14.55 13.8 15.0 13.45 15.6 13.15 Q16.5 12.7 17.65 12.4 L21.1 12.05 Q25.15 12.05 28.8 13.5 L31.05 14.55 32.6 15.7 Q32.8 15.5 33.3 15.3 L35.4 14.9 35.8 14.95 37.55 15.45 Q38.3 15.95 38.4 16.55 L38.05 16.45 36.6 16.05 35.95 16.1 Q35.0 16.2 34.4 16.75 33.9 17.2 33.7 17.8 L32.15 17.3 29.75 17.0 29.6 17.0 29.45 17.0 29.0 15.9 Q28.3 14.6 27.05 13.85 25.2 12.7 21.95 12.7 L21.0 12.75 20.05 12.9 Q18.55 13.15 17.2 14.15 L16.4 14.75 Q14.2 16.7 14.2 19.0 14.2 22.85 16.4 25.3 L17.95 26.6 19.3 27.2 21.15 27.5 22.2 27.45 22.35 27.45 Q25.1 27.45 27.05 25.7 L29.6 27.3 29.75 27.4 29.45 27.9 Q28.25 28.75 28.25 30.15 28.25 31.65 29.75 33.4 M37.05 17.75 L35.5 18.25 34.85 18.15 34.9 18.05 Q35.05 17.6 35.3 17.3 35.7 16.8 36.25 16.65 L36.35 16.65 Q37.1 16.45 37.85 16.95 L37.35 17.45 37.05 17.75 M28.5 17.05 L28.9 17.85 Q29.35 19.05 29.35 20.5 L29.35 20.8 27.15 18.95 26.75 18.65 25.5 17.65 23.7 16.4 23.65 16.1 Q23.65 14.8 23.9 13.65 25.85 14.05 27.3 15.55 L27.95 16.3 28.5 17.05 M26.3 16.45 L26.4 17.0 26.55 17.3 26.6 17.35 27.15 17.8 27.45 17.75 27.55 17.45 27.55 17.4 27.5 17.2 27.5 17.15 Q27.35 16.65 26.65 16.15 L26.45 16.0 26.3 16.15 26.3 16.45 M17.15 27.9 Q16.9 28.05 16.9 28.3 L17.3 28.95 17.5 29.1 17.7 29.2 18.5 29.35 19.45 29.05 19.6 28.7 Q19.6 28.2 18.9 27.9 L18.6 27.8 18.2 27.7 17.75 27.7 17.15 27.9" fill="#abd8f7" fill-rule="evenodd" stroke="none"/>
      <path d="M46.4 28.75 L47.5 28.6 46.9 27.05 44.85 25.65 42.6 23.8 40.55 21.7 40.25 22.4 40.15 22.55 39.6 23.1 38.6 23.45 38.3 23.0 Q39.0 22.65 39.35 21.7 39.75 20.6 39.4 19.25 L38.65 17.75 38.1 17.15 37.85 16.95 Q37.1 16.45 36.35 16.65 L36.25 16.65 Q35.7 16.8 35.3 17.3 35.05 17.6 34.9 18.05 L34.85 18.15 35.5 18.25 37.05 17.75 36.0 19.15 35.95 19.15 35.75 19.45 35.4 20.05 35.0 20.95 34.85 20.5 Q34.55 19.3 34.8 18.35 34.25 18.0 33.7 17.8 33.9 17.2 34.4 16.75 35.0 16.2 35.95 16.1 L36.6 16.05 38.05 16.45 38.4 16.55 Q38.3 15.95 37.55 15.45 L35.8 14.95 35.4 14.9 33.3 15.3 Q32.8 15.5 32.6 15.7 L31.05 14.55 28.8 13.5 Q25.15 12.05 21.1 12.05 L17.65 12.4 Q16.5 12.7 15.6 13.15 L15.0 13.45 14.55 13.8 13.6 14.65 12.3 16.2 11.6 17.2 Q10.05 19.9 10.05 22.95 10.05 28.6 13.85 31.7 L14.15 31.95 14.35 32.1 16.65 33.35 19.35 34.2 19.8 34.25 22.35 33.85 Q24.45 33.35 26.8 32.25 L27.1 34.4 27.15 34.7 29.75 33.4 29.8 33.45 30.65 34.3 Q28.4 35.3 26.75 36.25 L26.45 36.55 26.25 36.8 26.05 37.05 26.0 36.5 25.95 35.65 25.95 35.55 25.95 35.4 26.05 34.45 26.1 33.95 23.25 35.1 23.0 35.2 19.95 36.15 Q17.9 36.15 16.15 35.45 15.35 35.15 14.65 34.7 L13.7 34.05 12.9 33.35 11.9 32.25 Q8.65 28.35 8.65 22.6 8.65 17.95 11.45 14.6 L11.9 14.05 Q12.85 13.05 13.9 12.35 L15.1 11.6 15.25 11.55 17.15 10.8 Q19.0 10.25 21.1 10.25 L23.7 10.4 Q26.55 10.7 28.85 11.7 L28.95 11.75 29.55 12.05 Q30.85 12.7 31.7 13.45 L32.25 14.0 32.65 14.55 32.8 14.5 33.3 14.3 33.45 14.25 33.7 14.2 34.8 14.0 35.7 13.95 35.75 13.95 36.8 14.1 Q37.75 14.4 38.35 15.3 L38.85 16.2 39.0 16.9 39.05 17.15 39.15 17.5 Q39.35 18.55 40.5 20.05 L42.1 21.9 45.25 24.8 47.25 26.2 48.25 27.8 48.55 28.45 48.75 28.95 49.0 29.75 47.4 29.85 46.3 29.95 46.35 29.75 46.4 29.2 46.4 28.75 M37.05 45.8 L36.9 45.85 37.05 45.75 37.05 45.8 M29.45 17.0 L28.5 17.05 27.95 16.3 27.3 15.55 Q25.85 14.05 23.9 13.65 23.65 14.8 23.65 16.1 L23.7 16.4 25.5 17.65 26.75 18.65 27.15 18.95 29.35 20.8 29.3 21.5 27.4 19.95 26.45 19.25 25.85 18.9 25.15 18.4 24.5 18.05 24.0 17.75 Q21.8 16.45 19.9 15.65 L18.1 15.0 17.45 15.55 16.3 17.0 Q15.4 18.55 15.4 20.5 15.4 23.35 17.45 25.45 19.4 27.4 22.2 27.45 L21.15 27.5 19.3 27.2 17.95 26.6 16.4 25.3 Q14.2 22.85 14.2 19.0 14.2 16.7 16.4 14.75 L17.2 14.15 Q18.55 13.15 20.05 12.9 L20.55 12.8 21.0 12.75 21.95 12.7 Q25.2 12.7 27.05 13.85 28.3 14.6 29.0 15.9 L29.45 17.0 M45.3 37.0 L45.15 37.0 44.85 36.9 44.7 36.85 44.75 36.85 45.6 37.0 45.3 37.0" fill="#7caccd" fill-rule="evenodd" stroke="none"/>
      <path d="M35.0 20.95 L35.4 20.05 35.45 20.2 35.85 21.1 35.65 22.1 35.0 20.95 M37.85 16.95 L38.1 17.15 38.65 17.75 38.55 17.75 38.15 17.9 38.1 17.95 38.05 17.95 37.9 17.75 37.55 17.5 37.35 17.45 37.85 16.95 M29.3 21.5 Q29.1 22.95 28.35 24.15 L27.05 22.25 Q27.4 21.35 27.4 20.3 L27.4 19.95 29.3 21.5 M16.3 17.0 L17.45 15.55 18.1 15.0 19.9 15.65 Q19.15 16.0 18.55 16.65 L18.15 17.1 16.65 17.0 16.3 17.0" fill="#d0a693" fill-rule="evenodd" stroke="none"/>
      <path d="M35.4 20.05 L35.75 19.45 35.95 19.15 36.0 19.15 37.05 17.75 37.35 17.45 37.55 17.5 37.9 17.75 38.05 17.95 37.9 18.05 37.85 18.1 37.25 18.45 37.05 18.65 37.05 18.7 36.35 19.65 36.25 19.85 36.15 19.8 35.9 20.0 35.85 20.4 35.85 20.6 35.9 20.7 35.9 20.85 35.85 21.1 35.45 20.2 35.4 20.05 M19.9 15.65 Q21.8 16.45 24.0 17.75 L24.5 18.05 25.15 18.4 25.85 18.9 26.45 19.25 27.4 19.95 27.4 20.3 Q27.4 21.35 27.05 22.25 L26.6 21.75 25.7 20.75 25.2 20.3 24.5 19.65 23.9 19.2 Q22.5 18.25 20.95 17.7 L20.55 16.95 Q20.2 16.6 19.65 16.6 L19.55 16.65 18.75 17.15 18.15 17.1 18.55 16.65 Q19.15 16.0 19.9 15.65" fill="#2e0404" fill-rule="evenodd" stroke="none"/>
      <path d="M18.75 17.15 Q18.5 17.5 18.5 18.0 18.5 18.65 18.8 19.05 19.1 19.45 19.6 19.45 20.3 19.45 20.7 18.9 L21.0 18.15 20.95 17.7 Q22.5 18.25 23.9 19.2 L24.5 19.65 25.2 20.3 25.7 20.75 26.6 21.75 27.05 22.25 25.9 23.95 24.95 24.75 Q24.0 25.3 22.85 25.45 L22.2 25.45 Q20.1 25.45 18.55 23.95 17.05 22.45 17.05 20.3 17.05 18.45 18.15 17.1 L18.75 17.15 M38.05 17.95 L38.1 17.95 38.85 19.3 Q39.1 20.3 38.8 21.15 38.5 22.0 37.8 22.15 L37.8 22.2 37.55 22.2 Q36.95 22.25 36.4 21.8 L35.85 21.1 35.9 20.85 35.9 20.7 36.05 20.95 Q36.25 21.2 36.55 21.1 L36.7 20.85 36.65 20.35 36.5 20.0 36.25 19.85 36.35 19.65 37.05 18.7 37.05 18.65 37.25 18.45 37.85 18.1 37.9 18.05 38.05 17.95" fill="#3c0f09" fill-rule="evenodd" stroke="none"/>
      <path d="M38.65 17.75 L39.4 19.25 Q39.75 20.6 39.35 21.7 39.0 22.65 38.3 23.0 L38.0 23.1 37.5 23.15 Q36.8 23.15 36.15 22.6 L35.65 22.1 35.85 21.1 36.4 21.8 Q36.95 22.25 37.55 22.2 L37.8 22.2 37.8 22.15 Q38.5 22.0 38.8 21.15 39.1 20.3 38.85 19.3 L38.1 17.95 38.15 17.9 38.55 17.75 38.65 17.75 M28.35 24.15 L27.3 25.45 27.05 25.7 Q25.1 27.45 22.35 27.45 L22.2 27.45 Q19.4 27.4 17.45 25.45 15.4 23.35 15.4 20.5 15.4 18.55 16.3 17.0 L16.65 17.0 18.15 17.1 Q17.05 18.45 17.05 20.3 17.05 22.45 18.55 23.95 20.1 25.45 22.2 25.45 L22.85 25.45 Q24.0 25.3 24.95 24.75 L25.9 23.95 27.05 22.25 28.35 24.15" fill="#f8ebc9" fill-rule="evenodd" stroke="none"/>
      <path d="M46.35 29.75 L46.3 29.95 44.75 30.1 44.75 30.0 Q44.85 29.5 44.1 29.5 L43.95 29.5 43.4 29.6 Q43.05 29.75 43.05 30.15 L43.1 30.35 38.15 31.5 38.25 30.75 38.25 30.45 Q38.15 28.95 36.95 27.9 35.9 27.0 34.25 26.8 L33.3 26.75 32.35 26.8 Q31.3 26.95 30.3 27.4 L30.0 27.55 29.75 27.4 29.6 27.3 27.05 25.7 27.3 25.45 28.35 24.15 Q29.1 22.95 29.3 21.5 L29.35 20.8 29.35 20.5 Q29.35 19.05 28.9 17.85 L28.5 17.05 29.45 17.0 29.55 17.35 29.8 18.9 29.85 19.75 Q29.85 21.15 29.1 22.55 L30.6 24.15 30.75 24.35 31.8 25.8 33.0 25.75 34.45 25.9 Q36.3 26.3 37.9 27.65 L38.1 27.7 38.35 27.7 39.55 27.55 39.7 27.55 40.75 27.25 41.2 26.6 41.45 26.4 41.4 26.55 41.3 27.0 41.3 27.5 Q41.3 28.85 42.85 28.9 L42.9 28.9 43.15 28.85 43.2 28.85 43.45 28.75 44.1 28.7 45.3 28.9 45.8 29.2 46.35 29.75 M30.65 34.3 L29.8 33.45 29.75 33.4 Q28.25 31.65 28.25 30.15 28.25 28.75 29.45 27.9 L29.45 27.95 29.4 28.65 Q29.4 30.1 30.2 30.9 30.85 31.6 31.95 31.6 L32.45 31.55 33.3 31.0 33.4 30.95 Q34.25 30.5 34.85 30.5 35.8 30.5 36.55 30.95 L37.2 31.4 37.5 31.7 35.8 32.25 35.8 32.15 Q35.8 31.5 34.9 31.45 L34.7 31.45 33.65 31.7 33.25 32.0 33.1 32.2 33.0 32.55 33.0 32.65 33.3 33.15 33.35 33.2 32.8 33.4 30.65 34.3 M33.7 17.8 Q34.25 18.0 34.8 18.35 34.55 19.3 34.85 20.5 L35.0 20.95 35.65 22.1 36.15 22.6 Q36.8 23.15 37.5 23.15 L38.0 23.1 38.3 23.0 38.6 23.45 38.25 23.5 38.0 23.5 37.8 23.5 36.25 23.15 35.7 22.8 34.95 22.15 Q33.6 20.75 33.55 18.9 L33.55 18.8 33.6 18.5 33.6 18.35 33.7 17.8" fill="#bd3022" fill-rule="evenodd" stroke="none"/>
      <path d="M46.4 28.75 L46.4 29.2 46.35 29.75 45.8 29.2 45.3 28.9 44.1 28.7 43.45 28.75 43.2 28.85 43.15 28.85 42.9 28.9 42.85 28.9 Q41.3 28.85 41.3 27.5 L41.3 27.0 41.4 26.55 41.45 26.4 41.9 26.15 41.95 26.1 42.15 26.05 Q42.6 25.85 43.1 25.8 L43.5 25.75 44.65 26.0 45.8 27.1 Q46.3 27.9 46.4 28.75 M38.6 23.45 Q39.95 25.45 41.2 26.6 L40.75 27.25 39.7 27.55 39.55 27.55 38.35 27.7 38.1 27.7 37.9 27.65 Q36.3 26.3 34.45 25.9 L33.0 25.75 31.8 25.8 30.75 24.35 30.6 24.15 29.1 22.55 Q29.85 21.15 29.85 19.75 L29.8 18.9 29.55 17.35 29.45 17.0 29.6 17.0 29.75 17.0 32.15 17.3 33.7 17.8 33.6 18.35 33.6 18.5 33.55 18.8 33.55 18.9 Q33.6 20.75 34.95 22.15 L35.7 22.8 36.25 23.15 37.8 23.5 38.0 23.5 38.25 23.5 38.6 23.45 M43.55 26.75 L43.8 27.2 44.0 27.35 44.25 27.4 44.7 27.35 44.8 27.1 44.45 26.65 44.35 26.6 43.9 26.5 43.85 26.5 43.6 26.55 43.55 26.55 43.55 26.75 M30.0 27.55 L30.3 27.4 Q31.3 26.95 32.35 26.8 L33.3 26.75 34.25 26.8 Q35.9 27.0 36.95 27.9 38.15 28.95 38.25 30.45 L38.25 30.75 38.15 31.5 37.5 31.7 37.2 31.4 36.55 30.95 Q35.8 30.5 34.85 30.5 34.25 30.5 33.4 30.95 L33.3 31.0 32.45 31.55 31.95 31.6 Q30.85 31.6 30.2 30.9 29.4 30.1 29.4 28.65 L29.45 27.95 29.45 27.9 30.0 27.55 M31.95 18.05 L31.5 18.05 31.3 18.0 31.0 18.1 30.85 18.35 31.05 18.75 31.35 18.9 Q31.8 19.25 32.1 19.25 32.55 19.25 32.65 19.05 L32.7 18.8 Q32.7 18.25 32.15 18.1 L31.95 18.05 M31.85 20.5 Q31.85 21.05 32.8 22.15 L34.95 24.45 35.45 25.0 35.2 23.9 34.75 22.75 Q34.05 21.1 32.9 20.05 L32.6 19.95 Q32.1 19.95 31.95 20.2 L31.85 20.5 M35.45 27.8 L34.7 27.5 34.4 27.55 34.2 27.6 34.0 27.7 33.75 27.9 33.75 27.95 33.85 28.4 34.35 28.85 35.05 29.0 35.75 28.75 35.85 28.5 Q35.85 28.1 35.45 27.8" fill="#eb4e3f" fill-rule="evenodd" stroke="none"/>
      <path d="M43.55 26.75 L43.55 26.55 43.6 26.55 43.85 26.5 43.9 26.5 44.35 26.6 44.45 26.65 44.8 27.1 44.7 27.35 44.25 27.4 44.0 27.35 43.8 27.2 43.55 26.75 M31.85 20.5 L31.95 20.2 Q32.1 19.95 32.6 19.95 L32.9 20.05 Q34.05 21.1 34.75 22.75 L35.2 23.9 35.45 25.0 34.95 24.45 32.8 22.15 Q31.85 21.05 31.85 20.5 M31.95 18.05 L32.15 18.1 Q32.7 18.25 32.7 18.8 L32.65 19.05 Q32.55 19.25 32.1 19.25 31.8 19.25 31.35 18.9 L31.05 18.75 30.85 18.35 31.0 18.1 31.3 18.0 31.5 18.05 31.95 18.05 M35.45 27.8 Q35.85 28.1 35.85 28.5 L35.75 28.75 35.05 29.0 34.35 28.85 33.85 28.4 33.75 27.95 33.75 27.9 34.0 27.7 34.2 27.6 34.4 27.55 34.7 27.5 35.45 27.8" fill="#ffb8b1" fill-rule="evenodd" stroke="none"/>
      <path d="M46.3 29.95 L47.4 29.85 49.0 29.75 49.75 29.75 49.9 29.75 50.4 30.5 Q51.15 31.95 51.15 33.95 L50.45 34.4 50.4 34.45 50.1 34.0 49.55 33.2 48.95 32.4 49.05 32.3 49.45 31.95 49.5 31.65 49.35 31.35 49.0 31.05 48.55 30.8 48.25 30.8 Q47.55 30.7 47.15 31.05 46.8 31.35 46.8 31.7 42.95 32.05 37.2 33.45 L36.2 33.65 31.55 34.95 26.6 36.65 26.75 36.25 Q28.4 35.3 30.65 34.3 L32.8 33.4 33.35 33.2 35.8 32.25 37.5 31.7 38.15 31.5 43.1 30.35 44.75 30.1 46.3 29.95" fill="#e0ff3c" fill-rule="evenodd" stroke="none"/>
      <path d="M46.8 31.7 Q46.8 31.35 47.15 31.05 47.55 30.7 48.25 30.8 L48.55 30.8 49.0 31.05 49.35 31.35 49.5 31.65 49.45 31.95 49.05 32.3 48.95 32.4 48.05 32.55 47.35 32.4 Q46.8 32.15 46.8 31.75 L46.8 31.7" fill="#f6ffc6" fill-rule="evenodd" stroke="none"/>
      <path d="M48.95 32.4 L49.55 33.2 50.1 34.0 50.4 34.45 50.3 34.5 49.1 35.15 49.0 35.2 48.9 35.2 45.25 35.35 Q41.9 35.75 38.95 36.9 L37.85 37.35 34.95 38.55 34.9 38.6 32.15 40.45 31.25 40.6 30.35 40.75 Q29.15 40.75 27.95 39.85 26.65 38.85 26.45 37.3 L26.6 36.65 31.55 34.95 36.2 33.65 37.2 33.45 Q42.95 32.05 46.8 31.7 L46.8 31.75 Q46.8 32.15 47.35 32.4 L48.05 32.55 48.95 32.4" fill="#caf222" fill-rule="evenodd" stroke="none"/>
      <path d="M26.05 37.05 L26.25 36.8 26.45 36.55 26.75 36.25 26.6 36.65 26.45 37.3 Q26.65 38.85 27.95 39.85 29.15 40.75 30.35 40.75 L31.25 40.6 32.15 40.45 34.9 38.6 34.95 38.55 37.85 37.35 38.95 36.9 Q41.9 35.75 45.25 35.35 L48.9 35.2 49.0 35.2 49.1 35.15 50.3 34.5 50.4 34.45 50.45 34.4 51.15 33.95 51.15 34.9 50.8 35.35 49.1 37.4 48.55 37.55 47.45 37.7 47.35 37.7 46.5 37.6 46.0 37.45 45.7 37.3 45.3 37.0 45.6 37.0 44.75 36.85 44.7 36.85 44.05 36.85 40.85 37.3 38.15 38.25 37.9 38.35 36.9 38.8 36.8 38.85 36.45 39.0 36.2 39.15 36.2 39.25 36.2 39.35 36.3 40.7 36.4 41.2 36.45 41.75 36.7 43.55 37.0 45.3 37.05 45.75 36.9 45.85 35.55 46.4 Q32.45 47.7 29.35 48.3 27.8 48.05 26.7 47.2 L25.65 46.2 Q24.6 44.7 24.5 42.35 L24.5 41.9 Q24.5 39.15 26.05 37.05" fill="#73a30e" fill-rule="evenodd" stroke="none"/>
      <path d="M49.1 37.4 L45.85 40.3 44.3 41.5 44.3 41.3 44.25 40.6 44.2 38.8 44.15 37.95 44.05 36.85 44.7 36.85 44.85 36.9 45.15 37.0 45.3 37.0 45.7 37.3 46.0 37.45 46.5 37.6 47.35 37.7 47.45 37.7 48.55 37.55 49.1 37.4" fill="#548e09" fill-rule="evenodd" stroke="none"/>
      <path d="M43.1 30.35 L43.05 30.15 Q43.05 29.75 43.4 29.6 L43.95 29.5 44.1 29.5 Q44.85 29.5 44.75 30.0 L44.75 30.1 43.1 30.35 M33.35 33.2 L33.3 33.15 33.0 32.65 33.0 32.55 33.1 32.2 33.25 32.0 33.65 31.7 34.7 31.45 34.9 31.45 Q35.8 31.5 35.8 32.15 L35.8 32.25 33.35 33.2" fill="#982419" fill-rule="evenodd" stroke="none"/>
      <path d="M37.55 48.65 L37.05 45.8 37.05 45.75 37.0 45.3 36.7 43.55 36.45 41.75 36.4 41.2 36.3 40.7 36.2 39.35 36.2 39.25 36.2 39.15 36.45 39.0 36.8 38.85 36.9 38.8 37.9 38.35 38.15 38.25 40.85 37.3 44.05 36.85 44.15 37.95 43.05 38.15 Q40.2 38.8 38.05 39.9 L38.15 40.8 38.55 43.75 38.75 45.2 38.9 46.05 38.9 46.15 37.95 47.8 37.55 48.65" fill="#b6998a" fill-rule="evenodd" stroke="none"/>
      <path d="M44.3 44.1 L44.3 44.35 44.3 45.6 40.65 47.45 39.2 48.1 37.55 48.75 37.55 48.65 37.95 47.8 38.9 46.15 38.95 46.05 Q41.1 45.7 44.3 44.1 M44.15 37.95 L44.2 38.8 40.8 39.75 38.15 40.8 38.05 39.9 Q40.2 38.8 43.05 38.15 L44.15 37.95" fill="#d0b8a2" fill-rule="evenodd" stroke="none"/>
      <path d="M44.3 41.5 L44.3 44.1 Q41.1 45.7 38.95 46.05 L38.9 46.15 38.9 46.05 38.75 45.2 38.55 43.75 38.15 40.8 40.8 39.75 44.2 38.8 44.25 40.6 44.3 41.3 44.3 41.5" fill="#fbecd7" fill-rule="evenodd" stroke="none"/>
      <path d="M53.8 52.5 L53.8 52.95 53.4 52.65 53.2 52.55 52.65 52.45 52.5 52.55 52.4 52.7 52.6 53.3 51.5 53.3 50.75 52.55 50.5 52.25 49.7 51.4 Q47.55 49.05 46.65 47.3 L49.9 49.75 50.8 50.4 53.8 52.5 M47.5 53.3 L45.35 53.3 Q43.45 52.3 42.4 51.4 L41.85 50.85 42.7 51.3 46.55 52.95 47.5 53.3" fill="#f3b349" fill-rule="evenodd" stroke="none"/>
      <path d="M34.1 2.95 L34.8 0.4 35.15 2.85 35.2 3.25 34.1 2.95" fill="#dee2ae" fill-rule="evenodd" stroke="none"/>
      <path d="M35.2 3.25 L35.55 8.95 35.55 9.5 35.45 11.05 35.4 11.4 34.75 11.9 34.05 12.2 Q33.15 12.2 32.5 10.95 L32.35 10.65 32.1 9.95 33.6 4.8 34.1 2.95 35.2 3.25 M34.85 9.85 L34.5 9.3 Q34.3 9.05 34.0 9.05 L33.8 9.4 33.75 9.45 Q33.45 10.0 33.45 10.45 L33.45 10.55 Q33.45 11.1 33.75 11.3 L34.1 11.4 Q34.65 11.4 34.8 10.9 L34.85 10.2 34.85 9.85 M26.75 5.05 Q26.55 6.1 26.45 8.25 L26.5 8.75 26.35 8.95 25.95 9.25 25.55 8.8 25.4 8.3 25.35 8.15 25.55 7.4 26.1 5.65 Q26.7 4.15 27.2 3.5 L27.15 3.7 26.75 5.05" fill="#f7ba54" fill-rule="evenodd" stroke="none"/>
      <path d="M53.8 52.95 L53.8 53.3 52.6 53.3 52.4 52.7 52.5 52.55 52.65 52.45 53.2 52.55 53.4 52.65 53.8 52.95 M34.85 9.85 L34.85 10.2 34.8 10.9 Q34.65 11.4 34.1 11.4 L33.75 11.3 Q33.45 11.1 33.45 10.55 L33.45 10.45 Q33.45 10.0 33.75 9.45 L33.8 9.4 34.0 9.05 Q34.3 9.05 34.5 9.3 L34.85 9.85" fill="#ffe5bb" fill-rule="evenodd" stroke="none"/>
      <path d="M26.3 16.45 L26.3 16.15 26.45 16.0 26.65 16.15 Q27.35 16.65 27.5 17.15 L27.5 17.2 27.55 17.4 27.55 17.45 27.45 17.75 27.15 17.8 26.6 17.35 26.55 17.3 26.4 17.0 26.3 16.45 M18.2 27.7 L18.6 27.8 18.9 27.9 Q19.6 28.2 19.6 28.7 L19.45 29.05 18.5 29.35 17.7 29.2 17.5 29.1 17.3 28.95 16.9 28.3 Q16.9 28.05 17.15 27.9 L17.75 27.75 17.95 27.7 18.2 27.7" fill="#e0f2ff" fill-rule="evenodd" stroke="none"/>
      <path d="M20.95 17.7 L21.0 18.15 20.7 18.9 Q20.3 19.45 19.6 19.45 19.1 19.45 18.8 19.05 18.5 18.65 18.5 18.0 18.5 17.5 18.75 17.15 L19.55 16.65 19.65 16.6 Q20.2 16.6 20.55 16.95 L20.95 17.7 M36.25 19.85 L36.5 20.0 36.65 20.35 36.7 20.85 36.55 21.1 Q36.25 21.2 36.05 20.95 L35.9 20.7 35.85 20.6 35.85 20.4 35.9 20.0 36.15 19.8 36.25 19.85" fill="#ffffff" fill-rule="evenodd" stroke="none"/>
      <path d="M16.6 53.3 L7.25 53.3 6.05 53.3 0.3 53.3 0.3 52.05 3.2 52.55 6.05 53.3 4.9 51.85 2.85 49.25 2.65 48.95 2.6 48.3 2.45 47.5 2.35 46.6 2.25 45.7 2.0 45.65 1.0 42.7 0.3 42.6 0.3 40.85 1.45 41.15 1.75 41.25 1.85 40.95 2.15 41.8 2.35 42.2 Q2.4 41.25 5.1 40.5 L6.95 40.1 7.35 41.6 7.2 43.8 7.15 45.95 7.15 46.35 7.15 46.45 7.15 46.65 7.25 53.3 7.15 46.65 7.15 46.45 7.15 46.35 7.15 45.95 7.2 43.8 7.35 41.6 Q7.75 43.0 8.65 44.6 L10.6 47.55 13.45 50.65 16.6 53.3 M0.3 50.85 L0.3 50.75 0.35 50.85 0.3 50.85 M29.75 27.4 L30.0 27.55 29.45 27.9 29.75 27.4 M18.2 27.7 L17.95 27.7 17.75 27.75 17.75 27.7 18.2 27.7" fill="#5d6b67" fill-rule="evenodd" stroke="none"/>
      <path d="M13.9 12.35 Q12.85 13.05 11.9 14.05 L11.45 14.6 Q8.65 17.95 8.65 22.6 8.65 28.35 11.9 32.25 L12.9 33.35 13.7 34.05 14.65 34.7 Q15.35 35.15 16.15 35.45 17.9 36.15 19.95 36.15 L23.0 35.2 23.2 35.45 23.45 36.55 23.4 36.95 20.3 37.3 15.55 36.7 Q14.8 37.35 14.55 38.4 L14.55 38.45 14.5 39.2 14.05 38.35 13.3 37.0 12.75 36.2 12.1 35.25 Q8.4 33.15 7.2 29.35 L6.75 27.35 6.6 25.85 6.55 25.25 Q6.55 21.65 7.6 18.7 L7.8 18.2 Q8.8 15.5 10.7 13.4 L11.8 12.3 12.7 11.55 13.1 11.55 Q13.9 11.55 13.9 12.3 L13.9 12.35 M10.95 32.95 L11.15 32.75 Q11.15 31.9 10.25 31.05 L9.35 30.4 Q9.0 30.4 8.95 30.55 L8.9 30.65 Q8.9 31.85 9.75 32.6 10.35 33.1 10.7 33.1 L10.95 32.95 M15.4 37.9 L17.05 37.75 17.2 38.3 17.25 38.35 17.5 39.1 18.05 40.4 18.15 40.6 18.3 40.95 17.95 40.75 17.35 40.3 Q16.1 39.35 15.55 38.3 L15.4 37.9" fill="#eeb14c" fill-rule="evenodd" stroke="none"/>
      <path d="M0.3 30.2 L0.3 26.5 0.45 26.4 1.5 25.6 Q3.1 24.35 3.1 23.6 3.1 23.2 2.45 23.0 L1.55 22.8 1.65 21.9 Q1.65 20.25 1.2 19.05 L1.15 18.95 Q2.7 17.05 4.2 15.95 L5.05 16.8 5.45 18.0 5.55 18.65 5.55 18.85 Q5.55 20.4 4.8 21.45 L4.6 21.7 4.6 21.75 4.8 22.0 Q5.25 22.55 5.25 23.8 5.25 25.65 4.2 27.1 L3.35 27.95 2.3 28.9 2.05 29.85 1.8 30.95 0.3 30.2" fill="#4e7b9b" fill-rule="evenodd" stroke="none"/>
      <path d="M0.3 40.85 L0.3 30.2 1.8 30.95 Q1.25 33.5 1.25 36.45 1.25 39.1 1.85 40.95 L1.75 41.25 1.45 41.15 0.3 40.85 M0.3 20.1 L0.3 13.55 2.25 12.45 Q1.2 14.35 0.95 16.15 L3.15 15.75 4.2 15.95 Q2.7 17.05 1.15 18.95 L0.8 19.4 0.3 20.1" fill="#964615" fill-rule="evenodd" stroke="none"/>
      <path d="M0.3 26.5 L0.3 20.1 0.8 19.4 1.15 18.95 1.2 19.05 Q1.65 20.25 1.65 21.9 L1.55 22.8 2.45 23.0 Q3.1 23.2 3.1 23.6 3.1 24.35 1.5 25.6 L0.45 26.4 0.3 26.5" fill="#85bbe0" fill-rule="evenodd" stroke="none"/>
      <path d="M10.95 32.95 L10.7 33.1 Q10.35 33.1 9.75 32.6 8.9 31.85 8.9 30.65 L8.95 30.55 Q9.0 30.4 9.35 30.4 L10.25 31.05 Q11.15 31.9 11.15 32.75 L10.95 32.95" fill="#ffd48e" fill-rule="evenodd" stroke="none"/>
      <path d="M25.95 35.65 L26.0 36.5 25.25 36.65 25.95 35.65" fill="#c47325" fill-rule="evenodd" stroke="none"/>
      <path d="M0.3 52.05 L0.3 50.85 0.35 50.85 0.3 50.75 0.3 42.6 1.0 42.7 2.0 45.65 2.25 45.7 2.35 46.6 2.45 47.5 2.6 48.3 2.65 48.95 2.85 49.25 4.9 51.85 6.05 53.3 3.2 52.55 0.3 52.05" fill="#818c88" fill-rule="evenodd" stroke="none"/>
      <path d="M17.75 27.75 L17.15 27.9 17.75 27.7 17.75 27.75" fill="#485b58" fill-rule="evenodd" stroke="none"/>
      <path d="M44.75 15.3 L44.95 15.45 44.65 15.45 42.8 15.65 42.05 15.9 41.6 16.15 41.7 16.55 42.1 17.65 Q43.6 21.4 48.25 24.55 L49.75 25.5 51.6 26.5 53.5 27.3 53.8 27.4 M0.3 13.55 L2.25 12.45 2.45 12.05 Q4.55 8.2 9.4 3.75 L12.35 1.3 14.05 0.05 M37.5 0.05 L37.45 1.15 38.4 0.95 38.4 1.85 Q38.5 3.7 38.95 5.45 39.45 7.6 40.45 9.6 41.25 11.25 42.35 12.65 L44.45 15.0 44.75 15.3 M37.4 1.15 L37.45 1.15 M36.25 19.85 L36.5 20.0 36.65 20.35 36.7 20.85 36.55 21.1 Q36.25 21.2 36.05 20.95 L35.9 20.7 35.85 20.6 35.85 20.4 35.9 20.0 36.15 19.8 36.25 19.85 M1.8 30.95 L2.05 29.85 2.3 28.9 3.35 27.95 4.2 27.1 Q5.25 25.65 5.25 23.8 5.25 22.55 4.8 22.0 L4.6 21.75 4.6 21.7 4.8 21.45 Q5.55 20.4 5.55 18.85 L5.55 18.65 5.45 18.0 5.05 16.8 4.2 15.95 Q2.7 17.05 1.15 18.95 L0.8 19.4 0.3 20.1 M4.2 15.95 L3.15 15.75 0.95 16.15 Q1.2 14.35 2.25 12.45 M1.85 40.95 Q1.25 39.1 1.25 36.45 1.25 33.5 1.8 30.95 L0.3 30.2 M7.35 41.6 L6.95 40.1 5.1 40.5 Q2.4 41.25 2.35 42.2 L2.15 41.8 1.85 40.95 1.75 41.25 1.45 41.15 0.3 40.85 M7.35 41.6 L7.2 43.8 7.15 45.95 7.15 46.35 7.15 46.45 7.15 46.65 7.25 53.3 M16.6 53.3 L13.45 50.65 10.6 47.55 8.65 44.6 Q7.75 43.0 7.35 41.6" fill="none" stroke="#430c0c" stroke-linecap="round" stroke-linejoin="round" stroke-width="1.0"/>
    </g>
    <g id="shape2" transform="matrix(1.0, 0.0, 0.0, 1.0, 0.0, 0.0)">
      <path d="M50.5 0.0 Q53.95 0.0 53.95 3.3 L53.95 50.15 Q53.95 53.4 50.5 53.4 L3.3 53.4 Q0.0 53.4 0.0 50.15 L0.0 3.3 Q0.0 0.0 3.3 0.0 L50.5 0.0" fill="#000000" fill-opacity="0.003921569" fill-rule="evenodd" stroke="none"/>
    </g>
  </defs>
</svg>
