<?xml version="1.0" encoding="UTF-8" standalone="no"?>
<svg xmlns:ffdec="https://www.free-decompiler.com/flash" xmlns:xlink="http://www.w3.org/1999/xlink" ffdec:objectType="frame" height="56.85px" width="58.7px" xmlns="http://www.w3.org/2000/svg">
  <g transform="matrix(1.0, 0.0, 0.0, 1.0, 2.6, 1.1)">
    <clipPath id="clipPath0" transform="matrix(1.0, 0.0, 0.0, 1.0, 0.0, 0.0)">
      <path d="M50.5 0.0 Q53.95 0.0 53.95 3.3 L53.95 50.15 Q53.95 53.4 50.5 53.4 L3.3 53.4 Q0.0 53.4 0.0 50.15 L0.0 3.3 Q0.0 0.0 3.3 0.0 L50.5 0.0" fill="#000000" fill-rule="evenodd" stroke="none"/>
    </clipPath>
    <g clip-path="url(#clipPath0)">
      <use ffdec:characterId="2" height="56.85" transform="matrix(1.0, 0.0, 0.0, 1.0, -2.6, -1.1)" width="58.7" xlink:href="#shape1"/>
    </g>
    <use ffdec:characterId="3" height="53.4" transform="matrix(1.0, 0.0, 0.0, 1.0, 0.0, 0.0)" width="53.95" xlink:href="#shape2"/>
  </g>
  <defs>
    <g id="shape1" transform="matrix(1.0, 0.0, 0.0, 1.0, 2.6, 1.1)">
      <path d="M29.95 34.3 L29.1 34.85 29.0 34.85 28.55 34.75 28.35 34.6 28.0 33.85 28.0 33.7 28.1 33.2 29.95 34.3" fill="#ffffff" fill-rule="evenodd" stroke="none"/>
      <path d="M9.7 -0.45 L8.4 -0.1 8.05 0.05 7.9 -0.6 9.7 -0.6 9.7 -0.45 M0.2 55.25 L-1.5 55.25 -0.8 53.95 -0.75 53.85 0.75 53.75 0.2 55.25" fill="#ba98d5" fill-rule="evenodd" stroke="none"/>
      <path d="M7.9 -0.6 L8.05 0.05 7.9 0.1 6.9 0.5 6.8 0.45 6.05 -0.15 5.4 -0.6 7.9 -0.6 M1.2 55.25 L0.2 55.25 0.75 53.75 0.8 53.75 1.15 53.75 1.95 53.85 1.25 54.85 1.2 55.25" fill="#9c70c5" fill-rule="evenodd" stroke="none"/>
      <path d="M9.7 -0.45 L9.7 -0.6 11.15 -0.6 11.15 -0.5 11.25 0.55 Q11.65 2.55 12.35 4.3 L13.35 6.55 13.65 6.6 14.25 6.55 14.35 8.15 13.25 8.65 12.6 7.65 11.75 6.25 11.15 4.9 10.7 3.75 10.7 3.65 Q9.95 1.5 9.7 -0.45 M13.55 -0.6 L14.95 2.95 16.4 5.95 16.15 5.9 15.1 5.75 14.45 4.25 14.15 3.4 Q13.3 1.1 12.9 -0.6 L13.55 -0.6 M16.55 5.95 L18.8 4.85 18.15 1.45 17.75 -0.6 18.55 -0.6 18.6 -0.2 18.8 1.15 19.3 4.6 20.55 3.75 22.3 2.55 20.85 4.35 20.5 4.8 19.45 6.3 19.05 6.4 18.7 6.55 16.55 5.95 M22.55 -0.6 L23.6 -0.6 23.5 1.15 22.6 2.15 22.55 -0.45 22.55 -0.6 M30.5 49.5 L31.55 50.85 Q30.85 51.65 30.25 52.85 L29.3 55.25 25.95 55.25 26.55 54.7 26.8 54.45 26.7 54.25 Q26.3 53.6 26.3 52.7 26.3 50.55 27.8 49.75 28.55 49.35 29.45 49.35 L30.5 49.5 M13.25 55.25 L9.45 55.25 10.4 54.5 9.65 53.65 Q8.1 51.95 6.6 50.8 L5.2 51.8 4.05 52.9 Q3.1 53.95 2.75 55.25 L1.2 55.25 1.25 54.85 1.95 53.85 3.05 52.4 3.2 52.2 5.35 49.95 5.75 49.65 6.65 49.95 Q8.4 50.6 10.0 51.7 L13.25 55.25 M-2.1 49.3 L-2.1 47.95 Q-0.8 47.45 0.7 47.45 L1.15 47.45 1.3 47.5 1.15 48.4 1.0 49.05 -0.1 49.1 -2.1 49.3 M-1.95 14.25 L-1.1 14.1 -0.95 14.7 -0.85 15.1 1.25 14.1 0.75 13.3 0.85 13.25 1.5 14.0 Q3.2 13.05 4.7 11.85 L4.0 9.8 4.55 8.8 4.9 10.6 5.1 11.55 5.8 10.9 7.2 9.55 6.75 7.3 6.35 6.35 5.8 5.35 5.95 4.6 6.45 5.6 7.15 7.1 7.8 8.9 9.4 7.25 9.15 6.7 8.9 6.1 Q7.65 3.45 6.2 2.25 L6.2 1.65 6.2 0.9 6.9 0.5 Q8.25 1.9 9.85 5.0 L10.1 5.45 10.25 5.85 11.4 9.1 10.2 9.65 Q7.3 10.85 4.55 12.8 L1.35 15.1 0.85 15.5 0.2 16.0 -0.05 16.2 -0.85 16.8 -1.2 16.15 -1.25 16.05 -1.6 15.25 -1.95 14.25" fill="#8dc94f" fill-rule="evenodd" stroke="none"/>
      <path d="M8.05 0.05 L8.4 -0.1 9.7 -0.45 Q9.95 1.5 10.7 3.65 L10.7 3.75 Q10.15 3.55 9.15 2.15 L8.05 0.05 M55.6 37.4 L55.6 39.5 52.65 42.2 50.35 43.7 Q46.65 45.8 42.15 46.85 L42.55 45.75 Q46.25 44.9 49.6 42.75 L51.5 41.4 Q54.0 39.55 55.6 37.4 M-2.1 45.0 L-2.1 43.8 -2.0 43.75 -1.9 43.75 0.05 43.2 0.85 43.7 -0.75 44.6 -1.2 44.75 -2.1 45.0 M-2.1 19.05 L-2.1 17.85 -0.85 16.8 -0.05 16.2 0.2 16.0 0.85 15.5 1.35 15.1 4.55 12.8 Q7.3 10.85 10.2 9.65 L11.45 9.2 12.2 8.95 12.25 9.1 Q12.55 9.55 12.65 10.3 L12.75 11.6 Q12.75 13.9 10.2 17.05 8.8 18.75 7.2 19.75 5.75 20.6 4.15 21.0 L3.7 20.65 2.95 20.5 2.65 20.45 Q1.75 20.45 1.15 20.8 L0.65 21.3 -0.65 20.9 -1.15 20.1 -2.0 19.15 -2.1 19.05 M-2.1 16.3 L-2.1 13.75 -1.95 14.25 -1.6 15.25 -1.25 16.05 Q-1.5 16.35 -1.85 16.35 L-2.1 16.3 M3.25 18.55 Q3.25 19.6 3.85 19.6 L4.0 19.6 4.45 19.0 4.6 18.25 4.45 17.8 4.35 17.7 3.95 17.5 Q3.8 17.5 3.35 17.9 L3.35 17.95 3.25 18.55 M4.1 48.45 L2.45 50.7 2.1 51.3 0.75 53.75 -0.75 53.85 0.05 52.0 0.75 50.0 1.0 49.05 1.15 48.4 1.3 47.5 Q2.8 47.6 4.1 48.45 M29.95 46.15 L31.3 47.5 29.75 47.2 28.75 46.95 28.45 46.85 28.35 46.85 27.25 46.25 29.25 46.0 29.3 46.0 29.95 46.15" fill="#8ec5ee" fill-rule="evenodd" stroke="none"/>
      <path d="M13.55 -0.6 L17.75 -0.6 18.15 1.45 18.8 4.85 16.55 5.95 16.4 5.95 14.95 2.95 13.55 -0.6 M18.55 -0.6 L22.55 -0.6 22.55 -0.45 22.6 2.15 22.3 2.55 20.55 3.75 19.3 4.6 18.8 1.15 18.6 -0.2 18.55 -0.6 M9.45 55.25 L2.75 55.25 Q3.1 53.95 4.05 52.9 L5.2 51.8 6.6 50.8 Q8.1 51.95 9.65 53.65 L10.4 54.5 9.45 55.25 M-1.5 55.25 L-1.95 55.25 -2.1 54.55 -2.1 49.3 -0.1 49.1 1.0 49.05 0.75 50.0 0.05 52.0 -0.75 53.85 -0.8 53.95 -1.5 55.25 M-1.1 14.1 Q-0.15 13.85 0.75 13.3 L1.25 14.1 -0.85 15.1 -0.95 14.7 -1.1 14.1 M0.85 13.25 Q2.3 12.3 3.55 10.45 L4.0 9.8 4.7 11.85 Q3.2 13.05 1.5 14.0 L0.85 13.25 M4.55 8.8 L4.75 8.4 5.8 5.35 6.35 6.35 6.75 7.3 7.2 9.55 5.8 10.9 5.1 11.55 4.9 10.6 4.55 8.8 M5.95 4.6 L6.2 2.25 Q7.65 3.45 8.9 6.1 L9.15 6.7 9.4 7.25 7.8 8.9 7.15 7.1 6.45 5.6 5.95 4.6 M11.15 -0.6 L12.9 -0.6 Q13.3 1.1 14.15 3.4 L14.45 4.25 15.1 5.75 15.0 5.75 14.35 5.8 14.25 6.35 14.25 6.55 13.65 6.6 13.35 6.55 12.35 4.3 Q11.65 2.55 11.25 0.55 L11.15 -0.5 11.15 -0.6" fill="#c2e773" fill-rule="evenodd" stroke="none"/>
      <path d="M8.05 0.05 L9.15 2.15 Q10.15 3.55 10.7 3.75 L11.15 4.9 11.75 6.25 12.6 7.65 13.25 8.65 14.4 8.4 14.45 9.05 14.75 10.95 14.95 11.85 15.2 12.6 14.95 11.85 14.75 10.95 15.2 11.1 15.2 11.7 15.2 12.6 15.35 13.05 15.4 13.1 15.35 13.1 15.25 13.25 14.7 14.4 14.35 15.2 13.85 16.35 13.2 17.85 12.7 18.05 12.6 18.1 10.55 19.2 9.95 19.5 9.55 19.7 9.1 19.95 Q7.2 21.05 6.4 21.75 L7.8 23.3 8.5 23.8 9.95 24.55 11.2 24.95 9.95 24.55 10.5 24.2 11.5 24.9 11.75 25.05 11.2 24.95 11.05 25.8 10.9 26.65 10.7 28.65 9.7 28.35 Q6.6 27.35 3.35 25.85 L2.45 25.4 0.55 24.45 0.5 24.05 Q0.15 22.35 -0.65 20.9 L0.65 21.3 1.15 20.8 Q1.75 20.45 2.65 20.45 L2.95 20.5 3.7 20.65 4.15 21.0 Q5.75 20.6 7.2 19.75 8.8 18.75 10.2 17.05 12.75 13.9 12.75 11.6 L12.65 10.3 Q12.55 9.55 12.25 9.1 L12.2 8.95 13.25 8.65 12.2 8.95 11.45 9.2 11.4 9.1 10.25 5.85 10.1 5.45 9.85 5.0 Q8.25 1.9 6.9 0.5 L7.9 0.1 8.05 0.05 M23.6 -0.6 L25.15 -0.6 24.5 0.05 24.1 0.45 23.5 1.15 23.6 -0.6 M-2.1 17.85 L-2.1 16.3 -1.85 16.35 Q-1.5 16.35 -1.25 16.05 L-1.2 16.15 -0.85 16.8 -2.1 17.85 M33.45 25.2 L33.45 25.3 33.4 25.25 33.45 25.2 M40.45 41.5 L40.55 41.55 40.45 41.55 40.45 41.5 M42.85 43.05 L43.1 42.6 44.15 40.5 43.55 42.95 43.45 43.2 43.35 43.45 43.3 43.75 43.15 44.0 42.1 44.3 42.85 43.05 M31.95 39.8 L31.75 39.55 31.95 39.6 31.95 39.8 M20.35 8.85 L20.35 8.1 20.55 8.55 20.6 9.25 20.3 10.2 20.35 8.85 M3.25 18.55 L3.35 17.95 3.35 17.9 Q3.8 17.5 3.95 17.5 L4.35 17.7 4.45 17.8 4.6 18.25 4.45 19.0 4.0 19.6 3.85 19.6 Q3.25 19.6 3.25 18.55 M15.35 13.05 L15.35 13.1 15.35 13.05 M4.1 48.45 L4.45 48.7 4.5 48.75 5.25 49.4 5.35 49.5 5.75 49.65 5.35 49.95 3.2 52.2 3.05 52.4 1.95 53.85 1.15 53.75 0.8 53.75 0.75 53.75 2.1 51.3 2.45 50.7 4.1 48.45" fill="#5f9dbe" fill-rule="evenodd" stroke="none"/>
      <path d="M16.4 5.95 L16.55 5.95 18.7 6.55 18.75 6.55 18.8 6.6 18.3 6.7 17.65 6.85 16.1 7.35 16.15 7.45 16.55 8.05 15.5 7.95 15.35 7.95 15.3 8.25 15.2 9.1 15.2 11.1 14.75 10.95 14.45 9.05 14.4 8.4 14.35 8.15 14.25 6.55 14.25 6.35 14.35 5.8 15.0 5.75 15.1 5.75 16.15 5.9 16.4 5.95 M50.9 22.15 L51.1 21.3 Q51.8 20.8 53.45 20.8 L55.6 21.25 55.6 22.85 54.5 22.3 53.05 21.85 Q52.3 22.05 51.7 22.55 50.7 23.4 50.6 24.4 L49.65 25.0 49.4 25.15 49.55 25.7 49.85 27.3 50.1 28.6 49.1 26.95 48.45 26.0 48.15 25.55 48.1 25.55 48.7 24.15 48.8 24.1 49.1 24.0 50.2 23.2 50.9 22.15 M-2.1 20.9 L-2.1 19.85 -1.5 21.55 -2.1 20.9 M42.85 16.5 L40.85 14.35 Q38.85 12.35 37.45 11.55 L37.95 14.4 38.2 15.55 38.6 17.1 38.65 17.4 38.85 18.0 38.15 18.4 37.6 16.85 36.8 15.0 36.6 14.5 Q35.35 11.8 34.5 11.0 33.95 11.25 33.25 11.65 32.05 12.35 30.4 13.55 27.35 15.65 26.75 16.6 L26.45 15.55 28.3 13.8 32.05 10.85 35.65 8.3 Q39.2 10.8 42.85 16.5 M40.65 21.8 L40.1 21.6 39.65 21.75 39.55 22.15 Q39.55 23.35 40.3 23.35 40.95 23.35 41.05 22.75 L41.05 22.55 40.7 21.85 40.65 21.8 M46.9 27.7 L44.8 26.1 43.05 25.0 41.85 24.4 41.8 24.7 41.8 25.05 41.6 29.1 41.8 33.75 41.85 34.4 42.2 36.85 42.85 40.85 Q41.6 41.5 40.55 41.55 L40.45 41.5 40.8 40.75 Q41.4 39.0 41.4 35.6 L41.4 34.45 41.4 33.7 Q41.2 28.9 39.95 25.5 39.35 23.75 38.65 22.75 37.5 23.15 35.45 24.5 L33.4 25.95 33.45 25.3 33.45 25.2 33.6 25.0 34.2 24.4 Q37.15 21.5 39.85 19.85 L39.95 19.95 41.85 21.9 42.7 22.85 42.8 22.95 45.05 25.4 46.9 27.7 M35.45 9.4 Q35.15 9.95 35.15 10.25 35.15 11.1 35.95 11.0 L36.4 10.9 36.6 10.45 Q36.6 9.95 36.1 9.65 L35.95 9.6 35.45 9.4 M9.95 24.55 L8.5 23.8 7.8 23.3 6.4 21.75 Q7.2 21.05 9.1 19.95 L9.55 19.7 9.95 19.5 10.55 19.2 10.05 20.6 9.95 20.8 8.6 21.75 10.7 21.7 11.0 21.65 10.75 21.8 10.5 21.95 9.25 22.85 Q9.55 23.5 10.5 24.2 L9.95 24.55 M15.25 6.8 L15.15 7.2 15.25 7.5 15.45 7.6 Q15.85 7.6 15.8 7.15 L15.8 6.7 15.55 6.65 15.4 6.7 15.35 6.7 15.25 6.8 M8.4 21.7 L8.35 21.7 8.0 21.55 7.95 21.7 7.8 22.05 Q7.8 22.5 8.05 22.6 L8.25 22.6 Q8.55 22.6 8.55 22.1 L8.4 21.7" fill="#b1ffcd" fill-rule="evenodd" stroke="none"/>
      <path d="M29.9 -0.6 L37.9 -0.6 38.15 0.15 37.6 0.9 36.3 2.0 35.85 2.05 Q33.75 2.05 31.4 0.9 L30.75 0.55 30.05 0.2 29.9 -0.6 M38.4 1.75 L39.15 2.7 40.0 3.8 41.15 5.4 Q42.1 5.45 44.05 6.05 45.5 6.5 46.4 6.95 L46.3 7.4 43.85 7.9 42.85 7.85 44.6 10.85 44.7 11.0 44.75 12.05 44.4 14.55 43.65 14.3 42.9 13.95 39.4 9.45 Q37.25 7.3 35.5 6.5 L35.2 6.35 Q33.45 6.95 30.9 8.75 L29.65 9.65 Q27.35 11.35 25.5 13.35 L24.3 14.6 22.65 16.5 22.1 15.9 20.6 14.1 20.55 13.65 20.5 13.15 20.5 12.85 21.8 11.45 21.85 11.25 22.1 9.6 21.95 8.05 21.45 6.45 21.3 6.15 21.1 5.75 20.75 5.1 20.5 4.8 20.85 4.35 22.3 2.55 22.6 2.15 23.5 1.15 24.1 0.45 24.5 0.05 24.5 0.5 Q24.6 1.75 25.3 2.8 L26.1 3.75 26.2 3.85 26.85 4.35 Q28.25 5.25 30.1 5.25 32.7 5.25 35.15 4.15 L37.15 3.0 38.4 1.75 M47.4 16.25 L48.3 16.45 50.7 17.15 49.95 17.6 48.3 18.3 47.4 16.25 M49.45 20.95 L49.7 21.1 50.25 21.55 49.75 22.2 49.3 22.7 49.65 21.75 49.4 21.0 49.45 20.95 M55.6 22.85 L55.6 25.45 Q54.7 24.45 53.8 24.0 L52.75 23.65 53.4 24.2 54.7 25.7 55.25 26.5 55.6 27.2 55.6 31.3 55.45 31.35 Q53.35 31.95 51.1 33.6 49.3 34.95 48.3 36.45 47.3 37.9 47.15 39.55 L46.5 39.85 44.95 40.25 44.2 40.3 44.4 39.8 44.2 39.95 43.1 40.7 42.85 40.85 42.2 36.85 41.85 34.4 41.8 33.75 41.6 29.1 41.8 25.05 41.8 24.7 41.85 24.4 43.05 25.0 44.8 26.1 46.9 27.7 47.0 28.25 47.0 28.35 46.75 31.6 46.3 33.85 46.25 34.05 45.7 36.1 44.4 39.8 45.7 36.1 46.25 34.05 46.3 33.85 46.75 31.6 47.5 30.1 48.1 28.75 48.4 28.0 47.1 25.65 46.3 24.5 45.25 23.15 43.95 21.7 Q41.55 19.1 39.3 17.75 L39.15 17.85 39.1 17.85 38.85 18.0 38.65 17.4 38.6 17.1 38.2 15.55 37.95 14.4 37.45 11.55 Q38.85 12.35 40.85 14.35 L42.85 16.5 43.45 17.5 43.5 17.55 45.85 21.6 47.25 24.45 47.75 25.6 47.9 26.05 48.1 25.55 48.15 25.55 48.45 26.0 49.1 26.95 50.1 28.6 49.85 27.3 49.55 25.7 49.4 25.15 49.65 25.0 50.6 24.4 Q50.7 23.4 51.7 22.55 52.3 22.05 53.05 21.85 L54.5 22.3 55.6 22.85 M-2.1 24.8 L-2.1 20.9 -1.5 21.55 -2.1 19.85 -2.1 19.05 -2.0 19.15 -1.15 20.1 -0.65 20.9 Q0.15 22.35 0.5 24.05 L0.55 24.45 0.65 26.05 0.6 27.0 0.0 27.1 -1.2 26.8 Q-1.45 25.8 -2.1 24.8 M41.15 5.4 L42.85 7.85 41.15 5.4 M26.75 16.6 Q27.35 15.65 30.4 13.55 32.05 12.35 33.25 11.65 33.95 11.25 34.5 11.0 35.35 11.8 36.6 14.5 L36.8 15.0 37.6 16.85 38.15 18.4 Q36.45 19.45 33.75 21.85 L31.65 23.9 Q30.2 22.5 28.65 20.3 L27.5 18.45 26.85 17.0 26.75 16.6 M47.9 26.05 L48.55 27.65 48.4 28.0 48.55 27.65 47.9 26.05 M33.4 25.95 L35.45 24.5 Q37.5 23.15 38.65 22.75 39.35 23.75 39.95 25.5 41.2 28.9 41.4 33.7 L41.4 34.45 41.4 35.6 Q41.4 39.0 40.8 40.75 L40.45 41.5 36.5 35.2 36.0 34.4 34.55 31.9 34.45 31.75 33.8 30.6 33.4 26.55 33.4 25.95 M19.4 6.75 L20.05 7.4 20.35 7.95 20.35 8.1 20.35 8.85 18.7 10.3 Q17.1 11.15 16.05 11.15 L15.2 11.1 15.2 9.1 15.3 8.25 15.35 7.95 15.5 7.95 16.55 8.05 16.15 7.45 16.1 7.35 17.65 6.85 18.3 6.7 18.8 6.6 18.85 6.6 19.15 6.7 19.4 6.75 M10.55 19.2 L12.6 18.1 Q13.4 19.05 13.4 20.1 13.4 20.8 13.05 21.5 L11.85 23.15 11.5 23.45 10.5 24.2 Q9.55 23.5 9.25 22.85 L10.5 21.95 10.75 21.8 11.0 21.65 10.7 21.7 8.6 21.75 9.95 20.8 10.05 20.6 10.55 19.2" fill="#8df9b4" fill-rule="evenodd" stroke="none"/>
      <path d="M25.15 -0.6 L26.65 -0.6 29.9 -0.6 30.05 0.2 30.75 0.55 31.4 0.9 Q33.75 2.05 35.85 2.05 L36.3 2.0 37.6 0.9 38.4 1.75 37.15 3.0 35.15 4.15 Q32.7 5.25 30.1 5.25 28.25 5.25 26.85 4.35 L26.2 3.85 26.1 3.75 25.3 2.8 Q24.6 1.75 24.5 0.5 L24.5 0.05 25.15 -0.6 M46.3 7.4 L45.55 9.7 44.85 11.25 47.1 15.65 46.65 17.3 46.3 18.3 44.25 17.8 43.5 17.55 43.45 17.5 42.85 16.5 Q39.2 10.8 35.65 8.3 L32.05 10.85 28.3 13.8 26.45 15.55 26.75 16.6 26.85 17.0 27.5 18.45 28.65 20.3 Q30.2 22.5 31.65 23.9 L33.75 21.85 Q36.45 19.45 38.15 18.4 L38.85 18.0 39.1 17.85 39.15 17.85 39.3 17.75 Q41.55 19.1 43.95 21.7 L45.25 23.15 46.3 24.5 47.1 25.65 48.4 28.0 48.1 28.75 47.5 30.1 46.75 31.6 47.0 28.35 47.0 28.25 46.9 27.7 45.05 25.4 42.8 22.95 42.7 22.85 41.85 21.9 39.95 19.95 39.85 19.85 Q37.15 21.5 34.2 24.4 L33.6 25.0 Q31.8 25.9 28.65 26.8 L27.75 27.05 26.05 27.5 Q25.05 26.3 23.85 23.9 22.65 21.5 22.35 20.25 L22.25 19.5 19.1 20.3 17.7 19.2 15.85 17.55 14.35 15.2 14.7 14.4 16.3 14.65 Q18.2 14.65 19.95 13.3 L20.35 13.85 20.6 14.1 22.1 15.9 22.65 16.5 24.3 14.6 25.5 13.35 Q27.35 11.35 29.65 9.65 L30.9 8.75 Q33.45 6.95 35.2 6.35 L35.5 6.5 Q37.25 7.3 39.4 9.45 L42.9 13.95 43.65 14.3 44.4 14.55 44.75 12.05 44.7 11.0 44.6 10.85 42.85 7.85 43.85 7.9 46.3 7.4 M50.7 17.15 L49.9 19.7 49.45 20.95 49.4 21.0 49.35 20.85 48.3 18.3 49.95 17.6 50.7 17.15 M50.25 21.55 L50.65 21.9 50.9 22.15 50.2 23.2 49.1 24.0 48.8 24.1 48.7 24.15 49.3 22.7 49.75 22.2 50.25 21.55 M55.6 25.45 L55.6 27.2 55.25 26.5 54.7 25.7 53.4 24.2 52.75 23.65 53.8 24.0 Q54.7 24.45 55.6 25.45 M55.6 31.3 L55.6 32.65 55.0 32.8 Q53.45 33.3 51.8 34.4 L50.5 35.5 Q48.3 37.6 48.3 40.5 L48.35 41.85 48.35 42.05 Q48.1 42.25 48.0 42.35 L46.85 42.9 44.75 43.25 43.8 43.25 43.45 43.2 43.55 42.95 44.15 40.5 43.1 42.6 42.85 43.05 39.4 42.55 36.5 41.75 Q34.3 37.6 32.45 32.65 L32.25 32.0 30.95 28.15 Q31.95 26.75 33.4 25.25 L33.45 25.3 33.4 25.95 33.4 26.55 33.8 30.6 34.45 31.75 34.55 31.9 36.0 34.4 36.5 35.2 40.45 41.5 40.45 41.55 40.55 41.55 Q41.6 41.5 42.85 40.85 L43.1 40.7 44.2 39.95 44.4 39.8 44.2 40.3 44.95 40.25 46.5 39.85 47.15 39.55 Q47.3 37.9 48.3 36.45 49.3 34.95 51.1 33.6 53.35 31.95 55.45 31.35 L55.6 31.3 M-2.1 30.2 L-2.1 24.8 Q-1.45 25.8 -1.2 26.8 L0.0 27.1 0.6 27.0 0.55 27.6 Q0.3 28.9 -0.35 30.1 L-0.55 30.45 -2.05 30.2 -2.1 30.2 M44.85 11.25 L44.7 11.0 44.85 11.25 M44.2 40.3 L44.15 40.5 44.2 40.3 M26.65 -0.6 L26.3 0.75 26.3 0.85 27.0 1.95 27.1 2.1 28.0 2.9 Q29.55 4.2 31.45 4.2 32.8 4.2 35.3 2.65 L35.45 2.55 36.3 2.0 35.45 2.55 35.3 2.65 Q32.8 4.2 31.45 4.2 29.55 4.2 28.0 2.9 L27.1 2.1 27.0 1.95 26.3 0.85 26.3 0.75 26.65 -0.6 M20.5 4.8 L20.75 5.1 21.1 5.75 21.3 6.15 21.45 6.45 21.95 8.05 22.1 9.6 21.85 11.25 21.8 11.45 20.5 12.85 20.3 10.2 20.6 9.25 20.55 8.55 20.35 8.1 20.35 7.95 20.05 7.4 19.4 6.75 19.2 6.65 19.3 6.45 19.45 6.3 20.5 4.8 M26.45 15.55 L24.35 17.7 23.0 19.35 22.35 20.25 23.0 19.35 24.35 17.7 26.45 15.55 M15.2 11.1 L16.05 11.15 Q17.1 11.15 18.7 10.3 L20.35 8.85 20.3 10.2 19.4 11.45 Q17.9 13.15 15.9 13.15 L15.4 13.1 15.35 13.05 15.2 12.6 15.2 11.7 15.2 11.1 M12.6 18.1 L12.7 18.05 13.1 18.2 14.1 19.05 Q14.85 20.2 14.85 21.5 14.85 23.3 13.5 24.65 L13.4 24.8 13.1 25.05 12.5 25.05 11.75 25.05 11.5 24.9 10.5 24.2 11.5 23.45 11.85 23.15 13.05 21.5 Q13.4 20.8 13.4 20.1 13.4 19.05 12.6 18.1 M17.55 37.55 L18.6 36.25 19.05 35.7 20.2 34.5 21.0 34.4 21.35 34.45 Q22.55 34.55 23.25 35.6 L23.5 36.05 Q23.95 37.05 24.0 38.15 L21.75 38.4 21.6 38.4 20.4 38.55 19.3 38.6 16.4 38.85 17.25 37.85 17.55 37.55 M24.55 46.0 L24.9 44.35 25.45 42.75 25.55 42.45 25.65 42.2 25.7 42.2 25.95 42.1 26.75 42.0 Q28.1 42.0 29.15 43.1 L29.6 43.75 26.75 45.0 26.4 45.2 25.45 45.6 24.55 46.0" fill="#5be2b1" fill-rule="evenodd" stroke="none"/>
      <path d="M40.65 21.8 L40.7 21.85 41.05 22.55 41.05 22.75 Q40.95 23.35 40.3 23.35 39.55 23.35 39.55 22.15 L39.65 21.75 40.1 21.6 40.65 21.8 M35.45 9.4 L35.95 9.6 36.1 9.65 Q36.6 9.95 36.6 10.45 L36.4 10.9 35.95 11.0 Q35.15 11.1 35.15 10.25 35.15 9.95 35.45 9.4 M15.25 6.8 L15.35 6.7 15.4 6.7 15.55 6.65 15.8 6.7 15.8 7.15 Q15.85 7.6 15.45 7.6 L15.25 7.5 15.15 7.2 15.25 6.8 M8.4 21.7 L8.55 22.1 Q8.55 22.6 8.25 22.6 L8.05 22.6 Q7.8 22.5 7.8 22.05 L7.95 21.7 8.0 21.55 8.35 21.7 8.4 21.7" fill="#e7fff0" fill-rule="evenodd" stroke="none"/>
      <path d="M55.6 39.5 L55.6 42.65 Q53.95 44.4 52.05 45.7 L51.45 46.05 Q46.8 49.05 41.0 50.25 L41.6 48.4 42.05 47.1 42.15 46.85 Q46.65 45.8 50.35 43.7 L52.65 42.2 55.6 39.5 M34.3 50.85 L33.8 50.8 32.65 50.8 32.5 50.9 31.75 50.05 Q31.2 49.65 30.5 49.5 L29.45 49.35 Q28.55 49.35 27.8 49.75 26.3 50.55 26.3 52.7 26.3 53.6 26.7 54.25 L26.8 54.45 26.55 54.7 25.95 55.25 23.3 55.25 23.6 54.25 23.8 53.7 24.55 50.75 25.15 47.7 25.3 46.8 25.35 46.5 27.25 46.25 28.35 46.85 28.45 46.85 28.75 46.95 29.75 47.2 31.3 47.5 32.65 48.95 34.3 50.85 M16.0 55.25 L13.25 55.25 10.0 51.7 9.95 51.6 9.4 51.2 Q8.4 50.45 7.15 49.95 6.45 49.65 5.9 49.5 L5.25 49.4 5.9 49.5 Q6.45 49.65 7.15 49.95 8.4 50.45 9.4 51.2 L9.95 51.6 10.0 51.7 Q8.4 50.6 6.65 49.95 L5.75 49.65 5.35 49.5 5.25 49.4 4.5 48.75 4.45 48.7 4.1 48.45 Q2.8 47.6 1.3 47.5 L1.15 47.45 0.7 47.45 Q-0.8 47.45 -2.1 47.95 L-2.1 45.0 -1.2 44.75 -0.75 44.6 0.85 43.7 0.05 43.2 2.25 42.35 3.15 43.35 3.3 43.55 6.4 46.5 10.3 50.05 15.8 54.95 16.0 55.25" fill="#539dd4" fill-rule="evenodd" stroke="none"/>
      <path d="M47.1 15.65 L47.4 16.25 48.3 18.3 49.35 20.85 49.4 21.0 49.65 21.75 49.3 22.7 48.7 24.15 48.1 25.55 47.9 26.05 47.75 25.6 47.25 24.45 45.85 21.6 43.5 17.55 44.25 17.8 46.3 18.3 46.65 17.3 47.1 15.65 M33.6 25.0 L33.45 25.2 33.4 25.25 Q31.95 26.75 30.95 28.15 L32.25 32.0 32.45 32.65 Q34.3 37.6 36.5 41.75 L39.4 42.55 42.85 43.05 42.1 44.3 41.5 45.2 37.7 44.05 Q34.7 42.85 31.85 41.25 L31.95 40.0 31.95 39.8 31.95 39.6 31.8 37.6 31.3 35.3 29.95 34.3 28.1 33.2 27.2 32.7 27.15 32.7 26.8 32.5 25.9 32.1 25.15 31.85 24.8 31.7 24.55 31.75 21.1 32.1 20.0 32.2 16.7 32.9 13.25 30.5 10.65 28.7 10.7 28.65 10.9 26.65 11.65 26.7 Q12.8 26.7 14.0 26.0 L14.45 25.75 14.85 25.45 Q16.85 23.95 16.85 21.55 16.85 19.8 15.6 18.05 14.7 16.8 13.85 16.35 L14.35 15.2 15.85 17.55 17.7 19.2 19.1 20.3 22.25 19.5 22.35 20.25 Q22.65 21.5 23.85 23.9 25.05 26.3 26.05 27.5 L27.75 27.05 28.65 26.8 Q31.8 25.9 33.6 25.0 M24.8 31.7 L23.65 31.4 20.85 30.9 20.8 30.9 20.65 30.15 20.65 30.1 20.65 29.9 20.55 29.35 20.15 25.4 20.3 23.65 Q21.1 21.95 22.35 20.25 21.1 21.95 20.3 23.65 L20.15 25.4 20.55 29.35 20.65 29.9 20.65 30.1 20.65 30.15 20.8 30.9 20.85 30.9 23.65 31.4 24.8 31.7 M24.5 46.5 L24.55 46.0 25.45 45.6 26.4 45.2 26.75 45.0 29.6 43.75 29.95 44.45 30.05 45.15 29.85 45.8 29.85 45.95 29.7 45.95 29.25 46.0 27.25 46.25 25.35 46.5 24.7 46.55 24.5 46.6 24.5 46.5 M22.75 40.55 L19.45 40.1 15.85 39.6 16.4 38.85 19.3 38.6 20.4 38.55 21.6 38.4 21.75 38.4 24.0 38.15 24.0 38.25 23.65 39.8 23.65 39.85 23.25 40.6 22.85 40.55 22.75 40.55 M30.95 28.15 L30.65 28.6 Q30.05 29.45 29.7 30.25 L29.55 30.5 29.45 30.75 Q30.2 31.9 30.8 33.65 L31.3 35.3 30.8 33.65 Q30.2 31.9 29.45 30.75 L29.55 30.5 29.7 30.25 Q30.05 29.45 30.65 28.6 L30.95 28.15" fill="#3ac6a3" fill-rule="evenodd" stroke="none"/>
      <path d="M55.6 32.65 L55.6 37.4 Q54.0 39.55 51.5 41.4 L49.6 42.75 Q46.25 44.9 42.55 45.75 L42.95 44.55 Q44.8 44.0 46.3 43.25 L46.85 42.9 48.0 42.35 Q48.1 42.25 48.35 42.05 L48.35 41.85 48.65 41.55 50.55 40.0 50.25 39.45 Q50.35 38.95 50.75 38.4 51.3 37.6 52.1 37.55 L53.1 37.75 53.65 38.25 54.5 37.15 Q55.05 36.2 55.0 35.4 L54.75 34.6 52.15 35.45 51.2 35.35 50.9 35.35 50.5 35.5 51.8 34.4 Q53.45 33.3 55.0 32.8 L55.6 32.65 M41.0 50.25 L40.95 50.3 38.9 50.9 36.4 51.4 34.85 51.55 34.3 50.85 32.65 48.95 31.3 47.5 29.95 46.15 29.8 46.05 29.85 45.95 29.8 46.05 29.95 46.15 29.3 46.0 29.25 46.0 29.7 45.95 29.8 46.05 29.7 45.95 29.85 45.95 29.85 45.8 30.05 45.15 29.95 44.45 29.6 43.75 29.15 43.1 Q28.1 42.0 26.75 42.0 L25.95 42.1 25.7 42.2 25.65 42.2 25.35 42.35 23.15 40.75 23.25 40.6 23.65 39.85 23.65 39.8 24.0 38.25 24.0 38.15 Q23.95 37.05 23.5 36.05 L23.25 35.6 Q22.55 34.55 21.35 34.45 L21.2 32.6 21.9 32.5 Q22.35 32.5 23.8 33.15 L24.4 33.45 24.85 33.65 26.0 37.35 26.1 37.85 26.2 38.15 26.4 39.0 28.45 39.6 31.05 40.2 31.4 40.25 31.75 42.75 31.75 42.8 32.15 44.7 Q32.75 45.25 33.85 45.7 L35.95 46.3 36.4 46.45 41.1 47.1 42.05 47.1 41.6 48.4 41.0 50.25 M23.3 55.25 L21.85 55.25 Q22.35 53.35 22.35 52.0 L22.35 51.15 23.0 52.1 23.8 53.7 23.6 54.25 23.3 55.25 M18.3 55.25 L17.15 55.25 17.35 54.85 16.8 54.35 Q16.25 53.75 16.25 52.15 L16.3 51.8 16.3 51.55 17.8 53.95 18.3 55.25 M-2.1 43.8 L-2.1 34.0 -2.05 34.2 Q-1.1 38.5 2.25 42.35 L0.05 43.2 -1.9 43.75 -2.0 43.75 -2.1 43.8 M43.45 43.2 L43.8 43.25 43.85 43.3 43.3 43.75 43.35 43.45 43.45 43.2 M11.25 31.65 L11.9 32.15 Q15.35 34.8 17.55 37.55 L17.25 37.85 16.4 38.85 15.85 39.6 19.45 40.1 22.75 40.55 23.05 40.95 Q24.15 42.35 25.45 42.75 L24.9 44.35 24.55 46.0 24.5 46.5 24.1 46.35 22.25 45.75 22.25 45.85 22.15 45.75 21.65 44.85 20.75 43.7 21.15 42.85 21.15 42.5 20.9 41.6 20.35 41.0 20.3 40.9 Q19.6 40.4 18.85 40.4 L18.7 40.4 18.7 40.55 Q18.2 40.55 17.85 41.05 L17.7 41.15 17.55 41.4 15.6 41.25 13.15 41.05 14.25 38.7 14.8 37.7 Q14.0 36.6 12.6 35.95 11.0 35.2 9.45 35.2 L7.85 35.45 7.15 35.7 6.4 36.15 6.0 36.45 4.65 35.95 4.5 35.9 4.85 35.15 6.25 33.3 Q7.1 32.35 8.15 31.65 L9.2 31.45 11.25 31.65 M6.4 46.5 L7.4 44.05 7.5 43.85 8.0 44.1 Q9.4 44.95 10.6 45.2 10.75 46.35 11.8 47.45 L12.85 48.3 12.35 48.65 10.3 50.05 6.4 46.5 M25.3 46.8 L24.7 46.55 25.35 46.5 25.3 46.8" fill="#d6c2a9" fill-rule="evenodd" stroke="none"/>
      <path d="M21.85 55.25 L18.3 55.25 17.8 53.95 16.3 51.55 16.6 50.4 Q16.9 49.45 17.25 48.95 L16.45 48.0 15.35 46.8 14.85 47.1 13.85 47.7 12.85 48.3 11.8 47.45 Q10.75 46.35 10.6 45.2 9.4 44.95 8.0 44.1 L7.5 43.85 9.3 40.35 10.5 38.55 Q9.4 37.9 7.75 37.2 L6.0 36.45 6.4 36.15 7.15 35.7 7.85 35.45 9.45 35.2 Q11.0 35.2 12.6 35.95 14.0 36.6 14.8 37.7 L14.25 38.7 13.15 41.05 15.6 41.25 17.55 41.4 Q17.05 42.1 17.05 43.0 17.05 43.6 17.35 44.0 L17.85 44.35 18.75 44.55 Q19.8 44.55 20.55 43.95 L20.6 43.85 20.75 43.7 21.65 44.85 22.15 45.75 21.3 45.55 20.6 46.65 20.5 46.8 19.65 48.15 20.6 48.65 21.85 49.25 22.75 49.65 22.5 50.4 22.35 50.8 22.35 51.15 22.35 52.0 Q22.35 53.35 21.85 55.25 M50.5 35.5 L50.9 35.35 51.2 35.35 52.15 35.45 54.75 34.6 55.0 35.4 Q55.05 36.2 54.5 37.15 L53.65 38.25 53.1 37.75 52.1 37.55 Q51.3 37.6 50.75 38.4 50.35 38.95 50.25 39.45 L50.55 40.0 48.65 41.55 48.35 41.85 48.3 40.5 Q48.3 37.6 50.5 35.5 M46.85 42.9 L46.3 43.25 Q44.8 44.0 42.95 44.55 L43.15 44.0 43.3 43.75 43.85 43.3 43.8 43.25 44.75 43.25 46.85 42.9" fill="#e7dccd" fill-rule="evenodd" stroke="none"/>
      <path d="M-2.1 34.0 L-2.1 30.2 -2.05 30.2 -0.55 30.45 -0.35 30.1 Q0.3 28.9 0.55 27.6 5.35 27.7 10.5 31.15 L11.25 31.65 9.2 31.45 8.15 31.65 Q7.1 32.35 6.25 33.3 L4.85 35.15 4.5 35.9 Q0.75 34.6 -2.05 34.2 L-2.1 34.0 M42.95 44.55 L42.55 45.75 42.15 46.85 42.05 47.1 41.1 47.1 36.4 46.45 35.95 46.3 33.85 45.7 Q32.75 45.25 32.15 44.7 L31.75 42.8 31.75 42.75 31.4 40.25 31.05 40.2 28.45 39.6 26.4 39.0 26.2 38.15 26.1 37.85 26.0 37.35 24.85 33.65 24.4 33.45 23.8 33.15 Q22.35 32.5 21.9 32.5 L21.2 32.6 21.1 32.1 24.55 31.75 24.8 31.7 25.15 31.85 25.9 32.1 25.85 32.6 26.1 34.35 26.35 35.85 26.45 36.3 Q27.1 37.35 29.45 38.55 L30.45 39.0 31.75 39.55 31.95 39.8 31.95 40.0 31.85 41.25 Q34.7 42.85 37.7 44.05 L41.5 45.2 42.1 44.3 43.15 44.0 42.95 44.55 M25.45 42.75 Q24.15 42.35 23.05 40.95 L22.75 40.55 22.85 40.55 23.15 40.75 22.85 40.55 23.25 40.6 23.15 40.75 25.35 42.35 25.55 42.45 25.35 42.35 25.65 42.2 25.55 42.45 25.45 42.75" fill="#bf9e77" fill-rule="evenodd" stroke="none"/>
      <path d="M20.5 12.85 L20.5 13.15 20.55 13.65 20.6 14.1 20.35 13.85 19.95 13.3 Q18.2 14.65 16.3 14.65 L14.7 14.4 15.25 13.25 15.35 13.1 15.4 13.1 15.9 13.15 Q17.9 13.15 19.4 11.45 L20.3 10.2 20.5 12.85" fill="#47c6ad" fill-rule="evenodd" stroke="none"/>
      <path d="M10.9 26.65 L11.05 25.8 11.2 24.95 11.75 25.05 12.5 25.05 13.1 25.05 13.4 24.8 13.5 24.65 Q14.85 23.3 14.85 21.5 14.85 20.2 14.1 19.05 L13.1 18.2 12.7 18.05 13.2 17.85 13.85 16.35 Q14.7 16.8 15.6 18.05 16.85 19.8 16.85 21.55 16.85 23.95 14.85 25.45 L14.45 25.75 14.0 26.0 Q12.8 26.7 11.65 26.7 L10.9 26.65" fill="#26afa3" fill-rule="evenodd" stroke="none"/>
      <path d="M21.1 32.1 L21.2 32.6 21.35 34.45 21.0 34.4 20.2 34.5 19.05 35.7 18.6 36.25 17.55 37.55 Q15.35 34.8 11.9 32.15 L11.25 31.65 10.5 31.15 Q5.35 27.7 0.55 27.6 L0.6 27.0 0.65 26.05 0.55 24.45 2.45 25.4 3.35 25.85 Q6.6 27.35 9.7 28.35 L10.7 28.65 10.65 28.7 13.25 30.5 16.7 32.9 20.0 32.2 21.1 32.1" fill="#4983b6" fill-rule="evenodd" stroke="none"/>
      <path d="M17.15 55.25 L16.0 55.25 15.8 54.95 10.3 50.05 12.35 48.65 12.85 48.3 13.6 48.95 14.65 49.9 15.95 51.15 16.3 51.55 16.3 51.8 16.25 52.15 Q16.25 53.75 16.8 54.35 L17.35 54.85 17.15 55.25 M4.5 35.9 L4.65 35.95 6.0 36.45 Q4.9 37.55 4.9 39.15 4.9 40.1 5.2 41.0 5.75 42.7 7.5 43.85 L7.4 44.05 6.4 46.5 3.3 43.55 3.2 41.95 3.2 41.35 Q3.2 38.5 4.5 35.9 M22.25 45.85 L22.25 45.75 24.1 46.35 24.5 46.5 24.5 46.6 24.7 46.55 25.3 46.8 25.15 47.7 24.55 50.75 23.8 53.7 23.0 52.1 22.35 51.15 22.35 50.8 22.5 50.4 22.75 49.65 22.85 48.75 22.6 47.1 22.55 47.05 22.2 46.2 22.2 46.05 22.25 45.85" fill="#deb527" fill-rule="evenodd" stroke="none"/>
      <path d="M4.5 35.9 Q3.2 38.5 3.2 41.35 L3.2 41.95 3.3 43.55 3.15 43.35 2.25 42.35 Q-1.1 38.5 -2.05 34.2 0.75 34.6 4.5 35.9" fill="#a6791f" fill-rule="evenodd" stroke="none"/>
      <path d="M17.55 41.4 L17.7 41.15 17.85 41.05 Q18.2 40.55 18.7 40.55 L18.7 40.4 18.85 40.4 Q19.6 40.4 20.3 40.9 L20.35 41.0 20.9 41.6 21.15 42.5 21.15 42.85 20.75 43.7 20.6 43.85 20.55 43.95 Q19.8 44.55 18.75 44.55 L17.85 44.35 17.35 44.0 Q17.05 43.6 17.05 43.0 17.05 42.1 17.55 41.4 M22.15 45.75 L22.25 45.85 22.2 46.05 22.2 46.2 22.55 47.05 22.6 47.1 22.85 48.75 22.75 49.65 21.85 49.25 20.6 48.65 19.65 48.15 20.5 46.8 20.6 46.65 21.3 45.55 22.15 45.75 M7.5 43.85 Q5.75 42.7 5.2 41.0 4.9 40.1 4.9 39.15 4.9 37.55 6.0 36.45 L7.75 37.2 Q9.4 37.9 10.5 38.55 L9.3 40.35 7.5 43.85 M12.85 48.3 L13.85 47.7 14.85 47.1 15.35 46.8 16.45 48.0 17.25 48.95 Q16.9 49.45 16.6 50.4 L16.3 51.55 15.95 51.15 14.65 49.9 13.6 48.95 12.85 48.3" fill="#edd267" fill-rule="evenodd" stroke="none"/>
      <path d="M28.1 33.2 L28.0 33.7 28.0 33.85 28.35 34.6 28.55 34.75 29.0 34.85 29.1 34.85 29.95 34.3 31.3 35.3 31.8 37.6 31.45 37.65 30.1 37.35 29.3 36.9 29.2 36.8 Q27.45 35.45 27.2 32.7 L28.1 33.2" fill="#7a3a30" fill-rule="evenodd" stroke="none"/>
      <path d="M31.75 39.55 L30.45 39.0 29.45 38.55 Q27.1 37.35 26.45 36.3 L26.35 35.85 26.1 34.35 25.85 32.6 25.9 32.1 26.8 32.5 27.15 32.7 27.2 32.7 Q27.45 35.45 29.2 36.8 L29.3 36.9 30.1 37.35 31.45 37.65 31.8 37.6 31.95 39.6 31.75 39.55" fill="#ead06f" fill-rule="evenodd" stroke="none"/>
      <path d="M9.7 -0.45 L9.7 -0.6 M10.7 3.75 L10.7 3.65 Q9.95 1.5 9.7 -0.45 M5.4 -0.6 L6.05 -0.15 6.8 0.45 6.9 0.5 Q8.25 1.9 9.85 5.0 L10.1 5.45 10.25 5.85 11.4 9.1 11.45 9.2 12.2 8.95 13.25 8.65 14.35 8.15 14.25 6.55 14.25 6.35 14.35 5.8 15.0 5.75 15.1 5.75 16.15 5.9 16.4 5.95 16.55 5.95 18.7 6.55 19.05 6.4 19.45 6.3 20.5 4.8 20.85 4.35 22.3 2.55 22.6 2.15 23.5 1.15 23.6 -0.6 M37.9 -0.6 L38.15 0.15 37.6 0.9 38.4 1.75 39.15 2.7 40.0 3.8 41.15 5.4 Q42.1 5.45 44.05 6.05 45.5 6.5 46.4 6.95 L46.3 7.4 45.55 9.7 44.85 11.25 47.1 15.65 47.4 16.25 48.3 16.45 50.7 17.15 49.9 19.7 49.45 20.95 49.7 21.1 50.25 21.55 50.65 21.9 50.9 22.15 51.1 21.3 Q51.8 20.8 53.45 20.8 L55.6 21.25 M55.6 42.65 Q53.95 44.4 52.05 45.7 L51.45 46.05 Q46.8 49.05 41.0 50.25 L40.95 50.3 38.9 50.9 36.4 51.4 34.85 51.55 34.3 50.85 33.8 50.8 32.65 50.8 32.5 50.9 31.75 50.05 Q31.2 49.65 30.5 49.5 L31.55 50.85 Q30.85 51.65 30.25 52.85 L29.3 55.25 M-1.95 55.25 L-2.1 54.55 M-2.1 13.75 L-1.95 14.25 -1.1 14.1 Q-0.15 13.85 0.75 13.3 L0.85 13.25 Q2.3 12.3 3.55 10.45 L4.0 9.8 4.55 8.8 4.75 8.4 5.8 5.35 5.95 4.6 6.2 2.25 6.2 1.65 6.2 0.9 6.05 -0.15 M44.7 11.0 L44.6 10.85 42.85 7.85 41.15 5.4 M44.7 11.0 L44.85 11.25 M48.3 18.3 L47.4 16.25 M42.85 16.5 L43.45 17.5 43.5 17.55 45.85 21.6 47.25 24.45 47.75 25.6 47.9 26.05 48.1 25.55 48.7 24.15 49.3 22.7 49.65 21.75 49.4 21.0 49.35 20.85 48.3 18.3 M42.85 16.5 Q39.2 10.8 35.65 8.3 L32.05 10.85 28.3 13.8 26.45 15.55 24.35 17.7 23.0 19.35 22.35 20.25 Q21.1 21.95 20.3 23.65 L20.15 25.4 20.55 29.35 20.65 29.9 20.65 30.1 20.65 30.15 20.8 30.9 20.85 30.9 23.65 31.4 24.8 31.7 24.55 31.75 21.1 32.1 21.2 32.6 21.35 34.45 21.0 34.4 20.2 34.5 19.05 35.7 18.6 36.25 17.55 37.55 Q15.35 34.8 11.9 32.15 L11.25 31.65 10.5 31.15 Q5.35 27.7 0.55 27.6 0.3 28.9 -0.35 30.1 L-0.55 30.45 -2.05 30.2 -2.1 30.2 M48.4 28.0 L48.55 27.65 47.9 26.05 M46.9 27.7 L45.05 25.4 42.8 22.95 42.7 22.85 41.85 21.9 39.95 19.95 39.85 19.85 Q37.15 21.5 34.2 24.4 L33.6 25.0 33.45 25.2 33.4 25.25 Q31.95 26.75 30.95 28.15 L30.65 28.6 Q30.05 29.45 29.7 30.25 L29.55 30.5 29.45 30.75 Q30.2 31.9 30.8 33.65 L31.3 35.3 29.95 34.3 28.1 33.2 27.2 32.7 27.15 32.7 26.8 32.5 25.9 32.1 25.15 31.85 24.8 31.7 M44.4 39.8 L45.7 36.1 46.25 34.05 46.3 33.85 46.75 31.6 47.0 28.35 47.0 28.25 46.9 27.7 M49.45 20.95 L49.4 21.0 M48.7 24.15 L48.8 24.1 49.1 24.0 50.2 23.2 50.9 22.15 M55.6 32.65 L55.0 32.8 Q53.45 33.3 51.8 34.4 L50.5 35.5 Q48.3 37.6 48.3 40.5 L48.35 41.85 48.35 42.05 Q48.1 42.25 48.0 42.35 L46.85 42.9 44.75 43.25 43.8 43.25 43.45 43.2 43.35 43.45 43.3 43.75 43.15 44.0 42.95 44.55 42.55 45.75 Q46.25 44.9 49.6 42.75 L51.5 41.4 Q54.0 39.55 55.6 37.4 M46.75 31.6 L47.5 30.1 48.1 28.75 48.4 28.0 M44.15 40.5 L44.2 40.3 44.4 39.8 M42.85 43.05 L43.1 42.6 44.15 40.5 43.55 42.95 43.45 43.2 M42.1 44.3 L41.5 45.2 37.7 44.05 Q34.7 42.85 31.85 41.25 L31.95 40.0 31.95 39.8 31.95 39.6 31.75 39.55 30.45 39.0 29.45 38.55 Q27.1 37.35 26.45 36.3 L26.35 35.85 26.1 34.35 25.85 32.6 25.9 32.1 M42.05 47.1 L42.15 46.85 42.55 45.75 M42.05 47.1 L41.6 48.4 41.0 50.25 M42.85 43.05 L42.1 44.3 M37.6 0.9 L36.3 2.0 35.45 2.55 35.3 2.65 Q32.8 4.2 31.45 4.2 29.55 4.2 28.0 2.9 L27.1 2.1 27.0 1.95 26.3 0.85 26.3 0.75 26.65 -0.6 M23.5 1.15 L24.1 0.45 24.5 0.05 25.15 -0.6 M14.7 14.4 L14.35 15.2 13.85 16.35 13.2 17.85 12.7 18.05 13.1 18.2 14.1 19.05 Q14.85 20.2 14.85 21.5 14.85 23.3 13.5 24.65 L13.4 24.8 13.1 25.05 12.5 25.05 11.75 25.05 11.2 24.95 9.95 24.55 8.5 23.8 7.8 23.3 6.4 21.75 Q7.2 21.05 9.1 19.95 L9.55 19.7 9.95 19.5 10.55 19.2 12.6 18.1 12.7 18.05 M20.35 8.1 L20.35 7.95 20.05 7.4 19.4 6.75 19.15 6.7 18.85 6.6 18.8 6.6 18.75 6.55 18.85 6.55 19.2 6.65 19.15 6.7 M20.35 8.1 L20.55 8.55 20.6 9.25 20.3 10.2 19.4 11.45 Q17.9 13.15 15.9 13.15 L15.4 13.1 15.35 13.1 15.25 13.25 14.7 14.4 M10.7 3.75 L11.15 4.9 11.75 6.25 12.6 7.65 13.25 8.65 14.4 8.4 14.35 8.15 M14.75 10.95 L14.45 9.05 14.4 8.4 M-0.65 20.9 Q0.15 22.35 0.5 24.05 L0.55 24.45 0.65 26.05 0.6 27.0 0.55 27.6 M10.7 28.65 L10.9 26.65 11.05 25.8 11.2 24.95 M15.2 12.6 L14.95 11.85 14.75 10.95 M15.2 12.6 L15.35 13.05 15.4 13.1 M10.2 9.65 L11.4 9.1 M11.45 9.2 L10.2 9.65 Q7.3 10.85 4.55 12.8 L1.35 15.1 0.85 15.5 0.2 16.0 -0.05 16.2 -0.85 16.8 -2.1 17.85 M19.4 6.75 L19.2 6.65 19.3 6.45 19.45 6.3 M18.7 6.55 L18.75 6.55 M15.35 13.1 L15.35 13.05 M10.7 28.65 L10.65 28.7 13.25 30.5 16.7 32.9 20.0 32.2 21.1 32.1 M24.5 46.5 L24.55 46.0 24.9 44.35 25.45 42.75 25.55 42.45 25.35 42.35 23.15 40.75 22.85 40.55 22.75 40.55 19.45 40.1 15.85 39.6 16.4 38.85 17.25 37.85 17.55 37.55 M-2.05 34.2 Q-1.1 38.5 2.25 42.35 L3.15 43.35 3.3 43.55 6.4 46.5 10.3 50.05 15.8 54.95 16.0 55.25 M0.05 43.2 L2.25 42.35 M5.25 49.4 L4.5 48.75 4.45 48.7 4.1 48.45 Q2.8 47.6 1.3 47.5 L1.15 48.4 1.0 49.05 0.75 50.0 0.05 52.0 -0.75 53.85 -0.8 53.95 -1.5 55.25 M1.95 53.85 L3.05 52.4 3.2 52.2 5.35 49.95 5.75 49.65 M5.25 49.4 L5.9 49.5 Q6.45 49.65 7.15 49.95 8.4 50.45 9.4 51.2 L9.95 51.6 10.0 51.7 13.25 55.25 M1.3 47.5 L1.15 47.45 0.7 47.45 Q-0.8 47.45 -2.1 47.95 M0.05 43.2 L-1.9 43.75 -2.0 43.75 -2.1 43.8 M24.0 38.15 Q23.95 37.05 23.5 36.05 L23.25 35.6 Q22.55 34.55 21.35 34.45 M31.8 37.6 L31.3 35.3 M25.65 42.2 L25.7 42.2 25.95 42.1 26.75 42.0 Q28.1 42.0 29.15 43.1 L29.6 43.75 29.95 44.45 30.05 45.15 29.85 45.8 29.85 45.95 29.8 46.05 29.95 46.15 31.3 47.5 32.65 48.95 34.3 50.85 M25.65 42.2 L25.55 42.45 M25.35 42.35 L25.65 42.2 M24.0 38.15 L24.0 38.25 23.65 39.8 23.65 39.85 23.25 40.6 23.15 40.75 M22.85 40.55 L23.25 40.6 M23.8 53.7 L24.55 50.75 25.15 47.7 25.3 46.8 25.35 46.5 24.7 46.55 24.5 46.6 24.5 46.5 M29.7 45.95 L29.25 46.0 29.3 46.0 29.95 46.15 M29.8 46.05 L29.7 45.95 29.85 45.95 M27.25 46.25 L25.35 46.5 M29.25 46.0 L27.25 46.25 M31.95 39.6 L31.8 37.6 M25.95 55.25 L26.55 54.7 26.8 54.45 26.7 54.25 Q26.3 53.6 26.3 52.7 26.3 50.55 27.8 49.75 28.55 49.35 29.45 49.35 L30.5 49.5 M23.8 53.7 L23.6 54.25 23.3 55.25 M1.95 53.85 L1.25 54.85 1.2 55.25 M-1.95 14.25 L-1.6 15.25 -1.25 16.05 -1.2 16.15 -0.85 16.8 M-2.1 19.05 L-2.0 19.15 -1.15 20.1 -0.65 20.9" fill="none" stroke="#551918" stroke-linecap="round" stroke-linejoin="round" stroke-width="1.0"/>
    </g>
    <g id="shape2" transform="matrix(1.0, 0.0, 0.0, 1.0, 0.0, 0.0)">
      <path d="M50.5 0.0 Q53.95 0.0 53.95 3.3 L53.95 50.15 Q53.95 53.4 50.5 53.4 L3.3 53.4 Q0.0 53.4 0.0 50.15 L0.0 3.3 Q0.0 0.0 3.3 0.0 L50.5 0.0" fill="#000000" fill-opacity="0.003921569" fill-rule="evenodd" stroke="none"/>
    </g>
  </defs>
</svg>
