<?xml version="1.0" encoding="UTF-8" standalone="no"?>
<svg xmlns:ffdec="https://www.free-decompiler.com/flash" xmlns:xlink="http://www.w3.org/1999/xlink" ffdec:objectType="frame" height="56.4px" width="56.35px" xmlns="http://www.w3.org/2000/svg">
  <g transform="matrix(1.0, 0.0, 0.0, 1.0, 1.25, 1.8)">
    <clipPath id="clipPath0" transform="matrix(1.0, 0.0, 0.0, 1.0, 0.0, 0.0)">
      <path d="M50.5 0.0 Q53.95 0.0 53.95 3.3 L53.95 50.15 Q53.95 53.4 50.5 53.4 L3.3 53.4 Q0.0 53.4 0.0 50.15 L0.0 3.3 Q0.0 0.0 3.3 0.0 L50.5 0.0" fill="#000000" fill-rule="evenodd" stroke="none"/>
    </clipPath>
    <g clip-path="url(#clipPath0)">
      <use ffdec:characterId="2" height="56.4" transform="matrix(1.0, 0.0, 0.0, 1.0, -1.25, -1.8)" width="56.35" xlink:href="#shape1"/>
    </g>
    <use ffdec:characterId="3" height="53.4" transform="matrix(1.0, 0.0, 0.0, 1.0, 0.0, 0.0)" width="53.95" xlink:href="#shape2"/>
  </g>
  <defs>
    <g id="shape1" transform="matrix(1.0, 0.0, 0.0, 1.0, 1.25, 1.8)">
      <path d="M0.65 -1.3 L0.65 -1.05 Q0.65 0.1 1.4 1.3 L1.0 1.8 0.75 2.15 0.7 2.25 0.25 2.8 -0.15 3.45 -0.75 4.35 -0.75 -1.3 0.65 -1.3" fill="#53e0e7" fill-rule="evenodd" stroke="none"/>
      <path d="M0.65 -1.3 L3.5 -1.3 1.9 0.6 1.4 1.3 Q0.65 0.1 0.65 -1.05 L0.65 -1.3" fill="#4beaee" fill-rule="evenodd" stroke="none"/>
      <path d="M5.2 -1.3 L6.45 -1.3 5.35 -0.3 4.95 -1.1 5.2 -1.3" fill="#6fe4dc" fill-rule="evenodd" stroke="none"/>
      <path d="M1.9 0.6 L3.5 -1.3 5.2 -1.3 4.95 -1.1 3.25 0.8 2.8 1.3 2.55 1.05 1.9 0.6" fill="#9cffff" fill-rule="evenodd" stroke="none"/>
      <path d="M6.45 -1.3 L15.65 -1.3 15.85 -0.85 16.8 1.15 Q12.5 -0.1 9.0 -0.1 L4.7 0.35 5.35 -0.3 6.45 -1.3" fill="#45e1f0" fill-rule="evenodd" stroke="none"/>
      <path d="M-0.75 8.35 L-0.75 8.3 Q-0.25 8.0 -0.1 7.15 -0.1 6.7 -0.45 6.3 L-0.55 6.2 -0.05 5.4 1.1 3.55 1.25 3.35 1.95 2.45 2.1 2.2 2.75 1.35 2.8 1.3 3.25 0.8 4.95 -1.1 5.35 -0.3 4.7 0.35 3.3 1.8 1.7 3.7 Q0.4 5.4 0.15 6.55 L0.2 6.8 Q0.2 7.4 -0.45 8.05 L-0.75 8.35" fill="#4dd1dd" fill-rule="evenodd" stroke="none"/>
      <path d="M15.65 -1.3 L16.3 -1.3 15.85 -0.85 15.65 -1.3" fill="#76f3ff" fill-rule="evenodd" stroke="none"/>
      <path d="M16.45 -1.3 L17.05 -1.3 16.8 -0.95 16.45 -1.3" fill="#46e2f1" fill-rule="evenodd" stroke="none"/>
      <path d="M17.05 -1.3 L23.35 -1.3 Q21.3 0.35 21.2 2.65 L20.1 2.2 20.0 2.2 20.0 2.15 20.05 1.9 18.4 0.55 Q18.2 0.3 17.95 0.2 L16.8 -0.95 17.05 -1.3" fill="#4ddaeb" fill-rule="evenodd" stroke="none"/>
      <path d="M16.3 -1.3 L16.45 -1.3 16.8 -0.95 17.95 0.2 17.95 1.45 17.95 1.65 16.95 1.4 16.8 1.15 15.85 -0.85 16.3 -1.3" fill="#77eaff" fill-rule="evenodd" stroke="none"/>
      <path d="M25.8 4.45 L26.1 4.6 26.25 4.7 26.65 5.15 26.55 5.15 26.2 4.9 26.1 4.6 26.2 4.9 25.8 4.45 M26.6 11.05 L25.9 11.5 24.85 12.0 23.8 12.05 24.8 7.75 25.55 8.05 28.2 8.4 28.9 8.3 29.25 8.2 29.4 8.5 Q28.65 9.65 27.15 10.7 L26.6 11.05" fill="#8cf4f7" fill-rule="evenodd" stroke="none"/>
      <path d="M23.35 -1.3 L26.0 -1.3 25.05 -0.75 24.55 -0.35 24.1 0.2 Q23.2 1.5 23.15 3.5 L23.1 4.05 23.15 4.65 Q23.3 5.8 24.0 7.0 L24.3 7.45 23.2 6.65 23.0 6.45 22.9 6.35 Q21.55 5.05 21.25 3.75 L21.15 3.0 21.2 2.65 Q21.3 0.35 23.35 -1.3 M32.1 -1.3 L34.6 -1.3 35.1 -0.7 35.6 -0.05 34.4 0.3 33.85 -0.45 32.45 -1.15 32.35 -1.2 32.1 -1.3" fill="#9cf5ef" fill-rule="evenodd" stroke="none"/>
      <path d="M24.55 -0.35 L25.1 -0.35 Q26.15 -0.3 26.85 0.5 L27.05 0.75 27.15 0.95 27.55 1.7 27.55 1.8 27.65 2.1 27.35 2.25 27.3 2.3 27.2 2.3 26.1 3.35 25.9 3.8 26.1 4.6 25.8 4.45 25.15 4.3 24.9 4.3 24.45 4.3 23.2 4.65 23.15 4.65 23.1 4.05 23.15 3.5 Q23.2 1.5 24.1 0.2 L24.55 -0.35" fill="#82efd0" fill-rule="evenodd" stroke="none"/>
      <path d="M26.0 -1.3 L32.1 -1.3 32.35 -1.2 32.35 -0.95 32.3 -0.45 31.6 0.7 30.25 0.5 Q29.4 0.5 28.3 1.1 27.8 1.4 27.55 1.7 L27.15 0.95 27.05 0.75 26.85 0.5 Q26.15 -0.3 25.1 -0.35 L24.55 -0.35 25.05 -0.75 26.0 -1.3" fill="#68ecd7" fill-rule="evenodd" stroke="none"/>
      <path d="M34.6 -1.3 L38.3 -1.3 39.2 0.2 36.5 0.5 35.95 0.65 35.6 -0.05 35.1 -0.7 34.6 -1.3 M28.9 1.6 L29.75 1.4 30.25 1.7 29.4 2.0 Q29.15 1.75 28.9 1.6" fill="#59caea" fill-rule="evenodd" stroke="none"/>
      <path d="M32.3 -0.45 L32.35 -0.95 32.35 -1.2 32.45 -1.15 33.85 -0.45 34.4 0.3 33.7 0.55 32.3 -0.45" fill="#5dcbc2" fill-rule="evenodd" stroke="none"/>
      <path d="M38.3 -1.3 L41.6 -1.3 42.05 -0.3 42.4 0.45 42.8 1.45 42.55 1.45 40.25 1.1 39.6 0.9 39.35 0.45 39.2 0.2 38.3 -1.3" fill="#95f1ff" fill-rule="evenodd" stroke="none"/>
      <path d="M42.8 1.45 L43.85 5.3 42.5 5.0 42.05 4.9 41.55 4.75 39.6 0.9 40.25 1.1 42.55 1.45 42.8 1.45" fill="#97f0ff" fill-rule="evenodd" stroke="none"/>
      <path d="M43.85 5.3 L44.35 8.85 44.25 8.85 42.95 9.15 42.7 7.6 41.55 4.75 42.05 4.9 42.5 5.0 43.85 5.3" fill="#7ed1ef" fill-rule="evenodd" stroke="none"/>
      <path d="M44.35 8.85 L46.0 8.75 Q48.25 8.9 50.7 10.9 50.5 11.0 50.25 11.25 49.65 11.85 49.5 12.8 47.55 11.35 45.3 10.85 L45.1 10.8 44.85 10.75 44.5 11.1 44.45 11.1 43.65 12.0 43.2 12.5 43.15 12.6 42.4 13.65 38.45 15.3 37.85 14.95 Q38.35 13.15 39.7 11.5 L39.85 11.35 40.4 10.75 Q41.55 9.65 42.95 9.15 41.55 9.65 40.4 10.75 L39.85 11.35 39.7 11.5 Q38.35 13.15 37.85 14.95 36.65 14.25 35.35 13.75 L35.05 13.6 Q36.65 12.0 37.2 9.75 L37.4 6.8 Q37.2 3.05 35.95 0.65 L36.5 0.5 39.2 0.2 39.35 0.45 39.6 0.9 41.55 4.75 42.7 7.6 42.95 9.15 44.25 8.85 44.35 8.85" fill="#5cc8ef" fill-rule="evenodd" stroke="none"/>
      <path d="M54.6 22.15 L54.6 22.6 54.5 22.9 Q53.95 24.85 53.9 27.45 L54.6 27.85 54.6 28.5 54.5 28.5 54.35 28.6 54.3 28.65 53.75 29.25 52.65 29.15 51.65 29.15 51.3 30.3 50.9 33.0 50.05 33.25 50.65 30.55 51.05 29.15 51.3 28.35 52.6 27.75 53.8 24.35 54.6 22.15 M38.45 15.3 L42.4 13.65 43.15 12.6 43.2 12.5 43.65 12.0 44.45 11.1 44.5 11.1 44.85 10.75 45.1 10.8 45.3 10.85 45.05 11.1 45.05 11.35 45.2 12.85 45.45 14.15 46.0 15.75 47.9 15.8 50.25 15.65 51.45 15.6 52.25 15.5 52.75 16.2 52.2 16.2 48.95 16.7 45.4 17.45 44.7 12.75 44.65 12.5 44.55 11.9 44.55 11.75 44.3 12.1 44.05 12.45 43.9 12.7 43.2 13.8 43.2 13.85 42.15 14.35 40.3 15.4 Q39.8 15.7 39.35 15.95 L38.45 15.3" fill="#a3f3ff" fill-rule="evenodd" stroke="none"/>
      <path d="M45.3 10.85 Q47.55 11.35 49.5 12.8 50.95 13.85 52.25 15.5 L51.45 15.6 50.25 15.65 47.9 15.8 46.0 15.75 45.45 14.15 45.2 12.85 45.05 11.35 45.05 11.1 45.3 10.85" fill="#44dbe6" fill-rule="evenodd" stroke="none"/>
      <path d="M39.35 15.95 Q39.8 15.7 40.3 15.4 L42.15 14.35 43.2 13.85 43.2 13.8 43.9 12.7 44.05 12.45 44.3 12.1 44.55 11.75 44.55 11.9 44.65 12.5 44.7 12.75 45.4 17.45 48.95 16.7 52.2 16.2 52.75 16.2 52.75 16.25 52.8 16.5 52.75 16.5 52.7 16.7 52.5 17.45 52.5 17.6 Q49.45 20.5 46.65 21.85 L45.3 22.45 43.2 19.65 40.65 16.95 39.5 16.05 39.35 15.95" fill="#4bdbe3" fill-rule="evenodd" stroke="none"/>
      <path d="M40.65 16.95 L43.2 19.65 45.3 22.45 46.65 24.7 Q48.0 27.2 48.55 29.65 L48.2 29.25 46.15 27.5 46.2 26.2 Q45.45 25.7 44.9 25.55 L44.6 25.4 44.6 25.55 44.6 25.65 44.65 26.5 44.65 26.55 44.7 27.5 44.7 28.0 44.75 28.35 44.3 28.25 43.6 28.15 43.4 28.15 43.05 27.05 42.95 26.75 42.9 26.5 43.1 26.1 43.2 25.9 43.35 25.15 43.35 24.9 43.05 23.05 Q42.4 21.2 40.45 19.45 L40.7 17.5 40.65 16.95" fill="#98e6f3" fill-rule="evenodd" stroke="none"/>
      <path d="M39.5 16.05 L40.65 16.95 40.7 17.5 40.45 19.45 40.3 19.3 Q38.85 18.05 37.35 17.35 L37.0 17.15 37.35 17.0 37.8 16.85 38.65 16.45 39.5 16.05" fill="#a2e7f6" fill-rule="evenodd" stroke="none"/>
      <path d="M45.3 22.45 L46.65 21.85 Q49.45 20.5 52.5 17.6 52.55 18.5 53.1 18.85 52.05 20.5 49.55 22.6 L46.65 24.7 45.3 22.45" fill="#94f1f6" fill-rule="evenodd" stroke="none"/>
      <path d="M54.6 19.3 L54.6 22.15 53.8 24.35 52.6 27.75 51.3 28.35 51.05 29.15 50.65 30.55 50.05 33.25 49.0 33.5 49.0 32.95 48.55 29.65 Q48.0 27.2 46.65 24.7 L49.55 22.6 Q52.05 20.5 53.1 18.85 L53.7 19.05 54.25 18.8 54.3 18.75 54.6 19.3" fill="#47dbe7" fill-rule="evenodd" stroke="none"/>
      <path d="M50.7 10.9 Q52.6 12.4 54.6 15.05 L54.6 19.3 54.3 18.75 54.45 17.95 Q54.45 16.8 53.8 16.4 L53.25 16.25 53.15 16.2 52.95 16.2 52.85 16.35 52.8 16.5 52.75 16.25 52.75 16.2 52.25 15.5 Q50.95 13.85 49.5 12.8 49.65 11.85 50.25 11.25 50.5 11.0 50.7 10.9" fill="#a5edfb" fill-rule="evenodd" stroke="none"/>
      <path d="M52.5 17.6 L52.5 17.45 52.7 16.7 52.75 16.5 52.8 16.5 52.85 16.35 52.95 16.2 53.15 16.2 53.25 16.25 53.8 16.4 Q54.45 16.8 54.45 17.95 L54.3 18.75 54.25 18.8 53.7 19.05 53.1 18.85 Q52.55 18.5 52.5 17.6 M14.1 16.0 L14.3 15.9 14.15 16.6 14.1 16.7 13.9 18.8 13.9 18.95 13.9 19.05 13.25 19.9 12.9 20.5 12.6 20.0 11.9 20.3 Q10.5 20.95 8.8 22.2 L6.8 23.9 6.65 24.4 6.55 24.8 6.25 25.9 5.75 27.75 5.4 29.25 7.0 30.65 7.35 30.9 7.25 31.75 7.05 33.9 7.05 34.15 7.0 34.35 7.05 35.6 7.05 35.75 7.05 36.0 7.1 36.45 7.1 36.55 7.1 36.6 7.15 36.95 7.0 36.65 6.6 37.1 5.75 38.65 5.4 39.45 5.25 39.8 5.1 40.2 5.15 40.3 5.05 41.55 5.05 41.75 4.9 43.2 4.75 41.6 4.65 39.8 4.7 39.6 4.7 39.65 6.4 36.9 6.85 36.1 6.85 35.85 6.35 31.35 6.3 31.35 4.8 31.0 4.1 31.0 5.25 27.2 5.3 27.0 5.75 25.15 6.25 22.9 6.9 21.75 7.05 21.6 8.05 20.55 Q7.55 21.5 7.05 23.2 L9.55 21.3 11.95 19.7 13.2 18.95 13.3 18.6 14.0 16.45 14.1 16.0" fill="#d0ffff" fill-rule="evenodd" stroke="none"/>
      <path d="M54.6 22.6 L54.6 27.85 53.9 27.45 Q53.95 24.85 54.5 22.9 L54.6 22.6" fill="#50dde7" fill-rule="evenodd" stroke="none"/>
      <path d="M54.6 28.5 L54.6 31.7 53.85 32.0 50.9 33.0 51.3 30.3 51.65 29.15 52.65 29.15 53.75 29.25 54.3 28.65 54.35 28.6 54.5 28.5 54.6 28.5" fill="#4ad6e7" fill-rule="evenodd" stroke="none"/>
      <path d="M54.6 31.7 L54.6 33.05 53.75 33.45 50.95 34.6 49.4 35.2 49.0 35.35 49.0 33.5 50.05 33.25 50.9 33.0 53.85 32.0 54.6 31.7" fill="#84edff" fill-rule="evenodd" stroke="none"/>
      <path d="M54.6 33.05 L54.6 35.95 52.65 36.5 51.2 36.1 Q50.05 35.7 49.4 35.2 L50.95 34.6 53.75 33.45 54.6 33.05" fill="#40cfe0" fill-rule="evenodd" stroke="none"/>
      <path d="M54.6 35.95 L54.6 40.3 Q52.5 42.4 49.55 44.3 L48.65 42.65 48.45 42.3 48.55 42.2 48.7 41.5 48.85 39.95 49.0 35.35 49.4 35.2 Q50.05 35.7 51.2 36.1 L52.65 36.5 54.6 35.95" fill="#50caef" fill-rule="evenodd" stroke="none"/>
      <path d="M46.15 27.5 L48.2 29.25 48.55 29.65 49.0 32.95 49.0 33.5 49.0 35.35 48.85 39.95 48.8 39.95 47.45 40.05 46.85 40.2 46.55 40.3 45.6 40.65 Q44.85 40.95 44.4 41.3 L44.8 39.55 46.55 38.45 46.8 38.2 46.9 38.0 Q47.8 36.95 48.15 35.6 L48.3 33.95 48.3 33.6 Q48.2 31.4 46.9 29.85 L46.05 29.0 46.1 28.15 46.15 27.5" fill="#66cee7" fill-rule="evenodd" stroke="none"/>
      <path d="M44.75 28.35 L44.7 28.0 44.7 27.5 44.65 26.55 44.65 26.5 44.6 25.65 44.6 25.55 44.6 25.4 44.9 25.55 Q45.45 25.7 46.2 26.2 L46.15 27.5 46.1 28.15 46.05 29.0 45.85 28.85 45.8 26.6 45.15 26.45 44.95 26.45 45.15 28.45 44.85 28.4 44.75 28.35" fill="#7488a0" fill-rule="evenodd" stroke="none"/>
      <path d="M45.15 26.45 L45.8 26.6 45.85 28.85 45.15 28.5 45.15 28.45 45.15 27.7 45.1 26.8 45.1 26.6 45.15 26.45" fill="#d9cce8" fill-rule="evenodd" stroke="none"/>
      <path d="M43.4 28.15 L43.6 28.15 44.3 28.25 44.75 28.35 44.85 28.4 45.15 28.45 45.15 28.5 45.85 28.85 46.05 29.0 46.9 29.85 Q48.2 31.4 48.3 33.6 L48.3 33.95 48.15 35.6 Q47.8 36.95 46.9 38.0 L46.8 38.2 46.55 38.45 44.8 39.55 43.6 39.7 Q42.25 39.7 41.2 38.95 L40.75 38.6 40.25 38.0 Q39.6 37.2 39.25 36.2 38.9 35.2 38.9 33.95 L38.95 32.95 Q39.2 31.2 40.25 29.85 L41.1 29.0 41.6 28.7 Q42.2 28.35 42.8 28.25 L43.4 28.15 M47.55 32.5 Q47.3 31.3 46.55 30.35 45.3 28.85 43.6 28.85 L43.25 28.9 Q41.8 29.0 40.7 30.35 L40.25 31.05 40.0 31.6 Q39.5 32.7 39.5 34.05 39.5 36.2 40.7 37.7 L41.45 38.45 Q42.4 39.25 43.6 39.25 45.3 39.25 46.55 37.7 L46.75 37.45 Q47.75 36.0 47.75 34.05 L47.55 32.5" fill="#744f83" fill-rule="evenodd" stroke="none"/>
      <path d="M40.45 19.45 Q42.4 21.2 43.05 23.05 L43.35 24.9 43.35 25.15 43.2 25.9 43.1 26.1 42.9 26.5 42.8 26.15 42.6 25.7 42.35 25.1 Q42.1 25.2 41.7 25.45 L40.9 25.95 40.25 26.4 40.2 26.45 40.95 28.55 Q39.45 29.7 37.7 30.25 L35.7 30.6 34.4 30.65 Q32.2 30.65 29.6 29.1 25.8 26.9 25.8 22.9 L25.95 21.55 Q26.05 20.95 26.3 20.4 26.8 19.2 27.75 18.15 28.7 17.1 29.9 16.6 L30.0 16.55 31.6 16.35 31.65 16.35 32.9 16.35 35.65 16.7 37.0 17.15 37.35 17.35 Q38.85 18.05 40.3 19.3 L40.45 19.45 M35.2 22.3 L35.85 22.25 36.6 21.95 36.9 21.55 37.2 20.8 36.9 20.05 36.35 19.65 Q35.75 19.3 35.4 19.3 L34.45 19.9 Q33.85 20.5 33.85 21.1 L33.85 21.45 Q34.0 21.95 34.5 22.15 L35.2 22.3" fill="#d6ffff" fill-rule="evenodd" stroke="none"/>
      <path d="M45.15 26.45 L45.1 26.6 45.1 26.8 45.15 27.7 45.15 28.45 44.95 26.45 45.15 26.45" fill="#d9cff1" fill-rule="evenodd" stroke="none"/>
      <path d="M42.9 26.5 L42.95 26.75 43.05 27.05 43.4 28.15 42.8 28.25 42.65 27.65 42.45 27.1 42.45 27.0 42.2 26.3 42.1 26.15 Q41.8 26.2 41.55 26.4 L41.5 26.4 41.0 26.75 41.05 27.15 41.4 28.15 41.45 28.25 41.6 28.7 41.1 29.0 40.95 28.55 40.2 26.45 40.25 26.4 40.9 25.95 41.7 25.45 Q42.1 25.2 42.35 25.1 L42.6 25.7 42.8 26.15 42.9 26.5" fill="#8e7da7" fill-rule="evenodd" stroke="none"/>
      <path d="M41.6 28.7 L41.45 28.25 41.4 28.15 41.05 27.15 41.0 26.75 41.5 26.4 41.55 26.4 Q41.8 26.2 42.1 26.15 L42.2 26.3 42.45 27.0 42.45 27.1 42.65 27.65 42.8 28.25 Q42.2 28.35 41.6 28.7" fill="#d3abdf" fill-rule="evenodd" stroke="none"/>
      <path d="M40.95 28.55 L41.1 29.0 40.25 29.85 Q39.2 31.2 38.95 32.95 L38.9 33.95 Q38.9 35.2 39.25 36.2 39.6 37.2 40.25 38.0 L40.75 38.6 41.2 38.95 39.95 39.7 Q37.85 40.7 35.3 41.15 L31.8 41.4 Q28.75 41.4 25.05 38.9 L24.95 38.8 24.2 38.25 25.0 37.55 Q27.3 35.3 27.3 32.1 27.3 28.95 25.0 26.65 L24.85 26.55 25.25 25.45 25.4 25.15 25.75 24.0 Q25.1 23.6 23.9 23.15 L23.0 22.8 22.35 24.95 Q21.0 24.4 19.45 24.4 L19.2 24.4 Q19.4 22.45 20.75 20.9 22.15 19.2 24.85 18.0 L25.4 17.8 Q27.8 16.8 29.9 16.5 L31.6 16.35 30.0 16.55 29.9 16.6 Q28.7 17.1 27.75 18.15 26.8 19.2 26.3 20.4 26.05 20.95 25.95 21.55 L25.8 22.9 Q25.8 26.9 29.6 29.1 32.2 30.65 34.4 30.65 L35.7 30.6 37.7 30.25 Q39.45 29.7 40.95 28.55 M34.6 39.2 L34.0 39.3 33.75 39.5 Q33.4 39.8 33.4 40.35 33.4 40.95 34.1 40.95 34.75 40.95 35.2 40.5 L35.3 40.4 35.55 39.8 35.35 39.35 Q35.1 39.2 34.65 39.2 L34.6 39.2" fill="#c5ffff" fill-rule="evenodd" stroke="none"/>
      <path d="M43.25 28.9 L43.6 28.85 Q45.3 28.85 46.55 30.35 47.3 31.3 47.55 32.5 L47.0 32.85 Q46.65 31.4 45.35 30.75 L45.1 30.6 44.95 30.55 44.65 30.45 43.3 30.0 43.25 29.95 43.2 29.45 43.25 28.9" fill="#0085df" fill-rule="evenodd" stroke="none"/>
      <path d="M43.25 28.9 L43.2 29.45 43.25 29.95 Q42.55 30.15 42.0 30.75 41.2 31.5 41.0 32.95 L40.95 32.9 40.45 32.5 Q40.05 32.0 40.0 31.6 L40.25 31.05 40.7 30.35 Q41.8 29.0 43.25 28.9" fill="#1461bb" fill-rule="evenodd" stroke="none"/>
      <path d="M43.25 29.95 L43.3 30.0 44.65 30.45 44.95 30.55 44.95 30.6 45.1 30.85 45.45 32.7 Q45.45 33.5 44.75 34.25 44.0 35.05 43.2 35.05 41.9 35.05 41.25 34.2 L41.2 34.1 41.3 33.1 41.0 32.95 Q41.2 31.5 42.0 30.75 42.55 30.15 43.25 29.95 M44.1 32.5 Q44.1 31.75 43.55 31.45 L42.8 31.25 42.4 31.3 42.1 31.85 42.05 32.25 42.3 33.35 42.35 33.35 42.9 33.7 Q43.45 33.7 43.8 33.3 L44.1 32.5" fill="#0998e4" fill-rule="evenodd" stroke="none"/>
      <path d="M44.95 30.55 L45.1 30.6 45.35 30.75 Q46.65 31.4 47.0 32.85 L47.05 33.0 47.1 33.85 47.05 34.5 46.2 35.6 45.25 36.4 43.35 36.9 Q42.55 36.9 41.55 36.2 L41.3 36.0 41.35 36.2 41.25 36.05 40.95 35.35 40.85 34.4 Q40.85 33.6 41.0 32.95 L41.3 33.1 41.2 34.1 41.25 34.2 Q41.9 35.05 43.2 35.05 44.0 35.05 44.75 34.25 45.45 33.5 45.45 32.7 L45.1 30.85 44.95 30.6 44.95 30.55" fill="#038cdd" fill-rule="evenodd" stroke="none"/>
      <path d="M44.1 32.5 L43.8 33.3 Q43.45 33.7 42.9 33.7 L42.35 33.35 42.3 33.35 42.05 32.25 42.1 31.85 42.4 31.3 42.8 31.25 43.55 31.45 Q44.1 31.75 44.1 32.5" fill="#f1fcff" fill-rule="evenodd" stroke="none"/>
      <path d="M41.45 38.45 L40.7 37.7 Q39.5 36.2 39.5 34.05 39.5 32.7 40.0 31.6 40.05 32.0 40.45 32.5 L40.95 32.9 41.0 32.95 Q40.85 33.6 40.85 34.4 L40.95 35.35 41.25 36.05 41.35 36.2 41.95 37.35 41.75 37.55 Q41.45 37.95 41.45 38.45" fill="#0058d4" fill-rule="evenodd" stroke="none"/>
      <path d="M41.35 36.2 L41.3 36.0 41.55 36.2 Q42.55 36.9 43.35 36.9 L45.25 36.4 46.2 35.6 47.05 34.5 Q46.9 35.7 46.2 36.7 L46.1 36.85 Q45.1 38.1 43.45 38.1 L42.55 37.9 42.55 37.85 42.0 37.45 41.95 37.35 41.35 36.2" fill="#197ddd" fill-rule="evenodd" stroke="none"/>
      <path d="M47.0 32.85 L47.55 32.5 47.75 34.05 Q47.75 36.0 46.75 37.45 L46.35 37.05 46.1 36.85 46.2 36.7 Q46.9 35.7 47.05 34.5 L47.1 33.85 47.05 33.0 47.0 32.85" fill="#002c82" fill-rule="evenodd" stroke="none"/>
      <path d="M46.75 37.45 L46.55 37.7 Q45.3 39.25 43.6 39.25 42.4 39.25 41.45 38.45 41.45 37.95 41.75 37.55 L41.95 37.35 42.0 37.45 42.55 37.85 42.55 37.9 43.45 38.1 Q45.1 38.1 46.1 36.85 L46.35 37.05 46.75 37.45" fill="#0040a1" fill-rule="evenodd" stroke="none"/>
      <path d="M46.85 40.2 L47.45 40.05 48.8 39.95 48.85 39.95 48.7 41.5 48.55 42.2 48.45 42.3 47.25 43.5 46.65 43.5 46.55 42.55 46.55 42.5 Q46.55 40.95 46.85 40.2" fill="#ab99c9" fill-rule="evenodd" stroke="none"/>
      <path d="M44.4 41.3 Q44.85 40.95 45.6 40.65 L46.55 40.3 46.85 40.2 Q46.55 40.95 46.55 42.5 L46.55 42.55 46.65 43.5 46.35 43.5 45.05 43.35 44.6 43.2 43.95 42.85 43.75 42.45 Q43.75 41.8 44.4 41.3" fill="#d6a7c9" fill-rule="evenodd" stroke="none"/>
      <path d="M49.55 44.3 L48.75 44.75 Q46.15 46.3 43.4 47.25 L43.35 47.25 43.3 47.15 Q42.8 46.8 42.2 46.75 L46.25 44.3 46.7 43.9 47.25 43.5 48.45 42.3 48.65 42.65 49.55 44.3 M39.55 47.9 L39.1 48.45 36.95 48.75 39.55 47.9" fill="#3ca3d0" fill-rule="evenodd" stroke="none"/>
      <path d="M44.8 39.55 L44.4 41.3 Q43.75 41.8 43.75 42.45 L43.95 42.85 43.45 44.05 Q38.85 46.2 35.2 47.25 L34.95 47.35 32.95 47.9 29.35 48.5 27.9 48.65 27.3 48.65 26.05 48.75 24.9 48.75 24.7 48.75 22.4 48.7 20.95 48.4 Q17.9 47.75 15.75 46.8 13.65 45.9 12.1 44.8 L12.0 44.65 12.15 44.7 14.5 45.05 15.8 44.95 16.3 44.9 17.85 45.55 19.6 46.15 Q22.3 47.05 24.15 47.05 28.65 47.05 32.9 45.0 L32.0 45.6 30.65 46.4 33.0 46.55 35.2 46.25 35.6 46.15 35.2 45.9 34.15 44.9 33.85 44.5 35.25 43.65 36.1 43.05 Q38.4 41.45 39.95 39.7 L41.2 38.95 Q42.25 39.7 43.6 39.7 L44.8 39.55 M30.65 46.4 L30.15 46.6 29.65 46.75 30.15 46.6 30.65 46.4 M36.4 46.3 L35.6 46.15 36.4 46.3" fill="#95f4f8" fill-rule="evenodd" stroke="none"/>
      <path d="M43.95 42.85 L44.6 43.2 45.05 43.35 46.35 43.5 46.65 43.5 47.25 43.5 46.7 43.9 46.25 44.3 42.2 46.75 42.0 46.75 42.45 46.05 43.45 44.05 43.95 42.85" fill="#48c8e3" fill-rule="evenodd" stroke="none"/>
      <path d="M43.4 47.25 L43.85 47.75 43.7 48.65 43.35 48.35 42.65 48.15 42.55 48.15 42.55 48.5 42.55 48.75 42.4 48.75 42.35 48.75 42.2 48.75 42.1 48.75 41.3 49.0 41.15 48.75 40.8 48.25 40.75 48.1 40.55 47.5 40.45 47.15 Q41.15 46.75 42.0 46.75 L42.2 46.75 Q42.8 46.8 43.3 47.15 L43.35 47.25 43.4 47.25" fill="#5ac2cd" fill-rule="evenodd" stroke="none"/>
      <path d="M40.45 47.15 L40.55 47.5 40.75 48.1 40.8 48.25 41.15 48.75 41.3 49.0 Q41.0 49.15 40.7 49.4 L40.1 50.3 39.85 50.2 38.6 49.5 Q38.75 48.9 39.1 48.45 L39.55 47.9 39.7 47.75 40.45 47.15" fill="#8ae8ff" fill-rule="evenodd" stroke="none"/>
      <path d="M40.1 50.3 L40.7 49.4 Q41.0 49.15 41.3 49.0 L41.85 49.65 42.45 50.1 42.45 50.7 42.4 51.85 41.4 52.0 40.85 52.1 Q40.4 52.3 40.1 52.6 L39.85 51.4 Q39.85 50.75 40.1 50.3" fill="#35cfd9" fill-rule="evenodd" stroke="none"/>
      <path d="M42.2 48.75 L42.35 48.75 42.4 48.75 42.55 48.75 Q42.6 49.35 42.95 49.7 L43.3 49.95 43.5 50.0 43.95 49.8 44.2 50.6 44.3 50.8 44.0 52.05 42.45 51.85 42.4 51.85 42.45 50.7 42.45 50.1 42.25 48.9 42.2 48.75" fill="#55d0ef" fill-rule="evenodd" stroke="none"/>
      <path d="M41.3 49.0 L42.1 48.75 42.2 48.75 42.25 48.9 42.45 50.1 41.85 49.65 41.3 49.0" fill="#58bfe0" fill-rule="evenodd" stroke="none"/>
      <path d="M42.55 48.75 L42.55 48.5 42.55 48.15 42.65 48.15 43.35 48.35 43.7 48.65 43.95 49.45 43.95 49.8 43.5 50.0 43.3 49.95 42.95 49.7 Q42.6 49.35 42.55 48.75" fill="#cfffff" fill-rule="evenodd" stroke="none"/>
      <path d="M43.85 47.75 L44.05 48.0 44.45 48.65 44.3 50.8 44.2 50.6 43.95 49.8 43.95 49.45 43.7 48.65 43.85 47.75" fill="#64afd7" fill-rule="evenodd" stroke="none"/>
      <path d="M45.3 49.45 L45.5 49.4 46.05 49.5 46.8 49.85 Q47.8 50.45 47.8 51.55 47.8 53.1 44.7 54.1 L44.35 54.1 44.7 53.3 45.25 53.1 Q46.95 52.35 46.95 51.45 46.95 50.35 45.45 50.35 L45.25 50.4 45.3 49.45" fill="#a9d6f7" fill-rule="evenodd" stroke="none"/>
      <path d="M40.45 47.15 L39.7 47.75 39.55 47.9 36.95 48.75 34.3 49.4 31.9 49.75 30.65 49.7 28.15 49.5 27.9 49.45 26.9 49.35 26.65 49.3 25.45 49.2 24.45 49.05 22.4 48.7 24.7 48.75 24.9 48.75 26.05 48.75 27.3 48.65 27.9 48.65 29.35 48.5 32.95 47.9 34.95 47.35 35.2 47.25 Q38.85 46.2 43.45 44.05 L42.45 46.05 42.0 46.75 Q41.15 46.75 40.45 47.15" fill="#9eeaf8" fill-rule="evenodd" stroke="none"/>
      <path d="M34.4 0.3 L35.6 -0.05 35.95 0.65 Q37.2 3.05 37.4 6.8 L37.2 9.75 36.6 9.15 36.15 8.75 36.5 6.3 36.45 5.45 Q36.2 3.8 35.25 1.8 L34.75 0.95 34.4 0.3" fill="#90f3ee" fill-rule="evenodd" stroke="none"/>
      <path d="M36.45 5.45 L35.1 2.45 34.25 1.1 33.7 0.55 34.4 0.3 34.75 0.95 35.25 1.8 Q36.2 3.8 36.45 5.45" fill="#5ac5bb" fill-rule="evenodd" stroke="none"/>
      <path d="M31.6 0.7 L32.3 -0.45 33.7 0.55 34.25 1.1 35.1 2.45 36.45 5.45 36.5 6.3 36.15 8.75 Q35.0 7.8 33.7 7.8 L32.9 7.9 33.25 5.8 32.8 3.0 32.35 1.8 31.6 0.75 31.6 0.7" fill="#6cedd9" fill-rule="evenodd" stroke="none"/>
      <path d="M27.65 2.1 L27.55 1.8 27.55 1.7 Q27.8 1.4 28.3 1.1 29.4 0.5 30.25 0.5 L31.6 0.7 31.6 0.75 31.4 0.9 30.25 1.7 29.75 1.4 28.9 1.6 27.75 2.05 27.65 2.1" fill="#7fd9da" fill-rule="evenodd" stroke="none"/>
      <path d="M31.5 6.3 L31.5 6.15 31.7 5.0 Q31.7 3.65 30.95 2.55 L30.9 2.5 30.25 1.7 31.4 0.9 31.6 0.75 32.35 1.8 32.8 3.0 33.25 5.8 32.9 7.9 Q32.4 9.2 31.25 10.15 L30.1 10.85 29.65 11.05 26.85 11.55 25.9 11.5 26.6 11.05 29.25 10.25 29.95 9.9 Q32.0 8.8 32.0 7.2 L31.75 6.5 31.5 6.3" fill="#5acbcf" fill-rule="evenodd" stroke="none"/>
      <path d="M30.25 1.7 L30.9 2.5 30.95 2.55 Q31.7 3.65 31.7 5.0 L31.5 6.15 31.5 6.3 Q31.1 7.25 30.05 7.8 L29.6 8.05 29.25 8.2 28.9 8.3 29.1 7.75 29.15 7.3 Q29.15 6.5 28.65 5.85 L28.4 5.6 28.2 5.45 28.35 5.4 28.9 5.15 29.4 4.7 Q29.95 4.05 29.95 3.4 L29.9 3.05 29.4 2.0 30.25 1.7" fill="#6ce8de" fill-rule="evenodd" stroke="none"/>
      <path d="M31.5 6.3 L31.75 6.5 32.0 7.2 Q32.0 8.8 29.95 9.9 L29.25 10.25 26.6 11.05 27.15 10.7 Q28.65 9.65 29.4 8.5 L29.6 8.05 30.05 7.8 Q31.1 7.25 31.5 6.3" fill="#72cbf7" fill-rule="evenodd" stroke="none"/>
      <path d="M29.65 11.05 L30.1 10.85 31.25 10.15 Q32.4 9.2 32.9 7.9 L33.7 7.8 Q35.0 7.8 36.15 8.75 L35.85 9.6 34.75 11.95 33.25 13.0 32.3 13.55 32.2 13.6 32.1 13.7 32.0 13.65 31.4 13.3 30.35 12.3 30.0 11.75 29.65 11.05" fill="#7cf3d5" fill-rule="evenodd" stroke="none"/>
      <path d="M36.15 8.75 L36.6 9.15 37.2 9.75 Q36.65 12.0 35.05 13.6 L34.95 13.7 34.35 14.2 Q33.1 14.15 32.1 13.7 L32.2 13.6 32.3 13.55 33.25 13.0 34.75 11.95 35.85 9.6 36.15 8.75" fill="#b6f1f9" fill-rule="evenodd" stroke="none"/>
      <path d="M27.95 2.9 L28.3 3.0 28.6 3.55 28.55 3.95 28.3 4.3 28.05 4.4 27.8 4.4 27.25 4.2 Q26.95 4.0 26.95 3.65 L27.25 3.15 27.4 3.0 27.55 2.95 27.65 2.95 27.95 2.9" fill="#dafff1" fill-rule="evenodd" stroke="none"/>
      <path d="M26.1 4.6 L25.9 3.8 26.1 3.35 27.2 2.3 27.3 2.3 27.35 2.25 27.65 2.1 27.75 2.05 28.9 1.6 Q29.15 1.75 29.4 2.0 L29.9 3.05 29.95 3.4 Q29.95 4.05 29.4 4.7 L28.9 5.15 28.35 5.4 28.2 5.45 27.65 5.5 26.65 5.15 26.25 4.7 26.1 4.6 M27.95 2.9 L27.65 2.95 27.55 2.95 27.4 3.0 27.25 3.15 26.95 3.65 Q26.95 4.0 27.25 4.2 L27.8 4.4 28.05 4.4 28.3 4.3 28.55 3.95 28.6 3.55 28.3 3.0 27.95 2.9" fill="#a7fde4" fill-rule="evenodd" stroke="none"/>
      <path d="M23.15 4.65 L23.2 4.65 24.45 4.3 24.9 4.3 25.15 4.3 25.8 4.45 26.2 4.9 26.5 5.4 26.9 5.8 26.5 5.4 26.2 4.9 26.55 5.15 26.65 5.15 27.65 5.5 28.2 5.45 28.4 5.6 28.65 5.85 Q29.15 6.5 29.15 7.3 L29.1 7.75 28.9 8.3 28.2 8.4 25.55 8.05 24.8 7.75 24.3 7.45 24.0 7.0 Q23.3 5.8 23.15 4.65" fill="#7af1de" fill-rule="evenodd" stroke="none"/>
      <path d="M21.2 2.65 L21.15 3.0 21.25 3.75 20.85 3.8 20.4 3.9 19.9 4.05 19.9 3.9 19.9 3.85 20.0 2.2 20.1 2.2 21.2 2.65" fill="#5ad0ec" fill-rule="evenodd" stroke="none"/>
      <path d="M21.25 3.75 Q21.55 5.05 22.9 6.35 L23.0 6.45 23.2 6.65 24.3 7.45 24.8 7.75 23.8 12.05 21.2 12.35 18.85 11.75 19.6 10.6 20.35 9.65 Q19.9 7.05 19.9 4.05 L20.4 3.9 20.85 3.8 21.25 3.75" fill="#5bd2ea" fill-rule="evenodd" stroke="none"/>
      <path d="M23.8 12.05 L24.85 12.0 23.9 12.35 21.4 12.85 21.3 13.05 21.1 13.45 17.0 14.7 16.7 14.85 14.45 15.85 14.3 15.9 14.1 16.0 13.75 16.2 Q12.5 16.9 11.4 17.65 L10.45 17.15 12.85 15.5 14.55 14.6 14.85 14.45 Q16.35 13.75 17.9 13.2 L20.8 12.45 21.2 12.35 23.8 12.05 M34.95 13.7 L35.05 13.6 35.35 13.75 34.95 13.7" fill="#94f1e7" fill-rule="evenodd" stroke="none"/>
      <path d="M25.9 11.5 L26.85 11.55 29.65 11.05 30.0 11.75 30.35 12.3 31.4 13.3 32.0 13.65 32.1 13.7 28.65 15.2 26.15 14.5 25.9 14.35 Q24.15 13.5 23.9 12.35 L24.85 12.0 25.9 11.5" fill="#91f2df" fill-rule="evenodd" stroke="none"/>
      <path d="M29.25 8.2 L29.6 8.05 29.4 8.5 29.25 8.2" fill="#48bee6" fill-rule="evenodd" stroke="none"/>
      <path d="M21.1 13.45 L21.3 13.05 21.4 12.85 23.9 12.35 Q24.15 13.5 25.9 14.35 L26.15 14.5 28.65 15.2 Q26.55 15.95 24.55 15.95 L24.5 15.95 23.3 15.25 21.65 14.7 20.9 14.25 21.1 13.45" fill="#96f5e1" fill-rule="evenodd" stroke="none"/>
      <path d="M37.85 14.95 L38.45 15.3 39.35 15.95 39.5 16.05 38.65 16.45 37.8 16.85 37.35 17.0 37.0 17.15 35.65 16.7 32.9 16.35 31.65 16.35 31.6 16.35 29.9 16.5 Q27.8 16.8 25.4 17.8 L24.85 18.0 Q22.15 19.2 20.75 20.9 19.4 22.45 19.2 24.4 L18.2 24.5 18.0 24.55 17.95 24.05 17.45 21.75 15.6 22.7 14.35 23.4 14.8 24.4 15.35 25.55 13.85 26.65 13.75 26.75 13.1 27.5 10.9 26.25 9.75 25.2 Q10.7 23.55 12.0 22.15 L13.7 20.5 14.25 20.05 15.25 19.25 15.3 19.2 16.1 18.6 19.1 16.9 19.6 16.65 21.15 15.95 23.3 15.25 24.5 15.95 25.25 16.75 Q29.5 16.9 32.5 15.35 L34.1 14.35 34.35 14.2 34.95 13.7 35.35 13.75 Q36.65 14.25 37.85 14.95 M24.8 16.7 L25.25 16.75 24.8 16.7" fill="#c4ffff" fill-rule="evenodd" stroke="none"/>
      <path d="M16.7 14.85 L17.0 14.7 21.1 13.45 20.9 14.25 21.65 14.7 23.3 15.25 21.15 15.95 19.6 16.65 19.1 16.9 Q17.5 16.05 16.8 15.0 L16.7 14.85" fill="#a9f9f0" fill-rule="evenodd" stroke="none"/>
      <path d="M24.5 15.95 L24.55 15.95 Q26.55 15.95 28.65 15.2 L31.25 15.45 32.5 15.35 Q29.5 16.9 25.25 16.75 L24.5 15.95" fill="#baf6ec" fill-rule="evenodd" stroke="none"/>
      <path d="M22.35 24.95 L23.0 22.8 23.9 23.15 Q25.1 23.6 25.75 24.0 L25.4 25.15 25.25 25.45 24.85 26.55 24.55 26.3 24.7 25.5 24.8 25.0 24.8 24.6 23.45 23.7 22.95 24.65 22.95 24.7 22.8 25.15 22.35 24.95 M15.35 25.55 L14.8 24.4 14.35 23.4 15.6 22.7 17.45 21.75 17.95 24.05 18.0 24.55 17.4 24.65 17.25 24.05 17.0 23.25 15.45 24.05 15.5 24.3 15.85 25.2 15.35 25.55" fill="#835d8c" fill-rule="evenodd" stroke="none"/>
      <path d="M22.8 25.15 L22.95 24.7 22.95 24.65 23.45 23.7 24.8 24.6 24.8 25.0 24.7 25.5 24.55 26.3 22.8 25.15 M15.85 25.2 L15.5 24.3 15.45 24.05 17.0 23.25 17.25 24.05 17.4 24.65 15.85 25.2" fill="#fbbbf8" fill-rule="evenodd" stroke="none"/>
      <path d="M32.1 13.7 Q33.1 14.15 34.35 14.2 L34.1 14.35 32.5 15.35 31.25 15.45 28.65 15.2 32.1 13.7" fill="#abf1e9" fill-rule="evenodd" stroke="none"/>
      <path d="M35.2 22.3 L34.5 22.15 Q34.0 21.95 33.85 21.45 L33.85 21.1 Q33.85 20.5 34.45 19.9 L35.4 19.3 Q35.75 19.3 36.35 19.65 L36.9 20.05 37.2 20.8 36.9 21.55 36.6 21.95 35.85 22.25 35.2 22.3 M34.6 39.2 L34.65 39.2 Q35.1 39.2 35.35 39.35 L35.55 39.8 35.3 40.4 35.2 40.5 Q34.75 40.95 34.1 40.95 33.4 40.95 33.4 40.35 33.4 39.8 33.75 39.5 L34.0 39.3 34.6 39.2" fill="#f2ffff" fill-rule="evenodd" stroke="none"/>
      <path d="M21.2 12.35 L20.8 12.45 17.9 13.2 18.85 11.75 21.2 12.35" fill="#47a5e2" fill-rule="evenodd" stroke="none"/>
      <path d="M17.95 1.65 L17.95 1.45 17.95 0.2 Q18.2 0.3 18.4 0.55 L20.05 1.9 20.0 2.15 20.0 2.2 19.9 3.85 19.9 3.9 19.55 4.05 19.45 3.55 19.0 1.95 18.05 1.65 17.95 1.65" fill="#6cdcf2" fill-rule="evenodd" stroke="none"/>
      <path d="M13.25 4.6 L14.45 3.6 15.7 3.6 18.1 3.3 Q17.95 2.65 17.95 1.7 L17.95 1.65 18.05 1.65 19.0 1.95 19.45 3.55 19.55 4.05 16.7 4.65 15.5 4.8 14.5 5.9 14.1 5.6 13.25 4.6" fill="#53d4f1" fill-rule="evenodd" stroke="none"/>
      <path d="M17.95 1.65 L17.95 1.7 Q17.95 2.65 18.1 3.3 L15.7 3.6 14.45 3.6 13.25 4.6 10.75 6.6 8.75 8.1 7.05 6.6 Q4.2 4.3 1.7 3.7 L3.3 1.8 4.7 0.35 9.0 -0.1 Q12.5 -0.1 16.8 1.15 L16.95 1.4 17.95 1.65" fill="#3fd7ef" fill-rule="evenodd" stroke="none"/>
      <path d="M14.5 5.9 L15.5 4.8 16.7 4.65 19.55 4.05 19.55 4.15 19.75 6.7 19.45 9.1 18.85 9.85 17.45 11.25 14.75 9.95 Q13.1 9.05 12.15 8.25 L14.5 5.9" fill="#56ccf0" fill-rule="evenodd" stroke="none"/>
      <path d="M17.9 13.2 Q16.35 13.75 14.85 14.45 L14.55 14.6 12.85 15.5 12.2 14.95 15.75 12.7 17.45 11.25 18.85 9.85 19.45 9.1 19.75 6.7 19.55 4.15 19.55 4.05 19.9 3.9 19.9 4.05 Q19.9 7.05 20.35 9.65 L19.6 10.6 18.85 11.75 17.9 13.2" fill="#67ccf8" fill-rule="evenodd" stroke="none"/>
      <path d="M13.25 4.6 L14.1 5.6 14.5 5.9 12.15 8.25 10.4 10.05 9.45 11.0 9.0 11.4 8.05 12.25 5.3 10.95 4.85 10.75 8.1 8.55 8.2 8.45 8.75 8.1 10.75 6.6 13.25 4.6" fill="#66d9f4" fill-rule="evenodd" stroke="none"/>
      <path d="M17.45 11.25 L15.75 12.7 12.2 14.95 12.05 14.85 11.3 14.3 11.0 14.1 Q9.55 13.05 8.05 12.25 L9.0 11.4 9.45 11.0 10.4 10.05 12.15 8.25 Q13.1 9.05 14.75 9.95 L17.45 11.25" fill="#48c5f1" fill-rule="evenodd" stroke="none"/>
      <path d="M1.4 1.3 L1.9 0.6 2.55 1.05 2.8 1.3 2.75 1.35 2.1 2.2 1.95 2.45 1.25 3.35 Q1.15 2.4 0.7 2.25 L0.75 2.15 1.0 1.8 1.4 1.3" fill="#9effff" fill-rule="evenodd" stroke="none"/>
      <path d="M-0.75 6.0 L-0.75 4.35 -0.15 3.45 0.25 2.8 0.7 2.25 Q1.15 2.4 1.25 3.35 L1.1 3.55 -0.05 5.4 -0.55 6.2 -0.75 6.0" fill="#d5fffb" fill-rule="evenodd" stroke="none"/>
      <path d="M-0.75 10.15 L-0.75 9.45 0.2 9.55 0.95 9.7 Q3.25 10.15 4.85 10.75 L5.3 10.95 3.5 14.05 3.3 14.4 2.65 15.45 1.1 14.2 0.8 14.05 0.35 13.9 0.25 13.1 -0.25 11.35 -0.5 10.75 -0.75 10.15" fill="#35c1f4" fill-rule="evenodd" stroke="none"/>
      <path d="M-0.75 9.45 L-0.75 8.35 -0.45 8.05 Q0.2 7.4 0.2 6.8 L0.15 6.55 Q0.4 5.4 1.7 3.7 4.2 4.3 7.05 6.6 L8.75 8.1 8.2 8.45 8.1 8.55 4.85 10.75 Q3.25 10.15 0.95 9.7 L0.2 9.55 -0.75 9.45" fill="#3bd1ec" fill-rule="evenodd" stroke="none"/>
      <path d="M8.05 12.25 Q9.55 13.05 11.0 14.1 L8.2 15.8 Q7.55 16.2 6.9 16.7 L5.3 17.85 4.4 16.1 3.8 14.8 3.5 14.05 5.3 10.95 8.05 12.25" fill="#3dc2ef" fill-rule="evenodd" stroke="none"/>
      <path d="M11.0 14.1 L11.3 14.3 12.05 14.85 8.3 17.4 6.25 19.05 6.15 19.15 Q4.6 20.5 3.4 22.65 L2.9 22.25 1.85 21.5 Q3.1 19.65 5.3 17.85 L6.9 16.7 Q7.55 16.2 8.2 15.8 L11.0 14.1" fill="#2eade2" fill-rule="evenodd" stroke="none"/>
      <path d="M5.3 17.85 Q3.1 19.65 1.85 21.5 L1.25 21.05 -0.3 20.15 1.05 18.0 2.2 16.2 2.65 15.45 3.3 14.4 3.5 14.05 3.8 14.8 4.4 16.1 5.3 17.85" fill="#35c1f2" fill-rule="evenodd" stroke="none"/>
      <path d="M-0.75 16.2 L-0.75 10.15 -0.5 10.75 -0.25 11.35 0.25 13.1 0.35 13.9 0.4 14.6 -0.75 16.2" fill="#3ecfec" fill-rule="evenodd" stroke="none"/>
      <path d="M-0.75 19.9 L-0.75 16.2 0.4 14.6 0.35 13.9 0.8 14.05 1.1 14.2 2.65 15.45 2.2 16.2 1.05 18.0 -0.3 20.15 -0.75 19.9" fill="#34c0f3" fill-rule="evenodd" stroke="none"/>
      <path d="M1.85 21.5 L2.9 22.25 3.0 23.0 2.95 23.5 2.85 23.65 2.5 24.5 2.45 24.65 2.4 24.8 2.3 24.8 2.2 24.65 0.7 23.65 0.2 23.3 0.45 23.05 Q1.1 22.05 1.25 21.05 L1.85 21.5" fill="#91e2f3" fill-rule="evenodd" stroke="none"/>
      <path d="M-0.75 22.75 L-0.75 19.9 -0.3 20.15 1.25 21.05 Q1.1 22.05 0.45 23.05 L0.2 23.3 -0.75 22.75" fill="#94eef7" fill-rule="evenodd" stroke="none"/>
      <path d="M-0.75 29.05 L-0.75 22.75 0.2 23.3 0.7 23.65 2.2 24.65 2.3 24.8 1.95 25.25 Q0.6 26.85 -0.75 29.05" fill="#33c5ee" fill-rule="evenodd" stroke="none"/>
      <path d="M2.9 22.25 L3.4 22.65 3.95 23.15 4.45 23.65 3.45 25.6 2.4 24.8 2.45 24.65 2.5 24.5 2.85 23.65 2.95 23.5 3.0 23.0 2.9 22.25" fill="#68c9ec" fill-rule="evenodd" stroke="none"/>
      <path d="M12.85 15.5 L10.45 17.15 9.8 17.65 Q6.5 20.35 4.45 23.65 L3.95 23.15 3.4 22.65 Q4.6 20.5 6.15 19.15 L6.25 19.05 8.3 17.4 12.05 14.85 12.2 14.95 12.85 15.5" fill="#3ba4dd" fill-rule="evenodd" stroke="none"/>
      <path d="M10.45 17.15 L11.4 17.65 Q10.4 18.35 9.4 19.2 L8.05 20.55 7.05 21.6 6.9 21.75 6.25 22.9 5.5 24.3 5.3 24.6 4.7 25.6 4.4 26.4 3.6 29.25 2.45 30.4 1.6 31.35 Q2.1 28.25 3.45 25.6 L4.45 23.65 Q6.5 20.35 9.8 17.65 L10.45 17.15" fill="#7cc3d9" fill-rule="evenodd" stroke="none"/>
      <path d="M15.25 19.25 L14.25 20.05 13.7 20.5 12.0 22.15 Q10.7 23.55 9.75 25.2 8.75 26.9 8.2 28.8 L7.65 31.0 7.65 31.1 7.35 30.9 7.0 30.65 5.4 29.25 5.75 27.75 6.25 25.9 6.55 24.8 6.65 24.4 6.8 23.9 8.8 22.2 Q10.5 20.95 11.9 20.3 L12.6 20.0 12.9 20.5 13.25 19.9 13.9 19.05 13.9 18.95 13.9 18.8 14.1 18.9 15.25 19.25 M8.05 20.55 L9.4 19.2 Q10.4 18.35 11.4 17.65 L12.4 18.15 13.3 18.6 13.2 18.95 11.95 19.7 9.55 21.3 7.05 23.2 Q7.55 21.5 8.05 20.55" fill="#8ff8f3" fill-rule="evenodd" stroke="none"/>
      <path d="M3.6 29.25 L4.4 26.4 4.7 25.6 5.3 24.6 5.5 24.3 6.25 22.9 5.75 25.15 5.3 27.0 5.25 27.2 4.1 31.0 4.8 31.0 6.3 31.35 6.35 31.35 6.85 35.85 6.85 36.1 6.4 36.9 4.7 39.65 4.7 39.6 3.6 38.15 3.5 37.8 3.1 35.7 3.05 34.85 3.05 33.9 Q3.15 31.4 3.6 29.25" fill="#abfcfd" fill-rule="evenodd" stroke="none"/>
      <path d="M11.4 17.65 Q12.5 16.9 13.75 16.2 L14.1 16.0 14.0 16.45 13.3 18.6 12.4 18.15 11.4 17.65 M14.3 15.9 L14.45 15.85 16.7 14.85 16.8 15.0 Q17.5 16.05 19.1 16.9 L16.1 18.6 15.3 19.2 15.25 19.25 14.1 18.9 13.9 18.8 14.1 16.7 14.15 16.6 14.3 15.9" fill="#affefb" fill-rule="evenodd" stroke="none"/>
      <path d="M19.2 24.4 L19.45 24.4 Q21.0 24.4 22.35 24.95 L22.8 25.15 24.55 26.3 24.85 26.55 25.0 26.65 Q27.3 28.95 27.3 32.1 27.3 35.3 25.0 37.55 L24.2 38.25 23.05 38.95 Q21.45 39.8 19.45 39.8 L17.5 39.6 16.35 39.25 15.65 38.9 13.85 37.55 Q12.85 36.55 12.25 35.4 11.55 33.9 11.55 32.1 L11.55 31.9 Q11.65 29.4 13.1 27.5 L13.75 26.75 13.85 26.65 15.35 25.55 15.85 25.2 17.4 24.65 18.0 24.55 18.2 24.5 19.2 24.4 M25.3 28.55 L24.3 27.3 Q22.3 25.3 19.4 25.3 16.5 25.3 14.45 27.3 L13.35 28.75 Q12.4 30.35 12.4 32.25 L12.5 33.35 Q12.8 35.55 14.45 37.2 16.0 38.7 17.95 39.1 L19.4 39.25 21.65 38.9 Q23.1 38.4 24.3 37.2 L25.1 36.35 Q26.4 34.55 26.4 32.25 26.4 30.2 25.3 28.55" fill="#996ea6" fill-rule="evenodd" stroke="none"/>
      <path d="M16.6 27.3 L16.9 27.05 Q16.5 27.15 16.05 27.4 L15.8 27.45 Q14.95 27.8 13.35 28.75 L14.45 27.3 Q16.5 25.3 19.4 25.3 22.3 25.3 24.3 27.3 L25.3 28.55 23.85 28.85 23.2 28.15 22.05 27.4 20.75 26.9 19.05 26.65 Q18.0 26.65 16.6 27.3" fill="#3755c5" fill-rule="evenodd" stroke="none"/>
      <path d="M13.35 28.75 Q14.95 27.8 15.8 27.45 L16.05 27.4 Q16.5 27.15 16.9 27.05 L16.6 27.3 15.85 28.1 Q14.8 29.4 14.55 31.3 L14.45 32.6 14.5 33.1 14.1 33.35 13.45 33.65 12.9 33.5 12.5 33.35 12.4 32.25 Q12.4 30.35 13.35 28.75" fill="#1c55c8" fill-rule="evenodd" stroke="none"/>
      <path d="M15.85 29.8 Q15.85 29.15 16.5 28.5 L16.65 28.4 18.1 28.0 Q18.85 28.0 19.4 28.7 19.9 29.3 19.9 29.9 19.9 30.4 19.3 30.95 L18.85 31.25 17.5 31.6 Q16.75 31.6 16.3 31.15 15.85 30.65 15.85 29.8" fill="#eef8f7" fill-rule="evenodd" stroke="none"/>
      <path d="M16.6 27.3 Q18.0 26.65 19.05 26.65 L20.75 26.9 22.05 27.4 22.05 27.9 Q22.05 29.55 20.75 31.1 L19.2 32.35 17.2 32.75 Q16.25 32.75 15.45 32.25 L14.55 31.3 Q14.8 29.4 15.85 28.1 L16.6 27.3 M15.85 29.8 Q15.85 30.65 16.3 31.15 16.75 31.6 17.5 31.6 L18.85 31.25 19.3 30.95 Q19.9 30.4 19.9 29.9 19.9 29.3 19.4 28.7 18.85 28.0 18.1 28.0 L16.65 28.4 16.5 28.5 Q15.85 29.15 15.85 29.8" fill="#3794d7" fill-rule="evenodd" stroke="none"/>
      <path d="M9.75 25.2 L10.9 26.25 13.1 27.5 Q11.65 29.4 11.55 31.9 L11.55 32.1 Q11.55 33.9 12.25 35.4 L11.55 35.9 Q10.75 36.55 10.05 37.6 L9.8 37.95 9.0 39.6 8.65 40.65 7.85 38.6 7.75 38.3 7.4 36.2 7.3 34.7 Q7.3 32.85 7.65 31.1 L7.65 31.0 8.2 28.8 Q8.75 26.9 9.75 25.2" fill="#b7fffe" fill-rule="evenodd" stroke="none"/>
      <path d="M12.5 33.35 L12.9 33.5 13.45 33.65 14.1 33.35 14.5 33.1 Q14.5 34.35 14.95 35.3 15.35 36.25 16.15 36.95 L17.15 37.7 17.95 39.1 Q16.0 38.7 14.45 37.2 12.8 35.55 12.5 33.35" fill="#1940a7" fill-rule="evenodd" stroke="none"/>
      <path d="M22.05 27.4 L23.2 28.15 23.85 28.85 24.05 29.15 Q24.95 30.3 25.15 31.95 24.75 33.0 23.45 34.3 22.15 35.6 20.6 36.2 L18.4 36.55 Q16.35 36.55 14.95 35.3 14.5 34.35 14.5 33.1 L14.45 32.6 14.55 31.3 15.45 32.25 Q16.25 32.75 17.2 32.75 L19.2 32.35 20.75 31.1 Q22.05 29.55 22.05 27.9 L22.05 27.4" fill="#3099ec" fill-rule="evenodd" stroke="none"/>
      <path d="M24.2 38.25 L24.95 38.8 25.05 38.9 Q28.75 41.4 31.8 41.4 L35.3 41.15 Q37.85 40.7 39.95 39.7 38.4 41.45 36.1 43.05 L35.25 43.65 33.85 44.5 33.75 44.3 32.9 45.0 Q28.65 47.05 24.15 47.05 22.3 47.05 19.6 46.15 L17.85 45.55 16.3 44.9 18.35 44.2 18.45 44.15 19.05 43.8 Q20.0 43.15 20.0 42.35 L19.9 41.95 Q19.4 41.2 17.2 40.7 L17.1 40.65 16.85 40.6 15.0 40.3 14.65 40.25 11.55 40.1 10.2 40.2 10.0 40.25 9.8 40.45 9.75 40.5 Q9.25 41.05 9.1 41.5 L8.65 40.65 9.0 39.6 9.8 37.95 10.05 37.6 Q10.75 36.55 11.55 35.9 L12.25 35.4 Q12.85 36.55 13.85 37.55 L15.65 38.9 16.35 39.25 17.5 39.6 19.45 39.8 Q21.45 39.8 23.05 38.95 L24.2 38.25" fill="#b3fffb" fill-rule="evenodd" stroke="none"/>
      <path d="M14.95 35.3 Q16.35 36.55 18.4 36.55 L20.6 36.2 Q22.15 35.6 23.45 34.3 24.75 33.0 25.15 31.95 L25.15 32.75 Q25.15 34.35 24.05 35.8 L23.6 36.35 Q22.55 37.45 21.25 37.9 L19.3 38.2 Q18.1 38.2 17.15 37.7 L16.15 36.95 Q15.35 36.25 14.95 35.3" fill="#2e8ce4" fill-rule="evenodd" stroke="none"/>
      <path d="M2.3 24.8 L2.4 24.8 3.45 25.6 Q2.1 28.25 1.6 31.35 L1.35 33.5 1.35 33.6 0.1 33.5 Q0.2 31.35 0.7 28.9 1.2 26.6 1.55 26.05 L1.95 25.25 2.3 24.8" fill="#29b6e4" fill-rule="evenodd" stroke="none"/>
      <path d="M-0.75 33.5 L-0.75 29.05 Q0.6 26.85 1.95 25.25 L1.55 26.05 Q1.2 26.6 0.7 28.9 0.2 31.35 0.1 33.5 L-0.15 33.5 -0.25 33.5 -0.75 33.5" fill="#35c7f0" fill-rule="evenodd" stroke="none"/>
      <path d="M1.35 33.6 L1.35 33.5 1.6 31.35 2.45 30.4 3.6 29.25 Q3.15 31.4 3.05 33.9 L3.05 34.85 3.1 35.7 3.5 37.8 3.6 38.15 4.7 39.6 4.65 39.8 4.75 41.6 4.9 43.2 5.05 41.75 5.05 41.55 5.15 40.3 7.65 43.4 8.05 43.85 9.05 45.05 8.8 45.05 8.0 45.1 Q7.05 45.2 6.2 45.7 L5.25 45.05 4.9 44.8 3.0 42.9 2.0 41.6 1.9 41.1 Q1.25 38.45 1.3 35.5 L1.35 33.6" fill="#75e8eb" fill-rule="evenodd" stroke="none"/>
      <path d="M0.1 33.5 L1.35 33.6 1.3 35.5 0.1 35.45 -0.05 35.45 0.0 34.55 -0.15 33.5 0.1 33.5" fill="#5dc5e8" fill-rule="evenodd" stroke="none"/>
      <path d="M0.1 35.45 L1.3 35.5 Q1.25 38.45 1.9 41.1 L1.0 41.65 0.8 40.85 Q0.5 39.8 0.35 38.55 0.15 37.1 0.1 35.45" fill="#26acdf" fill-rule="evenodd" stroke="none"/>
      <path d="M7.35 30.9 L7.65 31.1 Q7.3 32.85 7.3 34.7 L7.4 36.2 7.75 38.3 7.85 38.6 8.65 40.65 9.1 41.5 9.05 41.8 Q9.05 43.3 10.95 44.25 L12.0 44.65 12.1 44.8 Q13.65 45.9 15.75 46.8 17.9 47.75 20.95 48.4 L22.4 48.7 24.45 49.05 25.45 49.2 26.65 49.3 26.9 49.35 27.9 49.45 28.15 49.5 30.65 49.7 31.9 49.75 30.8 49.9 29.25 50.05 27.9 50.15 26.85 50.2 25.8 50.25 24.7 50.25 24.15 50.25 23.45 50.25 22.25 50.2 Q17.3 49.9 13.0 48.65 12.8 47.65 12.15 46.75 11.0 45.15 9.05 45.05 L8.05 43.85 7.65 43.4 5.15 40.3 5.1 40.2 5.25 39.8 5.4 39.45 5.75 38.65 6.6 37.1 7.0 36.65 7.15 36.95 7.1 36.6 7.1 36.55 7.1 36.45 7.05 36.0 7.05 35.75 7.05 35.6 7.0 34.35 7.05 34.15 7.05 33.9 7.25 31.75 7.35 30.9" fill="#b0fafd" fill-rule="evenodd" stroke="none"/>
      <path d="M9.1 41.5 Q9.25 41.05 9.75 40.5 L9.8 40.45 10.0 40.25 10.2 40.2 11.55 40.1 14.65 40.25 14.6 40.5 14.7 40.85 15.25 42.75 15.3 42.9 15.75 44.65 15.8 44.95 14.5 45.05 12.15 44.7 12.0 44.65 10.95 44.25 Q9.05 43.3 9.05 41.8 L9.1 41.5" fill="#f4b0d5" fill-rule="evenodd" stroke="none"/>
      <path d="M1.9 41.1 L2.0 41.6 3.0 42.9 1.95 42.25 1.3 42.8 1.05 41.8 1.0 41.65 1.9 41.1" fill="#3ab1d3" fill-rule="evenodd" stroke="none"/>
      <path d="M-0.75 42.15 L-0.75 38.4 -0.3 38.45 0.35 38.55 Q0.5 39.8 0.8 40.85 L1.0 41.65 1.05 41.8 1.3 42.8 0.95 43.15 0.2 42.75 -0.15 42.5 -0.75 42.15" fill="#43cfea" fill-rule="evenodd" stroke="none"/>
      <path d="M-0.75 42.65 L-0.75 42.15 -0.15 42.5 0.2 42.75 0.95 43.15 1.15 43.3 1.1 43.65 0.75 43.75 0.7 43.75 0.55 43.55 0.45 43.45 -0.7 42.65 -0.75 42.65" fill="#56e2f1" fill-rule="evenodd" stroke="none"/>
      <path d="M1.3 42.8 L1.95 42.25 3.0 42.9 4.9 44.8 5.25 45.05 6.2 45.7 5.9 45.9 5.65 46.05 5.55 46.15 4.55 46.6 4.2 46.7 3.3 46.85 2.9 46.85 2.15 46.75 1.7 46.1 1.45 45.8 1.2 46.0 Q1.05 45.8 1.05 45.15 L1.05 44.8 1.1 44.15 1.1 43.65 1.15 43.3 0.95 43.15 1.3 42.8" fill="#33b5d9" fill-rule="evenodd" stroke="none"/>
      <path d="M-0.75 45.15 L-0.75 42.65 -0.7 42.65 0.45 43.45 0.55 43.55 0.7 43.75 0.5 43.75 0.65 44.65 0.6 45.8 0.55 46.15 0.55 46.3 0.3 45.75 0.3 45.7 0.25 45.65 0.2 45.55 0.05 45.1 -0.75 45.15" fill="#48dce0" fill-rule="evenodd" stroke="none"/>
      <path d="M0.7 43.75 L0.75 43.75 1.1 43.65 1.1 44.15 1.05 44.8 1.05 45.15 Q1.05 45.8 1.2 46.0 L1.1 46.05 0.8 46.2 0.7 46.3 0.6 46.35 0.55 46.35 0.55 46.3 0.55 46.15 0.6 45.8 0.65 44.65 0.5 43.75 0.7 43.75" fill="#60def5" fill-rule="evenodd" stroke="none"/>
      <path d="M-0.75 45.9 L-0.75 45.15 0.05 45.1 0.2 45.55 0.25 45.65 0.3 45.7 0.3 45.75 0.55 46.3 0.55 46.35 0.2 46.3 -0.55 45.95 -0.75 45.9" fill="#9bf9ff" fill-rule="evenodd" stroke="none"/>
      <path d="M4.2 48.5 L3.45 48.5 3.2 48.5 0.6 48.3 0.2 47.5 -0.15 46.65 -0.55 45.95 0.2 46.3 0.55 46.35 0.6 46.35 2.45 47.15 3.25 47.55 3.6 47.75 4.3 48.1 4.25 48.35 4.2 48.5" fill="#a5eefd" fill-rule="evenodd" stroke="none"/>
      <path d="M1.2 46.0 L1.45 45.8 1.7 46.1 2.15 46.75 2.45 47.15 0.6 46.35 0.7 46.3 0.8 46.2 1.1 46.05 1.2 46.0" fill="#69dbf6" fill-rule="evenodd" stroke="none"/>
      <path d="M2.15 46.75 L2.9 46.85 3.3 46.85 4.2 46.7 4.55 46.6 5.55 46.15 Q4.55 46.9 4.3 48.1 L3.6 47.75 3.25 47.55 2.45 47.15 2.15 46.75" fill="#33d4e8" fill-rule="evenodd" stroke="none"/>
      <path d="M0.6 48.3 L0.35 48.25 -0.75 48.05 -0.75 45.9 -0.55 45.95 -0.15 46.65 0.2 47.5 0.6 48.3" fill="#41d3e2" fill-rule="evenodd" stroke="none"/>
      <path d="M3.4 50.15 L3.7 50.15 4.2 50.25 4.15 49.3 4.2 48.5 4.25 48.35 4.3 48.1 Q4.55 46.9 5.55 46.15 L5.65 46.05 5.9 45.9 6.2 45.7 Q7.05 45.2 8.0 45.1 L7.8 46.55 7.8 46.65 7.8 46.9 Q7.15 47.05 6.5 47.5 L6.15 47.75 5.7 48.2 5.6 48.35 5.05 49.15 Q4.8 49.65 4.8 50.25 L4.85 50.65 5.15 51.45 5.4 51.75 4.9 51.5 Q4.45 51.3 4.05 50.9 L3.45 50.2 3.4 50.15" fill="#82f3ef" fill-rule="evenodd" stroke="none"/>
      <path d="M8.0 45.1 L8.8 45.05 9.05 45.05 Q11.0 45.15 12.15 46.75 12.8 47.65 13.0 48.65 L13.1 49.65 12.9 50.35 12.65 50.5 12.35 50.75 12.3 50.6 12.25 50.15 Q12.0 49.05 11.55 48.3 L11.65 48.25 11.65 47.75 11.65 47.7 11.2 46.75 Q10.9 46.4 10.6 46.3 L10.15 46.3 9.9 46.55 9.85 46.6 9.75 46.75 9.75 46.9 8.9 46.75 8.15 46.8 8.05 46.85 7.8 46.9 7.8 46.65 7.8 46.55 8.0 45.1" fill="#a8e6f1" fill-rule="evenodd" stroke="none"/>
      <path d="M5.15 51.45 L4.85 50.65 4.8 50.25 Q4.8 49.65 5.05 49.15 L5.6 48.35 5.7 48.2 6.15 47.75 6.5 47.5 6.9 48.05 7.0 48.15 7.3 48.45 Q8.65 49.95 10.15 50.45 L10.15 50.5 8.05 51.0 7.85 51.1 6.15 52.15 5.15 51.45" fill="#37dcce" fill-rule="evenodd" stroke="none"/>
      <path d="M10.15 50.45 Q8.65 49.95 7.3 48.45 L7.0 48.15 6.9 48.05 6.5 47.5 Q7.15 47.05 7.8 46.9 L8.05 46.85 8.15 46.8 8.9 46.75 9.75 46.9 9.9 47.6 10.0 47.7 10.05 47.75 Q10.4 48.25 11.2 48.45 L11.55 48.3 Q12.0 49.05 12.25 50.15 L10.35 50.4 10.2 50.45 10.15 50.45" fill="#3aecca" fill-rule="evenodd" stroke="none"/>
      <path d="M11.55 48.3 L11.2 48.45 Q10.4 48.25 10.05 47.75 L10.0 47.7 9.9 47.6 9.75 46.9 9.75 46.75 9.85 46.6 9.9 46.55 10.15 46.3 10.6 46.3 Q10.9 46.4 11.2 46.75 L11.65 47.7 11.65 47.75 11.65 48.25 11.55 48.3" fill="#e0ffff" fill-rule="evenodd" stroke="none"/>
      <path d="M17.15 37.7 Q18.1 38.2 19.3 38.2 L21.25 37.9 Q22.55 37.45 23.6 36.35 L24.05 35.8 24.3 35.95 25.1 36.35 24.3 37.2 Q23.1 38.4 21.65 38.9 L19.4 39.25 17.95 39.1 17.15 37.7" fill="#1f3d85" fill-rule="evenodd" stroke="none"/>
      <path d="M14.65 40.25 L15.0 40.3 16.85 40.6 17.1 40.65 18.3 42.35 18.6 42.95 19.05 43.8 18.45 44.15 18.35 44.2 16.3 44.9 15.8 44.95 15.75 44.65 15.3 42.9 15.25 42.75 14.7 40.85 14.6 40.5 14.65 40.25" fill="#efbedb" fill-rule="evenodd" stroke="none"/>
      <path d="M17.1 40.65 L17.2 40.7 Q19.4 41.2 19.9 41.95 L20.0 42.35 Q20.0 43.15 19.05 43.8 L18.6 42.95 18.3 42.35 17.1 40.65" fill="#e4bfe0" fill-rule="evenodd" stroke="none"/>
      <path d="M-0.75 38.4 L-0.75 35.4 -0.05 35.45 0.1 35.45 Q0.15 37.1 0.35 38.55 L-0.3 38.45 -0.75 38.4" fill="#30c4f4" fill-rule="evenodd" stroke="none"/>
      <path d="M23.85 28.85 L25.3 28.55 Q26.4 30.2 26.4 32.25 26.4 34.55 25.1 36.35 L24.3 35.95 24.05 35.8 Q25.15 34.35 25.15 32.75 L25.15 31.95 Q24.95 30.3 24.05 29.15 L23.85 28.85" fill="#2f4fbe" fill-rule="evenodd" stroke="none"/>
      <path d="M32.9 45.0 L33.75 44.3 33.85 44.5 34.15 44.9 35.2 45.9 35.6 46.15 35.2 46.25 33.0 46.55 30.65 46.4 32.0 45.6 32.9 45.0" fill="#5d7da4" fill-rule="evenodd" stroke="none"/>
      <path d="M18.6 54.1 L18.4 54.1 18.6 53.2 Q18.6 52.25 17.75 51.25 16.65 50.05 14.9 50.05 L14.6 50.05 13.6 50.35 14.6 50.05 13.65 50.35 13.6 50.35 13.45 50.4 13.15 50.45 12.85 50.45 12.9 50.35 12.85 50.45 13.15 50.45 12.65 50.5 12.9 50.35 13.1 49.65 13.0 48.65 Q17.3 49.9 22.25 50.2 L23.45 50.25 Q22.7 50.6 21.9 51.2 L21.0 51.8 Q19.35 53.0 18.6 54.1 M39.1 48.45 Q38.75 48.9 38.6 49.5 L38.45 50.15 38.35 50.95 38.35 51.1 38.4 51.45 38.45 51.65 38.25 51.5 38.05 51.4 37.35 51.25 36.0 51.65 35.8 51.35 34.3 49.4 36.95 48.75 39.1 48.45" fill="#2384e2" fill-rule="evenodd" stroke="none"/>
      <path d="M38.6 49.5 L39.85 50.2 40.1 50.3 Q39.85 50.75 39.85 51.4 L40.1 52.6 40.15 52.8 40.0 52.7 39.9 52.6 39.35 52.05 38.45 51.1 38.45 50.3 38.45 50.15 38.6 49.5" fill="#61eee8" fill-rule="evenodd" stroke="none"/>
      <path d="M37.95 54.1 L36.65 54.1 37.0 53.6 37.05 53.5 36.85 53.05 36.7 53.0 36.45 52.9 36.4 52.9 36.2 52.95 36.25 52.85 36.55 52.65 36.75 52.6 38.15 51.55 38.25 51.5 38.45 51.65 38.4 51.45 38.35 51.1 38.35 50.95 38.45 50.15 38.45 50.3 38.45 51.1 38.45 51.45 38.45 51.65 38.45 52.0 Q38.4 53.1 37.95 54.1 M36.15 54.1 L35.4 54.1 35.6 53.85 36.0 53.35 35.95 53.6 36.15 54.1" fill="#2ba9c2" fill-rule="evenodd" stroke="none"/>
      <path d="M38.45 51.1 L39.35 52.05 39.9 52.6 39.95 52.75 40.1 53.5 39.6 53.2 38.75 52.35 38.45 52.0 38.45 51.65 38.45 51.45 38.45 51.1" fill="#3ba0ca" fill-rule="evenodd" stroke="none"/>
      <path d="M35.4 54.1 L34.75 54.1 34.75 53.7 Q34.85 53.0 35.35 52.35 L36.0 51.65 37.35 51.25 38.05 51.4 38.25 51.5 38.15 51.55 36.75 52.6 36.55 52.65 36.25 52.85 36.2 52.95 36.0 53.35 35.6 53.85 35.4 54.1" fill="#40afc3" fill-rule="evenodd" stroke="none"/>
      <path d="M39.55 54.1 L37.95 54.1 Q38.4 53.1 38.45 52.0 L38.75 52.35 39.6 53.2 39.6 53.5 39.55 54.1" fill="#5cbce2" fill-rule="evenodd" stroke="none"/>
      <path d="M34.75 54.1 L34.1 54.1 33.6 54.0 32.8 52.65 31.5 50.8 30.8 49.9 31.9 49.75 34.3 49.4 35.8 51.35 36.0 51.65 35.35 52.35 Q34.85 53.0 34.75 53.7 L34.75 54.1 M20.55 54.1 L18.6 54.1 Q19.35 53.0 21.0 51.8 L21.9 51.2 Q22.7 50.6 23.45 50.25 L24.15 50.25 22.2 52.0 21.2 53.1 20.6 54.0 20.55 54.1" fill="#1969b0" fill-rule="evenodd" stroke="none"/>
      <path d="M36.65 54.1 L36.15 54.1 35.95 53.6 36.0 53.35 36.2 52.95 36.4 52.9 36.45 52.9 36.7 53.0 36.85 53.05 37.05 53.5 37.0 53.6 36.65 54.1" fill="#7ee1e7" fill-rule="evenodd" stroke="none"/>
      <path d="M41.5 54.1 L39.55 54.1 39.6 53.5 39.6 53.2 40.1 53.5 39.95 52.75 39.9 52.6 40.0 52.7 40.15 52.8 Q40.7 53.25 41.2 53.3 L41.3 53.6 41.5 54.1" fill="#4cc9f5" fill-rule="evenodd" stroke="none"/>
      <path d="M40.15 52.8 L40.1 52.6 Q40.4 52.3 40.85 52.1 L41.2 53.3 Q40.7 53.25 40.15 52.8" fill="#3ac6dd" fill-rule="evenodd" stroke="none"/>
      <path d="M29.25 50.05 L30.8 49.9 31.5 50.8 32.8 52.65 32.4 53.0 31.85 53.7 31.8 53.75 31.75 53.7 30.2 51.4 29.3 50.1 29.25 50.05" fill="#90fdff" fill-rule="evenodd" stroke="none"/>
      <path d="M33.65 54.1 L32.1 54.1 31.8 53.75 31.85 53.7 32.4 53.0 32.8 52.65 33.6 54.0 33.65 54.1" fill="#a0faff" fill-rule="evenodd" stroke="none"/>
      <path d="M32.1 54.1 L31.15 54.1 30.7 53.6 30.3 53.3 29.05 52.5 29.15 52.4 29.4 52.25 30.2 51.4 31.75 53.7 31.8 53.75 32.1 54.1" fill="#68f4f1" fill-rule="evenodd" stroke="none"/>
      <path d="M31.15 54.1 L30.15 54.1 29.15 53.7 27.9 53.55 27.65 53.6 28.05 52.75 28.3 52.3 29.05 52.5 30.3 53.3 30.7 53.6 31.15 54.1" fill="#c0fdff" fill-rule="evenodd" stroke="none"/>
      <path d="M30.15 54.1 L27.7 54.1 27.65 54.0 27.65 53.85 27.65 53.8 27.6 53.7 27.6 53.6 27.65 53.6 27.9 53.55 29.15 53.7 30.15 54.1" fill="#4b3714" fill-rule="evenodd" stroke="none"/>
      <path d="M34.1 54.1 L33.65 54.1 33.6 54.0 34.1 54.1" fill="#42cfeb" fill-rule="evenodd" stroke="none"/>
      <path d="M27.9 50.15 L29.25 50.05 29.3 50.1 30.2 51.4 29.4 52.25 29.15 52.4 29.05 52.5 28.3 52.3 28.05 52.75 27.85 51.45 27.85 51.1 27.9 50.15" fill="#4ee6eb" fill-rule="evenodd" stroke="none"/>
      <path d="M26.85 50.2 L27.9 50.15 27.85 51.1 27.85 51.45 28.05 52.75 27.65 53.6 27.6 53.6 27.4 53.6 27.2 53.3 26.85 52.7 26.8 52.5 26.85 50.3 26.85 50.2" fill="#7bfffd" fill-rule="evenodd" stroke="none"/>
      <path d="M25.8 50.25 L26.85 50.2 26.85 50.3 Q25.3 51.3 23.8 53.35 L23.65 52.9 25.8 50.25" fill="#23d1d2" fill-rule="evenodd" stroke="none"/>
      <path d="M24.9 54.1 L23.25 54.1 23.8 53.35 Q25.3 51.3 26.85 50.3 L26.8 52.5 26.7 52.35 Q25.95 52.5 24.9 54.1" fill="#38fdf4" fill-rule="evenodd" stroke="none"/>
      <path d="M26.05 54.1 L24.9 54.1 Q25.95 52.5 26.7 52.35 L26.8 52.5 26.85 52.7 27.2 53.3 27.4 53.6 26.05 54.1" fill="#41d8d3" fill-rule="evenodd" stroke="none"/>
      <path d="M27.7 54.1 L26.05 54.1 27.4 53.6 27.6 53.6 27.6 53.7 27.65 53.8 27.65 53.85 27.65 54.0 27.7 54.1" fill="#362a2e" fill-rule="evenodd" stroke="none"/>
      <path d="M22.8 54.1 L21.6 54.1 21.2 53.1 22.2 52.0 24.15 50.25 24.7 50.25 25.8 50.25 23.65 52.9 22.8 54.1" fill="#1fa6c4" fill-rule="evenodd" stroke="none"/>
      <path d="M23.25 54.1 L22.8 54.1 23.65 52.9 23.8 53.35 23.25 54.1" fill="#17c3cf" fill-rule="evenodd" stroke="none"/>
      <path d="M21.6 54.1 L20.55 54.1 20.6 54.0 21.2 53.1 21.6 54.1" fill="#31a9db" fill-rule="evenodd" stroke="none"/>
      <path d="M16.35 52.3 L16.4 52.0 16.75 51.95 17.2 52.05 Q17.6 52.3 17.6 53.0 17.6 53.55 17.2 53.65 L16.95 53.7 Q16.75 53.7 16.6 53.5 16.3 53.2 16.3 52.6 L16.35 52.3" fill="#8af2f3" fill-rule="evenodd" stroke="none"/>
      <path d="M18.4 54.1 L17.4 54.1 17.2 53.65 Q17.6 53.55 17.6 53.0 17.6 52.3 17.2 52.05 L16.75 51.95 16.4 52.0 16.35 52.3 Q15.0 50.6 13.65 50.35 L14.6 50.05 14.9 50.05 Q16.65 50.05 17.75 51.25 18.6 52.25 18.6 53.2 L18.4 54.1" fill="#86c7e7" fill-rule="evenodd" stroke="none"/>
      <path d="M17.4 54.1 L16.1 54.1 15.8 53.9 Q14.7 53.2 13.75 53.25 L13.5 52.75 Q13.35 52.15 13.35 51.35 L13.45 50.4 13.6 50.35 13.65 50.35 Q15.0 50.6 16.35 52.3 L16.3 52.6 Q16.3 53.2 16.6 53.5 16.75 53.7 16.95 53.7 L17.2 53.65 17.4 54.1" fill="#65e5e6" fill-rule="evenodd" stroke="none"/>
      <path d="M16.1 54.1 L15.8 54.1 15.8 53.9 16.1 54.1" fill="#25a1dd" fill-rule="evenodd" stroke="none"/>
      <path d="M6.15 52.15 L7.85 51.1 8.05 51.0 10.15 50.5 10.15 50.45 10.2 50.45 11.4 50.6 12.3 50.6 12.35 50.75 12.65 50.5 13.15 50.45 13.45 50.4 13.35 51.35 Q13.35 52.15 13.5 52.75 12.5 52.85 11.35 53.25 L11.25 53.3 10.65 53.5 Q8.55 53.35 7.35 52.8 L7.2 52.75 6.15 52.15" fill="#3cddd7" fill-rule="evenodd" stroke="none"/>
      <path d="M12.3 50.6 L11.4 50.6 10.2 50.45 10.35 50.4 12.25 50.15 12.3 50.6" fill="#55e3d5" fill-rule="evenodd" stroke="none"/>
      <path d="M15.8 54.1 L9.4 54.1 Q9.85 53.85 10.45 53.6 L10.65 53.5 11.25 53.3 11.35 53.25 Q12.5 52.85 13.5 52.75 L13.75 53.25 Q14.7 53.2 15.8 53.9 L15.8 54.1" fill="#35c1f6" fill-rule="evenodd" stroke="none"/>
      <path d="M9.4 54.1 L6.05 54.1 7.35 52.8 Q8.55 53.35 10.65 53.5 L10.45 53.6 Q9.85 53.85 9.4 54.1" fill="#34bbea" fill-rule="evenodd" stroke="none"/>
      <path d="M6.05 54.1 L4.9 54.1 3.45 51.15 4.05 50.9 Q4.45 51.3 4.9 51.5 L5.4 51.75 5.15 51.45 6.15 52.15 7.2 52.75 7.35 52.8 6.05 54.1" fill="#38d4e1" fill-rule="evenodd" stroke="none"/>
      <path d="M4.9 54.1 L1.7 54.1 Q2.95 52.7 3.05 51.15 L3.4 51.15 3.45 51.15 4.9 54.1" fill="#3dcadc" fill-rule="evenodd" stroke="none"/>
      <path d="M-0.75 52.45 L-0.75 50.55 Q0.8 49.85 2.15 50.0 L2.55 50.05 2.85 50.1 3.4 50.15 3.45 50.2 4.05 50.9 3.45 51.15 3.4 51.15 3.05 51.15 1.8 51.35 1.8 51.55 1.5 52.0 0.7 52.25 0.1 52.0 -0.75 52.45" fill="#cbffff" fill-rule="evenodd" stroke="none"/>
      <path d="M1.7 54.1 L-0.75 54.1 -0.75 52.45 0.1 52.0 0.7 52.25 1.5 52.0 1.8 51.55 1.8 51.35 3.05 51.15 Q2.95 52.7 1.7 54.1" fill="#64dbbf" fill-rule="evenodd" stroke="none"/>
      <path d="M45.25 50.4 L45.45 50.35 Q46.95 50.35 46.95 51.45 46.95 52.35 45.25 53.1 L44.7 53.3 44.9 52.5 45.25 50.4" fill="#6bd7f1" fill-rule="evenodd" stroke="none"/>
      <path d="M44.45 48.65 L44.8 49.55 45.3 49.45 45.25 50.4 44.9 52.5 44.7 53.3 44.35 54.1 43.2 54.1 44.0 52.05 44.3 50.8 44.45 48.65" fill="#225c8a" fill-rule="evenodd" stroke="none"/>
      <path d="M43.2 54.1 L41.5 54.1 41.3 53.6 41.2 53.3 40.85 52.1 41.4 52.0 42.4 51.85 42.45 51.85 44.0 52.05 43.2 54.1" fill="#3acae2" fill-rule="evenodd" stroke="none"/>
      <path d="M-0.75 8.3 L-0.75 6.0 -0.55 6.2 -0.45 6.3 Q-0.1 6.7 -0.1 7.15 -0.25 8.0 -0.75 8.3" fill="#eaffff" fill-rule="evenodd" stroke="none"/>
      <path d="M-0.75 35.4 L-0.75 33.5 -0.25 33.5 -0.15 33.5 0.0 34.55 -0.05 35.45 -0.75 35.4" fill="#7ee2ff" fill-rule="evenodd" stroke="none"/>
      <path d="M-0.7 42.65 L-0.75 42.65 -0.7 42.65" fill="#46e0e2" fill-rule="evenodd" stroke="none"/>
      <path d="M41.6 -1.3 L42.05 -0.3 42.4 0.45 42.8 1.45 43.85 5.3 44.35 8.85 46.0 8.75 Q48.25 8.9 50.7 10.9 52.6 12.4 54.6 15.05 M54.6 40.3 Q52.5 42.4 49.55 44.3 L48.75 44.75 Q46.15 46.3 43.4 47.25 L43.85 47.75 44.05 48.0 44.45 48.65 44.8 49.55 45.3 49.45 45.5 49.4 46.05 49.5 46.8 49.85 Q47.8 50.45 47.8 51.55 47.8 53.1 44.7 54.1 M-0.75 50.55 Q0.8 49.85 2.15 50.0 L2.55 50.05 M2.85 50.1 L3.4 50.15 3.7 50.15 4.2 50.25 4.15 49.3 4.2 48.5 3.45 48.5 3.2 48.5 0.6 48.3 0.35 48.25 -0.75 48.05 M26.1 4.6 L25.9 3.8 26.1 3.35 27.2 2.3 27.3 2.3 27.35 2.25 27.65 2.1 27.75 2.05 28.9 1.6 29.75 1.4 30.25 1.7 30.9 2.5 30.95 2.55 Q31.7 3.65 31.7 5.0 L31.5 6.15 31.5 6.3 Q31.1 7.25 30.05 7.8 L29.6 8.05 29.25 8.2 28.9 8.3 28.2 8.4 25.55 8.05 24.8 7.75 24.3 7.45 23.2 6.65 M35.6 -0.05 L35.1 -0.7 34.6 -1.3 M35.6 -0.05 L35.95 0.65 Q37.2 3.05 37.4 6.8 L37.2 9.75 Q36.65 12.0 35.05 13.6 L34.95 13.7 34.35 14.2 34.1 14.35 32.5 15.35 Q29.5 16.9 25.25 16.75 L24.8 16.7 M42.95 9.15 L44.25 8.85 44.35 8.85 M42.95 9.15 Q41.55 9.65 40.4 10.75 L39.85 11.35 39.7 11.5 Q38.35 13.15 37.85 14.95 L38.45 15.3 39.35 15.95 39.5 16.05 40.65 16.95 43.2 19.65 45.3 22.45 46.65 24.7 Q48.0 27.2 48.55 29.65 L49.0 32.95 49.0 33.5 49.0 35.35 48.85 39.95 48.7 41.5 48.55 42.2 48.45 42.3 47.25 43.5 46.7 43.9 46.25 44.3 42.2 46.75 Q42.8 46.8 43.3 47.15 L43.35 47.25 43.4 47.25 M47.55 32.5 Q47.3 31.3 46.55 30.35 45.3 28.85 43.6 28.85 L43.25 28.9 Q41.8 29.0 40.7 30.35 L40.25 31.05 40.0 31.6 Q39.5 32.7 39.5 34.05 39.5 36.2 40.7 37.7 L41.45 38.45 Q42.4 39.25 43.6 39.25 45.3 39.25 46.55 37.7 L46.75 37.45 Q47.75 36.0 47.75 34.05 L47.55 32.5 M42.0 46.75 L42.2 46.75 M40.45 47.15 L39.7 47.75 39.55 47.9 39.1 48.45 Q38.75 48.9 38.6 49.5 L38.45 50.15 38.35 50.95 38.35 51.1 38.4 51.45 38.45 51.65 38.25 51.5 38.05 51.4 37.35 51.25 36.0 51.65 35.35 52.35 Q34.85 53.0 34.75 53.7 L34.75 54.1 M42.0 46.75 Q41.15 46.75 40.45 47.15 M26.2 4.9 L26.5 5.4 26.9 5.8 M26.1 4.6 L26.2 4.9 M21.2 2.65 L21.15 3.0 21.25 3.75 Q21.55 5.05 22.9 6.35 L23.0 6.45 M24.85 12.0 L23.8 12.05 21.2 12.35 20.8 12.45 17.9 13.2 Q16.35 13.75 14.85 14.45 L14.55 14.6 12.85 15.5 10.45 17.15 9.8 17.65 Q6.5 20.35 4.45 23.65 L3.45 25.6 Q2.1 28.25 1.6 31.35 L1.35 33.5 1.35 33.6 1.3 35.5 Q1.25 38.45 1.9 41.1 L2.0 41.6 3.0 42.9 4.9 44.8 5.25 45.05 6.2 45.7 Q7.05 45.2 8.0 45.1 L8.8 45.05 9.05 45.05 Q11.0 45.15 12.15 46.75 12.8 47.65 13.0 48.65 17.3 49.9 22.25 50.2 L23.45 50.25 24.15 50.25 24.7 50.25 25.8 50.25 26.85 50.2 27.9 50.15 29.25 50.05 30.8 49.9 31.9 49.75 34.3 49.4 36.95 48.75 39.1 48.45 M35.35 13.75 L35.05 13.6 M37.85 14.95 Q36.65 14.25 35.35 13.75 M21.2 2.65 Q21.3 0.35 23.35 -1.3 M12.2 14.95 L12.85 15.5 M8.05 12.25 Q9.55 13.05 11.0 14.1 L11.3 14.3 12.05 14.85 12.2 14.95 M4.85 10.75 Q3.25 10.15 0.95 9.7 L0.2 9.55 -0.75 9.45 M5.3 10.95 L8.05 12.25 M5.3 10.95 L4.85 10.75 M25.3 28.55 L24.3 27.3 Q22.3 25.3 19.4 25.3 16.5 25.3 14.45 27.3 L13.35 28.75 Q12.4 30.35 12.4 32.25 L12.5 33.35 Q12.8 35.55 14.45 37.2 16.0 38.7 17.95 39.1 L19.4 39.25 21.65 38.9 Q23.1 38.4 24.3 37.2 L25.1 36.35 Q26.4 34.55 26.4 32.25 26.4 30.2 25.3 28.55 M32.9 45.0 L33.75 44.3 33.85 44.5 34.15 44.9 35.2 45.9 35.6 46.15 36.4 46.3 M5.55 46.15 L5.65 46.05 5.9 45.9 6.2 45.7 M4.2 48.5 L4.25 48.35 4.3 48.1 Q4.55 46.9 5.55 46.15 M29.65 46.75 L30.15 46.6 30.65 46.4 32.0 45.6 32.9 45.0 M30.65 46.4 L33.0 46.55 35.2 46.25 35.6 46.15 M39.55 47.9 L36.95 48.75 M32.8 52.65 L31.5 50.8 30.8 49.9 M32.8 52.65 L33.6 54.0 33.65 54.1 M20.55 54.1 L20.6 54.0 21.2 53.1 22.2 52.0 24.15 50.25 M14.6 50.05 L14.9 50.05 Q16.65 50.05 17.75 51.25 18.6 52.25 18.6 53.2 L18.4 54.1 M13.6 50.35 L14.6 50.05 M12.9 50.35 L13.1 49.65 13.0 48.65 M12.9 50.35 L12.85 50.45 13.15 50.45" fill="none" stroke="#1b2a63" stroke-linecap="round" stroke-linejoin="round" stroke-width="1.0"/>
    </g>
    <g id="shape2" transform="matrix(1.0, 0.0, 0.0, 1.0, 0.0, 0.0)">
      <path d="M50.5 0.0 Q53.95 0.0 53.95 3.3 L53.95 50.15 Q53.95 53.4 50.5 53.4 L3.3 53.4 Q0.0 53.4 0.0 50.15 L0.0 3.3 Q0.0 0.0 3.3 0.0 L50.5 0.0" fill="#000000" fill-opacity="0.003921569" fill-rule="evenodd" stroke="none"/>
    </g>
  </defs>
</svg>
