<?xml version="1.0" encoding="UTF-8" standalone="no"?>
<svg xmlns:ffdec="https://www.free-decompiler.com/flash" xmlns:xlink="http://www.w3.org/1999/xlink" ffdec:objectType="frame" height="58.3px" width="57.3px" xmlns="http://www.w3.org/2000/svg">
  <g transform="matrix(1.0, 0.0, 0.0, 1.0, 1.95, 3.7)">
    <clipPath id="clipPath0" transform="matrix(1.0, 0.0, 0.0, 1.0, 0.0, 0.0)">
      <path d="M50.5 0.0 Q53.95 0.0 53.95 3.3 L53.95 50.15 Q53.95 53.4 50.5 53.4 L3.3 53.4 Q0.0 53.4 0.0 50.15 L0.0 3.3 Q0.0 0.0 3.3 0.0 L50.5 0.0" fill="#000000" fill-rule="evenodd" stroke="none"/>
    </clipPath>
    <g clip-path="url(#clipPath0)">
      <use ffdec:characterId="2" height="58.3" transform="matrix(1.0, 0.0, 0.0, 1.0, -1.95, -3.7)" width="57.3" xlink:href="#shape1"/>
    </g>
    <use ffdec:characterId="3" height="53.4" transform="matrix(1.0, 0.0, 0.0, 1.0, 0.0, 0.0)" width="53.95" xlink:href="#shape2"/>
  </g>
  <defs>
    <g id="shape1" transform="matrix(1.0, 0.0, 0.0, 1.0, 1.95, 3.7)">
      <path d="M45.4 0.35 L48.45 -0.15 50.9 0.1 Q52.15 0.3 53.4 0.8 L54.85 4.8 54.85 4.9 51.7 3.15 51.7 2.85 52.15 2.3 51.95 1.6 50.55 1.35 49.55 1.4 48.8 1.7 45.4 0.35" fill="#aa78e7" fill-rule="evenodd" stroke="none"/>
      <path d="M51.7 2.85 L51.7 2.4 Q51.3 2.5 50.85 2.75 L50.35 2.5 48.8 1.7 49.55 1.4 50.55 1.35 51.95 1.6 52.15 2.3 51.7 2.85" fill="#ddc2ff" fill-rule="evenodd" stroke="none"/>
      <path d="M41.0 3.2 Q41.85 2.15 43.1 1.4 44.25 0.75 45.4 0.35 L48.8 1.7 48.7 1.95 49.05 2.5 Q49.5 2.85 50.2 2.95 L49.95 3.05 49.85 3.1 Q46.9 4.1 45.35 4.1 L44.2 3.95 41.0 3.2 M54.85 4.9 L54.85 9.75 50.5 7.7 Q51.5 5.4 51.7 3.15 L54.85 4.9" fill="#8287e2" fill-rule="evenodd" stroke="none"/>
      <path d="M48.8 1.7 L50.35 2.5 50.85 2.75 50.2 2.95 Q49.5 2.85 49.05 2.5 L48.7 1.95 48.8 1.7" fill="#adb1ff" fill-rule="evenodd" stroke="none"/>
      <path d="M0.0 -0.35 L0.75 0.2 3.45 1.7 2.7 2.15 0.05 0.55 -0.65 0.2 -1.45 -0.1 -1.45 -1.45 0.0 -0.35 M33.4 10.85 L35.0 11.15 35.95 11.35 35.95 12.1 Q36.0 15.05 36.45 16.4 38.7 15.95 41.45 14.05 L43.75 16.1 43.65 16.15 Q41.45 17.65 38.85 18.3 L38.15 20.0 37.45 19.9 34.95 19.65 32.05 19.8 32.05 19.7 32.05 19.05 32.05 18.3 31.8 16.35 Q31.15 13.2 29.0 10.65 L29.6 10.55 32.25 10.7 33.0 13.9 33.05 14.15 33.1 14.25 33.6 14.55 33.55 13.8 33.4 10.85" fill="#baadd4" fill-rule="evenodd" stroke="none"/>
      <path d="M2.6 -2.8 L0.0 -0.35 -1.45 -1.45 -1.45 -1.8 Q0.2 -1.85 2.6 -2.8 M-1.45 0.9 L-1.45 -0.1 -0.65 0.2 -1.45 0.9" fill="#4d63b6" fill-rule="evenodd" stroke="none"/>
      <path d="M3.45 1.7 L3.55 1.7 4.65 2.3 5.1 2.5 5.75 2.8 6.35 3.1 8.55 3.9 9.35 4.1 12.15 3.45 16.15 2.95 20.05 3.15 21.7 3.35 24.1 3.9 26.6 4.8 Q25.35 2.15 23.1 -1.25 L22.6 -2.0 21.75 -3.2 26.3 -3.2 26.4 -3.1 26.9 -2.55 28.45 0.25 30.4 4.75 31.7 8.55 32.15 10.2 32.25 10.7 29.6 10.55 29.0 10.65 28.9 10.55 28.15 9.7 26.5 8.35 Q24.65 7.1 22.25 6.4 L19.2 5.85 16.55 5.7 Q12.65 5.7 8.7 7.6 L7.75 8.05 6.5 6.05 4.25 3.55 4.15 3.45 3.4 2.75 2.7 2.2 2.7 2.15 3.45 1.7 M34.9 -3.2 L37.8 -3.2 37.2 0.55 37.1 0.85 36.65 1.8 36.95 1.95 37.2 2.05 36.75 3.9 36.4 6.05 36.2 7.5 35.95 11.15 35.95 11.35 35.0 11.15 33.4 10.85 33.35 9.4 33.45 3.3 34.35 -0.6 34.9 -3.2 M50.85 2.75 Q51.3 2.5 51.7 2.4 L51.7 2.85 51.7 3.15 Q51.5 5.4 50.5 7.7 L49.65 9.4 47.85 12.15 45.6 14.65 43.75 16.1 41.45 14.05 42.15 13.55 43.4 12.65 43.9 12.15 Q46.2 10.05 47.9 7.2 L48.15 6.75 49.95 3.05 50.2 2.95 50.85 2.75" fill="#eeeef0" fill-rule="evenodd" stroke="none"/>
      <path d="M14.7 -3.2 Q15.3 -1.8 15.95 -0.85 L11.95 -1.45 8.1 -2.0 6.15 -1.8 5.6 -1.7 7.2 -2.35 8.9 -3.2 14.7 -3.2 M54.85 29.25 L54.85 33.45 54.75 33.55 54.1 34.35 Q53.1 35.75 52.55 37.35 52.05 38.9 51.95 40.7 L51.95 41.5 51.95 41.9 51.95 42.3 Q52.1 44.65 53.05 46.9 53.8 48.65 54.85 50.0 L54.85 51.45 52.7 51.85 49.65 52.35 Q46.45 52.35 43.15 51.2 L43.3 51.1 43.5 50.05 43.55 48.85 Q46.6 45.8 48.5 42.7 L49.75 40.45 Q51.4 36.9 51.7 33.2 L51.7 31.75 Q51.7 31.1 51.3 30.25 L50.85 29.65 Q48.95 27.2 45.35 24.5 46.55 23.05 47.0 21.25 L47.15 19.4 Q47.15 17.55 46.4 16.0 L45.6 14.65 47.85 12.15 49.65 9.4 50.1 12.35 50.7 12.85 50.1 13.8 49.85 14.1 49.45 15.0 49.3 15.35 49.85 16.55 50.1 17.35 50.1 17.7 50.2 20.9 Q50.2 23.45 49.6 25.5 L51.35 26.95 51.95 27.4 53.55 28.5 54.85 29.25 M14.75 54.1 L12.45 54.1 12.45 54.05 12.65 51.65 Q9.95 50.2 6.85 50.2 L1.8 50.65 -1.45 48.65 -1.45 47.55 -0.15 45.6 3.4 39.45 Q2.25 38.25 0.95 37.35 L-0.65 36.45 -1.45 36.1 -1.45 19.9 -0.95 21.85 -0.15 24.0 1.4 24.1 2.05 24.05 4.2 27.1 6.4 29.15 6.75 29.35 9.4 30.9 Q7.9 32.25 7.0 33.65 6.15 35.05 5.45 37.35 8.0 43.35 12.0 46.75 14.2 48.65 17.6 50.2 17.0 51.7 14.75 54.1 M-1.45 9.9 L-1.45 7.85 -1.2 7.9 0.15 8.25 1.65 8.05 2.05 8.0 2.35 8.4 Q2.7 9.05 2.7 9.9 L2.65 10.25 2.05 10.15 -0.85 9.9 -1.3 9.9 -1.45 9.9 M-1.45 3.1 L-1.45 1.2 -1.35 1.35 -0.9 1.95 -1.3 2.7 -1.45 3.1 M5.45 47.85 L7.45 46.75 6.4 45.75 5.75 44.85 4.65 46.7 3.75 48.7 5.45 47.85" fill="#27538a" fill-rule="evenodd" stroke="none"/>
      <path d="M8.9 -3.2 L7.2 -2.35 5.6 -1.7 6.15 -1.8 8.1 -2.0 11.95 -1.45 15.95 -0.85 Q15.3 -1.8 14.7 -3.2 L19.9 -3.2 21.9 0.35 21.8 1.3 21.8 1.6 20.85 1.65 21.1 1.7 18.05 2.4 17.75 2.5 15.15 1.75 11.6 0.9 8.85 0.45 5.4 0.65 5.1 0.8 3.55 1.7 3.45 1.7 0.75 0.2 0.0 -0.35 2.6 -2.8 3.5 -3.15 3.65 -3.2 8.9 -3.2 M26.3 -3.2 L34.9 -3.2 34.35 -0.6 33.45 3.3 33.35 9.4 33.4 10.85 33.55 13.8 33.6 14.55 33.1 14.25 33.05 14.15 33.0 13.9 32.25 10.7 32.15 10.2 31.7 8.55 30.4 4.75 28.45 0.25 26.9 -2.55 26.4 -3.1 26.3 -3.2 M54.85 17.35 L54.85 29.25 53.55 28.5 51.95 27.4 51.35 26.95 49.6 25.5 Q50.2 23.45 50.2 20.9 L50.1 17.7 50.1 17.35 49.85 16.55 49.3 15.35 49.45 15.0 49.85 14.1 50.1 13.8 50.7 12.85 51.95 13.9 53.9 16.05 54.0 16.2 54.6 17.0 54.85 17.35 M-1.45 47.55 L-1.45 36.1 -0.65 36.45 0.95 37.35 Q2.25 38.25 3.4 39.45 L-0.15 45.6 -1.45 47.55 M-1.45 19.9 L-1.45 9.9 -1.3 9.9 -0.85 9.9 2.05 10.15 2.65 10.25 2.7 9.9 Q2.7 9.05 2.35 8.4 L2.05 8.0 1.65 8.05 0.15 8.25 -1.2 7.9 -1.45 7.85 -1.45 3.1 -1.3 2.7 -0.9 1.95 -1.35 1.35 -1.45 1.2 -1.45 0.9 -0.65 0.2 0.05 0.55 2.7 2.15 2.7 2.2 2.35 2.4 1.55 2.85 0.95 3.2 0.75 3.3 -0.5 5.9 -0.9 6.9 -0.85 6.9 1.0 6.4 Q3.45 6.4 4.65 7.8 L4.7 7.85 Q5.35 8.7 5.4 9.5 L4.15 10.55 Q0.55 13.7 0.5 18.2 L0.5 18.25 0.65 20.1 Q1.0 22.15 2.05 24.05 L1.4 24.1 -0.15 24.0 -0.95 21.85 -1.45 19.9 M41.45 14.05 Q38.7 15.95 36.45 16.4 36.0 15.05 35.95 12.1 L35.95 11.35 36.55 11.55 37.05 11.7 Q39.45 12.55 41.45 14.05 M20.55 9.95 L19.65 10.8 Q17.9 12.85 17.9 14.7 L17.9 15.25 Q21.45 15.45 24.8 18.7 26.2 20.1 27.8 22.3 L28.25 22.95 27.65 24.8 26.75 23.35 Q25.35 21.4 23.55 19.95 21.2 18.1 18.35 17.2 L16.35 16.65 11.9 16.25 10.75 16.3 9.65 16.35 7.4 16.95 Q8.1 14.6 10.0 12.75 13.15 9.55 17.65 9.55 L20.55 9.95" fill="#3d74b8" fill-rule="evenodd" stroke="none"/>
      <path d="M3.55 1.7 L5.1 0.8 5.4 0.65 8.85 0.45 11.6 0.9 15.15 1.75 17.75 2.5 18.05 2.4 21.1 1.7 20.85 1.65 21.8 1.6 21.8 1.3 21.9 0.35 19.9 -3.2 21.75 -3.2 22.6 -2.0 23.1 -1.25 Q25.35 2.15 26.6 4.8 L24.1 3.9 21.7 3.35 20.05 3.15 16.15 2.95 12.15 3.45 9.35 4.1 8.55 3.9 6.35 3.1 5.75 2.8 5.1 2.5 4.65 2.3 3.55 1.7 M37.8 -3.2 L38.85 -3.2 38.7 -2.75 37.2 0.55 37.8 -3.2 M40.55 3.1 L40.6 3.1 41.0 3.2 44.2 3.95 45.35 4.1 Q46.9 4.1 49.85 3.1 L49.95 3.05 48.15 6.75 47.9 7.2 Q46.2 10.05 43.9 12.15 L43.4 12.65 42.15 13.55 41.45 14.05 Q39.45 12.55 37.05 11.7 L36.55 11.55 35.95 11.35 35.95 11.15 36.2 7.5 36.4 6.05 36.75 3.9 37.2 2.05 40.55 3.1 M21.4 11.7 L20.3 11.25 20.0 11.25 19.9 11.6 Q19.9 12.25 20.65 12.6 L20.75 12.65 21.6 12.85 Q22.25 12.85 22.25 12.3 L21.55 11.8 21.4 11.7 M20.55 9.95 L22.5 10.65 25.35 12.75 Q28.5 15.9 28.5 20.4 L28.45 21.25 28.25 22.95 27.8 22.3 Q26.2 20.1 24.8 18.7 21.45 15.45 17.9 15.25 L17.9 14.7 Q17.9 12.85 19.65 10.8 L20.55 9.95 M2.7 2.2 L3.4 2.75 4.15 3.45 4.25 3.55 6.5 6.05 7.75 8.05 6.85 8.6 5.4 9.5 Q5.35 8.7 4.7 7.85 L4.65 7.8 Q3.45 6.4 1.0 6.4 L-0.85 6.9 -0.9 6.9 -0.5 5.9 0.75 3.3 0.95 3.2 1.55 2.85 2.35 2.4 2.7 2.2" fill="#5d99e2" fill-rule="evenodd" stroke="none"/>
      <path d="M54.85 33.45 L54.85 34.6 54.1 35.5 54.1 35.3 54.1 34.35 54.75 33.55 54.85 33.45" fill="#82a4d4" fill-rule="evenodd" stroke="none"/>
      <path d="M54.85 34.6 L54.85 39.65 53.2 40.95 Q54.1 38.05 54.1 35.5 L54.85 34.6" fill="#a8b3c9" fill-rule="evenodd" stroke="none"/>
      <path d="M54.85 9.75 L54.85 15.65 Q54.4 15.8 53.9 16.05 L51.95 13.9 50.7 12.85 50.1 12.35 49.65 9.4 50.5 7.7 54.85 9.75" fill="#6098e3" fill-rule="evenodd" stroke="none"/>
      <path d="M45.6 18.25 L45.65 18.25 45.95 18.45 46.1 18.9 45.95 19.5 45.75 19.65 45.5 19.75 45.3 19.75 Q45.15 19.65 45.15 19.05 L45.15 18.85 45.15 18.75 45.25 18.5 45.3 18.45 45.6 18.25 M13.15 19.35 Q13.85 20.0 13.85 21.15 13.85 21.7 13.35 22.2 12.8 22.7 12.0 22.7 11.1 22.7 10.55 22.2 L10.25 21.7 10.05 20.7 Q10.05 19.85 10.4 19.25 L10.65 19.0 Q10.95 18.7 11.65 18.7 L12.75 19.05 13.15 19.35" fill="#ffffff" fill-rule="evenodd" stroke="none"/>
      <path d="M45.6 18.25 L45.3 18.45 45.25 18.5 45.15 18.75 45.15 18.85 45.15 19.05 Q45.15 19.65 45.3 19.75 L45.5 19.75 45.75 19.65 45.95 19.5 46.1 18.9 45.95 18.45 45.65 18.25 45.6 18.25 M40.95 21.5 L41.15 20.35 Q43.0 19.6 44.6 18.15 L45.7 16.9 46.4 16.0 Q47.15 17.55 47.15 19.4 L47.0 21.25 Q46.55 23.05 45.35 24.5 L44.25 23.7 42.75 22.65 41.55 21.85 40.95 21.5 M44.9 22.3 Q45.0 21.7 44.6 21.25 44.1 20.7 43.45 20.7 42.6 20.7 42.0 21.25 L41.55 21.85 42.0 21.25 Q42.6 20.7 43.45 20.7 44.1 20.7 44.6 21.25 45.0 21.7 44.9 22.3 M21.65 24.45 L20.8 23.0 Q20.25 22.45 19.6 22.45 18.45 22.45 17.55 23.3 16.8 24.05 16.65 24.95 16.8 24.05 17.55 23.3 18.45 22.45 19.6 22.45 20.25 22.45 20.8 23.0 L21.65 24.45 M16.5 31.2 L15.55 30.7 13.95 29.75 Q9.8 26.95 9.35 22.4 L9.25 21.2 Q9.25 19.4 9.8 18.05 L11.95 17.9 14.65 18.1 Q19.6 18.9 23.15 22.85 L24.8 24.95 26.05 27.35 25.35 28.05 Q22.15 31.25 17.65 31.25 L16.5 31.2 M13.15 19.35 L12.75 19.05 11.65 18.7 Q10.95 18.7 10.65 19.0 L10.4 19.25 Q10.05 19.85 10.05 20.7 L10.25 21.7 10.55 22.2 Q11.1 22.7 12.0 22.7 12.8 22.7 13.35 22.2 13.85 21.7 13.85 21.15 13.85 20.0 13.15 19.35" fill="#ebe3e1" fill-rule="evenodd" stroke="none"/>
      <path d="M43.75 16.1 L45.6 14.65 46.4 16.0 45.7 16.9 44.6 18.15 Q43.0 19.6 41.15 20.35 L40.95 21.5 40.3 21.1 38.6 20.1 38.15 20.0 38.85 18.3 Q41.45 17.65 43.65 16.15 L43.75 16.1 M12.9 30.2 Q11.35 29.4 10.0 28.05 8.1 26.2 7.35 23.85 6.85 22.25 6.85 20.4 L6.95 18.6 Q7.1 17.75 7.4 16.95 L9.65 16.35 10.75 16.3 11.9 16.25 16.35 16.65 18.35 17.2 Q21.2 18.1 23.55 19.95 25.35 21.4 26.75 23.35 L27.65 24.8 26.05 27.35 24.8 24.95 23.15 22.85 Q19.6 18.9 14.65 18.1 L11.95 17.9 9.8 18.05 Q9.25 19.4 9.25 21.2 L9.35 22.4 Q9.8 26.95 13.95 29.75 L15.55 30.7 16.5 31.2 Q14.55 31.0 12.9 30.2" fill="#cdadb9" fill-rule="evenodd" stroke="none"/>
      <path d="M40.95 21.5 L41.55 21.85 42.75 22.65 41.4 22.4 41.0 22.4 40.85 22.4 39.4 22.65 39.0 22.8 Q37.55 23.45 37.25 24.8 38.85 26.45 40.1 29.9 L40.5 31.1 41.15 33.2 42.55 33.8 Q43.2 35.7 43.2 38.35 L42.85 40.55 42.8 41.0 44.35 42.0 45.8 42.5 Q47.3 42.5 49.1 41.0 L49.75 40.45 48.5 42.7 43.95 44.9 43.3 45.15 Q38.35 47.1 36.55 47.1 34.1 47.1 31.15 45.75 29.0 44.8 27.85 43.65 27.45 42.3 26.55 40.95 28.3 40.45 29.85 39.1 L30.0 38.95 Q31.75 37.4 32.0 36.3 L32.35 36.65 32.95 36.65 Q36.95 36.65 39.2 35.2 L40.1 34.5 39.75 32.4 39.05 30.35 37.25 27.35 36.35 26.3 Q34.85 24.6 33.35 23.65 33.55 22.95 34.35 22.3 35.85 21.1 38.5 21.05 L38.85 21.05 40.3 21.1 40.95 21.5" fill="#d0963d" fill-rule="evenodd" stroke="none"/>
      <path d="M45.35 24.5 Q48.95 27.2 50.85 29.65 L51.3 30.25 Q51.7 31.1 51.7 31.75 L51.7 33.2 Q51.4 36.9 49.75 40.45 L49.1 41.0 Q47.3 42.5 45.8 42.5 L44.35 42.0 42.8 41.0 42.85 40.55 43.2 38.35 Q43.2 35.7 42.55 33.8 L41.15 33.2 40.5 31.1 40.1 29.9 Q38.85 26.45 37.25 24.8 37.55 23.45 39.0 22.8 L39.4 22.65 40.85 22.4 41.0 22.4 41.4 22.4 42.75 22.65 44.25 23.7 45.35 24.5 M47.4 28.3 L46.65 28.45 46.05 28.65 46.05 28.7 45.95 29.1 Q45.95 30.75 47.15 31.75 48.1 32.55 49.15 32.55 50.35 32.55 50.35 31.4 50.35 30.2 49.4 29.35 L48.9 28.95 47.4 28.3 M26.55 40.95 L25.6 39.65 Q23.45 36.9 21.25 35.8 L20.95 35.85 15.25 36.5 14.5 36.45 Q12.2 36.35 10.85 35.2 9.9 34.4 9.7 33.45 L11.8 32.0 12.2 31.8 13.3 31.2 14.1 31.65 15.05 32.2 15.8 32.5 18.0 32.95 Q20.4 32.95 22.5 32.05 26.6 32.3 30.05 34.7 L32.0 36.3 Q31.75 37.4 30.0 38.95 L29.85 39.1 Q28.3 40.45 26.55 40.95" fill="#e7b144" fill-rule="evenodd" stroke="none"/>
      <path d="M54.85 15.65 L54.85 15.75 54.15 16.1 54.0 16.2 53.9 16.05 Q54.4 15.8 54.85 15.65 M54.85 16.45 L54.85 17.35 54.6 17.0 54.65 16.9 54.8 16.55 54.85 16.45" fill="#5b99e2" fill-rule="evenodd" stroke="none"/>
      <path d="M54.85 15.75 L54.85 16.45 54.8 16.55 54.65 16.9 54.6 17.0 54.0 16.2 54.15 16.1 54.85 15.75" fill="#487ab4" fill-rule="evenodd" stroke="none"/>
      <path d="M54.1 34.35 L54.1 35.3 54.1 35.5 52.55 37.35 Q53.1 35.75 54.1 34.35" fill="#506f9a" fill-rule="evenodd" stroke="none"/>
      <path d="M53.2 40.95 L52.9 41.15 52.5 41.5 51.95 40.7 Q52.05 38.9 52.55 37.35 L54.1 35.5 Q54.1 38.05 53.2 40.95" fill="#758098" fill-rule="evenodd" stroke="none"/>
      <path d="M47.4 28.3 L48.9 28.95 49.4 29.35 Q50.35 30.2 50.35 31.4 50.35 32.55 49.15 32.55 48.1 32.55 47.15 31.75 45.95 30.75 45.95 29.1 L46.05 28.7 46.05 28.65 46.65 28.45 47.4 28.3" fill="#ffebc4" fill-rule="evenodd" stroke="none"/>
      <path d="M48.5 42.7 Q46.6 45.8 43.55 48.85 41.6 50.75 39.65 52.3 L38.9 50.5 Q38.25 49.35 37.35 48.9 L36.6 48.95 35.35 49.0 Q31.5 49.0 27.9 47.25 26.7 46.55 25.75 46.0 L24.8 43.75 24.15 42.65 Q22.5 40.1 20.15 38.6 L19.6 38.5 18.3 38.75 17.9 38.9 17.85 39.2 15.7 39.2 15.7 39.3 15.15 40.7 15.0 40.8 Q13.85 42.2 11.3 42.2 9.85 42.2 8.4 41.25 7.45 38.8 7.45 35.75 7.45 34.05 8.3 32.3 L10.35 31.25 12.25 30.45 12.9 30.2 Q14.55 31.0 16.5 31.2 L17.65 31.25 Q22.15 31.25 25.35 28.05 L26.05 27.35 27.65 24.8 28.25 22.95 28.45 21.25 29.0 20.35 30.2 20.05 30.25 20.05 32.05 19.8 34.95 19.65 37.45 19.9 38.15 20.0 38.6 20.1 40.3 21.1 38.85 21.05 38.5 21.05 Q35.85 21.1 34.35 22.3 33.55 22.95 33.35 23.65 34.85 24.6 36.35 26.3 L37.25 27.35 39.05 30.35 39.75 32.4 40.1 34.5 39.2 35.2 Q36.95 36.65 32.95 36.65 L32.35 36.65 32.0 36.3 30.05 34.7 Q26.6 32.3 22.5 32.05 20.4 32.95 18.0 32.95 L15.8 32.5 15.05 32.2 14.1 31.65 13.3 31.2 12.2 31.8 11.8 32.0 9.7 33.45 Q9.9 34.4 10.85 35.2 12.2 36.35 14.5 36.45 L15.25 36.5 20.95 35.85 21.25 35.8 Q23.45 36.9 25.6 39.65 L26.55 40.95 Q27.45 42.3 27.85 43.65 29.0 44.8 31.15 45.75 34.1 47.1 36.55 47.1 38.35 47.1 43.3 45.15 L43.95 44.9 48.5 42.7 M28.5 26.7 L27.65 24.8 28.5 26.7" fill="#c97635" fill-rule="evenodd" stroke="none"/>
      <path d="M52.5 41.5 L51.95 41.9 51.95 41.5 51.95 40.7 52.5 41.5" fill="#556179" fill-rule="evenodd" stroke="none"/>
      <path d="M37.1 0.85 L40.55 3.1 37.2 2.05 36.95 1.95 36.65 1.8 37.1 0.85 M12.45 54.1 L12.25 54.1 11.75 53.6 10.8 53.0 Q10.1 52.65 9.35 52.65 L9.2 51.95 9.05 51.4 Q7.65 50.6 5.65 50.6 4.55 50.6 2.35 51.4 1.65 51.65 1.15 51.85 L1.0 52.85 1.05 53.3 0.9 53.25 -1.45 51.95 -1.45 51.55 -1.3 51.45 1.8 50.65 6.85 50.2 Q9.95 50.2 12.65 51.65 L12.45 54.05 12.45 54.1" fill="#a88051" fill-rule="evenodd" stroke="none"/>
      <path d="M21.4 11.7 L21.55 11.8 22.25 12.3 Q22.25 12.85 21.6 12.85 L20.75 12.65 20.65 12.6 Q19.9 12.25 19.9 11.6 L20.0 11.25 20.3 11.25 21.4 11.7" fill="#dbebff" fill-rule="evenodd" stroke="none"/>
      <path d="M30.25 20.05 L29.15 16.45 Q28.45 14.5 27.55 13.15 L26.85 12.65 26.55 12.25 25.5 11.2 25.25 11.05 23.55 10.05 23.5 10.0 Q21.35 8.85 19.4 8.55 L18.1 8.45 15.0 8.95 Q12.6 9.1 10.8 9.85 L10.05 10.2 Q9.6 10.45 9.3 10.65 L8.6 11.4 7.1 13.2 Q5.25 15.95 5.2 20.35 L5.2 20.75 Q5.2 21.9 6.0 24.5 6.75 26.8 7.4 28.0 L7.65 28.45 9.45 30.85 9.45 30.9 9.4 30.9 6.75 29.35 6.45 29.1 5.35 27.8 Q2.2 23.8 2.05 20.2 L2.05 19.9 Q2.05 14.35 6.4 11.05 7.8 10.0 9.55 9.25 12.75 7.9 17.0 7.9 L19.4 8.05 Q22.85 8.5 25.65 10.25 27.2 11.2 28.5 12.55 30.55 14.65 31.55 17.0 L32.05 18.3 32.05 19.05 32.05 19.7 32.05 19.8 30.25 20.05" fill="#ff732c" fill-rule="evenodd" stroke="none"/>
      <path d="M28.45 21.25 L28.5 20.4 Q28.5 15.9 25.35 12.75 L22.5 10.65 20.55 9.95 17.65 9.55 Q13.15 9.55 10.0 12.75 8.1 14.6 7.4 16.95 7.1 17.75 6.95 18.6 L6.85 20.4 Q6.85 22.25 7.35 23.85 8.1 26.2 10.0 28.05 11.35 29.4 12.9 30.2 L12.25 30.45 10.35 31.25 9.45 30.9 9.45 30.85 7.65 28.45 7.4 28.0 Q6.75 26.8 6.0 24.5 5.2 21.9 5.2 20.75 L5.2 20.35 Q5.25 15.95 7.1 13.2 L8.6 11.4 9.3 10.65 Q9.6 10.45 10.05 10.2 L10.8 9.85 Q12.6 9.1 15.0 8.95 L18.1 8.45 19.4 8.55 Q21.35 8.85 23.5 10.0 L23.55 10.05 25.25 11.05 25.5 11.2 26.55 12.25 26.85 12.65 27.55 13.15 Q28.45 14.5 29.15 16.45 L30.25 20.05 30.2 20.05 29.0 20.35 28.45 21.25 M5.7 17.65 Q6.5 17.25 7.4 16.95 6.5 17.25 5.7 17.65 M7.75 8.05 L8.7 7.6 Q12.65 5.7 16.55 5.7 L19.2 5.85 22.25 6.4 Q24.65 7.1 26.5 8.35 L28.15 9.7 28.9 10.55 29.0 10.65 Q31.15 13.2 31.8 16.35 L32.05 18.3 31.55 17.0 Q30.55 14.65 28.5 12.55 27.2 11.2 25.65 10.25 22.85 8.5 19.4 8.05 L17.0 7.9 Q12.75 7.9 9.55 9.25 7.8 10.0 6.4 11.05 2.05 14.35 2.05 19.9 L2.05 20.2 Q2.2 23.8 5.35 27.8 L6.45 29.1 6.75 29.35 6.4 29.15 4.2 27.1 2.05 24.05 Q1.0 22.15 0.65 20.1 L0.5 18.25 0.5 18.2 Q0.55 13.7 4.15 10.55 L5.4 9.5 6.85 8.6 7.75 8.05" fill="#cd4520" fill-rule="evenodd" stroke="none"/>
      <path d="M43.15 51.2 L41.05 52.55 41.0 52.55 40.7 52.7 39.2 53.6 38.2 54.1 35.25 54.1 34.8 53.75 33.35 52.85 31.9 53.6 30.85 54.1 14.75 54.1 Q17.0 51.7 17.6 50.2 14.2 48.65 12.0 46.75 8.0 43.35 5.45 37.35 6.15 35.05 7.0 33.65 7.9 32.25 9.4 30.9 L9.45 30.9 10.35 31.25 8.3 32.3 Q7.45 34.05 7.45 35.75 7.45 38.8 8.4 41.25 9.3 43.75 11.15 45.65 12.3 46.9 14.1 47.0 L17.35 45.75 17.5 45.75 Q21.6 43.9 24.8 43.75 L25.75 46.0 Q26.7 46.55 27.9 47.25 31.5 49.0 35.35 49.0 L36.6 48.95 37.35 48.9 Q38.25 49.35 38.9 50.5 L39.65 52.3 Q41.6 50.75 43.55 48.85 L43.5 50.05 43.3 51.1 43.15 51.2 M5.45 47.85 L3.75 48.7 4.65 46.7 5.75 44.85 6.4 45.75 7.45 46.75 5.45 47.85" fill="#193b66" fill-rule="evenodd" stroke="none"/>
      <path d="M8.4 41.25 Q9.85 42.2 11.3 42.2 13.85 42.2 15.0 40.8 L15.15 40.7 15.7 39.3 15.7 39.2 17.85 39.2 17.9 38.9 18.3 38.75 19.6 38.5 20.15 38.6 Q22.5 40.1 24.15 42.65 L24.8 43.75 Q21.6 43.9 17.5 45.75 L17.35 45.75 14.1 47.0 Q12.3 46.9 11.15 45.65 9.3 43.75 8.4 41.25 M18.35 41.15 L17.9 40.5 17.8 39.8 17.85 39.2 17.8 39.8 17.9 40.5 18.35 41.15" fill="#af5428" fill-rule="evenodd" stroke="none"/>
      <path d="M41.05 52.55 L41.15 53.75 41.15 54.1 39.35 54.1 38.2 54.1 39.2 53.6 39.35 54.1 39.2 53.6 40.7 52.7 41.0 52.55 41.05 52.55 M35.25 54.1 L32.6 54.1 30.85 54.1 31.9 53.6 33.35 52.85 34.8 53.75 35.25 54.1 M32.6 54.1 L31.9 53.6 32.6 54.1" fill="#595e7b" fill-rule="evenodd" stroke="none"/>
      <path d="M12.25 54.1 L10.65 54.1 10.8 53.0 11.75 53.6 12.25 54.1 M-0.4 54.1 L-0.8 54.1 -0.45 53.95 -0.4 54.1" fill="#7e8195" fill-rule="evenodd" stroke="none"/>
      <path d="M10.65 54.1 L9.5 54.1 9.5 54.0 9.35 52.65 Q10.1 52.65 10.8 53.0 L10.65 54.1 M1.15 54.1 L-0.4 54.1 -0.45 53.95 -0.1 53.85 1.1 53.7 1.15 54.1" fill="#50546d" fill-rule="evenodd" stroke="none"/>
      <path d="M9.5 54.1 L7.55 54.1 8.0 53.7 8.1 53.1 Q8.1 52.45 7.25 52.1 L6.1 51.8 5.45 51.9 Q5.1 52.3 5.1 52.9 5.1 53.85 6.05 54.1 L1.15 54.1 1.1 53.7 1.05 53.3 1.0 52.85 1.15 51.85 Q1.65 51.65 2.35 51.4 4.55 50.6 5.65 50.6 7.65 50.6 9.05 51.4 L9.2 51.95 9.35 52.65 9.5 54.0 9.5 54.1" fill="#b1b3c0" fill-rule="evenodd" stroke="none"/>
      <path d="M7.55 54.1 L6.05 54.1 Q5.1 53.85 5.1 52.9 5.1 52.3 5.45 51.9 L6.1 51.8 7.25 52.1 Q8.1 52.45 8.1 53.1 L8.0 53.7 7.55 54.1" fill="#ced0e2" fill-rule="evenodd" stroke="none"/>
      <path d="M0.9 53.25 L-1.45 52.85 -1.45 51.95 0.9 53.25" fill="#8277a1" fill-rule="evenodd" stroke="none"/>
      <path d="M-1.45 52.95 L-1.1 53.5 -1.45 53.4 -1.45 52.95" fill="#9589b6" fill-rule="evenodd" stroke="none"/>
      <path d="M-1.45 51.55 L-1.45 48.65 1.8 50.65 -1.3 51.45 -1.45 51.55" fill="#3a4f9f" fill-rule="evenodd" stroke="none"/>
      <path d="M3.65 -3.2 L3.5 -3.15 2.6 -2.8 Q0.2 -1.85 -1.45 -1.8 M38.85 -3.2 L38.7 -2.75 37.2 0.55 37.1 0.85 40.55 3.1 40.6 3.1 41.0 3.2 Q41.85 2.15 43.1 1.4 44.25 0.75 45.4 0.35 L48.45 -0.15 50.9 0.1 Q52.15 0.3 53.4 0.8 L54.85 4.8 M54.85 39.65 L53.2 40.95 52.9 41.15 52.5 41.5 51.95 41.9 51.95 42.3 Q52.1 44.65 53.05 46.9 53.8 48.65 54.85 50.0 M54.85 51.45 L52.7 51.85 49.65 52.35 Q46.45 52.35 43.15 51.2 L41.05 52.55 41.15 53.75 41.15 54.1 M-0.8 54.1 L-0.45 53.95 -0.1 53.85 1.1 53.7 1.05 53.3 0.9 53.25 -1.45 52.85 M37.2 2.05 L36.95 1.95 36.65 1.8 37.1 0.85 M50.85 2.75 Q51.3 2.5 51.7 2.4 L51.7 2.85 51.7 3.15 Q51.5 5.4 50.5 7.7 L49.65 9.4 50.1 12.35 50.7 12.85 51.95 13.9 53.9 16.05 54.0 16.2 54.6 17.0 54.85 17.35 M50.85 2.75 L50.2 2.95 49.95 3.05 49.85 3.1 Q46.9 4.1 45.35 4.1 L44.2 3.95 41.0 3.2 M43.75 16.1 L45.6 14.65 47.85 12.15 49.65 9.4 M40.95 21.5 L41.55 21.85 42.0 21.25 Q42.6 20.7 43.45 20.7 44.1 20.7 44.6 21.25 45.0 21.7 44.9 22.3 M45.6 14.65 L46.4 16.0 Q47.15 17.55 47.15 19.4 L47.0 21.25 Q46.55 23.05 45.35 24.5 48.95 27.2 50.85 29.65 L51.3 30.25 Q51.7 31.1 51.7 31.75 L51.7 33.2 Q51.4 36.9 49.75 40.45 L48.5 42.7 Q46.6 45.8 43.55 48.85 41.6 50.75 39.65 52.3 L38.9 50.5 Q38.25 49.35 37.35 48.9 L36.6 48.95 35.35 49.0 Q31.5 49.0 27.9 47.25 26.7 46.55 25.75 46.0 L24.8 43.75 24.15 42.65 Q22.5 40.1 20.15 38.6 L19.6 38.5 18.3 38.75 17.9 38.9 17.85 39.2 17.8 39.8 17.9 40.5 18.35 41.15 M43.3 51.1 L43.15 51.2 M43.75 16.1 L43.65 16.15 Q41.45 17.65 38.85 18.3 L38.15 20.0 38.6 20.1 40.3 21.1 40.95 21.5 M42.75 22.65 L41.55 21.85 M42.75 22.65 L44.25 23.7 45.35 24.5 M54.85 33.45 L54.75 33.55 54.1 34.35 Q53.1 35.75 52.55 37.35 52.05 38.9 51.95 40.7 L51.95 41.5 51.95 41.9 M20.55 9.95 L22.5 10.65 25.35 12.75 Q28.5 15.9 28.5 20.4 L28.45 21.25 29.0 20.35 30.2 20.05 30.25 20.05 32.05 19.8 34.95 19.65 37.45 19.9 38.15 20.0 M10.35 31.25 L12.25 30.45 12.9 30.2 Q11.35 29.4 10.0 28.05 8.1 26.2 7.35 23.85 6.85 22.25 6.85 20.4 L6.95 18.6 Q7.1 17.75 7.4 16.95 6.5 17.25 5.7 17.65 M16.65 24.95 Q16.8 24.05 17.55 23.3 18.45 22.45 19.6 22.45 20.25 22.45 20.8 23.0 L21.65 24.45 M20.55 9.95 L17.65 9.55 Q13.15 9.55 10.0 12.75 8.1 14.6 7.4 16.95 L9.65 16.35 10.75 16.3 11.9 16.25 16.35 16.65 18.35 17.2 Q21.2 18.1 23.55 19.95 25.35 21.4 26.75 23.35 L27.65 24.8 28.25 22.95 28.45 21.25 M16.5 31.2 L17.65 31.25 Q22.15 31.25 25.35 28.05 L26.05 27.35 27.65 24.8 28.5 26.7 M16.5 31.2 Q14.55 31.0 12.9 30.2 M10.35 31.25 L8.3 32.3 Q7.45 34.05 7.45 35.75 7.45 38.8 8.4 41.25 9.3 43.75 11.15 45.65 12.3 46.9 14.1 47.0 L17.35 45.75 17.5 45.75 Q21.6 43.9 24.8 43.75 M39.2 53.6 L38.2 54.1 M39.2 53.6 L39.35 54.1 M35.25 54.1 L34.8 53.75 33.35 52.85 31.9 53.6 32.6 54.1 M31.9 53.6 L30.85 54.1 M1.8 50.65 L6.85 50.2 Q9.95 50.2 12.65 51.65 L12.45 54.05 12.45 54.1 M10.8 53.0 L11.75 53.6 12.25 54.1 M10.8 53.0 Q10.1 52.65 9.35 52.65 L9.5 54.0 9.5 54.1 M1.05 53.3 L1.0 52.85 1.15 51.85 Q1.65 51.65 2.35 51.4 4.55 50.6 5.65 50.6 7.65 50.6 9.05 51.4 L9.2 51.95 9.35 52.65 M1.15 54.1 L1.1 53.7 M41.05 52.55 L41.0 52.55 40.7 52.7 39.2 53.6 M37.2 2.05 L40.55 3.1 M-1.45 51.55 L-1.3 51.45 1.8 50.65 M-1.45 53.4 L-1.1 53.5 -1.45 52.95 M0.9 53.25 L-1.45 51.95" fill="none" stroke="#471a51" stroke-linecap="round" stroke-linejoin="round" stroke-width="1.0"/>
    </g>
    <g id="shape2" transform="matrix(1.0, 0.0, 0.0, 1.0, 0.0, 0.0)">
      <path d="M50.5 0.0 Q53.95 0.0 53.95 3.3 L53.95 50.15 Q53.95 53.4 50.5 53.4 L3.3 53.4 Q0.0 53.4 0.0 50.15 L0.0 3.3 Q0.0 0.0 3.3 0.0 L50.5 0.0" fill="#000000" fill-opacity="0.003921569" fill-rule="evenodd" stroke="none"/>
    </g>
  </defs>
</svg>
