<?xml version="1.0" encoding="UTF-8" standalone="no"?>
<svg xmlns:ffdec="https://www.free-decompiler.com/flash" xmlns:xlink="http://www.w3.org/1999/xlink" ffdec:objectType="frame" height="57.35px" width="55.4px" xmlns="http://www.w3.org/2000/svg">
  <g transform="matrix(1.0, 0.0, 0.0, 1.0, 1.45, 2.4)">
    <clipPath id="clipPath0" transform="matrix(1.0, 0.0, 0.0, 1.0, 0.0, 0.0)">
      <path d="M50.5 0.0 Q53.95 0.0 53.95 3.3 L53.95 50.15 Q53.95 53.4 50.5 53.4 L3.3 53.4 Q0.0 53.4 0.0 50.15 L0.0 3.3 Q0.0 0.0 3.3 0.0 L50.5 0.0" fill="#000000" fill-rule="evenodd" stroke="none"/>
    </clipPath>
    <g clip-path="url(#clipPath0)">
      <use ffdec:characterId="2" height="57.35" transform="matrix(1.0, 0.0, 0.0, 1.0, -1.45, -2.4)" width="54.3" xlink:href="#shape1"/>
      <filter id="filter0">
        <feConvolveMatrix divisor="25.0" in="SourceGraphic" kernelMatrix="1 1 1 1 1 1 1 1 1 1 1 1 1 1 1 1 1 1 1 1 1 1 1 1 1" order="5 5" result="filterResult0"/>
      </filter>
      <use ffdec:characterId="4" filter="url(#filter0)" height="18.75" style="mix-blend-mode: overlay" transform="matrix(1.0, 0.0, 0.0, 1.0, 22.4, 11.5)" width="14.85" xlink:href="#sprite0"/>
    </g>
    <use ffdec:characterId="5" height="53.4" transform="matrix(1.0, 0.0, 0.0, 1.0, 0.0, 0.0)" width="53.95" xlink:href="#shape3"/>
  </g>
  <defs>
    <g id="shape1" transform="matrix(1.0, 0.0, 0.0, 1.0, 1.45, 2.4)">
      <path d="M21.55 39.5 L21.55 39.65 21.15 41.6 26.6 50.2 28.2 53.5 -0.95 53.5 -0.95 37.0 Q8.85 23.85 16.8 33.65 L21.55 39.5" fill="#272a58" fill-rule="evenodd" stroke="none"/>
      <path d="M21.55 39.5 L28.05 47.75 Q29.35 49.55 30.75 53.5 L28.2 53.5 26.6 50.2 21.15 41.6 21.55 39.65 21.55 39.5" fill="#304885" fill-rule="evenodd" stroke="none"/>
      <path d="M30.75 53.5 Q29.35 49.55 28.05 47.75 L21.55 39.5 16.8 33.65 Q8.85 23.85 -0.95 37.0" fill="none" stroke="#0d102a" stroke-linecap="round" stroke-linejoin="round" stroke-width="1.0"/>
      <path d="M10.15 -1.9 L11.2 1.6 11.15 2.7 10.65 10.2 10.55 12.15 10.4 12.55 7.7 8.95 7.55 8.7 Q4.4 4.5 0.0 -1.9 L10.15 -1.9 M13.2 -1.9 L20.35 -1.9 20.05 0.55 Q18.8 9.85 17.15 15.55 L16.35 18.2 15.2 21.55 Q14.75 19.05 14.2 13.15 L13.3 -0.3 13.2 -1.9 M24.15 54.45 L20.3 54.45 Q23.05 47.05 24.85 41.1 L30.2 34.9 Q26.85 46.55 24.15 54.45 M16.55 54.45 L13.95 54.45 16.85 40.55 Q19.05 29.2 19.85 19.3 L20.95 5.25 21.3 1.0 22.85 7.55 25.4 2.65 Q27.5 11.2 26.4 21.65 25.25 32.15 22.75 41.35 L21.9 44.2 23.45 42.65 Q22.0 46.65 20.75 48.7 L18.85 51.45 16.55 54.45 M20.5 45.6 L20.55 44.85 20.5 44.85 20.5 45.6" fill="#ffffff" fill-rule="evenodd" stroke="none"/>
      <path d="M10.15 -1.9 L12.9 -1.9 11.6 3.25 11.2 1.6 10.15 -1.9 M20.5 -1.9 L22.65 -1.9 Q23.85 1.7 23.7 3.75 L23.8 3.75 25.3 0.75 26.0 -0.65 Q28.6 5.5 27.3 19.0 26.1 32.4 23.75 40.0 L24.55 39.35 25.7 38.4 26.0 38.15 Q27.0 37.3 32.0 30.45 29.3 41.35 25.5 53.7 L25.3 54.45 24.15 54.45 Q26.85 46.55 30.2 34.9 L24.85 41.1 23.45 42.65 21.9 44.2 22.75 41.35 Q25.25 32.15 26.4 21.65 27.5 11.2 25.4 2.65 L22.85 7.55 21.3 1.0 20.95 -0.5 20.5 -1.9 M10.05 54.45 L7.35 54.45 3.0 46.4 -0.45 39.45 -0.45 19.15 Q4.2 24.95 7.9 31.75 9.55 38.9 9.9 48.45 L10.05 54.45 M20.5 45.6 L20.5 44.85 20.55 44.85 20.5 45.6" fill="#32d5fd" fill-rule="evenodd" stroke="none"/>
      <path d="M11.2 1.6 L11.6 3.25 12.9 -1.9 13.2 -1.9 13.3 -0.3 14.2 13.15 Q14.75 19.05 15.2 21.55 L16.35 18.2 17.15 15.55 Q18.8 9.85 20.05 0.55 L20.35 -1.9 20.5 -1.9 20.95 -0.5 21.3 1.0 20.95 5.25 19.85 19.3 Q19.05 29.2 16.85 40.55 L13.95 54.45 10.05 54.45 9.9 48.45 Q9.55 38.9 7.9 31.75 4.2 24.95 -0.45 19.15 L-0.45 -1.9 0.0 -1.9 Q4.4 4.5 7.55 8.7 L7.7 8.95 10.4 12.55 10.55 12.15 10.65 10.2 11.15 2.7 11.2 1.6 M20.3 54.45 L16.55 54.45 18.85 51.45 20.75 48.7 Q22.0 46.65 23.45 42.65 L24.85 41.1 Q23.05 47.05 20.3 54.45" fill="#c6fdff" fill-rule="evenodd" stroke="none"/>
      <path d="M22.65 -1.9 Q23.85 1.7 23.7 3.75 L23.8 3.75 25.3 0.75 26.0 -0.65 Q28.6 5.5 27.3 19.0 26.1 32.4 23.75 40.0 L24.55 39.35 25.7 38.4 26.0 38.15 Q27.0 37.3 32.0 30.45 29.3 41.35 25.5 53.7 L25.3 54.45 M7.35 54.45 L3.0 46.4 -0.45 39.45" fill="none" stroke="#3aa1db" stroke-linecap="round" stroke-linejoin="round" stroke-width="1.0"/>
      <path d="M-0.95 28.05 L-0.8 28.1 Q5.25 30.75 9.75 31.0 L10.45 31.0 10.15 30.9 22.55 30.4 35.95 30.0 37.95 30.0 Q37.8 31.0 35.05 37.45 L33.5 40.95 22.0 40.95 20.25 41.2 20.15 42.05 Q20.0 43.35 20.75 47.3 L20.75 47.55 Q19.65 46.65 16.6 45.65 L12.8 44.55 12.65 45.8 13.45 49.1 14.1 52.1 Q9.75 46.8 2.3 42.95 L-0.95 41.35 -0.95 28.05" fill="#0b1531" fill-rule="evenodd" stroke="none"/>
      <path d="M18.7 53.95 L17.55 53.95 17.2 52.55 17.15 52.35 18.7 53.95 M11.9 53.95 L8.1 53.95 6.7 52.45 4.55 50.55 3.0 49.4 3.1 50.25 3.2 51.05 1.65 48.4 0.85 47.05 1.0 50.2 1.15 53.95 -0.95 53.95 -0.95 44.35 0.45 44.45 1.45 45.1 2.95 45.95 3.05 46.0 4.75 47.0 Q7.5 48.5 11.45 53.4 L11.9 53.95" fill="#233564" fill-rule="evenodd" stroke="none"/>
      <path d="M33.5 40.95 L32.7 43.05 25.0 43.55 23.95 44.5 Q22.65 45.85 22.3 47.75 22.2 48.65 22.5 49.4 L23.2 50.95 23.15 51.1 20.8 49.95 Q19.0 49.15 18.5 48.75 18.4 50.15 19.3 53.95 L18.7 53.95 17.15 52.35 17.2 52.55 17.55 53.95 11.9 53.95 11.45 53.4 Q7.5 48.5 4.75 47.0 L3.05 46.0 2.95 45.95 1.45 45.1 0.45 44.45 -0.95 44.35 -0.95 41.35 2.3 42.95 Q9.75 46.8 14.1 52.1 L13.45 49.1 12.65 45.8 12.8 44.55 16.6 45.65 Q19.65 46.65 20.75 47.55 L20.75 47.3 Q20.0 43.35 20.15 42.05 L20.25 41.2 22.0 40.95 33.5 40.95" fill="#18264d" fill-rule="evenodd" stroke="none"/>
      <path d="M8.1 53.95 L3.15 53.95 Q2.65 51.85 2.25 52.0 L1.95 51.6 1.75 53.95 1.15 53.95 1.0 50.2 0.85 47.05 1.65 48.4 3.2 51.05 3.1 50.25 3.0 49.4 4.55 50.55 6.7 52.45 8.1 53.95" fill="#304885" fill-rule="evenodd" stroke="none"/>
      <path d="M3.15 53.95 L1.75 53.95 1.95 51.6 2.25 52.0 Q2.65 51.85 3.15 53.95" fill="#3857aa" fill-rule="evenodd" stroke="none"/>
      <path d="M-0.95 28.05 L-0.8 28.1 Q5.25 30.75 9.75 31.0 L10.45 31.0 10.15 30.9 22.55 30.4 35.95 30.0 37.95 30.0 Q37.8 31.0 35.05 37.45 L33.5 40.95 32.7 43.05 25.0 43.55 23.95 44.5 Q22.65 45.85 22.3 47.75 22.2 48.65 22.5 49.4 L23.2 50.95 23.15 51.1 20.8 49.95 Q19.0 49.15 18.5 48.75 18.4 50.15 19.3 53.95" fill="none" stroke="#0d102a" stroke-linecap="round" stroke-linejoin="round" stroke-width="1.0"/>
      <path d="M30.4 -0.45 L30.3 -0.2 31.1 1.75 Q30.5 3.25 30.35 4.3 30.15 5.35 30.15 11.85 30.15 15.85 31.15 20.25 L32.15 23.9 Q32.15 30.2 16.9 41.95 L6.05 50.05 5.8 50.35 Q5.85 48.2 6.15 46.0 L6.25 45.3 Q8.6 37.55 8.6 27.2 L8.55 26.1 7.25 29.5 Q5.9 32.4 3.7 35.2 L-0.95 40.25 -0.95 31.05 1.35 27.55 1.5 27.25 Q5.4 20.4 5.95 13.15 L4.1 16.3 Q1.4 20.7 0.0 20.95 L1.0 16.15 Q1.7 12.35 1.7 10.6 1.7 7.15 -0.95 3.45 L-0.95 -0.45 30.4 -0.45" fill="#0b1531" fill-rule="evenodd" stroke="none"/>
      <path d="M5.8 50.35 L5.75 50.4 Q3.8 52.6 2.95 54.9 L-0.95 54.9 -0.95 52.05 Q3.25 45.15 3.75 35.85 L3.7 35.2 Q5.9 32.4 7.25 29.5 L8.55 26.1 8.6 27.2 Q8.6 37.55 6.25 45.3 L6.15 46.0 Q5.85 48.2 5.8 50.35 M-0.95 29.35 L-0.95 3.45 Q1.7 7.15 1.7 10.6 1.7 12.35 1.0 16.15 L0.0 20.95 Q1.4 20.7 4.1 16.3 L5.95 13.15 Q5.4 20.4 1.5 27.25 L0.45 24.55 0.45 24.35 Q0.4 25.8 -0.95 29.35" fill="#18264d" fill-rule="evenodd" stroke="none"/>
      <path d="M-0.95 52.05 L-0.95 40.25 3.7 35.2 3.75 35.85 Q3.25 45.15 -0.95 52.05 M-0.95 31.05 L-0.95 29.35 Q0.4 25.8 0.45 24.35 L0.45 24.55 1.5 27.25 1.35 27.55 -0.95 31.05" fill="#233564" fill-rule="evenodd" stroke="none"/>
      <path d="M30.4 -0.45 L30.3 -0.2 31.1 1.75 Q30.5 3.25 30.35 4.3 30.15 5.35 30.15 11.85 30.15 15.85 31.15 20.25 L32.15 23.9" fill="none" stroke="#0d102a" stroke-linecap="round" stroke-linejoin="round" stroke-width="1.0"/>
      <path d="M45.65 41.9 L45.8 42.05 41.85 45.45 35.5 39.6 34.95 39.05 30.35 38.05 27.6 38.25 27.75 37.15 25.05 32.85 22.55 32.35 23.95 22.55 24.5 23.0 23.25 31.95 25.05 32.2 25.2 32.25 25.75 33.1 28.25 36.65 28.2 37.7 29.35 37.35 34.8 38.3 41.95 44.6 43.7 43.65 Q45.05 42.85 45.65 41.9" fill="#004ed7" fill-rule="evenodd" stroke="none"/>
      <path d="M35.5 39.6 L41.85 45.45 45.8 42.05 46.2 42.45 45.3 46.25 42.1 46.5 39.85 46.65 Q38.6 43.7 36.25 41.2 L34.45 39.5 35.2 39.7 35.5 39.6 M29.5 39.1 L29.45 39.1 28.65 39.1 26.65 38.9 Q26.1 37.7 24.55 35.7 L24.4 35.5 23.55 34.4 23.0 33.7 22.25 33.5 17.55 33.75 15.85 34.1 14.65 35.65 11.5 39.6 11.05 40.3 10.25 41.4 10.15 40.5 Q11.2 38.6 12.6 37.0 L12.65 36.85 13.85 35.3 14.55 34.1 Q15.3 32.25 15.2 29.15 L15.1 27.35 17.5 25.75 16.95 32.55 Q17.4 32.25 18.45 32.3 L19.95 32.4 24.35 33.6 Q27.35 36.85 26.95 38.4 L29.1 38.55 29.85 38.55 30.85 38.6 30.6 38.7 30.55 38.7 30.15 38.65 Q29.8 38.65 29.75 38.8 L29.65 38.85 29.7 39.05 29.5 39.1 M15.15 34.0 L15.7 34.1 16.5 33.75 Q17.1 33.65 16.9 33.2 L16.75 33.0 16.1 33.1 16.05 33.05 15.6 33.35 15.15 33.75 15.15 34.0" fill="#a3b9f0" fill-rule="evenodd" stroke="none"/>
      <path d="M39.85 46.65 L42.1 46.5 45.3 46.25 45.15 46.9 40.9 48.6 40.8 48.7 Q38.9 48.4 37.55 48.7 L36.2 48.9 36.05 51.75 35.95 54.45 33.2 54.45 Q32.8 51.1 31.9 47.65 28.15 44.55 21.65 42.0 L21.1 38.95 18.6 40.7 10.35 41.55 10.25 41.4 11.05 40.3 11.5 39.6 15.85 36.1 Q18.4 34.1 21.45 34.9 L23.45 36.2 24.85 37.65 24.2 35.8 23.55 34.4 24.4 35.5 24.55 35.7 Q26.1 37.7 26.65 38.9 L28.65 39.1 29.45 39.1 29.5 39.1 29.75 39.1 30.45 39.5 30.95 39.4 31.0 39.4 34.25 41.3 Q37.95 43.9 39.35 46.65 L39.85 46.65 M10.15 30.75 L10.3 32.5 10.5 33.9 9.3 33.25 9.1 31.5 10.15 30.75 M26.1 41.2 L28.95 41.1 Q30.7 41.5 32.7 43.0 35.6 44.95 35.05 46.9 L34.85 47.7 34.25 48.1 36.2 47.85 39.35 47.15 Q37.6 43.7 35.05 42.0 L30.45 39.65 26.65 40.05 22.95 41.55 23.0 41.55 26.1 41.2" fill="#899ed3" fill-rule="evenodd" stroke="none"/>
      <path d="M45.65 41.9 Q45.05 42.85 43.7 43.65 L41.95 44.6 34.8 38.3 29.35 37.35 28.2 37.7 28.25 36.65 25.75 33.1 27.35 35.1 28.75 37.25 32.5 37.55 37.9 38.65 39.25 36.2 45.65 41.9 M25.05 32.2 L23.25 31.95 24.5 23.0 24.55 23.05 23.65 31.55 24.1 31.6 Q24.5 31.55 25.0 32.15 L25.05 32.2" fill="#4f8fff" fill-rule="evenodd" stroke="none"/>
      <path d="M23.95 22.55 L22.55 32.35 25.05 32.85 27.75 37.15 27.6 38.25 30.35 38.05 34.95 39.05 35.5 39.6 35.2 39.7 34.45 39.5 36.25 41.2 Q38.6 43.7 39.85 46.65 L39.35 46.65 Q37.95 43.9 34.25 41.3 L31.0 39.4 30.95 39.4 31.15 39.25 31.2 38.9 30.95 38.75 30.6 38.7 30.85 38.6 29.85 38.55 29.1 38.55 26.95 38.4 Q27.35 36.85 24.35 33.6 L19.95 32.4 18.45 32.3 Q17.4 32.25 16.95 32.55 L17.5 25.75 23.25 21.85 23.95 22.55 M29.75 39.1 L29.5 39.1 29.7 39.05 29.75 39.1" fill="#bbe1fc" fill-rule="evenodd" stroke="none"/>
      <path d="M10.15 30.75 L13.1 28.75 Q13.5 33.95 12.65 36.85 L12.6 37.0 Q11.2 38.6 10.15 40.5 L9.3 33.25 10.5 33.9 10.3 32.5 10.15 30.75 M26.1 41.2 L23.0 41.55 22.95 41.55 26.65 40.05 30.45 39.65 35.05 42.0 Q37.6 43.7 39.35 47.15 L36.2 47.85 34.25 48.1 34.85 47.7 35.05 46.9 Q35.6 44.95 32.7 43.0 30.7 41.5 28.95 41.1 L26.1 41.2" fill="#707bbb" fill-rule="evenodd" stroke="none"/>
      <path d="M23.55 34.4 L24.2 35.8 24.85 37.65 23.45 36.2 21.45 34.9 Q18.4 34.1 15.85 36.1 L11.5 39.6 14.65 35.65 15.85 34.1 17.55 33.75 22.25 33.5 23.0 33.7 23.55 34.4 M12.65 36.85 Q13.5 33.95 13.1 28.75 L15.1 27.35 15.2 29.15 Q15.3 32.25 14.55 34.1 L13.85 35.3 12.65 36.85" fill="#48558a" fill-rule="evenodd" stroke="none"/>
      <path d="M30.95 39.4 L30.45 39.5 29.75 39.1 29.7 39.05 29.65 38.85 29.75 38.8 Q29.8 38.65 30.15 38.65 L30.55 38.7 30.6 38.7 30.95 38.75 31.2 38.9 31.15 39.25 30.95 39.4 M15.15 34.0 L15.15 33.75 15.6 33.35 16.05 33.05 16.1 33.1 16.75 33.0 16.9 33.2 Q17.1 33.65 16.5 33.75 L15.7 34.1 15.15 34.0" fill="#f5fafe" fill-rule="evenodd" stroke="none"/>
      <path d="M25.75 33.1 L25.2 32.25 25.05 32.2 25.0 32.15 Q24.5 31.55 24.1 31.6 L23.65 31.55 24.55 23.05 39.25 36.2 37.9 38.65 32.5 37.55 28.75 37.25 27.35 35.1 25.75 33.1" fill="#58f8ff" fill-rule="evenodd" stroke="none"/>
      <path d="M35.95 54.45 L36.05 51.75 36.2 48.9 37.55 48.7 Q38.9 48.4 40.8 48.7 L38.1 54.45 35.95 54.45" fill="#bcdffd" fill-rule="evenodd" stroke="none"/>
      <path d="M45.8 42.05 L45.65 41.9 39.25 36.2 24.55 23.05 24.5 23.0 23.95 22.55 23.25 21.85 17.5 25.75 15.1 27.35 13.1 28.75 10.15 30.75 9.1 31.5 9.3 33.25 10.15 40.5 10.25 41.4 10.35 41.55 18.6 40.7 21.1 38.95 21.65 42.0 Q28.15 44.55 31.9 47.65 32.8 51.1 33.2 54.45 M45.8 42.05 L47.15 40.9 M45.3 46.25 L46.2 42.45 45.8 42.05 M40.8 48.7 L40.9 48.6 45.15 46.9 45.3 46.25 M23.95 22.55 L24.05 21.85 M38.1 54.45 L40.8 48.7" fill="none" stroke="#364680" stroke-linecap="round" stroke-linejoin="round" stroke-width="1.0"/>
      <path d="M23.95 22.55 L22.55 32.35 25.05 32.85 27.75 37.15 27.6 38.25 30.35 38.05 34.95 39.05 35.5 39.6 41.85 45.45 45.8 42.05" fill="none" stroke="#364680" stroke-linecap="round" stroke-linejoin="round" stroke-width="0.5"/>
      <path d="M45.35 -0.45 L48.1 -0.45 44.45 2.05 45.35 -0.45" fill="#7096db" fill-rule="evenodd" stroke="none"/>
      <path d="M41.15 5.05 L42.55 -0.45 43.2 -0.45 42.5 3.6 43.8 2.75 44.1 2.55 49.2 -0.45 50.2 -0.45 49.4 0.05 46.0 2.3 42.0 5.7 40.7 6.8 41.15 5.05" fill="#bfe1ff" fill-rule="evenodd" stroke="none"/>
      <path d="M43.2 -0.45 L43.55 -0.45 43.8 2.75 42.5 3.6 43.2 -0.45 M44.0 -0.45 L45.35 -0.45 44.45 2.05 48.1 -0.45 49.2 -0.45 44.1 2.55 44.0 -0.45" fill="#9dbdf8" fill-rule="evenodd" stroke="none"/>
      <path d="M40.95 -0.45 L42.55 -0.45 41.15 5.05 40.1 4.2 40.85 0.25 40.95 -0.45 M43.55 -0.45 L44.0 -0.45 44.1 2.55 43.8 2.75 43.55 -0.45 M50.2 -0.45 L51.45 -0.45 50.25 0.9 49.05 2.4 Q49.0 1.45 49.25 0.6 L49.4 0.05 Q47.7 2.15 45.2 4.25 L42.65 6.25 42.0 5.7 46.0 2.3 49.4 0.05 50.2 -0.45" fill="#7179b7" fill-rule="evenodd" stroke="none"/>
      <path d="M40.95 -0.45 L40.85 0.25 40.1 4.2 41.15 5.05 40.7 6.8 42.0 5.7 42.65 6.25 45.2 4.25 Q47.7 2.15 49.4 0.05 L49.25 0.6 Q49.0 1.45 49.05 2.4 L50.25 0.9 51.45 -0.45 52.35 -0.45 48.6 10.5 49.8 3.2 49.85 3.1 Q49.3 3.3 47.35 5.45 L45.3 7.9 46.3 4.5 41.45 8.1 38.9 10.0 39.1 6.75 39.25 3.95 35.9 6.55 38.9 0.5 39.0 -0.45 40.95 -0.45" fill="#4686b4" fill-rule="evenodd" stroke="none"/>
      <path d="M48.6 10.5 L47.35 13.6 47.5 11.0 47.85 7.5 46.3 8.9 Q45.0 10.25 44.85 10.65 L44.7 10.75 45.05 8.2 Q45.1 7.75 43.4 8.95 41.6 10.1 40.7 10.2 39.9 10.3 39.0 11.15 L40.15 9.6 Q38.75 9.95 36.8 11.25 L37.25 8.8 Q37.4 7.9 37.8 6.95 L36.9 6.95 35.55 7.25 35.9 6.55 39.25 3.95 39.1 6.75 38.9 10.0 41.45 8.1 46.3 4.5 45.3 7.9 47.35 5.45 Q49.3 3.3 49.85 3.1 L49.8 3.2 48.6 10.5" fill="#4ea0db" fill-rule="evenodd" stroke="none"/>
      <path d="M47.35 13.6 L44.65 20.0 38.9 18.2 34.0 10.45 35.55 7.25 36.9 6.95 37.8 6.95 Q37.4 7.9 37.25 8.8 L36.8 11.25 Q38.75 9.95 40.15 9.6 L39.0 11.15 Q39.9 10.3 40.7 10.2 41.6 10.1 43.4 8.95 45.1 7.75 45.05 8.2 L44.7 10.75 44.85 10.65 Q45.0 10.25 46.3 8.9 L47.85 7.5 47.5 11.0 47.35 13.6" fill="#4e81db" fill-rule="evenodd" stroke="none"/>
      <path d="M52.35 -0.45 L48.6 10.5 47.35 13.6 44.65 20.0 38.9 18.2 34.0 10.45 35.55 7.25 35.9 6.55 38.9 0.5 39.0 -0.45" fill="none" stroke="#3b3a70" stroke-linecap="round" stroke-linejoin="round" stroke-width="1.0"/>
      <path d="M19.25 -1.4 L19.5 -1.4 18.95 -0.95 19.25 -1.4 M26.3 -1.4 L27.4 -1.4 26.55 -0.3 26.45 -0.15 26.3 -1.4 M29.95 -1.4 L31.45 -1.4 31.5 0.4 30.6 4.15 30.2 0.85 29.95 -1.4" fill="#4ea0db" fill-rule="evenodd" stroke="none"/>
      <path d="M19.25 -1.4 L18.95 -0.95 19.5 -1.4 26.3 -1.4 26.45 -0.15 26.55 -0.3 27.4 -1.4 29.95 -1.4 30.2 0.85 30.6 4.15 28.6 11.75 20.45 8.1 13.4 -1.4 19.25 -1.4" fill="#4e81db" fill-rule="evenodd" stroke="none"/>
      <path d="M31.45 -1.4 L31.9 -1.4 31.5 0.4 31.45 -1.4" fill="#4686b4" fill-rule="evenodd" stroke="none"/>
      <path d="M31.9 -1.4 L31.5 0.4 30.6 4.15 28.6 11.75 20.45 8.1 13.4 -1.4" fill="none" stroke="#3b3a70" stroke-linecap="round" stroke-linejoin="round" stroke-width="1.0"/>
      <path d="M51.1 41.1 L50.65 41.0 47.2 39.45 Q45.75 38.9 44.85 38.35 L44.6 38.2 Q44.15 37.45 44.0 36.0 L43.95 34.85 48.2 36.35 48.35 36.45 48.4 36.45 48.7 36.6 50.75 40.4 50.75 40.45 51.1 41.1" fill="#f5fafe" fill-rule="evenodd" stroke="none"/>
      <path d="M43.95 34.85 L44.0 36.0 Q44.15 37.45 44.6 38.2 L44.85 38.35 Q45.75 38.9 47.2 39.45 L50.65 41.0 51.1 41.1 51.15 41.2 50.95 41.3 46.45 40.15 46.0 40.65 42.55 44.05 45.1 40.3 45.45 39.8 42.25 37.5 41.7 37.25 39.95 35.65 39.05 34.85 37.8 33.8 37.0 33.2 33.25 32.15 29.4 28.0 26.45 25.3 24.55 15.55 33.6 13.1 Q34.4 18.85 35.1 21.6 L36.75 29.4 Q37.15 31.1 38.25 32.4 L42.1 34.05 43.95 34.85 M48.7 36.6 L48.4 36.45 48.65 36.55 48.7 36.6" fill="#bcdffd" fill-rule="evenodd" stroke="none"/>
      <path d="M48.4 36.45 L48.35 36.45 48.2 36.35 43.95 34.85 42.1 34.05 38.25 32.4 Q37.15 31.1 36.75 29.4 L35.1 21.6 Q34.4 18.85 33.6 13.1 L34.55 12.9 48.0 31.75 Q47.7 33.4 48.35 35.8 L48.65 36.55 48.4 36.45 M24.55 15.55 L26.45 25.3 29.4 28.0 33.25 32.15 37.0 33.2 37.8 33.8 39.05 34.85 39.95 35.65 41.7 37.25 42.25 37.5 45.45 39.8 45.1 40.3 40.7 37.3 36.9 33.7 33.1 32.8 32.6 33.25 32.4 32.0 27.6 27.4 27.25 28.5 26.9 30.45 Q25.1 29.35 24.35 24.9 L23.5 20.25 23.15 19.55 22.75 16.05 24.55 15.55 M46.0 40.65 L46.45 40.15 50.95 41.3 50.75 41.5 46.0 40.65" fill="#737cb7" fill-rule="evenodd" stroke="none"/>
      <path d="M45.1 40.3 L42.55 44.05 46.0 40.65 50.75 41.5 Q46.35 44.25 41.75 45.15 39.0 41.6 34.65 37.65 33.35 36.7 30.2 35.25 28.15 31.7 24.15 29.25 L23.15 19.55 23.5 20.25 24.35 24.9 Q25.1 29.35 26.9 30.45 L27.25 28.5 27.6 27.4 32.4 32.0 32.6 33.25 33.1 32.8 36.9 33.7 40.7 37.3 45.1 40.3" fill="#899ed3" fill-rule="evenodd" stroke="none"/>
      <path d="M51.1 41.1 L50.75 40.45 50.75 40.4 48.7 36.6 48.65 36.55 48.35 35.8 Q47.7 33.4 48.0 31.75 L34.55 12.9 33.6 13.1 24.55 15.55 22.75 16.05 23.15 19.55 M50.95 41.3 L51.15 41.2 51.1 41.1 M41.75 45.15 Q46.35 44.25 50.75 41.5 L50.95 41.3" fill="none" stroke="#364680" stroke-linecap="round" stroke-linejoin="round" stroke-width="1.0"/>
      <path d="M23.15 19.55 L24.15 29.25 Q28.15 31.7 30.2 35.25 33.35 36.7 34.65 37.65 39.0 41.6 41.75 45.15" fill="none" stroke="#364680" stroke-linecap="round" stroke-linejoin="round" stroke-width="0.5"/>
      <path d="M32.45 27.0 L32.4 27.0 28.65 24.55 Q28.25 22.9 28.3 21.05 L28.35 19.45 28.45 19.45 Q31.75 21.3 33.4 24.0 34.15 25.15 34.75 27.1 L35.15 28.45 34.95 28.35 33.4 27.5 33.8 27.7 33.7 27.15 32.9 24.6 32.6 24.25 29.45 20.55 29.35 21.1 29.2 23.9 29.25 24.15 29.3 24.2 Q30.6 25.85 32.45 27.0" fill="#58f8ff" fill-rule="evenodd" stroke="none"/>
      <path d="M33.4 27.5 L34.95 28.35 35.15 28.45 34.75 27.1 Q34.15 25.15 33.4 24.0 31.75 21.3 28.45 19.45 L28.35 19.45 28.3 21.05 Q28.25 22.9 28.65 24.55 L32.4 27.0 32.45 27.0 32.5 27.05 32.6 27.1 32.8 27.2 32.95 27.3 33.3 27.45 33.4 27.5 M26.85 23.4 L26.15 22.6 27.0 23.3 27.1 23.35 28.15 24.2 Q27.75 21.05 27.65 18.6 L28.4 19.0 31.3 20.9 Q33.35 22.5 34.0 23.85 34.75 25.3 35.4 28.05 L35.45 28.3 35.55 28.6 35.55 28.75 35.6 28.9 35.25 28.7 Q33.3 27.9 31.05 26.6 L28.4 24.8 28.2 24.6 27.0 23.6 26.85 23.4" fill="#2681d2" fill-rule="evenodd" stroke="none"/>
      <path d="M32.45 27.0 Q30.6 25.85 29.3 24.2 L29.25 24.15 29.2 23.9 29.35 21.1 29.45 20.55 32.6 24.25 32.9 24.6 33.7 27.15 33.8 27.7 33.4 27.5 33.3 27.45 32.95 27.3 32.8 27.2 32.6 27.1 32.5 27.05 32.45 27.0" fill="#fffeff" fill-rule="evenodd" stroke="none"/>
      <path d="M27.0 23.3 L26.0 20.0 Q24.85 16.45 23.6 13.8 26.05 14.8 30.75 18.65 34.2 21.65 35.3 23.0 L35.4 23.45 35.55 28.55 35.45 28.3 35.4 28.05 Q34.75 25.3 34.0 23.85 33.35 22.5 31.3 20.9 L28.4 19.0 27.65 18.6 Q27.75 21.05 28.15 24.2 L27.1 23.35 27.0 23.3 M35.6 28.6 L36.0 29.5 Q34.8 28.75 31.05 26.9 28.35 25.5 26.3 23.75 L26.85 23.4 27.0 23.6 28.2 24.6 28.4 24.8 31.05 26.6 Q33.3 27.9 35.25 28.7 L35.6 28.9 35.55 28.75 35.6 28.6" fill="#48558a" fill-rule="evenodd" stroke="none"/>
      <path d="M27.0 23.3 L26.15 22.6 26.85 23.4 26.3 23.75 Q28.35 25.5 31.05 26.9 34.8 28.75 36.0 29.5 L35.6 28.6 35.55 28.55 35.4 23.45 35.3 23.0 Q34.2 21.65 30.75 18.65 26.05 14.8 23.6 13.8 24.85 16.45 26.0 20.0 L27.0 23.3 M36.15 23.05 L36.5 26.95 Q36.95 29.75 37.5 30.35 L37.45 30.5 31.7 28.1 Q29.4 27.1 27.25 25.4 25.1 23.8 23.85 18.35 L22.65 11.75 Q27.6 13.95 32.7 19.05 L36.15 23.05" fill="#253b6d" fill-rule="evenodd" stroke="none"/>
      <path d="M7.9 -0.95 L8.45 -0.95 8.7 1.5 8.75 1.8 8.75 1.9 8.85 1.95 6.6 4.55 6.3 5.45 7.55 5.5 7.95 5.55 9.8 5.9 Q10.65 6.25 13.45 8.35 L17.8 12.0 17.85 11.85 Q17.55 11.3 17.4 10.1 L21.15 10.4 Q24.65 11.05 26.45 11.75 L27.55 12.2 28.6 13.05 30.3 14.5 Q29.5 11.6 27.7 8.1 26.05 4.8 23.4 0.4 L23.35 -0.95 24.6 -0.95 30.0 4.75 29.9 5.65 29.8 7.45 32.5 12.8 33.05 13.95 33.7 15.1 33.85 16.1 34.8 17.95 34.05 17.5 35.0 23.3 35.3 22.65 35.95 22.05 Q37.15 22.95 37.6 24.5 38.15 25.9 37.9 27.85 L39.65 25.25 39.8 24.95 40.25 24.05 40.85 22.95 41.3 22.05 41.65 21.5 41.95 21.05 41.8 21.6 41.3 23.0 41.2 23.25 41.1 23.4 40.55 24.45 39.9 25.75 38.8 28.0 37.95 29.55 35.95 25.3 34.15 24.1 Q33.3 21.2 30.95 17.7 L29.8 16.0 25.05 13.3 Q23.7 15.95 23.3 18.3 17.75 12.9 9.65 7.25 6.4 6.75 3.35 8.05 2.7 3.55 2.65 -0.95 L6.2 -0.95 6.1 0.25 Q5.85 4.2 4.45 6.4 L6.45 3.8 7.75 2.05 7.85 2.0 7.9 -0.95 M29.6 8.85 L29.65 8.25 29.8 7.45 29.65 8.25 29.6 8.85 M50.3 33.4 L47.65 36.45 Q43.25 34.15 39.2 30.75 L39.85 30.15 40.7 30.4 40.95 30.5 41.65 30.7 43.65 31.5 44.1 31.75 Q46.65 33.1 47.45 35.35 L47.5 35.1 48.6 34.0 49.65 32.9 50.3 33.4" fill="#ff9c2a" fill-rule="evenodd" stroke="none"/>
      <path d="M7.9 -0.95 L7.85 2.0 7.75 2.05 6.45 3.8 4.45 6.4 Q5.85 4.2 6.1 0.25 L6.2 -0.95 7.9 -0.95 M11.15 -0.95 L16.6 -0.95 16.75 0.15 Q15.7 1.15 13.55 1.25 L11.65 1.2 11.15 -0.95 M30.0 4.75 L30.0 4.45 Q31.75 8.9 33.9 12.25 35.55 14.65 37.3 16.35 L39.05 17.8 39.1 17.8 40.85 18.85 41.8 19.25 41.75 19.4 41.0 20.65 39.95 22.2 39.6 22.5 39.45 22.7 38.95 23.25 Q32.3 12.75 29.9 5.65 L30.0 4.75 M50.75 20.2 L50.8 20.3 50.8 20.55 Q51.25 26.2 50.7 31.25 48.05 30.95 44.75 29.8 L42.65 29.05 41.55 28.55 41.65 28.3 41.75 28.0 41.8 27.9 42.75 24.6 43.65 20.55 44.15 17.7 45.95 21.05 49.15 25.65 49.4 25.15 50.75 20.2" fill="#ffd56d" fill-rule="evenodd" stroke="none"/>
      <path d="M41.95 21.05 L41.65 21.5 41.3 22.05 40.95 22.55 40.85 22.65 40.65 22.85 40.05 23.7 39.75 24.1 39.0 24.9 38.35 23.85 34.2 16.05 33.7 15.1 33.05 13.95 32.5 12.8 29.8 7.45 29.9 5.65 Q32.3 12.75 38.95 23.25 L39.45 22.7 39.6 22.5 39.95 22.2 41.0 20.65 41.75 19.4 41.8 19.25 40.85 18.85 39.1 17.8 39.05 17.8 37.3 16.35 Q35.55 14.65 33.9 12.25 31.75 8.9 30.0 4.45 30.4 1.75 31.3 -0.95 L33.5 -0.95 36.45 3.7 Q37.5 5.3 39.7 10.0 L40.65 11.95 41.75 14.9 Q42.15 16.25 42.2 17.55 L42.2 19.35 41.95 21.05 M11.15 -0.95 L11.65 1.2 13.55 1.25 Q15.7 1.15 16.75 0.15 L16.6 -0.95 23.35 -0.95 23.4 0.4 Q26.05 4.8 27.7 8.1 29.5 11.6 30.3 14.5 L28.6 13.05 27.55 12.2 Q25.5 10.5 23.05 9.35 L22.2 9.05 Q20.9 8.15 18.95 7.15 16.35 5.65 12.5 3.8 L12.35 3.65 8.85 1.95 8.75 1.9 8.75 1.8 8.7 1.5 8.45 -0.95 11.15 -0.95 M38.05 -0.95 L47.2 -0.95 Q49.85 10.35 50.75 20.2 L49.4 25.15 49.15 25.65 45.95 21.05 44.15 17.7 43.65 20.55 42.75 24.6 Q43.8 20.15 43.5 16.3 43.25 12.4 40.95 6.8 38.95 1.9 38.05 -0.95 M50.7 31.25 L50.5 32.95 50.5 33.3 50.3 33.4 49.65 32.9 49.6 32.8 48.6 32.45 45.45 31.3 43.55 30.55 42.1 30.05 41.8 29.85 41.1 29.55 41.35 29.0 41.55 28.55 42.65 29.05 44.75 29.8 Q48.05 30.95 50.7 31.25 M43.1 11.4 L43.25 12.65 Q43.5 13.25 44.1 13.65 L44.45 13.65 Q44.8 13.15 44.75 12.65 L44.4 11.5 44.0 10.7 43.7 10.35 Q43.1 10.6 43.1 11.4 M37.7 8.65 L37.5 8.65 37.4 8.7 37.3 8.75 Q36.8 9.3 37.15 9.9 L37.8 11.1 38.55 12.0 39.1 12.1 39.35 11.05 38.95 10.05 38.1 9.0 37.75 8.7 37.7 8.65" fill="#fff971" fill-rule="evenodd" stroke="none"/>
      <path d="M34.25 -0.95 L37.45 -0.95 37.9 1.65 38.7 4.25 40.2 7.85 40.4 8.45 40.9 9.65 39.2 7.35 39.0 7.05 Q36.05 2.95 34.95 0.6 L34.25 -0.95 M42.35 13.4 L42.55 14.15 43.05 16.65 43.25 18.95 43.25 19.0 Q42.85 18.0 42.2 17.55 42.15 16.25 41.75 14.9 L42.05 14.2 42.35 13.4" fill="#7bfbff" fill-rule="evenodd" stroke="none"/>
      <path d="M37.95 29.55 L38.8 28.0 39.9 25.75 40.55 24.45 41.1 23.4 41.2 23.25 42.3 24.25 42.8 22.65 Q43.2 21.05 43.2 19.15 L43.25 19.0 43.25 18.95 43.05 16.65 42.55 14.15 42.35 13.4 41.85 12.0 41.0 9.8 40.9 9.65 40.4 8.45 40.2 7.85 38.7 4.25 37.9 1.65 37.45 -0.95 38.05 -0.95 Q38.95 1.9 40.95 6.8 43.25 12.4 43.5 16.3 43.8 20.15 42.75 24.6 L41.8 27.9 41.75 28.0 41.65 28.3 41.55 28.55 41.35 29.0 41.1 29.55 40.55 29.2 40.35 29.15 39.85 30.15 39.2 30.75 38.65 30.4 38.05 29.8 37.95 29.55" fill="#4686b4" fill-rule="evenodd" stroke="none"/>
      <path d="M41.2 23.25 L41.3 23.0 41.8 21.6 41.95 21.05 42.2 19.35 42.2 17.55 Q42.85 18.0 43.25 19.0 L43.2 19.15 Q43.2 21.05 42.8 22.65 L42.3 24.25 41.2 23.25 M33.5 -0.95 L34.25 -0.95 34.95 0.6 Q36.05 2.95 39.0 7.05 L39.2 7.35 40.9 9.65 41.0 9.8 41.85 12.0 42.35 13.4 42.05 14.2 41.75 14.9 40.65 11.95 39.7 10.0 Q37.5 5.3 36.45 3.7 L33.5 -0.95" fill="#4edeff" fill-rule="evenodd" stroke="none"/>
      <path d="M43.1 11.4 Q43.1 10.6 43.7 10.35 L44.0 10.7 44.4 11.5 44.75 12.65 Q44.8 13.15 44.45 13.65 L44.1 13.65 Q43.5 13.25 43.25 12.65 L43.1 11.4 M37.7 8.65 L37.75 8.7 38.1 9.0 38.95 10.05 39.35 11.05 39.1 12.1 38.55 12.0 37.8 11.1 37.15 9.9 Q36.8 9.3 37.3 8.75 L37.4 8.7 37.5 8.65 37.7 8.65" fill="#fffeff" fill-rule="evenodd" stroke="none"/>
      <path d="M41.3 22.05 L40.85 22.95 40.25 24.05 39.8 24.95 39.65 25.25 37.9 27.85 Q38.15 25.9 37.6 24.5 37.15 22.95 35.95 22.05 L35.3 22.65 35.0 23.3 34.05 17.5 34.8 17.95 33.85 16.1 33.7 15.1 34.2 16.05 38.35 23.85 39.0 24.9 39.75 24.1 40.05 23.7 40.65 22.85 40.85 22.65 40.95 22.55 41.3 22.05 M8.85 1.95 L12.35 3.65 12.5 3.8 Q16.35 5.65 18.95 7.15 20.9 8.15 22.2 9.05 L23.05 9.35 Q25.5 10.5 27.55 12.2 L26.45 11.75 Q24.65 11.05 21.15 10.4 L17.4 10.1 Q17.55 11.3 17.85 11.85 L17.8 12.0 13.45 8.35 Q10.65 6.25 9.8 5.9 L7.95 5.55 7.55 5.5 6.3 5.45 6.6 4.55 8.85 1.95 M49.65 32.9 L48.6 34.0 47.5 35.1 47.45 35.35 Q46.65 33.1 44.1 31.75 L43.65 31.5 41.65 30.7 40.95 30.5 40.7 30.4 39.85 30.15 40.35 29.15 40.55 29.2 41.1 29.55 41.8 29.85 42.1 30.05 43.55 30.55 45.45 31.3 48.6 32.45 49.6 32.8 49.65 32.9" fill="#b65f35" fill-rule="evenodd" stroke="none"/>
      <path d="M2.65 -0.95 Q2.7 3.55 3.35 8.05 6.4 6.75 9.65 7.25 17.75 12.9 23.3 18.3 23.7 15.95 25.05 13.3 L29.8 16.0 30.95 17.7 Q33.3 21.2 34.15 24.1 L35.95 25.3 37.95 29.55 38.05 29.8 38.65 30.4 M29.8 7.45 L29.65 8.25 29.6 8.85 M24.6 -0.95 L30.0 4.75 30.0 4.45 Q30.4 1.75 31.3 -0.95 M47.2 -0.95 Q49.85 10.35 50.75 20.2 L50.8 20.3 50.8 20.55 Q51.25 26.2 50.7 31.25 L50.5 32.95 50.5 33.3 50.3 33.4 47.65 36.45 Q43.25 34.15 39.2 30.75 M29.9 5.65 L29.8 7.45 M30.0 4.75 L29.9 5.65" fill="none" stroke="#953b23" stroke-linecap="round" stroke-linejoin="round" stroke-width="1.0"/>
      <path d="M18.85 25.25 Q21.55 23.9 23.6 21.9 L24.55 22.05 24.55 22.45 20.4 26.15 19.35 26.9 16.95 27.75 17.35 27.25 18.85 25.25 M4.35 47.95 L3.75 48.95 3.75 45.7 6.15 37.6 6.15 37.35 6.15 33.8 6.15 33.75 6.1 33.2 5.8 30.65 5.65 29.0 6.25 27.0 6.75 27.3 6.2 29.45 Q6.1 30.0 6.15 30.95 L6.15 33.0 6.65 39.35 5.0 45.65 4.35 47.95" fill="#ffd56d" fill-rule="evenodd" stroke="none"/>
      <path d="M16.95 27.75 L19.35 26.9 20.4 26.15 24.55 22.45 24.4 25.25 21.05 32.75 Q19.3 31.45 15.6 31.45 11.1 35.6 4.35 47.95 L5.0 45.65 6.65 39.35 6.15 33.0 6.15 30.95 Q6.1 30.0 6.2 29.45 L6.75 27.3 7.45 27.6 Q9.85 28.95 11.75 29.4 L11.85 29.4 16.95 27.75 M3.75 45.7 L3.75 31.45 Q4.2 28.5 4.75 26.2 L6.25 27.0 5.65 29.0 5.8 30.65 6.1 33.2 6.15 33.75 6.15 33.8 6.15 37.35 6.15 37.6 3.75 45.7 M23.35 24.25 L23.5 23.55 22.8 24.25 20.7 26.3 20.7 26.35 20.2 26.6 19.0 27.2 16.5 28.3 13.05 29.6 12.8 29.8 11.8 29.75 11.7 29.75 10.85 29.7 9.7 29.5 7.45 28.85 6.55 28.55 6.65 30.0 7.0 33.0 7.1 33.8 7.3 35.75 7.85 35.15 Q8.65 34.3 9.8 33.55 12.35 31.7 16.6 29.9 L18.2 30.2 20.9 30.85 21.1 30.45 22.95 26.45 23.15 26.0 23.35 24.25" fill="#ff9c2a" fill-rule="evenodd" stroke="none"/>
      <path d="M6.65 30.0 L6.55 28.55 7.45 28.85 9.7 29.5 10.85 29.7 11.7 29.75 11.8 29.75 12.8 29.8 13.05 29.6 16.5 28.3 19.0 27.2 20.2 26.6 20.7 26.35 20.7 26.3 22.8 24.25 23.5 23.55 23.35 24.25 Q20.7 26.95 17.4 28.7 L11.5 30.2 10.35 30.5 6.65 30.0 M21.1 30.45 L20.9 30.85 18.2 30.2 16.6 29.9 Q12.35 31.7 9.8 33.55 8.65 34.3 7.85 35.15 L7.3 35.75 7.1 33.8 8.15 33.05 10.75 31.6 12.05 31.0 Q16.3 29.1 18.95 29.65 L21.1 30.45" fill="#4686b4" fill-rule="evenodd" stroke="none"/>
      <path d="M18.85 25.25 L17.35 27.25 16.95 27.75 11.85 29.4 11.75 29.4 Q9.85 28.95 7.45 27.6 L6.75 27.3 6.25 27.0 4.75 26.2 5.15 24.7 Q9.9 25.9 17.05 26.0 L18.85 25.25" fill="#fff971" fill-rule="evenodd" stroke="none"/>
      <path d="M23.35 24.25 L23.15 26.0 22.95 26.45 21.1 30.45 18.95 29.65 Q16.3 29.1 12.05 31.0 L10.75 31.6 8.15 33.05 7.1 33.8 7.0 33.0 6.65 30.0 10.35 30.5 11.5 30.2 17.4 28.7 Q20.7 26.95 23.35 24.25" fill="#4edeff" fill-rule="evenodd" stroke="none"/>
      <path d="M24.55 22.45 L24.55 22.05 23.6 21.9 Q21.55 23.9 18.85 25.25 L17.05 26.0 Q9.9 25.9 5.15 24.7 L4.75 26.2 Q4.2 28.5 3.75 31.45 L3.75 45.7 3.75 48.95 4.35 47.95 Q11.1 35.6 15.6 31.45 19.3 31.45 21.05 32.75 L24.4 25.25 24.55 22.45 Z" fill="none" stroke="#953b23" stroke-linecap="round" stroke-linejoin="round" stroke-width="1.0"/>
      <path d="M0.2 16.6 Q2.2 18.15 4.05 18.8 3.85 22.45 4.05 26.4 L1.95 24.05 -0.45 20.85 -0.45 17.25 0.2 16.6 M7.75 48.25 L7.85 48.6 -0.45 42.5 -0.45 40.15 0.05 40.6 2.65 43.1 -0.45 37.5 -0.45 36.1 1.55 40.0 Q4.7 45.4 7.75 48.25" fill="#ff9c2a" fill-rule="evenodd" stroke="none"/>
      <path d="M4.05 18.8 Q2.2 18.15 0.2 16.6 L-0.25 16.25 -0.45 16.1 -0.45 6.55 Q1.6 12.4 4.0 17.85 L4.1 18.05 4.05 18.8 M-0.45 20.85 L1.95 24.05 4.05 26.4 4.05 27.05 2.8 25.9 -0.45 23.05 -0.45 20.85 M5.5 37.25 L7.75 48.25 Q4.7 45.4 1.55 40.0 L-0.45 36.1 -0.45 29.85 Q0.5 32.0 2.35 34.15 L5.5 37.25" fill="#fff971" fill-rule="evenodd" stroke="none"/>
      <path d="M-0.45 23.05 L2.8 25.9 4.05 27.05 Q4.35 31.6 5.3 36.45 L5.5 37.25 2.35 34.15 Q0.5 32.0 -0.45 29.85 L-0.45 23.05" fill="#ffd56d" fill-rule="evenodd" stroke="none"/>
      <path d="M-0.45 39.95 L-0.45 37.5 2.65 43.1 0.05 40.6 -0.2 40.3 -0.45 39.95" fill="#793717" fill-rule="evenodd" stroke="none"/>
      <path d="M-0.45 40.15 L-0.45 39.95 -0.2 40.3 0.05 40.6 -0.45 40.15 M1.55 48.0 L1.95 48.25 -0.45 50.8 -0.45 48.8 1.55 48.0" fill="#b65f35" fill-rule="evenodd" stroke="none"/>
      <path d="M0.2 16.6 L-0.45 17.25 -0.45 16.1 -0.25 16.25 0.2 16.6" fill="#cfff80" fill-rule="evenodd" stroke="none"/>
      <path d="M1.55 48.0 L-0.45 48.8 -0.45 46.65 1.55 48.0" fill="#fffeff" fill-rule="evenodd" stroke="none"/>
      <path d="M4.05 26.4 Q3.85 22.45 4.05 18.8 L4.1 18.05 4.0 17.85 Q1.6 12.4 -0.45 6.55 M4.05 27.05 L4.05 26.4 M4.05 27.05 Q4.35 31.6 5.3 36.45 L5.5 37.25 7.75 48.25 7.85 48.6 -0.45 42.5 M-0.45 50.8 L1.95 48.25 1.55 48.0 -0.45 46.65" fill="none" stroke="#953b23" stroke-linecap="round" stroke-linejoin="round" stroke-width="1.0"/>
    </g>
    <g id="sprite0" transform="matrix(1.0, 0.0, 0.0, 1.0, 0.0, 0.0)">
      <use ffdec:characterId="3" height="18.75" transform="matrix(1.0, 0.0, 0.0, 1.0, 0.0, 0.0)" width="14.85" xlink:href="#shape2"/>
    </g>
    <g id="shape2" transform="matrix(1.0, 0.0, 0.0, 1.0, 0.0, 0.0)">
      <path d="M4.35 11.55 L3.35 8.25 Q2.2 4.7 0.95 2.05 3.4 3.05 8.1 6.9 11.55 9.9 12.65 11.25 L12.75 11.7 12.9 16.8 12.8 16.55 12.75 16.3 Q12.1 13.55 11.35 12.1 10.7 10.75 8.65 9.15 L5.75 7.25 5.0 6.85 Q5.1 9.3 5.5 12.45 L4.45 11.6 4.35 11.55 M12.95 16.85 L13.35 17.75 Q12.15 17.0 8.4 15.15 5.7 13.75 3.65 12.0 L4.2 11.65 4.35 11.85 5.55 12.85 5.75 13.05 8.4 14.85 Q10.65 16.15 12.6 16.95 L12.95 17.15 12.9 17.0 12.95 16.85" fill="#48558a" fill-rule="evenodd" stroke="none"/>
      <path d="M12.9 16.8 L12.75 11.7 12.65 11.25 Q11.55 9.9 8.1 6.9 3.4 3.05 0.95 2.05 2.2 4.7 3.35 8.25 L4.35 11.55 3.5 10.85 4.2 11.65 3.65 12.0 Q5.7 13.75 8.4 15.15 12.15 17.0 13.35 17.75 L12.95 16.85 12.9 16.8 M10.05 7.3 L13.5 11.3 13.85 15.2 Q14.3 18.0 14.85 18.6 L14.8 18.75 9.05 16.35 Q6.75 15.35 4.6 13.65 2.45 12.05 1.2 6.6 L0.0 0.0 Q4.95 2.2 10.05 7.3" fill="#253b6d" fill-rule="evenodd" stroke="none"/>
      <path d="M4.35 11.55 L4.45 11.6 5.5 12.45 Q5.1 9.3 5.0 6.85 L5.75 7.25 8.65 9.15 Q10.7 10.75 11.35 12.1 12.1 13.55 12.75 16.3 L12.8 16.55 12.9 16.85 12.9 17.0 12.95 17.15 12.6 16.95 Q10.65 16.15 8.4 14.85 L5.75 13.05 5.55 12.85 4.35 11.85 4.2 11.65 3.5 10.85 4.35 11.55 M10.75 15.75 L12.3 16.6 12.5 16.7 12.1 15.35 Q11.5 13.4 10.75 12.25 9.1 9.55 5.8 7.7 L5.7 7.7 5.65 9.3 Q5.6 11.15 6.0 12.8 7.65 14.1 9.75 15.25 L9.8 15.25 9.85 15.3 9.95 15.35 10.15 15.45 10.3 15.55 10.65 15.7 10.75 15.75" fill="#2681d2" fill-rule="evenodd" stroke="none"/>
      <path d="M10.75 15.75 L11.15 15.95 11.05 15.4 10.25 12.85 9.95 12.5 6.8 8.8 6.7 9.35 6.55 12.15 6.6 12.4 6.65 12.45 Q7.95 14.1 9.8 15.25 L9.75 15.25 Q7.65 14.1 6.0 12.8 5.6 11.15 5.65 9.3 L5.7 7.7 5.8 7.7 Q9.1 9.55 10.75 12.25 11.5 13.4 12.1 15.35 L12.5 16.7 12.3 16.6 10.75 15.75" fill="#58f8ff" fill-rule="evenodd" stroke="none"/>
      <path d="M9.8 15.25 Q7.95 14.1 6.65 12.45 L6.6 12.4 6.55 12.15 6.7 9.35 6.8 8.8 9.95 12.5 10.25 12.85 11.05 15.4 11.15 15.95 10.75 15.75 10.65 15.7 10.3 15.55 10.15 15.45 9.95 15.35 9.85 15.3 9.8 15.25" fill="#fffeff" fill-rule="evenodd" stroke="none"/>
    </g>
    <g id="shape3" transform="matrix(1.0, 0.0, 0.0, 1.0, 0.0, 0.0)">
      <path d="M50.5 0.0 Q53.95 0.0 53.95 3.3 L53.95 50.15 Q53.95 53.4 50.5 53.4 L3.3 53.4 Q0.0 53.4 0.0 50.15 L0.0 3.3 Q0.0 0.0 3.3 0.0 L50.5 0.0" fill="#000000" fill-opacity="0.003921569" fill-rule="evenodd" stroke="none"/>
    </g>
  </defs>
</svg>
