<?xml version="1.0" encoding="UTF-8" standalone="no"?>
<svg xmlns:ffdec="https://www.free-decompiler.com/flash" xmlns:xlink="http://www.w3.org/1999/xlink" ffdec:objectType="frame" height="111.7px" width="81.2px" xmlns="http://www.w3.org/2000/svg">
  <g transform="matrix(1.0, 0.0, 0.0, 1.0, 1.9, 34.25)">
    <clipPath id="clipPath0" transform="matrix(1.0, 0.0, 0.0, 1.0, 0.0, 0.0)">
      <path d="M50.5 0.0 Q53.95 0.0 53.95 3.3 L53.95 50.15 Q53.95 53.4 50.5 53.4 L3.3 53.4 Q0.0 53.4 0.0 50.15 L0.0 3.3 Q0.0 0.0 3.3 0.0 L50.5 0.0" fill="#000000" fill-rule="evenodd" stroke="none"/>
    </clipPath>
    <g clip-path="url(#clipPath0)">
      <use ffdec:characterId="2" height="111.7" transform="matrix(1.0, 0.0, 0.0, 1.0, -1.9, -34.25)" width="81.2" xlink:href="#shape1"/>
    </g>
    <use ffdec:characterId="3" height="53.4" transform="matrix(1.0, 0.0, 0.0, 1.0, 0.0, 0.0)" width="53.95" xlink:href="#shape2"/>
  </g>
  <defs>
    <g id="shape1" transform="matrix(1.0, 0.0, 0.0, 1.0, 1.9, 34.25)">
      <path d="M54.2 -0.5 L55.35 -0.5 55.35 22.0 48.5 25.0 48.4 44.1 40.75 28.65 40.8 21.25 40.95 13.3 44.8 9.4 45.9 8.2 54.2 -0.5" fill="#232323" fill-rule="evenodd" stroke="none"/>
      <path d="M47.0 -0.5 L54.2 -0.5 45.9 8.2 44.8 9.4 40.95 13.3 41.05 0.7 47.0 -0.5" fill="#482323" fill-rule="evenodd" stroke="none"/>
      <path d="M34.55 8.55 Q32.85 2.95 31.1 1.7 L33.15 -0.5 47.0 -0.5 41.05 0.7 40.95 13.3 40.8 21.25 40.55 20.8 40.5 20.75 36.25 15.45 34.55 8.55" fill="url(#gradient0)" fill-rule="evenodd" stroke="none"/>
      <path d="M34.55 8.55 Q30.5 3.75 24.95 2.8 L30.1 -0.5 33.15 -0.5 31.1 1.7 Q32.85 2.95 34.55 8.55" fill="url(#gradient1)" fill-rule="evenodd" stroke="none"/>
      <path d="M55.35 22.0 L48.5 25.0 48.4 44.1 40.75 28.65 40.8 21.25 40.95 13.3 41.05 0.7 47.0 -0.5" fill="none" stroke="#090909" stroke-linecap="round" stroke-linejoin="round" stroke-width="1.0"/>
      <path d="M54.4 29.45 L54.4 30.5 53.95 30.1 54.4 29.45 M54.4 44.3 L54.4 45.8 52.55 47.2 52.1 47.55 50.6 48.65 49.0 52.9 48.75 53.45 46.75 53.45 50.15 45.1 Q52.6 44.95 54.4 44.3" fill="#99a6b4" fill-rule="evenodd" stroke="none"/>
      <path d="M52.1 47.55 L52.55 47.2 54.4 45.8 54.4 47.7 52.1 47.55" fill="#b9cbe0" fill-rule="evenodd" stroke="none"/>
      <path d="M48.75 53.45 L49.0 52.9 50.6 48.65 52.1 47.55 54.4 47.7 54.4 53.45 48.75 53.45" fill="#676577" fill-rule="evenodd" stroke="none"/>
      <path d="M54.4 29.45 L53.95 30.1 54.4 30.5 M54.4 44.3 Q52.6 44.95 50.15 45.1 L46.75 53.45" fill="none" stroke="#24303f" stroke-linecap="round" stroke-linejoin="round" stroke-width="1.0"/>
      <path d="M61.4 8.95 L60.95 8.95 58.85 8.5 61.55 6.3 Q64.05 3.75 64.65 1.4 L63.8 1.2 Q60.05 1.2 55.7 5.0 L54.7 5.9 53.85 5.2 53.55 5.0 53.6 4.6 54.0 4.15 Q65.9 -5.7 78.8 -13.05 71.8 -3.75 66.4 5.85 L61.4 8.95 M45.65 39.25 L46.95 37.8 47.7 37.0 48.1 36.6 50.75 36.95 51.35 36.95 52.55 36.75 52.9 36.7 53.1 37.15 Q51.75 37.35 48.8 39.2 47.2 40.2 46.3 41.0 45.45 41.85 45.35 42.55 L45.65 39.25" fill="#ffffff" fill-rule="evenodd" stroke="none"/>
      <path d="M54.7 5.9 L55.7 5.0 Q60.05 1.2 63.8 1.2 L64.65 1.4 Q64.05 3.75 61.55 6.3 L58.85 8.5 60.95 8.95 61.4 8.95 59.3 10.15 57.35 11.35 Q53.35 13.85 52.3 14.85 L52.85 10.65 53.15 11.05 53.9 11.5 Q54.55 11.5 55.3 11.1 L55.75 10.9 55.85 10.8 57.05 10.0 58.0 9.2 58.6 8.75 58.85 8.5 58.7 8.45 Q56.95 7.7 54.7 5.9 M48.1 36.6 L52.2 32.4 52.35 33.3 52.6 35.1 52.9 36.7 52.55 36.75 51.35 36.95 50.75 36.95 48.1 36.6" fill="#e3e1f5" fill-rule="evenodd" stroke="none"/>
      <path d="M61.4 8.95 L66.4 5.85 62.5 13.2 62.2 13.8 Q58.45 19.15 56.25 24.7 54.3 29.7 53.5 34.85 L54.35 37.3 54.55 37.6 Q51.7 38.9 50.5 39.75 48.3 41.3 47.85 44.9 47.6 47.0 49.1 48.85 L50.5 50.2 50.35 51.6 Q49.8 55.75 47.4 61.0 45.8 64.6 43.7 67.7 43.0 65.85 43.25 60.85 L43.3 60.55 Q42.75 59.8 42.15 57.7 L40.3 50.5 Q42.05 42.6 46.5 15.65 L46.55 15.7 Q49.65 9.9 53.4 4.9 L53.6 4.6 53.55 5.0 53.3 7.05 53.25 7.3 52.85 10.65 52.3 14.85 Q53.35 13.85 57.35 11.35 L59.3 10.15 61.4 8.95 M47.3 25.25 L47.25 25.9 45.65 39.25 45.35 42.55 Q45.45 41.85 46.3 41.0 47.2 40.2 48.8 39.2 51.75 37.35 53.1 37.15 L52.9 36.7 52.6 35.1 52.35 33.3 52.8 31.85 55.55 23.25 55.9 22.3 Q56.7 20.15 58.45 16.7 L63.4 8.95 56.3 13.65 51.95 16.65 51.65 13.45 51.35 10.9 51.3 10.75 48.55 15.45 48.4 16.75 47.3 25.25 M46.6 50.3 L46.1 49.6 Q45.75 49.0 45.75 46.3 L45.8 43.65 45.7 43.85 44.9 45.0 43.65 46.65 43.3 45.35 43.1 45.35 42.15 48.4 42.5 49.85 42.4 52.25 Q42.45 57.65 44.55 59.0 44.9 61.9 44.7 64.65 L46.65 58.65 Q47.9 53.95 48.6 52.0 L46.6 50.3" fill="#99a6b4" fill-rule="evenodd" stroke="none"/>
      <path d="M45.65 39.25 L47.25 25.9 47.3 25.25 47.45 25.85 47.7 29.35 47.4 33.2 Q48.8 29.85 50.25 27.05 L51.3 25.1 Q53.5 21.4 55.55 20.2 L55.9 22.3 55.55 23.25 52.8 31.85 52.35 33.3 52.2 32.4 48.1 36.6 47.7 37.0 46.95 37.8 45.65 39.25 M42.5 49.85 L43.25 52.95 Q44.35 51.25 44.8 51.25 45.4 51.25 45.9 51.9 L47.2 53.8 47.2 53.75 Q46.6 53.05 46.6 51.25 L46.6 50.3 48.6 52.0 Q47.9 53.95 46.65 58.65 L44.7 64.65 Q44.9 61.9 44.55 59.0 42.45 57.65 42.4 52.25 L42.5 49.85" fill="#676577" fill-rule="evenodd" stroke="none"/>
      <path d="M55.9 22.3 L55.55 20.2 Q53.5 21.4 51.3 25.1 L50.25 27.05 Q48.8 29.85 47.4 33.2 L47.7 29.35 47.45 25.85 47.3 25.25 48.4 16.75 48.55 15.45 51.3 10.75 51.35 10.9 51.65 13.45 51.95 16.65 56.3 13.65 63.4 8.95 58.45 16.7 Q56.7 20.15 55.9 22.3 M42.5 49.85 L42.15 48.4 43.1 45.35 43.3 45.35 43.65 46.65 44.9 45.0 45.7 43.85 45.8 43.65 45.75 46.3 Q45.75 49.0 46.1 49.6 L46.6 50.3 46.6 51.25 Q46.6 53.05 47.2 53.75 L47.2 53.8 45.9 51.9 Q45.4 51.25 44.8 51.25 44.35 51.25 43.25 52.95 L42.5 49.85" fill="#424051" fill-rule="evenodd" stroke="none"/>
      <path d="M53.55 5.0 L53.85 5.2 54.7 5.9 Q56.95 7.7 58.7 8.45 L58.85 8.5 58.6 8.75 58.0 9.2 57.05 10.0 55.85 10.8 55.75 10.9 55.3 11.1 Q54.55 11.5 53.9 11.5 L53.15 11.05 52.85 10.65 53.25 7.3 53.3 7.05 53.55 5.0" fill="#b9cbe0" fill-rule="evenodd" stroke="none"/>
      <path d="M66.4 5.85 Q71.8 -3.75 78.8 -13.05 65.9 -5.7 54.0 4.15 L53.6 4.6 53.4 4.9 Q49.65 9.9 46.55 15.7 L46.5 15.65 Q42.05 42.6 40.3 50.5 L42.15 57.7 Q42.75 59.8 43.3 60.55 L43.25 60.85 Q43.0 65.85 43.7 67.7 45.8 64.6 47.4 61.0 49.8 55.75 50.35 51.6 L50.5 50.2 49.1 48.85 Q47.6 47.0 47.85 44.9 48.3 41.3 50.5 39.75 51.7 38.9 54.55 37.6 L54.35 37.3 53.5 34.85 Q54.3 29.7 56.25 24.7 58.45 19.15 62.2 13.8 L62.5 13.2 66.4 5.85 Z" fill="none" stroke="#24303f" stroke-linecap="round" stroke-linejoin="round" stroke-width="1.0"/>
      <path d="M39.5 33.5 L36.7 35.75 35.4 33.45 36.25 23.25 Q37.35 12.3 38.9 5.7 L52.9 -10.1 53.4 -10.7 53.75 -11.05 53.8 -11.1 53.5 -10.15 49.8 3.55 49.75 3.9 49.1 6.45 Q48.3 12.5 47.85 18.3 L47.2 28.2 47.0 28.3 40.9 32.4 39.75 33.25 39.5 33.5 M40.8 44.55 L40.4 45.9 41.25 49.05 Q42.5 53.05 43.55 54.25 L43.55 54.5 44.6 61.05 Q45.0 63.3 45.0 65.05 L45.0 66.1 Q44.6 64.0 43.05 61.55 L41.9 59.9 41.7 59.65 Q40.5 56.45 36.5 48.9 33.95 44.0 33.2 41.7 L37.0 40.85 42.95 39.5 Q42.05 40.8 40.8 44.55" fill="#676577" fill-rule="evenodd" stroke="none"/>
      <path d="M33.8 -1.4 L34.0 -0.9 36.35 5.25 45.05 -3.85 45.75 -4.5 53.45 -11.1 56.1 -13.2 Q52.0 -1.4 50.55 7.75 L48.25 27.5 47.2 28.2 47.85 18.3 Q48.3 12.5 49.1 6.45 L49.75 3.9 49.8 3.55 53.5 -10.15 53.8 -11.1 53.75 -11.05 53.4 -10.7 52.9 -10.1 38.9 5.7 Q37.35 12.3 36.25 23.25 L35.4 33.45 36.7 35.75 39.5 33.5 39.75 38.05 45.9 36.55 51.2 35.0 Q46.4 37.35 44.35 40.4 44.0 42.45 44.0 45.2 45.65 48.55 47.15 49.95 47.3 58.7 46.2 65.35 L44.25 68.85 43.1 64.15 40.1 60.9 30.95 42.85 31.3 2.3 33.8 -1.4 M40.8 44.55 Q42.05 40.8 42.95 39.5 L37.0 40.85 33.2 41.7 Q33.95 44.0 36.5 48.9 40.5 56.45 41.7 59.65 L41.9 59.9 43.05 61.55 Q44.6 64.0 45.0 66.1 L45.0 65.05 Q45.0 63.3 44.6 61.05 L43.55 54.5 43.55 54.25 Q42.5 53.05 41.25 49.05 L40.4 45.9 40.8 44.55" fill="#99a6b4" fill-rule="evenodd" stroke="none"/>
      <path d="M56.1 -13.2 L53.45 -11.1 45.75 -4.5 45.05 -3.85 36.35 5.25 34.0 -0.9 33.8 -1.4 34.7 -2.7 Q36.15 0.65 37.55 1.5 40.9 -0.8 44.05 -3.55 L45.2 -4.5 Q51.05 -9.65 53.4 -13.95 L53.25 -14.5 52.9 -14.65 Q50.8 -14.65 45.25 -10.1 41.95 -7.4 39.95 -5.2 L37.55 -6.2 37.15 -6.35 38.15 -7.85 51.6 -23.05 66.7 -33.75 Q61.15 -25.4 56.15 -13.3 L56.1 -13.2 M51.2 35.0 L45.9 36.55 39.75 38.05 39.5 33.5 39.75 33.25 40.7 34.5 Q42.0 35.95 44.05 35.7 44.85 35.15 46.6 34.3 47.4 33.9 47.4 32.5 L47.15 29.0 47.0 28.3 47.2 28.2 48.25 27.5 48.25 27.55 Q50.25 32.9 52.2 34.55 51.65 34.75 51.2 35.0" fill="#ffffff" fill-rule="evenodd" stroke="none"/>
      <path d="M39.95 -5.2 Q41.95 -7.4 45.25 -10.1 50.8 -14.65 52.9 -14.65 L53.25 -14.5 53.4 -13.95 Q51.05 -9.65 45.2 -4.5 L43.7 -4.5 Q42.15 -4.4 39.95 -5.2" fill="#e3e1f5" fill-rule="evenodd" stroke="none"/>
      <path d="M37.15 -6.35 L37.55 -6.2 39.95 -5.2 Q42.15 -4.4 43.7 -4.5 L45.2 -4.5 44.05 -3.55 Q40.9 -0.8 37.55 1.5 36.15 0.65 34.7 -2.7 L37.15 -6.35 M47.0 28.3 L47.15 29.0 47.4 32.5 Q47.4 33.9 46.6 34.3 44.85 35.15 44.05 35.7 42.0 35.95 40.7 34.5 L39.75 33.25 40.9 32.4 47.0 28.3" fill="#b9cbe0" fill-rule="evenodd" stroke="none"/>
      <path d="M33.8 -1.4 L31.3 2.3 30.95 42.85 40.1 60.9 43.1 64.15 44.25 68.85 46.2 65.35 Q47.3 58.7 47.15 49.95 45.65 48.55 44.0 45.2 44.0 42.45 44.35 40.4 46.4 37.35 51.2 35.0 51.65 34.75 52.2 34.55 50.25 32.9 48.25 27.55 L48.25 27.5 50.55 7.75 Q52.0 -1.4 56.1 -13.2 L56.15 -13.3 Q61.15 -25.4 66.7 -33.75 L51.6 -23.05 38.15 -7.85 37.15 -6.35 34.7 -2.7 33.8 -1.4 Z" fill="none" stroke="#24303f" stroke-linecap="round" stroke-linejoin="round" stroke-width="1.0"/>
      <path d="M38.4 44.05 L38.5 43.25 38.6 41.8 40.05 42.9 39.75 46.05 39.5 48.8 39.25 47.9 38.35 44.5 38.4 44.05 M45.2 57.15 L46.15 62.4 46.0 63.4 44.45 61.4 43.0 59.7 41.75 58.1 39.8 50.1 43.7 55.25 45.2 57.15 M48.8 -1.95 L46.8 1.0 43.25 6.3 40.5 7.75 40.8 5.05 42.0 3.85 45.5 0.6 47.95 -1.5 48.8 -1.95" fill="#b9cbe0" fill-rule="evenodd" stroke="none"/>
      <path d="M64.95 -7.05 Q56.45 -1.65 51.9 1.55 L51.3 2.0 41.9 8.3 43.25 6.3 Q47.75 3.9 50.75 1.55 L50.5 1.55 46.8 1.0 48.8 -1.95 Q57.1 -6.1 65.3 -7.35 L64.95 -7.05 M40.05 42.9 L41.8 43.75 Q43.85 50.75 45.2 57.15 L43.7 55.25 39.8 50.1 39.5 48.8 39.75 46.05 40.05 42.9" fill="#ffffff" fill-rule="evenodd" stroke="none"/>
      <path d="M58.95 -2.55 L57.8 -1.7 53.15 1.55 50.3 3.55 40.9 9.85 40.8 9.95 40.95 9.15 40.05 10.3 Q37.8 13.45 36.35 16.5 35.1 19.25 33.6 23.25 L33.7 23.55 34.2 29.4 Q35.35 27.55 36.1 26.9 37.25 25.85 41.35 24.7 L43.25 24.7 46.7 12.8 Q48.8 9.6 50.95 6.95 L56.8 -0.4 58.95 -2.55 M64.95 -7.05 L63.55 -5.7 Q55.25 2.0 48.6 11.5 45.55 19.5 45.35 26.15 L43.25 26.0 Q38.7 26.05 37.25 30.8 35.45 36.25 38.3 41.55 L38.6 41.8 38.5 43.25 38.4 44.05 38.1 43.6 37.0 42.3 Q34.5 39.4 35.2 35.95 L32.6 23.05 30.6 26.65 30.25 27.35 29.95 25.9 38.75 7.15 39.55 6.35 39.85 9.65 41.9 8.3 51.3 2.0 51.9 1.55 Q56.45 -1.65 64.95 -7.05 M46.0 63.4 L45.75 66.35 43.3 63.35 43.0 63.2 43.05 61.45 43.0 59.7 44.45 61.4 46.0 63.4" fill="#99a6b4" fill-rule="evenodd" stroke="none"/>
      <path d="M58.95 -2.55 L56.8 -0.4 50.95 6.95 Q48.8 9.6 46.7 12.8 L43.25 24.7 41.35 24.7 Q37.25 25.85 36.1 26.9 35.35 27.55 34.2 29.4 L33.7 23.55 33.6 23.25 Q35.1 19.25 36.35 16.5 37.8 13.45 40.05 10.3 L40.95 9.15 40.8 9.95 40.9 9.85 50.3 3.55 53.15 1.55 57.8 -1.7 58.95 -2.55 M30.25 27.35 L30.6 26.65 32.6 23.05 35.2 35.95 Q34.5 39.4 37.0 42.3 L38.1 43.6 38.4 44.05 38.35 44.5 39.25 47.9 39.5 48.8 39.8 50.1 41.75 58.1 43.0 59.7 43.05 61.45 43.0 63.2 39.9 61.4 33.55 42.1 30.25 27.35" fill="#676577" fill-rule="evenodd" stroke="none"/>
      <path d="M41.9 8.3 L39.85 9.65 39.55 6.35 40.8 5.05 40.5 7.75 43.25 6.3 46.8 1.0 50.5 1.55 50.75 1.55 Q47.75 3.9 43.25 6.3 L41.9 8.3" fill="#e3e1f5" fill-rule="evenodd" stroke="none"/>
      <path d="M38.6 41.8 L38.3 41.55 Q35.45 36.25 37.25 30.8 38.7 26.05 43.25 26.0 L45.35 26.15 Q45.55 19.5 48.6 11.5 55.25 2.0 63.55 -5.7 L64.95 -7.05 65.3 -7.35 Q57.1 -6.1 48.8 -1.95 L47.95 -1.5 45.5 0.6 42.0 3.85 40.8 5.05 39.55 6.35 38.75 7.15 29.95 25.9 30.25 27.35 33.55 42.1 39.9 61.4 43.0 63.2 43.3 63.35 45.75 66.35 46.0 63.4 46.15 62.4 45.2 57.15 Q43.85 50.75 41.8 43.75 L40.05 42.9 38.6 41.8 Z" fill="none" stroke="#24303f" stroke-linecap="round" stroke-linejoin="round" stroke-width="1.0"/>
      <path d="M38.65 55.5 L28.4 51.4 27.45 51.25 20.35 50.55 18.45 50.75 17.1 50.9 17.15 51.45 17.25 52.05 17.55 52.95 10.0 47.7 9.55 39.8 13.3 35.95 26.8 41.25 28.45 42.65 31.6 44.7 32.55 48.65 38.65 55.5" fill="#171616" fill-rule="evenodd" stroke="none"/>
      <path d="M17.15 51.45 L17.1 50.9 18.45 50.75 20.35 50.55 27.45 51.25 28.4 51.4 38.65 55.5 40.3 57.4 40.15 57.6 38.35 60.05 38.25 60.0 38.15 60.0 Q36.3 58.4 34.75 56.4 L35.2 57.25 33.5 55.3 28.5 53.95 22.1 52.25 Q22.15 53.0 23.05 54.9 L23.45 55.6 23.35 55.6 Q19.0 53.2 17.15 51.45 M32.5 60.35 L33.9 60.85 36.15 61.6 37.3 61.85 37.35 62.85 37.4 63.65 38.05 72.25 36.2 69.95 26.6 58.55 32.5 60.35 M38.55 61.45 L38.55 61.3 38.6 61.25 39.0 60.85 41.5 58.8 40.95 65.1 39.45 74.15 38.65 73.05 38.65 71.3 38.8 68.4 38.6 61.7 38.55 61.45" fill="#232323" fill-rule="evenodd" stroke="none"/>
      <path d="M38.15 60.0 L38.25 60.0 38.35 60.05 38.6 60.55 38.65 60.7 38.6 61.25 38.55 61.3 38.55 61.45 38.4 61.65 38.25 61.95 38.05 62.25 37.95 62.25 37.85 62.25 37.75 62.2 37.7 62.15 37.65 62.0 37.65 61.9 37.3 61.85 36.15 61.6 33.9 60.85 32.5 60.35 31.45 59.95 27.25 58.6 Q32.35 59.85 33.4 60.25 L35.45 60.75 Q36.6 61.0 37.65 61.4 L37.65 61.25 37.6 61.2 37.45 61.15 37.4 61.05 37.35 60.95 37.35 60.8 37.35 60.7 37.35 60.65 37.55 60.55 37.7 60.45 37.75 60.35 38.0 60.1 38.1 60.0 38.15 60.0" fill="#cdc6c6" fill-rule="evenodd" stroke="none"/>
      <path d="M17.25 52.05 L17.15 51.45 Q19.0 53.2 23.35 55.6 L23.45 55.6 23.05 54.9 Q22.15 53.0 22.1 52.25 L28.5 53.95 33.5 55.3 35.2 57.25 34.75 56.4 Q36.3 58.4 38.15 60.0 L38.1 60.0 38.0 60.1 37.75 60.35 37.7 60.45 36.45 60.05 Q33.15 59.1 27.1 57.7 L26.45 57.35 Q19.9 53.8 17.25 52.05 M38.35 60.05 L40.15 57.6 40.3 57.4 41.5 58.65 41.5 58.8 39.0 60.85 38.65 60.7 38.6 60.55 38.35 60.05 M37.3 61.85 L37.65 61.9 37.65 62.0 37.7 62.15 37.75 62.2 37.85 62.25 37.95 62.25 38.05 62.25 38.25 61.95 38.4 61.65 38.6 61.7 38.8 68.4 38.65 71.3 38.65 73.05 38.05 72.25 37.4 63.65 37.35 62.85 37.3 61.85" fill="#3f3f3f" fill-rule="evenodd" stroke="none"/>
      <path d="M17.55 52.95 L17.25 52.05 Q19.9 53.8 26.45 57.35 L27.1 57.7 Q33.15 59.1 36.45 60.05 L37.7 60.45 37.55 60.55 37.35 60.65 37.35 60.7 37.35 60.8 37.35 60.95 37.4 61.05 37.45 61.15 37.6 61.2 37.65 61.25 37.65 61.4 Q36.6 61.0 35.45 60.75 L33.4 60.25 Q32.35 59.85 27.25 58.6 L31.45 59.95 32.5 60.35 26.6 58.55 24.75 57.45 24.4 57.2 17.55 52.95 M38.4 61.65 L38.55 61.45 38.6 61.7 38.4 61.65 M38.6 61.25 L38.65 60.7 39.0 60.85 38.6 61.25" fill="#5b5454" fill-rule="evenodd" stroke="none"/>
      <path d="M10.0 47.7 L17.55 52.95 24.4 57.2 24.75 57.45 26.6 58.55 36.2 69.95 38.05 72.25 38.65 73.05 39.45 74.15 38.95 76.95 25.9 61.85 4.65 49.1 10.0 47.7" fill="#482323" fill-rule="evenodd" stroke="none"/>
      <path d="M38.65 55.5 L32.55 48.65 31.6 44.7 28.45 42.65 26.8 41.25 13.3 35.95 9.55 39.8 10.0 47.7 4.65 49.1 25.9 61.85 38.95 76.95 39.45 74.15 40.95 65.1 41.5 58.8 41.5 58.65 40.3 57.4 38.65 55.5 Z" fill="none" stroke="#090909" stroke-linecap="round" stroke-linejoin="round" stroke-width="1.0"/>
      <path d="M30.25 37.15 L32.6 36.0 34.55 42.15 33.55 47.15 32.55 43.4 Q31.55 39.6 30.25 37.15" fill="#482323" fill-rule="evenodd" stroke="none"/>
      <path d="M30.25 37.15 Q31.55 39.6 32.55 43.4 L33.55 47.15 33.15 49.45 28.95 41.9 29.65 37.45 30.25 37.15" fill="#232323" fill-rule="evenodd" stroke="none"/>
      <path d="M33.55 47.15 L34.55 42.15 32.6 36.0 30.25 37.15 29.65 37.45 28.95 41.9 33.15 49.45 33.55 47.15 Z" fill="none" stroke="#090909" stroke-linecap="round" stroke-linejoin="round" stroke-width="1.0"/>
      <path d="M19.0 43.5 L13.0 41.1 4.75 22.85 6.6 20.35 7.75 23.7 8.7 26.5 10.25 30.9 10.65 31.25 11.95 32.4 14.5 35.05 14.5 34.9 14.2 33.7 Q13.9 32.6 13.9 30.75 L13.95 29.25 16.4 30.4 Q20.55 32.2 24.6 33.45 L33.4 35.7 33.0 37.1 32.4 38.75 32.55 38.75 Q32.65 38.45 33.3 38.0 L34.0 37.6 34.2 37.0 34.45 36.15 Q34.95 34.85 34.95 33.65 L34.9 30.85 36.0 32.65 35.35 35.05 35.05 37.7 33.5 39.1 33.15 39.3 Q30.9 40.25 29.15 42.15 L29.15 42.05 Q29.8 40.95 31.45 39.6 32.25 38.6 32.65 37.15 L32.8 36.45 26.85 35.15 Q20.9 33.45 16.4 31.05 L16.05 30.85 16.05 30.95 Q16.4 34.7 16.9 36.35 L17.1 36.9 17.5 37.9 17.65 38.05 23.3 42.8 24.6 43.95 24.5 43.95 23.0 43.45 20.8 42.65 16.8 40.9 19.0 43.5" fill="#a8a8a8" fill-rule="evenodd" stroke="none"/>
      <path d="M6.6 20.35 L11.15 14.0 27.55 18.3 34.9 30.85 34.95 33.65 Q34.95 34.85 34.45 36.15 L34.2 37.0 34.0 37.6 33.3 38.0 Q32.65 38.45 32.55 38.75 L32.4 38.75 33.0 37.1 33.4 35.7 24.6 33.45 Q20.55 32.2 16.4 30.4 L13.95 29.25 13.9 30.75 Q13.9 32.6 14.2 33.7 L14.5 34.9 14.5 35.05 11.95 32.4 10.65 31.25 10.25 30.9 8.7 26.5 7.75 23.7 6.6 20.35" fill="#836a6a" fill-rule="evenodd" stroke="none"/>
      <path d="M16.4 31.05 Q20.9 33.45 26.85 35.15 L32.8 36.45 32.65 37.15 Q30.25 37.5 27.7 38.75 24.9 40.15 23.7 42.05 L17.25 37.05 Q16.7 35.15 16.55 32.95 L16.45 32.15 16.4 31.05" fill="#ffffff" fill-rule="evenodd" stroke="none"/>
      <path d="M33.5 39.1 L28.55 43.6 26.9 46.05 22.1 44.75 19.0 43.5 16.8 40.9 20.8 42.65 23.0 43.45 24.5 43.95 24.6 43.95 23.3 42.8 17.65 38.05 17.5 37.9 17.1 36.9 16.9 36.35 Q16.4 34.7 16.05 30.95 L16.05 30.85 16.4 31.05 16.45 32.15 16.55 32.95 Q16.7 35.15 17.25 37.05 L23.7 42.05 Q24.9 40.15 27.7 38.75 30.25 37.5 32.65 37.15 32.25 38.6 31.45 39.6 29.8 40.95 29.15 42.05 L29.15 42.15 Q30.9 40.25 33.15 39.3 L33.5 39.1" fill="#f0f0f0" fill-rule="evenodd" stroke="none"/>
      <path d="M19.0 43.5 L13.0 41.1 4.75 22.85 6.6 20.35 11.15 14.0 27.55 18.3 34.9 30.85 36.0 32.65 35.35 35.05 35.05 37.7 33.5 39.1 28.55 43.6 26.9 46.05 22.1 44.75 19.0 43.5 Z" fill="none" stroke="#3f3535" stroke-linecap="round" stroke-linejoin="round" stroke-width="1.0"/>
      <path d="M35.9 11.9 Q30.55 7.1 27.75 5.3 L25.75 4.0 Q22.75 1.85 19.9 -0.65 L17.8 -2.7 Q15.05 -3.4 12.85 -4.35 12.25 -1.1 20.9 5.7 L23.9 8.15 Q30.35 13.45 33.9 17.55 L33.7 17.95 33.8 18.7 34.0 20.7 Q33.05 19.0 31.15 16.85 L24.3 9.65 23.6 9.1 14.4 1.2 Q9.65 -3.25 8.75 -6.65 L7.55 -7.6 Q4.65 -10.15 4.15 -13.05 3.3 -11.8 2.05 -8.2 L1.15 -5.15 -0.25 -6.95 Q1.05 -14.7 4.8 -20.95 5.5 -17.45 8.7 -14.7 12.1 -11.8 21.85 -7.15 27.25 -4.65 32.2 -1.8 L36.15 0.55 36.3 1.3 Q36.7 2.9 36.75 4.65 L33.4 2.55 28.85 0.25 Q25.45 -1.25 22.45 -1.75 23.1 -0.55 24.55 0.7 L26.8 2.5 31.6 6.05 36.4 9.5 35.9 11.9" fill="#232323" fill-rule="evenodd" stroke="none"/>
      <path d="M33.9 17.55 Q30.35 13.45 23.9 8.15 L20.9 5.7 Q12.25 -1.1 12.85 -4.35 15.05 -3.4 17.8 -2.7 L19.9 -0.65 Q22.75 1.85 25.75 4.0 L27.75 5.3 Q30.55 7.1 35.9 11.9 L34.8 15.4 33.9 17.55 M36.4 9.5 L31.6 6.05 26.8 2.5 24.55 0.7 Q23.1 -0.55 22.45 -1.75 25.45 -1.25 28.85 0.25 L33.4 2.55 36.75 4.65 36.75 5.45 36.4 9.5 M1.15 -5.15 L2.05 -8.2 Q3.3 -11.8 4.15 -13.05 4.65 -10.15 7.55 -7.6 L8.75 -6.65 Q9.65 -3.25 14.4 1.2 L23.6 9.1 24.3 9.65 31.15 16.85 Q33.05 19.0 34.0 20.7 L34.0 21.3 Q34.0 25.05 33.7 26.1 L29.6 24.5 Q25.4 22.75 21.85 20.7 L12.7 14.6 Q11.2 13.5 10.55 10.7 L9.6 5.6 1.15 -5.15" fill="#1c1b1b" fill-rule="evenodd" stroke="none"/>
      <path d="M35.9 11.9 L36.4 9.5 36.75 5.45 36.75 4.65 Q36.7 2.9 36.3 1.3 L36.15 0.55 32.2 -1.8 Q27.25 -4.65 21.85 -7.15 12.1 -11.8 8.7 -14.7 5.5 -17.45 4.8 -20.95 1.05 -14.7 -0.25 -6.95 L1.15 -5.15 9.6 5.6 10.55 10.7 Q11.2 13.5 12.7 14.6 L21.85 20.7 Q25.4 22.75 29.6 24.5 L33.7 26.1 Q34.0 25.05 34.0 21.3 L34.0 20.7 33.8 18.7 33.7 17.95 33.9 17.55 34.8 15.4 35.9 11.9 Z" fill="none" stroke="#090909" stroke-linecap="round" stroke-linejoin="round" stroke-width="1.0"/>
      <path d="M8.05 24.25 Q8.2 23.4 8.5 22.85 9.0 25.25 14.05 32.15 L14.25 30.65 16.45 32.15 20.7 35.6 20.9 35.9 Q18.15 33.95 16.55 32.95 L14.7 31.95 14.4 33.35 14.2 33.35 7.8 27.5 Q7.8 25.3 8.05 24.25 M23.35 29.65 L23.3 29.55 23.25 29.5 23.1 29.0 23.2 28.15 23.4 27.35 23.7 27.1 23.95 27.1 24.05 27.1 24.35 27.75 24.35 27.8 24.4 28.15 24.35 28.6 24.15 29.45 23.75 29.8 23.7 29.8 23.6 29.75 23.5 29.7 23.35 29.65 M27.05 31.75 L26.95 31.55 26.7 30.3 26.1 28.7 25.6 28.15 25.0 27.6 24.7 27.35 24.65 27.3 24.45 27.15 24.15 26.9 Q23.4 26.2 22.25 25.25 L21.65 24.7 18.15 21.45 18.15 21.7 18.05 21.2 18.15 18.3 Q19.8 21.7 24.25 26.5 L26.85 29.45 26.9 29.5 28.25 31.35 29.05 32.6 28.55 31.7 30.7 33.75 30.65 33.75 29.3 33.05 27.75 32.3 27.05 31.75 M19.05 37.4 L18.95 37.45 18.75 37.45 18.5 37.0 18.2 36.6 18.05 36.2 18.0 35.9 Q18.0 35.65 18.25 35.65 L18.95 36.25 19.7 36.75 20.55 37.1 20.75 37.3 21.65 37.55 23.85 38.35 26.15 38.75 Q26.55 38.75 26.6 39.05 L23.85 38.9 21.65 38.05 19.15 37.35 19.1 37.35 19.05 37.4 M19.1 37.3 L19.2 37.15 Q19.15 37.1 19.1 37.2 L19.1 37.3" fill="#3f0000" fill-rule="evenodd" stroke="none"/>
      <path d="M23.4 31.15 L23.2 31.3 22.0 31.1 21.9 31.1 Q21.0 30.85 20.4 30.4 19.3 29.7 19.55 29.45 19.75 29.25 19.55 29.05 L19.2 28.55 19.0 28.15 Q18.5 26.95 18.35 25.4 L18.7 25.55 18.75 25.6 18.75 25.35 18.75 22.85 19.9 23.9 21.15 25.15 21.95 25.75 21.8 26.35 19.6 25.0 20.9 27.95 20.1 27.8 19.25 27.45 19.2 27.45 Q19.75 30.25 21.85 30.9 L22.05 30.95 23.4 31.15 M22.25 26.6 L22.4 26.1 22.65 26.3 22.65 26.9 22.25 26.6 M24.35 27.8 L24.7 28.1 24.7 28.5 24.4 28.15 24.35 27.8 M24.95 28.85 L25.0 28.35 25.2 28.5 25.75 29.8 26.35 31.2 26.35 31.3 26.45 31.7 26.15 31.65 25.8 31.6 23.55 31.35 23.7 31.2 26.1 31.25 26.05 31.0 Q25.6 29.7 24.95 28.85" fill="#ff3131" fill-rule="evenodd" stroke="none"/>
      <path d="M21.8 26.35 L21.95 25.75 21.15 25.15 19.9 23.9 18.75 22.85 18.75 25.35 18.75 25.6 18.7 25.55 18.35 25.4 Q18.5 26.95 19.0 28.15 L19.2 28.55 19.55 29.05 Q19.75 29.25 19.55 29.45 19.3 29.7 20.4 30.4 21.0 30.85 21.9 31.1 L22.0 31.1 23.2 31.3 23.4 31.15 23.95 30.6 24.15 30.35 24.15 30.6 24.15 30.75 24.15 30.85 24.0 30.95 23.7 31.2 23.55 31.35 25.8 31.6 26.15 31.65 26.45 31.7 26.35 31.3 26.35 31.2 25.75 29.8 25.2 28.5 25.0 28.35 24.95 28.85 24.65 30.05 Q24.6 29.8 24.4 29.85 L24.7 28.7 24.7 28.5 24.7 28.1 24.35 27.8 24.35 27.75 24.05 27.1 23.95 27.1 23.7 27.1 23.4 27.35 23.2 28.15 23.1 29.0 23.25 29.5 23.3 29.55 23.35 29.65 23.2 29.85 Q22.65 29.3 22.65 26.9 L22.65 26.3 22.4 26.1 22.25 26.6 22.25 26.65 22.05 26.45 21.95 26.45 21.8 26.45 21.8 26.35 M18.15 21.7 L18.15 21.45 21.65 24.7 22.25 25.25 Q23.4 26.2 24.15 26.9 L24.45 27.15 24.65 27.3 24.7 27.35 25.0 27.6 25.6 28.15 26.1 28.7 26.7 30.3 26.95 31.55 27.05 31.75 27.1 32.05 27.1 32.15 26.8 32.15 26.45 32.15 22.75 31.7 22.25 31.6 22.05 31.55 19.7 30.45 19.45 30.05 Q18.05 28.0 17.85 26.9 L17.65 24.5 18.05 24.65 18.15 21.7 M21.6 29.4 L21.75 29.4 21.8 30.75 21.6 29.4" fill="#870000" fill-rule="evenodd" stroke="none"/>
      <path d="M23.4 31.15 L22.05 30.95 21.85 30.9 Q19.75 30.25 19.2 27.45 L19.25 27.45 20.1 27.8 20.9 27.95 19.6 25.0 21.8 26.35 21.8 26.45 21.7 26.45 Q21.35 26.5 21.1 26.8 20.85 27.15 20.9 27.65 L21.05 28.6 21.3 29.25 21.6 29.4 21.8 30.75 21.75 29.4 Q22.45 29.35 22.55 28.55 L22.5 27.35 22.25 26.65 22.25 26.6 22.65 26.9 Q22.65 29.3 23.2 29.85 L23.35 29.65 23.5 29.7 23.6 29.75 23.7 29.8 23.75 29.8 24.15 29.45 24.35 28.6 24.4 28.15 24.7 28.5 24.7 28.7 24.4 29.85 24.3 29.9 24.25 29.9 24.2 30.0 24.15 30.05 24.15 30.15 24.15 30.35 23.95 30.6 23.4 31.15 M24.65 30.05 L24.95 28.85 Q25.6 29.7 26.05 31.0 L26.1 31.25 23.7 31.2 24.0 30.95 24.15 30.85 24.25 30.9 24.35 30.95 24.4 30.95 24.5 30.95 24.65 30.8 24.75 30.4 24.65 30.05" fill="#ff51ba" fill-rule="evenodd" stroke="none"/>
      <path d="M21.8 26.45 L21.95 26.45 22.05 26.45 22.25 26.65 22.5 27.35 22.55 28.55 Q22.45 29.35 21.75 29.4 L21.6 29.4 21.3 29.25 21.05 28.6 20.9 27.65 Q20.85 27.15 21.1 26.8 21.35 26.5 21.7 26.45 L21.8 26.45 M24.4 29.85 Q24.6 29.8 24.65 30.05 L24.75 30.4 24.65 30.8 24.5 30.95 24.4 30.95 24.35 30.95 24.25 30.9 24.15 30.85 24.15 30.75 24.15 30.6 24.15 30.35 24.15 30.15 24.15 30.05 24.2 30.0 24.25 29.9 24.3 29.9 24.4 29.85" fill="#ffffff" fill-rule="evenodd" stroke="none"/>
      <path d="M23.8 43.25 L23.85 43.3 24.4 48.2 8.05 41.2 -0.3 31.05 1.85 23.8 0.35 22.7 8.35 -2.25 11.5 3.35 Q14.0 8.5 16.0 14.85 L16.1 15.2 16.2 15.65 16.25 16.1 15.75 20.35 15.2 23.7 14.9 23.5 14.6 23.3 13.95 22.85 7.1 18.35 7.45 20.15 7.5 20.35 7.15 19.75 7.1 23.3 7.1 25.25 7.15 27.65 7.2 30.25 7.2 30.3 Q7.85 32.55 9.9 35.85 L10.45 36.8 10.6 37.0 10.6 37.05 10.8 37.15 16.45 41.2 16.4 39.6 18.6 41.1 18.6 39.35 18.8 40.9 19.1 42.75 19.15 42.85 19.15 43.0 21.05 44.05 22.8 45.3 23.65 43.45 23.8 43.25" fill="#232323" fill-rule="evenodd" stroke="none"/>
      <path d="M23.8 43.25 L23.65 43.45 22.8 45.3 21.05 44.05 19.15 43.0 19.15 42.85 19.1 42.75 20.85 43.15 23.4 42.85 23.8 43.25 M16.4 39.6 L16.45 41.2 10.8 37.15 10.6 37.05 10.6 37.0 10.7 36.95 12.75 36.75 12.95 37.1 16.4 39.6 M7.1 25.25 L7.1 23.3 7.15 19.75 7.5 20.35 7.45 20.15 7.1 18.35 13.95 22.85 14.6 23.3 14.9 23.5 15.85 27.05 15.85 27.15 8.75 22.2 8.75 22.25 Q8.8 24.7 9.35 27.2 L7.1 25.25" fill="#482323" fill-rule="evenodd" stroke="none"/>
      <path d="M19.1 42.75 L18.8 40.9 18.6 39.35 18.6 38.75 23.4 42.85 20.85 43.15 19.1 42.75 M10.6 37.0 L10.45 36.8 9.9 35.85 Q7.85 32.55 7.2 30.3 L7.2 30.25 7.15 27.65 7.1 25.25 9.35 27.2 Q10.25 31.95 12.75 36.75 L10.7 36.95 10.6 37.0" fill="#692647" fill-rule="evenodd" stroke="none"/>
      <path d="M14.9 23.5 L15.2 23.7 15.75 20.35 16.25 16.1 16.2 15.65 17.2 19.25 Q17.4 23.3 16.4 27.5 L15.85 27.15 15.85 27.05 14.9 23.5" fill="#831e4f" fill-rule="evenodd" stroke="none"/>
      <path d="M16.2 15.65 L16.1 15.2 16.0 14.85 Q14.0 8.5 11.5 3.35 L8.35 -2.25 0.35 22.7 1.85 23.8 -0.3 31.05 8.05 41.2 24.4 48.2 23.85 43.3 23.8 43.25 23.4 42.85 18.6 38.75 18.6 39.35 18.6 41.1 16.4 39.6 12.95 37.1 12.75 36.75 Q10.25 31.95 9.35 27.2 8.8 24.7 8.75 22.25 L8.75 22.2 15.85 27.15 16.4 27.5 Q17.4 23.3 17.2 19.25 L16.2 15.65 Z" fill="none" stroke="#090909" stroke-linecap="round" stroke-linejoin="round" stroke-width="1.0"/>
      <path d="M36.25 33.95 L35.8 34.3 23.65 27.05 Q18.0 19.45 15.75 10.35 L16.3 9.3 Q17.05 13.3 18.7 16.9 L21.1 21.45 21.1 21.55 21.2 21.6 21.45 22.0 21.6 21.65 Q21.9 22.8 22.45 23.8 L23.8 26.35 Q24.15 27.0 26.85 27.85 L30.2 28.95 30.3 28.95 30.3 25.25 Q30.7 27.05 31.65 28.45 33.1 30.6 36.25 33.95 M25.7 15.55 L24.75 14.0 Q23.3 12.65 22.15 10.55 22.55 9.5 23.4 8.55 L23.3 9.85 Q27.05 11.05 29.9 15.9 L30.3 16.65 30.1 17.45 29.7 17.9 29.6 18.0 29.7 17.95 29.8 18.05 29.8 18.45 29.8 18.7 30.05 23.5 30.1 24.0 29.15 20.7 29.15 19.9 Q28.75 19.0 27.15 17.1 L25.7 15.55 M32.5 -9.85 L32.5 -10.1 Q45.05 1.5 45.4 14.7 L45.35 15.15 44.95 13.15 Q44.1 10.0 42.15 8.15 L41.9 7.55 41.7 7.7 41.6 7.25 41.55 7.1 39.9 2.0 38.65 -1.05 36.65 -4.15 Q34.2 -7.35 32.5 -9.85" fill="#232323" fill-rule="evenodd" stroke="none"/>
      <path d="M16.3 9.3 L17.0 7.95 18.05 10.45 18.1 10.7 Q20.4 15.8 23.85 19.35 L25.95 19.35 Q26.15 16.95 25.7 15.55 L27.15 17.1 Q28.75 19.0 29.15 19.9 L29.15 20.7 29.15 20.8 29.05 20.8 Q28.65 19.7 26.55 19.7 23.85 19.7 22.55 20.65 L22.55 20.5 22.35 19.9 21.75 19.6 21.65 19.6 21.5 19.75 21.35 19.9 21.3 20.15 21.15 20.5 21.1 21.1 21.1 21.45 18.7 16.9 Q17.05 13.3 16.3 9.3 M23.4 8.55 L23.95 7.9 Q25.25 6.55 27.3 5.1 31.8 0.65 32.45 -4.3 L32.5 -9.85 Q34.2 -7.35 36.65 -4.15 L38.65 -1.05 39.9 2.0 41.55 7.1 41.6 7.25 41.7 7.7 41.45 7.8 41.35 7.5 40.1 3.65 38.65 -0.5 Q37.85 -2.55 37.15 -2.55 L37.0 -2.55 Q38.1 -0.45 38.2 3.4 L37.55 6.9 36.95 7.25 33.85 9.7 33.1 10.4 32.1 10.7 24.2 9.4 24.4 9.75 24.6 9.95 25.1 10.1 Q27.15 10.95 28.6 12.85 L30.1 15.2 30.45 15.95 30.3 16.65 29.9 15.9 Q27.05 11.05 23.3 9.85 L23.4 8.55 M21.6 21.65 L21.45 22.0 21.2 21.6 21.6 21.65" fill="#3f3f3f" fill-rule="evenodd" stroke="none"/>
      <path d="M30.45 15.95 L30.1 15.2 28.6 12.85 Q27.15 10.95 25.1 10.1 L24.6 9.95 24.4 9.75 24.2 9.4 32.1 10.7 33.1 10.4 33.85 9.7 36.95 7.25 37.55 6.9 38.2 3.4 Q38.1 -0.45 37.0 -2.55 L37.15 -2.55 Q37.85 -2.55 38.65 -0.5 L40.1 3.65 41.35 7.5 41.15 7.3 41.1 7.25 40.95 7.25 40.85 7.3 40.75 7.4 40.65 7.45 40.6 7.55 40.45 8.2 37.35 9.7 Q36.1 10.3 33.2 12.95 L31.05 15.05 30.85 14.7 30.4 14.35 30.3 14.35 30.25 14.4 30.2 14.45 30.2 14.5 30.2 14.85 30.25 15.35 30.4 15.75 30.45 15.85 30.45 15.95" fill="#5b5454" fill-rule="evenodd" stroke="none"/>
      <path d="M21.2 21.6 L21.1 21.55 21.1 21.45 21.1 21.1 21.15 20.5 21.3 20.15 21.35 19.9 21.5 19.75 21.65 19.6 21.75 19.6 22.35 19.9 22.55 20.5 22.55 20.65 22.35 21.2 22.25 21.4 22.15 21.45 21.95 21.45 21.85 21.6 21.7 21.65 21.6 21.65 21.2 21.6 M41.45 7.8 L41.7 7.7 41.9 7.55 42.15 8.15 43.7 11.5 Q42.55 9.8 41.85 9.3 L41.65 9.35 Q39.3 10.05 36.05 12.45 31.65 15.55 30.0 18.9 L30.0 17.85 30.1 17.45 30.3 16.65 30.45 15.95 30.45 15.85 30.5 16.1 30.5 16.15 30.55 16.2 30.6 16.2 30.65 16.3 30.7 16.3 30.95 16.3 31.0 16.3 31.1 16.2 31.15 16.1 31.2 16.1 31.2 16.05 31.25 16.0 31.25 15.85 31.15 15.2 31.05 15.05 33.2 12.95 Q36.1 10.3 37.35 9.7 L40.45 8.2 40.55 8.8 40.95 9.3 41.1 9.35 41.55 9.25 41.6 9.05 41.55 8.4 41.45 7.85 41.45 7.8" fill="#746b6b" fill-rule="evenodd" stroke="none"/>
      <path d="M45.35 15.15 Q45.0 18.5 44.25 21.6 L45.15 23.95 44.0 27.15 36.25 33.95 Q33.1 30.6 31.65 28.45 30.7 27.05 30.3 25.25 L30.3 28.95 30.2 28.95 26.85 27.85 Q24.15 27.0 23.8 26.35 L22.45 23.8 Q21.9 22.8 21.6 21.65 L21.7 21.65 21.85 21.6 21.95 21.45 22.15 21.45 22.25 21.4 22.35 21.2 22.55 20.65 Q23.85 19.7 26.55 19.7 28.65 19.7 29.05 20.8 L29.15 20.8 29.15 20.7 30.1 24.0 30.05 23.5 29.8 18.7 29.8 18.45 29.8 18.05 29.7 17.95 29.6 18.0 29.7 17.9 30.1 17.45 30.0 17.85 30.0 18.9 Q31.65 15.55 36.05 12.45 39.3 10.05 41.65 9.35 L41.85 9.3 Q42.55 9.8 43.7 11.5 L42.15 8.15 Q44.1 10.0 44.95 13.15 L45.35 15.15 M44.25 21.6 L43.05 25.45 44.25 21.6" fill="#482323" fill-rule="evenodd" stroke="none"/>
      <path d="M41.35 7.5 L41.45 7.8 41.45 7.85 41.55 8.4 41.6 9.05 41.55 9.25 41.1 9.35 40.95 9.3 40.55 8.8 40.45 8.2 40.6 7.55 40.65 7.45 40.75 7.4 40.85 7.3 40.95 7.25 41.1 7.25 41.15 7.3 41.35 7.5 M30.45 15.85 L30.4 15.75 30.25 15.35 30.2 14.85 30.2 14.5 30.2 14.45 30.25 14.4 30.3 14.35 30.4 14.35 30.85 14.7 31.05 15.05 31.15 15.2 31.25 15.85 31.25 16.0 31.2 16.05 31.2 16.1 31.15 16.1 31.1 16.2 31.0 16.3 30.95 16.3 30.7 16.3 30.65 16.3 30.6 16.2 30.55 16.2 30.5 16.15 30.5 16.1 30.45 15.85" fill="#cdc6c6" fill-rule="evenodd" stroke="none"/>
      <path d="M36.25 33.95 L35.8 34.3 23.65 27.05 Q18.0 19.45 15.75 10.35 L16.3 9.3 17.0 7.95 18.05 10.45 18.1 10.7 Q20.4 15.8 23.85 19.35 L25.95 19.35 Q26.15 16.95 25.7 15.55 L24.75 14.0 Q23.3 12.65 22.15 10.55 22.55 9.5 23.4 8.55 L23.95 7.9 Q25.25 6.55 27.3 5.1 31.8 0.65 32.45 -4.3 L32.5 -9.85 32.5 -10.1 Q45.05 1.5 45.4 14.7 L45.35 15.15 Q45.0 18.5 44.25 21.6 L45.15 23.95 44.0 27.15 36.25 33.95 M43.05 25.45 L44.25 21.6" fill="none" stroke="#090909" stroke-linecap="round" stroke-linejoin="round" stroke-width="1.0"/>
      <path d="M28.35 23.05 L28.25 22.7 Q28.1 21.9 27.65 21.5 27.3 21.15 26.75 20.95 L26.75 21.1 27.3 22.1 27.5 23.1 Q27.5 23.9 26.2 23.9 24.5 23.9 23.75 22.3 23.8 23.45 24.15 24.2 L24.65 25.3 24.75 25.5 24.95 25.9 25.2 26.0 Q25.25 25.55 25.8 25.3 L26.7 25.05 27.7 25.45 28.35 26.05 28.4 26.05 28.45 25.45 28.4 24.3 28.35 23.05 M25.7 21.45 L25.65 21.55 25.65 22.0 Q25.7 22.35 26.05 22.55 26.55 22.95 26.9 22.4 L26.9 22.35 26.9 22.05 26.85 21.7 26.8 21.45 26.75 21.35 26.7 21.3 26.6 21.25 26.45 21.25 26.3 21.25 25.85 21.4 25.75 21.45 25.7 21.45 M24.6 26.2 Q22.75 23.5 23.2 21.25 25.2 20.0 27.8 20.8 29.4 22.55 29.15 26.35 L24.6 26.2 M36.4 16.65 Q36.0 17.25 35.9 17.9 35.85 18.55 36.15 19.0 L36.65 18.95 37.9 18.1 38.55 16.8 Q38.75 16.15 38.5 15.65 L38.3 15.55 38.2 15.5 38.0 15.5 37.45 15.75 Q36.85 16.0 36.4 16.65 M31.8 19.85 L31.95 19.6 Q34.9 13.65 40.75 12.7 44.2 16.9 44.75 22.45 43.15 28.7 36.9 31.95 30.65 26.9 31.8 19.85 M33.05 23.1 L32.95 22.8 32.95 23.55 32.95 23.95 32.95 24.25 Q33.35 26.2 33.85 27.4 L34.75 28.9 37.2 31.05 Q36.65 28.75 38.0 27.05 39.45 25.4 41.0 25.4 L41.55 25.45 41.95 26.1 Q43.05 24.75 43.45 23.65 L43.7 22.6 43.75 21.55 43.75 21.4 Q43.75 20.4 43.25 19.05 L43.15 18.95 42.45 17.35 41.15 14.6 41.15 14.95 41.55 17.15 41.9 19.7 41.7 20.6 41.2 21.9 Q40.3 23.95 38.6 24.7 L37.6 24.75 34.75 24.3 Q33.3 23.8 33.05 23.1 M40.85 26.35 Q40.6 26.4 40.45 26.6 L40.15 27.05 40.15 27.45 40.2 27.6 40.25 27.65 40.45 27.75 40.65 27.75 41.0 27.45 41.35 27.05 41.45 26.65 41.4 26.5 41.25 26.4 41.15 26.35 40.85 26.35" fill="#ff0000" fill-rule="evenodd" stroke="none"/>
      <path d="M24.65 25.3 L24.15 24.2 Q23.8 23.45 23.75 22.3 24.5 23.9 26.2 23.9 27.5 23.9 27.5 23.1 L27.3 22.1 26.75 21.1 26.75 20.95 Q27.3 21.15 27.65 21.5 28.1 21.9 28.25 22.7 L28.35 23.05 27.75 24.35 25.85 24.4 Q24.85 24.75 24.65 25.3 M33.05 23.1 Q33.3 23.8 34.75 24.3 L37.6 24.75 38.6 24.7 Q40.3 23.95 41.2 21.9 L41.7 20.6 41.9 19.7 41.55 17.15 41.15 14.95 41.15 14.6 42.45 17.35 43.15 18.95 43.25 19.05 Q43.75 20.4 43.75 21.4 L43.75 21.55 43.7 22.6 42.95 23.9 42.95 23.75 42.8 22.3 Q42.75 21.35 42.2 21.25 42.6 24.5 38.95 25.2 34.5 26.05 33.85 27.4 L33.85 27.35 33.35 25.85 32.95 23.95 32.95 23.55 33.05 23.1" fill="#640101" fill-rule="evenodd" stroke="none"/>
      <path d="M25.7 21.45 L25.75 21.45 25.85 21.4 26.3 21.25 26.45 21.25 26.6 21.25 26.7 21.3 26.75 21.35 26.8 21.45 26.85 21.7 26.9 22.05 26.9 22.35 26.9 22.4 Q26.55 22.95 26.05 22.55 25.7 22.35 25.65 22.0 L25.65 21.55 25.7 21.45 M36.4 16.65 Q36.85 16.0 37.45 15.75 L38.0 15.5 38.2 15.5 38.3 15.55 38.5 15.65 Q38.75 16.15 38.55 16.8 L37.9 18.1 36.65 18.95 36.15 19.0 Q35.85 18.55 35.9 17.9 36.0 17.25 36.4 16.65 M40.85 26.35 L41.15 26.35 41.25 26.4 41.4 26.5 41.45 26.65 41.35 27.05 41.0 27.45 40.65 27.75 40.45 27.75 40.25 27.65 40.2 27.6 40.15 27.45 40.15 27.05 40.45 26.6 Q40.6 26.4 40.85 26.35" fill="#ffffff" fill-rule="evenodd" stroke="none"/>
      <path d="M28.35 23.05 L28.4 24.3 28.45 25.45 28.4 26.05 28.35 26.05 27.7 25.45 26.7 25.05 25.8 25.3 Q25.25 25.55 25.2 26.0 L24.95 25.9 24.75 25.5 24.65 25.3 Q24.85 24.75 25.85 24.4 L27.75 24.35 28.35 23.05 M32.95 23.55 L32.95 22.8 33.05 23.1 32.95 23.55 M43.7 22.6 L43.45 23.65 Q43.05 24.75 41.95 26.1 L41.55 25.45 41.0 25.4 Q39.45 25.4 38.0 27.05 36.65 28.75 37.2 31.05 L34.75 28.9 33.85 27.4 Q33.35 26.2 32.95 24.25 L32.95 23.95 33.35 25.85 33.85 27.35 33.85 27.4 Q34.5 26.05 38.95 25.2 42.6 24.5 42.2 21.25 42.75 21.35 42.8 22.3 L42.95 23.75 42.95 23.9 43.7 22.6" fill="#a80000" fill-rule="evenodd" stroke="none"/>
      <path d="M24.6 26.2 L29.15 26.35 Q29.4 22.55 27.8 20.8 25.2 20.0 23.2 21.25 22.75 23.5 24.6 26.2 M31.8 19.85 Q30.65 26.9 36.9 31.95 43.15 28.7 44.75 22.45 44.2 16.9 40.75 12.7 34.9 13.65 31.95 19.6 L31.8 19.85 Z" fill="none" stroke="#701616" stroke-linecap="round" stroke-linejoin="round" stroke-width="0.5"/>
      <path d="M5.85 -0.5 L5.85 -0.05 5.85 1.85 5.75 5.15 5.65 7.35 5.6 7.95 5.55 9.25 6.25 11.35 7.65 15.6 8.0 16.7 8.1 16.95 4.7 17.85 3.2 18.35 3.0 18.4 2.55 18.6 Q1.35 19.05 0.5 19.7 L-0.65 20.85 -1.2 21.35 -1.9 22.1 -1.9 19.05 -1.2 18.6 Q-0.8 17.6 1.6 16.8 L2.3 16.6 2.75 16.45 3.85 16.15 4.75 15.95 6.35 16.75 7.1 16.7 6.4 15.7 6.3 15.55 Q5.6 14.35 4.95 12.5 L4.4 10.75 4.25 10.35 4.0 6.75 3.95 6.25 3.9 4.9 3.85 2.3 3.8 0.8 3.8 -0.5 5.85 -0.5 M9.9 18.75 L11.2 19.65 8.1 20.25 Q6.9 20.6 6.1 21.3 L5.3 22.0 Q3.65 23.7 3.35 26.85 L1.45 26.25 0.55 26.0 -1.45 25.3 -1.8 26.2 -1.7 26.8 -1.35 27.75 -0.4 29.4 0.5 30.65 0.8 31.0 1.4 31.75 1.85 32.3 2.0 32.55 2.25 33.0 Q2.75 34.4 3.55 35.85 L5.15 38.8 7.5 42.55 9.35 43.6 9.4 43.65 9.4 43.7 12.25 49.2 13.0 50.5 14.6 53.45 11.6 53.45 8.7 47.55 7.35 44.95 2.6 36.4 1.3 34.2 1.0 33.85 0.95 33.75 0.8 33.5 0.5 32.95 0.4 32.85 0.15 32.5 -0.3 32.0 -0.4 31.9 -1.9 29.75 -1.9 24.25 -0.15 23.05 Q0.75 22.5 1.7 22.5 L2.25 22.7 2.55 23.25 2.65 23.25 Q2.9 21.4 5.8 20.1 L9.9 18.75 M-1.9 12.3 L-1.7 12.75 -1.7 12.8 -1.8 13.7 -1.9 13.8 -1.9 12.3 M-1.9 32.4 L-1.25 33.6 -0.05 35.95 4.3 44.45 4.4 44.65 5.05 46.0 8.5 53.45 6.15 53.45 4.45 49.1 3.6 47.05 -0.5 37.95 -0.8 37.45 -1.0 37.0 -1.9 35.2 -1.9 32.4 M-1.9 41.95 L-0.05 45.7 0.55 47.0 1.75 49.75 3.25 53.45 1.95 53.45 1.6 52.45 -1.9 43.7 -1.9 41.95" fill="#99a6b4" fill-rule="evenodd" stroke="none"/>
      <path d="M8.35 9.75 L7.15 10.65 6.55 6.55 6.55 2.65 Q7.2 6.25 7.8 8.25 L8.1 9.1 8.35 9.75 M6.2 0.4 L6.05 -0.5 6.55 -0.5 6.2 0.4 M-1.9 5.7 L-1.9 -0.5 -0.7 -0.5 1.4 2.8 -0.9 4.85 -1.5 5.35 -1.9 5.7 M8.7 47.55 L11.6 53.45 8.5 53.45 5.05 46.0 4.4 44.65 4.3 44.45 5.9 45.55 8.7 47.55 M14.6 53.45 L13.0 50.5 12.25 49.2 12.5 49.35 15.0 51.0 17.3 52.55 17.7 53.45 14.6 53.45 M0.8 31.0 L0.5 30.65 Q0.75 29.2 1.95 28.0 2.55 27.4 3.35 26.95 L3.25 28.15 3.35 30.75 Q2.55 30.45 2.05 30.45 L1.05 30.85 Q0.9 30.9 0.8 31.0 M4.45 49.1 L6.15 53.45 3.25 53.45 1.75 49.75 0.55 47.0 -0.05 45.7 2.8 47.9 4.45 49.1" fill="#e3e1f5" fill-rule="evenodd" stroke="none"/>
      <path d="M10.95 13.75 L8.8 10.7 8.35 9.75 8.1 9.1 7.8 8.25 Q7.2 6.25 6.55 2.65 L6.45 1.95 6.4 1.7 6.2 0.4 6.55 -0.5 13.0 -0.5 11.85 2.05 11.25 6.3 11.1 8.35 11.0 9.6 10.95 13.75 M3.8 -0.5 L3.8 0.8 3.85 2.3 3.9 4.9 3.95 6.25 2.0 3.7 1.4 2.8 -0.7 -0.5 3.8 -0.5 M-1.9 32.4 L-1.9 31.0 -1.3 31.6 0.4 35.2 -0.05 35.95 -1.25 33.6 -1.9 32.4 M9.4 43.7 L9.4 43.65 9.35 43.6 7.5 42.55 5.15 38.8 3.55 35.85 Q2.75 34.4 2.25 33.0 L2.0 32.55 1.85 32.3 1.4 31.75 0.8 31.0 Q0.9 30.9 1.05 30.85 L2.05 30.45 Q2.55 30.45 3.35 30.75 3.6 33.05 4.65 35.2 5.55 37.15 7.05 38.95 9.15 40.25 11.05 40.6 L9.5 43.4 9.4 43.7" fill="#b9cbe0" fill-rule="evenodd" stroke="none"/>
      <path d="M5.85 -0.5 L6.05 -0.5 6.2 0.4 6.4 1.7 6.45 1.95 6.55 2.65 6.55 6.55 7.15 10.65 8.35 9.75 8.8 10.7 10.95 13.75 Q11.0 16.2 11.35 18.5 L11.5 19.65 11.2 19.65 9.9 18.75 9.75 18.65 8.55 17.65 8.15 17.25 8.1 16.95 8.0 16.7 7.65 15.6 6.25 11.35 5.55 9.25 5.6 7.95 5.65 7.35 5.75 5.15 5.85 1.85 5.85 -0.05 5.85 -0.5 M3.95 6.25 L4.0 6.75 4.25 10.35 4.4 10.75 4.95 12.5 Q5.6 14.35 6.3 15.55 L6.4 15.7 7.1 16.7 6.35 16.75 4.75 15.95 4.4 15.8 3.45 15.4 1.0 14.15 0.2 13.75 0.15 13.75 -1.1 13.05 -1.7 12.8 -1.7 12.75 -1.9 12.3 -1.9 5.7 -1.5 5.35 -0.9 4.85 1.4 2.8 2.0 3.7 3.95 6.25 M0.5 30.65 L-0.4 29.4 -1.35 27.75 -1.7 26.8 -1.8 26.2 -1.45 25.3 0.55 26.0 1.45 26.25 3.35 26.85 3.35 26.95 Q2.55 27.4 1.95 28.0 0.75 29.2 0.5 30.65 M-0.05 35.95 L0.4 35.2 -1.3 31.6 -1.9 31.0 -1.9 29.75 -0.4 31.9 -0.3 32.0 0.15 32.5 0.4 32.85 0.5 32.95 0.8 33.5 0.95 33.75 1.0 33.85 1.3 34.2 2.6 36.4 7.35 44.95 8.7 47.55 5.9 45.55 4.3 44.45 -0.05 35.95 M12.25 49.2 L9.4 43.7 9.5 43.4 11.05 40.6 11.5 40.65 13.35 44.2 17.3 52.55 15.0 51.0 12.5 49.35 12.25 49.2 M-1.9 35.2 L-1.0 37.0 -0.8 37.45 -0.5 37.95 3.6 47.05 4.45 49.1 2.8 47.9 -0.05 45.7 -1.9 41.95 -1.9 35.2" fill="#ffffff" fill-rule="evenodd" stroke="none"/>
      <path d="M8.1 16.95 L8.15 17.25 8.55 17.65 9.75 18.65 8.15 19.0 7.95 19.05 Q7.8 18.5 6.05 18.5 L5.05 18.65 2.1 18.85 3.2 18.35 4.7 17.85 8.1 16.95 M4.75 15.95 L3.85 16.15 2.75 16.45 2.3 16.6 1.6 16.8 1.4 16.65 -0.4 15.5 -0.65 15.25 -1.9 15.25 -1.9 14.6 -1.85 13.95 -1.8 13.7 -1.7 12.8 -1.1 13.05 0.15 13.75 0.2 13.75 1.0 14.15 3.45 15.4 4.4 15.8 4.75 15.95 M-1.9 47.35 L-1.9 43.7 1.6 52.45 1.95 53.45 1.25 53.45 Q-0.45 50.05 -1.9 47.35" fill="#424051" fill-rule="evenodd" stroke="none"/>
      <path d="M9.75 18.65 L9.9 18.75 5.8 20.1 Q2.9 21.4 2.65 23.25 L2.55 23.25 2.25 22.7 1.7 22.5 Q0.75 22.5 -0.15 23.05 L-1.9 24.25 -1.9 22.1 -1.2 21.35 -0.65 20.85 0.5 19.7 Q1.35 19.05 2.55 18.6 L3.0 18.4 3.2 18.35 2.1 18.85 5.05 18.65 6.05 18.5 Q7.8 18.5 7.95 19.05 L8.15 19.0 9.75 18.65 M1.6 16.8 Q-0.8 17.6 -1.2 18.6 L-1.9 19.05 -1.9 15.25 -0.65 15.25 -0.4 15.5 1.4 16.65 1.6 16.8 M-1.9 13.8 L-1.8 13.7 -1.85 13.95 -1.9 14.6 -1.9 13.8 M-1.9 47.35 Q-0.45 50.05 1.25 53.45 L-1.9 53.45 -1.9 47.35" fill="#676577" fill-rule="evenodd" stroke="none"/>
      <path d="M11.2 19.65 L11.5 19.65 11.35 18.5 Q11.0 16.2 10.95 13.75 L11.0 9.6 11.1 8.35 11.25 6.3 11.85 2.05 13.0 -0.5 M3.35 26.85 Q3.65 23.7 5.3 22.0 L6.1 21.3 Q6.9 20.6 8.1 20.25 L11.2 19.65 M3.35 26.95 L3.35 26.85 M3.35 30.75 L3.25 28.15 3.35 26.95 M11.05 40.6 Q9.15 40.25 7.05 38.95 5.55 37.15 4.65 35.2 3.6 33.05 3.35 30.75 M17.3 52.55 L13.35 44.2 11.5 40.65 11.05 40.6 M17.3 52.55 L17.7 53.45" fill="none" stroke="#24303f" stroke-linecap="round" stroke-linejoin="round" stroke-width="1.0"/>
    </g>
    <linearGradient gradientTransform="matrix(0.0162, -0.0359, 0.0435, 0.0197, 12.15, -47.95)" gradientUnits="userSpaceOnUse" id="gradient0" spreadMethod="pad" x1="-819.2" x2="819.2">
      <stop offset="0.0" stop-color="#2c103c"/>
      <stop offset="1.0" stop-color="#ff0000" stop-opacity="0.6"/>
    </linearGradient>
    <linearGradient gradientTransform="matrix(0.0183, -0.0617, 0.0079, 0.0023, 18.75, -32.2)" gradientUnits="userSpaceOnUse" id="gradient1" spreadMethod="pad" x1="-819.2" x2="819.2">
      <stop offset="0.0" stop-color="#2c103c" stop-opacity="0.72156864"/>
      <stop offset="1.0" stop-color="#ff0000" stop-opacity="0.2901961"/>
    </linearGradient>
    <g id="shape2" transform="matrix(1.0, 0.0, 0.0, 1.0, 0.0, 0.0)">
      <path d="M50.5 0.0 Q53.95 0.0 53.95 3.3 L53.95 50.15 Q53.95 53.4 50.5 53.4 L3.3 53.4 Q0.0 53.4 0.0 50.15 L0.0 3.3 Q0.0 0.0 3.3 0.0 L50.5 0.0" fill="#000000" fill-opacity="0.003921569" fill-rule="evenodd" stroke="none"/>
    </g>
  </defs>
</svg>
