<?xml version="1.0" encoding="UTF-8" standalone="no"?>
<svg xmlns:ffdec="https://www.free-decompiler.com/flash" xmlns:xlink="http://www.w3.org/1999/xlink" ffdec:objectType="frame" height="59.85px" width="59.25px" xmlns="http://www.w3.org/2000/svg">
  <g transform="matrix(1.0, 0.0, 0.0, 1.0, 1.9, 3.0)">
    <clipPath id="clipPath0" transform="matrix(1.0, 0.0, 0.0, 1.0, 0.0, 0.0)">
      <path d="M50.5 0.0 Q53.95 0.0 53.95 3.3 L53.95 50.15 Q53.95 53.4 50.5 53.4 L3.3 53.4 Q0.0 53.4 0.0 50.15 L0.0 3.3 Q0.0 0.0 3.3 0.0 L50.5 0.0" fill="#000000" fill-rule="evenodd" stroke="none"/>
    </clipPath>
    <g clip-path="url(#clipPath0)">
      <use ffdec:characterId="4" height="59.85" transform="matrix(1.0, 0.0, 0.0, 1.0, -1.9, -3.0)" width="59.25" xlink:href="#shape1"/>
    </g>
    <use ffdec:characterId="5" height="53.4" transform="matrix(1.0, 0.0, 0.0, 1.0, 0.0, 0.0)" width="53.95" xlink:href="#shape2"/>
  </g>
  <defs>
    <g id="shape1" transform="matrix(1.0, 0.0, 0.0, 1.0, 1.9, 3.0)">
      <path d="M55.35 44.6 L55.35 50.25 52.8 54.5 51.75 44.95 55.35 44.6 M48.2 54.85 L47.1 54.85 Q45.85 50.35 45.15 45.6 L49.2 45.2 48.2 54.85" fill="url(#gradient0)" fill-rule="evenodd" stroke="none"/>
      <path d="M44.45 -1.0 L44.5 -1.0 44.45 -0.85 44.45 -1.0 M55.35 20.05 L55.35 44.6 51.75 44.95 50.5 33.55 50.45 34.0 50.4 33.5 49.2 45.2 45.15 45.6 Q44.25 39.9 44.05 33.85 L44.0 30.6 Q49.65 29.6 54.4 26.35 L55.35 20.05" fill="#536be9" fill-rule="evenodd" stroke="none"/>
      <path d="M44.5 -1.0 L44.6 -1.0 44.45 -0.6 44.45 -0.85 44.5 -1.0 M55.35 50.25 L55.35 50.45 52.8 54.7 52.8 54.5 55.35 50.25 M48.3 54.85 L48.2 54.85 49.2 45.2 50.4 33.5 50.45 34.0 48.3 54.85" fill="#3c00ff" fill-rule="evenodd" stroke="none"/>
      <path d="M55.35 15.8 L55.35 20.05 54.4 26.35 Q49.65 29.6 44.0 30.6 L44.05 28.4 44.9 27.65 47.5 22.45 55.35 15.8" fill="#363872" fill-rule="evenodd" stroke="none"/>
      <path d="M-1.4 12.85 L-1.4 9.05 -0.7 9.75 -0.7 13.05 -1.4 12.85" fill="url(#gradient1)" fill-rule="evenodd" stroke="none"/>
      <path d="M41.65 54.85 L39.75 54.85 39.6 44.95 39.6 44.25 41.0 51.85 41.65 54.85 M29.35 54.85 L29.1 54.85 27.7 53.0 29.35 54.85 M-1.4 41.6 L-1.4 33.0 -1.15 33.25 -1.15 40.55 -1.4 41.6" fill="url(#gradient2)" fill-rule="evenodd" stroke="none"/>
      <path d="M39.75 54.85 L33.35 54.85 29.1 49.95 Q30.25 52.55 30.85 54.85 L29.35 54.85 27.7 53.0 26.7 51.2 Q32.55 47.3 36.9 41.9 L37.55 41.05 37.7 34.5 38.55 35.9 Q38.85 39.9 39.6 44.25 L39.6 44.95 39.75 54.85" fill="#36438a" fill-rule="evenodd" stroke="none"/>
      <path d="M29.1 54.85 L21.3 54.85 19.8 54.05 19.8 53.95 Q19.8 52.4 20.65 49.2 L23.05 50.45 25.8 51.8 26.7 51.2 27.7 53.0 29.1 54.85 M-0.7 38.7 L-1.15 40.55 -1.15 33.25 -0.7 33.65 -0.7 38.7" fill="#3e4887" fill-rule="evenodd" stroke="none"/>
      <path d="M18.3 47.85 L20.65 49.2 Q19.8 52.4 19.8 53.95 L19.8 54.05 17.85 52.9 17.25 51.3 15.45 46.0 18.3 47.85" fill="#263069" fill-rule="evenodd" stroke="none"/>
      <path d="M4.3 -1.0 L9.65 6.0 7.25 12.3 6.45 9.95 6.05 9.6 0.35 5.0 0.05 4.75 -0.7 4.1 -1.4 3.4 -1.4 2.85 -1.35 2.9 -0.7 3.5 -0.7 3.55 Q2.05 6.15 5.05 8.15 L0.55 -0.15 0.35 -1.0 4.3 -1.0 M-1.4 33.0 L-1.4 31.5 -1.25 31.8 -1.15 31.9 -1.0 32.05 -0.7 32.35 0.25 33.25 0.25 31.85 Q0.25 29.85 0.65 26.75 L0.75 26.0 1.3 26.3 3.05 19.45 0.2 13.35 6.15 15.4 Q4.3 20.9 2.6 26.65 L0.4 34.55 0.3 34.5 -0.7 33.65 -1.15 33.25 -1.4 33.0 M-1.4 9.05 L-1.4 6.1 -0.7 6.9 3.1 11.2 6.4 14.8 6.15 15.35 Q3.2 13.6 -0.7 9.75 L-1.4 9.05" fill="#a6e3ff" fill-rule="evenodd" stroke="none"/>
      <path d="M19.9 -1.0 L20.9 -1.0 20.85 0.05 19.9 -1.0 M10.85 54.85 L9.45 54.85 7.75 41.55 Q8.0 37.45 8.5 33.75 9.3 27.45 10.8 22.25 L11.45 20.25 11.25 23.4 11.2 26.65 Q11.2 28.8 11.65 31.6 L10.7 36.95 10.6 39.9 10.55 46.2 10.55 47.7 10.6 49.95 10.85 54.85 M6.15 15.35 L6.15 15.4 0.2 13.35 -0.7 13.05 -0.7 9.75 Q3.2 13.6 6.15 15.35 M0.4 34.55 L-0.7 38.7 -0.7 33.65 0.3 34.5 0.4 34.55" fill="#d0fbff" fill-rule="evenodd" stroke="none"/>
      <path d="M-0.4 54.85 L-1.4 54.85 -1.4 41.6 -1.15 40.55 -0.7 38.7 0.4 34.55 2.6 26.65 Q4.3 20.9 6.15 15.4 L6.15 15.35 6.4 14.8 6.7 13.9 6.9 13.25 8.4 16.45 8.95 17.65 9.25 18.3 9.55 19.05 9.9 19.8 10.5 21.4 7.35 29.5 6.2 32.3 4.05 38.2 2.95 41.5 2.05 44.35 1.35 46.85 Q0.15 51.2 0.0 53.9 L-0.25 53.9 -0.4 54.85 M-1.4 24.95 L-1.4 12.85 -0.7 13.05 0.2 13.35 3.05 19.45 1.3 26.3 0.75 26.0 -1.4 24.95 M-1.4 2.85 L-1.4 -1.0 0.35 -1.0 0.55 -0.15 5.05 8.15 Q2.05 6.15 -0.7 3.55 L-0.7 3.5 -1.35 2.9 -1.4 2.85 M40.95 7.65 L41.1 7.75 Q42.1 9.5 40.75 10.4 L40.65 10.3 Q40.0 8.75 40.95 7.65 M51.65 8.65 Q52.1 8.55 52.15 8.85 52.4 12.15 49.75 11.95 L49.8 11.65 Q49.9 9.6 51.65 8.65 M21.6 11.75 L21.55 11.85 21.4 11.8 Q20.05 10.8 20.05 9.85 20.1 9.35 20.55 8.85 L20.55 8.9 Q22.65 10.1 21.6 11.75 M21.9 24.75 Q22.7 25.35 22.25 26.3 22.05 26.8 21.7 26.5 L21.6 26.45 21.7 27.1 21.8 27.2 22.0 27.45 22.5 27.65 22.8 27.65 23.25 26.95 23.4 27.0 23.45 27.1 23.75 27.55 23.9 27.65 23.8 27.75 23.85 27.85 23.8 27.9 23.8 27.95 23.85 27.95 23.9 28.55 24.35 28.2 24.45 28.15 25.6 29.05 24.3 28.95 22.95 28.8 23.75 28.6 23.7 28.6 22.9 28.15 22.85 28.1 Q22.15 28.1 21.45 27.3 L20.8 26.55 Q20.35 25.85 20.35 25.0 L20.35 24.7 20.9 25.2 21.55 24.8 21.6 24.75 21.85 24.7 21.9 24.75 M22.7 28.75 L20.2 28.3 19.65 27.9 Q18.8 27.25 18.4 25.75 18.1 24.55 18.1 22.9 L19.45 24.05 Q19.4 24.8 19.65 25.55 L19.7 25.65 19.7 25.7 20.05 26.6 Q20.65 27.65 21.95 28.4 L22.7 28.75" fill="#ffffff" fill-rule="evenodd" stroke="none"/>
      <path d="M42.05 30.3 L42.4 29.8 44.05 28.4 44.0 30.6 44.05 33.85 43.95 34.1 42.6 37.4 42.25 38.5 Q40.95 42.9 40.95 49.15 L41.0 51.85 39.6 44.25 Q38.85 39.9 38.55 35.9 L38.85 36.5 40.4 32.45 40.65 32.2 41.15 31.5 41.3 31.35 41.3 31.3 41.45 31.1 41.5 31.05 42.05 30.3" fill="#8ebcf4" fill-rule="evenodd" stroke="none"/>
      <path d="M47.1 54.85 L41.65 54.85 41.0 51.85 40.95 49.15 Q40.95 42.9 42.25 38.5 L42.6 37.4 43.95 34.1 44.05 33.85 Q44.25 39.9 45.15 45.6 45.85 50.35 47.1 54.85" fill="url(#gradient3)" fill-rule="evenodd" stroke="none"/>
      <path d="M21.3 54.85 L18.8 54.85 18.55 54.75 17.85 52.9 19.8 54.05 21.3 54.85" fill="#79b1ff" fill-rule="evenodd" stroke="none"/>
      <path d="M18.8 54.85 L18.6 54.85 18.55 54.75 18.8 54.85" fill="#575ae2" fill-rule="evenodd" stroke="none"/>
      <path d="M33.35 54.85 L30.85 54.85 Q30.25 52.55 29.1 49.95 L33.35 54.85" fill="#6163bd" fill-rule="evenodd" stroke="none"/>
      <path d="M18.6 54.85 L10.85 54.85 10.6 49.95 10.55 47.7 10.55 46.2 10.6 39.9 10.7 36.95 11.65 31.6 Q12.0 33.85 12.65 36.5 12.1 33.65 12.05 30.05 L12.05 28.3 Q12.1 26.0 12.45 24.55 L16.6 28.1 Q19.0 29.85 20.95 30.0 L21.4 30.1 21.45 30.1 26.9 30.45 28.25 31.2 28.35 31.4 28.55 31.5 29.1 31.7 33.3 34.15 35.75 35.7 35.9 36.65 36.05 37.65 36.15 38.2 Q35.0 40.45 33.2 42.75 L32.8 43.3 Q29.6 46.45 25.8 48.9 L25.2 49.25 24.0 49.95 Q22.85 49.55 20.9 48.25 L18.35 46.5 16.55 45.15 15.05 42.95 Q14.15 41.55 13.5 39.7 12.95 38.25 12.65 36.5 12.95 38.25 13.5 39.7 14.3 42.65 15.45 46.0 L17.25 51.3 17.85 52.9 18.55 54.75 18.6 54.85 M12.5 24.5 L12.9 23.25 16.4 24.8 16.75 26.5 12.5 24.5 M19.05 40.45 L20.1 41.0 20.6 41.25 20.9 41.4 20.95 41.45 21.2 41.55 24.05 42.0 28.15 43.8 24.8 41.75 23.85 41.15 Q19.85 40.35 17.0 38.35 L19.05 40.45" fill="#fafdff" fill-rule="evenodd" stroke="none"/>
      <path d="M-1.4 31.5 L-1.4 24.95 0.75 26.0 0.65 26.75 Q0.25 29.85 0.25 31.85 L0.25 33.25 -0.7 32.35 -1.0 32.05 -1.15 31.9 -1.25 31.8 -1.4 31.5 M-1.4 4.3 L-1.4 3.4 -0.7 4.1 0.05 4.75 0.35 5.0 6.05 9.6 6.45 9.95 7.25 12.3 6.9 13.25 6.7 13.9 3.5 9.5 2.1 7.6 -0.7 4.8 -1.4 4.3" fill="#5f8cf0" fill-rule="evenodd" stroke="none"/>
      <path d="M-1.4 6.1 L-1.4 4.3 -0.7 4.8 2.1 7.6 3.5 9.5 6.7 13.9 6.4 14.8 3.1 11.2 -0.7 6.9 -1.4 6.1" fill="#9af6ff" fill-rule="evenodd" stroke="none"/>
      <path d="M41.45 22.35 L41.55 26.5 47.5 22.45 44.9 27.65 44.05 28.4 42.4 29.8 Q41.25 30.6 37.55 32.05 37.2 32.15 37.1 32.7 36.85 32.65 36.9 33.05 L36.95 33.1 37.05 33.3 37.2 33.6 37.65 34.35 36.15 38.2 36.05 37.65 36.05 35.6 Q36.15 33.1 36.5 31.2 L37.15 30.0 38.15 27.95 38.7 26.85 38.95 26.3 40.8 23.3 41.45 22.35 M19.05 40.45 L17.0 38.35 Q19.85 40.35 23.85 41.15 L24.8 41.75 28.15 43.8 24.05 42.0 21.2 41.55 20.95 41.45 20.9 41.4 20.6 41.25 20.1 41.0 19.05 40.45" fill="#91bacd" fill-rule="evenodd" stroke="none"/>
      <path d="M14.65 12.6 L16.8 15.4 17.5 17.0 16.7 16.5 13.95 14.1 14.55 12.85 14.65 12.6 M28.9 27.4 L29.0 26.55 Q30.1 20.3 29.5 13.75 L31.3 16.55 31.65 17.05 36.3 24.9 41.3 17.3 41.45 22.35 40.8 23.3 38.95 26.3 39.05 25.95 39.1 25.4 39.45 23.15 38.55 23.95 36.55 25.4 36.1 25.8 36.0 25.9 33.95 27.25 32.05 22.8 31.35 21.3 30.85 20.15 30.75 21.2 29.75 28.3 28.9 27.4 M13.45 15.1 L14.3 16.5 15.2 19.7 16.1 20.35 16.2 22.7 Q13.95 21.25 12.9 23.25 L12.5 24.5 12.2 24.35 12.45 24.55 Q12.1 26.0 12.05 28.3 L12.05 30.05 Q12.1 33.65 12.65 36.5 12.0 33.85 11.65 31.6 11.2 28.8 11.2 26.65 L11.25 23.4 11.45 20.25 Q12.35 17.5 13.45 15.1 M13.5 39.7 Q14.15 41.55 15.05 42.95 L16.55 45.15 18.3 47.85 15.45 46.0 Q14.3 42.65 13.5 39.7" fill="#7aa0c2" fill-rule="evenodd" stroke="none"/>
      <path d="M27.85 26.45 L28.85 27.45 28.9 27.4 29.75 28.3 30.75 21.2 30.85 20.15 31.35 21.3 32.05 22.8 33.95 27.25 36.0 25.9 36.1 25.8 36.55 25.4 38.55 23.95 39.45 23.15 39.1 25.4 39.05 25.95 38.95 26.3 38.7 26.85 38.15 27.95 37.15 30.0 36.5 31.2 Q36.15 33.1 36.05 35.6 L36.05 37.65 35.9 36.65 35.75 35.7 33.3 34.15 29.1 31.7 29.55 31.8 29.9 31.9 30.55 32.05 30.9 32.15 30.95 32.15 32.6 32.45 30.6 30.2 28.3 27.25 27.85 26.45 M37.65 34.35 L37.7 34.5 37.55 41.05 36.9 41.9 Q32.55 47.3 26.7 51.2 L25.8 51.8 23.05 50.45 20.65 49.2 18.3 47.85 16.55 45.15 18.35 46.5 20.9 48.25 Q22.85 49.55 24.0 49.95 L25.2 49.25 25.8 48.9 Q29.6 46.45 32.8 43.3 L33.2 42.75 Q35.0 40.45 36.15 38.2 L37.65 34.35 M17.6 17.3 L16.7 16.5 17.5 17.0 17.6 17.3 M12.9 23.25 Q13.95 21.25 16.2 22.7 L16.4 24.8 12.9 23.25 M28.25 31.2 L26.9 30.45 27.8 30.4 27.85 30.45 28.25 31.2" fill="#d1e9f4" fill-rule="evenodd" stroke="none"/>
      <path d="M4.3 -1.0 L7.45 -1.0 7.7 0.5 11.6 4.65 15.2 9.45 15.6 10.1 17.55 13.5 17.65 13.8 17.85 14.45 18.3 16.7 Q19.0 16.15 19.45 16.15 L19.7 16.25 Q20.45 16.7 23.0 19.05 26.6 22.4 27.35 24.75 L27.35 24.55 26.85 22.05 29.0 26.55 28.9 27.4 28.85 27.45 27.85 26.45 17.25 15.95 16.8 15.4 14.65 12.6 14.2 12.0 9.65 6.0 4.3 -1.0 M20.9 -1.0 L23.25 -1.0 23.6 -0.5 25.35 1.65 Q27.5 4.0 29.55 5.0 L29.7 2.75 29.65 1.7 29.5 -0.1 29.4 -1.0 30.3 -1.0 30.35 -0.45 30.45 0.7 30.45 0.85 30.55 3.85 30.55 5.6 Q30.4 9.6 29.7 11.8 L29.4 12.75 28.95 9.8 28.85 9.65 28.75 9.55 26.25 6.3 23.2 2.65 21.4 0.65 20.85 0.05 20.9 -1.0 M55.35 50.45 L55.35 54.85 52.85 54.85 48.3 54.85 50.45 34.0 50.5 33.55 51.75 44.95 52.8 54.5 52.8 54.7 55.35 50.45 M45.2 8.95 L45.25 10.2 41.3 17.3 36.3 24.9 31.65 17.05 31.3 16.55 32.35 13.6 32.75 12.1 32.55 14.15 33.75 11.95 Q35.2 12.8 36.2 14.55 37.45 16.65 37.7 19.65 L39.8 16.45 41.55 13.75 41.7 13.5 45.2 8.95 M33.45 7.6 L33.45 7.65 33.2 9.1 33.3 7.5 33.45 7.6 M52.85 54.85 L52.8 54.7 52.85 54.85" fill="#4c4e95" fill-rule="evenodd" stroke="none"/>
      <path d="M42.4 29.8 L42.05 30.3 41.45 30.65 40.2 31.3 37.8 32.65 37.45 32.85 37.05 33.3 36.95 33.1 36.9 33.05 Q36.85 32.65 37.1 32.7 37.2 32.15 37.55 32.05 41.25 30.6 42.4 29.8 M41.3 31.35 L41.15 31.5 40.65 32.2 40.4 32.45 38.85 36.5 38.55 35.9 37.7 34.5 37.65 34.35 37.2 33.6 38.75 32.75 38.6 32.85 38.55 33.05 38.55 33.15 38.55 33.45 38.55 33.55 38.6 33.6 38.65 33.8 38.7 33.75 38.7 33.7 38.95 33.3 38.95 33.5 38.95 33.6 Q39.55 33.25 39.4 32.6 L39.55 32.3 40.0 32.05 39.85 32.35 39.5 33.25 38.45 34.45 38.4 34.4 38.4 34.3 38.35 34.15 38.35 34.05 38.3 33.75 38.3 33.85 38.35 34.25 38.35 34.35 38.25 34.35 38.2 34.3 38.15 34.25 38.2 34.25 38.2 33.8 38.15 33.75 38.1 33.8 38.0 33.85 38.0 33.6 38.0 33.4 37.65 33.8 37.8 33.8 37.9 34.05 37.95 34.2 38.0 34.5 Q38.15 35.1 38.35 35.05 L38.45 35.0 38.65 34.7 Q38.8 35.15 39.5 33.25 L39.95 32.65 40.85 31.6 41.3 31.35 M24.45 26.55 L22.0 24.15 20.45 23.2 20.45 23.35 20.3 23.95 20.2 24.1 20.05 24.75 20.2 26.55 20.15 26.5 19.7 25.7 19.7 25.65 19.65 25.55 Q19.4 24.8 19.45 24.05 L19.75 22.9 17.15 21.25 17.05 21.15 Q17.05 22.4 17.2 23.45 L17.5 25.3 Q18.05 27.35 19.25 28.3 L20.0 28.8 25.7 29.75 27.55 29.9 27.65 29.9 27.3 29.55 Q26.35 28.3 25.05 27.15 L24.9 27.4 Q24.5 27.85 23.85 27.95 L23.8 27.95 23.8 27.9 23.85 27.85 24.65 26.75 24.6 26.7 24.65 26.7 24.45 26.55 M14.3 16.5 Q15.55 18.5 16.8 19.7 L17.15 20.05 Q18.65 21.45 22.45 23.85 23.95 25.0 26.4 28.05 L28.65 30.75 28.2 30.35 27.8 30.4 26.9 30.45 21.45 30.1 21.4 30.1 20.95 30.0 Q19.0 29.85 16.6 28.1 L12.45 24.55 12.2 24.35 12.5 24.5 16.75 26.5 16.4 24.8 16.2 22.7 16.1 20.35 15.2 19.7 14.3 16.5 M30.55 32.05 L28.0 28.75 30.55 31.3 31.05 32.05 30.9 32.15 30.55 32.05 M22.6 27.3 L22.6 27.25 Q22.15 26.2 23.0 25.6 23.75 26.55 22.6 27.3" fill="#4648cb" fill-rule="evenodd" stroke="none"/>
      <path d="M42.05 30.3 L41.5 31.05 41.45 31.1 41.3 31.3 41.3 31.35 40.85 31.6 40.95 31.45 40.25 31.9 40.2 31.95 40.0 32.05 39.55 32.3 39.45 32.35 39.35 32.4 38.75 32.75 37.2 33.6 37.05 33.3 37.45 32.85 37.8 32.65 40.2 31.3 41.45 30.65 42.05 30.3 M16.7 16.5 L17.6 17.3 Q21.05 20.4 23.9 23.75 L28.0 28.75 30.55 32.05 29.9 31.9 28.65 30.75 26.4 28.05 Q23.95 25.0 22.45 23.85 18.65 21.45 17.15 20.05 L16.8 19.7 Q15.55 18.5 14.3 16.5 L13.45 15.1 13.95 14.1 16.7 16.5" fill="#1a1b83" fill-rule="evenodd" stroke="none"/>
      <path d="M40.0 32.05 L40.2 31.95 40.25 31.9 40.95 31.45 40.85 31.6 39.95 32.65 39.5 33.25 Q38.8 35.15 38.65 34.7 L38.45 35.0 38.35 35.05 Q38.15 35.1 38.0 34.5 L37.95 34.2 38.15 34.3 38.15 34.25 38.2 34.3 38.25 34.35 38.35 34.35 38.35 34.25 38.3 33.85 38.3 33.75 38.35 34.05 38.35 34.15 38.4 34.3 38.4 34.4 38.45 34.45 39.5 33.25 39.85 32.35 40.0 32.05 M37.9 34.05 L37.8 33.8 37.65 33.8 38.0 33.4 38.0 33.6 38.0 33.85 37.9 34.05 M39.55 32.3 L39.4 32.6 39.4 32.5 39.35 32.45 Q38.95 32.75 38.95 33.3 L38.7 33.7 38.7 33.75 38.65 33.8 38.6 33.6 38.55 33.55 38.55 33.45 38.55 33.15 38.55 33.05 38.6 32.85 38.75 32.75 39.35 32.4 39.45 32.35 39.55 32.3 M21.9 24.75 L22.0 24.5 20.45 23.35 20.45 23.2 22.0 24.15 24.45 26.55 23.95 26.05 23.45 27.1 23.4 27.0 23.25 26.95 22.8 27.65 22.5 27.65 22.0 27.45 21.8 27.2 21.7 27.1 21.6 26.45 21.7 26.5 Q22.05 26.8 22.25 26.3 22.7 25.35 21.9 24.75 M20.3 23.95 L20.35 24.7 20.35 25.0 Q20.35 25.85 20.8 26.55 L21.45 27.3 Q22.15 28.1 22.85 28.1 L22.9 28.15 23.7 28.6 23.75 28.6 22.95 28.8 22.7 28.75 21.95 28.4 Q20.65 27.65 20.05 26.6 L19.7 25.7 20.15 26.5 20.2 26.55 20.05 24.75 20.2 24.1 20.3 23.95 M24.9 27.4 L24.45 28.15 24.35 28.2 23.9 28.55 23.85 27.95 Q24.5 27.85 24.9 27.4 M23.85 27.85 L23.8 27.75 23.9 27.65 24.6 26.7 24.65 26.75 23.85 27.85 M22.6 27.3 Q23.75 26.55 23.0 25.6 22.15 26.2 22.6 27.25 L22.6 27.3" fill="#7a9eee" fill-rule="evenodd" stroke="none"/>
      <path d="M37.95 34.2 L37.9 34.05 38.0 33.85 38.1 33.8 38.15 33.75 38.2 33.8 38.2 34.25 38.15 34.25 38.15 34.3 37.95 34.2 M39.4 32.6 Q39.55 33.25 38.95 33.6 L38.95 33.5 38.95 33.3 Q38.95 32.75 39.35 32.45 L39.4 32.5 39.4 32.6 M20.45 23.35 L22.0 24.5 21.9 24.75 21.85 24.7 21.6 24.75 21.55 24.8 20.9 25.2 20.35 24.7 20.3 23.95 20.45 23.35 M23.45 27.1 L23.95 26.05 24.45 26.55 24.65 26.7 24.6 26.7 23.9 27.65 23.75 27.55 23.45 27.1 M19.45 24.05 L18.1 22.9 Q18.1 24.55 18.4 25.75 18.8 27.25 19.65 27.9 L20.2 28.3 22.7 28.75 22.95 28.8 24.3 28.95 25.6 29.05 24.45 28.15 24.9 27.4 25.05 27.15 Q26.35 28.3 27.3 29.55 L27.65 29.9 27.55 29.9 25.7 29.75 20.0 28.8 19.25 28.3 Q18.05 27.35 17.5 25.3 L17.2 23.45 Q17.05 22.4 17.05 21.15 L17.15 21.25 19.75 22.9 19.45 24.05" fill="#9ff1ff" fill-rule="evenodd" stroke="none"/>
      <path d="M16.8 15.4 L17.25 15.95 27.85 26.45 28.3 27.25 30.6 30.2 32.6 32.45 30.95 32.15 30.9 32.15 31.05 32.05 30.55 31.3 28.0 28.75 23.9 23.75 Q21.05 20.4 17.6 17.3 L17.5 17.0 16.8 15.4 M28.65 30.75 L29.9 31.9 29.55 31.8 29.1 31.7 28.55 31.5 28.35 31.4 28.25 31.2 27.85 30.45 27.8 30.4 28.2 30.35 28.65 30.75" fill="#5052fa" fill-rule="evenodd" stroke="none"/>
      <path d="M14.2 12.0 L14.65 12.6 14.55 12.85 13.95 14.1 13.45 15.1 Q12.35 17.5 11.45 20.25 L10.8 22.25 Q9.3 27.45 8.5 33.75 8.0 37.45 7.75 41.55 L9.45 54.85 6.45 54.85 5.95 51.65 5.15 46.3 4.7 42.9 4.05 38.2 6.2 32.3 7.35 29.5 10.5 21.4 13.2 14.65 13.55 13.75 14.2 12.0" fill="url(#gradient4)" fill-rule="evenodd" stroke="none"/>
      <path d="M9.65 6.0 L14.2 12.0 13.55 13.75 13.2 14.65 10.5 21.4 9.9 19.8 9.55 19.05 9.25 18.3 8.95 17.65 8.4 16.45 6.9 13.25 7.25 12.3 9.65 6.0" fill="#87ccf3" fill-rule="evenodd" stroke="none"/>
      <path d="M6.45 54.85 L-0.4 54.85 -0.25 53.9 0.0 53.9 Q0.15 51.2 1.35 46.85 L2.05 44.35 2.95 41.5 4.05 38.2 4.7 42.9 5.15 46.3 5.95 51.65 6.45 54.85" fill="url(#gradient5)" fill-rule="evenodd" stroke="none"/>
      <path d="M8.0 -1.0 L10.0 -1.0 13.15 1.5 12.5 -0.95 12.5 -1.0 19.9 -1.0 20.85 0.05 21.4 0.65 23.2 2.65 21.1 1.85 20.8 1.75 18.3 1.1 18.5 4.5 18.7 6.2 19.1 8.65 17.15 6.3 17.1 6.25 16.4 5.4 13.15 1.5 14.4 5.3 12.5 3.3 9.9 0.8 8.15 -0.8 8.0 -1.0 M23.25 -1.0 L29.4 -1.0 29.5 -0.1 29.65 1.7 29.7 2.75 29.55 5.0 Q27.5 4.0 25.35 1.65 L23.6 -0.5 23.25 -1.0 M33.0 -1.0 L33.3 -1.0 34.0 4.0 34.1 4.6 34.2 5.4 34.55 8.55 33.45 7.6 33.3 7.5 33.35 5.95 33.35 5.45 33.3 3.85 33.0 -1.0 M47.75 -1.0 L51.5 -1.0 51.45 -0.95 Q50.35 0.5 47.4 2.55 L47.75 -1.0 M55.35 7.05 L55.35 13.8 51.2 16.0 55.35 7.05" fill="#85a3ff" fill-rule="evenodd" stroke="none"/>
      <path d="M44.6 -1.0 L47.75 -1.0 47.4 2.55 47.2 4.95 47.15 5.95 47.1 6.6 46.85 8.8 47.1 9.4 45.1 13.3 45.0 13.55 42.55 17.95 42.7 17.85 42.75 17.75 Q44.15 16.35 45.35 16.35 L45.5 16.35 46.35 16.55 46.35 18.45 46.2 20.45 45.6 21.25 44.5 22.65 Q45.9 21.4 48.55 19.7 L48.85 19.5 Q53.05 16.7 55.35 14.45 L55.35 15.8 47.5 22.45 41.55 26.5 41.45 22.35 41.3 17.3 45.25 10.2 45.2 8.95 44.45 -0.6 44.6 -1.0 M41.7 13.5 L41.55 13.75 39.8 16.45 37.7 19.65 Q37.45 16.65 36.2 14.55 35.2 12.8 33.75 11.95 L32.55 14.15 32.75 12.1 32.95 11.35 33.2 9.1 33.45 7.65 33.45 7.6 34.55 8.55 41.15 14.2 41.7 13.5" fill="#353774" fill-rule="evenodd" stroke="none"/>
      <path d="M51.5 -1.0 L55.35 -1.0 55.35 -0.65 49.4 4.1 47.15 5.95 47.2 4.95 47.4 2.55 Q50.35 0.5 51.45 -0.95 L51.5 -1.0 M14.4 5.3 L13.15 1.5 16.4 5.4 17.1 6.25 17.15 6.3 19.1 8.65 18.7 6.2 18.5 4.5 18.3 1.1 20.8 1.75 21.1 1.85 23.2 2.65 26.25 6.3 25.3 5.5 Q23.0 3.75 21.05 3.1 L21.1 3.6 21.45 6.05 22.25 10.8 22.65 12.95 21.6 11.75 Q22.65 10.1 20.55 8.9 L20.55 8.85 Q20.1 9.35 20.05 9.85 L19.1 8.65 19.8 11.35 19.9 11.65 15.8 6.8 15.05 5.95 14.4 5.3" fill="#8ec3ff" fill-rule="evenodd" stroke="none"/>
      <path d="M33.3 -1.0 L44.45 -1.0 44.45 -0.85 44.45 -0.6 45.2 8.95 41.7 13.5 41.15 14.2 34.55 8.55 34.2 5.4 34.1 4.6 34.0 4.0 33.3 -1.0 M55.35 -0.65 L55.35 7.05 51.2 16.0 50.35 16.4 47.1 9.4 46.85 8.8 47.1 6.6 47.15 5.95 49.4 4.1 55.35 -0.65 M51.65 8.65 Q49.9 9.6 49.8 11.65 L49.75 11.95 Q52.4 12.15 52.15 8.85 52.1 8.55 51.65 8.65 M40.95 7.65 Q40.0 8.75 40.65 10.3 L40.75 10.4 Q42.1 9.5 41.1 7.75 L40.95 7.65 M21.6 11.75 L22.65 12.95 22.25 10.8 21.45 6.05 21.1 3.6 21.05 3.1 Q23.0 3.75 25.3 5.5 L26.25 6.3 28.75 9.55 28.85 9.65 28.15 11.95 27.2 14.65 26.1 17.6 25.35 19.5 23.75 16.95 23.25 16.25 19.9 11.65 19.8 11.35 19.1 8.65 20.05 9.85 Q20.05 10.8 21.4 11.8 L21.55 11.85 21.6 11.75" fill="#b1e3ff" fill-rule="evenodd" stroke="none"/>
      <path d="M55.35 13.8 L55.35 14.45 Q53.05 16.7 48.85 19.5 L48.55 19.7 Q45.9 21.4 44.5 22.65 L45.6 21.25 46.2 20.45 46.35 18.45 46.35 16.55 45.5 16.35 45.35 16.35 Q44.15 16.35 42.75 17.75 L42.7 17.85 42.55 17.95 45.0 13.55 45.1 13.3 47.1 9.4 50.35 16.4 51.2 16.0 55.35 13.8" fill="#191c5b" fill-rule="evenodd" stroke="none"/>
      <path d="M30.3 -1.0 L33.0 -1.0 33.3 3.85 33.35 5.45 33.35 5.95 33.3 7.5 33.2 9.1 32.95 11.35 32.75 12.1 32.35 13.6 31.3 16.55 29.5 13.75 29.4 12.75 29.7 11.8 Q30.4 9.6 30.55 5.6 L30.55 3.85 30.45 0.85 30.45 0.7 30.35 -0.45 30.3 -1.0" fill="#3034e7" fill-rule="evenodd" stroke="none"/>
      <path d="M26.85 22.05 L27.35 24.55 27.35 24.75 Q26.6 22.4 23.0 19.05 20.45 16.7 19.7 16.25 L19.45 16.15 Q19.0 16.15 18.3 16.7 L17.85 14.45 17.65 13.8 17.55 13.5 15.6 10.1 15.2 9.45 11.6 4.65 7.7 0.5 7.45 -1.0 8.0 -1.0 8.15 -0.8 9.9 0.8 12.5 3.3 14.4 5.3 15.05 5.95 15.8 6.8 19.9 11.65 23.25 16.25 23.75 16.95 25.35 19.5 26.85 22.05" fill="#3b3e91" fill-rule="evenodd" stroke="none"/>
      <path d="M10.0 -1.0 L12.5 -1.0 12.5 -0.95 13.15 1.5 10.0 -1.0" fill="#6584de" fill-rule="evenodd" stroke="none"/>
      <path d="M29.0 26.55 L26.85 22.05 25.35 19.5 26.1 17.6 27.2 14.65 28.15 11.95 28.85 9.65 28.95 9.8 29.4 12.75 29.5 13.75 Q30.1 20.3 29.0 26.55" fill="#595bbb" fill-rule="evenodd" stroke="none"/>
      <path d="M45.15 45.6 L49.2 45.2 M51.75 44.95 L55.35 44.6" fill="none" stroke="#474abd" stroke-linecap="round" stroke-linejoin="round" stroke-width="1.0"/>
      <path d="M44.45 -0.85 L44.5 -1.0 M50.45 34.0 L50.4 33.5 49.2 45.2 48.2 54.85 M55.35 50.25 L52.8 54.5" fill="none" stroke="#ffffff" stroke-linecap="round" stroke-linejoin="round" stroke-width="4.0"/>
      <path d="M4.3 -1.0 L9.65 6.0 14.2 12.0 14.65 12.6 16.8 15.4 17.25 15.95 M28.85 27.45 L28.9 27.4 29.0 26.55 Q30.1 20.3 29.5 13.75 L29.4 12.75 28.95 9.8 28.85 9.65 28.75 9.55 26.25 6.3 23.2 2.65 21.4 0.65 20.85 0.05 19.9 -1.0 M44.45 -0.6 L44.6 -1.0 M41.55 26.5 L47.5 22.45 55.35 15.8 M51.75 44.95 L50.5 33.55 50.45 34.0 48.3 54.85 M44.0 30.6 Q49.65 29.6 54.4 26.35 L55.35 20.05 M17.85 52.9 L19.8 54.05 21.3 54.85 M27.7 53.0 L26.7 51.2 M27.7 53.0 L29.1 54.85 M33.35 54.85 L29.1 49.95 Q30.25 52.55 30.85 54.85 M55.35 50.45 L52.8 54.7 52.85 54.85 M52.8 54.5 L52.8 54.7 M52.8 54.5 L51.75 44.95" fill="none" stroke="#1d1e54" stroke-linecap="round" stroke-linejoin="round" stroke-width="1.0"/>
      <path d="M38.55 35.9 Q38.85 39.9 39.6 44.25 L41.0 51.85 41.65 54.85 M44.05 33.85 L44.0 30.6 44.05 28.4 M45.15 45.6 Q44.25 39.9 44.05 33.85 M7.25 12.3 L9.65 6.0 M7.25 12.3 L6.9 13.25 6.7 13.9 6.4 14.8 6.15 15.35 Q3.2 13.6 -0.7 9.75 L-1.4 9.05 M6.15 15.35 L6.15 15.4 Q4.3 20.9 2.6 26.65 L0.4 34.55 -0.7 38.7 -1.15 40.55 -1.4 41.6 M-0.7 13.05 L0.2 13.35 6.15 15.4 M13.95 14.1 L13.45 15.1 Q12.35 17.5 11.45 20.25 L10.8 22.25 Q9.3 27.45 8.5 33.75 8.0 37.45 7.75 41.55 L9.45 54.85 M13.95 14.1 L14.55 12.85 14.65 12.6 M11.65 31.6 Q11.2 28.8 11.2 26.65 L11.25 23.4 11.45 20.25 M12.65 36.5 Q12.95 38.25 13.5 39.7 14.3 42.65 15.45 46.0 L17.25 51.3 17.85 52.9 18.55 54.75 18.6 54.85 M12.65 36.5 Q12.0 33.85 11.65 31.6 M-0.7 33.65 L0.3 34.5 0.4 34.55 M47.1 54.85 Q45.85 50.35 45.15 45.6 M-0.7 13.05 L-1.4 12.85 M-1.15 33.25 L-0.7 33.65 M-1.4 33.0 L-1.15 33.25" fill="none" stroke="#6d54e5" stroke-linecap="round" stroke-linejoin="round" stroke-width="1.0"/>
      <path d="M44.05 28.4 L42.4 29.8 M47.5 22.45 L44.9 27.65 44.05 28.4 M18.3 47.85 L20.65 49.2 23.05 50.45 25.8 51.8 26.7 51.2 Q32.55 47.3 36.9 41.9 L37.55 41.05 37.7 34.5 M18.3 47.85 L15.45 46.0" fill="none" stroke="#7946db" stroke-linecap="round" stroke-linejoin="round" stroke-width="1.0"/>
      <path d="M44.45 -0.85 L44.45 -0.6 45.2 8.95 45.25 10.2 41.3 17.3 36.3 24.9 M44.45 -1.0 L44.45 -0.85 M20.9 -1.0 L20.85 0.05" fill="none" stroke="#2a2b64" stroke-linecap="round" stroke-linejoin="round" stroke-width="1.0"/>
    </g>
    <linearGradient gradientTransform="matrix(-0.2016, 0.1322, 0.1168, 0.2531, -93.05, 29.55)" gradientUnits="userSpaceOnUse" id="gradient0" spreadMethod="pad" x1="-819.2" x2="819.2">
      <stop offset="0.0" stop-color="#1b2c91"/>
      <stop offset="1.0" stop-color="#536be9"/>
    </linearGradient>
    <linearGradient gradientTransform="matrix(0.065, -0.1422, 0.0808, 0.0369, 7.05, 148.45)" gradientUnits="userSpaceOnUse" id="gradient1" spreadMethod="pad" x1="-819.2" x2="819.2">
      <stop offset="0.0" stop-color="#6c7ea8"/>
      <stop offset="1.0" stop-color="#4191ff"/>
    </linearGradient>
    <linearGradient gradientTransform="matrix(0.0289, -0.0452, -0.0388, -0.0248, -34.0, 120.0)" gradientUnits="userSpaceOnUse" id="gradient2" spreadMethod="pad" x1="-819.2" x2="819.2">
      <stop offset="0.0" stop-color="#6c7ea8"/>
      <stop offset="1.0" stop-color="#41b0ff"/>
    </linearGradient>
    <linearGradient gradientTransform="matrix(0.1012, 0.1033, 0.0194, -0.019, 138.15, 167.3)" gradientUnits="userSpaceOnUse" id="gradient3" spreadMethod="pad" x1="-819.2" x2="819.2">
      <stop offset="0.0" stop-color="#d0fbff"/>
      <stop offset="1.0" stop-color="#83e9f3"/>
    </linearGradient>
    <linearGradient gradientTransform="matrix(-0.0159, 0.1094, -0.0583, -0.0085, -27.2, 102.95)" gradientUnits="userSpaceOnUse" id="gradient4" spreadMethod="pad" x1="-819.2" x2="819.2">
      <stop offset="0.0" stop-color="#d0fbff"/>
      <stop offset="1.0" stop-color="#83b2f3"/>
    </linearGradient>
    <linearGradient gradientTransform="matrix(-0.0134, 0.1124, -0.0221, -0.0026, -13.7, 183.3)" gradientUnits="userSpaceOnUse" id="gradient5" spreadMethod="pad" x1="-819.2" x2="819.2">
      <stop offset="0.0" stop-color="#d0fbff"/>
      <stop offset="1.0" stop-color="#83caf3"/>
    </linearGradient>
    <g id="shape2" transform="matrix(1.0, 0.0, 0.0, 1.0, 0.0, 0.0)">
      <path d="M50.5 0.0 Q53.95 0.0 53.95 3.3 L53.95 50.15 Q53.95 53.4 50.5 53.4 L3.3 53.4 Q0.0 53.4 0.0 50.15 L0.0 3.3 Q0.0 0.0 3.3 0.0 L50.5 0.0" fill="#000000" fill-opacity="0.003921569" fill-rule="evenodd" stroke="none"/>
    </g>
  </defs>
</svg>
