<?xml version="1.0" encoding="UTF-8" standalone="no"?>
<svg xmlns:ffdec="https://www.free-decompiler.com/flash" xmlns:xlink="http://www.w3.org/1999/xlink" ffdec:objectType="frame" height="54.0px" width="54.9px" xmlns="http://www.w3.org/2000/svg">
  <g transform="matrix(1.0, 0.0, 0.0, 1.0, 0.0, 0.0)">
    <clipPath id="clipPath0" transform="matrix(1.0, 0.0, 0.0, 1.0, 0.0, 0.0)">
      <path d="M50.5 0.0 Q53.95 0.0 53.95 3.3 L53.95 50.15 Q53.95 53.4 50.5 53.4 L3.3 53.4 Q0.0 53.4 0.0 50.15 L0.0 3.3 Q0.0 0.0 3.3 0.0 L50.5 0.0" fill="#000000" fill-rule="evenodd" stroke="none"/>
    </clipPath>
    <g clip-path="url(#clipPath0)">
      <use ffdec:characterId="2399" height="53.95" transform="matrix(1.0, 0.0, 0.0, 1.0, 0.05, 0.05)" width="54.85" xlink:href="#shape1"/>
    </g>
    <use ffdec:characterId="2400" height="53.4" transform="matrix(1.0, 0.0, 0.0, 1.0, 0.0, 0.0)" width="53.95" xlink:href="#shape2"/>
  </g>
  <defs>
    <g id="shape1" transform="matrix(1.0, 0.0, 0.0, 1.0, -0.05, -0.05)">
      <path d="M36.9 5.65 L36.4 5.25 36.05 4.95 36.25 4.85 36.6 4.45 37.05 4.05 37.6 4.7 37.8 4.9 37.4 5.25 36.9 5.65" fill="#ceffff" fill-rule="evenodd" stroke="none"/>
      <path d="M43.05 27.75 L43.2 27.3 43.25 27.2 43.45 27.1 43.85 26.9 44.15 26.75 44.15 26.9 44.15 27.05 44.2 27.85 44.25 28.15 44.35 28.65 44.25 29.35 43.35 28.75 42.75 28.35 43.05 27.75" fill="#d6ffff" fill-rule="evenodd" stroke="none"/>
      <path d="M54.9 8.15 L54.9 9.45 54.85 9.4 54.35 8.9 52.45 7.3 51.6 6.65 51.95 6.25 52.75 6.65 52.8 6.7 53.2 6.9 Q53.95 7.3 54.9 8.15 M43.75 30.8 L43.85 30.6 43.85 30.45 44.25 29.35 44.35 28.65 44.25 28.15 45.55 29.15 45.75 29.3 45.4 30.2 45.25 30.5 45.15 30.75 44.55 31.6 44.45 31.5 43.75 30.8" fill="#b0ffff" fill-rule="evenodd" stroke="none"/>
      <path d="M26.55 11.4 L26.7 12.0 24.1 12.55 24.05 12.55 23.85 12.65 Q22.95 12.9 22.5 13.2 L22.5 13.15 22.2 12.55 22.05 12.25 21.55 11.65 21.55 11.6 22.0 10.65 23.0 12.15 24.05 11.85 24.4 11.75 25.45 11.55 26.55 11.4" fill="#adffff" fill-rule="evenodd" stroke="none"/>
      <path d="M7.5 0.05 L9.4 0.05 9.55 0.2 8.85 1.0 8.75 1.15 8.65 1.35 8.45 1.15 8.35 1.05 7.5 0.05 M45.85 20.05 L45.95 20.3 45.95 20.45 45.65 20.7 45.35 20.9 45.15 20.1 45.25 20.1 45.45 20.05 45.85 20.05 M33.25 35.4 L33.4 35.4 33.7 35.35 35.05 35.0 35.15 34.95 35.65 34.85 35.7 34.95 35.8 35.5 36.05 36.1 36.8 36.0 36.9 37.2 35.5 37.35 35.4 37.35 34.8 36.05 33.4 36.4 33.35 35.95 33.25 35.4" fill="#e4ffff" fill-rule="evenodd" stroke="none"/>
      <path d="M40.4 13.15 L40.4 13.2 40.3 13.35 39.6 15.3 40.1 16.0 40.5 16.55 40.2 17.25 39.55 16.55 38.35 15.35 38.55 15.15 39.0 14.35 39.4 13.6 39.75 12.65 40.4 13.15 M15.25 18.0 L15.45 19.15 14.85 19.05 14.45 19.05 14.3 18.45 14.15 17.95 15.25 18.0" fill="#b8ffff" fill-rule="evenodd" stroke="none"/>
      <path d="M14.15 17.95 L14.3 18.45 14.45 19.05 13.05 19.05 12.55 19.65 12.35 20.1 11.5 19.5 11.55 19.5 11.75 18.85 12.05 18.1 13.65 17.95 13.85 17.95 14.15 17.95" fill="#d1ffff" fill-rule="evenodd" stroke="none"/>
      <path d="M54.9 24.55 L54.9 25.4 54.7 25.85 54.2 24.35 53.45 22.3 52.95 21.1 52.8 20.7 52.2 19.5 52.2 19.45 52.25 18.5 52.25 18.35 52.3 18.05 52.45 18.3 52.5 18.5 53.5 20.75 53.65 20.95 54.15 22.25 54.8 24.15 54.9 24.55 M17.55 33.7 L18.55 32.8 19.0 33.05 19.15 33.15 20.15 33.65 20.4 33.75 20.3 34.5 20.15 34.45 18.75 34.0 18.35 33.85 18.05 34.15 17.85 34.35 17.8 34.25 17.8 34.2 17.55 33.7" fill="#c6ffff" fill-rule="evenodd" stroke="none"/>
      <path d="M48.2 12.6 L48.5 11.65 48.9 12.25 49.45 13.0 50.45 14.6 50.45 14.7 51.2 15.95 51.35 16.25 52.15 17.7 52.3 18.05 52.25 18.35 52.25 18.5 52.2 19.45 51.75 18.6 51.3 17.7 50.55 16.3 50.0 15.4 48.75 13.35 48.2 12.6" fill="#eaffff" fill-rule="evenodd" stroke="none"/>
      <path d="M11.8 24.0 L11.8 23.5 11.8 22.8 12.9 23.1 12.65 24.15 12.25 24.05 11.8 24.0" fill="#abffff" fill-rule="evenodd" stroke="none"/>
      <path d="M43.5 21.9 Q43.85 21.75 44.3 21.55 L44.75 22.25 44.4 22.5 44.3 23.45 44.25 24.05 44.25 24.35 43.5 24.25 43.4 23.5 43.35 23.2 43.2 22.05 43.5 21.9 M33.4 12.6 L33.5 12.15 33.55 11.85 33.6 11.55 34.3 11.65 34.95 11.75 36.05 10.85 36.55 10.4 36.65 10.65 36.75 11.0 36.1 11.6 34.9 12.9 34.8 13.05 33.4 12.6 M19.75 15.15 L19.85 15.25 19.15 15.65 18.4 16.25 17.75 15.55 18.5 14.5 18.4 14.35 18.3 14.15 17.9 13.45 18.6 12.95 19.05 13.9 19.15 14.05 19.75 15.15" fill="#ddffff" fill-rule="evenodd" stroke="none"/>
      <path d="M26.9 45.6 L25.45 44.2 25.35 43.6 25.3 43.15 25.35 43.05 25.35 43.0 25.45 43.1 25.65 43.2 28.1 45.3 28.15 45.35 28.8 45.9 28.65 46.4 28.6 46.4 28.35 47.25 27.4 46.15 27.15 45.9 26.9 45.6 M32.4 35.55 L33.25 35.4 33.35 35.95 33.4 36.4 33.3 36.45 32.65 36.5 32.45 36.55 29.85 36.9 29.15 36.9 28.65 35.95 29.55 35.9 32.4 35.55" fill="#b3ffff" fill-rule="evenodd" stroke="none"/>
      <path d="M0.55 31.2 L1.6 31.8 2.15 32.1 2.3 32.2 2.75 33.4 2.15 33.05 1.15 32.45 0.6 31.5 0.35 31.05 0.55 31.2" fill="#fffdff" fill-rule="evenodd" stroke="none"/>
      <path d="M41.6 36.9 L41.8 37.45 42.3 39.3 42.35 39.45 38.55 42.3 Q37.65 43.05 36.7 43.9 L36.65 43.95 36.65 44.0 34.85 45.7 34.7 45.85 34.8 45.7 35.3 44.3 35.35 44.1 35.65 42.05 35.65 40.85 35.55 40.3 35.5 40.0 35.9 39.9 Q38.1 39.15 39.95 38.05 L40.95 37.45 41.6 36.9" fill="#20b8ff" fill-rule="evenodd" stroke="none"/>
      <path d="M0.05 40.15 L0.05 31.9 0.55 32.2 1.15 32.45 2.15 33.05 2.75 33.4 2.9 33.45 3.35 33.7 4.7 34.4 7.3 35.6 8.85 36.25 9.45 36.55 4.1 38.45 1.95 39.3 0.05 40.15 M34.9 6.0 Q32.9 7.6 31.05 8.4 L30.8 8.5 30.45 8.65 30.05 8.65 26.5 8.4 24.35 8.05 23.35 7.85 27.0 5.4 34.9 6.0" fill="#1fe1fd" fill-rule="evenodd" stroke="none"/>
      <path d="M54.9 44.2 L54.9 48.65 54.7 49.35 54.9 48.85 54.9 49.45 52.45 49.6 45.95 50.4 41.3 51.3 38.3 52.0 37.55 52.15 Q37.3 51.05 37.2 49.75 37.05 48.1 37.3 46.75 L36.85 44.8 37.1 44.5 37.05 44.45 36.75 43.95 40.6 43.55 Q41.45 43.45 46.05 43.65 L47.95 43.75 54.9 44.2" fill="#098cf8" fill-rule="evenodd" stroke="none"/>
      <path d="M10.65 51.35 L8.0 46.45 7.6 45.65 Q9.55 44.6 11.85 43.6 L13.85 42.8 Q17.7 41.25 21.55 40.2 L23.5 41.55 25.05 42.75 25.35 43.0 25.35 43.05 25.3 43.15 25.35 43.6 25.45 44.2 26.9 45.6 Q22.45 46.6 18.35 48.05 13.45 49.7 10.75 51.3 L10.65 51.35" fill="#11a4ff" fill-rule="evenodd" stroke="none"/>
      <path d="M3.2 54.0 L2.3 54.0 1.75 53.7 1.45 53.5 3.2 54.0 M1.75 54.0 L0.05 54.0 0.05 53.4 1.2 53.8 1.75 54.0" fill="#24d7ff" fill-rule="evenodd" stroke="none"/>
      <path d="M36.75 5.8 L36.35 6.2 36.15 6.3 35.9 6.5 31.75 9.45 31.3 8.8 31.05 8.4 Q32.9 7.6 34.9 6.0 L35.3 5.65 35.65 5.4 36.05 4.95 36.4 5.25 36.9 5.65 36.75 5.8" fill="#9fffff" fill-rule="evenodd" stroke="none"/>
      <path d="M40.45 0.05 L40.75 0.05 41.05 0.2 41.2 0.25 41.65 0.45 41.6 0.55 41.4 0.85 40.95 1.5 40.1 2.6 39.9 2.8 39.75 2.55 39.7 2.45 39.35 1.95 39.15 1.7 39.25 1.55 39.55 1.25 40.1 0.55 40.1 0.5 40.4 0.1 40.45 0.05" fill="#f7f9ff" fill-rule="evenodd" stroke="none"/>
      <path d="M43.1 2.95 L42.95 3.35 42.3 4.9 42.05 5.55 41.8 5.4 Q40.3 4.55 38.75 4.1 L38.7 4.05 38.8 4.0 39.0 3.8 39.9 2.8 40.1 2.6 43.1 2.95" fill="#1dd4f4" fill-rule="evenodd" stroke="none"/>
      <path d="M39.9 2.8 L39.0 3.8 38.85 3.7 38.6 3.45 38.15 2.9 38.35 2.65 38.45 2.6 39.15 1.7 39.35 1.95 39.7 2.45 39.75 2.55 39.9 2.8" fill="#b2f3f7" fill-rule="evenodd" stroke="none"/>
      <path d="M39.0 3.8 L38.8 4.0 38.7 4.05 37.95 4.75 37.8 4.9 37.6 4.7 37.05 4.05 37.1 3.95 37.35 3.7 38.15 2.9 38.6 3.45 38.85 3.7 39.0 3.8 M28.35 47.25 L28.6 46.4 28.65 46.4 28.8 45.9 30.2 47.25 30.55 47.65 30.35 48.05 30.35 48.1 30.25 48.3 30.0 48.35 29.35 48.4 29.1 48.1 28.35 47.25" fill="#f3feff" fill-rule="evenodd" stroke="none"/>
      <path d="M41.2 6.1 L40.5 6.8 Q39.35 6.0 38.3 5.55 L38.0 5.4 37.4 5.25 37.8 4.9 37.95 4.75 38.45 4.95 40.1 5.55 41.2 6.1" fill="#10dfff" fill-rule="evenodd" stroke="none"/>
      <path d="M40.5 6.8 L40.65 6.9 42.2 8.05 42.7 8.45 43.6 9.25 44.05 9.65 43.8 10.55 42.8 9.7 41.35 8.5 Q39.8 7.35 38.25 6.45 L38.15 6.4 38.0 6.35 36.75 5.8 36.9 5.65 37.4 5.25 38.0 5.4 38.3 5.55 Q39.35 6.0 40.5 6.8" fill="#b9ffff" fill-rule="evenodd" stroke="none"/>
      <path d="M38.7 4.05 L38.75 4.1 Q40.3 4.55 41.8 5.4 L42.05 5.55 42.8 6.0 42.75 7.05 41.65 6.35 41.2 6.1 40.1 5.55 38.45 4.95 37.95 4.75 38.7 4.05" fill="#8cfaff" fill-rule="evenodd" stroke="none"/>
      <path d="M48.75 0.05 L52.2 0.05 51.95 0.3 51.2 1.2 48.75 0.05" fill="#0a9eff" fill-rule="evenodd" stroke="none"/>
      <path d="M42.75 0.05 L47.15 0.05 46.95 0.85 45.0 0.35 43.75 0.2 42.75 0.05" fill="#13a4fd" fill-rule="evenodd" stroke="none"/>
      <path d="M47.15 0.05 L48.75 0.05 51.2 1.2 51.25 1.2 52.15 1.75 51.5 2.85 50.9 2.45 50.3 2.2 49.9 1.95 48.3 1.2 47.75 1.05 47.1 0.9 46.95 0.85 47.15 0.05" fill="#0e9df9" fill-rule="evenodd" stroke="none"/>
      <path d="M47.75 1.05 L47.65 1.9 47.6 2.0 46.75 1.7 46.1 1.5 46.05 1.5 45.95 1.5 44.5 1.05 44.45 1.05 44.15 1.0 43.7 0.9 43.75 0.55 43.75 0.2 45.0 0.35 46.95 0.85 47.1 0.9 47.75 1.05" fill="#6cebff" fill-rule="evenodd" stroke="none"/>
      <path d="M40.75 0.05 L41.9 0.05 41.7 0.35 41.65 0.45 41.2 0.25 41.05 0.2 40.75 0.05 M48.5 4.35 L49.2 4.7 50.65 5.55 51.4 5.95 51.95 6.25 51.6 6.65 50.85 6.15 50.35 5.85 49.5 5.4 49.25 5.25 Q48.8 4.95 48.4 4.8 L48.45 4.65 48.5 4.35 M49.75 17.65 L50.2 17.55 50.3 17.8 50.95 19.0 51.1 19.35 51.55 20.6 52.15 22.5 52.3 22.95 52.8 24.75 52.8 24.9 52.5 24.85 52.1 24.8 52.0 24.45 51.55 22.55 50.95 20.45 50.45 19.2 50.4 19.0 49.85 17.85 49.75 17.65" fill="#deffff" fill-rule="evenodd" stroke="none"/>
      <path d="M41.9 0.05 L42.75 0.05 43.75 0.2 43.75 0.55 43.7 0.9 43.65 0.85 43.6 0.85 41.6 0.55 41.65 0.45 41.7 0.35 41.9 0.05" fill="#b0f9ff" fill-rule="evenodd" stroke="none"/>
      <path d="M43.7 0.9 L44.15 1.0 44.45 1.05 44.5 1.05 44.35 1.3 44.2 1.55 43.85 2.2 43.45 2.05 43.4 2.05 40.95 1.5 41.4 0.85 41.6 0.55 43.6 0.85 43.65 0.85 43.7 0.9" fill="#0fc5ff" fill-rule="evenodd" stroke="none"/>
      <path d="M40.95 1.5 L43.4 2.05 43.45 2.05 43.4 3.0 43.1 2.95 40.1 2.6 40.95 1.5 M2.25 20.6 L2.35 20.6 2.6 20.5 3.15 20.3 3.2 20.3 3.7 20.2 3.6 20.3 3.35 20.95 3.25 21.1 1.95 21.55 1.9 21.6 2.25 20.6 M37.75 36.95 L37.3 37.05 36.9 37.2 36.8 36.0 37.3 35.95 38.25 35.8 38.75 35.55 38.65 34.75 38.55 34.4 39.55 34.25 39.55 34.3 39.8 34.7 39.95 34.95 40.2 35.45 40.3 35.65 39.5 36.2 38.8 36.6 38.3 36.8 37.75 36.95" fill="#c5ffff" fill-rule="evenodd" stroke="none"/>
      <path d="M45.05 3.45 L44.05 5.15 44.9 5.8 Q45.15 5.95 45.4 6.2 L46.75 7.5 46.3 7.95 46.15 8.15 45.85 8.5 45.6 8.25 45.2 7.9 44.15 6.95 42.8 6.0 42.05 5.55 42.3 4.9 42.95 3.35 43.1 2.95 43.4 3.0 43.6 3.05 45.05 3.45" fill="#1ec8ff" fill-rule="evenodd" stroke="none"/>
      <path d="M47.6 3.85 L48.35 4.25 48.5 4.35 48.45 4.65 48.4 4.8 47.9 4.55 47.2 4.25 45.05 3.45 43.6 3.05 43.4 3.0 43.45 2.05 43.85 2.2 45.45 2.75 46.95 3.5 47.6 3.85" fill="#7cf8ff" fill-rule="evenodd" stroke="none"/>
      <path d="M47.6 2.0 L49.0 2.6 48.75 2.8 48.6 2.9 48.45 3.0 47.6 3.85 46.95 3.5 45.45 2.75 43.85 2.2 44.2 1.55 44.35 1.3 44.5 1.05 45.95 1.5 46.05 1.5 46.1 1.5 46.75 1.7 47.6 2.0" fill="#18bef8" fill-rule="evenodd" stroke="none"/>
      <path d="M49.25 5.25 L49.4 6.9 49.45 7.6 49.0 7.3 46.3 5.65 45.7 5.3 45.2 5.6 Q45.0 5.65 44.9 5.8 L44.05 5.15 45.05 3.45 47.2 4.25 47.9 4.55 48.4 4.8 Q48.8 4.95 49.25 5.25" fill="#1fccf7" fill-rule="evenodd" stroke="none"/>
      <path d="M54.1 0.05 L54.9 0.05 54.9 0.8 54.1 0.05" fill="#0084f9" fill-rule="evenodd" stroke="none"/>
      <path d="M54.1 0.05 L54.9 0.8 54.9 3.75 52.15 1.75 51.25 1.2 51.2 1.2 51.95 0.3 52.2 0.05 54.1 0.05" fill="#089bfb" fill-rule="evenodd" stroke="none"/>
      <path d="M51.5 2.85 L51.75 3.0 Q52.6 3.45 53.25 3.85 L53.2 4.15 53.0 4.85 Q52.1 4.15 51.05 3.6 L50.7 3.4 49.0 2.6 47.6 2.0 47.65 1.9 47.75 1.05 48.3 1.2 49.9 1.95 50.3 2.2 50.9 2.45 51.5 2.85" fill="#6be4ff" fill-rule="evenodd" stroke="none"/>
      <path d="M49.0 2.6 L50.7 3.4 51.05 3.6 Q52.1 4.15 53.0 4.85 L53.5 5.25 53.55 5.3 53.5 5.35 52.25 5.65 52.2 5.65 51.4 5.95 50.65 5.55 49.2 4.7 48.5 4.35 48.35 4.25 47.6 3.85 48.45 3.0 48.6 2.9 48.75 2.8 49.0 2.6" fill="#15c9ff" fill-rule="evenodd" stroke="none"/>
      <path d="M51.6 6.65 L52.45 7.3 54.35 8.9 54.85 9.4 54.15 9.5 53.6 9.6 52.55 9.9 51.5 9.1 49.45 7.6 49.4 6.9 49.25 5.25 49.5 5.4 50.35 5.85 50.85 6.15 51.6 6.65" fill="#0ad8f0" fill-rule="evenodd" stroke="none"/>
      <path d="M54.9 3.75 L54.9 5.1 54.8 5.0 54.75 4.95 54.55 4.8 54.05 4.4 53.25 3.85 Q52.6 3.45 51.75 3.0 L51.5 2.85 52.15 1.75 54.9 3.75" fill="#109eff" fill-rule="evenodd" stroke="none"/>
      <path d="M54.9 5.1 L54.9 6.4 54.05 5.65 53.6 5.3 53.55 5.3 53.5 5.25 53.0 4.85 53.2 4.15 53.25 3.85 54.05 4.4 54.55 4.8 54.75 4.95 54.8 5.0 54.9 5.1" fill="#beffff" fill-rule="evenodd" stroke="none"/>
      <path d="M54.9 6.4 L54.9 8.15 Q53.95 7.3 53.2 6.9 L52.8 6.7 52.75 6.65 51.95 6.25 51.4 5.95 52.2 5.65 52.25 5.65 53.5 5.35 53.55 5.3 53.6 5.3 54.05 5.65 54.9 6.4" fill="#20d7f6" fill-rule="evenodd" stroke="none"/>
      <path d="M0.05 0.4 L0.05 0.05 1.25 0.05 0.05 0.4" fill="#15b3f0" fill-rule="evenodd" stroke="none"/>
      <path d="M0.05 2.1 L0.05 1.1 2.5 0.5 3.55 0.25 4.25 0.1 4.5 0.05 7.5 0.05 8.35 1.05 8.45 1.15 8.2 1.15 5.1 1.3 4.55 1.35 3.7 1.45 3.5 1.5 2.7 1.6 1.95 1.7 1.35 1.8 0.05 2.1" fill="#34c8ff" fill-rule="evenodd" stroke="none"/>
      <path d="M0.05 1.1 L0.05 0.4 1.25 0.05 4.3 0.05 4.25 0.1 3.55 0.25 2.5 0.5 0.05 1.1" fill="#27ccfc" fill-rule="evenodd" stroke="none"/>
      <path d="M0.05 2.8 L0.05 2.1 1.35 1.8 1.95 1.7 Q0.95 2.2 0.05 2.8" fill="#12aefb" fill-rule="evenodd" stroke="none"/>
      <path d="M0.05 5.7 L0.05 2.8 Q0.95 2.2 1.95 1.7 L2.7 1.6 3.5 1.8 4.15 2.05 6.25 3.55 Q6.9 4.25 7.35 5.05 L6.3 6.15 5.65 6.9 3.95 9.0 3.15 8.1 2.55 7.5 1.5 6.55 0.05 5.7" fill="#0daafb" fill-rule="evenodd" stroke="none"/>
      <path d="M18.4 16.25 L17.35 17.4 17.35 17.45 16.65 18.6 16.65 18.8 16.45 19.35 15.65 19.2 15.45 19.15 15.25 18.0 15.75 18.05 16.25 18.1 16.4 18.1 16.6 17.65 17.7 15.6 17.75 15.55 18.4 16.25 M9.55 0.2 L10.25 0.95 10.55 1.25 10.95 1.75 12.2 2.9 12.7 3.3 12.0 4.1 11.3 3.6 10.0 2.55 8.65 1.35 8.75 1.15 8.85 1.0 9.55 0.2" fill="#bbffff" fill-rule="evenodd" stroke="none"/>
      <path d="M4.3 0.05 L4.5 0.05 4.25 0.1 4.3 0.05" fill="#099aed" fill-rule="evenodd" stroke="none"/>
      <path d="M8.65 1.35 L10.0 2.55 7.35 5.05 Q6.9 4.25 6.25 3.55 L4.15 2.05 3.5 1.8 2.7 1.6 3.5 1.5 3.7 1.45 4.55 1.35 5.1 1.3 8.2 1.15 8.45 1.15 8.65 1.35" fill="#10a9f7" fill-rule="evenodd" stroke="none"/>
      <path d="M11.3 3.6 L9.1 5.55 8.05 6.5 8.0 6.55 7.9 6.65 6.9 7.65 6.55 6.8 6.3 6.15 7.35 5.05 10.0 2.55 11.3 3.6" fill="#1ed5e7" fill-rule="evenodd" stroke="none"/>
      <path d="M12.0 4.1 L12.7 4.55 11.3 5.65 10.6 6.2 8.75 7.75 8.1 8.4 8.0 8.3 6.95 7.9 6.7 7.9 6.9 7.65 7.9 6.65 8.0 6.55 8.05 6.5 9.1 5.55 11.3 3.6 12.0 4.1 M11.85 22.3 L11.8 22.8 11.8 23.5 11.8 24.0 11.5 23.95 11.4 23.95 10.75 23.85 10.65 23.85 10.8 22.7 10.85 22.5 11.75 22.3 11.85 22.3" fill="#c3ffff" fill-rule="evenodd" stroke="none"/>
      <path d="M12.7 3.3 L13.6 4.0 13.8 4.15 15.0 4.9 15.4 5.1 16.5 5.65 17.9 6.25 17.8 7.1 14.9 5.8 14.85 5.75 14.7 5.65 14.3 5.5 13.1 4.85 12.7 4.55 12.0 4.1 12.7 3.3" fill="#97faff" fill-rule="evenodd" stroke="none"/>
      <path d="M12.7 4.55 L13.1 4.85 11.9 6.05 11.15 6.9 10.15 7.9 9.35 8.9 9.2 8.65 8.8 7.85 8.75 7.75 10.6 6.2 11.3 5.65 12.7 4.55" fill="#2ee5ff" fill-rule="evenodd" stroke="none"/>
      <path d="M39.05 9.65 L39.4 9.9 39.05 10.4 38.9 10.65 38.0 10.25 37.85 10.4 37.45 10.55 36.75 11.0 36.65 10.65 36.55 10.4 36.8 10.15 Q37.2 9.85 37.55 9.65 L38.3 9.1 39.05 9.65 M44.4 17.55 L44.95 17.35 45.75 19.8 45.85 20.05 45.45 20.05 45.25 20.1 45.15 20.1 45.15 20.05 44.95 19.6 44.9 19.6 44.0 18.5 Q43.65 18.6 43.25 18.85 L43.15 18.1 43.3 18.0 44.4 17.55 M13.1 4.85 L14.3 5.5 14.2 5.55 13.95 5.8 11.2 8.6 10.4 8.05 10.15 7.9 11.15 6.9 11.9 6.05 13.1 4.85" fill="#d4ffff" fill-rule="evenodd" stroke="none"/>
      <path d="M31.05 8.4 L31.3 8.8 31.75 9.45 30.9 10.0 30.55 10.0 26.3 9.65 26.45 8.85 26.5 8.4 30.05 8.65 30.45 8.65 30.8 8.5 31.05 8.4" fill="#9cffff" fill-rule="evenodd" stroke="none"/>
      <path d="M35.9 6.5 L37.25 8.9 37.55 9.65 Q37.2 9.85 36.8 10.15 L36.55 10.4 36.05 10.85 33.6 11.55 33.55 11.55 32.85 11.45 31.85 11.4 31.05 11.25 30.55 10.0 30.9 10.0 31.75 9.45 35.9 6.5" fill="#2accfb" fill-rule="evenodd" stroke="none"/>
      <path d="M26.3 9.65 L24.5 9.3 24.2 9.2 23.7 9.1 23.55 9.05 22.2 8.65 20.6 8.15 17.8 7.1 17.9 6.25 21.7 7.4 23.3 7.8 23.35 7.85 24.35 8.05 26.5 8.4 26.45 8.85 26.3 9.65" fill="#9ef9ff" fill-rule="evenodd" stroke="none"/>
      <path d="M22.5 15.1 L24.4 13.8 26.2 13.6 27.45 13.55 30.05 13.6 30.2 16.35 27.6 16.15 26.5 16.25 26.0 16.55 Q25.35 16.85 24.65 17.25 L23.2 18.15 23.45 17.9 23.5 17.85 Q23.2 17.55 22.95 16.7 L22.8 16.15 22.5 15.1" fill="#46ffff" fill-rule="evenodd" stroke="none"/>
      <path d="M26.7 12.0 L28.5 11.9 31.15 12.1 31.4 12.15 32.75 12.4 32.55 13.95 30.35 13.65 30.05 13.6 27.45 13.55 26.2 13.6 24.4 13.8 22.5 15.1 21.35 15.9 Q19.5 17.2 18.6 19.85 L18.55 20.2 17.8 19.6 16.65 18.8 16.65 18.6 17.35 17.45 17.35 17.4 18.4 16.25 19.15 15.65 19.85 15.25 19.75 15.15 21.9 13.45 22.4 13.15 22.5 13.15 22.5 13.2 Q22.95 12.9 23.85 12.65 L24.05 12.55 24.1 12.55 26.7 12.0" fill="#28ebff" fill-rule="evenodd" stroke="none"/>
      <path d="M31.05 11.25 L30.2 11.25 26.55 11.4 25.45 11.55 24.4 11.75 24.05 11.85 24.2 9.2 24.5 9.3 26.3 9.65 30.55 10.0 31.05 11.25" fill="#1ecff9" fill-rule="evenodd" stroke="none"/>
      <path d="M32.75 12.4 L31.4 12.15 31.15 12.1 28.5 11.9 26.7 12.0 26.55 11.4 30.2 11.25 31.05 11.25 31.85 11.4 32.85 11.45 33.55 11.55 33.6 11.55 33.55 11.85 33.5 12.15 33.4 12.6 32.75 12.4 M15.55 30.4 L15.4 30.6 15.0 31.5 15.25 31.85 15.75 32.7 15.4 33.55 14.7 32.5 14.0 31.35 14.4 30.65 14.85 30.0 15.45 30.35 15.55 30.4" fill="#97ffff" fill-rule="evenodd" stroke="none"/>
      <path d="M39.0 16.95 L36.35 19.1 Q35.5 18.2 34.15 17.6 32.7 16.85 31.05 16.55 L30.2 16.35 30.05 13.6 30.35 13.65 32.55 13.95 Q36.8 14.75 39.0 16.95" fill="#46f9fd" fill-rule="evenodd" stroke="none"/>
      <path d="M40.2 17.25 L40.75 17.9 41.15 18.6 40.25 18.65 39.0 16.95 Q36.8 14.75 32.55 13.95 L32.75 12.4 33.4 12.6 34.8 13.05 34.9 12.9 Q37.0 14.0 37.6 14.45 L38.55 15.15 38.35 15.35 39.55 16.55 40.2 17.25" fill="#32f0fe" fill-rule="evenodd" stroke="none"/>
      <path d="M24.2 9.2 L24.05 11.85 23.0 12.15 22.0 10.65 21.85 10.4 21.25 9.55 21.15 9.45 20.85 9.1 19.65 9.85 19.35 10.0 17.8 11.1 17.65 11.1 17.2 10.9 18.25 9.95 20.6 8.15 22.2 8.65 23.55 9.05 23.7 9.1 24.2 9.2" fill="#21c1fb" fill-rule="evenodd" stroke="none"/>
      <path d="M19.35 10.0 L19.65 9.85 20.85 9.1 21.15 9.45 21.25 9.55 21.85 10.4 22.0 10.65 21.55 11.6 20.6 10.6 19.7 10.9 19.55 10.55 19.35 10.0" fill="#f2ffff" fill-rule="evenodd" stroke="none"/>
      <path d="M20.6 8.15 L18.25 9.95 17.65 9.95 13.65 9.45 13.5 9.45 13.05 9.35 11.9 8.95 Q13.25 6.9 14.55 5.8 L14.7 5.65 14.85 5.75 14.9 5.8 17.8 7.1 20.6 8.15" fill="#16b0fa" fill-rule="evenodd" stroke="none"/>
      <path d="M22.5 13.15 L22.4 13.15 21.9 13.45 19.75 15.15 19.15 14.05 19.05 13.9 18.6 12.95 18.05 11.8 18.6 11.4 19.1 11.15 19.7 10.9 20.6 10.6 21.55 11.6 21.55 11.65 22.05 12.25 22.2 12.55 22.5 13.15" fill="#28d5ff" fill-rule="evenodd" stroke="none"/>
      <path d="M17.8 11.1 L19.35 10.0 19.55 10.55 19.7 10.9 19.1 11.15 18.6 11.4 18.05 11.8 18.6 12.95 17.9 13.45 17.2 12.3 16.85 11.9 17.8 11.1" fill="#b1fbff" fill-rule="evenodd" stroke="none"/>
      <path d="M17.2 10.9 L17.65 11.1 17.8 11.1 16.85 11.9 17.2 12.3 17.9 13.45 18.3 14.15 18.4 14.35 18.5 14.5 17.75 15.55 17.7 15.6 16.6 17.65 16.4 18.1 16.3 17.95 16.15 17.75 15.25 16.15 14.3 14.45 14.15 14.05 15.8 12.25 17.2 10.9" fill="#29c9ff" fill-rule="evenodd" stroke="none"/>
      <path d="M23.2 18.15 L24.65 17.25 Q25.35 16.85 26.0 16.55 L25.6 20.2 25.35 23.15 21.45 22.95 21.5 22.4 Q21.7 19.75 23.2 18.15" fill="#9bffff" fill-rule="evenodd" stroke="none"/>
      <path d="M18.55 20.2 L18.6 19.85 Q19.5 17.2 21.35 15.9 L22.5 15.1 22.8 16.15 22.95 16.7 Q23.2 17.55 23.5 17.85 L23.45 17.9 23.2 18.15 Q21.7 19.75 21.5 22.4 20.85 22.25 20.5 21.7 L20.15 21.15 18.55 20.2" fill="#4cf6ff" fill-rule="evenodd" stroke="none"/>
      <path d="M18.55 20.2 L20.15 21.15 20.5 21.7 Q20.85 22.25 21.5 22.4 L21.45 22.95 21.45 23.2 Q21.45 24.8 21.95 26.05 L21.15 26.2 21.1 26.2 20.2 26.05 18.5 26.9 Q18.05 25.4 18.05 23.65 L18.1 22.85 Q18.15 21.45 18.55 20.2" fill="#4bf2f8" fill-rule="evenodd" stroke="none"/>
      <path d="M16.65 18.8 L17.8 19.6 18.55 20.2 Q18.15 21.45 18.1 22.85 L18.05 23.65 Q18.05 25.4 18.5 26.9 L15.9 28.25 15.7 27.75 14.65 25.2 14.6 25.05 14.6 25.0 14.6 24.7 Q14.7 23.0 14.95 21.65 L15.4 19.9 15.65 19.2 16.45 19.35 16.65 18.8" fill="#28ecff" fill-rule="evenodd" stroke="none"/>
      <path d="M21.95 26.05 Q21.45 24.8 21.45 23.2 L21.45 22.95 25.35 23.15 25.05 27.45 Q26.1 28.25 26.95 30.0 25.1 29.65 23.8 28.55 L23.6 28.4 Q22.45 27.4 21.95 26.05" fill="#96fffe" fill-rule="evenodd" stroke="none"/>
      <path d="M26.0 16.55 L26.5 16.25 27.6 16.15 30.2 16.35 31.05 16.55 32.9 23.55 25.35 23.15 25.6 20.2 26.0 16.55" fill="#c2fcfd" fill-rule="evenodd" stroke="none"/>
      <path d="M18.25 9.95 L17.2 10.9 15.8 12.25 14.15 14.05 13.3 15.15 10.65 14.65 8.7 14.3 9.65 12.65 10.25 11.55 11.9 8.95 13.05 9.35 13.5 9.45 13.65 9.45 17.65 9.95 18.25 9.95" fill="#18b7fb" fill-rule="evenodd" stroke="none"/>
      <path d="M14.3 5.5 L14.7 5.65 14.55 5.8 Q13.25 6.9 11.9 8.95 L10.25 11.55 9.65 12.65 9.25 10.95 9.95 10.15 11.2 8.65 11.2 8.6 13.95 5.8 14.2 5.55 14.3 5.5" fill="#21d0fb" fill-rule="evenodd" stroke="none"/>
      <path d="M11.2 8.6 L11.2 8.65 9.95 10.15 9.25 10.95 8.6 11.8 7.05 11.9 Q7.9 10.6 8.9 9.4 L9.15 9.1 9.35 8.9 10.15 7.9 10.4 8.05 11.2 8.6" fill="#acffff" fill-rule="evenodd" stroke="none"/>
      <path d="M6.7 7.9 L6.95 7.9 8.0 8.3 8.1 8.4 7.95 8.5 7.4 9.05 5.35 11.4 4.75 12.15 4.55 12.5 3.15 12.1 3.4 11.65 4.7 10.1 6.7 7.9 M26.5 37.75 L26.15 38.15 25.85 38.5 24.9 38.3 24.6 38.2 24.3 38.15 24.9 37.65 25.3 37.3 25.4 37.2 25.65 36.9 26.5 37.75" fill="#81ffff" fill-rule="evenodd" stroke="none"/>
      <path d="M8.1 8.4 L8.75 7.75 8.8 7.85 9.2 8.65 9.35 8.9 9.15 9.1 8.9 9.4 Q7.9 10.6 7.05 11.9 L6.5 12.65 6.3 12.65 5.55 12.35 4.75 12.15 5.35 11.4 7.4 9.05 7.95 8.5 8.1 8.4" fill="#1bf1f9" fill-rule="evenodd" stroke="none"/>
      <path d="M6.9 7.65 L6.7 7.9 4.7 10.1 3.4 11.65 3.15 12.1 3.05 12.15 2.75 11.7 2.45 11.2 2.45 11.1 3.95 9.0 5.65 6.9 6.3 6.15 6.55 6.8 6.9 7.65" fill="#20d1ff" fill-rule="evenodd" stroke="none"/>
      <path d="M0.05 14.85 L0.05 5.7 1.5 6.55 2.55 7.5 3.15 8.1 3.95 9.0 2.45 11.1 2.45 11.2 1.2 13.15 0.2 14.9 0.05 14.85" fill="#16b4fd" fill-rule="evenodd" stroke="none"/>
      <path d="M52.8 24.9 L53.5 27.45 53.5 27.5 53.55 27.6 53.45 27.75 52.95 29.35 52.8 29.75 52.65 30.5 52.55 31.35 52.6 31.9 52.25 32.25 52.1 30.95 52.1 30.5 52.15 29.75 52.35 28.5 52.4 28.4 Q52.45 27.9 52.65 27.6 L52.65 27.55 52.1 24.95 52.1 24.8 52.5 24.85 52.8 24.9 M3.05 12.15 L3.15 12.1 4.55 12.5 4.15 12.9 3.95 13.3 Q3.15 14.35 2.5 15.55 L1.8 16.8 1.6 17.15 0.05 17.1 0.2 16.8 1.05 15.25 2.7 12.65 3.05 12.15" fill="#dcffff" fill-rule="evenodd" stroke="none"/>
      <path d="M4.75 12.15 L5.55 12.35 6.3 12.65 6.5 12.65 6.25 13.05 4.85 15.35 Q4.4 16.05 4.1 16.7 L4.1 16.75 4.0 16.75 1.8 16.8 2.5 15.55 Q3.15 14.35 3.95 13.3 L4.15 12.9 4.55 12.5 4.75 12.15" fill="#1aeff7" fill-rule="evenodd" stroke="none"/>
      <path d="M7.05 11.9 L8.6 11.8 7.9 12.8 7.25 12.9 6.25 13.05 6.5 12.65 7.05 11.9" fill="#e9fff6" fill-rule="evenodd" stroke="none"/>
      <path d="M9.25 10.95 L9.65 12.65 8.7 14.3 7.35 16.95 Q6.35 16.75 5.65 16.25 L7.05 14.0 7.2 13.8 7.75 13.0 7.9 12.8 8.6 11.8 9.25 10.95" fill="#59edff" fill-rule="evenodd" stroke="none"/>
      <path d="M4.1 16.75 L4.1 16.7 Q4.4 16.05 4.85 15.35 L6.25 13.05 7.25 12.9 7.9 12.8 7.75 13.0 7.2 13.8 7.05 14.0 5.65 16.25 5.4 16.7 3.7 20.2 3.2 20.3 3.15 20.3 2.6 20.5 2.35 20.6 2.25 20.6 2.4 20.3 3.55 17.8 4.1 16.75" fill="#a7ffff" fill-rule="evenodd" stroke="none"/>
      <path d="M0.05 24.15 L0.05 20.7 1.2 17.95 1.6 17.15 1.8 16.8 4.0 16.75 4.1 16.75 3.55 17.8 2.4 20.3 2.25 20.6 1.9 21.6 1.35 23.1 1.3 23.3 0.05 24.15" fill="#2fe2ff" fill-rule="evenodd" stroke="none"/>
      <path d="M5.65 16.25 Q6.35 16.75 7.35 16.95 L5.8 20.4 5.2 21.7 3.95 21.3 3.35 20.95 3.6 20.3 3.7 20.2 5.4 16.7 5.65 16.25" fill="#2ce3e7" fill-rule="evenodd" stroke="none"/>
      <path d="M3.35 20.95 L3.95 21.3 5.2 21.7 5.15 21.9 4.8 23.05 Q4.45 24.05 4.25 25.2 L4.0 26.3 2.7 25.9 2.45 25.75 2.35 25.75 1.95 25.5 2.15 24.55 2.3 24.05 2.85 22.3 3.25 21.1 3.35 20.95" fill="#14d9ff" fill-rule="evenodd" stroke="none"/>
      <path d="M5.2 21.7 L5.8 20.4 6.95 20.35 10.05 19.85 10.4 19.8 Q9.4 21.8 8.85 24.05 6.6 24.2 4.25 25.2 4.45 24.05 4.8 23.05 L5.15 21.9 5.2 21.7" fill="#1dbfff" fill-rule="evenodd" stroke="none"/>
      <path d="M7.35 16.95 L8.7 14.3 10.65 14.65 13.3 15.15 13.05 15.45 Q12.05 16.75 11.2 18.2 L10.4 19.8 10.05 19.85 6.95 20.35 5.8 20.4 7.35 16.95 M28.8 45.9 L32.65 45.3 31.8 47.25 31.75 47.25 31.0 47.25 30.2 47.25 28.8 45.9" fill="#1ebdff" fill-rule="evenodd" stroke="none"/>
      <path d="M15.45 19.15 L15.65 19.2 15.4 19.9 14.95 21.65 Q14.7 23.0 14.6 24.7 L14.6 25.0 14.5 24.75 14.15 23.4 12.9 23.1 11.8 22.8 11.85 22.3 12.15 20.6 12.35 20.1 12.55 19.65 13.05 19.05 14.45 19.05 14.85 19.05 15.45 19.15" fill="#21dbff" fill-rule="evenodd" stroke="none"/>
      <path d="M13.3 15.15 L14.15 14.05 14.3 14.45 15.25 16.15 16.15 17.75 16.3 17.95 16.4 18.1 16.25 18.1 15.75 18.05 15.25 18.0 14.15 17.95 13.85 17.95 13.65 17.95 12.05 18.1 11.75 18.85 11.2 18.2 Q12.05 16.75 13.05 15.45 L13.3 15.15" fill="#1ecaff" fill-rule="evenodd" stroke="none"/>
      <path d="M8.45 25.85 L8.65 24.9 8.85 24.1 8.85 24.05 Q9.4 21.8 10.4 19.8 L11.2 18.2 11.75 18.85 11.55 19.5 11.5 19.5 11.25 20.45 10.85 22.5 10.8 22.7 10.65 23.85 10.75 23.85 11.4 23.95 11.5 23.95 11.8 24.0 12.25 24.05 12.65 24.15 13.05 24.2 13.35 25.05 13.45 25.3 11.9 25.55 11.25 25.6 10.4 25.65 8.45 25.85" fill="#20d4f7" fill-rule="evenodd" stroke="none"/>
      <path d="M11.5 19.5 L12.35 20.1 12.15 20.6 11.85 22.3 11.75 22.3 10.85 22.5 11.25 20.45 11.5 19.5" fill="#78efff" fill-rule="evenodd" stroke="none"/>
      <path d="M12.9 23.1 L14.15 23.4 14.5 24.75 14.6 25.0 14.6 25.05 14.65 25.2 14.55 25.2 14.0 25.35 13.55 25.5 13.45 25.3 13.35 25.05 13.05 24.2 12.65 24.15 12.9 23.1" fill="#f3fcfb" fill-rule="evenodd" stroke="none"/>
      <path d="M15.9 28.25 L14.85 28.4 14.6 28.0 13.95 26.55 13.55 25.5 14.0 25.35 14.55 25.2 14.65 25.2 15.7 27.75 15.9 28.25" fill="#86fcff" fill-rule="evenodd" stroke="none"/>
      <path d="M16.1 29.55 L15.55 30.4 15.45 30.35 14.85 30.0 15.0 29.65 15.3 29.2 15.0 28.7 14.85 28.4 15.9 28.25 16.4 29.25 16.2 29.45 16.1 29.55" fill="#dbfcff" fill-rule="evenodd" stroke="none"/>
      <path d="M14.85 28.4 L15.0 28.7 15.3 29.2 15.0 29.65 14.95 29.65 13.45 29.5 13.25 29.45 12.8 29.8 12.5 30.1 12.05 30.5 11.9 30.15 11.2 28.5 Q10.55 26.85 10.4 25.65 L11.25 25.6 11.9 25.55 13.45 25.3 13.55 25.5 13.95 26.55 14.6 28.0 14.85 28.4" fill="#23e0fe" fill-rule="evenodd" stroke="none"/>
      <path d="M15.0 29.65 L14.85 30.0 14.4 30.65 14.0 31.35 14.7 32.5 14.2 33.1 13.85 33.55 12.05 30.5 12.5 30.1 12.8 29.8 13.25 29.45 13.45 29.5 14.95 29.65 15.0 29.65" fill="#28d5fd" fill-rule="evenodd" stroke="none"/>
      <path d="M13.85 33.55 L14.85 34.95 15.7 36.05 17.2 37.75 17.8 38.3 18.15 38.7 17.45 38.45 16.4 38.0 12.5 36.5 12.2 36.35 11.25 36.0 9.4 35.25 9.05 35.1 8.7 34.0 10.65 31.9 11.35 31.25 12.05 30.5 13.85 33.55" fill="#29c5fe" fill-rule="evenodd" stroke="none"/>
      <path d="M10.4 25.65 Q10.55 26.85 11.2 28.5 L11.9 30.15 12.05 30.5 11.35 31.25 10.65 31.9 8.7 34.0 8.3 31.5 8.15 29.5 Q8.15 27.65 8.45 25.85 L10.4 25.65" fill="#20c6ff" fill-rule="evenodd" stroke="none"/>
      <path d="M18.5 26.9 Q19.2 29.5 21.15 31.2 L21.35 31.4 21.75 31.75 21.25 33.45 21.1 34.0 20.4 33.75 20.15 33.65 19.15 33.15 19.0 33.05 18.05 32.1 17.9 32.0 16.1 29.55 16.2 29.45 16.4 29.25 15.9 28.25 18.5 26.9" fill="#2ae8ff" fill-rule="evenodd" stroke="none"/>
      <path d="M15.55 30.4 L16.1 29.55 17.9 32.0 18.05 32.1 19.0 33.05 18.55 32.8 17.55 33.7 16.95 34.25 16.65 33.85 15.9 32.85 15.75 32.7 15.25 31.85 15.0 31.5 15.4 30.6 15.55 30.4" fill="#2adef5" fill-rule="evenodd" stroke="none"/>
      <path d="M15.75 32.7 L15.9 32.85 16.65 33.85 16.95 34.25 17.55 33.7 17.8 34.2 17.8 34.25 17.85 34.35 17.65 34.6 16.9 35.65 16.6 35.25 16.15 34.7 16.1 34.65 15.4 33.65 15.4 33.55 15.75 32.7" fill="#e4feff" fill-rule="evenodd" stroke="none"/>
      <path d="M4.0 26.3 L4.25 25.2 Q6.6 24.2 8.85 24.05 L8.85 24.1 8.65 24.9 8.45 25.85 Q8.15 27.65 8.15 29.5 L8.3 31.5 7.65 31.05 Q5.9 30.1 3.8 29.55 L3.55 29.55 Q3.7 27.8 4.0 26.3" fill="#1dc2fc" fill-rule="evenodd" stroke="none"/>
      <path d="M1.95 25.5 L2.35 25.75 2.45 25.75 2.7 25.9 4.0 26.3 Q3.7 27.8 3.55 29.55 3.4 31.05 3.4 32.7 L3.0 32.5 3.0 32.2 Q3.0 31.0 2.65 29.75 L2.6 29.65 2.5 29.3 2.15 28.55 1.7 27.75 1.75 26.6 1.75 26.55 1.8 26.45 1.95 25.5" fill="#21c3ff" fill-rule="evenodd" stroke="none"/>
      <path d="M8.7 34.0 L9.05 35.1 8.15 34.75 8.15 34.7 3.4 32.7 Q3.4 31.05 3.55 29.55 L3.8 29.55 Q5.9 30.1 7.65 31.05 L8.3 31.5 8.7 34.0" fill="#1eb8ff" fill-rule="evenodd" stroke="none"/>
      <path d="M3.0 32.5 L3.4 32.7 8.15 34.7 8.15 34.75 8.65 35.95 8.85 36.25 7.3 35.6 4.7 34.4 3.35 33.7 2.9 33.45 2.75 33.4 2.3 32.2 3.0 32.5" fill="#99ebff" fill-rule="evenodd" stroke="none"/>
      <path d="M9.4 35.25 L11.25 36.0 12.2 36.35 12.5 36.5 16.4 38.0 17.45 38.45 18.15 38.7 20.6 39.7 20.85 39.7 21.2 40.0 19.2 39.6 15.7 39.0 15.4 38.9 14.85 38.8 13.05 38.05 10.1 36.8 9.4 35.25" fill="#a1f3ff" fill-rule="evenodd" stroke="none"/>
      <path d="M41.8 33.0 L41.2 32.3 41.1 32.35 40.3 32.75 39.15 33.5 39.55 34.25 38.55 34.4 38.55 34.25 38.15 33.25 39.05 32.45 39.1 32.45 39.2 32.4 39.25 32.35 39.9 31.8 40.65 31.35 41.0 31.05 42.05 31.75 41.8 33.0 M9.05 35.1 L9.4 35.25 10.1 36.8 9.65 36.65 9.45 36.55 8.85 36.25 8.65 35.95 8.15 34.75 9.05 35.1" fill="#c9ffff" fill-rule="evenodd" stroke="none"/>
      <path d="M14.7 32.5 L15.4 33.55 15.4 33.65 16.1 34.65 16.15 34.7 16.6 35.25 16.9 35.65 17.65 34.6 17.85 34.35 18.05 34.15 18.35 33.85 18.75 34.0 20.15 34.45 20.3 34.5 20.85 34.7 21.95 35.05 22.0 35.1 22.05 36.1 20.45 36.65 20.15 36.8 17.2 37.75 15.7 36.05 14.85 34.95 13.85 33.55 14.2 33.1 14.7 32.5" fill="#20d8ff" fill-rule="evenodd" stroke="none"/>
      <path d="M26.95 30.0 L28.5 30.1 31.95 29.65 32.45 30.5 32.35 32.05 32.35 33.3 28.65 33.75 Q25.95 33.75 23.85 32.9 L21.75 31.75 22.4 29.95 23.8 28.55 Q25.1 29.65 26.95 30.0" fill="#7bfcf7" fill-rule="evenodd" stroke="none"/>
      <path d="M37.7 25.1 L38.0 25.15 39.7 25.3 40.4 26.75 Q39.55 28.4 37.95 30.0 L36.75 31.05 34.55 32.45 32.35 33.3 32.35 32.05 32.45 30.5 31.95 29.65 34.4 28.5 35.3 27.85 Q37.05 26.55 37.7 25.1 M3.25 21.1 L2.85 22.3 2.3 24.05 2.15 24.55 1.95 25.5 1.8 26.45 1.75 26.55 1.65 26.5 1.2 26.45 0.6 26.5 0.7 25.9 0.9 24.9 1.05 24.1 1.3 23.3 1.35 23.1 1.9 21.6 1.95 21.55 3.25 21.1" fill="#86ffff" fill-rule="evenodd" stroke="none"/>
      <path d="M25.35 23.15 L32.9 23.55 34.4 28.5 31.95 29.65 28.5 30.1 26.95 30.0 Q26.1 28.25 25.05 27.45 L25.35 23.15" fill="#dbfffb" fill-rule="evenodd" stroke="none"/>
      <path d="M18.5 26.9 L20.2 26.05 21.1 26.2 21.15 26.2 21.95 26.05 Q22.45 27.4 23.6 28.4 L23.8 28.55 22.4 29.95 21.75 31.75 21.35 31.4 21.15 31.2 Q19.2 29.5 18.5 26.9" fill="#52f2ff" fill-rule="evenodd" stroke="none"/>
      <path d="M22.05 36.1 L22.0 35.1 21.95 35.05 20.85 34.7 20.3 34.5 20.4 33.75 21.1 34.0 22.3 34.3 22.4 34.35 23.0 34.4 22.95 34.55 22.95 34.85 22.85 35.7 22.9 36.35 22.6 36.35 22.05 36.4 22.05 36.1 M30.05 42.65 L31.15 42.55 31.3 42.55 31.8 42.65 31.3 44.0 31.05 44.75 31.0 45.05 30.05 42.65" fill="#edffff" fill-rule="evenodd" stroke="none"/>
      <path d="M21.1 34.0 L21.25 33.45 21.75 31.75 23.85 32.9 Q25.95 33.75 28.65 33.75 L32.35 33.3 32.4 35.3 32.4 35.55 29.55 35.9 28.65 35.95 28.1 35.95 27.95 35.95 27.9 35.95 26.55 35.85 26.45 35.95 Q24.1 35.5 22.95 34.85 L22.95 34.55 23.0 34.4 22.4 34.35 22.3 34.3 21.1 34.0" fill="#51f2ff" fill-rule="evenodd" stroke="none"/>
      <path d="M18.15 38.7 L17.8 38.3 17.2 37.75 20.15 36.8 20.45 36.65 22.05 36.1 22.05 36.4 22.05 37.3 Q22.9 37.75 24.3 38.15 L24.6 38.2 24.9 38.3 24.5 39.45 23.5 41.55 21.55 40.2 21.2 40.0 20.85 39.7 20.6 39.7 18.15 38.7" fill="#13c0fa" fill-rule="evenodd" stroke="none"/>
      <path d="M22.05 36.4 L22.6 36.35 22.95 36.75 23.25 36.9 24.1 37.35 24.9 37.65 24.3 38.15 Q22.9 37.75 22.05 37.3 L22.05 36.4" fill="#bfffff" fill-rule="evenodd" stroke="none"/>
      <path d="M22.6 36.35 L22.9 36.35 22.85 35.7 22.95 34.85 Q24.1 35.5 26.45 35.95 L26.15 36.3 25.85 36.7 25.65 36.9 25.4 37.2 25.3 37.3 24.9 37.65 24.1 37.35 23.25 36.9 22.95 36.75 22.6 36.35" fill="#1fe5ff" fill-rule="evenodd" stroke="none"/>
      <path d="M25.35 43.0 L25.05 42.75 23.5 41.55 24.5 39.45 24.9 38.3 25.85 38.5 26.15 38.15 26.8 38.9 26.85 38.95 27.2 39.45 Q26.95 40.15 26.95 41.1 L27.0 41.55 Q27.1 43.15 28.1 45.3 L25.65 43.2 25.45 43.1 25.35 43.0" fill="#1dc2f8" fill-rule="evenodd" stroke="none"/>
      <path d="M29.15 36.9 L29.85 36.9 32.45 36.55 32.65 36.5 33.3 36.45 33.4 36.4 34.8 36.05 35.4 37.35 35.5 37.35 36.9 37.2 37.3 37.05 37.75 36.95 37.5 37.25 37.3 37.55 35.8 39.1 35.35 39.45 35.5 40.0 35.55 40.3 35.65 40.85 34.25 41.1 33.55 41.25 32.25 41.45 32.6 40.7 32.75 40.45 33.2 39.7 32.75 39.7 32.65 39.7 31.95 39.65 31.35 39.6 30.9 39.65 30.8 39.65 29.8 39.7 28.8 39.75 28.65 39.8 29.55 41.55 29.55 41.65 27.0 41.55 26.95 41.1 Q26.95 40.15 27.2 39.45 L26.85 38.95 26.8 38.9 26.15 38.15 26.5 37.75 27.35 36.8 28.15 36.9 28.85 36.9 29.15 36.9" fill="#27ebfb" fill-rule="evenodd" stroke="none"/>
      <path d="M40.4 26.75 L41.45 28.8 41.8 29.45 41.25 30.05 40.85 30.5 40.65 30.8 39.25 32.35 39.2 32.4 39.1 32.45 39.05 32.45 39.0 32.45 35.15 34.95 35.05 35.0 33.7 35.35 33.4 35.4 33.25 35.4 32.4 35.55 32.4 35.3 32.35 33.3 34.55 32.45 36.75 31.05 37.95 30.0 Q39.55 28.4 40.4 26.75" fill="#5cf2ff" fill-rule="evenodd" stroke="none"/>
      <path d="M29.15 36.9 L28.85 36.9 28.15 36.9 27.35 36.8 26.5 37.75 25.65 36.9 25.85 36.7 26.15 36.3 26.45 35.95 26.55 35.85 27.9 35.95 27.95 35.95 28.1 35.95 28.65 35.95 29.15 36.9" fill="#a6ffff" fill-rule="evenodd" stroke="none"/>
      <path d="M29.55 41.65 L29.55 41.55 28.65 39.8 28.8 39.75 29.8 39.7 30.05 40.25 Q30.4 41.05 30.85 41.05 L31.0 41.05 31.5 40.85 31.8 40.5 31.95 39.8 31.95 39.65 32.65 39.7 32.75 39.7 33.2 39.7 32.75 40.45 32.6 40.7 32.25 41.45 31.8 42.6 31.8 42.65 31.3 42.55 31.15 42.55 30.05 42.65 29.55 41.65" fill="#f5fff8" fill-rule="evenodd" stroke="none"/>
      <path d="M29.8 39.7 L30.8 39.65 30.9 39.65 31.35 39.6 31.95 39.65 31.95 39.8 31.8 40.5 31.5 40.85 31.0 41.05 30.85 41.05 Q30.4 41.05 30.05 40.25 L29.8 39.7" fill="#7df5ff" fill-rule="evenodd" stroke="none"/>
      <path d="M27.0 41.55 L29.55 41.65 30.05 42.65 31.0 45.05 31.05 44.75 31.3 44.0 31.8 42.65 31.8 42.6 32.25 41.45 33.55 41.25 33.0 44.1 32.9 44.45 32.65 45.3 28.8 45.9 28.15 45.35 28.1 45.3 Q27.1 43.15 27.0 41.55" fill="#2be7ff" fill-rule="evenodd" stroke="none"/>
      <path d="M0.05 15.2 L0.05 14.85 0.2 14.9 0.05 15.2" fill="#14b0fd" fill-rule="evenodd" stroke="none"/>
      <path d="M0.05 17.1 L0.05 15.2 0.2 14.9 1.2 13.15 2.45 11.2 2.75 11.7 3.05 12.15 2.7 12.65 1.05 15.25 0.2 16.8 0.05 17.1" fill="#13c4f6" fill-rule="evenodd" stroke="none"/>
      <path d="M0.05 20.7 L0.05 17.1 1.6 17.15 1.2 17.95 0.05 20.7" fill="#8ffcff" fill-rule="evenodd" stroke="none"/>
      <path d="M54.9 28.2 L54.9 28.9 54.5 29.0 54.4 29.05 Q53.95 29.25 53.9 29.7 L53.9 29.8 53.95 30.35 53.8 30.55 53.5 30.9 53.45 30.55 53.35 29.75 Q53.35 29.1 54.05 28.55 L54.35 28.4 54.9 28.2" fill="#b2ffff" fill-rule="evenodd" stroke="none"/>
      <path d="M0.05 28.0 L0.05 24.15 1.3 23.3 1.05 24.1 0.9 24.9 0.7 25.9 0.6 26.5 0.55 27.35 0.5 28.05 0.5 28.1 0.05 28.0" fill="#21e2f1" fill-rule="evenodd" stroke="none"/>
      <path d="M0.05 29.85 L0.05 28.0 0.5 28.1 0.55 28.5 1.45 29.7 1.7 30.25 2.15 32.1 1.6 31.8 0.55 31.2 0.1 29.95 0.05 29.85" fill="#22dcf1" fill-rule="evenodd" stroke="none"/>
      <path d="M0.6 26.5 L1.2 26.45 1.65 26.5 1.75 26.55 1.75 26.6 1.7 27.75 2.15 28.55 2.5 29.3 2.6 29.65 2.65 29.75 2.05 30.1 1.7 30.25 1.45 29.7 0.55 28.5 0.5 28.1 0.5 28.05 0.55 27.35 0.6 26.5" fill="#cffeff" fill-rule="evenodd" stroke="none"/>
      <path d="M0.05 30.85 L0.05 29.85 0.1 29.95 0.55 31.2 0.35 31.05 0.05 30.85 M2.15 32.1 L1.7 30.25 2.05 30.1 2.65 29.75 Q3.0 31.0 3.0 32.2 L3.0 32.5 2.3 32.2 2.15 32.1" fill="#aaf6ff" fill-rule="evenodd" stroke="none"/>
      <path d="M0.05 31.9 L0.05 30.85 0.35 31.05 0.6 31.5 1.15 32.45 0.55 32.2 0.05 31.9" fill="#e0ffff" fill-rule="evenodd" stroke="none"/>
      <path d="M34.35 46.2 L34.45 46.4 34.95 47.15 34.65 47.5 34.2 48.15 33.2 48.05 33.05 48.05 32.75 48.1 32.7 48.0 32.7 47.8 32.55 47.25 32.6 47.15 32.8 47.15 33.55 47.1 34.35 46.2" fill="#e9ffff" fill-rule="evenodd" stroke="none"/>
      <path d="M38.05 23.6 L37.7 25.1 Q37.05 26.55 35.3 27.85 L34.4 28.5 32.9 23.55 34.3 23.65 38.05 23.6 M30.25 48.3 L30.35 48.1 30.35 48.05 30.55 47.65 30.2 47.25 31.0 47.25 31.75 47.25 31.8 47.25 32.6 47.15 32.55 47.25 32.7 47.8 32.7 48.0 32.75 48.1 31.05 48.2 30.25 48.3" fill="#c2ffff" fill-rule="evenodd" stroke="none"/>
      <path d="M32.65 45.3 L33.55 45.0 34.25 44.75 Q34.8 44.55 35.3 44.3 L34.8 45.7 34.7 45.85 34.65 45.9 34.35 46.2 33.55 47.1 32.8 47.15 32.6 47.15 31.8 47.25 32.65 45.3" fill="#1fc0f7" fill-rule="evenodd" stroke="none"/>
      <path d="M54.9 9.45 L54.9 11.7 54.55 11.4 53.95 10.95 53.35 10.45 52.95 10.15 52.6 9.9 52.55 9.9 53.6 9.6 54.15 9.5 54.85 9.4 54.9 9.45" fill="#1ecbff" fill-rule="evenodd" stroke="none"/>
      <path d="M49.45 7.6 L51.5 9.1 52.55 9.9 52.6 9.9 52.95 10.15 52.8 10.25 52.15 10.7 52.1 10.8 52.05 10.85 51.5 11.2 50.2 11.9 48.0 8.9 47.75 8.6 47.7 8.6 48.9 7.4 48.95 7.35 49.0 7.3 49.45 7.6" fill="#0ac1eb" fill-rule="evenodd" stroke="none"/>
      <path d="M44.9 5.8 Q45.0 5.65 45.2 5.6 L45.7 5.3 46.3 5.65 49.0 7.3 48.95 7.35 48.9 7.4 47.7 8.6 46.75 7.5 45.4 6.2 Q45.15 5.95 44.9 5.8" fill="#0ac4ff" fill-rule="evenodd" stroke="none"/>
      <path d="M50.2 11.9 L51.25 13.55 50.45 14.7 50.45 14.6 49.45 13.0 48.9 12.25 48.5 11.65 48.15 11.1 47.25 10.0 46.75 9.45 45.85 8.5 46.15 8.15 46.3 7.95 46.75 7.5 47.7 8.6 47.75 8.6 48.0 8.9 50.2 11.9" fill="#26c9f4" fill-rule="evenodd" stroke="none"/>
      <path d="M42.8 6.0 L44.15 6.95 45.2 7.9 45.6 8.25 45.85 8.5 46.75 9.45 47.25 10.0 48.15 11.1 48.5 11.65 48.2 12.6 47.55 11.8 47.35 11.55 46.9 10.95 46.05 10.0 45.7 9.55 45.3 9.2 44.75 8.65 43.75 7.75 43.3 7.45 43.25 7.4 42.75 7.05 42.8 6.0" fill="#8cfcff" fill-rule="evenodd" stroke="none"/>
      <path d="M43.6 9.25 L44.0 9.05 44.7 8.7 44.75 8.65 45.3 9.2 45.7 9.55 46.05 10.0 46.9 10.95 47.35 11.55 47.55 11.8 48.2 12.6 48.75 13.35 Q48.35 13.5 47.9 13.75 L47.8 13.8 47.8 13.75 46.95 12.65 46.6 12.25 44.7 10.2 44.65 10.15 44.05 9.65 43.6 9.25" fill="#20dcf7" fill-rule="evenodd" stroke="none"/>
      <path d="M50.2 17.55 L49.75 16.8 47.8 13.8 47.9 13.75 Q48.35 13.5 48.75 13.35 L50.0 15.4 50.55 16.3 51.3 17.7 50.3 17.8 50.2 17.55" fill="#32e2fa" fill-rule="evenodd" stroke="none"/>
      <path d="M43.9 10.65 L43.8 10.55 44.05 9.65 44.65 10.15 44.7 10.2 46.6 12.25 46.95 12.65 47.8 13.75 47.8 13.8 49.75 16.8 50.2 17.55 49.75 17.65 49.35 17.05 47.5 14.5 47.2 14.15 46.5 13.35 46.45 13.3 45.25 12.0 43.9 10.65" fill="#ccfffc" fill-rule="evenodd" stroke="none"/>
      <path d="M54.9 11.7 L54.9 14.4 54.65 14.6 52.5 15.85 51.7 14.35 51.25 13.55 50.2 11.9 51.5 11.2 52.05 10.85 52.1 10.8 52.15 10.7 52.8 10.25 52.95 10.15 53.35 10.45 53.95 10.95 54.55 11.4 54.9 11.7" fill="#15b6fe" fill-rule="evenodd" stroke="none"/>
      <path d="M54.9 14.4 L54.9 20.35 54.7 20.5 54.35 19.75 53.85 18.55 53.5 17.8 53.05 16.85 52.5 15.85 54.65 14.6 54.9 14.4" fill="#1dadff" fill-rule="evenodd" stroke="none"/>
      <path d="M51.25 13.55 L51.7 14.35 52.5 15.85 53.05 16.85 52.8 17.6 52.75 17.8 52.5 18.5 52.45 18.3 52.3 18.05 52.15 17.7 51.35 16.25 51.2 15.95 50.45 14.7 51.25 13.55" fill="#25c2f7" fill-rule="evenodd" stroke="none"/>
      <path d="M54.9 21.0 L54.9 24.55 54.8 24.15 54.15 22.25 53.65 20.95 53.5 20.75 52.5 18.5 52.75 17.8 52.8 17.6 53.05 16.85 53.5 17.8 53.85 18.55 54.35 19.75 54.7 20.5 54.75 20.65 54.9 21.0" fill="#22cefe" fill-rule="evenodd" stroke="none"/>
      <path d="M50.3 17.8 L51.3 17.7 51.75 18.6 52.2 19.45 52.2 19.5 52.8 20.7 52.95 21.1 53.45 22.3 52.45 22.45 52.15 22.5 51.55 20.6 51.1 19.35 50.95 19.0 50.3 17.8" fill="#1fe8fc" fill-rule="evenodd" stroke="none"/>
      <path d="M46.45 13.3 L46.5 13.35 47.2 14.15 47.5 14.5 49.35 17.05 49.75 17.65 49.85 17.85 50.4 19.0 50.45 19.2 49.2 19.85 48.9 20.05 48.6 20.2 48.6 20.25 47.2 21.3 46.25 22.25 46.2 22.1 46.0 21.55 46.4 21.45 45.95 20.45 45.95 20.3 45.85 20.05 45.75 19.8 44.95 17.35 44.4 17.55 Q45.1 15.65 45.75 14.45 L46.25 13.6 46.45 13.3" fill="#23d4f5" fill-rule="evenodd" stroke="none"/>
      <path d="M46.25 22.25 L47.2 21.3 48.6 20.25 48.6 20.2 48.9 20.05 49.2 19.85 50.45 19.2 50.95 20.45 51.55 22.55 52.0 24.45 52.1 24.8 52.1 24.95 52.65 27.55 52.65 27.6 51.8 27.6 50.65 27.5 Q49.6 27.35 48.95 27.0 L48.9 27.0 48.15 27.1 47.5 27.1 47.3 27.05 46.95 27.05 46.95 27.0 46.95 26.7 46.75 24.25 46.5 23.35 46.25 22.25" fill="#31c7ff" fill-rule="evenodd" stroke="none"/>
      <path d="M52.15 22.5 L52.45 22.45 53.45 22.3 54.2 24.35 54.7 25.85 54.8 26.25 53.5 27.45 52.8 24.9 52.8 24.75 52.3 22.95 52.15 22.5" fill="#28e6ff" fill-rule="evenodd" stroke="none"/>
      <path d="M54.9 20.35 L54.9 21.0 54.75 20.65 54.7 20.5 54.9 20.35" fill="#0b9ff5" fill-rule="evenodd" stroke="none"/>
      <path d="M42.75 7.05 L43.25 7.4 43.3 7.45 43.75 7.75 44.75 8.65 44.7 8.7 44.0 9.05 43.6 9.25 42.7 8.45 42.2 8.05 40.65 6.9 40.5 6.8 41.2 6.1 41.65 6.35 42.75 7.05" fill="#22e4ff" fill-rule="evenodd" stroke="none"/>
      <path d="M39.05 9.65 L40.65 8.9 Q41.0 8.65 41.35 8.5 L42.8 9.7 43.8 10.55 43.9 10.65 43.75 10.75 41.35 12.4 40.4 13.2 40.4 13.15 41.1 11.65 40.5 11.0 39.4 9.9 39.05 9.65" fill="#1bdaff" fill-rule="evenodd" stroke="none"/>
      <path d="M41.35 8.5 Q41.0 8.65 40.65 8.9 L39.05 9.65 38.3 9.1 37.55 9.65 37.25 8.9 35.9 6.5 36.15 6.3 36.35 6.2 36.75 5.8 38.0 6.35 38.15 6.4 38.25 6.45 Q39.8 7.35 41.35 8.5" fill="#21cbff" fill-rule="evenodd" stroke="none"/>
      <path d="M40.4 13.2 L41.35 12.4 43.75 10.75 43.9 10.65 45.25 12.0 46.45 13.3 46.25 13.6 45.75 14.45 Q45.1 15.65 44.4 17.55 L43.3 18.0 43.15 18.1 42.55 18.35 42.15 18.6 42.0 18.45 40.55 16.6 40.5 16.55 40.1 16.0 39.6 15.3 40.3 13.35 40.4 13.2" fill="#28d2ff" fill-rule="evenodd" stroke="none"/>
      <path d="M39.4 9.9 L40.5 11.0 41.1 11.65 40.4 13.15 39.75 12.65 40.15 11.5 39.3 10.85 38.9 10.65 39.05 10.4 39.4 9.9" fill="#a3ffff" fill-rule="evenodd" stroke="none"/>
      <path d="M36.05 10.85 L34.95 11.75 34.3 11.65 33.6 11.55 36.05 10.85" fill="#64d4e2" fill-rule="evenodd" stroke="none"/>
      <path d="M34.9 12.9 L36.1 11.6 36.75 11.0 37.45 10.55 37.85 10.4 38.0 10.25 38.9 10.65 39.3 10.85 40.15 11.5 39.75 12.65 39.4 13.6 39.0 14.35 38.55 15.15 37.6 14.45 Q37.0 14.0 34.9 12.9" fill="#27e0f2" fill-rule="evenodd" stroke="none"/>
      <path d="M40.25 18.65 Q41.25 20.6 41.25 23.1 L41.25 23.55 Q41.2 25.2 40.4 26.75 L39.7 25.3 38.0 25.15 37.7 25.1 38.05 23.6 38.05 23.35 Q38.05 20.75 36.35 19.1 L39.0 16.95 40.25 18.65" fill="#7bfcff" fill-rule="evenodd" stroke="none"/>
      <path d="M36.35 19.1 Q38.05 20.75 38.05 23.35 L38.05 23.6 34.3 23.65 32.9 23.55 31.05 16.55 Q32.7 16.85 34.15 17.6 35.5 18.2 36.35 19.1" fill="#bcfcfb" fill-rule="evenodd" stroke="none"/>
      <path d="M40.5 16.55 L40.55 16.6 42.0 18.45 42.15 18.6 42.55 18.35 43.15 18.1 43.25 18.85 43.1 18.85 41.85 19.55 41.75 19.6 41.55 19.35 41.15 18.6 40.75 17.9 40.2 17.25 40.5 16.55" fill="#b7ffff" fill-rule="evenodd" stroke="none"/>
      <path d="M41.85 19.55 L43.1 18.85 43.25 18.85 Q43.65 18.6 44.0 18.5 L44.9 19.6 44.95 19.6 45.15 20.05 45.15 20.1 45.35 20.9 44.45 21.45 Q44.35 21.45 44.3 21.55 43.85 21.75 43.5 21.9 L43.25 21.5 42.6 20.45 41.85 19.55" fill="#1feef4" fill-rule="evenodd" stroke="none"/>
      <path d="M41.15 18.6 L41.55 19.35 41.75 19.6 41.85 19.55 42.6 20.45 43.25 21.5 43.5 21.9 43.2 22.05 43.35 23.2 43.4 23.5 43.5 24.25 43.55 24.8 43.3 26.9 43.25 27.2 43.2 27.3 43.05 27.75 41.8 29.45 41.45 28.8 40.4 26.75 Q41.2 25.2 41.25 23.55 L41.25 23.1 Q41.25 20.6 40.25 18.65 L41.15 18.6" fill="#4ae8ff" fill-rule="evenodd" stroke="none"/>
      <path d="M45.95 20.45 L46.4 21.45 46.0 21.55 45.95 21.6 44.75 22.25 44.3 21.55 Q44.35 21.45 44.45 21.45 L45.35 20.9 45.65 20.7 45.95 20.45" fill="#c8faff" fill-rule="evenodd" stroke="none"/>
      <path d="M46.0 21.55 L46.2 22.1 46.25 22.25 46.5 23.35 46.75 24.25 46.95 26.7 46.95 27.0 46.95 27.05 46.25 27.0 46.1 27.0 46.0 27.0 44.15 26.9 44.15 26.75 44.15 25.6 44.25 24.35 44.25 24.05 44.3 23.45 44.4 22.5 44.75 22.25 45.95 21.6 46.0 21.55" fill="#30e5ff" fill-rule="evenodd" stroke="none"/>
      <path d="M43.25 27.2 L43.3 26.9 43.55 24.8 43.5 24.25 44.25 24.35 44.15 25.6 44.15 26.75 43.85 26.9 43.45 27.1 43.25 27.2" fill="#92ffff" fill-rule="evenodd" stroke="none"/>
      <path d="M44.15 26.9 L46.0 27.0 46.1 27.0 46.25 27.0 46.95 27.05 46.95 28.15 46.4 30.55 45.75 32.05 44.55 33.9 44.0 34.6 43.75 34.9 43.3 35.4 42.75 35.95 42.1 34.6 41.85 34.05 41.75 33.7 41.1 32.35 41.2 32.3 41.8 33.0 42.35 33.6 42.55 33.8 42.75 33.6 43.7 32.7 43.8 32.5 44.5 31.65 44.55 31.6 45.15 30.75 45.25 30.5 45.4 30.2 45.75 29.3 45.55 29.15 44.25 28.15 44.2 27.85 44.15 27.05 44.15 26.9" fill="#38e3ff" fill-rule="evenodd" stroke="none"/>
      <path d="M46.95 27.05 L47.3 27.05 47.5 27.1 48.15 27.1 48.9 27.0 48.95 27.0 Q49.6 27.35 50.65 27.5 L51.8 27.6 52.65 27.6 Q52.45 27.9 52.4 28.4 L52.35 28.5 52.15 29.75 52.1 30.5 52.1 30.95 52.25 32.25 49.55 34.8 49.3 34.95 49.2 35.1 48.95 34.75 48.35 34.15 46.4 32.4 45.75 32.05 46.4 30.55 46.95 28.15 46.95 27.05" fill="#26c6fa" fill-rule="evenodd" stroke="none"/>
      <path d="M41.8 29.45 L43.05 27.75 42.75 28.35 43.35 28.75 44.25 29.35 43.85 30.45 43.85 30.6 43.75 30.8 43.15 31.85 42.9 32.25 42.05 31.75 41.0 31.05 40.65 31.35 39.9 31.8 39.25 32.35 40.65 30.8 40.85 30.5 41.25 30.05 41.8 29.45" fill="#23e6fa" fill-rule="evenodd" stroke="none"/>
      <path d="M41.1 32.35 L41.75 33.7 41.85 34.05 42.1 34.6 42.75 35.95 41.6 36.9 40.95 37.45 39.95 38.05 39.5 37.45 38.9 36.7 38.8 36.6 39.5 36.2 40.3 35.65 40.2 35.45 39.95 34.95 39.8 34.7 39.55 34.3 39.55 34.25 39.15 33.5 40.3 32.75 41.1 32.35" fill="#27dcff" fill-rule="evenodd" stroke="none"/>
      <path d="M44.55 31.6 L44.5 31.65 43.8 32.5 43.7 32.7 42.75 33.6 42.55 33.8 42.35 33.6 41.8 33.0 42.05 31.75 42.9 32.25 43.15 31.85 43.75 30.8 44.45 31.5 44.55 31.6" fill="#a8ffff" fill-rule="evenodd" stroke="none"/>
      <path d="M42.75 35.95 L43.3 35.4 43.75 34.9 44.0 34.6 44.55 33.9 45.75 32.05 46.4 32.4 48.35 34.15 48.95 34.75 49.2 35.1 47.35 36.35 45.95 37.2 45.45 37.45 45.25 37.55 43.95 38.4 43.45 37.5 42.75 35.95" fill="#18befa" fill-rule="evenodd" stroke="none"/>
      <path d="M35.15 34.95 L39.0 32.45 39.05 32.45 38.15 33.25 38.55 34.25 38.55 34.4 38.65 34.75 38.75 35.55 38.25 35.8 37.3 35.95 36.8 36.0 36.05 36.1 35.8 35.5 35.7 34.95 35.65 34.85 35.15 34.95" fill="#2fe7ff" fill-rule="evenodd" stroke="none"/>
      <path d="M35.5 40.0 L35.35 39.45 35.8 39.1 37.3 37.55 37.5 37.25 37.75 36.95 38.3 36.8 38.8 36.6 38.9 36.7 39.5 37.45 39.95 38.05 Q38.1 39.15 35.9 39.9 L35.5 40.0" fill="#25c3ff" fill-rule="evenodd" stroke="none"/>
      <path d="M33.55 41.25 L34.25 41.1 35.65 40.85 35.65 42.05 35.35 44.1 35.3 44.3 Q34.8 44.55 34.25 44.75 L33.55 45.0 32.65 45.3 32.9 44.45 33.0 44.1 33.55 41.25" fill="#24d4ff" fill-rule="evenodd" stroke="none"/>
      <path d="M49.2 35.1 L49.3 34.95 49.3 35.2 49.2 35.95 48.3 36.5 48.1 36.65 47.5 37.05 46.1 37.6 43.3 38.8 43.95 38.4 45.25 37.55 45.45 37.45 45.95 37.2 47.35 36.35 49.2 35.1" fill="#adfeff" fill-rule="evenodd" stroke="none"/>
      <path d="M41.6 36.9 L42.75 35.95 43.45 37.5 43.95 38.4 43.3 38.8 Q42.8 39.15 42.35 39.45 L42.3 39.3 41.8 37.45 41.6 36.9" fill="#19bbff" fill-rule="evenodd" stroke="none"/>
      <path d="M54.9 25.4 L54.9 26.6 54.8 26.25 54.7 25.85 54.9 25.4" fill="#d8ffff" fill-rule="evenodd" stroke="none"/>
      <path d="M54.9 26.6 L54.9 28.2 54.35 28.4 54.05 28.55 Q53.35 29.1 53.35 29.75 L53.45 30.55 53.5 30.9 53.3 31.1 52.6 31.9 52.55 31.35 52.65 30.5 52.8 29.75 52.95 29.35 53.45 27.75 53.55 27.6 53.5 27.5 53.5 27.45 54.8 26.25 54.9 26.6" fill="#2cf0ff" fill-rule="evenodd" stroke="none"/>
      <path d="M54.9 29.2 L54.9 30.95 54.4 31.5 53.9 32.0 53.5 32.45 53.3 31.1 53.5 30.9 53.8 30.55 53.95 30.35 54.45 29.7 54.65 29.5 54.9 29.2" fill="#c3f5ff" fill-rule="evenodd" stroke="none"/>
      <path d="M54.9 28.9 L54.9 29.2 54.65 29.5 54.45 29.7 53.95 30.35 53.9 29.8 53.9 29.7 Q53.95 29.25 54.4 29.05 L54.5 29.0 54.9 28.9" fill="#36d6ec" fill-rule="evenodd" stroke="none"/>
      <path d="M52.6 31.9 L53.3 31.1 53.5 32.45 52.8 33.1 52.5 33.4 50.7 34.9 49.7 35.65 49.2 35.95 49.3 35.2 49.3 34.95 49.55 34.8 52.25 32.25 52.6 31.9" fill="#f7fffa" fill-rule="evenodd" stroke="none"/>
      <path d="M36.75 43.95 L37.05 44.45 37.1 44.5 36.85 44.8 35.35 46.55 35.15 46.85 34.95 47.15 34.45 46.4 34.35 46.2 34.65 45.9 34.7 45.85 34.85 45.7 36.65 44.0 36.65 43.95 36.7 43.9 36.75 43.95" fill="#caffff" fill-rule="evenodd" stroke="none"/>
      <path d="M40.3 0.05 L40.45 0.05 40.4 0.1 40.3 0.05" fill="#229de0" fill-rule="evenodd" stroke="none"/>
      <path d="M18.9 0.05 L38.25 0.05 39.7 0.4 39.65 0.7 39.55 1.25 39.25 1.55 39.15 1.7 38.45 2.6 38.35 2.65 38.15 2.9 37.35 3.7 37.1 3.95 37.05 4.05 36.6 4.45 36.25 4.85 36.05 4.95 35.65 5.4 35.3 5.65 34.9 6.0 27.0 5.4 Q24.05 5.25 21.1 5.4 L20.9 4.95 19.75 2.2 18.9 0.05" fill="#0c9cf6" fill-rule="evenodd" stroke="none"/>
      <path d="M40.1 0.5 L40.1 0.55 39.55 1.25 39.65 0.7 39.7 0.4 40.1 0.5" fill="#0ea0f9" fill-rule="evenodd" stroke="none"/>
      <path d="M38.25 0.05 L40.3 0.05 40.4 0.1 40.1 0.5 39.7 0.4 38.25 0.05" fill="#2772e5" fill-rule="evenodd" stroke="none"/>
      <path d="M9.4 0.05 L18.9 0.05 19.75 2.2 20.9 4.95 21.1 5.4 17.15 5.55 16.5 5.65 15.4 5.1 15.0 4.9 13.8 4.15 13.6 4.0 12.7 3.3 12.2 2.9 10.95 1.75 10.55 1.25 10.25 0.95 9.55 0.2 9.4 0.05" fill="#17a5f8" fill-rule="evenodd" stroke="none"/>
      <path d="M21.1 5.4 Q24.05 5.25 27.0 5.4 L23.35 7.85 23.3 7.8 21.7 7.4 17.9 6.25 16.5 5.65 17.15 5.55 21.1 5.4" fill="#1fa9ff" fill-rule="evenodd" stroke="none"/>
      <path d="M0.05 45.6 L0.05 40.15 1.95 39.3 4.1 38.45 9.45 36.55 9.65 36.65 10.1 36.8 13.05 38.05 14.85 38.8 15.4 38.9 15.7 39.0 12.35 40.1 Q10.0 40.95 7.7 41.95 L6.05 42.65 Q2.5 44.2 0.05 45.6" fill="#23ddff" fill-rule="evenodd" stroke="none"/>
      <path d="M6.05 42.65 L7.7 41.95 Q10.0 40.95 12.35 40.1 L15.7 39.0 19.2 39.6 21.2 40.0 21.55 40.2 Q17.7 41.25 13.85 42.8 L11.85 43.6 Q9.55 44.6 7.6 45.65 L6.05 42.65" fill="#20bdff" fill-rule="evenodd" stroke="none"/>
      <path d="M2.3 54.0 L1.75 54.0 1.2 53.8 0.05 53.4 0.05 52.8 1.45 53.5 1.75 53.7 2.3 54.0" fill="#53e1ff" fill-rule="evenodd" stroke="none"/>
      <path d="M0.05 51.85 L0.05 45.6 Q2.5 44.2 6.05 42.65 L7.6 45.65 Q2.5 48.45 0.05 51.85" fill="#46e3ff" fill-rule="evenodd" stroke="none"/>
      <path d="M12.2 54.0 L3.2 54.0 1.45 53.5 0.05 52.8 0.05 51.85 Q2.5 48.45 7.6 45.65 L8.0 46.45 10.65 51.35 10.75 51.45 12.2 54.0" fill="#44e8ff" fill-rule="evenodd" stroke="none"/>
      <path d="M31.7 54.0 L12.2 54.0 10.75 51.45 10.65 51.35 10.75 51.3 Q13.45 49.7 18.35 48.05 22.45 46.6 26.9 45.6 L27.15 45.9 27.4 46.15 28.35 47.25 29.1 48.1 29.35 48.4 30.0 48.35 30.25 48.3 31.05 48.2 32.75 48.1 33.05 48.05 33.2 48.05 34.2 48.15 34.65 47.5 34.95 47.15 35.15 46.85 35.35 46.55 36.85 44.8 37.3 46.75 Q37.05 48.1 37.2 49.75 37.3 51.05 37.55 52.15 L31.7 54.0" fill="#0b8dfb" fill-rule="evenodd" stroke="none"/>
      <path d="M54.9 49.45 L54.9 51.45 54.7 54.0 31.7 54.0 37.55 52.15 38.3 52.0 41.3 51.3 45.95 50.4 52.45 49.6 54.9 49.45" fill="#0d97ff" fill-rule="evenodd" stroke="none"/>
      <path d="M54.9 30.95 L54.9 35.35 52.65 35.1 50.7 34.9 52.5 33.4 52.8 33.1 53.5 32.45 53.9 32.0 54.4 31.5 54.9 30.95" fill="#109afc" fill-rule="evenodd" stroke="none"/>
      <path d="M54.9 35.35 L54.9 39.1 50.45 38.2 46.1 37.6 47.5 37.05 48.1 36.65 48.3 36.5 49.2 35.95 49.7 35.65 50.7 34.9 52.65 35.1 54.9 35.35" fill="#08abf0" fill-rule="evenodd" stroke="none"/>
      <path d="M54.9 39.1 L54.9 44.2 47.95 43.75 46.05 43.65 Q41.45 43.45 40.6 43.55 L36.75 43.95 36.7 43.9 Q37.65 43.05 38.55 42.3 L42.35 39.45 Q42.8 39.15 43.3 38.8 L46.1 37.6 50.45 38.2 54.9 39.1" fill="#0089ff" fill-rule="evenodd" stroke="none"/>
      <path d="M54.9 48.65 L54.9 48.85 54.7 49.35 54.9 48.65" fill="#60ddff" fill-rule="evenodd" stroke="none"/>
      <path d="M54.9 51.45 L54.9 53.95 54.7 54.0 54.9 51.45" fill="#149ff7" fill-rule="evenodd" stroke="none"/>
      <path d="M54.9 53.95 L54.9 54.0 54.7 54.0 54.9 53.95" fill="#0d93f1" fill-rule="evenodd" stroke="none"/>
    </g>
    <g id="shape2" transform="matrix(1.0, 0.0, 0.0, 1.0, 0.0, 0.0)">
      <path d="M50.5 0.0 Q53.95 0.0 53.95 3.3 L53.95 50.15 Q53.95 53.4 50.5 53.4 L3.3 53.4 Q0.0 53.4 0.0 50.15 L0.0 3.3 Q0.0 0.0 3.3 0.0 L50.5 0.0" fill="#000000" fill-opacity="0.003921569" fill-rule="evenodd" stroke="none"/>
    </g>
  </defs>
</svg>
