<?xml version="1.0" encoding="UTF-8" standalone="no"?>
<svg xmlns:ffdec="https://www.free-decompiler.com/flash" xmlns:xlink="http://www.w3.org/1999/xlink" ffdec:objectType="frame" height="54.0px" width="54.55px" xmlns="http://www.w3.org/2000/svg">
  <g transform="matrix(1.0, 0.0, 0.0, 1.0, 0.5, 0.5)">
    <clipPath id="clipPath0" transform="matrix(1.0, 0.0, 0.0, 1.0, 0.0, 0.0)">
      <path d="M50.5 0.0 Q53.95 0.0 53.95 3.3 L53.95 50.15 Q53.95 53.4 50.5 53.4 L3.3 53.4 Q0.0 53.4 0.0 50.15 L0.0 3.3 Q0.0 0.0 3.3 0.0 L50.5 0.0" fill="#000000" fill-rule="evenodd" stroke="none"/>
    </clipPath>
    <g clip-path="url(#clipPath0)">
      <use ffdec:characterId="2" height="54.0" transform="matrix(1.0, 0.0, 0.0, 1.0, -0.5, -0.5)" width="54.55" xlink:href="#shape1"/>
    </g>
    <use ffdec:characterId="3" height="53.4" transform="matrix(1.0, 0.0, 0.0, 1.0, 0.0, 0.0)" width="53.95" xlink:href="#shape2"/>
  </g>
  <defs>
    <g id="shape1" transform="matrix(1.0, 0.0, 0.0, 1.0, 0.5, 0.5)">
      <path d="M38.8 15.9 Q41.45 17.0 43.4 19.2 L44.35 20.4 45.0 21.35 44.5 21.5 42.85 21.8 41.55 21.5 Q41.25 21.3 41.25 20.95 L39.2 19.75 38.5 19.45 38.25 19.4 37.15 17.35 36.1 18.0 33.3 17.3 35.4 17.15 36.75 17.3 37.15 17.35 38.15 16.55 38.3 16.4 38.8 15.9 M38.25 16.9 L38.15 16.55 38.25 16.9" fill="#5dd400" fill-rule="evenodd" stroke="none"/>
      <path d="M45.0 21.35 L46.1 23.8 45.65 23.8 43.75 23.5 42.2 22.9 41.8 22.6 40.85 21.9 40.65 21.75 Q39.65 21.1 38.6 20.7 L38.55 20.35 38.5 19.7 38.5 19.45 39.2 19.75 41.25 20.95 Q41.25 21.3 41.55 21.5 L42.85 21.8 44.5 21.5 45.0 21.35" fill="#78ff00" fill-rule="evenodd" stroke="none"/>
      <path d="M46.1 23.8 L46.1 23.85 46.4 24.75 44.7 24.45 44.25 24.35 Q42.6 23.8 40.65 22.45 L40.1 22.25 39.15 21.85 38.1 21.45 Q36.8 21.0 36.2 21.0 L34.35 21.3 Q33.1 21.8 33.1 22.95 33.1 24.0 34.55 25.1 L33.4 24.8 32.8 24.45 32.4 24.15 Q31.7 23.5 31.45 22.8 L31.4 22.15 Q31.4 21.6 32.0 21.15 32.3 20.85 32.85 20.65 L35.45 20.2 38.6 20.7 Q39.65 21.1 40.65 21.75 L40.85 21.9 41.8 22.6 42.2 22.9 43.75 23.5 45.65 23.8 46.1 23.8 M38.25 26.9 L38.7 27.25 40.6 28.8 Q40.1 28.9 39.65 29.15 39.1 29.4 38.65 29.85 37.6 30.8 37.6 31.4 L35.8 31.85 32.4 32.45 31.8 32.5 28.25 32.2 26.2 31.8 Q23.95 31.15 22.9 30.05 L22.5 30.65 Q22.05 31.4 22.05 31.95 22.05 32.6 22.6 33.45 L23.6 34.45 23.75 34.8 23.95 35.85 24.05 37.15 Q24.05 39.2 22.65 41.45 L22.05 42.25 20.6 40.3 20.6 39.9 Q20.6 39.35 20.85 38.9 L21.1 38.55 21.6 38.2 22.4 38.0 23.0 38.1 23.05 37.25 23.05 36.7 22.7 35.05 22.15 34.55 22.05 34.4 Q20.9 33.1 20.9 31.6 20.9 30.75 21.4 29.65 L21.95 28.65 23.25 29.55 23.75 29.85 23.85 29.9 Q25.75 30.85 27.55 30.85 L28.6 30.8 29.15 31.15 29.55 31.15 30.45 31.2 30.8 31.2 32.15 31.05 32.6 30.95 33.85 30.7 35.3 30.3 36.1 30.05 36.3 29.9 36.65 29.7 36.95 29.65 37.0 29.6 38.5 29.35 39.15 29.4 38.25 28.4 35.95 26.45 35.8 26.35 35.7 26.3 34.8 25.8 34.8 25.7 34.75 25.25 35.25 25.55 37.3 26.25 38.25 26.9 M32.6 30.95 L33.35 30.85 33.85 30.7 33.35 30.85 32.6 30.95" fill="#ff7e2d" fill-rule="evenodd" stroke="none"/>
      <path d="M46.4 24.75 Q46.9 26.7 47.05 29.0 L46.55 29.35 45.85 29.4 41.85 29.1 40.85 29.1 39.65 29.15 Q40.1 28.9 40.6 28.8 L38.7 27.25 38.25 26.9 Q39.05 26.5 40.0 26.05 L42.95 24.8 44.25 24.35 44.7 24.45 46.4 24.75" fill="#f6e65f" fill-rule="evenodd" stroke="none"/>
      <path d="M40.1 22.25 L40.65 22.45 Q42.6 23.8 44.25 24.35 L42.95 24.8 40.0 26.05 Q39.05 26.5 38.25 26.9 L37.3 26.25 35.25 25.55 Q36.6 24.2 38.8 22.95 L39.3 22.65 40.1 22.25" fill="#fbc356" fill-rule="evenodd" stroke="none"/>
      <path d="M52.2 33.75 L52.9 35.4 52.95 35.6 Q53.45 37.35 53.55 39.2 52.6 38.15 50.65 37.1 L50.4 36.95 50.45 36.8 Q50.7 35.25 51.55 34.3 L52.2 33.75" fill="#ff4005" fill-rule="evenodd" stroke="none"/>
      <path d="M52.2 33.75 L51.55 34.3 Q50.7 35.25 50.45 36.8 L50.4 36.95 50.25 36.85 50.15 36.8 Q48.5 35.95 46.95 35.5 47.5 33.65 49.25 32.6 L49.25 32.55 49.3 32.6 49.6 32.75 50.2 33.3 49.75 32.6 49.6 32.4 49.6 32.35 50.45 31.95 50.95 31.8 51.0 31.9 51.7 32.9 52.2 33.75" fill="#fd460d" fill-rule="evenodd" stroke="none"/>
      <path d="M47.05 29.0 L47.05 29.3 47.0 29.3 46.55 29.35 47.05 29.0 M38.95 42.05 L38.9 42.95 38.9 43.05 38.35 43.0 38.95 42.05 38.35 43.0 36.15 42.5 Q35.1 42.1 34.45 41.55 L34.8 40.8 36.05 38.7 36.2 38.5 37.15 39.7 39.05 41.45 38.95 42.05" fill="#ffcd57" fill-rule="evenodd" stroke="none"/>
      <path d="M47.05 29.3 L47.7 29.4 48.7 30.05 47.5 30.65 47.5 30.45 47.05 29.75 46.9 29.7 46.55 29.65 46.3 29.6 Q45.85 29.7 45.85 30.15 45.85 30.6 46.25 30.85 L46.6 31.1 44.35 32.4 42.9 33.4 40.45 35.05 40.1 35.25 39.85 35.3 39.75 35.35 38.15 35.6 37.45 35.8 36.25 36.05 35.05 36.15 34.45 36.1 34.05 36.05 33.95 36.05 33.75 36.0 Q33.3 35.3 33.3 34.35 L34.0 33.55 Q34.5 33.05 35.35 32.65 36.75 31.95 37.9 31.75 L41.05 31.25 41.85 30.7 42.6 30.35 Q44.2 29.55 45.85 29.4 L46.55 29.35 47.0 29.3 47.05 29.3" fill="#fa911c" fill-rule="evenodd" stroke="none"/>
      <path d="M49.6 32.35 L49.6 32.4 49.75 32.6 50.2 33.3 49.6 32.75 49.3 32.6 49.25 32.55 48.35 32.05 48.1 31.95 47.85 31.6 47.75 31.4 Q47.75 31.15 47.9 31.0 L48.05 30.95 48.15 30.9 49.6 32.35 M46.6 31.1 L46.25 30.85 Q45.85 30.6 45.85 30.15 45.85 29.7 46.3 29.6 L46.55 29.65 46.9 29.7 47.05 29.75 47.5 30.45 47.5 30.65 47.5 30.7 47.35 30.9 47.05 31.1 46.8 31.15 46.6 31.1" fill="#fffb13" fill-rule="evenodd" stroke="none"/>
      <path d="M46.95 35.5 L44.95 35.05 43.55 34.95 43.45 34.95 42.05 35.05 40.1 35.25 40.45 35.05 42.9 33.4 44.35 32.4 46.6 31.1 46.8 31.15 47.05 31.1 47.35 30.9 47.5 30.7 47.5 30.65 48.7 30.05 49.05 30.3 Q50.1 30.85 50.95 31.8 L50.45 31.95 49.6 32.35 48.15 30.9 48.05 30.95 47.9 31.0 Q47.75 31.15 47.75 31.4 L47.85 31.6 48.1 31.95 48.35 32.05 49.25 32.55 49.25 32.6 Q47.5 33.65 46.95 35.5" fill="#fb6616" fill-rule="evenodd" stroke="none"/>
      <path d="M39.65 29.15 L40.85 29.1 41.85 29.1 45.85 29.4 Q44.2 29.55 42.6 30.35 L41.85 30.7 41.05 31.25 37.9 31.75 Q36.75 31.95 35.35 32.65 34.5 33.05 34.0 33.55 L33.3 34.35 Q33.3 35.3 33.75 36.0 L33.95 36.05 33.9 36.2 34.05 36.4 35.15 37.1 35.25 37.2 36.2 38.5 36.05 38.7 34.8 40.8 30.85 38.85 29.8 38.35 Q31.05 34.6 32.4 32.45 L35.8 31.85 37.6 31.4 Q37.6 30.8 38.65 29.85 39.1 29.4 39.65 29.15" fill="#ffe355" fill-rule="evenodd" stroke="none"/>
      <path d="M44.95 35.05 Q45.05 36.25 45.8 37.6 L45.85 37.65 46.25 38.25 44.75 38.75 43.6 39.25 42.65 39.75 42.15 38.4 42.0 37.6 41.85 36.5 41.85 36.3 42.05 35.05 43.45 34.95 43.55 34.95 44.95 35.05" fill="#fb4d08" fill-rule="evenodd" stroke="none"/>
      <path d="M38.15 35.6 L39.75 35.35 39.85 35.3 40.1 35.25 42.05 35.05 41.85 36.3 41.85 36.5 42.0 37.6 42.15 38.4 42.65 39.75 Q41.85 40.15 41.15 40.65 L40.15 39.55 39.85 39.05 39.15 37.95 38.25 36.3 38.25 36.15 38.15 35.6" fill="#f97314" fill-rule="evenodd" stroke="none"/>
      <path d="M46.95 35.5 Q48.5 35.95 50.15 36.8 L50.25 36.85 50.4 36.95 50.4 37.15 46.25 38.25 45.85 37.65 45.8 37.6 Q45.05 36.25 44.95 35.05 L46.95 35.5" fill="#b91c00" fill-rule="evenodd" stroke="none"/>
      <path d="M33.95 36.05 L34.05 36.05 34.45 36.1 35.05 36.15 36.25 36.05 37.45 35.8 38.15 35.6 38.25 36.15 38.25 36.3 39.15 37.95 39.85 39.05 40.15 39.55 41.15 40.65 40.9 40.85 Q39.95 41.1 39.35 41.7 L39.05 41.45 37.15 39.7 36.2 38.5 35.25 37.2 35.15 37.1 34.05 36.4 33.9 36.2 33.95 36.05" fill="#ff8e18" fill-rule="evenodd" stroke="none"/>
      <path d="M38.9 43.05 Q38.9 44.45 39.3 45.65 L40.05 47.25 41.5 49.05 41.3 49.2 38.25 51.5 38.05 51.6 37.15 50.95 Q35.7 49.85 34.25 49.05 L34.05 47.7 33.9 46.4 33.8 44.75 Q33.8 43.2 34.45 41.55 35.1 42.1 36.15 42.5 L38.35 43.0 38.9 43.05 M38.15 43.45 L38.35 43.0 38.15 43.45" fill="#fbbf51" fill-rule="evenodd" stroke="none"/>
      <path d="M20.25 0.0 L24.5 0.0 Q24.75 1.15 25.35 2.2 L22.8 2.8 22.7 2.75 22.55 2.45 21.95 1.15 21.8 1.7 21.55 3.25 20.7 3.6 Q20.35 1.95 20.25 0.0 M24.65 0.0 L31.6 0.0 35.0 2.1 36.05 3.45 35.8 3.35 34.4 2.8 33.85 2.35 Q33.15 1.9 32.6 1.75 L33.15 2.45 28.75 1.95 26.9 2.05 25.85 2.15 25.0 0.75 24.65 0.0" fill="#8fff07" fill-rule="evenodd" stroke="none"/>
      <path d="M24.5 0.0 L24.65 0.0 25.0 0.75 25.85 2.15 26.9 2.05 28.75 1.95 33.15 2.45 32.6 1.75 Q33.15 1.9 33.85 2.35 L34.4 2.8 35.8 3.35 36.05 3.45 36.8 5.3 37.35 6.8 37.8 8.3 36.7 8.55 36.15 8.65 35.65 7.95 35.65 7.9 35.4 7.6 35.5 8.05 35.5 8.8 34.85 8.95 34.75 8.95 33.0 9.25 32.4 8.65 32.95 8.0 33.1 7.85 33.75 7.0 32.5 7.55 31.6 7.95 30.15 6.7 28.7 5.45 Q27.1 4.05 25.85 2.15 L25.35 2.2 25.8 2.95 29.2 6.55 29.6 6.9 28.5 6.75 25.9 6.2 27.2 6.85 27.8 7.15 29.5 7.8 31.05 8.3 31.2 8.45 31.9 9.25 32.05 9.35 31.85 9.4 29.65 9.5 28.5 9.45 27.8 9.4 27.1 9.25 25.9 8.35 25.35 7.9 25.15 8.35 25.1 8.65 25.15 8.85 22.85 8.3 22.8 8.3 Q21.3 6.4 20.7 3.6 L21.55 3.25 21.8 1.7 21.95 1.15 22.55 2.45 22.7 2.75 22.8 2.8 25.35 2.2 Q24.75 1.15 24.5 0.0" fill="#6ae705" fill-rule="evenodd" stroke="none"/>
      <path d="M37.8 8.3 L38.25 11.65 38.0 13.9 37.9 14.35 37.6 14.5 36.9 14.7 36.3 14.85 36.25 14.8 35.3 12.15 34.9 11.2 34.1 10.35 34.05 10.3 33.0 9.25 32.05 9.35 31.9 9.25 31.2 8.45 31.05 8.3 29.5 7.8 27.8 7.15 27.2 6.85 25.9 6.2 28.5 6.75 29.6 6.9 29.2 6.55 25.8 2.95 25.35 2.2 25.85 2.15 Q27.1 4.05 28.7 5.45 L30.15 6.7 31.6 7.95 32.5 7.55 33.75 7.0 33.1 7.85 32.95 8.0 32.4 8.65 33.0 9.25 34.75 8.95 34.85 8.95 35.5 8.8 35.5 8.05 35.4 7.6 35.65 7.9 35.65 7.95 36.15 8.65 36.7 8.55 37.8 8.3 M22.8 8.3 L22.85 8.3 25.15 8.85 25.1 8.65 25.15 8.35 25.35 7.9 25.9 8.35 27.1 9.25 27.8 9.4 28.5 9.45 29.65 9.5 31.85 9.4 32.05 9.35 33.45 11.45 33.75 11.95 34.4 13.25 35.15 14.95 35.0 14.95 34.75 14.95 34.5 14.95 34.4 14.95 34.35 14.9 33.65 14.2 32.5 13.3 Q31.65 12.75 30.9 12.5 L30.3 12.35 30.15 11.3 Q29.55 11.65 28.9 11.95 26.5 11.15 24.9 10.15 L23.35 8.9 22.8 8.3" fill="#51cf0b" fill-rule="evenodd" stroke="none"/>
      <path d="M32.05 9.35 L33.0 9.25 34.05 10.3 34.1 10.35 34.9 11.2 35.3 12.15 36.25 14.8 35.85 14.85 35.3 15.0 34.95 15.05 34.75 15.05 34.75 14.95 35.0 14.95 35.15 14.95 34.4 13.25 33.75 11.95 33.45 11.45 32.05 9.35 M24.8 15.5 Q24.3 16.1 24.05 16.8 L21.4 15.95 20.6 15.6 18.9 14.55 19.45 13.8 19.7 14.0 Q21.3 15.15 23.0 15.45 L24.0 15.5 24.8 15.5" fill="#389802" fill-rule="evenodd" stroke="none"/>
      <path d="M20.75 19.6 L19.8 19.7 19.55 20.5 18.7 22.6 18.55 23.0 18.2 23.6 16.6 22.6 15.75 22.0 15.85 21.6 16.0 20.8 16.0 20.5 16.0 20.3 15.95 19.6 15.25 19.45 14.8 19.3 12.85 18.1 12.65 17.95 12.45 17.8 Q10.9 16.25 10.8 14.0 L10.75 13.65 10.8 12.75 10.8 12.55 10.95 11.8 Q11.65 9.25 11.8 7.1 L11.85 6.05 11.8 4.7 11.9 5.0 12.4 7.25 12.65 8.85 12.75 10.45 12.75 11.65 12.7 12.3 12.6 13.1 12.45 14.55 Q12.8 15.7 13.9 16.7 L14.35 17.05 14.75 17.35 14.95 17.5 15.6 17.85 16.25 18.1 Q17.65 18.65 19.3 18.65 L20.2 18.6 22.4 18.1 22.7 17.95 23.8 17.45 23.95 17.0 24.05 16.8 Q24.3 16.1 24.8 15.5 L24.9 15.4 24.45 14.8 24.1 14.4 24.95 14.5 25.6 14.6 26.05 14.2 26.45 13.9 Q23.8 12.75 22.45 11.3 L22.4 11.2 Q21.05 9.6 20.4 7.55 20.0 6.15 19.85 4.6 L19.8 4.25 19.75 2.9 19.85 0.0 20.25 0.0 Q20.35 1.95 20.7 3.6 21.3 6.4 22.8 8.3 L23.35 8.9 24.9 10.15 Q26.5 11.15 28.9 11.95 29.55 11.65 30.15 11.3 L30.3 12.35 30.9 12.5 Q31.65 12.75 32.5 13.3 L33.65 14.2 34.35 14.9 34.4 14.95 34.5 14.95 34.75 14.95 34.75 15.05 34.95 15.05 35.3 15.0 35.85 14.85 36.25 14.8 36.3 14.85 36.9 14.7 37.6 14.5 37.9 14.35 38.0 15.6 38.0 15.9 37.2 15.85 36.7 15.85 36.5 15.85 35.75 15.8 35.4 15.85 35.2 15.85 35.15 15.85 34.8 15.85 34.4 15.9 34.1 15.6 33.5 15.25 29.75 15.0 29.35 15.1 Q27.6 15.65 25.7 16.9 L25.0 17.35 23.3 18.5 21.75 19.35 20.75 19.6 M29.75 15.0 L27.05 14.15 26.45 13.9 27.05 14.15 29.75 15.0 M19.8 19.7 L17.55 19.75 15.95 19.6 17.55 19.75 19.8 19.7" fill="#2a7e12" fill-rule="evenodd" stroke="none"/>
      <path d="M21.6 11.0 L22.4 11.2 22.45 11.3 Q23.8 12.75 26.45 13.9 L26.05 14.2 25.6 14.6 24.95 14.5 24.1 14.4 24.45 14.8 24.9 15.4 24.8 15.5 24.0 15.5 23.0 15.45 Q21.3 15.15 19.7 14.0 L19.45 13.8 18.9 14.55 18.55 14.15 18.2 13.8 17.35 12.6 16.8 11.35 17.0 11.3 18.85 13.25 19.45 13.8 21.6 11.0 M24.05 16.8 L23.95 17.0 23.8 17.45 22.7 17.95 22.4 18.1 20.2 18.6 19.3 18.65 Q17.65 18.65 16.25 18.1 L15.6 17.85 14.95 17.5 14.75 17.35 14.35 17.05 13.9 16.7 14.0 16.2 15.2 17.15 15.55 17.4 16.5 17.8 17.1 17.0 16.7 16.35 16.65 16.25 16.2 15.5 16.15 15.45 16.15 15.4 16.3 15.45 17.15 15.75 17.9 15.9 18.9 14.55 20.6 15.6 21.4 15.95 24.05 16.8 M15.05 14.05 L15.15 15.35 15.15 15.45 15.25 16.2 15.0 16.05 14.95 16.0 14.3 15.1 14.15 14.8 Q14.15 14.5 14.65 14.1 L15.05 13.8 15.05 14.05" fill="#36b600" fill-rule="evenodd" stroke="none"/>
      <path d="M20.05 10.15 L20.35 10.35 21.1 10.75 21.6 11.0 19.45 13.8 18.85 13.25 17.0 11.3 16.8 11.35 17.35 12.6 18.2 13.8 18.55 14.15 18.9 14.55 17.9 15.9 17.15 15.75 16.3 15.45 16.15 15.4 16.15 15.45 16.2 15.5 16.65 16.25 16.7 16.35 17.1 17.0 16.5 17.8 15.55 17.4 15.2 17.15 14.0 16.2 13.9 16.7 Q12.8 15.7 12.45 14.55 L12.6 13.1 12.7 12.3 12.75 11.65 12.75 10.45 12.85 10.2 13.55 8.8 Q13.4 9.6 13.4 11.05 L13.45 12.2 13.5 12.2 13.5 12.15 13.9 11.3 14.0 11.65 14.2 12.0 15.35 11.75 16.8 11.35 16.6 10.7 17.0 11.3 17.1 11.3 20.05 10.15 M15.05 14.05 L15.05 13.8 14.65 14.1 Q14.15 14.5 14.15 14.8 L14.3 15.1 14.95 16.0 15.0 16.05 15.25 16.2 15.15 15.45 15.15 15.35 15.05 14.05" fill="#57d502" fill-rule="evenodd" stroke="none"/>
      <path d="M19.65 38.65 L18.6 36.5 Q17.25 33.1 17.25 29.5 L17.3 28.75 20.05 28.45 20.6 28.4 20.5 28.45 Q20.1 29.3 20.1 30.6 20.1 32.9 21.25 34.5 L21.95 35.4 22.0 35.95 Q22.0 37.0 21.3 37.9 20.7 38.75 20.2 38.75 L19.65 38.65 M17.9 24.8 Q18.2 23.8 18.65 22.85 L18.9 22.3 Q19.65 20.8 20.75 19.6 L21.75 19.35 23.3 18.5 25.0 17.35 25.7 16.9 Q27.6 15.65 29.35 15.1 L29.75 15.0 33.5 15.25 34.1 15.6 34.4 15.9 34.8 15.85 35.15 15.85 35.2 15.85 35.4 15.85 35.75 15.8 36.5 15.85 36.7 15.85 37.2 15.85 38.0 15.9 38.0 15.6 38.8 15.9 38.3 16.4 38.15 16.55 37.15 17.35 36.75 17.3 35.4 17.15 33.3 17.3 31.55 16.55 Q27.2 16.7 24.0 18.65 L22.7 19.6 Q21.55 21.85 19.95 23.35 L19.35 23.85 17.9 24.8 M38.0 15.9 L38.15 16.55 38.0 15.9 M34.8 16.2 L34.4 15.9 34.8 16.2" fill="#249a06" fill-rule="evenodd" stroke="none"/>
      <path d="M29.7 23.1 L27.7 23.4 23.95 23.95 23.45 23.95 19.95 23.35 Q21.55 21.85 22.7 19.6 L24.0 18.65 Q24.45 19.55 25.75 20.2 L25.9 20.25 Q27.25 20.95 29.1 21.15 L29.05 21.5 Q29.05 22.3 29.7 23.1" fill="#4bc700" fill-rule="evenodd" stroke="none"/>
      <path d="M17.3 28.75 Q17.35 26.7 17.9 24.8 L19.35 23.85 19.95 23.35 23.45 23.95 23.95 23.95 27.7 23.4 29.7 23.1 31.25 24.3 33.1 25.3 28.4 25.15 27.8 25.1 26.1 24.95 23.2 24.35 25.35 27.05 25.9 27.8 27.7 30.05 27.0 29.9 25.5 28.9 24.05 27.75 Q23.2 27.3 22.25 27.2 L21.9 27.2 21.45 27.2 20.6 28.4 20.05 28.45 17.3 28.75" fill="#42ba0d" fill-rule="evenodd" stroke="none"/>
      <path d="M38.5 19.45 L38.5 19.7 38.55 20.35 38.6 20.7 35.45 20.2 32.85 20.65 Q32.3 20.85 32.0 21.15 31.4 21.6 31.4 22.15 L31.45 22.8 Q31.7 23.5 32.4 24.15 L32.8 24.45 33.4 24.8 33.5 25.05 33.6 25.3 33.55 25.3 33.1 25.3 31.25 24.3 29.7 23.1 Q29.05 22.3 29.05 21.5 L29.1 21.15 Q29.3 20.25 30.4 19.6 L31.0 19.3 Q32.05 18.8 33.4 18.8 L38.25 19.4 38.5 19.45" fill="#7ef915" fill-rule="evenodd" stroke="none"/>
      <path d="M24.0 18.65 Q27.2 16.7 31.55 16.55 L33.3 17.3 32.7 17.4 Q30.7 17.8 30.7 18.7 30.7 19.05 31.0 19.3 L30.4 19.6 Q29.3 20.25 29.1 21.15 27.25 20.95 25.9 20.25 L25.75 20.2 Q24.45 19.55 24.0 18.65" fill="#4ccd00" fill-rule="evenodd" stroke="none"/>
      <path d="M31.0 19.3 Q30.7 19.05 30.7 18.7 30.7 17.8 32.7 17.4 L33.3 17.3 36.1 18.0 37.15 17.35 38.25 19.4 33.4 18.8 Q32.05 18.8 31.0 19.3" fill="#61f00a" fill-rule="evenodd" stroke="none"/>
      <path d="M34.55 25.1 Q33.1 24.0 33.1 22.95 33.1 21.8 34.35 21.3 L36.2 21.0 Q36.8 21.0 38.1 21.45 L39.15 21.85 40.1 22.25 39.3 22.65 38.8 22.95 Q36.6 24.2 35.25 25.55 L34.75 25.25 34.75 25.1 34.55 25.1" fill="#fdbb4a" fill-rule="evenodd" stroke="none"/>
      <path d="M11.8 4.7 L11.6 2.95 12.45 3.2 14.85 4.6 15.45 5.05 14.6 6.1 13.4 7.75 12.65 8.85 12.4 7.25 11.9 5.0 11.8 4.7" fill="#8dff07" fill-rule="evenodd" stroke="none"/>
      <path d="M15.45 5.05 Q17.5 6.85 19.0 9.45 L20.05 10.15 17.1 11.3 17.0 11.3 16.6 10.7 16.8 11.35 15.35 11.75 14.2 12.0 14.0 11.65 13.9 11.3 13.5 12.15 13.5 12.2 13.45 12.2 13.4 11.05 Q13.4 9.6 13.55 8.8 L12.85 10.2 12.75 10.45 12.65 8.85 13.4 7.75 14.6 6.1 15.45 5.05" fill="#6ff316" fill-rule="evenodd" stroke="none"/>
      <path d="M6.75 24.4 L6.55 24.1 Q5.45 22.55 5.15 21.5 L5.25 21.6 7.0 23.05 7.15 20.6 9.75 19.05 9.95 18.95 10.55 18.65 11.5 21.1 11.8 22.45 9.75 22.2 8.85 22.05 9.65 22.6 10.6 23.25 12.0 23.9 12.05 24.9 11.3 24.8 10.2 24.6 Q8.45 24.2 7.65 23.55 L7.15 23.2 7.0 23.05 6.9 23.5 6.9 23.55 6.75 24.4" fill="#70e302" fill-rule="evenodd" stroke="none"/>
      <path d="M5.15 21.5 L5.1 21.45 Q5.95 21.3 6.85 20.75 L7.15 20.6 7.0 23.05 5.25 21.6 5.15 21.5" fill="#89ff11" fill-rule="evenodd" stroke="none"/>
      <path d="M11.8 27.8 Q9.15 27.75 6.85 24.6 L6.75 24.4 6.9 23.55 6.9 23.5 7.0 23.05 7.15 23.2 7.65 23.55 Q8.45 24.2 10.2 24.6 L11.3 24.8 12.05 24.9 12.0 23.9 10.6 23.25 9.65 22.6 8.85 22.05 9.75 22.2 11.8 22.45 11.5 21.1 10.55 18.65 11.95 18.15 13.05 19.6 13.4 19.9 13.7 20.25 13.6 20.45 13.05 21.5 13.2 21.5 14.45 21.75 14.6 21.75 15.3 21.65 15.75 22.0 14.8 23.75 14.75 23.85 14.55 23.85 14.2 23.85 13.15 23.65 13.45 24.8 13.05 24.95 12.05 24.9 12.1 25.15 12.1 25.75 11.8 27.8" fill="#4acd03" fill-rule="evenodd" stroke="none"/>
      <path d="M18.2 23.6 L17.8 24.3 Q16.65 26.0 15.05 26.95 13.5 27.8 11.9 27.8 L11.8 27.8 12.1 25.75 12.1 25.15 12.05 24.9 13.05 24.95 13.45 24.8 13.15 23.65 14.2 23.85 14.55 23.85 14.75 23.85 14.8 23.75 15.75 22.0 15.3 21.65 14.6 21.75 14.45 21.75 13.2 21.5 13.05 21.5 13.6 20.45 13.7 20.25 13.4 19.9 13.05 19.6 11.95 18.15 12.65 17.95 12.85 18.1 14.8 19.3 15.25 19.45 15.95 19.6 16.0 20.3 16.0 20.5 16.0 20.8 15.85 21.6 15.75 22.0 16.6 22.6 18.2 23.6" fill="#3ca409" fill-rule="evenodd" stroke="none"/>
      <path d="M3.6 37.1 L4.6 34.75 Q5.3 32.7 5.35 30.8 L6.85 31.6 Q6.7 33.5 5.75 36.3 L6.6 35.85 7.85 35.05 9.45 33.9 10.2 34.7 12.25 37.45 10.35 39.7 9.35 40.8 8.6 39.7 7.8 38.65 7.6 40.4 7.3 42.1 7.15 42.7 6.2 43.45 3.2 45.5 Q2.6 45.85 2.1 46.15 L1.8 44.65 2.85 42.95 3.45 41.7 4.0 42.1 4.25 42.35 5.25 43.0 5.55 41.7 5.55 41.45 5.45 40.1 5.0 40.45 3.55 41.55 4.8 38.7 5.75 36.3 3.6 37.1" fill="#65ba04" fill-rule="evenodd" stroke="none"/>
      <path d="M6.85 31.6 L9.45 33.9 7.85 35.05 6.6 35.85 5.75 36.3 Q6.7 33.5 6.85 31.6" fill="#80c604" fill-rule="evenodd" stroke="none"/>
      <path d="M12.25 37.45 Q14.1 40.35 14.35 43.35 L14.4 44.5 Q14.4 46.9 12.85 49.6 L11.3 51.85 10.3 53.0 8.65 53.0 7.0 52.2 6.15 51.7 Q3.05 49.6 2.1 46.15 L0.0 47.2 0.0 42.8 2.0 39.8 3.6 37.1 5.75 36.3 4.8 38.7 3.55 41.55 5.0 40.45 5.45 40.1 5.55 41.45 5.55 41.7 5.25 43.0 4.25 42.35 4.0 42.1 3.45 41.7 2.85 42.95 1.8 44.65 2.1 46.15 Q2.6 45.85 3.2 45.5 L6.2 43.45 7.15 42.7 7.3 42.1 7.6 40.4 7.8 38.65 8.6 39.7 9.35 40.8 10.35 39.7 12.25 37.45" fill="#2ba001" fill-rule="evenodd" stroke="none"/>
      <path d="M8.65 53.0 L1.05 53.0 0.95 52.0 1.0 51.6 0.95 51.25 0.0 48.4 0.0 47.2 2.1 46.15 Q3.05 49.6 6.15 51.7 L7.0 52.2 8.65 53.0" fill="#288c05" fill-rule="evenodd" stroke="none"/>
      <path d="M20.6 40.3 L20.5 40.1 19.65 38.65 20.2 38.75 Q20.7 38.75 21.3 37.9 22.0 37.0 22.0 35.95 L21.95 35.4 21.25 34.5 Q20.1 32.9 20.1 30.6 20.1 29.3 20.5 28.45 L20.6 28.4 21.45 27.2 21.9 27.2 22.25 27.2 Q23.2 27.3 24.05 27.75 L25.5 28.9 27.0 29.9 27.7 30.05 28.6 30.8 27.55 30.85 Q25.75 30.85 23.85 29.9 L23.75 29.85 23.25 29.55 21.95 28.65 21.4 29.65 Q20.9 30.75 20.9 31.6 20.9 33.1 22.05 34.4 L22.15 34.55 22.7 35.05 23.05 36.7 23.05 37.25 23.0 38.1 22.4 38.0 21.6 38.2 21.1 38.55 20.85 38.9 Q20.6 39.35 20.6 39.9 L20.6 40.3" fill="#38af08" fill-rule="evenodd" stroke="none"/>
      <path d="M14.35 43.35 L14.55 43.2 Q14.8 45.25 16.6 47.15 17.7 48.35 18.8 48.95 L19.9 51.85 20.15 52.5 16.55 52.0 16.25 51.85 15.75 51.55 15.7 51.75 14.5 50.95 12.85 49.6 Q14.4 46.9 14.4 44.5 L14.35 43.35" fill="#198f00" fill-rule="evenodd" stroke="none"/>
      <path d="M14.55 43.2 Q15.9 42.3 17.15 41.75 17.2 42.75 17.6 43.35 L20.0 46.05 Q22.35 48.4 22.75 52.2 L22.45 52.2 20.55 52.5 20.15 52.5 19.9 51.85 18.8 48.95 Q17.7 48.35 16.6 47.15 14.8 45.25 14.55 43.2" fill="#159303" fill-rule="evenodd" stroke="none"/>
      <path d="M33.1 25.3 L33.55 25.3 33.6 25.3 34.8 25.8 35.7 26.3 35.8 26.35 35.95 26.45 36.0 27.4 35.95 28.1 35.7 28.8 35.55 28.65 35.35 28.4 35.05 28.1 34.45 27.65 33.95 27.4 33.35 27.2 31.9 26.9 30.6 26.7 30.3 26.4 29.75 26.1 29.65 26.1 29.6 26.1 29.25 26.25 Q28.9 26.5 28.85 26.85 L28.4 26.9 28.2 26.95 27.95 27.05 27.95 26.7 Q28.05 25.85 28.4 25.15 L33.1 25.3" fill="#600f6e" fill-rule="evenodd" stroke="none"/>
      <path d="M25.35 27.05 L23.2 24.35 26.1 24.95 27.8 25.1 28.4 25.15 Q28.05 25.85 27.95 26.7 L27.9 26.65 27.3 26.5 26.5 26.55 25.7 26.8 25.35 27.05 M35.95 28.1 L36.0 27.4 35.95 26.45 38.25 28.4 39.15 29.4 38.5 29.35 37.0 29.6 36.95 29.65 36.5 28.65 35.95 28.1" fill="#bfdbb5" fill-rule="evenodd" stroke="none"/>
      <path d="M27.7 30.05 L25.9 27.8 25.35 27.05 25.7 26.8 26.5 26.55 27.3 26.5 27.9 26.65 27.95 26.7 27.95 27.05 Q27.95 28.15 28.7 29.25 L29.2 29.95 30.0 30.55 30.35 30.7 30.7 30.8 31.7 31.0 32.15 31.05 30.8 31.2 30.45 31.2 29.55 31.15 29.15 31.15 28.6 30.8 27.7 30.05 M36.95 29.65 L36.65 29.7 36.3 29.9 36.1 30.05 35.3 30.3 33.85 30.7 34.35 30.35 35.5 29.2 35.5 29.15 35.55 29.05 35.7 28.8 35.95 28.1 36.5 28.65 36.95 29.65 M30.6 26.7 L30.75 27.1 Q30.75 27.8 30.0 27.9 L29.8 27.9 29.25 27.8 29.2 27.75 28.75 27.2 28.75 27.1 28.85 26.85 Q28.9 26.5 29.25 26.25 L29.6 26.1 29.65 26.1 29.75 26.1 30.3 26.4 30.6 26.7" fill="#fffeff" fill-rule="evenodd" stroke="none"/>
      <path d="M35.7 28.8 L35.55 29.05 33.6 29.2 33.5 29.2 31.6 29.1 31.45 29.05 30.1 28.4 29.35 28.05 27.95 27.05 28.2 26.95 28.4 26.9 28.85 26.85 28.75 27.1 28.75 27.2 29.2 27.75 29.25 27.8 29.8 27.9 30.0 27.9 Q30.75 27.8 30.75 27.1 L30.6 26.7 31.9 26.9 33.35 27.2 33.95 27.4 34.45 27.65 35.05 28.1 35.35 28.4 35.55 28.65 35.7 28.8" fill="#7d0098" fill-rule="evenodd" stroke="none"/>
      <path d="M32.6 30.95 L32.15 31.05 31.7 31.0 30.7 30.8 30.35 30.7 30.0 30.55 29.2 29.95 28.7 29.25 Q27.95 28.15 27.95 27.05 L29.35 28.05 30.1 28.4 31.45 29.05 31.6 29.1 33.5 29.2 33.6 29.2 35.55 29.05 35.5 29.15 35.5 29.2 34.35 30.35 33.85 30.7 32.6 30.95" fill="#9c00ab" fill-rule="evenodd" stroke="none"/>
      <path d="M33.6 25.3 L33.5 25.05 33.4 24.8 34.55 25.1 34.75 25.1 34.75 25.25 34.8 25.7 34.8 25.8 33.6 25.3" fill="#5bdf00" fill-rule="evenodd" stroke="none"/>
      <path d="M26.85 47.0 L23.65 44.05 22.05 42.25 22.65 41.45 Q24.05 39.2 24.05 37.15 L23.95 35.85 26.25 33.8 28.25 32.2 31.8 32.5 32.4 32.45 Q31.05 34.6 29.8 38.35 28.8 41.4 27.9 45.45 L27.65 46.55 27.6 47.0 26.85 47.0" fill="#ffea66" fill-rule="evenodd" stroke="none"/>
      <path d="M23.95 35.85 L23.75 34.8 23.6 34.45 22.6 33.45 Q22.05 32.6 22.05 31.95 22.05 31.4 22.5 30.65 L22.9 30.05 Q23.95 31.15 26.2 31.8 L28.25 32.2 26.25 33.8 23.95 35.85" fill="#ffce59" fill-rule="evenodd" stroke="none"/>
      <path d="M29.8 38.35 L30.85 38.85 34.8 40.8 34.45 41.55 Q33.8 43.2 33.8 44.75 L33.9 46.4 34.05 47.7 34.25 49.05 32.55 48.25 31.9 48.0 31.2 47.75 29.3 47.25 27.6 47.0 27.65 46.55 27.9 45.45 Q28.8 41.4 29.8 38.35" fill="#fee360" fill-rule="evenodd" stroke="none"/>
      <path d="M35.95 53.0 L32.65 53.0 Q32.05 51.5 30.9 50.15 L30.6 49.8 30.3 49.5 30.0 49.3 27.5 47.45 26.85 47.0 27.6 47.0 29.3 47.25 31.2 47.75 31.9 48.0 32.55 48.25 34.25 49.05 Q35.7 49.85 37.15 50.95 L38.05 51.6 36.65 52.55 35.95 53.0" fill="#ffeb6c" fill-rule="evenodd" stroke="none"/>
      <path d="M40.15 53.0 L37.05 53.0 36.65 52.55 38.05 51.6 38.25 51.5 40.15 53.0" fill="#fbe158" fill-rule="evenodd" stroke="none"/>
      <path d="M41.3 49.2 L44.15 53.0 40.15 53.0 38.25 51.5 41.3 49.2" fill="#f7c552" fill-rule="evenodd" stroke="none"/>
      <path d="M37.05 53.0 L35.95 53.0 36.65 52.55 37.05 53.0" fill="#fff16a" fill-rule="evenodd" stroke="none"/>
      <path d="M32.65 53.0 L32.4 53.0 32.05 52.35 30.9 50.2 30.9 50.15 Q32.05 51.5 32.65 53.0" fill="#fcd259" fill-rule="evenodd" stroke="none"/>
      <path d="M22.75 52.2 L23.55 52.0 26.0 51.75 27.55 52.15 26.25 53.0 20.4 53.0 20.55 52.5 22.45 52.2 22.75 52.2" fill="#129000" fill-rule="evenodd" stroke="none"/>
      <path d="M27.55 52.15 L28.9 53.0 26.25 53.0 27.55 52.15" fill="#1c9603" fill-rule="evenodd" stroke="none"/>
      <path d="M20.4 53.0 L16.75 53.0 16.65 52.55 16.6 52.2 16.55 52.0 20.15 52.5 20.55 52.5 20.4 53.0" fill="#189900" fill-rule="evenodd" stroke="none"/>
      <path d="M16.75 53.0 L15.65 53.0 15.7 51.75 15.75 51.55 16.25 51.85 16.55 52.0 16.6 52.2 16.65 52.55 16.75 53.0" fill="#38b200" fill-rule="evenodd" stroke="none"/>
      <path d="M15.65 53.0 L10.3 53.0 11.3 51.85 12.85 49.6 14.5 50.95 15.7 51.75 15.65 53.0" fill="#1fa100" fill-rule="evenodd" stroke="none"/>
      <path d="M1.05 53.0 L0.0 53.0 0.0 51.8 0.95 51.25 1.0 51.6 0.95 52.0 1.05 53.0" fill="#6fce0e" fill-rule="evenodd" stroke="none"/>
      <path d="M0.0 51.8 L0.0 48.4 0.95 51.25 0.0 51.8" fill="#4dd604" fill-rule="evenodd" stroke="none"/>
      <path d="M38.8 15.9 Q41.45 17.0 43.4 19.2 L44.35 20.4 45.0 21.35 46.1 23.8 46.1 23.85 46.4 24.75 Q46.9 26.7 47.05 29.0 L47.05 29.3 M47.7 29.4 L47.45 29.1 M50.4 36.95 L50.65 37.1 Q52.6 38.15 53.55 39.2 53.45 37.35 52.95 35.6 L52.9 35.4 52.2 33.75 51.7 32.9 51.0 31.9 50.95 31.8 Q50.1 30.85 49.05 30.3 L48.7 30.05 47.7 29.4 M50.4 36.95 L50.25 36.85 50.15 36.8 Q48.5 35.95 46.95 35.5 L44.95 35.05 43.55 34.95 43.45 34.95 42.05 35.05 40.1 35.25 39.85 35.3 39.75 35.35 38.15 35.6 37.45 35.8 36.25 36.05 35.05 36.15 34.45 36.1 34.05 36.05 33.95 36.05 33.75 36.0 M46.25 38.25 L50.4 37.15 50.65 37.1 M42.65 39.75 L43.6 39.25 44.75 38.75 46.25 38.25 M42.65 39.75 Q41.85 40.15 41.15 40.65 L40.9 40.85 Q39.95 41.1 39.35 41.7 L38.95 42.05 38.9 42.95 38.9 43.05 Q38.9 44.45 39.3 45.65 L40.05 47.25 41.5 49.05 41.95 49.6 M41.3 49.2 L44.15 53.0 M32.4 53.0 L32.05 52.35 30.9 50.2 30.9 50.15 30.6 49.8 30.3 49.5 30.0 49.3 27.5 47.45 26.85 47.0 23.65 44.05 22.05 42.25 20.6 40.3 20.5 40.1 19.65 38.65 18.6 36.5 Q17.25 33.1 17.25 29.5 L17.3 28.75 Q17.35 26.7 17.9 24.8 18.2 23.8 18.65 22.85 L18.9 22.3 Q19.65 20.8 20.75 19.6 L19.8 19.7 19.55 20.5 18.7 22.6 18.55 23.0 18.2 23.6 17.8 24.3 Q16.65 26.0 15.05 26.95 13.5 27.8 11.9 27.8 L11.8 27.8 Q9.15 27.75 6.85 24.6 L6.75 24.4 6.55 24.1 Q5.45 22.55 5.15 21.5 L5.1 21.45 Q5.95 21.3 6.85 20.75 L7.15 20.6 9.75 19.05 9.95 18.95 10.55 18.65 11.95 18.15 12.65 17.95 12.45 17.8 Q10.9 16.25 10.8 14.0 L10.75 13.65 10.8 12.75 10.8 12.55 10.95 11.8 Q11.65 9.25 11.8 7.1 L11.85 6.05 11.8 4.7 11.6 2.95 12.45 3.2 14.85 4.6 15.45 5.05 Q17.5 6.85 19.0 9.45 L20.05 10.15 20.35 10.35 21.1 10.75 21.6 11.0 22.4 11.2 Q21.05 9.6 20.4 7.55 20.0 6.15 19.85 4.6 M19.8 4.25 L19.75 2.9 19.85 0.0 M31.6 0.0 L35.0 2.1 36.05 3.45 36.8 5.3 37.35 6.8 37.8 8.3 38.25 11.65 38.0 13.9 37.9 14.35 38.0 15.6 38.8 15.9 M38.15 16.55 L38.25 16.9 M22.4 11.2 L22.45 11.3 Q23.8 12.75 26.45 13.9 L27.05 14.15 29.75 15.0 33.5 15.25 34.1 15.6 34.4 15.9 34.8 16.2 M38.0 15.9 L38.0 15.6 M20.75 19.6 L21.75 19.35 23.3 18.5 25.0 17.35 25.7 16.9 Q27.6 15.65 29.35 15.1 L29.75 15.0 M38.15 16.55 L38.0 15.9 M33.1 25.3 L33.55 25.3 33.6 25.3 34.8 25.8 35.7 26.3 35.8 26.35 35.95 26.45 38.25 28.4 39.15 29.4 38.5 29.35 37.0 29.6 36.95 29.65 36.65 29.7 36.3 29.9 36.1 30.05 35.3 30.3 33.85 30.7 33.35 30.85 32.6 30.95 32.15 31.05 30.8 31.2 30.45 31.2 29.55 31.15 29.15 31.15 28.6 30.8 27.7 30.05 25.9 27.8 25.35 27.05 23.2 24.35 26.1 24.95 27.8 25.1 28.4 25.15 33.1 25.3 M12.65 17.95 L12.85 18.1 14.8 19.3 15.25 19.45 15.95 19.6 17.55 19.75 19.8 19.7 M3.6 37.1 L4.6 34.75 Q5.3 32.7 5.35 30.8 L6.85 31.6 9.45 33.9 10.2 34.7 12.25 37.45 Q14.1 40.35 14.35 43.35 L14.55 43.2 Q15.9 42.3 17.15 41.75 17.2 42.75 17.6 43.35 L20.0 46.05 Q22.35 48.4 22.75 52.2 L23.55 52.0 26.0 51.75 27.55 52.15 28.9 53.0 M0.0 42.8 L2.0 39.8 3.6 37.1 M14.35 43.35 L14.4 44.5 Q14.4 46.9 12.85 49.6 L11.3 51.85 10.3 53.0 M15.7 51.75 L15.75 51.55 16.25 51.85 16.55 52.0 20.15 52.5 20.55 52.5 22.45 52.2 22.75 52.2 M35.95 28.1 L36.0 27.4 35.95 26.45 M35.55 29.05 L35.7 28.8 35.95 28.1 M35.55 29.05 L35.5 29.15 M35.5 29.2 L34.35 30.35 33.85 30.7 32.6 30.95 M27.95 27.05 Q27.95 28.15 28.7 29.25 L29.2 29.95 30.0 30.55 30.35 30.7 30.7 30.8 31.7 31.0 32.15 31.05 M27.95 26.7 L27.95 27.05 M27.95 26.7 Q28.05 25.85 28.4 25.15 M38.95 42.05 L39.05 41.45 M38.35 43.0 L38.95 42.05 M38.35 43.0 L38.15 43.45 M30.9 50.15 Q32.05 51.5 32.65 53.0 M15.65 53.0 L15.7 51.75 M0.95 51.25 L1.0 51.6 0.95 52.0 1.05 53.0 M0.95 51.25 L0.0 48.4" fill="none" stroke="#511213" stroke-linecap="round" stroke-linejoin="round" stroke-width="1.0"/>
    </g>
    <g id="shape2" transform="matrix(1.0, 0.0, 0.0, 1.0, 0.0, 0.0)">
      <path d="M50.5 0.0 Q53.95 0.0 53.95 3.3 L53.95 50.15 Q53.95 53.4 50.5 53.4 L3.3 53.4 Q0.0 53.4 0.0 50.15 L0.0 3.3 Q0.0 0.0 3.3 0.0 L50.5 0.0" fill="#000000" fill-opacity="0.003921569" fill-rule="evenodd" stroke="none"/>
    </g>
  </defs>
</svg>
