<?xml version="1.0" encoding="UTF-8" standalone="no"?>
<svg xmlns:ffdec="https://www.free-decompiler.com/flash" xmlns:xlink="http://www.w3.org/1999/xlink" ffdec:objectType="frame" height="54.75px" width="54.7px" xmlns="http://www.w3.org/2000/svg">
  <g transform="matrix(1.0, 0.0, 0.0, 1.0, 0.75, 0.75)">
    <clipPath id="clipPath0" transform="matrix(1.0, 0.0, 0.0, 1.0, 0.0, 0.0)">
      <path d="M50.5 0.0 Q53.95 0.0 53.95 3.3 L53.95 50.15 Q53.95 53.4 50.5 53.4 L3.3 53.4 Q0.0 53.4 0.0 50.15 L0.0 3.3 Q0.0 0.0 3.3 0.0 L50.5 0.0" fill="#000000" fill-rule="evenodd" stroke="none"/>
    </clipPath>
    <g clip-path="url(#clipPath0)">
      <use ffdec:characterId="2" height="54.75" transform="matrix(1.0, 0.0, 0.0, 1.0, -0.75, -0.75)" width="54.35" xlink:href="#shape1"/>
    </g>
    <use ffdec:characterId="3" height="53.4" transform="matrix(1.0, 0.0, 0.0, 1.0, 0.0, 0.0)" width="53.95" xlink:href="#shape2"/>
  </g>
  <defs>
    <g id="shape1" transform="matrix(1.0, 0.0, 0.0, 1.0, 0.75, 0.75)">
      <path d="M9.2 -0.25 L10.0 -0.25 9.45 0.45 9.2 -0.25" fill="#b8024d" fill-rule="evenodd" stroke="none"/>
      <path d="M11.05 -0.25 L18.1 -0.25 18.25 -0.2 18.4 -0.05 17.35 0.2 Q15.4 0.85 13.95 1.85 L12.55 1.0 11.05 -0.25" fill="#de202c" fill-rule="evenodd" stroke="none"/>
      <path d="M9.45 0.45 L10.0 -0.25 11.05 -0.25 12.55 1.0 13.95 1.85 16.5 2.9 14.2 4.0 12.2 5.1 10.05 2.7 10.85 2.6 10.65 2.4 9.8 1.2 9.45 0.45" fill="#ce014e" fill-rule="evenodd" stroke="none"/>
      <path d="M9.2 -0.25 L9.45 0.45 9.8 1.2 10.65 2.4 10.85 2.6 10.05 2.7 9.95 2.7 5.9 2.0 6.55 1.0 6.1 -0.25 9.2 -0.25" fill="#9d0043" fill-rule="evenodd" stroke="none"/>
      <path d="M20.6 1.3 L22.05 2.15 23.95 3.4 24.6 3.8 23.5 4.35 22.05 5.2 21.55 4.8 20.7 4.3 20.1 3.9 16.5 2.9 13.95 1.85 Q15.4 0.85 17.35 0.2 L18.4 -0.05 20.6 1.3" fill="#ff4e0f" fill-rule="evenodd" stroke="none"/>
      <path d="M18.25 -0.2 L18.5 -0.05 21.05 0.5 20.8 0.0 20.8 -0.25 24.25 -0.25 24.65 0.15 20.6 1.3 18.4 -0.05 18.25 -0.2" fill="#bf0042" fill-rule="evenodd" stroke="none"/>
      <path d="M24.65 0.15 L26.65 1.95 23.95 3.4 22.05 2.15 20.6 1.3 24.65 0.15" fill="#e80844" fill-rule="evenodd" stroke="none"/>
      <path d="M34.5 6.85 L35.6 7.45 Q35.9 10.3 36.8 13.3 L35.6 13.45 35.2 12.6 Q34.45 10.25 34.45 7.8 L34.5 6.85" fill="#eb282e" fill-rule="evenodd" stroke="none"/>
      <path d="M42.5 12.6 L42.8 12.9 43.45 13.6 43.4 13.9 43.35 14.7 43.55 17.6 42.7 17.4 42.15 17.15 42.15 16.95 Q42.15 14.8 42.45 12.9 L42.5 12.6" fill="#f13a12" fill-rule="evenodd" stroke="none"/>
      <path d="M42.8 12.9 L42.85 12.65 45.15 15.55 45.75 16.45 45.95 16.7 47.7 19.55 46.45 19.35 43.8 18.9 43.55 17.6 43.35 14.7 43.4 13.9 43.45 13.6 43.95 14.15 45.75 16.45 43.95 14.15 43.45 13.6 42.8 12.9" fill="#ff6c09" fill-rule="evenodd" stroke="none"/>
      <path d="M43.55 17.6 L43.8 18.9 44.1 20.15 44.25 20.65 44.5 21.35 43.8 23.1 43.75 23.25 43.6 23.8 42.8 21.6 Q42.2 19.4 42.15 17.15 L42.7 17.4 43.55 17.6" fill="#ee3c22" fill-rule="evenodd" stroke="none"/>
      <path d="M35.6 13.45 L36.8 13.3 Q37.4 15.6 38.3 17.95 L36.85 15.95 35.6 13.45" fill="#f22e2f" fill-rule="evenodd" stroke="none"/>
      <path d="M47.8 19.6 L48.05 20.1 48.4 20.7 49.4 23.15 49.1 23.5 Q48.2 24.8 47.3 24.85 L47.3 24.9 47.25 24.85 45.5 23.2 45.3 22.95 44.5 21.35 44.25 20.65 44.1 20.15 43.8 18.9 46.45 19.35 47.7 19.55 47.8 19.6" fill="#f88e04" fill-rule="evenodd" stroke="none"/>
      <path d="M40.45 22.95 L40.0 24.2 39.8 24.6 39.55 23.75 39.15 22.65 38.1 19.8 37.9 19.3 37.6 18.55 37.0 17.35 35.25 14.35 34.8 13.6 34.25 12.9 34.15 12.8 35.2 12.6 35.6 13.45 36.85 15.95 38.3 17.95 39.55 20.95 39.9 21.8 40.45 22.95" fill="#fa810e" fill-rule="evenodd" stroke="none"/>
      <path d="M43.25 32.0 L42.65 30.7 41.45 28.1 39.8 24.65 39.8 24.6 40.0 24.2 40.45 22.95 41.05 24.2 Q42.8 27.8 44.7 30.95 44.2 31.75 43.45 31.95 L43.25 32.0" fill="#c51d03" fill-rule="evenodd" stroke="none"/>
      <path d="M39.8 24.6 L39.8 24.65 40.0 25.2 40.05 25.95 40.05 26.65 40.2 27.8 40.4 29.3 40.55 30.55 40.65 31.05 Q39.8 30.25 38.7 28.3 L37.35 26.4 37.15 24.05 36.65 22.7 36.45 22.35 36.15 21.7 35.75 20.7 38.1 19.8 39.15 22.65 39.55 23.75 39.8 24.6" fill="#f0a800" fill-rule="evenodd" stroke="none"/>
      <path d="M47.2 30.25 L47.0 30.15 44.05 24.75 43.85 24.35 43.6 23.8 43.75 23.25 43.8 23.1 44.5 21.35 45.3 22.95 45.5 23.2 47.25 24.85 47.3 24.9 47.25 25.15 Q47.1 26.15 47.1 27.45 L47.2 30.25" fill="#f33b19" fill-rule="evenodd" stroke="none"/>
      <path d="M49.4 23.15 L49.6 24.05 49.65 24.35 50.2 27.4 50.3 28.4 50.4 29.75 50.4 29.8 Q49.65 30.45 48.45 30.45 L47.95 30.45 47.5 30.3 47.2 30.25 47.1 27.45 Q47.1 26.15 47.25 25.15 L47.3 24.9 47.3 24.85 Q48.2 24.8 49.1 23.5 L49.4 23.15 M50.05 34.45 L49.9 35.2 49.25 36.0 48.9 36.15 49.8 34.8 50.05 34.45" fill="#f23316" fill-rule="evenodd" stroke="none"/>
      <path d="M27.75 47.6 L27.6 47.7 27.6 47.6 27.75 47.6 M39.8 24.65 L41.45 28.1 42.65 30.7 43.25 32.0 42.8 32.0 Q41.55 31.85 40.7 31.1 L40.65 31.05 40.55 30.55 40.4 29.3 40.2 27.8 40.05 26.65 40.05 25.95 40.0 25.2 39.8 24.65 M32.15 22.6 L32.1 22.15 34.15 23.55 34.2 23.65 33.15 23.05 32.15 22.6 M16.4 45.3 L16.5 45.25 16.55 45.1 18.4 43.6 Q20.7 44.75 23.95 45.05 L23.75 45.45 23.35 46.2 22.95 47.1 22.7 47.6 22.25 47.4 21.3 47.15 20.9 47.45 20.6 47.05 20.1 47.0 19.7 47.0 16.95 45.65 16.45 45.3 16.4 45.3 M30.1 44.15 L30.5 43.95 30.25 44.1 30.1 44.15 M34.1 41.55 L35.25 40.4 34.95 40.9 34.95 40.75 34.1 41.55 M26.15 45.45 L26.1 45.4 25.9 45.15 26.1 45.15 28.6 44.85 Q27.1 45.45 26.15 45.45 M34.95 40.75 L35.25 40.4 34.95 40.75" fill="#e41623" fill-rule="evenodd" stroke="none"/>
      <path d="M31.1 5.05 L32.85 6.05 34.5 6.85 34.45 7.8 Q34.45 10.25 35.2 12.6 L34.15 12.8 30.6 8.7 29.5 7.65 27.9 6.3 Q29.45 5.6 31.1 5.05" fill="#ff5813" fill-rule="evenodd" stroke="none"/>
      <path d="M28.75 10.9 L28.8 10.85 29.1 10.45 29.2 10.55 Q29.65 10.9 30.25 10.9 30.8 10.9 30.8 10.35 30.8 9.8 29.95 9.35 L30.6 8.7 34.15 12.8 34.25 12.9 33.75 13.75 33.6 13.9 33.45 14.15 33.05 14.85 32.65 15.45 32.35 15.05 31.1 13.45 28.75 10.9" fill="#ff9e02" fill-rule="evenodd" stroke="none"/>
      <path d="M29.1 10.45 Q28.6 10.05 28.6 9.3 L28.65 9.05 28.75 9.05 29.95 9.35 Q30.8 9.8 30.8 10.35 30.8 10.9 30.25 10.9 29.65 10.9 29.2 10.55 L29.1 10.45" fill="#ffb207" fill-rule="evenodd" stroke="none"/>
      <path d="M22.05 5.2 L23.5 4.35 24.6 3.8 27.9 6.3 29.5 7.65 30.6 8.7 29.95 9.35 28.75 9.05 28.65 9.05 28.6 9.3 Q28.6 10.05 29.1 10.45 L28.8 10.85 28.75 10.9 28.65 10.8 27.65 9.85 26.9 9.15 25.15 7.55 24.55 7.05 22.05 5.2" fill="#ff6e18" fill-rule="evenodd" stroke="none"/>
      <path d="M26.65 1.95 L31.1 5.05 Q29.45 5.6 27.9 6.3 L24.6 3.8 23.95 3.4 26.65 1.95" fill="#ff4320" fill-rule="evenodd" stroke="none"/>
      <path d="M21.55 4.8 L22.05 5.2 24.55 7.05 25.15 7.55 26.9 9.15 27.65 9.85 28.65 10.8 27.4 10.2 26.5 9.85 23.25 8.6 21.85 8.15 21.1 7.9 Q19.65 7.4 18.35 7.05 L21.05 5.15 21.55 4.8" fill="#ff461f" fill-rule="evenodd" stroke="none"/>
      <path d="M16.5 2.9 L20.1 3.9 20.7 4.3 21.55 4.8 21.05 5.15 18.35 7.05 14.45 5.95 12.7 5.55 11.7 5.4 12.2 5.1 14.2 4.0 16.5 2.9" fill="#fe1c32" fill-rule="evenodd" stroke="none"/>
      <path d="M21.1 7.9 L21.85 8.15 23.25 8.6 26.5 9.85 24.8 11.85 23.9 12.85 Q21.8 11.6 19.95 10.8 L16.3 9.65 Q17.45 9.05 19.5 8.35 L21.1 7.9" fill="#f68302" fill-rule="evenodd" stroke="none"/>
      <path d="M28.65 10.8 L28.75 10.9 31.1 13.45 32.35 15.05 28.45 15.85 27.0 14.8 26.85 14.75 23.9 12.85 24.8 11.85 26.5 9.85 27.4 10.2 28.65 10.8 M25.95 11.8 L25.65 11.85 25.6 11.85 25.55 12.1 Q25.55 12.65 26.4 13.05 L27.1 13.35 27.4 13.35 Q28.2 13.35 28.2 12.95 28.2 12.4 27.25 12.05 L27.15 12.05 26.1 11.8 25.95 11.8" fill="#fda402" fill-rule="evenodd" stroke="none"/>
      <path d="M25.95 11.8 L26.1 11.8 27.15 12.05 27.25 12.05 Q28.2 12.4 28.2 12.95 28.2 13.35 27.4 13.35 L27.1 13.35 26.4 13.05 Q25.55 12.65 25.55 12.1 L25.6 11.85 25.65 11.85 25.95 11.8" fill="#ffaf07" fill-rule="evenodd" stroke="none"/>
      <path d="M26.85 14.75 L27.0 14.8 28.45 15.85 31.8 18.5 31.85 18.5 32.05 18.65 32.15 18.75 34.05 20.35 35.7 21.9 31.85 19.6 31.35 19.35 30.9 19.1 30.5 18.9 Q26.1 16.6 23.85 15.8 L26.85 14.75" fill="#ff9107" fill-rule="evenodd" stroke="none"/>
      <path d="M23.9 12.85 L26.85 14.75 23.85 15.8 23.5 15.7 23.2 15.65 22.05 15.35 19.5 14.8 18.45 14.6 17.95 14.55 17.8 14.5 17.35 14.4 16.15 14.2 Q17.8 12.4 19.95 10.8 21.8 11.6 23.9 12.85" fill="#fd6f0b" fill-rule="evenodd" stroke="none"/>
      <path d="M20.25 15.95 L20.25 16.15 Q20.25 16.6 20.7 16.85 L20.95 17.05 21.45 17.15 21.65 17.15 Q22.25 17.05 22.25 16.55 L22.25 16.45 21.9 16.05 21.7 15.9 20.8 15.7 20.35 15.7 20.25 15.7 20.25 15.95 M22.65 17.9 L21.55 17.55 20.4 17.3 19.9 17.15 18.2 16.75 17.25 16.6 17.25 16.45 17.3 14.75 17.35 14.65 17.35 14.4 17.8 14.5 17.95 14.55 18.45 14.6 19.5 14.8 22.05 15.35 23.2 15.65 23.5 15.7 23.3 16.05 22.8 17.35 22.65 17.9" fill="#ff7f14" fill-rule="evenodd" stroke="none"/>
      <path d="M26.5 19.35 L25.8 19.05 22.65 17.9 22.8 17.35 23.3 16.05 23.5 15.7 23.85 15.8 Q26.1 16.6 30.5 18.9 L30.9 19.1 31.35 19.35 31.85 19.6 35.7 21.9 36.65 22.7 37.15 24.05 37.35 26.4 35.2 24.35 34.2 23.65 34.15 23.55 32.1 22.15 Q29.65 20.6 26.5 19.35" fill="#fd9c00" fill-rule="evenodd" stroke="none"/>
      <path d="M20.35 15.7 L20.8 15.7 21.7 15.9 21.9 16.05 22.25 16.45 22.25 16.55 Q22.25 17.05 21.65 17.15 L21.45 17.15 20.95 17.05 20.7 16.85 Q20.25 16.6 20.25 16.15 L20.25 15.95 20.35 15.75 20.35 15.7" fill="#ffb301" fill-rule="evenodd" stroke="none"/>
      <path d="M19.9 17.15 L20.4 17.3 21.55 17.55 22.65 17.9 25.8 19.05 26.5 19.35 26.35 19.35 23.45 19.7 21.6 20.0 21.05 19.35 Q20.35 18.5 20.0 17.5 L19.9 17.15" fill="#f88e00" fill-rule="evenodd" stroke="none"/>
      <path d="M21.6 20.0 L23.45 19.7 26.35 19.35 Q25.75 19.5 25.2 19.85 24.4 20.35 24.25 20.9 L23.25 20.8 Q22.35 20.6 21.6 20.0" fill="#ff9611" fill-rule="evenodd" stroke="none"/>
      <path d="M26.35 19.35 L26.5 19.35 Q29.65 20.6 32.1 22.15 L32.15 22.6 Q30.2 21.9 27.7 21.9 L27.15 21.9 24.55 22.15 23.7 22.25 23.35 21.25 23.25 20.8 24.25 20.9 Q24.4 20.35 25.2 19.85 25.75 19.5 26.35 19.35" fill="#f05e0b" fill-rule="evenodd" stroke="none"/>
      <path d="M19.9 17.15 L20.0 17.5 Q20.35 18.5 21.05 19.35 L21.6 20.0 Q22.35 20.6 23.25 20.8 L23.35 21.25 23.7 22.25 22.95 22.45 21.75 21.95 Q19.95 20.95 19.65 18.65 L17.95 20.15 17.95 19.45 18.0 18.5 18.2 16.85 18.2 16.75 19.9 17.15" fill="#ed4715" fill-rule="evenodd" stroke="none"/>
      <path d="M34.25 12.9 L34.8 13.6 35.25 14.35 37.0 17.35 37.6 18.55 37.9 19.3 38.1 19.8 35.75 20.7 34.75 18.75 34.7 18.6 34.15 17.65 32.65 15.45 33.05 14.85 33.45 14.15 33.6 13.9 33.75 13.75 34.25 12.9" fill="#ffa103" fill-rule="evenodd" stroke="none"/>
      <path d="M34.75 18.75 L35.75 20.7 36.15 21.7 36.45 22.35 36.65 22.7 35.7 21.9 34.05 20.35 32.15 18.75 32.05 18.65 32.7 18.65 33.4 18.65 34.75 18.75" fill="#f0b404" fill-rule="evenodd" stroke="none"/>
      <path d="M28.45 15.85 L32.35 15.05 32.65 15.45 34.15 17.65 34.7 18.6 34.75 18.75 33.4 18.65 32.7 18.65 32.05 18.65 31.85 18.5 31.8 18.5 28.45 15.85" fill="#fea606" fill-rule="evenodd" stroke="none"/>
      <path d="M7.15 4.85 L10.45 5.2 11.7 5.4 12.7 5.55 14.45 5.95 Q14.0 6.25 13.65 6.5 12.1 7.65 11.2 8.85 L9.7 8.55 7.75 8.2 7.55 8.15 7.3 7.1 7.1 5.65 7.15 4.85" fill="#ff3426" fill-rule="evenodd" stroke="none"/>
      <path d="M14.45 5.95 L18.35 7.05 Q19.65 7.4 21.1 7.9 L19.5 8.35 Q17.45 9.05 16.3 9.65 L15.95 9.55 15.35 9.5 15.15 9.45 11.2 8.85 Q12.1 7.65 13.65 6.5 14.0 6.25 14.45 5.95" fill="#ff7712" fill-rule="evenodd" stroke="none"/>
      <path d="M2.15 3.95 Q3.95 3.9 5.45 2.45 L5.9 2.0 9.95 2.7 10.05 2.7 12.2 5.1 11.7 5.4 10.45 5.2 7.15 4.85 7.1 4.85 3.7 4.45 3.05 4.25 2.15 3.95" fill="#ba0145" fill-rule="evenodd" stroke="none"/>
      <path d="M11.2 8.85 L15.15 9.45 15.35 9.5 Q12.75 11.85 10.7 14.45 L7.15 14.75 7.2 14.6 Q8.55 10.55 9.7 8.55 L11.2 8.85" fill="#fc2624" fill-rule="evenodd" stroke="none"/>
      <path d="M16.3 9.65 L19.95 10.8 Q17.8 12.4 16.15 14.2 L15.8 14.15 15.15 14.05 12.45 14.3 11.65 14.35 10.7 14.45 Q12.75 11.85 15.35 9.5 L15.95 9.55 16.3 9.65" fill="#ff4b18" fill-rule="evenodd" stroke="none"/>
      <path d="M7.15 4.85 L7.1 5.65 7.3 7.1 7.55 8.15 3.55 7.05 1.8 6.1 2.3 5.6 2.8 5.7 3.35 5.55 3.55 5.25 3.1 4.9 3.15 4.8 3.7 4.45 7.1 4.85 7.15 4.85" fill="#dd1c21" fill-rule="evenodd" stroke="none"/>
      <path d="M-0.25 4.25 L-0.25 3.35 0.1 3.55 0.3 3.65 1.95 3.95 2.15 3.95 3.05 4.25 3.7 4.45 3.15 4.8 3.1 4.9 2.85 4.8 2.1 4.65 1.8 4.7 1.65 4.75 1.6 4.75 1.6 4.8 1.55 4.95 1.9 5.45 2.3 5.6 1.8 6.1 1.1 5.55 -0.2 4.3 -0.25 4.25" fill="#b70c2c" fill-rule="evenodd" stroke="none"/>
      <path d="M3.1 4.9 L3.55 5.25 3.35 5.55 2.8 5.7 2.3 5.6 1.9 5.45 1.55 4.95 1.6 4.8 1.65 4.75 1.8 4.7 2.1 4.65 2.85 4.8 3.1 4.9" fill="#ff7c16" fill-rule="evenodd" stroke="none"/>
      <path d="M-0.25 17.55 L-0.25 16.8 1.1 16.95 0.65 18.2 0.65 18.1 0.1 17.8 -0.25 17.55 M1.8 6.1 L3.55 7.05 7.55 8.15 7.75 8.2 Q6.0 9.65 4.6 11.25 L4.2 11.1 3.7 10.85 4.6 9.8 Q3.4 9.05 2.35 7.7 L1.4 6.25 1.1 5.55 1.8 6.1" fill="#c00057" fill-rule="evenodd" stroke="none"/>
      <path d="M1.05 12.4 L1.4 11.75 Q0.85 10.9 0.45 9.85 L0.15 9.15 0.6 8.85 2.35 7.7 Q3.4 9.05 4.6 9.8 L3.7 10.85 3.05 11.4 Q2.1 12.1 1.05 12.4" fill="#9d0341" fill-rule="evenodd" stroke="none"/>
      <path d="M-0.25 14.95 L-0.25 13.9 0.35 13.35 1.05 12.4 Q2.1 12.1 3.05 11.4 L3.7 10.85 4.2 11.1 4.6 11.25 Q3.1 13.0 2.05 14.95 L1.55 14.95 -0.25 14.95" fill="#d5004b" fill-rule="evenodd" stroke="none"/>
      <path d="M7.75 8.2 L9.7 8.55 Q8.55 10.55 7.2 14.6 L7.15 14.75 6.15 14.8 2.45 14.95 2.05 14.95 Q3.1 13.0 4.6 11.25 6.0 9.65 7.75 8.2" fill="#f61237" fill-rule="evenodd" stroke="none"/>
      <path d="M0.15 9.15 L-0.25 8.05 -0.25 4.25 -0.2 4.3 1.1 5.55 1.4 6.25 2.35 7.7 0.6 8.85 0.15 9.15" fill="#9d004d" fill-rule="evenodd" stroke="none"/>
      <path d="M6.45 16.85 L5.9 16.9 Q5.9 15.7 6.15 14.8 L7.15 14.75 10.7 14.45 11.65 14.35 10.95 16.0 10.85 16.35 9.1 16.6 8.55 16.65 6.45 16.85" fill="#fd3424" fill-rule="evenodd" stroke="none"/>
      <path d="M9.1 16.6 L10.85 16.35 10.95 16.0 13.15 16.05 14.5 16.15 Q12.5 18.8 11.35 21.8 L11.2 22.05 10.95 22.5 Q9.4 25.65 9.1 28.35 L9.0 29.55 8.45 29.1 8.05 27.15 7.85 27.15 Q7.1 27.15 6.65 27.65 L4.95 25.9 Q6.15 21.05 9.1 16.65 L9.1 16.6" fill="#ff4d1f" fill-rule="evenodd" stroke="none"/>
      <path d="M2.45 27.3 Q2.95 24.55 3.9 22.4 4.7 20.65 5.7 19.4 L6.45 16.85 8.55 16.65 9.1 16.6 9.1 16.65 Q6.15 21.05 4.95 25.9 L4.65 27.1 4.2 26.8 4.25 26.2 3.75 26.6 2.45 27.3" fill="#ff2e35" fill-rule="evenodd" stroke="none"/>
      <path d="M-0.25 16.8 L-0.25 16.75 0.0 16.75 Q0.75 16.75 0.75 16.05 L0.25 15.4 -0.2 15.2 -0.25 15.2 -0.25 14.95 1.55 14.95 2.05 14.95 2.45 14.95 2.2 15.7 1.9 17.0 1.1 16.95 -0.25 16.8" fill="#d52530" fill-rule="evenodd" stroke="none"/>
      <path d="M5.9 16.9 L2.9 17.05 1.9 17.0 2.2 15.7 2.45 14.95 6.15 14.8 Q5.9 15.7 5.9 16.9" fill="#ff2622" fill-rule="evenodd" stroke="none"/>
      <path d="M-0.25 27.9 L-0.25 21.8 -0.2 21.5 1.35 20.2 1.15 19.55 0.65 18.2 1.1 16.95 1.9 17.0 2.9 17.05 5.9 16.9 6.45 16.85 5.7 19.4 Q4.7 20.65 3.9 22.4 2.95 24.55 2.45 27.3 L1.85 27.5 1.6 27.55 -0.15 27.9 -0.25 27.9" fill="#ef0048" fill-rule="evenodd" stroke="none"/>
      <path d="M17.35 14.4 L17.35 14.65 17.3 14.75 17.25 16.45 17.25 16.6 15.4 16.3 14.5 16.15 13.15 16.05 10.95 16.0 11.65 14.35 12.45 14.3 15.15 14.05 15.8 14.15 16.15 14.2 17.35 14.4" fill="#f86f11" fill-rule="evenodd" stroke="none"/>
      <path d="M17.25 16.6 L18.2 16.75 18.2 16.85 18.0 18.5 17.95 19.45 17.95 20.15 16.55 21.6 Q15.05 23.4 14.15 25.35 L11.6 23.15 11.0 22.6 10.95 22.5 11.2 22.05 11.35 21.8 Q12.8 19.0 14.1 17.6 L15.4 16.3 17.25 16.6" fill="#fa4f24" fill-rule="evenodd" stroke="none"/>
      <path d="M11.35 21.8 Q12.5 18.8 14.5 16.15 L15.4 16.3 14.1 17.6 Q12.8 19.0 11.35 21.8" fill="#ff6a12" fill-rule="evenodd" stroke="none"/>
      <path d="M14.15 25.35 Q12.75 28.4 12.75 31.8 L12.75 32.6 12.8 33.95 10.05 33.75 9.8 33.7 9.3 33.7 Q9.0 31.95 9.0 29.8 L9.0 29.55 9.1 28.35 Q9.4 25.65 10.95 22.5 L11.0 22.6 11.6 23.15 14.15 25.35" fill="#ee3320" fill-rule="evenodd" stroke="none"/>
      <path d="M9.0 29.55 L9.0 29.8 Q9.0 31.95 9.3 33.7 L9.35 33.9 8.65 34.05 8.7 33.5 8.85 31.45 8.85 31.35 8.85 31.2 8.65 30.15 8.45 29.15 8.45 29.1 9.0 29.55 M6.65 27.65 L6.55 27.75 6.35 28.0 6.05 27.8 4.65 27.1 4.95 25.9 6.65 27.65" fill="#fb1039" fill-rule="evenodd" stroke="none"/>
      <path d="M5.15 38.6 L5.9 38.05 6.1 37.9 8.0 36.4 8.2 35.95 9.15 37.9 9.85 38.9 8.95 40.1 8.15 41.05 5.8 39.15 5.15 38.6" fill="#c9092e" fill-rule="evenodd" stroke="none"/>
      <path d="M5.8 39.15 L5.4 40.0 5.1 40.4 4.5 41.6 2.6 40.0 4.15 39.15 5.15 38.6 5.8 39.15" fill="#be0831" fill-rule="evenodd" stroke="none"/>
      <path d="M8.4 35.1 L8.65 34.05 9.35 33.9 9.9 35.75 10.45 37.25 10.65 37.6 9.85 38.9 9.15 37.9 8.2 35.95 8.35 35.2 8.4 35.1" fill="#d02b18" fill-rule="evenodd" stroke="none"/>
      <path d="M9.3 33.7 L9.8 33.7 10.05 33.75 12.8 33.95 Q13.35 40.15 17.3 42.9 L18.4 43.6 16.55 45.1 16.5 45.25 16.4 45.3 Q15.2 44.35 13.75 42.65 L13.2 41.95 13.1 41.9 13.1 41.85 11.7 39.65 10.65 37.6 10.45 37.25 9.9 35.75 9.35 33.9 9.3 33.7" fill="#e9301b" fill-rule="evenodd" stroke="none"/>
      <path d="M10.65 37.6 L11.7 39.65 13.1 41.85 13.1 41.9 13.2 41.95 13.75 42.65 13.5 42.9 12.9 43.35 12.5 43.6 12.35 42.95 10.2 41.6 8.95 40.1 9.85 38.9 10.65 37.6" fill="#f95615" fill-rule="evenodd" stroke="none"/>
      <path d="M7.25 41.95 L7.45 41.7 8.15 41.05 8.95 40.1 10.2 41.6 12.35 42.95 12.5 43.6 11.6 44.2 9.45 45.3 9.0 45.5 8.75 45.15 8.65 44.9 7.85 43.4 7.45 42.55 7.3 42.2 7.25 41.95" fill="#fe4e1d" fill-rule="evenodd" stroke="none"/>
      <path d="M4.5 41.6 L5.1 40.4 5.4 40.0 5.8 39.15 8.15 41.05 7.45 41.7 7.25 41.95 7.15 42.1 6.85 42.4 Q6.65 42.55 6.4 42.8 L4.7 41.7 4.5 41.6" fill="#c70539" fill-rule="evenodd" stroke="none"/>
      <path d="M6.4 42.8 Q6.65 42.55 6.85 42.4 L7.15 42.1 7.25 41.95 7.3 42.2 7.45 42.55 7.85 43.4 8.65 44.9 8.75 45.15 9.0 45.5 7.6 46.0 5.95 46.2 Q5.55 45.9 5.25 45.2 L4.9 44.15 5.8 43.4 6.4 42.8" fill="#fc3f21" fill-rule="evenodd" stroke="none"/>
      <path d="M4.5 41.6 L4.7 41.7 6.4 42.8 5.8 43.4 4.9 44.15 5.25 45.2 Q5.55 45.9 5.95 46.2 L7.6 46.0 9.0 45.5 9.45 45.3 11.6 44.2 12.5 43.6 12.95 44.9 12.95 45.0 11.95 45.6 10.8 46.05 8.4 46.6 8.0 46.7 5.7 47.05 5.45 46.5 4.1 43.8 3.6 43.2 4.05 42.4 4.45 41.6 4.5 41.6" fill="#da0734" fill-rule="evenodd" stroke="none"/>
      <path d="M6.65 49.85 Q3.75 47.4 1.6 43.85 L0.1 41.05 0.5 40.9 0.55 40.9 0.55 40.85 0.7 40.8 1.0 40.65 2.2 40.2 2.6 40.0 4.5 41.6 4.45 41.6 4.05 42.4 3.6 43.2 4.1 43.8 5.45 46.5 5.7 47.05 6.65 49.85" fill="#ac083a" fill-rule="evenodd" stroke="none"/>
      <path d="M8.0 46.7 L8.4 46.6 10.8 46.05 11.95 45.6 12.55 47.0 12.9 47.85 13.75 49.6 12.55 49.8 10.0 49.95 8.0 46.7" fill="#e60740" fill-rule="evenodd" stroke="none"/>
      <path d="M10.0 52.2 L6.65 49.85 5.7 47.05 8.0 46.7 10.0 49.95 10.35 50.55 11.7 52.55 10.0 52.2" fill="#bc023f" fill-rule="evenodd" stroke="none"/>
      <path d="M13.75 42.65 Q15.2 44.35 16.4 45.3 L16.45 45.3 16.95 45.65 19.7 47.0 20.1 47.0 20.6 47.05 20.9 47.45 18.75 48.8 17.75 48.0 15.75 46.05 13.5 42.9 13.75 42.65" fill="#ff4e15" fill-rule="evenodd" stroke="none"/>
      <path d="M12.95 45.0 L12.95 44.9 12.5 43.6 12.9 43.35 13.5 42.9 15.75 46.05 15.4 46.5 14.6 47.4 14.25 47.8 13.55 46.25 12.95 45.0" fill="#ff4d19" fill-rule="evenodd" stroke="none"/>
      <path d="M24.9 51.3 L24.85 51.4 22.6 50.5 22.05 50.1 20.3 49.0 Q19.3 49.45 18.55 49.8 L18.05 49.95 17.0 50.4 15.55 50.8 15.15 50.85 14.25 50.75 13.75 49.6 12.9 47.85 12.55 47.0 11.95 45.6 12.95 45.0 13.55 46.25 14.25 47.8 14.3 47.95 14.75 48.8 15.05 49.25 15.5 49.8 16.35 49.65 17.1 49.45 18.05 49.15 18.65 48.85 18.75 48.8 20.9 47.45 21.3 47.95 21.3 48.0 22.9 49.55 23.4 50.0 23.7 50.3 24.9 51.3" fill="#d5013b" fill-rule="evenodd" stroke="none"/>
      <path d="M14.25 47.8 L14.6 47.4 15.4 46.5 15.75 46.05 17.75 48.0 18.75 48.8 18.65 48.85 18.05 49.15 17.1 49.45 16.35 49.65 15.5 49.8 15.05 49.25 14.75 48.8 14.3 47.95 14.25 47.8" fill="#f32a20" fill-rule="evenodd" stroke="none"/>
      <path d="M20.9 47.45 L21.3 47.15 22.25 47.4 22.7 47.6 23.75 48.15 23.55 49.05 23.5 49.55 23.4 50.0 22.9 49.55 21.3 48.0 21.3 47.95 20.9 47.45" fill="#f22627" fill-rule="evenodd" stroke="none"/>
      <path d="M27.6 47.7 Q26.8 48.3 25.95 49.45 L25.75 49.75 24.8 48.9 24.25 48.5 23.75 48.15 22.7 47.6 22.95 47.1 23.35 46.2 23.75 45.45 23.95 45.05 25.9 45.15 26.1 45.4 26.15 45.45 26.1 45.45 26.0 46.05 Q26.0 46.9 27.25 47.5 L27.5 47.6 27.6 47.6 27.6 47.7" fill="#ea2328" fill-rule="evenodd" stroke="none"/>
      <path d="M25.75 49.75 Q25.15 50.55 24.9 51.3 L23.7 50.3 23.4 50.0 23.5 49.55 23.55 49.05 23.75 48.15 24.25 48.5 24.8 48.9 25.75 49.75" fill="#f52e17" fill-rule="evenodd" stroke="none"/>
      <path d="M24.85 51.4 L24.8 51.75 23.55 52.05 22.45 52.35 20.65 52.7 19.95 52.85 17.9 53.15 17.3 53.2 17.0 53.2 16.5 52.55 17.05 52.35 19.7 51.3 19.85 51.2 20.15 51.05 22.05 50.1 22.6 50.5 24.85 51.4" fill="#d00043" fill-rule="evenodd" stroke="none"/>
      <path d="M24.8 51.75 Q24.6 52.55 24.8 53.3 L25.05 53.5 20.45 53.5 19.95 52.85 20.65 52.7 22.45 52.35 23.55 52.05 24.8 51.75" fill="#b1034b" fill-rule="evenodd" stroke="none"/>
      <path d="M20.45 53.5 L17.95 53.5 17.9 53.15 19.95 52.85 20.45 53.5" fill="#a80254" fill-rule="evenodd" stroke="none"/>
      <path d="M22.05 50.1 L20.15 51.05 19.85 51.2 19.7 51.3 17.05 52.35 16.5 52.55 16.45 52.4 15.55 50.8 17.0 50.4 18.05 49.95 18.55 49.8 Q19.3 49.45 20.3 49.0 L22.05 50.1" fill="#db083f" fill-rule="evenodd" stroke="none"/>
      <path d="M17.95 53.5 L14.9 53.5 14.65 53.05 16.35 53.2 17.0 53.2 17.3 53.2 17.9 53.15 17.95 53.5" fill="#b40058" fill-rule="evenodd" stroke="none"/>
      <path d="M15.55 50.8 L16.45 52.4 16.5 52.55 17.0 53.2 16.35 53.2 14.65 53.05 12.05 52.65 11.7 52.55 10.35 50.55 10.0 49.95 12.55 49.8 13.75 49.6 14.25 50.75 15.15 50.85 15.55 50.8" fill="#bd0156" fill-rule="evenodd" stroke="none"/>
      <path d="M14.9 53.5 L12.75 53.5 12.2 53.3 10.0 52.2 11.7 52.55 12.05 52.65 14.65 53.05 14.9 53.5" fill="#950052" fill-rule="evenodd" stroke="none"/>
      <path d="M-0.25 16.75 L-0.25 15.2 -0.2 15.2 0.25 15.4 0.75 16.05 Q0.75 16.75 0.0 16.75 L-0.25 16.75" fill="#ff6b15" fill-rule="evenodd" stroke="none"/>
      <path d="M-0.25 19.85 L-0.25 17.55 0.1 17.8 0.65 18.1 0.65 18.2 1.15 19.55 0.15 19.75 -0.25 19.85" fill="#9c0048" fill-rule="evenodd" stroke="none"/>
      <path d="M-0.25 21.55 L-0.25 19.85 0.15 19.75 1.15 19.55 1.35 20.2 -0.2 21.5 -0.25 21.55" fill="#a8003e" fill-rule="evenodd" stroke="none"/>
      <path d="M-0.25 21.8 L-0.25 21.55 -0.2 21.5 -0.25 21.8" fill="#b4002d" fill-rule="evenodd" stroke="none"/>
      <path d="M35.6 7.45 L35.6 7.25 35.35 3.7 Q35.35 1.55 35.9 -0.25 L52.2 -0.25 53.1 1.75 52.6 1.65 Q51.6 1.15 50.35 1.15 46.25 1.15 43.8 4.65 41.9 7.4 41.4 11.55 L41.35 12.1 41.25 14.45 41.25 15.05 Q41.4 18.25 42.6 22.55 L42.75 23.05 42.95 23.6 43.3 24.4 43.2 24.45 42.8 24.45 41.05 24.2 40.45 22.95 39.9 21.8 39.55 20.95 38.3 17.95 Q37.4 15.6 36.8 13.3 35.9 10.3 35.6 7.45" fill="#fffcfd" fill-rule="evenodd" stroke="none"/>
      <path d="M52.6 1.65 L52.25 1.65 Q48.7 1.65 45.9 5.1 L45.25 5.95 Q43.25 8.9 42.5 12.6 L42.45 12.9 Q42.15 14.8 42.15 16.95 L42.15 17.15 Q42.2 19.4 42.8 21.6 L43.6 23.8 43.85 24.35 44.05 24.75 47.0 30.15 47.2 30.25 47.5 30.3 47.25 30.65 47.15 30.75 45.05 27.75 43.35 24.55 43.3 24.4 42.95 23.6 42.75 23.05 42.6 22.55 Q41.4 18.25 41.25 15.05 L41.25 14.45 41.35 12.1 41.4 11.55 Q41.9 7.4 43.8 4.65 46.25 1.15 50.35 1.15 51.6 1.15 52.6 1.65 M48.9 36.15 L48.85 36.25 49.1 36.8 48.75 36.55 47.15 36.0 46.8 35.9 45.1 35.6 43.9 35.55 42.35 35.65 42.35 35.7 42.15 35.7 41.2 35.95 41.0 36.0 40.65 36.05 40.3 36.2 40.2 36.25 39.6 36.5 38.2 37.25 38.15 37.3 36.7 38.55 36.45 38.8 36.3 38.95 36.05 39.25 36.0 39.3 35.25 40.4 34.1 41.55 30.7 43.8 30.5 43.95 30.1 44.15 29.75 44.35 29.35 44.55 28.6 44.85 26.1 45.15 25.9 45.15 23.95 45.05 Q20.7 44.75 18.4 43.6 L17.3 42.9 Q13.35 40.15 12.8 33.95 L12.75 32.6 13.5 34.0 13.65 34.2 Q15.15 36.5 16.9 37.7 16.2 36.05 15.95 34.1 L15.8 31.8 Q15.8 29.1 16.85 27.2 17.45 26.1 18.4 25.25 L19.0 24.8 Q21.05 23.3 23.95 23.1 L25.35 23.0 27.3 23.1 30.55 23.7 32.35 24.4 Q34.0 25.15 35.25 26.35 L36.1 27.2 Q37.45 28.65 38.05 30.4 38.5 31.5 38.6 32.75 L38.65 33.8 38.5 35.6 39.25 35.3 40.85 34.7 41.65 34.45 43.75 33.9 44.2 33.85 44.95 33.75 45.15 33.75 45.25 33.75 46.1 33.9 47.55 34.2 47.6 34.2 49.8 34.8 48.9 36.15 M35.95 29.0 L35.6 28.3 34.15 26.6 Q31.15 23.6 26.9 23.6 24.45 23.6 22.4 24.6 20.9 25.3 19.6 26.6 16.6 29.6 16.6 33.85 16.6 37.9 19.25 40.75 L19.6 41.1 20.9 42.2 Q22.75 43.6 25.0 44.0 L26.9 44.15 27.15 44.15 28.8 44.0 30.35 43.6 31.5 43.1 Q32.95 42.35 34.15 41.1 L34.25 41.0 35.0 40.2 35.0 40.15 Q36.75 38.0 37.1 35.3 L37.2 33.85 Q37.2 31.2 35.95 29.0" fill="#ab97b3" fill-rule="evenodd" stroke="none"/>
      <path d="M50.4 29.8 L50.35 32.25 50.15 33.75 50.15 33.85 50.1 34.35 50.05 34.45 49.8 34.8 47.6 34.2 47.55 34.2 46.1 33.9 45.25 33.75 45.15 33.75 44.95 33.75 44.2 33.85 43.75 33.9 43.6 32.7 43.45 31.95 Q44.2 31.75 44.7 30.95 42.8 27.8 41.05 24.2 L42.8 24.45 43.2 24.45 43.3 24.4 43.35 24.55 45.05 27.75 47.15 30.75 47.25 30.65 47.5 30.3 47.95 30.45 48.45 30.45 Q49.65 30.45 50.4 29.8" fill="#fdfbfc" fill-rule="evenodd" stroke="none"/>
      <path d="M43.25 32.0 L43.45 31.95 43.6 32.7 43.75 33.9 41.65 34.45 40.85 34.7 39.25 35.3 38.5 35.6 38.65 33.8 38.6 32.75 Q38.5 31.5 38.05 30.4 37.45 28.65 36.1 27.2 L35.25 26.35 Q34.0 25.15 32.35 24.4 L30.55 23.7 27.3 23.1 27.15 21.9 27.7 21.9 Q30.2 21.9 32.15 22.6 L33.15 23.05 34.2 23.65 35.2 24.35 37.35 26.4 38.7 28.3 Q39.8 30.25 40.65 31.05 L40.7 31.1 Q41.55 31.85 42.8 32.0 L43.25 32.0" fill="#f7faff" fill-rule="evenodd" stroke="none"/>
      <path d="M23.7 22.25 L24.55 22.15 27.15 21.9 27.3 23.1 25.35 23.0 23.95 23.1 Q21.05 23.3 19.0 24.8 L18.4 25.25 Q17.45 26.1 16.85 27.2 15.8 29.1 15.8 31.8 L15.95 34.1 Q16.2 36.05 16.9 37.7 15.15 36.5 13.65 34.2 L13.5 34.0 12.75 32.6 12.75 31.8 Q12.75 28.4 14.15 25.35 15.05 23.4 16.55 21.6 L17.95 20.15 19.65 18.65 Q19.95 20.95 21.75 21.95 L22.95 22.45 23.7 22.25" fill="#fffbff" fill-rule="evenodd" stroke="none"/>
      <path d="M22.4 24.6 Q24.45 23.6 26.9 23.6 31.15 23.6 34.15 26.6 L35.6 28.3 35.95 29.0 35.4 28.35 Q32.7 25.7 28.95 25.7 26.95 25.7 25.3 26.45 L24.55 26.8 Q23.4 27.45 22.45 28.35 21.6 29.25 21.0 30.3 19.8 32.3 19.8 34.85 L20.05 36.8 Q20.35 38.7 21.55 40.25 L22.45 41.3 Q23.8 42.55 25.35 43.25 L27.15 43.85 28.8 44.0 27.15 44.15 26.9 44.15 25.0 44.0 Q22.75 43.6 20.9 42.2 L19.6 41.1 19.25 40.75 19.8 40.45 20.2 40.05 19.5 38.95 Q18.25 36.4 18.25 34.15 18.25 30.95 20.5 28.05 21.85 26.35 22.8 25.8 22.8 24.95 22.4 24.6" fill="#9ebcd2" fill-rule="evenodd" stroke="none"/>
      <path d="M21.55 40.25 Q20.35 38.7 20.05 36.8 L19.8 34.85 Q19.8 32.3 21.0 30.3 21.6 29.25 22.45 28.35 23.4 27.45 24.55 26.8 L25.3 26.45 24.7 26.8 24.35 27.0 Q22.45 28.35 21.6 30.35 20.9 31.95 20.9 34.0 20.9 36.05 21.5 37.6 L22.1 38.85 22.0 39.2 21.55 40.25" fill="#53d9ff" fill-rule="evenodd" stroke="none"/>
      <path d="M19.25 40.75 Q16.6 37.9 16.6 33.85 16.6 29.6 19.6 26.6 20.9 25.3 22.4 24.6 22.8 24.95 22.8 25.8 21.85 26.35 20.5 28.05 18.25 30.95 18.25 34.15 18.25 36.4 19.5 38.95 L20.2 40.05 19.8 40.45 19.25 40.75" fill="#bce7ee" fill-rule="evenodd" stroke="none"/>
      <path d="M35.95 29.0 Q37.2 31.2 37.2 33.85 L37.1 35.3 34.5 34.25 33.7 34.0 33.65 33.85 33.15 32.3 Q32.7 31.15 31.9 30.15 32.4 29.7 33.15 29.35 33.8 28.95 34.6 28.65 L35.4 28.35 35.95 29.0" fill="#0b52ae" fill-rule="evenodd" stroke="none"/>
      <path d="M25.3 26.45 Q26.95 25.7 28.95 25.7 32.7 25.7 35.4 28.35 L34.6 28.65 Q33.8 28.95 33.15 29.35 32.4 29.7 31.9 30.15 L31.25 29.45 30.25 28.55 29.65 27.8 Q28.95 27.15 28.35 27.15 L27.8 27.2 27.65 27.25 24.7 26.8 25.3 26.45" fill="#0456c2" fill-rule="evenodd" stroke="none"/>
      <path d="M30.25 28.55 L31.25 29.45 31.9 30.15 Q32.7 31.15 33.15 32.3 L33.15 32.6 33.05 33.75 33.0 33.75 31.8 33.55 31.4 33.55 28.1 34.0 27.25 34.15 26.85 33.6 Q25.9 32.35 24.8 31.6 L26.25 30.65 26.65 30.5 27.2 30.8 28.2 31.05 28.5 31.05 Q29.45 30.95 30.05 30.35 L30.45 29.5 30.25 28.55" fill="#0082f4" fill-rule="evenodd" stroke="none"/>
      <path d="M27.65 27.25 L27.8 27.2 28.35 27.15 Q28.95 27.15 29.65 27.8 L30.25 28.55 30.45 29.5 30.05 30.35 Q29.45 30.95 28.5 31.05 L28.2 31.05 27.2 30.8 26.65 30.5 Q26.2 30.05 26.2 29.35 26.2 28.15 27.0 27.55 L27.65 27.25" fill="#fffdff" fill-rule="evenodd" stroke="none"/>
      <path d="M33.15 32.3 L33.65 33.85 33.7 34.0 33.85 35.8 Q33.85 36.75 33.45 37.9 32.95 39.55 31.7 41.55 L31.6 41.65 Q31.55 40.4 31.1 38.45 L30.65 37.0 31.25 36.5 Q32.6 35.15 33.05 33.8 L33.05 33.75 33.15 32.6 33.15 32.3" fill="#006fec" fill-rule="evenodd" stroke="none"/>
      <path d="M27.25 34.15 L28.1 34.0 31.4 33.55 31.8 33.55 33.0 33.75 33.05 33.75 33.05 33.8 Q32.6 35.15 31.25 36.5 L30.65 37.0 28.9 38.05 Q28.65 36.2 27.25 34.15" fill="#0997ff" fill-rule="evenodd" stroke="none"/>
      <path d="M37.1 35.3 Q36.75 38.0 35.0 40.15 L33.45 37.9 Q33.85 36.75 33.85 35.8 L33.7 34.0 34.5 34.25 37.1 35.3" fill="#0453ba" fill-rule="evenodd" stroke="none"/>
      <path d="M26.65 30.5 L26.25 30.65 24.8 31.6 Q23.35 30.5 21.6 30.35 22.45 28.35 24.35 27.0 L24.7 26.8 27.65 27.25 27.0 27.55 Q26.2 28.15 26.2 29.35 26.2 30.05 26.65 30.5" fill="#007be5" fill-rule="evenodd" stroke="none"/>
      <path d="M24.8 31.6 Q25.9 32.35 26.85 33.6 L27.25 34.15 Q28.65 36.2 28.9 38.05 L26.7 38.65 25.25 38.75 23.95 38.4 23.5 38.25 21.5 37.6 Q20.9 36.05 20.9 34.0 20.9 31.95 21.6 30.35 23.35 30.5 24.8 31.6" fill="#17a2ff" fill-rule="evenodd" stroke="none"/>
      <path d="M30.65 37.0 L31.1 38.45 Q31.55 40.4 31.6 41.65 L31.35 42.1 29.05 42.3 28.0 42.2 27.35 42.15 25.85 41.7 25.95 41.45 26.7 38.65 28.9 38.05 30.65 37.0" fill="#139bff" fill-rule="evenodd" stroke="none"/>
      <path d="M21.5 37.6 L23.5 38.25 23.95 38.4 25.25 38.75 26.7 38.65 25.95 41.45 25.85 41.7 24.1 40.85 Q22.9 40.05 22.1 38.85 L21.5 37.6" fill="#18a9f8" fill-rule="evenodd" stroke="none"/>
      <path d="M34.25 41.0 L34.15 41.1 Q32.95 42.35 31.5 43.1 L30.35 43.6 28.8 44.0 27.15 43.85 25.35 43.25 Q23.8 42.55 22.45 41.3 L21.55 40.25 22.0 39.2 22.1 38.85 Q22.9 40.05 24.1 40.85 L25.85 41.7 27.35 42.15 28.0 42.2 29.05 42.3 31.35 42.1 31.6 42.05 33.15 41.6 34.25 41.0" fill="#55eeff" fill-rule="evenodd" stroke="none"/>
      <path d="M35.0 40.15 L35.0 40.2 34.25 41.0 33.15 41.6 31.6 42.05 31.35 42.1 31.6 41.65 31.7 41.55 Q32.95 39.55 33.45 37.9 L35.0 40.15" fill="#0660b6" fill-rule="evenodd" stroke="none"/>
      <path d="M49.1 36.8 L49.15 36.9 49.75 38.85 48.3 38.75 48.5 38.2 Q48.5 37.55 48.1 37.15 L47.75 36.85 47.05 36.7 46.8 36.65 46.35 36.75 46.15 36.85 45.85 37.1 45.75 37.25 45.5 37.85 45.5 37.95 Q45.55 38.55 45.85 38.85 L44.05 39.25 41.8 40.15 Q40.5 40.8 39.75 41.5 L39.7 40.7 39.7 40.3 Q39.7 39.0 39.95 37.95 40.2 36.9 40.65 36.1 L40.65 36.05 41.0 36.0 41.2 35.95 42.15 35.7 42.35 35.7 42.35 35.65 43.9 35.55 45.1 35.6 46.8 35.9 47.15 36.0 48.75 36.55 49.1 36.8" fill="#ffc409" fill-rule="evenodd" stroke="none"/>
      <path d="M45.85 38.85 Q45.55 38.55 45.5 37.95 L45.5 37.85 45.75 37.25 45.85 37.1 46.15 36.85 46.35 36.75 46.8 36.65 47.05 36.7 47.75 36.85 48.1 37.15 Q48.5 37.55 48.5 38.2 L48.3 38.75 48.25 38.8 Q47.9 39.15 47.2 39.2 L47.0 39.2 Q46.2 39.2 45.85 38.85" fill="#fff5ba" fill-rule="evenodd" stroke="none"/>
      <path d="M49.75 38.85 L49.75 39.75 Q49.75 43.1 47.85 46.4 L46.75 48.05 Q44.65 47.95 43.45 47.45 L42.55 47.05 40.4 45.05 40.0 43.55 39.75 41.5 Q40.5 40.8 41.8 40.15 L44.05 39.25 45.85 38.85 Q46.2 39.2 47.0 39.2 L47.2 39.2 Q47.9 39.15 48.25 38.8 L48.3 38.75 49.75 38.85 M47.55 42.55 L47.85 40.55 47.85 40.35 47.35 40.1 47.0 40.1 46.55 40.2 46.15 40.45 45.95 42.15 45.5 43.35 45.05 44.25 44.3 45.15 44.4 45.5 44.6 46.25 Q45.45 46.0 46.35 44.9 L46.45 44.75 46.65 44.5 47.55 42.55" fill="#fecb02" fill-rule="evenodd" stroke="none"/>
      <path d="M45.95 42.15 L46.15 40.45 46.55 40.2 47.0 40.1 47.35 40.1 47.85 40.35 47.85 40.55 47.55 42.55 47.25 42.45 46.9 42.3 45.95 42.15" fill="#f8f8c4" fill-rule="evenodd" stroke="none"/>
      <path d="M47.55 42.55 L46.65 44.5 46.45 44.75 46.35 44.9 46.0 44.35 45.5 43.35 45.95 42.15 46.9 42.3 47.25 42.45 47.55 42.55" fill="#fffdbd" fill-rule="evenodd" stroke="none"/>
      <path d="M46.75 48.05 Q45.0 50.45 42.35 52.55 L40.5 52.85 39.85 52.8 38.95 51.15 Q38.15 49.9 36.9 48.9 L36.4 48.5 35.4 47.0 35.3 46.75 Q34.75 45.6 34.7 44.7 L34.65 44.4 35.95 42.6 36.1 42.3 36.75 40.65 36.6 40.15 36.45 39.2 36.45 38.8 36.7 38.55 38.15 37.3 38.2 37.25 39.6 36.5 40.2 36.25 40.3 36.2 40.65 36.05 40.65 36.1 Q40.2 36.9 39.95 37.95 39.7 39.0 39.7 40.3 L39.7 40.7 39.75 41.5 40.0 43.55 40.4 45.05 42.55 47.05 43.45 47.45 Q44.65 47.95 46.75 48.05" fill="#fcca00" fill-rule="evenodd" stroke="none"/>
      <path d="M46.35 44.9 Q45.45 46.0 44.6 46.25 L44.4 45.5 44.3 45.15 45.05 44.25 45.5 43.35 46.0 44.35 46.35 44.9" fill="#f2fcb3" fill-rule="evenodd" stroke="none"/>
      <path d="M29.2 47.75 L27.75 47.6 27.6 47.6 27.5 47.6 27.25 47.5 Q26.0 46.9 26.0 46.05 L26.1 45.45 26.15 45.45 Q27.1 45.45 28.6 44.85 L29.35 44.55 29.75 44.35 30.1 44.15 30.25 44.1 30.3 44.2 30.8 45.55 30.9 45.75 31.25 46.3 31.3 46.4 Q30.35 47.15 29.2 47.75" fill="#fc4317" fill-rule="evenodd" stroke="none"/>
      <path d="M36.45 38.8 L36.45 39.2 36.6 40.15 36.75 40.65 36.1 42.3 35.95 42.6 34.65 44.4 34.7 44.7 Q34.75 45.6 35.3 46.75 L35.0 46.7 33.85 46.4 32.5 45.3 32.45 45.3 33.6 43.9 33.65 43.85 Q34.7 42.2 34.95 40.9 L35.25 40.4 36.0 39.3 36.05 39.25 36.3 38.95 36.45 38.8" fill="#f26e02" fill-rule="evenodd" stroke="none"/>
      <path d="M30.5 43.95 L30.7 43.8 34.1 41.55 34.95 40.75 34.95 40.9 Q34.7 42.2 33.65 43.85 L33.6 43.9 32.45 45.3 31.3 46.4 31.25 46.3 30.9 45.75 30.8 45.55 30.3 44.2 30.25 44.1 30.5 43.95" fill="#f44c1d" fill-rule="evenodd" stroke="none"/>
      <path d="M39.85 52.8 L38.1 52.25 36.75 50.9 35.5 49.95 Q35.15 49.45 33.7 48.9 L33.65 48.2 33.85 46.4 35.0 46.7 35.3 46.75 35.4 47.0 36.4 48.5 36.9 48.9 Q38.15 49.9 38.95 51.15 L39.85 52.8" fill="#ff8d17" fill-rule="evenodd" stroke="none"/>
      <path d="M33.7 48.9 L32.35 48.45 29.2 47.75 Q30.35 47.15 31.3 46.4 L32.45 45.3 32.5 45.3 33.85 46.4 33.65 48.2 33.7 48.9" fill="#ff7211" fill-rule="evenodd" stroke="none"/>
      <path d="M6.65 27.65 Q7.1 27.15 7.85 27.15 L8.05 27.15 8.45 29.1 8.45 29.15 8.65 30.15 8.85 31.2 8.85 31.35 8.0 31.15 6.45 31.0 6.4 31.0 6.3 29.5 6.25 29.25 6.2 28.9 6.2 28.75 Q6.2 28.35 6.35 28.0 L6.55 27.75 6.65 27.65" fill="#fe5c1e" fill-rule="evenodd" stroke="none"/>
      <path d="M6.05 27.8 L6.35 28.0 Q6.2 28.35 6.2 28.75 L6.2 28.9 6.25 29.25 6.3 29.5 6.4 31.0 6.4 31.6 6.4 32.05 6.25 34.05 6.25 34.15 6.2 34.25 6.15 34.35 4.35 35.1 4.1 34.65 3.6 33.75 3.8 33.3 4.05 32.6 4.55 31.35 6.05 27.8" fill="#fe4026" fill-rule="evenodd" stroke="none"/>
      <path d="M-0.25 29.8 L-0.25 27.9 -0.15 27.9 1.6 27.55 1.85 27.5 2.45 27.3 3.75 26.6 4.25 26.2 4.2 26.8 4.15 27.45 2.2 28.65 1.8 28.85 1.35 29.1 -0.25 29.8" fill="#fb5322" fill-rule="evenodd" stroke="none"/>
      <path d="M-0.25 33.3 L-0.25 32.15 -0.05 32.05 0.05 31.85 0.25 31.4 0.35 31.0 -0.1 31.15 -0.25 31.25 -0.25 29.8 1.35 29.1 1.8 28.85 2.05 29.7 3.55 33.45 2.45 33.9 1.8 34.2 1.3 34.35 -0.15 34.85 -0.25 33.3" fill="#fb2422" fill-rule="evenodd" stroke="none"/>
      <path d="M3.55 33.45 L2.05 29.7 1.8 28.85 2.2 28.65 4.15 27.45 4.2 26.8 4.65 27.1 6.05 27.8 4.55 31.35 4.05 32.6 3.8 33.3 3.6 33.75 3.55 33.55 3.55 33.45" fill="#fe3b25" fill-rule="evenodd" stroke="none"/>
      <path d="M-0.15 34.85 L1.3 34.35 1.8 34.2 2.45 33.9 3.55 33.45 3.55 33.55 3.6 33.75 4.1 34.65 4.35 35.1 5.05 36.4 4.45 37.35 4.25 37.7 2.5 39.9 2.2 40.2 1.0 40.65 Q0.55 39.3 0.25 37.8 L-0.15 34.85" fill="#fc2523" fill-rule="evenodd" stroke="none"/>
      <path d="M6.15 34.35 L6.2 34.25 6.25 34.15 6.4 34.25 6.75 34.4 7.65 34.85 8.4 35.1 8.35 35.2 8.2 35.95 8.0 36.4 6.1 37.9 5.9 38.05 5.15 38.6 4.15 39.15 2.6 40.0 2.2 40.2 2.5 39.9 4.25 37.7 4.45 37.35 5.05 36.4 5.1 36.35 6.15 34.35" fill="#ff2c29" fill-rule="evenodd" stroke="none"/>
      <path d="M4.35 35.1 L6.15 34.35 5.1 36.35 5.05 36.4 4.35 35.1" fill="#fc3e24" fill-rule="evenodd" stroke="none"/>
      <path d="M6.4 31.0 L6.45 31.0 8.0 31.15 8.85 31.35 8.85 31.45 8.7 33.5 8.65 34.05 8.4 35.1 7.65 34.85 6.75 34.4 6.4 34.25 6.25 34.15 6.25 34.05 6.4 32.05 6.4 31.6 6.4 31.0" fill="#fe5b24" fill-rule="evenodd" stroke="none"/>
      <path d="M-0.25 32.15 L-0.25 31.25 -0.1 31.15 0.35 31.0 0.25 31.4 0.05 31.85 -0.05 32.05 -0.25 32.15" fill="#ff451f" fill-rule="evenodd" stroke="none"/>
      <path d="M-0.25 39.55 L-0.25 33.3 -0.15 34.85 0.25 37.8 Q0.55 39.3 1.0 40.65 L0.7 40.8 0.55 40.85 0.55 40.9 0.45 40.85 -0.25 39.55" fill="#f74119" fill-rule="evenodd" stroke="none"/>
      <path d="M-0.25 40.7 L-0.25 39.55 0.45 40.85 0.0 40.75 -0.25 40.7" fill="#ff5324" fill-rule="evenodd" stroke="none"/>
      <path d="M0.1 41.05 L-0.25 41.2 -0.25 40.7 0.0 40.75 0.45 40.85 0.55 40.9 0.5 40.9 0.1 41.05" fill="#e30149" fill-rule="evenodd" stroke="none"/>
      <path d="M18.25 -0.2 L18.5 -0.05 21.05 0.5 M24.8 53.3 L25.05 53.5 M12.75 53.5 L12.2 53.3 10.0 52.2 6.65 49.85 Q3.75 47.4 1.6 43.85 L0.1 41.05 M-0.25 13.9 L0.35 13.35 1.05 12.4 1.4 11.75 Q0.85 10.9 0.45 9.85 L0.15 9.15 -0.25 8.05 M-0.25 3.35 L0.1 3.55 0.3 3.65 1.95 3.95 2.15 3.95 Q3.95 3.9 5.45 2.45 L5.9 2.0 6.55 1.0 6.1 -0.25" fill="none" stroke="#760d83" stroke-linecap="round" stroke-linejoin="round" stroke-width="1.0"/>
      <path d="M21.05 0.5 L20.8 0.0 20.8 -0.25 M24.25 -0.25 L24.65 0.15 26.65 1.95 31.1 5.05 32.85 6.05 M35.6 7.45 L35.6 7.25 35.35 3.7 Q35.35 1.55 35.9 -0.25 M52.2 -0.25 L53.1 1.75 M52.6 1.65 L52.25 1.65 Q48.7 1.65 45.9 5.1 L45.25 5.95 Q43.25 8.9 42.5 12.6 L42.45 12.9 Q42.15 14.8 42.15 16.95 L42.15 17.15 Q42.2 19.4 42.8 21.6 L43.6 23.8 43.85 24.35 44.05 24.75 47.0 30.15 47.2 30.25 47.5 30.3 47.95 30.45 48.45 30.45 Q49.65 30.45 50.4 29.8 M27.75 47.6 L27.6 47.7 Q26.8 48.3 25.95 49.45 L25.75 49.75 Q25.15 50.55 24.9 51.3 L24.85 51.4 24.8 51.75 Q24.6 52.55 24.8 53.3 M0.1 41.05 L-0.25 41.2 M-0.25 27.9 L-0.15 27.9 1.6 27.55 1.85 27.5 2.45 27.3 3.75 26.6 4.25 26.2 M43.25 32.0 L43.45 31.95 Q44.2 31.75 44.7 30.95 42.8 27.8 41.05 24.2 L40.45 22.95 39.9 21.8 39.55 20.95 38.3 17.95 Q37.4 15.6 36.8 13.3 35.9 10.3 35.6 7.45 M40.65 31.05 L40.7 31.1 Q41.55 31.85 42.8 32.0 L43.25 32.0 M23.7 22.25 L24.55 22.15 27.15 21.9 27.7 21.9 Q30.2 21.9 32.15 22.6 L33.15 23.05 34.2 23.65 35.2 24.35 37.35 26.4 38.7 28.3 Q39.8 30.25 40.65 31.05 M23.7 22.25 L22.95 22.45 21.75 21.95 Q19.95 20.95 19.65 18.65 L17.95 20.15 16.55 21.6 Q15.05 23.4 14.15 25.35 12.75 28.4 12.75 31.8 L12.75 32.6 12.8 33.95 Q13.35 40.15 17.3 42.9 L18.4 43.6 Q20.7 44.75 23.95 45.05 L25.9 45.15 26.1 45.15 28.6 44.85 M8.85 31.35 L8.85 31.2 8.65 30.15 M8.65 34.05 L8.7 33.5 8.85 31.45 8.85 31.35 M8.4 35.1 L8.65 34.05 M8.2 35.95 L8.35 35.2 8.4 35.1 M5.15 38.6 L5.9 38.05 6.1 37.9 8.0 36.4 8.2 35.95 M5.15 38.6 L4.15 39.15 2.6 40.0 2.2 40.2 1.0 40.65 0.7 40.8 0.55 40.85 0.55 40.9 0.5 40.9 0.1 41.05" fill="none" stroke="#931034" stroke-linecap="round" stroke-linejoin="round" stroke-width="1.0"/>
      <path d="M32.85 6.05 L34.5 6.85 35.6 7.45 M42.5 12.6 L42.8 12.9 43.45 13.6 43.95 14.15 45.75 16.45 45.95 16.7 46.55 17.7 46.6 17.7 47.8 19.6 48.05 20.1 48.4 20.7 49.4 23.15 49.6 24.05 49.65 24.35 M35.5 49.95 Q35.15 49.45 33.7 48.9 L32.35 48.45 29.2 47.75 27.75 47.6 27.6 47.6 27.5 47.6 27.25 47.5 Q26.0 46.9 26.0 46.05 L26.1 45.45 26.15 45.45 Q27.1 45.45 28.6 44.85 L29.35 44.55 29.75 44.35 30.1 44.15 30.25 44.1 30.5 43.95 30.7 43.8 34.1 41.55 34.95 40.75 35.25 40.4 36.0 39.3" fill="none" stroke="#c91d1d" stroke-linecap="round" stroke-linejoin="round" stroke-width="1.0"/>
      <path d="M49.65 24.35 L50.2 27.4 50.3 28.4 50.4 29.75 50.4 29.8 50.35 32.25 50.15 33.75 M50.05 34.45 L49.9 35.2 49.25 36.0 48.9 36.15 M49.1 36.8 L49.15 36.9 49.75 38.85 49.75 39.75 Q49.75 43.1 47.85 46.4 L46.75 48.05 Q45.0 50.45 42.35 52.55 L40.5 52.85 39.85 52.8 38.1 52.25 36.75 50.9 35.5 49.95 M49.1 36.8 L48.75 36.55 47.15 36.0 46.8 35.9 45.1 35.6 43.9 35.55 42.35 35.65 42.35 35.7 42.15 35.7 41.2 35.95 41.0 36.0 40.65 36.05 40.3 36.2 40.2 36.25 39.6 36.5 38.2 37.25 38.15 37.3 36.7 38.55 36.45 38.8 36.3 38.95 36.05 39.25 36.0 39.3" fill="none" stroke="#ee4423" stroke-linecap="round" stroke-linejoin="round" stroke-width="1.0"/>
      <path d="M22.4 24.6 Q24.45 23.6 26.9 23.6 31.15 23.6 34.15 26.6 L35.6 28.3 35.95 29.0 Q37.2 31.2 37.2 33.85 L37.1 35.3 Q36.75 38.0 35.0 40.15 L35.0 40.2 34.25 41.0 34.15 41.1 Q32.95 42.35 31.5 43.1 L30.35 43.6 28.8 44.0 27.15 44.15 26.9 44.15 25.0 44.0 Q22.75 43.6 20.9 42.2 L19.6 41.1 19.25 40.75 Q16.6 37.9 16.6 33.85 16.6 29.6 19.6 26.6 20.9 25.3 22.4 24.6 M21.55 40.25 Q20.35 38.7 20.05 36.8 L19.8 34.85 Q19.8 32.3 21.0 30.3 21.6 29.25 22.45 28.35 23.4 27.45 24.55 26.8 L25.3 26.45 Q26.95 25.7 28.95 25.7 32.7 25.7 35.4 28.35 L35.95 29.0 M21.55 40.25 L22.45 41.3 Q23.8 42.55 25.35 43.25 L27.15 43.85 28.8 44.0" fill="none" stroke="#9c0e0e" stroke-linecap="round" stroke-linejoin="round" stroke-width="1.0"/>
    </g>
    <g id="shape2" transform="matrix(1.0, 0.0, 0.0, 1.0, 0.0, 0.0)">
      <path d="M50.5 0.0 Q53.95 0.0 53.95 3.3 L53.95 50.15 Q53.95 53.4 50.5 53.4 L3.3 53.4 Q0.0 53.4 0.0 50.15 L0.0 3.3 Q0.0 0.0 3.3 0.0 L50.5 0.0" fill="#000000" fill-opacity="0.003921569" fill-rule="evenodd" stroke="none"/>
    </g>
  </defs>
</svg>
