<?xml version="1.0" encoding="UTF-8" standalone="no"?>
<svg xmlns:ffdec="https://www.free-decompiler.com/flash" xmlns:xlink="http://www.w3.org/1999/xlink" ffdec:objectType="frame" height="54.95px" width="54.2px" xmlns="http://www.w3.org/2000/svg">
  <g transform="matrix(1.0, 0.0, 0.0, 1.0, 0.25, 0.5)">
    <clipPath id="clipPath0" transform="matrix(1.0, 0.0, 0.0, 1.0, 0.0, 0.0)">
      <path d="M50.5 0.0 Q53.95 0.0 53.95 3.3 L53.95 50.15 Q53.95 53.4 50.5 53.4 L3.3 53.4 Q0.0 53.4 0.0 50.15 L0.0 3.3 Q0.0 0.0 3.3 0.0 L50.5 0.0" fill="#000000" fill-rule="evenodd" stroke="none"/>
    </clipPath>
    <g clip-path="url(#clipPath0)">
      <use ffdec:characterId="2" height="54.95" transform="matrix(1.0, 0.0, 0.0, 1.0, -0.25, -0.5)" width="52.5" xlink:href="#shape1"/>
    </g>
    <use ffdec:characterId="3" height="53.4" transform="matrix(1.0, 0.0, 0.0, 1.0, 0.0, 0.0)" width="53.95" xlink:href="#shape2"/>
  </g>
  <defs>
    <g id="shape1" transform="matrix(1.0, 0.0, 0.0, 1.0, 0.25, 0.5)">
      <path d="M0.35 53.95 L0.25 53.95 0.25 53.85 0.35 53.95 M0.25 41.2 L0.25 30.45 3.15 29.7 Q5.0 29.35 5.1 27.65 L5.15 24.6 5.15 24.55 4.75 22.7 4.1 21.2 Q3.1 19.75 1.65 20.05 L0.25 20.25 0.25 11.3 2.75 13.45 Q4.3 13.45 5.0 11.05 L5.15 10.5 5.9 9.65 6.3 8.9 7.7 4.15 Q8.4 1.4 9.05 0.0 L15.5 0.0 Q14.95 0.65 14.75 1.5 L14.25 4.0 14.25 6.4 14.45 10.0 14.75 13.15 Q14.75 14.0 13.9 14.8 L12.05 16.4 Q9.35 19.15 9.35 24.85 9.35 29.2 10.5 33.3 L11.2 35.5 Q9.7 35.6 8.6 36.25 7.35 36.95 7.35 38.0 7.35 39.05 8.6 39.75 L10.55 40.45 10.1 41.5 10.05 41.5 Q9.45 41.5 8.65 42.4 L7.15 44.5 6.5 45.7 6.4 46.5 5.8 47.25 6.2 46.3 2.55 43.0 2.5 43.0 0.25 41.2 M6.2 46.3 L6.5 45.7 6.2 46.3" fill="#8071ac" fill-rule="evenodd" stroke="none"/>
      <path d="M35.35 8.5 L34.9 8.9 Q34.05 9.8 34.6 11.25 35.15 12.75 36.85 15.85 38.1 18.05 39.0 18.6 L39.65 18.8 Q40.75 18.65 41.15 17.9 L41.7 19.55 42.45 21.95 43.45 26.1 Q44.2 30.2 44.25 34.55 L42.3 34.25 41.65 34.3 40.2 32.55 39.65 31.95 39.85 31.65 Q40.8 30.2 40.8 28.15 40.8 26.1 39.85 24.65 39.0 23.2 37.7 23.2 L37.25 23.3 Q36.3 23.5 35.55 24.65 L35.25 25.15 Q34.65 26.45 34.65 28.15 L34.65 28.25 Q32.35 27.2 29.85 27.2 25.7 27.2 22.35 28.35 22.05 27.0 21.2 26.0 19.95 24.5 18.15 24.5 16.4 24.5 15.15 26.0 13.9 27.5 13.9 29.6 13.9 31.65 15.05 33.1 L13.35 35.2 13.05 35.6 11.65 35.5 11.2 35.5 10.5 33.3 Q9.35 29.2 9.35 24.85 9.35 19.15 12.05 16.4 L13.9 14.8 Q14.75 14.0 14.75 13.15 L14.45 10.0 14.25 6.4 14.25 4.0 14.75 1.5 Q14.95 0.65 15.5 0.0 L18.65 0.0 Q18.5 0.05 18.45 0.15 18.35 0.35 18.7 1.2 L19.15 2.1 Q19.75 3.25 21.6 5.4 24.45 8.1 26.35 8.1 26.95 8.1 27.25 7.45 L27.5 6.5 28.55 7.65 29.85 9.4 30.6 10.6 30.75 8.25 Q30.9 6.95 31.55 6.55 33.55 7.0 35.35 8.5 M0.25 11.3 L0.25 7.4 2.45 7.95 Q4.4 8.55 5.4 9.25 L5.15 10.5 5.0 11.05 Q4.3 13.45 2.75 13.45 L0.25 11.3 M39.85 22.4 L39.05 22.4 Q38.15 22.5 37.25 23.3 38.15 22.5 39.05 22.4 L39.85 22.4 M30.6 10.6 L31.85 12.75 30.6 10.6 M3.45 11.25 Q4.45 11.2 5.15 10.5 4.45 11.2 3.45 11.25 M14.85 23.3 L16.1 23.1 Q17.55 23.1 19.3 24.05 20.9 24.95 21.7 26.0 20.9 24.95 19.3 24.05 17.55 23.1 16.1 23.1 L14.85 23.3" fill="#93b9ff" fill-rule="evenodd" stroke="none"/>
      <path d="M40.8 16.85 L41.0 17.45 41.15 17.9 Q40.75 18.65 39.65 18.8 L39.0 18.6 Q38.1 18.05 36.85 15.85 35.15 12.75 34.6 11.25 34.05 9.8 34.9 8.9 L35.35 8.5 Q38.45 11.1 40.8 16.85 M18.65 0.0 L19.35 0.0 23.8 3.2 27.5 6.5 27.25 7.45 Q26.95 8.1 26.35 8.1 24.45 8.1 21.6 5.4 19.75 3.25 19.15 2.1 L18.7 1.2 Q18.35 0.35 18.45 0.15 18.5 0.05 18.65 0.0" fill="#bbd3ff" fill-rule="evenodd" stroke="none"/>
      <path d="M44.7 14.75 Q45.4 15.15 45.95 15.9 46.85 17.05 47.65 17.35 L48.15 17.5 Q48.6 17.5 49.0 17.1 49.55 16.65 49.55 16.05 L49.25 14.75 Q50.15 15.55 50.75 16.95 L51.1 17.9 Q50.7 19.55 49.3 19.95 L48.8 20.05 48.3 20.05 Q47.75 20.05 46.45 18.95 L46.05 18.9 46.0 18.85 45.8 18.4 Q45.15 16.85 44.25 16.55 L43.6 16.4 44.25 16.55 Q45.15 16.85 45.8 18.4 L46.0 18.85 46.05 18.9 46.0 18.9 42.0 19.45 41.7 19.55 41.15 17.9 41.0 17.45 40.8 16.85 43.45 16.35 43.6 16.4 Q43.8 15.55 44.7 14.75 M0.25 23.45 L0.25 20.25 1.65 20.05 Q3.1 19.75 4.1 21.2 L4.75 22.7 0.25 23.45" fill="#ffd754" fill-rule="evenodd" stroke="none"/>
      <path d="M49.25 14.75 L49.55 16.05 Q49.55 16.65 49.0 17.1 48.6 17.5 48.15 17.5 L47.65 17.35 Q46.85 17.05 45.95 15.9 45.4 15.15 44.7 14.75 L44.7 14.7 Q45.7 13.8 46.65 13.8 48.15 13.8 49.25 14.75" fill="#fcefcf" fill-rule="evenodd" stroke="none"/>
      <path d="M46.05 18.9 L46.45 18.95 Q47.75 20.05 48.3 20.05 L48.8 20.05 49.3 19.95 Q50.7 19.55 51.1 17.9 51.75 19.85 51.75 22.5 L51.65 23.55 50.35 23.85 48.8 23.55 47.65 22.6 46.65 21.4 46.65 21.35 43.1 21.85 42.45 21.95 41.7 19.55 42.0 19.45 46.0 18.9 46.05 18.9 Q46.55 20.2 46.65 21.35 46.55 20.2 46.05 18.9 M0.25 25.35 L0.25 23.45 4.75 22.7 5.15 24.55 0.25 25.35" fill="#cf9a49" fill-rule="evenodd" stroke="none"/>
      <path d="M46.65 21.35 L46.65 21.4 47.65 22.6 48.8 23.55 50.35 23.85 51.65 23.55 51.6 23.9 Q51.45 25.05 50.85 25.9 50.0 27.25 48.85 27.4 L47.0 27.2 Q46.3 26.9 45.4 25.9 L44.7 25.95 43.45 26.1 42.45 21.95 43.1 21.85 46.65 21.35 M46.65 21.4 L46.7 22.1 Q46.7 23.4 46.3 24.55 46.0 25.55 45.4 25.9 46.0 25.55 46.3 24.55 46.7 23.4 46.7 22.1 L46.65 21.4 M0.25 30.45 L0.25 25.35 5.15 24.55 5.15 24.6 5.1 27.65 Q5.0 29.35 3.15 29.7 L0.25 30.45" fill="#b37a26" fill-rule="evenodd" stroke="none"/>
      <path d="M39.15 53.95 L36.2 53.95 35.8 53.45 34.4 53.15 34.15 52.75 34.15 52.65 Q34.2 49.15 37.5 49.35 L38.4 49.45 39.85 50.0 Q40.9 50.6 40.9 51.2 L40.2 52.75 40.15 52.85 39.15 53.95 M31.0 53.95 L26.1 53.95 Q25.35 52.15 25.35 50.15 25.35 49.4 25.5 48.65 L25.8 47.6 Q26.45 45.7 28.1 43.75 30.9 40.45 30.9 39.75 L30.85 39.5 31.2 39.5 33.25 40.65 Q31.05 43.0 30.15 45.25 29.35 47.25 29.35 49.85 L29.35 50.25 Q29.5 52.4 31.0 53.95 M0.25 43.95 L0.25 41.2 2.5 43.0 2.55 43.0 6.2 46.3 5.8 47.25 5.8 47.3 Q5.15 47.8 4.35 47.8 L4.0 47.7 3.95 47.65 Q2.95 47.1 0.5 44.25 L0.25 43.95 M13.05 35.6 L13.35 35.2 15.05 33.1 15.15 33.2 Q16.4 34.7 18.15 34.7 L18.6 34.7 18.25 36.85 Q17.9 40.4 22.6 44.9 21.4 46.3 20.6 47.75 L20.6 47.8 20.05 47.4 16.3 44.75 15.65 44.3 Q11.55 41.55 10.1 41.5 L10.55 40.45 11.65 40.55 Q13.5 40.55 14.75 39.75 16.05 39.05 16.05 38.0 16.05 36.95 14.75 36.25 L13.05 35.6 M31.65 48.85 Q31.65 47.65 32.8 47.5 34.0 47.3 34.0 48.7 L33.95 49.25 Q33.7 50.0 32.8 50.0 32.35 50.0 31.95 49.6 31.65 49.25 31.65 48.85 M35.35 52.45 L35.35 51.95 35.25 52.15 35.35 52.45" fill="#c4bacb" fill-rule="evenodd" stroke="none"/>
      <path d="M41.65 34.3 Q40.35 34.4 39.35 34.95 38.1 35.65 38.1 36.65 38.1 37.65 39.35 38.35 40.6 39.1 42.3 39.1 L44.1 38.85 43.8 39.85 43.7 40.15 41.35 41.3 41.2 41.35 Q38.3 42.5 37.4 43.0 L37.0 43.55 38.15 44.6 38.55 44.6 40.45 44.1 41.65 43.5 42.65 43.1 43.25 42.85 45.55 41.45 47.45 40.15 Q48.35 48.8 43.0 53.75 L42.85 53.95 39.15 53.95 40.15 52.85 40.2 52.75 40.9 51.2 Q40.9 50.6 39.85 50.0 L38.4 49.45 37.5 49.35 Q34.2 49.15 34.15 52.65 L34.15 52.75 34.4 53.15 35.8 53.45 36.2 53.95 31.0 53.95 Q29.5 52.4 29.35 50.25 L29.35 49.85 Q29.35 47.25 30.15 45.25 31.05 43.0 33.25 40.65 L31.2 39.5 30.85 39.5 30.8 39.55 Q29.7 39.7 27.65 40.9 25.6 42.0 24.8 42.7 23.55 43.75 22.6 44.9 17.9 40.4 18.25 36.85 L18.6 34.7 Q20.1 34.5 21.2 33.2 22.45 31.7 22.45 29.6 L22.35 28.35 Q25.7 27.2 29.85 27.2 32.35 27.2 34.65 28.25 34.7 30.25 35.55 31.65 36.45 33.05 37.7 33.05 38.85 33.05 39.65 31.95 L40.2 32.55 41.65 34.3 M37.0 43.55 L34.6 41.65 33.25 40.65 34.6 41.65 37.0 43.55 M10.1 41.5 Q11.55 41.55 15.65 44.3 L16.3 44.75 20.05 47.4 19.3 48.3 Q18.55 48.9 18.05 48.9 17.4 48.9 14.95 47.2 L12.75 45.55 9.5 43.1 8.65 42.4 Q9.45 41.5 10.05 41.5 L10.1 41.5 M31.65 48.85 Q31.65 49.25 31.95 49.6 32.35 50.0 32.8 50.0 33.7 50.0 33.95 49.25 L34.0 48.7 Q34.0 47.3 32.8 47.5 31.65 47.65 31.65 48.85 M35.35 52.45 L35.25 52.15 35.35 51.95 35.35 52.45" fill="#f7eef1" fill-rule="evenodd" stroke="none"/>
      <path d="M41.65 34.3 L42.3 34.25 44.25 34.55 45.25 34.95 Q46.5 35.65 46.5 36.65 L46.3 37.45 45.25 38.35 44.4 38.75 44.1 38.85 42.3 39.1 Q40.6 39.1 39.35 38.35 38.1 37.65 38.1 36.65 38.1 35.65 39.35 34.95 40.35 34.4 41.65 34.3 M11.2 35.5 L11.65 35.5 13.05 35.6 14.75 36.25 Q16.05 36.95 16.05 38.0 16.05 39.05 14.75 39.75 13.5 40.55 11.65 40.55 L10.55 40.45 8.6 39.75 Q7.35 39.05 7.35 38.0 7.35 36.95 8.6 36.25 9.7 35.6 11.2 35.5" fill="#f9796e" fill-rule="evenodd" stroke="none"/>
      <path d="M35.25 25.15 L36.9 23.65 37.25 23.3 36.9 23.65 35.25 25.15 35.55 24.65 Q36.3 23.5 37.25 23.3 L37.7 23.2 Q39.0 23.2 39.85 24.65 40.8 26.1 40.8 28.15 40.8 30.2 39.85 31.65 L39.65 31.95 Q38.85 33.05 37.7 33.05 36.45 33.05 35.55 31.65 34.7 30.25 34.65 28.25 L34.65 28.15 Q34.65 26.45 35.25 25.15 M15.05 33.1 Q13.9 31.65 13.9 29.6 13.9 27.5 15.15 26.0 16.4 24.5 18.15 24.5 19.95 24.5 21.2 26.0 22.05 27.0 22.35 28.35 L22.45 29.6 Q22.45 31.7 21.2 33.2 20.1 34.5 18.6 34.7 L18.15 34.7 Q16.4 34.7 15.15 33.2 L15.05 33.1 M18.45 27.95 Q18.65 28.9 19.5 28.9 20.35 28.9 20.8 28.3 L21.15 27.5 Q21.15 26.65 19.75 26.45 18.45 26.25 18.45 27.95 M38.65 27.5 Q39.3 27.5 39.6 26.9 L39.85 26.15 Q39.85 25.3 38.85 25.1 37.9 24.9 37.9 26.5 38.1 27.5 38.65 27.5" fill="#422f4b" fill-rule="evenodd" stroke="none"/>
      <path d="M18.45 27.95 Q18.45 26.25 19.75 26.45 21.15 26.65 21.15 27.5 L20.8 28.3 Q20.35 28.9 19.5 28.9 18.65 28.9 18.45 27.95 M38.65 27.5 Q38.1 27.5 37.9 26.5 37.9 24.9 38.85 25.1 39.85 25.3 39.85 26.15 L39.6 26.9 Q39.3 27.5 38.65 27.5" fill="#ffffff" fill-rule="evenodd" stroke="none"/>
      <path d="M44.4 38.75 L45.25 38.35 46.3 37.45 47.15 38.2 47.2 38.35 47.25 38.9 47.45 40.15 45.55 41.45 43.25 42.85 42.65 43.1 41.65 43.5 40.45 44.1 38.55 44.6 38.15 44.6 37.0 43.55 37.4 43.0 Q38.3 42.5 41.2 41.35 L41.35 41.3 43.7 40.15 44.5 39.5 44.55 39.4 44.55 39.2 44.4 38.75 M26.1 53.95 L0.35 53.95 0.25 53.85 0.25 43.95 0.5 44.25 Q2.95 47.1 3.95 47.65 L4.0 47.7 4.35 47.8 Q5.15 47.8 5.8 47.3 L5.8 47.25 6.4 46.5 6.5 45.7 7.15 44.5 8.65 42.4 9.5 43.1 12.75 45.55 14.95 47.2 Q17.4 48.9 18.05 48.9 18.55 48.9 19.3 48.3 L20.05 47.4 20.6 47.8 20.6 47.75 Q21.4 46.3 22.6 44.9 23.55 43.75 24.8 42.7 25.6 42.0 27.65 40.9 29.7 39.7 30.8 39.55 L30.85 39.5 30.9 39.75 Q30.9 40.45 28.1 43.75 26.45 45.7 25.8 47.6 L25.5 48.65 Q25.35 49.4 25.35 50.15 25.35 52.15 26.1 53.95 M5.5 47.85 L5.8 47.3 5.5 47.85 M20.4 48.15 L20.6 47.8 20.4 48.15" fill="#9989a6" fill-rule="evenodd" stroke="none"/>
      <path d="M49.25 14.75 Q48.15 13.8 46.65 13.8 45.7 13.8 44.7 14.7 L44.7 14.75 Q43.8 15.55 43.6 16.4 L44.25 16.55 Q45.15 16.85 45.8 18.4 L46.0 18.85 46.05 18.9 Q46.55 20.2 46.65 21.35 L46.65 21.4 46.7 22.1 Q46.7 23.4 46.3 24.55 46.0 25.55 45.4 25.9 45.1 26.1 44.7 26.1 L44.7 25.95 45.4 25.9 Q46.3 26.9 47.0 27.2 L48.85 27.4 Q50.0 27.25 50.85 25.9 51.45 25.05 51.6 23.9 L51.65 23.55 51.75 22.5 Q51.75 19.85 51.1 17.9 L50.75 16.95 Q50.15 15.55 49.25 14.75 M41.15 17.9 L41.0 17.45 40.8 16.85 Q38.45 11.1 35.35 8.5 33.55 7.0 31.55 6.55 30.9 6.95 30.75 8.25 L30.6 10.6 29.85 9.4 28.55 7.65 27.5 6.5 23.8 3.2 19.35 0.0 M41.15 17.9 L41.7 19.55 42.45 21.95 43.45 26.1 44.7 25.95 M40.8 16.85 L43.45 16.35 43.6 16.4 M44.25 34.55 Q44.2 30.2 43.45 26.1 M47.45 40.15 L47.25 38.9 47.2 38.35 47.15 38.2 46.3 37.45 M43.7 40.15 L43.8 39.85 44.1 38.85 M44.4 38.75 L44.55 39.2 44.55 39.4 44.5 39.5 43.7 40.15 41.35 41.3 41.2 41.35 Q38.3 42.5 37.4 43.0 M37.0 43.55 L38.15 44.6 M47.45 40.15 Q48.35 48.8 43.0 53.75 L42.85 53.95 M0.25 7.4 L2.45 7.95 Q4.4 8.55 5.4 9.25 L5.9 9.65 6.3 8.9 7.7 4.15 Q8.4 1.4 9.05 0.0 M37.25 23.3 Q38.15 22.5 39.05 22.4 L39.85 22.4 M37.25 23.3 L36.9 23.65 35.25 25.15 M31.85 12.75 L30.6 10.6 M13.05 35.6 L13.35 35.2 15.05 33.1 M22.35 28.35 Q25.7 27.2 29.85 27.2 32.35 27.2 34.65 28.25 M5.9 9.65 L5.15 10.5 Q4.45 11.2 3.45 11.25 M0.25 20.25 L1.65 20.05 Q3.1 19.75 4.1 21.2 L4.75 22.7 5.15 24.55 5.15 24.6 5.1 27.65 Q5.0 29.35 3.15 29.7 L0.25 30.45 M21.7 26.0 Q20.9 24.95 19.3 24.05 17.55 23.1 16.1 23.1 L14.85 23.3 M22.6 44.9 Q23.55 43.75 24.8 42.7 25.6 42.0 27.65 40.9 29.7 39.7 30.8 39.55 L30.85 39.5 31.2 39.5 33.25 40.65 34.6 41.65 37.0 43.55 M10.55 40.45 L10.1 41.5 Q11.55 41.55 15.65 44.3 L16.3 44.75 20.05 47.4 20.6 47.8 20.6 47.75 Q21.4 46.3 22.6 44.9 M10.1 41.5 L10.05 41.5 Q9.45 41.5 8.65 42.4 L7.15 44.5 6.5 45.7 6.2 46.3 2.55 43.0 2.5 43.0 0.25 41.2 M5.8 47.25 L6.2 46.3 M5.8 47.25 L5.8 47.3 5.5 47.85 M41.65 34.3 L40.2 32.55 39.65 31.95 M20.6 47.8 L20.4 48.15 M0.25 53.85 L0.35 53.95" fill="none" stroke="#422f4b" stroke-linecap="round" stroke-linejoin="round" stroke-width="1.0"/>
      <path d="M29.8 13.8 L28.55 14.65 27.8 12.25 25.2 11.5 24.15 12.95 24.55 15.15 22.0 14.75 20.4 15.65 21.25 17.65 23.3 18.2 21.8 20.4 22.4 22.05 24.35 22.2 25.65 20.5 26.3 23.15 28.45 23.8 30.1 22.5 29.55 20.0 31.4 21.35 33.05 21.0 32.95 19.1 30.8 17.25 32.05 15.8 31.7 13.95 29.8 13.8" fill="#ffd754" fill-rule="evenodd" stroke="none"/>
      <path d="M29.8 13.8 L28.55 14.65 27.8 12.25 25.2 11.5 24.15 12.95 24.55 15.15 22.0 14.75 20.4 15.65 21.25 17.65 23.3 18.2 21.8 20.4 22.4 22.05 24.35 22.2 25.65 20.5 26.3 23.15 28.45 23.8 30.1 22.5 29.55 20.0 31.4 21.35 33.05 21.0 32.95 19.1 30.8 17.25 32.05 15.8 31.7 13.95 29.8 13.8 Z" fill="none" stroke="#422f4b" stroke-linecap="round" stroke-linejoin="round" stroke-width="1.0"/>
    </g>
    <g id="shape2" transform="matrix(1.0, 0.0, 0.0, 1.0, 0.0, 0.0)">
      <path d="M50.5 0.0 Q53.95 0.0 53.95 3.3 L53.95 50.15 Q53.95 53.4 50.5 53.4 L3.3 53.4 Q0.0 53.4 0.0 50.15 L0.0 3.3 Q0.0 0.0 3.3 0.0 L50.5 0.0" fill="#000000" fill-opacity="0.003921569" fill-rule="evenodd" stroke="none"/>
    </g>
  </defs>
</svg>
