<?xml version="1.0" encoding="UTF-8" standalone="no"?>
<svg xmlns:ffdec="https://www.free-decompiler.com/flash" xmlns:xlink="http://www.w3.org/1999/xlink" ffdec:objectType="frame" height="54.95px" width="56.8px" xmlns="http://www.w3.org/2000/svg">
  <g transform="matrix(1.0, 0.0, 0.0, 1.0, 0.95, 1.0)">
    <clipPath id="clipPath0" transform="matrix(1.0, 0.0, 0.0, 1.0, 0.0, 0.0)">
      <path d="M50.5 0.0 Q53.95 0.0 53.95 3.3 L53.95 50.15 Q53.95 53.4 50.5 53.4 L3.3 53.4 Q0.0 53.4 0.0 50.15 L0.0 3.3 Q0.0 0.0 3.3 0.0 L50.5 0.0" fill="#000000" fill-rule="evenodd" stroke="none"/>
    </clipPath>
    <g clip-path="url(#clipPath0)">
      <use ffdec:characterId="2" height="54.95" transform="matrix(1.0, 0.0, 0.0, 1.0, -0.95, -1.0)" width="56.8" xlink:href="#shape1"/>
    </g>
    <use ffdec:characterId="3" height="53.4" transform="matrix(1.0, 0.0, 0.0, 1.0, 0.0, 0.0)" width="53.95" xlink:href="#shape2"/>
  </g>
  <defs>
    <g id="shape1" transform="matrix(1.0, 0.0, 0.0, 1.0, 0.95, 1.0)">
      <path d="M49.6 20.7 L47.7 23.2 45.15 25.4 44.0 26.25 42.2 27.4 40.45 28.25 40.35 28.15 40.15 28.15 38.65 28.85 38.5 28.55 29.65 26.45 24.8 29.6 24.15 29.15 Q23.6 29.15 23.25 29.8 22.8 30.2 23.1 31.05 23.65 31.9 24.8 31.6 L30.3 28.45 38.5 30.1 40.35 29.0 40.6 30.8 39.5 30.8 39.8 34.3 36.2 35.1 30.6 31.4 Q28.85 32.1 26.6 33.9 L16.9 35.85 16.85 35.7 16.35 34.65 20.0 32.2 Q19.9 31.2 19.45 30.7 L18.5 29.85 19.7 28.5 12.95 25.95 11.4 23.5 Q13.05 22.65 12.5 20.95 L11.65 19.55 11.6 19.4 13.35 19.05 18.45 24.65 Q21.9 24.7 25.9 23.0 L29.35 17.65 Q34.0 16.05 38.65 14.8 L40.1 14.45 43.1 13.7 42.5 14.45 Q42.95 15.75 43.8 16.7 L46.2 18.95 Q47.25 19.75 48.4 20.35 L49.6 20.7 M49.9 45.6 Q51.9 49.2 54.9 52.0 L55.35 53.3 55.35 53.45 49.65 53.45 49.45 53.4 48.45 53.15 48.45 53.45 48.25 53.45 49.45 49.0 49.9 45.6 M-0.45 31.8 L-0.45 14.95 -0.1 14.9 0.75 14.65 1.0 14.5 1.3 14.15 1.6 13.65 2.3 13.65 4.7 13.95 5.5 14.5 6.05 16.5 4.8 15.6 3.25 15.4 Q1.45 15.65 0.5 17.55 -0.05 18.5 -0.1 19.55 L-0.1 19.8 -0.05 20.6 0.1 21.5 0.45 23.2 0.95 25.95 1.05 26.75 0.8 29.4 0.7 30.1 0.65 30.4 0.8 30.35 Q3.2 29.25 4.15 27.85 L4.55 28.6 4.65 28.95 4.5 29.15 3.95 29.65 1.75 30.8 1.15 31.1 0.35 31.4 -0.45 31.8 M42.1 16.4 L41.75 15.55 32.7 19.5 32.9 21.15 33.1 21.9 Q33.9 24.95 35.85 25.95 L40.25 26.05 41.1 25.45 42.25 24.6 42.95 24.05 44.0 23.15 46.0 21.15 46.45 20.65 Q45.1 20.15 43.7 18.45 L42.1 16.4 M7.4 35.2 L8.15 33.3 8.45 31.35 8.4 29.85 Q8.2 27.45 6.95 25.05 L6.55 24.3 6.55 24.25 Q6.25 22.85 6.1 21.3 L6.05 20.4 6.05 20.35 6.1 20.4 6.8 21.8 6.95 22.05 7.15 22.35 7.35 22.6 9.1 24.5 9.15 24.55 10.8 26.55 Q11.4 27.65 11.6 28.95 L11.75 30.55 11.65 33.8 11.55 34.9 11.4 35.8 10.7 38.25 8.85 37.35 6.9 36.05 7.4 35.2 M12.2 39.0 L12.25 38.75 12.8 37.65 12.95 37.45 13.05 37.15 13.15 36.95 13.75 35.25 13.8 34.95 13.9 34.2 14.05 34.4 14.45 35.25 14.7 35.75 14.95 36.25 15.1 36.4 15.7 38.6 15.75 39.3 Q16.0 41.35 15.4 42.15 L13.85 43.6 13.5 43.9 13.5 43.6 13.55 43.35 13.2 41.05 12.95 40.0 12.65 39.35 12.6 39.2 12.2 39.0 M22.55 30.1 L23.9 28.6 23.8 28.4 22.75 28.25 22.4 28.85 22.25 29.45 22.25 29.8 22.55 30.1" fill="#414a58" fill-rule="evenodd" stroke="none"/>
      <path d="M11.1 -0.5 L9.25 5.55 8.85 6.55 Q7.45 11.3 7.45 14.85 7.45 16.95 8.3 19.1 L8.6 19.9 8.85 20.4 9.4 20.45 Q10.3 20.45 10.85 19.6 L10.95 19.55 11.25 18.95 11.3 18.8 11.35 18.95 11.6 19.4 11.65 19.55 12.5 20.95 Q13.05 22.65 11.4 23.5 9.4 20.75 6.1 17.95 L6.2 17.05 6.05 16.5 5.5 14.5 4.8 13.15 4.85 12.5 6.65 5.65 Q7.65 2.45 8.8 -0.5 L11.1 -0.5 M25.75 8.5 Q27.95 3.85 30.6 -0.5 L32.9 -0.5 32.75 -0.2 30.0 5.7 Q29.0 7.85 28.4 10.15 L25.75 8.5 M54.9 52.0 L54.2 50.0 54.35 50.0 54.9 50.1 55.1 50.3 55.35 50.6 55.35 53.3 54.9 52.0 M49.45 53.4 L49.5 53.45 48.45 53.45 48.45 53.15 49.45 53.4 M-0.45 38.6 L-0.45 34.75 -0.15 34.75 0.5 34.75 2.0 34.75 3.15 34.4 3.4 34.3 3.75 34.1 4.5 33.6 4.8 34.7 4.8 36.15 4.65 36.8 Q4.4 37.75 4.55 38.55 L4.65 39.05 Q4.85 39.7 5.45 40.0 L6.3 40.45 7.3 40.75 7.85 41.05 Q8.9 41.65 9.6 43.0 10.1 44.05 10.3 45.55 L10.4 45.9 10.25 46.9 9.65 47.75 8.05 49.4 7.9 49.65 7.1 50.9 6.75 51.45 5.95 52.9 5.2 53.05 4.8 53.05 4.1 53.1 3.2 53.1 3.45 51.65 3.5 51.4 4.6 48.7 4.9 48.5 6.0 46.9 Q6.65 45.6 6.5 44.95 6.3 44.2 4.95 43.65 L4.55 43.5 Q3.5 42.85 2.85 41.8 L2.0 40.3 1.7 39.75 1.35 39.35 0.3 38.8 -0.45 38.6 M14.0 31.2 Q14.1 29.35 13.65 27.7 L16.0 28.85 15.6 30.15 14.85 32.3 14.0 31.2 M17.5 37.65 L17.4 37.25 22.5 37.15 26.1 36.9 Q27.4 39.05 29.1 40.85 L29.9 41.7 33.15 44.5 Q29.8 43.75 26.15 42.15 22.0 40.4 17.5 37.65" fill="#2a3147" fill-rule="evenodd" stroke="none"/>
      <path d="M11.1 -0.5 L13.65 -0.5 Q12.5 2.35 11.75 5.6 10.75 9.55 10.4 14.2 L10.4 13.65 Q10.3 15.35 10.65 16.95 L11.3 18.8 11.25 18.95 10.95 19.55 10.85 19.6 Q10.3 20.45 9.4 20.45 L8.85 20.4 8.6 19.9 8.3 19.1 Q7.45 16.95 7.45 14.85 7.45 11.3 8.85 6.55 L9.25 5.55 11.1 -0.5 M18.35 -0.5 L20.35 -0.5 20.55 1.1 21.35 5.9 21.55 6.7 21.85 9.05 22.0 11.75 22.1 13.2 Q22.1 14.3 22.7 13.9 23.25 13.45 23.35 13.75 22.1 14.45 19.7 13.7 L18.35 -0.5 M32.9 -0.5 L35.05 -0.5 34.65 0.4 Q32.35 5.7 30.3 11.65 L28.4 10.15 Q29.0 7.85 30.0 5.7 L32.75 -0.2 32.9 -0.5 M38.9 -0.5 L40.95 -0.5 Q40.4 6.0 40.15 13.1 L37.45 13.95 Q37.9 6.55 38.75 0.55 L38.9 -0.5 M55.35 50.3 L55.35 50.6 55.1 50.3 54.9 50.1 55.15 50.25 55.35 50.3 M-0.45 34.75 L-0.45 33.2 1.45 32.6 1.85 32.5 3.3 32.15 4.3 31.8 4.65 31.35 4.8 31.2 4.9 29.6 4.9 29.55 4.9 29.4 4.95 28.85 5.05 28.95 5.2 29.25 5.9 30.45 6.75 32.05 6.85 32.3 7.15 33.7 Q7.2 34.7 7.4 35.2 L6.9 36.05 6.45 36.9 7.2 37.35 8.45 38.55 9.7 39.9 Q10.8 40.8 11.25 40.8 11.65 40.75 11.9 40.3 L12.6 39.35 12.65 39.35 12.95 40.0 13.2 41.05 13.55 43.35 13.5 43.6 13.5 43.9 14.2 45.15 14.7 45.8 14.3 46.4 13.3 47.6 12.6 48.5 Q10.55 50.8 8.7 52.2 L8.0 52.6 5.95 52.9 6.75 51.45 7.1 50.9 7.9 49.65 8.05 49.4 9.65 47.75 10.25 46.9 10.4 45.9 10.3 45.55 Q10.1 44.05 9.6 43.0 8.9 41.65 7.85 41.05 L7.3 40.75 6.3 40.45 5.45 40.0 Q4.85 39.7 4.65 39.05 L4.55 38.55 Q4.4 37.75 4.65 36.8 L4.8 36.15 4.8 34.7 4.5 33.6 3.75 34.1 3.4 34.3 3.15 34.4 2.0 34.75 0.5 34.75 -0.15 34.75 -0.45 34.75 M48.15 13.25 L48.15 13.4 48.7 13.95 49.45 14.25 49.65 14.25 49.85 15.75 Q49.95 17.55 48.4 20.35 47.25 19.75 46.2 18.95 L43.8 16.7 Q42.95 15.75 42.5 14.45 L43.1 13.7 43.35 13.4 43.45 13.7 43.45 13.6 44.6 13.4 47.15 13.25 48.15 13.25 M6.1 37.35 L6.45 36.9 6.1 37.35" fill="#33455d" fill-rule="evenodd" stroke="none"/>
      <path d="M20.35 -0.5 L22.1 -0.5 23.25 7.25 24.25 12.9 23.35 13.75 Q23.25 13.45 22.7 13.9 22.1 14.3 22.1 13.2 L22.0 11.75 21.85 9.05 21.55 6.7 21.35 5.9 20.55 1.1 20.35 -0.5 M54.35 50.0 L54.75 50.0 55.2 49.95 55.35 49.95 55.35 50.3 55.15 50.25 54.9 50.1 54.35 50.0 M-0.45 33.2 L-0.45 31.8 0.35 31.4 1.15 31.1 1.75 30.8 3.95 29.65 4.5 29.15 4.65 28.95 4.7 28.95 4.7 28.85 4.8 28.8 4.9 28.7 4.95 28.85 4.9 29.4 4.9 29.55 4.9 29.6 4.8 31.2 4.65 31.35 4.3 31.8 3.3 32.15 1.85 32.5 1.45 32.6 -0.45 33.2 M10.7 38.25 L12.05 38.85 12.2 39.0 12.6 39.2 12.65 39.35 12.6 39.35 11.9 40.3 Q11.65 40.75 11.25 40.8 10.8 40.8 9.7 39.9 L8.45 38.55 7.2 37.35 6.45 36.9 6.9 36.05 8.85 37.35 10.7 38.25" fill="#576f93" fill-rule="evenodd" stroke="none"/>
      <path d="M23.65 7.45 L25.75 8.5 28.4 10.15 30.3 11.65 31.75 12.9 35.05 13.45 36.6 13.7 37.2 14.0 32.45 15.0 29.75 15.55 15.3 18.7 15.15 18.7 15.2 18.75 13.3 19.0 13.35 19.05 11.6 19.4 11.35 18.95 14.55 17.9 Q17.65 17.0 19.3 16.6 L21.9 16.05 24.65 15.65 Q26.45 15.1 26.45 13.8 26.45 12.65 24.7 9.2 L23.65 7.45" fill="#f5bf56" fill-rule="evenodd" stroke="none"/>
      <path d="M11.3 18.8 L10.65 16.95 Q14.6 14.6 19.7 13.7 22.1 14.45 23.35 13.75 L24.25 12.9 23.25 7.25 23.65 7.45 24.7 9.2 Q26.45 12.65 26.45 13.8 26.45 15.1 24.65 15.65 L21.9 16.05 19.3 16.6 Q17.65 17.0 14.55 17.9 L11.35 18.95 11.3 18.8 M48.9 24.85 Q51.7 29.05 53.15 33.7 L48.65 36.0 48.9 35.15 Q49.2 33.45 48.5 31.95 L45.35 25.75 48.9 24.85 M-0.45 8.85 L-0.45 6.4 2.1 6.0 6.65 5.65 4.85 12.5 4.8 13.15 Q4.35 12.55 3.8 12.2 L3.7 11.65 2.45 10.45 Q1.6 9.85 -0.45 8.85" fill="#de8338" fill-rule="evenodd" stroke="none"/>
      <path d="M3.2 53.45 L-0.45 53.45 -0.45 52.8 3.15 53.05 3.2 53.45" fill="#c45353" fill-rule="evenodd" stroke="none"/>
      <path d="M8.25 53.45 L3.2 53.45 3.15 53.05 3.2 53.1 4.1 53.1 4.8 53.05 5.2 53.05 5.95 52.9 8.0 52.6 8.25 53.45" fill="#484095" fill-rule="evenodd" stroke="none"/>
      <path d="M-0.45 13.15 L-0.45 11.55 1.45 11.3 Q2.85 11.45 3.8 12.2 4.35 12.55 4.8 13.15 L5.5 14.5 4.7 13.95 2.3 13.65 1.6 13.65 1.7 13.5 Q1.55 12.4 0.65 12.65 L-0.15 12.95 -0.45 13.15 M42.1 16.4 L43.7 18.45 Q45.1 20.15 46.45 20.65 L46.0 21.15 44.0 23.15 42.95 24.05 42.25 24.6 41.1 25.45 40.25 26.05 35.85 25.95 Q33.9 24.95 33.1 21.9 L32.9 21.15 32.7 19.5 41.75 15.55 42.1 16.4" fill="#536473" fill-rule="evenodd" stroke="none"/>
      <path d="M-0.45 14.95 L-0.45 13.15 -0.15 12.95 0.65 12.65 Q1.55 12.4 1.7 13.5 L1.6 13.65 1.3 14.15 1.0 14.5 0.75 14.65 -0.1 14.9 -0.45 14.95" fill="#78879c" fill-rule="evenodd" stroke="none"/>
      <path d="M47.05 53.45 L43.15 53.45 43.4 52.8 44.0 51.45 46.1 45.45 Q46.75 45.8 47.3 46.95 47.95 48.3 48.1 49.9 L47.05 53.45 M42.1 53.45 L39.2 53.45 35.7 53.45 35.8 52.3 35.7 51.45 35.5 49.95 35.3 49.0 35.15 48.6 34.45 46.6 35.15 46.65 35.5 46.75 37.55 46.55 Q40.1 45.8 42.0 43.3 42.8 42.8 43.65 42.25 L43.25 41.25 44.15 39.35 44.7 39.35 45.6 41.05 45.85 42.45 44.85 45.9 43.25 50.65 42.1 53.45 M31.1 53.45 L26.35 53.45 26.15 53.35 Q20.6 50.65 17.75 48.9 L15.7 47.45 14.3 46.4 14.7 45.8 15.45 44.75 Q18.0 46.6 20.9 48.3 L25.35 50.8 28.65 52.35 31.1 53.45 M23.3 53.45 L21.1 53.45 20.0 52.9 15.7 50.5 14.65 49.8 12.6 48.5 13.3 47.6 16.0 49.4 Q19.5 51.6 23.3 53.45 M10.4 53.45 L8.25 53.45 8.0 52.6 8.7 52.2 9.1 52.5 10.4 53.45 M39.2 53.45 L38.0 47.95 37.55 46.55 38.0 47.95 39.2 53.45" fill="#8b8392" fill-rule="evenodd" stroke="none"/>
      <path d="M35.7 53.45 L31.1 53.45 28.65 52.35 28.9 52.15 Q29.45 51.4 29.45 49.75 L29.4 49.15 29.25 48.4 Q28.85 46.7 27.5 44.6 L34.45 46.6 35.15 48.6 35.3 49.0 35.5 49.95 35.7 51.45 35.8 52.3 35.7 53.45" fill="#ada4ae" fill-rule="evenodd" stroke="none"/>
      <path d="M47.7 23.2 L48.9 24.85 45.35 25.75 45.15 25.4 47.7 23.2 M53.15 33.7 L53.75 35.55 Q52.45 40.25 49.5 43.05 L47.9 38.55 48.1 37.75 48.65 36.0 53.15 33.7" fill="#4a55b1" fill-rule="evenodd" stroke="none"/>
      <path d="M40.15 13.1 L44.25 11.85 45.4 11.55 43.4 13.4 43.45 13.6 43.45 13.7 43.35 13.4 43.1 13.7 40.1 14.45 38.65 14.8 Q34.0 16.05 29.35 17.65 L27.95 18.2 29.75 15.55 32.45 15.0 37.2 14.0 37.3 13.95 37.45 13.95 40.15 13.1 M43.35 13.4 L43.4 13.4 43.35 13.4 M18.5 29.85 L19.45 30.7 Q19.9 31.2 20.0 32.2 L16.35 34.65 15.75 33.55 18.5 29.85 M24.8 29.6 L29.65 26.45 38.5 28.55 38.65 28.85 29.95 26.85 25.1 30.1 25.1 29.85 25.2 29.8 24.8 29.6 M22.55 30.1 L22.25 29.8 22.25 29.45 22.4 28.85 22.75 28.25 23.8 28.4 23.9 28.6 22.55 30.1" fill="#617086" fill-rule="evenodd" stroke="none"/>
      <path d="M-0.45 11.55 L-0.45 8.85 Q1.6 9.85 2.45 10.45 L3.7 11.65 3.8 12.2 Q2.85 11.45 1.45 11.3 L-0.45 11.55" fill="#c8b9cc" fill-rule="evenodd" stroke="none"/>
      <path d="M10.65 16.95 Q10.3 15.35 10.4 13.65 L10.4 14.2 Q11.25 13.2 14.2 12.85 17.25 12.55 17.45 11.5 L17.7 6.1 17.7 5.05 Q17.7 1.7 17.25 -0.5 L18.35 -0.5 19.7 13.7 Q14.6 14.6 10.65 16.95 M37.9 -0.5 L38.9 -0.5 38.75 0.55 Q37.9 6.55 37.45 13.95 L37.3 13.95 37.2 14.0 36.6 13.7 35.05 13.45 Q35.9 12.65 36.25 10.55 L37.1 4.75 Q37.45 1.8 37.75 0.35 L37.9 -0.5" fill="#914535" fill-rule="evenodd" stroke="none"/>
      <path d="M10.4 14.2 Q10.75 9.55 11.75 5.6 12.5 2.35 13.65 -0.5 L17.25 -0.5 Q17.7 1.7 17.7 5.05 L17.7 6.1 17.45 11.5 Q17.25 12.55 14.2 12.85 11.25 13.2 10.4 14.2 M35.05 -0.5 L37.9 -0.5 37.75 0.35 Q37.45 1.8 37.1 4.75 L36.25 10.55 Q35.9 12.65 35.05 13.45 L31.75 12.9 30.3 11.65 Q32.35 5.7 34.65 0.4 L35.05 -0.5" fill="#bb6448" fill-rule="evenodd" stroke="none"/>
      <path d="M49.5 43.05 L49.75 43.75 49.9 45.6 49.45 49.0 48.25 53.45 47.05 53.45 48.1 49.9 48.95 46.05 48.7 45.6 48.1 44.25 Q47.55 43.2 46.85 42.65 L47.9 38.55 46.85 42.65 46.1 45.45 44.0 51.45 43.4 52.8 43.15 53.45 42.1 53.45 43.25 50.65 44.85 45.9 45.85 42.45 46.0 41.85 46.1 41.55 46.1 41.45 46.25 40.9 46.55 39.2 Q46.55 38.2 46.0 37.65 L46.25 37.05 47.0 34.9 Q47.5 33.7 45.75 30.0 L44.0 26.25 45.15 25.4 45.35 25.75 48.5 31.95 Q49.2 33.45 48.9 35.15 L48.65 36.0 48.1 37.75 47.9 38.55 49.5 43.05 M26.35 53.45 L23.3 53.45 Q19.5 51.6 16.0 49.4 L13.3 47.6 14.3 46.4 15.7 47.45 17.75 48.9 Q20.6 50.65 26.15 53.35 L26.35 53.45" fill="#c8bcc9" fill-rule="evenodd" stroke="none"/>
      <path d="M44.3 34.0 L44.3 34.45 43.4 38.1 42.75 39.7 41.45 35.3 Q40.7 32.3 40.6 30.8 L40.35 29.0 40.3 28.6 40.35 28.55 40.45 28.45 40.45 28.25 42.2 27.4 Q43.9 30.8 44.3 34.0 M38.15 44.4 L38.5 44.4 37.1 45.2 36.7 45.15 34.45 44.75 33.15 44.5 29.9 41.7 29.1 40.85 Q27.4 39.05 26.1 36.9 L22.5 37.15 17.4 37.25 16.9 35.85 26.6 33.9 Q30.3 40.6 36.4 43.6 L38.15 44.4 M13.65 27.7 L13.55 27.2 12.95 25.95 19.7 28.5 18.5 29.85 15.75 33.55 14.85 32.3 15.6 30.15 16.0 28.85 13.65 27.7" fill="#1d2230" fill-rule="evenodd" stroke="none"/>
      <path d="M21.1 53.45 L10.4 53.45 9.1 52.5 8.7 52.2 Q10.55 50.8 12.6 48.5 L14.65 49.8 15.7 50.5 20.0 52.9 21.1 53.45 M44.3 34.0 Q45.45 35.4 45.05 36.9 L44.8 37.65 44.15 39.35 43.25 41.25 42.75 39.7 43.4 38.1 44.3 34.45 44.3 34.0 M38.5 44.4 Q40.25 44.15 42.0 43.3 40.1 45.8 37.55 46.55 L37.1 45.2 38.5 44.4 M15.45 44.75 L16.35 43.4 Q18.3 42.25 18.0 40.0 L18.55 40.3 Q20.5 41.45 22.45 42.45 L27.5 44.6 Q28.85 46.7 29.25 48.4 L29.4 49.15 29.45 49.75 Q29.45 51.4 28.9 52.15 L28.65 52.35 25.35 50.8 20.9 48.3 Q18.0 46.6 15.45 44.75" fill="#bebcc0" fill-rule="evenodd" stroke="none"/>
      <path d="M42.2 27.4 L44.0 26.25 45.75 30.0 Q47.5 33.7 47.0 34.9 L46.25 37.05 46.0 37.65 Q46.55 38.2 46.55 39.2 L46.25 40.9 46.1 41.45 46.1 41.55 46.0 41.85 45.85 42.45 45.6 41.05 44.7 39.35 44.15 39.35 44.8 37.65 45.05 36.9 Q45.45 35.4 44.3 34.0 43.9 30.8 42.2 27.4 M46.85 42.65 Q47.55 43.2 48.1 44.25 L48.7 45.6 48.95 46.05 48.1 49.9 Q47.95 48.3 47.3 46.95 46.75 45.8 46.1 45.45 L46.85 42.65" fill="#9e9ba3" fill-rule="evenodd" stroke="none"/>
      <path d="M18.0 40.0 L17.65 38.0 17.5 37.65 Q22.0 40.4 26.15 42.15 29.8 43.75 33.15 44.5 L34.45 44.75 36.7 45.15 37.1 45.2 37.55 46.55 35.5 46.75 35.15 46.65 34.45 46.6 27.5 44.6 22.45 42.45 Q20.5 41.45 18.55 40.3 L18.0 40.0" fill="#e0d8de" fill-rule="evenodd" stroke="none"/>
      <path d="M48.15 13.25 Q48.2 12.25 49.1 12.35 50.15 12.5 50.15 13.5 L50.1 13.9 49.65 14.25 49.45 14.25 48.7 13.95 48.15 13.4 48.15 13.25" fill="#97a9c4" fill-rule="evenodd" stroke="none"/>
      <path d="M45.4 11.55 L45.7 11.55 48.8 11.3 Q51.6 11.3 52.15 13.6 52.8 15.85 49.6 20.7 L48.4 20.35 Q49.95 17.55 49.85 15.75 L49.65 14.25 50.1 13.9 50.15 13.5 Q50.15 12.5 49.1 12.35 48.2 12.25 48.15 13.25 L47.15 13.25 44.6 13.4 43.45 13.6 43.4 13.4 45.4 11.55" fill="#4f6689" fill-rule="evenodd" stroke="none"/>
      <path d="M20.25 18.8 L20.35 19.25 20.05 19.65 Q19.65 20.1 18.85 20.1 L17.95 19.85 Q17.8 19.75 17.8 19.4 L17.8 19.35 Q17.9 18.95 18.9 18.65 L19.1 18.55 19.2 18.55 Q20.0 18.4 20.25 18.8" fill="#fbbb7c" fill-rule="evenodd" stroke="none"/>
      <path d="M15.2 18.75 L15.15 18.7 15.3 18.7 29.75 15.55 27.95 18.2 25.45 21.85 19.1 23.2 16.05 19.8 17.8 19.35 17.8 19.4 Q17.8 19.75 17.95 19.85 L18.85 20.1 Q19.65 20.1 20.05 19.65 L20.35 19.25 20.25 18.8 26.1 17.5 24.05 21.05 25.3 20.75 28.1 16.45 19.2 18.55 19.1 18.55 18.9 18.65 15.7 19.35 15.2 18.75" fill="#b65e44" fill-rule="evenodd" stroke="none"/>
      <path d="M16.05 19.8 L15.7 19.35 18.9 18.65 Q17.9 18.95 17.8 19.35 L16.05 19.8 M20.25 18.8 Q20.0 18.4 19.2 18.55 L28.1 16.45 25.3 20.75 24.05 21.05 26.1 17.5 20.25 18.8" fill="#fc8d64" fill-rule="evenodd" stroke="none"/>
      <path d="M40.3 28.6 L40.35 29.0 38.5 30.1 30.3 28.45 24.8 31.6 Q23.65 31.9 23.1 31.05 22.8 30.2 23.25 29.8 23.6 29.15 24.15 29.15 L24.8 29.6 25.2 29.8 25.1 29.85 25.1 30.1 24.5 30.4 24.5 30.65 24.65 30.75 24.8 30.75 30.2 27.95 38.65 29.4 38.95 29.3 40.3 28.6 M13.35 19.05 L13.3 19.0 15.2 18.75 15.7 19.35 16.05 19.8 19.1 23.2 25.45 21.85 27.95 18.2 29.35 17.65 25.9 23.0 Q21.9 24.7 18.45 24.65 L13.35 19.05" fill="#2f2b33" fill-rule="evenodd" stroke="none"/>
      <path d="M40.45 28.25 L40.45 28.45 40.35 28.55 40.3 28.6 38.95 29.3 38.65 29.4 30.2 27.95 24.8 30.75 24.65 30.75 24.5 30.65 24.5 30.4 25.1 30.1 29.95 26.85 38.65 28.85 40.15 28.15 40.35 28.15 40.45 28.25" fill="#36090e" fill-rule="evenodd" stroke="none"/>
      <path d="M40.6 30.8 Q40.7 32.3 41.45 35.3 L42.75 39.7 43.25 41.25 43.65 42.25 Q42.8 42.8 42.0 43.3 40.25 44.15 38.5 44.4 L38.15 44.4 37.45 43.5 38.65 43.2 Q40.4 42.65 41.45 41.7 L41.65 41.45 Q40.9 39.35 39.95 35.1 L36.2 36.0 36.2 35.1 39.8 34.3 39.5 30.8 40.6 30.8" fill="#f8f3bc" fill-rule="evenodd" stroke="none"/>
      <path d="M36.2 35.1 L36.2 36.0 39.95 35.1 Q40.9 39.35 41.65 41.45 L41.45 41.7 Q40.4 42.65 38.65 43.2 L37.45 43.5 Q32.55 37.55 30.6 31.4 L36.2 35.1" fill="#f2bd57" fill-rule="evenodd" stroke="none"/>
      <path d="M37.45 43.5 L38.15 44.4 36.4 43.6 Q30.3 40.6 26.6 33.9 28.85 32.1 30.6 31.4 32.55 37.55 37.45 43.5" fill="#a95612" fill-rule="evenodd" stroke="none"/>
      <path d="M6.05 16.5 L6.2 17.05 6.1 17.95 6.05 20.35 6.1 17.95 Q9.4 20.75 11.4 23.5 L12.95 25.95 13.55 27.2 13.65 27.7 Q14.1 29.35 14.0 31.2 L13.9 34.2 14.0 31.2 14.85 32.3 15.75 33.55 16.35 34.65 16.85 35.7 16.9 35.85 17.4 37.25 17.5 37.65 17.65 38.0 18.0 40.0 Q18.3 42.25 16.35 43.4 L15.45 44.75 14.7 45.8 14.2 45.15 13.5 43.9 13.85 43.6 15.4 42.15 Q16.0 41.35 15.75 39.3 L15.7 38.6 15.1 36.4 14.95 36.25 14.7 35.75 14.45 35.25 14.05 34.4 13.9 34.2 13.8 34.95 13.75 35.25 13.15 36.95 13.05 37.15 12.95 37.45 12.8 37.65 12.25 38.75 12.2 39.0 12.05 38.85 10.7 38.25 11.4 35.8 11.55 34.9 11.65 33.8 11.75 30.55 11.6 28.95 Q11.4 27.65 10.8 26.55 L9.15 24.55 9.1 24.5 7.35 22.6 7.15 22.35 6.95 22.05 6.8 21.8 6.1 20.4 6.05 20.35 6.05 20.4 6.1 21.3 Q6.25 22.85 6.55 24.25 L6.55 24.3 6.95 25.05 Q8.2 27.45 8.4 29.85 L8.45 31.35 8.15 33.3 7.4 35.2 Q7.2 34.7 7.15 33.7 L6.85 32.3 6.75 32.05 5.9 30.45 5.2 29.25 5.05 28.95 4.95 28.85 4.9 28.7 4.8 28.8 4.7 28.85 4.7 28.95 4.65 28.95 4.55 28.6 4.15 27.85 Q3.2 29.25 0.8 30.35 L0.65 30.4 0.7 30.1 0.8 29.4 1.05 26.75 0.95 25.95 0.45 23.2 0.1 21.5 -0.05 20.6 -0.1 19.8 -0.1 19.55 Q-0.05 18.5 0.5 17.55 1.45 15.65 3.25 15.4 L4.8 15.6 6.05 16.5" fill="#4e6772" fill-rule="evenodd" stroke="none"/>
      <path d="M-0.45 52.8 L-0.45 38.6 0.3 38.8 1.35 39.35 1.7 39.75 2.0 40.3 2.85 41.8 Q3.5 42.85 4.55 43.5 L4.95 43.65 Q6.3 44.2 6.5 44.95 6.65 45.6 6.0 46.9 L4.9 48.5 4.6 48.7 3.5 51.4 3.45 51.65 3.2 53.1 3.15 53.05 -0.45 52.8" fill="#37434d" fill-rule="evenodd" stroke="none"/>
      <path d="M11.3 18.8 L10.65 16.95 Q10.3 15.35 10.4 13.65 L10.4 14.2 Q10.75 9.55 11.75 5.6 12.5 2.35 13.65 -0.5 M22.1 -0.5 L23.25 7.25 23.65 7.45 25.75 8.5 Q27.95 3.85 30.6 -0.5 M40.95 -0.5 Q40.4 6.0 40.15 13.1 L44.25 11.85 45.4 11.55 45.7 11.55 48.8 11.3 Q51.6 11.3 52.15 13.6 52.8 15.85 49.6 20.7 L47.7 23.2 48.9 24.85 Q51.7 29.05 53.15 33.7 L53.75 35.55 Q52.45 40.25 49.5 43.05 L49.75 43.75 49.9 45.6 Q51.9 49.2 54.9 52.0 L54.2 50.0 54.35 50.0 54.75 50.0 55.2 49.95 55.35 49.95 M-0.45 6.4 L2.1 6.0 6.65 5.65 Q7.65 2.45 8.8 -0.5 M48.4 20.35 L49.6 20.7 M43.35 13.4 L43.1 13.7 42.5 14.45 Q42.95 15.75 43.8 16.7 L46.2 18.95 Q47.25 19.75 48.4 20.35 M43.4 13.4 L43.35 13.4 M43.4 13.4 L45.4 11.55 M42.2 27.4 L44.0 26.25 45.15 25.4 47.7 23.2 M45.35 25.75 L45.15 25.4 M42.2 27.4 L40.45 28.25 M40.3 28.6 L40.35 29.0 40.6 30.8 Q40.7 32.3 41.45 35.3 L42.75 39.7 43.25 41.25 43.65 42.25 Q42.8 42.8 42.0 43.3 40.25 44.15 38.5 44.4 L38.15 44.4 36.4 43.6 Q30.3 40.6 26.6 33.9 28.85 32.1 30.6 31.4 L36.2 35.1 39.8 34.3 39.5 30.8 40.6 30.8 M48.65 36.0 L48.9 35.15 Q49.2 33.45 48.5 31.95 L45.35 25.75 M49.5 43.05 L47.9 38.55 48.1 37.75 48.65 36.0 M48.25 53.45 L49.45 49.0 49.9 45.6 M35.05 13.45 L36.6 13.7 37.2 14.0 37.3 13.95 37.45 13.95 40.15 13.1 M11.35 18.95 L11.6 19.4 11.65 19.55 12.5 20.95 Q13.05 22.65 11.4 23.5 9.4 20.75 6.1 17.95 L6.2 17.05 6.05 16.5 5.5 14.5 4.8 13.15 4.85 12.5 6.65 5.65 M15.2 18.75 L15.15 18.7 15.3 18.7 29.75 15.55 27.95 18.2 25.45 21.85 19.1 23.2 16.05 19.8 15.7 19.35 15.2 18.75 M32.45 15.0 L37.2 14.0 M25.75 8.5 L28.4 10.15 30.3 11.65 31.75 12.9 35.05 13.45 M23.25 7.25 L24.25 12.9 23.35 13.75 Q22.1 14.45 19.7 13.7 14.6 14.6 10.65 16.95 M-0.45 11.55 L1.45 11.3 Q2.85 11.45 3.8 12.2 4.35 12.55 4.8 13.15 M4.65 28.95 L4.7 28.95 4.7 28.85 4.8 28.8 4.9 28.7 4.95 28.85 5.05 28.95 5.2 29.25 5.9 30.45 6.75 32.05 6.85 32.3 7.15 33.7 Q7.2 34.7 7.4 35.2 L8.15 33.3 8.45 31.35 8.4 29.85 Q8.2 27.45 6.95 25.05 L6.55 24.3 6.55 24.25 Q6.25 22.85 6.1 21.3 L6.05 20.4 6.05 20.35 6.1 17.95 M7.35 22.6 L7.15 22.35 6.95 22.05 6.8 21.8 6.1 20.4 6.05 20.35 M10.7 38.25 L12.05 38.85 12.2 39.0 12.6 39.2 12.65 39.35 12.95 40.0 13.2 41.05 13.55 43.35 13.5 43.6 13.5 43.9 14.2 45.15 14.7 45.8 15.45 44.75 16.35 43.4 Q18.3 42.25 18.0 40.0 L17.65 38.0 17.5 37.65 17.4 37.25 16.9 35.85 26.6 33.9 M12.8 37.65 L12.95 37.45 M13.05 37.15 L13.15 36.95 13.75 35.25 13.8 34.95 13.9 34.2 14.0 31.2 Q14.1 29.35 13.65 27.7 L13.55 27.2 12.95 25.95 11.4 23.5 M11.3 18.8 L11.35 18.95 M18.5 29.85 L15.75 33.55 16.35 34.65 16.85 35.7 16.9 35.85 M12.95 25.95 L19.7 28.5 18.5 29.85 M14.85 32.3 L15.75 33.55 M14.85 32.3 L14.0 31.2 M4.65 28.95 L4.5 29.15 3.95 29.65 1.75 30.8 1.15 31.1 0.35 31.4 -0.45 31.8 M6.45 36.9 L6.9 36.05 7.4 35.2 M6.45 36.9 L6.1 37.35 M14.7 45.8 L14.3 46.4 13.3 47.6 12.6 48.5 Q10.55 50.8 8.7 52.2 L8.0 52.6 8.25 53.45 M10.7 38.25 L8.85 37.35 6.9 36.05 M3.2 53.1 L4.1 53.1 4.8 53.05 5.2 53.05 5.95 52.9 8.0 52.6 M3.15 53.05 L3.2 53.1 M3.15 53.05 L-0.45 52.8 M54.9 52.0 L55.35 53.3 M49.45 53.4 L48.45 53.15 48.45 53.45 M19.7 13.7 L18.35 -0.5" fill="none" stroke="#36090e" stroke-linecap="round" stroke-linejoin="round" stroke-width="1.0"/>
      <path d="M42.75 39.7 L43.4 38.1 44.3 34.45 44.3 34.0 Q43.9 30.8 42.2 27.4 M47.9 38.55 L46.85 42.65 46.1 45.45 44.0 51.45 43.4 52.8 43.15 53.45 M37.55 46.55 L38.0 47.95 39.2 53.45 M13.3 47.6 L16.0 49.4 Q19.5 51.6 23.3 53.45 M33.15 44.5 L34.45 44.75 36.7 45.15 37.1 45.2 38.5 44.4 M37.55 46.55 L37.1 45.2 M17.5 37.65 Q22.0 40.4 26.15 42.15 29.8 43.75 33.15 44.5" fill="none" stroke="#3a2535" stroke-linecap="round" stroke-linejoin="round" stroke-width="1.0"/>
      <path d="M12.95 37.45 L13.05 37.15" fill="none" stroke="#ff0000" stroke-linecap="round" stroke-linejoin="round" stroke-width="1.0"/>
    </g>
    <g id="shape2" transform="matrix(1.0, 0.0, 0.0, 1.0, 0.0, 0.0)">
      <path d="M50.5 0.0 Q53.95 0.0 53.95 3.3 L53.95 50.15 Q53.95 53.4 50.5 53.4 L3.3 53.4 Q0.0 53.4 0.0 50.15 L0.0 3.3 Q0.0 0.0 3.3 0.0 L50.5 0.0" fill="#000000" fill-opacity="0.003921569" fill-rule="evenodd" stroke="none"/>
    </g>
  </defs>
</svg>
