<?xml version="1.0" encoding="UTF-8" standalone="no"?>
<svg xmlns:ffdec="https://www.free-decompiler.com/flash" xmlns:xlink="http://www.w3.org/1999/xlink" ffdec:objectType="frame" height="54.5px" width="55.9px" xmlns="http://www.w3.org/2000/svg">
  <g transform="matrix(1.0, 0.0, 0.0, 1.0, 0.5, 0.5)">
    <clipPath id="clipPath0" transform="matrix(1.0, 0.0, 0.0, 1.0, 0.0, 0.0)">
      <path d="M50.5 0.0 Q53.95 0.0 53.95 3.3 L53.95 50.15 Q53.95 53.4 50.5 53.4 L3.3 53.4 Q0.0 53.4 0.0 50.15 L0.0 3.3 Q0.0 0.0 3.3 0.0 L50.5 0.0" fill="#000000" fill-rule="evenodd" stroke="none"/>
    </clipPath>
    <g clip-path="url(#clipPath0)">
      <use ffdec:characterId="2" height="54.5" transform="matrix(1.0, 0.0, 0.0, 1.0, -0.5, -0.5)" width="55.9" xlink:href="#shape1"/>
    </g>
    <use ffdec:characterId="3" height="53.4" transform="matrix(1.0, 0.0, 0.0, 1.0, 0.0, 0.0)" width="53.95" xlink:href="#shape2"/>
  </g>
  <defs>
    <g id="shape1" transform="matrix(1.0, 0.0, 0.0, 1.0, 0.5, 0.5)">
      <path d="M4.2 30.7 L4.55 31.1 5.0 31.7 5.1 31.8 Q4.9 32.25 4.85 32.75 4.7 33.3 4.7 33.95 L4.8 35.15 5.1 36.3 4.85 36.3 4.6 36.3 4.65 35.95 4.05 35.35 3.6 34.75 3.5 34.6 3.5 34.55 3.4 33.4 3.65 32.35 3.85 31.8 4.05 31.05 4.1 30.9 4.2 30.7 M5.05 37.0 L5.05 37.05 4.9 37.95 4.35 37.15 5.05 37.0" fill="#ad02a8" fill-rule="evenodd" stroke="none"/>
      <path d="M3.85 30.2 L4.1 30.0 Q4.35 29.9 4.55 29.75 L4.85 29.6 4.65 29.9 4.2 30.7 4.1 30.9 4.05 31.05 3.85 31.8 3.65 32.35 3.4 33.4 3.35 33.1 3.45 31.8 3.65 30.95 3.85 30.25 3.85 30.2 M3.5 34.6 L3.6 34.75 4.05 35.35 4.65 35.95 4.6 36.3 4.85 36.3 5.1 36.3 5.15 36.3 5.2 36.35 5.2 36.4 5.3 36.5 6.15 37.25 6.6 37.55 6.7 37.65 6.6 37.9 6.45 37.8 5.6 37.2 5.25 37.0 5.05 37.0 4.35 37.15 4.25 36.95 Q3.9 36.25 3.7 35.45 L3.5 34.6" fill="#f5b9f7" fill-rule="evenodd" stroke="none"/>
      <path d="M12.2 40.1 L12.5 39.9 12.65 39.8 12.75 39.75 12.95 39.6 13.3 39.4 13.35 39.55 13.4 39.65 13.4 39.75 13.05 39.95 12.85 40.05 12.75 40.1 12.3 40.35 11.35 41.05 11.0 41.55 10.8 41.55 11.1 41.1 11.2 41.0 12.2 40.1 M38.0 40.95 L38.25 40.8 38.3 40.75 38.35 40.75 38.4 40.7 38.55 40.6 38.8 40.45 38.85 40.55 38.85 40.6 38.9 40.7 38.6 40.8 38.5 40.9 38.4 40.95 38.1 41.1 37.65 41.4 37.6 41.3 38.0 40.95" fill="#ee51e6" fill-rule="evenodd" stroke="none"/>
      <path d="M10.0 41.4 L10.1 40.7 10.2 39.95 10.5 40.0 11.05 40.05 12.1 40.1 12.2 40.1 11.2 41.0 11.1 41.1 10.8 41.55 10.0 41.4 M37.45 40.95 L37.95 40.95 38.0 40.95 37.6 41.3 37.45 40.95" fill="#ad01ab" fill-rule="evenodd" stroke="none"/>
      <path d="M39.65 41.7 L39.1 41.85 38.1 42.0 37.95 42.0 37.8 41.75 37.65 41.4 38.1 41.1 38.4 40.95 38.5 40.95 38.55 40.95 38.75 40.9 39.7 40.75 39.95 40.8 40.0 40.7 40.85 40.35 41.05 40.25 41.75 39.9 41.75 40.45 39.65 41.7 M17.55 39.4 Q15.9 40.95 13.75 41.4 L11.85 41.6 11.0 41.55 11.35 41.05 12.3 40.35 12.75 40.1 12.85 40.1 13.3 40.05 14.6 39.85 14.95 39.9 15.05 39.75 16.25 39.3 16.55 39.15 17.55 38.65 17.55 39.4" fill="#c201b4" fill-rule="evenodd" stroke="none"/>
      <path d="M40.25 40.3 L40.0 40.7 39.95 40.8 39.7 40.75 39.65 40.75 39.1 40.6 39.0 40.6 38.95 40.6 38.85 40.55 38.8 40.45 39.05 40.3 39.15 40.25 39.85 40.25 40.1 40.2 40.15 40.25 40.25 40.3 M15.35 39.2 L15.05 39.75 14.95 39.9 14.6 39.85 14.55 39.85 13.75 39.65 13.6 39.6 13.55 39.6 13.35 39.55 13.3 39.4 13.7 39.2 13.85 39.15 14.8 39.1 15.15 39.05 15.25 39.15 15.35 39.2" fill="#fed0ff" fill-rule="evenodd" stroke="none"/>
      <path d="M41.05 39.4 L41.5 39.1 41.6 39.1 42.05 39.0 42.1 39.0 41.9 39.25 41.3 40.05 41.05 40.25 40.85 40.35 40.0 40.7 40.25 40.3 40.3 40.2 40.85 39.6 41.05 39.4 M17.7 37.8 L17.7 37.9 16.9 38.8 16.55 39.15 16.25 39.3 15.05 39.75 15.35 39.2 15.45 39.05 16.25 38.2 16.55 37.9 17.15 37.5 17.35 37.45 17.7 37.4 17.7 37.8" fill="#c700c4" fill-rule="evenodd" stroke="none"/>
      <path d="M40.7 39.25 L40.8 39.3 41.05 39.4 40.85 39.6 40.3 40.2 40.25 40.3 40.15 40.25 40.1 40.2 39.95 40.1 40.2 39.8 40.7 39.25 M16.55 37.9 L16.25 38.2 15.45 39.05 15.35 39.2 15.25 39.15 15.15 39.05 15.0 38.9 15.35 38.45 16.0 37.7 16.15 37.75 16.55 37.9" fill="#ffb4ff" fill-rule="evenodd" stroke="none"/>
      <path d="M40.35 38.7 L40.4 38.7 40.5 38.75 40.7 38.8 40.75 39.2 40.7 39.25 40.2 39.8 39.95 40.1 40.1 40.2 39.85 40.25 39.15 40.25 39.05 40.3 38.8 40.45 38.55 40.6 38.4 40.7 38.3 39.95 38.25 39.55 39.25 39.4 40.35 38.7 M12.55 38.15 L14.0 37.9 15.5 37.0 15.55 36.95 15.55 36.9 15.75 37.0 16.0 37.05 16.0 37.15 16.1 37.6 16.0 37.7 15.35 38.45 15.0 38.9 15.15 39.05 14.8 39.1 13.85 39.15 13.7 39.2 13.3 39.4 12.95 39.6 12.75 39.75 12.6 39.0 12.55 38.7 12.55 38.15" fill="#f003cf" fill-rule="evenodd" stroke="none"/>
      <path d="M41.15 38.7 L41.9 38.75 42.0 38.75 42.05 39.0 41.6 39.1 41.5 39.1 41.05 39.4 40.8 39.3 40.7 39.25 40.75 39.2 40.7 38.8 41.05 38.7 41.15 38.7 M16.55 36.85 L16.65 36.9 17.75 37.0 17.7 37.4 17.35 37.45 17.15 37.5 16.55 37.9 16.15 37.75 16.0 37.7 16.1 37.6 16.0 37.15 16.0 37.05 Q16.35 37.05 16.55 36.85" fill="#fff3ff" fill-rule="evenodd" stroke="none"/>
      <path d="M40.75 37.3 L40.8 37.2 40.8 37.4 40.8 37.5 40.9 37.8 41.15 38.05 41.2 38.4 41.1 38.65 41.05 38.7 40.7 38.8 40.5 38.75 40.4 38.7 40.35 38.7 40.15 38.35 40.15 38.25 40.35 37.85 40.55 37.75 40.7 37.45 40.75 37.4 40.75 37.3 M40.85 37.15 L40.85 37.1 40.85 37.15 M15.25 36.4 L15.25 36.25 15.5 35.7 15.8 35.55 16.05 35.15 16.1 35.05 16.1 34.95 16.25 34.6 16.25 34.7 16.2 34.75 16.2 35.05 16.2 35.15 16.3 35.65 16.65 35.95 16.75 36.45 16.55 36.8 16.55 36.85 Q16.35 37.05 16.0 37.05 L15.75 37.0 15.55 36.9 15.25 36.4" fill="#fff9fb" fill-rule="evenodd" stroke="none"/>
      <path d="M41.85 34.2 L42.45 35.1 42.85 36.4 42.85 36.7 42.6 38.15 42.55 38.2 42.25 38.7 42.0 38.75 41.9 38.75 41.15 38.7 41.15 38.65 Q41.6 37.65 41.65 36.7 L41.65 36.5 41.6 35.8 41.15 36.15 41.05 36.2 41.05 36.05 41.35 35.15 41.45 35.0 41.85 34.2 M40.35 33.75 L40.9 33.95 40.95 33.95 41.15 34.15 41.05 34.55 40.55 33.95 40.35 33.75 M17.65 30.45 L18.1 31.05 18.5 31.75 18.55 31.8 18.75 32.2 Q17.8 34.05 17.75 37.0 L16.65 36.9 16.7 36.8 Q17.35 35.3 17.35 33.8 L17.25 32.75 16.65 33.25 16.5 33.35 16.5 33.1 17.0 31.85 17.1 31.6 17.35 31.1 17.65 30.45 M15.5 29.85 L16.3 30.1 16.4 30.15 16.7 30.35 16.5 31.0 15.85 30.15 15.5 29.85" fill="#df01c8" fill-rule="evenodd" stroke="none"/>
      <path d="M41.05 36.2 L41.15 36.15 41.6 35.8 41.65 36.5 41.65 36.7 Q41.6 37.65 41.15 38.65 L41.15 38.7 41.05 38.7 41.1 38.65 41.2 38.4 41.15 38.05 40.9 37.8 41.05 36.85 41.05 36.75 41.05 36.2 M16.5 33.35 L16.65 33.25 17.25 32.75 17.35 33.8 Q17.35 35.3 16.7 36.8 L16.65 36.9 16.55 36.85 16.55 36.8 16.75 36.45 16.65 35.95 16.3 35.65 16.55 34.1 16.5 33.35" fill="#f301df" fill-rule="evenodd" stroke="none"/>
      <path d="M41.05 36.05 L41.05 36.2 41.05 36.75 41.05 36.85 40.9 37.8 40.8 37.5 40.8 37.4 40.8 37.2 40.8 37.15 40.85 37.15 40.85 37.1 40.8 37.05 40.8 36.9 40.9 36.5 40.95 36.25 40.95 36.15 41.05 36.05 M38.0 39.0 L38.3 39.0 38.45 39.0 39.35 38.85 40.15 38.35 40.35 38.7 39.25 39.4 38.25 39.55 38.2 39.55 38.0 39.0 M12.2 37.3 L12.6 37.35 12.8 37.35 14.1 37.15 14.9 36.75 15.25 36.4 15.55 36.9 15.55 36.95 15.5 37.0 14.0 37.9 12.55 38.15 12.45 38.15 12.2 37.3 M16.25 34.6 L16.2 34.55 16.3 33.75 16.35 33.45 16.45 33.3 16.45 33.25 16.5 33.1 16.5 33.35 16.55 34.1 16.3 35.65 16.2 35.15 16.2 35.05 16.2 34.75 16.25 34.7 16.25 34.6" fill="#bd0091" fill-rule="evenodd" stroke="none"/>
      <path d="M8.75 38.7 L8.8 38.65 9.35 37.35 10.25 37.8 12.45 38.15 12.55 38.15 12.55 38.7 12.6 39.0 12.75 39.75 12.65 39.8 12.5 39.9 12.2 40.1 12.1 40.1 11.05 40.05 10.5 40.0 10.4 39.75 10.35 39.7 10.1 38.95 8.75 38.7 M38.25 39.55 L38.3 39.95 38.4 40.7 38.35 40.75 38.3 40.75 38.25 40.8 38.0 40.95 37.95 40.95 37.45 40.95 37.4 40.8 37.3 40.65 36.95 39.7 36.85 39.35 37.15 39.45 38.2 39.55 38.25 39.55" fill="#f502da" fill-rule="evenodd" stroke="none"/>
      <path d="M13.35 39.55 L13.55 39.6 13.6 39.6 13.75 39.65 14.55 39.85 14.6 39.85 13.3 40.05 12.85 40.1 12.75 40.1 12.85 40.05 13.05 39.95 13.4 39.75 13.4 39.65 13.35 39.55 M38.85 40.55 L38.95 40.6 39.0 40.6 39.1 40.6 39.65 40.75 39.7 40.75 38.75 40.9 38.55 40.95 38.5 40.95 38.4 40.95 38.5 40.9 38.6 40.8 38.9 40.7 38.85 40.6 38.85 40.55" fill="#d900b9" fill-rule="evenodd" stroke="none"/>
      <path d="M37.1 38.65 L37.45 38.85 38.0 39.0 38.2 39.55 37.15 39.45 36.85 39.35 36.8 39.3 37.1 38.65 M10.05 36.0 L10.75 36.75 11.55 37.15 12.2 37.3 12.45 38.15 10.25 37.8 9.35 37.35 9.5 37.1 9.55 36.95 10.05 36.0" fill="#af0085" fill-rule="evenodd" stroke="none"/>
      <path d="M40.85 35.65 L40.85 35.7 40.8 36.15 40.8 36.4 40.75 36.9 40.75 37.3 40.75 37.4 40.7 37.45 40.55 37.75 40.35 37.85 40.15 38.25 40.15 38.35 39.35 38.85 38.45 39.0 38.3 39.0 38.0 39.0 37.45 38.85 37.1 38.65 37.5 37.85 37.55 37.9 37.8 38.05 37.85 38.1 38.9 38.35 39.45 38.3 40.2 37.85 40.6 36.95 40.6 36.55 40.55 36.15 Q40.4 35.25 39.5 34.75 38.8 34.4 38.1 34.45 L38.1 34.5 38.0 34.3 38.5 34.2 39.85 34.6 Q40.6 35.0 40.85 35.65 M11.45 30.8 L11.9 30.65 12.85 30.5 14.85 31.05 Q15.9 31.6 16.25 32.55 L16.25 32.6 16.2 33.3 16.15 33.65 16.1 34.95 16.1 35.05 16.05 35.15 15.8 35.55 15.5 35.7 15.25 36.25 15.25 36.4 14.9 36.75 14.1 37.15 12.8 37.35 12.6 37.35 12.2 37.3 11.55 37.15 10.75 36.75 10.05 36.0 10.25 35.6 10.6 34.9 10.85 34.85 11.45 35.65 11.55 35.75 11.9 36.0 Q12.55 36.4 13.35 36.4 L13.45 36.4 14.15 36.4 14.25 36.35 Q14.9 36.2 15.35 35.7 15.9 35.05 15.9 33.85 L15.85 33.25 Q15.6 31.95 14.3 31.3 L12.25 30.8 Q12.1 30.85 11.9 31.0 L11.4 31.35 11.3 31.5 11.1 31.7 10.75 32.3 10.3 32.4 10.15 31.65 10.75 31.1 10.85 31.05 11.45 30.8" fill="#79033d" fill-rule="evenodd" stroke="none"/>
      <path d="M9.15 36.8 L9.25 36.85 9.5 37.1 9.35 37.35 8.8 38.65 8.75 38.7 8.55 39.15 8.55 39.2 8.45 39.4 8.45 39.45 8.4 39.35 8.1 39.1 7.2 38.35 6.6 37.9 6.7 37.65 7.4 38.0 7.5 38.05 8.1 38.25 8.55 37.65 9.0 37.05 9.15 36.8" fill="#f3d1ff" fill-rule="evenodd" stroke="none"/>
      <path d="M4.9 37.95 L5.05 37.05 5.05 37.0 5.25 37.0 5.6 37.2 6.45 37.8 6.6 37.9 7.2 38.35 8.1 39.1 8.4 39.35 8.45 39.45 8.45 39.4 8.9 39.45 8.95 39.45 Q9.45 39.8 10.2 39.95 L10.1 40.7 10.0 41.4 9.2 41.2 Q7.9 40.75 6.8 39.95 L5.85 39.1 5.8 39.1 4.9 37.95" fill="#b400b2" fill-rule="evenodd" stroke="none"/>
      <path d="M10.2 39.95 Q9.45 39.8 8.95 39.45 L8.9 39.45 8.45 39.4 8.55 39.2 8.55 39.15 8.75 38.7 10.1 38.95 10.35 39.7 10.4 39.75 10.5 40.0 10.2 39.95" fill="#da00bb" fill-rule="evenodd" stroke="none"/>
      <path d="M10.85 34.85 L10.6 34.9 10.25 35.6 10.05 36.0 9.55 36.95 9.5 37.1 9.25 36.85 9.15 36.8 9.3 36.55 9.8 35.65 9.85 35.65 10.25 34.75 10.75 34.65 10.9 34.6 11.0 34.85 10.85 34.85" fill="#f9a7e5" fill-rule="evenodd" stroke="none"/>
      <path d="M6.7 37.3 L7.45 36.0 7.55 35.9 7.85 35.5 8.0 35.8 9.0 37.05 8.55 37.65 8.1 38.25 7.5 38.05 6.7 37.3" fill="#f600dd" fill-rule="evenodd" stroke="none"/>
      <path d="M5.1 36.3 L4.8 35.15 4.7 33.95 Q4.7 33.3 4.85 32.75 L5.2 33.1 5.15 33.2 5.2 33.7 5.45 35.0 6.0 36.3 6.65 37.25 6.7 37.3 7.5 38.05 7.4 38.0 6.7 37.65 6.6 37.55 6.15 37.25 5.3 36.5 5.2 36.4 5.2 36.35 5.15 36.3 5.1 36.3" fill="#be00ab" fill-rule="evenodd" stroke="none"/>
      <path d="M7.3 31.9 L7.45 32.7 7.85 33.25 7.65 34.3 7.65 34.4 7.75 35.2 7.85 35.5 7.55 35.9 7.45 36.0 6.7 37.3 6.65 37.25 6.0 36.3 5.45 35.0 5.2 33.7 5.15 33.2 5.2 33.1 Q5.35 32.7 5.85 32.4 L6.6 31.95 7.1 31.85 7.3 31.9" fill="#f704dc" fill-rule="evenodd" stroke="none"/>
      <path d="M43.5 34.35 L43.7 36.05 43.7 36.15 43.35 38.15 42.8 38.2 42.7 38.45 42.55 38.65 42.35 38.7 42.25 38.7 42.55 38.2 42.6 38.15 42.85 36.7 42.85 36.4 42.45 35.1 42.5 35.05 43.15 34.55 43.5 34.35 M18.55 31.8 L18.65 31.7 19.5 31.0 19.65 30.95 19.95 30.75 20.0 30.7 20.1 30.95 Q19.55 31.05 19.25 31.35 L19.1 31.55 18.9 31.9 18.85 31.95 18.75 32.2 18.55 31.8" fill="#ad03a4" fill-rule="evenodd" stroke="none"/>
      <path d="M42.0 38.75 L42.25 38.7 42.35 38.7 42.55 38.65 42.7 38.45 42.8 38.2 43.35 38.15 43.25 38.35 42.95 38.4 42.8 39.0 42.75 39.0 42.55 39.0 42.1 39.0 42.05 39.0 42.0 38.75 M42.75 39.3 L42.55 39.6 41.95 40.25 41.75 40.45 41.75 39.9 Q42.1 39.7 42.55 39.45 L42.75 39.3" fill="#fde7ff" fill-rule="evenodd" stroke="none"/>
      <path d="M43.25 38.35 L42.95 39.0 42.8 39.25 42.75 39.3 42.55 39.45 Q42.1 39.7 41.75 39.9 L41.05 40.25 41.3 40.05 41.9 39.25 42.1 39.0 42.55 39.0 42.75 39.0 42.8 39.0 42.95 38.4 43.25 38.35 M17.7 37.9 L17.75 38.55 17.55 38.65 16.55 39.15 16.9 38.8 17.7 37.9" fill="#c40db7" fill-rule="evenodd" stroke="none"/>
      <path d="M40.95 35.05 L41.35 35.15 41.05 36.05 40.95 36.15 40.95 36.25 40.9 36.5 40.8 36.9 40.8 37.05 40.85 37.1 40.85 37.15 40.8 37.15 40.8 37.2 40.75 37.3 40.75 36.9 40.8 36.4 40.8 36.15 40.85 35.7 40.85 35.65 40.9 35.5 40.95 35.05 M16.1 34.95 L16.15 33.65 16.2 33.3 16.25 32.6 16.25 32.55 16.3 32.35 16.4 31.65 17.0 31.85 16.5 33.1 16.45 33.25 16.45 33.3 16.35 33.45 16.3 33.75 16.2 34.55 16.25 34.6 16.1 34.95" fill="#ff7afd" fill-rule="evenodd" stroke="none"/>
      <path d="M41.8 31.65 L41.95 31.85 Q43.1 32.95 43.5 34.35 L43.15 34.55 42.5 35.05 42.45 35.1 41.85 34.2 42.0 33.9 41.7 33.8 41.25 33.55 41.2 33.55 40.95 33.35 41.1 33.0 41.3 32.5 41.8 31.65 M17.6 26.85 L17.85 27.1 Q19.3 28.55 19.9 30.4 L20.0 30.7 19.95 30.75 19.65 30.95 19.5 31.0 18.65 31.7 18.55 31.8 18.5 31.75 18.1 31.05 17.65 30.45 17.9 30.0 17.45 29.9 16.8 29.55 16.75 29.5 16.45 29.25 16.55 28.8 16.9 28.05 17.6 26.85" fill="#bd00ac" fill-rule="evenodd" stroke="none"/>
      <path d="M41.25 33.55 L41.7 33.8 42.0 33.9 41.85 34.2 41.45 35.0 41.35 35.15 40.95 35.05 41.05 34.55 41.15 34.15 40.95 33.95 41.05 33.85 41.25 33.55 M16.8 29.55 L17.45 29.9 17.9 30.0 17.65 30.45 17.35 31.1 17.1 31.6 17.0 31.85 16.4 31.65 16.5 31.0 16.7 30.35 16.4 30.15 16.5 29.95 16.55 29.9 16.8 29.55" fill="#ffdfff" fill-rule="evenodd" stroke="none"/>
      <path d="M40.25 33.65 L40.2 33.75 40.35 33.75 40.55 33.95 41.05 34.55 40.95 35.05 40.9 35.5 Q40.35 33.95 38.2 33.8 L37.95 33.8 37.9 33.8 38.0 33.3 38.2 32.75 Q39.35 32.95 40.25 33.65 M15.35 29.7 L15.3 29.8 15.5 29.85 15.85 30.15 16.5 31.0 16.4 31.65 16.3 32.35 Q15.6 30.4 13.2 30.0 L12.45 29.9 12.05 29.9 12.0 29.9 12.2 29.15 12.3 28.85 12.45 28.45 13.3 28.6 Q14.3 28.9 15.15 29.55 L15.35 29.7" fill="#ec00d6" fill-rule="evenodd" stroke="none"/>
      <path d="M41.1 33.0 L40.95 33.35 40.95 33.4 41.2 33.55 41.25 33.55 41.05 33.85 40.95 33.95 40.9 33.95 40.35 33.75 40.2 33.75 40.25 33.65 40.35 33.45 40.6 33.05 40.8 32.7 40.9 32.85 41.1 33.0 M16.15 28.35 L16.3 28.5 16.55 28.8 16.45 29.25 16.45 29.3 16.75 29.5 16.8 29.55 16.55 29.9 16.5 29.95 16.4 30.15 16.3 30.1 15.5 29.85 15.3 29.8 15.35 29.7 15.5 29.5 15.5 29.45 15.9 28.9 15.9 28.85 16.15 28.35" fill="#ffd8ff" fill-rule="evenodd" stroke="none"/>
      <path d="M41.7 31.6 L41.8 31.65 41.3 32.5 41.1 33.0 40.9 32.85 40.8 32.7 40.95 32.5 41.7 31.6 M17.45 26.7 L17.6 26.85 16.9 28.05 16.55 28.8 16.3 28.5 16.15 28.35 16.35 28.1 17.45 26.7" fill="#ffb1ff" fill-rule="evenodd" stroke="none"/>
      <path d="M38.1 30.1 Q40.15 30.2 41.7 31.6 L40.95 32.5 40.8 32.7 40.6 33.05 Q39.6 32.35 38.45 32.15 L37.75 32.1 37.35 32.15 36.9 32.2 36.85 32.15 37.15 30.4 37.25 30.15 37.3 30.15 37.8 30.1 38.1 30.1 M14.45 25.0 L15.15 25.25 Q16.4 25.75 17.45 26.7 L16.35 28.1 16.15 28.35 15.9 28.85 15.75 28.75 Q15.3 28.4 14.8 28.2 13.85 27.7 12.8 27.55 L11.75 27.5 10.55 27.6 10.9 25.3 10.95 25.05 11.1 24.65 11.85 24.6 12.15 24.6 14.45 25.0" fill="#c600ab" fill-rule="evenodd" stroke="none"/>
      <path d="M9.8 35.65 L9.3 36.55 9.15 36.8 9.0 37.05 8.0 35.8 7.85 35.5 7.75 35.2 7.65 34.4 7.65 34.3 7.85 33.25 8.15 33.45 9.05 33.7 9.5 33.65 9.5 33.95 9.5 34.05 Q9.5 34.95 9.8 35.65" fill="#a50186" fill-rule="evenodd" stroke="none"/>
      <path d="M8.2 30.5 Q8.5 30.35 8.75 30.35 L8.9 30.35 Q9.25 30.5 9.55 30.8 L9.7 30.9 9.9 31.15 10.15 31.65 10.3 32.4 10.3 32.7 10.3 32.75 10.05 33.3 9.5 33.65 9.05 33.7 8.15 33.45 7.85 33.25 7.45 32.7 7.3 31.9 7.3 31.8 7.35 31.6 7.45 31.2 8.05 30.6 8.2 30.5" fill="#fcfffb" fill-rule="evenodd" stroke="none"/>
      <path d="M10.6 32.65 L10.55 33.25 10.55 33.75 10.75 34.65 10.25 34.75 9.85 35.65 9.8 35.65 Q9.5 34.95 9.5 34.05 L9.5 33.95 9.5 33.65 10.05 33.3 10.3 32.75 10.6 32.65" fill="#7d004d" fill-rule="evenodd" stroke="none"/>
      <path d="M7.6 28.9 L7.7 29.4 7.85 29.75 7.9 29.9 8.2 30.5 8.05 30.6 7.45 31.2 7.35 31.6 7.3 31.8 7.3 31.9 7.1 31.85 6.6 31.95 5.85 32.4 Q5.35 32.7 5.2 33.1 L4.85 32.75 Q4.9 32.25 5.1 31.8 L5.2 31.7 5.25 31.45 5.35 31.3 5.4 31.3 Q5.9 30.25 6.95 29.4 L7.3 29.1 7.6 28.9" fill="#c206b3" fill-rule="evenodd" stroke="none"/>
      <path d="M40.6 33.05 L40.35 33.45 40.25 33.65 Q39.35 32.95 38.2 32.75 L38.0 33.3 37.9 33.8 37.85 33.8 37.7 33.8 36.9 32.2 37.35 32.15 37.75 32.1 38.45 32.15 Q39.6 32.35 40.6 33.05 M15.9 28.85 L15.9 28.9 15.5 29.45 15.5 29.5 15.35 29.7 15.15 29.55 Q14.3 28.9 13.3 28.6 L12.45 28.45 12.3 28.85 12.2 29.15 12.0 29.9 11.95 29.9 11.5 29.95 Q11.05 30.0 10.6 30.2 10.05 30.4 9.55 30.8 9.25 30.5 8.9 30.35 L8.75 30.35 Q8.5 30.35 8.2 30.5 L7.9 29.9 7.85 29.75 7.7 29.4 7.6 28.9 Q9.05 27.9 10.55 27.6 L11.75 27.5 12.8 27.55 Q13.85 27.7 14.8 28.2 15.3 28.4 15.75 28.75 L15.9 28.85" fill="#cc00bb" fill-rule="evenodd" stroke="none"/>
      <path d="M9.55 30.8 Q10.05 30.4 10.6 30.2 11.05 30.0 11.5 29.95 L11.45 30.45 11.45 30.8 10.85 31.05 10.75 31.1 10.15 31.65 9.9 31.15 9.7 30.9 9.55 30.8" fill="#b00275" fill-rule="evenodd" stroke="none"/>
      <path d="M10.55 27.6 Q9.05 27.9 7.6 28.9 L7.3 29.1 6.95 29.4 Q5.9 30.25 5.4 31.3 L5.35 31.3 5.25 31.45 5.2 31.7 5.1 31.8 5.0 31.7 4.55 31.1 4.2 30.7 4.65 29.9 4.85 29.6 4.55 29.75 Q4.35 29.9 4.1 30.0 L3.85 30.2 4.25 29.4 4.3 29.25 5.5 27.5 5.85 27.1 Q7.35 25.6 9.3 25.0 L11.1 24.65 10.95 25.05 10.9 25.3 10.55 27.6 M36.1 30.35 L37.25 30.15 37.15 30.4 36.85 32.15 36.5 31.4 36.1 30.35" fill="#b302b2" fill-rule="evenodd" stroke="none"/>
      <path d="M40.55 36.15 L40.6 36.55 40.6 36.95 40.2 37.85 39.45 38.3 38.9 38.35 37.85 38.1 37.8 38.05 37.55 37.9 37.5 37.85 37.6 37.7 37.9 37.15 38.35 37.15 38.4 37.15 38.4 37.1 39.35 37.05 38.95 36.2 40.15 36.15 40.55 36.15 M15.85 33.25 L15.9 33.85 Q15.9 35.05 15.35 35.7 14.9 36.2 14.25 36.35 L14.15 36.4 13.45 36.4 13.35 36.4 Q12.55 36.4 11.9 36.0 L11.55 35.75 11.45 35.65 10.85 34.85 11.0 34.85 11.7 34.75 12.7 34.7 12.8 34.7 12.7 33.55 12.65 33.45 15.2 33.25 15.85 33.25 M10.9 32.55 L11.15 32.5 11.45 32.4 12.1 32.3 12.15 32.45 12.3 33.25 12.3 33.4 12.25 34.15 11.65 34.35 10.9 34.6 10.75 34.65 10.55 33.75 10.55 33.25 10.6 32.65 10.9 32.55" fill="#4c0024" fill-rule="evenodd" stroke="none"/>
      <path d="M12.3 33.25 L12.65 33.25 12.65 33.45 12.7 33.55 12.8 34.7 12.7 34.7 11.7 34.75 11.0 34.85 10.9 34.6 11.65 34.35 12.25 34.15 12.3 33.4 12.3 33.25 M37.95 37.05 L38.0 37.05 38.4 37.1 38.4 37.15 38.35 37.15 37.9 37.15 37.95 37.05" fill="#bf8fa7" fill-rule="evenodd" stroke="none"/>
      <path d="M12.3 33.25 L12.15 32.45 12.1 32.3 11.45 32.4 11.15 32.5 10.9 32.55 10.95 32.25 11.35 32.15 11.45 32.1 12.0 31.85 12.4 31.65 12.65 33.25 12.3 33.25" fill="#bb89a6" fill-rule="evenodd" stroke="none"/>
      <path d="M10.75 32.3 L11.1 31.7 11.3 31.5 11.4 31.35 11.9 31.0 Q12.1 30.85 12.25 30.8 L14.3 31.3 Q15.6 31.95 15.85 33.25 L15.2 33.25 12.65 33.45 12.65 33.25 12.4 31.65 12.0 31.85 11.45 32.1 11.35 32.15 10.95 32.25 10.75 32.3 M38.95 36.2 L38.1 34.5 38.1 34.45 Q38.8 34.4 39.5 34.75 40.4 35.25 40.55 36.15 L40.15 36.15 38.95 36.2" fill="#490224" fill-rule="evenodd" stroke="none"/>
      <path d="M40.9 35.5 L40.85 35.65 Q40.6 35.0 39.85 34.6 L38.5 34.2 38.0 34.3 37.9 34.15 37.7 33.8 37.85 33.8 37.9 33.8 37.95 33.8 38.2 33.8 Q40.35 33.95 40.9 35.5 M11.5 29.95 L11.95 29.9 12.0 29.9 12.05 29.9 12.45 29.9 13.2 30.0 Q15.6 30.4 16.3 32.35 L16.25 32.55 Q15.9 31.6 14.85 31.05 L12.85 30.5 11.9 30.65 11.45 30.8 11.45 30.45 11.5 29.95" fill="#a2007c" fill-rule="evenodd" stroke="none"/>
      <path d="M10.3 32.4 L10.75 32.3 10.95 32.25 10.9 32.55 10.6 32.65 10.3 32.75 10.3 32.7 10.3 32.4" fill="#ffebff" fill-rule="evenodd" stroke="none"/>
      <path d="M0.0 26.45 L0.0 26.0 0.8 25.3 2.5 23.7 4.85 21.1 6.0 21.85 Q5.5 23.3 5.3 25.0 L4.9 25.15 1.2 26.2 0.6 26.3 0.0 26.45" fill="#ffd400" fill-rule="evenodd" stroke="none"/>
      <path d="M41.25 46.45 L41.2 46.7 40.9 47.9 40.75 48.3 40.0 49.85 39.95 49.8 Q38.4 48.25 36.75 47.0 L36.3 46.65 36.75 44.95 37.05 44.1 37.45 43.3 37.85 43.5 Q38.9 44.1 39.85 45.2 L40.25 45.65 40.4 45.8 41.15 46.4 41.25 46.45 M16.75 53.5 L15.95 53.5 Q14.1 52.5 12.35 51.8 L12.85 51.25 14.85 49.45 Q17.9 46.9 22.2 44.55 23.3 45.55 24.35 46.35 L24.5 46.45 24.35 46.35 24.7 46.3 24.5 46.45 Q23.15 47.2 22.0 48.05 19.0 50.3 16.85 53.3 L16.75 53.5" fill="#4a4971" fill-rule="evenodd" stroke="none"/>
      <path d="M19.7 39.3 L20.3 39.25 20.6 39.2 20.65 39.35 20.85 41.4 20.9 41.65 21.1 43.15 21.2 43.5 21.45 43.75 22.1 44.45 22.2 44.55 Q17.9 46.9 14.85 49.45 L12.85 51.25 12.35 51.8 9.9 50.9 10.85 50.95 7.45 49.75 5.1 48.95 7.8 49.15 9.3 49.1 Q12.65 48.85 15.0 47.3 16.55 46.25 17.65 44.6 19.15 42.4 19.7 39.3" fill="#83774d" fill-rule="evenodd" stroke="none"/>
      <path d="M35.3 53.5 L23.5 53.5 24.35 52.75 26.45 51.0 28.9 48.95 29.65 49.25 33.35 50.7 34.3 51.95 34.75 52.65 35.25 53.45 35.3 53.5 M17.35 53.5 L16.75 53.5 16.85 53.3 17.35 53.5" fill="#394b97" fill-rule="evenodd" stroke="none"/>
      <path d="M36.95 53.5 L35.3 53.5 35.25 53.45 34.75 52.65 34.3 51.95 33.35 50.7 34.25 51.0 34.4 51.05 35.45 51.4 35.9 51.5 35.85 51.35 Q35.85 48.75 36.3 46.65 L36.75 47.0 Q38.4 48.25 39.95 49.8 L40.0 49.85 40.0 49.9 39.25 51.0 38.8 51.6 38.55 51.95 37.8 52.7 36.95 53.5 M23.5 53.5 L17.35 53.5 16.85 53.3 Q19.0 50.3 22.0 48.05 23.15 47.2 24.5 46.45 L24.75 46.65 24.5 46.45 24.7 46.3 24.8 46.3 24.75 46.65 25.85 47.35 26.05 47.45 26.3 47.6 26.8 47.9 28.9 48.95 26.45 51.0 24.35 52.75 23.5 53.5" fill="#2e3e8c" fill-rule="evenodd" stroke="none"/>
      <path d="M11.8 0.15 L11.85 0.1 12.05 0.0 14.0 0.0 13.35 0.3 13.1 0.3 11.8 0.15 M23.1 0.0 L24.3 0.0 24.45 0.05 24.4 0.15 23.1 0.0" fill="#fff5ff" fill-rule="evenodd" stroke="none"/>
      <path d="M14.0 0.0 L17.35 0.0 16.85 0.35 16.6 0.55 13.9 0.35 13.35 0.3 14.0 0.0 M19.25 0.0 L23.1 0.0 24.4 0.15 24.15 0.7 24.1 0.9 22.05 0.6 19.25 0.0" fill="#ffb817" fill-rule="evenodd" stroke="none"/>
      <path d="M17.35 0.0 L19.25 0.0 22.05 0.6 24.1 0.9 23.55 2.1 22.1 1.05 21.85 1.05 21.8 1.0 16.6 0.55 16.85 0.35 17.35 0.0 M37.85 5.75 Q41.1 9.35 42.0 13.5 41.25 13.75 40.55 14.1 39.65 10.3 37.95 6.1 L37.95 6.0 37.85 5.75 M29.75 8.35 L29.95 8.25 30.5 8.65 30.7 8.8 31.35 9.45 31.95 10.1 32.85 11.25 33.05 13.25 32.85 13.1 Q31.95 12.65 30.45 12.65 L30.1 12.65 28.7 9.1 29.75 8.35" fill="#f8b71d" fill-rule="evenodd" stroke="none"/>
      <path d="M46.85 33.05 Q47.4 32.65 48.05 32.4 L48.65 32.15 49.3 31.95 49.6 32.15 50.0 32.7 50.05 32.8 50.25 33.45 50.25 33.55 50.25 33.9 50.25 34.1 49.55 34.9 49.35 35.15 49.25 35.3 48.8 35.75 48.3 35.1 48.2 35.05 48.1 34.95 47.45 34.45 46.55 34.0 45.85 33.8 46.85 33.05" fill="#fee30e" fill-rule="evenodd" stroke="none"/>
      <path d="M41.35 53.5 L39.9 53.5 39.25 52.55 39.05 52.35 38.75 52.1 38.55 51.95 38.8 51.6 39.25 51.0 40.0 49.9 40.15 50.3 40.25 50.65 41.35 53.5" fill="#6273cd" fill-rule="evenodd" stroke="none"/>
      <path d="M40.75 48.3 L42.45 52.4 42.65 53.5 41.35 53.5 40.25 50.65 40.15 50.3 40.0 49.9 40.0 49.85 40.75 48.3" fill="#3b31a2" fill-rule="evenodd" stroke="none"/>
      <path d="M39.9 53.5 L38.7 53.5 38.55 53.35 38.45 53.2 37.8 52.7 38.55 51.95 38.75 52.1 39.05 52.35 39.25 52.55 39.9 53.5" fill="#283c9b" fill-rule="evenodd" stroke="none"/>
      <path d="M38.7 53.5 L36.95 53.5 37.8 52.7 38.45 53.2 38.55 53.35 38.7 53.5" fill="#0dfcff" fill-rule="evenodd" stroke="none"/>
      <path d="M42.45 52.4 L42.75 53.1 42.9 53.5 42.65 53.5 42.45 52.4" fill="#eeecff" fill-rule="evenodd" stroke="none"/>
      <path d="M5.15 53.5 L2.35 53.5 1.5 51.95 0.0 49.35 0.0 47.25 Q2.4 48.55 5.1 48.95 L7.45 49.75 10.85 50.95 9.9 50.9 6.4 50.75 3.45 50.65 4.85 52.95 5.15 53.5" fill="#f0fcff" fill-rule="evenodd" stroke="none"/>
      <path d="M15.95 53.5 L6.7 53.5 4.85 52.95 3.45 50.65 6.4 50.75 9.9 50.9 12.35 51.8 Q14.1 52.5 15.95 53.5" fill="#180e4b" fill-rule="evenodd" stroke="none"/>
      <path d="M6.7 53.5 L5.15 53.5 4.85 52.95 6.7 53.5" fill="#080645" fill-rule="evenodd" stroke="none"/>
      <path d="M43.45 12.9 L47.4 11.8 49.7 11.4 Q49.0 11.75 48.1 12.6 L47.35 13.5 46.6 13.95 45.6 13.45 43.45 12.9" fill="#d78f16" fill-rule="evenodd" stroke="none"/>
      <path d="M47.35 13.5 L46.95 14.15 46.85 14.3 Q45.35 15.3 43.8 17.3 L43.7 16.9 43.7 16.8 43.65 16.25 44.35 15.6 45.45 14.65 46.6 13.95 47.35 13.5" fill="#fff219" fill-rule="evenodd" stroke="none"/>
      <path d="M42.0 13.5 L42.05 13.45 43.45 12.9 45.6 13.45 46.6 13.95 45.45 14.65 44.35 15.6 43.65 16.25 43.1 16.8 42.75 17.15 42.3 16.95 41.0 16.3 40.6 14.35 40.55 14.1 Q41.25 13.75 42.0 13.5" fill="#f7a503" fill-rule="evenodd" stroke="none"/>
      <path d="M46.85 14.3 Q46.1 15.65 46.1 17.25 46.1 17.7 46.45 18.75 L44.8 18.05 44.6 18.0 43.6 17.55 43.8 17.3 Q45.35 15.3 46.85 14.3" fill="#ffcc13" fill-rule="evenodd" stroke="none"/>
      <path d="M42.75 17.15 L43.1 16.8 43.65 16.25 43.7 16.8 43.7 16.9 43.8 17.3 43.6 17.55 43.3 17.95 43.25 18.05 42.9 18.55 42.65 18.85 42.0 19.8 41.9 19.95 41.75 20.25 41.55 19.6 41.45 19.15 41.35 18.65 41.4 18.6 42.3 17.65 42.75 17.15 M41.4 18.6 L41.45 19.15 41.4 18.6" fill="#fbeb02" fill-rule="evenodd" stroke="none"/>
      <path d="M43.3 17.95 L43.45 18.8 43.7 20.2 Q43.95 21.45 44.35 22.55 L44.4 22.65 44.5 23.0 44.8 23.7 45.65 25.35 46.1 26.1 46.55 26.7 46.8 27.5 47.0 28.2 47.05 28.55 44.65 27.9 43.65 25.7 43.45 25.25 Q42.3 22.45 41.75 20.25 L41.9 19.95 42.0 19.8 42.65 18.85 42.9 18.55 43.25 18.05 43.3 17.95 M35.55 28.7 L35.8 28.85 36.05 29.0 35.9 29.85 35.55 28.7" fill="#fff513" fill-rule="evenodd" stroke="none"/>
      <path d="M44.0 17.95 L44.25 18.1 44.45 18.8 44.45 18.95 Q44.45 19.5 44.15 19.5 43.8 19.5 43.75 18.85 L43.75 18.7 Q43.75 18.1 44.0 17.95" fill="#fcff48" fill-rule="evenodd" stroke="none"/>
      <path d="M43.3 17.95 L43.6 17.55 44.6 18.0 44.65 19.0 Q44.8 20.35 45.35 21.7 L44.45 22.55 44.4 22.6 44.4 22.65 44.35 22.55 Q43.95 21.45 43.7 20.2 L43.45 18.8 43.3 17.95 M44.0 17.95 Q43.75 18.1 43.75 18.7 L43.75 18.85 Q43.8 19.5 44.15 19.5 44.45 19.5 44.45 18.95 L44.45 18.8 44.25 18.1 44.0 17.95" fill="#fcfa09" fill-rule="evenodd" stroke="none"/>
      <path d="M46.45 18.75 L46.75 19.6 47.15 20.45 46.25 20.2 45.8 19.75 45.35 19.15 44.65 19.0 44.6 18.0 44.8 18.05 46.45 18.75" fill="#ffdc10" fill-rule="evenodd" stroke="none"/>
      <path d="M47.15 20.45 L47.45 21.1 47.0 22.0 46.95 22.15 Q46.65 22.9 46.55 24.0 L46.5 23.95 46.25 23.5 45.35 21.7 Q44.8 20.35 44.65 19.0 L45.35 19.15 45.8 19.75 46.25 20.2 47.15 20.45" fill="#fbe013" fill-rule="evenodd" stroke="none"/>
      <path d="M44.4 22.65 L44.4 22.6 44.45 22.55 45.35 21.7 46.25 23.5 46.5 23.95 45.9 25.0 45.7 25.25 45.65 25.35 44.8 23.7 44.5 23.0 44.4 22.65" fill="#f8f10b" fill-rule="evenodd" stroke="none"/>
      <path d="M47.05 28.55 L47.0 28.2 46.8 27.5 46.55 26.7 46.1 26.1 45.65 25.35 45.7 25.25 45.9 25.0 46.5 23.95 46.55 24.0 48.0 26.15 48.2 27.6 48.2 27.85 48.25 28.75 48.25 29.2 48.05 32.4 Q47.4 32.65 46.85 33.05 L46.95 32.7 47.25 30.35 47.05 28.55" fill="#fff317" fill-rule="evenodd" stroke="none"/>
      <path d="M47.45 21.1 L48.1 22.15 50.35 24.35 49.75 25.5 49.75 25.55 49.35 26.15 48.2 27.6 48.0 26.15 46.55 24.0 Q46.65 22.9 46.95 22.15 L47.0 22.0 47.45 21.1" fill="#fcd329" fill-rule="evenodd" stroke="none"/>
      <path d="M41.0 16.3 L42.3 16.95 42.75 17.15 42.3 17.65 41.4 18.6 41.35 18.65 41.2 18.15 41.3 18.05 41.2 17.4 41.0 16.3 M41.3 18.05 L41.4 18.6 41.3 18.05" fill="#fee413" fill-rule="evenodd" stroke="none"/>
      <path d="M50.35 24.35 L51.05 24.85 52.3 25.85 52.15 26.95 51.3 29.15 51.05 29.55 50.75 29.1 50.75 29.05 50.85 28.3 50.4 26.65 49.8 25.55 49.75 25.5 50.35 24.35" fill="#fbc117" fill-rule="evenodd" stroke="none"/>
      <path d="M52.3 25.85 L53.75 26.95 53.25 29.2 52.45 30.9 52.2 30.7 51.05 29.55 51.3 29.15 52.15 26.95 52.3 25.85" fill="#e5a304" fill-rule="evenodd" stroke="none"/>
      <path d="M49.75 25.5 L49.8 25.55 50.4 26.65 50.85 28.3 50.75 29.05 50.75 29.1 51.05 29.55 50.7 30.0 50.45 30.4 49.5 31.4 48.65 32.15 48.05 32.4 48.25 29.2 48.25 28.75 48.2 27.85 48.2 27.6 49.35 26.15 49.75 25.55 49.75 25.5" fill="#ffd916" fill-rule="evenodd" stroke="none"/>
      <path d="M52.45 30.9 L51.85 31.75 51.45 31.7 50.65 31.75 49.55 31.9 49.5 31.4 50.45 30.4 50.7 30.0 51.05 29.55 52.2 30.7 52.45 30.9" fill="#f3a90c" fill-rule="evenodd" stroke="none"/>
      <path d="M44.65 27.9 L47.05 28.55 47.25 30.35 46.95 32.7 46.85 33.05 45.85 33.8 45.25 34.4 45.25 33.9 45.15 30.5 46.1 30.6 44.65 27.9" fill="#fcf90e" fill-rule="evenodd" stroke="none"/>
      <path d="M43.5 34.35 Q43.1 32.95 41.95 31.85 L41.8 31.65 41.7 31.6 Q40.15 30.2 38.1 30.1 L38.4 30.1 39.25 30.0 45.15 30.5 45.25 33.9 45.25 34.4 44.1 36.0 43.8 36.1 43.7 36.15 43.7 36.05 43.5 34.35 M40.95 33.35 L41.2 33.55 40.95 33.4 40.95 33.35" fill="#eeff0a" fill-rule="evenodd" stroke="none"/>
      <path d="M49.5 31.4 L49.55 31.9 49.3 31.95 48.65 32.15 49.5 31.4" fill="#ffcd14" fill-rule="evenodd" stroke="none"/>
      <path d="M36.05 29.0 L37.05 29.5 37.15 30.15 37.25 30.15 36.1 30.35 35.9 29.85 36.05 29.0" fill="#fcf64e" fill-rule="evenodd" stroke="none"/>
      <path d="M0.0 19.45 L0.0 18.05 0.15 18.0 0.6 17.9 0.3 18.65 0.0 19.45" fill="#ffd713" fill-rule="evenodd" stroke="none"/>
      <path d="M5.3 25.0 L5.3 25.05 7.4 24.9 7.7 24.9 9.3 25.0 Q7.35 25.6 5.85 27.1 L5.5 27.5 4.9 25.15 5.3 25.0 M21.85 23.8 L21.8 24.2 21.6 26.1 21.15 26.25 20.0 26.65 20.0 26.3 20.15 24.5 21.4 24.0 21.85 23.8" fill="#fdf113" fill-rule="evenodd" stroke="none"/>
      <path d="M20.0 26.65 L21.15 26.25 21.6 26.1 21.55 27.5 21.55 27.55 21.6 28.6 19.95 28.75 20.0 26.65 M4.25 29.4 L3.85 30.2 3.85 30.25 3.65 30.95 3.2 30.85 3.05 29.35 4.25 29.4" fill="#fdf911" fill-rule="evenodd" stroke="none"/>
      <path d="M0.0 18.05 L0.0 15.55 0.2 15.8 0.35 16.0 0.6 16.4 1.2 17.4 1.4 17.7 0.6 17.9 0.15 18.0 0.0 18.05" fill="#d79000" fill-rule="evenodd" stroke="none"/>
      <path d="M0.0 26.0 L0.0 19.45 0.3 18.65 0.6 17.9 1.4 17.7 3.4 19.9 4.2 20.6 4.85 21.1 2.5 23.7 0.8 25.3 0.0 26.0" fill="#fbfa0a" fill-rule="evenodd" stroke="none"/>
      <path d="M0.0 28.95 L0.0 26.45 0.6 26.3 1.2 26.2 4.9 25.15 5.5 27.5 4.3 29.25 4.25 29.4 3.05 29.35 0.0 28.95" fill="#fffa17" fill-rule="evenodd" stroke="none"/>
      <path d="M0.0 30.1 L0.0 28.95 3.05 29.35 3.2 30.85 1.1 30.4 1.05 30.35 0.0 30.1" fill="#fffc11" fill-rule="evenodd" stroke="none"/>
      <path d="M0.0 32.25 L0.0 30.1 1.05 30.35 1.1 30.4 3.2 30.85 3.65 30.95 3.45 31.8 3.0 31.85 1.4 32.05 0.0 32.25" fill="#f8fa11" fill-rule="evenodd" stroke="none"/>
      <path d="M0.0 36.25 L0.0 32.25 1.4 32.05 2.2 34.15 2.9 35.65 2.85 35.65 0.0 36.25 M19.2 39.3 L19.45 39.3 19.7 39.3 Q19.15 42.4 17.65 44.6 16.55 46.25 15.0 47.3 L12.6 47.5 9.7 47.75 9.95 46.85 10.35 44.95 Q14.1 43.85 17.75 40.65 L19.2 39.3" fill="#ffd102" fill-rule="evenodd" stroke="none"/>
      <path d="M0.0 38.3 L0.0 36.25 2.85 35.65 2.9 35.65 3.7 35.45 Q3.9 36.25 4.25 36.95 3.1 37.5 2.05 38.25 L1.45 38.75 0.7 38.8 0.2 38.8 0.1 38.6 0.0 38.3" fill="#ffef1b" fill-rule="evenodd" stroke="none"/>
      <path d="M3.4 33.4 L3.5 34.55 3.5 34.6 3.7 35.45 2.9 35.65 2.2 34.15 1.4 32.05 3.0 31.85 3.45 31.8 3.35 33.1 3.4 33.4" fill="#f1eb00" fill-rule="evenodd" stroke="none"/>
      <path d="M0.95 39.2 L0.75 39.25 0.4 39.35 0.0 39.5 0.0 38.8 0.2 38.8 0.7 38.8 1.45 38.75 0.95 39.2" fill="#cb7200" fill-rule="evenodd" stroke="none"/>
      <path d="M0.0 38.8 L0.0 38.3 0.1 38.6 0.2 38.8 0.0 38.8" fill="#ffe510" fill-rule="evenodd" stroke="none"/>
      <path d="M0.0 3.95 L0.0 0.75 0.4 0.0 1.95 0.0 0.15 3.5 0.1 3.7 0.0 3.95" fill="#f9fef8" fill-rule="evenodd" stroke="none"/>
      <path d="M1.95 0.0 L5.8 0.0 6.05 0.55 6.15 0.75 7.6 1.4 8.6 1.8 8.6 1.95 8.6 2.3 8.6 2.35 8.55 2.35 8.45 2.35 7.7 2.3 7.4 2.3 6.25 2.35 5.25 2.5 5.0 2.55 4.95 2.9 4.95 3.6 5.05 4.0 5.1 4.3 4.85 4.15 4.6 4.0 4.25 3.7 3.5 3.1 3.45 2.85 3.1 0.95 2.75 2.45 2.5 3.9 2.25 5.35 1.2 4.45 0.15 3.5 1.95 0.0 M6.15 0.0 L8.7 0.0 8.6 0.9 6.85 0.3 6.15 0.0" fill="#da7904" fill-rule="evenodd" stroke="none"/>
      <path d="M16.6 0.55 L21.8 1.0 21.85 1.05 21.55 1.45 21.0 2.05 20.15 2.05 18.75 2.15 Q17.4 2.25 16.1 2.7 L14.8 3.2 14.45 3.0 12.9 2.2 13.65 0.75 13.7 0.7 13.9 0.35 16.6 0.55" fill="#f5be19" fill-rule="evenodd" stroke="none"/>
      <path d="M21.85 1.05 L22.1 1.05 23.55 2.1 21.7 5.25 21.45 5.6 21.2 6.0 20.8 6.6 19.3 5.65 17.9 4.85 19.9 3.25 20.1 3.05 21.0 2.05 21.55 1.45 21.85 1.05 M17.7 10.2 L16.0 11.95 15.55 12.4 15.95 11.75 16.15 11.35 16.2 11.35 16.8 10.25 17.7 10.2 M24.05 14.0 L24.1 13.95 25.2 12.5 Q26.8 10.45 28.65 9.1 L28.7 9.1 30.1 12.65 29.6 12.65 28.75 12.75 28.45 12.8 Q27.25 13.65 26.2 14.85 L25.85 15.2 24.75 16.6 22.65 16.4 24.05 14.0" fill="#fcef0b" fill-rule="evenodd" stroke="none"/>
      <path d="M20.8 6.6 L20.25 7.3 18.15 6.0 17.1 5.4 16.45 5.05 15.2 4.4 15.4 3.5 17.2 4.45 17.9 4.85 19.3 5.65 20.8 6.6" fill="#fff81b" fill-rule="evenodd" stroke="none"/>
      <path d="M20.25 7.3 L17.7 10.2 16.8 10.25 16.7 10.25 16.5 9.45 15.95 6.6 18.15 6.0 20.25 7.3" fill="#f9f61d" fill-rule="evenodd" stroke="none"/>
      <path d="M13.2 14.65 L13.05 14.75 11.25 16.3 10.85 16.1 10.05 15.75 9.95 15.0 10.0 14.55 10.0 14.0 10.05 13.95 10.55 13.95 10.95 13.95 11.1 14.0 11.4 14.3 13.2 14.65 M22.65 16.4 L24.75 16.6 Q22.5 19.7 21.85 23.8 L21.4 24.0 20.8 23.2 20.4 22.75 21.1 19.95 Q21.7 18.15 22.65 16.4" fill="#fcc400" fill-rule="evenodd" stroke="none"/>
      <path d="M11.25 16.3 L9.55 17.55 7.6 18.75 7.5 18.85 7.5 18.9 6.8 20.05 6.45 19.8 6.55 18.8 6.7 18.05 Q6.9 16.75 7.2 16.05 L7.5 15.4 7.8 14.85 8.9 15.25 10.05 15.75 10.85 16.1 11.25 16.3 M21.4 24.0 L20.15 24.5 20.3 23.2 20.4 22.75 20.8 23.2 21.4 24.0" fill="#fdd60c" fill-rule="evenodd" stroke="none"/>
      <path d="M21.0 2.05 L20.1 3.05 19.9 3.25 17.9 4.85 17.2 4.45 15.4 3.5 14.8 3.2 16.1 2.7 Q17.4 2.25 18.75 2.15 L20.15 2.05 21.0 2.05" fill="#fedb1d" fill-rule="evenodd" stroke="none"/>
      <path d="M15.2 4.4 L16.45 5.05 17.1 5.4 18.15 6.0 15.95 6.6 12.3 7.2 11.7 7.15 10.4 6.95 Q10.7 5.7 11.15 4.6 L11.95 2.9 12.6 3.15 12.75 3.25 12.7 3.4 Q12.7 3.8 13.05 3.9 L13.35 3.95 13.8 3.75 13.85 3.75 13.95 3.8 15.2 4.4" fill="#ffd416" fill-rule="evenodd" stroke="none"/>
      <path d="M14.8 3.2 L15.4 3.5 15.2 4.4 13.95 3.8 13.85 3.75 14.0 3.4 13.95 3.15 13.65 2.85 13.2 2.7 12.85 2.95 12.8 3.05 12.75 3.25 12.6 3.15 11.95 2.9 11.9 2.9 11.95 2.8 12.1 2.75 12.9 2.2 14.45 3.0 14.8 3.2" fill="#fff33c" fill-rule="evenodd" stroke="none"/>
      <path d="M8.7 0.0 L10.85 0.0 11.6 0.1 11.8 0.15 13.1 0.3 13.35 0.3 13.9 0.35 13.7 0.7 13.65 0.75 12.9 2.2 12.55 2.0 11.35 1.4 10.4 1.25 10.35 1.25 10.05 1.25 9.9 1.2 9.5 1.1 8.6 0.9 8.7 0.0" fill="#e7a200" fill-rule="evenodd" stroke="none"/>
      <path d="M13.85 3.75 L13.8 3.75 13.35 3.95 13.05 3.9 Q12.7 3.8 12.7 3.4 L12.75 3.25 12.8 3.05 12.85 2.95 13.2 2.7 13.65 2.85 13.95 3.15 14.0 3.4 13.85 3.75" fill="#ffffea" fill-rule="evenodd" stroke="none"/>
      <path d="M9.5 1.1 L9.9 1.2 10.05 1.25 10.35 1.25 10.4 1.25 11.35 1.4 12.55 2.0 12.9 2.2 12.1 2.75 11.95 2.8 11.9 2.9 11.5 2.7 10.95 2.55 10.05 2.25 9.55 2.1 9.4 2.05 9.45 1.65 9.45 1.6 9.5 1.1" fill="#ffd813" fill-rule="evenodd" stroke="none"/>
      <path d="M11.95 2.9 L11.15 4.6 Q10.7 5.7 10.4 6.95 L10.3 6.9 9.8 6.1 9.15 5.35 9.1 5.3 8.9 5.25 8.75 4.65 8.55 3.35 8.45 2.65 8.45 2.45 8.45 2.35 8.55 2.35 8.6 2.35 8.6 2.3 8.6 1.95 8.6 1.8 8.8 1.85 9.05 1.95 9.4 2.05 9.55 2.1 10.05 2.25 10.95 2.55 11.5 2.7 11.9 2.9 11.95 2.9" fill="#ffbb16" fill-rule="evenodd" stroke="none"/>
      <path d="M10.4 6.95 L11.7 7.15 11.1 9.6 10.9 10.05 10.4 9.9 9.8 9.6 8.55 8.85 8.1 8.45 7.4 7.5 7.15 6.8 7.15 6.3 7.2 5.85 7.3 5.75 7.4 5.65 Q8.0 5.2 8.75 5.2 L8.9 5.25 9.1 5.3 9.15 5.35 9.8 6.1 10.3 6.9 10.4 6.95" fill="#fff30e" fill-rule="evenodd" stroke="none"/>
      <path d="M11.7 7.15 L12.3 7.2 15.95 6.6 16.5 9.45 16.7 10.25 14.8 10.3 12.9 10.25 12.05 10.2 10.9 10.05 11.1 9.6 11.7 7.15" fill="#fcfb0b" fill-rule="evenodd" stroke="none"/>
      <path d="M15.55 12.4 L15.35 12.65 15.25 12.55 14.45 12.3 13.15 11.95 10.4 11.2 10.35 10.4 10.4 9.9 10.9 10.05 12.05 10.2 12.9 10.25 14.8 10.3 16.7 10.25 16.8 10.25 16.2 11.35 16.15 11.35 15.95 11.75 15.55 12.4" fill="#edbe00" fill-rule="evenodd" stroke="none"/>
      <path d="M10.4 9.9 L10.35 10.4 10.4 11.2 9.35 10.9 8.45 10.6 7.2 9.75 6.55 9.05 6.35 8.75 6.2 8.5 Q6.4 7.15 6.8 6.4 7.0 6.0 7.3 5.75 L7.2 5.85 7.15 6.3 7.15 6.8 7.4 7.5 8.1 8.45 8.55 8.85 9.8 9.6 10.4 9.9" fill="#f7d305" fill-rule="evenodd" stroke="none"/>
      <path d="M15.35 12.65 L14.55 13.4 13.2 14.65 13.15 14.55 13.15 13.85 13.05 12.7 13.15 11.95 14.45 12.3 15.25 12.55 15.35 12.65" fill="#ffe603" fill-rule="evenodd" stroke="none"/>
      <path d="M8.45 10.6 L9.35 10.9 10.4 11.2 13.15 11.95 13.05 12.7 13.15 13.85 11.65 13.6 11.05 13.5 10.3 13.4 7.2 13.05 7.6 12.0 8.15 11.0 8.45 10.6" fill="#fdf40f" fill-rule="evenodd" stroke="none"/>
      <path d="M7.3 5.75 Q7.0 6.0 6.8 6.4 L6.75 6.4 6.5 6.0 6.25 5.7 5.95 5.4 5.95 5.35 5.2 4.3 5.05 4.0 4.95 3.6 4.95 2.9 5.0 2.55 5.25 2.5 6.25 2.35 7.4 2.3 7.7 2.3 8.45 2.35 8.45 2.45 8.45 2.65 8.55 3.35 8.75 4.65 8.9 5.25 8.75 5.2 Q8.0 5.2 7.4 5.65 L7.3 5.75" fill="#fcae0c" fill-rule="evenodd" stroke="none"/>
      <path d="M5.8 0.0 L6.15 0.0 6.85 0.3 8.6 0.9 9.5 1.1 9.45 1.6 9.45 1.65 9.4 2.05 9.05 1.95 8.8 1.85 8.6 1.8 7.6 1.4 6.15 0.75 6.05 0.55 5.8 0.0" fill="#ffc215" fill-rule="evenodd" stroke="none"/>
      <path d="M6.8 6.4 Q6.4 7.15 6.2 8.5 5.75 7.7 5.7 7.0 L5.7 6.85 5.7 6.8 5.5 6.7 5.4 6.65 5.0 6.5 3.95 6.3 3.6 6.35 3.55 6.85 3.75 8.5 3.8 8.75 3.45 9.2 3.3 9.4 3.2 7.2 3.2 6.95 3.2 6.4 3.2 6.1 3.2 6.0 Q3.25 4.3 3.55 3.6 L3.5 3.1 4.25 3.7 4.6 4.0 4.85 4.15 5.1 4.3 5.05 4.0 5.2 4.3 5.95 5.35 5.95 5.4 6.25 5.7 6.5 6.0 6.75 6.4 6.8 6.4" fill="#fcb913" fill-rule="evenodd" stroke="none"/>
      <path d="M3.5 3.1 L3.55 3.6 Q3.25 4.3 3.2 6.0 L3.2 6.1 3.2 6.4 3.05 6.3 2.25 5.4 2.25 5.35 2.5 3.9 2.75 2.45 3.1 0.95 3.45 2.85 3.5 3.1" fill="#ffd61a" fill-rule="evenodd" stroke="none"/>
      <path d="M0.0 10.75 L0.0 3.95 0.1 3.7 0.15 3.5 1.2 4.45 2.25 5.35 2.25 5.4 2.1 6.4 2.3 7.85 Q1.3 8.75 0.45 10.65 L0.2 11.3 0.0 10.75" fill="#e39706" fill-rule="evenodd" stroke="none"/>
      <path d="M6.2 8.5 L6.35 8.75 6.55 9.05 6.05 9.25 Q5.6 9.4 5.0 9.7 L4.9 9.7 4.2 10.0 4.0 9.4 3.8 8.75 3.75 8.5 3.55 6.85 3.6 6.35 3.95 6.3 5.0 6.5 5.4 6.65 5.5 6.7 5.7 6.8 5.7 6.85 5.7 7.0 Q5.75 7.7 6.2 8.5" fill="#fee614" fill-rule="evenodd" stroke="none"/>
      <path d="M3.2 6.4 L3.2 6.95 3.2 7.2 3.3 9.4 3.4 10.35 3.4 10.4 3.7 11.8 3.8 12.2 3.6 12.1 3.55 12.1 3.5 12.15 3.35 12.35 3.2 12.0 3.15 11.9 2.9 11.4 2.85 11.25 2.7 10.65 2.65 10.3 2.3 8.2 2.3 7.85 2.1 6.4 2.25 5.4 3.05 6.3 3.2 6.4" fill="#ffe619" fill-rule="evenodd" stroke="none"/>
      <path d="M3.3 9.4 L3.45 9.2 3.8 8.75 4.0 9.4 4.2 10.0 4.3 10.2 5.0 11.45 6.55 12.9 6.75 13.0 6.2 12.95 5.15 12.9 4.15 12.85 4.15 12.8 3.95 12.3 3.85 12.25 3.8 12.2 3.7 11.8 3.4 10.4 3.4 10.35 3.3 9.4" fill="#ffd81c" fill-rule="evenodd" stroke="none"/>
      <path d="M2.3 7.85 L2.3 8.2 2.65 10.3 2.7 10.65 2.85 11.25 2.9 11.4 3.15 11.9 3.2 12.0 3.35 12.35 3.25 12.65 3.2 12.8 Q3.2 13.25 3.65 13.25 L3.6 13.6 3.45 15.0 3.45 15.55 3.55 17.05 3.6 17.35 3.4 17.1 2.5 15.9 1.3 13.85 1.3 13.8 0.2 11.3 0.45 10.65 Q1.3 8.75 2.3 7.85" fill="#f0b10a" fill-rule="evenodd" stroke="none"/>
      <path d="M6.55 9.05 L7.2 9.75 8.45 10.6 8.15 11.0 7.6 12.0 7.2 13.05 6.75 13.0 6.55 12.9 5.0 11.45 4.3 10.2 4.2 10.0 4.9 9.7 5.0 9.7 Q5.6 9.4 6.05 9.25 L6.55 9.05" fill="#fff413" fill-rule="evenodd" stroke="none"/>
      <path d="M3.35 12.35 L3.5 12.15 3.55 12.1 3.6 12.1 3.8 12.2 3.85 12.25 3.95 12.3 4.15 12.8 4.15 12.85 3.8 13.25 3.75 13.25 3.65 13.25 Q3.2 13.25 3.2 12.8 L3.25 12.65 3.35 12.35" fill="#ffffca" fill-rule="evenodd" stroke="none"/>
      <path d="M6.2 13.9 L6.35 13.9 6.95 13.85 8.25 13.9 8.65 13.9 10.05 13.95 10.0 14.0 10.0 14.55 9.95 15.0 10.05 15.75 8.9 15.25 7.8 14.85 6.75 14.5 4.85 13.9 4.85 13.8 4.85 13.75 5.5 13.85 6.2 13.9" fill="#fdad00" fill-rule="evenodd" stroke="none"/>
      <path d="M6.75 13.0 L7.2 13.05 10.3 13.4 11.05 13.5 11.65 13.6 13.15 13.85 12.65 13.85 12.5 13.85 11.55 13.9 10.95 13.95 10.55 13.95 10.05 13.95 8.65 13.9 8.25 13.9 6.95 13.85 6.35 13.9 6.2 13.9 6.2 13.3 6.2 12.95 6.75 13.0" fill="#fff418" fill-rule="evenodd" stroke="none"/>
      <path d="M6.2 13.9 L5.5 13.85 4.85 13.75 Q4.2 13.6 3.75 13.25 L3.8 13.25 4.15 12.85 5.15 12.9 6.2 12.95 6.2 13.3 6.2 13.9" fill="#fff420" fill-rule="evenodd" stroke="none"/>
      <path d="M4.85 13.75 L4.85 13.8 4.85 13.9 6.75 14.5 7.8 14.85 7.5 15.4 7.2 16.05 Q6.9 16.75 6.7 18.05 L6.55 18.8 6.45 19.8 6.4 19.8 6.0 19.5 5.35 19.05 3.7 17.45 3.65 17.4 3.6 17.35 3.55 17.05 3.45 15.55 3.45 15.0 3.6 13.6 3.65 13.25 3.75 13.25 Q4.2 13.6 4.85 13.75" fill="#ffd304" fill-rule="evenodd" stroke="none"/>
      <path d="M0.0 15.55 L0.0 10.75 0.2 11.3 1.3 13.8 1.3 13.85 2.5 15.9 3.4 17.1 3.6 17.35 3.65 17.4 3.6 17.55 3.4 19.9 1.4 17.7 1.2 17.4 0.6 16.4 0.35 16.0 0.2 15.8 0.0 15.55" fill="#ee9c08" fill-rule="evenodd" stroke="none"/>
      <path d="M6.8 20.05 L6.0 21.85 4.85 21.1 4.2 20.6 3.4 19.9 3.6 17.55 3.65 17.4 3.7 17.45 5.35 19.05 6.0 19.5 6.4 19.8 6.45 19.8 6.8 20.05" fill="#fda80d" fill-rule="evenodd" stroke="none"/>
      <path d="M10.95 13.95 L11.55 13.9 12.5 13.85 12.65 13.85 13.15 13.85 13.15 14.55 13.2 14.65 11.4 14.3 11.1 14.0 10.95 13.95" fill="#ffe629" fill-rule="evenodd" stroke="none"/>
      <path d="M0.0 42.75 L0.0 40.15 0.7 39.4 0.95 39.2 1.45 38.75 2.05 38.25 Q3.1 37.5 4.25 36.95 L4.35 37.15 4.9 37.95 5.8 39.1 5.85 39.1 6.8 39.95 4.6 41.25 1.45 42.7 0.3 43.0 0.0 42.75" fill="#fafc13" fill-rule="evenodd" stroke="none"/>
      <path d="M6.8 39.95 Q7.9 40.75 9.2 41.2 L7.3 42.2 3.65 43.55 1.55 44.0 1.2 43.7 1.15 43.7 0.3 43.0 1.45 42.7 4.6 41.25 6.8 39.95" fill="#fff727" fill-rule="evenodd" stroke="none"/>
      <path d="M0.0 44.15 L0.0 43.05 0.3 43.0 1.15 43.7 1.2 43.7 1.55 44.0 3.65 43.55 7.3 42.2 9.2 41.2 10.0 41.4 10.8 41.55 11.0 41.55 11.85 41.6 13.75 41.4 Q15.9 40.95 17.55 39.4 L17.85 39.1 18.0 38.95 17.85 39.1 17.55 39.4 17.55 38.65 17.75 38.55 17.8 38.85 18.0 38.95 18.35 39.1 19.2 39.3 17.75 40.65 Q14.1 43.85 10.35 44.95 L6.1 45.55 4.85 45.45 3.45 45.0 1.55 44.0 0.9 44.1 0.0 44.15" fill="#f9f50d" fill-rule="evenodd" stroke="none"/>
      <path d="M0.0 46.45 L0.0 44.15 0.9 44.1 1.55 44.0 3.45 45.0 4.85 45.45 6.1 45.55 10.35 44.95 9.95 46.85 9.7 47.75 9.1 47.75 4.2 47.5 2.5 47.25 0.2 46.55 0.0 46.45 M0.0 43.05 L0.0 42.75 0.3 43.0 0.0 43.05" fill="#f6c006" fill-rule="evenodd" stroke="none"/>
      <path d="M0.0 47.25 L0.0 46.45 0.2 46.55 2.5 47.25 4.2 47.5 9.1 47.75 9.7 47.75 12.6 47.5 15.0 47.3 Q12.65 48.85 9.3 49.1 L7.8 49.15 5.1 48.95 Q2.4 48.55 0.0 47.25" fill="#fff8ff" fill-rule="evenodd" stroke="none"/>
      <path d="M24.45 0.05 L24.45 0.0 25.6 0.0 25.55 0.15 25.5 0.35 25.5 0.4 25.25 1.05 24.4 2.85 22.8 5.2 22.55 5.55 24.25 7.0 24.75 7.5 25.05 7.85 25.4 8.35 24.8 7.95 24.35 7.65 22.4 6.95 21.8 6.95 21.55 6.95 21.5 7.05 21.1 7.85 20.05 9.3 20.0 9.35 16.35 13.4 16.3 13.4 16.4 13.45 Q16.7 13.5 17.05 13.7 L17.45 13.9 17.95 14.1 18.65 14.45 17.6 14.4 17.45 14.4 17.05 14.4 16.7 14.45 16.65 14.45 14.85 14.6 14.55 14.95 13.95 15.5 12.5 16.75 12.4 16.85 10.8 18.15 8.85 19.7 8.8 19.7 8.3 20.95 8.0 21.85 7.8 22.7 7.55 24.0 7.4 24.9 5.3 25.05 5.3 25.0 Q5.5 23.3 6.0 21.85 L6.8 20.05 7.5 18.9 7.5 18.85 7.6 18.75 9.55 17.55 11.25 16.3 13.05 14.75 13.2 14.65 14.55 13.4 15.35 12.65 15.55 12.4 16.0 11.95 17.7 10.2 20.25 7.3 20.8 6.6 21.2 6.0 21.45 5.6 21.7 5.25 23.55 2.1 24.1 0.9 24.15 0.7 24.4 0.15 24.45 0.05" fill="#afeeff" fill-rule="evenodd" stroke="none"/>
      <path d="M25.6 0.0 L25.95 0.0 25.65 0.1 25.55 0.15 25.6 0.0" fill="#303ab3" fill-rule="evenodd" stroke="none"/>
      <path d="M25.95 0.0 L35.1 0.0 36.2 2.15 35.9 2.15 33.0 2.35 30.45 2.75 30.2 2.8 30.1 2.8 25.55 4.1 24.7 4.4 22.8 5.2 24.4 2.85 25.25 1.05 25.5 0.4 25.5 0.35 25.55 0.15 25.65 0.1 25.95 0.0" fill="#2b38ba" fill-rule="evenodd" stroke="none"/>
      <path d="M40.6 14.35 L41.0 16.3 41.2 17.4 41.3 18.05 41.2 18.15 41.2 17.4 41.2 18.15 38.95 19.85 38.75 20.0 36.65 21.05 35.8 21.35 35.6 20.05 35.25 17.3 34.8 13.85 35.0 13.05 35.25 12.2 Q36.0 9.85 36.85 8.1 38.7 10.45 40.5 14.1 L40.6 14.35" fill="#4d62cd" fill-rule="evenodd" stroke="none"/>
      <path d="M41.2 18.15 L41.35 18.65 41.45 19.15 41.55 19.6 41.75 20.25 Q42.3 22.45 43.45 25.25 L43.25 25.35 41.3 26.3 40.15 26.75 38.6 27.2 36.7 27.45 36.65 26.9 35.8 21.35 36.65 21.05 38.75 20.0 38.95 19.85 41.2 18.15" fill="#5e72d1" fill-rule="evenodd" stroke="none"/>
      <path d="M43.45 25.25 L43.65 25.7 44.65 27.9 46.1 30.6 45.15 30.5 39.25 30.0 38.4 30.1 38.1 30.1 37.8 30.1 37.3 30.15 37.25 30.15 37.15 30.15 37.05 29.5 36.7 27.45 38.6 27.2 40.15 26.75 41.3 26.3 43.25 25.35 43.45 25.25" fill="#4a5ad4" fill-rule="evenodd" stroke="none"/>
      <path d="M36.2 2.15 L37.55 5.1 37.85 5.75 37.95 6.0 37.95 6.1 Q39.65 10.3 40.55 14.1 L40.6 14.35 40.5 14.1 Q38.7 10.45 36.85 8.1 L34.8 5.8 30.35 6.1 30.2 3.8 30.1 2.8 30.2 2.8 30.45 2.75 33.0 2.35 35.9 2.15 36.2 2.15" fill="#3947b4" fill-rule="evenodd" stroke="none"/>
      <path d="M29.95 8.25 L30.45 7.95 30.55 7.9 30.7 7.8 30.85 7.75 Q32.15 7.8 33.75 8.9 L34.35 9.7 34.45 11.05 34.8 13.85 35.25 17.3 35.6 20.05 35.8 21.35 36.65 26.9 36.7 27.45 37.05 29.5 36.05 29.0 35.8 28.85 35.55 28.7 35.35 28.0 35.05 26.8 34.55 23.55 34.45 20.55 Q34.45 18.4 34.7 17.1 L34.9 16.45 34.25 15.0 34.1 14.7 33.35 13.55 33.25 13.35 33.05 13.25 32.85 11.25 31.95 10.1 31.35 9.45 30.7 8.8 30.5 8.65 29.95 8.25" fill="#34369b" fill-rule="evenodd" stroke="none"/>
      <path d="M34.8 13.85 L34.45 11.05 34.35 9.7 33.75 8.9 Q32.15 7.8 30.85 7.75 L30.7 7.8 30.55 7.9 30.45 7.95 29.95 8.25 29.75 8.35 29.75 7.6 29.75 6.95 29.8 6.2 30.35 6.1 34.8 5.8 36.85 8.1 Q36.0 9.85 35.25 12.2 L35.0 13.05 34.8 13.85" fill="#5160d5" fill-rule="evenodd" stroke="none"/>
      <path d="M30.35 6.1 L29.8 6.2 28.3 6.6 27.5 6.85 26.65 7.15 25.05 7.85 24.75 7.5 24.25 7.0 22.55 5.55 22.8 5.2 24.7 4.4 25.55 4.1 30.1 2.8 30.2 3.8 30.35 6.1 M22.4 6.95 L24.35 7.65 24.8 7.95 23.65 8.6 23.2 8.85 22.95 8.3 22.95 8.25 22.8 7.95 22.4 6.95" fill="#404fc4" fill-rule="evenodd" stroke="none"/>
      <path d="M23.75 9.2 L23.7 9.1 23.7 9.05 Q23.7 8.85 23.8 8.8 L23.85 8.8 Q23.95 8.7 24.0 8.7 L24.45 8.85 24.65 9.0 24.75 9.15 24.5 9.35 24.3 9.45 24.15 9.5 23.85 9.35 23.75 9.2" fill="#afd4fe" fill-rule="evenodd" stroke="none"/>
      <path d="M29.8 6.2 L29.75 6.95 29.75 7.6 29.75 8.35 28.7 9.1 28.65 9.1 Q26.8 10.45 25.2 12.5 L24.1 13.95 24.05 14.0 23.35 13.45 20.85 10.5 21.45 10.0 23.15 8.9 23.2 8.85 23.65 8.6 24.8 7.95 25.4 8.35 25.05 7.85 26.65 7.15 27.5 6.85 28.3 6.6 29.8 6.2 M23.75 9.2 L23.85 9.35 24.15 9.5 24.3 9.45 24.5 9.35 24.75 9.15 24.65 9.0 24.45 8.85 24.0 8.7 Q23.95 8.7 23.85 8.8 L23.8 8.8 Q23.7 8.85 23.7 9.05 L23.7 9.1 23.75 9.2" fill="#5361ce" fill-rule="evenodd" stroke="none"/>
      <path d="M17.45 13.9 L17.05 13.7 Q16.7 13.5 16.4 13.45 L16.3 13.4 16.35 13.4 20.0 9.35 20.05 9.3 21.1 7.85 21.5 7.05 21.55 6.95 21.8 6.95 22.4 6.95 22.8 7.95 22.95 8.25 22.95 8.3 23.2 8.85 23.15 8.9 21.45 10.0 20.85 10.5 Q18.85 12.1 17.45 13.9" fill="#4b5fd2" fill-rule="evenodd" stroke="none"/>
      <path d="M16.65 14.45 L16.7 14.45 17.05 14.4 17.45 14.4 17.6 14.4 18.65 14.45 17.95 14.1 17.45 13.9 Q18.85 12.1 20.85 10.5 L23.35 13.45 24.05 14.0 22.65 16.4 Q21.7 18.15 21.1 19.95 19.65 19.6 18.6 18.9 L15.65 16.75 16.4 15.4 16.95 14.55 16.65 14.45" fill="#677ee4" fill-rule="evenodd" stroke="none"/>
      <path d="M20.15 24.5 L20.0 26.3 Q17.75 26.15 15.95 25.45 L15.25 25.15 15.15 25.25 14.45 25.0 14.35 24.6 14.3 24.4 14.2 23.5 14.2 23.3 Q14.2 21.2 14.7 19.3 L15.0 18.35 15.65 16.75 18.6 18.9 Q19.65 19.6 21.1 19.95 L20.4 22.75 20.3 23.2 20.15 24.5" fill="#6974dd" fill-rule="evenodd" stroke="none"/>
      <path d="M7.4 24.9 L7.55 24.0 7.8 22.7 8.0 21.85 8.3 20.95 8.8 19.7 8.85 19.7 Q9.85 20.6 10.85 22.2 L11.0 22.45 11.35 23.05 11.85 23.95 12.15 24.6 11.85 24.6 11.1 24.65 9.3 25.0 7.7 24.9 7.4 24.9" fill="#3346c9" fill-rule="evenodd" stroke="none"/>
      <path d="M10.8 18.15 L12.4 16.85 12.5 16.75 13.95 15.5 14.55 14.95 14.85 14.6 16.65 14.45 16.95 14.55 16.4 15.4 15.65 16.75 15.0 18.35 14.7 19.3 14.5 19.25 13.05 18.9 10.8 18.15" fill="#536bcb" fill-rule="evenodd" stroke="none"/>
      <path d="M8.85 19.7 L10.8 18.15 13.05 18.9 14.5 19.25 14.7 19.3 Q14.2 21.2 14.2 23.3 L14.2 23.5 14.3 24.4 14.35 24.6 14.45 25.0 12.15 24.6 11.85 23.95 11.35 23.05 11.0 22.45 10.85 22.2 Q9.85 20.6 8.85 19.7 M20.0 26.3 L20.0 26.65 19.95 28.75 19.9 30.3 19.9 30.4 Q19.3 28.55 17.85 27.1 L17.6 26.85 17.45 26.7 Q16.4 25.75 15.15 25.25 L15.25 25.15 15.95 25.45 Q17.75 26.15 20.0 26.3 M16.45 29.25 L16.75 29.5 16.45 29.3 16.45 29.25" fill="#5061c9" fill-rule="evenodd" stroke="none"/>
      <path d="M51.85 31.75 L51.9 31.75 51.45 32.45 51.4 32.5 51.2 32.9 50.25 34.1 50.25 33.9 50.25 33.55 50.25 33.45 50.05 32.8 50.0 32.7 49.6 32.15 49.3 31.95 49.55 31.9 50.65 31.75 51.45 31.7 51.85 31.75" fill="#e9b523" fill-rule="evenodd" stroke="none"/>
      <path d="M51.9 31.75 L52.0 31.75 53.2 31.95 52.35 32.85 51.8 33.8 Q50.85 35.75 50.65 38.25 L50.65 39.3 50.7 40.8 50.85 42.0 50.5 43.2 50.05 44.2 48.95 45.75 Q47.85 46.95 46.4 47.4 L44.6 47.65 42.6 47.2 41.3 46.5 41.25 46.45 41.15 46.4 40.4 45.8 40.25 45.65 41.35 45.95 41.4 45.95 41.5 45.95 42.35 46.15 43.35 46.3 45.2 46.4 46.55 46.15 Q48.35 45.65 49.45 44.05 L49.75 43.55 50.3 42.45 50.15 41.75 50.05 41.1 50.0 40.9 49.85 39.15 50.05 36.65 Q50.15 35.7 50.4 34.85 L51.2 32.9 51.4 32.5 51.45 32.45 51.9 31.75" fill="#ffcae3" fill-rule="evenodd" stroke="none"/>
      <path d="M44.1 36.0 L45.25 34.4 45.85 33.8 46.55 34.0 47.45 34.45 48.1 34.95 48.2 35.05 48.3 35.1 48.8 35.75 48.25 36.35 Q48.1 38.2 47.0 39.85 L46.6 39.45 45.85 38.65 45.45 38.05 44.75 37.1 44.55 36.8 44.1 36.0" fill="#fff714" fill-rule="evenodd" stroke="none"/>
      <path d="M43.7 36.15 L43.8 36.1 44.1 36.0 44.55 36.8 44.75 37.1 45.45 38.05 45.85 38.65 46.6 39.45 47.0 39.85 46.95 39.9 46.9 40.0 46.9 40.25 Q46.9 41.4 46.35 42.6 46.95 42.75 46.95 43.5 L46.85 43.9 46.75 44.05 46.15 44.3 Q45.65 44.3 45.55 43.9 L44.2 43.85 43.15 43.75 42.85 43.7 42.6 43.65 39.9 42.85 38.95 42.45 38.1 42.0 39.1 41.85 39.65 41.7 40.0 41.85 40.75 42.1 42.7 42.7 42.6 40.6 42.55 39.6 42.75 39.3 42.8 39.25 42.95 39.0 43.25 38.35 43.35 38.15 43.7 36.15" fill="#fef80c" fill-rule="evenodd" stroke="none"/>
      <path d="M42.55 39.6 L42.6 40.6 42.7 42.7 40.75 42.1 40.0 41.85 39.65 41.7 41.75 40.45 41.95 40.25 42.55 39.6" fill="#fff820" fill-rule="evenodd" stroke="none"/>
      <path d="M47.0 39.85 Q48.1 38.2 48.25 36.35 L48.8 35.75 49.25 35.3 49.35 35.15 49.55 34.9 50.25 34.1 51.2 32.9 50.4 34.85 49.7 35.8 49.2 36.5 49.05 36.7 48.9 36.95 48.45 38.5 48.25 39.3 Q47.9 39.6 47.7 40.3 L47.65 40.4 47.5 40.75 Q47.15 42.05 47.15 43.3 L47.2 43.85 47.15 43.85 46.85 43.9 46.95 43.5 Q46.95 42.75 46.35 42.6 46.9 41.4 46.9 40.25 L46.9 40.0 46.95 39.9 47.0 39.85" fill="#ffef14" fill-rule="evenodd" stroke="none"/>
      <path d="M50.4 34.85 Q50.15 35.7 50.05 36.65 L49.85 39.15 50.0 40.9 50.05 41.1 50.15 41.75 50.3 42.45 49.75 43.55 49.6 43.0 49.15 43.35 49.15 42.75 49.35 41.6 49.2 40.95 49.2 40.85 49.0 38.65 49.05 36.7 49.2 36.5 49.7 35.8 50.4 34.85" fill="#d78d12" fill-rule="evenodd" stroke="none"/>
      <path d="M47.65 40.4 L47.7 40.3 Q47.9 39.6 48.25 39.3 L48.45 38.5 48.9 36.95 49.05 36.7 49.0 38.65 49.2 40.85 49.2 40.95 47.9 40.55 47.65 40.4" fill="#ffb713" fill-rule="evenodd" stroke="none"/>
      <path d="M49.2 40.95 L49.35 41.6 49.15 42.75 49.15 43.35 Q48.45 43.8 47.4 44.15 L47.0 44.3 47.15 43.85 47.2 43.85 47.15 43.3 Q47.15 42.05 47.5 40.75 L47.65 40.4 47.9 40.55 49.2 40.95" fill="#ffb807" fill-rule="evenodd" stroke="none"/>
      <path d="M43.35 46.3 L42.35 46.15 41.5 45.95 41.4 45.95 41.35 45.95 40.25 45.65 39.85 45.2 Q38.9 44.1 37.85 43.5 L37.45 43.3 38.05 42.3 37.95 42.0 38.1 42.0 38.95 42.45 39.9 42.85 42.6 43.65 42.85 43.7 43.15 43.75 43.25 44.45 43.25 44.5 43.5 44.55 44.05 44.65 43.6 45.8 43.35 46.3" fill="#fde505" fill-rule="evenodd" stroke="none"/>
      <path d="M43.15 43.75 L44.2 43.85 44.05 44.65 43.5 44.55 43.25 44.5 43.25 44.45 43.15 43.75" fill="#fff400" fill-rule="evenodd" stroke="none"/>
      <path d="M46.85 43.9 L47.15 43.85 47.0 44.3 44.7 44.7 44.05 44.65 44.2 43.85 45.55 43.9 Q45.65 44.3 46.15 44.3 L46.75 44.05 46.85 43.9" fill="#f8d20b" fill-rule="evenodd" stroke="none"/>
      <path d="M46.55 46.15 L45.2 46.4 43.35 46.3 43.6 45.8 44.05 44.65 44.7 44.7 47.0 44.3 46.65 45.75 46.55 46.15" fill="#f4a902" fill-rule="evenodd" stroke="none"/>
      <path d="M49.75 43.55 L49.45 44.05 Q48.35 45.65 46.55 46.15 L46.65 45.75 47.0 44.3 47.4 44.15 Q48.45 43.8 49.15 43.35 L49.6 43.0 49.75 43.55" fill="#e99f08" fill-rule="evenodd" stroke="none"/>
      <path d="M24.75 16.6 L25.85 15.2 26.2 14.85 Q27.25 13.65 28.45 12.8 L28.75 12.75 29.6 12.65 Q28.0 13.75 26.5 15.7 L25.8 16.7 25.3 17.4 Q23.5 20.25 22.75 23.4 L22.7 23.65 22.3 25.85 22.15 27.65 22.1 28.6 22.1 28.7 22.35 31.45 21.95 31.2 21.85 30.7 21.95 31.2 22.35 31.45 23.2 32.05 22.45 31.95 21.3 31.9 20.55 31.9 20.3 31.9 18.85 31.95 18.9 31.9 19.1 31.55 19.25 31.35 Q19.55 31.05 20.1 30.95 L20.15 30.9 21.0 30.65 21.5 30.65 21.85 30.7 21.8 30.25 21.6 28.6 21.55 27.55 21.55 27.5 21.6 26.1 21.8 24.2 21.85 23.8 Q22.5 19.7 24.75 16.6" fill="#feefdc" fill-rule="evenodd" stroke="none"/>
      <path d="M33.05 13.25 L33.25 13.35 33.35 13.55 33.2 14.9 33.15 15.1 33.05 16.1 32.75 16.1 31.55 15.3 30.55 14.6 29.85 14.15 29.1 15.85 28.7 16.9 28.65 17.05 27.25 17.75 27.2 17.55 26.9 16.75 26.5 15.7 Q28.0 13.75 29.6 12.65 L30.1 12.65 30.45 12.65 Q31.95 12.65 32.85 13.1 L33.05 13.25" fill="#ce1ab9" fill-rule="evenodd" stroke="none"/>
      <path d="M22.7 23.65 L22.75 23.4 Q23.5 20.25 25.3 17.4 L25.8 16.7 26.5 15.7 26.9 16.75 27.2 17.55 27.25 17.75 27.2 17.8 26.45 18.2 26.05 18.4 24.95 18.95 25.0 19.05 Q25.1 20.35 25.5 21.8 24.8 22.25 23.85 22.85 L23.6 23.05 22.7 23.65" fill="#d323c6" fill-rule="evenodd" stroke="none"/>
      <path d="M33.35 13.55 L34.1 14.7 33.55 16.1 33.3 16.1 33.2 16.1 33.05 16.1 33.15 15.1 33.2 14.9 33.35 13.55 M25.5 21.8 Q25.1 20.35 25.0 19.05 L24.95 18.95 26.05 18.4 26.45 18.2 27.2 17.8 27.25 17.75 28.65 17.05 28.7 16.9 29.1 15.85 29.85 14.15 30.55 14.6 31.55 15.3 32.75 16.1 32.35 16.15 32.25 16.1 30.7 15.45 29.95 15.1 29.6 16.95 29.4 17.85 28.0 18.35 26.0 19.05 26.25 20.5 26.35 21.15 26.45 21.75 26.7 22.95 25.4 24.45 25.1 24.85 24.25 25.75 25.3 27.4 25.85 28.1 25.55 28.6 25.5 28.7 25.1 29.7 26.05 30.0 26.1 30.05 26.65 30.15 27.95 34.6 28.2 35.3 27.55 34.85 27.2 34.6 27.05 33.85 26.45 30.6 25.75 30.7 25.4 30.7 24.2 30.45 25.25 28.35 25.05 28.05 24.35 26.9 23.9 26.1 23.6 25.6 24.0 25.25 24.7 24.55 26.0 23.4 25.65 22.25 25.6 22.15 25.5 21.8" fill="#173068" fill-rule="evenodd" stroke="none"/>
      <path d="M34.1 14.7 L34.25 15.0 34.9 16.45 33.55 16.1 34.1 14.7 M26.25 20.5 L26.0 19.05 28.0 18.35 29.4 17.85 29.6 16.95 29.95 15.1 30.7 15.45 32.25 16.1 32.35 16.15 Q31.55 16.3 30.9 16.7 L30.7 16.8 30.45 17.0 29.65 17.8 29.35 18.15 29.2 18.4 29.05 19.45 28.9 20.6 28.8 21.5 28.7 23.1 28.25 22.7 27.55 22.0 27.05 21.45 26.25 20.5" fill="#07476d" fill-rule="evenodd" stroke="none"/>
      <path d="M34.9 16.45 L34.7 17.1 Q34.45 18.4 34.45 20.55 L34.55 23.55 34.0 23.65 32.4 23.7 31.75 23.65 30.55 23.5 29.0 23.2 28.85 23.2 28.7 23.15 28.7 23.1 28.8 21.5 28.9 20.6 29.05 19.45 29.2 18.4 29.35 18.15 29.65 17.8 30.45 17.0 30.7 16.8 30.9 16.7 Q31.55 16.3 32.35 16.15 L32.75 16.1 33.05 16.1 33.2 16.1 33.3 16.1 33.55 16.1 34.9 16.45" fill="#2c6aa3" fill-rule="evenodd" stroke="none"/>
      <path d="M22.7 23.65 L23.6 23.05 23.85 22.85 Q24.8 22.25 25.5 21.8 L25.6 22.15 25.65 22.25 26.0 23.4 24.7 24.55 24.0 25.25 23.6 25.6 23.9 26.1 24.35 26.9 25.05 28.05 25.0 28.05 22.7 27.8 22.15 27.65 22.3 25.85 22.7 23.65" fill="#f333eb" fill-rule="evenodd" stroke="none"/>
      <path d="M26.25 20.5 L27.05 21.45 27.55 22.0 28.25 22.7 28.7 23.1 28.7 23.15 28.6 25.6 28.6 25.8 28.65 27.6 27.7 28.45 27.4 28.7 26.05 30.0 25.1 29.7 25.5 28.7 25.55 28.6 25.85 28.1 25.3 27.4 24.25 25.75 25.1 24.85 25.4 24.45 26.7 22.95 26.45 21.75 26.35 21.15 26.25 20.5" fill="#173d7c" fill-rule="evenodd" stroke="none"/>
      <path d="M34.55 23.55 L35.05 26.8 34.35 27.15 32.45 28.3 30.65 29.6 30.1 30.1 29.1 30.9 28.95 30.25 28.8 28.85 28.65 27.6 28.6 25.8 28.6 25.6 28.7 23.15 28.85 23.2 29.0 23.2 30.55 23.5 31.75 23.65 32.4 23.7 34.0 23.65 34.55 23.55" fill="#3b87b9" fill-rule="evenodd" stroke="none"/>
      <path d="M17.7 37.8 L17.75 37.8 18.65 37.3 19.1 37.0 19.6 36.65 20.35 36.05 22.25 34.35 22.4 34.65 23.15 35.6 24.2 36.3 23.9 36.8 23.0 37.85 22.65 38.15 Q21.65 38.95 20.6 39.2 L20.3 39.25 19.7 39.3 19.45 39.3 19.2 39.3 18.35 39.1 18.0 38.95 17.8 38.85 17.75 38.55 17.7 37.9 17.7 37.8" fill="#254582" fill-rule="evenodd" stroke="none"/>
      <path d="M18.85 31.95 L20.3 31.9 20.55 31.9 21.3 31.9 Q21.75 33.4 22.25 34.35 L20.35 36.05 19.6 36.65 19.1 37.0 18.65 37.3 17.75 37.8 17.7 37.8 17.7 37.4 17.75 37.0 Q17.8 34.05 18.75 32.2 L18.85 31.95" fill="#183e7d" fill-rule="evenodd" stroke="none"/>
      <path d="M35.05 26.8 L35.35 28.0 35.4 28.6 35.5 29.4 35.7 30.5 36.25 32.35 36.35 32.65 36.8 34.05 36.9 34.35 37.05 34.65 37.2 35.05 36.9 35.25 36.7 35.4 36.0 35.65 35.0 36.0 34.85 36.05 33.55 36.3 33.15 36.4 33.1 36.4 32.75 36.45 31.85 36.6 31.05 36.7 30.35 35.25 Q29.55 33.45 29.1 30.9 L30.1 30.1 30.65 29.6 32.45 28.3 34.35 27.15 35.05 26.8" fill="#51aad4" fill-rule="evenodd" stroke="none"/>
      <path d="M30.4 37.05 L30.45 36.85 30.35 36.8 31.05 36.7 31.85 36.6 32.75 36.45 33.1 36.4 33.15 36.4 33.55 36.3 34.85 36.05 35.0 36.0 36.0 35.65 36.15 36.4 36.15 36.5 36.2 36.9 36.15 36.9 35.5 36.9 34.85 36.85 33.4 36.8 33.2 36.8 32.75 36.8 31.9 36.85 31.2 36.9 30.6 37.0 30.4 37.05" fill="#64e2f9" fill-rule="evenodd" stroke="none"/>
      <path d="M23.9 36.8 L24.2 36.3 24.6 35.35 24.85 36.5 25.1 37.2 25.3 37.65 25.7 37.75 25.8 37.8 26.6 37.95 28.1 38.15 28.4 38.15 29.35 38.0 29.85 37.95 30.25 37.3 30.3 37.25 30.4 37.05 30.6 37.0 31.2 36.9 31.9 36.85 32.75 36.8 33.2 36.8 33.4 36.8 33.3 37.2 33.15 37.6 33.0 38.15 33.0 38.3 32.85 38.8 32.8 38.85 32.7 38.85 32.5 38.8 32.3 38.8 30.0 39.05 29.5 39.15 28.4 39.45 27.95 39.65 27.85 39.65 27.15 39.4 26.65 39.2 25.2 38.2 24.6 37.6 23.9 36.8" fill="#16234d" fill-rule="evenodd" stroke="none"/>
      <path d="M35.35 28.0 L35.55 28.7 35.9 29.85 36.1 30.35 36.5 31.4 36.85 32.15 36.9 32.2 37.7 33.8 37.9 34.15 37.5 34.25 36.9 34.35 36.8 34.05 36.35 32.65 36.25 32.35 35.7 30.5 35.5 29.4 35.4 28.6 35.35 28.0" fill="#6ae5f7" fill-rule="evenodd" stroke="none"/>
      <path d="M36.9 34.35 L37.5 34.25 37.9 34.15 38.0 34.3 38.1 34.5 38.95 36.2 39.35 37.05 38.4 37.1 38.0 37.05 37.95 37.05 37.4 37.0 37.35 37.0 36.95 36.95 36.2 36.9 36.15 36.5 36.15 36.4 36.0 35.65 36.7 35.4 36.9 35.25 37.2 35.05 37.05 34.65 36.9 34.35 M37.5 36.15 L37.7 36.45 38.05 36.55 38.1 36.55 38.4 36.5 38.45 36.45 38.55 36.25 38.55 36.2 38.3 35.75 38.05 35.65 37.95 35.65 37.85 35.65 37.65 35.75 37.6 35.8 37.5 36.15 M36.85 39.35 L36.95 39.7 37.3 40.65 37.4 40.8 37.45 40.95 37.6 41.3 37.65 41.4 37.8 41.75 37.35 41.75 37.2 41.75 36.5 41.7 36.15 41.7 36.0 41.7 35.1 41.75 35.0 41.75 34.2 41.85 34.15 41.85 34.2 41.8 34.7 41.65 35.35 41.5 36.05 41.25 36.15 41.35 36.25 41.35 36.55 41.45 36.7 41.45 Q37.2 41.45 37.2 41.2 L36.85 40.9 36.55 40.9 36.55 40.8 36.55 40.55 36.5 40.1 36.45 39.9 36.35 39.55 36.7 39.65 36.8 39.35 36.8 39.3 36.85 39.35" fill="#62eefb" fill-rule="evenodd" stroke="none"/>
      <path d="M37.5 37.85 L37.1 38.65 36.8 39.3 36.8 39.35 36.7 39.65 36.35 39.55 35.9 39.4 35.85 39.4 35.4 39.3 34.2 39.05 33.9 39.0 33.45 38.95 33.0 38.9 32.8 38.85 32.85 38.8 33.0 38.3 33.0 38.15 33.15 37.6 33.3 37.2 33.4 36.8 34.85 36.85 35.5 36.9 36.15 36.9 36.2 36.9 36.95 36.95 37.35 37.0 37.4 37.0 37.95 37.05 37.9 37.15 37.6 37.7 37.5 37.85" fill="#0d2c5b" fill-rule="evenodd" stroke="none"/>
      <path d="M37.5 36.15 L37.6 35.8 37.65 35.75 37.85 35.65 37.95 35.65 38.05 35.65 38.3 35.75 38.55 36.2 38.55 36.25 38.45 36.45 38.4 36.5 38.1 36.55 38.05 36.55 37.7 36.45 37.5 36.15 M36.55 40.9 L36.85 40.9 37.2 41.2 Q37.2 41.45 36.7 41.45 L36.55 41.45 36.25 41.35 36.15 41.35 36.05 41.25 36.0 41.2 36.15 41.05 36.55 40.9" fill="#cafcf9" fill-rule="evenodd" stroke="none"/>
      <path d="M28.2 35.3 L27.95 34.6 26.65 30.15 26.1 30.05 26.05 30.0 27.4 28.7 27.7 28.45 28.65 27.6 28.8 28.85 28.95 30.25 29.1 30.9 Q29.55 33.45 30.35 35.25 L31.05 36.7 30.35 36.8 28.2 35.3" fill="#1b3e80" fill-rule="evenodd" stroke="none"/>
      <path d="M22.35 31.45 L22.1 28.7 22.1 28.6 22.15 27.65 22.7 27.8 25.0 28.05 25.05 28.05 25.25 28.35 24.2 30.45 25.4 30.7 25.75 30.7 26.45 30.6 27.05 33.85 27.2 34.6 24.65 32.8 24.6 32.95 24.6 33.0 23.9 32.5 23.2 32.05 22.35 31.45" fill="#fb1dff" fill-rule="evenodd" stroke="none"/>
      <path d="M21.3 31.9 L22.45 31.95 23.2 32.05 23.9 32.5 24.6 33.0 24.5 34.0 24.5 34.6 24.6 35.35 24.2 36.3 23.15 35.6 22.4 34.65 22.25 34.35 Q21.75 33.4 21.3 31.9" fill="#374a6b" fill-rule="evenodd" stroke="none"/>
      <path d="M20.6 39.2 Q21.65 38.95 22.65 38.15 L23.0 37.85 23.9 36.8 24.6 37.6 25.2 38.2 26.65 39.2 26.4 40.75 Q26.2 41.65 26.15 42.5 L26.1 42.6 25.95 43.85 25.45 43.95 24.75 44.1 24.9 43.1 24.9 42.9 24.95 42.7 25.35 40.85 20.65 39.35 20.6 39.2" fill="#224982" fill-rule="evenodd" stroke="none"/>
      <path d="M26.65 39.2 L27.15 39.4 27.85 39.65 27.95 39.65 28.4 39.45 30.4 40.6 30.45 40.6 30.55 40.6 29.9 43.7 29.65 47.4 28.4 47.7 28.0 46.45 27.7 45.35 27.6 44.75 27.5 43.45 25.95 43.85 26.1 42.6 26.15 42.5 Q26.2 41.65 26.4 40.75 L26.65 39.2" fill="#1b5086" fill-rule="evenodd" stroke="none"/>
      <path d="M28.4 39.45 L29.5 39.15 30.0 39.05 32.3 38.8 32.5 38.8 32.7 38.85 32.8 38.85 33.0 38.9 33.45 38.95 33.9 39.0 34.2 39.05 35.4 39.3 35.85 39.4 35.9 39.4 36.35 39.55 36.45 39.9 36.5 40.1 36.55 40.55 35.45 40.4 35.25 40.35 34.1 40.25 33.55 40.25 33.35 40.25 33.2 40.25 30.45 40.6 30.4 40.6 28.4 39.45" fill="#287aa9" fill-rule="evenodd" stroke="none"/>
      <path d="M22.2 44.55 L22.1 44.45 21.45 43.75 21.6 43.1 21.75 42.45 21.95 41.6 20.9 41.65 20.85 41.4 20.65 39.35 25.35 40.85 24.95 42.7 24.9 42.9 24.9 43.1 24.75 44.1 25.45 43.95 24.9 45.95 24.85 46.25 24.8 46.3 24.7 46.3 24.35 46.35 Q23.3 45.55 22.2 44.55" fill="#e11fbe" fill-rule="evenodd" stroke="none"/>
      <path d="M21.45 43.75 L21.2 43.5 21.1 43.15 20.9 41.65 21.95 41.6 21.75 42.45 21.6 43.1 21.45 43.75 M24.8 46.3 L25.75 46.15 26.3 46.15 26.05 47.45 25.85 47.35 24.75 46.65 24.8 46.3" fill="#502c58" fill-rule="evenodd" stroke="none"/>
      <path d="M25.45 43.95 L25.95 43.85 27.5 43.45 27.6 44.75 27.7 45.35 28.0 46.45 26.8 47.9 26.3 47.6 26.05 47.45 26.3 46.15 25.75 46.15 24.8 46.3 24.85 46.25 24.9 45.95 25.45 43.95" fill="#fe31ff" fill-rule="evenodd" stroke="none"/>
      <path d="M28.0 46.45 L28.4 47.7 29.65 47.4 30.2 47.25 31.55 46.95 31.95 47.6 32.9 49.2 33.65 49.0 33.85 48.95 33.95 48.95 34.8 50.3 35.45 51.4 34.4 51.05 34.25 51.0 33.35 50.7 29.65 49.25 28.9 48.95 26.8 47.9 28.0 46.45" fill="#cb0adf" fill-rule="evenodd" stroke="none"/>
      <path d="M29.65 47.4 L29.9 43.7 30.55 40.6 32.95 41.65 32.9 41.9 32.9 42.05 32.9 42.1 32.95 42.45 33.1 44.65 33.1 44.7 33.4 46.8 33.85 48.95 33.65 49.0 32.9 49.2 31.95 47.6 31.55 46.95 30.2 47.25 29.65 47.4" fill="#183f80" fill-rule="evenodd" stroke="none"/>
      <path d="M36.55 40.9 L36.15 41.05 36.0 41.2 36.05 41.25 35.35 41.5 34.7 41.65 34.2 41.8 33.9 41.35 33.4 40.35 33.35 40.25 33.55 40.25 34.1 40.25 35.25 40.35 35.45 40.4 36.55 40.55 36.55 40.8 36.55 40.9" fill="#67e9ff" fill-rule="evenodd" stroke="none"/>
      <path d="M33.1 44.7 L33.1 44.65 32.95 42.45 32.9 42.1 32.9 42.05 32.9 41.9 33.3 41.9 34.15 41.85 34.2 41.85 35.0 41.75 35.1 41.75 36.0 41.7 36.15 41.7 36.5 41.7 37.2 41.75 37.35 41.75 37.8 41.75 37.95 42.0 38.05 42.3 37.45 43.3 37.05 44.1 36.75 44.95 35.1 44.85 33.2 44.7 33.1 44.7" fill="#4da1d0" fill-rule="evenodd" stroke="none"/>
      <path d="M30.55 40.6 L30.45 40.6 33.2 40.25 33.35 40.25 33.4 40.35 33.9 41.35 34.2 41.8 34.15 41.85 33.3 41.9 32.9 41.9 32.95 41.65 30.55 40.6" fill="#63ddec" fill-rule="evenodd" stroke="none"/>
      <path d="M33.85 48.95 L33.4 46.8 33.1 44.7 33.2 44.7 35.1 44.85 36.75 44.95 36.3 46.65 Q35.85 48.75 35.85 51.35 L35.9 51.5 35.45 51.4 34.8 50.3 33.95 48.95 33.85 48.95" fill="#3d8ebb" fill-rule="evenodd" stroke="none"/>
      <path d="M27.2 34.6 L27.55 34.85 27.5 35.0 27.45 35.1 27.35 35.4 27.1 35.25 26.1 34.85 26.0 34.7 25.75 34.65 25.6 34.65 25.55 34.7 25.55 34.75 25.1 34.65 24.75 34.65 24.5 34.6 24.5 34.0 24.6 33.0 24.6 32.95 24.65 32.8 27.2 34.6" fill="#f44607" fill-rule="evenodd" stroke="none"/>
      <path d="M24.5 34.6 L24.75 34.65 25.1 34.65 25.45 36.1 25.55 36.35 25.85 37.1 26.1 37.45 25.8 37.75 25.8 37.8 25.7 37.75 25.3 37.65 25.1 37.2 24.85 36.5 24.6 35.35 24.5 34.6" fill="#c34314" fill-rule="evenodd" stroke="none"/>
      <path d="M27.55 34.85 L28.2 35.3 30.35 36.8 30.45 36.85 30.4 37.05 30.3 37.25 30.25 37.3 29.85 37.95 29.35 38.0 28.4 38.15 28.1 38.15 28.3 37.7 28.5 37.35 28.75 36.85 28.8 36.5 27.35 35.4 27.45 35.1 27.5 35.0 27.55 34.85" fill="#821700" fill-rule="evenodd" stroke="none"/>
      <path d="M25.1 34.65 L25.55 34.75 25.5 34.75 25.4 35.0 Q25.4 35.4 25.8 35.4 26.2 35.4 26.2 35.05 L26.1 34.85 27.1 35.25 27.35 35.4 27.25 35.6 26.7 35.5 26.55 35.5 Q26.05 35.65 26.05 36.05 L26.05 36.2 25.65 36.3 25.55 36.35 25.45 36.1 25.1 34.65" fill="#ffbb19" fill-rule="evenodd" stroke="none"/>
      <path d="M25.55 34.75 L25.55 34.7 25.6 34.65 25.75 34.65 26.0 34.7 26.1 34.85 26.2 35.05 Q26.2 35.4 25.8 35.4 25.4 35.4 25.4 35.0 L25.5 34.75 25.55 34.75" fill="#fff9ee" fill-rule="evenodd" stroke="none"/>
      <path d="M26.8 36.9 Q26.1 36.75 26.05 36.2 L26.05 36.05 Q26.05 35.65 26.55 35.5 L26.7 35.5 27.25 35.6 27.45 35.7 Q27.8 35.95 27.8 36.35 L27.75 36.6 Q27.6 36.95 27.05 36.95 L26.8 36.9" fill="#ffff0e" fill-rule="evenodd" stroke="none"/>
      <path d="M25.55 36.35 L25.65 36.3 26.05 36.2 Q26.1 36.75 26.8 36.9 L26.75 37.35 25.85 37.1 25.55 36.35" fill="#ff8e11" fill-rule="evenodd" stroke="none"/>
      <path d="M27.25 35.6 L27.35 35.4 28.8 36.5 28.75 36.85 27.75 36.6 27.8 36.35 Q27.8 35.95 27.45 35.7 L27.25 35.6" fill="#f37600" fill-rule="evenodd" stroke="none"/>
      <path d="M26.75 37.35 L26.8 36.9 27.05 36.95 Q27.6 36.95 27.75 36.6 L28.75 36.85 28.5 37.35 27.9 37.45 26.75 37.35" fill="#ffbf0a" fill-rule="evenodd" stroke="none"/>
      <path d="M25.85 37.1 L26.75 37.35 27.9 37.45 28.5 37.35 28.3 37.7 28.1 38.15 26.6 37.95 25.8 37.8 25.8 37.75 26.1 37.45 25.85 37.1" fill="#841100" fill-rule="evenodd" stroke="none"/>
      <path d="M54.9 51.7 L54.9 52.75 54.8 51.35 54.9 51.7" fill="#f9f91b" fill-rule="evenodd" stroke="none"/>
      <path d="M53.7 48.4 L54.1 47.4 54.75 45.95 54.9 45.95 54.9 50.1 54.75 49.95 53.7 48.4" fill="#f99c94" fill-rule="evenodd" stroke="none"/>
      <path d="M54.9 50.1 L54.9 51.7 54.8 51.35 53.65 48.6 53.7 48.4 54.75 49.95 54.9 50.1" fill="#f3b88c" fill-rule="evenodd" stroke="none"/>
      <path d="M43.45 12.9 L47.4 11.8 49.7 11.4 Q49.0 11.75 48.1 12.6 L47.35 13.5 46.95 14.15 46.85 14.3 Q46.1 15.65 46.1 17.25 46.1 17.7 46.45 18.75 L46.75 19.6 47.15 20.45 47.45 21.1 48.1 22.15 50.35 24.35 51.05 24.85 52.3 25.85 53.75 26.95 53.25 29.2 52.45 30.9 51.85 31.75 51.9 31.75 52.0 31.75 53.2 31.95 52.35 32.85 51.8 33.8 Q50.85 35.75 50.65 38.25 L50.65 39.3 50.7 40.8 50.85 42.0 50.5 43.2 50.05 44.2 48.95 45.75 Q47.85 46.95 46.4 47.4 L44.6 47.65 42.6 47.2 41.3 46.5 41.25 46.45 41.15 46.4 40.4 45.8 40.25 45.65 39.85 45.2 Q38.9 44.1 37.85 43.5 L37.45 43.3 M0.0 40.15 L0.7 39.4 0.95 39.2 0.75 39.25 0.4 39.35 0.0 39.5 M0.0 0.75 L0.4 0.0 M10.85 0.0 L11.6 0.1 11.8 0.15 11.85 0.1 12.05 0.0 M24.3 0.0 L24.45 0.05 M37.85 5.75 Q41.1 9.35 42.0 13.5 L42.05 13.45 43.45 12.9 M40.55 14.1 Q41.25 13.75 42.0 13.5 M49.55 31.9 L50.65 31.75 51.45 31.7 51.85 31.75 M49.55 31.9 L49.3 31.95 M53.7 48.4 L54.1 47.4 54.75 45.95 54.9 45.95 M54.8 51.35 L53.65 48.6 53.7 48.4 M21.85 1.05 L22.1 1.05 23.55 2.1 M16.6 0.55 L21.8 1.0 21.85 1.05 M30.1 12.65 L28.7 9.1 M16.6 0.55 L13.9 0.35 13.35 0.3 13.1 0.3 11.8 0.15 M0.6 16.4 L0.35 16.0 M0.2 15.8 L0.0 15.55 M1.45 38.75 L2.05 38.25 Q3.1 37.5 4.25 36.95 M0.95 39.2 L1.45 38.75 M15.0 47.3 Q12.65 48.85 9.3 49.1 L7.8 49.15 5.1 48.95 Q2.4 48.55 0.0 47.25 M15.0 47.3 Q16.55 46.25 17.65 44.6 19.15 42.4 19.7 39.3 M19.95 28.75 L21.6 28.6 M54.9 51.7 L54.8 51.35" fill="none" stroke="#952113" stroke-linecap="round" stroke-linejoin="round" stroke-width="1.0"/>
      <path d="M41.25 46.45 L41.2 46.7 40.9 47.9 40.75 48.3 42.45 52.4 42.75 53.1 42.9 53.5 M2.35 53.5 L1.5 51.95 0.0 49.35 M40.0 49.85 L40.75 48.3 M38.55 51.95 L38.8 51.6 39.25 51.0 40.0 49.9 40.0 49.85 M38.55 51.95 L37.8 52.7 36.95 53.5" fill="none" stroke="#072238" stroke-linecap="round" stroke-linejoin="round" stroke-width="1.0"/>
      <path d="M41.8 31.65 L41.95 31.85 Q43.1 32.95 43.5 34.35 L43.7 36.05 43.7 36.15 43.35 38.15 43.25 38.35 42.95 39.0 42.8 39.25 42.75 39.3 42.55 39.6 41.95 40.25 41.75 40.45 39.65 41.7 39.1 41.85 38.1 42.0 37.95 42.0 M38.1 30.1 Q40.15 30.2 41.7 31.6 L41.8 31.65 M14.45 25.0 L15.15 25.25 Q16.4 25.75 17.45 26.7 L17.6 26.85 17.85 27.1 Q19.3 28.55 19.9 30.4 L20.0 30.7 20.1 30.95 M11.1 24.65 L11.85 24.6 12.15 24.6 14.45 25.0 M11.1 24.65 L9.3 25.0 Q7.35 25.6 5.85 27.1 L5.5 27.5 4.3 29.25 4.25 29.4 3.85 30.2 3.85 30.25 3.65 30.95 3.45 31.8 3.35 33.1 3.4 33.4 3.5 34.55 3.5 34.6 3.7 35.45 Q3.9 36.25 4.25 36.95 L4.35 37.15 4.9 37.95 5.8 39.1 5.85 39.1 6.8 39.95 Q7.9 40.75 9.2 41.2 L10.0 41.4 10.8 41.55 11.0 41.55 11.85 41.6 13.75 41.4 Q15.9 40.95 17.55 39.4 L17.85 39.1 18.0 38.95 M36.1 30.35 L37.25 30.15 M37.3 30.15 L37.8 30.1 38.1 30.1" fill="none" stroke="#3e0859" stroke-linecap="round" stroke-linejoin="round" stroke-width="1.0"/>
      <path d="M24.45 0.05 L24.45 0.0 M35.1 0.0 L36.2 2.15 37.55 5.1 37.85 5.75 37.95 6.0 37.95 6.1 Q39.65 10.3 40.55 14.1 L40.6 14.35 41.0 16.3 41.2 17.4 41.2 18.15 41.35 18.65 41.45 19.15 41.4 18.6 41.3 18.05 41.2 17.4 M41.75 20.25 Q42.3 22.45 43.45 25.25 L43.65 25.7 44.65 27.9 46.1 30.6 45.15 30.5 39.25 30.0 38.4 30.1 38.1 30.1 M41.45 19.15 L41.55 19.6 41.75 20.25 M37.5 37.85 L37.1 38.65 36.8 39.3 36.85 39.35 36.95 39.7 37.3 40.65 37.4 40.8 37.45 40.95 37.6 41.3 37.65 41.4 37.8 41.75 37.95 42.0 38.05 42.3 37.45 43.3 37.05 44.1 36.75 44.95 36.3 46.65 Q35.85 48.75 35.85 51.35 L35.9 51.5 35.45 51.4 34.4 51.05 34.25 51.0 33.35 50.7 29.65 49.25 28.9 48.95 26.8 47.9 26.3 47.6 26.05 47.45 25.85 47.35 24.75 46.65 24.5 46.45 24.35 46.35 Q23.3 45.55 22.2 44.55 L22.1 44.45 21.45 43.75 21.2 43.5 21.1 43.15 20.9 41.65 20.85 41.4 20.65 39.35 20.6 39.2 Q21.65 38.95 22.65 38.15 L23.0 37.85 23.9 36.8 24.2 36.3 24.6 35.35 24.5 34.6 24.5 34.0 24.6 33.0 23.9 32.5 23.2 32.05 22.35 31.45 21.95 31.2 21.85 30.7 21.8 30.25 21.6 28.6 21.55 27.55 21.55 27.5 21.6 26.1 21.8 24.2 21.85 23.8 Q22.5 19.7 24.75 16.6 L25.85 15.2 26.2 14.85 Q27.25 13.65 28.45 12.8 L28.75 12.75 29.6 12.65 30.1 12.65 30.45 12.65 Q31.95 12.65 32.85 13.1 L33.05 13.25 33.25 13.35 33.35 13.55 34.1 14.7 34.25 15.0 34.9 16.45 34.7 17.1 Q34.45 18.4 34.45 20.55 L34.55 23.55 35.05 26.8 35.35 28.0 35.55 28.7 35.9 29.85 36.1 30.35 36.5 31.4 36.85 32.15 36.9 32.2 37.7 33.8 37.9 34.15 38.0 34.3 38.1 34.5 38.95 36.2 39.35 37.05 38.4 37.1 38.0 37.05 37.95 37.05 37.9 37.15 37.6 37.7 37.5 37.85 M29.95 8.25 L30.45 7.95 30.55 7.9 30.7 7.8 30.85 7.75 Q32.15 7.8 33.75 8.9 L34.35 9.7 34.45 11.05 34.8 13.85 35.25 17.3 35.6 20.05 35.8 21.35 36.65 26.9 36.7 27.45 37.05 29.5 37.15 30.15 37.25 30.15 M29.75 8.35 L29.95 8.25 M24.4 0.15 L24.45 0.05 M24.1 0.9 L24.15 0.7 24.4 0.15 M23.55 2.1 L24.1 0.9 M23.55 2.1 L21.7 5.25 21.45 5.6 21.2 6.0 20.8 6.6 20.25 7.3 17.7 10.2 16.0 11.95 15.55 12.4 15.35 12.65 14.55 13.4 13.2 14.65 13.05 14.75 11.25 16.3 9.55 17.55 7.6 18.75 7.5 18.85 7.5 18.9 6.8 20.05 6.0 21.85 Q5.5 23.3 5.3 25.0 L5.3 25.05 7.4 24.9 7.7 24.9 9.3 25.0 M28.7 9.1 L28.65 9.1 Q26.8 10.45 25.2 12.5 L24.1 13.95 24.05 14.0 22.65 16.4 Q21.7 18.15 21.1 19.95 L20.4 22.75 20.3 23.2 20.15 24.5 20.0 26.3 20.0 26.65 19.95 28.75 19.9 30.3 19.9 30.4 M28.7 9.1 L29.75 8.35 M27.2 34.6 L27.55 34.85 28.2 35.3 30.35 36.8 30.45 36.85 30.4 37.05 30.6 37.0 31.2 36.9 31.9 36.85 32.75 36.8 33.2 36.8 33.4 36.8 34.85 36.85 35.5 36.9 36.15 36.9 36.2 36.9 36.95 36.95 37.35 37.0 37.4 37.0 37.95 37.05 M20.1 30.95 L20.15 30.9 21.0 30.65 21.5 30.65 21.85 30.7 M20.1 30.95 Q19.55 31.05 19.25 31.35 L19.1 31.55 18.9 31.9 18.85 31.95 18.75 32.2 Q17.8 34.05 17.75 37.0 L17.7 37.4 17.7 37.8 17.7 37.9 17.75 38.55 17.8 38.85 18.0 38.95 18.35 39.1 19.2 39.3 19.45 39.3 19.7 39.3 20.3 39.25 20.6 39.2 M27.2 34.6 L24.65 32.8 24.6 32.95 24.6 33.0 M25.8 37.8 L25.7 37.75 25.3 37.65 25.1 37.2 24.85 36.5 24.6 35.35 M28.1 38.15 L28.4 38.15 29.35 38.0 29.85 37.95 30.25 37.3 30.3 37.25 30.4 37.05 M28.1 38.15 L26.6 37.95 25.8 37.8" fill="none" stroke="#001717" stroke-linecap="round" stroke-linejoin="round" stroke-width="1.0"/>
    </g>
    <g id="shape2" transform="matrix(1.0, 0.0, 0.0, 1.0, 0.0, 0.0)">
      <path d="M50.5 0.0 Q53.95 0.0 53.95 3.3 L53.95 50.15 Q53.95 53.4 50.5 53.4 L3.3 53.4 Q0.0 53.4 0.0 50.15 L0.0 3.3 Q0.0 0.0 3.3 0.0 L50.5 0.0" fill="#000000" fill-opacity="0.003921569" fill-rule="evenodd" stroke="none"/>
    </g>
  </defs>
</svg>
