<?xml version="1.0" encoding="UTF-8" standalone="no"?>
<svg xmlns:ffdec="https://www.free-decompiler.com/flash" xmlns:xlink="http://www.w3.org/1999/xlink" ffdec:objectType="frame" height="54.95px" width="55.4px" xmlns="http://www.w3.org/2000/svg">
  <g transform="matrix(1.0, 0.0, 0.0, 1.0, 0.5, 0.5)">
    <clipPath id="clipPath0" transform="matrix(1.0, 0.0, 0.0, 1.0, 0.0, 0.0)">
      <path d="M50.5 0.0 Q53.95 0.0 53.95 3.3 L53.95 50.15 Q53.95 53.4 50.5 53.4 L3.3 53.4 Q0.0 53.4 0.0 50.15 L0.0 3.3 Q0.0 0.0 3.3 0.0 L50.5 0.0" fill="#000000" fill-rule="evenodd" stroke="none"/>
    </clipPath>
    <g clip-path="url(#clipPath0)">
      <use ffdec:characterId="2" height="54.95" transform="matrix(1.0, 0.0, 0.0, 1.0, -0.5, -0.5)" width="55.4" xlink:href="#shape1"/>
    </g>
    <use ffdec:characterId="3" height="53.4" transform="matrix(1.0, 0.0, 0.0, 1.0, 0.0, 0.0)" width="53.95" xlink:href="#shape2"/>
  </g>
  <defs>
    <g id="shape1" transform="matrix(1.0, 0.0, 0.0, 1.0, 0.5, 0.5)">
      <path d="M0.0 26.75 L0.0 26.7 0.2 26.5 0.3 26.55 0.0 26.75" fill="#5ff227" fill-rule="evenodd" stroke="none"/>
      <path d="M4.9 28.45 L4.25 29.2 2.15 28.75 1.5 27.45 3.05 28.4 3.7 28.65 4.9 28.45" fill="#351576" fill-rule="evenodd" stroke="none"/>
      <path d="M4.25 29.2 L4.2 29.3 2.7 31.2 Q2.65 29.9 2.15 28.75 L4.25 29.2" fill="#401487" fill-rule="evenodd" stroke="none"/>
      <path d="M0.0 29.35 L0.0 26.75 0.3 26.55 0.35 26.6 0.5 26.75 0.6 26.8 0.85 27.0 1.2 27.2 0.75 27.85 0.55 28.3 0.0 29.35" fill="#415d47" fill-rule="evenodd" stroke="none"/>
      <path d="M2.7 31.2 L2.45 31.5 1.7 32.55 1.4 32.4 0.85 32.05 0.85 31.8 Q0.85 30.35 0.0 29.35 L0.55 28.3 0.75 27.85 1.2 27.2 1.5 27.45 2.15 28.75 Q2.65 29.9 2.7 31.2" fill="#4f33ae" fill-rule="evenodd" stroke="none"/>
      <path d="M0.0 34.25 L0.0 29.35 Q0.85 30.35 0.85 31.8 L0.85 32.05 Q0.75 33.2 0.0 34.25" fill="#59859e" fill-rule="evenodd" stroke="none"/>
      <path d="M0.0 35.1 L0.0 34.25 Q0.75 33.2 0.85 32.05 L1.4 32.4 1.7 32.55 0.0 35.1" fill="#4d2eaf" fill-rule="evenodd" stroke="none"/>
      <path d="M7.85 40.4 L8.0 40.15 9.2 40.3 9.35 42.6 9.7 42.6 11.25 42.65 11.3 42.7 11.85 42.8 13.05 43.25 13.3 43.4 13.2 44.45 11.85 44.95 11.85 44.9 11.8 44.1 10.1 43.75 8.75 43.5 8.25 43.35 8.3 42.5 8.3 41.85 8.1 41.1 8.05 40.95 7.85 40.4" fill="#230859" fill-rule="evenodd" stroke="none"/>
      <path d="M11.85 44.95 L13.2 44.45 12.95 45.9 Q11.6 46.35 10.25 46.95 L10.05 45.75 11.85 44.95" fill="#361e80" fill-rule="evenodd" stroke="none"/>
      <path d="M8.0 27.3 L8.75 26.9 Q8.1 28.15 7.4 30.0 L6.5 32.25 Q7.1 32.3 7.55 32.6 L7.8 32.8 8.05 33.05 8.4 33.55 8.45 33.75 8.2 34.45 8.05 34.9 6.8 34.55 6.7 34.5 6.85 33.65 6.85 33.55 6.6 33.5 6.25 33.35 5.5 33.05 5.4 33.0 5.2 32.9 5.1 32.55 5.1 32.4 5.05 32.15 5.8 30.5 6.2 29.65 6.3 29.55 7.35 28.5 8.0 27.3" fill="#320c71" fill-rule="evenodd" stroke="none"/>
      <path d="M0.0 36.7 L0.0 36.5 1.4 34.9 1.8 34.25 2.3 32.95 2.45 31.7 2.45 31.5 2.7 31.2 4.2 29.3 4.25 29.2 4.9 28.45 5.95 28.15 7.75 27.45 8.0 27.3 7.35 28.5 6.3 29.55 6.2 29.65 5.8 30.5 5.05 32.15 4.25 33.85 4.1 34.1 4.0 34.2 3.5 34.45 3.35 34.45 3.35 34.5 2.65 34.85 2.4 34.95 2.1 35.45 1.3 37.05 1.25 37.05 0.6 36.9 0.35 36.8 0.0 36.7" fill="#411993" fill-rule="evenodd" stroke="none"/>
      <path d="M3.35 34.5 L3.35 34.45 3.5 34.45 4.0 34.2 4.1 34.1 4.25 33.85 5.05 32.15 5.1 32.4 5.1 32.55 5.2 32.9 5.4 33.0 5.5 33.05 6.25 33.35 6.6 33.5 6.85 33.55 6.85 33.65 6.7 34.5 6.3 36.05 5.2 35.35 4.45 34.9 3.4 34.5 3.35 34.5" fill="#451f96" fill-rule="evenodd" stroke="none"/>
      <path d="M6.7 34.5 L6.8 34.55 8.05 34.9 7.0 37.4 6.2 38.9 6.1 39.1 5.4 40.35 5.6 40.3 7.45 40.1 8.0 40.15 7.85 40.4 7.6 41.0 5.95 41.2 5.15 41.3 4.65 41.0 5.1 39.8 5.75 37.8 5.8 37.7 6.25 36.3 6.3 36.05 6.7 34.5" fill="#3c1389" fill-rule="evenodd" stroke="none"/>
      <path d="M0.0 36.5 L0.0 35.1 1.7 32.55 2.45 31.5 2.45 31.7 2.3 32.95 1.8 34.25 1.4 34.9 0.0 36.5" fill="#4e2fb1" fill-rule="evenodd" stroke="none"/>
      <path d="M1.3 37.05 L2.1 35.45 2.4 34.95 2.65 34.85 3.35 34.5 3.4 34.5 4.45 34.9 5.2 35.35 6.3 36.05 6.25 36.3 5.8 37.7 5.75 37.8 3.95 37.6 3.5 37.6 3.4 37.6 1.35 37.8 0.95 37.85 1.25 37.15 1.3 37.05" fill="#4f35bc" fill-rule="evenodd" stroke="none"/>
      <path d="M0.95 37.85 L1.35 37.8 3.4 37.6 3.5 37.6 3.95 37.6 5.75 37.8 5.1 39.8 Q4.5 40.15 3.6 40.8 L2.85 41.4 2.2 41.9 1.65 40.95 0.7 39.35 0.5 38.9 0.95 37.85" fill="#513fc9" fill-rule="evenodd" stroke="none"/>
      <path d="M5.1 39.8 L4.65 41.0 5.15 41.3 5.95 41.2 6.3 42.35 Q4.8 42.85 3.2 43.85 L2.6 44.25 2.2 44.55 2.4 43.2 2.45 42.8 2.2 41.9 2.85 41.4 3.6 40.8 Q4.5 40.15 5.1 39.8" fill="#524fd2" fill-rule="evenodd" stroke="none"/>
      <path d="M0.0 40.2 L0.0 36.7 0.35 36.8 0.6 36.9 1.25 37.05 1.3 37.05 1.25 37.15 0.95 37.85 0.5 38.9 0.2 39.6 0.0 40.2" fill="#4a32ac" fill-rule="evenodd" stroke="none"/>
      <path d="M0.0 41.1 L0.0 40.2 0.2 39.6 0.5 38.9 0.7 39.35 1.65 40.95 2.2 41.9 2.45 42.8 2.4 43.2 0.3 44.1 0.45 42.8 0.1 41.3 0.0 41.1" fill="#5357dc" fill-rule="evenodd" stroke="none"/>
      <path d="M0.0 46.9 L0.0 46.65 0.1 46.75 0.0 46.9 M0.0 45.45 L0.0 41.1 0.1 41.3 0.45 42.8 0.3 44.1 0.15 44.75 0.0 45.45" fill="#5044ce" fill-rule="evenodd" stroke="none"/>
      <path d="M0.0 46.65 L0.0 45.45 0.15 44.75 0.3 44.1 2.4 43.2 2.2 44.55 2.15 44.8 Q2.15 45.3 2.4 45.6 L2.5 45.65 2.25 46.15 2.0 46.8 1.6 47.75 1.15 47.25 1.1 47.2 0.25 46.8 0.1 46.75 0.0 46.65" fill="#5973ec" fill-rule="evenodd" stroke="none"/>
      <path d="M2.2 44.55 L2.6 44.25 3.2 43.85 Q4.8 42.85 6.3 42.35 L7.1 44.25 7.25 44.6 7.7 45.65 6.15 45.45 Q4.6 45.45 3.3 46.2 L3.25 46.15 3.05 46.0 2.5 45.7 2.5 45.65 2.4 45.6 Q2.15 45.3 2.15 44.8 L2.2 44.55" fill="#5474ef" fill-rule="evenodd" stroke="none"/>
      <path d="M2.5 45.65 L2.5 45.7 3.05 46.0 3.25 46.15 3.3 46.2 3.85 46.75 4.6 47.4 6.05 47.9 5.45 48.3 4.65 48.25 Q3.95 48.35 3.6 47.75 L3.35 47.0 3.4 46.7 2.75 47.4 2.95 47.65 3.15 48.45 Q3.15 49.1 2.55 49.8 L2.5 49.9 2.25 50.2 Q2.1 48.55 1.6 47.75 L2.0 46.8 2.25 46.15 2.5 45.65" fill="#5b8ffd" fill-rule="evenodd" stroke="none"/>
      <path d="M5.95 41.2 L7.6 41.0 7.85 40.4 8.05 40.95 8.1 41.1 8.3 41.85 6.3 42.35 5.95 41.2" fill="#5544e2" fill-rule="evenodd" stroke="none"/>
      <path d="M6.3 42.35 L8.3 41.85 8.3 42.5 8.25 43.35 8.75 43.5 10.1 43.75 11.8 44.1 11.85 44.9 11.85 44.95 10.05 45.75 9.05 46.2 7.7 45.65 7.25 44.6 7.1 44.25 6.3 42.35" fill="#525ae3" fill-rule="evenodd" stroke="none"/>
      <path d="M3.3 46.2 Q4.6 45.45 6.15 45.45 L7.7 45.65 9.05 46.2 8.15 46.7 7.0 47.35 6.05 47.9 4.6 47.4 3.85 46.75 3.3 46.2" fill="#5c90fe" fill-rule="evenodd" stroke="none"/>
      <path d="M5.45 48.3 L6.05 47.9 7.0 47.35 8.15 46.7 9.05 46.2 10.05 45.75 10.25 46.95 Q7.45 48.2 4.8 49.95 L4.45 49.0 5.45 48.3" fill="#79c3f4" fill-rule="evenodd" stroke="none"/>
      <path d="M2.25 50.2 L2.5 49.9 2.55 49.8 Q3.15 49.1 3.15 48.45 L2.95 47.65 2.75 47.4 3.4 46.7 3.35 47.0 3.6 47.75 Q3.95 48.35 4.65 48.25 L5.45 48.3 4.45 49.0 2.55 50.45 2.3 50.7 2.25 50.2" fill="#65ceff" fill-rule="evenodd" stroke="none"/>
      <path d="M0.0 49.0 L0.0 46.9 0.1 46.75 0.25 46.8 1.1 47.2 1.15 47.25 1.6 47.75 Q0.95 48.7 0.75 50.05 L0.2 49.3 0.0 49.0" fill="#5065e4" fill-rule="evenodd" stroke="none"/>
      <path d="M1.6 47.75 Q2.1 48.55 2.25 50.2 L2.3 50.7 1.65 51.25 0.7 52.2 0.65 52.15 0.6 51.4 0.75 50.05 Q0.95 48.7 1.6 47.75" fill="#5975f2" fill-rule="evenodd" stroke="none"/>
      <path d="M4.8 49.95 L4.3 50.25 3.15 51.1 1.95 52.0 0.7 53.05 0.5 52.45 0.65 52.25 0.7 52.2 1.65 51.25 2.3 50.7 2.55 50.45 4.45 49.0 4.8 49.95" fill="#5794c0" fill-rule="evenodd" stroke="none"/>
      <path d="M0.0 51.3 L0.0 49.0 0.2 49.3 0.75 50.05 0.6 51.4 0.65 52.15 0.0 51.3" fill="#595de2" fill-rule="evenodd" stroke="none"/>
      <path d="M0.0 53.7 L0.0 51.3 0.65 52.15 0.7 52.2 0.65 52.25 0.5 52.45 0.7 53.05 0.25 53.45 0.0 53.7" fill="#523ace" fill-rule="evenodd" stroke="none"/>
      <path d="M50.3 39.65 L51.45 41.1 53.9 44.1 53.3 44.8 51.15 42.15 50.1 40.9 50.2 40.2 50.3 39.65" fill="#6def59" fill-rule="evenodd" stroke="none"/>
      <path d="M47.6 41.2 L47.9 40.65 48.9 39.45 49.55 40.2 49.3 40.9 Q48.75 42.65 48.5 44.3 L46.85 44.65 46.55 44.75 46.6 44.45 Q46.8 42.65 47.6 41.2" fill="#4b38a3" fill-rule="evenodd" stroke="none"/>
      <path d="M44.25 46.6 L46.45 45.5 46.5 45.5 46.55 44.75 46.85 44.65 48.5 44.3 48.45 44.75 48.25 47.3 48.25 47.45 Q49.05 47.65 49.95 48.45 L49.75 49.45 Q48.55 48.15 46.6 48.05 L46.55 47.75 46.4 47.2 44.25 46.6" fill="#482db0" fill-rule="evenodd" stroke="none"/>
      <path d="M49.65 38.85 L49.9 39.2 50.3 39.65 50.2 40.2 50.1 40.9 49.55 40.2 48.9 39.45 49.1 39.25 49.65 38.85" fill="#64d640" fill-rule="evenodd" stroke="none"/>
      <path d="M48.5 44.3 Q48.75 42.65 49.3 40.9 L49.55 40.2 50.1 40.9 51.15 42.15 Q50.95 43.0 50.9 43.9 L50.85 45.2 48.45 44.75 48.5 44.3" fill="#557491" fill-rule="evenodd" stroke="none"/>
      <path d="M54.4 46.2 L54.4 47.25 53.45 46.45 Q52.3 45.65 50.85 45.2 L50.9 43.9 Q50.95 43.0 51.15 42.15 L53.3 44.8 54.4 46.2" fill="#4c869c" fill-rule="evenodd" stroke="none"/>
      <path d="M48.45 44.75 L50.85 45.2 50.85 47.1 50.65 47.6 50.35 48.8 50.1 48.55 49.95 48.45 Q49.05 47.65 48.25 47.45 L48.25 47.3 48.45 44.75" fill="#5251d1" fill-rule="evenodd" stroke="none"/>
      <path d="M53.9 44.1 L54.4 44.75 54.4 46.2 53.3 44.8 53.9 44.1" fill="#71c7d4" fill-rule="evenodd" stroke="none"/>
      <path d="M54.4 47.7 L54.4 51.25 54.35 51.4 Q53.85 52.8 52.85 53.95 L52.15 53.95 52.15 53.65 Q52.15 51.65 51.4 50.2 L52.75 49.15 54.4 47.7" fill="#5278f3" fill-rule="evenodd" stroke="none"/>
      <path d="M54.4 51.25 L54.4 51.55 54.35 51.4 54.4 51.25" fill="#61adff" fill-rule="evenodd" stroke="none"/>
      <path d="M54.4 47.25 L54.4 47.7 52.75 49.15 51.4 50.2 50.35 48.8 50.65 47.6 50.85 47.1 50.85 45.2 Q52.3 45.65 53.45 46.45 L54.4 47.25" fill="#5375e0" fill-rule="evenodd" stroke="none"/>
      <path d="M54.4 51.55 L54.4 53.95 52.85 53.95 Q53.85 52.8 54.35 51.4 L54.4 51.55" fill="#62a9f9" fill-rule="evenodd" stroke="none"/>
      <path d="M52.15 53.95 L51.3 53.95 51.3 53.6 51.3 53.35 Q51.2 51.75 50.35 50.3 L49.75 49.45 49.95 48.45 50.1 48.55 50.35 48.8 51.4 50.2 Q52.15 51.65 52.15 53.65 L52.15 53.95" fill="#6349ae" fill-rule="evenodd" stroke="none"/>
      <path d="M27.8 53.95 L24.45 53.95 23.55 53.55 24.95 52.65 25.35 52.8 26.05 53.15 27.8 53.95" fill="#4f4112" fill-rule="evenodd" stroke="none"/>
      <path d="M24.95 52.65 L23.55 53.55 22.0 52.95 17.55 51.45 16.9 51.25 15.25 50.9 15.3 50.45 15.4 49.8 Q18.05 50.25 20.95 51.15 L23.65 52.15 24.95 52.65" fill="#564a20" fill-rule="evenodd" stroke="none"/>
      <path d="M12.95 45.9 L12.85 46.25 10.4 47.6 6.75 49.85 5.2 50.95 3.35 52.35 3.2 51.55 3.15 51.1 4.3 50.25 4.8 49.95 Q7.45 48.2 10.25 46.95 11.6 46.35 12.95 45.9" fill="#344800" fill-rule="evenodd" stroke="none"/>
      <path d="M24.45 53.95 L21.4 53.95 21.8 53.2 22.0 52.95 23.55 53.55 24.45 53.95" fill="#869445" fill-rule="evenodd" stroke="none"/>
      <path d="M21.4 53.95 L16.7 53.95 16.9 51.25 17.55 51.45 22.0 52.95 21.8 53.2 21.4 53.95" fill="#707f3e" fill-rule="evenodd" stroke="none"/>
      <path d="M15.2 53.95 L13.95 53.95 Q13.95 52.75 12.9 51.55 L11.85 50.65 11.15 50.35 10.8 50.2 9.3 50.0 9.15 50.0 Q7.5 50.4 5.9 51.9 L5.65 52.15 Q4.85 53.0 4.4 53.95 L2.0 53.95 1.95 53.5 3.35 52.35 5.2 50.95 6.75 49.85 10.4 47.6 12.85 46.25 12.4 47.85 11.85 49.45 12.65 49.5 15.3 49.8 15.4 49.8 15.3 50.45 15.25 50.9 14.3 50.75 14.7 51.45 Q15.2 52.45 15.2 53.4 L15.2 53.95 M11.15 49.45 L11.85 49.45 11.15 49.45" fill="#4b3714" fill-rule="evenodd" stroke="none"/>
      <path d="M16.7 53.95 L15.2 53.95 15.2 53.4 Q15.2 52.45 14.7 51.45 L14.3 50.75 15.25 50.9 16.9 51.25 16.7 53.95" fill="#60632c" fill-rule="evenodd" stroke="none"/>
      <path d="M5.9 51.9 Q7.5 50.4 9.15 50.0 L9.3 50.0 10.8 50.2 11.15 50.35 10.85 50.45 10.3 50.7 9.3 51.25 8.1 52.1 Q7.85 52.25 7.6 52.5 L6.65 53.45 6.3 52.7 5.9 51.9" fill="#49ac14" fill-rule="evenodd" stroke="none"/>
      <path d="M13.95 53.95 L11.75 53.95 11.75 53.85 Q11.75 52.85 11.1 52.1 L11.05 52.05 Q10.7 51.65 10.2 51.45 L9.3 51.25 10.3 50.7 10.85 50.45 11.15 50.35 11.85 50.65 12.9 51.55 Q13.95 52.75 13.95 53.95" fill="#4a3812" fill-rule="evenodd" stroke="none"/>
      <path d="M9.2 53.95 L7.1 53.95 6.65 53.45 7.6 52.5 Q7.85 52.25 8.1 52.1 L8.6 52.4 8.95 52.9 9.15 53.85 9.2 53.95" fill="#666b35" fill-rule="evenodd" stroke="none"/>
      <path d="M11.75 53.95 L9.6 53.95 9.15 53.85 8.95 52.9 8.6 52.4 8.1 52.1 9.3 51.25 10.2 51.45 Q10.7 51.65 11.05 52.05 L11.1 52.1 Q11.75 52.85 11.75 53.85 L11.75 53.95" fill="#62622c" fill-rule="evenodd" stroke="none"/>
      <path d="M5.9 53.95 L4.4 53.95 Q4.85 53.0 5.65 52.15 L5.9 51.9 6.3 52.7 6.65 53.45 6.35 53.4 6.15 53.45 5.9 53.85 5.9 53.95" fill="#4cb30c" fill-rule="evenodd" stroke="none"/>
      <path d="M7.1 53.95 L5.9 53.95 5.9 53.85 6.15 53.45 6.35 53.4 6.65 53.45 7.1 53.95" fill="#96964e" fill-rule="evenodd" stroke="none"/>
      <path d="M9.6 53.95 L9.2 53.95 9.15 53.85 9.6 53.95" fill="#5c5c28" fill-rule="evenodd" stroke="none"/>
      <path d="M0.9 53.95 L0.0 53.95 0.0 53.7 0.25 53.45 0.7 53.05 0.9 53.95" fill="#3d930c" fill-rule="evenodd" stroke="none"/>
      <path d="M1.45 53.95 L0.9 53.95 0.7 53.05 1.95 52.0 3.15 51.1 3.2 51.55 3.35 52.35 1.95 53.5 1.45 53.95" fill="#4bbf04" fill-rule="evenodd" stroke="none"/>
      <path d="M2.0 53.95 L1.45 53.95 1.95 53.5 2.0 53.95" fill="#3b2203" fill-rule="evenodd" stroke="none"/>
      <path d="M41.6 53.95 L37.55 53.95 38.0 53.85 39.1 53.65 39.6 53.55 41.05 53.25 41.0 52.95 Q41.0 50.2 42.0 48.55 42.7 47.4 43.85 46.8 L44.1 46.65 44.25 46.6 46.4 47.2 46.55 47.75 46.6 48.05 46.3 48.05 45.35 48.1 45.15 48.1 43.55 48.55 Q42.7 48.9 42.2 49.55 L42.05 49.8 Q41.6 50.55 41.6 51.55 41.6 52.9 42.2 53.75 L41.6 53.95" fill="#4b421b" fill-rule="evenodd" stroke="none"/>
      <path d="M50.7 53.95 L46.2 53.95 45.3 52.9 44.35 52.7 43.9 52.45 Q43.35 52.0 43.35 51.25 L43.55 50.0 44.05 49.1 45.15 48.1 45.35 48.1 46.3 48.05 46.6 48.05 Q48.55 48.15 49.75 49.45 L50.35 50.3 Q51.2 51.75 51.3 53.35 L50.7 53.95 M47.5 49.7 L47.35 49.5 46.9 49.45 Q46.15 49.45 45.65 49.75 L45.35 49.95 44.9 50.5 44.8 51.0 Q44.8 52.3 46.05 52.9 46.9 53.35 47.75 53.35 L47.85 53.35 47.9 53.35 48.2 53.3 Q48.85 53.25 49.25 53.0 49.65 52.7 49.65 52.3 49.65 51.55 49.25 51.0 L48.95 50.65 49.0 50.45 Q49.0 49.55 48.2 49.55 L48.05 49.55 47.75 49.65 47.55 49.7 47.5 49.7" fill="#5d5a25" fill-rule="evenodd" stroke="none"/>
      <path d="M48.95 50.65 L49.25 51.0 Q49.65 51.55 49.65 52.3 49.65 52.7 49.25 53.0 48.85 53.25 48.2 53.3 L47.9 53.35 47.85 53.35 47.75 53.35 Q46.9 53.35 46.05 52.9 44.8 52.3 44.8 51.0 L44.9 50.5 45.35 49.95 45.65 49.75 Q46.15 49.45 46.9 49.45 L47.35 49.5 47.5 49.7 Q47.25 49.85 47.25 50.25 47.25 50.8 47.65 51.1 L47.85 51.2 48.15 51.25 48.8 50.9 48.95 50.65" fill="#6c7540" fill-rule="evenodd" stroke="none"/>
      <path d="M48.95 50.65 L48.8 50.9 48.15 51.25 47.85 51.2 47.65 51.1 Q47.25 50.8 47.25 50.25 47.25 49.85 47.5 49.7 L47.55 49.7 47.75 49.65 48.05 49.55 48.2 49.55 Q49.0 49.55 49.0 50.45 L48.95 50.65" fill="#a2af5d" fill-rule="evenodd" stroke="none"/>
      <path d="M50.95 53.95 L50.7 53.95 51.3 53.35 50.95 53.95" fill="#545422" fill-rule="evenodd" stroke="none"/>
      <path d="M51.3 53.95 L50.95 53.95 51.3 53.35 51.3 53.6 51.3 53.95 M46.2 53.95 L44.75 53.95 Q44.45 53.5 43.95 53.5 L43.4 53.65 43.3 53.7 43.1 53.85 43.0 53.95 42.4 53.95 42.35 53.9 42.2 53.75 Q41.6 52.9 41.6 51.55 41.6 50.55 42.05 49.8 L42.2 49.55 Q42.7 48.9 43.55 48.55 L45.15 48.1 44.05 49.1 43.55 50.0 43.35 51.25 Q43.35 52.0 43.9 52.45 L44.35 52.7 45.3 52.9 46.2 53.95" fill="#543c0e" fill-rule="evenodd" stroke="none"/>
      <path d="M44.75 53.95 L43.0 53.95 43.1 53.85 43.3 53.7 43.4 53.65 43.95 53.5 Q44.45 53.5 44.75 53.95 M42.4 53.95 L41.6 53.95 42.2 53.75 42.35 53.9 42.4 53.95" fill="#61612d" fill-rule="evenodd" stroke="none"/>
      <path d="M15.9 32.1 L16.65 30.65 17.75 30.9 17.8 30.9 Q17.8 31.9 17.95 32.75 L16.8 32.45 15.9 32.1" fill="#632b74" fill-rule="evenodd" stroke="none"/>
      <path d="M41.45 33.9 L41.35 34.75 41.4 35.6 40.1 35.7 40.1 35.15 40.1 35.1 Q40.1 34.65 40.25 33.95 L40.3 33.95 40.4 33.95 41.45 33.9" fill="#703669" fill-rule="evenodd" stroke="none"/>
      <path d="M40.25 33.95 Q40.1 34.65 40.1 35.1 L40.1 35.15 40.1 35.7 39.85 35.7 39.25 35.75 39.0 33.95 39.85 33.95 40.25 33.95" fill="#581c7c" fill-rule="evenodd" stroke="none"/>
      <path d="M35.75 33.85 L36.95 33.9 37.8 33.95 39.0 33.95 39.25 35.75 38.95 35.75 37.65 35.75 35.4 35.7 35.6 34.65 35.75 33.85" fill="#451784" fill-rule="evenodd" stroke="none"/>
      <path d="M39.55 37.65 L39.2 37.75 38.2 37.85 37.15 37.8 35.6 37.4 35.45 37.35 34.35 36.9 Q34.8 36.55 35.25 36.35 L35.4 35.7 37.65 35.75 38.95 35.75 Q39.1 36.55 39.4 37.25 L39.55 37.65" fill="#552fb8" fill-rule="evenodd" stroke="none"/>
      <path d="M40.1 35.7 Q40.3 37.25 41.4 38.15 L41.65 38.35 41.2 39.05 41.0 39.45 41.0 39.5 40.95 39.45 Q40.1 38.65 39.55 37.65 L39.4 37.25 Q39.1 36.55 38.95 35.75 L39.25 35.75 39.85 35.7 40.1 35.7" fill="#633b93" fill-rule="evenodd" stroke="none"/>
      <path d="M48.55 33.15 L48.45 34.2 48.4 34.7 48.3 34.2 48.55 33.15 48.3 34.2 48.25 34.5 48.25 34.75 47.5 34.85 47.8 33.35 47.8 32.8 48.3 32.65 48.4 32.65 48.6 32.55 48.55 33.15 M42.0 33.85 L42.0 34.05 41.95 34.6 42.05 35.55 41.4 35.6 41.35 34.75 41.45 33.9 41.7 33.85 41.75 33.85 42.0 34.05 41.75 33.85 41.95 33.85 42.0 33.85" fill="#90425a" fill-rule="evenodd" stroke="none"/>
      <path d="M45.05 33.6 L44.25 33.75 44.2 33.75 42.5 34.0 42.5 34.1 Q42.5 34.85 42.85 35.5 L42.05 35.55 41.95 34.6 42.0 34.05 42.0 33.85 42.3 33.8 43.05 33.75 45.2 33.45 45.25 33.4 46.8 33.1 45.25 33.55 45.05 33.6 M42.5 34.0 L42.0 34.05 42.5 34.0 M47.8 32.8 L47.8 33.35 47.5 34.85 46.75 35.0 47.1 33.2 47.1 33.0 47.15 33.0 47.8 32.8" fill="#cd8143" fill-rule="evenodd" stroke="none"/>
      <path d="M41.4 35.6 L42.05 35.55 Q42.25 36.8 43.15 37.3 L43.55 37.4 43.3 38.0 42.85 37.8 42.4 37.45 42.35 37.45 Q41.6 36.75 41.4 35.6" fill="#a2697c" fill-rule="evenodd" stroke="none"/>
      <path d="M42.85 35.5 L43.0 35.75 43.1 35.8 43.9 36.45 44.05 36.45 44.45 36.35 44.55 36.4 44.75 36.55 44.55 36.55 44.05 36.45 44.55 36.55 44.75 36.55 45.8 36.15 45.9 36.1 46.55 35.3 46.75 35.0 47.5 34.85 47.0 35.75 46.3 36.55 46.25 36.65 46.1 36.8 45.45 37.3 45.1 37.4 44.3 37.5 43.55 37.4 43.15 37.3 Q42.25 36.8 42.05 35.55 L42.85 35.5" fill="#e99a3e" fill-rule="evenodd" stroke="none"/>
      <path d="M43.3 38.0 L42.9 38.9 42.05 38.6 41.65 38.35 41.4 38.15 Q40.3 37.25 40.1 35.7 L41.4 35.6 Q41.6 36.75 42.35 37.45 L42.4 37.45 42.85 37.8 43.3 38.0" fill="#7f4a74" fill-rule="evenodd" stroke="none"/>
      <path d="M31.5 35.4 L33.35 35.6 33.0 35.8 32.1 36.45 30.1 37.65 29.65 36.65 31.3 35.6 31.5 35.4" fill="#92586e" fill-rule="evenodd" stroke="none"/>
      <path d="M28.1 36.1 L29.55 35.45 29.95 35.25 31.5 35.4 31.3 35.6 29.65 36.65 28.6 37.1 28.35 37.2 27.55 37.35 25.95 37.55 25.45 37.6 25.35 37.6 24.5 37.55 25.0 36.35 25.9 36.4 26.05 36.4 27.4 36.3 28.1 36.1" fill="#f8ad13" fill-rule="evenodd" stroke="none"/>
      <path d="M33.35 35.6 L34.75 33.8 35.15 33.8 35.45 33.85 35.75 33.85 35.6 34.65 35.4 35.7 34.5 35.65 33.35 35.6" fill="#602774" fill-rule="evenodd" stroke="none"/>
      <path d="M23.3 32.15 L25.25 32.5 26.1 32.65 26.9 32.8 27.05 32.85 30.65 33.4 31.8 33.55 32.35 33.6 32.65 33.65 33.0 33.65 31.5 35.4 29.95 35.25 30.15 35.05 31.7 33.6 30.85 33.5 29.85 33.35 25.3 32.55 23.3 32.2 23.3 32.15 M32.65 33.65 L31.7 33.6 32.65 33.65" fill="#f8ab27" fill-rule="evenodd" stroke="none"/>
      <path d="M33.0 33.65 L33.5 33.7 34.0 33.75 34.75 33.8 33.35 35.6 31.5 35.4 33.0 33.65" fill="#7c4471" fill-rule="evenodd" stroke="none"/>
      <path d="M32.1 36.45 L33.0 35.8 33.35 35.6 34.5 35.65 33.85 36.65 33.5 37.1 33.0 37.6 32.1 36.45" fill="#723f84" fill-rule="evenodd" stroke="none"/>
      <path d="M34.5 35.65 L35.4 35.7 35.25 36.35 Q34.8 36.55 34.35 36.9 L33.65 37.6 33.3 38.0 33.1 37.75 33.0 37.6 33.5 37.1 33.85 36.65 34.5 35.65" fill="#5a2f89" fill-rule="evenodd" stroke="none"/>
      <path d="M37.15 37.8 L36.95 38.6 36.85 38.9 35.1 39.1 34.45 39.25 33.6 39.45 32.7 39.65 32.7 39.45 32.65 38.75 32.85 38.9 33.3 38.0 33.65 37.6 34.35 36.9 35.45 37.35 35.6 37.4 37.15 37.8" fill="#5239b9" fill-rule="evenodd" stroke="none"/>
      <path d="M36.85 38.9 L36.65 39.65 34.95 39.8 34.2 39.9 32.65 40.25 32.65 40.05 32.7 39.65 33.6 39.45 34.45 39.25 35.1 39.1 36.85 38.9" fill="#544dcf" fill-rule="evenodd" stroke="none"/>
      <path d="M29.7 42.15 L29.4 42.0 28.9 41.75 29.3 41.6 30.1 41.3 30.7 41.0 32.45 40.2 32.65 40.05 32.65 40.25 34.2 39.9 34.95 39.8 34.75 40.85 34.6 41.4 34.45 42.45 32.5 42.65 32.3 42.65 29.7 42.15" fill="#5f69e5" fill-rule="evenodd" stroke="none"/>
      <path d="M41.0 39.5 L40.9 39.65 40.75 39.65 39.45 39.6 39.4 39.6 39.05 39.6 36.65 39.65 36.85 38.9 36.95 38.6 37.15 37.8 38.2 37.85 39.2 37.75 39.55 37.65 Q40.1 38.65 40.95 39.45 L41.0 39.5" fill="#523cbb" fill-rule="evenodd" stroke="none"/>
      <path d="M40.75 39.65 L40.1 40.1 39.55 40.45 39.4 40.55 38.9 40.85 38.3 41.15 35.9 42.1 35.45 42.2 34.45 42.45 34.6 41.4 34.75 40.85 34.95 39.8 36.65 39.65 39.05 39.6 39.4 39.6 39.45 39.6 40.75 39.65" fill="#5862e6" fill-rule="evenodd" stroke="none"/>
      <path d="M28.85 38.25 L29.4 38.0 29.95 37.75 30.1 37.65 30.25 38.05 30.3 38.0 32.1 38.45 32.15 38.45 30.15 39.65 29.75 39.8 29.3 40.0 29.2 39.65 28.85 38.25" fill="#8a6a99" fill-rule="evenodd" stroke="none"/>
      <path d="M32.1 38.45 L32.5 38.1 33.0 37.6 33.1 37.75 33.3 38.0 32.85 38.9 32.65 38.75 32.35 38.55 32.15 38.45 32.1 38.45" fill="#633e9b" fill-rule="evenodd" stroke="none"/>
      <path d="M29.75 39.8 L30.15 39.65 32.15 38.45 32.35 38.55 32.65 38.75 32.7 39.45 32.7 39.65 32.65 40.05 32.45 40.2 30.7 41.0 30.1 41.3 30.05 41.05 29.75 39.8" fill="#6962d2" fill-rule="evenodd" stroke="none"/>
      <path d="M30.1 37.65 L32.1 36.45 33.0 37.6 32.5 38.1 32.1 38.45 30.3 38.0 30.25 38.05 30.1 37.65" fill="#8a5080" fill-rule="evenodd" stroke="none"/>
      <path d="M29.65 36.65 L30.1 37.65 29.95 37.75 29.4 38.0 28.85 38.25 27.8 38.65 26.0 38.9 25.95 37.95 25.95 37.55 27.55 37.35 28.35 37.2 28.6 37.1 29.65 36.65" fill="#b2827e" fill-rule="evenodd" stroke="none"/>
      <path d="M29.3 40.0 L29.75 39.8 30.05 41.05 30.1 41.3 29.3 41.6 28.9 41.75 27.1 42.3 24.95 42.6 25.1 41.55 25.2 40.7 Q27.55 40.65 29.3 40.0" fill="#6866c9" fill-rule="evenodd" stroke="none"/>
      <path d="M23.05 40.55 L23.5 39.05 23.55 38.9 24.85 38.95 25.35 38.95 26.0 38.9 27.8 38.65 28.85 38.25 29.2 39.65 29.3 40.0 Q27.55 40.65 25.2 40.7 L24.85 40.7 23.05 40.55" fill="#8e6e9d" fill-rule="evenodd" stroke="none"/>
      <path d="M27.3 43.95 L29.7 42.15 32.3 42.65 32.5 42.65 32.45 42.7 32.25 44.3 32.25 44.35 32.25 44.6 32.25 44.65 32.4 45.9 31.65 45.9 30.55 45.75 29.55 45.5 28.95 45.3 28.5 44.55 28.4 44.4 28.2 44.05 28.2 44.0 27.3 43.95" fill="#588bff" fill-rule="evenodd" stroke="none"/>
      <path d="M32.5 42.65 L34.45 42.45 35.45 42.2 36.1 43.6 36.35 44.55 36.45 44.9 36.55 45.65 35.95 45.75 35.9 45.75 32.7 45.9 32.4 45.9 32.25 44.65 32.25 44.6 32.25 44.35 32.25 44.3 32.45 42.7 32.5 42.65" fill="#5889ff" fill-rule="evenodd" stroke="none"/>
      <path d="M28.9 41.75 L29.4 42.0 29.7 42.15 27.3 43.95 27.05 43.95 24.85 43.65 24.15 43.45 24.2 42.8 24.25 42.6 24.3 42.6 24.95 42.6 27.1 42.3 28.9 41.75" fill="#5079eb" fill-rule="evenodd" stroke="none"/>
      <path d="M27.05 43.95 L27.3 43.95 28.2 44.0 28.2 44.05 28.4 44.4 28.5 44.55 28.95 45.3 29.55 45.5 30.55 45.75 30.25 46.5 29.95 46.45 29.75 46.45 27.95 45.9 27.85 45.75 27.75 45.6 27.5 45.15 27.2 44.65 27.1 44.5 26.95 44.5 26.95 44.3 27.0 44.2 27.05 44.0 27.05 43.95" fill="#57adff" fill-rule="evenodd" stroke="none"/>
      <path d="M30.55 45.75 L31.65 45.9 32.4 45.9 32.7 45.9 35.9 45.75 35.95 45.75 35.75 46.75 35.1 46.75 34.5 46.75 30.25 46.5 30.55 45.75" fill="#6dc1ed" fill-rule="evenodd" stroke="none"/>
      <path d="M35.45 42.2 L35.9 42.1 38.3 41.15 39.1 42.1 39.4 42.45 40.4 43.95 40.45 44.1 40.45 44.15 38.8 45.3 38.75 45.35 38.0 45.45 36.55 45.65 36.45 44.9 36.35 44.55 36.1 43.6 35.45 42.2" fill="#5983fb" fill-rule="evenodd" stroke="none"/>
      <path d="M40.7 43.9 L40.65 44.45 40.6 44.8 40.5 45.45 40.4 45.55 38.1 46.25 35.75 46.75 35.95 45.75 36.55 45.65 38.0 45.45 38.75 45.35 38.8 45.3 40.45 44.15 40.45 44.1 40.7 43.9" fill="#52a7ea" fill-rule="evenodd" stroke="none"/>
      <path d="M46.85 38.4 L46.3 38.6 45.45 38.8 44.2 39.05 43.6 39.0 42.9 38.9 43.3 38.0 44.0 38.15 44.15 38.15 45.25 38.05 46.5 37.7 46.7 38.05 46.85 38.4" fill="#855c96" fill-rule="evenodd" stroke="none"/>
      <path d="M46.1 36.8 L46.25 37.15 46.5 37.7 45.25 38.05 44.15 38.15 44.0 38.15 43.3 38.0 43.55 37.4 44.3 37.5 45.1 37.4 45.45 37.3 46.1 36.8" fill="#a8707b" fill-rule="evenodd" stroke="none"/>
      <path d="M42.9 38.9 L43.6 39.0 43.5 39.3 42.9 40.75 42.65 40.6 41.2 39.65 41.0 39.5 41.0 39.45 41.2 39.05 41.65 38.35 42.05 38.6 42.9 38.9" fill="#6e51ab" fill-rule="evenodd" stroke="none"/>
      <path d="M42.9 40.75 L44.05 41.1 42.35 42.65 41.9 41.95 41.45 41.4 40.3 40.25 40.1 40.1 40.75 39.65 40.9 39.65 41.0 39.5 41.2 39.65 42.65 40.6 42.9 40.75" fill="#535ed2" fill-rule="evenodd" stroke="none"/>
      <path d="M46.3 38.6 L46.1 38.75 44.45 40.65 44.05 41.1 42.9 40.75 43.5 39.3 43.6 39.0 44.2 39.05 45.45 38.8 46.3 38.6" fill="#7958a9" fill-rule="evenodd" stroke="none"/>
      <path d="M47.0 38.4 L46.9 38.45 46.75 38.75 45.4 40.55 45.4 40.6 44.5 41.6 44.5 41.25 44.5 41.15 44.45 40.65 46.1 38.75 46.3 38.6 46.85 38.4 47.0 38.4" fill="#6f4d72" fill-rule="evenodd" stroke="none"/>
      <path d="M44.45 40.65 L44.5 41.15 44.5 41.25 44.5 41.6 43.95 42.15 43.05 43.05 42.1 43.95 41.2 44.8 41.0 45.0 40.65 45.35 40.5 45.45 40.6 44.8 40.65 44.45 40.7 43.9 41.65 43.2 42.35 42.65 44.05 41.1 44.45 40.65" fill="#539ef9" fill-rule="evenodd" stroke="none"/>
      <path d="M40.1 40.1 L40.3 40.25 41.45 41.4 41.9 41.95 42.35 42.65 41.65 43.2 40.7 43.9 40.45 44.1 40.4 43.95 39.4 42.45 39.1 42.1 38.3 41.15 38.9 40.85 39.4 40.55 39.55 40.45 40.1 40.1" fill="#5575f0" fill-rule="evenodd" stroke="none"/>
      <path d="M47.5 34.85 L48.25 34.75 48.0 36.3 47.8 36.8 47.65 37.15 47.2 37.35 47.1 37.45 46.5 37.7 46.25 37.15 46.1 36.8 46.25 36.65 46.3 36.55 47.0 35.75 47.5 34.85" fill="#9a7374" fill-rule="evenodd" stroke="none"/>
      <path d="M46.5 37.7 L47.1 37.45 47.2 37.35 47.65 37.15 47.5 37.4 47.0 38.4 46.85 38.4 46.7 38.05 46.5 37.7" fill="#927275" fill-rule="evenodd" stroke="none"/>
      <path d="M13.7 29.65 L14.0 29.75 14.65 30.0 15.4 30.25 16.3 30.5 16.45 30.55 16.5 30.55 16.6 30.6 16.65 30.65 15.9 32.1 13.8 31.35 13.65 31.3 13.65 31.1 13.7 29.9 13.7 29.65" fill="#42157c" fill-rule="evenodd" stroke="none"/>
      <path d="M13.7 29.65 L13.7 29.9 13.65 31.1 13.65 31.3 13.0 31.0 12.2 30.65 12.2 29.1 13.7 29.65" fill="#3e1a84" fill-rule="evenodd" stroke="none"/>
      <path d="M11.1 28.6 L12.2 29.1 12.2 30.65 10.85 30.0 10.85 29.65 10.85 28.5 11.1 28.6" fill="#3f1583" fill-rule="evenodd" stroke="none"/>
      <path d="M10.85 30.0 L12.2 30.65 12.25 31.55 12.25 32.2 12.25 32.3 11.0 31.45 10.95 31.4 10.85 30.0" fill="#45168a" fill-rule="evenodd" stroke="none"/>
      <path d="M13.7 32.35 L14.3 32.65 15.65 33.4 15.95 33.55 15.95 33.9 15.95 34.0 14.5 34.05 14.55 33.6 13.65 33.1 13.4 33.0 12.25 32.3 12.25 32.2 12.25 31.55 12.6 31.75 Q13.05 32.0 13.7 32.35" fill="#572886" fill-rule="evenodd" stroke="none"/>
      <path d="M14.6 35.65 L14.6 35.4 14.5 34.2 14.5 34.05 15.95 34.0 15.95 34.4 16.3 36.4 14.8 36.65 14.6 35.65" fill="#522285" fill-rule="evenodd" stroke="none"/>
      <path d="M13.65 31.3 L13.8 31.35 13.75 31.75 13.7 32.35 Q13.05 32.0 12.6 31.75 L12.25 31.55 12.2 30.65 13.0 31.0 13.65 31.3" fill="#481f95" fill-rule="evenodd" stroke="none"/>
      <path d="M22.55 35.6 L25.0 36.35 24.5 37.55 23.95 37.45 Q22.6 37.2 21.55 36.5 L21.75 35.0 22.55 35.6" fill="#f9b722" fill-rule="evenodd" stroke="none"/>
      <path d="M20.0 31.45 L22.95 32.05 23.3 32.15 23.3 32.2 22.55 32.05 20.0 31.45 M19.0 31.2 L19.5 31.35 19.8 31.4 20.1 32.8 20.45 33.45 19.2 33.1 19.0 31.45 19.0 31.2" fill="#e89c3e" fill-rule="evenodd" stroke="none"/>
      <path d="M20.45 33.45 L21.4 34.7 21.5 34.8 21.75 35.0 21.55 36.5 20.7 35.8 20.25 35.3 19.5 34.0 19.2 33.1 20.45 33.45" fill="#ffb329" fill-rule="evenodd" stroke="none"/>
      <path d="M19.0 31.2 L19.0 31.45 19.2 33.1 17.95 32.75 Q17.8 31.9 17.8 30.9 L18.7 31.15 19.0 31.2" fill="#944960" fill-rule="evenodd" stroke="none"/>
      <path d="M13.8 31.35 L15.9 32.1 16.8 32.45 16.8 32.75 16.8 33.0 15.75 33.35 15.65 33.4 14.3 32.65 13.7 32.35 13.75 31.75 13.8 31.35" fill="#653394" fill-rule="evenodd" stroke="none"/>
      <path d="M16.8 33.0 L16.8 32.75 16.8 32.45 17.95 32.75 17.95 32.8 18.2 34.05 17.2 34.2 16.9 34.2 16.8 33.0" fill="#7f488b" fill-rule="evenodd" stroke="none"/>
      <path d="M15.65 33.4 L15.75 33.35 16.8 33.0 16.9 34.2 17.1 35.2 17.3 36.0 16.65 37.2 16.6 37.3 16.3 36.4 15.95 34.4 15.95 34.0 15.95 33.9 15.95 33.55 15.65 33.4" fill="#64439c" fill-rule="evenodd" stroke="none"/>
      <path d="M18.2 34.05 Q18.55 35.3 19.2 36.3 L18.7 37.0 18.5 37.4 18.25 37.75 17.3 36.0 17.1 35.2 16.9 34.2 17.2 34.2 18.2 34.05" fill="#8b5e89" fill-rule="evenodd" stroke="none"/>
      <path d="M18.2 34.05 L17.95 32.8 17.95 32.75 19.2 33.1 19.5 34.0 20.25 35.3 20.05 35.7 19.5 36.7 19.4 36.55 19.2 36.3 Q18.55 35.3 18.2 34.05" fill="#a86d6f" fill-rule="evenodd" stroke="none"/>
      <path d="M19.5 36.7 L20.05 35.7 20.25 35.3 20.7 35.8 21.55 36.5 Q22.6 37.2 23.95 37.45 L24.5 37.55 25.35 37.6 25.45 37.6 25.95 37.55 25.95 37.95 26.0 38.9 25.35 38.95 24.85 38.95 23.55 38.9 Q22.15 38.65 21.1 38.05 L19.5 36.7" fill="#b67d72" fill-rule="evenodd" stroke="none"/>
      <path d="M19.2 36.3 L19.4 36.55 19.5 36.7 21.1 38.05 Q22.15 38.65 23.55 38.9 L23.5 39.05 23.05 40.55 Q21.5 40.3 20.3 39.55 L19.05 38.65 19.05 38.6 18.25 37.75 18.5 37.4 18.7 37.0 19.2 36.3" fill="#946790" fill-rule="evenodd" stroke="none"/>
      <path d="M17.3 36.0 L18.25 37.75 19.05 38.6 19.05 38.65 20.3 39.55 20.1 40.0 19.85 40.75 19.75 41.2 19.2 40.75 17.95 39.45 17.55 38.9 16.6 37.3 16.65 37.2 17.3 36.0" fill="#7451ab" fill-rule="evenodd" stroke="none"/>
      <path d="M17.95 39.45 L19.2 40.75 19.75 41.2 20.1 41.5 20.85 42.05 20.5 42.35 20.4 42.45 20.3 42.5 19.9 42.9 19.35 42.55 18.55 42.0 17.8 41.45 16.6 40.2 16.9 40.05 17.95 39.45" fill="#6e3c83" fill-rule="evenodd" stroke="none"/>
      <path d="M14.8 36.65 L16.3 36.4 16.6 37.3 17.55 38.9 17.95 39.45 16.9 40.05 16.6 40.2 16.15 39.65 15.55 38.6 15.35 38.2 14.8 36.65" fill="#582f7b" fill-rule="evenodd" stroke="none"/>
      <path d="M19.75 41.2 L19.85 40.75 20.1 40.0 20.3 39.55 Q21.5 40.3 23.05 40.55 L24.85 40.7 25.2 40.7 25.1 41.55 24.95 42.6 24.3 42.6 24.25 42.6 21.25 42.2 20.95 42.1 20.85 42.05 20.1 41.5 19.75 41.2" fill="#6461c8" fill-rule="evenodd" stroke="none"/>
      <path d="M20.3 43.1 L19.9 42.9 20.3 42.5 20.4 42.45 20.5 42.35 20.85 42.05 20.95 42.1 21.15 42.2 22.35 42.8 23.95 43.4 23.8 43.65 23.55 43.95 23.5 44.15 22.85 44.0 21.95 43.75 20.3 43.1" fill="#6250a2" fill-rule="evenodd" stroke="none"/>
      <path d="M24.25 42.6 L24.2 42.8 24.15 43.45 23.95 43.4 22.35 42.8 21.15 42.2 20.95 42.1 21.25 42.2 24.25 42.6" fill="#5a6bd3" fill-rule="evenodd" stroke="none"/>
      <path d="M24.15 43.45 L24.85 43.65 27.05 43.95 27.05 44.0 27.0 44.2 26.95 44.3 26.95 44.5 25.7 44.45 23.5 44.15 23.55 43.95 23.8 43.65 23.95 43.4 24.15 43.45" fill="#5c99f2" fill-rule="evenodd" stroke="none"/>
      <path d="M42.85 35.5 Q42.5 34.85 42.5 34.1 L42.5 34.0 44.2 33.75 44.25 33.75 45.05 33.6 45.05 34.0 44.55 34.1 43.95 34.3 Q43.65 34.35 43.4 34.5 L43.3 35.2 43.4 35.45 43.55 35.7 43.8 35.95 44.45 36.35 44.05 36.45 43.9 36.45 43.1 35.8 43.0 35.75 42.85 35.5 M44.75 36.55 L44.55 36.4 44.45 36.35 45.7 35.55 45.75 35.55 45.9 36.1 45.8 36.15 44.75 36.55" fill="#c31e00" fill-rule="evenodd" stroke="none"/>
      <path d="M43.95 34.3 L44.55 34.1 45.05 34.0 45.65 33.9 45.85 34.5 45.85 34.6 45.85 34.7 45.65 35.15 45.5 35.35 44.65 35.7 44.6 35.7 44.7 35.6 44.85 35.3 44.85 35.25 44.8 35.1 44.65 34.95 44.4 34.9 44.2 34.95 Q44.05 35.05 44.05 35.3 L44.05 35.4 44.0 35.35 43.95 35.2 43.85 34.75 43.95 34.3" fill="#feee02" fill-rule="evenodd" stroke="none"/>
      <path d="M44.05 35.4 L44.05 35.3 Q44.05 35.05 44.2 34.95 L44.4 34.9 44.65 34.95 44.8 35.1 44.85 35.25 44.85 35.3 44.7 35.6 44.6 35.7 44.45 35.75 Q44.15 35.7 44.1 35.45 L44.05 35.4" fill="#ffffea" fill-rule="evenodd" stroke="none"/>
      <path d="M43.8 35.95 L43.55 35.7 43.4 35.45 43.3 35.2 43.4 34.5 Q43.65 34.35 43.95 34.3 L43.85 34.75 43.95 35.2 43.85 35.35 43.8 35.6 43.8 35.8 43.8 35.95" fill="#ff6b0b" fill-rule="evenodd" stroke="none"/>
      <path d="M44.45 36.35 L43.8 35.95 43.8 35.8 43.8 35.6 43.85 35.35 43.95 35.2 44.0 35.35 44.05 35.4 44.1 35.45 Q44.15 35.7 44.45 35.75 L44.6 35.7 44.65 35.7 45.5 35.35 45.65 35.15 45.85 34.7 45.9 35.1 45.95 35.3 45.75 35.55 45.7 35.55 44.45 36.35" fill="#e78808" fill-rule="evenodd" stroke="none"/>
      <path d="M45.05 34.0 L45.05 33.6 45.25 33.55 46.8 33.1 46.9 33.05 47.0 33.0 47.1 33.0 47.1 33.2 46.75 35.0 46.55 35.3 45.9 36.1 45.75 35.55 45.95 35.3 46.1 35.1 46.3 34.05 46.3 33.85 45.65 33.9 45.05 34.0" fill="#d5340a" fill-rule="evenodd" stroke="none"/>
      <path d="M45.85 34.7 L45.85 34.6 45.85 34.5 45.65 33.9 46.3 33.85 46.3 34.05 46.1 35.1 45.95 35.3 45.9 35.1 45.85 34.7" fill="#ff9414" fill-rule="evenodd" stroke="none"/>
      <path d="M30.85 33.5 L31.7 33.6 30.15 35.05 29.95 35.25 29.55 35.45 28.1 36.1 28.2 35.55 28.2 35.45 28.2 35.3 28.45 35.2 28.5 35.15 28.55 35.15 28.7 35.05 30.35 33.95 30.85 33.5" fill="#d01b06" fill-rule="evenodd" stroke="none"/>
      <path d="M30.35 33.95 L28.7 35.05 28.55 35.15 28.5 35.15 28.55 35.05 28.75 34.4 28.65 34.1 29.2 34.05 30.35 33.95" fill="#ff8603" fill-rule="evenodd" stroke="none"/>
      <path d="M19.8 31.4 L19.9 31.45 19.95 31.45 20.0 31.45 22.55 32.05 22.5 32.65 22.45 33.0 22.45 33.05 22.4 33.05 21.55 32.5 21.45 32.55 Q21.3 32.55 21.2 32.65 L21.3 33.1 21.35 33.2 21.65 33.75 21.65 33.8 21.55 34.35 21.5 34.8 21.4 34.7 20.45 33.45 20.1 32.8 19.8 31.4 M30.85 33.5 L30.35 33.95 29.2 34.05 29.85 33.35 30.85 33.5" fill="#e51f02" fill-rule="evenodd" stroke="none"/>
      <path d="M22.45 33.05 L22.45 33.0 22.5 32.65 22.55 32.05 23.3 32.2 25.3 32.55 29.85 33.35 29.2 34.05 28.65 34.1 28.3 34.1 27.4 34.1 23.8 33.6 23.2 33.4 23.05 33.35 22.45 33.05" fill="#ef4100" fill-rule="evenodd" stroke="none"/>
      <path d="M21.65 33.8 L21.65 33.75 21.35 33.2 21.3 33.1 21.2 32.65 Q21.3 32.55 21.45 32.55 L21.55 32.5 22.4 33.05 22.15 33.25 22.05 33.35 21.75 33.75 21.7 33.9 21.65 33.8" fill="#ff8908" fill-rule="evenodd" stroke="none"/>
      <path d="M22.4 33.05 L22.45 33.05 23.05 33.35 22.95 33.45 22.85 33.6 22.8 33.65 22.75 33.65 22.55 33.95 22.55 34.1 Q22.55 34.55 22.85 34.7 23.1 35.1 23.75 35.35 L25.35 35.7 25.7 35.7 27.3 35.4 27.65 35.05 27.65 34.9 27.4 34.1 28.3 34.1 28.65 34.1 28.75 34.4 28.55 35.05 28.5 35.15 28.45 35.2 28.2 35.3 27.8 35.45 27.65 35.55 26.0 35.85 25.35 35.8 25.3 35.8 25.1 35.8 24.05 35.55 22.5 34.85 22.4 34.75 21.9 34.2 21.7 33.9 21.75 33.75 22.05 33.35 22.15 33.25 22.4 33.05" fill="#f7cf00" fill-rule="evenodd" stroke="none"/>
      <path d="M21.5 34.8 L21.55 34.35 21.65 33.8 21.7 33.9 21.9 34.2 22.4 34.75 22.45 35.05 22.55 35.6 21.75 35.0 21.5 34.8" fill="#f36200" fill-rule="evenodd" stroke="none"/>
      <path d="M22.8 33.65 L22.85 33.6 22.95 33.45 23.05 33.35 23.2 33.4 23.8 33.6 27.4 34.1 27.65 34.9 27.65 35.05 27.3 35.4 25.7 35.7 25.35 35.7 23.75 35.35 Q23.1 35.1 22.85 34.7 L23.2 34.75 23.45 34.65 23.55 34.35 23.55 34.15 23.2 33.75 23.0 33.65 22.8 33.65" fill="#fff500" fill-rule="evenodd" stroke="none"/>
      <path d="M22.8 33.65 L23.0 33.65 23.2 33.75 23.55 34.15 23.55 34.35 23.45 34.65 23.2 34.75 22.85 34.7 Q22.55 34.55 22.55 34.1 L22.55 33.95 22.75 33.65 22.8 33.65" fill="#fffbf8" fill-rule="evenodd" stroke="none"/>
      <path d="M22.4 34.75 L22.5 34.85 24.05 35.55 25.1 35.8 25.3 35.8 25.35 35.8 25.55 35.85 25.65 36.0 25.7 36.1 26.05 36.4 25.9 36.4 25.0 36.35 22.55 35.6 22.45 35.05 22.4 34.75" fill="#f17d04" fill-rule="evenodd" stroke="none"/>
      <path d="M28.2 35.3 L28.2 35.45 28.2 35.55 28.1 36.1 27.4 36.3 26.05 36.4 25.7 36.1 25.65 36.0 25.55 35.85 25.35 35.8 26.0 35.85 27.65 35.55 27.8 35.45 28.2 35.3" fill="#f47709" fill-rule="evenodd" stroke="none"/>
      <path d="M54.25 0.0 L54.2 1.05 54.2 1.6 54.2 2.1 53.05 2.0 53.05 1.45 53.1 0.7 53.1 0.0 54.25 0.0" fill="#2ee500" fill-rule="evenodd" stroke="none"/>
      <path d="M54.2 2.1 L54.2 1.6 54.2 1.05 54.25 0.0 54.4 0.0 54.4 1.95 54.3 2.65 54.4 3.55 54.4 4.9 54.35 4.45 54.2 2.1" fill="#049a05" fill-rule="evenodd" stroke="none"/>
      <path d="M53.05 2.0 L54.2 2.1 54.35 4.45 54.4 4.9 54.4 10.9 54.05 9.9 53.85 9.05 Q53.45 7.65 53.3 5.95 53.1 4.15 53.05 2.0" fill="#40f40d" fill-rule="evenodd" stroke="none"/>
      <path d="M54.4 3.55 L54.3 2.65 54.4 1.95 54.4 3.55" fill="#30d50c" fill-rule="evenodd" stroke="none"/>
      <path d="M49.4 24.55 L50.2 25.1 50.65 25.35 50.65 25.5 50.7 26.15 49.4 26.0 49.4 24.55" fill="#1c4b29" fill-rule="evenodd" stroke="none"/>
      <path d="M49.2 22.2 L50.15 23.2 51.65 24.5 52.4 25.0 52.6 25.55 52.65 25.8 52.75 26.05 52.25 25.9 51.95 25.8 50.65 25.35 50.2 25.1 49.4 24.55 49.3 23.25 49.2 22.2" fill="#31bd26" fill-rule="evenodd" stroke="none"/>
      <path d="M50.65 25.35 L51.95 25.8 52.0 26.2 52.05 26.55 51.45 26.3 50.7 26.15 50.65 25.5 50.65 25.35" fill="#074d0f" fill-rule="evenodd" stroke="none"/>
      <path d="M51.65 24.5 L51.9 24.45 52.3 24.4 53.15 24.35 53.2 24.35 54.4 24.5 54.4 25.65 54.15 25.65 53.9 25.6 52.9 25.55 52.6 25.55 52.4 25.0 51.65 24.5 M52.4 25.0 L52.3 24.4 52.4 25.0" fill="#74e517" fill-rule="evenodd" stroke="none"/>
      <path d="M51.95 25.8 L52.25 25.9 52.75 26.05 52.9 26.95 52.95 27.25 53.0 27.4 52.95 27.4 52.05 27.45 52.05 27.25 52.05 26.55 52.0 26.2 51.95 25.8" fill="#10421c" fill-rule="evenodd" stroke="none"/>
      <path d="M52.75 26.05 L52.65 25.8 52.6 25.55 52.9 25.55 53.9 25.6 54.05 26.1 54.1 26.3 54.2 26.6 54.3 27.0 53.4 27.2 52.95 27.25 52.9 26.95 52.75 26.05" fill="#52721f" fill-rule="evenodd" stroke="none"/>
      <path d="M50.7 26.15 L51.45 26.3 52.05 26.55 52.05 27.25 52.05 27.45 51.9 28.3 51.25 28.15 50.75 28.0 50.75 27.3 50.75 27.05 50.7 26.15" fill="#1b3f31" fill-rule="evenodd" stroke="none"/>
      <path d="M50.75 27.05 L49.4 27.45 49.4 27.2 49.4 26.1 49.4 26.0 50.7 26.15 50.75 27.05" fill="#0f3828" fill-rule="evenodd" stroke="none"/>
      <path d="M54.4 25.65 L54.4 27.55 54.3 27.3 54.3 27.0 54.2 26.6 54.1 26.3 54.05 26.1 53.9 25.6 54.15 25.65 54.4 25.65" fill="#455f18" fill-rule="evenodd" stroke="none"/>
      <path d="M54.4 27.55 L54.4 27.65 54.4 29.2 54.05 29.3 53.3 29.4 52.9 29.4 53.0 28.05 53.0 27.55 53.0 27.4 52.95 27.25 53.4 27.2 54.3 27.0 54.3 27.3 54.4 27.55" fill="#52561b" fill-rule="evenodd" stroke="none"/>
      <path d="M52.05 27.45 L52.95 27.4 53.0 27.4 53.0 27.55 53.0 28.05 52.9 29.4 52.75 29.95 52.65 30.25 52.65 30.3 52.0 29.9 51.45 29.45 51.9 28.3 52.05 27.45" fill="#0c2029" fill-rule="evenodd" stroke="none"/>
      <path d="M54.4 29.2 L54.4 30.55 54.2 31.2 54.15 31.3 53.7 31.2 52.9 30.85 52.6 30.65 52.45 30.5 52.6 30.35 52.65 30.3 52.65 30.25 52.75 29.95 52.9 29.4 53.3 29.4 54.05 29.3 54.4 29.2" fill="#4b411e" fill-rule="evenodd" stroke="none"/>
      <path d="M54.4 30.55 L54.4 31.4 54.15 31.3 54.2 31.2 54.4 30.55" fill="#524e1f" fill-rule="evenodd" stroke="none"/>
      <path d="M54.4 32.7 L54.4 33.25 53.95 33.15 54.4 32.7" fill="#234600" fill-rule="evenodd" stroke="none"/>
      <path d="M54.4 31.4 L54.4 32.7 53.95 33.15 53.3 33.0 52.45 32.85 51.25 32.5 51.1 31.85 51.1 31.7 51.95 31.0 52.3 30.7 52.45 30.5 52.6 30.65 52.9 30.85 53.7 31.2 54.15 31.3 54.4 31.4" fill="#43340b" fill-rule="evenodd" stroke="none"/>
      <path d="M50.7 28.65 L50.75 28.0 51.25 28.15 51.9 28.3 51.45 29.45 51.05 29.9 50.4 30.45 50.7 28.65" fill="#16313c" fill-rule="evenodd" stroke="none"/>
      <path d="M50.75 27.05 L50.75 27.3 50.75 28.0 50.7 28.65 49.35 28.7 49.4 27.45 50.75 27.05" fill="#142131" fill-rule="evenodd" stroke="none"/>
      <path d="M49.35 28.7 L50.7 28.65 50.4 30.45 49.95 30.75 49.2 30.2 49.2 29.95 49.3 29.25 49.35 28.7" fill="#131635" fill-rule="evenodd" stroke="none"/>
      <path d="M51.1 31.7 L50.7 31.9 50.1 32.15 50.0 32.15 49.85 32.2 49.6 32.25 49.55 32.25 49.8 32.15 49.9 31.85 50.15 30.85 50.1 30.85 49.95 30.75 50.4 30.45 51.05 29.9 51.45 29.45 52.0 29.9 52.65 30.3 52.6 30.35 52.45 30.5 52.3 30.7 51.95 31.0 51.1 31.7" fill="#081130" fill-rule="evenodd" stroke="none"/>
      <path d="M44.7 42.85 L44.2 43.3 43.25 43.9 42.9 44.1 41.1 45.1 40.95 45.2 40.65 45.35 41.0 45.0 41.2 44.8 42.1 43.95 43.05 43.05 43.95 42.15 44.4 42.6 44.7 42.85" fill="#66432f" fill-rule="evenodd" stroke="none"/>
      <path d="M40.5 45.45 L40.65 45.35 40.95 45.2 40.65 46.5 40.6 46.55 40.3 47.6 39.75 49.35 39.75 49.45 39.5 49.9 39.2 50.35 Q38.85 49.75 38.3 49.75 37.8 49.75 37.35 50.0 L37.45 49.55 37.65 48.9 37.85 47.7 36.85 48.0 35.4 48.45 35.15 48.45 34.95 48.25 35.2 48.25 35.1 46.75 35.75 46.75 38.1 46.25 40.4 45.55 40.5 45.45" fill="#2a3d75" fill-rule="evenodd" stroke="none"/>
      <path d="M47.65 39.05 L47.2 40.0 46.5 41.05 45.8 41.85 44.7 42.85 44.4 42.6 43.95 42.15 44.5 41.6 45.4 40.6 45.4 40.55 46.75 38.75 46.9 38.45 47.35 38.9 47.55 39.2 47.65 39.05" fill="#c38d2b" fill-rule="evenodd" stroke="none"/>
      <path d="M43.25 43.9 L43.4 44.55 43.65 45.35 43.65 45.45 42.65 46.1 42.55 46.15 42.1 46.45 41.4 48.3 40.3 47.6 40.6 46.55 40.65 46.5 40.95 45.2 41.1 45.1 42.9 44.1 43.25 43.9" fill="#181949" fill-rule="evenodd" stroke="none"/>
      <path d="M45.8 41.85 L45.85 42.1 45.9 42.25 46.6 44.45 46.55 44.75 46.5 45.5 46.45 45.5 44.25 46.6 44.1 46.65 44.05 46.55 43.7 45.45 43.65 45.45 43.65 45.35 43.4 44.55 43.25 43.9 44.2 43.3 44.7 42.85 45.8 41.85 M14.35 43.3 L14.55 43.55 14.8 43.9 15.1 44.3 15.1 44.6 15.1 45.2 15.05 46.35 15.05 47.05 15.1 47.8 15.35 47.8 15.9 47.8 15.45 49.45 15.4 49.65 15.3 49.8 12.65 49.5 13.65 47.0 13.95 45.9 14.05 45.65 14.1 45.5 14.3 44.05 14.35 43.35 14.35 43.3" fill="#160f3b" fill-rule="evenodd" stroke="none"/>
      <path d="M43.65 45.45 L43.7 45.45 44.05 46.55 44.1 46.65 43.85 46.8 Q42.7 47.4 42.0 48.55 41.0 50.2 41.0 52.95 L41.05 53.25 39.6 53.55 40.2 51.7 40.8 49.95 40.85 49.8 41.4 48.3 42.1 46.45 42.55 46.15 42.65 46.1 43.65 45.45" fill="#25265c" fill-rule="evenodd" stroke="none"/>
      <path d="M48.4 34.7 L48.6 35.35 48.85 36.1 48.75 36.55 48.4 37.4 48.3 37.6 47.95 38.4 47.9 38.5 47.65 38.95 47.65 39.05 47.55 39.2 47.35 38.9 46.9 38.45 47.0 38.4 47.5 37.4 47.65 37.15 47.8 36.8 48.0 36.3 48.25 34.75 48.25 34.5 48.3 34.2 48.4 34.7" fill="#69622e" fill-rule="evenodd" stroke="none"/>
      <path d="M48.85 36.1 L49.2 36.8 49.4 37.25 50.15 38.6 49.65 38.85 49.1 39.25 48.8 38.55 48.6 38.15 48.3 37.6 48.4 37.4 48.75 36.55 48.85 36.1" fill="#184526" fill-rule="evenodd" stroke="none"/>
      <path d="M48.3 37.6 L48.6 38.15 48.8 38.55 49.1 39.25 48.9 39.45 47.9 40.65 47.6 41.2 47.3 40.25 47.2 40.05 47.2 40.0 47.65 39.05 47.65 38.95 47.9 38.5 47.95 38.4 48.3 37.6" fill="#1f402f" fill-rule="evenodd" stroke="none"/>
      <path d="M47.2 40.0 L47.2 40.05 47.3 40.25 47.6 41.2 Q46.8 42.65 46.6 44.45 L45.9 42.25 45.85 42.1 45.8 41.85 46.5 41.05 47.2 40.0" fill="#14243d" fill-rule="evenodd" stroke="none"/>
      <path d="M8.2 31.5 L8.55 31.75 8.4 31.95 7.8 32.8 7.55 32.6 Q7.1 32.3 6.5 32.25 L7.4 30.0 Q8.1 28.15 8.75 26.9 L9.15 26.7 9.15 27.2 9.15 27.6 9.4 27.75 9.05 28.45 7.85 31.25 8.2 31.5" fill="#7edd4b" fill-rule="evenodd" stroke="none"/>
      <path d="M10.45 28.3 L10.05 28.8 9.65 29.3 9.5 29.55 8.2 31.5 7.85 31.25 9.05 28.45 9.4 27.75 9.55 27.85 9.85 28.0 10.45 28.3" fill="#1e2b3e" fill-rule="evenodd" stroke="none"/>
      <path d="M10.85 28.5 L10.85 29.65 10.85 30.0 10.95 31.4 11.0 31.45 10.2 32.1 9.4 32.75 8.6 31.8 8.55 31.75 8.2 31.5 9.5 29.55 9.65 29.3 10.05 28.8 10.45 28.3 10.85 28.5" fill="#1a1c42" fill-rule="evenodd" stroke="none"/>
      <path d="M8.55 31.75 L8.6 31.8 9.4 32.75 9.6 33.3 9.0 34.65 8.8 35.1 8.45 36.05 8.15 36.8 7.0 37.4 8.05 34.9 8.2 34.45 8.45 33.75 8.4 33.55 8.05 33.05 7.8 32.8 8.4 31.95 8.55 31.75" fill="#74cd4f" fill-rule="evenodd" stroke="none"/>
      <path d="M12.8 35.2 L12.7 36.8 12.7 37.0 12.7 37.3 12.7 37.35 11.9 37.45 10.95 37.6 9.0 38.0 8.05 38.25 7.5 38.4 8.15 36.8 8.45 36.05 8.8 35.1 9.0 34.65 10.4 34.85 10.65 34.9 11.35 35.0 12.0 35.1 12.8 35.2" fill="#121035" fill-rule="evenodd" stroke="none"/>
      <path d="M9.4 32.75 L10.2 32.1 11.0 31.45 12.25 32.3 13.4 33.0 13.2 33.55 13.0 34.2 12.8 35.2 12.0 35.1 11.35 35.0 10.65 34.9 10.4 34.85 9.0 34.65 9.6 33.3 9.4 32.75" fill="#16163c" fill-rule="evenodd" stroke="none"/>
      <path d="M13.65 33.1 L13.55 33.85 13.55 34.15 13.65 35.3 13.95 36.8 14.0 36.9 14.05 37.1 14.1 38.05 13.35 37.65 12.8 37.3 12.7 37.3 12.7 37.0 12.7 36.8 12.8 35.2 13.0 34.2 13.2 33.55 13.4 33.0 13.65 33.1 M37.45 49.55 L37.35 50.0 37.2 50.05 37.0 50.2 36.7 51.05 36.3 52.0 36.0 52.25 35.4 52.75 34.65 53.25 34.6 53.15 33.8 51.8 33.0 50.55 32.95 50.45 35.9 50.0 36.05 50.0 37.45 49.55" fill="#1f2652" fill-rule="evenodd" stroke="none"/>
      <path d="M12.7 37.3 L12.8 37.3 13.35 37.65 14.1 38.05 Q14.25 39.15 14.7 40.35 L14.9 40.8 15.2 41.55 15.25 41.65 15.15 41.65 14.85 41.75 14.8 41.75 13.65 41.9 Q13.0 40.35 12.8 38.55 L12.7 37.35 12.7 37.3" fill="#252757" fill-rule="evenodd" stroke="none"/>
      <path d="M8.15 36.8 L7.5 38.4 7.3 38.95 8.5 39.05 8.9 39.05 9.95 39.2 Q10.55 39.9 10.55 40.9 L10.55 41.1 11.25 41.15 12.4 41.45 11.85 42.8 11.3 42.7 11.25 42.65 9.7 42.6 9.35 42.6 9.2 40.3 8.0 40.15 7.45 40.1 5.6 40.3 5.4 40.35 6.1 39.1 6.2 38.9 7.0 37.4 8.15 36.8" fill="#68db28" fill-rule="evenodd" stroke="none"/>
      <path d="M7.5 38.4 L8.05 38.25 9.0 38.0 10.95 37.6 11.9 37.45 12.7 37.35 12.8 38.55 Q13.0 40.35 13.65 41.9 L13.65 41.95 13.55 41.9 13.05 41.7 12.4 41.45 11.25 41.15 10.55 41.1 10.55 40.9 Q10.55 39.9 9.95 39.2 L8.9 39.05 8.5 39.05 7.3 38.95 7.5 38.4" fill="#130c35" fill-rule="evenodd" stroke="none"/>
      <path d="M11.85 42.8 L12.4 41.45 13.05 41.7 13.55 41.9 13.65 41.95 14.25 42.25 14.25 42.45 14.35 43.3 14.35 43.35 14.3 44.05 14.1 45.5 14.05 45.65 13.95 45.9 13.65 47.0 12.65 49.5 11.85 49.45 12.4 47.85 12.85 46.25 12.95 45.9 13.2 44.45 13.3 43.4 13.05 43.25 11.85 42.8" fill="#2a7635" fill-rule="evenodd" stroke="none"/>
      <path d="M14.0 36.9 L13.95 36.8 13.65 35.3 13.55 34.15 13.55 33.85 13.65 33.1 14.55 33.6 14.5 34.05 14.5 34.2 14.6 35.4 14.6 35.65 14.3 36.15 14.05 36.65 14.0 36.8 14.0 36.9" fill="#3e3339" fill-rule="evenodd" stroke="none"/>
      <path d="M14.05 37.1 L14.0 36.9 14.0 36.8 14.05 36.65 14.3 36.15 14.6 35.65 14.8 36.65 15.35 38.2 15.25 38.55 15.1 39.55 14.45 38.2 14.05 37.1" fill="#614b40" fill-rule="evenodd" stroke="none"/>
      <path d="M15.35 38.2 L15.55 38.6 16.15 39.65 16.6 40.2 17.8 41.45 18.55 42.0 19.35 42.55 19.9 42.9 20.3 43.1 19.85 44.0 19.65 44.2 18.75 43.7 18.65 43.6 Q17.5 42.8 16.45 41.5 L15.75 40.6 15.7 40.5 15.1 39.55 15.25 38.55 15.35 38.2" fill="#ac782f" fill-rule="evenodd" stroke="none"/>
      <path d="M14.1 38.05 L14.05 37.1 14.45 38.2 15.1 39.55 15.7 40.5 15.6 40.7 15.5 40.9 15.35 41.25 15.2 41.55 14.9 40.8 14.7 40.35 Q14.25 39.15 14.1 38.05" fill="#1c1b2b" fill-rule="evenodd" stroke="none"/>
      <path d="M15.7 40.5 L15.75 40.6 16.45 41.5 Q17.5 42.8 18.65 43.6 L18.45 43.9 18.05 44.55 17.75 44.9 17.55 44.7 17.45 44.6 16.4 43.4 15.25 41.65 15.2 41.55 15.35 41.25 15.5 40.9 15.6 40.7 15.7 40.5" fill="#2a2345" fill-rule="evenodd" stroke="none"/>
      <path d="M13.65 41.95 L13.65 41.9 14.8 41.75 14.85 41.75 15.15 41.65 15.25 41.65 16.4 43.4 17.45 44.6 17.55 44.7 17.5 45.25 17.45 46.0 17.45 46.35 17.1 46.15 16.9 46.0 16.1 45.35 15.75 45.05 15.1 44.3 14.8 43.9 14.55 43.55 14.35 43.3 14.25 42.45 14.25 42.25 13.65 41.95" fill="#262d57" fill-rule="evenodd" stroke="none"/>
      <path d="M15.1 44.3 L15.75 45.05 16.1 45.35 16.9 46.0 17.1 46.15 17.45 46.35 17.95 46.7 17.95 46.8 17.75 47.3 17.55 48.1 15.9 47.8 15.35 47.8 15.1 47.8 15.05 47.05 15.05 46.35 15.1 45.2 15.1 44.6 15.1 44.3" fill="#19204c" fill-rule="evenodd" stroke="none"/>
      <path d="M17.55 44.7 L17.75 44.9 Q18.7 45.75 20.3 46.7 L21.2 47.25 21.7 47.55 21.85 47.65 22.35 47.95 22.2 48.35 22.05 48.8 20.75 48.2 19.95 47.8 19.35 47.45 17.95 46.7 17.45 46.35 17.45 46.0 17.5 45.25 17.55 44.7" fill="#282e5e" fill-rule="evenodd" stroke="none"/>
      <path d="M18.65 43.6 L18.75 43.7 19.65 44.2 19.65 44.25 19.8 44.45 20.2 45.0 21.2 46.25 21.8 46.95 22.05 47.25 21.7 47.55 21.2 47.25 20.3 46.7 Q18.7 45.75 17.75 44.9 L18.05 44.55 18.45 43.9 18.65 43.6" fill="#24234b" fill-rule="evenodd" stroke="none"/>
      <path d="M21.2 46.25 L20.2 45.0 19.8 44.45 19.65 44.25 Q21.05 45.0 22.6 45.2 L22.7 45.2 22.8 45.2 23.55 46.2 23.6 46.25 23.3 46.3 23.25 46.3 22.85 46.35 22.5 46.35 21.2 46.25" fill="#303765" fill-rule="evenodd" stroke="none"/>
      <path d="M19.65 44.2 L19.85 44.0 20.3 43.1 21.95 43.75 22.85 44.0 22.7 44.9 22.65 45.0 22.6 45.2 Q21.05 45.0 19.65 44.25 L19.65 44.2" fill="#84592f" fill-rule="evenodd" stroke="none"/>
      <path d="M22.8 45.2 L22.7 45.2 22.6 45.2 22.65 45.0 22.7 44.9 22.85 44.0 23.5 44.15 25.7 44.45 26.95 44.5 27.1 44.5 27.2 44.65 26.9 44.7 25.85 44.9 25.75 44.9 23.55 45.2 22.8 45.2" fill="#4d3d3e" fill-rule="evenodd" stroke="none"/>
      <path d="M23.6 46.25 L23.55 46.2 22.8 45.2 23.55 45.2 25.75 44.9 25.85 46.3 26.05 47.4 26.25 47.65 26.5 47.95 26.75 48.2 26.85 48.35 26.7 48.7 26.55 49.25 25.5 48.35 24.95 47.8 24.2 47.0 24.0 46.7 23.6 46.25" fill="#1b2751" fill-rule="evenodd" stroke="none"/>
      <path d="M25.75 44.9 L25.85 44.9 26.9 44.7 27.2 44.65 27.5 45.15 27.75 45.6 27.85 45.75 27.95 45.9 29.75 46.45 27.8 48.45 27.65 48.55 27.3 48.85 26.85 48.35 26.75 48.2 26.5 47.95 26.25 47.65 26.05 47.4 25.85 46.3 25.75 44.9 M27.95 45.9 L27.8 45.85 27.75 45.6 27.8 45.85 27.95 45.9" fill="#283277" fill-rule="evenodd" stroke="none"/>
      <path d="M26.55 49.25 L26.7 48.7 26.85 48.35 27.3 48.85 27.65 49.2 28.95 50.45 28.95 50.5 29.3 50.8 30.6 51.8 28.9 51.7 28.2 50.85 28.15 50.75 27.4 49.85 27.3 49.75 27.1 49.65 26.55 49.25" fill="#1b2153" fill-rule="evenodd" stroke="none"/>
      <path d="M30.7 53.95 L28.45 53.95 26.35 51.85 25.85 51.5 25.8 51.45 25.2 51.05 25.35 49.5 25.5 48.35 26.55 49.25 27.1 49.65 27.3 49.75 27.4 49.85 28.15 50.75 28.2 50.85 28.9 51.7 29.55 52.5 30.7 53.95" fill="#2b386d" fill-rule="evenodd" stroke="none"/>
      <path d="M29.75 46.45 L29.95 46.45 30.25 46.5 34.5 46.75 35.1 46.75 35.2 48.25 34.95 48.25 32.3 48.4 30.55 48.25 31.75 49.35 31.35 49.55 30.65 50.0 29.3 50.8 28.95 50.5 28.95 50.45 27.65 49.2 27.3 48.85 27.65 48.55 27.8 48.45 29.75 46.45" fill="#2e407e" fill-rule="evenodd" stroke="none"/>
      <path d="M21.2 46.25 L22.5 46.35 22.85 46.35 23.25 46.3 23.3 46.3 23.6 46.25 24.0 46.7 24.2 47.0 24.95 47.8 25.5 48.35 25.35 49.5 25.2 51.05 24.3 50.4 24.15 50.35 24.0 50.35 23.5 50.4 22.9 50.3 21.85 49.3 21.65 49.15 20.75 48.2 22.05 48.8 22.2 48.35 22.35 47.95 21.85 47.65 21.7 47.55 22.05 47.25 21.8 46.95 21.2 46.25" fill="#27386e" fill-rule="evenodd" stroke="none"/>
      <path d="M17.55 48.1 L17.75 47.3 17.95 46.8 17.95 46.7 19.35 47.45 19.95 47.8 20.75 48.2 21.65 49.15 21.85 49.3 20.1 48.75 19.75 48.65 18.7 48.35 17.55 48.1" fill="#1e264b" fill-rule="evenodd" stroke="none"/>
      <path d="M28.45 53.95 L27.8 53.95 26.05 53.15 25.35 52.8 24.95 52.65 23.65 52.15 20.95 51.15 20.1 48.75 21.85 49.3 22.9 50.3 23.5 50.4 24.0 50.35 24.15 50.35 24.3 50.4 25.2 51.05 25.8 51.45 25.85 51.5 26.35 51.85 28.45 53.95" fill="#171848" fill-rule="evenodd" stroke="none"/>
      <path d="M15.9 47.8 L17.55 48.1 18.7 48.35 19.75 48.65 20.1 48.75 20.95 51.15 Q18.05 50.25 15.4 49.8 L15.3 49.8 15.4 49.65 15.45 49.45 15.9 47.8" fill="#1a154d" fill-rule="evenodd" stroke="none"/>
      <path d="M37.35 50.0 Q37.8 49.75 38.3 49.75 38.85 49.75 39.2 50.35 L38.5 51.2 37.1 52.6 37.15 52.45 37.15 52.3 37.0 52.4 36.7 52.25 36.45 51.8 36.3 52.0 36.7 51.05 37.0 50.2 37.2 50.05 37.35 50.0" fill="#374d99" fill-rule="evenodd" stroke="none"/>
      <path d="M31.75 49.35 L30.55 48.25 32.3 48.4 34.95 48.25 35.15 48.45 35.4 48.45 36.85 48.0 37.85 47.7 37.65 48.9 37.45 49.55 36.05 50.0 35.9 50.0 32.95 50.45 32.85 50.25 32.2 49.75 31.75 49.35" fill="#232450" fill-rule="evenodd" stroke="none"/>
      <path d="M41.4 48.3 L40.85 49.8 40.8 49.95 40.2 51.7 40.0 51.05 39.85 50.65 39.5 49.9 39.75 49.45 39.75 49.35 40.3 47.6 41.4 48.3" fill="#1b1f4e" fill-rule="evenodd" stroke="none"/>
      <path d="M37.55 53.95 L37.05 53.95 37.0 53.7 37.1 52.6 38.5 51.2 39.2 50.35 39.5 49.9 39.85 50.65 40.0 51.05 40.2 51.7 39.6 53.55 39.1 53.65 38.0 53.85 37.55 53.95" fill="#1d1e4c" fill-rule="evenodd" stroke="none"/>
      <path d="M37.05 53.95 L35.05 53.95 34.65 53.25 35.4 52.75 36.0 52.25 36.3 52.0 36.45 51.8 36.7 52.25 37.0 52.4 37.15 52.3 37.15 52.45 37.1 52.6 37.0 53.7 37.05 53.95" fill="#29386f" fill-rule="evenodd" stroke="none"/>
      <path d="M29.3 50.8 L30.65 50.0 31.35 49.55 31.75 49.35 32.2 49.75 32.85 50.25 32.95 50.45 33.0 50.55 31.3 51.9 31.1 52.05 30.95 51.95 30.6 51.8 29.3 50.8" fill="#2b3b6e" fill-rule="evenodd" stroke="none"/>
      <path d="M34.1 53.95 L32.2 53.95 31.0 52.1 31.1 52.05 31.3 51.9 33.0 50.55 33.8 51.8 34.6 53.15 34.65 53.25 34.55 53.3 34.3 53.4 34.1 53.95" fill="#374e9a" fill-rule="evenodd" stroke="none"/>
      <path d="M32.2 53.95 L30.7 53.95 29.55 52.5 28.9 51.7 30.6 51.8 30.95 51.95 31.1 52.05 31.0 52.1 32.2 53.95" fill="#161f56" fill-rule="evenodd" stroke="none"/>
      <path d="M35.05 53.95 L34.1 53.95 34.3 53.4 34.55 53.3 34.65 53.25 35.05 53.95" fill="#374b88" fill-rule="evenodd" stroke="none"/>
      <path d="M0.0 0.1 L0.0 0.0 0.15 0.0 0.0 0.1" fill="#3cff0f" fill-rule="evenodd" stroke="none"/>
      <path d="M10.65 0.0 L10.3 0.55 8.95 0.95 8.55 1.05 8.8 0.0 10.65 0.0" fill="#3fff00" fill-rule="evenodd" stroke="none"/>
      <path d="M8.55 1.05 L6.5 1.6 6.45 1.65 6.5 0.75 6.45 0.0 8.8 0.0 8.55 1.05" fill="#33fc0d" fill-rule="evenodd" stroke="none"/>
      <path d="M24.5 6.3 L28.75 6.05 34.35 6.4 34.6 6.55 35.0 6.85 35.55 7.25 35.15 7.3 34.35 7.35 29.95 7.85 28.4 7.35 Q26.4 6.65 24.5 6.3" fill="#003c4e" fill-rule="evenodd" stroke="none"/>
      <path d="M13.95 7.55 L14.75 7.45 14.6 6.05 14.5 4.9 14.55 3.9 15.55 5.0 15.95 6.1 16.7 7.85 17.1 8.45 16.75 8.45 16.6 8.45 14.85 8.35 14.4 8.35 14.3 8.35 14.2 8.1 13.95 7.55" fill="#23820a" fill-rule="evenodd" stroke="none"/>
      <path d="M15.55 5.0 L17.75 6.75 18.4 7.2 18.35 8.2 18.35 8.75 Q17.45 8.15 16.7 7.85 L15.95 6.1 15.55 5.0" fill="#132031" fill-rule="evenodd" stroke="none"/>
      <path d="M18.75 7.4 Q20.55 6.75 23.2 6.4 L24.5 6.3 Q26.4 6.65 28.4 7.35 L27.75 8.65 27.35 9.55 27.2 9.55 26.4 9.25 Q25.15 8.85 23.75 8.55 L19.6 8.0 18.75 7.4" fill="#0a2844" fill-rule="evenodd" stroke="none"/>
      <path d="M38.0 8.2 L39.15 9.2 39.95 9.95 39.75 10.7 39.15 10.15 38.2 9.3 35.55 7.25 35.0 6.85 34.6 6.55 34.35 6.4 34.95 6.5 35.9 6.7 36.65 7.2 37.9 8.1 38.0 8.2" fill="#0f8d29" fill-rule="evenodd" stroke="none"/>
      <path d="M40.25 10.2 L41.1 10.4 41.85 10.6 44.5 11.05 45.65 11.15 46.85 11.2 49.1 11.05 48.9 12.1 48.85 12.35 47.45 12.4 46.75 12.4 45.65 12.4 41.95 12.0 40.25 10.2" fill="#2fbc0b" fill-rule="evenodd" stroke="none"/>
      <path d="M47.45 12.4 L48.85 12.35 47.85 14.15 48.65 15.45 49.75 16.55 48.45 17.4 48.35 17.45 47.65 17.85 47.4 17.1 47.35 17.05 47.45 16.75 47.5 16.65 47.65 16.3 46.75 15.15 46.2 14.4 46.65 13.6 47.45 12.4" fill="#30c31a" fill-rule="evenodd" stroke="none"/>
      <path d="M45.65 12.4 L46.75 12.4 47.45 12.4 46.65 13.6 46.2 14.4 46.75 15.15 47.65 16.3 47.5 16.65 47.45 16.75 47.35 17.05 45.95 16.3 45.9 15.95 45.85 15.55 45.65 12.4" fill="#137a21" fill-rule="evenodd" stroke="none"/>
      <path d="M41.95 12.0 L45.65 12.4 45.85 15.55 45.9 15.95 45.95 16.3 44.65 15.6 43.8 14.35 43.7 14.2 42.95 13.2 41.95 12.0" fill="#175b20" fill-rule="evenodd" stroke="none"/>
      <path d="M47.35 17.05 L47.4 17.1 47.65 17.85 47.7 18.1 47.7 18.2 47.9 19.3 47.65 19.2 46.45 18.9 46.25 18.85 46.35 18.05 46.35 18.0 44.85 17.25 44.55 17.1 42.05 15.8 42.15 15.4 42.2 15.35 42.45 14.55 43.45 15.0 44.65 15.6 45.95 16.3 47.35 17.05" fill="#38b01b" fill-rule="evenodd" stroke="none"/>
      <path d="M46.45 18.9 L47.65 19.2 47.9 19.3 48.05 19.3 48.55 19.45 49.2 21.9 49.2 22.2 49.3 23.25 49.2 23.25 48.7 23.25 47.95 23.2 47.9 23.05 47.55 21.55 47.3 20.65 46.0 20.2 46.45 18.9" fill="#29df00" fill-rule="evenodd" stroke="none"/>
      <path d="M44.55 17.1 L44.85 17.25 46.35 18.0 46.35 18.05 46.25 18.85 44.95 18.55 43.0 18.2 42.1 18.0 40.75 17.8 38.85 17.5 38.5 15.85 40.95 16.25 44.55 17.1" fill="#014536" fill-rule="evenodd" stroke="none"/>
      <path d="M44.65 22.7 L44.95 19.85 46.0 20.2 47.3 20.65 47.55 21.55 47.25 23.5 47.15 23.95 47.0 24.6 46.9 24.95 46.5 26.55 46.15 27.65 43.9 26.25 44.55 23.5 44.6 23.15 44.65 22.7" fill="#178072" fill-rule="evenodd" stroke="none"/>
      <path d="M47.55 21.55 L47.9 23.05 47.95 23.2 48.15 24.3 48.25 25.3 48.4 26.65 48.45 28.8 48.4 29.3 47.7 28.7 47.4 24.8 47.35 24.55 47.3 24.0 47.25 23.5 47.55 21.55" fill="#086550" fill-rule="evenodd" stroke="none"/>
      <path d="M46.5 26.55 L46.9 24.95 47.0 24.6 47.15 23.95 47.25 23.5 47.3 24.0 47.35 24.55 47.4 24.8 47.7 28.7 46.75 28.05 46.55 26.7 46.5 26.55" fill="#01544c" fill-rule="evenodd" stroke="none"/>
      <path d="M47.95 23.2 L48.7 23.25 49.2 23.25 49.3 23.25 49.4 24.55 49.4 26.0 49.4 26.1 49.4 27.2 48.85 26.9 48.4 26.65 48.25 25.3 48.15 24.3 47.95 23.2" fill="#24c913" fill-rule="evenodd" stroke="none"/>
      <path d="M41.85 10.6 L41.1 10.4 40.25 10.2 39.95 9.95 39.15 9.2 38.0 8.2 38.65 8.15 39.65 8.1 40.4 8.45 41.2 8.85 40.3 9.1 40.85 9.7 41.85 10.6" fill="#013e2f" fill-rule="evenodd" stroke="none"/>
      <path d="M41.85 10.6 L40.85 9.7 40.3 9.1 41.2 8.85 41.75 9.1 Q43.45 10.05 44.5 11.05 L41.85 10.6" fill="#0b622d" fill-rule="evenodd" stroke="none"/>
      <path d="M38.2 9.3 L39.15 10.15 39.75 10.7 42.35 13.55 38.65 11.65 38.35 10.2 38.2 9.3" fill="#003a48" fill-rule="evenodd" stroke="none"/>
      <path d="M35.95 10.4 L35.15 7.3 35.55 7.25 38.2 9.3 38.35 10.2 38.65 11.65 35.95 10.4" fill="#025656" fill-rule="evenodd" stroke="none"/>
      <path d="M39.95 9.95 L40.25 10.2 41.95 12.0 42.95 13.2 43.7 14.2 43.8 14.35 44.65 15.6 43.45 15.0 43.1 14.5 42.35 13.55 39.75 10.7 39.95 9.95" fill="#21b529" fill-rule="evenodd" stroke="none"/>
      <path d="M42.45 14.55 L42.2 15.35 42.15 15.4 42.05 15.8 40.6 15.05 37.7 13.45 37.4 13.3 36.6 12.8 34.1 11.55 33.2 11.15 32.4 10.8 32.05 10.65 32.35 10.75 34.1 11.3 36.4 12.05 37.65 12.5 39.7 13.3 42.45 14.55" fill="#39ae29" fill-rule="evenodd" stroke="none"/>
      <path d="M42.35 13.55 L43.1 14.5 43.45 15.0 42.45 14.55 39.7 13.3 37.65 12.5 36.4 12.05 34.1 11.3 34.15 10.55 34.25 9.65 35.95 10.4 38.65 11.65 42.35 13.55" fill="#042743" fill-rule="evenodd" stroke="none"/>
      <path d="M32.4 10.8 L33.2 11.15 34.1 11.55 36.6 12.8 37.4 13.3 37.7 13.45 37.8 14.5 37.85 15.75 34.75 15.45 34.1 13.9 34.0 13.7 33.95 13.55 Q33.3 12.05 32.65 11.2 L32.4 10.8" fill="#03515b" fill-rule="evenodd" stroke="none"/>
      <path d="M37.7 13.45 L40.6 15.05 42.05 15.8 44.55 17.1 40.95 16.25 38.5 15.85 37.85 15.75 37.8 14.5 37.7 13.45" fill="#004855" fill-rule="evenodd" stroke="none"/>
      <path d="M46.25 18.85 L46.45 18.9 46.0 20.2 44.95 19.85 42.85 19.1 40.75 18.3 38.3 17.45 37.75 19.35 37.15 21.2 36.5 22.8 33.0 21.65 33.2 20.4 33.4 18.85 33.75 17.0 34.05 17.0 35.2 16.95 34.1 16.85 33.8 16.8 30.6 16.55 30.3 16.55 30.55 15.25 34.75 15.45 37.85 15.75 38.5 15.85 38.85 17.5 40.75 17.8 42.1 18.0 43.0 18.2 44.95 18.55 46.25 18.85 M38.85 17.5 L38.3 17.4 38.1 17.35 38.0 17.35 37.9 17.35 35.65 17.0 35.4 16.95 35.2 16.95 35.4 16.95 35.65 17.0 37.9 17.35 38.0 17.35 38.1 17.35 38.3 17.4 38.85 17.5" fill="#093848" fill-rule="evenodd" stroke="none"/>
      <path d="M34.1 11.3 L32.35 10.75 32.05 10.65 28.95 9.9 27.35 9.55 27.75 8.65 28.4 7.35 29.95 7.85 33.1 9.1 34.25 9.65 34.15 10.55 34.1 11.3" fill="#00364e" fill-rule="evenodd" stroke="none"/>
      <path d="M29.95 7.85 L34.35 7.35 35.15 7.3 35.95 10.4 34.25 9.65 33.1 9.1 29.95 7.85" fill="#004c58" fill-rule="evenodd" stroke="none"/>
      <path d="M32.05 10.65 L32.4 10.8 32.65 11.2 Q33.3 12.05 33.95 13.55 L34.0 13.7 34.1 13.9 34.75 15.45 30.55 15.25 28.85 15.25 28.2 15.25 28.1 15.05 27.35 13.3 26.6 10.85 26.5 10.1 27.15 10.0 28.95 9.9 32.05 10.65" fill="#09616f" fill-rule="evenodd" stroke="none"/>
      <path d="M28.2 15.25 L28.85 15.25 30.55 15.25 30.3 16.55 28.9 16.5 28.8 16.5 27.0 16.55 24.0 16.7 22.15 16.9 22.15 15.65 28.2 15.25" fill="#003257" fill-rule="evenodd" stroke="none"/>
      <path d="M26.8 17.5 L26.1 17.55 23.85 17.8 22.1 18.05 22.05 18.05 21.6 18.1 21.25 17.25 21.2 17.05 22.05 16.9 22.15 16.9 24.0 16.7 27.0 16.55 28.8 16.5 28.9 16.5 30.3 16.55 30.6 16.55 33.8 16.8 34.1 16.85 35.2 16.95 34.05 17.0 33.75 17.0 30.5 17.2 30.2 17.2 29.4 17.3 26.8 17.5" fill="#1b9a2f" fill-rule="evenodd" stroke="none"/>
      <path d="M30.5 17.2 L33.75 17.0 33.4 18.85 33.2 20.4 33.0 21.65 32.95 21.6 30.2 20.9 30.25 19.9 30.35 18.3 30.5 17.2" fill="#0c807f" fill-rule="evenodd" stroke="none"/>
      <path d="M26.8 17.5 L29.4 17.3 30.2 17.2 30.5 17.2 30.35 18.3 30.25 19.9 30.2 20.9 26.65 20.2 26.65 19.45 26.65 19.4 Q26.65 18.35 26.8 17.5" fill="#056d6e" fill-rule="evenodd" stroke="none"/>
      <path d="M40.1 24.3 L40.3 24.4 41.55 25.0 41.2 25.85 40.1 25.45 39.9 25.35 39.15 25.1 36.3 24.2 35.85 24.1 32.9 23.25 32.55 23.2 32.95 21.6 33.0 21.65 36.5 22.8 Q38.3 23.5 40.1 24.3" fill="#004753" fill-rule="evenodd" stroke="none"/>
      <path d="M25.55 20.0 L26.65 20.2 30.2 20.9 32.95 21.6 32.55 23.2 32.5 23.15 30.3 22.6 28.85 22.25 26.85 21.85 25.35 21.55 25.4 20.95 25.55 20.0" fill="#024d60" fill-rule="evenodd" stroke="none"/>
      <path d="M28.2 25.15 L29.5 25.45 31.9 25.95 31.85 26.3 31.8 26.6 31.75 26.75 31.65 28.25 Q32.8 29.15 33.95 31.2 L34.05 31.4 34.25 31.8 34.75 32.8 33.75 32.75 33.4 32.75 33.4 32.7 32.55 31.55 32.35 31.3 30.8 29.9 30.2 29.5 29.9 29.35 Q28.75 28.75 27.5 28.55 L27.9 26.7 28.05 25.95 28.1 25.7 28.2 25.15" fill="#1e9383" fill-rule="evenodd" stroke="none"/>
      <path d="M28.85 22.25 L30.3 22.6 32.5 23.15 32.1 24.8 32.0 25.3 31.9 25.95 29.5 25.45 28.2 25.15 28.4 24.3 28.6 23.3 28.85 22.25" fill="#077268" fill-rule="evenodd" stroke="none"/>
      <path d="M32.5 23.15 L32.55 23.2 32.9 23.25 35.85 24.1 36.3 24.2 35.35 26.9 35.25 27.25 34.1 31.3 34.05 31.4 33.95 31.2 Q32.8 29.15 31.65 28.25 L31.75 26.75 31.8 26.6 31.85 26.3 31.9 25.95 32.0 25.3 32.1 24.8 32.5 23.15" fill="#139f94" fill-rule="evenodd" stroke="none"/>
      <path d="M42.7 21.55 L42.8 19.9 42.85 19.1 44.95 19.85 44.65 22.7 44.3 22.55 42.7 21.55" fill="#04554e" fill-rule="evenodd" stroke="none"/>
      <path d="M42.85 19.1 L42.8 19.9 42.7 21.55 42.65 22.5 42.65 22.55 42.6 22.85 42.1 25.3 41.55 25.0 40.3 24.4 40.1 24.3 40.35 22.1 40.4 21.95 40.4 21.8 40.75 18.3 42.85 19.1" fill="#157574" fill-rule="evenodd" stroke="none"/>
      <path d="M40.75 18.3 L40.4 21.8 40.4 21.95 40.35 22.1 40.1 24.3 Q38.3 23.5 36.5 22.8 L37.15 21.2 37.75 19.35 38.3 17.45 40.75 18.3" fill="#09686c" fill-rule="evenodd" stroke="none"/>
      <path d="M41.2 25.85 L41.85 26.1 43.05 26.55 42.55 28.55 42.45 28.85 42.35 29.2 41.4 31.75 40.9 32.85 40.5 32.9 39.75 32.9 38.7 32.9 37.8 32.9 37.3 32.9 37.5 32.3 38.3 30.05 39.05 28.05 39.15 27.75 39.75 26.15 40.1 25.45 41.2 25.85" fill="#0d7b78" fill-rule="evenodd" stroke="none"/>
      <path d="M40.1 25.45 L39.75 26.15 39.15 27.75 39.05 28.05 38.3 30.05 37.5 32.3 37.3 32.9 36.0 32.85 35.2 32.85 34.75 32.8 34.25 31.8 34.05 31.4 34.1 31.3 35.25 27.25 35.35 26.9 36.3 24.2 39.15 25.1 39.9 25.35 40.1 25.45" fill="#11998f" fill-rule="evenodd" stroke="none"/>
      <path d="M42.7 21.55 L44.3 22.55 44.65 22.7 44.6 23.15 44.55 23.5 43.9 26.25 42.1 25.3 42.6 22.85 42.65 22.55 42.65 22.5 42.7 21.55" fill="#00595d" fill-rule="evenodd" stroke="none"/>
      <path d="M41.55 25.0 L42.1 25.3 43.9 26.25 46.15 27.65 46.75 28.05 47.7 28.7 48.4 29.3 48.4 29.7 47.65 29.2 47.3 28.9 46.75 28.55 46.55 28.4 46.0 28.05 44.65 27.3 43.65 26.85 43.05 26.55 41.85 26.1 41.2 25.85 41.55 25.0" fill="#033b4a" fill-rule="evenodd" stroke="none"/>
      <path d="M43.05 26.55 L43.65 26.85 44.65 27.3 44.05 29.0 44.0 29.15 44.0 29.2 43.2 31.0 43.05 31.25 Q42.35 31.6 41.75 32.1 L40.95 32.85 40.9 32.85 41.4 31.75 42.35 29.2 42.45 28.85 42.55 28.55 43.05 26.55" fill="#0f6562" fill-rule="evenodd" stroke="none"/>
      <path d="M47.3 28.9 L47.0 29.7 46.95 29.85 46.95 29.9 46.9 29.95 46.55 30.9 45.45 30.75 45.35 30.75 Q44.15 30.75 43.05 31.25 L43.2 31.0 44.0 29.2 44.0 29.15 44.05 29.0 44.65 27.3 46.0 28.05 46.55 28.4 46.75 28.55 47.3 28.9" fill="#1c5b52" fill-rule="evenodd" stroke="none"/>
      <path d="M37.8 32.9 L38.7 32.9 39.75 32.9 40.5 32.9 40.9 32.85 40.95 32.85 41.75 32.85 42.1 32.8 42.0 33.35 41.95 33.5 41.95 33.85 41.75 33.85 41.7 33.85 41.45 33.9 40.4 33.95 40.3 33.95 40.25 33.95 39.85 33.95 39.0 33.95 37.8 33.95 37.8 33.45 37.8 32.9" fill="#809d4d" fill-rule="evenodd" stroke="none"/>
      <path d="M37.3 32.9 L37.8 32.9 37.8 33.45 37.8 33.95 36.95 33.9 35.75 33.85 35.45 33.85 35.15 33.8 34.75 33.8 34.0 33.75 33.5 33.7 33.0 33.65 32.65 33.65 32.35 33.6 32.3 33.1 32.35 32.65 33.4 32.75 33.75 32.75 34.75 32.8 35.2 32.85 36.0 32.85 37.3 32.9" fill="#a4a645" fill-rule="evenodd" stroke="none"/>
      <path d="M46.55 30.9 L47.5 31.35 47.55 31.4 47.75 31.55 48.25 32.2 47.7 32.3 46.75 32.4 46.35 32.05 46.1 31.9 45.55 31.8 45.35 31.85 Q44.7 31.85 44.1 32.3 L43.95 32.4 43.55 32.75 42.35 32.8 42.3 32.8 42.1 32.8 41.75 32.85 40.95 32.85 41.75 32.1 Q42.35 31.6 43.05 31.25 44.15 30.75 45.35 30.75 L45.45 30.75 46.55 30.9" fill="#4a6f44" fill-rule="evenodd" stroke="none"/>
      <path d="M43.55 32.75 L43.95 32.4 44.1 32.3 Q44.7 31.85 45.35 31.85 L45.55 31.8 46.1 31.9 46.35 32.05 46.75 32.4 46.65 32.4 45.75 32.55 45.3 32.55 43.55 32.75" fill="#587c4e" fill-rule="evenodd" stroke="none"/>
      <path d="M46.8 33.1 L45.25 33.4 45.2 33.45 43.05 33.75 42.3 33.8 42.0 33.85 41.95 33.85 41.95 33.5 42.0 33.35 42.1 32.8 42.3 32.8 42.35 32.8 43.55 32.75 45.3 32.55 45.75 32.55 46.65 32.4 46.75 32.85 46.8 33.1" fill="#f8da18" fill-rule="evenodd" stroke="none"/>
      <path d="M27.5 28.55 Q28.75 28.75 29.9 29.35 L30.2 29.5 30.8 29.9 32.35 31.3 32.55 31.55 33.4 32.7 33.4 32.75 32.35 32.65 29.7 32.4 29.5 32.25 29.4 32.15 28.15 31.35 26.8 30.8 26.85 30.8 27.25 29.45 27.45 28.65 27.5 28.55" fill="#64a374" fill-rule="evenodd" stroke="none"/>
      <path d="M26.1 32.65 L26.25 32.0 26.25 31.95 26.4 31.95 27.5 32.15 29.7 32.4 32.35 32.65 32.3 33.1 32.35 33.6 31.8 33.55 30.65 33.4 27.05 32.85 26.9 32.8 26.1 32.65" fill="#ffde21" fill-rule="evenodd" stroke="none"/>
      <path d="M26.8 30.8 L28.15 31.35 29.4 32.15 29.5 32.25 29.7 32.4 27.5 32.15 26.4 31.95 26.6 31.4 26.75 30.9 26.8 30.8" fill="#9fa948" fill-rule="evenodd" stroke="none"/>
      <path d="M49.4 27.45 L49.35 28.7 49.3 29.25 49.2 29.95 49.2 30.2 49.0 30.1 48.75 29.9 48.4 29.7 48.4 29.3 48.45 28.8 48.4 26.65 48.85 26.9 49.4 27.2 49.4 27.45" fill="#23b804" fill-rule="evenodd" stroke="none"/>
      <path d="M48.4 32.15 L48.45 31.65 48.65 30.4 48.75 29.9 49.0 30.1 49.2 30.2 49.95 30.75 50.1 30.85 50.15 30.85 49.9 31.85 49.1 32.05 48.85 32.1 48.65 32.1 48.45 32.15 48.4 32.15" fill="#329a2b" fill-rule="evenodd" stroke="none"/>
      <path d="M46.5 26.55 L46.55 26.7 46.75 28.05 46.15 27.65 46.5 26.55" fill="#023643" fill-rule="evenodd" stroke="none"/>
      <path d="M47.3 28.9 L47.65 29.2 48.4 29.7 48.75 29.9 48.65 30.4 48.45 31.65 48.4 32.15 48.25 32.2 47.75 31.55 47.55 31.4 47.5 31.35 46.55 30.9 46.9 29.95 46.95 29.9 46.95 29.85 47.0 29.7 47.3 28.9" fill="#205648" fill-rule="evenodd" stroke="none"/>
      <path d="M49.55 32.25 L48.75 32.55 48.6 32.55 48.4 32.65 48.3 32.65 47.8 32.8 47.15 33.0 47.1 33.0 47.0 33.0 46.9 33.05 46.8 33.1 46.75 32.85 46.65 32.4 46.75 32.4 47.7 32.3 48.25 32.2 48.4 32.15 48.45 32.15 48.65 32.1 48.85 32.1 49.1 32.05 49.9 31.85 49.8 32.15 49.55 32.25" fill="#ab951e" fill-rule="evenodd" stroke="none"/>
      <path d="M23.15 9.75 L26.4 9.55 26.75 9.55 27.2 9.55 27.35 9.55 28.95 9.9 27.15 10.0 26.5 10.1 22.85 10.5 20.8 10.75 19.2 11.0 18.3 11.2 17.65 11.3 17.65 11.2 17.6 10.6 17.55 10.55 17.6 10.55 18.3 10.4 20.1 10.1 23.05 9.75 23.15 9.75" fill="#17842b" fill-rule="evenodd" stroke="none"/>
      <path d="M23.15 9.75 L23.05 9.7 20.35 8.4 19.6 8.0 23.75 8.55 Q25.15 8.85 26.4 9.25 L27.2 9.55 26.75 9.55 26.4 9.55 23.15 9.75" fill="#083145" fill-rule="evenodd" stroke="none"/>
      <path d="M22.1 15.65 L22.35 13.4 22.55 11.85 22.85 10.5 26.5 10.1 26.6 10.85 27.35 13.3 28.1 15.05 28.2 15.25 22.15 15.65 22.1 15.65" fill="#044354" fill-rule="evenodd" stroke="none"/>
      <path d="M18.4 7.2 L18.75 7.4 19.6 8.0 20.35 8.4 23.05 9.7 23.15 9.75 23.05 9.75 20.1 10.1 18.95 9.2 18.85 9.1 18.35 8.75 18.35 8.2 18.4 7.2" fill="#1c1e33" fill-rule="evenodd" stroke="none"/>
      <path d="M17.65 11.3 L18.3 11.2 19.2 11.0 20.8 10.75 22.85 10.5 22.55 11.85 22.35 13.4 22.1 15.65 18.2 16.3 15.95 16.8 16.2 15.35 17.1 11.7 17.25 11.4 17.65 11.3" fill="#003e47" fill-rule="evenodd" stroke="none"/>
      <path d="M15.95 16.8 L18.2 16.3 22.1 15.65 22.15 15.65 22.15 16.9 22.05 16.9 21.2 17.05 20.5 17.15 18.85 17.45 18.5 17.5 18.25 17.55 18.3 17.45 17.15 17.8 17.1 17.8 16.8 17.85 16.35 17.95 15.85 17.65 15.95 16.8" fill="#033244" fill-rule="evenodd" stroke="none"/>
      <path d="M18.35 8.75 L18.85 9.1 18.95 9.2 20.1 10.1 18.3 10.4 18.3 9.35 18.35 8.75" fill="#1c1f30" fill-rule="evenodd" stroke="none"/>
      <path d="M16.7 7.85 Q17.45 8.15 18.35 8.75 L18.3 9.35 18.3 10.4 17.6 10.55 17.55 10.55 17.35 10.6 17.1 9.95 17.05 9.9 16.6 8.45 16.75 8.45 17.1 8.45 16.7 7.85" fill="#243551" fill-rule="evenodd" stroke="none"/>
      <path d="M10.4 16.2 L9.9 15.35 10.1 14.3 10.2 14.05 10.85 12.0 11.95 11.75 12.1 11.7 13.2 11.45 13.25 11.45 14.25 11.2 14.5 11.15 15.9 10.85 17.35 10.6 17.55 10.55 17.6 10.6 17.65 11.2 17.65 11.3 17.25 11.4 14.55 11.85 14.0 11.95 13.9 12.4 13.8 12.85 13.2 16.2 14.9 17.1 15.85 17.65 16.35 17.95 16.1 18.0 15.8 18.1 14.3 18.5 Q13.95 18.1 13.4 17.75 L13.1 17.55 12.55 17.2 11.6 16.65 Q10.85 16.25 10.4 16.2" fill="#27b50b" fill-rule="evenodd" stroke="none"/>
      <path d="M14.4 8.35 L14.85 8.35 16.6 8.45 17.05 9.9 17.1 9.95 17.35 10.6 15.9 10.85 14.5 11.15 14.45 11.1 14.45 11.0 14.3 9.4 14.35 8.55 14.4 8.35" fill="#1d3235" fill-rule="evenodd" stroke="none"/>
      <path d="M14.4 8.35 L14.35 8.55 14.3 9.4 14.45 11.0 14.45 11.1 14.5 11.15 14.25 11.2 13.25 11.45 13.2 11.45 12.9 10.6 12.5 9.4 12.15 8.45 12.6 8.45 14.3 8.35 14.4 8.35" fill="#1d562b" fill-rule="evenodd" stroke="none"/>
      <path d="M12.1 11.7 L11.3 10.1 10.8 9.45 9.55 7.95 12.5 7.65 13.95 7.55 14.2 8.1 14.3 8.35 12.6 8.45 12.15 8.45 12.5 9.4 12.9 10.6 13.2 11.45 12.1 11.7" fill="#2cbe15" fill-rule="evenodd" stroke="none"/>
      <path d="M17.25 11.4 L17.1 11.7 16.2 15.35 15.95 16.8 15.85 17.65 14.9 17.1 13.2 16.2 13.8 12.85 13.9 12.4 14.0 11.95 14.55 11.85 17.25 11.4" fill="#015d34" fill-rule="evenodd" stroke="none"/>
      <path d="M21.2 17.05 L21.25 17.25 21.6 18.1 20.3 18.35 18.8 18.6 18.45 18.7 17.75 18.85 17.4 18.9 18.1 17.75 18.25 17.55 18.5 17.5 18.85 17.45 20.5 17.15 21.2 17.05 M17.1 17.8 L16.8 17.9 16.8 17.85 17.1 17.8" fill="#15861e" fill-rule="evenodd" stroke="none"/>
      <path d="M21.6 18.1 L22.05 18.05 22.1 18.05 23.85 17.8 23.8 18.0 23.65 19.25 23.65 19.8 22.1 19.65 20.2 19.55 20.2 19.2 20.3 18.35 21.6 18.1" fill="#00535e" fill-rule="evenodd" stroke="none"/>
      <path d="M20.2 19.55 L18.85 19.55 18.8 19.3 18.8 19.05 18.8 18.6 20.3 18.35 20.2 19.2 20.2 19.55" fill="#074d55" fill-rule="evenodd" stroke="none"/>
      <path d="M18.85 19.55 L18.75 19.55 18.5 19.55 18.4 19.55 16.95 19.55 17.2 19.25 17.4 18.9 17.75 18.85 18.45 18.7 18.8 18.6 18.8 19.05 18.8 19.3 18.85 19.55" fill="#003456" fill-rule="evenodd" stroke="none"/>
      <path d="M18.5 19.55 L18.6 20.65 18.6 20.8 17.5 20.75 16.9 20.75 16.05 20.75 16.95 19.55 18.4 19.55 18.5 19.55" fill="#033f49" fill-rule="evenodd" stroke="none"/>
      <path d="M23.65 19.8 L25.55 20.0 25.4 20.95 25.35 21.55 23.7 21.3 23.55 21.3 20.3 20.9 19.15 20.85 18.9 20.85 18.6 20.8 18.6 20.65 18.5 19.55 18.75 19.55 18.85 19.55 20.2 19.55 22.1 19.65 23.65 19.8" fill="#003d4e" fill-rule="evenodd" stroke="none"/>
      <path d="M18.6 20.8 L18.9 20.85 18.65 21.2 18.15 22.0 17.9 22.45 17.55 23.1 17.05 24.05 16.85 24.6 16.75 24.75 16.75 24.85 16.7 24.75 16.55 24.55 16.1 23.95 15.55 23.05 16.2 22.35 16.25 22.35 17.5 20.75 18.6 20.8" fill="#005660" fill-rule="evenodd" stroke="none"/>
      <path d="M18.9 20.85 L19.15 20.85 20.3 20.9 23.55 21.3 22.9 23.0 22.4 24.55 22.25 25.1 22.2 25.15 22.1 25.45 22.05 25.8 19.75 25.1 19.0 24.85 18.8 24.8 18.05 24.5 17.05 24.05 17.55 23.1 17.9 22.45 18.15 22.0 18.65 21.2 18.9 20.85" fill="#29a198" fill-rule="evenodd" stroke="none"/>
      <path d="M14.3 18.5 L15.8 18.1 16.1 18.0 16.35 17.95 16.8 17.85 16.8 17.9 16.7 17.9 16.0 18.1 13.45 18.75 14.0 18.55 14.3 18.5" fill="#1a8f0d" fill-rule="evenodd" stroke="none"/>
      <path d="M13.45 18.75 L13.35 18.75 13.3 18.75 13.3 18.8 12.5 18.95 11.4 19.2 11.6 16.65 12.55 17.2 13.1 17.55 13.4 17.75 Q13.95 18.1 14.3 18.5 L14.0 18.55 13.45 18.75" fill="#06631d" fill-rule="evenodd" stroke="none"/>
      <path d="M13.15 23.8 L14.35 22.65 16.05 20.75 16.9 20.75 17.5 20.75 16.25 22.35 16.2 22.35 15.55 23.05 14.35 24.3 14.3 24.35 13.85 24.8 13.7 24.9 13.65 24.8 13.4 24.35 13.35 24.2 13.15 23.8" fill="#004251" fill-rule="evenodd" stroke="none"/>
      <path d="M13.7 24.9 L13.85 24.8 14.3 24.35 14.35 24.3 15.55 23.05 16.1 23.95 16.55 24.55 16.7 24.75 16.75 24.85 Q16.2 26.1 15.9 27.5 L15.85 27.6 15.65 28.45 15.45 28.4 13.9 28.15 13.65 28.1 13.2 27.95 12.15 27.55 11.15 27.0 12.15 26.25 13.5 25.1 13.7 24.9" fill="#02525b" fill-rule="evenodd" stroke="none"/>
      <path d="M13.15 23.8 L13.35 24.2 13.4 24.35 13.65 24.8 13.7 24.9 13.5 25.1 12.15 26.25 11.15 27.0 10.95 27.1 10.75 27.2 9.95 26.75 9.55 26.45 9.95 26.2 10.3 25.95 12.35 24.45 13.15 23.8" fill="#084759" fill-rule="evenodd" stroke="none"/>
      <path d="M22.05 25.8 L21.55 27.3 20.95 29.15 19.5 29.4 19.45 29.4 17.55 29.95 17.0 29.8 16.7 29.7 15.5 29.3 15.65 28.45 15.85 27.6 15.9 27.5 Q16.2 26.1 16.75 24.85 L16.75 24.75 16.85 24.6 17.05 24.05 18.05 24.5 18.8 24.8 19.0 24.85 19.75 25.1 22.05 25.8" fill="#33a397" fill-rule="evenodd" stroke="none"/>
      <path d="M23.85 17.8 L26.1 17.55 26.8 17.5 Q26.65 18.35 26.65 19.4 L26.65 19.45 26.65 20.2 25.55 20.0 23.65 19.8 23.65 19.25 23.8 18.0 23.85 17.8" fill="#035e63" fill-rule="evenodd" stroke="none"/>
      <path d="M24.5 24.5 L24.75 23.35 25.1 22.2 25.35 21.55 26.85 21.85 28.85 22.25 28.6 23.3 28.4 24.3 28.2 25.15 28.1 25.7 28.05 25.95 27.9 26.7 27.5 28.55 27.45 28.65 26.0 28.55 25.95 28.55 23.65 28.7 23.65 28.55 24.0 26.85 24.2 26.1 24.3 25.55 24.3 25.4 24.35 25.3 24.5 24.5" fill="#38b6a8" fill-rule="evenodd" stroke="none"/>
      <path d="M23.55 21.3 L23.7 21.3 25.35 21.55 25.1 22.2 24.75 23.35 24.5 24.5 23.9 24.45 22.9 24.55 22.4 24.55 22.9 23.0 23.55 21.3" fill="#046e6a" fill-rule="evenodd" stroke="none"/>
      <path d="M22.4 24.55 L22.9 24.55 23.9 24.45 24.5 24.5 24.35 25.3 24.3 25.4 24.3 25.55 24.2 26.1 24.0 26.85 23.05 27.0 22.65 27.1 21.55 27.3 22.05 25.8 22.1 25.45 22.2 25.15 22.25 25.1 22.4 24.55" fill="#0e716e" fill-rule="evenodd" stroke="none"/>
      <path d="M9.95 19.45 L10.05 18.75 10.25 17.4 10.55 16.4 10.4 16.2 Q10.85 16.25 11.6 16.65 L11.4 19.2 11.3 19.2 10.5 19.4 9.95 19.45" fill="#098008" fill-rule="evenodd" stroke="none"/>
      <path d="M9.55 26.45 L9.95 26.75 10.75 27.2 10.95 27.35 11.5 27.65 11.2 28.4 11.1 28.6 10.85 28.5 10.45 28.3 9.85 28.0 9.55 27.85 9.4 27.75 9.15 27.6 9.15 27.2 9.15 26.7 9.55 26.45" fill="#164b53" fill-rule="evenodd" stroke="none"/>
      <path d="M10.75 27.2 L10.95 27.1 11.15 27.0 12.15 27.55 13.2 27.95 13.65 28.1 13.8 28.65 12.15 27.95 11.5 27.65 10.95 27.35 10.75 27.2" fill="#004b3e" fill-rule="evenodd" stroke="none"/>
      <path d="M15.5 29.3 L16.7 29.7 16.65 30.4 16.6 30.6 16.5 30.55 16.45 30.55 16.3 30.5 15.4 30.25 14.65 30.0 14.0 29.75 13.7 29.65 12.2 29.1 11.1 28.6 11.2 28.4 11.5 27.65 12.15 27.95 13.8 28.65 13.85 28.7 15.1 29.15 15.5 29.3" fill="#76925f" fill-rule="evenodd" stroke="none"/>
      <path d="M27.45 28.65 L27.25 29.45 26.85 30.8 26.8 30.8 26.75 30.9 25.6 30.65 23.8 30.4 23.7 30.4 23.45 30.4 23.3 30.4 23.3 30.3 23.55 29.05 23.65 28.7 25.95 28.55 26.0 28.55 27.45 28.65" fill="#64c6a0" fill-rule="evenodd" stroke="none"/>
      <path d="M26.25 31.95 L25.4 31.8 23.35 31.45 23.1 31.35 23.3 30.4 23.45 30.4 23.7 30.4 23.8 30.4 25.6 30.65 26.75 30.9 26.6 31.4 26.4 31.95 26.25 31.95" fill="#7acc9c" fill-rule="evenodd" stroke="none"/>
      <path d="M21.55 27.3 L22.65 27.1 23.05 27.0 24.0 26.85 23.65 28.55 22.85 28.75 20.85 29.35 20.95 29.15 21.55 27.3" fill="#248272" fill-rule="evenodd" stroke="none"/>
      <path d="M20.4 30.6 L20.6 30.1 20.7 29.75 20.85 29.35 22.85 28.75 23.65 28.55 23.65 28.7 23.55 29.05 23.3 30.3 22.95 30.3 20.4 30.6" fill="#5b8e53" fill-rule="evenodd" stroke="none"/>
      <path d="M20.35 30.75 L20.4 30.6 22.95 30.3 23.3 30.3 23.3 30.4 23.1 31.35 20.35 30.75" fill="#83a050" fill-rule="evenodd" stroke="none"/>
      <path d="M20.05 30.65 L20.1 30.65 20.35 30.75 23.1 31.35 23.35 31.45 25.4 31.8 26.25 31.95 26.25 32.0 26.1 32.65 25.25 32.5 23.3 32.15 22.95 32.05 20.0 31.45 19.95 31.45 19.9 31.45 19.8 31.4 19.85 31.3 20.05 30.7 20.05 30.65 M20.0 31.45 L19.9 31.45 20.0 31.45" fill="#ecb824" fill-rule="evenodd" stroke="none"/>
      <path d="M17.55 29.95 L19.45 29.4 19.5 29.4 20.95 29.15 20.85 29.35 20.7 29.75 20.6 30.1 20.4 30.6 20.35 30.75 20.1 30.65 20.05 30.65 19.1 30.4 18.75 30.3 18.2 30.15 18.1 30.1 17.55 29.95" fill="#58b48b" fill-rule="evenodd" stroke="none"/>
      <path d="M16.7 29.7 L17.0 29.8 17.55 29.95 18.1 30.1 18.2 30.15 18.75 30.3 19.1 30.4 20.05 30.65 20.05 30.7 19.85 31.3 19.8 31.4 19.5 31.35 19.0 31.2 18.7 31.15 17.8 30.9 17.75 30.9 16.65 30.65 16.6 30.6 16.65 30.4 16.7 29.7" fill="#96b373" fill-rule="evenodd" stroke="none"/>
      <path d="M15.65 28.45 L15.5 29.3 15.1 29.15 13.85 28.7 13.8 28.65 13.65 28.1 13.9 28.15 15.45 28.4 15.65 28.45" fill="#25524b" fill-rule="evenodd" stroke="none"/>
      <path d="M13.05 20.25 L13.45 18.75 16.0 18.1 16.7 17.9 16.8 17.9 17.1 17.8 17.15 17.8 18.3 17.45 18.25 17.55 18.1 17.75 17.4 18.9 17.2 19.25 17.05 19.3 15.65 19.65 15.3 19.75 14.2 20.0 13.45 20.2 13.05 20.25" fill="#31a020" fill-rule="evenodd" stroke="none"/>
      <path d="M7.2 19.75 L7.75 19.75 8.8 19.65 9.95 19.45 10.5 19.4 11.3 19.2 11.4 19.2 12.5 18.95 13.3 18.8 13.3 18.75 13.35 18.75 13.45 18.75 13.05 20.25 11.85 20.4 11.05 20.5 10.25 20.55 9.6 20.55 9.25 20.6 8.95 20.6 8.85 20.6 7.5 20.55 7.0 20.5 7.1 20.05 7.2 19.75" fill="#229512" fill-rule="evenodd" stroke="none"/>
      <path d="M12.2 21.65 L13.2 20.85 14.2 20.0 15.3 19.75 14.75 20.75 12.9 23.3 12.45 23.75 12.45 23.7 12.3 22.0 12.2 21.65" fill="#182947" fill-rule="evenodd" stroke="none"/>
      <path d="M12.45 23.75 L12.9 23.3 14.75 20.75 15.3 19.75 15.65 19.65 17.05 19.3 17.2 19.25 16.95 19.55 16.05 20.75 14.35 22.65 13.15 23.8 12.35 24.45 10.3 25.95 9.95 26.2 10.3 25.9 11.0 25.25 12.45 23.75" fill="#0e1b3e" fill-rule="evenodd" stroke="none"/>
      <path d="M0.0 18.1 L0.0 16.6 0.1 16.6 Q0.75 16.85 1.3 17.4 L1.2 17.45 0.8 17.65 0.0 18.1" fill="#4f731b" fill-rule="evenodd" stroke="none"/>
      <path d="M0.0 16.6 L0.0 15.2 0.4 15.4 1.9 16.25 2.4 16.65 1.45 17.5 1.3 17.4 Q0.75 16.85 0.1 16.6 L0.0 16.6" fill="#3fd406" fill-rule="evenodd" stroke="none"/>
      <path d="M2.4 16.65 L2.8 16.9 4.0 17.95 3.95 19.2 3.95 19.25 3.95 19.3 3.9 19.4 3.85 19.35 3.5 19.15 3.4 19.1 2.8 18.75 2.65 18.7 2.35 18.6 2.0 18.1 1.5 17.55 1.45 17.5 2.4 16.65" fill="#30da05" fill-rule="evenodd" stroke="none"/>
      <path d="M4.05 19.45 L4.3 19.55 6.65 19.75 7.2 19.75 7.1 20.05 7.0 20.5 6.35 20.45 4.1 20.05 4.05 20.0 2.85 19.7 2.35 19.5 2.25 19.45 1.0 18.9 Q1.75 18.5 2.35 18.6 L2.65 18.7 2.8 18.75 3.4 19.1 3.5 19.15 3.85 19.35 3.9 19.4 3.9 19.45 4.05 19.45" fill="#2b9d23" fill-rule="evenodd" stroke="none"/>
      <path d="M0.0 19.65 L0.0 18.1 0.8 17.65 1.2 17.45 1.3 17.4 1.45 17.5 1.5 17.55 2.0 18.1 2.35 18.6 Q1.75 18.5 1.0 18.9 L0.6 19.2 0.55 19.2 0.4 19.3 0.0 19.65" fill="#414d1f" fill-rule="evenodd" stroke="none"/>
      <path d="M6.35 20.45 L7.0 20.5 7.5 20.55 6.7 21.1 6.6 21.15 6.25 21.35 6.1 21.45 4.85 22.05 4.7 22.1 2.8 22.5 Q1.75 22.5 1.15 22.05 L0.85 21.8 1.2 20.85 Q1.65 19.75 2.25 19.45 L2.35 19.5 2.25 19.9 Q2.25 20.35 2.85 20.7 L4.1 21.0 4.9 20.95 5.05 20.9 6.35 20.45" fill="#1c5729" fill-rule="evenodd" stroke="none"/>
      <path d="M2.35 19.5 L2.85 19.7 4.05 20.0 4.1 20.05 6.35 20.45 5.05 20.9 4.9 20.95 4.1 21.0 2.85 20.7 Q2.25 20.35 2.25 19.9 L2.35 19.5" fill="#135d22" fill-rule="evenodd" stroke="none"/>
      <path d="M0.0 23.35 L0.0 19.65 0.4 19.3 0.55 19.2 0.6 19.2 0.4 20.45 Q0.4 21.3 0.85 21.8 0.6 22.65 0.5 23.65 L0.15 23.45 0.0 23.35" fill="#0a1823" fill-rule="evenodd" stroke="none"/>
      <path d="M2.25 19.45 Q1.65 19.75 1.2 20.85 L0.85 21.8 Q0.4 21.3 0.4 20.45 L0.6 19.2 1.0 18.9 2.25 19.45" fill="#10392b" fill-rule="evenodd" stroke="none"/>
      <path d="M0.0 26.7 L0.0 26.2 0.35 26.6 0.3 26.55 0.2 26.5 0.0 26.7" fill="#494015" fill-rule="evenodd" stroke="none"/>
      <path d="M0.0 26.2 L0.0 23.35 0.15 23.45 0.35 25.7 0.4 25.95 0.45 26.45 0.5 26.75 0.35 26.6 0.0 26.2" fill="#091233" fill-rule="evenodd" stroke="none"/>
      <path d="M0.5 23.65 Q1.35 24.05 2.45 24.05 L4.85 23.7 4.9 23.7 5.0 23.65 4.95 23.7 4.4 24.0 2.0 25.3 0.4 25.95 0.35 25.7 0.15 23.45 0.5 23.65" fill="#112236" fill-rule="evenodd" stroke="none"/>
      <path d="M0.85 21.8 L1.15 22.05 Q1.75 22.5 2.8 22.5 L4.7 22.1 4.85 22.05 5.2 23.55 5.2 23.6 5.0 23.65 4.9 23.7 4.85 23.7 2.45 24.05 Q1.35 24.05 0.5 23.65 0.6 22.65 0.85 21.8" fill="#0c3225" fill-rule="evenodd" stroke="none"/>
      <path d="M5.0 23.65 L5.2 23.6 6.4 23.15 7.0 22.9 7.9 22.45 7.95 22.55 8.2 22.9 8.95 24.0 9.0 24.2 8.0 24.95 7.6 25.3 6.1 26.35 5.4 25.0 5.0 23.9 4.95 23.7 5.0 23.65" fill="#233c5a" fill-rule="evenodd" stroke="none"/>
      <path d="M4.95 23.7 L5.0 23.9 5.4 25.0 6.1 26.35 4.4 27.5 3.6 26.95 2.1 25.45 2.0 25.3 4.4 24.0 4.95 23.7" fill="#243465" fill-rule="evenodd" stroke="none"/>
      <path d="M4.85 22.05 L6.1 21.45 6.25 21.35 6.6 21.15 6.7 21.1 7.5 20.55 8.85 20.6 8.95 20.6 9.25 20.6 9.6 20.55 10.25 20.55 11.05 20.5 10.05 21.2 Q9.95 21.25 9.8 21.35 L9.5 21.55 8.75 22.0 7.9 22.45 7.0 22.9 6.4 23.15 5.2 23.6 5.2 23.55 4.85 22.05" fill="#0f4921" fill-rule="evenodd" stroke="none"/>
      <path d="M2.0 25.3 L2.1 25.45 3.6 26.95 4.4 27.5 3.05 28.4 1.5 27.45 1.2 27.2 0.85 27.0 0.6 26.8 0.5 26.75 0.45 26.45 0.4 25.95 2.0 25.3" fill="#284759" fill-rule="evenodd" stroke="none"/>
      <path d="M9.0 24.2 L8.95 24.0 8.2 22.9 7.95 22.55 7.9 22.45 8.75 22.0 9.5 21.55 9.8 21.35 Q9.95 21.25 10.05 21.2 L11.05 20.5 11.85 20.4 13.05 20.25 13.45 20.2 14.2 20.0 13.2 20.85 12.2 21.65 12.15 21.7 11.75 22.0 9.9 23.5 9.3 24.0 9.0 24.2" fill="#254750" fill-rule="evenodd" stroke="none"/>
      <path d="M6.1 26.35 L7.6 25.3 7.6 25.4 7.65 26.5 7.75 27.45 5.95 28.15 4.9 28.45 3.7 28.65 3.05 28.4 4.4 27.5 6.1 26.35" fill="#161944" fill-rule="evenodd" stroke="none"/>
      <path d="M7.6 25.3 L8.0 24.95 9.0 24.2 9.3 24.0 9.9 23.5 10.2 25.25 10.3 25.9 9.95 26.2 9.55 26.45 9.15 26.7 8.75 26.9 8.0 27.3 7.75 27.45 7.65 26.5 7.6 25.4 7.6 25.3" fill="#1d2248" fill-rule="evenodd" stroke="none"/>
      <path d="M9.9 23.5 L11.75 22.0 12.15 21.7 12.2 21.65 12.3 22.0 12.45 23.7 12.45 23.75 11.0 25.25 10.3 25.9 10.2 25.25 9.9 23.5" fill="#152849" fill-rule="evenodd" stroke="none"/>
      <path d="M53.1 0.0 L53.1 0.7 53.05 1.45 53.05 2.0 Q53.1 4.15 53.3 5.95 53.45 7.65 53.85 9.05 L54.05 9.9 54.4 10.9 M10.65 0.0 L10.3 0.55 8.95 0.95 8.55 1.05 6.5 1.6 6.45 1.65 6.5 0.75 6.45 0.0 M0.0 0.1 L0.15 0.0" fill="none" stroke="#015f0e" stroke-linecap="round" stroke-linejoin="round" stroke-width="1.0"/>
      <path d="M48.55 33.15 L48.45 34.2 48.4 34.7 M49.65 38.85 L49.9 39.2 50.3 39.65 51.45 41.1 53.9 44.1 54.4 44.75 M48.6 32.55 L48.55 33.15" fill="none" stroke="#1b0217" stroke-linecap="round" stroke-linejoin="round" stroke-width="1.0"/>
      <path d="M40.25 10.2 L41.1 10.4 41.85 10.6 44.5 11.05 45.65 11.15 46.85 11.2 49.1 11.05 48.9 12.1 48.85 12.35 47.85 14.15 48.65 15.45 49.75 16.55 48.45 17.4 48.35 17.45 47.65 17.85 47.4 17.1 47.35 17.05 45.95 16.3 44.65 15.6 43.8 14.35 43.7 14.2 42.95 13.2 41.95 12.0 40.25 10.2 39.95 9.95 39.15 9.2 38.0 8.2 38.65 8.15 39.65 8.1 40.4 8.45 41.2 8.85 41.75 9.1 Q43.45 10.05 44.5 11.05 M46.25 18.85 L46.45 18.9 47.65 19.2 47.9 19.3 47.7 18.2 47.7 18.1 47.65 17.85 M43.45 15.0 L44.65 15.6 M42.45 14.55 L39.7 13.3 37.65 12.5 36.4 12.05 34.1 11.3 32.35 10.75 32.05 10.65 28.95 9.9 27.35 9.55 27.2 9.55 26.4 9.25 Q25.15 8.85 23.75 8.55 L19.6 8.0 18.75 7.4 Q20.55 6.75 23.2 6.4 L24.5 6.3 28.75 6.05 34.35 6.4 34.95 6.5 35.9 6.7 36.65 7.2 37.9 8.1 38.0 8.2 M38.85 17.5 L40.75 17.8 42.1 18.0 43.0 18.2 44.95 18.55 46.25 18.85 M42.45 14.55 L43.45 15.0 M47.9 19.3 L48.05 19.3 48.55 19.45 49.2 21.9 49.2 22.2 49.3 23.25 49.4 24.55 49.4 26.0 49.4 26.1 49.4 27.2 49.4 27.45 49.35 28.7 49.3 29.25 49.2 29.95 49.2 30.2 M10.85 12.0 L11.95 11.75 12.1 11.7 11.3 10.1 10.8 9.45 9.55 7.95 12.5 7.65 13.95 7.55 14.75 7.45 14.6 6.05 14.5 4.9 14.55 3.9 15.55 5.0 17.75 6.75 18.4 7.2 18.75 7.4 M19.6 8.0 L20.35 8.4 23.05 9.7 23.15 9.75 26.4 9.55 26.75 9.55 27.2 9.55 M20.1 10.1 L23.05 9.75 23.15 9.75 M35.2 16.95 L34.1 16.85 33.8 16.8 30.6 16.55 30.3 16.55 28.9 16.5 28.8 16.5 27.0 16.55 24.0 16.7 22.15 16.9 22.05 16.9 21.2 17.05 20.5 17.15 18.85 17.45 18.5 17.5 18.25 17.55 M35.2 16.95 L35.4 16.95 35.65 17.0 37.9 17.35 38.0 17.35 38.1 17.35 38.3 17.4 38.85 17.5 M14.5 11.15 L15.9 10.85 17.35 10.6 17.55 10.55 17.6 10.55 18.3 10.4 20.1 10.1 M13.2 11.45 L13.25 11.45 14.25 11.2 14.5 11.15 M12.1 11.7 L13.2 11.45 M13.3 18.75 L13.3 18.8 M14.3 18.5 L15.8 18.1 16.1 18.0 16.35 17.95 16.8 17.85 17.1 17.8 M13.45 18.75 L14.0 18.55 14.3 18.5 Q13.95 18.1 13.4 17.75 L13.1 17.55 12.55 17.2 11.6 16.65 Q10.85 16.25 10.4 16.2 M9.15 27.6 L9.15 27.2 9.15 26.7" fill="none" stroke="#070a03" stroke-linecap="round" stroke-linejoin="round" stroke-width="1.0"/>
      <path d="M0.0 15.2 L0.4 15.4 1.9 16.25 2.4 16.65 2.8 16.9 4.0 17.95 3.95 19.2 3.95 19.25 3.95 19.3 3.9 19.4 3.9 19.45 4.05 19.45 M4.3 19.55 L6.65 19.75 7.2 19.75 7.75 19.75 8.8 19.65 9.95 19.45 10.5 19.4 11.3 19.2 11.4 19.2 12.5 18.95 13.3 18.8 M13.45 18.75 L13.35 18.75 13.3 18.75 M18.3 17.45 L17.15 17.8 17.1 17.8 16.8 17.9 16.7 17.9 16.0 18.1 13.45 18.75 M0.2 26.5 L0.0 26.7" fill="none" stroke="#1c1505" stroke-linecap="round" stroke-linejoin="round" stroke-width="1.0"/>
      <path d="M49.2 22.2 L50.15 23.2 51.65 24.5 52.4 25.0 52.6 25.55 52.65 25.8 52.75 26.05 52.9 26.95 52.95 27.25 53.0 27.4 53.0 27.55 53.0 28.05 52.9 29.4 52.75 29.95 52.65 30.25 52.65 30.3 52.6 30.35 52.45 30.5 52.3 30.7 51.95 31.0 51.1 31.7 50.7 31.9 50.1 32.15 50.0 32.15 49.85 32.2 49.6 32.25 49.55 32.25 M51.25 32.5 L51.1 31.85 51.1 31.7 M52.3 24.4 L52.4 25.0" fill="none" stroke="#090d0c" stroke-linecap="round" stroke-linejoin="round" stroke-width="1.0"/>
      <path d="M51.65 24.5 L51.9 24.45 52.3 24.4 53.15 24.35 53.2 24.35 54.4 24.5 M54.4 33.25 L53.95 33.15 53.3 33.0 52.45 32.85 51.25 32.5" fill="none" stroke="#250615" stroke-linecap="round" stroke-linejoin="round" stroke-width="1.0"/>
      <path d="M48.4 29.7 L47.65 29.2 47.3 28.9 46.75 28.55 46.55 28.4 46.0 28.05 44.65 27.3 43.65 26.85 43.05 26.55 41.85 26.1 41.2 25.85 40.1 25.45 39.9 25.35 39.15 25.1 36.3 24.2 35.85 24.1 32.9 23.25 32.55 23.2 32.5 23.15 30.3 22.6 28.85 22.25 26.85 21.85 25.35 21.55 23.7 21.3 23.55 21.3 20.3 20.9 19.15 20.85 18.9 20.85 18.6 20.8 17.5 20.75 16.9 20.75 16.05 20.75 M48.75 29.9 L48.4 29.7 M49.2 30.2 L49.95 30.75 50.1 30.85 50.15 30.85 M48.75 29.9 L49.0 30.1 49.2 30.2" fill="none" stroke="#031d1a" stroke-linecap="round" stroke-linejoin="round" stroke-width="1.0"/>
      <path d="M42.3 33.8 L42.0 33.85 41.95 33.85 41.75 33.85 41.7 33.85 41.45 33.9 40.4 33.95 40.3 33.95 40.25 33.95 39.85 33.95 39.0 33.95 37.8 33.95 36.95 33.9 35.75 33.85 35.45 33.85" fill="none" stroke="#210000" stroke-linecap="round" stroke-linejoin="round" stroke-width="1.0"/>
      <path d="M45.05 33.6 L44.25 33.75 44.2 33.75 42.5 34.0 42.5 34.1 Q42.5 34.85 42.85 35.5 L43.0 35.75 43.1 35.8 43.9 36.45 44.05 36.45 44.55 36.55 44.75 36.55 45.8 36.15 45.9 36.1 46.55 35.3 46.75 35.0 47.1 33.2 47.1 33.0 M45.05 33.6 L45.25 33.55 46.8 33.1 M42.0 34.05 L42.5 34.0 M42.0 34.05 L41.75 33.85 M19.9 31.45 L20.0 31.45 22.55 32.05 23.3 32.2 25.3 32.55 29.85 33.35 30.85 33.5 31.7 33.6 32.65 33.65 M19.8 31.4 L20.1 32.8 20.45 33.45 21.4 34.7 21.5 34.8 21.75 35.0 22.55 35.6 25.0 36.35 25.9 36.4 26.05 36.4 27.4 36.3 28.1 36.1 29.55 35.45 29.95 35.25 30.15 35.05 31.7 33.6" fill="none" stroke="#710a00" stroke-linecap="round" stroke-linejoin="round" stroke-width="1.0"/>
      <path d="M46.8 33.1 L45.25 33.4 45.2 33.45 43.05 33.75 42.3 33.8 M46.8 33.1 L46.9 33.05 47.0 33.0 47.1 33.0 47.15 33.0" fill="none" stroke="#77060a" stroke-linecap="round" stroke-linejoin="round" stroke-width="1.0"/>
      <path d="M34.75 33.8 L34.0 33.75 33.5 33.7 33.0 33.65 32.65 33.65 32.35 33.6 31.8 33.55 M34.75 33.8 L35.15 33.8 35.45 33.85" fill="none" stroke="#3f0018" stroke-linecap="round" stroke-linejoin="round" stroke-width="1.0"/>
      <path d="M20.0 31.45 L22.95 32.05 23.3 32.15 25.25 32.5 26.1 32.65 26.9 32.8 27.05 32.85 30.65 33.4 31.8 33.55 M20.0 31.45 L19.95 31.45" fill="none" stroke="#aa1d0b" stroke-linecap="round" stroke-linejoin="round" stroke-width="1.0"/>
      <path d="M47.65 37.15 L47.8 36.8 48.0 36.3 M47.0 38.4 L47.5 37.4 47.65 37.15 M46.9 38.45 L47.0 38.4 M44.5 41.6 L45.4 40.6 45.4 40.55 46.75 38.75 46.9 38.45 M40.65 45.35 L41.0 45.0 41.2 44.8 42.1 43.95 43.05 43.05 43.95 42.15 44.5 41.6 M40.5 45.45 L40.65 45.35 M40.4 45.55 L40.5 45.45" fill="none" stroke="#3e0905" stroke-linecap="round" stroke-linejoin="round" stroke-width="1.0"/>
      <path d="M49.55 32.25 L48.75 32.55 48.6 32.55 48.4 32.65 48.3 32.65 47.8 32.8 47.15 33.0 M49.8 32.15 L49.55 32.25 M16.6 30.6 L16.5 30.55 16.45 30.55 16.3 30.5 15.4 30.25 14.65 30.0 14.0 29.75 13.7 29.65 12.2 29.1 11.1 28.6 10.85 28.5 10.45 28.3 9.85 28.0 9.55 27.85 9.4 27.75 9.15 27.6 M16.65 30.65 L16.6 30.6 M19.8 31.4 L19.9 31.45 19.95 31.45 M17.8 30.9 L17.75 30.9 16.65 30.65 M19.0 31.2 L19.5 31.35 19.8 31.4 M19.0 31.2 L18.7 31.15 17.8 30.9" fill="none" stroke="#001300" stroke-linecap="round" stroke-linejoin="round" stroke-width="1.0"/>
      <path d="M48.75 32.55 L48.55 33.15 48.3 34.2 48.25 34.5 48.25 34.75 48.0 36.3" fill="none" stroke="#4a0a00" stroke-linecap="round" stroke-linejoin="round" stroke-width="1.0"/>
      <path d="M48.4 34.7 L48.6 35.35 48.85 36.1 49.2 36.8 49.4 37.25 50.15 38.6 M48.3 34.2 L48.4 34.7" fill="none" stroke="#1b100c" stroke-linecap="round" stroke-linejoin="round" stroke-width="1.0"/>
      <path d="M50.15 30.85 L49.9 31.85 49.8 32.15" fill="none" stroke="#0d0000" stroke-linecap="round" stroke-linejoin="round" stroke-width="1.0"/>
      <path d="M50.15 38.6 L49.65 38.85 49.1 39.25 48.9 39.45 47.9 40.65 47.6 41.2 Q46.8 42.65 46.6 44.45 L46.55 44.75 46.5 45.5 46.45 45.5 44.25 46.6 44.1 46.65 43.85 46.8 Q42.7 47.4 42.0 48.55 41.0 50.2 41.0 52.95 L41.05 53.25 39.6 53.55 39.1 53.65 38.0 53.85 37.55 53.95 M10.85 28.5 L10.85 29.65 10.85 30.0 10.95 31.4 11.0 31.45 12.25 32.3 13.4 33.0 13.65 33.1 14.55 33.6 M7.8 32.8 L7.55 32.6 Q7.1 32.3 6.5 32.25 L7.4 30.0 Q8.1 28.15 8.75 26.9 M8.05 34.9 L8.2 34.45 8.45 33.75 8.4 33.55 8.05 33.05 7.8 32.8 M8.0 40.15 L7.45 40.1 5.6 40.3 5.4 40.35 6.1 39.1 6.2 38.9 7.0 37.4 8.05 34.9 M8.0 40.15 L9.2 40.3 9.35 42.6 9.7 42.6 11.25 42.65 11.3 42.7 11.85 42.8 13.05 43.25 13.3 43.4 13.2 44.45 12.95 45.9 12.85 46.25 12.4 47.85 11.85 49.45 12.65 49.5 15.3 49.8 15.4 49.8 Q18.05 50.25 20.95 51.15 L23.65 52.15 24.95 52.65 25.35 52.8 26.05 53.15 27.8 53.95 M11.85 49.45 L11.15 49.45" fill="none" stroke="#1c0318" stroke-linecap="round" stroke-linejoin="round" stroke-width="1.0"/>
      <path d="M18.3 17.45 L18.25 17.55 18.1 17.75 17.4 18.9 17.2 19.25 16.95 19.55 16.05 20.75 14.35 22.65 13.15 23.8 12.35 24.45 10.3 25.95 9.95 26.2 9.55 26.45 9.15 26.7 8.75 26.9 8.0 27.3 7.75 27.45 5.95 28.15 4.9 28.45 3.7 28.65 3.05 28.4 1.5 27.45 1.2 27.2 0.85 27.0 0.6 26.8 M0.3 26.55 L0.2 26.5 M0.35 26.6 L0.3 26.55" fill="none" stroke="#00030c" stroke-linecap="round" stroke-linejoin="round" stroke-width="1.0"/>
      <path d="M9.9 15.35 L10.1 14.3 10.2 14.05 10.85 12.0" fill="none" stroke="#0a5100" stroke-linecap="round" stroke-linejoin="round" stroke-width="1.0"/>
      <path d="M10.4 16.2 L9.9 15.35" fill="none" stroke="#065300" stroke-linecap="round" stroke-linejoin="round" stroke-width="1.0"/>
      <path d="M9.95 19.45 L10.05 18.75 10.25 17.4 10.55 16.4 10.4 16.2" fill="none" stroke="#003200" stroke-linecap="round" stroke-linejoin="round" stroke-width="1.0"/>
      <path d="M3.9 19.4 L4.05 19.45 4.3 19.55 M3.5 19.15 L3.85 19.35 3.9 19.4 M2.35 18.6 L2.65 18.7 2.8 18.75 3.4 19.1 M0.0 19.65 L0.4 19.3 0.55 19.2 0.6 19.2 1.0 18.9 Q1.75 18.5 2.35 18.6 M0.5 26.75 L0.6 26.8 M0.5 26.75 L0.35 26.6 0.0 26.2" fill="none" stroke="#0b0100" stroke-linecap="round" stroke-linejoin="round" stroke-width="1.0"/>
      <path d="M14.6 35.65 L14.6 35.4 14.5 34.2 14.5 34.05 14.55 33.6 M14.6 35.65 L14.8 36.65 15.35 38.2 15.55 38.6 16.15 39.65 16.6 40.2 17.8 41.45 18.55 42.0 19.35 42.55 19.9 42.9 20.3 43.1 21.95 43.75 22.85 44.0 23.5 44.15 25.7 44.45 26.95 44.5 27.1 44.5" fill="none" stroke="#25001a" stroke-linecap="round" stroke-linejoin="round" stroke-width="1.0"/>
      <path d="M27.95 45.9 L29.75 46.45 29.95 46.45 30.25 46.5 34.5 46.75 35.1 46.75 35.75 46.75 38.1 46.25 40.4 45.55 M27.75 45.6 L27.8 45.85 27.95 45.9" fill="none" stroke="#010009" stroke-linecap="round" stroke-linejoin="round" stroke-width="1.0"/>
      <path d="M27.2 44.65 L27.1 44.5 M27.2 44.65 L27.5 45.15 27.75 45.6 27.85 45.75 27.95 45.9" fill="none" stroke="#000017" stroke-linecap="round" stroke-linejoin="round" stroke-width="1.0"/>
      <path d="M42.2 53.75 Q41.6 52.9 41.6 51.55 41.6 50.55 42.05 49.8 L42.2 49.55 Q42.7 48.9 43.55 48.55 L45.15 48.1 45.35 48.1 46.3 48.05 46.6 48.05 46.55 47.75 46.4 47.2 44.25 46.6 M49.75 49.45 L50.35 50.3 Q51.2 51.75 51.3 53.35 L51.3 53.6 51.3 53.95 M46.6 48.05 Q48.55 48.15 49.75 49.45 M12.95 45.9 Q11.6 46.35 10.25 46.95 7.45 48.2 4.8 49.95 L4.3 50.25 3.15 51.1 1.95 52.0 0.7 53.05 0.25 53.45 0.0 53.7 M5.9 51.9 Q7.5 50.4 9.15 50.0 L9.3 50.0 10.8 50.2 11.15 50.35 11.85 50.65 12.9 51.55 Q13.95 52.75 13.95 53.95 M4.4 53.95 Q4.85 53.0 5.65 52.15 L5.9 51.9 M42.2 53.75 L42.35 53.9 M43.0 53.95 L43.1 53.85 43.3 53.7 43.4 53.65 43.95 53.5 Q44.45 53.5 44.75 53.95" fill="none" stroke="#1d0700" stroke-linecap="round" stroke-linejoin="round" stroke-width="1.0"/>
    </g>
    <g id="shape2" transform="matrix(1.0, 0.0, 0.0, 1.0, 0.0, 0.0)">
      <path d="M50.5 0.0 Q53.95 0.0 53.95 3.3 L53.95 50.15 Q53.95 53.4 50.5 53.4 L3.3 53.4 Q0.0 53.4 0.0 50.15 L0.0 3.3 Q0.0 0.0 3.3 0.0 L50.5 0.0" fill="#000000" fill-opacity="0.003921569" fill-rule="evenodd" stroke="none"/>
    </g>
  </defs>
</svg>
