<?xml version="1.0" encoding="UTF-8" standalone="no"?>
<svg xmlns:ffdec="https://www.free-decompiler.com/flash" xmlns:xlink="http://www.w3.org/1999/xlink" ffdec:objectType="frame" height="56.8px" width="55.9px" xmlns="http://www.w3.org/2000/svg">
  <g transform="matrix(1.0, 0.0, 0.0, 1.0, 0.75, 2.7)">
    <clipPath id="clipPath0" transform="matrix(1.0, 0.0, 0.0, 1.0, 0.0, 0.0)">
      <path d="M50.5 0.0 Q53.95 0.0 53.95 3.3 L53.95 50.15 Q53.95 53.4 50.5 53.4 L3.3 53.4 Q0.0 53.4 0.0 50.15 L0.0 3.3 Q0.0 0.0 3.3 0.0 L50.5 0.0" fill="#000000" fill-rule="evenodd" stroke="none"/>
    </clipPath>
    <g clip-path="url(#clipPath0)">
      <use ffdec:characterId="2" height="56.8" transform="matrix(1.0, 0.0, 0.0, 1.0, -0.75, -2.7)" width="55.9" xlink:href="#shape1"/>
    </g>
    <use ffdec:characterId="3" height="53.4" transform="matrix(1.0, 0.0, 0.0, 1.0, 0.0, 0.0)" width="53.95" xlink:href="#shape2"/>
  </g>
  <defs>
    <g id="shape1" transform="matrix(1.0, 0.0, 0.0, 1.0, 0.75, 2.7)">
      <path d="M41.7 32.95 L41.7 33.05 42.45 36.45 41.9 37.25 41.0 38.4 41.1 38.8 36.7 40.1 37.55 39.35 37.8 39.05 38.0 38.9 38.1 38.9 38.15 38.75 38.3 38.55 38.35 38.3 38.35 38.25 38.7 36.0 38.9 34.8 38.55 35.0 38.7 34.3 38.7 34.25 38.9 33.25 39.4 31.45 40.0 30.9 40.2 30.75 41.7 32.95 M7.55 38.0 L10.4 34.05 Q12.55 35.55 14.05 37.25 L15.2 38.75 14.85 38.85 Q14.0 39.2 12.6 39.9 L12.55 39.9 12.2 40.15 Q9.7 39.25 7.55 38.0 M34.1 21.4 L33.8 21.5 33.75 21.05 34.1 21.4 M16.9 37.1 L17.0 36.9 17.25 37.45 17.8 36.95 18.35 37.55 17.55 37.8 17.4 37.85 16.6 38.2 16.4 38.25 16.9 37.1 M17.25 37.45 L16.6 38.2 17.25 37.45" fill="#082c33" fill-rule="evenodd" stroke="none"/>
      <path d="M42.45 36.45 L42.8 37.55 43.0 38.2 Q43.8 40.85 45.1 43.15 L43.05 43.25 42.4 41.9 41.1 38.8 41.0 38.4 41.9 37.25 42.45 36.45 M47.2 46.15 L49.9 48.6 Q51.95 49.95 54.65 50.8 L54.65 52.7 53.65 52.45 53.55 52.4 52.55 51.85 Q50.5 50.9 48.8 50.45 L47.6 49.55 Q45.9 48.15 44.25 45.45 L44.1 45.2 45.5 44.75 45.65 45.2 46.15 46.05 46.65 46.45 47.2 46.15" fill="#2665ce" fill-rule="evenodd" stroke="none"/>
      <path d="M1.15 43.8 L5.85 39.8 7.55 38.0 Q9.7 39.25 12.2 40.15 L11.0 40.75 Q10.95 40.75 10.85 40.85 L9.65 41.5 9.65 41.8 9.55 43.9 10.2 44.9 10.6 45.4 11.55 46.5 12.2 47.1 12.3 47.1 13.05 47.0 13.15 47.05 13.05 48.5 12.9 48.4 8.15 45.45 4.8 43.5 4.05 43.1 1.15 43.8 M41.1 38.8 L42.4 41.9 43.05 43.25 42.65 43.25 Q40.1 43.25 38.25 42.4 L36.9 41.55 35.95 40.65 36.7 40.1 41.1 38.8 M44.1 45.2 L44.25 45.45 41.65 46.5 37.85 47.95 37.8 47.55 37.75 47.1 37.65 46.15 37.65 45.85 38.15 45.85 38.55 45.85 42.0 45.6 44.1 45.2 M22.55 51.65 L19.5 51.95 18.45 52.0 18.05 51.75 18.3 51.3 19.4 49.55 19.4 49.85 20.65 49.75 21.5 49.8 22.2 51.1 22.55 51.65" fill="#104651" fill-rule="evenodd" stroke="none"/>
      <path d="M23.7 53.6 L19.45 53.6 19.25 52.6 19.25 52.55 18.45 52.0 19.5 51.95 22.55 51.65 22.7 51.95 23.7 53.6 M44.25 45.45 Q45.9 48.15 47.6 49.55 L39.75 52.4 38.75 52.75 37.5 50.2 38.0 49.55 37.95 48.85 37.85 47.95 41.65 46.5 44.25 45.45" fill="#1e7485" fill-rule="evenodd" stroke="none"/>
      <path d="M54.65 52.7 L54.65 53.05 53.65 52.45 54.65 52.7 M47.6 49.55 L48.8 50.45 48.2 50.25 46.95 49.95 46.2 50.25 42.9 51.5 42.25 51.75 38.85 52.9 38.75 52.75 39.75 52.4 47.6 49.55" fill="#35a0b6" fill-rule="evenodd" stroke="none"/>
      <path d="M45.45 43.1 L45.45 43.0 45.45 42.75 45.55 43.1 45.65 43.25 46.2 43.95 46.85 42.95 46.9 42.85 46.9 42.75 47.0 42.65 47.1 42.6 48.0 41.35 48.2 41.1 48.25 41.1 48.05 41.35 48.0 41.4 47.85 41.65 47.5 42.65 47.45 42.7 47.45 43.15 47.45 43.2 47.45 43.3 47.45 43.6 47.0 44.05 46.65 44.35 46.5 44.5 46.15 44.85 45.65 45.2 45.5 44.75 45.45 44.5 45.35 43.65 45.35 43.6 45.45 43.1" fill="#f56a15" fill-rule="evenodd" stroke="none"/>
      <path d="M45.65 42.0 Q45.8 41.5 46.1 41.1 L46.6 40.65 48.2 41.1 48.0 41.35 47.1 42.6 47.0 42.65 46.75 42.55 46.7 42.55 46.35 42.4 46.25 42.35 45.65 42.0" fill="#ffff65" fill-rule="evenodd" stroke="none"/>
      <path d="M48.25 41.1 Q49.0 40.6 52.0 40.2 L51.3 41.35 51.1 41.7 51.1 41.75 50.85 42.45 50.3 42.4 49.85 42.4 48.45 42.5 47.75 42.55 47.5 42.65 47.85 41.65 48.0 41.4 48.05 41.35 48.25 41.1" fill="#2be8e4" fill-rule="evenodd" stroke="none"/>
      <path d="M54.65 45.0 L54.65 45.65 54.55 45.6 53.8 45.2 53.0 44.6 52.55 44.25 52.6 43.35 Q52.45 43.2 52.3 43.2 L51.1 42.85 50.3 42.75 50.05 42.75 48.55 42.9 48.2 43.0 47.45 43.15 47.45 42.7 47.5 42.65 47.75 42.55 48.45 42.5 49.85 42.4 50.3 42.4 50.85 42.45 51.05 42.45 52.0 42.55 53.1 42.75 53.05 43.4 53.05 43.75 53.1 44.0 53.65 44.45 53.85 44.65 54.2 44.8 54.65 45.0" fill="#74d5ff" fill-rule="evenodd" stroke="none"/>
      <path d="M45.45 42.75 L45.65 42.0 46.25 42.35 46.35 42.4 46.7 42.55 46.75 42.55 47.0 42.65 46.9 42.75 46.9 42.85 46.85 42.95 46.2 43.95 45.65 43.25 45.55 43.1 45.45 42.75" fill="#fff862" fill-rule="evenodd" stroke="none"/>
      <path d="M47.45 43.15 L48.2 43.0 48.55 42.9 49.1 43.7 50.15 44.45 51.4 44.75 51.55 45.4 50.25 45.3 49.7 45.2 49.55 45.1 47.45 43.3 47.45 43.2 47.45 43.15" fill="#6159ec" fill-rule="evenodd" stroke="none"/>
      <path d="M48.35 45.55 L48.05 45.65 47.3 46.05 47.2 46.15 46.65 46.45 46.15 46.05 45.65 45.2 46.15 44.85 46.5 44.5 46.65 44.35 47.0 44.05 47.45 43.6 Q47.55 44.65 48.3 45.4 L48.4 45.45 48.35 45.55" fill="#c23e2f" fill-rule="evenodd" stroke="none"/>
      <path d="M54.65 45.65 L54.65 45.95 53.7 46.1 50.65 46.6 49.3 46.0 48.5 45.6 48.35 45.55 48.4 45.45 48.3 45.4 Q47.55 44.65 47.45 43.6 L47.45 43.3 49.55 45.1 49.7 45.2 50.25 45.3 51.55 45.4 51.6 45.4 53.8 45.2 54.55 45.6 54.65 45.65" fill="#84b7ff" fill-rule="evenodd" stroke="none"/>
      <path d="M48.55 42.9 L50.05 42.75 50.3 42.75 51.1 42.85 51.25 43.95 51.4 44.75 50.15 44.45 49.1 43.7 48.55 42.9" fill="#6b54fa" fill-rule="evenodd" stroke="none"/>
      <path d="M38.15 43.45 Q39.4 44.2 40.75 44.45 L43.75 44.55 44.1 44.55 45.45 44.5 45.5 44.75 44.1 45.2 42.0 45.6 38.55 45.85 38.15 45.85 38.05 45.0 38.15 43.45" fill="#351b34" fill-rule="evenodd" stroke="none"/>
      <path d="M45.1 43.15 L45.45 43.1 45.35 43.6 45.35 43.65 45.45 44.5 44.1 44.55 43.75 44.55 40.75 44.45 Q39.4 44.2 38.15 43.45 L37.2 42.9 35.3 41.05 35.95 40.65 36.9 41.55 38.25 42.4 Q40.1 43.25 42.65 43.25 L43.05 43.25 45.1 43.15" fill="#564f57" fill-rule="evenodd" stroke="none"/>
      <path d="M54.65 43.5 L54.65 45.0 54.2 44.8 54.3 44.3 54.5 43.8 54.65 43.5" fill="#5ebfe0" fill-rule="evenodd" stroke="none"/>
      <path d="M53.65 41.55 L53.75 41.65 54.65 42.85 54.65 43.5 54.5 43.8 54.3 44.3 54.2 44.8 53.85 44.65 53.65 44.45 53.1 44.0 53.05 43.75 53.05 43.4 53.1 42.75 52.0 42.55 Q52.4 42.05 53.45 41.6 L53.65 41.55" fill="#38b9f0" fill-rule="evenodd" stroke="none"/>
      <path d="M52.0 40.2 Q52.8 40.6 53.65 41.55 L53.45 41.6 Q52.4 42.05 52.0 42.55 L51.05 42.45 50.85 42.45 51.1 41.75 51.1 41.7 51.3 41.35 52.0 40.2" fill="#23e6e8" fill-rule="evenodd" stroke="none"/>
      <path d="M51.1 42.85 L52.3 43.2 Q52.45 43.2 52.6 43.35 L52.55 44.25 53.0 44.6 52.95 44.6 51.85 44.75 51.4 44.75 51.25 43.95 51.1 42.85" fill="#7055fc" fill-rule="evenodd" stroke="none"/>
      <path d="M53.0 44.6 L53.8 45.2 51.6 45.4 51.55 45.4 51.4 44.75 51.85 44.75 52.95 44.6 53.0 44.6" fill="#666dfb" fill-rule="evenodd" stroke="none"/>
      <path d="M38.15 45.85 L37.65 45.85 37.6 45.2 35.8 44.1 35.6 44.0 34.15 43.55 32.4 43.3 31.95 43.25 30.8 43.95 29.1 43.95 28.55 43.95 28.85 43.0 30.4 43.35 32.5 42.65 34.9 41.35 35.05 41.2 35.3 41.05 37.2 42.9 38.15 43.45 38.05 45.0 38.15 45.85" fill="#44163a" fill-rule="evenodd" stroke="none"/>
      <path d="M24.35 41.5 L26.05 42.15 28.85 43.0 28.55 43.95 27.5 43.9 25.85 43.8 24.35 41.5" fill="#432b3b" fill-rule="evenodd" stroke="none"/>
      <path d="M36.7 53.6 L36.65 53.6 36.35 51.4 36.05 50.3 36.3 50.3 36.85 51.75 37.5 53.1 37.6 53.35 36.85 53.55 36.7 53.6" fill="#372442" fill-rule="evenodd" stroke="none"/>
      <path d="M36.3 50.3 L36.65 50.3 37.3 50.4 37.5 50.2 38.75 52.75 38.85 52.9 37.6 53.35 37.5 53.1 36.85 51.75 36.3 50.3" fill="#4c3854" fill-rule="evenodd" stroke="none"/>
      <path d="M54.65 53.05 L54.65 53.55 53.65 53.05 52.85 52.7 50.3 51.95 49.9 51.85 49.75 51.85 Q48.9 51.75 48.45 52.3 48.1 52.7 48.1 53.0 L48.2 53.3 46.65 53.05 45.7 52.8 45.65 52.45 45.9 51.0 46.2 50.25 46.95 49.95 48.2 50.25 48.8 50.45 Q50.5 50.9 52.55 51.85 L53.55 52.4 53.65 52.45 54.65 53.05 M47.2 50.85 L46.95 51.05 46.85 51.15 46.65 51.55 Q46.65 51.95 46.9 52.05 L47.3 52.15 47.9 51.85 48.15 51.3 Q48.15 50.85 47.45 50.85 L47.2 50.85" fill="#aa9dcb" fill-rule="evenodd" stroke="none"/>
      <path d="M47.2 50.85 L47.45 50.85 Q48.15 50.85 48.15 51.3 L47.9 51.85 47.3 52.15 46.9 52.05 Q46.65 51.95 46.65 51.55 L46.85 51.15 46.95 51.05 47.2 50.85" fill="#c0b6eb" fill-rule="evenodd" stroke="none"/>
      <path d="M44.6 53.6 L42.1 53.6 42.1 53.4 Q42.1 52.45 42.25 51.75 L42.9 51.5 46.2 50.25 45.9 51.0 45.65 52.45 45.7 52.8 45.95 53.25 46.05 53.3 44.6 53.6" fill="#2d1e3d" fill-rule="evenodd" stroke="none"/>
      <path d="M42.1 53.6 L36.9 53.6 36.85 53.55 37.6 53.35 38.85 52.9 42.25 51.75 Q42.1 52.45 42.1 53.4 L42.1 53.6" fill="#342544" fill-rule="evenodd" stroke="none"/>
      <path d="M36.9 53.6 L36.7 53.6 36.85 53.55 36.9 53.6" fill="#3c274e" fill-rule="evenodd" stroke="none"/>
      <path d="M54.65 53.55 L54.65 53.6 51.5 53.6 51.2 53.4 51.15 53.3 50.85 53.05 50.1 53.15 48.3 53.3 48.2 53.3 48.1 53.0 Q48.1 52.7 48.45 52.3 48.9 51.75 49.75 51.85 L49.9 51.85 50.3 51.95 52.85 52.7 53.65 53.05 54.65 53.55" fill="#9888ad" fill-rule="evenodd" stroke="none"/>
      <path d="M51.5 53.6 L50.1 53.6 50.1 53.5 50.1 53.15 50.85 53.05 51.15 53.3 51.2 53.4 51.5 53.6" fill="#8f79a0" fill-rule="evenodd" stroke="none"/>
      <path d="M50.1 53.6 L44.6 53.6 46.05 53.3 45.95 53.25 45.7 52.8 46.65 53.05 48.2 53.3 48.3 53.3 50.1 53.15 50.1 53.5 50.1 53.6" fill="#6a5f8a" fill-rule="evenodd" stroke="none"/>
      <path d="M37.65 45.85 L37.65 46.15 37.35 45.85 37.1 45.65 35.65 44.75 34.35 44.3 33.5 44.15 33.15 44.15 33.05 44.1 32.4 43.3 34.15 43.55 35.6 44.0 35.8 44.1 37.6 45.2 37.65 45.85" fill="#8adee9" fill-rule="evenodd" stroke="none"/>
      <path d="M30.8 43.95 L31.95 43.25 32.4 43.3 33.05 44.1 33.15 44.15 33.5 44.15 34.35 44.3 34.7 45.5 34.45 45.55 34.4 45.6 34.05 45.7 33.05 46.2 30.95 43.95 30.8 43.95" fill="#6a7de4" fill-rule="evenodd" stroke="none"/>
      <path d="M34.45 45.55 L34.7 45.5 35.55 45.25 35.6 45.3 36.15 45.8 36.7 46.35 37.5 47.4 37.0 47.3 36.35 47.1 35.6 47.3 35.45 47.3 35.05 46.55 34.5 45.65 34.45 45.55" fill="#776782" fill-rule="evenodd" stroke="none"/>
      <path d="M33.05 46.2 L34.05 45.7 34.4 45.6 34.45 45.55 34.5 45.65 35.05 46.55 35.45 47.3 35.2 47.55 35.05 47.5 34.4 47.7 34.15 47.4 33.05 46.2" fill="#2e2538" fill-rule="evenodd" stroke="none"/>
      <path d="M34.4 47.7 L35.05 47.5 35.2 47.55 35.45 47.3 36.1 48.5 36.25 48.75 35.45 49.05 34.4 47.7" fill="#372348" fill-rule="evenodd" stroke="none"/>
      <path d="M36.25 48.75 L37.15 48.6 37.8 48.8 37.95 48.85 38.0 49.55 37.5 50.2 37.3 50.4 36.65 50.3 36.3 50.3 36.05 50.3 35.8 49.5 35.45 49.05 36.25 48.75" fill="#30122a" fill-rule="evenodd" stroke="none"/>
      <path d="M37.65 46.15 L37.75 47.1 37.8 47.55 37.85 47.95 37.5 47.4 36.7 46.35 36.15 45.8 35.6 45.3 35.55 45.25 34.7 45.5 34.35 44.3 35.65 44.75 37.1 45.65 37.35 45.85 37.65 46.15" fill="#619de6" fill-rule="evenodd" stroke="none"/>
      <path d="M35.45 47.3 L35.6 47.3 36.35 47.1 37.0 47.3 37.5 47.4 37.85 47.95 37.95 48.85 37.8 48.8 37.15 48.6 36.25 48.75 36.1 48.5 35.45 47.3" fill="#7e6f90" fill-rule="evenodd" stroke="none"/>
      <path d="M36.65 53.6 L36.5 53.6 36.25 52.95 35.1 50.6 34.7 50.0 34.5 50.0 33.9 49.9 32.05 49.7 31.8 49.7 31.6 49.75 31.6 49.4 31.5 48.3 31.4 47.8 Q30.6 46.95 29.15 46.95 L28.95 46.95 28.05 47.05 27.7 46.55 25.85 43.8 27.5 43.9 28.55 43.95 29.1 43.95 29.4 44.45 30.05 45.5 31.65 47.05 32.6 47.45 33.4 47.55 34.15 47.4 34.4 47.7 35.45 49.05 35.8 49.5 36.05 50.3 36.35 51.4 36.65 53.6" fill="#9183a6" fill-rule="evenodd" stroke="none"/>
      <path d="M27.15 53.6 L27.1 53.6 27.0 51.8 27.0 51.65 27.1 51.65 27.15 53.5 27.15 53.6 M25.05 45.8 L25.4 46.35 26.3 47.95 25.95 48.4 25.8 48.85 23.7 50.95 23.05 49.65 25.7 47.85 25.05 45.8" fill="#321c31" fill-rule="evenodd" stroke="none"/>
      <path d="M36.5 53.6 L33.9 53.6 33.9 53.5 33.9 53.4 33.9 52.9 33.9 52.85 32.6 51.5 31.95 50.85 31.6 50.5 31.6 49.75 31.8 49.7 32.05 49.7 33.9 49.9 34.5 50.0 34.7 50.0 35.1 50.6 36.25 52.95 36.5 53.6 M25.4 46.35 L26.4 47.8 26.3 47.95 25.4 46.35" fill="#685d7b" fill-rule="evenodd" stroke="none"/>
      <path d="M25.25 53.6 L23.7 53.6 22.7 51.95 22.55 51.65 22.2 51.1 21.5 49.8 21.75 49.85 22.5 49.95 22.75 49.85 23.05 49.65 23.7 50.95 24.0 51.45 24.5 52.45 25.25 53.6" fill="#aad5de" fill-rule="evenodd" stroke="none"/>
      <path d="M27.1 53.6 L25.25 53.6 24.5 52.45 24.0 51.45 23.7 50.95 25.8 48.85 25.7 49.45 25.95 50.55 26.0 50.75 Q26.2 51.35 27.0 51.65 L27.0 51.8 27.1 53.6" fill="#251633" fill-rule="evenodd" stroke="none"/>
      <path d="M29.1 43.95 L30.8 43.95 30.95 43.95 33.05 46.2 34.15 47.4 33.4 47.55 32.6 47.45 31.65 47.05 30.05 45.5 29.4 44.45 29.1 43.95" fill="#9182b9" fill-rule="evenodd" stroke="none"/>
      <path d="M30.5 28.15 L31.1 27.85 32.0 29.55 32.95 30.75 Q34.6 32.35 36.35 33.45 L36.6 33.55 37.65 32.8 39.4 31.45 38.9 33.25 37.9 33.7 35.9 34.6 34.7 33.9 32.05 32.25 29.8 30.85 28.7 30.8 28.45 30.8 28.5 31.7 29.45 33.1 27.15 32.3 Q26.7 31.65 26.35 30.6 27.65 29.75 28.9 29.05 L30.5 28.15 M29.55 33.25 L29.8 33.7 29.95 33.9 29.75 33.9 29.55 33.25" fill="#887ca0" fill-rule="evenodd" stroke="none"/>
      <path d="M34.05 35.55 L33.6 35.35 33.0 35.55 32.95 35.7 Q32.95 36.4 33.45 36.8 L33.7 37.0 33.4 38.1 32.9 40.45 32.7 41.5 29.95 42.05 29.8 42.0 28.95 41.75 28.55 41.65 28.25 41.55 26.3 40.75 25.95 40.45 Q25.4 39.8 25.0 38.65 L24.85 38.2 25.4 38.15 25.5 38.25 25.6 38.25 27.55 38.35 30.4 38.2 31.25 38.1 31.15 37.85 Q31.05 36.0 29.95 33.9 L29.8 33.7 29.55 33.25 29.5 33.1 29.45 33.1 28.5 31.7 28.45 30.8 28.7 30.8 29.8 30.85 32.05 32.25 34.7 33.9 34.05 35.55" fill="#d8eaec" fill-rule="evenodd" stroke="none"/>
      <path d="M33.7 37.0 L33.45 36.8 Q32.95 36.4 32.95 35.7 L33.0 35.55 33.6 35.35 34.05 35.55 34.05 35.6 Q34.4 35.9 34.4 36.55 34.4 37.05 34.0 37.05 L33.7 37.0" fill="#edffff" fill-rule="evenodd" stroke="none"/>
      <path d="M34.05 35.55 L34.7 33.9 35.9 34.6 37.9 33.7 37.95 33.9 37.9 34.55 Q37.05 35.1 36.25 36.2 L36.2 36.25 36.2 36.3 36.05 36.5 35.3 37.85 36.15 38.45 36.65 38.65 35.8 40.25 35.8 40.35 35.75 40.35 35.05 40.7 32.7 41.5 32.9 40.45 33.4 38.1 33.7 37.0 34.0 37.05 Q34.4 37.05 34.4 36.55 34.4 35.9 34.05 35.6 L34.05 35.55" fill="#dae8e9" fill-rule="evenodd" stroke="none"/>
      <path d="M36.7 40.1 L35.95 40.65 35.3 41.05 35.05 41.2 34.9 41.35 32.5 42.65 30.4 43.35 28.85 43.0 26.05 42.15 24.35 41.5 24.3 41.45 23.25 38.95 24.4 37.05 25.4 38.15 24.85 38.2 25.0 38.65 Q25.4 39.8 25.95 40.45 L26.3 40.75 28.25 41.55 28.55 41.65 28.95 41.75 29.8 42.0 29.95 42.05 32.7 41.5 35.05 40.7 35.75 40.35 35.8 40.35 35.8 40.25 37.55 39.35 36.7 40.1 M29.95 33.9 Q31.05 36.0 31.15 37.85 L30.45 35.85 29.75 33.9 29.95 33.9" fill="#8d80ac" fill-rule="evenodd" stroke="none"/>
      <path d="M36.25 36.2 Q37.05 35.1 37.9 34.55 L37.95 33.9 37.9 33.7 38.9 33.25 38.7 34.25 38.7 34.3 38.55 34.45 37.6 35.0 36.25 36.2 M36.15 38.45 L35.3 37.85 36.05 36.5 36.2 36.3 36.1 37.85 36.15 38.45 36.9 38.65 38.0 38.9 37.8 39.05 37.55 39.35 35.8 40.25 36.65 38.65 36.15 38.45 M38.35 38.3 L38.3 38.55 38.15 38.75 38.2 38.3 38.35 38.3" fill="#abafcc" fill-rule="evenodd" stroke="none"/>
      <path d="M24.6 31.65 L25.85 30.85 26.35 30.6 Q26.7 31.65 27.15 32.3 L26.9 32.2 25.75 31.9 25.05 31.75 24.6 31.65 M23.25 38.95 L23.0 38.15 22.45 35.75 22.2 34.35 22.15 33.7 22.95 35.0 24.3 36.9 24.4 37.05 23.25 38.95" fill="#9285b1" fill-rule="evenodd" stroke="none"/>
      <path d="M31.3 27.75 L32.5 28.8 33.0 29.2 35.6 28.35 35.6 27.8 37.0 27.7 37.05 28.65 38.9 30.15 39.5 29.85 40.2 30.75 40.0 30.9 39.65 30.7 38.9 30.15 37.15 31.05 36.7 30.25 36.45 29.8 35.5 31.0 Q34.5 30.45 33.0 29.2 L32.8 29.25 32.0 29.55 31.1 27.85 31.3 27.75" fill="#33314d" fill-rule="evenodd" stroke="none"/>
      <path d="M36.2 23.3 L36.2 23.5 36.25 24.05 36.6 26.5 37.8 27.85 39.4 29.7 39.5 29.85 38.9 30.15 37.05 28.65 37.0 27.7 35.6 27.8 35.6 28.35 33.0 29.2 32.5 28.8 31.3 27.75 Q32.95 26.9 34.35 26.3 L34.05 24.05 33.9 23.45 33.9 23.0 33.8 21.95 33.8 21.7 33.8 21.5 34.1 21.4 35.6 22.75 35.85 23.0 36.0 23.1 36.2 23.3" fill="#151321" fill-rule="evenodd" stroke="none"/>
      <path d="M33.0 29.2 Q34.5 30.45 35.5 31.0 L36.45 29.8 36.7 30.25 37.15 31.05 38.9 30.15 39.65 30.7 40.0 30.9 39.4 31.45 37.65 32.8 36.6 33.55 36.35 33.45 Q34.6 32.35 32.95 30.75 L32.0 29.55 32.8 29.25 33.0 29.2 M37.2 32.0 L36.95 31.45 Q36.8 31.2 36.5 31.2 L36.35 31.25 36.05 31.3 35.9 31.45 35.7 31.85 Q35.7 32.6 36.5 32.7 36.9 32.7 37.05 32.4 L37.2 32.0" fill="#586480" fill-rule="evenodd" stroke="none"/>
      <path d="M37.2 32.0 L37.05 32.4 Q36.9 32.7 36.5 32.7 35.7 32.6 35.7 31.85 L35.9 31.45 36.05 31.3 36.35 31.25 36.5 31.2 Q36.8 31.2 36.95 31.45 L37.2 32.0" fill="#879db6" fill-rule="evenodd" stroke="none"/>
      <path d="M54.4 8.0 L54.65 8.15 54.65 8.3 Q53.2 8.55 50.95 9.75 L49.1 10.95 48.3 11.65 48.25 11.65 Q46.45 12.8 45.9 13.4 L45.25 14.4 44.65 14.1 44.35 13.95 44.0 13.85 44.45 13.0 44.75 12.5 44.9 12.25 45.5 11.85 Q46.95 10.9 48.6 10.15 49.55 9.65 50.55 9.3 52.5 8.5 54.4 8.0 M39.8 22.2 L39.95 22.2 40.3 22.1 40.8 22.0 41.35 21.85 41.6 22.55 Q40.9 23.85 40.8 25.5 L40.8 25.65 40.2 25.2 39.05 24.4 Q37.8 23.6 36.85 23.35 L36.75 23.3 36.65 23.3 36.9 22.85 37.3 22.15 39.05 22.4 39.8 22.2" fill="#9f87a1" fill-rule="evenodd" stroke="none"/>
      <path d="M48.3 6.15 L48.4 6.15 51.8 6.85 Q53.1 7.15 54.2 7.9 L54.4 8.0 Q52.5 8.5 50.55 9.3 49.55 9.65 48.6 10.15 L48.2 9.7 47.2 8.9 46.45 8.6 48.15 6.3 48.3 6.15" fill="#60446d" fill-rule="evenodd" stroke="none"/>
      <path d="M41.9 9.55 L44.15 8.5 46.75 6.05 48.3 6.15 48.15 6.3 46.45 8.6 45.35 9.65 Q43.9 11.0 42.15 11.55 L41.9 9.55" fill="#453051" fill-rule="evenodd" stroke="none"/>
      <path d="M36.7 11.85 L37.35 11.15 38.9 9.65 39.2 9.65 40.2 9.75 41.9 9.55 42.15 11.55 42.05 11.55 40.8 11.8 40.25 11.8 40.15 11.8 39.15 12.8 38.15 13.85 37.95 14.05 37.9 13.95 37.0 12.3 36.7 11.85" fill="#3f2741" fill-rule="evenodd" stroke="none"/>
      <path d="M40.8 11.8 L42.05 11.55 42.15 11.55 42.35 12.75 42.45 12.7 43.85 12.9 44.45 13.0 44.0 13.85 43.45 15.3 42.65 15.1 41.15 14.6 40.8 15.55 40.35 13.0 40.75 11.85 40.8 11.8" fill="#6e5670" fill-rule="evenodd" stroke="none"/>
      <path d="M40.8 11.8 L40.75 11.85 40.35 13.0 40.8 15.55 40.7 15.7 40.7 15.75 40.5 16.2 40.15 17.5 40.05 17.95 Q39.8 19.2 39.8 20.55 L39.75 21.35 39.8 22.2 39.05 22.4 37.3 22.15 37.7 21.4 38.7 19.5 39.55 17.85 39.5 17.75 39.25 17.0 37.95 14.05 38.15 13.85 39.15 12.8 40.15 11.8 40.25 11.8 40.8 11.8" fill="#5d405f" fill-rule="evenodd" stroke="none"/>
      <path d="M44.45 13.0 L43.85 12.9 42.45 12.7 42.35 12.75 42.15 11.55 Q43.9 11.0 45.35 9.65 L46.45 8.6 47.2 8.9 48.2 9.7 48.6 10.15 Q46.95 10.9 45.5 11.85 L44.9 12.25 44.75 12.5 44.45 13.0" fill="#4e355d" fill-rule="evenodd" stroke="none"/>
      <path d="M43.45 15.3 L44.0 13.85 44.35 13.95 44.65 14.1 45.25 14.4 44.95 15.5 Q44.8 16.1 44.8 16.8 L45.0 18.05 45.2 18.75 45.45 19.25 Q44.55 19.6 43.8 20.15 L43.6 20.3 42.9 20.95 42.65 21.1 42.1 21.85 42.0 21.95 41.75 22.35 41.6 22.55 41.35 21.85 40.8 22.0 40.3 22.1 39.95 22.2 40.8 21.05 40.9 21.0 41.3 20.5 41.45 20.35 42.55 19.4 43.0 19.15 43.15 19.05 43.05 17.95 43.1 17.2 43.45 15.3 M44.05 17.75 L43.95 17.85 43.9 17.9 Q43.75 18.05 43.75 18.55 L43.85 19.2 Q43.95 19.6 44.3 19.65 L44.75 19.4 44.9 18.9 44.65 18.05 44.55 17.95 44.1 17.7 44.05 17.75" fill="#bfa2c0" fill-rule="evenodd" stroke="none"/>
      <path d="M47.1 13.55 L47.0 14.0 47.0 14.5 47.25 15.7 Q47.6 16.4 48.45 16.95 49.8 17.75 51.9 17.75 L53.05 17.7 50.3 20.45 49.35 20.05 48.35 19.55 47.8 19.3 48.0 19.2 47.95 19.2 46.9 18.25 Q46.35 17.4 46.35 15.95 L46.45 14.8 Q46.6 14.05 47.1 13.55 M44.25 22.95 L43.95 22.95 44.25 23.6 44.45 23.85 Q45.2 25.0 46.45 25.7 L46.8 25.8 47.2 26.05 Q48.7 26.6 51.05 26.95 L49.15 27.6 46.25 28.6 45.45 28.85 45.4 28.8 45.2 28.7 44.1 27.7 Q43.25 26.8 42.8 25.65 L42.65 25.15 42.75 24.95 43.0 24.15 43.55 23.3 Q43.25 22.95 43.25 22.55 L43.35 22.2 44.25 22.95" fill="#775d8a" fill-rule="evenodd" stroke="none"/>
      <path d="M48.3 11.65 Q47.4 12.55 47.1 13.55 46.6 14.05 46.45 14.8 L46.35 15.95 Q46.35 17.4 46.9 18.25 L46.65 18.3 45.35 18.1 45.0 18.05 44.8 16.8 Q44.8 16.1 44.95 15.5 L45.25 14.4 45.9 13.4 Q46.45 12.8 48.25 11.65 L48.3 11.65" fill="#361737" fill-rule="evenodd" stroke="none"/>
      <path d="M46.9 18.25 L47.95 19.2 48.0 19.2 47.8 19.3 45.65 20.1 Q43.55 21.15 43.35 22.2 L43.25 22.55 Q43.25 22.95 43.55 23.3 L43.0 24.15 42.75 24.95 42.55 24.65 42.35 24.15 41.85 23.05 41.6 22.55 41.75 22.35 42.0 21.95 42.1 21.85 42.65 21.1 42.9 20.95 43.6 20.3 43.8 20.15 Q44.55 19.6 45.45 19.25 L45.2 18.75 45.0 18.05 45.35 18.1 46.65 18.3 46.9 18.25" fill="#371f39" fill-rule="evenodd" stroke="none"/>
      <path d="M50.3 20.45 L49.2 21.2 47.2 22.3 44.25 22.95 43.35 22.2 Q43.55 21.15 45.65 20.1 L47.8 19.3 48.35 19.55 49.35 20.05 50.3 20.45" fill="#4b345e" fill-rule="evenodd" stroke="none"/>
      <path d="M40.8 15.55 L41.15 14.6 42.65 15.1 43.45 15.3 43.1 17.2 43.05 17.95 43.15 19.05 43.0 19.15 42.65 19.0 Q41.9 18.75 41.1 18.2 L40.9 18.05 40.15 17.5 40.5 16.2 40.7 15.75 40.7 15.7 40.8 15.55" fill="#856b88" fill-rule="evenodd" stroke="none"/>
      <path d="M40.15 17.5 L40.9 18.05 41.1 18.2 Q41.9 18.75 42.65 19.0 L43.0 19.15 42.55 19.4 41.45 20.35 41.3 20.5 40.9 21.0 40.8 21.05 39.95 22.2 39.8 22.2 39.75 21.35 39.8 20.55 Q39.8 19.2 40.05 17.95 L40.15 17.5" fill="#947998" fill-rule="evenodd" stroke="none"/>
      <path d="M44.05 17.75 L44.1 17.7 44.55 17.95 44.65 18.05 44.9 18.9 44.75 19.4 44.3 19.65 Q43.95 19.6 43.85 19.2 L43.75 18.55 Q43.75 18.05 43.9 17.9 L43.95 17.85 44.05 17.75" fill="#e1c3e2" fill-rule="evenodd" stroke="none"/>
      <path d="M41.6 22.55 L41.85 23.05 42.35 24.15 42.55 24.65 42.75 24.95 42.65 25.15 42.45 27.2 42.55 28.15 42.45 28.15 42.45 28.1 42.2 27.95 42.15 27.95 41.0 27.55 39.7 27.4 39.55 27.4 Q38.7 27.45 37.9 27.8 L37.8 27.85 36.6 26.5 36.25 24.05 36.2 23.5 36.2 23.3 36.45 23.55 36.65 23.3 36.75 23.3 36.85 23.35 Q37.8 23.6 39.05 24.4 L40.2 25.2 40.8 25.65 40.8 25.5 Q40.9 23.85 41.6 22.55" fill="#2f1135" fill-rule="evenodd" stroke="none"/>
      <path d="M43.9 36.45 L43.9 36.55 43.4 35.65 43.25 33.6 42.9 30.25 42.45 28.15 42.55 28.15 42.45 27.2 42.65 25.15 42.8 25.65 Q43.25 26.8 44.1 27.7 L45.2 28.7 45.4 28.8 45.35 28.85 45.35 28.9 44.65 29.9 Q43.4 32.0 43.4 34.45 L43.8 36.0 43.9 36.45" fill="#422e51" fill-rule="evenodd" stroke="none"/>
      <path d="M51.05 26.95 L51.3 27.0 Q47.95 28.85 46.45 31.25 L46.35 31.4 46.2 31.6 Q44.8 33.95 44.05 36.0 L43.9 36.45 43.8 36.0 43.4 34.45 Q43.4 32.0 44.65 29.9 L45.35 28.9 45.35 28.85 45.45 28.85 46.25 28.6 49.15 27.6 51.05 26.95" fill="#69597e" fill-rule="evenodd" stroke="none"/>
      <path d="M43.4 35.65 L42.2 33.75 41.75 33.05 41.7 32.95 40.2 30.75 39.5 29.85 39.4 29.7 37.8 27.85 37.9 27.8 Q38.7 27.45 39.55 27.4 L39.7 27.4 41.0 27.55 42.15 27.95 42.2 27.95 42.45 28.1 42.45 28.15 42.9 30.25 43.25 33.6 43.4 35.65" fill="#3d203f" fill-rule="evenodd" stroke="none"/>
      <path d="M29.45 33.1 L29.5 33.1 29.55 33.25 29.75 33.9 30.45 35.85 31.15 37.85 31.25 38.1 30.4 38.2 27.55 38.35 25.6 38.25 25.5 38.25 25.4 38.15 24.4 37.05 24.5 36.85 24.65 36.55 24.65 36.45 24.7 36.55 25.15 37.1 26.55 37.55 28.7 37.8 30.2 37.75 29.9 36.45 29.8 36.1 29.25 34.1 28.45 33.7 27.8 33.4 27.15 33.15 26.5 32.9 26.9 32.2 27.15 32.3 29.45 33.1" fill="#fff582" fill-rule="evenodd" stroke="none"/>
      <path d="M22.1 33.4 L22.35 33.2 22.5 33.1 22.5 33.25 23.75 35.15 24.6 36.35 24.65 36.45 24.65 36.55 24.5 36.85 24.4 37.05 24.3 36.9 22.95 35.0 22.15 33.7 22.1 33.4 M24.6 31.65 L25.05 31.75 25.75 31.9 26.9 32.2 26.5 32.9 25.8 32.7 25.05 32.45 24.6 32.25 23.95 32.1 24.6 31.65" fill="#fdec92" fill-rule="evenodd" stroke="none"/>
      <path d="M23.95 32.1 L24.6 32.25 25.05 32.45 25.0 32.8 25.05 33.3 24.05 33.15 24.05 32.9 23.8 32.75 23.55 32.35 23.95 32.1" fill="#efa044" fill-rule="evenodd" stroke="none"/>
      <path d="M23.55 32.35 L23.8 32.75 24.05 32.9 24.05 33.15 24.0 33.25 24.05 33.8 24.85 34.8 25.15 35.15 24.6 36.35 23.75 35.15 22.5 33.25 22.5 33.1 23.55 32.35" fill="#d84300" fill-rule="evenodd" stroke="none"/>
      <path d="M25.05 32.45 L25.8 32.7 26.5 32.9 27.15 33.15 27.8 33.4 26.9 33.45 25.95 33.4 25.05 33.3 25.0 32.8 25.05 32.45" fill="#db8a00" fill-rule="evenodd" stroke="none"/>
      <path d="M24.05 33.15 L25.05 33.3 25.95 33.4 26.05 33.6 26.15 34.0 25.4 34.0 25.4 34.2 25.4 34.45 25.45 34.8 25.7 35.1 26.15 35.5 26.15 35.55 25.95 36.05 25.45 35.45 25.15 35.15 24.85 34.8 24.05 33.8 24.0 33.25 24.05 33.15" fill="#fce839" fill-rule="evenodd" stroke="none"/>
      <path d="M38.2 36.25 L38.35 35.2 38.55 35.0 38.9 34.8 38.7 36.0 38.35 38.25 38.35 38.3 38.2 38.3 37.45 38.4 36.55 38.2 36.55 37.9 37.05 37.8 37.4 37.65 37.65 37.55 38.05 37.25 38.1 37.1 38.2 36.25 M24.65 36.45 L24.6 36.35 25.15 35.15 25.45 35.45 25.95 36.05 26.5 36.55 27.7 36.65 28.0 36.65 28.6 36.55 29.35 36.5 29.3 36.1 29.9 36.45 30.2 37.75 28.7 37.8 26.55 37.55 25.15 37.1 24.7 36.55 24.65 36.45" fill="#e45f00" fill-rule="evenodd" stroke="none"/>
      <path d="M28.9 34.7 L28.45 33.7 29.25 34.1 29.8 36.1 29.9 36.45 29.3 36.1 29.2 35.55 28.9 34.7" fill="#e78300" fill-rule="evenodd" stroke="none"/>
      <path d="M37.9 36.3 L38.2 36.25 38.1 37.1 38.05 37.25 37.65 37.55 37.4 37.65 37.05 37.8 37.05 37.4 37.25 37.4 37.55 37.3 37.9 36.3 M27.8 34.8 L28.9 34.7 29.2 35.55 29.3 36.1 29.35 36.5 28.6 36.55 28.0 36.65 27.7 36.65 27.5 36.05 Q27.6 36.0 27.85 35.9 L28.3 35.65 27.8 34.8" fill="#ffc705" fill-rule="evenodd" stroke="none"/>
      <path d="M37.9 36.3 L37.7 36.35 37.55 36.35 37.25 36.85 37.1 37.3 37.05 37.4 37.05 37.8 36.55 37.9 36.55 37.6 36.6 36.85 37.9 35.55 38.35 35.2 38.2 36.25 37.9 36.3 M26.15 34.0 L26.05 33.6 25.95 33.4 26.9 33.45 27.8 33.4 28.45 33.7 28.9 34.7 27.8 34.8 27.75 34.8 27.05 34.0 26.6 34.0 26.15 34.0" fill="#f9e021" fill-rule="evenodd" stroke="none"/>
      <path d="M37.05 37.4 L37.1 37.3 37.25 36.85 37.55 36.35 37.7 36.35 37.9 36.3 37.55 37.3 37.25 37.4 37.05 37.4 M26.6 34.0 L27.05 34.0 27.75 34.8 27.8 34.8 28.3 35.65 27.85 35.9 Q27.6 36.0 27.5 36.05 L26.6 34.0" fill="#fff964" fill-rule="evenodd" stroke="none"/>
      <path d="M26.15 35.5 L25.7 35.1 25.45 34.8 25.4 34.45 25.4 34.2 25.4 34.0 26.15 34.0 26.6 34.0 27.5 36.05 27.15 36.1 27.05 36.1 26.3 35.6 26.15 35.5" fill="#fff881" fill-rule="evenodd" stroke="none"/>
      <path d="M25.95 36.05 L26.15 35.55 26.15 35.5 26.3 35.6 27.05 36.1 27.15 36.1 27.5 36.05 27.7 36.65 26.5 36.55 25.95 36.05" fill="#ffd221" fill-rule="evenodd" stroke="none"/>
      <path d="M13.05 48.5 L13.15 47.05 13.3 47.05 13.3 46.95 13.55 46.75 Q13.9 46.55 14.65 46.45 L15.3 46.4 16.45 46.6 16.85 46.75 17.4 47.0 18.1 47.45 18.25 47.6 18.55 47.85 16.7 47.55 16.45 47.6 16.4 47.85 16.3 48.85 16.2 50.55 13.05 48.5" fill="#381f3f" fill-rule="evenodd" stroke="none"/>
      <path d="M16.3 48.85 L16.4 47.85 16.45 47.6 16.7 47.55 18.55 47.85 Q19.25 48.6 19.4 49.55 L18.3 51.3 17.3 50.5 16.3 48.85" fill="#412949" fill-rule="evenodd" stroke="none"/>
      <path d="M16.2 50.55 L16.3 48.85 17.3 50.5 18.3 51.3 18.05 51.75 16.2 50.55" fill="#422a4a" fill-rule="evenodd" stroke="none"/>
      <path d="M17.8 36.95 L21.1 34.1 21.15 34.45 21.4 36.25 21.5 36.95 20.55 38.65 18.8 37.35 18.35 37.55 17.8 36.95" fill="#321436" fill-rule="evenodd" stroke="none"/>
      <path d="M21.1 34.1 L22.1 33.4 22.15 33.7 22.2 34.35 22.45 35.75 23.0 38.15 23.25 38.95 24.3 41.45 24.35 41.5 25.85 43.8 27.7 46.55 28.05 47.05 27.95 47.1 27.7 47.1 26.6 45.8 26.3 45.45 25.0 43.7 23.3 41.3 22.85 40.65 22.2 39.7 21.5 36.95 21.4 36.25 21.15 34.45 21.1 34.1" fill="#6a5370" fill-rule="evenodd" stroke="none"/>
      <path d="M27.7 47.1 L27.95 47.1 28.05 47.05 28.95 46.95 29.15 46.95 Q30.6 46.95 31.4 47.8 L31.5 48.3 29.95 47.9 29.05 47.95 29.0 47.95 28.65 48.05 28.25 48.15 28.25 48.2 28.1 48.25 28.05 48.2 27.4 48.15 27.4 48.05 27.5 47.2 27.55 47.2 27.7 47.1" fill="#ecc24a" fill-rule="evenodd" stroke="none"/>
      <path d="M29.15 48.95 L29.05 48.8 29.05 48.75 28.4 48.35 28.2 48.3 28.1 48.25 28.25 48.2 28.25 48.15 28.65 48.05 29.0 47.95 29.05 47.95 29.95 47.9 31.5 48.3 31.6 49.4 31.6 49.75 31.6 50.5 30.85 49.75 30.3 49.25 30.15 49.1 29.75 49.05 29.7 49.0 29.3 48.95 29.15 48.95" fill="#fff149" fill-rule="evenodd" stroke="none"/>
      <path d="M26.4 47.8 L26.75 47.55 Q27.1 47.3 27.5 47.2 L27.4 48.05 27.4 48.15 28.05 48.2 28.1 48.25 28.2 48.3 28.4 48.35 29.05 48.75 29.05 48.8 29.15 48.95 29.05 48.95 28.9 48.95 28.2 49.1 Q27.85 49.2 27.55 49.45 L27.4 49.6 27.2 49.55 27.1 49.55 26.85 49.4 26.45 49.15 26.05 48.55 25.95 48.4 26.3 47.95 26.4 47.8" fill="#f74700" fill-rule="evenodd" stroke="none"/>
      <path d="M20.55 38.65 L21.5 36.95 22.2 39.7 22.85 40.65 23.3 41.3 25.0 43.7 26.3 45.45 26.6 45.8 27.7 47.1 27.55 47.2 27.5 47.2 Q27.1 47.3 26.75 47.55 L26.4 47.8 25.4 46.35 25.05 45.8 24.5 44.55 23.85 43.2 23.15 41.95 23.1 41.9 22.3 40.7 20.55 38.65" fill="#281c28" fill-rule="evenodd" stroke="none"/>
      <path d="M25.95 48.4 L26.05 48.55 26.45 49.15 26.85 49.4 27.1 49.55 27.2 49.55 27.4 49.6 27.3 49.75 27.05 50.0 27.1 51.65 27.0 51.65 Q26.2 51.35 26.0 50.75 L25.95 50.55 25.7 49.45 25.8 48.85 25.95 48.4" fill="#a6463a" fill-rule="evenodd" stroke="none"/>
      <path d="M27.3 53.6 L27.15 53.6 27.15 53.5 27.1 51.65 27.05 50.0 27.3 49.75 27.4 49.6 27.55 49.45 Q27.85 49.2 28.2 49.1 L28.4 51.45 28.45 52.05 28.05 52.25 27.95 52.3 27.7 52.9 27.3 53.6" fill="#789bff" fill-rule="evenodd" stroke="none"/>
      <path d="M29.75 49.05 L30.15 49.1 30.3 49.25 30.85 49.75 31.6 50.5 31.95 50.85 32.6 51.5 Q32.3 51.55 31.95 51.75 31.2 52.05 30.95 52.3 L30.85 52.2 30.5 51.2 30.05 49.85 29.75 49.05" fill="#6fe2db" fill-rule="evenodd" stroke="none"/>
      <path d="M28.2 49.1 L28.9 48.95 29.05 48.95 29.15 48.95 29.3 48.95 29.5 49.6 30.2 51.85 29.8 51.75 28.8 51.95 28.5 52.05 28.45 52.05 28.4 51.45 28.2 49.1" fill="#654df9" fill-rule="evenodd" stroke="none"/>
      <path d="M33.5 53.6 L31.05 53.6 30.9 53.35 30.25 52.0 30.2 51.85 29.5 49.6 29.3 48.95 29.7 49.0 29.75 49.05 30.05 49.85 30.5 51.2 30.85 52.2 30.95 52.3 31.2 52.95 31.3 53.2 31.4 53.3 31.45 53.4 31.55 53.5 31.8 53.55 33.9 52.9 33.9 53.4 33.5 53.6" fill="#d1ffff" fill-rule="evenodd" stroke="none"/>
      <path d="M30.95 52.3 Q31.2 52.05 31.95 51.75 32.3 51.55 32.6 51.5 L33.9 52.85 33.9 52.9 31.8 53.55 31.55 53.5 31.45 53.4 31.4 53.3 31.3 53.2 31.2 52.95 30.95 52.3" fill="#4bf9e2" fill-rule="evenodd" stroke="none"/>
      <path d="M33.9 53.6 L33.5 53.6 33.9 53.4 33.9 53.5 33.9 53.6" fill="#5ac5f1" fill-rule="evenodd" stroke="none"/>
      <path d="M31.05 53.6 L30.75 53.6 30.9 53.35 31.05 53.6" fill="#6064fb" fill-rule="evenodd" stroke="none"/>
      <path d="M28.6 53.6 L27.3 53.6 27.7 52.9 27.95 52.3 28.05 52.25 28.45 52.05 28.45 52.1 28.6 53.6" fill="#73bafc" fill-rule="evenodd" stroke="none"/>
      <path d="M30.75 53.6 L28.6 53.6 28.45 52.1 28.45 52.05 28.5 52.05 28.8 51.95 29.8 51.75 30.2 51.85 30.25 52.0 30.9 53.35 30.75 53.6" fill="#6a4efb" fill-rule="evenodd" stroke="none"/>
      <path d="M2.25 45.95 Q1.95 45.95 1.65 45.65 L1.35 45.1 Q1.35 44.75 1.6 44.65 1.7 44.45 1.85 44.45 L2.35 44.65 2.65 45.35 Q2.7 45.95 2.25 45.95" fill="#d0c2f5" fill-rule="evenodd" stroke="none"/>
      <path d="M-0.25 45.9 L-0.25 44.1 0.45 43.95 1.15 43.8 4.05 43.1 4.8 43.5 3.75 44.75 3.25 45.5 3.25 45.55 3.35 47.55 3.35 47.85 3.4 48.15 3.4 48.3 2.6 49.0 1.85 49.5 1.75 49.05 1.7 48.65 1.6 48.3 0.85 46.05 -0.25 45.9 M2.25 45.95 Q2.7 45.95 2.65 45.35 L2.35 44.65 1.85 44.45 Q1.7 44.45 1.6 44.65 1.35 44.75 1.35 45.1 L1.65 45.65 Q1.95 45.95 2.25 45.95" fill="#a799cc" fill-rule="evenodd" stroke="none"/>
      <path d="M3.35 47.85 L3.35 47.55 3.25 45.55 3.25 45.5 3.75 44.75 4.8 43.5 8.15 45.45 12.9 48.4 11.85 48.95 11.65 49.1 8.8 47.4 7.95 47.35 4.9 47.6 3.65 47.8 3.35 47.85" fill="#8e7ea5" fill-rule="evenodd" stroke="none"/>
      <path d="M0.6 53.6 L-0.25 53.6 -0.25 51.85 0.05 51.3 1.2 49.35 1.7 48.65 1.75 49.05 1.85 49.5 2.6 49.0 3.4 48.3 3.4 48.15 3.35 47.85 3.65 47.8 4.9 47.6 7.95 47.35 8.8 47.4 11.65 49.1 12.95 49.95 15.1 51.55 12.9 50.35 12.45 50.1 10.9 49.3 10.05 48.85 7.25 47.65 5.25 48.85 4.05 49.65 3.4 50.15 0.8 52.2 0.6 53.45 0.6 53.6" fill="#ae98c6" fill-rule="evenodd" stroke="none"/>
      <path d="M-0.25 50.4 L-0.25 45.9 0.85 46.05 1.6 48.3 1.7 48.65 1.2 49.35 0.05 51.3 -0.25 50.4" fill="#43304e" fill-rule="evenodd" stroke="none"/>
      <path d="M3.4 50.15 L4.05 49.65 5.25 48.85 7.25 47.65 10.05 48.85 10.0 49.6 10.0 50.4 8.25 50.0 Q6.8 50.0 5.35 50.55 L4.8 50.75 4.15 51.1 4.05 52.2 3.95 52.2 3.4 50.15" fill="#27132f" fill-rule="evenodd" stroke="none"/>
      <path d="M18.25 53.6 L17.2 53.6 16.55 53.15 Q16.15 53.3 15.55 53.6 L14.0 53.6 11.1 51.8 10.85 51.2 10.4 50.55 10.35 50.5 10.0 50.4 10.0 49.6 10.05 48.85 10.9 49.3 12.45 50.1 12.9 50.35 15.1 51.55 16.3 52.25 17.05 52.75 18.25 53.6" fill="#2b1431" fill-rule="evenodd" stroke="none"/>
      <path d="M19.45 53.6 L18.25 53.6 17.05 52.75 16.3 52.25 15.1 51.55 12.95 49.95 11.65 49.1 11.85 48.95 12.9 48.4 13.05 48.5 16.2 50.55 18.05 51.75 18.45 52.0 19.25 52.55 19.25 52.6 19.45 53.6" fill="#9480b3" fill-rule="evenodd" stroke="none"/>
      <path d="M14.0 53.6 L13.75 53.6 13.55 53.5 13.5 53.5 11.35 52.4 11.2 52.1 11.1 51.8 14.0 53.6 M4.05 53.6 L1.95 53.6 1.95 53.5 Q2.7 52.85 3.95 52.2 L4.05 52.2 4.0 52.75 4.05 53.6" fill="#312346" fill-rule="evenodd" stroke="none"/>
      <path d="M1.95 53.6 L0.6 53.6 0.6 53.45 0.8 52.2 3.4 50.15 3.95 52.2 Q2.7 52.85 1.95 53.5 L1.95 53.6" fill="#2a1832" fill-rule="evenodd" stroke="none"/>
      <path d="M-0.25 51.85 L-0.25 50.4 0.05 51.3 -0.25 51.85" fill="#4e3e65" fill-rule="evenodd" stroke="none"/>
      <path d="M13.5 53.6 L11.3 53.6 11.35 53.25 11.45 52.8 11.45 52.75 11.35 52.4 13.5 53.5 13.55 53.5 13.5 53.6" fill="#9a8b9e" fill-rule="evenodd" stroke="none"/>
      <path d="M13.75 53.6 L13.5 53.6 13.55 53.5 13.75 53.6" fill="#b3a5bc" fill-rule="evenodd" stroke="none"/>
      <path d="M-0.25 -2.2 L0.35 -2.15 0.8 -1.3 1.15 -0.85 Q2.15 0.4 3.95 1.7 L5.8 3.95 Q6.75 5.2 7.8 7.4 L8.45 8.9 7.35 9.35 6.25 7.65 Q5.05 6.1 3.35 4.6 1.7 3.25 -0.05 2.2 L-0.25 2.1 -0.25 -2.2" fill="#5e4a66" fill-rule="evenodd" stroke="none"/>
      <path d="M-0.25 3.5 L-0.25 2.1 -0.05 2.2 0.0 3.6 -0.25 3.5" fill="#3e1f3e" fill-rule="evenodd" stroke="none"/>
      <path d="M27.55 6.75 L27.8 6.95 30.5 9.2 32.35 11.55 32.05 12.2 31.15 14.2 30.9 14.9 30.55 15.8 29.1 15.4 28.3 15.0 27.15 14.2 Q27.3 13.5 27.6 12.9 L27.8 12.6 27.7 12.55 27.1 11.75 Q26.8 11.15 26.8 10.25 26.8 8.6 27.15 7.55 L27.55 6.75" fill="#583d5e" fill-rule="evenodd" stroke="none"/>
      <path d="M32.35 11.55 L32.75 12.05 33.2 12.75 33.3 12.95 32.7 13.85 32.05 15.05 Q31.55 16.05 31.2 17.2 L31.55 17.95 32.25 19.0 33.3 20.5 33.75 21.05 33.8 21.5 33.8 21.7 33.05 21.8 32.4 21.95 32.25 21.95 31.75 20.85 30.6 18.85 29.8 17.85 30.55 15.8 30.9 14.9 31.15 14.2 32.05 12.2 32.35 11.55" fill="#3f1c3a" fill-rule="evenodd" stroke="none"/>
      <path d="M22.6 7.2 L26.5 6.9 27.4 6.65 27.55 6.75 27.15 7.55 Q26.8 8.6 26.8 10.25 26.8 11.15 27.1 11.75 L26.05 12.7 Q25.05 13.55 23.45 13.95 L21.5 14.2 20.95 14.2 Q20.05 13.55 18.35 12.95 L17.55 12.65 19.0 11.75 Q20.7 10.65 22.0 8.3 L22.6 7.2" fill="#5e4563" fill-rule="evenodd" stroke="none"/>
      <path d="M18.9 7.1 L21.95 7.2 22.6 7.2 22.0 8.3 Q20.7 10.65 19.0 11.75 L17.55 12.65 13.45 11.95 13.1 11.9 9.8 12.25 9.6 11.75 9.45 11.2 12.45 10.45 14.05 9.75 18.9 7.1" fill="#44304c" fill-rule="evenodd" stroke="none"/>
      <path d="M27.15 14.2 Q26.85 15.15 26.85 16.3 L25.75 16.45 22.45 17.25 21.25 15.85 20.1 15.05 Q18.3 13.85 16.15 13.5 L16.25 13.4 17.55 12.65 18.35 12.95 Q20.05 13.55 20.95 14.2 L21.5 14.2 23.45 13.95 Q25.05 13.55 26.05 12.7 L27.1 11.75 27.7 12.55 27.8 12.6 27.6 12.9 Q27.3 13.5 27.15 14.2" fill="#6f5271" fill-rule="evenodd" stroke="none"/>
      <path d="M27.15 14.2 L28.3 15.0 29.1 15.4 30.55 15.8 29.8 17.85 30.6 18.85 31.75 20.85 32.25 21.95 30.9 22.5 30.15 20.85 29.9 20.45 Q28.55 20.2 27.8 19.45 L27.5 19.15 27.05 18.35 Q26.8 17.65 26.8 16.8 L26.85 16.45 26.85 16.3 Q26.85 15.15 27.15 14.2" fill="#573a59" fill-rule="evenodd" stroke="none"/>
      <path d="M26.85 16.3 L26.85 16.45 26.8 16.8 Q26.8 17.65 27.05 18.35 L27.5 19.15 27.8 19.45 Q25.75 20.95 23.5 21.2 L23.5 20.95 Q23.5 19.5 23.0 18.25 L22.8 17.85 22.45 17.25 25.75 16.45 26.85 16.3" fill="#745775" fill-rule="evenodd" stroke="none"/>
      <path d="M21.25 15.85 L22.45 17.25 22.8 17.85 23.0 18.25 Q23.5 19.5 23.5 20.95 L23.5 21.2 23.25 22.5 21.2 22.3 18.6 22.6 18.2 21.55 17.2 19.7 18.7 18.05 19.2 17.55 19.85 16.95 21.25 15.85" fill="#947191" fill-rule="evenodd" stroke="none"/>
      <path d="M17.2 19.7 L18.2 21.55 18.6 22.6 21.2 22.3 23.25 22.5 Q24.9 22.85 26.75 23.7 L26.75 23.8 26.7 24.35 26.75 25.6 25.8 25.35 25.0 25.25 23.0 25.1 22.5 25.15 22.0 25.15 18.95 25.65 17.85 25.95 17.75 25.95 17.65 25.6 Q17.4 24.25 16.75 23.05 L15.75 21.6 15.55 21.35 13.65 19.45 14.7 16.75 16.25 18.4 16.45 18.65 17.2 19.7" fill="#c6a5c4" fill-rule="evenodd" stroke="none"/>
      <path d="M16.05 27.1 L17.65 25.6 17.75 25.95 17.85 25.95 18.95 25.65 22.0 25.15 22.5 25.15 23.0 25.1 25.0 25.25 25.8 25.35 25.0 27.15 24.85 27.55 24.6 28.4 24.6 28.5 24.55 28.5 23.0 28.4 22.15 28.35 21.65 28.35 20.3 28.4 16.3 28.65 15.85 28.75 16.0 28.25 16.05 27.65 16.05 27.1" fill="#290f2a" fill-rule="evenodd" stroke="none"/>
      <path d="M27.8 19.45 Q28.55 20.2 29.9 20.45 L30.15 20.85 30.9 22.5 30.2 22.85 29.45 23.25 Q28.5 23.9 28.3 24.5 L26.8 23.7 26.75 23.7 Q24.9 22.85 23.25 22.5 L23.5 21.2 Q25.75 20.95 27.8 19.45" fill="#8f708f" fill-rule="evenodd" stroke="none"/>
      <path d="M30.9 22.5 L32.25 21.95 32.4 21.95 33.05 21.8 33.8 21.7 33.8 21.95 33.9 23.0 Q33.35 23.2 32.85 23.5 L31.75 24.15 31.3 24.4 30.4 25.15 29.95 25.55 29.3 26.05 29.0 26.4 28.8 26.3 28.65 26.25 27.45 25.8 26.75 25.6 26.7 24.35 26.75 23.8 26.75 23.7 26.8 23.7 28.3 24.5 Q28.5 23.9 29.45 23.25 L30.2 22.85 30.9 22.5" fill="#ac94ae" fill-rule="evenodd" stroke="none"/>
      <path d="M25.8 25.35 L26.75 25.6 27.45 25.8 28.65 26.25 28.8 26.3 29.0 26.4 29.3 26.05 29.95 25.55 30.4 25.15 30.4 25.6 30.45 26.65 30.5 27.5 30.5 28.15 28.9 29.05 25.8 28.6 24.6 28.5 24.6 28.4 24.85 27.55 25.0 27.15 25.8 25.35" fill="#29112b" fill-rule="evenodd" stroke="none"/>
      <path d="M33.9 23.0 L33.9 23.45 34.05 24.05 34.35 26.3 Q32.95 26.9 31.3 27.75 L31.1 27.85 30.5 28.15 30.5 27.5 30.45 26.65 30.4 25.6 30.4 25.15 31.3 24.4 31.75 24.15 32.85 23.5 Q33.35 23.2 33.9 23.0" fill="#2f1633" fill-rule="evenodd" stroke="none"/>
      <path d="M3.95 1.7 L5.85 2.9 Q8.9 4.75 12.25 5.75 L11.55 6.1 10.0 6.75 7.8 7.4 Q6.75 5.2 5.8 3.95 L3.95 1.7" fill="#40284a" fill-rule="evenodd" stroke="none"/>
      <path d="M12.25 5.75 Q15.45 6.75 18.9 7.1 L14.05 9.75 12.45 10.45 9.45 11.2 8.9 9.95 8.45 8.9 7.8 7.4 10.0 6.75 11.55 6.1 12.25 5.75" fill="#3d2945" fill-rule="evenodd" stroke="none"/>
      <path d="M17.55 12.65 L16.25 13.4 16.15 13.5 Q18.3 13.85 20.1 15.05 L21.25 15.85 19.85 16.95 19.2 17.55 18.7 18.05 17.2 19.7 16.45 18.65 16.25 18.4 14.7 16.75 11.9 14.85 10.4 14.25 9.8 12.25 13.1 11.9 13.45 11.95 17.55 12.65" fill="#846585" fill-rule="evenodd" stroke="none"/>
      <path d="M4.8 8.45 L2.8 5.7 Q1.55 4.45 0.0 3.6 L-0.05 2.2 Q1.7 3.25 3.35 4.6 5.05 6.1 6.25 7.65 L7.35 9.35 7.55 9.8 8.25 11.4 8.4 11.9 7.9 12.0 6.15 12.05 5.75 12.05 Q5.7 10.2 4.8 8.45" fill="#311933" fill-rule="evenodd" stroke="none"/>
      <path d="M-0.25 7.2 L-0.25 3.5 0.0 3.6 Q1.55 4.45 2.8 5.7 L4.8 8.45 4.75 8.45 Q1.85 7.3 -0.25 7.2" fill="#3f2c4a" fill-rule="evenodd" stroke="none"/>
      <path d="M-0.25 7.6 L-0.25 7.2 Q1.85 7.3 4.75 8.45 L4.8 8.45 Q5.7 10.2 5.75 12.05 L5.75 12.3 5.55 13.55 3.75 13.7 3.4 13.7 2.85 12.45 -0.25 7.6" fill="#3e2d4d" fill-rule="evenodd" stroke="none"/>
      <path d="M-0.25 18.3 L-0.25 14.3 1.25 14.1 1.9 14.0 1.8 13.65 3.4 13.7 3.9 15.1 3.75 15.3 Q3.25 16.05 3.25 17.05 L3.3 17.8 -0.25 18.3" fill="#5b4c73" fill-rule="evenodd" stroke="none"/>
      <path d="M9.35 25.2 L6.05 24.15 Q2.7 22.85 0.1 20.75 L-0.25 20.5 -0.25 18.45 Q1.7 19.95 4.15 20.95 7.0 22.15 10.7 22.7 L9.9 24.4 9.35 25.2 M1.8 13.65 Q1.15 11.75 -0.25 9.85 L-0.25 7.6 2.85 12.45 3.4 13.7 1.8 13.65" fill="#aaccd6" fill-rule="evenodd" stroke="none"/>
      <path d="M5.55 13.55 L5.4 14.4 5.35 14.8 5.35 14.85 6.4 17.65 6.9 19.55 Q8.65 19.7 10.25 20.35 L12.9 21.95 12.3 21.95 7.1 21.45 Q3.7 20.5 3.3 17.8 L3.25 17.05 Q3.25 16.05 3.75 15.3 L3.9 15.1 3.4 13.7 3.75 13.7 5.55 13.55" fill="#3a2949" fill-rule="evenodd" stroke="none"/>
      <path d="M8.4 11.9 L8.25 11.4 7.55 9.8 7.35 9.35 8.45 8.9 8.9 9.95 9.45 11.2 9.6 11.75 9.8 12.25 10.4 14.25 11.9 14.85 14.7 16.75 13.65 19.45 13.1 19.05 Q11.9 18.1 10.65 17.4 L9.35 16.85 8.65 16.55 Q8.9 14.75 8.65 13.1 L8.55 12.5 8.4 11.9" fill="#b497b3" fill-rule="evenodd" stroke="none"/>
      <path d="M5.75 12.05 L6.15 12.05 7.9 12.0 8.4 11.9 8.55 12.5 8.65 13.1 Q8.9 14.75 8.65 16.55 L9.35 16.85 10.65 17.4 10.25 20.35 Q8.65 19.7 6.9 19.55 L6.4 17.65 5.35 14.85 5.35 14.8 5.4 14.4 5.55 13.55 5.75 12.3 5.75 12.05" fill="#2c142e" fill-rule="evenodd" stroke="none"/>
      <path d="M3.75 27.55 L3.9 27.5 6.5 26.6 9.2 25.5 9.65 25.25 9.35 25.2 9.9 24.4 10.7 22.7 12.2 22.9 11.95 24.55 11.55 26.05 12.75 27.25 11.55 28.6 10.05 30.1 11.55 31.15 11.85 31.4 12.9 32.2 15.45 34.8 17.0 36.9 16.9 37.1 11.3 32.45 11.2 32.35 11.0 32.25 7.15 29.5 3.8 27.6 3.75 27.55" fill="#45355a" fill-rule="evenodd" stroke="none"/>
      <path d="M-0.25 18.45 L-0.25 18.3 3.3 17.8 Q3.7 20.5 7.1 21.45 L12.3 21.95 12.9 21.95 14.15 23.1 12.2 22.9 10.7 22.7 Q7.0 22.15 4.15 20.95 1.7 19.95 -0.25 18.45" fill="#5d4b75" fill-rule="evenodd" stroke="none"/>
      <path d="M10.65 17.4 Q11.9 18.1 13.1 19.05 L13.65 19.45 15.55 21.35 15.75 21.6 16.75 23.05 Q17.4 24.25 17.65 25.6 L16.05 27.1 Q15.9 25.8 15.3 24.6 L14.8 23.9 14.15 23.1 12.9 21.95 10.25 20.35 10.65 17.4" fill="#290f2c" fill-rule="evenodd" stroke="none"/>
      <path d="M12.2 22.9 L14.15 23.1 14.8 23.9 15.3 24.6 Q15.9 25.8 16.05 27.1 L16.05 27.65 16.0 28.25 15.85 28.75 16.3 28.65 20.3 28.4 18.75 29.9 17.8 30.95 Q16.2 30.15 13.75 28.1 L13.45 27.85 13.05 27.5 12.75 27.25 11.55 26.05 11.95 24.55 12.2 22.9" fill="#3d1b3e" fill-rule="evenodd" stroke="none"/>
      <path d="M18.75 29.9 L20.3 28.4 21.65 28.35 22.15 28.35 23.0 28.4 24.55 28.5 21.95 30.25 21.05 31.05 20.8 31.3 20.4 31.7 20.1 32.1 19.25 30.7 19.1 30.45 18.75 29.9" fill="#3d2245" fill-rule="evenodd" stroke="none"/>
      <path d="M17.8 30.95 L18.75 29.9 19.1 30.45 19.25 30.7 20.1 32.1 Q18.4 34.15 17.3 36.35 L17.0 36.9 15.45 34.8 15.6 34.5 Q16.3 33.0 17.3 31.6 L17.8 30.95" fill="#655079" fill-rule="evenodd" stroke="none"/>
      <path d="M12.75 27.25 L13.05 27.5 13.45 27.85 13.75 28.1 Q16.2 30.15 17.8 30.95 L17.3 31.6 Q16.3 33.0 15.6 34.5 L15.45 34.8 12.9 32.2 11.85 31.4 11.55 31.15 10.05 30.1 11.55 28.6 12.75 27.25" fill="#4a3a5e" fill-rule="evenodd" stroke="none"/>
      <path d="M10.4 34.05 L10.25 33.95 6.4 31.65 6.7 30.75 7.15 29.5 11.0 32.25 11.2 32.35 11.3 32.45 16.9 37.1 16.4 38.25 15.2 38.75 14.05 37.25 Q12.55 35.55 10.4 34.05" fill="#b0dce7" fill-rule="evenodd" stroke="none"/>
      <path d="M20.1 32.1 L20.4 31.7 20.8 31.3 21.05 31.05 22.05 32.7 22.35 33.2 22.1 33.4 21.1 34.1 17.8 36.95 17.25 37.45 17.0 36.9 17.3 36.35 Q18.4 34.15 20.1 32.1" fill="#785b89" fill-rule="evenodd" stroke="none"/>
      <path d="M6.4 31.65 L6.15 31.5 Q2.7 29.75 -0.25 28.85 L-0.25 28.3 2.4 27.9 3.75 27.55 3.8 27.6 7.15 29.5 6.7 30.75 6.4 31.65" fill="#a8dfe6" fill-rule="evenodd" stroke="none"/>
      <path d="M21.05 31.05 L21.95 30.25 24.55 28.5 24.6 28.5 25.8 28.6 28.9 29.05 Q27.65 29.75 26.35 30.6 L25.85 30.85 24.6 31.65 23.95 32.1 23.55 32.35 22.5 33.1 22.35 33.2 22.05 32.7 21.05 31.05" fill="#504263" fill-rule="evenodd" stroke="none"/>
      <path d="M33.3 12.95 L33.35 12.85 Q34.15 11.55 34.7 11.1 L35.1 10.6 35.25 10.5 35.45 12.0 35.1 12.95 34.5 14.9 34.05 16.65 33.7 15.8 33.65 15.75 33.45 15.3 33.3 15.1 32.4 15.05 32.05 15.05 32.7 13.85 33.3 12.95" fill="#6c3ddb" fill-rule="evenodd" stroke="none"/>
      <path d="M35.8 10.65 L35.9 10.8 36.7 11.85 37.0 12.3 37.9 13.95 37.45 13.85 37.1 13.85 36.25 13.75 36.25 13.65 36.2 13.4 36.1 12.8 35.85 11.0 35.8 10.65" fill="#41f0f5" fill-rule="evenodd" stroke="none"/>
      <path d="M35.25 10.5 L35.6 10.45 35.8 10.65 35.85 11.0 36.1 12.8 36.2 13.4 36.25 13.65 36.25 13.75 36.6 15.65 36.65 15.9 37.35 16.35 37.35 16.4 37.55 16.5 38.6 16.9 39.25 17.0 39.5 17.75 38.25 17.85 37.6 17.95 37.2 17.95 36.95 18.55 36.85 18.85 36.5 20.15 36.35 20.8 36.2 21.5 36.1 22.35 36.05 22.6 36.0 23.1 35.85 23.0 35.6 22.75 35.7 22.3 35.7 22.2 35.85 21.3 35.85 21.2 35.9 20.6 36.15 19.15 36.2 18.75 36.25 18.2 36.25 18.1 36.25 18.0 36.1 17.75 36.05 17.65 35.6 13.4 35.55 12.9 35.45 12.0 35.25 10.5 M37.2 16.75 Q37.1 16.6 36.95 16.6 L36.8 16.7 Q36.45 16.75 36.45 17.2 L36.55 17.5 Q36.6 17.75 36.9 17.75 L37.25 17.6 37.3 17.5 37.35 17.2 37.25 16.75 37.2 16.75" fill="#e1ffff" fill-rule="evenodd" stroke="none"/>
      <path d="M35.45 12.0 L35.55 12.9 35.6 13.4 36.05 17.65 35.9 17.65 35.55 17.75 34.6 17.95 34.45 17.55 34.45 17.5 34.05 16.65 34.5 14.9 35.1 12.95 35.45 12.0" fill="#7741ed" fill-rule="evenodd" stroke="none"/>
      <path d="M36.25 13.75 L37.1 13.85 37.45 13.85 37.9 13.95 37.95 14.05 39.25 17.0 38.6 16.9 37.55 16.5 37.35 16.4 37.35 16.35 36.65 15.9 36.6 15.65 36.25 13.75" fill="#38ffff" fill-rule="evenodd" stroke="none"/>
      <path d="M37.2 16.75 L37.25 16.75 37.35 17.2 37.3 17.5 37.25 17.6 36.9 17.75 Q36.6 17.75 36.55 17.5 L36.45 17.2 Q36.45 16.75 36.8 16.7 L36.95 16.6 Q37.1 16.6 37.2 16.75" fill="#fafafa" fill-rule="evenodd" stroke="none"/>
      <path d="M36.95 18.55 L37.2 17.95 37.6 17.95 38.25 17.85 39.5 17.75 39.55 17.85 38.7 19.5 37.6 19.0 37.55 18.95 36.95 18.55" fill="#77fff2" fill-rule="evenodd" stroke="none"/>
      <path d="M36.05 17.65 L36.1 17.75 36.25 18.0 36.25 18.1 36.25 18.2 36.2 18.75 36.15 19.15 35.9 20.6 35.85 21.2 35.85 21.3 35.7 22.2 35.2 20.15 35.05 19.6 34.6 17.95 35.55 17.75 35.9 17.65 36.05 17.65" fill="#5d59ec" fill-rule="evenodd" stroke="none"/>
      <path d="M36.65 23.3 L36.45 23.55 36.2 23.3 36.0 23.1 36.05 22.6 36.1 22.35 36.2 21.5 36.35 20.8 36.5 20.15 36.85 18.85 36.95 18.55 37.55 18.95 37.6 19.0 38.7 19.5 37.7 21.4 37.3 22.15 36.9 22.85 36.65 23.3" fill="#589ff7" fill-rule="evenodd" stroke="none"/>
      <path d="M32.05 15.05 L32.4 15.05 33.3 15.1 33.45 15.3 33.25 17.25 33.25 18.0 33.05 17.5 32.25 19.0 31.55 17.95 31.2 17.2 Q31.55 16.05 32.05 15.05" fill="#7aaeff" fill-rule="evenodd" stroke="none"/>
      <path d="M33.45 15.3 L33.65 15.75 33.7 15.8 34.05 16.65 34.45 17.5 34.45 17.55 34.1 17.75 33.65 18.05 33.35 18.2 33.3 18.05 33.25 18.0 33.25 17.25 33.45 15.3" fill="#708fff" fill-rule="evenodd" stroke="none"/>
      <path d="M33.35 18.2 L33.65 18.05 34.1 17.75 34.45 17.55 34.6 17.95 35.05 19.6 35.2 20.15 34.45 19.6 34.3 19.5 33.65 18.65 33.45 18.3 33.35 18.2" fill="#75a0ff" fill-rule="evenodd" stroke="none"/>
      <path d="M35.7 22.2 L35.7 22.3 35.6 22.75 34.1 21.4 33.75 21.05 33.3 20.5 32.25 19.0 33.05 17.5 33.25 18.0 33.3 18.05 33.35 18.2 33.45 18.3 33.65 18.65 34.3 19.5 34.45 19.6 35.2 20.15 35.7 22.2" fill="#72c4fe" fill-rule="evenodd" stroke="none"/>
      <path d="M36.25 36.2 L37.6 35.0 38.55 34.45 38.7 34.3 38.55 35.0 38.35 35.2 37.9 35.55 36.6 36.85 36.55 37.6 36.1 37.85 36.2 36.3 36.2 36.25 36.25 36.2" fill="#f6e885" fill-rule="evenodd" stroke="none"/>
      <path d="M36.15 38.45 L36.1 37.85 36.55 37.6 36.55 37.9 36.55 38.2 37.45 38.4 38.2 38.3 38.15 38.75 38.1 38.9 38.0 38.9 36.9 38.65 36.15 38.45" fill="#de9faa" fill-rule="evenodd" stroke="none"/>
      <path d="M17.2 53.6 L15.55 53.6 Q16.15 53.3 16.55 53.15 L17.2 53.6" fill="#d3e1e2" fill-rule="evenodd" stroke="none"/>
      <path d="M7.2 53.6 L7.0 53.6 6.8 53.3 5.85 51.7 5.7 51.45 5.35 50.55 Q6.8 50.0 8.25 50.0 L10.0 50.4 10.35 50.5 10.4 50.55 10.85 51.2 11.1 51.8 11.2 52.1 11.35 52.4 11.45 52.75 11.45 52.8 10.0 52.6 Q8.8 52.6 7.9 53.05 L7.2 53.6" fill="#ced6d9" fill-rule="evenodd" stroke="none"/>
      <path d="M7.0 53.6 L4.05 53.6 4.0 52.75 4.05 52.2 4.15 51.1 4.8 50.75 5.35 50.55 5.7 51.45 5.85 51.7 6.8 53.3 7.0 53.6" fill="#8a7a98" fill-rule="evenodd" stroke="none"/>
      <path d="M11.3 53.6 L7.2 53.6 7.9 53.05 Q8.8 52.6 10.0 52.6 L11.45 52.8 11.35 53.25 11.3 53.6" fill="#e6fcf9" fill-rule="evenodd" stroke="none"/>
      <path d="M18.4 38.05 L18.55 38.05 18.75 38.1 Q19.1 38.35 19.1 38.9 L18.9 39.5 18.65 39.8 18.3 39.95 18.05 39.9 17.85 39.45 17.7 39.1 17.9 38.35 Q18.1 38.05 18.4 38.05" fill="#eefff8" fill-rule="evenodd" stroke="none"/>
      <path d="M18.4 38.05 Q18.1 38.05 17.9 38.35 L17.7 39.1 17.85 39.45 18.05 39.9 18.3 39.95 18.65 39.8 18.9 39.5 19.1 38.9 Q19.1 38.35 18.75 38.1 L18.55 38.05 18.4 38.05 M18.35 37.55 L18.8 37.35 20.55 38.65 22.3 40.7 23.1 41.9 23.15 41.95 22.9 41.9 22.85 41.9 21.95 41.0 21.5 40.65 20.7 40.25 19.6 39.9 18.95 39.8 Q18.4 40.3 17.95 41.2 L17.8 41.5 17.75 41.55 16.9 43.3 17.1 41.35 17.15 40.55 17.3 39.45 17.55 37.8 18.35 37.55" fill="#8dfcfc" fill-rule="evenodd" stroke="none"/>
      <path d="M17.55 37.8 L17.3 39.45 17.15 40.55 16.85 40.5 15.85 40.65 15.4 39.65 16.4 38.7 17.4 37.85 17.55 37.8" fill="#7056ef" fill-rule="evenodd" stroke="none"/>
      <path d="M11.0 40.75 L12.2 40.15 12.55 39.9 12.6 39.9 Q14.0 39.2 14.85 38.85 L15.2 38.75 16.4 38.25 16.6 38.2 17.4 37.85 16.4 38.7 15.4 39.65 15.85 40.65 16.05 41.15 16.65 43.1 16.8 43.65 Q16.55 44.25 16.55 44.8 L16.55 44.9 16.25 44.95 16.25 44.7 Q15.9 42.3 15.3 41.0 L15.2 40.8 14.75 40.65 13.55 40.5 13.4 40.5 12.95 40.55 11.9 40.65 11.3 40.7 11.0 40.75" fill="#80a1ff" fill-rule="evenodd" stroke="none"/>
      <path d="M11.55 46.5 L10.6 45.4 10.2 44.9 9.55 43.9 9.65 41.8 9.65 41.5 10.85 40.85 Q10.95 40.75 11.0 40.75 L11.3 40.7 11.9 40.65 11.6 41.0 Q11.1 41.5 10.75 42.1 L10.9 42.55 11.6 44.5 12.05 45.3 12.45 46.0 11.55 46.5" fill="#acdbed" fill-rule="evenodd" stroke="none"/>
      <path d="M17.75 41.55 L17.8 41.5 17.95 41.2 Q18.4 40.3 18.95 39.8 L19.6 39.9 19.5 40.55 19.6 41.7 19.6 42.0 19.65 42.1 19.65 42.15 19.4 42.3 18.85 42.9 18.7 43.1 18.65 43.0 17.75 41.55" fill="#40d7f6" fill-rule="evenodd" stroke="none"/>
      <path d="M19.6 39.9 L20.7 40.25 21.5 40.65 21.95 41.0 22.85 41.9 22.1 41.95 21.0 42.05 19.7 42.25 19.65 42.25 19.65 42.15 19.65 42.1 19.6 42.0 19.6 41.7 19.5 40.55 19.6 39.9" fill="#46ccff" fill-rule="evenodd" stroke="none"/>
      <path d="M15.85 40.65 L16.85 40.5 17.15 40.55 17.1 41.35 16.9 43.3 16.9 44.0 17.1 44.85 16.85 44.85 16.75 44.85 16.55 44.9 16.55 44.8 Q16.55 44.25 16.8 43.65 L16.65 43.1 16.05 41.15 15.85 40.65" fill="#505dea" fill-rule="evenodd" stroke="none"/>
      <path d="M16.9 43.3 L17.75 41.55 18.65 43.0 18.7 43.1 Q18.0 44.05 17.8 44.85 L17.55 44.85 17.1 44.85 16.9 44.0 16.9 43.3" fill="#66e4f3" fill-rule="evenodd" stroke="none"/>
      <path d="M16.85 44.85 L17.1 44.85 17.55 44.85 17.8 44.85 19.2 45.1 18.7 46.3 18.65 46.45 18.25 47.6 18.1 47.45 17.4 47.0 16.85 46.75 16.85 45.95 16.85 44.9 16.85 44.85" fill="#2a122a" fill-rule="evenodd" stroke="none"/>
      <path d="M16.25 44.95 L16.55 44.9 16.75 44.85 16.85 44.85 16.85 44.9 16.85 45.95 16.85 46.75 16.45 46.6 15.3 46.4 14.65 46.45 Q13.9 46.55 13.55 46.75 L13.3 46.95 13.3 47.05 13.15 47.05 13.05 47.0 12.3 47.1 12.2 47.1 11.55 46.5 12.45 46.0 12.55 45.95 13.25 45.65 14.45 45.25 16.25 44.95" fill="#2c142a" fill-rule="evenodd" stroke="none"/>
      <path d="M18.7 43.1 L18.85 42.9 19.4 42.3 19.65 42.15 19.65 42.25 19.7 42.25 21.0 42.05 20.55 42.35 20.1 42.9 Q19.75 43.45 19.75 44.15 L19.85 44.45 20.05 44.55 20.35 44.75 20.1 45.55 Q19.65 45.25 19.2 45.1 L17.8 44.85 Q18.0 44.05 18.7 43.1" fill="#8e7fa8" fill-rule="evenodd" stroke="none"/>
      <path d="M22.85 41.9 L22.9 41.9 23.15 41.95 23.85 43.2 24.5 44.55 24.2 44.6 22.9 45.0 Q22.1 45.3 21.6 45.55 L21.55 45.55 21.25 45.7 20.6 44.95 20.35 44.75 20.05 44.55 19.85 44.45 19.75 44.15 Q19.75 43.45 20.1 42.9 L20.55 42.35 21.0 42.05 22.1 41.95 22.85 41.9" fill="#7d7294" fill-rule="evenodd" stroke="none"/>
      <path d="M12.95 40.55 L13.4 40.5 13.55 40.5 14.75 40.65 15.2 40.8 15.3 41.0 Q15.9 42.3 16.25 44.7 L16.25 44.95 14.45 45.25 14.35 44.65 14.0 43.3 13.8 42.7 12.95 40.55" fill="#2e1a36" fill-rule="evenodd" stroke="none"/>
      <path d="M11.9 40.65 L12.95 40.55 13.8 42.7 14.0 43.3 14.35 44.65 14.45 45.25 13.25 45.65 12.55 45.95 12.45 46.0 12.05 45.3 11.6 44.5 10.9 42.55 10.75 42.1 Q11.1 41.5 11.6 41.0 L11.9 40.65" fill="#351a3d" fill-rule="evenodd" stroke="none"/>
      <path d="M18.55 47.85 L18.25 47.6 18.65 46.45 18.7 46.3 19.2 45.1 Q19.65 45.25 20.1 45.55 L20.45 45.8 Q21.75 46.9 21.75 49.55 L21.75 49.85 21.5 49.8 20.65 49.75 19.4 49.85 19.4 49.55 Q19.25 48.6 18.55 47.85" fill="#29102d" fill-rule="evenodd" stroke="none"/>
      <path d="M21.25 45.7 L21.55 45.55 21.6 45.55 Q22.1 45.3 22.9 45.0 L24.2 44.6 24.5 44.55 25.05 45.8 25.7 47.85 23.05 49.65 22.75 49.85 22.3 48.2 22.15 47.7 21.5 46.2 21.25 45.7" fill="#645472" fill-rule="evenodd" stroke="none"/>
      <path d="M20.35 44.75 L20.6 44.95 21.25 45.7 21.5 46.2 22.15 47.7 22.3 48.2 22.75 49.85 22.5 49.95 21.75 49.85 21.75 49.55 Q21.75 46.9 20.45 45.8 L20.1 45.55 20.35 44.75" fill="#796185" fill-rule="evenodd" stroke="none"/>
      <path d="M-0.25 -2.2 L0.35 -2.15 0.8 -1.3 1.15 -0.85 Q2.15 0.4 3.95 1.7 L5.85 2.9 Q8.9 4.75 12.25 5.75 15.45 6.75 18.9 7.1 L21.95 7.2 22.6 7.2 26.5 6.9 27.4 6.65 27.55 6.75 27.8 6.95 30.5 9.2 32.35 11.55 32.75 12.05 33.2 12.75 33.3 12.95 33.35 12.85 Q34.15 11.55 34.7 11.1 L35.1 10.6 35.25 10.5 35.6 10.45 35.8 10.65 35.9 10.8 36.7 11.85 37.35 11.15 38.9 9.65 39.2 9.65 40.2 9.75 41.9 9.55 44.15 8.5 46.75 6.05 48.3 6.15 48.4 6.15 51.8 6.85 Q53.1 7.15 54.2 7.9 L54.4 8.0 54.65 8.15 M54.65 8.3 Q53.2 8.55 50.95 9.75 L49.1 10.95 48.3 11.65 Q47.4 12.55 47.1 13.55 L47.0 14.0 47.0 14.5 47.25 15.7 Q47.6 16.4 48.45 16.95 49.8 17.75 51.9 17.75 L53.05 17.7 50.3 20.45 49.2 21.2 47.2 22.3 44.25 22.95 43.95 22.95 44.25 23.6 44.45 23.85 Q45.2 25.0 46.45 25.7 L46.8 25.8 47.2 26.05 Q48.7 26.6 51.05 26.95 L51.3 27.0 Q47.95 28.85 46.45 31.25 L46.35 31.4 46.2 31.6 Q44.8 33.95 44.05 36.0 L43.9 36.45 43.9 36.55 43.4 35.65 42.2 33.75 41.75 33.05 41.7 32.95 41.7 33.05 42.45 36.45 42.8 37.55 43.0 38.2 Q43.8 40.85 45.1 43.15 L45.45 43.1 45.45 43.0 45.45 42.75 45.65 42.0 Q45.8 41.5 46.1 41.1 L46.6 40.65 48.2 41.1 48.25 41.1 Q49.0 40.6 52.0 40.2 52.8 40.6 53.65 41.55 L53.75 41.65 54.65 42.85 M54.65 45.95 L53.7 46.1 50.65 46.6 49.3 46.0 48.5 45.6 48.35 45.55 48.05 45.65 47.3 46.05 47.2 46.15 49.9 48.6 Q51.95 49.95 54.65 50.8 M-0.25 44.1 L0.45 43.95 1.15 43.8 5.85 39.8 7.55 38.0 10.4 34.05 10.25 33.95 6.4 31.65 6.15 31.5 Q2.7 29.75 -0.25 28.85 M-0.25 28.3 L2.4 27.9 3.75 27.55 3.9 27.5 6.5 26.6 9.2 25.5 9.65 25.25 9.35 25.2 6.05 24.15 Q2.7 22.85 0.1 20.75 L-0.25 20.5 M-0.25 14.3 L1.25 14.1 1.9 14.0 1.8 13.65 Q1.15 11.75 -0.25 9.85 M36.65 23.3 L36.45 23.55 36.2 23.3 36.2 23.5 36.25 24.05 36.6 26.5 37.8 27.85 39.4 29.7 39.5 29.85 40.2 30.75 40.0 30.9 39.4 31.45 37.65 32.8 36.6 33.55 36.35 33.45 Q34.6 32.35 32.95 30.75 L32.0 29.55 31.1 27.85 31.3 27.75 Q32.95 26.9 34.35 26.3 L34.05 24.05 33.9 23.45 33.9 23.0 33.8 21.95 33.8 21.7 33.8 21.5 34.1 21.4 33.75 21.05 33.8 21.5 M48.25 41.1 L48.05 41.35 48.0 41.4 47.85 41.65 47.5 42.65 47.45 42.7 47.45 43.15 47.45 43.2 47.45 43.3 47.45 43.6 Q47.55 44.65 48.3 45.4 L48.4 45.45 48.35 45.55 M43.05 43.25 L45.1 43.15 M36.7 40.1 L35.95 40.65 36.9 41.55 38.25 42.4 Q40.1 43.25 42.65 43.25 L43.05 43.25 M45.45 44.5 L45.35 43.65 45.35 43.6 45.45 43.1 M45.5 44.75 L44.1 45.2 42.0 45.6 38.55 45.85 38.15 45.85 37.65 45.85 37.65 46.15 37.75 47.1 37.8 47.55 37.85 47.95 37.95 48.85 38.0 49.55 37.5 50.2 37.3 50.4 36.65 50.3 36.3 50.3 36.05 50.3 36.35 51.4 36.65 53.6 M48.8 50.45 Q50.5 50.9 52.55 51.85 L53.55 52.4 53.65 52.45 54.65 53.05 M45.45 44.5 L45.5 44.75 45.65 45.2 46.15 46.05 46.65 46.45 47.2 46.15 M37.9 13.95 L37.0 12.3 36.7 11.85 M37.9 13.95 L37.95 14.05 39.25 17.0 39.5 17.75 39.55 17.85 38.7 19.5 37.7 21.4 37.3 22.15 36.9 22.85 36.65 23.3 M35.6 22.75 L35.85 23.0 36.0 23.1 36.2 23.3 M33.3 12.95 L32.7 13.85 32.05 15.05 Q31.55 16.05 31.2 17.2 L31.55 17.95 32.25 19.0 33.3 20.5 33.75 21.05 M35.6 22.75 L34.1 21.4 M30.5 28.15 L31.1 27.85 M17.25 37.45 L17.8 36.95 21.1 34.1 22.1 33.4 22.35 33.2 22.5 33.1 23.55 32.35 23.95 32.1 24.6 32.25 25.05 32.45 25.8 32.7 26.5 32.9 27.15 33.15 27.8 33.4 28.45 33.7 29.25 34.1 29.8 36.1 29.9 36.45 30.2 37.75 28.7 37.8 26.55 37.55 25.15 37.1 24.7 36.55 24.65 36.45 24.6 36.35 23.75 35.15 22.5 33.25 22.5 33.1 M11.55 46.5 L10.6 45.4 10.2 44.9 9.55 43.9 9.65 41.8 9.65 41.5 10.85 40.85 Q10.95 40.75 11.0 40.75 L12.2 40.15 12.55 39.9 12.6 39.9 Q14.0 39.2 14.85 38.85 L15.2 38.75 14.05 37.25 Q12.55 35.55 10.4 34.05 M12.9 48.4 L8.15 45.45 4.8 43.5 4.05 43.1 1.15 43.8 M4.05 52.2 L4.15 51.1 4.8 50.75 5.35 50.55 Q6.8 50.0 8.25 50.0 L10.0 50.4 10.35 50.5 10.4 50.55 10.85 51.2 11.1 51.8 11.2 52.1 11.35 52.4 13.5 53.5 13.55 53.5 13.75 53.6 M18.35 37.55 L18.8 37.35 20.55 38.65 22.3 40.7 23.1 41.9 23.15 41.95 23.85 43.2 24.5 44.55 25.05 45.8 25.4 46.35 26.4 47.8 26.75 47.55 Q27.1 47.3 27.5 47.2 L27.55 47.2 27.7 47.1 27.95 47.1 28.05 47.05 27.7 46.55 25.85 43.8 24.35 41.5 26.05 42.15 28.85 43.0 30.4 43.35 32.5 42.65 34.9 41.35 35.05 41.2 35.3 41.05 35.95 40.65 M17.55 37.8 L17.4 37.85 16.6 38.2 17.25 37.45 M15.2 38.75 L16.4 38.25 16.6 38.2 M17.55 37.8 L18.35 37.55 17.8 36.95 M13.15 47.05 L13.05 47.0 12.3 47.1 12.2 47.1 11.55 46.5 M13.15 47.05 L13.05 48.5 16.2 50.55 18.05 51.75 18.45 52.0 19.25 52.55 19.25 52.6 19.45 53.6 M18.55 47.85 L18.25 47.6 18.1 47.45 17.4 47.0 16.85 46.75 16.45 46.6 15.3 46.4 14.65 46.45 Q13.9 46.55 13.55 46.75 L13.3 46.95 13.3 47.05 13.15 47.05 M12.9 48.4 L13.05 48.5 M38.9 33.25 L39.4 31.45 M38.7 34.3 L38.7 34.25 38.9 33.25 M38.35 35.2 L37.9 35.55 36.6 36.85 36.55 37.6 36.55 37.9 36.55 38.2 37.45 38.4 38.2 38.3 38.35 38.3 38.3 38.55 38.15 38.75 M38.55 35.0 L38.9 34.8 38.7 36.0 38.35 38.25 38.35 38.3 M38.0 38.9 L37.8 39.05 37.55 39.35 36.7 40.1 M38.55 35.0 L38.35 35.2 M26.35 30.6 L25.85 30.85 24.6 31.65 23.95 32.1 M26.35 30.6 Q27.65 29.75 28.9 29.05 L30.5 28.15 M22.15 33.7 L22.1 33.4 M23.25 38.95 L23.0 38.15 22.45 35.75 22.2 34.35 22.15 33.7 M24.35 41.5 L24.3 41.45 23.25 38.95 M22.75 49.85 L23.05 49.65 25.7 47.85 25.05 45.8 M28.55 43.95 L29.1 43.95 30.8 43.95 31.95 43.25 32.4 43.3 34.15 43.55 35.6 44.0 35.8 44.1 37.6 45.2 37.65 45.85 M25.85 43.8 L27.5 43.9 28.55 43.95 28.85 43.0 M26.3 47.95 L26.4 47.8 M27.4 49.6 L27.55 49.45 Q27.85 49.2 28.2 49.1 L28.9 48.95 29.05 48.95 29.15 48.95 29.3 48.95 29.7 49.0 29.75 49.05 30.15 49.1 30.3 49.25 30.85 49.75 31.6 50.5 31.6 49.75 31.6 49.4 31.5 48.3 31.4 47.8 Q30.6 46.95 29.15 46.95 L28.95 46.95 28.05 47.05 M25.8 48.85 L25.95 48.4 26.3 47.95 M27.0 51.65 Q26.2 51.35 26.0 50.75 L25.95 50.55 25.7 49.45 25.8 48.85 M30.8 43.95 L30.95 43.95 33.05 46.2 34.15 47.4 34.4 47.7 35.45 49.05 35.8 49.5 36.05 50.3 M21.75 49.85 L22.5 49.95 22.75 49.85 M37.6 53.35 L38.85 52.9 38.75 52.75 37.5 50.2 M37.6 53.35 L36.85 53.55 M32.6 51.5 L31.95 50.85 31.6 50.5 M33.9 52.9 L33.9 52.85 32.6 51.5 M33.9 52.9 L33.9 53.4 33.9 53.5 33.9 53.6 M27.1 51.65 L27.05 50.0 27.3 49.75 27.4 49.6 M27.1 51.65 L27.0 51.65 M27.15 53.6 L27.15 53.5 27.1 51.65 M23.7 53.6 L22.7 51.95 22.55 51.65 22.2 51.1 21.5 49.8 20.65 49.75 19.4 49.85 19.4 49.55 18.3 51.3 18.05 51.75 M21.75 49.85 L21.5 49.8 M15.55 53.6 Q16.15 53.3 16.55 53.15 L17.2 53.6 M11.45 52.8 L11.35 53.25 11.3 53.6 M11.35 52.4 L11.45 52.75 11.45 52.8 M4.05 53.6 L4.0 52.75 4.05 52.2 M46.2 50.25 L46.95 49.95 48.2 50.25 48.8 50.45 M42.25 51.75 L38.85 52.9 M42.25 51.75 L42.9 51.5 46.2 50.25 M41.7 32.95 L40.2 30.75 M19.4 49.55 Q19.25 48.6 18.55 47.85" fill="none" stroke="#310817" stroke-linecap="round" stroke-linejoin="round" stroke-width="1.0"/>
    </g>
    <g id="shape2" transform="matrix(1.0, 0.0, 0.0, 1.0, 0.0, 0.0)">
      <path d="M50.5 0.0 Q53.95 0.0 53.95 3.3 L53.95 50.15 Q53.95 53.4 50.5 53.4 L3.3 53.4 Q0.0 53.4 0.0 50.15 L0.0 3.3 Q0.0 0.0 3.3 0.0 L50.5 0.0" fill="#000000" fill-opacity="0.003921569" fill-rule="evenodd" stroke="none"/>
    </g>
  </defs>
</svg>
