<?xml version="1.0" encoding="UTF-8" standalone="no"?>
<svg xmlns:ffdec="https://www.free-decompiler.com/flash" xmlns:xlink="http://www.w3.org/1999/xlink" ffdec:objectType="frame" height="54.0px" width="54.65px" xmlns="http://www.w3.org/2000/svg">
  <g transform="matrix(1.0, 0.0, 0.0, 1.0, 0.25, 0.25)">
    <clipPath id="clipPath0" transform="matrix(1.0, 0.0, 0.0, 1.0, 0.0, 0.0)">
      <path d="M50.5 0.0 Q53.95 0.0 53.95 3.3 L53.95 50.15 Q53.95 53.4 50.5 53.4 L3.3 53.4 Q0.0 53.4 0.0 50.15 L0.0 3.3 Q0.0 0.0 3.3 0.0 L50.5 0.0" fill="#000000" fill-rule="evenodd" stroke="none"/>
    </clipPath>
    <g clip-path="url(#clipPath0)">
      <use ffdec:characterId="2" height="54.0" transform="matrix(1.0, 0.0, 0.0, 1.0, -0.25, -0.25)" width="54.65" xlink:href="#shape1"/>
    </g>
    <use ffdec:characterId="3" height="53.4" transform="matrix(1.0, 0.0, 0.0, 1.0, 0.0, 0.0)" width="53.95" xlink:href="#shape2"/>
  </g>
  <defs>
    <g id="shape1" transform="matrix(1.0, 0.0, 0.0, 1.0, 0.25, 0.25)">
      <path d="M-0.25 40.9 L-0.25 39.85 4.0 41.1 3.75 41.75 3.15 41.8 -0.25 40.9 M46.6 13.75 L47.2 17.85 48.1 22.45 48.25 23.15 48.15 24.2 48.15 24.75 48.1 25.0 48.0 25.25 47.9 25.65 47.8 26.0 47.4 27.05 47.2 27.25 Q46.5 26.9 46.3 26.3 L46.2 26.0 46.2 25.95 46.3 25.15 46.4 24.4 46.55 24.1 46.6 24.0 Q46.6 23.75 46.75 23.55 L46.85 20.65 46.85 16.55 46.6 13.75 M51.1 33.6 L51.55 34.05 52.1 34.5 52.75 34.9 53.05 35.0 53.15 35.2 53.4 35.25 53.6 35.35 53.6 35.4 Q53.15 35.8 52.75 35.8 L51.7 35.05 50.6 33.95 51.1 33.6 M46.6 33.6 Q46.5 34.15 47.05 35.55 L47.4 36.35 47.65 37.35 47.6 37.7 47.3 37.9 47.2 38.1 Q46.9 38.55 46.6 38.55 L46.15 37.65 46.3 35.8 46.35 35.6 46.5 33.6 46.6 33.6 M22.55 10.7 L22.55 10.75 22.45 11.05 22.2 11.1 21.4 10.55 21.4 10.4 21.15 9.65 20.8 8.65 21.2 9.3 22.05 10.2 22.1 10.25 22.55 10.55 22.55 10.7 M32.5 12.3 L32.35 11.95 32.35 11.65 32.35 11.3 32.2 10.4 32.15 10.2 32.0 9.2 32.4 10.1 32.55 10.45 33.05 11.6 33.2 11.85 33.25 12.55 33.0 12.75 32.5 12.3 M30.25 13.95 Q32.9 14.9 33.95 15.95 L34.45 16.75 34.5 17.2 34.65 17.65 Q34.1 17.1 33.3 16.75 L33.1 16.65 33.0 16.45 Q32.3 15.7 30.9 15.0 28.65 13.9 26.1 13.9 24.15 13.9 22.65 14.45 L21.3 15.0 23.85 13.8 Q26.0 12.85 26.3 12.85 27.4 12.9 30.25 13.95 M14.1 13.2 L14.05 13.2 12.9 12.9 14.6 12.7 14.8 12.9 14.75 13.05 14.1 13.2" fill="#c9edf8" fill-rule="evenodd" stroke="none"/>
      <path d="M-0.25 27.35 L-0.1 27.2 0.2 27.9 -0.25 29.25 -0.25 27.35 M9.8 16.75 L10.5 16.3 10.55 16.3 10.7 16.25 10.75 16.2 11.1 16.05 11.75 15.5 12.1 15.25 12.15 15.25 Q13.95 14.1 17.15 12.9 L17.25 12.95 17.45 12.95 17.75 12.85 18.9 13.05 20.35 12.9 21.85 12.55 22.05 12.0 22.05 11.85 21.95 11.85 20.8 11.8 20.45 11.65 20.35 10.8 Q20.1 9.2 19.35 8.05 L19.45 7.95 20.25 7.35 20.95 8.15 20.95 8.25 22.6 9.9 22.65 10.0 22.65 10.05 23.85 10.6 25.1 11.1 25.45 11.25 25.5 11.25 25.65 11.25 25.75 11.1 25.75 10.9 25.6 10.75 25.1 10.6 24.7 10.45 24.55 10.4 24.95 10.35 25.4 10.25 25.65 10.2 25.8 10.1 26.0 10.1 26.35 10.1 27.0 10.2 27.55 10.35 27.8 10.25 27.95 10.25 28.3 10.25 29.1 10.4 28.85 10.6 28.45 10.9 27.55 11.05 27.35 11.05 27.25 11.05 27.25 11.25 27.35 11.45 27.55 11.45 Q28.1 12.2 30.05 13.2 L30.8 13.6 31.3 13.75 30.9 13.05 30.6 12.2 31.05 10.95 31.15 10.05 31.25 8.65 Q31.35 6.65 30.95 4.4 L31.35 4.6 31.85 7.2 32.05 7.7 32.15 7.9 32.15 8.15 Q32.5 9.5 33.1 10.7 L33.55 11.5 33.55 11.45 33.65 11.7 33.75 11.85 33.8 12.0 34.0 12.5 34.25 13.05 Q34.85 14.5 35.2 14.8 L35.2 14.85 35.4 14.9 35.55 14.8 35.55 14.65 35.5 14.5 34.7 13.05 34.65 12.95 34.65 12.9 34.6 12.75 34.45 12.15 35.0 12.5 35.25 12.7 35.4 12.7 35.4 12.75 35.55 12.85 35.75 12.95 35.9 13.05 36.4 13.4 36.6 13.45 36.8 13.6 37.1 13.65 37.1 13.75 37.35 13.95 37.45 13.95 39.4 15.5 39.45 15.55 39.85 16.05 40.3 16.6 40.45 16.75 40.65 17.0 40.45 17.15 40.2 17.15 39.45 17.15 39.05 16.95 38.7 16.65 38.2 16.3 38.05 16.25 37.9 16.25 37.9 16.4 37.9 16.6 Q38.8 19.95 40.3 23.2 L41.6 25.85 43.5 29.15 Q44.05 28.85 43.9 27.1 43.75 25.95 42.95 24.2 L42.6 23.5 43.2 20.7 43.3 20.1 43.35 19.45 Q43.7 15.35 43.3 10.25 L42.65 6.2 Q43.5 6.35 45.1 7.15 L45.1 7.2 46.9 11.95 47.8 14.65 47.9 14.8 47.8 15.05 47.8 15.15 47.9 15.2 48.1 16.1 48.15 16.4 48.55 19.25 48.7 19.45 48.65 19.65 48.8 21.0 48.9 23.7 49.0 23.9 48.85 24.2 49.0 26.15 49.0 26.35 49.0 26.75 49.05 26.85 49.05 26.9 49.05 27.9 49.05 28.0 49.05 28.2 49.05 28.3 49.05 29.7 49.05 30.6 49.05 31.1 Q48.8 32.1 48.25 32.6 L47.45 32.95 Q46.6 33.05 45.45 32.1 L46.6 33.6 47.65 34.65 48.7 35.4 48.8 35.55 48.9 37.35 48.9 39.0 48.9 39.5 48.9 40.05 48.5 40.4 47.95 40.95 47.55 41.2 47.55 41.1 47.45 41.05 47.3 41.05 47.2 39.7 46.85 41.4 46.75 41.55 46.5 42.0 Q46.0 42.55 45.1 42.55 L44.2 42.5 Q43.05 42.3 42.4 41.55 41.4 40.7 41.0 39.0 L40.5 36.5 40.5 36.3 41.35 34.35 41.4 34.2 41.4 34.15 41.45 34.05 41.45 34.0 41.95 32.7 42.05 31.35 Q42.05 29.95 41.6 28.65 L41.6 28.5 41.2 27.65 Q40.45 26.4 39.15 26.4 L39.05 26.4 38.4 26.35 37.85 26.4 37.1 26.6 Q36.85 26.7 36.75 26.75 L36.05 26.05 35.7 25.7 35.25 25.3 33.9 24.2 Q29.9 21.35 23.25 20.35 L20.0 20.0 16.9 19.8 14.85 19.75 11.05 19.75 Q9.25 19.6 9.25 18.55 9.25 17.9 9.65 17.0 L9.8 16.75 M54.4 35.6 L54.4 36.95 52.6 36.15 Q51.2 35.7 49.9 34.75 L49.9 34.7 49.85 34.65 49.9 34.55 49.9 34.4 49.9 33.4 49.85 33.1 49.85 32.95 49.9 32.95 49.85 32.9 49.85 32.8 49.75 32.45 49.75 32.0 49.75 31.9 49.95 32.05 50.6 33.1 50.8 33.25 50.95 33.4 51.0 33.45 51.1 33.6 50.6 33.95 51.7 35.05 52.75 35.8 Q53.15 35.8 53.6 35.4 L53.6 35.35 54.4 35.6 M54.4 40.55 L54.4 41.75 53.6 41.55 51.35 41.75 Q49.6 41.85 49.6 41.2 49.6 40.95 49.75 40.75 L49.9 40.75 50.2 40.7 51.45 40.55 51.55 40.55 52.05 40.55 52.45 40.55 53.15 40.55 53.75 40.6 54.15 40.6 54.3 40.6 54.35 40.6 54.4 40.55 M19.75 53.75 L18.65 53.75 19.35 53.3 19.4 53.3 19.75 53.75 M-0.25 42.9 L-0.25 40.9 3.15 41.8 3.75 41.75 4.0 41.1 4.5 41.25 5.45 41.6 5.55 41.6 5.7 41.75 6.1 41.85 9.0 43.05 8.75 43.5 8.1 43.7 6.15 43.15 Q4.35 42.5 2.0 42.5 L-0.25 42.9 M46.6 13.75 L46.85 16.55 46.85 20.65 46.75 23.55 Q46.6 23.75 46.6 24.0 L46.55 24.1 46.4 24.4 46.3 25.15 46.2 25.95 46.2 26.0 46.3 26.3 Q46.5 26.9 47.2 27.25 L47.4 27.05 47.8 26.0 47.9 25.65 48.0 25.25 48.1 25.0 48.15 24.75 48.15 24.2 48.25 23.15 48.1 22.45 47.2 17.85 46.6 13.75 M46.6 33.6 L46.5 33.6 46.35 35.6 46.3 35.8 46.15 37.65 46.6 38.55 Q46.9 38.55 47.2 38.1 L47.3 37.9 47.6 37.7 47.65 37.35 47.4 36.35 47.05 35.55 Q46.5 34.15 46.6 33.6 M32.5 12.3 L33.0 12.75 33.25 12.55 33.2 11.85 33.05 11.6 32.55 10.45 32.4 10.1 32.0 9.2 32.15 10.2 32.2 10.4 32.35 11.3 32.35 11.65 32.35 11.95 32.5 12.3 M22.55 10.7 L22.55 10.55 22.1 10.25 22.05 10.2 21.2 9.3 20.8 8.65 21.15 9.65 21.4 10.4 21.4 10.55 22.2 11.1 22.45 11.05 22.55 10.75 22.55 10.7 M30.25 13.95 Q27.4 12.9 26.3 12.85 26.0 12.85 23.85 13.8 L21.3 15.0 22.65 14.45 Q24.15 13.9 26.1 13.9 28.65 13.9 30.9 15.0 32.3 15.7 33.0 16.45 L33.1 16.65 33.3 16.75 Q34.1 17.1 34.65 17.65 L34.5 17.2 34.45 16.75 33.95 15.95 Q32.9 14.9 30.25 13.95 M34.95 24.05 L35.25 24.35 36.4 24.8 Q37.15 24.8 37.55 24.25 L37.85 23.5 37.55 22.5 37.45 22.45 37.45 22.4 36.85 22.1 36.2 21.9 35.25 21.95 34.6 22.15 Q34.1 22.45 34.1 22.85 L34.5 23.75 34.95 24.05 M36.65 21.1 L37.0 21.2 37.1 21.2 37.8 20.9 38.7 20.35 38.75 20.35 38.75 20.2 37.9 19.4 37.85 19.4 37.7 19.4 37.55 19.4 Q35.9 19.45 35.9 20.35 35.9 21.05 36.65 21.1 M16.35 12.3 L14.25 13.95 Q14.05 13.65 13.55 13.65 L13.0 13.8 12.9 13.8 12.3 13.4 11.55 13.2 11.6 13.1 12.15 12.55 12.3 12.55 12.85 12.65 12.9 12.65 16.35 12.2 16.35 12.3 M14.1 13.2 L14.75 13.05 14.8 12.9 14.6 12.7 12.9 12.9 14.05 13.2 14.1 13.2 M14.25 52.6 L14.45 52.45 14.5 52.4 14.6 52.8 14.45 52.95 14.25 53.3 14.25 52.6" fill="#91c5ea" fill-rule="evenodd" stroke="none"/>
      <path d="M-0.25 27.35 L-0.25 26.15 0.1 25.8 0.25 25.6 0.45 25.45 0.4 25.35 1.45 24.1 1.55 23.85 1.55 23.9 Q1.7 23.35 2.2 22.7 L2.35 22.5 2.9 21.75 3.25 21.4 4.55 19.95 4.75 19.85 4.85 19.6 5.9 18.75 Q8.55 16.3 10.0 15.6 L10.2 15.35 10.85 15.05 10.7 14.9 10.55 14.85 10.05 14.65 9.7 14.7 9.5 14.8 8.6 14.9 8.1 14.85 7.15 14.5 6.95 14.3 6.7 14.25 6.3 13.75 6.25 13.75 5.75 13.05 Q5.4 12.4 5.4 11.85 5.35 11.35 5.75 10.95 6.1 10.6 6.65 10.4 7.5 9.9 8.1 9.9 L8.95 10.1 9.8 10.55 9.7 10.55 10.75 11.1 11.75 11.6 11.8 11.7 12.0 11.65 12.3 11.7 12.9 11.7 13.5 11.7 14.8 11.6 16.05 11.35 16.6 11.25 16.9 11.25 17.05 11.1 17.1 11.1 17.45 11.1 17.5 11.05 17.3 11.5 17.1 11.95 18.5 11.45 18.55 10.4 18.55 10.25 18.55 10.1 18.5 9.4 17.95 8.45 17.85 8.4 17.5 8.05 Q17.15 7.7 16.75 7.6 L16.6 7.6 14.85 7.8 14.75 7.8 Q13.2 7.8 12.2 6.35 L12.15 6.15 12.0 6.0 Q11.45 5.1 11.45 4.5 11.45 4.05 11.9 3.55 L12.15 3.45 12.3 3.25 13.0 2.8 Q14.4 2.25 16.35 2.25 17.85 2.25 19.05 3.1 L19.35 3.3 Q20.35 4.2 20.45 5.3 L20.45 5.45 20.45 5.5 Q20.45 6.0 21.0 6.85 L21.6 7.7 23.15 9.3 23.3 9.4 23.5 9.65 23.55 9.7 24.35 9.5 24.2 9.5 25.1 9.35 25.2 9.35 25.45 9.3 25.65 9.3 26.0 9.2 26.35 9.2 27.15 9.3 27.75 9.4 27.95 9.4 28.3 9.4 29.3 9.55 29.3 8.5 29.55 5.85 29.55 4.55 29.35 3.0 28.75 0.45 28.75 0.3 28.65 0.25 27.55 -0.2 27.35 -0.25 29.45 -0.25 29.4 -0.05 29.5 0.0 29.55 0.1 29.65 0.35 30.2 2.8 30.45 4.4 30.45 5.95 Q30.35 8.6 29.85 9.55 L29.85 9.7 29.55 10.1 29.55 10.35 29.5 10.55 28.75 11.25 28.15 11.45 27.55 11.45 27.35 11.45 27.25 11.25 27.25 11.05 27.35 11.05 27.55 11.05 28.45 10.9 28.85 10.6 29.1 10.4 28.3 10.25 27.95 10.25 27.8 10.25 27.55 10.35 27.0 10.2 26.35 10.1 26.0 10.1 25.8 10.1 25.65 10.2 25.4 10.25 24.95 10.35 24.55 10.4 24.7 10.45 25.1 10.6 25.6 10.75 25.75 10.9 25.75 11.1 25.65 11.25 25.5 11.25 25.45 11.25 25.1 11.1 23.85 10.6 22.65 10.05 22.65 10.0 22.6 9.9 20.95 8.25 20.95 8.15 20.25 7.35 Q19.6 6.35 19.6 5.8 L19.55 5.5 19.55 5.45 Q19.55 4.6 18.75 4.0 18.35 3.55 17.85 3.45 17.15 3.1 16.35 3.1 14.5 3.1 13.35 3.65 L13.4 3.65 13.0 3.85 12.8 4.0 12.55 4.05 12.5 4.15 Q12.35 4.25 12.35 4.5 12.35 4.9 12.8 5.5 L12.8 5.75 13.0 5.85 Q13.55 6.8 14.45 6.9 L14.75 6.9 16.4 6.7 16.55 6.7 16.95 6.7 17.95 7.2 18.65 7.8 19.0 8.45 Q19.45 9.3 19.45 10.1 L19.1 11.15 19.1 11.25 19.05 11.35 18.85 11.65 18.75 11.7 18.7 11.95 18.5 12.2 18.2 12.5 17.75 12.85 17.45 12.95 17.25 12.95 17.15 12.9 Q13.95 14.1 12.15 15.25 L12.1 15.25 11.75 15.5 11.1 16.05 10.75 16.2 10.7 16.25 10.55 16.3 10.5 16.3 9.8 16.75 Q8.55 17.5 6.45 19.4 L5.45 20.2 5.35 20.35 5.2 20.55 3.3 22.6 2.7 23.65 2.55 24.0 2.5 24.05 2.4 24.2 2.15 24.65 1.55 25.45 0.85 26.2 0.95 26.3 0.75 26.4 0.45 26.7 -0.1 27.2 -0.25 27.35 M31.3 -0.25 L32.2 -0.25 32.15 0.45 32.05 1.05 Q32.0 3.1 32.4 5.25 L32.7 6.9 32.9 7.4 32.9 7.7 33.05 7.8 Q33.3 9.1 33.8 10.05 L34.0 10.8 34.1 10.95 34.1 11.1 Q34.7 11.3 35.25 11.65 L35.4 11.7 36.25 12.2 37.3 12.85 37.45 12.95 Q37.55 12.95 37.7 13.1 L37.85 13.2 39.6 14.45 40.35 15.2 40.65 15.4 41.0 16.05 41.25 16.4 41.4 15.9 Q41.7 15.4 41.45 15.0 L41.25 11.65 40.55 6.5 40.3 5.3 40.35 5.1 40.15 4.9 40.0 3.85 40.0 3.8 38.95 0.0 38.9 -0.25 39.8 -0.25 39.85 -0.05 40.45 2.05 40.85 3.65 41.05 4.7 41.1 4.95 41.2 5.2 41.45 6.3 42.1 11.6 42.4 15.5 42.4 15.6 41.95 16.75 41.95 16.8 41.8 16.95 41.7 17.0 41.6 17.0 41.4 17.15 40.9 17.45 40.3 17.65 38.75 17.3 37.9 16.6 37.9 16.4 37.9 16.25 38.05 16.25 38.2 16.3 38.7 16.65 39.05 16.95 39.45 17.15 40.2 17.15 40.45 17.15 40.65 17.0 40.45 16.75 40.3 16.6 39.85 16.05 39.45 15.55 39.4 15.5 37.45 13.95 37.35 13.95 37.1 13.75 37.1 13.65 36.8 13.6 36.6 13.45 36.4 13.4 35.9 13.05 35.75 12.95 35.55 12.85 35.4 12.75 35.4 12.7 35.25 12.7 35.0 12.5 34.45 12.15 34.6 12.75 34.65 12.9 34.65 12.95 34.7 13.05 35.5 14.5 35.55 14.65 35.55 14.8 35.4 14.9 35.2 14.85 35.2 14.8 Q34.85 14.5 34.25 13.05 L34.0 12.5 33.8 12.0 33.75 11.85 33.65 11.7 33.55 11.45 33.55 11.5 33.1 10.7 Q32.5 9.5 32.15 8.15 L32.15 7.9 32.05 7.7 31.85 7.2 31.35 4.6 Q31.15 2.9 31.25 1.05 L31.3 0.45 31.3 -0.25 M41.75 -0.25 L42.75 -0.25 42.95 0.0 45.35 5.45 46.4 7.9 Q47.9 11.6 48.65 14.45 L48.7 14.65 48.65 14.8 48.7 14.85 49.0 15.95 49.5 19.15 49.5 19.4 49.55 19.6 49.7 20.9 49.85 23.65 49.75 23.85 49.75 24.05 49.9 26.2 49.75 26.7 49.7 27.2 Q49.55 27.45 49.55 27.8 49.4 28.15 49.5 28.55 L49.5 28.7 49.55 29.5 50.6 31.45 50.6 31.65 50.8 31.9 50.95 32.05 51.45 32.6 51.55 32.9 51.7 32.95 51.85 33.1 Q52.45 33.75 53.25 34.2 L53.4 34.35 53.65 34.4 53.85 34.5 54.4 34.7 54.4 35.6 53.6 35.35 53.4 35.25 53.15 35.2 53.05 35.0 52.75 34.9 52.1 34.5 51.55 34.05 51.1 33.6 51.0 33.45 50.95 33.4 50.8 33.25 50.6 33.1 49.95 32.05 49.75 31.9 49.75 32.0 49.75 32.45 49.85 32.8 49.85 32.9 49.9 32.95 49.85 32.95 49.85 33.1 49.9 33.4 49.9 34.4 49.9 34.55 49.85 34.65 49.9 34.7 49.9 34.75 49.9 34.85 49.9 35.2 49.95 35.55 49.9 35.7 49.9 36.0 49.9 36.25 50.1 36.5 50.25 36.6 50.8 37.0 51.3 37.35 51.55 37.55 51.55 37.65 51.7 37.65 51.9 37.75 53.75 38.25 54.15 38.25 54.35 38.4 54.4 38.45 54.4 39.0 54.35 38.95 54.05 38.65 53.75 38.65 52.45 38.45 52.4 38.45 51.9 38.25 51.5 38.05 51.45 37.95 51.3 37.9 51.0 37.75 50.65 37.5 50.2 37.15 49.85 36.65 49.85 36.85 49.9 37.2 49.85 37.7 49.85 37.95 49.7 39.3 49.7 39.45 49.6 40.35 49.6 40.4 49.9 40.25 49.95 40.25 50.2 40.25 50.25 40.2 50.3 40.2 50.6 40.15 51.35 40.05 51.5 40.15 51.55 40.05 52.05 40.05 52.45 40.05 52.6 40.05 52.7 40.05 53.75 40.15 54.15 40.2 54.4 39.85 54.4 40.55 54.35 40.6 54.3 40.6 54.15 40.6 53.75 40.6 53.15 40.55 52.45 40.55 52.05 40.55 51.55 40.55 51.45 40.55 50.2 40.7 49.9 40.75 49.75 40.75 49.5 40.9 49.5 40.95 49.4 41.2 49.35 41.85 49.25 42.0 49.25 42.1 49.15 43.15 49.05 43.55 49.4 43.4 49.6 43.35 49.7 43.2 49.75 43.2 49.95 43.05 50.1 43.0 50.6 42.9 50.75 42.85 50.95 42.85 51.1 42.8 52.45 42.55 52.7 42.65 53.05 42.55 53.8 42.7 54.4 42.85 54.4 43.75 53.65 43.55 52.9 43.5 52.7 43.4 52.55 43.5 51.3 43.6 51.15 43.6 51.1 43.7 49.75 44.15 49.75 44.25 48.85 44.65 48.8 44.95 48.5 45.55 48.5 45.75 47.05 46.95 46.75 47.05 46.6 46.95 46.55 47.05 46.5 47.1 46.5 47.25 46.3 47.5 46.2 47.5 45.85 47.7 45.65 47.85 Q45.6 47.85 45.5 47.95 L45.3 48.05 45.1 48.15 43.55 48.4 43.15 48.5 Q42.95 48.55 42.8 48.4 L42.7 48.35 42.65 48.4 42.3 48.55 41.7 48.65 Q40.75 48.05 39.65 47.7 L37.7 47.95 35.9 47.6 35.9 47.65 35.35 47.45 35.25 47.45 35.05 47.35 34.95 47.35 34.1 47.15 34.1 47.25 34.1 48.05 34.15 48.3 Q33.9 49.0 33.9 49.9 33.9 50.6 34.3 51.2 L34.5 51.5 35.85 53.1 35.9 53.3 36.05 53.45 36.2 53.75 35.2 53.75 35.2 53.7 35.05 53.55 33.9 52.1 33.75 51.95 33.65 51.85 33.6 51.75 33.45 51.7 33.45 51.55 33.1 50.5 33.0 49.9 Q33.0 48.9 33.25 48.2 L33.3 48.0 33.75 47.25 Q33.8 47.15 33.9 47.15 L34.1 46.95 34.1 46.55 34.0 46.35 34.8 46.45 35.15 46.45 35.25 46.55 35.4 46.6 35.75 46.6 35.9 46.6 35.95 46.6 35.95 46.7 37.7 47.1 38.25 47.1 36.25 45.85 35.25 45.0 33.9 43.25 33.9 43.4 33.8 43.15 33.65 43.7 33.65 43.75 33.65 43.9 33.65 43.95 33.6 44.5 33.55 45.0 33.4 45.85 33.3 46.05 33.3 46.1 33.2 46.75 33.2 46.9 33.1 46.95 32.2 50.0 32.15 50.25 32.15 50.5 32.15 50.85 32.2 53.15 32.2 53.75 31.7 53.75 31.7 53.65 31.8 53.55 31.7 53.45 31.65 50.15 31.7 50.15 Q31.7 49.95 31.85 49.75 L32.0 49.4 32.7 46.9 32.75 46.9 32.75 46.8 32.75 46.6 32.9 46.05 33.05 45.35 33.05 45.2 33.05 44.75 33.1 44.65 33.2 44.05 33.25 43.6 33.45 42.65 33.4 42.5 33.0 41.75 32.9 41.55 Q32.2 40.15 31.85 38.3 L31.85 38.25 31.7 38.05 31.65 37.55 31.6 37.2 31.6 37.15 31.65 36.35 31.7 36.3 31.65 36.15 31.7 35.6 31.7 34.5 Q30.7 29.55 27.0 27.05 L27.0 26.95 26.85 26.9 25.85 26.4 25.5 26.2 25.5 26.15 25.4 26.15 Q24.5 25.65 23.5 25.3 L23.25 25.25 Q21.7 24.65 20.0 24.45 L17.6 24.35 14.25 24.6 14.15 24.6 13.9 24.65 13.75 24.65 13.6 24.75 12.55 24.95 12.5 24.95 11.25 25.3 11.05 25.3 10.95 25.45 10.35 25.65 10.0 26.15 9.85 26.3 9.85 26.35 9.8 26.4 9.8 26.5 9.5 27.55 9.45 27.6 9.45 27.75 9.35 27.9 9.25 28.3 9.15 28.45 9.15 28.5 9.25 28.65 9.25 28.7 9.25 28.85 9.15 29.05 9.15 29.15 9.15 29.4 9.1 29.6 9.45 31.9 9.35 31.7 9.5 32.45 9.5 32.7 9.5 32.8 9.6 32.9 9.65 33.4 Q10.05 35.8 11.2 38.45 L11.2 38.55 11.2 38.65 11.05 38.8 10.85 38.8 10.75 38.65 10.7 38.55 10.0 36.6 9.45 34.4 9.1 32.95 9.15 32.9 9.1 32.8 9.0 32.55 8.75 29.55 8.75 29.15 8.8 29.0 8.75 28.85 8.75 28.65 Q8.75 28.5 8.9 28.5 L8.9 28.35 8.8 28.2 8.95 27.65 9.0 27.55 Q9.0 26.85 9.25 26.55 L9.35 26.35 8.65 26.5 8.55 26.55 8.25 26.7 8.1 26.75 8.05 26.85 Q7.7 26.95 7.4 27.2 L7.35 27.2 7.3 27.25 Q7.2 27.25 7.0 27.4 L7.0 27.45 6.95 27.55 6.85 27.55 Q6.3 27.8 5.9 28.2 L5.8 28.2 5.8 28.3 5.75 28.45 Q5.6 28.5 5.45 28.65 L5.4 28.65 5.1 29.0 5.0 29.15 4.85 29.25 4.85 29.35 3.25 30.65 3.15 30.65 3.05 30.8 1.9 31.65 1.65 31.9 -0.25 33.3 -0.25 32.8 -0.1 32.7 2.8 30.45 2.9 30.4 2.95 30.3 3.5 29.9 4.3 29.2 4.5 29.0 4.4 29.0 4.65 28.8 4.65 28.7 4.85 28.5 4.9 28.45 5.35 28.1 5.7 27.8 5.75 27.65 Q6.3 27.2 6.95 26.85 L7.2 26.6 7.55 26.4 8.0 26.2 8.05 26.2 8.1 26.15 Q8.25 26.0 8.55 25.95 L8.6 25.85 9.1 25.7 9.15 25.65 9.25 25.6 9.85 25.3 10.0 25.3 10.2 25.25 10.85 25.0 10.95 25.0 11.05 24.95 11.1 24.95 12.45 24.55 13.55 24.25 13.7 24.35 13.75 24.25 14.1 24.2 17.6 23.85 20.0 24.05 Q21.7 24.25 23.25 24.75 L23.55 24.9 25.6 25.7 25.65 25.8 25.75 25.8 26.1 26.0 26.15 26.0 27.15 26.55 27.2 26.7 27.25 26.7 Q30.4 28.85 31.7 32.8 31.7 30.95 31.35 29.55 L31.35 29.25 30.8 27.45 30.8 27.25 30.9 27.25 30.95 27.2 31.1 27.2 31.15 27.25 31.25 27.3 31.35 27.65 31.8 29.2 32.15 31.0 32.2 33.1 32.2 34.4 32.2 34.5 32.15 35.6 32.15 36.15 32.05 36.35 32.05 36.45 32.0 37.15 32.15 37.5 32.2 37.9 Q32.55 39.8 33.3 41.4 L33.4 41.55 33.6 41.95 33.75 42.3 33.8 42.3 33.8 42.45 33.9 42.5 33.95 42.5 35.25 44.4 36.55 45.5 37.35 46.05 38.55 46.75 38.75 46.8 39.1 46.95 39.25 47.05 40.65 47.5 41.4 47.7 41.6 47.7 42.3 47.7 42.6 47.8 42.65 47.85 42.7 47.8 Q42.8 47.65 43.0 47.6 L43.55 47.5 44.4 47.35 44.9 47.3 45.1 47.15 45.5 46.9 44.4 46.55 44.1 46.45 43.55 46.25 43.15 46.1 43.05 46.0 42.95 46.0 42.25 45.5 Q41.45 44.95 40.85 43.95 L40.65 43.6 40.0 42.35 39.65 41.6 38.75 42.3 38.2 42.5 37.9 42.55 37.55 42.55 Q36.8 42.55 36.3 42.0 L36.05 41.75 Q35.4 40.75 35.4 38.95 L35.6 37.4 35.75 37.05 36.05 36.3 36.1 36.25 36.2 36.1 36.45 35.6 Q37.1 34.75 37.85 34.7 L37.9 34.7 38.05 34.7 38.15 34.75 38.05 33.4 38.05 33.25 37.85 32.35 37.7 31.65 37.55 31.35 36.6 29.55 36.6 29.5 36.45 29.25 35.25 27.95 33.65 26.5 33.05 26.0 30.55 24.55 27.95 23.5 27.15 23.15 27.0 23.15 26.9 23.15 26.5 23.0 26.0 22.85 25.8 22.8 25.75 22.7 25.65 22.65 25.65 22.5 Q25.65 22.4 25.8 22.4 25.8 22.3 25.95 22.3 L27.05 22.7 27.15 22.7 27.25 22.8 Q30.8 24.0 33.3 25.65 L33.75 25.95 33.95 26.15 35.25 27.3 35.95 28.0 36.6 28.8 36.85 29.05 36.85 29.15 36.95 29.25 37.0 29.4 37.3 29.85 37.35 29.95 38.05 31.2 38.05 31.3 38.15 31.5 38.35 32.2 38.55 33.25 38.55 33.4 38.6 34.9 38.7 35.6 38.75 36.15 38.75 36.35 Q38.95 38.1 39.5 39.9 L39.5 40.15 39.6 40.2 39.85 41.25 40.35 42.3 40.45 42.45 41.05 43.5 41.25 43.8 Q41.8 44.65 42.5 45.15 L42.6 45.2 43.15 45.65 43.3 45.7 43.5 45.75 43.55 45.75 44.25 46.0 44.25 46.05 44.4 46.1 44.8 46.25 45.65 46.45 45.85 46.45 46.05 46.45 46.2 46.6 46.2 46.75 46.3 46.75 46.35 46.6 46.35 46.55 46.55 46.25 48.15 44.95 48.3 44.8 48.45 44.4 48.55 43.6 48.65 43.35 48.7 43.05 Q48.7 42.55 48.85 42.0 L48.9 41.95 48.9 41.85 49.0 41.1 49.0 41.05 49.05 40.7 49.05 40.55 49.25 39.5 49.25 39.45 49.25 38.9 49.35 38.3 49.4 38.25 49.35 38.1 49.4 37.85 49.4 37.65 49.5 36.3 49.5 36.15 49.5 35.75 49.5 35.6 49.5 35.55 49.2 33.5 49.25 33.45 49.15 33.3 49.15 32.35 49.15 32.0 49.15 31.8 49.05 31.8 49.05 31.1 49.05 30.6 49.05 29.7 49.05 28.3 49.05 28.2 49.05 28.0 49.05 27.9 49.05 26.9 49.05 26.85 49.0 26.75 49.0 26.35 49.0 26.15 48.85 24.2 49.0 23.9 48.9 23.7 48.8 21.0 48.65 19.65 48.7 19.45 48.55 19.25 48.15 16.4 48.1 16.1 47.9 15.2 47.8 15.15 47.8 15.05 47.9 14.8 47.8 14.65 46.9 11.95 45.1 7.2 45.1 7.15 44.55 5.75 42.05 0.45 41.75 -0.25 M22.25 53.75 L21.75 53.75 21.7 53.65 21.55 53.5 21.55 53.35 21.4 53.3 20.85 52.55 20.45 52.05 20.45 52.1 20.25 51.9 20.3 51.85 20.15 51.85 20.1 51.7 19.45 51.15 19.0 50.7 18.5 50.5 18.35 50.45 17.6 49.9 17.4 49.75 17.1 49.4 17.05 49.3 16.7 49.0 16.35 48.55 16.35 48.5 16.2 48.5 16.05 48.4 16.0 48.3 15.55 47.85 15.2 47.45 15.0 47.05 14.95 46.95 14.85 46.9 14.65 46.55 14.6 46.55 14.6 46.45 14.45 46.4 14.1 46.2 14.1 46.35 13.9 46.2 13.7 46.05 13.6 46.0 13.55 45.9 13.4 45.9 13.35 45.9 12.2 45.0 12.0 44.8 11.95 44.65 11.9 44.65 10.75 43.95 10.35 43.7 10.25 43.6 10.15 43.55 9.6 43.35 9.5 43.2 9.45 43.2 9.0 43.05 6.1 41.85 5.7 41.75 5.55 41.6 5.45 41.6 4.5 41.25 4.0 41.1 -0.25 39.85 -0.25 39.35 4.65 40.9 5.6 41.25 5.75 41.25 5.8 41.3 7.75 42.0 9.0 42.55 9.6 42.85 9.7 42.85 9.8 42.9 10.4 43.2 10.5 43.25 10.55 43.35 10.85 43.5 12.15 44.3 12.2 44.45 12.35 44.5 12.5 44.65 12.65 44.75 12.9 45.0 Q13.15 45.15 13.4 45.4 L13.55 45.5 13.6 45.5 13.7 45.55 13.85 45.65 13.95 45.7 13.95 45.75 14.15 45.9 14.1 45.75 13.55 44.8 13.5 44.6 13.5 44.5 12.3 42.15 12.0 41.65 11.55 40.6 10.95 39.1 10.95 38.9 11.05 38.8 11.2 38.8 11.25 38.8 11.3 38.95 11.65 39.7 Q11.65 40.35 12.45 41.75 L12.9 42.55 13.75 44.1 13.9 44.3 13.9 44.45 13.95 44.5 14.95 46.25 15.15 46.55 15.2 46.6 15.3 46.75 15.45 46.9 15.45 46.95 15.5 47.05 15.55 47.15 15.9 47.6 16.1 47.8 16.4 48.15 16.4 48.05 16.45 48.15 16.7 48.3 16.75 48.4 17.25 49.0 17.65 49.3 17.85 49.55 18.05 49.75 18.5 50.0 19.2 50.35 19.25 50.35 19.45 50.6 19.8 50.85 20.35 51.35 20.5 51.5 20.6 51.55 20.6 51.7 20.65 51.7 20.8 51.75 21.75 53.0 21.85 53.15 21.9 53.3 22.2 53.65 22.25 53.75 M13.3 53.75 L12.4 53.75 12.45 53.65 12.55 53.2 Q12.75 52.75 13.4 52.05 L13.55 51.9 14.3 51.5 14.75 51.05 14.85 50.85 14.85 50.95 15.2 50.25 15.1 49.75 14.95 49.3 14.75 49.0 14.75 48.9 14.65 48.75 14.5 48.7 14.45 48.65 14.6 48.5 14.3 48.15 11.65 46.8 9.6 46.1 9.45 46.0 9.25 46.0 8.1 45.9 7.9 45.85 7.65 46.0 5.75 46.1 5.7 46.1 5.55 46.1 5.35 46.2 0.2 46.45 -0.25 46.45 -0.25 45.55 0.2 45.55 2.6 45.5 2.75 45.5 5.25 45.3 5.35 45.35 5.45 45.35 5.7 45.3 7.4 45.15 7.55 45.1 7.75 45.15 7.85 45.15 Q7.9 45.0 8.1 45.0 L9.15 45.1 9.35 45.15 Q9.5 45.15 9.6 45.3 L9.8 45.3 Q10.85 45.5 12.0 46.0 13.05 46.45 13.85 46.95 L13.95 47.1 14.15 47.25 14.25 47.15 14.5 47.45 14.6 47.6 14.6 47.5 15.2 48.05 15.3 48.3 15.5 48.5 15.7 48.75 15.7 48.9 15.8 49.0 15.9 49.3 16.0 49.45 16.0 49.6 16.05 49.95 16.05 50.0 16.05 50.15 15.9 50.7 15.55 51.4 15.55 51.5 15.5 51.55 14.85 52.2 Q14.65 52.25 14.5 52.4 L14.45 52.45 14.25 52.6 13.95 52.65 13.6 53.2 Q13.4 53.45 13.35 53.65 L13.35 53.7 13.3 53.75 M16.35 12.3 L16.4 12.2 16.35 12.2 12.9 12.65 12.85 12.65 12.3 12.55 12.15 12.55 12.0 12.55 11.65 12.4 11.3 12.4 10.15 11.7 9.3 11.3 8.45 10.9 8.1 10.8 Q7.65 10.8 7.05 11.15 L7.0 11.15 Q6.3 11.45 6.3 11.85 L6.3 12.0 Q6.3 12.55 6.95 13.2 L7.3 13.55 7.4 13.65 7.55 13.75 8.05 13.95 8.6 14.0 9.5 13.8 9.8 13.8 10.05 13.75 10.95 14.0 11.3 14.3 11.4 14.35 11.6 14.6 11.8 15.15 12.3 15.0 13.55 14.35 14.1 14.0 14.25 13.95 16.35 12.3 M20.3 51.85 L20.45 51.9 20.45 51.85 20.3 51.85 M14.25 48.5 L14.15 48.35 14.3 48.4 14.25 48.5 M38.35 36.1 L38.2 35.6 38.2 35.0 38.15 35.05 38.0 35.1 Q37.5 35.2 37.1 35.6 L36.6 36.3 36.45 36.35 36.45 36.5 36.25 36.85 Q35.85 37.75 35.85 38.95 35.85 40.55 36.4 41.45 36.85 42.15 37.55 42.15 L38.35 42.0 38.75 41.75 39.45 41.2 39.25 40.6 39.25 40.55 38.95 39.65 38.75 38.8 Q38.4 37.65 38.35 36.45 L38.35 36.25 38.35 36.1" fill="#321514" fill-rule="evenodd" stroke="none"/>
      <path d="M-0.1 27.2 L0.45 26.7 0.75 26.4 1.0 26.85 Q1.35 27.4 1.35 28.35 1.35 29.85 0.45 31.5 L-0.25 32.35 -0.25 29.25 0.2 27.9 -0.1 27.2 M3.3 22.6 L5.2 20.55 5.35 20.35 5.45 20.2 6.45 19.4 Q8.55 17.5 9.8 16.75 L9.65 17.0 Q9.25 17.9 9.25 18.55 9.25 19.6 11.05 19.75 L14.85 19.75 16.9 19.8 20.0 20.0 23.25 20.35 Q29.9 21.35 33.9 24.2 L35.25 25.3 35.7 25.7 36.05 26.05 36.75 26.75 Q36.85 26.7 37.1 26.6 L37.85 26.4 38.4 26.35 39.05 26.4 38.75 26.4 38.25 26.6 Q37.85 26.75 37.45 27.2 L37.2 27.4 Q36.75 28.0 36.6 28.8 L35.95 28.0 35.25 27.3 33.95 26.15 33.75 25.95 33.3 25.65 Q30.8 24.0 27.25 22.8 L27.15 22.7 27.05 22.7 25.95 22.3 Q25.8 22.3 25.8 22.4 25.65 22.4 25.65 22.5 L25.65 22.65 25.75 22.7 25.8 22.8 26.0 22.85 26.5 23.0 26.35 23.0 24.95 22.8 24.4 22.8 23.25 22.65 20.65 22.4 18.3 22.05 18.3 21.9 17.25 21.95 Q14.4 22.1 9.8 23.15 L4.35 24.35 Q3.25 24.35 3.25 23.0 L3.3 22.7 3.3 22.6 M17.75 12.85 L18.2 12.5 18.5 12.2 18.7 11.95 18.75 11.7 18.85 11.65 19.05 11.35 19.1 11.25 19.1 11.15 19.45 10.1 Q19.45 9.3 19.0 8.45 L19.35 8.05 Q20.1 9.2 20.35 10.8 L20.45 11.65 20.8 11.8 21.95 11.85 22.05 11.85 22.05 12.0 21.85 12.55 20.35 12.9 18.9 13.05 17.75 12.85 M27.55 11.45 L28.15 11.45 28.75 11.25 29.5 10.55 29.55 10.35 29.55 10.1 29.85 9.7 29.85 9.55 Q30.35 8.6 30.45 5.95 L30.45 4.4 30.9 4.4 30.95 4.4 Q31.35 6.65 31.25 8.65 L31.15 10.05 31.05 10.95 30.6 12.2 30.9 13.05 31.3 13.75 30.8 13.6 30.05 13.2 Q28.1 12.2 27.55 11.45 M54.4 36.95 L54.4 37.8 52.7 37.3 50.25 36.6 50.1 36.5 49.9 36.25 49.9 36.0 49.9 35.7 49.95 35.55 49.9 35.2 49.9 34.85 49.9 34.75 Q51.2 35.7 52.6 36.15 L54.4 36.95 M54.4 41.75 L54.4 42.85 53.8 42.7 53.05 42.55 52.7 42.65 52.45 42.55 51.1 42.8 50.95 42.85 50.75 42.85 50.6 42.9 50.1 43.0 49.95 43.05 49.75 43.2 49.7 43.2 49.15 43.15 49.25 42.1 49.25 42.0 49.35 41.85 49.4 41.2 49.5 40.95 49.5 40.9 49.75 40.75 Q49.6 40.95 49.6 41.2 49.6 41.85 51.35 41.75 L53.6 41.55 54.4 41.75 M33.3 53.75 L32.55 53.75 32.55 53.45 32.65 53.3 32.65 53.35 32.85 53.45 33.3 53.7 33.3 53.75 M21.3 53.75 L19.75 53.75 19.4 53.3 19.35 53.3 18.65 53.75 18.25 53.75 18.35 53.65 18.85 53.15 18.9 53.1 19.1 52.95 20.1 52.25 21.3 53.75 M13.95 53.75 L13.55 53.75 13.55 53.5 13.6 53.2 13.95 52.65 14.25 52.6 14.25 53.3 13.95 53.7 13.95 53.75 M-0.25 44.25 L-0.25 42.9 2.0 42.5 Q4.35 42.5 6.15 43.15 L8.1 43.7 8.75 43.5 9.0 43.05 9.45 43.2 9.5 43.2 9.6 43.35 10.15 43.55 10.25 43.6 10.35 43.7 10.75 43.95 Q10.5 44.85 9.15 45.1 L8.1 45.0 Q7.9 45.0 7.85 45.15 L7.75 45.15 7.55 45.1 7.4 45.15 5.7 45.3 5.45 45.35 5.35 45.35 5.25 45.3 2.75 45.5 2.6 45.5 Q1.65 44.6 -0.25 44.25 M49.05 31.1 L49.05 31.8 49.15 31.8 49.15 32.0 49.15 32.35 49.15 33.3 49.25 33.45 49.2 33.5 49.5 35.55 49.5 35.6 49.5 35.75 49.5 36.15 49.5 36.3 49.4 37.65 49.4 37.85 49.35 38.1 49.4 38.25 49.35 38.3 49.25 38.9 49.25 39.45 49.25 39.5 49.05 40.55 49.05 40.7 49.0 41.05 49.0 41.1 48.9 41.85 48.9 41.95 48.85 42.0 Q48.7 42.55 48.7 43.05 L48.65 43.35 48.55 43.6 48.45 44.4 48.3 44.8 48.15 44.95 46.55 46.25 46.35 46.55 46.35 46.6 46.3 46.75 46.2 46.75 46.2 46.6 46.05 46.45 45.85 46.45 45.65 46.45 44.8 46.25 44.4 46.1 44.25 46.05 44.25 46.0 43.55 45.75 43.5 45.75 43.3 45.7 43.15 45.65 42.6 45.2 42.5 45.15 Q41.8 44.65 41.25 43.8 L41.05 43.5 40.45 42.45 40.35 42.3 39.85 41.25 39.95 41.25 40.15 41.2 40.15 41.05 40.15 40.95 40.65 40.25 40.7 39.3 40.45 37.75 40.2 36.6 40.15 36.35 40.15 36.3 40.35 35.7 40.35 35.6 Q40.55 35.1 41.1 34.5 L41.4 34.2 41.35 34.35 40.5 36.3 40.5 36.5 41.0 39.0 Q41.4 40.7 42.4 41.55 43.05 42.3 44.2 42.5 L45.1 42.55 Q46.0 42.55 46.5 42.0 L46.75 41.55 46.85 41.4 47.2 39.7 47.3 41.05 47.45 41.05 47.55 41.1 47.55 41.2 47.95 40.95 48.5 40.4 48.9 40.05 48.9 39.5 48.9 39.0 48.9 37.35 48.8 35.55 48.7 35.4 47.65 34.65 46.6 33.6 45.45 32.1 Q46.6 33.05 47.45 32.95 L48.25 32.6 Q48.8 32.1 49.05 31.1 M42.65 6.2 L43.3 10.25 Q43.7 15.35 43.35 19.45 L43.3 20.1 43.2 20.7 42.6 23.5 42.95 24.2 Q43.75 25.95 43.9 27.1 44.05 28.85 43.5 29.15 L41.6 25.85 40.3 23.2 Q38.8 19.95 37.9 16.6 L38.75 17.3 40.3 17.65 40.9 17.45 41.4 17.15 41.6 17.0 41.7 17.0 41.8 16.95 41.95 16.8 41.95 16.75 42.4 15.6 42.4 15.5 42.1 11.6 41.45 6.3 42.1 6.15 42.65 6.2 M36.85 22.1 L36.1 22.05 35.25 22.15 34.7 22.4 34.65 22.45 34.65 22.5 34.45 23.05 Q34.45 23.5 34.95 24.05 L34.5 23.75 34.1 22.85 Q34.1 22.45 34.6 22.15 L35.25 21.95 36.2 21.9 36.85 22.1 M37.55 19.4 L37.2 19.5 Q36.95 19.5 36.6 19.85 L36.3 20.3 Q36.3 20.75 36.45 21.0 L36.65 21.1 Q35.9 21.05 35.9 20.35 35.9 19.45 37.55 19.4 M14.25 13.95 L14.1 14.0 13.55 14.35 12.3 15.0 11.8 15.15 11.6 14.6 11.4 14.35 11.3 14.3 10.95 14.0 11.55 13.2 12.3 13.4 12.9 13.8 13.0 13.8 13.55 13.65 Q14.05 13.65 14.25 13.95 M16.55 50.65 L16.45 50.7 15.65 51.55 15.55 51.6 15.45 51.7 14.95 52.3 14.95 52.4 14.6 52.8 14.5 52.4 Q14.65 52.25 14.85 52.2 L15.5 51.55 15.55 51.5 15.55 51.4 15.9 50.7 16.05 50.15 16.05 50.0 16.05 49.95 17.1 50.25 16.55 50.65" fill="#5f9dbe" fill-rule="evenodd" stroke="none"/>
      <path d="M31.7 53.75 L30.6 53.75 30.6 53.5 30.9 50.65 Q30.9 49.6 31.05 48.75 L31.05 48.65 Q30.0 50.15 29.7 51.0 L29.2 53.1 Q29.3 51.95 29.65 50.95 L29.75 50.5 29.75 50.35 30.7 48.7 30.95 48.2 31.05 48.2 31.1 48.05 31.25 47.8 31.95 46.8 32.0 46.7 32.05 46.7 32.2 46.45 32.3 46.4 32.4 46.1 32.5 46.05 32.5 46.45 32.5 46.75 32.5 46.8 32.4 46.9 32.4 47.1 32.0 49.4 31.85 49.75 Q31.7 49.95 31.7 50.15 L31.65 50.15 31.7 53.45 31.8 53.55 31.7 53.65 31.7 53.75 M23.25 53.75 L22.25 53.75 22.2 53.65 21.9 53.3 21.85 53.15 21.75 53.0 20.8 51.75 20.65 51.7 20.6 51.7 20.6 51.55 20.5 51.5 20.35 51.35 19.75 50.7 20.0 49.65 20.15 49.3 20.25 49.1 20.3 49.0 20.35 48.9 20.45 48.85 20.6 48.7 21.4 47.6 21.9 47.3 22.05 47.3 24.4 49.1 24.7 49.3 24.85 49.45 24.9 49.55 24.95 49.6 25.5 50.15 25.65 50.25 26.8 51.4 26.85 51.5 27.0 51.4 27.0 51.35 27.05 51.4 27.0 51.5 26.9 51.55 27.0 51.6 27.35 52.05 27.35 52.1 27.4 52.1 27.6 52.4 27.35 52.1 25.5 50.3 Q22.75 47.7 21.9 47.7 L21.55 47.8 21.5 47.85 21.3 48.05 Q20.8 48.5 20.65 48.9 L20.65 49.0 20.95 49.4 21.3 50.0 23.25 53.75 M-0.25 39.35 L-0.25 37.9 4.65 38.45 7.65 39.3 Q8.6 39.8 9.35 40.35 L9.1 39.3 8.05 36.35 Q6.95 34.9 3.75 34.9 L-0.25 35.4 -0.25 34.1 Q5.85 31.2 6.45 31.2 8.1 31.2 9.25 34.05 L9.45 34.4 10.0 36.6 Q10.55 38.95 10.55 41.25 10.55 42.5 9.85 42.5 L7.75 42.0 5.8 41.3 5.75 41.25 5.6 41.25 4.65 40.9 -0.25 39.35 M45.1 47.15 L44.9 47.3 44.4 47.35 43.55 47.5 43.0 47.6 Q42.8 47.65 42.7 47.8 L42.65 47.85 42.6 47.8 42.3 47.7 41.6 47.7 41.4 47.7 40.65 47.5 39.25 47.05 39.1 46.95 38.75 46.8 38.55 46.75 37.35 46.05 Q36.2 45.15 35.25 43.6 L34.85 42.8 34.15 40.9 33.9 39.9 33.3 36.7 32.15 31.0 31.8 29.2 31.35 27.65 31.25 27.3 31.15 27.25 31.1 27.2 30.95 27.2 30.9 27.25 30.8 27.2 30.45 26.55 30.15 26.05 30.25 26.3 30.25 26.4 Q30.25 26.75 29.85 26.75 L28.6 26.35 28.5 26.3 27.45 25.8 26.15 25.25 Q24.25 24.45 23.25 24.25 L23.0 24.2 20.65 23.75 20.0 23.7 19.35 23.55 20.0 23.35 20.85 23.3 21.2 23.0 21.75 23.15 21.95 23.15 22.05 23.05 22.95 22.95 23.25 23.0 23.35 23.0 25.05 23.2 26.35 23.5 27.2 23.7 28.1 23.9 28.8 24.1 Q31.8 25.8 33.65 27.45 L35.0 28.8 35.25 29.15 Q37.1 31.2 37.1 33.4 37.1 33.95 35.85 35.75 L35.25 36.65 Q34.6 38.05 34.6 39.45 34.6 40.55 35.2 41.75 L35.25 41.8 Q36.1 43.15 37.1 43.15 L37.5 43.05 37.8 43.0 38.75 42.85 39.4 43.8 39.65 44.15 Q40.65 45.35 42.25 46.2 L43.4 46.7 45.1 47.15 M49.85 37.95 L49.85 37.7 49.9 37.2 49.85 36.85 49.85 36.65 50.2 37.15 50.65 37.5 51.0 37.75 51.3 37.9 51.45 37.95 51.5 38.05 51.9 38.25 52.4 38.45 52.75 38.65 53.05 39.35 52.7 40.05 52.6 40.05 52.45 40.05 52.05 40.05 51.55 40.05 51.5 40.15 51.35 40.05 50.6 40.15 50.3 40.2 50.25 40.2 50.2 40.25 49.95 40.25 49.9 40.25 49.6 40.4 49.6 40.35 49.7 39.45 50.85 39.35 51.55 39.45 52.2 39.35 52.2 39.25 49.85 37.95 M13.75 37.85 L13.75 36.6 13.75 36.25 Q14.1 33.6 15.9 32.25 17.4 31.1 19.6 31.1 L19.7 31.1 Q20.35 31.15 22.8 32.9 L25.65 35.05 26.8 35.6 29.0 36.6 Q30.25 37.5 31.05 38.95 L30.55 39.45 30.4 39.6 30.35 39.6 29.7 40.15 29.55 40.2 29.55 40.25 29.5 40.25 29.4 40.35 29.35 40.4 28.75 40.9 28.25 41.4 28.1 41.45 27.35 42.55 Q27.6 41.8 28.6 40.6 L29.2 39.9 29.1 39.6 29.1 39.45 28.8 39.45 27.55 38.6 Q25.45 37.85 24.95 37.3 L23.25 35.25 Q21.4 33.95 20.6 33.95 L20.1 34.0 19.95 34.0 Q18.2 34.4 18.15 37.3 L18.15 37.85 18.3 38.1 18.7 39.6 20.8 40.25 20.85 40.25 Q22.45 40.6 23.8 41.55 22.4 40.9 21.4 40.6 L20.85 40.5 20.5 40.4 20.35 40.4 19.45 40.15 19.4 40.15 19.35 40.05 18.85 39.9 17.75 39.65 17.3 39.5 16.1 39.15 16.05 39.15 16.0 39.1 15.65 38.95 15.45 38.9 15.35 38.9 15.2 38.8 15.0 38.65 14.85 38.65 14.65 38.6 14.65 38.55 14.6 38.45 13.75 37.85 M15.55 44.95 L15.65 45.0 16.25 45.3 16.4 45.4 17.25 45.75 Q16.9 46.1 16.7 46.6 L16.7 46.75 16.6 46.8 16.6 46.9 16.4 46.6 15.9 45.65 15.55 44.95" fill="#d6c2a9" fill-rule="evenodd" stroke="none"/>
      <path d="M30.6 53.75 L29.15 53.75 29.15 53.65 29.15 53.45 29.2 53.1 29.7 51.0 Q30.0 50.15 31.05 48.65 L31.05 48.75 Q30.9 49.6 30.9 50.65 L30.6 53.5 30.6 53.75 M28.6 53.75 L23.25 53.75 21.3 50.0 20.95 49.4 20.65 49.0 20.65 48.9 Q20.8 48.5 21.3 48.05 L21.5 47.85 21.55 47.8 21.9 47.7 Q22.75 47.7 25.5 50.3 L27.35 52.1 27.6 52.4 27.7 52.45 28.25 53.2 28.5 53.65 28.6 53.7 28.6 53.75 M-0.25 37.9 L-0.25 35.4 3.75 34.9 Q6.95 34.9 8.05 36.35 L9.1 39.3 9.35 40.35 Q8.6 39.8 7.65 39.3 L4.65 38.45 -0.25 37.9 M49.7 39.45 L49.7 39.3 49.85 37.95 52.2 39.25 52.2 39.35 51.55 39.45 50.85 39.35 49.7 39.45 M23.8 41.55 Q22.45 40.6 20.85 40.25 L20.8 40.25 18.7 39.6 18.3 38.1 18.15 37.85 18.15 37.3 Q18.2 34.4 19.95 34.0 L20.1 34.0 20.6 33.95 Q21.4 33.95 23.25 35.25 L24.95 37.3 Q25.45 37.85 27.55 38.6 L28.8 39.45 29.1 39.45 29.1 39.6 29.2 39.9 28.6 40.6 Q27.6 41.8 27.35 42.55 L27.25 42.9 27.2 43.35 27.05 43.2 25.5 42.5 25.3 42.35 25.2 42.2 24.7 42.0 24.75 42.0 23.8 41.55 M19.35 35.8 Q19.6 36.6 20.6 36.85 L20.8 36.85 20.95 36.35 Q20.95 35.8 20.35 35.55 L20.3 35.55 20.1 35.4 19.95 35.4 Q19.6 35.55 19.35 35.8" fill="#e7dccd" fill-rule="evenodd" stroke="none"/>
      <path d="M0.75 26.4 L0.95 26.3 0.85 26.2 1.55 25.45 2.15 24.65 2.4 24.2 2.5 24.05 2.55 24.0 2.7 23.65 3.3 22.6 3.3 22.7 3.25 23.0 Q3.25 24.35 4.35 24.35 L9.8 23.15 Q14.4 22.1 17.25 21.95 L18.3 21.9 18.3 22.05 20.65 22.4 20.5 22.4 20.0 22.4 14.25 23.15 12.2 23.7 11.25 24.0 Q6.1 25.7 4.55 28.5 L4.85 28.5 4.65 28.7 4.65 28.8 4.4 29.0 4.5 29.0 4.3 29.2 3.5 29.9 2.95 30.3 2.9 30.4 2.8 30.45 -0.1 32.7 -0.25 32.8 -0.25 32.35 0.45 31.5 Q1.35 29.85 1.35 28.35 1.35 27.4 1.0 26.85 L0.75 26.4 M54.4 37.8 L54.4 38.45 54.35 38.4 54.15 38.25 53.75 38.25 51.9 37.75 51.7 37.65 51.55 37.65 51.55 37.55 51.3 37.35 50.8 37.0 50.25 36.6 52.7 37.3 54.4 37.8 M32.55 53.75 L32.2 53.75 32.2 53.15 32.65 53.3 32.55 53.45 32.55 53.75 M21.75 53.75 L21.3 53.75 20.1 52.25 20.35 52.1 20.45 52.1 20.45 52.05 20.85 52.55 21.4 53.3 21.55 53.35 21.55 53.5 21.7 53.65 21.75 53.75 M13.55 53.75 L13.3 53.75 13.35 53.7 13.35 53.65 Q13.4 53.45 13.6 53.2 L13.55 53.5 13.55 53.75 M-0.25 45.55 L-0.25 44.25 Q1.65 44.6 2.6 45.5 L0.2 45.55 -0.25 45.55 M49.7 43.2 L49.6 43.35 49.4 43.4 49.05 43.55 49.15 43.15 49.7 43.2 M10.75 43.95 L11.9 44.65 11.95 44.65 12.0 44.8 12.2 45.0 13.35 45.9 13.4 45.9 13.55 45.9 13.6 46.0 13.7 46.05 13.9 46.2 14.1 46.35 14.1 46.2 14.45 46.4 14.6 46.45 14.6 46.55 14.65 46.55 14.85 46.9 14.95 46.95 15.0 47.05 15.2 47.45 15.55 47.85 16.0 48.3 16.05 48.4 16.2 48.5 16.35 48.5 16.35 48.55 16.7 49.0 17.05 49.3 17.1 49.4 17.4 49.75 17.6 49.9 17.1 50.25 16.05 49.95 16.0 49.6 16.0 49.45 15.9 49.3 15.8 49.0 15.7 48.9 15.7 48.75 15.5 48.5 15.3 48.3 15.2 48.05 14.6 47.5 14.6 47.6 14.5 47.45 14.25 47.15 14.15 47.25 13.95 47.1 13.85 46.95 Q13.05 46.45 12.0 46.0 10.85 45.5 9.8 45.3 L9.6 45.3 Q9.5 45.15 9.35 45.15 L9.15 45.1 Q10.5 44.85 10.75 43.95 M32.15 50.5 L32.15 50.25 32.2 50.0 33.1 46.95 33.2 46.9 33.2 46.75 33.3 46.1 33.3 46.05 33.4 45.85 33.55 45.0 33.6 44.5 33.65 43.95 33.65 43.9 33.65 43.75 33.65 43.7 33.8 43.15 33.9 43.4 33.9 43.25 35.25 45.0 36.25 45.85 38.25 47.1 37.7 47.1 35.95 46.7 35.95 46.6 35.9 46.6 35.75 46.6 35.4 46.6 35.25 46.55 35.15 46.45 34.8 46.45 34.0 46.35 34.1 46.55 34.1 46.95 33.9 47.15 Q33.8 47.15 33.75 47.25 L33.3 48.0 33.25 48.2 Q33.0 48.9 33.0 49.9 L33.1 50.5 33.1 50.8 Q32.5 50.45 32.2 50.45 L32.15 50.5" fill="#4a8ca6" fill-rule="evenodd" stroke="none"/>
      <path d="M54.4 39.0 L54.4 39.85 54.15 40.2 53.75 40.15 52.7 40.05 53.05 39.35 52.75 38.65 52.4 38.45 52.45 38.45 53.75 38.65 54.05 38.65 54.35 38.95 54.4 39.0 M-0.25 34.1 L-0.25 33.3 1.65 31.9 1.9 31.65 3.05 30.8 3.15 30.65 3.25 30.65 4.85 29.35 4.85 29.25 5.0 29.15 5.1 29.0 5.4 28.65 5.45 28.65 Q5.6 28.5 5.75 28.45 L5.8 28.3 5.8 28.2 5.9 28.2 Q6.3 27.8 6.85 27.55 L6.95 27.55 7.0 27.45 7.0 27.4 Q7.2 27.25 7.3 27.25 L7.35 27.2 7.4 27.2 Q7.7 26.95 8.05 26.85 L8.1 26.75 8.25 26.7 8.55 26.55 8.65 26.5 9.35 26.35 9.25 26.55 Q9.0 26.85 9.0 27.55 L8.95 27.65 8.8 28.2 8.9 28.35 8.9 28.5 Q8.75 28.5 8.75 28.65 L8.75 28.85 8.8 29.0 8.75 29.15 8.75 29.55 9.0 32.55 9.1 32.8 9.15 32.9 9.1 32.95 9.45 34.4 9.25 34.05 Q8.1 31.2 6.45 31.2 5.85 31.2 -0.25 34.1 M26.5 23.0 L26.9 23.15 27.0 23.15 27.15 23.15 27.95 23.5 30.55 24.55 33.05 26.0 33.65 26.5 35.25 27.95 36.45 29.25 36.6 29.5 36.6 29.55 37.55 31.35 37.7 31.65 37.85 32.35 38.05 33.25 38.05 33.4 38.15 34.75 38.05 34.7 37.9 34.7 37.85 34.7 Q37.1 34.75 36.45 35.6 L36.2 36.1 36.1 36.25 36.05 36.3 35.75 37.05 35.6 37.4 35.4 38.95 Q35.4 40.75 36.05 41.75 L36.3 42.0 Q36.8 42.55 37.55 42.55 L37.9 42.55 38.2 42.5 38.75 42.3 39.65 41.6 40.0 42.35 40.65 43.6 40.85 43.95 Q41.45 44.95 42.25 45.5 L42.95 46.0 43.05 46.0 43.15 46.1 43.55 46.25 44.1 46.45 44.4 46.55 45.5 46.9 45.1 47.15 43.4 46.7 42.25 46.2 Q40.65 45.35 39.65 44.15 L39.4 43.8 38.75 42.85 37.8 43.0 37.5 43.05 37.1 43.15 Q36.1 43.15 35.25 41.8 L35.2 41.75 Q34.6 40.55 34.6 39.45 34.6 38.05 35.25 36.65 L35.85 35.75 Q37.1 33.95 37.1 33.4 37.1 31.2 35.25 29.15 L35.0 28.8 33.65 27.45 Q31.8 25.8 28.8 24.1 L28.1 23.9 27.2 23.7 26.35 23.5 25.05 23.2 23.35 23.0 23.25 23.0 22.95 22.95 22.05 23.05 21.95 23.15 21.75 23.15 21.2 23.0 20.85 23.3 20.0 23.35 19.35 23.55 20.0 23.7 20.65 23.75 23.0 24.2 23.25 24.25 Q24.25 24.45 26.15 25.25 L27.45 25.8 28.5 26.3 28.6 26.35 29.85 26.75 Q30.25 26.75 30.25 26.4 L30.25 26.3 30.15 26.05 30.45 26.55 30.8 27.2 30.9 27.25 30.8 27.25 30.8 27.45 31.35 29.25 31.35 29.55 Q31.7 30.95 31.7 32.8 30.4 28.85 27.25 26.7 L27.2 26.7 27.15 26.55 26.15 26.0 26.1 26.0 25.75 25.8 25.65 25.8 25.6 25.7 23.55 24.9 23.25 24.75 Q21.7 24.25 20.0 24.05 L17.6 23.85 14.1 24.2 13.75 24.25 13.7 24.35 13.55 24.25 12.45 24.55 11.1 24.95 11.05 24.95 10.95 25.0 10.85 25.0 10.2 25.25 10.0 25.3 9.85 25.3 9.25 25.6 9.15 25.65 9.1 25.7 8.6 25.85 8.55 25.95 Q8.25 26.0 8.1 26.15 L8.05 26.2 8.0 26.2 7.55 26.4 7.2 26.6 6.95 26.85 Q6.3 27.2 5.75 27.65 L5.7 27.8 5.35 28.1 4.9 28.45 4.85 28.5 4.55 28.5 Q6.1 25.7 11.25 24.0 L12.2 23.7 14.25 23.15 20.0 22.4 20.5 22.4 20.65 22.4 23.25 22.65 24.4 22.8 24.95 22.8 26.35 23.0 26.5 23.0 M37.35 46.05 L36.55 45.5 35.25 44.4 33.95 42.5 33.9 42.5 33.8 42.45 33.8 42.3 33.75 42.3 33.6 41.95 33.4 41.55 33.3 41.4 Q32.55 39.8 32.2 37.9 L32.15 37.5 32.0 37.15 32.05 36.45 32.05 36.35 32.15 36.15 32.15 35.6 32.2 34.5 32.2 34.4 32.2 33.1 32.15 31.0 33.3 36.7 33.9 39.9 34.15 40.9 34.85 42.8 35.25 43.6 Q36.2 45.15 37.35 46.05 M9.45 31.9 L9.1 29.6 9.15 29.4 9.15 29.15 9.15 29.05 9.25 28.85 9.25 28.7 9.25 28.65 9.15 28.5 9.15 28.45 9.25 28.3 9.35 27.9 9.45 27.75 9.45 27.6 9.5 27.55 9.8 26.5 9.8 26.4 9.85 26.35 9.85 26.3 10.0 26.15 10.35 25.65 10.95 25.45 11.05 25.3 11.25 25.3 12.5 24.95 12.55 24.95 13.6 24.75 13.75 24.65 13.9 24.65 14.15 24.6 14.25 24.6 17.6 24.35 20.0 24.45 Q21.7 24.65 23.25 25.25 L23.5 25.3 Q24.5 25.65 25.4 26.15 L25.5 26.15 25.5 26.2 25.85 26.4 26.85 26.9 27.0 26.95 27.0 27.05 Q30.7 29.55 31.7 34.5 L31.7 35.6 31.65 36.15 31.7 36.3 31.65 36.35 31.6 37.15 31.6 37.2 31.65 37.55 31.7 38.05 31.85 38.25 31.7 38.3 31.65 38.3 31.5 38.55 31.5 38.45 31.25 38.65 31.05 38.95 Q30.25 37.5 29.0 36.6 L26.8 35.6 25.65 35.05 22.8 32.9 Q20.35 31.15 19.7 31.1 L19.6 31.1 Q17.4 31.1 15.9 32.25 14.1 33.6 13.75 36.25 L13.75 36.6 13.75 37.85 13.85 38.25 13.55 38.05 12.0 36.5 Q10.7 34.9 9.85 32.9 L9.85 32.8 9.7 32.55 9.45 31.9 M33.05 45.2 L33.05 45.35 32.9 46.05 32.75 46.6 32.75 46.8 32.75 46.9 32.7 46.9 32.0 49.4 32.4 47.1 32.4 46.9 32.5 46.8 32.5 46.75 32.5 46.45 32.5 46.05 32.55 46.0 33.0 45.4 33.0 45.3 33.05 45.2 M10.0 36.6 L10.7 38.55 10.75 38.65 10.85 38.8 11.05 38.8 10.95 38.9 10.95 39.1 11.55 40.6 12.0 41.65 12.3 42.15 13.5 44.5 13.5 44.6 13.55 44.8 14.1 45.75 14.15 45.9 13.95 45.75 13.95 45.7 13.85 45.65 13.7 45.55 13.6 45.5 13.55 45.5 13.4 45.4 Q13.15 45.15 12.9 45.0 L12.65 44.75 12.5 44.65 12.35 44.5 12.2 44.45 12.15 44.3 10.85 43.5 10.55 43.35 10.5 43.25 10.4 43.2 9.8 42.9 9.7 42.85 9.6 42.85 9.0 42.55 7.75 42.0 9.85 42.5 Q10.55 42.5 10.55 41.25 10.55 38.95 10.0 36.6 M12.9 42.55 L12.65 42.0 12.65 41.85 13.9 43.4 14.65 44.15 14.75 44.3 15.0 44.5 15.1 44.5 15.2 44.5 15.15 44.6 15.2 44.65 15.35 44.8 15.55 44.95 15.9 45.65 16.4 46.6 16.6 46.9 16.55 47.05 16.45 47.45 16.4 48.05 16.4 48.15 16.1 47.8 15.9 47.6 15.55 47.15 15.5 47.05 15.45 46.95 15.45 46.9 15.3 46.75 15.2 46.6 15.15 46.55 14.95 46.25 13.95 44.5 13.9 44.45 13.9 44.3 13.75 44.1 12.9 42.55" fill="#bf9e77" fill-rule="evenodd" stroke="none"/>
      <path d="M17.05 3.7 L17.25 3.8 Q18.05 4.05 18.15 4.25 L17.4 4.0 16.05 4.25 15.55 4.55 15.5 4.55 16.1 4.15 Q16.55 3.9 17.05 3.7 M8.25 11.35 L8.3 11.35 9.3 11.85 8.1 12.0 8.25 11.35" fill="#fee2ed" fill-rule="evenodd" stroke="none"/>
      <path d="M17.85 3.45 Q18.35 3.55 18.75 4.0 19.55 4.6 19.55 5.45 L19.55 5.5 19.6 5.8 19.35 5.95 18.2 6.85 16.75 5.85 14.85 5.1 15.5 4.55 15.55 4.55 16.05 4.25 17.4 4.0 18.15 4.25 Q18.05 4.05 17.25 3.8 L17.05 3.7 17.85 3.45 M29.65 -0.25 L30.25 -0.25 29.7 -0.05 29.65 -0.25 M8.45 10.9 L9.3 11.3 10.15 11.7 Q9.85 12.2 9.7 12.9 L8.05 12.7 8.1 12.0 9.3 11.85 8.3 11.35 8.3 11.25 8.4 11.1 8.4 10.95 8.45 10.9" fill="#d2468f" fill-rule="evenodd" stroke="none"/>
      <path d="M17.05 3.7 Q16.55 3.9 16.1 4.15 L15.5 4.55 15.35 4.4 15.15 4.15 15.35 3.8 15.45 3.7 Q15.35 3.55 15.65 3.55 L16.05 3.5 17.05 3.7 M8.25 11.35 L8.1 12.0 7.75 12.05 7.65 11.85 8.0 11.35 8.25 11.35" fill="#fcf5da" fill-rule="evenodd" stroke="none"/>
      <path d="M13.0 3.85 L13.4 3.65 13.35 3.65 Q14.5 3.1 16.35 3.1 17.15 3.1 17.85 3.45 L17.05 3.7 16.05 3.5 15.65 3.55 Q15.35 3.55 15.45 3.7 L15.35 3.8 15.15 4.15 15.35 4.4 15.5 4.55 14.85 5.1 14.15 4.9 Q13.0 4.4 13.0 3.9 L13.0 3.85 M6.3 12.0 L6.3 11.85 Q6.3 11.45 7.0 11.15 L7.05 11.15 Q7.65 10.8 8.1 10.8 L8.45 10.9 8.4 10.95 8.4 11.1 8.3 11.25 8.3 11.35 8.25 11.35 8.0 11.35 7.65 11.85 7.75 12.05 8.1 12.0 8.05 12.7 Q6.7 12.4 6.3 12.0" fill="#e1b256" fill-rule="evenodd" stroke="none"/>
      <path d="M19.0 8.45 L18.65 7.8 17.95 7.2 18.2 6.85 19.35 8.05 19.0 8.45 M30.45 4.4 L30.2 2.8 29.65 0.35 29.55 0.1 29.5 0.0 29.7 -0.05 Q30.6 2.25 30.95 4.4 L30.9 4.4 30.45 4.4 M39.8 -0.25 L40.65 -0.25 Q41.9 3.1 42.65 6.2 L42.1 6.15 41.45 6.3 41.2 5.2 41.1 4.95 41.05 4.7 40.85 3.65 40.45 2.05 39.85 -0.05 39.8 -0.25 M10.95 14.0 L10.05 13.75 9.8 13.8 9.5 13.8 9.7 12.9 10.05 12.9 11.55 13.2 10.95 14.0" fill="#9c70c5" fill-rule="evenodd" stroke="none"/>
      <path d="M19.6 5.8 Q19.6 6.35 20.25 7.35 L19.45 7.95 19.35 8.05 18.2 6.85 19.35 5.95 19.6 5.8 M30.25 -0.25 L31.3 -0.25 31.3 0.45 31.25 1.05 Q31.15 2.9 31.35 4.6 L30.95 4.4 Q30.6 2.25 29.7 -0.05 L30.25 -0.25 M40.65 -0.25 L41.75 -0.25 42.05 0.45 44.55 5.75 45.1 7.15 Q43.5 6.35 42.65 6.2 41.9 3.1 40.65 -0.25 M10.15 11.7 L11.3 12.4 11.65 12.4 12.0 12.55 12.15 12.55 11.6 13.1 11.55 13.2 10.05 12.9 9.7 12.9 Q9.85 12.2 10.15 11.7" fill="#ba98d5" fill-rule="evenodd" stroke="none"/>
      <path d="M17.95 7.2 L16.95 6.7 16.55 6.7 16.4 6.7 14.75 6.9 14.45 6.9 14.4 6.35 Q14.4 5.75 14.85 5.1 L16.75 5.85 18.2 6.85 17.95 7.2 M29.5 0.0 L29.4 -0.05 29.45 -0.25 29.65 -0.25 29.7 -0.05 29.5 0.0 M9.5 13.8 L8.6 14.0 8.05 13.95 8.05 13.45 8.05 12.7 9.7 12.9 9.5 13.8" fill="#95286f" fill-rule="evenodd" stroke="none"/>
      <path d="M14.45 6.9 Q13.55 6.8 13.0 5.85 L12.8 5.75 12.8 5.5 Q12.35 4.9 12.35 4.5 12.35 4.25 12.5 4.15 L12.55 4.05 12.8 4.0 13.0 3.85 13.0 3.9 Q13.0 4.4 14.15 4.9 L14.85 5.1 Q14.4 5.75 14.4 6.35 L14.45 6.9 M8.05 13.95 L7.55 13.75 7.4 13.65 7.3 13.55 6.95 13.2 Q6.3 12.55 6.3 12.0 6.7 12.4 8.05 12.7 L8.05 13.45 8.05 13.95" fill="#cd882c" fill-rule="evenodd" stroke="none"/>
      <path d="M31.85 38.25 L31.85 38.3 Q32.2 40.15 32.9 41.55 L33.0 41.75 33.4 42.5 33.45 42.65 33.25 43.6 33.2 44.05 33.1 44.65 33.05 44.75 33.05 45.2 33.0 45.3 33.0 45.4 32.55 46.0 32.5 46.05 32.4 46.1 32.3 46.4 32.2 46.45 32.05 46.7 32.0 46.7 31.95 46.8 31.95 46.7 31.95 46.6 31.85 46.25 31.8 45.75 30.55 39.45 31.05 38.95 31.25 38.65 31.5 38.45 31.5 38.55 31.65 38.3 31.7 38.3 31.85 38.25 M11.05 38.8 L11.2 38.65 11.2 38.55 11.2 38.45 Q10.05 35.8 9.65 33.4 L9.6 32.9 9.5 32.8 9.5 32.7 9.5 32.45 9.35 31.7 9.45 31.9 9.7 32.55 9.85 32.8 9.85 32.9 Q10.7 34.9 12.0 36.5 L13.55 38.05 13.85 38.25 13.95 39.6 13.95 39.9 14.1 40.2 14.1 40.35 14.85 43.35 15.1 43.95 15.35 44.5 15.45 44.5 15.65 45.0 15.55 44.95 15.35 44.8 15.2 44.65 15.15 44.6 15.2 44.5 15.1 44.5 15.0 44.5 14.75 44.3 14.65 44.15 13.9 43.4 12.65 41.85 12.65 42.0 12.9 42.55 12.45 41.75 Q11.65 40.35 11.65 39.7 L11.3 38.95 11.25 38.8 11.2 38.8 11.05 38.8 M16.6 46.9 L16.6 46.8 16.8 47.1 16.8 47.15 16.9 47.25 17.1 47.6 17.5 48.05 18.05 48.85 18.2 49.0 18.7 49.6 19.25 50.35 19.2 50.35 18.5 50.0 18.05 49.75 17.85 49.55 17.65 49.3 17.25 49.0 16.75 48.4 16.7 48.3 16.45 48.15 16.4 48.05 16.45 47.45 16.55 47.05 16.6 46.9" fill="#a6791f" fill-rule="evenodd" stroke="none"/>
      <path d="M35.2 53.75 L34.65 53.75 34.45 53.3 34.25 53.3 33.8 53.5 33.65 53.7 33.6 53.65 33.6 53.75 33.3 53.75 33.3 53.7 32.85 53.45 32.65 53.35 32.65 53.3 32.7 53.1 32.65 53.1 32.7 52.65 33.3 51.35 33.45 51.55 33.45 51.7 33.6 51.75 33.65 51.85 33.75 51.95 33.9 52.1 35.05 53.55 35.2 53.7 35.2 53.75 M14.95 53.75 L13.95 53.75 13.95 53.7 14.25 53.3 14.45 52.95 14.6 53.2 14.65 53.15 14.95 53.75 M39.85 41.25 L39.6 40.2 39.5 40.15 39.5 39.9 Q38.95 38.1 38.75 36.35 L38.75 36.15 38.7 35.6 38.6 34.9 38.55 33.4 38.55 33.25 38.35 32.2 38.15 31.5 38.05 31.3 38.05 31.2 37.35 29.95 37.3 29.85 37.0 29.4 36.95 29.25 36.85 29.15 36.85 29.05 36.6 28.8 Q36.75 28.0 37.2 27.4 L37.35 27.65 37.7 28.15 39.1 30.95 39.15 31.15 40.15 34.9 40.35 35.6 40.35 35.7 40.15 36.3 40.15 36.35 40.2 36.6 40.45 37.75 40.7 39.3 40.65 40.25 40.15 40.95 40.15 41.05 40.15 41.2 39.95 41.25 39.85 41.25 M13.75 37.85 L14.6 38.45 14.65 38.55 14.65 38.6 14.85 38.65 15.0 38.65 15.2 38.8 15.35 38.9 15.45 38.9 15.65 38.95 16.0 39.1 16.05 39.15 16.1 39.15 17.3 39.5 17.3 39.8 17.3 39.9 17.3 40.05 17.4 40.25 17.5 41.1 Q18.0 43.5 19.95 47.45 L20.1 47.7 20.1 47.8 20.15 47.95 20.45 48.4 20.6 48.7 20.45 48.85 20.35 48.9 20.3 49.0 20.25 49.1 20.15 49.3 20.0 49.65 19.75 50.7 20.35 51.35 19.8 50.85 19.45 50.6 19.25 50.35 18.7 49.6 18.2 49.0 18.05 48.85 17.5 48.05 17.1 47.6 16.9 47.25 16.8 47.15 16.8 47.1 16.6 46.8 16.7 46.75 16.7 46.6 Q16.9 46.1 17.25 45.75 L16.4 45.4 16.25 45.3 15.65 45.0 15.45 44.5 15.35 44.5 15.1 43.95 14.85 43.35 14.1 40.35 14.1 40.2 13.95 39.9 13.95 39.6 13.85 38.25 13.75 37.85 M29.35 40.4 L29.4 40.35 29.5 40.25 29.55 40.25 29.55 40.2 29.7 40.15 30.35 39.6 30.4 39.6 30.55 39.45 31.8 45.75 31.85 46.25 31.95 46.6 31.95 46.7 31.95 46.8 31.25 47.8 31.1 48.05 31.05 48.2 30.95 48.2 30.7 45.75 30.6 45.5 29.35 40.4 M17.6 49.9 L18.35 50.45 18.5 50.5 19.0 50.7 19.45 51.15 20.1 51.7 20.15 51.85 20.3 51.85 20.25 51.9 20.45 52.1 20.35 52.1 20.1 52.25 19.1 52.95 19.0 52.65 18.9 52.65 18.7 52.45 16.9 50.95 16.75 50.85 16.55 50.65 17.1 50.25 17.6 49.9" fill="#deb527" fill-rule="evenodd" stroke="none"/>
      <path d="M34.65 53.75 L33.6 53.75 33.6 53.65 33.65 53.7 33.8 53.5 34.25 53.3 34.45 53.3 34.65 53.75 M29.15 53.75 L28.6 53.75 28.6 53.7 28.5 53.65 28.25 53.2 27.7 52.45 27.6 52.4 27.4 52.1 27.35 52.1 27.35 52.05 27.0 51.6 26.9 51.55 27.0 51.5 27.05 51.4 27.0 51.35 27.0 51.4 26.85 51.5 26.8 51.4 25.65 50.25 25.5 50.15 24.95 49.6 24.9 49.55 24.85 49.45 24.7 49.3 24.4 49.1 22.05 47.3 21.9 47.3 21.4 47.6 20.6 48.7 20.45 48.4 20.15 47.95 20.1 47.8 20.1 47.7 19.95 47.45 Q18.0 43.5 17.5 41.1 L17.4 40.25 17.3 40.05 17.3 39.9 17.3 39.8 17.3 39.5 17.75 39.65 18.85 39.9 19.35 40.05 19.4 40.15 19.45 40.15 20.35 40.4 20.5 40.4 20.85 40.5 21.4 40.6 Q22.4 40.9 23.8 41.55 L24.75 42.0 24.7 42.0 25.2 42.2 25.3 42.35 25.5 42.5 27.05 43.2 27.2 43.35 27.25 42.9 27.35 42.55 28.1 41.45 28.25 41.4 28.75 40.9 29.35 40.4 30.6 45.5 30.7 45.75 30.95 48.2 30.7 48.7 29.75 50.35 29.75 50.5 29.65 50.95 Q29.3 51.95 29.2 53.1 L29.15 53.45 29.15 53.65 29.15 53.75 M18.25 53.75 L17.7 53.75 17.6 53.55 17.5 53.45 17.5 52.6 Q16.55 52.65 16.05 52.2 L15.8 51.85 15.7 51.85 15.55 51.6 15.65 51.55 16.45 50.7 16.55 50.65 16.75 50.85 16.9 50.95 18.7 52.45 18.9 52.65 19.0 52.65 19.1 52.95 18.9 53.1 18.85 53.15 18.35 53.65 18.25 53.75 M16.9 53.75 L14.95 53.75 14.65 53.15 14.6 53.2 14.45 52.95 14.6 52.8 14.95 52.4 15.0 52.6 15.1 52.6 15.65 52.8 Q16.95 53.1 16.95 53.35 L16.9 53.75 M39.05 26.4 L39.15 26.4 Q40.45 26.4 41.2 27.65 L41.6 28.5 41.6 28.65 Q42.05 29.95 42.05 31.35 L41.95 32.7 41.45 34.0 41.45 34.05 41.4 34.15 41.4 34.2 41.1 34.5 Q40.55 35.1 40.35 35.6 L40.15 34.9 39.15 31.15 39.1 30.95 37.7 28.15 37.35 27.65 37.2 27.4 37.45 27.2 Q37.85 26.75 38.25 26.6 L38.75 26.4 39.05 26.4 M34.95 24.05 Q34.45 23.5 34.45 23.05 L34.65 22.5 34.65 22.45 34.7 22.4 35.25 22.15 36.1 22.05 36.85 22.1 37.45 22.4 37.45 22.45 37.55 22.5 37.85 23.5 37.55 24.25 Q37.15 24.8 36.4 24.8 L35.25 24.35 34.95 24.05 M37.55 19.4 L37.7 19.4 37.85 19.4 37.9 19.4 38.75 20.2 38.75 20.35 38.7 20.35 37.8 20.9 37.1 21.2 37.0 21.2 36.65 21.1 36.45 21.0 Q36.3 20.75 36.3 20.3 L36.6 19.85 Q36.95 19.5 37.2 19.5 L37.55 19.4" fill="#edd267" fill-rule="evenodd" stroke="none"/>
      <path d="M33.1 50.5 L33.45 51.55 33.3 51.35 32.7 52.65 32.65 53.1 32.7 53.1 32.65 53.3 32.2 53.15 32.15 50.85 32.15 50.5 32.2 50.45 Q32.5 50.45 33.1 50.8 L33.1 50.5" fill="#ae8020" fill-rule="evenodd" stroke="none"/>
      <path d="M19.35 35.8 Q19.6 35.55 19.95 35.4 L20.1 35.4 20.3 35.55 20.35 35.55 Q20.95 35.8 20.95 36.35 L20.8 36.85 20.6 36.85 Q19.6 36.6 19.35 35.8" fill="#faf8f5" fill-rule="evenodd" stroke="none"/>
      <path d="M17.7 53.75 L16.9 53.75 16.95 53.35 Q16.95 53.1 15.65 52.8 L15.1 52.6 15.0 52.6 14.95 52.4 14.95 52.3 15.45 51.7 15.55 51.6 15.7 51.85 15.8 51.85 16.05 52.2 Q16.55 52.65 17.5 52.6 L17.5 53.45 17.6 53.55 17.7 53.75" fill="#fcf49a" fill-rule="evenodd" stroke="none"/>
      <path d="M36.25 36.85 L36.45 36.5 36.45 36.35 36.6 36.3 37.1 35.6 Q37.5 35.2 38.0 35.1 L38.15 35.05 38.2 35.0 38.2 35.6 38.35 36.1 Q38.05 36.15 37.9 36.3 37.85 36.1 37.55 36.1 L37.1 36.25 36.85 36.8 36.95 37.3 36.85 37.35 Q36.85 36.85 36.3 36.85 L36.25 36.85 M39.25 40.55 L39.25 40.6 39.45 41.2 38.75 41.75 38.35 42.0 38.55 41.3 38.55 41.1 38.35 40.75 38.5 40.75 38.6 40.7 38.75 40.6 39.05 40.55 39.15 40.5 39.25 40.55" fill="#96bbcf" fill-rule="evenodd" stroke="none"/>
      <path d="M38.35 42.0 L37.55 42.15 Q36.85 42.15 36.4 41.45 35.85 40.55 35.85 38.95 35.85 37.75 36.25 36.85 L36.3 36.85 Q36.85 36.85 36.85 37.35 36.4 38.2 36.4 39.1 36.4 40.9 37.85 40.9 L38.35 40.75 38.55 41.1 38.55 41.3 38.35 42.0 M36.95 37.3 L36.85 36.8 37.1 36.25 37.55 36.1 Q37.85 36.1 37.9 36.3 L38.0 36.3 38.15 36.5 38.2 36.65 38.2 37.2 37.9 37.95 37.7 37.95 Q37.45 37.95 37.2 37.75 L37.1 37.65 36.95 37.3" fill="#e1eff7" fill-rule="evenodd" stroke="none"/>
      <path d="M36.85 37.35 L36.95 37.3 37.1 37.65 37.2 37.75 Q37.45 37.95 37.7 37.95 L37.9 37.95 38.05 38.25 Q38.55 39.0 38.55 39.8 L38.55 40.25 38.7 40.25 38.6 40.7 38.5 40.75 38.35 40.75 37.85 40.9 Q36.4 40.9 36.4 39.1 36.4 38.2 36.85 37.35" fill="#80332b" fill-rule="evenodd" stroke="none"/>
      <path d="M38.35 36.1 L38.35 36.25 38.35 36.45 Q38.4 37.65 38.75 38.8 L38.95 39.65 39.25 40.55 39.15 40.5 39.05 40.55 38.75 40.6 38.6 40.7 38.7 40.25 38.55 40.25 38.55 39.8 Q38.55 39.0 38.05 38.25 L37.9 37.95 38.2 37.2 38.2 36.65 38.15 36.5 38.0 36.3 37.9 36.3 Q38.05 36.15 38.35 36.1" fill="#4a1f1a" fill-rule="evenodd" stroke="none"/>
    </g>
    <g id="shape2" transform="matrix(1.0, 0.0, 0.0, 1.0, 0.0, 0.0)">
      <path d="M50.5 0.0 Q53.95 0.0 53.95 3.3 L53.95 50.15 Q53.95 53.4 50.5 53.4 L3.3 53.4 Q0.0 53.4 0.0 50.15 L0.0 3.3 Q0.0 0.0 3.3 0.0 L50.5 0.0" fill="#000000" fill-opacity="0.003921569" fill-rule="evenodd" stroke="none"/>
    </g>
  </defs>
</svg>
