<?xml version="1.0" encoding="UTF-8" standalone="no"?>
<svg xmlns:ffdec="https://www.free-decompiler.com/flash" xmlns:xlink="http://www.w3.org/1999/xlink" ffdec:objectType="frame" height="54.95px" width="55.4px" xmlns="http://www.w3.org/2000/svg">
  <g transform="matrix(1.0, 0.0, 0.0, 1.0, 1.45, 0.5)">
    <clipPath id="clipPath0" transform="matrix(1.0, 0.0, 0.0, 1.0, 0.0, 0.0)">
      <path d="M50.5 0.0 Q53.95 0.0 53.95 3.3 L53.95 50.15 Q53.95 53.4 50.5 53.4 L3.3 53.4 Q0.0 53.4 0.0 50.15 L0.0 3.3 Q0.0 0.0 3.3 0.0 L50.5 0.0" fill="#000000" fill-rule="evenodd" stroke="none"/>
    </clipPath>
    <g clip-path="url(#clipPath0)">
      <use ffdec:characterId="2" height="54.95" transform="matrix(1.0, 0.0, 0.0, 1.0, -1.45, -0.5)" width="54.15" xlink:href="#shape1"/>
    </g>
    <use ffdec:characterId="3" height="53.4" transform="matrix(1.0, 0.0, 0.0, 1.0, 0.0, 0.0)" width="53.95" xlink:href="#shape2"/>
  </g>
  <defs>
    <g id="shape1" transform="matrix(1.0, 0.0, 0.0, 1.0, 1.45, 0.5)">
      <path d="M51.0 25.75 L51.05 25.7 51.05 25.9 52.05 26.0 51.8 26.4 51.25 26.4 51.05 26.4 50.75 26.45 50.7 25.8 51.0 25.75" fill="#ffffff" fill-rule="evenodd" stroke="none"/>
      <path d="M1.85 0.0 L2.1 0.0 2.9 0.75 1.85 0.0" fill="#efefef" fill-rule="evenodd" stroke="none"/>
      <path d="M6.8 3.55 Q4.6 2.1 2.75 2.1 L1.85 2.35 Q1.55 2.65 1.5 3.45 L1.05 2.85 Q0.55 2.15 0.55 1.2 0.55 0.45 1.55 0.1 L1.85 0.0 2.9 0.75 2.1 0.0 4.05 0.0 Q5.0 0.15 5.95 0.55 L6.95 1.0 7.1 0.0 10.25 0.0 11.15 0.9 10.6 1.9 10.55 2.05 9.2 5.15 7.85 4.15 6.95 3.4 6.8 3.55" fill="#feffb7" fill-rule="evenodd" stroke="none"/>
      <path d="M10.25 0.0 L11.65 0.0 11.15 0.9 10.25 0.0" fill="#ffffcf" fill-rule="evenodd" stroke="none"/>
      <path d="M11.65 0.0 L15.75 0.0 15.5 0.65 15.2 1.2 14.5 1.95 13.6 2.2 Q13.0 2.2 12.25 1.75 L11.15 0.9 11.65 0.0" fill="#fffeb1" fill-rule="evenodd" stroke="none"/>
      <path d="M8.15 8.65 L6.7 7.2 6.8 3.55 6.95 3.4 7.85 4.15 9.2 5.15 Q8.8 6.05 8.55 6.95 L8.55 7.0 8.3 7.95 8.2 8.45 8.15 8.65 M15.75 0.0 L19.7 0.0 19.65 0.25 18.95 3.0 18.9 3.05 18.9 3.1 17.7 3.2 17.15 3.25 16.5 3.3 16.4 5.5 16.4 5.7 16.4 6.2 15.9 6.45 15.8 6.5 13.75 6.9 12.65 6.75 11.3 6.3 10.25 5.75 9.2 5.15 10.55 2.05 10.6 1.9 11.15 0.9 12.25 1.75 Q13.0 2.2 13.6 2.2 L14.5 1.95 15.2 1.2 15.5 0.65 15.75 0.0 M20.6 0.0 L21.2 0.0 21.25 0.25 20.95 0.15 20.6 0.0" fill="#feff97" fill-rule="evenodd" stroke="none"/>
      <path d="M25.05 1.55 Q25.4 0.8 26.15 0.0 L30.1 0.0 27.75 0.8 26.4 1.25 25.45 1.6 25.1 1.7 25.05 1.55 M32.6 0.0 L32.8 0.0 32.8 0.05 33.1 0.6 32.6 0.0" fill="#fef244" fill-rule="evenodd" stroke="none"/>
      <path d="M32.8 0.0 L35.1 0.0 35.45 1.25 34.7 1.35 34.5 1.35 34.45 1.35 Q33.65 1.25 33.15 0.7 L33.15 0.65 33.1 0.6 32.8 0.05 32.8 0.0" fill="#fffa8f" fill-rule="evenodd" stroke="none"/>
      <path d="M31.7 0.0 L32.6 0.0 33.1 0.6 33.15 0.65 33.15 0.7 Q33.65 1.25 34.45 1.35 L34.5 1.35 34.7 1.35 35.45 1.25 35.7 2.15 Q35.3 2.6 35.0 3.2 L34.5 4.35 34.35 5.0 34.05 6.05 33.8 6.0 33.7 5.6 32.85 3.35 32.85 3.3 32.75 3.0 32.4 2.0 31.7 0.0" fill="#ffda09" fill-rule="evenodd" stroke="none"/>
      <path d="M30.1 0.0 L31.7 0.0 32.4 2.0 32.75 3.0 32.55 3.35 32.5 3.45 Q32.05 4.2 31.65 4.2 L30.95 3.85 30.7 3.65 Q30.1 3.25 29.5 3.2 L29.15 3.15 27.6 3.4 26.35 3.7 25.8 3.55 25.55 3.15 25.95 2.1 26.4 1.25 27.75 0.8 30.1 0.0" fill="#ffea23" fill-rule="evenodd" stroke="none"/>
      <path d="M19.7 0.0 L20.6 0.0 20.95 0.15 21.25 0.25 21.25 0.45 21.4 1.1 21.4 1.2 21.6 2.0 21.5 2.45 21.35 3.05 20.75 3.05 19.0 3.1 18.9 3.05 18.95 3.0 19.65 0.25 19.7 0.0" fill="#fff476" fill-rule="evenodd" stroke="none"/>
      <path d="M35.4 8.15 L36.05 8.05 36.55 7.95 36.6 7.95 37.0 7.7 37.1 7.7 37.35 7.75 37.65 7.75 37.7 7.2 38.1 6.95 Q39.4 6.2 40.65 5.7 L42.9 5.55 43.35 5.55 42.7 7.55 42.15 8.65 40.7 10.85 39.75 11.95 38.5 13.05 37.3 13.7 35.9 13.95 35.75 13.95 35.65 13.55 34.65 12.6 34.55 12.25 34.4 11.5 34.35 11.2 34.35 11.15 34.8 10.5 35.45 9.4 35.5 9.35 35.55 9.3 35.8 8.8 35.4 8.15 M36.55 7.95 L36.25 8.4 35.55 9.3 36.25 8.4 36.55 7.95 M42.15 8.65 L38.45 7.85 37.65 7.75 38.45 7.85 42.15 8.65" fill="#ff9a02" fill-rule="evenodd" stroke="none"/>
      <path d="M43.35 5.55 L43.45 5.55 43.8 6.8 43.1 8.35 42.7 9.25 42.6 8.75 42.15 8.65 42.6 8.75 42.7 9.25 41.45 12.5 41.45 12.55 41.4 12.45 40.55 12.7 39.95 12.85 38.7 13.35 38.5 13.05 39.75 11.95 40.7 10.85 42.15 8.65 42.7 7.55 43.35 5.55" fill="#ff8003" fill-rule="evenodd" stroke="none"/>
      <path d="M43.8 6.8 L44.15 7.9 44.15 8.55 43.55 10.1 43.15 11.2 42.7 9.25 43.15 11.2 42.1 13.75 42.05 13.85 41.45 12.55 41.45 12.5 42.7 9.25 43.1 8.35 43.8 6.8" fill="#f56d00" fill-rule="evenodd" stroke="none"/>
      <path d="M44.15 8.55 L44.1 9.1 44.05 11.6 44.05 12.9 43.7 13.75 43.35 14.6 42.95 15.7 42.8 15.3 42.4 14.55 42.05 13.85 42.1 13.75 43.15 11.2 43.55 10.1 44.15 8.55 M43.7 13.75 L43.6 13.35 43.2 11.6 43.15 11.2 43.2 11.6 43.6 13.35 43.7 13.75" fill="#f34e00" fill-rule="evenodd" stroke="none"/>
      <path d="M42.05 13.85 Q41.85 14.4 41.8 15.4 L41.8 15.55 41.65 16.45 41.5 17.25 41.2 18.95 40.55 20.4 40.55 20.45 40.25 20.9 40.25 20.95 38.6 22.4 37.3 22.95 36.7 19.6 36.7 19.55 36.7 19.25 36.7 19.1 37.25 18.9 Q39.2 18.0 40.35 15.5 L40.45 15.35 41.45 12.55 42.05 13.85" fill="#f85103" fill-rule="evenodd" stroke="none"/>
      <path d="M38.5 13.05 L38.7 13.35 39.95 12.85 40.55 12.7 41.4 12.45 41.45 12.55 40.45 15.35 40.35 15.5 Q39.2 18.0 37.25 18.9 L36.7 19.1 36.55 18.2 36.4 17.5 36.25 16.55 36.25 16.45 36.0 15.25 35.8 14.2 35.75 13.95 35.9 13.95 37.3 13.7 38.5 13.05 M33.9 11.85 L33.9 11.8 33.95 11.75 34.3 11.25 34.35 11.2 34.4 11.5 34.55 12.25 34.65 12.6 33.95 11.9 33.9 11.85" fill="#ff6a00" fill-rule="evenodd" stroke="none"/>
      <path d="M42.95 15.7 L42.95 15.75 42.9 15.9 42.5 15.9 42.6 18.05 42.6 18.55 42.45 20.85 42.35 21.35 42.1 22.5 42.0 22.85 41.95 23.1 41.2 24.75 41.1 24.85 41.0 25.0 39.8 26.25 38.35 27.0 38.3 26.95 38.2 26.6 37.95 25.85 37.65 24.7 37.4 23.55 37.3 22.95 38.6 22.4 40.25 20.95 40.25 20.9 40.55 20.45 40.55 20.4 41.2 18.95 41.5 17.25 41.65 16.45 41.8 15.55 41.8 15.4 Q41.85 14.4 42.05 13.85 L42.4 14.55 42.8 15.3 42.95 15.7" fill="#e82f01" fill-rule="evenodd" stroke="none"/>
      <path d="M43.15 18.5 L43.3 19.5 43.5 20.85 44.0 25.25 44.0 25.35 44.7 26.4 45.55 27.75 45.65 27.9 45.25 28.0 44.55 28.25 43.45 28.65 43.1 28.8 42.9 29.0 41.85 30.2 41.65 30.75 40.85 30.85 40.3 30.35 39.9 29.75 Q40.7 29.05 41.4 27.8 L41.6 27.45 41.8 27.05 Q42.2 26.45 42.75 26.35 L42.8 26.3 43.05 26.05 43.2 24.9 43.2 24.45 43.2 24.25 43.1 21.45 43.05 20.9 42.9 19.55 42.6 18.55 42.6 18.05 43.15 18.5" fill="#c71014" fill-rule="evenodd" stroke="none"/>
      <path d="M42.9 15.9 L43.1 17.95 43.15 18.5 42.6 18.05 42.5 15.9 42.9 15.9 M38.35 27.0 L39.8 26.25 41.0 25.0 41.1 24.85 41.2 24.75 41.95 23.1 42.0 22.85 42.1 22.5 42.35 21.35 42.45 20.85 42.6 18.55 42.9 19.55 43.05 20.9 43.1 21.45 43.2 24.25 43.2 24.45 43.2 24.9 43.05 26.05 42.8 26.3 42.75 26.35 Q42.2 26.45 41.8 27.05 L41.6 27.45 41.4 27.8 Q40.7 29.05 39.9 29.75 L39.45 29.1 39.25 28.75 38.7 27.7 38.4 27.15 38.35 27.0" fill="#dc1c0d" fill-rule="evenodd" stroke="none"/>
      <path d="M49.25 24.7 L49.25 24.15 51.45 22.5 51.95 22.15 52.2 21.95 52.5 21.75 52.7 21.6 52.55 21.9 51.05 25.65 51.0 25.75 50.7 25.8 50.7 25.7 50.8 25.5 51.0 24.95 51.1 24.75 52.05 22.35 51.65 22.65 51.45 22.5 51.65 22.7 51.3 22.95 49.75 24.3 49.65 24.4 49.25 24.7" fill="#eaeaec" fill-rule="evenodd" stroke="none"/>
      <path d="M49.2 25.9 L49.2 25.6 49.25 24.7 49.65 24.4 49.7 25.55 49.2 25.9" fill="#fffffd" fill-rule="evenodd" stroke="none"/>
      <path d="M51.8 26.4 L50.75 28.0 50.3 28.75 50.15 28.95 50.3 28.65 50.6 27.9 50.95 27.1 51.0 27.0 51.05 26.9 51.25 26.4 51.8 26.4" fill="#f1f1f1" fill-rule="evenodd" stroke="none"/>
      <path d="M50.6 31.15 L50.6 31.25 50.6 31.4 50.65 31.8 50.65 32.05 50.6 32.1 50.1 32.3 49.55 33.95 49.45 33.95 49.4 34.0 49.3 34.0 48.9 34.15 48.5 34.25 47.95 34.25 Q47.3 34.25 47.1 33.85 46.9 33.55 46.95 33.1 46.35 33.6 46.0 33.6 L45.4 33.5 45.1 33.2 44.45 32.25 44.05 31.9 43.7 31.3 43.55 30.7 43.5 30.5 43.4 29.25 43.45 28.65 44.55 28.25 Q44.6 29.3 45.05 30.1 L45.4 30.65 45.6 30.85 Q46.35 31.65 46.85 31.65 L47.05 31.65 47.25 31.45 Q47.3 31.85 47.7 32.15 L47.8 32.2 48.15 32.4 47.95 32.75 47.55 33.4 47.1 33.85 47.55 33.4 47.95 32.75 48.15 32.4 48.75 32.55 48.95 32.55 49.0 32.55 49.6 32.45 50.1 32.3 50.4 31.4 50.45 31.15 50.6 31.15 M45.8 32.7 L45.35 31.8 44.75 31.6 Q44.3 31.6 44.05 31.9 44.3 31.6 44.75 31.6 L45.35 31.8 45.8 32.7" fill="#ef6a05" fill-rule="evenodd" stroke="none"/>
      <path d="M50.65 32.05 L50.65 32.3 50.65 33.25 50.65 33.3 49.55 33.95 49.5 34.1 49.4 34.35 49.2 34.9 49.15 34.95 48.95 34.95 48.8 35.0 47.95 35.05 46.5 34.85 45.5 34.6 45.2 34.5 45.25 34.2 44.55 34.05 Q43.8 33.7 43.8 32.85 43.8 32.2 44.05 31.9 L44.45 32.25 45.1 33.2 45.4 33.5 46.0 33.6 Q46.35 33.6 46.95 33.1 46.9 33.55 47.1 33.85 L45.95 34.25 45.45 34.25 45.25 34.2 45.45 34.25 45.95 34.25 47.1 33.85 Q47.3 34.25 47.95 34.25 L48.5 34.25 48.9 34.15 49.3 34.0 49.4 34.0 49.45 33.95 49.55 33.95 50.1 32.3 50.6 32.1 50.65 32.05" fill="#df4a08" fill-rule="evenodd" stroke="none"/>
      <path d="M50.65 33.3 L50.65 34.45 50.0 34.7 49.7 34.8 49.2 34.9 49.1 35.15 48.95 35.3 48.95 35.35 Q48.3 36.2 47.2 36.2 L46.5 36.15 45.7 35.95 44.6 35.4 Q42.9 34.1 42.75 31.1 L42.75 30.6 42.75 30.5 Q42.75 29.8 42.9 29.0 L43.1 28.8 43.45 28.65 43.4 29.25 43.5 30.5 43.55 30.7 43.7 31.3 44.05 31.9 Q43.8 32.2 43.8 32.85 43.8 33.7 44.55 34.05 L45.25 34.2 45.2 34.5 45.5 34.6 46.5 34.85 47.95 35.05 48.8 35.0 48.95 34.95 49.15 34.95 49.2 34.9 49.4 34.35 49.5 34.1 49.55 33.95 50.65 33.3" fill="#cd0f19" fill-rule="evenodd" stroke="none"/>
      <path d="M47.6 27.25 L49.1 26.0 49.2 26.0 49.2 25.9 49.7 25.55 49.75 26.1 49.25 26.35 47.8 27.2 47.4 27.45 47.6 27.25" fill="#fffff6" fill-rule="evenodd" stroke="none"/>
      <path d="M47.55 27.3 L47.6 27.25 47.4 27.45 47.8 27.2 47.85 27.15 47.9 27.15 48.05 27.1 48.1 27.05 48.15 27.05 48.2 27.05 48.3 27.0 49.65 26.55 49.9 26.45 50.2 28.15 50.3 28.65 50.15 28.95 50.3 28.75 50.35 29.1 50.4 29.65 50.4 29.8 50.45 29.95 49.95 30.0 49.85 30.0 49.8 30.0 49.05 29.8 49.15 29.35 49.45 28.1 49.5 27.7 49.6 27.0 49.65 26.55 49.6 27.0 49.5 27.7 49.45 28.1 49.15 29.35 49.05 29.8 48.55 29.3 48.35 28.95 48.15 28.6 48.1 28.55 47.75 28.75 47.35 28.9 47.05 28.7 46.95 28.3 46.95 28.25 46.9 28.0 46.9 27.75 46.95 27.45 46.95 27.5 47.55 27.3" fill="#fedf47" fill-rule="evenodd" stroke="none"/>
      <path d="M45.65 27.9 L45.75 27.85 45.95 27.8 46.0 27.75 46.15 28.25 46.25 28.45 47.15 29.85 Q47.8 30.5 48.55 30.85 L48.6 30.85 48.75 30.9 48.65 31.25 48.65 31.35 48.6 31.55 48.65 31.35 48.65 31.25 48.75 30.9 49.85 31.15 50.2 31.15 50.3 31.15 50.45 31.15 50.4 31.4 50.1 32.3 49.6 32.45 49.0 32.55 48.95 32.55 48.75 32.55 48.15 32.4 47.8 32.2 47.7 32.15 Q47.3 31.85 47.25 31.45 L47.05 31.65 46.85 31.65 Q46.35 31.65 45.6 30.85 L45.4 30.65 45.05 30.1 Q44.6 29.3 44.55 28.25 L45.25 28.0 45.65 27.9 M48.5 31.7 L48.15 32.4 48.5 31.7 48.6 31.55 48.55 31.55 48.5 31.7" fill="#fda505" fill-rule="evenodd" stroke="none"/>
      <path d="M46.0 27.75 L46.05 27.75 46.45 27.6 46.95 27.45 46.9 27.75 46.9 28.0 46.95 28.25 46.95 28.3 47.05 28.7 47.35 28.9 47.75 28.75 48.1 28.55 48.15 28.6 48.35 28.95 48.55 29.3 49.05 29.8 48.75 30.9 48.6 30.85 48.55 30.85 Q47.8 30.5 47.15 29.85 L46.25 28.45 46.15 28.25 46.0 27.75" fill="#fcc52c" fill-rule="evenodd" stroke="none"/>
      <path d="M50.45 29.95 L50.45 30.2 50.5 30.3 50.5 30.5 50.55 30.75 50.55 30.85 50.55 30.9 50.5 31.1 50.45 31.15 50.3 31.15 50.2 31.15 49.85 31.15 48.75 30.9 49.05 29.8 49.8 30.0 49.85 30.0 49.95 30.0 50.45 29.95" fill="#feb510" fill-rule="evenodd" stroke="none"/>
      <path d="M50.65 34.45 L50.6 35.05 50.0 35.6 Q49.55 35.95 49.25 36.25 L49.05 36.4 48.95 36.5 48.25 36.95 46.75 37.1 46.5 37.1 45.9 37.05 Q42.7 36.8 41.7 34.75 L41.4 33.9 41.25 32.55 41.25 32.5 41.45 31.3 41.65 30.75 41.85 30.2 42.9 29.0 Q42.75 29.8 42.75 30.5 L42.75 30.6 42.75 31.1 Q42.9 34.1 44.6 35.4 L45.7 35.95 46.5 36.15 47.2 36.2 Q48.3 36.2 48.95 35.35 L48.95 35.3 49.1 35.15 49.2 34.9 49.7 34.8 50.0 34.7 50.65 34.45" fill="#b90c1f" fill-rule="evenodd" stroke="none"/>
      <path d="M40.3 30.35 L40.85 30.85 41.65 30.75 41.45 31.3 40.3 30.35 M35.4 28.85 L34.95 28.55 35.0 28.05 35.05 27.45 35.0 26.95 35.0 26.75 35.3 28.35 35.4 28.85 M32.75 22.8 L32.7 21.95 33.0 22.3 33.1 22.25 33.1 22.45 33.6 23.05 33.8 23.25 33.9 23.35 34.65 25.3 33.9 24.0 32.85 22.9 32.75 22.8 M33.0 22.3 L33.1 22.45 33.0 22.3" fill="#7c0016" fill-rule="evenodd" stroke="none"/>
      <path d="M39.9 29.75 L40.3 30.35 41.45 31.3 41.25 32.5 41.25 32.55 39.5 31.4 36.35 29.6 35.4 29.0 35.4 28.85 35.3 28.35 35.0 26.75 34.95 26.6 35.0 26.65 36.5 28.25 37.0 28.65 Q37.55 29.0 38.05 29.05 L38.25 29.05 38.7 29.0 38.8 28.95 38.95 28.9 39.25 28.75 39.45 29.1 39.9 29.75" fill="#b40019" fill-rule="evenodd" stroke="none"/>
      <path d="M49.25 36.25 L49.25 36.3 48.75 38.3 48.65 38.3 48.55 38.35 47.5 38.4 47.35 38.4 47.25 38.4 46.3 38.35 45.65 38.25 45.5 38.25 45.45 38.25 43.7 37.7 43.4 37.6 42.7 37.25 42.7 37.2 42.4 37.05 41.9 36.75 41.95 36.35 41.7 34.75 Q42.7 36.8 45.9 37.05 L46.5 37.1 46.75 37.1 48.25 36.95 48.95 36.5 49.05 36.4 49.25 36.25 M41.4 33.9 L40.9 32.9 40.8 32.65 40.65 32.6 40.25 32.5 39.35 32.25 38.75 32.15 38.45 32.05 37.95 31.95 37.75 31.9 35.8 31.55 34.65 31.4 34.3 31.55 32.85 32.05 32.65 32.1 32.4 32.15 33.65 31.1 33.95 30.75 Q34.7 29.75 34.95 28.55 L35.4 28.85 35.4 29.0 36.35 29.6 39.5 31.4 41.25 32.55 41.4 33.9 M46.5 37.1 L46.3 38.35 46.5 37.1" fill="#6f011c" fill-rule="evenodd" stroke="none"/>
      <path d="M32.4 32.15 L32.65 32.1 32.85 32.05 34.3 31.55 34.65 31.4 35.8 31.55 37.75 31.9 37.95 31.95 38.45 32.05 38.75 32.15 39.35 32.25 40.25 32.5 40.65 32.6 40.8 32.65 40.9 32.9 41.4 33.9 41.7 34.75 41.95 36.35 41.9 36.75 Q41.85 37.55 41.4 38.25 L40.6 39.25 40.55 39.25 39.45 40.0 38.3 40.45 37.1 40.55 34.65 40.1 33.95 39.95 34.85 39.95 Q36.45 39.95 37.7 39.15 L38.0 38.9 38.3 38.65 38.45 38.5 Q39.55 37.4 39.55 35.65 39.55 34.15 39.0 33.6 L38.6 33.3 38.4 33.15 37.9 32.85 37.8 32.8 37.55 32.7 Q36.6 32.15 36.25 32.15 L36.15 32.2 35.6 32.3 34.65 32.65 34.25 32.8 32.6 33.1 31.85 33.1 31.8 33.0 31.45 32.6 32.4 32.15 M33.3 39.9 L33.85 39.95 33.85 40.0 33.3 39.9" fill="#790124" fill-rule="evenodd" stroke="none"/>
      <path d="M48.6 38.8 L48.25 40.1 48.0 41.1 47.95 41.95 47.35 43.15 47.3 43.05 46.45 42.15 46.25 42.0 46.2 41.95 45.85 41.75 45.8 41.75 45.3 41.55 44.95 41.5 44.35 41.65 44.0 41.85 43.8 42.0 43.5 42.15 Q43.15 42.35 42.75 42.65 L42.15 43.1 41.7 43.35 40.0 43.8 38.35 43.65 37.7 43.45 Q36.9 43.1 36.25 42.55 L35.7 42.1 34.65 40.95 34.65 40.9 33.85 40.25 33.25 39.9 33.3 39.9 33.85 40.0 33.85 39.95 33.95 39.95 34.65 40.1 37.1 40.55 38.3 40.45 39.45 40.0 40.55 39.25 40.6 39.25 41.4 38.25 Q41.85 37.55 41.9 36.75 L42.4 37.05 42.7 37.2 42.7 37.25 43.4 37.6 43.7 37.7 45.45 38.25 45.5 38.25 45.65 38.25 46.3 38.35 47.25 38.4 47.35 38.4 47.5 38.4 48.55 38.35 48.6 38.8 M46.2 41.95 L45.75 41.3 46.1 39.55 46.3 38.35 46.1 39.55 45.75 41.3 46.2 41.95 M45.75 41.3 L45.3 41.55 45.75 41.3" fill="#68001d" fill-rule="evenodd" stroke="none"/>
      <path d="M49.3 37.25 L49.35 36.6 49.45 36.45 49.6 36.3 49.65 36.25 49.7 37.5 49.3 37.25" fill="#f6e8e8" fill-rule="evenodd" stroke="none"/>
      <path d="M49.7 37.5 L50.4 38.0 50.45 38.0 50.6 38.1 50.85 38.3 50.7 38.7 50.25 38.45 50.15 38.35 49.75 38.1 49.3 37.8 49.3 37.25 49.7 37.5" fill="#f8ffff" fill-rule="evenodd" stroke="none"/>
      <path d="M50.7 38.7 L49.65 41.2 49.6 41.4 49.35 42.15 49.5 41.35 49.55 41.15 50.0 39.15 50.25 38.45 50.7 38.7" fill="#d1d6dc" fill-rule="evenodd" stroke="none"/>
      <path d="M46.2 41.95 L46.25 42.0 46.45 42.15 47.3 43.05 47.35 43.15 47.3 43.3 47.25 43.35 46.9 44.0 46.65 44.4 46.4 44.7 46.3 44.65 46.25 44.65 45.15 44.0 44.7 43.7 44.45 43.5 44.35 43.45 44.25 43.35 44.1 43.45 43.85 43.6 42.3 44.3 41.85 44.4 39.2 44.65 38.4 44.6 38.3 44.6 37.75 44.5 Q36.1 44.15 35.15 42.95 L34.6 42.1 34.55 42.05 34.1 42.4 33.65 42.7 33.5 42.8 33.0 43.15 32.9 43.15 32.5 43.45 32.15 43.65 30.7 44.35 30.15 44.55 29.5 44.8 28.9 45.0 28.75 45.05 28.1 45.15 27.8 45.25 26.9 45.35 26.0 45.4 25.7 45.4 25.55 45.4 25.0 45.4 24.3 45.35 24.15 45.3 23.65 45.2 22.15 44.65 21.35 44.25 20.6 43.8 20.25 43.55 20.0 43.35 18.85 42.1 Q17.8 40.65 17.35 38.6 17.1 37.3 17.1 35.8 L17.15 35.2 17.35 35.2 17.7 35.15 17.7 35.25 17.9 36.4 18.45 38.15 Q19.15 39.8 20.35 41.15 L20.4 41.2 21.0 41.8 21.8 42.5 23.65 43.6 24.55 43.95 25.2 44.1 26.15 44.2 26.5 44.2 26.9 44.2 27.85 44.05 28.6 43.8 28.75 43.75 30.75 42.75 30.8 42.75 31.75 42.2 32.8 41.7 33.1 41.6 33.75 41.4 34.25 41.3 34.45 41.35 34.6 41.4 35.7 42.1 36.25 42.55 Q36.9 43.1 37.7 43.45 L38.35 43.65 40.0 43.8 41.7 43.35 42.15 43.1 42.75 42.65 Q43.15 42.35 43.5 42.15 L43.8 42.0 45.3 41.55 43.8 42.0 44.0 41.85 44.35 41.65 44.95 41.5 45.3 41.55 45.8 41.75 45.85 41.75 46.2 41.95 46.45 42.15 46.2 41.95" fill="#7e001c" fill-rule="evenodd" stroke="none"/>
      <path d="M47.95 41.95 L48.15 41.45 48.3 40.9 48.6 41.85 48.6 41.9 Q49.1 43.55 49.2 45.55 L48.75 45.6 48.6 45.0 48.55 44.9 48.4 44.75 48.3 44.7 48.0 44.65 Q47.7 44.65 47.2 45.8 L47.15 45.95 47.0 46.25 46.95 46.45 46.9 46.55 46.7 46.95 46.6 47.15 46.25 47.8 46.2 47.55 46.15 46.6 46.2 46.2 46.25 44.65 46.3 44.65 46.4 44.7 46.65 44.4 46.9 44.0 47.25 43.35 47.3 43.3 47.35 43.15 47.95 41.95" fill="#9d031f" fill-rule="evenodd" stroke="none"/>
      <path d="M44.45 43.5 L44.7 43.7 45.15 44.0 46.25 44.65 46.2 46.2 46.15 46.6 46.2 47.55 Q45.8 47.15 45.5 47.15 L45.35 47.3 45.05 47.7 44.95 46.55 44.85 46.1 44.8 45.75 44.6 44.4 44.45 43.5" fill="#c61908" fill-rule="evenodd" stroke="none"/>
      <path d="M49.2 45.55 L49.25 46.4 48.75 45.6 49.2 45.55 M17.15 35.2 L17.1 35.8 Q17.1 37.3 17.35 38.6 17.8 40.65 18.85 42.1 L20.0 43.35 20.25 43.55 20.6 43.8 21.35 44.25 22.15 44.65 23.65 45.2 24.15 45.3 24.3 45.35 25.0 45.4 25.55 45.4 25.7 45.4 26.0 45.4 26.9 45.35 27.8 45.25 28.1 45.15 28.75 45.05 28.9 45.0 29.5 44.8 30.15 44.55 30.7 44.35 32.15 43.65 32.5 43.45 32.9 43.15 33.0 43.15 33.5 42.8 33.65 42.7 34.1 42.4 34.55 42.05 34.6 42.1 35.15 42.95 Q36.1 44.15 37.75 44.5 L38.3 44.6 38.4 44.6 39.2 44.65 41.85 44.4 42.3 44.3 43.85 43.6 44.1 43.45 44.45 43.5 44.6 44.4 44.8 45.75 44.85 46.1 44.95 46.55 45.05 47.7 45.0 50.4 44.9 51.05 44.85 51.4 44.8 51.85 44.65 52.35 44.55 52.8 44.25 52.7 44.35 51.8 44.4 51.25 44.45 50.35 44.35 48.9 44.05 47.45 Q43.55 45.45 42.75 45.45 L42.45 45.55 42.1 45.65 39.65 45.85 39.1 46.0 38.6 46.0 38.45 46.0 38.05 45.95 37.6 45.85 36.25 45.4 34.7 44.8 34.45 44.7 34.0 44.55 33.5 44.35 33.2 44.4 32.8 44.6 32.75 44.6 32.1 44.95 31.35 45.35 30.65 45.65 29.55 45.85 29.15 45.9 28.7 45.95 28.3 46.0 27.95 46.15 26.75 46.65 25.75 47.0 25.35 47.15 24.5 47.5 23.8 47.8 23.4 47.95 23.1 48.1 21.85 48.6 21.85 48.55 21.8 48.6 20.7 49.75 20.45 49.5 21.25 48.55 21.45 48.3 21.65 47.95 22.45 46.3 20.65 44.65 20.3 44.35 20.15 44.25 20.0 44.1 18.55 42.9 18.2 42.5 17.25 40.9 16.65 39.0 15.95 37.3 Q14.95 35.75 12.55 35.45 L12.55 35.15 13.7 35.15 16.1 35.15 17.15 35.2 M23.8 47.15 L23.5 47.3 22.9 47.75 21.85 48.55 22.9 47.75 23.5 47.3 23.8 47.15 23.95 47.0 24.85 46.2 25.55 45.55 25.7 45.4 25.55 45.55 24.85 46.2 23.95 47.0 23.8 47.15 M39.55 45.85 L39.65 45.85 39.65 45.8 39.55 45.85" fill="#b9091e" fill-rule="evenodd" stroke="none"/>
      <path d="M21.85 48.6 L23.1 48.1 23.4 47.95 23.8 47.8 24.5 47.5 25.35 47.15 25.75 47.0 26.75 46.65 27.95 46.15 28.3 46.0 28.7 45.95 29.15 45.9 29.55 45.85 30.65 45.65 31.35 45.35 32.1 44.95 32.75 44.6 32.8 44.6 33.2 44.4 33.5 44.35 34.0 44.55 34.45 44.7 34.7 44.8 36.25 45.4 37.6 45.85 38.05 45.95 38.45 46.0 38.6 46.0 39.1 46.0 39.65 45.85 42.1 45.65 42.45 45.55 42.75 45.45 Q43.55 45.45 44.05 47.45 L44.35 48.9 44.45 50.35 44.4 51.25 44.35 51.8 44.25 52.7 Q44.15 51.25 43.5 50.0 L42.15 48.3 41.65 48.0 Q40.6 47.5 39.5 47.15 L39.35 47.1 38.45 46.8 38.35 46.8 37.65 46.6 37.4 46.5 34.65 46.0 34.4 46.0 33.7 45.95 32.85 45.9 31.9 46.0 30.55 46.25 29.35 46.55 28.7 46.75 28.5 46.8 28.1 46.95 26.65 47.5 25.55 47.9 25.45 47.95 25.25 48.0 23.55 48.75 23.2 48.9 21.6 49.6 20.45 50.2 20.4 50.0 20.7 49.75 21.8 48.6 21.85 48.6" fill="#c72113" fill-rule="evenodd" stroke="none"/>
      <path d="M44.25 53.9 L44.25 53.95 43.6 53.95 Q43.55 53.2 43.1 52.2 L42.8 51.65 42.5 51.15 42.35 50.95 41.65 50.05 41.4 49.75 40.2 48.85 40.0 48.6 39.55 48.3 39.3 48.15 37.4 47.4 37.2 47.35 34.75 47.0 34.65 47.0 34.6 47.0 31.7 47.3 30.35 47.5 29.85 47.6 28.65 47.8 28.5 47.85 28.3 47.9 26.5 48.65 25.55 48.95 25.4 49.05 25.35 49.1 25.3 49.1 25.15 49.15 23.25 49.5 22.9 49.6 21.8 49.9 21.75 49.9 20.5 50.3 20.45 50.3 20.45 50.2 21.6 49.6 23.2 48.9 23.55 48.75 25.25 48.0 25.45 47.95 25.55 47.9 26.65 47.5 28.1 46.95 28.5 46.8 28.7 46.75 29.35 46.55 30.55 46.25 31.9 46.0 32.85 45.9 33.7 45.95 34.4 46.0 34.65 46.0 37.4 46.5 37.65 46.6 38.35 46.8 38.45 46.8 39.35 47.1 39.5 47.15 Q40.6 47.5 41.65 48.0 L42.15 48.3 43.5 50.0 Q44.15 51.25 44.25 52.7 L44.55 52.8 44.25 53.85 44.25 53.9 M2.35 37.45 L3.3 37.4 3.45 37.35 3.6 37.35 4.25 37.3 5.2 37.2 5.9 37.15 7.05 37.05 10.85 36.65 11.2 36.6 Q13.3 36.6 14.25 37.9 L15.25 39.45 15.35 39.6 15.5 39.9 16.15 41.0 16.25 41.1 17.85 42.8 17.9 42.85 18.25 43.2 20.0 45.5 20.15 46.1 20.05 47.1 19.55 48.55 19.1 49.8 18.8 50.6 18.85 50.4 18.95 49.75 18.95 48.6 Q18.95 47.45 18.6 46.55 18.1 45.3 16.7 43.4 L16.25 42.85 16.2 42.75 16.15 42.7 16.0 42.55 16.0 42.5 15.55 41.85 15.2 41.45 15.05 41.3 14.45 40.7 13.75 40.2 Q12.75 39.6 11.5 39.2 L11.0 39.1 7.3 38.35 6.7 38.3 6.2 38.2 5.5 38.1 4.4 37.9 3.85 37.75 3.6 37.7 3.4 37.65 3.15 37.6 2.35 37.45 2.25 37.4 1.5 37.2 1.5 37.15 2.35 37.1 2.35 37.45" fill="#dd4106" fill-rule="evenodd" stroke="none"/>
      <path d="M45.05 47.7 L45.35 47.3 45.5 47.15 Q45.8 47.15 46.2 47.55 L46.25 47.8 46.25 47.95 46.25 48.3 46.3 48.8 46.35 49.1 46.35 49.75 46.6 50.95 46.65 51.1 46.55 51.05 Q45.85 50.35 45.5 50.35 45.2 50.35 44.9 51.05 L45.0 50.4 45.05 47.7" fill="#df5a00" fill-rule="evenodd" stroke="none"/>
      <path d="M49.25 46.4 L49.25 46.9 49.25 49.1 Q48.75 48.5 48.7 47.8 L48.6 46.9 48.55 46.8 48.45 46.65 48.0 46.55 Q47.7 46.55 47.45 46.85 L47.2 47.1 47.0 47.4 46.95 47.45 46.85 47.6 46.3 48.8 46.25 48.3 46.25 47.95 46.25 47.8 46.6 47.15 46.7 46.95 46.9 46.55 46.95 46.45 47.0 46.25 47.15 45.95 47.2 45.8 Q47.7 44.65 48.0 44.65 L48.3 44.7 48.4 44.75 48.55 44.9 48.6 45.0 48.75 45.6 49.25 46.4" fill="#b81611" fill-rule="evenodd" stroke="none"/>
      <path d="M49.25 49.1 L49.25 49.3 48.9 49.1 48.55 48.85 48.3 48.55 47.9 48.3 47.8 48.35 Q47.4 48.4 47.1 49.1 46.7 50.0 46.7 51.35 L46.65 51.1 46.6 50.95 46.35 49.75 46.35 49.1 46.3 48.8 46.85 47.6 46.95 47.45 47.0 47.4 47.2 47.1 47.45 46.85 Q47.7 46.55 48.0 46.55 L48.45 46.65 48.55 46.8 48.6 46.9 48.7 47.8 Q48.75 48.5 49.25 49.1" fill="#d3340d" fill-rule="evenodd" stroke="none"/>
      <path d="M49.25 49.3 L49.25 49.6 49.2 49.6 49.0 49.6 Q48.6 49.6 48.25 49.85 48.05 49.95 47.8 50.2 47.2 50.9 47.2 51.85 L47.45 53.5 47.25 53.2 47.25 53.15 47.2 53.0 46.85 52.0 46.7 51.35 Q46.7 50.0 47.1 49.1 47.4 48.4 47.8 48.35 L47.9 48.3 48.3 48.55 48.55 48.85 48.9 49.1 49.25 49.3" fill="#ed6c07" fill-rule="evenodd" stroke="none"/>
      <path d="M35.7 2.15 L35.9 3.1 35.9 3.15 35.8 3.3 Q35.45 4.05 35.25 4.7 L34.65 6.85 34.7 6.9 35.4 8.15 35.8 8.8 35.55 9.3 35.5 9.35 35.45 9.4 34.8 10.5 34.35 11.15 34.35 11.2 34.3 11.25 33.95 11.75 33.9 11.8 33.9 11.85 33.85 11.75 33.8 11.75 33.8 11.35 33.75 10.8 33.75 10.55 33.75 9.2 33.8 8.5 33.8 7.45 33.8 7.05 33.8 6.75 34.05 6.05 34.35 5.0 34.5 4.35 35.0 3.2 Q35.3 2.6 35.7 2.15" fill="#fcb201" fill-rule="evenodd" stroke="none"/>
      <path d="M24.3 3.25 L24.95 1.85 24.95 1.75 25.1 1.7 25.45 1.6 26.4 1.25 25.95 2.1 25.55 3.15 25.8 3.55 26.35 3.7 27.6 3.4 29.15 3.15 29.5 3.2 Q30.1 3.25 30.7 3.65 L30.95 3.85 31.65 4.2 Q32.05 4.2 32.5 3.45 L32.85 3.35 33.7 5.6 33.8 6.0 33.8 6.75 33.8 7.05 33.8 7.45 33.8 8.5 33.75 9.2 33.3 8.6 33.2 8.5 32.8 8.0 32.65 7.8 32.35 7.45 29.55 4.55 29.35 4.55 28.7 4.7 28.5 4.7 26.2 5.4 25.6 5.6 25.1 5.8 22.35 6.95 23.4 5.0 24.1 3.65 24.3 3.25" fill="#ffea3f" fill-rule="evenodd" stroke="none"/>
      <path d="M28.7 4.7 L29.35 4.55 29.55 4.55 32.35 7.45 32.65 7.8 32.8 8.0 33.2 8.5 33.3 8.6 33.75 9.2 33.75 10.55 33.75 10.8 33.55 10.7 32.85 10.4 32.8 10.4 32.75 10.35 32.0 10.05 31.85 10.0 30.7 9.55 28.65 8.95 28.4 8.95 28.2 9.15 28.0 9.4 27.95 9.45 26.95 10.65 26.15 11.7 25.9 12.05 25.85 12.2 25.35 12.9 24.85 13.75 24.6 14.15 24.3 14.65 23.85 15.65 22.05 14.45 22.0 14.4 21.55 14.05 21.2 13.8 20.15 12.85 20.2 12.45 20.35 11.2 21.35 12.1 21.4 12.15 Q22.15 12.65 22.7 12.65 23.25 12.65 23.6 12.1 L24.55 10.45 Q25.2 9.35 26.05 8.65 L26.45 8.35 Q26.75 8.1 27.3 8.0 L28.15 7.8 28.65 7.75 Q29.5 7.7 29.5 6.5 29.5 5.6 29.1 5.1 L28.95 4.9 28.7 4.7" fill="#fdcd01" fill-rule="evenodd" stroke="none"/>
      <path d="M24.3 14.65 L24.6 14.15 24.85 13.75 25.35 12.9 25.85 12.2 25.9 12.05 26.15 11.7 26.95 10.65 27.95 9.45 28.0 9.4 28.2 9.15 28.4 8.95 28.65 8.95 30.7 9.55 31.85 10.0 32.0 10.05 32.75 10.35 32.8 10.4 32.85 10.4 32.75 11.05 32.75 11.1 32.7 11.3 32.55 11.6 32.5 11.75 32.45 11.8 Q32.15 12.3 31.75 12.3 L31.15 12.15 31.1 12.15 30.75 12.05 30.65 12.0 30.55 12.0 30.4 11.95 30.25 11.95 29.75 12.0 29.35 12.15 29.1 12.3 28.8 12.55 28.75 12.65 28.65 12.8 Q28.35 13.25 28.35 13.85 L28.35 14.05 28.55 14.95 28.45 15.45 27.85 15.65 26.35 15.35 24.4 14.7 24.3 14.65" fill="#ffbb02" fill-rule="evenodd" stroke="none"/>
      <path d="M21.55 14.05 L22.0 14.4 22.05 14.45 23.85 15.65 24.3 14.65 24.4 14.7 26.35 15.35 27.85 15.65 28.45 15.45 28.55 14.95 28.35 14.05 28.35 13.85 Q28.35 13.25 28.65 12.8 L28.75 12.65 28.8 12.55 29.1 12.3 29.35 12.15 29.75 12.0 30.25 11.95 30.4 11.95 30.55 12.0 30.65 12.0 30.75 12.05 31.1 12.15 31.15 12.15 31.75 12.3 Q32.15 12.3 32.45 11.8 L32.5 11.75 32.55 11.6 32.7 11.3 32.75 11.1 32.75 11.05 32.85 10.4 33.55 10.7 33.75 10.8 33.8 11.35 33.8 11.75 33.85 11.75 33.9 11.85 33.95 11.9 34.65 12.6 35.65 13.55 35.75 13.95 35.8 14.2 34.8 14.0 34.75 14.0 33.55 13.8 32.7 13.7 31.7 13.6 31.5 13.6 31.4 13.6 31.35 13.7 30.8 15.0 30.5 16.05 30.25 17.4 30.1 18.85 30.1 19.0 28.2 17.45 27.6 17.45 27.3 17.4 25.3 17.2 23.85 17.0 23.4 16.95 20.9 16.45 20.5 16.4 20.05 16.3 20.0 16.3 18.35 15.85 18.05 15.8 17.8 15.0 17.35 13.45 17.7 13.5 17.75 13.5 18.25 13.6 19.55 13.8 20.05 13.9 21.4 14.05 21.55 14.05 M28.1 17.4 L28.2 17.45 28.1 17.4 Q27.0 17.3 25.3 16.45 L24.15 15.85 23.85 15.65 24.15 15.85 25.3 16.45 Q27.0 17.3 28.1 17.4" fill="#ffa700" fill-rule="evenodd" stroke="none"/>
      <path d="M28.7 4.7 L28.95 4.9 29.1 5.1 Q29.5 5.6 29.5 6.5 29.5 7.7 28.65 7.75 L28.15 7.8 27.3 8.0 Q26.75 8.1 26.45 8.35 L26.05 8.65 Q25.2 9.35 24.55 10.45 L23.6 12.1 Q23.25 12.65 22.7 12.65 22.15 12.65 21.4 12.15 L21.35 12.1 20.35 11.2 20.6 9.45 20.75 8.45 20.85 7.6 21.35 7.4 22.2 7.05 22.35 6.95 25.1 5.8 25.6 5.6 26.2 5.4 28.5 4.7 28.7 4.7" fill="#ffd715" fill-rule="evenodd" stroke="none"/>
      <path d="M10.65 11.2 L10.45 11.0 10.75 11.15 12.3 11.75 13.0 11.95 13.45 12.1 13.65 12.1 13.55 12.4 13.5 12.4 12.9 12.2 12.3 11.95 10.65 11.2 M22.8 3.0 L22.95 3.0 24.0 3.05 24.15 3.15 24.3 3.25 24.1 3.65 23.4 5.0 22.35 6.95 22.2 7.05 22.75 4.45 22.8 3.15 22.8 3.0 M20.35 11.2 L20.2 12.45 19.6 12.55 19.1 12.6 18.6 12.65 17.9 12.65 17.8 12.65 17.5 12.65 17.2 12.65 16.85 11.0 17.05 11.0 18.5 10.6 18.95 10.45 20.6 9.45 20.35 11.2" fill="#fad50b" fill-rule="evenodd" stroke="none"/>
      <path d="M19.0 3.1 L20.75 3.05 21.35 3.05 21.35 3.1 20.95 4.45 20.1 6.4 19.25 7.5 18.25 8.35 18.0 8.5 16.6 9.1 16.4 6.2 16.4 5.7 16.4 5.5 16.7 5.5 16.75 5.95 16.95 6.3 17.65 6.7 17.7 6.7 18.0 6.7 Q18.6 6.7 19.0 5.8 L19.3 4.3 19.25 3.9 19.0 3.1" fill="#ffed4d" fill-rule="evenodd" stroke="none"/>
      <path d="M21.85 3.0 L22.1 3.0 22.75 3.0 22.8 3.0 22.8 3.15 22.75 4.45 22.2 7.05 21.35 7.4 21.45 7.1 21.7 5.45 Q21.7 4.2 21.35 3.1 L21.35 3.05 21.75 3.0 21.85 3.0 M20.75 8.45 L20.6 9.45 18.95 10.45 18.5 10.6 17.05 11.0 16.85 11.0 16.65 9.7 16.7 9.7 17.2 9.7 18.25 9.65 18.65 9.55 20.0 9.0 20.75 8.45" fill="#ffdf28" fill-rule="evenodd" stroke="none"/>
      <path d="M21.35 7.4 L20.85 7.6 20.75 8.45 20.0 9.0 18.65 9.55 18.25 9.65 17.2 9.7 16.7 9.7 16.65 9.7 16.6 9.45 16.6 9.1 18.0 8.5 18.25 8.35 19.25 7.5 20.1 6.4 20.95 4.45 21.35 3.1 Q21.7 4.2 21.7 5.45 L21.45 7.1 21.35 7.4" fill="#fce82f" fill-rule="evenodd" stroke="none"/>
      <path d="M14.25 14.8 L13.9 14.45 13.8 14.35 13.9 14.4 14.55 14.65 15.25 14.95 17.55 15.65 17.9 15.75 18.05 15.8 18.35 15.85 20.0 16.3 20.05 16.3 20.5 16.4 20.9 16.45 23.4 16.95 23.85 17.0 25.3 17.2 27.3 17.4 27.6 17.45 28.2 17.45 30.1 19.0 30.15 19.05 30.55 19.45 29.1 19.45 28.3 19.45 28.05 19.4 26.4 19.3 24.35 18.95 24.25 18.95 24.0 18.9 23.0 18.65 20.45 17.85 20.05 17.75 19.4 17.5 18.7 17.2 18.5 17.15 18.2 17.0 17.8 16.85 17.1 16.55 15.05 15.6 14.25 14.8 M18.05 15.8 L18.5 17.15 18.05 15.8" fill="#fe9603" fill-rule="evenodd" stroke="none"/>
      <path d="M20.2 12.45 L20.15 12.85 21.2 13.8 21.55 14.05 21.4 14.05 20.05 13.9 19.55 13.8 18.25 13.6 17.75 13.5 17.7 13.5 17.35 13.45 17.25 13.0 17.2 12.65 17.5 12.65 17.8 12.65 17.9 12.65 18.6 12.65 19.1 12.6 19.6 12.55 20.2 12.45" fill="#ffb601" fill-rule="evenodd" stroke="none"/>
      <path d="M23.0 18.65 L24.0 18.9 24.25 18.95 24.35 18.95 26.4 19.3 28.05 19.4 28.3 19.45 29.1 19.45 30.55 19.45 31.05 19.95 31.25 20.2 31.55 20.55 32.7 21.95 32.75 22.8 32.6 22.7 31.6 22.05 31.4 21.95 30.85 21.75 30.5 21.45 30.3 21.3 28.5 20.6 26.35 19.8 25.85 19.95 25.7 19.6 23.0 18.65 M20.05 17.75 L18.55 17.3 16.25 16.55 15.95 16.45 15.05 15.6 17.1 16.55 17.8 16.85 18.2 17.0 18.5 17.15 18.55 17.3 18.5 17.15 18.7 17.2 19.4 17.5 20.05 17.75 M26.35 19.8 L25.7 19.6 26.35 19.8" fill="#fc6901" fill-rule="evenodd" stroke="none"/>
      <path d="M7.5 14.55 L8.55 14.75 9.85 15.0 9.95 15.2 10.0 15.0 10.5 15.15 11.0 15.25 11.95 15.45 12.2 15.5 12.55 15.55 12.7 15.6 13.45 15.8 14.3 16.0 14.35 16.0 15.95 16.45 16.25 16.55 18.55 17.3 20.05 17.75 20.45 17.85 23.0 18.65 25.7 19.6 25.85 19.95 23.7 20.85 22.9 21.4 22.05 22.05 21.6 22.5 21.5 22.65 Q20.55 23.5 20.05 24.5 19.45 24.05 18.7 23.9 L18.2 23.85 17.65 23.8 17.5 23.8 16.6 23.85 16.05 24.0 16.6 23.85 17.5 23.8 17.65 23.8 18.2 23.85 18.7 23.9 Q19.45 24.05 20.05 24.5 L19.6 25.9 19.5 26.75 18.35 25.85 18.15 25.65 17.15 24.85 16.1 24.05 16.0 24.0 16.05 24.0 15.8 23.1 15.6 22.5 15.2 21.7 14.9 21.15 14.1 20.0 13.0 19.1 11.55 18.3 11.1 17.8 10.95 17.65 10.85 17.9 9.6 17.25 8.9 16.7 8.75 16.55 7.4 15.05 7.35 15.0 7.5 14.55 M18.8 20.25 Q19.2 19.9 19.75 19.8 L20.1 19.75 20.15 19.75 21.25 20.15 21.45 20.3 Q22.1 20.8 22.1 21.35 22.1 21.95 21.5 22.35 L20.0 22.75 19.15 22.7 18.05 22.4 17.75 22.25 16.95 21.7 16.45 21.35 15.65 20.75 14.5 19.7 14.2 19.4 13.45 18.6 13.0 17.85 12.1 15.85 12.0 15.55 11.95 15.45 12.0 15.55 12.1 15.85 13.0 17.85 13.45 18.6 14.2 19.4 14.5 19.7 15.65 20.75 16.45 21.35 16.95 21.7 17.75 22.25 18.05 22.4 19.15 22.7 20.0 22.75 21.5 22.35 Q22.1 21.95 22.1 21.35 22.1 20.8 21.45 20.3 L21.25 20.15 20.15 19.75 20.1 19.75 19.75 19.8 Q19.2 19.9 18.8 20.25" fill="#fff17a" fill-rule="evenodd" stroke="none"/>
      <path d="M20.05 24.5 Q20.55 23.5 21.5 22.65 L21.6 22.5 22.05 22.05 22.9 21.4 23.7 20.85 25.85 19.95 26.35 19.8 28.5 20.6 30.3 21.3 30.5 21.45 29.35 21.35 Q28.0 21.35 26.7 22.3 L25.35 23.5 24.75 24.25 Q23.25 26.25 23.2 28.85 L23.2 28.95 23.2 29.3 23.25 29.6 22.75 29.2 22.05 28.75 21.9 28.6 21.1 28.05 20.95 27.9 21.2 26.95 21.2 26.65 Q21.2 25.4 20.2 24.6 L20.05 24.5 20.2 24.6 Q21.2 25.4 21.2 26.65 L21.2 26.95 20.95 27.9 20.1 27.25 19.5 26.75 19.6 25.9 20.05 24.5" fill="#fdec58" fill-rule="evenodd" stroke="none"/>
      <path d="M30.55 19.45 L30.15 19.05 30.1 19.0 30.1 18.85 30.25 17.4 30.5 16.05 30.8 17.1 30.9 17.35 31.1 17.85 31.85 18.4 32.05 18.15 32.3 17.6 32.4 17.35 32.8 16.65 Q33.05 16.2 33.25 16.1 L34.4 16.05 Q35.15 16.0 35.15 15.2 L34.95 14.5 34.8 14.15 34.75 14.0 34.8 14.0 35.8 14.2 36.0 15.25 36.25 16.45 36.25 16.55 36.4 17.5 34.85 17.35 33.85 17.3 33.65 17.35 33.55 18.0 33.5 18.45 33.35 19.2 33.3 19.7 33.25 20.1 33.1 21.8 33.1 22.25 33.0 22.3 32.7 21.95 31.55 20.55 31.25 20.2 31.05 19.95 30.55 19.45" fill="#fe7902" fill-rule="evenodd" stroke="none"/>
      <path d="M30.5 21.45 L30.85 21.75 29.1 21.65 Q27.5 21.8 25.95 23.4 24.55 24.85 24.2 26.5 L24.15 26.85 Q23.95 28.1 24.3 29.1 L24.7 30.05 24.8 30.15 25.25 30.75 24.6 30.45 24.35 30.3 23.45 29.75 23.25 29.6 23.2 29.3 23.2 28.95 23.2 28.85 Q23.25 26.25 24.75 24.25 L25.35 23.5 26.7 22.3 Q28.0 21.35 29.35 21.35 L30.5 21.45 M33.1 25.85 L33.2 25.65 33.2 25.95 33.1 25.85" fill="#ffc800" fill-rule="evenodd" stroke="none"/>
      <path d="M29.55 22.65 L29.55 22.8 Q29.0 22.85 28.65 23.2 28.15 23.65 28.15 24.35 28.15 25.05 28.5 25.5 L28.15 25.6 28.1 25.45 Q27.85 25.1 27.4 25.1 26.75 25.1 26.75 25.9 L26.95 26.5 Q26.5 27.0 26.3 27.65 L26.15 28.4 26.15 28.95 26.3 30.45 25.8 29.05 25.45 27.75 25.4 27.25 Q25.4 25.3 26.6 23.95 27.75 22.65 29.55 22.65" fill="#ffb300" fill-rule="evenodd" stroke="none"/>
      <path d="M26.95 26.5 L26.75 25.9 Q26.75 25.1 27.4 25.1 27.85 25.1 28.1 25.45 L28.15 25.6 28.25 26.1 28.15 26.6 28.0 26.65 27.6 26.75 26.95 26.5 M28.5 25.5 Q28.15 25.05 28.15 24.35 28.15 23.65 28.65 23.2 29.0 22.85 29.55 22.8 L29.9 22.75 Q30.5 22.75 31.0 23.2 31.45 23.65 31.45 24.3 L31.35 25.2 30.9 25.85 30.25 26.2 30.05 26.25 29.65 26.2 Q29.15 26.1 28.8 25.8 L28.5 25.5" fill="#ffffa0" fill-rule="evenodd" stroke="none"/>
      <path d="M29.55 22.8 L29.55 22.65 29.75 22.65 29.9 22.65 31.05 22.95 31.15 23.0 Q31.5 23.15 31.9 23.4 L32.8 24.25 32.85 24.35 33.2 25.55 33.2 25.65 33.1 25.85 Q32.3 25.3 31.35 25.2 L31.45 24.3 Q31.45 23.65 31.0 23.2 30.5 22.75 29.9 22.75 L29.55 22.8" fill="#ff9a03" fill-rule="evenodd" stroke="none"/>
      <path d="M30.85 21.75 L31.4 21.95 31.6 22.05 32.6 22.7 32.75 22.8 32.85 22.9 33.9 24.0 34.65 25.3 34.9 26.4 34.95 26.55 34.95 26.6 35.0 26.75 35.0 26.95 35.05 27.45 35.0 28.05 34.45 27.25 34.15 26.8 33.3 26.0 33.2 25.95 33.2 25.65 33.2 25.55 32.85 24.35 32.8 24.25 31.9 23.4 Q31.5 23.15 31.15 23.0 L31.05 22.95 29.9 22.65 29.75 22.65 29.55 22.65 Q27.75 22.65 26.6 23.95 25.4 25.3 25.4 27.25 L25.45 27.75 25.8 29.05 26.3 30.45 26.5 31.2 26.65 31.75 26.65 31.8 26.75 32.05 26.0 31.55 25.85 31.4 25.6 31.15 25.55 31.1 25.25 30.75 24.8 30.15 24.7 30.05 24.3 29.1 Q23.95 28.1 24.15 26.85 L24.2 26.5 Q24.55 24.85 25.95 23.4 27.5 21.8 29.1 21.65 L30.85 21.75" fill="#ffa805" fill-rule="evenodd" stroke="none"/>
      <path d="M36.4 17.5 L36.55 18.2 36.7 19.1 36.7 19.25 36.7 19.55 36.15 19.4 Q35.65 19.4 35.25 19.75 L34.7 20.4 34.5 20.95 34.4 21.25 34.2 22.6 34.25 23.0 34.25 23.1 34.1 22.95 33.1 22.25 33.1 21.8 33.25 20.1 33.3 19.7 33.35 19.2 33.5 18.45 33.55 18.0 33.65 17.35 33.85 17.3 34.85 17.35 36.4 17.5" fill="#ff6200" fill-rule="evenodd" stroke="none"/>
      <path d="M31.4 13.6 L31.5 13.6 31.7 13.6 32.7 13.7 33.55 13.8 34.75 14.0 34.8 14.15 34.95 14.5 35.15 15.2 Q35.15 16.0 34.4 16.05 L33.25 16.1 Q33.05 16.2 32.8 16.65 L32.4 17.35 32.3 17.6 32.05 18.15 31.85 18.4 31.1 17.85 30.9 17.35 30.8 17.1 30.5 16.05 30.8 15.0 31.35 13.7 31.4 13.6" fill="#ff9501" fill-rule="evenodd" stroke="none"/>
      <path d="M37.3 22.95 L37.4 23.55 37.65 24.7 37.5 25.0 37.1 25.55 36.75 25.7 36.7 25.7 36.05 25.2 35.75 24.65 35.35 24.05 34.4 23.2 34.35 23.15 34.25 23.1 34.25 23.0 34.2 22.6 34.4 21.25 34.5 20.95 34.7 20.4 35.25 19.75 Q35.65 19.4 36.15 19.4 L36.7 19.55 36.7 19.6 37.3 22.95" fill="#f44300" fill-rule="evenodd" stroke="none"/>
      <path d="M37.65 24.7 L37.95 25.85 38.2 26.6 38.3 26.95 38.35 27.0 38.4 27.15 38.7 27.7 39.25 28.75 38.95 28.9 38.8 28.95 38.7 29.0 38.25 29.05 38.05 29.05 Q37.55 29.0 37.0 28.65 L36.5 28.25 35.0 26.65 34.95 26.6 34.95 26.55 34.9 26.4 34.65 25.3 33.9 23.35 33.8 23.25 33.6 23.05 33.1 22.45 33.1 22.25 34.1 22.95 34.25 23.1 34.35 23.15 34.4 23.2 35.35 24.05 35.75 24.65 36.05 25.2 36.7 25.7 36.75 25.7 37.1 25.55 37.5 25.0 37.65 24.7" fill="#d61d08" fill-rule="evenodd" stroke="none"/>
      <path d="M19.0 3.1 L19.25 3.9 19.3 4.3 19.0 5.8 Q18.6 6.7 18.0 6.7 L17.7 6.7 17.65 6.7 16.95 6.3 16.75 5.95 16.7 5.5 16.4 5.5 16.5 3.3 17.15 3.25 17.7 3.2 18.9 3.1 19.0 3.1" fill="#fdf97b" fill-rule="evenodd" stroke="none"/>
      <path d="M16.4 6.2 L16.6 9.1 16.55 9.1 16.35 9.15 14.4 9.4 13.3 9.2 13.0 9.15 11.75 8.85 Q9.35 8.1 8.55 7.0 L8.55 6.95 Q8.8 6.05 9.2 5.15 L10.25 5.75 11.3 6.3 12.65 6.75 13.75 6.9 15.8 6.5 15.9 6.45 16.4 6.2" fill="#fef667" fill-rule="evenodd" stroke="none"/>
      <path d="M9.4 9.95 L8.15 8.65 8.2 8.45 8.3 7.95 8.55 7.0 Q9.35 8.1 11.75 8.85 L13.0 9.15 13.3 9.2 14.4 9.4 16.35 9.15 16.55 9.1 16.6 9.1 16.6 9.45 16.65 9.7 16.85 11.0 16.75 11.0 14.85 11.15 13.25 11.0 12.9 10.95 12.1 10.8 11.0 10.5 9.4 9.95" fill="#fff25d" fill-rule="evenodd" stroke="none"/>
      <path d="M10.45 11.0 L9.6 10.15 9.4 9.95 11.0 10.5 12.1 10.8 12.9 10.95 13.25 11.0 14.85 11.15 16.75 11.0 16.85 11.0 17.2 12.65 17.1 12.65 13.65 12.1 13.45 12.1 13.0 11.95 12.3 11.75 10.75 11.15 10.45 11.0" fill="#ffda23" fill-rule="evenodd" stroke="none"/>
      <path d="M13.8 14.35 L12.55 13.15 12.25 12.85 10.65 11.2 12.3 11.95 12.9 12.2 13.5 12.4 13.55 12.4 16.35 13.2 16.75 13.3 17.3 13.45 17.35 13.45 17.8 15.0 18.05 15.8 17.9 15.75 17.55 15.65 15.25 14.95 14.55 14.65 13.9 14.4 13.8 14.35" fill="#ffb900" fill-rule="evenodd" stroke="none"/>
      <path d="M-0.95 18.4 L-0.95 18.25 -0.85 18.2 -0.9 18.4 -0.95 18.4 M0.85 14.25 L7.5 14.55 7.35 15.0 7.4 15.05 8.75 16.55 8.9 16.7 9.6 17.25 10.85 17.9 10.95 17.65 11.1 17.8 11.55 18.3 13.0 19.1 14.1 20.0 14.9 21.15 15.2 21.7 15.6 22.5 15.8 23.1 16.05 24.0 16.0 24.0 15.25 23.5 14.5 23.05 13.6 22.5 12.6 22.0 11.3 21.35 11.25 21.35 10.45 21.0 9.25 20.55 8.8 20.4 8.3 20.2 8.15 20.15 7.9 20.1 7.15 19.85 7.45 19.55 7.25 19.35 5.65 18.25 5.55 18.2 5.15 17.95 4.05 17.4 3.55 17.15 2.45 16.6 2.25 15.7 2.15 16.45 1.9 16.3 -0.1 15.05 0.15 14.65 0.85 14.25" fill="#fff99b" fill-rule="evenodd" stroke="none"/>
      <path d="M-0.9 18.4 L-0.85 18.2 -0.95 18.2 -0.95 14.2 0.0 14.2 0.15 14.65 -0.1 15.05 1.9 16.3 2.15 16.45 2.05 17.9 2.05 18.0 1.9 18.0 0.6 18.6 -0.25 18.5 -0.9 18.4 M1.45 18.7 L2.05 18.35 2.4 18.15 2.65 18.0 2.6 17.7 2.45 16.6 3.55 17.15 4.05 17.4 5.15 17.95 5.55 18.2 5.65 18.25 7.25 19.35 7.45 19.55 7.15 19.85 6.35 19.6 5.55 19.4 4.25 19.05 4.15 19.05 3.95 19.0 3.9 19.0 3.75 18.95 3.6 18.95 3.3 18.9 2.55 18.85 2.2 18.8 2.15 18.8 1.45 18.7" fill="#ffffbb" fill-rule="evenodd" stroke="none"/>
      <path d="M2.05 18.35 L2.05 18.0 2.05 17.9 2.15 16.45 2.25 15.7 2.45 16.6 2.6 17.7 2.65 18.0 2.4 18.15 2.05 18.35" fill="#f9fbf0" fill-rule="evenodd" stroke="none"/>
      <path d="M1.45 18.7 L0.6 19.15 -0.1 19.5 -0.95 19.85 -0.95 19.35 -0.9 19.3 -0.35 19.0 -0.25 19.0 0.6 18.6 1.9 18.0 2.05 18.0 2.05 18.35 1.45 18.7" fill="#ededed" fill-rule="evenodd" stroke="none"/>
      <path d="M7.15 19.85 L7.9 20.1 6.15 20.5 5.9 20.5 5.55 20.45 4.8 20.2 4.15 19.4 3.95 19.0 4.15 19.05 4.25 19.05 5.55 19.4 5.75 19.5 6.35 19.6 5.75 19.5 5.55 19.4 6.35 19.6 7.15 19.85" fill="#f8ba05" fill-rule="evenodd" stroke="none"/>
      <path d="M12.7 15.6 L13.0 15.45 13.5 15.2 13.45 15.8 12.7 15.6 M9.25 20.55 L10.45 21.0 8.85 21.75 8.2 21.85 7.35 21.85 7.25 21.85 7.2 21.8 6.4 21.4 6.25 21.3 5.75 21.05 5.45 20.9 5.3 20.8 4.65 20.45 4.6 20.4 3.9 19.75 3.75 19.5 3.7 19.5 3.7 19.55 3.6 18.95 3.75 18.95 3.9 19.0 3.95 19.0 4.15 19.4 4.8 20.2 5.55 20.45 5.9 20.5 6.05 20.65 6.6 21.0 7.4 21.1 Q8.45 21.1 9.25 20.55" fill="#fc6e02" fill-rule="evenodd" stroke="none"/>
      <path d="M3.7 19.55 L3.7 19.5 3.75 19.5 3.9 19.75 4.6 20.4 4.65 20.45 5.3 20.8 5.45 20.9 5.75 21.05 6.45 23.1 6.55 23.45 6.1 23.2 4.55 22.4 2.85 21.8 2.75 21.75 2.9 21.55 3.05 21.25 3.7 19.55" fill="#ffad00" fill-rule="evenodd" stroke="none"/>
      <path d="M-0.15 24.2 L-0.6 24.2 1.05 23.35 1.3 23.25 1.55 23.05 2.75 21.75 2.85 21.8 4.55 22.4 6.1 23.2 6.55 23.45 6.65 23.9 6.85 25.2 6.85 25.8 6.9 26.15 6.6 25.85 Q5.9 25.15 5.1 24.75 L3.95 24.25 2.9 24.05 1.95 24.0 1.6 24.0 1.1 24.05 -0.15 24.2" fill="#fdb304" fill-rule="evenodd" stroke="none"/>
      <path d="M-0.95 25.1 L-0.95 24.4 -0.85 24.35 -0.6 24.3 -0.15 24.2 1.1 24.05 1.6 24.0 1.95 24.0 2.9 24.05 3.95 24.25 5.1 24.75 Q5.9 25.15 6.6 25.85 L6.9 26.15 6.9 26.75 6.8 28.65 6.75 29.0 6.6 29.8 6.45 30.45 6.35 30.7 6.1 31.25 5.05 32.5 4.75 32.75 4.65 32.55 4.35 32.3 4.3 32.2 4.35 32.15 4.95 31.75 5.45 31.2 6.0 29.95 6.05 29.55 6.05 29.3 6.05 29.25 5.75 27.85 4.45 26.25 Q3.8 25.75 3.1 25.5 L2.05 25.2 1.15 25.1 0.5 25.05 -0.2 25.05 -0.5 25.1 -0.95 25.1" fill="#ffc400" fill-rule="evenodd" stroke="none"/>
      <path d="M7.9 20.1 L8.15 20.15 8.3 20.2 8.8 20.4 9.25 20.55 Q8.45 21.1 7.4 21.1 L6.6 21.0 6.05 20.65 5.9 20.5 6.15 20.5 7.9 20.1" fill="#fe9d00" fill-rule="evenodd" stroke="none"/>
      <path d="M5.75 21.05 L6.25 21.3 6.4 21.4 7.2 21.8 7.15 21.85 7.1 22.0 7.15 22.05 7.2 22.1 7.7 22.4 7.95 22.65 Q8.85 23.65 9.45 25.15 10.05 26.75 10.05 27.85 L10.05 27.95 10.0 28.85 9.95 29.2 9.95 29.25 9.9 29.3 9.65 30.5 9.8 29.25 9.8 29.05 9.8 28.85 9.7 27.9 Q9.35 25.45 6.85 23.7 L6.55 23.45 6.45 23.1 5.75 21.05 M9.35 31.25 L9.55 30.6 9.45 31.2 9.4 31.25 9.35 31.25" fill="#fa8600" fill-rule="evenodd" stroke="none"/>
      <path d="M7.3 22.05 L7.35 21.9 7.35 21.85 7.95 22.1 8.25 22.2 9.0 22.45 9.35 22.55 10.75 23.25 10.85 23.35 11.1 23.45 10.8 23.85 10.6 23.7 9.2 22.9 8.85 22.75 8.5 22.55 8.35 22.5 8.1 22.4 8.1 22.35 7.3 22.05" fill="#c60313" fill-rule="evenodd" stroke="none"/>
      <path d="M-0.5 36.8 L-0.55 36.55 -0.2 36.55 0.75 36.55 0.8 36.55 1.75 36.5 2.1 36.45 2.45 36.4 3.0 36.25 3.85 36.0 4.9 35.65 5.15 35.55 5.2 35.55 5.35 35.45 5.45 35.45 7.0 34.55 7.75 33.95 8.3 33.35 8.35 33.3 8.4 33.25 Q9.1 32.35 9.4 31.25 L9.45 31.2 9.6 30.6 9.6 30.55 9.65 30.5 9.9 29.3 9.95 29.25 9.95 29.2 10.0 28.85 10.05 27.95 10.05 27.85 Q10.05 26.75 9.45 25.15 8.85 23.65 7.95 22.65 L7.7 22.4 7.2 22.1 7.25 22.05 7.3 22.05 8.1 22.35 8.1 22.4 8.35 22.5 8.5 22.55 Q10.25 23.8 11.2 25.7 L11.25 25.8 11.9 27.75 12.0 28.5 12.1 29.75 Q12.1 31.3 11.6 32.45 L11.15 33.25 10.95 33.45 Q10.15 34.4 9.0 34.75 L7.65 35.05 7.05 35.3 6.9 35.35 6.15 35.6 5.55 35.95 5.6 36.2 5.6 36.25 5.25 36.35 5.2 36.35 5.05 36.4 4.5 36.65 4.1 36.75 3.4 36.95 3.2 37.0 2.35 37.1 0.8 37.05 0.7 37.05 0.2 36.95 -0.5 36.8" fill="#f76200" fill-rule="evenodd" stroke="none"/>
      <path d="M6.55 23.45 L6.85 23.7 Q9.35 25.45 9.7 27.9 L9.8 28.85 9.8 29.05 9.8 29.25 9.65 30.5 9.6 30.55 9.6 30.6 9.45 31.2 9.55 30.6 9.35 31.25 8.0 33.0 7.95 33.05 7.75 33.2 7.4 33.45 7.15 33.6 7.05 33.7 6.85 33.75 6.3 34.0 5.8 34.2 5.15 34.4 Q5.95 34.15 6.8 33.45 L6.9 33.35 7.2 33.1 Q8.5 31.9 8.5 30.4 8.5 28.15 7.2 26.55 L6.9 26.15 6.85 25.8 6.85 25.2 6.65 23.9 6.55 23.45" fill="#fd8c00" fill-rule="evenodd" stroke="none"/>
      <path d="M13.5 15.2 L14.25 14.8 15.05 15.6 15.95 16.45 14.35 16.0 14.3 16.0 13.45 15.8 13.5 15.2 M10.45 21.0 L11.25 21.35 10.45 21.6 9.25 21.9 8.9 22.0 8.05 22.1 7.95 22.1 7.35 21.85 8.2 21.85 8.85 21.75 10.45 21.0" fill="#f24a03" fill-rule="evenodd" stroke="none"/>
      <path d="M11.25 21.35 L11.3 21.35 12.6 22.0 12.35 22.05 9.85 22.35 9.4 22.35 9.35 22.35 8.25 22.2 7.95 22.1 8.05 22.1 8.9 22.0 9.25 21.9 10.45 21.6 11.25 21.35" fill="#fd440b" fill-rule="evenodd" stroke="none"/>
      <path d="M14.5 23.05 L15.25 23.5 Q14.2 24.25 13.95 25.4 L13.9 25.4 13.55 25.25 13.15 24.9 Q12.2 24.0 11.1 23.45 L10.85 23.35 10.75 23.25 9.35 22.55 9.35 22.35 9.4 22.35 9.85 22.35 11.3 23.05 12.95 23.35 13.0 23.35 14.5 23.05" fill="#e61616" fill-rule="evenodd" stroke="none"/>
      <path d="M8.5 22.55 L8.85 22.75 9.2 22.9 10.6 23.7 10.8 23.85 12.25 24.95 13.2 25.75 13.3 25.9 Q13.65 26.7 13.65 27.75 L13.5 28.6 13.3 29.0 13.25 29.05 13.1 29.35 Q12.75 30.15 12.65 30.95 L12.6 31.55 12.65 32.0 12.7 32.3 13.05 33.35 13.3 34.0 10.2 34.55 9.5 34.7 9.45 34.75 7.05 35.3 7.65 35.05 9.0 34.75 Q10.15 34.4 10.95 33.45 L11.15 33.25 11.6 32.45 Q12.1 31.3 12.1 29.75 L12.0 28.5 11.9 27.75 11.25 25.8 11.2 25.7 Q10.25 23.8 8.5 22.55" fill="#f24002" fill-rule="evenodd" stroke="none"/>
      <path d="M17.35 13.45 L17.3 13.45 16.75 13.3 16.35 13.2 13.55 12.4 13.65 12.1 17.1 12.65 17.2 12.65 17.25 13.0 17.35 13.45" fill="#fcce09" fill-rule="evenodd" stroke="none"/>
      <path d="M12.6 22.0 L13.6 22.5 14.5 23.05 13.0 23.35 12.95 23.35 11.3 23.05 9.85 22.35 12.35 22.05 12.6 22.0" fill="#e5260a" fill-rule="evenodd" stroke="none"/>
      <path d="M15.25 23.5 L16.0 24.0 16.1 24.05 17.15 24.85 Q16.1 26.15 16.1 28.15 L15.8 28.35 15.95 28.55 16.15 28.8 16.25 29.25 15.8 29.45 14.85 30.05 Q14.05 30.8 14.05 31.95 14.05 32.9 15.15 33.8 L16.1 34.5 16.85 34.95 17.15 35.1 17.15 35.2 16.1 35.15 13.7 35.15 13.3 34.0 13.05 33.35 12.7 32.3 12.65 32.0 12.6 31.55 12.65 30.95 Q12.75 30.15 13.1 29.35 L13.25 29.05 13.3 29.0 13.5 28.6 13.65 27.75 Q13.65 26.7 13.3 25.9 L13.2 25.75 12.25 24.95 10.8 23.85 11.1 23.45 Q12.2 24.0 13.15 24.9 L13.55 25.25 13.6 25.3 13.9 25.65 13.95 25.4 Q14.2 24.25 15.25 23.5 M14.3 26.25 L14.4 26.45 14.45 26.5 15.8 28.35 14.45 26.5 14.4 26.45 14.3 26.25 13.9 25.65 14.3 26.25" fill="#ce001b" fill-rule="evenodd" stroke="none"/>
      <path d="M17.9 36.4 L17.7 35.25 17.7 35.15 17.35 35.2 17.15 35.1 16.85 34.95 16.1 34.5 15.15 33.8 Q14.05 32.9 14.05 31.95 14.05 30.8 14.85 30.05 L15.8 29.45 16.25 29.25 16.15 28.8 16.1 28.15 Q16.1 26.15 17.15 24.85 L18.15 25.65 18.35 25.85 Q17.55 27.0 17.65 28.25 L17.7 29.1 18.05 29.7 17.55 29.7 Q17.45 29.75 17.3 29.85 L16.1 30.5 Q15.25 31.1 15.25 32.05 15.25 33.1 16.2 33.7 17.05 34.2 18.45 34.15 L18.55 34.15 18.6 34.45 18.55 34.55 18.7 35.6 Q19.0 36.75 19.65 37.85 L20.3 38.75 21.5 39.95 21.55 39.95 22.95 40.95 Q21.8 40.8 20.95 40.35 19.5 39.6 18.65 38.1 18.2 37.35 17.9 36.4" fill="#94011e" fill-rule="evenodd" stroke="none"/>
      <path d="M20.95 27.9 L21.1 28.05 21.9 28.6 22.05 28.75 22.75 29.2 22.6 29.2 21.4 29.3 21.1 29.35 21.0 29.4 20.5 29.5 19.7 29.6 19.3 29.65 18.25 29.75 18.05 29.7 17.7 29.1 17.65 28.25 Q17.55 27.0 18.35 25.85 L19.5 26.75 20.1 27.25 20.95 27.9 20.95 27.95 20.95 27.9 M20.95 27.95 L21.1 28.05 20.95 27.95 M21.1 28.05 L22.05 28.75 21.1 28.05" fill="#ab0020" fill-rule="evenodd" stroke="none"/>
      <path d="M18.05 29.7 L18.25 29.75 19.3 29.65 19.7 29.6 20.5 29.5 21.0 29.4 20.5 29.6 Q20.1 29.75 19.75 30.0 18.5 30.9 18.4 32.65 L18.35 33.1 18.45 34.15 Q17.05 34.2 16.2 33.7 15.25 33.1 15.25 32.05 15.25 31.1 16.1 30.5 L17.3 29.85 Q17.45 29.75 17.55 29.7 L18.05 29.7" fill="#b10021" fill-rule="evenodd" stroke="none"/>
      <path d="M20.7 49.75 L20.4 50.0 19.55 51.05 18.9 51.9 18.2 52.55 18.1 52.65 18.3 52.2 18.4 51.75 18.45 51.55 18.5 51.5 18.8 50.6 19.1 49.8 19.55 48.55 20.05 47.1 20.15 46.1 20.0 45.5 18.25 43.2 17.9 42.85 17.85 42.8 16.25 41.1 16.15 41.0 15.5 39.9 15.35 39.6 15.25 39.45 14.25 37.9 Q13.3 36.6 11.2 36.6 L10.85 36.65 7.05 37.05 5.9 37.15 5.2 37.2 4.25 37.3 3.6 37.35 3.45 37.35 3.3 37.4 2.35 37.45 2.35 37.1 3.2 37.0 3.4 36.95 4.1 36.75 4.5 36.65 5.05 36.4 5.2 36.35 5.25 36.35 5.6 36.25 7.1 35.85 8.3 35.6 10.75 35.2 11.25 35.15 11.7 35.15 12.55 35.15 12.55 35.45 Q14.95 35.75 15.95 37.3 L16.65 39.0 17.25 40.9 18.2 42.5 18.55 42.9 20.0 44.1 20.15 44.25 20.3 44.35 20.65 44.65 22.45 46.3 21.65 47.95 21.45 48.3 21.25 48.55 20.45 49.5 20.7 49.75" fill="#da380a" fill-rule="evenodd" stroke="none"/>
      <path d="M13.3 34.0 L13.7 35.15 12.55 35.15 11.7 35.15 11.25 35.15 10.75 35.2 8.3 35.6 7.1 35.85 5.6 36.25 5.6 36.2 5.55 35.95 6.15 35.6 6.9 35.35 7.05 35.3 9.45 34.75 9.5 34.7 10.2 34.55 13.3 34.0" fill="#da3c00" fill-rule="evenodd" stroke="none"/>
      <path d="M24.35 30.3 L24.6 30.45 25.1 30.9 24.55 30.85 23.75 31.05 23.1 30.8 22.75 30.8 Q22.15 30.8 21.55 31.2 L20.95 31.95 20.85 32.5 21.0 33.2 21.3 33.65 21.7 33.95 22.25 34.15 22.3 34.3 Q22.5 35.3 23.15 36.15 L22.9 36.2 22.4 36.1 21.15 35.5 20.55 35.1 20.3 34.85 19.6 34.0 19.35 33.05 19.45 32.35 Q19.6 31.45 20.25 30.9 L20.45 30.75 21.0 30.45 Q21.7 30.1 22.75 30.1 L23.05 30.1 24.35 30.3 M35.5 38.6 L35.25 38.5 35.25 38.2 Q35.25 37.9 35.4 37.7 L35.55 37.65 35.8 38.0 35.95 38.45 35.75 38.55 35.5 38.6" fill="#bd0221" fill-rule="evenodd" stroke="none"/>
      <path d="M22.75 29.2 L23.25 29.6 23.45 29.75 24.35 30.3 23.05 30.1 22.75 30.1 Q21.7 30.1 21.0 30.45 L20.45 30.75 20.25 30.9 Q19.6 31.45 19.45 32.35 L19.35 33.05 19.6 34.0 20.3 34.85 20.55 35.1 21.15 35.5 22.4 36.1 22.9 36.2 23.15 36.15 23.4 36.4 24.25 37.15 25.0 37.6 25.7 37.95 25.0 38.2 23.5 38.35 23.05 38.35 21.35 38.05 20.55 37.65 20.3 37.5 Q19.05 36.7 18.7 35.6 L18.55 34.55 18.6 34.45 18.55 34.15 18.45 34.15 18.35 33.1 18.4 32.65 Q18.5 30.9 19.75 30.0 20.1 29.75 20.5 29.6 L21.0 29.4 21.1 29.35 21.4 29.3 22.6 29.2 22.75 29.2" fill="#a80021" fill-rule="evenodd" stroke="none"/>
      <path d="M6.75 29.0 L6.8 28.65 6.9 26.75 6.9 26.15 7.2 26.55 Q8.5 28.15 8.5 30.4 8.5 31.9 7.2 33.1 L6.9 33.35 6.8 33.45 Q5.95 34.15 5.15 34.4 L5.05 34.4 4.65 34.45 3.5 34.55 3.7 34.45 4.0 34.25 4.5 33.9 4.8 33.65 5.7 32.55 6.3 31.35 6.4 31.0 6.65 29.85 6.75 29.0" fill="#ff9000" fill-rule="evenodd" stroke="none"/>
      <path d="M3.95 29.3 L4.05 28.8 Q4.05 27.55 3.25 26.6 L2.9 26.25 2.25 25.75 1.2 25.35 0.5 25.25 0.5 25.05 1.15 25.1 2.05 25.2 3.1 25.5 Q3.8 25.75 4.45 26.25 L5.75 27.85 6.05 29.25 6.05 29.3 6.05 29.55 6.0 29.95 5.45 31.2 Q4.8 31.45 4.5 31.65 L4.15 31.65 4.05 31.65 Q3.05 31.65 2.0 30.95 L1.9 30.9 2.0 30.9 2.35 30.95 Q3.05 30.95 3.55 30.4 L3.7 30.2 3.8 30.0 3.95 29.45 3.95 29.3" fill="#ffbc0f" fill-rule="evenodd" stroke="none"/>
      <path d="M4.75 32.75 L5.05 32.5 6.1 31.25 6.35 30.7 6.45 30.45 6.6 29.8 6.75 29.0 6.65 29.85 6.4 31.0 6.3 31.35 5.7 32.55 4.8 33.65 4.5 33.9 4.0 34.25 3.7 34.45 3.5 34.55 3.35 34.55 3.05 34.55 3.0 34.55 2.6 34.55 2.15 34.5 1.85 34.45 0.25 33.85 -0.6 33.3 -0.85 33.15 -0.4 33.3 0.05 33.4 1.55 33.5 1.75 33.5 2.35 33.5 2.95 33.4 3.45 33.3 3.65 33.25 4.3 32.95 4.55 32.85 4.75 32.75" fill="#ffb511" fill-rule="evenodd" stroke="none"/>
      <path d="M-0.95 25.75 L-0.95 25.1 -0.5 25.1 -0.2 25.05 0.5 25.05 0.5 25.25 1.2 25.35 2.25 25.75 2.9 26.25 3.25 26.6 Q4.05 27.55 4.05 28.8 L3.95 29.3 3.85 28.8 3.5 28.1 2.85 27.55 2.5 27.35 1.65 27.0 1.45 26.9 1.3 26.8 0.55 26.25 -0.05 26.0 -0.35 25.9 -0.95 25.75" fill="#ffd621" fill-rule="evenodd" stroke="none"/>
      <path d="M-0.95 33.2 L-0.95 33.05 -0.85 33.15 -0.6 33.3 -0.95 33.2 M-0.95 26.75 L-0.95 25.75 -0.35 25.9 -0.05 26.0 0.55 26.25 1.3 26.8 1.45 26.9 1.3 26.85 0.25 26.65 -0.25 26.65 -0.75 26.7 -0.95 26.75" fill="#ffdf43" fill-rule="evenodd" stroke="none"/>
      <path d="M-0.95 33.05 L-0.95 26.75 -0.75 26.7 -0.25 26.65 0.25 26.65 1.3 26.85 1.45 26.9 1.65 27.0 2.5 27.35 2.85 27.55 3.5 28.1 3.85 28.8 3.95 29.3 3.95 29.45 3.8 30.0 3.7 30.2 3.55 30.4 Q3.05 30.95 2.35 30.95 L2.0 30.9 1.9 30.9 1.85 30.85 1.35 30.6 0.8 30.0 1.3 30.15 1.45 30.2 1.75 30.3 Q2.35 30.35 2.75 29.8 L2.9 29.45 Q2.9 28.8 2.0 28.45 L1.45 28.25 0.95 28.2 0.9 28.2 Q0.25 28.2 -0.2 28.7 L-0.35 28.95 Q-0.75 29.5 -0.75 30.0 -0.75 30.85 -0.15 31.45 L0.4 31.95 0.3 32.05 1.45 32.9 1.8 33.0 2.3 33.15 2.85 33.2 3.45 33.3 2.95 33.4 2.35 33.5 1.75 33.5 1.55 33.5 0.05 33.4 -0.4 33.3 -0.85 33.15 -0.95 33.05" fill="#fff345" fill-rule="evenodd" stroke="none"/>
      <path d="M5.45 31.2 L4.95 31.75 4.35 32.15 4.3 32.2 4.25 32.2 4.2 32.25 2.65 32.6 2.45 32.6 2.15 32.6 1.25 32.4 0.4 31.95 -0.15 31.45 Q-0.75 30.85 -0.75 30.0 -0.75 29.5 -0.35 28.95 L-0.2 28.7 Q0.25 28.2 0.9 28.2 L0.95 28.2 1.45 28.25 2.0 28.45 Q2.9 28.8 2.9 29.45 L2.75 29.8 Q2.35 30.35 1.75 30.3 L1.45 30.2 1.3 30.15 0.8 30.0 1.35 30.6 1.85 30.85 1.9 30.9 2.0 30.95 Q3.05 31.65 4.05 31.65 L4.15 31.65 4.5 31.65 Q4.8 31.45 5.45 31.2" fill="#ffe22e" fill-rule="evenodd" stroke="none"/>
      <path d="M-0.95 34.15 L-0.95 33.2 -0.6 33.3 0.25 33.85 1.85 34.45 2.15 34.5 2.6 34.55 3.0 34.55 2.6 34.6 2.25 34.65 1.85 34.65 0.45 34.55 -0.9 34.15 -0.95 34.15 M4.3 32.2 L4.35 32.3 4.65 32.55 4.75 32.75 4.55 32.85 4.3 32.95 3.65 33.25 3.45 33.3 2.85 33.2 2.3 33.15 1.8 33.0 1.45 32.9 0.3 32.05 0.4 31.95 1.25 32.4 2.15 32.6 2.45 32.6 2.65 32.6 4.2 32.25 4.25 32.2 4.3 32.2 M13.4 51.35 L13.8 51.6 14.35 51.55 15.15 51.25 15.8 50.75 15.85 50.7 Q16.5 50.0 16.55 49.2 L16.6 49.1 16.6 49.2 16.6 49.45 Q16.6 50.4 16.2 51.4 L15.85 52.0 15.05 52.95 14.65 53.15 14.2 53.25 13.1 53.35 12.8 53.35 Q11.7 53.25 10.9 52.5 L10.45 52.0 Q9.45 50.8 9.45 49.05 9.45 48.4 10.35 47.9 10.65 47.7 11.0 47.65 L11.45 47.55 Q11.45 47.9 11.8 48.55 L11.55 48.8 11.15 49.25 Q10.8 49.65 10.8 50.0 10.8 50.4 11.15 50.75 L11.5 51.0 12.4 51.35 12.95 51.4 13.4 51.35" fill="#ffcd22" fill-rule="evenodd" stroke="none"/>
      <path d="M-0.95 35.1 L-0.95 34.15 -0.9 34.15 0.45 34.55 1.85 34.65 2.25 34.65 2.6 34.6 3.0 34.55 3.05 34.55 3.35 34.55 3.5 34.55 4.65 34.45 5.05 34.4 5.15 34.4 5.8 34.2 6.3 34.0 6.85 33.75 7.05 33.7 6.85 33.8 6.35 34.15 5.95 34.4 5.85 34.4 5.15 34.7 5.15 34.75 4.75 34.9 3.6 35.25 2.8 35.45 2.6 35.45 1.75 35.5 0.7 35.45 -0.95 35.1" fill="#fdbe0e" fill-rule="evenodd" stroke="none"/>
      <path d="M1.15 37.7 L0.7 37.45 0.15 37.15 0.2 36.95 0.7 37.05 0.8 37.05 1.5 37.2 2.25 37.4 2.35 37.45 3.15 37.6 3.4 37.65 3.6 37.7 3.85 37.75 4.4 37.9 5.5 38.1 6.2 38.2 6.7 38.3 7.3 38.35 11.0 39.1 11.5 39.2 Q12.75 39.6 13.75 40.2 L14.45 40.7 15.05 41.3 15.2 41.45 15.55 41.85 16.0 42.5 15.55 42.05 15.05 41.6 14.4 41.15 Q13.75 40.7 13.1 40.4 L11.05 39.65 9.3 39.3 7.65 39.15 6.45 39.0 6.4 39.0 5.95 39.0 5.4 39.0 4.75 39.1 4.7 39.1 3.9 39.35 3.85 39.4 3.5 39.15 2.2 38.35 1.65 38.0 1.15 37.7" fill="#ef7d0d" fill-rule="evenodd" stroke="none"/>
      <path d="M-0.2 36.55 L0.75 36.45 0.8 36.45 1.7 36.25 2.9 35.95 2.95 35.95 3.75 35.65 4.8 35.2 4.95 35.1 5.2 34.95 5.95 34.4 6.35 34.15 6.85 33.8 7.05 33.7 7.15 33.6 7.4 33.45 7.75 33.2 7.95 33.05 8.0 33.0 9.35 31.25 9.4 31.25 Q9.1 32.35 8.4 33.25 L8.35 33.3 8.3 33.35 7.75 33.95 7.0 34.55 5.45 35.45 5.35 35.45 5.2 35.55 5.15 35.55 4.9 35.65 3.85 36.0 3.0 36.25 2.45 36.4 2.1 36.45 1.75 36.5 0.8 36.55 0.75 36.55 -0.2 36.55" fill="#fb9205" fill-rule="evenodd" stroke="none"/>
      <path d="M-0.85 36.7 L-0.95 36.7 -0.95 35.1 0.7 35.45 1.75 35.5 2.6 35.45 2.8 35.45 3.6 35.25 4.75 34.9 5.15 34.75 5.15 34.7 5.85 34.4 5.95 34.4 5.2 34.95 4.95 35.1 4.8 35.2 3.75 35.65 2.95 35.95 2.9 35.95 1.7 36.25 0.8 36.45 0.75 36.45 -0.2 36.55 -0.55 36.55 -0.85 36.7" fill="#ffbc20" fill-rule="evenodd" stroke="none"/>
      <path d="M6.9 42.15 L6.15 41.2 5.0 40.2 3.95 39.45 3.85 39.4 3.9 39.35 4.7 39.1 4.75 39.1 5.4 39.0 5.95 39.0 6.4 39.0 6.45 39.0 7.65 39.15 9.3 39.3 11.05 39.65 13.1 40.4 Q13.75 40.7 14.4 41.15 L15.05 41.6 15.55 42.05 16.0 42.5 16.0 42.55 16.15 42.7 16.2 42.75 16.25 42.85 16.65 43.45 Q17.45 44.85 17.45 46.7 L17.4 48.35 17.3 49.35 17.2 49.75 17.15 50.0 17.05 49.35 17.05 49.3 16.9 48.85 16.55 47.95 16.3 47.55 16.05 46.5 15.7 45.7 15.6 45.5 14.85 44.4 14.35 43.9 14.0 43.6 13.75 43.35 Q12.65 42.5 11.3 42.05 L9.35 41.7 8.9 41.7 7.05 42.1 6.9 42.15" fill="#f77d02" fill-rule="evenodd" stroke="none"/>
      <path d="M-0.95 49.45 L-0.95 48.5 -0.2 48.85 0.05 48.95 0.35 49.0 1.45 49.15 2.3 49.1 Q3.55 48.8 4.35 47.75 L5.1 46.15 5.25 44.9 5.25 44.8 5.2 44.0 4.95 43.2 4.75 42.7 4.65 42.4 4.5 42.0 4.45 41.95 3.8 40.45 3.5 39.3 3.5 39.15 3.85 39.4 3.95 39.45 5.0 40.2 6.15 41.2 6.9 42.15 7.5 43.5 7.9 45.45 7.85 46.85 Q7.75 48.05 8.35 50.15 L8.5 50.65 8.65 51.2 7.5 50.85 3.85 50.2 3.55 50.25 2.15 50.5 0.75 50.75 0.7 50.75 0.25 50.5 -0.3 50.05 -0.95 49.45" fill="#c20c00" fill-rule="evenodd" stroke="none"/>
      <path d="M7.5 43.5 L6.9 42.15 7.05 42.1 8.9 41.7 9.35 41.7 11.3 42.05 Q12.65 42.5 13.75 43.35 L14.0 43.6 14.35 43.9 14.85 44.4 15.6 45.5 15.7 45.7 16.05 46.5 16.3 47.55 16.6 48.9 16.6 49.1 16.55 49.2 Q16.5 50.0 15.85 50.7 L15.8 50.75 15.15 51.25 14.35 51.55 13.8 51.6 13.4 51.35 14.25 51.2 14.3 51.2 14.9 50.85 15.1 50.65 15.45 50.2 15.5 50.05 15.7 49.15 15.7 49.0 15.55 48.15 Q15.35 47.6 14.8 47.2 L14.45 46.95 13.9 46.7 13.2 46.5 12.4 46.4 12.1 46.35 11.95 45.8 11.6 45.15 11.45 44.9 Q10.9 44.25 10.1 43.9 L7.8 43.5 7.5 43.5" fill="#fc9508" fill-rule="evenodd" stroke="none"/>
      <path d="M-0.95 44.45 L-0.95 43.85 -0.45 44.05 -0.3 44.15 0.05 44.75 -0.65 44.55 -0.8 44.5 -0.95 44.45 M3.1 42.65 L2.7 42.2 2.25 41.45 2.05 41.05 Q1.45 39.95 1.45 39.15 L1.45 38.95 1.5 38.35 1.65 38.0 2.2 38.35 3.5 39.15 3.5 39.3 3.8 40.45 4.45 41.95 4.5 42.0 4.65 42.4 4.75 42.7 4.95 43.2 5.2 44.0 5.25 44.8 5.25 44.9 5.1 46.15 5.1 46.0 4.8 44.85 4.5 44.3 4.25 43.9 3.9 43.5 3.8 43.35 3.75 43.3 3.1 42.65 M2.2 45.35 L2.6 45.6 1.9 46.65 1.6 46.75 1.75 46.55 2.2 45.35" fill="#e96600" fill-rule="evenodd" stroke="none"/>
      <path d="M-0.95 41.75 L-0.95 41.45 -0.15 41.35 0.4 41.4 Q1.3 41.5 1.95 42.1 L2.0 42.15 2.1 42.25 2.1 42.3 2.5 42.75 2.6 42.9 2.9 43.45 3.05 43.75 3.15 44.35 2.95 45.0 2.9 45.15 2.65 45.45 2.6 45.6 2.2 45.35 2.2 45.25 2.25 44.75 2.1 43.75 2.1 43.7 2.05 43.6 1.9 43.2 1.7 42.85 1.55 42.65 1.45 42.55 1.3 42.4 Q0.85 41.95 0.3 41.85 L-0.25 41.75 -0.8 41.8 -0.9 41.8 -0.95 41.75 M-0.6 37.85 L-0.15 37.85 1.15 37.7 1.65 38.0 1.5 38.35 1.45 38.95 1.45 39.15 Q1.45 39.95 2.05 41.05 L2.25 41.45 2.7 42.2 3.1 42.65 2.6 42.2 2.25 41.9 1.5 41.3 0.6 40.35 0.25 39.95 -0.15 39.25 -0.6 37.85" fill="#f69200" fill-rule="evenodd" stroke="none"/>
      <path d="M-0.95 46.95 L-0.95 44.85 -0.55 44.75 -0.05 44.9 0.0 44.95 0.05 44.75 -0.3 44.15 -0.45 44.05 -0.95 43.85 -0.95 43.45 0.65 43.15 0.7 43.15 1.25 43.4 1.45 43.5 1.8 43.65 1.95 43.75 2.1 43.7 2.1 43.75 2.25 44.75 2.2 45.25 2.2 45.35 1.75 46.55 1.6 46.75 1.45 46.9 0.95 47.15 0.75 47.2 0.3 47.25 0.1 47.25 -0.45 47.15 -0.5 47.15 -0.95 46.95" fill="#fc6a03" fill-rule="evenodd" stroke="none"/>
      <path d="M-0.95 43.45 L-0.95 41.8 -0.9 41.8 -0.8 41.8 -0.25 41.75 0.3 41.85 Q0.85 41.95 1.3 42.4 L1.45 42.55 1.55 42.65 1.7 42.85 1.9 43.2 2.05 43.6 2.1 43.7 1.95 43.75 1.8 43.65 1.45 43.5 1.25 43.4 0.7 43.15 0.65 43.15 -0.95 43.45" fill="#ff8602" fill-rule="evenodd" stroke="none"/>
      <path d="M-0.95 50.55 L-0.95 49.45 -0.3 50.05 0.25 50.5 0.7 50.75 0.25 50.75 -0.25 50.7 -0.45 50.65 -0.75 50.6 -0.95 50.55 M-0.95 48.5 L-0.95 46.95 -0.5 47.15 -0.45 47.15 0.1 47.25 0.3 47.25 0.75 47.2 0.95 47.15 1.45 46.9 1.6 46.75 1.9 46.65 2.6 45.6 2.65 45.45 2.9 45.15 2.95 45.0 3.15 44.35 3.05 43.75 2.9 43.45 2.6 42.9 2.5 42.75 2.1 42.3 2.1 42.25 2.0 42.15 1.95 42.1 1.3 41.35 0.6 40.35 1.5 41.3 2.25 41.9 2.6 42.2 3.1 42.65 3.75 43.3 3.8 43.35 3.9 43.5 4.25 43.9 4.5 44.3 4.8 44.85 5.1 46.0 5.1 46.15 4.35 47.75 Q3.55 48.8 2.3 49.1 L1.45 49.15 0.35 49.0 0.05 48.95 -0.2 48.85 -0.95 48.5 M-0.95 44.85 L-0.95 44.45 -0.8 44.5 -0.65 44.55 0.05 44.75 0.0 44.95 -0.05 44.9 -0.55 44.75 -0.95 44.85" fill="#e12b04" fill-rule="evenodd" stroke="none"/>
      <path d="M-0.95 41.45 L-0.95 37.85 -0.6 37.85 -0.15 39.25 0.25 39.95 0.6 40.35 1.3 41.35 1.95 42.1 Q1.3 41.5 0.4 41.4 L-0.15 41.35 -0.95 41.45" fill="#ffb203" fill-rule="evenodd" stroke="none"/>
      <path d="M8.35 50.15 Q7.75 48.05 7.85 46.85 L7.9 45.45 7.5 43.5 7.8 43.5 10.1 43.9 Q10.9 44.25 11.45 44.9 L11.6 45.15 11.95 45.8 12.1 46.35 11.75 46.35 10.8 46.45 9.75 46.85 9.35 47.1 Q8.35 47.9 8.35 49.3 L8.35 50.15" fill="#feba19" fill-rule="evenodd" stroke="none"/>
      <path d="M15.4 53.95 L10.7 53.95 10.05 53.5 Q9.0 52.65 8.65 51.2 L8.5 50.65 8.35 50.15 8.35 49.3 Q8.35 47.9 9.35 47.1 L9.75 46.85 10.8 46.45 11.75 46.35 12.1 46.35 12.15 46.7 12.1 47.0 11.75 47.2 11.45 47.3 11.45 47.55 11.0 47.65 Q10.65 47.7 10.35 47.9 9.45 48.4 9.45 49.05 9.45 50.8 10.45 52.0 L10.9 52.5 Q11.7 53.25 12.8 53.35 L13.1 53.35 14.2 53.25 14.65 53.15 15.05 52.95 15.85 52.0 16.2 51.4 Q16.6 50.4 16.6 49.45 L16.6 49.2 16.6 49.1 16.6 48.9 16.3 47.55 16.55 47.95 16.9 48.85 17.05 49.3 17.05 49.35 17.15 50.0 17.2 49.75 17.2 50.4 17.2 50.7 Q16.95 52.55 15.45 53.9 L15.4 53.95" fill="#f8ad13" fill-rule="evenodd" stroke="none"/>
      <path d="M12.1 46.35 L12.4 46.4 13.2 46.5 13.9 46.7 14.45 46.95 14.8 47.2 Q15.35 47.6 15.55 48.15 L15.7 49.0 15.7 49.15 15.5 50.05 15.45 50.2 15.1 50.65 14.9 50.85 14.3 51.2 14.25 51.2 13.4 51.35 12.95 51.4 12.4 51.35 11.5 51.0 11.15 50.75 Q10.8 50.4 10.8 50.0 10.8 49.65 11.15 49.25 L11.55 48.8 11.8 48.55 12.0 48.4 12.65 48.3 12.85 48.3 12.85 48.95 12.65 49.15 12.45 49.35 12.25 49.85 12.35 50.2 12.9 50.2 13.45 50.1 13.7 50.05 13.85 49.9 13.9 49.9 14.1 49.7 14.35 49.05 Q14.35 48.75 14.0 48.4 L13.45 48.0 13.4 47.95 11.85 47.5 11.45 47.55 11.45 47.3 11.75 47.2 12.1 47.0 12.15 46.7 12.1 46.35" fill="#fe9a10" fill-rule="evenodd" stroke="none"/>
      <path d="M11.45 47.55 L11.85 47.5 13.4 47.95 13.45 48.0 14.0 48.4 Q14.35 48.75 14.35 49.05 L14.1 49.7 13.9 49.9 13.85 49.9 13.7 50.05 13.7 49.8 Q13.7 48.9 12.95 48.9 L12.85 48.95 12.85 48.3 12.65 48.3 12.0 48.4 11.8 48.55 Q11.45 47.9 11.45 47.55" fill="#f7b70f" fill-rule="evenodd" stroke="none"/>
      <path d="M12.85 48.95 L12.95 48.9 Q13.7 48.9 13.7 49.8 L13.7 50.05 13.45 50.1 12.9 50.2 12.35 50.2 12.25 49.85 12.45 49.35 12.65 49.15 12.85 48.95" fill="#f4d326" fill-rule="evenodd" stroke="none"/>
      <path d="M16.3 53.95 L15.4 53.95 15.45 53.9 Q16.95 52.55 17.2 50.7 L17.2 50.4 17.2 49.75 17.3 49.35 17.4 48.35 17.45 46.7 Q17.45 44.85 16.65 43.45 L16.25 42.85 16.7 43.4 Q18.1 45.3 18.6 46.55 18.95 47.45 18.95 48.6 L18.95 49.75 18.85 50.4 18.8 50.6 18.5 51.5 18.45 51.55 18.4 51.75 18.3 52.2 18.1 52.65 18.05 52.7 17.95 52.8 17.85 52.85 16.8 53.65 16.3 53.95" fill="#e6660b" fill-rule="evenodd" stroke="none"/>
      <path d="M35.7 42.1 L34.6 41.4 34.45 41.35 34.25 41.3 33.75 41.4 33.1 41.6 32.8 41.7 31.75 42.2 30.8 42.75 30.75 42.75 28.75 43.75 28.6 43.8 27.85 44.05 26.9 44.2 26.5 44.2 26.15 44.2 25.2 44.1 24.55 43.95 23.65 43.6 21.8 42.5 21.0 41.8 20.4 41.2 20.35 41.15 Q19.15 39.8 18.45 38.15 L17.9 36.4 Q18.2 37.35 18.65 38.1 19.5 39.6 20.95 40.35 21.8 40.8 22.95 40.95 L24.65 41.05 24.65 41.15 24.9 41.15 25.25 41.05 25.5 41.0 26.2 40.9 26.85 40.8 27.15 40.7 27.35 40.65 27.4 40.65 27.55 40.6 27.95 40.5 28.25 40.4 28.2 40.4 28.7 40.25 28.9 40.2 29.0 40.15 30.55 39.5 30.65 39.5 30.85 39.5 31.05 39.55 31.45 39.55 31.8 39.6 32.4 39.7 32.65 39.75 32.9 39.8 33.25 39.9 33.85 40.25 34.65 40.9 34.65 40.95 35.7 42.1" fill="#770124" fill-rule="evenodd" stroke="none"/>
      <path d="M22.95 40.95 L21.55 39.95 21.5 39.95 20.3 38.75 19.65 37.85 Q19.0 36.75 18.7 35.6 19.05 36.7 20.3 37.5 L20.55 37.65 21.35 38.05 23.05 38.35 23.5 38.35 25.0 38.2 25.7 37.95 25.75 37.95 26.0 38.05 26.15 38.1 26.6 38.3 26.75 38.35 27.7 38.6 28.7 38.8 29.1 38.9 30.6 39.2 30.85 39.25 31.0 39.25 30.85 39.35 30.55 39.5 29.0 40.15 28.9 40.2 28.7 40.25 28.2 40.4 28.25 40.4 27.95 40.5 27.55 40.6 27.4 40.65 27.35 40.65 27.15 40.7 26.85 40.8 26.2 40.9 25.5 41.0 25.25 41.05 24.9 41.15 24.65 41.15 24.65 41.05 22.95 40.95" fill="#920024" fill-rule="evenodd" stroke="none"/>
      <path d="M34.95 28.55 Q34.7 29.75 33.95 30.75 L33.65 31.1 32.4 32.15 31.45 32.6 30.45 32.8 29.65 32.85 29.5 32.85 28.35 32.75 28.25 32.7 27.55 32.45 27.2 32.3 26.75 32.05 26.65 31.8 26.65 31.75 26.5 31.2 26.3 30.45 26.15 28.95 26.15 28.4 26.3 27.65 Q26.5 27.0 26.95 26.5 L27.6 26.75 28.0 26.65 28.15 26.6 28.25 26.1 28.15 25.6 28.5 25.5 28.8 25.8 Q29.15 26.1 29.65 26.2 L30.05 26.25 30.25 26.2 30.9 25.85 31.35 25.2 Q32.3 25.3 33.1 25.85 L33.2 25.95 33.3 26.0 34.15 26.8 34.45 27.25 35.0 28.05 34.95 28.55" fill="#cf0c10" fill-rule="evenodd" stroke="none"/>
      <path d="M31.85 33.1 L32.6 33.1 34.25 32.8 34.65 32.65 35.6 32.3 36.15 32.2 37.4 33.95 37.65 35.3 37.55 36.2 37.55 36.25 Q37.35 37.15 36.75 37.85 37.25 37.2 37.25 36.2 L37.25 36.15 Q37.25 35.05 36.25 34.4 L35.3 34.0 34.45 33.85 34.2 33.85 32.55 34.2 Q32.3 34.3 32.15 34.5 L32.1 33.9 31.85 33.1" fill="#920025" fill-rule="evenodd" stroke="none"/>
      <path d="M32.15 34.5 Q32.3 34.3 32.55 34.2 L34.2 33.85 34.45 33.85 35.3 34.0 36.25 34.4 Q37.25 35.05 37.25 36.15 L37.25 36.2 Q37.25 37.2 36.75 37.85 L36.6 38.0 36.65 37.75 36.4 37.3 Q36.3 37.15 36.1 37.15 L36.35 36.2 Q36.35 35.0 35.2 34.75 L34.6 34.7 34.15 34.75 Q32.9 34.8 32.55 35.4 L32.45 35.75 32.45 35.85 32.05 35.75 31.85 35.25 Q31.85 34.8 32.15 34.5" fill="#a00022" fill-rule="evenodd" stroke="none"/>
      <path d="M31.45 32.6 L31.8 33.0 31.85 33.1 31.8 33.1 30.85 33.05 30.35 33.0 29.8 32.9 29.5 32.85 29.65 32.85 30.45 32.8 31.45 32.6" fill="#820024" fill-rule="evenodd" stroke="none"/>
      <path d="M29.5 32.85 L29.8 32.9 30.35 33.0 30.85 33.05 31.8 33.1 31.85 33.1 32.1 33.9 32.15 34.5 Q31.85 34.8 31.85 35.25 L32.05 35.75 32.45 35.85 32.45 35.75 32.55 35.75 Q33.55 35.95 33.55 36.55 L33.4 36.95 32.95 37.15 32.6 37.15 31.4 36.9 31.05 36.85 31.0 36.8 30.85 36.75 30.25 36.45 29.45 35.8 Q28.8 34.95 28.5 33.85 L28.35 32.75 29.5 32.85" fill="#a1001f" fill-rule="evenodd" stroke="none"/>
      <path d="M29.45 35.8 L30.05 36.5 30.15 36.6 30.4 36.8 30.85 37.1 30.95 37.15 31.2 37.3 31.35 37.4 32.6 37.8 33.9 37.9 33.95 37.9 34.85 37.85 35.4 37.7 Q35.25 37.9 35.25 38.2 L35.25 38.5 35.5 38.6 34.8 38.75 34.1 38.75 33.9 38.75 32.6 38.6 31.9 38.45 31.55 38.35 31.15 38.25 30.85 38.15 Q30.0 37.85 29.55 37.35 L29.1 36.85 28.6 36.0 28.55 35.9 27.95 34.25 27.55 32.45 28.25 32.7 28.35 32.75 28.5 33.85 Q28.8 34.95 29.45 35.8" fill="#9b0427" fill-rule="evenodd" stroke="none"/>
      <path d="M32.45 35.75 L32.55 35.4 Q32.9 34.8 34.15 34.75 L34.6 34.7 35.2 34.75 Q36.35 35.0 36.35 36.2 L36.1 37.15 36.05 37.25 35.7 37.55 35.55 37.65 35.4 37.7 34.85 37.85 33.95 37.9 33.9 37.9 32.6 37.8 31.35 37.4 31.2 37.3 30.95 37.15 30.85 37.1 30.4 36.8 30.15 36.6 30.05 36.5 29.45 35.8 30.25 36.45 30.85 36.75 31.0 36.8 31.05 36.85 31.4 36.9 32.6 37.15 32.95 37.15 33.4 36.95 33.55 36.55 Q33.55 35.95 32.55 35.75 L32.45 35.75" fill="#840025" fill-rule="evenodd" stroke="none"/>
      <path d="M36.15 32.2 L36.25 32.15 Q36.6 32.15 37.55 32.7 L37.8 32.8 37.9 32.85 38.4 33.15 38.6 33.3 39.0 33.6 Q39.55 34.15 39.55 35.65 39.55 37.4 38.45 38.5 L38.3 38.65 38.0 38.9 37.7 39.15 Q36.45 39.95 34.85 39.95 L33.95 39.95 33.85 39.95 33.3 39.9 33.25 39.9 32.9 39.8 32.65 39.75 32.4 39.7 31.8 39.6 31.45 39.55 31.05 39.55 30.85 39.5 30.65 39.5 30.55 39.5 30.85 39.35 31.0 39.25 31.15 39.2 30.85 39.0 30.8 38.95 Q30.05 38.4 29.55 37.35 30.0 37.85 30.85 38.15 L31.15 38.25 31.55 38.35 31.9 38.45 32.6 38.6 33.9 38.75 34.1 38.75 34.8 38.75 35.5 38.6 35.75 38.55 35.95 38.45 36.6 38.0 36.75 37.85 Q37.35 37.15 37.55 36.25 L37.55 36.2 37.65 35.3 37.4 33.95 36.15 32.2 M25.25 30.75 L25.55 31.1 25.6 31.15 25.85 31.4 25.45 31.15 25.1 30.9 24.6 30.45 25.25 30.75" fill="#7c001f" fill-rule="evenodd" stroke="none"/>
      <path d="M25.85 31.4 L26.0 31.55 26.05 31.65 Q26.45 32.3 26.45 33.2 L26.2 34.3 25.9 34.75 24.65 35.65 23.4 36.1 23.15 36.15 Q22.5 35.3 22.3 34.3 L22.25 34.15 22.55 34.25 23.25 33.95 23.45 33.8 Q24.45 33.15 24.45 32.2 24.45 31.7 24.05 31.3 L23.75 31.05 24.55 30.85 25.1 30.9 25.45 31.15 25.85 31.4 M36.1 37.15 Q36.3 37.15 36.4 37.3 L36.65 37.75 36.6 38.0 35.95 38.45 35.8 38.0 35.55 37.65 35.7 37.55 36.05 37.25 36.1 37.15" fill="#d20024" fill-rule="evenodd" stroke="none"/>
      <path d="M22.25 34.15 L21.7 33.95 21.3 33.65 21.0 33.2 20.85 32.5 20.95 31.95 21.55 31.2 Q22.15 30.8 22.75 30.8 L23.1 30.8 23.75 31.05 24.05 31.3 Q24.45 31.7 24.45 32.2 24.45 33.15 23.45 33.8 L23.25 33.95 22.55 34.25 22.25 34.15 M23.45 32.2 Q23.45 31.7 23.15 31.55 L23.1 31.55 22.85 31.5 22.25 31.7 Q21.85 32.0 21.85 32.45 L22.05 32.9 22.15 33.0 22.85 33.0 23.2 32.7 23.25 32.65 23.45 32.2" fill="#d3011e" fill-rule="evenodd" stroke="none"/>
      <path d="M23.45 32.2 L23.25 32.65 23.2 32.7 22.85 33.0 22.15 33.0 22.05 32.9 21.85 32.45 Q21.85 32.0 22.25 31.7 L22.85 31.5 23.1 31.55 23.15 31.55 Q23.45 31.7 23.45 32.2" fill="#f00019" fill-rule="evenodd" stroke="none"/>
      <path d="M26.0 31.55 L26.75 32.05 27.2 32.3 27.55 32.45 27.95 34.25 Q27.95 35.6 27.4 36.5 L27.15 36.9 26.65 37.4 26.5 37.55 26.0 37.8 25.95 37.85 25.75 37.95 25.7 37.95 25.0 37.6 24.25 37.15 23.4 36.4 23.15 36.15 23.4 36.1 24.65 35.65 25.9 34.75 26.2 34.3 26.45 33.2 Q26.45 32.3 26.05 31.65 L26.0 31.55" fill="#b3021c" fill-rule="evenodd" stroke="none"/>
      <path d="M27.95 34.25 L28.55 35.9 28.6 36.0 29.1 36.85 29.55 37.35 Q30.05 38.4 30.8 38.95 L30.85 39.0 31.15 39.2 31.0 39.25 30.85 39.25 30.6 39.2 29.1 38.9 28.7 38.8 27.7 38.6 26.75 38.35 26.6 38.3 26.15 38.1 26.0 38.05 25.75 37.95 25.95 37.85 26.0 37.8 26.5 37.55 26.65 37.4 27.15 36.9 27.4 36.5 Q27.95 35.6 27.95 34.25" fill="#9d0224" fill-rule="evenodd" stroke="none"/>
      <path d="M22.0 53.95 L19.65 53.95 19.45 53.65 19.25 53.2 20.1 52.8 20.4 52.65 20.75 52.5 20.8 52.45 21.45 52.2 22.85 51.75 22.45 52.95 22.0 53.95 M21.85 48.6 L21.8 48.6 21.85 48.55 21.85 48.6 M20.4 50.0 L20.45 50.2 20.45 50.3 20.35 50.3 20.3 50.3 20.2 50.35 19.55 51.05 20.4 50.0" fill="#442e80" fill-rule="evenodd" stroke="none"/>
      <path d="M25.15 49.15 L25.3 49.1 25.35 49.1 25.4 49.05 25.55 48.95 26.5 48.65 28.3 47.9 28.5 47.85 28.65 47.8 29.85 47.6 30.35 47.5 31.7 47.3 34.6 47.0 34.65 47.0 34.75 47.0 37.2 47.35 37.4 47.4 39.3 48.15 39.55 48.3 40.0 48.6 40.2 48.85 41.1 50.05 41.2 50.25 41.3 50.4 41.15 50.6 40.8 50.3 40.5 50.05 39.4 49.4 39.35 49.35 Q38.2 48.75 37.0 48.4 L34.9 48.05 33.4 47.95 31.55 48.15 30.95 48.25 28.45 48.6 28.3 48.6 26.5 49.0 25.7 49.3 25.4 49.4 25.25 49.5 25.15 49.55 23.9 50.0 25.15 49.15" fill="#df5200" fill-rule="evenodd" stroke="none"/>
      <path d="M43.6 53.95 L42.35 53.95 42.35 53.6 42.05 51.85 41.95 51.65 41.85 51.45 41.75 51.25 41.7 51.25 41.65 51.2 41.15 50.6 41.3 50.4 41.2 50.25 41.1 50.05 40.2 48.85 41.4 49.75 41.65 50.05 42.35 50.95 42.5 51.15 42.8 51.65 43.1 52.2 Q43.55 53.2 43.6 53.95 M23.9 50.0 L25.15 49.55 25.25 49.5 25.4 49.4 25.7 49.3 26.5 49.0 28.3 48.6 28.45 48.6 30.95 48.25 31.55 48.15 33.4 47.95 34.9 48.05 37.0 48.4 Q38.2 48.75 39.35 49.35 L39.4 49.4 40.5 50.05 40.8 50.3 40.55 50.2 39.3 49.9 39.25 49.9 38.75 49.75 37.6 49.5 36.85 49.35 36.2 49.3 36.1 49.25 35.25 49.2 35.15 49.2 35.0 49.2 34.25 49.3 31.35 49.8 31.05 49.9 28.9 50.7 28.7 50.75 27.95 50.75 26.25 50.95 25.0 51.15 24.85 51.2 24.05 51.35 22.85 51.75 21.45 52.2 22.6 51.1 23.1 50.7 23.9 50.0" fill="#f26702" fill-rule="evenodd" stroke="none"/>
      <path d="M50.8 51.7 L50.85 51.75 50.85 51.85 Q51.15 52.6 50.85 53.15 L50.4 53.8 50.35 53.9 50.35 53.95 47.9 53.95 47.45 53.5 47.2 51.85 Q47.2 50.9 47.8 50.2 48.05 49.95 48.25 49.85 48.6 49.6 49.0 49.6 L49.2 49.6 49.2 50.0 Q48.9 50.0 48.55 50.3 L48.5 50.35 48.45 50.4 Q47.9 50.8 47.9 51.4 L48.1 51.9 48.6 52.2 49.25 52.2 49.35 52.0 49.65 52.0 50.0 52.0 50.8 51.7 M42.35 53.95 L41.95 53.95 41.95 53.9 41.85 53.85 41.75 53.25 41.55 52.7 41.45 52.6 41.4 52.5 41.25 52.35 40.3 51.4 40.0 51.2 39.0 50.75 38.35 50.65 37.95 50.7 37.6 50.75 37.6 50.85 37.0 50.85 36.65 50.85 35.3 51.35 35.0 51.55 35.3 51.35 36.65 50.85 37.0 50.85 37.6 50.85 38.3 51.0 38.9 51.15 39.25 51.25 39.8 51.6 40.25 51.95 40.55 52.85 40.5 53.35 40.2 53.9 40.2 53.95 38.95 53.95 39.15 53.65 39.4 52.9 39.4 52.75 38.7 52.05 37.65 51.75 36.55 51.95 36.0 52.2 35.5 52.6 Q35.2 52.85 35.05 53.2 L35.2 53.1 35.0 53.55 35.05 53.95 33.55 53.95 33.55 53.8 33.55 53.75 Q33.55 53.35 33.7 53.0 33.95 52.35 34.65 51.75 L34.85 51.65 35.0 51.55 34.9 51.5 Q33.5 50.8 32.7 50.8 31.9 50.8 31.15 51.15 L30.85 51.25 30.3 51.1 28.9 50.8 28.7 50.75 28.9 50.7 31.05 49.9 31.35 49.8 34.25 49.3 34.55 49.3 35.0 49.35 35.05 49.35 35.2 49.35 36.15 49.45 36.8 49.55 36.85 49.35 37.6 49.5 38.75 49.75 39.25 49.9 39.3 49.9 40.55 50.2 40.8 50.3 41.15 50.6 41.65 51.2 41.7 51.25 41.75 51.25 41.85 51.45 41.95 51.65 42.05 51.85 42.35 53.6 42.35 53.95" fill="#f99d18" fill-rule="evenodd" stroke="none"/>
      <path d="M41.95 53.95 L41.85 53.95 41.85 53.85 41.95 53.9 41.95 53.95 M36.85 49.35 L36.8 49.55 36.15 49.45 35.2 49.35 35.05 49.35 35.0 49.35 34.55 49.3 34.25 49.3 35.0 49.2 35.15 49.2 35.25 49.2 36.1 49.25 36.2 49.3 36.85 49.35" fill="#f29f1d" fill-rule="evenodd" stroke="none"/>
      <path d="M41.85 53.95 L40.2 53.95 40.2 53.9 40.5 53.35 40.55 52.85 40.25 51.95 39.8 51.6 39.25 51.25 38.9 51.15 38.3 51.0 37.6 50.85 37.6 50.75 37.95 50.7 38.35 50.65 39.0 50.75 40.0 51.2 40.3 51.4 41.25 52.35 41.4 52.5 41.45 52.6 41.55 52.7 41.75 53.25 41.85 53.85 41.85 53.95 M38.95 53.95 L37.9 53.95 35.05 53.95 35.0 53.55 35.2 53.1 35.5 52.9 36.1 52.65 36.5 52.6 36.65 52.55 37.85 52.7 38.1 52.9 38.3 52.65 38.45 52.55 38.6 52.5 38.8 52.45 Q39.1 52.45 39.4 52.75 L39.4 52.85 39.4 52.9 39.15 53.65 38.95 53.95 M37.9 53.95 L37.85 53.75 38.0 53.1 38.1 52.9 38.0 53.1 37.85 53.75 37.9 53.95" fill="#fccb30" fill-rule="evenodd" stroke="none"/>
      <path d="M39.4 52.75 Q39.1 52.45 38.8 52.45 L38.6 52.5 38.45 52.55 38.3 52.65 38.1 52.9 37.85 52.7 36.65 52.55 36.5 52.6 36.1 52.65 35.5 52.9 35.2 53.1 35.05 53.2 Q35.2 52.85 35.5 52.6 L36.0 52.2 36.55 51.95 37.65 51.75 38.7 52.05 39.4 52.75" fill="#f9a715" fill-rule="evenodd" stroke="none"/>
      <path d="M39.4 52.9 L39.4 52.85 39.4 52.75 39.4 52.9" fill="#2a318c" fill-rule="evenodd" stroke="none"/>
      <path d="M30.85 51.25 L31.15 51.15 Q31.9 50.8 32.7 50.8 33.5 50.8 34.9 51.5 L35.0 51.55 34.85 51.65 34.65 51.75 Q33.95 52.35 33.7 53.0 32.6 51.9 31.1 51.35 L30.85 51.25" fill="#fc9515" fill-rule="evenodd" stroke="none"/>
      <path d="M28.7 50.75 L28.9 50.8 30.3 51.1 30.85 51.25 31.1 51.35 Q32.6 51.9 33.7 53.0 33.55 53.35 33.55 53.75 L33.55 53.8 33.0 53.55 32.15 53.35 30.5 53.15 30.05 53.15 29.95 53.15 29.25 53.15 28.9 53.2 28.2 53.3 26.8 53.55 25.55 53.8 26.25 50.95 27.95 50.75 28.7 50.75" fill="#63042e" fill-rule="evenodd" stroke="none"/>
      <path d="M31.95 53.95 L28.75 53.95 28.9 53.2 29.25 53.15 29.95 53.15 30.05 53.15 30.5 53.15 32.15 53.35 31.95 53.95" fill="#8a0023" fill-rule="evenodd" stroke="none"/>
      <path d="M33.55 53.95 L31.95 53.95 32.15 53.35 33.0 53.55 33.55 53.8 33.55 53.95" fill="#7a0020" fill-rule="evenodd" stroke="none"/>
      <path d="M28.75 53.95 L25.5 53.95 25.55 53.8 26.8 53.55 28.2 53.3 28.9 53.2 28.75 53.95" fill="#850639" fill-rule="evenodd" stroke="none"/>
      <path d="M24.9 53.95 L23.75 53.95 24.85 51.2 25.0 51.15 26.25 50.95 25.55 53.8 25.3 53.85 24.9 53.95" fill="#55103f" fill-rule="evenodd" stroke="none"/>
      <path d="M17.3 53.95 L16.3 53.95 16.8 53.65 17.85 52.85 17.95 53.0 18.0 52.9 18.1 52.65 18.2 52.55 18.9 51.9 19.55 51.05 20.2 50.35 20.3 50.3 20.35 50.3 20.45 50.3 20.5 50.3 21.75 49.9 21.8 49.9 22.9 49.6 23.25 49.5 25.15 49.15 23.9 50.0 23.1 50.7 22.6 51.1 21.45 52.2 20.8 52.45 20.75 52.5 20.4 52.65 20.1 52.8 19.25 53.2 18.3 53.6 17.65 53.8 17.6 53.85 17.3 53.95" fill="#ee7912" fill-rule="evenodd" stroke="none"/>
      <path d="M23.75 53.95 L22.0 53.95 22.45 52.95 22.85 51.75 24.05 51.35 24.85 51.2 23.75 53.95" fill="#52195d" fill-rule="evenodd" stroke="none"/>
      <path d="M25.5 53.95 L24.9 53.95 25.3 53.85 25.55 53.8 25.5 53.95" fill="#780a47" fill-rule="evenodd" stroke="none"/>
      <path d="M18.45 53.95 L17.3 53.95 17.6 53.85 17.65 53.8 18.3 53.6 18.45 53.95 M17.85 52.85 L17.95 52.8 18.0 52.9 17.95 53.0 17.85 52.85" fill="#3f3192" fill-rule="evenodd" stroke="none"/>
      <path d="M19.65 53.95 L18.45 53.95 18.3 53.6 19.25 53.2 19.45 53.65 19.65 53.95 M17.95 52.8 L18.05 52.7 18.1 52.65 18.0 52.9 17.95 52.8" fill="#3b3386" fill-rule="evenodd" stroke="none"/>
      <path d="M10.7 53.95 L9.95 53.95 9.9 53.9 9.8 53.75 9.6 53.55 9.35 53.25 9.6 53.35 10.05 53.5 10.7 53.95" fill="#680824" fill-rule="evenodd" stroke="none"/>
      <path d="M9.95 53.95 L6.25 53.95 6.65 53.4 6.7 53.3 6.75 53.25 7.4 52.75 7.55 52.8 7.7 52.85 8.25 52.95 8.7 53.1 8.75 53.1 8.85 53.15 9.35 53.25 9.6 53.55 9.8 53.75 9.9 53.9 9.95 53.95" fill="#7e0026" fill-rule="evenodd" stroke="none"/>
      <path d="M3.55 50.25 L3.85 50.2 7.5 50.85 8.65 51.2 Q9.0 52.65 10.05 53.5 L9.6 53.35 9.35 53.25 8.85 53.15 8.75 53.1 8.7 53.1 8.25 52.95 7.7 52.85 7.55 52.8 7.4 52.75 6.7 52.6 5.75 52.45 5.65 52.45 5.0 52.4 4.05 52.35 3.75 52.35 3.4 52.3 2.8 52.4 3.0 51.65 3.15 51.3 3.35 50.65 3.45 50.4 3.55 50.25" fill="#6c041f" fill-rule="evenodd" stroke="none"/>
      <path d="M6.25 53.95 L4.85 53.95 5.2 53.15 5.6 52.7 5.65 52.45 5.75 52.45 6.7 52.6 7.4 52.75 6.75 53.25 6.7 53.3 6.65 53.4 6.25 53.95" fill="#80002a" fill-rule="evenodd" stroke="none"/>
      <path d="M4.85 53.95 L3.5 53.95 3.7 53.25 3.9 52.8 4.05 52.35 5.0 52.4 5.65 52.45 5.6 52.7 5.2 53.15 4.85 53.95" fill="#6e0022" fill-rule="evenodd" stroke="none"/>
      <path d="M0.7 50.75 L0.75 50.75 2.15 50.5 3.55 50.25 3.45 50.4 3.35 50.65 3.15 51.3 3.0 51.65 2.8 52.4 2.7 52.65 2.7 52.8 1.1 52.9 0.5 52.95 0.3 51.7 0.25 51.15 0.25 50.75 0.7 50.75" fill="#670222" fill-rule="evenodd" stroke="none"/>
      <path d="M3.5 53.95 L2.5 53.95 2.7 52.8 2.7 52.65 2.8 52.4 3.4 52.3 3.75 52.35 4.05 52.35 3.9 52.8 3.7 53.25 3.5 53.95" fill="#5c001e" fill-rule="evenodd" stroke="none"/>
      <path d="M0.65 53.95 L-0.45 53.95 -0.55 53.35 -0.7 52.45 -0.8 52.3 -0.8 51.85 -0.5 50.9 -0.45 50.65 -0.25 50.7 0.25 50.75 0.25 51.15 0.3 51.7 0.5 52.95 0.65 53.9 0.65 53.95" fill="#74001e" fill-rule="evenodd" stroke="none"/>
      <path d="M2.5 53.95 L0.65 53.95 0.65 53.9 0.5 52.95 1.1 52.9 2.7 52.8 2.5 53.95" fill="#54011f" fill-rule="evenodd" stroke="none"/>
      <path d="M49.2 50.0 L49.3 49.95 49.8 50.1 50.35 50.65 50.8 51.7 50.0 52.0 49.65 52.0 49.35 52.0 49.25 52.2 48.6 52.2 48.1 51.9 47.9 51.4 Q47.9 50.8 48.45 50.4 L48.5 50.35 48.55 50.3 Q48.9 50.0 49.2 50.0" fill="#f77b00" fill-rule="evenodd" stroke="none"/>
      <path d="M47.9 53.95 L46.95 53.95 46.85 53.85 45.9 53.35 45.8 53.35 45.15 53.95 44.25 53.95 44.25 53.9 44.25 53.85 44.55 52.8 44.65 52.35 44.8 51.85 44.85 51.4 44.9 51.05 Q45.2 50.35 45.5 50.35 45.85 50.35 46.55 51.05 L46.65 51.1 46.7 51.35 46.85 52.0 47.2 53.0 47.25 53.15 47.25 53.2 47.45 53.5 47.9 53.95" fill="#f9ad0a" fill-rule="evenodd" stroke="none"/>
      <path d="M46.95 53.95 L45.15 53.95 45.8 53.35 45.9 53.35 46.85 53.85 46.95 53.95" fill="#fce132" fill-rule="evenodd" stroke="none"/>
      <path d="M-0.85 18.2 L-0.95 18.25 -0.95 18.2 -0.85 18.2" fill="#fffe97" fill-rule="evenodd" stroke="none"/>
      <path d="M-0.95 21.05 L-0.95 20.7 -0.85 20.7 -0.85 20.75 -0.85 21.05 -0.95 21.05" fill="#f8f8f8" fill-rule="evenodd" stroke="none"/>
      <path d="M-0.85 21.05 L-0.9 21.75 -0.45 22.7 -0.6 23.0 -0.95 23.6 -0.95 23.05 -0.85 22.7 -0.85 22.65 -0.9 22.55 -0.95 22.5 -0.95 21.05 -0.85 21.05" fill="#e5e5e5" fill-rule="evenodd" stroke="none"/>
      <path d="M-0.95 41.8 L-0.95 41.75 -0.9 41.8 -0.95 41.8" fill="#ffbb00" fill-rule="evenodd" stroke="none"/>
      <path d="M-0.95 50.7 L-0.95 50.55 -0.75 50.6 -0.95 50.7" fill="#a90019" fill-rule="evenodd" stroke="none"/>
      <path d="M-0.95 51.15 L-0.95 50.7 -0.75 50.6 -0.45 50.65 -0.5 50.9 -0.65 50.95 -0.85 51.05 -0.95 51.15" fill="#7e001d" fill-rule="evenodd" stroke="none"/>
      <path d="M-0.45 53.95 L-0.95 53.95 -0.95 51.15 -0.85 51.05 -0.65 50.95 -0.5 50.9 -0.8 51.85 -0.8 52.3 -0.7 52.45 -0.55 53.35 -0.45 53.95" fill="#840123" fill-rule="evenodd" stroke="none"/>
      <path d="M14.25 14.8 L13.9 14.45 13.8 14.35 12.55 13.15 12.25 12.85 10.65 11.2 10.45 11.0 9.6 10.15 9.4 9.95 8.15 8.65 6.7 7.2 6.8 3.55 Q4.6 2.1 2.75 2.1 L1.85 2.35 Q1.55 2.65 1.5 3.45 L1.05 2.85 Q0.55 2.15 0.55 1.2 0.55 0.45 1.55 0.1 L1.85 0.0 M4.05 0.0 Q5.0 0.15 5.95 0.55 L6.95 1.0 7.1 0.0 M20.6 0.0 L20.95 0.15 21.25 0.25 M11.15 0.9 L11.65 0.0 M9.2 5.15 L10.55 2.05 10.6 1.9 11.15 0.9 M9.2 5.15 Q8.8 6.05 8.55 6.95 M8.55 7.0 L8.3 7.95 8.2 8.45 8.15 8.65 M15.05 15.6 L14.25 14.8 M15.95 16.45 L15.05 15.6" fill="none" stroke="#fffff6" stroke-linecap="round" stroke-linejoin="round" stroke-width="1.0"/>
      <path d="M21.2 0.0 L21.25 0.25 21.25 0.45 21.4 1.1 21.4 1.2 21.6 2.0 21.85 3.0 22.1 3.0 22.75 3.0 22.8 3.0 22.95 3.0 24.0 3.05 24.15 3.15 24.3 3.25 M21.35 3.05 L20.75 3.05 19.0 3.1 18.9 3.1 17.7 3.2 17.15 3.25 16.5 3.3 16.4 5.5 16.4 5.7 16.4 6.2 16.6 9.1 16.6 9.45 16.65 9.7 16.85 11.0 17.2 12.65 17.25 13.0 17.35 13.45 17.8 15.0 18.05 15.8 18.5 17.15 18.55 17.3 M21.35 3.05 L21.75 3.0 21.85 3.0 M32.75 22.8 L32.7 21.95" fill="none" stroke="#f8fda1" stroke-linecap="round" stroke-linejoin="round" stroke-width="1.0"/>
      <path d="M24.95 1.85 L24.95 1.75 25.0 1.7 25.05 1.55 Q25.4 0.8 26.15 0.0 M35.1 0.0 L35.45 1.25 35.7 2.15 35.9 3.1" fill="none" stroke="#ffffef" stroke-linecap="round" stroke-linejoin="round" stroke-width="1.0"/>
      <path d="M24.3 3.25 L24.95 1.85 M32.75 3.0 L32.4 2.0 31.7 0.0 M32.75 3.0 L32.85 3.3 32.85 3.35 33.7 5.6 33.8 6.0 M25.1 1.7 L25.45 1.6 26.4 1.25 27.75 0.8 30.1 0.0 M24.95 1.75 L25.1 1.7 M22.35 6.95 L23.4 5.0 24.1 3.65 24.3 3.25" fill="none" stroke="#ffffff" stroke-linecap="round" stroke-linejoin="round" stroke-width="1.0"/>
      <path d="M36.55 7.95 L36.6 7.95 36.95 7.7 37.7 7.2 38.1 6.95 Q39.4 6.2 40.65 5.7 L42.9 5.55 43.35 5.55 43.45 5.55 43.8 6.8 44.15 7.9 44.15 8.55 44.1 9.1 44.05 11.6 44.05 12.9 43.7 13.75 43.35 14.6 42.95 15.7 42.95 15.75 M42.15 8.65 L42.6 8.75 42.7 9.25 43.15 11.2 43.2 11.6 43.6 13.35 43.7 13.75 M20.15 12.85 L21.2 13.8 21.55 14.05 22.0 14.4 22.05 14.45 23.85 15.65 24.3 14.65 24.6 14.15 24.85 13.75 25.35 12.9 25.85 12.2 25.9 12.05 26.15 11.7 26.95 10.65 27.95 9.45 28.0 9.4 28.2 9.15 28.4 8.95 28.65 8.95 30.7 9.55 31.85 10.0 32.0 10.05 32.75 10.35 32.8 10.4 32.85 10.4 33.55 10.7 33.75 10.8 M33.8 11.75 L33.85 11.75 33.9 11.85 33.95 11.9 34.65 12.6 35.65 13.55 35.75 13.95 35.8 14.2 36.0 15.25 36.25 16.45 36.25 16.55 36.4 17.5 36.55 18.2 36.7 19.1 36.7 19.25 36.7 19.55 36.7 19.6 M37.0 7.7 L36.95 7.7 M37.0 7.7 L37.1 7.7 37.35 7.75 37.65 7.75 38.45 7.85 42.15 8.65 M35.55 9.3 L36.25 8.4 36.55 7.95 M28.1 17.4 Q27.0 17.3 25.3 16.45 L24.15 15.85 23.85 15.65 M34.75 14.0 L33.55 13.8 32.7 13.7 31.7 13.6 31.5 13.6 31.4 13.6 M34.75 14.0 L34.8 14.0 35.8 14.2 M33.65 17.35 L33.85 17.3 34.85 17.35 36.4 17.5" fill="none" stroke="#ffef05" stroke-linecap="round" stroke-linejoin="round" stroke-width="1.0"/>
      <path d="M38.7 13.35 L39.95 12.85 40.55 12.7 41.4 12.45 41.45 12.55 42.05 13.85 42.4 14.55 42.8 15.3 42.95 15.7" fill="none" stroke="#ffd106" stroke-linecap="round" stroke-linejoin="round" stroke-width="1.0"/>
      <path d="M42.95 15.75 L42.9 15.9 43.1 17.95 43.15 18.5 43.3 19.5 43.5 20.85 44.0 25.25 44.0 25.35" fill="none" stroke="#ee9c08" stroke-linecap="round" stroke-linejoin="round" stroke-width="1.0"/>
      <path d="M45.95 27.8 L46.0 27.75 46.05 27.75 46.45 27.6 47.55 27.3 47.6 27.25 M50.65 31.8 L50.65 32.05 50.65 32.3 50.65 33.25 50.65 33.3 50.65 34.45 50.6 35.05 M47.8 27.2 L47.85 27.15 47.9 27.15 48.05 27.1 M46.95 27.45 L46.95 27.5 47.55 27.3 M46.95 27.45 L46.45 27.6" fill="none" stroke="#f9d000" stroke-linecap="round" stroke-linejoin="round" stroke-width="1.0"/>
      <path d="M50.3 28.75 L50.35 29.1 50.4 29.65 50.4 29.8 50.45 29.95 50.45 30.2 50.5 30.3 50.5 30.5 50.55 30.7 50.55 30.75 50.55 30.85 50.55 30.9 50.6 31.1 50.6 31.15 50.6 31.25 50.6 31.4 50.65 31.8 M48.05 27.1 L48.1 27.05 48.2 27.05 48.3 27.0 M50.2 28.15 L50.3 28.65 M50.5 30.5 L50.55 30.75" fill="none" stroke="#ffffb4" stroke-linecap="round" stroke-linejoin="round" stroke-width="1.0"/>
      <path d="M48.3 27.0 L49.65 26.55 49.9 26.45 50.2 28.15 M48.1 27.05 L48.15 27.05 48.2 27.05 M49.05 29.8 L49.15 29.35 49.45 28.1 49.5 27.7 49.6 27.0 49.65 26.55 M48.75 30.9 L49.05 29.8 M48.6 31.55 L48.65 31.35 48.65 31.25 48.75 30.9 M48.6 31.55 L48.5 31.7" fill="none" stroke="#fdfed4" stroke-linecap="round" stroke-linejoin="round" stroke-width="1.0"/>
      <path d="M45.65 27.9 L45.75 27.85 45.95 27.8 M43.1 28.8 L43.45 28.65 44.55 28.25 45.25 28.0 45.65 27.9" fill="none" stroke="#f8da00" stroke-linecap="round" stroke-linejoin="round" stroke-width="1.0"/>
      <path d="M44.0 25.35 L44.7 26.4 45.55 27.75 45.65 27.9 M38.2 26.6 L38.3 26.95 M39.9 29.75 L40.3 30.35 41.45 31.3 M34.65 25.3 L33.9 23.35 33.8 23.25 33.6 23.05 33.1 22.45 M38.4 27.15 L38.7 27.7 39.25 28.75 39.45 29.1 39.9 29.75 M34.95 26.6 L34.95 26.55 34.9 26.4 34.65 25.3" fill="none" stroke="#f94816" stroke-linecap="round" stroke-linejoin="round" stroke-width="1.0"/>
      <path d="M41.65 30.75 L41.85 30.2 M41.25 32.55 L41.25 32.5 41.45 31.3 41.65 30.75 M41.4 33.9 L41.25 32.55 M41.7 34.75 L41.4 33.9 M46.5 37.1 L45.9 37.05 Q42.7 36.8 41.7 34.75 M48.25 36.95 L46.75 37.1 46.5 37.1" fill="none" stroke="#630013" stroke-linecap="round" stroke-linejoin="round" stroke-width="1.0"/>
      <path d="M41.85 30.2 L42.9 29.0 43.1 28.8" fill="none" stroke="#c4101c" stroke-linecap="round" stroke-linejoin="round" stroke-width="1.0"/>
      <path d="M45.25 34.2 L44.55 34.05 Q43.8 33.7 43.8 32.85 43.8 32.2 44.05 31.9 44.3 31.6 44.75 31.6 L45.35 31.8 45.8 32.7 M47.1 33.85 L47.55 33.4 47.95 32.75 48.15 32.4 48.5 31.7 48.55 31.55 48.6 31.55 M45.25 34.2 L45.45 34.25 45.95 34.25 47.1 33.85" fill="none" stroke="#fae653" stroke-linecap="round" stroke-linejoin="round" stroke-width="1.0"/>
      <path d="M50.6 35.05 L50.0 35.6 Q49.55 35.95 49.25 36.25 L49.05 36.4 48.95 36.5 48.25 36.95" fill="none" stroke="#d00b12" stroke-linecap="round" stroke-linejoin="round" stroke-width="1.0"/>
      <path d="M49.25 36.25 L49.25 36.3 48.75 38.3 48.65 38.55 48.6 38.8 48.25 40.1 48.0 41.1 47.95 41.95" fill="none" stroke="#7a0732" stroke-linecap="round" stroke-linejoin="round" stroke-width="1.0"/>
      <path d="M46.3 38.35 L46.5 37.1 M46.3 38.35 L46.1 39.55 45.75 41.3 46.2 41.95 46.45 42.15 M45.3 41.55 L43.8 42.0 M45.3 41.55 L45.75 41.3" fill="none" stroke="#4a000f" stroke-linecap="round" stroke-linejoin="round" stroke-width="1.0"/>
      <path d="M47.95 41.95 L48.15 41.45 48.3 40.9 M47.35 43.15 L47.95 41.95 M17.15 35.2 L17.1 35.8 Q17.1 37.3 17.35 38.6 17.8 40.65 18.85 42.1 L20.0 43.35 20.25 43.55 20.6 43.8 21.35 44.25 22.15 44.65 23.65 45.2 24.15 45.3 24.3 45.35 25.0 45.4 25.55 45.4 25.7 45.4 26.0 45.4 26.9 45.35 27.8 45.25 28.1 45.15 28.75 45.05 28.9 45.0 29.5 44.8 30.15 44.55 30.7 44.35 32.15 43.65 32.5 43.45 32.9 43.15 33.0 43.15 33.5 42.8 33.65 42.7 34.1 42.4 34.55 42.05 34.6 42.1 35.15 42.95 Q36.1 44.15 37.75 44.5 L38.3 44.6 38.4 44.6 39.2 44.65 41.85 44.4 42.3 44.3 43.85 43.6 44.1 43.45 44.25 43.35 44.35 43.45 44.45 43.5 44.7 43.7 45.15 44.0 46.25 44.65 46.3 44.65 46.4 44.7 46.65 44.4 46.9 44.0 47.25 43.35 47.3 43.3 47.35 43.15 M17.15 35.2 L17.15 35.1 M23.8 47.15 L23.95 47.0 24.85 46.2 25.55 45.55 25.7 45.4" fill="none" stroke="#e22213" stroke-linecap="round" stroke-linejoin="round" stroke-width="1.0"/>
      <path d="M48.3 40.9 L48.6 41.85 48.6 41.9 Q49.1 43.55 49.2 45.55 L49.25 46.4 49.25 46.9" fill="none" stroke="#c81518" stroke-linecap="round" stroke-linejoin="round" stroke-width="1.0"/>
      <path d="M44.45 43.5 L44.6 44.4 44.8 45.75 44.85 46.1 M46.2 46.2 L46.25 44.65" fill="none" stroke="#e72509" stroke-linecap="round" stroke-linejoin="round" stroke-width="1.0"/>
      <path d="M44.85 46.1 L44.95 46.55 45.05 47.7 45.0 50.4 44.9 51.05 44.85 51.4 M46.2 47.55 L46.15 46.6 46.2 46.2 M46.3 48.8 L46.25 48.3 46.25 47.95 46.25 47.8 46.2 47.55 M46.35 49.75 L46.35 49.1 46.3 48.8" fill="none" stroke="#f89212" stroke-linecap="round" stroke-linejoin="round" stroke-width="1.0"/>
      <path d="M49.25 46.9 L49.25 49.1 49.25 49.3 49.25 49.6 49.2 50.0" fill="none" stroke="#efcc26" stroke-linecap="round" stroke-linejoin="round" stroke-width="1.0"/>
      <path d="M35.9 3.1 L35.9 3.15 35.8 3.3 Q35.45 4.05 35.25 4.7 L34.65 6.85 34.7 6.9 35.4 8.15 35.8 8.8 M33.75 9.2 L33.8 8.5 33.8 7.45 33.8 7.05 33.8 6.75 33.8 6.0 M33.75 9.2 L33.3 8.6 33.2 8.5 32.8 8.0 32.65 7.8 32.35 7.45 29.55 4.55 29.35 4.55 28.7 4.7 M20.35 11.2 L20.2 12.45 20.15 12.85 M33.75 10.8 L33.75 10.55 33.75 9.2 M33.75 10.8 L33.8 11.35 33.8 11.75 M28.5 4.7 L26.2 5.4 25.6 5.6 25.1 5.8 22.35 6.95 22.2 7.05 21.35 7.4 20.85 7.6 20.75 8.45 20.6 9.45 20.35 11.2" fill="none" stroke="#fffa83" stroke-linecap="round" stroke-linejoin="round" stroke-width="1.0"/>
      <path d="M28.2 17.45 L28.1 17.4 M30.55 19.45 L30.15 19.05 30.1 19.0 28.2 17.45 M30.5 16.05 L30.25 17.4 30.1 18.85 30.1 19.0 M32.7 21.95 L31.55 20.55 31.25 20.2 31.05 19.95 30.55 19.45 M31.4 13.6 L31.35 13.7 30.8 15.0 30.5 16.05 M33.65 17.35 L33.55 18.0 33.5 18.45 33.35 19.2 33.3 19.7 33.25 20.1 33.1 21.8 33.1 22.25 33.1 22.45 33.0 22.3 32.7 21.95" fill="none" stroke="#ffd307" stroke-linecap="round" stroke-linejoin="round" stroke-width="1.0"/>
      <path d="M11.95 15.45 L12.0 15.55 12.1 15.85 13.0 17.85 13.45 18.6 14.2 19.4 14.5 19.7 15.65 20.75 16.45 21.35 16.95 21.7 17.75 22.25 18.05 22.4 19.15 22.7 20.0 22.75 21.5 22.35 Q22.1 21.95 22.1 21.35 22.1 20.8 21.45 20.3 L21.25 20.15 20.15 19.75 20.1 19.75 19.75 19.8 Q19.2 19.9 18.8 20.25 M16.0 24.0 L16.05 24.0 16.6 23.85 17.5 23.8 17.65 23.8 18.2 23.85 18.7 23.9 Q19.45 24.05 20.05 24.5 L20.2 24.6 Q21.2 25.4 21.2 26.65 L21.2 26.95 20.95 27.9 20.95 27.95" fill="none" stroke="#fffccb" stroke-linecap="round" stroke-linejoin="round" stroke-width="1.0"/>
      <path d="M7.5 14.55 L8.55 14.75 9.85 15.0 10.0 15.0 10.5 15.15 11.0 15.25 11.95 15.45 12.2 15.5 12.55 15.55 12.7 15.6 13.45 15.8 14.3 16.0 14.35 16.0 15.95 16.45 16.25 16.55 18.55 17.3 20.05 17.75 20.45 17.85 23.0 18.65 25.7 19.6 26.35 19.8 28.5 20.6 30.3 21.3 M7.15 19.85 L7.9 20.1 8.15 20.15 8.3 20.2 8.8 20.4 9.25 20.55 10.45 21.0 11.25 21.35 11.3 21.35 12.6 22.0 13.6 22.5 14.5 23.05 15.25 23.5 16.0 24.0 16.1 24.05 17.15 24.85 18.15 25.65 18.35 25.85 19.5 26.75 20.1 27.25 M20.95 27.9 L21.1 28.05 22.05 28.75 22.75 29.2 M3.95 19.0 L3.9 19.0 3.75 18.95 3.6 18.95 3.3 18.9 M5.55 19.4 L4.25 19.05 4.15 19.05 3.95 19.0 M6.35 19.6 L5.55 19.4 M7.15 19.85 L6.35 19.6" fill="none" stroke="#ffff9c" stroke-linecap="round" stroke-linejoin="round" stroke-width="1.0"/>
      <path d="M30.85 21.75 L31.4 21.95 M30.85 21.75 L29.1 21.65 Q27.5 21.8 25.95 23.4 24.55 24.85 24.2 26.5 L24.15 26.85 Q23.95 28.1 24.3 29.1" fill="none" stroke="#f7c025" stroke-linecap="round" stroke-linejoin="round" stroke-width="1.0"/>
      <path d="M31.4 21.95 L31.6 22.05 32.6 22.7 32.75 22.8 32.85 22.9 33.9 24.0 M24.3 29.1 L24.7 30.05 24.8 30.15 25.25 30.75 25.55 31.1" fill="none" stroke="#fd9301" stroke-linecap="round" stroke-linejoin="round" stroke-width="1.0"/>
      <path d="M30.3 21.3 L30.5 21.45 30.85 21.75 M21.1 28.05 L21.9 28.6 22.05 28.75 M22.75 29.2 L23.25 29.6 23.45 29.75 24.35 30.3 24.6 30.45 25.25 30.75 M21.1 28.05 L20.95 27.95 M20.95 27.9 L20.1 27.25" fill="none" stroke="#fece00" stroke-linecap="round" stroke-linejoin="round" stroke-width="1.0"/>
      <path d="M37.3 22.95 L37.4 23.55 37.65 24.7 37.95 25.85 38.2 26.6 M38.3 26.95 L38.35 27.0 38.4 27.15 M36.7 19.6 L37.3 22.95" fill="none" stroke="#ff9f01" stroke-linecap="round" stroke-linejoin="round" stroke-width="1.0"/>
      <path d="M-0.95 18.4 L-0.9 18.4 -0.25 18.5 0.6 18.6 M-0.95 14.2 L0.0 14.2 0.85 14.25 7.5 14.55 M3.3 18.9 L2.55 18.85 2.2 18.8 2.15 18.8 1.45 18.7" fill="none" stroke="#fffefb" stroke-linecap="round" stroke-linejoin="round" stroke-width="1.0"/>
      <path d="M-0.6 24.2 L-0.85 24.3 M3.6 18.95 L3.7 19.55 3.7 19.5 3.75 19.5 3.9 19.75 4.6 20.4 4.65 20.45 5.3 20.8 5.45 20.9 5.75 21.05 6.25 21.3 6.4 21.4 7.2 21.8 M2.75 21.75 L2.9 21.55 3.05 21.25 3.7 19.55 M-0.6 24.2 L1.05 23.35 1.3 23.25 1.55 23.05 2.75 21.75 M5.55 19.4 L5.75 19.5 6.35 19.6" fill="none" stroke="#fff99a" stroke-linecap="round" stroke-linejoin="round" stroke-width="1.0"/>
      <path d="M7.2 21.8 L7.25 21.85 7.35 21.85 7.95 22.1 8.25 22.2 9.0 22.45 9.35 22.55 10.75 23.25" fill="none" stroke="#fed12e" stroke-linecap="round" stroke-linejoin="round" stroke-width="1.0"/>
      <path d="M12.7 15.6 L13.0 15.45 13.5 15.2 14.25 14.8 M-0.5 36.8 L-0.8 36.7 -0.85 36.7 -0.95 36.7 M0.5 25.05 L-0.2 25.05 -0.5 25.1 -0.95 25.1 M0.5 25.05 L1.15 25.1 2.05 25.2 3.1 25.5 Q3.8 25.75 4.45 26.25 L5.75 27.85 M6.05 29.25 L6.05 29.3 M6.05 29.55 L6.0 29.95 M0.8 37.05 L2.35 37.1 M0.2 36.95 L-0.5 36.8" fill="none" stroke="#fffec5" stroke-linecap="round" stroke-linejoin="round" stroke-width="1.0"/>
      <path d="M11.1 23.45 L10.85 23.35 10.75 23.25 M14.3 26.25 L13.9 25.65 13.6 25.3 13.55 25.25 13.15 24.9 Q12.2 24.0 11.1 23.45" fill="none" stroke="#ff9927" stroke-linecap="round" stroke-linejoin="round" stroke-width="1.0"/>
      <path d="M17.15 24.85 Q16.1 26.15 16.1 28.15 L16.15 28.8 16.25 29.25 15.8 29.45 14.85 30.05 Q14.05 30.8 14.05 31.95 14.05 32.9 15.15 33.8 L16.1 34.5 16.85 34.95 17.15 35.1 17.35 35.2 M16.15 28.8 L15.95 28.55 15.8 28.35 14.45 26.5 14.4 26.45 14.3 26.25" fill="none" stroke="#e72b10" stroke-linecap="round" stroke-linejoin="round" stroke-width="1.0"/>
      <path d="M5.6 36.25 L7.1 35.85 8.3 35.6 10.75 35.2 11.25 35.15 11.7 35.15 M5.2 36.35 L5.25 36.35 5.6 36.25" fill="none" stroke="#ffab29" stroke-linecap="round" stroke-linejoin="round" stroke-width="1.0"/>
      <path d="M17.35 35.2 L17.15 35.2 16.1 35.15 13.7 35.15 12.55 35.15 11.7 35.15" fill="none" stroke="#f24b14" stroke-linecap="round" stroke-linejoin="round" stroke-width="1.0"/>
      <path d="M6.05 29.3 L6.05 29.55 M6.0 29.95 L5.45 31.2 4.95 31.75 4.35 32.15 4.3 32.2 M0.4 31.95 L-0.15 31.45 Q-0.75 30.85 -0.75 30.0 -0.75 29.5 -0.35 28.95 L-0.2 28.7 Q0.25 28.2 0.9 28.2 L0.95 28.2 1.45 28.25 2.0 28.45 Q2.9 28.8 2.9 29.45 L2.75 29.8 Q2.35 30.35 1.75 30.3 L1.45 30.2 1.3 30.15 0.8 30.0 M0.4 31.95 L1.25 32.4 2.15 32.6 2.45 32.6 2.65 32.6 4.2 32.25 4.25 32.2" fill="none" stroke="#ffff97" stroke-linecap="round" stroke-linejoin="round" stroke-width="1.0"/>
      <path d="M0.2 36.95 L0.7 37.05 0.8 37.05 1.5 37.15 2.35 37.1 3.2 37.0 3.4 36.95 4.1 36.75 4.5 36.65 5.05 36.4 5.2 36.35" fill="none" stroke="#f9e978" stroke-linecap="round" stroke-linejoin="round" stroke-width="1.0"/>
      <path d="M1.15 37.7 L0.7 37.45 0.15 37.15 -0.5 36.8 M1.65 38.0 L1.15 37.7 M7.85 46.85 L7.9 45.45 7.5 43.5 6.9 42.15 6.15 41.2 5.0 40.2 3.95 39.45 3.85 39.4 3.5 39.15 2.2 38.35 1.65 38.0" fill="none" stroke="#ffef40" stroke-linecap="round" stroke-linejoin="round" stroke-width="1.0"/>
      <path d="M-0.95 41.8 L-0.9 41.8 M-0.8 41.8 L-0.25 41.75 0.3 41.85 Q0.85 41.95 1.3 42.4 L1.45 42.55 1.55 42.65 1.7 42.85 1.9 43.2 2.05 43.6 2.1 43.7 2.1 43.75 2.25 44.75 2.2 45.25 2.2 45.35 1.75 46.55 1.6 46.75 1.45 46.9 0.95 47.15 0.75 47.2 0.3 47.25 0.1 47.25 -0.45 47.15 -0.5 47.15 -0.95 46.95 M0.0 44.95 L-0.05 44.9 -0.55 44.75 -0.95 44.85" fill="none" stroke="#ffd92d" stroke-linecap="round" stroke-linejoin="round" stroke-width="1.0"/>
      <path d="M12.1 46.35 L12.4 46.4 13.2 46.5 13.9 46.7 14.45 46.95 14.8 47.2 Q15.35 47.6 15.55 48.15 L15.7 49.0 15.7 49.15 15.5 50.05 15.45 50.2 15.1 50.65 14.9 50.85 14.3 51.2 14.25 51.2 13.4 51.35 12.95 51.4 12.4 51.35 11.5 51.0 11.15 50.75 Q10.8 50.4 10.8 50.0 10.8 49.65 11.15 49.25 L11.55 48.8 11.8 48.55 12.0 48.4 12.65 48.3 M12.1 46.35 L11.75 46.35 10.8 46.45 9.75 46.85 9.35 47.1 Q8.35 47.9 8.35 49.3 L8.35 50.15" fill="none" stroke="#ffeb96" stroke-linecap="round" stroke-linejoin="round" stroke-width="1.0"/>
      <path d="M41.25 32.55 L39.5 31.4 36.35 29.6 35.4 29.0 35.4 28.85 35.3 28.35 35.0 26.75 34.95 26.6" fill="none" stroke="#55000b" stroke-linecap="round" stroke-linejoin="round" stroke-width="1.0"/>
      <path d="M35.05 27.45 L35.0 26.95 35.0 26.75 M34.65 25.3 L33.9 24.0" fill="none" stroke="#ed3501" stroke-linecap="round" stroke-linejoin="round" stroke-width="1.0"/>
      <path d="M34.95 28.55 Q34.7 29.75 33.95 30.75 L33.65 31.1 32.4 32.15 31.45 32.6 30.45 32.8 M35.0 28.05 L35.05 27.45 M35.0 28.05 L34.95 28.55" fill="none" stroke="#c4131d" stroke-linecap="round" stroke-linejoin="round" stroke-width="1.0"/>
      <path d="M32.45 35.85 L32.45 35.75 32.55 35.4 Q32.9 34.8 34.15 34.75 L34.6 34.7 35.2 34.75 Q36.35 35.0 36.35 36.2 L36.1 37.15 M35.4 37.7 L34.85 37.85 33.95 37.9 33.9 37.9 32.6 37.8 31.35 37.4 31.2 37.3 30.95 37.15 30.85 37.1 30.4 36.8 30.15 36.6 30.05 36.5 29.45 35.8 Q28.8 34.95 28.5 33.85 L28.35 32.75 M35.4 37.7 L35.55 37.65 35.7 37.55 36.05 37.25" fill="none" stroke="#790018" stroke-linecap="round" stroke-linejoin="round" stroke-width="1.0"/>
      <path d="M30.45 32.8 L29.65 32.85 29.5 32.85 28.35 32.75 28.25 32.7 27.55 32.45 27.2 32.3" fill="none" stroke="#eb3203" stroke-linecap="round" stroke-linejoin="round" stroke-width="1.0"/>
      <path d="M25.55 31.1 L25.6 31.15 25.85 31.4 26.0 31.55 26.75 32.05 27.2 32.3" fill="none" stroke="#f85400" stroke-linecap="round" stroke-linejoin="round" stroke-width="1.0"/>
      <path d="M21.8 48.6 L20.7 49.75 20.4 50.0 M21.8 48.6 L21.85 48.55 22.9 47.75 23.5 47.3 23.8 47.15" fill="none" stroke="#ff9f29" stroke-linecap="round" stroke-linejoin="round" stroke-width="1.0"/>
      <path d="M35.0 51.55 L35.3 51.35 36.65 50.85 37.0 50.85 37.6 50.85 38.3 51.0 38.9 51.15 39.25 51.25 39.8 51.6 40.25 51.95 40.55 52.85 40.5 53.35 40.2 53.9 M38.3 52.65 L38.45 52.55 M38.1 52.9 L38.0 53.1 37.85 53.75 37.9 53.95 M35.0 51.55 L34.85 51.65 34.65 51.75 Q33.95 52.35 33.7 53.0 33.55 53.35 33.55 53.75 L33.55 53.8 33.55 53.95" fill="none" stroke="#f7e39a" stroke-linecap="round" stroke-linejoin="round" stroke-width="1.0"/>
      <path d="M28.7 50.75 L28.9 50.8 30.3 51.1 30.85 51.25 31.1 51.35 Q32.6 51.9 33.7 53.0 M28.7 50.75 L27.95 50.75 26.25 50.95 25.0 51.15 24.85 51.2 24.05 51.35 22.85 51.75 21.45 52.2 20.8 52.45" fill="none" stroke="#ffeb5b" stroke-linecap="round" stroke-linejoin="round" stroke-width="1.0"/>
      <path d="M8.65 51.2 L8.5 50.65 8.35 50.15 Q7.75 48.05 7.85 46.85 M18.1 52.65 L18.2 52.55 18.9 51.9 19.55 51.05 20.4 50.0 M20.8 52.45 L20.75 52.5 20.4 52.65 20.1 52.8 19.25 53.2 18.3 53.6 17.65 53.8 17.6 53.85 17.3 53.95 M16.3 53.95 L16.8 53.65 17.85 52.85 17.95 52.8 18.05 52.7 18.1 52.65 M10.05 53.5 Q9.0 52.65 8.65 51.2 M10.7 53.95 L10.05 53.5" fill="none" stroke="#fff6cb" stroke-linecap="round" stroke-linejoin="round" stroke-width="1.0"/>
      <path d="M-0.75 50.6 L-0.95 50.55 M-0.45 50.65 L-0.75 50.6 M0.25 50.75 L-0.25 50.7 -0.45 50.65 M0.7 50.75 L0.75 50.75 2.15 50.5 3.55 50.25 3.85 50.2 7.5 50.85 8.65 51.2 M0.7 50.75 L0.25 50.75" fill="none" stroke="#a60004" stroke-linecap="round" stroke-linejoin="round" stroke-width="1.0"/>
      <path d="M50.35 50.65 L50.8 51.7 50.85 51.75 50.85 51.85 Q51.15 52.6 50.85 53.15 L50.4 53.8 50.35 53.9 M47.45 53.5 L47.9 53.95 M47.45 53.5 L47.25 53.2 47.25 53.15 47.2 53.0" fill="none" stroke="#fff8b1" stroke-linecap="round" stroke-linejoin="round" stroke-width="1.0"/>
      <path d="M49.2 50.0 L49.3 49.95 49.8 50.1 50.35 50.65 M49.2 50.0 Q48.9 50.0 48.55 50.3 L48.5 50.35 48.45 50.4 Q47.9 50.8 47.9 51.4 L48.1 51.9 48.6 52.2 49.25 52.2" fill="none" stroke="#fff331" stroke-linecap="round" stroke-linejoin="round" stroke-width="1.0"/>
      <path d="M46.65 51.1 L46.6 50.95 46.35 49.75 M47.2 53.0 L46.85 52.0 46.7 51.35 46.65 51.1" fill="none" stroke="#f8bc0e" stroke-linecap="round" stroke-linejoin="round" stroke-width="1.0"/>
      <path d="M44.55 52.8 L44.65 52.35 44.8 51.85 44.85 51.4 M44.25 53.9 L44.25 53.85 44.55 52.8" fill="none" stroke="#ffe512" stroke-linecap="round" stroke-linejoin="round" stroke-width="1.0"/>
      <path d="M-0.95 37.85 L-0.6 37.85 -0.15 37.85 1.15 37.7" fill="none" stroke="#fef99d" stroke-linecap="round" stroke-linejoin="round" stroke-width="1.0"/>
      <path d="M-0.7 52.45 L-0.55 53.35 -0.45 53.95" fill="none" stroke="#3d0019" stroke-linecap="round" stroke-linejoin="round" stroke-width="1.0"/>
    </g>
    <g id="shape2" transform="matrix(1.0, 0.0, 0.0, 1.0, 0.0, 0.0)">
      <path d="M50.5 0.0 Q53.95 0.0 53.95 3.3 L53.95 50.15 Q53.95 53.4 50.5 53.4 L3.3 53.4 Q0.0 53.4 0.0 50.15 L0.0 3.3 Q0.0 0.0 3.3 0.0 L50.5 0.0" fill="#000000" fill-opacity="0.003921569" fill-rule="evenodd" stroke="none"/>
    </g>
  </defs>
</svg>
