<?xml version="1.0" encoding="UTF-8" standalone="no"?>
<svg xmlns:ffdec="https://www.free-decompiler.com/flash" xmlns:xlink="http://www.w3.org/1999/xlink" ffdec:objectType="frame" height="54.75px" width="55.2px" xmlns="http://www.w3.org/2000/svg">
  <g transform="matrix(1.0, 0.0, 0.0, 1.0, 0.5, 0.75)">
    <clipPath id="clipPath0" transform="matrix(1.0, 0.0, 0.0, 1.0, 0.0, 0.0)">
      <path d="M50.5 0.0 Q53.95 0.0 53.95 3.3 L53.95 50.15 Q53.95 53.4 50.5 53.4 L3.3 53.4 Q0.0 53.4 0.0 50.15 L0.0 3.3 Q0.0 0.0 3.3 0.0 L50.5 0.0" fill="#000000" fill-rule="evenodd" stroke="none"/>
    </clipPath>
    <g clip-path="url(#clipPath0)">
      <use ffdec:characterId="2" height="54.75" transform="matrix(1.0, 0.0, 0.0, 1.0, -0.5, -0.75)" width="55.2" xlink:href="#shape1"/>
    </g>
    <use ffdec:characterId="3" height="53.4" transform="matrix(1.0, 0.0, 0.0, 1.0, 0.0, 0.0)" width="53.95" xlink:href="#shape2"/>
  </g>
  <defs>
    <g id="shape1" transform="matrix(1.0, 0.0, 0.0, 1.0, 0.5, 0.75)">
      <path d="M33.2 -0.25 L33.95 -0.25 34.0 0.8 33.75 3.1 33.55 3.8 33.5 4.05 33.15 4.3 32.65 4.75 32.5 4.85 32.45 4.95 31.8 5.45 31.5 5.85 31.45 6.0 31.45 5.55 31.6 4.35 31.75 3.05 31.9 1.25 33.2 -0.25 M41.0 1.8 L41.9 1.3 Q41.85 3.65 40.15 6.15 L39.85 6.5 38.9 7.7 38.35 8.2 37.85 8.75 37.45 9.1 36.65 9.85 36.0 10.3 34.8 9.95 34.15 9.6 33.85 9.15 34.1 8.95 34.15 8.85 34.95 8.15 35.1 8.05 36.1 7.1 36.5 6.8 36.7 6.55 37.3 6.0 38.5 4.85 41.0 1.8 M48.65 44.0 L49.2 45.75 49.75 49.05 49.8 49.8 49.35 50.6 49.15 51.0 47.2 53.5 40.95 53.5 38.7 53.5 28.75 53.5 Q24.3 50.1 24.3 44.35 L24.35 43.3 Q24.45 41.2 25.2 39.9 25.6 39.05 26.45 38.15 27.85 36.65 30.2 34.9 L30.1 34.65 31.05 34.4 34.35 33.95 35.1 33.95 37.3 34.1 39.0 34.45 39.85 34.7 40.55 34.95 41.75 35.45 42.1 35.65 42.5 35.85 Q44.0 36.7 45.1 37.95 L45.3 37.75 45.3 37.8 Q46.9 39.85 47.95 42.2 L48.4 43.3 48.6 43.9 48.65 44.0 M37.9 11.9 L37.25 11.6 36.55 11.4 36.9 10.9 Q37.3 10.55 38.1 10.1 L38.8 9.7 Q39.8 9.15 40.5 9.0 L40.55 8.8 40.8 8.8 40.9 8.8 40.8 8.95 39.5 10.6 38.3 11.6 37.9 11.9 M41.6 17.55 L41.2 17.25 Q40.25 16.65 39.55 16.4 L36.55 16.25 Q35.8 16.45 35.2 17.0 L34.0 18.25 Q33.3 19.15 32.9 20.2 L32.7 20.9 Q32.3 22.45 32.65 23.95 33.05 25.35 34.15 26.25 L34.4 26.4 Q35.35 27.05 36.45 27.2 L36.85 27.25 36.9 27.25 Q38.2 27.4 39.3 26.75 L39.9 26.35 39.95 26.3 41.6 24.65 41.65 24.55 42.5 23.0 Q43.15 21.7 43.05 20.65 L42.9 19.8 43.05 20.4 Q43.55 22.3 43.55 24.45 L43.35 26.05 Q42.85 28.3 40.9 30.2 40.0 31.05 39.1 31.55 37.95 32.2 36.8 32.3 L36.8 32.25 36.5 32.3 36.4 32.3 35.2 32.45 34.95 32.5 34.35 32.55 33.85 32.55 31.5 32.4 29.6 32.1 27.7 31.65 26.3 31.25 23.85 30.4 23.3 30.2 22.4 29.75 22.3 29.7 22.05 29.6 21.8 29.5 20.55 28.75 20.5 28.7 19.15 27.55 19.1 27.5 17.95 26.15 17.05 24.6 17.05 24.55 Q16.3 23.0 16.05 21.05 L17.8 23.15 Q18.6 23.95 19.6 24.45 L20.45 24.8 20.85 24.9 21.1 24.95 21.8 25.1 23.35 25.05 Q24.7 24.75 25.75 23.7 L26.0 23.45 26.75 22.2 27.05 21.05 27.05 19.15 Q26.75 16.95 25.15 15.2 L25.1 15.15 24.3 14.3 25.1 15.15 25.15 15.2 24.65 14.9 24.3 14.3 24.1 14.05 21.7 12.05 Q20.4 11.3 19.1 11.2 20.6 9.65 22.5 8.95 24.35 8.2 26.65 8.2 28.4 8.2 30.7 8.95 L30.75 8.95 Q32.15 10.4 34.35 10.75 L34.45 10.8 34.5 10.9 34.55 11.15 34.15 11.1 33.75 11.15 Q33.05 11.25 32.7 11.9 L32.65 12.0 Q32.45 12.45 32.5 12.95 L32.5 13.4 Q32.7 14.25 33.65 15.0 L34.05 15.25 34.5 15.5 Q35.45 16.05 36.0 16.05 36.6 16.05 37.1 15.45 L37.6 14.4 37.55 14.0 37.3 13.65 37.4 13.55 37.25 13.3 36.9 12.75 37.05 12.8 37.4 12.45 38.55 13.3 39.2 13.9 39.6 14.3 40.1 14.9 40.2 15.15 40.7 15.95 41.25 16.95 41.6 17.55 M41.3 37.9 L41.15 37.75 Q40.6 37.3 39.9 37.3 L39.15 37.4 38.9 37.55 Q38.55 37.75 38.35 38.1 L38.1 38.85 38.05 39.75 38.05 39.95 Q38.05 41.05 39.3 41.6 L39.85 41.8 39.95 41.85 40.3 41.9 40.75 41.95 41.5 41.75 41.7 41.6 41.85 41.45 42.05 41.3 42.35 40.4 42.35 40.15 Q42.35 39.35 41.75 38.4 L41.65 38.3 41.3 37.9 M36.7 12.55 L36.7 12.5 36.9 12.55 36.8 12.65 36.7 12.55 M38.7 53.5 L38.4 52.4 38.35 52.2 Q38.35 51.6 38.5 51.4 L39.15 50.75 38.5 51.4 Q38.35 51.6 38.35 52.2 L38.4 52.4 38.7 53.5 M40.95 53.5 L41.25 51.95 41.25 51.7 41.25 51.6 Q41.2 50.5 40.75 49.95 40.3 49.35 39.3 49.3 L39.25 49.3 39.1 49.3 38.1 49.35 Q37.75 49.4 37.55 49.8 37.75 49.4 38.1 49.35 L39.1 49.3 39.25 49.3 39.3 49.3 Q40.3 49.35 40.75 49.95 41.2 50.5 41.25 51.6 L41.25 51.7 41.25 51.95 40.95 53.5" fill="#fefbc4" fill-rule="evenodd" stroke="none"/>
      <path d="M45.2 31.1 L46.1 31.1 52.4 31.7 53.4 31.95 54.2 32.2 54.2 38.4 53.35 38.1 53.3 38.1 51.35 37.5 50.9 37.35 50.05 37.05 Q43.05 34.6 43.05 33.3 43.05 32.0 45.2 31.1 M53.6 53.4 L53.7 53.5 52.75 53.5 53.0 53.4 53.6 53.4 M23.65 53.5 L21.4 53.5 Q21.8 52.75 21.8 51.8 21.8 50.4 20.65 49.0 L19.65 48.05 Q19.35 47.8 19.0 47.75 L18.8 47.75 18.3 47.75 18.1 48.2 18.15 48.4 Q17.5 48.7 17.4 49.2 17.25 49.7 17.45 51.25 L17.5 51.95 17.9 53.5 9.4 53.5 Q9.0 52.3 9.0 51.0 L9.05 50.45 Q9.85 50.3 10.2 49.8 10.55 49.45 10.6 48.7 L11.1 48.55 11.9 49.5 Q13.25 50.75 14.2 51.0 L14.4 51.0 Q15.15 50.95 15.7 50.4 16.5 49.65 16.5 48.4 16.5 47.15 16.05 46.1 L15.3 44.9 14.9 44.45 15.55 44.4 15.7 44.45 Q17.2 45.0 19.1 46.1 L19.55 46.4 20.45 47.0 21.8 48.2 Q23.35 49.85 23.65 51.95 L23.7 52.95 23.65 53.5 M0.0 38.55 L0.0 33.45 2.4 33.55 4.95 33.9 4.7 34.15 Q4.15 34.75 4.15 35.4 4.15 36.15 5.65 37.2 L6.4 37.65 8.25 38.55 9.75 38.9 9.9 38.9 11.05 38.6 Q11.5 38.25 11.5 37.5 L11.25 36.65 13.1 38.45 13.45 39.25 13.2 39.4 Q12.75 39.8 12.75 40.35 12.75 41.0 13.3 41.7 L12.45 42.45 Q11.6 43.1 10.8 43.3 L10.0 43.4 9.35 43.3 9.15 43.25 9.0 43.2 Q7.5 42.65 4.45 41.0 L3.4 40.4 1.4 39.3 0.0 38.55" fill="#4d241e" fill-rule="evenodd" stroke="none"/>
      <path d="M40.4 33.15 L41.75 32.2 Q43.2 31.25 45.2 31.1 43.05 32.0 43.05 33.3 43.05 34.6 50.05 37.05 L50.9 37.35 51.35 37.5 53.3 38.1 53.35 38.1 54.2 38.4 54.2 42.85 53.65 42.75 52.85 42.65 52.2 42.6 52.05 42.6 50.05 42.4 49.2 42.3 48.3 42.25 47.95 42.2 Q46.9 39.85 45.3 37.8 L45.3 37.75 42.75 35.05 42.4 34.75 41.9 34.3 41.35 33.85 40.8 33.45 40.4 33.15 M49.8 51.0 L49.85 51.0 Q50.65 51.45 51.25 51.85 L51.75 52.15 51.9 52.25 53.6 53.4 53.0 53.4 52.75 53.5 49.5 53.5 49.8 51.0 M9.4 53.5 L0.0 53.5 0.0 49.75 0.15 49.3 Q0.4 48.8 1.05 48.25 L4.85 49.0 5.25 49.05 6.45 49.15 6.75 49.35 Q8.0 50.3 8.75 50.35 L8.65 50.45 9.05 50.45 9.0 51.0 Q9.0 52.3 9.4 53.5 M14.5 44.1 L14.5 44.05 15.55 44.4 14.9 44.45 14.5 44.1" fill="#37140e" fill-rule="evenodd" stroke="none"/>
      <path d="M54.2 42.85 L54.2 44.45 53.3 44.1 53.1 44.0 52.6 43.75 52.1 43.55 51.75 43.6 49.8 43.9 49.35 43.95 48.7 44.0 48.65 44.0 48.6 43.9 48.4 43.3 47.95 42.2 48.3 42.25 49.2 42.3 50.05 42.4 52.05 42.6 52.2 42.6 52.85 42.65 53.65 42.75 54.2 42.85" fill="#290d09" fill-rule="evenodd" stroke="none"/>
      <path d="M44.3 20.6 Q44.5 23.6 43.9 26.15 L43.9 26.2 Q43.05 30.0 40.6 32.8 L40.45 33.0 40.35 33.0 40.3 33.05 40.3 33.1 40.4 33.15 40.8 33.45 41.35 33.85 41.9 34.3 42.4 34.75 42.75 35.05 45.3 37.75 45.1 37.95 Q44.0 36.7 42.5 35.85 L42.1 35.65 41.75 35.45 40.55 34.95 39.85 34.7 39.0 34.45 37.3 34.1 35.1 33.95 34.35 33.95 31.05 34.4 30.1 34.65 28.75 35.1 28.5 35.25 Q26.8 36.0 25.4 37.15 22.2 39.75 21.6 43.3 L21.4 45.2 Q21.4 46.75 21.8 48.2 L20.45 47.0 19.55 46.4 19.1 46.1 Q17.2 45.0 15.7 44.45 L15.55 44.4 14.5 44.05 14.55 43.3 14.55 43.15 14.5 42.7 15.5 42.9 16.05 42.7 16.2 42.6 16.35 42.35 16.5 41.95 16.25 40.9 Q17.6 39.3 17.9 37.05 L18.0 35.9 Q18.0 31.8 14.8 29.5 12.5 27.85 7.15 27.95 L5.05 28.1 Q5.95 22.55 8.25 17.5 L8.6 17.55 9.15 17.05 Q10.7 15.65 12.45 13.3 L13.45 11.9 14.65 9.9 14.95 9.45 15.8 7.65 15.85 7.35 16.3 7.05 16.35 7.0 Q18.9 5.35 22.0 4.45 L22.4 4.3 27.1 3.65 27.6 3.65 27.95 3.7 Q28.5 5.5 29.15 6.75 L30.35 8.55 30.4 8.6 Q26.75 7.5 22.45 7.3 L20.65 7.25 Q18.75 7.25 17.15 8.25 15.55 9.25 14.25 11.25 12.0 14.6 12.0 17.75 12.0 21.8 15.15 25.05 L15.2 25.1 15.3 25.2 Q16.8 26.7 18.9 28.0 L20.45 28.85 20.5 28.85 21.8 29.5 22.05 29.6 22.3 29.7 22.4 29.75 23.3 30.2 23.85 30.4 26.3 31.25 27.7 31.65 29.6 32.1 31.5 32.4 33.85 32.55 34.35 32.55 34.95 32.5 35.2 32.45 36.4 32.3 36.5 32.3 36.8 32.25 36.8 32.3 Q37.95 32.2 39.1 31.55 40.0 31.05 40.9 30.2 42.85 28.3 43.35 26.05 L43.55 24.45 Q43.55 22.3 43.05 20.4 L42.9 19.8 42.7 19.15 42.65 19.0 42.95 19.25 43.15 19.45 43.4 19.95 44.1 20.5 44.15 20.65 44.3 20.6 M49.8 49.8 L49.8 51.0 49.5 53.5 47.2 53.5 49.15 51.0 49.35 50.6 49.8 49.8 M25.1 53.5 L23.65 53.5 23.7 52.95 23.65 51.95 25.1 53.5 M33.5 5.1 L33.15 5.2 33.25 5.0 33.4 5.05 33.5 5.1" fill="#ebb39a" fill-rule="evenodd" stroke="none"/>
      <path d="M36.9 12.75 L37.25 13.3 37.4 13.55 37.3 13.65 37.55 14.0 37.6 14.4 37.1 15.45 Q36.6 16.05 36.0 16.05 35.45 16.05 34.5 15.5 L34.05 15.25 33.65 15.0 Q32.7 14.25 32.5 13.4 L32.5 12.95 Q32.45 12.45 32.65 12.0 L32.7 11.9 Q33.05 11.25 33.75 11.15 L34.15 11.1 34.55 11.15 34.65 11.45 35.3 12.05 36.1 12.4 36.7 12.65 36.7 12.55 36.8 12.65 36.75 12.65 36.9 12.75 M41.3 37.9 L41.65 38.3 41.75 38.4 Q42.35 39.35 42.35 40.15 L42.35 40.4 42.05 41.3 41.85 41.45 41.7 41.6 41.5 41.75 40.75 41.95 40.3 41.9 39.95 41.85 39.85 41.8 39.3 41.6 Q38.05 41.05 38.05 39.95 L38.05 39.75 38.1 38.85 38.35 38.1 Q38.55 37.75 38.9 37.55 L39.15 37.4 39.9 37.3 Q40.6 37.3 41.15 37.75 L41.3 37.9 M36.75 12.65 L36.7 12.65 36.75 12.65" fill="#feffff" fill-rule="evenodd" stroke="none"/>
      <path d="M28.75 53.5 L25.1 53.5 23.65 51.95 Q23.35 49.85 21.8 48.2 21.4 46.75 21.4 45.2 L21.6 43.3 Q22.2 39.75 25.4 37.15 26.8 36.0 28.5 35.25 L28.75 35.1 30.1 34.65 30.2 34.9 Q27.85 36.65 26.45 38.15 25.6 39.05 25.2 39.9 24.45 41.2 24.35 43.3 L24.3 44.35 Q24.3 50.1 28.75 53.5 M30.75 8.95 L30.7 8.95 Q28.4 8.2 26.65 8.2 24.35 8.2 22.5 8.95 20.6 9.65 19.1 11.2 L16.4 11.4 Q15.45 11.7 14.7 13.05 L14.7 13.1 Q13.55 15.95 14.7 18.8 L15.55 20.35 16.05 21.05 Q16.3 23.0 17.05 24.55 L17.05 24.6 17.95 26.15 19.1 27.5 19.15 27.55 20.5 28.7 20.55 28.75 20.5 28.85 20.45 28.85 18.9 28.0 Q16.8 26.7 15.3 25.2 L15.2 25.1 15.15 25.05 Q12.0 21.8 12.0 17.75 12.0 14.6 14.25 11.25 15.55 9.25 17.15 8.25 18.75 7.25 20.65 7.25 L22.45 7.3 Q26.75 7.5 30.4 8.6 L30.75 8.95" fill="#f8e8b7" fill-rule="evenodd" stroke="none"/>
      <path d="M40.15 6.15 L43.1 5.6 43.4 5.6 43.9 7.25 Q44.0 7.45 44.3 7.45 L44.55 7.4 44.8 7.4 45.35 7.4 45.55 7.45 Q46.2 7.6 47.4 8.25 L47.45 8.3 47.0 9.15 Q46.2 8.7 45.3 8.55 L44.6 8.55 44.4 8.55 Q43.25 8.6 42.45 9.9 41.8 10.9 41.8 12.2 L41.65 12.1 41.05 11.95 Q40.25 11.95 40.05 12.45 39.9 12.75 39.9 13.8 L39.9 13.9 40.0 14.4 40.15 14.9 40.2 15.15 40.1 14.9 39.6 14.3 39.2 13.9 38.55 13.3 37.4 12.45 37.9 11.9 38.3 11.6 39.5 10.6 40.8 8.95 40.9 8.8 40.8 8.8 40.55 8.8 38.35 8.75 37.85 8.75 38.35 8.2 38.9 7.7 39.85 6.5 40.15 6.15 M34.5 10.9 L34.45 10.8 34.5 10.8 34.5 10.9" fill="#361413" fill-rule="evenodd" stroke="none"/>
      <path d="M43.4 5.6 L44.5 5.55 45.4 5.6 45.9 5.65 Q47.7 5.95 48.75 7.1 L49.6 8.5 48.7 9.0 47.45 8.3 47.4 8.25 Q46.2 7.6 45.55 7.45 L45.35 7.4 44.8 7.4 44.55 7.4 44.3 7.45 Q44.0 7.45 43.9 7.25 L43.4 5.6" fill="#522520" fill-rule="evenodd" stroke="none"/>
      <path d="M41.8 12.2 Q41.8 10.9 42.45 9.9 43.25 8.6 44.4 8.55 L44.6 8.55 45.3 8.55 Q46.2 8.7 47.0 9.15 48.5 10.05 48.5 11.95 48.5 13.25 47.75 14.3 47.1 15.3 46.05 15.5 L45.4 14.6 43.75 14.45 43.7 14.5 Q43.7 13.9 42.75 12.95 L41.8 12.2" fill="#943926" fill-rule="evenodd" stroke="none"/>
      <path d="M41.8 12.2 L42.75 12.95 Q43.7 13.9 43.7 14.5 L43.75 14.45 45.4 14.6 46.05 15.5 46.1 15.8 Q46.1 16.45 45.4 17.55 44.8 18.5 44.1 18.7 L43.8 18.75 43.75 18.75 42.8 17.5 41.7 16.05 41.6 16.0 39.9 13.9 39.9 13.8 Q39.9 12.75 40.05 12.45 40.25 11.95 41.05 11.95 L41.65 12.1 41.8 12.2" fill="#b25c43" fill-rule="evenodd" stroke="none"/>
      <path d="M49.6 8.5 Q49.95 9.35 49.95 10.55 49.95 13.05 47.8 16.85 L46.25 19.2 45.75 19.85 44.4 20.55 44.3 20.6 44.15 20.65 44.1 20.5 43.4 19.95 43.15 19.45 42.95 19.25 43.35 18.7 43.75 18.75 43.8 18.75 44.1 18.7 Q44.8 18.5 45.4 17.55 46.1 16.45 46.1 15.8 L46.05 15.5 Q47.1 15.3 47.75 14.3 48.5 13.25 48.5 11.95 48.5 10.05 47.0 9.15 L47.45 8.3 48.7 9.0 49.6 8.5" fill="#311311" fill-rule="evenodd" stroke="none"/>
      <path d="M39.9 13.9 L41.6 16.0 41.7 16.05 42.8 17.5 43.75 18.75 43.35 18.7 42.95 19.25 42.65 19.0 42.55 18.7 Q42.25 18.05 41.6 17.55 L41.25 16.95 40.7 15.95 40.2 15.15 40.15 14.9 40.0 14.4 39.9 13.9" fill="#583321" fill-rule="evenodd" stroke="none"/>
      <path d="M0.0 33.45 L0.0 30.7 1.4 30.45 2.45 30.25 4.0 29.9 4.85 29.6 5.65 29.25 7.15 27.95 Q12.5 27.85 14.8 29.5 18.0 31.8 18.0 35.9 L17.9 37.05 Q17.6 39.3 16.25 40.9 L15.8 40.2 14.85 39.35 Q14.4 37.8 12.9 36.25 10.65 33.95 8.5 34.3 L6.25 33.95 4.2 33.6 3.25 33.5 3.1 33.5 2.4 33.55 0.0 33.45" fill="#36130d" fill-rule="evenodd" stroke="none"/>
      <path d="M0.0 30.7 L0.0 28.8 2.7 28.3 4.7 28.1 4.75 28.1 5.05 28.1 7.15 27.95 5.65 29.25 4.85 29.6 4.0 29.9 2.45 30.25 1.4 30.45 0.0 30.7 M11.25 36.65 L10.95 36.4 Q9.4 35.3 7.35 34.55 L6.95 34.45 6.2 34.2 4.95 33.9 2.4 33.55 3.1 33.5 3.25 33.5 4.2 33.6 6.25 33.95 8.5 34.3 Q10.65 33.95 12.9 36.25 14.4 37.8 14.85 39.35 L14.15 39.1 14.05 39.1 13.45 39.25 13.1 38.45 11.25 36.65" fill="#290e07" fill-rule="evenodd" stroke="none"/>
      <path d="M2.0 5.7 L2.55 4.6 3.05 3.95 3.55 3.4 Q4.3 2.7 5.25 2.2 L6.1 1.85 6.3 1.75 6.4 2.0 6.6 2.5 6.95 3.35 6.9 3.4 6.2 3.8 5.5 4.45 5.2 4.7 5.0 4.95 Q3.8 6.2 3.5 7.65 L3.4 8.75 3.5 9.9 3.55 10.05 Q3.95 11.6 5.4 12.7 L6.8 13.7 7.3 14.2 7.4 14.65 7.1 15.15 6.6 15.15 5.85 15.05 Q4.9 14.85 4.1 14.0 L3.85 13.75 3.4 13.05 Q2.6 11.85 2.25 10.15 L2.15 9.8 2.15 9.5 1.95 6.9 1.95 6.35 2.0 5.7 M19.1 11.2 Q20.4 11.3 21.7 12.05 L24.1 14.05 24.3 14.3 24.65 14.9 23.65 14.5 Q22.65 14.15 21.95 14.15 L20.7 14.4 20.45 14.55 Q19.95 15.0 19.95 15.9 L20.15 16.55 20.4 17.0 20.55 17.15 20.6 17.3 20.5 17.3 20.25 17.3 20.0 17.3 Q18.9 17.35 18.3 17.7 17.55 18.1 17.55 18.85 17.55 20.1 19.05 20.45 L19.35 20.45 19.55 21.15 19.75 21.5 20.35 22.25 20.6 22.5 21.0 22.8 21.25 23.0 Q22.1 23.6 22.8 23.6 L23.15 23.6 25.5 23.1 26.15 22.7 26.2 22.65 26.75 22.2 26.0 23.45 25.75 23.7 Q24.7 24.75 23.35 25.05 L21.8 25.1 21.1 24.95 20.85 24.9 20.45 24.8 19.6 24.45 Q18.6 23.95 17.8 23.15 L16.05 21.05 15.55 20.35 14.7 18.8 Q13.55 15.95 14.7 13.1 L14.7 13.05 Q15.45 11.7 16.4 11.4 L19.1 11.2" fill="#35140d" fill-rule="evenodd" stroke="none"/>
      <path d="M25.15 15.2 Q26.75 16.95 27.05 19.15 L27.05 21.05 26.75 22.2 26.2 22.65 26.15 22.7 25.5 23.1 23.15 23.6 22.8 23.6 Q22.1 23.6 21.25 23.0 L21.0 22.8 20.6 22.5 20.35 22.25 19.75 21.5 19.55 21.15 19.35 20.45 19.6 20.5 19.9 20.5 20.4 20.55 21.1 20.65 21.25 20.65 21.4 20.7 21.8 20.7 21.8 20.75 22.85 20.45 Q24.15 20.0 24.15 19.2 24.15 18.3 22.95 17.75 L22.65 17.65 21.5 17.35 21.15 17.35 20.6 17.3 20.55 17.15 20.4 17.0 20.15 16.55 19.95 15.9 Q19.95 15.0 20.45 14.55 L20.7 14.4 21.95 14.15 Q22.65 14.15 23.65 14.5 L24.65 14.9 25.15 15.2" fill="#371c15" fill-rule="evenodd" stroke="none"/>
      <path d="M20.6 17.3 L21.15 17.35 21.5 17.35 22.65 17.65 22.95 17.75 Q24.15 18.3 24.15 19.2 24.15 20.0 22.85 20.45 L21.8 20.75 21.8 20.7 21.4 20.7 21.25 20.65 21.1 20.65 20.4 20.55 19.9 20.5 19.6 20.5 19.35 20.45 19.05 20.45 Q17.55 20.1 17.55 18.85 17.55 18.1 18.3 17.7 18.9 17.35 20.0 17.3 L20.25 17.3 20.5 17.3 20.6 17.3 M22.6 19.25 L22.35 18.9 21.5 18.7 21.15 18.65 20.5 18.65 20.2 18.65 19.95 18.65 19.8 18.65 Q19.4 18.7 19.25 18.9 L19.15 19.1 19.4 19.55 19.55 19.7 19.65 19.75 20.0 19.85 20.4 19.9 20.85 19.9 21.15 19.9 21.25 19.9 21.45 19.9 22.1 19.8 22.55 19.7 22.6 19.25" fill="#e1002a" fill-rule="evenodd" stroke="none"/>
      <path d="M22.6 19.25 L22.55 19.7 22.1 19.8 21.45 19.9 21.25 19.9 21.15 19.9 20.85 19.9 20.4 19.9 20.0 19.85 19.65 19.75 19.55 19.7 19.4 19.55 19.15 19.1 19.25 18.9 Q19.4 18.7 19.8 18.65 L19.95 18.65 20.2 18.65 20.5 18.65 21.15 18.65 21.5 18.7 22.35 18.9 22.6 19.25 M37.35 22.1 L37.85 22.2 38.05 22.3 38.25 22.4 Q38.9 22.7 39.0 22.95 L39.2 23.25 39.15 23.3 39.05 23.35 38.5 23.35 38.15 23.35 37.75 23.25 37.35 23.1 37.2 23.05 36.95 22.95 36.9 22.85 36.7 22.55 36.85 22.25 36.95 22.2 37.2 22.1 37.35 22.1" fill="#c50326" fill-rule="evenodd" stroke="none"/>
      <path d="M31.9 1.25 L31.75 3.05 31.6 4.35 31.45 5.55 31.45 6.0 31.5 5.85 31.8 5.45 32.45 4.95 32.5 4.85 32.65 4.75 33.15 4.3 33.5 4.05 33.25 5.0 33.15 5.2 33.5 5.1 33.7 5.0 34.9 4.55 35.6 4.3 36.9 3.75 37.0 3.7 41.0 1.8 38.5 4.85 37.3 6.0 36.7 6.55 36.5 6.8 36.1 7.1 35.1 8.05 34.95 8.15 34.15 8.85 34.1 8.95 33.85 9.15 34.15 9.6 34.8 9.95 36.0 10.3 36.65 9.85 37.45 9.1 37.85 8.75 38.35 8.75 40.55 8.8 40.5 9.0 Q39.8 9.15 38.8 9.7 L38.1 10.1 Q37.3 10.55 36.9 10.9 L36.55 11.4 37.25 11.6 37.9 11.9 37.25 12.35 36.9 12.55 37.25 12.35 37.9 11.9 37.4 12.45 37.05 12.8 36.9 12.75 36.75 12.65 36.8 12.65 36.9 12.55 36.7 12.5 36.7 12.55 36.7 12.65 36.1 12.4 35.3 12.05 34.65 11.45 34.55 11.15 34.5 10.9 34.5 10.8 34.45 10.8 34.35 10.75 Q32.15 10.4 30.75 8.95 L30.4 8.6 30.35 8.55 29.15 6.75 Q28.5 5.5 27.95 3.7 L27.9 3.6 28.95 3.2 31.3 1.7 31.9 1.25 M35.25 10.8 L36.0 10.3 35.25 10.8" fill="#eab49a" fill-rule="evenodd" stroke="none"/>
      <path d="M39.9 26.35 L39.3 26.75 Q38.2 27.4 36.9 27.25 L36.85 27.25 36.45 27.2 Q35.35 27.05 34.4 26.4 L34.15 26.25 Q33.05 25.35 32.65 23.95 32.3 22.45 32.7 20.9 L32.9 20.2 Q33.3 19.15 34.0 18.25 L35.2 17.0 Q35.8 16.45 36.55 16.25 L39.55 16.4 Q40.25 16.65 41.2 17.25 L41.6 17.55 Q42.25 18.05 42.55 18.7 L42.65 19.0 42.7 19.15 40.95 20.15 40.15 20.35 39.55 20.45 39.35 20.5 38.9 20.55 Q38.4 20.7 38.0 21.0 L37.8 21.15 37.55 21.15 37.25 21.1 37.0 21.1 35.75 21.3 Q34.8 21.55 34.8 22.4 34.8 23.6 36.55 23.95 L36.8 24.0 36.85 24.0 36.8 25.3 36.9 25.7 37.2 26.1 Q37.45 26.35 37.85 26.45 L38.3 26.55 38.65 26.55 38.95 26.55 39.3 26.5 39.4 26.5 39.9 26.35" fill="#3f1e15" fill-rule="evenodd" stroke="none"/>
      <path d="M42.9 19.8 L43.05 20.65 Q43.15 21.7 42.5 23.0 L41.65 24.55 41.6 24.65 39.95 26.3 39.9 26.35 39.4 26.5 39.3 26.5 38.95 26.55 38.65 26.55 38.3 26.55 37.85 26.45 Q37.45 26.35 37.2 26.1 L36.9 25.7 36.8 25.3 36.85 24.0 37.0 24.05 37.75 24.1 38.2 24.1 39.1 24.05 39.25 24.0 39.45 23.95 39.85 23.7 40.05 23.5 Q40.45 23.1 40.45 22.7 40.45 22.15 40.1 21.8 L39.55 21.45 39.35 21.35 39.3 21.35 38.0 21.15 37.8 21.15 38.0 21.0 Q38.4 20.7 38.9 20.55 L39.35 20.5 39.55 20.45 40.15 20.35 40.95 20.15 42.7 19.15 42.9 19.8" fill="#441f19" fill-rule="evenodd" stroke="none"/>
      <path d="M36.85 24.0 L36.8 24.0 36.55 23.95 Q34.8 23.6 34.8 22.4 34.8 21.55 35.75 21.3 L37.0 21.1 37.25 21.1 37.55 21.15 37.8 21.15 38.0 21.15 39.3 21.35 39.35 21.35 39.55 21.45 40.1 21.8 Q40.45 22.15 40.45 22.7 40.45 23.1 40.05 23.5 L39.85 23.7 39.45 23.95 39.25 24.0 39.1 24.05 38.2 24.1 37.75 24.1 37.0 24.05 36.85 24.0 M37.35 22.1 L37.2 22.1 36.95 22.2 36.85 22.25 36.7 22.55 36.9 22.85 36.95 22.95 37.2 23.05 37.35 23.1 37.75 23.25 38.15 23.35 38.5 23.35 39.05 23.35 39.15 23.3 39.2 23.25 39.0 22.95 Q38.9 22.7 38.25 22.4 L38.05 22.3 37.85 22.2 37.35 22.1" fill="#dc002b" fill-rule="evenodd" stroke="none"/>
      <path d="M21.4 53.5 L17.9 53.5 17.5 51.95 17.45 51.25 Q17.25 49.7 17.4 49.2 17.5 48.7 18.15 48.4 L18.1 48.2 18.3 47.75 18.8 47.75 19.0 47.75 Q19.35 47.8 19.65 48.05 L20.65 49.0 Q21.8 50.4 21.8 51.8 21.8 52.75 21.4 53.5" fill="#5f322d" fill-rule="evenodd" stroke="none"/>
      <path d="M4.95 33.9 L6.2 34.2 6.95 34.45 7.35 34.55 Q9.4 35.3 10.95 36.4 L11.25 36.65 11.5 37.5 Q11.5 38.25 11.05 38.6 L9.9 38.9 9.75 38.9 8.25 38.55 6.4 37.65 5.65 37.2 Q4.15 36.15 4.15 35.4 4.15 34.75 4.7 34.15 L4.95 33.9 M6.4 35.4 Q5.9 35.4 5.3 35.7 5.4 36.3 6.0 36.7 L6.95 37.0 7.5 37.0 7.9 36.8 8.0 36.45 7.8 36.05 7.2 35.7 6.4 35.4" fill="#622f2b" fill-rule="evenodd" stroke="none"/>
      <path d="M6.4 35.4 L7.2 35.7 7.8 36.05 8.0 36.45 7.9 36.8 7.5 37.0 6.95 37.0 6.0 36.7 Q5.4 36.3 5.3 35.7 5.9 35.4 6.4 35.4" fill="#814c46" fill-rule="evenodd" stroke="none"/>
      <path d="M1.05 48.25 L0.0 48.0 0.0 38.55 1.4 39.3 3.4 40.4 4.45 41.0 Q7.5 42.65 9.0 43.2 L9.15 43.25 9.35 43.3 10.0 43.4 10.8 43.3 Q11.6 43.1 12.45 42.45 L13.3 41.7 13.35 41.75 13.6 42.05 14.5 42.7 14.55 43.15 14.55 43.3 14.5 44.05 14.5 44.1 Q13.55 43.35 12.35 43.35 L11.3 43.6 10.65 44.2 Q10.2 44.95 10.2 46.0 L10.25 46.55 9.6 45.55 Q8.75 44.6 7.55 44.6 L7.5 44.6 Q6.3 44.6 5.75 45.15 5.2 45.7 5.2 46.9 5.2 48.0 6.3 49.0 L6.45 49.15 5.25 49.05 4.85 49.0 1.05 48.25 M10.6 48.7 L10.6 48.35 10.55 47.6 11.1 48.55 10.6 48.7" fill="#39140e" fill-rule="evenodd" stroke="none"/>
      <path d="M11.3 43.6 L12.35 43.35 Q13.55 43.35 14.5 44.1 L14.9 44.45 15.3 44.9 16.05 46.1 15.9 47.8 Q15.7 48.55 15.15 48.55 14.1 48.55 13.55 47.8 L13.2 47.2 12.8 46.15 12.2 44.4 Q11.85 43.8 11.3 43.6" fill="#e6dead" fill-rule="evenodd" stroke="none"/>
      <path d="M13.45 39.25 L14.05 39.1 14.15 39.1 14.1 39.65 14.3 40.8 14.75 41.55 14.95 41.75 15.15 41.95 Q15.65 42.35 16.35 42.35 L16.2 42.6 16.05 42.7 15.5 42.9 14.5 42.7 13.6 42.05 13.35 41.75 13.3 41.7 Q12.75 41.0 12.75 40.35 12.75 39.8 13.2 39.4 L13.45 39.25 M6.45 49.15 L6.3 49.0 Q5.2 48.0 5.2 46.9 5.2 45.7 5.75 45.15 6.3 44.6 7.5 44.6 L7.45 45.15 Q7.45 45.85 8.35 46.85 9.2 47.8 9.8 47.8 L10.55 47.6 10.25 46.55 10.2 46.0 Q10.2 44.95 10.65 44.2 L11.3 43.6 Q11.85 43.8 12.2 44.4 L12.8 46.15 13.2 47.2 13.55 47.8 Q14.1 48.55 15.15 48.55 15.7 48.55 15.9 47.8 L16.05 46.1 Q16.5 47.15 16.5 48.4 16.5 49.65 15.7 50.4 15.15 50.95 14.4 51.0 L14.2 51.0 Q13.25 50.75 11.9 49.5 L11.1 48.55 10.55 47.6 10.6 48.35 10.6 48.7 Q10.55 49.45 10.2 49.8 9.85 50.3 9.05 50.45 L8.65 50.45 8.75 50.35 Q8.0 50.3 6.75 49.35 L6.45 49.15" fill="#e9b399" fill-rule="evenodd" stroke="none"/>
      <path d="M14.15 39.1 L14.85 39.35 15.8 40.2 16.25 40.9 16.5 41.95 16.35 42.35 Q15.65 42.35 15.15 41.95 L14.95 41.75 14.75 41.55 14.3 40.8 14.1 39.65 14.15 39.1 M7.5 44.6 L7.55 44.6 Q8.75 44.6 9.6 45.55 L10.25 46.55 10.55 47.6 9.8 47.8 Q9.2 47.8 8.35 46.85 7.45 45.85 7.45 45.15 L7.5 44.6" fill="#eaf2b9" fill-rule="evenodd" stroke="none"/>
      <path d="M6.3 1.75 L9.95 1.1 10.85 1.05 Q13.35 1.05 15.2 3.35 L15.5 3.8 15.95 5.4 Q15.7 4.75 15.55 4.95 15.25 5.35 14.85 5.4 L14.2 4.15 Q12.95 2.5 10.0 2.5 L7.8 2.95 6.95 3.35 6.6 2.5 6.4 2.0 6.3 1.75" fill="#4f2c26" fill-rule="evenodd" stroke="none"/>
      <path d="M8.25 17.5 Q6.3 17.1 5.0 16.3 3.2 15.2 2.25 13.6 L1.7 12.3 Q1.3 11.1 1.3 9.75 L1.3 9.65 Q1.3 7.7 1.8 6.2 L2.0 5.7 1.95 6.35 1.95 6.9 2.15 9.5 2.15 9.8 2.25 10.15 Q2.6 11.85 3.4 13.05 L3.85 13.75 4.1 14.0 Q4.9 14.85 5.85 15.05 L6.6 15.15 7.1 15.15 7.4 14.65 7.3 14.2 6.8 13.7 7.25 13.25 7.75 13.4 8.85 13.05 10.2 12.25 10.55 11.95 11.0 11.5 11.45 11.0 11.7 10.75 11.7 10.7 12.95 8.75 13.3 7.75 13.4 7.0 Q13.4 6.3 13.05 6.05 L12.6 5.85 12.1 5.9 12.3 4.85 Q12.3 3.05 10.0 3.0 L10.0 2.5 Q12.95 2.5 14.2 4.15 L14.85 5.4 Q15.25 5.35 15.55 4.95 15.7 4.75 15.95 5.4 L16.1 5.85 16.1 5.95 16.15 6.05 16.1 6.0 16.1 6.05 16.05 6.15 16.1 6.45 15.9 7.15 15.85 7.35 15.8 7.65 14.95 9.45 14.65 9.9 13.45 11.9 12.45 13.3 Q10.7 15.65 9.15 17.05 L8.6 17.55 8.25 17.5 M15.95 5.4 L16.1 6.05 15.95 5.4 M16.15 5.7 L16.1 4.7 16.15 5.55 16.15 5.7" fill="#250a13" fill-rule="evenodd" stroke="none"/>
      <path d="M10.0 3.0 Q12.3 3.05 12.3 4.85 L12.1 5.9 11.55 6.0 9.9 6.95 9.0 7.9 8.65 8.3 8.4 8.75 7.45 10.5 7.25 10.95 7.05 11.7 6.15 11.2 5.45 10.45 Q4.95 9.75 4.85 8.7 L4.85 8.25 Q4.85 6.95 5.6 5.55 L5.8 5.25 5.95 5.0 6.55 4.3 7.15 3.75 8.2 3.25 9.8 3.0 10.0 3.0" fill="#923927" fill-rule="evenodd" stroke="none"/>
      <path d="M12.1 5.9 L12.6 5.85 13.05 6.05 Q13.4 6.3 13.4 7.0 L13.3 7.75 12.95 8.75 11.7 10.7 11.7 10.75 11.45 11.0 11.0 11.5 10.55 11.95 10.2 12.25 8.85 13.05 7.75 13.4 7.25 13.25 Q6.95 13.0 6.95 12.6 L7.05 11.7 7.25 10.95 7.45 10.5 8.4 8.75 8.65 8.3 9.0 7.9 9.9 6.95 11.55 6.0 12.1 5.9" fill="#a75c3d" fill-rule="evenodd" stroke="none"/>
      <path d="M10.0 2.5 L10.0 3.0 9.8 3.0 8.2 3.25 7.15 3.75 6.55 4.3 5.95 5.0 5.8 5.25 5.6 5.55 Q4.85 6.95 4.85 8.25 L4.85 8.7 Q4.95 9.75 5.45 10.45 L6.15 11.2 7.05 11.7 6.95 12.6 Q6.95 13.0 7.25 13.25 L6.8 13.7 5.4 12.7 Q3.95 11.6 3.55 10.05 L3.5 9.9 3.4 8.75 3.5 7.65 Q3.8 6.2 5.0 4.95 L5.2 4.7 5.5 4.45 6.2 3.8 6.9 3.4 6.95 3.35 7.8 2.95 10.0 2.5" fill="#341510" fill-rule="evenodd" stroke="none"/>
      <path d="M54.1 50.4 L54.2 50.0 54.2 51.5 54.15 51.25 54.1 50.6 54.1 50.4" fill="#c9917a" fill-rule="evenodd" stroke="none"/>
      <path d="M40.15 6.15 L43.1 5.6 43.4 5.6 44.5 5.55 45.4 5.6 45.9 5.65 Q47.7 5.95 48.75 7.1 L49.6 8.5 Q49.95 9.35 49.95 10.55 49.95 13.05 47.8 16.85 L46.25 19.2 45.75 19.85 44.4 20.55 M40.4 33.15 L41.75 32.2 Q43.2 31.25 45.2 31.1 L46.1 31.1 52.4 31.7 53.4 31.95 54.2 32.2 M54.2 44.45 L53.3 44.1 53.1 44.0 52.6 43.75 52.1 43.55 51.75 43.6 49.8 43.9 49.35 43.95 48.7 44.0 48.65 44.0 M49.8 51.0 L49.85 51.0 Q50.65 51.45 51.25 51.85 L51.75 52.15 51.9 52.25 53.6 53.4 53.7 53.5 M0.0 49.75 L0.15 49.3 Q0.4 48.8 1.05 48.25 L0.0 48.0 M0.0 28.8 L2.7 28.3 4.7 28.1 4.75 28.1 5.05 28.1 7.15 27.95 Q12.5 27.85 14.8 29.5 18.0 31.8 18.0 35.9 L17.9 37.05 Q17.6 39.3 16.25 40.9 M8.25 17.5 Q6.3 17.1 5.0 16.3 3.2 15.2 2.25 13.6 L1.7 12.3 Q1.3 11.1 1.3 9.75 L1.3 9.65 Q1.3 7.7 1.8 6.2 L2.0 5.7 2.55 4.6 3.05 3.95 3.55 3.4 Q4.3 2.7 5.25 2.2 L6.1 1.85 6.3 1.75 9.95 1.1 10.85 1.05 Q13.35 1.05 15.2 3.35 L15.5 3.8 15.95 5.4 16.1 6.05 16.15 6.25 16.15 6.35 16.35 7.0 M39.9 26.35 L39.3 26.75 Q38.2 27.4 36.9 27.25 L36.85 27.25 36.45 27.2 Q35.35 27.05 34.4 26.4 L34.15 26.25 Q33.05 25.35 32.65 23.95 32.3 22.45 32.7 20.9 L32.9 20.2 Q33.3 19.15 34.0 18.25 L35.2 17.0 Q35.8 16.45 36.55 16.25 L39.55 16.4 Q40.25 16.65 41.2 17.25 L41.6 17.55 Q42.25 18.05 42.55 18.7 L42.65 19.0 42.7 19.15 42.9 19.8 43.05 20.65 Q43.15 21.7 42.5 23.0 L41.65 24.55 41.6 24.65 39.95 26.3 39.9 26.35 M19.1 11.2 Q20.4 11.3 21.7 12.05 L24.1 14.05 24.3 14.3 25.1 15.15 25.15 15.2 Q26.75 16.95 27.05 19.15 L27.05 21.05 26.75 22.2 26.0 23.45 25.75 23.7 Q24.7 24.75 23.35 25.05 L21.8 25.1 21.1 24.95 20.85 24.9 20.45 24.8 19.6 24.45 Q18.6 23.95 17.8 23.15 L16.05 21.05 15.55 20.35 14.7 18.8 Q13.55 15.95 14.7 13.1 L14.7 13.05 Q15.45 11.7 16.4 11.4 L19.1 11.2 M24.3 14.3 L24.65 14.9 M8.25 17.5 L8.6 17.55 M11.25 36.65 L10.95 36.4 Q9.4 35.3 7.35 34.55 L6.95 34.45 6.2 34.2 4.95 33.9 2.4 33.55 0.0 33.45 M11.25 36.65 L13.1 38.45 13.45 39.25 M1.05 48.25 L4.85 49.0 5.25 49.05 6.45 49.15 M14.5 44.1 L14.5 44.05 14.55 43.3 14.55 43.15 14.5 42.7 M10.6 48.7 L11.1 48.55 M15.7 44.45 Q17.2 45.0 19.1 46.1 L19.55 46.4 20.45 47.0 21.8 48.2 Q23.35 49.85 23.65 51.95 L23.7 52.95 23.65 53.5 M15.55 44.4 L14.5 44.05" fill="none" stroke="#330000" stroke-linecap="round" stroke-linejoin="round" stroke-width="1.0"/>
      <path d="M33.2 -0.25 L31.9 1.25 31.3 1.7 28.95 3.2 27.9 3.6 27.6 3.65 27.1 3.65 M33.5 4.05 L33.55 3.8 33.75 3.1 34.0 0.8 33.95 -0.25 M41.0 1.8 L41.9 1.3 Q41.85 3.65 40.15 6.15 L39.85 6.5 38.9 7.7 38.35 8.2 37.85 8.75 37.45 9.1 36.65 9.85 36.0 10.3 35.25 10.8 M37.9 11.9 L38.3 11.6 39.5 10.6 40.8 8.95 40.9 8.8 40.8 8.8 40.55 8.8 38.35 8.75 37.85 8.75 M41.0 1.8 L37.0 3.7 36.9 3.75 35.6 4.3 34.9 4.55 33.7 5.0 33.5 5.1 33.15 5.2 33.25 5.0 33.5 4.05 M36.7 12.65 L36.7 12.55 36.7 12.5 36.9 12.55 37.25 12.35 37.9 11.9 M36.75 12.65 L36.8 12.65 36.9 12.55 M36.7 12.65 L36.75 12.65" fill="none" stroke="#b3564e" stroke-linecap="round" stroke-linejoin="round" stroke-width="1.0"/>
      <path d="M44.3 20.6 Q44.5 23.6 43.9 26.15 L43.9 26.2 Q43.05 30.0 40.6 32.8 L40.45 33.0 M40.35 33.0 L40.3 33.05 40.3 33.1 40.4 33.15 40.8 33.45 41.35 33.85 41.9 34.3 42.4 34.75 42.75 35.05 45.3 37.75 45.3 37.8 Q46.9 39.85 47.95 42.2 L48.4 43.3 48.6 43.9 48.65 44.0 49.2 45.75 49.75 49.05 49.8 49.8 49.8 51.0 49.5 53.5 M5.05 28.1 Q5.95 22.55 8.25 17.5 M16.35 7.0 Q18.9 5.35 22.0 4.45 L22.4 4.3 27.1 3.65 M33.5 5.1 L33.4 5.05 33.25 5.0 M27.95 3.7 L27.6 3.65 M15.85 7.35 L16.3 7.05 16.35 7.0" fill="none" stroke="#9a6c52" stroke-linecap="round" stroke-linejoin="round" stroke-width="1.0"/>
      <path d="M13.45 39.25 L14.05 39.1 14.15 39.1 14.85 39.35 15.8 40.2 16.25 40.9 16.5 41.95 16.35 42.35 16.2 42.6 16.05 42.7 15.5 42.9 14.5 42.7 13.6 42.05 13.35 41.75 13.3 41.7 Q12.75 41.0 12.75 40.35 12.75 39.8 13.2 39.4 L13.45 39.25 M6.45 49.15 L6.3 49.0 Q5.2 48.0 5.2 46.9 5.2 45.7 5.75 45.15 6.3 44.6 7.5 44.6 L7.55 44.6 Q8.75 44.6 9.6 45.55 L10.25 46.55 10.2 46.0 Q10.2 44.95 10.65 44.2 L11.3 43.6 12.35 43.35 Q13.55 43.35 14.5 44.1 L14.9 44.45 15.3 44.9 16.05 46.1 Q16.5 47.15 16.5 48.4 16.5 49.65 15.7 50.4 15.15 50.95 14.4 51.0 L14.2 51.0 Q13.25 50.75 11.9 49.5 L11.1 48.55 10.55 47.6 10.25 46.55 M6.45 49.15 L6.75 49.35 Q8.0 50.3 8.75 50.35 L8.65 50.45 9.05 50.45 Q9.85 50.3 10.2 49.8 10.55 49.45 10.6 48.7 L10.6 48.35 10.55 47.6" fill="none" stroke="#4c1713" stroke-linecap="round" stroke-linejoin="round" stroke-width="1.0"/>
      <path d="M37.55 49.8 Q37.75 49.4 38.1 49.35 L39.1 49.3 39.25 49.3 39.3 49.3 Q40.3 49.35 40.75 49.95 41.2 50.5 41.25 51.6 L41.25 51.7 41.25 51.95 40.95 53.5 M39.15 50.75 L38.5 51.4 Q38.35 51.6 38.35 52.2 L38.4 52.4 38.7 53.5" fill="none" stroke="#c8b888" stroke-linecap="round" stroke-linejoin="round" stroke-width="1.0"/>
    </g>
    <g id="shape2" transform="matrix(1.0, 0.0, 0.0, 1.0, 0.0, 0.0)">
      <path d="M50.5 0.0 Q53.95 0.0 53.95 3.3 L53.95 50.15 Q53.95 53.4 50.5 53.4 L3.3 53.4 Q0.0 53.4 0.0 50.15 L0.0 3.3 Q0.0 0.0 3.3 0.0 L50.5 0.0" fill="#000000" fill-opacity="0.003921569" fill-rule="evenodd" stroke="none"/>
    </g>
  </defs>
</svg>
