<?xml version="1.0" encoding="UTF-8" standalone="no"?>
<svg xmlns:ffdec="https://www.free-decompiler.com/flash" xmlns:xlink="http://www.w3.org/1999/xlink" ffdec:objectType="frame" height="53.45px" width="54.95px" xmlns="http://www.w3.org/2000/svg">
  <g transform="matrix(1.0, 0.0, 0.0, 1.0, 0.5, 0.05)">
    <clipPath id="clipPath0" transform="matrix(1.0, 0.0, 0.0, 1.0, 0.0, 0.0)">
      <path d="M50.5 0.0 Q53.95 0.0 53.95 3.3 L53.95 50.15 Q53.95 53.4 50.5 53.4 L3.3 53.4 Q0.0 53.4 0.0 50.15 L0.0 3.3 Q0.0 0.0 3.3 0.0 L50.5 0.0" fill="#000000" fill-rule="evenodd" stroke="none"/>
    </clipPath>
    <g clip-path="url(#clipPath0)">
      <use ffdec:characterId="2" height="53.1" transform="matrix(1.0, 0.0, 0.0, 1.0, -0.5, -0.05)" width="54.95" xlink:href="#shape1"/>
    </g>
    <use ffdec:characterId="3" height="53.4" transform="matrix(1.0, 0.0, 0.0, 1.0, 0.0, 0.0)" width="53.95" xlink:href="#shape2"/>
  </g>
  <defs>
    <g id="shape1" transform="matrix(1.0, 0.0, 0.0, 1.0, 0.5, 0.05)">
      <path d="M48.25 28.7 L48.6 28.9 Q48.9 29.25 48.85 29.75 L48.7 30.1 48.2 30.2 47.45 29.95 47.3 29.85 47.05 29.5 47.1 29.15 47.35 28.75 Q47.55 28.5 47.8 28.55 L48.25 28.7 M19.35 23.6 L19.3 23.1 Q19.3 22.65 19.75 22.4 20.1 22.1 20.6 22.1 L21.4 22.3 Q21.75 22.45 21.95 22.65 L22.05 22.65 22.45 23.25 22.6 23.65 22.6 24.1 22.45 24.7 21.55 24.8 20.1 24.45 19.8 24.25 19.55 24.05 19.35 23.6" fill="#ffffff" fill-rule="evenodd" stroke="none"/>
      <path d="M48.55 0.45 L49.35 0.65 52.6 0.5 Q51.4 2.75 48.7 2.45 47.4 2.3 46.2 1.75 45.2 1.3 44.45 0.45 L48.55 0.45 M40.85 0.45 Q39.25 2.25 39.65 4.85 L39.7 5.1 Q38.05 2.8 37.2 0.7 L37.1 0.45 40.85 0.45" fill="#e3d0b0" fill-rule="evenodd" stroke="none"/>
      <path d="M52.65 0.45 L52.6 0.5 49.35 0.65 48.55 0.45 52.65 0.45" fill="#f4eac7" fill-rule="evenodd" stroke="none"/>
      <path d="M43.2 11.65 L43.2 12.15 41.75 11.65 39.65 11.1 39.3 11.1 39.1 11.1 38.3 10.55 Q38.0 10.25 37.6 10.1 L37.15 8.7 37.6 10.1 Q38.0 10.25 38.3 10.55 L33.1 10.7 Q32.6 10.1 32.6 9.55 32.65 9.0 33.4 8.55 L31.95 8.0 31.75 7.9 31.55 7.8 29.75 7.4 29.85 6.95 32.45 7.4 34.8 7.95 35.0 8.0 35.5 8.1 37.15 8.7 39.15 9.45 39.45 9.55 Q41.5 10.55 43.2 11.65 M42.6 13.8 L42.2 14.05 42.0 14.05 40.5 14.1 40.0 14.1 39.85 14.05 39.55 14.05 38.65 14.0 38.45 14.0 38.45 13.75 37.8 10.9 37.9 10.9 39.1 11.1 39.3 11.2 39.7 11.45 40.9 12.35 40.9 12.4 42.6 13.8 M46.5 29.15 Q45.3 30.45 45.05 32.3 44.9 34.25 46.0 35.7 47.1 37.15 49.0 37.25 L49.65 37.25 49.65 37.5 49.55 37.8 49.4 38.0 49.55 38.6 49.6 38.75 Q47.4 38.85 45.95 37.25 44.45 35.7 44.4 33.4 L44.65 33.35 44.65 32.2 44.65 31.4 44.75 31.15 Q44.95 29.95 45.5 29.0 L46.1 28.2 Q47.25 26.95 49.05 26.8 L49.15 27.45 49.2 27.8 Q47.85 27.95 46.75 28.95 L46.5 29.15 M33.4 8.55 L34.5 9.0 36.55 9.7 36.7 9.75 37.6 10.1 36.7 9.75 36.55 9.7 34.5 9.0 33.4 8.55 M24.2 8.15 L24.3 8.15 24.95 8.2 Q25.4 8.65 25.05 9.35 L24.85 9.55 24.0 9.55 23.95 9.5 23.9 9.3 23.8 8.75 Q23.8 8.25 24.2 8.15 M23.2 48.9 L23.6 48.7 23.95 49.2 23.1 49.0 23.2 48.9 M30.6 43.05 L30.95 42.6 31.3 42.85 30.6 43.05" fill="#f4ba3f" fill-rule="evenodd" stroke="none"/>
      <path d="M39.1 11.1 L39.3 11.1 39.65 11.1 41.75 11.65 43.2 12.15 43.25 12.65 Q43.2 13.5 42.6 13.8 L40.9 12.4 40.9 12.35 39.7 11.45 39.3 11.2 39.1 11.1 M38.55 14.25 L38.7 15.5 38.8 16.05 38.9 16.7 39.0 17.75 39.05 18.3 39.15 19.0 39.1 19.5 Q39.15 21.95 38.8 24.65 L38.75 25.0 38.75 25.25 38.25 27.75 38.1 28.4 37.9 29.45 37.25 31.65 36.65 33.3 36.55 33.6 35.65 35.6 35.5 35.9 35.3 36.35 35.2 36.5 33.45 39.4 32.9 40.3 Q32.85 39.05 31.9 38.75 L32.15 38.45 Q33.8 36.6 34.95 34.15 L35.3 33.4 35.25 33.25 Q35.05 32.55 35.1 31.6 35.15 30.3 35.75 29.25 L36.5 28.4 36.7 28.3 37.0 28.15 37.5 25.45 38.1 20.05 38.1 19.5 38.1 18.25 38.15 16.15 37.95 13.95 37.65 13.85 Q36.75 13.6 35.75 12.55 L35.6 12.35 34.15 11.45 37.15 11.0 37.8 10.9 38.45 13.75 38.45 14.0 38.55 14.25 M52.8 27.35 L52.95 27.7 53.1 28.2 Q52.85 28.35 52.9 28.6 L52.95 28.7 53.0 28.8 53.15 29.05 53.2 29.1 53.3 29.15 53.3 29.5 53.35 29.8 53.05 29.2 Q52.05 28.0 50.5 27.8 L50.5 27.75 50.2 26.75 50.25 26.75 52.3 27.4 52.4 27.45 52.8 27.35 M53.7 33.95 L53.75 33.75 53.65 35.7 52.75 36.45 52.25 36.5 51.95 36.55 51.6 36.55 51.55 36.55 52.25 36.0 Q53.3 35.15 53.7 33.95 M31.7 38.7 L31.6 39.25 31.55 39.25 31.4 39.2 Q30.8 39.3 30.1 40.05 L29.65 40.55 29.15 39.9 Q30.2 38.6 31.4 38.65 L31.7 38.7 M31.45 42.0 L31.5 42.05 30.95 42.6 30.6 43.05 29.5 44.15 28.95 44.6 28.9 44.7 Q26.5 46.9 23.6 48.7 L23.2 48.9 22.2 48.6 21.95 48.55 18.1 46.7 16.55 45.9 15.0 44.9 14.3 42.0 14.05 40.75 14.05 40.4 13.7 37.5 13.7 37.25 Q15.65 37.25 16.65 36.7 L16.6 36.6 16.95 36.55 17.5 36.35 17.55 36.3 17.95 36.0 18.0 36.0 Q19.35 36.85 21.65 37.25 L22.95 37.45 23.65 37.55 Q26.2 37.65 28.5 35.9 L29.95 34.4 Q31.6 33.0 32.25 31.1 L32.6 29.4 32.65 29.75 32.7 29.8 32.8 31.6 32.4 33.6 31.45 35.35 31.15 35.75 31.1 35.8 30.7 36.25 30.15 36.7 29.8 36.9 29.7 37.0 27.85 38.0 27.2 38.2 26.65 38.3 26.15 38.3 25.7 38.3 26.05 38.65 26.4 39.05 27.65 40.2 29.0 41.25 29.75 40.7 31.45 42.0 M17.7 23.05 L17.8 23.6 Q16.45 25.1 16.1 27.1 14.8 29.3 14.65 32.35 L14.35 32.3 13.9 32.2 13.95 32.05 14.0 31.75 14.4 29.95 14.45 29.8 Q15.0 27.9 15.9 26.0 L16.55 24.85 17.35 23.6 17.4 23.55 17.7 23.05 M36.2 25.75 L36.25 25.7 36.3 25.75 36.55 25.65 36.6 25.65 Q37.05 25.7 37.1 26.3 37.2 26.95 36.55 26.95 L36.5 26.95 36.3 26.9 Q36.0 26.8 36.05 26.35 36.05 25.9 36.2 25.75" fill="#f0c59b" fill-rule="evenodd" stroke="none"/>
      <path d="M43.2 12.15 L44.5 12.7 45.15 13.2 46.45 14.55 46.9 15.05 Q51.05 19.95 52.8 27.35 L52.4 27.45 52.3 27.4 50.25 26.75 50.2 26.75 48.95 23.3 47.85 21.0 47.55 20.45 46.7 18.9 44.5 15.85 44.05 15.35 44.0 15.3 43.2 15.45 42.8 15.35 40.4 14.8 40.05 14.7 39.6 14.5 39.1 14.4 38.95 14.35 38.55 14.25 38.45 14.0 38.65 14.0 39.55 14.05 39.85 14.05 40.0 14.1 40.5 14.1 42.0 14.05 42.2 14.05 42.6 13.8 Q43.2 13.5 43.25 12.65 L43.2 12.15 M42.6 13.8 L44.0 15.3 42.6 13.8 M33.4 8.55 Q32.65 9.0 32.6 9.55 32.6 10.1 33.1 10.7 L33.95 11.4 34.1 11.45 33.5 11.55 34.1 11.45 34.15 11.45 35.6 12.35 35.75 12.55 Q36.75 13.6 37.65 13.85 L37.95 13.95 38.15 16.15 38.1 18.25 38.1 19.5 38.1 20.05 37.5 25.45 37.0 28.15 36.7 28.3 36.5 28.4 35.75 29.25 Q35.15 30.3 35.1 31.6 35.05 32.55 35.25 33.25 L35.3 33.4 34.95 34.15 Q33.8 36.6 32.15 38.45 L30.15 36.7 30.7 36.25 31.1 35.8 31.15 35.75 31.45 35.35 32.4 33.6 32.8 31.6 32.7 29.8 32.65 29.75 32.6 29.4 32.6 29.35 32.6 29.0 Q32.75 25.7 30.35 23.25 28.15 21.0 24.9 20.75 25.35 17.5 27.15 14.0 L27.6 13.75 28.15 13.45 29.0 13.05 29.6 12.8 Q30.9 12.25 32.35 11.85 L33.5 11.55 32.9 10.95 32.75 10.8 32.05 9.35 31.5 8.1 31.55 7.8 31.75 7.9 31.95 8.0 33.4 8.55 M36.2 25.75 Q36.05 25.9 36.05 26.35 36.0 26.8 36.3 26.9 L36.5 26.95 36.55 26.95 Q37.2 26.95 37.1 26.3 37.05 25.7 36.6 25.65 L36.55 25.65 36.3 25.75 36.25 25.7 36.2 25.75" fill="#f8f9eb" fill-rule="evenodd" stroke="none"/>
      <path d="M38.55 14.25 L38.95 14.35 39.1 14.4 39.6 14.5 40.05 14.7 40.4 14.8 42.8 15.35 43.2 15.45 44.0 15.3 44.05 15.35 44.5 15.85 46.7 18.9 47.55 20.45 47.85 21.0 48.95 23.3 50.2 26.75 49.05 26.8 48.15 23.65 46.75 20.9 46.7 20.95 46.9 21.5 46.9 22.2 Q46.85 23.65 45.95 24.7 45.1 25.6 43.75 25.8 L42.85 25.85 42.65 25.85 42.25 25.8 40.65 25.5 40.35 25.35 40.0 25.25 39.7 25.15 39.65 25.1 39.5 25.05 38.8 24.65 Q39.15 21.95 39.1 19.5 L39.15 19.0 39.05 18.3 39.0 17.75 39.05 17.7 39.6 17.45 39.75 17.4 40.2 17.4 40.65 17.35 41.05 17.35 41.35 17.4 43.1 17.75 Q43.9 17.95 44.7 18.45 L45.95 19.45 43.75 16.2 42.75 16.3 42.7 16.3 40.2 15.85 39.95 15.85 39.9 15.85 39.7 15.75 39.35 15.7 38.7 15.5 38.55 14.25 M44.65 21.45 L44.65 21.4 44.0 21.0 43.65 20.75 Q43.05 20.75 42.8 21.1 L42.5 22.15 42.9 23.0 43.2 23.2 43.8 23.4 Q44.35 23.45 44.7 22.8 L44.9 22.1 44.7 21.5 44.65 21.45 M52.75 36.45 L53.65 35.7 53.5 36.3 53.45 36.35 53.3 36.85 53.1 36.85 53.15 36.5 52.75 36.45 M49.6 38.75 L50.4 39.35 50.7 39.4 51.2 39.5 51.4 39.5 51.5 39.5 51.9 39.55 52.05 39.55 52.35 39.55 52.05 40.2 50.6 42.25 49.5 43.45 49.0 43.9 49.05 43.5 49.6 38.75 M51.2 39.5 L50.6 42.25 51.2 39.5 M31.5 8.1 L32.05 9.35 32.75 10.8 32.9 10.95 33.5 11.55 32.35 11.85 Q30.9 12.25 29.6 12.8 L29.0 13.05 28.15 13.45 27.6 13.75 27.15 14.0 25.9 14.8 25.25 15.3 24.7 14.5 25.45 14.1 26.5 13.4 27.7 12.8 27.8 12.7 29.0 12.15 31.65 11.1 Q30.8 10.05 30.85 9.05 L30.9 8.6 31.05 8.3 Q31.15 8.1 31.5 8.1 M38.75 25.0 L39.7 25.15 39.15 28.55 38.2 32.3 38.0 33.1 36.85 36.2 36.45 37.2 36.25 37.6 35.6 39.0 35.25 39.65 34.9 40.3 Q34.35 39.9 33.8 39.65 L33.45 39.4 35.2 36.5 35.3 36.35 35.5 35.9 35.65 35.6 36.55 33.6 36.65 33.3 37.25 31.65 37.9 29.45 38.1 28.4 38.25 27.75 38.75 25.25 38.75 25.0" fill="#fcfc9f" fill-rule="evenodd" stroke="none"/>
      <path d="M38.7 15.5 L39.35 15.7 39.7 15.75 39.9 15.85 39.95 15.85 40.2 15.85 42.7 16.3 42.75 16.3 43.75 16.2 45.95 19.45 44.7 18.45 Q43.9 17.95 43.1 17.75 L41.35 17.4 41.05 17.35 40.65 17.35 40.2 17.4 39.75 17.4 39.6 17.45 39.05 17.7 39.0 17.75 38.9 16.7 38.8 16.05 38.7 15.5 M38.8 24.65 L39.5 25.05 39.65 25.1 39.7 25.15 40.0 25.25 40.35 25.35 40.65 25.5 42.25 25.8 42.65 25.85 42.85 25.85 43.75 25.8 Q45.1 25.6 45.95 24.7 46.85 23.65 46.9 22.2 L46.9 21.5 46.7 20.95 46.75 20.9 48.15 23.65 49.05 26.8 Q47.25 26.95 46.1 28.2 L45.5 29.0 Q44.95 29.95 44.75 31.15 L44.65 31.4 44.65 32.2 44.65 33.35 44.4 33.4 Q44.45 35.7 45.95 37.25 47.4 38.85 49.6 38.75 L49.05 43.5 49.0 43.9 47.8 44.8 47.25 45.2 47.2 45.2 47.0 45.2 47.2 43.7 41.25 42.85 40.55 42.55 40.35 42.6 39.25 42.25 36.55 41.1 34.9 40.3 35.25 39.65 35.6 39.0 36.25 37.6 36.45 37.2 36.85 36.2 38.0 33.1 38.2 32.3 39.15 28.55 39.7 25.15 38.75 25.0 38.8 24.65 M33.05 42.9 L32.55 43.55 31.75 43.05 31.3 42.85 30.95 42.6 31.5 42.05 32.65 42.7 33.05 42.9 M33.55 42.2 Q32.9 41.6 32.9 40.35 L32.9 40.3 33.45 39.4 33.8 39.65 Q34.35 39.9 34.9 40.3 L33.55 42.2 M30.9 8.6 L30.85 9.05 Q30.8 10.05 31.65 11.1 L29.0 12.15 27.8 12.7 28.15 12.2 Q29.5 10.0 30.9 8.6 M24.7 14.5 L25.25 15.3 Q22.8 17.05 20.65 19.35 L20.6 19.5 20.15 19.9 18.9 21.45 17.7 23.05 17.55 21.5 18.05 20.75 19.3 19.15 19.8 18.6 20.6 17.85 20.65 17.8 Q22.55 15.95 24.7 14.5" fill="#fcf066" fill-rule="evenodd" stroke="none"/>
      <path d="M44.65 21.45 L44.7 21.5 44.9 22.1 44.7 22.8 Q44.35 23.45 43.8 23.4 L43.2 23.2 42.9 23.0 42.5 22.15 42.8 21.1 Q43.05 20.75 43.65 20.75 L44.0 21.0 44.65 21.4 44.65 21.45" fill="#fafde8" fill-rule="evenodd" stroke="none"/>
      <path d="M48.25 28.7 L48.5 28.55 48.55 28.55 48.7 28.45 49.3 28.4 50.05 28.35 50.65 28.4 Q51.8 28.6 52.6 29.6 53.6 30.85 53.4 32.5 L52.95 34.05 52.9 34.05 52.55 34.05 51.55 34.05 51.5 34.05 49.65 33.8 48.95 33.55 47.5 32.4 Q46.95 31.8 46.75 31.0 L46.65 30.9 46.7 30.7 47.3 29.85 47.45 29.95 48.2 30.2 48.7 30.1 48.85 29.75 Q48.9 29.25 48.6 28.9 L48.25 28.7 M21.4 22.3 L21.9 22.1 22.25 22.0 24.75 21.7 24.8 21.75 Q27.65 21.85 29.7 23.85 L30.75 25.25 Q31.6 26.8 31.5 28.65 L31.2 30.6 30.9 31.2 30.8 31.2 30.15 31.25 28.3 31.25 23.4 30.4 Q21.7 29.6 20.5 28.5 19.35 27.45 18.85 26.15 L18.65 25.85 18.85 25.65 Q19.2 24.8 19.8 24.25 L20.1 24.45 21.55 24.8 22.45 24.7 22.6 24.1 22.6 23.65 22.45 23.25 22.05 22.65 21.95 22.65 Q21.75 22.45 21.4 22.3" fill="#2d440c" fill-rule="evenodd" stroke="none"/>
      <path d="M50.5 27.8 Q52.05 28.0 53.05 29.2 L53.35 29.8 Q54.1 31.05 53.9 32.65 L53.75 33.75 53.7 33.95 52.95 34.05 53.4 32.5 Q53.6 30.85 52.6 29.6 51.8 28.6 50.65 28.4 L50.05 28.35 49.3 28.4 48.7 28.45 48.55 28.55 48.5 28.55 48.25 28.7 47.8 28.55 Q47.55 28.5 47.35 28.75 L47.1 29.15 47.05 29.5 46.6 30.0 46.65 30.05 46.5 30.2 46.5 29.15 46.75 28.95 Q47.85 27.95 49.2 27.8 L50.05 27.75 50.5 27.8 M18.25 23.1 L18.65 22.75 Q21.2 20.55 24.6 20.7 L24.9 20.75 Q28.15 21.0 30.35 23.25 32.75 25.7 32.6 29.0 L32.6 29.35 32.6 29.4 32.25 31.1 31.15 31.2 30.9 31.2 31.2 30.6 31.5 28.65 Q31.6 26.8 30.75 25.25 L29.7 23.85 Q27.65 21.85 24.8 21.75 L24.75 21.7 22.25 22.0 21.9 22.1 21.4 22.3 20.6 22.1 Q20.1 22.1 19.75 22.4 19.3 22.65 19.3 23.1 L19.35 23.6 18.6 24.45 18.55 24.55 18.6 24.6 18.35 24.8 18.35 24.65 18.25 23.1" fill="#eeedcb" fill-rule="evenodd" stroke="none"/>
      <path d="M52.95 34.05 L53.7 33.95 Q53.3 35.15 52.25 36.0 L51.55 36.55 50.15 37.15 49.65 37.25 49.0 37.25 Q47.1 37.15 46.0 35.7 44.9 34.25 45.05 32.3 45.3 30.45 46.5 29.15 L46.5 30.2 46.45 30.3 Q46.0 31.05 45.9 32.0 L45.9 32.15 Q45.7 33.8 46.65 35.05 47.6 36.25 49.15 36.3 L49.65 36.3 Q50.7 36.25 51.55 35.6 L52.0 35.25 52.6 34.6 52.95 34.05 M17.8 23.6 L18.25 23.1 18.35 24.65 18.35 24.8 18.3 24.9 18.25 25.0 Q17.45 26.3 17.35 27.8 L17.3 28.05 Q17.2 30.8 19.25 32.8 21.2 34.8 24.15 34.9 27.1 35.05 29.25 33.2 L30.25 32.1 30.9 31.2 31.15 31.2 32.25 31.1 Q31.6 33.0 29.95 34.4 L29.9 34.45 Q27.4 36.7 23.95 36.5 20.5 36.35 18.2 33.95 15.8 31.5 15.95 28.3 L16.1 27.1 Q16.45 25.1 17.8 23.6" fill="#cbcb9f" fill-rule="evenodd" stroke="none"/>
      <path d="M46.65 30.9 L46.75 31.0 Q46.95 31.8 47.5 32.4 L48.95 33.55 49.65 33.8 51.5 34.05 51.55 34.05 52.55 34.05 52.9 34.05 52.95 34.05 52.6 34.6 51.9 35.15 51.55 35.4 51.5 35.45 50.95 35.7 49.65 36.05 49.6 36.05 49.2 36.0 Q48.15 35.8 47.3 34.75 46.15 33.55 46.35 32.1 L46.35 32.05 46.65 30.9 M18.65 25.85 L18.85 26.15 Q19.35 27.45 20.5 28.5 21.7 29.6 23.4 30.4 L28.3 31.25 30.15 31.25 30.8 31.2 30.9 31.2 30.25 32.1 29.15 33.0 28.35 33.55 27.4 33.95 24.95 34.45 24.25 34.45 Q22.2 34.15 20.4 32.4 18.2 30.4 18.25 27.95 L18.25 27.85 Q18.3 26.8 18.65 25.85" fill="#212f0b" fill-rule="evenodd" stroke="none"/>
      <path d="M52.6 34.6 L52.0 35.25 51.55 35.6 Q50.7 36.25 49.65 36.3 L49.15 36.3 Q47.6 36.25 46.65 35.05 45.7 33.8 45.9 32.15 L45.9 32.0 Q46.0 31.05 46.45 30.3 L46.5 30.2 46.5 30.4 46.5 30.45 46.55 30.45 46.65 30.9 46.35 32.05 46.35 32.1 Q46.15 33.55 47.3 34.75 48.15 35.8 49.2 36.0 L49.6 36.05 49.65 36.05 50.95 35.7 51.5 35.45 51.55 35.4 51.9 35.15 52.6 34.6 M30.25 32.1 L29.25 33.2 Q27.1 35.05 24.15 34.9 21.2 34.8 19.25 32.8 17.2 30.8 17.3 28.05 L17.35 27.8 Q17.45 26.3 18.25 25.0 L18.3 24.9 18.4 25.15 18.4 25.2 18.45 25.25 18.5 25.25 18.65 25.85 Q18.3 26.8 18.25 27.85 L18.25 27.95 Q18.2 30.4 20.4 32.4 22.2 34.15 24.25 34.45 L24.95 34.45 27.4 33.95 28.35 33.55 29.15 33.0 30.25 32.1" fill="#647d15" fill-rule="evenodd" stroke="none"/>
      <path d="M50.15 37.15 L51.55 36.55 51.6 36.55 51.95 36.55 52.25 36.5 52.75 36.45 53.15 36.5 53.1 36.85 52.2 36.95 52.15 36.95 51.7 37.05 51.5 37.15 51.45 37.15 51.2 37.2 50.85 37.4 50.6 37.5 50.2 37.8 50.15 37.85 Q49.75 38.3 50.0 38.7 L50.5 39.15 50.65 39.2 51.25 39.25 51.3 39.25 51.6 39.3 51.95 39.25 52.05 39.2 52.1 39.2 52.55 39.15 52.45 39.55 52.6 39.15 53.15 38.85 52.85 39.5 52.45 39.55 52.35 39.55 52.05 39.55 51.9 39.55 51.5 39.5 51.4 39.5 51.2 39.5 50.7 39.4 50.4 39.35 49.6 38.75 49.55 38.6 49.4 38.0 49.55 37.8 49.65 37.5 50.15 37.15 M53.75 36.6 L53.8 36.85 53.75 37.0 53.55 36.9 53.75 36.6 M12.4 32.05 L12.6 32.05 13.4 32.1 13.9 32.2 14.35 32.3 14.65 32.35 14.95 32.45 15.65 32.65 15.8 32.7 16.0 32.8 16.75 33.1 16.75 33.15 17.4 33.6 17.5 33.6 17.85 34.1 Q18.25 34.65 18.25 35.3 L18.2 35.5 17.95 36.0 17.55 36.3 17.5 36.35 16.95 36.55 16.6 36.6 14.65 36.9 14.25 36.9 13.95 36.85 13.7 36.75 13.05 36.5 13.0 36.45 12.8 36.4 12.25 36.1 12.1 36.0 11.05 35.4 Q10.9 35.25 10.75 35.2 9.9 34.45 9.95 33.6 L10.15 32.9 Q10.7 32.05 12.4 32.05 M13.85 32.95 L13.4 32.9 12.8 32.9 12.3 32.9 11.35 33.1 Q10.55 33.35 10.5 34.0 10.5 34.5 11.0 34.95 L11.25 35.15 12.1 35.65 12.55 35.8 13.15 36.0 13.3 36.05 13.4 36.05 13.65 36.2 14.05 36.25 Q14.8 36.45 15.0 36.25 L15.85 36.3 16.4 36.2 16.7 36.0 16.8 36.0 16.85 35.95 17.3 35.55 17.6 35.0 17.55 34.7 Q17.45 34.3 17.15 34.05 L17.1 34.0 17.0 34.0 Q16.6 33.6 15.85 33.35 L15.7 33.3 15.45 33.25 14.7 33.05 14.65 33.05 14.25 33.0 13.85 32.95 13.9 32.2 13.85 32.95 M13.7 36.75 L13.65 36.2 13.7 36.75" fill="#c5612d" fill-rule="evenodd" stroke="none"/>
      <path d="M52.45 39.55 L52.55 39.15 52.1 39.2 52.05 39.2 51.95 39.25 51.6 39.3 51.3 39.25 51.25 39.25 50.65 39.2 50.5 39.15 50.0 38.7 Q49.75 38.3 50.15 37.85 L50.2 37.8 50.6 37.5 50.85 37.4 51.2 37.2 51.45 37.15 51.5 37.15 51.7 37.05 52.15 36.95 52.2 36.95 53.1 36.85 53.3 36.85 53.05 37.75 52.2 37.8 51.9 37.85 51.85 37.85 51.7 37.9 51.35 38.2 51.35 38.25 51.2 38.55 51.35 38.7 52.0 38.75 52.1 38.7 52.15 38.7 52.8 38.45 52.6 39.15 52.45 39.55 M31.6 39.25 L32.0 39.55 32.2 40.4 Q32.15 41.3 31.45 42.0 L29.75 40.7 29.65 40.55 30.1 40.05 Q30.8 39.3 31.4 39.2 L31.55 39.25 31.6 39.25 M13.65 36.2 L13.4 36.05 13.3 36.05 13.15 36.0 12.55 35.8 12.1 35.65 11.25 35.15 11.0 34.95 Q10.5 34.5 10.5 34.0 10.55 33.35 11.35 33.1 L12.3 32.9 12.8 32.9 13.4 32.9 13.85 32.95 13.75 33.5 13.7 34.15 13.75 33.5 13.85 32.95 14.25 33.0 14.65 33.05 14.7 33.05 15.45 33.25 15.7 33.3 15.85 33.35 Q16.6 33.6 17.0 34.0 L17.1 34.0 17.15 34.05 Q17.45 34.3 17.55 34.7 L17.6 35.0 17.3 35.55 16.85 35.95 16.8 36.0 16.7 36.0 16.4 36.2 15.85 36.3 15.0 36.25 Q14.8 36.45 14.05 36.25 L13.65 36.2 13.65 35.7 13.65 35.65 13.65 35.4 13.65 35.65 13.65 35.7 13.65 36.2 M13.7 34.15 L12.95 34.3 12.5 34.65 Q12.45 35.1 13.45 35.3 L13.55 35.35 13.65 35.4 13.9 35.45 14.65 35.5 16.2 35.25 16.35 35.2 Q16.35 35.0 16.25 35.2 16.05 34.75 15.25 34.45 L14.75 34.3 13.95 34.15 13.8 34.15 13.7 34.15" fill="#f97d59" fill-rule="evenodd" stroke="none"/>
      <path d="M49.05 26.8 L50.2 26.75 50.5 27.75 50.5 27.8 50.05 27.75 49.2 27.8 49.15 27.45 49.05 26.8 M49.65 37.25 L50.15 37.15 49.65 37.5 49.65 37.25 M38.25 43.95 L39.25 44.45 39.9 44.65 40.9 44.4 41.65 43.55 41.6 43.3 41.25 42.85 47.2 43.7 47.0 45.2 41.7 45.7 39.95 45.65 36.95 45.25 35.1 44.65 35.05 44.65 Q34.05 44.3 33.0 43.75 L32.55 43.55 33.05 42.9 34.05 43.3 36.2 43.8 36.65 43.9 38.25 43.95 M40.35 42.6 L39.4 42.75 38.8 42.95 36.95 43.25 36.8 43.25 36.4 43.15 34.2 42.5 Q33.85 42.45 33.55 42.2 L34.9 40.3 36.55 41.1 39.25 42.25 40.35 42.6 M23.15 6.6 L24.8 6.55 Q27.5 6.8 29.75 7.4 L31.55 7.8 31.5 8.1 Q31.15 8.1 31.05 8.3 L30.9 8.6 Q29.5 10.0 28.15 12.2 L27.8 12.7 27.7 12.8 26.5 13.4 25.45 14.1 24.7 14.5 Q22.55 15.95 20.65 17.8 L20.6 17.85 19.8 18.6 19.3 19.15 18.05 20.75 17.55 21.5 Q17.3 19.6 17.4 17.75 L17.6 16.15 18.15 13.65 18.9 13.75 19.8 13.65 20.9 13.4 Q22.2 12.85 22.45 11.5 L22.6 10.7 22.55 10.05 Q22.4 8.8 21.2 8.15 L22.5 7.0 23.15 6.6 M24.2 8.15 Q23.8 8.25 23.8 8.75 L23.9 9.3 23.95 9.5 24.0 9.55 24.85 9.55 25.05 9.35 Q25.4 8.65 24.95 8.2 L24.3 8.15 24.2 8.15 M17.7 23.05 L17.4 23.55 17.35 23.6 16.55 24.85 15.9 26.0 Q15.0 27.9 14.45 29.8 L14.4 29.95 14.0 31.75 13.95 32.05 13.9 32.2 13.4 32.1 12.6 32.05 12.4 32.05 12.5 31.3 12.65 30.75 Q13.35 27.45 15.1 24.6 L16.1 23.15 17.55 21.5 17.7 23.05 M15.0 44.9 L13.9 44.05 13.1 43.5 12.35 42.95 12.15 41.55 12.05 40.8 12.0 36.85 13.55 37.25 13.7 37.25 13.7 37.5 14.05 40.4 14.05 40.75 14.3 42.0 15.0 44.9 M23.6 48.7 Q26.5 46.9 28.9 44.7 L28.95 44.6 29.5 44.15 30.6 43.05 31.3 42.85 31.75 43.05 32.55 43.55 31.0 45.45 30.8 45.7 29.6 47.0 26.8 49.6 26.55 49.55 23.95 49.2 23.6 48.7" fill="#f9d254" fill-rule="evenodd" stroke="none"/>
      <path d="M47.3 29.85 L46.7 30.7 46.65 30.9 46.55 30.45 46.5 30.45 46.5 30.4 46.5 30.2 46.65 30.05 46.6 30.0 47.05 29.5 47.3 29.85 M18.35 24.8 L18.6 24.6 18.55 24.55 18.6 24.45 19.35 23.6 19.55 24.05 19.8 24.25 Q19.2 24.8 18.85 25.65 L18.65 25.85 18.5 25.25 18.45 25.25 18.4 25.2 18.4 25.15 18.3 24.9 18.35 24.8" fill="#6e9841" fill-rule="evenodd" stroke="none"/>
      <path d="M41.25 42.85 L41.6 43.3 41.65 43.55 40.9 44.4 39.9 44.65 39.25 44.45 38.25 43.95 36.65 43.9 36.2 43.8 34.05 43.3 33.05 42.9 32.65 42.7 31.5 42.05 31.45 42.0 Q32.15 41.3 32.2 40.4 L32.0 39.55 31.6 39.25 31.7 38.7 31.9 38.75 Q32.85 39.05 32.9 40.3 L32.9 40.35 Q32.9 41.6 33.55 42.2 33.85 42.45 34.2 42.5 L36.4 43.15 36.8 43.25 36.95 43.25 38.8 42.95 39.4 42.75 40.35 42.6 40.55 42.55 41.25 42.85 M40.75 43.7 L39.65 43.8 39.55 43.85 38.25 43.95 39.55 43.85 39.65 43.8 40.75 43.7" fill="#e29c2e" fill-rule="evenodd" stroke="none"/>
      <path d="M32.55 43.55 L33.0 43.75 Q34.05 44.3 35.05 44.65 L35.1 44.65 36.95 45.25 39.95 45.65 41.7 45.7 47.0 45.2 47.0 45.35 Q43.75 47.6 39.8 48.75 L35.1 49.65 33.35 49.85 32.6 49.85 32.5 49.85 31.1 49.85 30.9 49.85 29.05 49.85 27.25 49.65 26.8 49.6 29.6 47.0 30.8 45.7 31.0 45.45 32.55 43.55 M9.2 11.85 L9.55 11.65 Q12.95 9.2 16.6 7.95 19.05 7.1 21.65 6.8 L23.15 6.6 22.5 7.0 21.2 8.15 Q22.4 8.8 22.55 10.05 L22.6 10.7 22.45 11.5 Q22.2 12.85 20.9 13.4 L19.8 13.65 18.9 13.75 18.15 13.65 17.6 16.15 17.4 17.75 Q17.3 19.6 17.55 21.5 L16.1 23.15 15.1 24.6 Q13.35 27.45 12.65 30.75 L12.5 31.3 12.4 32.05 Q10.7 32.05 10.15 32.9 L9.95 33.6 Q9.9 34.45 10.75 35.2 10.9 35.25 11.05 35.4 L12.1 36.0 12.25 36.1 12.8 36.4 13.0 36.45 13.05 36.5 13.7 36.75 13.7 37.25 13.55 37.25 12.0 36.85 12.05 40.8 12.15 41.55 12.35 42.95 11.2 42.0 10.4 41.15 10.1 40.85 9.5 40.2 9.25 39.95 8.8 39.4 6.75 36.55 5.75 34.8 5.5 34.2 4.75 32.0 Q4.1 29.4 4.15 26.6 4.35 22.2 6.3 19.7 L6.95 18.95 8.7 17.0 Q9.55 15.8 9.6 13.85 L9.35 12.2 9.2 11.85" fill="#edb43d" fill-rule="evenodd" stroke="none"/>
      <path d="M52.8 38.45 L52.15 38.7 52.1 38.7 52.0 38.75 51.35 38.7 51.2 38.55 51.35 38.25 51.35 38.2 51.7 37.9 51.85 37.85 51.9 37.85 52.2 37.8 53.05 37.75 53.3 38.3 53.3 38.45 52.8 38.45 53.05 37.75 52.8 38.45 M13.65 35.4 L13.55 35.35 13.45 35.3 Q12.45 35.1 12.5 34.65 L12.95 34.3 13.7 34.15 13.8 34.15 13.95 34.15 14.75 34.3 15.25 34.45 Q16.05 34.75 16.25 35.2 16.35 35.0 16.35 35.2 L16.2 35.25 14.65 35.5 13.9 35.45 13.65 35.4 13.7 34.95 13.7 34.75 13.7 34.15 13.7 34.75 13.7 34.95 13.65 35.4" fill="#f9a1a8" fill-rule="evenodd" stroke="none"/>
      <path d="M38.3 10.55 L39.1 11.1 37.9 10.9 37.8 10.9 37.15 11.0 34.15 11.45 34.1 11.45 33.95 11.4 33.1 10.7 38.3 10.55" fill="#ffc241" fill-rule="evenodd" stroke="none"/>
      <path d="M31.9 38.75 L31.7 38.7 31.4 38.65 Q30.2 38.6 29.15 39.9 L28.7 39.45 29.15 39.9 29.65 40.55 29.75 40.7 29.0 41.25 27.65 40.2 26.4 39.05 26.05 38.65 25.7 38.3 26.15 38.3 26.65 38.3 27.2 38.2 27.85 38.0 29.7 37.0 29.8 36.9 30.15 36.7 32.15 38.45 31.9 38.75 M25.25 15.3 L25.9 14.8 27.15 14.0 Q25.35 17.5 24.9 20.75 L24.6 20.7 Q21.2 20.55 18.65 22.75 L18.25 23.1 17.8 23.6 17.7 23.05 18.9 21.45 20.15 19.9 20.6 19.5 20.65 19.35 Q22.8 17.05 25.25 15.3" fill="#ffebbd" fill-rule="evenodd" stroke="none"/>
      <path d="M4.8 52.55 L2.15 52.55 Q1.3 51.1 1.7 49.25 1.8 48.8 2.05 48.5 L3.6 48.25 Q3.45 48.75 3.45 49.3 3.35 51.05 4.8 52.55 M8.0 41.7 L7.85 41.55 7.75 41.45 7.6 41.3 5.05 38.8 4.55 38.25 4.25 37.85 Q1.75 34.85 0.7 31.6 -0.15 28.9 0.05 26.05 0.3 21.8 2.85 18.05 4.95 15.1 8.4 12.4 L8.75 12.15 9.2 11.85 9.35 12.2 9.6 13.85 Q9.55 15.8 8.7 17.0 L6.95 18.95 6.3 19.7 Q4.35 22.2 4.15 26.6 4.1 29.4 4.75 32.0 L5.5 34.2 5.75 34.8 6.75 36.55 8.8 39.4 9.25 39.95 9.5 40.2 10.1 40.85 10.4 41.15 11.2 42.0 12.35 42.95 13.1 43.5 13.9 44.05 15.0 44.9 15.55 46.5 13.15 45.25 12.65 45.05 12.0 44.6 10.15 43.35 9.7 43.05 9.2 42.65 8.0 41.7" fill="#f4c498" fill-rule="evenodd" stroke="none"/>
      <path d="M30.8 52.55 L26.05 52.55 28.7 52.3 30.75 52.05 30.8 52.3 30.8 52.55 M22.25 52.55 L20.05 52.55 20.15 52.25 21.0 52.4 22.25 52.55 M13.55 52.55 L13.0 52.55 13.1 51.85 13.15 51.7 13.2 51.45 11.7 50.2 11.75 49.85 11.75 49.75 11.8 48.85 11.85 48.4 11.85 48.3 13.2 49.4 13.45 51.6 13.5 51.9 13.55 52.55 M14.65 32.35 Q14.8 29.3 16.1 27.1 L15.95 28.3 Q15.8 31.5 18.2 33.95 20.5 36.35 23.95 36.5 27.4 36.7 29.9 34.45 L29.95 34.4 28.5 35.9 Q26.2 37.65 23.65 37.55 L22.95 37.45 21.65 37.25 Q19.35 36.85 18.0 36.0 L17.95 36.0 18.2 35.5 18.25 35.3 Q18.25 34.65 17.85 34.1 L17.5 33.6 17.4 33.6 16.75 33.15 16.75 33.1 16.0 32.8 15.8 32.7 15.65 32.65 14.95 32.45 14.65 32.35 M13.7 36.75 L13.95 36.85 14.25 36.9 14.65 36.9 16.6 36.6 16.65 36.7 Q15.65 37.25 13.7 37.25 L13.7 36.75" fill="#d08777" fill-rule="evenodd" stroke="none"/>
      <path d="M20.05 52.55 L18.5 52.55 17.9 52.5 17.5 52.55 13.55 52.55 13.5 51.9 13.45 51.6 13.2 49.4 11.85 48.3 8.4 45.15 8.3 45.1 7.7 44.1 7.7 42.15 7.65 41.95 8.0 41.7 9.2 42.65 9.7 43.05 10.15 43.35 12.0 44.6 12.65 45.05 13.15 45.25 15.55 46.5 15.65 46.6 17.15 47.2 Q19.45 48.15 21.9 48.75 L22.05 48.8 23.1 49.0 23.95 49.2 26.55 49.55 26.8 49.6 27.25 49.65 29.05 49.85 30.9 49.85 31.1 49.85 30.3 50.25 30.25 50.25 28.55 50.55 28.05 50.65 26.25 50.6 22.9 50.15 21.6 49.9 19.4 49.45 17.8 49.35 17.65 49.45 17.35 49.6 17.15 49.65 17.1 49.65 16.55 49.7 15.35 49.3 14.75 49.25 14.55 50.35 14.85 50.6 15.4 50.95 15.6 51.05 17.55 51.7 18.0 51.8 20.15 52.25 20.05 52.55 M18.5 49.85 L18.15 50.15 17.8 49.85 17.8 49.75 17.85 49.6 18.15 49.55 18.3 49.6 18.35 49.65 18.45 49.85 18.5 49.85" fill="#b21a2e" fill-rule="evenodd" stroke="none"/>
      <path d="M11.0 52.55 L4.8 52.55 Q3.35 51.05 3.45 49.3 3.45 48.75 3.6 48.25 L4.1 48.1 4.2 48.1 Q6.05 47.4 7.05 46.55 L7.8 45.75 8.3 45.1 8.4 45.15 11.85 48.3 11.85 48.4 11.8 48.85 11.75 49.75 11.75 49.85 11.7 50.2 11.7 50.25 11.55 50.9 11.3 51.4 11.0 52.55 M7.9 48.0 Q6.9 49.45 6.8 50.8 6.8 51.7 7.25 51.9 L8.05 52.1 8.25 52.1 9.95 51.95 10.55 51.7 10.75 51.45 11.05 50.85 11.15 50.4 11.25 49.75 11.25 49.7 11.15 48.75 10.95 47.95 10.15 47.55 9.45 47.15 9.25 47.05 8.9 46.85 8.65 47.15 8.3 47.6 7.9 48.0" fill="#f3b844" fill-rule="evenodd" stroke="none"/>
      <path d="M33.25 50.55 L34.65 51.9 35.55 52.55 32.8 52.55 32.75 51.95 Q32.8 51.1 33.25 50.55 M7.9 48.0 L8.3 47.6 8.65 47.15 8.9 46.85 9.25 47.05 9.45 47.15 10.15 47.55 10.95 47.95 11.15 48.75 11.25 49.7 11.25 49.75 11.15 50.4 11.05 50.85 10.75 51.45 10.55 51.7 9.95 51.95 8.25 52.1 8.05 52.1 7.25 51.9 Q6.8 51.7 6.8 50.8 6.9 49.45 7.9 48.0" fill="#fdf265" fill-rule="evenodd" stroke="none"/>
      <path d="M15.55 46.5 L15.0 44.9 16.55 45.9 18.1 46.7 21.95 48.55 22.2 48.6 23.2 48.9 23.1 49.0 22.05 48.8 21.9 48.75 Q19.45 48.15 17.15 47.2 L15.65 46.6 15.55 46.5" fill="#f6c8b1" fill-rule="evenodd" stroke="none"/>
      <path d="M18.5 52.55 L17.5 52.55 17.9 52.5 18.5 52.55 M20.15 52.25 L18.0 51.8 17.55 51.7 15.6 51.05 15.4 50.95 14.85 50.6 14.55 50.35 14.75 49.25 15.35 49.3 16.55 49.7 17.1 49.65 17.15 49.65 17.35 49.6 17.65 49.45 17.8 49.35 19.4 49.45 21.6 49.9 21.5 50.05 Q20.9 50.85 20.85 51.5 L21.0 52.4 20.15 52.25 M18.5 49.85 L18.45 49.85 18.35 49.65 18.3 49.6 18.15 49.55 17.85 49.6 17.8 49.75 17.8 49.85 18.15 50.15 18.5 49.85" fill="#e53a4a" fill-rule="evenodd" stroke="none"/>
      <path d="M32.6 49.85 L33.25 50.5 33.25 50.55 Q32.8 51.1 32.75 51.95 L32.8 52.55 30.8 52.55 30.8 52.3 30.75 52.05 30.9 52.05 32.15 50.35 32.5 49.85 32.6 49.85" fill="#fab246" fill-rule="evenodd" stroke="none"/>
      <path d="M26.05 52.55 L22.25 52.55 21.0 52.4 20.85 51.5 Q20.9 50.85 21.5 50.05 L21.6 49.9 22.9 50.15 26.25 50.6 28.05 50.65 28.55 50.55 30.25 50.25 30.3 50.25 31.1 49.85 32.5 49.85 32.15 50.35 30.9 52.05 30.75 52.05 28.7 52.3 26.05 52.55" fill="#fc5768" fill-rule="evenodd" stroke="none"/>
      <path d="M13.0 52.55 L11.0 52.55 11.3 51.4 11.55 50.9 11.7 50.25 11.7 50.2 13.2 51.45 13.15 51.7 13.1 51.85 13.0 52.55" fill="#f6c4a3" fill-rule="evenodd" stroke="none"/>
      <path d="M52.6 0.5 L52.65 0.45 M52.6 0.5 Q51.4 2.75 48.7 2.45 47.4 2.3 46.2 1.75 45.2 1.3 44.45 0.45 M37.1 0.45 L37.2 0.7 Q38.05 2.8 39.7 5.1 L39.65 4.85 Q39.25 2.25 40.85 0.45" fill="none" stroke="#ccaa83" stroke-linecap="round" stroke-linejoin="round" stroke-width="1.0"/>
      <path d="M37.15 8.7 L37.6 10.1 Q38.0 10.25 38.3 10.55 L39.1 11.1 39.3 11.1 39.65 11.1 41.75 11.65 43.2 12.15 44.5 12.7 M38.55 14.25 L38.7 15.5 38.8 16.05 38.9 16.7 39.0 17.75 39.05 18.3 39.15 19.0 39.1 19.5 Q39.15 21.95 38.8 24.65 L38.75 25.0 38.75 25.25 38.25 27.75 38.1 28.4 37.9 29.45 37.25 31.65 36.65 33.3 36.55 33.6 35.65 35.6 35.5 35.9 35.3 36.35 35.2 36.5 33.45 39.4 32.9 40.3 M50.2 26.75 L48.95 23.3 47.85 21.0 47.55 20.45 46.7 18.9 44.5 15.85 44.05 15.35 44.0 15.3 42.6 13.8 40.9 12.4 M38.45 14.0 L38.55 14.25 M40.9 12.35 L39.7 11.45 39.3 11.2 39.1 11.1 37.9 10.9 37.8 10.9 38.45 13.75 38.45 14.0 M50.2 26.75 L50.5 27.75 50.5 27.8 M50.6 42.25 L51.2 39.5 M37.6 10.1 L36.7 9.75 36.55 9.7 34.5 9.0 33.4 8.55 31.95 8.0 31.75 7.9 31.55 7.8 29.75 7.4 Q27.5 6.8 24.8 6.55 M33.5 11.55 L34.1 11.45 34.15 11.45 37.15 11.0 37.8 10.9 M25.25 15.3 L25.9 14.8 27.15 14.0 27.6 13.75 28.15 13.45 29.0 13.05 29.6 12.8 Q30.9 12.25 32.35 11.85 L33.5 11.55 M25.25 15.3 Q22.8 17.05 20.65 19.35 L20.6 19.5 20.15 19.9 18.9 21.45 17.7 23.05 17.4 23.55 17.35 23.6 16.55 24.85 15.9 26.0 Q15.0 27.9 14.45 29.8 L14.4 29.95 14.0 31.75 13.95 32.05 13.9 32.2 13.85 32.95 13.75 33.5 13.7 34.15 13.7 34.75 13.7 34.95 13.65 35.4 13.65 35.65 13.65 35.7 13.65 36.2 13.7 36.75 13.7 37.25 13.7 37.5 14.05 40.4 14.05 40.75 14.3 42.0 15.0 44.9 15.55 46.5 M23.2 48.9 L23.6 48.7 Q26.5 46.9 28.9 44.7 L28.95 44.6 29.5 44.15 30.6 43.05 30.95 42.6 31.5 42.05 M23.1 49.0 L23.2 48.9" fill="none" stroke="#b27b2c" stroke-linecap="round" stroke-linejoin="round" stroke-width="1.0"/>
      <path d="M43.2 11.65 Q41.5 10.55 39.45 9.55 L39.15 9.45 37.15 8.7 35.5 8.1 35.0 8.0 34.8 7.95 32.45 7.4 29.85 6.95 24.8 6.55 23.15 6.6 21.65 6.8 Q19.05 7.1 16.6 7.95 12.95 9.2 9.55 11.65 L9.2 11.85 8.75 12.15 8.4 12.4 Q4.95 15.1 2.85 18.05 0.3 21.8 0.05 26.05 -0.15 28.9 0.7 31.6 1.75 34.85 4.25 37.85 L4.55 38.25 5.05 38.8 7.6 41.3 7.75 41.45 7.85 41.55 8.0 41.7 9.2 42.65 9.7 43.05 10.15 43.35 12.0 44.6 12.65 45.05 13.15 45.25 15.55 46.5 15.65 46.6 17.15 47.2 Q19.45 48.15 21.9 48.75 L22.05 48.8 23.1 49.0 23.95 49.2 26.55 49.55 26.8 49.6 27.25 49.65 29.05 49.85 30.9 49.85 31.1 49.85 32.5 49.85 32.6 49.85 33.25 50.5 33.25 50.55 34.65 51.9 35.55 52.55 M44.5 12.7 L43.2 11.65 M52.8 27.35 Q51.05 19.95 46.9 15.05 L46.45 14.55 45.15 13.2 44.5 12.7 M53.1 28.2 L52.95 27.7 52.8 27.35 M53.35 29.8 L53.3 29.5 53.3 29.15 53.25 29.05 53.2 28.9 53.15 28.55 53.1 28.2 M53.65 35.7 L53.75 33.75 M52.45 39.55 L52.6 39.15 52.8 38.45 53.05 37.75 53.3 36.85 53.45 36.35 53.5 36.3 53.65 35.7 M49.0 43.9 L49.5 43.45 50.6 42.25 52.05 40.2 52.35 39.55 M47.0 45.35 L47.25 45.2 47.8 44.8 49.0 43.9 M47.0 45.35 Q43.75 47.6 39.8 48.75 L35.1 49.65 33.35 49.85 32.6 49.85 M2.15 52.55 Q1.3 51.1 1.7 49.25 1.8 48.8 2.05 48.5 L3.6 48.25 4.1 48.1 4.2 48.1 Q6.05 47.4 7.05 46.55 L7.8 45.75 8.3 45.1 7.7 44.1 7.7 42.15 7.65 41.95 8.0 41.7 M8.3 45.1 L8.4 45.15 11.85 48.3 13.2 49.4 13.45 51.6 13.5 51.9 13.55 52.55 M30.75 52.05 L30.9 52.05 32.15 50.35 32.5 49.85 M30.75 52.05 L30.8 52.3 30.8 52.55 M26.05 52.55 L28.7 52.3 30.75 52.05 M21.0 52.4 L22.25 52.55 M21.0 52.4 L20.15 52.25 20.05 52.55 M11.55 50.9 L11.3 51.4 11.0 52.55" fill="none" stroke="#480a14" stroke-linecap="round" stroke-linejoin="round" stroke-width="1.0"/>
      <path d="M50.5 27.8 Q52.05 28.0 53.05 29.2 L53.35 29.8 Q54.1 31.05 53.9 32.65 L53.75 33.75 53.7 33.95 Q53.3 35.15 52.25 36.0 L51.55 36.55 50.15 37.15 49.65 37.25 49.0 37.25 Q47.1 37.15 46.0 35.7 44.9 34.25 45.05 32.3 45.3 30.45 46.5 29.15 L46.75 28.95 Q47.85 27.95 49.2 27.8 L50.05 27.75 50.5 27.8 M18.25 23.1 L18.65 22.75 Q21.2 20.55 24.6 20.7 L24.9 20.75 Q28.15 21.0 30.35 23.25 32.75 25.7 32.6 29.0 L32.6 29.35 32.6 29.4 32.25 31.1 Q31.6 33.0 29.95 34.4 L29.9 34.45 Q27.4 36.7 23.95 36.5 20.5 36.35 18.2 33.95 15.8 31.5 15.95 28.3 L16.1 27.1 Q16.45 25.1 17.8 23.6 L18.25 23.1" fill="none" stroke="#430c0c" stroke-linecap="round" stroke-linejoin="round" stroke-width="1.0"/>
      <path d="M38.25 43.95 L36.65 43.9 36.2 43.8 34.05 43.3 33.05 42.9 32.65 42.7 31.5 42.05 31.45 42.0 29.75 40.7 29.65 40.55 29.15 39.9 28.7 39.45 M31.6 39.25 L32.0 39.55 32.2 40.4 Q32.15 41.3 31.45 42.0 M29.65 40.55 L30.1 40.05 Q30.8 39.3 31.4 39.2 L31.55 39.25 31.6 39.25 M38.25 43.95 L39.55 43.85 39.65 43.8 40.75 43.7" fill="none" stroke="#720400" stroke-linecap="round" stroke-linejoin="round" stroke-width="1.0"/>
    </g>
    <g id="shape2" transform="matrix(1.0, 0.0, 0.0, 1.0, 0.0, 0.0)">
      <path d="M50.5 0.0 Q53.95 0.0 53.95 3.3 L53.95 50.15 Q53.95 53.4 50.5 53.4 L3.3 53.4 Q0.0 53.4 0.0 50.15 L0.0 3.3 Q0.0 0.0 3.3 0.0 L50.5 0.0" fill="#000000" fill-opacity="0.003921569" fill-rule="evenodd" stroke="none"/>
    </g>
  </defs>
</svg>
