<?xml version="1.0" encoding="UTF-8" standalone="no"?>
<svg xmlns:ffdec="https://www.free-decompiler.com/flash" xmlns:xlink="http://www.w3.org/1999/xlink" ffdec:objectType="frame" height="57.2px" width="57.7px" xmlns="http://www.w3.org/2000/svg">
  <g transform="matrix(1.0, 0.0, 0.0, 1.0, 1.9, 2.0)">
    <clipPath id="clipPath0" transform="matrix(1.0, 0.0, 0.0, 1.0, 0.0, 0.0)">
      <path d="M50.5 0.0 Q53.95 0.0 53.95 3.3 L53.95 50.15 Q53.95 53.4 50.5 53.4 L3.3 53.4 Q0.0 53.4 0.0 50.15 L0.0 3.3 Q0.0 0.0 3.3 0.0 L50.5 0.0" fill="#000000" fill-rule="evenodd" stroke="none"/>
    </clipPath>
    <g clip-path="url(#clipPath0)">
      <use ffdec:characterId="2" height="57.2" transform="matrix(1.0, 0.0, 0.0, 1.0, -1.9, -2.0)" width="57.7" xlink:href="#shape1"/>
    </g>
    <use ffdec:characterId="3" height="53.4" transform="matrix(1.0, 0.0, 0.0, 1.0, 0.0, 0.0)" width="53.95" xlink:href="#shape2"/>
  </g>
  <defs>
    <g id="shape1" transform="matrix(1.0, 0.0, 0.0, 1.0, 1.9, 2.0)">
      <path d="M-1.4 0.35 Q3.4 -1.5 6.85 -1.5 L7.15 -1.5 14.45 1.55 14.95 1.75 20.4 4.15 21.3 4.55 20.3 4.8 14.45 2.25 8.75 -0.1 9.55 1.8 10.4 3.45 7.85 2.05 6.95 1.4 6.4 1.5 1.95 2.05 1.9 2.15 1.75 2.2 1.75 7.8 1.7 7.8 1.6 7.95 0.6 5.45 -0.4 2.95 -0.55 2.75 -1.4 5.5 -1.4 0.35" fill="#b9a697" fill-rule="evenodd" stroke="none"/>
      <path d="M31.05 2.7 L31.2 2.65 31.4 2.7 31.7 2.95 34.7 6.0 39.5 11.35 44.35 17.25 45.1 18.15 46.0 19.35 46.05 19.75 45.8 20.8 45.65 21.4 45.6 20.65 45.6 20.55 45.15 19.95 41.45 15.65 37.2 11.25 35.7 9.75 35.3 9.55 34.7 8.55 33.75 7.05 31.05 2.7 M48.9 49.7 L49.7 50.1 51.4 51.05 51.4 51.3 51.25 52.05 51.0 51.95 50.0 51.55 48.65 51.25 47.6 51.15 47.75 51.0 47.85 50.9 48.9 49.85 48.9 49.7 M54.9 53.1 L55.3 53.35 55.3 54.7 55.1 54.7 53.7 53.55 53.65 53.45 54.9 53.1 M50.05 54.7 L38.75 54.7 39.0 53.95 Q39.5 52.7 40.25 51.6 L41.85 51.15 44.25 50.3 44.45 50.5 45.2 51.15 46.0 51.85 46.2 52.15 50.05 54.7 M28.85 54.7 L28.7 54.7 28.6 54.45 28.85 54.7 M3.1 54.7 L-1.4 54.7 -1.4 47.25 -0.75 48.95 1.15 52.0 1.5 52.45 1.7 52.65 1.65 52.65 3.1 54.7 M-1.4 42.85 L-1.4 20.95 1.1 21.9 2.05 21.05 2.85 20.1 Q4.1 23.6 5.05 28.2 L6.35 36.7 5.85 38.05 Q3.25 38.5 1.45 39.6 -0.75 41.0 -1.4 42.85 M-1.4 14.55 L-1.4 12.45 -0.05 14.15 -0.95 14.4 -1.15 14.45 -1.4 14.55 M-0.75 27.0 Q-0.75 28.45 -0.05 29.6 0.85 31.05 2.25 31.05 2.9 31.05 3.2 30.7 3.55 30.25 3.55 29.25 3.55 27.2 2.8 25.1 L2.65 24.65 Q2.05 24.05 1.5 24.05 1.0 24.05 0.3 24.6 -0.75 25.45 -0.75 27.0 M34.1 27.75 L33.2 28.0 32.85 28.0 31.35 27.65 Q30.35 27.25 28.95 26.45 L28.45 26.15 Q25.0 24.1 21.35 20.95 13.65 14.2 9.15 6.15 L8.55 5.0 7.55 2.95 14.6 6.25 15.55 6.75 16.0 7.0 21.5 9.9 21.9 13.45 22.3 15.65 22.55 16.65 Q22.85 18.15 23.3 19.2 L24.75 20.65 27.5 23.1 29.45 24.7 29.5 24.75 30.65 25.65 31.4 26.2 32.85 27.25 33.85 27.65 34.1 27.75" fill="#d3514f" fill-rule="evenodd" stroke="none"/>
      <path d="M21.3 4.55 L21.35 4.75 21.7 6.25 18.4 6.3 18.7 5.2 18.65 5.2 18.7 5.2 18.4 6.3 18.35 6.3 13.25 3.8 10.45 1.1 18.65 5.2 20.3 4.8 21.3 4.55 M51.4 51.05 L51.8 51.3 52.1 51.45 54.9 53.1 53.65 53.45 53.35 53.55 51.0 54.35 50.85 54.45 50.7 54.45 51.0 53.1 51.1 52.65 51.25 52.05 51.4 51.3 51.4 51.05 M-1.4 20.95 L-1.4 17.8 -0.35 19.15 Q0.75 20.4 2.05 21.05 L1.1 21.9 -1.4 20.95 M-1.4 15.75 L-1.4 14.55 -1.15 14.45 -0.95 14.4 -1.4 15.75 M-1.4 10.4 L-1.4 9.8 -0.05 11.05 0.15 11.85 -1.4 10.4 M45.15 19.95 Q45.0 22.9 43.35 24.3 42.15 25.3 40.35 25.3 38.35 25.3 36.1 23.95 L34.7 23.0 32.2 20.7 30.4 18.45 29.35 16.7 Q28.25 14.6 28.25 13.25 28.25 11.4 29.15 10.45 L29.35 10.3 Q30.2 9.6 31.6 9.6 L34.7 10.05 34.8 10.1 Q35.85 10.45 37.2 11.25 L41.45 15.65 45.15 19.95 M36.7 11.95 L35.95 11.7 35.65 11.75 Q34.85 12.25 35.25 13.0 L36.5 14.7 38.1 16.2 Q38.6 16.55 39.05 16.05 L39.1 15.9 39.2 15.4 Q39.2 14.5 38.05 13.2 L36.7 11.95 M16.15 6.6 L16.2 6.65 16.0 7.0 15.55 6.75 16.15 6.6 M5.25 10.3 L5.0 11.05 0.15 11.85 -0.05 11.05 5.25 10.3" fill="#463b37" fill-rule="evenodd" stroke="none"/>
      <path d="M25.65 8.3 L27.55 8.15 27.9 8.15 30.45 8.25 32.65 8.6 34.7 9.25 35.3 9.55 35.7 9.75 37.2 11.25 Q35.85 10.45 34.8 10.1 L34.7 10.05 31.6 9.6 Q30.2 9.6 29.35 10.3 L29.15 10.45 Q28.25 11.4 28.25 13.25 28.25 14.6 29.35 16.7 L30.4 18.45 32.2 20.7 34.7 23.0 36.1 23.95 Q38.35 25.3 40.35 25.3 42.15 25.3 43.35 24.3 45.0 22.9 45.15 19.95 L45.6 20.55 45.6 20.65 45.65 21.4 45.7 23.2 45.7 24.75 45.65 25.1 45.6 26.2 45.55 26.95 44.7 27.4 44.55 27.5 43.85 27.75 Q41.5 28.55 38.2 28.55 L36.55 28.4 36.15 28.3 34.1 27.75 33.85 27.65 32.85 27.25 31.4 26.2 30.65 25.65 29.5 24.5 27.8 22.7 Q26.05 20.75 24.75 18.45 23.45 16.2 23.05 13.6 22.65 11.05 23.6 8.75 L23.9 8.65 25.65 8.3 M46.1 38.8 L46.2 40.3 45.35 42.15 45.15 42.65 43.2 40.75 41.3 39.0 40.95 38.7 40.65 38.95 Q39.75 39.65 38.5 41.6 L38.3 41.8 36.35 45.15 36.3 45.3 35.75 44.75 35.65 44.6 33.5 42.6 31.4 40.8 29.95 39.6 27.65 42.8 27.4 43.15 26.9 43.95 26.55 44.55 21.9 42.45 20.5 41.8 18.2 40.65 16.75 39.9 16.95 39.45 16.95 39.4 17.25 38.5 17.55 37.4 18.05 35.1 Q17.7 32.6 16.6 31.2 15.65 30.1 14.5 29.65 L13.8 29.5 14.25 28.9 14.55 28.45 15.4 28.6 15.55 28.6 18.2 28.85 18.75 28.9 19.65 28.95 21.2 29.15 22.55 30.25 22.95 30.65 22.7 31.1 Q21.85 32.85 21.85 34.55 21.85 36.0 22.7 37.25 L23.25 37.9 Q24.35 38.95 26.05 38.95 28.45 38.95 29.65 37.35 L29.95 36.85 30.75 37.6 36.15 38.2 38.45 38.15 39.2 38.1 39.35 38.1 39.7 37.2 39.75 37.0 40.1 35.95 40.5 33.4 40.5 33.0 40.25 30.95 40.2 30.7 41.3 30.55 41.15 31.25 Q40.85 32.4 40.85 33.6 L40.85 34.0 40.95 35.75 41.05 36.1 41.3 37.2 41.55 37.75 42.35 37.55 42.75 37.45 42.75 37.5 42.75 37.85 43.2 39.25 Q43.7 40.2 44.55 40.2 L44.6 40.2 Q45.4 40.2 45.9 39.2 L46.1 38.8" fill="#302521" fill-rule="evenodd" stroke="none"/>
      <path d="M21.7 6.25 L21.8 6.25 25.35 8.15 25.65 8.3 23.9 8.65 23.6 8.75 Q22.05 9.1 21.45 9.4 L21.5 9.9 16.0 7.0 16.2 6.65 16.15 6.6 13.25 3.8 18.35 6.3 18.4 6.3 21.7 6.25 M29.9 2.9 L30.1 2.85 31.05 2.7 33.75 7.05 34.7 8.55 35.3 9.55 34.7 9.25 32.65 8.6 30.45 8.25 30.25 6.3 29.9 2.9 M46.05 19.75 L46.2 20.65 46.45 22.05 47.1 24.75 47.8 26.75 Q48.2 27.65 49.05 28.75 L48.5 30.3 48.1 29.9 48.05 29.8 47.6 29.3 47.0 28.65 46.4 28.0 44.7 28.7 44.6 28.75 44.55 28.75 41.85 29.4 41.3 30.55 40.2 30.7 39.9 29.65 38.5 29.7 36.15 29.6 34.95 29.4 33.15 29.15 28.35 28.15 27.05 27.65 26.45 27.4 26.4 27.35 24.65 26.2 22.7 24.95 22.55 24.85 22.45 24.75 19.7 23.05 18.1 21.85 Q15.6 20.3 12.75 20.3 L11.65 20.4 10.65 20.45 5.7 4.8 5.55 4.35 5.35 3.75 5.7 3.55 7.15 2.95 7.35 2.85 7.4 2.85 7.5 2.95 7.55 2.95 8.55 5.0 9.15 6.15 Q13.65 14.2 21.35 20.95 25.0 24.1 28.45 26.15 L28.95 26.45 Q30.35 27.25 31.35 27.65 L32.85 28.0 33.2 28.0 34.1 27.75 36.15 28.3 36.55 28.4 38.2 28.55 Q41.5 28.55 43.85 27.75 L44.55 27.5 44.7 27.4 45.55 26.95 45.6 26.2 45.65 25.1 45.7 24.75 45.7 23.2 45.65 21.4 45.8 20.8 46.05 19.75 M38.75 54.7 L31.8 54.7 32.1 54.4 34.3 52.35 39.95 51.7 40.25 51.6 Q39.5 52.7 39.0 53.95 L38.75 54.7 M-1.4 12.45 L-1.4 10.4 0.15 11.85 5.0 11.05 5.25 10.3 4.4 5.7 4.85 5.4 6.0 11.1 7.2 15.65 Q8.05 18.45 9.0 20.65 L9.7 22.1 12.5 22.85 12.9 22.9 12.6 23.5 Q12.15 24.6 12.25 25.75 L12.3 26.15 Q12.45 27.0 13.05 27.55 L13.1 27.65 Q13.8 28.2 14.55 28.45 L14.25 28.9 13.8 29.5 13.05 29.4 Q10.45 29.4 7.55 34.3 L6.35 36.7 5.05 28.2 Q4.1 23.6 2.85 20.1 L3.15 19.7 3.25 19.6 4.45 17.9 2.8 15.75 2.7 15.6 1.15 13.85 -0.05 14.15 -1.4 12.45" fill="#853c36" fill-rule="evenodd" stroke="none"/>
      <path d="M48.5 30.3 L48.25 31.0 48.05 31.6 48.0 31.75 47.05 33.15 46.3 33.85 Q44.6 35.55 42.05 35.5 L42.2 34.35 42.25 32.8 42.05 30.3 41.85 29.4 44.55 28.75 44.6 28.75 44.7 28.7 46.4 28.0 47.0 28.65 47.6 29.3 48.05 29.8 48.1 29.9 48.5 30.3 M50.5 44.2 L49.1 46.1 48.8 46.5 48.55 46.55 48.5 46.6 47.8 47.15 47.9 49.15 47.9 49.4 47.9 50.2 47.85 50.9 47.75 51.0 47.6 51.15 47.5 51.25 46.8 51.95 46.55 51.1 46.45 50.75 46.15 49.4 44.5 50.2 44.25 50.3 41.85 51.15 40.25 51.6 39.95 51.7 34.3 52.35 32.1 54.4 31.8 54.7 29.8 54.7 29.5 53.85 28.75 51.5 28.5 51.4 20.3 48.05 16.65 46.65 15.9 46.35 14.65 46.65 13.05 46.8 12.9 46.8 Q10.25 46.75 8.9 46.1 7.85 45.55 7.85 44.8 7.85 43.0 9.15 39.6 L9.5 38.6 9.85 37.75 11.05 35.25 Q12.55 32.4 14.5 29.65 15.65 30.1 16.6 31.2 17.7 32.6 18.05 35.1 L17.55 37.4 17.25 38.5 16.95 39.4 16.75 39.55 16.45 39.75 15.0 40.9 14.85 40.75 14.7 40.75 Q14.85 40.75 15.0 40.9 15.9 41.65 19.05 43.0 L19.45 43.2 24.1 45.1 25.1 45.55 25.25 45.95 25.45 46.3 25.7 46.95 26.3 48.6 26.3 48.45 27.15 47.3 28.75 44.9 28.95 44.6 29.3 44.05 31.4 40.8 33.5 42.6 35.65 44.6 35.75 44.75 36.3 45.3 36.35 45.15 37.75 46.3 37.9 46.4 38.85 47.15 39.2 46.05 39.35 45.45 41.15 39.5 42.6 41.35 45.6 44.8 46.0 44.05 46.25 43.75 46.1 43.6 47.35 41.25 48.9 38.05 49.75 41.15 49.8 41.35 50.5 44.2 M19.7 23.05 L22.45 24.75 22.55 24.85 22.7 24.95 24.65 26.2 26.4 27.35 26.45 27.4 27.05 27.65 28.35 28.15 33.15 29.15 34.95 29.4 36.15 29.6 38.5 29.7 39.9 29.65 40.2 30.7 40.25 30.95 40.5 33.0 40.5 33.4 40.1 35.95 39.95 35.95 37.85 36.25 32.35 35.5 31.75 35.4 26.9 31.45 24.95 30.05 21.35 27.65 21.25 27.65 20.6 27.6 17.6 27.35 Q13.6 26.7 13.6 23.9 13.6 22.75 13.95 22.0 L14.4 21.85 16.75 22.0 18.4 22.4 19.7 23.05 M46.9 30.15 L46.7 29.8 Q46.2 29.25 45.35 29.25 44.85 29.25 44.2 29.6 43.45 30.05 43.45 30.5 43.45 30.75 43.8 31.05 44.25 31.4 44.85 31.4 45.55 31.4 46.9 30.15 M46.45 49.3 L46.15 49.4 46.45 49.3 M16.25 22.85 Q15.75 23.05 15.75 23.55 L16.4 24.4 18.85 24.75 21.4 25.3 20.3 23.95 Q18.55 22.65 17.15 22.65 L16.25 22.85 M12.9 47.15 L13.1 47.1 13.2 47.25 12.9 47.15 M32.55 32.05 Q32.55 33.55 35.25 33.55 L37.05 33.4 Q38.1 33.0 38.1 31.95 L38.05 31.75 38.0 31.55 37.25 31.1 36.9 30.95 35.3 30.7 Q34.55 30.7 33.65 31.05 32.55 31.5 32.55 32.05 M31.75 45.4 Q31.4 45.4 30.95 45.75 L30.55 46.25 Q30.4 46.55 30.4 46.9 L30.55 47.95 30.65 48.2 30.95 48.8 Q31.4 49.5 31.85 49.5 32.5 49.5 32.75 48.95 L32.9 47.45 32.9 47.25 32.65 45.65 Q32.3 45.4 31.75 45.4 M31.9 52.25 L34.0 52.35 34.3 52.35 34.0 52.35 31.9 52.25" fill="#958375" fill-rule="evenodd" stroke="none"/>
      <path d="M49.15 37.2 L49.25 37.4 Q50.35 38.8 51.5 42.8 L50.5 44.2 49.8 41.35 49.75 41.15 48.9 38.05 49.15 37.2 M48.8 46.5 L48.75 46.55 48.75 46.6 48.8 47.25 48.8 47.8 48.9 49.7 48.9 49.85 47.85 50.9 47.9 50.2 47.9 49.4 47.9 49.15 47.8 47.15 48.5 46.6 48.55 46.55 48.8 46.5 M46.9 30.15 Q45.55 31.4 44.85 31.4 44.25 31.4 43.8 31.05 43.45 30.75 43.45 30.5 43.45 30.05 44.2 29.6 44.85 29.25 45.35 29.25 46.2 29.25 46.7 29.8 L46.9 30.15 M46.1 43.6 L46.25 43.75 46.0 44.05 45.6 44.8 42.6 41.35 41.15 39.5 41.3 39.0 43.2 40.75 45.15 42.65 45.55 43.1 46.1 43.6 M16.25 22.85 L17.15 22.65 Q18.55 22.65 20.3 23.95 L21.4 25.3 18.85 24.75 16.4 24.4 15.75 23.55 Q15.75 23.05 16.25 22.85 M32.55 32.05 Q32.55 31.5 33.65 31.05 34.55 30.7 35.3 30.7 L36.9 30.95 37.25 31.1 38.0 31.55 38.05 31.75 38.1 31.95 Q38.1 33.0 37.05 33.4 L35.25 33.55 Q32.55 33.55 32.55 32.05 M31.75 45.4 Q32.3 45.4 32.65 45.65 L32.9 47.25 32.9 47.45 32.75 48.95 Q32.5 49.5 31.85 49.5 31.4 49.5 30.95 48.8 L30.65 48.2 30.55 47.95 30.4 46.9 Q30.4 46.55 30.55 46.25 L30.95 45.75 Q31.4 45.4 31.75 45.4" fill="#b4a396" fill-rule="evenodd" stroke="none"/>
      <path d="M48.0 31.75 L47.45 33.45 46.65 35.8 46.1 36.15 44.55 36.85 43.9 37.1 43.3 37.3 42.75 37.45 42.35 37.55 41.55 37.75 41.3 37.2 41.05 36.1 40.95 35.75 40.85 34.0 40.85 33.6 Q40.85 32.4 41.15 31.25 L41.3 30.55 41.85 29.4 42.05 30.3 42.25 32.8 42.2 34.35 42.05 35.5 41.95 36.0 41.7 37.3 41.55 37.75 41.7 37.3 41.95 36.0 42.05 35.5 Q44.6 35.55 46.3 33.85 L47.05 33.15 48.0 31.75 M46.2 40.3 L46.45 39.7 47.85 36.85 47.85 36.8 48.2 36.65 Q48.65 36.65 49.15 37.2 L48.9 38.05 47.35 41.25 46.1 43.6 45.55 43.1 45.15 42.65 45.35 42.15 46.2 40.3 M29.8 54.7 L28.85 54.7 28.6 54.45 28.4 54.15 26.2 51.75 20.3 49.75 18.2 49.0 15.45 48.05 13.2 47.25 13.1 47.1 12.9 47.15 Q11.35 47.6 9.35 48.4 L9.0 48.55 6.55 49.55 6.1 49.55 Q4.9 49.55 4.1 48.95 3.75 48.7 3.8 47.95 4.3 43.1 5.4 39.45 L5.85 38.05 6.35 36.7 7.55 34.3 Q10.45 29.4 13.05 29.4 L13.8 29.5 14.5 29.65 Q12.55 32.4 11.05 35.25 L9.85 37.75 9.5 38.6 9.15 39.6 Q7.85 43.0 7.85 44.8 7.85 45.55 8.9 46.1 10.25 46.75 12.9 46.8 L13.05 46.8 14.65 46.65 15.9 46.35 16.65 46.65 20.3 48.05 28.5 51.4 28.75 51.5 29.5 53.85 29.8 54.7 M-1.4 9.8 L-1.4 5.5 -0.55 2.75 -0.4 2.95 0.6 5.45 1.6 7.95 1.7 7.8 1.75 7.8 1.75 2.2 1.9 2.15 1.95 2.05 6.4 1.5 6.95 1.4 7.85 2.05 10.4 3.45 9.55 1.8 8.75 -0.1 14.45 2.25 20.3 4.8 18.65 5.2 10.45 1.1 13.25 3.8 16.15 6.6 15.55 6.75 14.6 6.25 7.55 2.95 7.5 2.95 7.4 2.85 7.35 2.85 7.15 2.95 5.7 3.55 5.35 3.75 4.65 4.1 4.75 4.95 4.85 5.4 4.4 5.7 4.35 5.25 4.75 4.95 4.35 5.25 4.4 5.7 5.25 10.3 -0.05 11.05 -1.4 9.8 M41.15 39.5 L39.35 45.45 39.2 46.05 38.85 47.15 37.9 46.4 37.75 46.3 36.35 45.15 38.3 41.8 38.5 41.6 Q39.75 39.65 40.65 38.95 L40.95 38.7 41.3 39.0 41.15 39.5 M31.4 40.8 L29.3 44.05 28.95 44.6 28.75 44.9 27.15 47.3 26.3 48.45 26.3 48.6 25.7 46.95 25.45 46.3 25.25 45.95 25.1 45.55 24.1 45.1 19.45 43.2 19.05 43.0 Q15.9 41.65 15.0 40.9 14.85 40.75 14.7 40.75 L14.85 40.75 15.0 40.9 16.45 39.75 16.75 39.55 16.95 39.4 16.95 39.45 16.75 39.9 18.2 40.65 20.5 41.8 21.9 42.45 26.55 44.55 26.9 43.95 27.4 43.15 27.65 42.8 29.95 39.6 31.4 40.8 M12.9 22.9 L13.95 22.0 Q13.6 22.75 13.6 23.9 13.6 26.7 17.6 27.35 L20.6 27.6 21.25 27.65 21.35 27.65 24.95 30.05 26.9 31.45 31.75 35.4 32.35 35.5 37.85 36.25 39.95 35.95 40.1 35.95 39.75 37.0 39.7 37.2 39.35 38.1 39.2 38.1 38.45 38.15 36.15 38.2 30.75 37.6 29.95 36.85 28.9 35.9 26.45 33.65 26.0 33.3 23.7 31.25 22.95 30.65 22.55 30.25 21.2 29.15 19.65 28.95 18.75 28.9 18.2 28.85 15.55 28.6 15.4 28.6 14.55 28.45 Q13.8 28.2 13.1 27.65 L13.05 27.55 Q12.45 27.0 12.3 26.15 L12.25 25.75 Q12.15 24.6 12.6 23.5 L12.9 22.9 M14.65 46.65 L13.1 47.1 14.65 46.65 M25.45 46.3 L25.75 45.85 26.55 44.55 25.75 45.85 25.45 46.3 M46.8 51.95 L46.55 52.15 46.0 51.85 45.2 51.15 44.45 50.5 44.25 50.3 44.5 50.2 46.15 49.4 46.45 50.75 46.55 51.1 46.8 51.95" fill="#726159" fill-rule="evenodd" stroke="none"/>
      <path d="M46.1 36.15 L46.05 36.4 43.95 37.55 Q44.15 38.8 44.95 38.6 45.75 38.4 46.05 37.25 L46.05 38.35 Q45.6 39.55 44.65 39.55 L44.1 39.45 43.5 38.65 43.45 38.55 Q43.3 38.0 43.3 37.3 L43.9 37.1 44.55 36.85 46.1 36.15 M23.7 31.25 L26.0 33.3 26.45 33.65 28.9 35.9 28.5 36.65 Q27.8 37.8 26.45 37.8 24.9 37.8 23.9 36.9 L23.8 36.85 Q22.8 35.8 22.8 34.3 22.8 32.35 23.6 31.35 L23.7 31.25 M23.6 32.5 L23.55 32.6 23.35 33.85 Q23.35 35.05 23.95 35.9 L24.3 36.25 Q24.95 36.9 26.1 36.9 L27.45 36.6 27.75 36.35 25.6 34.4 25.45 34.3 23.6 32.5" fill="#1c350b" fill-rule="evenodd" stroke="none"/>
      <path d="M46.05 36.4 L46.05 37.2 46.05 37.25 Q45.75 38.4 44.95 38.6 44.15 38.8 43.95 37.55 L46.05 36.4 M23.6 32.5 L25.45 34.3 25.6 34.4 27.75 36.35 27.45 36.6 26.1 36.9 Q24.95 36.9 24.3 36.25 L23.95 35.9 Q23.35 35.05 23.35 33.85 L23.55 32.6 23.6 32.5" fill="#a6f570" fill-rule="evenodd" stroke="none"/>
      <path d="M46.05 38.35 L46.1 38.8 45.9 39.2 Q45.4 40.2 44.6 40.2 L44.55 40.2 Q43.7 40.2 43.2 39.25 L42.75 37.85 42.75 37.5 42.75 37.45 43.3 37.3 Q43.3 38.0 43.45 38.55 L43.5 38.65 44.1 39.45 44.65 39.55 Q45.6 39.55 46.05 38.35 M22.95 30.65 L23.7 31.25 23.6 31.35 Q22.8 32.35 22.8 34.3 22.8 35.8 23.8 36.85 L23.9 36.9 Q24.9 37.8 26.45 37.8 27.8 37.8 28.5 36.65 L28.9 35.9 29.95 36.85 29.65 37.35 Q28.45 38.95 26.05 38.95 24.35 38.95 23.25 37.9 L22.7 37.25 Q21.85 36.0 21.85 34.55 21.85 32.85 22.7 31.1 L22.95 30.65" fill="#9ac47e" fill-rule="evenodd" stroke="none"/>
      <path d="M36.7 11.95 L38.05 13.2 Q39.2 14.5 39.2 15.4 L39.1 15.9 39.05 16.05 Q38.6 16.55 38.1 16.2 L36.5 14.7 35.25 13.0 Q34.85 12.25 35.65 11.75 L35.95 11.7 36.7 11.95 M36.25 12.15 L36.05 12.2 Q35.9 12.35 35.9 12.8 L36.15 13.5 36.7 13.95 37.1 14.1 37.45 13.95 37.6 13.7 37.3 12.9 36.9 12.55 36.25 12.15" fill="#87756e" fill-rule="evenodd" stroke="none"/>
      <path d="M36.25 12.15 L36.9 12.55 37.3 12.9 37.6 13.7 37.45 13.95 37.1 14.1 36.7 13.95 36.15 13.5 35.9 12.8 Q35.9 12.35 36.05 12.2 L36.25 12.15" fill="#bbaea9" fill-rule="evenodd" stroke="none"/>
      <path d="M27.55 8.15 L28.65 5.4 29.65 3.05 29.85 2.95 29.9 2.9 30.25 6.3 30.45 8.25 27.9 8.15 27.55 8.15 M5.35 3.75 L5.55 4.35 5.7 4.8 10.65 20.45 11.65 20.4 12.75 20.3 Q15.6 20.3 18.1 21.85 L19.7 23.05 18.4 22.4 16.75 22.0 14.4 21.85 13.95 22.0 12.9 22.9 12.5 22.85 9.7 22.1 9.0 20.65 Q8.05 18.45 7.2 15.65 L6.0 11.1 4.85 5.4 4.75 4.95 4.65 4.1 5.35 3.75" fill="#f7524f" fill-rule="evenodd" stroke="none"/>
      <path d="M23.6 8.75 Q22.65 11.05 23.05 13.6 23.45 16.2 24.75 18.45 26.05 20.75 27.8 22.7 L29.5 24.5 30.65 25.65 29.5 24.75 29.45 24.7 27.5 23.1 24.75 20.65 23.3 19.2 Q22.85 18.15 22.55 16.65 L22.3 15.65 21.9 13.45 21.5 9.9 21.45 9.4 Q22.05 9.1 23.6 8.75" fill="#5f2f2d" fill-rule="evenodd" stroke="none"/>
      <path d="M-1.4 17.8 L-1.4 15.75 -0.95 14.4 -0.05 14.15 1.15 13.85 2.7 15.6 2.8 15.75 4.45 17.9 3.25 19.6 3.15 19.7 2.85 20.1 2.05 21.05 Q0.75 20.4 -0.35 19.15 L-1.4 17.8" fill="#564c48" fill-rule="evenodd" stroke="none"/>
      <path d="M-0.75 27.0 Q-0.75 25.45 0.3 24.6 1.0 24.05 1.5 24.05 2.05 24.05 2.65 24.65 L2.8 25.1 Q3.55 27.2 3.55 29.25 3.55 30.25 3.2 30.7 2.9 31.05 2.25 31.05 0.85 31.05 -0.05 29.6 -0.75 28.45 -0.75 27.0" fill="#ec7675" fill-rule="evenodd" stroke="none"/>
      <path d="M13.8 49.75 L11.1 52.5 11.05 52.5 12.25 54.7 3.1 54.7 1.65 52.65 1.7 52.65 1.5 52.45 1.15 52.0 -0.75 48.95 -1.4 47.25 -1.4 42.85 Q-0.75 41.0 1.45 39.6 3.25 38.5 5.85 38.05 L5.4 39.45 Q4.3 43.1 3.8 47.95 3.75 48.7 4.1 48.95 4.9 49.55 6.1 49.55 L6.55 49.55 9.0 48.55 9.25 48.65 Q11.6 49.55 13.8 49.75" fill="#fff6c1" fill-rule="evenodd" stroke="none"/>
      <path d="M15.45 48.05 L14.45 49.1 13.8 49.75 Q11.6 49.55 9.25 48.65 L9.0 48.55 9.35 48.4 Q11.35 47.6 12.9 47.15 L13.2 47.25 15.45 48.05" fill="#d2c994" fill-rule="evenodd" stroke="none"/>
      <path d="M55.1 54.7 L50.05 54.7 46.2 52.15 46.0 51.85 46.55 52.15 46.8 51.95 47.5 51.25 47.6 51.15 48.65 51.25 50.0 51.55 51.0 51.95 51.25 52.05 51.1 52.65 51.0 53.1 50.7 54.45 50.85 54.45 51.0 54.35 53.35 53.55 53.65 53.45 53.7 53.55 55.1 54.7" fill="#e06c6b" fill-rule="evenodd" stroke="none"/>
      <path d="M42.75 37.45 L42.75 37.5 42.75 37.85 43.2 39.25 Q43.7 40.2 44.55 40.2 L44.6 40.2 Q45.4 40.2 45.9 39.2 L46.1 38.8 M46.1 43.6 L46.25 43.75 M43.3 37.3 Q43.3 38.0 43.45 38.55 L43.5 38.65 44.1 39.45 44.65 39.55 Q45.6 39.55 46.05 38.35 M12.9 47.15 L13.1 47.1 M28.9 35.9 L28.5 36.65 Q27.8 37.8 26.45 37.8 24.9 37.8 23.9 36.9 L23.8 36.85 Q22.8 35.8 22.8 34.3 22.8 32.35 23.6 31.35 L23.7 31.25 M22.95 30.65 L22.7 31.1 Q21.85 32.85 21.85 34.55 21.85 36.0 22.7 37.25 L23.25 37.9 Q24.35 38.95 26.05 38.95 28.45 38.95 29.65 37.35 L29.95 36.85" fill="none" stroke="#000000" stroke-linecap="round" stroke-linejoin="round" stroke-width="1.0"/>
      <path d="M45.15 19.95 L41.45 15.65 37.2 11.25 35.7 9.75 35.3 9.55 34.7 9.25 32.65 8.6 30.45 8.25 27.9 8.15 27.55 8.15 M45.65 21.4 L45.7 23.2 45.7 24.75 45.65 25.1 45.6 26.2 45.55 26.95 44.7 27.4 44.55 27.5 43.85 27.75 Q41.5 28.55 38.2 28.55 L36.55 28.4 36.15 28.3 34.1 27.75 33.85 27.65 32.85 27.25 31.4 26.2 30.65 25.65 29.5 24.75 29.45 24.7 27.5 23.1 24.75 20.65 23.3 19.2 Q22.85 18.15 22.55 16.65 L22.3 15.65 21.9 13.45 21.5 9.9 M45.65 21.4 L45.6 20.65 45.6 20.55 45.15 19.95" fill="none" stroke="#17100e" stroke-linecap="round" stroke-linejoin="round" stroke-width="1.0"/>
      <path d="M-1.4 0.35 Q3.4 -1.5 6.85 -1.5 L7.15 -1.5 14.45 1.55 14.95 1.75 20.4 4.15 21.3 4.55 21.35 4.75 21.7 6.25 21.8 6.25 M-0.05 11.05 L-1.4 9.8 M-0.95 14.4 L-1.15 14.45 -1.4 14.55 M-0.05 14.15 L-0.95 14.4 M19.7 23.05 L22.45 24.75 22.55 24.85 22.7 24.95 24.65 26.2 26.4 27.35 26.45 27.4 27.05 27.65 28.35 28.15 33.15 29.15 34.95 29.4 36.15 29.6 38.5 29.7 39.9 29.65 40.2 30.7 40.25 30.95 40.5 33.0 40.5 33.4 40.1 35.95 39.75 37.0 39.7 37.2 39.35 38.1 39.2 38.1 38.45 38.15 36.15 38.2 30.75 37.6 29.95 36.85 28.9 35.9 26.45 33.65 26.0 33.3 23.7 31.25 22.95 30.65 22.55 30.25 21.2 29.15 19.65 28.95 18.75 28.9 18.2 28.85 15.55 28.6 15.4 28.6 14.55 28.45 M41.3 30.55 L41.85 29.4 44.55 28.75 44.6 28.75 44.7 28.7 46.4 28.0 47.0 28.65 47.6 29.3 48.05 29.8 48.1 29.9 48.5 30.3 M42.05 35.5 L42.2 34.35 42.25 32.8 42.05 30.3 41.85 29.4 M41.3 30.55 L41.15 31.25 Q40.85 32.4 40.85 33.6 L40.85 34.0 40.95 35.75 41.05 36.1 41.3 37.2 41.55 37.75 41.7 37.3 41.95 36.0 42.05 35.5 M43.3 37.3 L43.9 37.1 44.55 36.85 46.1 36.15 M36.35 45.15 L36.3 45.3 35.75 44.75 M35.65 44.6 L33.5 42.6 31.4 40.8 29.95 39.6 27.65 42.8 27.4 43.15 26.9 43.95 26.55 44.55 25.75 45.85 25.45 46.3 M16.95 39.4 L17.25 38.5 17.55 37.4 18.05 35.1 Q17.7 32.6 16.6 31.2 15.65 30.1 14.5 29.65 L13.8 29.5 M41.55 37.75 L42.35 37.55 42.75 37.45 43.3 37.3 M41.3 39.0 L40.95 38.7 40.65 38.95 Q39.75 39.65 38.5 41.6 L38.3 41.8 36.35 45.15 M46.2 40.3 L45.35 42.15 45.15 42.65 45.55 43.1 46.1 43.6 M45.15 42.65 L43.2 40.75 41.3 39.0 M46.15 49.4 L46.45 49.3 M21.3 4.55 L20.3 4.8 18.65 5.2 10.45 1.1 13.25 3.8 16.15 6.6 15.55 6.75 M12.9 22.9 L13.95 22.0 14.4 21.85 16.75 22.0 18.4 22.4 19.7 23.05 M4.75 4.95 L4.35 5.25 4.4 5.7 5.25 10.3 -0.05 11.05 M2.85 20.1 L3.15 19.7 3.25 19.6 4.45 17.9 2.8 15.75 2.7 15.6 1.15 13.85 -0.05 14.15 M2.05 21.05 L2.85 20.1 M-1.4 20.95 L1.1 21.9 2.05 21.05 M13.1 47.1 L14.65 46.65 M26.55 44.55 L21.9 42.45 20.5 41.8 18.2 40.65 16.75 39.9 16.95 39.45 16.95 39.4 M34.3 52.35 L34.0 52.35 31.9 52.25 M51.4 51.05 L51.4 51.3 51.25 52.05 51.1 52.65 51.0 53.1 50.7 54.45 50.85 54.45 51.0 54.35 53.35 53.55 53.65 53.45 54.9 53.1 M46.15 49.4 L44.5 50.2 44.25 50.3" fill="none" stroke="#27201d" stroke-linecap="round" stroke-linejoin="round" stroke-width="1.0"/>
      <path d="M18.65 5.2 L18.7 5.2 18.4 6.3 21.7 6.25 M18.4 6.3 L18.35 6.3 13.25 3.8 M16.15 6.6 L16.2 6.65 16.0 7.0 M4.4 5.7 L4.85 5.4 M5.25 10.3 L5.0 11.05 0.15 11.85 -1.4 10.4 M-0.05 11.05 L0.15 11.85" fill="none" stroke="#332721" stroke-linecap="round" stroke-linejoin="round" stroke-width="1.0"/>
      <path d="M-1.4 47.25 L-0.75 48.95 1.15 52.0 1.5 52.45 1.7 52.65 M1.65 52.65 L3.1 54.7 M5.85 38.05 Q3.25 38.5 1.45 39.6 -0.75 41.0 -1.4 42.85" fill="none" stroke="#8a8151" stroke-linecap="round" stroke-linejoin="round" stroke-width="1.0"/>
      <path d="M25.65 8.3 L27.55 8.15 28.65 5.4 29.65 3.05 29.85 2.95 29.9 2.9 30.1 2.85 31.05 2.7 31.2 2.65 31.4 2.7 31.7 2.95 34.7 6.0 39.5 11.35 44.35 17.25 45.1 18.15 46.0 19.35 46.05 19.75 46.2 20.65 46.45 22.05 47.1 24.75 47.8 26.75 Q48.2 27.65 49.05 28.75 L48.5 30.3 48.25 31.0 48.05 31.6 48.0 31.75 47.45 33.45 46.65 35.8 46.1 36.15 46.05 36.4 46.05 37.2 46.05 37.25 46.05 38.35 46.1 38.8 46.2 40.3 46.45 39.7 47.85 36.85 47.85 36.8 48.2 36.65 Q48.65 36.65 49.15 37.2 L49.25 37.4 Q50.35 38.8 51.5 42.8 L50.5 44.2 49.1 46.1 48.8 46.5 48.75 46.55 48.75 46.6 48.8 47.25 48.8 47.8 48.9 49.7 48.9 49.85 47.85 50.9 47.75 51.0 47.6 51.15 47.5 51.25 46.8 51.95 46.55 52.15 46.0 51.85 45.2 51.15 44.45 50.5 44.25 50.3 41.85 51.15 40.25 51.6 39.95 51.7 34.3 52.35 32.1 54.4 31.8 54.7 M28.6 54.45 L28.4 54.15 26.2 51.75 20.3 49.75 18.2 49.0 15.45 48.05 13.2 47.25 12.9 47.15 Q11.35 47.6 9.35 48.4 L9.0 48.55 6.55 49.55 6.1 49.55 Q4.9 49.55 4.1 48.95 3.75 48.7 3.8 47.95 4.3 43.1 5.4 39.45 L5.85 38.05 6.35 36.7 7.55 34.3 Q10.45 29.4 13.05 29.4 L13.8 29.5 14.25 28.9 14.55 28.45 Q13.8 28.2 13.1 27.65 L13.05 27.55 Q12.45 27.0 12.3 26.15 L12.25 25.75 Q12.15 24.6 12.6 23.5 L12.9 22.9 12.5 22.85 9.7 22.1 9.0 20.65 Q8.05 18.45 7.2 15.65 L6.0 11.1 4.85 5.4 4.75 4.95 4.65 4.1 5.35 3.75 5.7 3.55 7.15 2.95 7.35 2.85 7.4 2.85 7.5 2.95 7.55 2.95 14.6 6.25 15.55 6.75 16.0 7.0 21.5 9.9 21.45 9.4 Q22.05 9.1 23.6 8.75 L23.9 8.65 25.65 8.3 M28.85 54.7 L28.6 54.45" fill="none" stroke="#251b18" stroke-linecap="round" stroke-linejoin="round" stroke-width="1.0"/>
      <path d="M21.8 6.25 L25.35 8.15 25.65 8.3 M15.45 48.05 L14.45 49.1 13.8 49.75 11.1 52.5" fill="none" stroke="#3c1511" stroke-linecap="round" stroke-linejoin="round" stroke-width="1.0"/>
      <path d="M48.9 49.7 L49.7 50.1 51.4 51.05 51.8 51.3 52.1 51.45 54.9 53.1 55.3 53.35 M28.7 54.7 L28.6 54.45 M11.05 52.5 L12.25 54.7" fill="none" stroke="#41110d" stroke-linecap="round" stroke-linejoin="round" stroke-width="1.0"/>
    </g>
    <g id="shape2" transform="matrix(1.0, 0.0, 0.0, 1.0, 0.0, 0.0)">
      <path d="M50.5 0.0 Q53.95 0.0 53.95 3.3 L53.95 50.15 Q53.95 53.4 50.5 53.4 L3.3 53.4 Q0.0 53.4 0.0 50.15 L0.0 3.3 Q0.0 0.0 3.3 0.0 L50.5 0.0" fill="#000000" fill-opacity="0.003921569" fill-rule="evenodd" stroke="none"/>
    </g>
  </defs>
</svg>
