<?xml version="1.0" encoding="UTF-8" standalone="no"?>
<svg xmlns:ffdec="https://www.free-decompiler.com/flash" xmlns:xlink="http://www.w3.org/1999/xlink" ffdec:objectType="frame" height="56.35px" width="56.8px" xmlns="http://www.w3.org/2000/svg">
  <g transform="matrix(1.0, 0.0, 0.0, 1.0, 0.95, 1.9)">
    <clipPath id="clipPath0" transform="matrix(1.0, 0.0, 0.0, 1.0, 0.0, 0.0)">
      <path d="M50.5 0.0 Q53.95 0.0 53.95 3.3 L53.95 50.15 Q53.95 53.4 50.5 53.4 L3.3 53.4 Q0.0 53.4 0.0 50.15 L0.0 3.3 Q0.0 0.0 3.3 0.0 L50.5 0.0" fill="#000000" fill-rule="evenodd" stroke="none"/>
    </clipPath>
    <g clip-path="url(#clipPath0)">
      <use ffdec:characterId="2" height="56.35" transform="matrix(1.0, 0.0, 0.0, 1.0, -0.95, -1.9)" width="56.8" xlink:href="#shape1"/>
    </g>
    <use ffdec:characterId="3" height="53.4" transform="matrix(1.0, 0.0, 0.0, 1.0, 0.0, 0.0)" width="53.95" xlink:href="#shape2"/>
  </g>
  <defs>
    <g id="shape1" transform="matrix(1.0, 0.0, 0.0, 1.0, 0.95, 1.9)">
      <path d="M8.5 -1.4 L9.2 -1.4 8.55 -1.2 8.5 -1.4" fill="#7bdaff" fill-rule="evenodd" stroke="none"/>
      <path d="M8.5 -1.4 L8.55 -1.2 Q3.95 0.25 -0.1 2.55 L-0.45 2.75 -0.45 -1.4 8.5 -1.4" fill="#aae7ff" fill-rule="evenodd" stroke="none"/>
      <path d="M8.55 -1.2 L9.2 -1.4 10.45 -1.4 10.7 1.55 Q5.4 3.6 1.2 6.4 0.3 4.15 -0.1 2.55 3.95 0.25 8.55 -1.2" fill="#74d6fb" fill-rule="evenodd" stroke="none"/>
      <path d="M-0.45 7.55 L-0.45 2.75 -0.1 2.55 Q0.3 4.15 1.2 6.4 L-0.45 7.55" fill="#72d5ff" fill-rule="evenodd" stroke="none"/>
      <path d="M44.95 -1.4 L46.1 -1.4 45.7 -0.35 44.9 1.3 43.4 3.65 42.6 2.95 43.55 1.55 44.2 0.4 44.75 -0.75 44.95 -1.4" fill="#8ad3fe" fill-rule="evenodd" stroke="none"/>
      <path d="M45.75 17.3 L46.3 17.65 49.5 19.95 Q53.0 22.7 55.35 26.5 L55.35 31.5 53.65 33.0 53.5 32.0 53.45 31.85 53.4 31.8 53.0 31.55 Q50.8 30.05 49.65 28.5 L49.6 28.45 48.8 27.15 Q48.5 26.5 48.35 25.85 L48.25 25.45 48.2 24.65 48.2 24.6 47.9 24.3 47.35 23.8 47.15 23.6 47.05 23.5 46.5 23.05 45.75 22.35 45.45 22.1 44.65 21.45 44.65 21.15 Q44.7 19.75 45.1 18.65 L45.55 17.65 45.75 17.3 M51.1 34.7 L51.9 34.25 53.6 33.0 53.65 33.0 51.55 34.55 48.6 36.15 47.6 36.6 46.75 35.45 46.55 34.25 47.55 34.4 48.5 34.6 50.3 35.05 50.9 34.8 51.1 34.7" fill="#adebff" fill-rule="evenodd" stroke="none"/>
      <path d="M55.35 31.5 L55.35 39.1 54.25 39.7 Q53.5 40.1 52.65 40.45 L52.7 40.35 Q53.45 39.4 53.65 38.45 L52.35 38.65 52.3 38.65 Q49.4 38.65 47.6 36.6 L48.6 36.15 51.55 34.55 53.65 33.0 55.35 31.5" fill="#9eebff" fill-rule="evenodd" stroke="none"/>
      <path d="M55.35 45.1 L55.35 46.05 52.1 45.5 52.05 45.15 52.0 44.7 52.1 44.7 53.5 44.9 55.35 45.1" fill="#a3e4ff" fill-rule="evenodd" stroke="none"/>
      <path d="M55.35 39.1 L55.35 43.9 53.5 44.9 52.1 44.7 52.0 44.7 51.8 43.5 51.25 41.7 52.65 40.45 Q53.5 40.1 54.25 39.7 L55.35 39.1 M46.2 41.85 L46.35 41.9 46.25 41.9 46.2 41.85" fill="#77c9f8" fill-rule="evenodd" stroke="none"/>
      <path d="M55.35 43.9 L55.35 45.1 53.5 44.9 55.35 43.9" fill="#6eb1ff" fill-rule="evenodd" stroke="none"/>
      <path d="M16.85 -0.6 L19.5 -1.4 23.65 -1.4 22.1 -0.9 Q18.0 0.55 13.85 2.4 L16.35 0.7 16.85 -0.6" fill="#b7f6ff" fill-rule="evenodd" stroke="none"/>
      <path d="M23.65 -1.4 L27.1 -1.4 29.75 -0.35 29.05 0.45 29.9 -0.3 32.75 1.4 32.95 1.55 32.7 2.45 31.45 5.8 30.15 8.3 29.3 9.65 28.25 11.05 27.65 11.75 27.6 11.85 26.95 9.6 26.6 8.55 Q25.15 4.0 23.4 1.05 L22.1 -0.9 23.65 -1.4 M37.1 5.1 L37.45 5.45 Q39.4 7.6 40.9 10.15 L41.85 11.75 Q40.6 12.25 39.45 13.0 L39.05 13.25 37.75 14.3 37.8 14.0 37.85 13.4 37.95 11.35 37.95 10.4 37.85 8.85 37.85 8.65 37.1 5.1" fill="#b7effe" fill-rule="evenodd" stroke="none"/>
      <path d="M27.1 -1.4 L30.7 -1.4 29.8 -0.4 29.75 -0.35 27.1 -1.4" fill="#92e8ff" fill-rule="evenodd" stroke="none"/>
      <path d="M30.7 -1.4 L31.25 -1.4 29.95 -0.35 29.9 -0.3 29.05 0.45 29.75 -0.35 29.8 -0.4 30.7 -1.4 M38.15 -1.4 L39.05 -1.4 40.1 0.15 40.2 0.3 41.5 1.75 42.35 2.65 42.6 2.95 43.4 3.65 44.15 4.3 45.85 5.45 46.05 5.95 46.8 9.55 47.0 10.75 46.1 11.15 Q45.95 8.5 45.35 6.7 L45.35 6.6 45.1 6.05 43.35 5.0 42.7 4.6 41.85 3.9 41.55 3.7 40.6 2.65 40.35 2.25 39.25 0.4 38.4 -0.95 38.3 -1.1 38.15 -1.4" fill="#c6f5ff" fill-rule="evenodd" stroke="none"/>
      <path d="M31.25 -1.4 L38.15 -1.4 38.3 -1.1 38.4 -0.95 39.25 0.4 40.35 2.25 40.6 2.65 39.55 3.55 37.45 5.45 37.1 5.1 35.6 1.55 34.55 0.0 33.6 -1.0 33.25 -1.25 32.95 1.55 32.75 1.4 29.9 -0.3 29.95 -0.35 31.25 -1.4" fill="#8bdcf7" fill-rule="evenodd" stroke="none"/>
      <path d="M25.0 28.55 L25.0 28.5 25.2 28.25 25.8 28.15 26.0 28.25 26.1 28.35 26.2 28.55 26.15 28.75 26.05 28.95 Q25.85 29.25 25.45 29.25 L25.4 29.25 25.15 29.2 25.1 29.2 24.95 28.85 24.95 28.75 25.0 28.55" fill="#f0ffff" fill-rule="evenodd" stroke="none"/>
      <path d="M39.05 -1.4 L42.3 -1.4 40.1 0.15 39.05 -1.4" fill="#7acefd" fill-rule="evenodd" stroke="none"/>
      <path d="M49.3 -1.4 L51.0 -1.4 51.15 2.05 51.15 2.55 51.15 2.65 50.65 5.8 50.0 8.05 49.7 8.8 49.4 9.05 49.2 9.2 48.8 9.6 48.35 9.9 47.65 10.35 47.75 10.0 47.8 9.9 48.95 4.75 49.3 -0.45 49.3 -1.4" fill="#bbfcfe" fill-rule="evenodd" stroke="none"/>
      <path d="M42.3 -1.4 L44.95 -1.4 44.75 -0.75 44.2 0.4 43.55 1.55 42.6 2.95 42.35 2.65 41.5 1.75 40.2 0.3 40.1 0.15 42.3 -1.4" fill="#96dcfe" fill-rule="evenodd" stroke="none"/>
      <path d="M46.1 -1.4 L49.3 -1.4 49.3 -0.45 48.95 4.75 48.05 2.9 48.0 2.8 Q46.8 0.45 45.7 -0.35 L46.1 -1.4" fill="#a6dcfe" fill-rule="evenodd" stroke="none"/>
      <path d="M43.4 3.65 L44.9 1.3 45.7 -0.35 Q46.8 0.45 48.0 2.8 L48.05 2.9 46.7 5.1 46.05 5.95 45.85 5.45 44.15 4.3 43.4 3.65" fill="#9de2ff" fill-rule="evenodd" stroke="none"/>
      <path d="M46.05 5.95 L46.7 5.1 48.05 2.9 48.95 4.75 47.8 9.9 47.75 10.0 47.65 10.35 47.0 10.75 46.8 9.55 46.05 5.95" fill="#afe7fe" fill-rule="evenodd" stroke="none"/>
      <path d="M37.45 5.45 L39.55 3.55 40.6 2.65 41.55 3.7 41.85 3.9 42.7 4.6 43.35 5.0 45.1 6.05 45.35 6.6 45.35 6.7 Q45.95 8.5 46.1 11.15 L45.1 11.5 45.0 11.5 44.95 11.5 44.55 11.6 42.7 11.8 42.1 11.75 41.9 11.7 41.85 11.75 40.9 10.15 Q39.4 7.6 37.45 5.45" fill="#aee9fb" fill-rule="evenodd" stroke="none"/>
      <path d="M-0.45 33.1 L-0.45 26.5 0.35 25.6 0.55 25.4 0.65 25.45 1.9 26.35 1.95 26.4 1.95 26.5 2.0 26.95 2.3 26.65 4.65 28.2 Q6.5 29.3 8.3 29.85 7.9 31.05 6.85 32.1 L6.75 32.15 6.45 32.5 6.4 32.55 Q4.2 34.4 0.8 34.4 L-0.3 34.25 -0.35 33.25 -0.3 32.8 -0.45 33.1 M-0.45 23.6 L-0.45 22.75 0.35 22.15 -0.45 23.6" fill="#89e8fa" fill-rule="evenodd" stroke="none"/>
      <path d="M27.6 11.85 L27.5 11.95 26.6 11.85 24.15 11.75 Q21.85 11.75 20.25 12.45 L19.8 12.7 18.75 10.45 18.6 10.2 Q17.45 8.55 15.9 8.45 L16.1 8.3 17.5 7.3 18.35 6.7 13.45 8.15 16.2 4.85 18.7 2.25 23.4 1.05 Q25.15 4.0 26.6 8.55 L26.95 9.6 27.6 11.85 M19.8 12.8 L20.4 13.45 20.75 14.2 20.0 13.8 19.8 12.8" fill="#c6fbff" fill-rule="evenodd" stroke="none"/>
      <path d="M8.3 29.85 Q6.5 29.3 4.65 28.2 L2.3 26.65 2.8 26.2 Q4.35 24.9 6.3 24.9 7.15 24.9 7.9 25.9 8.6 26.9 8.6 28.15 L8.3 29.85 M1.95 26.4 L1.9 26.35 0.65 25.45 0.7 25.2 Q1.45 22.6 2.95 20.35 L5.5 18.75 8.75 16.95 Q10.1 15.35 12.25 13.85 L12.05 14.15 11.6 15.35 Q11.15 16.9 11.05 18.95 10.4 19.8 10.15 20.75 L9.35 20.75 Q7.4 21.45 6.35 22.0 4.75 22.85 3.75 23.65 2.0 25.0 1.95 26.4 M18.6 10.2 L18.75 10.45 19.8 12.7 19.7 12.75 19.8 12.8 20.0 13.8 20.75 14.2 20.95 15.55 Q20.95 17.0 19.95 18.4 18.75 20.15 16.9 20.15 16.15 20.15 15.6 19.4 14.9 18.55 14.9 16.9 L15.05 16.2 15.1 15.9 Q14.15 16.2 13.1 17.0 L13.05 16.6 Q13.05 14.25 13.3 13.1 L15.15 11.95 15.45 11.8 18.6 10.2" fill="#a8f7fc" fill-rule="evenodd" stroke="none"/>
      <path d="M-0.45 22.75 L-0.45 17.8 Q0.9 15.55 2.55 13.4 L2.65 13.25 3.65 11.95 5.5 9.85 6.85 8.4 10.6 4.95 10.9 4.7 11.2 4.6 16.0 3.05 18.7 2.25 16.2 4.85 13.45 8.15 18.35 6.7 17.5 7.3 16.1 8.3 15.9 8.45 Q17.45 8.55 18.6 10.2 L15.45 11.8 15.15 11.95 13.3 13.1 13.35 12.9 13.5 12.2 Q12.7 12.95 12.25 13.85 10.1 15.35 8.75 16.95 L5.5 18.75 2.95 20.35 Q1.6 21.2 0.35 22.15 L-0.45 22.75" fill="#e5fdfd" fill-rule="evenodd" stroke="none"/>
      <path d="M23.4 1.05 L18.7 2.25 16.0 3.05 11.2 4.6 10.9 4.7 11.15 4.45 13.85 2.4 Q18.0 0.55 22.1 -0.9 L23.4 1.05" fill="#c9f8fe" fill-rule="evenodd" stroke="none"/>
      <path d="M10.7 1.55 L10.75 1.5 10.8 1.5 11.05 1.4 16.85 -0.6 16.35 0.7 13.85 2.4 11.15 4.45 10.9 4.7 10.6 4.95 6.85 8.4 6.4 8.2 4.8 7.05 7.6 4.05 Q9.15 2.55 10.7 1.55" fill="#d5f7ff" fill-rule="evenodd" stroke="none"/>
      <path d="M-0.45 17.8 L-0.45 14.5 -0.3 14.25 -0.15 14.0 1.7 11.1 2.65 9.8 4.8 7.05 6.4 8.2 6.85 8.4 5.5 9.85 3.65 11.95 2.65 13.25 2.55 13.4 Q0.9 15.55 -0.45 17.8" fill="#d4fafd" fill-rule="evenodd" stroke="none"/>
      <path d="M-0.45 14.0 L-0.45 7.55 1.2 6.4 Q5.4 3.6 10.7 1.55 9.15 2.55 7.6 4.05 L4.8 7.05 2.65 9.8 1.7 11.1 -0.15 14.0 -0.25 14.0 -0.45 14.0" fill="#d6ffff" fill-rule="evenodd" stroke="none"/>
      <path d="M-0.45 26.5 L-0.45 23.6 0.35 22.15 Q1.6 21.2 2.95 20.35 1.45 22.6 0.7 25.2 L0.65 25.45 0.55 25.4 0.35 25.6 -0.45 26.5" fill="#c7fffe" fill-rule="evenodd" stroke="none"/>
      <path d="M-0.45 47.35 L-0.45 45.25 0.05 46.3 0.6 47.25 -0.15 47.35 -0.45 47.35 M8.75 42.5 L9.95 42.45 Q10.35 43.35 11.05 44.0 L10.9 44.0 9.9 43.95 7.5 43.55 6.7 43.3 5.9 43.0 Q5.05 42.65 4.35 42.15 L8.1 42.55 8.75 42.5" fill="#28bcfc" fill-rule="evenodd" stroke="none"/>
      <path d="M-0.45 14.5 L-0.45 14.0 -0.25 14.0 -0.15 14.0 -0.3 14.25 -0.45 14.5" fill="#b6f9ff" fill-rule="evenodd" stroke="none"/>
      <path d="M51.15 49.95 L50.35 51.4 49.8 52.25 48.85 53.5 48.9 53.95 46.8 53.95 47.1 52.85 47.35 50.95 47.35 49.45 47.35 49.15 48.4 49.7 49.5 50.05 50.45 50.15 51.15 49.95 M36.5 18.75 L36.45 18.75 36.45 18.7 36.5 18.75 M46.55 34.25 L46.75 35.45 47.6 36.6 Q49.4 38.65 52.3 38.65 L50.9 40.2 49.65 41.1 48.1 40.1 Q46.65 39.2 45.25 38.7 L45.1 37.6 44.5 35.95 43.45 34.55 42.85 34.8 42.8 34.8 43.3 35.5 Q43.9 36.45 44.15 37.95 L44.2 38.35 44.0 38.3 43.4 38.2 41.75 38.05 40.25 38.15 39.55 35.7 38.75 34.2 38.0 35.3 37.95 35.4 38.4 36.1 Q38.9 37.05 39.2 38.4 L37.3 39.1 36.0 39.7 Q35.0 40.15 33.95 40.85 L32.25 42.1 Q31.15 43.0 30.55 43.85 29.05 42.95 27.3 41.65 L26.9 41.7 25.95 41.75 25.9 41.75 23.05 41.5 23.0 43.2 23.05 44.8 22.35 44.2 21.25 42.75 21.15 42.5 Q20.7 41.65 20.55 40.65 L20.4 39.0 20.4 38.75 20.55 38.05 20.25 37.95 20.0 37.85 19.95 38.0 19.9 38.05 19.75 39.1 19.7 39.55 19.7 40.15 18.9 39.55 18.6 39.25 17.6 38.35 15.85 36.75 15.7 36.65 15.9 36.1 15.65 35.45 15.2 35.2 Q15.05 35.2 14.85 35.35 L14.8 35.4 14.7 35.6 14.45 35.2 13.95 35.0 13.5 34.9 11.8 34.6 11.45 34.65 11.3 34.4 11.1 34.15 9.2 35.15 Q7.9 36.05 7.5 37.05 L7.2 35.5 9.7 33.85 Q11.1 32.35 11.4 30.35 L11.45 29.35 Q11.45 27.95 11.0 26.8 L12.25 26.55 13.7 28.55 14.45 29.15 Q15.3 29.8 16.3 30.2 L18.2 30.75 Q17.85 31.45 17.85 32.3 17.85 34.05 19.55 36.0 L19.9 36.4 20.4 36.85 21.15 37.5 21.8 37.9 Q23.0 38.55 24.25 38.65 L24.55 38.65 25.85 38.4 26.9 38.0 27.0 38.25 27.35 38.8 Q27.85 39.25 28.4 39.25 L29.35 39.05 29.95 38.65 30.05 38.6 30.15 38.7 Q31.55 40.0 33.1 40.65 32.5 39.7 32.5 38.65 L32.5 38.6 Q32.5 37.4 33.4 36.4 33.85 35.95 34.55 35.55 L35.2 35.15 37.2 34.45 37.85 34.3 39.25 34.05 39.7 34.0 41.4 33.9 42.4 33.95 44.6 34.05 44.75 34.05 46.55 34.25 M27.5 11.95 L26.6 13.0 26.6 12.05 26.6 11.85 27.5 11.95 M19.25 23.4 L19.6 23.15 20.9 22.2 23.0 20.35 Q23.05 21.45 23.55 22.95 L23.75 23.45 22.45 23.6 21.15 23.65 19.25 23.4" fill="#32e5fc" fill-rule="evenodd" stroke="none"/>
      <path d="M44.2 38.35 L44.15 37.95 Q43.9 36.45 43.3 35.5 L42.8 34.8 42.85 34.8 43.45 34.55 44.5 35.95 45.1 37.6 45.25 38.7 45.35 40.15 45.25 41.6 45.2 41.7 45.2 41.75 45.2 41.9 45.15 42.1 45.1 42.3 45.0 42.9 44.25 45.5 44.05 46.2 43.8 46.75 42.7 49.0 42.65 46.9 43.15 45.5 43.65 43.8 44.1 41.8 44.15 41.65 44.15 41.55 44.3 40.1 44.25 39.1 44.2 38.35" fill="#e3ffff" fill-rule="evenodd" stroke="none"/>
      <path d="M46.2 41.85 L46.25 41.9 46.55 42.85 46.6 43.1 46.7 43.6 47.0 45.45 47.35 49.15 47.35 49.45 47.35 50.95 47.1 52.85 46.55 53.05 45.5 53.25 Q44.0 53.25 42.45 52.2 41.15 51.35 40.35 50.1 L40.55 47.05 40.55 46.7 42.65 46.9 42.7 49.0 43.8 46.75 44.05 46.2 44.25 45.5 45.0 42.9 45.1 42.3 45.15 42.1 45.2 41.9 45.2 41.75 45.2 41.7 45.25 41.6 45.65 41.6 46.15 41.85 46.2 41.85" fill="#b2fefa" fill-rule="evenodd" stroke="none"/>
      <path d="M52.1 45.6 L52.1 46.25 Q52.1 47.95 51.15 49.95 L50.45 50.15 49.5 50.05 49.6 49.95 50.85 48.45 Q51.75 47.1 52.1 45.6 M45.25 38.7 Q46.65 39.2 48.1 40.1 L49.65 41.1 48.8 41.45 48.5 41.55 47.35 41.85 47.8 43.45 47.85 43.6 47.95 44.25 48.1 45.1 48.4 48.35 48.4 49.7 47.35 49.15 47.0 45.45 46.7 43.6 46.6 43.1 46.55 42.85 46.25 41.9 46.35 41.9 46.2 41.85 45.85 41.2 46.2 41.85 46.15 41.85 45.65 41.6 45.25 41.6 45.35 40.15 45.25 38.7" fill="#62f0fe" fill-rule="evenodd" stroke="none"/>
      <path d="M49.65 41.1 L50.9 40.2 52.3 38.65 52.35 38.65 53.65 38.45 Q53.45 39.4 52.7 40.35 L52.65 40.45 51.25 41.7 51.8 43.5 52.0 44.7 51.6 44.9 51.05 45.2 50.85 45.25 49.7 45.7 48.85 45.45 48.8 45.4 48.1 45.1 47.95 44.25 47.85 43.6 47.8 43.45 47.35 41.85 48.5 41.55 48.8 41.45 49.65 41.1" fill="#8cfeff" fill-rule="evenodd" stroke="none"/>
      <path d="M40.25 38.15 L41.75 38.05 43.4 38.2 44.0 38.3 44.2 38.35 44.25 39.1 44.3 40.1 44.15 41.55 44.15 41.65 44.1 41.8 43.5 41.6 43.45 41.55 43.1 41.5 41.85 41.35 40.55 41.45 40.5 40.15 40.4 39.1 40.25 38.15" fill="#5aeaf3" fill-rule="evenodd" stroke="none"/>
      <path d="M42.65 46.9 L40.55 46.7 40.4 44.5 40.55 43.05 40.55 41.6 40.55 41.5 40.55 41.45 41.85 41.35 43.1 41.5 43.45 41.55 43.5 41.6 44.1 41.8 43.65 43.8 43.15 45.5 42.65 46.9" fill="#baffff" fill-rule="evenodd" stroke="none"/>
      <path d="M37.15 53.95 L36.35 53.95 37.25 51.9 37.3 51.85 37.85 50.45 38.35 48.85 39.05 46.3 39.4 44.3 39.5 42.1 39.5 41.9 39.5 41.75 39.5 40.95 39.5 40.8 39.4 39.75 39.35 39.4 39.2 38.4 Q38.9 37.05 38.4 36.1 L37.95 35.4 38.0 35.3 38.75 34.2 39.55 35.7 40.25 38.15 40.4 39.1 40.5 40.15 40.55 41.45 40.55 41.5 40.55 41.6 40.55 43.05 40.4 44.5 40.05 46.6 38.95 50.3 38.7 50.9 38.5 51.35 38.2 51.95 37.15 53.95" fill="#d7ffff" fill-rule="evenodd" stroke="none"/>
      <path d="M39.5 53.95 L38.75 53.95 38.85 53.0 38.8 51.9 38.8 51.65 38.7 50.9 38.95 50.3 40.05 46.6 40.4 44.5 40.55 46.7 40.55 47.05 40.35 50.1 39.85 52.85 39.6 53.65 39.5 53.95" fill="#6bf6fd" fill-rule="evenodd" stroke="none"/>
      <path d="M52.1 45.5 L52.1 45.6 Q51.75 47.1 50.85 48.45 L49.6 49.95 49.5 50.05 48.4 49.7 48.4 48.35 48.1 45.1 48.8 45.4 48.85 45.45 49.7 45.7 50.85 45.25 51.05 45.2 51.6 44.9 52.0 44.7 52.05 45.15 52.1 45.5" fill="#98fbff" fill-rule="evenodd" stroke="none"/>
      <path d="M12.25 26.55 L11.0 26.8 Q10.45 25.4 9.3 24.45 7.65 23.05 6.0 23.05 L4.5 23.4 3.75 23.65 Q4.75 22.85 6.35 22.0 7.4 21.45 9.35 20.75 L10.15 20.75 Q10.4 19.8 11.05 18.95 L11.0 20.25 Q11.0 24.05 12.25 26.55 M26.6 13.0 L26.05 13.5 25.8 13.75 25.6 13.9 25.5 14.05 24.1 15.55 Q23.1 17.1 23.0 19.45 L23.0 20.05 23.0 20.35 20.9 22.2 19.6 23.15 19.25 23.4 Q17.35 22.9 15.85 21.55 13.25 19.25 13.1 17.0 14.15 16.2 15.1 15.9 L15.05 16.2 14.9 16.9 Q14.9 18.55 15.6 19.4 16.15 20.15 16.9 20.15 18.75 20.15 19.95 18.4 20.95 17.0 20.95 15.55 L20.75 14.2 20.4 13.45 19.8 12.8 19.7 12.75 19.8 12.7 20.25 12.45 Q21.85 11.75 24.15 11.75 L26.6 11.85 26.6 12.05 26.6 13.0" fill="#2ae0f6" fill-rule="evenodd" stroke="none"/>
      <path d="M6.85 32.1 Q7.9 31.05 8.3 29.85 L8.6 28.15 Q8.6 26.9 7.9 25.9 7.15 24.9 6.3 24.9 4.35 24.9 2.8 26.2 L2.3 26.65 2.0 26.95 1.95 26.5 1.95 26.4 Q2.0 25.0 3.75 23.65 L4.5 23.4 6.0 23.05 Q7.65 23.05 9.3 24.45 10.45 25.4 11.0 26.8 11.45 27.95 11.45 29.35 L11.4 30.35 Q11.1 32.35 9.7 33.85 L7.2 35.5 6.85 32.1" fill="#05b1e3" fill-rule="evenodd" stroke="none"/>
      <path d="M11.45 34.65 L11.8 34.6 13.5 34.9 13.95 35.0 12.65 37.85 12.0 38.8 11.85 39.05 9.65 41.5 Q9.4 40.7 9.4 39.7 L9.45 39.1 9.45 38.75 10.05 37.45 11.55 34.75 11.45 34.65" fill="#45e4fa" fill-rule="evenodd" stroke="none"/>
      <path d="M7.5 37.05 Q7.9 36.05 9.2 35.15 L11.1 34.15 11.3 34.4 11.45 34.65 11.55 34.75 10.05 37.45 9.45 38.75 9.3 39.1 8.8 40.2 8.15 40.3 7.85 39.1 7.7 38.35 7.5 37.05 M9.55 37.85 L9.45 38.75 9.55 37.85" fill="#07beea" fill-rule="evenodd" stroke="none"/>
      <path d="M14.7 35.6 L14.8 35.4 14.85 35.35 Q15.05 35.2 15.2 35.2 L15.65 35.45 15.9 36.1 15.7 36.65 15.55 36.85 Q15.3 37.15 14.95 37.15 L14.6 37.05 Q14.45 36.9 14.45 36.4 L14.6 35.8 14.7 35.6" fill="#eefcff" fill-rule="evenodd" stroke="none"/>
      <path d="M13.95 35.0 L14.45 35.2 14.7 35.6 14.6 35.8 14.45 36.4 Q14.45 36.9 14.6 37.05 L14.95 37.15 Q15.3 37.15 15.55 36.85 L15.7 36.65 15.85 36.75 17.6 38.35 18.6 39.25 18.9 39.55 19.7 40.15 19.9 42.0 20.15 42.9 Q18.55 43.3 17.0 44.6 15.45 45.9 15.05 47.2 L13.6 42.95 13.45 42.35 Q13.05 40.8 12.8 38.95 L12.65 37.85 13.95 35.0 M15.7 39.45 L15.4 40.25 15.25 40.5 14.4 41.65 14.55 42.35 Q14.75 42.8 15.25 42.8 15.8 42.8 16.2 42.0 L16.5 41.05 16.5 40.95 16.5 40.65 Q16.45 40.0 16.1 39.7 15.95 39.5 15.7 39.45" fill="#89ffff" fill-rule="evenodd" stroke="none"/>
      <path d="M-0.3 34.25 L0.8 34.4 Q4.2 34.4 6.4 32.55 L6.35 33.55 6.45 35.75 3.0 36.2 0.8 36.0 Q1.5 37.55 2.25 38.45 L2.85 39.05 Q4.35 40.4 7.2 40.4 L7.4 40.4 7.85 41.8 8.1 42.55 4.35 42.15 3.4 41.45 3.0 41.1 2.9 41.0 Q0.0 38.3 -0.3 34.25 M9.45 38.75 L9.45 39.1 9.4 39.7 Q9.4 40.7 9.65 41.5 L9.95 42.45 8.75 42.5 8.65 42.15 8.15 40.3 8.8 40.2 9.3 39.1 9.45 38.75" fill="#00b1ec" fill-rule="evenodd" stroke="none"/>
      <path d="M7.4 40.4 L7.2 40.4 Q4.35 40.4 2.85 39.05 L2.25 38.45 Q1.5 37.55 0.8 36.0 L3.0 36.2 6.45 35.75 7.05 39.05 7.4 40.4" fill="#18dbfb" fill-rule="evenodd" stroke="none"/>
      <path d="M6.4 32.55 L6.45 32.5 6.75 32.15 6.85 32.1 7.2 35.5 7.5 37.05 7.7 38.35 7.85 39.1 8.15 40.3 8.65 42.15 8.75 42.5 8.1 42.55 7.85 41.8 7.4 40.4 7.05 39.05 6.45 35.75 6.35 33.55 6.4 32.55" fill="#81f0ff" fill-rule="evenodd" stroke="none"/>
      <path d="M9.65 41.5 L11.85 39.05 12.0 38.8 12.65 37.85 12.8 38.95 Q13.05 40.8 13.45 42.35 L13.6 42.95 15.05 47.2 16.85 50.9 16.85 51.1 15.25 49.75 15.2 49.7 15.05 48.75 Q14.65 46.8 13.6 45.3 L13.35 45.0 13.0 44.6 12.95 44.5 12.4 43.9 11.05 44.0 Q10.35 43.35 9.95 42.45 L9.65 41.5" fill="#5aebfc" fill-rule="evenodd" stroke="none"/>
      <path d="M19.7 40.15 L19.7 39.55 19.75 39.1 19.9 38.05 19.95 38.0 20.0 37.85 20.25 37.95 20.55 38.05 20.4 38.75 20.4 39.0 20.55 40.65 Q20.7 41.65 21.15 42.5 L21.25 42.75 22.35 44.2 23.05 44.8 Q23.95 45.45 24.75 45.45 L25.7 45.15 26.35 44.9 26.5 44.8 26.55 44.9 26.9 45.7 26.75 46.25 25.75 46.5 24.75 46.7 23.35 46.45 Q22.45 46.15 21.65 45.45 20.65 44.45 20.15 42.9 L19.9 42.0 19.7 40.15 M24.8 42.95 L24.85 42.95 Q25.2 42.95 25.2 43.5 L25.05 44.0 25.0 44.0 24.65 44.15 24.45 44.15 24.35 44.1 24.35 43.7 24.55 43.25 24.8 42.95" fill="#d3ffff" fill-rule="evenodd" stroke="none"/>
      <path d="M15.7 39.45 Q15.95 39.5 16.1 39.7 16.45 40.0 16.5 40.65 L16.5 40.95 16.5 41.05 16.2 42.0 Q15.8 42.8 15.25 42.8 14.75 42.8 14.55 42.35 L14.4 41.65 15.25 40.5 15.4 40.25 15.7 39.45" fill="#b6ffff" fill-rule="evenodd" stroke="none"/>
      <path d="M15.05 47.2 Q15.45 45.9 17.0 44.6 18.55 43.3 20.15 42.9 20.65 44.45 21.65 45.45 22.45 46.15 23.35 46.45 L23.65 47.65 23.5 47.75 Q21.75 48.8 20.25 50.95 19.6 51.85 18.85 53.75 L18.85 53.8 17.25 51.6 16.85 50.9 15.05 47.2" fill="#99ffff" fill-rule="evenodd" stroke="none"/>
      <path d="M23.05 44.8 L23.0 43.2 23.05 41.5 25.9 41.75 25.95 41.75 Q25.95 43.0 26.25 44.45 L26.35 44.9 25.7 45.15 24.75 45.45 Q23.95 45.45 23.05 44.8 M24.8 42.95 L24.55 43.25 24.35 43.7 24.35 44.1 24.45 44.15 24.65 44.15 25.0 44.0 25.05 44.0 25.2 43.5 Q25.2 42.95 24.85 42.95 L24.8 42.95" fill="#6bf5ff" fill-rule="evenodd" stroke="none"/>
      <path d="M25.95 41.75 L26.9 41.7 27.3 41.65 Q29.05 42.95 30.55 43.85 L32.5 44.8 32.5 44.85 32.5 45.15 32.4 46.3 31.85 49.2 31.2 50.8 30.1 52.6 30.2 52.05 30.1 51.95 29.75 51.65 29.0 51.4 28.95 51.4 27.7 48.9 26.75 46.25 26.9 45.7 26.55 44.9 26.5 44.8 26.35 44.9 26.25 44.45 Q25.95 43.0 25.95 41.75" fill="#a5ffff" fill-rule="evenodd" stroke="none"/>
      <path d="M25.1 53.95 L19.05 53.95 18.9 53.8 18.85 53.75 Q19.6 51.85 20.25 50.95 21.75 48.8 23.5 47.75 L23.65 47.65 24.0 48.75 23.95 48.95 23.7 50.3 Q23.7 52.45 25.1 53.95 M24.2 49.25 L24.55 50.2 25.9 52.9 25.6 52.65 Q24.25 51.55 24.2 49.25" fill="#a1ffff" fill-rule="evenodd" stroke="none"/>
      <path d="M23.35 46.45 L24.75 46.7 25.75 46.5 26.75 46.25 27.7 48.9 28.95 51.4 Q28.3 51.4 27.6 51.8 26.65 52.3 26.55 53.2 L25.9 52.9 24.55 50.2 24.2 49.25 24.2 49.05 Q24.2 48.4 24.45 47.9 L24.0 48.75 23.65 47.65 23.35 46.45" fill="#57effd" fill-rule="evenodd" stroke="none"/>
      <path d="M27.9 53.95 L25.1 53.95 Q23.7 52.45 23.7 50.3 L23.95 48.95 24.0 48.75 24.45 47.9 Q24.2 48.4 24.2 49.05 L24.2 49.25 Q24.25 51.55 25.6 52.65 L25.9 52.9 26.55 53.2 Q26.65 52.3 27.6 51.8 28.3 51.4 28.95 51.4 L29.0 51.4 29.75 51.65 30.1 51.95 30.2 52.05 30.1 52.6 30.1 52.7 30.05 52.7 29.75 52.6 29.55 52.6 29.4 52.6 29.3 52.6 29.05 52.65 28.1 53.65 27.9 53.95 M51.45 32.3 L51.6 32.4 51.65 32.45 51.75 32.75 51.7 33.0 51.65 33.1 51.2 33.35 51.15 33.35 50.95 33.25 50.8 32.9 50.9 32.65 51.0 32.55 51.2 32.35 51.3 32.35 51.45 32.3 M29.4 52.6 L29.05 52.65 29.4 52.6" fill="#e0ffff" fill-rule="evenodd" stroke="none"/>
      <path d="M37.65 43.1 L37.9 42.8 38.2 42.75 38.9 42.95 39.05 43.05 39.1 43.1 39.2 43.4 39.0 43.9 Q38.65 44.4 38.0 44.4 L37.6 44.3 Q37.4 44.2 37.4 43.7 L37.65 43.1" fill="#fffaff" fill-rule="evenodd" stroke="none"/>
      <path d="M30.55 43.85 Q31.15 43.0 32.25 42.1 L33.95 40.85 Q35.0 40.15 36.0 39.7 L37.3 39.1 39.2 38.4 39.35 39.4 39.4 39.75 39.5 40.8 39.5 40.95 39.5 41.75 39.5 41.9 39.5 42.1 39.4 44.3 38.7 44.85 37.1 45.95 34.35 45.45 32.75 44.9 32.7 44.85 32.5 44.8 30.55 43.85 M37.65 43.1 L37.4 43.7 Q37.4 44.2 37.6 44.3 L38.0 44.4 Q38.65 44.4 39.0 43.9 L39.2 43.4 39.1 43.1 39.05 43.05 38.9 42.95 38.2 42.75 37.9 42.8 37.65 43.1" fill="#34e8ff" fill-rule="evenodd" stroke="none"/>
      <path d="M31.85 49.2 L32.4 46.3 32.5 45.15 32.5 44.85 32.5 44.8 32.7 44.85 32.75 44.9 34.35 45.45 37.1 45.95 37.4 45.95 38.1 47.9 38.35 48.85 37.85 50.45 37.3 51.85 Q36.05 51.6 34.4 50.8 32.75 50.05 31.85 49.2" fill="#8dfdff" fill-rule="evenodd" stroke="none"/>
      <path d="M37.1 45.95 L38.7 44.85 39.4 44.3 39.05 46.3 38.35 48.85 38.1 47.9 37.4 45.95 37.1 45.95" fill="#67edf6" fill-rule="evenodd" stroke="none"/>
      <path d="M38.75 53.95 L37.15 53.95 38.2 51.95 38.5 51.35 38.7 50.9 38.8 51.65 38.8 51.9 38.85 53.0 38.75 53.95 M36.35 53.95 L31.0 53.95 30.8 53.55 29.9 52.8 30.05 52.7 30.1 52.7 30.1 52.6 31.2 50.8 31.85 49.2 Q32.75 50.05 34.4 50.8 36.05 51.6 37.3 51.85 L37.25 51.9 36.35 53.95" fill="#b5fffe" fill-rule="evenodd" stroke="none"/>
      <path d="M46.8 53.95 L39.5 53.95 39.6 53.65 39.85 52.85 40.35 50.1 Q41.15 51.35 42.45 52.2 44.0 53.25 45.5 53.25 L46.55 53.05 47.1 52.85 46.8 53.95" fill="#bafffe" fill-rule="evenodd" stroke="none"/>
      <path d="M31.0 53.95 L29.0 53.95 29.2 52.95 29.3 52.6 29.4 52.6 29.55 52.6 29.75 52.6 30.05 52.7 29.9 52.8 30.8 53.55 31.0 53.95" fill="#b9fffd" fill-rule="evenodd" stroke="none"/>
      <path d="M29.0 53.95 L27.9 53.95 28.1 53.65 29.05 52.65 29.3 52.6 29.2 52.95 29.0 53.95" fill="#6ef2ff" fill-rule="evenodd" stroke="none"/>
      <path d="M19.05 53.95 L19.0 53.95 18.9 53.8 19.05 53.95" fill="#37eef6" fill-rule="evenodd" stroke="none"/>
      <path d="M19.0 53.95 L17.0 53.95 17.0 53.45 16.85 51.1 16.85 50.9 17.25 51.6 18.85 53.8 18.9 53.8 19.0 53.95" fill="#24d3f2" fill-rule="evenodd" stroke="none"/>
      <path d="M17.0 53.95 L14.85 53.95 15.0 53.35 15.25 51.05 15.25 50.65 15.2 49.7 15.25 49.75 16.85 51.1 17.0 53.45 17.0 53.95" fill="#12bdeb" fill-rule="evenodd" stroke="none"/>
      <path d="M47.05 23.5 L47.15 23.6 47.35 23.8 47.0 24.1 46.85 24.5 Q46.85 24.9 47.2 25.2 L47.25 25.25 47.75 25.4 48.1 25.45 48.25 25.45 48.35 25.85 47.6 25.7 47.2 25.5 Q46.6 25.1 46.6 24.4 46.6 24.0 47.0 23.55 L47.05 23.5 M41.7 24.7 L41.65 24.6 41.65 24.45 41.65 24.3 41.7 23.9 41.75 23.7 Q41.85 23.4 42.1 23.2 L42.3 23.1 42.8 23.4 42.6 23.4 Q42.4 23.45 42.25 23.65 L42.2 23.7 42.0 24.1 42.0 24.2 Q42.0 24.7 42.4 25.0 L43.1 25.2 43.85 24.95 43.95 24.85 44.05 24.6 44.05 24.55 44.0 24.2 44.35 24.45 44.35 24.6 44.05 25.25 44.0 25.3 43.0 25.6 42.85 25.6 42.8 25.6 42.1 25.35 41.7 24.7" fill="#1572c4" fill-rule="evenodd" stroke="none"/>
      <path d="M44.65 21.45 L45.45 22.1 45.75 22.35 46.5 23.05 47.05 23.5 47.0 23.55 Q46.6 24.0 46.6 24.4 46.6 25.1 47.2 25.5 L47.6 25.7 48.35 25.85 Q48.5 26.5 48.8 27.15 L48.2 27.8 47.95 28.1 45.75 27.5 44.65 27.0 44.55 26.95 42.85 25.6 43.0 25.6 44.0 25.3 44.05 25.25 44.35 24.6 44.35 24.45 44.9 24.75 Q44.6 23.55 44.6 22.15 L44.65 21.45 M49.6 28.45 L49.65 28.5 Q50.8 30.05 53.0 31.55 L53.4 31.8 53.05 31.8 52.65 31.75 51.95 31.8 51.45 31.8 50.7 31.9 50.5 32.2 50.45 32.3 50.25 32.95 50.25 33.1 50.25 33.15 50.25 33.45 Q50.35 34.0 50.75 34.4 L51.1 34.7 50.9 34.8 Q49.6 34.05 48.25 33.55 47.3 33.2 46.3 33.0 L42.3 32.6 41.0 32.65 37.85 33.05 35.1 33.85 34.9 33.9 34.8 33.95 34.45 32.6 34.25 31.85 34.6 30.95 Q35.3 29.25 36.1 28.5 L36.75 29.0 37.1 29.4 38.05 29.3 38.7 29.3 39.45 29.35 41.7 29.8 43.05 30.3 43.75 29.75 43.85 29.8 43.9 29.6 45.05 28.8 45.3 28.9 49.15 29.95 49.6 28.45 M42.3 23.1 L42.1 23.2 Q41.85 23.4 41.75 23.7 L41.7 23.9 41.65 24.3 41.65 24.45 41.65 24.6 41.7 24.7 41.05 24.25 39.65 23.8 38.35 23.35 37.85 23.15 Q34.75 21.95 33.3 20.25 L32.95 20.3 33.6 19.95 34.8 19.55 35.4 19.4 36.3 19.2 36.45 18.75 36.5 18.75 39.9 21.4 42.3 23.1 M45.65 26.7 Q45.3 26.3 45.0 25.15 L44.95 24.9 44.9 24.75 44.95 24.9 45.0 25.15 Q45.3 26.3 45.65 26.7 M31.8 21.25 L32.55 20.55 32.65 20.5 32.6 20.7 32.55 21.85 31.8 21.25 M31.2 22.55 L31.35 22.65 32.25 23.5 32.35 24.95 31.6 24.0 31.5 23.8 Q31.15 23.25 31.2 22.6 L31.2 22.55 M32.6 25.35 L33.1 25.35 33.65 25.4 34.5 26.85 35.1 27.9 33.75 30.7 33.7 30.75 31.55 34.0 33.1 34.9 Q31.75 35.7 31.05 36.65 L31.0 36.8 31.0 36.55 31.05 36.2 30.85 35.0 30.7 34.75 32.2 32.8 32.45 32.5 32.55 32.35 32.65 32.15 Q33.25 31.2 33.35 29.9 L33.45 28.6 Q33.45 26.85 32.6 25.35 M37.95 30.15 L38.0 30.15 38.2 30.1 38.4 29.9 38.1 29.8 38.0 29.75 37.75 29.7 37.7 29.85 37.95 30.15" fill="#1f3686" fill-rule="evenodd" stroke="none"/>
      <path d="M48.8 27.15 L49.6 28.45 49.15 29.95 45.3 28.9 45.05 28.8 43.9 29.6 43.9 29.55 Q43.9 28.6 43.1 27.4 L43.0 27.3 42.7 26.9 42.5 26.65 42.3 26.45 41.75 25.95 40.6 25.75 39.9 25.6 39.15 25.45 38.15 25.25 37.8 25.15 37.35 24.95 35.0 23.3 34.65 22.95 34.65 23.35 Q34.65 23.9 34.95 24.6 L35.2 25.15 36.3 26.95 36.95 27.5 37.3 27.75 38.45 28.45 39.45 28.4 39.65 28.4 39.85 28.45 40.75 28.55 41.9 28.9 43.6 29.65 43.75 29.75 43.05 30.3 41.7 29.8 39.45 29.35 38.7 29.3 38.05 29.3 37.1 29.4 36.75 29.0 36.1 28.5 Q35.3 29.25 34.6 30.95 L34.25 31.85 34.45 32.6 34.8 33.95 34.9 33.9 35.1 33.85 36.75 33.75 37.85 33.8 39.25 34.05 37.85 34.3 37.2 34.45 35.2 35.15 34.55 35.55 33.1 34.9 31.55 34.0 33.7 30.75 33.75 30.7 35.1 27.9 34.5 26.85 33.65 25.4 33.1 25.35 32.6 25.35 32.4 25.35 32.35 24.95 32.25 23.5 31.35 22.65 31.2 22.55 31.25 22.3 31.6 21.45 31.7 21.35 31.8 21.25 32.55 21.85 32.6 20.7 32.65 20.5 32.95 20.3 33.3 20.25 Q34.75 21.95 37.85 23.15 L38.35 23.35 39.65 23.8 41.05 24.25 41.7 24.7 42.1 25.35 42.8 25.6 42.85 25.6 44.55 26.95 44.65 27.0 45.75 27.5 47.95 28.1 48.2 27.8 48.8 27.15" fill="#03b0fd" fill-rule="evenodd" stroke="none"/>
      <path d="M47.35 23.8 L47.9 24.3 48.2 24.6 48.2 24.65 48.25 25.45 48.1 25.45 47.75 25.4 47.25 25.25 47.2 25.2 Q46.85 24.9 46.85 24.5 L47.0 24.1 47.35 23.8 M44.0 24.2 L44.05 24.55 44.05 24.6 43.95 24.85 43.85 24.95 43.1 25.2 42.4 25.0 Q42.0 24.7 42.0 24.2 L42.0 24.1 42.2 23.7 42.25 23.65 Q42.4 23.45 42.6 23.4 L42.8 23.4 44.0 24.2" fill="#2fc8ff" fill-rule="evenodd" stroke="none"/>
      <path d="M53.4 31.8 L53.45 31.85 53.5 32.0 53.65 33.0 53.6 33.0 51.9 34.25 51.1 34.7 50.75 34.4 Q50.35 34.0 50.25 33.45 L50.25 33.15 50.25 33.1 50.55 33.45 50.8 33.65 51.1 33.7 51.85 33.55 52.6 33.05 52.85 32.75 53.05 31.95 53.05 31.8 53.4 31.8" fill="#17c41b" fill-rule="evenodd" stroke="none"/>
      <path d="M53.05 31.8 L53.05 31.95 52.85 32.75 52.6 33.05 51.85 33.55 51.1 33.7 50.8 33.65 50.55 33.45 50.25 33.1 50.25 32.95 50.45 32.3 50.5 32.2 50.7 31.9 51.45 31.8 51.95 31.8 52.65 31.75 53.05 31.8 M51.45 32.3 L51.3 32.35 51.2 32.35 51.0 32.55 50.9 32.65 50.8 32.9 50.95 33.25 51.15 33.35 51.2 33.35 51.65 33.1 51.7 33.0 51.75 32.75 51.65 32.45 51.6 32.4 51.45 32.3" fill="#1ae720" fill-rule="evenodd" stroke="none"/>
      <path d="M50.9 34.8 L50.3 35.05 48.5 34.6 47.55 34.4 46.55 34.25 44.75 34.05 44.6 34.05 42.4 33.95 41.4 33.9 39.7 34.0 39.25 34.05 37.85 33.8 36.75 33.75 35.1 33.85 37.85 33.05 41.0 32.65 42.3 32.6 46.3 33.0 Q47.3 33.2 48.25 33.55 49.6 34.05 50.9 34.8 M34.55 35.55 Q33.85 35.95 33.4 36.4 32.5 37.4 32.5 38.6 L32.5 38.65 Q32.5 39.7 33.1 40.65 31.55 40.0 30.15 38.7 L30.05 38.6 30.5 37.95 31.0 36.8 31.05 36.65 Q31.75 35.7 33.1 34.9 L34.55 35.55 M32.35 24.95 L32.4 25.35 32.6 25.35 Q33.45 26.85 33.45 28.6 L33.35 29.9 33.35 29.4 Q33.35 26.5 31.7 24.95 L31.7 24.9 31.85 24.75 31.95 24.65 32.0 24.55 31.6 24.0 32.35 24.95 M32.2 32.8 L30.7 34.75 30.6 34.6 30.4 34.4 31.2 33.8 32.2 32.8" fill="#122566" fill-rule="evenodd" stroke="none"/>
      <path d="M37.95 30.15 L37.7 29.85 37.75 29.7 38.0 29.75 38.1 29.8 38.4 29.9 38.2 30.1 38.0 30.15 37.95 30.15" fill="#4464d4" fill-rule="evenodd" stroke="none"/>
      <path d="M32.95 1.55 L33.25 -1.25 33.6 -1.0 34.55 0.0 35.6 1.55 37.1 5.1 37.85 8.65 36.2 7.95 36.0 7.45 35.8 7.0 35.4 7.15 35.25 7.2 34.9 7.35 34.5 6.3 34.25 5.4 33.55 6.35 32.55 7.85 32.15 7.1 30.85 7.85 Q30.45 8.1 30.15 8.3 L31.45 5.8 32.7 2.45 32.95 1.55 M35.0 2.65 Q35.3 2.65 35.3 2.2 35.3 1.6 34.9 1.3 L34.5 1.1 34.45 1.1 34.25 1.55 Q34.25 2.1 34.6 2.45 L34.85 2.6 35.0 2.65" fill="#1dccff" fill-rule="evenodd" stroke="none"/>
      <path d="M35.0 2.65 L34.85 2.6 34.6 2.45 Q34.25 2.1 34.25 1.55 L34.45 1.1 34.5 1.1 34.9 1.3 Q35.3 1.6 35.3 2.2 35.3 2.65 35.0 2.65" fill="#fff5ff" fill-rule="evenodd" stroke="none"/>
      <path d="M30.15 8.3 Q30.45 8.1 30.85 7.85 L32.15 7.1 32.55 7.85 33.55 6.35 34.25 5.4 34.5 6.3 34.9 7.35 35.25 7.2 35.4 7.15 35.8 7.0 36.0 7.45 36.2 7.95 37.85 8.65 37.85 8.85 37.95 10.4 37.95 11.35 37.85 13.4 35.85 13.9 35.0 13.75 Q34.85 13.15 34.85 11.6 L34.85 11.55 34.75 11.65 34.65 11.85 33.4 13.2 33.15 13.5 32.95 13.7 32.75 13.35 32.65 13.15 32.2 12.3 31.55 12.6 31.25 12.8 30.8 13.05 30.6 12.95 29.75 12.55 29.45 12.3 28.25 11.05 29.3 9.65 30.15 8.3 M31.6 10.45 L31.85 10.6 32.2 10.75 32.1 10.3 32.05 9.85 31.6 10.45" fill="#10a8e7" fill-rule="evenodd" stroke="none"/>
      <path d="M31.6 10.45 L32.05 9.85 32.1 10.3 32.2 10.75 31.85 10.6 31.6 10.45 M28.25 11.05 L29.45 12.3 29.75 12.55 30.6 12.95 30.8 13.05 31.25 12.8 31.55 12.6 32.2 12.3 32.65 13.15 32.75 13.35 32.95 13.7 33.15 13.5 33.4 13.2 34.65 11.85 34.75 11.65 34.85 11.55 34.85 11.6 Q34.85 13.15 35.0 13.75 L35.85 13.9 37.85 13.4 37.8 14.0 37.75 14.3 Q36.65 15.25 35.9 16.4 L35.55 17.0 35.4 17.3 35.4 17.35 34.35 17.5 33.05 18.05 32.8 17.5 32.15 16.15 31.85 17.3 30.95 19.45 Q29.5 19.1 27.45 16.95 L26.45 17.8 25.65 16.85 25.6 16.75 25.1 15.6 25.2 15.4 25.8 13.75 26.05 13.5 26.6 13.0 27.5 11.95 27.6 11.85 27.65 11.75 28.25 11.05" fill="#1964a8" fill-rule="evenodd" stroke="none"/>
      <path d="M25.8 13.75 L25.2 15.4 25.1 15.6 24.3 17.3 23.9 17.95 24.05 18.5 24.25 18.95 24.25 19.0 Q24.95 19.7 26.25 20.1 L27.65 20.35 27.95 20.35 28.6 20.35 30.05 20.55 30.4 20.65 30.6 20.7 31.1 20.9 31.3 21.0 31.65 21.3 31.7 21.35 31.6 21.45 31.25 22.3 30.9 22.15 30.75 22.1 30.55 22.05 30.45 22.0 29.9 21.85 29.05 21.65 28.35 21.6 26.7 21.75 25.55 21.35 Q24.4 20.8 23.45 19.9 L23.0 19.45 Q23.1 17.1 24.1 15.55 L25.5 14.05 25.6 13.9 25.8 13.75" fill="#0badeb" fill-rule="evenodd" stroke="none"/>
      <path d="M36.45 18.75 L36.3 19.2 35.4 19.4 34.8 19.55 33.6 19.95 32.95 20.3 32.65 20.5 32.55 20.55 31.8 21.25 31.7 21.35 31.65 21.3 31.3 21.0 31.1 20.9 30.6 20.7 30.4 20.65 30.05 20.55 28.6 20.35 27.95 20.35 27.65 20.35 26.25 20.1 Q24.95 19.7 24.25 19.0 L24.25 18.95 24.05 18.5 23.9 17.95 24.3 17.3 25.1 15.6 25.6 16.75 25.65 16.85 26.45 17.8 27.45 16.95 Q29.5 19.1 30.95 19.45 L31.85 17.3 32.15 16.15 32.8 17.5 33.05 18.05 34.35 17.5 35.4 17.35 35.25 17.75 36.45 18.7 36.45 18.75 M35.25 17.75 L34.9 18.6 35.25 17.75" fill="#21438d" fill-rule="evenodd" stroke="none"/>
      <path d="M23.0 19.45 L23.45 19.9 Q24.4 20.8 25.55 21.35 L26.7 21.75 28.35 21.6 29.05 21.65 29.9 21.85 30.45 22.0 30.55 22.05 30.75 22.1 30.9 22.15 31.25 22.3 31.2 22.55 31.2 22.6 Q31.15 23.25 31.5 23.8 L31.6 24.0 32.0 24.55 31.95 24.65 31.85 24.75 31.7 24.9 31.7 24.95 31.3 24.6 Q29.65 23.3 26.4 23.15 L25.15 23.3 23.75 23.45 23.55 22.95 Q23.05 21.45 23.0 20.35 L23.0 20.05 23.0 19.45" fill="#20346f" fill-rule="evenodd" stroke="none"/>
      <path d="M13.1 17.0 Q13.25 19.25 15.85 21.55 17.35 22.9 19.25 23.4 L21.15 23.65 22.45 23.6 23.75 23.45 25.15 23.3 26.4 23.15 Q29.65 23.3 31.3 24.6 L31.7 24.95 Q33.35 26.5 33.35 29.4 L33.35 29.9 Q33.25 31.2 32.65 32.15 L32.65 32.05 32.45 31.35 32.6 30.4 Q32.6 28.95 30.95 26.4 L30.8 26.2 30.75 26.15 30.1 25.3 30.2 25.2 30.3 25.0 30.15 24.55 Q29.95 24.1 29.5 24.1 29.15 24.1 29.0 24.25 L28.95 24.25 Q28.0 23.5 27.05 23.5 L26.75 23.55 26.6 23.55 26.2 23.6 26.25 23.65 23.9 23.95 23.75 23.95 23.2 24.0 21.95 24.1 21.0 24.15 20.75 24.15 18.45 23.9 17.7 23.7 Q16.4 23.35 15.35 22.65 L14.5 21.95 14.0 21.45 Q12.75 20.1 12.15 18.3 L12.0 17.85 11.6 15.35 12.05 14.15 12.25 13.85 Q12.7 12.95 13.5 12.2 L13.35 12.9 13.3 13.1 Q13.05 14.25 13.05 16.6 L13.1 17.0" fill="#b4fffd" fill-rule="evenodd" stroke="none"/>
      <path d="M22.05 24.4 L22.1 24.4 23.2 24.0 23.75 23.95 23.9 23.95 26.25 23.65 26.2 23.6 26.6 23.55 26.75 23.55 27.05 23.5 Q28.0 23.5 28.95 24.25 L28.9 24.35 28.75 24.95 Q28.75 25.75 29.3 25.75 L29.85 25.5 29.9 25.4 30.05 25.25 30.1 25.3 30.75 26.15 30.8 26.2 30.6 26.3 29.95 27.1 29.9 27.25 29.65 27.65 29.65 27.6 29.5 27.45 Q27.6 25.45 24.65 25.45 L24.6 25.45 23.35 25.45 Q23.15 25.6 23.0 25.7 L23.0 25.55 22.55 25.65 22.15 24.75 22.05 24.4" fill="#04eff2" fill-rule="evenodd" stroke="none"/>
      <path d="M23.2 24.0 L22.1 24.4 22.05 24.4 20.15 25.0 19.75 25.1 18.0 24.85 17.2 24.6 16.9 24.45 15.2 23.6 15.25 23.15 15.35 22.65 Q16.4 23.35 17.7 23.7 L18.45 23.9 20.75 24.15 21.0 24.15 21.95 24.1 23.2 24.0" fill="#14f2f3" fill-rule="evenodd" stroke="none"/>
      <path d="M30.1 25.3 L30.05 25.25 29.9 25.4 29.85 25.5 29.3 25.75 Q28.75 25.75 28.75 24.95 L28.9 24.35 28.95 24.25 29.0 24.25 Q29.15 24.1 29.5 24.1 29.95 24.1 30.15 24.55 L30.3 25.0 30.2 25.2 30.1 25.3" fill="#f4ffff" fill-rule="evenodd" stroke="none"/>
      <path d="M13.7 28.55 L12.25 26.55 Q11.0 24.05 11.0 20.25 L11.05 18.95 Q11.15 16.9 11.6 15.35 L12.0 17.85 12.15 18.3 12.15 18.65 12.25 20.15 Q12.5 21.85 13.25 24.25 L13.45 24.95 13.35 26.2 13.35 26.55 13.7 28.45 13.7 28.55" fill="#00a4f5" fill-rule="evenodd" stroke="none"/>
      <path d="M12.15 18.3 Q12.75 20.1 14.0 21.45 L14.5 21.95 14.15 22.65 12.25 20.15 12.15 18.65 12.15 18.3" fill="#04c8ff" fill-rule="evenodd" stroke="none"/>
      <path d="M15.35 22.65 L15.25 23.15 15.2 23.6 15.15 24.35 15.25 25.5 15.35 26.5 14.75 25.7 14.65 25.55 13.65 24.0 13.95 23.1 14.15 22.65 14.5 21.95 15.35 22.65" fill="#00fbf3" fill-rule="evenodd" stroke="none"/>
      <path d="M12.25 20.15 L14.15 22.65 13.95 23.1 13.65 24.0 13.45 24.95 13.25 24.25 Q12.5 21.85 12.25 20.15" fill="#01bef8" fill-rule="evenodd" stroke="none"/>
      <path d="M15.2 23.6 L16.9 24.45 17.2 24.6 18.0 24.85 19.15 26.4 20.2 27.35 18.8 27.95 16.0 28.35 15.8 28.35 15.35 26.5 15.25 25.5 15.15 24.35 15.2 23.6" fill="#02e0ff" fill-rule="evenodd" stroke="none"/>
      <path d="M18.0 24.85 L19.75 25.1 20.15 25.0 22.05 24.4 22.15 24.75 22.55 25.65 23.0 25.55 23.0 25.7 20.2 27.35 19.15 26.4 18.0 24.85" fill="#03ffff" fill-rule="evenodd" stroke="none"/>
      <path d="M18.2 30.75 L16.3 30.2 15.9 28.75 15.8 28.35 16.0 28.35 18.8 27.95 20.2 27.35 23.0 25.7 23.25 26.5 23.35 26.8 21.45 27.65 Q21.3 27.7 21.1 27.85 L20.5 28.2 19.8 28.7 19.7 28.8 19.6 28.9 19.3 29.2 Q18.55 29.9 18.2 30.75" fill="#00c2fd" fill-rule="evenodd" stroke="none"/>
      <path d="M16.3 30.2 Q15.3 29.8 14.45 29.15 L13.7 28.55 13.7 28.45 13.35 26.55 13.35 26.2 13.45 24.95 13.65 24.0 14.65 25.55 14.75 25.7 15.35 26.5 15.8 28.35 15.9 28.75 16.3 30.2" fill="#03f0ff" fill-rule="evenodd" stroke="none"/>
      <path d="M21.8 37.9 L21.15 37.5 21.05 37.0 20.85 35.6 20.85 35.45 21.05 35.25 21.6 34.6 21.55 34.5 21.5 33.05 21.5 31.7 21.5 31.55 23.1 30.85 23.45 30.7 24.05 30.4 24.75 30.05 24.75 30.0 25.05 29.5 25.15 29.2 25.4 29.25 25.35 29.55 25.25 30.0 24.85 30.4 24.65 30.5 23.55 31.25 23.5 31.25 22.35 31.95 22.1 33.05 Q21.95 33.9 21.95 34.8 L22.0 35.15 21.65 35.4 21.2 35.75 21.2 35.9 Q21.2 36.6 21.7 37.7 L21.8 37.9 M19.6 28.9 L19.7 28.8 19.8 28.7 20.6 29.0 20.7 29.05 22.05 29.3 22.4 29.15 23.15 28.85 24.15 28.35 24.2 28.3 24.35 28.35 25.0 28.55 24.95 28.75 24.6 28.75 24.4 28.75 24.25 28.85 23.0 29.4 22.45 29.6 22.0 29.75 21.9 29.75 20.65 29.35 20.6 29.35 19.65 28.95 19.6 28.9 M26.1 28.35 L26.6 28.3 26.9 28.25 27.85 28.1 28.25 28.05 28.9 27.9 29.1 28.15 28.4 28.35 27.6 28.65 28.15 29.3 28.25 29.45 28.4 29.6 28.6 29.85 29.1 30.6 29.55 31.5 29.5 31.85 28.55 30.4 28.5 30.25 Q27.6 29.15 26.85 28.85 L26.8 28.85 26.15 28.75 26.2 28.55 26.1 28.35" fill="#abfdff" fill-rule="evenodd" stroke="none"/>
      <path d="M19.55 36.0 Q17.85 34.05 17.85 32.3 17.85 31.45 18.2 30.75 18.55 29.9 19.3 29.2 L19.6 28.9 19.65 28.95 Q19.5 29.6 19.5 30.45 19.5 32.45 19.9 33.8 L19.7 34.55 Q19.5 35.25 19.55 36.0" fill="#01a9ff" fill-rule="evenodd" stroke="none"/>
      <path d="M19.8 28.7 L20.5 28.2 21.1 27.85 Q21.3 27.7 21.45 27.65 L21.3 27.9 Q20.95 28.4 20.7 29.05 L20.6 29.0 19.8 28.7 M19.9 33.8 Q19.5 32.45 19.5 30.45 19.5 29.6 19.65 28.95 L20.6 29.35 Q20.3 30.35 20.3 31.6 L20.45 32.65 20.1 33.35 19.9 33.8" fill="#07bffb" fill-rule="evenodd" stroke="none"/>
      <path d="M19.9 33.8 L20.1 33.35 20.45 32.65 Q20.7 33.55 21.4 34.3 L21.55 34.5 21.6 34.6 21.05 35.25 20.85 35.45 20.85 35.6 Q20.25 34.9 19.9 33.8" fill="#00c5ff" fill-rule="evenodd" stroke="none"/>
      <path d="M21.15 37.5 L20.4 36.85 19.9 36.4 19.55 36.0 Q19.5 35.25 19.7 34.55 L19.9 33.8 Q20.25 34.9 20.85 35.6 L21.05 37.0 21.15 37.5" fill="#0c9dee" fill-rule="evenodd" stroke="none"/>
      <path d="M29.65 27.65 L29.9 27.25 29.95 27.1 30.6 26.3 30.8 26.2 30.95 26.4 Q32.6 28.95 32.6 30.4 L32.45 31.35 32.65 32.05 32.65 32.15 32.55 32.35 32.45 32.5 32.4 32.5 32.1 32.5 Q31.45 32.5 31.0 32.05 L30.8 31.75 30.65 31.5 30.95 31.2 31.0 30.45 Q31.0 29.1 29.65 27.65" fill="#56eef1" fill-rule="evenodd" stroke="none"/>
      <path d="M32.45 32.5 L32.2 32.8 31.2 33.8 30.95 33.6 29.65 33.95 29.5 33.95 28.65 33.75 28.65 33.7 28.95 33.25 30.15 32.05 30.65 31.5 30.8 31.75 31.0 32.05 Q31.45 32.5 32.1 32.5 L32.4 32.5 32.45 32.5" fill="#00feff" fill-rule="evenodd" stroke="none"/>
      <path d="M23.0 25.7 Q23.15 25.6 23.35 25.45 L24.6 25.45 24.65 25.45 Q27.6 25.45 29.5 27.45 L29.65 27.6 29.65 27.65 Q31.0 29.1 31.0 30.45 L30.95 31.2 30.65 31.5 30.15 32.05 28.95 33.25 29.15 32.8 29.5 31.85 29.55 31.5 29.65 30.15 29.6 29.4 29.35 28.65 29.15 28.25 29.1 28.15 28.9 27.9 28.75 27.7 Q28.1 26.95 26.75 26.7 L25.45 26.55 25.25 26.55 25.2 26.55 24.4 26.6 23.35 26.8 23.25 26.5 23.0 25.7" fill="#01ddeb" fill-rule="evenodd" stroke="none"/>
      <path d="M30.7 34.75 L30.85 35.0 30.65 34.95 30.5 34.95 29.4 35.2 28.95 35.4 28.7 35.65 27.9 34.7 28.65 33.75 29.5 33.95 29.65 33.95 30.95 33.6 31.2 33.8 30.4 34.4 30.6 34.6 30.7 34.75" fill="#00e1ff" fill-rule="evenodd" stroke="none"/>
      <path d="M30.05 38.6 L29.95 38.65 29.95 38.5 29.65 37.45 29.2 36.1 29.15 35.9 28.95 35.4 29.4 35.2 30.5 34.95 30.65 34.95 30.85 35.0 31.05 36.2 31.0 36.55 31.0 36.8 30.5 37.95 30.05 38.6" fill="#00b9ff" fill-rule="evenodd" stroke="none"/>
      <path d="M24.4 26.6 L25.2 26.55 25.25 26.55 25.45 26.55 26.75 26.7 27.6 27.2 28.25 28.05 27.85 28.1 26.9 28.25 26.6 28.3 26.1 28.35 26.0 28.25 25.8 28.15 25.2 28.25 25.0 28.5 25.0 28.55 24.35 28.35 24.2 28.3 24.15 28.35 23.15 28.85 22.4 29.15 22.4 28.95 Q22.4 27.85 23.5 27.1 L24.1 26.75 24.4 26.6 M28.4 28.35 L28.6 29.0 28.6 29.5 28.6 29.85 28.4 29.6 28.25 29.45 28.15 29.3 27.6 28.65 28.4 28.35" fill="#40fdf6" fill-rule="evenodd" stroke="none"/>
      <path d="M28.95 33.25 L28.65 33.7 28.65 33.75 27.9 34.7 27.75 34.3 27.05 34.7 26.9 34.8 25.1 35.3 23.9 35.4 Q22.85 35.4 21.95 34.8 21.95 33.9 22.1 33.05 L22.35 31.95 23.5 31.25 23.55 31.25 Q24.3 31.8 25.4 31.8 L25.45 31.8 26.95 31.6 Q27.75 31.35 28.15 30.85 L28.5 30.25 28.55 30.4 29.5 31.85 29.15 32.8 28.95 33.25 M28.25 28.05 L27.6 27.2 26.75 26.7 Q28.1 26.95 28.75 27.7 L28.9 27.9 28.25 28.05 M29.1 28.15 L29.15 28.25 29.35 28.65 29.6 29.4 29.65 30.15 29.55 31.5 29.1 30.6 28.6 29.85 28.6 29.5 28.6 29.0 28.4 28.35 29.1 28.15" fill="#00f3f9" fill-rule="evenodd" stroke="none"/>
      <path d="M26.15 28.75 L26.8 28.85 26.85 28.85 Q27.6 29.15 28.5 30.25 L28.15 30.85 Q27.75 31.35 26.95 31.6 L25.45 31.8 25.4 31.8 Q24.3 31.8 23.55 31.25 L24.65 30.5 24.85 30.4 25.25 30.0 25.35 29.55 25.4 29.25 25.45 29.25 Q25.85 29.25 26.05 28.95 L26.15 28.75" fill="#01ffff" fill-rule="evenodd" stroke="none"/>
      <path d="M21.45 27.65 L23.35 26.8 24.4 26.6 24.1 26.75 23.5 27.1 Q22.4 27.85 22.4 28.95 L22.4 29.15 22.05 29.3 20.7 29.05 Q20.95 28.4 21.3 27.9 L21.45 27.65" fill="#04fdf9" fill-rule="evenodd" stroke="none"/>
      <path d="M20.45 32.65 L20.3 31.6 Q20.3 30.35 20.6 29.35 L20.65 29.35 21.9 29.75 22.0 29.75 22.45 29.6 Q22.6 30.3 23.1 30.85 L21.5 31.55 21.5 31.7 21.5 33.05 21.55 34.5 21.4 34.3 Q20.7 33.55 20.45 32.65" fill="#00fcf8" fill-rule="evenodd" stroke="none"/>
      <path d="M22.45 29.6 L23.0 29.4 24.25 28.85 24.4 28.75 24.6 28.75 24.95 28.75 24.95 28.85 25.1 29.2 25.15 29.2 25.05 29.5 24.75 30.0 24.75 30.05 24.05 30.4 23.45 30.7 23.1 30.85 Q22.6 30.3 22.45 29.6" fill="#00f8e9" fill-rule="evenodd" stroke="none"/>
      <path d="M21.2 35.9 L21.2 35.75 21.65 35.4 22.0 35.15 21.95 34.8 Q22.85 35.4 23.9 35.4 L25.1 35.3 24.5 36.55 24.35 36.8 Q22.25 36.8 21.2 35.9" fill="#06cdff" fill-rule="evenodd" stroke="none"/>
      <path d="M25.1 35.3 L26.9 34.8 27.05 34.7 27.75 34.3 27.9 34.7 28.7 35.65 28.55 36.1 28.15 36.25 28.0 36.3 27.45 36.4 27.35 36.45 24.4 36.8 24.35 36.8 24.5 36.55 25.1 35.3" fill="#00f0ff" fill-rule="evenodd" stroke="none"/>
      <path d="M27.0 38.25 L26.9 38.0 25.85 38.4 24.55 38.65 24.25 38.65 23.65 37.65 24.35 36.8 24.4 36.8 27.35 36.45 27.45 36.4 27.5 37.0 27.0 38.25" fill="#0d98f7" fill-rule="evenodd" stroke="none"/>
      <path d="M24.25 38.65 Q23.0 38.55 21.8 37.9 L21.7 37.7 Q21.2 36.6 21.2 35.9 22.25 36.8 24.35 36.8 L23.65 37.65 24.25 38.65" fill="#0094f7" fill-rule="evenodd" stroke="none"/>
      <path d="M29.35 39.05 L28.4 39.25 Q27.85 39.25 27.35 38.8 L27.0 38.25 27.5 37.0 27.45 36.4 28.0 36.3 28.15 36.25 28.9 37.45 28.9 37.5 29.35 39.05" fill="#0a9fef" fill-rule="evenodd" stroke="none"/>
      <path d="M29.95 38.65 L29.35 39.05 28.9 37.5 28.9 37.45 28.15 36.25 28.55 36.1 28.7 35.65 28.95 35.4 29.15 35.9 29.2 36.1 29.65 37.45 29.95 38.5 29.95 38.65" fill="#00d6f8" fill-rule="evenodd" stroke="none"/>
      <path d="M40.6 25.75 L40.6 26.05 40.6 26.45 40.65 26.7 40.6 26.7 39.35 26.5 39.35 26.45 39.15 25.9 39.0 25.75 39.0 25.7 39.15 25.45 39.9 25.6 40.6 25.75" fill="#0bff00" fill-rule="evenodd" stroke="none"/>
      <path d="M40.65 26.7 L40.6 26.45 40.6 26.05 40.6 25.75 41.75 25.95 42.3 26.45 42.05 26.85 41.8 27.05 41.7 27.15 41.65 27.15 41.45 27.05 Q40.95 26.75 40.75 26.75 L40.65 26.75 40.65 26.7" fill="#00e805" fill-rule="evenodd" stroke="none"/>
      <path d="M39.35 26.5 L40.6 26.7 40.65 26.7 40.65 26.75 40.75 26.75 Q40.95 26.75 41.45 27.05 L41.65 27.15 41.35 27.25 41.3 27.25 41.15 27.25 40.95 27.2 40.7 26.9 40.4 27.55 39.75 27.9 39.8 28.1 39.05 27.8 38.7 27.45 38.45 27.05 38.25 26.65 38.4 26.5 38.65 26.75 38.95 26.85 39.25 26.75 39.35 26.5" fill="#90fb00" fill-rule="evenodd" stroke="none"/>
      <path d="M41.65 27.15 L41.7 27.15 41.75 27.5 41.45 27.7 41.0 27.95 41.15 27.65 41.3 27.25 41.35 27.25 41.65 27.15" fill="#7afc1c" fill-rule="evenodd" stroke="none"/>
      <path d="M41.3 27.25 L41.15 27.65 41.0 27.95 40.05 28.15 39.8 28.1 39.75 27.9 40.4 27.55 40.7 26.9 40.95 27.2 41.15 27.25 41.3 27.25" fill="#77ff00" fill-rule="evenodd" stroke="none"/>
      <path d="M41.7 27.15 L41.8 27.05 42.05 26.85 42.3 26.45 42.5 26.65 42.0 27.3 41.9 27.4 41.75 27.5 41.7 27.15" fill="#16ea00" fill-rule="evenodd" stroke="none"/>
      <path d="M39.8 28.1 L40.05 28.15 41.0 27.95 41.45 27.7 41.75 27.5 41.9 27.4 41.9 27.85 41.75 28.0 41.2 28.4 41.1 28.45 40.75 28.55 39.85 28.45 39.85 28.4 39.8 28.1" fill="#2d2a6f" fill-rule="evenodd" stroke="none"/>
      <path d="M42.5 26.65 L42.7 26.9 42.3 27.5 41.9 27.85 41.9 27.4 42.0 27.3 42.5 26.65" fill="#231f73" fill-rule="evenodd" stroke="none"/>
      <path d="M42.7 26.9 L43.0 27.3 43.1 27.4 Q43.9 28.6 43.9 29.55 L43.9 29.6 43.85 29.8 43.75 29.75 43.6 29.65 43.1 28.55 42.55 27.75 42.3 27.5 42.7 26.9" fill="#add9f7" fill-rule="evenodd" stroke="none"/>
      <path d="M42.3 27.5 L42.55 27.75 43.1 28.55 43.6 29.65 41.9 28.9 40.75 28.55 41.1 28.45 41.2 28.4 41.75 28.0 41.9 27.85 42.3 27.5 M37.95 27.0 L38.6 27.85 38.65 27.95 39.45 28.4 38.45 28.45 37.3 27.75 36.95 27.5 36.3 26.95 35.2 25.15 34.95 24.6 35.55 25.05 36.95 25.8 37.7 26.0 37.85 26.7 37.95 27.0" fill="#c8e4f7" fill-rule="evenodd" stroke="none"/>
      <path d="M34.95 24.6 Q34.65 23.9 34.65 23.35 L34.65 22.95 35.0 23.3 37.35 24.95 37.8 25.15 37.8 25.25 37.7 25.7 37.7 26.0 36.95 25.8 35.55 25.05 34.95 24.6" fill="#7ab1d7" fill-rule="evenodd" stroke="none"/>
      <path d="M39.15 25.45 L39.0 25.7 39.0 25.75 38.85 25.75 38.5 25.85 38.45 25.9 38.4 26.0 38.35 26.1 38.35 26.25 38.4 26.5 38.25 26.65 38.1 26.0 38.1 25.65 38.15 25.25 39.15 25.45" fill="#04ff00" fill-rule="evenodd" stroke="none"/>
      <path d="M39.0 25.75 L39.15 25.9 39.35 26.45 39.35 26.5 39.25 26.75 38.95 26.85 38.65 26.75 38.4 26.5 38.35 26.25 38.35 26.1 38.4 26.0 38.45 25.9 38.5 25.85 38.85 25.75 39.0 25.75" fill="#eeffff" fill-rule="evenodd" stroke="none"/>
      <path d="M37.8 25.15 L38.15 25.25 38.1 25.65 38.1 26.0 38.25 26.65 37.95 27.0 37.85 26.7 37.7 26.0 37.7 25.7 37.8 25.25 37.8 25.15" fill="#52347a" fill-rule="evenodd" stroke="none"/>
      <path d="M38.25 26.65 L38.45 27.05 38.7 27.45 39.05 27.8 39.8 28.1 39.85 28.4 39.85 28.45 39.65 28.4 39.45 28.4 38.65 27.95 38.6 27.85 37.95 27.0 38.25 26.65" fill="#3d337c" fill-rule="evenodd" stroke="none"/>
      <path d="M5.9 43.0 L6.7 43.3 7.0 43.65 7.0 43.7 8.8 44.85 9.1 44.95 10.25 45.25 10.25 45.3 10.45 45.9 9.6 45.9 9.05 45.85 Q8.3 45.7 7.5 45.1 L6.4 43.95 6.1 43.4 5.9 43.0 M13.6 45.3 L13.1 45.5 12.75 45.65 12.6 45.7 12.25 45.8 12.05 45.9 11.95 45.75 11.6 45.25 11.5 45.05 11.35 44.85 13.0 44.6 13.35 45.0 13.6 45.3" fill="#ecffff" fill-rule="evenodd" stroke="none"/>
      <path d="M-0.45 41.35 L-0.45 40.0 -0.4 40.1 Q0.3 41.65 1.15 42.8 L1.5 43.2 2.2 43.9 2.4 44.15 2.6 44.6 2.3 44.4 1.85 44.1 1.75 44.0 Q0.55 43.15 -0.45 41.35" fill="#40c5ff" fill-rule="evenodd" stroke="none"/>
      <path d="M-0.45 40.0 L-0.45 38.3 1.5 41.05 2.55 42.0 2.15 42.85 2.1 43.25 2.2 43.9 1.5 43.2 1.15 42.8 Q0.3 41.65 -0.4 40.1 L-0.45 40.0" fill="#01caf4" fill-rule="evenodd" stroke="none"/>
      <path d="M2.2 43.9 L2.1 43.25 2.15 42.85 2.55 42.0 3.0 42.25 3.1 42.3 6.1 43.4 6.4 43.95 6.3 44.0 Q5.35 44.6 5.35 45.25 L5.4 45.7 Q3.6 45.1 2.4 44.15 L2.2 43.9" fill="#00d3ff" fill-rule="evenodd" stroke="none"/>
      <path d="M-0.45 38.3 L-0.45 33.1 -0.3 32.8 -0.35 33.25 -0.3 34.25 Q0.0 38.3 2.9 41.0 L2.95 41.65 2.95 41.75 3.0 42.25 2.55 42.0 1.5 41.05 -0.45 38.3" fill="#60e3ff" fill-rule="evenodd" stroke="none"/>
      <path d="M6.7 43.3 L7.5 43.55 9.9 43.95 10.0 44.25 8.5 44.0 7.05 43.65 7.0 43.65 6.7 43.3 M6.1 43.4 L3.1 42.3 3.0 42.25 2.95 41.75 2.95 41.65 2.9 41.0 3.0 41.1 3.4 41.45 4.35 42.15 Q5.05 42.65 5.9 43.0 L6.1 43.4" fill="#6bebff" fill-rule="evenodd" stroke="none"/>
      <path d="M-0.45 45.25 L-0.45 41.35 Q0.55 43.15 1.75 44.0 L1.85 44.1 2.3 45.1 3.45 47.45 3.55 47.7 3.3 47.75 3.15 48.2 2.8 49.25 2.8 49.3 Q1.65 49.65 0.85 50.45 L0.75 50.35 0.25 49.45 0.2 49.3 0.4 49.35 0.95 48.75 1.55 47.8 1.7 47.25 0.05 46.3 -0.45 45.25" fill="#0090e4" fill-rule="evenodd" stroke="none"/>
      <path d="M1.85 44.1 L2.3 44.4 2.6 44.6 5.55 46.5 5.65 46.55 5.7 47.35 5.65 47.35 3.8 47.65 3.55 47.7 3.45 47.45 2.3 45.1 1.85 44.1" fill="#19d5fa" fill-rule="evenodd" stroke="none"/>
      <path d="M-0.45 49.15 L-0.45 47.35 -0.15 47.35 0.6 47.25 0.05 46.3 1.7 47.25 1.55 47.8 0.95 48.75 0.4 49.35 0.2 49.3 -0.45 49.15" fill="#00c1ff" fill-rule="evenodd" stroke="none"/>
      <path d="M-0.45 52.15 L-0.45 49.15 0.2 49.3 0.25 49.45 0.75 50.35 0.85 50.45 0.25 51.05 -0.2 51.75 -0.45 52.15" fill="#0886f4" fill-rule="evenodd" stroke="none"/>
      <path d="M3.55 47.7 L3.8 47.65 5.65 47.35 5.7 47.35 Q8.1 47.35 9.8 49.15 L10.7 50.3 11.15 51.1 11.25 51.3 11.4 51.55 11.5 51.8 11.75 52.4 11.2 52.2 10.65 52.0 10.05 51.75 Q9.55 50.7 8.6 50.0 7.4 49.15 5.75 49.0 L4.9 48.95 2.8 49.3 2.8 49.25 3.15 48.2 3.3 47.75 3.55 47.7" fill="#13b5e4" fill-rule="evenodd" stroke="none"/>
      <path d="M0.9 53.95 L-0.45 53.95 -0.45 52.15 -0.2 51.75 0.25 51.05 0.85 50.45 Q1.65 49.65 2.8 49.3 L4.9 48.95 5.75 49.0 Q5.35 49.2 5.35 49.65 4.5 49.65 3.65 50.2 L2.35 51.4 1.55 52.45 1.4 52.65 0.9 53.95" fill="#02d7ff" fill-rule="evenodd" stroke="none"/>
      <path d="M2.4 44.15 Q3.6 45.1 5.4 45.7 L5.65 45.8 5.9 45.85 9.1 46.55 9.3 46.55 9.45 47.55 9.5 47.9 Q7.85 47.7 5.65 46.55 L5.55 46.5 2.6 44.6 2.4 44.15" fill="#22f9f2" fill-rule="evenodd" stroke="none"/>
      <path d="M5.4 45.7 L5.35 45.25 Q5.35 44.6 6.3 44.0 L6.4 43.95 7.5 45.1 Q8.3 45.7 9.05 45.85 L9.6 45.9 10.45 45.9 10.5 45.95 10.95 46.2 11.3 46.9 11.4 47.05 11.4 47.1 11.25 47.55 10.75 47.2 10.0 46.7 9.3 46.55 9.1 46.55 5.9 45.85 5.65 45.8 5.4 45.7 M7.0 43.65 L7.05 43.65 8.5 44.0 10.0 44.25 10.35 45.0 10.25 45.25 9.1 44.95 8.8 44.85 7.0 43.7 7.0 43.65" fill="#39fffd" fill-rule="evenodd" stroke="none"/>
      <path d="M9.9 43.95 L10.9 44.0 11.1 44.4 11.35 44.85 11.5 45.05 11.6 45.25 11.95 45.75 12.05 45.9 12.7 46.75 12.8 46.9 13.25 47.35 13.5 47.6 15.05 48.75 15.2 49.7 15.25 50.65 13.7 49.7 12.8 48.85 11.55 47.25 11.4 47.05 11.3 46.9 10.95 46.2 Q11.2 46.2 11.35 46.0 L11.5 45.8 11.5 45.6 11.45 45.25 11.4 45.15 11.3 45.05 Q11.15 44.9 11.0 44.9 L10.85 44.85 10.35 44.95 10.35 45.0 10.0 44.25 9.9 43.95" fill="#d0ffff" fill-rule="evenodd" stroke="none"/>
      <path d="M5.7 47.35 L5.65 46.55 Q7.85 47.7 9.5 47.9 L9.45 47.55 10.0 47.95 10.05 47.95 Q9.8 48.35 9.8 49.15 8.1 47.35 5.7 47.35" fill="#04eeef" fill-rule="evenodd" stroke="none"/>
      <path d="M14.85 53.95 L14.15 53.95 13.85 52.9 13.8 52.65 13.7 52.4 13.45 51.85 12.6 50.45 12.6 50.4 12.65 50.4 Q13.15 50.4 13.25 49.8 L13.4 50.0 13.8 50.65 14.5 52.2 15.0 53.35 14.85 53.95 M9.3 46.55 L10.0 46.7 10.75 47.2 11.25 47.55 Q11.95 48.1 12.55 48.8 12.4 48.8 12.3 48.95 L12.25 48.95 12.2 49.05 12.0 49.6 12.0 49.7 10.9 48.6 10.65 48.4 10.05 47.95 10.0 47.95 9.45 47.55 9.3 46.55" fill="#c0ffff" fill-rule="evenodd" stroke="none"/>
      <path d="M9.8 49.15 Q9.8 48.35 10.05 47.95 L10.65 48.4 10.9 48.6 12.0 49.7 Q12.05 50.4 12.6 50.4 L12.6 50.45 13.45 51.85 13.7 52.4 13.65 52.4 12.9 52.55 11.75 52.4 11.5 51.8 11.4 51.55 11.25 51.3 11.15 51.1 10.7 50.3 9.8 49.15" fill="#07f3ff" fill-rule="evenodd" stroke="none"/>
      <path d="M10.9 44.0 L11.05 44.0 12.4 43.9 12.95 44.5 13.0 44.6 11.35 44.85 11.1 44.4 10.9 44.0" fill="#79dce2" fill-rule="evenodd" stroke="none"/>
      <path d="M12.05 45.9 L12.25 45.8 12.6 45.7 12.75 45.65 13.1 45.5 13.6 45.3 Q14.65 46.8 15.05 48.75 L13.5 47.6 13.25 47.35 12.8 46.9 12.7 46.75 12.05 45.9" fill="#4ef2f1" fill-rule="evenodd" stroke="none"/>
      <path d="M10.95 46.2 L10.5 45.95 10.45 45.9 10.25 45.3 10.25 45.25 10.35 45.0 10.35 44.95 10.85 44.85 11.0 44.9 Q11.15 44.9 11.3 45.05 L11.4 45.15 11.45 45.25 11.5 45.6 11.5 45.8 11.35 46.0 Q11.2 46.2 10.95 46.2 M12.0 49.7 L12.0 49.6 12.2 49.05 12.25 48.95 12.3 48.95 12.55 48.85 12.6 48.9 12.8 48.95 12.9 49.0 Q13.25 49.25 13.25 49.75 L13.25 49.8 Q13.15 50.4 12.65 50.4 L12.6 50.4 Q12.05 50.4 12.0 49.7" fill="#fff9ff" fill-rule="evenodd" stroke="none"/>
      <path d="M11.25 47.55 L11.4 47.1 11.4 47.05 11.55 47.25 12.8 48.85 13.7 49.7 15.25 50.65 15.25 51.05 15.0 53.35 14.5 52.2 13.8 50.65 13.4 50.0 13.25 49.8 13.25 49.75 Q13.25 49.25 12.9 49.0 L12.8 48.95 12.6 48.9 12.55 48.85 12.3 48.95 Q12.4 48.8 12.55 48.8 11.95 48.1 11.25 47.55" fill="#11f4e9" fill-rule="evenodd" stroke="none"/>
      <path d="M11.75 52.4 L12.9 52.55 13.65 52.4 13.7 52.4 13.8 52.65 13.85 52.9 13.75 52.95 13.5 53.05 12.0 53.35 11.9 53.35 10.45 53.0 10.35 52.95 10.05 51.75 10.65 52.0 11.2 52.2 11.75 52.4" fill="#95f7ff" fill-rule="evenodd" stroke="none"/>
      <path d="M14.15 53.95 L12.05 53.95 12.05 53.85 12.0 53.35 13.5 53.05 13.75 52.95 13.85 52.9 14.15 53.95" fill="#04edfb" fill-rule="evenodd" stroke="none"/>
      <path d="M10.45 53.95 L8.7 53.95 8.5 53.0 7.65 51.25 7.55 51.15 7.65 51.15 Q7.9 51.15 8.0 50.95 L8.1 50.6 7.9 50.15 7.65 50.0 7.6 50.05 7.4 50.1 7.3 50.2 7.3 50.3 7.25 50.6 7.3 50.8 Q6.35 49.75 5.35 49.9 L5.3 49.7 5.35 49.65 Q5.35 49.2 5.75 49.0 7.4 49.15 8.6 50.0 9.55 50.7 10.05 51.75 L10.35 52.95 10.4 53.05 10.45 53.9 10.45 53.95 M3.7 53.95 L2.4 53.95 Q2.4 53.35 2.7 52.85 L3.1 52.3 Q3.8 51.65 4.65 51.65 L5.3 51.7 5.35 51.95 Q4.75 51.95 4.2 52.75 L3.95 53.2 Q3.7 53.6 3.7 53.95" fill="#8bfcff" fill-rule="evenodd" stroke="none"/>
      <path d="M12.05 53.95 L10.45 53.95 10.45 53.9 10.4 53.05 10.35 52.95 10.45 53.0 11.9 53.35 12.0 53.35 12.05 53.85 12.05 53.95" fill="#00b3f2" fill-rule="evenodd" stroke="none"/>
      <path d="M7.3 50.8 L7.25 50.6 7.3 50.3 7.3 50.2 7.4 50.1 7.6 50.05 7.65 50.0 7.9 50.15 8.1 50.6 8.0 50.95 Q7.9 51.15 7.65 51.15 L7.55 51.15 7.45 51.1 7.4 51.05 7.3 50.8" fill="#e8feff" fill-rule="evenodd" stroke="none"/>
      <path d="M5.4 53.95 L3.7 53.95 Q3.7 53.6 3.95 53.2 L4.2 52.75 Q4.75 51.95 5.35 51.95 L5.3 51.7 4.65 51.65 Q3.8 51.65 3.1 52.3 L2.7 52.85 Q2.4 53.35 2.4 53.95 L1.35 53.95 1.25 53.3 1.4 52.65 1.55 52.45 2.35 51.4 3.65 50.2 Q4.5 49.65 5.35 49.65 L5.3 49.7 5.35 49.9 Q6.35 49.75 7.3 50.8 L7.4 51.05 7.45 51.1 7.55 51.15 7.65 51.25 8.5 53.0 8.25 52.95 Q7.25 52.95 6.4 53.5 L6.45 53.15 6.4 52.9 6.2 52.55 5.95 52.45 5.85 52.45 5.6 52.55 5.45 52.65 5.4 52.65 Q5.25 52.95 5.25 53.4 L5.25 53.55 5.4 53.95" fill="#42fff8" fill-rule="evenodd" stroke="none"/>
      <path d="M6.15 53.95 L5.4 53.95 5.25 53.55 5.25 53.4 Q5.25 52.95 5.4 52.65 L5.45 52.65 5.6 52.55 5.85 52.45 5.95 52.45 6.2 52.55 6.4 52.9 6.45 53.15 6.4 53.5 6.3 53.7 6.3 53.75 6.15 53.95" fill="#eef7ff" fill-rule="evenodd" stroke="none"/>
      <path d="M8.7 53.95 L6.15 53.95 6.3 53.75 6.3 53.7 6.4 53.5 Q7.25 52.95 8.25 52.95 L8.5 53.0 8.7 53.95" fill="#20fff8" fill-rule="evenodd" stroke="none"/>
      <path d="M1.35 53.95 L0.9 53.95 1.4 52.65 1.25 53.3 1.35 53.95" fill="#23d2ff" fill-rule="evenodd" stroke="none"/>
      <path d="M49.7 8.8 L51.1 7.35 52.15 5.55 52.2 7.1 52.15 8.55 51.5 11.1 50.75 12.55 50.4 13.1 50.3 12.9 50.0 11.4 49.9 11.4 48.75 11.95 48.8 11.7 48.85 11.3 48.9 10.8 48.75 10.9 48.35 11.0 48.3 10.3 48.35 9.9 48.8 9.6 49.2 9.2 49.4 9.05 49.7 8.8 M51.05 9.0 L50.85 9.1 50.6 9.6 50.45 10.0 50.4 10.45 Q50.4 11.0 50.65 11.0 L51.25 10.55 51.45 9.55 51.4 9.2 51.3 9.0 51.05 9.0" fill="#0dc6ff" fill-rule="evenodd" stroke="none"/>
      <path d="M51.05 9.0 L51.3 9.0 51.4 9.2 51.45 9.55 51.25 10.55 50.65 11.0 Q50.4 11.0 50.4 10.45 L50.45 10.0 50.6 9.6 50.85 9.1 51.05 9.0" fill="#fffcff" fill-rule="evenodd" stroke="none"/>
      <path d="M48.85 14.75 L47.8 15.65 47.0 16.2 Q46.45 16.1 45.85 15.6 L45.75 15.5 45.55 15.35 45.55 15.3 44.9 14.65 44.35 13.9 43.9 14.05 43.2 14.4 43.05 14.1 42.85 13.5 42.8 13.55 42.25 13.85 42.2 13.3 42.05 12.2 42.05 11.95 42.1 11.75 42.7 11.8 44.55 11.6 44.95 11.5 45.0 11.5 45.1 11.5 45.4 12.25 45.5 12.55 45.9 12.35 46.1 12.25 46.05 12.75 46.1 13.0 46.1 13.1 46.3 13.2 46.65 13.3 46.75 13.3 46.8 13.3 46.75 13.9 46.8 14.05 46.8 14.2 46.8 14.35 46.85 14.35 48.85 14.75" fill="#1a9de3" fill-rule="evenodd" stroke="none"/>
      <path d="M47.0 16.2 L46.8 16.35 46.3 16.65 45.9 17.1 45.75 17.3 45.55 17.65 45.1 18.65 43.85 18.25 43.0 17.8 42.25 17.2 40.9 15.65 39.85 13.9 39.45 13.0 Q40.6 12.25 41.85 11.75 L41.9 11.7 42.1 11.75 42.05 11.95 42.05 12.2 42.2 13.3 42.25 13.85 42.8 13.55 42.85 13.5 43.05 14.1 43.2 14.4 43.9 14.05 44.35 13.9 44.9 14.65 45.55 15.3 45.55 15.35 45.75 15.5 45.85 15.6 Q46.45 16.1 47.0 16.2" fill="#1c5fa6" fill-rule="evenodd" stroke="none"/>
      <path d="M50.4 13.1 L49.7 13.9 48.85 14.75 46.85 14.35 46.8 14.35 46.8 14.2 46.8 14.05 46.75 13.9 46.8 13.3 46.75 13.3 46.65 13.3 46.3 13.2 46.1 13.1 46.1 13.0 46.05 12.75 46.1 12.25 45.9 12.35 45.5 12.55 45.4 12.25 45.1 11.5 46.1 11.15 47.0 10.75 47.65 10.35 48.35 9.9 48.3 10.3 48.35 11.0 48.75 10.9 48.9 10.8 48.85 11.3 48.8 11.7 48.75 11.95 49.9 11.4 50.0 11.4 50.3 12.9 50.4 13.1" fill="#0fa7e8" fill-rule="evenodd" stroke="none"/>
      <path d="M39.45 13.0 L39.85 13.9 40.9 15.65 42.25 17.2 43.0 17.8 43.85 18.25 45.1 18.65 Q44.7 19.75 44.65 21.15 L44.65 21.45 44.6 22.15 Q44.6 23.55 44.9 24.75 L44.35 24.45 44.0 24.2 42.8 23.4 42.3 23.1 39.9 21.4 36.5 18.75 36.45 18.7 35.25 17.75 35.4 17.35 35.4 17.3 35.55 17.0 35.9 16.4 Q36.65 15.25 37.75 14.3 L39.05 13.25 39.45 13.0" fill="#173f85" fill-rule="evenodd" stroke="none"/>
      <path d="M10.45 -1.4 L10.7 1.55 10.75 1.5 10.8 1.5 11.05 1.4 16.85 -0.6 19.5 -1.4 M51.0 -1.4 L51.15 2.05 51.15 2.55 51.15 2.65 50.65 5.8 50.0 8.05 49.7 8.8 M45.75 17.3 L46.3 17.65 49.5 19.95 Q53.0 22.7 55.35 26.5 M55.35 46.05 L52.1 45.5 52.1 45.6 52.1 46.25 Q52.1 47.95 51.15 49.95 L50.35 51.4 49.8 52.25 48.85 53.5 48.9 53.95 M10.7 1.55 Q5.4 3.6 1.2 6.4 L-0.45 7.55 M-0.45 33.1 L-0.3 32.8 -0.35 33.25 -0.3 34.25 0.8 34.4 Q4.2 34.4 6.4 32.55 L6.45 32.5 6.75 32.15 6.85 32.1 Q7.9 31.05 8.3 29.85 L8.6 28.15 Q8.6 26.9 7.9 25.9 7.15 24.9 6.3 24.9 4.35 24.9 2.8 26.2 L2.3 26.65 2.0 26.95 1.95 26.5 1.95 26.4 Q2.0 25.0 3.75 23.65 4.75 22.85 6.35 22.0 7.4 21.45 9.35 20.75 L10.15 20.75 Q10.4 19.8 11.05 18.95 11.15 16.9 11.6 15.35 L12.05 14.15 12.25 13.85 Q12.7 12.95 13.5 12.2 L13.35 12.9 13.3 13.1 Q13.05 14.25 13.05 16.6 L13.1 17.0 Q13.25 19.25 15.85 21.55 17.35 22.9 19.25 23.4 L21.15 23.65 22.45 23.6 23.75 23.45 25.15 23.3 26.4 23.15 Q29.65 23.3 31.3 24.6 L31.7 24.95 Q33.35 26.5 33.35 29.4 L33.35 29.9 Q33.25 31.2 32.65 32.15 L32.55 32.35 32.45 32.5 32.2 32.8 31.2 33.8 30.4 34.4 30.6 34.6 30.7 34.75 30.85 35.0 31.05 36.2 31.0 36.55 31.0 36.8 30.5 37.95 30.05 38.6 29.95 38.65 29.35 39.05 28.4 39.25 Q27.85 39.25 27.35 38.8 L27.0 38.25 26.9 38.0 25.85 38.4 24.55 38.65 24.25 38.65 Q23.0 38.55 21.8 37.9 L21.15 37.5 20.4 36.85 19.9 36.4 19.55 36.0 Q17.85 34.05 17.85 32.3 17.85 31.45 18.2 30.75 L16.3 30.2 Q15.3 29.8 14.45 29.15 L13.7 28.55 12.25 26.55 Q11.0 24.05 11.0 20.25 L11.05 18.95 M-0.45 47.35 L-0.15 47.35 0.6 47.25 0.05 46.3 -0.45 45.25 M0.85 50.45 L0.25 51.05 -0.2 51.75 -0.45 52.15 M46.55 34.25 L46.75 35.45 47.6 36.6 Q49.4 38.65 52.3 38.65 L52.35 38.65 53.65 38.45 Q53.45 39.4 52.7 40.35 L52.65 40.45 51.25 41.7 51.8 43.5 52.0 44.7 52.05 45.15 52.1 45.5 M46.2 41.85 L46.25 41.9 46.55 42.85 46.6 43.1 46.7 43.6 47.0 45.45 47.35 49.15 47.35 49.45 47.35 50.95 47.1 52.85 46.8 53.95 M46.2 41.85 L45.85 41.2 M27.5 11.95 L26.6 11.85 24.15 11.75 Q21.85 11.75 20.25 12.45 L19.8 12.7 19.7 12.75 19.8 12.8 20.4 13.45 20.75 14.2 20.95 15.55 Q20.95 17.0 19.95 18.4 18.75 20.15 16.9 20.15 16.15 20.15 15.6 19.4 14.9 18.55 14.9 16.9 L15.05 16.2 15.1 15.9 Q14.15 16.2 13.1 17.0 M18.2 30.75 Q18.55 29.9 19.3 29.2 L19.6 28.9 19.7 28.8 19.8 28.7 20.5 28.2 21.1 27.85 Q21.3 27.7 21.45 27.65 L23.35 26.8 24.4 26.6 25.2 26.55 25.25 26.55 25.45 26.55 26.75 26.7 Q28.1 26.95 28.75 27.7 L28.9 27.9 29.1 28.15 29.15 28.25 29.35 28.65 29.6 29.4 29.65 30.15 29.55 31.5 29.5 31.85 29.15 32.8 28.95 33.25 28.65 33.7 28.65 33.75 27.9 34.7 M9.45 38.75 L9.45 39.1 9.4 39.7 Q9.4 40.7 9.65 41.5 L9.95 42.45 8.75 42.5 8.1 42.55 4.35 42.15 Q5.05 42.65 5.9 43.0 L6.7 43.3 7.5 43.55 9.9 43.95 10.9 44.0 11.05 44.0 Q10.35 43.35 9.95 42.45 M9.45 38.75 L9.55 37.85 M2.9 41.0 Q0.0 38.3 -0.3 34.25 M2.9 41.0 L3.0 41.1 3.4 41.45 4.35 42.15 M0.85 50.45 Q1.65 49.65 2.8 49.3 L4.9 48.95 5.75 49.0 Q7.4 49.15 8.6 50.0 9.55 50.7 10.05 51.75 L10.35 52.95 10.4 53.05 10.45 53.9 M13.6 45.3 L13.35 45.0 13.0 44.6 12.95 44.5 12.4 43.9 11.05 44.0 M15.05 48.75 Q14.65 46.8 13.6 45.3 M15.25 50.65 L15.2 49.7 15.05 48.75 M27.9 53.95 L28.1 53.65 29.05 52.65 29.4 52.6 M15.25 50.65 L15.25 51.05 15.0 53.35 14.85 53.95 M11.4 51.55 L11.25 51.3 11.15 51.1" fill="none" stroke="#001e5e" stroke-linecap="round" stroke-linejoin="round" stroke-width="1.0"/>
      <path d="M49.7 8.8 L51.1 7.35 52.15 5.55 52.2 7.1 52.15 8.55 51.5 11.1 50.75 12.55 50.4 13.1 49.7 13.9 48.85 14.75 47.8 15.65 47.0 16.2 46.8 16.35 46.3 16.65 45.9 17.1 45.75 17.3 45.55 17.65 45.1 18.65 Q44.7 19.75 44.65 21.15 L44.65 21.45 45.45 22.1 45.75 22.35 46.5 23.05 47.05 23.5 47.15 23.6 47.35 23.8 47.9 24.3 48.2 24.6 48.2 24.65 48.25 25.45 48.35 25.85 Q48.5 26.5 48.8 27.15 L49.6 28.45 49.65 28.5 Q50.8 30.05 53.0 31.55 L53.4 31.8 53.05 31.8 52.65 31.75 51.95 31.8 51.45 31.8 50.7 31.9 50.5 32.2 50.45 32.3 50.25 32.95 50.25 33.1 50.25 33.15 50.25 33.45 Q50.35 34.0 50.75 34.4 L51.1 34.7 50.9 34.8 50.3 35.05 48.5 34.6 47.55 34.4 46.55 34.25 44.75 34.05 44.6 34.05 42.4 33.95 41.4 33.9 39.7 34.0 39.25 34.05 37.85 34.3 37.2 34.45 35.2 35.15 34.55 35.55 Q33.85 35.95 33.4 36.4 32.5 37.4 32.5 38.6 L32.5 38.65 Q32.5 39.7 33.1 40.65 31.55 40.0 30.15 38.7 L30.05 38.6 M32.95 1.55 L33.25 -1.25 33.6 -1.0 34.55 0.0 35.6 1.55 37.1 5.1 37.85 8.65 37.85 8.85 37.95 10.4 37.95 11.35 37.85 13.4 37.8 14.0 37.75 14.3 Q36.65 15.25 35.9 16.4 L35.55 17.0 35.4 17.3 35.4 17.35 35.25 17.75 34.9 18.6 M47.0 10.75 L47.65 10.35 48.35 9.9 48.8 9.6 49.2 9.2 49.4 9.05 49.7 8.8 M46.1 11.15 L47.0 10.75 M41.85 11.75 L41.9 11.7 42.1 11.75 42.7 11.8 44.55 11.6 44.95 11.5 45.0 11.5 45.1 11.5 46.1 11.15 M41.85 11.75 Q40.6 12.25 39.45 13.0 L39.05 13.25 37.75 14.3 M53.45 31.85 L53.5 32.0 53.65 33.0 53.6 33.0 51.9 34.25 51.1 34.7 M36.5 18.75 L36.45 18.75 36.3 19.2 M44.65 21.45 L44.6 22.15 Q44.6 23.55 44.9 24.75 L44.95 24.9 45.0 25.15 Q45.3 26.3 45.65 26.7 M40.6 25.75 L39.9 25.6 39.15 25.45 38.15 25.25 37.8 25.15 37.35 24.95 35.0 23.3 34.65 22.95 34.65 23.35 Q34.65 23.9 34.95 24.6 L35.2 25.15 36.3 26.95 36.95 27.5 37.3 27.75 38.45 28.45 39.45 28.4 39.65 28.4 39.85 28.45 40.75 28.55 41.9 28.9 43.6 29.65 43.75 29.75 43.85 29.8 43.9 29.6 43.9 29.55 Q43.9 28.6 43.1 27.4 L43.0 27.3 42.7 26.9 42.5 26.65 42.3 26.45 41.75 25.95 40.6 25.75 M32.95 1.55 L32.7 2.45 31.45 5.8 30.15 8.3 29.3 9.65 28.25 11.05 27.65 11.75 27.6 11.85 27.5 11.95 26.6 13.0 26.05 13.5 25.8 13.75 25.6 13.9 25.5 14.05 24.1 15.55 Q23.1 17.1 23.0 19.45 L23.0 20.05 23.0 20.35 Q23.05 21.45 23.55 22.95 L23.75 23.45 M36.45 18.7 L36.45 18.75" fill="none" stroke="#4f1758" stroke-linecap="round" stroke-linejoin="round" stroke-width="1.0"/>
    </g>
    <g id="shape2" transform="matrix(1.0, 0.0, 0.0, 1.0, 0.0, 0.0)">
      <path d="M50.5 0.0 Q53.95 0.0 53.95 3.3 L53.95 50.15 Q53.95 53.4 50.5 53.4 L3.3 53.4 Q0.0 53.4 0.0 50.15 L0.0 3.3 Q0.0 0.0 3.3 0.0 L50.5 0.0" fill="#000000" fill-opacity="0.003921569" fill-rule="evenodd" stroke="none"/>
    </g>
  </defs>
</svg>
