<?xml version="1.0" encoding="UTF-8" standalone="no"?>
<svg xmlns:ffdec="https://www.free-decompiler.com/flash" xmlns:xlink="http://www.w3.org/1999/xlink" ffdec:objectType="frame" height="57.2px" width="56.35px" xmlns="http://www.w3.org/2000/svg">
  <g transform="matrix(1.0, 0.0, 0.0, 1.0, 2.4, 3.2)">
    <clipPath id="clipPath0" transform="matrix(1.0, 0.0, 0.0, 1.0, 0.0, 0.0)">
      <path d="M50.5 0.0 Q53.95 0.0 53.95 3.3 L53.95 50.15 Q53.95 53.4 50.5 53.4 L3.3 53.4 Q0.0 53.4 0.0 50.15 L0.0 3.3 Q0.0 0.0 3.3 0.0 L50.5 0.0" fill="#000000" fill-rule="evenodd" stroke="none"/>
    </clipPath>
    <g clip-path="url(#clipPath0)">
      <use ffdec:characterId="2" height="57.2" transform="matrix(1.0, 0.0, 0.0, 1.0, -2.4, -3.2)" width="54.85" xlink:href="#shape1"/>
    </g>
    <use ffdec:characterId="3" height="53.4" transform="matrix(1.0, 0.0, 0.0, 1.0, 0.0, 0.0)" width="53.95" xlink:href="#shape2"/>
  </g>
  <defs>
    <g id="shape1" transform="matrix(1.0, 0.0, 0.0, 1.0, 2.4, 3.2)">
      <path d="M8.1 -0.75 L8.4 -0.4 7.45 -0.25 6.0 0.05 Q6.8 1.2 8.35 2.05 L8.75 2.25 10.9 3.05 10.45 3.8 8.05 3.4 4.5 3.15 2.3 3.25 1.3 3.3 0.5 3.0 -0.7 2.3 Q-1.85 1.45 -1.85 0.05 L-1.65 -1.9 -0.3 -1.9 5.75 -1.25 8.1 -0.75 M19.95 -1.95 L20.0 -2.05 20.05 -2.15 20.4 -2.3 22.55 -2.7 Q24.8 -2.7 28.5 -0.7 L28.4 -0.65 27.25 0.15 27.05 0.25 28.0 0.7 28.35 0.9 28.35 0.95 27.9 1.75 27.35 1.6 26.65 1.45 25.75 1.6 24.8 1.25 24.5 1.15 24.0 0.95 25.15 0.55 24.45 0.3 24.0 0.15 23.2 0.0 22.75 0.1 22.8 0.35 22.45 -0.05 23.1 -1.1 23.4 -1.45 21.9 -1.6 19.95 -1.95 M19.05 2.85 L19.0 1.85 Q19.0 -0.05 19.65 -1.45 19.8 -1.35 20.15 -1.2 L20.75 -1.1 21.65 -1.2 22.35 -1.2 22.35 -1.0 21.75 0.05 22.05 0.3 22.8 0.75 22.8 0.8 22.75 1.5 23.4 1.2 24.5 2.4 Q24.25 2.7 24.1 3.15 L24.0 3.1 22.7 3.05 22.25 3.05 22.1 3.05 20.3 2.8 19.85 2.55 19.6 2.7 19.15 2.85 19.05 2.85 M39.6 4.2 L40.75 4.1 42.2 4.25 42.05 4.45 Q41.6 5.65 41.6 7.35 L41.75 9.0 41.6 9.2 40.9 10.25 40.7 10.05 40.2 9.4 39.9 8.95 40.0 11.05 38.45 9.45 38.3 9.3 37.8 8.65 37.8 8.45 37.8 8.2 Q37.9 6.35 38.95 5.1 L39.6 4.55 39.55 4.35 39.6 4.2 M42.65 11.75 L43.2 12.7 43.4 13.0 43.35 13.2 43.45 14.75 42.9 14.35 42.5 14.0 41.85 12.55 41.8 12.5 41.85 12.65 41.8 12.7 Q41.65 13.25 41.65 13.85 L41.7 14.95 41.8 16.6 41.85 17.1 41.9 17.5 41.65 17.6 40.65 17.45 40.15 17.35 40.05 17.35 39.9 16.9 Q39.45 15.8 39.45 14.4 L38.45 12.5 38.15 11.5 37.85 9.9 38.95 10.95 39.2 11.25 39.75 11.95 40.4 12.95 40.45 13.1 40.4 12.7 40.5 11.6 40.75 11.2 41.95 11.55 42.65 11.75 M-1.9 12.5 L-1.9 7.15 -1.6 7.95 -1.55 8.2 -1.05 9.45 -0.3 10.1 Q-0.95 10.95 -0.95 12.2 -0.95 13.75 0.35 15.15 1.5 16.3 3.35 17.15 L3.35 17.25 3.45 18.15 2.7 18.05 Q0.2 17.15 -1.2 14.0 L-1.9 12.5 M41.1 5.15 L40.9 4.8 40.9 4.75 40.85 4.75 40.7 4.8 Q40.3 5.0 40.3 5.7 40.3 6.05 40.45 6.05 L40.95 5.65 41.1 5.15 M22.7 16.1 L22.65 16.75 22.65 17.0 22.55 19.65 23.8 20.55 Q24.85 21.75 24.85 23.35 24.85 24.25 24.4 24.9 L24.4 24.95 21.1 24.45 Q19.65 23.9 18.25 22.5 L16.45 20.4 16.4 20.35 16.4 20.3 16.35 20.25 Q15.8 18.65 15.8 17.0 L15.9 16.2 15.95 16.05 16.1 15.6 16.1 15.55 16.05 15.45 16.2 15.5 16.6 15.7 17.85 16.75 18.65 17.65 18.45 16.95 18.25 15.95 18.6 15.7 Q19.15 15.35 19.75 15.2 L19.8 15.5 20.05 16.65 20.55 16.75 21.95 16.45 Q22.2 16.35 22.5 16.2 L22.7 16.1 M20.6 18.3 L20.0 17.5 19.85 17.55 19.6 17.75 20.15 18.35 20.45 18.6 21.3 18.95 20.8 18.45 20.6 18.3 M15.2 8.7 Q16.75 9.5 17.95 11.1 L18.7 12.3 18.95 12.75 18.8 13.5 18.65 14.05 18.6 14.15 18.55 14.1 17.95 13.4 17.6 12.9 17.6 13.3 17.5 14.45 17.5 14.7 17.5 14.75 17.5 14.85 17.35 14.8 16.0 14.25 15.8 12.05 15.7 11.7 15.4 10.65 15.3 10.4 14.9 9.5 14.8 9.35 14.75 9.25 14.55 8.95 14.45 8.85 14.1 8.5 13.95 8.2 14.75 8.45 15.2 8.7 M7.1 8.85 L7.05 8.8 5.7 8.55 5.75 8.3 5.7 7.55 5.35 6.3 4.55 5.15 3.25 4.2 3.5 4.2 7.75 4.75 8.95 5.05 9.8 5.35 9.35 5.7 8.4 6.65 Q7.5 7.65 7.1 8.85 M16.2 10.55 L15.9 10.15 16.15 11.65 16.25 11.45 16.4 11.3 16.55 11.15 16.45 11.0 16.25 10.7 16.2 10.55" fill="#e89b2e" fill-rule="evenodd" stroke="none"/>
      <path d="M17.75 2.1 L18.3 2.65 19.05 2.85 19.5 5.0 19.85 5.85 20.25 6.45 20.2 6.6 19.8 7.05 19.6 7.3 19.3 7.75 19.65 8.05 20.85 8.3 20.9 8.35 21.15 9.05 22.2 9.35 22.8 9.3 22.9 9.25 22.95 9.4 23.4 10.3 24.65 12.8 24.75 12.95 24.45 13.4 24.05 13.15 Q22.5 12.0 21.45 9.75 L21.15 9.05 20.75 8.8 20.05 8.35 19.65 8.05 19.15 7.95 19.3 7.75 18.35 6.65 18.6 6.05 18.4 5.55 18.4 5.5 18.1 5.2 18.3 5.35 18.15 4.95 Q17.75 3.7 17.75 2.4 L17.75 2.1 M34.25 1.5 L35.1 1.55 36.5 5.1 34.5 3.55 33.9 3.15 Q34.3 2.85 34.3 2.2 L34.25 1.5 M35.0 6.55 Q34.6 7.15 34.55 7.85 L34.25 7.8 33.45 7.85 33.2 7.2 33.35 5.85 33.3 5.85 32.55 6.15 32.5 6.05 32.05 5.55 31.25 4.9 31.75 3.95 31.8 3.85 31.75 3.65 31.7 3.5 32.15 3.45 32.2 3.5 33.1 4.35 33.4 4.7 34.25 5.65 35.0 6.55 M27.9 1.75 L28.3 1.85 29.5 2.5 30.45 3.4 30.6 3.7 30.75 4.05 30.7 4.55 29.8 4.25 29.65 4.2 Q29.55 3.25 28.8 2.7 28.25 2.3 27.55 2.2 L27.9 1.75 M24.0 8.3 L24.1 8.0 24.4 7.15 24.6 6.65 24.5 6.45 24.1 5.2 24.05 5.05 23.95 4.05 Q23.95 3.55 24.1 3.15 L25.05 3.25 24.85 4.05 25.0 5.25 Q25.15 6.0 25.6 6.75 L25.8 7.15 26.0 7.45 26.65 8.2 27.35 8.6 26.1 9.3 25.8 10.05 25.0 9.4 24.7 9.05 24.0 8.3 M22.95 15.95 L22.7 16.1 22.5 16.2 Q22.2 16.35 21.95 16.45 L19.8 13.5 18.7 12.3 17.95 11.1 Q16.75 9.5 15.2 8.7 L16.4 8.1 Q18.75 9.35 20.45 10.85 L21.55 12.75 21.65 13.0 22.95 15.95 M18.3 5.35 L18.4 5.5 18.3 5.35 M14.35 9.1 L14.35 9.15 14.4 9.25 14.2 9.15 14.35 9.1 M-0.2 24.0 L0.4 23.35 0.8 22.9 Q1.4 22.3 1.8 22.3 L2.7 22.4 1.65 24.6 1.5 24.95 1.0 26.75 0.65 25.85 -0.2 24.0 M10.85 26.1 L13.05 26.55 13.3 26.65 12.2 27.8 10.95 26.2 10.85 26.1 M8.15 26.0 L7.25 26.45 7.05 26.55 Q5.8 27.25 5.1 27.65 L4.85 28.0 3.95 29.4 3.4 29.3 2.05 28.9 2.35 28.85 Q2.7 27.3 4.55 26.6 5.9 26.05 8.15 26.0" fill="#d06411" fill-rule="evenodd" stroke="none"/>
      <path d="M-1.65 -1.9 L-1.85 0.05 Q-1.85 1.45 -0.7 2.3 L0.5 3.0 1.3 3.3 -1.9 3.9 -1.9 -1.9 -1.65 -1.9 M-1.9 7.15 L-1.9 5.25 -0.25 6.3 0.7 6.8 1.0 6.95 2.2 7.4 2.45 7.4 4.3 7.35 3.5 7.05 2.65 6.5 3.1 6.25 3.25 6.1 3.45 6.0 1.85 5.65 1.1 5.55 Q-0.9 5.3 -1.45 4.85 L-0.5 4.6 3.25 4.2 4.55 5.15 5.35 6.3 5.7 7.55 5.75 8.3 5.7 8.55 4.75 8.45 3.75 8.4 Q1.9 8.4 0.6 9.25 L-0.3 10.1 -1.05 9.45 -1.55 8.2 -1.6 7.95 -1.9 7.15" fill="#f5a636" fill-rule="evenodd" stroke="none"/>
      <path d="M10.45 3.8 L10.9 3.05 11.5 3.2 14.85 3.5 15.0 3.5 17.45 4.8 18.05 5.15 18.1 5.2 18.4 5.5 18.4 5.55 18.6 6.05 18.35 6.65 15.8 5.45 15.05 5.2 11.6 4.05 10.45 3.8 M27.9 1.75 L28.35 0.95 28.35 0.9 28.0 0.7 27.05 0.25 27.25 0.15 28.4 -0.65 28.5 -0.7 28.95 -0.45 31.3 1.0 33.1 1.35 33.8 1.45 34.25 1.5 34.3 2.2 Q34.3 2.85 33.9 3.15 L33.05 2.7 32.9 2.6 Q31.15 1.65 29.3 1.3 L28.7 1.15 28.6 1.15 28.7 1.2 Q29.75 1.65 30.8 2.4 L31.65 3.05 32.15 3.45 31.7 3.5 31.75 3.65 31.8 3.85 31.75 3.95 31.25 4.9 31.2 4.8 30.7 4.55 30.75 4.05 30.6 3.7 30.45 3.4 29.5 2.5 28.3 1.85 27.9 1.75 M-1.9 20.8 L-1.9 12.5 -1.2 14.0 Q0.2 17.15 2.7 18.05 L3.45 18.15 Q3.65 19.8 4.85 20.95 L5.3 21.35 5.65 21.65 4.9 21.3 3.8 20.6 Q3.1 20.05 2.7 19.3 3.1 20.05 3.8 20.6 L2.7 22.4 1.8 22.3 Q1.4 22.3 0.8 22.9 L0.4 23.35 -0.2 24.0 -1.25 21.55 -1.3 21.5 -1.9 20.8 M19.05 2.85 L19.15 2.85 19.6 2.7 19.85 2.55 20.3 2.8 22.1 3.05 22.25 3.05 22.7 3.05 24.0 3.1 24.1 3.15 Q23.95 3.55 23.95 4.05 L24.05 5.05 24.1 5.2 24.5 6.45 24.6 6.65 24.4 7.15 24.1 8.0 24.0 8.3 23.35 7.4 22.45 6.15 21.9 5.3 21.75 5.05 21.05 3.9 21.25 5.05 21.6 6.15 22.7 8.75 22.9 9.25 22.8 9.3 22.2 9.35 21.15 9.05 20.9 8.35 20.85 8.3 19.65 8.05 19.3 7.75 19.6 7.3 19.8 7.05 20.2 6.6 20.25 6.45 19.85 5.85 19.5 5.0 19.05 2.85 M9.8 5.35 L13.65 6.8 13.95 6.9 14.4 7.1 15.15 7.45 16.4 8.1 15.2 8.7 14.75 8.45 13.95 8.2 14.1 8.5 14.2 8.65 14.35 9.1 14.2 9.15 Q12.65 8.55 11.05 8.5 L10.95 9.45 11.1 10.45 Q10.25 9.95 9.45 9.6 L7.1 8.85 Q7.5 7.65 8.4 6.65 L9.35 5.7 9.8 5.35" fill="#dd861c" fill-rule="evenodd" stroke="none"/>
      <path d="M45.9 49.3 L46.1 49.55 46.5 50.2 Q46.7 52.05 45.95 53.3 L45.7 52.35 45.1 50.4 45.05 50.35 45.05 50.3 44.2 50.15 44.0 50.15 42.45 50.4 41.9 50.65 41.4 51.0 Q40.6 51.7 40.6 52.85 L41.2 53.5 37.2 53.5 36.95 52.3 36.8 51.55 36.65 50.8 36.6 50.75 37.6 49.3 38.35 48.4 38.4 48.5 38.45 48.55 39.25 50.15 Q39.45 49.55 40.25 49.05 41.05 48.6 41.75 48.55 L42.25 48.5 45.0 48.9 45.15 48.95 45.9 49.3 M14.8 49.8 L12.1 47.65 10.65 46.2 11.0 46.65 11.7 47.35 12.2 47.85 Q12.05 49.75 10.95 52.1 L10.2 53.5 9.7 53.5 9.65 53.15 8.9 50.4 8.0 48.6 6.6 48.2 5.3 47.9 4.05 47.95 2.5 49.25 1.95 49.75 Q0.6 51.1 0.15 52.15 L0.45 53.15 0.55 53.5 -0.3 53.5 -1.0 52.75 -1.5 51.75 -1.9 50.7 -1.9 48.85 -1.85 48.65 Q-1.35 46.55 -1.35 43.05 L-1.35 41.7 -1.55 38.7 -1.75 36.65 -1.65 36.5 -1.25 36.5 -1.15 36.4 -1.55 36.45 -0.25 34.9 -0.1 34.7 2.1 34.8 1.85 35.8 1.95 35.8 2.7 35.85 3.15 35.85 6.35 36.3 6.45 36.35 6.8 36.2 8.15 35.1 9.05 34.0 8.7 33.75 8.55 33.65 Q10.2 33.35 11.45 32.0 12.75 30.65 12.85 29.2 L12.75 29.0 12.2 27.8 13.3 26.65 13.8 26.75 14.3 27.95 15.5 29.9 15.95 30.55 16.0 30.65 16.2 31.3 16.7 33.75 16.7 34.45 16.45 34.6 16.25 36.15 Q16.25 37.1 16.4 37.8 15.4 38.35 14.1 39.9 13.05 41.15 12.6 42.15 L12.8 42.55 Q13.05 42.85 13.6 42.85 L14.2 42.7 14.45 42.6 Q14.65 43.6 15.4 45.1 L15.2 45.9 15.2 45.95 Q14.9 47.35 14.8 49.8 M21.95 16.45 L20.55 16.75 20.05 16.65 19.8 15.5 19.75 15.2 19.3 13.7 19.8 13.5 21.95 16.45 M12.3 18.75 L12.3 19.0 12.25 19.9 12.5 22.4 11.45 22.4 9.55 22.35 9.25 22.35 Q10.4 20.65 11.95 19.1 L12.3 18.75 M10.65 46.2 Q9.75 45.1 9.1 43.8 8.65 42.8 7.9 39.75 L7.5 38.05 7.1 37.75 7.75 36.85 8.6 36.05 10.05 34.75 10.2 34.7 12.4 34.05 12.7 32.85 13.0 30.15 13.0 29.6 12.85 29.2 13.0 29.6 13.0 30.15 12.7 32.85 12.4 34.05 10.2 34.7 10.05 34.75 8.6 36.05 7.75 36.85 7.1 37.75 7.5 38.05 7.9 39.75 Q8.65 42.8 9.1 43.8 9.75 45.1 10.65 46.2 M7.05 26.55 L6.55 27.65 6.35 28.35 4.85 28.0 5.1 27.65 Q5.8 27.25 7.05 26.55 M5.95 31.2 L5.95 31.35 6.1 32.35 6.4 33.75 5.75 33.15 4.75 31.7 3.45 31.65 3.05 32.4 2.0 32.05 3.3 30.3 5.05 30.75 5.95 31.2 M1.8 36.65 L1.55 36.7 1.8 36.75 1.8 36.65 2.05 36.65 3.1 36.55 2.05 36.65 1.8 36.65 M3.25 36.55 L3.1 36.55 3.25 36.55 3.3 36.55 Q5.05 36.55 6.55 37.4 L7.1 37.75 6.55 37.4 Q5.05 36.55 3.3 36.55 L3.25 36.55 M5.55 39.95 L5.25 39.6 4.4 38.7 Q3.2 37.7 1.85 37.55 L1.15 37.5 1.1 39.0 1.1 39.4 1.1 39.7 Q1.2 41.3 1.7 42.4 1.0 41.85 0.5 40.9 L0.45 40.75 -0.05 39.9 0.15 41.25 0.55 43.6 Q0.8 44.9 1.5 46.5 L3.15 46.05 4.15 46.0 Q4.85 46.0 5.95 46.5 L7.05 47.2 7.85 46.75 7.35 43.85 6.8 41.6 6.75 41.5 6.75 41.6 6.6 42.5 6.25 43.4 Q5.8 42.25 5.65 40.95 L5.65 40.9 5.55 39.95" fill="#aa2e0c" fill-rule="evenodd" stroke="none"/>
      <path d="M42.85 44.6 L43.1 45.05 45.9 49.3 45.15 48.95 45.0 48.9 42.25 48.5 41.75 48.55 Q41.05 48.6 40.25 49.05 39.45 49.55 39.25 50.15 L38.45 48.55 38.4 48.5 38.35 48.4 40.85 46.05 41.6 45.45 41.8 45.3 42.85 44.6 M32.85 50.35 L32.8 50.4 30.6 52.1 Q30.1 52.5 29.65 53.0 L29.35 50.7 29.35 50.6 29.45 50.6 32.85 50.35 M19.75 53.5 L17.65 53.5 17.35 53.0 15.8 50.35 14.8 49.8 Q14.9 47.35 15.2 45.95 L15.2 45.9 15.4 45.1 15.55 45.4 15.95 46.25 Q16.95 48.2 18.0 49.2 L18.15 49.2 19.25 49.45 19.3 49.45 20.95 49.6 20.45 50.6 20.1 51.65 19.9 52.9 19.9 53.3 19.75 53.5 M12.2 27.8 L12.75 29.0 12.85 29.2 Q12.75 30.65 11.45 32.0 10.2 33.35 8.55 33.65 L8.7 33.75 9.05 34.0 8.15 35.1 6.8 36.2 6.45 36.35 6.35 36.3 3.15 35.85 2.7 35.85 1.95 35.8 1.85 35.8 2.1 34.8 3.0 34.85 3.75 32.8 3.15 32.45 3.05 32.4 3.45 31.65 4.75 31.7 5.75 33.15 6.4 33.75 6.1 32.35 5.95 31.35 5.95 31.2 7.15 32.0 8.4 30.1 8.1 29.6 Q7.45 28.75 6.35 28.35 L6.55 27.65 7.05 26.55 7.25 26.45 8.15 26.0 8.95 25.95 10.85 26.1 10.95 26.2 12.2 27.8 M10.6 27.1 L9.7 26.85 9.4 26.95 9.35 26.95 Q8.65 27.2 8.65 28.1 8.65 29.05 9.3 29.5 L9.45 29.6 10.5 29.9 10.65 29.9 11.45 29.4 11.6 28.95 11.6 28.55 11.05 27.5 10.6 27.1 M5.55 39.95 L5.65 40.9 5.65 40.95 Q5.8 42.25 6.25 43.4 L6.6 42.5 6.75 41.6 6.75 41.5 6.8 41.6 7.35 43.85 7.85 46.75 7.05 47.2 5.95 46.5 Q4.85 46.0 4.15 46.0 L3.15 46.05 1.5 46.5 Q0.8 44.9 0.55 43.6 L0.15 41.25 -0.05 39.9 0.45 40.75 0.5 40.9 Q1.0 41.85 1.7 42.4 1.2 41.3 1.1 39.7 L1.1 39.4 1.1 39.0 1.15 37.5 1.85 37.55 Q3.2 37.7 4.4 38.7 L5.25 39.6 5.55 39.95" fill="#d74d27" fill-rule="evenodd" stroke="none"/>
      <path d="M45.95 53.3 L46.0 53.5 44.95 53.5 44.9 53.2 44.7 52.3 44.4 50.9 44.2 50.15 45.05 50.3 45.05 50.35 45.1 50.4 45.7 52.35 45.95 53.3 M43.25 53.5 L41.2 53.5 40.6 52.85 Q40.6 51.7 41.4 51.0 L42.45 52.6 42.5 52.65 43.25 53.5 M8.45 53.5 L7.9 53.5 8.15 51.75 8.2 51.5 8.35 51.85 8.35 51.95 8.4 52.15 8.45 53.4 8.45 53.5 M2.45 53.5 L1.55 53.5 1.45 52.8 1.35 52.05 Q1.5 51.45 1.95 50.8 L2.05 51.4 2.05 51.45 2.15 51.85 2.45 53.5 M-1.9 40.45 L-1.9 35.65 -1.6 35.65 -1.0 34.45 -0.95 34.45 -0.25 34.9 -1.55 36.45 -1.15 36.4 -1.25 36.5 -1.65 36.5 -1.75 36.65 -1.55 38.7 -1.35 41.7 -1.9 40.45 M1.55 36.7 L1.8 36.65 1.8 36.75 1.55 36.7" fill="#4e606d" fill-rule="evenodd" stroke="none"/>
      <path d="M27.45 53.5 L22.8 53.5 23.2 53.0 Q24.3 52.0 25.75 52.0 L26.6 52.15 27.15 52.45 27.65 53.1 27.45 53.5 M6.35 28.35 Q7.45 28.75 8.1 29.6 L8.4 30.1 7.15 32.0 5.95 31.2 6.1 29.6 6.35 28.35 M3.05 32.4 L3.15 32.45 3.75 32.8 3.0 34.85 2.1 34.8 2.7 33.15 3.05 32.4 M18.85 39.7 Q20.55 39.7 22.2 41.15 23.5 42.3 24.15 43.8 L25.35 44.55 25.35 44.8 25.35 45.5 25.75 45.2 25.9 45.05 26.05 44.95 26.5 45.2 28.5 46.2 29.55 46.6 30.8 47.1 30.85 47.65 30.75 48.45 30.45 49.25 29.35 49.6 29.1 49.65 26.6 49.95 26.2 49.95 26.15 49.95 25.95 49.7 25.7 49.2 25.45 48.6 24.8 49.3 24.3 49.85 20.65 48.9 Q19.35 48.25 18.6 47.95 L18.4 47.6 Q17.55 46.1 17.55 43.5 17.55 41.75 17.8 40.5 L17.95 39.8 18.85 39.7" fill="#e5ef41" fill-rule="evenodd" stroke="none"/>
      <path d="M41.55 42.1 L41.3 42.3 39.6 43.05 Q38.1 43.65 36.4 43.65 L36.25 43.65 35.5 43.65 33.9 43.75 35.5 43.65 36.25 43.65 35.65 45.45 35.3 46.35 34.2 48.55 33.95 48.95 32.85 50.35 29.45 50.6 29.35 50.6 29.35 50.7 29.65 53.0 29.2 53.5 27.45 53.5 27.65 53.1 27.15 52.45 26.6 52.15 25.75 52.0 Q24.3 52.0 23.2 53.0 L22.8 53.5 20.35 53.5 20.1 53.15 19.9 52.9 20.1 51.65 20.45 50.6 20.95 49.6 19.3 49.45 19.25 49.45 18.15 49.2 18.0 49.2 Q16.95 48.2 15.95 46.25 L15.55 45.4 15.4 45.1 Q14.65 43.6 14.45 42.6 L14.2 42.7 13.6 42.85 Q13.05 42.85 12.8 42.55 L12.6 42.15 Q13.05 41.15 14.1 39.9 15.4 38.35 16.4 37.8 16.25 37.1 16.25 36.15 L16.45 34.6 16.7 34.45 16.65 34.55 22.15 37.1 22.6 37.35 24.85 41.15 25.05 41.45 25.45 42.35 26.0 42.7 26.05 42.75 Q26.7 43.1 27.2 43.4 L28.8 44.35 32.4 45.5 33.65 45.65 33.65 45.6 33.9 43.75 33.95 43.55 33.95 43.45 32.65 43.3 31.75 43.25 32.65 43.3 33.95 43.45 33.95 43.55 33.0 43.45 31.75 43.25 31.45 43.2 31.45 43.15 29.85 41.25 28.4 39.1 28.1 38.65 27.6 37.75 26.6 36.1 26.8 35.75 27.4 34.7 27.45 34.7 27.2 34.4 26.7 33.7 26.4 33.25 26.25 33.05 26.05 32.75 25.9 32.5 26.35 32.15 27.0 31.75 27.55 31.4 27.8 31.25 28.35 30.9 28.3 30.45 28.3 30.25 28.25 30.0 28.25 29.95 Q28.25 28.2 28.95 26.7 L29.15 26.35 29.8 27.1 29.55 27.9 29.4 29.35 29.45 30.2 Q29.55 30.85 29.8 31.25 L29.8 31.4 28.9 32.2 28.1 33.15 28.8 34.2 28.55 34.75 28.5 34.85 28.5 34.9 Q28.8 37.55 30.95 39.7 32.55 41.35 34.55 42.2 L36.2 41.85 36.45 41.75 36.65 41.7 37.8 41.25 37.85 39.9 37.95 38.8 38.05 37.55 38.1 37.3 38.45 37.7 39.05 38.35 39.2 39.45 39.2 39.6 40.35 40.95 40.4 41.0 40.55 41.2 41.05 41.65 41.55 42.1 M2.1 34.8 L-0.1 34.7 1.15 33.15 2.0 32.05 3.05 32.4 2.7 33.15 2.1 34.8 M3.95 29.4 L4.85 28.0 6.35 28.35 6.1 29.6 5.95 31.2 5.05 30.75 3.3 30.3 3.95 29.4 M18.85 39.7 L17.95 39.8 17.8 40.5 Q17.55 41.75 17.55 43.5 17.55 46.1 18.4 47.6 L18.6 47.95 Q19.35 48.25 20.65 48.9 L24.3 49.85 24.8 49.3 25.45 48.6 25.7 49.2 25.95 49.7 26.15 49.95 26.2 49.95 26.6 49.95 29.1 49.65 29.35 49.6 30.45 49.25 30.75 48.45 30.85 47.65 30.8 47.1 29.55 46.6 28.5 46.2 26.5 45.2 26.05 44.95 25.9 45.05 25.75 45.2 25.35 45.5 25.35 44.8 25.35 44.55 24.15 43.8 Q23.5 42.3 22.2 41.15 20.55 39.7 18.85 39.7" fill="#d0a61c" fill-rule="evenodd" stroke="none"/>
      <path d="M36.55 5.25 L36.8 5.05 Q38.15 4.35 39.6 4.2 L39.55 4.35 39.6 4.55 38.95 5.1 Q37.9 6.35 37.8 8.2 L37.8 8.45 37.8 8.65 37.8 8.75 37.85 9.9 38.15 11.5 38.45 12.5 39.45 14.4 Q39.45 15.8 39.9 16.9 L40.05 17.35 40.15 17.35 40.65 17.45 41.65 17.6 41.9 17.5 41.85 17.1 41.8 16.6 41.7 14.95 41.65 13.85 Q41.65 13.25 41.8 12.7 L41.85 12.65 Q41.85 13.85 42.15 15.35 L42.3 16.05 42.75 17.9 42.7 18.4 42.75 18.5 42.7 18.5 41.75 18.6 Q40.2 18.6 39.2 18.1 L38.8 15.65 Q38.4 13.5 37.55 11.85 L37.0 10.85 35.8 9.1 34.55 7.85 Q34.6 7.15 35.0 6.55 35.4 5.9 36.2 5.4 L36.55 5.25 M43.4 13.0 L44.4 15.2 44.35 15.15 44.3 15.75 44.3 15.9 44.1 16.55 43.55 15.8 42.7 14.45 42.5 14.0 42.9 14.35 43.45 14.75 43.35 13.2 43.4 13.0 M16.4 20.3 L15.55 19.0 16.1 21.35 16.35 21.9 Q16.9 23.25 17.8 24.2 L17.8 25.5 17.55 29.05 17.4 30.6 17.0 30.7 16.6 30.8 16.0 30.65 15.95 30.55 15.5 29.9 14.3 27.95 13.8 26.75 Q12.85 24.45 12.5 22.4 12.85 24.45 13.8 26.75 L13.3 26.65 13.05 26.55 10.85 26.1 8.95 25.95 8.15 26.0 Q5.9 26.05 4.55 26.6 2.7 27.3 2.35 28.85 L2.05 28.9 1.6 29.0 0.55 28.9 1.0 26.75 1.5 24.95 1.65 24.6 2.7 22.4 3.8 20.6 4.9 21.3 5.65 21.65 9.25 22.35 9.55 22.35 11.45 22.4 12.5 22.4 12.25 19.9 12.3 19.0 12.3 18.75 12.35 18.05 Q12.6 16.25 13.3 14.8 13.85 13.65 14.35 13.2 L14.6 10.75 14.4 9.25 14.35 9.15 14.35 9.1 14.2 8.65 14.1 8.5 14.45 8.85 14.55 8.95 14.75 9.25 14.8 9.35 14.9 9.5 15.3 10.4 15.4 10.65 15.7 11.7 15.8 12.05 16.0 14.25 16.05 15.4 16.05 15.45 16.1 15.55 16.1 15.6 15.95 16.05 15.9 16.2 15.8 17.0 Q15.8 18.65 16.35 20.25 L16.4 20.3" fill="#c85d09" fill-rule="evenodd" stroke="none"/>
      <path d="M22.8 0.35 L22.75 0.1 23.2 0.0 24.0 0.15 24.45 0.3 25.15 0.55 24.0 0.95 23.65 0.8 22.8 0.35 M36.5 5.1 L36.55 5.25 36.2 5.4 Q35.4 5.9 35.0 6.55 L34.25 5.65 33.4 4.7 33.1 4.35 32.2 3.5 32.15 3.45 31.65 3.05 30.8 2.4 Q29.75 1.65 28.7 1.2 L28.6 1.15 28.7 1.15 29.3 1.3 Q31.15 1.65 32.9 2.6 L33.05 2.7 33.9 3.15 34.5 3.55 36.5 5.1 M45.15 16.8 L45.5 16.8 45.65 17.45 45.65 17.7 45.75 18.05 45.15 16.8 M41.85 12.65 L41.8 12.5 41.85 12.55 42.5 14.0 42.7 14.45 43.55 15.8 44.1 16.55 44.3 15.9 44.3 15.75 44.35 15.15 44.6 15.7 45.1 16.75 45.1 16.8 45.45 17.55 45.75 18.1 45.85 18.75 45.85 19.7 45.35 19.95 44.5 20.25 42.4 20.65 39.35 19.9 38.0 18.9 37.85 18.8 37.75 18.2 37.65 17.7 37.05 14.95 36.85 14.3 36.2 12.5 35.35 10.75 34.9 10.05 33.4 8.45 33.1 8.25 33.15 7.85 33.45 7.85 34.25 7.8 34.55 7.85 35.8 9.1 37.0 10.85 37.55 11.85 Q38.4 13.5 38.8 15.65 L39.2 18.1 Q40.2 18.6 41.75 18.6 L42.7 18.5 42.75 18.5 42.7 18.4 42.75 17.9 42.3 16.05 42.15 15.35 Q41.85 13.85 41.85 12.65 M22.8 0.75 L23.15 1.0 23.4 1.2 22.75 1.5 22.8 0.8 22.8 0.75 M22.9 9.25 L22.7 8.75 21.6 6.15 21.25 5.05 21.05 3.9 21.75 5.05 21.9 5.3 22.45 6.15 23.35 7.4 24.0 8.3 24.7 9.05 25.0 9.4 25.8 10.05 25.05 12.1 25.05 12.3 24.95 12.6 24.9 12.8 24.75 12.95 24.9 12.8 24.8 13.2 Q24.5 14.3 24.35 15.55 L24.35 15.65 24.05 18.0 24.05 18.65 24.05 18.9 Q25.2 19.4 26.15 20.7 L26.65 21.45 26.05 24.0 25.95 24.3 25.4 25.9 24.65 27.35 24.55 27.5 24.0 27.2 22.75 26.6 Q20.55 25.5 19.05 25.45 L18.9 25.45 18.85 25.6 18.55 27.85 18.3 32.1 18.3 32.8 18.6 33.05 21.0 35.5 21.75 36.3 22.1 36.7 22.6 37.35 22.15 37.1 16.65 34.55 16.7 34.45 16.7 33.75 16.2 31.3 16.0 30.65 16.6 30.8 17.0 30.7 17.4 30.6 17.55 29.05 17.8 25.5 17.8 24.2 Q16.9 23.25 16.35 21.9 L16.1 21.35 15.55 19.0 16.4 20.3 16.4 20.35 16.45 20.4 18.25 22.5 Q19.65 23.9 21.1 24.45 L24.4 24.95 24.4 24.9 Q24.85 24.25 24.85 23.35 24.85 21.75 23.8 20.55 L22.55 19.65 22.65 17.0 22.65 16.75 22.7 16.1 22.95 15.95 23.25 15.7 23.85 14.4 24.45 13.4 24.75 12.95 24.65 12.8 23.4 10.3 22.95 9.4 22.9 9.25 M29.8 31.4 L29.8 33.95 29.85 36.45 30.45 36.1 32.45 35.75 34.05 35.9 34.55 36.05 35.2 35.75 35.7 35.55 Q36.2 35.65 36.95 36.25 L38.1 37.3 38.05 37.55 37.95 38.8 37.85 39.9 37.8 41.25 36.65 41.7 36.45 41.75 36.2 41.85 34.55 42.2 Q32.55 41.35 30.95 39.7 28.8 37.55 28.5 34.9 L28.5 34.85 28.55 34.75 28.8 34.2 28.1 33.15 28.9 32.2 29.8 31.4 M29.8 27.1 L29.85 27.25 30.05 27.75 Q29.85 28.45 29.8 30.2 L29.8 30.35 29.8 31.25 Q29.55 30.85 29.45 30.2 L29.4 29.35 29.55 27.9 29.8 27.1" fill="#e4eb2c" fill-rule="evenodd" stroke="none"/>
      <path d="M30.05 25.15 L30.25 25.2 30.6 25.35 31.05 25.55 31.5 25.8 31.65 25.85 32.55 26.4 33.0 26.65 Q32.45 26.9 31.85 27.6 L31.45 28.05 Q30.85 29.0 30.85 30.1 L30.85 30.25 Q30.9 31.95 32.05 33.25 33.2 34.6 34.55 34.6 L35.15 34.55 Q36.05 34.4 36.7 33.65 L36.95 33.25 37.45 32.25 38.2 34.55 38.4 35.1 39.05 38.35 38.45 37.7 38.1 37.3 36.95 36.25 Q36.2 35.65 35.7 35.55 L35.2 35.75 34.55 36.05 34.05 35.9 32.45 35.75 30.45 36.1 29.85 36.45 29.8 33.95 29.8 31.4 29.8 31.25 29.8 30.35 29.8 30.2 Q29.85 28.45 30.05 27.75 L29.85 27.25 29.8 27.1 29.15 26.35 30.05 25.15" fill="#e3580e" fill-rule="evenodd" stroke="none"/>
      <path d="M10.35 27.6 L10.35 27.65 10.3 27.9 10.2 27.95 9.8 28.05 Q9.35 28.05 9.35 27.6 L9.35 27.35 9.55 27.25 9.75 27.25 10.05 27.3 10.35 27.6" fill="#ff9e62" fill-rule="evenodd" stroke="none"/>
      <path d="M50.7 28.25 L50.9 29.8 51.0 31.6 51.0 32.85 50.9 35.05 50.5 35.1 50.3 35.1 49.0 35.25 44.6 34.8 46.95 33.25 46.95 32.85 Q46.95 31.6 47.45 30.45 L47.65 30.1 Q47.95 29.4 48.35 29.15 47.3 28.65 46.6 28.15 L45.95 27.55 49.3 27.95 50.7 28.25 M44.95 53.5 L43.25 53.5 42.5 52.65 42.45 52.6 41.4 51.0 41.9 50.65 42.45 50.4 44.0 50.15 44.2 50.15 44.4 50.9 44.7 52.3 44.9 53.2 44.95 53.5 M7.9 53.5 L5.8 53.5 5.8 53.0 5.9 52.2 6.0 50.8 Q6.7 50.8 7.7 51.45 L8.15 51.75 7.9 53.5 M4.8 53.5 L2.45 53.5 2.15 51.85 2.05 51.45 2.05 51.4 2.2 51.35 3.05 51.0 4.05 50.8 4.8 53.5 M-1.9 35.65 L-1.9 33.9 -1.0 34.45 -1.6 35.65 -1.9 35.65 M47.9 19.15 L48.3 18.4 48.8 18.65 48.55 19.3 47.9 19.15 M49.65 16.35 L49.85 16.8 49.45 17.45 49.05 17.15 49.65 16.35 M37.65 17.7 L37.55 18.75 37.6 19.5 36.2 19.6 32.75 19.05 32.3 18.9 31.8 18.7 31.5 18.4 29.45 18.7 29.45 18.55 29.55 17.4 29.55 17.1 30.9 17.05 Q30.75 16.4 30.75 15.55 L30.75 15.4 30.75 14.4 30.9 13.55 30.95 13.35 31.3 12.1 30.75 12.1 30.6 12.1 31.0 10.75 31.7 10.85 31.75 10.75 Q32.35 9.6 33.15 8.7 L33.4 8.45 34.9 10.05 34.75 10.15 Q33.35 10.85 31.95 10.85 L31.7 10.85 31.5 11.45 31.3 12.1 Q33.2 11.95 34.7 11.15 L35.35 10.75 36.2 12.5 36.85 14.3 35.1 15.7 Q33.65 16.55 32.0 16.9 L31.3 17.0 30.9 17.05 31.15 17.9 31.5 18.4 32.4 18.1 35.2 16.55 37.05 14.95 37.65 17.7 M43.75 27.65 L44.35 28.15 44.7 28.45 Q46.2 29.4 46.4 30.15 L46.45 30.4 45.0 33.05 43.55 34.35 43.4 34.45 Q42.35 34.15 41.55 33.7 L41.2 32.45 39.65 28.55 40.75 28.2 41.0 28.15 41.4 28.9 41.75 29.55 42.25 29.55 42.65 29.5 42.45 27.85 43.75 27.65 M41.9 30.7 L41.45 30.9 41.6 31.45 41.7 31.65 42.0 31.55 42.2 31.4 42.05 31.0 41.9 30.7 M25.15 31.95 L25.45 31.45 25.55 31.35 26.1 30.6 27.15 30.9 27.35 31.0 27.8 31.25 27.55 31.4 27.0 31.75 26.35 32.15 25.9 32.5 26.05 32.75 26.25 33.05 26.4 33.25 26.7 33.7 27.2 34.4 26.7 34.55 26.6 34.55 25.5 34.75 25.05 33.8 24.95 33.55 24.9 33.5 24.7 33.05 24.6 32.85 25.15 31.95 M26.25 29.25 L26.2 29.25 26.3 29.05 Q26.85 27.85 28.0 26.35 L28.2 26.1 28.35 25.95 29.2 24.9 30.05 25.15 29.15 26.35 28.95 26.7 Q28.25 28.2 28.25 29.95 L28.25 30.0 28.3 30.25 28.3 30.45 28.35 30.9 27.45 30.35 27.3 30.2 27.2 30.15 26.25 29.25 M27.4 34.7 L26.8 35.75 26.6 36.1 27.6 37.75 28.1 38.65 28.4 39.1 29.85 41.25 31.45 43.15 31.0 43.05 29.5 42.4 28.2 40.55 28.1 40.45 27.1 39.05 25.25 36.0 25.5 35.4 Q25.85 35.2 26.35 35.05 L26.55 35.0 27.4 34.7" fill="#74878b" fill-rule="evenodd" stroke="none"/>
      <path d="M44.8 15.5 L44.65 15.3 44.85 15.15 44.8 15.35 44.8 15.5 M46.4 14.25 L46.45 14.2 Q47.4 13.7 48.3 13.3 L49.1 13.4 Q48.45 14.15 48.45 15.6 48.45 16.2 48.7 16.65 L49.05 17.15 48.35 18.25 48.3 18.35 48.3 18.4 47.75 18.1 47.65 18.05 Q46.3 17.05 46.3 15.5 L46.4 14.25 M50.15 13.55 L50.8 13.65 51.95 13.85 51.9 14.05 Q50.85 14.75 49.65 16.3 L49.65 16.35 49.5 15.5 49.5 15.3 Q49.5 14.65 49.9 13.9 L50.15 13.55 M50.05 23.6 L49.85 24.0 49.9 24.1 48.95 23.6 48.3 23.3 46.4 22.7 46.05 22.65 45.4 22.45 45.0 22.5 44.6 22.55 44.15 22.55 43.9 22.55 40.45 21.9 39.35 21.45 38.8 21.25 37.8 20.7 37.6 19.5 37.55 18.75 37.65 17.7 37.75 18.2 37.85 18.8 38.0 18.9 39.35 19.9 42.4 20.65 44.5 20.25 45.35 19.95 45.85 19.7 45.85 18.75 45.75 18.1 45.75 18.05 45.65 17.7 45.8 17.85 46.1 18.1 47.3 18.9 47.9 19.15 47.5 20.25 47.25 21.05 47.65 21.65 48.3 22.5 48.45 22.7 49.05 23.15 49.75 23.5 50.05 23.6 M50.4 37.6 L48.65 39.25 44.8 41.6 42.45 42.75 41.85 42.35 41.55 42.1 41.05 41.65 40.55 41.15 40.4 41.0 40.35 40.95 39.2 39.6 39.2 39.45 39.05 38.35 38.4 35.1 38.2 34.55 37.45 32.25 Q36.6 30.2 35.5 28.9 L35.4 28.8 35.35 28.75 33.55 27.05 33.05 26.7 33.0 26.65 32.55 26.4 31.65 25.85 31.5 25.8 31.05 25.55 30.6 25.35 30.25 25.2 30.05 25.15 29.2 24.9 28.35 25.95 28.2 26.1 28.0 26.35 Q26.85 27.85 26.3 29.05 L26.2 29.25 26.25 29.25 26.35 29.6 26.6 30.1 26.2 30.55 26.1 30.6 25.55 31.35 25.45 31.45 25.15 31.95 25.35 30.8 25.35 30.65 26.15 27.0 26.95 24.65 27.05 24.55 27.3 24.3 27.5 24.3 31.1 24.95 Q33.4 25.55 35.5 26.85 36.4 27.35 37.3 28.05 L35.65 26.05 34.35 24.75 31.45 22.55 Q30.35 21.95 29.4 21.7 L29.65 21.15 28.65 20.85 28.3 20.7 26.5 19.75 24.05 18.0 24.35 15.65 Q24.6 16.45 25.35 17.2 26.55 18.45 28.5 18.65 L28.9 18.7 29.25 18.7 29.45 18.7 29.6 19.75 29.6 19.8 29.65 20.2 31.05 20.6 33.1 21.55 33.45 21.8 33.85 22.05 35.45 23.3 36.1 23.9 37.15 24.95 Q38.6 26.5 39.65 28.55 L41.2 32.45 41.55 33.7 42.05 36.0 42.3 37.2 42.35 37.55 42.35 37.65 42.85 38.4 43.05 38.7 43.8 39.85 44.8 39.65 48.25 38.5 50.4 37.6 M32.55 6.15 L33.3 5.85 32.85 6.55 32.1 8.05 Q31.55 9.1 31.1 10.5 L31.0 10.75 30.4 10.5 30.2 10.4 30.1 10.3 Q29.25 9.65 29.25 8.35 29.25 7.95 29.4 7.55 30.05 7.2 30.85 6.9 L32.55 6.15 M28.2 8.15 L28.0 8.7 27.9 9.15 Q27.9 10.5 28.75 11.35 L28.9 11.45 30.0 12.0 30.5 12.1 30.6 12.1 30.55 12.3 30.0 14.3 29.55 17.1 29.45 17.1 29.05 17.1 28.7 17.1 27.8 16.9 Q26.75 16.55 26.0 15.75 24.9 14.55 24.9 13.05 L24.95 12.75 24.95 12.6 25.05 12.3 25.05 12.1 25.8 10.05 26.1 9.3 27.35 8.6 28.2 8.15" fill="#374156" fill-rule="evenodd" stroke="none"/>
      <path d="M45.5 16.8 L44.8 15.5 44.8 15.35 44.85 15.15 Q45.45 14.75 46.4 14.25 L46.3 15.5 Q46.3 17.05 47.65 18.05 L47.75 18.1 48.3 18.4 47.9 19.15 47.3 18.9 46.1 18.1 45.8 17.85 45.65 17.7 45.65 17.45 45.5 16.8 M49.1 13.4 L50.15 13.55 49.9 13.9 Q49.5 14.65 49.5 15.3 L49.5 15.5 49.65 16.35 49.05 17.15 48.7 16.65 Q48.45 16.2 48.45 15.6 48.45 14.15 49.1 13.4 M29.4 7.55 Q29.25 7.95 29.25 8.35 29.25 9.65 30.1 10.3 L30.2 10.4 30.4 10.5 31.0 10.75 30.6 12.1 30.5 12.1 30.0 12.0 28.9 11.45 28.75 11.35 Q27.9 10.5 27.9 9.15 L28.0 8.7 28.2 8.15 28.25 8.1 29.4 7.55 M24.9 12.8 L24.95 12.6 24.95 12.75 24.9 13.05 Q24.9 14.55 26.0 15.75 26.75 16.55 27.8 16.9 L28.7 17.1 29.05 17.1 29.45 17.1 29.55 17.1 29.55 17.4 29.45 18.55 29.45 18.7 29.25 18.7 28.9 18.7 28.5 18.65 Q26.55 18.45 25.35 17.2 24.6 16.45 24.35 15.65 L24.35 15.55 Q24.5 14.3 24.8 13.2 L24.9 12.8" fill="#293348" fill-rule="evenodd" stroke="none"/>
      <path d="M51.75 17.65 L51.75 17.9 51.1 18.0 49.65 17.6 49.45 17.45 49.85 16.8 50.25 17.2 Q50.8 17.6 51.75 17.65 M51.7 18.7 L51.7 18.95 49.8 19.4 48.55 19.3 48.8 18.65 50.6 18.9 51.7 18.7 M34.9 10.05 L35.35 10.75 34.7 11.15 Q33.2 11.95 31.3 12.1 L31.5 11.45 31.7 10.85 31.95 10.85 Q33.35 10.85 34.75 10.15 L34.9 10.05 M36.85 14.3 L37.05 14.95 35.2 16.55 32.4 18.1 31.5 18.4 31.15 17.9 30.9 17.05 31.3 17.0 32.0 16.9 Q33.65 16.55 35.1 15.7 L36.85 14.3" fill="#526b70" fill-rule="evenodd" stroke="none"/>
      <path d="M51.7 14.95 L51.5 15.9 51.75 17.65 Q50.8 17.6 50.25 17.2 L49.85 16.8 Q50.7 15.5 51.7 14.95 M51.75 17.9 L51.75 17.95 51.7 18.7 50.6 18.9 48.8 18.65 49.3 17.7 49.45 17.45 49.65 17.6 51.1 18.0 51.75 17.9 M51.7 18.95 Q51.55 20.1 51.0 21.5 L50.45 22.85 50.05 22.9 49.15 22.75 49.05 22.7 48.5 21.3 48.25 20.35 48.55 19.3 49.8 19.4 51.7 18.95 M49.9 24.1 L50.25 25.35 50.65 28.15 50.7 28.25 49.3 27.95 45.95 27.55 Q45.0 26.6 44.65 25.45 L44.4 24.35 44.35 23.55 Q44.35 22.9 44.6 22.55 L45.0 22.5 45.4 22.45 46.05 22.65 46.4 22.7 48.3 23.3 48.95 23.6 49.9 24.1 M50.9 35.05 L50.8 35.85 50.75 36.25 50.6 37.0 49.95 37.3 46.5 38.5 44.55 38.85 43.75 38.9 43.15 37.85 43.05 37.7 42.55 36.5 42.6 36.45 42.65 36.35 43.05 36.1 43.15 36.05 43.4 35.85 43.65 35.6 44.4 34.95 44.6 34.8 49.0 35.25 50.3 35.1 50.5 35.1 50.9 35.05 M39.35 21.45 L40.45 21.9 43.9 22.55 Q43.4 22.8 43.2 24.05 L43.15 24.3 Q43.0 25.1 43.0 25.95 43.0 26.85 43.75 27.65 L42.45 27.85 42.65 29.5 42.25 29.55 41.75 29.55 41.4 28.9 41.0 28.15 40.75 28.2 39.65 28.55 Q38.6 26.5 37.15 24.95 L36.1 23.9 35.45 23.3 33.85 22.05 33.45 21.8 33.1 21.55 Q33.2 21.35 33.55 21.25 L34.1 21.1 35.65 20.95 39.1 21.4 39.35 21.45 M41.9 30.7 L42.05 31.0 42.2 31.4 42.0 31.55 41.7 31.65 41.6 31.45 41.45 30.9 41.9 30.7 M41.55 33.7 Q42.35 34.15 43.4 34.45 L42.9 35.05 42.05 36.0 41.55 33.7 M19.05 25.45 Q20.55 25.5 22.75 26.6 L24.0 27.2 24.0 27.45 24.1 28.25 23.85 29.7 23.75 29.95 22.75 29.85 Q21.8 29.6 21.05 28.9 L19.65 27.0 19.15 26.1 19.05 25.45" fill="#5e727b" fill-rule="evenodd" stroke="none"/>
      <path d="M46.6 28.8 L46.65 28.75 46.8 28.7 47.3 28.85 Q47.75 29.05 47.75 29.45 47.8 29.95 47.25 29.95 46.45 29.95 46.45 29.1 L46.6 28.8" fill="#cce2e2" fill-rule="evenodd" stroke="none"/>
      <path d="M22.1 36.7 L21.75 36.3 21.0 35.5 18.6 33.05 18.3 32.8 18.3 32.1 18.55 27.85 18.85 25.6 18.9 25.45 19.05 25.45 19.15 26.1 Q19.4 27.35 20.5 29.0 22.0 31.25 23.45 31.85 L24.25 30.2 24.3 30.05 24.65 27.4 24.65 27.35 25.4 25.9 25.95 24.3 26.05 24.0 26.65 21.45 26.15 20.7 Q25.2 19.4 24.05 18.9 L24.05 18.65 24.05 18.0 26.5 19.75 28.3 20.7 28.65 20.85 29.65 21.15 29.4 21.7 Q30.35 21.95 31.45 22.55 L34.35 24.75 35.65 26.05 37.3 28.05 Q36.4 27.35 35.5 26.85 33.4 25.55 31.1 24.95 L27.5 24.3 27.3 24.3 27.05 24.55 26.95 24.65 26.15 27.0 25.35 30.65 25.35 30.8 25.15 31.95 24.6 32.85 24.7 33.05 24.9 33.5 24.0 34.2 23.45 34.8 23.4 34.8 22.8 35.55 22.1 36.7 M31.45 43.15 L31.45 43.2 31.75 43.25 33.0 43.45 33.95 43.55 33.9 43.75 33.65 45.6 33.65 45.65 32.4 45.5 28.8 44.35 27.2 43.4 Q26.7 43.1 26.05 42.75 L26.85 39.8 26.9 39.7 27.1 39.05 28.1 40.45 28.2 40.55 29.5 42.4 31.0 43.05 31.45 43.15" fill="#2d374a" fill-rule="evenodd" stroke="none"/>
      <path d="M41.3 42.3 L41.7 42.85 41.8 43.0 41.6 43.0 Q40.15 43.3 38.7 44.35 38.0 44.85 37.55 45.4 37.6 46.65 38.35 48.4 L37.6 49.3 36.6 50.75 36.55 50.5 35.65 45.45 36.25 43.65 36.4 43.65 Q38.1 43.65 39.6 43.05 L41.3 42.3 M40.55 41.15 L40.55 41.2 40.4 41.0 40.55 41.15" fill="#bb511e" fill-rule="evenodd" stroke="none"/>
      <path d="M41.8 43.0 L42.75 44.5 42.85 44.6 41.8 45.3 41.6 45.45 40.85 46.05 38.35 48.4 Q37.6 46.65 37.55 45.4 38.0 44.85 38.7 44.35 40.15 43.3 41.6 43.0 L41.8 43.0" fill="#e36528" fill-rule="evenodd" stroke="none"/>
      <path d="M36.95 52.3 L36.2 51.45 36.0 51.2 34.35 49.4 33.95 48.95 34.2 48.55 35.3 46.35 35.65 45.45 36.55 50.5 36.6 50.75 36.65 50.8 36.8 51.55 36.95 52.3" fill="#af8e63" fill-rule="evenodd" stroke="none"/>
      <path d="M20.35 53.5 L19.75 53.5 19.9 53.3 19.9 52.9 20.1 53.15 20.35 53.5" fill="#e76a27" fill-rule="evenodd" stroke="none"/>
      <path d="M19.95 -1.95 L21.9 -1.6 23.4 -1.45 23.1 -1.1 22.45 -0.05 22.8 0.35 22.8 0.75 22.05 0.3 21.75 0.05 22.35 -1.0 22.35 -1.2 21.65 -1.2 20.75 -1.1 20.15 -1.2 Q19.8 -1.35 19.65 -1.45 L19.95 -1.95 M24.0 0.95 L24.5 1.15 24.8 1.25 25.75 1.6 27.05 2.0 26.75 2.2 25.9 2.45 Q25.4 2.7 25.15 3.05 L24.5 2.4 23.4 1.2 23.45 1.15 23.8 1.0 24.0 0.95 M-1.9 5.25 L-1.9 5.05 -1.45 4.85 Q-0.9 5.3 1.1 5.55 L1.85 5.65 3.45 6.0 3.25 6.1 3.1 6.25 2.65 6.5 3.5 7.05 4.3 7.35 2.45 7.4 2.2 7.4 1.0 6.95 0.7 6.8 -0.25 6.3 -1.9 5.25" fill="#fcba3a" fill-rule="evenodd" stroke="none"/>
      <path d="M1.3 3.3 L2.3 3.25 4.5 3.15 8.05 3.4 10.45 3.8 11.6 4.05 15.05 5.2 15.8 5.45 18.35 6.65 18.15 7.15 17.65 8.35 18.55 8.85 20.25 9.4 20.45 9.85 Q21.45 11.85 23.25 13.85 L23.5 14.1 23.85 14.4 23.25 15.7 22.95 15.95 21.65 13.0 21.55 12.75 20.45 10.85 Q18.75 9.35 16.4 8.1 L15.15 7.45 14.4 7.1 13.95 6.9 13.65 6.8 9.8 5.35 8.95 5.05 7.75 4.75 3.5 4.2 3.25 4.2 -0.5 4.6 -1.45 4.85 -1.6 4.7 -1.9 4.3 -1.9 3.9 1.3 3.3 M-1.5 51.75 L-1.9 51.2 -1.9 50.7 -1.5 51.75 M-1.9 48.85 L-1.9 40.45 -1.35 41.7 -1.35 43.05 Q-1.35 46.55 -1.85 48.65 L-1.9 48.85 M-1.9 33.9 L-1.9 20.8 -1.3 21.5 -1.25 21.55 -0.2 24.0 0.65 25.85 1.0 26.75 0.55 28.9 1.6 29.0 2.05 28.9 3.4 29.3 3.95 29.4 3.3 30.3 2.0 32.05 1.15 33.15 -0.1 34.7 -0.25 34.9 -0.95 34.45 -1.0 34.45 -1.9 33.9 M3.1 36.55 L3.25 36.55 3.1 36.55 M0.55 28.9 L-0.95 28.25 0.55 28.9" fill="#e0ea3b" fill-rule="evenodd" stroke="none"/>
      <path d="M22.8 0.75 L22.8 0.35 23.65 0.8 24.0 0.95 23.8 1.0 23.45 1.15 23.4 1.2 23.15 1.0 22.8 0.75 M-1.9 5.05 L-1.9 4.3 -1.6 4.7 -1.45 4.85 -1.9 5.05" fill="#f7ee4b" fill-rule="evenodd" stroke="none"/>
      <path d="M20.05 -2.15 L20.0 -2.05 19.95 -1.95 19.65 -1.45 Q19.0 -0.05 19.0 1.85 L19.05 2.85 18.3 2.65 17.75 2.1 Q17.85 -0.25 19.1 -1.5 L19.8 -2.0 20.05 -2.15 M25.75 1.6 L26.65 1.45 27.35 1.6 27.9 1.75 27.55 2.2 27.1 2.2 26.75 2.2 27.05 2.0 25.75 1.6 M24.5 2.4 L25.15 3.05 25.05 3.25 24.1 3.15 Q24.25 2.7 24.5 2.4" fill="#d0780f" fill-rule="evenodd" stroke="none"/>
      <path d="M19.65 8.05 L20.05 8.35 20.75 8.8 21.15 9.05 21.45 9.75 Q22.5 12.0 24.05 13.15 L24.45 13.4 23.85 14.4 23.5 14.1 23.25 13.85 Q21.45 11.85 20.45 9.85 L20.25 9.4 18.55 8.85 17.65 8.35 18.15 7.15 18.35 6.65 19.3 7.75 19.15 7.95 19.65 8.05" fill="#c04408" fill-rule="evenodd" stroke="none"/>
      <path d="M41.1 5.15 L40.95 5.65 40.45 6.05 Q40.3 6.05 40.3 5.7 40.3 5.0 40.7 4.8 L40.85 4.75 40.9 4.75 40.9 4.8 41.1 5.15" fill="#ffda62" fill-rule="evenodd" stroke="none"/>
      <path d="M41.75 9.0 Q41.95 10.45 42.65 11.75 L41.95 11.55 40.75 11.2 40.5 11.6 40.4 12.7 40.45 13.1 40.4 12.95 39.75 11.95 39.2 11.25 38.95 10.95 37.85 9.9 37.8 8.75 37.8 8.65 38.3 9.3 38.45 9.45 40.0 11.05 39.9 8.95 40.2 9.4 40.7 10.05 40.9 10.25 41.6 9.2 41.75 9.0 M19.3 13.7 L19.75 15.2 Q19.15 15.35 18.6 15.7 L18.25 15.95 18.45 16.95 18.65 17.65 17.85 16.75 16.6 15.7 16.2 15.5 16.05 15.45 16.05 15.4 16.0 14.25 17.35 14.8 17.5 14.85 17.5 14.75 17.5 14.7 17.5 14.45 17.6 13.3 17.6 12.9 17.95 13.4 18.55 14.1 18.6 14.15 18.65 14.05 18.8 13.5 18.95 12.75 19.3 13.7 M20.6 18.3 L20.8 18.45 21.3 18.95 20.45 18.6 20.15 18.35 19.6 17.75 19.85 17.55 20.0 17.5 20.6 18.3 M16.2 10.55 L16.25 10.7 16.45 11.0 16.55 11.15 16.4 11.3 16.25 11.45 16.15 11.65 15.9 10.15 16.2 10.55" fill="#ffbf3f" fill-rule="evenodd" stroke="none"/>
      <path d="M10.35 27.6 L10.05 27.3 9.75 27.25 9.55 27.25 9.35 27.35 9.35 27.6 Q9.35 28.05 9.8 28.05 L10.2 27.95 10.3 27.9 10.35 27.65 10.35 27.6 M10.6 27.1 L11.05 27.5 11.6 28.55 11.6 28.95 11.45 29.4 10.65 29.9 10.5 29.9 9.45 29.6 9.3 29.5 Q8.65 29.05 8.65 28.1 8.65 27.2 9.35 26.95 L9.4 26.95 9.7 26.85 10.6 27.1" fill="#ee5930" fill-rule="evenodd" stroke="none"/>
      <path d="M9.7 53.5 L8.45 53.5 8.45 53.4 8.4 52.15 8.35 51.95 8.35 51.85 8.2 51.5 7.65 50.35 Q6.6 48.6 5.45 48.6 3.65 48.6 2.3 50.35 L1.95 50.8 Q1.5 51.45 1.35 52.05 L1.45 52.8 1.55 53.5 0.55 53.5 0.45 53.15 0.15 52.15 Q0.6 51.1 1.95 49.75 L2.5 49.25 4.05 47.95 5.3 47.9 6.6 48.2 8.0 48.6 8.9 50.4 9.65 53.15 9.7 53.5" fill="#872206" fill-rule="evenodd" stroke="none"/>
      <path d="M5.8 53.5 L4.8 53.5 4.05 50.8 3.05 51.0 2.2 51.35 2.05 51.4 1.95 50.8 2.3 50.35 Q3.65 48.6 5.45 48.6 6.6 48.6 7.65 50.35 L8.2 51.5 8.15 51.75 7.7 51.45 Q6.7 50.8 6.0 50.8 L5.9 52.2 5.8 53.0 5.8 53.5 M43.75 27.65 L44.4 27.6 45.75 27.55 45.95 27.55 46.6 28.15 Q47.3 28.65 48.35 29.15 47.95 29.4 47.65 30.1 L47.45 30.45 Q46.95 31.6 46.95 32.85 L46.95 33.25 44.6 34.8 43.85 34.6 43.55 34.5 43.4 34.45 43.55 34.35 45.0 33.05 46.45 30.4 46.4 30.15 Q46.2 29.4 44.7 28.45 L44.35 28.15 43.75 27.65 M46.6 28.8 L46.45 29.1 Q46.45 29.95 47.25 29.95 47.8 29.95 47.75 29.45 47.75 29.05 47.3 28.85 L46.8 28.7 46.65 28.75 46.6 28.8 M5.1 49.55 L4.7 49.65 4.5 50.2 Q4.5 50.75 5.15 50.75 L5.2 50.75 Q5.75 50.7 5.7 50.1 5.7 49.5 5.2 49.5 L5.1 49.55" fill="#9ab5b6" fill-rule="evenodd" stroke="none"/>
      <path d="M5.1 49.55 L5.2 49.5 Q5.7 49.5 5.7 50.1 5.75 50.7 5.2 50.75 L5.15 50.75 Q4.5 50.75 4.5 50.2 L4.7 49.65 5.1 49.55" fill="#c5dfe0" fill-rule="evenodd" stroke="none"/>
      <path d="M33.0 26.65 L33.05 26.7 33.55 27.05 35.35 28.75 35.4 28.8 35.5 28.9 Q36.6 30.2 37.45 32.25 L36.95 33.25 36.7 33.65 Q36.05 34.4 35.15 34.55 L35.2 34.3 35.4 33.25 34.9 30.85 34.8 30.65 Q34.3 29.35 33.5 28.7 L33.05 28.05 32.65 27.85 32.5 27.9 32.25 28.0 32.2 28.1 31.6 28.05 31.45 28.05 31.85 27.6 Q32.45 26.9 33.0 26.65" fill="#37a3e0" fill-rule="evenodd" stroke="none"/>
      <path d="M33.5 28.7 L33.5 28.85 Q33.5 29.5 32.8 29.5 L32.3 29.3 32.05 28.7 Q32.05 28.35 32.2 28.1 L32.25 28.0 32.5 27.9 32.65 27.85 33.05 28.05 33.5 28.7" fill="#d9fbff" fill-rule="evenodd" stroke="none"/>
      <path d="M32.2 28.1 Q32.05 28.35 32.05 28.7 L32.3 29.3 32.8 29.5 Q33.5 29.5 33.5 28.85 L33.5 28.7 Q34.3 29.35 34.8 30.65 L34.9 30.85 35.4 33.25 35.2 34.3 35.15 34.55 34.55 34.6 Q33.2 34.6 32.05 33.25 30.9 31.95 30.85 30.25 L30.85 30.1 Q30.85 29.0 31.45 28.05 L31.6 28.05 32.2 28.1" fill="#4ce9f8" fill-rule="evenodd" stroke="none"/>
      <path d="M51.9 14.05 L51.8 14.4 51.7 14.95 Q50.7 15.5 49.85 16.8 L49.65 16.35 49.65 16.3 Q50.85 14.75 51.9 14.05 M50.45 22.85 L50.05 23.6 49.75 23.5 49.05 23.15 48.45 22.7 48.3 22.5 47.65 21.65 47.25 21.05 47.5 20.25 47.9 19.15 48.55 19.3 48.25 20.35 48.5 21.3 49.05 22.7 49.15 22.75 50.05 22.9 50.45 22.85 M49.05 17.15 L49.45 17.45 49.3 17.7 48.8 18.65 48.3 18.4 48.3 18.35 48.35 18.25 49.05 17.15 M37.6 19.5 L37.8 20.7 36.5 19.95 35.35 20.1 33.65 20.3 33.25 20.3 33.2 20.3 29.95 19.85 29.6 19.75 29.45 18.7 31.5 18.4 31.8 18.7 32.3 18.9 32.75 19.05 36.2 19.6 37.6 19.5 M33.15 7.85 L33.1 8.25 33.4 8.45 33.15 8.7 Q32.35 9.6 31.75 10.75 L31.7 10.85 31.0 10.75 31.1 10.5 Q31.55 9.1 32.1 8.05 L32.85 6.55 33.3 5.85 33.35 5.85 33.2 7.2 33.15 7.65 33.15 7.85 M29.55 17.1 L30.0 14.3 30.55 12.3 30.6 12.1 30.75 12.1 31.3 12.1 30.95 13.35 30.9 13.55 30.75 14.4 30.75 15.4 30.75 15.55 Q30.75 16.4 30.9 17.05 L29.55 17.1" fill="#9bafb4" fill-rule="evenodd" stroke="none"/>
      <path d="M50.6 37.0 L50.6 37.15 50.6 37.4 50.4 37.6 48.25 38.5 44.8 39.65 43.8 39.85 43.05 38.7 42.85 38.4 42.35 37.65 42.35 37.55 42.3 37.2 42.05 36.0 42.9 35.05 43.4 34.45 43.55 34.5 43.85 34.6 44.6 34.8 44.4 34.95 43.65 35.6 43.4 35.85 43.15 36.05 43.05 36.1 42.65 36.35 42.6 36.45 42.55 36.5 43.05 37.7 43.15 37.85 43.75 38.9 44.55 38.85 46.5 38.5 49.95 37.3 50.6 37.0 M43.9 22.55 L44.15 22.55 44.6 22.55 Q44.35 22.9 44.35 23.55 L44.4 24.35 44.65 25.45 Q45.0 26.6 45.95 27.55 L45.75 27.55 44.4 27.6 43.75 27.65 Q43.0 26.85 43.0 25.95 43.0 25.1 43.15 24.3 L43.2 24.05 Q43.4 22.8 43.9 22.55" fill="#778e98" fill-rule="evenodd" stroke="none"/>
      <path d="M37.8 20.7 L38.8 21.25 39.35 21.45 39.1 21.4 35.65 20.95 34.1 21.1 33.55 21.25 Q33.2 21.35 33.1 21.55 L31.05 20.6 29.65 20.2 29.6 19.8 29.6 19.75 29.95 19.85 33.2 20.3 33.25 20.3 33.65 20.3 35.35 20.1 36.5 19.95 37.8 20.7" fill="#4c5e66" fill-rule="evenodd" stroke="none"/>
      <path d="M24.0 27.2 L24.55 27.5 24.65 27.35 24.65 27.4 24.3 30.05 24.25 30.2 23.45 31.85 Q22.0 31.25 20.5 29.0 19.4 27.35 19.15 26.1 L19.65 27.0 21.05 28.9 Q21.8 29.6 22.75 29.85 L23.75 29.95 23.85 29.7 24.1 28.25 24.0 27.45 24.0 27.2" fill="#748993" fill-rule="evenodd" stroke="none"/>
      <path d="M26.1 30.6 L26.2 30.55 26.6 30.1 26.35 29.6 26.25 29.25 27.2 30.15 27.3 30.2 27.45 30.35 28.35 30.9 27.8 31.25 27.35 31.0 27.15 30.9 26.1 30.6 M27.2 34.4 L27.45 34.7 27.4 34.7 26.55 35.0 26.35 35.05 Q25.85 35.2 25.5 35.4 L25.6 35.2 25.7 35.1 25.5 34.75 26.6 34.55 26.7 34.55 27.2 34.4" fill="#9caeb1" fill-rule="evenodd" stroke="none"/>
      <path d="M22.6 37.35 L22.1 36.7 22.8 35.55 23.4 34.8 23.45 34.8 24.0 34.2 24.9 33.5 24.95 33.55 25.05 33.8 25.5 34.75 25.7 35.1 25.6 35.2 25.5 35.4 25.25 36.0 27.1 39.05 26.9 39.7 26.85 39.8 26.05 42.75 26.0 42.7 25.45 42.35 25.05 41.45 24.85 41.15 22.6 37.35" fill="#354158" fill-rule="evenodd" stroke="none"/>
      <path d="M8.4 -0.4 L8.85 -0.4 9.25 -0.45 9.35 -0.45 8.9 -0.55 8.1 -0.75 5.75 -1.25 -0.3 -1.9 -1.65 -1.9 -1.9 -1.9 M10.9 3.05 L8.75 2.25 8.35 2.05 Q6.8 1.2 6.0 0.05 L7.45 -0.25 8.4 -0.4 M28.5 -0.7 Q24.8 -2.7 22.55 -2.7 L20.4 -2.3 20.05 -2.15 19.8 -2.0 19.1 -1.5 Q17.85 -0.25 17.75 2.1 L17.75 2.4 Q17.75 3.7 18.15 4.95 L18.3 5.35 18.1 5.2 18.05 5.15 17.45 4.8 15.0 3.5 14.85 3.5 11.5 3.2 10.9 3.05 M25.15 3.05 Q25.4 2.7 25.9 2.45 L26.75 2.2 27.1 2.2 27.55 2.2 Q28.25 2.3 28.8 2.7 29.55 3.25 29.65 4.2 L29.8 4.25 30.7 4.55 31.2 4.8 31.25 4.9 32.05 5.55 32.5 6.05 32.55 6.15 M28.5 -0.7 L28.95 -0.45 31.3 1.0 33.1 1.35 33.8 1.45 34.25 1.5 35.1 1.55 36.5 5.1 36.55 5.25 36.8 5.05 Q38.15 4.35 39.6 4.2 L40.75 4.1 42.2 4.25 42.05 4.45 Q41.6 5.65 41.6 7.35 L41.75 9.0 Q41.95 10.45 42.65 11.75 L43.2 12.7 43.4 13.0 44.4 15.2 44.6 15.7 45.15 16.8 45.75 18.05 M41.55 42.1 L41.3 42.3 39.6 43.05 Q38.1 43.65 36.4 43.65 L36.25 43.65 35.5 43.65 33.9 43.75 M-1.5 51.75 L-1.9 51.2 M36.55 5.25 L36.2 5.4 Q35.4 5.9 35.0 6.55 34.6 7.15 34.55 7.85 L34.25 7.8 33.45 7.85 33.15 7.85 M33.2 7.2 L33.45 7.85 M25.05 3.25 L25.15 3.05 M25.05 3.25 L24.85 4.05 25.0 5.25 Q25.15 6.0 25.6 6.75 L25.8 7.15 26.0 7.45 26.65 8.2 27.35 8.6 M24.75 12.95 L24.9 12.8 M24.45 13.4 L24.75 12.95 M23.85 14.4 L23.5 14.1 23.25 13.85 Q21.45 11.85 20.45 9.85 L20.25 9.4 18.55 8.85 17.65 8.35 18.15 7.15 18.35 6.65 18.6 6.05 18.4 5.55 18.4 5.5 18.3 5.35 M24.45 13.4 L23.85 14.4 23.25 15.7 22.95 15.95 22.7 16.1 22.5 16.2 Q22.2 16.35 21.95 16.45 L19.8 13.5 18.7 12.3 17.95 11.1 Q16.75 9.5 15.2 8.7 L14.75 8.45 13.95 8.2 14.1 8.5 14.2 8.65 14.35 9.1 14.35 9.15 14.4 9.25 14.6 10.75 14.35 13.2 Q13.85 13.65 13.3 14.8 12.6 16.25 12.35 18.05 L12.3 18.75 12.3 19.0 12.25 19.9 12.5 22.4 Q12.85 24.45 13.8 26.75 L14.3 27.95 15.5 29.9 15.95 30.55 16.0 30.65 16.2 31.3 16.7 33.75 16.7 34.45 16.65 34.55 22.15 37.1 22.6 37.35 M19.75 15.2 L19.8 15.5 20.05 16.65 20.55 16.75 21.95 16.45 M19.3 13.7 L19.75 15.2 M18.95 12.75 L18.7 12.3 M14.4 9.25 L14.2 9.15 Q12.65 8.55 11.05 8.5 L10.95 9.45 11.1 10.45 Q10.25 9.95 9.45 9.6 L7.1 8.85 7.05 8.8 5.7 8.55 4.75 8.45 3.75 8.4 Q1.9 8.4 0.6 9.25 L-0.3 10.1 Q-0.95 10.95 -0.95 12.2 -0.95 13.75 0.35 15.15 1.5 16.3 3.35 17.15 L3.35 17.25 3.45 18.15 Q3.65 19.8 4.85 20.95 L5.3 21.35 5.65 21.65 9.25 22.35 9.55 22.35 11.45 22.4 12.5 22.4 M3.8 20.6 Q3.1 20.05 2.7 19.3 M3.8 20.6 L4.9 21.3 5.65 21.65 M18.95 12.75 L19.3 13.7 M13.3 26.65 L13.8 26.75 M10.85 26.1 L13.05 26.55 13.3 26.65 M8.15 26.0 L8.95 25.95 10.85 26.1 M8.15 26.0 Q5.9 26.05 4.55 26.6 2.7 27.3 2.35 28.85 L2.05 28.9 1.6 29.0 0.55 28.9 -0.95 28.25 M31.45 28.05 Q30.85 29.0 30.85 30.1 L30.85 30.25 Q30.9 31.95 32.05 33.25 33.2 34.6 34.55 34.6 L35.15 34.55 Q36.05 34.4 36.7 33.65 L36.95 33.25 37.45 32.25 M33.0 26.65 Q32.45 26.9 31.85 27.6 L31.45 28.05 M23.45 34.8 L23.4 34.8" fill="none" stroke="#701800" stroke-linecap="round" stroke-linejoin="round" stroke-width="1.0"/>
      <path d="M45.5 16.8 L44.8 15.5 44.65 15.3 44.85 15.15 Q45.45 14.75 46.4 14.25 L46.45 14.2 Q47.4 13.7 48.3 13.3 L49.1 13.4 50.15 13.55 50.8 13.65 51.95 13.85 51.9 14.05 51.8 14.4 51.7 14.95 51.5 15.9 51.75 17.65 51.75 17.9 51.75 17.95 51.7 18.7 51.7 18.95 Q51.55 20.1 51.0 21.5 L50.45 22.85 50.05 23.6 49.85 24.0 49.9 24.1 50.25 25.35 50.65 28.15 50.7 28.25 50.9 29.8 51.0 31.6 51.0 32.85 50.9 35.05 50.8 35.85 50.75 36.25 50.6 37.0 50.6 37.15 50.6 37.4 50.4 37.6 48.65 39.25 44.8 41.6 42.45 42.75 41.85 42.35 41.55 42.1 41.05 41.65 40.55 41.15 40.4 41.0 40.35 40.95 39.2 39.6 39.2 39.45 39.05 38.35 38.4 35.1 38.2 34.55 37.45 32.25 Q36.6 30.2 35.5 28.9 L35.4 28.8 35.35 28.75 33.55 27.05 33.05 26.7 33.0 26.65 32.55 26.4 31.65 25.85 31.5 25.8 31.05 25.55 30.6 25.35 30.25 25.2 30.05 25.15 29.15 26.35 28.95 26.7 Q28.25 28.2 28.25 29.95 L28.25 30.0 28.3 30.25 28.3 30.45 28.35 30.9 27.8 31.25 27.55 31.4 27.0 31.75 26.35 32.15 25.9 32.5 26.05 32.75 26.25 33.05 26.4 33.25 26.7 33.7 27.2 34.4 27.45 34.7 27.4 34.7 26.8 35.75 26.6 36.1 27.6 37.75 28.1 38.65 28.4 39.1 29.85 41.25 31.45 43.15 31.45 43.2 31.75 43.25 32.65 43.3 33.95 43.45 33.95 43.55 33.9 43.75 33.65 45.6 33.65 45.65 32.4 45.5 28.8 44.35 27.2 43.4 Q26.7 43.1 26.05 42.75 L26.0 42.7 25.45 42.35 25.05 41.45 24.85 41.15 22.6 37.35 22.1 36.7 21.75 36.3 21.0 35.5 18.6 33.05 18.3 32.8 18.3 32.1 18.55 27.85 18.85 25.6 18.9 25.45 19.05 25.45 Q20.55 25.5 22.75 26.6 L24.0 27.2 24.55 27.5 24.65 27.35 25.4 25.9 25.95 24.3 26.05 24.0 26.65 21.45 26.15 20.7 Q25.2 19.4 24.05 18.9 L24.05 18.65 24.05 18.0 24.35 15.65 24.35 15.55 Q24.5 14.3 24.8 13.2 L24.9 12.8 24.95 12.6 M45.95 53.3 L46.0 53.5 M45.75 18.05 L45.65 17.7 45.65 17.45 45.5 16.8 M45.75 18.1 L45.75 18.05 M45.75 18.1 L45.85 18.75 45.85 19.7 45.35 19.95 44.5 20.25 42.4 20.65 39.35 19.9 38.0 18.9 37.85 18.8 37.75 18.2 37.65 17.7 37.05 14.95 36.85 14.3 36.2 12.5 35.35 10.75 34.9 10.05 33.4 8.45 33.1 8.25 33.15 7.85 33.15 7.65 33.2 7.2 33.35 5.85 33.3 5.85 32.55 6.15 30.85 6.9 Q30.05 7.2 29.4 7.55 L28.25 8.1 28.2 8.15 27.35 8.6 26.1 9.3 25.8 10.05 25.05 12.1 25.05 12.3 M1.95 50.8 L2.3 50.35 Q3.65 48.6 5.45 48.6 6.6 48.6 7.65 50.35 L8.2 51.5 8.35 51.85 8.35 51.95 8.4 52.15 8.45 53.4 8.45 53.5 M1.95 50.8 Q1.5 51.45 1.35 52.05 L1.45 52.8 1.55 53.5 M44.2 50.15 L45.05 50.3 45.05 50.35 45.1 50.4 45.7 52.35 45.95 53.3 M41.4 51.0 L41.9 50.65 42.45 50.4 44.0 50.15 44.2 50.15 M41.2 53.5 L40.6 52.85 Q40.6 51.7 41.4 51.0 M-0.25 34.9 L-0.95 34.45 -1.0 34.45 -1.9 33.9 M-1.9 40.45 L-1.35 41.7" fill="none" stroke="#201d48" stroke-linecap="round" stroke-linejoin="round" stroke-width="1.0"/>
      <path d="M41.3 42.3 L41.7 42.85 41.8 43.0 42.75 44.5 42.85 44.6 M40.55 41.15 L40.55 41.2 M35.65 45.45 L36.55 50.5" fill="none" stroke="#6a2321" stroke-linecap="round" stroke-linejoin="round" stroke-width="1.0"/>
      <path d="M42.85 44.6 L43.1 45.05 45.9 49.3 46.1 49.55 46.5 50.2 Q46.7 52.05 45.95 53.3 M37.2 53.5 L36.95 52.3 36.8 51.55 36.65 50.8 36.6 50.75 36.55 50.5 M33.95 48.95 L32.85 50.35 32.8 50.4 30.6 52.1 Q30.1 52.5 29.65 53.0 L29.2 53.5 M17.65 53.5 L17.35 53.0 15.8 50.35 14.8 49.8 12.1 47.65 10.65 46.2 11.0 46.65 11.7 47.35 12.2 47.85 Q12.05 49.75 10.95 52.1 L10.2 53.5 M-0.3 53.5 L-1.0 52.75 -1.5 51.75 -1.9 50.7 M19.8 13.5 L19.3 13.7 M9.25 22.35 Q10.4 20.65 11.95 19.1 L12.3 18.75 M12.2 27.8 L12.75 29.0 12.85 29.2 13.0 29.6 13.0 30.15 12.7 32.85 12.4 34.05 10.2 34.7 10.05 34.75 8.6 36.05 7.75 36.85 7.1 37.75 7.5 38.05 7.9 39.75 Q8.65 42.8 9.1 43.8 9.75 45.1 10.65 46.2 M10.85 26.1 L10.95 26.2 12.2 27.8 M-0.1 34.7 L-0.25 34.9 -1.55 36.45 M-1.75 36.65 L-1.55 38.7 -1.35 41.7 -1.35 43.05 Q-1.35 46.55 -1.85 48.65 L-1.9 48.85 M7.05 26.55 L7.25 26.45 8.15 26.0 M3.95 29.4 L4.85 28.0 5.1 27.65 Q5.8 27.25 7.05 26.55 M3.95 29.4 L3.3 30.3 2.0 32.05 1.15 33.15 -0.1 34.7 M1.55 36.7 L1.8 36.65 2.05 36.65 3.1 36.55 3.25 36.55 3.3 36.55 Q5.05 36.55 6.55 37.4 L7.1 37.75 M35.65 45.45 L35.3 46.35 34.2 48.55 33.95 48.95 M36.25 43.65 L35.65 45.45" fill="none" stroke="#650500" stroke-linecap="round" stroke-linejoin="round" stroke-width="1.0"/>
      <path d="M36.95 52.3 L36.2 51.45 36.0 51.2 34.35 49.4 33.95 48.95" fill="none" stroke="#684333" stroke-linecap="round" stroke-linejoin="round" stroke-width="1.0"/>
    </g>
    <g id="shape2" transform="matrix(1.0, 0.0, 0.0, 1.0, 0.0, 0.0)">
      <path d="M50.5 0.0 Q53.95 0.0 53.95 3.3 L53.95 50.15 Q53.95 53.4 50.5 53.4 L3.3 53.4 Q0.0 53.4 0.0 50.15 L0.0 3.3 Q0.0 0.0 3.3 0.0 L50.5 0.0" fill="#000000" fill-opacity="0.003921569" fill-rule="evenodd" stroke="none"/>
    </g>
  </defs>
</svg>
