<?xml version="1.0" encoding="UTF-8" standalone="no"?>
<svg xmlns:ffdec="https://www.free-decompiler.com/flash" xmlns:xlink="http://www.w3.org/1999/xlink" ffdec:objectType="frame" height="54.0px" width="55.4px" xmlns="http://www.w3.org/2000/svg">
  <g transform="matrix(1.0, 0.0, 0.0, 1.0, 0.5, 0.5)">
    <clipPath id="clipPath0" transform="matrix(1.0, 0.0, 0.0, 1.0, 0.0, 0.0)">
      <path d="M50.5 0.0 Q53.95 0.0 53.95 3.3 L53.95 50.15 Q53.95 53.4 50.5 53.4 L3.3 53.4 Q0.0 53.4 0.0 50.15 L0.0 3.3 Q0.0 0.0 3.3 0.0 L50.5 0.0" fill="#000000" fill-rule="evenodd" stroke="none"/>
    </clipPath>
    <g clip-path="url(#clipPath0)">
      <use ffdec:characterId="2" height="54.0" transform="matrix(1.0, 0.0, 0.0, 1.0, -0.5, -0.5)" width="55.4" xlink:href="#shape1"/>
    </g>
    <use ffdec:characterId="3" height="53.4" transform="matrix(1.0, 0.0, 0.0, 1.0, 0.0, 0.0)" width="53.95" xlink:href="#shape2"/>
  </g>
  <defs>
    <g id="shape1" transform="matrix(1.0, 0.0, 0.0, 1.0, 0.5, 0.5)">
      <path d="M7.55 10.45 L7.6 10.4 8.1 9.75 9.05 8.6 Q11.3 6.05 14.15 4.3 L14.8 4.4 17.6 4.8 17.7 4.8 20.6 5.25 23.2 5.9 24.3 6.35 23.75 6.55 23.75 6.5 23.7 6.35 22.4 6.15 21.3 6.05 Q20.45 6.05 19.45 6.4 L17.8 7.0 17.4 6.6 17.0 6.55 16.55 6.55 Q16.2 6.6 16.2 7.15 L16.35 7.45 16.7 7.7 16.55 7.7 16.55 7.8 Q15.6 8.0 14.7 8.9 L14.15 9.5 13.5 10.2 14.4 10.25 Q14.95 10.5 14.95 10.95 14.95 11.9 14.3 12.6 13.7 13.25 12.85 13.25 L11.25 12.95 10.2 14.6 9.2 16.15 Q8.65 15.65 8.3 15.65 L8.1 15.7 Q7.4 15.7 6.95 16.25 6.45 16.8 6.45 17.5 L6.45 17.55 Q6.45 18.5 7.15 19.1 7.6 19.5 8.1 19.35 L8.35 19.15 8.1 21.15 7.95 21.8 7.9 21.85 Q7.45 23.95 7.45 25.05 L8.1 26.2 8.55 26.8 8.55 26.85 9.55 28.15 7.9 27.55 4.65 26.4 1.35 25.4 1.4 25.15 1.55 24.3 1.7 23.85 Q2.35 20.95 3.45 18.2 4.6 15.3 6.2 12.5 L7.55 10.45 M11.25 9.95 L10.85 9.65 10.15 9.6 10.1 9.8 10.05 9.9 10.0 10.4 10.2 10.45 10.6 10.5 Q11.05 10.5 11.25 9.95 M5.05 22.35 L5.5 22.35 5.6 22.1 5.65 21.7 5.5 21.25 5.35 21.05 4.9 21.3 4.85 21.75 4.95 22.15 5.05 22.35" fill="#ff9a7e" fill-rule="evenodd" stroke="none"/>
      <path d="M36.1 8.4 L35.35 10.2 34.4 11.3 Q33.65 11.85 32.75 11.85 L30.05 10.7 28.45 10.05 Q24.6 8.55 23.45 8.3 L23.15 8.3 Q22.5 8.3 20.9 9.45 L20.55 9.75 18.05 11.85 16.2 13.2 Q12.0 16.85 10.25 23.8 L10.2 24.1 Q10.05 25.95 13.6 27.05 L16.05 27.75 Q17.15 29.45 17.8 30.0 L19.7 31.6 21.8 33.35 22.9 34.15 23.55 34.75 21.85 33.75 19.65 32.55 16.55 31.1 14.15 30.0 13.4 29.7 11.5 28.9 10.1 28.35 10.0 28.35 9.55 28.15 8.55 26.85 8.55 26.8 8.1 26.2 7.45 25.05 Q7.45 23.95 7.9 21.85 L7.95 21.8 8.1 21.15 8.35 19.15 8.1 19.35 Q7.6 19.5 7.15 19.1 6.45 18.5 6.45 17.55 L6.45 17.5 Q6.45 16.8 6.95 16.25 7.4 15.7 8.1 15.7 L8.3 15.65 Q8.65 15.65 9.2 16.15 L10.2 14.6 11.25 12.95 12.85 13.25 Q13.7 13.25 14.3 12.6 14.95 11.9 14.95 10.95 14.95 10.5 14.4 10.25 L13.5 10.2 14.15 9.5 14.7 8.9 Q15.6 8.0 16.55 7.8 L16.55 7.7 16.7 7.7 16.35 7.45 16.2 7.15 Q16.2 6.6 16.55 6.55 L17.0 6.55 17.4 6.6 17.8 7.0 19.45 6.4 Q20.45 6.05 21.3 6.05 L22.4 6.15 23.7 6.35 23.75 6.5 23.75 6.55 24.3 6.35 24.5 6.4 25.0 6.65 28.6 8.45 28.7 8.55 29.0 8.65 29.25 8.8 30.2 9.3 32.6 10.5 32.75 10.5 34.1 10.2 Q35.05 9.75 35.95 8.55 L36.1 8.4 M28.1 37.6 Q30.2 38.5 32.85 38.45 37.3 38.25 38.9 37.0 39.25 36.2 40.4 34.95 42.05 33.05 44.4 31.2 46.25 29.8 47.8 28.9 48.8 28.25 49.75 27.85 L49.8 28.35 49.8 28.9 49.85 29.15 48.8 29.75 48.6 29.9 47.15 30.8 46.05 31.45 Q43.6 32.7 41.65 34.4 L40.9 35.0 40.25 35.7 39.7 36.25 Q38.8 37.2 38.05 38.5 L37.3 39.9 36.65 41.45 34.8 41.85 Q34.7 41.9 34.55 42.0 34.05 42.15 33.65 42.5 L33.35 42.75 33.1 42.9 33.1 42.95 32.9 42.75 32.85 42.7 33.15 42.5 33.1 42.5 31.9 41.0 Q30.3 39.15 29.0 38.25 L28.1 37.6 M44.45 36.6 L44.5 36.55 44.65 36.6 44.45 36.6 M33.15 42.5 L33.2 42.55 33.35 42.75 33.2 42.55 33.15 42.5" fill="#ffb09a" fill-rule="evenodd" stroke="none"/>
      <path d="M45.65 25.45 L46.55 25.35 Q47.45 24.95 47.6 24.35 L47.65 22.85 Q47.65 19.85 45.85 16.35 L45.75 16.1 44.55 14.25 Q43.0 12.1 41.4 12.1 L40.8 12.25 40.35 12.4 40.1 12.5 40.35 12.4 40.25 12.45 40.1 12.5 Q37.85 13.75 37.0 16.8 36.15 19.9 36.15 21.65 36.15 24.8 37.65 25.8 L38.05 25.95 38.25 26.0 39.6 26.05 43.55 25.75 45.65 25.45 M46.25 14.6 L47.0 16.1 48.55 20.0 48.7 20.4 49.0 22.25 49.55 25.2 49.55 25.3 49.6 25.3 49.6 25.45 49.65 25.65 49.65 26.8 49.7 27.3 49.75 27.85 Q48.8 28.25 47.8 28.9 46.25 29.8 44.4 31.2 42.05 33.05 40.4 34.95 39.25 36.2 38.9 37.0 37.3 38.25 32.85 38.45 30.2 38.5 28.1 37.6 L26.75 36.7 26.55 36.6 26.25 36.35 25.5 35.9 24.45 35.25 23.6 34.75 23.55 34.75 22.9 34.15 21.8 33.35 19.7 31.6 17.8 30.0 Q17.15 29.45 16.05 27.75 L19.05 28.25 20.25 28.3 25.25 28.1 Q27.5 27.95 28.65 27.2 29.8 26.4 30.2 24.35 30.55 22.35 30.4 19.25 30.25 16.2 29.0 13.55 27.35 10.2 23.7 10.2 L23.2 10.2 Q20.5 10.4 18.05 11.85 L20.55 9.75 20.9 9.45 Q22.5 8.3 23.15 8.3 L23.45 8.3 Q24.6 8.55 28.45 10.05 L30.05 10.7 32.75 11.85 Q33.65 11.85 34.4 11.3 L35.35 10.2 36.1 8.4 36.7 7.35 38.0 4.5 Q41.4 6.95 44.05 10.95 L46.25 14.6 M35.4 36.3 L36.3 36.25 36.3 35.7 Q35.95 32.9 35.05 30.8 L34.0 34.05 33.6 35.7 Q33.6 36.3 33.75 36.4 L34.55 36.4 35.4 36.3" fill="#ffebb9" fill-rule="evenodd" stroke="none"/>
      <path d="M53.15 29.5 L51.55 31.5 Q51.15 32.25 50.85 33.1 50.55 34.0 50.4 34.95 L50.35 34.95 50.25 34.95 50.2 35.1 50.2 35.15 49.8 35.15 47.65 35.4 47.4 35.45 45.55 36.0 45.05 36.2 44.5 36.35 44.85 36.2 45.6 35.85 47.2 34.65 49.8 32.8 49.75 32.8 46.55 33.7 46.35 33.8 44.4 34.4 Q43.65 34.65 43.1 34.95 L42.45 35.35 Q41.15 36.35 40.1 38.15 L39.35 39.6 38.9 40.45 38.9 40.55 38.45 41.55 38.1 41.5 37.7 41.45 36.95 41.45 37.25 40.7 37.65 40.05 37.7 40.0 37.9 39.75 38.55 38.9 38.6 38.9 38.6 38.8 40.7 36.15 41.35 35.5 42.1 34.95 42.1 34.9 42.75 34.4 43.85 33.6 44.0 33.55 Q45.25 32.75 46.85 31.95 L47.5 31.65 47.55 31.65 49.3 30.9 49.45 30.85 49.9 30.7 52.1 29.9 53.15 29.5 M53.45 49.7 L52.65 50.75 52.5 50.35 Q51.85 48.1 51.3 47.6 L48.5 49.0 47.1 49.6 Q46.05 50.1 45.55 50.35 L45.5 50.35 45.5 50.15 45.75 49.5 45.75 47.4 44.4 49.3 44.35 49.4 43.4 50.75 43.8 51.0 44.1 52.9 44.0 53.0 39.65 53.0 41.15 52.9 Q41.75 52.85 41.9 52.5 L42.05 51.2 41.9 51.2 41.95 50.3 43.65 48.0 42.8 47.6 42.75 47.6 42.2 47.2 50.35 45.05 50.0 45.4 48.65 46.9 48.3 47.3 47.05 48.75 48.5 47.8 50.85 46.2 51.15 46.05 52.0 45.4 Q54.4 46.5 53.9 48.05 L53.45 49.7 M36.4 53.0 L35.5 53.0 35.2 51.75 34.7 53.0 34.15 53.0 34.3 52.5 34.5 51.85 34.7 51.3 35.3 48.95 35.6 48.85 36.25 48.7 Q36.65 48.7 36.65 48.85 L36.8 49.75 36.55 51.4 36.4 52.9 36.4 53.0 M25.0 53.0 L23.75 53.0 23.85 52.35 21.85 52.65 19.4 52.85 14.3 52.45 11.2 51.55 10.85 51.4 9.45 50.75 8.95 50.5 7.3 49.55 Q5.05 48.3 3.8 47.6 L3.1 47.15 4.05 48.2 4.3 48.55 6.0 51.1 Q5.2 50.55 2.8 49.5 L2.5 49.35 0.65 48.55 0.0 48.3 0.0 46.65 0.1 46.75 1.75 47.9 2.15 48.15 2.2 48.15 2.3 48.2 2.85 48.45 3.5 48.7 2.4 47.95 2.3 47.9 1.9 47.6 0.85 46.75 0.3 46.2 0.0 45.9 0.0 43.8 1.5 45.1 2.25 45.65 2.85 46.05 3.4 46.4 3.9 46.7 4.2 46.85 4.25 46.85 6.35 47.95 7.35 48.45 8.3 48.75 9.6 49.25 14.15 50.75 15.25 51.05 19.1 51.55 20.0 51.55 23.75 51.25 24.05 51.25 25.3 51.0 25.75 50.9 28.7 50.35 26.5 51.95 25.6 52.55 25.0 53.0 M0.0 33.15 L0.0 27.0 0.95 27.25 4.7 28.2 9.7 29.7 10.3 29.9 10.9 30.1 11.0 30.15 11.9 30.55 12.8 30.95 15.35 32.2 19.15 34.05 19.2 34.1 Q19.45 34.15 19.7 34.35 L19.8 34.4 21.35 35.2 21.75 35.4 21.8 35.4 22.7 35.85 23.5 36.3 24.35 36.75 24.95 37.1 27.75 38.65 Q29.8 39.95 31.5 41.45 L31.75 41.65 32.1 42.0 32.15 42.0 32.15 42.05 32.85 42.7 32.9 42.75 33.1 42.95 32.75 43.3 32.4 43.7 32.35 43.75 31.45 44.9 31.45 44.95 31.5 45.1 28.45 45.55 28.15 45.55 26.25 45.55 25.4 45.45 Q19.25 45.5 13.55 43.45 L10.85 42.35 10.7 42.3 Q8.15 41.15 6.05 39.55 L3.95 37.85 Q1.75 35.75 0.0 33.15 M38.8 41.65 L39.85 40.9 40.35 40.5 40.55 40.45 42.55 38.95 42.7 38.95 41.1 41.3 41.0 41.45 40.9 41.55 41.1 41.5 41.2 41.45 43.15 41.0 43.6 40.85 Q45.7 40.3 46.55 39.75 L49.15 37.4 49.25 37.3 49.2 37.4 49.15 37.5 49.1 37.65 48.9 38.0 48.7 38.4 48.4 38.8 47.8 39.45 46.75 40.35 45.4 41.2 42.75 42.15 41.85 42.25 41.35 42.3 40.55 42.25 40.5 42.25 40.25 42.2 39.5 41.85 38.8 41.65 M39.8 45.35 L40.15 45.65 41.25 45.5 41.85 45.4 40.5 45.95 40.45 45.9 40.1 45.65 39.8 45.35 M48.4 38.8 L48.85 38.0 49.1 37.65 48.85 38.0 48.4 38.8 M47.05 48.75 L46.7 49.0 46.85 49.0 47.05 48.75 M12.4 32.95 L8.85 32.2 2.85 31.15 Q3.55 31.85 6.4 33.5 L6.7 33.65 7.05 33.85 7.1 33.85 7.25 33.95 10.45 35.8 7.0 35.35 6.55 35.2 6.35 35.2 4.15 34.7 2.6 34.3 3.25 35.2 5.95 38.25 7.2 39.25 7.5 39.45 8.9 40.4 9.15 40.5 12.1 41.95 12.5 42.1 13.1 42.35 14.6 42.85 19.75 44.1 23.9 44.75 25.15 44.7 26.0 44.8 26.05 44.8 26.4 44.85 26.45 44.85 27.5 44.85 29.6 44.25 29.05 44.1 Q27.5 43.75 26.65 43.3 24.85 42.4 23.15 40.5 L23.15 40.45 23.2 40.4 Q23.65 41.05 26.05 41.85 L27.0 42.15 29.45 42.65 31.05 42.55 30.15 41.8 28.8 40.55 Q27.35 39.15 24.05 37.3 L22.15 36.25 21.5 35.9 21.25 35.75 20.55 35.45 19.5 35.0 18.8 34.75 14.1 33.3 12.4 32.95 M31.05 47.85 L31.45 47.6 31.6 47.5 32.3 47.0 31.85 45.75 32.0 45.7 32.75 46.5 32.5 46.85 32.5 46.9 32.35 47.05 32.0 47.8 31.05 47.85 M32.3 47.0 L32.5 46.9 32.3 47.0 M40.1 45.65 L40.15 45.65 40.1 45.65" fill="#539416" fill-rule="evenodd" stroke="none"/>
      <path d="M14.05 0.0 L14.35 0.0 13.35 0.2 14.05 0.0" fill="#305811" fill-rule="evenodd" stroke="none"/>
      <path d="M54.35 25.9 L54.4 25.85 54.4 26.25 54.0 26.5 52.4 27.4 54.35 25.9 M54.4 22.1 L54.25 21.95 53.45 21.4 Q51.5 20.1 49.55 19.85 L48.55 19.8 48.15 18.2 47.65 16.35 48.25 16.5 50.2 17.2 53.4 19.2 54.4 20.0 54.4 22.1 M52.65 50.75 L50.25 53.0 44.0 53.0 44.1 52.9 43.8 51.0 43.4 50.75 44.35 49.4 44.4 49.3 45.75 47.4 45.75 49.5 45.5 50.15 45.5 50.35 45.55 50.35 Q46.05 50.1 47.1 49.6 L48.5 49.0 51.3 47.6 Q51.85 48.1 52.5 50.35 L52.65 50.75 M35.5 53.0 L34.7 53.0 35.2 51.75 35.5 53.0 M23.75 53.0 L2.4 53.0 0.75 52.1 0.0 51.65 0.0 48.3 0.65 48.55 2.5 49.35 2.8 49.5 Q5.2 50.55 6.0 51.1 L4.3 48.55 4.05 48.2 3.1 47.15 3.8 47.6 Q5.05 48.3 7.3 49.55 L8.95 50.5 9.45 50.75 10.85 51.4 11.2 51.55 14.3 52.45 19.4 52.85 21.85 52.65 23.85 52.35 23.75 53.0 M0.0 25.15 L0.0 25.05 0.2 25.1 0.0 25.15 M0.0 13.0 L0.0 11.4 3.0 10.65 3.05 10.65 3.15 10.65 5.9 10.4 7.55 10.4 7.55 10.45 6.0 12.3 5.35 12.3 3.15 12.35 1.75 12.55 0.65 12.8 0.0 13.0 M45.05 36.2 L45.55 36.0 47.4 35.45 47.65 35.4 49.8 35.15 50.2 35.15 Q49.95 35.45 49.65 36.2 L49.4 36.85 49.25 37.3 49.15 37.4 46.55 39.75 Q45.7 40.3 43.6 40.85 L43.15 41.0 41.2 41.45 41.1 41.5 40.9 41.55 41.0 41.45 41.1 41.3 42.7 38.95 42.55 38.95 40.55 40.45 40.35 40.5 39.85 40.9 38.8 41.65 38.7 41.6 38.45 41.55 38.9 40.55 38.9 40.45 39.35 39.6 40.1 38.15 Q41.15 36.35 42.45 35.35 L43.1 34.95 Q43.65 34.65 44.4 34.4 L46.35 33.8 46.55 33.7 49.75 32.8 49.8 32.8 47.2 34.65 45.6 35.85 44.85 36.2 44.45 36.25 45.1 35.3 Q45.5 34.65 45.75 34.65 L45.55 34.65 Q43.7 35.3 42.35 36.85 L39.8 39.6 39.75 39.7 41.05 38.9 43.85 38.15 43.85 38.5 42.95 39.65 42.2 40.7 42.55 40.7 Q43.65 40.7 45.85 38.65 L48.8 35.95 48.2 35.95 46.65 36.05 45.05 36.2 M4.4 2.15 L2.15 0.5 1.7 0.0 9.75 0.0 5.15 1.9 4.4 2.15 M0.4 11.85 L0.65 12.8 0.45 11.85 0.4 11.85 M12.4 32.95 L14.1 33.3 18.8 34.75 19.5 35.0 20.55 35.45 21.25 35.75 21.5 35.9 22.15 36.25 24.05 37.3 Q27.35 39.15 28.8 40.55 L30.15 41.8 31.05 42.55 29.45 42.65 27.0 42.15 26.05 41.85 Q23.65 41.05 23.2 40.4 L23.15 40.45 23.15 40.5 Q24.85 42.4 26.65 43.3 27.5 43.75 29.05 44.1 L29.6 44.25 27.5 44.85 26.45 44.85 26.4 44.85 26.05 44.8 26.0 44.8 25.15 44.7 23.9 44.75 19.75 44.1 14.6 42.85 13.1 42.35 12.5 42.1 12.1 41.95 9.15 40.5 8.9 40.4 7.5 39.45 7.2 39.25 5.95 38.25 3.25 35.2 2.6 34.3 4.15 34.7 6.35 35.2 6.55 35.2 7.0 35.35 10.45 35.8 7.25 33.95 7.1 33.85 7.05 33.85 6.7 33.65 6.4 33.5 Q3.55 31.85 2.85 31.15 L8.85 32.2 12.4 32.95 M10.25 34.95 Q11.4 36.05 11.6 36.7 L11.4 36.7 7.45 36.85 Q10.6 39.35 12.1 40.0 L14.45 40.95 21.8 42.95 23.05 42.95 Q23.0 42.25 21.85 41.0 L20.5 39.3 23.4 39.95 26.2 40.55 26.75 40.55 Q24.85 39.0 22.15 37.65 19.5 36.25 15.35 35.1 L13.0 34.45 9.7 33.55 Q9.35 34.1 10.25 34.95" fill="#7ac52a" fill-rule="evenodd" stroke="none"/>
      <path d="M54.4 19.2 L54.4 20.0 53.4 19.2 50.2 17.2 53.1 18.45 54.4 19.2 M23.55 34.75 L23.6 34.75 24.45 35.25 25.5 35.9 26.25 36.35 26.55 36.6 26.75 36.7 28.1 37.6 29.0 38.25 Q30.3 39.15 31.9 41.0 L33.1 42.5 33.15 42.5 32.85 42.7 32.15 42.05 32.15 42.0 32.1 42.0 31.75 41.65 31.5 41.45 Q29.8 39.95 27.75 38.65 L24.95 37.1 24.35 36.75 23.5 36.3 22.7 35.85 21.8 35.4 21.75 35.4 21.35 35.2 19.8 34.4 19.7 34.35 Q19.45 34.15 19.2 34.1 L19.15 34.05 15.35 32.2 12.8 30.95 11.9 30.55 11.0 30.15 10.9 30.1 10.3 29.9 9.7 29.7 4.7 28.2 0.95 27.25 0.0 27.0 0.0 25.15 0.2 25.1 1.0 25.3 1.35 25.4 4.65 26.4 7.9 27.55 9.55 28.15 10.0 28.35 10.1 28.35 11.5 28.9 13.4 29.7 14.15 30.0 16.55 31.1 19.65 32.55 21.85 33.75 23.55 34.75 M52.4 27.4 L54.0 26.5 54.4 26.25 54.4 28.6 53.15 29.5 52.1 29.9 49.9 30.7 49.45 30.85 49.3 30.9 47.55 31.65 47.5 31.65 46.85 31.95 Q45.25 32.75 44.0 33.55 L43.85 33.6 42.75 34.4 42.1 34.9 42.1 34.95 41.35 35.5 40.7 36.15 38.6 38.8 38.6 38.9 38.55 38.9 37.9 39.75 37.7 40.0 37.65 40.05 37.25 40.7 36.95 41.45 36.65 41.45 37.3 39.9 38.05 38.5 Q38.8 37.2 39.7 36.25 L40.25 35.7 40.9 35.0 41.65 34.4 Q43.6 32.7 46.05 31.45 L47.15 30.8 48.6 29.9 48.8 29.75 49.85 29.15 49.85 29.1 51.4 28.05 51.7 27.9 51.75 27.85 52.4 27.4 M0.0 11.4 L0.0 11.1 1.4 10.85 3.0 10.65 0.0 11.4 M7.65 10.2 L7.55 10.4 5.9 10.4 7.3 10.25 7.55 10.25 7.45 10.35 7.65 10.2 M44.45 36.6 L44.65 36.6 44.5 36.55 44.45 36.6 M44.85 36.2 L44.5 36.35 45.05 36.2 46.65 36.05 48.2 35.95 48.8 35.95 45.85 38.65 Q43.65 40.7 42.55 40.7 L42.2 40.7 42.95 39.65 43.85 38.5 43.85 38.15 41.05 38.9 39.75 39.7 39.8 39.6 42.35 36.85 Q43.7 35.3 45.55 34.65 L45.75 34.65 Q45.5 34.65 45.1 35.3 L44.45 36.25 44.85 36.2 M10.25 34.95 Q9.35 34.1 9.7 33.55 L13.0 34.45 15.35 35.1 Q19.5 36.25 22.15 37.65 24.85 39.0 26.75 40.55 L26.2 40.55 23.4 39.95 20.5 39.3 21.85 41.0 Q23.0 42.25 23.05 42.95 L21.8 42.95 14.45 40.95 12.1 40.0 Q10.6 39.35 7.45 36.85 L11.4 36.7 11.6 36.7 Q11.4 36.05 10.25 34.95" fill="#a3dd27" fill-rule="evenodd" stroke="none"/>
      <path d="M40.8 12.25 L41.4 12.1 Q43.0 12.1 44.55 14.25 L45.75 16.1 45.85 16.35 Q47.65 19.85 47.65 22.85 L47.6 24.35 Q47.45 24.95 46.55 25.35 L45.65 25.45 45.75 24.7 Q45.75 21.4 45.2 18.95 L44.6 16.9 43.8 15.25 43.6 15.05 42.45 13.6 42.45 13.55 41.95 13.15 40.8 12.25 M18.05 11.85 Q20.5 10.4 23.2 10.2 L20.65 12.35 20.1 12.75 19.65 13.4 Q17.8 15.4 16.6 17.85 14.8 21.2 14.6 24.2 14.6 25.85 17.5 27.5 L19.05 28.25 16.05 27.75 13.6 27.05 Q10.05 25.95 10.2 24.1 L10.25 23.8 Q12.0 16.85 16.2 13.2 L18.05 11.85 M35.4 36.3 L34.55 36.4 33.75 36.4 Q33.6 36.3 33.6 35.7 L34.0 34.05 35.05 30.8 Q35.95 32.9 36.3 35.7 L36.3 36.25 35.4 36.3" fill="#e2fffe" fill-rule="evenodd" stroke="none"/>
      <path d="M40.8 12.25 L41.95 13.15 42.45 13.55 42.45 13.6 43.6 15.05 43.8 15.25 44.6 16.9 45.2 18.95 Q45.75 21.4 45.75 24.7 L45.65 25.45 43.55 25.75 39.6 26.05 38.25 26.0 38.05 25.95 37.65 25.8 Q36.15 24.8 36.15 21.65 36.15 19.9 37.0 16.8 37.85 13.75 40.1 12.5 L40.25 12.45 40.35 12.4 40.8 12.25 M38.4 16.25 Q37.75 18.1 37.6 19.55 37.45 21.2 38.65 22.5 39.85 23.75 41.35 23.75 42.6 23.75 43.5 22.2 44.3 20.75 44.3 19.15 44.3 17.2 43.3 15.25 L42.2 13.75 41.75 13.45 41.1 13.25 Q39.7 13.25 38.85 15.15 39.3 14.7 39.95 14.7 40.55 14.7 41.0 15.15 L41.35 15.75 41.45 16.25 41.0 17.3 Q40.55 17.75 39.95 17.75 L39.45 17.65 38.85 17.3 Q38.4 16.8 38.4 16.25 M23.2 10.2 L23.7 10.2 Q27.35 10.2 29.0 13.55 30.25 16.2 30.4 19.25 30.55 22.35 30.2 24.35 29.8 26.4 28.65 27.2 27.5 27.95 25.25 28.1 L20.25 28.3 19.05 28.25 17.5 27.5 Q14.6 25.85 14.6 24.2 14.8 21.2 16.6 17.85 17.8 15.4 19.65 13.4 L20.1 12.75 20.65 12.35 23.2 10.2 M25.45 0.0 L27.5 0.0 27.7 0.3 27.9 0.3 28.0 0.3 28.75 0.8 30.1 1.9 31.45 3.1 Q31.0 3.2 30.65 3.45 30.35 3.6 30.15 3.9 L30.0 3.7 Q29.55 3.05 28.9 2.55 L27.55 1.75 26.85 1.4 25.65 0.6 25.45 0.45 25.7 0.4 27.7 0.3 25.7 0.4 25.45 0.0 M33.95 7.15 L34.45 7.6 34.75 8.55 34.6 8.95 33.85 9.05 33.4 9.05 33.1 8.15 32.85 7.85 32.8 7.8 33.45 7.55 33.95 7.15 M31.85 5.3 Q31.55 5.05 31.55 4.6 31.55 3.85 32.15 3.85 L32.45 3.85 32.6 3.85 33.15 4.05 33.4 4.7 33.4 4.95 33.15 5.3 Q33.0 5.5 32.75 5.5 L32.4 5.5 Q32.1 5.5 31.85 5.3 M19.45 14.75 L19.35 14.95 Q18.45 16.9 18.45 19.4 18.45 22.0 20.05 23.75 21.8 25.7 24.65 25.7 26.4 25.7 27.9 23.75 29.25 21.95 29.3 19.85 L29.3 19.8 Q29.25 17.05 27.8 14.35 26.25 11.65 25.05 11.55 L23.5 11.55 Q23.15 11.6 23.05 11.75 22.5 11.85 22.0 12.1 22.7 12.15 23.3 12.75 23.85 13.3 24.0 14.0 L24.0 14.35 Q24.0 15.3 23.3 15.95 22.65 16.65 21.7 16.65 L21.3 16.6 Q20.6 16.5 20.1 15.95 19.55 15.4 19.45 14.75 M35.45 42.65 L35.95 42.9 36.1 43.05 36.15 43.15 36.4 43.9 Q36.4 44.8 35.55 44.9 L35.25 44.9 34.95 44.85 34.8 44.85 34.4 44.6 34.1 44.05 34.1 44.0 34.15 43.8 34.4 43.25 34.95 42.65 35.05 42.65 35.45 42.65" fill="#ffffff" fill-rule="evenodd" stroke="none"/>
      <path d="M38.0 4.5 L36.7 7.35 36.1 8.4 35.95 8.55 35.15 8.9 34.6 8.95 34.75 8.55 34.45 7.6 33.95 7.15 34.5 6.15 34.5 5.35 34.45 4.95 34.3 4.7 34.2 4.4 33.05 3.25 32.35 3.05 31.7 3.05 31.45 3.1 31.7 3.05 32.35 3.05 33.05 3.25 34.2 4.4 34.3 4.7 34.45 4.95 34.5 5.35 34.5 6.15 32.95 6.9 32.2 6.75 32.0 6.7 31.55 6.5 31.2 6.25 Q30.5 5.6 30.65 3.85 L30.65 3.45 Q31.0 3.2 31.45 3.1 L30.1 1.9 28.75 0.8 28.0 0.3 29.45 0.45 31.55 0.85 32.85 1.35 34.5 1.95 36.15 2.75 36.55 3.05 37.5 3.6 38.05 4.05 38.0 4.5 M52.0 35.6 L52.4 35.9 52.75 36.1 53.1 36.35 53.4 36.7 53.3 37.05 53.1 37.7 53.1 37.75 52.95 38.2 52.6 39.05 51.35 41.05 51.0 41.5 50.85 41.65 50.35 42.1 49.05 43.15 47.35 44.05 45.55 44.65 41.85 45.4 41.25 45.5 40.15 45.65 39.8 45.35 39.7 45.3 39.5 45.15 39.7 45.3 39.8 45.35 40.1 45.65 40.45 45.9 40.5 45.95 41.75 46.9 41.8 46.9 41.95 47.05 42.2 47.2 42.75 47.6 41.95 48.8 41.75 49.0 41.15 49.55 41.1 49.55 41.05 49.6 Q40.1 50.2 38.95 50.3 L38.75 49.95 38.45 49.35 38.3 48.95 37.75 47.65 37.95 47.4 38.0 47.35 38.35 46.9 38.9 46.2 39.25 45.65 39.45 45.35 39.45 45.25 39.5 45.15 39.55 45.1 39.6 45.0 40.3 43.45 40.5 43.5 41.1 43.6 41.95 43.55 42.75 43.45 42.95 43.45 43.0 43.45 Q45.4 43.1 47.35 41.8 L48.55 40.85 48.6 40.85 48.75 40.7 48.95 40.55 49.95 39.35 50.2 39.05 50.25 39.0 50.35 38.8 50.65 38.45 51.25 37.4 51.6 36.55 51.85 35.95 52.0 35.6 M0.0 41.35 L0.0 36.6 1.9 38.7 2.3 39.1 2.5 39.25 2.7 39.4 2.8 39.55 4.35 40.75 5.0 41.2 8.85 43.25 9.05 43.35 9.3 43.45 9.5 43.5 9.7 43.6 10.1 43.75 10.95 44.1 Q14.15 45.35 16.95 45.95 L21.8 46.6 23.6 46.65 25.8 46.7 28.55 46.55 28.65 46.55 29.0 46.5 30.1 46.3 31.85 45.75 32.3 47.0 31.6 47.5 31.45 47.6 31.05 47.85 29.3 48.6 26.6 49.25 22.9 49.55 22.1 49.55 21.0 49.55 18.0 49.3 17.15 49.2 11.0 47.75 6.8 46.05 5.65 45.45 5.65 45.4 2.8 43.65 2.5 43.45 1.75 42.9 0.65 41.95 0.0 41.35 M17.45 1.95 L17.95 1.8 17.6 1.9 18.25 1.7 18.3 1.65 18.6 1.6 21.0 1.05 23.75 0.6 24.2 0.55 25.45 0.45 25.65 0.6 26.85 1.4 27.55 1.75 28.9 2.55 Q29.55 3.05 30.0 3.7 L30.15 3.9 Q29.7 4.55 29.8 5.5 29.8 6.2 30.3 6.75 L30.65 7.15 30.9 7.3 31.2 7.5 31.45 7.6 31.9 7.8 32.8 7.8 32.85 7.85 33.1 8.15 33.4 9.05 33.85 9.05 34.6 8.95 34.55 9.1 34.1 10.2 32.75 10.5 32.6 10.5 33.1 9.8 33.4 9.1 33.4 9.05 Q32.45 8.95 31.15 8.25 L31.1 8.25 30.85 8.15 30.8 8.1 30.55 8.0 30.1 7.7 30.0 7.7 27.15 6.15 25.7 5.5 24.9 5.2 24.4 5.0 23.7 4.7 21.05 3.85 20.85 3.75 17.6 2.5 Q16.95 2.1 17.45 1.95 M19.6 0.0 L21.25 0.0 19.65 0.25 19.6 0.0 M31.3 0.0 L32.45 0.0 32.55 0.25 32.4 0.3 31.3 0.0 M36.65 41.45 L36.95 41.45 37.7 41.45 38.1 41.5 38.45 41.55 38.7 41.6 38.7 41.7 38.7 42.15 38.7 42.3 38.6 43.05 38.6 43.25 37.95 44.85 37.75 45.15 Q37.25 45.45 37.05 45.9 L36.95 45.95 Q36.25 46.45 35.35 46.45 L34.0 46.05 33.6 45.75 33.55 45.7 33.4 45.55 33.05 45.2 32.9 45.05 Q32.55 44.5 32.45 43.75 L32.4 43.7 32.75 43.3 33.1 42.95 33.1 42.9 33.35 42.75 33.65 42.5 Q34.05 42.15 34.55 42.0 34.7 41.9 34.8 41.85 L36.65 41.45 M31.85 5.3 Q32.1 5.5 32.4 5.5 L32.75 5.5 Q33.0 5.5 33.15 5.3 L33.4 4.95 33.4 4.7 33.15 4.05 32.6 3.85 32.45 3.85 32.15 3.85 Q31.55 3.85 31.55 4.6 31.55 5.05 31.85 5.3 M17.95 1.8 L18.25 1.7 17.95 1.8 M35.45 42.65 L35.05 42.65 34.95 42.65 34.4 43.25 34.15 43.8 34.1 44.0 34.1 44.05 34.4 44.6 34.8 44.85 34.95 44.85 35.25 44.9 35.55 44.9 Q36.4 44.8 36.4 43.9 L36.15 43.15 36.1 43.05 35.95 42.9 35.45 42.65 M34.3 52.5 L33.5 52.7 33.3 52.7 33.15 52.7 32.65 52.6 Q31.25 52.45 30.65 51.7 L30.65 51.65 30.8 51.3 31.55 49.85 31.65 49.8 32.35 48.65 32.9 47.95 33.15 47.7 33.6 47.25 34.55 48.05 34.65 48.05 34.85 48.05 35.05 48.05 35.45 48.0 35.3 48.95 34.7 51.3 34.5 51.85 34.3 52.5" fill="#f0ef23" fill-rule="evenodd" stroke="none"/>
      <path d="M50.4 34.95 L52.0 35.6 51.85 35.95 51.6 36.55 51.25 37.4 50.65 38.45 50.35 38.8 50.25 39.0 50.2 39.05 49.95 39.35 48.95 40.55 48.75 40.7 48.6 40.85 48.55 40.85 47.35 41.8 Q45.4 43.1 43.0 43.45 L42.95 43.45 42.75 43.45 41.95 43.55 41.1 43.6 40.5 43.5 40.3 43.45 40.4 43.3 40.5 42.25 40.4 43.3 40.3 43.45 39.6 45.0 39.55 45.1 39.5 45.15 39.45 45.25 39.45 45.35 39.25 45.65 38.9 46.2 38.35 46.9 38.0 47.35 37.95 47.4 37.75 47.65 38.3 48.95 38.45 49.35 38.75 49.95 38.95 50.3 Q40.1 50.2 41.05 49.6 L41.1 49.55 41.15 49.55 41.75 49.0 41.95 48.8 42.75 47.6 42.8 47.6 43.65 48.0 41.95 50.3 41.75 50.5 41.65 50.6 Q39.95 52.25 38.2 51.75 L37.8 50.45 37.8 50.2 37.75 50.0 37.7 49.8 37.25 47.8 36.95 47.85 36.4 47.9 35.45 48.0 35.05 48.05 34.85 48.05 34.65 48.05 34.55 48.05 33.6 47.25 32.85 46.65 32.75 46.5 32.85 46.65 33.6 47.25 33.15 47.7 32.9 47.95 32.35 48.65 31.65 49.8 31.55 49.85 30.8 51.3 30.65 51.65 30.65 51.7 Q31.25 52.45 32.65 52.6 L33.15 52.7 33.3 52.7 33.5 52.7 34.3 52.5 34.15 53.0 30.75 53.0 30.25 52.7 29.0 51.75 28.7 51.4 28.9 51.3 29.85 50.75 30.2 50.45 31.2 49.2 31.4 48.8 31.45 48.7 32.0 47.8 32.35 47.05 32.5 46.9 32.5 46.85 32.75 46.5 32.0 45.7 31.85 45.75 30.1 46.3 29.0 46.5 28.65 46.55 28.55 46.55 25.8 46.7 23.6 46.65 21.8 46.6 16.95 45.95 Q14.15 45.35 10.95 44.1 L10.1 43.75 10.15 43.75 9.7 43.6 9.5 43.5 9.3 43.45 9.05 43.35 8.85 43.25 5.0 41.2 4.35 40.75 2.8 39.55 2.7 39.4 2.5 39.25 2.3 39.1 1.9 38.7 0.0 36.6 0.0 33.15 Q1.75 35.75 3.95 37.85 L6.05 39.55 Q8.15 41.15 10.7 42.3 L10.85 42.35 13.55 43.45 Q19.25 45.5 25.4 45.45 L26.25 45.55 28.15 45.55 28.45 45.55 31.5 45.1 31.45 44.95 31.45 44.9 32.35 43.75 32.4 43.7 32.45 43.75 Q32.55 44.5 32.9 45.05 L33.05 45.2 33.4 45.55 33.55 45.7 33.6 45.75 34.0 46.05 35.35 46.45 Q36.25 46.45 36.95 45.95 L37.05 45.9 Q37.25 45.45 37.75 45.15 L37.95 44.85 38.6 43.25 38.6 43.05 38.7 42.3 38.7 42.15 38.7 41.7 38.7 41.6 38.8 41.65 39.5 41.85 40.25 42.2 40.5 42.25 40.55 42.25 41.35 42.3 41.85 42.25 42.75 42.15 45.4 41.2 46.75 40.35 47.8 39.45 48.4 38.8 48.7 38.4 48.9 38.0 49.1 37.65 49.15 37.5 49.2 37.4 49.25 37.3 49.4 36.85 49.65 36.2 Q49.95 35.45 50.2 35.15 L50.2 35.1 50.25 34.95 50.35 34.95 50.4 34.95 M14.15 4.3 L13.2 4.0 Q13.95 3.35 15.0 2.85 16.05 2.35 17.45 1.95 16.95 2.1 17.6 2.5 L20.85 3.75 21.05 3.85 23.7 4.7 24.4 5.0 24.9 5.2 25.7 5.5 27.15 6.15 30.0 7.7 30.1 7.7 30.55 8.0 30.8 8.1 30.85 8.15 31.1 8.25 31.15 8.25 Q32.45 8.95 33.4 9.05 L33.4 9.1 33.1 9.8 32.6 10.5 30.2 9.3 29.25 8.8 29.0 8.65 28.7 8.55 28.6 8.45 25.0 6.65 24.5 6.4 24.3 6.35 23.2 5.9 20.6 5.25 17.7 4.8 17.6 4.8 14.8 4.4 14.15 4.3 M18.6 1.6 L18.6 0.0 19.6 0.0 19.65 0.25 21.25 0.0 25.45 0.0 25.7 0.4 25.45 0.45 24.2 0.55 23.75 0.6 21.0 1.05 18.6 1.6 M27.5 0.0 L31.3 0.0 32.4 0.3 32.55 0.3 32.65 0.6 32.95 1.1 32.85 1.35 31.55 0.85 29.45 0.45 28.0 0.3 27.9 0.3 27.7 0.3 27.5 0.0 M34.5 6.15 L33.95 7.15 33.45 7.55 32.8 7.8 31.9 7.8 31.45 7.6 31.2 7.5 30.9 7.3 30.65 7.15 30.3 6.75 Q29.8 6.2 29.8 5.5 29.7 4.55 30.15 3.9 30.35 3.6 30.65 3.45 L30.65 3.85 Q30.5 5.6 31.2 6.25 L31.55 6.5 32.0 6.7 32.2 6.75 32.95 6.9 34.5 6.15 M34.6 8.95 L35.15 8.9 35.95 8.55 Q35.05 9.75 34.1 10.2 L34.55 9.1 34.6 8.95 M31.85 45.05 L31.5 45.1 31.85 45.05 M31.5 45.1 L32.0 45.7 31.5 45.1 M37.75 47.65 L37.7 47.65 37.55 47.75 37.35 47.8 37.25 47.8 37.35 47.8 37.55 47.75 37.7 47.65 37.75 47.65" fill="#e0b914" fill-rule="evenodd" stroke="none"/>
      <path d="M48.0 16.1 L47.55 16.0 47.65 16.35 48.15 18.2 48.55 19.8 49.55 19.85 Q51.5 20.1 53.45 21.4 L54.25 21.95 54.4 22.1 54.4 25.85 54.35 25.9 Q53.6 24.8 51.85 23.65 L51.65 23.6 49.8 22.55 49.15 22.3 49.0 22.25 48.7 20.4 48.6 20.0 48.55 20.0 47.0 16.1 46.25 14.6 Q47.25 15.2 47.95 16.05 L48.0 16.1 M0.0 19.1 L0.0 13.0 0.65 12.8 1.75 12.55 3.15 12.35 5.35 12.3 6.0 12.3 7.55 10.45 6.2 12.5 Q4.6 15.3 3.45 18.2 L3.0 18.4 3.15 17.9 2.6 18.05 1.2 18.55 0.0 19.1" fill="#2e9510" fill-rule="evenodd" stroke="none"/>
      <path d="M47.55 16.0 L48.0 16.1 Q50.6 16.55 53.35 17.7 L53.5 17.75 54.4 18.15 54.4 19.2 53.1 18.45 50.2 17.2 48.25 16.5 47.65 16.35 47.55 16.0 M0.0 11.1 L0.0 10.05 6.2 9.4 6.65 9.4 8.25 9.5 7.65 10.2 7.55 10.25 7.3 10.25 5.9 10.4 3.15 10.65 3.05 10.65 3.0 10.65 1.4 10.85 0.0 11.1" fill="#e5ff35" fill-rule="evenodd" stroke="none"/>
      <path d="M38.85 15.15 Q39.7 13.25 41.1 13.25 L41.75 13.45 42.2 13.75 43.3 15.25 Q44.3 17.2 44.3 19.15 44.3 20.75 43.5 22.2 42.6 23.75 41.35 23.75 39.85 23.75 38.65 22.5 37.45 21.2 37.6 19.55 37.75 18.1 38.4 16.25 38.4 16.8 38.85 17.3 L39.45 17.65 39.25 18.15 39.1 19.25 39.1 19.7 Q39.15 20.35 39.7 20.9 40.35 21.7 41.2 21.7 41.9 21.7 42.45 20.75 L42.75 19.9 42.9 19.0 42.75 17.9 42.35 16.8 41.7 15.95 41.45 15.75 41.35 15.75 41.0 15.15 Q40.55 14.7 39.95 14.7 39.3 14.7 38.85 15.15 M22.0 12.1 Q22.5 11.85 23.05 11.75 23.15 11.6 23.5 11.55 L25.05 11.55 Q26.25 11.65 27.8 14.35 29.25 17.05 29.3 19.8 L29.3 19.85 Q29.25 21.95 27.9 23.75 26.4 25.7 24.65 25.7 21.8 25.7 20.05 23.75 18.45 22.0 18.45 19.4 18.45 16.9 19.35 14.95 L19.45 14.75 Q19.55 15.4 20.1 15.95 20.6 16.5 21.3 16.6 21.05 17.5 21.05 18.9 21.05 20.4 21.95 21.95 22.6 23.1 23.25 23.4 L23.7 23.45 Q26.8 23.45 26.8 18.7 26.8 17.15 25.95 15.55 25.1 14.0 24.3 14.0 L24.05 14.0 24.0 14.0 Q23.85 13.3 23.3 12.75 22.7 12.15 22.0 12.1" fill="#234312" fill-rule="evenodd" stroke="none"/>
      <path d="M48.55 20.0 L48.6 20.0 48.7 20.4 48.55 20.0 M49.0 22.25 L49.15 22.3 49.8 22.55 51.65 23.6 51.85 23.65 Q53.6 24.8 54.35 25.9 L52.4 27.4 51.75 27.85 51.7 27.75 Q51.55 27.15 51.0 26.5 L50.0 25.65 49.95 25.6 49.9 25.6 49.6 25.45 49.6 25.3 49.55 25.3 49.55 25.2 49.0 22.25 M41.35 15.75 L41.45 15.75 41.7 15.95 42.35 16.8 42.75 17.9 42.9 19.0 42.75 19.9 42.45 20.75 Q41.9 21.7 41.2 21.7 40.35 21.7 39.7 20.9 39.15 20.35 39.1 19.7 L39.1 19.25 39.25 18.15 39.45 17.65 39.95 17.75 Q40.55 17.75 41.0 17.3 L41.45 16.25 41.35 15.75 M49.7 27.3 L49.65 26.8 49.65 25.65 49.8 27.4 49.7 27.3 M0.0 23.2 L0.0 19.1 1.2 18.55 2.6 18.05 3.15 17.9 3.0 18.4 3.45 18.2 Q2.35 20.95 1.7 23.85 L1.35 24.0 1.75 22.25 0.65 22.8 0.0 23.2 M24.0 14.0 L24.05 14.0 24.3 14.0 Q25.1 14.0 25.95 15.55 26.8 17.15 26.8 18.7 26.8 23.45 23.7 23.45 L23.25 23.4 Q22.6 23.1 21.95 21.95 21.05 20.4 21.05 18.9 21.05 17.5 21.3 16.6 L21.7 16.65 Q22.65 16.65 23.3 15.95 24.0 15.3 24.0 14.35 L24.0 14.0" fill="#25790d" fill-rule="evenodd" stroke="none"/>
      <path d="M49.75 27.85 L49.7 27.3 49.8 27.4 49.65 25.65 49.6 25.45 49.9 25.6 49.95 25.6 50.0 25.65 51.0 26.5 Q51.55 27.15 51.7 27.75 L51.75 27.85 51.7 27.9 51.4 28.05 49.85 29.1 49.9 28.65 49.9 28.6 49.85 28.05 49.8 28.35 49.75 27.85 M0.0 25.05 L0.0 23.2 0.65 22.8 1.75 22.25 1.35 24.0 1.7 23.85 1.55 24.3 1.4 25.15 1.35 25.4 1.0 25.3 0.2 25.1 0.0 25.05" fill="#315e19" fill-rule="evenodd" stroke="none"/>
      <path d="M50.85 41.65 L51.0 42.1 Q51.55 43.5 52.65 44.25 L52.95 44.45 54.4 44.95 54.4 48.1 54.35 48.2 53.45 49.7 53.9 48.05 Q54.4 46.5 52.0 45.4 L51.15 46.05 50.85 46.2 48.5 47.8 47.05 48.75 48.3 47.3 48.65 46.9 50.0 45.4 50.35 45.05 42.2 47.2 41.95 47.05 41.8 46.9 41.75 46.9 40.5 45.95 41.85 45.4 45.55 44.65 47.35 44.05 49.05 43.15 50.35 42.1 50.85 41.65 M39.65 53.0 L36.4 53.0 36.4 52.9 36.55 51.4 36.8 49.75 36.65 48.85 Q36.65 48.7 36.25 48.7 L35.6 48.85 35.3 48.95 35.45 48.0 36.4 47.9 36.95 47.85 37.25 47.8 37.7 49.8 37.75 50.0 37.8 50.2 37.8 50.45 38.2 51.75 Q39.95 52.25 41.65 50.6 L41.75 50.5 41.95 50.3 41.9 51.2 42.05 51.2 41.9 52.5 Q41.75 52.85 41.15 52.9 L39.65 53.0 M30.75 53.0 L25.0 53.0 25.6 52.55 26.5 51.95 28.7 50.35 25.75 50.9 25.3 51.0 24.05 51.25 23.75 51.25 20.0 51.55 19.1 51.55 15.25 51.05 14.15 50.75 9.6 49.25 8.3 48.75 7.35 48.45 6.35 47.95 4.25 46.85 4.2 46.85 3.9 46.7 3.4 46.4 2.85 46.05 2.25 45.65 1.5 45.1 0.0 43.8 0.0 41.35 0.65 41.95 1.75 42.9 2.5 43.45 2.8 43.65 5.65 45.4 5.65 45.45 6.8 46.05 11.0 47.75 17.15 49.2 18.0 49.3 21.0 49.55 22.1 49.55 22.9 49.55 26.6 49.25 29.3 48.6 31.05 47.85 32.0 47.8 31.45 48.7 31.4 48.8 31.2 49.2 30.2 50.45 29.85 50.75 28.9 51.3 28.7 51.4 29.0 51.75 30.25 52.7 30.75 53.0 M0.0 46.65 L0.0 45.9 0.3 46.2 0.85 46.75 1.9 47.6 2.3 47.9 2.4 47.95 3.5 48.7 2.85 48.45 2.3 48.2 2.2 48.15 2.15 48.15 1.75 47.9 0.1 46.75 0.0 46.65 M10.1 43.75 L9.7 43.6 10.15 43.75 10.1 43.75" fill="#526b27" fill-rule="evenodd" stroke="none"/>
      <path d="M17.05 0.3 L17.0 0.3 14.25 1.65 Q10.55 3.35 7.8 3.35 6.7 3.35 5.2 2.6 L4.4 2.15 5.15 1.9 9.75 0.0 10.45 0.0 10.95 0.15 Q11.85 0.4 12.35 0.7 L12.75 0.95 13.9 0.65 13.95 0.6 15.25 0.2 16.1 0.0 16.95 0.0 17.05 0.3 M11.6 0.0 L12.9 0.0 12.3 0.15 11.6 0.0" fill="#40af25" fill-rule="evenodd" stroke="none"/>
      <path d="M10.45 0.0 L11.6 0.0 12.3 0.15 12.9 0.0 14.05 0.0 13.35 0.2 14.35 0.0 16.1 0.0 15.25 0.2 13.95 0.6 13.9 0.65 12.75 0.95 12.35 0.7 Q11.85 0.4 10.95 0.15 L10.45 0.0 M16.95 0.0 L17.6 0.0 17.05 0.3 16.95 0.0" fill="#1b890c" fill-rule="evenodd" stroke="none"/>
      <path d="M11.25 9.95 Q11.05 10.5 10.6 10.5 L10.2 10.45 10.0 10.4 10.05 9.9 10.1 9.8 10.15 9.6 10.85 9.65 11.25 9.95 M5.05 22.35 L4.95 22.15 4.85 21.75 4.9 21.3 5.35 21.05 5.5 21.25 5.65 21.7 5.6 22.1 5.5 22.35 5.05 22.35" fill="#ffc451" fill-rule="evenodd" stroke="none"/>
      <path d="M47.55 16.0 L48.0 16.1 Q50.6 16.55 53.35 17.7 L53.5 17.75 54.4 18.15 M23.55 34.75 L23.6 34.75 24.45 35.25 25.5 35.9 26.25 36.35 26.55 36.6 26.75 36.7 28.1 37.6 29.0 38.25 Q30.3 39.15 31.9 41.0 L33.1 42.5 33.15 42.5 33.2 42.55 33.35 42.75 M54.4 28.6 L53.15 29.5 51.55 31.5 Q51.15 32.25 50.85 33.1 50.55 34.0 50.4 34.95 M50.85 41.65 L51.0 42.1 Q51.55 43.5 52.65 44.25 L52.95 44.45 54.4 44.95 M54.4 48.1 L54.35 48.2 53.45 49.7 52.65 50.75 50.25 53.0 M2.4 53.0 L0.75 52.1 0.0 51.65 M0.0 10.05 L6.2 9.4 6.65 9.4 8.25 9.5 M49.85 29.1 L49.85 29.15 48.8 29.75 48.6 29.9 47.15 30.8 46.05 31.45 Q43.6 32.7 41.65 34.4 L40.9 35.0 40.25 35.7 39.7 36.25 Q38.8 37.2 38.05 38.5 L37.3 39.9 36.65 41.45 M17.05 0.3 L17.0 0.3 14.25 1.65 Q10.55 3.35 7.8 3.35 6.7 3.35 5.2 2.6 L4.4 2.15 2.15 0.5 1.7 0.0 M17.6 0.0 L17.05 0.3 M1.35 25.4 L4.65 26.4 7.9 27.55 9.55 28.15 10.0 28.35 10.1 28.35 11.5 28.9 13.4 29.7 14.15 30.0 16.55 31.1 19.65 32.55 21.85 33.75 23.55 34.75 M1.0 25.3 L1.35 25.4" fill="none" stroke="#305811" stroke-linecap="round" stroke-linejoin="round" stroke-width="1.0"/>
      <path d="M45.65 25.45 L46.55 25.35 Q47.45 24.95 47.6 24.35 L47.65 22.85 Q47.65 19.85 45.85 16.35 L45.75 16.1 44.55 14.25 Q43.0 12.1 41.4 12.1 L40.8 12.25 40.35 12.4 40.25 12.45 40.1 12.5 40.35 12.4 M45.65 25.45 L43.55 25.75 39.6 26.05 38.25 26.0 38.05 25.95 37.65 25.8 Q36.15 24.8 36.15 21.65 36.15 19.9 37.0 16.8 37.85 13.75 40.1 12.5 M46.25 14.6 L47.0 16.1 48.55 20.0 48.7 20.4 M38.4 16.25 Q37.75 18.1 37.6 19.55 37.45 21.2 38.65 22.5 39.85 23.75 41.35 23.75 42.6 23.75 43.5 22.2 44.3 20.75 44.3 19.15 44.3 17.2 43.3 15.25 L42.2 13.75 41.75 13.45 41.1 13.25 Q39.7 13.25 38.85 15.15 M46.25 14.6 L44.05 10.95 Q41.4 6.95 38.0 4.5 L36.7 7.35 36.1 8.4 35.95 8.55 Q35.05 9.75 34.1 10.2 L32.75 10.5 32.6 10.5 30.2 9.3 29.25 8.8 29.0 8.65 28.7 8.55 28.6 8.45 25.0 6.65 24.5 6.4 24.3 6.35 23.2 5.9 20.6 5.25 17.7 4.8 17.6 4.8 14.8 4.4 14.15 4.3 13.2 4.0 Q13.95 3.35 15.0 2.85 16.05 2.35 17.45 1.95 L17.95 1.8 18.25 1.7 18.3 1.65 18.6 1.6 18.6 0.0 M18.05 11.85 Q20.5 10.4 23.2 10.2 L23.7 10.2 Q27.35 10.2 29.0 13.55 30.25 16.2 30.4 19.25 30.55 22.35 30.2 24.35 29.8 26.4 28.65 27.2 27.5 27.95 25.25 28.1 L20.25 28.3 19.05 28.25 16.05 27.75 13.6 27.05 Q10.05 25.95 10.2 24.1 L10.25 23.8 Q12.0 16.85 16.2 13.2 L18.05 11.85 M49.75 27.85 L49.7 27.3 49.65 26.8 49.65 25.65 M49.6 25.45 L49.6 25.3 M50.4 34.95 L52.0 35.6 52.4 35.9 52.75 36.1 53.1 36.35 53.4 36.7 53.3 37.05 53.1 37.7 53.1 37.75 52.95 38.2 52.6 39.05 51.35 41.05 51.0 41.5 50.85 41.65 50.35 42.1 49.05 43.15 47.35 44.05 45.55 44.65 41.85 45.4 41.25 45.5 40.15 45.65 40.1 45.65 39.8 45.35 39.7 45.3 39.5 45.15 39.55 45.1 39.6 45.0 40.3 43.45 40.4 43.3 40.5 42.25 40.25 42.2 39.5 41.85 38.8 41.65 38.7 41.6 38.45 41.55 38.1 41.5 37.7 41.45 36.95 41.45 36.65 41.45 34.8 41.85 Q34.7 41.9 34.55 42.0 34.05 42.15 33.65 42.5 L33.35 42.75 33.1 42.9 33.1 42.95 32.75 43.3 32.4 43.7 32.35 43.75 31.45 44.9 31.45 44.95 31.5 45.1 31.85 45.05 M7.55 10.45 L7.6 10.4 8.1 9.75 9.05 8.6 Q11.3 6.05 14.15 4.3 M32.45 0.0 L32.55 0.25 32.55 0.3 32.65 0.6 32.95 1.1 M32.85 1.35 L34.5 1.95 36.15 2.75 36.55 3.05 37.5 3.6 38.05 4.05 38.0 4.5 M49.8 28.35 L49.8 28.9 49.85 29.15 M49.8 28.35 L49.75 27.85 M50.2 35.15 L50.2 35.1 50.25 34.95 50.35 34.95 50.4 34.95 M49.25 37.3 L49.4 36.85 49.65 36.2 Q49.95 35.45 50.2 35.15 M49.25 37.3 L49.2 37.4 49.15 37.5 49.1 37.65 48.9 38.0 48.7 38.4 48.4 38.8 47.8 39.45 46.75 40.35 45.4 41.2 42.75 42.15 41.85 42.25 41.35 42.3 40.55 42.25 40.5 42.25 M49.1 37.65 L48.85 38.0 48.4 38.8 M42.2 47.2 L41.95 47.05 41.8 46.9 41.75 46.9 40.5 45.95 40.45 45.9 40.1 45.65 M42.75 47.6 L42.2 47.2 M42.75 47.6 L42.8 47.6 43.65 48.0 41.95 50.3 41.75 50.5 41.65 50.6 Q39.95 52.25 38.2 51.75 L37.8 50.45 37.8 50.2 37.75 50.0 37.7 49.8 37.25 47.8 37.35 47.8 37.55 47.75 37.7 47.65 37.75 47.65 37.95 47.4 M31.45 3.1 L31.7 3.05 32.35 3.05 33.05 3.25 34.2 4.4 34.3 4.7 34.45 4.95 34.5 5.35 34.5 6.15 33.95 7.15 33.45 7.55 32.8 7.8 31.9 7.8 31.45 7.6 31.2 7.5 30.9 7.3 30.65 7.15 30.3 6.75 Q29.8 6.2 29.8 5.5 29.7 4.55 30.15 3.9 30.35 3.6 30.65 3.45 31.0 3.2 31.45 3.1 M28.0 0.3 L29.45 0.45 31.55 0.85 32.85 1.35 M28.0 0.3 L27.9 0.3 27.7 0.3 25.7 0.4 25.45 0.45 24.2 0.55 23.75 0.6 21.0 1.05 18.6 1.6 M19.45 14.75 L19.35 14.95 Q18.45 16.9 18.45 19.4 18.45 22.0 20.05 23.75 21.8 25.7 24.65 25.7 26.4 25.7 27.9 23.75 29.25 21.95 29.3 19.85 L29.3 19.8 Q29.25 17.05 27.8 14.35 26.25 11.65 25.05 11.55 L23.5 11.55 Q23.15 11.6 23.05 11.75 22.5 11.85 22.0 12.1 M3.45 18.2 Q4.6 15.3 6.2 12.5 L7.55 10.45 M1.7 23.85 Q2.35 20.95 3.45 18.2 M1.7 23.85 L1.55 24.3 1.4 25.15 1.35 25.4 M0.0 41.35 L0.65 41.95 1.75 42.9 2.5 43.45 2.8 43.65 5.65 45.4 5.65 45.45 6.8 46.05 11.0 47.75 17.15 49.2 18.0 49.3 21.0 49.55 22.1 49.55 22.9 49.55 26.6 49.25 29.3 48.6 31.05 47.85 31.45 47.6 31.6 47.5 32.3 47.0 32.5 46.9 32.35 47.05 32.0 47.8 31.45 48.7 31.4 48.8 31.2 49.2 30.2 50.45 29.85 50.75 28.9 51.3 28.7 51.4 29.0 51.75 30.25 52.7 30.75 53.0 M31.5 45.1 L28.45 45.55 28.15 45.55 26.25 45.55 25.4 45.45 Q19.25 45.5 13.55 43.45 L10.85 42.35 10.7 42.3 Q8.15 41.15 6.05 39.55 L3.95 37.85 Q1.75 35.75 0.0 33.15 M35.4 36.3 L36.3 36.25 36.3 35.7 Q35.95 32.9 35.05 30.8 L34.0 34.05 33.6 35.7 Q33.6 36.3 33.75 36.4 L34.55 36.4 35.4 36.3 M32.0 45.7 L31.5 45.1 M33.6 47.25 L32.85 46.65 32.75 46.5 32.5 46.85 32.5 46.9 M33.6 47.25 L34.55 48.05 34.65 48.05 34.85 48.05 35.05 48.05 35.45 48.0 36.4 47.9 36.95 47.85 37.25 47.8 M38.0 47.35 L38.35 46.9 38.9 46.2 39.25 45.65 39.45 45.35 39.45 45.25 39.5 45.15 M32.75 46.5 L32.0 45.7 M35.3 48.95 L35.45 48.0 M34.3 52.5 L34.5 51.85 34.7 51.3 35.3 48.95 M34.15 53.0 L34.3 52.5" fill="none" stroke="#410000" stroke-linecap="round" stroke-linejoin="round" stroke-width="1.0"/>
    </g>
    <g id="shape2" transform="matrix(1.0, 0.0, 0.0, 1.0, 0.0, 0.0)">
      <path d="M50.5 0.0 Q53.95 0.0 53.95 3.3 L53.95 50.15 Q53.95 53.4 50.5 53.4 L3.3 53.4 Q0.0 53.4 0.0 50.15 L0.0 3.3 Q0.0 0.0 3.3 0.0 L50.5 0.0" fill="#000000" fill-opacity="0.003921569" fill-rule="evenodd" stroke="none"/>
    </g>
  </defs>
</svg>
