<?xml version="1.0" encoding="UTF-8" standalone="no"?>
<svg xmlns:ffdec="https://www.free-decompiler.com/flash" xmlns:xlink="http://www.w3.org/1999/xlink" ffdec:objectType="frame" height="54.95px" width="55.85px" xmlns="http://www.w3.org/2000/svg">
  <g transform="matrix(1.0, 0.0, 0.0, 1.0, 0.95, 0.95)">
    <clipPath id="clipPath0" transform="matrix(1.0, 0.0, 0.0, 1.0, 0.0, 0.0)">
      <path d="M50.5 0.0 Q53.95 0.0 53.95 3.3 L53.95 50.15 Q53.95 53.4 50.5 53.4 L3.3 53.4 Q0.0 53.4 0.0 50.15 L0.0 3.3 Q0.0 0.0 3.3 0.0 L50.5 0.0" fill="#000000" fill-rule="evenodd" stroke="none"/>
    </clipPath>
    <g clip-path="url(#clipPath0)">
      <use ffdec:characterId="2" height="54.95" transform="matrix(1.0, 0.0, 0.0, 1.0, -0.95, -0.95)" width="55.85" xlink:href="#shape1"/>
    </g>
    <use ffdec:characterId="3" height="53.4" transform="matrix(1.0, 0.0, 0.0, 1.0, 0.0, 0.0)" width="53.95" xlink:href="#shape2"/>
  </g>
  <defs>
    <g id="shape1" transform="matrix(1.0, 0.0, 0.0, 1.0, 0.95, 0.95)">
      <path d="M12.5 -0.45 L14.1 -0.45 14.25 -0.2 14.85 0.55 14.95 0.7 Q16.6 2.55 18.65 3.45 20.2 4.1 22.0 4.15 L22.1 4.25 24.25 6.4 24.65 6.8 25.45 7.45 25.8 7.75 26.2 8.05 24.2 7.8 23.0 7.75 19.05 8.0 Q16.6 8.3 14.65 9.1 L12.85 9.95 12.3 9.45 11.9 9.1 11.9 7.9 11.9 5.9 11.6 1.9 11.55 1.5 11.35 0.65 12.5 -0.45 M6.45 40.55 L5.95 40.15 6.65 40.2 6.45 40.55 M6.3 15.55 L6.4 15.9 5.5 19.4 Q4.9 22.35 4.9 23.75 L4.9 24.15 Q5.0 26.3 6.0 28.15 L6.8 30.1 6.95 30.65 7.1 31.85 6.95 33.2 Q6.7 34.65 5.85 35.6 L4.7 36.6 3.35 35.2 3.7 34.1 3.7 34.0 3.6 33.6 3.5 33.6 3.35 33.45 3.55 33.5 4.25 33.65 4.6 33.7 5.05 33.3 Q6.05 32.3 6.05 30.5 L5.95 29.9 5.55 29.5 5.45 29.4 4.8 28.6 3.35 26.6 2.55 25.4 1.65 23.8 1.2 23.0 Q3.5 22.05 4.95 19.4 L5.9 17.0 6.3 15.55 M11.3 23.15 L11.35 23.2 11.8 23.65 12.35 24.15 12.5 24.35 11.4 24.95 10.85 25.25 10.2 25.6 10.4 25.15 10.85 24.2 11.3 23.15" fill="#62246d" fill-rule="evenodd" stroke="none"/>
      <path d="M26.2 8.05 L25.8 7.75 25.45 7.45 28.6 4.9 31.5 5.95 32.05 6.15 32.4 6.35 32.25 6.6 30.9 9.3 30.15 9.25 29.25 9.15 Q28.15 8.45 26.25 8.1 L26.2 8.05 M22.0 4.15 Q20.2 4.1 18.65 3.45 16.6 2.55 14.95 0.7 L14.85 0.55 14.25 -0.2 14.1 -0.45 20.4 -0.45 Q19.85 0.45 19.7 1.35 L19.7 1.55 22.0 4.15 M5.9 13.05 Q7.25 13.05 8.35 11.85 L8.55 12.4 8.6 12.5 8.6 12.55 8.7 12.75 8.95 13.25 9.05 13.45 8.9 13.6 6.45 15.2 6.35 15.2 6.25 15.25 5.9 13.05" fill="#9e3c98" fill-rule="evenodd" stroke="none"/>
      <path d="M11.35 0.65 L11.55 1.5 11.6 1.9 11.9 5.9 11.9 7.9 11.9 9.1 11.0 8.25 10.9 8.15 10.4 7.7 Q10.85 5.7 10.65 3.3 L10.65 1.55 11.35 0.65 M25.45 7.45 L24.65 6.8 24.25 6.4 22.1 4.25 22.0 4.15 19.7 1.55 19.7 1.35 Q19.85 0.45 20.4 -0.45 L23.55 -0.45 23.5 -0.05 Q23.5 0.85 24.65 2.4 L25.8 3.7 25.95 3.95 26.4 4.35 28.6 4.9 25.45 7.45 M1.3 9.55 L1.4 9.65 4.9 12.55 Q5.4 12.9 5.85 13.05 L5.9 13.05 6.25 15.25 4.1 15.9 4.0 15.9 3.8 15.7 3.4 15.15 2.5 13.75 Q1.35 11.35 1.3 9.55" fill="#dd63b8" fill-rule="evenodd" stroke="none"/>
      <path d="M47.2 11.9 L47.35 12.2 47.65 12.75 Q50.65 18.3 51.8 21.4 L51.5 22.0 50.55 23.75 49.45 25.4 49.3 25.65 48.8 26.35 48.1 27.25 47.3 28.25 46.3 29.5 45.0 30.95 46.05 27.45 46.05 27.4 46.45 26.2 47.25 22.9 47.35 22.35 47.4 22.2 47.4 22.0 47.5 21.3 47.3 20.35 46.95 17.45 46.85 17.15 46.85 17.0 46.85 16.95 46.65 15.95 47.2 15.2 47.75 14.5 47.4 12.7 47.2 11.9" fill="#9cabcc" fill-rule="evenodd" stroke="none"/>
      <path d="M32.65 5.85 L32.75 5.7 33.55 4.3 33.65 4.15 34.45 2.8 34.7 2.4 Q35.85 0.6 36.7 -0.45 L37.55 -0.45 Q36.5 1.35 35.3 4.3 L35.2 4.5 34.75 5.75 34.35 6.65 34.2 7.15 34.15 7.3 34.0 7.55 33.3 9.6 33.2 9.85 33.15 10.15 32.25 13.05 32.3 13.1 32.25 13.25 32.2 13.5 31.65 15.8 31.5 16.7 31.55 16.65 31.45 18.4 31.55 18.5 32.8 20.05 32.9 20.15 34.0 21.55 34.95 22.6 38.4 26.4 39.9 27.95 40.25 28.25 40.5 28.55 41.5 29.4 44.3 31.7 44.15 31.85 43.95 32.05 41.5 30.65 40.95 30.35 40.75 30.15 41.65 30.45 38.25 27.7 36.3 25.75 34.45 23.85 31.05 20.1 29.9 18.8 29.9 18.35 30.15 15.75 Q30.35 14.2 30.7 12.9 L31.4 10.2 31.7 9.4 32.6 6.8 32.7 6.5 32.95 5.95 32.65 5.85 M38.2 -0.45 L39.05 -0.45 40.25 3.35 41.25 8.0 41.85 11.5 42.0 12.5 42.25 15.4 42.25 15.55 42.2 16.65 Q42.05 17.95 41.55 18.85 L41.25 19.3 Q40.3 20.35 38.45 20.35 36.7 20.35 34.3 18.75 L33.75 18.4 32.6 17.6 32.55 16.75 32.55 15.85 32.55 15.15 32.6 13.6 33.6 14.6 Q34.4 15.1 35.95 15.1 38.45 15.1 39.2 12.15 L39.4 11.05 39.4 11.0 39.45 10.3 39.5 9.0 38.75 3.7 Q38.3 0.95 38.2 -0.45 M8.0 11.1 Q5.25 4.65 4.85 1.0 L5.15 0.95 6.9 5.8 Q8.0 8.25 9.35 10.4 L10.5 12.1 10.8 12.4 10.95 12.65 10.95 13.0 Q10.95 14.2 11.3 15.5 L10.75 14.8 9.65 13.35 9.6 13.3 9.5 13.15 8.95 12.45 8.75 12.15 8.45 11.75 8.0 11.1 M27.55 18.7 L27.5 18.8 28.65 20.1 24.55 20.15 24.1 20.15 23.95 19.4 24.45 18.5 25.0 18.55 27.55 18.7 M36.6 27.25 L37.8 28.15 40.75 30.15 34.95 28.55 31.4 27.5 27.25 26.2 27.1 26.15 26.55 25.15 26.15 24.45 28.25 25.0 31.9 25.95 36.6 27.25 M15.55 22.5 L14.95 22.25 13.9 21.95 13.1 21.7 12.7 20.9 12.4 20.3 11.55 18.75 11.55 18.65 12.15 18.3 12.6 19.05 13.3 20.0 14.05 21.1 14.2 21.15 14.35 21.2 14.6 21.3 15.55 22.5" fill="#4b4d8a" fill-rule="evenodd" stroke="none"/>
      <path d="M32.4 6.35 L32.65 5.85 32.95 5.95 32.7 6.5 32.6 6.8 31.7 9.4 31.4 10.2 30.7 12.9 Q30.35 14.2 30.15 15.75 L29.9 18.35 29.9 18.8 31.05 20.1 34.45 23.85 36.3 25.75 38.25 27.7 41.65 30.45 40.75 30.15 37.8 28.15 36.6 27.25 35.55 26.45 33.0 24.25 30.55 22.0 30.25 21.75 30.0 21.5 29.85 21.3 28.65 20.1 27.5 18.8 27.55 18.7 27.75 18.05 28.15 16.8 28.15 16.75 28.5 15.7 28.6 15.45 28.7 15.15 28.8 14.8 29.55 12.75 30.65 9.95 30.9 9.3 32.25 6.6 32.4 6.35 M37.55 -0.45 L38.2 -0.45 Q38.3 0.95 38.75 3.7 L39.5 9.0 39.45 10.3 39.4 11.0 39.4 11.05 39.2 12.15 Q38.45 15.1 35.95 15.1 34.4 15.1 33.6 14.6 L32.6 13.6 32.6 13.35 33.1 10.35 32.75 11.45 32.3 13.1 32.25 13.05 33.15 10.15 33.2 9.85 33.3 9.6 34.0 7.55 34.15 7.3 34.2 7.15 34.35 6.65 34.75 5.75 35.2 4.5 35.3 4.3 Q36.5 1.35 37.55 -0.45" fill="#6d76ba" fill-rule="evenodd" stroke="none"/>
      <path d="M39.25 -0.45 L39.55 -0.45 Q43.0 4.2 47.2 11.9 L47.4 12.7 47.75 14.5 47.2 15.2 46.65 15.95 46.85 16.95 46.85 17.0 46.85 17.15 46.95 17.45 47.3 20.35 47.5 21.3 47.4 22.0 47.4 22.2 47.35 22.35 47.25 22.9 46.45 26.2 46.05 27.4 46.05 27.45 45.0 30.95 44.35 31.65 44.8 29.8 45.35 27.5 45.35 27.4 45.6 26.15 46.1 22.6 46.2 21.35 46.2 21.0 46.25 20.15 46.25 20.0 46.25 19.85 45.65 17.25 44.15 11.95 42.8 8.0 42.6 7.5 Q40.75 2.3 39.25 -0.45" fill="#edfff5" fill-rule="evenodd" stroke="none"/>
      <path d="M39.05 -0.45 L39.25 -0.45 Q40.75 2.3 42.6 7.5 L42.8 8.0 44.15 11.95 45.65 17.25 46.25 19.85 46.25 20.0 46.25 20.15 46.2 21.0 46.2 21.35 46.1 22.6 45.6 26.15 45.35 27.4 45.35 27.5 44.8 29.8 44.35 31.65 44.3 31.7 41.5 29.4 40.5 28.55 40.25 28.25 39.9 27.95 38.4 26.4 34.95 22.6 34.0 21.55 32.9 20.15 32.8 20.05 31.55 18.5 31.45 18.4 31.55 16.65 31.5 16.7 31.65 15.8 32.2 13.5 32.25 13.25 32.3 13.1 32.75 11.45 33.1 10.35 32.6 13.35 32.6 13.6 32.55 15.15 32.55 15.85 32.55 16.75 32.6 17.6 33.75 18.4 34.3 18.75 Q36.7 20.35 38.45 20.35 40.3 20.35 41.25 19.3 L41.55 18.85 Q42.05 17.95 42.2 16.65 L42.25 15.55 42.25 15.4 42.0 12.5 41.85 11.5 41.25 8.0 40.25 3.35 39.05 -0.45 M8.35 11.85 L8.0 11.1 8.45 11.75 8.75 12.15 8.95 12.45 9.5 13.15 9.6 13.3 9.65 13.35 10.75 14.8 11.3 15.5 12.35 16.75 14.2 18.75 15.05 19.55 15.45 19.6 20.0 20.05 21.2 20.1 22.25 20.15 24.1 20.15 24.55 20.15 28.65 20.1 29.85 21.3 30.0 21.5 30.25 21.75 30.55 22.0 33.0 24.25 35.55 26.45 36.6 27.25 31.9 25.95 28.25 25.0 26.15 24.45 26.0 24.4 23.5 23.8 21.0 23.2 19.65 22.9 19.15 22.8 17.15 22.2 14.6 21.3 14.35 21.2 14.2 21.15 14.05 21.1 13.3 20.0 12.6 19.05 12.15 18.3 11.9 17.95 10.2 15.2 9.25 13.55 9.15 13.4 8.75 12.75 8.6 12.55 8.6 12.5 8.55 12.4 8.35 11.85" fill="#342f6f" fill-rule="evenodd" stroke="none"/>
      <path d="M51.65 29.65 Q52.95 29.1 54.15 28.7 L54.35 28.6 54.4 28.6 54.4 30.35 Q52.55 30.1 51.65 29.65" fill="#944296" fill-rule="evenodd" stroke="none"/>
      <path d="M51.4 29.85 Q50.3 30.25 50.75 30.05 L51.65 29.65 Q52.55 30.1 54.4 30.35 L54.4 32.6 49.8 32.75 49.7 30.75 51.4 29.85 M54.4 34.8 L54.4 36.35 50.55 36.45 49.95 36.5 49.95 35.65 49.95 35.3 49.95 34.8 53.05 34.7 53.15 34.7 54.4 34.8" fill="#632b72" fill-rule="evenodd" stroke="none"/>
      <path d="M49.7 30.55 L51.4 29.85 49.7 30.75 49.7 30.55 M54.4 32.6 L54.4 34.8 53.15 34.7 53.05 34.7 49.95 34.8 49.8 33.75 49.8 33.65 49.8 32.75 54.4 32.6 M50.7 48.2 L50.0 47.15 49.7 46.75 47.65 44.65 48.2 43.6 48.3 43.45 49.25 44.35 49.6 44.75 50.0 45.55 50.4 46.8 50.7 48.2" fill="#431e54" fill-rule="evenodd" stroke="none"/>
      <path d="M49.3 25.65 L49.45 27.15 49.45 27.5 48.7 28.55 48.55 28.75 47.35 30.15 46.15 31.5 44.9 32.85 44.25 33.45 44.2 33.5 43.25 33.1 41.95 32.5 40.7 32.0 35.6 30.3 35.45 30.25 34.1 29.9 32.25 29.35 27.85 28.25 26.75 28.0 26.65 28.0 26.35 27.9 25.2 27.65 24.65 27.5 21.15 26.8 19.5 26.5 19.35 26.45 18.3 26.3 16.4 26.0 14.45 25.75 12.35 25.55 12.2 25.55 12.6 24.5 12.65 24.35 12.75 24.1 13.9 21.95 14.95 22.25 15.55 22.5 Q17.15 22.95 18.9 23.55 L19.2 23.65 19.85 23.85 23.2 24.9 24.65 25.4 27.1 26.15 27.25 26.2 31.4 27.5 34.95 28.55 40.75 30.15 40.95 30.35 41.5 30.65 43.95 32.05 44.15 31.85 44.3 31.7 44.35 31.65 45.0 30.95 46.3 29.5 47.3 28.25 48.1 27.25 48.8 26.35 49.3 25.65" fill="#16002f" fill-rule="evenodd" stroke="none"/>
      <path d="M49.5 27.85 L49.65 30.15 49.7 30.55 49.7 30.75 49.8 32.75 49.8 33.65 49.8 33.75 49.65 33.1 49.35 32.8 49.6 32.6 49.25 31.5 48.25 33.6 48.3 32.9 48.4 31.55 48.4 31.2 48.45 30.2 48.55 29.0 49.5 27.85 M47.65 44.65 L47.4 45.1 46.1 47.15 45.6 47.9 44.75 49.0 43.95 49.3 42.25 49.95 38.4 51.0 38.15 51.05 38.05 51.05 37.9 51.1 37.7 51.15 37.55 51.15 36.3 51.2 36.0 50.85 36.0 50.8 37.95 50.15 38.05 50.1 38.6 49.9 38.95 49.75 40.4 49.15 41.25 48.8 41.3 48.75 41.35 48.75 44.5 47.0 44.6 46.9 45.35 45.35 46.1 43.65 46.5 42.75 46.7 42.35 47.1 41.3 47.25 40.8 47.5 40.1 48.15 41.05 48.65 41.15 49.25 40.95 48.9 42.05 48.9 42.15 48.3 43.45 48.2 43.6 47.65 44.65 M37.9 51.1 L37.55 51.15 37.9 51.1" fill="#dc88f9" fill-rule="evenodd" stroke="none"/>
      <path d="M33.7 51.25 L28.05 49.5 27.3 49.25 26.0 48.75 26.15 48.2 27.2 48.3 27.75 48.35 28.05 48.4 28.4 48.45 28.6 48.55 28.65 48.45 29.9 48.55 35.0 49.95 35.7 49.85 37.35 49.55 37.65 49.4 37.85 49.35 40.25 48.25 40.3 48.45 40.9 47.95 41.5 47.45 Q42.7 46.25 44.15 44.05 L44.55 43.45 44.8 43.05 45.55 41.7 46.0 40.6 46.1 40.35 46.1 39.1 45.9 37.8 45.65 36.75 45.35 35.8 45.25 35.6 45.1 35.2 44.85 34.65 44.75 34.3 44.65 34.15 44.65 34.1 45.85 32.5 46.05 32.3 46.5 31.7 48.55 29.0 48.45 30.2 48.4 31.2 48.4 31.55 48.3 32.9 48.25 33.6 47.85 34.35 47.25 35.6 46.9 36.45 47.05 36.75 47.1 36.55 47.3 36.6 47.35 36.75 47.35 36.95 47.4 37.15 47.05 37.2 47.2 39.0 47.3 39.35 47.35 39.65 47.5 40.1 47.25 40.8 47.1 41.3 46.7 42.35 46.5 42.75 46.1 43.65 45.35 45.35 44.6 46.9 44.5 47.0 41.35 48.75 41.3 48.75 41.25 48.8 40.4 49.15 38.95 49.75 38.6 49.9 38.05 50.1 37.95 50.15 36.0 50.8 35.8 50.55 35.45 50.7 34.7 51.0 33.85 50.8 33.7 51.25" fill="#a65dd1" fill-rule="evenodd" stroke="none"/>
      <path d="M49.45 27.5 L49.5 27.85 48.55 29.0 46.5 31.7 46.05 32.3 45.85 32.5 44.65 34.1 44.65 34.15 44.75 34.3 44.85 34.65 45.1 35.2 45.25 35.6 45.35 35.8 45.65 36.75 45.9 37.8 46.1 39.1 46.1 40.35 46.0 40.6 45.55 41.7 44.8 43.05 44.55 43.45 44.15 44.05 Q42.7 46.25 41.5 47.45 L40.9 47.95 40.3 48.45 40.25 48.25 37.85 49.35 37.65 49.4 37.35 49.55 35.7 49.85 35.0 49.95 29.9 48.55 30.1 48.55 31.2 48.65 32.8 48.7 33.7 48.7 33.3 48.55 32.7 48.35 30.2 47.35 Q27.3 44.75 26.3 42.6 L29.75 43.1 30.9 43.05 33.55 42.5 Q35.4 41.95 36.7 41.1 L36.8 41.0 36.85 40.9 37.1 37.4 37.2 36.3 37.35 34.85 37.9 34.5 39.5 33.55 43.0 34.3 44.2 34.5 44.3 34.5 44.4 34.4 44.55 34.2 44.65 34.1 44.45 33.65 44.2 33.5 44.25 33.45 44.9 32.85 46.15 31.5 47.35 30.15 48.55 28.75 48.7 28.55 49.45 27.5 M26.9 47.55 L27.35 47.7 27.85 47.85 29.9 48.55 28.65 48.45 28.4 48.45 28.05 48.4 27.75 48.35 27.2 48.3 26.15 48.2 25.15 48.05 23.75 47.9 23.05 47.6 22.95 47.6 22.3 47.35 21.65 47.05 20.35 46.45 20.15 46.4 19.4 46.0 18.3 45.4 18.25 45.35 18.1 45.35 17.0 44.7 16.5 44.35 16.3 44.15 16.1 43.95 15.65 43.45 15.4 43.25 15.0 42.8 15.15 42.8 15.3 42.85 14.2 40.75 14.55 40.8 13.85 39.8 13.25 38.8 12.35 36.95 12.35 36.9 16.1 40.95 16.9 41.7 17.1 41.9 17.45 42.2 17.65 42.45 17.75 42.55 20.75 44.7 22.7 45.75 23.9 46.35 25.3 46.95 26.9 47.55 M15.3 42.85 L15.3 43.05 15.15 42.8 15.3 43.05 15.3 42.85" fill="#492472" fill-rule="evenodd" stroke="none"/>
      <path d="M32.25 29.35 L34.1 29.9 35.45 30.25 35.6 30.3 40.7 32.0 41.95 32.5 43.25 33.1 44.2 33.5 44.45 33.65 44.65 34.1 44.55 34.2 44.4 34.4 44.3 34.5 44.2 34.5 43.0 34.3 39.5 33.55 37.9 34.5 37.35 34.85 37.2 36.3 37.1 37.4 36.85 40.9 36.8 41.0 36.7 41.1 Q35.4 41.95 33.55 42.5 L30.9 43.05 29.75 43.1 26.3 42.6 Q27.3 44.75 30.2 47.35 L32.7 48.35 33.3 48.55 33.7 48.7 32.8 48.7 31.2 48.65 30.1 48.55 29.9 48.55 27.85 47.85 27.35 47.7 26.9 47.55 24.5 46.05 24.3 45.95 23.25 45.25 22.8 44.95 22.15 44.5 21.1 43.75 18.7 41.9 18.55 41.8 Q18.65 39.2 20.35 36.05 L21.3 34.5 21.5 34.35 21.65 34.2 21.75 34.15 21.9 35.0 22.0 35.4 22.0 35.45 22.4 37.25 23.2 38.15 24.1 39.05 24.8 39.75 24.9 39.8 25.3 40.2 25.45 40.15 Q27.25 41.8 29.6 42.0 L30.15 42.05 31.65 41.9 31.55 41.6 32.45 41.4 Q33.8 40.95 34.8 39.65 L34.9 39.55 35.25 38.9 35.45 38.65 35.8 37.95 36.05 37.45 36.4 36.3 36.7 35.95 36.65 35.95 36.6 35.65 34.25 34.05 29.95 31.45 29.85 31.4 28.9 30.85 28.4 30.6 Q30.6 29.7 32.25 29.35 M12.2 25.55 L12.35 25.55 14.45 25.75 16.4 26.0 18.3 26.3 17.2 27.75 16.55 28.95 Q15.35 31.65 15.35 35.2 15.35 37.3 16.05 39.5 L16.4 40.55 16.5 40.8 16.9 41.7 16.1 40.95 12.35 36.9 11.15 33.4 10.9 32.65 10.85 31.65 Q10.85 28.95 12.15 25.6 L12.2 25.55 M29.85 40.9 L30.55 40.95 30.9 41.0 30.75 41.0 29.85 40.9 M28.05 32.45 L28.1 32.45 27.95 32.6 28.05 32.45" fill="#270c41" fill-rule="evenodd" stroke="none"/>
      <path d="M49.95 34.8 L49.95 35.3 49.8 35.4 49.45 35.65 48.7 36.3 48.5 36.4 Q48.3 36.45 48.15 36.65 L48.05 36.8 47.95 36.95 47.95 36.85 47.75 36.3 47.7 36.05 49.65 33.1 49.8 33.75 49.95 34.8 M36.4 36.3 L36.05 37.45 35.35 36.95 35.35 36.9 34.4 36.4 34.0 36.15 33.65 35.95 32.55 35.35 30.8 34.5 29.9 34.2 29.3 33.95 29.2 33.9 28.45 33.65 27.4 33.3 26.4 33.05 25.7 32.9 24.3 32.6 23.9 32.5 Q24.0 31.75 24.25 31.15 L24.35 30.9 26.1 31.65 27.05 32.05 28.05 32.45 27.95 32.6 28.1 32.45 28.95 32.8 29.1 32.9 29.4 33.0 29.6 33.1 29.9 33.2 30.2 33.35 31.2 33.8 32.55 34.4 Q33.2 34.7 33.7 34.95 L34.2 35.15 34.3 35.2 35.25 35.7 35.55 35.85 36.4 36.3" fill="#ce5627" fill-rule="evenodd" stroke="none"/>
      <path d="M49.35 32.8 L49.65 33.1 47.7 36.05 47.3 36.6 47.1 36.55 47.1 36.5 47.4 35.6 47.85 34.7 47.9 34.6 48.2 34.15 Q48.65 33.4 49.35 32.8 M47.4 37.15 L47.75 38.45 47.8 38.6 48.3 39.5 Q48.65 39.95 49.1 39.95 L49.45 39.65 49.6 39.65 49.6 39.75 49.55 40.1 49.5 40.25 49.4 40.35 49.4 40.4 Q49.15 40.6 48.85 40.6 L48.2 40.5 47.55 40.0 47.35 39.65 47.3 39.35 47.2 39.0 47.05 37.2 47.4 37.15 M22.5 29.65 L22.5 29.6 22.65 28.85 23.35 29.1 23.7 29.3 23.9 29.4 Q25.4 30.0 27.45 31.05 L28.5 31.55 29.0 31.8 29.45 32.05 29.4 32.1 27.05 31.2 23.65 30.05 23.6 30.0 23.5 30.35 23.45 30.6 Q23.3 31.45 23.3 32.35 L23.3 33.15 24.0 36.85 24.5 38.65 24.4 38.75 23.35 36.3 22.95 35.25 22.6 33.6 22.5 33.2 22.45 32.55 22.4 31.5 22.4 31.15 22.5 29.65" fill="#9b4a2e" fill-rule="evenodd" stroke="none"/>
      <path d="M48.25 33.6 L49.25 31.5 49.6 32.6 49.35 32.8 Q48.65 33.4 48.2 34.15 L47.9 34.6 47.85 34.7 47.4 35.6 47.1 36.5 47.1 36.55 47.05 36.75 46.9 36.45 47.25 35.6 47.85 34.35 48.25 33.6 M28.4 30.6 L28.9 30.85 29.85 31.4 29.95 31.45 34.25 34.05 36.6 35.65 36.65 35.95 36.7 35.95 36.4 36.3 35.55 35.85 35.25 35.7 34.3 35.2 34.2 35.15 33.7 34.95 Q33.2 34.7 32.55 34.4 L31.2 33.8 30.2 33.35 29.9 33.2 29.6 33.1 29.4 33.0 29.1 32.9 28.95 32.8 28.1 32.45 28.05 32.45 27.05 32.05 26.1 31.65 24.35 30.9 24.25 31.15 Q24.0 31.75 23.9 32.5 L23.9 32.8 24.15 34.5 24.55 35.8 24.8 36.5 24.95 36.8 25.4 37.65 25.7 38.15 26.05 38.7 Q27.15 40.25 28.5 41.0 L28.65 41.05 29.65 41.45 29.8 41.5 30.2 41.55 31.05 41.65 31.5 41.6 31.55 41.6 31.65 41.9 30.15 42.05 29.6 42.0 Q27.25 41.8 25.45 40.15 L25.3 40.2 24.9 39.8 24.8 39.75 24.1 39.05 23.2 38.15 22.4 37.25 22.0 35.45 22.0 35.4 21.9 35.0 21.75 34.15 21.7 33.95 21.6 33.3 21.55 32.8 21.45 31.2 21.45 31.1 Q21.45 29.85 21.8 28.6 L21.95 28.0 22.75 28.25 23.6 28.55 24.1 28.7 24.2 28.75 Q26.2 29.5 28.4 30.6 M49.45 39.65 L49.55 39.4 49.7 38.9 49.75 38.55 49.8 38.15 49.85 37.85 50.2 37.85 50.2 38.6 50.0 39.85 49.85 40.2 49.8 40.3 49.75 40.4 49.65 40.55 49.6 40.6 49.25 40.95 48.65 41.15 48.15 41.05 47.5 40.1 47.35 39.65 47.55 40.0 48.2 40.5 48.85 40.6 Q49.15 40.6 49.4 40.4 L49.4 40.35 49.5 40.25 49.55 40.1 49.6 39.75 49.6 39.65 49.45 39.65 M22.5 29.65 L22.4 31.15 22.4 31.5 22.45 32.55 22.5 33.2 22.6 33.6 22.95 35.25 23.35 36.3 24.4 38.75 24.5 38.65 24.0 36.85 23.3 33.15 23.3 32.35 Q23.3 31.45 23.45 30.6 L23.5 30.35 23.6 30.0 23.65 30.05 27.05 31.2 29.4 32.1 29.45 32.05 29.0 31.8 28.5 31.55 27.45 31.05 Q25.4 30.0 23.9 29.4 L23.7 29.3 23.35 29.1 22.65 28.85 22.5 29.6 22.5 29.65" fill="#662a2a" fill-rule="evenodd" stroke="none"/>
      <path d="M35.45 38.65 L35.25 38.9 34.9 39.55 34.8 39.65 Q33.8 40.95 32.45 41.4 L31.55 41.6 31.5 41.6 31.05 41.65 30.2 41.55 29.8 41.5 29.65 41.45 28.65 41.05 28.5 41.0 Q27.15 40.25 26.05 38.7 L25.7 38.15 25.4 37.65 24.95 36.8 24.8 36.5 24.55 35.8 24.15 34.5 25.25 34.7 25.2 34.8 25.4 35.5 26.0 36.2 26.25 36.4 26.35 36.5 26.85 36.75 27.0 37.7 Q27.2 38.6 27.7 39.3 L28.7 40.4 28.95 40.55 29.45 40.8 29.85 40.9 30.75 41.0 30.9 41.0 31.4 40.95 Q32.0 40.85 32.5 40.55 L33.25 40.15 34.3 39.05 35.0 37.85 35.25 38.35 35.3 38.4 35.45 38.65 M47.3 36.6 L47.7 36.05 47.75 36.3 47.95 36.85 47.95 36.95 47.9 37.3 47.9 37.35 48.05 37.85 48.25 37.85 48.6 37.75 49.7 38.15 49.8 38.15 49.75 38.55 49.7 38.9 49.55 39.4 49.45 39.65 49.1 39.95 Q48.65 39.95 48.3 39.5 L47.8 38.6 47.75 38.45 47.4 37.15 47.35 36.95 47.35 36.75 47.3 36.6 M30.55 40.95 L29.65 40.35 29.45 40.1 29.2 39.8 28.85 38.7 28.85 38.5 28.9 38.55 29.05 38.6 30.5 38.9 30.7 38.9 Q31.65 38.8 32.6 38.0 L33.0 37.6 33.9 36.25 34.1 36.55 34.15 36.7 34.2 36.95 Q34.2 38.75 33.05 39.9 L32.5 40.3 Q31.7 40.9 30.55 40.95" fill="#fbff17" fill-rule="evenodd" stroke="none"/>
      <path d="M48.6 37.75 L48.25 37.85 48.05 37.85 47.9 37.35 47.9 37.3 47.95 36.95 48.05 36.8 48.15 36.65 Q48.3 36.45 48.5 36.4 L48.7 36.3 48.95 36.3 48.95 36.4 49.0 36.5 49.05 36.6 49.1 36.8 48.9 37.5 48.8 37.6 48.6 37.75 M25.25 34.7 L25.75 33.75 26.15 33.65 27.2 33.7 27.3 33.55 27.25 33.7 28.15 34.05 28.2 34.05 28.9 34.8 29.05 35.0 29.25 35.8 29.1 36.2 28.95 36.45 28.6 36.7 27.75 36.95 27.6 36.95 27.45 36.95 26.85 36.75 26.35 36.5 26.25 36.4 26.0 36.2 25.4 35.5 25.2 34.8 25.25 34.7" fill="#f8feff" fill-rule="evenodd" stroke="none"/>
      <path d="M49.95 35.3 L49.95 35.65 49.95 36.5 49.9 37.3 49.85 37.65 49.85 37.85 49.8 38.15 49.7 38.15 48.6 37.75 48.8 37.6 48.9 37.5 49.1 36.8 49.05 36.6 49.0 36.5 48.95 36.4 48.95 36.3 48.7 36.3 49.45 35.65 49.8 35.4 49.95 35.3 M36.05 37.45 L35.8 37.95 35.45 38.65 35.3 38.4 35.25 38.35 35.0 37.85 34.3 39.05 33.25 40.15 32.5 40.55 Q32.0 40.85 31.4 40.95 L30.9 41.0 30.55 40.95 29.85 40.9 29.45 40.8 28.95 40.55 28.7 40.4 27.7 39.3 Q27.2 38.6 27.0 37.7 L26.85 36.75 27.45 36.95 27.6 36.95 27.75 36.95 28.6 36.7 28.95 36.45 29.1 36.2 29.25 35.8 29.05 35.0 28.9 34.8 28.2 34.05 28.15 34.05 27.25 33.7 27.3 33.55 27.2 33.7 26.15 33.65 25.75 33.75 25.25 34.7 24.15 34.5 23.9 32.8 23.9 32.5 24.3 32.6 25.7 32.9 26.4 33.05 27.4 33.3 28.45 33.65 29.2 33.9 29.3 33.95 29.9 34.2 30.8 34.5 32.55 35.35 33.65 35.95 34.0 36.15 34.4 36.4 35.35 36.9 35.35 36.95 36.05 37.45 M30.55 40.95 Q31.7 40.9 32.5 40.3 L33.05 39.9 Q34.2 38.75 34.2 36.95 L34.15 36.7 34.1 36.55 33.9 36.25 33.0 37.6 32.6 38.0 Q31.65 38.8 30.7 38.9 L30.5 38.9 29.05 38.6 28.9 38.55 28.85 38.5 28.85 38.7 29.2 39.8 29.45 40.1 29.65 40.35 30.55 40.95" fill="#e2821c" fill-rule="evenodd" stroke="none"/>
      <path d="M54.4 36.35 L54.4 38.1 50.95 37.7 50.9 37.7 49.85 37.65 49.9 37.3 49.95 36.5 50.55 36.45 54.4 36.35" fill="#e269b9" fill-rule="evenodd" stroke="none"/>
      <path d="M54.4 38.1 L54.4 40.05 52.8 39.35 51.7 39.0 51.35 38.9 51.1 38.85 50.2 38.6 50.2 37.85 49.85 37.85 49.85 37.65 50.9 37.7 50.95 37.7 54.4 38.1 M48.9 42.15 L49.6 42.55 49.8 42.7 50.0 42.8 51.15 43.8 50.9 44.1 50.25 45.05 50.0 45.55 49.6 44.75 49.25 44.35 48.3 43.45 48.9 42.15" fill="#1b064b" fill-rule="evenodd" stroke="none"/>
      <path d="M54.4 41.5 L54.4 43.05 53.15 44.15 52.25 43.05 52.2 42.95 52.2 42.8 52.25 42.5 52.05 42.3 51.75 42.0 50.1 40.8 49.65 40.55 49.75 40.4 49.8 40.3 49.85 40.2 50.0 39.85 50.35 39.95 51.15 40.2 51.45 40.35 51.65 40.4 Q52.75 40.7 52.85 40.85 53.2 41.5 53.6 41.5 L54.4 41.5" fill="#464da7" fill-rule="evenodd" stroke="none"/>
      <path d="M54.4 40.05 L54.4 40.2 53.05 40.0 51.6 40.15 51.4 40.2 51.15 40.2 50.35 39.95 50.0 39.85 50.2 38.6 51.1 38.85 51.35 38.9 51.7 39.0 52.8 39.35 54.4 40.05 M52.3 45.3 L52.25 45.4 51.9 45.95 50.85 47.95 50.75 48.2 50.7 48.2 50.4 46.8 50.0 45.55 50.25 45.05 50.9 44.1 51.15 43.8 52.2 45.15 52.3 45.3 M49.25 40.95 L49.6 40.6 49.65 40.55 50.1 40.8 Q49.35 41.55 50.0 42.8 L49.8 42.7 49.6 42.55 48.9 42.15 48.9 42.05 49.25 40.95" fill="#292270" fill-rule="evenodd" stroke="none"/>
      <path d="M54.4 40.2 L54.4 41.5 53.6 41.5 Q53.2 41.5 52.85 40.85 52.75 40.7 51.65 40.4 L51.45 40.35 51.15 40.2 51.4 40.2 51.6 40.15 53.05 40.0 54.4 40.2 M53.15 44.15 L52.5 45.0 52.4 45.1 52.3 45.3 52.2 45.15 51.15 43.8 50.0 42.8 Q49.35 41.55 50.1 40.8 L51.75 42.0 52.05 42.3 52.25 42.5 52.2 42.8 52.2 42.95 52.25 43.05 53.15 44.15" fill="#323890" fill-rule="evenodd" stroke="none"/>
      <path d="M12.85 9.95 L14.65 9.1 Q16.6 8.3 19.05 8.0 L23.0 7.75 24.2 7.8 26.2 8.05 26.25 8.1 Q28.15 8.45 29.25 9.15 L30.15 9.25 30.9 9.3 30.65 9.95 29.55 12.75 28.8 14.8 28.7 15.15 28.6 15.45 28.5 15.7 27.95 15.7 27.9 15.7 23.1 15.8 21.55 15.45 19.05 14.8 14.85 11.65 12.85 9.95 M13.9 21.95 L12.75 24.1 11.8 23.65 11.35 23.2 11.6 22.75 12.7 20.9 13.1 21.7 13.9 21.95 M6.4 15.9 Q6.85 17.5 7.65 18.85 L8.6 20.25 8.85 20.6 10.3 22.2 11.3 23.15 10.85 24.2 10.4 25.15 10.2 25.6 10.15 25.65 9.85 26.2 8.8 28.65 8.75 28.75 8.6 29.2 8.75 30.5 Q9.0 31.8 9.6 33.5 L9.65 33.65 10.9 36.9 12.6 40.4 12.75 40.65 9.55 40.45 7.25 38.85 4.7 36.6 5.85 35.6 Q6.7 34.65 6.95 33.2 L7.1 31.85 6.95 30.65 6.8 30.1 6.0 28.15 Q5.0 26.3 4.9 24.15 L4.9 23.75 Q4.9 22.35 5.5 19.4 L6.4 15.9 M14.2 40.75 L14.05 40.4 13.25 38.8 13.85 39.8 14.55 40.8 14.2 40.75" fill="#461c5e" fill-rule="evenodd" stroke="none"/>
      <path d="M5.15 0.95 Q6.25 3.5 9.6 6.9 L10.4 7.7 10.9 8.15 10.95 8.55 11.05 8.95 11.6 10.7 12.15 11.8 13.55 13.6 13.7 13.8 15.1 14.9 16.95 15.9 18.55 16.5 18.65 16.55 20.4 16.8 20.9 16.8 23.15 16.65 23.45 16.6 24.4 16.05 25.65 16.3 25.7 16.3 25.55 16.55 25.3 17.0 25.0 17.6 24.45 18.5 22.25 18.35 20.65 18.15 18.55 17.9 17.2 17.7 17.1 17.7 15.5 17.5 15.35 17.35 13.05 15.1 12.5 14.5 10.95 12.65 10.8 12.4 10.5 12.1 9.35 10.4 Q8.0 8.25 6.9 5.8 L5.15 0.95" fill="#0edbdd" fill-rule="evenodd" stroke="none"/>
      <path d="M28.5 15.7 L28.15 16.75 28.05 16.7 25.7 16.3 25.65 16.3 24.4 16.05 23.95 15.95 23.6 15.9 23.1 15.8 27.9 15.7 27.95 15.7 28.5 15.7 M9.05 13.45 L9.4 14.2 10.5 16.55 11.55 18.65 11.55 18.75 12.4 20.3 12.7 20.9 11.6 22.75 11.35 23.2 11.3 23.15 10.3 22.2 8.85 20.6 8.6 20.25 7.65 18.85 Q6.85 17.5 6.4 15.9 L6.3 15.55 6.25 15.25 6.35 15.2 6.45 15.2 8.9 13.6 9.05 13.45 M12.35 24.15 L11.8 23.65 12.75 24.1 12.35 24.15" fill="#351342" fill-rule="evenodd" stroke="none"/>
      <path d="M28.15 16.75 L28.15 16.8 27.75 18.05 27.55 18.7 25.0 18.55 24.45 18.5 25.0 17.6 25.3 17.0 25.55 16.55 25.7 16.3 28.05 16.7 28.15 16.75" fill="#02b4c4" fill-rule="evenodd" stroke="none"/>
      <path d="M27.1 26.15 L24.65 25.4 23.2 24.9 19.85 23.85 19.2 23.65 18.9 23.55 Q17.15 22.95 15.55 22.5 L14.6 21.3 17.15 22.2 19.15 22.8 19.65 22.9 21.0 23.2 23.5 23.8 26.0 24.4 26.15 24.45 26.55 25.15 27.1 26.15 M10.95 12.65 L12.5 14.5 13.05 15.1 15.35 17.35 15.5 17.5 17.1 17.7 17.2 17.7 18.55 17.9 20.65 18.15 22.25 18.35 24.45 18.5 23.95 19.4 24.1 20.15 22.25 20.15 21.2 20.1 20.0 20.05 15.45 19.6 15.05 19.55 14.2 18.75 12.35 16.75 11.3 15.5 Q10.95 14.2 10.95 13.0 L10.95 12.65 M8.6 12.55 L8.75 12.75 9.15 13.4 9.25 13.55 10.2 15.2 11.9 17.95 12.15 18.3 11.55 18.65 10.5 16.55 9.4 14.2 9.05 13.45 8.95 13.25 8.7 12.75 8.6 12.55" fill="#656dab" fill-rule="evenodd" stroke="none"/>
      <path d="M11.9 9.1 L12.3 9.45 12.85 9.95 14.85 11.65 19.05 14.8 21.55 15.45 23.1 15.8 23.6 15.9 23.95 15.95 24.4 16.05 23.45 16.6 23.15 16.65 20.9 16.8 20.4 16.8 18.65 16.55 18.55 16.5 16.95 15.9 15.1 14.9 13.7 13.8 13.55 13.6 12.15 11.8 11.6 10.7 11.05 8.95 10.95 8.55 10.9 8.15 11.0 8.25 11.9 9.1" fill="#b3fffb" fill-rule="evenodd" stroke="none"/>
      <path d="M2.25 36.4 Q0.65 34.35 -0.45 32.15 L-0.45 30.55 0.9 31.9 Q2.15 33.0 3.35 33.45 L3.5 33.6 3.6 33.6 3.7 34.0 3.7 34.1 3.35 35.2 3.1 35.6 2.25 36.4 M-0.35 19.75 L-0.45 19.4 -0.45 13.7 Q-0.15 12.1 0.55 10.45 L1.05 9.3 1.3 9.55 Q1.35 11.35 2.5 13.75 L3.4 15.15 3.8 15.7 4.0 15.9 4.1 15.9 6.25 15.25 6.3 15.55 5.9 17.0 4.95 19.4 Q3.5 22.05 1.2 23.0 L1.15 22.9 0.25 21.05 0.0 20.45 -0.35 19.75" fill="#7d3179" fill-rule="evenodd" stroke="none"/>
      <path d="M-0.45 30.55 L-0.45 30.3 Q0.95 31.1 1.2 31.1 L2.45 30.65 Q3.05 30.1 3.05 28.95 L2.65 27.05 Q1.65 25.85 0.8 23.75 L0.8 23.7 0.6 23.2 1.1 23.0 1.2 23.0 1.65 23.8 2.55 25.4 3.35 26.6 4.8 28.6 5.45 29.4 5.55 29.5 5.95 29.9 6.05 30.5 Q6.05 32.3 5.05 33.3 L4.6 33.7 4.25 33.65 3.55 33.5 3.35 33.45 Q2.15 33.0 0.9 31.9 L-0.45 30.55" fill="#c16293" fill-rule="evenodd" stroke="none"/>
      <path d="M12.75 24.1 L12.65 24.35 12.6 24.5 12.2 25.55 12.15 25.6 Q10.85 28.95 10.85 31.65 L10.9 32.65 11.15 33.4 12.35 36.9 12.35 36.95 13.25 38.8 14.05 40.4 14.2 40.75 14.0 40.75 12.9 40.65 12.75 40.65 12.6 40.4 10.9 36.9 9.65 33.65 9.6 33.5 Q9.0 31.8 8.75 30.5 L8.6 29.2 8.75 28.75 8.8 28.65 9.85 26.2 10.15 25.65 10.2 25.6 10.85 25.25 11.4 24.95 12.5 24.35 12.35 24.15 12.75 24.1" fill="#5c2368" fill-rule="evenodd" stroke="none"/>
      <path d="M32.25 29.35 Q30.6 29.7 28.4 30.6 26.2 29.5 24.2 28.75 L24.1 28.7 23.6 28.55 22.75 28.25 21.95 28.0 21.8 28.6 Q21.45 29.85 21.45 31.1 L21.45 31.2 21.55 32.8 21.6 33.3 21.7 33.95 21.75 34.15 21.65 34.2 21.5 34.35 21.3 34.5 20.35 36.05 Q18.65 39.2 18.55 41.8 L18.7 41.9 21.1 43.75 22.15 44.5 22.8 44.95 23.25 45.25 24.3 45.95 24.5 46.05 26.9 47.55 25.3 46.95 23.9 46.35 22.7 45.75 20.75 44.7 17.75 42.55 17.65 42.45 17.45 42.2 17.1 41.9 16.9 41.7 16.5 40.8 16.4 40.55 16.05 39.5 Q15.35 37.3 15.35 35.2 15.35 31.65 16.55 28.95 L17.2 27.75 18.3 26.3 19.35 26.45 19.5 26.5 21.15 26.8 24.65 27.5 25.2 27.65 26.35 27.9 26.65 28.0 26.75 28.0 27.85 28.25 32.25 29.35" fill="#18053c" fill-rule="evenodd" stroke="none"/>
      <path d="M7.7 41.35 L6.45 40.55 6.65 40.2 5.95 40.15 3.25 37.6 3.05 37.4 2.9 37.2 2.8 37.05 2.25 36.4 3.1 35.6 3.35 35.2 4.7 36.6 7.25 38.85 9.55 40.45 12.75 40.65 12.9 40.65 14.0 40.75 14.2 40.75 15.3 42.85 15.15 42.8 15.0 42.8 14.1 42.7 13.45 42.65 13.3 42.6 9.25 41.9 8.55 41.75 8.25 41.6 7.7 41.35" fill="#77347b" fill-rule="evenodd" stroke="none"/>
      <path d="M32.85 53.5 L31.85 53.5 31.85 53.4 31.85 53.3 31.75 52.8 31.85 52.7 32.5 51.65 32.75 52.05 32.85 52.9 32.85 53.0 32.85 53.5 M12.2 53.5 L10.35 53.5 10.25 53.25 10.2 53.15 9.25 51.45 8.95 51.0 8.8 50.7 8.7 50.6 8.65 50.45 7.95 49.15 7.55 48.25 Q6.65 46.15 6.45 43.7 L7.1 41.5 7.5 41.7 7.65 43.0 7.7 43.4 8.3 45.6 9.2 48.4 9.85 49.7 9.9 49.75 10.2 50.25 10.35 50.6 10.5 50.8 10.65 51.05 10.65 51.1 11.25 51.95 11.25 52.0 12.1 53.25 12.2 53.45 12.2 53.5" fill="#5a6197" fill-rule="evenodd" stroke="none"/>
      <path d="M32.5 51.65 L32.5 51.6 33.25 51.4 33.75 51.3 33.95 51.2 34.7 51.0 35.45 50.7 35.8 50.55 36.0 50.8 36.0 50.85 35.65 51.25 33.45 52.55 32.85 53.0 32.85 52.9 32.75 52.05 32.5 51.65 M22.0 53.5 L20.7 53.5 19.3 51.85 19.0 51.45 18.9 51.3 18.7 51.05 17.1 48.2 17.05 48.05 17.0 47.9 16.9 47.65 16.75 47.25 16.7 47.1 16.35 46.85 14.9 46.05 14.0 45.5 12.75 44.8 9.25 42.75 9.2 42.7 8.85 42.5 8.35 42.2 8.3 42.2 7.5 41.7 7.1 41.5 7.2 41.1 7.5 41.25 7.7 41.35 8.25 41.6 8.55 41.75 9.3 42.1 9.5 42.2 12.8 43.5 13.15 43.65 14.0 44.0 15.4 44.5 16.25 44.8 18.1 45.35 18.25 45.35 18.3 45.4 18.45 45.85 18.45 46.6 18.65 47.9 18.7 48.0 18.75 48.15 18.85 48.5 19.2 49.45 19.45 49.9 19.6 50.2 19.75 50.5 19.8 50.6 20.85 52.15 22.0 53.5" fill="#8496ba" fill-rule="evenodd" stroke="none"/>
      <path d="M36.4 51.35 L36.65 51.6 36.7 51.75 36.7 51.85 36.8 52.15 36.4 53.5 35.7 53.5 35.8 52.2 35.7 51.45 35.65 51.25 36.0 50.85 36.3 51.2 36.4 51.35 M8.3 42.2 L8.55 43.15 8.8 44.1 Q9.3 46.0 10.05 47.6 L10.2 47.55 11.15 49.05 11.8 49.7 12.15 49.9 12.8 50.25 12.8 50.35 Q12.7 51.0 12.75 51.65 L12.75 51.85 12.7 51.8 12.4 51.65 11.35 51.15 10.75 50.75 10.65 50.7 10.5 50.55 10.2 50.25 9.9 49.75 9.85 49.7 9.2 48.4 8.3 45.6 7.7 43.4 7.65 43.0 7.5 41.7 8.3 42.2" fill="#aabbd5" fill-rule="evenodd" stroke="none"/>
      <path d="M35.7 53.5 L34.6 53.5 Q34.45 52.8 33.85 52.65 L33.45 52.55 35.65 51.25 35.7 51.45 35.8 52.2 35.7 53.5 M12.8 50.25 L12.15 49.9 11.8 49.7 11.15 49.05 10.2 47.55 10.05 47.6 Q9.3 46.0 8.8 44.1 L8.55 43.15 8.3 42.2 8.35 42.2 8.85 42.5 9.2 42.7 9.25 42.75 12.75 44.8 14.0 45.5 14.9 46.05 16.35 46.85 16.2 47.2 Q15.1 47.2 14.35 47.65 L14.2 47.7 14.0 47.85 Q13.35 48.4 13.05 49.3 12.85 49.75 12.8 50.25" fill="#8b9fb8" fill-rule="evenodd" stroke="none"/>
      <path d="M34.6 53.5 L32.85 53.5 32.85 53.0 33.45 52.55 33.85 52.65 Q34.45 52.8 34.6 53.5 M20.7 53.5 L19.15 53.5 18.95 53.35 18.85 53.25 18.2 52.7 Q17.15 51.85 16.3 51.4 15.7 51.05 14.2 50.65 L12.8 50.25 Q12.85 49.75 13.05 49.3 13.35 48.4 14.0 47.85 L14.2 47.7 14.35 47.65 Q15.1 47.2 16.2 47.2 L16.35 46.85 16.7 47.1 16.75 47.25 16.9 47.65 17.0 47.9 17.05 48.05 17.1 48.2 18.7 51.05 18.9 51.3 19.0 51.45 19.3 51.85 20.7 53.5" fill="#616ea2" fill-rule="evenodd" stroke="none"/>
      <path d="M8.45 50.55 L8.65 50.45 8.7 50.6 8.8 50.7 8.5 50.6 8.45 50.55 M19.2 49.45 L18.85 48.5 19.5 48.6 19.2 49.45" fill="#170031" fill-rule="evenodd" stroke="none"/>
      <path d="M20.15 46.4 L20.35 46.45 21.65 47.05 21.3 47.6 20.6 48.8 19.8 50.6 19.75 50.5 19.6 50.2 19.45 49.9 19.2 49.45 19.5 48.6 20.05 46.65 20.15 46.4" fill="#361a4d" fill-rule="evenodd" stroke="none"/>
      <path d="M28.05 49.5 L28.2 49.9 28.4 50.4 28.5 50.6 28.65 50.95 28.75 51.3 27.9 51.0 27.7 50.55 27.5 50.05 27.5 49.9 27.45 49.8 27.45 49.75 27.3 49.25 28.05 49.5 M22.05 53.5 L22.0 53.5 20.85 52.15 19.8 50.6 20.6 48.8 21.3 47.6 21.65 47.05 22.3 47.35 22.95 47.6 23.05 47.6 22.7 48.2 22.55 48.65 22.35 49.4 Q22.0 50.65 22.0 52.25 L22.0 52.4 22.05 53.5" fill="#240037" fill-rule="evenodd" stroke="none"/>
      <path d="M24.35 53.5 L22.05 53.5 22.0 52.4 22.0 52.25 Q22.0 50.65 22.35 49.4 L22.55 48.65 22.7 48.2 23.05 47.6 23.75 47.9 25.15 48.05 26.15 48.2 26.0 48.75 27.3 49.25 27.45 49.75 27.45 49.8 27.5 49.9 27.5 50.05 27.7 50.55 27.9 51.0 27.4 50.9 Q25.95 50.9 24.95 52.0 L24.4 52.7 24.35 53.5 M23.75 47.9 L26.0 48.75 23.75 47.9" fill="#150134" fill-rule="evenodd" stroke="none"/>
      <path d="M18.6 53.5 L13.25 53.5 12.85 52.6 12.6 52.05 12.4 51.65 12.7 51.8 12.75 51.85 14.45 52.25 17.95 53.25 18.2 53.3 18.2 53.35 18.6 53.5" fill="#585b92" fill-rule="evenodd" stroke="none"/>
      <path d="M19.15 53.5 L18.6 53.5 18.2 53.35 18.2 53.3 17.95 53.25 14.45 52.25 12.75 51.85 12.75 51.65 Q12.7 51.0 12.8 50.35 L12.8 50.25 14.2 50.65 Q15.7 51.05 16.3 51.4 17.15 51.85 18.2 52.7 L18.85 53.25 18.95 53.35 19.15 53.5 M13.25 53.5 L12.2 53.5 12.2 53.45 12.1 53.25 11.25 52.0 11.25 51.95 10.65 51.1 10.65 51.05 10.5 50.8 10.35 50.6 10.2 50.25 10.5 50.55 10.65 50.7 10.75 50.75 11.35 51.15 12.4 51.65 12.6 52.05 12.85 52.6 13.25 53.5" fill="#7a8cb2" fill-rule="evenodd" stroke="none"/>
      <path d="M46.25 53.45 L46.2 53.5 44.55 53.5 46.8 53.0 46.25 53.45" fill="#905198" fill-rule="evenodd" stroke="none"/>
      <path d="M29.1 53.5 L24.35 53.5 24.4 52.7 24.95 52.0 Q25.95 50.9 27.4 50.9 L27.9 51.0 28.0 51.25 28.35 52.0 28.55 52.5 28.7 52.75 28.8 53.0 29.1 53.5" fill="#32104c" fill-rule="evenodd" stroke="none"/>
      <path d="M28.75 51.3 L29.25 52.3 29.6 53.1 29.75 53.4 29.55 53.3 29.2 53.05 Q28.95 52.85 28.7 52.75 L28.55 52.5 28.35 52.0 28.0 51.25 27.9 51.0 28.75 51.3" fill="#6e3596" fill-rule="evenodd" stroke="none"/>
      <path d="M29.75 53.4 L29.8 53.5 29.1 53.5 28.8 53.0 28.7 52.75 Q28.95 52.85 29.2 53.05 L29.55 53.3 29.75 53.4" fill="#3e1e4f" fill-rule="evenodd" stroke="none"/>
      <path d="M10.35 53.5 L5.55 53.5 5.1 52.8 7.6 51.15 8.5 50.6 8.8 50.7 8.95 51.0 9.25 51.45 10.2 53.15 10.25 53.25 10.35 53.5" fill="#200740" fill-rule="evenodd" stroke="none"/>
      <path d="M5.55 53.5 L0.45 53.5 0.4 53.4 0.4 53.3 0.35 53.05 -0.45 52.9 -0.45 51.9 1.05 51.7 1.15 51.7 Q2.1 51.15 2.8 50.4 L4.95 52.65 5.1 52.8 5.55 53.5" fill="#914796" fill-rule="evenodd" stroke="none"/>
      <path d="M-0.45 53.4 L-0.45 52.9 0.35 53.05 0.4 53.3 0.4 53.4 -0.45 53.4" fill="#432467" fill-rule="evenodd" stroke="none"/>
      <path d="M0.45 53.5 L-0.45 53.5 -0.45 53.4 0.4 53.4 0.45 53.5" fill="#160235" fill-rule="evenodd" stroke="none"/>
      <path d="M12.5 -0.45 L11.35 0.65 10.65 1.55 10.65 3.3 Q10.85 5.7 10.4 7.7 M23.55 -0.45 L23.5 -0.05 Q23.5 0.85 24.65 2.4 L25.8 3.7 25.95 3.95 26.4 4.35 28.6 4.9 31.5 5.95 32.05 6.15 32.4 6.35 M49.3 25.65 L49.45 27.15 49.45 27.5 49.5 27.85 49.65 30.15 49.7 30.55 51.4 29.85 M50.75 30.05 L51.65 29.65 Q52.95 29.1 54.15 28.7 L54.35 28.6 54.4 28.6 M54.4 43.05 L53.15 44.15 52.5 45.0 52.4 45.1 52.3 45.3 52.25 45.4 51.9 45.95 50.85 47.95 50.75 48.2 50.7 48.25 50.7 48.2 50.0 47.15 49.7 46.75 47.65 44.65 47.4 45.1 46.1 47.15 45.6 47.9 44.75 49.0 43.95 49.3 42.25 49.95 38.4 51.0 38.15 51.05 38.05 51.05 37.9 51.1 37.55 51.15 36.4 51.35 M33.75 51.3 L33.7 51.25 28.05 49.5 28.2 49.9 28.4 50.4 28.5 50.6 28.65 50.95 28.75 51.3 29.25 52.3 29.6 53.1 29.75 53.4 29.8 53.5 M5.1 52.8 L7.6 51.15 8.45 50.55 8.65 50.45 M7.7 41.35 L6.45 40.55 5.95 40.15 3.25 37.6 3.05 37.4 2.9 37.2 2.8 37.05 2.25 36.4 Q0.65 34.35 -0.45 32.15 M-0.45 30.3 Q0.95 31.1 1.2 31.1 L2.45 30.65 Q3.05 30.1 3.05 28.95 L2.65 27.05 Q1.65 25.85 0.8 23.75 L0.8 23.7 0.6 23.2 0.05 21.5 -0.35 19.75 M-0.45 13.7 Q-0.15 12.1 0.55 10.45 L1.05 9.3 1.3 9.55 1.4 9.65 4.9 12.55 Q5.4 12.9 5.85 13.05 L5.9 13.05 Q7.25 13.05 8.35 11.85 M49.8 33.75 L49.8 33.65 49.8 32.75 49.7 30.75 49.7 30.55 M48.9 42.15 L48.9 42.05 49.25 40.95 M48.3 43.45 L49.25 44.35 49.6 44.75 50.0 45.55 50.4 46.8 50.7 48.2 50.75 48.2 M47.65 44.65 L48.2 43.6 48.3 43.45 48.9 42.15 M49.85 37.65 L50.9 37.7 50.95 37.7 54.4 38.1 M13.9 21.95 L12.75 24.1 12.65 24.35 12.6 24.5 12.2 25.55 12.15 25.6 Q10.85 28.95 10.85 31.65 L10.9 32.65 11.15 33.4 12.35 36.9 12.35 36.95 13.25 38.8 14.05 40.4 14.2 40.75 15.3 42.85 15.15 42.8 15.3 43.05 15.3 42.85 M8.55 41.75 L9.25 41.9 13.3 42.6 13.45 42.65 14.1 42.7 15.0 42.8 15.15 42.8 M18.1 45.35 L17.0 44.7 16.5 44.35 16.3 44.15 16.1 43.95 15.65 43.45 15.4 43.25 15.0 42.8 M18.3 45.4 L19.4 46.0 20.15 46.4 20.35 46.45 21.65 47.05 22.3 47.35 22.95 47.6 23.05 47.6 23.75 47.9 26.0 48.75 27.3 49.25 28.05 49.5 M18.85 48.5 L19.5 48.6 20.05 46.65 20.15 46.4 M19.2 49.45 L19.5 48.6 M8.5 50.6 L7.6 51.15 M0.45 53.5 L0.4 53.4 0.4 53.3 0.35 53.05 -0.45 52.9" fill="none" stroke="#1b0021" stroke-linecap="round" stroke-linejoin="round" stroke-width="1.0"/>
      <path d="M11.9 9.1 L12.3 9.45 12.85 9.95 14.85 11.65 19.05 14.8 21.55 15.45 23.1 15.8 23.6 15.9 23.95 15.95 24.4 16.05 25.65 16.3 25.7 16.3 28.05 16.7 28.15 16.75 28.15 16.8 27.75 18.05 27.55 18.7 27.5 18.8 28.65 20.1 29.85 21.3 30.0 21.5 30.25 21.75 30.55 22.0 33.0 24.25 35.55 26.45 36.6 27.25 37.8 28.15 40.75 30.15 34.95 28.55 31.4 27.5 27.25 26.2 27.1 26.15 24.65 25.4 23.2 24.9 19.85 23.85 19.2 23.65 18.9 23.55 Q17.15 22.95 15.55 22.5 L14.95 22.25 13.9 21.95 13.1 21.7 12.7 20.9 12.4 20.3 11.55 18.75 11.55 18.65 10.5 16.55 9.4 14.2 9.05 13.45 8.95 13.25 8.7 12.75 8.6 12.55 8.6 12.5 8.55 12.4 8.35 11.85 8.0 11.1 Q5.25 4.65 4.85 1.0 M32.4 6.35 L32.65 5.85 32.75 5.7 33.55 4.3 Q34.45 2.6 34.7 2.4 35.85 0.6 36.7 -0.45 M39.55 -0.45 Q43.0 4.2 47.2 11.9 L47.35 12.2 47.65 12.75 Q50.65 18.3 51.8 21.4 L51.5 22.0 50.55 23.75 49.45 25.4 49.3 25.65 48.8 26.35 48.1 27.25 47.3 28.25 46.3 29.5 45.0 30.95 44.35 31.65 44.3 31.7 44.15 31.85 43.95 32.05 41.5 30.65 40.95 30.35 40.75 30.15 M36.4 51.35 L36.65 51.6 36.7 51.75 36.7 51.85 36.8 52.15 36.4 53.5 M31.85 53.5 L31.85 53.4 31.85 53.3 31.75 52.8 31.85 52.7 32.5 51.65 32.5 51.6 33.25 51.4 33.75 51.3 33.95 51.2 34.7 51.0 35.45 50.7 35.8 50.55 36.0 50.8 36.0 50.85 36.3 51.2 36.4 51.35 M8.65 50.45 L7.95 49.15 7.55 48.25 Q6.65 46.15 6.45 43.7 L7.1 41.5 7.2 41.1 7.5 41.25 7.7 41.35 8.25 41.6 8.55 41.75 9.3 42.1 9.5 42.2 12.8 43.5 13.15 43.65 14.0 44.0 15.4 44.5 16.25 44.8 18.1 45.35 18.25 45.35 18.3 45.4 18.45 45.85 18.45 46.6 18.65 47.9 18.7 48.0 18.75 48.15 18.85 48.5 19.2 49.45 19.45 49.9 19.6 50.2 19.75 50.5 19.8 50.6 20.85 52.15 22.0 53.5 M5.15 0.95 Q6.25 3.5 9.6 6.9 L10.4 7.7 10.9 8.15 11.0 8.25 11.9 9.1 M34.45 2.8 L34.7 2.4 M33.55 4.3 L33.65 4.15 M32.4 6.35 L32.25 6.6 30.9 9.3 30.65 9.95 29.55 12.75 28.8 14.8 28.7 15.15 28.6 15.45 28.5 15.7 28.15 16.75 M24.45 18.5 L22.25 18.35 20.65 18.15 18.55 17.9 17.2 17.7 17.1 17.7 15.5 17.5 15.35 17.35 13.05 15.1 12.5 14.5 10.95 12.65 10.8 12.4 10.5 12.1 9.35 10.4 Q8.0 8.25 6.9 5.8 L5.15 0.95 M24.45 18.5 L25.0 18.55 27.55 18.7 M8.8 50.7 L8.95 51.0 9.25 51.45 10.2 53.15 10.25 53.25 10.35 53.5 M8.65 50.45 L8.7 50.6 8.8 50.7" fill="none" stroke="#1a1742" stroke-linecap="round" stroke-linejoin="round" stroke-width="1.0"/>
      <path d="M49.95 34.8 L49.95 35.3 49.95 35.65 49.95 36.5 49.9 37.3 49.85 37.65 49.85 37.85 49.8 38.15 49.75 38.55 49.7 38.9 49.55 39.4 49.45 39.65 49.1 39.95 Q48.65 39.95 48.3 39.5 L47.8 38.6 47.75 38.45 47.4 37.15 47.35 36.95 47.35 36.75 47.3 36.6 47.7 36.05 49.65 33.1 49.8 33.75 49.95 34.8 M36.4 36.3 L36.05 37.45 35.8 37.95 35.45 38.65 35.25 38.9 34.9 39.55 34.8 39.65 Q33.8 40.95 32.45 41.4 L31.55 41.6 31.5 41.6 31.05 41.65 30.2 41.55 29.8 41.5 29.65 41.45 28.65 41.05 28.5 41.0 Q27.15 40.25 26.05 38.7 L25.7 38.15 25.4 37.65 24.95 36.8 24.8 36.5 24.55 35.8 24.15 34.5 23.9 32.8 23.9 32.5 Q24.0 31.75 24.25 31.15 L24.35 30.9 26.1 31.65 27.05 32.05 28.05 32.45 28.1 32.45 28.95 32.8 29.1 32.9 29.4 33.0 29.6 33.1 29.9 33.2 30.2 33.35 31.2 33.8 32.55 34.4 Q33.2 34.7 33.7 34.95 L34.2 35.15 34.3 35.2 35.25 35.7 35.55 35.85 36.4 36.3" fill="none" stroke="#140019" stroke-linecap="round" stroke-linejoin="round" stroke-width="1.0"/>
      <path d="M46.25 53.45 L46.8 53.0 44.55 53.5" fill="none" stroke="#412028" stroke-linecap="round" stroke-linejoin="round" stroke-width="1.0"/>
      <path d="M-0.45 51.9 L1.05 51.7 1.15 51.7 Q2.1 51.15 2.8 50.4 L4.95 52.65 5.1 52.8 5.55 53.5" fill="none" stroke="#35141c" stroke-linecap="round" stroke-linejoin="round" stroke-width="1.0"/>
    </g>
    <g id="shape2" transform="matrix(1.0, 0.0, 0.0, 1.0, 0.0, 0.0)">
      <path d="M50.5 0.0 Q53.95 0.0 53.95 3.3 L53.95 50.15 Q53.95 53.4 50.5 53.4 L3.3 53.4 Q0.0 53.4 0.0 50.15 L0.0 3.3 Q0.0 0.0 3.3 0.0 L50.5 0.0" fill="#000000" fill-opacity="0.003921569" fill-rule="evenodd" stroke="none"/>
    </g>
  </defs>
</svg>
