<?xml version="1.0" encoding="UTF-8" standalone="no"?>
<svg xmlns:ffdec="https://www.free-decompiler.com/flash" xmlns:xlink="http://www.w3.org/1999/xlink" ffdec:objectType="frame" height="53.55px" width="55.4px" xmlns="http://www.w3.org/2000/svg">
  <g transform="matrix(1.0, 0.0, 0.0, 1.0, 1.45, 0.05)">
    <clipPath id="clipPath0" transform="matrix(1.0, 0.0, 0.0, 1.0, 0.0, 0.0)">
      <path d="M50.5 0.0 Q53.95 0.0 53.95 3.3 L53.95 50.15 Q53.95 53.4 50.5 53.4 L3.3 53.4 Q0.0 53.4 0.0 50.15 L0.0 3.3 Q0.0 0.0 3.3 0.0 L50.5 0.0" fill="#000000" fill-rule="evenodd" stroke="none"/>
    </clipPath>
    <g clip-path="url(#clipPath0)">
      <use ffdec:characterId="2" height="53.55" transform="matrix(1.0, 0.0, 0.0, 1.0, -1.45, -0.05)" width="55.05" xlink:href="#shape1"/>
    </g>
    <use ffdec:characterId="3" height="53.4" transform="matrix(1.0, 0.0, 0.0, 1.0, 0.0, 0.0)" width="53.95" xlink:href="#shape2"/>
  </g>
  <defs>
    <g id="shape1" transform="matrix(1.0, 0.0, 0.0, 1.0, 1.45, 0.05)">
      <path d="M18.95 44.45 L19.2 43.6 20.85 43.1 22.85 42.55 24.85 44.55 24.35 44.3 23.95 44.15 Q23.2 44.4 21.85 45.0 20.2 45.7 19.45 46.25 L18.95 44.45" fill="#7fb190" fill-rule="evenodd" stroke="none"/>
      <path d="M-0.95 2.35 L-0.95 0.45 2.35 0.45 Q1.05 1.4 0.5 2.3 L-0.4 2.35 -0.95 2.35 M52.35 41.5 L53.1 44.6 50.85 48.75 49.9 49.65 46.05 53.0 38.35 53.0 38.2 52.15 37.7 49.1 35.55 46.95 34.6 46.05 Q32.0 43.65 29.25 41.8 L26.9 40.35 25.95 39.85 Q23.45 38.55 19.7 37.55 L17.45 37.0 16.0 36.7 14.1 36.3 14.2 35.8 14.25 35.5 14.4 35.05 13.75 34.5 13.35 34.1 12.9 33.7 11.7 34.35 11.5 30.25 11.5 29.95 10.1 29.15 9.2 28.55 11.4 24.25 10.6 22.7 10.25 21.7 11.85 20.1 14.05 17.75 16.95 17.4 Q15.35 19.9 13.9 22.5 L15.5 24.65 17.25 26.75 16.85 29.25 16.8 29.85 16.4 33.3 18.3 33.95 20.65 34.35 20.7 35.05 23.65 35.6 28.2 36.85 28.3 36.85 28.1 39.1 Q28.55 38.8 29.55 38.35 L31.5 37.55 32.3 39.35 33.15 40.7 35.0 40.95 36.6 41.05 38.4 41.6 38.5 41.8 39.25 42.9 43.65 44.6 44.3 45.95 44.7 46.85 45.4 48.6 47.05 46.7 50.35 42.85 50.85 42.25 Q51.1 42.05 51.5 41.9 L51.8 41.75 52.35 41.5 M16.25 35.25 L16.35 36.05 17.05 35.95 17.0 35.05 16.25 35.25" fill="#3c466a" fill-rule="evenodd" stroke="none"/>
      <path d="M-0.95 4.35 L-0.95 2.35 -0.4 2.35 0.5 2.3 Q1.05 1.4 2.35 0.45 L7.8 0.45 5.85 2.0 3.85 3.9 2.65 4.1 0.3 4.35 -0.95 4.35" fill="#242d4f" fill-rule="evenodd" stroke="none"/>
      <path d="M14.8 43.1 L18.55 41.6 18.85 42.45 19.2 43.6 18.95 44.45 18.8 44.05 18.3 42.65 16.1 43.8 Q16.2 44.9 16.85 46.3 L17.6 47.7 Q16.15 47.95 15.05 49.55 14.3 50.65 14.05 51.85 L13.65 51.8 13.0 51.65 Q13.1 49.75 14.15 47.95 14.95 46.6 15.9 45.95 L15.45 45.15 14.8 43.1" fill="#005998" fill-rule="evenodd" stroke="none"/>
      <path d="M13.9 53.0 L13.05 53.0 12.95 52.1 13.0 51.65 13.65 51.8 14.05 51.85 13.9 53.0" fill="#005aaa" fill-rule="evenodd" stroke="none"/>
      <path d="M14.05 51.85 Q14.3 50.65 15.05 49.55 16.15 47.95 17.6 47.7 L16.85 46.3 Q16.2 44.9 16.1 43.8 L18.3 42.65 18.8 44.05 18.95 44.45 Q18.1 47.65 18.1 51.35 L18.2 52.5 14.05 51.85" fill="#0081c6" fill-rule="evenodd" stroke="none"/>
      <path d="M28.55 47.15 L28.55 47.25 28.5 47.95 Q28.5 50.75 29.0 53.0 L18.3 53.0 18.2 52.5 18.1 51.35 Q18.1 47.65 18.95 44.45 L19.45 46.25 Q20.2 45.7 21.85 45.0 23.2 44.4 23.95 44.15 L24.35 44.3 24.85 44.55 28.55 47.15" fill="#b9ffd1" fill-rule="evenodd" stroke="none"/>
      <path d="M18.3 53.0 L13.9 53.0 14.05 51.85 18.2 52.5 18.3 53.0" fill="#0081c1" fill-rule="evenodd" stroke="none"/>
      <path d="M32.05 1.8 L32.7 0.45 34.9 0.45 Q34.65 2.2 34.55 4.15 L32.05 1.8" fill="#513c77" fill-rule="evenodd" stroke="none"/>
      <path d="M34.9 0.45 L37.1 0.45 37.2 1.1 37.7 3.55 35.5 4.1 35.45 4.1 34.75 4.3 34.55 4.15 Q34.65 2.2 34.9 0.45" fill="#6d5498" fill-rule="evenodd" stroke="none"/>
      <path d="M44.25 14.9 L45.55 16.0 46.05 18.8 45.4 18.15 42.95 15.8 40.4 13.5 39.1 12.45 38.4 11.9 39.25 11.3 39.3 11.3 41.0 13.75 Q42.6 14.5 44.25 14.9" fill="#4e497e" fill-rule="evenodd" stroke="none"/>
      <path d="M40.4 10.7 L42.0 12.55 44.25 14.9 Q42.6 14.5 41.0 13.75 L39.3 11.3 40.4 10.7" fill="#6c66a6" fill-rule="evenodd" stroke="none"/>
      <path d="M37.7 3.55 L39.15 9.25 40.4 10.7 39.3 11.3 Q36.95 7.8 36.3 5.85 L35.55 5.1 34.75 4.3 35.45 4.1 35.5 4.1 37.7 3.55" fill="#7660a1" fill-rule="evenodd" stroke="none"/>
      <path d="M34.75 4.3 L35.55 5.1 36.3 5.85 Q36.95 7.8 39.3 11.3 L39.25 11.3 38.4 11.9 36.9 10.7 35.15 10.2 35.05 10.05 34.05 8.3 31.95 5.35 31.55 4.95 31.65 4.9 34.55 4.3 34.75 4.3" fill="#4e4983" fill-rule="evenodd" stroke="none"/>
      <path d="M30.85 4.3 L32.05 1.8 34.55 4.15 34.75 4.3 34.55 4.3 31.65 4.9 31.55 4.95 31.2 4.55 30.85 4.3" fill="#555085" fill-rule="evenodd" stroke="none"/>
      <path d="M5.1 7.35 Q3.85 6.25 2.85 4.45 L2.75 4.25 2.65 4.1 3.85 3.9 5.85 2.0 7.8 0.45 13.3 0.45 13.25 0.5 13.0 1.35 12.7 2.45 11.55 3.05 11.2 3.25 9.55 4.25 7.2 5.8 5.1 7.35" fill="#b8bf03" fill-rule="evenodd" stroke="none"/>
      <path d="M16.65 0.45 L16.7 0.45 16.65 0.5 16.65 0.45" fill="#ebff1b" fill-rule="evenodd" stroke="none"/>
      <path d="M16.7 0.45 L20.4 0.45 Q20.75 1.35 21.5 1.95 22.65 2.8 24.3 2.8 L26.9 2.25 27.65 1.95 Q29.2 2.85 30.75 4.2 L30.85 4.3 31.2 4.55 31.55 4.95 31.95 5.35 34.05 8.3 31.25 9.2 29.65 9.75 29.05 8.5 28.65 8.35 Q25.75 7.3 22.7 5.8 L21.1 4.95 18.2 3.45 17.2 2.95 16.65 0.5 16.7 0.45 M18.4 3.1 L18.35 2.3 18.4 3.2 18.4 3.1 M12.35 3.8 L12.25 4.3 12.1 4.15 12.35 3.8" fill="#86fec1" fill-rule="evenodd" stroke="none"/>
      <path d="M13.05 53.0 L9.25 53.0 9.45 50.7 Q9.55 49.5 9.8 48.7 L9.9 48.35 10.6 46.75 10.8 46.4 10.65 46.3 10.45 46.15 Q9.8 45.75 9.1 45.65 L9.15 45.15 9.45 40.75 9.45 39.4 9.4 37.6 9.2 36.2 9.0 34.95 4.5 36.15 1.55 37.0 -0.1 37.5 1.2 34.4 1.9 32.65 3.25 29.6 4.0 27.9 5.55 24.65 4.5 23.65 4.0 23.15 2.8 22.0 2.05 21.35 1.65 20.95 4.6 19.3 8.0 17.45 8.7 17.05 11.75 15.4 11.8 15.15 12.5 15.3 12.6 15.35 12.7 15.4 11.9 15.95 4.85 21.2 6.3 22.8 7.9 24.45 6.2 27.15 1.6 34.7 1.55 34.75 4.05 33.6 Q6.5 32.4 8.15 31.7 9.85 35.55 10.45 39.95 L10.75 45.1 12.35 44.3 14.8 43.1 15.45 45.15 15.9 45.95 Q14.95 46.6 14.15 47.95 13.1 49.75 13.0 51.65 L12.95 52.1 13.05 53.0 M36.75 13.5 L36.95 14.1 36.9 14.15 36.5 14.25 36.05 14.0 35.65 13.75 35.3 13.65 34.05 13.3 31.2 12.7 30.65 11.7 30.5 11.4 30.3 10.95 Q31.25 11.55 33.1 12.0 L34.1 12.25 36.4 12.7 36.75 13.5" fill="#f2f0f3" fill-rule="evenodd" stroke="none"/>
      <path d="M12.35 3.8 L12.1 4.15 11.25 3.3 11.2 3.25 11.55 3.05 12.7 2.45 12.35 3.8" fill="#61c291" fill-rule="evenodd" stroke="none"/>
      <path d="M11.2 3.25 L11.25 3.3 12.1 4.15 11.75 4.6 Q9.95 7.3 9.2 9.1 L8.8 9.0 Q7.0 8.7 5.9 7.95 L5.1 7.35 7.2 5.8 9.55 4.25 11.2 3.25" fill="#85bf5d" fill-rule="evenodd" stroke="none"/>
      <path d="M4.3 8.0 L5.1 7.35 5.9 7.95 Q7.0 8.7 8.8 9.0 L9.2 9.1 Q9.95 7.3 11.75 4.6 L12.1 4.15 12.25 4.3 Q10.75 10.35 10.45 14.7 L11.8 15.15 11.75 15.4 8.7 17.05 8.0 17.45 6.95 14.85 6.35 13.4 6.3 13.3 6.05 12.6 4.7 9.0 4.3 8.0" fill="#afff78" fill-rule="evenodd" stroke="none"/>
      <path d="M-0.95 10.6 L-0.95 5.05 2.5 4.3 2.75 4.25 2.85 4.45 Q3.85 6.25 5.1 7.35 L4.3 8.0 1.75 10.15 0.3 11.6 -0.95 10.6" fill="#f2ff1c" fill-rule="evenodd" stroke="none"/>
      <path d="M2.75 4.25 L2.5 4.3 -0.95 5.05 -0.95 4.35 0.3 4.35 2.65 4.1 2.75 4.25" fill="#fcff64" fill-rule="evenodd" stroke="none"/>
      <path d="M0.3 11.6 L1.75 10.15 4.3 8.0 4.7 9.0 6.05 12.6 6.3 13.3 6.35 13.4 6.95 14.85 8.0 17.45 4.6 19.3 1.65 20.95 2.05 21.35 2.8 22.0 4.0 23.15 Q2.9 24.1 0.7 25.3 L0.55 25.4 -0.4 23.6 -0.95 22.4 -0.95 21.5 -0.05 21.45 -0.95 20.7 -0.95 12.95 0.3 11.6" fill="#a5ff89" fill-rule="evenodd" stroke="none"/>
      <path d="M-0.95 27.15 L-0.95 26.2 0.55 25.4 0.7 25.3 Q2.9 24.1 4.0 23.15 L4.5 23.65 1.25 26.65 0.8 25.9 0.75 26.5 0.75 27.15 0.75 27.7 0.3 27.6 -0.95 27.15 M-0.95 21.5 L-0.95 20.7 -0.05 21.45 -0.95 21.5" fill="#77b85b" fill-rule="evenodd" stroke="none"/>
      <path d="M4.5 23.65 L5.55 24.65 4.0 27.9 3.05 27.9 0.75 27.7 0.75 27.15 0.75 26.5 0.8 25.9 1.25 26.65 4.5 23.65" fill="#5dbd82" fill-rule="evenodd" stroke="none"/>
      <path d="M-0.95 43.05 L-0.95 28.9 0.3 27.6 0.75 27.7 Q0.8 30.8 1.2 34.4 L-0.1 37.5 1.55 37.0 2.15 40.95 -0.95 43.05" fill="#abff7f" fill-rule="evenodd" stroke="none"/>
      <path d="M4.0 27.9 L3.25 29.6 1.9 32.65 1.2 34.4 Q0.8 30.8 0.75 27.7 L3.05 27.9 4.0 27.9" fill="#8dfcb8" fill-rule="evenodd" stroke="none"/>
      <path d="M1.55 37.0 L4.5 36.15 9.0 34.95 9.2 36.2 9.4 37.6 9.45 39.4 9.45 40.75 7.25 41.5 6.65 41.7 2.55 43.3 2.15 40.95 1.55 37.0" fill="#5cfff0" fill-rule="evenodd" stroke="none"/>
      <path d="M4.55 53.0 L-0.95 53.0 -0.95 43.05 2.15 40.95 2.55 43.3 2.8 44.45 3.25 46.65 4.0 49.85 4.75 52.85 4.55 53.0" fill="#74ffd1" fill-rule="evenodd" stroke="none"/>
      <path d="M9.45 40.75 L9.15 45.15 9.1 45.65 Q9.8 45.75 10.45 46.15 L10.65 46.3 10.8 46.4 10.6 46.75 9.9 48.35 9.8 48.7 8.25 50.35 4.75 52.85 4.0 49.85 3.25 46.65 2.8 44.45 2.55 43.3 6.65 41.7 7.25 41.5 9.45 40.75" fill="#57fffd" fill-rule="evenodd" stroke="none"/>
      <path d="M9.25 53.0 L4.8 53.0 4.75 52.85 8.25 50.35 9.8 48.7 Q9.55 49.5 9.45 50.7 L9.25 53.0" fill="#3fc6c5" fill-rule="evenodd" stroke="none"/>
      <path d="M4.8 53.0 L4.55 53.0 4.75 52.85 4.8 53.0" fill="#67c9a8" fill-rule="evenodd" stroke="none"/>
      <path d="M-0.95 10.6 L0.3 11.6 -0.95 12.95 -0.95 10.6" fill="#f6ff12" fill-rule="evenodd" stroke="none"/>
      <path d="M-0.95 28.9 L-0.95 27.15 0.3 27.6 -0.95 28.9 M-0.95 26.2 L-0.95 22.4 -0.4 23.6 0.55 25.4 -0.95 26.2" fill="#a9fe85" fill-rule="evenodd" stroke="none"/>
      <path d="M46.05 18.8 L47.9 20.7 47.95 21.85 47.15 21.7 46.45 21.6 44.35 21.45 44.05 21.45 38.95 22.2 38.5 22.35 36.0 22.95 33.6 17.55 33.15 16.45 32.6 15.35 31.95 14.15 33.6 13.85 35.3 13.65 35.65 13.75 36.05 14.0 36.5 14.25 36.9 14.15 36.95 14.1 36.75 13.5 38.55 13.4 40.4 13.5 42.95 15.8 45.4 18.15 46.05 18.8" fill="#84aec6" fill-rule="evenodd" stroke="none"/>
      <path d="M47.95 21.85 L47.95 22.0 48.0 23.45 47.2 23.35 46.65 23.3 45.05 23.1 42.15 23.25 39.75 23.55 38.35 23.8 Q37.2 24.05 36.55 24.4 L36.0 22.95 38.5 22.35 38.95 22.2 44.05 21.45 44.35 21.45 46.45 21.6 47.15 21.7 47.95 21.85 M48.0 25.95 L48.0 26.3 48.05 26.5 48.4 27.15 45.35 26.8 43.65 26.85 42.8 26.9 38.9 27.5 Q37.45 27.9 36.75 28.35 L36.6 27.35 36.6 27.2 37.35 26.95 37.45 27.05 37.4 26.9 Q39.8 26.0 42.3 25.75 L42.35 25.75 44.2 25.7 46.9 25.85 47.55 25.9 48.0 25.95 M52.1 32.15 L51.95 33.95 51.55 33.9 47.35 34.15 46.5 34.3 45.4 34.45 Q42.85 34.95 42.15 35.4 L40.95 33.85 40.75 33.55 45.55 32.6 46.1 32.55 52.1 32.15 M40.4 13.5 L38.55 13.4 36.75 13.5 36.4 12.7 36.15 12.2 37.8 12.3 39.1 12.45 40.4 13.5 M35.3 13.65 L33.6 13.85 31.95 14.15 31.2 12.7 34.05 13.3 35.3 13.65" fill="#eef9f1" fill-rule="evenodd" stroke="none"/>
      <path d="M48.0 23.45 L48.0 25.95 47.55 25.9 46.9 25.85 44.2 25.7 42.35 25.75 42.3 25.75 Q39.8 26.0 37.4 26.9 L36.8 25.1 36.55 24.4 Q37.2 24.05 38.35 23.8 L39.75 23.55 42.15 23.25 45.05 23.1 46.65 23.3 47.2 23.35 48.0 23.45 M36.45 26.1 L37.35 26.95 36.6 27.2 36.45 26.1" fill="#00a3d1" fill-rule="evenodd" stroke="none"/>
      <path d="M48.4 27.15 L50.1 29.6 52.1 32.0 52.1 32.15 46.1 32.55 45.55 32.6 40.75 33.55 38.95 31.35 36.8 29.1 36.75 28.35 Q37.45 27.9 38.9 27.5 L42.8 26.9 43.65 26.85 45.35 26.8 48.4 27.15" fill="#87acc6" fill-rule="evenodd" stroke="none"/>
      <path d="M51.95 33.95 L51.2 38.8 51.05 39.6 50.85 38.1 Q50.6 36.05 50.15 35.1 49.1 34.95 47.15 35.1 L47.0 35.15 45.6 35.3 Q43.0 35.7 41.75 36.2 L41.4 35.65 38.95 32.3 38.75 32.15 36.15 29.4 35.7 29.0 35.75 27.6 35.7 26.2 35.75 25.9 36.05 25.8 36.2 25.9 36.45 26.1 36.6 27.2 36.6 27.35 36.75 28.35 36.8 29.1 38.95 31.35 40.75 33.55 40.95 33.85 42.15 35.4 Q42.85 34.95 45.4 34.45 L46.5 34.3 47.35 34.15 51.55 33.9 51.95 33.95 M51.0 39.95 L50.95 40.25 49.35 42.2 46.1 45.75 45.0 43.35 44.55 42.4 39.95 41.95 38.4 41.6 36.6 41.05 Q35.05 40.5 33.6 39.65 L32.55 35.95 32.15 34.35 28.95 34.55 29.3 33.55 29.4 33.2 33.05 32.75 34.75 38.35 35.45 38.8 37.0 39.7 38.5 40.3 40.65 40.9 42.3 41.25 45.0 41.4 45.55 42.2 45.7 42.5 46.75 44.0 Q47.9 42.75 48.4 41.7 49.3 41.35 50.6 40.3 L51.0 39.95 M18.4 28.9 L18.45 26.9 Q17.85 26.35 17.2 25.4 L16.9 25.0 17.45 24.7 22.9 21.95 22.9 22.2 Q22.9 26.45 25.8 28.8 27.25 30.0 28.75 30.35 L26.55 31.9 24.85 33.15 20.45 32.35 Q19.8 32.15 18.4 31.55 L18.4 28.9" fill="#008ad2" fill-rule="evenodd" stroke="none"/>
      <path d="M38.75 32.15 L38.95 32.3 41.4 35.65 41.75 36.2 Q43.0 35.7 45.6 35.3 L47.0 35.15 47.15 35.1 47.1 35.4 46.35 39.0 45.55 42.2 45.0 41.4 42.3 41.25 40.65 40.9 38.5 40.3 37.0 39.7 37.85 36.0 38.75 32.15" fill="#09dbe8" fill-rule="evenodd" stroke="none"/>
      <path d="M51.05 39.6 L51.05 39.65 51.0 39.95 50.6 40.3 Q49.3 41.35 48.4 41.7 47.9 42.75 46.75 44.0 L45.7 42.5 45.55 42.2 46.35 39.0 47.1 35.4 47.15 35.1 Q49.1 34.95 50.15 35.1 50.6 36.05 50.85 38.1 L51.05 39.6" fill="#06d8e7" fill-rule="evenodd" stroke="none"/>
      <path d="M35.15 10.2 L36.9 10.7 38.4 11.9 39.1 12.45 37.8 12.3 36.15 12.2 35.15 10.2 M18.1 15.7 L20.9 15.7 24.15 15.65 24.9 16.2 Q24.25 16.8 23.85 17.65 L20.5 17.8 18.2 17.9 17.1 20.05 15.75 23.1 16.65 24.6 16.9 25.0 17.2 25.4 Q17.85 26.35 18.45 26.9 L18.4 28.9 17.15 29.65 16.8 29.85 16.85 29.25 17.25 26.75 15.5 24.65 13.9 22.5 Q15.35 19.9 16.95 17.4 L18.1 15.7 M35.75 25.9 L35.8 25.55 36.05 25.8 35.75 25.9" fill="#0960a7" fill-rule="evenodd" stroke="none"/>
      <path d="M25.75 16.85 Q25.2 17.7 25.0 18.95 24.85 19.75 24.85 20.7 24.85 24.15 26.65 26.0 28.0 27.45 29.45 27.45 31.1 27.45 32.35 26.5 L33.05 25.75 Q33.75 24.95 34.05 23.95 L35.8 25.55 35.75 25.9 35.7 26.2 34.75 28.2 34.3 28.75 Q32.7 30.55 30.25 30.55 L28.75 30.35 Q27.25 30.0 25.8 28.8 22.9 26.45 22.9 22.2 L22.9 21.95 Q22.95 19.35 23.85 17.65 24.25 16.8 24.9 16.2 L25.75 16.85" fill="#f6f237" fill-rule="evenodd" stroke="none"/>
      <path d="M16.8 29.85 L17.15 29.65 18.4 28.9 18.4 31.55 Q19.8 32.15 20.45 32.35 L24.85 33.15 26.2 33.2 27.05 33.2 28.8 33.2 29.4 33.2 29.3 33.55 28.95 34.55 26.1 34.6 20.65 34.35 18.3 33.95 16.4 33.3 16.8 29.85 M16.9 25.0 L16.65 24.6 15.75 23.1 17.1 20.05 18.2 17.9 20.5 17.8 23.85 17.65 Q22.95 19.35 22.9 21.95 L17.45 24.7 16.9 25.0" fill="#0071ba" fill-rule="evenodd" stroke="none"/>
      <path d="M28.75 30.35 L30.25 30.55 Q32.7 30.55 34.3 28.75 L34.75 28.2 35.7 26.2 35.75 27.6 35.7 29.0 36.15 29.4 38.75 32.15 37.85 36.0 37.0 39.7 35.45 38.8 34.75 38.35 33.05 32.75 29.4 33.2 28.8 33.2 27.05 33.2 26.2 33.2 24.85 33.15 26.55 31.9 28.75 30.35" fill="#00c2e6" fill-rule="evenodd" stroke="none"/>
      <path d="M34.05 8.3 L35.05 10.05 35.15 10.2 36.15 12.2 36.4 12.7 34.1 12.25 33.1 12.0 Q31.25 11.55 30.3 10.95 L30.15 10.75 29.65 9.75 31.25 9.2 34.05 8.3" fill="#5effff" fill-rule="evenodd" stroke="none"/>
      <path d="M44.55 43.9 L44.5 44.15 44.3 44.25 Q44.15 44.25 43.85 44.05 43.5 43.75 43.5 43.4 43.5 42.9 44.05 43.25 44.55 43.6 44.55 43.9 M31.1 35.6 Q31.65 35.8 31.65 36.25 31.75 36.65 30.95 36.65 L30.05 36.45 Q29.55 36.25 29.55 35.95 29.55 35.65 30.2 35.55 L30.4 35.5 31.1 35.6" fill="#97a1c4" fill-rule="evenodd" stroke="none"/>
      <path d="M50.95 40.25 L51.7 39.25 51.75 39.15 52.1 40.5 52.35 41.5 51.8 41.75 51.5 41.9 Q51.1 42.05 50.85 42.25 L50.35 42.85 47.05 46.7 45.4 48.6 44.7 46.85 44.3 45.95 43.65 44.6 39.25 42.9 38.5 41.8 38.4 41.6 39.95 41.95 44.55 42.4 45.0 43.35 46.1 45.75 49.35 42.2 50.95 40.25 M44.55 43.9 Q44.55 43.6 44.05 43.25 43.5 42.9 43.5 43.4 43.5 43.75 43.85 44.05 44.15 44.25 44.3 44.25 L44.5 44.15 44.55 43.9 M20.65 34.35 L26.1 34.6 28.95 34.55 32.15 34.35 32.55 35.95 33.6 39.65 Q35.05 40.5 36.6 41.05 L35.0 40.95 33.15 40.7 32.3 39.35 31.5 37.55 29.55 38.35 Q28.55 38.8 28.1 39.1 L28.3 36.85 28.2 36.85 23.65 35.6 20.7 35.05 20.65 34.35 M31.1 35.6 L30.4 35.5 30.2 35.55 Q29.55 35.65 29.55 35.95 29.55 36.25 30.05 36.45 L30.95 36.65 Q31.75 36.65 31.65 36.25 31.65 35.8 31.1 35.6" fill="#576187" fill-rule="evenodd" stroke="none"/>
      <path d="M50.85 48.75 L50.1 50.0 48.15 53.0 46.05 53.0 49.9 49.65 50.85 48.75 M38.35 53.0 L34.9 53.0 34.7 50.3 30.35 48.2 28.7 47.25 28.55 47.15 24.85 44.55 22.85 42.55 20.85 43.1 19.2 43.6 18.85 42.45 18.55 41.6 14.8 43.1 12.35 44.3 10.75 45.1 10.45 39.95 Q9.85 35.55 8.15 31.7 6.5 32.4 4.05 33.6 L1.55 34.75 1.6 34.7 6.2 27.15 7.9 24.45 6.3 22.8 4.85 21.2 11.9 15.95 12.7 15.4 15.35 15.6 17.95 15.7 18.1 15.7 16.95 17.4 14.05 17.75 11.85 20.1 10.25 21.7 10.6 22.7 11.4 24.25 9.2 28.55 10.1 29.15 11.5 29.95 11.5 30.25 11.7 34.35 12.9 33.7 13.35 34.1 13.75 34.5 14.4 35.05 14.25 35.5 14.2 35.8 14.1 36.3 16.0 36.7 17.45 37.0 19.7 37.55 Q23.45 38.55 25.95 39.85 L26.9 40.35 29.25 41.8 Q32.0 43.65 34.6 46.05 L35.55 46.95 37.7 49.1 38.2 52.15 38.35 53.0 M16.25 35.25 L17.0 35.05 17.05 35.95 16.35 36.05 16.25 35.25" fill="#272f4d" fill-rule="evenodd" stroke="none"/>
      <path d="M25.75 16.85 L27.5 18.2 27.3 18.15 26.65 18.15 Q26.1 18.35 25.95 19.0 L25.0 18.95 Q25.2 17.7 25.75 16.85 M28.0 18.6 L29.7 20.05 31.95 22.05 34.05 23.95 Q33.75 24.95 33.05 25.75 L32.35 26.5 31.9 24.9 30.8 22.7 Q29.65 20.7 28.05 19.75 L28.15 19.4 28.0 18.6" fill="#d44600" fill-rule="evenodd" stroke="none"/>
      <path d="M25.95 19.0 Q26.1 18.35 26.65 18.15 L27.3 18.15 27.5 18.2 28.0 18.6 28.15 19.4 28.05 19.75 27.75 20.2 Q27.3 20.7 26.75 20.7 L26.2 20.6 Q25.85 20.4 25.85 19.8 L25.95 19.0" fill="#fff9e0" fill-rule="evenodd" stroke="none"/>
      <path d="M25.0 18.95 L25.95 19.0 25.85 19.8 Q25.85 20.4 26.2 20.6 L26.1 21.7 Q26.1 23.9 26.85 24.9 27.6 25.95 29.35 25.95 30.4 25.95 31.5 25.2 L31.9 24.9 32.35 26.5 Q31.1 27.45 29.45 27.45 28.0 27.45 26.65 26.0 24.85 24.15 24.85 20.7 24.85 19.75 25.0 18.95" fill="#ffd200" fill-rule="evenodd" stroke="none"/>
      <path d="M31.9 24.9 L31.5 25.2 Q30.4 25.95 29.35 25.95 27.6 25.95 26.85 24.9 26.1 23.9 26.1 21.7 L26.2 20.6 26.75 20.7 Q27.3 20.7 27.75 20.2 L28.05 19.75 Q29.65 20.7 30.8 22.7 L31.9 24.9" fill="#ff9a00" fill-rule="evenodd" stroke="none"/>
      <path d="M15.3 0.45 L16.65 0.45 16.65 0.5 17.2 2.95 18.2 3.45 17.8 4.1 16.9 3.75 16.35 2.45 15.75 0.95 15.7 2.6 15.85 4.7 16.25 7.05 15.65 8.25 15.6 8.3 15.6 8.2 15.45 5.55 15.45 5.35 15.35 1.1 15.3 0.45" fill="#9842db" fill-rule="evenodd" stroke="none"/>
      <path d="M13.3 0.45 L13.35 0.45 13.25 0.5 13.3 0.45" fill="#570d8a" fill-rule="evenodd" stroke="none"/>
      <path d="M13.35 0.45 L15.3 0.45 15.35 1.1 15.45 5.35 15.45 5.55 15.6 8.2 15.6 8.3 15.2 9.1 15.1 9.35 13.4 13.3 12.6 15.35 12.5 15.3 11.8 15.15 10.45 14.7 Q10.75 10.35 12.25 4.3 L12.35 3.8 12.7 2.45 13.0 1.35 13.25 0.5 13.35 0.45" fill="#581c87" fill-rule="evenodd" stroke="none"/>
      <path d="M30.5 11.4 L30.65 11.7 29.75 12.45 29.55 12.65 29.3 12.9 Q28.7 13.6 28.45 14.15 L30.4 16.45 31.4 17.75 31.45 17.75 31.25 18.0 29.85 16.35 28.3 14.65 27.45 13.8 26.35 13.9 24.2 14.0 21.9 13.8 22.35 13.55 24.75 13.75 26.35 13.65 26.55 13.6 26.6 13.6 Q27.5 13.4 29.15 12.4 L29.2 12.4 29.7 12.0 30.5 11.4 M27.95 13.3 Q27.65 13.35 27.65 13.55 27.65 13.85 28.0 13.85 L28.25 13.6 27.95 13.3" fill="#6261a1" fill-rule="evenodd" stroke="none"/>
      <path d="M18.2 3.45 L21.1 4.95 22.7 5.8 Q25.75 7.3 28.65 8.35 L29.05 8.5 29.65 9.75 30.15 10.75 30.0 10.8 Q29.0 11.05 27.9 11.45 L27.1 11.7 25.9 12.15 22.35 13.55 20.05 12.95 Q18.85 12.45 17.9 11.65 L17.5 11.3 17.2 11.0 16.8 9.8 16.8 9.75 16.8 9.65 16.5 8.45 16.3 7.4 16.25 7.05 16.35 6.9 17.5 4.6 17.8 4.1 18.2 3.45" fill="#5b378f" fill-rule="evenodd" stroke="none"/>
      <path d="M31.95 14.15 L32.6 15.35 33.15 16.45 33.0 16.5 32.85 16.6 32.4 16.95 31.45 17.75 31.4 17.75 30.4 16.45 28.45 14.15 Q28.7 13.6 29.3 12.9 L29.55 12.65 29.75 12.45 30.65 11.7 31.2 12.7 31.95 14.15 M30.15 10.75 L30.3 10.95 30.5 11.4 29.7 12.0 29.2 12.4 29.15 12.4 Q27.5 13.4 26.6 13.6 L26.55 13.6 26.35 13.65 24.75 13.75 22.35 13.55 25.9 12.15 27.1 11.7 27.9 11.45 Q29.0 11.05 30.0 10.8 L30.15 10.75" fill="#414079" fill-rule="evenodd" stroke="none"/>
      <path d="M27.95 13.3 L28.25 13.6 28.0 13.85 Q27.65 13.85 27.65 13.55 27.65 13.35 27.95 13.3" fill="#9392d2" fill-rule="evenodd" stroke="none"/>
      <path d="M21.9 13.8 L24.2 14.0 26.35 13.9 27.45 13.8 28.3 14.65 29.85 16.35 31.25 18.0 30.75 18.55 30.1 19.4 29.7 20.05 28.0 18.6 27.5 18.2 25.75 16.85 24.9 16.2 24.15 15.65 20.9 15.7 18.1 15.7 17.95 15.7 18.2 15.6 21.9 13.8" fill="#2d2b5f" fill-rule="evenodd" stroke="none"/>
      <path d="M22.35 13.55 L21.9 13.8 19.9 13.15 18.7 12.6 17.55 11.9 17.25 11.65 15.7 10.2 15.6 8.3 15.65 8.25 16.25 7.05 16.3 7.4 16.5 8.45 16.8 9.65 16.8 9.75 16.8 9.8 17.2 11.0 17.5 11.3 17.9 11.65 Q18.85 12.45 20.05 12.95 L22.35 13.55" fill="#6e47a8" fill-rule="evenodd" stroke="none"/>
      <path d="M29.7 20.05 L30.1 19.4 30.75 18.55 31.25 18.0 32.0 18.95 33.7 21.3 34.3 22.25 34.55 22.65 34.8 23.05 34.9 23.3 35.3 24.0 35.4 24.15 35.85 25.1 36.0 25.45 36.15 25.75 36.2 25.9 36.05 25.8 35.8 25.55 34.05 23.95 31.95 22.05 29.7 20.05" fill="#272f4a" fill-rule="evenodd" stroke="none"/>
      <path d="M31.25 18.0 L31.45 17.75 33.85 21.45 34.15 21.95 34.3 22.2 34.55 22.65 34.3 22.25 33.7 21.3 32.0 18.95 31.25 18.0" fill="#58648c" fill-rule="evenodd" stroke="none"/>
      <path d="M33.15 16.45 L33.6 17.55 36.0 22.95 36.55 24.4 36.8 25.1 37.4 26.9 37.45 27.05 37.35 26.95 36.45 26.1 36.2 25.9 36.15 25.75 36.0 25.45 35.85 25.1 35.4 24.15 35.3 24.0 34.9 23.3 34.8 23.05 34.55 22.65 34.3 22.2 34.15 21.95 33.85 21.45 31.45 17.75 32.4 16.95 32.85 16.6 33.0 16.5 33.15 16.45" fill="#3c4669" fill-rule="evenodd" stroke="none"/>
      <path d="M17.8 4.1 L17.5 4.6 16.35 6.9 16.25 7.05 15.85 4.7 15.7 2.6 15.75 0.95 16.35 2.45 16.9 3.75 17.8 4.1" fill="#7c2dba" fill-rule="evenodd" stroke="none"/>
      <path d="M12.6 15.35 L13.4 13.3 15.1 9.35 15.2 9.1 15.6 8.3 15.7 10.2 17.25 11.65 17.55 11.9 18.7 12.6 19.9 13.15 21.9 13.8 18.2 15.6 17.95 15.7 15.35 15.6 12.7 15.4 12.6 15.35" fill="#49257e" fill-rule="evenodd" stroke="none"/>
      <path d="M20.4 0.45 Q20.75 1.35 21.5 1.95 22.65 2.8 24.3 2.8 L26.9 2.25 27.65 1.95 Q29.2 2.85 30.75 4.2 L30.85 4.3 31.2 4.55 31.55 4.95 31.95 5.35 34.05 8.3 35.05 10.05 35.15 10.2 36.9 10.7 38.4 11.9 39.1 12.45 40.4 13.5 42.95 15.8 45.4 18.15 46.05 18.8 47.9 20.7 47.95 21.85 47.95 22.0 48.0 23.45 48.0 25.95 48.0 26.3 48.05 26.5 48.4 27.15 50.1 29.6 52.1 32.0 52.1 32.15 51.95 33.95 51.2 38.8 51.05 39.6 51.05 39.65 51.0 39.95 50.95 40.25 51.7 39.25 51.75 39.15 52.1 40.5 52.35 41.5 53.1 44.6 50.85 48.75 50.1 50.0 48.15 53.0 M34.9 53.0 L34.7 50.3 30.35 48.2 28.7 47.25 28.55 47.15 28.55 47.25 28.5 47.95 Q28.5 50.75 29.0 53.0 M36.75 13.5 L36.95 14.1 M31.95 14.15 L32.6 15.35 33.15 16.45 33.6 17.55 36.0 22.95 36.55 24.4 36.8 25.1 37.4 26.9 37.45 27.05 37.35 26.95 36.45 26.1 36.2 25.9 36.05 25.8 35.8 25.55 34.05 23.95 Q33.75 24.95 33.05 25.75 L32.35 26.5 Q31.1 27.45 29.45 27.45 28.0 27.45 26.65 26.0 24.85 24.15 24.85 20.7 24.85 19.75 25.0 18.95 25.2 17.7 25.75 16.85 L27.5 18.2 28.0 18.6 29.7 20.05 31.95 22.05 34.05 23.95 M38.4 41.6 L39.95 41.95 44.55 42.4 45.0 43.35 46.1 45.75 49.35 42.2 50.95 40.25 M30.5 11.4 L30.65 11.7 31.2 12.7 31.95 14.15 M36.4 12.7 L36.15 12.2 35.15 10.2 M18.2 3.45 L21.1 4.95 22.7 5.8 Q25.75 7.3 28.65 8.35 L29.05 8.5 29.65 9.75 30.15 10.75 30.3 10.95 30.5 11.4 M24.9 16.2 L24.15 15.65 20.9 15.7 18.1 15.7 16.95 17.4 Q15.35 19.9 13.9 22.5 L15.5 24.65 17.25 26.75 16.85 29.25 16.8 29.85 16.4 33.3 18.3 33.95 20.65 34.35 26.1 34.6 28.95 34.55 32.15 34.35 32.55 35.95 33.6 39.65 Q35.05 40.5 36.6 41.05 L38.4 41.6 M24.9 16.2 L25.75 16.85 M36.4 12.7 L36.75 13.5 M16.65 0.5 L17.2 2.95 18.2 3.45 M16.65 0.45 L16.65 0.5 M12.7 2.45 L13.0 1.35 13.25 0.5 13.3 0.45 M12.25 4.3 L12.35 3.8 12.7 2.45 M12.25 4.3 Q10.75 10.35 10.45 14.7 L11.8 15.15 12.5 15.3 12.6 15.35 12.7 15.4 11.9 15.95 4.85 21.2 6.3 22.8 7.9 24.45 6.2 27.15 1.6 34.7 1.55 34.75 4.05 33.6 Q6.5 32.4 8.15 31.7 9.85 35.55 10.45 39.95 L10.75 45.1 12.35 44.3 14.8 43.1 15.45 45.15 15.9 45.95 Q14.95 46.6 14.15 47.95 13.1 49.75 13.0 51.65 L12.95 52.1 13.05 53.0 M17.95 15.7 L18.1 15.7 M2.65 4.1 L3.85 3.9 5.85 2.0 7.8 0.45 M-0.95 4.35 L0.3 4.35 2.65 4.1 M17.95 15.7 L15.35 15.6 12.7 15.4 M19.2 43.6 L18.85 42.45 18.55 41.6 14.8 43.1 M19.2 43.6 L20.85 43.1 22.85 42.55 24.85 44.55 28.55 47.15" fill="none" stroke="#3d103f" stroke-linecap="round" stroke-linejoin="round" stroke-width="1.0"/>
      <path d="M30.85 4.3 L32.05 1.8 32.7 0.45 M37.1 0.45 L37.2 1.1 37.7 3.55 39.15 9.25 40.4 10.7 42.0 12.55 44.25 14.9 45.55 16.0 46.05 18.8" fill="none" stroke="#472548" stroke-linecap="round" stroke-linejoin="round" stroke-width="1.0"/>
    </g>
    <g id="shape2" transform="matrix(1.0, 0.0, 0.0, 1.0, 0.0, 0.0)">
      <path d="M50.5 0.0 Q53.95 0.0 53.95 3.3 L53.95 50.15 Q53.95 53.4 50.5 53.4 L3.3 53.4 Q0.0 53.4 0.0 50.15 L0.0 3.3 Q0.0 0.0 3.3 0.0 L50.5 0.0" fill="#000000" fill-opacity="0.003921569" fill-rule="evenodd" stroke="none"/>
    </g>
  </defs>
</svg>
