<?xml version="1.0" encoding="UTF-8" standalone="no"?>
<svg xmlns:ffdec="https://www.free-decompiler.com/flash" xmlns:xlink="http://www.w3.org/1999/xlink" ffdec:objectType="frame" height="54.75px" width="55.15px" xmlns="http://www.w3.org/2000/svg">
  <g transform="matrix(1.0, 0.0, 0.0, 1.0, 1.2, 0.75)">
    <clipPath id="clipPath0" transform="matrix(1.0, 0.0, 0.0, 1.0, 0.0, 0.0)">
      <path d="M50.5 0.0 Q53.95 0.0 53.95 3.3 L53.95 50.15 Q53.95 53.4 50.5 53.4 L3.3 53.4 Q0.0 53.4 0.0 50.15 L0.0 3.3 Q0.0 0.0 3.3 0.0 L50.5 0.0" fill="#000000" fill-rule="evenodd" stroke="none"/>
    </clipPath>
    <g clip-path="url(#clipPath0)">
      <use ffdec:characterId="2" height="54.75" transform="matrix(1.0, 0.0, 0.0, 1.0, -1.2, -0.75)" width="54.9" xlink:href="#shape1"/>
    </g>
    <use ffdec:characterId="3" height="53.4" transform="matrix(1.0, 0.0, 0.0, 1.0, 0.0, 0.0)" width="53.95" xlink:href="#shape2"/>
  </g>
  <defs>
    <g id="shape1" transform="matrix(1.0, 0.0, 0.0, 1.0, 1.2, 0.75)">
      <path d="M51.35 31.45 L51.05 32.9 Q50.6 34.05 50.0 34.05 49.15 34.05 49.15 32.45 49.15 31.6 49.7 31.15 50.1 30.85 50.45 30.85 L51.2 31.15 51.35 31.45 M49.45 36.55 L49.2 37.3 Q48.5 39.5 47.1 41.8 45.4 44.7 44.75 44.7 44.45 44.7 44.45 44.25 44.45 43.35 46.45 38.75 L47.75 36.15 Q48.25 35.4 48.75 35.4 L49.25 35.7 49.45 36.55 M20.7 13.35 L20.7 13.95 20.45 14.9 Q20.2 15.2 19.6 15.2 18.9 15.2 18.5 14.55 18.25 14.05 18.25 13.55 18.25 12.85 18.65 12.4 L18.95 12.15 19.5 12.05 Q20.1 12.05 20.45 12.55 L20.7 13.05 20.7 13.35 M28.4 40.5 L27.6 40.9 26.35 41.25 25.35 41.3 Q22.0 41.45 19.85 39.1 17.7 36.75 17.5 33.85 17.35 30.9 18.25 28.55 19.2 26.2 19.5 26.0 L22.45 27.95 Q21.1 29.6 20.85 31.7 20.55 34.25 21.4 36.65 L22.05 38.05 23.0 39.25 Q24.35 40.85 26.35 40.9 L27.45 40.8 28.4 40.5 M25.15 32.9 L25.15 33.2 25.1 33.75 24.8 34.4 Q24.35 34.95 23.7 34.95 23.05 34.95 22.55 34.3 L22.45 34.1 Q21.95 33.35 21.95 32.9 21.95 32.25 22.55 31.75 23.05 31.35 23.5 31.35 24.15 31.35 24.65 31.95 L24.75 32.0 24.8 32.15 25.15 32.9" fill="#ffffff" fill-rule="evenodd" stroke="none"/>
      <path d="M20.25 9.9 L24.4 9.75 24.8 9.75 24.9 9.75 Q27.75 10.25 30.9 11.5 L33.1 12.4 30.95 11.8 27.75 11.4 Q25.1 11.4 23.35 13.6 L22.95 14.15 22.8 13.4 22.45 12.7 21.6 11.95 21.4 11.85 Q20.55 11.35 20.25 9.9 M47.65 43.7 L45.75 46.6 44.25 48.55 40.7 52.65 39.7 50.3 39.4 49.55 38.3 47.6 37.05 46.2 36.95 46.3 Q33.3 48.6 31.75 48.15 L28.35 45.5 27.5 45.7 26.35 46.2 25.9 46.5 Q25.1 46.95 24.3 47.7 L24.05 47.7 23.2 47.7 20.7 47.6 16.9 47.6 15.85 47.6 6.35 47.25 5.8 47.2 5.45 45.3 5.4 45.0 Q4.95 41.4 5.5 36.9 L5.6 36.0 5.7 35.2 Q9.5 35.0 13.35 33.7 11.1 29.6 15.85 21.85 16.9 20.0 18.45 17.95 20.1 17.9 21.4 17.0 L21.8 16.7 Q21.25 18.6 21.25 21.1 21.25 22.9 21.95 25.4 L23.05 28.35 22.45 27.95 19.5 26.0 Q19.2 26.2 18.25 28.55 17.35 30.9 17.5 33.85 17.7 36.75 19.85 39.1 22.0 41.45 25.35 41.3 L26.35 41.25 27.6 40.9 28.4 40.5 30.15 39.0 Q31.75 36.95 32.3 34.5 L32.5 33.35 32.45 32.8 34.25 32.9 Q34.3 35.7 31.75 38.85 L29.05 41.35 Q27.75 42.25 26.35 42.65 L24.2 42.95 Q21.7 42.95 19.8 42.05 19.3 41.75 18.8 41.6 L16.1 38.35 15.2 37.3 13.5 39.4 12.1 41.15 10.05 43.75 12.15 43.8 12.6 43.85 13.95 43.85 14.05 43.85 14.05 44.1 14.25 44.4 Q15.6 46.3 20.7 46.3 22.15 46.3 24.85 45.4 L26.35 44.85 26.55 44.8 26.75 44.7 28.25 44.05 Q29.15 45.15 32.25 47.25 35.45 46.25 36.65 44.9 37.45 45.25 38.85 46.85 L41.0 50.25 41.15 50.25 45.9 45.7 47.65 43.7 M32.75 52.05 L33.85 53.5 33.15 53.5 32.15 53.1 31.65 53.0 Q30.9 53.0 30.4 53.5 L29.15 53.5 28.85 52.55 30.45 52.65 32.75 52.05 M21.1 53.5 L9.6 53.5 9.65 53.45 Q11.4 51.95 13.75 51.95 15.2 51.95 20.35 53.2 L21.15 53.4 21.1 53.5 M9.05 53.5 L8.3 53.5 Q7.95 52.6 6.5 52.2 L4.85 52.4 Q4.0 52.75 3.05 53.5 L0.2 53.5 2.0 52.05 Q3.0 51.3 3.9 50.9 4.95 50.35 5.9 50.25 L6.7 50.15 Q9.05 50.15 9.05 53.15 L9.05 53.5 M25.1 33.75 L25.15 33.2 25.15 32.9 25.1 33.75" fill="#3f4255" fill-rule="evenodd" stroke="none"/>
      <path d="M39.4 49.55 L37.2 50.05 36.75 49.05 Q35.65 48.4 34.4 49.05 L31.75 49.85 30.95 49.75 30.75 49.7 30.55 49.65 Q28.95 49.0 27.7 47.8 27.4 47.5 26.95 47.6 L26.75 47.7 26.35 48.0 25.7 48.65 Q25.1 49.35 25.2 50.2 L25.25 50.55 24.3 49.35 21.15 53.4 20.35 53.2 Q15.2 51.95 13.75 51.95 11.4 51.95 9.65 53.45 L9.6 53.5 9.05 53.5 9.05 53.15 Q9.05 50.15 6.7 50.15 L5.9 50.25 Q4.95 50.35 3.9 50.9 3.0 51.3 2.0 52.05 L0.2 53.5 -0.7 53.5 -0.7 52.75 -0.7 46.85 -0.1 46.2 Q1.3 45.0 3.15 45.0 L5.45 45.3 5.8 47.2 6.35 47.25 15.85 47.6 16.9 47.6 20.7 47.6 23.2 47.7 24.3 49.35 23.2 47.7 24.05 47.7 24.3 47.7 Q25.1 46.95 25.9 46.5 L26.35 46.2 27.5 45.7 28.35 45.5 31.75 48.15 Q33.3 48.6 36.95 46.3 L37.05 46.2 38.3 47.6 39.4 49.55 M29.15 53.5 L27.55 53.5 26.9 52.5 26.05 51.25 26.35 51.5 26.7 51.75 Q27.75 52.35 28.85 52.55 L29.15 53.5 M6.35 47.25 L3.95 49.2 3.8 49.25 -0.7 52.75 3.8 49.25 3.95 49.2 6.35 47.25 M9.65 53.45 L9.7 53.3 10.1 52.6 10.6 51.4 10.1 52.6 9.7 53.3 9.65 53.45" fill="#31353e" fill-rule="evenodd" stroke="none"/>
      <path d="M51.3 25.4 L53.2 27.75 Q52.5 34.15 50.4 38.65 L47.65 43.7 45.9 45.7 41.15 50.25 41.0 50.25 38.85 46.85 Q37.45 45.25 36.65 44.9 35.45 46.25 32.25 47.25 29.15 45.15 28.25 44.05 L26.75 44.7 26.55 44.8 26.35 44.85 24.85 45.4 Q22.15 46.3 20.7 46.3 15.6 46.3 14.25 44.4 L14.05 44.1 14.05 43.85 14.25 43.85 16.65 43.85 20.6 43.8 20.0 43.05 19.25 42.1 18.8 41.6 Q19.3 41.75 19.8 42.05 21.7 42.95 24.2 42.95 L26.35 42.65 Q27.75 42.25 29.05 41.35 L31.75 38.85 Q34.3 35.7 34.25 32.9 L32.45 32.8 Q30.2 32.35 26.35 30.25 L23.05 28.35 21.95 25.4 Q21.25 22.9 21.25 21.1 21.25 18.6 21.8 16.7 22.95 15.7 22.95 14.2 L22.95 14.15 23.35 13.6 Q25.1 11.4 27.75 11.4 L30.95 11.8 33.1 12.4 35.7 13.7 Q37.7 14.75 39.9 16.1 L40.15 16.25 Q43.85 18.55 46.85 21.15 L44.7 24.35 39.5 21.95 37.5 21.0 37.35 20.95 29.2 17.1 28.2 23.25 38.35 28.05 Q43.9 30.7 46.95 31.45 L49.6 27.75 51.3 25.4 M37.2 50.05 Q35.7 50.5 34.4 51.25 L32.75 52.05 30.45 52.65 28.85 52.55 Q27.75 52.35 26.7 51.75 L26.35 51.5 26.05 51.25 25.25 50.55 25.2 50.2 Q25.1 49.35 25.7 48.65 L26.35 48.0 26.75 47.7 26.95 47.6 Q27.4 47.5 27.7 47.8 28.95 49.0 30.55 49.65 L30.75 49.7 30.95 49.75 31.75 49.85 34.4 49.05 Q35.65 48.4 36.75 49.05 L37.2 50.05 M33.15 53.5 L30.4 53.5 Q30.9 53.0 31.65 53.0 L32.15 53.1 33.15 53.5 M8.3 53.5 L3.05 53.5 Q4.0 52.75 4.85 52.4 L6.5 52.2 Q7.95 52.6 8.3 53.5 M49.45 36.55 L49.25 35.7 48.75 35.4 Q48.25 35.4 47.75 36.15 L46.45 38.75 Q44.45 43.35 44.45 44.25 44.45 44.7 44.75 44.7 45.4 44.7 47.1 41.8 48.5 39.5 49.2 37.3 L49.45 36.55 M51.35 31.45 L51.2 31.15 50.45 30.85 Q50.1 30.85 49.7 31.15 49.15 31.6 49.15 32.45 49.15 34.05 50.0 34.05 50.6 34.05 51.05 32.9 L51.35 31.45" fill="#575d75" fill-rule="evenodd" stroke="none"/>
      <path d="M47.15 21.4 L51.3 25.4 49.6 27.75 46.95 31.45 Q43.9 30.7 38.35 28.05 L28.2 23.25 29.2 17.1 37.35 20.95 37.5 21.0 39.5 21.95 44.7 24.35 46.85 21.15 47.15 21.4 M-0.7 44.3 L-0.7 37.3 0.3 36.6 2.0 36.45 Q3.8 36.4 5.5 36.9 4.95 41.4 5.4 45.0 L4.3 44.7 Q2.55 44.25 1.05 44.75 L-0.7 44.3 M19.25 42.1 L20.0 43.05 20.6 43.8 16.65 43.85 14.25 43.85 14.35 43.3 14.8 42.5 Q15.5 41.9 16.85 41.9 L19.25 42.1" fill="#76fcff" fill-rule="evenodd" stroke="none"/>
      <path d="M21.6 53.5 L21.1 53.5 21.15 53.4 21.6 53.5 M-0.7 45.7 L-0.7 44.3 1.05 44.75 Q0.1 45.05 -0.7 45.7 M-0.7 37.3 L-0.7 36.9 0.3 36.6 -0.7 37.3" fill="#0bfdfd" fill-rule="evenodd" stroke="none"/>
      <path d="M27.55 53.5 L21.6 53.5 21.15 53.4 24.3 49.35 25.25 50.55 26.05 51.25 26.9 52.5 27.55 53.5 M18.8 41.6 L19.25 42.1 16.85 41.9 Q15.5 41.9 14.8 42.5 L14.35 43.3 14.25 43.85 14.05 43.85 13.95 43.85 12.6 43.85 12.15 43.8 10.05 43.75 12.1 41.15 13.5 39.4 15.2 37.3 16.1 38.35 18.8 41.6" fill="#0ecce0" fill-rule="evenodd" stroke="none"/>
      <path d="M30.9 11.5 Q30.35 7.55 31.6 0.15 L33.05 3.2 Q33.9 5.0 35.15 5.0 35.95 5.0 37.0 4.15 L38.2 3.25 Q41.5 3.25 44.7 11.95 L47.05 18.0 Q47.8 19.5 48.55 20.15 L47.15 21.4 46.85 21.15 Q43.85 18.55 40.15 16.25 L39.9 16.1 Q37.7 14.75 35.7 13.7 L33.1 12.4 30.9 11.5 M45.0 14.2 Q43.1 10.5 41.35 8.85 39.65 7.15 38.4 7.35 37.2 7.45 36.2 10.95 L35.7 13.7 36.2 10.95 Q37.2 7.45 38.4 7.35 39.65 7.15 41.35 8.85 43.1 10.5 45.0 14.2 M18.45 17.95 Q16.9 20.0 15.85 21.85 13.05 19.05 10.9 18.45 L9.6 18.2 Q8.35 18.2 7.4 19.25 6.6 20.1 6.6 20.75 6.6 21.95 8.4 24.05 L8.45 24.1 Q10.1 26.05 10.9 26.3 L8.6 26.25 7.8 26.2 2.8 25.5 1.5 24.2 Q0.45 22.75 0.45 20.95 0.45 19.65 1.1 18.3 L3.1 15.2 3.2 15.05 3.3 14.9 3.45 14.65 3.95 14.05 5.5 12.4 7.15 10.95 8.3 10.0 9.5 9.15 11.55 7.75 12.7 7.1 12.95 7.05 13.2 7.1 Q13.65 7.25 13.75 7.75 L13.6 9.6 13.0 12.7 Q12.75 14.0 13.0 14.8 L13.05 15.0 13.6 16.2 14.9 17.35 Q15.85 18.0 16.7 18.0 L18.45 17.95" fill="#6e5f76" fill-rule="evenodd" stroke="none"/>
      <path d="M6.1 -0.25 L8.25 -0.25 Q3.75 3.85 -0.7 9.35 L-0.7 7.65 Q1.65 4.45 4.55 1.35 L6.1 -0.25 M20.4 -0.25 L22.35 -0.25 21.45 3.25 Q20.6 6.95 20.25 9.8 L20.25 9.9 Q20.55 11.35 21.4 11.85 L21.6 11.95 21.65 12.15 21.4 12.95 20.8 13.35 20.7 13.35 20.7 13.05 20.45 12.55 Q20.1 12.05 19.5 12.05 L18.95 12.15 Q18.65 11.5 18.65 10.45 L18.65 10.05 Q18.65 9.05 19.8 2.95 L20.4 -0.25 M36.1 -0.25 L41.4 -0.25 46.05 5.35 Q51.95 12.35 50.25 17.3 L49.75 17.45 Q48.9 17.45 48.45 16.25 L47.3 12.85 44.45 7.35 Q42.65 4.55 41.0 2.65 39.25 0.65 38.55 0.65 L38.2 0.9 37.75 1.2 Q36.75 1.2 36.1 -0.25" fill="#ebb8f0" fill-rule="evenodd" stroke="none"/>
      <path d="M17.4 -0.25 L20.4 -0.25 19.8 2.95 Q18.65 9.05 18.65 10.05 L18.65 10.45 Q18.65 11.5 18.95 12.15 L18.65 12.4 Q18.25 12.85 18.25 13.55 18.25 14.05 18.5 14.55 18.9 15.2 19.6 15.2 20.2 15.2 20.45 14.9 L20.7 13.95 20.7 13.35 20.8 13.35 21.4 12.95 21.65 12.15 21.6 11.95 22.45 12.7 22.8 13.4 Q22.7 16.4 19.05 16.4 17.0 16.4 16.25 14.8 15.85 13.9 15.8 12.15 L15.75 11.45 Q15.75 8.15 16.7 3.5 L17.4 -0.25 M31.6 0.15 L31.65 -0.05 31.7 -0.25 36.1 -0.25 Q36.75 1.2 37.75 1.2 L38.2 0.9 38.55 0.65 Q39.25 0.65 41.0 2.65 42.65 4.55 44.45 7.35 L47.3 12.85 48.45 16.25 Q48.9 17.45 49.75 17.45 L50.25 17.3 Q49.75 18.8 48.55 20.15 47.8 19.5 47.05 18.0 L44.7 11.95 Q41.5 3.25 38.2 3.25 L37.0 4.15 Q35.95 5.0 35.15 5.0 33.9 5.0 33.05 3.2 L31.6 0.15" fill="#bb98c0" fill-rule="evenodd" stroke="none"/>
      <path d="M25.15 32.9 L24.8 32.15 24.75 32.0 24.65 31.95 24.85 31.95 26.35 32.35 28.45 33.2 Q30.85 34.25 32.3 34.5 31.75 36.95 30.15 39.0 L28.4 40.5 27.45 40.8 26.35 40.2 25.7 39.8 Q22.55 37.65 22.55 34.5 L22.55 34.3 Q23.05 34.95 23.7 34.95 24.35 34.95 24.8 34.4 L25.1 33.75 25.15 32.9" fill="#d07185" fill-rule="evenodd" stroke="none"/>
      <path d="M-0.7 9.35 Q3.75 3.85 8.25 -0.25 L17.4 -0.25 16.7 3.5 Q15.75 8.15 15.75 11.45 L15.8 12.15 Q15.85 13.9 16.25 14.8 17.0 16.4 19.05 16.4 22.7 16.4 22.8 13.4 L22.95 14.15 22.95 14.2 Q22.95 15.7 21.8 16.7 L21.4 17.0 Q20.1 17.9 18.45 17.95 L16.7 18.0 Q15.85 18.0 14.9 17.35 L13.6 16.2 13.05 15.0 13.0 14.8 Q12.75 14.0 13.0 12.7 L13.6 9.6 13.75 7.75 Q13.65 7.25 13.2 7.1 L12.95 7.05 12.7 7.1 11.55 7.75 9.5 9.15 8.3 10.0 7.15 10.95 5.5 12.4 3.95 14.05 3.45 14.65 3.3 14.9 3.2 15.05 3.1 15.2 1.1 18.3 Q0.45 19.65 0.45 20.95 0.45 22.75 1.5 24.2 L2.8 25.5 7.8 26.2 8.6 26.25 10.9 26.3 Q10.1 26.05 8.45 24.1 L8.4 24.05 Q6.6 21.95 6.6 20.75 6.6 20.1 7.4 19.25 8.35 18.2 9.6 18.2 L10.9 18.45 Q13.05 19.05 15.85 21.85 11.1 29.6 13.35 33.7 9.5 35.0 5.7 35.2 L-0.7 34.7 -0.7 9.35 M6.35 26.3 L5.85 26.3 Q4.05 26.3 2.8 25.5 4.05 26.3 5.85 26.3 L6.35 26.3" fill="#7e5b79" fill-rule="evenodd" stroke="none"/>
      <path d="M23.05 28.35 L26.35 30.25 Q30.2 32.35 32.45 32.8 L32.5 33.35 32.3 34.5 Q30.85 34.25 28.45 33.2 L26.35 32.35 24.85 31.95 24.65 31.95 Q24.15 31.35 23.5 31.35 23.05 31.35 22.55 31.75 21.95 32.25 21.95 32.9 21.95 33.35 22.45 34.1 L22.55 34.3 22.55 34.5 Q22.55 37.65 25.7 39.8 L26.35 40.2 27.45 40.8 26.35 40.9 Q24.35 40.85 23.0 39.25 L22.05 38.05 21.4 36.65 Q20.55 34.25 20.85 31.7 21.1 29.6 22.45 27.95 L23.05 28.35" fill="#b33c54" fill-rule="evenodd" stroke="none"/>
      <path d="M-0.7 46.85 L-0.7 45.7 Q0.1 45.05 1.05 44.75 2.55 44.25 4.3 44.7 L5.4 45.0 5.45 45.3 3.15 45.0 Q1.3 45.0 -0.1 46.2 L-0.7 46.85" fill="#657181" fill-rule="evenodd" stroke="none"/>
      <path d="M51.3 25.4 L49.6 27.75 46.95 31.45 Q43.9 30.7 38.35 28.05 L28.2 23.25 29.2 17.1 37.35 20.95 37.5 21.0 39.5 21.95 44.7 24.35 46.85 21.15 M18.8 41.6 L19.25 42.1 20.0 43.05 20.6 43.8 16.65 43.85 14.25 43.85 14.05 43.85 13.95 43.85 12.6 43.85 12.15 43.8 10.05 43.75 12.1 41.15 13.5 39.4 15.2 37.3 16.1 38.35 18.8 41.6" fill="none" stroke="#23d3d2" stroke-linecap="round" stroke-linejoin="round" stroke-width="1.0"/>
      <path d="M6.1 -0.25 L4.55 1.35 Q1.65 4.45 -0.7 7.65 M22.35 -0.25 L21.45 3.25 Q20.6 6.95 20.25 9.8 L20.25 9.9 24.4 9.75 24.8 9.75 24.9 9.75 Q27.75 10.25 30.9 11.5 30.35 7.55 31.6 0.15 L31.65 -0.05 31.7 -0.25 M41.4 -0.25 L46.05 5.35 Q51.95 12.35 50.25 17.3 49.75 18.8 48.55 20.15 L47.15 21.4 51.3 25.4 53.2 27.75 Q52.5 34.15 50.4 38.65 L47.65 43.7 45.75 46.6 44.25 48.55 40.7 52.65 39.7 50.3 39.4 49.55 37.2 50.05 Q35.7 50.5 34.4 51.25 L32.75 52.05 33.85 53.5 M-0.7 36.9 L0.3 36.6 2.0 36.45 Q3.8 36.4 5.5 36.9 L5.6 36.0 5.7 35.2 -0.7 34.7 M5.45 45.3 L5.4 45.0 Q4.95 41.4 5.5 36.9 M46.85 21.15 Q43.85 18.55 40.15 16.25 L39.9 16.1 Q37.7 14.75 35.7 13.7 L33.1 12.4 30.9 11.5 M22.95 14.15 L22.95 14.2 Q22.95 15.7 21.8 16.7 L21.4 17.0 Q20.1 17.9 18.45 17.95 16.9 20.0 15.85 21.85 11.1 29.6 13.35 33.7 9.5 35.0 5.7 35.2 M23.05 28.35 L26.35 30.25 Q30.2 32.35 32.45 32.8 L34.25 32.9 M46.85 21.15 L47.15 21.4 M35.7 13.7 L36.2 10.95 Q37.2 7.45 38.4 7.35 39.65 7.15 41.35 8.85 43.1 10.5 45.0 14.2 M20.25 9.9 Q20.55 11.35 21.4 11.85 L21.6 11.95 22.45 12.7 22.8 13.4 22.95 14.15 M18.45 17.95 L16.7 18.0 Q15.85 18.0 14.9 17.35 L13.6 16.2 13.05 15.0 13.0 14.8 Q12.75 14.0 13.0 12.7 L13.6 9.6 13.75 7.75 Q13.65 7.25 13.2 7.1 L12.95 7.05 12.7 7.1 11.55 7.75 9.5 9.15 8.3 10.0 7.15 10.95 5.5 12.4 3.95 14.05 3.45 14.65 3.3 14.9 3.2 15.05 3.1 15.2 1.1 18.3 Q0.45 19.65 0.45 20.95 0.45 22.75 1.5 24.2 L2.8 25.5 Q4.05 26.3 5.85 26.3 L6.35 26.3 M28.4 40.5 L27.6 40.9 26.35 41.25 25.35 41.3 Q22.0 41.45 19.85 39.1 17.7 36.75 17.5 33.85 17.35 30.9 18.25 28.55 19.2 26.2 19.5 26.0 L22.45 27.95 23.05 28.35 M-0.7 52.75 L3.8 49.25 3.95 49.2 6.35 47.25 5.8 47.2 5.45 45.3 M23.2 47.7 L20.7 47.6 16.9 47.6 15.85 47.6 6.35 47.25 M32.3 34.5 L32.5 33.35 32.45 32.8 M32.3 34.5 Q31.75 36.95 30.15 39.0 L28.4 40.5 27.45 40.8 M24.3 49.35 L23.2 47.7 24.05 47.7 24.3 47.7 Q25.1 46.95 25.9 46.5 L26.35 46.2 27.5 45.7 28.35 45.5 31.75 48.15 Q33.3 48.6 36.95 46.3 L37.05 46.2 38.3 47.6 39.4 49.55 M25.25 50.55 L26.05 51.25 26.35 51.5 26.7 51.75 Q27.75 52.35 28.85 52.55 L30.45 52.65 32.75 52.05 M28.85 52.55 L29.15 53.5 M9.65 53.45 L9.6 53.5 M10.6 51.4 L10.1 52.6 9.7 53.3 9.65 53.45 M25.25 50.55 L24.3 49.35" fill="none" stroke="#1e2026" stroke-linecap="round" stroke-linejoin="round" stroke-width="1.0"/>
      <path d="M5.4 45.0 L4.3 44.7 Q2.55 44.25 1.05 44.75 0.1 45.05 -0.7 45.7" fill="none" stroke="#252b30" stroke-linecap="round" stroke-linejoin="round" stroke-width="1.0"/>
    </g>
    <g id="shape2" transform="matrix(1.0, 0.0, 0.0, 1.0, 0.0, 0.0)">
      <path d="M50.5 0.0 Q53.95 0.0 53.95 3.3 L53.95 50.15 Q53.95 53.4 50.5 53.4 L3.3 53.4 Q0.0 53.4 0.0 50.15 L0.0 3.3 Q0.0 0.0 3.3 0.0 L50.5 0.0" fill="#000000" fill-opacity="0.003921569" fill-rule="evenodd" stroke="none"/>
    </g>
  </defs>
</svg>
