<?xml version="1.0" encoding="UTF-8" standalone="no"?>
<svg xmlns:ffdec="https://www.free-decompiler.com/flash" xmlns:xlink="http://www.w3.org/1999/xlink" ffdec:objectType="frame" height="54.1px" width="55.45px" xmlns="http://www.w3.org/2000/svg">
  <g transform="matrix(1.0, 0.0, 0.0, 1.0, 0.85, 0.0)">
    <clipPath id="clipPath0" transform="matrix(1.0, 0.0, 0.0, 1.0, 0.0, 0.0)">
      <path d="M50.5 0.0 Q53.95 0.0 53.95 3.3 L53.95 50.15 Q53.95 53.4 50.5 53.4 L3.3 53.4 Q0.0 53.4 0.0 50.15 L0.0 3.3 Q0.0 0.0 3.3 0.0 L50.5 0.0" fill="#000000" fill-rule="evenodd" stroke="none"/>
    </clipPath>
    <g clip-path="url(#clipPath0)">
      <use ffdec:characterId="2" height="54.0" transform="matrix(1.0, 0.0, 0.0, 1.0, -0.85, 0.1)" width="55.45" xlink:href="#shape1"/>
    </g>
    <use ffdec:characterId="3" height="53.4" transform="matrix(1.0, 0.0, 0.0, 1.0, 0.0, 0.0)" width="53.95" xlink:href="#shape2"/>
  </g>
  <defs>
    <g id="shape1" transform="matrix(1.0, 0.0, 0.0, 1.0, 0.85, -0.1)">
      <path d="M45.3 41.05 L46.95 39.05 47.35 38.5 47.2 44.2 43.9 44.4 43.8 43.7 43.85 42.35 44.7 41.65 44.8 41.6 45.3 41.05 M48.5 53.1 L48.5 53.35 48.25 53.35 48.5 53.1 M21.0 45.75 L23.8 46.3 24.65 46.4 25.45 46.4 34.3 46.0 Q31.4 46.8 29.0 48.95 L28.2 49.75 27.0 49.6 26.05 49.7 25.6 50.35 Q24.75 51.85 24.75 53.35 L21.85 53.35 14.6 53.35 Q15.55 53.2 16.5 52.35 17.9 51.05 18.1 50.05 L18.1 48.4 16.2 48.85 15.2 48.65 14.6 48.0 Q14.3 47.4 14.3 46.7 14.3 45.75 15.05 45.1 15.75 44.45 16.75 44.45 L16.9 44.45 19.55 45.35 20.15 45.85 19.3 47.45 18.1 48.4 19.3 47.45 20.15 45.85 20.2 45.55 21.0 45.75 M6.3 16.3 L5.35 2.75 5.3 2.55 5.35 1.9 5.5 2.45 5.55 2.65 5.95 4.95 6.7 9.1 6.95 9.8 8.3 12.55 9.45 14.75 9.2 15.7 8.95 17.0 8.95 17.15 Q8.95 24.0 12.5 29.35 L13.05 30.05 12.9 30.35 12.4 31.85 16.05 37.4 11.45 41.35 9.05 39.1 8.65 38.65 8.65 38.5 8.85 34.55 Q8.95 32.5 9.7 31.45 L9.0 29.5 8.65 28.65 Q6.8 29.5 6.15 32.55 L5.95 34.45 5.65 40.15 5.45 43.4 Q4.35 42.95 3.3 42.1 3.7 40.2 3.9 36.4 4.15 32.65 4.6 30.75 L4.85 29.95 Q5.8 27.3 8.15 27.4 L8.45 27.4 8.15 27.4 Q5.8 27.3 4.85 29.95 L4.6 30.75 4.25 29.25 4.1 25.6 Q4.2 20.05 6.3 16.3 L8.0 13.9 6.3 16.3 M9.9 31.25 L9.7 31.45 9.9 31.25 M10.1 53.35 L10.3 52.4 10.45 51.0 10.35 49.8 Q10.55 50.5 11.1 51.4 12.25 53.15 13.65 53.35 L10.1 53.35 M10.3 49.0 L10.05 47.45 10.45 47.25 10.7 47.15 10.35 48.55 10.3 49.0 M38.5 53.35 L34.0 53.35 Q35.05 52.8 36.0 52.8 37.05 52.8 38.5 53.35 M21.85 53.35 Q22.3 52.05 23.15 51.15 24.35 49.95 26.05 49.7 24.35 49.95 23.15 51.15 22.3 52.05 21.85 53.35" fill="#886794" fill-rule="evenodd" stroke="none"/>
      <path d="M40.5 19.5 L43.25 16.55 40.55 13.95 42.7 11.55 Q46.7 14.95 49.1 20.1 L50.25 24.25 48.9 23.0 48.0 22.05 48.0 21.75 47.95 21.7 Q47.85 20.2 47.05 19.15 46.25 18.1 45.25 18.1 L45.05 18.1 45.0 17.85 44.1 17.85 42.85 18.55 41.7 19.15 40.9 19.65 40.5 19.5 M38.45 8.65 L36.75 10.5 33.7 8.3 31.95 10.05 Q31.95 8.1 31.15 7.05 L30.1 6.15 34.55 6.95 Q36.6 7.65 38.45 8.65 M31.15 12.3 L33.55 14.3 31.3 16.85 33.35 18.7 Q31.15 18.85 28.95 19.6 L28.5 18.05 27.55 16.7 26.15 15.7 Q25.65 15.45 25.05 15.35 L24.5 15.25 24.45 15.25 23.9 15.2 Q22.65 15.2 21.6 15.7 L20.25 16.7 19.95 17.05 Q18.5 18.0 16.8 19.85 L15.2 21.65 Q12.4 17.7 11.45 13.8 L11.0 11.35 Q11.75 10.55 12.65 9.9 L13.95 9.05 12.65 9.9 Q11.75 10.55 11.0 11.35 L6.25 0.9 6.9 0.85 7.05 0.85 6.95 0.95 7.85 1.8 10.1 4.15 Q13.1 7.25 13.95 9.0 L13.95 9.05 14.05 9.0 16.05 7.95 Q17.25 7.4 18.6 6.95 L19.6 6.7 19.75 6.7 19.45 6.95 Q17.8 8.4 17.7 9.8 L17.7 9.9 17.7 10.05 Q17.7 11.9 19.05 13.05 20.5 14.25 23.0 14.25 L23.65 14.25 24.2 14.25 26.4 14.1 28.5 13.75 Q30.35 13.25 31.15 12.3 M35.8 18.65 L37.35 16.9 40.45 19.5 Q38.1 18.75 35.8 18.65 M47.35 38.5 L48.65 36.3 49.05 35.45 49.05 36.55 48.85 42.45 Q48.2 43.65 47.2 44.2 L47.35 38.5 M44.15 47.65 Q46.5 47.95 47.85 50.65 48.45 51.9 48.5 53.1 L48.25 53.35 38.5 53.35 Q37.05 52.8 36.0 52.8 35.05 52.8 34.0 53.35 L29.25 53.35 29.3 53.2 Q29.3 51.3 27.75 51.35 26.2 51.4 26.2 53.25 L26.2 53.35 24.75 53.35 Q24.75 51.85 25.6 50.35 L26.05 49.7 27.0 49.6 28.2 49.75 29.0 48.95 Q31.4 46.8 34.3 46.0 L36.0 45.65 Q36.8 48.35 39.0 48.7 L42.3 47.7 44.15 47.65 M44.5 49.05 Q43.05 48.85 43.05 50.85 43.05 51.3 43.5 52.0 44.1 52.95 45.1 52.95 45.65 52.95 46.05 52.25 L46.15 52.05 46.5 51.1 Q46.5 49.45 44.75 49.05 L44.5 49.05 M5.45 43.4 L5.65 40.15 5.95 34.45 6.15 32.55 Q6.8 29.5 8.65 28.65 L9.0 29.5 9.7 31.45 Q8.95 32.5 8.85 34.55 L8.65 38.5 8.65 38.65 Q8.7 40.85 9.4 44.2 7.4 44.35 5.45 43.4 M10.35 49.8 Q10.25 49.4 10.3 49.0 L10.35 48.55 10.7 47.15 13.1 47.25 Q14.05 47.55 14.6 48.0 L15.2 48.65 16.2 48.85 18.1 48.4 18.1 50.05 Q17.9 51.05 16.5 52.35 15.55 53.2 14.6 53.35 L13.65 53.35 Q12.25 53.15 11.1 51.4 10.55 50.5 10.35 49.8 M11.7 49.1 Q11.7 49.6 12.05 50.25 12.55 51.15 13.5 51.15 L14.25 50.7 14.5 50.2 Q14.5 48.6 13.1 48.3 11.7 47.95 11.7 49.1 M31.35 51.75 L29.5 50.35 Q28.9 49.95 28.2 49.75 28.9 49.95 29.5 50.35 L31.35 51.75" fill="#9f92a4" fill-rule="evenodd" stroke="none"/>
      <path d="M26.95 28.55 L26.05 31.05 25.3 33.1 23.3 39.0 Q20.2 37.6 17.6 35.3 15.5 33.5 12.9 30.35 L13.05 30.05 13.95 28.45 Q14.5 27.65 15.2 26.95 16.3 25.8 17.75 24.8 L18.1 25.3 18.25 25.5 19.7 27.1 21.3 28.75 22.6 29.85 23.35 30.45 23.95 30.05 24.1 30.0 26.85 28.2 27.15 28.05 26.95 28.55 M44.95 31.2 L45.05 31.35 45.65 32.4 45.85 32.55 Q46.4 32.95 47.45 32.95 L47.5 32.95 49.0 32.75 50.1 32.2 49.05 35.45 48.65 36.3 47.35 38.5 46.95 39.05 45.3 41.05 44.95 31.2 M48.85 42.45 L48.85 43.05 Q48.85 44.4 49.2 45.4 49.55 46.2 50.05 46.45 L50.0 47.4 Q50.0 49.75 51.5 51.65 52.5 52.95 53.6 53.35 L48.5 53.35 48.5 53.1 Q48.45 51.9 47.85 50.65 46.5 47.95 44.15 47.65 43.8 46.05 43.9 44.4 L47.2 44.2 Q48.2 43.65 48.85 42.45 M3.3 42.1 Q4.35 42.95 5.45 43.4 5.15 46.0 4.55 47.45 3.25 50.9 -0.1 51.0 L-0.1 46.05 Q2.2 45.9 3.1 43.0 L3.3 42.1" fill="#fbaea6" fill-rule="evenodd" stroke="none"/>
      <path d="M40.5 19.5 L40.9 19.65 42.45 20.2 43.25 20.55 43.2 21.3 43.2 21.55 43.25 21.75 Q43.4 23.25 44.2 24.3 L44.55 24.7 Q45.25 25.4 46.0 25.4 46.85 25.4 47.45 24.55 49.35 26.2 50.5 29.7 L50.1 32.2 49.0 32.75 47.5 32.95 47.45 32.95 Q46.4 32.95 45.85 32.55 L45.65 32.4 45.05 31.35 44.95 31.2 44.9 28.6 42.75 28.55 42.55 28.55 27.15 28.05 26.85 28.2 24.1 30.0 23.95 30.05 23.35 30.45 22.6 29.85 21.3 28.75 19.7 27.1 18.25 25.5 18.1 25.3 17.75 24.8 18.25 24.45 19.8 23.5 20.25 23.95 Q21.75 25.5 23.9 25.5 L24.65 25.45 25.1 25.35 27.55 23.95 28.4 22.85 28.95 21.1 29.0 20.35 28.95 19.6 Q31.15 18.85 33.35 18.7 L34.7 19.9 35.8 18.65 Q38.1 18.75 40.45 19.5 L40.5 19.5 M40.7 22.15 L38.05 21.75 35.4 22.15 Q34.35 22.6 34.35 23.2 34.35 23.8 35.4 24.25 L38.05 24.65 40.7 24.25 Q41.8 23.8 41.8 23.2 41.8 22.6 40.7 22.15 M53.6 53.35 Q52.5 52.95 51.5 51.65 50.0 49.75 50.0 47.4 L50.05 46.45 50.65 46.6 51.45 46.35 51.7 46.15 52.15 45.95 52.25 45.85 52.9 45.4 Q53.4 45.05 53.85 45.0 L53.85 46.6 Q53.1 46.95 53.1 48.2 53.1 48.7 53.6 49.3 L53.85 49.6 53.85 53.35 53.6 53.35 M5.45 43.4 Q7.4 44.35 9.4 44.2 L9.55 44.95 10.05 47.45 10.3 49.0 Q10.25 49.4 10.35 49.8 L10.45 51.0 10.3 52.4 10.1 53.35 7.85 53.35 8.15 52.65 8.6 51.0 Q8.6 49.75 8.15 49.25 L7.95 49.05 6.5 49.1 Q5.65 49.5 5.05 50.4 4.4 51.35 4.4 52.3 4.4 52.75 4.85 53.35 L-0.1 53.35 -0.1 51.0 Q3.25 50.9 4.55 47.45 5.15 46.0 5.45 43.4" fill="#fac1b8" fill-rule="evenodd" stroke="none"/>
      <path d="M40.7 22.15 Q41.8 22.6 41.8 23.2 41.8 23.8 40.7 24.25 L38.05 24.65 35.4 24.25 Q34.35 23.8 34.35 23.2 34.35 22.6 35.4 22.15 L38.05 21.75 40.7 22.15 M53.85 46.6 L53.85 49.6 53.6 49.3 Q53.1 48.7 53.1 48.2 53.1 46.95 53.85 46.6 M4.85 53.35 Q4.4 52.75 4.4 52.3 4.4 51.35 5.05 50.4 5.65 49.5 6.5 49.1 L7.95 49.05 8.15 49.25 Q8.6 49.75 8.6 51.0 L8.15 52.65 7.85 53.35 4.85 53.35" fill="#fde9d5" fill-rule="evenodd" stroke="none"/>
      <path d="M44.5 49.05 L44.75 49.05 Q46.5 49.45 46.5 51.1 L46.15 52.05 46.05 52.25 Q45.65 52.95 45.1 52.95 44.1 52.95 43.5 52.0 43.05 51.3 43.05 50.85 43.05 48.85 44.5 49.05 M22.75 8.95 Q22.8 8.2 23.65 7.8 L25.15 7.45 25.6 7.45 25.8 7.5 Q26.7 7.55 27.4 8.05 L27.8 8.4 Q28.65 9.15 28.7 10.0 L28.7 10.2 28.65 10.45 Q28.55 11.1 28.0 11.4 L26.75 11.75 26.4 11.75 Q25.05 11.75 23.85 10.8 L23.15 10.15 22.8 9.55 22.75 9.0 22.75 8.95 M11.05 2.5 L11.15 2.55 19.6 6.7 18.6 6.95 Q17.25 7.4 16.05 7.95 L7.05 0.85 8.5 1.3 9.4 1.65 11.05 2.5 M11.7 49.1 Q11.7 47.95 13.1 48.3 14.5 48.6 14.5 50.2 L14.25 50.7 13.5 51.15 Q12.55 51.15 12.05 50.25 11.7 49.6 11.7 49.1 M29.25 53.35 L26.2 53.35 26.2 53.25 Q26.2 51.4 27.75 51.35 29.3 51.3 29.3 53.2 L29.25 53.35" fill="#dac8e2" fill-rule="evenodd" stroke="none"/>
      <path d="M40.9 19.65 L41.7 19.15 42.85 18.55 44.1 17.85 45.0 17.85 45.05 18.1 Q44.2 18.2 43.7 19.1 L43.7 19.15 Q43.35 19.8 43.25 20.55 L42.45 20.2 40.9 19.65 M48.0 22.05 L48.9 23.0 50.25 24.25 Q50.65 26.7 50.55 29.05 L50.5 29.7 Q49.35 26.2 47.45 24.55 L47.6 24.3 47.85 23.75 47.85 23.6 48.05 22.4 48.0 22.05 M19.95 17.05 Q18.75 18.4 18.75 20.3 L18.75 20.35 18.75 20.55 18.95 21.9 19.0 22.1 19.35 22.85 19.8 23.5 18.25 24.45 17.75 24.8 Q16.3 25.8 15.2 26.95 14.5 27.65 13.95 28.45 L13.05 30.05 12.5 29.35 Q8.95 24.0 8.95 17.15 L8.95 17.0 9.2 15.7 9.45 14.75 8.3 12.55 6.95 9.8 6.7 9.1 5.95 4.95 5.55 2.65 5.5 2.45 5.35 1.9 Q5.55 1.05 6.25 0.9 L11.0 11.35 11.45 13.8 Q12.4 17.7 15.2 21.65 L16.8 19.85 Q18.5 18.0 19.95 17.05" fill="#8b6d97" fill-rule="evenodd" stroke="none"/>
      <path d="M42.7 11.55 L40.55 13.95 43.25 16.55 40.5 19.5 40.45 19.5 37.35 16.9 35.8 18.65 34.7 19.9 33.35 18.7 31.3 16.85 33.55 14.3 31.15 12.3 30.4 11.6 31.95 10.05 33.7 8.3 36.75 10.5 38.45 8.65 42.7 11.55" fill="#b21f55" fill-rule="evenodd" stroke="none"/>
      <path d="M31.95 10.05 L30.4 11.6 31.15 12.3 Q30.35 13.25 28.5 13.75 L26.4 14.1 24.2 14.25 23.65 14.25 23.0 14.25 Q20.5 14.25 19.05 13.05 17.7 11.9 17.7 10.05 L17.7 9.9 17.7 9.8 Q17.8 8.4 19.45 6.95 L19.75 6.7 20.15 6.6 27.75 6.0 30.1 6.15 31.15 7.05 Q31.95 8.1 31.95 10.05 M22.75 8.95 L22.75 9.0 22.8 9.55 23.15 10.15 23.85 10.8 Q25.05 11.75 26.4 11.75 L26.75 11.75 28.0 11.4 Q28.55 11.1 28.65 10.45 L28.7 10.2 28.7 10.0 Q28.65 9.15 27.8 8.4 L27.4 8.05 Q26.7 7.55 25.8 7.5 L25.6 7.45 25.15 7.45 23.65 7.8 Q22.8 8.2 22.75 8.95 M7.05 0.85 L16.05 7.95 14.05 9.0 13.95 9.05 13.95 9.0 Q13.1 7.25 10.1 4.15 L7.85 1.8 6.95 0.95 7.05 0.85" fill="#bdacc4" fill-rule="evenodd" stroke="none"/>
      <path d="M45.05 18.1 L45.25 18.1 Q46.25 18.1 47.05 19.15 47.85 20.2 47.95 21.7 L48.0 21.75 48.0 22.05 48.05 22.4 47.85 23.6 47.85 23.75 47.6 24.3 47.45 24.55 Q46.85 25.4 46.0 25.4 45.25 25.4 44.55 24.7 L44.2 24.3 Q43.4 23.25 43.25 21.75 L43.2 21.55 43.2 21.3 43.25 20.55 Q43.35 19.8 43.7 19.15 L43.7 19.1 Q44.2 18.2 45.05 18.1 M26.95 28.55 L27.15 29.45 27.3 30.2 31.95 28.85 Q32.85 28.85 33.9 29.8 L35.15 30.7 37.15 29.95 39.25 29.2 40.8 29.7 41.8 29.35 42.55 28.55 42.75 28.55 44.9 28.6 43.05 32.8 Q42.55 33.85 41.85 33.05 L39.3 30.05 37.05 32.6 36.2 33.5 Q35.6 34.3 34.8 33.65 L34.6 33.45 31.45 29.85 27.95 33.15 27.65 33.45 Q27.35 33.65 27.05 33.25 L26.95 33.15 26.05 31.05 26.95 28.55 M41.7 38.85 L42.1 38.4 Q42.75 37.45 43.3 38.15 L43.45 38.3 44.7 41.65 43.85 42.35 42.25 43.4 41.7 41.4 40.9 39.7 41.7 38.85 M38.35 42.35 L37.45 43.1 36.4 43.95 Q34.45 40.8 33.85 40.5 L33.75 40.45 34.65 39.15 35.1 38.6 36.35 38.65 38.35 42.35 M31.4 42.15 L29.95 43.7 29.35 44.3 28.55 43.65 26.65 41.05 25.75 39.65 26.75 38.7 26.95 38.55 Q27.95 38.0 28.6 38.7 L31.4 42.15 M19.95 17.05 L20.25 16.7 21.6 15.7 Q22.65 15.2 23.9 15.2 L24.45 15.25 24.5 15.25 25.05 15.35 Q25.65 15.45 26.15 15.7 L27.55 16.7 28.5 18.05 28.95 19.6 29.0 20.35 28.95 21.1 28.4 22.85 27.55 23.95 25.1 25.35 24.65 25.45 23.9 25.5 Q21.75 25.5 20.25 23.95 L19.8 23.5 19.35 22.85 19.0 22.1 18.95 21.9 18.75 20.55 18.75 20.35 18.75 20.3 Q18.75 18.4 19.95 17.05" fill="#f2fbf8" fill-rule="evenodd" stroke="none"/>
      <path d="M26.05 31.05 L26.95 33.15 27.05 33.25 25.3 33.1 26.05 31.05 M27.65 33.45 L27.95 33.15 31.45 29.85 34.6 33.45 34.8 33.65 Q35.6 34.3 36.2 33.5 L37.05 32.6 Q40.45 35.25 41.6 38.55 L41.7 38.85 40.9 39.7 40.7 39.5 40.9 39.7 38.55 42.3 38.4 42.45 38.35 42.35 36.35 38.65 35.1 38.6 34.65 39.15 Q33.9 37.85 32.6 36.5 L30.8 35.05 29.65 34.25 27.65 33.45 M38.55 42.3 L38.35 42.35 38.55 42.3" fill="#b51b5b" fill-rule="evenodd" stroke="none"/>
      <path d="M21.8 43.55 L21.0 45.75 20.2 45.55 19.55 45.35 16.9 44.45 Q13.8 43.2 11.45 41.35 L16.05 37.4 12.4 31.85 12.9 30.35 Q15.5 33.5 17.6 35.3 20.2 37.6 23.3 39.0 L21.8 43.55" fill="#f58f8b" fill-rule="evenodd" stroke="none"/>
      <path d="M27.05 33.25 Q27.35 33.65 27.65 33.45 L29.65 34.25 30.8 35.05 32.6 36.5 Q33.9 37.85 34.65 39.15 L33.75 40.45 32.0 42.8 31.4 42.15 28.6 38.7 Q27.95 38.0 26.95 38.55 L26.75 38.7 25.75 39.65 21.8 43.55 23.3 39.0 25.3 33.1 27.05 33.25" fill="#691233" fill-rule="evenodd" stroke="none"/>
      <path d="M42.55 28.55 L41.8 29.35 40.8 29.7 39.25 29.2 37.15 29.95 35.15 30.7 33.9 29.8 Q32.85 28.85 31.95 28.85 L27.3 30.2 27.15 29.45 26.95 28.55 27.15 28.05 42.55 28.55 M40.9 39.7 L41.7 41.4 42.25 43.4 41.75 43.65 Q39.3 44.95 36.1 45.65 L36.0 45.65 34.3 46.0 25.45 46.4 24.65 46.4 23.8 46.3 21.0 45.75 21.8 43.55 25.75 39.65 26.65 41.05 28.55 43.65 29.35 44.3 29.95 43.7 31.4 42.15 32.0 42.8 33.75 40.45 33.85 40.5 Q34.45 40.8 36.4 43.95 L37.45 43.1 38.35 42.35 38.4 42.45 38.55 42.3 40.9 39.7" fill="#c7c0c0" fill-rule="evenodd" stroke="none"/>
      <path d="M37.05 32.6 L39.3 30.05 41.85 33.05 Q42.55 33.85 43.05 32.8 L44.9 28.6 44.95 31.2 45.3 41.05 44.8 41.6 44.7 41.65 43.45 38.3 43.3 38.15 Q42.75 37.45 42.1 38.4 L41.7 38.85 41.6 38.55 Q40.45 35.25 37.05 32.6" fill="#c42a8c" fill-rule="evenodd" stroke="none"/>
      <path d="M45.05 18.1 L45.25 18.1 Q46.25 18.1 47.05 19.15 47.85 20.2 47.95 21.7 L48.0 21.75 48.0 22.05 48.05 22.4 47.85 23.6 47.85 23.75 47.6 24.3 47.45 24.55 Q46.85 25.4 46.0 25.4 45.25 25.4 44.55 24.7 L44.2 24.3 Q43.4 23.25 43.25 21.75 L43.2 21.55 43.2 21.3 43.25 20.55 Q43.35 19.8 43.7 19.15 L43.7 19.1 Q44.2 18.2 45.05 18.1 M50.25 24.25 L49.1 20.1 Q46.7 14.95 42.7 11.55 L38.45 8.65 Q36.6 7.65 34.55 6.95 L30.1 6.15 27.75 6.0 20.15 6.6 19.75 6.7 19.6 6.7 11.15 2.55 M50.5 29.7 L50.55 29.05 Q50.65 26.7 50.25 24.25 M45.3 41.05 L46.95 39.05 47.35 38.5 48.65 36.3 49.05 35.45 50.1 32.2 50.5 29.7 M44.7 41.65 L44.8 41.6 45.3 41.05 M43.85 42.35 L44.7 41.65 M21.0 45.75 L23.8 46.3 24.65 46.4 25.45 46.4 34.3 46.0 36.0 45.65 36.1 45.65 Q39.3 44.95 41.75 43.65 L42.25 43.4 43.85 42.35 M28.95 19.6 L28.5 18.05 27.55 16.7 26.15 15.7 Q25.65 15.45 25.05 15.35 L24.5 15.25 24.45 15.25 23.9 15.2 Q22.65 15.2 21.6 15.7 L20.25 16.7 19.95 17.05 Q18.75 18.4 18.75 20.3 L18.75 20.35 18.75 20.55 18.95 21.9 19.0 22.1 19.35 22.85 19.8 23.5 20.25 23.95 Q21.75 25.5 23.9 25.5 L24.65 25.45 25.1 25.35 27.55 23.95 28.4 22.85 28.95 21.1 29.0 20.35 28.95 19.6 M11.05 2.5 L9.4 1.65 8.5 1.3 7.05 0.85 6.9 0.85 6.25 0.9 Q5.55 1.05 5.35 1.9 L5.3 2.55 5.35 2.75 6.3 16.3 8.0 13.9 M16.05 7.95 Q17.25 7.4 18.6 6.95 L19.6 6.7 M13.95 9.05 L12.65 9.9 Q11.75 10.55 11.0 11.35 M13.95 9.05 L14.05 9.0 16.05 7.95 M11.45 41.35 Q13.8 43.2 16.9 44.45 L19.55 45.35 20.2 45.55 21.0 45.75 M6.3 16.3 Q4.2 20.05 4.1 25.6 L4.25 29.25 4.6 30.75 M11.45 41.35 L9.05 39.1 8.65 38.65" fill="none" stroke="#3a2d41" stroke-linecap="round" stroke-linejoin="round" stroke-width="1.5"/>
      <path d="M26.95 28.55 L26.05 31.05 26.95 33.15 27.05 33.25 Q27.35 33.65 27.65 33.45 L27.95 33.15 31.45 29.85 34.6 33.45 34.8 33.65 Q35.6 34.3 36.2 33.5 L37.05 32.6 39.3 30.05 41.85 33.05 Q42.55 33.85 43.05 32.8 L44.9 28.6 42.75 28.55 M42.55 28.55 L27.15 28.05 26.95 28.55 M44.95 31.2 L45.3 41.05 M44.95 31.2 L44.9 28.6 M41.7 38.85 L42.1 38.4 Q42.75 37.45 43.3 38.15 L43.45 38.3 44.7 41.65 M40.9 39.7 L41.7 38.85 M40.9 39.7 L40.7 39.5 M40.9 39.7 L38.55 42.3 38.4 42.45 38.35 42.35 36.35 38.65 35.1 38.6 34.65 39.15 33.75 40.45 32.0 42.8 31.4 42.15 28.6 38.7 Q27.95 38.0 26.95 38.55 L26.75 38.7 25.75 39.65 21.8 43.55 21.0 45.75 M42.25 43.4 L42.25 43.95 M25.3 33.1 L26.05 31.05 M21.8 43.55 L23.3 39.0 25.3 33.1 M38.35 42.35 L38.55 42.3" fill="none" stroke="#432c3e" stroke-linecap="round" stroke-linejoin="round" stroke-width="1.5"/>
      <path d="M9.4 44.2 Q8.7 40.85 8.65 38.65 L8.65 38.5 8.85 34.55 Q8.95 32.5 9.7 31.45 L9.9 31.25 M4.6 30.75 L4.85 29.95 Q5.8 27.3 8.15 27.4 L8.45 27.4 M4.6 30.75 Q4.15 32.65 3.9 36.4 3.7 40.2 3.3 42.1 L3.1 43.0 Q2.2 45.9 -0.1 46.05 M10.1 53.35 L10.3 52.4 10.45 51.0 10.35 49.8 Q10.25 49.4 10.3 49.0 L10.05 47.45 9.55 44.95 9.4 44.2" fill="none" stroke="#3d3042" stroke-linecap="round" stroke-linejoin="round" stroke-width="1.5"/>
      <path d="M44.15 47.65 Q46.5 47.95 47.85 50.65 48.45 51.9 48.5 53.1 L48.5 53.35 M44.15 47.65 L42.3 47.7 39.0 48.7 Q36.8 48.35 36.0 45.65 M14.6 48.0 Q14.3 47.4 14.3 46.7 14.3 45.75 15.05 45.1 15.75 44.45 16.75 44.45 L16.9 44.45 M10.7 47.15 L13.1 47.25 Q14.05 47.55 14.6 48.0 L15.2 48.65 16.2 48.85 18.1 48.4 19.3 47.45 20.15 45.85 19.55 45.35 M10.7 47.15 L10.45 47.25 10.05 47.45 M20.2 45.55 L20.15 45.85 M28.2 49.75 Q28.9 49.95 29.5 50.35 L31.35 51.75 M26.05 49.7 Q24.35 49.95 23.15 51.15 22.3 52.05 21.85 53.35 M26.05 49.7 L27.0 49.6 28.2 49.75" fill="none" stroke="#3a3343" stroke-linecap="round" stroke-linejoin="round" stroke-width="1.5"/>
      <path d="M48.85 42.45 L49.05 36.55 49.05 35.45 M50.05 46.45 Q49.55 46.2 49.2 45.4 48.85 44.4 48.85 43.05 L48.85 42.45 M43.9 44.4 Q43.8 46.05 44.15 47.65 M50.05 46.45 L50.65 46.6 51.45 46.35 51.7 46.15 52.15 45.95 52.25 45.85 52.9 45.4 Q53.4 45.05 53.85 45.0 M43.85 42.35 L43.8 43.7 43.9 44.4" fill="none" stroke="#2d3341" stroke-linecap="round" stroke-linejoin="round" stroke-width="1.5"/>
    </g>
    <g id="shape2" transform="matrix(1.0, 0.0, 0.0, 1.0, 0.0, 0.0)">
      <path d="M50.5 0.0 Q53.95 0.0 53.95 3.3 L53.95 50.15 Q53.95 53.4 50.5 53.4 L3.3 53.4 Q0.0 53.4 0.0 50.15 L0.0 3.3 Q0.0 0.0 3.3 0.0 L50.5 0.0" fill="#000000" fill-opacity="0.003921569" fill-rule="evenodd" stroke="none"/>
    </g>
  </defs>
</svg>
