<?xml version="1.0" encoding="UTF-8" standalone="no"?>
<svg xmlns:ffdec="https://www.free-decompiler.com/flash" xmlns:xlink="http://www.w3.org/1999/xlink" ffdec:objectType="frame" height="54.0px" width="54.9px" xmlns="http://www.w3.org/2000/svg">
  <g transform="matrix(1.0, 0.0, 0.0, 1.0, 0.95, 0.5)">
    <clipPath id="clipPath0" transform="matrix(1.0, 0.0, 0.0, 1.0, 0.0, 0.0)">
      <path d="M50.5 0.0 Q53.95 0.0 53.95 3.3 L53.95 50.15 Q53.95 53.4 50.5 53.4 L3.3 53.4 Q0.0 53.4 0.0 50.15 L0.0 3.3 Q0.0 0.0 3.3 0.0 L50.5 0.0" fill="#000000" fill-rule="evenodd" stroke="none"/>
    </clipPath>
    <g clip-path="url(#clipPath0)">
      <use ffdec:characterId="2" height="54.0" transform="matrix(1.0, 0.0, 0.0, 1.0, -0.95, -0.5)" width="52.5" xlink:href="#shape1"/>
    </g>
    <use ffdec:characterId="3" height="53.4" transform="matrix(1.0, 0.0, 0.0, 1.0, 0.0, 0.0)" width="53.95" xlink:href="#shape2"/>
  </g>
  <defs>
    <g id="shape1" transform="matrix(1.0, 0.0, 0.0, 1.0, 0.95, 0.5)">
      <path d="M49.95 12.65 L49.95 12.7 50.1 12.9 50.2 13.15 50.55 13.85 50.85 14.5 Q49.65 21.55 42.85 33.25 L42.65 33.4 42.4 33.6 42.35 33.55 42.05 33.2 41.25 34.45 38.5 36.25 37.0 37.15 32.8 37.45 31.0 37.5 26.55 37.65 22.25 37.45 19.4 37.2 19.25 36.3 16.5 36.4 12.15 36.0 12.1 36.0 12.1 35.9 11.75 35.65 11.3 35.1 Q10.7 34.35 10.7 33.9 10.7 32.95 11.3 32.4 12.15 31.6 14.25 31.6 16.65 31.6 17.9 33.0 19.25 34.45 21.6 34.45 22.95 34.45 25.25 33.05 25.65 32.1 25.65 31.15 25.65 30.35 23.85 28.35 L23.55 28.05 23.75 28.05 28.1 27.45 32.2 27.2 34.3 27.8 34.65 27.95 33.65 26.0 Q33.1 24.9 33.1 24.05 33.1 22.5 33.65 21.65 34.2 20.8 34.2 19.9 L34.15 19.3 32.4 19.3 32.45 19.55 29.6 19.75 28.15 19.9 26.45 20.1 26.4 19.65 26.25 19.1 Q26.25 18.15 26.6 17.25 L26.8 16.8 26.85 16.65 26.95 16.6 28.45 16.05 28.85 15.9 33.3 14.75 42.5 13.3 44.5 13.05 49.95 12.65" fill="#ffffff" fill-rule="evenodd" stroke="none"/>
      <path d="M19.8 0.0 Q20.4 1.8 22.1 3.2 23.75 4.55 25.3 4.9 L26.25 5.0 Q30.45 5.0 32.7 1.6 L33.0 1.1 33.15 0.8 33.2 0.75 33.55 0.0 35.55 0.0 Q35.0 1.85 33.85 3.3 31.7 6.1 28.6 6.1 L26.15 5.95 26.1 5.9 26.05 5.9 25.1 5.7 25.0 5.7 24.95 5.65 Q23.6 5.3 22.55 4.65 20.05 3.05 19.2 0.0 L19.8 0.0" fill="#c02743" fill-rule="evenodd" stroke="none"/>
      <path d="M32.75 0.0 L33.55 0.0 33.2 0.75 33.15 0.8 33.0 1.1 32.7 1.6 Q30.45 5.0 26.25 5.0 L25.3 4.9 Q23.75 4.55 22.1 3.2 20.4 1.8 19.8 0.0 L22.65 0.0 23.8 1.2 24.9 1.9 25.8 2.35 27.5 2.65 Q30.5 2.65 32.4 0.4 L32.45 0.35 32.75 0.0" fill="#d83935" fill-rule="evenodd" stroke="none"/>
      <path d="M32.75 0.0 L32.45 0.35 32.4 0.4 Q30.5 2.65 27.5 2.65 L25.8 2.35 24.9 1.9 23.8 1.2 22.65 0.0 32.75 0.0" fill="#e3561e" fill-rule="evenodd" stroke="none"/>
      <path d="M43.75 4.3 L43.8 4.3 44.1 4.05 45.95 2.65 47.4 0.95 Q47.15 2.45 46.35 3.85 L45.05 5.65 Q43.3 7.75 43.3 8.7 43.3 9.8 45.05 11.0 L45.1 11.05 45.15 11.05 46.45 12.0 46.7 12.2 45.05 12.3 42.45 12.6 42.25 12.6 40.8 12.7 36.95 13.1 Q38.45 12.15 39.1 11.05 L39.25 10.8 40.3 8.35 Q41.15 6.65 44.1 4.95 L43.75 4.3 M-0.45 28.55 L-0.45 27.8 Q1.7 25.85 3.85 24.45 7.4 22.15 10.5 21.45 L10.35 20.9 Q11.8 20.2 14.85 19.5 L19.7 18.25 20.9 17.75 Q23.3 16.55 24.2 14.4 L20.0 15.3 18.0 15.7 Q19.55 15.05 20.3 14.0 20.85 13.3 21.0 12.4 L22.9 12.4 29.5 13.5 29.75 13.55 31.75 13.85 31.8 13.85 28.0 14.65 Q26.05 15.15 24.95 15.8 L24.75 16.1 Q24.5 16.6 24.5 17.4 L24.5 17.65 24.55 17.9 18.2 18.9 Q15.5 19.6 13.35 20.65 L10.5 22.45 10.45 22.6 10.35 22.9 7.35 24.3 6.3 24.8 Q3.25 26.3 0.55 27.9 L0.2 28.15 -0.3 28.45 -0.45 28.55 M-0.45 22.5 L-0.45 17.2 0.15 16.15 5.9 16.75 8.0 16.85 8.55 16.85 8.65 16.85 14.8 16.6 Q10.45 17.9 4.25 20.55 L3.7 20.8 3.15 21.0 2.65 21.25 -0.45 22.5 M28.5 14.1 L24.2 14.4 28.5 14.1 M10.5 21.45 L13.35 20.65 10.5 21.45" fill="#bc0847" fill-rule="evenodd" stroke="none"/>
      <path d="M4.95 53.0 L-0.05 53.0 Q-0.4 50.8 -0.4 48.35 -0.4 45.45 1.0 42.15 L1.65 40.7 1.85 40.35 2.75 38.65 3.45 37.55 3.9 36.8 Q5.9 33.85 7.9 32.3 7.9 33.45 8.65 34.3 7.15 36.4 6.25 38.8 5.8 39.85 5.5 41.0 L5.45 41.15 5.3 41.85 5.0 43.3 Q4.65 44.95 4.6 46.75 L4.55 48.65 4.65 51.0 4.95 53.0 M1.4 14.1 L1.6 14.15 7.6 14.95 7.95 14.95 9.25 14.9 13.55 14.65 Q16.95 14.4 16.6 12.6 L16.55 12.4 15.85 11.3 Q14.9 10.5 12.9 10.1 L16.05 9.85 19.4 10.0 20.5 10.1 20.9 10.15 27.25 11.25 31.55 11.85 Q32.2 12.25 32.85 12.25 L34.9 11.95 34.95 11.95 Q36.8 11.25 38.05 9.25 39.15 7.6 39.4 6.2 L41.05 5.6 42.45 4.95 43.75 4.3 44.1 4.95 Q41.15 6.65 40.3 8.35 L39.25 10.8 39.1 11.05 Q38.45 12.15 36.95 13.1 L35.1 13.35 33.05 13.6 33.0 13.65 31.9 13.85 31.8 13.85 31.75 13.85 29.75 13.55 29.5 13.5 22.9 12.4 21.0 12.4 Q20.85 13.3 20.3 14.0 19.55 15.05 18.0 15.7 L16.75 16.0 14.8 16.6 8.65 16.85 8.55 16.85 8.0 16.85 5.9 16.75 0.15 16.15 0.45 15.65 1.15 14.4 1.4 14.1" fill="#ce2836" fill-rule="evenodd" stroke="none"/>
      <path d="M36.95 13.1 L40.8 12.7 42.25 12.6 42.45 12.6 42.5 13.3 33.3 14.75 28.85 15.9 28.45 16.05 28.0 14.65 31.8 13.85 31.9 13.85 33.0 13.65 33.15 13.65 35.1 13.35 36.95 13.1" fill="#c7afc7" fill-rule="evenodd" stroke="none"/>
      <path d="M42.85 33.25 L42.7 33.45 42.5 33.8 42.4 33.6 42.65 33.4 42.85 33.25 M28.45 16.05 L26.95 16.6 26.85 16.65 26.8 16.8 26.6 17.25 Q26.25 18.15 26.25 19.1 L26.3 19.7 26.4 20.1 25.65 20.2 23.3 20.55 22.75 20.65 19.3 21.2 16.55 21.75 16.2 21.9 15.5 22.15 Q16.8 24.9 19.55 26.55 21.9 27.95 23.55 28.05 L23.85 28.35 Q25.65 30.35 25.65 31.15 25.65 32.1 25.25 33.05 22.95 34.45 21.6 34.45 19.25 34.45 17.9 33.0 16.65 31.6 14.25 31.6 12.15 31.6 11.3 32.4 10.7 32.95 10.7 33.9 10.7 34.35 11.3 35.1 L11.75 35.65 12.1 35.9 12.1 36.0 10.75 35.6 Q9.35 35.1 8.65 34.3 7.9 33.45 7.9 32.3 7.9 31.15 9.05 29.55 10.05 28.25 11.45 27.05 10.8 26.45 10.5 25.6 10.2 24.75 10.2 23.65 L10.35 22.9 10.45 22.6 10.5 22.45 13.35 20.65 Q15.5 19.6 18.2 18.9 L24.55 17.9 24.5 17.65 24.5 17.4 Q24.5 16.6 24.75 16.1 L24.95 15.8 Q26.05 15.15 28.0 14.65 L28.45 16.05 M19.4 37.2 L22.25 37.45 26.55 37.65 31.0 37.5 32.8 37.45 37.0 37.15 38.5 36.25 41.25 34.45 41.15 34.55 39.0 37.15 38.35 37.95 37.5 38.9 37.3 39.15 37.1 38.95 Q36.7 38.45 36.65 37.8 35.3 38.55 33.05 39.15 L32.65 39.25 30.05 39.8 25.85 40.15 23.35 39.95 21.65 39.45 Q20.1 38.8 19.55 37.65 L19.4 37.2 M24.75 16.1 L24.8 16.0 24.95 15.8 24.8 16.0 24.75 16.1" fill="#a1b2c6" fill-rule="evenodd" stroke="none"/>
      <path d="M42.5 33.8 L44.75 37.45 47.0 41.45 48.8 44.85 51.05 49.4 50.5 50.5 Q49.4 48.35 47.05 45.75 45.45 43.95 43.65 42.5 L43.05 42.05 41.95 41.25 Q40.5 40.25 38.95 39.55 L37.5 38.9 38.35 37.95 39.0 37.15 41.15 34.55 41.25 34.45 42.05 33.2 42.35 33.55 42.4 33.6 42.5 33.8" fill="#bc004d" fill-rule="evenodd" stroke="none"/>
      <path d="M43.05 42.05 L41.95 41.55 41.25 41.3 39.45 40.9 38.7 40.85 38.1 40.9 37.7 40.95 Q36.3 41.15 34.05 42.05 L33.15 42.4 31.5 43.2 30.75 43.55 27.15 44.3 Q25.35 44.9 23.95 46.0 L23.6 46.25 22.15 45.8 20.6 45.25 Q18.95 44.7 17.35 44.65 L17.05 44.65 17.35 44.3 17.4 44.25 Q19.7 41.65 23.35 39.95 L25.85 40.15 30.05 39.8 32.65 39.25 33.05 39.15 Q35.3 38.55 36.65 37.8 36.7 38.45 37.1 38.95 L37.3 39.15 37.5 38.9 38.95 39.55 Q40.5 40.25 41.95 41.25 L43.05 42.05" fill="#d93529" fill-rule="evenodd" stroke="none"/>
      <path d="M50.5 50.5 L49.8 52.05 49.85 53.0 45.75 53.0 45.6 52.7 Q44.9 51.0 43.85 49.45 L43.65 49.15 43.55 49.05 42.0 47.3 41.2 46.55 Q38.95 44.75 36.0 44.05 L34.65 43.75 33.15 43.55 31.7 43.5 31.65 43.5 30.75 43.55 31.5 43.2 33.15 42.4 34.05 42.05 Q36.3 41.15 37.7 40.95 L38.1 40.9 38.7 40.85 39.45 40.9 41.25 41.3 41.95 41.55 43.05 42.05 43.65 42.5 Q45.45 43.95 47.05 45.75 49.4 48.35 50.5 50.5" fill="#e13c1e" fill-rule="evenodd" stroke="none"/>
      <path d="M40.85 53.0 L37.25 53.0 36.55 51.2 36.2 50.7 Q35.25 49.35 33.65 48.9 L31.9 48.65 Q29.4 48.65 27.6 50.05 L26.8 50.8 Q26.15 51.5 25.75 52.35 L25.7 52.35 25.65 52.5 25.45 53.0 23.5 53.0 23.2 52.6 Q22.55 51.9 21.95 51.9 21.45 51.9 21.1 52.15 20.65 52.4 20.4 53.0 L19.9 53.0 20.0 52.5 20.0 52.45 20.25 51.0 20.9 49.55 Q21.55 48.35 22.7 47.15 L23.25 46.55 23.35 46.5 23.6 46.25 23.95 46.0 Q25.35 44.9 27.15 44.3 L30.75 43.55 31.65 43.5 31.7 43.5 33.15 43.55 34.65 43.75 36.0 44.05 Q38.95 44.75 41.2 46.55 L42.0 47.3 43.55 49.05 Q42.75 48.65 42.05 48.65 L41.8 48.65 Q40.8 48.7 40.35 49.1 39.9 49.5 39.9 50.35 L40.15 51.5 40.2 51.75 40.35 52.4 40.5 52.55 40.95 52.9 40.85 53.0" fill="#f77d00" fill-rule="evenodd" stroke="none"/>
      <path d="M45.75 53.0 L41.1 53.0 40.95 52.9 40.5 52.55 40.35 52.4 40.2 51.75 40.15 51.5 39.9 50.35 Q39.9 49.5 40.35 49.1 40.8 48.7 41.8 48.65 L42.05 48.65 Q42.75 48.65 43.55 49.05 L43.65 49.15 43.85 49.45 Q44.9 51.0 45.6 52.7 L45.75 53.0" fill="#f16214" fill-rule="evenodd" stroke="none"/>
      <path d="M-0.45 27.8 L-0.45 22.5 2.65 21.25 3.15 21.0 3.7 20.8 4.25 20.55 Q10.45 17.9 14.8 16.6 L16.75 16.0 18.0 15.7 20.0 15.3 24.2 14.4 Q23.3 16.55 20.9 17.75 L19.7 18.25 14.85 19.5 Q11.8 20.2 10.35 20.9 L10.5 21.45 Q7.4 22.15 3.85 24.45 1.7 25.85 -0.45 27.8" fill="#ba0d4c" fill-rule="evenodd" stroke="none"/>
      <path d="M26.45 20.1 L28.15 19.9 Q28.5 20.4 28.5 21.0 28.5 22.45 27.5 23.45 L26.75 24.1 26.45 24.2 25.25 24.45 Q24.25 24.45 23.45 23.8 22.6 23.1 22.55 22.0 L22.55 21.85 22.75 20.65 23.3 20.55 25.65 20.2 26.4 20.1 26.45 20.1" fill="#95ffaf" fill-rule="evenodd" stroke="none"/>
      <path d="M28.15 19.9 L29.6 19.75 29.65 19.95 29.85 20.9 Q29.85 22.2 29.1 23.25 L28.15 24.2 27.8 24.45 27.2 24.85 26.95 25.05 26.85 25.05 Q25.45 25.7 23.95 25.7 L22.2 25.5 20.9 25.05 Q19.0 24.15 19.0 22.5 19.0 22.0 19.25 21.4 L19.3 21.2 22.75 20.65 22.55 21.85 22.55 22.0 Q22.6 23.1 23.45 23.8 24.25 24.45 25.25 24.45 L26.45 24.2 26.75 24.1 27.5 23.45 Q28.5 22.45 28.5 21.0 28.5 20.4 28.15 19.9" fill="#8efc79" fill-rule="evenodd" stroke="none"/>
      <path d="M29.6 19.75 L32.45 19.55 32.4 19.75 Q31.75 22.1 30.0 23.85 L28.7 24.95 27.1 25.85 Q25.8 26.4 24.45 26.4 L23.9 26.4 22.4 26.15 20.7 25.55 20.65 25.55 20.6 25.5 20.55 25.5 Q18.55 24.45 16.95 22.25 L16.55 21.75 19.3 21.2 19.25 21.4 Q19.0 22.0 19.0 22.5 19.0 24.15 20.9 25.05 L22.2 25.5 23.95 25.7 Q25.45 25.7 26.85 25.05 L26.95 25.05 27.2 24.85 27.8 24.45 28.15 24.2 29.1 23.25 Q29.85 22.2 29.85 20.9 L29.65 19.95 29.6 19.75" fill="#77d2a1" fill-rule="evenodd" stroke="none"/>
      <path d="M26.25 19.1 L26.4 19.65 26.3 19.7 26.25 19.1" fill="#bb2c30" fill-rule="evenodd" stroke="none"/>
      <path d="M32.45 19.55 L32.4 19.3 34.15 19.3 34.2 19.9 Q34.2 20.8 33.65 21.65 33.1 22.5 33.1 24.05 33.1 24.9 33.65 26.0 L34.65 27.95 34.3 27.8 32.2 27.2 28.1 27.45 23.75 28.05 23.55 28.05 Q21.9 27.95 19.55 26.55 16.8 24.9 15.5 22.15 L16.2 21.9 16.55 21.75 16.95 22.25 Q18.55 24.45 20.55 25.5 L20.6 25.5 20.65 25.55 20.7 25.55 22.4 26.15 23.9 26.4 24.45 26.4 Q25.8 26.4 27.1 25.85 L28.7 24.95 30.0 23.85 Q31.75 22.1 32.4 19.75 L32.45 19.55" fill="#d52b38" fill-rule="evenodd" stroke="none"/>
      <path d="M7.45 53.0 L4.95 53.0 4.65 51.0 4.55 48.65 4.6 46.75 Q4.65 44.95 5.0 43.3 L5.65 42.75 6.05 42.65 6.65 42.6 Q7.8 42.6 8.75 43.55 L9.25 44.2 9.15 46.3 9.1 48.0 Q8.4 48.55 8.05 49.55 L7.95 49.75 7.9 49.95 Q7.55 50.9 7.45 52.2 L7.45 53.0 M-0.45 16.05 L-0.45 13.8 1.4 14.1 1.15 14.4 0.45 15.65 0.15 16.15 -0.45 16.05" fill="#dc462d" fill-rule="evenodd" stroke="none"/>
      <path d="M-0.45 36.6 L-0.45 28.55 -0.3 28.45 0.2 28.15 0.55 27.9 Q3.25 26.3 6.3 24.8 L7.35 24.3 10.35 22.9 10.2 23.65 Q10.2 24.75 10.5 25.6 7.7 26.85 5.3 29.1 L4.15 30.25 2.1 32.65 1.15 34.0 0.45 35.05 -0.45 36.6" fill="#ad004e" fill-rule="evenodd" stroke="none"/>
      <path d="M-0.05 53.0 L-0.45 53.0 -0.45 36.6 0.45 35.05 1.15 34.0 2.1 32.65 4.15 30.25 5.3 29.1 Q7.7 26.85 10.5 25.6 10.8 26.45 11.45 27.05 10.05 28.25 9.05 29.55 7.9 31.15 7.9 32.3 5.9 33.85 3.9 36.8 L3.45 37.55 2.75 38.65 1.85 40.35 1.65 40.7 1.0 42.15 Q-0.4 45.45 -0.4 48.35 -0.4 50.8 -0.05 53.0" fill="#b7074f" fill-rule="evenodd" stroke="none"/>
      <path d="M12.1 36.0 L12.15 36.0 12.15 36.05 Q11.0 37.35 10.3 39.15 L9.8 38.4 Q9.25 37.9 8.25 37.9 6.95 38.4 6.25 38.8 7.15 36.4 8.65 34.3 9.35 35.1 10.75 35.6 L12.1 36.0" fill="#b61839" fill-rule="evenodd" stroke="none"/>
      <path d="M12.15 36.0 L16.5 36.4 19.25 36.3 19.4 37.2 19.55 37.65 Q15.9 39.3 12.7 43.75 L12.5 44.05 11.4 45.75 11.05 46.3 10.8 46.75 9.95 48.55 9.65 49.5 9.45 50.3 9.4 50.65 9.35 51.15 9.3 50.6 9.2 49.5 9.1 48.1 9.1 48.0 9.15 46.3 9.25 44.2 9.35 43.2 9.55 41.7 Q9.85 40.3 10.3 39.15 11.0 37.35 12.15 36.05 L12.15 36.0" fill="#c91437" fill-rule="evenodd" stroke="none"/>
      <path d="M5.0 43.3 L5.3 41.85 5.45 41.15 5.5 41.0 Q5.8 39.85 6.25 38.8 6.95 38.4 8.25 37.9 9.25 37.9 9.8 38.4 L10.3 39.15 Q9.85 40.3 9.55 41.7 L9.35 43.2 9.25 44.2 8.75 43.55 Q7.8 42.6 6.65 42.6 L6.05 42.65 5.65 42.75 5.0 43.3" fill="#d73e2e" fill-rule="evenodd" stroke="none"/>
      <path d="M10.8 53.0 L7.45 53.0 7.45 52.2 Q7.55 50.9 7.9 49.95 L7.95 49.75 8.05 49.55 Q8.4 48.55 9.1 48.0 L9.1 48.1 9.2 49.5 9.3 50.6 9.35 51.15 9.4 50.65 9.45 50.3 9.65 49.5 9.95 48.55 10.8 46.75 10.6 47.65 10.45 48.8 10.5 49.45 10.5 50.35 10.6 51.25 10.8 53.0" fill="#f66208" fill-rule="evenodd" stroke="none"/>
      <path d="M14.3 53.0 L10.8 53.0 10.6 51.25 10.5 50.35 10.5 49.45 10.45 48.8 10.8 46.75 11.05 46.3 11.4 45.75 13.2 45.1 15.5 44.75 16.85 44.65 17.05 44.65 17.0 44.75 16.85 45.0 Q15.15 47.0 14.6 49.35 14.25 50.65 14.25 52.05 L14.3 53.0" fill="#ef5519" fill-rule="evenodd" stroke="none"/>
      <path d="M23.35 39.95 Q19.7 41.65 17.4 44.25 L17.35 44.3 17.05 44.65 16.85 44.65 15.5 44.75 13.2 45.1 11.4 45.75 12.5 44.05 12.7 43.75 Q15.9 39.3 19.55 37.65 20.1 38.8 21.65 39.45 L23.35 39.95" fill="#de3121" fill-rule="evenodd" stroke="none"/>
      <path d="M19.9 53.0 L14.3 53.0 14.25 52.05 Q14.25 50.65 14.6 49.35 15.15 47.0 16.85 45.0 L17.0 44.75 17.05 44.65 17.35 44.65 Q18.95 44.7 20.6 45.25 L22.15 45.8 23.6 46.25 23.35 46.5 23.25 46.55 22.7 47.15 Q21.55 48.35 20.9 49.55 L20.25 51.0 20.0 52.45 20.0 52.5 19.9 53.0" fill="#e23e22" fill-rule="evenodd" stroke="none"/>
      <path d="M35.6 53.0 L34.65 53.0 Q33.5 51.6 31.8 51.6 30.4 51.6 29.3 52.65 28.1 51.8 26.7 51.8 L26.1 51.95 25.75 52.35 Q26.15 51.5 26.8 50.8 L27.6 50.05 Q29.4 48.65 31.9 48.65 L33.65 48.9 Q35.25 49.35 36.2 50.7 L36.1 51.1 35.7 52.6 35.6 53.0" fill="#eb4f1e" fill-rule="evenodd" stroke="none"/>
      <path d="M37.25 53.0 L35.6 53.0 35.7 52.6 36.1 51.1 36.2 50.7 36.55 51.2 37.25 53.0" fill="#e3441a" fill-rule="evenodd" stroke="none"/>
      <path d="M34.65 53.0 L28.95 53.0 29.3 52.65 Q30.4 51.6 31.8 51.6 33.5 51.6 34.65 53.0" fill="#fe7107" fill-rule="evenodd" stroke="none"/>
      <path d="M28.95 53.0 L25.45 53.0 25.65 52.5 25.75 52.35 26.1 51.95 26.7 51.8 Q28.1 51.8 29.3 52.65 L28.95 53.0" fill="#f6650a" fill-rule="evenodd" stroke="none"/>
      <path d="M23.5 53.0 L20.4 53.0 Q20.65 52.4 21.1 52.15 21.45 51.9 21.95 51.9 22.55 51.9 23.2 52.6 L23.5 53.0" fill="#fcac00" fill-rule="evenodd" stroke="none"/>
      <path d="M41.1 53.0 L40.85 53.0 40.95 52.9 41.1 53.0" fill="#dc3926" fill-rule="evenodd" stroke="none"/>
      <path d="M-0.45 17.2 L-0.45 16.05 0.15 16.15 -0.45 17.2" fill="#c71640" fill-rule="evenodd" stroke="none"/>
      <path d="M43.75 4.3 L43.8 4.3 44.1 4.05 45.95 2.65 47.4 0.95 Q47.15 2.45 46.35 3.85 L45.05 5.65 Q43.3 7.75 43.3 8.7 43.3 9.8 45.05 11.0 L45.1 11.05 45.15 11.05 46.45 12.0 49.45 11.7 49.95 12.65 49.95 12.7 50.1 12.9 50.2 13.15 50.55 13.85 50.85 14.5 Q49.65 21.55 42.85 33.25 L42.7 33.45 42.5 33.8 44.75 37.45 47.0 41.45 48.8 44.85 51.05 49.4 50.5 50.5 49.8 52.05 49.85 53.0 M-0.45 13.8 L1.4 14.1 1.6 14.15 7.6 14.95 7.95 14.95 9.25 14.9 13.55 14.65 Q16.95 14.4 16.6 12.6 L16.55 12.4 15.85 11.3 Q14.9 10.5 12.9 10.1 L16.05 9.85 19.4 10.0 20.5 10.1 20.9 10.15 27.25 11.25 31.55 11.85 34.9 11.95 34.95 11.95 Q36.8 11.25 38.05 9.25 39.15 7.6 39.4 6.2 L41.05 5.6 42.45 4.95 43.75 4.3 M36.95 13.1 L40.8 12.7 42.25 12.6 42.45 12.6 45.05 12.3 46.7 12.2 46.45 12.0 M12.1 36.0 L12.15 36.0 16.5 36.4 19.25 36.3 19.4 37.2 19.55 37.65 Q20.1 38.8 21.65 39.45 L23.35 39.95 25.85 40.15 30.05 39.8 32.65 39.25 33.05 39.15 Q35.3 38.55 36.65 37.8 36.7 38.45 37.1 38.95 L37.3 39.15 37.5 38.9 38.35 37.95 39.0 37.15 41.15 34.55 41.25 34.45 42.05 33.2 42.35 33.55 42.4 33.6 42.5 33.8 M35.55 0.0 Q35.0 1.85 33.85 3.3 31.7 6.1 28.6 6.1 L26.15 5.95 26.1 5.9 26.05 5.9 25.1 5.7 25.0 5.7 24.95 5.65 Q23.6 5.3 22.55 4.65 20.05 3.05 19.2 0.0 M18.0 15.7 L20.0 15.3 24.2 14.4 28.5 14.1 M13.35 20.65 Q15.5 19.6 18.2 18.9 L24.55 17.9 24.5 17.65 24.5 17.4 Q24.5 16.6 24.75 16.1 L24.95 15.8 Q26.05 15.15 28.0 14.65 L31.8 13.85 31.9 13.85 33.0 13.65 33.05 13.6 35.1 13.35 36.95 13.1 M24.95 15.8 L24.8 16.0 24.75 16.1 M26.3 19.7 L26.4 19.65 M35.1 13.35 L33.15 13.65 33.0 13.65 M-0.45 22.5 L2.65 21.25 3.15 21.0 3.7 20.8 4.25 20.55 Q10.45 17.9 14.8 16.6 L16.75 16.0 18.0 15.7 M10.35 22.9 L10.2 23.65 Q10.2 24.75 10.5 25.6 10.8 26.45 11.45 27.05 10.05 28.25 9.05 29.55 7.9 31.15 7.9 32.3 7.9 33.45 8.65 34.3 9.35 35.1 10.75 35.6 L12.1 36.0 M10.35 22.9 L10.45 22.6 10.5 22.45 13.35 20.65 10.5 21.45 Q7.4 22.15 3.85 24.45 1.7 25.85 -0.45 27.8" fill="none" stroke="#422c39" stroke-linecap="round" stroke-linejoin="round" stroke-width="1.0"/>
      <path d="M26.45 20.1 L28.15 19.9 29.6 19.75 32.45 19.55 32.4 19.75 Q31.75 22.1 30.0 23.85 L28.7 24.95 27.1 25.85 Q25.8 26.4 24.45 26.4 L23.9 26.4 22.4 26.15 20.7 25.55 20.65 25.55 20.6 25.5 20.55 25.5 Q18.55 24.45 16.95 22.25 L16.55 21.75 19.3 21.2 22.75 20.65 23.3 20.55 25.65 20.2 26.4 20.1 26.45 20.1" fill="none" stroke="#26151b" stroke-linecap="round" stroke-linejoin="round" stroke-width="1.0"/>
      <path d="M32.4 19.3 L34.15 19.3 34.2 19.9 Q34.2 20.8 33.65 21.65 33.1 22.5 33.1 24.05 33.1 24.9 33.65 26.0 L34.65 27.95 34.3 27.8 32.2 27.2 28.1 27.45 23.75 28.05 23.55 28.05 Q21.9 27.95 19.55 26.55 16.8 24.9 15.5 22.15 L16.2 21.9" fill="none" stroke="#8c191c" stroke-linecap="round" stroke-linejoin="round" stroke-width="1.0"/>
    </g>
    <g id="shape2" transform="matrix(1.0, 0.0, 0.0, 1.0, 0.0, 0.0)">
      <path d="M50.5 0.0 Q53.95 0.0 53.95 3.3 L53.95 50.15 Q53.95 53.4 50.5 53.4 L3.3 53.4 Q0.0 53.4 0.0 50.15 L0.0 3.3 Q0.0 0.0 3.3 0.0 L50.5 0.0" fill="#000000" fill-opacity="0.003921569" fill-rule="evenodd" stroke="none"/>
    </g>
  </defs>
</svg>
