<?xml version="1.0" encoding="UTF-8" standalone="no"?>
<svg xmlns:ffdec="https://www.free-decompiler.com/flash" xmlns:xlink="http://www.w3.org/1999/xlink" ffdec:objectType="frame" height="55.65px" width="55.4px" xmlns="http://www.w3.org/2000/svg">
  <g transform="matrix(1.0, 0.0, 0.0, 1.0, 1.3, 1.1)">
    <clipPath id="clipPath0" transform="matrix(1.0, 0.0, 0.0, 1.0, 0.0, 0.0)">
      <path d="M50.5 0.0 Q53.95 0.0 53.95 3.3 L53.95 50.15 Q53.95 53.4 50.5 53.4 L3.3 53.4 Q0.0 53.4 0.0 50.15 L0.0 3.3 Q0.0 0.0 3.3 0.0 L50.5 0.0" fill="#000000" fill-rule="evenodd" stroke="none"/>
    </clipPath>
    <g clip-path="url(#clipPath0)">
      <use ffdec:characterId="2" height="55.65" transform="matrix(1.0, 0.0, 0.0, 1.0, -1.3, -1.1)" width="55.4" xlink:href="#shape1"/>
    </g>
    <use ffdec:characterId="3" height="53.4" transform="matrix(1.0, 0.0, 0.0, 1.0, 0.0, 0.0)" width="53.95" xlink:href="#shape2"/>
  </g>
  <defs>
    <g id="shape1" transform="matrix(1.0, 0.0, 0.0, 1.0, 1.3, 1.1)">
      <path d="M25.9 0.95 L26.1 -0.6 37.0 -0.6 36.05 3.15 35.2 5.5 Q33.2 3.3 31.6 2.3 29.4 0.9 26.65 0.9 L25.9 0.95 M39.7 10.75 L39.2 11.1 38.45 10.45 37.95 10.1 36.5 8.9 37.65 8.35 38.35 9.15 39.7 10.75 M52.55 28.5 L53.45 28.65 53.6 28.65 53.45 33.55 52.7 33.65 51.7 33.65 51.95 32.5 52.55 28.5 M-0.8 37.4 L-0.8 35.75 1.85 38.3 0.6 39.0 -0.8 37.4 M21.05 2.8 L21.45 4.0 19.95 6.25 Q19.05 7.75 18.5 9.25 L17.1 8.0 15.9 6.95 Q17.25 5.5 19.1 4.1 20.05 3.35 21.05 2.8" fill="#a5a37d" fill-rule="evenodd" stroke="none"/>
      <path d="M23.3 -0.6 L26.1 -0.6 25.9 0.95 Q24.65 1.1 23.25 1.65 L23.3 -0.6 M34.8 7.5 L36.1 6.5 37.65 8.35 36.5 8.9 34.8 7.5 M53.45 33.55 L53.45 34.05 53.45 34.55 51.25 35.8 51.7 33.65 52.7 33.65 53.45 33.55 M49.7 39.4 L50.0 41.5 48.5 42.3 46.2 43.5 43.25 45.1 42.75 44.5 42.65 44.4 42.45 44.1 41.85 43.3 43.35 42.7 43.75 42.55 45.25 41.8 46.7 41.05 48.2 40.25 48.25 40.25 49.7 39.4 M4.0 39.9 L1.7 40.15 1.15 40.2 0.0 39.35 -0.8 38.65 -0.8 37.4 0.6 39.0 1.85 38.3 4.0 39.9 M17.85 11.2 L14.85 8.35 14.7 8.2 15.9 6.95 17.1 8.0 18.5 9.25 Q18.1 10.25 17.85 11.2 M25.8 45.6 L25.15 46.85 23.1 46.8 19.55 46.55 19.7 46.55 13.4 45.8 12.9 45.7 9.9 45.2 9.75 44.6 9.35 42.75 13.3 44.1 Q18.25 45.4 24.25 45.6 L25.8 45.6" fill="#706e50" fill-rule="evenodd" stroke="none"/>
      <path d="M35.2 5.5 L34.35 7.15 34.3 7.25 31.0 10.65 32.2 11.0 Q33.55 10.25 36.05 9.1 L36.5 8.9 37.95 10.1 38.45 10.45 39.2 11.1 38.5 11.55 37.5 12.2 38.6 12.6 Q40.9 13.55 43.3 16.15 L42.15 16.3 41.35 16.35 40.45 16.4 40.2 16.4 39.1 15.75 Q33.95 13.1 27.35 13.0 L26.9 13.0 23.9 13.15 Q18.6 13.65 14.6 15.95 L14.6 15.9 14.5 15.75 12.25 17.25 Q9.45 19.15 8.05 20.5 L7.2 23.3 6.7 25.95 Q6.5 27.0 6.45 28.0 L6.35 29.95 Q6.35 31.5 6.8 33.25 L7.0 33.9 8.35 35.55 10.75 37.95 12.95 39.35 13.0 39.4 13.05 39.4 13.75 39.8 14.15 39.9 16.75 40.2 17.5 40.2 21.95 39.85 Q21.75 40.6 21.7 41.2 22.05 41.8 23.05 42.05 L23.9 42.3 25.35 42.55 27.7 42.7 31.2 42.4 31.6 42.3 32.05 41.9 32.05 41.85 32.1 41.7 32.95 38.55 34.7 38.35 38.55 38.05 43.75 37.7 44.8 36.45 46.5 37.1 46.7 37.2 47.55 37.6 47.75 37.7 48.1 39.2 46.5 40.0 45.15 40.65 44.35 41.0 42.95 41.65 41.2 42.4 41.1 42.4 40.7 41.8 40.3 41.2 38.6 41.75 36.0 42.3 32.0 42.7 25.55 42.95 24.9 43.6 24.3 44.4 23.95 44.4 21.7 44.25 17.75 43.9 17.5 43.85 17.4 43.55 17.15 43.2 16.85 42.45 15.05 41.95 14.6 42.55 14.4 42.95 13.2 42.45 12.8 42.35 11.5 41.85 11.4 40.85 Q9.75 39.9 8.25 38.2 6.8 36.65 5.85 34.8 5.0 33.2 4.55 31.4 L4.15 29.3 3.95 27.25 4.45 25.4 Q4.85 24.05 5.4 23.2 L5.65 22.55 7.05 19.85 9.35 17.8 Q11.2 16.4 13.8 14.75 16.65 13.0 20.3 11.1 L18.5 9.25 Q19.05 7.75 19.95 6.25 L21.45 4.0 22.25 6.55 23.25 9.8 23.3 9.85 23.35 9.95 23.35 10.0 23.55 11.3 24.05 11.0 24.4 10.95 25.05 10.9 25.05 10.4 25.25 8.4 25.9 7.95 26.65 7.5 27.7 6.8 27.6 4.15 27.2 4.1 25.65 3.95 25.8 1.9 25.9 0.95 26.65 0.9 Q29.4 0.9 31.6 2.3 33.2 3.3 35.2 5.5 M50.5 28.05 L52.55 28.5 51.95 32.5 51.7 33.65 49.35 33.5 48.85 33.4 48.85 31.05 48.85 30.65 48.85 30.25 48.9 30.2 50.5 28.05 M-0.8 35.75 L-0.8 34.55 -0.1 34.3 1.75 33.8 2.05 33.7 2.5 33.6 3.25 34.5 3.35 34.55 4.8 36.55 3.95 37.1 3.9 37.1 Q3.15 37.55 2.15 38.1 L1.85 38.3 -0.8 35.75 M37.85 21.0 Q38.15 20.1 38.9 19.55 40.15 18.6 42.0 19.25 43.85 19.9 45.2 21.75 L46.3 23.8 44.9 24.7 Q44.8 23.65 44.1 22.65 43.3 21.55 42.2 21.15 41.1 20.75 40.4 21.35 L40.2 21.5 Q39.8 21.85 39.7 22.45 L39.65 23.05 Q39.7 24.1 40.45 25.2 39.35 24.9 38.3 24.2 L37.85 23.9 37.65 22.45 37.85 21.0 M11.35 21.15 L11.55 20.75 Q13.35 18.05 16.7 17.1 20.05 16.15 23.05 17.5 24.8 18.35 25.8 19.75 26.55 20.7 26.9 21.9 27.3 23.45 27.1 24.9 L26.65 25.0 24.4 25.4 Q24.9 23.85 24.4 22.3 L24.05 21.5 23.4 20.65 23.0 20.2 21.95 19.5 21.55 19.25 Q19.4 18.4 17.1 19.2 14.8 19.95 13.65 22.0 L13.35 22.65 11.35 21.15 M26.9 9.2 L26.9 9.15 26.3 9.6 26.4 10.0 27.05 9.65 27.05 9.55 26.9 9.2 M29.15 11.4 L28.5 11.35 28.0 11.7 28.25 12.0 28.8 12.2 29.4 12.05 29.6 11.75 29.15 11.4 M22.6 18.45 Q22.6 18.85 22.85 19.05 L23.2 19.2 23.45 19.25 23.65 19.0 23.55 18.7 23.35 18.55 23.2 18.45 22.85 18.3 22.65 18.3 22.6 18.45 M39.7 20.0 L39.45 20.25 Q39.45 20.5 40.0 20.55 L40.25 20.5 40.6 19.95 40.3 19.7 40.1 19.75 39.7 20.0 M19.95 42.85 L19.75 42.4 19.15 42.8 19.4 43.4 19.8 43.35 20.15 43.25 20.0 42.95 19.95 42.85" fill="#af948b" fill-rule="evenodd" stroke="none"/>
      <path d="M23.25 1.65 Q24.65 1.1 25.9 0.95 L25.8 1.9 25.65 3.95 27.2 4.1 27.6 4.15 27.7 6.8 26.65 7.5 25.9 7.95 25.25 8.4 25.05 10.4 25.05 10.9 24.4 10.95 24.05 11.0 23.55 11.3 23.35 10.0 23.4 10.15 23.3 7.7 23.3 7.1 23.2 3.75 23.25 1.65 M34.3 7.25 L33.85 8.0 33.7 8.25 34.8 7.5 36.5 8.9 36.05 9.1 Q33.55 10.25 32.2 11.0 L31.0 10.65 34.3 7.25 M43.3 16.15 Q44.75 17.7 46.2 19.9 49.3 24.4 50.25 28.0 L50.5 28.05 48.9 30.2 48.85 30.25 48.85 30.65 48.85 31.05 48.85 33.4 49.35 33.5 51.7 33.65 51.25 35.8 50.55 36.2 49.85 36.55 49.4 36.85 49.6 38.85 49.7 39.4 48.25 40.25 48.2 40.25 46.7 41.05 45.25 41.8 43.75 42.55 43.35 42.7 41.85 43.3 41.6 42.95 41.55 42.95 41.35 42.65 41.2 42.4 42.95 41.65 44.35 41.0 45.15 40.65 46.5 40.0 48.1 39.2 47.75 37.7 47.55 37.6 46.7 37.2 46.5 37.1 44.8 36.45 44.75 36.45 43.7 36.15 Q45.1 35.45 45.95 33.8 L46.55 32.05 46.75 31.2 46.95 28.8 Q47.2 22.45 43.25 18.65 42.35 17.75 41.25 17.05 L40.2 16.4 40.45 16.4 41.35 16.35 42.15 16.3 43.3 16.15 M31.4 53.15 L33.3 53.45 33.4 53.55 32.75 54.05 30.0 54.05 31.4 53.15 M27.05 54.05 L24.2 54.05 24.1 54.0 25.3 53.55 26.85 54.0 27.05 54.05 M5.15 39.8 L4.5 39.85 4.2 39.85 4.0 39.9 1.85 38.3 2.15 38.1 Q3.15 37.55 3.9 37.1 L3.95 37.1 4.8 36.55 3.35 34.55 3.25 34.5 2.5 33.6 2.05 33.7 1.75 33.8 -0.1 34.3 -0.8 34.55 -0.8 30.75 -0.7 30.65 0.25 30.9 1.3 30.3 2.0 29.95 3.2 29.55 Q3.35 29.45 3.45 29.45 L3.35 28.9 3.35 28.5 3.1 25.45 3.35 22.3 3.35 22.05 Q4.85 19.25 6.9 17.3 9.1 15.6 11.9 14.1 15.4 12.2 17.85 11.25 L17.9 11.2 17.85 11.2 Q18.1 10.25 18.5 9.25 L20.3 11.1 Q16.65 13.0 13.8 14.75 11.2 16.4 9.35 17.8 L7.05 19.85 5.65 22.55 5.4 23.2 Q4.85 24.05 4.45 25.4 L3.95 27.25 4.15 29.3 4.55 31.4 Q5.0 33.2 5.85 34.8 6.8 36.65 8.25 38.2 9.75 39.9 11.4 40.85 L11.5 41.85 12.8 42.35 13.2 42.45 14.4 42.95 14.6 42.55 15.05 41.95 16.85 42.45 17.15 43.2 17.4 43.55 17.5 43.85 17.75 43.9 21.7 44.25 23.95 44.4 24.3 44.4 24.9 43.6 25.55 42.95 32.0 42.7 36.0 42.3 38.6 41.75 38.5 43.2 26.3 44.85 25.8 45.6 24.25 45.6 Q18.25 45.4 13.3 44.1 L9.35 42.75 9.0 41.45 8.4 39.55 8.35 39.55 5.5 39.75 5.15 39.8 M46.3 23.8 L46.6 25.55 Q46.65 27.55 45.4 28.5 44.1 29.4 42.2 28.75 L41.45 28.4 40.35 27.65 39.05 26.25 Q38.2 25.1 37.85 23.9 L38.3 24.2 Q39.35 24.9 40.45 25.2 L40.5 25.25 41.1 25.9 41.4 26.2 42.35 26.65 44.15 26.55 44.35 26.4 44.85 25.45 44.9 24.8 44.9 24.7 46.3 23.8 M25.8 27.9 Q24.0 30.45 20.85 31.4 17.5 32.35 14.5 30.9 11.5 29.5 10.65 26.55 9.8 23.75 11.35 21.15 L13.35 22.65 Q12.65 24.3 13.25 26.05 L13.5 26.6 Q14.3 28.25 16.1 29.05 L20.55 29.15 20.6 29.15 20.95 28.95 21.65 28.65 22.05 28.4 Q23.25 27.6 23.95 26.3 L24.4 25.4 26.65 25.0 27.1 24.9 Q26.85 26.3 25.95 27.65 L25.8 27.9 M26.9 9.2 L27.05 9.55 27.05 9.65 26.4 10.0 26.3 9.6 26.9 9.15 26.9 9.2 M19.95 42.85 L20.0 42.95 20.15 43.25 19.8 43.35 19.4 43.4 19.15 42.8 19.75 42.4 19.95 42.85 M30.9 50.75 L30.7 52.1 30.2 52.25 29.0 52.9 28.75 53.05 28.2 52.8 27.3 52.35 27.55 51.75 27.8 51.25 30.9 50.75" fill="#806360" fill-rule="evenodd" stroke="none"/>
      <path d="M36.55 21.15 Q36.9 20.35 37.55 19.65 39.1 18.1 40.7 18.1 L40.85 18.1 Q37.15 16.1 34.1 15.15 L33.85 15.1 Q30.05 13.9 25.55 13.9 L25.3 13.9 23.4 14.2 Q21.6 14.5 20.15 15.05 22.9 15.5 25.3 18.05 L27.15 20.4 25.8 19.75 Q24.8 18.35 23.05 17.5 20.05 16.15 16.7 17.1 13.35 18.05 11.55 20.75 L11.35 21.15 Q9.8 23.75 10.65 26.55 11.5 29.5 14.5 30.9 17.5 32.35 20.85 31.4 24.0 30.45 25.8 27.9 L25.9 27.9 28.05 26.7 28.35 26.6 Q27.85 29.25 25.15 31.2 21.85 33.5 17.25 33.5 13.8 33.5 11.75 31.55 9.55 29.4 9.55 25.1 9.55 23.3 10.1 21.55 9.25 22.75 8.35 24.9 L8.3 25.1 Q8.05 26.3 8.05 27.7 L8.05 28.75 Q8.55 32.1 10.8 35.3 L11.95 36.85 13.9 37.05 19.3 37.35 20.55 35.85 22.4 33.85 23.1 33.2 24.1 33.55 23.55 34.6 23.2 35.55 22.35 38.1 22.2 38.6 Q16.2 39.1 12.9 37.7 L10.9 36.45 Q7.2 33.15 7.4 27.1 7.5 20.95 13.0 16.95 L14.6 15.95 Q18.6 13.65 23.9 13.15 L26.9 13.0 27.35 13.0 Q33.95 13.1 39.1 15.75 L40.2 16.4 41.25 17.05 Q42.35 17.75 43.25 18.65 47.2 22.45 46.95 28.8 L46.75 31.2 46.55 32.05 45.95 33.8 Q45.1 35.45 43.7 36.15 42.6 36.7 41.2 36.7 L33.15 37.25 33.2 37.05 33.25 36.7 33.3 36.35 33.5 34.75 34.3 34.6 33.5 34.75 30.65 34.95 Q28.4 34.95 25.85 33.95 L25.9 33.95 30.85 34.65 32.35 34.7 34.3 34.6 36.7 34.15 Q38.5 33.65 39.65 32.95 L40.0 33.25 40.05 33.3 37.35 34.55 35.2 35.35 35.25 36.15 37.2 36.3 41.65 35.7 Q43.6 35.2 44.8 34.7 L44.95 34.25 Q45.8 32.15 45.8 30.55 L45.75 29.05 44.75 29.45 42.6 29.9 Q40.35 29.9 38.3 28.4 37.05 27.4 36.45 26.1 L37.9 26.5 Q39.55 27.15 40.1 27.9 L40.35 27.65 41.45 28.4 42.2 28.75 Q44.1 29.4 45.4 28.5 46.65 27.55 46.6 25.55 L46.3 23.8 45.2 21.75 Q43.85 19.9 42.0 19.25 40.15 18.6 38.9 19.55 38.15 20.1 37.85 21.0 L36.55 21.15 M25.9 47.75 L26.15 46.75 26.5 46.15 32.5 45.5 38.2 44.85 39.35 46.3 33.0 48.65 32.05 48.9 31.65 49.05 27.85 49.85 27.3 49.55 26.55 49.1 25.65 48.55 25.9 47.75" fill="#e09e75" fill-rule="evenodd" stroke="none"/>
      <path d="M27.15 20.4 L25.3 18.05 Q22.9 15.5 20.15 15.05 21.6 14.5 23.4 14.2 L25.3 13.9 25.55 13.9 Q30.05 13.9 33.85 15.1 L34.1 15.15 Q37.15 16.1 40.85 18.1 L40.7 18.1 Q39.1 18.1 37.55 19.65 36.9 20.35 36.55 21.15 L33.45 21.25 31.55 21.15 30.7 21.0 27.7 20.6 27.15 20.4 M36.45 26.1 Q37.05 27.4 38.3 28.4 40.35 29.9 42.6 29.9 L44.75 29.45 45.75 29.05 45.8 30.55 Q45.8 32.15 44.95 34.25 L44.8 34.7 Q43.6 35.2 41.65 35.7 L37.2 36.3 35.25 36.15 35.2 35.35 37.35 34.55 40.05 33.3 40.0 33.25 39.65 32.95 Q38.5 33.65 36.7 34.15 L34.3 34.6 32.35 34.7 30.85 34.65 25.9 33.95 25.85 33.95 25.75 33.9 25.4 33.75 25.2 33.65 25.05 33.65 24.25 33.25 24.1 33.55 23.1 33.2 22.4 33.85 20.55 35.85 19.3 37.35 13.9 37.05 11.95 36.85 10.8 35.3 Q8.55 32.1 8.05 28.75 L8.05 27.7 Q8.05 26.3 8.3 25.1 L8.35 24.9 Q9.25 22.75 10.1 21.55 9.55 23.3 9.55 25.1 9.55 29.4 11.75 31.55 13.8 33.5 17.25 33.5 21.85 33.5 25.15 31.2 27.85 29.25 28.35 26.6 L30.3 26.0 33.15 25.7 36.45 26.1 M27.7 16.15 Q27.7 17.1 29.0 18.05 30.4 19.05 32.05 19.05 L32.2 19.05 Q33.55 19.0 34.5 18.45 35.25 18.0 35.25 17.45 35.25 16.65 33.6 15.9 L32.8 15.5 31.85 15.2 31.75 15.2 30.4 14.9 29.8 14.85 Q28.8 14.85 28.2 15.25 27.7 15.65 27.7 16.15 M40.05 33.3 L40.05 33.1 39.7 32.65 36.55 33.95 34.3 34.6 36.55 33.95 39.7 32.65 40.05 33.1 40.05 33.3 M22.4 33.85 L23.45 32.8 24.25 33.25 23.45 32.8 22.4 33.85" fill="#ffd496" fill-rule="evenodd" stroke="none"/>
      <path d="M40.9 22.45 L40.9 22.4 41.1 22.15 41.15 22.15 41.6 22.05 41.75 22.05 Q42.5 22.05 43.3 22.7 44.15 23.4 44.2 24.3 L42.5 23.3 42.35 23.25 41.85 22.95 40.9 22.45 M41.95 24.55 L42.05 24.6 42.4 24.85 43.0 25.3 43.5 25.65 42.85 25.75 42.05 25.5 41.85 25.4 41.75 25.35 41.7 25.25 Q41.05 24.7 40.85 23.8 L41.95 24.55 M21.3 21.25 L21.65 21.5 20.45 22.15 19.3 22.7 18.15 23.3 17.65 23.55 16.3 24.3 15.55 24.7 15.3 24.8 Q15.15 24.85 15.05 24.95 L14.95 23.95 14.95 23.85 14.95 23.65 15.05 23.3 Q15.3 21.85 16.95 21.0 L17.0 20.95 19.25 20.7 19.55 20.75 Q20.55 20.75 21.3 21.25 M22.5 23.05 L22.7 23.0 22.8 24.05 22.35 25.5 22.05 26.1 21.7 26.45 21.35 26.9 20.25 27.65 Q19.3 28.15 18.15 28.15 17.2 28.15 16.5 27.75 L15.75 27.0 15.55 26.6 15.95 26.4 16.75 25.95 18.55 25.05 18.9 24.9 20.05 24.3 21.15 23.8 22.5 23.05" fill="#81ebff" fill-rule="evenodd" stroke="none"/>
      <path d="M40.9 22.45 L41.85 22.95 42.35 23.25 42.5 23.3 44.2 24.3 Q44.15 23.4 43.3 22.7 42.5 22.05 41.75 22.05 L41.6 22.05 41.15 22.15 41.1 22.15 40.9 22.4 40.9 22.45 M44.85 25.45 L44.1 25.0 42.2 23.9 41.85 23.7 40.8 23.05 40.65 23.0 39.7 22.45 40.65 23.0 40.8 23.05 41.85 23.7 42.2 23.9 44.1 25.0 44.85 25.45 44.35 26.4 44.15 26.55 42.35 26.65 41.4 26.2 41.1 25.9 40.5 25.25 40.45 25.2 Q39.7 24.1 39.65 23.05 L39.7 22.45 Q39.8 21.85 40.2 21.5 L40.4 21.35 Q41.1 20.75 42.2 21.15 43.3 21.55 44.1 22.65 44.8 23.65 44.9 24.7 L44.9 24.8 44.85 25.45 M41.95 24.55 L40.85 23.8 Q41.05 24.7 41.7 25.25 L41.75 25.35 41.85 25.4 42.05 25.5 42.85 25.75 43.5 25.65 43.0 25.3 42.4 24.85 42.05 24.6 41.95 24.55 M13.35 22.65 L13.65 22.0 Q14.8 19.95 17.1 19.2 19.4 18.4 21.55 19.25 L21.95 19.5 23.0 20.2 23.4 20.65 24.05 21.5 24.4 22.3 Q24.9 23.85 24.4 25.4 L23.95 26.3 Q23.25 27.6 22.05 28.4 L21.65 28.65 20.95 28.95 20.6 29.15 20.55 29.15 16.1 29.05 Q14.3 28.25 13.5 26.6 L13.25 26.05 Q12.65 24.3 13.35 22.65 M21.3 21.25 Q20.55 20.75 19.55 20.75 L19.25 20.7 17.0 20.95 16.95 21.0 Q15.3 21.85 15.05 23.3 L14.95 23.65 14.95 23.85 14.95 23.95 15.05 24.95 Q15.15 24.85 15.3 24.8 L15.55 24.7 16.3 24.3 17.65 23.55 18.15 23.3 19.3 22.7 20.45 22.15 21.65 21.5 21.3 21.25 M24.05 21.5 Q23.3 21.9 22.65 22.25 L22.4 22.35 19.8 23.65 18.55 24.2 17.45 24.7 15.6 25.6 15.2 25.8 13.5 26.6 15.2 25.8 15.6 25.6 17.45 24.7 18.55 24.2 19.8 23.65 22.4 22.35 22.65 22.25 Q23.3 21.9 24.05 21.5 M22.5 23.05 L21.15 23.8 20.05 24.3 18.9 24.9 18.55 25.05 16.75 25.95 15.95 26.4 15.55 26.6 15.75 27.0 16.5 27.75 Q17.2 28.15 18.15 28.15 19.3 28.15 20.25 27.65 L21.35 26.9 21.7 26.45 22.05 26.1 22.35 25.5 22.8 24.05 22.7 23.0 22.5 23.05" fill="#41b4e7" fill-rule="evenodd" stroke="none"/>
      <path d="M33.15 37.25 L41.2 36.7 Q42.6 36.7 43.7 36.15 L44.75 36.45 44.8 36.45 43.75 37.7 38.55 38.05 34.7 38.35 32.95 38.55 33.15 37.25 M14.6 15.95 L13.0 16.95 Q7.5 20.95 7.4 27.1 7.2 33.15 10.9 36.45 L12.9 37.7 Q16.2 39.1 22.2 38.6 L21.95 39.85 17.5 40.2 16.75 40.2 14.15 39.9 13.75 39.8 13.05 39.4 13.0 39.4 12.95 39.35 10.75 37.95 8.35 35.55 7.0 33.9 6.8 33.25 Q6.35 31.5 6.35 29.95 L6.45 28.0 Q6.5 27.0 6.7 25.95 L7.2 23.3 8.05 20.5 Q9.45 19.15 12.25 17.25 L14.5 15.75 14.6 15.9 14.6 15.95" fill="#d2b9b1" fill-rule="evenodd" stroke="none"/>
      <path d="M43.25 45.1 L41.5 46.05 41.4 45.9 41.25 45.8 40.7 45.2 39.2 43.8 41.55 42.95 41.6 42.95 41.85 43.3 42.45 44.1 42.65 44.4 42.75 44.5 43.25 45.1" fill="#4a4934" fill-rule="evenodd" stroke="none"/>
      <path d="M31.8 50.25 L31.8 50.55 31.8 50.6 31.9 51.7 31.95 52.75 31.4 53.15 30.0 54.05 27.05 54.05 26.85 54.0 25.3 53.55 25.25 53.5 24.85 52.35 25.9 51.15 26.15 50.85 26.45 50.85 31.8 50.25 M33.4 53.55 L33.6 54.05 32.75 54.05 33.4 53.55 M41.2 42.4 L41.35 42.65 41.55 42.95 39.2 43.8 38.6 43.2 38.5 43.2 38.6 41.75 40.3 41.2 40.7 41.8 41.1 42.4 41.2 42.4 M30.9 50.75 L27.8 51.25 27.55 51.75 27.3 52.35 28.2 52.8 28.75 53.05 29.0 52.9 30.2 52.25 30.7 52.1 30.9 50.75" fill="#6b4440" fill-rule="evenodd" stroke="none"/>
      <path d="M41.25 45.8 L39.8 46.85 Q36.75 48.9 33.25 49.85 L32.2 50.15 31.8 50.25 26.45 50.85 26.15 50.85 25.85 50.85 24.4 50.85 22.6 50.7 22.05 50.6 18.3 49.85 18.15 50.2 18.0 50.45 16.05 50.9 14.85 51.6 14.1 50.85 13.05 49.95 Q11.6 50.5 10.35 52.1 L9.95 52.65 9.1 48.45 Q8.7 46.7 7.25 43.3 L6.8 42.3 5.15 39.8 5.5 39.75 8.35 39.55 8.4 39.55 9.0 41.45 9.35 42.75 9.75 44.6 9.9 45.2 12.9 45.7 13.4 45.8 19.7 46.55 19.55 46.55 23.1 46.8 25.15 46.85 25.8 45.6 26.3 44.85 38.5 43.2 38.6 43.2 39.2 43.8 40.7 45.2 41.25 45.8 M25.9 47.75 L25.65 48.55 26.55 49.1 27.3 49.55 27.85 49.85 31.65 49.05 32.05 48.9 33.0 48.65 39.35 46.3 38.2 44.85 32.5 45.5 26.5 46.15 26.15 46.75 25.9 47.75" fill="#b86f4c" fill-rule="evenodd" stroke="none"/>
      <path d="M36.1 6.5 L36.7 6.15 38.3 7.0 38.9 7.25 39.35 7.6 38.3 8.05 37.65 8.35 36.1 6.5 M14.7 8.2 L13.15 6.5 14.2 5.5 15.9 6.95 14.7 8.2" fill="#65833c" fill-rule="evenodd" stroke="none"/>
      <path d="M39.35 7.6 Q40.6 8.55 41.35 9.75 L40.3 10.4 39.7 10.75 38.35 9.15 37.65 8.35 38.3 8.05 39.35 7.6 M14.2 5.5 L16.55 3.5 Q18.55 1.9 20.3 0.8 L20.7 1.75 20.85 2.25 21.05 2.8 Q20.05 3.35 19.1 4.1 17.25 5.5 15.9 6.95 L14.2 5.5" fill="#93b662" fill-rule="evenodd" stroke="none"/>
      <path d="M29.15 11.4 L29.6 11.75 29.4 12.05 28.8 12.2 28.25 12.0 28.0 11.7 28.5 11.35 29.15 11.4 M22.6 18.45 L22.65 18.3 22.85 18.3 23.2 18.45 23.35 18.55 23.55 18.7 23.65 19.0 23.45 19.25 23.2 19.2 22.85 19.05 Q22.6 18.85 22.6 18.45 M39.7 20.0 L40.1 19.75 40.3 19.7 40.6 19.95 40.25 20.5 40.0 20.55 Q39.45 20.5 39.45 20.25 L39.7 20.0" fill="#f0ddd6" fill-rule="evenodd" stroke="none"/>
      <path d="M27.7 16.15 Q27.7 15.65 28.2 15.25 28.8 14.85 29.8 14.85 L30.4 14.9 31.75 15.2 31.85 15.2 32.8 15.5 33.6 15.9 Q35.25 16.65 35.25 17.45 35.25 18.0 34.5 18.45 33.55 19.0 32.2 19.05 L32.05 19.05 Q30.4 19.05 29.0 18.05 27.7 17.1 27.7 16.15 M33.4 16.2 L33.35 16.2 32.95 16.45 33.05 16.8 Q33.3 17.05 33.75 17.15 34.1 17.15 34.1 16.75 34.1 16.45 33.7 16.3 L33.4 16.2" fill="#ffefbd" fill-rule="evenodd" stroke="none"/>
      <path d="M27.15 20.4 L27.7 20.6 30.7 21.0 31.55 21.15 33.45 21.25 36.55 21.15 Q35.95 22.3 35.95 23.65 35.95 24.95 36.45 26.1 L33.15 25.7 30.3 26.0 28.35 26.6 28.45 25.4 Q28.45 22.7 27.15 20.4" fill="#6ee6f7" fill-rule="evenodd" stroke="none"/>
      <path d="M36.55 21.15 L37.85 21.0 37.65 22.45 37.85 23.9 Q38.2 25.1 39.05 26.25 L40.35 27.65 40.1 27.9 Q39.55 27.15 37.9 26.5 L36.45 26.1 Q35.95 24.95 35.95 23.65 35.95 22.3 36.55 21.15 M28.35 26.6 L28.05 26.7 25.9 27.9 25.8 27.9 25.95 27.65 Q26.85 26.3 27.1 24.9 27.3 23.45 26.9 21.9 26.55 20.7 25.8 19.75 L27.15 20.4 Q28.45 22.7 28.45 25.4 L28.35 26.6" fill="#45a9cb" fill-rule="evenodd" stroke="none"/>
      <path d="M33.4 16.2 L33.7 16.3 Q34.1 16.45 34.1 16.75 34.1 17.15 33.75 17.15 33.3 17.05 33.05 16.8 L32.95 16.45 33.35 16.2 33.4 16.2" fill="#fff9e9" fill-rule="evenodd" stroke="none"/>
      <path d="M-0.8 30.75 L-0.8 28.75 1.15 27.4 3.25 22.25 3.35 22.05 3.35 22.3 3.1 25.45 3.35 28.5 3.35 28.9 3.45 29.45 Q3.35 29.45 3.2 29.55 L2.0 29.95 1.3 30.3 0.25 30.9 -0.7 30.65 -0.8 30.75" fill="#624441" fill-rule="evenodd" stroke="none"/>
      <path d="M33.5 34.75 L33.3 36.35 32.25 36.4 26.55 35.65 26.3 36.3 25.95 36.95 25.25 36.85 25.15 36.45 24.95 35.15 24.55 35.0 Q24.05 36.55 23.9 38.45 L23.85 39.65 23.8 40.3 23.8 40.8 25.2 41.25 25.3 41.3 30.4 42.0 32.05 41.9 31.6 42.3 31.2 42.4 27.7 42.7 25.35 42.55 23.9 42.3 23.05 42.05 Q22.05 41.8 21.7 41.2 21.75 40.6 21.95 39.85 L22.2 38.6 22.35 38.1 23.2 35.55 23.55 34.6 24.1 33.55 24.25 33.25 25.05 33.65 25.2 33.65 25.4 33.75 25.75 33.9 25.85 33.95 Q28.4 34.95 30.65 34.95 L33.5 34.75 M26.95 36.2 L27.15 36.2 27.55 36.35 27.7 36.45 27.7 36.65 27.7 36.7 26.8 36.8 26.9 36.35 26.95 36.2" fill="#e2d6c5" fill-rule="evenodd" stroke="none"/>
      <path d="M33.3 36.35 L33.25 36.7 33.2 37.05 33.15 37.25 32.95 38.55 32.1 41.7 32.05 41.85 32.05 41.9 30.4 42.0 25.3 41.3 25.2 41.25 23.8 40.8 23.8 40.3 23.85 39.65 23.9 38.45 Q24.05 36.55 24.55 35.0 L24.95 35.15 25.15 36.45 25.25 36.85 25.95 36.95 26.3 36.3 26.55 35.65 32.25 36.4 33.3 36.35 M26.95 36.2 L26.9 36.35 26.8 36.8 27.7 36.7 27.7 36.65 27.7 36.45 27.55 36.35 27.15 36.2 26.95 36.2 M31.25 40.35 L31.0 40.45 30.85 40.65 30.75 40.75 30.7 40.8 30.55 41.15 30.65 41.35 30.9 41.35 31.15 41.3 31.45 40.8 31.45 40.4 31.25 40.35" fill="#fffff1" fill-rule="evenodd" stroke="none"/>
      <path d="M31.25 40.35 L31.45 40.4 31.45 40.8 31.15 41.3 30.9 41.35 30.65 41.35 30.55 41.15 30.7 40.8 30.75 40.75 30.85 40.65 31.0 40.45 31.25 40.35" fill="#ffffff" fill-rule="evenodd" stroke="none"/>
      <path d="M24.2 54.05 L23.95 54.05 24.1 54.0 24.2 54.05" fill="#5b2f2b" fill-rule="evenodd" stroke="none"/>
      <path d="M23.3 -0.6 L23.25 1.65 23.2 3.75 23.3 7.1 23.3 7.7 23.4 10.15 23.35 10.0 23.35 9.95 23.3 9.85 23.25 9.8 22.25 6.55 21.45 4.0 21.05 2.8 20.85 2.25 20.7 1.75 20.3 0.8 Q18.55 1.9 16.55 3.5 L14.2 5.5 13.15 6.5 14.7 8.2 14.85 8.35 17.85 11.2 17.9 11.2 17.85 11.25 Q15.4 12.2 11.9 14.1 9.1 15.6 6.9 17.3 4.85 19.25 3.35 22.05 L3.25 22.25 1.15 27.4 -0.8 28.75 M37.0 -0.6 L36.05 3.15 35.2 5.5 34.35 7.15 34.3 7.25 33.85 8.0 33.7 8.25 34.8 7.5 36.1 6.5 36.7 6.15 38.3 7.0 38.9 7.25 39.35 7.6 Q40.6 8.55 41.35 9.75 L40.3 10.4 39.7 10.75 39.2 11.1 38.5 11.55 37.5 12.2 38.6 12.6 Q40.9 13.55 43.3 16.15 44.75 17.7 46.2 19.9 49.3 24.4 50.25 28.0 L50.5 28.05 52.55 28.5 53.45 28.65 53.6 28.65 53.45 33.55 53.45 34.05 53.45 34.55 51.25 35.8 50.55 36.2 49.85 36.55 49.4 36.85 49.6 38.85 49.7 39.4 50.0 41.5 48.5 42.3 46.2 43.5 43.25 45.1 41.5 46.05 41.4 45.9 41.25 45.8 39.8 46.85 Q36.75 48.9 33.25 49.85 L32.2 50.15 31.8 50.25 31.8 50.55 31.8 50.6 31.9 51.7 31.95 52.75 31.4 53.15 33.3 53.45 33.4 53.55 33.6 54.05 M23.95 54.05 L24.1 54.0 25.3 53.55 25.25 53.5 24.85 52.35 25.9 51.15 26.15 50.85 25.85 50.85 24.4 50.85 22.6 50.7 22.05 50.6 18.3 49.85 18.15 50.2 18.0 50.45 16.05 50.9 14.85 51.6 14.1 50.85 13.05 49.95 Q11.6 50.5 10.35 52.1 L9.95 52.65 9.1 48.45 Q8.7 46.7 7.25 43.3 L6.8 42.3 5.15 39.8 4.5 39.85 4.2 39.85 4.0 39.9 1.7 40.15 1.15 40.2 0.0 39.35 -0.8 38.65 M37.85 21.0 Q38.15 20.1 38.9 19.55 40.15 18.6 42.0 19.25 43.85 19.9 45.2 21.75 L46.3 23.8 46.6 25.55 Q46.65 27.55 45.4 28.5 44.1 29.4 42.2 28.75 L41.45 28.4 40.35 27.65 39.05 26.25 Q38.2 25.1 37.85 23.9 L37.65 22.45 37.85 21.0 M34.3 34.6 L33.5 34.75 33.3 36.35 33.25 36.7 33.2 37.05 33.15 37.25 41.2 36.7 Q42.6 36.7 43.7 36.15 45.1 35.45 45.95 33.8 L46.55 32.05 46.75 31.2 46.95 28.8 Q47.2 22.45 43.25 18.65 42.35 17.75 41.25 17.05 L40.2 16.4 39.1 15.75 Q33.95 13.1 27.35 13.0 L26.9 13.0 23.9 13.15 Q18.6 13.65 14.6 15.95 L13.0 16.95 Q7.5 20.95 7.4 27.1 7.2 33.15 10.9 36.45 L12.9 37.7 Q16.2 39.1 22.2 38.6 L22.35 38.1 23.2 35.55 23.55 34.6 24.1 33.55 24.25 33.25 23.45 32.8 22.4 33.85 M25.8 27.9 Q24.0 30.45 20.85 31.4 17.5 32.35 14.5 30.9 11.5 29.5 10.65 26.55 9.8 23.75 11.35 21.15 L11.55 20.75 Q13.35 18.05 16.7 17.1 20.05 16.15 23.05 17.5 24.8 18.35 25.8 19.75 26.55 20.7 26.9 21.9 27.3 23.45 27.1 24.9 26.85 26.3 25.95 27.65 L25.8 27.9 M39.7 22.45 L40.65 23.0 40.8 23.05 41.85 23.7 42.2 23.9 44.1 25.0 44.85 25.45 44.9 24.8 44.9 24.7 Q44.8 23.65 44.1 22.65 43.3 21.55 42.2 21.15 41.1 20.75 40.4 21.35 L40.2 21.5 Q39.8 21.85 39.7 22.45 L39.65 23.05 Q39.7 24.1 40.45 25.2 L40.5 25.25 41.1 25.9 41.4 26.2 42.35 26.65 44.15 26.55 44.35 26.4 44.85 25.45 M41.25 45.8 L40.7 45.2 39.2 43.8 38.6 43.2 38.5 43.2 26.3 44.85 25.8 45.6 25.15 46.85 23.1 46.8 19.55 46.55 19.7 46.55 13.4 45.8 12.9 45.7 9.9 45.2 9.75 44.6 9.35 42.75 9.0 41.45 8.4 39.55 8.35 39.55 5.5 39.75 5.15 39.8 M32.95 38.55 L32.1 41.7 32.05 41.85 32.05 41.9 31.6 42.3 31.2 42.4 27.7 42.7 25.35 42.55 23.9 42.3 23.05 42.05 Q22.05 41.8 21.7 41.2 21.75 40.6 21.95 39.85 L22.2 38.6 M13.35 22.65 L13.65 22.0 Q14.8 19.95 17.1 19.2 19.4 18.4 21.55 19.25 L21.95 19.5 23.0 20.2 23.4 20.65 24.05 21.5 24.4 22.3 Q24.9 23.85 24.4 25.4 L23.95 26.3 Q23.25 27.6 22.05 28.4 L21.65 28.65 20.95 28.95 20.6 29.15 20.55 29.15 16.1 29.05 Q14.3 28.25 13.5 26.6 L15.2 25.8 15.6 25.6 17.45 24.7 18.55 24.2 19.8 23.65 22.4 22.35 22.65 22.25 Q23.3 21.9 24.05 21.5 M13.35 22.65 Q12.65 24.3 13.25 26.05 L13.5 26.6 M25.85 33.95 Q28.4 34.95 30.65 34.95 L33.5 34.75 M34.3 34.6 L36.55 33.95 39.7 32.65 40.05 33.1 40.05 33.3 M24.25 33.25 L25.05 33.65 25.2 33.65 25.4 33.75 25.75 33.9 25.85 33.95 M33.15 37.25 L32.95 38.55 M31.8 50.25 L26.45 50.85 26.15 50.85 M26.85 54.0 L25.3 53.55 M31.4 53.15 L30.0 54.05" fill="none" stroke="#430c0c" stroke-linecap="round" stroke-linejoin="round" stroke-width="1.0"/>
    </g>
    <g id="shape2" transform="matrix(1.0, 0.0, 0.0, 1.0, 0.0, 0.0)">
      <path d="M50.5 0.0 Q53.95 0.0 53.95 3.3 L53.95 50.15 Q53.95 53.4 50.5 53.4 L3.3 53.4 Q0.0 53.4 0.0 50.15 L0.0 3.3 Q0.0 0.0 3.3 0.0 L50.5 0.0" fill="#000000" fill-opacity="0.003921569" fill-rule="evenodd" stroke="none"/>
    </g>
  </defs>
</svg>
