<?xml version="1.0" encoding="UTF-8" standalone="no"?>
<svg xmlns:ffdec="https://www.free-decompiler.com/flash" xmlns:xlink="http://www.w3.org/1999/xlink" ffdec:objectType="frame" height="55.45px" width="56.85px" xmlns="http://www.w3.org/2000/svg">
  <g transform="matrix(1.0, 0.0, 0.0, 1.0, 1.15, 0.95)">
    <clipPath id="clipPath0" transform="matrix(1.0, 0.0, 0.0, 1.0, 0.0, 0.0)">
      <path d="M50.5 0.0 Q53.95 0.0 53.95 3.3 L53.95 50.15 Q53.95 53.4 50.5 53.4 L3.3 53.4 Q0.0 53.4 0.0 50.15 L0.0 3.3 Q0.0 0.0 3.3 0.0 L50.5 0.0" fill="#000000" fill-rule="evenodd" stroke="none"/>
    </clipPath>
    <g clip-path="url(#clipPath0)">
      <use ffdec:characterId="2" height="55.45" transform="matrix(1.0, 0.0, 0.0, 1.0, -1.15, -0.95)" width="56.85" xlink:href="#shape1"/>
    </g>
    <use ffdec:characterId="3" height="53.4" transform="matrix(1.0, 0.0, 0.0, 1.0, 0.0, 0.0)" width="53.95" xlink:href="#shape2"/>
  </g>
  <defs>
    <g id="shape1" transform="matrix(1.0, 0.0, 0.0, 1.0, 1.15, 0.95)">
      <path d="M38.55 -0.45 L39.55 -0.25 41.05 -0.45 45.5 -0.45 49.3 -0.45 50.35 0.6 Q50.95 2.45 50.95 4.55 50.95 9.8 47.75 12.35 45.2 14.35 41.15 14.35 L40.0 14.3 39.55 12.6 40.05 12.6 Q43.2 12.6 45.25 10.75 47.5 8.65 47.5 4.8 47.5 1.55 45.5 -0.45 47.5 1.55 47.5 4.8 47.5 8.65 45.25 10.75 43.2 12.6 40.05 12.6 L39.55 12.6 39.55 12.25 Q39.55 11.7 39.85 11.4 L37.3 9.9 37.05 9.5 36.8 9.2 36.7 9.1 36.55 8.95 36.35 8.75 35.85 8.6 35.25 8.7 33.6 7.85 33.6 7.6 33.6 7.85 33.5 7.8 33.6 7.6 33.75 6.85 33.65 6.15 33.55 5.85 33.55 5.8 33.15 5.5 33.05 5.45 32.25 5.15 Q31.6 5.15 31.05 5.6 L31.1 5.65 30.95 5.65 30.45 6.4 29.55 6.05 29.85 5.1 Q30.2 4.35 30.65 4.1 30.2 2.3 30.2 0.35 L30.25 -0.45 33.3 -0.45 38.55 -0.45 M32.65 1.45 Q32.75 0.4 33.3 -0.45 32.75 0.4 32.65 1.45 M37.7 7.8 L38.6 8.25 39.45 8.3 Q40.7 8.3 41.55 7.8 42.7 7.05 42.7 5.4 42.7 3.35 40.95 2.3 39.5 1.45 37.5 1.45 35.95 1.45 34.75 2.9 33.75 4.15 33.55 5.8 33.75 4.15 34.75 2.9 35.95 1.45 37.5 1.45 39.5 1.45 40.95 2.3 42.7 3.35 42.7 5.4 42.7 7.05 41.55 7.8 40.7 8.3 39.45 8.3 L38.6 8.25 37.7 7.8 M1.55 -0.45 Q4.0 0.15 6.45 2.85 L6.45 2.9 Q7.25 5.15 7.25 7.75 L7.15 9.5 Q5.55 11.15 4.15 13.4 3.05 15.1 2.25 17.0 L2.2 17.05 2.25 17.0 3.1 17.4 2.2 17.05 1.7 18.25 -0.65 19.2 -0.65 16.05 -0.65 1.05 0.1 1.15 0.25 1.15 Q0.7 1.15 0.95 0.95 L1.4 0.2 1.25 -0.45 1.55 -0.45 M-0.65 16.05 L0.25 15.3 Q3.05 12.7 3.05 8.0 3.05 3.7 0.1 1.15 3.05 3.7 3.05 8.0 3.05 12.7 0.25 15.3 L-0.65 16.05" fill="#ffd451" fill-rule="evenodd" stroke="none"/>
      <path d="M41.05 -0.45 L39.55 -0.25 38.55 -0.45 41.05 -0.45 M4.8 -0.45 L4.85 -0.4 Q5.9 1.1 6.45 2.85 4.0 0.15 1.55 -0.45 L4.8 -0.45 M1.25 -0.45 L1.4 0.2 0.95 0.95 Q0.7 1.15 0.25 1.15 L0.1 1.15 -0.65 1.05 -0.65 0.6 0.1 1.15 -0.65 0.6 -0.65 -0.45 1.25 -0.45 M49.3 -0.45 L49.95 -0.45 50.35 0.6 49.3 -0.45" fill="#edff51" fill-rule="evenodd" stroke="none"/>
      <path d="M28.15 -0.45 L30.25 -0.45 30.2 0.35 Q30.2 2.3 30.65 4.1 30.2 4.35 29.85 5.1 L29.55 6.05 Q28.7 5.7 27.85 5.5 L27.85 5.4 27.85 5.5 27.55 5.4 27.85 5.4 27.85 2.3 Q27.85 1.95 27.3 1.65 L27.45 1.15 28.15 -0.45 M30.45 6.4 L30.95 5.65 31.1 5.65 31.05 5.6 Q31.6 5.15 32.25 5.15 L33.05 5.45 33.15 5.5 33.55 5.8 33.55 5.85 33.65 6.15 33.75 6.85 33.6 7.6 33.5 6.6 33.55 5.85 33.5 6.6 33.6 7.6 33.5 7.8 31.35 6.8 30.45 6.4 M4.85 -0.4 Q6.7 1.5 8.0 3.95 8.95 5.7 9.25 7.7 L7.9 8.85 7.15 9.5 7.25 7.75 Q7.25 5.15 6.45 2.9 L6.45 2.85 Q5.9 1.1 4.85 -0.4 M-0.65 19.2 L1.7 18.25 0.5 22.1 -0.65 22.3 -0.65 19.2 M49.95 -0.45 L50.4 -0.45 51.6 1.5 Q53.45 5.05 52.35 9.7 L52.3 10.05 52.05 11.6 50.9 13.95 50.6 13.75 Q49.0 15.55 46.0 16.25 L45.45 16.35 45.35 16.2 45.05 16.4 42.0 16.6 41.65 16.4 41.35 16.15 40.7 15.45 40.0 14.3 41.15 14.35 Q45.2 14.35 47.75 12.35 50.95 9.8 50.95 4.55 50.95 2.45 50.35 0.6 L49.95 -0.45 M35.25 8.7 L35.85 8.6 36.35 8.75 36.55 8.95 36.7 9.1 36.8 9.2 37.05 9.5 37.3 9.9 36.65 9.5 36.5 9.45 35.25 8.7" fill="#f5c42f" fill-rule="evenodd" stroke="none"/>
      <path d="M50.9 13.95 Q49.4 16.25 46.95 17.8 L46.75 17.95 45.45 16.35 46.0 16.25 Q49.0 15.55 50.6 13.75 L50.9 13.95 M-0.1 25.0 L-0.65 25.15 -0.65 22.3 0.5 22.1 -0.1 25.0 M42.0 16.6 L45.05 16.4 44.55 16.7 43.55 17.0 Q42.7 17.0 42.0 16.6 M-0.65 28.3 L-0.55 28.45 -0.65 28.5 -0.65 28.3" fill="#e2ad0c" fill-rule="evenodd" stroke="none"/>
      <path d="M55.2 40.8 L55.2 48.25 54.85 47.8 Q53.9 47.3 52.4 47.0 L50.05 46.85 50.0 46.85 48.8 46.95 48.75 46.95 Q47.95 46.85 47.2 47.3 L47.1 47.1 47.9 46.4 Q49.35 44.9 49.9 42.55 L50.0 41.85 51.0 41.15 Q51.8 40.3 51.5 39.45 51.2 38.6 50.5 38.3 L50.15 38.15 49.95 36.0 49.85 35.5 49.95 34.55 Q49.95 33.55 49.5 32.45 L50.25 31.9 51.3 33.3 51.55 33.65 53.5 37.15 55.2 40.8 M33.2 14.2 L33.35 14.05 33.8 13.7 Q34.35 13.35 35.2 13.35 36.25 13.35 37.4 13.8 38.15 14.1 39.0 14.65 L41.2 16.3 41.55 16.55 41.55 16.6 Q42.65 17.55 43.45 19.0 L43.5 19.0 Q44.35 20.4 44.5 21.5 L44.5 21.55 44.55 21.7 44.6 22.3 44.6 22.35 44.45 22.35 44.2 22.45 44.1 22.5 42.0 22.75 41.85 22.75 Q40.15 22.75 38.7 22.15 L37.75 21.65 Q36.5 20.95 35.45 19.65 L35.15 19.3 33.9 17.2 33.85 17.05 33.8 17.0 33.75 16.8 33.3 15.1 33.25 14.8 33.2 14.2 M14.8 16.5 Q14.95 14.2 15.15 13.8 L15.95 12.5 16.0 12.45 16.0 12.4 16.05 12.35 17.15 11.45 17.5 11.3 Q18.85 10.4 19.4 10.4 21.45 10.4 23.15 11.4 L24.0 11.95 24.05 12.0 Q25.15 12.9 25.75 14.0 26.5 15.35 26.5 17.15 26.5 19.1 25.15 20.8 23.9 22.45 22.2 22.95 L22.25 23.3 21.25 23.35 21.15 23.35 18.6 22.8 Q17.15 22.1 16.05 20.6 14.7 18.7 14.45 16.55 L14.8 16.5 M15.25 35.75 L16.0 37.95 Q16.4 39.45 16.4 41.25 16.4 44.85 14.95 47.1 L14.9 47.2 13.15 48.0 Q11.95 48.55 10.75 48.55 9.25 48.55 8.1 47.8 L8.8 47.35 8.95 47.1 8.8 47.35 8.1 47.8 7.75 47.55 8.2 46.75 8.95 47.1 9.95 45.2 Q10.6 43.9 10.6 42.8 L10.5 41.15 Q10.3 39.4 9.6 37.85 8.5 35.4 6.7 34.65 L6.9 34.4 Q8.25 32.45 10.35 31.8 L10.45 31.45 Q11.85 31.95 13.2 33.05 14.45 34.2 15.25 35.75 M7.75 34.4 L6.9 34.4 7.75 34.4 M7.45 43.25 L7.3 42.9 7.55 43.2 7.45 43.25" fill="#093c09" fill-rule="evenodd" stroke="none"/>
      <path d="M9.25 7.7 Q13.65 4.5 19.6 4.5 L21.8 4.45 22.95 4.4 23.35 4.65 23.55 4.65 25.75 4.95 25.5 5.15 23.9 6.5 Q22.7 7.7 22.7 8.5 L22.75 8.95 21.15 8.75 19.0 9.05 Q17.7 9.35 16.7 10.05 L16.45 10.35 15.45 12.05 15.0 13.0 Q14.4 14.5 14.4 15.7 L14.45 16.55 14.4 15.7 Q14.4 14.5 15.0 13.0 L15.45 12.05 16.45 10.35 16.7 10.05 Q17.7 9.35 19.0 9.05 L21.15 8.75 22.75 8.95 23.2 9.05 24.1 9.3 24.3 9.4 24.5 9.5 25.6 10.0 26.85 10.9 27.5 11.55 27.6 11.65 27.85 11.9 28.2 12.4 28.45 12.7 28.65 13.0 28.85 13.4 Q29.85 15.15 29.85 16.9 L29.85 17.0 Q29.85 18.4 28.8 19.85 L28.55 20.2 28.55 20.25 Q27.45 21.65 26.4 22.1 24.3 23.1 22.25 23.3 L22.2 22.95 Q23.9 22.45 25.15 20.8 26.5 19.1 26.5 17.15 26.5 15.35 25.75 14.0 25.15 12.9 24.05 12.0 L24.0 11.95 23.15 11.4 Q21.45 10.4 19.4 10.4 18.85 10.4 17.5 11.3 L17.15 11.45 16.05 12.35 16.0 12.4 16.0 12.45 15.95 12.5 15.15 13.8 Q14.95 14.2 14.8 16.5 L14.45 16.55 Q14.7 18.7 16.05 20.6 17.15 22.1 18.6 22.8 L21.15 23.35 21.15 23.7 21.1 24.95 Q20.9 25.9 20.1 26.25 L19.4 24.7 Q18.95 23.8 18.35 23.4 L17.65 24.45 17.55 25.35 Q17.55 26.35 18.35 29.2 19.1 32.05 19.1 33.35 L18.6 37.05 18.5 37.85 18.3 39.7 17.45 47.45 17.3 50.45 Q17.3 51.45 17.85 53.75 L17.85 53.8 17.95 54.0 13.7 54.0 4.6 54.0 4.35 54.0 4.7 53.4 Q5.0 51.95 5.65 50.7 L5.95 50.2 6.45 49.45 6.7 49.65 7.7 50.25 8.75 50.45 Q11.25 50.45 13.2 48.95 L13.45 48.75 13.7 48.6 14.9 47.2 13.7 48.6 13.45 48.75 13.2 48.95 Q11.25 50.45 8.75 50.45 L7.7 50.25 6.7 49.65 6.45 49.45 7.65 48.15 7.45 47.9 7.75 47.55 8.1 47.8 Q9.25 48.55 10.75 48.55 11.95 48.55 13.15 48.0 L14.9 47.2 14.95 47.1 Q16.4 44.85 16.4 41.25 16.4 39.45 16.0 37.95 L15.25 35.75 Q15.45 35.3 15.15 31.95 L14.5 26.1 15.15 31.95 Q15.45 35.3 15.25 35.75 14.45 34.2 13.2 33.05 11.85 31.95 10.45 31.45 L10.35 31.8 Q8.25 32.45 6.9 34.4 L6.4 34.4 6.2 34.45 Q4.8 34.7 2.75 35.6 L3.55 33.7 Q5.1 31.0 8.05 31.0 L10.45 31.45 8.05 31.0 Q5.1 31.0 3.55 33.7 L2.75 35.6 Q4.8 34.7 6.2 34.45 L6.4 34.4 6.9 34.4 6.7 34.65 Q8.5 35.4 9.6 37.85 10.3 39.4 10.5 41.15 8.6 39.35 6.95 39.35 L5.1 39.55 Q3.65 39.8 2.3 40.55 0.8 41.3 -0.65 42.7 L-0.65 40.85 -0.65 37.15 -0.5 37.05 -0.1 36.85 0.1 36.75 Q1.1 36.25 2.0 35.9 L2.75 35.6 2.0 35.9 Q1.4 30.25 1.4 27.9 L1.6 24.35 1.95 22.0 1.95 21.75 Q2.45 18.95 3.2 17.4 L3.1 17.4 2.25 17.0 Q3.05 15.1 4.15 13.4 5.55 11.15 7.15 9.5 L7.9 8.85 9.25 7.7 M46.75 17.95 L47.55 18.9 47.5 19.15 Q47.1 20.85 45.6 21.8 L44.6 22.3 44.55 21.7 44.5 21.55 44.5 21.5 Q44.35 20.4 43.5 19.0 L43.45 19.0 Q42.65 17.55 41.55 16.6 L41.55 16.55 41.2 16.3 39.0 14.65 Q38.15 14.1 37.4 13.8 36.25 13.35 35.2 13.35 34.35 13.35 33.8 13.7 L33.35 14.05 33.2 14.2 33.2 13.85 33.25 12.75 Q33.45 11.1 34.25 10.35 L34.3 10.3 34.7 10.05 Q35.3 9.7 36.5 9.45 L36.65 9.5 37.3 9.9 39.85 11.4 Q39.55 11.7 39.55 12.25 L39.55 12.6 40.0 14.3 40.7 15.45 41.35 16.15 41.65 16.4 42.0 16.6 Q42.7 17.0 43.55 17.0 L44.55 16.7 45.05 16.4 45.35 16.2 45.45 16.35 46.75 17.95 M22.7 46.5 L23.5 46.3 23.75 46.25 24.2 46.15 24.25 46.15 24.35 46.45 24.0 46.9 23.1 48.25 23.1 48.3 22.95 48.7 22.75 49.45 22.5 50.6 22.45 52.0 Q22.4 53.1 22.15 53.1 L21.25 52.85 20.7 52.6 19.4 52.1 19.4 52.05 19.7 51.1 Q19.7 50.35 20.15 49.25 L20.2 49.05 20.6 48.35 20.7 48.1 21.65 46.9 21.75 46.65 22.7 46.5 M32.65 47.75 L33.6 46.65 33.85 46.55 35.0 46.4 36.65 46.2 37.0 46.2 37.0 46.5 Q36.0 47.25 35.7 49.25 L35.3 51.8 33.8 49.8 32.65 47.75 M45.8 48.4 L45.95 48.55 Q46.3 47.95 47.0 47.45 L47.2 47.3 Q47.95 46.85 48.75 46.95 L48.8 46.95 50.0 46.85 50.05 47.1 49.7 47.75 49.5 48.15 49.0 49.55 48.8 51.1 Q48.65 52.1 48.35 52.1 47.85 52.1 46.9 50.75 L45.65 48.9 45.5 48.65 45.8 48.4 M22.65 5.1 L23.9 6.5 22.65 5.1 M14.05 23.55 Q13.2 19.25 11.7 15.7 10.7 13.3 9.4 11.2 L7.9 8.85 9.4 11.2 Q10.7 13.3 11.7 15.7 13.2 19.25 14.05 23.55 L11.85 23.3 Q10.8 23.3 10.85 23.9 10.9 25.25 10.45 26.1 L12.35 26.0 14.5 26.1 14.4 25.3 14.05 23.55 M15.6 46.85 L15.0 47.1 14.9 47.2 15.0 47.1 15.6 46.85 M4.6 54.0 L4.7 53.4 4.6 54.0 M-0.65 40.85 L-0.6 40.8 Q0.25 40.2 1.25 39.65 L2.25 39.1 Q4.0 38.15 5.35 37.7 L6.6 37.4 5.35 37.7 Q4.0 38.15 2.25 39.1 L1.25 39.65 Q0.25 40.2 -0.6 40.8 L-0.65 40.85 M7.65 48.15 L8.1 47.8 7.65 48.15 M13.7 54.0 Q14.25 51.4 14.1 50.2 14.25 51.4 13.7 54.0" fill="#3a994a" fill-rule="evenodd" stroke="none"/>
      <path d="M29.55 6.05 L30.45 6.4 31.35 6.8 33.5 7.8 33.6 7.85 35.25 8.7 36.5 9.45 Q35.3 9.7 34.7 10.05 L34.3 10.3 34.25 10.35 33.5 9.9 33.0 9.6 Q31.55 9.0 30.45 9.0 L30.4 9.0 Q28.75 9.0 27.6 10.05 L27.55 10.05 27.2 9.65 27.15 9.65 25.8 8.35 25.45 8.0 24.65 7.3 23.9 6.5 24.65 7.3 25.45 8.0 25.8 8.35 27.15 9.65 27.2 9.65 27.55 10.05 27.2 10.45 26.85 10.9 25.6 10.0 24.5 9.5 24.3 9.4 24.1 9.3 23.2 9.05 22.75 8.95 22.7 8.5 Q22.7 7.7 23.9 6.5 L25.5 5.15 25.75 4.95 25.85 5.0 27.55 5.4 27.85 5.5 Q28.7 5.7 29.55 6.05 M1.7 18.25 L2.2 17.05 3.1 17.4 3.2 17.4 Q2.45 18.95 1.95 21.75 L1.95 22.0 1.6 24.35 1.4 27.9 Q1.4 30.25 2.0 35.9 1.1 36.25 0.1 36.75 L-0.1 36.85 -0.5 37.05 -0.5 34.25 Q-0.75 29.35 -0.1 25.0 L0.5 22.1 1.7 18.25 M24.6 54.0 L17.95 54.0 17.85 53.8 17.85 53.75 Q17.3 51.45 17.3 50.45 L17.45 47.45 18.3 39.7 18.5 37.85 18.6 37.05 19.1 33.35 Q19.1 32.05 18.35 29.2 17.55 26.35 17.55 25.35 L17.65 24.45 18.35 23.4 Q18.95 23.8 19.4 24.7 L20.1 26.25 Q20.9 25.9 21.1 24.95 L21.15 23.7 21.15 23.35 21.25 23.35 22.25 23.3 Q24.3 23.1 26.4 22.1 27.45 21.65 28.55 20.25 L28.55 20.2 28.8 19.85 29.35 20.7 29.65 21.1 32.75 24.95 33.35 25.4 28.25 25.5 25.05 25.8 Q24.2 26.0 23.45 26.3 L22.65 27.15 Q21.7 27.9 21.1 28.75 L20.9 29.2 Q19.85 30.6 19.85 32.5 L19.85 33.05 19.1 37.1 19.05 37.95 19.0 40.65 19.0 41.6 19.05 48.45 Q19.05 49.65 19.2 50.65 L19.4 52.05 19.4 52.1 20.7 52.6 21.25 52.85 22.15 53.1 Q22.4 53.1 22.45 52.0 L22.5 50.6 22.75 49.45 22.95 48.7 23.1 48.3 23.1 48.25 24.0 46.9 24.35 46.45 24.25 46.15 26.3 46.05 27.2 46.05 27.2 46.55 Q26.55 47.7 26.05 49.1 L25.8 49.6 25.15 51.7 24.6 54.0 M-0.65 45.6 L-0.65 42.7 Q0.8 41.3 2.3 40.55 3.65 39.8 5.1 39.55 L6.95 39.35 Q8.6 39.35 10.5 41.15 L10.6 42.8 Q10.6 43.9 9.95 45.2 L8.95 47.1 8.2 46.75 8.3 45.55 Q8.3 44.2 7.55 43.2 L8.75 42.75 7.55 43.2 7.3 42.9 Q6.4 41.9 5.1 41.75 L4.7 41.75 Q3.65 41.75 2.5 42.45 1.25 43.25 -0.2 45.0 L-0.65 45.6 M37.75 21.65 L38.7 22.15 Q40.15 22.75 41.85 22.75 L42.0 22.75 44.1 22.5 44.2 22.45 44.4 23.1 Q46.1 24.95 47.7 27.7 L47.85 28.0 46.95 28.45 46.55 28.15 45.9 27.55 45.7 27.4 45.4 27.15 43.75 24.9 Q43.2 24.45 41.6 24.45 40.5 24.45 39.6 23.7 L38.6 22.65 37.75 21.65 M-0.3 52.9 L0.5 53.15 -0.35 53.1 -0.3 52.9" fill="#40cd5c" fill-rule="evenodd" stroke="none"/>
      <path d="M47.55 18.9 L47.8 19.25 49.7 21.8 50.85 23.55 51.85 24.95 Q53.45 27.3 55.2 30.8 L55.2 40.8 53.5 37.15 51.55 33.65 51.3 33.3 50.25 31.9 49.9 31.5 49.7 31.25 48.9 29.95 48.9 29.85 48.25 28.7 47.85 28.0 47.7 27.7 Q46.1 24.95 44.4 23.1 L44.2 22.45 44.45 22.35 44.6 22.35 44.6 22.3 45.6 21.8 Q47.1 20.85 47.5 19.15 L47.55 18.9 M55.2 48.25 L55.2 54.0 45.7 54.0 29.1 54.0 24.6 54.0 25.15 51.7 25.8 49.6 26.05 49.1 Q26.55 47.7 27.2 46.55 L27.5 46.05 29.8 46.15 Q31.05 46.25 31.6 46.6 L32.4 47.35 32.55 47.65 32.65 47.75 33.8 49.8 35.3 51.8 35.7 49.25 Q36.0 47.25 37.0 46.5 L37.0 46.2 39.25 46.15 39.85 46.2 39.95 46.2 44.75 46.65 45.8 48.4 45.5 48.65 45.65 48.9 46.9 50.75 Q47.85 52.1 48.35 52.1 48.65 52.1 48.8 51.1 L49.0 49.55 49.5 48.15 49.7 47.75 50.05 47.1 50.0 46.85 50.05 46.85 52.4 47.0 Q53.9 47.3 54.85 47.8 L55.2 48.25 M4.35 54.0 L1.85 54.0 1.6 53.4 0.5 53.15 -0.3 52.9 -0.15 52.3 -0.3 52.9 -0.35 53.1 -0.6 54.0 -0.65 54.0 -0.65 52.5 -0.15 52.3 Q0.65 50.1 1.9 48.2 L2.7 47.1 3.15 46.5 3.7 45.9 5.6 44.35 Q4.3 44.4 3.3 45.0 L3.05 45.2 2.5 45.6 Q1.3 46.75 -0.65 50.6 L-0.65 45.6 -0.2 45.0 Q1.25 43.25 2.5 42.45 3.65 41.75 4.7 41.75 L5.1 41.75 Q6.4 41.9 7.3 42.9 L7.45 43.25 7.55 43.2 Q8.3 44.2 8.3 45.55 L8.2 46.75 7.75 47.55 7.45 47.9 7.65 48.15 6.45 49.45 5.95 50.2 5.65 50.7 Q5.0 51.95 4.7 53.4 L4.35 54.0 M33.2 14.2 L33.25 14.8 33.3 15.1 33.75 16.8 33.8 17.0 33.85 17.05 33.9 17.2 35.15 19.3 35.45 19.65 Q36.5 20.95 37.75 21.65 L38.6 22.65 39.6 23.7 Q40.5 24.45 41.6 24.45 43.2 24.45 43.75 24.9 L45.4 27.15 45.25 27.05 45.2 27.0 45.0 26.85 Q44.3 26.35 43.75 26.15 L43.75 26.1 40.1 25.6 35.15 25.35 33.35 25.4 32.75 24.95 29.65 21.1 29.35 20.7 28.8 19.85 Q29.85 18.4 29.85 17.0 L29.85 16.9 Q29.85 15.15 28.85 13.4 L28.65 13.0 28.45 12.7 28.2 12.4 27.85 11.9 27.6 11.65 27.5 11.55 26.85 10.9 27.2 10.45 27.55 10.05 27.6 10.05 Q28.75 9.0 30.4 9.0 L30.45 9.0 Q31.55 9.0 33.0 9.6 L33.5 9.9 34.25 10.35 Q33.45 11.1 33.25 12.75 L33.2 13.85 33.2 14.2 M34.95 24.8 L34.65 22.65 Q34.15 20.45 32.85 17.75 L32.8 17.75 32.8 17.65 32.75 17.55 32.65 17.35 31.45 15.15 30.7 13.9 29.9 12.7 29.85 12.65 29.85 12.6 29.7 12.45 28.45 10.95 27.55 10.05 28.45 10.95 29.7 12.45 29.85 12.6 29.85 12.65 29.9 12.7 30.7 13.9 31.45 15.15 32.65 17.35 32.75 17.55 32.8 17.65 32.8 17.75 32.85 17.75 Q34.15 20.45 34.65 22.65 L34.95 24.8 M5.95 44.1 L7.45 43.25 5.95 44.1 M29.35 52.45 L29.1 54.0 29.35 52.45 M38.8 50.35 L38.8 46.45 38.8 50.35 M45.7 54.0 L45.0 52.7 45.7 54.0" fill="#84e258" fill-rule="evenodd" stroke="none"/>
      <path d="M23.55 4.65 L23.6 4.4 Q23.8 1.05 24.95 1.05 L26.8 1.4 27.3 1.65 Q27.85 1.95 27.85 2.3 L27.85 5.4 27.55 5.4 25.85 5.0 25.75 4.95 23.55 4.65 M49.7 21.8 Q52.1 19.8 52.7 19.8 53.15 19.8 53.45 20.5 53.95 21.55 54.6 22.25 L52.05 24.85 51.85 24.95 50.85 23.55 49.7 21.8 M1.85 54.0 L-0.6 54.0 -0.35 53.1 0.5 53.15 1.6 53.4 1.85 54.0 M14.05 23.55 L14.4 25.3 14.5 26.1 12.35 26.0 10.45 26.1 Q10.9 25.25 10.85 23.9 10.8 23.3 11.85 23.3 L14.05 23.55" fill="#ffd400" fill-rule="evenodd" stroke="none"/>
      <path d="M45.7 27.4 L45.9 27.55 46.55 28.15 47.85 29.6 48.3 30.2 Q49.1 31.35 49.5 32.45 49.95 33.55 49.95 34.55 L49.85 35.5 Q49.55 36.85 48.45 37.65 L48.15 37.9 47.6 37.8 46.55 38.0 Q45.95 38.2 45.45 38.55 42.7 38.45 40.55 35.9 L40.5 35.85 Q39.55 34.75 39.05 33.6 38.55 32.45 38.55 31.3 38.55 30.15 38.9 29.25 39.35 28.1 40.35 27.3 41.7 26.25 43.15 26.25 L44.75 26.9 44.8 26.95 Q45.15 27.05 45.5 27.3 L45.7 27.4 M43.0 34.7 Q44.25 36.05 45.7 36.05 L47.3 35.6 Q48.1 35.1 48.1 33.9 L48.05 32.8 48.0 32.45 47.3 31.05 46.65 29.85 45.9 29.1 45.5 28.85 45.5 28.75 44.55 28.05 Q43.95 27.75 43.0 27.75 41.95 27.75 41.55 28.3 41.25 28.7 41.1 29.4 L41.05 30.25 Q41.05 31.6 41.85 33.05 L42.2 33.65 42.35 33.85 42.4 33.9 42.55 34.15 43.0 34.7 M32.2 36.75 L31.3 37.45 Q29.2 38.8 26.9 38.95 L26.5 38.95 25.65 38.9 25.1 38.75 25.15 38.75 24.65 38.65 Q23.5 38.35 22.45 37.55 L21.8 37.0 20.7 35.85 20.3 35.1 20.1 34.55 19.95 34.05 19.9 33.8 19.85 33.05 19.85 32.5 Q19.85 30.6 20.9 29.2 21.65 28.2 22.9 27.4 25.5 25.95 29.1 25.95 L30.2 26.05 30.75 26.15 30.9 26.2 Q32.45 27.35 33.2 28.7 L33.6 29.6 Q34.05 30.85 34.05 32.45 L33.95 33.65 Q33.6 35.45 32.2 36.75 M31.25 29.25 Q30.95 28.65 30.45 28.3 29.05 27.25 27.15 27.55 25.55 27.6 24.15 28.4 21.95 29.8 21.75 32.4 21.65 33.85 22.2 34.85 22.6 35.6 23.45 36.15 L24.0 36.45 Q26.25 37.55 28.55 36.75 30.8 36.0 31.5 33.85 L31.5 33.8 Q32.1 31.9 31.55 30.1 L31.25 29.25" fill="#fffca3" fill-rule="evenodd" stroke="none"/>
      <path d="M41.85 33.05 Q41.05 31.6 41.05 30.25 L41.1 29.4 Q41.25 28.7 41.55 28.3 41.95 27.75 43.0 27.75 43.95 27.75 44.55 28.05 L45.5 28.75 45.5 28.85 45.9 29.1 46.65 29.85 47.3 31.05 48.0 32.45 48.05 32.8 48.1 33.9 Q48.1 35.1 47.3 35.6 L45.7 36.05 Q44.25 36.05 43.0 34.7 L43.35 34.75 44.0 34.6 Q44.3 34.45 44.3 33.8 L44.25 33.6 43.9 32.55 Q43.45 31.95 43.0 31.95 42.1 31.95 42.1 32.65 L42.15 32.9 41.85 33.05 M31.25 29.25 L31.55 30.1 Q32.1 31.9 31.5 33.8 L31.5 33.85 Q30.8 36.0 28.55 36.75 26.25 37.55 24.0 36.45 L23.45 36.15 Q22.6 35.6 22.2 34.85 21.65 33.85 21.75 32.4 21.95 29.8 24.15 28.4 25.55 27.6 27.15 27.55 29.05 27.25 30.45 28.3 30.95 28.65 31.25 29.25 M24.15 31.95 L23.7 32.05 23.2 32.3 Q22.9 32.55 22.9 33.6 22.9 34.1 23.3 34.6 L23.35 34.7 Q23.65 35.1 24.15 35.2 L24.55 35.25 25.6 34.9 26.15 34.35 26.25 33.8 26.15 33.2 25.85 32.55 Q25.45 31.8 24.85 31.8 L24.15 31.95" fill="#663300" fill-rule="evenodd" stroke="none"/>
      <path d="M48.3 30.2 L48.55 30.05 48.65 30.1 48.7 30.2 49.7 31.25 49.9 31.5 50.25 31.9 49.5 32.45 Q49.1 31.35 48.3 30.2" fill="#093109" fill-rule="evenodd" stroke="none"/>
      <path d="M33.35 25.4 L35.15 25.35 40.1 25.6 43.75 26.1 43.75 26.15 Q44.3 26.35 45.0 26.85 L45.2 27.0 45.25 27.05 45.4 27.2 45.5 27.3 Q45.15 27.05 44.8 26.95 L44.75 26.9 43.15 26.25 Q41.7 26.25 40.35 27.3 39.35 28.1 38.9 29.25 L37.6 29.2 36.0 29.25 33.6 29.6 33.2 28.7 Q32.45 27.35 30.9 26.2 L30.75 26.15 30.2 26.05 29.1 25.95 Q25.5 25.95 22.9 27.4 21.65 28.2 20.9 29.2 L21.1 28.75 Q21.7 27.9 22.65 27.15 L23.45 26.3 Q24.2 26.0 25.05 25.8 L28.25 25.5 33.35 25.4 M19.85 33.05 L19.9 33.8 19.95 34.05 20.1 34.55 20.3 35.1 20.7 35.85 21.8 37.0 22.45 37.55 21.95 38.5 20.55 39.05 Q19.4 39.7 19.55 40.75 19.7 41.75 20.7 42.4 L20.5 45.0 20.6 48.35 20.2 49.05 19.05 48.45 19.0 41.6 19.0 40.65 19.05 37.95 19.1 37.1 19.85 33.05" fill="#ffd380" fill-rule="evenodd" stroke="none"/>
      <path d="M43.0 34.7 L42.55 34.15 42.4 33.9 42.35 33.85 42.2 33.65 41.85 33.05 42.15 32.9 42.1 32.65 Q42.1 31.95 43.0 31.95 43.45 31.95 43.9 32.55 L44.25 33.6 44.3 33.8 Q44.3 34.45 44.0 34.6 L43.35 34.75 43.0 34.7 M24.15 31.95 L24.85 31.8 Q25.45 31.8 25.85 32.55 L26.15 33.2 26.25 33.8 26.15 34.35 25.6 34.9 24.55 35.25 24.15 35.2 Q23.65 35.1 23.35 34.7 L23.3 34.6 Q22.9 34.1 22.9 33.6 22.9 32.55 23.2 32.3 L23.7 32.05 24.15 31.95" fill="#ffffff" fill-rule="evenodd" stroke="none"/>
      <path d="M40.5 35.85 L40.55 35.9 Q42.7 38.45 45.45 38.55 L45.25 38.75 Q44.45 39.6 44.8 40.55 45.2 41.65 46.45 42.15 L49.2 42.2 50.0 41.85 49.9 42.55 Q49.35 44.9 47.9 46.4 L47.1 47.1 47.2 47.3 47.0 47.45 Q46.3 47.95 45.95 48.55 L45.8 48.4 44.75 46.65 39.95 46.2 39.85 46.2 39.25 46.15 37.0 46.2 36.65 46.2 35.0 46.4 33.85 46.55 33.6 46.65 32.65 47.75 32.55 47.65 32.4 47.35 31.6 46.6 Q31.05 46.25 29.8 46.15 L27.5 46.05 27.2 46.05 26.3 46.05 24.25 46.15 24.2 46.15 23.75 46.25 23.5 46.3 22.7 46.5 22.7 45.85 Q22.7 44.35 23.2 43.1 L24.4 43.05 26.75 42.25 Q27.9 41.6 27.8 40.7 27.65 39.8 26.85 39.35 L26.55 39.15 26.9 38.95 Q29.2 38.8 31.3 37.45 L32.2 36.75 Q34.8 36.05 37.5 35.85 L39.45 35.75 39.8 35.8 40.5 35.85 M33.6 39.7 Q33.05 39.6 32.95 39.85 L32.9 40.45 Q32.9 41.4 33.7 42.15 34.75 43.1 36.65 43.1 38.45 43.1 39.75 42.55 41.0 41.95 41.0 41.2 L43.3 41.6 41.0 41.2 Q41.0 41.95 39.75 42.55 38.45 43.1 36.65 43.1 34.75 43.1 33.7 42.15 32.9 41.4 32.9 40.45 L32.95 39.85 Q33.05 39.6 33.6 39.7" fill="#f3ffc2" fill-rule="evenodd" stroke="none"/>
      <path d="M40.5 35.85 L39.8 35.8 39.45 35.75 37.5 35.85 Q34.8 36.05 32.2 36.75 33.6 35.45 33.95 33.65 L34.05 32.45 Q34.05 30.85 33.6 29.6 L36.0 29.25 37.6 29.2 38.9 29.25 Q38.55 30.15 38.55 31.3 38.55 32.45 39.05 33.6 39.55 34.75 40.5 35.85 M26.9 38.95 L26.55 39.15 25.65 38.9 26.5 38.95 26.9 38.95 M23.2 43.1 Q22.7 44.35 22.7 45.85 L22.7 46.5 21.75 46.65 21.65 46.9 20.7 48.1 20.6 48.35 20.5 45.0 20.7 42.4 21.1 42.6 23.2 43.1 M48.15 37.9 L48.45 37.65 Q49.55 36.85 49.85 35.5 L49.95 36.0 50.15 38.15 48.9 37.95 48.95 37.9 48.15 37.9 M22.45 37.55 Q23.5 38.35 24.65 38.65 L23.6 38.45 Q23.2 38.3 22.3 38.45 L21.95 38.5 22.45 37.55" fill="#fff1b6" fill-rule="evenodd" stroke="none"/>
      <path d="M26.55 39.15 L26.85 39.35 Q27.65 39.8 27.8 40.7 27.9 41.6 26.75 42.25 L24.4 43.05 23.2 43.1 21.1 42.6 20.7 42.4 Q19.7 41.75 19.55 40.75 19.4 39.7 20.55 39.05 L21.95 38.5 22.3 38.45 Q23.2 38.3 23.6 38.45 L24.65 38.65 25.15 38.75 25.1 38.75 25.65 38.9 26.55 39.15 M50.0 41.85 L49.2 42.2 46.45 42.15 Q45.2 41.65 44.8 40.55 44.45 39.6 45.25 38.75 L45.45 38.55 Q45.95 38.2 46.55 38.0 L47.6 37.8 48.15 37.9 48.95 37.9 48.9 37.95 50.15 38.15 50.5 38.3 Q51.2 38.6 51.5 39.45 51.8 40.3 51.0 41.15 L50.0 41.85" fill="#ffa694" fill-rule="evenodd" stroke="none"/>
      <path d="M-0.65 52.5 L-0.65 50.6 Q1.3 46.75 2.5 45.6 L3.05 45.2 3.3 45.0 Q4.3 44.4 5.6 44.35 L3.7 45.9 3.15 46.5 2.7 47.1 1.9 48.2 Q0.65 50.1 -0.15 52.3 L-0.65 52.5" fill="#d8ffc6" fill-rule="evenodd" stroke="none"/>
      <path d="M4.8 -0.45 L4.85 -0.4 Q6.7 1.5 8.0 3.95 8.95 5.7 9.25 7.7 M27.3 1.65 L27.45 1.15 28.15 -0.45 M50.4 -0.45 L51.6 1.5 Q53.45 5.05 52.35 9.7 L52.3 10.4 52.05 11.6 50.9 13.95 Q49.4 16.25 46.95 17.8 L46.75 17.95 M-0.1 25.0 L-0.65 25.15 M52.3 10.05 L52.3 10.4 M52.35 9.7 L52.3 10.05 52.05 11.6 M43.3 41.6 L41.0 41.2 Q41.0 41.95 39.75 42.55 38.45 43.1 36.65 43.1 34.75 43.1 33.7 42.15 32.9 41.4 32.9 40.45 L32.95 39.85 Q33.05 39.6 33.6 39.7 M-0.65 28.5 L-0.55 28.45 -0.65 28.3" fill="none" stroke="#663300" stroke-linecap="round" stroke-linejoin="round" stroke-width="1.0"/>
      <path d="M33.3 -0.45 Q32.75 0.4 32.65 1.45 M33.55 5.8 Q33.75 4.15 34.75 2.9 35.95 1.45 37.5 1.45 39.5 1.45 40.95 2.3 42.7 3.35 42.7 5.4 42.7 7.05 41.55 7.8 40.7 8.3 39.45 8.3 L38.6 8.25 37.7 7.8 M0.1 1.15 Q3.05 3.7 3.05 8.0 3.05 12.7 0.25 15.3 L-0.65 16.05 M45.5 -0.45 Q47.5 1.55 47.5 4.8 47.5 8.65 45.25 10.75 43.2 12.6 40.05 12.6 L39.55 12.6 M33.55 5.85 L33.55 5.8 M33.55 5.85 L33.5 6.6 33.6 7.6 33.6 7.85 M0.1 1.15 L-0.65 0.6" fill="none" stroke="#d3756d" stroke-linecap="round" stroke-linejoin="round" stroke-width="1.0"/>
      <path d="M29.55 6.05 L30.45 6.4 31.35 6.8 33.5 7.8 33.6 7.85 35.25 8.7 36.5 9.45 36.65 9.5 37.3 9.9 39.85 11.4 Q39.55 11.7 39.55 12.25 L39.55 12.6 40.0 14.3 40.7 15.45 41.35 16.15 41.65 16.4 42.0 16.6 Q42.7 17.0 43.55 17.0 L44.55 16.7 45.05 16.4 45.35 16.2 45.45 16.35 46.75 17.95 47.55 18.9 47.8 19.25 49.7 21.8 Q52.1 19.8 52.7 19.8 53.15 19.8 53.45 20.5 53.95 21.55 54.6 22.25 L52.05 24.85 M9.25 7.7 Q13.65 4.5 19.6 4.5 L21.8 4.45 22.95 4.4 23.2 4.4 23.35 4.65 23.55 4.65 25.75 4.95 25.85 5.0 27.55 5.4 27.85 5.5 Q28.7 5.7 29.55 6.05 M23.6 4.4 Q23.8 1.05 24.95 1.05 L26.8 1.4 27.3 1.65 Q27.85 1.95 27.85 2.3 L27.85 5.4 27.85 5.5 M1.7 18.25 L2.2 17.05 2.25 17.0 Q3.05 15.1 4.15 13.4 5.55 11.15 7.15 9.5 L7.9 8.85 9.25 7.7 M51.85 24.95 Q53.45 27.3 55.2 30.8 M-0.5 37.05 L-0.5 34.25 Q-0.75 29.35 -0.1 25.0 L0.5 22.1 1.7 18.25 M44.6 22.3 L44.55 21.7 44.5 21.55 44.5 21.5 Q44.35 20.4 43.5 19.0 L43.45 19.0 Q42.65 17.55 41.55 16.6 L41.55 16.55 41.2 16.3 39.0 14.65 Q38.15 14.1 37.4 13.8 36.25 13.35 35.2 13.35 34.35 13.35 33.8 13.7 L33.35 14.05 33.2 14.2 33.25 14.8 33.3 15.1 33.75 16.8 33.8 17.0 33.85 17.05 33.9 17.2 35.15 19.3 35.45 19.65 Q36.5 20.95 37.75 21.65 L38.7 22.15 Q40.15 22.75 41.85 22.75 L42.0 22.75 44.1 22.5 44.2 22.45 44.45 22.35 44.6 22.35 44.6 22.3 45.6 21.8 Q47.1 20.85 47.5 19.15 L47.55 18.9 M49.7 21.8 L50.85 23.55 51.85 24.95 M50.25 31.9 L51.3 33.3 51.55 33.65 53.5 37.15 55.2 40.8 M46.55 28.15 L46.95 28.45 46.95 28.5 47.55 29.05 48.55 30.05 48.65 30.1 48.7 30.2 49.7 31.25 48.9 29.95 48.9 29.85 48.25 28.7 47.85 28.0 47.7 27.7 Q46.1 24.95 44.4 23.1 M33.35 25.4 L35.15 25.35 40.1 25.6 43.75 26.1 43.75 26.15 Q44.3 26.35 45.0 26.85 L45.2 27.0 45.25 27.05 45.4 27.15 45.7 27.4 M45.5 27.3 L45.4 27.2 45.25 27.05 M22.7 46.5 L23.5 46.3 23.75 46.25 24.2 46.15 24.25 46.15 26.3 46.05 27.2 46.05 27.5 46.05 29.8 46.15 Q31.05 46.25 31.6 46.6 L32.4 47.35 32.55 47.65 32.65 47.75 33.6 46.65 M33.85 46.55 L35.0 46.4 36.65 46.2 37.0 46.2 39.25 46.15 39.85 46.2 39.95 46.2 44.75 46.65 45.8 48.4 45.95 48.55 Q46.3 47.95 47.0 47.45 L47.2 47.3 Q47.95 46.85 48.75 46.95 L48.8 46.95 50.0 46.85 50.05 46.85 52.4 47.0 Q53.9 47.3 54.85 47.8 L55.2 48.25 M47.1 47.1 L47.9 46.4 Q49.35 44.9 49.9 42.55 L50.0 41.85 M49.7 31.25 L49.9 31.5 50.25 31.9 M49.85 35.5 L49.95 36.0 50.15 38.15 M50.05 47.1 L49.7 47.75 49.5 48.15 49.0 49.55 48.8 51.1 Q48.65 52.1 48.35 52.1 47.85 52.1 46.9 50.75 L45.65 48.9 45.5 48.65 M34.25 10.35 L34.3 10.3 34.7 10.05 Q35.3 9.7 36.5 9.45 M23.9 6.5 L24.65 7.3 25.45 8.0 25.8 8.35 27.15 9.65 27.2 9.65 27.55 10.05 28.45 10.95 29.7 12.45 29.85 12.6 29.85 12.65 29.9 12.7 30.7 13.9 31.45 15.15 32.65 17.35 32.75 17.55 32.8 17.65 32.8 17.75 32.85 17.75 Q34.15 20.45 34.65 22.65 L34.95 24.8 M23.35 4.65 L22.95 4.4 M23.9 6.5 L22.65 5.1 M14.45 16.55 L14.4 15.7 Q14.4 14.5 15.0 13.0 L15.45 12.05 16.45 10.35 16.7 10.05 Q17.7 9.35 19.0 9.05 L21.15 8.75 22.75 8.95 23.2 9.05 24.1 9.3 24.3 9.4 24.5 9.5 25.6 10.0 26.85 10.9 27.5 11.55 27.6 11.65 27.85 11.9 28.2 12.4 28.45 12.7 28.65 13.0 28.85 13.4 Q29.85 15.15 29.85 16.9 L29.85 17.0 Q29.85 18.4 28.8 19.85 L28.55 20.2 28.55 20.25 Q27.45 21.65 26.4 22.1 24.3 23.1 22.25 23.3 L21.25 23.35 21.15 23.35 18.6 22.8 Q17.15 22.1 16.05 20.6 14.7 18.7 14.45 16.55 M22.2 22.95 Q23.9 22.45 25.15 20.8 26.5 19.1 26.5 17.15 26.5 15.35 25.75 14.0 25.15 12.9 24.05 12.0 L24.0 11.95 23.15 11.4 Q21.45 10.4 19.4 10.4 18.85 10.4 17.5 11.3 L17.15 11.45 16.05 12.35 16.0 12.4 16.0 12.45 15.95 12.5 15.15 13.8 Q14.95 14.2 14.8 16.5 M33.35 25.4 L28.25 25.5 25.05 25.8 Q24.2 26.0 23.45 26.3 L22.65 27.15 Q21.7 27.9 21.1 28.75 L20.9 29.2 M33.2 14.2 L33.2 13.85 33.25 12.75 Q33.45 11.1 34.25 10.35 M7.9 8.85 L9.4 11.2 Q10.7 13.3 11.7 15.7 13.2 19.25 14.05 23.55 L14.4 25.3 14.5 26.1 15.15 31.95 Q15.45 35.3 15.25 35.75 L16.0 37.95 Q16.4 39.45 16.4 41.25 16.4 44.85 14.95 47.1 L14.9 47.2 15.0 47.1 15.6 46.85 M14.05 23.55 L11.85 23.3 Q10.8 23.3 10.85 23.9 10.9 25.25 10.45 26.1 L12.35 26.0 14.5 26.1 M15.25 35.75 Q14.45 34.2 13.2 33.05 11.85 31.95 10.45 31.45 L8.05 31.0 Q5.1 31.0 3.55 33.7 L2.75 35.6 Q4.8 34.7 6.2 34.45 L6.4 34.4 6.9 34.4 6.7 34.65 M10.35 31.8 Q8.25 32.45 6.9 34.4 L7.75 34.4 M19.85 33.05 L19.1 37.1 19.05 37.95 19.0 40.65 19.0 41.6 19.05 48.45 Q19.05 49.65 19.2 50.65 L19.4 52.05 19.7 51.1 Q19.7 50.35 20.15 49.25 L20.2 49.05 20.6 48.35 20.7 48.1 21.65 46.9 M8.95 47.1 L8.8 47.35 8.1 47.8 Q9.25 48.55 10.75 48.55 11.95 48.55 13.15 48.0 L14.9 47.2 13.7 48.6 13.45 48.75 13.2 48.95 Q11.25 50.45 8.75 50.45 L7.7 50.25 6.7 49.65 6.45 49.45 5.95 50.2 5.65 50.7 Q5.0 51.95 4.7 53.4 L4.6 54.0 M2.0 35.9 Q1.1 36.25 0.1 36.75 L-0.1 36.85 M2.75 35.6 L2.0 35.9 M7.55 43.2 L8.75 42.75 M7.55 43.2 L7.45 43.25 5.95 44.1 M6.6 37.4 L5.35 37.7 Q4.0 38.15 2.25 39.1 L1.25 39.65 Q0.25 40.2 -0.6 40.8 L-0.65 40.85 M5.6 44.35 L3.7 45.9 3.15 46.5 2.7 47.1 1.9 48.2 Q0.65 50.1 -0.15 52.3 L-0.3 52.9 -0.35 53.1 0.5 53.15 1.6 53.4 1.85 54.0 M7.75 47.55 L8.1 47.8 7.65 48.15 6.45 49.45 M22.7 46.5 L21.75 46.65 M19.4 52.05 L19.4 52.1 20.7 52.6 21.25 52.85 22.15 53.1 Q22.4 53.1 22.45 52.0 L22.5 50.6 22.75 49.45 22.95 48.7 23.1 48.3 23.1 48.25 24.0 46.9 24.35 46.45 M37.0 46.5 Q36.0 47.25 35.7 49.25 L35.3 51.8 33.8 49.8 32.65 47.75 M29.1 54.0 L29.35 52.45 M14.1 50.2 Q14.25 51.4 13.7 54.0 M45.0 52.7 L45.7 54.0 M38.8 46.45 L38.8 50.35 M-0.35 53.1 L-0.6 54.0" fill="none" stroke="#062a04" stroke-linecap="round" stroke-linejoin="round" stroke-width="1.0"/>
      <path d="M45.7 27.4 L45.9 27.55 46.55 28.15 47.85 29.6 48.3 30.2 Q49.1 31.35 49.5 32.45 49.95 33.55 49.95 34.55 L49.85 35.5 Q49.55 36.85 48.45 37.65 L48.15 37.9 M38.9 29.25 Q39.35 28.1 40.35 27.3 41.7 26.25 43.15 26.25 L44.75 26.9 44.8 26.95 Q45.15 27.05 45.5 27.3 L45.7 27.4 M45.45 38.55 Q42.7 38.45 40.55 35.9 L40.5 35.85 Q39.55 34.75 39.05 33.6 38.55 32.45 38.55 31.3 38.55 30.15 38.9 29.25 M32.2 36.75 L31.3 37.45 Q29.2 38.8 26.9 38.95 L26.5 38.95 25.65 38.9 M20.9 29.2 Q21.65 28.2 22.9 27.4 25.5 25.95 29.1 25.95 L30.2 26.05 30.75 26.15 30.9 26.2 Q32.45 27.35 33.2 28.7 L33.6 29.6 Q34.05 30.85 34.05 32.45 L33.95 33.65 Q33.6 35.45 32.2 36.75 M20.9 29.2 Q19.85 30.6 19.85 32.5 L19.85 33.05 19.9 33.8 19.95 34.05 20.1 34.55 20.3 35.1 20.7 35.85 21.8 37.0 22.45 37.55 Q23.5 38.35 24.65 38.65" fill="none" stroke="#4a2704" stroke-linecap="round" stroke-linejoin="round" stroke-width="1.0"/>
    </g>
    <g id="shape2" transform="matrix(1.0, 0.0, 0.0, 1.0, 0.0, 0.0)">
      <path d="M50.5 0.0 Q53.95 0.0 53.95 3.3 L53.95 50.15 Q53.95 53.4 50.5 53.4 L3.3 53.4 Q0.0 53.4 0.0 50.15 L0.0 3.3 Q0.0 0.0 3.3 0.0 L50.5 0.0" fill="#000000" fill-opacity="0.003921569" fill-rule="evenodd" stroke="none"/>
    </g>
  </defs>
</svg>
