<?xml version="1.0" encoding="UTF-8" standalone="no"?>
<svg xmlns:ffdec="https://www.free-decompiler.com/flash" xmlns:xlink="http://www.w3.org/1999/xlink" ffdec:objectType="frame" height="57.25px" width="57.8px" xmlns="http://www.w3.org/2000/svg">
  <g transform="matrix(1.0, 0.0, 0.0, 1.0, 1.45, 2.3)">
    <clipPath id="clipPath0" transform="matrix(1.0, 0.0, 0.0, 1.0, 0.0, 0.0)">
      <path d="M50.5 0.0 Q53.95 0.0 53.95 3.3 L53.95 50.15 Q53.95 53.4 50.5 53.4 L3.3 53.4 Q0.0 53.4 0.0 50.15 L0.0 3.3 Q0.0 0.0 3.3 0.0 L50.5 0.0" fill="#000000" fill-rule="evenodd" stroke="none"/>
    </clipPath>
    <g clip-path="url(#clipPath0)">
      <use ffdec:characterId="2" height="57.25" transform="matrix(1.0, 0.0, 0.0, 1.0, -1.45, -2.3)" width="57.8" xlink:href="#shape1"/>
    </g>
    <use ffdec:characterId="3" height="53.4" transform="matrix(1.0, 0.0, 0.0, 1.0, 0.0, 0.0)" width="53.95" xlink:href="#shape2"/>
  </g>
  <defs>
    <g id="shape1" transform="matrix(1.0, 0.0, 0.0, 1.0, 1.45, 2.3)">
      <path d="M50.6 33.25 L52.2 31.45 53.35 23.15 53.6 23.75 53.6 34.85 52.15 36.45 50.6 33.25 M53.95 46.9 L54.2 46.95 Q53.2 47.45 51.35 47.75 L47.3 48.15 45.3 48.0 43.9 47.85 43.85 45.4 45.75 45.9 49.75 46.45 53.95 46.9 M44.15 50.9 L43.55 50.8 42.75 50.6 42.85 51.15 42.85 51.4 43.05 53.4 40.65 53.1 40.0 52.45 39.3 51.8 40.35 50.8 36.95 47.7 37.1 47.15 38.65 47.6 41.5 48.15 43.8 50.55 44.15 50.9 M18.15 51.2 L18.1 51.2 18.15 51.2 M10.0 51.95 L7.65 52.25 7.85 50.2 7.85 50.0 7.9 49.45 7.1 49.65 6.55 49.75 6.9 49.4 9.2 46.95 9.9 46.85 10.35 46.85 12.65 46.8 13.8 46.75 14.3 48.15 12.2 49.9 10.65 51.25 10.0 51.95 M-0.95 46.55 L-0.95 45.1 -0.35 44.9 0.5 44.6 0.6 46.1 1.15 46.25 5.4 46.75 5.95 46.8 5.35 46.85 3.4 47.0 -0.7 46.6 -0.95 46.55 M-0.95 35.8 L-0.95 30.95 1.0 33.0 0.95 33.15 0.55 37.0 -0.95 35.8" fill="#fbd29e" fill-rule="evenodd" stroke="none"/>
      <path d="M53.6 23.75 L55.65 29.05 55.85 29.6 55.85 38.8 54.9 39.6 53.65 40.65 53.45 40.05 52.6 37.55 52.15 36.45 53.6 34.85 53.6 23.75 M54.2 46.95 L54.7 47.1 51.65 48.95 Q47.75 51.25 46.15 51.4 L45.95 51.35 44.15 50.9 43.8 50.55 41.5 48.15 43.9 48.3 43.9 47.85 45.3 48.0 47.3 48.15 51.35 47.75 Q53.2 47.45 54.2 46.95 M40.65 53.1 L39.95 52.9 38.6 52.55 38.4 52.5 38.3 52.5 39.3 51.8 40.0 52.45 40.65 53.1 M13.95 50.8 L12.3 51.35 12.05 51.4 10.75 51.75 10.0 51.95 10.65 51.25 12.2 49.9 14.3 48.15 14.45 48.6 14.6 48.5 13.05 50.4 13.75 50.7 13.95 50.8 M6.55 49.75 L4.75 50.2 4.5 50.2 Q2.9 50.05 -0.95 47.8 L-0.95 46.55 -0.7 46.6 3.4 47.0 5.35 46.85 5.95 46.8 6.8 46.8 6.75 47.1 9.2 46.95 6.9 49.4 6.55 49.75 M0.35 41.7 L-0.95 40.9 -0.95 35.8 0.55 37.0 0.5 37.9 Q0.35 39.6 0.35 41.7" fill="#e7b374" fill-rule="evenodd" stroke="none"/>
      <path d="M36.0 46.7 L36.3 45.35 37.35 45.4 40.15 45.2 41.7 44.9 41.85 44.9 41.9 44.85 41.95 44.85 43.85 45.4 43.9 47.85 43.9 48.3 41.5 48.15 38.65 47.6 37.1 47.15 36.95 47.7 36.0 46.85 36.0 46.7 M6.8 46.8 L9.9 46.85 9.2 46.95 6.75 47.1 6.8 46.8 M13.8 46.75 L14.9 46.65 15.15 46.6 15.45 46.6 16.25 46.5 14.6 48.5 14.45 48.6 14.3 48.15 13.8 46.75 M16.6 45.3 L16.7 45.2 17.65 44.7 17.05 45.45 16.65 46.0 16.6 45.35 16.6 45.3" fill="#e5a964" fill-rule="evenodd" stroke="none"/>
      <path d="M38.5 43.7 L38.3 43.9 40.5 44.5 40.6 44.45 41.95 44.85 41.9 44.85 41.85 44.9 41.7 44.9 40.15 45.2 37.35 45.4 36.3 45.35 36.0 46.7 35.9 46.3 35.55 44.8 34.85 44.75 34.0 44.8 33.5 44.25 32.95 43.25 37.75 44.0 38.5 43.45 38.35 43.65 38.5 43.7 M16.6 45.3 L16.35 42.0 16.55 41.75 18.3 39.8 19.55 41.5 19.85 41.9 17.65 44.7 16.7 45.2 16.6 45.3" fill="#f9e5aa" fill-rule="evenodd" stroke="none"/>
      <path d="M6.55 19.35 L6.35 15.25 6.7 11.25 10.05 4.25 10.65 3.1 11.45 1.65 12.4 -0.1 12.75 0.35 12.65 1.0 12.55 2.45 12.4 7.8 12.4 8.8 12.55 13.6 12.6 14.05 12.9 20.2 14.4 21.3 16.65 22.65 Q19.95 19.85 25.2 16.3 L26.65 15.25 Q33.55 10.6 39.0 7.85 L42.3 10.95 42.3 10.85 41.9 7.85 41.85 7.2 37.1 6.55 35.5 6.45 31.85 6.7 33.25 5.85 34.05 5.35 35.45 4.55 39.85 4.2 41.7 5.9 42.05 6.3 45.1 10.6 45.85 12.0 Q48.35 16.9 49.4 22.45 L48.05 20.75 47.85 20.45 Q43.05 14.45 38.7 10.2 L38.6 10.25 38.2 10.5 32.55 14.4 21.85 22.5 Q18.55 25.25 13.65 30.2 L13.6 30.25 13.05 30.8 12.25 31.6 11.65 32.25 10.75 31.45 10.25 30.95 8.35 29.0 8.05 28.6 7.75 27.45 8.05 26.45 8.1 26.4 Q7.4 25.05 7.25 24.05 L7.15 23.5 7.1 23.15 7.0 23.3 6.55 19.55 6.55 19.35 M50.75 32.0 L50.8 32.15 50.7 32.3 50.75 32.0 M38.3 52.5 L37.7 52.85 39.2 54.45 36.6 54.45 35.6 53.7 34.85 54.45 24.3 54.45 Q21.35 53.3 20.25 52.3 L19.55 54.45 16.75 54.45 18.35 51.15 18.15 51.2 18.1 51.2 17.35 51.2 13.95 50.8 13.75 50.7 13.05 50.4 14.6 48.5 16.25 46.5 16.65 46.45 16.65 46.35 16.65 46.0 17.05 45.45 17.65 44.7 19.85 41.9 21.6 39.6 21.1 42.7 21.6 39.6 21.6 39.45 22.85 39.95 23.05 40.05 22.85 39.95 21.6 39.45 19.55 38.5 20.1 37.9 23.7 34.55 24.65 35.35 Q25.85 36.1 27.2 36.3 L28.25 36.4 Q30.95 36.4 32.85 34.45 34.8 32.55 34.8 29.85 L34.8 29.45 34.8 29.25 Q34.6 27.5 33.65 26.15 L41.1 20.7 41.5 20.4 43.25 24.6 45.5 30.4 45.45 30.45 43.0 35.65 42.2 37.25 Q41.1 37.0 40.2 36.45 38.35 35.3 37.8 33.15 L37.55 31.6 37.55 31.25 37.7 29.95 37.95 28.5 38.05 28.15 Q38.35 27.25 38.8 26.65 L38.4 25.6 Q37.5 26.05 36.0 27.05 L35.35 27.5 35.65 29.05 35.75 29.55 35.75 30.35 35.55 32.2 35.55 32.3 Q35.15 34.05 34.0 35.7 L32.2 37.45 31.95 37.5 Q29.95 38.25 27.35 38.25 L24.2 37.8 23.5 38.9 23.4 39.0 Q23.15 39.45 23.05 40.05 L24.9 40.75 25.65 41.05 28.3 41.95 26.45 43.1 24.45 44.45 Q22.0 44.2 21.3 42.6 L21.1 42.7 Q20.45 42.9 19.55 43.4 L19.55 43.45 19.55 44.1 19.7 47.6 19.9 50.1 Q22.25 51.6 26.05 52.8 L32.05 54.3 32.55 54.35 32.6 54.3 Q34.1 52.95 35.4 51.1 L35.9 50.4 36.35 49.65 36.0 47.05 36.0 46.85 36.95 47.7 40.35 50.8 39.3 51.8 38.3 52.5 M43.9 30.9 Q43.9 29.55 43.35 28.65 42.8 27.75 42.0 27.75 41.25 27.75 40.7 28.65 40.15 29.55 40.15 30.9 40.15 32.2 40.7 33.1 41.25 34.05 42.0 34.05 42.8 34.05 43.35 33.1 43.9 32.2 43.9 30.9 M33.5 44.25 L34.0 44.8 33.8 44.8 33.5 44.25 M37.55 41.25 L37.2 41.0 36.75 40.75 34.6 40.55 34.1 40.55 Q35.2 39.95 36.5 39.95 L37.0 40.0 37.4 40.8 37.55 41.25 M37.7 52.85 L35.9 50.4 37.7 52.85 M18.35 51.15 L19.7 47.6 18.35 51.15" fill="#63c8f5" fill-rule="evenodd" stroke="none"/>
      <path d="M53.65 40.65 L54.55 44.4 54.95 46.45 51.0 42.45 50.7 42.1 48.4 39.4 47.7 38.55 48.4 38.0 49.1 38.9 Q50.55 40.75 51.75 42.0 L53.1 43.35 52.95 41.15 52.7 38.55 52.6 37.55 53.45 40.05 53.65 40.65 M38.2 10.5 L38.8 12.85 39.0 13.8 39.35 16.25 Q37.9 18.0 32.8 22.0 L30.65 23.75 21.75 30.45 17.6 33.5 17.3 32.35 16.7 30.0 14.5 30.35 13.65 30.2 Q18.55 25.25 21.85 22.5 L32.55 14.4 38.2 10.5" fill="#fcb325" fill-rule="evenodd" stroke="none"/>
      <path d="M54.95 46.45 L55.05 46.95 53.95 46.9 49.75 46.45 45.75 45.9 43.85 45.4 41.95 44.85 40.6 44.45 43.55 41.95 47.4 38.8 47.7 38.55 48.4 39.4 50.7 42.1 51.0 42.45 54.95 46.45 M38.5 43.7 L38.35 43.65 38.5 43.45 38.9 43.1 38.95 43.1 38.5 43.7 M16.1 38.85 L16.1 38.9 16.35 41.65 16.35 42.0 16.6 45.3 16.6 45.35 16.65 46.0 16.65 46.35 16.65 46.45 16.25 46.5 15.45 46.6 15.15 46.6 14.9 46.65 14.85 46.1 14.85 46.0 14.45 40.4 14.45 40.25 14.55 38.9 16.1 38.85" fill="#d9390d" fill-rule="evenodd" stroke="none"/>
      <path d="M50.5 33.15 L50.6 33.25 52.15 36.45 52.6 37.55 52.7 38.55 52.95 41.15 53.1 43.35 51.75 42.0 Q50.55 40.75 49.1 38.9 L48.4 38.0 49.75 36.85 50.4 33.7 50.5 33.15 M10.25 30.95 L10.75 31.45 11.65 32.25 14.6 34.35 14.9 34.5 14.7 36.8 14.65 37.45 12.0 37.65 10.85 37.65 7.65 37.45 8.0 36.4 8.95 33.7 10.15 31.2 10.25 30.95" fill="#eb7022" fill-rule="evenodd" stroke="none"/>
      <path d="M14.05 1.85 L15.5 3.15 16.85 4.2 18.65 5.3 21.35 5.35 26.5 5.15 35.45 4.55 34.05 5.35 33.25 5.85 31.85 6.7 35.5 6.45 37.1 6.55 41.85 7.2 41.9 7.85 42.3 10.85 42.3 10.95 39.0 7.85 Q33.55 10.6 26.65 15.25 L25.2 16.3 24.3 16.7 Q18.25 19.6 15.7 20.25 L13.25 14.95 13.25 14.0 13.45 8.7 13.8 3.9 13.95 2.8 14.05 1.85 M36.6 54.45 L34.85 54.45 35.6 53.7 36.6 54.45 M24.3 54.45 L19.55 54.45 20.25 52.3 Q21.35 53.3 24.3 54.45 M38.5 43.45 L37.75 44.0 32.95 43.25 32.55 42.6 31.1 40.3 30.95 40.4 28.3 41.95 25.65 41.05 24.9 40.75 23.05 40.05 Q23.15 39.45 23.4 39.0 L23.5 38.9 24.2 37.8 27.35 38.25 Q29.95 38.25 31.95 37.5 L32.2 37.45 34.0 35.7 Q35.15 34.05 35.55 32.3 L35.55 32.2 35.75 30.35 35.75 29.55 35.65 29.05 35.35 27.5 36.0 27.05 Q37.5 26.05 38.4 25.6 L38.8 26.65 Q38.35 27.25 38.05 28.15 L37.95 28.5 37.7 29.95 37.55 31.25 37.55 31.6 37.8 33.15 Q38.35 35.3 40.2 36.45 41.1 37.0 42.2 37.25 L38.95 43.1 38.9 43.1 38.5 43.45 M37.55 41.25 L37.4 40.8 37.0 40.0 36.5 39.95 Q35.2 39.95 34.1 40.55 L34.6 40.55 36.75 40.75 37.2 41.0 37.55 41.25" fill="#b4f0ff" fill-rule="evenodd" stroke="none"/>
      <path d="M-0.95 10.55 L0.15 9.95 -0.35 4.75 -0.6 2.4 -0.9 -1.3 7.4 -1.8 10.85 -1.55 10.65 3.1 10.05 4.25 6.7 11.25 6.35 15.25 6.55 19.35 6.4 19.35 6.2 19.35 2.7 19.55 1.9 16.4 -0.95 17.45 -0.95 10.55" fill="#fff46d" fill-rule="evenodd" stroke="none"/>
      <path d="M42.6 29.4 L42.7 29.35 42.8 29.35 43.05 29.55 43.25 30.3 43.1 30.65 42.9 30.85 42.85 30.85 42.55 30.65 42.35 29.95 42.4 29.65 42.5 29.55 42.6 29.4 M32.3 30.7 Q31.5 30.6 31.5 29.55 L31.5 29.35 Q31.55 28.7 31.9 28.3 L31.95 28.25 32.3 28.2 Q32.8 28.2 33.25 28.65 L33.6 29.1 33.65 29.65 33.6 30.0 33.4 30.25 Q33.05 30.7 32.45 30.7 L32.3 30.7" fill="#f1ffbd" fill-rule="evenodd" stroke="none"/>
      <path d="M42.6 29.4 L42.5 29.55 42.4 29.65 42.35 29.95 42.55 30.65 42.85 30.85 42.9 30.85 43.1 30.65 43.25 30.3 43.05 29.55 42.8 29.35 42.7 29.35 42.6 29.4 M43.9 30.9 Q43.9 32.2 43.35 33.1 42.8 34.05 42.0 34.05 41.25 34.05 40.7 33.1 40.15 32.2 40.15 30.9 40.15 29.55 40.7 28.65 41.25 27.75 42.0 27.75 42.8 27.75 43.35 28.65 43.9 29.55 43.9 30.9 M32.3 30.7 L32.45 30.7 Q33.05 30.7 33.4 30.25 L33.6 30.0 34.8 29.45 34.8 29.85 Q34.8 32.55 32.85 34.45 30.95 36.4 28.25 36.4 L27.2 36.3 Q28.7 32.85 32.3 30.7" fill="#c4f316" fill-rule="evenodd" stroke="none"/>
      <path d="M25.2 33.15 L29.85 29.15 33.65 26.15 Q34.6 27.5 34.8 29.25 L34.8 29.45 33.6 30.0 33.65 29.65 33.6 29.1 33.25 28.65 Q32.8 28.2 32.3 28.2 L31.95 28.25 31.9 28.3 Q31.55 28.7 31.5 29.35 L31.5 29.55 Q31.5 30.6 32.3 30.7 28.7 32.85 27.2 36.3 25.85 36.1 24.65 35.35 L23.7 34.55 25.2 33.15" fill="#8dcb0d" fill-rule="evenodd" stroke="none"/>
      <path d="M41.7 17.15 L41.6 17.65 41.1 20.7 33.65 26.15 29.85 29.15 25.2 33.15 24.15 32.3 22.35 30.6 Q26.05 27.85 31.45 24.15 L41.7 17.15 M13.05 30.8 L14.4 31.15 16.4 31.6 16.8 32.95 17.05 33.9 17.25 34.55 17.45 34.35 17.4 34.9 17.1 37.25 16.95 38.2 16.8 39.0 16.35 41.65 16.1 38.9 16.1 38.85 15.95 37.25 15.9 37.0 15.7 34.9 14.9 34.5 14.6 34.35 11.65 32.25 12.25 31.6 13.05 30.8" fill="#d76017" fill-rule="evenodd" stroke="none"/>
      <path d="M41.1 20.7 L41.6 17.65 41.7 17.15 41.7 17.1 41.9 17.0 47.95 27.4 49.3 29.7 48.7 33.0 48.4 34.65 47.8 37.2 47.55 38.35 47.4 38.8 43.55 41.95 45.35 37.6 45.45 37.35 45.5 37.1 47.0 32.65 47.35 31.45 46.35 31.0 45.45 30.45 45.5 30.4 43.25 24.6 41.5 20.4 41.1 20.7 M35.9 46.3 L36.0 46.7 36.0 46.85 36.0 47.05 34.75 48.55 34.55 48.75 32.3 51.25 32.25 51.25 Q32.0 48.6 32.0 45.8 L32.05 45.05 33.0 45.5 34.7 46.05 35.4 46.25 35.9 46.3" fill="#cb3c07" fill-rule="evenodd" stroke="none"/>
      <path d="M49.4 22.45 L52.05 25.95 52.0 26.15 49.3 29.7 47.95 27.4 41.9 17.0 41.7 17.1 41.7 17.15 40.9 15.35 39.95 13.15 38.6 10.25 38.7 10.2 Q43.05 14.45 47.85 20.45 L48.05 20.75 49.4 22.45" fill="#e78628" fill-rule="evenodd" stroke="none"/>
      <path d="M41.7 17.15 L31.45 24.15 Q26.05 27.85 22.35 30.6 L21.8 31.0 17.45 34.35 17.25 34.55 17.05 33.9 16.8 32.95 16.4 31.6 14.4 31.15 13.05 30.8 13.6 30.25 13.65 30.2 14.5 30.35 16.7 30.0 17.3 32.35 17.6 33.5 21.75 30.45 30.65 23.75 32.8 22.0 Q37.9 18.0 39.35 16.25 L39.0 13.8 38.8 12.85 38.2 10.5 38.6 10.25 39.95 13.15 40.9 15.35 41.7 17.15" fill="#ffe62e" fill-rule="evenodd" stroke="none"/>
      <path d="M52.0 26.15 L51.15 30.05 51.1 30.45 50.85 31.45 50.8 31.65 50.75 32.0 50.7 32.3 50.5 33.15 50.4 33.7 49.75 36.85 48.4 38.0 47.7 38.55 47.4 38.8 47.55 38.35 47.8 37.2 48.4 34.65 48.7 33.0 49.3 29.7 52.0 26.15" fill="#db5716" fill-rule="evenodd" stroke="none"/>
      <path d="M45.45 30.45 L46.35 31.0 47.35 31.45 47.0 32.65 45.5 37.1 45.45 37.35 45.35 37.6 43.55 41.95 40.6 44.45 40.5 44.5 38.3 43.9 38.5 43.7 38.95 43.1 42.2 37.25 43.0 35.65 45.45 30.45" fill="#9c1900" fill-rule="evenodd" stroke="none"/>
      <path d="M12.75 0.35 L14.05 1.85 13.95 2.8 13.8 3.9 13.45 8.7 13.25 14.0 13.25 14.95 15.7 20.25 Q18.25 19.6 24.3 16.7 L25.2 16.3 Q19.95 19.85 16.65 22.65 L14.4 21.3 12.9 20.2 12.6 14.05 12.55 13.6 12.4 8.8 12.4 7.8 12.55 2.45 12.65 1.0 12.75 0.35" fill="#d0f5ff" fill-rule="evenodd" stroke="none"/>
      <path d="M22.35 30.6 L24.15 32.3 25.2 33.15 23.7 34.55 20.1 37.9 19.55 38.5 18.3 39.8 16.55 41.75 16.35 42.0 16.35 41.65 16.8 39.0 16.95 38.2 17.1 37.25 17.4 34.9 17.45 34.35 21.8 31.0 22.35 30.6" fill="#bf3d0c" fill-rule="evenodd" stroke="none"/>
      <path d="M2.75 27.6 L4.6 25.65 7.0 23.3 7.1 23.15 7.15 23.5 7.25 24.05 Q7.4 25.05 8.1 26.4 L8.05 26.45 7.75 27.45 7.7 27.55 6.15 28.35 5.9 28.5 5.15 28.9 3.35 30.0 2.75 27.6" fill="#f3be3a" fill-rule="evenodd" stroke="none"/>
      <path d="M14.65 37.45 L14.7 36.8 14.9 34.5 15.7 34.9 15.9 37.0 15.95 37.25 14.65 37.45" fill="#e55e1a" fill-rule="evenodd" stroke="none"/>
      <path d="M1.25 31.35 L1.65 28.85 1.9 28.5 2.55 30.5 1.25 31.35 M8.05 28.6 L8.35 29.0 10.25 30.95 10.15 31.2 8.95 33.7 8.0 36.4 7.65 37.45 6.35 37.15 5.75 35.95 4.8 34.05 4.15 32.5 3.35 30.0 5.15 28.9 5.9 28.5 6.15 28.35 7.7 27.55 7.55 28.0 8.05 28.6" fill="#ef8d1e" fill-rule="evenodd" stroke="none"/>
      <path d="M1.9 28.5 L2.75 27.6 3.35 30.0 2.55 30.5 1.9 28.5" fill="#ffdc38" fill-rule="evenodd" stroke="none"/>
      <path d="M2.55 30.5 L3.35 30.0 4.15 32.5 4.8 34.05 5.75 35.95 6.35 37.15 7.65 37.45 7.25 38.7 7.15 38.7 6.35 38.45 5.7 38.25 4.5 35.65 4.3 35.25 3.25 32.55 2.55 30.5 M6.75 37.75 Q6.75 37.25 6.15 37.25 L5.9 37.3 5.75 37.4 5.95 37.8 6.2 38.05 6.4 38.15 6.65 38.0 6.75 37.75" fill="#ffb62a" fill-rule="evenodd" stroke="none"/>
      <path d="M0.5 44.6 L0.35 42.35 0.35 41.7 Q0.35 39.6 0.5 37.9 L0.55 37.0 0.95 33.15 1.0 33.0 1.25 31.35 2.55 30.5 3.25 32.55 4.3 35.25 4.5 35.65 5.7 38.25 6.35 38.45 7.15 38.7 7.25 38.7 6.95 39.95 6.9 40.05 6.45 42.15 6.45 42.3 5.4 46.75 1.15 46.25 0.6 46.1 0.5 44.6" fill="#e06c12" fill-rule="evenodd" stroke="none"/>
      <path d="M6.75 37.75 L6.65 38.0 6.4 38.15 6.2 38.05 5.95 37.8 5.75 37.4 5.9 37.3 6.15 37.25 Q6.75 37.25 6.75 37.75" fill="#ffe633" fill-rule="evenodd" stroke="none"/>
      <path d="M5.4 46.75 L6.45 42.3 6.45 42.15 6.9 40.05 6.95 39.95 7.25 38.7 12.2 38.95 13.25 38.95 14.55 38.9 14.45 40.25 14.45 40.4 14.85 46.0 14.85 46.1 14.9 46.65 13.8 46.75 12.65 46.8 10.35 46.85 9.9 46.85 6.8 46.8 5.95 46.8 5.4 46.75" fill="#e25a18" fill-rule="evenodd" stroke="none"/>
      <path d="M7.65 37.45 L10.85 37.65 12.0 37.65 14.65 37.45 14.55 38.9 13.25 38.95 12.2 38.95 7.25 38.7 7.65 37.45" fill="#ffa333" fill-rule="evenodd" stroke="none"/>
      <path d="M15.95 37.25 L16.1 38.85 14.55 38.9 14.65 37.45 15.95 37.25" fill="#ffa231" fill-rule="evenodd" stroke="none"/>
      <path d="M19.55 43.45 L19.55 43.4 Q20.45 42.9 21.1 42.7 L21.3 42.6 Q22.0 44.2 24.45 44.45 L26.45 43.1 28.3 41.95 30.95 40.4 31.0 42.55 30.45 42.3 29.95 42.3 29.85 42.4 29.8 42.45 Q29.65 42.65 29.65 43.15 29.65 43.65 30.05 44.0 30.35 44.25 30.75 44.25 L31.1 44.2 31.85 50.55 32.05 51.25 31.6 51.3 30.85 48.35 29.7 44.55 27.5 45.75 Q25.15 47.0 23.95 47.0 L23.8 46.95 22.3 46.05 20.55 44.85 20.15 44.55 19.55 43.45" fill="#ff991e" fill-rule="evenodd" stroke="none"/>
      <path d="M19.7 47.6 L19.55 44.1 19.55 43.45 20.15 44.55 20.45 45.1 20.95 45.9 23.45 49.8 25.2 50.3 28.5 51.2 30.85 51.35 31.6 51.3 32.05 51.25 32.05 51.45 32.55 53.85 32.6 54.3 32.55 54.35 32.05 54.3 26.05 52.8 Q22.25 51.6 19.9 50.1 L19.7 47.6" fill="#e53d0e" fill-rule="evenodd" stroke="none"/>
      <path d="M31.1 44.2 L30.75 44.25 Q30.35 44.25 30.05 44.0 29.65 43.65 29.65 43.15 29.65 42.65 29.8 42.45 L29.85 42.4 29.95 42.3 30.45 42.3 31.0 42.55 31.15 42.65 31.3 42.8 31.5 43.35 Q31.5 44.0 31.1 44.2" fill="#ffd71c" fill-rule="evenodd" stroke="none"/>
      <path d="M20.15 44.55 L20.55 44.85 22.3 46.05 23.8 46.95 23.95 47.0 Q25.15 47.0 27.5 45.75 L29.7 44.55 30.85 48.35 31.6 51.3 30.85 51.35 28.5 51.2 25.2 50.3 23.45 49.8 20.95 45.9 20.45 45.1 20.15 44.55" fill="#f56d18" fill-rule="evenodd" stroke="none"/>
      <path d="M32.95 43.25 L33.5 44.25 33.8 44.8 34.0 44.8 34.85 44.75 35.55 44.8 35.9 46.3 35.4 46.25 34.7 46.05 33.0 45.5 32.05 45.05 32.0 45.8 Q32.0 48.6 32.25 51.25 L32.05 51.45 32.05 51.25 31.85 50.55 31.1 44.2 Q31.5 44.0 31.5 43.35 L31.3 42.8 31.15 42.65 31.0 42.55 30.95 40.4 31.1 40.3 32.55 42.6 32.95 43.25" fill="#e96f0f" fill-rule="evenodd" stroke="none"/>
      <path d="M32.25 51.25 L32.3 51.25 34.55 48.75 34.75 48.55 36.0 47.05 36.35 49.65 35.9 50.4 35.4 51.1 Q34.1 52.95 32.6 54.3 L32.55 53.85 32.05 51.45 32.25 51.25" fill="#bd2b03" fill-rule="evenodd" stroke="none"/>
      <path d="M49.4 22.45 L52.05 25.95 52.0 26.15 51.15 30.05 51.1 30.45 50.85 31.45 50.8 31.65 50.75 32.0 50.7 32.3 50.5 33.15 50.6 33.25 52.15 36.45 52.6 37.55 53.45 40.05 53.65 40.65 54.55 44.4 54.95 46.45 55.05 46.95 53.95 46.9 49.75 46.45 45.75 45.9 43.85 45.4 41.95 44.85 40.6 44.45 43.55 41.95 47.4 38.8 47.7 38.55 48.4 38.0 49.75 36.85 50.4 33.7 50.5 33.15 M0.5 44.6 L0.35 42.35 0.35 41.7 Q0.35 39.6 0.5 37.9 L0.55 37.0 0.95 33.15 1.0 33.0 1.25 31.35 1.65 28.85 1.9 28.5 2.75 27.6 4.6 25.65 7.0 23.3 7.1 23.15 7.15 23.5 7.25 24.05 Q7.4 25.05 8.1 26.4 L8.05 26.45 7.75 27.45 7.7 27.55 7.55 28.0 8.05 28.6 8.35 29.0 10.25 30.95 10.75 31.45 11.65 32.25 12.25 31.6 13.05 30.8 13.6 30.25 13.65 30.2 Q18.55 25.25 21.85 22.5 L32.55 14.4 38.2 10.5 38.6 10.25 38.7 10.2 Q43.05 14.45 47.85 20.45 L48.05 20.75 49.4 22.45 M25.2 33.15 L29.85 29.15 33.65 26.15 41.1 20.7 41.5 20.4 43.25 24.6 45.5 30.4 45.45 30.45 43.0 35.65 42.2 37.25 38.95 43.1 38.5 43.7 38.35 43.65 38.5 43.45 M40.6 44.45 L40.5 44.5 38.3 43.9 38.5 43.7 M32.95 43.25 L33.5 44.25 33.8 44.8 34.0 44.8 34.85 44.75 35.55 44.8 35.9 46.3 36.0 46.7 36.0 46.85 36.0 47.05 36.35 49.65 35.9 50.4 35.4 51.1 Q34.1 52.95 32.6 54.3 L32.55 54.35 32.05 54.3 26.05 52.8 Q22.25 51.6 19.9 50.1 L19.7 47.6 19.55 44.1 19.55 43.45 19.55 43.4 Q20.45 42.9 21.1 42.7 L21.3 42.6 Q22.0 44.2 24.45 44.45 L26.45 43.1 28.3 41.95 30.95 40.4 31.1 40.3 32.55 42.6 32.95 43.25 M14.9 34.5 L14.6 34.35 11.65 32.25 M14.9 34.5 L15.7 34.9 15.9 37.0 15.95 37.25 16.1 38.85 16.1 38.9 16.35 41.65 16.35 42.0 16.6 45.3 16.6 45.35 16.65 46.0 16.65 46.35 16.65 46.45 16.25 46.5 15.45 46.6 15.15 46.6 14.9 46.65 13.8 46.75 12.65 46.8 10.35 46.85 9.9 46.85 6.8 46.8 5.95 46.8 5.4 46.75 1.15 46.25 0.6 46.1 0.5 44.6 M18.3 39.8 L19.55 38.5 20.1 37.9 23.7 34.55 25.2 33.15 M18.3 39.8 L16.55 41.75 16.35 42.0" fill="none" stroke="#8a1507" stroke-linecap="round" stroke-linejoin="round" stroke-width="1.0"/>
      <path d="M43.9 30.9 Q43.9 32.2 43.35 33.1 42.8 34.05 42.0 34.05 41.25 34.05 40.7 33.1 40.15 32.2 40.15 30.9 40.15 29.55 40.7 28.65 41.25 27.75 42.0 27.75 42.8 27.75 43.35 28.65 43.9 29.55 43.9 30.9 M34.8 29.45 L34.8 29.25 Q34.6 27.5 33.65 26.15 M34.8 29.45 L34.8 29.85 Q34.8 32.55 32.85 34.45 30.95 36.4 28.25 36.4 L27.2 36.3 Q25.85 36.1 24.65 35.35 L23.7 34.55" fill="none" stroke="#31ace2" stroke-linecap="round" stroke-linejoin="round" stroke-width="1.0"/>
      <path d="M6.55 19.35 L6.35 15.25 6.7 11.25 10.05 4.25 10.65 3.1 11.45 1.65 12.4 -0.1 12.75 0.35 14.05 1.85 15.5 3.15 16.85 4.2 18.65 5.3 21.35 5.35 26.5 5.15 35.45 4.55 39.85 4.2 41.7 5.9 42.05 6.3 45.1 10.6 45.85 12.0 Q48.35 16.9 49.4 22.45 M50.75 32.0 L50.8 32.15 50.7 32.3 M38.3 52.5 L37.7 52.85 39.2 54.45 M16.75 54.45 L18.35 51.15 18.15 51.2 18.1 51.2 17.35 51.2 13.95 50.8 13.75 50.7 13.05 50.4 14.6 48.5 16.25 46.5 M7.0 23.3 L6.55 19.55 6.55 19.35 M38.5 43.45 L37.75 44.0 32.95 43.25 M33.5 44.25 L34.0 44.8 M7.75 27.45 L8.05 28.6 M17.65 44.7 L19.85 41.9 21.6 39.6 21.1 42.7 M16.65 46.0 L17.05 45.45 17.65 44.7 M28.3 41.95 L25.65 41.05 24.9 40.75 23.05 40.05 22.85 39.95 21.6 39.45 21.6 39.6 M38.95 43.1 L38.9 43.1 38.5 43.45 M36.95 47.7 L36.0 46.85 M21.6 39.45 L19.55 38.5 M39.3 51.8 L38.3 52.5 M39.3 51.8 L40.35 50.8 36.95 47.7 M35.9 50.4 L37.7 52.85 M19.7 47.6 L18.35 51.15" fill="none" stroke="#168bf3" stroke-linecap="round" stroke-linejoin="round" stroke-width="1.0"/>
      <path d="M10.65 3.1 L10.85 -1.55 7.4 -1.8 -0.9 -1.3 -0.6 2.4 -0.35 4.75 0.15 9.95 -0.95 10.55 M-0.95 17.45 L1.9 16.4 2.7 19.55 6.2 19.35 6.4 19.35 6.55 19.35" fill="none" stroke="#fff89f" stroke-linecap="round" stroke-linejoin="round" stroke-width="1.0"/>
      <path d="M50.6 33.25 L52.2 31.45 53.35 23.15 53.6 23.75 55.65 29.05 55.85 29.6 M55.85 38.8 L54.9 39.6 53.65 40.65 M53.95 46.9 L54.2 46.95 54.7 47.1 51.65 48.95 Q47.75 51.25 46.15 51.4 L45.95 51.35 44.15 50.9 43.55 50.8 42.75 50.6 42.85 51.15 42.85 51.4 43.05 53.4 40.65 53.1 39.95 52.9 38.6 52.55 38.4 52.5 38.3 52.5 M18.15 51.2 L18.1 51.2 M13.95 50.8 L12.3 51.35 12.05 51.4 10.75 51.75 10.0 51.95 7.65 52.25 7.85 50.2 7.85 50.0 7.9 49.45 7.1 49.65 6.55 49.75 4.75 50.2 4.5 50.2 Q2.9 50.05 -0.95 47.8 M-0.95 45.1 L-0.35 44.9 0.5 44.6 M0.35 41.7 L-0.95 40.9 M-0.95 30.95 L1.0 33.0 M19.85 41.9 L19.55 41.5 18.3 39.8" fill="none" stroke="#f0955c" stroke-linecap="round" stroke-linejoin="round" stroke-width="1.0"/>
    </g>
    <g id="shape2" transform="matrix(1.0, 0.0, 0.0, 1.0, 0.0, 0.0)">
      <path d="M50.5 0.0 Q53.95 0.0 53.95 3.3 L53.95 50.15 Q53.95 53.4 50.5 53.4 L3.3 53.4 Q0.0 53.4 0.0 50.15 L0.0 3.3 Q0.0 0.0 3.3 0.0 L50.5 0.0" fill="#000000" fill-opacity="0.003921569" fill-rule="evenodd" stroke="none"/>
    </g>
  </defs>
</svg>
