<?xml version="1.0" encoding="UTF-8" standalone="no"?>
<svg xmlns:ffdec="https://www.free-decompiler.com/flash" xmlns:xlink="http://www.w3.org/1999/xlink" ffdec:objectType="frame" height="54.5px" width="55.85px" xmlns="http://www.w3.org/2000/svg">
  <g transform="matrix(1.0, 0.0, 0.0, 1.0, 0.95, 0.5)">
    <clipPath id="clipPath0" transform="matrix(1.0, 0.0, 0.0, 1.0, 0.0, 0.0)">
      <path d="M50.5 0.0 Q53.95 0.0 53.95 3.3 L53.95 50.15 Q53.95 53.4 50.5 53.4 L3.3 53.4 Q0.0 53.4 0.0 50.15 L0.0 3.3 Q0.0 0.0 3.3 0.0 L50.5 0.0" fill="#000000" fill-rule="evenodd" stroke="none"/>
    </clipPath>
    <g clip-path="url(#clipPath0)">
      <use ffdec:characterId="2" height="54.5" transform="matrix(1.0, 0.0, 0.0, 1.0, -0.95, -0.5)" width="55.85" xlink:href="#shape1"/>
    </g>
    <use ffdec:characterId="3" height="53.4" transform="matrix(1.0, 0.0, 0.0, 1.0, 0.0, 0.0)" width="53.95" xlink:href="#shape2"/>
  </g>
  <defs>
    <g id="shape1" transform="matrix(1.0, 0.0, 0.0, 1.0, 0.95, 0.5)">
      <path d="M17.2 29.05 Q14.15 26.3 12.9 23.75 16.65 27.5 19.05 28.75 21.45 30.0 22.15 29.95 L23.1 29.75 23.7 28.85 Q24.1 28.1 24.05 26.5 L23.7 23.7 Q24.65 25.15 24.9 26.45 25.25 28.1 24.45 29.65 L23.9 30.6 Q22.9 32.0 21.6 31.95 L20.95 31.85 19.35 30.85 17.2 29.05 M39.95 28.7 L40.35 29.1 Q40.8 29.45 40.9 29.95 L40.95 30.7 40.7 33.95 40.45 36.85 Q40.45 37.85 41.6 39.85 42.85 41.95 43.7 41.95 L45.5 41.65 44.55 42.5 42.95 43.75 39.95 39.9 Q38.85 38.0 38.3 36.25 L39.1 35.2 39.2 34.7 Q39.85 31.75 39.7 28.8 L39.95 28.7" fill="#c3b7a1" fill-rule="evenodd" stroke="none"/>
      <path d="M42.95 27.5 L45.45 26.65 46.8 28.95 44.55 29.0 42.75 30.15 42.65 30.6 Q41.5 36.05 42.35 38.45 L42.7 38.9 43.65 40.15 Q44.25 40.85 44.8 40.85 L46.4 40.65 45.5 41.65 43.7 41.95 Q42.85 41.95 41.6 39.85 40.45 37.85 40.45 36.85 L40.7 33.95 40.95 30.7 40.9 29.95 Q40.8 29.45 40.35 29.1 L39.95 28.7 40.3 28.55 40.45 28.5 42.95 27.5 M48.45 40.85 L48.55 41.25 47.9 41.4 46.95 43.5 46.5 44.1 46.25 44.4 46.45 44.6 47.55 45.3 Q48.65 45.75 49.45 46.15 L49.75 46.3 49.75 46.4 46.2 46.2 42.35 46.0 42.5 45.4 Q44.1 45.15 45.3 44.05 46.25 43.1 46.75 41.75 L48.45 40.85 M21.45 23.05 L22.65 23.15 23.05 23.25 23.45 23.3 23.7 23.7 24.05 26.5 Q24.1 28.1 23.7 28.85 L23.1 29.75 22.15 29.95 Q21.45 30.0 19.05 28.75 16.65 27.5 12.9 23.75 16.85 25.9 18.65 26.55 L21.7 27.3 21.75 27.3 22.25 27.2 22.3 27.15 Q22.9 26.75 22.8 25.35 L22.2 23.75 21.45 23.05" fill="#ae9375" fill-rule="evenodd" stroke="none"/>
      <path d="M43.0 18.0 Q44.85 15.9 47.9 15.85 L47.55 17.45 47.15 17.45 Q46.25 17.45 46.3 20.45 L46.4 23.9 46.55 24.6 47.0 25.45 48.0 27.2 50.0 31.4 Q50.0 33.0 49.1 35.05 L48.9 35.45 48.4 36.4 48.15 36.75 47.55 37.65 47.7 36.65 47.85 35.8 47.9 34.65 48.05 31.05 46.8 28.95 45.45 26.65 45.3 25.65 45.25 25.4 44.85 23.6 Q44.2 20.9 43.0 18.0 M49.9 38.05 L51.75 40.15 49.3 39.35 49.9 38.05 M46.1 53.5 L40.35 53.5 40.2 52.55 38.45 50.2 40.75 49.8 Q41.7 48.1 42.35 46.0 L46.2 46.2 46.0 49.9 46.1 53.5 M-0.45 42.4 L-0.45 33.8 Q1.2 32.4 1.75 30.6 L2.1 28.6 1.9 25.55 1.9 25.25 Q6.45 29.3 9.1 29.25 6.35 26.55 5.35 24.75 L4.4 22.6 Q3.9 20.8 3.9 18.75 3.9 14.35 6.25 10.85 8.4 7.7 10.55 6.85 L16.35 6.55 Q19.8 7.05 24.25 11.3 L24.8 11.85 25.1 12.15 24.3 14.15 23.95 16.05 24.3 14.15 25.1 12.15 26.15 10.55 Q27.0 9.5 28.25 8.85 L28.35 9.4 Q27.7 10.05 28.35 13.0 L28.6 14.15 Q29.15 15.65 30.45 17.35 L31.35 18.55 33.9 21.95 34.35 22.65 35.0 23.7 35.25 24.1 Q35.8 25.2 35.95 26.5 L36.3 28.85 36.5 31.25 Q36.5 34.05 36.0 35.05 L34.15 38.65 33.7 39.1 32.4 38.35 32.55 37.1 30.75 35.5 31.2 34.8 31.75 34.95 32.15 34.95 32.25 34.95 32.65 34.9 32.65 34.05 32.2 34.1 31.45 33.9 31.0 33.6 Q30.45 33.05 30.45 32.35 30.45 31.75 30.75 31.35 L31.0 31.1 Q31.45 30.6 32.2 30.6 L32.45 30.6 32.6 33.4 32.6 33.45 32.65 33.95 32.65 34.05 32.65 33.95 32.6 33.45 32.6 33.4 32.45 30.6 32.4 30.55 32.4 30.45 31.75 29.6 Q30.9 29.7 30.3 30.35 L30.05 30.65 Q29.05 29.9 27.7 30.0 27.7 27.65 28.5 26.0 L27.5 25.05 27.3 24.8 23.8 21.95 Q23.6 18.9 23.95 16.2 L23.95 16.05 22.3 15.95 22.05 15.95 21.85 15.9 21.45 15.85 Q19.7 15.55 17.65 14.8 15.25 13.9 12.5 12.4 L12.45 12.35 12.3 12.3 12.25 12.25 Q11.45 15.15 12.6 18.25 L12.75 18.65 Q13.75 21.0 15.95 23.4 L12.9 23.75 Q14.15 26.3 17.2 29.05 15.25 30.4 14.95 31.3 14.3 35.35 14.9 38.15 L14.5 38.1 13.7 38.05 Q10.4 38.05 8.5 39.95 L7.45 41.45 Q6.95 42.5 6.95 43.7 L7.05 44.65 0.4 45.0 Q0.4 43.8 -0.25 42.7 L-0.45 42.4 M-0.45 29.15 L-0.45 27.6 Q-0.1 28.5 0.1 29.35 L-0.45 29.15 M32.65 34.9 L32.65 35.25 32.55 37.1 32.65 35.25 32.65 34.9 M31.75 29.6 Q30.2 27.65 28.5 26.0 30.2 27.65 31.75 29.6 M40.2 52.55 L40.6 53.15 40.2 52.55" fill="#2c3765" fill-rule="evenodd" stroke="none"/>
      <path d="M47.55 17.45 Q47.05 20.55 47.85 24.35 L51.6 31.0 Q51.3 34.05 50.45 36.6 L50.2 37.25 49.9 38.05 49.3 39.35 48.45 40.85 46.75 41.75 42.95 43.75 44.55 42.5 45.5 41.65 46.4 40.65 47.05 39.85 47.55 37.65 48.15 36.75 48.4 36.4 48.9 35.45 49.1 35.05 Q50.0 33.0 50.0 31.4 L48.0 27.2 47.0 25.45 46.55 24.6 46.4 23.9 46.3 20.45 Q46.25 17.45 47.15 17.45 L47.55 17.45 M18.15 49.1 L19.45 49.1 Q21.45 50.95 23.0 53.3 L23.15 53.5 17.45 53.5 17.45 50.95 18.15 49.1 M7.05 44.65 L6.95 43.7 Q6.95 42.5 7.45 41.45 L8.5 39.95 Q10.4 38.05 13.7 38.05 L14.5 38.1 14.9 38.15 15.05 38.75 19.05 40.0 20.2 41.55 21.85 43.55 22.5 44.3 21.3 44.5 20.65 44.6 19.2 44.95 18.35 44.55 18.0 44.4 17.05 44.15 Q16.15 44.15 15.4 44.85 14.6 45.55 14.6 46.55 14.6 47.05 15.3 47.65 L16.65 48.55 16.25 49.1 15.15 50.65 15.1 50.7 13.95 51.7 10.05 47.7 7.05 44.65 M50.95 31.55 Q50.95 30.65 50.5 30.7 50.05 30.75 50.05 31.6 50.05 32.35 50.5 32.35 L50.95 31.95 50.95 31.55 M39.7 28.8 Q39.85 31.75 39.2 34.7 L39.1 35.2 38.3 36.25 36.75 37.95 34.5 39.6 33.7 39.1 34.15 38.65 35.15 37.55 35.45 37.15 36.4 36.0 37.15 34.95 37.3 34.35 37.3 34.8 37.85 35.05 Q38.4 35.05 38.65 34.5 L38.75 33.9 Q38.75 32.95 38.0 32.95 37.6 32.95 37.4 33.35 37.8 30.85 37.8 28.35 L37.55 26.05 37.55 25.9 37.25 24.6 36.8 23.85 35.4 21.85 34.35 20.55 32.7 18.3 31.65 16.9 30.45 15.7 30.2 15.5 28.6 14.15 28.35 13.0 Q27.7 10.05 28.35 9.4 28.65 11.2 29.55 12.85 L29.9 13.15 Q32.55 15.5 34.85 18.25 L35.3 18.85 36.3 20.15 39.05 24.05 39.35 25.5 39.65 27.8 39.65 27.95 39.65 28.4 39.7 28.55 39.7 28.8 M31.2 34.8 L30.75 35.5 28.05 33.2 28.05 33.1 Q27.7 31.4 27.7 30.0 29.05 29.9 30.05 30.65 29.5 31.35 29.5 32.25 29.5 33.35 30.3 34.15 30.7 34.6 31.2 34.8" fill="#225489" fill-rule="evenodd" stroke="none"/>
      <path d="M23.45 45.4 L21.65 45.85 Q20.45 46.3 19.4 47.05 L18.7 47.65 15.15 50.65 16.25 49.1 16.65 48.55 15.3 47.65 Q14.6 47.05 14.6 46.55 14.6 45.55 15.4 44.85 16.15 44.15 17.05 44.15 L18.0 44.4 18.35 44.55 19.2 44.95 20.65 44.6 21.3 44.5 22.5 44.3 23.45 45.4 M19.45 49.1 L20.95 49.1 24.9 53.5 23.15 53.5 23.0 53.3 Q21.45 50.95 19.45 49.1 M1.65 53.5 L-0.45 53.5 -0.45 45.35 0.1 45.85 1.65 53.5 M50.95 31.55 L50.95 31.95 50.5 32.35 Q50.05 32.35 50.05 31.6 50.05 30.75 50.5 30.7 50.95 30.65 50.95 31.55 M37.4 33.35 Q37.6 32.95 38.0 32.95 38.75 32.95 38.75 33.9 L38.65 34.5 Q38.4 35.05 37.85 35.05 L37.3 34.8 37.3 34.35 37.3 34.25 37.4 33.35" fill="#3e79a3" fill-rule="evenodd" stroke="none"/>
      <path d="M12.9 23.75 L15.95 23.4 19.1 23.05 21.45 23.05 22.2 23.75 22.8 25.35 Q22.9 26.75 22.3 27.15 L22.25 27.2 21.75 27.3 21.7 27.3 18.65 26.55 Q16.85 25.9 12.9 23.75 M46.4 40.65 L44.8 40.85 Q44.25 40.85 43.65 40.15 L42.7 38.9 42.35 38.45 Q41.5 36.05 42.65 30.6 L42.75 30.15 44.55 29.0 46.8 28.95 48.05 31.05 47.9 34.65 47.85 35.8 47.7 36.65 47.55 37.65 47.05 39.85 46.4 40.65 M49.75 46.3 L49.45 46.15 Q48.65 45.75 47.55 45.3 L46.45 44.6 46.25 44.4 46.5 44.1 46.95 43.5 47.9 41.4 48.55 41.25 49.75 46.3" fill="#e7dcc6" fill-rule="evenodd" stroke="none"/>
      <path d="M-0.45 6.95 L-0.45 4.85 0.65 4.5 -0.45 6.95 M9.6 0.0 L19.4 0.0 20.6 1.0 Q26.65 5.3 28.35 8.1 29.55 9.95 29.9 13.15 L29.55 12.85 Q28.65 11.2 28.35 9.4 L28.25 8.85 Q27.0 9.5 26.15 10.55 L25.25 9.65 Q18.8 3.2 10.7 2.35 L9.6 0.0 M24.8 0.0 L28.35 0.0 36.35 8.55 36.35 8.8 36.3 9.05 Q36.1 9.6 35.35 9.6 L34.2 9.35 33.65 8.95 32.5 7.6 Q31.6 6.4 26.35 1.5 L24.8 0.0 M38.45 13.7 L39.1 13.0 Q40.4 14.8 41.6 18.4 L42.85 22.9 43.1 25.3 43.1 25.5 43.1 26.15 43.15 26.15 44.85 25.65 45.3 25.65 45.45 26.65 42.95 27.5 43.1 26.7 43.1 26.15 41.35 26.6 Q40.85 26.6 40.35 24.05 L40.05 22.15 39.95 21.35 39.5 18.9 39.05 17.5 38.6 16.3 38.45 13.95 38.45 13.7 M54.4 47.35 L54.4 53.5 50.25 53.5 50.2 52.75 50.2 52.65 Q50.2 49.15 51.95 47.1 L53.15 46.05 54.1 47.0 54.4 47.35 M34.75 48.95 L28.4 48.95 27.95 48.4 27.25 47.1 26.4 44.95 26.4 44.9 26.65 44.8 Q27.8 44.3 28.5 44.3 28.8 44.3 30.85 45.8 L34.25 48.1 34.75 48.55 34.75 48.95 M18.7 47.65 L18.15 49.1 17.45 50.95 17.45 53.5 4.55 53.5 Q4.8 51.55 5.4 50.85 L6.5 49.6 Q7.45 48.65 8.7 48.15 9.35 47.85 10.05 47.7 L13.95 51.7 15.1 50.7 15.15 50.65 18.7 47.65 M12.5 12.4 Q15.25 13.9 17.65 14.8 19.7 15.55 21.45 15.85 L21.85 15.9 21.65 16.5 21.55 17.95 21.55 18.55 21.55 18.9 Q19.55 18.9 17.3 17.4 L14.85 15.4 Q13.5 14.15 12.7 13.0 L12.5 12.4 M26.5 38.7 L26.9 37.9 Q27.9 36.35 29.8 36.35 L30.2 36.35 30.7 36.7 30.75 36.75 31.45 37.5 Q31.7 37.9 31.5 38.75 31.55 39.05 31.95 39.35 L32.65 39.85 33.4 40.3 34.1 40.7 35.25 41.2 35.75 41.0 36.35 40.45 37.25 40.0 38.0 39.65 40.0 42.35 41.45 43.9 42.65 44.9 42.55 45.3 42.35 45.25 Q41.8 45.1 41.3 45.25 40.75 45.4 40.25 46.75 L39.55 48.4 Q39.35 48.65 38.55 48.9 L37.6 49.15 37.5 49.15 36.65 49.3 35.85 49.1 35.9 48.05 35.9 47.4 30.05 41.95 27.75 41.95 27.6 39.05 26.7 38.8 26.65 38.8 26.5 38.7 M26.45 38.75 L26.25 39.45 21.9 38.5 20.7 36.5 21.1 36.15 20.9 36.05 20.55 36.0 20.4 36.25 20.2 36.45 20.05 36.4 20.05 36.15 Q20.85 34.8 21.8 36.0 L22.1 36.45 22.4 37.0 22.6 37.8 26.45 38.75 M27.7 30.0 Q27.7 31.4 28.05 33.1 L27.7 32.85 Q27.05 32.25 26.9 31.7 L26.65 30.35 26.55 28.55 26.85 26.65 27.5 25.05 28.5 26.0 Q27.7 27.65 27.7 30.0" fill="#de5938" fill-rule="evenodd" stroke="none"/>
      <path d="M0.65 4.5 L-0.45 4.85 -0.45 3.3 1.3 2.45 2.15 2.45 0.65 4.5 M39.1 13.0 L40.05 12.1 43.0 18.0 Q44.2 20.9 44.85 23.6 L45.25 25.4 45.3 25.65 44.85 25.65 43.15 26.15 43.1 26.15 43.1 25.5 43.1 25.3 42.85 22.9 41.6 18.4 Q40.4 14.8 39.1 13.0 M54.4 45.0 L54.4 47.35 54.1 47.0 53.15 46.05 54.4 45.0 M38.45 50.2 L34.75 50.55 34.75 48.95 34.75 48.55 34.75 47.35 29.7 42.9 26.65 42.9 26.65 39.5 26.25 39.45 26.45 38.75 26.5 38.7 26.65 38.8 26.7 38.8 27.6 39.05 27.75 41.95 30.05 41.95 35.9 47.4 35.9 48.05 35.85 49.1 36.65 49.3 37.5 49.15 37.6 49.15 38.55 48.9 Q39.35 48.65 39.55 48.4 L40.25 46.75 Q40.75 45.4 41.3 45.25 41.8 45.1 42.35 45.25 L42.55 45.3 42.5 45.4 42.35 46.0 Q41.7 48.1 40.75 49.8 L38.45 50.2" fill="#ff9051" fill-rule="evenodd" stroke="none"/>
      <path d="M-0.45 6.95 L0.65 4.5 2.15 2.45 4.0 2.45 Q2.5 4.1 1.55 6.0 -0.25 9.65 0.15 14.2 L-0.45 14.45 -0.45 6.95 M6.5 2.2 L5.4 0.0 9.6 0.0 10.7 2.35 9.75 2.25 6.5 2.2 M19.4 0.0 L24.8 0.0 26.35 1.5 Q31.6 6.4 32.5 7.6 L33.65 8.95 34.2 9.35 35.35 9.6 Q36.1 9.6 36.3 9.05 L36.35 8.8 Q37.35 11.8 37.1 15.45 37.7 14.5 38.45 13.7 L38.45 13.95 38.6 16.3 39.05 17.5 39.5 18.9 39.95 21.35 40.05 22.15 40.35 24.05 Q40.85 26.6 41.35 26.6 L43.1 26.15 43.1 26.7 42.95 27.5 40.45 28.5 40.3 28.55 39.95 28.7 39.7 28.8 39.7 28.55 39.65 28.4 39.65 27.95 39.65 27.8 39.35 25.5 39.05 24.05 36.3 20.15 35.3 18.85 34.85 18.25 Q32.55 15.5 29.9 13.15 29.55 9.95 28.35 8.1 26.65 5.3 20.6 1.0 L19.4 0.0 M51.75 40.15 L54.4 43.45 54.4 45.0 53.15 46.05 51.95 47.1 Q50.2 49.15 50.2 52.65 L50.2 52.75 50.25 53.5 46.1 53.5 46.0 49.9 46.2 46.2 49.75 46.4 49.75 46.3 48.55 41.25 48.45 40.85 49.3 39.35 51.75 40.15 M28.4 48.95 L26.65 48.95 25.95 48.2 23.45 45.4 22.5 44.3 21.85 43.55 20.2 41.55 19.05 40.0 15.05 38.75 14.9 38.15 Q14.3 35.35 14.95 31.3 15.25 30.4 17.2 29.05 L19.35 30.85 20.95 31.85 21.6 31.95 Q22.9 32.0 23.9 30.6 L24.45 29.65 Q25.25 28.1 24.9 26.45 24.65 25.15 23.7 23.7 L23.45 23.3 23.05 23.25 22.65 23.15 21.45 23.05 19.1 23.05 Q15.5 21.35 13.85 18.4 L13.55 17.8 13.45 17.65 Q12.5 15.6 12.45 12.5 L12.45 12.35 12.5 12.4 12.7 13.0 Q13.5 14.15 14.85 15.4 L17.3 17.4 Q19.55 18.9 21.55 18.9 L21.55 18.55 21.55 17.95 21.65 16.5 21.85 15.9 22.05 15.95 22.3 15.95 23.95 16.05 23.95 16.2 Q23.6 18.9 23.8 21.95 L27.3 24.8 27.5 25.05 26.85 26.65 26.55 28.55 26.65 30.35 26.9 31.7 Q27.05 32.25 27.7 32.85 L28.05 33.1 28.05 33.2 30.75 35.5 32.55 37.1 32.4 38.35 33.7 39.1 34.5 39.6 36.75 37.95 38.3 36.25 Q38.85 38.0 39.95 39.9 L42.95 43.75 42.8 44.3 42.65 44.9 41.45 43.9 40.0 42.35 38.0 39.65 37.25 40.0 36.35 40.45 35.75 41.0 35.25 41.2 34.1 40.7 33.4 40.3 32.65 39.85 31.95 39.35 Q31.55 39.05 31.5 38.75 31.7 37.9 31.45 37.5 L30.75 36.75 30.7 36.7 30.2 36.35 29.8 36.35 Q27.9 36.35 26.9 37.9 L26.5 38.7 26.45 38.75 22.6 37.8 22.4 37.0 22.1 36.45 21.8 36.0 Q20.85 34.8 20.05 36.15 L20.05 36.4 20.2 36.45 20.4 36.25 20.55 36.0 20.9 36.05 21.1 36.15 20.7 36.5 21.9 38.5 26.25 39.45 26.65 39.5 26.65 42.9 29.7 42.9 34.75 47.35 34.75 48.55 34.25 48.1 30.85 45.8 Q28.8 44.3 28.5 44.3 27.8 44.3 26.65 44.8 L26.4 44.9 26.4 44.95 27.25 47.1 27.95 48.4 28.4 48.95 M4.55 53.5 L1.65 53.5 0.1 45.85 -0.45 45.35 -0.45 45.3 0.4 45.0 7.05 44.65 10.05 47.7 Q9.35 47.85 8.7 48.15 7.45 48.65 6.5 49.6 L5.4 50.85 Q4.8 51.55 4.55 53.5 M35.3 18.85 L35.45 18.55 Q36.1 16.85 37.1 15.45 36.1 16.85 35.45 18.55 L35.3 18.85" fill="#9e353c" fill-rule="evenodd" stroke="none"/>
      <path d="M4.0 2.45 L6.5 2.2 9.75 2.25 10.7 2.35 Q18.8 3.2 25.25 9.65 L26.15 10.55 25.1 12.15 24.8 11.85 24.25 11.3 Q19.8 7.05 16.35 6.55 L10.55 6.85 Q8.4 7.7 6.25 10.85 3.9 14.35 3.9 18.75 3.9 20.8 4.4 22.6 L5.35 24.75 Q6.35 26.55 9.1 29.25 6.45 29.3 1.9 25.25 L1.9 25.55 2.1 28.6 1.75 30.6 Q1.2 32.4 -0.45 33.8 L-0.45 29.15 0.1 29.35 1.05 29.8 0.1 29.35 Q-0.1 28.5 -0.45 27.6 L-0.45 14.45 0.15 14.2 Q-0.25 9.65 1.55 6.0 2.5 4.1 4.0 2.45 M-0.45 45.3 L-0.45 42.4 -0.25 42.7 Q0.4 43.8 0.4 45.0 L-0.45 45.3 M28.6 14.15 L30.2 15.5 30.45 15.7 31.65 16.9 32.7 18.3 34.35 20.55 35.4 21.85 36.8 23.85 37.25 24.6 37.55 25.9 37.55 26.05 37.8 28.35 Q37.8 30.85 37.4 33.35 L37.3 34.25 37.3 34.35 37.15 34.95 36.4 36.0 35.45 37.15 35.15 37.55 34.15 38.65 36.0 35.05 Q36.5 34.05 36.5 31.25 L36.3 28.85 35.95 26.5 Q35.8 25.2 35.25 24.1 L35.0 23.7 34.35 22.65 33.9 21.95 31.35 18.55 30.45 17.35 Q29.15 15.65 28.6 14.15" fill="#222b4d" fill-rule="evenodd" stroke="none"/>
      <path d="M15.95 23.4 Q13.75 21.0 12.75 18.65 L12.6 18.25 Q11.45 15.15 12.25 12.25 L12.3 12.3 12.45 12.35 12.45 12.5 Q12.5 15.6 13.45 17.65 L13.55 17.8 13.85 18.4 Q15.5 21.35 19.1 23.05 L15.95 23.4" fill="#846b8b" fill-rule="evenodd" stroke="none"/>
      <path d="M46.75 41.75 Q46.25 43.1 45.3 44.05 44.1 45.15 42.5 45.4 L42.55 45.3 42.65 44.9 42.8 44.3 42.95 43.75 46.75 41.75" fill="#967858" fill-rule="evenodd" stroke="none"/>
      <path d="M32.45 30.6 L32.2 30.6 Q31.45 30.6 31.0 31.1 L30.75 31.35 30.35 30.9 30.05 30.65 30.3 30.35 Q30.9 29.7 31.75 29.6 L32.4 30.45 32.4 30.55 32.45 30.6 M31.45 33.9 L32.2 34.1 32.65 34.05 32.65 34.9 32.25 34.95 32.15 34.95 31.75 34.95 31.2 34.8 31.45 33.9" fill="#f9cd7b" fill-rule="evenodd" stroke="none"/>
      <path d="M30.75 31.35 Q30.45 31.75 30.45 32.35 30.45 33.05 31.0 33.6 L31.45 33.9 31.2 34.8 Q30.7 34.6 30.3 34.15 29.5 33.35 29.5 32.25 29.5 31.35 30.05 30.65 L30.35 30.9 30.75 31.35" fill="#ffffaa" fill-rule="evenodd" stroke="none"/>
      <path d="M-0.45 3.3 L1.3 2.45 2.15 2.45 4.0 2.45 6.5 2.2 5.4 0.0 M28.35 0.0 L36.35 8.55 36.35 8.8 Q37.35 11.8 37.1 15.45 37.7 14.5 38.45 13.7 L39.1 13.0 40.05 12.1 43.0 18.0 Q44.85 15.9 47.9 15.85 L47.55 17.45 Q47.05 20.55 47.85 24.35 L51.6 31.0 Q51.3 34.05 50.45 36.6 L50.2 37.25 49.9 38.05 51.75 40.15 54.4 43.45 M40.35 53.5 L40.2 52.55 38.45 50.2 34.75 50.55 34.75 48.95 28.4 48.95 26.65 48.95 25.95 48.2 23.45 45.4 21.65 45.85 Q20.45 46.3 19.4 47.05 L18.7 47.65 18.15 49.1 19.45 49.1 20.95 49.1 24.9 53.5 M0.4 45.0 L7.05 44.65 10.05 47.7 13.95 51.7 15.1 50.7 15.15 50.65 18.7 47.65 M14.95 31.3 Q15.25 30.4 17.2 29.05 14.15 26.3 12.9 23.75 L15.95 23.4 Q13.75 21.0 12.75 18.65 L12.6 18.25 Q11.45 15.15 12.25 12.25 L12.3 12.3 12.45 12.35 12.5 12.4 Q15.25 13.9 17.65 14.8 19.7 15.55 21.45 15.85 L21.85 15.9 22.05 15.95 22.3 15.95 23.95 16.05 24.3 14.15 25.1 12.15 26.15 10.55 Q27.0 9.5 28.25 8.85 L28.35 9.4 Q28.65 11.2 29.55 12.85 L29.9 13.15 Q32.55 15.5 34.85 18.25 L35.3 18.85 36.3 20.15 39.05 24.05 39.35 25.5 39.65 27.8 39.65 27.95 39.65 28.4 39.7 28.55 39.7 28.8 Q39.85 31.75 39.2 34.7 L39.1 35.2 38.3 36.25 Q38.85 38.0 39.95 39.9 L42.95 43.75 44.55 42.5 45.5 41.65 46.4 40.65 47.05 39.85 47.55 37.65 47.7 36.65 47.85 35.8 47.9 34.65 48.05 31.05 46.8 28.95 45.45 26.65 45.3 25.65 45.25 25.4 44.85 23.6 Q44.2 20.9 43.0 18.0 M42.95 27.5 L45.45 26.65 M39.95 28.7 L39.7 28.8 M49.3 39.35 L49.9 38.05 M48.55 41.25 L48.45 40.85 46.75 41.75 42.95 43.75 42.8 44.3 42.65 44.9 42.55 45.3 42.5 45.4 42.35 46.0 46.2 46.2 49.75 46.4 49.75 46.3 48.55 41.25 M48.45 40.85 L49.3 39.35 51.75 40.15 M26.25 39.45 L26.65 39.5 26.65 42.9 29.7 42.9 34.75 47.35 34.75 48.55 34.75 48.95 M10.7 2.35 Q18.8 3.2 25.25 9.65 L26.15 10.55 M33.7 39.1 L34.5 39.6 36.75 37.95 38.3 36.25 M27.5 25.05 L27.3 24.8 23.8 21.95 Q23.6 18.9 23.95 16.2 L23.95 16.05 M23.7 23.7 L23.45 23.3 23.05 23.25 22.65 23.15 21.45 23.05 19.1 23.05 15.95 23.4 M23.7 23.7 Q24.65 25.15 24.9 26.45 M23.9 30.6 Q22.9 32.0 21.6 31.95 L20.95 31.85 19.35 30.85 17.2 29.05 M37.1 15.45 Q36.1 16.85 35.45 18.55 L35.3 18.85 M6.5 2.2 L9.75 2.25 10.7 2.35 M-0.45 14.45 L0.15 14.2 Q-0.25 9.65 1.55 6.0 2.5 4.1 4.0 2.45 M20.7 36.5 L21.9 38.5 26.25 39.45 M1.05 29.8 L0.1 29.35 -0.45 29.15 M15.05 38.75 L19.05 40.0 20.2 41.55 21.85 43.55 22.5 44.3 23.45 45.4 M39.95 28.7 L40.3 28.55 40.45 28.5 42.95 27.5 M32.65 34.05 L32.65 33.95 32.6 33.45 32.6 33.4 32.45 30.6 32.4 30.55 32.4 30.45 31.75 29.6 Q30.2 27.65 28.5 26.0 L27.5 25.05 M32.65 34.9 L32.65 34.05 M32.55 37.1 L32.65 35.25 32.65 34.9 M30.75 35.5 L32.55 37.1 32.4 38.35 33.7 39.1 M27.7 30.0 Q27.7 31.4 28.05 33.1 L28.05 33.2 30.75 35.5 M27.7 30.0 Q27.7 27.65 28.5 26.0 M18.15 49.1 L17.45 50.95 17.45 53.5 M46.1 53.5 L46.0 49.9 46.2 46.2 M1.65 53.5 L0.1 45.85 -0.45 45.35 M38.45 50.2 L40.75 49.8 Q41.7 48.1 42.35 46.0 M40.6 53.15 L40.2 52.55 M0.4 45.0 L-0.45 45.3" fill="none" stroke="#3b1e18" stroke-linecap="round" stroke-linejoin="round" stroke-width="1.0"/>
    </g>
    <g id="shape2" transform="matrix(1.0, 0.0, 0.0, 1.0, 0.0, 0.0)">
      <path d="M50.5 0.0 Q53.95 0.0 53.95 3.3 L53.95 50.15 Q53.95 53.4 50.5 53.4 L3.3 53.4 Q0.0 53.4 0.0 50.15 L0.0 3.3 Q0.0 0.0 3.3 0.0 L50.5 0.0" fill="#000000" fill-opacity="0.003921569" fill-rule="evenodd" stroke="none"/>
    </g>
  </defs>
</svg>
