<?xml version="1.0" encoding="UTF-8" standalone="no"?>
<svg xmlns:ffdec="https://www.free-decompiler.com/flash" xmlns:xlink="http://www.w3.org/1999/xlink" ffdec:objectType="frame" height="58.5px" width="58.75px" xmlns="http://www.w3.org/2000/svg">
  <g transform="matrix(1.0, 0.0, 0.0, 1.0, 2.4, 1.9)">
    <clipPath id="clipPath0" transform="matrix(1.0, 0.0, 0.0, 1.0, 0.0, 0.0)">
      <path d="M50.5 0.0 Q53.95 0.0 53.95 3.3 L53.95 50.15 Q53.95 53.4 50.5 53.4 L3.3 53.4 Q0.0 53.4 0.0 50.15 L0.0 3.3 Q0.0 0.0 3.3 0.0 L50.5 0.0" fill="#000000" fill-rule="evenodd" stroke="none"/>
    </clipPath>
    <g clip-path="url(#clipPath0)">
      <use ffdec:characterId="2" height="58.5" transform="matrix(1.0, 0.0, 0.0, 1.0, -2.4, -1.9)" width="58.75" xlink:href="#shape1"/>
    </g>
    <use ffdec:characterId="3" height="53.4" transform="matrix(1.0, 0.0, 0.0, 1.0, 0.0, 0.0)" width="53.95" xlink:href="#shape2"/>
  </g>
  <defs>
    <g id="shape1" transform="matrix(1.0, 0.0, 0.0, 1.0, 2.4, 1.9)">
      <path d="M55.85 40.35 L55.85 41.15 54.7 42.5 54.25 43.25 Q53.2 45.1 53.15 46.95 L53.15 47.2 53.15 47.4 51.7 47.55 51.95 45.55 51.95 45.35 52.15 43.85 51.75 43.75 51.4 43.7 48.0 42.9 48.75 41.65 48.75 41.6 51.6 41.05 55.85 40.35" fill="#bd3400" fill-rule="evenodd" stroke="none"/>
      <path d="M18.35 11.35 L18.55 11.45 19.15 11.85 19.65 12.25 20.35 13.45 20.45 13.75 20.55 14.2 20.55 14.35 20.6 14.75 20.5 15.05 19.95 16.35 19.9 16.45 19.2 17.7 19.6 16.2 19.95 15.35 20.15 14.7 20.1 14.1 19.95 13.45 19.55 12.75 Q19.1 12.05 18.15 11.9 L17.9 11.9 18.05 11.7 18.1 11.6 18.35 11.35" fill="#fcca25" fill-rule="evenodd" stroke="none"/>
      <path d="M30.1 -0.15 L28.85 -1.4 30.6 -1.4 30.95 -0.75 31.9 -1.4 43.05 -1.4 44.75 -0.6 47.15 2.0 48.7 4.25 43.3 14.95 42.9 15.75 42.35 14.9 Q39.65 10.8 35.85 7.6 L36.3 5.9 36.9 4.05 Q34.4 3.5 32.2 0.95 L30.95 -0.75 30.1 -0.15" fill="#eaffff" fill-rule="evenodd" stroke="none"/>
      <path d="M14.3 50.25 Q13.95 46.85 13.25 43.4 15.7 45.65 19.3 47.4 L19.55 47.5 21.5 48.3 21.15 49.65 20.95 50.55 20.5 52.55 20.35 52.5 20.3 52.5 17.05 51.45 16.8 51.4 15.7 50.95 14.3 50.25" fill="#d25c00" fill-rule="evenodd" stroke="none"/>
      <path d="M30.25 21.6 L30.15 21.5 26.45 17.6 26.45 17.45 25.9 17.15 24.8 16.65 24.8 16.6 26.05 16.0 30.15 19.75 30.5 20.1 30.25 21.6" fill="#f09811" fill-rule="evenodd" stroke="none"/>
      <path d="M45.05 56.35 L44.0 56.35 43.5 55.3 43.1 54.45 43.55 54.25 44.6 53.9 44.85 53.75 45.1 53.6 45.7 53.25 45.55 54.05 45.55 54.1 45.55 54.3 Q44.9 54.35 44.5 54.8 L44.75 55.5 45.05 56.35" fill="#ffe31c" fill-rule="evenodd" stroke="none"/>
      <path d="M33.0 46.25 L32.05 46.25 26.7 45.65 26.35 44.25 Q28.75 45.3 31.2 45.55 L32.35 45.55 32.45 45.55 32.55 45.55 33.0 45.55 33.25 45.55 33.5 45.55 34.35 45.5 35.2 45.4 35.35 46.05 33.0 46.25" fill="#1c284d" fill-rule="evenodd" stroke="none"/>
      <path d="M55.85 44.45 L55.85 49.55 54.55 49.55 53.85 49.55 Q53.2 48.45 53.15 47.4 L53.15 47.2 53.15 46.95 Q53.2 45.1 54.25 43.25 L54.7 42.5 54.7 42.75 54.8 42.7 55.85 44.45" fill="#233064" fill-rule="evenodd" stroke="none"/>
      <path d="M55.85 49.55 L55.85 51.45 55.5 51.5 55.4 51.45 53.85 49.55 54.55 49.55 55.85 49.55" fill="#435695" fill-rule="evenodd" stroke="none"/>
      <path d="M46.85 47.8 L47.75 47.15 47.85 47.1 51.75 43.75 52.15 43.85 51.95 45.35 51.95 45.55 51.7 47.55 51.3 51.4 51.8 52.0 50.9 51.25 50.8 51.15 49.6 50.05 48.4 51.3 47.15 52.3 46.75 52.55 46.6 52.3 45.8 50.8 45.75 50.7 45.55 50.3 45.45 50.15 44.8 48.8 46.0 48.3 46.85 47.8 M24.7 32.4 L24.9 32.35 27.5 31.55 28.1 31.35 28.9 31.1 29.25 31.0 29.55 30.9 29.6 31.05 29.7 33.15 29.7 33.3 29.7 34.65 29.7 34.95 29.7 36.1 29.7 37.55 29.6 39.45 29.3 41.85 28.8 44.4 26.6 42.35 26.15 41.9 25.5 41.35 25.2 40.3 25.3 40.3 26.1 40.45 27.35 40.55 27.45 39.05 27.45 38.85 27.45 37.95 27.15 34.65 27.1 34.3 26.25 33.55 25.85 33.25 25.7 33.15 24.8 32.5 24.65 32.4 24.7 32.4 M31.85 50.55 L36.5 50.5 37.55 50.4 37.25 52.05 37.1 52.45 37.05 52.8 36.75 54.7 36.6 55.65 35.1 55.7 32.6 55.65 29.25 55.25 29.05 53.9 28.9 52.75 28.8 51.95 28.7 50.3 31.65 50.55 31.85 50.55" fill="#e27c00" fill-rule="evenodd" stroke="none"/>
      <path d="M55.85 37.55 L55.85 39.95 53.05 40.1 50.05 39.9 49.65 37.45 50.25 37.05 51.5 35.85 51.95 35.4 52.3 35.05 Q53.45 36.55 55.85 37.55" fill="#ec991f" fill-rule="evenodd" stroke="none"/>
      <path d="M45.2 33.45 L45.45 32.4 Q46.2 33.45 46.6 34.55 L44.95 34.5 45.2 33.45 M35.35 46.05 L35.2 45.4 35.8 45.3 36.2 45.2 36.35 45.15 37.35 44.85 36.7 45.9 35.8 46.0 35.35 46.05" fill="#d73b00" fill-rule="evenodd" stroke="none"/>
      <path d="M55.85 39.95 L55.85 40.35 51.6 41.05 48.75 41.6 48.8 38.95 48.8 38.35 48.75 37.5 49.2 37.2 49.65 37.45 50.05 39.9 53.05 40.1 55.85 39.95" fill="#fabc20" fill-rule="evenodd" stroke="none"/>
      <path d="M44.15 37.7 L44.4 36.6 44.95 34.5 46.6 34.55 46.6 34.6 46.8 36.2 46.3 38.95 46.25 39.05 48.3 37.8 Q48.55 37.6 48.75 37.5 L48.8 38.35 48.8 38.95 48.75 41.6 48.75 41.65 48.0 42.9 46.55 42.55 Q45.0 43.5 42.9 44.3 L42.0 44.6 42.85 42.15 44.15 37.7 M40.4 44.0 L40.2 45.2 36.7 45.9 37.35 44.85 37.75 44.65 Q39.5 43.65 39.8 43.05 L39.95 42.8 40.4 44.0" fill="#db4800" fill-rule="evenodd" stroke="none"/>
      <path d="M-0.45 56.35 L-1.9 56.35 -1.9 53.9 0.0 54.6 0.15 54.65 -0.45 56.25 -0.45 56.35 M51.8 52.0 L51.3 51.4 51.7 47.55 53.15 47.4 Q53.2 48.45 53.85 49.55 L55.4 51.45 55.3 51.75 53.85 51.95 52.75 52.1 51.95 52.2 51.8 52.0 M14.1 27.7 L15.0 28.75 15.75 29.55 Q17.15 31.2 18.6 33.6 L20.3 36.7 20.45 37.0 20.6 37.25 21.15 38.4 20.7 37.95 20.6 37.85 16.35 33.85 16.05 33.6 15.35 33.7 14.5 34.0 13.85 34.25 13.95 30.3 14.05 27.8 14.1 27.7" fill="#d05b00" fill-rule="evenodd" stroke="none"/>
      <path d="M15.35 33.7 L16.05 33.6 16.35 33.85 20.6 37.85 20.7 37.95 21.15 38.4 21.25 38.5 21.45 38.95 23.0 42.2 23.0 42.25 22.9 42.2 22.85 42.2 22.65 42.15 22.6 42.1 Q19.85 41.15 18.2 40.1 L16.2 40.4 13.75 40.7 13.7 40.6 13.5 39.75 13.3 39.1 14.35 38.9 15.75 38.3 17.3 37.4 16.3 35.75 15.9 34.95 15.35 33.7" fill="#405c95" fill-rule="evenodd" stroke="none"/>
      <path d="M55.85 51.45 L55.85 56.35 54.85 56.35 54.6 55.95 54.2 55.3 53.45 54.2 52.6 53.0 52.4 52.75 51.95 52.2 52.75 52.1 53.85 51.95 55.3 51.75 55.4 51.45 55.5 51.5 55.85 51.45 M4.4 20.25 L4.75 20.6 5.0 20.95 4.0 20.45 0.75 19.45 1.3 16.7 3.2 18.9 4.4 20.25 M13.85 34.25 L14.5 34.0 15.35 33.7 15.9 34.95 16.3 35.75 17.3 37.4 15.75 38.3 14.35 38.9 13.3 39.1 13.5 39.75 13.7 40.6 13.75 40.7 16.2 40.4 18.2 40.1 Q19.85 41.15 22.6 42.1 L22.65 42.15 22.85 42.2 22.9 42.2 23.0 42.25 23.05 42.35 24.25 44.9 Q22.95 44.4 21.85 43.7 L19.2 41.6 13.2 42.65 13.0 42.6 12.4 42.5 12.45 41.65 12.4 39.95 12.2 38.2 12.25 38.2 15.15 37.9 17.05 37.35 Q15.7 37.0 14.75 35.95 13.8 34.9 13.45 33.55 L13.85 34.25 M8.8 45.9 Q11.0 45.2 12.1 45.15 L12.15 45.15 12.6 47.1 12.85 48.25 12.95 48.95 11.9 49.9 11.6 50.2 10.55 49.75 10.2 49.55 Q7.95 51.7 5.95 51.7 L5.2 51.55 5.0 51.4 4.9 50.35 Q4.9 49.0 6.0 47.75 6.75 46.85 8.0 46.15 L8.8 45.9" fill="#304083" fill-rule="evenodd" stroke="none"/>
      <path d="M-1.9 38.65 L-1.9 38.3 0.0 38.35 1.7 38.25 2.35 39.85 1.25 39.95 0.75 39.95 0.05 39.55 Q-0.2 39.4 -0.5 39.3 L-1.35 38.85 -1.9 38.65" fill="#c22a00" fill-rule="evenodd" stroke="none"/>
      <path d="M51.5 2.55 Q51.5 3.05 50.9 3.2 L50.7 3.2 50.15 3.1 50.0 2.4 50.0 2.25 Q50.1 1.85 50.7 1.7 51.5 1.55 51.5 2.55 M52.6 6.1 L52.8 5.6 53.05 5.0 Q53.3 4.85 53.45 4.85 L53.85 4.95 54.35 6.1 Q54.35 6.9 53.45 6.9 L52.75 6.65 52.6 6.1" fill="#ffffff" fill-rule="evenodd" stroke="none"/>
      <path d="M30.6 -1.4 L31.9 -1.4 30.95 -0.75 30.6 -1.4" fill="#eeffff" fill-rule="evenodd" stroke="none"/>
      <path d="M49.85 4.65 L51.25 3.6 52.55 2.9 Q53.65 2.35 54.7 2.05 L53.45 4.15 53.05 5.0 52.8 5.6 52.6 6.1 Q51.3 9.35 51.3 12.5 51.3 14.05 51.95 14.9 52.5 15.7 53.35 15.7 L54.95 15.15 55.85 14.55 55.85 19.45 54.7 20.55 54.0 21.2 53.75 21.45 51.6 23.5 Q50.15 23.25 49.25 22.15 47.75 20.15 47.75 15.1 47.75 10.8 49.25 6.25 L49.85 4.65 M55.85 21.8 L55.85 29.25 Q55.1 30.3 53.85 30.75 L52.1 30.95 Q49.2 30.95 47.6 28.05 L47.45 27.8 47.4 27.65 49.65 25.45 50.85 24.3 51.5 23.6 51.6 23.5 52.55 23.55 54.0 23.3 55.7 22.3 55.75 22.25 55.85 21.8 M42.9 15.75 L46.1 21.5 46.15 22.35 Q46.3 25.5 47.4 27.65 L47.2 27.85 46.65 28.4 46.4 28.65 46.2 28.8 46.3 28.3 46.35 28.1 46.0 27.75 43.4 25.1 39.85 22.05 40.55 20.6 41.2 19.25 42.9 15.75 M40.35 29.15 L40.3 29.15 40.35 29.1 40.35 29.15" fill="#b7fff1" fill-rule="evenodd" stroke="none"/>
      <path d="M33.2 3.6 L30.5 0.3 30.1 -0.15 30.95 -0.75 32.2 0.95 Q34.4 3.5 36.9 4.05 L36.3 5.9 35.85 7.6 Q39.65 10.8 42.35 14.9 L42.9 15.75 43.3 14.95 48.7 4.25 49.3 5.25 49.85 4.65 49.25 6.25 Q47.75 10.8 47.75 15.1 47.75 20.15 49.25 22.15 50.15 23.25 51.6 23.5 L51.5 23.6 50.85 24.3 49.65 25.45 47.4 27.65 Q46.3 25.5 46.15 22.35 L46.1 21.5 42.9 15.75 41.2 19.25 40.55 20.6 39.85 22.05 39.05 21.45 39.2 21.15 39.85 15.85 40.35 14.65 39.85 14.4 39.05 13.9 36.55 12.6 36.15 12.4 35.95 12.15 35.35 11.4 32.55 7.35 33.7 4.3 33.6 4.15 33.2 3.6 M54.7 2.05 L55.35 1.9 55.25 3.9 Q55.25 6.3 55.85 8.8 L55.85 14.55 54.95 15.15 53.35 15.7 Q52.5 15.7 51.95 14.9 51.3 14.05 51.3 12.5 51.3 9.35 52.6 6.1 L52.75 6.65 53.45 6.9 Q54.35 6.9 54.35 6.1 L53.85 4.95 53.45 4.85 Q53.3 4.85 53.05 5.0 L53.45 4.15 54.7 2.05" fill="#cefffc" fill-rule="evenodd" stroke="none"/>
      <path d="M55.85 19.45 L55.85 21.8 55.75 22.25 55.7 22.3 54.0 23.3 52.55 23.55 51.6 23.5 53.75 21.45 54.0 21.2 54.7 20.55 55.85 19.45 M55.85 29.25 L55.85 37.55 Q53.45 36.55 52.3 35.05 L51.95 35.4 51.5 35.85 50.25 37.05 49.65 37.45 49.2 37.2 48.75 37.5 Q48.55 37.6 48.3 37.8 L46.25 39.05 46.3 38.95 46.8 36.2 46.6 34.6 46.6 34.55 Q46.2 33.45 45.45 32.4 L46.2 28.8 46.4 28.65 46.65 28.4 47.2 27.85 47.4 27.65 47.45 27.8 47.6 28.05 Q49.2 30.95 52.1 30.95 L53.85 30.75 Q55.1 30.3 55.85 29.25 M55.85 41.15 L55.85 44.45 54.8 42.7 54.7 42.75 54.7 42.5 55.85 41.15" fill="#99fdfb" fill-rule="evenodd" stroke="none"/>
      <path d="M46.0 27.75 L46.35 28.1 46.3 28.3 44.4 27.75 42.35 27.3 42.25 27.3 42.25 27.25 42.15 26.9 41.9 26.45 Q43.35 27.4 46.0 27.75 M46.6 47.5 Q47.75 46.8 48.9 45.9 L51.4 43.7 51.75 43.75 47.85 47.1 47.75 47.15 46.85 47.8 46.7 47.6 46.6 47.5 M22.4 48.65 L22.75 48.0 26.0 48.9 27.45 49.15 28.45 49.3 32.1 49.65 32.05 49.75 31.85 50.55 31.65 50.55 28.7 50.3 27.65 50.15 26.45 49.9 22.4 48.65" fill="#ffe41e" fill-rule="evenodd" stroke="none"/>
      <path d="M43.4 25.1 L42.95 25.15 41.2 25.1 40.25 23.55 39.6 22.6 38.95 21.65 38.95 21.6 39.05 21.45 39.85 22.05 43.4 25.1" fill="#fdcc0e" fill-rule="evenodd" stroke="none"/>
      <path d="M41.2 25.1 L42.95 25.15 43.4 25.1 46.0 27.75 Q43.35 27.4 41.9 26.45 L41.2 25.1" fill="#f6bf1e" fill-rule="evenodd" stroke="none"/>
      <path d="M42.25 27.3 L42.35 28.7 42.35 29.4 42.25 31.1 42.15 31.95 41.65 36.65 41.55 37.2 41.45 37.8 41.45 37.1 41.25 31.0 41.2 30.3 40.35 29.15 40.35 29.1 40.75 26.75 39.8 24.65 39.2 23.45 39.0 23.05 38.95 21.7 38.95 21.65 39.6 22.6 40.25 23.55 41.2 25.1 41.9 26.45 42.15 26.9 42.25 27.25 42.25 27.3" fill="#d44600" fill-rule="evenodd" stroke="none"/>
      <path d="M46.3 28.3 L46.2 28.8 45.45 32.4 45.2 33.45 42.15 31.95 42.25 31.1 42.35 29.4 42.35 28.7 42.25 27.3 42.35 27.3 44.4 27.75 46.3 28.3" fill="#ec8100" fill-rule="evenodd" stroke="none"/>
      <path d="M42.15 31.95 L45.2 33.45 44.95 34.5 44.4 36.6 44.15 37.7 43.1 37.6 41.85 37.3 41.55 37.2 41.65 36.65 42.15 31.95" fill="#ff8f07" fill-rule="evenodd" stroke="none"/>
      <path d="M40.35 29.15 L41.2 30.3 41.25 31.0 41.45 37.1 41.45 37.8 41.45 38.0 41.35 38.6 40.55 30.4 40.0 29.75 39.8 29.1 40.1 26.75 40.1 26.5 39.0 23.95 39.0 23.05 39.2 23.45 39.8 24.65 40.75 26.75 40.35 29.1 40.3 29.15 40.35 29.15" fill="#232454" fill-rule="evenodd" stroke="none"/>
      <path d="M44.15 37.7 L42.85 42.15 41.6 42.25 41.5 39.4 41.55 37.85 41.55 37.2 41.85 37.3 43.1 37.6 44.15 37.7 M10.9 0.15 L11.1 0.3 12.1 1.2 12.5 1.45 12.6 1.55 13.1 1.85 15.7 3.15 15.7 3.1 15.8 3.0 Q15.65 3.75 15.65 5.0 L15.8 6.55 14.9 6.5 14.8 7.2 14.8 7.4 14.75 7.7 14.55 7.35 14.1 6.55 13.65 5.55 12.05 2.95 Q11.35 1.55 11.0 0.35 L10.9 0.15 M21.25 38.5 L21.9 38.3 22.0 38.25 22.85 38.0 24.3 37.5 25.2 40.3 25.5 41.35 25.7 42.0 23.35 42.2 23.0 42.2 21.45 38.95 21.25 38.5" fill="#6889c4" fill-rule="evenodd" stroke="none"/>
      <path d="M42.85 42.15 L42.0 44.6 41.9 44.65 40.8 45.0 40.2 45.2 40.4 44.0 40.65 42.5 41.35 38.6 41.45 38.0 41.45 37.8 41.55 37.2 41.55 37.85 41.5 39.4 41.6 42.25 42.85 42.15" fill="#4068af" fill-rule="evenodd" stroke="none"/>
      <path d="M39.0 23.95 L40.1 26.5 40.1 26.75 39.8 29.1 39.8 29.05 39.55 28.0 39.4 27.55 39.2 26.65 39.15 26.4 39.1 26.25 39.05 25.7 39.0 23.95 M40.0 29.75 L40.55 30.4 41.35 38.6 40.65 42.5 40.4 44.0 39.95 42.8 40.2 41.7 40.2 41.55 40.4 39.75 40.4 39.5 40.45 38.15 40.45 37.6 Q40.4 36.55 39.75 35.05 L39.5 34.55 39.4 34.4 40.1 30.85 40.2 30.4 40.0 29.75" fill="#2c385d" fill-rule="evenodd" stroke="none"/>
      <path d="M2.0 4.75 L3.1 4.2 3.0 3.8 2.25 0.6 2.0 -0.8 1.95 -1.4 3.6 -1.4 3.6 -0.6 Q3.6 3.25 4.15 6.8 L3.1 6.9 3.25 6.15 2.0 4.75" fill="#1d1f5f" fill-rule="evenodd" stroke="none"/>
      <path d="M1.95 -1.4 L2.0 -0.8 2.25 0.6 3.0 3.8 3.1 4.2 2.0 4.75 1.45 4.15 -0.85 1.0 -1.4 -0.05 -1.75 -0.85 -1.85 -1.0 -1.9 -1.15 -1.9 -1.4 1.95 -1.4" fill="#28306d" fill-rule="evenodd" stroke="none"/>
      <path d="M3.1 6.9 L4.15 6.8 4.35 7.95 5.4 9.9 5.8 10.6 Q5.0 10.8 4.55 11.3 L3.4 8.6 2.95 7.35 3.1 6.9 M9.1 8.5 L9.3 10.0 9.4 10.65 8.3 10.55 7.2 10.45 7.35 9.4 9.05 7.95 9.1 8.5" fill="#294680" fill-rule="evenodd" stroke="none"/>
      <path d="M9.4 10.65 L9.4 11.0 9.35 11.45 8.3 15.0 7.65 16.8 7.05 18.3 6.15 17.35 6.6 16.35 7.35 14.5 7.15 14.3 6.9 14.1 5.7 12.85 5.55 12.7 4.75 11.7 4.5 11.35 4.55 11.3 Q5.0 10.8 5.8 10.6 L7.0 12.4 7.15 10.7 7.2 10.45 8.3 10.55 9.4 10.65" fill="#222351" fill-rule="evenodd" stroke="none"/>
      <path d="M2.95 7.35 L3.4 8.6 4.55 11.3 4.5 11.35 Q4.0 11.9 4.0 12.95 L4.1 13.85 2.0 13.45 1.7 13.4 2.9 7.55 2.95 7.35" fill="#3b5a9a" fill-rule="evenodd" stroke="none"/>
      <path d="M4.1 13.85 L4.0 12.95 Q4.0 11.9 4.5 11.35 L4.75 11.7 5.55 12.7 5.7 12.85 6.9 14.1 7.15 14.3 7.35 14.5 6.6 16.35 6.15 17.35 6.0 17.15 Q4.7 15.7 4.25 14.35 L4.1 13.85" fill="#2f2c5d" fill-rule="evenodd" stroke="none"/>
      <path d="M-1.9 2.95 L-1.9 2.55 1.0 5.25 -0.3 5.65 -0.75 4.8 -1.05 4.25 -1.9 2.95" fill="#c93c07" fill-rule="evenodd" stroke="none"/>
      <path d="M3.25 6.15 L3.1 6.9 2.95 7.35 2.9 7.55 1.7 13.4 Q1.5 9.65 0.1 6.5 L1.9 6.3 3.25 6.15" fill="#bb2b03" fill-rule="evenodd" stroke="none"/>
      <path d="M-1.9 -1.15 L-1.85 -1.0 -1.9 -1.0 -1.9 -1.15" fill="#aa2703" fill-rule="evenodd" stroke="none"/>
      <path d="M31.1 4.25 L33.6 4.15 33.7 4.3 32.55 7.35 32.45 7.15 32.15 6.55 31.1 4.25" fill="#f7810f" fill-rule="evenodd" stroke="none"/>
      <path d="M19.45 -0.6 L18.7 -1.4 23.4 -1.4 23.1 -0.15 19.7 -0.45 19.45 -0.6 M2.8 51.8 Q3.0 52.5 3.55 52.95 4.3 53.55 5.65 53.55 L6.0 53.55 Q6.8 53.3 8.05 52.45 L9.65 51.0 9.8 51.05 8.5 52.4 6.9 53.75 6.45 54.1 6.4 54.1 5.65 54.35 4.0 54.7 3.55 54.75 2.0 54.8 0.15 54.65 0.0 54.6 0.3 54.1 0.4 54.0 0.75 53.6 1.3 53.0 2.8 51.8" fill="#b43100" fill-rule="evenodd" stroke="none"/>
      <path d="M23.1 -0.15 L23.4 -1.4 25.7 -1.4 26.5 -0.65 26.75 -0.2 26.85 -0.05 27.05 0.35 25.75 0.15 23.1 -0.15" fill="#c64e03" fill-rule="evenodd" stroke="none"/>
      <path d="M26.85 -0.05 L26.75 -0.2 26.5 -0.65 25.7 -1.4 28.85 -1.4 30.1 -0.15 30.5 0.3 33.2 3.6 30.8 3.45 30.45 2.5 30.05 1.45 29.85 0.9 27.45 0.4 27.15 0.35 26.85 -0.05" fill="#f0b324" fill-rule="evenodd" stroke="none"/>
      <path d="M26.85 -0.05 L27.15 0.35 27.05 0.35 26.85 -0.05 M30.8 3.45 L33.2 3.6 33.6 4.15 31.1 4.25 30.8 3.45" fill="#ffd823" fill-rule="evenodd" stroke="none"/>
      <path d="M2.0 4.75 L3.25 6.15 1.9 6.3 1.0 5.25 1.35 5.15 Q0.05 3.8 -1.5 0.75 L-1.9 0.0 -1.9 -1.0 -1.8 -0.8 -1.4 -0.05 -0.85 1.0 1.45 4.15 2.0 4.75" fill="#f0700d" fill-rule="evenodd" stroke="none"/>
      <path d="M-1.9 2.55 L-1.9 0.0 -1.5 0.75 Q0.05 3.8 1.35 5.15 L1.0 5.25 1.9 6.3 0.1 6.5 -0.3 5.65 1.0 5.25 -1.9 2.55" fill="#d0600a" fill-rule="evenodd" stroke="none"/>
      <path d="M24.25 20.5 L25.15 18.9 Q25.7 17.9 26.2 17.35 L26.45 17.6 30.15 21.5 30.25 21.6 34.85 27.15 35.15 27.5 36.0 26.45 36.1 26.3 37.7 23.75 37.85 26.4 37.85 26.5 37.7 26.85 37.3 27.75 37.3 27.8 37.05 27.2 36.5 27.9 35.65 29.0 34.8 28.4 32.15 26.35 Q29.05 23.65 26.95 20.5 L25.5 21.85 24.9 21.25 24.25 20.6 24.25 20.5" fill="#15051c" fill-rule="evenodd" stroke="none"/>
      <path d="M25.5 21.85 L26.95 20.5 Q29.05 23.65 32.15 26.35 L34.8 28.4 35.65 29.0 36.5 27.9 37.05 27.2 37.3 27.8 37.05 28.3 37.05 28.35 35.8 30.7 35.8 30.75 35.8 30.85 36.05 32.5 35.15 32.65 34.25 32.75 33.75 32.85 34.15 31.0 34.05 30.9 33.55 30.4 32.8 29.6 29.85 26.45 29.75 26.4 29.25 25.85 26.95 23.3 26.0 22.35 25.85 22.2 25.5 21.85 M25.95 29.85 L26.0 29.95 25.5 30.9 25.95 29.85" fill="#291141" fill-rule="evenodd" stroke="none"/>
      <path d="M31.25 39.75 L31.75 39.75 32.6 39.75 32.1 40.85 31.55 42.15 30.2 42.0 30.75 40.8 31.25 39.75 M35.65 39.4 L37.0 38.8 37.05 38.8 37.4 41.25 36.8 41.5 36.65 41.1 36.3 40.4 36.0 39.85 35.65 39.4 M39.4 34.4 L39.5 34.55 39.75 35.05 Q40.4 36.55 40.45 37.6 L40.45 38.15 40.1 38.75 39.2 39.95 38.9 40.25 37.85 41.0 38.75 37.2 39.4 34.4" fill="#de8600" fill-rule="evenodd" stroke="none"/>
      <path d="M33.75 32.85 L34.25 32.75 35.15 32.65 36.05 32.5 36.6 36.0 33.95 36.65 32.9 36.9 32.4 37.05 32.7 36.2 33.75 32.85" fill="#37274b" fill-rule="evenodd" stroke="none"/>
      <path d="M32.4 37.05 L32.9 36.9 33.95 36.65 36.6 36.0 37.05 38.8 37.0 38.8 35.65 39.4 35.4 39.5 33.7 39.75 32.7 39.75 32.6 39.75 31.75 39.75 31.25 39.75 32.4 37.05" fill="#33355c" fill-rule="evenodd" stroke="none"/>
      <path d="M37.85 41.0 L38.9 40.25 39.2 39.95 40.1 38.75 40.45 38.15 40.4 39.5 40.4 39.75 40.2 41.55 40.2 41.7 39.95 42.8 39.8 43.05 Q39.5 43.65 37.75 44.65 L37.35 44.85 36.35 45.15 36.2 45.2 35.8 45.3 36.45 42.95 36.65 41.55 36.8 41.5 37.4 41.25 37.55 42.2 37.85 41.0 M25.5 41.35 L26.15 41.9 26.6 42.35 28.8 44.4 28.7 44.75 28.85 44.4 30.2 42.0 31.55 42.15 31.6 42.15 31.8 42.2 31.9 42.2 31.95 42.2 32.1 43.65 32.15 43.75 32.45 45.55 32.35 45.55 31.2 45.55 Q28.75 45.3 26.35 44.25 L26.0 43.05 25.7 42.0 25.5 41.35" fill="#cd4e00" fill-rule="evenodd" stroke="none"/>
      <path d="M32.6 39.75 L32.7 39.75 33.7 39.75 35.4 39.5 35.65 39.4 36.0 39.85 36.3 40.4 36.65 41.1 36.8 41.5 36.65 41.55 36.6 41.55 36.45 41.65 34.3 42.1 32.65 42.2 31.95 42.2 31.9 42.05 31.9 42.2 31.8 42.2 31.6 42.15 31.55 42.15 32.1 40.85 32.6 39.75" fill="#e9aa0c" fill-rule="evenodd" stroke="none"/>
      <path d="M32.45 45.55 L32.15 43.75 32.1 43.65 31.95 42.2 32.65 42.2 34.3 42.1 36.45 41.65 36.6 41.55 36.65 41.55 36.45 42.95 35.8 45.3 35.2 45.4 34.35 45.5 33.5 45.55 33.25 45.55 33.0 45.55 32.55 45.55 32.45 45.55" fill="#d75e00" fill-rule="evenodd" stroke="none"/>
      <path d="M31.95 42.2 L31.9 42.2 31.9 42.05 31.95 42.2" fill="#e9d60c" fill-rule="evenodd" stroke="none"/>
      <path d="M4.15 6.8 Q3.6 3.25 3.6 -0.6 L3.6 -1.4 5.8 -1.4 5.75 -1.3 5.65 1.35 6.0 4.05 6.15 4.85 6.05 4.85 6.0 5.95 6.05 6.75 6.55 10.4 6.55 10.5 7.0 12.4 5.8 10.6 5.4 9.9 4.35 7.95 4.15 6.8" fill="#365793" fill-rule="evenodd" stroke="none"/>
      <path d="M6.85 4.85 L6.55 3.15 6.2 -0.05 6.2 -0.3 6.6 -1.4 10.75 -1.4 10.75 -1.3 10.8 -0.25 10.8 -0.2 10.85 0.0 10.85 0.1 10.85 0.15 10.75 0.25 10.6 0.45 9.5 2.1 Q8.5 3.65 7.95 4.95 L6.85 4.85" fill="#5171aa" fill-rule="evenodd" stroke="none"/>
      <path d="M6.15 4.85 L6.0 4.05 5.65 1.35 5.75 -1.3 5.8 -1.4 6.6 -1.4 6.2 -0.3 6.2 -0.05 6.55 3.15 6.85 4.85 6.45 4.85 6.15 4.85" fill="#6a8ac4" fill-rule="evenodd" stroke="none"/>
      <path d="M6.15 4.85 L6.45 4.85 6.85 4.85 7.95 4.95 8.15 4.95 8.9 6.7 8.9 6.75 9.3 8.05 9.2 8.25 9.1 8.5 9.05 7.95 7.35 9.4 7.2 10.45 7.15 10.7 7.0 12.4 6.55 10.5 6.55 10.4 6.05 6.75 6.0 5.95 6.05 4.85 6.15 4.85" fill="#2a336b" fill-rule="evenodd" stroke="none"/>
      <path d="M10.85 0.0 L10.8 -0.2 10.8 -0.25 10.75 -1.3 10.75 -1.4 14.85 -1.4 14.3 -1.2 14.1 -1.1 12.65 -0.55 10.85 0.0" fill="#374180" fill-rule="evenodd" stroke="none"/>
      <path d="M10.85 0.0 L12.65 -0.55 14.1 -1.1 14.3 -1.2 14.85 -1.4 18.7 -1.4 19.45 -0.6 18.6 0.15 16.85 1.9 15.8 3.0 15.7 3.1 15.7 3.15 13.1 1.85 12.6 1.55 12.5 1.45 12.1 1.2 11.1 0.3 10.9 0.15 10.85 0.1 10.85 0.0" fill="#495e9c" fill-rule="evenodd" stroke="none"/>
      <path d="M19.45 -0.6 L19.7 -0.45 23.1 -0.15 25.75 0.15 27.05 0.35 27.15 0.35 27.45 0.4 29.85 0.9 30.05 1.45 28.05 1.3 27.8 1.3 27.45 1.3 23.35 1.75 22.85 1.9 22.45 2.15 21.4 3.1 Q20.65 3.85 20.3 4.8 L20.15 5.2 20.75 5.25 21.4 5.3 21.35 5.9 21.3 6.0 20.95 7.15 20.3 7.0 19.8 6.95 15.8 6.55 15.65 5.0 Q15.65 3.75 15.8 3.0 L16.85 1.9 18.6 0.15 19.45 -0.6 M22.75 5.8 L22.75 6.3 22.45 6.35 22.05 6.45 22.1 6.0 22.75 5.8" fill="#7b9dcd" fill-rule="evenodd" stroke="none"/>
      <path d="M32.55 7.35 L35.35 11.4 35.95 12.15 36.15 12.4 36.55 12.6 35.45 13.3 35.05 13.5 33.25 14.3 31.55 14.55 29.85 14.35 29.65 14.3 28.65 13.95 28.6 13.9 28.4 13.8 27.1 13.4 26.1 13.05 26.0 13.0 24.75 12.35 24.55 10.9 Q24.55 10.1 24.85 9.4 L25.4 9.45 26.2 9.55 26.7 8.45 26.3 7.6 27.6 6.9 28.8 6.5 30.55 6.35 32.15 6.55 32.45 7.15 32.55 7.35 M33.55 11.5 L33.8 12.05 34.45 12.25 Q34.85 12.25 34.85 11.9 34.85 11.6 34.45 11.35 L33.7 11.1 33.55 11.3 33.55 11.5 M28.1 8.15 L28.05 7.95 27.55 7.95 27.55 8.0 27.55 8.35 27.5 8.6 27.65 8.6 28.1 8.5 28.1 8.15" fill="#b7d9ff" fill-rule="evenodd" stroke="none"/>
      <path d="M30.05 1.45 L30.45 2.5 30.8 3.45 31.1 4.25 32.15 6.55 30.55 6.35 28.8 6.5 27.6 6.9 26.3 7.6 26.7 8.45 26.2 9.55 25.4 9.45 24.85 9.4 Q24.55 10.1 24.55 10.9 L24.75 12.35 23.45 11.3 22.85 10.4 23.1 9.55 23.5 8.6 23.95 7.9 22.75 7.55 20.95 7.15 21.3 6.0 21.35 5.9 21.4 5.3 20.75 5.25 20.15 5.2 20.3 4.8 Q20.65 3.85 21.4 3.1 L22.45 2.15 22.85 1.9 23.35 1.75 27.45 1.3 27.8 1.3 28.05 1.3 30.05 1.45 M22.75 5.8 L22.1 6.0 22.05 6.45 22.45 6.35 22.75 6.3 22.75 5.8 M28.1 8.15 L28.1 8.5 27.65 8.6 27.5 8.6 27.55 8.35 27.55 8.0 27.55 7.95 28.05 7.95 28.1 8.15" fill="#9fbce6" fill-rule="evenodd" stroke="none"/>
      <path d="M33.55 11.5 L33.55 11.3 33.7 11.1 34.45 11.35 Q34.85 11.6 34.85 11.9 34.85 12.25 34.45 12.25 L33.8 12.05 33.55 11.5" fill="#deedff" fill-rule="evenodd" stroke="none"/>
      <path d="M20.95 7.15 L20.7 7.6 20.7 7.8 19.75 7.6 16.85 7.25 15.9 7.2 15.85 7.2 15.8 7.3 15.75 7.6 15.65 8.25 15.6 8.3 15.55 8.9 14.75 7.7 14.8 7.4 14.8 7.2 14.9 6.5 15.8 6.55 19.8 6.95 20.3 7.0 20.95 7.15" fill="#4d7abb" fill-rule="evenodd" stroke="none"/>
      <path d="M20.95 7.15 L22.75 7.55 23.95 7.9 23.5 8.6 23.1 9.55 22.85 10.4 23.45 11.3 24.75 12.35 25.2 13.4 25.25 13.55 24.95 13.4 24.35 13.15 23.25 12.5 22.7 12.0 Q22.1 11.35 22.1 10.65 22.1 9.95 22.4 9.3 L22.45 9.15 23.0 8.5 21.4 7.95 21.15 7.9 20.7 7.8 20.7 7.6 20.95 7.15" fill="#6393d9" fill-rule="evenodd" stroke="none"/>
      <path d="M21.15 8.2 L20.75 8.6 20.6 8.75 20.15 9.2 19.4 10.05 18.35 11.35 17.8 11.05 17.3 9.75 Q16.9 8.55 16.85 7.85 L17.0 7.85 19.8 8.05 20.7 8.15 21.15 8.2" fill="#de961e" fill-rule="evenodd" stroke="none"/>
      <path d="M23.0 8.5 L22.45 9.15 22.4 9.3 Q22.1 9.95 22.1 10.65 22.1 11.35 22.7 12.0 L22.4 12.45 21.75 13.4 21.2 14.25 21.0 14.55 20.6 15.25 20.55 15.35 20.3 15.7 19.95 16.35 20.5 15.05 20.6 14.75 20.55 14.35 20.55 14.2 20.45 13.75 20.35 13.45 19.65 12.25 19.15 11.85 18.55 11.45 18.35 11.35 19.4 10.05 20.15 9.2 20.6 8.75 20.75 8.6 21.15 8.2 23.0 8.5" fill="#eaa820" fill-rule="evenodd" stroke="none"/>
      <path d="M20.7 7.8 L21.15 7.9 21.4 7.95 23.0 8.5 21.15 8.2 20.7 8.15 19.8 8.05 17.0 7.85 16.85 7.85 Q16.9 8.55 17.3 9.75 L17.8 11.05 18.35 11.35 18.1 11.6 18.05 11.7 17.9 11.9 17.85 11.9 17.75 11.65 Q16.45 9.3 15.95 7.8 L15.95 7.65 15.8 7.3 15.85 7.2 15.9 7.2 16.85 7.25 19.75 7.6 20.7 7.8" fill="#ffc22c" fill-rule="evenodd" stroke="none"/>
      <path d="M24.75 12.35 L26.0 13.0 26.1 13.05 27.1 13.4 28.4 13.8 28.6 13.9 28.65 13.95 29.8 14.55 30.05 14.7 31.6 15.6 30.85 16.0 28.2 14.6 27.0 14.2 26.75 14.1 25.85 13.8 25.25 13.55 25.2 13.4 24.75 12.35" fill="#5ea2ee" fill-rule="evenodd" stroke="none"/>
      <path d="M36.55 12.6 L39.05 13.9 Q38.8 14.5 37.75 15.5 L37.6 15.6 Q36.0 16.95 33.95 17.3 L33.1 16.65 31.95 15.85 31.6 15.6 30.05 14.7 29.8 14.55 28.65 13.95 29.65 14.3 29.85 14.35 31.55 14.55 33.25 14.3 35.05 13.5 35.45 13.3 36.55 12.6" fill="#acc3ec" fill-rule="evenodd" stroke="none"/>
      <path d="M24.35 13.15 L24.95 13.4 25.25 13.55 25.85 13.8 26.75 14.1 27.0 14.2 28.2 14.6 30.85 16.0 30.9 16.05 31.45 16.35 31.4 16.4 31.2 17.05 31.1 17.35 31.45 17.95 31.1 18.5 30.7 19.05 30.5 19.9 30.5 20.1 30.15 19.75 26.05 16.0 24.8 16.6 24.8 16.65 24.65 15.45 24.55 14.45 24.4 13.4 24.35 13.15 M31.9 19.55 L32.0 19.85 31.7 20.0 31.45 20.0 31.2 20.0 31.3 19.5 31.4 19.2 31.45 18.95 31.9 19.55" fill="#febd23" fill-rule="evenodd" stroke="none"/>
      <path d="M26.45 17.6 L26.2 17.35 Q25.7 17.9 25.15 18.9 L24.25 20.5 23.35 20.5 22.65 20.5 22.55 20.5 22.55 20.45 22.35 20.3 23.35 18.75 24.8 16.65 25.9 17.15 26.45 17.45 26.45 17.6" fill="#da7500" fill-rule="evenodd" stroke="none"/>
      <path d="M22.7 12.0 L23.25 12.5 24.35 13.15 24.4 13.4 24.55 14.45 24.65 15.45 24.8 16.65 23.35 18.75 22.35 20.3 22.55 20.45 21.8 20.2 21.3 20.0 19.0 19.0 19.0 18.95 19.9 16.45 19.95 16.35 20.3 15.7 20.55 15.35 20.6 15.25 21.0 14.55 21.2 14.25 21.75 13.4 22.4 12.45 22.7 12.0" fill="#edb021" fill-rule="evenodd" stroke="none"/>
      <path d="M24.25 20.5 L24.25 20.6 24.9 21.25 25.5 21.85 25.85 22.2 26.0 22.35 26.95 23.3 25.4 23.65 25.25 23.7 25.1 23.8 24.5 22.9 22.75 20.7 22.65 20.6 22.55 20.5 22.65 20.5 23.35 20.5 24.25 20.5" fill="#ffd415" fill-rule="evenodd" stroke="none"/>
      <path d="M22.55 20.45 L22.55 20.5 22.65 20.6 21.7 22.25 21.35 22.85 21.25 23.05 21.0 23.6 20.7 23.45 Q19.55 22.75 18.55 22.35 L18.6 22.0 18.8 20.3 18.9 19.4 18.95 18.95 19.0 19.0 21.3 20.0 21.8 20.2 22.55 20.45" fill="#f0b126" fill-rule="evenodd" stroke="none"/>
      <path d="M23.5 56.35 L18.8 56.35 16.35 53.9 16.15 53.35 16.35 53.0 16.75 52.6 17.25 52.55 Q18.5 52.55 19.6 53.15 19.1 53.65 19.1 54.15 19.1 54.8 19.65 55.5 L20.35 56.15 22.85 55.6 23.45 55.5 23.5 56.35 M22.65 20.6 L22.75 20.7 24.5 22.9 25.1 23.8 25.15 23.8 25.25 24.0 25.75 24.7 26.3 25.55 27.1 26.75 27.75 27.65 28.25 28.5 29.55 30.9 29.25 31.0 28.9 31.1 28.1 31.35 27.5 31.55 24.9 32.35 24.7 32.4 25.5 30.95 25.5 30.9 26.0 29.95 25.95 29.85 24.25 28.1 23.9 26.95 23.8 26.75 23.1 24.75 23.0 24.5 21.0 23.6 21.25 23.05 21.35 22.85 21.7 22.25 22.65 20.6" fill="#fdb320" fill-rule="evenodd" stroke="none"/>
      <path d="M20.6 24.45 L20.0 24.4 19.55 24.35 18.5 24.5 17.0 23.65 17.05 22.25 17.25 21.8 18.2 19.65 18.55 18.9 18.6 18.8 19.2 17.7 19.0 18.65 18.95 18.9 18.95 18.95 18.9 19.4 18.8 20.3 18.6 22.0 18.55 22.35 Q19.55 22.75 20.7 23.45 L21.0 23.6 20.9 23.85 20.7 24.25 20.6 24.45" fill="#e58510" fill-rule="evenodd" stroke="none"/>
      <path d="M21.0 23.6 L23.0 24.5 23.1 24.75 23.8 26.75 23.9 26.95 24.25 28.1 23.85 27.7 23.15 27.0 22.65 26.5 22.35 26.25 20.6 24.45 20.7 24.25 20.9 23.85 21.0 23.6" fill="#f58f14" fill-rule="evenodd" stroke="none"/>
      <path d="M25.1 23.8 L25.25 23.7 25.4 23.65 26.95 23.3 29.25 25.85 29.75 26.4 29.0 26.05 Q27.6 25.55 26.45 25.55 L26.25 25.3 25.75 24.7 25.25 24.0 25.15 23.8 25.1 23.8" fill="#ffd91c" fill-rule="evenodd" stroke="none"/>
      <path d="M39.85 14.4 L40.35 14.65 39.85 15.85 39.3 17.15 38.85 18.3 38.6 18.9 37.95 20.2 37.95 20.25 37.7 20.65 37.45 21.05 35.05 19.05 35.55 18.45 37.25 19.7 37.85 18.75 38.75 16.95 39.85 14.4" fill="#5e88c6" fill-rule="evenodd" stroke="none"/>
      <path d="M39.05 13.9 L39.85 14.4 38.75 16.95 37.85 18.75 37.25 19.7 35.55 18.45 33.95 17.3 Q36.0 16.95 37.6 15.6 L37.75 15.5 Q38.8 14.5 39.05 13.9" fill="#99b1d5" fill-rule="evenodd" stroke="none"/>
      <path d="M39.05 21.45 L38.95 21.6 38.95 21.65 38.85 21.8 38.55 22.35 38.35 22.7 38.1 23.15 37.9 23.4 37.9 22.9 37.75 21.1 37.7 20.65 37.95 20.25 37.95 20.2 38.6 18.9 38.85 18.3 39.3 17.15 39.85 15.85 39.2 21.15 39.05 21.45" fill="#ffc521" fill-rule="evenodd" stroke="none"/>
      <path d="M30.5 20.1 L30.5 19.9 30.7 19.05 31.1 18.5 31.45 17.95 31.1 17.35 31.2 17.05 31.4 16.4 31.45 16.35 31.55 16.45 32.0 16.7 32.65 17.35 32.85 17.6 33.75 18.65 Q35.5 20.7 36.1 21.85 L35.95 22.85 35.75 23.75 35.4 25.5 31.65 21.35 30.5 20.1 M35.9 25.3 Q35.9 23.65 36.35 22.95 L36.45 22.75 Q36.65 22.45 36.95 22.35 L37.75 21.1 37.9 22.9 37.6 23.2 35.9 25.3 M31.9 19.55 L31.45 18.95 31.4 19.2 31.3 19.5 31.2 20.0 31.45 20.0 31.7 20.0 32.0 19.85 31.9 19.55" fill="#ffda1d" fill-rule="evenodd" stroke="none"/>
      <path d="M31.45 16.35 L30.9 16.05 30.85 16.0 31.6 15.6 31.95 15.85 33.1 16.65 33.95 17.3 35.55 18.45 35.05 19.05 34.65 18.7 33.15 17.5 32.9 17.35 32.0 16.7 31.55 16.45 31.45 16.35" fill="#6e97e2" fill-rule="evenodd" stroke="none"/>
      <path d="M32.0 16.7 L32.9 17.35 33.15 17.5 34.65 18.7 35.05 19.05 37.45 21.05 37.7 20.65 37.75 21.1 36.95 22.35 Q36.65 22.45 36.45 22.75 L36.35 22.95 Q35.9 23.65 35.9 25.3 L35.55 25.7 35.4 25.5 35.75 23.75 35.95 22.85 36.1 21.85 Q35.5 20.7 33.75 18.65 L32.85 17.6 32.65 17.35 32.0 16.7 M36.05 21.15 Q36.05 21.8 36.55 21.85 L37.0 21.4 36.75 20.95 36.4 20.8 36.2 20.75 36.2 20.8 36.1 20.95 36.05 21.15" fill="#f8ff6d" fill-rule="evenodd" stroke="none"/>
      <path d="M37.7 23.75 L36.1 26.3 36.0 26.45 35.9 25.35 35.9 25.3 37.6 23.2 37.9 22.9 37.9 23.4 37.75 23.65 37.7 23.75 M34.85 27.15 L30.25 21.6 30.5 20.1 31.65 21.35 35.4 25.5 34.85 27.15" fill="#ecab08" fill-rule="evenodd" stroke="none"/>
      <path d="M36.05 21.15 L36.1 20.95 36.2 20.8 36.2 20.75 36.4 20.8 36.75 20.95 37.0 21.4 36.55 21.85 Q36.05 21.8 36.05 21.15" fill="#fcffd0" fill-rule="evenodd" stroke="none"/>
      <path d="M39.0 23.05 L39.0 23.95 39.05 25.7 39.1 26.25 38.7 26.3 38.3 26.35 37.85 26.4 37.7 23.75 37.75 23.65 37.9 23.4 38.1 23.15 38.35 22.7 38.55 22.35 38.85 21.8 38.95 21.65 38.95 21.7 39.0 23.05" fill="#d96205" fill-rule="evenodd" stroke="none"/>
      <path d="M7.95 4.95 Q8.5 3.65 9.5 2.1 L10.6 0.45 10.75 0.25 10.85 0.15 10.85 0.1 10.9 0.15 11.0 0.35 Q11.35 1.55 12.05 2.95 L13.65 5.55 12.45 7.05 Q10.85 9.05 9.85 10.7 L9.35 11.45 9.4 11.0 9.4 10.65 9.3 10.0 9.1 8.5 9.2 8.25 9.3 8.05 8.9 6.75 8.9 6.7 8.15 4.95 7.95 4.95" fill="#6484bd" fill-rule="evenodd" stroke="none"/>
      <path d="M9.35 11.45 L9.85 10.7 Q10.85 9.05 12.45 7.05 L13.65 5.55 14.1 6.55 14.55 7.35 14.75 7.7 14.6 11.25 14.6 12.1 14.7 15.0 15.7 14.9 Q16.6 14.9 16.85 15.55 L17.0 16.7 16.9 17.35 16.8 18.05 16.75 18.55 13.6 17.55 13.4 17.5 Q10.3 16.45 8.3 15.0 L9.35 11.45" fill="#6782b6" fill-rule="evenodd" stroke="none"/>
      <path d="M14.75 7.7 L15.55 8.9 Q15.35 10.05 15.3 11.35 L15.25 13.05 15.3 13.6 15.35 14.0 15.5 13.85 16.35 13.55 16.5 13.55 16.55 13.55 16.7 13.6 Q17.4 13.65 17.85 14.45 18.2 15.25 17.75 16.7 L17.55 17.6 17.45 18.3 17.4 18.65 17.35 18.65 16.75 18.55 16.8 18.05 16.9 17.35 17.0 16.7 16.85 15.55 Q16.6 14.9 15.7 14.9 L14.7 15.0 14.6 12.1 14.6 11.25 14.75 7.7" fill="#4968a3" fill-rule="evenodd" stroke="none"/>
      <path d="M15.55 8.9 L15.6 8.3 15.65 8.25 15.75 7.6 15.8 7.3 15.95 7.65 15.95 7.8 Q16.45 9.3 17.75 11.65 L17.85 11.9 17.9 11.9 17.85 12.05 16.75 13.55 16.7 13.6 16.55 13.55 16.5 13.55 16.35 13.55 15.5 13.85 15.35 14.0 15.3 13.6 15.25 13.05 15.3 11.35 Q15.35 10.05 15.55 8.9" fill="#db720c" fill-rule="evenodd" stroke="none"/>
      <path d="M19.2 17.7 L18.6 18.8 18.55 18.9 18.2 19.65 17.25 21.8 17.05 22.25 17.4 18.75 17.4 18.65 17.45 18.3 17.55 17.6 17.75 16.7 Q18.2 15.25 17.85 14.45 17.4 13.65 16.7 13.6 L16.75 13.55 17.85 12.05 17.9 11.9 18.15 11.9 Q19.1 12.05 19.55 12.75 L19.95 13.45 20.1 14.1 20.15 14.7 19.95 15.35 19.6 16.2 19.2 17.7" fill="#e2810c" fill-rule="evenodd" stroke="none"/>
      <path d="M7.65 16.8 L8.3 15.0 Q10.3 16.45 13.4 17.5 L13.6 17.55 16.75 18.55 16.6 20.1 16.5 23.3 13.0 21.0 12.65 20.75 7.65 16.8" fill="#5f7aaa" fill-rule="evenodd" stroke="none"/>
      <path d="M17.05 22.25 L17.0 23.65 16.95 24.1 17.3 24.45 17.05 25.1 16.6 24.9 14.75 23.95 Q13.5 23.3 12.3 22.45 L12.05 22.3 9.3 20.3 7.8 19.0 7.05 18.3 7.65 16.8 12.65 20.75 13.0 21.0 16.5 23.3 16.6 20.1 16.75 18.55 17.35 18.65 17.4 18.65 17.4 18.75 17.05 22.25" fill="#3d5b91" fill-rule="evenodd" stroke="none"/>
      <path d="M18.95 18.95 L18.95 18.9 19.0 18.65 19.2 17.7 19.9 16.45 19.0 18.95 19.0 19.0 18.95 18.95" fill="#ffc02c" fill-rule="evenodd" stroke="none"/>
      <path d="M17.0 23.65 L18.5 24.5 18.45 24.5 17.6 24.75 17.3 24.45 16.95 24.1 17.0 23.65" fill="#d44905" fill-rule="evenodd" stroke="none"/>
      <path d="M24.25 28.1 L25.95 29.85 25.5 30.9 25.5 30.95 24.7 32.4 24.65 32.4 24.8 32.5 24.4 33.4 23.7 32.95 24.25 30.6 24.4 29.9 22.65 27.75 21.4 26.65 21.0 26.35 23.3 31.85 23.4 32.15 23.7 32.95 23.95 33.6 24.1 34.05 23.9 34.4 23.75 34.75 23.5 35.2 23.2 34.4 21.75 30.7 19.7 26.25 19.65 26.15 19.55 26.1 17.05 25.1 17.3 24.45 17.6 24.75 18.45 24.5 18.5 24.5 19.55 24.35 20.0 24.4 20.6 24.45 22.35 26.25 22.65 26.5 23.15 27.0 23.85 27.7 24.25 28.1" fill="#4461a1" fill-rule="evenodd" stroke="none"/>
      <path d="M38.7 26.3 L39.1 26.25 39.15 26.4 39.2 26.65 39.4 27.55 39.55 28.0 39.0 28.0 38.95 27.6 38.7 26.3 M37.05 28.35 L37.5 28.25 38.4 28.1 39.0 28.0 39.2 29.95 38.5 30.15 38.4 30.15 37.45 30.35 35.8 30.75 35.8 30.7 37.05 28.35" fill="#fcd518" fill-rule="evenodd" stroke="none"/>
      <path d="M37.3 27.8 L37.3 27.75 37.7 26.85 37.85 26.5 37.85 26.4 38.3 26.35 38.7 26.3 38.95 27.6 39.0 28.0 38.4 28.1 37.5 28.25 37.05 28.35 37.05 28.3 37.3 27.8" fill="#ecaa06" fill-rule="evenodd" stroke="none"/>
      <path d="M36.0 26.45 L35.15 27.5 34.85 27.15 35.4 25.5 35.55 25.7 35.9 25.3 35.9 25.35 36.0 26.45" fill="#ffbd19" fill-rule="evenodd" stroke="none"/>
      <path d="M39.8 29.1 L40.0 29.75 40.2 30.4 40.1 30.85 38.55 30.95 38.05 30.95 35.8 30.85 35.8 30.75 37.45 30.35 38.4 30.15 38.5 30.15 39.2 29.95 39.0 28.0 39.55 28.0 39.8 29.05 39.8 29.1" fill="#fff34d" fill-rule="evenodd" stroke="none"/>
      <path d="M33.55 30.4 L31.85 30.2 30.3 29.75 30.05 29.7 27.25 26.5 26.45 25.55 Q27.6 25.55 29.0 26.05 L29.75 26.4 29.85 26.45 32.8 29.6 33.55 30.4" fill="#fdda26" fill-rule="evenodd" stroke="none"/>
      <path d="M29.55 30.9 L28.25 28.5 27.75 27.65 27.1 26.75 26.3 25.55 25.75 24.7 26.25 25.3 26.45 25.55 27.25 26.5 30.05 29.7 30.3 29.75 31.85 30.2 33.55 30.4 34.05 30.9 34.15 31.0 32.3 30.9 29.6 30.95 29.6 31.05 29.55 30.9" fill="#fffc38" fill-rule="evenodd" stroke="none"/>
      <path d="M34.15 31.0 L33.75 32.85 32.7 36.2 31.55 35.95 29.7 34.95 29.7 34.65 29.7 33.3 29.7 33.15 29.6 31.05 29.6 30.95 32.3 30.9 34.15 31.0" fill="#ec9c02" fill-rule="evenodd" stroke="none"/>
      <path d="M29.7 34.95 L31.55 35.95 32.7 36.2 32.4 37.05 31.25 39.75 30.75 40.8 30.2 42.0 28.85 44.4 28.8 44.4 29.3 41.85 29.6 39.45 29.7 37.55 29.7 36.1 29.7 34.95 M28.8 44.4 L28.85 44.4 28.7 44.75 28.8 44.4" fill="#eeaa00" fill-rule="evenodd" stroke="none"/>
      <path d="M44.8 48.8 L45.45 50.15 45.55 50.3 45.75 50.7 45.8 50.8 46.6 52.3 46.75 52.55 45.7 53.25 45.1 53.6 44.85 53.75 44.6 53.9 43.55 54.25 43.1 54.45 41.7 54.95 41.25 55.05 40.9 55.1 39.5 55.3 38.5 55.45 37.75 55.55 36.6 55.65 36.75 54.7 37.05 52.8 37.1 52.45 37.25 52.05 37.55 50.4 41.6 49.8 44.8 48.8 M35.8 30.85 L38.05 30.95 38.55 30.95 40.1 30.85 39.4 34.4 38.75 37.2 37.85 41.0 37.55 42.2 37.4 41.25 37.05 38.8 36.6 36.0 36.05 32.5 35.8 30.85" fill="#e78f08" fill-rule="evenodd" stroke="none"/>
      <path d="M24.1 34.05 L23.95 33.6 23.7 32.95 23.4 32.15 23.3 31.85 21.0 26.35 21.4 26.65 22.65 27.75 24.4 29.9 24.25 30.6 23.7 32.95 24.4 33.4 24.3 33.6 24.1 34.05" fill="#6788b6" fill-rule="evenodd" stroke="none"/>
      <path d="M23.5 35.2 L23.75 34.75 23.9 34.4 24.1 34.05 25.4 37.9 25.8 39.3 26.45 39.05 26.45 38.45 26.45 38.1 26.4 36.75 26.3 34.95 25.1 33.95 24.7 33.6 24.4 33.4 24.8 32.5 25.7 33.15 25.85 33.25 26.25 33.55 27.1 34.3 27.15 34.65 27.45 37.95 27.45 38.85 27.45 39.05 27.35 40.55 26.1 40.45 25.3 40.3 25.2 40.3 24.3 37.5 23.5 35.2" fill="#506c9f" fill-rule="evenodd" stroke="none"/>
      <path d="M24.1 34.05 L24.3 33.6 24.4 33.4 24.7 33.6 25.1 33.95 26.3 34.95 26.4 36.75 26.45 38.1 26.45 38.45 26.45 39.05 25.8 39.3 25.4 37.9 24.1 34.05" fill="#6f8daf" fill-rule="evenodd" stroke="none"/>
      <path d="M1.7 13.4 L2.0 13.45 4.1 13.85 4.25 14.35 Q4.7 15.7 6.0 17.15 L6.15 17.35 4.45 20.15 4.4 20.25 3.2 18.9 1.3 16.7 1.7 14.55 1.7 13.5 1.7 13.4" fill="#425f9c" fill-rule="evenodd" stroke="none"/>
      <path d="M6.15 17.35 L7.05 18.3 7.8 19.0 9.3 20.3 6.45 20.8 5.05 20.9 4.75 20.6 4.4 20.25 4.45 20.15 6.15 17.35" fill="#486baa" fill-rule="evenodd" stroke="none"/>
      <path d="M4.75 20.6 L5.05 20.9 5.2 21.05 5.0 20.95 4.75 20.6 M14.05 27.8 L13.95 30.3 13.85 34.25 13.45 33.55 13.25 31.75 Q13.25 29.65 14.05 27.8" fill="#c24a00" fill-rule="evenodd" stroke="none"/>
      <path d="M5.05 20.9 L6.45 20.8 9.3 20.3 12.05 22.3 12.3 22.45 Q13.5 23.3 14.75 23.95 L12.45 24.4 11.75 24.6 10.75 24.45 9.4 24.35 8.15 23.1 6.85 22.05 5.2 21.05 5.05 20.9" fill="#e58108" fill-rule="evenodd" stroke="none"/>
      <path d="M17.05 25.1 L19.55 26.1 16.85 26.7 16.5 26.8 14.15 27.5 14.3 27.2 15.35 25.55 13.6 24.9 11.75 24.6 12.45 24.4 14.75 23.95 16.6 24.9 17.05 25.1" fill="#ee8b13" fill-rule="evenodd" stroke="none"/>
      <path d="M19.55 26.1 L19.65 26.15 19.7 26.25 Q17.9 26.8 16.2 27.8 L15.75 28.05 16.05 28.45 17.05 30.0 18.95 33.25 18.6 33.6 Q17.15 31.2 15.75 29.55 L15.0 28.75 14.1 27.7 14.15 27.5 16.5 26.8 16.85 26.7 19.55 26.1" fill="#ffda2c" fill-rule="evenodd" stroke="none"/>
      <path d="M19.7 26.25 L21.75 30.7 19.55 32.65 18.95 33.25 17.05 30.0 16.05 28.45 15.75 28.05 16.2 27.8 Q17.9 26.8 19.7 26.25" fill="#f6bc2a" fill-rule="evenodd" stroke="none"/>
      <path d="M21.75 30.7 L23.2 34.4 23.5 35.2 24.3 37.5 22.85 38.0 22.0 38.25 21.9 38.3 21.25 38.5 20.85 37.45 20.65 37.05 19.55 34.5 18.95 33.25 19.55 32.65 21.75 30.7" fill="#e98c1b" fill-rule="evenodd" stroke="none"/>
      <path d="M18.6 33.6 L18.95 33.25 19.55 34.5 20.65 37.05 20.85 37.45 21.25 38.5 21.15 38.4 20.6 37.25 20.45 37.0 20.3 36.7 18.6 33.6" fill="#ffb527" fill-rule="evenodd" stroke="none"/>
      <path d="M12.4 42.5 L13.0 42.6 13.2 42.65 13.1 42.65 13.2 42.95 13.25 43.4 Q13.95 46.85 14.3 50.25 L14.3 50.55 13.65 51.1 12.95 51.55 12.95 51.6 12.1 52.1 10.1 51.15 9.8 51.05 9.65 51.0 8.05 52.45 Q6.8 53.3 6.0 53.55 L5.65 53.55 Q4.3 53.55 3.55 52.95 3.0 52.5 2.8 51.8 L2.7 51.0 2.9 49.5 Q3.4 47.75 5.15 46.25 7.5 44.25 10.45 44.25 L12.15 44.25 12.15 44.15 12.2 44.05 12.2 43.95 12.2 43.9 12.4 42.5 M8.8 45.9 L8.0 46.15 Q6.75 46.85 6.0 47.75 4.9 49.0 4.9 50.35 L5.0 51.4 5.2 51.55 5.95 51.7 Q7.95 51.7 10.2 49.55 L10.55 49.75 11.6 50.2 11.9 49.9 12.95 48.95 12.85 48.25 12.6 47.1 12.15 45.15 12.1 45.15 Q11.0 45.2 8.8 45.9" fill="#212870" fill-rule="evenodd" stroke="none"/>
      <path d="M24.25 44.9 L23.05 42.35 23.0 42.25 23.0 42.2 23.35 42.2 25.7 42.0 26.0 43.05 26.35 44.25 26.7 45.65 24.8 45.1 24.25 44.9" fill="#3d66af" fill-rule="evenodd" stroke="none"/>
      <path d="M-1.9 53.9 L-1.9 48.5 -0.85 48.4 1.2 48.8 Q1.9 49.0 2.65 49.35 L2.9 49.5 2.7 51.0 2.8 51.8 1.3 53.0 0.75 53.6 0.4 54.0 0.3 54.1 0.0 54.6 -1.9 53.9" fill="#b83200" fill-rule="evenodd" stroke="none"/>
      <path d="M42.9 44.3 Q45.0 43.5 46.55 42.55 L48.0 42.9 51.4 43.7 48.9 45.9 Q47.75 46.8 46.6 47.5 L46.3 47.2 44.55 45.55 42.9 44.3 M13.2 42.65 L19.2 41.6 21.85 43.7 Q22.95 44.4 24.25 44.9 L24.8 45.1 24.5 45.45 24.45 45.45 22.75 48.0 21.75 47.65 20.05 47.0 19.1 46.6 Q15.5 44.95 13.2 42.95 L13.1 42.65 13.2 42.65" fill="#faa71d" fill-rule="evenodd" stroke="none"/>
      <path d="M42.0 44.6 L42.9 44.3 44.55 45.55 46.3 47.2 46.6 47.5 46.7 47.6 Q46.4 47.75 46.15 47.85 L46.0 47.85 45.2 48.15 40.2 49.3 39.3 49.4 38.55 49.4 39.0 48.6 39.2 48.3 39.6 47.65 39.2 47.4 38.15 46.7 40.15 45.35 40.8 45.0 41.9 44.65 42.0 44.6 M32.1 49.65 L32.25 49.15 33.0 46.25 35.35 46.05 35.8 46.0 36.3 46.3 36.4 46.35 38.05 47.5 37.8 48.05 36.9 49.45 33.7 49.65 32.1 49.65" fill="#ffd71e" fill-rule="evenodd" stroke="none"/>
      <path d="M40.2 45.2 L40.8 45.0 40.15 45.35 38.15 46.7 39.2 47.4 39.6 47.65 39.2 48.3 39.0 48.6 38.55 49.4 39.3 49.4 40.2 49.3 45.2 48.15 46.0 47.85 46.15 47.85 Q46.4 47.75 46.7 47.6 L46.85 47.8 46.0 48.3 44.8 48.8 41.6 49.8 37.55 50.4 36.5 50.5 31.85 50.55 32.05 49.75 32.1 49.65 33.7 49.65 36.9 49.45 37.8 48.05 38.05 47.5 36.4 46.35 36.3 46.3 35.8 46.0 36.7 45.9 40.2 45.2" fill="#fffd3a" fill-rule="evenodd" stroke="none"/>
      <path d="M13.25 43.4 L13.2 42.95 Q15.5 44.95 19.1 46.6 L20.05 47.0 21.75 47.65 22.75 48.0 22.4 48.65 21.5 48.3 19.55 47.5 19.3 47.4 Q15.7 45.65 13.25 43.4" fill="#ffe73a" fill-rule="evenodd" stroke="none"/>
      <path d="M22.75 48.0 L24.45 45.45 24.5 45.45 24.8 45.1 26.7 45.65 32.05 46.25 33.0 46.25 32.25 49.15 32.1 49.65 28.45 49.3 27.45 49.15 26.0 48.9 22.75 48.0" fill="#ffc233" fill-rule="evenodd" stroke="none"/>
      <path d="M21.5 48.3 L22.4 48.65 26.45 49.9 27.65 50.15 28.7 50.3 28.8 51.95 28.9 52.75 29.05 53.9 29.25 55.25 29.2 55.25 28.9 55.2 27.95 55.05 24.0 54.0 23.45 53.8 20.5 52.55 20.95 50.55 21.15 49.65 21.5 48.3" fill="#d96b00" fill-rule="evenodd" stroke="none"/>
      <path d="M39.8 56.35 L38.1 56.35 38.05 56.3 37.95 56.3 37.35 56.35 32.25 56.35 32.6 55.65 35.1 55.7 36.6 55.65 37.75 55.55 38.5 55.45 39.5 55.3 39.9 55.95 39.8 56.35" fill="#539de9" fill-rule="evenodd" stroke="none"/>
      <path d="M31.6 56.35 L27.65 56.35 28.0 55.8 31.6 56.35" fill="#9ac2f3" fill-rule="evenodd" stroke="none"/>
      <path d="M44.0 56.35 L39.8 56.35 39.9 55.95 39.5 55.3 40.9 55.1 41.25 55.05 41.7 54.95 43.1 54.45 43.5 55.3 44.0 56.35" fill="#d45d00" fill-rule="evenodd" stroke="none"/>
      <path d="M32.25 56.35 L31.6 56.35 28.0 55.8 Q28.35 55.2 28.8 55.2 L28.9 55.2 29.2 55.25 29.25 55.25 32.6 55.65 32.25 56.35" fill="#5195de" fill-rule="evenodd" stroke="none"/>
      <path d="M28.9 55.2 L28.8 55.2 Q28.35 55.2 28.0 55.8 L27.45 55.7 25.85 55.3 24.0 54.8 23.5 54.65 23.95 54.0 24.0 54.0 27.95 55.05 28.9 55.2" fill="#4878d0" fill-rule="evenodd" stroke="none"/>
      <path d="M24.0 54.0 L23.95 54.0 23.5 54.65 Q22.2 54.25 20.95 53.5 L20.8 53.6 20.6 53.8 20.4 54.35 Q20.45 55.0 21.2 55.25 L22.4 55.15 23.1 55.15 22.85 55.6 20.35 56.15 19.65 55.5 Q19.1 54.8 19.1 54.15 19.1 53.65 19.6 53.15 L19.95 52.75 20.3 52.5 20.35 52.5 20.5 52.55 23.45 53.8 24.0 54.0" fill="#4c86c2" fill-rule="evenodd" stroke="none"/>
      <path d="M23.1 55.15 L22.4 55.15 21.2 55.25 Q20.45 55.0 20.4 54.35 L20.6 53.8 20.8 53.6 20.95 53.5 Q22.2 54.25 23.5 54.65 L23.1 55.15" fill="#75a0cd" fill-rule="evenodd" stroke="none"/>
      <path d="M27.65 56.35 L24.05 56.35 24.05 55.95 24.0 55.2 23.55 55.2 23.1 55.15 23.5 54.65 24.0 54.8 25.85 55.3 27.45 55.7 28.0 55.8 27.65 56.35" fill="#85a5e0" fill-rule="evenodd" stroke="none"/>
      <path d="M24.05 56.35 L23.5 56.35 23.45 55.5 22.85 55.6 23.1 55.15 23.55 55.2 24.0 55.2 24.05 55.95 24.05 56.35" fill="#5a83cd" fill-rule="evenodd" stroke="none"/>
      <path d="M16.75 52.6 L16.35 53.0 16.15 53.35 16.35 53.9 15.65 53.35 15.25 53.05 15.7 52.85 Q16.15 52.65 16.75 52.6" fill="#fdd620" fill-rule="evenodd" stroke="none"/>
      <path d="M18.8 56.35 L17.45 56.35 16.35 53.9 18.8 56.35 M13.65 51.1 L14.3 50.55 14.3 50.25 15.7 50.95 16.8 51.4 17.05 51.45 20.3 52.5 19.95 52.75 19.6 53.15 Q18.5 52.55 17.25 52.55 L16.75 52.6 Q16.15 52.65 15.7 52.85 L15.25 53.05 15.0 53.25 14.55 52.55 14.1 51.75 13.65 51.1" fill="#e78c02" fill-rule="evenodd" stroke="none"/>
      <path d="M17.45 56.35 L17.3 56.35 16.35 55.4 15.25 53.65 15.0 53.25 15.25 53.05 15.65 53.35 16.35 53.9 17.45 56.35" fill="#ecc613" fill-rule="evenodd" stroke="none"/>
      <path d="M12.1 52.1 L12.95 51.6 12.95 51.55 13.65 51.1 14.1 51.75 14.55 52.55 15.0 53.25 15.25 53.65 16.35 55.4 15.8 54.9 Q13.85 53.15 12.1 52.1" fill="#cd5a00" fill-rule="evenodd" stroke="none"/>
      <path d="M53.65 56.35 L50.95 56.35 Q50.45 54.45 49.55 52.85 L49.2 52.3 49.0 52.05 49.8 51.65 50.0 51.6 51.2 52.25 52.6 53.0 53.45 54.2 54.1 56.15 53.65 56.35" fill="#7498c8" fill-rule="evenodd" stroke="none"/>
      <path d="M48.4 51.3 L49.6 50.05 50.8 51.15 50.9 51.25 51.8 52.0 51.95 52.2 52.4 52.75 52.6 53.0 51.2 52.25 50.0 51.6 49.8 51.65 49.0 52.05 49.0 52.0 48.4 51.3" fill="#4d7ab6" fill-rule="evenodd" stroke="none"/>
      <path d="M54.85 56.35 L54.2 56.35 54.1 56.15 53.45 54.2 54.2 55.3 54.6 55.95 54.85 56.35" fill="#567fb8" fill-rule="evenodd" stroke="none"/>
      <path d="M54.2 56.35 L53.65 56.35 54.1 56.15 54.2 56.35" fill="#6f94c8" fill-rule="evenodd" stroke="none"/>
      <path d="M50.95 56.35 L50.0 56.35 49.95 54.55 47.9 54.45 46.95 54.35 Q46.7 54.1 46.7 53.65 L48.4 52.5 48.65 52.3 48.75 52.2 48.85 52.05 49.0 52.0 49.0 52.05 49.2 52.3 49.55 52.85 Q50.45 54.45 50.95 56.35" fill="#93b0e8" fill-rule="evenodd" stroke="none"/>
      <path d="M50.0 56.35 L49.3 56.35 49.35 55.05 48.9 55.0 45.7 54.8 45.55 54.3 45.55 54.1 45.55 54.05 45.7 53.25 46.75 52.55 47.15 52.3 48.4 51.3 49.0 52.0 48.85 52.05 48.75 52.2 48.65 52.3 48.4 52.5 46.7 53.65 Q46.7 54.1 46.95 54.35 L47.9 54.45 49.95 54.55 50.0 56.35" fill="#4e7dd7" fill-rule="evenodd" stroke="none"/>
      <path d="M49.3 56.35 L48.1 56.35 48.15 56.3 48.9 55.0 49.35 55.05 49.3 56.35" fill="#f7b91d" fill-rule="evenodd" stroke="none"/>
      <path d="M48.1 56.35 L45.05 56.35 44.75 55.5 44.5 54.8 Q44.9 54.35 45.55 54.3 L45.7 54.8 48.9 55.0 48.15 56.3 48.1 56.35" fill="#ffbf1c" fill-rule="evenodd" stroke="none"/>
      <path d="M12.2 38.2 L12.4 39.95 12.3 39.95 8.7 39.45 7.8 39.2 5.25 39.65 4.5 39.7 2.8 39.85 1.85 38.25 5.8 37.3 6.2 37.15 Q8.7 38.2 12.2 38.2" fill="#d27317" fill-rule="evenodd" stroke="none"/>
      <path d="M12.4 39.95 L12.45 41.65 12.4 42.5 12.2 43.9 12.2 43.95 12.2 44.05 8.85 43.2 4.5 42.6 4.4 42.6 2.8 39.85 2.35 39.85 1.7 38.25 1.85 38.25 2.8 39.85 4.5 39.7 5.25 39.65 7.8 39.2 8.7 39.45 12.3 39.95 12.4 39.95" fill="#ec9820" fill-rule="evenodd" stroke="none"/>
      <path d="M-1.9 44.75 L-1.9 38.65 -1.35 38.85 -0.5 39.3 Q-0.2 39.4 0.05 39.55 L0.75 39.95 1.25 39.95 2.35 39.85 3.35 43.05 3.4 43.35 3.45 43.4 3.35 43.5 0.75 45.6 0.5 45.8 -0.15 46.45 Q-0.85 45.5 -1.9 44.75" fill="#cd3800" fill-rule="evenodd" stroke="none"/>
      <path d="M2.35 39.85 L2.8 39.85 4.4 42.6 4.5 42.6 8.85 43.2 12.2 44.05 12.15 44.15 9.25 43.6 4.3 43.3 3.4 43.35 3.35 43.05 2.35 39.85" fill="#ffa72a" fill-rule="evenodd" stroke="none"/>
      <path d="M-1.9 48.5 L-1.9 48.4 -0.15 46.45 0.5 45.8 0.75 45.6 3.35 43.5 3.45 43.4 3.4 43.35 4.3 43.3 9.25 43.6 12.15 44.15 12.15 44.25 10.45 44.25 Q7.5 44.25 5.15 46.25 3.4 47.75 2.9 49.5 L2.65 49.35 Q1.9 49.0 1.2 48.8 L-0.85 48.4 -1.9 48.5" fill="#bf2900" fill-rule="evenodd" stroke="none"/>
      <path d="M17.3 56.35 L15.75 56.35 13.2 53.7 11.7 52.35 10.1 51.15 12.1 52.1 Q13.85 53.15 15.8 54.9 L16.35 55.4 17.3 56.35" fill="#ffc431" fill-rule="evenodd" stroke="none"/>
      <path d="M15.75 56.35 L5.05 56.35 5.3 55.45 5.3 55.4 5.65 54.35 6.4 54.1 6.45 54.1 6.9 53.75 8.5 52.4 9.8 51.05 10.1 51.15 11.7 52.35 13.2 53.7 15.75 56.35" fill="#eea32b" fill-rule="evenodd" stroke="none"/>
      <path d="M5.05 56.35 L-0.45 56.35 -0.45 56.25 0.15 54.65 2.0 54.8 3.55 54.75 4.0 54.7 5.65 54.35 5.3 55.4 5.3 55.45 5.05 56.35" fill="#ec8a13" fill-rule="evenodd" stroke="none"/>
      <path d="M-1.9 48.4 L-1.9 44.75 Q-0.85 45.5 -0.15 46.45 L-1.9 48.4" fill="#d05000" fill-rule="evenodd" stroke="none"/>
      <path d="M-1.9 4.9 L-1.9 2.95 -1.05 4.25 -1.9 4.9" fill="#dbfefa" fill-rule="evenodd" stroke="none"/>
      <path d="M-1.9 31.55 L-1.9 29.85 Q-0.35 29.4 0.65 28.35 1.7 27.15 1.75 25.9 L1.75 25.75 1.45 24.55 2.35 23.15 4.0 20.45 5.0 20.95 5.2 21.05 6.85 22.05 8.15 23.1 7.85 23.4 7.1 24.05 4.3 26.45 -0.05 30.05 -1.9 31.55 M-1.9 17.4 L-1.9 12.45 -1.85 12.45 0.1 13.15 -0.25 14.75 Q-0.55 15.95 -1.1 16.95 L-1.9 17.4" fill="#aaffee" fill-rule="evenodd" stroke="none"/>
      <path d="M-1.9 38.3 L-1.9 31.55 -0.05 30.05 4.3 26.45 7.1 24.05 7.85 23.4 8.15 23.1 9.4 24.35 10.75 24.45 11.75 24.6 13.6 24.9 15.35 25.55 14.3 27.2 14.15 27.5 14.1 27.7 14.05 27.8 Q13.25 29.65 13.25 31.75 L13.45 33.55 Q13.8 34.9 14.75 35.95 15.7 37.0 17.05 37.35 L15.15 37.9 12.25 38.2 12.2 38.2 Q8.7 38.2 6.2 37.15 L5.8 37.3 1.85 38.25 1.7 38.25 0.0 38.35 -1.9 38.3" fill="#a6ffeb" fill-rule="evenodd" stroke="none"/>
      <path d="M-1.9 29.85 L-1.9 17.4 -1.1 16.95 Q-0.55 15.95 -0.25 14.75 L0.1 13.15 -1.85 12.45 -1.9 12.45 -1.9 4.9 -1.05 4.25 -0.75 4.8 -0.3 5.65 0.1 6.5 Q1.5 9.65 1.7 13.4 L1.7 13.5 1.7 14.55 1.3 16.7 0.75 19.45 4.0 20.45 2.35 23.15 1.45 24.55 1.75 25.75 1.75 25.9 Q1.7 27.15 0.65 28.35 -0.35 29.4 -1.9 29.85" fill="#c6fef3" fill-rule="evenodd" stroke="none"/>
      <path d="M2.0 4.75 L3.25 6.15 3.1 6.9 2.95 7.35 2.9 7.55 1.7 13.4 M-1.9 -1.15 L-1.85 -1.0 -1.75 -0.85 -1.4 -0.05 -0.85 1.0 1.45 4.15 2.0 4.75 M33.2 3.6 L30.5 0.3 30.1 -0.15 28.85 -1.4 M33.6 4.15 L33.2 3.6 M33.6 4.15 L33.7 4.3 32.55 7.35" fill="none" stroke="#a61b00" stroke-linecap="round" stroke-linejoin="round" stroke-width="0.5"/>
      <path d="M48.75 37.5 Q48.55 37.6 48.3 37.8 L46.25 39.05 46.3 38.95 46.8 36.2 46.6 34.6 M49.65 37.45 L49.2 37.2 48.75 37.5 M55.85 44.45 L54.8 42.7 M4.0 20.45 L5.0 20.95 5.2 21.05 6.85 22.05 8.15 23.1 9.4 24.35 10.75 24.45 11.75 24.6 13.6 24.9 15.35 25.55 14.3 27.2 14.15 27.5 14.1 27.7 14.05 27.8 Q13.25 29.65 13.25 31.75 L13.45 33.55 Q13.8 34.9 14.75 35.95 15.7 37.0 17.05 37.35 L15.15 37.9 12.25 38.2 12.2 38.2 Q8.7 38.2 6.2 37.15 L5.8 37.3 1.85 38.25 1.7 38.25 0.0 38.35 -1.9 38.3 M4.0 20.45 L0.75 19.45" fill="none" stroke="#74e3ff" stroke-linecap="round" stroke-linejoin="round" stroke-width="1.0"/>
      <path d="M39.8 29.1 L40.0 29.75 40.2 30.4 40.1 30.85 M37.3 27.8 L37.3 27.75 37.7 26.85 37.85 26.5 37.85 26.4 M37.7 23.75 L36.1 26.3 36.0 26.45 35.15 27.5 M39.55 28.0 L39.4 27.55 39.2 26.65 39.15 26.4 39.1 26.25 M35.8 30.7 L37.05 28.35 37.05 28.3 37.3 27.8 M39.55 28.0 L39.8 29.05 39.8 29.1" fill="none" stroke="#e98d00" stroke-linecap="round" stroke-linejoin="round" stroke-width="0.5"/>
      <path d="M49.3 5.25 L49.85 4.65 51.25 3.6 52.55 2.9 Q53.65 2.35 54.7 2.05 L55.35 1.9 55.25 3.9 Q55.25 6.3 55.85 8.8" fill="none" stroke="#a8edff" stroke-linecap="round" stroke-linejoin="round" stroke-width="1.0"/>
      <path d="M20.7 24.25 L20.9 23.85" fill="none" stroke="#0b1047" stroke-linecap="round" stroke-linejoin="round" stroke-width="1.0"/>
      <path d="M54.7 42.5 L54.25 43.25 Q53.2 45.1 53.15 46.95 L53.15 47.2 53.15 47.4 Q53.2 48.45 53.85 49.55 L55.4 51.45 M55.85 41.15 L54.7 42.5 M12.2 38.2 L12.4 39.95 12.45 41.65 12.4 42.5 12.2 43.9 12.2 43.95 12.2 44.05 M9.65 51.0 L9.8 51.05 10.1 51.15 12.1 52.1 Q13.85 53.15 15.8 54.9 L16.35 55.4 17.3 56.35 M35.35 46.05 L35.2 45.4" fill="none" stroke="#b82800" stroke-linecap="round" stroke-linejoin="round" stroke-width="0.5"/>
      <path d="M55.4 51.45 L55.5 51.5 55.85 51.45" fill="none" stroke="#1b2187" stroke-linecap="round" stroke-linejoin="round" stroke-width="0.5"/>
      <path d="M43.05 -1.4 L44.75 -0.6 47.15 2.0 48.7 4.25 49.3 5.25" fill="none" stroke="#b8f0ff" stroke-linecap="round" stroke-linejoin="round" stroke-width="1.0"/>
      <path d="M46.6 34.6 L46.6 34.55 Q46.2 33.45 45.45 32.4" fill="none" stroke="#8ee8ff" stroke-linecap="round" stroke-linejoin="round" stroke-width="1.0"/>
      <path d="M46.0 27.75 L46.35 28.1 46.3 28.3 M43.4 25.1 L39.85 22.05 39.05 21.45 M46.0 27.75 L43.4 25.1" fill="none" stroke="#d44600" stroke-linecap="round" stroke-linejoin="round" stroke-width="0.5"/>
      <path d="M46.3 28.3 L46.2 28.8 45.45 32.4 45.2 33.45 44.95 34.5 44.4 36.6 44.15 37.7" fill="none" stroke="#c92c00" stroke-linecap="round" stroke-linejoin="round" stroke-width="0.5"/>
      <path d="M3.1 6.9 L4.15 6.8 M44.15 37.7 L42.85 42.15 42.0 44.6 M9.1 8.5 L9.3 10.0 9.4 10.65 9.4 11.0 9.35 11.45 8.3 15.0 7.65 16.8 7.05 18.3 6.15 17.35 6.0 17.15 Q4.7 15.7 4.25 14.35 L4.1 13.85 4.0 12.95 Q4.0 11.9 4.5 11.35 L4.55 11.3 Q5.0 10.8 5.8 10.6 M9.05 7.95 L9.1 8.5 M7.2 10.45 L8.3 10.55 9.4 10.65 M9.3 20.3 L7.8 19.0 7.05 18.3 M25.2 40.3 L25.5 41.35 25.7 42.0 26.0 43.05 26.35 44.25 26.7 45.65 M25.2 40.3 L24.3 37.5" fill="none" stroke="#1b2c62" stroke-linecap="round" stroke-linejoin="round" stroke-width="0.5"/>
      <path d="M38.95 21.6 L38.95 21.65 38.95 21.7 39.0 23.05 39.0 23.95 39.05 25.7 39.1 26.25 M37.85 26.4 L37.7 23.75 M31.25 39.75 L31.75 39.75 32.6 39.75 32.7 39.75 33.7 39.75 35.4 39.5 35.65 39.4 37.0 38.8 37.05 38.8 M40.45 38.15 L40.45 37.6 Q40.4 36.55 39.75 35.05 L39.5 34.55 39.4 34.4 M40.45 38.15 L40.4 39.5 40.4 39.75 40.2 41.55 40.2 41.7 39.95 42.8 39.8 43.05 Q39.5 43.65 37.75 44.65 L37.35 44.85 36.35 45.15 36.2 45.2 35.8 45.3 35.2 45.4 34.35 45.5 33.5 45.55 33.25 45.55 33.0 45.55 32.55 45.55 32.45 45.55 32.35 45.55 31.2 45.55 Q28.75 45.3 26.35 44.25" fill="none" stroke="#af2600" stroke-linecap="round" stroke-linejoin="round" stroke-width="0.5"/>
      <path d="M21.4 7.95 L23.0 8.5 22.45 9.15 22.4 9.3 Q22.1 9.95 22.1 10.65 22.1 11.35 22.7 12.0 M24.25 28.1 L25.95 29.85 26.0 29.95 25.5 30.9 25.5 30.95 24.7 32.4 M18.5 24.5 L19.55 24.35 20.0 24.4 20.6 24.45 22.35 26.25 22.65 26.5 23.15 27.0 23.85 27.7 24.25 28.1 M17.05 22.25 L17.0 23.65 16.95 24.1 17.3 24.45 17.6 24.75 18.45 24.5 18.5 24.5 M24.8 32.5 L24.65 32.4 M17.4 18.65 L17.45 18.3 17.55 17.6 17.75 16.7 Q18.2 15.25 17.85 14.45 17.4 13.65 16.7 13.6 L16.55 13.55 16.5 13.55 16.35 13.55 15.5 13.85 15.35 14.0 M17.05 22.25 L17.4 18.75 17.4 18.65 M24.8 32.5 L25.7 33.15 25.85 33.25 26.25 33.55 27.1 34.3 27.15 34.65 27.45 37.95 27.45 38.85 27.45 39.05 27.35 40.55" fill="none" stroke="#c63600" stroke-linecap="round" stroke-linejoin="round" stroke-width="0.5"/>
      <path d="M4.15 6.8 Q3.6 3.25 3.6 -0.6 L3.6 -1.4 M18.7 -1.4 L19.45 -0.6 M5.8 10.6 L5.4 9.9 4.35 7.95 4.15 6.8 M7.0 12.4 L5.8 10.6" fill="none" stroke="#1e3169" stroke-linecap="round" stroke-linejoin="round" stroke-width="0.5"/>
      <path d="M19.45 -0.6 L19.7 -0.45" fill="none" stroke="#2a3d77" stroke-linecap="round" stroke-linejoin="round" stroke-width="0.5"/>
      <path d="M32.55 7.35 L35.35 11.4 35.95 12.15 36.15 12.4 36.55 12.6 39.05 13.9 39.85 14.4 40.35 14.65 M32.15 6.55 L32.45 7.15 32.55 7.35" fill="none" stroke="#5f78c4" stroke-linecap="round" stroke-linejoin="round" stroke-width="0.5"/>
      <path d="M29.85 0.9 L30.05 1.45 30.45 2.5 30.8 3.45 31.1 4.25 32.15 6.55" fill="none" stroke="#415baa" stroke-linecap="round" stroke-linejoin="round" stroke-width="0.5"/>
      <path d="M19.7 -0.45 L23.1 -0.15 25.75 0.15 27.05 0.35 27.15 0.35 27.45 0.4 29.85 0.9" fill="none" stroke="#37519f" stroke-linecap="round" stroke-linejoin="round" stroke-width="0.5"/>
      <path d="M20.7 7.8 L21.15 7.9 21.4 7.95 M15.55 8.9 L15.6 8.3 15.65 8.25 15.75 7.6 15.8 7.3 15.85 7.2 15.9 7.2 16.85 7.25 19.75 7.6 20.7 7.8 M15.35 14.0 L15.3 13.6 15.25 13.05 15.3 11.35 Q15.35 10.05 15.55 8.9" fill="none" stroke="#bf2a00" stroke-linecap="round" stroke-linejoin="round" stroke-width="0.5"/>
      <path d="M39.85 15.85 L39.2 21.15 M22.7 12.0 L23.25 12.5 24.35 13.15 24.95 13.4 25.25 13.55 25.85 13.8 26.75 14.1 27.0 14.2 28.2 14.6 30.85 16.0 30.9 16.05 31.45 16.35 M26.45 17.6 L26.2 17.35 Q25.7 17.9 25.15 18.9 L24.25 20.5 24.25 20.6 24.9 21.25 25.5 21.85 25.85 22.2 26.0 22.35 26.95 23.3 29.25 25.85 29.75 26.4 29.85 26.45 32.8 29.6 33.55 30.4 34.05 30.9 34.15 31.0 M30.25 21.6 L30.15 21.5 26.45 17.6 M24.65 32.4 L24.7 32.4 M35.8 30.75 L35.8 30.85 M35.8 30.75 L35.8 30.7" fill="none" stroke="#d0580d" stroke-linecap="round" stroke-linejoin="round" stroke-width="0.5"/>
      <path d="M37.7 20.65 L37.95 20.25 37.95 20.2 38.6 18.9 38.85 18.3 39.3 17.15 39.85 15.85" fill="none" stroke="#ec6700" stroke-linecap="round" stroke-linejoin="round" stroke-width="0.5"/>
      <path d="M40.35 14.65 L39.85 15.85" fill="none" stroke="#4760ad" stroke-linecap="round" stroke-linejoin="round" stroke-width="0.5"/>
      <path d="M35.15 27.5 L34.85 27.15 30.25 21.6 M31.45 16.35 L31.55 16.45 32.0 16.7 32.9 17.35 33.15 17.5 34.65 18.7 35.05 19.05 37.45 21.05 37.7 20.65" fill="none" stroke="#e78d04" stroke-linecap="round" stroke-linejoin="round" stroke-width="0.5"/>
      <path d="M39.05 21.45 L38.95 21.6 M39.2 21.15 L39.05 21.45 M37.9 23.4 L37.75 23.65 37.7 23.75" fill="none" stroke="#e56400" stroke-linecap="round" stroke-linejoin="round" stroke-width="0.5"/>
      <path d="M37.9 23.4 L38.1 23.15 38.35 22.7 38.55 22.35 38.85 21.8 38.95 21.65" fill="none" stroke="#e25904" stroke-linecap="round" stroke-linejoin="round" stroke-width="0.5"/>
      <path d="M7.0 12.4 L7.15 10.7 7.2 10.45 7.35 9.4 9.05 7.95" fill="none" stroke="#1a2d66" stroke-linecap="round" stroke-linejoin="round" stroke-width="0.5"/>
      <path d="M34.15 31.0 L33.75 32.85 32.7 36.2 32.4 37.05 31.25 39.75 30.75 40.8 30.2 42.0 28.85 44.4 28.8 44.4 26.6 42.35 26.15 41.9 25.5 41.35 M27.35 40.55 L26.1 40.45 25.3 40.3 25.2 40.3" fill="none" stroke="#bd3e00" stroke-linecap="round" stroke-linejoin="round" stroke-width="0.5"/>
      <path d="M36.05 32.5 L35.8 30.85 M36.6 36.0 L36.05 32.5 M37.05 38.8 L36.6 36.0 M39.4 34.4 L38.75 37.2 37.85 41.0 37.55 42.2 37.4 41.25 37.05 38.8 M40.1 30.85 L39.4 34.4" fill="none" stroke="#bf3e00" stroke-linecap="round" stroke-linejoin="round" stroke-width="0.5"/>
      <path d="M17.05 25.1 L19.55 26.1 M19.7 26.25 L21.75 30.7 23.2 34.4 23.5 35.2 24.3 37.5 M14.75 23.95 Q13.5 23.3 12.3 22.45 L12.05 22.3 9.3 20.3 M17.05 25.1 L16.6 24.9 14.75 23.95" fill="none" stroke="#c23500" stroke-linecap="round" stroke-linejoin="round" stroke-width="0.5"/>
      <path d="M42.0 44.6 L42.9 44.3 Q45.0 43.5 46.55 42.55 L48.0 42.9 51.4 43.7 51.75 43.75 52.15 43.85 51.95 45.35 51.95 45.55 51.7 47.55 51.3 51.4 M40.2 45.2 L40.8 45.0 41.9 44.65 42.0 44.6 M13.2 42.65 L19.2 41.6 21.85 43.7 Q22.95 44.4 24.25 44.9 L24.8 45.1 26.7 45.65 32.05 46.25 33.0 46.25 35.35 46.05 35.8 46.0 36.7 45.9 40.2 45.2 M13.2 42.95 L13.1 42.65 13.2 42.65 M12.1 52.1 L12.95 51.6 12.95 51.55 13.65 51.1 14.3 50.55 14.3 50.25 Q13.95 46.85 13.25 43.4 L13.2 42.95" fill="none" stroke="#c64c00" stroke-linecap="round" stroke-linejoin="round" stroke-width="0.5"/>
      <path d="M51.8 52.0 L51.3 51.4 M51.8 52.0 L51.95 52.2 52.4 52.75 52.6 53.0 53.45 54.2 54.2 55.3 54.6 55.95 54.85 56.35" fill="none" stroke="#3659ad" stroke-linecap="round" stroke-linejoin="round" stroke-width="0.5"/>
      <path d="M12.15 44.15 L12.2 44.05 M12.15 44.15 L12.15 44.25" fill="none" stroke="#0d1264" stroke-linecap="round" stroke-linejoin="round" stroke-width="0.5"/>
      <path d="M12.15 44.25 L10.45 44.25 Q7.5 44.25 5.15 46.25 3.4 47.75 2.9 49.5 L2.7 51.0 2.8 51.8 Q3.0 52.5 3.55 52.95 4.3 53.55 5.65 53.55 L6.0 53.55 Q6.8 53.3 8.05 52.45 L9.65 51.0" fill="none" stroke="#9c1000" stroke-linecap="round" stroke-linejoin="round" stroke-width="0.5"/>
      <path d="M-1.05 4.25 L-0.75 4.8 -0.3 5.65 0.1 6.5 Q1.5 9.65 1.7 13.4 L1.7 13.5 1.7 14.55 1.3 16.7 0.75 19.45" fill="none" stroke="#9aeaff" stroke-linecap="round" stroke-linejoin="round" stroke-width="1.0"/>
      <path d="M-1.9 2.95 L-1.05 4.25" fill="none" stroke="#adeeff" stroke-linecap="round" stroke-linejoin="round" stroke-width="1.0"/>
    </g>
    <g id="shape2" transform="matrix(1.0, 0.0, 0.0, 1.0, 0.0, 0.0)">
      <path d="M50.5 0.0 Q53.95 0.0 53.95 3.3 L53.95 50.15 Q53.95 53.4 50.5 53.4 L3.3 53.4 Q0.0 53.4 0.0 50.15 L0.0 3.3 Q0.0 0.0 3.3 0.0 L50.5 0.0" fill="#000000" fill-opacity="0.003921569" fill-rule="evenodd" stroke="none"/>
    </g>
  </defs>
</svg>
