<?xml version="1.0" encoding="UTF-8" standalone="no"?>
<svg xmlns:ffdec="https://www.free-decompiler.com/flash" xmlns:xlink="http://www.w3.org/1999/xlink" ffdec:objectType="frame" height="56.35px" width="56.35px" xmlns="http://www.w3.org/2000/svg">
  <g transform="matrix(1.0, 0.0, 0.0, 1.0, 0.95, 0.95)">
    <clipPath id="clipPath0" transform="matrix(1.0, 0.0, 0.0, 1.0, 0.0, 0.0)">
      <path d="M50.5 0.0 Q53.95 0.0 53.95 3.3 L53.95 50.15 Q53.95 53.4 50.5 53.4 L3.3 53.4 Q0.0 53.4 0.0 50.15 L0.0 3.3 Q0.0 0.0 3.3 0.0 L50.5 0.0" fill="#000000" fill-rule="evenodd" stroke="none"/>
    </clipPath>
    <g clip-path="url(#clipPath0)">
      <use ffdec:characterId="2" height="56.35" transform="matrix(1.0, 0.0, 0.0, 1.0, -0.95, -0.95)" width="56.35" xlink:href="#shape1"/>
    </g>
    <use ffdec:characterId="3" height="53.4" transform="matrix(1.0, 0.0, 0.0, 1.0, 0.0, 0.0)" width="53.95" xlink:href="#shape2"/>
  </g>
  <defs>
    <g id="shape1" transform="matrix(1.0, 0.0, 0.0, 1.0, 0.95, 0.95)">
      <path d="M45.45 35.05 L45.6 35.5 46.55 38.15 Q46.05 38.1 44.55 37.05 L43.95 36.6 44.3 36.3 45.25 35.65 45.3 35.45 45.45 35.05 M46.6 38.2 L46.6 38.3 46.7 38.55 47.6 41.45 49.05 38.35 49.7 36.95 51.35 33.9 Q53.05 30.9 54.9 28.2 L54.9 33.6 52.45 38.1 Q50.1 42.85 49.0 46.25 L47.6 44.35 47.5 44.35 46.35 43.35 44.7 41.3 44.2 39.7 45.05 39.35 46.6 38.2 M54.9 39.95 L54.9 43.15 52.95 45.2 52.05 46.1 52.75 44.45 52.95 43.85 54.9 39.95" fill="#fbe870" fill-rule="evenodd" stroke="none"/>
      <path d="M54.9 33.6 L54.9 39.95 52.95 43.85 52.75 44.45 52.05 46.1 52.95 45.2 54.9 43.15 54.9 45.55 53.4 46.8 52.25 47.65 Q51.8 48.05 51.25 48.6 L50.6 49.4 50.5 49.2 49.0 46.25 Q50.1 42.85 52.45 38.1 L54.9 33.6 M54.9 47.55 L54.9 49.6 53.1 53.9 53.0 54.1 52.65 54.9 52.2 54.9 51.8 52.75 51.8 52.7 51.75 52.0 52.3 51.2 54.9 47.55" fill="#edc027" fill-rule="evenodd" stroke="none"/>
      <path d="M54.9 45.55 L54.9 46.3 Q52.55 48.45 51.0 50.3 L51.0 50.35 50.6 49.4 51.25 48.6 Q51.8 48.05 52.25 47.65 L53.4 46.8 54.9 45.55 M54.9 49.6 L54.9 54.05 54.75 54.6 54.7 54.9 52.65 54.9 53.0 54.1 53.1 53.9 54.9 49.6 M51.65 52.2 L51.75 52.0 51.8 52.7 51.8 52.75 51.65 52.2" fill="#d1871c" fill-rule="evenodd" stroke="none"/>
      <path d="M54.9 46.3 L54.9 47.55 52.3 51.2 51.75 52.0 51.65 52.2 51.45 51.55 51.0 50.35 51.0 50.3 Q52.55 48.45 54.9 46.3 M54.9 54.05 L54.9 54.9 54.7 54.9 54.75 54.6 54.9 54.05" fill="#aa4720" fill-rule="evenodd" stroke="none"/>
      <path d="M14.05 13.55 L15.1 14.85 Q17.4 13.6 17.95 13.6 L19.1 15.05 19.4 15.5 19.85 16.15 22.35 14.5 23.65 15.3 26.3 16.8 27.45 17.45 28.8 18.2 30.35 19.0 31.0 19.2 31.85 19.6 32.4 20.1 33.3 21.15 29.5 19.85 Q26.3 18.6 24.15 17.25 L23.7 17.2 23.65 17.2 22.25 18.45 19.15 21.55 18.95 21.75 17.55 19.75 17.15 19.25 Q15.75 17.6 14.25 16.75 L11.95 16.05 Q8.7 15.3 5.4 15.25 L5.85 14.5 6.3 14.35 Q9.45 13.45 13.05 13.5 L14.05 13.55 M9.75 54.9 L7.8 54.9 2.6 54.9 3.85 53.1 5.0 51.65 Q8.65 47.3 12.25 45.45 L12.15 46.45 12.1 46.85 Q10.95 48.65 10.25 51.95 L9.75 54.9 M-0.45 39.25 L-0.45 38.35 -0.05 38.25 1.4 38.0 3.15 37.7 6.75 37.15 6.9 37.15 5.3 38.65 4.3 39.4 3.75 39.95 3.2 39.9 0.55 39.45 0.05 39.35 -0.45 39.25 M-0.45 31.0 L-0.45 27.55 -0.45 21.9 -0.3 21.8 -0.25 21.8 0.6 23.05 1.1 23.75 4.35 28.15 6.25 30.75 6.85 31.55 7.4 32.2 9.45 34.95 9.5 35.0 9.1 35.25 8.85 35.0 8.85 34.95 8.75 34.95 8.6 35.0 6.25 34.85 4.55 34.65 4.55 34.6 5.8 33.45 6.6 32.8 5.1 31.25 3.0 29.2 2.3 30.3 1.85 31.3 1.8 31.35 1.35 32.2 0.7 31.8 -0.45 31.0 M-0.45 27.55 L-0.2 26.75 -0.45 27.55 M20.2 16.6 L19.85 16.15 20.2 16.6 M14.0 26.15 L14.95 26.15 16.1 26.05 16.5 26.05 17.0 26.05 17.05 26.05 16.95 26.3 19.9 26.95 18.55 28.8 16.0 31.0 15.85 31.15 15.55 31.35 15.0 31.7 14.85 31.8 14.7 31.9 14.65 31.95 14.35 32.0 Q14.05 32.0 14.3 31.35 L14.35 31.25 14.45 31.0 14.55 30.65 15.55 28.1 15.55 27.95 14.0 26.15 M7.8 54.9 Q8.9 51.25 11.05 47.55 8.9 51.25 7.8 54.9" fill="#a8564b" fill-rule="evenodd" stroke="none"/>
      <path d="M13.85 7.8 Q14.95 10.6 13.9 13.35 L13.9 13.4 14.05 13.55 13.05 13.5 Q9.45 13.45 6.3 14.35 L5.85 14.5 5.4 15.25 5.1 15.25 4.65 15.3 4.35 14.95 3.0 13.3 2.45 13.25 1.35 13.1 5.8 12.65 7.1 12.75 7.2 12.65 Q6.0 11.35 3.9 10.3 L4.3 10.3 6.25 10.35 5.3 9.15 5.05 8.8 Q3.65 6.75 3.2 4.9 L3.05 3.45 3.7 4.4 4.05 4.9 5.1 6.1 Q6.3 7.25 7.7 7.75 L9.65 7.6 13.85 7.8 M40.7 18.8 L39.15 20.15 37.75 20.75 37.2 20.9 37.75 20.75 38.0 21.3 38.25 21.85 37.7 21.3 37.2 20.9 35.6 21.0 34.65 20.9 33.9 21.05 33.4 21.2 33.3 21.15 32.4 20.1 31.85 19.6 31.0 19.2 30.35 19.0 28.8 18.2 27.45 17.45 26.3 16.8 23.65 15.3 22.35 14.5 25.65 11.8 27.0 12.8 Q29.0 14.5 30.3 16.7 30.25 14.45 28.7 12.0 L28.0 11.1 Q30.55 13.1 32.5 15.8 L33.05 15.15 32.8 15.8 Q32.35 17.15 32.35 18.0 L32.4 18.95 32.95 19.2 Q33.6 17.05 34.6 15.6 36.6 12.8 39.8 12.3 39.05 14.9 37.4 16.8 L34.95 19.15 34.6 19.35 34.4 19.45 34.05 19.6 35.2 19.7 35.25 19.7 35.95 19.75 37.15 19.7 37.65 19.6 40.0 19.05 40.7 18.8 M46.55 38.15 L46.6 38.15 46.6 38.2 45.05 39.35 44.2 39.7 44.15 39.7 43.95 39.1 Q43.75 38.4 43.35 38.15 L43.2 38.15 43.8 36.65 43.95 36.6 44.55 37.05 Q46.05 38.1 46.55 38.15 M-0.45 38.35 L-0.45 36.95 -0.05 36.6 0.05 36.55 0.9 35.9 2.8 34.55 4.0 33.85 3.4 33.55 2.4 32.9 1.55 32.35 1.35 32.2 1.8 31.35 1.85 31.3 2.3 30.3 3.0 29.2 5.1 31.25 6.6 32.8 5.8 33.45 4.55 34.6 4.55 34.65 6.25 34.85 8.6 35.0 8.85 35.0 9.1 35.25 7.2 36.85 6.9 37.15 6.75 37.15 3.15 37.7 1.4 38.0 -0.05 38.25 -0.45 38.35 M-0.45 21.9 L-0.45 21.55 -0.25 21.8 -0.3 21.8 -0.45 21.9 M35.2 30.7 L35.1 30.8 34.7 30.8 35.2 30.7 M39.55 39.2 L39.5 39.25 39.45 39.2 39.55 39.2 M39.4 23.1 Q41.75 23.1 42.65 22.35 42.65 23.55 41.4 25.45 L40.1 26.95 39.9 26.2 39.9 26.1 39.75 25.6 39.6 25.3 39.75 25.0 40.0 24.1 39.9 23.85 39.85 23.75 39.7 23.5 39.4 23.1 M31.5 17.55 L32.5 15.8 31.5 17.55 M6.25 10.35 L7.75 11.95 6.25 10.35 M13.05 12.8 L13.9 13.35 13.05 12.8" fill="#e2b29c" fill-rule="evenodd" stroke="none"/>
      <path d="M12.4 5.25 L13.85 7.8 9.65 7.6 7.7 7.75 Q6.3 7.25 5.1 6.1 L4.05 4.9 3.7 4.4 3.05 3.45 3.05 3.25 Q3.45 4.0 4.45 4.4 L5.1 4.65 8.95 5.05 9.7 5.05 12.4 5.25 M42.85 14.7 Q42.45 16.25 41.65 17.55 L40.7 18.8 40.0 19.05 37.65 19.6 37.15 19.7 35.95 19.75 35.25 19.7 35.2 19.7 34.05 19.6 34.4 19.45 34.6 19.35 34.95 19.15 37.4 16.8 Q39.05 14.9 39.8 12.3 36.6 12.8 34.6 15.6 33.6 17.05 32.95 19.2 L32.4 18.95 32.35 18.0 Q32.35 17.15 32.8 15.8 L33.05 15.15 Q34.6 13.3 36.85 12.25 39.45 11.0 40.55 10.95 L41.2 10.8 42.2 10.4 43.3 9.75 43.3 11.15 Q43.3 13.05 42.85 14.7 M39.15 20.15 L41.1 21.0 Q41.85 20.1 43.1 19.3 L44.5 18.45 44.7 19.15 44.85 21.95 Q44.85 24.7 43.05 27.6 L42.35 28.6 42.25 28.6 41.4 28.75 40.6 28.1 40.2 27.8 39.95 27.6 40.2 27.65 40.1 26.95 41.4 25.45 Q42.65 23.55 42.65 22.35 41.75 23.1 39.4 23.1 L38.8 22.45 38.65 22.3 38.3 21.9 38.25 21.85 38.0 21.3 37.75 20.75 39.15 20.15 M-0.45 11.55 L-0.45 10.65 3.9 10.3 Q6.0 11.35 7.2 12.65 L7.1 12.75 5.8 12.65 1.35 13.1 1.3 13.1 0.85 12.75 -0.45 11.55 M41.25 28.65 L41.35 28.8 41.25 28.7 41.25 28.65 M40.2 27.8 L40.2 27.65 40.2 27.8 M27.1 10.4 L28.0 11.1 28.7 12.0 Q30.25 14.45 30.3 16.7 29.0 14.5 27.0 12.8 L25.65 11.8 27.1 10.4" fill="#fbf5ff" fill-rule="evenodd" stroke="none"/>
      <path d="M46.35 3.5 Q47.25 3.5 47.6 4.4 L47.7 4.85 47.7 4.9 47.45 6.25 47.1 6.9 46.75 7.5 Q45.75 7.1 45.65 4.7 45.65 4.4 45.95 3.95 L46.35 3.5 M28.65 2.95 L28.75 3.3 28.75 4.4 28.55 4.45 28.25 4.5 Q27.6 4.5 26.65 3.15 L25.6 1.3 Q25.6 0.95 26.0 0.65 L26.65 0.4 Q27.05 0.4 27.9 1.1 L27.9 1.15 28.65 2.95" fill="#eecd7a" fill-rule="evenodd" stroke="none"/>
      <path d="M10.3 -0.45 Q15.75 2.6 19.2 6.55 L19.25 6.6 19.3 6.55 20.65 4.1 21.95 2.1 22.3 1.7 22.3 1.8 22.3 2.25 Q22.4 4.0 23.2 8.05 L23.35 9.0 22.95 10.3 20.85 13.6 19.4 15.5 19.1 15.05 17.95 13.6 Q17.4 13.6 15.1 14.85 L14.05 13.55 13.9 13.4 13.9 13.35 Q14.95 10.6 13.85 7.8 L12.4 5.25 11.5 4.15 Q8.9 1.4 5.4 -0.45 L10.3 -0.45 M30.15 4.6 L29.75 2.75 Q29.3 1.0 28.25 -0.45 L31.05 -0.45 33.2 4.1 Q33.9 6.05 34.3 6.05 L34.6 6.0 Q34.65 5.9 34.8 5.9 L34.8 4.85 36.25 9.55 36.4 9.55 Q37.7 9.25 39.3 7.9 L39.95 7.35 40.55 7.35 Q41.4 7.45 41.35 8.0 L41.2 10.8 40.55 10.95 Q39.45 11.0 36.85 12.25 34.6 13.3 33.05 15.15 L32.5 15.8 Q30.55 13.1 28.0 11.1 L27.1 10.4 27.1 10.35 30.15 6.7 30.2 6.65 30.15 4.6 M34.5 11.7 L34.9 10.3 Q35.15 9.75 36.25 9.55 35.15 9.75 34.9 10.3 L34.5 11.7 M18.9 7.35 L19.25 6.6 18.9 7.35" fill="#742626" fill-rule="evenodd" stroke="none"/>
      <path d="M16.9 -0.45 L17.0 -0.2 Q19.25 3.05 19.25 3.85 19.25 4.15 18.85 4.35 16.8 1.85 14.15 -0.45 L16.9 -0.45 M24.45 -0.45 L28.25 -0.45 Q29.3 1.0 29.75 2.75 L30.15 4.6 30.0 5.0 29.55 6.2 29.3 6.75 29.25 6.8 28.75 7.25 Q28.0 7.8 27.35 7.8 L26.85 7.65 Q26.1 7.25 25.3 5.5 24.65 4.15 24.35 2.85 L24.25 2.0 24.25 1.05 24.45 -0.45 M31.05 -0.45 L32.4 -0.45 33.1 0.95 34.8 4.85 34.8 5.9 Q34.65 5.9 34.6 6.0 L34.3 6.05 Q33.9 6.05 33.2 4.1 L31.05 -0.45 M44.6 2.75 Q44.95 2.5 45.25 2.3 46.25 1.7 47.15 1.6 L47.95 2.2 Q48.8 3.15 48.8 6.35 L48.65 9.0 Q47.6 10.65 45.6 12.45 L45.0 11.95 Q44.2 11.0 43.9 9.25 L43.85 7.8 Q43.85 5.6 44.3 3.8 L44.3 3.75 44.6 2.75 M46.35 3.5 L45.95 3.95 Q45.65 4.4 45.65 4.7 45.75 7.1 46.75 7.5 L47.1 6.9 47.45 6.25 47.7 4.9 47.7 4.85 47.6 4.4 Q47.25 3.5 46.35 3.5 M28.65 2.95 L27.9 1.15 27.9 1.1 Q27.05 0.4 26.65 0.4 L26.0 0.65 Q25.6 0.95 25.6 1.3 L26.65 3.15 Q27.6 4.5 28.25 4.5 L28.55 4.45 28.75 4.4 28.75 3.3 28.65 2.95" fill="#e38b44" fill-rule="evenodd" stroke="none"/>
      <path d="M10.3 -0.45 L14.15 -0.45 Q16.8 1.85 18.85 4.35 19.25 4.15 19.25 3.85 19.25 3.05 17.0 -0.2 L16.9 -0.45 17.15 -0.45 17.6 0.15 20.65 4.1 19.3 6.55 19.25 6.6 19.2 6.55 Q15.75 2.6 10.3 -0.45 M19.4 15.5 L20.85 13.6 22.95 10.3 23.35 9.0 23.2 8.05 Q22.4 4.0 22.3 2.25 L22.3 1.8 22.3 1.7 22.9 0.9 24.15 -0.45 24.45 -0.45 24.25 1.05 24.25 2.0 24.35 2.85 Q24.65 4.15 25.3 5.5 26.1 7.25 26.85 7.65 L27.35 7.8 Q28.0 7.8 28.75 7.25 L29.25 6.8 29.3 6.75 29.55 6.2 30.0 5.0 30.15 4.6 30.2 6.65 30.15 6.7 27.1 10.35 27.1 10.4 25.65 11.8 22.35 14.5 19.85 16.15 19.4 15.5 M39.95 7.35 L41.2 6.1 41.4 5.9 41.9 5.25 43.95 3.2 44.6 2.75 44.3 3.75 44.3 3.8 Q43.85 5.6 43.85 7.8 L43.9 9.25 Q44.2 11.0 45.0 11.95 L45.6 12.45 42.85 14.7 Q43.3 13.05 43.3 11.15 L43.3 9.75 42.2 10.4 41.2 10.8 41.35 8.0 Q41.4 7.45 40.55 7.35 L39.95 7.35" fill="#9e4c3e" fill-rule="evenodd" stroke="none"/>
      <path d="M39.5 39.25 L39.3 39.5 38.65 39.55 36.0 39.9 35.6 40.05 36.0 39.9 Q35.8 39.95 35.65 40.05 L35.6 40.05 35.55 40.05 33.65 40.6 33.2 40.7 32.45 40.85 32.2 40.9 28.75 41.15 28.75 40.85 29.75 40.65 32.9 39.9 39.05 39.25 39.45 39.2 39.5 39.25 M25.4 40.45 L24.8 40.65 23.6 41.1 22.8 41.4 22.7 41.35 22.75 40.5 22.75 40.0 25.4 40.45" fill="#9c321a" fill-rule="evenodd" stroke="none"/>
      <path d="M-0.45 46.05 L-0.45 39.25 0.05 39.35 0.55 39.45 3.2 39.9 3.2 40.6 Q0.85 43.15 -0.45 46.05 M-0.45 34.15 L-0.45 31.0 0.7 31.8 1.35 32.2 1.55 32.35 2.4 32.9 2.55 33.5 2.8 34.55 0.9 35.9 0.8 35.65 -0.45 34.15 M40.35 29.25 L40.2 29.35 40.3 30.25 40.3 30.3 39.1 30.25 38.95 30.25 37.35 30.35 37.0 30.4 35.25 30.7 35.2 30.7 34.7 30.8 33.95 30.8 29.1 30.15 28.55 30.0 28.3 29.95 28.85 29.95 29.25 29.95 29.95 30.0 30.85 29.65 31.95 29.15 32.2 29.05 33.1 28.65 34.25 28.75 34.05 28.5 34.05 28.35 33.95 27.5 33.8 26.9 34.75 26.45 34.5 26.1 34.25 25.9 34.25 25.95 34.1 25.75 Q33.65 25.1 32.55 24.6 L31.4 24.2 28.35 23.95 27.0 24.05 22.6 24.75 22.45 24.7 21.5 24.4 20.85 24.1 20.85 24.15 22.5 25.05 Q22.6 26.05 23.15 27.15 L23.9 28.15 24.75 28.85 25.1 29.05 25.2 29.1 23.45 29.55 Q22.95 29.7 22.5 30.0 L21.5 30.55 21.3 30.7 21.0 30.75 19.95 31.05 19.85 31.1 18.8 31.15 17.3 31.25 15.85 31.15 16.0 31.0 18.55 28.8 19.9 26.95 16.95 26.3 17.05 26.05 17.5 26.0 18.0 25.9 17.5 26.0 17.05 26.05 17.0 26.05 16.5 26.05 16.1 26.05 14.95 26.15 14.0 26.15 13.15 26.05 12.55 25.95 Q11.35 24.85 11.0 23.9 L11.05 23.9 12.2 24.05 12.9 24.15 15.9 24.3 16.5 24.3 Q15.65 21.85 14.2 20.25 L13.45 19.5 13.45 19.45 13.25 18.2 13.45 18.15 14.2 18.2 16.4 18.9 17.55 19.75 18.95 21.75 19.15 21.55 22.25 18.45 23.65 17.2 23.7 17.2 24.15 17.25 Q26.3 18.6 29.5 19.85 L33.3 21.15 33.4 21.2 33.9 21.05 34.65 20.9 35.6 21.0 37.2 20.9 37.7 21.3 38.25 21.85 38.3 21.9 38.65 22.3 38.4 22.2 37.7 22.05 36.6 21.95 38.7 24.5 Q39.1 24.5 39.5 24.15 L39.7 23.9 39.75 23.85 39.85 23.75 39.9 23.85 40.0 24.1 39.75 25.0 39.6 25.3 39.45 25.6 39.1 26.2 39.0 26.4 38.75 26.7 38.95 26.85 39.55 27.25 39.6 27.3 39.95 27.6 39.5 27.5 39.3 27.5 38.95 27.4 38.35 27.3 38.0 27.25 Q37.85 27.25 37.65 27.4 37.3 27.5 36.9 27.9 L35.8 29.15 35.7 29.25 36.05 29.25 37.85 29.4 37.9 29.4 38.7 29.35 38.95 29.35 40.35 29.25 M34.3 23.4 L34.4 23.15 34.05 22.5 33.95 22.3 33.8 22.05 33.65 21.85 33.4 21.85 31.95 21.45 Q29.05 20.55 24.25 18.45 L25.45 21.65 25.55 21.85 26.45 22.4 27.3 22.4 31.15 22.75 32.5 23.05 34.15 23.6 34.15 23.55 34.3 23.4 M34.5 22.6 L35.0 23.3 35.4 24.7 34.25 25.9 35.4 24.7 35.0 23.3 34.5 22.6 M18.95 21.75 L19.4 22.75 20.05 24.55 19.4 22.75 18.95 21.75 M35.45 27.85 Q35.75 27.35 36.95 26.8 L38.0 26.4 38.45 26.55 38.0 26.4 36.95 26.8 Q35.75 27.35 35.45 27.85 M38.45 26.55 L38.75 26.7 38.45 26.55 M37.9 24.3 L37.9 25.15 37.9 26.05 37.85 26.3 37.9 26.05 37.9 25.15 37.9 24.3 M37.85 26.3 L38.0 26.4 37.85 26.3" fill="#f88e3a" fill-rule="evenodd" stroke="none"/>
      <path d="M-0.45 36.95 L-0.45 34.15 0.8 35.65 0.9 35.9 0.05 36.55 -0.05 36.6 -0.45 36.95 M41.4 28.75 L41.35 28.8 40.95 28.9 40.8 29.0 40.45 28.6 39.8 28.1 39.45 27.85 38.95 27.65 38.4 27.5 38.0 27.5 38.05 28.8 38.1 28.85 38.2 28.85 38.95 29.0 40.1 29.05 40.65 29.05 40.35 29.25 38.95 29.35 38.7 29.35 37.9 29.4 37.85 29.4 36.05 29.25 35.7 29.25 35.8 29.15 36.9 27.9 Q37.3 27.5 37.65 27.4 37.85 27.25 38.0 27.25 L38.35 27.3 38.95 27.4 39.3 27.5 39.5 27.5 39.95 27.6 40.2 27.8 40.6 28.1 41.4 28.75 M41.25 28.65 L41.25 28.7 41.35 28.8 41.25 28.65 M31.15 22.75 L27.3 22.4 26.45 22.4 25.55 21.85 25.45 21.65 24.25 18.45 Q29.05 20.55 31.95 21.45 L33.4 21.85 33.65 21.85 33.8 22.05 33.95 22.3 34.05 22.5 34.4 23.15 34.3 23.4 33.85 22.25 31.65 21.7 30.75 21.55 30.2 21.85 30.8 22.45 31.15 22.75 M39.5 24.15 Q39.1 24.5 38.7 24.5 L36.6 21.95 37.7 22.05 38.4 22.2 38.65 22.3 38.8 22.45 38.45 22.45 37.95 22.55 37.9 22.75 Q38.6 24.25 39.1 24.25 L39.5 24.15" fill="#ffb63b" fill-rule="evenodd" stroke="none"/>
      <path d="M40.25 54.9 L36.75 54.9 35.75 52.8 35.0 53.1 34.9 53.15 34.5 53.7 33.85 54.6 33.6 54.9 32.95 54.15 33.2 53.4 33.45 51.2 33.4 50.5 33.3 50.4 33.1 50.3 32.5 49.8 31.3 49.05 30.65 48.75 29.25 48.7 29.2 48.65 28.75 48.7 26.7 46.8 25.9 46.1 26.1 45.1 26.05 44.4 25.45 43.1 Q24.8 42.2 23.95 41.9 L23.6 41.1 24.8 40.65 25.4 40.45 26.7 40.05 27.4 40.95 27.55 41.15 27.9 41.7 30.05 44.6 30.35 45.0 30.6 45.1 Q32.4 45.75 34.05 46.85 L35.7 48.2 36.15 48.6 Q37.45 49.95 38.1 51.55 L39.55 50.0 39.95 49.15 40.5 47.65 40.55 47.35 40.65 46.6 41.1 46.9 41.2 47.35 41.55 49.95 Q41.55 53.2 40.25 54.9 M26.65 54.9 L25.3 54.9 25.35 53.6 26.65 54.9 M17.3 54.9 L14.25 54.9 Q14.95 52.65 15.8 51.25 14.2 51.55 12.55 53.3 L11.8 54.15 12.05 51.8 Q12.35 49.5 12.9 48.45 14.0 46.25 15.8 45.0 L17.0 44.3 17.2 49.15 17.9 51.7 18.2 52.95 18.15 53.85 18.0 54.4 17.3 54.9 M42.6 42.0 L43.4 42.3 43.95 42.05 Q44.35 41.7 44.35 41.25 L44.35 40.9 44.7 41.3 46.35 43.35 47.5 44.35 47.6 44.35 49.0 46.25 50.5 49.2 49.6 47.95 48.75 46.95 46.45 44.65 45.85 44.3 45.85 44.35 45.9 44.65 45.9 44.85 45.9 45.45 Q45.95 47.55 46.4 48.0 L47.55 50.05 48.4 52.15 48.4 52.3 47.25 51.25 46.35 50.6 46.2 50.45 45.6 50.05 45.5 50.0 45.2 49.75 45.1 49.6 45.0 49.45 44.95 49.5 44.9 49.45 44.9 49.5 44.4 49.6 44.1 48.45 43.95 48.1 45.1 47.95 Q45.65 47.65 45.75 46.95 L45.75 46.8 Q45.85 45.8 45.45 44.95 44.95 44.0 44.2 43.6 L43.05 43.45 43.0 43.45 42.75 43.55 42.45 43.8 Q41.75 42.4 40.25 41.0 L38.95 39.8 38.65 39.55 39.3 39.5 39.5 39.25 39.55 39.2 39.8 38.85 Q40.0 38.65 40.15 38.65 L40.25 38.6 41.25 38.75 Q41.75 41.25 42.6 42.0 M9.05 38.95 L9.8 39.05 10.85 39.15 11.25 39.15 Q11.25 40.6 10.05 42.6 L9.6 43.35 7.45 46.45 7.65 45.3 Q7.85 44.4 8.2 44.1 6.75 45.25 3.4 46.5 L2.75 46.8 1.4 47.45 Q1.9 46.3 2.55 45.35 L3.45 44.2 4.3 43.3 7.1 40.6 9.05 38.95 M43.85 53.35 L44.15 53.5 44.5 54.05 43.85 53.35" fill="#f0dec8" fill-rule="evenodd" stroke="none"/>
      <path d="M38.65 39.55 L38.95 39.8 40.25 41.0 Q41.75 42.4 42.45 43.8 42.15 44.15 42.1 44.8 L42.1 45.75 40.7 45.75 41.1 46.9 40.65 46.6 40.55 47.35 40.5 47.65 39.95 49.15 39.55 50.0 38.1 51.55 Q37.45 49.95 36.15 48.6 36.75 48.8 36.9 49.05 L36.9 48.85 36.75 47.85 35.9 45.1 Q34.95 42.6 33.4 41.5 L33.55 41.4 33.95 41.15 34.1 41.5 Q35.6 41.9 37.05 43.35 38.25 44.55 38.7 45.85 L38.3 43.6 Q37.55 41.3 36.05 40.35 L35.9 40.2 35.65 40.05 Q35.8 39.95 36.0 39.9 L38.65 39.55" fill="#bb6f5f" fill-rule="evenodd" stroke="none"/>
      <path d="M52.2 54.9 L46.6 54.9 46.6 54.7 Q46.6 52.5 45.65 50.55 L45.2 49.75 45.5 50.0 45.6 50.05 46.2 50.45 46.35 50.6 47.25 51.25 48.4 52.3 48.4 52.15 47.55 50.05 46.4 48.0 Q45.95 47.55 45.9 45.45 L45.9 44.85 45.9 44.65 45.85 44.35 45.85 44.3 46.45 44.65 48.75 46.95 49.6 47.95 50.5 49.2 50.6 49.4 51.0 50.35 51.45 51.55 51.65 52.2 51.8 52.75 52.2 54.9 M44.9 49.5 L44.9 49.45 44.95 49.5 44.9 49.5" fill="#fffcfd" fill-rule="evenodd" stroke="none"/>
      <path d="M41.3 54.9 L40.25 54.9 Q41.55 53.2 41.55 49.95 L41.2 47.35 41.1 46.9 40.7 45.75 42.1 45.75 42.45 46.65 43.2 47.65 43.7 47.95 43.95 48.1 44.1 48.45 44.4 49.6 44.25 49.6 43.85 49.75 43.7 49.95 43.4 50.4 43.1 50.95 43.0 51.2 42.9 51.35 42.75 51.8 42.55 52.6 42.75 53.05 42.0 52.95 41.3 54.9 M33.6 54.9 L32.7 54.9 32.75 54.8 32.95 54.15 33.6 54.9 M30.75 54.9 L26.65 54.9 25.35 53.6 25.3 54.9 17.3 54.9 18.0 54.4 18.15 53.85 18.2 52.95 17.9 51.7 17.2 49.15 17.0 44.3 15.8 45.0 Q14.0 46.25 12.9 48.45 12.35 49.5 12.05 51.8 L11.8 54.15 12.55 53.3 Q14.2 51.55 15.8 51.25 14.95 52.65 14.25 54.9 L9.75 54.9 10.25 51.95 Q10.95 48.65 12.1 46.85 L12.15 46.45 12.25 45.45 Q8.65 47.3 5.0 51.65 L3.85 53.1 2.6 54.9 -0.45 54.9 -0.45 46.05 Q0.85 43.15 3.2 40.6 L3.75 39.95 4.3 39.4 5.3 38.65 6.9 37.15 7.2 36.85 9.1 35.25 9.5 35.0 Q10.3 34.35 11.3 33.75 L12.7 32.95 13.85 32.45 14.95 32.1 15.4 32.05 15.6 32.55 15.9 33.25 17.25 33.65 18.75 34.3 18.1 36.0 17.55 35.3 16.1 33.55 15.9 33.45 14.4 33.0 Q13.8 32.9 13.3 34.05 13.0 34.65 12.85 35.3 L16.1 38.5 17.55 39.95 17.65 40.05 18.95 40.65 19.2 40.25 19.55 39.25 19.6 37.85 19.25 37.4 20.7 37.3 22.7 37.4 22.7 39.35 22.75 40.0 22.75 40.5 22.7 41.35 22.8 41.4 23.6 41.1 23.95 41.9 23.65 41.8 21.95 41.95 21.9 42.0 Q21.15 42.6 21.15 43.65 21.1 44.55 21.6 45.45 L21.85 45.7 Q22.55 46.65 23.6 47.05 L25.25 46.85 25.35 46.75 25.9 46.1 26.7 46.8 28.75 48.7 Q27.55 48.8 27.0 49.55 L26.8 49.9 Q27.65 51.5 29.2 53.3 L30.25 54.45 30.75 54.9 M9.05 38.95 L7.1 40.6 4.3 43.3 3.45 44.2 2.55 45.35 Q1.9 46.3 1.4 47.45 L2.75 46.8 3.4 46.5 Q6.75 45.25 8.2 44.1 7.85 44.4 7.65 45.3 L7.45 46.45 9.6 43.35 10.05 42.6 Q11.25 40.6 11.25 39.15 L10.85 39.15 9.8 39.05 9.05 38.95" fill="#e0b298" fill-rule="evenodd" stroke="none"/>
      <path d="M36.15 48.6 L35.7 48.2 34.05 46.85 Q32.4 45.75 30.6 45.1 L30.35 45.0 30.05 44.6 27.9 41.7 27.55 41.15 27.4 40.95 26.7 40.05 28.55 39.85 28.65 39.85 28.75 40.85 28.75 41.15 32.2 40.9 32.45 40.85 33.2 40.7 33.65 40.6 35.55 40.05 35.6 40.05 35.65 40.05 35.9 40.2 36.05 40.35 Q37.55 41.3 38.3 43.6 L38.7 45.85 Q38.25 44.55 37.05 43.35 35.6 41.9 34.1 41.5 L33.95 41.15 33.55 41.4 33.4 41.5 Q34.95 42.6 35.9 45.1 L36.75 47.85 36.9 48.85 36.9 49.05 Q36.75 48.8 36.15 48.6" fill="#50110c" fill-rule="evenodd" stroke="none"/>
      <path d="M46.6 54.9 L44.9 54.9 44.65 54.35 44.5 54.05 44.15 53.5 43.85 53.35 42.85 53.1 42.75 53.05 42.55 52.6 42.75 51.8 42.9 51.35 43.0 51.2 43.1 50.95 43.4 50.4 43.4 50.6 43.4 52.1 44.3 52.6 44.9 53.15 45.25 53.45 45.5 53.8 45.8 52.25 45.65 50.55 Q46.6 52.5 46.6 54.7 L46.6 54.9 M43.05 54.9 L41.3 54.9 42.0 52.95 43.05 54.9 M34.65 54.9 L33.6 54.9 33.85 54.6 34.5 53.7 34.9 53.15 35.0 53.1 34.65 54.9 M32.7 54.9 L30.75 54.9 30.25 54.45 29.2 53.3 Q27.65 51.5 26.8 49.9 L27.0 49.55 Q27.55 48.8 28.75 48.7 L29.2 48.65 29.25 48.7 30.65 48.75 31.3 49.05 30.45 49.4 29.95 49.75 29.9 49.75 29.6 50.05 29.6 50.1 31.3 51.95 31.45 52.1 32.7 53.1 Q33.2 52.35 33.3 50.4 L33.4 50.5 33.45 51.2 33.2 53.4 32.95 54.15 32.75 54.8 32.7 54.9 M-0.45 21.55 L-0.45 18.85 4.3 22.35 4.55 22.5 9.9 29.4 10.0 29.5 10.25 29.9 10.0 29.5 9.9 29.4 4.55 22.5 Q7.45 24.35 9.7 25.25 L11.15 25.75 11.75 25.85 12.55 25.95 13.15 26.05 14.0 26.15 15.55 27.95 15.55 28.1 14.55 30.65 Q13.65 29.9 13.35 29.7 L12.9 29.5 12.8 29.45 12.25 29.35 12.1 29.35 10.25 29.9 8.4 30.8 7.7 31.15 7.35 31.35 6.85 31.55 6.25 30.75 4.35 28.15 1.1 23.75 0.6 23.05 -0.25 21.8 -0.45 21.55 M-0.45 15.5 L-0.45 12.7 0.85 12.75 1.3 13.1 1.35 13.1 2.45 13.25 3.0 13.3 4.35 14.95 4.65 15.3 1.65 15.4 -0.45 15.5 M41.2 38.5 Q41.25 38.2 42.05 38.15 L43.2 38.15 43.35 38.15 Q43.75 38.4 43.95 39.1 L44.15 39.7 44.3 40.4 Q43.75 39.95 43.45 39.95 L43.4 39.95 Q43.1 40.0 42.85 40.65 42.55 41.25 42.55 41.55 L42.6 42.0 Q41.75 41.25 41.25 38.75 L41.2 38.55 41.2 38.5 M42.45 43.8 L42.75 43.55 43.0 43.45 43.0 43.6 Q43.0 44.55 43.5 45.6 L43.55 45.7 Q44.25 47.0 45.5 47.0 L45.75 46.95 Q45.65 47.65 45.1 47.95 L43.95 48.1 43.7 47.95 43.2 47.65 42.45 46.65 42.1 45.75 42.1 44.8 Q42.15 44.15 42.45 43.8 M26.05 44.4 L26.1 45.1 25.9 46.1 25.35 46.75 25.25 46.85 23.6 47.05 Q22.55 46.65 21.85 45.7 L21.6 45.45 Q21.1 44.55 21.15 43.65 21.15 42.6 21.9 42.0 L21.95 41.95 21.85 42.7 Q21.85 43.2 22.35 43.95 L22.45 44.1 Q23.25 45.45 24.7 45.45 L25.0 45.4 25.15 45.35 25.75 45.0 26.05 44.4 M18.1 36.0 L18.9 37.05 18.2 36.85 17.7 36.8 Q17.3 36.8 17.0 37.05 16.65 37.25 16.6 37.65 16.55 38.2 17.55 39.95 L16.1 38.5 12.85 35.3 Q13.0 34.65 13.3 34.05 13.8 32.9 14.4 33.0 L15.9 33.45 16.1 33.55 17.55 35.3 18.1 36.0" fill="#dc8a1e" fill-rule="evenodd" stroke="none"/>
      <path d="M44.9 54.9 L44.2 54.9 43.95 54.5 43.8 54.35 43.2 54.0 43.05 53.9 43.05 54.0 43.25 54.3 43.65 54.9 43.05 54.9 42.0 52.95 42.75 53.05 42.85 53.1 43.85 53.35 44.5 54.05 44.65 54.35 44.9 54.9 M36.75 54.9 L36.3 54.9 36.05 54.45 35.7 54.25 35.4 54.0 35.35 54.05 35.2 54.75 35.25 54.9 34.65 54.9 35.0 53.1 35.75 52.8 36.75 54.9 M-0.45 12.7 L-0.45 11.55 0.85 12.75 -0.45 12.7 M6.85 31.55 L7.35 31.35 7.7 31.15 8.4 30.8 10.25 29.9 12.1 29.35 12.25 29.35 12.8 29.45 12.9 29.5 13.35 29.7 Q13.65 29.9 14.55 30.65 L14.45 31.0 14.35 31.25 14.3 31.35 13.95 32.2 13.85 32.45 12.7 32.95 10.25 29.9 12.7 32.95 11.3 33.75 Q10.3 34.35 9.5 35.0 L9.45 34.95 7.4 32.2 6.85 31.55 M42.6 42.0 L42.55 41.55 Q42.55 41.25 42.85 40.65 43.1 40.0 43.4 39.95 L43.45 39.95 Q43.75 39.95 44.3 40.4 L44.35 40.9 44.35 41.25 Q44.35 41.7 43.95 42.05 L43.4 42.3 42.6 42.0 M43.0 43.45 L43.05 43.45 44.2 43.6 Q44.95 44.0 45.45 44.95 45.85 45.8 45.75 46.8 L45.75 46.95 45.5 47.0 Q44.25 47.0 43.55 45.7 L43.5 45.6 Q43.0 44.55 43.0 43.6 L43.0 43.45 M45.1 49.6 L45.2 49.75 45.65 50.55 45.8 52.25 45.5 53.8 45.25 53.45 44.9 53.15 44.3 52.6 43.4 52.1 43.4 50.6 43.4 50.4 43.7 49.95 Q43.65 51.5 44.15 52.0 L44.7 50.6 45.0 49.95 45.1 49.65 45.1 49.6 M23.95 41.9 Q24.8 42.2 25.45 43.1 L26.05 44.4 25.75 45.0 25.15 45.35 25.0 45.4 24.7 45.45 Q23.25 45.45 22.45 44.1 L22.35 43.95 Q21.85 43.2 21.85 42.7 L21.95 41.95 23.65 41.8 23.95 41.9 M31.3 49.05 L32.5 49.8 33.1 50.3 33.3 50.4 Q33.2 52.35 32.7 53.1 L31.45 52.1 31.3 51.95 29.6 50.1 29.6 50.05 29.9 49.75 29.95 49.75 30.45 49.4 31.3 49.05 M18.9 37.05 L19.25 37.4 19.6 37.85 19.55 39.25 19.2 40.25 18.95 40.65 17.65 40.05 17.55 39.95 Q16.55 38.2 16.6 37.65 16.65 37.25 17.0 37.05 17.3 36.8 17.7 36.8 L18.2 36.85 18.9 37.05 M31.55 50.2 L30.75 49.85 30.3 49.85 30.3 50.0 30.4 50.15 32.65 52.4 32.95 51.45 32.25 50.65 31.55 50.2" fill="#fff452" fill-rule="evenodd" stroke="none"/>
      <path d="M44.2 54.9 L43.65 54.9 43.25 54.3 43.05 54.0 43.05 53.9 43.2 54.0 43.8 54.35 43.95 54.5 44.2 54.9 M36.3 54.9 L35.25 54.9 35.2 54.75 35.35 54.05 35.4 54.0 35.7 54.25 36.05 54.45 36.3 54.9 M44.4 49.6 L44.9 49.5 44.95 49.5 45.0 49.45 45.1 49.6 45.1 49.65 45.0 49.95 44.7 50.6 44.15 52.0 Q43.65 51.5 43.7 49.95 L43.85 49.75 44.25 49.6 44.4 49.6 M31.55 50.2 L32.25 50.65 32.95 51.45 32.65 52.4 30.4 50.15 30.3 50.0 30.3 49.85 30.75 49.85 31.55 50.2" fill="#fbf9bc" fill-rule="evenodd" stroke="none"/>
      <path d="M40.8 29.0 L40.65 29.05 40.1 29.05 38.95 29.0 38.2 28.85 38.1 28.85 38.05 28.8 38.0 27.5 38.4 27.5 38.95 27.65 39.45 27.85 39.8 28.1 40.45 28.6 40.8 29.0 M44.15 39.7 L44.2 39.7 44.7 41.3 44.35 40.9 44.3 40.4 44.15 39.7 M34.3 23.4 L34.15 23.55 34.15 23.6 32.5 23.05 31.15 22.75 30.8 22.45 30.2 21.85 30.75 21.55 31.65 21.7 33.85 22.25 34.3 23.4 M39.5 24.15 L39.1 24.25 Q38.6 24.25 37.9 22.75 L37.95 22.55 38.45 22.45 38.8 22.45 39.4 23.1 39.7 23.5 39.85 23.75 39.75 23.85 39.7 23.9 39.5 24.15" fill="#ffef96" fill-rule="evenodd" stroke="none"/>
      <path d="M45.9 32.1 L45.9 32.2 45.85 32.7 45.85 33.0 45.6 33.1 44.95 33.35 44.7 33.5 44.6 33.5 44.4 33.45 44.2 33.45 44.2 33.1 44.2 32.55 44.6 32.65 45.5 32.25 45.85 32.1 45.9 32.1 M40.3 30.3 L40.35 30.5 40.4 30.6 40.4 30.75 41.85 31.8 Q42.95 32.4 44.2 32.55 L44.2 33.1 44.2 33.45 44.15 33.45 44.1 33.45 Q40.4 32.55 38.8 31.6 L38.4 31.35 37.35 30.35 38.95 30.25 39.1 30.25 40.3 30.3 M23.45 29.55 L23.1 30.1 22.7 30.95 22.45 31.45 21.85 32.75 25.15 36.15 26.55 37.4 27.9 37.85 29.5 38.4 30.65 38.75 31.25 38.7 31.5 38.65 38.15 38.4 39.0 38.4 41.2 38.5 41.2 38.55 41.25 38.75 40.25 38.6 40.15 38.65 Q40.0 38.65 39.8 38.85 L39.55 39.2 39.45 39.2 39.05 39.25 32.9 39.9 29.75 40.65 28.75 40.85 28.65 39.85 28.55 39.85 26.7 40.05 25.4 40.45 22.75 40.0 22.7 39.35 22.7 37.4 20.7 37.3 19.25 37.4 18.9 37.05 18.1 36.0 18.75 34.3 17.25 33.65 15.9 33.25 15.6 32.55 15.4 32.05 14.95 32.1 13.85 32.45 13.95 32.2 14.3 31.35 Q14.05 32.0 14.35 32.0 L14.65 31.95 14.4 32.1 13.95 32.2 14.4 32.1 14.65 31.95 14.7 31.9 14.85 31.8 15.0 31.7 15.55 31.35 15.85 31.15 17.3 31.25 18.8 31.15 19.85 31.1 19.95 31.05 21.0 30.75 21.3 30.7 21.5 30.55 22.5 30.0 Q22.95 29.7 23.45 29.55 M43.95 35.8 L43.6 35.55 Q41.05 35.35 38.65 36.5 L38.55 36.55 38.3 36.75 38.2 36.7 38.05 36.8 37.9 36.7 36.9 35.8 37.15 35.65 37.5 35.4 38.1 35.6 39.0 35.3 43.05 34.75 43.75 34.75 43.85 34.8 44.15 34.85 44.55 35.1 44.45 35.3 43.95 35.8 M43.85 34.8 L43.6 35.55 43.85 34.8 M28.65 38.9 L28.45 38.95 28.65 39.05 28.65 38.9" fill="#c5af7e" fill-rule="evenodd" stroke="none"/>
      <path d="M-0.45 18.85 L-0.45 15.5 1.65 15.4 4.65 15.3 5.1 15.25 5.4 15.25 Q8.7 15.3 11.95 16.05 L14.25 16.75 Q15.75 17.6 17.15 19.25 L17.55 19.75 16.4 18.9 14.2 18.2 13.45 18.15 13.25 18.2 13.45 19.45 13.45 19.5 12.65 18.9 12.45 18.75 Q10.7 17.6 6.45 17.45 L4.75 17.4 2.0 17.45 2.35 17.8 6.4 21.4 Q8.4 23.0 10.3 23.75 L11.0 23.9 Q11.35 24.85 12.55 25.95 L11.75 25.85 11.15 25.75 9.7 25.25 Q7.45 24.35 4.55 22.5 L4.3 22.35 -0.45 18.85" fill="#ffd15c" fill-rule="evenodd" stroke="none"/>
      <path d="M11.0 23.9 L10.3 23.75 Q8.4 23.0 6.4 21.4 L2.35 17.8 2.0 17.45 4.75 17.4 6.45 17.45 Q10.7 17.6 12.45 18.75 L12.65 18.9 13.45 19.5 14.2 20.25 13.65 20.0 11.7 19.7 9.5 19.9 9.4 19.9 9.55 21.05 Q9.8 22.35 10.5 23.25 L11.0 23.85 11.05 23.9 11.0 23.9" fill="#8e190f" fill-rule="evenodd" stroke="none"/>
      <path d="M11.05 23.9 L11.0 23.85 10.5 23.25 Q9.8 22.35 9.55 21.05 L9.4 19.9 9.5 19.9 11.7 19.7 13.65 20.0 14.2 20.25 Q15.65 21.85 16.5 24.3 L15.9 24.3 12.9 24.15 12.2 24.05 11.05 23.9" fill="#5d1719" fill-rule="evenodd" stroke="none"/>
      <path d="M42.35 28.6 L42.85 28.6 43.3 28.55 44.8 28.65 45.6 28.8 45.8 28.85 46.25 29.15 46.75 29.55 46.5 30.45 46.1 31.3 45.1 31.45 43.75 31.5 43.55 31.45 Q42.25 31.0 41.9 30.55 L41.75 30.15 42.15 28.85 42.25 28.6 42.35 28.6 M45.3 30.4 L46.25 29.75 Q46.0 29.3 45.1 29.15 L44.85 29.1 44.05 29.05 44.0 29.05 43.9 29.25 44.5 29.9 44.85 30.2 45.3 30.4" fill="#640f0f" fill-rule="evenodd" stroke="none"/>
      <path d="M46.75 29.55 L46.85 29.6 47.0 30.75 46.95 31.35 46.9 31.45 45.9 32.1 45.85 32.1 45.5 32.25 44.6 32.65 44.2 32.55 Q42.95 32.4 41.85 31.8 L40.4 30.75 40.4 30.6 40.35 30.5 40.3 30.3 40.3 30.25 40.2 29.35 40.35 29.25 40.65 29.05 40.8 29.0 40.95 28.9 41.35 28.8 41.4 28.75 42.25 28.6 42.15 28.85 41.75 30.15 41.9 30.55 Q42.25 31.0 43.55 31.45 L43.75 31.5 45.1 31.45 46.1 31.3 46.5 30.45 46.75 29.55" fill="#3e0c0f" fill-rule="evenodd" stroke="none"/>
      <path d="M45.3 30.4 L44.85 30.2 44.5 29.9 43.9 29.25 44.0 29.05 44.05 29.05 44.85 29.1 45.1 29.15 Q46.0 29.3 46.25 29.75 L45.3 30.4" fill="#cc9e8e" fill-rule="evenodd" stroke="none"/>
      <path d="M45.85 33.0 L45.8 33.1 45.45 35.05 45.3 35.45 45.25 35.65 44.3 36.3 43.95 36.6 43.8 36.65 43.2 38.15 42.05 38.15 Q41.25 38.2 41.2 38.5 L39.0 38.4 38.15 38.4 31.5 38.65 31.25 38.7 30.65 38.75 29.5 38.4 27.9 37.85 26.55 37.4 25.15 36.15 21.85 32.75 22.45 31.45 22.7 30.95 23.1 30.1 23.45 29.55 25.2 29.1 25.4 29.15 26.1 29.45 28.3 29.95 28.55 30.0 29.1 30.15 33.95 30.8 34.7 30.8 35.1 30.8 35.2 30.7 35.25 30.7 37.0 30.4 37.35 30.35 38.4 31.35 38.8 31.6 Q40.4 32.55 44.1 33.45 L44.15 33.45 44.2 33.45 44.1 33.75 43.95 34.45 43.9 34.75 43.85 34.8 43.9 34.75 43.95 34.45 44.1 33.75 44.2 33.45 44.4 33.45 44.6 33.5 44.7 33.5 44.95 33.35 45.6 33.1 45.85 33.0 M43.95 35.8 L44.05 35.85 44.3 36.3 44.05 35.85 43.95 35.8 44.45 35.3 44.55 35.1 44.15 34.85 43.85 34.8 43.75 34.75 43.05 34.75 39.0 35.3 38.1 35.6 37.5 35.4 37.15 35.65 36.9 35.8 37.9 36.7 38.05 36.8 38.2 36.7 38.3 36.75 38.55 36.55 38.65 36.5 Q41.05 35.35 43.6 35.55 L43.95 35.8" fill="#f9f0d3" fill-rule="evenodd" stroke="none"/>
      <path d="M40.1 26.95 L40.2 27.65 39.95 27.6 39.6 27.3 39.55 27.25 38.95 26.85 38.75 26.7 39.0 26.4 39.1 26.2 39.45 25.6 39.6 25.3 39.75 25.6 39.9 26.1 39.9 26.2 40.1 26.95 M30.55 26.15 L30.35 26.6 30.5 26.95 30.6 27.1 30.3 27.55 29.9 27.7 Q29.3 27.7 29.0 27.15 L28.75 26.4 28.85 25.85 30.55 26.05 30.55 26.15" fill="#1e1108" fill-rule="evenodd" stroke="none"/>
      <path d="M28.3 29.95 L26.1 29.45 25.4 29.15 25.2 29.1 25.1 29.05 24.75 28.85 23.9 28.15 23.15 27.15 Q22.6 26.05 22.5 25.05 L20.85 24.15 20.85 24.1 21.5 24.4 22.45 24.7 22.6 24.75 27.0 24.05 28.35 23.95 31.4 24.2 32.55 24.6 Q33.65 25.1 34.1 25.75 L34.25 25.95 34.25 25.9 34.5 26.1 34.75 26.45 33.8 26.9 33.95 27.5 34.05 28.35 34.05 28.5 34.25 28.75 33.1 28.65 32.2 29.05 31.95 29.15 32.05 29.05 32.4 28.85 32.4 28.8 32.65 28.6 32.55 28.55 32.55 28.25 32.55 28.2 32.4 26.6 32.25 25.9 32.05 25.65 Q31.65 25.3 31.4 25.3 L31.3 25.3 31.3 25.25 31.1 25.2 28.45 24.95 27.45 24.95 26.55 25.0 23.6 25.4 23.5 25.4 23.3 25.35 Q23.35 26.4 24.05 27.65 L24.7 28.55 25.35 29.05 26.1 29.4 26.25 29.45 26.35 29.45 26.6 29.5 26.65 29.5 27.0 29.6 27.3 29.6 27.35 29.6 28.2 29.7 28.3 29.7 28.55 29.7 29.7 29.65 30.05 29.6 30.15 29.6 30.45 29.55 31.95 29.15 30.85 29.65 29.95 30.0 29.25 29.95 28.85 29.95 28.3 29.95 M26.55 25.0 L26.65 24.7 26.55 25.0" fill="#100904" fill-rule="evenodd" stroke="none"/>
      <path d="M26.55 25.0 L27.45 24.95 28.45 24.95 31.1 25.2 31.3 25.25 31.3 25.3 31.4 25.3 Q31.65 25.3 32.05 25.65 L32.25 25.9 32.4 26.6 32.55 28.2 32.45 28.4 32.4 28.5 Q32.45 27.15 31.65 26.5 L31.6 26.35 Q31.45 26.1 31.1 26.15 L30.85 26.1 30.55 26.15 30.55 26.05 28.85 25.85 28.75 26.4 29.0 27.15 Q29.3 27.7 29.9 27.7 L30.3 27.55 30.6 27.1 31.2 27.25 31.3 27.25 Q31.25 27.85 30.75 28.15 L30.1 28.3 Q29.05 28.25 28.55 27.6 28.1 26.95 28.15 25.85 L27.3 25.95 27.05 26.15 26.25 26.7 26.3 26.15 26.3 26.05 26.55 25.0" fill="#44090b" fill-rule="evenodd" stroke="none"/>
      <path d="M30.55 26.15 L30.85 26.1 31.1 26.15 Q31.45 26.1 31.6 26.35 L31.65 26.5 31.7 26.8 31.5 27.15 31.3 27.25 31.2 27.25 30.6 27.1 30.5 26.95 30.35 26.6 30.55 26.15" fill="#fff4e5" fill-rule="evenodd" stroke="none"/>
      <path d="M31.3 27.25 L31.5 27.15 31.7 26.8 31.65 26.5 Q32.45 27.15 32.4 28.5 L32.3 28.6 32.15 28.75 32.05 28.8 32.05 28.85 31.95 28.9 31.4 29.25 30.15 29.6 30.05 29.6 Q28.5 29.55 27.65 28.25 27.0 27.3 27.0 26.5 L27.05 26.15 27.3 25.95 28.15 25.85 Q28.1 26.95 28.55 27.6 29.05 28.25 30.1 28.3 L30.75 28.15 Q31.25 27.85 31.3 27.25" fill="#f5b84e" fill-rule="evenodd" stroke="none"/>
      <path d="M32.55 28.2 L32.55 28.25 32.55 28.55 32.65 28.6 32.4 28.8 32.4 28.85 32.05 29.05 31.95 29.15 30.45 29.55 30.15 29.6 31.4 29.25 31.95 28.9 32.05 28.85 32.05 28.8 32.15 28.75 32.3 28.6 32.4 28.5 32.45 28.4 32.55 28.2 M27.05 26.15 L27.0 26.5 Q27.0 27.3 27.65 28.25 28.5 29.55 30.05 29.6 L29.7 29.65 28.55 29.7 28.3 29.7 28.2 29.7 27.45 29.05 Q26.45 28.1 26.25 26.7 L27.05 26.15" fill="#97540d" fill-rule="evenodd" stroke="none"/>
      <path d="M26.25 26.7 Q26.45 28.1 27.45 29.05 L28.2 29.7 27.35 29.6 27.3 29.6 27.0 29.6 26.65 29.5 26.6 29.5 26.35 29.45 26.25 29.45 26.1 29.4 25.35 29.05 24.7 28.55 24.1 27.25 Q24.1 27.0 24.85 26.6 25.5 26.25 26.3 26.05 L26.3 26.15 26.25 26.7" fill="#ffffed" fill-rule="evenodd" stroke="none"/>
      <path d="M26.3 26.05 Q25.5 26.25 24.85 26.6 24.1 27.0 24.1 27.25 L24.7 28.55 24.05 27.65 Q23.35 26.4 23.3 25.35 L23.5 25.4 23.6 25.4 26.55 25.0 26.3 26.05" fill="#e9cfb9" fill-rule="evenodd" stroke="none"/>
      <path d="M45.45 35.05 L45.6 35.5 46.55 38.15 M46.6 38.2 L46.6 38.3 46.7 38.55 47.6 41.45 49.05 38.35 49.7 36.95 51.35 33.9 Q53.05 30.9 54.9 28.2 M54.9 39.95 L52.95 43.85 M51.65 52.2 L51.75 52.0 52.3 51.2 54.9 47.55 M54.7 54.9 L54.75 54.6 54.9 54.05" fill="none" stroke="#4d0e06" stroke-linecap="round" stroke-linejoin="round" stroke-width="1.0"/>
      <path d="M13.9 13.35 L13.9 13.4 14.05 13.55 15.1 14.85 Q17.4 13.6 17.95 13.6 L19.1 15.05 19.4 15.5 M42.85 14.7 Q42.45 16.25 41.65 17.55 L40.7 18.8 39.15 20.15 41.1 21.0 Q41.85 20.1 43.1 19.3 L44.5 18.45 44.7 19.15 44.85 21.95 Q44.85 24.7 43.05 27.6 L42.35 28.6 M46.55 38.15 L46.6 38.15 46.6 38.2 45.05 39.35 44.2 39.7 44.15 39.7 M-0.45 10.65 L3.9 10.3 4.3 10.3 6.25 10.35 5.3 9.15 5.05 8.8 Q3.65 6.75 3.2 4.9 L3.05 3.45 M3.05 3.25 Q3.45 4.0 4.45 4.4 L5.1 4.65 8.95 5.05 9.7 5.05 12.4 5.25 M-0.2 26.75 L-0.45 27.55 M0.9 35.9 L0.05 36.55 -0.05 36.6 -0.45 36.95 M41.2 10.8 L42.2 10.4 43.3 9.75 43.3 11.15 Q43.3 13.05 42.85 14.7 M41.2 10.8 L40.55 10.95 Q39.45 11.0 36.85 12.25 34.6 13.3 33.05 15.15 M43.95 36.6 L44.55 37.05 Q46.05 38.1 46.55 38.15 M44.7 41.3 L44.35 40.9 M41.25 38.75 L40.25 38.6 40.15 38.65 Q40.0 38.65 39.8 38.85 L39.55 39.2 39.5 39.25 39.3 39.5 38.65 39.55 36.0 39.9 35.6 40.05 35.65 40.05 Q35.8 39.95 36.0 39.9 M50.5 49.2 L49.0 46.25 47.6 44.35 47.5 44.35 46.35 43.35 44.7 41.3 44.2 39.7 M26.7 40.05 L25.4 40.45 24.8 40.65 23.6 41.1 22.8 41.4 22.7 41.35 22.75 40.5 22.75 40.0 25.4 40.45 M50.5 49.2 L50.6 49.4 51.0 50.35 51.45 51.55 51.65 52.2 51.8 52.75 52.2 54.9 M27.1 10.4 L28.0 11.1 Q30.55 13.1 32.5 15.8 L31.5 17.55 M18.95 21.75 L19.15 21.55 22.25 18.45 23.65 17.2 M23.7 17.2 L24.15 17.25 Q26.3 18.6 29.5 19.85 L33.3 21.15 M33.4 21.2 L33.9 21.05 34.65 20.9 35.6 21.0 37.2 20.9 37.75 20.75 39.15 20.15 M7.75 11.95 L6.25 10.35 M13.9 13.35 L13.05 12.8 M17.05 26.05 L16.95 26.3 19.9 26.95 18.55 28.8 16.0 31.0 15.85 31.15 15.55 31.35 15.0 31.7 14.85 31.8 14.7 31.9 14.65 31.95 M12.7 32.95 L13.85 32.45 14.95 32.1 15.4 32.05 15.6 32.55 15.9 33.25 17.25 33.65 18.75 34.3 18.1 36.0 M19.25 37.4 L20.7 37.3 22.7 37.4 22.7 39.35 22.75 40.0 M9.5 35.0 Q10.3 34.35 11.3 33.75 L12.7 32.95 M1.35 32.2 L1.55 32.35 2.4 32.9 3.4 33.55 4.0 33.85 2.8 34.55 0.9 35.9 M-0.45 31.0 L0.7 31.8 1.35 32.2 M9.5 35.0 L9.1 35.25 7.2 36.85 6.9 37.15 5.3 38.65 4.3 39.4 3.75 39.95 3.2 40.6 Q0.85 43.15 -0.45 46.05 M3.2 39.9 L0.55 39.45 0.05 39.35 -0.45 39.25 M3.2 39.9 L3.75 39.95 M26.7 40.05 L28.55 39.85 28.65 39.85 28.75 40.85 28.75 41.15 32.2 40.9 M32.45 40.85 L33.2 40.7 33.65 40.6 35.55 40.05 35.6 40.05 M39.5 39.25 L39.45 39.2 M11.05 47.55 Q8.9 51.25 7.8 54.9" fill="none" stroke="#4a1a0c" stroke-linecap="round" stroke-linejoin="round" stroke-width="1.0"/>
      <path d="M32.5 15.8 L33.05 15.15 M19.85 16.15 L20.2 16.6 M23.65 17.2 L23.7 17.2 M33.3 21.15 L33.4 21.2 M19.85 16.15 L19.4 15.5 M14.65 31.95 L14.4 32.1 13.95 32.2" fill="none" stroke="#000000" stroke-linecap="round" stroke-linejoin="round" stroke-width="1.0"/>
      <path d="M-0.45 21.55 L-0.25 21.8 0.6 23.05 1.1 23.75 4.35 28.15 6.25 30.75 6.85 31.55 7.4 32.2 9.45 34.95 9.5 35.0 M41.2 38.5 Q41.25 38.2 42.05 38.15 L43.2 38.15 43.35 38.15 Q43.75 38.4 43.95 39.1 L44.15 39.7 44.3 40.4 44.35 40.9 44.35 41.25 Q44.35 41.7 43.95 42.05 L43.4 42.3 42.6 42.0 Q41.75 41.25 41.25 38.75 L41.2 38.55 41.2 38.5 M42.45 43.8 L42.75 43.55 43.0 43.45 43.05 43.45 44.2 43.6 Q44.95 44.0 45.45 44.95 45.85 45.8 45.75 46.8 L45.75 46.95 Q45.65 47.65 45.1 47.95 L43.95 48.1 43.7 47.95 43.2 47.65 42.45 46.65 42.1 45.75 42.1 44.8 Q42.15 44.15 42.45 43.8 M44.4 49.6 L44.9 49.5 44.95 49.5 45.0 49.45 45.1 49.6 45.2 49.75 45.65 50.55 Q46.6 52.5 46.6 54.7 L46.6 54.9 M23.95 41.9 Q24.8 42.2 25.45 43.1 L26.05 44.4 26.1 45.1 25.9 46.1 25.35 46.75 25.25 46.85 23.6 47.05 Q22.55 46.65 21.85 45.7 L21.6 45.45 Q21.1 44.55 21.15 43.65 21.15 42.6 21.9 42.0 L21.95 41.95 23.65 41.8 23.95 41.9 M28.75 48.7 L29.2 48.65 29.25 48.7 30.65 48.75 31.3 49.05 32.5 49.8 33.1 50.3 33.3 50.4 33.4 50.5 33.45 51.2 33.2 53.4 32.95 54.15 32.75 54.8 32.7 54.9 M33.6 54.9 L33.85 54.6 34.5 53.7 34.9 53.15 35.0 53.1 35.75 52.8 36.75 54.9 M4.65 15.3 L4.35 14.95 3.0 13.3 2.45 13.25 1.35 13.1 1.3 13.1 0.85 12.75 -0.45 11.55 M14.55 30.65 L15.55 28.1 15.55 27.95 14.0 26.15 M13.85 32.45 L13.95 32.2 14.3 31.35 14.35 31.25 14.45 31.0 14.55 30.65 M18.1 36.0 L18.9 37.05 19.25 37.4 19.6 37.85 19.55 39.25 19.2 40.25 18.95 40.65 17.65 40.05 17.55 39.95 16.1 38.5 12.85 35.3 Q13.0 34.65 13.3 34.05 13.8 32.9 14.4 33.0 L15.9 33.45 16.1 33.55 17.55 35.3 18.1 36.0 M30.75 54.9 L30.25 54.45 29.2 53.3 Q27.65 51.5 26.8 49.9 L27.0 49.55 Q27.55 48.8 28.75 48.7 M43.7 49.95 L43.4 50.4 43.1 50.95 43.0 51.2 42.9 51.35 42.75 51.8 42.55 52.6 42.75 53.05 42.85 53.1 43.85 53.35 44.5 54.05 44.65 54.35 44.9 54.9 M43.7 49.95 L43.85 49.75 44.25 49.6 44.4 49.6 M42.0 52.95 L41.3 54.9 M42.0 52.95 L42.75 53.05" fill="none" stroke="#430805" stroke-linecap="round" stroke-linejoin="round" stroke-width="1.0"/>
      <path d="M44.2 33.45 L44.2 33.1 44.2 32.55 M43.85 34.8 L43.9 34.75 43.95 34.45 44.1 33.75 44.2 33.45 M43.8 36.65 L43.95 36.6 44.3 36.3 44.05 35.85 43.95 35.8 43.6 35.55 Q41.05 35.35 38.65 36.5 L38.55 36.55 38.3 36.75 M43.6 35.55 L43.85 34.8" fill="none" stroke="#33140d" stroke-linecap="round" stroke-linejoin="round" stroke-width="1.0"/>
      <path d="M3.05 3.45 L3.05 3.25" fill="none" stroke="#2f0200" stroke-linecap="round" stroke-linejoin="round" stroke-width="1.0"/>
      <path d="M10.25 29.9 L10.0 29.5 9.9 29.4 4.55 22.5 M10.25 29.9 L12.7 32.95" fill="none" stroke="#692808" stroke-linecap="round" stroke-linejoin="round" stroke-width="1.0"/>
      <path d="M42.35 28.6 L42.85 28.6 43.3 28.55 44.8 28.65 45.6 28.8 45.8 28.85 46.25 29.15 46.75 29.55 46.85 29.6 47.0 30.75 46.95 31.35 46.9 31.45 45.9 32.1 45.9 32.2 45.85 32.7 45.85 33.0 45.8 33.1 45.45 35.05 45.3 35.45 45.25 35.65 44.3 36.3 M4.55 22.5 L4.3 22.35 -0.45 18.85 M35.2 19.7 L35.25 19.7 M42.25 28.6 L41.4 28.75 41.35 28.8 40.95 28.9 40.8 29.0 40.65 29.05 40.35 29.25 40.2 29.35 40.3 30.25 40.3 30.3 40.35 30.5 40.4 30.6 40.4 30.75 41.85 31.8 Q42.95 32.4 44.2 32.55 L44.6 32.65 45.5 32.25 45.85 32.1 45.9 32.1 M42.35 28.6 L42.25 28.6 M41.25 28.65 L41.25 28.7 41.35 28.8 41.25 28.65 M41.4 28.75 L40.6 28.1 40.2 27.8 39.95 27.6 M43.2 38.15 L43.8 36.65 M40.1 26.95 L40.2 27.65 40.2 27.8 M38.25 21.85 L37.7 21.3 37.2 20.9 M38.8 22.45 L38.65 22.3 38.3 21.9 38.25 21.85 M39.85 23.75 L39.7 23.5 39.4 23.1 38.8 22.45 M39.85 23.75 L39.9 23.85 40.0 24.1 39.75 25.0 39.6 25.3 39.75 25.6 39.9 26.1 39.9 26.2 40.1 26.95 M5.4 15.25 L5.1 15.25 4.65 15.3 1.65 15.4 -0.45 15.5 M17.55 19.75 L17.15 19.25 Q15.75 17.6 14.25 16.75 L11.95 16.05 Q8.7 15.3 5.4 15.25 M20.05 24.55 L19.4 22.75 18.95 21.75 17.55 19.75 M17.05 26.05 L17.5 26.0 18.0 25.9 M14.0 26.15 L14.95 26.15 16.1 26.05 16.5 26.05 17.0 26.05 17.05 26.05 M14.0 26.15 L13.15 26.05 12.55 25.95 11.75 25.85 11.15 25.75 9.7 25.25 Q7.45 24.35 4.55 22.5 M39.6 25.3 L39.45 25.6 39.1 26.2 39.0 26.4 38.75 26.7 M28.75 40.85 L29.75 40.65 32.9 39.9 39.05 39.25 39.45 39.2 39.55 39.2" fill="none" stroke="#3f1104" stroke-linecap="round" stroke-linejoin="round" stroke-width="1.0"/>
      <path d="M38.75 26.7 L38.45 26.55 M38.0 26.4 L37.85 26.3" fill="none" stroke="#270b03" stroke-linecap="round" stroke-linejoin="round" stroke-width="1.0"/>
      <path d="M34.25 25.9 L35.4 24.7 35.0 23.3 34.5 22.6 M38.45 26.55 L38.0 26.4 36.95 26.8 Q35.75 27.35 35.45 27.85 M37.85 26.3 L37.9 26.05 37.9 25.15 37.9 24.3" fill="none" stroke="#62230b" stroke-linecap="round" stroke-linejoin="round" stroke-width="1.0"/>
      <path d="M26.25 26.7 Q26.45 28.1 27.45 29.05 L28.2 29.7 M26.25 26.7 L26.3 26.15 26.3 26.05 26.55 25.0 26.65 24.7" fill="none" stroke="#1c0a01" stroke-linecap="round" stroke-linejoin="round" stroke-width="1.0"/>
      <path d="M19.25 6.6 L19.3 6.55 20.65 4.1 17.6 0.15 17.15 -0.45 M5.4 -0.45 Q8.9 1.4 11.5 4.15 L12.4 5.25 13.85 7.8 Q14.95 10.6 13.9 13.35 M22.3 1.7 L21.95 2.1 20.65 4.1 M24.15 -0.45 L22.9 0.9 22.3 1.7 M30.15 4.6 L29.75 2.75 Q29.3 1.0 28.25 -0.45 M32.4 -0.45 L33.1 0.95 34.8 4.85 36.25 9.55 36.4 9.55 Q37.7 9.25 39.3 7.9 L39.95 7.35 41.2 6.1 41.4 5.9 41.9 5.25 43.95 3.2 44.6 2.75 Q44.95 2.5 45.25 2.3 46.25 1.7 47.15 1.6 L47.95 2.2 Q48.8 3.15 48.8 6.35 L48.65 9.0 Q47.6 10.65 45.6 12.45 L42.85 14.7 M36.25 9.55 Q35.15 9.75 34.9 10.3 L34.5 11.7 M30.15 4.6 L30.2 6.65 30.15 6.7 27.1 10.35 27.1 10.4 25.65 11.8 22.35 14.5 19.85 16.15 M27.1 10.35 L27.1 10.4 M19.25 6.6 L18.9 7.35" fill="none" stroke="#4d1a11" stroke-linecap="round" stroke-linejoin="round" stroke-width="1.0"/>
    </g>
    <g id="shape2" transform="matrix(1.0, 0.0, 0.0, 1.0, 0.0, 0.0)">
      <path d="M50.5 0.0 Q53.95 0.0 53.95 3.3 L53.95 50.15 Q53.95 53.4 50.5 53.4 L3.3 53.4 Q0.0 53.4 0.0 50.15 L0.0 3.3 Q0.0 0.0 3.3 0.0 L50.5 0.0" fill="#000000" fill-opacity="0.003921569" fill-rule="evenodd" stroke="none"/>
    </g>
  </defs>
</svg>
