<?xml version="1.0" encoding="UTF-8" standalone="no"?>
<svg xmlns:ffdec="https://www.free-decompiler.com/flash" xmlns:xlink="http://www.w3.org/1999/xlink" ffdec:objectType="frame" height="55.4px" width="56.3px" xmlns="http://www.w3.org/2000/svg">
  <g transform="matrix(1.0, 0.0, 0.0, 1.0, 0.6, 0.8)">
    <clipPath id="clipPath0" transform="matrix(1.0, 0.0, 0.0, 1.0, 0.0, 0.0)">
      <path d="M50.5 0.0 Q53.95 0.0 53.95 3.3 L53.95 50.15 Q53.95 53.4 50.5 53.4 L3.3 53.4 Q0.0 53.4 0.0 50.15 L0.0 3.3 Q0.0 0.0 3.3 0.0 L50.5 0.0" fill="#000000" fill-rule="evenodd" stroke="none"/>
    </clipPath>
    <g clip-path="url(#clipPath0)">
      <use ffdec:characterId="2" height="55.4" transform="matrix(1.0, 0.0, 0.0, 1.0, -0.6, -0.8)" width="56.3" xlink:href="#shape1"/>
    </g>
    <use ffdec:characterId="3" height="53.4" transform="matrix(1.0, 0.0, 0.0, 1.0, 0.0, 0.0)" width="53.95" xlink:href="#shape2"/>
  </g>
  <defs>
    <g id="shape1" transform="matrix(1.0, 0.0, 0.0, 1.0, 0.6, 0.8)">
      <path d="M1.95 -0.8 L3.05 -0.8 1.95 2.75 1.2 5.55 Q0.4 8.4 0.15 9.75 L0.1 10.95 0.25 12.1 Q1.7 11.3 4.15 10.4 L4.8 10.2 8.15 9.1 10.8 8.4 11.15 8.45 15.0 10.95 15.2 10.9 20.1 10.85 25.9 11.1 Q29.1 11.45 34.8 13.05 L35.55 13.25 37.75 11.45 38.15 11.35 Q38.35 11.35 38.5 11.5 L40.5 12.65 41.45 13.1 41.65 13.25 41.85 13.45 42.05 12.95 42.1 12.95 42.4 12.3 42.9 10.6 Q43.55 8.05 42.75 6.95 L42.65 6.8 41.15 5.25 41.1 5.2 39.75 3.7 39.5 2.95 39.55 2.55 39.6 2.5 Q40.25 0.95 41.05 -0.15 L41.55 -0.8 43.0 -0.8 41.95 0.45 40.55 2.95 40.65 3.15 40.85 3.4 41.85 4.45 43.6 6.3 44.2 7.7 Q44.4 9.0 43.9 10.9 L43.9 10.85 43.35 12.7 43.05 13.4 42.6 14.35 42.95 14.85 43.35 15.5 45.0 17.35 45.05 17.5 45.15 18.75 45.1 19.8 45.2 20.0 45.85 23.15 45.9 23.35 45.95 23.6 46.6 25.05 47.15 25.75 47.15 25.8 48.75 27.05 48.85 27.15 48.9 27.2 50.3 28.2 51.3 28.35 51.45 28.4 51.5 28.55 Q51.8 29.0 51.9 31.45 L51.85 31.5 51.85 31.65 51.75 31.75 50.75 32.6 49.5 33.7 48.95 34.7 48.9 34.8 48.95 34.8 51.5 35.3 52.35 35.55 54.35 34.85 54.3 34.85 54.65 34.7 54.7 34.7 55.25 34.5 55.3 34.5 55.7 34.3 55.7 35.45 55.05 35.7 55.0 35.7 54.7 35.85 53.6 36.25 53.65 36.45 54.05 37.3 55.7 39.1 55.7 43.05 54.4 40.6 53.3 38.2 52.7 36.9 52.65 36.85 50.65 36.0 49.2 35.55 49.15 35.55 48.45 35.3 47.8 35.15 47.75 35.1 47.65 35.1 41.65 34.15 38.1 33.9 37.5 33.85 37.4 33.85 32.15 33.6 31.9 33.55 31.7 33.55 29.4 33.5 28.15 33.45 27.55 33.5 27.5 33.5 27.35 33.55 27.3 33.55 Q26.7 33.65 26.05 33.9 L25.95 33.9 21.1 37.6 21.0 37.65 Q20.85 37.7 20.75 37.85 L20.25 38.1 17.4 39.65 17.35 39.65 17.25 39.7 15.6 40.35 15.4 40.4 15.25 40.45 15.25 40.5 15.05 40.7 14.85 40.7 14.45 40.45 14.05 40.15 13.6 39.7 13.55 39.6 13.5 39.6 13.5 39.55 13.5 39.35 13.55 39.25 13.65 39.15 13.9 39.1 13.95 39.15 Q14.85 37.05 16.4 34.55 L17.8 32.45 18.35 31.75 18.35 31.7 18.75 31.3 19.85 30.35 Q21.35 29.65 22.45 29.5 L23.05 29.5 27.25 29.5 27.5 29.5 28.4 29.5 28.55 29.5 28.8 29.6 34.45 29.7 36.25 29.8 37.5 29.9 41.65 30.45 Q43.8 30.9 45.5 31.5 L45.7 31.65 45.7 31.85 45.3 33.05 44.8 33.95 47.65 34.45 49.0 33.35 50.15 32.3 50.35 32.1 51.25 31.35 51.25 31.3 51.05 29.1 51.05 28.95 50.05 28.8 45.15 27.95 41.65 27.3 39.05 26.8 38.75 26.75 37.4 26.5 32.15 25.95 31.9 25.95 31.15 25.85 27.45 25.6 27.2 25.6 25.6 25.45 25.3 25.55 23.55 26.25 23.0 26.5 Q22.2 26.85 21.4 27.35 19.85 28.25 18.25 29.5 L17.1 30.4 16.4 31.0 16.0 31.35 15.55 31.75 12.65 34.45 12.25 34.95 11.55 36.0 11.35 36.35 11.1 36.8 10.95 37.15 10.1 39.5 9.7 40.9 9.5 41.55 9.25 42.8 9.2 43.05 9.2 43.3 9.2 43.4 9.2 43.5 8.7 46.05 8.75 46.15 8.95 46.5 9.55 47.1 12.2 47.35 Q14.55 47.3 17.3 46.45 L17.25 45.85 Q17.25 45.45 17.4 44.95 17.65 44.3 18.05 44.0 19.75 42.9 21.65 42.1 24.25 40.95 26.6 40.45 L26.55 40.45 27.35 40.3 28.55 40.15 28.75 40.15 31.9 40.05 32.95 40.05 38.6 40.15 40.1 40.25 40.4 40.3 41.65 40.5 45.4 41.45 46.1 41.65 49.85 42.8 50.75 43.1 50.8 43.15 51.75 44.3 52.65 46.0 53.05 46.85 53.9 46.45 55.0 45.65 55.4 45.25 55.7 44.9 55.7 46.3 55.4 46.45 54.7 46.75 54.45 46.85 52.8 47.5 52.65 47.4 52.6 47.3 52.55 47.5 52.5 48.1 52.45 48.4 52.45 48.75 52.45 48.8 Q52.7 49.8 53.15 50.25 L53.2 50.35 53.45 50.85 53.95 51.9 54.0 52.0 55.15 54.6 54.45 54.6 53.9 53.35 53.75 52.9 53.0 51.3 52.65 50.65 Q52.3 50.3 52.05 49.55 L51.7 48.45 51.7 48.4 51.65 48.1 51.5 47.0 51.5 46.95 51.55 45.5 50.45 43.7 45.7 42.2 45.55 42.65 45.4 43.0 Q45.2 43.65 45.15 44.4 45.0 45.15 45.0 46.0 L45.0 46.2 45.05 46.9 45.05 47.05 45.1 47.65 45.1 47.8 45.15 48.05 45.3 48.8 Q45.65 50.7 46.2 51.4 L47.7 53.7 48.15 54.6 47.45 54.6 47.15 54.0 46.65 53.15 45.7 51.8 45.05 50.45 44.6 48.5 44.45 47.9 44.45 47.7 44.45 47.4 44.4 46.75 44.4 46.35 44.4 46.05 44.4 46.0 Q44.4 44.95 44.55 44.1 44.6 43.4 44.8 42.85 L44.95 42.4 45.1 42.0 41.65 41.15 40.0 40.9 38.55 40.8 37.9 40.75 37.7 41.05 37.45 41.4 37.2 41.75 Q36.4 42.95 35.95 44.05 L35.8 44.5 35.65 44.95 35.6 45.2 35.55 45.35 Q35.35 46.2 35.3 47.0 L35.15 48.4 35.1 49.4 35.1 49.6 35.15 51.1 35.4 54.05 35.6 54.6 34.9 54.6 34.75 54.25 34.75 54.15 34.55 51.15 34.5 49.6 34.5 49.4 34.5 48.65 34.6 47.05 34.9 45.25 34.95 45.15 35.0 44.95 35.15 44.4 35.3 43.95 Q35.7 42.9 36.5 41.7 L36.85 41.15 37.05 40.85 37.15 40.75 32.95 40.7 31.9 40.7 28.8 40.75 28.75 40.75 28.6 40.8 27.65 40.9 26.75 41.95 25.65 43.65 24.85 45.15 24.75 45.3 24.25 46.8 24.15 47.0 23.7 49.3 23.2 53.4 23.2 54.0 23.25 54.6 22.6 54.6 22.6 54.05 22.55 53.35 23.05 49.45 23.6 46.65 24.0 45.45 24.1 45.25 24.15 45.1 24.9 43.65 25.4 42.75 25.9 42.1 26.65 41.1 Q24.35 41.55 21.9 42.65 20.05 43.45 18.35 44.55 L18.0 45.15 18.0 45.2 17.85 45.85 17.95 46.35 18.0 46.5 18.0 46.65 17.95 46.85 17.8 46.9 13.85 47.9 13.55 47.9 12.2 48.0 10.55 47.9 9.25 47.65 9.2 47.6 8.5 46.9 8.15 46.4 8.15 46.35 8.05 46.15 8.05 46.05 8.1 45.95 8.5 43.7 8.15 43.95 Q6.5 45.05 3.15 45.8 L-0.6 46.55 -0.6 45.9 3.0 45.2 Q6.6 44.35 8.15 43.15 L8.2 43.1 8.3 43.05 8.6 43.0 8.6 42.95 9.05 41.0 Q9.2 40.2 9.5 39.3 L10.15 37.35 10.4 36.9 10.55 36.55 Q11.1 35.35 11.75 34.55 L12.2 34.0 Q13.3 32.85 14.9 31.5 L14.95 31.4 15.1 31.3 16.7 29.9 17.85 28.95 Q19.5 27.7 21.1 26.8 22.2 26.15 23.25 25.7 L23.8 25.45 25.45 24.85 25.55 24.85 25.65 24.85 27.25 24.95 27.3 24.95 27.5 25.0 31.2 25.25 31.9 25.3 32.2 25.3 36.5 25.75 37.5 25.9 37.95 25.95 37.9 25.8 37.95 25.6 38.2 25.25 39.2 24.15 40.35 23.0 41.0 22.4 42.75 20.9 44.45 19.65 44.55 18.75 44.45 17.7 44.4 17.6 42.85 15.9 42.15 15.3 41.35 14.5 41.3 14.45 41.05 14.2 40.85 14.0 40.8 13.95 40.7 13.9 40.05 13.6 40.05 13.55 38.15 12.55 36.3 14.05 35.85 14.3 Q35.45 14.6 34.8 15.45 L33.95 16.65 33.95 16.7 33.9 16.7 33.75 17.6 33.65 19.05 33.7 19.8 33.65 20.0 33.45 20.15 33.2 20.1 33.05 19.9 33.05 19.65 33.0 19.05 33.1 17.55 33.3 16.55 33.3 16.5 33.45 16.3 34.8 14.45 35.05 14.2 34.8 14.15 34.7 14.15 31.25 13.25 25.75 12.15 20.1 11.9 16.05 12.0 Q18.9 13.35 22.1 14.3 L24.3 14.9 24.5 15.0 Q25.75 17.1 25.7 19.65 L25.7 19.8 25.6 20.0 25.4 20.05 25.15 19.95 25.1 19.9 25.05 19.75 Q25.15 17.4 24.0 15.45 19.0 14.25 14.65 12.0 L14.45 11.85 14.4 11.85 14.2 11.75 14.05 11.55 13.15 10.9 10.8 9.5 8.15 10.2 4.8 11.3 4.55 11.4 Q3.75 11.7 3.1 11.95 1.5 12.6 0.5 13.15 L0.55 13.65 0.6 14.05 0.9 17.15 1.0 17.5 1.0 17.65 1.05 17.75 1.2 18.3 1.95 21.0 Q2.6 21.15 3.2 21.6 L3.45 21.7 3.5 21.75 3.65 21.9 3.75 22.0 3.9 22.1 5.2 23.5 Q6.9 25.8 7.15 29.9 7.3 32.65 5.75 35.0 L5.65 35.1 5.55 35.25 3.65 37.35 Q1.6 39.1 -0.6 39.95 L-0.6 39.25 Q1.4 38.5 3.2 36.9 L4.7 35.35 5.05 34.9 5.2 34.8 5.25 34.65 Q6.65 32.5 6.5 29.95 L6.15 27.3 Q5.7 25.25 4.65 23.9 L3.5 22.55 3.4 22.45 3.25 22.4 2.2 21.75 2.8 22.9 3.7 24.1 3.75 24.25 3.9 24.4 4.0 24.6 Q4.55 25.8 4.75 27.05 L4.85 28.7 Q4.85 30.05 3.85 32.25 L3.1 33.5 Q1.7 35.45 -0.6 36.1 L-0.6 35.4 Q1.8 34.7 3.05 32.35 L3.3 31.95 Q4.25 29.9 4.25 28.7 L4.25 28.65 Q4.25 26.65 3.45 24.85 L3.45 24.9 3.3 24.65 3.3 24.5 3.2 24.45 3.15 24.4 2.4 23.4 2.35 23.35 1.55 21.7 1.45 21.45 1.4 21.3 1.25 20.9 0.65 18.7 0.45 17.9 0.45 17.75 0.4 17.6 -0.25 14.65 -0.45 13.75 -0.55 13.05 -0.6 12.95 -0.6 8.3 0.05 5.75 0.95 2.45 1.95 -0.8 M47.05 -0.8 L47.75 -0.8 47.15 0.4 46.3 1.45 45.3 2.15 45.2 2.3 45.0 2.35 44.7 2.35 44.65 2.35 42.8 1.8 42.7 1.65 42.7 1.5 Q42.7 1.25 43.0 0.75 L43.4 0.15 43.45 0.1 43.65 0.05 43.85 0.1 44.0 0.3 43.9 0.55 43.55 1.05 43.35 1.45 44.25 1.65 44.7 1.7 45.85 1.0 46.6 0.1 46.6 0.05 47.05 -0.8 M50.35 -0.8 L52.15 -0.8 53.0 -0.05 53.05 0.05 55.7 4.1 55.7 6.1 55.25 5.4 52.2 0.65 50.35 -0.8 M44.15 21.75 L43.85 20.95 43.8 20.9 43.5 21.15 43.2 21.35 41.45 22.85 41.15 23.1 40.75 23.45 40.8 23.45 40.55 23.7 40.55 23.75 Q40.7 24.55 41.3 25.25 42.1 26.1 43.25 26.1 44.05 26.1 44.4 25.5 L44.6 24.25 44.5 23.25 44.3 22.35 44.25 22.2 44.15 21.75 M38.45 26.05 L39.2 26.2 41.65 26.65 45.3 27.3 48.85 27.9 48.75 27.85 48.7 27.8 48.55 27.7 46.7 26.25 46.5 25.95 Q45.6 24.95 45.3 23.5 L45.25 23.3 45.15 23.05 44.75 21.3 44.6 20.35 44.35 20.55 44.7 21.35 44.85 22.0 44.85 22.05 45.1 22.95 45.15 23.15 45.15 23.2 45.2 24.25 44.95 25.8 Q44.5 26.75 43.25 26.75 41.9 26.75 40.95 25.8 L40.85 25.7 Q40.25 25.0 40.0 24.25 L38.95 25.35 38.45 25.95 38.45 26.0 38.4 26.05 38.45 26.05 M42.7 23.35 L43.0 23.9 42.85 24.3 42.5 24.5 42.05 24.35 42.0 24.25 41.9 23.9 Q41.9 23.25 42.4 23.25 L42.55 23.25 42.6 23.3 42.7 23.35 M39.15 33.35 L41.65 33.55 44.0 33.8 44.1 33.75 44.65 32.9 45.0 32.0 Q43.5 31.5 41.65 31.15 L38.1 30.6 38.1 31.75 38.15 31.9 38.35 33.25 39.15 33.35 M22.2 23.1 L22.3 23.1 22.5 23.25 22.55 23.35 22.55 23.5 22.45 23.65 22.35 23.7 22.3 23.7 22.15 23.75 20.35 23.1 20.15 24.05 19.8 25.05 18.5 26.6 18.05 26.9 Q16.6 27.9 14.7 27.9 12.1 27.9 10.15 26.2 8.65 24.85 8.15 23.15 L8.0 22.35 7.95 21.3 8.15 18.7 8.4 17.9 Q8.9 16.25 10.15 15.8 L8.9 14.7 8.8 14.45 8.8 14.3 8.85 14.25 9.1 14.15 9.3 14.2 10.95 15.7 11.05 15.8 11.1 15.9 13.45 18.0 Q17.0 20.85 20.15 22.3 L20.25 22.35 22.2 23.1 M8.95 18.15 Q8.55 19.4 8.55 21.3 L8.55 21.35 8.65 22.4 Q9.0 24.35 10.55 25.7 12.35 27.25 14.7 27.25 16.4 27.25 17.65 26.4 L18.1 26.1 19.15 24.85 19.6 23.85 19.7 22.8 18.75 22.3 Q16.05 20.9 13.05 18.45 L13.0 18.45 11.7 17.25 10.65 16.3 10.6 16.3 Q9.45 16.65 8.95 18.15 M14.9 23.0 Q15.2 22.65 15.75 22.65 L16.15 22.8 16.3 22.95 16.6 23.75 16.55 24.05 16.35 24.4 16.2 24.55 15.55 24.75 Q15.15 24.75 14.9 24.5 14.6 24.2 14.6 23.7 L14.65 23.5 14.85 23.1 14.9 23.0 M27.9 31.65 L27.9 31.25 27.9 30.65 28.0 30.15 27.5 30.15 27.25 30.15 25.2 30.15 23.05 30.15 Q21.85 30.1 20.15 30.9 L20.1 30.9 19.2 31.7 18.9 32.05 18.8 32.4 18.75 32.6 19.1 35.1 19.15 35.4 19.6 37.3 19.7 37.7 19.95 37.55 19.9 37.55 20.65 37.1 20.7 37.1 20.8 37.05 Q23.75 35.15 25.6 33.4 L25.7 33.35 27.2 32.95 27.15 32.95 27.45 32.9 28.0 32.8 27.9 31.65 M18.6 35.75 L18.5 35.2 18.45 35.2 18.15 33.1 16.95 34.9 Q15.35 37.45 14.45 39.55 L14.4 39.6 14.45 39.65 14.85 39.95 15.05 39.85 15.3 39.8 17.0 39.15 17.15 39.05 18.7 38.25 19.15 38.0 19.1 38.0 18.95 37.45 18.6 35.75 M37.5 31.85 L37.5 31.8 37.45 30.55 37.4 30.55 34.45 30.35 28.6 30.2 28.55 30.75 28.55 31.25 28.55 31.6 28.65 32.7 28.65 32.85 29.4 32.85 31.7 32.95 31.9 32.95 32.2 32.95 37.45 33.2 37.55 33.2 37.65 33.2 37.5 31.85 M-0.6 51.1 Q0.05 52.75 0.35 54.45 L0.4 54.6 -0.25 54.6 -0.6 53.15 -0.6 51.1" fill="#181a30" fill-rule="evenodd" stroke="none"/>
      <path d="M40.85 3.4 L40.65 3.15 40.55 2.95 41.95 0.45 43.0 -0.8 44.4 -0.8 43.45 0.1 43.4 0.15 43.0 0.75 Q42.7 1.25 42.7 1.5 L42.7 1.65 42.8 1.8 44.65 2.35 44.7 2.35 45.0 2.35 45.2 2.3 45.3 2.15 46.3 1.45 47.15 0.4 47.75 -0.8 50.05 -0.8 49.5 0.2 51.45 2.15 Q53.5 4.4 54.65 6.7 L54.7 6.9 55.05 8.3 Q55.4 10.0 55.4 11.95 L55.25 13.35 Q54.9 11.75 53.35 8.8 L52.35 7.05 Q49.55 2.2 47.7 2.0 L45.7 3.25 Q44.25 3.9 42.7 3.9 41.45 3.9 40.85 3.4" fill="#fcdf87" fill-rule="evenodd" stroke="none"/>
      <path d="M44.4 -0.8 L47.05 -0.8 46.6 0.05 46.6 0.1 45.85 1.0 44.7 1.7 44.25 1.65 43.35 1.45 43.55 1.05 43.9 0.55 44.0 0.3 43.85 0.1 43.65 0.05 43.45 0.1 44.4 -0.8" fill="#a33327" fill-rule="evenodd" stroke="none"/>
      <path d="M44.2 7.7 L43.6 6.3 41.85 4.45 40.85 3.4 Q41.45 3.9 42.7 3.9 44.25 3.9 45.7 3.25 47.05 5.0 48.3 7.75 L48.9 9.3 Q47.35 9.15 45.15 8.15 L44.2 7.7" fill="#f5690c" fill-rule="evenodd" stroke="none"/>
      <path d="M1.95 -0.8 L0.95 2.45 0.05 5.75 -0.6 5.85 -0.6 -0.8 1.95 -0.8 M50.05 -0.8 L50.35 -0.8 52.2 0.65 55.25 5.4 55.7 6.1 55.7 8.05 55.05 8.3 54.7 6.9 54.65 6.7 Q53.5 4.4 51.45 2.15 L49.5 0.2 50.05 -0.8 M45.7 3.25 L47.7 2.0 Q49.55 2.2 52.35 7.05 L53.35 8.8 49.45 9.3 48.9 9.3 48.3 7.75 Q47.05 5.0 45.7 3.25" fill="#f99637" fill-rule="evenodd" stroke="none"/>
      <path d="M0.05 5.75 L-0.6 8.3 -0.6 5.85 0.05 5.75 M55.7 8.05 L55.7 26.45 54.3 26.55 50.7 26.0 51.0 21.65 Q51.0 14.85 48.9 9.3 L49.45 9.3 53.35 8.8 Q54.9 11.75 55.25 13.35 L55.4 11.95 Q55.4 10.0 55.05 8.3 L55.7 8.05 M-0.6 16.25 L-0.05 19.25 -0.6 19.65 -0.6 16.25" fill="#ef6639" fill-rule="evenodd" stroke="none"/>
      <path d="M-0.6 12.95 L-0.55 13.05 -0.45 13.75 -0.25 14.65 0.4 17.6 0.45 17.75 0.45 17.9 0.65 18.7 -0.05 19.25 -0.6 16.25 -0.6 12.95 M45.95 23.6 L45.9 23.35 45.85 23.15 45.2 20.0 45.1 19.8 45.15 18.75 45.05 17.5 45.0 17.35 43.35 15.5 42.95 14.85 42.6 14.35 43.05 13.4 43.35 12.7 43.9 10.85 43.9 10.9 Q44.4 9.0 44.2 7.7 L45.15 8.15 Q47.35 9.15 48.9 9.3 51.0 14.85 51.0 21.65 L50.7 26.0 50.5 25.95 Q48.25 25.2 45.95 23.6" fill="#da3512" fill-rule="evenodd" stroke="none"/>
      <path d="M3.5 21.75 L3.45 21.7 3.2 21.6 Q2.6 21.15 1.95 21.0 L1.2 18.3 1.05 17.75 1.0 17.65 1.0 17.5 0.9 17.15 0.6 14.05 Q2.35 12.9 4.65 12.15 L4.8 12.25 Q5.45 12.6 6.05 13.3 L6.6 13.9 6.6 14.0 Q6.45 14.05 6.35 14.2 L5.75 14.95 5.65 15.3 Q5.3 16.3 5.3 18.1 5.3 19.7 5.65 21.25 L5.95 22.3 Q6.6 24.3 7.8 26.15 L8.15 26.65 Q9.8 28.9 11.8 29.7 9.6 31.6 7.75 35.05 6.7 36.95 6.2 38.5 L4.8 38.1 4.75 38.1 Q5.85 36.4 6.6 34.3 L7.4 30.95 7.55 29.5 Q7.55 26.25 6.35 24.6 L5.75 23.85 4.4 22.4 3.5 21.75 M13.15 10.9 L14.05 11.55 14.2 11.75 14.4 11.85 14.45 11.85 14.65 12.0 Q19.0 14.25 24.0 15.45 25.15 17.4 25.05 19.75 L25.1 19.9 24.35 20.75 22.55 22.75 22.55 22.55 Q22.55 21.0 19.95 19.7 L15.95 17.65 12.75 14.95 12.5 14.75 12.25 14.15 Q11.9 13.25 11.9 12.7 11.9 11.9 12.9 10.9 L13.15 10.9 M31.25 13.25 L34.7 14.15 Q33.4 14.75 32.95 15.7 32.6 16.35 32.35 17.7 31.75 19.65 28.65 20.55 L26.8 20.05 25.8 19.65 25.85 18.75 Q25.85 15.55 24.3 14.65 L22.1 14.3 Q22.4 13.15 23.4 13.05 L28.35 13.0 30.2 13.35 31.25 13.25 M36.3 14.05 L38.15 12.55 40.05 13.55 40.05 13.6 40.7 13.9 40.8 13.95 40.85 14.0 41.05 14.2 41.3 14.45 41.35 14.5 42.15 15.3 42.85 15.9 44.4 17.6 44.25 17.9 44.05 18.05 41.9 19.95 39.9 21.6 Q38.65 22.55 37.55 22.95 L37.15 22.5 36.45 21.55 36.35 21.4 Q35.05 19.3 35.05 17.6 35.05 16.4 35.45 15.4 L36.3 14.05 M36.5 25.75 L32.2 25.3 31.9 25.3 31.2 25.25 27.5 25.0 27.3 24.95 27.25 24.95 25.65 24.85 25.55 24.85 25.45 24.85 23.8 25.45 23.9 25.35 24.05 25.1 Q24.5 24.7 26.65 24.2 L29.7 23.75 Q32.7 23.75 34.35 24.75 L34.8 25.05 36.3 25.7 36.5 25.75 M38.45 26.0 L38.45 26.05 38.4 26.05 38.45 26.0 M21.45 16.25 Q21.45 16.75 21.95 17.0 L22.65 17.15 23.4 17.0 23.7 16.5 23.55 16.0 23.15 15.8 22.05 15.4 Q21.75 15.4 21.6 15.65 21.45 15.85 21.45 16.25 M37.6 15.3 Q37.6 14.8 37.1 14.8 L36.4 15.25 36.0 15.8 35.95 15.9 35.85 16.05 35.8 16.25 35.9 16.8 36.4 16.8 37.2 16.2 37.6 15.3" fill="#5b7b8c" fill-rule="evenodd" stroke="none"/>
      <path d="M-0.6 39.95 Q1.6 39.1 3.65 37.35 L5.55 35.25 5.65 35.1 5.75 35.0 Q7.3 32.65 7.15 29.9 6.9 25.8 5.2 23.5 L3.9 22.1 3.75 22.0 3.65 21.9 3.5 21.75 4.4 22.4 5.75 23.85 6.35 24.6 Q7.55 26.25 7.55 29.5 L7.4 30.95 6.6 34.3 Q5.85 36.4 4.75 38.1 L4.8 38.1 6.2 38.5 Q6.7 36.95 7.75 35.05 9.6 31.6 11.8 29.7 9.8 28.9 8.15 26.65 L7.8 26.15 Q6.6 24.3 5.95 22.3 L5.65 21.25 Q5.3 19.7 5.3 18.1 5.3 16.3 5.65 15.3 L5.75 14.95 6.35 14.2 Q6.45 14.05 6.6 14.0 L6.6 13.9 6.05 13.3 Q5.45 12.6 4.8 12.25 L4.65 12.15 Q2.35 12.9 0.6 14.05 L0.55 13.65 0.5 13.15 Q1.5 12.6 3.1 11.95 3.75 11.7 4.55 11.4 L4.8 11.3 8.15 10.2 10.8 9.5 13.15 10.9 12.9 10.9 Q11.9 11.9 11.9 12.7 11.9 13.25 12.25 14.15 L12.5 14.75 12.75 14.95 15.95 17.65 19.95 19.7 Q22.55 21.0 22.55 22.55 L22.55 22.75 24.35 20.75 25.1 19.9 25.15 19.95 25.4 20.05 25.6 20.0 25.7 19.8 25.7 19.65 Q25.75 17.1 24.5 15.0 L24.3 14.9 22.1 14.3 Q18.9 13.35 16.05 12.0 L20.1 11.9 25.75 12.15 31.25 13.25 30.2 13.35 28.35 13.0 23.4 13.05 Q22.4 13.15 22.1 14.3 L24.3 14.65 Q25.85 15.55 25.85 18.75 L25.8 19.65 26.8 20.05 28.65 20.55 Q31.75 19.65 32.35 17.7 32.6 16.35 32.95 15.7 33.4 14.75 34.7 14.15 L34.8 14.15 35.05 14.2 34.8 14.45 33.45 16.3 33.3 16.5 33.3 16.55 33.1 17.55 33.0 19.05 33.05 19.65 33.05 19.9 33.2 20.1 33.45 20.15 33.65 20.0 33.7 19.8 33.65 19.05 33.75 17.6 33.9 16.7 33.95 16.7 33.95 16.65 34.8 15.45 Q35.45 14.6 35.85 14.3 L36.3 14.05 35.45 15.4 Q35.05 16.4 35.05 17.6 35.05 19.3 36.35 21.4 L36.45 21.55 37.15 22.5 37.55 22.95 Q38.65 22.55 39.9 21.6 L41.9 19.95 44.05 18.05 44.25 17.9 44.4 17.6 44.45 17.7 44.55 18.75 44.45 19.65 42.75 20.9 41.0 22.4 40.35 23.0 39.2 24.15 38.2 25.25 37.95 25.6 37.9 25.8 37.95 25.95 37.5 25.9 36.5 25.75 36.3 25.7 34.8 25.05 34.35 24.75 Q32.7 23.75 29.7 23.75 L26.65 24.2 Q24.5 24.7 24.05 25.1 L23.9 25.35 23.8 25.45 23.25 25.7 Q22.2 26.15 21.1 26.8 19.5 27.7 17.85 28.95 L16.7 29.9 15.1 31.3 14.95 31.4 14.9 31.5 Q13.3 32.85 12.2 34.0 L11.75 34.55 Q11.1 35.35 10.55 36.55 L10.4 36.9 10.15 37.35 9.5 39.3 Q9.2 40.2 9.05 41.0 L5.6 41.3 1.55 41.7 1.4 41.7 -0.6 41.75 -0.6 39.95 M38.45 26.0 L38.45 25.95 38.95 25.35 40.0 24.25 Q40.25 25.0 40.85 25.7 L40.95 25.8 Q41.9 26.75 43.25 26.75 44.5 26.75 44.95 25.8 L45.2 24.25 45.15 23.2 45.15 23.15 45.1 22.95 44.85 22.05 44.85 22.0 44.7 21.35 44.35 20.55 44.6 20.35 44.75 21.3 45.15 23.05 45.25 23.3 45.3 23.5 Q45.6 24.95 46.5 25.95 L46.7 26.25 48.55 27.7 48.7 27.8 48.75 27.85 48.85 27.9 45.3 27.3 41.65 26.65 39.2 26.2 38.45 26.05 38.45 26.0 M22.2 23.1 L20.25 22.35 20.15 22.3 Q17.0 20.85 13.45 18.0 L11.1 15.9 11.05 15.8 10.95 15.7 9.3 14.2 9.1 14.15 8.85 14.25 8.8 14.3 8.8 14.45 8.9 14.7 10.15 15.8 Q8.9 16.25 8.4 17.9 L8.15 18.7 7.95 21.3 8.0 22.35 8.15 23.15 Q8.65 24.85 10.15 26.2 12.1 27.9 14.7 27.9 16.6 27.9 18.05 26.9 L18.5 26.6 19.8 25.05 20.15 24.05 20.35 23.1 22.15 23.75 22.3 23.7 22.35 23.7 22.45 23.65 22.55 23.5 22.55 23.35 22.5 23.25 22.3 23.1 22.2 23.1" fill="#3e5e71" fill-rule="evenodd" stroke="none"/>
      <path d="M43.5 21.15 L43.8 20.9 43.85 20.95 44.15 21.75 43.9 22.0 43.8 22.1 43.8 22.05 43.7 21.85 43.5 21.15 M41.3 25.25 Q40.7 24.55 40.55 23.75 L40.55 23.7 40.8 23.45 40.75 23.45 41.15 23.1 Q41.2 24.0 41.75 24.6 L41.3 25.25 M8.95 18.15 Q9.45 16.65 10.6 16.3 L10.65 16.3 11.7 17.25 11.65 17.25 Q11.35 17.25 10.95 19.0 L10.9 19.35 8.95 18.15 M18.75 22.3 L19.7 22.8 19.6 23.85 19.15 24.85 18.1 26.1 17.65 26.4 16.65 25.1 17.5 24.3 17.6 24.2 18.2 23.45 18.75 22.3" fill="#38345f" fill-rule="evenodd" stroke="none"/>
      <path d="M41.15 23.1 L41.45 22.85 43.2 21.35 43.5 21.15 43.7 21.85 43.8 22.05 43.8 22.1 42.7 23.35 42.6 23.3 42.55 23.25 42.4 23.25 Q41.9 23.25 41.9 23.9 L42.0 24.25 41.75 24.6 Q41.2 24.0 41.15 23.1 M11.7 17.25 L13.0 18.45 13.05 18.45 Q16.05 20.9 18.75 22.3 L18.2 23.45 17.6 24.2 17.5 24.3 16.65 25.1 16.2 24.55 16.35 24.4 16.55 24.05 16.6 23.75 16.3 22.95 16.15 22.8 15.75 22.65 Q15.2 22.65 14.9 23.0 L14.6 22.7 14.25 22.35 Q12.65 20.6 10.9 19.35 L10.95 19.0 Q11.35 17.25 11.65 17.25 L11.7 17.25" fill="#c5cdcd" fill-rule="evenodd" stroke="none"/>
      <path d="M42.0 24.25 L42.05 24.35 42.5 24.5 42.85 24.3 43.0 23.9 42.7 23.35 43.8 22.1 43.9 23.35 43.75 24.75 Q43.5 25.25 42.9 25.25 42.35 25.25 41.8 24.7 L41.75 24.6 42.0 24.25 M16.65 25.1 Q15.6 25.85 14.5 25.85 11.25 25.85 10.7 22.7 L10.6 21.65 10.6 21.35 10.9 19.35 Q12.65 20.6 14.25 22.35 L14.6 22.7 14.9 23.0 14.85 23.1 14.65 23.5 14.6 23.7 Q14.6 24.2 14.9 24.5 15.15 24.75 15.55 24.75 L16.2 24.55 16.65 25.1" fill="#fdfbef" fill-rule="evenodd" stroke="none"/>
      <path d="M44.15 21.75 L44.25 22.2 44.3 22.35 44.5 23.25 44.6 24.25 44.4 25.5 Q44.05 26.1 43.25 26.1 42.1 26.1 41.3 25.25 L41.75 24.6 41.8 24.7 Q42.35 25.25 42.9 25.25 43.5 25.25 43.75 24.75 L43.9 23.35 43.8 22.1 43.9 22.0 44.15 21.75 M17.65 26.4 Q16.4 27.25 14.7 27.25 12.35 27.25 10.55 25.7 9.0 24.35 8.65 22.4 L8.55 21.35 8.55 21.3 Q8.55 19.4 8.95 18.15 L10.9 19.35 10.6 21.35 10.6 21.65 10.7 22.7 Q11.25 25.85 14.5 25.85 15.6 25.85 16.65 25.1 L17.65 26.4" fill="#5b4a8e" fill-rule="evenodd" stroke="none"/>
      <path d="M0.65 18.7 L1.25 20.9 1.4 21.3 1.45 21.45 1.55 21.7 2.35 23.35 2.4 23.4 3.15 24.4 3.2 24.45 3.3 24.5 3.3 24.65 3.45 24.9 3.45 24.85 Q4.25 26.65 4.25 28.65 L4.25 28.7 Q4.25 29.9 3.3 31.95 L3.05 32.35 Q1.8 34.7 -0.6 35.4 L-0.6 27.2 Q0.2 27.0 0.55 26.45 0.9 25.95 0.9 24.6 L0.3 20.75 0.05 19.75 -0.05 19.25 0.65 18.7 M55.7 34.3 L55.3 34.5 55.25 34.5 54.7 34.7 54.65 34.7 54.3 34.85 54.35 34.85 52.35 35.55 51.5 35.3 48.95 34.8 48.9 34.8 48.95 34.7 49.5 33.7 50.75 32.6 51.75 31.75 51.85 31.65 51.85 31.5 51.9 31.45 Q51.8 29.0 51.5 28.55 L51.45 28.4 51.3 28.35 50.3 28.2 48.9 27.2 48.85 27.15 48.75 27.05 47.15 25.8 47.15 25.75 46.6 25.05 45.95 23.6 Q48.25 25.2 50.5 25.95 L50.65 26.35 Q51.05 27.4 52.0 28.45 53.55 30.1 54.55 30.1 L55.7 29.95 55.7 34.3" fill="#b52720" fill-rule="evenodd" stroke="none"/>
      <path d="M3.1 33.5 L3.85 32.25 Q4.85 30.05 4.85 28.7 L4.75 27.05 5.15 26.8 6.15 27.3 6.5 29.95 Q6.65 32.5 5.25 34.65 L5.2 34.8 5.05 34.9 4.7 35.35 3.95 34.6 3.1 33.5 M55.7 26.45 L55.7 29.95 54.55 30.1 Q53.55 30.1 52.0 28.45 51.05 27.4 50.65 26.35 L50.5 25.95 50.7 26.0 54.3 26.55 55.7 26.45 M-0.05 19.25 L0.05 19.75 0.3 20.75 0.9 24.6 Q0.9 25.95 0.55 26.45 0.2 27.0 -0.6 27.2 L-0.6 19.65 -0.05 19.25" fill="#e94e3a" fill-rule="evenodd" stroke="none"/>
      <path d="M9.5 41.55 L9.7 40.9 10.1 39.5 10.95 37.15 11.1 36.8 11.35 36.35 11.6 36.5 Q11.65 37.15 12.0 37.75 L12.75 38.45 12.75 38.65 Q12.75 39.0 13.3 39.4 L13.5 39.6 13.55 39.6 13.6 39.7 14.05 40.15 14.45 40.45 14.85 40.7 15.05 40.7 15.25 40.5 15.25 40.45 15.4 40.4 15.5 41.05 15.55 41.25 15.6 41.9 15.6 42.2 15.5 43.45 15.45 43.9 Q15.0 44.4 14.95 44.8 L13.9 44.8 11.25 44.15 9.7 43.95 9.6 43.4 9.55 42.75 9.5 42.35 9.5 41.55 M25.3 25.55 L25.6 25.45 27.2 25.6 27.45 25.6 31.15 25.85 31.9 25.95 32.15 25.95 37.4 26.5 38.75 26.75 39.05 26.8 41.65 27.3 45.15 27.95 50.05 28.8 51.05 28.95 51.05 29.1 51.25 31.3 50.55 31.1 49.95 30.95 41.65 28.85 40.25 28.6 39.35 28.45 31.9 27.65 27.2 27.55 26.5 27.6 25.15 27.75 25.05 27.4 Q25.05 26.5 25.3 25.55 M26.05 33.9 Q26.7 33.65 27.3 33.55 L27.35 33.55 27.5 33.5 27.55 33.5 28.15 33.45 29.4 33.5 31.7 33.55 31.9 33.55 32.15 33.6 37.4 33.85 37.5 33.85 38.1 33.9 41.65 34.15 47.65 35.1 47.75 35.1 47.8 35.15 48.45 35.3 49.15 35.55 49.2 35.55 50.65 36.0 52.65 36.85 52.7 36.9 53.3 38.2 54.4 40.6 55.7 43.05 55.7 43.2 Q53.85 41.25 48.95 40.0 L46.55 39.45 44.0 38.95 43.9 38.95 42.95 38.8 41.65 38.6 31.9 37.8 27.25 37.7 25.9 38.0 25.6 35.95 Q25.6 35.3 25.9 34.3 L26.05 33.9 M27.85 34.0 L27.65 34.05 27.1 34.5 26.6 35.15 Q26.6 35.6 27.25 35.85 L28.45 36.0 29.85 35.8 Q30.9 35.5 31.5 34.85 31.15 34.0 30.05 33.9 L27.9 34.0 27.85 34.0" fill="#f7d4c0" fill-rule="evenodd" stroke="none"/>
      <path d="M55.7 44.9 L55.4 45.25 55.0 45.65 53.9 46.45 53.05 46.85 52.65 46.0 51.75 44.3 50.8 43.15 50.75 43.1 49.85 42.8 46.1 41.65 45.4 41.45 41.65 40.5 40.4 40.3 40.1 40.25 38.6 40.15 32.95 40.05 31.9 40.05 28.75 40.15 28.55 40.15 27.35 40.3 26.55 40.45 26.6 40.45 Q24.25 40.95 21.65 42.1 19.75 42.9 18.05 44.0 17.65 44.3 17.4 44.95 17.25 45.45 17.25 45.85 L17.3 46.45 Q14.55 47.3 12.2 47.35 L9.55 47.1 8.95 46.5 8.75 46.15 8.7 46.05 9.2 43.5 9.2 43.4 9.2 43.3 9.2 43.05 9.25 42.8 9.5 41.55 9.5 42.35 9.55 42.75 9.6 43.4 9.7 43.95 11.25 44.15 13.9 44.8 14.95 44.8 Q15.0 44.4 15.45 43.9 16.45 42.75 19.4 41.1 L20.8 40.35 21.2 40.15 21.45 40.05 Q24.35 38.55 25.9 38.0 L27.25 37.7 31.9 37.8 41.65 38.6 42.95 38.8 43.9 38.95 44.0 38.95 46.55 39.45 48.95 40.0 Q53.85 41.25 55.7 43.2 L55.7 44.9 M11.55 36.0 L12.25 34.95 12.65 34.45 15.55 31.75 16.0 31.35 16.4 31.0 17.15 31.1 17.25 31.1 Q18.25 29.85 20.35 28.95 L22.2 28.35 25.15 27.75 26.5 27.6 27.2 27.55 31.9 27.65 39.35 28.45 40.25 28.6 41.65 28.85 49.95 30.95 50.55 31.1 51.25 31.3 51.25 31.35 50.35 32.1 50.15 32.3 49.0 33.35 47.65 34.45 44.8 33.95 45.3 33.05 45.7 31.85 45.7 31.65 45.5 31.5 Q43.8 30.9 41.65 30.45 L37.5 29.9 36.25 29.8 34.45 29.7 28.8 29.6 28.55 29.5 28.4 29.5 27.5 29.5 27.25 29.5 23.05 29.5 22.45 29.5 Q21.35 29.65 19.85 30.35 L18.75 31.3 18.35 31.7 18.35 31.75 17.8 32.45 16.4 34.55 Q14.85 37.05 13.95 39.15 L13.9 39.1 13.65 39.15 13.55 39.25 13.5 39.35 13.5 39.55 13.5 39.6 13.3 39.4 Q12.75 39.0 12.75 38.65 L12.75 38.45 12.0 37.75 Q11.65 37.15 11.6 36.5 L11.55 36.0" fill="#bf9982" fill-rule="evenodd" stroke="none"/>
      <path d="M44.65 32.9 L41.65 32.3 40.25 32.1 39.15 32.0 39.15 33.35 38.35 33.25 38.15 31.9 38.1 31.75 38.1 30.6 41.65 31.15 Q43.5 31.5 45.0 32.0 L44.65 32.9 M20.65 37.1 L19.9 37.55 19.95 37.55 19.7 37.7 19.6 37.3 19.15 35.4 19.1 35.1 18.75 32.6 18.8 32.4 18.9 32.05 19.2 31.7 20.1 30.9 20.15 30.9 Q21.85 30.1 23.05 30.15 L25.2 30.15 27.25 30.15 27.5 30.15 28.0 30.15 27.9 30.65 27.9 31.25 27.9 31.65 25.45 32.1 Q24.9 32.25 23.95 32.8 L20.35 34.7 20.4 35.0 20.65 37.1 M18.7 38.25 L17.15 39.05 17.0 39.15 15.3 39.8 15.05 39.85 14.85 39.95 14.45 39.65 14.4 39.6 14.45 39.55 Q15.35 37.45 16.95 34.9 L18.15 33.1 18.45 35.2 18.5 35.2 18.6 35.75 Q18.15 36.05 18.15 36.3 L18.2 37.3 18.7 38.25 M29.4 32.85 L28.65 32.85 28.65 32.7 28.55 31.6 28.55 31.25 28.55 30.75 28.6 30.2 34.45 30.35 37.4 30.55 37.45 30.55 37.5 31.8 37.5 31.85 31.9 31.55 30.45 31.55 29.45 31.55 29.45 31.65 29.4 32.65 29.4 32.85" fill="#b7bab3" fill-rule="evenodd" stroke="none"/>
      <path d="M39.15 33.35 L39.15 32.0 40.25 32.1 41.65 32.3 44.65 32.9 44.1 33.75 44.0 33.8 41.65 33.55 39.15 33.35 M27.9 31.65 L28.0 32.8 27.45 32.9 27.15 32.95 27.2 32.95 25.7 33.35 25.6 33.4 Q23.75 35.15 20.8 37.05 L20.7 37.1 20.65 37.1 20.4 35.0 20.35 34.7 23.95 32.8 Q24.9 32.25 25.45 32.1 L27.9 31.65 M18.7 38.25 L18.2 37.3 18.15 36.3 Q18.15 36.05 18.6 35.75 L18.95 37.45 19.1 38.0 19.15 38.0 18.7 38.25 M37.5 31.85 L37.65 33.2 37.55 33.2 37.45 33.2 32.2 32.95 31.9 32.95 31.7 32.95 29.4 32.85 29.4 32.65 29.45 31.65 29.45 31.55 30.45 31.55 31.9 31.55 37.5 31.85" fill="#fefffa" fill-rule="evenodd" stroke="none"/>
      <path d="M-0.6 46.55 L3.15 45.8 Q6.5 45.05 8.15 43.95 L8.5 43.7 8.1 45.95 8.05 46.05 8.05 46.15 8.15 46.35 8.15 46.4 8.5 46.9 9.2 47.6 9.25 47.65 10.55 47.9 12.2 48.0 13.55 47.9 13.85 47.9 13.05 48.25 Q10.1 49.7 7.45 51.6 L7.4 51.65 Q6.15 53.1 5.35 54.6 L0.4 54.6 0.35 54.45 Q0.05 52.75 -0.6 51.1 L-0.6 46.55 M17.95 46.35 L17.85 45.85 18.0 45.2 18.0 45.15 18.35 44.55 Q20.05 43.45 21.9 42.65 24.35 41.55 26.65 41.1 L25.9 42.1 25.4 42.75 24.9 43.65 24.15 45.1 24.1 45.25 20.3 45.75 17.95 46.35 M23.7 49.3 L24.15 47.0 24.25 46.8 24.75 45.3 24.85 45.15 25.65 43.65 26.75 41.95 27.65 40.9 28.6 40.8 28.75 40.75 28.8 40.75 31.9 40.7 32.95 40.7 37.15 40.75 37.05 40.85 36.85 41.15 36.5 41.7 Q35.7 42.9 35.3 43.95 L35.15 44.4 35.0 44.95 33.0 44.9 25.95 45.1 Q24.8 47.0 24.3 49.15 L24.25 49.15 23.7 49.3 M35.3 47.0 Q35.35 46.2 35.55 45.35 L35.6 45.2 35.65 44.95 35.8 44.5 35.95 44.05 Q36.4 42.95 37.2 41.75 L37.45 41.4 37.7 41.05 37.9 40.75 38.55 40.8 40.0 40.9 41.65 41.15 45.1 42.0 44.95 42.4 44.8 42.85 Q44.6 43.4 44.55 44.1 44.4 44.95 44.4 46.0 L44.4 46.05 42.55 45.75 41.55 45.55 36.4 45.0 35.9 46.9 35.3 47.0 M45.3 48.8 L45.15 48.05 45.1 47.8 45.1 47.65 45.05 47.05 45.05 46.9 45.0 46.2 45.0 46.0 Q45.0 45.15 45.15 44.4 45.2 43.65 45.4 43.0 L45.55 42.65 45.7 42.2 50.45 43.7 51.55 45.5 51.5 46.95 51.5 47.0 51.65 48.1 51.7 48.4 51.7 48.45 52.05 49.55 49.35 47.35 45.6 46.35 46.0 48.5 46.25 49.2 45.3 48.8" fill="#817239" fill-rule="evenodd" stroke="none"/>
      <path d="M13.85 47.9 L17.8 46.9 17.95 46.85 18.0 46.65 18.0 46.5 17.95 46.35 20.3 45.75 24.1 45.25 24.0 45.45 23.6 46.65 23.05 49.45 Q16.7 51.35 12.8 53.8 L12.35 54.6 5.35 54.6 Q6.15 53.1 7.4 51.65 L7.45 51.6 Q10.1 49.7 13.05 48.25 L13.85 47.9 M23.25 54.6 L23.2 54.0 23.2 53.4 23.7 49.3 24.25 49.15 24.3 49.15 Q24.8 47.0 25.95 45.1 L33.0 44.9 35.0 44.95 34.95 45.15 34.9 45.25 34.6 47.05 32.6 47.35 Q28.3 48.05 24.3 49.15 23.65 51.7 23.95 54.6 L23.25 54.6 M35.15 48.4 L35.3 47.0 35.9 46.9 36.4 45.0 41.55 45.55 42.55 45.75 44.4 46.05 44.4 46.35 44.4 46.75 44.45 47.4 44.45 47.7 44.45 47.9 44.6 48.5 43.8 48.25 42.15 47.7 41.15 47.4 37.35 46.8 35.9 46.9 35.8 48.15 35.15 48.4 M48.15 54.6 L47.7 53.7 46.2 51.4 Q45.65 50.7 45.3 48.8 L46.25 49.2 46.0 48.5 45.6 46.35 49.35 47.35 52.05 49.55 Q52.3 50.3 52.65 50.65 L53.0 51.3 53.75 52.9 53.9 53.35 54.45 54.6 51.9 54.6 Q50.75 52.1 48.55 50.25 47.4 49.65 46.25 49.2 L46.4 49.6 48.2 53.3 48.75 54.6 48.15 54.6 M55.15 54.6 L54.0 52.0 54.55 50.65 55.3 50.45 55.7 50.5 55.7 54.6 55.15 54.6" fill="#b0884e" fill-rule="evenodd" stroke="none"/>
      <path d="M23.05 49.45 L22.55 53.35 22.6 54.05 22.6 54.6 12.35 54.6 12.8 53.8 Q16.7 51.35 23.05 49.45 M34.6 47.05 L34.5 48.65 Q31.65 49.7 30.3 50.9 28.75 52.3 28.35 54.6 L23.95 54.6 Q23.65 51.7 24.3 49.15 28.3 48.05 32.6 47.35 L34.6 47.05 M35.6 54.6 L35.4 54.05 35.15 51.1 35.1 49.6 35.1 49.4 35.15 48.4 35.8 48.15 35.9 46.9 37.35 46.8 41.15 47.4 42.15 47.7 43.8 48.25 44.6 48.5 45.05 50.45 Q44.45 49.9 43.7 49.45 L41.95 48.65 40.95 48.3 39.1 47.75 37.0 47.8 35.8 48.15 35.8 48.25 Q35.8 50.9 36.75 54.6 L35.6 54.6 M46.25 49.2 Q47.4 49.65 48.55 50.25 50.75 52.1 51.9 54.6 L48.75 54.6 48.2 53.3 46.4 49.6 46.25 49.2" fill="#c9a66e" fill-rule="evenodd" stroke="none"/>
      <path d="M34.5 48.65 L34.5 49.4 34.5 49.6 34.55 51.15 34.75 54.15 34.75 54.25 34.9 54.6 28.35 54.6 Q28.75 52.3 30.3 50.9 31.65 49.7 34.5 48.65 M45.05 50.45 L45.7 51.8 46.65 53.15 47.15 54.0 47.45 54.6 36.75 54.6 Q35.8 50.9 35.8 48.25 L35.8 48.15 37.0 47.8 39.1 47.75 40.95 48.3 41.95 48.65 43.7 49.45 Q44.45 49.9 45.05 50.45 M44.2 50.8 Q43.6 49.95 42.55 50.15 L41.95 50.0 41.75 50.0 Q41.0 50.15 41.0 51.15 41.0 51.85 41.45 52.35 L41.85 52.7 Q42.55 53.15 43.25 53.15 43.95 53.15 44.35 52.8 L44.6 52.05 Q44.6 51.4 44.2 50.8" fill="#dcc194" fill-rule="evenodd" stroke="none"/>
      <path d="M54.0 52.0 L53.95 51.9 53.45 50.85 53.2 50.35 53.15 50.25 Q52.7 49.8 52.45 48.8 L52.45 48.75 52.45 48.4 52.5 48.1 52.55 47.5 52.6 47.3 52.65 47.4 52.8 47.5 54.45 46.85 54.7 46.75 55.4 46.45 55.7 46.3 55.7 50.5 55.3 50.45 54.55 50.65 54.0 52.0 M-0.6 53.15 L-0.25 54.6 -0.6 54.6 -0.6 53.15" fill="#907740" fill-rule="evenodd" stroke="none"/>
      <path d="M21.45 16.25 Q21.45 15.85 21.6 15.65 21.75 15.4 22.05 15.4 L23.15 15.8 23.55 16.0 23.7 16.5 23.4 17.0 22.65 17.15 21.95 17.0 Q21.45 16.75 21.45 16.25 M37.6 15.3 L37.2 16.2 36.4 16.8 35.9 16.8 35.8 16.25 35.85 16.05 35.95 15.9 36.0 15.8 36.4 15.25 37.1 14.8 Q37.6 14.8 37.6 15.3" fill="#b0d3e9" fill-rule="evenodd" stroke="none"/>
      <path d="M-0.6 36.1 Q1.7 35.45 3.1 33.5 L3.95 34.6 4.7 35.35 3.2 36.9 Q1.4 38.5 -0.6 39.25 L-0.6 36.1 M4.75 27.05 Q4.55 25.8 4.0 24.6 L3.9 24.4 3.75 24.25 3.7 24.1 2.8 22.9 2.2 21.75 3.25 22.4 3.4 22.45 3.5 22.55 4.65 23.9 Q5.7 25.25 6.15 27.3 L5.15 26.8 4.75 27.05" fill="#c52d16" fill-rule="evenodd" stroke="none"/>
      <path d="M11.35 36.35 L11.55 36.0 11.6 36.5 11.35 36.35 M16.4 31.0 L17.1 30.4 18.25 29.5 Q19.85 28.25 21.4 27.35 22.2 26.85 23.0 26.5 L23.55 26.25 25.3 25.55 Q25.05 26.5 25.05 27.4 L25.15 27.75 22.2 28.35 20.35 28.95 Q18.25 29.85 17.25 31.1 L17.15 31.1 16.4 31.0 M15.4 40.4 L15.6 40.35 17.25 39.7 17.35 39.65 17.4 39.65 20.25 38.1 20.75 37.85 Q20.85 37.7 21.0 37.65 L21.1 37.6 25.95 33.9 26.05 33.9 25.9 34.3 Q25.6 35.3 25.6 35.95 L25.9 38.0 Q24.35 38.55 21.45 40.05 L21.2 40.15 20.8 40.35 19.4 41.1 Q16.45 42.75 15.45 43.9 L15.5 43.45 15.6 42.2 15.6 41.9 15.55 41.25 15.5 41.05 15.4 40.4" fill="#ebc8b2" fill-rule="evenodd" stroke="none"/>
      <path d="M9.05 41.0 L8.6 42.95 8.6 43.0 8.3 43.05 8.2 43.1 8.15 43.15 Q6.6 44.35 3.0 45.2 L-0.6 45.9 -0.6 41.75 1.4 41.7 1.55 41.7 5.6 41.3 9.05 41.0" fill="#2f3d53" fill-rule="evenodd" stroke="none"/>
      <path d="M27.85 34.0 L27.9 34.0 30.05 33.9 Q31.15 34.0 31.5 34.85 30.9 35.5 29.85 35.8 L28.45 36.0 27.25 35.85 Q26.6 35.6 26.6 35.15 L27.1 34.5 27.65 34.05 27.85 34.0" fill="#fff1e3" fill-rule="evenodd" stroke="none"/>
      <path d="M44.2 50.8 Q44.6 51.4 44.6 52.05 L44.35 52.8 Q43.95 53.15 43.25 53.15 42.55 53.15 41.85 52.7 L41.45 52.35 Q41.0 51.85 41.0 51.15 41.0 50.15 41.75 50.0 L41.95 50.0 42.55 50.15 Q43.6 49.95 44.2 50.8" fill="#f1e7cf" fill-rule="evenodd" stroke="none"/>
    </g>
    <g id="shape2" transform="matrix(1.0, 0.0, 0.0, 1.0, 0.0, 0.0)">
      <path d="M50.5 0.0 Q53.95 0.0 53.95 3.3 L53.95 50.15 Q53.95 53.4 50.5 53.4 L3.3 53.4 Q0.0 53.4 0.0 50.15 L0.0 3.3 Q0.0 0.0 3.3 0.0 L50.5 0.0" fill="#000000" fill-opacity="0.003921569" fill-rule="evenodd" stroke="none"/>
    </g>
  </defs>
</svg>
