<?xml version="1.0" encoding="UTF-8" standalone="no"?>
<svg xmlns:ffdec="https://www.free-decompiler.com/flash" xmlns:xlink="http://www.w3.org/1999/xlink" ffdec:objectType="frame" height="59.7px" width="64.45px" xmlns="http://www.w3.org/2000/svg">
  <g transform="matrix(1.0, 0.0, 0.0, 1.0, 5.25, 2.55)">
    <clipPath id="clipPath0" transform="matrix(1.0, 0.0, 0.0, 1.0, 0.0, 0.0)">
      <path d="M50.5 0.0 Q53.95 0.0 53.95 3.3 L53.95 50.15 Q53.95 53.4 50.5 53.4 L3.3 53.4 Q0.0 53.4 0.0 50.15 L0.0 3.3 Q0.0 0.0 3.3 0.0 L50.5 0.0" fill="#000000" fill-rule="evenodd" stroke="none"/>
    </clipPath>
    <g clip-path="url(#clipPath0)">
      <use ffdec:characterId="2" height="59.7" transform="matrix(1.0, 0.0, 0.0, 1.0, -5.25, -2.55)" width="64.45" xlink:href="#shape1"/>
    </g>
    <use ffdec:characterId="3" height="53.4" transform="matrix(1.0, 0.0, 0.0, 1.0, 0.0, 0.0)" width="53.95" xlink:href="#shape2"/>
  </g>
  <defs>
    <g id="shape1" transform="matrix(1.0, 0.0, 0.0, 1.0, 5.25, 2.55)">
      <path d="M50.85 -2.05 L57.2 -2.05 57.2 1.2 56.65 4.55 54.55 5.0 53.95 5.15 52.5 5.5 52.3 5.5 47.45 5.1 49.05 2.95 50.5 1.05 49.2 1.05 48.1 1.15 49.1 0.1 49.6 -0.5 50.85 -2.05 M54.45 7.05 L54.85 11.8 54.85 12.45 54.4 16.95 54.0 17.8 53.4 19.05 52.85 18.95 51.4 16.95 50.9 16.5 44.4 10.2 47.8 8.3 49.65 7.25 49.7 7.25 53.15 7.1 54.1 7.05 54.45 7.05 M44.65 19.35 L45.65 19.75 46.55 20.1 50.1 21.45 50.2 22.25 50.05 25.75 49.35 27.05 48.65 28.2 48.5 28.5 48.3 28.8 47.15 26.75 46.1 25.25 43.6 22.25 41.2 19.8 44.65 19.35" fill="#44fdf5" fill-rule="evenodd" stroke="none"/>
      <path d="M26.95 13.3 L27.15 13.65 27.25 13.75 29.5 17.8 30.0 18.9 30.3 19.45 30.3 19.5 30.55 20.05 30.8 23.1 30.75 23.8 30.65 24.35 30.55 29.35 30.5 29.9 30.25 27.85 30.2 27.55 29.2 25.35 28.9 24.8 28.65 24.25 27.1 21.1 27.0 21.0 26.85 20.5 26.65 19.6 26.7 18.85 26.95 13.9 26.95 13.85 26.95 13.3 M57.2 -2.05 L58.7 -2.05 58.7 4.05 56.65 4.55 57.2 1.2 57.2 -2.05 M50.65 24.65 L50.45 25.1 50.05 25.75 50.2 22.25 50.1 21.45 52.0 22.05 50.65 24.65 M-4.75 34.65 L-4.75 31.3 Q-3.4 33.25 -1.65 34.9 L-2.05 34.9 -3.65 34.75 -4.75 34.65 M54.4 16.95 L54.85 12.45 54.85 11.8 54.45 7.05 58.0 6.8 57.25 9.25 54.4 16.95 M37.0 29.3 L38.1 29.0 38.75 33.35 38.65 34.05 38.35 33.9 37.1 33.4 Q36.8 33.4 34.5 38.1 L34.3 37.25 36.4 34.3 Q37.2 33.3 37.1 30.85 L37.0 29.3 M32.45 24.5 L32.4 24.4 33.2 25.1 32.65 26.4 32.65 25.5 32.55 24.8 32.45 24.55 32.45 24.5 M11.55 30.05 L9.7 28.45 8.8 27.6 7.55 27.2 6.8 26.95 6.8 26.9 6.7 26.6 8.05 26.3 8.15 26.3 8.45 26.35 8.8 26.9 9.3 27.75 9.25 27.75 10.4 28.95 11.55 30.05 M12.1 29.6 L10.3 28.3 Q9.85 28.0 9.7 27.55 L9.7 27.4 Q11.7 27.5 13.15 28.15 L13.55 28.4 14.75 29.25 Q15.65 30.2 15.6 31.55 L15.6 32.0 14.35 31.35 13.6 30.9 13.3 30.75 12.1 29.6 M6.35 29.3 L6.4 29.3 Q7.2 29.7 7.35 31.0 L5.6 31.0 5.5 31.0 5.15 30.55 4.95 29.85 4.95 28.95 6.35 29.3 M9.2 38.4 L9.85 37.8 10.4 37.3 10.7 37.3 11.2 37.3 11.55 37.4 13.2 37.45 13.35 37.45 13.35 37.5 12.95 37.75 11.7 38.9 11.1 39.3 10.15 39.1 9.35 38.55 9.2 38.4 M2.35 38.55 L0.85 37.3 -0.7 35.85 Q-0.05 36.05 0.7 36.6 L2.35 38.55" fill="#fcfbf9" fill-rule="evenodd" stroke="none"/>
      <path d="M48.1 1.15 L49.2 1.05 50.5 1.05 49.05 2.95 47.45 5.1 52.3 5.5 52.5 5.5 49.75 6.2 44.7 7.35 44.7 7.05 44.6 6.9 44.55 6.85 43.25 7.1 43.15 7.1 43.2 6.65 Q43.2 6.45 41.9 6.2 L44.2 4.5 46.0 3.0 48.1 1.15 M49.65 7.25 L47.8 8.3 44.4 10.2 50.9 16.5 51.4 16.95 52.85 18.95 48.5 18.55 45.0 18.25 41.65 17.9 43.95 15.3 42.6 14.45 40.6 13.4 42.95 10.9 Q44.55 9.05 44.7 7.4 L49.65 7.25 M41.5 18.05 L44.4 19.25 44.65 19.35 41.2 19.8 43.6 22.25 46.1 25.25 47.15 26.75 48.3 28.8 45.7 32.85 45.55 32.8 43.95 31.6 Q45.55 30.4 45.55 29.2 45.55 28.75 42.85 28.0 L40.85 27.45 40.05 27.2 Q41.2 26.0 41.7 24.8 L41.75 24.65 38.2 22.9 36.95 22.25 38.45 21.1 40.65 18.95 41.5 18.05" fill="#599ff5" fill-rule="evenodd" stroke="none"/>
      <path d="M25.7 15.1 L26.3 14.5 25.75 15.4 25.7 15.1 M27.15 13.65 Q29.15 11.75 29.5 10.9 L29.5 10.65 29.5 10.55 29.7 10.65 29.85 10.7 29.9 10.75 30.0 10.75 30.3 10.75 30.4 10.65 30.4 10.5 30.45 10.45 30.5 10.2 30.95 8.45 31.65 5.25 31.95 3.55 32.0 3.5 32.0 3.4 31.95 3.55 30.9 4.95 30.1 6.4 30.1 6.55 30.05 6.45 29.95 6.4 Q29.95 5.9 29.05 4.45 L28.95 4.25 28.0 4.85 26.85 5.45 26.75 5.25 26.8 5.25 Q27.9 4.3 29.7 3.25 30.95 2.3 30.95 0.65 L30.95 0.45 30.3 -0.9 29.45 -2.05 32.95 -2.05 32.9 0.7 32.9 0.75 32.85 1.5 32.75 5.35 32.45 11.4 32.05 15.95 31.9 17.25 31.2 21.6 30.55 20.05 30.3 19.5 30.3 19.45 30.0 18.9 29.5 17.8 27.25 13.75 27.15 13.65 M35.25 -2.05 L41.65 -2.05 41.3 -1.15 41.25 -0.95 40.9 -0.05 40.85 0.05 38.25 2.75 Q39.35 2.15 40.6 1.75 L40.0 2.85 39.75 3.3 38.8 3.6 Q36.4 4.15 36.0 5.65 L38.45 5.85 36.0 5.65 Q36.4 4.15 38.8 3.6 L39.75 3.3 38.5 5.85 38.45 5.85 37.65 6.35 36.7 7.1 35.8 7.75 35.95 8.0 36.0 8.05 37.0 8.85 36.0 11.2 35.95 11.35 35.8 11.75 35.85 10.9 35.8 10.05 35.75 9.5 35.65 6.95 35.55 4.8 35.25 -2.05 M48.0 -2.05 L50.85 -2.05 49.6 -0.5 49.1 0.1 48.1 1.15 46.0 3.0 44.2 4.5 41.9 6.2 41.4 6.15 41.75 5.1 42.65 2.35 42.7 2.2 43.1 1.05 44.95 0.5 43.35 1.9 42.65 2.35 43.35 1.9 44.95 0.5 45.35 0.2 47.45 -1.6 48.0 -2.05 M1.05 56.65 L-3.85 56.65 -2.5 55.3 -2.05 54.85 -0.7 53.7 -0.8 53.5 -0.35 53.6 1.3 53.9 -1.1 53.05 -1.25 52.95 -2.1 51.85 -3.2 50.45 -2.7 50.45 -2.8 49.55 -3.1 47.15 -3.25 46.35 -3.35 46.2 -3.85 45.7 -4.75 44.8 -4.75 44.55 -4.1 44.95 -2.4 46.05 -1.35 45.9 -1.1 45.85 1.0 45.5 Q0.85 46.15 0.85 46.85 L0.85 49.3 1.4 52.1 1.6 53.35 1.65 53.45 1.85 53.45 Q2.0 53.75 2.6 54.1 L3.1 54.3 3.2 54.65 3.25 55.0 2.95 55.7 1.05 56.65 M-4.75 48.15 L-4.75 44.8 -3.85 45.7 -3.35 46.2 -3.25 46.35 -3.1 47.15 -4.75 48.15 M-4.75 29.9 L-4.75 27.45 -4.75 21.6 -4.4 21.3 -3.95 20.85 -3.7 20.6 -3.7 20.8 -3.5 21.85 -4.0 22.55 -4.65 23.55 -4.4 24.1 -4.05 24.6 -4.0 24.65 -2.35 26.85 -1.5 27.9 -0.65 28.95 1.4 31.2 2.35 32.1 3.55 33.1 3.65 33.2 3.95 33.35 3.9 34.5 3.55 34.55 1.85 34.85 1.7 34.85 1.7 34.8 1.4 34.8 2.0 35.05 3.85 36.4 3.85 37.75 4.65 39.25 4.25 39.8 4.05 40.55 3.95 40.55 3.75 39.75 3.65 39.55 3.75 39.55 3.6 39.35 3.5 39.1 3.45 39.05 3.1 37.75 1.85 36.6 -1.7 32.7 -3.7 30.3 -4.75 29.9 M-4.75 14.9 L-4.75 12.45 -3.85 11.9 -3.6 11.85 -3.7 12.0 -3.8 12.05 -3.85 14.55 -4.75 14.9 M43.15 7.1 L43.25 7.1 44.55 6.85 44.6 6.9 44.7 7.05 44.7 7.35 44.4 7.4 44.7 7.4 Q44.55 9.05 42.95 10.9 L40.6 13.4 42.6 14.45 43.95 15.3 41.65 17.9 40.95 17.85 41.5 18.05 40.65 18.95 38.45 21.1 36.95 22.25 38.2 22.9 41.75 24.65 41.7 24.8 Q41.2 26.0 40.05 27.2 L40.85 27.45 42.85 28.0 Q45.55 28.75 45.55 29.2 45.55 30.4 43.95 31.6 L41.1 28.95 40.6 28.4 39.75 27.5 40.05 27.2 39.2 26.95 39.55 27.7 40.35 29.4 41.3 31.2 42.15 32.75 43.85 35.4 43.55 35.75 40.65 39.25 Q37.65 42.5 35.2 44.0 L37.1 40.2 35.2 44.0 34.8 44.7 34.6 46.1 36.95 46.0 36.95 46.1 35.7 47.4 34.45 48.8 34.3 48.95 34.95 50.15 35.4 50.95 35.55 51.15 34.3 54.3 34.05 54.8 33.95 54.3 33.65 52.75 33.6 52.55 33.5 52.05 33.45 51.9 33.95 50.4 34.1 48.8 34.1 48.1 33.9 46.15 33.65 45.3 33.45 44.9 32.5 43.65 33.5 42.4 32.6 41.4 31.7 40.4 31.75 42.4 31.65 41.8 31.35 40.85 30.85 39.5 31.75 37.5 31.6 38.5 34.45 38.2 34.5 38.1 34.8 43.05 35.0 42.9 35.0 42.85 35.3 42.4 36.0 41.6 37.05 40.25 37.1 40.2 38.2 38.1 38.65 34.05 38.75 33.35 38.1 29.0 37.0 29.3 36.6 29.45 Q35.75 29.9 33.8 32.05 L33.8 32.0 33.9 31.5 34.05 31.15 34.05 31.1 34.3 29.7 34.3 29.55 34.45 28.95 34.45 28.9 34.5 28.5 34.55 28.45 34.6 27.7 34.9 25.6 35.25 23.25 35.4 21.85 35.85 21.0 38.45 16.2 39.1 14.8 39.15 14.7 39.75 12.6 40.05 11.2 40.1 11.15 40.2 10.65 40.35 10.15 41.05 10.25 Q42.6 8.65 43.05 7.45 L43.15 7.1 M37.65 12.35 L37.55 12.35 37.65 12.35 M41.05 10.25 L40.1 11.15 41.05 10.25 M14.8 25.1 L14.8 25.2 14.85 25.5 15.75 26.65 Q15.5 26.85 15.55 27.45 L15.55 27.6 15.6 27.95 15.65 28.1 15.7 28.9 15.5 28.65 15.35 28.45 14.45 27.6 13.8 27.2 13.75 27.2 13.7 26.4 13.8 24.65 13.8 24.45 14.25 25.1 14.35 25.7 14.5 27.25 15.05 27.35 15.1 26.2 14.45 25.3 14.35 25.2 14.8 25.1 M30.3 19.45 Q30.95 18.2 31.9 17.25 30.95 18.2 30.3 19.45 M17.15 30.4 L17.95 30.4 18.85 30.55 17.25 28.45 16.6 27.6 18.55 29.45 18.7 29.55 19.1 29.9 20.65 31.25 20.45 32.5 20.4 33.75 18.35 32.4 Q18.0 32.1 17.65 31.95 L17.4 31.75 17.45 31.5 17.45 31.3 17.4 30.95 17.35 30.7 17.15 30.4 M7.6 28.6 L9.05 31.15 9.55 31.95 11.25 34.5 11.7 35.1 12.15 33.8 13.05 31.75 13.1 31.65 Q14.5 32.2 15.35 32.95 L15.6 33.1 16.25 33.75 16.25 33.8 16.3 33.8 16.5 34.95 16.6 35.6 16.55 35.75 15.15 35.9 14.7 35.9 14.45 35.9 13.55 35.9 12.95 35.8 12.1 35.75 12.1 35.7 12.1 35.75 12.95 35.8 13.55 35.9 14.45 35.9 14.7 35.9 15.15 35.9 Q14.9 37.25 15.45 38.2 L15.85 38.65 16.15 39.0 17.45 39.95 17.45 40.2 17.4 40.25 15.9 40.75 15.85 40.75 15.55 40.7 15.0 40.5 14.8 40.45 14.6 40.35 Q13.25 39.8 12.8 39.5 L14.15 37.25 14.35 36.9 14.0 36.9 13.65 36.85 12.25 36.6 12.2 36.6 10.9 36.25 11.5 36.0 10.9 36.25 Q10.4 36.45 9.95 36.75 L9.85 36.8 9.6 37.1 8.7 38.2 8.5 38.4 8.5 38.45 8.1 38.95 6.65 40.8 7.3 39.05 7.65 38.2 7.3 38.1 Q6.9 38.0 6.2 37.15 L6.35 37.05 6.5 36.95 6.7 36.85 7.25 36.4 7.55 36.2 7.8 35.95 8.05 35.7 7.9 35.6 9.05 35.35 9.6 34.8 9.45 33.35 8.95 32.1 7.9 30.05 7.35 28.9 7.25 28.6 7.6 28.6 M12.1 35.7 L11.75 35.2 11.7 35.1 11.5 36.0 11.5 36.2 11.7 35.9 12.1 35.7 M8.5 38.4 L8.4 38.4 7.65 38.2 8.4 38.4 8.5 38.4 M1.4 34.8 L0.4 34.3 -0.3 33.65 -0.85 33.1 -2.45 31.05 -2.45 31.0 -3.75 29.05 -4.6 27.7 -4.6 27.65 -4.75 27.45 -4.6 27.65 -4.6 27.7 -3.75 29.05 -2.45 31.0 -2.45 31.05 -0.85 33.1 -0.3 33.65 0.4 34.3 1.4 34.8 M-1.0 37.15 L0.0 38.0 3.3 40.85 3.5 41.0 3.8 41.25 4.65 41.1 4.8 41.1 6.5 41.05 6.05 41.55 6.95 41.8 7.3 41.95 7.9 42.1 8.45 42.3 9.05 42.55 10.25 42.4 10.5 42.4 10.1 43.6 10.0 43.9 9.9 44.05 9.45 44.35 8.85 44.75 8.35 44.05 8.0 43.65 7.15 42.65 Q6.45 41.95 4.95 41.95 L4.35 42.0 3.6 42.3 Q2.8 42.65 2.1 43.55 1.4 44.35 1.15 45.2 L0.55 44.45 0.45 44.35 -2.05 40.85 -3.55 38.15 -4.15 37.15 Q-4.35 36.3 -4.55 36.2 L-4.7 36.05 -3.7 35.9 -2.35 35.9 -1.0 37.15 M8.2 36.55 L8.05 36.3 6.9 37.3 8.0 37.3 8.1 37.25 8.45 37.05 8.2 36.55 M3.85 37.75 L3.85 38.55 3.5 38.3 3.1 37.75 3.5 38.3 3.85 38.55 3.85 37.75 M29.65 47.0 L29.25 46.85 28.95 46.7 28.85 46.55 29.65 46.8 29.65 47.0" fill="#2642ca" fill-rule="evenodd" stroke="none"/>
      <path d="M11.9 -2.05 L13.5 -2.05 13.5 0.9 12.0 -1.85 11.9 -2.05 M33.8 -2.05 L34.15 -2.05 34.0 -0.9 33.95 -1.05 33.8 -2.05" fill="#f3f2a4" fill-rule="evenodd" stroke="none"/>
      <path d="M56.1 25.85 L57.2 26.0 58.7 26.15 58.7 29.45 56.8 32.1 56.45 31.4 Q55.75 30.15 55.75 29.35 L55.95 27.25 56.1 25.85" fill="#ffffff" fill-rule="evenodd" stroke="none"/>
      <path d="M58.7 4.05 L58.7 16.9 56.2 24.3 56.2 24.35 56.1 24.65 53.6 24.8 52.35 24.7 50.65 24.65 52.0 22.05 50.1 21.45 46.55 20.1 45.65 19.75 44.65 19.35 44.4 19.25 41.5 18.05 40.95 17.85 41.65 17.9 45.0 18.25 48.5 18.55 52.85 18.95 53.4 19.05 54.0 17.8 54.4 16.95 57.25 9.25 58.0 6.8 54.45 7.05 54.1 7.05 53.15 7.1 49.7 7.25 49.65 7.25 44.7 7.4 44.4 7.4 44.7 7.35 49.75 6.2 52.5 5.5 53.95 5.15 54.55 5.0 56.65 4.55 58.7 4.05 M50.45 25.1 L51.05 25.1 52.05 25.3 55.65 25.8 54.55 28.4 54.55 28.45 Q52.45 33.35 50.2 37.4 L50.2 35.7 50.05 35.7 49.3 36.05 48.65 36.3 47.9 36.15 49.45 32.8 48.5 28.5 48.65 28.2 49.35 27.05 50.05 25.75 50.45 25.1 M43.9 36.1 L48.35 40.7 45.7 42.2 42.9 43.85 42.6 42.1 42.2 41.15 43.05 38.8 43.9 36.1" fill="#7e9fca" fill-rule="evenodd" stroke="none"/>
      <path d="M58.7 16.9 L58.7 24.4 56.2 24.65 56.2 24.35 56.2 24.3 58.7 16.9 M55.65 25.8 L56.1 25.85 55.95 27.25 55.75 29.35 Q55.75 30.15 56.45 31.4 L56.8 32.1 Q54.25 35.6 50.8 39.1 L50.25 38.8 50.2 37.4 Q52.45 33.35 54.55 28.45 L54.55 28.4 55.65 25.8" fill="#cbe4ff" fill-rule="evenodd" stroke="none"/>
      <path d="M-4.75 20.7 L-4.75 18.7 -4.35 18.75 -4.35 19.45 -4.5 19.9 -4.75 20.7" fill="#8deaee" fill-rule="evenodd" stroke="none"/>
      <path d="M29.5 10.55 L28.25 7.85 28.2 7.7 26.85 5.45 28.0 4.85 28.95 4.25 29.05 4.45 Q29.95 5.9 29.95 6.4 L30.05 6.45 30.1 6.55 30.1 6.4 30.9 4.95 31.95 3.55 31.65 5.25 30.95 8.45 30.5 10.2 30.45 10.45 30.4 10.5 30.4 10.65 30.3 10.75 30.0 10.75 29.9 10.75 29.85 10.7 29.7 10.65 29.5 10.55 M41.65 -2.05 L42.7 -2.05 41.1 0.8 40.6 1.75 Q39.35 2.15 38.25 2.75 L40.85 0.05 40.9 -0.05 41.25 -0.95 41.3 -1.15 41.65 -2.05 M44.2 -2.05 L48.0 -2.05 47.45 -1.6 45.35 0.2 44.95 0.5 43.1 1.05 43.4 0.2 44.2 -2.05 M36.85 50.45 L36.7 51.6 36.55 51.7 35.85 51.4 35.55 51.15 35.4 50.95 34.95 50.15 34.3 48.95 34.45 48.8 35.1 48.55 35.9 47.95 36.75 50.15 36.8 50.25 36.85 50.45 M-4.75 55.1 L-4.75 53.1 -3.6 53.6 -3.5 53.6 -4.75 52.8 -4.75 50.5 -4.5 50.5 Q-4.05 51.1 -3.5 52.05 L-2.2 54.2 -3.3 54.6 -4.75 55.1 M-4.75 37.15 L-4.75 36.05 -4.7 36.05 -4.55 36.2 Q-4.35 36.3 -4.15 37.15 L-4.1 37.3 -4.4 37.15 -4.75 37.15 M-4.75 21.6 L-4.75 20.7 -4.5 19.9 -4.35 19.45 -4.35 18.75 -4.75 18.7 -4.75 14.9 -3.85 14.55 -3.9 16.35 -3.9 17.2 -3.8 19.55 -3.7 20.6 -3.95 20.85 -4.4 21.3 -4.75 21.6 M-4.75 9.95 L-4.75 7.05 -4.6 7.05 -4.55 7.1 -2.5 7.5 -2.45 7.5 -2.35 8.55 -2.35 9.65 -2.9 9.75 -4.75 9.95 M-3.5 21.85 L-2.95 23.55 -2.9 23.65 -2.65 23.9 -2.6 24.0 -0.3 26.1 0.6 26.9 2.4 28.25 3.25 28.9 3.4 29.0 3.65 29.35 3.9 29.6 3.95 29.55 4.5 29.0 4.65 28.8 4.65 28.95 4.75 29.5 4.9 30.85 4.95 31.05 4.95 31.3 5.0 31.4 5.8 31.95 5.95 32.1 6.25 32.25 6.2 32.25 6.2 32.3 6.3 32.45 6.8 34.2 6.9 34.9 6.9 35.05 6.8 35.0 6.7 34.9 6.15 34.6 6.7 34.9 6.8 35.0 6.9 35.05 6.95 35.05 7.2 35.2 7.3 35.55 7.55 36.2 7.25 36.4 6.7 36.85 6.7 36.75 6.2 34.8 6.15 34.6 4.35 33.6 4.3 33.55 4.0 33.35 3.95 33.35 4.0 33.35 4.3 33.55 4.35 33.6 4.3 34.05 4.3 34.4 Q4.3 34.9 4.45 35.05 L6.35 36.75 6.4 36.85 6.5 36.95 6.35 37.05 5.1 36.3 5.05 36.3 3.85 35.6 3.85 35.2 3.9 34.5 3.95 33.35 3.65 33.2 3.55 33.1 3.1 32.3 Q1.7 30.65 1.7 29.75 L3.1 29.6 3.8 29.7 3.9 29.6 3.8 29.7 3.1 29.6 1.7 29.75 Q1.7 30.65 3.1 32.3 L3.55 33.1 2.35 32.1 1.4 31.2 -0.65 28.95 -1.5 27.9 -2.35 26.85 -4.0 24.65 -4.05 24.6 -4.4 24.1 -4.65 23.55 -4.0 22.55 -3.5 21.85 M24.3 18.75 L24.45 18.05 25.2 19.45 25.55 20.2 25.75 20.8 26.0 21.45 26.6 23.4 26.55 23.4 25.0 22.0 25.9 24.05 26.8 26.3 27.25 27.7 Q26.7 28.3 26.0 29.85 26.35 29.35 27.2 28.6 L27.7 28.1 28.25 28.5 28.45 28.65 30.65 30.3 30.8 31.65 30.85 32.2 30.9 34.1 31.2 31.9 31.25 31.35 31.5 29.65 Q32.45 28.05 32.9 26.5 L33.0 26.3 Q33.6 28.1 33.75 31.6 L32.45 33.1 31.7 33.95 31.3 34.35 30.95 36.1 30.6 37.5 30.65 37.0 30.8 35.95 30.9 35.0 30.95 34.75 30.95 34.35 30.8 34.35 29.5 33.65 29.0 33.35 28.5 32.9 28.1 32.5 27.45 31.9 26.4 30.85 25.8 30.3 25.55 30.05 25.35 29.9 25.4 29.9 25.45 29.9 25.0 27.0 24.9 26.5 24.9 26.0 24.3 22.2 24.1 21.25 24.0 20.8 24.2 21.0 24.2 20.6 24.3 19.8 24.3 18.8 24.3 18.75 M14.8 25.2 L17.0 25.95 17.45 26.15 Q19.05 26.9 20.65 28.05 L21.15 28.45 21.9 29.0 22.2 29.1 20.55 29.2 19.75 29.3 18.7 29.55 18.55 29.45 16.6 27.6 15.8 26.7 15.75 26.65 14.85 25.5 14.8 25.2 M11.55 30.05 L12.4 30.85 12.7 31.15 12.85 31.4 12.25 33.35 12.15 33.8 11.7 35.1 11.25 34.5 9.55 31.95 9.05 31.15 7.6 28.6 7.2 27.8 6.8 26.95 7.55 27.2 8.8 27.6 9.7 28.45 11.55 30.05 M8.5 38.45 L10.55 39.95 10.4 40.2 10.4 40.25 9.55 40.95 9.3 41.25 9.1 41.5 8.45 42.3 7.9 42.1 7.3 41.95 6.95 41.8 6.05 41.55 6.5 41.05 6.65 40.8 8.1 38.95 8.5 38.45 M2.85 30.35 L2.4 30.35 3.25 31.45 4.05 32.55 4.1 32.55 4.7 32.45 4.8 32.4 4.85 32.4 4.8 32.35 4.8 32.3 4.5 31.85 3.95 30.9 3.65 30.55 3.6 30.4 2.85 30.35 M8.2 36.55 L8.45 37.05 8.1 37.25 8.0 37.3 6.9 37.3 8.05 36.3 8.2 36.55 M34.3 37.25 L34.5 38.1 34.45 38.2 31.6 38.5 31.75 37.5 32.35 36.05 33.05 34.35 33.25 33.85 Q33.75 36.2 34.3 37.3 L34.3 37.25 M-4.0 40.4 L-3.95 39.35 -2.0 41.75 Q-0.75 43.35 -0.55 43.85 L-0.85 43.85 -1.55 43.65 -3.1 43.35 -3.7 43.35 -4.0 40.4" fill="#48bade" fill-rule="evenodd" stroke="none"/>
      <path d="M36.55 51.7 L35.3 53.5 34.6 54.75 34.15 55.25 34.1 55.0 34.05 54.8 34.3 54.3 35.55 51.15 35.85 51.4 36.55 51.7 M-3.85 56.65 L-4.75 56.65 -4.75 55.1 -3.3 54.6 -2.2 54.2 -3.5 52.05 Q-4.05 51.1 -4.5 50.5 L-3.25 50.45 -3.2 50.45 -2.1 51.85 -1.25 52.95 -1.1 53.05 1.3 53.9 -0.35 53.6 -0.8 53.5 -0.7 53.7 -2.05 54.85 -2.5 55.3 -3.85 56.65 M-4.75 44.55 L-4.75 37.15 -4.4 37.15 -4.1 37.3 -4.15 37.15 -3.55 38.15 -2.05 40.85 0.45 44.35 0.55 44.45 1.15 45.2 1.0 45.5 -1.1 45.85 -1.35 45.9 -2.4 46.05 -4.1 44.95 -4.75 44.55 M-4.75 12.45 L-4.75 9.95 -2.9 9.75 -2.35 9.65 -2.35 9.8 -2.5 10.45 -2.5 10.5 -3.6 11.85 -3.85 11.9 -4.75 12.45 M41.9 6.2 Q43.2 6.45 43.2 6.65 L43.15 7.1 43.05 7.45 Q42.6 8.65 41.05 10.25 L40.35 10.15 40.35 9.95 41.4 6.15 41.9 6.2 M38.45 5.85 L38.5 5.85 38.3 6.15 38.05 6.65 37.0 8.85 36.0 8.05 35.95 8.0 35.8 7.75 36.7 7.1 37.65 6.35 38.45 5.85 M33.9 31.5 L33.8 32.0 33.8 32.05 33.8 32.1 33.8 32.15 33.75 32.55 33.65 32.8 33.25 33.85 33.05 34.35 32.35 36.05 31.75 37.5 30.85 39.5 30.8 39.55 30.3 39.65 30.0 39.5 30.1 39.35 30.55 37.55 30.6 37.5 30.95 36.1 31.3 34.35 31.7 33.95 32.45 33.1 33.75 31.6 33.9 31.5 M38.65 34.05 L38.2 38.1 37.1 40.2 37.05 40.25 36.0 41.6 35.3 42.4 35.0 42.85 35.0 42.9 34.8 43.05 34.5 38.1 Q36.8 33.4 37.1 33.4 L38.35 33.9 38.65 34.05 M15.75 26.65 L15.8 26.7 16.6 27.6 17.25 28.45 18.85 30.55 17.95 30.4 17.15 30.4 16.5 29.7 17.15 30.4 17.35 30.7 17.4 30.95 17.45 31.3 17.45 31.5 17.4 31.75 17.35 32.35 16.6 35.6 16.5 34.95 16.3 33.8 16.35 33.55 16.55 32.25 16.55 31.7 16.55 31.35 16.45 30.4 16.4 30.1 16.25 29.45 16.5 29.7 15.65 28.1 15.6 27.95 15.55 27.6 15.55 27.45 Q15.5 26.85 15.75 26.65 M14.25 25.1 L14.35 25.2 14.45 25.3 15.1 26.2 15.05 27.35 14.5 27.25 14.35 25.7 14.25 25.1 M14.6 40.35 L14.8 40.45 15.0 40.5 15.55 40.7 15.85 40.75 15.9 40.75 17.4 40.25 17.0 41.25 16.95 41.3 16.85 41.5 16.3 41.6 15.95 41.7 13.35 42.1 12.8 42.1 12.1 42.25 10.5 42.4 10.25 42.4 9.05 42.55 8.45 42.3 9.1 41.5 10.5 40.45 10.95 40.05 11.55 39.95 12.6 39.75 12.65 39.75 13.8 40.1 14.6 40.35 M6.95 35.05 L6.95 34.8 6.9 34.55 6.6 33.05 6.45 32.25 7.45 32.25 8.95 32.1 9.45 33.35 9.6 34.8 9.05 35.35 7.9 35.6 8.05 35.7 7.8 35.95 7.55 36.2 7.3 35.55 7.2 35.2 6.95 35.05 M6.35 37.05 L6.2 37.15 Q6.9 38.0 7.3 38.1 L7.65 38.2 7.3 39.05 6.65 40.8 6.5 41.05 4.8 41.1 4.65 41.1 3.8 41.25 3.5 41.0 3.3 40.85 0.0 38.0 -1.0 37.15 2.35 39.0 3.55 39.55 3.65 39.55 3.75 39.75 3.95 40.55 4.05 40.55 4.25 39.8 4.65 39.25 3.85 37.75 3.85 36.4 3.85 35.6 5.05 36.3 5.1 36.3 6.35 37.05 M7.2 35.2 L7.65 35.5 7.9 35.6 7.65 35.5 7.2 35.2 M9.55 37.45 L9.5 37.5 9.5 37.45 9.55 37.45 M31.9 43.05 L31.75 42.4 31.7 40.4 32.6 41.4 33.5 42.4 32.5 43.65 31.9 43.0 31.9 43.05 M-4.0 40.4 L-3.7 43.35 -3.1 43.35 -1.55 43.65 -0.85 43.85 -0.55 43.85 Q-0.75 43.35 -2.0 41.75 L-3.95 39.35 -4.0 40.4" fill="#3188c6" fill-rule="evenodd" stroke="none"/>
      <path d="M50.25 38.8 L44.0 35.8 43.9 36.1 43.55 35.75 43.9 36.1 43.05 38.8 42.2 41.15 42.6 42.1 42.9 43.85 45.7 42.2 48.35 40.7 48.75 41.1 48.35 41.5 Q44.4 45.25 40.75 47.8 L39.9 46.55 38.05 43.35 38.5 46.05 Q38.85 47.8 39.4 48.7 L36.85 50.25 36.95 48.65 36.95 46.1 36.95 46.0 34.6 46.1 34.8 44.7 35.2 44.0 Q37.65 42.5 40.65 39.25 L43.55 35.75 43.85 35.4 42.15 32.75 41.3 31.2 40.35 29.4 39.55 27.7 39.2 26.95 39.75 27.5 40.6 28.4 41.1 28.95 43.95 31.6 45.55 32.8 45.7 32.85 48.3 28.8 48.5 28.5 49.45 32.8 47.9 36.15 48.65 36.3 49.3 36.05 50.05 35.7 50.2 35.7 50.2 37.4 50.25 38.8 M-4.75 50.5 L-4.75 48.15 -3.1 47.15 -2.8 49.55 -2.7 50.45 -3.2 50.45 -3.25 50.45 -4.5 50.5 -4.75 50.5 M4.25 43.55 L4.2 43.55 4.25 43.5 4.35 43.55 4.25 43.55 M1.15 45.2 L1.25 45.3 1.35 45.45 1.0 45.5 1.15 45.2 M2.95 53.35 L3.55 53.2 3.2 54.65 3.1 54.3 2.95 53.35 M38.05 43.35 L37.9 43.05 38.05 43.35" fill="#325a7d" fill-rule="evenodd" stroke="none"/>
      <path d="M19.6 14.0 L21.35 14.4 21.6 11.85 Q21.8 10.2 22.35 8.9 L24.3 11.2 Q24.9 11.9 25.7 15.1 L25.75 15.4 24.45 18.05 24.3 18.75 23.55 17.8 21.5 15.8 19.6 14.0 M34.0 56.65 L26.35 56.65 26.6 56.2 26.9 55.7 Q27.7 54.1 27.7 52.55 L27.65 51.1 27.4 49.05 27.9 48.95 28.35 49.5 Q28.6 50.25 30.15 51.85 L30.8 52.5 31.85 53.45 32.6 54.05 32.6 54.1 33.1 53.35 33.2 53.4 33.65 52.75 33.95 54.3 34.05 54.8 34.1 55.0 34.1 55.3 34.0 56.65 M24.9 56.65 L11.4 56.65 12.15 55.15 12.8 53.9 13.8 52.0 14.75 51.1 15.0 50.85 16.05 50.1 16.4 49.8 16.6 49.55 17.0 49.2 17.2 48.95 18.0 48.0 18.05 49.2 18.05 50.3 19.0 49.2 19.4 48.55 20.8 46.95 21.8 47.0 23.6 47.8 23.9 48.15 24.45 49.2 24.75 50.85 25.0 54.7 24.9 56.65 M2.4 28.25 L2.85 26.65 2.85 26.8 4.25 27.95 4.9 28.45 4.85 28.6 4.65 28.8 4.5 29.0 3.95 29.55 3.65 29.35 3.4 29.0 3.25 28.9 2.4 28.25 M4.95 25.6 Q2.6 25.1 1.35 23.9 -0.5 22.15 -1.1 17.9 L-1.1 14.25 -0.95 14.25 Q-0.4 16.25 0.6 17.6 1.85 19.35 3.45 19.35 4.75 19.35 6.6 18.6 8.35 17.85 9.3 17.8 L10.25 18.75 11.55 20.25 12.25 21.15 13.35 23.3 13.35 23.45 13.4 23.5 13.5 24.1 12.25 23.8 11.0 23.55 9.05 23.15 Q5.45 24.5 3.8 24.5 L3.6 24.5 4.6 25.3 4.95 25.6 M3.5 24.4 L3.45 24.35 3.3 24.35 3.5 24.4 M14.45 47.85 L14.75 47.8 16.1 47.75 16.1 47.8 Q15.8 47.95 15.05 48.95 14.6 49.55 12.85 49.55 L11.7 49.5 12.4 48.7 12.6 48.55 14.45 47.85" fill="#fbfdfc" fill-rule="evenodd" stroke="none"/>
      <path d="M19.15 13.95 L19.6 14.0 21.5 15.8 23.55 17.8 24.3 18.75 24.3 18.8 24.3 19.8 24.2 20.6 24.2 21.0 24.0 20.8 23.45 20.2 24.0 20.8 24.1 21.25 Q23.55 20.7 23.45 20.2 L23.4 20.2 22.5 19.2 21.25 17.35 20.95 16.9 20.4 16.0 20.3 15.8 20.0 15.3 19.15 13.95 M8.8 56.65 L7.55 56.65 7.95 55.95 Q8.75 54.65 9.7 53.8 L8.35 53.9 6.95 53.75 5.6 53.15 5.45 53.05 5.2 52.85 4.95 52.6 Q3.25 51.35 2.7 49.1 L2.95 49.15 3.5 49.05 4.5 48.55 4.65 48.5 5.95 47.55 5.75 48.0 5.5 48.5 5.15 49.1 4.75 49.65 4.65 49.65 6.15 50.05 7.2 50.3 9.3 50.65 11.15 50.7 12.5 50.95 12.7 51.0 12.4 51.5 12.35 51.55 9.6 55.4 9.45 55.65 8.8 56.65 M2.75 56.65 L1.05 56.65 2.95 55.7 2.75 56.65 M4.9 28.45 L5.05 28.6 4.95 28.6 4.85 28.6 4.9 28.45 M5.3 28.6 L6.2 27.35 6.5 26.9 6.7 26.6 7.25 25.95 4.95 25.6 4.6 25.3 3.6 24.5 3.8 24.5 Q5.45 24.5 9.05 23.15 L11.0 23.55 12.25 23.8 13.5 24.1 13.4 23.5 13.5 23.7 13.8 24.45 13.8 24.65 13.7 26.4 13.75 27.2 8.45 26.35 8.15 26.3 8.05 26.3 6.7 26.6 6.8 26.9 6.8 26.95 7.2 27.8 7.6 28.6 7.25 28.6 6.75 28.6 5.3 28.6 M21.25 23.95 L21.4 24.1 21.65 24.4 21.25 23.95 M15.65 28.1 L16.5 29.7 16.25 29.45 16.15 29.3 15.7 28.9 15.65 28.1 M11.7 35.1 L11.75 35.2 12.1 35.7 11.7 35.9 11.5 36.2 11.5 36.0 11.7 35.1 M11.7 35.9 Q11.55 35.9 11.5 36.0 11.55 35.9 11.7 35.9 M3.95 29.55 L3.9 29.6 3.65 29.35 3.95 29.55 M1.85 34.85 L3.55 34.55 3.9 34.5 3.85 35.2 3.85 35.6 3.85 36.4 2.0 35.05 1.85 34.85 M33.05 50.35 L32.75 51.35 32.05 52.75 30.25 51.0 29.8 50.2 28.95 48.55 28.2 47.85 26.8 47.55 26.7 48.7 26.65 49.2 26.55 50.3 26.4 51.9 26.25 52.95 25.7 55.55 25.7 55.5 25.75 53.0 25.45 50.95 25.1 49.2 25.05 49.1 24.8 48.3 24.35 47.35 Q24.2 47.0 23.35 46.65 L22.85 46.45 20.55 45.75 20.15 46.35 19.8 47.0 18.55 49.2 18.25 49.65 18.25 49.55 18.4 48.25 18.5 47.15 18.7 45.95 18.8 45.7 18.7 45.75 17.8 46.0 17.8 44.65 17.7 44.65 Q17.3 45.9 14.75 46.95 12.3 47.95 10.1 47.95 L8.15 47.85 7.8 47.8 7.3 47.7 7.35 47.65 8.3 47.0 8.85 45.95 10.0 44.4 9.45 44.45 10.55 43.75 Q11.65 43.1 12.95 42.7 L13.3 42.6 16.15 42.1 16.6 42.1 17.1 42.1 Q18.05 42.25 19.45 43.0 L20.1 43.35 22.7 45.1 22.8 45.2 23.9 46.15 25.55 46.05 26.7 46.15 27.3 46.3 28.95 46.7 29.25 46.85 29.65 47.0 30.5 47.45 31.2 48.3 31.8 49.15 32.05 48.7 32.45 49.25 32.75 49.8 33.05 50.35 M23.2 30.2 L23.2 30.15 23.25 30.2 23.2 30.2" fill="#839dce" fill-rule="evenodd" stroke="none"/>
      <path d="M7.55 56.65 L2.75 56.65 2.95 55.7 3.25 55.0 3.2 54.65 3.55 53.2 Q4.25 53.05 4.95 52.6 L5.2 52.85 5.45 53.05 5.6 53.15 5.6 54.05 6.95 53.75 8.35 53.9 9.7 53.8 Q8.75 54.65 7.95 55.95 L7.55 56.65" fill="#1b37e3" fill-rule="evenodd" stroke="none"/>
      <path d="M26.3 14.5 L26.5 14.1 26.95 13.3 26.95 13.85 26.95 13.9 26.7 18.85 26.65 19.6 26.85 20.5 27.0 21.0 27.1 21.1 28.65 24.25 28.9 24.8 29.2 25.35 30.2 27.55 30.25 27.85 30.5 29.9 30.55 29.35 30.65 24.35 30.75 23.8 30.8 23.1 30.55 20.05 31.2 21.6 31.9 22.9 32.25 23.4 32.35 23.45 32.75 24.0 32.75 24.1 33.2 24.55 33.3 24.6 33.3 24.65 33.45 24.75 33.65 25.35 33.75 25.6 33.85 26.1 33.9 26.8 33.95 28.15 33.95 29.15 33.95 29.7 33.9 31.5 33.75 31.6 Q33.6 28.1 33.0 26.3 L32.9 26.5 Q32.45 28.05 31.5 29.65 L31.25 31.35 31.2 31.9 30.9 34.1 30.85 32.2 30.8 31.65 30.65 30.3 28.45 28.65 28.25 28.5 27.7 28.1 27.2 28.6 Q26.35 29.35 26.0 29.85 26.7 28.3 27.25 27.7 L26.8 26.3 25.9 24.05 25.0 22.0 26.55 23.4 26.6 23.4 26.0 21.45 25.75 20.8 25.55 20.2 25.2 19.45 24.45 18.05 25.75 15.4 26.3 14.5 M36.85 50.25 L36.85 50.45 36.8 50.25 36.75 50.15 35.9 47.95 35.1 48.55 34.45 48.8 35.7 47.4 36.95 46.1 36.95 48.65 36.85 50.25 M-4.75 53.1 L-4.75 52.8 -3.5 53.6 -3.6 53.6 -4.75 53.1 M-4.75 36.05 L-4.75 34.65 -3.65 34.75 -2.05 34.9 -1.65 34.9 Q-3.4 33.25 -4.75 31.3 L-4.75 29.9 -3.7 30.3 -1.7 32.7 1.85 36.6 3.1 37.75 3.45 39.05 3.5 39.1 3.6 39.35 3.75 39.55 3.65 39.55 3.55 39.55 2.35 39.0 -1.0 37.15 -2.35 35.9 -3.7 35.9 -4.7 36.05 -4.75 36.05 M5.05 28.6 L5.2 28.6 5.3 28.6 6.75 28.6 7.25 28.6 7.35 28.9 7.9 30.05 8.95 32.1 7.45 32.25 6.45 32.25 6.6 33.05 6.9 34.55 6.95 34.8 6.95 35.05 6.9 35.05 6.9 34.9 6.8 34.2 6.3 32.45 6.2 32.3 6.2 32.25 6.25 32.25 5.95 32.1 5.8 31.95 5.0 31.4 4.95 31.3 4.95 31.05 4.9 30.85 4.75 29.5 4.65 28.95 4.65 28.8 4.85 28.6 4.95 28.6 5.05 28.6 M33.8 32.05 Q35.75 29.9 36.6 29.45 L37.0 29.3 37.1 30.85 Q37.2 33.3 36.4 34.3 L34.3 37.25 34.3 37.3 Q33.75 36.2 33.25 33.85 L33.65 32.8 33.75 32.55 33.8 32.15 33.8 32.1 33.8 32.05 M32.45 24.5 L32.45 24.55 32.55 24.8 32.65 25.5 32.65 26.4 33.2 25.1 32.4 24.4 32.45 24.5 M13.75 27.2 L13.8 27.2 14.45 27.6 15.35 28.45 15.5 28.65 15.7 28.9 16.15 29.3 16.25 29.45 16.4 30.1 16.45 30.4 16.55 31.35 16.55 31.7 16.55 32.25 16.35 33.55 16.3 33.8 16.25 33.8 16.25 33.75 15.6 33.1 15.35 32.95 Q14.5 32.2 13.1 31.65 L13.05 31.75 12.15 33.8 12.25 33.35 12.85 31.4 12.7 31.15 12.4 30.85 11.55 30.05 10.4 28.95 9.25 27.75 9.3 27.75 8.8 26.9 8.45 26.35 13.75 27.2 M12.1 29.6 L13.3 30.75 13.6 30.9 14.35 31.35 15.6 32.0 15.6 31.55 Q15.65 30.2 14.75 29.25 L13.55 28.4 13.15 28.15 Q11.7 27.5 9.7 27.4 L9.7 27.55 Q9.85 28.0 10.3 28.3 L12.1 29.6 M10.9 36.25 L12.2 36.6 12.25 36.6 13.65 36.85 14.0 36.9 14.35 36.9 14.15 37.25 12.8 39.5 Q13.25 39.8 14.6 40.35 L13.8 40.1 12.65 39.75 12.6 39.75 11.55 39.95 10.95 40.05 10.5 40.45 9.1 41.5 9.3 41.25 9.55 40.95 10.4 40.25 10.4 40.2 10.55 39.95 8.5 38.45 8.5 38.4 8.7 38.2 9.6 37.1 9.85 36.8 9.95 36.75 Q10.4 36.45 10.9 36.25 M6.35 29.3 L4.95 28.95 4.95 29.85 5.15 30.55 5.5 31.0 5.6 31.0 7.35 31.0 Q7.2 29.7 6.4 29.3 L6.35 29.3 M4.35 33.6 L6.15 34.6 6.2 34.8 6.7 36.75 6.7 36.85 6.5 36.95 6.4 36.85 6.35 36.75 4.45 35.05 Q4.3 34.9 4.3 34.4 L4.3 34.05 4.35 33.6 M2.85 30.35 L3.6 30.4 3.65 30.55 3.95 30.9 4.5 31.85 4.8 32.3 4.8 32.35 4.85 32.4 4.8 32.4 4.7 32.45 4.1 32.55 4.05 32.55 3.25 31.45 2.4 30.35 2.85 30.35 M9.55 37.45 L9.5 37.45 9.5 37.5 9.55 37.45 M9.2 38.4 L9.35 38.55 10.15 39.1 11.1 39.3 11.7 38.9 12.95 37.75 13.35 37.5 13.35 37.45 13.2 37.45 11.55 37.4 11.2 37.3 10.7 37.3 10.4 37.3 9.85 37.8 9.2 38.4 M2.35 38.55 L0.7 36.6 Q-0.05 36.05 -0.7 35.85 L0.85 37.3 2.35 38.55" fill="#96f8f7" fill-rule="evenodd" stroke="none"/>
      <path d="M1.15 45.2 Q1.4 44.35 2.1 43.55 2.8 42.65 3.6 42.3 L4.35 42.0 4.95 41.95 Q6.45 41.95 7.15 42.65 L8.0 43.65 8.35 44.05 8.4 45.3 5.95 47.55 4.65 48.5 4.5 48.55 3.5 49.05 2.95 49.15 2.7 49.1 Q3.25 51.35 4.95 52.6 4.25 53.05 3.55 53.2 L2.95 53.35 2.25 53.35 1.6 53.35 2.25 53.35 2.95 53.35 3.1 54.3 2.6 54.1 Q2.0 53.75 1.85 53.45 L1.65 53.45 1.6 53.35 1.4 52.1 0.85 49.3 0.85 46.85 Q0.85 46.15 1.0 45.5 L1.35 45.45 1.25 45.3 1.15 45.2 M4.25 43.5 L4.2 43.55 4.25 43.55 4.1 43.65 3.75 43.7 Q3.3 43.9 2.95 44.55 L2.6 45.3 2.55 45.8 2.55 46.4 2.65 47.15 2.8 47.25 2.95 47.3 3.65 47.4 5.0 47.25 Q5.7 47.0 6.05 46.6 L6.3 46.15 6.5 45.35 6.55 44.2 Q6.55 43.9 5.35 43.65 L4.65 43.55 4.25 43.5 M33.05 50.35 L32.75 49.8 32.45 49.25 32.05 48.7 32.2 48.5 32.2 47.9 32.75 48.25 Q33.45 48.25 33.45 46.45 33.45 45.95 33.0 45.35 L32.75 45.1 32.05 44.75 31.9 43.05 31.9 43.0 32.5 43.65 33.45 44.9 33.65 45.3 33.9 46.15 34.1 48.1 34.1 48.8 33.95 50.4 33.45 51.9 33.2 50.7 33.15 50.5 33.05 50.35 M30.5 47.45 L29.65 47.0 29.65 46.8 29.85 46.85 30.5 47.45" fill="#13295b" fill-rule="evenodd" stroke="none"/>
      <path d="M4.25 43.5 L4.65 43.55 5.35 43.65 Q6.55 43.9 6.55 44.2 L6.5 45.35 6.3 46.15 6.05 46.6 Q5.7 47.0 5.0 47.25 L3.65 47.4 2.95 47.3 2.8 47.25 2.65 47.15 2.55 46.4 2.55 45.8 2.6 45.3 2.95 44.55 Q3.3 43.9 3.75 43.7 L4.1 43.65 4.25 43.55 4.35 43.55 4.25 43.5 M32.2 46.7 L32.05 44.8 32.05 44.75 32.75 45.1 33.0 45.35 Q33.45 45.95 33.45 46.45 33.45 48.25 32.75 48.25 L32.2 47.9 32.2 46.7" fill="#3962bc" fill-rule="evenodd" stroke="none"/>
      <path d="M8.35 44.05 L8.85 44.75 9.45 44.35 9.9 44.05 10.0 43.9 10.1 43.6 10.5 42.4 12.1 42.25 12.8 42.1 13.35 42.1 15.95 41.7 16.3 41.6 16.6 42.1 16.15 42.1 13.3 42.6 12.95 42.7 Q11.65 43.1 10.55 43.75 L9.45 44.45 8.85 44.9 8.75 44.9 8.5 45.2 8.4 45.3 8.35 44.05 M9.9 44.05 L10.0 44.05 10.0 43.9 10.0 44.05 9.9 44.05 M6.95 53.75 L5.6 54.05 5.6 53.15 6.95 53.75" fill="#18304d" fill-rule="evenodd" stroke="none"/>
      <path d="M17.4 31.75 L17.65 31.95 Q18.0 32.1 18.35 32.4 L20.4 33.75 20.35 34.85 19.95 34.6 19.7 34.45 17.8 33.2 17.35 35.35 16.8 37.15 16.6 37.5 17.75 38.95 17.9 39.15 20.2 39.25 20.25 39.25 20.15 37.85 Q20.15 36.65 20.3 35.95 L20.35 35.9 Q20.45 39.0 21.3 40.1 21.85 40.8 23.1 41.35 21.1 42.25 20.5 42.25 L17.95 41.55 17.0 41.25 17.4 40.25 17.45 40.2 17.45 39.95 16.15 39.0 15.85 38.65 15.45 38.2 Q14.9 37.25 15.15 35.9 L16.55 35.75 16.6 35.6 17.35 32.35 17.4 31.75" fill="#c3fcff" fill-rule="evenodd" stroke="none"/>
      <path d="M20.35 35.9 L20.3 35.95 Q20.15 36.65 20.15 37.85 L20.25 39.25 20.2 39.25 17.9 39.15 17.75 38.95 16.6 37.5 16.8 37.15 17.35 35.35 17.8 33.2 19.7 34.45 19.95 34.6 20.35 34.85 20.35 35.2 20.35 35.9" fill="#f8fbff" fill-rule="evenodd" stroke="none"/>
      <path d="M16.3 41.6 L16.85 41.5 16.95 41.3 17.0 41.25 17.95 41.55 20.5 42.25 Q21.1 42.25 23.1 41.35 24.25 41.8 26.0 42.05 L25.05 42.25 24.2 42.8 24.45 43.2 23.75 43.35 Q24.05 44.65 24.4 45.2 L22.8 45.2 22.7 45.1 20.1 43.35 19.45 43.0 Q18.05 42.25 17.1 42.1 L16.6 42.1 16.3 41.6" fill="#659ace" fill-rule="evenodd" stroke="none"/>
      <path d="M26.7 46.15 L25.55 46.05 23.9 46.15 22.8 45.2 24.4 45.2 24.7 45.6 26.75 46.05 26.7 46.15 M26.75 42.65 L26.75 42.55 26.8 42.55 26.75 42.65" fill="#27385d" fill-rule="evenodd" stroke="none"/>
      <path d="M34.15 55.25 L34.4 56.65 34.0 56.65 34.1 55.3 34.1 55.0 34.15 55.25 M26.35 56.65 L24.9 56.65 25.0 54.7 24.75 50.85 24.45 49.2 23.9 48.15 23.6 47.8 21.8 47.0 20.8 46.95 19.4 48.55 19.0 49.2 18.05 50.3 18.05 49.2 18.0 48.0 17.2 48.95 17.0 49.2 16.6 49.55 16.4 49.8 16.05 50.1 15.0 50.85 14.75 51.1 13.8 52.0 12.8 53.9 12.15 55.15 11.4 56.65 8.8 56.65 9.45 55.65 9.6 55.4 12.35 51.55 12.4 51.5 12.7 51.0 12.5 50.95 11.15 50.7 9.3 50.65 7.2 50.3 6.15 50.05 4.65 49.65 4.75 49.65 5.15 49.1 5.5 48.5 5.75 48.0 5.95 47.55 8.4 45.3 8.5 45.2 8.75 44.9 8.85 44.9 9.45 44.45 10.0 44.4 8.85 45.95 8.3 47.0 7.35 47.65 7.3 47.7 7.8 47.8 8.15 47.85 10.1 47.95 Q12.3 47.95 14.75 46.95 17.3 45.9 17.7 44.65 L17.8 44.65 17.8 46.0 18.7 45.75 18.8 45.7 18.7 45.95 18.5 47.15 18.4 48.25 18.25 49.55 18.25 49.65 18.55 49.2 19.8 47.0 20.15 46.35 20.55 45.75 22.85 46.45 23.35 46.65 Q24.2 47.0 24.35 47.35 L24.8 48.3 25.05 49.1 25.1 49.2 25.45 50.95 25.75 53.0 25.7 55.5 25.7 55.55 26.25 52.95 26.4 51.9 26.55 50.3 26.65 49.2 26.7 48.7 26.8 47.55 28.2 47.85 28.95 48.55 29.8 50.2 30.25 51.0 32.05 52.75 32.75 51.35 33.05 50.35 33.15 50.5 33.2 50.7 33.45 51.9 33.5 52.05 33.6 52.55 33.65 52.75 33.2 53.4 33.1 53.35 32.6 54.1 32.6 54.05 31.85 53.45 30.8 52.5 30.15 51.85 Q28.6 50.25 28.35 49.5 L27.9 48.95 27.4 49.05 27.65 51.1 27.7 52.55 Q27.7 54.1 26.9 55.7 L26.6 56.2 26.35 56.65 M14.45 47.85 L12.6 48.55 12.4 48.7 11.7 49.5 12.85 49.55 Q14.6 49.55 15.05 48.95 15.8 47.95 16.1 47.8 L16.1 47.75 14.75 47.8 14.45 47.85" fill="#d0ecf7" fill-rule="evenodd" stroke="none"/>
      <path d="M27.7 37.85 L27.25 38.45 27.05 38.6 Q26.75 38.85 26.45 38.9 L26.0 38.95 25.9 38.95 25.6 38.85 25.45 38.65 Q25.3 38.45 25.3 37.85 L25.45 36.45 25.5 36.3 25.75 35.6 25.8 35.5 26.0 35.65 25.95 35.75 25.85 35.9 25.85 36.0 25.85 36.05 25.65 36.55 25.7 36.75 25.55 37.85 25.6 38.4 26.15 38.55 26.6 38.45 26.95 38.3 27.3 37.85 27.5 37.55 27.55 37.6 27.7 37.85 M26.05 37.05 L26.5 36.65 26.55 36.3 26.8 36.5 27.3 37.2 26.85 37.85 26.7 37.95 26.3 38.05 26.1 37.95 26.0 37.4 26.05 37.05" fill="#250215" fill-rule="evenodd" stroke="none"/>
      <path d="M26.25 35.9 L26.0 35.9 25.95 35.75 26.0 35.65 26.25 35.9 M27.3 37.2 L27.5 37.55 27.3 37.85 26.95 38.3 26.6 38.45 26.7 37.95 26.85 37.85 27.3 37.2" fill="#510b31" fill-rule="evenodd" stroke="none"/>
      <path d="M22.25 32.65 L22.25 32.6 23.55 33.6 24.45 34.25 24.6 34.35 25.8 35.5 25.75 35.6 25.5 36.3 25.45 36.45 25.3 37.85 Q25.3 38.45 25.45 38.65 L25.6 38.85 25.9 38.95 26.0 38.95 26.45 38.9 Q26.75 38.85 27.05 38.6 L27.25 38.45 27.7 37.85 27.95 38.45 28.2 39.15 28.25 39.25 28.2 39.55 28.0 40.25 27.5 40.25 26.35 40.0 27.5 40.25 26.95 40.25 26.5 40.25 26.4 40.2 26.4 40.05 26.35 40.0 25.95 39.85 25.8 39.8 24.3 39.05 23.85 38.7 Q23.05 37.95 22.75 36.95 L22.5 35.1 22.35 33.95 22.25 32.65 22.35 33.95 22.3 33.95 22.05 33.95 22.2 33.1 22.25 32.65 M25.05 35.6 L25.05 35.45 Q24.7 35.05 23.9 34.8 L23.15 34.6 Q23.0 34.6 23.0 35.0 L23.2 35.9 23.5 36.65 Q24.05 37.75 24.35 37.75 L24.6 37.55 24.75 37.05 25.05 35.6" fill="#e2c89f" fill-rule="evenodd" stroke="none"/>
      <path d="M20.4 33.75 L20.45 32.5 20.65 31.25 21.65 32.1 22.25 32.6 22.25 32.65 22.2 33.1 22.05 33.95 21.65 34.2 21.35 34.5 21.05 34.9 20.95 35.3 20.8 36.2 Q20.8 38.65 21.8 39.5 L22.75 40.1 23.75 40.3 Q24.45 40.3 24.3 39.8 L24.3 39.05 25.8 39.8 25.95 39.85 26.35 40.0 26.4 40.05 26.4 40.2 26.5 40.25 26.95 40.25 27.5 40.25 28.0 40.25 28.2 39.55 28.25 39.25 Q28.5 39.85 29.0 39.85 L29.4 39.85 29.05 40.1 28.7 40.45 28.05 41.0 27.8 41.2 27.25 41.5 26.15 41.95 26.0 42.05 Q24.25 41.8 23.1 41.35 21.85 40.8 21.3 40.1 20.45 39.0 20.35 35.9 L20.35 35.2 20.35 34.85 20.4 33.75" fill="#3b1934" fill-rule="evenodd" stroke="none"/>
      <path d="M10.55 5.4 L11.3 6.0 11.4 6.1 14.15 8.3 14.45 10.2 14.45 10.25 14.9 13.2 15.0 13.9 15.05 14.2 14.35 13.4 13.95 13.05 Q12.5 11.6 11.35 11.2 L11.1 11.15 10.65 6.75 10.6 6.4 10.55 5.4 M9.3 17.8 L4.95 14.15 3.25 12.95 4.6 12.95 6.1 13.25 7.3 13.55 6.95 13.55 6.6 13.7 6.2 13.85 10.25 16.1 11.8 17.05 13.35 18.45 13.95 20.6 14.5 23.0 14.55 23.25 13.95 23.4 13.4 23.45 13.35 23.45 13.35 23.3 12.25 21.15 11.55 20.25 10.25 18.75 9.3 17.8 M34.25 20.05 Q34.75 19.3 35.0 19.3 L35.55 20.4 35.5 21.15 35.4 21.85 35.25 23.25 34.9 25.6 34.6 27.7 34.55 28.45 34.5 28.5 34.45 28.9 34.45 28.95 34.3 29.55 34.3 29.7 34.05 31.1 34.05 31.15 33.9 31.5 33.95 29.7 33.95 29.15 33.95 28.15 33.9 26.8 33.85 26.1 33.75 25.6 33.65 25.35 33.45 24.75 33.3 24.65 33.3 24.6 33.3 24.35 33.45 23.85 33.55 23.45 33.9 22.15 33.9 22.1 34.25 20.05 M39.75 12.6 L39.15 14.7 39.1 14.8 38.45 16.2 36.8 16.9 36.8 16.75 36.4 14.25 36.35 14.0 36.3 13.85 36.5 13.7 37.0 13.5 38.45 13.0 39.75 12.6 M25.4 29.9 L25.35 29.9 24.75 29.7 22.2 29.1 21.9 29.0 21.15 28.45 20.65 28.05 Q19.05 26.9 17.45 26.15 L17.0 25.95 14.8 25.2 14.8 25.1 14.65 23.8 15.15 23.7 15.9 23.4 17.0 22.7 Q17.45 22.25 17.45 21.6 L16.65 18.8 16.0 16.35 17.3 18.35 17.5 18.7 17.8 19.25 18.05 19.7 18.45 20.5 18.8 21.3 19.05 21.9 19.3 22.6 19.85 23.1 Q20.55 23.3 21.1 23.8 L21.25 23.95 21.65 24.4 22.6 25.4 24.2 27.3 24.2 27.35 25.4 29.9 M32.05 48.7 L31.8 49.15 31.2 48.3 30.5 47.45 29.85 46.85 29.7 46.7 28.6 45.65 28.15 45.2 27.35 44.75 25.6 44.15 25.3 44.05 25.6 44.15 27.35 44.75 28.15 45.2 28.6 45.65 29.7 46.7 29.85 46.85 29.65 46.8 28.85 46.55 27.35 46.15 26.75 46.05 24.7 45.6 24.4 45.2 Q24.05 44.65 23.75 43.35 L24.45 43.2 24.2 42.8 25.05 42.25 26.0 42.05 26.15 41.95 27.25 41.5 27.8 41.2 28.05 41.0 28.7 40.45 29.05 40.1 29.4 39.85 30.3 39.65 30.8 39.55 30.85 39.5 31.35 40.85 31.05 40.7 30.1 40.45 29.25 40.85 28.55 41.25 28.0 41.65 27.95 41.65 27.65 41.85 27.55 42.3 27.2 43.5 27.6 44.1 28.35 44.85 28.45 44.95 29.8 46.25 30.55 47.15 31.5 48.0 31.75 47.6 32.2 46.7 32.2 47.9 32.2 48.5 32.05 48.7 M25.15 44.05 L24.75 43.6 24.45 43.2 24.75 43.6 25.15 44.05 25.3 44.05 25.15 44.05 M26.75 42.65 L26.8 42.55 26.75 42.55 26.75 42.65" fill="#ee9f42" fill-rule="evenodd" stroke="none"/>
      <path d="M10.3 -2.05 L11.3 -2.05 11.45 -1.65 11.5 -1.55 Q12.7 1.55 13.35 2.45 L13.65 4.8 13.8 5.65 14.15 8.3 11.4 6.1 11.3 6.0 10.55 5.4 Q10.2 1.6 10.2 -0.6 L10.25 -1.1 10.3 -2.05 M17.8 9.95 L18.7 13.15 19.15 13.95 20.0 15.3 20.3 15.8 20.4 16.0 20.95 16.9 21.25 17.35 20.4 17.2 18.1 16.9 17.7 16.95 17.6 17.35 17.6 17.45 17.7 18.6 17.8 19.25 17.5 18.7 17.3 18.35 16.0 16.35 16.65 18.8 17.45 21.6 Q17.45 22.25 17.0 22.7 L15.9 23.4 15.15 23.7 14.65 23.8 14.6 23.7 14.55 23.25 14.5 23.0 13.95 20.6 13.35 18.45 11.6 13.2 11.45 12.85 11.25 12.3 11.1 11.3 11.1 11.15 11.35 11.2 Q12.5 11.6 13.95 13.05 L14.35 13.4 15.05 14.2 15.25 15.35 15.35 15.6 15.7 16.05 16.05 16.0 16.25 15.95 16.45 15.9 16.9 14.85 17.15 13.55 17.3 12.65 17.8 9.95 M3.25 12.95 Q2.95 12.7 2.7 12.6 L2.4 12.3 1.55 11.75 0.15 10.05 -0.4 9.35 Q-0.75 8.6 -1.75 7.4 L-4.75 4.15 -4.75 2.1 -0.75 6.05 1.2 7.85 1.25 8.2 Q1.5 10.7 1.7 11.05 L1.7 11.2 1.95 9.5 2.1 8.55 2.5 8.85 Q3.4 9.1 4.55 9.8 L4.95 10.05 6.65 11.2 5.6 9.35 5.35 8.9 5.05 8.4 5.5 8.7 5.9 8.95 8.15 10.55 8.25 10.9 8.45 11.35 Q8.9 12.7 9.3 13.45 L9.85 14.25 9.85 14.4 8.55 13.9 7.3 13.55 6.1 13.25 4.6 12.95 3.25 12.95 M41.75 5.1 L41.4 6.15 40.35 9.95 40.35 10.15 40.2 10.65 40.1 11.15 40.05 11.2 39.75 12.6 38.45 13.0 37.0 13.5 36.5 13.7 36.3 13.85 36.2 13.25 35.95 11.35 36.0 11.2 37.0 8.85 38.05 6.65 38.1 7.3 38.25 9.5 38.05 10.45 37.7 12.25 37.75 12.15 38.85 9.75 39.0 9.3 39.25 8.65 41.05 6.1 41.75 5.1 M31.9 17.25 L32.05 15.95 32.45 11.4 32.75 5.35 32.85 1.5 32.9 0.75 32.9 0.7 33.4 1.35 34.15 5.05 34.15 5.65 Q34.45 8.2 34.7 8.95 L34.55 9.7 34.55 10.5 34.65 14.95 34.7 15.1 34.85 14.1 35.15 11.85 35.3 10.2 35.65 6.95 35.75 9.5 35.7 10.1 35.7 10.35 35.55 12.45 35.15 14.8 35.1 15.2 35.0 15.8 34.7 17.6 34.25 20.05 33.9 20.75 33.7 21.0 32.25 23.4 31.9 22.9 31.2 21.6 31.9 17.25 M37.65 12.35 L37.55 12.35 37.65 12.35 M32.2 46.7 L31.75 47.6 31.5 48.0 30.55 47.15 29.8 46.25 28.45 44.95 28.35 44.85 27.6 44.1 27.2 43.5 27.55 42.3 27.65 41.85 27.95 41.65 28.0 41.65 28.55 41.25 29.25 40.85 30.1 40.45 31.05 40.7 31.35 40.85 31.65 41.8 31.75 42.4 31.9 43.05 32.05 44.75 32.05 44.8 32.2 46.7 M29.25 41.65 L28.8 42.15 29.45 42.65 30.7 43.65 30.9 43.65 30.9 43.15 30.35 41.75 30.3 41.6 30.2 41.4 29.8 41.25 29.65 41.4 29.25 41.65" fill="#eae774" fill-rule="evenodd" stroke="none"/>
      <path d="M14.15 8.3 L13.8 5.65 13.65 4.8 13.35 2.45 Q12.7 1.55 11.5 -1.55 L11.45 -1.65 11.3 -2.05 11.9 -2.05 12.0 -1.85 13.5 0.9 13.5 -2.05 14.7 -2.05 16.1 3.6 16.25 4.25 17.6 9.2 17.8 9.95 17.3 12.65 17.15 13.55 16.9 14.85 16.45 15.9 16.25 15.95 16.05 16.0 15.7 16.05 15.35 15.6 15.25 15.35 15.05 14.2 15.0 13.9 14.9 13.2 14.45 10.25 14.45 10.2 14.15 8.3 M32.95 -2.05 L33.8 -2.05 33.95 -1.05 34.0 -0.9 34.15 -2.05 35.25 -2.05 35.55 4.8 35.65 6.95 35.3 10.2 35.15 11.85 34.85 14.1 34.7 15.1 34.65 14.95 34.55 10.5 34.55 9.7 34.7 8.95 Q34.45 8.2 34.15 5.65 L34.15 5.05 33.4 1.35 32.9 0.7 32.95 -2.05 M42.7 -2.05 L44.2 -2.05 43.4 0.2 43.1 1.05 42.7 2.2 42.65 2.35 41.75 5.1 41.05 6.1 39.25 8.65 39.0 9.3 38.85 9.75 37.75 12.15 37.7 12.25 38.05 10.45 38.25 9.5 38.1 7.3 38.05 6.65 38.3 6.15 38.5 5.85 39.75 3.3 40.0 2.85 40.6 1.75 41.1 0.8 42.7 -2.05 M-4.75 2.1 L-4.75 1.3 0.15 4.9 2.3 6.5 4.65 8.1 5.05 8.4 5.35 8.9 5.6 9.35 6.65 11.2 4.95 10.05 4.55 9.8 Q3.4 9.1 2.5 8.85 L2.1 8.55 1.95 9.5 1.7 11.2 1.7 11.05 Q1.5 10.7 1.25 8.2 L1.2 7.85 -0.75 6.05 -4.75 2.1 M35.75 9.5 L35.8 10.05 35.85 10.9 35.8 11.75 35.7 14.4 35.7 15.5 35.7 17.15 35.6 19.45 35.6 20.3 35.55 20.4 35.0 19.3 Q34.75 19.3 34.25 20.05 L34.7 17.6 35.0 15.8 35.1 15.2 35.15 14.8 35.55 12.45 35.7 10.35 35.7 10.1 35.75 9.5 M17.8 19.25 L17.7 18.6 17.6 17.45 17.6 17.35 17.7 16.95 18.1 16.9 20.4 17.2 21.25 17.35 22.5 19.2 23.4 20.2 23.45 20.2 Q23.55 20.7 24.1 21.25 L24.3 22.2 24.9 26.0 22.9 25.1 21.65 24.4 21.4 24.1 21.25 23.95 21.1 23.8 Q20.55 23.3 19.85 23.1 L19.3 22.6 19.05 21.9 18.8 21.3 18.45 20.5 18.05 19.7 17.8 19.25 M25.05 35.6 L24.75 37.05 24.6 37.55 24.35 37.75 Q24.05 37.75 23.5 36.65 L23.2 35.9 23.0 35.0 Q23.0 34.6 23.15 34.6 L23.9 34.8 Q24.7 35.05 25.05 35.45 L25.05 35.6 M26.0 35.9 L26.25 35.9 26.55 36.3 26.5 36.65 26.05 37.05 26.0 37.05 Q25.7 37.05 25.7 36.75 L25.65 36.55 25.85 36.05 25.85 36.0 26.0 35.9 M29.25 41.65 L29.65 41.4 29.8 41.25 30.2 41.4 30.3 41.6 30.35 41.75 30.9 43.15 30.9 43.65 30.7 43.65 29.45 42.65 28.8 42.15 29.25 41.65" fill="#feffef" fill-rule="evenodd" stroke="none"/>
      <path d="M26.0 35.9 L25.85 36.0 25.85 35.9 25.95 35.75 26.0 35.9 M25.7 36.75 Q25.7 37.05 26.0 37.05 L26.05 37.05 26.0 37.4 26.1 37.95 26.3 38.05 26.7 37.95 26.6 38.45 26.15 38.55 25.6 38.4 25.55 37.85 25.7 36.75" fill="#80224b" fill-rule="evenodd" stroke="none"/>
      <path d="M22.35 33.95 L22.5 35.1 22.75 36.95 Q23.05 37.95 23.85 38.7 L24.3 39.05 24.3 39.8 Q24.45 40.3 23.75 40.3 L22.75 40.1 21.8 39.5 Q20.8 38.65 20.8 36.2 L20.95 35.3 21.05 34.9 21.35 34.5 21.65 34.2 22.05 33.95 22.3 33.95 22.35 33.95" fill="#56275b" fill-rule="evenodd" stroke="none"/>
      <path d="M8.15 10.55 L8.85 11.05 11.45 12.85 11.6 13.2 13.35 18.45 11.8 17.05 10.25 16.1 6.2 13.85 6.6 13.7 6.95 13.55 7.3 13.55 8.55 13.9 9.85 14.4 9.85 14.25 9.3 13.45 Q8.9 12.7 8.45 11.35 L8.25 10.9 8.15 10.55 M35.8 11.75 L35.95 11.35 36.2 13.25 36.3 13.85 36.35 14.0 36.4 14.25 36.8 16.75 36.8 16.9 38.45 16.2 35.85 21.0 35.4 21.85 35.5 21.15 35.55 20.4 35.6 20.3 35.6 19.45 35.7 17.15 35.7 15.5 35.7 14.4 35.8 11.75 M24.9 26.0 L24.9 26.5 25.0 27.0 25.45 29.9 25.4 29.9 24.2 27.35 24.2 27.3 22.6 25.4 21.65 24.4 22.9 25.1 24.9 26.0 M14.65 23.8 L14.8 25.1 14.35 25.2 14.25 25.1 13.8 24.45 13.5 23.7 13.4 23.5 13.35 23.45 13.4 23.45 13.95 23.4 14.55 23.25 14.6 23.7 14.65 23.8 M32.25 23.4 L33.7 21.0 33.9 20.75 34.25 20.05 33.9 22.1 33.9 22.15 33.55 23.45 33.45 23.85 33.3 24.35 33.3 24.6 33.2 24.55 32.75 24.1 32.75 24.0 32.35 23.45 32.25 23.4" fill="#cd6a2d" fill-rule="evenodd" stroke="none"/>
      <path d="M25.35 29.9 L25.55 30.05 25.8 30.3 26.4 30.85 27.45 31.9 28.1 32.5 28.5 32.9 29.0 33.35 29.5 33.65 30.8 34.35 30.95 34.35 30.95 34.75 30.9 35.0 30.8 35.95 30.65 37.0 30.6 37.5 30.55 37.55 30.1 39.35 30.0 39.5 30.3 39.65 29.4 39.85 29.0 39.85 Q28.5 39.85 28.25 39.25 L28.2 39.15 27.95 38.45 27.7 37.85 27.55 37.6 27.5 37.55 27.3 37.2 26.8 36.5 26.55 36.3 26.25 35.9 26.0 35.65 25.8 35.5 24.6 34.35 24.45 34.25 23.55 33.6 22.25 32.6 21.65 32.1 20.65 31.25 19.1 29.9 18.7 29.55 19.75 29.3 20.55 29.2 22.2 29.1 24.75 29.7 25.35 29.9 M23.2 30.2 L23.25 30.2 23.2 30.15 23.2 30.2" fill="#2852da" fill-rule="evenodd" stroke="none"/>
      <path d="M50.65 24.65 L50.45 25.1 50.05 25.75 49.35 27.05 48.65 28.2 48.5 28.5 48.3 28.8 45.7 32.85 45.55 32.8 43.95 31.6 41.1 28.95 40.6 28.4 39.75 27.5 39.2 26.95 39.55 27.7 40.35 29.4 41.3 31.2 42.15 32.75 43.85 35.4 M44.95 0.5 L45.35 0.2 47.45 -1.6 48.0 -2.05 M52.5 5.5 L53.95 5.15 54.55 5.0 56.65 4.55 58.7 4.05 M54.4 16.95 L57.25 9.25 58.0 6.8 54.45 7.05 54.1 7.05 53.15 7.1 49.7 7.25 49.65 7.25 44.7 7.4 44.4 7.4 44.7 7.35 49.75 6.2 52.5 5.5 M52.85 18.95 L53.4 19.05 54.0 17.8 54.4 16.95 M41.9 6.2 Q43.2 6.45 43.2 6.65 L43.15 7.1 43.05 7.45 Q42.6 8.65 41.05 10.25 L40.1 11.15 M42.65 2.35 L43.35 1.9 44.95 0.5 M41.4 6.15 L41.9 6.2 M52.85 18.95 L48.5 18.55 45.0 18.25 41.65 17.9 40.95 17.85 41.5 18.05 44.4 19.25 44.65 19.35 45.65 19.75 46.55 20.1 50.1 21.45 52.0 22.05 50.65 24.65 M35.2 44.0 Q37.65 42.5 40.65 39.25 L43.55 35.75 M38.45 5.85 L36.0 5.65 Q36.4 4.15 38.8 3.6 L39.75 3.3 M38.5 5.85 L38.45 5.85 M31.9 17.25 Q30.95 18.2 30.3 19.45 M16.5 29.7 L17.15 30.4 17.35 30.7 17.4 30.95 17.45 31.3 17.45 31.5 17.4 31.75 M13.75 27.2 L13.8 27.2 14.45 27.6 15.35 28.45 15.5 28.65 15.7 28.9 16.15 29.3 16.25 29.45 16.5 29.7 M7.6 28.6 L9.05 31.15 9.55 31.95 11.25 34.5 11.7 35.1 11.75 35.2 12.1 35.7 12.1 35.75 12.95 35.8 13.55 35.9 14.45 35.9 14.7 35.9 15.15 35.9 M11.5 36.0 Q11.55 35.9 11.7 35.9 M11.5 36.0 L10.9 36.25 Q10.4 36.45 9.95 36.75 L9.85 36.8 9.6 37.1 8.7 38.2 8.5 38.4 M-4.75 27.45 L-4.6 27.65 -4.6 27.7 -3.75 29.05 -2.45 31.0 -2.45 31.05 -0.85 33.1 -0.3 33.65 0.4 34.3 1.4 34.8 M-4.75 48.15 L-3.1 47.15" fill="none" stroke="#07276d" stroke-linecap="round" stroke-linejoin="round" stroke-width="1.0"/>
      <path d="M25.7 15.1 L26.3 14.5 26.5 14.1 26.95 13.3 27.15 13.65 Q29.15 11.75 29.5 10.9 L29.5 10.65 29.5 10.55 28.25 7.85 28.2 7.7 26.85 5.45 26.75 5.25 26.8 5.25 Q27.9 4.3 29.7 3.25 30.95 2.3 30.95 0.65 L30.95 0.45 30.3 -0.9 29.45 -2.05 M36.85 50.25 L36.85 50.45 36.7 51.6 36.55 51.7 35.3 53.5 34.6 54.75 34.15 55.25 M-4.75 7.05 L-4.6 7.05 -4.55 7.1 -2.5 7.5 -2.45 7.5 -2.35 8.55 -2.35 9.65 -2.35 9.8 -2.5 10.45 -2.5 10.5 -3.6 11.85 -3.7 12.0 -3.8 12.05 -3.85 14.55 -3.9 16.35 -3.9 17.2 -3.8 19.55 -3.7 20.6 -3.7 20.8 -3.5 21.85 -2.95 23.55 -2.9 23.65 -2.65 23.9 -2.6 24.0 -0.3 26.1 0.6 26.9 2.4 28.25 3.25 28.9 3.4 29.0 3.65 29.35 3.9 29.6 3.8 29.7 3.1 29.6 1.7 29.75 Q1.7 30.65 3.1 32.3 L3.55 33.1 3.65 33.2 3.95 33.35 4.0 33.35 4.3 33.55 4.35 33.6 6.15 34.6 6.7 34.9 6.8 35.0 6.9 35.05 6.95 35.05 7.2 35.2 7.65 35.5 7.9 35.6 8.05 35.7 7.8 35.95 7.55 36.2 7.25 36.4 6.7 36.85 6.5 36.95 6.35 37.05 6.2 37.15 Q6.9 38.0 7.3 38.1 L7.65 38.2 8.4 38.4 8.5 38.4 8.5 38.45 8.1 38.95 6.65 40.8 6.5 41.05 6.05 41.55 6.95 41.8 7.3 41.95 7.9 42.1 8.45 42.3 9.05 42.55 10.25 42.4 10.5 42.4 12.1 42.25 12.8 42.1 13.35 42.1 15.95 41.7 16.3 41.6 16.85 41.5 16.95 41.3 17.0 41.25 17.4 40.25 17.45 40.2 17.45 39.95 16.15 39.0 15.85 38.65 15.45 38.2 Q14.9 37.25 15.15 35.9 L16.55 35.75 16.6 35.6 17.35 32.35 17.4 31.75 17.65 31.95 Q18.0 32.1 18.35 32.4 L20.4 33.75 M5.05 28.6 L5.2 28.6 5.3 28.6 6.75 28.6 7.25 28.6 7.6 28.6 7.2 27.8 6.8 26.95 6.8 26.9 6.7 26.6 8.05 26.3 8.15 26.3 8.45 26.35 13.75 27.2 13.7 26.4 13.8 24.65 13.8 24.45 M33.9 31.5 L33.8 32.0 33.8 32.05 Q35.75 29.9 36.6 29.45 L37.0 29.3 38.1 29.0 38.75 33.35 38.65 34.05 38.2 38.1 37.1 40.2 35.2 44.0 34.8 44.7 34.6 46.1 36.95 46.0 36.95 46.1 36.95 48.65 36.85 50.25 M30.55 20.05 L30.3 19.5 30.3 19.45 30.0 18.9 29.5 17.8 27.25 13.75 27.15 13.65 M25.75 15.4 L26.3 14.5 M24.3 18.75 L24.45 18.05 25.75 15.4 M24.0 20.8 L24.2 21.0 24.2 20.6 24.3 19.8 24.3 18.8 24.3 18.75 M33.3 24.6 L33.3 24.65 33.45 24.75 33.65 25.35 33.75 25.6 33.85 26.1 33.9 26.8 33.95 28.15 33.95 29.15 33.95 29.7 33.9 31.5 M30.55 20.05 L31.2 21.6 31.9 22.9 32.25 23.4 32.35 23.45 32.75 24.0 32.75 24.1 33.2 24.55 33.3 24.6 M16.6 27.6 L15.8 26.7 15.75 26.65 14.85 25.5 14.8 25.2 M16.6 27.6 L18.55 29.45 18.7 29.55 19.1 29.9 20.65 31.25 21.65 32.1 22.25 32.6 23.55 33.6 24.45 34.25 24.6 34.35 25.8 35.5 26.0 35.65 26.25 35.9 26.55 36.3 26.8 36.5 27.3 37.2 27.5 37.55 27.55 37.6 27.7 37.85 27.95 38.45 28.2 39.15 28.25 39.25 Q28.5 39.85 29.0 39.85 L29.4 39.85 30.3 39.65 30.8 39.55 30.85 39.5 31.75 37.5 32.35 36.05 33.05 34.35 33.25 33.85 33.65 32.8 33.75 32.55 33.8 32.15 M11.7 35.9 L12.1 35.7 M4.65 28.8 L4.85 28.6 4.95 28.6 5.05 28.6 M4.65 28.8 L4.5 29.0 3.95 29.55 3.9 29.6 M1.4 34.8 L1.7 34.8 1.7 34.85 1.85 34.85 3.55 34.55 3.9 34.5 3.95 33.35 M1.4 34.8 L2.0 35.05 3.85 36.4 3.85 37.75 3.85 38.55 3.5 38.3 3.1 37.75 1.85 36.6 -1.7 32.7 -3.7 30.3 -4.75 29.9 M3.85 35.6 L3.85 36.4 M3.85 35.6 L3.85 35.2 3.9 34.5 M1.15 45.2 Q1.4 44.35 2.1 43.55 2.8 42.65 3.6 42.3 L4.35 42.0 4.95 41.95 Q6.45 41.95 7.15 42.65 L8.0 43.65 8.35 44.05 8.85 44.75 9.45 44.35 9.9 44.05 10.0 43.9 10.1 43.6 10.5 42.4 M1.0 45.5 Q0.85 46.15 0.85 46.85 L0.85 49.3 1.4 52.1 1.6 53.35 2.25 53.35 2.95 53.35 3.55 53.2 Q4.25 53.05 4.95 52.6 M8.4 45.3 L8.35 44.05 M1.0 45.5 L1.15 45.2 M10.0 43.9 L10.0 44.05 9.9 44.05 M33.8 32.05 L33.8 32.1 M29.65 47.0 L29.65 46.8 M28.85 46.55 L28.95 46.7 M32.5 43.65 L33.45 44.9 33.65 45.3 33.9 46.15 34.1 48.1 34.1 48.8 33.95 50.4 33.45 51.9 M31.9 43.05 L31.9 43.0 32.5 43.65 M1.85 53.45 L1.65 53.45 1.6 53.35 M3.2 54.65 L3.25 55.0 2.95 55.7 2.75 56.65 M2.95 53.35 L3.1 54.3 3.2 54.65 3.55 53.2 M2.95 55.7 L1.05 56.65 M-3.1 47.15 L-3.25 46.35 -3.35 46.2 -3.85 45.7 -4.75 44.8 M-3.1 47.15 L-2.8 49.55 -2.7 50.45 -3.2 50.45 -3.25 50.45 -4.5 50.5 -4.75 50.5" fill="none" stroke="#031d33" stroke-linecap="round" stroke-linejoin="round" stroke-width="1.0"/>
      <path d="M19.15 13.95 L19.6 14.0 21.35 14.4 21.6 11.85 Q21.8 10.2 22.35 8.9 L24.3 11.2 Q24.9 11.9 25.7 15.1 L25.75 15.4 M58.7 24.4 L56.2 24.65 56.1 24.65 53.6 24.8 52.35 24.7 50.65 24.65 M50.45 25.1 L51.05 25.1 52.05 25.3 55.65 25.8 56.1 25.85 57.2 26.0 58.7 26.15 M58.7 29.45 L56.8 32.1 Q54.25 35.6 50.8 39.1 L50.25 38.8 44.0 35.8 M43.9 36.1 L48.35 40.7 48.75 41.1 48.35 41.5 Q44.4 45.25 40.75 47.8 L39.9 46.55 38.05 43.35 38.5 46.05 Q38.85 47.8 39.4 48.7 L36.85 50.25 M34.15 55.25 L34.4 56.65 M2.4 28.25 L2.85 26.65 2.85 26.8 4.25 27.95 4.9 28.45 5.05 28.6 M5.3 28.6 L6.2 27.35 6.5 26.9 6.7 26.6 7.25 25.95 4.95 25.6 Q2.6 25.1 1.35 23.9 -0.5 22.15 -1.1 17.9 L-1.1 14.25 -0.95 14.25 Q-0.4 16.25 0.6 17.6 1.85 19.35 3.45 19.35 4.75 19.35 6.6 18.6 8.35 17.85 9.3 17.8 M43.55 35.75 L43.9 36.1 M43.55 35.75 L43.85 35.4 M2.0 35.05 L1.85 34.85 M4.95 52.6 Q3.25 51.35 2.7 49.1 L2.95 49.15 3.5 49.05 4.5 48.55 4.65 48.5 5.95 47.55 8.4 45.3 8.5 45.2 8.75 44.9 8.85 44.9 9.45 44.45 10.55 43.75 Q11.65 43.1 12.95 42.7 L13.3 42.6 16.15 42.1 16.6 42.1 17.1 42.1 Q18.05 42.25 19.45 43.0 L20.1 43.35 22.7 45.1 22.8 45.2 23.9 46.15 25.55 46.05 26.7 46.15 27.3 46.3 28.95 46.7 29.25 46.85 29.65 47.0 30.5 47.45 M33.05 50.35 L32.75 49.8 32.45 49.25 32.05 48.7 M33.65 52.75 L33.6 52.55 33.5 52.05 33.45 51.9 33.2 50.7 33.15 50.5 33.05 50.35 M37.9 43.05 L38.05 43.35 M34.05 54.8 L34.1 55.0 34.15 55.25 M33.65 52.75 L33.95 54.3 34.05 54.8 M5.6 53.15 L5.45 53.05 5.2 52.85 4.95 52.6 M6.95 53.75 L5.6 53.15 M7.55 56.65 L7.95 55.95 Q8.75 54.65 9.7 53.8 L8.35 53.9 6.95 53.75" fill="none" stroke="#18304d" stroke-linecap="round" stroke-linejoin="round" stroke-width="1.0"/>
      <path d="M16.3 41.6 L16.6 42.1 M25.6 38.85 L25.45 38.65 M24.4 45.2 L22.8 45.2" fill="none" stroke="#22335b" stroke-linecap="round" stroke-linejoin="round" stroke-width="1.0"/>
      <path d="M20.4 33.75 L20.45 32.5 20.65 31.25 M20.35 35.9 L20.35 35.2 20.35 34.85 20.4 33.75 M23.1 41.35 Q21.85 40.8 21.3 40.1 20.45 39.0 20.35 35.9 M26.0 42.05 Q24.25 41.8 23.1 41.35" fill="none" stroke="#250b24" stroke-linecap="round" stroke-linejoin="round" stroke-width="1.0"/>
      <path d="M22.25 32.6 L22.25 32.65 22.35 33.95 22.5 35.1 22.75 36.95 Q23.05 37.95 23.85 38.7 L24.3 39.05 25.8 39.8 25.95 39.85 26.35 40.0 27.5 40.25 28.0 40.25 28.2 39.55 28.25 39.25 M26.95 40.25 L27.5 40.25" fill="none" stroke="#381d0f" stroke-linecap="round" stroke-linejoin="round" stroke-width="1.0"/>
      <path d="M10.3 -2.05 L10.25 -1.1 10.2 -0.6 Q10.2 1.6 10.55 5.4 L10.6 6.4 10.65 6.75 11.1 11.15 11.1 11.3 11.25 12.3 11.45 12.85 8.85 11.05 8.15 10.55 5.9 8.95 5.5 8.7 5.05 8.4 4.65 8.1 2.3 6.5 0.15 4.9 -4.75 1.3 M14.7 -2.05 L16.1 3.6 16.25 4.25 17.6 9.2 17.8 9.95 18.7 13.15 19.15 13.95 20.0 15.3 20.3 15.8 20.4 16.0 20.95 16.9 21.25 17.35 22.5 19.2 23.4 20.2 23.45 20.2 24.0 20.8 M9.3 17.8 L4.95 14.15 3.25 12.95 Q2.95 12.7 2.7 12.6 L2.4 12.3 1.55 11.75 0.15 10.05 -0.4 9.35 Q-0.75 8.6 -1.75 7.4 L-4.75 4.15 M43.1 1.05 L42.7 2.2 42.65 2.35 41.75 5.1 41.4 6.15 40.35 9.95 40.35 10.15 40.2 10.65 40.1 11.15 40.05 11.2 39.75 12.6 39.15 14.7 39.1 14.8 38.45 16.2 35.85 21.0 35.4 21.85 35.25 23.25 34.9 25.6 34.6 27.7 34.55 28.45 34.5 28.5 34.45 28.9 34.45 28.95 34.3 29.55 34.3 29.7 34.05 31.1 34.05 31.15 M44.2 -2.05 L43.4 0.2 43.1 1.05 M40.6 1.75 L41.1 0.8 42.7 -2.05 M39.75 3.3 L40.0 2.85 40.6 1.75 M37.0 8.85 L38.05 6.65 38.3 6.15 38.5 5.85 39.75 3.3 M31.9 17.25 L32.05 15.95 32.45 11.4 32.75 5.35 32.85 1.5 32.9 0.75 M32.9 0.7 L32.95 -2.05 M35.65 6.95 L35.55 4.8 35.25 -2.05 M35.75 9.5 L35.8 10.05 35.85 10.9 35.8 11.75 35.95 11.35 M36.0 11.2 L37.0 8.85 M35.65 6.95 L35.75 9.5 M14.8 25.1 L14.8 25.2 M31.2 21.6 L31.9 17.25 M13.35 23.45 L13.35 23.3 12.25 21.15 11.55 20.25 10.25 18.75 9.3 17.8 M13.8 24.45 L13.5 23.7 13.4 23.5 13.35 23.45 M14.35 25.2 L14.25 25.1 13.8 24.45 M14.35 25.2 L14.8 25.1 M32.05 48.7 L31.8 49.15 31.2 48.3 30.5 47.45 29.85 46.85 29.65 46.8 28.85 46.55 27.35 46.15 26.75 46.05 24.7 45.6 24.4 45.2 Q24.05 44.65 23.75 43.35 L24.45 43.2 24.2 42.8 25.05 42.25 26.0 42.05 26.15 41.95 27.25 41.5 27.8 41.2 28.05 41.0 28.7 40.45 29.05 40.1 29.4 39.85 M25.15 44.05 L25.3 44.05 M32.2 46.7 L32.05 44.8 32.05 44.75 31.9 43.05 31.75 42.4 31.65 41.8 31.35 40.85 30.85 39.5 M32.2 46.7 L32.2 47.9 32.2 48.5 32.05 48.7" fill="none" stroke="#462810" stroke-linecap="round" stroke-linejoin="round" stroke-width="1.0"/>
      <path d="M35.55 20.4 L35.6 20.3 35.6 19.45 35.7 17.15 35.7 15.5 35.7 14.4 35.8 11.75 M14.65 23.8 L14.8 25.1 M35.55 20.4 L35.5 21.15 35.4 21.85 M13.35 18.45 L11.6 13.2 11.45 12.85 M14.55 23.25 L14.5 23.0 13.95 20.6 13.35 18.45 M14.65 23.8 L14.6 23.7 14.55 23.25 M24.45 43.2 L24.75 43.6 25.15 44.05 M25.3 44.05 L25.6 44.15 27.35 44.75 28.15 45.2 28.6 45.65 29.7 46.7 29.85 46.85" fill="none" stroke="#6b3912" stroke-linecap="round" stroke-linejoin="round" stroke-width="1.0"/>
    </g>
    <g id="shape2" transform="matrix(1.0, 0.0, 0.0, 1.0, 0.0, 0.0)">
      <path d="M50.5 0.0 Q53.95 0.0 53.95 3.3 L53.95 50.15 Q53.95 53.4 50.5 53.4 L3.3 53.4 Q0.0 53.4 0.0 50.15 L0.0 3.3 Q0.0 0.0 3.3 0.0 L50.5 0.0" fill="#000000" fill-opacity="0.003921569" fill-rule="evenodd" stroke="none"/>
    </g>
  </defs>
</svg>
