<?xml version="1.0" encoding="UTF-8" standalone="no"?>
<svg xmlns:ffdec="https://www.free-decompiler.com/flash" xmlns:xlink="http://www.w3.org/1999/xlink" ffdec:objectType="frame" height="72.2px" width="62.6px" xmlns="http://www.w3.org/2000/svg">
  <g transform="matrix(1.0, 0.0, 0.0, 1.0, 1.2, 16.8)">
    <clipPath id="clipPath0" transform="matrix(1.0, 0.0, 0.0, 1.0, 0.0, 0.0)">
      <path d="M50.5 0.0 Q53.95 0.0 53.95 3.3 L53.95 50.15 Q53.95 53.4 50.5 53.4 L3.3 53.4 Q0.0 53.4 0.0 50.15 L0.0 3.3 Q0.0 0.0 3.3 0.0 L50.5 0.0" fill="#000000" fill-rule="evenodd" stroke="none"/>
    </clipPath>
    <g clip-path="url(#clipPath0)">
      <use ffdec:characterId="2" height="56.15" transform="matrix(1.0, 0.0, 0.0, 1.0, -1.2, -0.75)" width="56.3" xlink:href="#shape1"/>
      <filter id="filter0">
        <feConvolveMatrix divisor="25.0" in="SourceGraphic" kernelMatrix="1 1 1 1 1 1 1 1 1 1 1 1 1 1 1 1 1 1 1 1 1 1 1 1 1" order="5 5" result="filterResult0"/>
        <feColorMatrix in="filterResult0" result="filterResult1" type="matrix" values="0 0 0 0 0.2901961,0 0 0 0 0.8901961,0 0 0 0 0.9254902,0 0 0 1 0"/>
        <feConvolveMatrix divisor="25.0" in="filterResult1" kernelMatrix="1 1 1 1 1 1 1 1 1 1 1 1 1 1 1 1 1 1 1 1 1 1 1 1 1" order="5 5" result="filterResult2"/>
        <feComposite in="filterResult0" in2="filterResult2" operator="over" result="filterResult3"/>
      </filter>
      <use ffdec:characterId="4" filter="url(#filter0)" height="65.85" transform="matrix(0.7933, 0.0, 0.0, 0.7933, 32.95, -16.8)" width="35.85" xlink:href="#sprite0"/>
      <filter id="filter1">
        <feConvolveMatrix divisor="4.0" in="SourceGraphic" kernelMatrix="1 1 1 1" order="2 2" result="filterResult4"/>
      </filter>
      <use ffdec:characterId="5" filter="url(#filter1)" height="65.85" transform="matrix(0.6898, 0.0, 0.0, 0.6898, 35.1, -13.95)" width="35.85" xlink:href="#sprite1"/>
      <filter id="filter2">
        <feConvolveMatrix divisor="4.0" in="SourceGraphic" kernelMatrix="1 1 1 1" order="2 2" result="filterResult5"/>
        <feColorMatrix in="filterResult5" result="filterResult6" type="matrix" values="0 0 0 0 0.14509805,0 0 0 0 0.8117647,0 0 0 0 0.9529412,0 0 0 1 0"/>
        <feConvolveMatrix divisor="25.0" in="filterResult6" kernelMatrix="1 1 1 1 1 1 1 1 1 1 1 1 1 1 1 1 1 1 1 1 1 1 1 1 1" order="5 5" result="filterResult7"/>
        <feComposite in="filterResult5" in2="filterResult7" operator="over" result="filterResult8"/>
      </filter>
      <use ffdec:characterId="7" filter="url(#filter2)" height="17.1" transform="matrix(0.6898, 0.0, 0.0, 0.6898, 40.5065, 24.6317)" width="24.6" xlink:href="#sprite2"/>
      <filter id="filter3">
        <feConvolveMatrix divisor="4.0" in="SourceGraphic" kernelMatrix="1 1 1 1" order="2 2" result="filterResult9"/>
      </filter>
      <use ffdec:characterId="7" filter="url(#filter3)" height="17.1" transform="matrix(0.6898, 0.0, 0.0, 0.6898, 40.5065, 24.6317)" width="24.6" xlink:href="#sprite2"/>
    </g>
    <use ffdec:characterId="8" height="53.4" transform="matrix(1.0, 0.0, 0.0, 1.0, 0.0, 0.0)" width="53.95" xlink:href="#shape4"/>
  </g>
  <defs>
    <g id="shape1" transform="matrix(1.0, 0.0, 0.0, 1.0, 1.2, 0.75)">
      <path d="M30.05 1.35 L29.25 -0.25 30.05 -0.25 30.95 1.65 30.05 1.35" fill="#aa5fff" fill-rule="evenodd" stroke="none"/>
      <path d="M30.05 1.35 Q26.9 0.4 23.9 -0.2 L23.25 -0.15 23.25 -0.25 29.25 -0.25 30.05 1.35" fill="#7a33f9" fill-rule="evenodd" stroke="none"/>
      <path d="M35.0 3.1 L34.45 2.9 31.25 1.75 30.95 1.65 30.05 -0.25 33.95 -0.25 36.8 3.0 37.95 4.3 35.5 3.3 35.0 3.1" fill="#7e3bfc" fill-rule="evenodd" stroke="none"/>
      <path d="M-0.7 53.8 L-0.7 49.7 2.45 50.35 3.55 50.55 0.15 54.0 -0.7 53.8" fill="#130f59" fill-rule="evenodd" stroke="none"/>
      <path d="M38.75 51.3 L38.7 51.55 38.4 53.3 34.9 53.75 34.2 54.7 34.0 54.9 31.7 54.9 29.2 53.45 29.0 52.05 29.3 52.2 29.35 52.05 29.95 52.5 30.25 52.7 32.1 53.65 35.55 52.45 36.35 52.2 37.0 51.5 38.75 51.3 M22.9 50.1 L22.75 52.15 18.7 52.2 17.9 52.2 17.05 51.7 15.85 51.0 18.6 50.65 22.9 50.1 M30.25 52.7 L31.85 53.75 32.1 53.65 31.85 53.75 30.25 52.7" fill="#120d4d" fill-rule="evenodd" stroke="none"/>
      <path d="M31.7 54.9 L22.2 54.9 19.9 53.45 19.55 53.2 17.9 52.2 18.7 52.2 22.75 52.15 22.9 50.1 24.4 49.85 27.4 49.05 26.05 48.35 24.1 47.25 22.1 45.9 21.1 45.1 23.5 44.3 23.75 44.25 23.45 43.85 23.75 44.25 23.5 44.3 23.45 43.85 22.85 43.0 21.35 40.25 23.25 40.25 24.15 40.25 25.4 40.25 26.4 40.25 26.7 40.45 29.1 42.0 29.4 42.05 30.8 42.1 34.95 41.75 35.4 41.7 35.65 37.8 40.45 41.3 42.0 42.5 43.65 39.75 44.8 38.05 44.65 39.85 44.15 44.15 43.35 44.95 40.75 47.5 40.25 48.0 39.0 49.3 37.0 51.5 36.35 52.2 35.55 52.45 32.1 53.65 30.25 52.7 29.95 52.5 29.35 52.05 29.3 52.2 29.0 52.05 29.2 53.45 31.7 54.9 M41.7 44.05 L41.7 43.35 Q40.45 42.35 38.8 41.3 L38.2 40.95 Q37.0 40.25 36.05 39.85 L35.85 42.05 35.75 43.35 35.75 43.4 34.7 43.35 34.0 43.3 33.3 43.25 30.75 43.05 24.95 42.2 25.35 43.15 26.0 44.65 26.2 45.0 24.1 45.3 26.45 47.3 28.6 48.8 27.8 49.65 28.0 49.8 28.15 49.95 28.85 50.6 30.0 51.45 30.8 51.8 32.35 52.45 33.4 51.7 34.25 51.05 35.25 51.0 35.45 50.95 36.25 50.95 37.8 49.25 37.65 48.75 35.35 49.5 36.95 48.4 37.8 47.85 38.1 48.05 38.55 48.4 39.25 47.25 39.45 46.85 39.6 46.7 40.3 45.7 41.8 45.05 41.7 44.05 M29.35 52.05 L29.1 51.85 29.0 51.8 Q28.35 51.4 28.15 51.5 28.35 51.4 29.0 51.8 L29.1 51.85 29.35 52.05" fill="#a4affe" fill-rule="evenodd" stroke="none"/>
      <path d="M41.7 44.05 L41.8 45.05 40.3 45.7 39.6 46.7 39.45 46.85 39.25 47.25 38.55 48.4 38.1 48.05 37.8 47.85 36.95 48.4 35.35 49.5 37.65 48.75 37.8 49.25 36.25 50.95 35.45 50.95 35.25 51.0 34.25 51.05 33.4 51.7 32.35 52.45 30.8 51.8 30.0 51.45 28.85 50.6 28.15 49.95 28.0 49.8 27.8 49.65 28.6 48.8 26.45 47.3 24.1 45.3 26.2 45.0 26.0 44.65 25.35 43.15 24.95 42.2 30.75 43.05 33.3 43.25 34.0 43.3 34.7 43.35 35.75 43.4 35.75 43.35 35.85 42.05 36.05 39.85 Q37.0 40.25 38.2 40.95 L38.8 41.3 Q40.45 42.35 41.7 43.35 L41.7 44.05" fill="#feffff" fill-rule="evenodd" stroke="none"/>
      <path d="M35.65 37.8 L35.4 41.7 34.95 41.75 30.8 42.1 29.4 42.05 29.1 42.0 26.7 40.45 26.4 40.25 27.65 40.2 28.0 40.45 29.5 41.45 30.95 41.5 31.4 41.5 33.35 41.2 34.75 40.85 34.6 39.4 34.55 38.85 Q34.0 37.95 31.9 36.5 L29.2 34.85 29.15 34.05 29.2 33.45 29.7 33.8 33.55 36.4 35.1 37.4 35.55 37.75 35.65 37.8" fill="#000a37" fill-rule="evenodd" stroke="none"/>
      <path d="M29.2 34.85 L31.9 36.5 31.55 37.75 31.35 40.4 31.4 41.5 30.95 41.5 29.5 41.45 28.0 40.45 27.65 40.2 29.3 40.05 29.7 40.0 29.6 39.2 29.35 36.95 29.2 34.85" fill="#1bb8fb" fill-rule="evenodd" stroke="none"/>
      <path d="M31.9 36.5 Q34.0 37.95 34.55 38.85 L34.6 39.4 34.75 40.85 33.35 41.2 31.4 41.5 31.35 40.4 31.55 37.75 31.9 36.5" fill="#32afff" fill-rule="evenodd" stroke="none"/>
      <path d="M29.55 3.15 L30.85 3.1 31.6 3.1 32.6 3.05 35.0 3.1 35.5 3.3 37.95 4.3 41.0 5.6 41.35 5.75 39.55 6.1 38.65 6.35 Q35.85 7.2 34.0 9.2 31.35 12.05 31.35 16.35 L31.35 16.75 28.05 15.4 26.35 14.65 26.3 13.15 Q26.3 7.0 29.0 3.75 L29.25 3.4 29.55 3.15" fill="#1d82de" fill-rule="evenodd" stroke="none"/>
      <path d="M42.0 12.3 L42.35 12.2 42.75 12.2 43.25 12.6 Q43.7 13.15 43.7 14.1 43.7 15.15 42.85 15.15 41.45 15.15 41.45 13.6 41.45 13.15 41.6 12.85 L42.0 12.3" fill="#43dff8" fill-rule="evenodd" stroke="none"/>
      <path d="M42.0 12.3 L41.6 12.85 Q41.45 13.15 41.45 13.6 41.45 15.15 42.85 15.15 43.7 15.15 43.7 14.1 43.7 13.15 43.25 12.6 L42.75 12.2 42.35 12.2 42.0 12.3 M45.0 18.5 Q43.8 19.95 41.45 19.95 38.95 19.95 37.45 18.6 35.9 17.25 35.9 14.7 35.9 12.3 37.6 10.95 38.3 10.45 39.1 10.2 40.75 10.35 42.45 11.25 45.8 13.0 45.8 16.2 45.8 17.45 45.0 18.5" fill="#1eccee" fill-rule="evenodd" stroke="none"/>
      <path d="M41.35 5.75 L45.35 7.55 48.7 15.95 48.85 16.35 49.0 20.45 47.95 21.5 Q44.8 24.2 38.8 24.2 L38.15 24.2 Q35.7 23.95 33.6 21.75 31.45 19.4 31.35 16.75 L31.35 16.35 Q31.35 12.05 34.0 9.2 35.85 7.2 38.65 6.35 L39.55 6.1 41.35 5.75 M45.0 18.5 Q45.8 17.45 45.8 16.2 45.8 13.0 42.45 11.25 40.75 10.35 39.1 10.2 38.3 10.45 37.6 10.95 35.9 12.3 35.9 14.7 35.9 17.25 37.45 18.6 38.95 19.95 41.45 19.95 43.8 19.95 45.0 18.5" fill="#1e9ee5" fill-rule="evenodd" stroke="none"/>
      <path d="M38.15 24.2 L38.8 24.2 Q44.8 24.2 47.95 21.5 L49.0 20.45 48.85 16.35 49.35 17.6 49.7 18.5 49.9 19.05 50.7 21.05 50.8 21.3 50.15 22.1 49.15 23.3 Q46.15 26.5 42.6 28.4 L41.15 29.25 40.3 29.7 Q38.35 29.2 36.35 28.3 L36.8 27.35 38.15 24.2" fill="#1ca8e5" fill-rule="evenodd" stroke="none"/>
      <path d="M50.8 21.3 L54.6 31.3 53.5 34.3 51.35 31.95 49.35 29.45 49.15 23.3 50.15 22.1 50.8 21.3" fill="#0e32ac" fill-rule="evenodd" stroke="none"/>
      <path d="M53.5 34.3 L53.05 35.65 52.85 36.1 52.8 36.35 49.8 44.3 48.85 38.95 48.35 35.9 49.45 34.75 49.35 29.45 51.35 31.95 53.5 34.3" fill="#1127a1" fill-rule="evenodd" stroke="none"/>
      <path d="M44.7 32.95 L42.35 30.55 41.85 30.0 41.15 29.25 42.6 28.4 Q46.15 26.5 49.15 23.3 L49.35 29.45 49.45 34.75 48.35 35.9 47.25 36.85 46.9 37.2 46.75 34.05 46.6 30.4 44.7 32.95" fill="#1b79dd" fill-rule="evenodd" stroke="none"/>
      <path d="M41.15 29.25 L41.85 30.0 42.35 30.55 44.7 32.95 44.2 33.6 42.25 36.2 40.9 35.65 37.55 34.05 34.7 32.65 33.3 31.95 35.0 31.6 36.9 31.2 37.8 30.95 40.3 29.7 41.15 29.25" fill="#1b5bd7" fill-rule="evenodd" stroke="none"/>
      <path d="M49.8 44.3 L49.8 44.4 43.8 46.65 42.15 47.25 43.4 45.25 43.6 44.95 44.15 44.2 44.15 44.15 44.65 39.85 44.9 37.85 44.8 38.05 43.65 39.75 42.0 42.5 40.45 41.3 40.9 35.65 42.25 36.2 44.2 33.6 44.7 32.95 46.6 30.4 46.75 34.05 46.9 37.2 47.25 36.85 48.35 35.9 48.85 38.95 49.8 44.3" fill="#133ec0" fill-rule="evenodd" stroke="none"/>
      <path d="M23.25 -0.15 L23.9 -0.2 Q26.9 0.4 30.05 1.35 L30.95 1.65 31.25 1.75 34.45 2.9 35.0 3.1 32.6 3.05 31.6 3.1 30.85 3.1 29.55 3.15 27.45 3.3 25.15 3.45 22.8 3.6 16.1 4.3 13.55 5.95 11.0 7.65 10.9 5.65 7.55 4.1 7.1 3.9 8.65 2.35 16.25 0.8 23.25 -0.15" fill="#111777" fill-rule="evenodd" stroke="none"/>
      <path d="M25.15 3.45 L27.45 3.3 29.55 3.15 29.25 3.4 29.0 3.75 Q26.3 7.0 26.3 13.15 L26.35 14.65 24.55 13.9 23.15 17.45 21.45 21.95 20.7 21.05 20.15 19.95 Q19.45 18.3 19.45 15.85 19.45 14.1 19.7 12.55 20.35 7.9 23.0 5.1 24.0 4.05 25.15 3.45 M20.9 26.15 Q21.75 25.75 22.9 25.3 L25.7 24.3 25.8 26.95 25.8 27.85 25.8 28.2 25.85 30.65 25.9 31.95 25.6 31.7 24.05 30.15 23.2 29.2 20.9 26.15" fill="#1d58be" fill-rule="evenodd" stroke="none"/>
      <path d="M11.0 7.65 L13.55 5.95 16.1 4.3 22.8 3.6 25.15 3.45 Q24.0 4.05 23.0 5.1 20.35 7.9 19.7 12.55 L18.8 12.5 Q18.0 12.45 14.9 11.4 L11.45 9.95 11.1 9.7 11.0 7.65" fill="#1c389b" fill-rule="evenodd" stroke="none"/>
      <path d="M31.35 16.75 Q31.45 19.4 33.6 21.75 35.7 23.95 38.15 24.2 L36.8 27.35 36.35 28.3 34.25 27.2 Q26.95 22.9 26.35 14.65 L28.05 15.4 31.35 16.75" fill="#1e7cde" fill-rule="evenodd" stroke="none"/>
      <path d="M40.3 29.7 L37.8 30.95 36.9 31.2 35.0 31.6 33.3 31.95 32.6 31.55 30.8 29.3 29.3 27.35 28.45 26.25 26.8 23.85 25.7 22.25 25.7 22.75 25.7 24.3 22.9 25.3 Q21.75 25.75 20.9 26.15 L20.25 25.2 18.45 22.25 20.15 19.95 20.7 21.05 21.45 21.95 23.15 17.45 24.55 13.9 26.35 14.65 Q26.95 22.9 34.25 27.2 L36.35 28.3 Q38.35 29.2 40.3 29.7" fill="#1c5bc2" fill-rule="evenodd" stroke="none"/>
      <path d="M25.7 24.3 L25.7 22.75 25.7 22.25 26.8 23.85 28.45 26.25 28.0 26.3 25.8 26.95 25.7 24.3" fill="#1428ab" fill-rule="evenodd" stroke="none"/>
      <path d="M20.15 19.95 L18.45 22.25 Q16.75 19.3 14.8 15.35 L11.3 13.1 11.1 9.7 11.45 9.95 14.9 11.4 Q18.0 12.45 18.8 12.5 L19.7 12.55 Q19.45 14.1 19.45 15.85 19.45 18.3 20.15 19.95" fill="#1e41a5" fill-rule="evenodd" stroke="none"/>
      <path d="M7.1 3.9 L7.55 4.1 10.9 5.65 11.0 7.65 11.1 9.7 11.3 13.1 14.8 15.35 Q16.75 19.3 18.45 22.25 L18.2 22.55 15.8 25.85 14.85 20.35 14.45 18.35 14.4 17.9 10.55 14.9 9.15 13.95 4.9 13.4 4.55 12.7 2.7 9.15 2.45 9.0 6.2 4.8 7.1 3.9" fill="#121469" fill-rule="evenodd" stroke="none"/>
      <path d="M23.25 40.25 L21.35 40.25 22.85 43.0 23.45 43.85 23.5 44.3 21.1 45.1 18.25 42.5 17.35 41.6 8.05 40.5 8.35 39.85 8.95 39.65 8.6 39.3 9.3 37.8 10.15 36.05 15.65 37.2 16.0 37.2 16.1 35.7 Q16.45 29.95 15.9 26.45 L15.8 25.85 18.2 22.55 18.45 22.25 20.25 25.2 20.9 26.15 23.2 29.2 23.15 31.1 23.05 33.3 23.25 40.25" fill="#0c247e" fill-rule="evenodd" stroke="none"/>
      <path d="M-0.7 31.25 L-0.7 28.05 -0.25 28.65 0.95 27.8 2.15 28.95 2.65 29.5 4.15 31.05 4.2 31.45 4.2 31.65 4.45 34.2 4.55 34.3 7.4 35.35 10.15 36.05 9.3 37.8 8.6 39.3 7.9 38.6 3.35 34.45 -0.7 31.25 M8.2 39.9 L8.35 39.85 8.05 40.5 7.0 40.35 8.2 39.9" fill="#0e1462" fill-rule="evenodd" stroke="none"/>
      <path d="M33.3 31.95 L34.7 32.65 34.4 33.5 34.15 34.4 33.6 36.2 33.55 36.4 29.7 33.8 29.3 32.7 27.65 32.95 25.9 33.25 28.05 36.75 28.15 36.9 29.6 39.2 29.7 40.0 29.3 40.05 27.65 40.2 26.4 40.25 25.4 40.25 24.15 40.25 23.25 40.25 23.05 33.3 23.15 31.1 23.2 29.2 24.05 30.15 25.6 31.7 25.9 31.95 25.85 30.65 25.8 28.2 25.8 27.85 25.8 26.95 28.0 26.3 28.45 26.25 29.3 27.35 30.8 29.3 32.6 31.55 33.3 31.95" fill="#122cb5" fill-rule="evenodd" stroke="none"/>
      <path d="M34.7 32.65 L37.55 34.05 40.9 35.65 40.45 41.3 35.65 37.8 35.55 37.75 35.1 37.4 33.55 36.4 33.6 36.2 34.15 34.4 34.4 33.5 34.7 32.65" fill="#1039b7" fill-rule="evenodd" stroke="none"/>
      <path d="M29.6 39.2 L28.15 36.9 28.05 36.75 25.9 33.25 27.65 32.95 29.3 32.7 29.7 33.8 29.2 33.45 29.15 34.05 29.2 34.85 29.35 36.95 29.6 39.2" fill="#1156be" fill-rule="evenodd" stroke="none"/>
      <path d="M43.8 46.65 L44.7 49.85 41.9 48.3 40.75 47.5 43.35 44.95 43.4 45.25 42.15 47.25 43.8 46.65 M21.1 45.1 L22.1 45.9 24.1 47.25 22.65 47.3 22.25 47.3 19.55 47.0 18.8 46.9 18.65 46.9 17.4 46.65 17.3 46.65 12.8 45.3 8.3 43.7 3.5 41.85 3.2 41.6 7.0 40.35 8.05 40.5 17.35 41.6 18.25 42.5 21.1 45.1" fill="#1a1c46" fill-rule="evenodd" stroke="none"/>
      <path d="M44.7 49.85 L44.85 50.45 44.7 50.5 41.8 48.9 40.25 48.0 40.75 47.5 41.9 48.3 44.7 49.85 M24.1 47.25 L26.05 48.35 23.0 48.0 19.1 47.55 18.55 47.5 17.25 47.3 14.85 46.9 11.65 46.2 9.65 45.35 2.2 41.9 3.2 41.6 3.5 41.85 8.3 43.7 12.8 45.3 17.3 46.65 17.4 46.65 18.65 46.9 18.8 46.9 19.55 47.0 22.25 47.3 22.65 47.3 24.1 47.25" fill="#5d609f" fill-rule="evenodd" stroke="none"/>
      <path d="M44.7 50.5 L41.25 50.95 38.75 51.3 37.0 51.5 39.0 49.3 40.25 48.0 41.8 48.9 44.7 50.5 M-0.7 49.7 L-0.7 42.75 0.0 42.5 0.9 42.25 2.2 41.9 9.65 45.35 11.65 46.2 14.85 46.9 17.25 47.3 18.55 47.5 19.1 47.55 23.0 48.0 26.05 48.35 27.4 49.05 24.4 49.85 22.9 50.1 18.6 50.65 15.85 51.0 7.85 46.2 4.85 49.25 4.35 49.75 3.55 50.55 2.45 50.35 -0.7 49.7" fill="#070930" fill-rule="evenodd" stroke="none"/>
      <path d="M-0.7 8.85 L-0.7 6.8 0.25 7.5 -0.7 8.85" fill="#743bff" fill-rule="evenodd" stroke="none"/>
      <path d="M-0.7 12.0 L-0.7 11.3 0.0 11.85 1.55 13.1 0.5 13.0 -0.4 12.25 -0.7 12.0" fill="#974bff" fill-rule="evenodd" stroke="none"/>
      <path d="M-0.7 12.95 L-0.7 12.0 -0.4 12.25 0.5 13.0 -0.1 12.95 -0.7 12.95" fill="#7338ff" fill-rule="evenodd" stroke="none"/>
      <path d="M-0.7 11.3 L-0.7 8.85 0.25 7.5 2.45 9.0 2.7 9.15 4.55 12.7 4.9 13.4 2.6 13.15 1.55 13.1 0.0 11.85 -0.7 11.3" fill="#723bff" fill-rule="evenodd" stroke="none"/>
      <path d="M4.05 15.75 L5.75 16.75 5.95 17.0 6.65 17.85 6.95 18.2 9.9 21.7 9.75 22.1 9.65 22.3 8.05 20.4 6.65 18.75 5.6 17.6 5.3 17.3 4.9 16.85 3.95 16.3 4.0 16.05 4.0 15.9 4.0 15.85 4.05 15.75" fill="#2458e2" fill-rule="evenodd" stroke="none"/>
      <path d="M4.9 13.4 L9.15 13.95 10.55 14.9 14.4 17.9 14.45 18.35 11.25 18.25 10.2 18.15 7.15 17.95 6.95 18.2 6.65 17.85 5.95 17.0 5.75 16.75 4.05 15.75 3.2 15.2 2.0 14.45 -0.1 12.95 0.5 13.0 1.55 13.1 2.6 13.15 4.9 13.4" fill="#1341cb" fill-rule="evenodd" stroke="none"/>
      <path d="M14.45 18.35 L14.85 20.35 12.1 21.4 12.05 21.4 10.25 22.1 9.9 21.7 6.95 18.2 7.15 17.95 10.2 18.15 11.25 18.25 14.45 18.35" fill="#1753ff" fill-rule="evenodd" stroke="none"/>
      <path d="M-0.7 13.45 L-0.7 12.95 -0.1 12.95 2.0 14.45 3.2 15.2 4.05 15.75 4.0 15.85 4.0 15.9 4.0 16.05 3.95 16.3 1.0 14.5 -0.7 13.45" fill="#2746ba" fill-rule="evenodd" stroke="none"/>
      <path d="M-0.7 28.05 L-0.7 13.45 1.0 14.5 3.95 16.3 4.9 16.85 5.3 17.3 5.6 17.6 6.65 18.75 Q5.9 19.95 4.9 22.2 L4.8 22.4 4.6 22.9 Q3.15 26.05 2.15 28.95 L0.95 27.8 -0.25 28.65 -0.7 28.05" fill="#1a33a9" fill-rule="evenodd" stroke="none"/>
      <path d="M6.65 18.75 L8.05 20.4 9.65 22.3 9.75 22.1 9.8 22.25 10.2 23.05 10.65 24.05 12.05 27.3 10.8 27.9 10.1 28.25 8.0 29.3 Q5.55 30.5 4.2 31.45 L4.15 31.05 2.65 29.5 2.15 28.95 Q3.15 26.05 4.6 22.9 L4.8 22.4 4.9 22.2 Q5.9 19.95 6.65 18.75" fill="#0e44d8" fill-rule="evenodd" stroke="none"/>
      <path d="M9.75 22.1 L9.9 21.7 10.25 22.1 11.05 23.0 11.4 23.85 10.65 24.05 10.2 23.05 9.8 22.25 9.75 22.1" fill="#64b1ff" fill-rule="evenodd" stroke="none"/>
      <path d="M14.85 20.35 L15.8 25.85 15.9 26.45 Q16.45 29.95 16.1 35.7 L13.55 29.35 13.5 29.2 12.65 27.05 11.4 23.85 11.05 23.0 10.25 22.1 12.05 21.4 12.1 21.4 14.85 20.35" fill="#1861fe" fill-rule="evenodd" stroke="none"/>
      <path d="M11.4 23.85 L12.65 27.05 13.5 29.2 13.55 29.35 16.1 35.7 16.0 37.2 15.65 37.2 13.9 32.05 13.45 31.0 13.45 30.95 13.15 30.1 12.75 29.1 12.05 27.3 10.65 24.05 11.4 23.85" fill="#3b85ff" fill-rule="evenodd" stroke="none"/>
      <path d="M12.05 27.3 L12.75 29.1 13.15 30.1 13.45 30.95 13.45 31.0 13.9 32.05 15.65 37.2 10.15 36.05 7.4 35.35 4.55 34.3 4.45 34.2 4.2 31.65 4.2 31.45 Q5.55 30.5 8.0 29.3 L10.1 28.25 10.8 27.9 12.05 27.3" fill="#0a4df4" fill-rule="evenodd" stroke="none"/>
      <path d="M0.55 37.15 L0.5 36.75 0.45 36.3 7.9 38.6 8.6 39.3 8.95 39.65 8.35 39.85 8.2 39.9 Q6.2 39.1 3.25 38.05 L1.65 37.5 0.55 37.15" fill="#2f76ff" fill-rule="evenodd" stroke="none"/>
      <path d="M-0.7 36.75 L-0.7 35.9 -0.3 36.05 0.45 36.3 0.5 36.75 0.55 37.15 -0.25 36.9 -0.7 36.75" fill="#2d61e8" fill-rule="evenodd" stroke="none"/>
      <path d="M0.55 37.15 L1.65 37.5 3.25 38.05 Q6.2 39.1 8.2 39.9 L7.0 40.35 3.2 41.6 2.2 41.9 0.9 42.25 0.0 42.5 -0.05 40.75 -0.1 39.75 -0.1 39.2 -0.3 38.35 -0.25 36.9 0.55 37.15" fill="#133de1" fill-rule="evenodd" stroke="none"/>
      <path d="M-0.7 35.9 L-0.7 31.25 3.35 34.45 7.9 38.6 0.45 36.3 -0.3 36.05 -0.7 35.9" fill="#1543f9" fill-rule="evenodd" stroke="none"/>
      <path d="M-0.7 42.75 L-0.7 36.75 -0.25 36.9 -0.3 38.35 -0.1 39.2 -0.1 39.75 -0.05 40.75 0.0 42.5 -0.7 42.75" fill="#153bba" fill-rule="evenodd" stroke="none"/>
      <path d="M4.85 49.25 L7.85 46.2 15.85 51.0 17.05 51.7 Q15.85 52.0 14.35 52.65 L13.85 52.85 12.95 53.3 11.65 53.95 11.45 53.8 7.3 51.05 4.85 49.25" fill="#171c80" fill-rule="evenodd" stroke="none"/>
      <path d="M38.4 53.3 L41.7 52.3 41.65 54.9 34.0 54.9 34.2 54.7 34.9 53.75 38.4 53.3" fill="#160965" fill-rule="evenodd" stroke="none"/>
      <path d="M22.2 54.9 L13.2 54.9 12.75 54.6 12.65 54.55 11.65 53.95 12.95 53.3 13.85 52.85 14.35 52.65 Q15.85 52.0 17.05 51.7 L17.9 52.2 19.55 53.2 19.9 53.45 22.2 54.9" fill="#172c95" fill-rule="evenodd" stroke="none"/>
      <path d="M13.2 54.9 L12.45 54.9 12.1 54.7 11.3 54.2 11.2 54.15 Q11.25 54.0 11.45 53.8 L11.65 53.95 12.65 54.55 12.75 54.6 13.2 54.9" fill="#1f3fb6" fill-rule="evenodd" stroke="none"/>
      <path d="M11.45 53.8 Q11.25 54.0 11.2 54.15 L6.2 50.95 4.35 49.75 4.85 49.25 7.3 51.05 11.45 53.8" fill="#242693" fill-rule="evenodd" stroke="none"/>
      <path d="M12.45 54.9 L10.8 54.9 11.1 54.3 11.2 54.15 11.3 54.2 12.1 54.7 12.45 54.9" fill="#101362" fill-rule="evenodd" stroke="none"/>
      <path d="M10.8 54.9 L2.1 54.9 1.3 54.2 0.15 54.0 3.55 50.55 4.35 49.75 6.2 50.95 11.2 54.15 11.1 54.3 10.8 54.9" fill="#111255" fill-rule="evenodd" stroke="none"/>
      <path d="M41.7 52.3 L41.95 52.25 45.3 54.9 41.65 54.9 41.7 52.3" fill="#102797" fill-rule="evenodd" stroke="none"/>
      <path d="M2.1 54.9 L-0.7 54.9 -0.7 53.8 0.15 54.0 1.3 54.2 2.1 54.9" fill="#8c37ff" fill-rule="evenodd" stroke="none"/>
      <path d="M23.25 -0.25 L23.25 -0.15 M33.95 -0.25 L36.8 3.0 37.95 4.3" fill="none" stroke="#4d26cd" stroke-linecap="round" stroke-linejoin="round" stroke-width="1.0"/>
      <path d="M23.25 -0.15 L23.9 -0.2 Q26.9 0.4 30.05 1.35 L30.95 1.65 31.25 1.75 34.45 2.9 35.0 3.1 35.5 3.3 37.95 4.3 41.0 5.6 41.35 5.75 45.35 7.55 M23.25 -0.15 L16.25 0.8 8.65 2.35 7.1 3.9 6.2 4.8 2.45 9.0 M49.8 44.4 L43.8 46.65 42.15 47.25 43.4 45.25 43.6 44.95 44.15 44.2 44.15 44.15 44.65 39.85 44.9 37.85 44.8 38.05 43.65 39.75 42.0 42.5 40.45 41.3 35.65 37.8 35.55 37.75 35.1 37.4 33.55 36.4 29.7 33.8 29.2 33.45 29.15 34.05 29.2 34.85 29.35 36.95 29.6 39.2 29.7 40.0 29.3 40.05 27.65 40.2 26.4 40.25 25.4 40.25 24.15 40.25 23.25 40.25 21.35 40.25 22.85 43.0 23.45 43.85 23.75 44.25 23.5 44.3 21.1 45.1 M38.75 51.3 L38.7 51.55 38.4 53.3" fill="none" stroke="#020741" stroke-linecap="round" stroke-linejoin="round" stroke-width="1.0"/>
      <path d="M44.8 38.05 L44.65 39.85 M22.9 50.1 L22.75 52.15 18.7 52.2 17.9 52.2 M44.15 44.15 L43.35 44.95 40.75 47.5 40.25 48.0 39.0 49.3 37.0 51.5 36.35 52.2 35.55 52.45 32.1 53.65 31.85 53.75 30.25 52.7 29.95 52.5 29.35 52.05 29.1 51.85 29.0 51.8 Q28.35 51.4 28.15 51.5 M29.0 52.05 L29.2 53.45 31.7 54.9" fill="none" stroke="#6663d8" stroke-linecap="round" stroke-linejoin="round" stroke-width="1.0"/>
      <path d="M48.7 15.95 L45.35 7.55 M48.85 16.35 L49.35 17.6 49.7 18.5 49.9 19.05 50.7 21.05 50.8 21.3 54.6 31.3 53.5 34.3 53.05 35.65 52.85 36.1 52.8 36.35 49.8 44.3 49.8 44.4" fill="none" stroke="#070c46" stroke-linecap="round" stroke-linejoin="round" stroke-width="1.0"/>
      <path d="M43.8 46.65 L44.7 49.85 44.85 50.45 44.7 50.5 41.25 50.95 38.75 51.3 37.0 51.5 M21.1 45.1 L22.1 45.9 24.1 47.25 26.05 48.35 27.4 49.05 24.4 49.85 22.9 50.1 18.6 50.65 15.85 51.0 M43.35 44.95 L43.4 45.25 M7.0 40.35 L8.05 40.5 17.35 41.6 18.25 42.5 21.1 45.1 M3.55 50.55 L2.45 50.35 -0.7 49.7" fill="none" stroke="#040734" stroke-linecap="round" stroke-linejoin="round" stroke-width="1.0"/>
      <path d="M-0.7 6.8 L0.25 7.5 2.45 9.0 2.7 9.15" fill="none" stroke="#4a1ee3" stroke-linecap="round" stroke-linejoin="round" stroke-width="1.0"/>
      <path d="M2.7 9.15 L4.55 12.7 4.9 13.4" fill="none" stroke="#241aaf" stroke-linecap="round" stroke-linejoin="round" stroke-width="1.0"/>
      <path d="M4.9 13.4 L9.15 13.95 M1.55 13.1 L2.6 13.15 4.9 13.4 M0.5 13.0 L1.55 13.1 M0.5 13.0 L-0.1 12.95 -0.7 12.95" fill="none" stroke="#0f1376" stroke-linecap="round" stroke-linejoin="round" stroke-width="1.0"/>
      <path d="M9.15 13.95 L10.55 14.9 14.4 17.9 14.45 18.35 14.85 20.35 15.8 25.85 15.9 26.45 Q16.45 29.95 16.1 35.7 L16.0 37.2" fill="none" stroke="#050f71" stroke-linecap="round" stroke-linejoin="round" stroke-width="1.0"/>
      <path d="M15.65 37.2 L16.0 37.2 M2.15 28.95 L2.65 29.5 4.15 31.05 4.2 31.45 4.2 31.65 4.45 34.2 4.55 34.3 7.4 35.35 10.15 36.05 15.65 37.2 M-0.7 28.05 L-0.25 28.65 0.95 27.8 2.15 28.95" fill="none" stroke="#00065d" stroke-linecap="round" stroke-linejoin="round" stroke-width="1.0"/>
      <path d="M8.2 39.9 L8.35 39.85 8.95 39.65 8.6 39.3 7.9 38.6 3.35 34.45 -0.7 31.25 M7.0 40.35 L8.2 39.9 M0.0 42.5 L0.9 42.25 2.2 41.9 3.2 41.6 7.0 40.35 M0.0 42.5 L-0.7 42.75" fill="none" stroke="#090961" stroke-linecap="round" stroke-linejoin="round" stroke-width="1.0"/>
      <path d="M17.9 52.2 L19.55 53.2 19.9 53.45 22.2 54.9 M4.85 49.25 L7.85 46.2 15.85 51.0 17.05 51.7 17.9 52.2 M4.85 49.25 L4.35 49.75 3.55 50.55 0.15 54.0" fill="none" stroke="#070b55" stroke-linecap="round" stroke-linejoin="round" stroke-width="1.0"/>
      <path d="M38.4 53.3 L41.7 52.3 41.95 52.25 M38.4 53.3 L34.9 53.75 34.2 54.7 34.0 54.9" fill="none" stroke="#120240" stroke-linecap="round" stroke-linejoin="round" stroke-width="1.0"/>
      <path d="M41.95 52.25 L45.3 54.9" fill="none" stroke="#000152" stroke-linecap="round" stroke-linejoin="round" stroke-width="1.0"/>
      <path d="M2.1 54.9 L1.3 54.2" fill="none" stroke="#2307be" stroke-linecap="round" stroke-linejoin="round" stroke-width="1.0"/>
      <path d="M1.3 54.2 L0.15 54.0 -0.7 53.8" fill="none" stroke="#4d15e6" stroke-linecap="round" stroke-linejoin="round" stroke-width="1.0"/>
    </g>
    <g id="sprite0" transform="matrix(1.0, 0.0, 0.0, 1.0, 0.0, 0.0)">
      <use ffdec:characterId="3" height="65.85" transform="matrix(1.0, 0.0, 0.0, 1.0, 0.0, 0.0)" width="35.85" xlink:href="#shape2"/>
    </g>
    <g id="shape2" transform="matrix(1.0, 0.0, 0.0, 1.0, 0.0, 0.0)">
      <path d="M5.1 23.7 Q6.2 13.9 6.5 4.85 L6.6 0.0 Q12.25 7.05 21.1 22.6 26.1 31.4 29.35 38.8 30.65 41.85 31.65 45.7 34.6 57.25 35.85 65.85 32.25 59.9 26.9 52.6 L20.75 44.75 19.95 45.35 9.5 55.9 0.0 65.2 0.9 58.15 1.8 50.85 3.95 35.15 Q4.75 29.25 4.65 27.5 L5.1 23.7" fill="url(#gradient0)" fill-rule="evenodd" stroke="none"/>
    </g>
    <linearGradient gradientTransform="matrix(0.0016, -0.0157, 0.0399, 0.004, 31.5, 44.65)" gradientUnits="userSpaceOnUse" id="gradient0" spreadMethod="pad" x1="-819.2" x2="819.2">
      <stop offset="0.0" stop-color="#98dfff" stop-opacity="0.8901961"/>
      <stop offset="0.5568627450980392" stop-color="#4af0ff" stop-opacity="0.6392157"/>
      <stop offset="1.0" stop-color="#0079ff"/>
      <stop offset="1.0" stop-color="#08abf3"/>
    </linearGradient>
    <g id="sprite1" transform="matrix(1.0, 0.0, 0.0, 1.0, 0.0, 0.0)">
      <use ffdec:characterId="3" height="65.85" transform="matrix(1.0, 0.0, 0.0, 1.0, 0.0, 0.0)" width="35.85" xlink:href="#shape2"/>
    </g>
    <g id="sprite2" transform="matrix(1.0, 0.0, 0.0, 1.0, 80.45, -82.1)">
      <use ffdec:characterId="6" height="17.1" transform="matrix(1.0, 0.0, 0.0, 1.0, -80.45, 82.1)" width="24.6" xlink:href="#shape3"/>
    </g>
    <g id="shape3" transform="matrix(1.0, 0.0, 0.0, 1.0, 80.45, -82.1)">
      <path d="M-73.8 90.95 L-67.0 82.1 Q-64.25 84.9 -60.85 89.35 L-55.85 96.55 Q-58.1 95.35 -61.1 94.3 L-65.1 93.1 Q-69.75 94.4 -80.45 99.2 L-73.8 90.95" fill="url(#gradient1)" fill-rule="evenodd" stroke="none"/>
    </g>
    <linearGradient gradientTransform="matrix(-2.0E-4, -0.0045, 0.04, -0.0017, -41.15, 88.5)" gradientUnits="userSpaceOnUse" id="gradient1" spreadMethod="pad" x1="-819.2" x2="819.2">
      <stop offset="0.0" stop-color="#98dfff" stop-opacity="0.8901961"/>
      <stop offset="0.5568627450980392" stop-color="#4af0ff" stop-opacity="0.6392157"/>
      <stop offset="1.0" stop-color="#0079ff"/>
      <stop offset="1.0" stop-color="#08abf3"/>
    </linearGradient>
    <g id="shape4" transform="matrix(1.0, 0.0, 0.0, 1.0, 0.0, 0.0)">
      <path d="M50.5 0.0 Q53.95 0.0 53.95 3.3 L53.95 50.15 Q53.95 53.4 50.5 53.4 L3.3 53.4 Q0.0 53.4 0.0 50.15 L0.0 3.3 Q0.0 0.0 3.3 0.0 L50.5 0.0" fill="#000000" fill-opacity="0.003921569" fill-rule="evenodd" stroke="none"/>
    </g>
  </defs>
</svg>
