<?xml version="1.0" encoding="UTF-8" standalone="no"?>
<svg xmlns:ffdec="https://www.free-decompiler.com/flash" xmlns:xlink="http://www.w3.org/1999/xlink" ffdec:objectType="frame" height="55.5px" width="53.95px" xmlns="http://www.w3.org/2000/svg">
  <g transform="matrix(1.0, 0.0, 0.0, 1.0, 0.0, 1.05)">
    <clipPath id="clipPath0" transform="matrix(1.0, 0.0, 0.0, 1.0, 0.0, 0.0)">
      <path d="M50.5 0.0 Q53.95 0.0 53.95 3.3 L53.95 50.15 Q53.95 53.4 50.5 53.4 L3.3 53.4 Q0.0 53.4 0.0 50.15 L0.0 3.3 Q0.0 0.0 3.3 0.0 L50.5 0.0" fill="#000000" fill-rule="evenodd" stroke="none"/>
    </clipPath>
    <g clip-path="url(#clipPath0)">
      <use ffdec:characterId="2" height="55.5" transform="matrix(1.0, 0.0, 0.0, 1.0, 0.9, -1.05)" width="52.3" xlink:href="#shape1"/>
    </g>
    <use ffdec:characterId="3" height="53.4" transform="matrix(1.0, 0.0, 0.0, 1.0, 0.0, 0.0)" width="53.95" xlink:href="#shape2"/>
  </g>
  <defs>
    <g id="shape1" transform="matrix(1.0, 0.0, 0.0, 1.0, -0.9, 1.05)">
      <path d="M6.75 28.0 L1.65 30.2 Q1.45 28.3 3.65 22.35 5.8 16.35 12.1 10.9 L12.35 11.7 13.7 15.3 17.7 13.1 17.75 13.05 18.2 13.65 16.65 15.0 13.85 18.05 12.35 17.1 11.1 16.1 8.4 19.55 7.7 20.5 8.0 20.95 9.85 23.5 12.2 25.6 6.75 28.0" fill="#c0b8a2" fill-rule="evenodd" stroke="none"/>
      <path d="M52.0 22.95 L52.45 23.45 44.6 23.8 43.7 23.85 38.55 30.4 30.45 24.15 25.35 28.9 24.85 29.35 22.85 31.2 22.25 31.8 21.05 30.85 13.6 25.0 12.2 25.6 9.85 23.5 8.0 20.95 7.7 20.5 8.4 19.55 11.1 16.1 12.35 17.1 13.85 18.05 16.65 15.0 18.2 13.65 20.55 16.95 20.95 16.75 19.75 18.7 Q18.0 21.95 17.1 25.0 L22.5 29.35 30.15 22.3 38.6 27.8 43.05 21.95 52.0 22.95" fill="#d9d2bf" fill-rule="evenodd" stroke="none"/>
      <path d="M44.6 23.8 L44.75 25.45 39.3 32.0 29.95 25.95 26.75 29.15 26.3 29.6 24.1 31.8 Q23.55 31.45 22.85 31.2 L24.85 29.35 25.35 28.9 30.45 24.15 38.55 30.4 43.7 23.85 44.6 23.8 M51.5 47.35 Q51.55 50.75 49.9 53.7 L46.6 53.7 Q50.85 50.85 51.5 47.35 M23.1 53.7 L7.55 53.7 6.8 52.3 Q4.25 46.7 6.75 28.0 L12.2 25.6 13.6 25.0 21.05 30.85 20.8 30.85 18.65 31.25 14.05 27.7 14.0 31.75 Q13.7 36.5 14.95 41.1 L14.95 41.15 Q16.05 45.85 18.55 49.25 20.55 52.0 23.1 53.7 M12.35 11.7 Q14.35 9.25 17.0 7.9 18.2 7.3 19.4 6.9 L26.85 6.45 Q25.7 6.7 24.25 7.55 23.05 8.25 21.1 9.6 19.7 10.45 18.35 12.2 L17.7 13.1 13.7 15.3 12.35 11.7 M47.1 40.9 L48.1 41.6 Q49.05 42.6 49.05 44.15 L48.8 45.7 48.15 47.3 47.55 48.2 47.05 48.65 Q46.2 49.25 45.65 49.25 45.1 49.25 44.6 48.8 L44.1 47.9 43.35 47.35 44.2 46.9 44.35 46.8 45.4 45.55 46.35 43.7 46.6 42.05 46.3 41.0 46.9 40.95 47.1 40.9 M47.85 44.65 L47.6 45.4 47.5 45.65 Q47.15 46.5 46.45 47.2 45.6 48.0 44.75 48.0 L44.3 47.95 44.1 47.9 44.3 47.95 44.75 48.0 Q45.6 48.0 46.45 47.2 47.15 46.5 47.5 45.65 L47.6 45.4 47.85 44.65 M32.75 47.3 Q32.6 48.85 30.1 48.85 L29.25 48.85 28.6 49.0 Q26.55 49.25 24.45 48.5 21.35 47.35 21.35 45.2 21.35 43.95 22.25 43.0 L22.45 42.8 Q23.2 42.1 24.1 42.05 L24.3 42.0 25.1 42.2 25.1 42.8 Q25.1 44.8 27.6 46.25 L28.15 46.5 Q30.1 47.5 32.0 47.5 L32.75 47.3 M24.85 29.35 L26.3 29.6 24.85 29.35 M25.35 28.9 L26.75 29.15 25.35 28.9 M23.1 45.85 Q25.1 48.35 28.5 48.8 L29.25 48.85 28.5 48.8 Q25.1 48.35 23.1 45.85" fill="#f8c039" fill-rule="evenodd" stroke="none"/>
      <path d="M36.6 12.9 Q37.35 13.4 38.35 13.75 L39.0 13.95 41.1 14.0 41.9 13.8 43.2 16.1 39.8 18.0 34.15 14.05 29.55 16.15 27.2 13.3 25.0 14.5 20.95 16.75 20.55 16.95 18.2 13.65 17.75 13.05 17.7 13.1 18.35 12.2 Q19.7 10.45 21.1 9.6 23.05 8.25 24.25 7.55 25.7 6.7 26.85 6.45 L29.8 6.85 30.25 6.9 30.2 7.75 30.4 8.85 30.45 9.25 30.6 9.4 30.25 10.1 Q30.25 11.25 31.75 12.45 33.35 13.75 35.1 13.75 L35.75 13.5 Q35.75 13.05 36.35 12.65 L36.6 12.9 M44.75 25.45 Q45.0 28.75 46.05 32.15 L45.15 32.8 Q44.5 33.6 44.5 35.2 L44.5 35.5 43.0 34.5 41.95 33.85 40.6 33.25 40.3 33.25 Q38.9 33.25 36.6 34.45 34.6 35.6 34.25 36.4 L34.25 36.45 34.05 36.85 Q36.4 38.05 38.55 38.45 L41.3 38.7 43.5 37.95 44.9 37.15 45.45 37.95 Q46.55 39.45 48.4 39.45 L49.15 39.35 49.5 40.05 Q51.4 43.95 51.5 47.35 50.85 50.85 46.6 53.7 L23.1 53.7 Q20.55 52.0 18.55 49.25 16.05 45.85 14.95 41.15 L14.95 41.1 Q13.7 36.5 14.0 31.75 L14.05 27.7 18.65 31.25 Q17.5 31.7 16.5 32.6 L15.9 33.4 Q14.75 34.95 14.75 36.9 14.75 39.45 16.5 41.2 L16.7 41.35 Q18.25 42.8 20.35 43.0 L20.8 43.0 22.45 42.8 22.25 43.0 Q21.35 43.95 21.35 45.2 21.35 47.35 24.45 48.5 26.55 49.25 28.6 49.0 29.25 50.4 31.05 51.6 33.85 53.5 37.9 53.5 41.95 53.5 44.85 51.6 47.0 50.15 47.55 48.2 L48.15 47.3 48.8 45.7 49.05 44.15 Q49.05 42.6 48.1 41.6 L47.1 40.9 46.9 40.95 46.3 41.0 46.6 42.05 46.35 43.7 45.4 45.55 44.35 46.8 44.2 46.9 43.35 47.35 43.25 47.2 42.85 46.7 42.6 46.0 42.6 45.55 Q42.6 44.6 43.05 43.65 L43.15 43.5 43.6 42.85 43.9 42.5 44.3 42.05 Q41.6 40.5 37.9 40.5 33.85 40.5 31.05 42.4 L29.95 43.2 30.3 43.4 Q32.75 45.0 32.75 47.1 L32.75 47.3 32.0 47.5 Q30.1 47.5 28.15 46.5 L27.6 46.25 Q25.1 44.8 25.1 42.8 L25.1 42.2 24.3 42.0 24.1 42.05 25.1 41.2 Q26.9 39.45 26.9 36.9 L26.85 36.45 Q26.7 34.25 25.1 32.6 L24.1 31.8 26.3 29.6 26.75 29.15 29.95 25.95 39.3 32.0 44.75 25.45 M7.55 53.7 L6.15 53.7 6.8 52.3 7.55 53.7 M42.8 30.55 Q43.75 29.1 44.75 28.95 43.75 29.1 42.8 30.55 M42.8 31.25 Q43.75 29.8 44.75 29.7 43.75 29.8 42.8 31.25 M46.3 41.0 Q45.2 41.15 44.3 42.05 45.2 41.15 46.3 41.0 M32.5 31.45 Q29.75 29.8 26.75 29.15 29.75 29.8 32.5 31.45 M32.35 31.95 Q29.45 30.25 26.3 29.6 29.45 30.25 32.35 31.95 M29.95 43.2 Q28.1 42.2 25.25 42.2 L25.1 42.2 25.25 42.2 Q28.1 42.2 29.95 43.2" fill="#ffe778" fill-rule="evenodd" stroke="none"/>
      <path d="M42.0 11.1 L42.4 10.65 42.45 10.25 Q42.45 9.2 41.75 8.8 41.05 8.4 41.05 9.6 L41.3 10.4 Q41.65 11.1 42.0 11.1 M39.2 7.3 L40.0 7.1 Q41.55 7.1 42.65 8.35 43.7 9.5 43.7 11.0 43.7 12.3 43.1 13.05 L41.9 13.8 41.1 14.0 39.0 13.95 38.35 13.75 Q37.35 13.4 36.6 12.9 L36.15 11.6 Q36.15 10.9 37.0 10.9 37.45 10.9 38.3 11.6 L38.9 12.05 39.85 12.25 40.45 12.0 40.7 11.65 41.05 10.7 Q41.05 10.05 40.3 9.05 39.6 8.15 38.95 8.05 L39.2 7.3 38.95 8.05 38.7 8.65 38.3 9.3 37.85 9.85 36.75 10.15 Q35.7 10.15 34.85 9.45 34.15 8.8 33.9 7.95 L33.85 7.2 Q33.85 6.3 34.25 5.8 34.65 5.15 35.4 5.15 35.75 5.15 36.35 5.7 L36.2 6.65 35.95 6.55 35.65 6.45 35.3 6.65 35.1 7.1 Q35.1 7.7 35.55 8.15 35.9 8.5 36.3 8.5 37.45 8.5 37.7 7.2 L37.85 6.25 37.75 5.65 Q38.1 5.65 38.2 5.4 L38.2 5.15 Q38.2 4.05 37.25 3.05 36.3 2.1 36.3 3.15 L36.35 3.5 35.25 3.25 Q33.8 3.25 31.25 4.7 L30.8 4.95 31.75 3.35 Q33.2 1.5 34.95 1.5 37.05 1.5 38.25 2.9 39.3 4.2 39.3 6.2 L39.2 7.3" fill="#08a407" fill-rule="evenodd" stroke="none"/>
      <path d="M38.95 8.05 Q39.6 8.15 40.3 9.05 41.05 10.05 41.05 10.7 L40.7 11.65 40.45 12.0 39.85 12.25 38.9 12.05 38.3 11.6 Q37.45 10.9 37.0 10.9 36.15 10.9 36.15 11.6 L36.6 12.9 36.35 12.65 36.15 12.45 Q32.8 11.5 30.7 9.45 L30.6 9.4 30.45 9.25 30.4 8.85 30.2 7.75 30.25 6.9 Q30.4 5.9 30.8 4.95 L31.25 4.7 Q33.8 3.25 35.25 3.25 L36.35 3.5 36.65 4.55 Q37.15 5.65 37.75 5.65 L37.85 6.25 37.7 7.2 Q37.45 8.5 36.3 8.5 35.9 8.5 35.55 8.15 35.1 7.7 35.1 7.1 L35.3 6.65 35.65 6.45 35.95 6.55 36.2 6.65 36.35 5.7 Q35.75 5.15 35.4 5.15 34.65 5.15 34.25 5.8 33.85 6.3 33.85 7.2 L33.9 7.95 Q34.15 8.8 34.85 9.45 35.7 10.15 36.75 10.15 L37.85 9.85 38.3 9.3 38.7 8.65 38.95 8.05" fill="#017c02" fill-rule="evenodd" stroke="none"/>
      <path d="M30.6 9.4 L30.7 9.45 Q32.8 11.5 36.15 12.45 L36.35 12.65 Q35.75 13.05 35.75 13.5 L35.1 13.75 Q33.35 13.75 31.75 12.45 30.25 11.25 30.25 10.1 L30.6 9.4" fill="#b9d236" fill-rule="evenodd" stroke="none"/>
      <path d="M43.2 16.1 L44.35 15.45 51.05 22.05 47.1 20.6 44.25 19.5 43.3 19.25 Q41.75 19.25 40.8 20.95 L39.15 23.7 35.55 21.0 32.7 18.9 32.55 18.85 32.35 18.9 30.1 20.25 26.05 19.15 25.3 19.15 25.0 18.8 25.0 18.75 25.0 14.5 27.2 13.3 29.55 16.15 34.15 14.05 39.8 18.0 43.2 16.1" fill="#fcf9f5" fill-rule="evenodd" stroke="none"/>
      <path d="M51.05 22.05 L52.0 22.95 43.05 21.95 38.6 27.8 30.15 22.3 22.5 29.35 17.1 25.0 Q18.0 21.95 19.75 18.7 L20.95 16.75 25.0 14.5 25.0 18.75 25.0 18.8 25.3 19.15 26.05 19.15 30.1 20.25 32.35 18.9 32.55 18.85 32.7 18.9 35.55 21.0 39.15 23.7 40.8 20.95 Q41.75 19.25 43.3 19.25 L44.25 19.5 47.1 20.6 51.05 22.05" fill="#f7f0e8" fill-rule="evenodd" stroke="none"/>
      <path d="M42.0 11.1 Q41.65 11.1 41.3 10.4 L41.05 9.6 Q41.05 8.4 41.75 8.8 42.45 9.2 42.45 10.25 L42.4 10.65 42.0 11.1 M37.75 5.65 Q37.15 5.65 36.65 4.55 L36.35 3.5 36.3 3.15 Q36.3 2.1 37.25 3.05 38.2 4.05 38.2 5.15 L38.2 5.4 Q38.1 5.65 37.75 5.65" fill="#e4f8ec" fill-rule="evenodd" stroke="none"/>
      <path d="M40.6 33.25 L41.7 34.25 42.15 34.6 Q43.45 35.9 43.45 36.35 L43.45 36.7 41.4 37.05 38.4 37.15 35.8 36.7 34.25 36.4 Q34.6 35.6 36.6 34.45 38.9 33.25 40.3 33.25 L40.6 33.25" fill="#e7ac1f" fill-rule="evenodd" stroke="none"/>
      <path d="M41.7 34.25 L41.95 33.85 43.0 34.5 44.5 35.5 45.25 36.15 45.25 36.4 44.9 37.15 43.5 37.95 41.3 38.7 38.55 38.45 Q36.4 38.05 34.05 36.85 L34.25 36.45 34.25 36.4 35.8 36.7 38.4 37.15 41.4 37.05 43.45 36.7 43.45 36.35 Q43.45 35.9 42.15 34.6 L41.7 34.25" fill="#ffe587" fill-rule="evenodd" stroke="none"/>
      <path d="M40.6 33.25 L41.95 33.85 41.7 34.25 40.6 33.25" fill="#e0a78a" fill-rule="evenodd" stroke="none"/>
      <path d="M46.05 32.15 Q47.15 35.75 49.15 39.35 L48.4 39.45 Q46.55 39.45 45.45 37.95 L44.9 37.15 45.25 36.4 45.25 36.15 44.5 35.5 44.5 35.2 Q44.5 33.6 45.15 32.8 L46.05 32.15 M21.05 30.85 L22.25 31.8 22.85 31.2 Q23.55 31.45 24.1 31.8 L25.1 32.6 Q26.7 34.25 26.85 36.45 L26.9 36.9 Q26.9 39.45 25.1 41.2 L24.1 42.05 Q23.2 42.1 22.45 42.8 L20.8 43.0 20.35 43.0 Q18.25 42.8 16.7 41.35 L16.5 41.2 Q14.75 39.45 14.75 36.9 14.75 34.95 15.9 33.4 L16.5 32.6 Q17.5 31.7 18.65 31.25 L20.8 30.85 21.05 30.85" fill="#ff9999" fill-rule="evenodd" stroke="none"/>
      <path d="M43.35 47.35 L44.1 47.9 44.6 48.8 Q45.1 49.25 45.65 49.25 46.2 49.25 47.05 48.65 L47.55 48.2 Q47.0 50.15 44.85 51.6 41.95 53.5 37.9 53.5 33.85 53.5 31.05 51.6 29.25 50.4 28.6 49.0 L29.25 48.85 30.1 48.85 Q32.6 48.85 32.75 47.3 L32.75 47.1 Q32.75 45.0 30.3 43.4 L29.95 43.2 31.05 42.4 Q33.85 40.5 37.9 40.5 41.6 40.5 44.3 42.05 L43.9 42.5 43.6 42.85 42.85 42.4 Q41.55 41.75 39.75 41.6 35.2 41.3 35.2 43.75 35.2 44.8 36.15 45.75 37.55 47.15 40.45 47.15 L42.85 46.7 43.25 47.2 43.35 47.35 M43.05 43.65 L42.7 43.25 43.15 43.5 43.05 43.65" fill="#ffefa6" fill-rule="evenodd" stroke="none"/>
      <path d="M42.85 46.7 L40.45 47.15 Q37.55 47.15 36.15 45.75 35.2 44.8 35.2 43.75 35.2 41.3 39.75 41.6 41.55 41.75 42.85 42.4 L43.6 42.85 43.15 43.5 42.7 43.25 43.05 43.65 Q42.6 44.6 42.6 45.55 L42.6 46.0 42.85 46.7" fill="#fff9dd" fill-rule="evenodd" stroke="none"/>
      <path d="M43.2 16.1 L44.35 15.45 51.05 22.05 52.0 22.95 52.45 23.45 44.6 23.8 43.7 23.85 38.55 30.4 30.45 24.15 25.35 28.9 24.85 29.35 22.85 31.2 22.25 31.8 21.05 30.85 13.6 25.0 12.2 25.6 6.75 28.0 1.65 30.2 Q1.45 28.3 3.65 22.35 5.8 16.35 12.1 10.9 L12.35 11.7 13.7 15.3 17.7 13.1 17.75 13.05 18.2 13.65 20.55 16.95 20.95 16.75 25.0 14.5 27.2 13.3 29.55 16.15 34.15 14.05 39.8 18.0 43.2 16.1" fill="none" stroke="#554625" stroke-linecap="round" stroke-linejoin="round" stroke-width="1.5"/>
      <path d="M41.9 13.8 L43.2 16.1 M44.6 23.8 L44.75 25.45 Q45.0 28.75 46.05 32.15 47.15 35.75 49.15 39.35 L49.5 40.05 Q51.4 43.95 51.5 47.35 51.55 50.75 49.9 53.7 M6.15 53.7 L6.8 52.3 Q4.25 46.7 6.75 28.0 M12.35 11.7 Q14.35 9.25 17.0 7.9 L14.35 5.9 Q13.5 5.2 13.3 4.1 13.05 1.9 14.6 0.45 L15.65 -0.3 M44.75 28.95 Q43.75 29.1 42.8 30.55 M44.75 29.7 Q43.75 29.8 42.8 31.25 M26.85 6.45 L19.4 6.9 Q18.2 7.3 17.0 7.9 M26.85 6.45 L29.8 6.85 30.25 6.9 M26.3 29.6 L24.85 29.35 M17.4 -0.3 L18.55 1.1 Q18.95 1.95 17.85 3.5 16.8 5.05 15.2 2.3 M26.75 29.15 Q29.75 29.8 32.5 31.45 M26.3 29.6 Q29.45 30.25 32.35 31.95 M26.75 29.15 L25.35 28.9 M7.55 53.7 L6.8 52.3" fill="none" stroke="#835222" stroke-linecap="round" stroke-linejoin="round" stroke-width="1.5"/>
      <path d="M41.9 13.8 L43.1 13.05 Q43.7 12.3 43.7 11.0 43.7 9.5 42.65 8.35 41.55 7.1 40.0 7.1 L39.2 7.3 38.95 8.05 38.7 8.65 38.3 9.3 37.85 9.85 36.75 10.15 Q35.7 10.15 34.85 9.45 34.15 8.8 33.9 7.95 L33.85 7.2 Q33.85 6.3 34.25 5.8 34.65 5.15 35.4 5.15 35.75 5.15 36.35 5.7 M36.6 12.9 Q37.35 13.4 38.35 13.75 L39.0 13.95 41.1 14.0 41.9 13.8 M30.8 4.95 Q30.4 5.9 30.25 6.9 L30.2 7.75 30.4 8.85 30.45 9.25 30.6 9.4 30.7 9.45 M36.15 12.45 L36.35 12.65 36.6 12.9 M30.8 4.95 L31.75 3.35 Q33.2 1.5 34.95 1.5 37.05 1.5 38.25 2.9 39.3 4.2 39.3 6.2 L39.2 7.3" fill="none" stroke="#14430c" stroke-linecap="round" stroke-linejoin="round" stroke-width="1.5"/>
      <path d="M41.95 33.85 L40.6 33.25 40.3 33.25 Q38.9 33.25 36.6 34.45 34.6 35.6 34.25 36.4 L34.25 36.45 34.05 36.85 Q36.4 38.05 38.55 38.45 L41.3 38.7 43.5 37.95 44.9 37.15 45.25 36.4 45.25 36.15 44.5 35.5 43.0 34.5 41.95 33.85" fill="none" stroke="#733d00" stroke-linecap="round" stroke-linejoin="round" stroke-width="1.5"/>
      <path d="M47.1 40.9 L46.9 40.95 46.3 41.0 Q45.2 41.15 44.3 42.05 L43.9 42.5 43.6 42.85 43.15 43.5 43.05 43.65 Q42.6 44.6 42.6 45.55 L42.6 46.0 42.85 46.7 43.25 47.2 43.35 47.35 M44.1 47.9 L44.3 47.95 44.75 48.0 Q45.6 48.0 46.45 47.2 47.15 46.5 47.5 45.65 L47.6 45.4 47.85 44.65 M29.95 43.2 L30.3 43.4 Q32.75 45.0 32.75 47.1 L32.75 47.3 Q32.6 48.85 30.1 48.85 L29.25 48.85 28.5 48.8 Q25.1 48.35 23.1 45.85 M25.1 42.2 L25.25 42.2 Q28.1 42.2 29.95 43.2" fill="none" stroke="#825224" stroke-linecap="round" stroke-linejoin="round" stroke-width="1.5"/>
      <path d="M43.35 47.35 L44.1 47.9" fill="none" stroke="#54492b" stroke-linecap="round" stroke-linejoin="round" stroke-width="1.5"/>
    </g>
    <g id="shape2" transform="matrix(1.0, 0.0, 0.0, 1.0, 0.0, 0.0)">
      <path d="M50.5 0.0 Q53.95 0.0 53.95 3.3 L53.95 50.15 Q53.95 53.4 50.5 53.4 L3.3 53.4 Q0.0 53.4 0.0 50.15 L0.0 3.3 Q0.0 0.0 3.3 0.0 L50.5 0.0" fill="#000000" fill-opacity="0.003921569" fill-rule="evenodd" stroke="none"/>
    </g>
  </defs>
</svg>
