<?xml version="1.0" encoding="UTF-8" standalone="no"?>
<svg xmlns:ffdec="https://www.free-decompiler.com/flash" xmlns:xlink="http://www.w3.org/1999/xlink" ffdec:objectType="frame" height="54.95px" width="55.9px" xmlns="http://www.w3.org/2000/svg">
  <g transform="matrix(1.0, 0.0, 0.0, 1.0, 0.5, 0.95)">
    <clipPath id="clipPath0" transform="matrix(1.0, 0.0, 0.0, 1.0, 0.0, 0.0)">
      <path d="M50.5 0.0 Q53.95 0.0 53.95 3.3 L53.95 50.15 Q53.95 53.4 50.5 53.4 L3.3 53.4 Q0.0 53.4 0.0 50.15 L0.0 3.3 Q0.0 0.0 3.3 0.0 L50.5 0.0" fill="#000000" fill-rule="evenodd" stroke="none"/>
    </clipPath>
    <g clip-path="url(#clipPath0)">
      <use ffdec:characterId="2" height="54.95" transform="matrix(1.0, 0.0, 0.0, 1.0, -0.5, -0.95)" width="55.9" xlink:href="#shape1"/>
    </g>
    <use ffdec:characterId="3" height="53.4" transform="matrix(1.0, 0.0, 0.0, 1.0, 0.0, 0.0)" width="53.95" xlink:href="#shape2"/>
  </g>
  <defs>
    <g id="shape1" transform="matrix(1.0, 0.0, 0.0, 1.0, 0.5, 0.95)">
      <path d="M11.75 3.2 Q10.95 2.3 10.4 1.05 L9.9 -0.45 16.1 -0.45 Q13.75 1.25 11.75 3.2 M23.5 -0.45 L29.8 -0.45 29.95 2.4 29.2 2.05 27.15 1.05 23.5 -0.45 M51.9 52.9 L52.15 52.9 54.6 52.6 54.9 52.55 54.9 53.5 51.7 53.5 51.9 52.9 M0.95 53.5 L0.0 53.5 0.0 50.35 0.15 50.65 Q0.85 52.1 0.95 53.5" fill="#2c91c7" fill-rule="evenodd" stroke="none"/>
      <path d="M0.0 2.25 L0.0 -0.45 9.9 -0.45 10.4 1.05 Q10.95 2.3 11.75 3.2 6.1 8.8 2.95 16.6 L0.0 19.7 0.0 11.0 2.6 10.05 1.6 6.1 2.4 1.6 0.0 2.25" fill="#1a66b4" fill-rule="evenodd" stroke="none"/>
      <path d="M14.8 16.55 Q13.25 18.95 12.4 21.3 L11.95 21.65 Q9.5 23.45 8.05 26.25 5.55 30.55 6.25 35.35 6.45 37.4 7.0 39.2 L7.45 40.45 Q8.05 42.1 8.95 43.7 L9.5 44.7 8.6 45.95 6.9 44.35 Q3.2 40.65 1.7 35.15 L1.6 34.6 1.5 34.45 0.9 31.65 Q6.95 21.3 14.8 16.55" fill="#dc3719" fill-rule="evenodd" stroke="none"/>
      <path d="M46.4 52.7 L50.1 52.8 49.7 53.5 47.7 53.5 46.4 52.7 M3.6 53.5 L2.85 53.5 Q2.6 52.05 1.95 50.8 L0.8 49.2 4.1 49.45 7.25 49.7 Q5.35 52.3 3.6 53.5 M0.05 34.7 L0.0 34.35 0.0 33.3 0.9 31.65 1.5 34.45 1.6 34.6 1.7 35.15 Q3.2 40.65 6.9 44.35 L8.6 45.95 9.5 44.7 11.05 46.95 11.95 48.1 13.7 49.9 14.35 50.55 14.8 50.9 15.7 51.65 Q16.85 52.4 18.25 52.8 L18.15 53.15 16.05 52.8 13.0 51.9 11.0 51.1 9.85 50.45 9.85 49.55 9.05 48.85 8.35 48.25 7.0 46.75 4.65 43.25 Q2.3 39.3 1.25 35.25 L1.05 34.6 0.05 34.7 M38.3 18.05 Q39.2 18.5 39.85 18.6 L41.1 18.6 41.65 18.15 42.0 17.7 Q43.35 19.3 44.5 21.3 L44.35 21.3 44.15 21.4 Q43.7 22.9 42.7 24.1 L42.35 24.45 Q41.35 25.6 39.85 25.9 L37.05 26.15 36.25 26.15 Q33.55 26.15 31.0 25.45 27.5 24.7 24.7 22.55 21.4 20.05 17.5 19.95 14.65 19.85 12.4 21.3 13.25 18.95 14.8 16.55 16.4 15.55 18.15 14.8 22.0 13.1 26.15 12.65 L26.6 12.65 30.1 12.45 29.95 12.65 27.5 15.9 35.15 22.3 35.25 22.3 37.6 19.15 38.3 18.05" fill="#db5427" fill-rule="evenodd" stroke="none"/>
      <path d="M50.1 52.8 L51.9 52.9 51.7 53.5 49.7 53.5 50.1 52.8 M2.85 53.5 L0.95 53.5 Q0.85 52.1 0.15 50.65 L0.0 50.35 0.0 49.1 0.15 49.1 0.8 49.2 1.95 50.8 Q2.6 52.05 2.85 53.5 M38.8 13.7 L39.85 15.0 40.0 15.35 39.75 15.8 38.3 17.95 38.3 18.05 37.6 19.15 35.25 22.3 35.15 22.3 27.5 15.9 29.95 12.65 30.1 12.45 Q35.15 12.4 38.8 13.7" fill="#f4cc2e" fill-rule="evenodd" stroke="none"/>
      <path d="M35.5 53.5 L18.1 53.5 18.15 53.15 18.25 52.8 Q16.85 52.4 15.7 51.65 L14.8 50.9 14.35 50.55 13.7 49.9 11.95 48.1 15.25 49.55 16.15 49.75 16.8 50.0 17.7 50.2 21.4 51.1 Q26.5 51.8 32.1 51.15 L32.15 51.15 34.6 50.9 35.3 50.65 39.1 49.75 38.95 49.0 36.25 49.1 36.6 48.1 36.95 47.05 37.9 45.45 Q40.35 47.95 44.05 47.95 L46.15 47.75 43.8 49.55 43.75 49.6 41.35 50.9 38.55 52.25 35.5 53.5 M44.5 21.3 L44.6 21.3 46.85 25.8 48.2 28.75 48.85 30.2 49.0 30.65 50.2 33.35 50.1 33.25 Q49.1 32.2 47.95 31.6 L47.75 29.85 Q47.2 28.05 45.95 27.05 44.8 26.05 43.45 26.35 42.1 26.7 41.55 28.3 41.1 29.55 41.45 31.05 39.45 31.65 37.85 33.25 36.85 34.25 36.25 35.4 L34.25 35.8 Q32.0 36.4 31.1 37.15 29.75 38.2 30.2 39.75 30.75 41.45 32.2 41.45 L35.45 40.7 35.8 42.15 34.15 43.45 Q33.25 44.15 32.1 44.5 L31.45 44.6 29.85 44.35 29.65 44.25 29.5 44.6 Q29.05 45.4 28.95 46.3 L28.95 47.5 29.1 47.95 Q27.6 47.55 26.05 46.95 L22.55 45.4 22.0 45.05 22.1 45.05 Q22.75 43.75 22.7 42.05 L23.0 42.45 Q23.55 40.45 25.7 37.3 27.7 34.15 30.65 31.3 L24.55 26.5 20.5 21.3 Q19.5 22.9 16.8 28.4 16.7 29.15 13.95 31.95 L12.2 32.2 11.85 32.35 11.75 32.0 Q10.4 27.05 12.3 21.75 L12.4 21.3 Q14.65 19.85 17.5 19.95 21.4 20.05 24.7 22.55 27.5 24.7 31.0 25.45 33.55 26.15 36.25 26.15 L37.05 26.15 39.85 25.9 Q41.35 25.6 42.35 24.45 L42.7 24.1 Q43.7 22.9 44.15 21.4 L44.35 21.3 44.5 21.3 M28.75 43.25 Q28.85 43.8 29.65 44.25 28.85 43.8 28.75 43.25" fill="#ffe6a6" fill-rule="evenodd" stroke="none"/>
      <path d="M47.95 23.0 L49.9 27.05 50.0 27.4 52.45 32.9 53.15 34.8 51.45 34.25 51.15 34.4 50.2 33.35 49.0 30.65 48.85 30.2 48.2 28.75 46.85 25.8 44.6 21.3 Q46.15 20.9 47.05 21.75 L47.3 22.55 47.45 22.3 47.85 23.1 47.95 23.0 M50.2 46.5 L49.3 47.5 Q47.1 49.7 44.55 51.2 L41.65 52.6 39.05 53.45 38.75 53.5 35.5 53.5 38.55 52.25 41.35 50.9 43.75 49.6 43.8 49.55 46.15 47.75 Q47.75 47.35 49.05 46.35 L50.2 46.5 M35.45 40.7 L32.2 41.45 Q30.75 41.45 30.2 39.75 29.75 38.2 31.1 37.15 32.0 36.4 34.25 35.8 L36.25 35.4 Q35.35 37.15 35.35 39.3 L35.45 40.7" fill="#fff4a6" fill-rule="evenodd" stroke="none"/>
      <path d="M36.25 49.1 L38.95 49.0 39.1 49.75 35.3 50.65 36.05 49.55 36.25 49.1 M32.1 51.15 Q26.5 51.8 21.4 51.1 L17.7 50.2 16.8 50.0 16.15 49.75 15.25 49.55 11.95 48.1 11.05 46.95 11.75 46.4 Q14.55 48.55 18.5 47.4 20.95 46.85 22.0 45.05 L22.55 45.4 26.05 46.95 Q27.6 47.55 29.1 47.95 L29.4 49.1 Q29.95 51.0 31.65 51.1 L32.1 51.15 M11.95 21.65 L12.3 21.75 Q10.4 27.05 11.75 32.0 L11.85 32.35 Q8.6 33.35 7.8 37.15 L7.7 38.3 7.8 39.2 7.0 39.2 Q6.45 37.4 6.25 35.35 5.55 30.55 8.05 26.25 9.5 23.45 11.95 21.65" fill="#fad590" fill-rule="evenodd" stroke="none"/>
      <path d="M0.0 2.25 L2.4 1.6 1.6 6.1 2.6 10.05 0.0 11.0 0.0 2.25 M48.4 19.5 Q48.25 20.85 47.55 22.15 L47.45 22.3 47.3 22.55 47.05 21.75 Q44.9 15.8 38.8 13.7 35.15 12.4 30.1 12.45 L26.6 12.65 26.15 12.65 Q22.0 13.1 18.15 14.8 16.4 15.55 14.8 16.55 6.95 21.3 0.9 31.65 L0.0 33.3 0.0 28.9 0.6 27.9 Q3.15 23.95 7.25 19.5 12.4 13.55 18.6 11.2 L19.05 11.05 21.75 10.15 25.8 9.5 Q29.3 9.25 32.2 9.45 L35.5 9.9 Q38.05 10.4 40.0 11.4 L41.2 12.1 Q46.3 15.35 48.4 19.5 M39.1 53.5 L38.75 53.5 39.05 53.45 39.1 53.5 M18.1 53.5 L16.15 53.5 16.15 53.45 16.05 52.8 18.15 53.15 18.1 53.5 M10.35 53.5 L3.6 53.5 Q5.35 52.3 7.25 49.7 L7.7 49.1 Q8.7 49.85 9.85 50.45 L11.0 51.1 10.35 53.5" fill="#c49506" fill-rule="evenodd" stroke="none"/>
      <path d="M29.8 -0.45 L34.5 -0.45 29.95 2.4 29.8 -0.45 M44.2 -0.45 L44.6 -0.45 50.65 -0.45 44.95 0.15 Q47.05 3.4 47.75 6.65 L46.6 4.85 44.5 0.6 44.2 -0.45 M44.55 51.2 Q45.2 51.95 46.4 52.7 L47.7 53.5 39.1 53.5 39.05 53.45 41.65 52.6 44.55 51.2 M16.15 53.5 L10.35 53.5 11.0 51.1 13.0 51.9 16.05 52.8 16.15 53.45 16.15 53.5 M50.2 45.25 L50.1 45.4 49.05 46.35 Q47.75 47.35 46.15 47.75 L44.05 47.95 Q40.35 47.95 37.9 45.45 L37.85 45.4 Q36.4 43.95 35.8 42.15 L35.45 40.7 35.35 39.3 Q35.35 37.15 36.25 35.4 36.85 34.25 37.85 33.25 39.45 31.65 41.45 31.05 L42.9 30.75 41.85 32.35 41.45 32.9 Q40.95 33.8 40.7 35.25 40.5 36.25 40.45 37.5 40.45 39.35 41.45 41.0 L43.15 43.0 Q45.5 45.1 48.25 45.4 L48.7 45.4 49.0 45.4 50.2 45.25 M44.6 -0.45 L44.95 0.15 44.6 -0.45" fill="#bb181d" fill-rule="evenodd" stroke="none"/>
      <path d="M17.35 -0.45 L23.5 -0.45 27.15 1.05 29.2 2.05 Q30.75 3.65 31.1 3.5 31.9 3.5 34.9 1.15 L36.85 -0.2 Q42.1 4.3 43.35 8.25 46.05 10.6 47.65 13.45 48.85 16.8 48.4 19.5 46.3 15.35 41.2 12.1 L40.0 11.4 Q38.05 10.4 35.5 9.9 L32.2 9.45 Q29.3 9.25 25.8 9.5 L21.75 10.15 Q21.55 9.95 21.2 9.85 L20.75 9.55 20.05 9.05 Q18.9 8.1 18.05 6.75 L17.7 6.2 Q16.6 4.4 16.45 3.05 16.35 1.5 17.25 -0.2 L17.35 -0.45" fill="#ffff33" fill-rule="evenodd" stroke="none"/>
      <path d="M36.55 -0.45 L44.2 -0.45 44.5 0.6 46.6 4.85 47.75 6.65 Q48.3 10.05 47.65 13.45 46.05 10.6 43.35 8.25 42.1 4.3 36.85 -0.2 L36.55 -0.45 M51.15 34.4 Q52.7 36.5 52.7 39.3 52.7 42.8 50.2 45.25 L49.0 45.4 48.7 45.4 48.25 45.4 Q45.5 45.1 43.15 43.0 L41.45 41.0 Q40.45 39.35 40.45 37.5 40.5 36.25 40.7 35.25 40.95 33.8 41.45 32.9 L41.85 32.35 42.9 30.75 44.05 30.65 Q46.2 30.65 47.95 31.6 49.1 32.2 50.1 33.25 L50.2 33.35 51.15 34.4 M45.5 34.95 Q45.5 35.95 45.95 36.7 46.6 37.85 48.2 37.85 L49.55 37.6 50.1 36.95 50.1 36.05 50.1 35.9 Q50.05 33.45 47.75 33.0 L47.7 33.0 Q45.5 32.6 45.5 34.9 L45.5 34.95 M49.0 40.0 Q48.4 39.85 47.3 40.0 L47.2 40.55 47.3 41.45 48.1 41.55 48.8 41.4 Q49.2 41.15 49.2 40.55 L49.1 40.1 49.0 40.0 M13.95 31.95 Q16.7 29.15 16.8 28.4 19.5 22.9 20.5 21.3 L24.55 26.5 30.65 31.3 Q27.7 34.15 25.7 37.3 23.55 40.45 23.0 42.45 L22.7 42.05 19.4 38.3 Q17.35 36.4 12.75 33.1 L13.95 31.95 M19.4 36.15 Q20.3 36.65 21.25 36.8 L23.0 36.6 Q24.9 36.15 25.9 34.35 26.95 32.65 26.35 30.75 25.9 28.85 24.1 27.85 22.45 26.8 20.5 27.4 18.6 27.85 17.6 29.65 16.8 30.95 17.0 32.5 L17.15 33.25 Q17.7 35.15 19.4 36.15" fill="#ff3333" fill-rule="evenodd" stroke="none"/>
      <path d="M47.55 22.15 L47.95 23.0 47.85 23.1 47.45 22.3 47.55 22.15 M7.7 49.1 L6.45 47.95 Q5.1 46.75 4.1 45.4 2.15 42.8 1.05 39.65 L0.35 37.4 0.05 34.7 1.05 34.6 1.25 35.25 Q2.3 39.3 4.65 43.25 L7.0 46.75 8.35 48.25 9.05 48.85 9.85 49.55 9.85 50.45 Q8.7 49.85 7.7 49.1 M44.5 21.3 Q43.35 19.3 42.0 17.7 L41.65 18.15 41.1 18.6 39.85 18.6 Q39.2 18.5 38.3 18.05 L38.3 17.95 39.75 15.8 40.0 15.35 39.85 15.0 38.8 13.7 Q44.9 15.8 47.05 21.75 46.15 20.9 44.6 21.3 L44.5 21.3" fill="#ff7337" fill-rule="evenodd" stroke="none"/>
      <path d="M53.15 34.8 Q54.5 39.55 52.25 43.6 L50.2 46.5 49.05 46.35 50.1 45.4 50.2 45.25 Q52.7 42.8 52.7 39.3 52.7 36.5 51.15 34.4 L51.45 34.25 53.15 34.8 M11.85 32.35 L12.2 32.2 13.95 31.95 12.75 33.1 Q17.35 36.4 19.4 38.3 L22.7 42.05 Q22.75 43.75 22.1 45.05 L22.0 45.05 Q20.95 46.85 18.5 47.4 14.55 48.55 11.75 46.4 10.3 45.25 9.25 43.45 8.6 42.0 8.05 40.2 L7.8 39.3 7.8 39.2 7.7 38.3 7.8 37.15 Q8.6 33.35 11.85 32.35" fill="#fda468" fill-rule="evenodd" stroke="none"/>
      <path d="M12.4 21.3 L12.3 21.75 11.95 21.65 12.4 21.3 M7.0 39.2 L7.8 39.2 7.8 39.3 8.05 40.2 Q8.6 42.0 9.25 43.45 L8.95 43.7 Q8.05 42.1 7.45 40.45 L7.0 39.2" fill="#f7bd86" fill-rule="evenodd" stroke="none"/>
      <path d="M8.95 43.7 L9.25 43.45 Q10.3 45.25 11.75 46.4 L11.05 46.95 9.5 44.7 8.95 43.7" fill="#f1b464" fill-rule="evenodd" stroke="none"/>
      <path d="M44.35 29.05 Q44.5 29.5 44.15 29.95 L43.7 30.1 43.15 29.65 Q42.8 29.4 42.8 29.2 42.55 28.4 43.35 28.15 44.05 28.05 44.35 29.05 M37.9 45.45 L36.95 47.05 36.6 48.1 36.25 49.1 36.05 49.55 35.3 50.65 34.6 50.9 32.15 51.15 32.1 51.15 31.65 51.1 Q29.95 51.0 29.4 49.1 L29.1 47.95 28.95 47.5 28.95 46.3 Q29.05 45.4 29.5 44.6 L29.65 44.25 29.85 44.35 31.45 44.6 32.1 44.5 Q33.25 44.15 34.15 43.45 L35.8 42.15 Q36.4 43.95 37.85 45.4 L37.9 45.45 M19.3 30.4 Q19.05 29.65 20.05 29.3 21.2 29.05 21.55 30.2 21.65 30.65 21.2 31.2 L20.5 31.45 Q20.2 31.55 19.75 31.1 L19.3 30.4 M33.7 46.95 L28.95 47.5 33.7 46.95 M35.6 46.95 L36.95 47.05 35.6 46.95" fill="#fbfbfb" fill-rule="evenodd" stroke="none"/>
      <path d="M41.45 31.05 Q41.1 29.55 41.55 28.3 42.1 26.7 43.45 26.35 44.8 26.05 45.95 27.05 47.2 28.05 47.75 29.85 L47.95 31.6 Q46.2 30.65 44.05 30.65 L42.9 30.75 41.45 31.05 M44.35 29.05 Q44.05 28.05 43.35 28.15 42.55 28.4 42.8 29.2 42.8 29.4 43.15 29.65 L43.7 30.1 44.15 29.95 Q44.5 29.5 44.35 29.05 M19.3 30.4 L19.75 31.1 Q20.2 31.55 20.5 31.45 L21.2 31.2 Q21.65 30.65 21.55 30.2 21.2 29.05 20.05 29.3 19.05 29.65 19.3 30.4 M19.4 36.15 Q17.7 35.15 17.15 33.25 L17.0 32.5 Q16.8 30.95 17.6 29.65 18.6 27.85 20.5 27.4 22.45 26.8 24.1 27.85 25.9 28.85 26.35 30.75 26.95 32.65 25.9 34.35 24.9 36.15 23.0 36.6 L21.25 36.8 Q20.3 36.65 19.4 36.15" fill="#4f261d" fill-rule="evenodd" stroke="none"/>
      <path d="M49.0 40.0 L49.1 40.1 49.2 40.55 Q49.2 41.15 48.8 41.4 L48.1 41.55 47.3 41.45 47.2 40.55 47.3 40.0 Q48.4 39.85 49.0 40.0 M45.5 34.95 L45.5 34.9 Q45.5 32.6 47.7 33.0 L47.75 33.0 Q50.05 33.45 50.1 35.9 L50.1 36.05 50.1 36.95 49.55 37.6 48.2 37.85 Q46.6 37.85 45.95 36.7 45.5 35.95 45.5 34.95" fill="#ff9595" fill-rule="evenodd" stroke="none"/>
      <path d="M0.0 19.7 L2.95 16.6 Q6.1 8.8 11.75 3.2 13.75 1.25 16.1 -0.45 L17.35 -0.45 17.25 -0.2 Q16.35 1.5 16.45 3.05 16.6 4.4 17.7 6.2 L18.05 6.75 Q18.9 8.1 20.05 9.05 L20.75 9.55 21.2 9.85 Q21.55 9.95 21.75 10.15 L19.05 11.05 18.6 11.2 Q12.4 13.55 7.25 19.5 3.15 23.95 0.6 27.9 L0.0 28.9 0.0 19.7 M34.5 -0.45 L36.55 -0.45 36.85 -0.2 34.9 1.15 Q31.9 3.5 31.1 3.5 30.75 3.65 29.2 2.05 L29.95 2.4 34.5 -0.45" fill="#f7be15" fill-rule="evenodd" stroke="none"/>
      <path d="M50.65 -0.45 L44.95 0.15 Q47.05 3.4 47.75 6.65 48.3 10.05 47.65 13.45 48.85 16.8 48.4 19.5 48.25 20.85 47.55 22.15 L47.95 23.0 49.9 27.05 50.0 27.4 52.45 32.9 53.15 34.8 Q54.5 39.55 52.25 43.6 L50.2 46.5 49.3 47.5 Q47.1 49.7 44.55 51.2 45.2 51.95 46.4 52.7 L50.1 52.8 51.9 52.9 52.15 52.9 54.6 52.6 54.9 52.55 M0.0 49.1 L0.15 49.1 0.8 49.2 4.1 49.45 7.25 49.7 7.7 49.1 6.45 47.95 Q5.1 46.75 4.1 45.4 2.15 42.8 1.05 39.65 L0.35 37.4 0.05 34.7 M47.05 21.75 Q44.9 15.8 38.8 13.7 35.15 12.4 30.1 12.45 L26.6 12.65 26.15 12.65 Q22.0 13.1 18.15 14.8 16.4 15.55 14.8 16.55 6.95 21.3 0.9 31.65 L0.0 33.3 M47.05 21.75 L47.3 22.55 47.45 22.3 47.55 22.15 M51.15 34.4 Q52.7 36.5 52.7 39.3 52.7 42.8 50.2 45.25 L50.1 45.4 49.05 46.35 Q47.75 47.35 46.15 47.75 L44.05 47.95 Q40.35 47.95 37.9 45.45 L37.85 45.4 Q36.4 43.95 35.8 42.15 L35.45 40.7 35.35 39.3 Q35.35 37.15 36.25 35.4 36.85 34.25 37.85 33.25 39.45 31.65 41.45 31.05 L42.9 30.75 44.05 30.65 Q46.2 30.65 47.95 31.6 49.1 32.2 50.1 33.25 L50.2 33.35 51.15 34.4 M47.95 31.6 L47.75 29.85 Q47.2 28.05 45.95 27.05 44.8 26.05 43.45 26.35 42.1 26.7 41.55 28.3 41.1 29.55 41.45 31.05 M19.4 36.15 Q20.3 36.65 21.25 36.8 L23.0 36.6 Q24.9 36.15 25.9 34.35 26.95 32.65 26.35 30.75 25.9 28.85 24.1 27.85 22.45 26.8 20.5 27.4 18.6 27.85 17.6 29.65 16.8 30.95 17.0 32.5 L17.15 33.25 Q17.7 35.15 19.4 36.15 M39.05 53.45 L38.75 53.5 M39.05 53.45 L41.65 52.6 44.55 51.2 M16.05 52.8 L13.0 51.9 11.0 51.1 9.85 50.45 Q8.7 49.85 7.7 49.1 M18.15 53.15 L16.05 52.8 M3.6 53.5 Q5.35 52.3 7.25 49.7 M46.4 52.7 L47.7 53.5 M44.95 0.15 L44.6 -0.45" fill="none" stroke="#602b31" stroke-linecap="round" stroke-linejoin="round" stroke-width="1.0"/>
      <path d="M37.9 45.45 L36.95 47.05 36.6 48.1 36.25 49.1 36.05 49.55 35.3 50.65 34.6 50.9 32.15 51.15 32.1 51.15 31.65 51.1 Q29.95 51.0 29.4 49.1 L29.1 47.95 28.95 47.5 28.95 46.3 Q29.05 45.4 29.5 44.6 M29.65 44.25 Q28.85 43.8 28.75 43.25 M29.65 44.25 L29.85 44.35 31.45 44.6 32.1 44.5 Q33.25 44.15 34.15 43.45 L35.8 42.15 M36.95 47.05 L35.6 46.95 M28.95 47.5 L33.7 46.95" fill="none" stroke="#602b31" stroke-linecap="round" stroke-linejoin="round" stroke-width="0.5"/>
    </g>
    <g id="shape2" transform="matrix(1.0, 0.0, 0.0, 1.0, 0.0, 0.0)">
      <path d="M50.5 0.0 Q53.95 0.0 53.95 3.3 L53.95 50.15 Q53.95 53.4 50.5 53.4 L3.3 53.4 Q0.0 53.4 0.0 50.15 L0.0 3.3 Q0.0 0.0 3.3 0.0 L50.5 0.0" fill="#000000" fill-opacity="0.003921569" fill-rule="evenodd" stroke="none"/>
    </g>
  </defs>
</svg>
