<?xml version="1.0" encoding="UTF-8" standalone="no"?>
<svg xmlns:ffdec="https://www.free-decompiler.com/flash" xmlns:xlink="http://www.w3.org/1999/xlink" ffdec:objectType="frame" height="57.8px" width="57.75px" xmlns="http://www.w3.org/2000/svg">
  <g transform="matrix(1.0, 0.0, 0.0, 1.0, 1.9, 1.9)">
    <clipPath id="clipPath0" transform="matrix(1.0, 0.0, 0.0, 1.0, 0.0, 0.0)">
      <path d="M50.5 0.0 Q53.95 0.0 53.95 3.3 L53.95 50.15 Q53.95 53.4 50.5 53.4 L3.3 53.4 Q0.0 53.4 0.0 50.15 L0.0 3.3 Q0.0 0.0 3.3 0.0 L50.5 0.0" fill="#000000" fill-rule="evenodd" stroke="none"/>
    </clipPath>
    <g clip-path="url(#clipPath0)">
      <use ffdec:characterId="2" height="57.8" transform="matrix(1.0, 0.0, 0.0, 1.0, -1.9, -1.9)" width="57.75" xlink:href="#shape1"/>
    </g>
    <use ffdec:characterId="3" height="53.4" transform="matrix(1.0, 0.0, 0.0, 1.0, 0.0, 0.0)" width="53.95" xlink:href="#shape2"/>
  </g>
  <defs>
    <g id="shape1" transform="matrix(1.0, 0.0, 0.0, 1.0, 1.9, 1.9)">
      <path d="M13.95 5.5 L12.55 -0.5 12.5 -0.75 12.35 -1.4 19.05 -1.4 17.75 0.0 17.6 0.2 17.35 3.55 17.25 4.7 17.25 4.8 17.35 5.05 19.15 10.6 19.95 12.8 18.25 10.5 16.55 9.35 14.95 8.5 14.95 8.55 Q14.9 8.5 14.7 8.4 L14.65 8.35 13.95 5.5 M24.35 -1.4 L25.15 -1.4 25.15 -1.2 25.3 0.45 25.3 0.5 24.55 -0.2 24.45 -0.7 24.35 -1.4 M41.5 -1.4 L42.0 -1.4 42.05 -1.05 42.8 2.05 42.15 3.2 42.0 3.55 41.95 3.65 41.95 3.35 41.25 3.9 40.95 4.2 40.65 4.55 40.6 4.55 40.6 4.2 40.55 3.65 40.8 3.45 42.1 2.1 42.1 1.95 42.0 1.6 41.75 0.1 41.5 -1.4 M45.3 8.7 L46.05 9.55 46.45 10.1 47.1 10.8 47.3 11.25 47.65 12.15 48.3 13.9 48.8 15.0 47.65 14.15 45.9 13.05 45.7 13.35 45.8 13.8 45.6 13.3 45.2 12.35 45.15 12.15 45.3 8.7 M48.2 12.3 L51.3 13.15 52.2 14.3 55.35 18.3 55.35 20.15 53.65 18.35 51.05 15.6 50.45 14.9 48.2 12.3 M55.35 24.1 L55.35 25.5 55.05 25.5 53.75 25.5 52.15 25.35 52.05 25.35 51.85 24.5 51.85 24.4 51.8 24.35 51.6 23.3 51.5 23.35 50.75 21.85 51.2 21.75 51.75 21.6 51.95 21.15 52.45 21.4 53.2 22.55 53.6 23.15 55.35 24.1 M48.3 55.4 L47.65 55.4 48.45 53.55 48.6 53.55 49.1 53.5 48.3 55.4 M2.5 55.4 L1.4 55.4 1.3 55.35 Q0.05 54.45 -1.4 53.85 L2.5 55.4 M21.65 0.1 L22.15 0.75 22.4 1.1 21.85 0.4 21.65 0.1 M42.15 3.2 L42.1 2.25 42.1 2.1 42.1 2.25 42.15 3.2 M47.15 20.3 L46.55 17.9 46.5 17.6 46.7 16.95 46.8 17.4 46.9 17.9 46.95 17.9 47.25 20.3 47.25 20.35 47.15 20.3 M53.6 23.15 L53.15 22.9 51.95 23.15 51.6 23.3 51.95 23.15 53.15 22.9 53.6 23.15 M27.3 2.45 L29.55 3.25 29.85 5.0 30.0 6.2 30.1 6.4 29.95 7.35 29.95 7.75 27.3 2.45 M21.0 3.65 L20.4 3.7 20.4 3.65 21.0 3.65 M14.7 8.4 L14.95 8.5 14.7 8.4 M28.2 30.65 L28.45 30.95 29.8 32.65 30.95 33.3 31.05 33.3 33.25 40.25 28.5 35.65 27.75 30.15 27.85 30.25 28.2 30.65 M33.75 47.6 L33.25 47.5 32.7 47.3 33.45 47.15 33.95 47.1 33.75 47.6" fill="#9fbfd4" fill-rule="evenodd" stroke="none"/>
      <path d="M3.8 -1.4 L3.9 -1.2 6.9 2.45 Q8.1 1.55 8.75 0.0 L9.2 -1.4 11.75 -1.4 12.55 -0.5 13.95 5.5 10.95 5.05 10.5 5.05 Q10.2 5.2 9.85 5.5 9.6 5.6 9.35 5.85 L8.35 5.35 8.3 5.4 7.85 6.25 7.55 6.85 7.5 6.95 6.1 7.2 3.1 4.85 0.45 3.5 Q-0.4 1.7 -1.35 0.25 L-1.4 0.2 -1.4 -1.4 3.8 -1.4" fill="#3c4459" fill-rule="evenodd" stroke="none"/>
      <path d="M0.45 3.5 L3.1 4.85 6.1 7.2 5.9 7.2 3.8 7.5 0.65 8.0 0.15 6.5 -1.35 6.85 -1.4 6.9 -1.4 2.55 0.45 3.5 M7.75 20.35 Q8.25 19.95 8.5 19.95 L10.7 20.05 11.5 20.9 11.6 21.05 12.8 22.15 13.0 22.25 13.5 22.8 10.5 24.85 9.9 25.35 9.75 25.7 7.7 25.65 6.2 25.65 6.5 25.0 8.15 21.25 7.95 20.75 7.75 20.35 M9.9 25.4 L9.95 25.75 9.9 25.75 9.9 25.4" fill="#242537" fill-rule="evenodd" stroke="none"/>
      <path d="M9.2 -1.4 L8.75 0.0 Q8.1 1.55 6.9 2.45 L3.9 -1.2 3.8 -1.4 9.2 -1.4" fill="#6d7b98" fill-rule="evenodd" stroke="none"/>
      <path d="M-1.4 0.2 L-1.35 0.25 Q-0.4 1.7 0.45 3.5 L-1.4 2.55 -1.4 0.2 M1.45 52.75 L2.5 51.5 3.05 50.65 4.05 48.7 4.95 48.8 5.3 48.95 5.35 48.95 4.25 49.95 3.65 50.9 3.6 50.95 3.5 51.25 3.0 52.1 2.4 53.25 1.45 52.75 M41.95 31.0 L41.35 32.25 41.0 32.95 40.95 33.05 40.3 34.5 39.4 36.8 39.15 36.8 39.05 36.75 38.7 36.25 38.9 35.95 40.15 33.7 Q40.35 33.4 40.15 31.95 L40.3 31.65 40.4 31.45 41.95 31.0 M45.05 32.65 L45.2 32.65 45.1 32.95 45.05 32.65 M8.9 16.7 L9.85 16.7 9.85 18.85 9.85 19.35 10.25 19.7 10.4 19.8 10.7 20.05 8.5 19.95 Q8.25 19.95 7.75 20.35 L7.1 18.85 6.35 17.1 Q5.85 17.35 5.05 17.9 L5.0 17.6 5.0 16.7 6.6 16.7 8.9 16.7 M10.0 27.15 L9.9 27.15 9.9 26.9 10.0 26.85 10.0 27.15 M9.1 27.3 L8.85 27.75 8.15 30.15 7.2 34.05 6.1 33.5 5.6 32.75 5.05 31.65 5.1 31.45 5.2 30.65 5.25 30.5 5.25 30.05 5.25 29.7 5.2 29.6 5.2 29.1 7.1 28.15 9.1 27.3 M22.3 41.85 L21.9 41.95 22.1 41.75 22.3 41.85 M33.1 40.4 L33.25 40.25 33.25 40.5 33.1 40.4 M34.55 44.3 L34.85 44.65 34.7 45.15 34.6 44.65 34.55 44.3 M33.4 40.7 L33.3 40.55 33.45 40.7 33.4 40.7 M38.65 48.5 L38.6 48.4 38.65 48.45 38.65 48.5" fill="#2e2b3c" fill-rule="evenodd" stroke="none"/>
      <path d="M-0.9 16.4 L-0.6 15.85 0.1 14.6 -0.1 16.95 -0.5 17.25 -0.55 17.25 -0.7 16.9 -0.9 16.4 M5.5 8.2 L4.9 8.05 4.85 8.05 Q4.2 8.35 3.1 9.25 2.25 9.9 1.5 10.65 L0.9 8.8 0.65 8.0 3.8 7.5 5.9 7.2 5.55 8.05 5.5 8.2 M16.95 27.2 L13.85 21.15 18.2 23.9 19.6 24.8 16.95 27.2 M26.8 51.9 L26.0 48.7 26.0 48.6 33.25 47.5 33.75 47.6 34.45 47.6 29.0 52.75 26.8 51.9 M28.6 36.3 L28.6 36.25 28.5 35.65 33.25 40.25 33.1 40.4 28.6 36.3" fill="#535e7c" fill-rule="evenodd" stroke="none"/>
      <path d="M6.1 7.2 L7.5 6.95 6.95 8.0 6.9 8.1 6.9 8.15 6.85 8.2 7.05 8.5 7.2 8.85 7.5 8.9 7.35 9.1 7.7 9.7 8.6 11.4 8.35 12.3 7.35 12.15 6.9 12.1 5.2 11.8 5.2 11.3 Q5.2 9.35 5.5 8.2 L5.55 8.05 5.9 7.2 6.1 7.2 M9.35 5.85 Q9.6 5.6 9.85 5.5 L9.8 6.05 9.35 5.85 M8.25 9.15 L8.25 9.2 8.2 9.25 8.15 9.1 8.25 9.15 M7.35 9.1 L7.2 8.85 7.35 9.1" fill="#2e2d3f" fill-rule="evenodd" stroke="none"/>
      <path d="M4.85 8.05 L4.9 8.05 5.5 8.2 Q5.2 9.35 5.2 11.3 L5.2 11.8 4.25 11.65 4.3 11.5 4.4 11.05 4.85 8.05" fill="#677288" fill-rule="evenodd" stroke="none"/>
      <path d="M0.1 14.6 Q1.1 12.9 1.85 12.05 L1.9 11.9 1.5 10.65 Q2.25 9.9 3.1 9.25 4.2 8.35 4.85 8.05 L4.4 11.05 4.3 11.5 4.25 11.65 4.0 13.45 4.6 15.35 4.65 15.45 4.65 15.5 4.9 16.25 4.9 16.5 4.9 16.7 5.0 17.6 5.05 17.9 2.25 19.8 1.55 20.3 1.5 20.25 0.85 19.55 1.25 18.4 0.9 17.55 0.55 16.45 0.05 16.8 -0.1 16.95 0.1 14.6" fill="#6c7a95" fill-rule="evenodd" stroke="none"/>
      <path d="M4.25 11.65 L5.2 11.8 6.9 12.1 8.9 16.7 6.6 16.7 5.0 16.7 4.9 16.7 4.9 16.5 4.9 16.25 4.65 15.5 4.65 15.45 4.6 15.35 4.0 13.45 4.25 11.65" fill="#545f7b" fill-rule="evenodd" stroke="none"/>
      <path d="M9.85 5.5 Q10.2 5.2 10.5 5.05 L10.95 5.05 13.95 5.5 14.65 8.35 14.25 8.15 13.8 7.9 13.7 7.85 13.6 7.75 12.5 7.3 12.15 7.1 Q11.5 6.75 10.85 6.5 L10.65 6.45 10.0 6.15 9.8 6.05 9.85 5.5 M14.3 12.45 L14.25 12.55 14.25 12.45 14.3 12.45 M14.5 12.35 L14.5 12.3 14.6 12.35 14.5 12.35 M14.95 12.15 L14.95 12.1 15.3 12.45 14.95 12.2 14.95 12.15 M9.95 14.0 L10.3 14.6 11.35 16.75 10.75 16.7 9.85 16.6 9.85 16.65 9.85 16.7 8.9 16.7 6.9 12.1 7.35 12.15 8.35 12.3 8.6 11.4 8.65 11.5 9.2 12.55 9.5 13.15 9.95 14.0" fill="#3b435a" fill-rule="evenodd" stroke="none"/>
      <path d="M-1.4 17.95 L-1.4 17.2 -0.9 16.4 -0.7 16.9 -0.55 17.25 -1.4 17.95 M0.55 20.55 L0.75 19.95 0.85 19.55 1.5 20.25 1.55 20.3 0.3 21.2 0.55 20.55" fill="#3d4a5b" fill-rule="evenodd" stroke="none"/>
      <path d="M55.35 38.85 L55.35 42.7 52.15 43.65 Q51.75 43.8 51.5 44.0 L51.45 43.65 49.9 40.7 49.5 40.2 49.2 39.85 49.05 39.6 48.3 40.0 47.7 39.7 49.55 36.3 47.7 39.7 47.6 39.65 47.65 39.6 48.4 38.25 49.55 36.3 49.9 35.65 49.95 35.55 50.0 35.55 50.0 35.5 50.05 35.4 50.2 35.0 50.05 35.4 50.05 35.25 50.2 35.0 50.85 34.25 50.95 34.15 51.0 34.1 52.3 34.6 53.0 34.8 54.85 35.35 54.15 38.65 54.35 38.7 55.25 38.85 55.35 38.85 M51.75 33.1 L52.4 32.4 53.75 30.55 53.8 30.5 53.8 30.55 53.75 30.55 53.8 30.55 Q53.7 31.6 54.05 32.1 L55.25 33.3 54.9 34.9 54.55 34.7 52.85 34.2 52.15 34.0 51.25 33.75 51.2 33.75 51.75 33.1 51.25 33.75 51.75 33.1 M49.9 35.65 L50.0 35.55 49.9 35.65" fill="#3d4258" fill-rule="evenodd" stroke="none"/>
      <path d="M42.8 2.05 L43.0 2.95 42.95 3.0 42.85 3.0 42.8 3.05 42.0 3.55 42.15 3.2 42.8 2.05" fill="#63718e" fill-rule="evenodd" stroke="none"/>
      <path d="M43.2 15.3 L43.5 15.75 43.8 16.1 43.5 16.65 43.35 17.05 41.95 19.3 41.8 18.85 Q41.45 18.95 41.05 19.55 L40.6 20.05 40.25 20.7 40.2 20.1 40.35 19.9 40.6 19.3 43.2 15.3 M43.65 21.2 L43.7 21.55 43.95 21.85 43.95 21.95 43.8 22.05 43.4 22.4 42.4 23.2 41.9 23.55 41.85 23.3 41.85 23.2 41.45 23.35 41.1 23.55 40.7 23.8 40.6 23.85 40.35 24.05 40.2 24.2 39.85 24.5 39.3 24.9 38.0 25.4 38.05 25.35 39.5 24.25 39.95 23.9 40.45 23.6 40.5 23.55 40.85 23.35 40.9 23.3 43.65 21.2 M29.65 11.1 L29.9 11.2 30.25 13.45 29.9 12.0 29.8 11.7 29.65 11.4 29.65 11.1" fill="#656e8d" fill-rule="evenodd" stroke="none"/>
      <path d="M26.85 -1.4 L27.65 -1.4 27.5 -0.75 26.85 -1.4" fill="#3a4056" fill-rule="evenodd" stroke="none"/>
      <path d="M21.0 18.7 L21.05 18.9 21.5 20.3 21.5 20.35 21.55 20.6 21.45 20.45 21.0 19.8 20.45 19.75 20.4 19.65 20.25 19.1 20.05 18.45 21.0 18.7 M21.05 18.9 L21.45 20.45 21.05 18.9" fill="#3f455f" fill-rule="evenodd" stroke="none"/>
      <path d="M21.0 3.65 L22.15 5.75 24.2 9.0 24.2 9.3 21.65 9.85 Q20.1 10.1 19.15 10.6 L17.35 5.05 17.25 4.8 17.25 4.7 18.25 4.3 20.4 3.65 20.4 3.7 21.0 3.65" fill="#84320d" fill-rule="evenodd" stroke="none"/>
      <path d="M19.05 -1.4 L20.0 -1.4 20.2 0.95 20.25 1.25 20.25 1.5 20.3 2.55 20.35 2.9 18.4 3.25 17.35 3.55 17.6 0.2 17.75 0.0 19.05 -1.4" fill="#c06b32" fill-rule="evenodd" stroke="none"/>
      <path d="M20.35 2.9 L20.3 2.55 20.25 1.5 20.25 1.25 21.15 2.7 21.25 2.9 21.55 3.3 23.55 6.25 24.4 7.7 24.35 8.25 24.25 8.85 24.2 9.0 22.15 5.75 21.0 3.65 20.6 3.0 20.55 2.9 20.35 2.9" fill="#fff18e" fill-rule="evenodd" stroke="none"/>
      <path d="M25.85 48.1 L25.35 48.1 23.35 42.2 Q23.15 41.95 23.55 41.3 L24.25 41.35 25.85 48.1 M23.05 40.8 L27.8 36.05 27.4 30.1 27.4 30.0 27.3 29.8 27.35 29.8 27.25 29.65 27.65 30.0 27.75 30.15 28.5 35.65 28.6 36.25 28.6 36.3 24.25 41.35 23.05 40.8" fill="#c4e6ff" fill-rule="evenodd" stroke="none"/>
      <path d="M55.35 42.7 L55.35 50.25 51.75 49.0 50.7 48.6 50.45 48.5 48.95 47.9 47.0 46.85 47.2 46.1 47.8 44.1 46.6 41.75 47.7 39.7 48.3 40.0 49.05 39.6 49.2 39.85 49.5 40.2 49.9 40.7 51.45 43.65 51.5 44.0 Q51.75 43.8 52.15 43.65 L55.35 42.7 M45.3 39.9 L45.3 39.85 46.2 38.35 47.25 36.5 49.5 32.85 50.2 31.75 50.35 31.45 50.95 30.8 51.05 30.75 51.1 30.8 51.15 31.2 51.2 31.3 51.6 32.55 51.75 33.1 51.2 33.75 51.1 33.9 51.05 33.95 51.0 34.1 50.95 34.15 50.85 34.25 50.2 35.0 50.05 35.25 50.05 35.4 50.0 35.5 50.0 35.55 49.95 35.55 49.9 35.65 49.55 36.3 48.4 38.25 47.65 39.6 47.6 39.65 46.95 40.8 46.5 41.6 45.6 40.25 45.3 39.9 M41.35 32.25 L41.85 32.55 Q41.35 33.15 41.0 34.6 L40.85 35.25 40.75 36.25 40.85 36.35 41.35 36.9 42.4 37.9 Q42.7 38.0 43.15 37.55 L44.3 36.1 45.8 34.4 Q46.15 33.95 46.95 34.1 L47.7 34.2 46.45 36.05 45.05 38.3 45.0 38.4 44.85 38.7 44.5 39.35 Q43.0 38.45 39.95 38.15 L39.25 37.05 39.3 36.95 39.4 36.8 40.3 34.5 40.95 33.05 41.0 32.95 41.35 32.25 M36.5 28.25 L38.0 28.3 38.05 28.2 38.3 28.8 38.25 28.8 37.9 29.05 36.5 29.3 36.4 29.45 36.5 28.25 M37.25 31.3 L37.3 31.1 37.35 31.25 37.25 31.3 M38.4 30.65 L38.2 30.8 38.15 30.25 38.4 30.65 M39.6 43.35 L39.7 43.4 39.55 43.5 39.6 43.35" fill="#2c2b3d" fill-rule="evenodd" stroke="none"/>
      <path d="M55.35 25.5 L55.35 26.4 54.6 26.9 53.85 27.5 50.95 29.85 51.6 27.55 51.6 27.35 52.1 25.65 52.15 25.35 53.75 25.5 55.05 25.5 55.35 25.5 M1.4 55.4 L-1.4 55.4 -1.4 53.85 Q0.05 54.45 1.3 55.35 L1.4 55.4 M41.85 32.55 L43.85 31.75 44.1 31.8 45.0 31.9 45.05 32.65 45.1 32.95 45.2 32.65 46.2 32.7 47.9 32.75 48.65 32.75 47.7 34.2 46.95 34.1 Q46.15 33.95 45.8 34.4 L44.3 36.1 43.15 37.55 Q42.7 38.0 42.4 37.9 L41.35 36.9 40.85 36.35 40.75 36.25 40.85 35.25 41.0 34.6 Q41.35 33.15 41.85 32.55" fill="#41475d" fill-rule="evenodd" stroke="none"/>
      <path d="M47.65 12.15 L48.05 12.25 48.2 12.3 50.45 14.9 51.05 15.6 53.65 18.35 55.35 20.15 55.35 23.4 55.05 23.25 54.95 23.2 54.9 23.2 53.2 22.55 52.45 21.4 51.95 21.15 50.6 20.45 50.45 19.1 50.25 18.2 50.25 18.15 50.0 17.75 49.75 17.25 48.8 15.0 48.3 13.9 47.65 12.15 M55.35 26.4 L55.35 27.05 54.25 28.0 54.15 28.05 53.35 28.8 53.3 28.8 51.05 30.75 50.95 30.8 50.35 31.45 50.2 31.75 49.5 32.85 47.25 36.5 46.2 38.35 45.3 39.85 45.3 39.9 44.5 39.35 44.85 38.7 45.0 38.4 45.05 38.3 46.45 36.05 47.7 34.2 48.65 32.75 47.9 32.75 46.2 32.7 45.2 32.65 45.05 32.65 45.0 31.9 44.1 31.8 43.85 31.75 41.85 32.55 41.35 32.25 41.95 31.0 43.6 28.2 43.65 28.15 44.0 27.7 44.85 27.0 45.0 26.85 45.0 26.8 46.15 26.0 46.2 25.9 Q47.95 24.8 49.8 24.1 50.9 23.55 51.5 23.35 L51.6 23.3 51.8 24.35 51.85 24.4 51.85 24.5 52.05 25.35 52.1 25.65 51.6 27.35 51.6 27.55 50.95 29.85 53.85 27.5 54.6 26.9 55.35 26.4" fill="#667393" fill-rule="evenodd" stroke="none"/>
      <path d="M55.35 27.05 L55.35 29.5 54.15 30.4 53.8 30.55 53.8 30.5 53.75 30.55 52.4 32.4 51.75 33.1 51.6 32.55 51.2 31.3 51.15 31.2 51.1 30.8 51.05 30.75 53.3 28.8 53.35 28.8 54.15 28.05 54.25 28.0 55.35 27.05 M42.5 25.9 L43.85 27.5 44.0 27.7 43.65 28.15 43.6 28.2 41.95 31.0 40.4 31.45 41.7 28.3 Q40.6 28.0 39.5 28.3 L38.55 28.65 Q38.45 28.75 38.3 28.8 L38.05 28.2 38.2 27.75 39.05 27.45 39.2 27.35 40.35 26.7 40.6 26.65 40.65 26.65 40.95 26.65 41.5 26.45 42.5 25.9" fill="#3f455d" fill-rule="evenodd" stroke="none"/>
      <path d="M55.35 29.5 L55.35 33.4 55.25 33.3 54.05 32.1 Q53.7 31.6 53.8 30.55 L54.15 30.4 55.35 29.5" fill="#6c738d" fill-rule="evenodd" stroke="none"/>
      <path d="M55.35 33.4 L55.35 35.0 54.9 34.9 55.25 33.3 55.35 33.4" fill="#6a799a" fill-rule="evenodd" stroke="none"/>
      <path d="M55.35 35.0 L55.35 38.85 55.25 38.85 54.35 38.7 54.15 38.65 54.85 35.35 53.0 34.8 52.3 34.6 51.0 34.1 51.05 33.95 51.1 33.9 51.2 33.75 51.25 33.75 52.15 34.0 52.85 34.2 54.55 34.7 54.9 34.9 55.35 35.0 M51.25 33.75 L51.1 33.9 51.25 33.75" fill="#6f7c9c" fill-rule="evenodd" stroke="none"/>
      <path d="M55.35 51.7 L55.35 54.6 55.2 55.4 53.8 55.4 53.9 53.55 54.05 52.7 55.15 51.85 55.35 51.7 M46.5 41.6 L46.95 40.8 47.6 39.65 47.7 39.7 46.6 41.75 46.5 41.6 M51.0 53.35 L49.1 53.5 48.6 53.55 48.45 53.55 46.65 53.6 46.45 53.6 46.65 53.55 46.95 53.5 48.75 52.8 49.3 52.45 Q49.8 51.9 49.45 51.25 L49.4 51.15 49.25 50.9 48.75 50.4 Q48.3 49.95 47.55 50.1 46.95 50.2 46.7 50.45 L46.45 50.8 46.55 49.75 48.45 49.55 Q49.25 49.5 49.8 50.1 L49.9 50.2 50.25 50.7 Q50.75 51.65 51.0 53.35" fill="#313443" fill-rule="evenodd" stroke="none"/>
      <path d="M51.05 33.95 L51.0 34.1 51.05 33.95" fill="#2d3343" fill-rule="evenodd" stroke="none"/>
      <path d="M55.35 50.25 L55.35 51.7 55.15 51.85 54.05 52.7 53.9 53.55 53.8 55.4 51.25 53.5 51.0 53.35 Q50.75 51.65 50.25 50.7 L49.9 50.2 49.8 50.1 Q49.25 49.5 48.45 49.55 L46.55 49.75 46.65 48.5 46.65 47.95 47.0 46.85 48.95 47.9 50.45 48.5 50.7 48.6 51.75 49.0 55.35 50.25 M55.35 54.6 L55.35 55.4 55.2 55.4 55.35 54.6 M46.45 50.8 L46.7 50.45 Q46.95 50.2 47.55 50.1 48.3 49.95 48.75 50.4 L49.25 50.9 49.4 51.15 49.45 51.25 Q49.8 51.9 49.3 52.45 L48.75 52.8 46.95 53.5 46.65 53.55 46.45 53.6 45.4 53.7 45.5 53.4 46.25 53.55 46.25 53.3 46.25 53.05 46.45 50.8" fill="#3d3b49" fill-rule="evenodd" stroke="none"/>
      <path d="M-1.4 34.05 L-1.4 33.65 -1.1 33.5 0.05 32.95 0.1 32.9 0.5 32.65 -1.4 34.05" fill="#3b4658" fill-rule="evenodd" stroke="none"/>
      <path d="M-1.4 41.25 L-1.4 40.7 -1.0 40.7 -1.4 41.25" fill="#333649" fill-rule="evenodd" stroke="none"/>
      <path d="M-1.4 33.65 L-1.4 31.35 -0.55 31.15 -0.2 31.1 0.25 31.0 0.55 30.95 0.65 30.95 1.45 30.8 2.5 30.6 3.95 30.45 3.65 30.85 1.5 32.1 1.05 32.4 0.95 32.45 0.8 32.5 0.75 32.5 0.55 32.65 0.5 32.65 0.1 32.9 0.05 32.95 -1.1 33.5 -1.4 33.65" fill="#343748" fill-rule="evenodd" stroke="none"/>
      <path d="M-1.4 31.35 L-1.4 30.2 -1.15 29.55 -0.7 28.35 -0.7 28.3 -0.6 28.05 -0.45 27.65 -0.2 26.85 -0.05 26.6 0.0 26.45 1.55 22.35 1.75 22.35 1.85 22.35 2.1 22.35 0.9 27.0 0.8 27.2 0.75 27.65 0.4 28.8 Q0.25 29.25 0.25 29.6 L0.1 29.85 0.0 30.3 -0.2 31.1 -0.55 31.15 -1.4 31.35" fill="#9badc5" fill-rule="evenodd" stroke="none"/>
      <path d="M-1.4 23.55 L-1.4 17.95 -0.55 17.25 -0.5 17.25 -0.1 16.95 0.05 16.8 0.55 16.45 0.9 17.55 1.25 18.4 0.85 19.55 0.75 19.95 0.55 20.55 -0.2 21.7 0.55 20.55 0.3 21.2 1.55 20.3 2.25 19.8 5.05 17.9 Q5.85 17.35 6.35 17.1 L7.1 18.85 7.75 20.35 7.95 20.75 2.1 22.35 1.85 22.35 1.75 22.35 1.55 22.35 1.15 22.15 0.7 21.95 -0.2 21.7 -1.1 23.05 -1.4 23.55 M-1.4 13.8 L-1.4 6.9 -1.35 6.85 0.15 6.5 0.65 8.0 0.9 8.8 1.5 10.65 1.9 11.9 1.85 12.05 0.4 12.85 -1.4 13.8" fill="#a0b7c9" fill-rule="evenodd" stroke="none"/>
      <path d="M9.95 25.75 L9.95 26.0 9.9 26.0 9.9 25.75 9.95 25.75 M9.75 25.7 L9.6 26.15 5.15 28.05 5.05 28.05 6.2 25.65 7.7 25.65 9.75 25.7" fill="#3d4558" fill-rule="evenodd" stroke="none"/>
      <path d="M38.85 55.4 L36.45 55.4 36.35 55.3 36.1 55.4 31.5 55.4 31.15 54.6 Q30.4 53.3 29.0 52.75 L34.45 47.6 35.35 47.65 38.1 47.8 38.85 47.8 38.9 47.8 42.35 49.6 42.55 49.75 42.1 50.85 41.55 52.1 38.85 55.4 36.35 55.3 38.85 55.4 M-1.4 51.45 L-1.4 46.8 0.9 47.4 0.4 48.05 0.05 48.0 -0.55 49.25 -0.6 49.45 -1.3 51.45 -1.4 51.45 M30.3 5.4 L30.65 2.05 32.05 2.85 32.8 3.25 33.2 3.45 33.95 3.9 36.75 5.25 37.1 5.7 37.15 6.2 37.15 6.85 36.75 7.7 35.7 9.85 34.45 12.3 33.2 14.55 31.8 17.2 31.1 17.75 30.9 16.8 30.85 16.65 30.25 13.45 29.9 11.2 29.8 10.25 30.0 8.4 30.05 8.0 30.15 6.8 30.3 5.45 30.3 5.4 M-0.9 38.0 L-0.95 38.05 -1.0 38.0 -0.9 38.0 M39.55 17.25 L40.55 11.8 40.8 11.8 Q42.1 12.65 42.75 13.95 L43.2 15.15 43.2 15.25 43.2 15.3 40.6 19.3 40.35 19.9 40.2 20.1 40.1 19.55 39.55 17.25 M43.55 17.9 L43.6 18.9 43.6 18.95 43.65 20.65 43.65 20.8 43.65 20.9 43.65 21.15 43.65 21.2 40.9 23.3 40.85 23.35 40.5 23.55 40.45 23.6 39.95 23.9 39.5 24.25 38.05 25.35 38.45 24.85 38.85 24.3 39.3 23.7 40.0 22.8 40.4 22.25 40.35 21.35 40.45 21.2 41.55 20.05 42.15 19.45 42.2 19.4 43.55 17.9 M38.0 25.4 L39.3 24.9 39.9 24.7 39.9 24.85 39.75 25.15 39.4 26.45 39.05 27.45 38.2 27.75 38.05 28.2 38.0 28.3 36.5 28.25 36.2 28.25 35.35 28.2 35.2 28.2 34.95 28.2 34.95 28.15 35.0 28.15 35.1 27.9 36.3 27.25 36.75 26.9 38.0 25.4 M10.55 33.75 L14.0 41.5 16.8 46.35 17.15 46.9 18.8 42.6 21.9 41.95 22.5 41.9 23.35 42.2 25.35 48.1 25.85 48.1 26.0 48.6 26.0 48.7 26.8 51.9 24.95 51.05 23.0 53.05 19.9 51.2 14.95 48.2 14.6 47.75 14.45 47.85 Q10.0 43.35 6.2 38.4 L7.1 37.15 7.6 34.4 7.75 36.3 10.35 33.5 10.55 33.75 M25.3 48.15 L25.35 48.1 25.15 48.2 24.05 48.95 25.3 48.15 M9.95 26.0 L10.0 26.85 9.9 26.9 9.9 26.0 9.95 26.0 M5.05 28.05 L5.15 28.05 9.6 26.15 9.1 27.3 7.1 28.15 5.2 29.1 5.15 29.15 5.05 28.8 4.9 28.4 5.05 28.05 M33.85 49.4 L34.45 48.05 34.45 47.6 Q33.95 48.5 33.85 49.4 L33.3 50.65 34.2 51.8 33.85 50.55 33.85 49.4 M35.55 53.55 L34.2 51.8 34.3 52.2 Q34.85 53.5 35.55 54.55 L35.85 54.4 36.1 54.2 40.2 51.65 40.15 51.25 38.65 48.5 36.7 53.15 35.55 53.55 M38.65 48.5 L38.65 48.45 38.6 48.4 38.65 48.5" fill="#3d435b" fill-rule="evenodd" stroke="none"/>
      <path d="M9.0 55.4 L6.65 55.4 5.8 54.95 5.55 54.7 5.0 54.2 3.0 52.1 3.5 51.25 3.6 50.95 3.65 50.9 4.25 49.95 5.35 48.95 5.3 48.95 5.6 48.6 4.6 48.3 4.1 48.2 1.15 47.45 0.9 47.4 -1.4 46.8 -1.4 44.95 1.0 45.8 1.9 46.15 2.25 45.4 2.25 45.35 1.65 45.1 2.1 44.2 2.15 44.1 Q2.25 43.05 1.9 42.1 L1.85 41.9 1.75 41.7 1.25 41.1 Q1.1 40.9 0.8 40.9 L1.05 39.2 2.0 36.6 2.35 36.1 4.0 33.6 5.05 31.65 5.6 32.75 6.1 33.5 7.2 34.05 6.2 38.4 Q10.0 43.35 14.45 47.85 L14.6 47.75 14.95 48.2 19.9 51.2 18.75 52.95 18.4 53.55 17.45 54.55 16.05 54.65 15.95 54.65 12.95 54.95 11.8 55.1 9.55 54.7 9.5 54.7 9.65 55.35 9.0 55.4 M14.45 47.85 L14.95 48.2 14.45 47.85" fill="#2e2f41" fill-rule="evenodd" stroke="none"/>
      <path d="M24.4 55.4 L12.55 55.4 12.35 55.2 12.3 55.2 11.9 55.1 11.8 55.1 12.95 54.95 15.95 54.65 16.05 54.65 17.45 54.55 18.4 53.55 18.75 52.95 19.9 51.2 23.0 53.05 24.4 55.4 M9.65 55.4 L9.0 55.4 9.65 55.35 9.65 55.4 M25.35 48.1 L25.3 48.15 25.15 48.2 25.35 48.1 M3.0 52.1 L5.0 54.2 5.55 54.7 5.8 54.95 4.45 54.2 2.4 53.25 3.0 52.1" fill="#3b4358" fill-rule="evenodd" stroke="none"/>
      <path d="M-1.4 43.7 L-1.4 41.25 -1.0 40.7 -0.7 40.25 -0.8 39.3 -0.95 38.05 -0.9 38.0 1.25 37.1 1.4 37.0 1.85 36.8 2.0 36.6 1.05 39.2 0.8 40.9 Q1.1 40.9 1.25 41.1 L1.75 41.7 1.85 41.9 1.9 42.1 Q2.25 43.05 2.15 44.1 L2.1 44.2 1.65 45.1 -1.4 43.7 M5.15 29.15 L5.2 29.1 5.2 29.6 5.15 29.15 M5.25 30.05 L5.25 30.5 5.2 30.65 5.25 30.05" fill="#687892" fill-rule="evenodd" stroke="none"/>
      <path d="M-1.4 44.95 L-1.4 43.7 1.65 45.1 1.5 45.2 1.0 45.8 -1.4 44.95" fill="#647a8f" fill-rule="evenodd" stroke="none"/>
      <path d="M-0.55 49.25 L-0.5 49.3 0.15 49.5 1.25 49.95 3.05 50.65 2.5 51.5 1.45 52.75 -1.3 51.45 -0.6 49.45 -0.55 49.25" fill="#2a2d3e" fill-rule="evenodd" stroke="none"/>
      <path d="M-0.5 49.3 L-0.55 49.25 0.05 48.0 0.4 48.05 -0.5 49.3" fill="#42485e" fill-rule="evenodd" stroke="none"/>
      <path d="M3.05 50.65 L1.25 49.95 0.15 49.5 -0.5 49.3 0.4 48.05 0.9 47.4 1.15 47.45 4.1 48.2 4.6 48.3 5.6 48.6 5.3 48.95 4.95 48.8 4.05 48.7 3.05 50.65" fill="#2f3044" fill-rule="evenodd" stroke="none"/>
      <path d="M1.65 45.1 L2.25 45.35 2.25 45.4 1.9 46.15 1.0 45.8 1.5 45.2 1.65 45.1" fill="#556074" fill-rule="evenodd" stroke="none"/>
      <path d="M43.95 55.4 L40.6 55.4 41.15 54.8 43.0 53.05 44.3 53.25 43.95 55.4" fill="#3a4255" fill-rule="evenodd" stroke="none"/>
      <path d="M45.05 49.4 L45.25 49.25 45.1 49.5 45.05 49.4 M45.5 53.4 L45.4 53.7 46.45 53.6 46.65 53.6 46.35 53.85 44.85 55.05 43.95 55.4 44.3 53.25 45.5 53.4" fill="#565c7c" fill-rule="evenodd" stroke="none"/>
      <path d="M20.5 -1.4 L24.35 -1.4 24.45 -0.7 24.55 -0.2 24.05 -0.7 23.3 0.55 23.25 0.6 23.2 0.7 22.8 1.55 22.4 1.1 22.15 0.75 21.65 0.1 21.55 0.0 20.9 -0.8 20.5 -1.4 M47.65 55.4 L43.95 55.4 44.85 55.05 46.35 53.85 46.65 53.6 48.45 53.55 47.65 55.4" fill="#6c7797" fill-rule="evenodd" stroke="none"/>
      <path d="M26.3 -1.4 L26.85 -1.4 27.5 -0.75 27.5 -0.55 26.3 -1.4 M51.25 53.5 L50.3 55.4 48.3 55.4 49.1 53.5 51.0 53.35 51.25 53.5 M6.65 55.4 L2.5 55.4 -1.4 53.85 -1.4 51.45 -1.3 51.45 1.45 52.75 2.4 53.25 4.45 54.2 5.8 54.95 6.65 55.4" fill="#687391" fill-rule="evenodd" stroke="none"/>
      <path d="M30.1 6.4 L30.15 6.8 30.05 8.0 30.0 7.95 29.95 7.75 29.95 7.35 30.1 6.4 M31.05 17.75 L30.95 17.2 30.9 16.8 31.1 17.75 31.05 17.75" fill="#2d2c3e" fill-rule="evenodd" stroke="none"/>
      <path d="M30.4 -1.4 L30.85 -1.4 30.65 -0.6 29.9 2.65 29.95 2.9 30.2 4.7 30.3 5.4 30.3 5.45 30.15 6.8 30.1 6.4 30.0 6.2 29.85 5.0 29.55 3.25 27.3 2.45 27.25 2.4 27.15 2.4 27.15 2.3 26.85 2.05 26.9 1.75 29.5 2.5 30.4 -1.4 M12.35 55.4 L11.95 55.4 11.9 55.1 12.3 55.2 12.35 55.4" fill="#9faec1" fill-rule="evenodd" stroke="none"/>
      <path d="M27.65 -1.4 L30.4 -1.4 29.5 2.5 26.9 1.75 27.3 0.2 27.5 -0.55 27.5 -0.75 27.65 -1.4 M11.95 55.4 L9.65 55.4 9.65 55.35 9.5 54.7 9.55 54.7 11.8 55.1 11.9 55.1 11.95 55.4" fill="#4e5975" fill-rule="evenodd" stroke="none"/>
      <path d="M25.15 -1.4 L25.85 -1.4 25.7 -0.9 25.3 0.45 25.15 -1.2 25.15 -1.4" fill="#646f8b" fill-rule="evenodd" stroke="none"/>
      <path d="M25.85 -1.4 L26.3 -1.4 27.5 -0.55 27.3 0.2 26.9 1.75 26.85 2.05 26.35 1.45 25.3 0.5 25.3 0.45 25.7 -0.9 25.85 -1.4" fill="#3a4058" fill-rule="evenodd" stroke="none"/>
      <path d="M30.85 -1.4 L31.1 -1.4 30.95 -1.15 30.65 2.05 30.3 5.4 30.2 4.7 29.95 2.9 29.9 2.65 30.65 -0.6 30.85 -1.4 M12.55 55.4 L12.35 55.4 12.3 55.2 12.35 55.2 12.55 55.4" fill="#687192" fill-rule="evenodd" stroke="none"/>
      <path d="M38.2 13.2 L39.2 16.1 38.55 16.4 38.2 15.45 38.15 15.3 38.15 15.1 37.0 15.35 37.05 13.8 38.2 13.25 38.2 13.2" fill="#fff495" fill-rule="evenodd" stroke="none"/>
      <path d="M37.0 15.35 L38.15 15.1 38.15 15.3 36.95 16.05 32.95 18.45 32.8 18.3 36.55 15.55 36.85 15.45 37.0 15.35" fill="#e94719" fill-rule="evenodd" stroke="none"/>
      <path d="M38.15 15.3 L38.2 15.45 38.0 20.55 38.0 21.45 37.4 21.4 37.05 21.25 36.95 20.9 34.4 22.2 34.05 21.95 32.45 20.1 32.45 19.95 32.95 19.55 Q34.25 18.6 35.75 17.9 L36.3 17.65 36.9 17.4 36.95 16.05 38.15 15.3" fill="#24b3db" fill-rule="evenodd" stroke="none"/>
      <path d="M37.05 13.8 L37.0 15.35 36.85 15.45 36.75 15.45 36.55 15.55 32.8 18.3 32.75 18.4 32.9 17.75 33.2 16.1 35.25 14.8 35.25 14.75 37.05 13.8" fill="#fc8e37" fill-rule="evenodd" stroke="none"/>
      <path d="M32.95 18.45 L36.95 16.05 36.9 17.4 36.3 17.65 35.75 17.9 Q34.25 18.6 32.95 19.55 L32.45 19.95 32.35 20.05 31.85 20.55 31.3 19.8 31.3 19.55 31.45 19.5 31.5 19.45 32.75 18.6 32.95 18.45" fill="#20aacf" fill-rule="evenodd" stroke="none"/>
      <path d="M39.2 16.1 L39.35 16.4 39.55 17.25 40.1 19.55 40.2 20.1 40.25 20.7 40.35 21.35 40.4 22.25 40.0 22.8 39.9 21.75 39.9 21.45 39.7 20.85 39.7 20.8 39.3 18.9 39.2 18.7 38.55 16.4 39.2 16.1" fill="#db772b" fill-rule="evenodd" stroke="none"/>
      <path d="M40.0 22.8 L39.3 23.7 38.45 20.7 38.0 20.55 38.2 15.45 38.55 16.4 39.2 18.7 39.3 18.9 39.7 20.8 39.7 20.85 39.9 21.45 39.9 21.75 40.0 22.8" fill="#82ecfc" fill-rule="evenodd" stroke="none"/>
      <path d="M38.05 25.35 L38.0 25.4 36.75 26.9 36.3 27.25 35.1 27.9 34.9 28.0 34.55 27.1 33.5 24.55 34.5 22.75 35.2 22.4 36.5 25.85 37.9 23.65 36.9 21.55 37.4 21.4 38.0 21.45 38.85 24.3 38.45 24.85 38.05 25.35 M32.45 26.35 L32.9 25.65 33.2 26.35 34.15 28.25 34.2 28.3 34.05 28.45 32.45 26.35" fill="#2ad4eb" fill-rule="evenodd" stroke="none"/>
      <path d="M34.4 22.2 L36.95 20.9 37.05 21.25 37.4 21.4 36.9 21.55 35.2 22.4 34.5 22.75 33.5 24.55 32.9 25.65 32.45 26.35 32.45 25.9 33.5 23.2 34.5 22.75 34.5 22.35 34.4 22.2" fill="#98f3ff" fill-rule="evenodd" stroke="none"/>
      <path d="M36.9 21.55 L37.9 23.65 36.5 25.85 35.2 22.4 36.9 21.55" fill="#275577" fill-rule="evenodd" stroke="none"/>
      <path d="M34.05 21.95 L34.4 22.2 34.5 22.35 34.1 22.7 33.75 22.7 33.7 22.7 33.7 22.65 33.65 22.65 33.75 22.2 Q33.85 21.95 34.05 21.95" fill="#fcffff" fill-rule="evenodd" stroke="none"/>
      <path d="M32.45 20.1 L34.05 21.95 Q33.85 21.95 33.75 22.2 L33.65 22.65 31.9 20.55 31.85 20.55 32.35 20.05 32.45 20.1 M33.5 23.2 L33.7 22.7 33.75 22.7 34.1 22.7 34.5 22.35 34.5 22.75 33.5 23.2" fill="#84f2ff" fill-rule="evenodd" stroke="none"/>
      <path d="M30.1 25.65 L28.8 24.95 30.65 23.3 30.75 23.05 30.4 26.0 30.1 25.65 M34.55 27.1 L34.9 28.0 34.7 28.1 34.2 28.3 34.15 28.25 33.2 26.35 34.55 27.1" fill="#2c5d86" fill-rule="evenodd" stroke="none"/>
      <path d="M39.3 23.7 L38.85 24.3 38.0 21.45 38.0 20.55 38.45 20.7 39.3 23.7" fill="#efffff" fill-rule="evenodd" stroke="none"/>
      <path d="M31.8 17.2 L32.2 16.9 33.2 16.1 32.9 17.75 30.65 19.55 29.65 18.85 31.05 17.75 31.1 17.75 31.8 17.2" fill="#f03b0e" fill-rule="evenodd" stroke="none"/>
      <path d="M32.75 18.4 L32.75 18.6 31.5 19.45 31.45 19.5 31.3 19.55 31.3 19.8 31.3 19.85 30.75 19.6 30.65 19.55 32.9 17.75 32.75 18.4" fill="#ffa561" fill-rule="evenodd" stroke="none"/>
      <path d="M23.55 23.85 L23.6 23.35 24.85 25.2 24.95 25.3 25.05 25.4 25.1 25.5 25.05 25.35 28.65 25.65 28.7 25.8 29.65 27.4 31.6 27.45 30.85 28.5 30.65 28.5 30.4 28.45 30.15 28.4 29.65 28.35 29.45 28.3 29.35 28.3 29.25 28.3 28.7 27.5 28.25 26.9 27.5 26.8 27.0 26.65 26.0 26.5 24.85 26.3 24.55 26.2 24.3 26.15 24.05 25.6 24.0 25.35 23.9 25.2 23.85 25.0 23.45 24.1 23.5 23.9 23.55 23.85" fill="#3e5162" fill-rule="evenodd" stroke="none"/>
      <path d="M23.6 23.35 L23.95 23.2 24.15 23.2 24.3 23.2 25.05 25.35 24.95 25.3 24.85 25.2 23.6 23.35" fill="#a1bfd9" fill-rule="evenodd" stroke="none"/>
      <path d="M24.3 23.2 L24.8 23.2 24.9 23.25 26.1 24.0 27.85 24.9 28.5 25.2 28.65 25.65 25.05 25.35 24.3 23.2" fill="#607393" fill-rule="evenodd" stroke="none"/>
      <path d="M24.8 23.2 L25.35 23.15 26.5 23.05 27.5 24.0 28.2 24.55 28.75 24.95 28.8 24.95 30.1 25.65 29.3 25.4 29.25 25.4 28.5 25.2 27.85 24.9 26.1 24.0 24.9 23.25 24.8 23.2" fill="#41536b" fill-rule="evenodd" stroke="none"/>
      <path d="M31.3 19.85 L31.3 19.8 31.85 20.55 31.9 20.55 31.85 20.75 31.8 21.0 31.6 21.5 31.4 21.85 31.05 22.35 30.75 22.8 30.75 22.75 31.3 19.85" fill="#35bec6" fill-rule="evenodd" stroke="none"/>
      <path d="M29.45 20.45 L29.55 18.85 29.65 18.85 30.65 19.55 30.75 19.6 30.4 22.7 28.2 24.55 27.5 24.0 28.75 23.25 28.9 23.15 29.15 22.55 29.45 20.5 29.45 20.45" fill="#731c09" fill-rule="evenodd" stroke="none"/>
      <path d="M30.75 19.6 L31.3 19.85 30.75 22.75 30.4 22.7 30.75 19.6" fill="#ffe392" fill-rule="evenodd" stroke="none"/>
      <path d="M28.8 24.95 L28.75 24.95 28.2 24.55 30.4 22.7 30.75 22.75 30.75 22.8 30.75 23.0 30.75 23.05 30.65 23.3 28.8 24.95" fill="#e94015" fill-rule="evenodd" stroke="none"/>
      <path d="M28.5 25.2 L29.25 25.4 29.3 25.4 30.1 25.65 30.4 26.0 31.6 27.4 31.6 27.45 29.65 27.4 28.7 25.8 28.65 25.65 28.5 25.2" fill="#a0c9db" fill-rule="evenodd" stroke="none"/>
      <path d="M31.6 27.4 L31.85 27.55 32.45 26.35 34.05 28.45 33.55 28.65 33.3 28.8 31.8 29.45 31.45 29.0 31.0 28.55 30.85 28.5 31.6 27.45 31.6 27.4" fill="#186987" fill-rule="evenodd" stroke="none"/>
      <path d="M52.2 14.3 L52.55 14.15 52.6 14.15 Q53.45 15.45 55.35 17.1 L55.35 18.3 52.2 14.3" fill="#6b2d18" fill-rule="evenodd" stroke="none"/>
      <path d="M52.6 14.15 L53.0 14.1 53.05 14.1 53.1 14.15 53.2 14.35 53.25 14.35 54.9 15.6 55.2 16.0 55.35 15.95 55.35 17.1 Q53.45 15.45 52.6 14.15" fill="#cb5821" fill-rule="evenodd" stroke="none"/>
      <path d="M53.25 14.35 L54.05 14.0 54.15 14.2 54.6 15.0 54.9 15.6 53.25 14.35" fill="#8ae1ff" fill-rule="evenodd" stroke="none"/>
      <path d="M54.05 14.0 L54.45 13.85 54.65 13.8 54.8 13.8 55.0 13.65 55.35 13.6 55.35 15.95 54.9 15.6 55.35 15.95 55.2 16.0 54.9 15.6 54.6 15.0 54.15 14.2 54.05 14.0" fill="#34bfe6" fill-rule="evenodd" stroke="none"/>
      <path d="M41.85 4.0 L41.2 7.7 40.55 11.8 39.55 17.25 39.35 16.4 39.2 16.1 38.2 13.2 38.2 12.95 38.4 12.1 39.55 7.2 40.35 5.15 40.5 5.1 40.8 4.75 40.85 4.75 40.95 4.7 41.85 4.0 M37.25 5.6 L39.2 4.5 39.85 4.15 39.9 4.1 39.9 4.15 39.4 6.0 39.35 6.2 39.3 6.25 38.9 6.7 38.7 6.8 37.9 6.9 37.45 6.35 37.4 6.3 37.25 5.6" fill="#687693" fill-rule="evenodd" stroke="none"/>
      <path d="M55.35 23.4 L55.35 24.1 53.6 23.15 53.2 22.55 54.9 23.2 54.95 23.2 55.05 23.25 55.35 23.4" fill="#535c7b" fill-rule="evenodd" stroke="none"/>
      <path d="M39.15 36.8 L39.4 36.8 39.3 36.95 39.15 36.8" fill="#3e4055" fill-rule="evenodd" stroke="none"/>
      <path d="M13.6 22.7 L13.65 22.85 Q13.85 24.35 14.5 25.15 L14.95 25.6 15.6 26.2 16.1 26.75 16.4 27.0 10.5 24.85 13.5 22.8 13.6 22.7 M9.9 27.15 L10.55 33.75 10.35 33.5 7.75 36.3 7.6 34.4 8.7 30.3 9.35 27.9 8.85 27.75 9.1 27.3 9.6 26.15 9.75 25.7 9.9 25.35 9.9 25.4 9.9 25.75 9.9 26.0 9.9 26.9 9.9 27.15" fill="#3c425a" fill-rule="evenodd" stroke="none"/>
      <path d="M50.25 18.15 L50.25 18.2 50.45 19.1 50.6 20.45 50.6 20.7 50.2 20.6 47.35 20.35 47.25 20.35 47.25 20.3 46.95 17.9 46.9 17.9 46.8 17.4 46.7 16.95 46.7 16.9 48.75 17.6 50.25 18.15 M46.5 17.6 L46.55 17.9 47.15 20.3 45.4 20.35 45.55 20.0 46.5 17.6" fill="#4d526f" fill-rule="evenodd" stroke="none"/>
      <path d="M45.8 13.8 L45.7 13.35 45.9 13.05 47.65 14.15 48.8 15.0 49.75 17.25 50.0 17.75 50.25 18.15 48.75 17.6 46.7 16.9 46.95 16.2 46.95 16.15 46.95 16.1 45.8 13.8" fill="#666f8e" fill-rule="evenodd" stroke="none"/>
      <path d="M52.1 25.65 L52.05 25.35 52.15 25.35 52.1 25.65" fill="#3a4259" fill-rule="evenodd" stroke="none"/>
      <path d="M50.6 20.45 L51.95 21.15 51.75 21.6 51.2 21.75 50.75 21.85 48.8 22.15 47.55 22.35 45.15 22.75 44.4 22.8 43.5 23.0 43.8 22.8 44.25 22.55 44.65 22.2 45.15 21.1 45.4 20.35 47.15 20.3 47.25 20.35 47.35 20.35 50.2 20.6 50.6 20.7 50.6 20.45" fill="#9dadc7" fill-rule="evenodd" stroke="none"/>
      <path d="M42.25 23.6 L43.5 23.0 44.4 22.8 45.15 22.75 47.55 22.35 48.8 22.15 50.75 21.85 51.5 23.35 Q50.9 23.55 49.8 24.1 47.95 24.8 46.2 25.9 L46.15 26.0 45.0 26.8 45.0 26.85 44.85 27.0 44.0 27.7 43.85 27.5 42.5 25.9 43.25 25.15 43.2 24.2 43.1 23.4 42.25 23.6" fill="#6b7491" fill-rule="evenodd" stroke="none"/>
      <path d="M23.4 26.2 L23.4 25.75 23.8 25.45 Q23.85 25.35 24.0 25.35 L24.05 25.6 23.4 26.2 M33.7 22.7 L33.65 22.65 33.7 22.65 33.7 22.7 M19.4 35.15 L19.4 35.2 19.2 35.15 19.2 35.1 19.4 35.15 M36.2 28.25 L36.5 28.25 36.4 29.45 36.05 30.35 36.1 30.0 36.1 29.7 36.1 29.55 36.1 29.5 36.1 29.15 36.2 29.15 36.1 28.95 36.2 28.25 M30.4 28.9 L30.3 29.0 30.3 29.15 30.25 29.3 30.15 29.35 30.1 29.45 30.0 29.55 29.95 29.7 29.8 29.9 29.65 30.15 28.45 30.95 28.2 30.65 29.55 29.95 29.85 29.6 30.0 29.3 30.0 29.15 30.1 28.8 30.15 28.6 30.15 28.4 30.4 28.45 30.4 28.6 30.4 28.9 M29.45 28.3 L29.65 28.35 29.6 28.4 29.55 28.65 29.35 29.15 29.3 29.15 29.2 29.3 Q28.7 30.1 27.85 30.25 L27.75 30.15 27.65 30.0 27.75 30.0 29.0 29.1 29.15 28.95 29.15 28.85 29.4 28.45 29.45 28.3 M24.85 26.3 L24.55 26.55 24.5 26.7 24.25 27.3 24.2 27.4 24.2 27.8 Q24.2 28.2 24.5 28.7 L24.75 29.05 25.8 29.8 26.05 29.9 25.35 29.95 24.5 29.3 24.2 28.8 Q23.9 28.4 23.9 27.85 L23.9 27.5 24.0 27.2 24.25 26.55 24.3 26.5 24.55 26.2 24.85 26.3" fill="#1a1914" fill-rule="evenodd" stroke="none"/>
      <path d="M24.15 23.2 L24.8 22.4 25.3 23.05 25.35 23.15 24.8 23.2 24.3 23.2 24.15 23.2" fill="#241a23" fill-rule="evenodd" stroke="none"/>
      <path d="M23.4 26.55 L23.4 26.2 24.05 25.6 24.3 26.15 24.55 26.2 24.3 26.5 23.4 26.55 M23.4 25.75 L23.4 24.3 23.4 24.0 23.5 23.9 23.45 24.1 23.85 25.0 23.9 25.2 24.0 25.35 Q23.85 25.35 23.8 25.45 L23.4 25.75 M30.65 28.5 L30.4 28.9 30.4 28.6 30.4 28.45 30.65 28.5 M25.05 25.35 L25.1 25.5 25.05 25.4 24.95 25.3 25.05 25.35 M30.15 28.4 L30.15 28.6 30.1 28.8 30.0 29.15 30.0 29.3 29.55 28.65 29.6 28.4 29.65 28.35 30.15 28.4 M29.35 28.3 L29.45 28.3 29.4 28.45 29.35 28.3 M26.0 26.5 L25.7 26.65 24.55 26.55 24.85 26.3 26.0 26.5" fill="#332324" fill-rule="evenodd" stroke="none"/>
      <path d="M34.7 28.7 L34.75 28.7 34.6 29.0 34.7 29.35 34.8 29.65 35.25 29.65 Q35.85 29.4 35.85 28.9 L35.75 28.75 35.85 28.8 35.9 29.15 35.85 29.5 35.65 29.7 35.0 29.95 Q34.45 29.95 34.45 29.35 34.45 28.95 34.7 28.7 M35.85 28.8 L35.85 28.7 35.2 28.2 35.35 28.2 35.85 28.6 36.1 28.95 36.2 29.15 36.1 29.15 35.85 28.8 M34.95 28.2 L35.35 28.5 34.9 28.35 34.75 28.35 34.65 28.35 34.6 28.35 34.5 28.35 33.75 28.65 33.6 28.9 33.4 29.3 33.4 29.5 33.5 30.15 33.6 30.25 Q33.9 30.65 34.7 30.7 L34.9 30.7 35.1 30.7 35.6 30.4 35.95 30.0 35.95 30.1 35.6 30.45 34.95 30.85 34.6 30.9 34.2 30.9 33.55 30.3 33.45 30.25 33.4 30.3 33.2 29.5 Q33.2 29.15 33.35 28.95 L33.55 28.65 34.05 28.45 34.2 28.3 34.7 28.1 34.95 28.15 34.95 28.2 M34.6 28.45 L34.5 28.5 34.45 28.5 34.0 29.0 33.95 29.15 34.0 29.15 Q33.85 29.5 34.1 29.85 L34.6 30.15 35.1 30.25 35.7 29.9 35.75 29.8 36.1 29.5 36.1 29.55 36.1 29.7 35.9 30.0 Q35.6 30.45 34.95 30.45 L34.75 30.45 34.15 30.2 33.85 29.9 33.75 29.4 33.95 28.95 33.95 28.9 Q34.25 28.5 34.5 28.45 L34.6 28.45 M28.15 27.55 L28.15 27.5 28.0 27.2 27.85 27.1 27.5 26.8 28.25 26.9 28.7 27.5 28.7 27.7 28.65 28.05 28.5 28.3 28.5 28.4 28.45 28.5 27.75 29.15 27.35 29.15 26.7 29.15 26.45 29.1 26.25 28.95 25.6 28.45 25.55 28.3 25.25 27.5 25.25 27.3 Q25.3 26.9 25.7 26.65 L26.0 26.5 27.0 26.65 26.65 26.7 26.4 26.8 26.2 26.8 25.85 27.2 25.8 27.55 25.8 27.65 26.2 28.2 26.2 28.25 26.65 28.5 26.65 28.6 27.15 28.65 27.4 28.6 27.7 28.6 28.0 28.3 28.1 28.1 28.1 28.05 28.15 27.55" fill="#211310" fill-rule="evenodd" stroke="none"/>
      <path d="M35.85 28.8 L35.75 28.75 35.85 28.9 Q35.85 29.4 35.25 29.65 L34.8 29.65 34.7 29.35 34.6 29.0 34.75 28.7 34.7 28.7 34.5 28.5 34.6 28.45 34.6 28.35 34.65 28.35 34.75 28.35 34.9 28.35 35.35 28.5 34.95 28.2 35.2 28.2 35.85 28.7 35.85 28.8 M27.5 26.8 L27.85 27.1 28.0 27.2 28.15 27.5 28.15 27.55 28.05 27.8 27.95 27.9 27.5 27.9 27.35 27.4 Q27.15 27.25 26.8 27.25 26.5 27.25 26.45 27.4 26.25 27.5 26.2 27.75 L26.2 28.0 26.2 28.2 25.8 27.65 25.8 27.55 25.85 27.2 26.2 26.8 26.4 26.8 26.65 26.7 27.0 26.65 27.5 26.8" fill="#ce2e35" fill-rule="evenodd" stroke="none"/>
      <path d="M26.2 28.2 L26.2 28.0 26.2 27.75 Q26.25 27.5 26.45 27.4 26.5 27.25 26.8 27.25 27.15 27.25 27.35 27.4 L27.5 27.9 27.95 27.9 28.05 27.8 28.15 27.55 28.1 28.05 28.1 28.1 28.0 28.3 27.7 28.6 27.4 28.6 27.15 28.65 26.65 28.6 26.65 28.5 26.2 28.25 26.2 28.2" fill="#ff6a94" fill-rule="evenodd" stroke="none"/>
      <path d="M27.75 29.15 L28.45 28.5 28.5 28.4 28.5 28.3 28.65 28.05 28.7 27.7 28.7 27.5 29.25 28.3 29.35 28.3 29.4 28.45 29.15 28.85 29.15 28.95 29.0 29.1 27.75 30.0 27.75 29.15" fill="#512c33" fill-rule="evenodd" stroke="none"/>
      <path d="M25.55 28.3 L25.6 28.45 26.25 28.95 26.45 29.1 26.7 29.15 27.35 29.15 27.75 29.15 27.75 30.0 27.65 30.0 27.25 29.65 26.05 29.9 25.8 29.8 24.75 29.05 24.5 28.7 25.55 28.3" fill="#925250" fill-rule="evenodd" stroke="none"/>
      <path d="M30.3 29.15 L30.3 29.7 30.3 29.75 30.4 30.15 30.6 32.15 29.8 32.65 28.45 30.95 29.65 30.15 29.8 29.9 29.95 29.7 30.0 29.55 30.1 29.45 30.15 29.35 30.25 29.3 30.3 29.15" fill="#4e2930" fill-rule="evenodd" stroke="none"/>
      <path d="M30.65 28.5 L30.85 28.5 31.0 28.55 31.45 29.0 31.8 29.45 33.3 28.8 33.35 28.95 Q33.2 29.15 33.2 29.5 L33.4 30.3 30.6 32.15 30.4 30.15 30.3 29.75 30.3 29.7 30.3 29.15 30.3 29.0 30.4 28.9 30.65 28.5 M31.05 33.3 L30.95 33.3 31.0 33.2 31.05 33.3" fill="#31221b" fill-rule="evenodd" stroke="none"/>
      <path d="M30.0 29.3 L29.85 29.6 29.55 29.95 28.2 30.65 27.85 30.25 Q28.7 30.1 29.2 29.3 L29.3 29.15 29.35 29.15 29.55 28.65 30.0 29.3" fill="#42282b" fill-rule="evenodd" stroke="none"/>
      <path d="M25.25 27.3 L25.25 27.5 25.55 28.3 24.5 28.7 Q24.2 28.2 24.2 27.8 L24.2 27.4 24.55 27.3 24.75 27.3 25.25 27.3" fill="#4c2930" fill-rule="evenodd" stroke="none"/>
      <path d="M23.4 27.3 L23.4 26.55 24.3 26.5 24.25 26.55 24.0 27.2 23.9 27.5 23.4 27.55 23.4 27.3 M25.7 26.65 Q25.3 26.9 25.25 27.3 L24.75 27.3 24.55 27.3 24.2 27.4 24.25 27.3 24.5 26.7 24.55 26.55 25.7 26.65" fill="#302424" fill-rule="evenodd" stroke="none"/>
      <path d="M23.45 28.7 L23.4 27.55 23.9 27.5 23.9 27.85 Q23.9 28.4 24.2 28.8 L23.9 28.9 23.7 29.0 23.6 28.9 23.6 28.95 23.45 28.7" fill="#482a2a" fill-rule="evenodd" stroke="none"/>
      <path d="M24.2 28.8 L24.5 29.3 25.35 29.95 24.85 30.0 24.35 29.95 23.7 29.0 23.9 28.9 24.2 28.8" fill="#3a2632" fill-rule="evenodd" stroke="none"/>
      <path d="M19.6 35.15 L19.6 35.2 19.4 35.2 19.4 35.15 19.6 35.15" fill="#3b2321" fill-rule="evenodd" stroke="none"/>
      <path d="M34.9 28.0 L35.1 27.9 35.0 28.15 34.95 28.15 34.7 28.1 34.9 28.0 M34.7 28.7 Q34.45 28.95 34.45 29.35 34.45 29.95 35.0 29.95 L35.65 29.7 35.85 29.5 35.9 29.15 35.85 28.8 36.1 29.15 36.1 29.5 35.75 29.8 35.7 29.9 35.1 30.25 34.6 30.15 34.1 29.85 Q33.85 29.5 34.0 29.15 L33.95 29.15 34.0 29.0 34.45 28.5 34.5 28.5 34.7 28.7 M34.6 28.35 L34.6 28.45 34.5 28.45 Q34.25 28.5 33.95 28.9 L33.95 28.95 33.75 29.4 33.85 29.9 34.15 30.2 34.75 30.45 34.95 30.45 Q35.6 30.45 35.9 30.0 L36.1 29.7 36.1 30.0 35.95 30.0 35.6 30.4 35.1 30.7 34.9 30.7 34.7 30.7 Q33.9 30.65 33.6 30.25 L33.5 30.15 33.4 29.5 33.4 29.3 33.6 28.9 33.75 28.65 34.5 28.35 34.6 28.35 M36.2 28.25 L36.1 28.95 35.85 28.6 35.35 28.2 36.2 28.25 M33.35 28.95 L33.3 28.8 33.55 28.65 33.35 28.95" fill="#37202a" fill-rule="evenodd" stroke="none"/>
      <path d="M36.1 30.0 L36.05 30.35 35.3 32.0 34.85 31.5 34.2 30.9 34.6 30.9 34.95 30.85 35.6 30.45 35.95 30.1 35.95 30.0 36.1 30.0" fill="#453d3b" fill-rule="evenodd" stroke="none"/>
      <path d="M12.15 7.1 L13.2 8.35 13.4 8.85 13.8 10.1 13.85 10.35 14.05 11.0 14.05 11.2 14.1 11.3 14.1 11.35 14.15 11.6 13.85 11.25 13.75 11.1 13.65 11.0 12.05 8.85 10.6 6.9 10.5 6.7 10.0 6.15 10.65 6.45 10.85 6.5 Q11.5 6.75 12.15 7.1" fill="#d98221" fill-rule="evenodd" stroke="none"/>
      <path d="M7.5 6.95 L7.55 6.85 7.85 6.25 8.3 5.4 8.35 5.35 8.5 5.55 9.0 6.05 9.65 6.85 10.45 7.75 10.5 7.85 12.2 9.95 11.85 9.85 9.25 8.85 9.2 8.8 8.3 8.5 8.35 7.05 8.2 7.3 7.7 8.35 6.9 8.1 6.95 8.0 7.5 6.95" fill="#ac5c2b" fill-rule="evenodd" stroke="none"/>
      <path d="M8.35 5.35 L9.35 5.85 9.8 6.05 10.0 6.15 10.5 6.7 10.6 6.9 12.05 8.85 13.65 11.0 13.75 11.1 12.95 10.8 12.75 10.75 12.7 10.65 12.6 10.5 12.4 10.2 12.35 10.1 12.2 9.95 10.5 7.85 10.45 7.75 9.65 6.85 9.0 6.05 8.5 5.55 8.35 5.35" fill="#fff883" fill-rule="evenodd" stroke="none"/>
      <path d="M14.5 12.35 L14.3 12.45 14.25 12.45 14.25 12.3 14.15 11.6 14.1 11.35 14.1 11.3 14.05 11.2 14.05 11.0 13.85 10.35 13.8 10.1 13.4 8.85 13.2 8.35 12.15 7.1 12.5 7.3 13.6 7.75 13.7 7.85 13.8 7.9 13.8 8.15 14.0 9.0 14.1 9.35 14.45 10.55 14.65 11.15 14.8 11.6 14.8 11.75 14.85 11.85 14.95 12.1 14.95 12.15 14.6 12.35 14.5 12.3 14.5 12.35" fill="#444460" fill-rule="evenodd" stroke="none"/>
      <path d="M14.95 12.1 L14.85 11.85 14.8 11.75 14.8 11.6 14.65 11.15 14.45 10.55 14.1 9.35 14.0 9.0 13.8 8.15 13.8 7.9 14.25 8.15 14.65 8.35 14.7 8.4 Q14.9 8.5 14.95 8.55 L14.95 9.55 14.95 9.65 14.95 9.95 14.95 10.1 15.0 10.3 15.1 11.05 15.2 11.8 15.2 12.0 15.2 12.1 15.3 12.1 15.35 12.45 15.3 12.45 14.95 12.1" fill="#636983" fill-rule="evenodd" stroke="none"/>
      <path d="M27.15 14.25 L27.15 14.3 27.2 14.45 27.8 17.55 28.0 18.4 28.2 19.65 28.4 20.55 28.55 21.4 28.9 23.15 28.75 23.25 27.5 24.0 26.5 23.05 25.35 23.15 25.3 23.05 24.8 22.4 24.15 23.2 23.95 23.2 23.6 23.35 23.55 23.85 23.5 23.85 23.35 23.7 23.5 23.85 23.35 23.75 23.35 23.7 22.2 21.55 21.55 20.6 21.5 20.35 21.5 20.3 21.05 18.9 21.0 18.7 20.8 18.3 20.3 17.45 20.4 17.35 20.3 17.25 19.7 16.75 19.6 16.65 18.8 16.05 18.7 15.85 18.25 15.45 17.25 14.45 17.2 14.1 16.95 13.45 16.85 13.25 16.75 12.8 16.65 12.6 16.6 12.4 16.45 12.1 16.1 11.1 16.0 10.9 15.8 10.55 14.95 8.55 14.95 8.5 16.55 9.35 18.25 10.5 19.95 12.8 20.2 13.45 20.6 14.6 21.1 15.95 Q21.4 15.65 21.75 15.45 21.9 15.3 22.1 15.25 22.4 15.0 22.8 14.85 L22.9 14.8 Q24.4 14.1 25.5 14.05 L26.35 14.1 26.9 14.35 27.15 14.25 M21.1 15.95 L21.75 17.95 23.7 20.9 24.8 22.4 23.7 20.9 21.75 17.95 21.1 15.95" fill="#303549" fill-rule="evenodd" stroke="none"/>
      <path d="M14.15 11.6 L14.25 12.3 14.25 12.45 14.2 12.35 12.75 11.25 Q11.7 10.55 10.55 10.0 L9.1 9.4 8.5 9.2 8.25 9.15 8.3 8.5 9.2 8.8 9.25 8.85 11.85 9.85 12.2 9.95 12.35 10.1 12.4 10.2 12.6 10.5 12.7 10.65 12.75 10.75 12.95 10.8 13.75 11.1 13.85 11.25 14.15 11.6" fill="#ffe86e" fill-rule="evenodd" stroke="none"/>
      <path d="M14.95 8.55 L15.8 10.55 16.0 10.9 16.1 11.1 16.45 12.1 16.6 12.4 16.65 12.6 16.75 12.8 16.85 13.25 16.95 13.45 17.2 14.1 17.25 14.45 17.1 14.25 16.6 13.8 15.5 12.65 15.35 12.45 15.3 12.1 15.2 12.1 15.2 12.0 15.2 11.8 15.1 11.05 15.0 10.3 14.95 10.1 14.95 9.95 14.95 9.65 14.95 9.55 14.95 8.55" fill="#3d4256" fill-rule="evenodd" stroke="none"/>
      <path d="M7.7 8.35 L8.2 7.3 8.35 7.05 8.3 8.5 7.85 8.35 7.7 8.35" fill="#93cd80" fill-rule="evenodd" stroke="none"/>
      <path d="M8.2 9.25 L8.4 9.55 8.85 10.25 9.0 10.45 9.85 12.0 10.2 12.8 10.35 13.15 10.7 13.85 9.95 14.0 9.5 13.15 9.2 12.55 8.65 11.5 8.6 11.4 7.7 9.7 7.35 9.1 7.5 8.9 7.2 8.85 7.05 8.5 6.85 8.2 6.9 8.15 6.9 8.1 7.7 8.35 7.65 8.4 7.65 8.45 7.5 8.8 7.5 8.9 8.0 9.05 8.05 9.1 8.15 9.1 8.2 9.25" fill="#4c9663" fill-rule="evenodd" stroke="none"/>
      <path d="M7.7 8.35 L7.85 8.35 8.3 8.5 8.25 9.15 8.15 9.1 8.05 9.1 8.0 9.05 7.5 8.9 7.5 8.8 7.65 8.45 7.65 8.4 7.7 8.35" fill="#beead1" fill-rule="evenodd" stroke="none"/>
      <path d="M14.25 12.55 L14.05 12.65 13.8 12.8 13.35 12.95 12.7 13.25 11.4 13.65 11.35 13.7 10.7 13.85 10.35 13.15 10.2 12.8 9.85 12.0 9.0 10.45 8.85 10.25 8.4 9.55 8.2 9.25 8.25 9.2 8.25 9.15 8.5 9.2 9.1 9.4 10.55 10.0 Q11.7 10.55 12.75 11.25 L14.2 12.35 14.25 12.45 14.25 12.55" fill="#7d3100" fill-rule="evenodd" stroke="none"/>
      <path d="M18.8 16.05 L19.6 16.65 19.7 16.75 20.3 17.25 20.4 17.35 20.3 17.45 20.8 18.3 21.0 18.7 20.05 18.45 16.95 17.75 15.95 17.6 14.75 17.35 14.15 17.25 13.8 17.15 12.3 16.95 12.2 16.75 11.95 16.3 11.55 15.45 11.2 14.75 10.7 13.85 11.35 13.7 11.4 13.65 12.7 13.25 13.35 12.95 13.8 12.8 14.05 12.65 14.25 12.55 14.3 12.45 14.5 12.35 14.8 12.65 15.1 12.9 15.2 12.95 16.4 14.05 16.9 14.45 17.05 14.6 17.25 14.7 17.45 14.85 17.9 15.25 18.6 15.85 18.8 16.05" fill="#3b4159" fill-rule="evenodd" stroke="none"/>
      <path d="M10.7 13.85 L11.2 14.75 11.55 15.45 11.95 16.3 12.2 16.75 12.3 16.95 11.4 16.75 11.35 16.75 10.3 14.6 9.95 14.0 10.7 13.85" fill="#275fac" fill-rule="evenodd" stroke="none"/>
      <path d="M17.25 14.45 L18.25 15.45 18.7 15.85 18.8 16.05 18.6 15.85 17.9 15.25 17.45 14.85 17.25 14.7 17.05 14.6 16.9 14.45 16.4 14.05 15.2 12.95 15.1 12.9 14.8 12.65 14.5 12.35 14.6 12.35 14.95 12.15 14.95 12.2 15.3 12.45 15.35 12.45 15.5 12.65 16.6 13.8 17.1 14.25 17.25 14.45" fill="#a6b2cc" fill-rule="evenodd" stroke="none"/>
      <path d="M23.5 23.85 L23.55 23.85 23.5 23.9 23.4 24.0 23.35 23.75 23.5 23.85 M13.5 21.85 L13.6 22.7 13.5 22.8 13.0 22.25 12.8 22.15 13.0 21.9 13.5 21.85" fill="#44465b" fill-rule="evenodd" stroke="none"/>
      <path d="M16.95 17.75 L20.05 18.45 20.25 19.1 20.4 19.65 20.45 19.75 18.9 20.05 18.0 20.4 17.95 20.25 17.8 19.9 17.7 19.5 16.95 17.75" fill="#697897" fill-rule="evenodd" stroke="none"/>
      <path d="M15.95 17.6 L16.95 17.75 17.7 19.5 17.8 19.9 17.95 20.25 18.0 20.4 17.25 20.65 17.05 20.2 16.8 19.55 15.95 17.6" fill="#9bb0cf" fill-rule="evenodd" stroke="none"/>
      <path d="M15.8 20.4 L16.2 20.55 15.75 20.55 15.8 20.4" fill="#3c465f" fill-rule="evenodd" stroke="none"/>
      <path d="M11.5 17.75 L14.5 19.8 14.1 19.8 14.45 19.9 14.8 20.05 15.8 20.4 15.75 20.55 13.3 20.3 13.45 21.15 13.3 21.05 12.6 20.25 12.1 19.75 12.3 19.75 12.3 19.55 12.6 19.55 13.0 19.6 13.3 19.4 12.45 18.75 11.5 17.75" fill="#87290d" fill-rule="evenodd" stroke="none"/>
      <path d="M12.3 16.95 L13.8 17.15 14.15 17.25 14.75 17.35 15.45 18.6 15.75 19.2 16.1 20.05 16.3 20.55 16.2 20.55 15.8 20.4 14.8 20.05 14.45 19.9 14.1 19.8 14.5 19.8 11.5 17.75 9.85 16.65 9.85 16.6 10.75 16.7 11.35 16.75 11.4 16.75 12.3 16.95" fill="#fae475" fill-rule="evenodd" stroke="none"/>
      <path d="M14.75 17.35 L15.95 17.6 16.8 19.55 17.05 20.2 17.25 20.65 17.2 20.65 16.3 20.55 16.1 20.05 15.75 19.2 15.45 18.6 14.75 17.35" fill="#444f55" fill-rule="evenodd" stroke="none"/>
      <path d="M10.7 20.05 L10.4 19.8 12.1 19.75 12.6 20.25 13.3 21.05 13.45 21.15 13.5 21.85 13.0 21.9 12.8 22.15 11.6 21.05 11.5 20.9 10.7 20.05" fill="#569c44" fill-rule="evenodd" stroke="none"/>
      <path d="M9.85 16.7 L9.85 16.65 11.5 17.75 12.45 18.75 13.3 19.4 13.0 19.6 12.6 19.55 12.3 19.55 12.3 19.75 12.1 19.75 10.4 19.8 10.25 19.7 9.85 19.35 9.85 18.85 9.85 16.7" fill="#578d41" fill-rule="evenodd" stroke="none"/>
      <path d="M38.55 28.65 L39.5 28.3 Q40.6 28.0 41.7 28.3 L39.4 30.65 38.55 28.65" fill="#6f7f98" fill-rule="evenodd" stroke="none"/>
      <path d="M38.3 28.8 Q38.45 28.75 38.55 28.65 L39.4 30.65 39.7 31.1 40.55 29.8 39.9 31.45 40.3 31.65 40.15 31.95 39.45 31.7 38.85 30.95 Q38.25 30.05 38.25 28.8 L38.3 28.8" fill="#3d4959" fill-rule="evenodd" stroke="none"/>
      <path d="M37.9 29.05 L38.25 28.8 Q38.25 30.05 38.85 30.95 L39.45 31.7 40.15 31.95 Q40.35 33.4 40.15 33.7 L39.45 32.45 38.4 30.65 38.15 30.25 37.9 29.05" fill="#9cbcd3" fill-rule="evenodd" stroke="none"/>
      <path d="M41.7 28.3 L40.4 31.45 40.3 31.65 39.9 31.45 40.55 29.8 39.7 31.1 39.4 30.65 41.7 28.3" fill="#8ba3bd" fill-rule="evenodd" stroke="none"/>
      <path d="M38.9 35.95 L38.25 34.25 39.45 32.45 40.15 33.7 38.9 35.95" fill="#90a9bf" fill-rule="evenodd" stroke="none"/>
      <path d="M36.75 30.7 L36.85 30.35 37.3 31.1 37.25 31.3 38.25 34.25 38.9 35.95 38.7 36.25 37.15 32.95 36.75 30.7" fill="#90abc0" fill-rule="evenodd" stroke="none"/>
      <path d="M36.75 30.7 L37.15 32.95 38.7 36.25 39.05 36.75 39.25 37.05 39.95 38.15 39.2 39.05 39.2 39.1 38.9 38.7 38.7 38.45 38.7 38.4 37.55 37.1 36.55 31.25 36.75 30.7 M38.25 34.25 L37.25 31.3 37.35 31.25 37.3 31.1 36.85 30.35 36.5 29.3 37.9 29.05 38.15 30.25 38.2 30.8 38.4 30.65 39.45 32.45 38.25 34.25 M33.45 30.25 L33.55 30.3 34.2 30.9 34.85 31.5 36.1 32.95 35.85 33.95 34.8 33.1 35.2 35.25 36.05 37.25 35.15 37.25 35.85 38.0 36.1 38.4 34.05 40.2 31.9 32.2 33.45 30.25" fill="#68819f" fill-rule="evenodd" stroke="none"/>
      <path d="M39.2 39.05 L39.95 38.15 39.35 39.1 39.2 39.05" fill="#f2f48f" fill-rule="evenodd" stroke="none"/>
      <path d="M44.5 39.35 L45.3 39.9 45.6 40.25 46.5 41.6 46.6 41.75 47.8 44.1 46.1 44.0 45.7 43.35 45.6 43.2 44.6 41.45 44.25 40.5 44.1 39.55 Q42.25 39.6 41.85 41.65 41.55 43.3 42.7 45.0 L43.15 45.6 43.8 46.35 43.45 46.95 42.15 45.8 39.7 43.4 39.6 43.35 41.35 39.45 39.35 39.1 39.95 38.15 Q43.0 38.45 44.5 39.35" fill="#f8f9c1" fill-rule="evenodd" stroke="none"/>
      <path d="M46.0 48.3 L43.1 49.6 43.2 49.4 44.0 48.15 44.0 48.1 Q45.1 46.7 46.3 46.3 L46.45 46.3 46.5 46.25 46.0 48.3 M39.2 39.1 L39.2 39.05 39.35 39.1 38.0 40.9 39.35 39.1 41.35 39.45 39.6 43.35 35.85 43.9 38.0 40.9 39.2 39.1 M39.7 43.4 L42.15 45.8 38.9 47.8 38.85 47.8 35.9 44.65 39.55 43.5 39.7 43.4" fill="#b15526" fill-rule="evenodd" stroke="none"/>
      <path d="M36.05 37.25 L35.2 35.25 34.8 33.1 35.85 33.95 36.1 32.95 36.55 31.25 37.55 37.1 36.05 37.25 M38.7 38.4 L38.7 38.45 38.9 38.7 38.65 39.0 36.1 38.4 35.85 38.0 38.7 38.4" fill="#84a3b8" fill-rule="evenodd" stroke="none"/>
      <path d="M38.9 38.7 L39.2 39.1 38.0 40.9 35.85 43.9 35.75 44.15 35.9 44.65 38.85 47.8 38.1 47.8 34.85 44.65 34.55 44.3 34.5 44.3 38.65 39.0 38.9 38.7" fill="#374b63" fill-rule="evenodd" stroke="none"/>
      <path d="M35.9 44.65 L35.75 44.15 35.85 43.9 39.6 43.35 39.55 43.5 35.9 44.65 35.85 43.9 35.9 44.65" fill="#832e09" fill-rule="evenodd" stroke="none"/>
      <path d="M43.8 46.35 L43.15 45.6 42.7 45.0 Q41.55 43.3 41.85 41.65 42.25 39.6 44.1 39.55 L44.25 40.5 44.6 41.45 45.6 43.2 45.7 43.35 46.1 44.0 46.65 45.0 43.8 46.35" fill="#fbe673" fill-rule="evenodd" stroke="none"/>
      <path d="M42.1 50.85 L45.05 49.4 45.1 49.5 43.9 51.25 43.35 52.25 41.55 52.1 42.1 50.85" fill="#697699" fill-rule="evenodd" stroke="none"/>
      <path d="M43.45 46.95 L43.8 46.35 46.65 45.0 Q46.3 45.8 46.45 46.3 L46.3 46.3 Q45.1 46.7 44.0 48.1 L44.0 48.15 43.2 49.4 43.1 49.6 42.55 49.75 42.35 49.6 43.45 46.95 M46.65 47.95 L46.0 48.3 46.5 46.25 47.2 46.1 47.0 46.85 46.65 47.95" fill="#fff997" fill-rule="evenodd" stroke="none"/>
      <path d="M45.25 49.25 L45.05 49.4 42.1 50.85 42.55 49.75 43.1 49.6 46.0 48.3 46.65 47.95 46.65 48.5 45.25 49.25" fill="#424663" fill-rule="evenodd" stroke="none"/>
      <path d="M45.25 49.25 L46.65 48.5 46.55 49.75 46.45 50.8 46.25 53.05 45.1 49.5 45.25 49.25" fill="#b4c5e3" fill-rule="evenodd" stroke="none"/>
      <path d="M42.15 45.8 L43.45 46.95 42.35 49.6 38.9 47.8 42.15 45.8" fill="#832f0b" fill-rule="evenodd" stroke="none"/>
      <path d="M35.55 53.55 L36.7 53.15 40.15 51.25 40.2 51.65 36.1 54.2 35.85 54.4 35.55 53.55" fill="#b9c8e5" fill-rule="evenodd" stroke="none"/>
      <path d="M46.25 53.3 L46.25 53.55 45.5 53.4 44.3 53.25 43.0 53.05 43.35 52.25 43.9 51.25 46.25 53.3" fill="#393b50" fill-rule="evenodd" stroke="none"/>
      <path d="M40.6 55.4 L38.85 55.4 41.55 52.1 43.35 52.25 43.0 53.05 41.15 54.8 40.6 55.4" fill="#c6d3f5" fill-rule="evenodd" stroke="none"/>
      <path d="M46.25 53.05 L46.25 53.3 43.9 51.25 45.1 49.5 46.25 53.05" fill="#626d8b" fill-rule="evenodd" stroke="none"/>
      <path d="M36.7 53.15 L38.65 48.5 40.15 51.25 36.7 53.15" fill="#677693" fill-rule="evenodd" stroke="none"/>
      <path d="M46.1 44.0 L47.8 44.1 47.2 46.1 46.5 46.25 46.45 46.3 Q46.3 45.8 46.65 45.0 L46.1 44.0" fill="#fefca7" fill-rule="evenodd" stroke="none"/>
      <path d="M19.7 31.15 L19.9 28.5 19.95 28.5 21.3 31.45 Q22.5 32.5 24.2 33.0 L24.75 33.1 27.3 29.8 27.4 30.0 27.4 30.1 27.8 36.05 23.05 40.8 21.1 41.0 19.6 41.5 19.6 35.2 19.6 35.15 19.7 31.15" fill="#69819d" fill-rule="evenodd" stroke="none"/>
      <path d="M27.3 29.8 L24.75 33.1 24.2 33.0 Q22.5 32.5 21.3 31.45 L24.35 29.95 24.85 30.0 25.35 29.95 26.05 29.9 27.25 29.65 27.35 29.8 27.3 29.8" fill="#404f62" fill-rule="evenodd" stroke="none"/>
      <path d="M19.6 27.6 L19.7 27.1 23.45 28.7 23.6 28.95 19.6 27.6" fill="#4c5d7b" fill-rule="evenodd" stroke="none"/>
      <path d="M21.35 25.25 L23.4 27.3 23.4 27.55 23.45 28.7 19.7 27.1 19.8 26.7 20.35 25.2 21.35 25.25" fill="#657994" fill-rule="evenodd" stroke="none"/>
      <path d="M19.95 28.5 L19.6 27.6 23.6 28.95 23.6 28.9 23.7 29.0 24.35 29.95 21.3 31.45 19.95 28.5" fill="#6b84a3" fill-rule="evenodd" stroke="none"/>
      <path d="M36.05 30.35 L36.4 29.45 36.5 29.3 36.85 30.35 36.75 30.7 36.55 31.25 36.1 32.95 34.85 31.5 35.3 32.0 36.05 30.35" fill="#6e798d" fill-rule="evenodd" stroke="none"/>
      <path d="M30.6 32.15 L33.4 30.3 33.45 30.25 31.9 32.2 34.05 40.2 33.45 40.7 33.3 40.55 33.25 40.5 33.25 40.25 31.05 33.3 31.0 33.2 30.95 33.3 29.8 32.65 30.6 32.15" fill="#415065" fill-rule="evenodd" stroke="none"/>
      <path d="M21.35 21.9 Q21.4 21.7 21.9 22.25 L22.0 22.4 22.45 23.0 22.7 23.3 22.85 23.55 23.3 24.15 23.4 24.3 23.4 25.75 23.4 26.2 23.4 26.55 23.4 27.3 21.35 25.25 21.35 21.9" fill="#9ab6cc" fill-rule="evenodd" stroke="none"/>
      <path d="M16.2 20.55 L16.3 20.55 17.2 20.65 17.25 20.65 18.2 20.8 18.65 23.05 18.6 23.05 18.3 23.0 13.65 20.7 13.3 20.3 15.75 20.55 16.2 20.55" fill="#a1b5ce" fill-rule="evenodd" stroke="none"/>
      <path d="M20.45 19.75 L21.0 19.8 21.35 21.9 21.35 25.25 20.35 25.2 19.6 24.8 19.9 24.4 19.9 24.2 19.9 21.2 18.2 20.8 17.25 20.65 18.0 20.4 18.9 20.05 20.45 19.75" fill="#5e6987" fill-rule="evenodd" stroke="none"/>
      <path d="M18.65 23.05 L18.2 20.8 19.9 21.2 19.9 24.2 18.95 23.5 18.7 23.3 18.65 23.05" fill="#616f89" fill-rule="evenodd" stroke="none"/>
      <path d="M13.85 21.15 L13.65 20.7 18.3 23.0 18.6 23.05 18.65 23.05 18.7 23.3 18.95 23.5 18.75 23.85 18.2 23.9 13.85 21.15" fill="#bcd1ec" fill-rule="evenodd" stroke="none"/>
      <path d="M18.95 23.5 L19.9 24.2 19.9 24.4 19.6 24.8 18.2 23.9 18.75 23.85 18.95 23.5" fill="#73829f" fill-rule="evenodd" stroke="none"/>
      <path d="M-1.4 40.7 L-1.4 38.15 -1.0 38.0 -0.95 38.05 -0.8 39.3 -0.7 40.25 -1.0 40.7 -1.4 40.7 M21.55 20.6 L22.2 21.55 23.35 23.7 23.35 23.75 23.4 24.0 23.4 24.3 23.3 24.15 22.85 23.55 22.7 23.3 22.45 23.0 22.0 22.4 21.9 22.25 Q21.4 21.7 21.35 21.9 L21.0 19.8 21.45 20.45 21.55 20.6 M2.1 22.35 L7.95 20.75 8.15 21.25 6.5 25.0 6.2 25.65 5.05 28.05 4.9 28.4 5.05 28.8 4.6 29.45 4.4 29.8 3.95 30.45 2.5 30.6 1.45 30.8 0.65 30.95 0.55 30.95 0.25 31.0 -0.2 31.1 0.0 30.3 0.1 29.85 0.25 29.6 Q0.25 29.25 0.4 28.8 L0.75 27.65 0.8 27.2 0.9 27.0 2.1 22.35" fill="#6f7e9b" fill-rule="evenodd" stroke="none"/>
      <path d="M16.4 27.0 L16.95 27.2 19.6 24.8 20.35 25.2 19.8 26.7 16.0 29.35 10.85 31.9 10.0 27.15 10.0 26.85 9.95 26.0 9.95 25.75 9.9 25.4 9.9 25.35 10.5 24.85 16.4 27.0" fill="#4e5977" fill-rule="evenodd" stroke="none"/>
      <path d="M13.3 20.3 L13.65 20.7 13.85 21.15 16.95 27.2 16.4 27.0 16.1 26.75 15.6 26.2 14.95 25.6 14.5 25.15 Q13.85 24.35 13.65 22.85 L13.6 22.7 13.5 21.85 13.45 21.15 13.3 20.3" fill="#383b4e" fill-rule="evenodd" stroke="none"/>
      <path d="M7.6 34.4 L7.1 37.15 6.2 38.4 7.2 34.05 8.15 30.15 8.7 30.3 7.6 34.4" fill="#325f89" fill-rule="evenodd" stroke="none"/>
      <path d="M8.85 27.75 L9.35 27.9 8.7 30.3 8.15 30.15 8.85 27.75" fill="#37485c" fill-rule="evenodd" stroke="none"/>
      <path d="M19.8 26.7 L19.7 27.1 19.6 27.6 19.95 28.5 19.9 28.5 19.7 31.15 19.15 30.45 19.1 28.25 10.85 32.95 16.7 45.85 16.8 46.35 14.0 41.5 10.55 33.75 9.9 27.15 10.0 27.15 10.85 31.9 16.0 29.35 19.8 26.7 M19.6 35.2 L19.6 41.5 19.4 41.7 19.4 41.8 18.8 42.6 18.1 42.7 19.0 40.8 19.2 35.15 19.4 35.2 19.6 35.2 M34.6 44.65 L34.7 45.15 33.95 47.1 33.45 47.15 34.6 44.65" fill="#a2b3cf" fill-rule="evenodd" stroke="none"/>
      <path d="M16.7 45.85 L10.85 32.95 19.1 28.25 19.15 30.45 19.2 35.1 19.2 35.15 19.0 40.8 18.1 42.7 16.7 45.85" fill="#52607d" fill-rule="evenodd" stroke="none"/>
      <path d="M19.15 30.45 L19.7 31.15 19.6 35.15 19.4 35.15 19.2 35.1 19.15 30.45 M21.9 41.95 L18.8 42.6 19.4 41.8 19.4 41.7 19.6 41.5 21.1 41.0 Q21.1 41.3 21.4 41.55 L22.1 41.75 21.9 41.95" fill="#9bafca" fill-rule="evenodd" stroke="none"/>
      <path d="M16.8 46.35 L16.7 45.85 18.1 42.7 18.8 42.6 17.15 46.9 16.8 46.35" fill="#9eabcb" fill-rule="evenodd" stroke="none"/>
      <path d="M23.35 42.2 L22.5 41.9 22.3 41.85 22.1 41.75 21.4 41.55 Q21.1 41.3 21.1 41.0 L23.05 40.8 24.25 41.35 23.55 41.3 Q23.15 41.95 23.35 42.2" fill="#c3dbf5" fill-rule="evenodd" stroke="none"/>
      <path d="M22.5 41.9 L21.9 41.95 22.3 41.85 22.5 41.9" fill="#515a79" fill-rule="evenodd" stroke="none"/>
      <path d="M36.05 37.25 L37.55 37.1 38.7 38.4 35.85 38.0 35.15 37.25 36.05 37.25" fill="#647996" fill-rule="evenodd" stroke="none"/>
      <path d="M29.8 55.4 L27.2 55.4 29.0 52.75 30.15 55.25 29.8 55.4 M24.25 41.35 L28.6 36.3 33.1 40.4 33.25 40.5 33.3 40.55 33.4 40.7 34.5 44.25 34.5 44.3 34.55 44.3 34.6 44.65 33.45 47.15 32.7 47.3 25.85 48.1 24.25 41.35" fill="#6b85a0" fill-rule="evenodd" stroke="none"/>
      <path d="M36.1 38.4 L38.65 39.0 34.5 44.3 34.5 44.25 33.4 40.7 33.45 40.7 34.05 40.2 36.1 38.4" fill="#516280" fill-rule="evenodd" stroke="none"/>
      <path d="M25.3 48.15 L24.05 48.95 25.15 48.2 25.3 48.15" fill="#3a455b" fill-rule="evenodd" stroke="none"/>
      <path d="M26.0 48.6 L25.85 48.1 32.7 47.3 33.25 47.5 26.0 48.6" fill="#9dacc9" fill-rule="evenodd" stroke="none"/>
      <path d="M31.5 55.4 L29.8 55.4 30.15 55.25 29.0 52.75 Q30.4 53.3 31.15 54.6 L31.5 55.4 M25.5 55.4 L24.4 55.4 23.0 53.05 24.95 51.05 25.5 55.4 M29.65 11.4 L29.15 10.55 29.6 11.0 29.65 11.05 29.65 11.1 29.65 11.4 M27.15 14.3 L27.25 14.45 27.2 14.45 27.15 14.3 M29.0 18.85 L29.1 19.2 29.0 19.05 29.0 18.85" fill="#2a2b3f" fill-rule="evenodd" stroke="none"/>
      <path d="M27.2 55.4 L25.5 55.4 24.95 51.05 26.8 51.9 29.0 52.75 27.2 55.4" fill="#3c4356" fill-rule="evenodd" stroke="none"/>
      <path d="M34.85 44.65 L38.1 47.8 35.35 47.65 34.45 47.6 33.75 47.6 33.95 47.1 34.7 45.15 34.85 44.65" fill="#54627d" fill-rule="evenodd" stroke="none"/>
      <path d="M19.15 10.6 Q20.1 10.1 21.65 9.85 L24.2 9.3 24.2 9.0 24.3 9.25 24.4 9.4 24.7 9.9 24.85 10.1 26.3 12.6 27.15 14.25 26.9 14.35 26.35 14.1 25.5 14.05 Q24.4 14.1 22.9 14.8 L22.8 14.85 Q22.4 15.0 22.1 15.25 21.9 15.3 21.75 15.45 21.4 15.65 21.1 15.95 L20.6 14.6 20.2 13.45 19.95 12.8 19.15 10.6 M34.45 47.6 L34.45 48.05 33.85 49.4 Q33.95 48.5 34.45 47.6 M34.2 51.8 L35.55 53.55 35.85 54.4 35.55 54.55 Q34.85 53.5 34.3 52.2 L34.2 51.8" fill="#3d455c" fill-rule="evenodd" stroke="none"/>
      <path d="M33.85 49.4 L33.85 50.55 34.2 51.8 33.3 50.65 33.85 49.4" fill="#3e465d" fill-rule="evenodd" stroke="none"/>
      <path d="M36.35 55.4 L36.1 55.4 36.35 55.3 36.35 55.4" fill="#40455b" fill-rule="evenodd" stroke="none"/>
      <path d="M36.45 55.4 L36.35 55.4 36.35 55.3 36.45 55.4" fill="#5c6783" fill-rule="evenodd" stroke="none"/>
      <path d="M43.0 2.95 L44.15 2.25 45.1 5.35 45.4 6.45 45.4 6.5 45.4 6.6 44.55 7.2 44.55 7.25 44.25 7.45 44.0 7.6 43.6 7.85 43.35 8.0 43.35 6.8 43.3 6.35 43.3 6.25 43.1 5.05 43.05 4.85 42.8 3.05 42.85 3.0 42.95 3.0 43.0 2.95 M23.2 0.7 L23.25 0.6 23.3 0.55 24.05 -0.7 24.55 -0.2 25.3 0.5 26.35 1.45 26.85 2.05 27.15 2.3 27.15 2.4 27.25 2.4 27.25 2.45 26.85 3.4 26.85 3.45 26.8 3.6 26.5 4.05 26.3 4.4 26.2 4.7 25.95 4.25 25.6 3.65 25.35 3.3 25.3 3.25 24.45 2.25 23.2 0.7" fill="#ffab3c" fill-rule="evenodd" stroke="none"/>
      <path d="M43.35 8.0 L43.6 7.85 44.0 7.6 44.25 7.45 44.55 7.25 44.5 7.75 44.1 10.0 43.95 10.6 43.7 11.45 43.45 12.2 43.25 12.15 43.2 12.15 43.2 11.8 43.25 11.0 43.35 8.2 43.35 8.0 M26.2 4.7 L26.3 4.4 26.5 4.05 26.8 3.6 26.85 3.45 27.8 6.05 28.0 6.65 28.3 8.3 28.15 8.35 27.95 8.05 26.85 6.05 26.25 4.85 26.2 4.7" fill="#f4ad37" fill-rule="evenodd" stroke="none"/>
      <path d="M45.4 6.6 L45.3 8.7 45.15 12.15 45.05 12.75 43.85 12.3 43.45 12.2 43.7 11.45 43.95 10.6 44.1 10.0 44.5 7.75 44.55 7.25 44.55 7.2 45.4 6.6 M45.8 17.1 L46.25 16.75 46.55 16.5 46.95 16.2 46.7 16.9 46.7 16.95 46.5 17.6 45.55 20.0 44.35 19.3 45.1 18.4 45.25 18.05 45.8 17.1 M26.85 3.45 L26.85 3.4 27.25 2.45 27.25 2.4 27.3 2.45 29.95 7.75 30.0 7.95 29.9 7.95 28.3 8.3 28.0 6.65 27.8 6.05 26.85 3.45" fill="#fff484" fill-rule="evenodd" stroke="none"/>
      <path d="M22.8 1.55 L23.2 0.7 24.45 2.25 25.3 3.25 25.35 3.3 25.6 3.65 25.95 4.25 26.2 4.7 26.25 4.85 26.15 4.9 26.0 4.95 25.85 5.05 25.5 5.2 24.9 4.4 24.8 4.2 22.8 1.55 M42.8 3.05 L43.05 4.85 43.1 5.05 43.3 6.25 43.3 6.35 43.35 6.8 43.35 8.0 43.35 8.2 43.0 8.15 41.2 7.7 41.85 4.0 41.95 3.65 42.0 3.55 42.8 3.05" fill="#a85e2f" fill-rule="evenodd" stroke="none"/>
      <path d="M41.2 7.7 L43.0 8.15 43.35 8.2 43.25 11.0 43.2 11.8 43.2 12.15 40.8 11.8 40.55 11.8 41.2 7.7 M26.25 4.85 L26.85 6.05 27.95 8.05 28.15 8.35 27.85 8.5 26.7 6.85 25.75 5.55 25.5 5.2 25.85 5.05 26.0 4.95 26.15 4.9 26.25 4.85" fill="#642c09" fill-rule="evenodd" stroke="none"/>
      <path d="M43.45 12.2 L43.85 12.3 45.05 12.75 45.0 13.3 Q44.55 12.85 43.8 12.75 L43.65 12.7 43.6 12.7 43.25 12.65 43.2 12.65 43.2 13.3 43.2 15.15 42.75 13.95 Q42.1 12.65 40.8 11.8 L43.2 12.15 43.25 12.15 43.45 12.2 M28.3 8.3 L29.9 7.95 30.0 7.95 30.05 8.0 30.0 8.4 29.85 8.4 28.9 8.5 Q28.65 8.7 28.4 8.7 L28.3 8.8 28.4 8.9 29.6 11.0 29.15 10.55 28.5 9.5 27.85 8.5 28.15 8.35 28.3 8.3" fill="#3f475a" fill-rule="evenodd" stroke="none"/>
      <path d="M45.55 20.0 L45.4 20.35 45.15 21.1 44.65 22.2 44.25 22.55 44.0 22.05 43.95 21.95 43.95 21.85 43.7 21.55 43.65 21.2 43.65 21.15 43.65 20.9 43.65 20.8 43.65 20.65 43.6 18.95 44.15 18.5 44.55 18.15 45.8 17.1 45.25 18.05 45.1 18.4 44.35 19.3 45.55 20.0 M43.2 15.15 L43.2 13.3 43.2 12.65 43.25 12.65 43.6 12.7 43.65 12.7 43.8 12.75 Q44.55 12.85 45.0 13.3 L44.95 14.45 44.7 16.25 44.35 16.9 43.85 16.2 43.8 16.1 43.5 15.75 43.2 15.3 43.2 15.25 43.2 15.15 M29.6 11.0 L28.4 8.9 28.3 8.8 28.4 8.7 Q28.65 8.7 28.9 8.5 L29.85 8.4 30.0 8.4 29.8 10.25 29.9 11.2 29.65 11.1 29.65 11.05 29.6 11.0" fill="#99aecb" fill-rule="evenodd" stroke="none"/>
      <path d="M44.35 16.9 L43.9 17.4 43.55 17.9 42.2 19.4 42.15 19.45 41.95 19.3 43.35 17.05 43.5 16.65 43.8 16.1 43.85 16.2 44.35 16.9 M41.9 23.55 L42.4 23.2 43.4 22.4 43.8 22.05 43.95 21.95 44.0 22.05 44.25 22.55 43.8 22.8 43.5 23.0 42.25 23.6 42.05 23.7 42.0 23.7 41.9 23.55" fill="#8b97ad" fill-rule="evenodd" stroke="none"/>
      <path d="M41.95 19.3 L42.15 19.45 41.55 20.05 40.45 21.2 40.35 21.35 40.25 20.7 40.6 20.05 41.05 19.55 Q41.45 18.95 41.8 18.85 L41.95 19.3 M39.3 24.9 L39.85 24.5 40.2 24.2 40.35 24.05 40.6 23.85 40.7 23.8 41.1 23.55 41.45 23.35 41.85 23.2 41.85 23.3 41.9 23.55 42.0 23.7 41.45 23.95 40.4 24.45 39.9 24.7 39.3 24.9" fill="#87a6bb" fill-rule="evenodd" stroke="none"/>
      <path d="M20.25 1.25 L20.2 0.95 20.0 -1.4 20.5 -1.4 20.9 -0.8 21.55 0.0 21.65 0.1 21.85 0.4 22.4 1.1 22.8 1.55 24.8 4.2 24.9 4.4 24.8 5.4 24.4 7.7 23.55 6.25 21.55 3.3 21.25 2.9 21.15 2.7 20.25 1.25" fill="#ffe880" fill-rule="evenodd" stroke="none"/>
      <path d="M17.35 3.55 L18.4 3.25 20.35 2.9 20.55 2.9 20.6 3.0 21.0 3.65 20.4 3.65 18.25 4.3 17.25 4.7 17.35 3.55" fill="#ffe172" fill-rule="evenodd" stroke="none"/>
      <path d="M25.5 5.2 L25.75 5.55 25.5 6.9 25.3 8.25 25.15 8.8 25.0 9.25 25.0 9.45 24.9 9.7 24.9 9.8 24.85 10.1 24.7 9.9 24.4 9.4 24.3 9.25 24.2 9.0 24.25 8.85 24.35 8.25 24.4 7.7 24.8 5.4 24.9 4.4 25.5 5.2" fill="#45485b" fill-rule="evenodd" stroke="none"/>
      <path d="M25.75 5.55 L26.7 6.85 27.85 8.5 28.5 9.5 29.15 10.55 29.65 11.4 28.35 12.4 27.55 13.1 27.5 12.95 25.95 10.1 25.5 9.4 25.15 8.8 25.3 8.25 25.5 6.9 25.75 5.55" fill="#9fb1c9" fill-rule="evenodd" stroke="none"/>
      <path d="M24.85 10.1 L24.9 9.8 24.9 9.7 25.0 9.45 25.0 9.25 25.15 8.8 25.5 9.4 25.95 10.1 27.5 12.95 27.55 13.1 27.0 13.35 27.15 14.25 26.3 12.6 24.85 10.1" fill="#c9d9f3" fill-rule="evenodd" stroke="none"/>
      <path d="M29.8 11.7 L29.9 12.0 30.25 13.45 30.85 16.65 30.9 16.8 30.95 17.2 31.05 17.75 29.65 18.85 29.55 18.85 29.45 20.45 29.35 20.2 29.3 20.05 29.1 19.2 29.0 18.85 29.0 18.6 28.8 17.75 28.65 17.35 28.65 17.3 28.3 15.85 27.95 13.65 28.5 13.0 28.65 12.9 29.65 11.9 29.8 11.7" fill="#647593" fill-rule="evenodd" stroke="none"/>
      <path d="M27.55 13.1 L28.35 12.4 29.65 11.4 29.8 11.7 29.65 11.9 28.65 12.9 28.5 13.0 27.95 13.65 27.45 14.15 27.25 14.45 27.15 14.3 27.15 14.25 27.0 13.35 27.55 13.1" fill="#cde1fc" fill-rule="evenodd" stroke="none"/>
      <path d="M41.95 3.35 L41.95 3.65 41.85 4.0 40.95 4.7 40.85 4.75 40.8 4.75 40.5 5.1 40.35 5.15 39.55 7.2 38.4 12.1 38.5 11.35 39.05 7.75 39.05 7.25 38.85 7.25 37.55 7.55 32.2 16.9 31.8 17.2 33.2 14.55 34.45 12.3 35.7 9.85 36.75 7.7 37.15 6.85 37.15 6.2 37.1 5.7 Q37.2 5.6 37.25 5.6 L37.4 6.3 37.45 6.35 37.9 6.9 38.7 6.8 38.9 6.7 39.3 6.25 39.35 6.2 39.4 6.0 39.9 4.15 39.9 4.1 40.05 4.0 40.55 3.65 40.6 4.2 40.6 4.55 40.65 4.55 40.95 4.2 41.25 3.9 41.95 3.35 M27.25 14.45 L27.45 14.15 27.95 13.65 28.3 15.85 28.65 17.3 28.65 17.35 28.15 17.55 27.8 17.55 27.2 14.45 27.25 14.45" fill="#c4d8f1" fill-rule="evenodd" stroke="none"/>
      <path d="M28.65 17.35 L28.8 17.75 29.0 18.6 29.0 18.85 29.0 19.05 29.1 19.2 29.3 20.05 29.35 20.2 29.45 20.45 29.45 20.5 29.15 22.55 28.9 23.15 28.55 21.4 28.4 20.55 28.2 19.65 28.0 18.4 27.8 17.55 28.15 17.55 28.65 17.35" fill="#96bbce" fill-rule="evenodd" stroke="none"/>
      <path d="M42.0 23.7 L42.05 23.7 42.25 23.6 43.1 23.4 43.2 24.2 43.25 25.15 42.5 25.9 41.5 26.45 40.95 26.65 40.65 26.65 40.6 26.65 40.35 26.7 39.2 27.35 39.05 27.45 39.4 26.45 39.75 25.15 39.9 24.85 39.9 24.7 40.4 24.45 41.45 23.95 42.0 23.7" fill="#68728d" fill-rule="evenodd" stroke="none"/>
      <path d="M45.05 12.75 L45.15 12.15 45.2 12.35 45.6 13.3 45.8 13.8 46.95 16.1 46.95 16.15 46.95 16.2 46.55 16.5 46.25 16.75 45.8 17.1 44.55 18.15 44.15 18.5 43.6 18.95 43.6 18.9 43.55 17.9 43.9 17.4 44.35 16.9 44.7 16.25 44.95 14.45 45.0 13.3 45.05 12.75" fill="#7a3009" fill-rule="evenodd" stroke="none"/>
      <path d="M39.6 -1.4 L39.95 -1.4 39.9 -0.95 39.75 0.9 39.65 -1.05 39.6 -1.4" fill="#fff589" fill-rule="evenodd" stroke="none"/>
      <path d="M31.1 -1.4 L36.75 -1.4 36.75 1.0 36.9 4.0 36.85 5.2 36.75 5.25 33.95 3.9 33.2 3.45 32.8 3.25 32.05 2.85 30.65 2.05 30.95 -1.15 31.1 -1.4" fill="#87320d" fill-rule="evenodd" stroke="none"/>
      <path d="M36.75 -1.4 L39.6 -1.4 39.65 -1.05 39.75 0.9 39.85 1.95 39.85 2.1 39.75 2.8 39.75 3.1 39.0 3.55 38.3 4.05 Q37.75 4.45 36.85 5.2 L36.9 4.0 36.75 1.0 36.75 -1.4" fill="#faa93e" fill-rule="evenodd" stroke="none"/>
      <path d="M36.75 5.25 L36.85 5.2 Q37.75 4.45 38.3 4.05 L39.0 3.55 39.75 3.1 40.1 2.9 40.15 2.85 40.05 4.0 39.9 4.1 39.85 4.15 39.2 4.5 37.25 5.6 Q37.2 5.6 37.1 5.7 L36.75 5.25" fill="#37465d" fill-rule="evenodd" stroke="none"/>
      <path d="M38.4 12.1 L38.2 12.95 38.2 13.2 38.2 13.25 37.05 13.8 35.25 14.75 35.25 14.8 33.2 16.1 32.2 16.9 37.55 7.55 38.85 7.25 39.05 7.25 39.05 7.75 38.5 11.35 38.4 12.1 M36.85 15.45 L36.55 15.55 36.75 15.45 36.85 15.45 M32.8 18.3 L32.95 18.45 32.75 18.6 32.75 18.4 32.8 18.3 M32.45 19.95 L32.45 20.1 32.35 20.05 32.45 19.95" fill="#545a7a" fill-rule="evenodd" stroke="none"/>
      <path d="M39.95 -1.4 L40.5 -1.4 40.5 -1.2 40.5 -0.9 40.15 2.85 40.1 2.9 39.75 3.1 39.75 2.8 39.85 2.1 39.85 1.95 39.75 0.9 39.9 -0.95 39.95 -1.4" fill="#ffe972" fill-rule="evenodd" stroke="none"/>
      <path d="M40.5 -1.4 L41.5 -1.4 41.75 0.1 42.0 1.6 40.75 2.45 40.15 2.85 40.5 -0.9 40.5 -1.2 40.5 -1.4" fill="#f6e36a" fill-rule="evenodd" stroke="none"/>
      <path d="M40.15 2.85 L40.75 2.45 42.0 1.6 42.1 1.95 42.1 2.1 40.8 3.45 40.55 3.65 40.05 4.0 40.15 2.85" fill="#3a4151" fill-rule="evenodd" stroke="none"/>
      <path d="M31.9 20.55 L33.65 22.65 33.7 22.7 33.5 23.2 32.45 25.9 32.45 26.35 31.85 27.55 31.6 27.4 30.4 26.0 30.75 23.05 30.75 23.0 30.75 22.8 31.05 22.35 31.4 21.85 31.6 21.5 31.8 21.0 31.85 20.75 31.9 20.55" fill="#373856" fill-rule="evenodd" stroke="none"/>
      <path d="M33.5 24.55 L34.55 27.1 33.2 26.35 32.9 25.65 33.5 24.55" fill="#2d3854" fill-rule="evenodd" stroke="none"/>
      <path d="M-1.4 17.2 L-1.4 13.8 0.4 12.85 1.85 12.05 Q1.1 12.9 0.1 14.6 L-0.6 15.85 -0.9 16.4 -1.4 17.2" fill="#56647e" fill-rule="evenodd" stroke="none"/>
      <path d="M-1.4 30.2 L-1.4 23.55 -1.1 23.05 -0.2 21.7 0.7 21.95 1.15 22.15 1.55 22.35 0.0 26.45 -0.05 26.6 -0.2 26.85 -0.45 27.65 -0.6 28.05 -0.7 28.3 -0.7 28.35 -1.15 29.55 -1.4 30.2" fill="#3b4859" fill-rule="evenodd" stroke="none"/>
      <path d="M-1.4 35.6 L-1.4 34.05 0.5 32.65 0.55 32.65 0.75 32.5 0.8 32.5 0.95 32.45 1.05 32.4 1.5 32.1 3.65 30.85 3.95 30.45 4.4 29.8 4.6 29.45 5.05 28.8 5.15 29.15 5.2 29.6 5.25 29.7 5.25 30.05 5.2 30.65 5.1 31.45 5.05 31.65 4.0 33.6 3.4 33.85 1.05 34.75 -1.4 35.6" fill="#687c97" fill-rule="evenodd" stroke="none"/>
      <path d="M-1.4 38.15 L-1.4 35.6 1.05 34.75 3.4 33.85 4.0 33.6 2.35 36.1 2.0 36.6 1.85 36.8 1.4 37.0 1.25 37.1 -0.9 38.0 -1.0 38.0 -1.4 38.15" fill="#40485b" fill-rule="evenodd" stroke="none"/>
      <path d="M6.1 7.2 L7.5 6.95 7.55 6.85 7.85 6.25 8.3 5.4 8.35 5.35 9.35 5.85 Q9.6 5.6 9.85 5.5 10.2 5.2 10.5 5.05 L10.95 5.05 13.95 5.5 12.55 -0.5 11.75 -1.4 M12.35 -1.4 L12.5 -0.75 12.55 -0.5 M19.05 -1.4 L17.75 0.0 17.6 0.2 17.35 3.55 17.25 4.7 17.25 4.8 17.35 5.05 19.15 10.6 Q20.1 10.1 21.65 9.85 L24.2 9.3 24.2 9.0 24.25 8.85 24.35 8.25 24.4 7.7 24.8 5.4 24.9 4.4 25.5 5.2 25.75 5.55 26.7 6.85 27.85 8.5 28.15 8.35 M42.0 -1.4 L42.05 -1.05 42.8 2.05 43.0 2.95 44.15 2.25 45.1 5.35 45.4 6.45 45.4 6.5 M45.4 6.6 L45.3 8.7 46.05 9.55 46.45 10.1 47.1 10.8 47.3 11.25 47.65 12.15 48.05 12.25 48.2 12.3 51.3 13.15 52.2 14.3 55.35 18.3 M53.8 55.4 L51.25 53.5 50.3 55.4 M20.5 -1.4 L20.9 -0.8 21.55 0.0 21.65 0.1 21.85 0.4 22.4 1.1 22.8 1.55 23.2 0.7 M23.25 0.6 L23.3 0.55 24.05 -0.7 24.55 -0.2 25.3 0.5 26.35 1.45 26.85 2.05 26.9 1.75 27.3 0.2 27.5 -0.55 27.5 -0.75 27.65 -1.4 M30.65 2.05 L30.95 -1.15 31.1 -1.4 M30.3 5.4 L30.65 2.05 32.05 2.85 32.8 3.25 33.2 3.45 33.95 3.9 36.75 5.25 36.85 5.2 Q37.75 4.45 38.3 4.05 L39.0 3.55 39.75 3.1 40.1 2.9 40.15 2.85 40.75 2.45 42.0 1.6 41.75 0.1 41.5 -1.4 M0.65 8.0 L0.15 6.5 -1.35 6.85 -1.4 6.9 M-0.9 16.4 L-0.6 15.85 0.1 14.6 Q1.1 12.9 1.85 12.05 L1.9 11.9 1.5 10.65 0.9 8.8 0.65 8.0 3.8 7.5 5.9 7.2 6.1 7.2 M-0.55 17.25 L-0.5 17.25 -0.1 16.95 0.05 16.8 0.55 16.45 0.9 17.55 1.25 18.4 0.85 19.55 0.75 19.95 0.55 20.55 -0.2 21.7 -1.1 23.05 -1.4 23.55 M-0.55 17.25 L-1.4 17.95 M-1.4 17.2 L-0.9 16.4 M0.5 32.65 L0.1 32.9 0.05 32.95 -1.1 33.5 -1.4 33.65 M-1.0 38.0 L-1.4 38.15 M-0.95 38.05 L-0.8 39.3 -0.7 40.25 -1.0 40.7 -1.4 41.25 M-0.95 38.05 L-1.0 38.0 -0.9 38.0 1.25 37.1 1.4 37.0 1.85 36.8 2.0 36.6 2.35 36.1 4.0 33.6 5.05 31.65 5.1 31.45 5.2 30.65 5.25 30.05 5.25 29.7 5.2 29.6 5.15 29.15 5.05 28.8 4.9 28.4 5.05 28.05 6.2 25.65 6.5 25.0 8.15 21.25 7.95 20.75 7.75 20.35 7.1 18.85 6.35 17.1 Q5.85 17.35 5.05 17.9 L2.25 19.8 1.55 20.3 0.3 21.2 0.55 20.55 M-1.3 51.45 L1.45 52.75 2.4 53.25 4.45 54.2 5.8 54.95 6.65 55.4 M-1.3 51.45 L-1.4 51.45 M42.0 1.6 L42.1 1.95 M42.1 2.1 L42.1 2.25 42.15 3.2 M43.0 2.95 L42.95 3.0 42.85 3.0 M41.95 3.35 L41.95 3.65 42.0 3.55 42.8 3.05 M41.95 3.65 L41.85 4.0 41.2 7.7 40.55 11.8 39.55 17.25 40.1 19.55 40.2 20.1 40.25 20.7 40.35 21.35 40.4 22.25 40.0 22.8 39.3 23.7 38.85 24.3 38.45 24.85 38.05 25.35 38.0 25.4 39.3 24.9 39.9 24.7 40.4 24.45 41.45 23.95 42.0 23.7 42.05 23.7 42.25 23.6 43.5 23.0 43.8 22.8 44.25 22.55 44.65 22.2 45.15 21.1 45.4 20.35 47.15 20.3 47.25 20.35 47.35 20.35 50.2 20.6 50.6 20.7 50.6 20.45 51.95 21.15 52.45 21.4 53.2 22.55 53.6 23.15 55.35 24.1 M38.2 13.2 L39.2 16.1 39.35 16.4 39.55 17.25 M45.05 12.75 L45.15 12.15 45.3 8.7 M45.8 13.8 L45.6 13.3 45.2 12.35 45.15 12.15 M48.8 15.0 L48.3 13.9 47.65 12.15 M48.8 15.0 L49.75 17.25 50.0 17.75 50.25 18.15 50.25 18.2 50.45 19.1 50.6 20.45 M46.95 16.1 L45.8 13.8 M46.95 16.2 L46.95 16.15 M46.95 16.2 L46.7 16.9 46.7 16.95 46.5 17.6 45.55 20.0 45.4 20.35 M45.0 13.3 L45.05 12.75 M45.0 13.3 L44.95 14.45 44.7 16.25 44.35 16.9 43.9 17.4 43.55 17.9 42.2 19.4 42.15 19.45 41.55 20.05 40.45 21.2 40.35 21.35 M42.5 25.9 L43.25 25.15 43.2 24.2 43.1 23.4 42.25 23.6 M51.5 23.35 L51.6 23.3 51.95 23.15 53.15 22.9 53.6 23.15 M44.0 27.7 L44.85 27.0 45.0 26.85 45.0 26.8 46.15 26.0 46.2 25.9 Q47.95 24.8 49.8 24.1 50.9 23.55 51.5 23.35 M53.3 28.8 L53.35 28.8 M51.75 33.1 L52.4 32.4 53.75 30.55 53.8 30.5 53.8 30.55 54.15 30.4 55.35 29.5 M53.75 30.55 L53.8 30.55 Q53.7 31.6 54.05 32.1 L55.25 33.3 55.35 33.4 M51.25 33.75 L51.75 33.1 M51.1 33.9 L51.05 33.95 51.0 34.1 50.95 34.15 50.85 34.25 50.2 35.0 50.05 35.4 50.0 35.5 50.0 35.55 49.9 35.65 49.55 36.3 47.7 39.7 46.6 41.75 M51.1 33.9 L51.25 33.75 M44.0 27.7 L43.65 28.15 43.6 28.2 41.95 31.0 41.35 32.25 41.0 32.95 M40.65 26.65 L40.95 26.65 41.5 26.45 42.5 25.9 M46.65 48.5 L46.65 47.95 M31.8 17.2 L32.2 16.9 33.2 16.1 35.25 14.8 35.25 14.75 37.05 13.8 38.2 13.25 38.2 13.2 M27.15 2.4 L27.15 2.3 26.85 2.05 M27.25 2.4 L27.3 2.45 29.95 7.75 30.0 7.95 29.9 7.95 28.3 8.3 M30.15 6.8 L30.3 5.45 30.3 5.4 M22.8 1.55 L24.8 4.2 24.9 4.4 M30.0 8.4 L30.05 8.0 30.0 7.95 M30.05 8.0 L30.15 6.8 M29.65 11.4 L29.15 10.55 28.5 9.5 27.85 8.5 M29.9 11.2 L29.8 10.25 30.0 8.4 M29.65 11.4 L29.8 11.7 29.9 12.0 30.25 13.45 29.9 11.2 M29.45 20.45 L29.55 18.85 29.65 18.85 31.05 17.75 30.95 17.2 30.9 16.8 30.85 16.65 30.25 13.45 M28.9 23.15 L29.15 22.55 29.45 20.5 29.45 20.45 M21.0 18.7 L21.05 18.9 21.45 20.45 21.55 20.6 22.2 21.55 23.35 23.7 23.5 23.85 23.55 23.85 23.6 23.35 23.95 23.2 24.15 23.2 24.3 23.2 24.8 23.2 25.35 23.15 25.3 23.05 24.8 22.4 23.7 20.9 21.75 17.95 21.1 15.95 20.6 14.6 20.2 13.45 19.95 12.8 18.25 10.5 16.55 9.35 14.95 8.5 14.7 8.4 14.65 8.35 13.95 5.5 M14.25 12.55 L14.05 12.65 13.8 12.8 13.35 12.95 12.7 13.25 11.4 13.65 11.35 13.7 10.7 13.85 9.95 14.0 10.3 14.6 11.35 16.75 11.4 16.75 12.3 16.95 13.8 17.15 14.15 17.25 14.75 17.35 15.95 17.6 16.95 17.75 20.05 18.45 21.0 18.7 M20.45 19.75 L21.0 19.8 21.45 20.45 M21.35 21.9 L21.35 25.25 20.35 25.2 19.8 26.7 19.7 27.1 19.6 27.6 19.95 28.5 21.3 31.45 24.35 29.95 24.85 30.0 25.35 29.95 26.05 29.9 27.25 29.65 27.35 29.8 M23.4 27.3 L23.4 26.55 23.4 26.2 23.4 25.75 23.4 24.3 23.4 24.0 23.35 23.75 23.35 23.7 M23.5 23.9 L23.55 23.85 M23.85 25.0 L23.45 24.1 23.5 23.9 M30.1 25.65 L28.8 24.95 28.75 24.95 28.2 24.55 27.5 24.0 26.5 23.05 25.35 23.15 M21.35 21.9 L21.0 19.8 M27.5 24.0 L28.75 23.25 28.9 23.15 M31.05 17.75 L31.1 17.75 30.9 16.8 M31.1 17.75 L31.8 17.2 M30.4 26.0 L31.6 27.4 31.6 27.45 30.85 28.5 30.65 28.5 30.4 28.45 30.15 28.4 29.65 28.35 29.45 28.3 29.35 28.3 29.25 28.3 28.7 27.5 28.25 26.9 27.5 26.8 27.0 26.65 26.0 26.5 24.85 26.3 24.55 26.2 24.3 26.15 24.05 25.6 24.0 25.35 23.9 25.2 M34.9 28.0 L35.1 27.9 36.3 27.25 36.75 26.9 38.0 25.4 M13.7 7.85 L13.6 7.75 12.5 7.3 12.15 7.1 13.2 8.35 13.4 8.85 13.8 10.1 13.85 10.35 14.05 11.0 14.05 11.2 14.1 11.3 14.1 11.35 14.15 11.6 14.25 12.3 14.25 12.45 M13.8 7.9 L14.25 8.15 14.65 8.35 M12.15 7.1 Q11.5 6.75 10.85 6.5 L10.65 6.45 10.0 6.15 9.8 6.05 9.35 5.85 M7.5 6.95 L6.95 8.0 6.9 8.1 6.9 8.15 6.85 8.2 7.05 8.5 7.2 8.85 7.35 9.1 7.7 9.7 8.6 11.4 8.65 11.5 9.2 12.55 9.5 13.15 9.95 14.0 M9.85 16.7 L9.85 16.65 9.85 16.6 10.75 16.7 11.35 16.75 M10.7 20.05 L10.4 19.8 10.25 19.7 9.85 19.35 9.85 18.85 9.85 16.7 M15.8 20.4 L16.2 20.55 16.3 20.55 16.1 20.05 15.75 19.2 15.45 18.6 14.75 17.35 M13.65 20.7 L13.3 20.3 13.45 21.15 13.5 21.85 13.6 22.7 13.65 22.85 Q13.85 24.35 14.5 25.15 L14.95 25.6 15.6 26.2 16.1 26.75 16.4 27.0 16.95 27.2 19.6 24.8 19.9 24.4 19.9 24.2 19.9 21.2 18.2 20.8 17.25 20.65 17.2 20.65 16.3 20.55 M10.7 20.05 L11.5 20.9 11.6 21.05 12.8 22.15 13.0 21.9 13.5 21.85 M12.8 22.15 L13.0 22.25 13.5 22.8 13.6 22.7 M18.0 20.4 L18.9 20.05 20.45 19.75 M15.75 20.55 L16.2 20.55 M15.8 20.4 L15.75 20.55 13.3 20.3 M17.25 20.65 L18.0 20.4 M19.95 12.8 L19.15 10.6 M23.45 28.7 L23.4 27.55 23.4 27.3 M6.2 38.4 Q10.0 43.35 14.45 47.85 L14.95 48.2 19.9 51.2 23.0 53.05 24.95 51.05 26.8 51.9 29.0 52.75 30.15 55.25 29.8 55.4 M10.5 24.85 L9.9 25.35 9.75 25.7 7.7 25.65 6.2 25.65 M9.95 25.75 L9.9 25.75 M9.6 26.15 L9.75 25.7 M9.6 26.15 L9.1 27.3 8.85 27.75 8.15 30.15 7.2 34.05 6.2 38.4 M3.95 30.45 L4.4 29.8 4.6 29.45 5.05 28.8 M3.95 30.45 L3.65 30.85 1.5 32.1 1.05 32.4 0.95 32.45 0.8 32.5 0.75 32.5 0.55 32.65 0.5 32.65 M39.05 27.45 L39.2 27.35 40.35 26.7 40.6 26.65 M38.05 28.2 L38.2 27.75 39.05 27.45 M36.2 28.25 L36.5 28.25 38.0 28.3 38.05 28.2 M38.3 28.8 Q38.45 28.75 38.55 28.65 L39.5 28.3 Q40.6 28.0 41.7 28.3 L40.4 31.45 40.3 31.65 40.15 31.95 Q40.35 33.4 40.15 33.7 L38.9 35.95 38.7 36.25 39.05 36.75 39.25 37.05 39.3 36.95 39.15 36.8 39.4 36.8 40.3 34.5 40.95 33.05 M35.2 28.2 L34.95 28.2 M36.05 30.35 L36.4 29.45 36.5 29.3 37.9 29.05 38.25 28.8 38.3 28.8 M35.35 28.2 L35.2 28.2 M34.05 28.45 L34.2 28.3 34.7 28.1 34.9 28.0 M30.6 32.15 L33.4 30.3 33.45 30.25 33.55 30.3 34.2 30.9 34.85 31.5 35.3 32.0 36.05 30.35 M33.3 28.8 L31.8 29.45 31.45 29.0 31.0 28.55 30.85 28.5 M28.2 30.65 L28.45 30.95 29.8 32.65 30.6 32.15 M35.1 27.9 L35.0 28.15 34.95 28.15 M34.05 28.45 L33.55 28.65 33.3 28.8 M39.05 36.75 L39.15 36.8 M39.3 36.95 L39.4 36.8 M35.35 28.2 L36.2 28.25 M27.75 30.15 L27.85 30.25 28.2 30.65 M23.6 28.9 L23.7 29.0 24.35 29.95 M23.45 28.7 L23.6 28.95 M39.95 38.15 L39.25 37.05 M33.85 49.4 L33.85 50.55 34.2 51.8 34.3 52.2 Q34.85 53.5 35.55 54.55 L35.85 54.4 36.1 54.2 40.2 51.65 M30.1 25.65 L30.4 26.0 M10.5 24.85 L13.5 22.8 M36.1 55.4 L36.35 55.3 38.85 55.4 M24.4 55.4 L23.0 53.05 M11.9 55.1 L11.8 55.1 9.55 54.7 9.5 54.7 9.65 55.35 9.65 55.4 M12.3 55.2 L11.9 55.1 M12.55 55.4 L12.35 55.2 12.3 55.2 M53.8 55.4 L53.9 53.55 54.05 52.7 55.15 51.85 55.35 51.7 M51.25 53.5 L51.0 53.35 49.1 53.5 48.6 53.55 48.45 53.55 46.65 53.6 46.45 53.6 45.4 53.7 45.5 53.4 46.25 53.55 46.25 53.3 46.25 53.05 46.45 50.8 46.55 49.75 48.45 49.55 Q49.25 49.5 49.8 50.1 L49.9 50.2 50.25 50.7 Q50.75 51.65 51.0 53.35 M43.0 53.05 L44.3 53.25 45.5 53.4 M43.0 53.05 L41.15 54.8 40.6 55.4 M46.65 48.5 L46.55 49.75 M-1.4 53.85 Q0.05 54.45 1.3 55.35" fill="none" stroke="#231a2d" stroke-linecap="round" stroke-linejoin="round" stroke-width="1.0"/>
      <path d="M38.15 15.3 L38.2 15.45 38.55 16.4 39.2 18.7 39.3 18.9 39.7 20.8 39.7 20.85 39.9 21.45 39.9 21.75 40.0 22.8 M32.95 18.45 L36.95 16.05 38.15 15.3 M32.75 18.6 L32.95 18.45 M31.3 19.85 L31.3 19.8 31.3 19.55 31.45 19.5 31.5 19.45 32.75 18.6 M30.75 23.0 L30.75 23.05 30.65 23.3 28.8 24.95 M30.75 22.8 L30.75 22.75 31.3 19.85" fill="none" stroke="#5d2500" stroke-linecap="round" stroke-linejoin="round" stroke-width="1.0"/>
      <path d="M52.2 14.3 L52.55 14.15 52.6 14.15 53.0 14.1 53.05 14.1 53.1 14.15 53.2 14.35 53.25 14.35 54.05 14.0 54.45 13.85 54.65 13.8 54.8 13.8 55.0 13.65 55.35 13.6 M54.9 15.6 L55.35 15.95 M54.9 15.6 L53.25 14.35" fill="none" stroke="#291923" stroke-linecap="round" stroke-linejoin="round" stroke-width="1.0"/>
      <path d="M44.5 39.35 L45.3 39.9 45.6 40.25 46.5 41.6 46.6 41.75 47.8 44.1 47.2 46.1 47.0 46.85 46.65 47.95 46.0 48.3 43.1 49.6 42.55 49.75 M39.35 39.1 L39.95 38.15 Q43.0 38.45 44.5 39.35 M38.0 40.9 L39.35 39.1 M38.9 47.8 L42.35 49.6 M38.85 47.8 L35.9 44.65 35.85 43.9 38.0 40.9" fill="none" stroke="#642409" stroke-linecap="round" stroke-linejoin="round" stroke-width="1.0"/>
    </g>
    <g id="shape2" transform="matrix(1.0, 0.0, 0.0, 1.0, 0.0, 0.0)">
      <path d="M50.5 0.0 Q53.95 0.0 53.95 3.3 L53.95 50.15 Q53.95 53.4 50.5 53.4 L3.3 53.4 Q0.0 53.4 0.0 50.15 L0.0 3.3 Q0.0 0.0 3.3 0.0 L50.5 0.0" fill="#000000" fill-opacity="0.003921569" fill-rule="evenodd" stroke="none"/>
    </g>
  </defs>
</svg>
