<?xml version="1.0" encoding="UTF-8" standalone="no"?>
<svg xmlns:ffdec="https://www.free-decompiler.com/flash" xmlns:xlink="http://www.w3.org/1999/xlink" ffdec:objectType="frame" height="55.45px" width="56.35px" xmlns="http://www.w3.org/2000/svg">
  <g transform="matrix(1.0, 0.0, 0.0, 1.0, 1.05, 1.1)">
    <clipPath id="clipPath0" transform="matrix(1.0, 0.0, 0.0, 1.0, 0.0, 0.0)">
      <path d="M50.5 0.0 Q53.95 0.0 53.95 3.3 L53.95 50.15 Q53.95 53.4 50.5 53.4 L3.3 53.4 Q0.0 53.4 0.0 50.15 L0.0 3.3 Q0.0 0.0 3.3 0.0 L50.5 0.0" fill="#000000" fill-rule="evenodd" stroke="none"/>
    </clipPath>
    <g clip-path="url(#clipPath0)">
      <use ffdec:characterId="2" height="55.45" transform="matrix(1.0, 0.0, 0.0, 1.0, -1.05, -1.1)" width="56.35" xlink:href="#shape1"/>
    </g>
    <use ffdec:characterId="3" height="53.4" transform="matrix(1.0, 0.0, 0.0, 1.0, 0.0, 0.0)" width="53.95" xlink:href="#shape2"/>
  </g>
  <defs>
    <g id="shape1" transform="matrix(1.0, 0.0, 0.0, 1.0, 1.05, 1.1)">
      <path d="M9.25 0.5 Q7.25 4.6 7.25 7.7 L7.25 7.9 7.55 9.9 7.8 10.7 Q8.3 12.0 9.1 13.3 9.9 14.55 10.65 15.2 L10.8 15.35 11.4 15.7 10.0 16.5 9.85 16.6 9.65 16.65 Q8.8 16.95 8.0 17.9 7.1 18.95 7.05 19.8 L6.85 19.7 6.45 19.05 6.4 19.0 Q5.55 17.4 5.3 16.2 L5.25 16.05 5.05 14.65 5.0 13.2 5.0 9.4 Q5.15 4.1 9.15 0.45 L9.25 0.5 M42.2 17.15 L42.55 17.3 42.6 17.7 42.65 18.2 Q42.75 19.3 43.35 20.25 L43.55 20.5 Q44.3 21.5 45.55 22.1 L46.95 22.55 47.25 22.55 47.35 23.25 47.4 23.35 47.05 23.5 46.95 23.5 46.8 23.5 46.15 23.7 45.85 23.7 44.25 23.35 43.8 23.15 43.05 22.75 41.6 21.7 Q40.95 20.95 40.9 20.15 L40.65 19.95 40.8 19.8 41.0 19.6 41.7 18.65 42.15 17.35 42.2 17.15 M29.75 13.5 L29.8 13.5 Q31.0 13.75 31.85 14.45 L31.95 14.55 32.5 15.1 33.15 16.0 33.75 16.8 34.4 17.75 34.55 18.0 35.1 18.55 35.6 19.0 Q36.6 19.75 38.1 19.95 L39.05 20.0 39.3 20.8 Q38.8 21.1 38.15 21.2 L37.05 21.35 35.35 20.9 35.2 20.85 35.1 20.8 33.55 19.55 33.15 19.15 32.65 18.5 31.65 17.3 Q30.45 15.85 29.9 15.75 L29.8 15.5 29.65 15.25 29.6 15.1 29.75 14.55 29.75 13.8 29.75 13.6 29.75 13.5 M18.9 11.35 L19.15 11.55 19.25 11.65 19.15 11.85 19.1 12.05 18.8 13.6 18.95 14.95 Q19.1 15.8 19.5 16.55 L19.95 17.15 20.45 17.7 20.85 18.05 21.75 18.65 21.8 18.65 23.2 19.1 23.85 19.25 24.05 19.25 24.35 19.25 24.7 19.25 24.75 19.25 26.2 19.15 26.25 19.1 26.65 19.05 Q28.05 18.75 28.6 18.25 L27.25 19.3 26.45 19.75 26.25 19.8 25.05 20.15 24.8 20.2 24.65 20.25 24.2 20.3 24.1 20.3 24.05 20.3 23.6 20.35 23.3 20.35 23.1 20.35 22.1 20.35 21.5 20.2 21.3 20.15 20.4 19.75 20.0 19.5 19.7 19.3 19.65 19.3 Q19.65 19.15 19.5 19.2 L19.2 18.8 19.15 18.7 18.65 18.0 18.55 17.75 18.15 16.95 17.8 15.6 17.75 15.05 Q17.75 13.5 18.35 12.25 L18.9 11.35 M24.2 20.3 L24.35 20.3 24.65 20.25 24.35 20.3 24.2 20.3 M24.05 20.0 L24.05 20.3 24.05 20.0" fill="#738792" fill-rule="evenodd" stroke="none"/>
      <path d="M10.45 -0.6 L20.3 -0.6 19.5 0.5 Q19.15 1.35 19.15 2.45 19.15 5.3 21.15 7.0 L21.7 7.35 22.25 7.75 24.1 8.5 23.75 8.5 22.3 8.9 21.85 9.05 20.95 9.5 20.7 9.65 20.6 9.75 19.85 10.3 19.35 10.8 19.15 11.0 18.9 11.35 19.15 11.0 19.35 10.8 19.85 10.3 20.6 9.75 20.7 9.65 20.95 9.5 21.85 9.05 22.3 8.9 23.75 8.5 24.1 8.5 25.55 8.7 25.8 8.7 26.25 8.65 26.4 8.65 28.6 8.25 Q30.4 7.8 31.05 6.9 L31.35 5.95 31.35 5.45 Q32.05 5.3 32.05 4.5 L31.75 3.25 31.1 2.5 30.85 2.4 30.35 1.6 28.1 -0.3 27.55 -0.6 30.35 -0.6 Q33.75 1.95 34.5 5.4 L35.3 9.75 35.3 9.95 35.25 9.95 34.8 10.1 34.45 10.3 34.25 10.5 33.75 11.0 Q33.45 11.45 33.45 12.05 L33.45 12.6 33.55 13.05 Q33.8 14.6 35.05 15.85 L35.6 16.3 35.95 16.55 Q36.7 17.05 37.6 17.35 L39.5 17.6 39.75 17.6 41.3 17.55 41.8 17.15 41.9 17.05 42.35 16.45 42.35 16.4 42.4 15.85 42.45 15.35 42.3 13.2 42.25 13.05 44.45 12.5 45.5 12.4 Q44.95 12.7 44.55 13.35 L44.05 14.4 44.0 14.55 Q43.85 15.2 43.85 16.0 43.85 17.25 44.15 18.25 L44.9 19.7 Q45.65 20.7 46.8 21.2 L47.0 21.3 48.85 21.65 49.3 21.65 49.35 21.95 49.25 22.1 Q48.55 22.9 47.55 23.3 L47.4 23.35 47.35 23.25 47.25 22.55 46.95 22.55 45.55 22.1 Q44.3 21.5 43.55 20.5 L43.35 20.25 Q42.75 19.3 42.65 18.2 L42.6 17.7 42.55 17.3 42.2 17.15 42.15 17.35 41.7 18.65 41.0 19.6 40.8 19.8 40.65 19.95 40.05 20.4 39.7 20.6 39.4 20.75 39.3 20.8 39.05 20.0 38.1 19.95 Q36.6 19.75 35.6 19.0 L35.1 18.55 34.55 18.0 34.4 17.75 33.75 16.8 33.15 16.0 32.5 15.1 31.95 14.55 31.85 14.45 Q31.0 13.75 29.8 13.5 L29.75 13.5 29.75 13.45 Q29.7 12.3 29.3 11.35 29.7 12.3 29.75 13.45 L29.75 13.5 29.75 13.6 29.75 13.8 29.75 14.55 29.6 15.1 29.65 15.25 29.8 15.5 29.9 15.75 29.8 15.75 29.75 15.65 29.5 15.8 Q29.5 17.1 28.75 18.05 L28.6 18.25 Q28.05 18.75 26.65 19.05 L26.25 19.1 26.2 19.15 24.75 19.25 24.7 19.25 24.35 19.25 24.05 19.25 23.85 19.25 23.2 19.1 21.8 18.65 21.75 18.65 20.85 18.05 20.45 17.7 19.95 17.15 19.5 16.55 Q19.1 15.8 18.95 14.95 L18.8 13.6 19.1 12.05 19.15 11.85 19.25 11.65 19.15 11.55 18.9 11.35 18.35 12.25 Q17.75 13.5 17.75 15.05 L17.8 15.6 18.15 16.95 18.55 17.75 18.65 18.0 19.15 18.7 19.2 18.8 19.5 19.2 19.7 19.35 19.65 20.0 19.35 20.85 18.85 21.8 18.75 22.0 18.55 22.15 17.1 23.5 Q14.9 25.05 13.05 25.05 L11.25 24.65 11.1 24.55 10.55 24.2 10.2 23.95 9.3 23.15 9.05 22.9 8.8 22.6 8.5 22.3 8.45 22.2 8.5 22.3 8.8 22.6 9.05 22.9 9.3 23.15 10.2 23.95 10.05 23.85 9.95 23.85 Q9.35 26.45 7.35 29.0 5.65 31.2 4.65 31.4 L4.55 31.55 4.4 31.6 4.05 31.5 2.9 31.1 1.2 29.95 Q-0.35 28.45 -0.35 26.35 -0.35 24.25 2.05 22.75 L2.5 22.45 2.45 22.6 Q1.9 23.4 1.9 24.05 1.9 25.3 2.5 26.1 3.15 27.0 4.3 27.0 L5.0 26.9 Q5.8 26.65 6.7 25.9 L6.85 25.8 8.05 24.3 8.25 23.75 8.45 22.45 8.45 22.2 8.2 21.9 8.05 21.7 7.9 21.55 7.7 21.25 7.55 21.05 7.5 20.9 7.05 19.9 7.05 19.8 Q7.1 18.95 8.0 17.9 8.8 16.95 9.65 16.65 L9.5 17.55 9.5 17.75 9.6 18.75 9.9 19.4 10.0 19.5 10.65 20.1 11.5 20.45 11.65 20.45 12.9 20.6 Q14.95 20.6 16.05 19.4 16.75 18.65 17.05 17.4 L17.1 17.05 17.25 15.7 17.2 15.05 Q17.1 13.9 16.65 13.15 L16.05 12.55 Q15.7 12.25 15.25 12.2 L14.95 12.15 14.65 12.1 Q14.25 12.1 13.95 12.4 L13.9 12.4 12.65 14.35 12.5 14.55 12.35 14.75 11.9 15.25 11.45 15.65 11.4 15.7 10.8 15.35 10.65 15.2 Q9.9 14.55 9.1 13.3 8.3 12.0 7.8 10.7 L7.55 9.9 7.25 7.9 7.25 7.7 Q7.25 4.6 9.25 0.5 L9.4 0.3 9.6 0.05 10.45 -0.6 M17.25 11.25 L16.3 11.1 15.9 11.1 15.7 11.15 15.15 11.35 Q14.5 11.65 13.95 12.4 14.5 11.65 15.15 11.35 L15.7 11.15 15.9 11.1 16.3 11.1 17.25 11.25 M42.2 17.15 L42.35 16.45 42.2 17.15 M29.95 11.1 L33.55 10.55 34.45 10.3 33.55 10.55 29.95 11.1 29.1 10.95 28.25 9.85 Q27.45 9.05 26.4 8.75 L26.25 8.65 26.4 8.75 Q27.45 9.05 28.25 9.85 L29.1 10.95 29.3 11.35 29.95 11.1 M22.2 10.35 L22.0 10.45 22.0 10.5 21.85 10.6 21.35 11.1 Q20.8 11.9 20.8 13.05 20.8 14.25 21.4 15.05 L22.0 15.7 22.25 15.9 22.85 16.2 23.0 16.3 24.8 16.6 25.65 16.5 26.05 16.45 Q26.95 16.2 27.5 15.7 L27.75 15.4 28.25 14.4 28.35 13.85 28.4 13.3 Q28.4 12.4 27.6 11.4 L27.6 11.35 27.55 11.3 26.35 10.2 26.25 10.15 26.05 10.05 25.8 10.0 25.1 9.85 24.15 9.75 Q23.1 9.75 22.2 10.35 M17.7 5.3 L17.25 4.2 16.8 3.85 16.35 3.6 16.15 3.45 15.35 3.25 15.25 3.3 Q15.0 3.3 14.6 3.65 L14.2 4.1 Q14.05 4.35 14.05 4.65 14.05 5.6 14.75 6.1 L15.45 6.45 16.0 6.55 16.2 6.55 17.1 6.25 Q17.7 5.9 17.7 5.3" fill="#3a94c9" fill-rule="evenodd" stroke="none"/>
      <path d="M11.4 15.7 L11.45 15.65 11.9 15.25 12.35 14.75 12.5 14.55 12.65 14.35 13.9 12.4 13.95 12.4 Q14.25 12.1 14.65 12.1 L14.95 12.15 15.25 12.2 Q15.7 12.25 16.05 12.55 L16.65 13.15 Q17.1 13.9 17.2 15.05 L17.25 15.7 17.1 17.05 17.05 17.4 Q16.75 18.65 16.05 19.4 14.95 20.6 12.9 20.6 L11.65 20.45 11.5 20.45 10.65 20.1 10.0 19.5 9.9 19.4 9.6 18.75 9.5 17.75 9.5 17.55 9.65 16.65 9.85 16.6 10.0 16.5 11.4 15.7 M20.3 -0.6 L27.55 -0.6 28.1 -0.3 30.35 1.6 30.85 2.4 30.4 2.45 30.0 2.5 Q29.7 2.5 29.5 2.8 L29.3 3.3 Q29.15 2.7 28.6 1.85 L28.25 2.0 Q27.9 1.3 26.55 0.6 L26.1 0.35 24.2 -0.35 Q22.95 -0.35 22.5 0.55 L22.3 1.4 22.3 1.75 Q22.3 3.45 23.2 4.7 24.25 6.15 26.25 6.15 L26.5 6.15 26.9 6.1 28.25 5.6 Q28.45 5.45 28.6 5.35 29.3 4.85 29.4 4.2 L29.7 4.75 Q30.3 5.5 31.0 5.5 L31.35 5.45 31.35 5.95 31.05 6.9 Q30.4 7.8 28.6 8.25 L26.4 8.65 26.25 8.65 25.6 8.5 24.8 8.45 24.1 8.5 22.25 7.75 21.7 7.35 21.15 7.0 Q19.15 5.3 19.15 2.45 19.15 1.35 19.5 0.5 L20.3 -0.6 M35.25 10.15 L35.65 9.9 36.6 9.6 38.65 9.3 Q40.2 9.3 41.1 10.3 41.9 11.1 42.05 12.5 L42.25 12.85 42.25 13.0 42.25 13.05 42.3 13.2 42.45 15.35 42.4 15.85 42.35 16.4 42.35 16.45 41.9 17.05 41.8 17.15 41.3 17.55 39.75 17.6 39.5 17.6 37.6 17.35 Q36.7 17.05 35.95 16.55 L35.6 16.3 35.05 15.85 Q33.8 14.6 33.55 13.05 L33.45 12.6 33.45 12.05 Q33.45 11.45 33.75 11.0 L34.25 10.5 34.45 10.3 34.8 10.1 35.2 10.15 35.25 10.15 M45.5 12.4 Q47.1 12.5 48.35 13.55 49.7 14.7 50.2 16.05 50.55 17.05 50.5 18.1 50.4 20.4 49.6 21.65 L49.3 21.65 48.85 21.65 47.0 21.3 46.8 21.2 Q45.65 20.7 44.9 19.7 L44.15 18.25 Q43.85 17.25 43.85 16.0 43.85 15.2 44.0 14.55 L44.05 14.4 44.55 13.35 Q44.95 12.7 45.5 12.4 M2.5 22.45 L2.9 22.15 3.45 21.8 3.8 21.5 4.3 21.15 4.35 21.15 4.4 21.1 Q4.15 21.5 4.15 21.95 L4.35 23.05 Q4.7 23.7 5.65 23.7 L6.6 23.55 7.35 23.05 8.05 21.7 8.2 21.9 8.45 22.2 8.45 22.45 8.25 23.75 8.05 24.3 6.85 25.8 6.7 25.9 Q5.8 26.65 5.0 26.9 L4.3 27.0 Q3.15 27.0 2.5 26.1 1.9 25.3 1.9 24.05 1.9 23.4 2.45 22.6 L2.5 22.45 M47.55 14.75 L46.9 14.65 Q45.7 14.65 45.35 15.65 L45.2 16.2 45.2 16.65 Q45.2 17.6 45.8 18.5 L46.35 19.15 Q46.8 19.55 47.4 19.55 L47.6 19.55 48.45 19.25 Q49.2 18.85 49.2 18.05 L49.15 17.75 49.0 16.85 48.8 16.35 Q48.55 15.05 47.55 14.75 M40.85 13.7 L40.8 13.15 Q40.55 12.2 39.55 11.45 38.65 10.8 38.15 10.8 37.25 10.8 36.55 11.25 35.75 11.75 35.65 12.75 L35.65 12.85 35.85 13.85 36.25 14.8 37.05 15.8 37.75 16.15 38.6 16.3 39.2 16.2 39.45 16.1 39.8 15.95 40.15 15.7 Q40.75 15.1 40.85 14.35 L40.85 14.05 40.85 13.7 M22.2 10.35 Q23.1 9.75 24.15 9.75 L25.1 9.85 25.8 10.0 26.05 10.05 26.25 10.15 26.35 10.2 27.55 11.3 27.6 11.35 27.6 11.4 Q28.4 12.4 28.4 13.3 L28.35 13.85 28.25 14.4 27.75 15.4 27.5 15.7 Q26.95 16.2 26.05 16.45 L25.65 16.5 24.8 16.6 23.0 16.3 22.85 16.2 22.25 15.9 22.0 15.7 21.4 15.05 Q20.8 14.25 20.8 13.05 20.8 11.9 21.35 11.1 L21.85 10.6 22.0 10.5 22.0 10.45 22.2 10.35 M24.85 10.85 L24.45 10.8 23.35 11.1 Q23.05 11.25 22.85 11.5 22.6 11.8 22.6 12.25 22.6 13.0 23.05 13.9 23.65 15.1 24.65 15.1 L24.8 15.1 25.05 15.1 25.35 15.05 26.3 14.8 Q27.35 14.35 27.35 13.5 27.35 12.7 27.0 12.1 26.7 11.55 26.1 11.45 L25.95 11.45 25.55 11.15 24.85 10.85 M15.55 18.05 Q15.9 17.5 15.9 16.75 L15.55 14.9 14.9 13.8 14.35 14.55 13.65 15.55 13.2 16.3 12.5 17.45 Q12.5 18.15 12.65 18.5 12.95 19.05 13.65 19.1 L13.75 19.1 15.0 18.65 15.55 18.05" fill="#37cad4" fill-rule="evenodd" stroke="none"/>
      <path d="M29.4 4.2 Q29.3 4.85 28.6 5.35 28.45 5.45 28.25 5.6 L26.9 6.1 26.5 6.15 26.25 6.15 Q24.25 6.15 23.2 4.7 22.3 3.45 22.3 1.75 L22.3 1.4 22.5 0.55 Q22.95 -0.35 24.2 -0.35 L26.1 0.35 26.55 0.6 Q27.9 1.3 28.25 2.0 L28.6 1.85 Q29.15 2.7 29.3 3.3 L29.3 3.7 29.4 4.2 M4.5 21.05 L6.45 19.05 6.85 19.7 7.05 19.8 7.05 19.9 7.5 20.9 7.55 21.05 7.7 21.25 7.9 21.55 8.05 21.7 7.35 23.05 6.6 23.55 5.65 23.7 Q4.7 23.7 4.35 23.05 L4.15 21.95 Q4.15 21.5 4.4 21.1 L4.5 21.05 M48.8 16.35 L49.0 16.85 49.15 17.75 49.2 18.05 Q49.2 18.85 48.45 19.25 L47.6 19.55 47.4 19.55 Q46.8 19.55 46.35 19.15 L45.8 18.5 Q45.2 17.6 45.2 16.65 L45.2 16.2 45.35 15.65 Q45.7 14.65 46.9 14.65 L47.55 14.75 Q48.05 14.95 48.6 15.95 L48.8 16.35 M40.85 13.7 L40.85 14.05 40.85 14.35 Q40.75 15.1 40.15 15.7 L39.8 15.95 39.45 16.1 39.2 16.2 38.6 16.3 37.75 16.15 37.05 15.8 36.25 14.8 35.85 13.85 35.65 12.85 35.65 12.75 Q35.75 11.75 36.55 11.25 37.25 10.8 38.15 10.8 38.65 10.8 39.55 11.45 40.55 12.2 40.8 13.15 L40.85 13.7 M24.85 10.85 L25.55 11.15 25.95 11.45 26.1 11.45 Q26.7 11.55 27.0 12.1 27.35 12.7 27.35 13.5 27.35 14.35 26.3 14.8 L25.35 15.05 25.05 15.1 24.8 15.1 24.65 15.1 Q23.65 15.1 23.05 13.9 22.6 13.0 22.6 12.25 22.6 11.8 22.85 11.5 23.05 11.25 23.35 11.1 L24.45 10.8 24.85 10.85 M15.55 18.05 L15.0 18.65 13.75 19.1 13.65 19.1 Q12.95 19.05 12.65 18.5 12.5 18.15 12.5 17.45 L13.2 16.3 13.65 15.55 14.35 14.55 14.9 13.8 15.55 14.9 15.9 16.75 Q15.9 17.5 15.55 18.05" fill="#8ef5fa" fill-rule="evenodd" stroke="none"/>
      <path d="M39.3 20.8 L39.4 20.75 39.7 20.6 40.05 20.4 40.65 19.95 40.9 20.15 Q40.95 20.95 41.6 21.7 40.4 21.95 38.6 22.75 L36.55 23.65 Q35.8 24.0 35.5 24.25 L34.15 25.4 Q34.05 27.55 33.65 28.9 L33.1 29.6 33.1 29.65 32.8 30.55 Q31.2 33.1 28.3 34.35 L26.2 35.05 21.5 35.55 Q18.65 35.55 16.85 34.85 L16.25 37.55 Q15.95 36.65 15.2 35.9 L14.35 35.25 Q13.75 34.9 13.05 34.7 L11.95 34.7 11.65 34.7 Q10.3 35.15 9.3 36.3 L10.1 33.6 Q11.2 30.55 12.85 29.4 L12.75 29.3 13.05 29.15 14.1 29.4 15.7 29.45 19.0 29.2 20.35 31.2 Q22.75 34.1 26.35 34.2 29.7 34.25 31.6 31.6 33.0 29.8 33.3 27.6 L33.4 25.7 Q33.25 23.3 32.05 21.2 L31.25 19.95 32.45 19.45 33.15 19.15 33.55 19.55 35.1 20.8 35.2 20.85 35.35 20.9 37.05 21.35 38.15 21.2 Q38.8 21.1 39.3 20.8 M13.05 38.4 Q13.7 38.95 13.7 40.15 13.7 40.75 12.85 42.05 L12.75 42.2 Q12.05 43.3 12.15 43.65 L12.05 43.65 Q11.65 42.65 10.45 41.75 9.55 41.0 9.55 39.9 9.55 39.05 10.3 38.45 11.0 37.85 11.9 37.85 L12.05 37.85 12.35 38.0 12.5 38.05 Q12.85 38.15 13.05 38.35 L13.05 38.4" fill="#e15f5d" fill-rule="evenodd" stroke="none"/>
      <path d="M44.25 23.35 L45.85 23.7 46.15 23.7 46.8 23.5 46.95 23.5 47.0 23.55 46.25 24.95 46.05 25.3 44.2 27.65 43.2 28.7 43.05 28.6 Q42.25 28.2 41.4 27.9 L41.25 27.85 Q41.35 25.75 42.8 24.3 L44.25 23.35 M28.6 18.25 L28.75 18.05 Q30.25 18.7 31.25 19.95 L32.05 21.2 Q33.25 23.3 33.4 25.7 L33.3 27.6 30.9 26.15 27.5 23.25 26.85 22.55 24.65 20.25 24.8 20.2 25.05 20.15 26.25 19.8 26.45 19.75 27.25 19.3 28.6 18.25" fill="#fd807e" fill-rule="evenodd" stroke="none"/>
      <path d="M49.35 32.6 Q50.55 36.15 51.0 39.4 L51.3 42.25 51.3 43.2 50.6 42.1 50.35 41.65 Q49.35 40.4 47.75 40.15 L47.7 40.15 Q46.3 40.15 45.65 41.25 44.9 42.65 44.65 44.2 L44.6 44.3 44.55 44.75 Q44.05 46.5 42.15 46.65 L41.75 46.65 Q38.95 46.6 38.5 43.7 L38.15 41.8 38.15 41.7 Q37.85 39.9 36.55 38.6 34.1 35.95 30.5 36.55 28.9 36.75 27.95 37.7 27.4 38.25 27.1 39.1 L26.95 39.5 25.75 43.85 Q25.3 45.8 23.75 46.5 L22.05 46.85 Q18.85 47.05 16.95 44.2 16.2 43.05 16.05 42.0 L16.05 41.7 16.1 41.25 16.3 40.45 16.5 39.1 16.35 37.95 16.25 37.55 16.85 34.85 Q18.65 35.55 21.5 35.55 L26.2 35.05 28.3 34.35 Q31.2 33.1 32.8 30.55 L32.8 30.65 32.8 31.05 Q32.85 32.05 33.45 32.95 L34.7 34.4 34.75 34.45 36.15 35.6 37.85 36.7 39.4 37.4 41.0 37.85 42.35 38.1 42.35 37.85 42.7 37.85 42.75 38.1 42.95 38.1 44.15 38.05 44.65 38.0 46.0 37.35 46.75 36.75 47.25 36.15 47.85 34.8 47.8 33.9 49.35 32.6 M41.6 21.7 L43.05 22.75 43.8 23.15 44.25 23.35 42.8 24.3 Q41.35 25.75 41.25 27.85 L39.75 27.35 37.85 27.3 37.8 27.3 Q36.7 27.15 35.6 27.75 34.7 28.2 33.9 28.7 L33.7 28.85 33.65 28.9 Q34.05 27.55 34.15 25.4 L35.5 24.25 Q35.8 24.0 36.55 23.65 L38.6 22.75 Q40.4 21.95 41.6 21.7 M42.35 38.1 L42.75 38.1 42.35 38.1 M48.95 45.7 L48.75 46.65 Q48.35 47.8 46.95 49.35 L46.4 49.95 46.35 48.85 46.35 46.35 Q46.35 45.75 46.5 45.3 46.85 44.15 48.05 44.15 L48.8 44.45 48.95 45.7 M29.5 42.75 Q29.45 41.95 30.1 40.95 30.75 40.0 31.65 40.1 L32.95 40.4 33.15 40.55 33.55 41.6 33.6 42.4 Q33.6 43.8 32.75 44.7 31.85 45.65 31.7 46.85 L30.5 45.1 Q29.6 43.55 29.5 42.75" fill="#f78278" fill-rule="evenodd" stroke="none"/>
      <path d="M47.55 23.3 Q48.95 23.85 49.7 25.45 50.4 26.85 50.5 28.5 50.6 30.7 49.45 32.45 L49.35 32.6 47.8 33.9 47.8 33.8 47.3 32.6 47.05 32.05 46.45 31.1 46.35 31.05 47.0 30.7 Q47.9 30.15 48.0 29.05 L48.05 28.7 Q48.05 27.95 47.35 26.7 L46.25 24.95 47.0 23.55 46.95 23.5 47.05 23.5 47.4 23.35 47.55 23.3 M46.6 29.35 L46.2 29.1 46.05 28.6 Q46.05 28.1 46.6 28.05 47.15 27.95 47.15 28.6 L47.1 28.95 46.6 29.35 M23.6 20.35 L22.85 21.0 Q21.1 22.65 20.95 23.7 L20.8 25.0 Q20.9 26.85 21.95 28.3 L22.05 28.4 Q23.5 30.25 25.7 30.25 27.5 30.25 28.9 29.4 30.7 28.3 30.9 26.15 L33.3 27.6 Q33.0 29.8 31.6 31.6 29.7 34.25 26.35 34.2 22.75 34.1 20.35 31.2 L19.0 29.2 Q18.15 27.3 18.1 25.1 18.1 23.4 18.75 22.0 L18.85 21.8 19.35 20.85 20.4 19.75 21.3 20.15 21.5 20.2 22.1 20.35 23.1 20.35 23.3 20.35 23.6 20.35" fill="#ffebe8" fill-rule="evenodd" stroke="none"/>
      <path d="M43.2 28.7 L44.2 27.65 46.05 25.3 46.25 24.95 47.35 26.7 Q48.05 27.95 48.05 28.7 L48.0 29.05 Q47.9 30.15 47.0 30.7 L46.35 31.05 45.4 30.0 45.15 29.8 44.3 29.4 44.85 29.55 43.2 28.7 M46.6 29.35 L47.1 28.95 47.15 28.6 Q47.15 27.95 46.6 28.05 46.05 28.1 46.05 28.6 L46.2 29.1 46.6 29.35 M44.85 29.55 L45.15 29.8 44.85 29.55 M30.9 26.15 Q30.7 28.3 28.9 29.4 27.5 30.25 25.7 30.25 23.5 30.25 22.05 28.4 L21.95 28.3 Q20.9 26.85 20.8 25.0 L20.95 23.7 Q21.1 22.65 22.85 21.0 L23.6 20.35 24.05 20.3 24.1 20.3 24.2 20.3 24.65 20.25 26.85 22.55 27.5 23.25 30.9 26.15 M23.6 26.6 Q24.5 26.6 25.0 25.9 25.4 25.4 25.4 24.75 25.4 23.2 23.65 22.95 21.85 22.75 21.85 24.75 L22.05 25.75 Q22.5 26.6 23.6 26.6" fill="#421011" fill-rule="evenodd" stroke="none"/>
      <path d="M41.25 27.85 L41.4 27.9 Q42.25 28.2 43.05 28.6 L43.2 28.7 44.85 29.55 44.3 29.4 45.15 29.8 45.4 30.0 46.35 31.05 46.45 31.1 47.05 32.05 47.3 32.6 47.8 33.8 47.8 33.9 47.85 34.8 47.25 36.15 46.75 36.75 46.0 37.35 44.65 38.0 44.15 38.05 45.2 36.55 45.6 35.45 45.65 35.3 45.75 34.25 45.75 34.15 Q45.7 33.15 44.85 31.9 44.0 30.65 43.45 30.45 L41.95 29.75 41.45 29.5 41.4 29.5 Q39.25 28.65 37.95 28.65 L37.2 28.75 34.7 29.05 33.6 29.4 Q33.55 29.4 33.45 29.5 L33.1 29.6 33.65 28.9 33.7 28.85 33.9 28.7 Q34.7 28.2 35.6 27.75 36.7 27.15 37.8 27.3 L37.85 27.3 39.75 27.35 41.25 27.85" fill="#eebb82" fill-rule="evenodd" stroke="none"/>
      <path d="M33.1 29.6 L33.45 29.5 Q33.55 29.4 33.6 29.4 L34.7 29.05 37.2 28.75 37.95 28.65 Q39.25 28.65 41.4 29.5 L41.45 29.5 41.95 29.75 43.45 30.45 Q44.0 30.65 44.85 31.9 45.7 33.15 45.75 34.15 L45.75 34.25 45.65 35.3 45.6 35.45 45.2 36.55 44.15 38.05 42.95 38.1 42.75 38.1 42.7 37.85 43.65 37.5 43.85 37.35 44.6 36.55 44.7 36.15 44.45 35.05 Q44.25 34.35 43.8 34.35 L43.3 34.65 43.85 33.75 43.95 33.5 44.15 32.3 44.1 31.6 44.0 31.4 43.35 30.65 43.15 30.55 42.5 30.35 41.6 30.25 41.1 30.2 Q38.95 30.2 38.95 32.8 L39.1 33.55 38.75 33.6 Q37.9 33.6 37.9 32.35 L38.1 31.35 38.15 31.25 36.55 30.9 36.25 30.85 33.45 30.65 33.4 30.65 32.8 30.65 32.8 30.55 33.1 29.65 33.1 29.6" fill="#e5a750" fill-rule="evenodd" stroke="none"/>
      <path d="M32.8 30.65 L33.4 30.65 33.45 30.65 36.25 30.85 36.55 30.9 38.15 31.25 38.1 31.35 37.9 32.35 Q37.9 33.6 38.75 33.6 L39.1 33.55 40.35 34.5 41.1 34.75 Q42.75 34.4 42.9 32.85 L42.95 32.6 42.95 32.45 42.5 30.35 43.15 30.55 43.35 30.65 44.0 31.4 44.1 31.6 44.15 32.3 43.95 33.5 43.85 33.75 43.3 34.65 43.8 34.35 Q44.25 34.35 44.45 35.05 L44.7 36.15 44.6 36.55 43.85 37.35 43.65 37.5 42.7 37.85 42.35 37.85 42.35 38.1 41.0 37.85 39.4 37.4 37.85 36.7 36.15 35.6 34.75 34.45 34.7 34.4 33.45 32.95 Q32.85 32.05 32.8 31.05 L32.8 30.65 M42.35 34.85 L41.1 34.75 42.35 34.85" fill="#d56c1b" fill-rule="evenodd" stroke="none"/>
      <path d="M39.1 33.55 L38.95 32.8 Q38.95 30.2 41.1 30.2 L41.6 30.25 42.5 30.35 42.95 32.45 42.95 32.6 42.9 32.85 Q42.75 34.4 41.1 34.75 L40.35 34.5 39.1 33.55" fill="#91470e" fill-rule="evenodd" stroke="none"/>
      <path d="M48.3 53.85 L18.85 53.85 18.75 53.75 18.4 53.2 17.55 51.55 16.6 49.25 15.85 46.75 Q15.15 44.0 15.05 41.1 L15.1 37.85 15.2 35.9 Q15.95 36.65 16.25 37.55 L16.35 37.95 16.5 39.1 16.3 40.45 16.1 41.25 16.05 41.7 16.05 42.0 Q16.2 43.05 16.95 44.2 18.85 47.05 22.05 46.85 L23.75 46.5 Q25.3 45.8 25.75 43.85 L26.95 39.5 27.1 39.1 Q27.4 38.25 27.95 37.7 28.9 36.75 30.5 36.55 34.1 35.95 36.55 38.6 37.85 39.9 38.15 41.7 L38.15 41.8 38.5 43.7 Q38.95 46.6 41.75 46.65 L42.15 46.65 Q44.05 46.5 44.55 44.75 L44.6 44.3 44.65 44.2 Q44.9 42.65 45.65 41.25 46.3 40.15 47.7 40.15 L47.75 40.15 Q49.35 40.4 50.35 41.65 L50.6 42.1 51.3 43.2 50.85 47.55 50.7 48.0 49.9 50.6 48.8 52.95 48.3 53.85 M48.95 45.7 L48.8 44.45 48.05 44.15 Q46.85 44.15 46.5 45.3 46.35 45.75 46.35 46.35 L46.35 48.85 46.4 49.95 46.95 49.35 Q48.35 47.8 48.75 46.65 L48.95 45.7 M29.5 42.75 Q29.6 43.55 30.5 45.1 L31.7 46.85 Q31.85 45.65 32.75 44.7 33.6 43.8 33.6 42.4 L33.55 41.6 33.15 40.55 32.95 40.4 31.65 40.1 Q30.75 40.0 30.1 40.95 29.45 41.95 29.5 42.75" fill="#fdffdf" fill-rule="evenodd" stroke="none"/>
      <path d="M-0.55 46.1 L-0.55 37.3 0.2 37.1 2.7 36.65 4.05 36.4 4.8 36.25 6.1 35.8 6.25 35.7 6.25 35.85 6.25 38.95 5.25 42.1 3.9 44.15 2.85 45.05 Q1.4 45.95 -0.55 46.1 M51.3 43.2 L51.3 42.25 Q54.9 44.85 53.9 47.65 53.35 49.15 52.15 50.0 51.4 50.5 50.55 50.6 L49.9 50.6 50.7 48.0 50.85 47.55 51.3 43.2" fill="#ff7f76" fill-rule="evenodd" stroke="none"/>
      <path d="M51.0 39.4 Q52.45 40.6 53.65 41.4 L54.8 42.25 54.8 49.5 Q53.9 50.9 52.5 51.95 L51.15 52.65 48.8 52.95 49.9 50.6 50.55 50.6 Q51.4 50.5 52.15 50.0 53.35 49.15 53.9 47.65 54.9 44.85 51.3 42.25 L51.0 39.4 M-0.55 48.8 L-0.55 46.1 Q1.4 45.95 2.85 45.05 L3.9 44.15 5.25 42.1 6.25 38.95 6.25 35.85 6.4 35.55 6.25 35.7 6.1 35.8 4.8 36.25 4.05 36.4 2.7 36.65 0.2 37.1 -0.55 37.3 -0.55 35.0 2.35 33.85 3.45 33.4 5.85 31.95 6.85 33.15 7.1 33.6 7.35 33.95 Q8.1 35.35 8.65 37.2 L8.35 37.3 8.35 37.6 8.35 37.65 8.35 37.7 8.35 38.0 Q8.35 39.35 7.75 41.75 L7.35 43.35 6.85 45.05 5.3 46.5 4.9 46.75 4.35 47.15 3.55 47.6 Q1.5 48.7 -0.55 48.8" fill="#eb615e" fill-rule="evenodd" stroke="none"/>
      <path d="M54.8 49.5 L54.8 51.8 53.25 53.15 52.15 53.85 48.3 53.85 48.8 52.95 51.15 52.65 52.5 51.95 Q53.9 50.9 54.8 49.5 M4.35 49.45 L4.1 49.65 2.6 50.75 2.3 50.2 -0.55 50.55 -0.55 48.8 Q1.5 48.7 3.55 47.6 L4.35 47.15 4.9 46.75 5.3 46.5 6.85 45.05 6.25 46.75 5.6 47.95 4.35 49.45" fill="#ba3c47" fill-rule="evenodd" stroke="none"/>
      <path d="M54.8 51.8 L54.8 53.85 52.15 53.85 53.25 53.15 54.8 51.8 M2.6 50.75 Q1.15 51.55 -0.55 51.8 L-0.55 50.55 2.3 50.2 2.6 50.75" fill="#954f5a" fill-rule="evenodd" stroke="none"/>
      <path d="M31.35 5.45 L31.0 5.5 Q30.3 5.5 29.7 4.75 L29.4 4.2 29.3 3.7 29.3 3.3 29.5 2.8 Q29.7 2.5 30.0 2.5 L30.4 2.45 30.85 2.4 31.1 2.5 31.75 3.25 32.05 4.5 Q32.05 5.3 31.35 5.45 M17.7 5.3 Q17.7 5.9 17.1 6.25 L16.2 6.55 16.0 6.55 15.45 6.45 14.75 6.1 Q14.05 5.6 14.05 4.65 14.05 4.35 14.2 4.1 L14.6 3.65 Q15.0 3.3 15.25 3.3 L15.35 3.25 16.15 3.45 16.35 3.6 16.8 3.85 17.25 4.2 17.7 5.3" fill="#333647" fill-rule="evenodd" stroke="none"/>
      <path d="M28.75 18.05 Q29.5 17.1 29.5 15.8 L29.75 15.65 29.8 15.75 29.9 15.75 Q30.45 15.85 31.65 17.3 L32.65 18.5 33.15 19.15 32.45 19.45 31.25 19.95 Q30.25 18.7 28.75 18.05 M20.4 19.75 L19.35 20.85 19.65 20.0 19.7 19.35 19.5 19.2 Q19.65 19.15 19.65 19.3 L19.7 19.3 20.0 19.5 20.4 19.75 M18.75 22.0 Q18.1 23.4 18.1 25.1 18.15 27.3 19.0 29.2 L15.7 29.45 14.1 29.4 13.05 29.15 12.75 29.3 12.85 29.4 Q11.2 30.55 10.1 33.6 L9.3 36.3 9.1 36.6 8.65 37.2 8.4 37.6 8.35 37.65 8.35 37.6 8.35 37.3 8.65 37.2 Q8.1 35.35 7.35 33.95 L7.1 33.6 6.85 33.15 Q8.35 28.4 11.25 24.65 L13.05 25.05 Q14.9 25.05 17.1 23.5 L18.55 22.15 18.75 22.0 M19.7 19.3 L19.7 19.35 19.7 19.3 M6.25 35.7 L6.4 35.55 6.25 35.85 6.25 35.7 M7.75 41.75 L8.2 44.15 Q8.2 45.35 7.0 46.25 L6.25 46.75 6.85 45.05 7.35 43.35 7.75 41.75" fill="#ba425b" fill-rule="evenodd" stroke="none"/>
      <path d="M3.45 33.4 L4.05 31.5 4.4 31.6 4.55 31.55 4.65 31.4 Q5.65 31.2 7.35 29.0 9.35 26.45 9.95 23.85 L10.05 23.85 10.2 23.95 10.55 24.2 11.1 24.55 11.25 24.65 Q8.35 28.4 6.85 33.15 L5.85 31.95 3.45 33.4" fill="#904e50" fill-rule="evenodd" stroke="none"/>
      <path d="M18.85 53.85 L12.15 53.85 10.7 50.25 Q9.7 47.15 9.0 44.05 L8.8 42.85 Q8.65 40.3 9.05 37.8 L9.05 37.65 9.3 36.3 Q10.3 35.15 11.65 34.7 L11.95 34.7 13.05 34.7 Q13.75 34.9 14.35 35.25 L15.2 35.9 15.1 37.85 15.05 41.1 Q15.15 44.0 15.85 46.75 L16.6 49.25 17.55 51.55 18.4 53.2 18.75 53.75 18.85 53.85 M13.05 38.4 L13.05 38.35 Q12.85 38.15 12.5 38.05 L12.35 38.0 12.05 37.85 11.9 37.85 Q11.0 37.85 10.3 38.45 9.55 39.05 9.55 39.9 9.55 41.0 10.45 41.75 11.65 42.65 12.05 43.65 L12.15 43.65 Q12.05 43.3 12.75 42.2 L12.85 42.05 Q13.7 40.75 13.7 40.15 13.7 38.95 13.05 38.4" fill="#fcd9c3" fill-rule="evenodd" stroke="none"/>
      <path d="M12.15 53.85 L7.05 53.85 Q5.4 51.75 4.35 49.45 L5.6 47.95 6.25 46.75 7.0 46.25 Q8.2 45.35 8.2 44.15 L7.75 41.75 Q8.35 39.35 8.35 38.0 L8.35 37.7 8.35 37.65 8.4 37.6 8.65 37.2 9.1 36.6 9.3 36.3 9.05 37.65 9.05 37.8 Q8.65 40.3 8.8 42.85 L9.0 44.05 Q9.7 47.15 10.7 50.25 L12.15 53.85" fill="#e1bdaf" fill-rule="evenodd" stroke="none"/>
      <path d="M23.6 26.6 Q22.5 26.6 22.05 25.75 L21.85 24.75 Q21.85 22.75 23.65 22.95 25.4 23.2 25.4 24.75 25.4 25.4 25.0 25.9 24.5 26.6 23.6 26.6" fill="#feeae7" fill-rule="evenodd" stroke="none"/>
      <path d="M10.45 -0.6 L9.6 0.05 M11.4 15.7 L11.45 15.65 11.9 15.25 12.35 14.75 12.5 14.55 12.65 14.35 13.9 12.4 13.95 12.4 Q14.5 11.65 15.15 11.35 L15.7 11.15 15.9 11.1 16.3 11.1 17.25 11.25 M24.1 8.5 L24.8 8.45 25.6 8.5 26.25 8.65 26.4 8.75 Q27.45 9.05 28.25 9.85 L29.1 10.95 29.95 11.1 33.55 10.55 34.45 10.3 34.8 10.1 35.2 10.15 35.25 10.15 35.65 9.9 36.6 9.6 38.65 9.3 Q40.2 9.3 41.1 10.3 41.9 11.1 42.05 12.5 L42.15 12.5 42.25 12.85 42.25 13.0 42.25 13.05 44.45 12.5 45.5 12.4 Q47.1 12.5 48.35 13.55 49.7 14.7 50.2 16.05 50.55 17.05 50.5 18.1 50.4 20.4 49.6 21.65 L49.35 21.95 49.25 22.1 Q48.55 22.9 47.55 23.3 48.95 23.85 49.7 25.45 50.4 26.85 50.5 28.5 50.6 30.7 49.45 32.45 L49.35 32.6 Q50.55 36.15 51.0 39.4 52.45 40.6 53.65 41.4 L54.8 42.25 M31.35 5.45 L31.0 5.5 Q30.3 5.5 29.7 4.75 L29.4 4.2 29.3 3.7 29.3 3.3 29.5 2.8 Q29.7 2.5 30.0 2.5 L30.4 2.45 30.85 2.4 31.1 2.5 31.75 3.25 32.05 4.5 Q32.05 5.3 31.35 5.45 M30.35 -0.6 Q33.75 1.95 34.5 5.4 L35.3 9.75 35.3 9.95 35.25 10.15 M7.05 53.85 Q5.4 51.75 4.35 49.45 L4.1 49.65 2.6 50.75 Q1.15 51.55 -0.55 51.8 M-0.55 35.0 L2.35 33.85 3.45 33.4 4.05 31.5 2.9 31.1 1.2 29.95 Q-0.35 28.45 -0.35 26.35 -0.35 24.25 2.05 22.75 L2.5 22.45 2.9 22.15 3.45 21.8 3.8 21.5 4.3 21.15 4.35 21.15 Q4.4 21.05 4.5 21.05 L6.45 19.05 6.4 19.0 Q5.55 17.4 5.3 16.2 L5.25 16.05 5.05 14.65 5.0 13.2 5.0 9.4 Q5.15 4.1 9.15 0.45 L9.4 0.3 M42.25 13.05 L42.3 13.2 42.45 15.35 42.4 15.85 42.35 16.4 42.35 16.45 42.2 17.15 42.15 17.35 41.7 18.65 41.0 19.6 40.8 19.8 40.65 19.95 40.05 20.4 39.7 20.6 39.4 20.75 39.3 20.8 Q38.8 21.1 38.15 21.2 L37.05 21.35 35.35 20.9 35.2 20.85 35.1 20.8 33.55 19.55 33.15 19.15 32.65 18.5 31.65 17.3 Q30.45 15.85 29.9 15.75 L29.8 15.75 M47.4 23.35 L47.55 23.3 M42.25 12.85 L42.05 12.5 M29.3 11.35 Q29.7 12.3 29.75 13.45 L29.75 13.5 29.75 13.6 29.75 13.8 29.75 14.55 29.6 15.1 29.65 15.25 M40.9 20.15 Q40.95 20.95 41.6 21.7 L43.05 22.75 43.8 23.15 44.25 23.35 45.85 23.7 46.15 23.7 46.8 23.5 46.95 23.5 47.05 23.5 47.4 23.35 M44.25 23.35 L42.8 24.3 Q41.35 25.75 41.25 27.85 L41.4 27.9 Q42.25 28.2 43.05 28.6 L43.2 28.7 44.2 27.65 46.05 25.3 46.25 24.95 47.0 23.55 M46.35 31.05 L47.0 30.7 Q47.9 30.15 48.0 29.05 L48.05 28.7 Q48.05 27.95 47.35 26.7 L46.25 24.95 M33.1 29.6 L33.1 29.65 32.8 30.55 32.8 30.65 32.8 31.05 Q32.85 32.05 33.45 32.95 L34.7 34.4 34.75 34.45 36.15 35.6 37.85 36.7 39.4 37.4 41.0 37.85 42.35 38.1 42.75 38.1 42.95 38.1 44.15 38.05 44.65 38.0 46.0 37.35 46.75 36.75 47.25 36.15 47.85 34.8 47.8 33.9 47.8 33.8 47.3 32.6 47.05 32.05 46.45 31.1 46.35 31.05 45.4 30.0 45.15 29.8 44.3 29.4 44.85 29.55 43.2 28.7 M39.1 33.55 L38.95 32.8 Q38.95 30.2 41.1 30.2 L41.6 30.25 42.5 30.35 43.15 30.55 43.35 30.65 44.0 31.4 M43.3 34.65 L43.8 34.35 M45.15 29.8 L44.85 29.55 M42.5 30.35 L42.95 32.45 42.95 32.6 42.9 32.85 Q42.75 34.4 41.1 34.75 L42.35 34.85 M47.8 33.9 L49.35 32.6 M51.3 42.25 L51.3 43.2 50.85 47.55 50.7 48.0 49.9 50.6 48.8 52.95 48.3 53.85 M51.3 42.25 L51.0 39.4 M24.1 8.5 L23.75 8.5 22.3 8.9 21.85 9.05 20.95 9.5 20.7 9.65 20.6 9.75 19.85 10.3 19.35 10.8 19.15 11.0 18.9 11.35 18.35 12.25 Q17.75 13.5 17.75 15.05 L17.8 15.6 18.15 16.95 18.55 17.75 18.65 18.0 19.15 18.7 19.2 18.8 19.5 19.2 19.7 19.35 19.7 19.3 19.65 19.3 Q19.65 19.15 19.5 19.2 M28.6 18.25 L28.75 18.05 Q29.5 17.1 29.5 15.8 M29.3 11.35 L29.1 10.95 M30.9 26.15 Q30.7 28.3 28.9 29.4 27.5 30.25 25.7 30.25 23.5 30.25 22.05 28.4 L21.95 28.3 Q20.9 26.85 20.8 25.0 L20.95 23.7 Q21.1 22.65 22.85 21.0 L23.6 20.35 23.3 20.35 23.1 20.35 22.1 20.35 21.5 20.2 21.3 20.15 20.4 19.75 19.35 20.85 18.85 21.8 18.75 22.0 Q18.1 23.4 18.1 25.1 18.15 27.3 19.0 29.2 L20.35 31.2 Q22.75 34.1 26.35 34.2 29.7 34.25 31.6 31.6 33.0 29.8 33.3 27.6 L30.9 26.15 27.5 23.25 26.85 22.55 24.65 20.25 24.35 20.3 24.2 20.3 24.1 20.3 24.05 20.3 23.6 20.35 M24.65 20.25 L24.8 20.2 25.05 20.15 26.25 19.8 26.45 19.75 27.25 19.3 28.6 18.25 M24.05 20.3 L24.05 20.0 M31.25 19.95 L32.05 21.2 Q33.25 23.3 33.4 25.7 L33.3 27.6 M31.25 19.95 Q30.25 18.7 28.75 18.05 M17.7 5.3 Q17.7 5.9 17.1 6.25 L16.2 6.55 16.0 6.55 15.45 6.45 14.75 6.1 Q14.05 5.6 14.05 4.65 14.05 4.35 14.2 4.1 L14.6 3.65 Q15.0 3.3 15.25 3.3 L15.35 3.25 16.15 3.45 16.35 3.6 16.8 3.85 17.25 4.2 17.7 5.3 M9.65 16.65 Q8.8 16.95 8.0 17.9 7.1 18.95 7.05 19.8 L7.05 19.9 7.5 20.9 7.55 21.05 7.7 21.25 7.9 21.55 M8.05 21.7 L8.2 21.9 M8.45 22.2 L8.5 22.3 8.8 22.6 9.05 22.9 9.3 23.15 10.2 23.95 10.55 24.2 11.1 24.55 11.25 24.65 13.05 25.05 Q14.9 25.05 17.1 23.5 L18.55 22.15 18.75 22.0 M9.65 16.65 L9.85 16.6 10.0 16.5 11.4 15.7 M4.4 21.1 L4.5 21.05 M4.35 21.15 L4.4 21.1 M6.45 19.05 L6.85 19.7 M4.05 31.5 L4.4 31.6 4.55 31.55 4.65 31.4 Q5.65 31.2 7.35 29.0 9.35 26.45 9.95 23.85 L10.05 23.85 10.2 23.95 M19.35 20.85 L19.65 20.0 19.7 19.35 M19.7 19.3 L20.0 19.5 20.4 19.75 M5.85 31.95 L3.45 33.4 M8.35 37.65 L8.35 37.7 8.35 38.0 Q8.35 39.35 7.75 41.75 L7.35 43.35 6.85 45.05 6.25 46.75 5.6 47.95 4.35 49.45 M8.35 37.65 L8.35 37.6 8.35 37.3 M33.65 28.9 L33.7 28.85 33.9 28.7 Q34.7 28.2 35.6 27.75 36.7 27.15 37.8 27.3 L37.85 27.3 39.75 27.35 41.25 27.85 M33.1 29.6 L33.65 28.9 M41.1 34.75 L40.35 34.5 39.1 33.55" fill="none" stroke="#380e12" stroke-linecap="round" stroke-linejoin="round" stroke-width="1.0"/>
    </g>
    <g id="shape2" transform="matrix(1.0, 0.0, 0.0, 1.0, 0.0, 0.0)">
      <path d="M50.5 0.0 Q53.95 0.0 53.95 3.3 L53.95 50.15 Q53.95 53.4 50.5 53.4 L3.3 53.4 Q0.0 53.4 0.0 50.15 L0.0 3.3 Q0.0 0.0 3.3 0.0 L50.5 0.0" fill="#000000" fill-opacity="0.003921569" fill-rule="evenodd" stroke="none"/>
    </g>
  </defs>
</svg>
