<?xml version="1.0" encoding="UTF-8" standalone="no"?>
<svg xmlns:ffdec="https://www.free-decompiler.com/flash" xmlns:xlink="http://www.w3.org/1999/xlink" ffdec:objectType="frame" height="99.65px" width="108.35px" xmlns="http://www.w3.org/2000/svg">
  <g transform="matrix(1.0, 0.0, 0.0, 1.0, 29.9, 31.05)">
    <clipPath id="clipPath0" transform="matrix(1.0, 0.0, 0.0, 1.0, 0.0, 0.0)">
      <path d="M50.5 0.0 Q53.95 0.0 53.95 3.3 L53.95 50.15 Q53.95 53.4 50.5 53.4 L3.3 53.4 Q0.0 53.4 0.0 50.15 L0.0 3.3 Q0.0 0.0 3.3 0.0 L50.5 0.0" fill="#000000" fill-rule="evenodd" stroke="none"/>
    </clipPath>
    <g clip-path="url(#clipPath0)">
      <use ffdec:characterId="2" height="99.3" transform="matrix(1.0, 0.0, 0.0, 1.0, -29.9, -31.05)" width="108.35" xlink:href="#shape1"/>
      <filter id="filter0">
        <feColorMatrix in="SourceGraphic" result="filterResult0" type="matrix" values="0 0 0 0 0.0,0 0 0 0 0.8,0 0 0 0 1.0,0 0 0 1 0"/>
        <feConvolveMatrix divisor="9.0" in="filterResult0" kernelMatrix="1 1 1 1 1 1 1 1 1" order="3 3" result="filterResult1"/>
        <feComposite in="SourceGraphic" in2="filterResult1" operator="over" result="filterResult2"/>
      </filter>
      <use ffdec:characterId="4" filter="url(#filter0)" height="39.25" style="mix-blend-mode: screen" transform="matrix(0.8672, 0.0, 0.0, 0.8672, -29.7336, -30.7836)" width="40.6" xlink:href="#sprite0"/>
      <use ffdec:characterId="5" height="43.55" transform="matrix(1.0, 0.0, 0.0, 1.0, 38.85, -13.85)" width="25.85" xlink:href="#shape3"/>
      <filter id="filter1">
        <feColorMatrix in="SourceGraphic" result="filterResult3" type="matrix" values="0 0 0 0 0.0,0 0 0 0 0.8,0 0 0 0 1.0,0 0 0 1 0"/>
        <feConvolveMatrix divisor="9.0" in="filterResult3" kernelMatrix="1 1 1 1 1 1 1 1 1" order="3 3" result="filterResult4"/>
        <feComposite in="SourceGraphic" in2="filterResult4" operator="over" result="filterResult5"/>
      </filter>
      <use ffdec:characterId="7" filter="url(#filter1)" height="29.05" style="mix-blend-mode: screen" transform="matrix(0.8672, 0.0, 0.0, 0.8672, 47.8531, -13.6336)" width="19.85" xlink:href="#sprite1"/>
      <use ffdec:characterId="8" height="50.1" transform="matrix(1.0, 0.0, 0.0, 1.0, 6.35, -2.55)" width="40.35" xlink:href="#shape5"/>
      <filter id="filter2">
        <feColorMatrix in="SourceGraphic" result="filterResult6" type="matrix" values="0 0 0 0 0.0,0 0 0 0 0.8,0 0 0 0 1.0,0 0 0 1 0"/>
        <feConvolveMatrix divisor="4.0" in="filterResult6" kernelMatrix="1 1 1 1" order="2 2" result="filterResult7"/>
        <feComposite in="SourceGraphic" in2="filterResult7" operator="over" result="filterResult8"/>
      </filter>
      <use ffdec:characterId="10" filter="url(#filter2)" height="45.55" style="mix-blend-mode: screen" transform="matrix(0.8672, 0.0, 0.0, 0.8672, 6.7164, -2.0336)" width="46.35" xlink:href="#sprite2"/>
      <use ffdec:characterId="11" height="30.45" transform="matrix(1.0, 0.0, 0.0, 1.0, 34.6, 34.75)" width="24.6" xlink:href="#shape7"/>
      <filter id="filter3">
        <feColorMatrix in="SourceGraphic" result="filterResult9" type="matrix" values="0 0 0 0 0.0,0 0 0 0 0.8,0 0 0 0 1.0,0 0 0 1 0"/>
        <feConvolveMatrix divisor="4.0" in="filterResult9" kernelMatrix="1 1 1 1" order="2 2" result="filterResult10"/>
        <feComposite in="SourceGraphic" in2="filterResult10" operator="over" result="filterResult11"/>
      </filter>
      <use ffdec:characterId="13" filter="url(#filter3)" height="18.75" style="mix-blend-mode: screen" transform="matrix(0.8672, 0.0, 0.0, 0.8672, 36.85, 44.6)" width="22.05" xlink:href="#sprite3"/>
      <use ffdec:characterId="14" height="25.45" transform="matrix(1.0, 0.0, 0.0, 1.0, 17.8, 43.15)" width="27.1" xlink:href="#shape9"/>
      <filter id="filter4">
        <feColorMatrix in="SourceGraphic" result="filterResult12" type="matrix" values="0 0 0 0 0.0,0 0 0 0 0.8,0 0 0 0 1.0,0 0 0 1 0"/>
        <feConvolveMatrix divisor="4.0" in="filterResult12" kernelMatrix="1 1 1 1" order="2 2" result="filterResult13"/>
        <feComposite in="SourceGraphic" in2="filterResult13" operator="over" result="filterResult14"/>
      </filter>
      <use ffdec:characterId="16" filter="url(#filter4)" height="13.35" style="mix-blend-mode: screen" transform="matrix(0.8672, 0.0, 0.0, 0.8672, 31.75, 47.35)" width="13.15" xlink:href="#sprite4"/>
      <use ffdec:characterId="17" height="32.9" transform="matrix(1.0, 0.0, 0.0, 1.0, -2.25, 33.65)" width="31.25" xlink:href="#shape11"/>
      <filter id="filter5">
        <feColorMatrix in="SourceGraphic" result="filterResult15" type="matrix" values="0 0 0 0 0.0,0 0 0 0 0.8,0 0 0 0 1.0,0 0 0 1 0"/>
        <feConvolveMatrix divisor="4.0" in="filterResult15" kernelMatrix="1 1 1 1" order="2 2" result="filterResult16"/>
        <feComposite in="SourceGraphic" in2="filterResult16" operator="over" result="filterResult17"/>
      </filter>
      <use ffdec:characterId="19" filter="url(#filter5)" height="21.4" style="mix-blend-mode: screen" transform="matrix(0.8672, 0.0, 0.0, 0.8672, -7.8, 42.8)" width="42.75" xlink:href="#sprite5"/>
      <use ffdec:characterId="20" height="18.7" transform="matrix(1.0, 0.0, 0.0, 1.0, 53.9, 16.4)" width="13.95" xlink:href="#shape13"/>
      <filter id="filter6">
        <feColorMatrix in="SourceGraphic" result="filterResult18" type="matrix" values="0 0 0 0 0.0,0 0 0 0 0.8,0 0 0 0 1.0,0 0 0 1 0"/>
        <feConvolveMatrix divisor="4.0" in="filterResult18" kernelMatrix="1 1 1 1" order="2 2" result="filterResult19"/>
        <feComposite in="SourceGraphic" in2="filterResult19" operator="over" result="filterResult20"/>
      </filter>
      <use ffdec:characterId="22" filter="url(#filter6)" height="27.0" style="mix-blend-mode: screen" transform="matrix(-0.481, 0.0, 0.0, 0.659, 67.9405, 17.0205)" width="27.15" xlink:href="#sprite6"/>
    </g>
    <use ffdec:characterId="23" height="53.4" transform="matrix(1.0, 0.0, 0.0, 1.0, 0.0, 0.0)" width="53.95" xlink:href="#shape15"/>
  </g>
  <defs>
    <g id="shape1" transform="matrix(1.0, 0.0, 0.0, 1.0, 29.9, 31.05)">
      <path d="M-6.65 30.9 L-5.6 32.1 -5.3 32.45 -4.95 32.85 10.25 37.25 Q11.55 39.05 14.75 41.5 L16.6 42.8 Q21.95 46.35 27.6 46.35 33.2 46.35 38.4 43.1 41.15 41.45 42.9 39.3 L44.05 37.7 48.1 36.1 49.0 35.8 Q54.8 33.65 60.65 31.9 L60.65 37.15 60.25 37.15 Q53.4 37.15 47.5 38.25 L46.1 40.8 44.85 43.15 Q41.2 44.95 37.2 46.15 29.85 48.4 22.35 48.4 L15.15 47.85 Q11.0 47.15 7.35 45.6 L6.95 45.4 6.65 44.2 6.6 43.7 Q1.95 40.05 -5.35 37.25 L-6.65 34.65 -6.65 30.9" fill="#8482a7" fill-rule="evenodd" stroke="none"/>
      <path d="M-6.65 34.65 L-5.35 37.25 -6.65 36.75 -6.65 34.65 M60.65 61.2 L60.65 68.25 58.75 68.25 58.35 65.55 60.45 61.6 60.65 61.2" fill="#58568a" fill-rule="evenodd" stroke="none"/>
      <path d="M-5.35 37.25 Q1.95 40.05 6.6 43.7 L6.65 44.2 6.95 45.4 7.35 45.6 Q11.0 47.15 15.15 47.85 L22.35 48.4 Q29.85 48.4 37.2 46.15 41.2 44.95 44.85 43.15 L46.1 40.8 47.5 38.25 Q53.4 37.15 60.25 37.15 L60.65 37.15 60.65 39.8 59.65 39.85 56.35 40.2 56.3 42.35 57.4 42.35 Q57.75 44.0 60.15 48.6 L60.65 48.4 60.65 61.2 60.45 61.6 58.35 65.55 58.75 68.25 -6.65 68.25 -6.65 36.75 -5.35 37.25" fill="#484070" fill-rule="evenodd" stroke="none"/>
      <path d="M60.65 48.4 L60.15 48.6 Q57.75 44.0 57.4 42.35 L56.3 42.35 56.35 40.2 59.65 39.85 60.65 39.8 60.65 48.4" fill="#5d577d" fill-rule="evenodd" stroke="none"/>
      <path d="M60.65 31.9 Q54.8 33.65 49.0 35.8 L48.1 36.1 44.05 37.7 42.9 39.3 Q41.15 41.45 38.4 43.1 33.2 46.35 27.6 46.35 21.95 46.35 16.6 42.8 L14.75 41.5 Q11.55 39.05 10.25 37.25 L-4.95 32.85 -5.3 32.45 -5.6 32.1 -6.65 30.9" fill="none" stroke="#332c54" stroke-linecap="round" stroke-linejoin="round" stroke-width="1.0"/>
      <path d="M5.85 -2.8 L6.15 -2.2 6.95 -0.8 8.4 1.1 Q8.25 -1.2 8.35 -3.55 8.45 -5.9 8.85 -8.45 L9.2 -10.5 9.25 -10.8 9.55 -11.25 9.9 -10.1 Q10.8 -7.3 11.85 -5.75 11.85 -4.1 12.5 -1.45 L12.65 -0.55 13.45 2.9 12.3 2.95 11.55 0.85 11.4 0.35 10.95 -0.9 10.85 -0.1 10.6 1.25 10.55 1.65 10.65 3.05 8.9 3.15 8.7 2.85 5.6 -1.55 5.55 -1.6 4.8 -2.8 5.25 -2.8 5.85 -2.8 M30.45 -17.0 L31.3 -17.2 31.25 -16.9 31.1 -14.7 31.35 -12.7 31.85 -11.3 34.6 -12.75 33.75 -11.4 Q31.85 -8.6 28.8 -5.2 L25.2 -1.3 20.5 3.6 18.25 5.9 17.85 5.05 21.4 0.05 24.0 -3.65 18.7 0.5 20.9 -3.75 22.1 -5.9 Q26.25 -13.15 30.45 -17.0 M54.95 -19.45 L55.5 -19.75 Q55.0 -17.15 53.9 -14.2 L53.05 -12.2 53.9 -12.65 47.7 -5.2 47.6 -5.1 45.15 -1.85 Q41.2 3.75 37.3 11.2 36.85 10.65 36.7 9.8 L38.6 6.85 38.7 6.6 41.75 1.35 Q39.05 3.7 35.7 6.6 35.05 5.95 35.05 4.35 35.05 3.4 35.2 2.4 L40.9 -2.9 43.9 -5.8 38.9 -3.15 35.65 -1.6 39.35 -4.65 Q48.05 -11.65 50.05 -13.75 53.3 -17.25 54.95 -19.45 M77.1 -22.1 Q75.85 -17.95 73.7 -13.35 68.35 -1.75 60.75 10.0 L62.4 9.6 66.75 8.1 68.7 7.3 68.0 8.6 Q65.4 10.55 61.95 12.4 L61.8 12.45 60.05 13.4 60.05 13.2 58.55 13.4 57.4 13.5 58.75 9.8 Q63.7 -4.2 64.5 -7.25 L65.0 -9.05 68.5 -12.4 Q74.6 -18.4 77.1 -22.1 M57.9 24.1 L57.45 24.75 58.55 24.9 61.9 25.1 64.25 25.05 62.15 27.1 57.55 27.95 55.8 28.05 53.5 28.0 55.1 25.65 55.8 24.7 57.9 24.1 M51.45 34.15 L51.0 34.45 52.5 36.8 53.95 38.45 52.95 39.05 47.45 38.3 48.9 35.6 47.85 34.4 50.2 34.25 51.45 34.15 M25.95 5.9 L27.6 4.65 26.6 8.8 23.75 10.95 22.3 12.05 23.85 8.95 25.15 6.55 25.95 5.9 M40.9 16.55 L38.85 17.3 38.45 17.4 37.8 15.05 41.35 11.95 41.05 15.05 40.9 16.55 M50.15 4.25 L47.3 8.1 45.55 10.35 42.8 10.7 50.15 4.25 M26.45 9.5 L26.35 9.8 25.65 12.65 24.35 14.35 24.1 14.7 22.3 17.05 22.5 16.3 22.05 15.05 21.95 14.85 23.85 12.55 26.5 9.3 26.45 9.5 M23.1 18.25 L24.3 16.35 25.05 15.35 24.5 17.65 23.75 20.7 22.5 20.1 22.15 19.95 23.1 18.25" fill="#3d3d61" fill-rule="evenodd" stroke="none"/>
      <path d="M9.25 -10.8 L9.2 -10.5 8.85 -8.45 Q8.45 -5.9 8.35 -3.55 8.25 -1.2 8.4 1.1 L6.95 -0.8 6.15 -2.2 5.85 -2.8 6.05 -2.85 Q6.5 -5.25 7.45 -7.5 L9.2 -10.75 9.25 -10.8 M4.8 -2.8 L5.55 -1.6 5.6 -1.55 8.7 2.85 8.9 3.15 10.65 3.05 10.55 1.65 10.6 1.25 10.85 -0.1 10.95 -0.9 11.4 0.35 11.55 0.85 12.3 2.95 13.45 2.9 12.65 -0.55 12.5 -1.45 Q11.85 -4.1 11.85 -5.75 L12.05 -5.4 13.3 -6.95 Q15.65 -9.5 19.55 -12.25 23.45 -15.0 28.0 -16.35 L30.45 -17.0 Q26.25 -13.15 22.1 -5.9 L20.9 -3.75 18.7 0.5 24.0 -3.65 21.4 0.05 17.85 5.05 18.25 5.9 20.5 3.6 25.2 -1.3 28.8 -5.2 Q31.85 -8.6 33.75 -11.4 L34.6 -12.75 38.55 -14.6 Q40.9 -15.6 45.6 -16.4 L50.3 -17.05 54.95 -19.45 Q53.3 -17.25 50.05 -13.75 48.05 -11.65 39.35 -4.65 L35.65 -1.6 38.9 -3.15 43.9 -5.8 40.9 -2.9 35.2 2.4 Q35.05 3.4 35.05 4.35 35.05 5.95 35.7 6.6 39.05 3.7 41.75 1.35 L38.7 6.6 38.6 6.85 36.7 9.8 Q36.85 10.65 37.3 11.2 41.2 3.75 45.15 -1.85 L47.6 -5.1 47.7 -5.2 53.9 -12.65 Q56.65 -14.0 60.55 -15.2 L65.35 -16.65 66.3 -16.95 67.25 -17.3 Q68.7 -17.95 70.2 -18.9 72.3 -20.3 75.9 -23.45 L77.95 -25.3 77.65 -24.05 77.1 -22.1 Q74.6 -18.4 68.5 -12.4 L65.0 -9.05 64.5 -7.25 Q63.7 -4.2 58.75 9.8 L57.4 13.5 58.55 13.4 60.05 13.2 60.05 13.4 61.8 12.45 61.95 12.4 Q65.4 10.55 68.0 8.6 L65.5 12.8 65.35 13.15 Q62.45 17.95 59.35 22.2 L57.9 24.1 55.8 24.7 55.1 25.65 53.5 28.0 55.8 28.05 57.55 27.95 62.15 27.1 Q60.05 28.9 57.05 30.8 L56.25 31.3 51.45 34.15 50.2 34.25 47.85 34.4 48.9 35.6 47.45 38.3 52.95 39.05 52.5 39.25 Q48.85 41.3 44.25 42.8 42.8 45.35 39.7 48.95 37.15 51.95 34.2 54.55 21.25 51.3 11.45 47.2 7.25 45.45 0.4 41.45 L-4.2 38.7 -1.4 33.75 -0.9 33.0 -3.8 29.2 -7.0 23.95 -3.65 24.2 -2.35 24.15 -2.15 24.15 Q-0.3 22.2 2.25 16.4 L3.85 12.4 Q4.85 9.3 5.1 6.85 3.95 4.5 2.7 1.2 1.75 -1.35 1.3 -3.2 L4.8 -2.8 M50.15 4.25 L42.8 10.7 45.55 10.35 47.3 8.1 50.15 4.25 M40.9 16.55 L41.05 15.05 41.35 11.95 37.8 15.05 38.45 17.4 38.85 17.3 40.9 16.55 M25.95 5.9 L25.15 6.55 23.85 8.95 22.3 12.05 23.75 10.95 26.6 8.8 27.6 4.65 25.95 5.9 M26.45 9.5 L26.5 9.3 23.85 12.55 21.95 14.85 22.05 15.05 22.5 16.3 22.3 17.05 24.1 14.7 24.35 14.35 25.65 12.65 26.35 9.8 26.45 9.5 M23.1 18.25 L22.15 19.95 22.5 20.1 23.75 20.7 24.5 17.65 25.05 15.35 24.3 16.35 23.1 18.25" fill="#232343" fill-rule="evenodd" stroke="none"/>
      <path d="M5.85 -2.8 L5.25 -2.8 4.8 -2.8 1.3 -3.2 Q1.75 -1.35 2.7 1.2 3.95 4.5 5.1 6.85 4.85 9.3 3.85 12.4 L2.25 16.4 Q-0.3 22.2 -2.15 24.15 L-2.35 24.15 -3.65 24.2 -7.0 23.95 -3.8 29.2 -0.9 33.0 -1.4 33.75 -4.2 38.7 0.4 41.45 Q7.25 45.45 11.45 47.2 21.25 51.3 34.2 54.55 37.15 51.95 39.7 48.95 42.8 45.35 44.25 42.8 48.85 41.3 52.5 39.25 L52.95 39.05 53.95 38.45 52.5 36.8 51.0 34.45 51.45 34.15 56.25 31.3 57.05 30.8 Q60.05 28.9 62.15 27.1 L64.25 25.05 61.9 25.1 58.55 24.9 57.45 24.75 57.9 24.1 59.35 22.2 Q62.45 17.95 65.35 13.15 L65.5 12.8 68.0 8.6 68.7 7.3 66.75 8.1 62.4 9.6 60.75 10.0 Q68.35 -1.75 73.7 -13.35 75.85 -17.95 77.1 -22.1 L77.65 -24.05 77.95 -25.3 75.9 -23.45 Q72.3 -20.3 70.2 -18.9 68.7 -17.95 67.25 -17.3 L66.3 -16.95 65.35 -16.65 60.55 -15.2 Q56.65 -14.0 53.9 -12.65 L53.05 -12.2 53.9 -14.2 Q55.0 -17.15 55.5 -19.75 L54.95 -19.45 50.3 -17.05 45.6 -16.4 Q40.9 -15.6 38.55 -14.6 L34.6 -12.75 31.85 -11.3 31.35 -12.7 31.1 -14.7 31.25 -16.9 31.3 -17.2 30.45 -17.0 28.0 -16.35 Q23.45 -15.0 19.55 -12.25 15.65 -9.5 13.3 -6.95 L12.05 -5.4 11.85 -5.75 Q10.8 -7.3 9.9 -10.1 L9.55 -11.25 9.25 -10.8 9.2 -10.75 7.45 -7.5 Q6.5 -5.25 6.05 -2.85 L5.85 -2.8" fill="none" stroke="#1d143f" stroke-linecap="round" stroke-linejoin="round" stroke-width="1.0"/>
      <path d="M24.7 -15.75 L24.8 -15.5" fill="none" stroke="#1d143f" stroke-linecap="round" stroke-linejoin="round" stroke-width="0.1"/>
      <path d="M3.45 23.05 L6.15 27.75 2.65 28.0 1.7 28.0 -0.9 26.2 Q-4.4 23.6 -8.05 20.05 L-12.1 15.85 -13.05 11.65 -13.5 9.45 -12.75 9.8 -9.5 14.4 -6.9 18.05 -6.8 18.2 -5.55 19.9 -5.35 19.95 Q-3.5 21.0 -1.85 21.5 L-0.05 22.0 3.45 23.05 M-6.95 12.15 L-6.9 12.2 Q-6.35 11.95 -5.9 11.2 L-5.3 9.8 -7.1 6.5 -9.5 2.65 -9.55 2.65 -9.45 -1.3 -9.25 -1.25 -9.2 -1.15 -7.95 0.5 -2.7 6.85 -0.75 9.0 -0.7 9.15 1.25 11.15 2.45 11.4 2.7 11.45 6.7 12.15 16.55 14.05 16.75 17.5 19.8 17.7 20.65 17.7 21.0 18.65 18.4 18.65 16.8 18.65 15.5 18.55 15.25 18.55 15.45 16.3 15.45 16.15 15.2 16.05 Q9.4 14.5 4.2 14.2 L3.5 14.15 3.35 16.15 3.3 19.95 3.35 21.9 0.45 19.9 -0.6 19.05 -4.9 14.95 -6.95 12.15 M8.15 5.5 L8.35 5.6 9.8 5.4 15.45 4.25 15.5 4.3 15.0 6.65 14.2 11.35 14.2 11.4 10.95 9.15 8.1 6.9 8.1 5.9 8.15 5.5" fill="#411cb6" fill-rule="evenodd" stroke="none"/>
      <path d="M-9.55 2.65 L-10.15 1.65 -10.35 -2.55 -10.35 -2.9 -9.95 -2.8 -9.7 -2.7 -2.35 -0.35 4.2 1.65 4.5 2.0 4.65 2.2 5.4 2.9 -6.9 -0.55 -7.75 -0.8 -8.05 -0.9 -8.45 -0.95 -8.55 -1.0 -8.5 -0.95 -9.2 -1.15 -9.25 -1.25 -9.45 -1.3 -9.55 2.65" fill="#aeffff" fill-rule="evenodd" stroke="none"/>
      <path d="M-11.0 10.45 L-6.95 12.15 -4.9 14.95 -0.6 19.05 0.45 19.9 3.35 21.9 3.35 22.55 0.9 21.9 Q-2.75 20.8 -5.05 19.3 L-5.3 19.15 -6.6 17.55 -8.6 14.55 -11.0 10.45 M5.4 2.9 L8.15 5.5 8.1 5.9 8.1 6.9 10.95 9.15 14.2 11.4 14.2 11.35 14.4 11.8 15.5 7.65 16.1 5.65 18.15 10.8 20.65 17.7 19.8 17.7 16.75 17.5 16.55 14.05 6.7 12.15 2.7 11.45 2.45 11.4 -0.4 8.75 -3.95 4.85 -8.0 -0.3 -8.15 -0.45 -8.5 -0.95 -8.55 -1.0 -8.45 -0.95 -8.05 -0.9 -7.75 -0.8 -6.9 -0.55 5.4 2.9" fill="#7c58f0" fill-rule="evenodd" stroke="none"/>
      <path d="M-10.15 1.65 L-29.4 -30.55 -14.65 -16.65 4.2 1.65 -2.35 -0.35 -9.7 -2.7 -9.95 -2.8 -10.35 -2.9 -10.35 -2.55 -10.15 1.65" fill="#1effff" fill-rule="evenodd" stroke="none"/>
      <path d="M-12.75 9.8 L-11.0 10.45 -8.6 14.55 -6.6 17.55 -5.3 19.15 -5.05 19.3 Q-2.75 20.8 0.9 21.9 L3.35 22.55 3.4 22.9 3.45 23.05 -0.05 22.0 -1.85 21.5 Q-3.5 21.0 -5.35 19.95 L-5.55 19.9 -6.8 18.2 -6.9 18.05 -9.5 14.4 -12.75 9.8 M15.5 4.3 L16.1 5.65 15.5 7.65 14.4 11.8 14.2 11.35 15.0 6.65 15.5 4.3 M-9.2 -1.15 L-8.5 -0.95 -8.15 -0.45 -8.0 -0.3 -3.95 4.85 -0.4 8.75 2.45 11.4 1.25 11.15 -0.7 9.15 -0.75 9.0 -2.7 6.85 -7.95 0.5 -9.2 -1.15" fill="#ac93ff" fill-rule="evenodd" stroke="none"/>
      <path d="M3.45 23.05 L6.15 27.75 2.65 28.0 1.7 28.0 -0.9 26.2 Q-4.4 23.6 -8.05 20.05 L-12.1 15.85 -13.05 11.65 -13.5 9.45 -12.75 9.8 -11.0 10.45 -6.95 12.15 -6.9 12.2 Q-6.35 11.95 -5.9 11.2 L-5.3 9.8 -7.1 6.5 -9.5 2.65 M4.5 2.0 L4.65 2.2 5.4 2.9 8.15 5.5 8.35 5.6 9.8 5.4 15.45 4.25 15.5 4.3 16.1 5.65 18.15 10.8 20.65 17.7 21.0 18.65 18.4 18.65 16.8 18.65 15.5 18.55 15.25 18.55 15.45 16.3 15.45 16.15 15.2 16.05 Q9.4 14.5 4.2 14.2 L3.5 14.15 3.35 16.15 3.3 19.95 3.35 21.9 3.35 22.55 3.4 22.9 3.45 23.05" fill="none" stroke="#2d1883" stroke-linecap="round" stroke-linejoin="round" stroke-width="1.0"/>
      <path d="M-9.5 2.65 L-9.55 2.65 -10.15 1.65 -29.4 -30.55 -14.65 -16.65 4.2 1.65 4.5 2.0" fill="none" stroke="#007cd4" stroke-linecap="round" stroke-linejoin="round" stroke-width="1.0"/>
    </g>
    <g id="sprite0" transform="matrix(1.0, 0.0, 0.0, 1.0, 0.5, 0.5)">
      <use ffdec:characterId="3" height="39.25" transform="matrix(1.0, 0.0, 0.0, 1.0, -0.5, -0.5)" width="40.6" xlink:href="#shape2"/>
    </g>
    <g id="shape2" transform="matrix(1.0, 0.0, 0.0, 1.0, 0.5, 0.5)">
      <path d="M22.2 37.15 L0.0 0.0 17.0 16.05 Q28.6 26.95 38.7 37.15 L31.15 34.8 22.7 32.1 22.4 32.0 21.95 31.85 21.95 32.3 22.2 37.15" fill="#1effff" fill-rule="evenodd" stroke="none"/>
      <path d="M38.7 37.15 L39.05 37.55 39.25 37.75 40.1 38.55 25.95 34.6 24.95 34.3 24.6 34.2 24.15 34.1 24.05 34.05 24.1 34.1 23.25 33.9 23.2 33.8 23.0 33.75 22.85 38.25 22.2 37.15 21.95 32.3 21.95 31.85 22.4 32.0 22.7 32.1 31.15 34.8 38.7 37.15" fill="#aeffff" fill-rule="evenodd" stroke="none"/>
      <path d="M22.2 37.15 L0.0 0.0 17.0 16.05 Q28.6 26.95 38.7 37.15 L39.05 37.55 M22.85 38.25 L22.2 37.15" fill="none" stroke="#007cd4" stroke-linecap="round" stroke-linejoin="round" stroke-width="1.0"/>
    </g>
    <g id="shape3" transform="matrix(1.0, 0.0, 0.0, 1.0, -38.85, 13.85)">
      <path d="M47.95 9.8 L64.2 -13.35 61.0 -4.3 56.75 7.4 55.75 10.05 55.9 7.85 56.0 6.5 55.95 6.5 55.75 6.55 48.25 9.65 47.95 9.8" fill="#0afffd" fill-rule="evenodd" stroke="none"/>
      <path d="M47.75 10.2 L47.85 9.95 47.95 9.8 48.25 9.65 55.75 6.55 55.95 6.5 56.0 6.5 55.9 7.85 55.75 10.05 55.45 11.0 55.4 11.1 55.3 8.85 55.25 7.85 55.15 7.9 47.75 10.2" fill="#aeffff" fill-rule="evenodd" stroke="none"/>
      <path d="M43.9 12.15 L44.3 12.1 44.45 14.15 44.45 14.25 44.85 17.6 44.05 17.9 43.95 15.15 43.95 14.85 43.95 14.2 43.9 12.15 M55.15 7.9 L55.25 7.85 55.3 8.85 54.0 11.2 52.0 14.9 50.35 17.9 50.2 20.6 50.15 23.2 50.05 23.2 50.0 22.25 49.75 18.95 49.65 17.75 49.75 17.6 51.55 14.8 52.6 12.85 55.15 7.9" fill="#ac93ff" fill-rule="evenodd" stroke="none"/>
      <path d="M47.4 11.3 L47.75 10.2 55.15 7.9 52.6 12.85 51.55 14.8 49.75 17.6 49.65 17.75 49.75 18.95 50.0 22.25 50.05 23.2 50.15 23.2 53.15 22.2 53.75 21.45 56.55 17.05 58.25 14.15 57.8 18.65 55.2 21.9 54.2 23.15 54.15 23.2 53.6 23.85 49.6 28.65 47.75 29.0 46.65 29.2 48.6 25.8 48.8 20.65 48.85 18.95 48.9 18.45 48.9 18.3 48.9 17.8 48.25 18.0 47.65 18.3 46.85 18.65 45.9 19.0 45.15 19.35 43.45 20.1 43.55 21.55 39.35 22.9 42.85 14.2 43.7 12.15 43.9 12.15 43.95 14.2 43.95 14.85 43.95 15.15 44.05 17.9 44.85 17.6 45.55 17.3 48.25 16.2 48.05 15.15 47.95 14.6 47.95 14.35 47.4 11.3" fill="#411cb6" fill-rule="evenodd" stroke="none"/>
      <path d="M44.3 12.1 L47.3 11.65 47.4 11.3 47.95 14.35 47.95 14.6 48.05 15.15 48.25 16.2 45.55 17.3 44.85 17.6 44.45 14.25 44.45 14.15 44.3 12.1 M55.4 11.1 L55.1 11.75 53.8 14.9 54.0 15.35 54.15 15.65 54.45 16.25 58.3 13.95 58.25 14.15 56.55 17.05 53.75 21.45 53.15 22.2 50.15 23.2 50.2 20.6 50.35 17.9 52.0 14.9 54.0 11.2 55.3 8.85 55.4 11.1" fill="#7c58f0" fill-rule="evenodd" stroke="none"/>
      <path d="M44.3 12.1 L47.3 11.65 47.4 11.3 47.75 10.2 47.85 9.95 M55.45 11.0 L55.4 11.1 55.1 11.75 53.8 14.9 54.0 15.35 54.15 15.65 54.45 16.25 58.3 13.95 58.25 14.15 57.8 18.65 55.2 21.9 54.2 23.15 54.15 23.2 53.6 23.85 49.6 28.65 47.75 29.0 46.65 29.2 48.6 25.8 48.8 20.65 48.85 18.95 48.9 18.45 48.9 18.3 48.9 17.8 48.25 18.0 47.65 18.3 46.85 18.65 45.9 19.0 45.15 19.35 43.45 20.1 43.55 21.55 39.35 22.9 42.85 14.2 43.7 12.15 43.9 12.15 44.3 12.1" fill="none" stroke="#2d1883" stroke-linecap="round" stroke-linejoin="round" stroke-width="1.0"/>
      <path d="M47.85 9.95 L47.95 9.8 64.2 -13.35 61.0 -4.3 56.75 7.4 55.75 10.05 55.45 11.0" fill="none" stroke="#007cd4" stroke-linecap="round" stroke-linejoin="round" stroke-width="1.0"/>
    </g>
    <g id="sprite1" transform="matrix(1.0, 0.0, 0.0, 1.0, 0.4, 0.5)">
      <use ffdec:characterId="6" height="29.05" transform="matrix(1.0, 0.0, 0.0, 1.0, -0.4, -0.5)" width="19.85" xlink:href="#shape4"/>
    </g>
    <g id="shape4" transform="matrix(1.0, 0.0, 0.0, 1.0, 0.4, 0.5)">
      <path d="M9.25 26.95 L9.4 24.45 9.5 22.85 9.45 22.85 9.2 22.95 0.6 26.5 0.25 26.65 18.95 0.0 15.3 10.4 10.4 23.9 9.25 26.95" fill="#0afffd" fill-rule="evenodd" stroke="none"/>
      <path d="M0.25 26.65 L0.6 26.5 9.2 22.95 9.45 22.85 9.5 22.85 9.4 24.45 9.25 26.95 8.85 28.05 8.8 28.15 8.7 25.6 8.65 24.45 0.0 27.15 0.1 26.85 0.25 26.65" fill="#aeffff" fill-rule="evenodd" stroke="none"/>
      <path d="M9.25 26.95 L10.4 23.9 15.3 10.4 18.95 0.0 0.25 26.65 0.1 26.85 M8.85 28.05 L9.25 26.95" fill="none" stroke="#007cd4" stroke-linecap="round" stroke-linejoin="round" stroke-width="1.0"/>
    </g>
    <g id="shape5" transform="matrix(1.0, 0.0, 0.0, 1.0, -6.35, 2.55)">
      <path d="M18.55 30.25 L21.2 28.75 22.2 28.15 24.6 26.8 25.15 27.05 30.5 29.3 30.0 31.4 29.5 33.6 30.3 34.1 29.25 34.9 26.3 37.15 23.15 39.5 20.1 34.1 18.9 31.7 18.35 30.7 18.75 30.45 18.55 30.25" fill="#3173d0" fill-rule="evenodd" stroke="none"/>
      <path d="M30.5 29.3 L30.95 29.5 33.1 30.45 36.65 32.0 36.65 32.05 36.85 33.05 37.35 35.55 37.65 37.75 37.75 38.4 36.2 39.55 33.9 41.25 29.0 44.8 28.85 44.95 29.1 44.4 29.75 43.15 29.85 43.1 29.4 43.1 27.45 43.25 29.0 42.8 29.5 42.7 30.05 42.55 30.9 40.85 28.45 38.55 27.0 37.35 25.15 38.55 23.8 39.6 26.15 44.35 23.95 42.6 22.85 41.75 22.8 41.65 15.95 36.0 15.95 35.95 15.95 34.3 15.95 31.85 18.15 30.5 18.25 30.45 18.55 30.25 18.75 30.45 18.35 30.7 18.9 31.7 20.1 34.1 23.15 39.5 26.3 37.15 29.25 34.9 30.3 34.1 29.5 33.6 30.0 31.4 30.5 29.3" fill="#659dec" fill-rule="evenodd" stroke="none"/>
      <path d="M28.85 44.95 L27.8 45.65 27.1 45.1 26.15 44.35 23.8 39.6 25.15 38.55 27.0 37.35 28.45 38.55 30.9 40.85 30.05 42.55 29.5 42.7 29.0 42.8 27.45 43.25 29.4 43.1 29.85 43.1 29.75 43.15 29.1 44.4 28.85 44.95" fill="#fcfefd" fill-rule="evenodd" stroke="none"/>
      <path d="M18.55 30.25 L21.2 28.75 22.2 28.15 24.6 26.8 25.15 27.05 30.5 29.3 30.95 29.5 33.1 30.45 36.65 32.0 36.65 32.05 36.85 33.05 37.35 35.55 37.65 37.75 37.75 38.4 36.2 39.55 33.9 41.25 29.0 44.8 28.85 44.95 27.8 45.65 27.1 45.1 26.15 44.35 23.95 42.6 22.85 41.75 22.8 41.65 15.95 36.0 15.95 35.95 15.95 34.3 15.95 31.85 18.15 30.5 18.25 30.45 18.55 30.25 Z" fill="none" stroke="#263bb6" stroke-linecap="round" stroke-linejoin="round" stroke-width="1.0"/>
      <path d="M19.15 30.4 L19.0 30.2 20.0 29.8 20.05 29.8 21.8 29.2 25.0 32.1 28.1 35.0 28.35 35.25 28.15 35.35 28.15 35.55 24.35 38.2 Q23.9 38.5 23.55 38.75 L20.95 34.3 20.5 33.5 18.95 30.45 19.15 30.4 M21.3 33.2 L20.85 33.35 23.45 38.05 24.1 37.75 24.35 37.6 26.1 36.65 26.05 36.25 Q25.25 37.25 24.15 37.25 L23.8 37.25 Q22.8 37.05 22.55 35.9 L22.45 35.15 22.55 34.25 22.9 33.4 23.35 33.0 22.85 32.9 22.15 33.0 22.1 33.0 21.3 33.2 M24.6 33.85 L24.3 33.45 23.95 33.3 23.75 33.25 23.55 33.3 Q23.05 33.65 23.05 34.45 L23.05 34.65 22.95 35.15 22.9 35.4 22.95 35.9 23.0 36.0 23.15 36.3 23.2 36.4 23.4 36.55 23.55 36.6 24.25 36.75 Q25.1 36.75 25.5 36.2 L25.75 35.7 25.75 35.4 25.45 34.4 25.4 34.3 25.15 34.1 24.6 33.85" fill="#db8a10" fill-rule="evenodd" stroke="none"/>
      <path d="M21.3 33.2 L22.1 33.0 22.15 33.0 22.85 32.9 23.35 33.0 22.9 33.4 22.55 34.25 22.45 35.15 22.55 35.9 Q22.8 37.05 23.8 37.25 L24.15 37.25 Q25.25 37.25 26.05 36.25 L26.1 36.65 24.35 37.6 24.1 37.75 23.45 38.05 20.85 33.35 21.3 33.2" fill="#feea3d" fill-rule="evenodd" stroke="none"/>
      <path d="M23.05 34.65 L23.05 34.45 Q23.05 33.65 23.55 33.3 L23.75 33.25 23.95 33.3 24.3 33.45 24.6 33.85 24.7 34.3 Q24.5 35.35 23.8 35.35 23.15 35.35 23.05 34.65 M23.4 36.55 L23.2 36.4 23.2 36.3 23.15 36.1 23.15 36.0 23.2 35.9 23.2 35.85 23.4 35.7 23.45 35.65 Q23.8 35.65 23.8 36.05 L23.8 36.15 23.75 36.4 23.5 36.55 23.45 36.55 23.4 36.55" fill="#ffece0" fill-rule="evenodd" stroke="none"/>
      <path d="M23.05 34.65 Q23.15 35.35 23.8 35.35 24.5 35.35 24.7 34.3 L24.6 33.85 25.15 34.1 25.4 34.3 25.45 34.4 25.75 35.4 25.75 35.7 25.5 36.2 Q25.1 36.75 24.25 36.75 L23.55 36.6 23.4 36.55 23.45 36.55 23.5 36.55 23.75 36.4 23.8 36.15 23.8 36.05 Q23.8 35.65 23.45 35.65 L23.4 35.7 23.2 35.85 23.2 35.9 23.15 36.0 23.15 36.1 23.2 36.3 23.2 36.4 23.15 36.3 23.0 36.0 22.95 35.9 22.9 35.4 22.95 35.15 23.05 34.65" fill="#7b2f01" fill-rule="evenodd" stroke="none"/>
      <path d="M25.55 19.7 Q28.7 8.0 29.45 3.0 L30.15 -1.0 30.3 -2.0 30.35 -2.05 33.15 5.3 35.85 13.65 36.4 15.6 36.45 15.7 37.2 18.75 38.45 24.15 38.35 24.35 38.25 24.15 37.2 21.6 36.05 18.75 34.95 16.2 34.7 15.6 34.2 14.55 32.3 15.6 Q30.4 16.65 28.1 18.1 L27.15 18.7 25.55 19.7 M39.65 23.95 L40.95 23.8 41.0 23.9 41.2 24.85 46.2 22.45 44.6 26.8 42.1 33.0 42.1 29.7 42.15 28.4 40.45 28.75 40.7 25.7 39.55 24.95 39.65 23.95 M10.9 31.1 L10.55 30.1 10.4 29.6 9.6 27.0 7.6 20.35 6.85 17.95 9.15 19.45 15.7 23.65 17.25 23.7 20.5 23.6 20.55 24.85 17.35 26.3 17.8 27.25 17.95 27.55 11.0 27.05 10.9 29.75 10.9 30.05 10.9 31.1" fill="#10ffff" fill-rule="evenodd" stroke="none"/>
      <path d="M40.8 36.5 L40.45 39.0 40.15 40.75 36.8 44.25 35.05 46.1 34.5 44.9 33.55 42.8 33.65 42.4 33.9 41.25 34.9 37.35 35.45 35.45 35.1 35.7 34.25 36.45 31.9 38.4 31.35 38.8 30.95 39.2 Q28.95 36.75 25.1 33.75 L21.5 31.15 20.85 31.1 20.5 31.5 20.2 31.75 19.05 32.9 19.05 32.95 18.65 33.3 15.95 31.6 14.0 30.7 13.0 30.4 14.2 32.75 14.3 32.95 15.95 35.95 15.95 36.0 17.25 38.25 17.1 38.0 15.95 37.65 14.25 37.2 12.65 36.75 12.55 36.5 11.5 33.05 11.4 32.65 11.65 30.05 11.65 29.95 11.75 28.4 11.8 28.25 13.7 28.2 15.9 28.3 18.3 28.45 19.8 28.55 19.2 27.5 18.9 27.05 18.75 26.7 18.9 26.65 22.2 28.15 22.6 28.35 24.4 29.15 25.95 29.75 26.35 29.85 25.65 28.2 25.15 27.05 25.0 26.6 24.1 24.3 24.25 24.2 24.55 24.1 25.2 20.95 25.25 20.75 25.3 20.7 27.15 19.4 30.35 17.55 Q32.25 16.5 33.85 15.8 L33.95 15.75 34.05 16.6 34.1 17.2 34.15 20.25 34.05 23.05 33.55 27.85 33.1 30.45 32.3 34.55 32.05 35.95 32.6 35.6 35.85 33.75 36.85 33.05 37.7 32.5 38.25 32.15 38.9 30.05 41.15 29.45 40.3 31.7 39.45 34.05 38.35 36.9 37.85 37.45 37.65 37.75 36.2 39.55 35.7 40.15 34.8 41.35 40.85 36.05 40.8 36.25 40.7 36.6 40.8 36.5 M24.15 42.9 L24.2 43.0 23.7 44.55 23.4 45.4 23.05 46.5 22.85 46.3 19.65 41.9 20.2 42.05 21.9 42.45 22.85 42.65 24.1 42.85 24.15 42.9 M25.2 20.95 L25.3 20.7 25.2 20.95" fill="#411cb6" fill-rule="evenodd" stroke="none"/>
      <path d="M25.55 19.7 L27.15 18.7 28.1 18.1 Q30.4 16.65 32.3 15.6 L34.2 14.55 34.7 15.6 34.95 16.2 36.05 18.75 37.2 21.6 38.25 24.15 38.35 24.35 38.45 24.15 39.65 23.95 39.55 24.95 40.7 25.7 40.45 28.75 42.15 28.4 42.1 29.7 42.1 33.0 40.9 36.0 40.8 36.25 40.85 36.05 40.85 35.95 41.0 34.9 41.6 29.4 41.15 29.45 38.9 30.05 39.65 27.55 39.95 26.45 40.0 26.4 39.0 25.95 Q38.45 25.65 37.95 25.5 L37.9 25.25 37.55 24.2 37.15 23.05 Q35.65 18.85 34.5 16.55 L34.45 16.4 34.05 15.7 34.0 15.7 33.95 15.75 33.85 15.8 Q32.25 16.5 30.35 17.55 L27.15 19.4 25.3 20.7 25.55 19.7 M11.5 33.05 L10.9 31.1 10.9 30.05 10.9 29.75 11.0 27.05 17.95 27.55 17.8 27.25 17.35 26.3 20.55 24.85 20.65 25.85 18.9 26.65 18.75 26.7 18.9 27.05 19.2 27.5 19.8 28.55 18.3 28.45 15.9 28.3 13.7 28.2 11.8 28.25 11.75 28.4 11.65 29.95 11.65 30.05 11.4 32.65 11.5 33.05" fill="#70ffff" fill-rule="evenodd" stroke="none"/>
      <path d="M17.25 38.25 L15.95 36.0 15.95 35.95 14.3 32.95 14.2 32.75 13.0 30.4 14.0 30.7 Q15.1 33.45 16.5 36.1 L19.35 40.8 19.85 41.5 21.2 41.8 23.6 42.1 23.95 42.6 24.1 42.85 22.85 42.65 21.9 42.45 20.2 42.05 19.65 41.9 19.3 41.4 19.1 41.1 17.8 39.1 17.25 38.25 M32.6 35.6 L32.05 35.95 32.3 34.55 33.1 30.45 33.55 27.85 34.05 23.05 34.15 20.25 34.1 17.2 34.05 16.6 33.95 15.75 34.0 15.7 34.05 15.7 34.45 16.4 34.5 16.55 34.6 20.25 Q34.6 25.35 33.4 31.9 L32.6 35.6" fill="#ac93ff" fill-rule="evenodd" stroke="none"/>
      <path d="M40.8 36.25 L40.8 36.5 40.7 36.6 40.8 36.25 M20.65 25.85 Q22.75 24.9 24.1 24.3 L25.0 26.6 25.15 27.05 25.65 28.2 26.35 29.85 25.95 29.75 24.4 29.15 22.6 28.35 22.2 28.15 18.9 26.65 20.65 25.85 M14.0 30.7 L15.95 31.6 18.65 33.3 18.5 33.55 19.0 34.55 19.3 35.05 21.8 39.25 22.85 40.9 23.6 42.1 21.2 41.8 19.85 41.5 19.35 40.8 16.5 36.1 Q15.1 33.45 14.0 30.7 M34.5 16.55 Q35.65 18.85 37.15 23.05 L37.55 24.2 37.9 25.25 37.5 26.05 37.25 26.45 35.9 29.4 38.45 27.55 39.4 26.9 39.95 26.45 39.65 27.55 38.9 30.05 38.25 32.15 37.7 32.5 36.85 33.05 35.85 33.75 32.6 35.6 33.4 31.9 Q34.6 25.35 34.6 20.25 L34.5 16.55 M41.15 29.45 L41.6 29.4 41.0 34.9 40.85 35.95 40.85 36.05 34.8 41.35 35.7 40.15 36.2 39.55 37.65 37.75 37.85 37.45 38.35 36.9 39.45 34.05 40.3 31.7 41.15 29.45" fill="#7c58f0" fill-rule="evenodd" stroke="none"/>
      <path d="M33.55 42.8 L33.4 42.6 33.3 42.55 33.7 40.95 34.3 37.8 32.8 38.85 31.35 39.9 31.15 40.1 31.1 40.15 26.3 35.85 Q23.1 33.2 21.5 32.1 L19.7 33.75 19.55 33.95 19.8 34.35 20.2 35.05 20.35 35.35 23.15 40.45 24.1 42.1 24.3 42.45 24.15 42.9 24.1 42.85 23.95 42.6 23.6 42.1 22.85 40.9 21.8 39.25 19.3 35.05 19.0 34.55 18.5 33.55 18.65 33.3 19.05 32.95 19.05 32.9 20.2 31.75 20.5 31.5 20.85 31.1 21.5 31.15 25.1 33.75 Q28.95 36.75 30.95 39.2 L31.35 38.8 31.9 38.4 34.25 36.45 35.1 35.7 35.45 35.45 34.9 37.35 33.9 41.25 33.65 42.4 33.55 42.8" fill="#2d1883" fill-rule="evenodd" stroke="none"/>
      <path d="M23.05 46.5 L22.85 47.05 Q17.65 44.35 14.2 42.1 L12.65 36.75 14.25 37.2 15.95 37.65 17.1 38.0 17.25 38.25 17.8 39.1 19.1 41.1 19.3 41.4 19.65 41.9 22.85 46.3 23.05 46.5" fill="#37179c" fill-rule="evenodd" stroke="none"/>
      <path d="M37.9 25.25 L37.95 25.5 Q38.45 25.65 39.0 25.95 L40.0 26.4 39.95 26.45 39.4 26.9 38.45 27.55 35.9 29.4 37.25 26.45 37.5 26.05 37.9 25.25" fill="#b6a1f7" fill-rule="evenodd" stroke="none"/>
      <path d="M38.45 24.15 L37.2 18.75 36.45 15.7 36.4 15.6 35.85 13.65 33.15 5.3 30.35 -2.05 30.3 -2.0 30.15 -1.0 29.45 3.0 Q28.7 8.0 25.55 19.7 L25.3 20.7 25.2 20.95 M38.45 24.15 L39.65 23.95 40.95 23.8 41.0 23.9 41.2 24.85 46.2 22.45 44.6 26.8 42.1 33.0 40.9 36.0 40.8 36.25 M11.5 33.05 L10.9 31.1 10.55 30.1 10.4 29.6 9.6 27.0 7.6 20.35 6.85 17.95 9.15 19.45 15.7 23.65 17.25 23.7 20.5 23.6 20.55 24.85 20.65 25.85" fill="none" stroke="#007cd4" stroke-linecap="round" stroke-linejoin="round" stroke-width="1.0"/>
      <path d="M40.8 36.25 L40.8 36.5 40.45 39.0 40.15 40.75 36.8 44.25 35.05 46.1 34.5 44.9 33.55 42.8 M24.15 42.9 L24.2 43.0 23.7 44.55 23.4 45.4 23.05 46.5 22.85 47.05 Q17.65 44.35 14.2 42.1 L12.65 36.75 12.55 36.5 11.5 33.05 M20.65 25.85 Q22.75 24.9 24.1 24.3 L24.25 24.2 24.55 24.1 25.2 20.95 25.25 20.75 25.3 20.7 M24.1 42.85 L24.15 42.9" fill="none" stroke="#2d1883" stroke-linecap="round" stroke-linejoin="round" stroke-width="1.0"/>
    </g>
    <g id="sprite2" transform="matrix(1.0, 0.0, 0.0, 1.0, 0.5, 0.5)">
      <use ffdec:characterId="9" height="45.55" transform="matrix(1.0, 0.0, 0.0, 1.0, -0.5, -0.5)" width="46.35" xlink:href="#shape6"/>
    </g>
    <g id="shape6" transform="matrix(1.0, 0.0, 0.0, 1.0, 0.5, 0.5)">
      <path d="M40.65 40.45 L40.65 36.6 40.7 35.15 38.7 35.5 39.0 32.0 Q38.15 31.4 37.7 31.15 L37.8 30.0 39.3 29.8 39.35 29.95 39.6 31.05 45.35 28.25 43.5 33.25 40.65 40.45 M36.45 30.2 L36.3 30.45 36.2 30.2 35.0 27.3 33.65 24.0 32.4 21.05 32.1 20.35 31.5 19.15 Q30.45 19.7 29.35 20.35 L24.5 23.25 23.4 23.95 21.55 25.1 Q25.15 11.6 26.05 5.85 L26.85 1.2 27.05 0.05 27.1 0.0 30.3 8.5 33.45 18.1 34.05 20.35 34.1 20.5 35.0 24.0 36.45 30.2 M4.65 38.25 L4.25 37.1 4.05 36.5 3.15 33.5 0.85 25.85 0.0 23.1 2.65 24.8 10.2 29.65 12.0 29.7 15.7 29.6 15.8 31.05 12.1 32.7 12.6 33.8 12.8 34.15 4.75 33.55 4.65 36.65 4.65 37.05 4.65 38.25" fill="#10ffff" fill-rule="evenodd" stroke="none"/>
      <path d="M37.8 30.0 L37.7 31.15 Q38.15 31.4 39.0 32.0 L38.7 35.5 40.7 35.15 40.65 36.6 40.65 40.45 39.15 44.15 39.2 43.85 39.35 42.6 40.05 36.25 36.95 37.05 37.8 34.15 38.15 32.9 38.2 32.8 37.05 32.3 35.85 31.75 35.8 31.5 35.4 30.3 34.9 28.95 Q33.2 24.1 31.85 21.45 L31.8 21.3 31.35 20.5 31.3 20.5 31.25 20.55 31.1 20.6 27.1 22.6 Q24.95 23.75 23.4 24.75 22.1 25.55 21.25 26.25 L21.55 25.1 23.4 23.95 24.5 23.25 29.35 20.35 Q30.45 19.7 31.5 19.15 L32.1 20.35 32.4 21.05 33.65 24.0 35.0 27.3 36.2 30.2 36.3 30.45 36.45 30.2 37.8 30.0 M4.65 38.25 L4.65 37.05 4.65 36.65 4.75 33.55 12.8 34.15 12.6 33.8 12.1 32.7 15.8 31.05 15.9 32.2 Q14.95 32.6 13.85 33.1 L13.7 33.15 13.9 33.55 14.2 34.1 14.9 35.3 13.2 35.2 10.4 35.0 7.9 34.9 5.7 34.95 5.65 35.1 5.5 36.9 5.5 37.05 5.25 40.05 5.35 40.5 4.65 38.25" fill="#70ffff" fill-rule="evenodd" stroke="none"/>
      <path d="M40.65 40.45 L43.5 33.25 45.35 28.25 39.6 31.05 39.35 29.95 39.3 29.8 37.8 30.0 36.45 30.2 35.0 24.0 34.1 20.5 34.05 20.35 33.45 18.1 30.3 8.5 27.1 0.0 27.05 0.05 26.85 1.2 26.05 5.85 Q25.15 11.6 21.55 25.1 L21.25 26.25 21.15 26.55 M39.15 44.15 L40.65 40.45 M15.8 31.05 L15.7 29.6 12.0 29.7 10.2 29.65 2.65 24.8 0.0 23.1 0.85 25.85 3.15 33.5 4.05 36.5 4.25 37.1 4.65 38.25 5.35 40.5 M15.8 31.05 L15.9 32.2 M39.15 44.15 L39.0 44.55" fill="none" stroke="#007cd4" stroke-linecap="round" stroke-linejoin="round" stroke-width="1.0"/>
    </g>
    <g id="shape7" transform="matrix(1.0, 0.0, 0.0, 1.0, -34.6, -34.75)">
      <path d="M39.35 51.95 L35.1 47.35 36.35 41.5 36.85 41.75 38.65 42.45 41.85 39.8 46.35 35.3 46.95 35.25 45.45 37.7 43.2 41.3 40.9 44.75 39.55 44.5 37.3 44.15 37.15 44.75 36.75 46.4 39.35 51.95" fill="#1b1b3c" fill-rule="evenodd" stroke="none"/>
      <path d="M39.35 51.95 L36.75 46.4 37.15 44.75 37.3 44.15 39.55 44.5 40.9 44.75 41.65 44.8 44.0 45.25 44.55 46.7 42.7 46.2 41.9 46.0 39.35 45.4 39.35 45.9 40.65 46.55 42.65 47.6 44.45 48.65 45.75 54.35 44.95 56.2 44.45 57.25 43.0 60.0 39.8 53.0 39.35 51.95 M48.05 46.3 L48.85 46.2 Q49.85 46.2 50.6 46.9 L50.9 47.1 50.85 47.65 50.5 50.85 50.25 52.9 49.95 55.2 49.9 55.8 49.55 56.4 48.35 58.3 48.25 58.5 48.05 58.25 48.0 58.2 47.95 58.05 47.85 57.9 47.75 52.05 47.65 46.85 47.65 46.4 48.05 46.3 M48.8 46.7 L48.05 46.75 48.05 57.85 49.65 55.6 50.1 51.6 50.55 47.35 Q49.7 46.7 48.8 46.7 M54.15 52.0 L54.5 52.05 Q55.3 52.15 55.7 52.75 L55.7 52.8 55.85 53.25 55.75 53.5 54.85 55.65 53.45 58.5 53.0 59.3 52.9 59.2 52.85 59.1 52.8 59.1 52.65 58.95 52.95 57.5 53.3 55.7 53.5 54.85 53.85 52.55 53.85 52.35 53.95 52.0 54.15 52.0 M55.5 53.1 Q55.1 52.5 54.45 52.4 L53.15 58.6 54.15 56.15 55.5 53.1" fill="#aeffff" fill-rule="evenodd" stroke="none"/>
      <path d="M46.35 35.3 L41.85 39.8 38.65 42.45 36.85 41.75 36.35 41.5 42.35 35.95 46.35 35.3" fill="#3d3d61" fill-rule="evenodd" stroke="none"/>
      <path d="M45.75 54.35 L44.45 48.65 42.65 47.6 40.65 46.55 39.35 45.9 39.35 45.4 41.9 46.0 42.7 46.2 44.55 46.7 46.65 52.3 45.75 54.35 M48.8 46.7 Q49.7 46.7 50.55 47.35 L50.1 51.6 49.65 55.6 48.05 57.85 48.05 46.75 48.8 46.7 M55.5 53.1 L54.15 56.15 53.15 58.6 54.45 52.4 Q55.1 52.5 55.5 53.1" fill="#26f0fa" fill-rule="evenodd" stroke="none"/>
      <path d="M50.2 39.95 L52.7 42.2 52.75 43.7 52.75 44.5 Q52.7 48.3 52.3 51.2 L51.85 53.9 50.95 58.45 49.9 60.15 49.5 60.8 47.8 63.25 47.55 63.1 46.95 62.7 47.15 61.85 47.4 60.8 49.25 58.25 49.8 57.5 50.2 54.95 50.2 54.8 50.55 53.05 51.25 48.1 51.45 46.65 50.7 46.1 50.25 45.95 48.05 45.6 47.9 45.6 47.6 45.6 48.8 42.8 Q49.65 40.9 50.2 39.95 M55.0 44.4 L57.25 46.7 58.7 48.7 56.85 54.2 56.05 56.25 54.6 59.3 52.1 63.45 51.85 62.65 51.85 61.6 52.45 60.1 52.65 59.55 52.7 59.7 52.85 60.0 52.95 60.2 53.75 58.85 55.1 55.95 56.05 54.05 56.45 53.15 56.1 52.7 55.9 52.3 55.0 50.95 54.35 49.8 Q54.4 47.1 55.0 44.4" fill="#7c58f0" fill-rule="evenodd" stroke="none"/>
      <path d="M40.9 44.75 L43.2 41.3 45.55 40.8 50.2 39.95 Q49.65 40.9 48.8 42.8 L47.6 45.6 47.9 45.6 48.05 45.6 50.25 45.95 50.7 46.1 51.45 46.65 51.25 48.1 50.55 53.05 50.2 54.8 50.2 54.95 49.8 57.5 49.25 58.25 47.4 60.8 47.15 61.85 46.95 62.7 47.55 63.1 47.8 63.25 46.6 64.7 45.65 64.5 44.7 64.25 44.7 63.3 44.6 59.45 44.45 57.25 44.95 56.2 45.75 54.35 46.65 52.3 44.55 46.7 44.0 45.25 41.65 44.8 40.9 44.75 M52.75 44.5 L54.95 44.4 55.0 44.4 Q54.4 47.1 54.35 49.8 L55.0 50.95 55.9 52.3 56.1 52.7 56.45 53.15 56.05 54.05 55.1 55.95 53.75 58.85 52.95 60.2 52.85 60.0 52.7 59.7 52.65 59.55 52.45 60.1 51.85 61.6 51.85 62.65 52.1 63.45 52.1 63.5 51.95 63.5 49.8 63.05 49.9 60.15 50.95 58.45 51.85 53.9 52.3 51.2 Q52.7 48.3 52.75 44.5 M48.05 46.3 L47.65 46.4 47.65 46.85 47.75 52.05 47.85 57.9 47.95 58.05 48.0 58.2 48.05 58.25 48.25 58.5 48.35 58.3 49.55 56.4 49.9 55.8 49.95 55.2 50.25 52.9 50.5 50.85 50.85 47.65 50.9 47.1 50.6 46.9 Q49.85 46.2 48.85 46.2 L48.05 46.3 M54.15 52.0 L53.95 52.0 53.85 52.35 53.85 52.55 53.5 54.85 53.3 55.7 52.95 57.5 52.65 58.95 52.8 59.1 52.85 59.1 52.9 59.2 53.0 59.3 53.45 58.5 54.85 55.65 55.75 53.5 55.85 53.25 55.7 52.8 55.7 52.75 Q55.3 52.15 54.5 52.05 L54.15 52.0" fill="#411cb6" fill-rule="evenodd" stroke="none"/>
      <path d="M36.35 41.5 L35.1 47.35 39.35 51.95 M40.9 44.75 L43.2 41.3 45.45 37.7 46.95 35.25 46.35 35.3 42.35 35.95 36.35 41.5" fill="none" stroke="#1d143f" stroke-linecap="round" stroke-linejoin="round" stroke-width="1.0"/>
      <path d="M45.75 54.35 L46.65 52.3 44.55 46.7 44.0 45.25 41.65 44.8 40.9 44.75 M44.45 57.25 L43.0 60.0 39.8 53.0 39.35 51.95 M44.45 57.25 L44.95 56.2 45.75 54.35" fill="none" stroke="#007cd4" stroke-linecap="round" stroke-linejoin="round" stroke-width="1.0"/>
      <path d="M50.2 39.95 L52.7 42.2 52.75 43.7 52.75 44.5 54.95 44.4 55.0 44.4 57.25 46.7 58.7 48.7 56.85 54.2 56.05 56.25 54.6 59.3 52.1 63.45 52.1 63.5 51.95 63.5 49.8 63.05 49.9 60.15 49.5 60.8 47.8 63.25 46.6 64.7 45.65 64.5 44.7 64.25 44.7 63.3 44.6 59.45 44.45 57.25 M43.2 41.3 L45.55 40.8 50.2 39.95 M52.75 44.5 Q52.7 48.3 52.3 51.2 L51.85 53.9 50.95 58.45 49.9 60.15" fill="none" stroke="#2d1883" stroke-linecap="round" stroke-linejoin="round" stroke-width="1.0"/>
    </g>
    <g id="sprite3" transform="matrix(1.0, 0.0, 0.0, 1.0, 0.0, 0.0)">
      <use ffdec:characterId="12" height="18.75" transform="matrix(1.0, 0.0, 0.0, 1.0, 0.0, 0.0)" width="22.05" xlink:href="#shape8"/>
    </g>
    <g id="shape8" transform="matrix(1.0, 0.0, 0.0, 1.0, 0.0, 0.0)">
      <path d="M21.85 9.95 L22.05 10.45 21.95 10.75 20.9 13.25 19.25 16.55 18.75 17.45 18.65 17.35 18.55 17.25 18.5 17.2 18.35 17.05 18.7 15.4 19.1 13.3 19.3 12.35 19.75 9.65 19.75 9.45 19.85 9.05 20.05 9.05 20.1 9.05 20.5 9.1 Q21.4 9.2 21.85 9.9 L21.85 9.95 M21.65 10.3 Q21.15 9.6 20.45 9.5 L18.9 16.65 20.05 13.85 21.65 10.3 M16.3 3.4 L16.25 4.0 15.85 7.7 15.6 10.1 15.25 12.7 15.15 13.4 14.75 14.1 13.4 16.3 13.25 16.55 13.05 16.25 13.0 16.2 12.9 16.0 12.8 15.85 12.7 9.1 12.6 3.1 12.6 2.55 13.05 2.45 13.95 2.35 Q15.1 2.35 16.0 3.15 L16.3 3.4 M13.9 2.9 L13.05 3.0 13.05 15.8 14.9 13.2 15.4 8.6 15.95 3.7 Q14.95 2.9 13.9 2.9 M9.0 2.9 L6.9 2.35 5.95 2.1 3.0 1.4 3.0 2.0 4.5 2.75 6.8 3.95 8.9 5.15 10.4 11.75 9.45 13.9 8.9 15.1 7.2 18.25 3.55 10.2 3.0 9.0 0.0 2.55 0.45 0.7 0.65 0.0 3.25 0.4 4.8 0.65 5.65 0.75 8.4 1.25 9.0 2.9" fill="#aeffff" fill-rule="evenodd" stroke="none"/>
      <path d="M21.65 10.3 L20.05 13.85 18.9 16.65 20.45 9.5 Q21.15 9.6 21.65 10.3 M13.9 2.9 Q14.95 2.9 15.95 3.7 L15.4 8.6 14.9 13.2 13.05 15.8 13.05 3.0 13.9 2.9 M9.0 2.9 L11.4 9.4 10.4 11.75 8.9 5.15 6.8 3.95 4.5 2.75 3.0 2.0 3.0 1.4 5.95 2.1 6.9 2.35 9.0 2.9" fill="#26f0fa" fill-rule="evenodd" stroke="none"/>
      <path d="M10.4 11.75 L11.4 9.4 9.0 2.9 8.4 1.25 5.65 0.75 4.8 0.65 M10.4 11.75 L9.45 13.9 8.9 15.1 7.2 18.25 3.55 10.2 3.0 9.0" fill="none" stroke="#007cd4" stroke-linecap="round" stroke-linejoin="round" stroke-width="1.0"/>
    </g>
    <g id="shape9" transform="matrix(1.0, 0.0, 0.0, 1.0, -17.8, -43.15)">
      <path d="M26.3 48.65 L26.3 48.6 32.6 43.65 32.7 43.7 30.95 46.25 27.4 51.55 29.45 53.6 30.7 54.85 31.65 55.65 34.55 57.9 38.8 60.4 38.85 60.4 39.7 60.85 41.1 61.55 42.45 62.2 42.35 62.4 40.75 65.0 38.7 68.1 33.55 65.3 28.7 62.35 29.35 60.05 29.5 59.4 26.3 48.65 M31.05 52.1 L33.7 47.7 34.0 47.25 34.35 46.75 34.85 47.05 Q35.05 47.1 35.3 47.3 L37.5 48.5 Q40.8 50.3 42.95 51.85 L43.05 51.9 43.25 52.0 43.15 52.45 42.95 53.35 42.4 55.7 41.6 58.7 Q41.4 59.05 41.35 59.45 L41.1 60.15 40.45 59.8 40.25 59.75 39.4 59.3 35.15 56.8 Q33.9 55.9 32.2 54.3 L31.5 53.6 31.35 53.5 30.65 52.8 30.9 52.4 31.05 52.1 M31.7 52.65 L31.55 53.05 32.4 53.8 34.45 55.35 Q37.05 57.25 39.75 58.65 L40.55 59.1 40.85 58.3 42.1 54.75 42.65 53.2 42.95 52.25 42.8 52.2 38.5 49.65 35.05 47.75 34.55 47.5 34.25 48.0 33.55 49.15 31.7 52.65" fill="#e0980c" fill-rule="evenodd" stroke="none"/>
      <path d="M31.7 52.65 L33.55 49.15 34.25 48.0 34.55 47.5 35.05 47.75 38.5 49.65 42.8 52.2 42.95 52.25 42.65 53.2 42.1 54.75 40.85 58.3 40.55 59.1 39.75 58.65 Q37.05 57.25 34.45 55.35 L32.4 53.8 31.55 53.05 31.7 52.65 M34.55 48.65 L32.6 53.35 Q35.35 55.5 40.1 57.9 L41.0 56.05 42.4 53.05 37.95 50.25 34.75 48.3 34.55 48.65" fill="#f0ffff" fill-rule="evenodd" stroke="none"/>
      <path d="M33.2 44.0 L36.25 45.7 39.2 47.35 44.4 50.3 44.4 50.85 44.4 52.9 44.4 53.25 44.35 54.25 44.05 59.45 43.55 60.4 43.15 61.05 42.45 62.2 41.1 61.55 39.7 60.85 38.85 60.4 38.8 60.4 38.1 59.95 Q34.3 57.5 31.95 54.9 L31.15 53.95 29.45 51.5 Q30.0 49.3 31.75 46.35 L33.2 44.0 M31.05 52.1 L30.9 52.4 30.65 52.8 31.35 53.5 31.5 53.6 32.2 54.3 Q33.9 55.9 35.15 56.8 L39.4 59.3 40.25 59.75 40.45 59.8 41.1 60.15 41.35 59.45 Q41.4 59.05 41.6 58.7 L42.4 55.7 42.95 53.35 43.15 52.45 43.25 52.0 43.05 51.9 42.95 51.85 Q40.8 50.3 37.5 48.5 L35.3 47.3 Q35.05 47.1 34.85 47.05 L34.35 46.75 34.0 47.25 33.7 47.7 31.05 52.1" fill="#ffd927" fill-rule="evenodd" stroke="none"/>
      <path d="M32.7 43.7 L33.2 44.0 31.75 46.35 Q30.0 49.3 29.45 51.5 L31.15 53.95 31.95 54.9 Q34.3 57.5 38.1 59.95 L38.8 60.4 34.55 57.9 31.65 55.65 30.7 54.85 29.45 53.6 27.4 51.55 30.95 46.25 32.7 43.7" fill="#ffffff" fill-rule="evenodd" stroke="none"/>
      <path d="M34.55 48.65 L34.75 48.3 37.95 50.25 42.4 53.05 41.0 56.05 40.1 57.9 Q35.35 55.5 32.6 53.35 L34.55 48.65" fill="#09fef7" fill-rule="evenodd" stroke="none"/>
      <path d="M28.7 62.35 Q23.1 58.8 18.3 54.9 L26.3 48.65 29.5 59.4 29.35 60.05 28.7 62.35" fill="#bd6800" fill-rule="evenodd" stroke="none"/>
      <path d="M26.3 48.65 L26.3 48.6 32.6 43.65 32.7 43.7 33.2 44.0 36.25 45.7 39.2 47.35 44.4 50.3 44.4 50.85 44.4 52.9 44.4 53.25 44.35 54.25 44.05 59.45 43.55 60.4 43.15 61.05 42.45 62.2 42.35 62.4 40.75 65.0 38.7 68.1 33.55 65.3 28.7 62.35 Q23.1 58.8 18.3 54.9 L26.3 48.65 Z" fill="none" stroke="#b15801" stroke-linecap="round" stroke-linejoin="round" stroke-width="1.0"/>
    </g>
    <g id="sprite4" transform="matrix(1.0, 0.0, 0.0, 1.0, 0.0, 0.0)">
      <use ffdec:characterId="15" height="13.35" transform="matrix(1.0, 0.0, 0.0, 1.0, 0.0, 0.0)" width="13.15" xlink:href="#shape10"/>
    </g>
    <g id="shape10" transform="matrix(1.0, 0.0, 0.0, 1.0, 0.0, 0.0)">
      <path d="M12.55 6.4 L7.4 3.15 3.7 0.9 3.45 1.35 Q2.65 2.95 1.2 6.75 4.4 9.2 9.85 12.0 L10.9 9.85 12.55 6.4 M12.2 8.35 L10.75 12.45 10.4 13.35 9.45 12.85 Q6.35 11.25 3.35 9.05 L1.0 7.25 0.0 6.4 0.2 5.95 2.3 1.9 3.1 0.55 3.45 0.0 4.05 0.3 8.05 2.5 13.0 5.4 13.15 5.5 12.8 6.55 12.2 8.35" fill="#f0ffff" fill-rule="evenodd" stroke="none"/>
      <path d="M12.55 6.4 L10.9 9.85 9.85 12.0 Q4.4 9.2 1.2 6.75 2.65 2.95 3.45 1.35 L3.7 0.9 7.4 3.15 12.55 6.4" fill="#09fef7" fill-rule="evenodd" stroke="none"/>
    </g>
    <g id="shape11" transform="matrix(1.0, 0.0, 0.0, 1.0, 2.25, -33.65)">
      <path d="M6.6 38.25 L9.7 40.45 13.55 43.65 14.9 44.8 16.6 46.55 19.15 49.3 19.95 50.25 23.35 54.55 27.65 60.7 27.25 61.15 28.0 62.5 28.05 63.55 27.9 65.75 Q25.55 65.0 22.15 63.65 L19.15 62.4 11.95 56.85 9.1 54.95 Q6.75 53.55 4.45 52.6 L3.6 52.25 2.95 52.0 1.4 49.4 -1.15 45.6 -1.75 44.8 -1.75 39.95 0.2 42.15 4.35 46.15 5.7 47.7 6.75 48.95 6.95 49.1 11.65 53.4 13.25 54.75 17.35 57.85 Q20.05 59.2 22.25 59.85 23.2 59.75 24.0 59.25 L24.65 58.75 25.1 57.8 24.9 57.5 22.0 53.6 Q18.7 49.4 14.8 45.75 L13.6 44.8 Q8.55 40.75 5.15 38.55 L5.05 38.1 6.9 39.3 6.6 38.25 M6.4 44.4 L7.9 43.2 8.25 43.1 9.65 42.7 9.9 42.8 9.9 42.85 10.0 42.9 11.35 43.7 13.25 45.0 14.3 45.85 18.05 49.7 Q20.15 52.25 21.55 54.55 L21.6 54.6 21.7 54.85 21.95 55.35 22.7 56.85 21.25 57.0 20.0 56.9 18.55 55.45 14.0 51.55 9.55 48.2 7.7 47.0 6.1 45.95 6.05 45.65 6.1 45.25 Q6.2 44.75 6.4 44.4 M7.2 44.9 L7.3 45.4 7.55 45.55 8.8 46.4 8.95 46.5 10.45 47.55 11.1 48.05 14.5 50.75 20.15 55.75 20.45 56.05 20.6 56.2 21.0 56.55 21.15 56.55 21.3 56.5 21.4 56.4 21.5 56.35 21.95 55.75 21.95 55.65 21.7 55.2 21.0 54.2 Q18.8 51.1 17.05 49.25 L14.0 46.4 13.8 46.25 12.55 45.25 11.6 44.5 10.5 43.65 9.6 43.05 8.6 43.25 8.3 43.4 Q7.2 43.85 7.2 44.75 L7.2 44.9 M6.55 60.5 Q7.5 63.45 7.9 66.05 L7.3 66.05 5.7 65.9 5.0 64.7 3.8 63.3 -1.55 61.75 -1.75 61.75 -1.75 60.05 Q1.4 61.2 4.15 61.75 L5.65 61.05 6.0 60.9 6.55 60.5 M-1.75 54.2 L-1.75 53.3 -0.9 54.2 -0.25 54.95 0.25 55.5 3.1 58.85 3.45 59.35 3.55 59.3 3.7 59.25 3.85 59.1 4.05 58.8 3.95 58.45 3.45 57.4 2.05 54.3 1.7 53.6 1.35 52.9 -0.25 50.1 -1.75 48.0 -1.75 47.1 0.2 49.9 1.2 51.6 2.1 53.3 3.7 56.9 3.8 57.1 4.2 58.2 4.5 59.2 4.1 59.75 4.05 59.75 3.35 60.25 0.8 57.2 -0.75 55.35 -1.75 54.2" fill="#411cb6" fill-rule="evenodd" stroke="none"/>
      <path d="M5.05 38.1 L5.15 38.55 Q8.55 40.75 13.6 44.8 L14.8 45.75 Q18.7 49.4 22.0 53.6 L24.9 57.5 25.1 57.8 24.65 58.75 24.0 59.25 Q23.2 59.75 22.25 59.85 20.05 59.2 17.35 57.85 L13.25 54.75 11.65 53.4 6.95 49.1 6.75 48.95 5.7 47.7 4.35 46.15 0.2 42.15 -1.75 39.95 -1.75 34.15 1.9 36.15 5.05 38.1 M-1.75 44.8 L-1.15 45.6 1.4 49.4 2.95 52.0 3.2 52.55 3.55 53.25 4.85 56.05 5.25 57.0 6.55 60.5 6.0 60.9 5.65 61.05 4.15 61.75 Q1.4 61.2 -1.75 60.05 L-1.75 54.2 -0.75 55.35 0.8 57.2 3.35 60.25 4.05 59.75 4.1 59.75 4.5 59.2 4.2 58.2 3.8 57.1 3.7 56.9 2.1 53.3 1.2 51.6 0.2 49.9 -1.75 47.1 -1.75 44.8 M6.4 44.4 Q6.2 44.75 6.1 45.25 L6.05 45.65 6.1 45.95 7.7 47.0 9.55 48.2 14.0 51.55 18.55 55.45 20.0 56.9 21.25 57.0 22.7 56.85 21.95 55.35 21.7 54.85 21.6 54.6 21.55 54.55 Q20.15 52.25 18.05 49.7 L14.3 45.85 13.25 45.0 11.35 43.7 10.0 42.9 9.9 42.85 9.9 42.8 9.65 42.7 8.25 43.1 7.9 43.2 6.4 44.4" fill="#7c58f0" fill-rule="evenodd" stroke="none"/>
      <path d="M6.6 38.25 L5.65 35.3 5.75 35.3 5.8 35.35 6.05 35.6 Q11.45 40.5 14.2 42.1 L14.9 41.55 16.8 42.15 18.6 42.65 19.2 43.8 19.1 43.8 18.9 43.75 18.65 43.75 16.45 43.55 15.75 43.6 15.45 44.0 14.9 44.8 13.55 43.65 9.7 40.45 6.6 38.25" fill="#1b1b3c" fill-rule="evenodd" stroke="none"/>
      <path d="M18.6 42.65 L16.8 42.15 14.9 41.55 14.2 42.1 Q11.45 40.5 6.05 35.6 L5.8 35.35 11.05 37.1 16.5 39.15 17.75 41.1 18.6 42.65" fill="#3d3d61" fill-rule="evenodd" stroke="none"/>
      <path d="M14.9 44.8 L15.45 44.0 15.75 43.6 16.45 43.55 18.65 43.75 18.9 43.75 19.1 43.8 19.2 43.8 21.45 44.35 23.85 45.15 24.25 46.2 22.55 45.75 20.0 45.4 18.45 45.4 18.05 45.4 Q18.8 47.35 21.9 51.75 L27.5 59.3 28.15 60.1 28.05 60.2 27.65 60.7 23.35 54.55 19.95 50.25 19.15 49.3 16.6 46.55 14.9 44.8 M7.2 44.9 L7.2 44.75 Q7.2 43.85 8.3 43.4 L8.6 43.25 9.6 43.05 10.5 43.65 11.6 44.5 12.55 45.25 13.8 46.25 14.0 46.4 17.05 49.25 Q18.8 51.1 21.0 54.2 L21.7 55.2 21.95 55.65 21.95 55.75 21.5 56.35 21.4 56.4 21.3 56.5 21.15 56.55 21.0 56.55 20.6 56.2 20.45 56.05 20.15 55.75 14.5 50.75 11.1 48.05 10.45 47.55 8.95 46.5 8.8 46.4 7.55 45.55 7.3 45.4 7.2 44.9 M8.7 44.05 Q7.9 44.45 7.6 45.15 L9.5 46.35 9.9 46.6 14.3 49.8 15.7 50.95 18.95 53.85 21.0 55.95 21.3 55.85 21.65 55.4 20.2 53.5 15.9 48.5 Q14.15 46.75 12.2 45.4 L10.2 44.1 9.55 43.75 8.7 44.05 M-1.75 53.3 L-1.75 52.45 Q1.75 55.85 3.35 58.85 L3.7 58.75 1.45 53.95 -0.55 50.25 -1.75 48.6 -1.75 48.0 -0.25 50.1 1.35 52.9 1.7 53.6 2.05 54.3 3.45 57.4 3.95 58.45 4.05 58.8 3.85 59.1 3.7 59.25 3.55 59.3 3.45 59.35 3.1 58.85 0.25 55.5 -0.25 54.95 -0.9 54.2 -1.75 53.3" fill="#aeffff" fill-rule="evenodd" stroke="none"/>
      <path d="M-1.75 52.45 L-1.75 48.6 -0.55 50.25 1.45 53.95 3.7 58.75 3.35 58.85 Q1.75 55.85 -1.75 52.45" fill="#16f9ff" fill-rule="evenodd" stroke="none"/>
      <path d="M8.7 44.05 L9.55 43.75 10.2 44.1 12.2 45.4 Q14.15 46.75 15.9 48.5 L20.2 53.5 21.65 55.4 21.3 55.85 21.0 55.95 18.95 53.85 15.7 50.95 14.3 49.8 9.9 46.6 9.5 46.35 7.6 45.15 Q7.9 44.45 8.7 44.05 M28.15 60.1 L27.5 59.3 21.9 51.75 Q18.8 47.35 18.05 45.4 L18.45 45.4 20.0 45.4 22.55 45.75 24.25 46.2 26.05 51.45 28.25 58.85 28.5 59.7 28.15 60.1 M23.05 46.5 L22.45 46.3 22.2 46.4 22.1 46.7 Q22.1 47.05 22.45 47.4 22.75 47.75 23.2 47.75 L23.65 47.3 Q23.65 46.8 23.05 46.5" fill="#26f0fa" fill-rule="evenodd" stroke="none"/>
      <path d="M23.05 46.5 Q23.65 46.8 23.65 47.3 L23.2 47.75 Q22.75 47.75 22.45 47.4 22.1 47.05 22.1 46.7 L22.2 46.4 22.45 46.3 23.05 46.5" fill="#ffffff" fill-rule="evenodd" stroke="none"/>
      <path d="M2.95 52.0 L3.6 52.25 4.45 52.6 Q6.75 53.55 9.1 54.95 L11.95 56.85 19.15 62.4 22.15 63.65 Q25.55 65.0 27.9 65.75 L28.05 63.55 28.0 62.5 27.25 61.15 M6.9 39.3 L5.05 38.1 1.9 36.15 -1.75 34.15 M2.95 52.0 L3.2 52.55 3.55 53.25 4.85 56.05 5.25 57.0 6.55 60.5 Q7.5 63.45 7.9 66.05 L7.3 66.05 5.7 65.9 5.0 64.7 3.8 63.3 -1.55 61.75 -1.75 61.75" fill="none" stroke="#2d1883" stroke-linecap="round" stroke-linejoin="round" stroke-width="1.0"/>
      <path d="M5.8 35.35 L5.75 35.3 5.65 35.3 6.6 38.25 6.9 39.3 M19.2 43.8 L18.6 42.65 17.75 41.1 16.5 39.15 11.05 37.1 5.8 35.35" fill="none" stroke="#1d143f" stroke-linecap="round" stroke-linejoin="round" stroke-width="1.0"/>
      <path d="M27.25 61.15 L27.65 60.7 28.05 60.2 28.15 60.1 28.5 59.7 28.25 58.85 26.05 51.45 24.25 46.2 23.85 45.15 21.45 44.35 19.2 43.8" fill="none" stroke="#007cd4" stroke-linecap="round" stroke-linejoin="round" stroke-width="1.0"/>
    </g>
    <g id="sprite5" transform="matrix(1.0, 0.0, 0.0, 1.0, 0.0, 0.0)">
      <use ffdec:characterId="18" height="21.4" transform="matrix(1.0, 0.0, 0.0, 1.0, 0.0, 0.0)" width="42.75" xlink:href="#shape12"/>
    </g>
    <g id="shape12" transform="matrix(1.0, 0.0, 0.0, 1.0, 0.0, 0.0)">
      <path d="M41.85 19.7 L41.75 19.8 41.3 20.35 36.35 13.25 32.4 8.3 31.5 7.25 28.55 4.05 26.6 2.05 27.2 1.1 27.55 0.65 28.4 0.6 30.9 0.8 31.2 0.85 31.45 0.9 31.55 0.9 34.15 1.5 Q35.65 1.9 36.9 2.45 L37.35 3.65 35.4 3.1 32.45 2.75 30.7 2.7 30.2 2.7 Q31.1 4.95 34.65 10.05 37.0 13.45 41.1 18.75 L41.85 19.7 M23.9 2.55 L25.3 3.7 25.55 3.9 29.05 7.15 Q31.1 9.3 33.6 12.85 L34.45 14.05 34.75 14.55 34.7 14.65 34.2 15.35 34.1 15.4 33.95 15.5 33.8 15.6 33.6 15.6 33.15 15.15 33.0 15.0 32.65 14.65 26.15 8.9 22.2 5.8 21.45 5.2 19.75 4.0 19.55 3.85 18.1 2.9 17.8 2.75 17.7 2.15 17.7 2.0 Q17.7 0.95 19.0 0.4 L19.35 0.25 20.5 0.0 21.5 0.7 22.8 1.7 23.9 2.55 M23.5 2.7 L21.2 1.2 20.45 0.8 19.45 1.15 Q18.5 1.65 18.2 2.45 L20.35 3.8 20.85 4.1 25.9 7.8 27.5 9.1 31.25 12.45 33.65 14.9 33.95 14.75 34.4 14.25 32.7 12.05 27.75 6.3 Q25.75 4.3 23.5 2.7 M11.35 12.2 L11.75 13.0 13.4 16.55 13.95 17.8 14.1 18.15 13.85 18.55 13.65 18.7 13.5 18.75 13.4 18.8 13.0 18.25 9.7 14.4 9.15 13.75 8.4 12.9 5.35 9.75 0.95 6.05 0.0 5.4 0.2 4.9 Q0.55 4.1 1.65 3.5 3.05 2.7 4.45 2.7 L5.05 2.8 6.0 3.9 7.15 5.4 9.1 8.15 10.95 11.4 11.35 12.2 M4.8 3.7 Q3.7 3.75 2.6 4.2 1.25 4.7 1.0 5.4 3.05 6.8 5.95 9.5 L6.4 9.9 Q11.2 14.35 13.25 18.25 L13.65 18.1 11.1 12.6 8.75 8.3 Q6.8 5.3 4.8 3.7" fill="#aeffff" fill-rule="evenodd" stroke="none"/>
      <path d="M37.35 3.65 L39.45 9.7 42.0 18.25 42.25 19.2 41.85 19.7 41.1 18.75 Q37.0 13.45 34.65 10.05 31.1 4.95 30.2 2.7 L30.7 2.7 32.45 2.75 35.4 3.1 37.35 3.65 M36.0 4.0 Q35.65 3.8 35.3 3.75 L35.0 3.9 34.9 4.2 35.3 5.05 Q35.65 5.45 36.15 5.45 36.7 5.45 36.7 4.9 36.7 4.35 36.0 4.0 M23.5 2.7 Q25.75 4.3 27.75 6.3 L32.7 12.05 34.4 14.25 33.95 14.75 33.65 14.9 31.25 12.45 27.5 9.1 25.9 7.8 20.85 4.1 20.35 3.8 18.2 2.45 Q18.5 1.65 19.45 1.15 L20.45 0.8 21.2 1.2 23.5 2.7" fill="#26f0fa" fill-rule="evenodd" stroke="none"/>
      <path d="M36.0 4.0 Q36.7 4.35 36.7 4.9 36.7 5.45 36.15 5.45 35.65 5.45 35.3 5.05 L34.9 4.2 35.0 3.9 35.3 3.75 Q35.65 3.8 36.0 4.0" fill="#ffffff" fill-rule="evenodd" stroke="none"/>
      <path d="M4.8 3.7 Q6.8 5.3 8.75 8.3 L11.1 12.6 13.65 18.1 13.25 18.25 Q11.2 14.35 6.4 9.9 L5.95 9.5 Q3.05 6.8 1.0 5.4 1.25 4.7 2.6 4.2 3.7 3.75 4.8 3.7" fill="#16f9ff" fill-rule="evenodd" stroke="none"/>
      <path d="M37.35 3.65 L39.45 9.7 42.0 18.25 42.25 19.2 41.85 19.7 41.75 19.8 41.3 20.35 40.85 20.9 M37.35 3.65 L36.9 2.45 Q35.65 1.9 34.15 1.5 L31.55 0.9" fill="none" stroke="#007cd4" stroke-linecap="round" stroke-linejoin="round" stroke-width="1.0"/>
    </g>
    <g id="shape13" transform="matrix(1.0, 0.0, 0.0, 1.0, -53.9, -16.4)">
      <path d="M55.55 28.45 L63.2 20.9 66.55 17.6 67.35 16.9 64.05 23.5 58.75 33.55 58.9 32.3 59.1 29.9 59.0 29.55 58.4 28.75 57.1 28.55 55.55 28.45" fill="#1afbff" fill-rule="evenodd" stroke="none"/>
      <path d="M55.55 28.45 L57.1 28.55 58.4 28.75 59.0 29.55 59.1 29.9 58.9 32.3 58.75 33.55 58.5 34.0 58.4 34.05 58.65 32.2 58.75 30.55 58.75 30.5 58.45 30.0 58.4 29.8 58.1 29.5 56.2 29.3 54.5 29.4 55.25 28.75 55.55 28.45" fill="#aeffff" fill-rule="evenodd" stroke="none"/>
      <path d="M54.65 32.7 L54.6 32.6 54.4 30.15 54.4 29.55 54.45 29.45 54.5 29.4 56.2 29.3 58.1 29.5 58.4 29.8 58.45 30.0 Q58.35 30.95 57.7 31.75 56.8 32.9 55.55 32.9 L54.65 32.7 M57.25 29.7 L57.0 29.65 Q56.55 29.75 56.55 30.25 L56.65 30.5 Q56.8 30.7 57.1 30.7 57.75 30.7 57.75 30.15 L57.55 29.7 57.25 29.7" fill="#7c58f0" fill-rule="evenodd" stroke="none"/>
      <path d="M57.25 29.7 L57.55 29.7 57.75 30.15 Q57.75 30.7 57.1 30.7 56.8 30.7 56.65 30.5 L56.55 30.25 Q56.55 29.75 57.0 29.65 L57.25 29.7" fill="#ac93ff" fill-rule="evenodd" stroke="none"/>
      <path d="M58.4 34.05 Q57.65 34.6 56.95 34.6 55.9 34.6 54.9 33.9 L54.65 32.7 55.55 32.9 Q56.8 32.9 57.7 31.75 58.35 30.95 58.45 30.0 L58.75 30.5 58.75 30.55 58.65 32.2 58.4 34.05" fill="#411cb6" fill-rule="evenodd" stroke="none"/>
      <path d="M58.75 33.55 L64.05 23.5 67.35 16.9 66.55 17.6 63.2 20.9 55.55 28.45 55.25 28.75 M58.75 33.55 L58.5 34.0" fill="none" stroke="#007cd4" stroke-linecap="round" stroke-linejoin="round" stroke-width="1.0"/>
      <path d="M58.5 34.0 L58.4 34.05 Q57.65 34.6 56.95 34.6 55.9 34.6 54.9 33.9 L54.65 32.7 54.6 32.6 54.4 30.15 54.4 29.55 54.45 29.45 54.5 29.4 55.25 28.75" fill="none" stroke="#2d1883" stroke-linecap="round" stroke-linejoin="round" stroke-width="1.0"/>
    </g>
    <g id="sprite6" transform="matrix(1.0, 0.0, 0.0, 1.0, 0.5, 0.5)">
      <use ffdec:characterId="21" height="27.0" transform="matrix(1.0, 0.0, 0.0, 1.0, -0.5, -0.5)" width="27.15" xlink:href="#shape14"/>
    </g>
    <g id="shape14" transform="matrix(1.0, 0.0, 0.0, 1.0, 0.5, 0.5)">
      <path d="M17.85 25.3 Q13.35 19.45 6.9 10.05 L0.0 0.0 1.65 1.1 8.65 6.15 Q14.75 10.8 24.5 17.6 L21.35 17.7 18.7 17.95 17.45 19.25 17.1 19.75 17.55 23.35 17.85 25.3" fill="#1afbff" fill-rule="evenodd" stroke="none"/>
      <path d="M25.15 18.05 L26.65 19.05 23.15 18.8 19.2 19.15 18.65 19.65 18.45 19.9 17.85 20.65 17.85 20.75 18.15 23.25 18.6 26.1 18.4 26.0 17.85 25.3 17.55 23.35 17.1 19.75 17.45 19.25 18.7 17.95 21.35 17.7 24.5 17.6 25.15 18.05" fill="#aeffff" fill-rule="evenodd" stroke="none"/>
      <path d="M18.4 26.0 L17.85 25.3 Q13.35 19.45 6.9 10.05 L0.0 0.0 1.65 1.1 8.65 6.15 Q14.75 10.8 24.5 17.6 L25.15 18.05" fill="none" stroke="#007cd4" stroke-linecap="round" stroke-linejoin="round" stroke-width="1.0"/>
    </g>
    <g id="shape15" transform="matrix(1.0, 0.0, 0.0, 1.0, 0.0, 0.0)">
      <path d="M50.5 0.0 Q53.95 0.0 53.95 3.3 L53.95 50.15 Q53.95 53.4 50.5 53.4 L3.3 53.4 Q0.0 53.4 0.0 50.15 L0.0 3.3 Q0.0 0.0 3.3 0.0 L50.5 0.0" fill="#000000" fill-opacity="0.003921569" fill-rule="evenodd" stroke="none"/>
    </g>
  </defs>
</svg>
