<?xml version="1.0" encoding="UTF-8" standalone="no"?>
<svg xmlns:ffdec="https://www.free-decompiler.com/flash" xmlns:xlink="http://www.w3.org/1999/xlink" ffdec:objectType="frame" height="112.55px" width="121.95px" xmlns="http://www.w3.org/2000/svg">
  <g transform="matrix(1.0, 0.0, 0.0, 1.0, 44.05, 37.1)">
    <use ffdec:characterId="7" height="112.55" transform="matrix(1.0, 0.0, 0.0, 1.0, -44.05, -37.1)" width="121.95" xlink:href="#sprite0"/>
  </g>
  <defs>
    <g id="sprite0" transform="matrix(1.0, 0.0, 0.0, 1.0, 44.05, 37.1)">
      <clipPath id="clipPath0" transform="matrix(1.0, 0.0, 0.0, 1.0, 0.0, 0.0)">
        <path d="M50.5 0.0 Q53.95 0.0 53.95 3.3 L53.95 50.15 Q53.95 53.4 50.5 53.4 L3.3 53.4 Q0.0 53.4 0.0 50.15 L0.0 3.3 Q0.0 0.0 3.3 0.0 L50.5 0.0" fill="#000000" fill-rule="evenodd" stroke="none"/>
      </clipPath>
      <g clip-path="url(#clipPath0)">
        <use ffdec:characterId="2" height="78.3" transform="matrix(1.0, 0.0, 0.0, 1.0, 40.75, -9.35)" width="37.15" xlink:href="#shape1"/>
        <filter id="filter0">
          <feConvolveMatrix divisor="25.0" in="SourceGraphic" kernelMatrix="1 1 1 1 1 1 1 1 1 1 1 1 1 1 1 1 1 1 1 1 1 1 1 1 1" order="5 5" result="filterResult0"/>
        </filter>
        <use ffdec:characterId="4" filter="url(#filter0)" height="131.15" transform="matrix(-0.2233, 0.0, 7.0E-4, 0.2233, 17.9612, 46.15)" width="157.8" xlink:href="#sprite1"/>
        <use ffdec:characterId="5" height="110.6" transform="matrix(1.0, 0.0, 0.0, 1.0, -44.05, -37.1)" width="104.35" xlink:href="#shape3"/>
      </g>
      <use ffdec:characterId="6" height="53.4" transform="matrix(1.0, 0.0, 0.0, 1.0, 0.0, 0.0)" width="53.95" xlink:href="#shape4"/>
    </g>
    <g id="shape1" transform="matrix(1.0, 0.0, 0.0, 1.0, -40.75, 9.35)">
      <path d="M46.65 48.55 L47.25 48.5 49.3 48.15 50.5 47.9 51.4 48.8 52.4 50.35 52.45 50.4 52.55 50.6 52.75 51.05 53.1 51.95 53.45 54.15 53.45 54.3 53.3 55.55 52.95 56.45 52.6 57.05 51.45 58.3 50.3 59.0 49.35 59.35 48.2 59.1 48.3 59.0 49.75 57.55 50.0 57.05 50.25 56.45 50.35 55.55 50.4 54.9 50.35 54.15 50.5 54.15 50.85 54.05 50.95 53.55 50.8 52.65 50.75 52.35 50.6 51.95 Q50.3 51.3 49.8 51.3 L49.6 51.35 49.15 50.6 48.9 50.35 Q48.2 49.6 47.25 49.5 L47.2 49.45 46.85 48.8 46.65 48.55" fill="#ff953d" fill-rule="evenodd" stroke="none"/>
      <path d="M45.15 49.0 L45.25 48.95 45.55 48.8 46.65 48.55 46.85 48.8 47.2 49.45 47.25 49.5 Q48.2 49.6 48.9 50.35 L49.15 50.6 49.6 51.35 49.5 51.35 49.25 51.7 49.15 51.75 49.15 51.95 49.15 52.35 49.4 53.35 49.6 53.7 Q49.9 54.1 50.35 54.15 L50.4 54.9 50.35 55.55 50.25 56.45 50.0 57.05 49.75 57.55 48.3 59.0 48.2 59.1 48.2 59.0 48.65 58.35 49.05 57.05 49.15 56.45 49.25 55.55 49.25 55.45 49.15 54.15 49.15 54.05 Q48.95 52.8 48.4 51.95 L48.4 51.9 47.2 50.8 46.95 50.6 46.4 50.35 45.85 50.15 45.4 49.4 45.15 49.0" fill="#feff5c" fill-rule="evenodd" stroke="none"/>
      <path d="M48.2 59.1 L48.1 59.0 47.25 58.35 46.15 57.05 46.05 56.9 45.75 56.45 45.6 56.2 45.55 56.05 45.3 55.6 45.3 55.55 45.05 55.05 44.7 54.15 44.6 54.0 Q44.05 52.35 44.05 51.1 44.05 50.05 44.6 49.45 44.85 49.15 45.15 49.0 L45.4 49.4 45.85 50.15 46.4 50.35 46.95 50.6 47.2 50.8 48.4 51.9 48.4 51.95 Q48.95 52.8 49.15 54.05 L49.15 54.15 49.25 55.45 49.25 55.55 49.2 55.55 48.85 55.6 48.5 55.55 48.05 55.25 48.15 55.25 48.5 55.0 48.85 54.3 48.85 54.15 48.85 54.0 48.85 53.8 48.15 52.35 47.9 52.15 47.7 52.5 47.2 52.25 46.8 52.2 46.35 52.25 46.15 52.95 Q46.15 53.5 46.5 54.15 L46.5 54.25 46.65 54.45 46.8 55.55 46.95 55.75 47.2 56.25 47.35 56.45 Q47.9 57.05 48.85 57.05 L49.05 57.05 48.65 58.35 48.2 59.0 48.2 59.1 M47.85 55.0 L47.75 54.95 47.2 54.35 47.1 54.25 47.05 54.15 Q46.9 53.9 46.9 53.45 L46.95 53.0 47.2 52.9 47.4 52.9 47.5 52.9 47.3 53.6 47.5 54.15 47.7 54.5 47.9 54.9 48.15 55.25 47.85 55.0" fill="#fe7235" fill-rule="evenodd" stroke="none"/>
      <path d="M49.05 57.05 L48.85 57.05 Q47.9 57.05 47.35 56.45 L47.2 56.25 46.95 55.75 46.8 55.55 46.65 54.45 46.5 54.25 46.5 54.15 Q46.15 53.5 46.15 52.95 L46.35 52.25 46.8 52.2 47.2 52.25 47.7 52.5 47.9 52.15 48.15 52.35 48.85 53.8 48.85 54.0 48.85 54.15 48.85 54.3 48.5 55.0 48.15 55.25 47.9 54.9 47.7 54.5 47.5 54.15 47.3 53.6 47.5 52.9 47.4 52.9 47.2 52.9 46.95 53.0 46.9 53.45 Q46.9 53.9 47.05 54.15 L47.1 54.25 47.2 54.35 47.75 54.95 47.85 55.0 48.05 55.25 48.5 55.55 48.85 55.6 49.2 55.55 49.25 55.55 49.15 56.45 49.05 57.05" fill="#fefe5e" fill-rule="evenodd" stroke="none"/>
      <path d="M49.6 51.35 L49.8 51.3 Q50.3 51.3 50.6 51.95 L50.75 52.35 50.8 52.65 50.95 53.55 50.85 54.05 50.5 54.15 50.35 54.15 Q49.9 54.1 49.6 53.7 L49.4 53.35 49.15 52.35 49.15 51.95 49.15 51.75 49.25 51.7 49.5 51.35 49.6 51.35" fill="#ffffff" fill-rule="evenodd" stroke="none"/>
      <path d="M68.1 6.7 L71.95 3.8 70.7 6.85 67.0 9.3 68.1 6.7" fill="#ff953f" fill-rule="evenodd" stroke="none"/>
      <path d="M73.1 1.1 L69.2 4.3 71.05 0.05 77.15 -8.6 73.1 1.1" fill="#fd8e3c" fill-rule="evenodd" stroke="none"/>
      <path d="M70.7 6.85 L69.1 10.7 65.4 13.0 67.0 9.3 70.7 6.85" fill="#feec4a" fill-rule="evenodd" stroke="none"/>
      <path d="M69.2 4.3 L73.1 1.1 71.95 3.8 68.1 6.7 69.2 4.3" fill="#ffe84a" fill-rule="evenodd" stroke="none"/>
      <path d="M69.1 10.7 L68.35 12.5 64.6 14.75 65.4 13.0 69.1 10.7" fill="#fffffd" fill-rule="evenodd" stroke="none"/>
      <path d="M68.35 12.5 L67.55 14.35 63.9 16.4 64.6 14.75 68.35 12.5" fill="#fefe5e" fill-rule="evenodd" stroke="none"/>
      <path d="M67.55 14.35 L66.6 16.55 62.5 19.6 63.9 16.4 67.55 14.35" fill="#ffe14b" fill-rule="evenodd" stroke="none"/>
      <path d="M66.6 16.55 L65.45 19.3 61.35 22.2 62.5 19.6 66.6 16.55" fill="#fd8c3c" fill-rule="evenodd" stroke="none"/>
      <path d="M65.45 19.3 L64.35 21.85 60.45 24.2 60.5 24.1 61.35 22.2 65.45 19.3" fill="#fedf49" fill-rule="evenodd" stroke="none"/>
      <path d="M64.35 21.85 L57.3 38.7 53.25 40.8 53.2 40.8 58.55 28.6 59.5 26.5 60.45 24.2 64.35 21.85" fill="#fe8e3c" fill-rule="evenodd" stroke="none"/>
      <path d="M60.45 24.2 L59.5 26.5 56.2 28.95 52.25 39.1 51.75 40.55 50.25 40.25 56.2 28.0 60.25 24.35 60.45 24.2" fill="#e29e00" fill-rule="evenodd" stroke="none"/>
      <path d="M59.5 26.5 L58.55 28.6 57.15 29.05 52.5 38.85 52.25 39.1 56.2 28.95 59.5 26.5" fill="#fcffcd" fill-rule="evenodd" stroke="none"/>
      <path d="M58.55 28.6 L53.2 40.8 51.75 40.55 52.25 39.1 52.5 38.85 57.15 29.05 58.55 28.6" fill="#f5e000" fill-rule="evenodd" stroke="none"/>
      <path d="M50.25 40.25 L51.75 40.55 53.2 40.8 53.2 40.85 51.7 44.35 51.05 44.3 49.25 42.4 50.25 40.25" fill="#b06802" fill-rule="evenodd" stroke="none"/>
      <path d="M57.3 38.7 L54.85 44.6 51.7 44.35 53.2 40.85 53.25 40.8 57.3 38.7" fill="#fe7c31" fill-rule="evenodd" stroke="none"/>
      <path d="M69.2 4.3 L68.1 6.7 67.0 9.3 65.4 13.0 64.6 14.75 63.9 16.4 62.5 19.6 61.35 22.2 60.5 24.1 60.25 24.35 56.2 28.0 50.25 40.25 49.25 42.4 48.7 43.55 48.65 43.8 M71.95 3.8 L73.1 1.1 77.15 -8.6 71.05 0.05 69.2 4.3 M70.7 6.85 L69.1 10.7 68.35 12.5 67.55 14.35 66.6 16.55 65.45 19.3 64.35 21.85 57.3 38.7 54.85 44.6 53.95 46.75 M71.95 3.8 L70.7 6.85 M60.45 24.2 L59.5 26.5 58.55 28.6 53.2 40.8 53.2 40.85 51.7 44.35 51.5 44.8 M60.45 24.2 L60.5 24.1" fill="none" stroke="#511c0c" stroke-linecap="round" stroke-linejoin="round" stroke-width="1.5"/>
      <path d="M50.25 42.05 L51.05 42.4 51.0 42.6 50.8 43.35 50.25 43.35 49.15 43.4 48.95 43.4 48.2 44.15 47.85 44.5 47.25 45.25 46.85 45.7 46.75 45.8 46.05 46.85 44.85 48.85 44.8 48.95 44.75 49.05 44.7 49.15 44.7 49.25 44.65 49.35 44.4 49.95 44.4 50.05 44.3 49.95 43.5 48.9 43.15 48.5 42.5 47.85 42.45 47.85 41.7 47.3 Q41.95 46.8 42.65 46.15 L43.05 45.8 43.15 45.7 43.3 45.6 43.4 45.5 43.5 45.4 43.8 45.25 44.95 44.4 45.7 43.95 46.05 42.85 46.4 41.85 47.25 42.15 47.3 42.15 48.3 42.5 49.3 42.8 50.25 42.05" fill="#9695bd" fill-rule="evenodd" stroke="none"/>
      <path d="M50.25 42.05 L49.3 42.8 48.3 42.5 47.3 42.15 47.25 42.15 46.4 41.85 46.65 41.0 47.45 41.25 48.25 41.45 50.25 42.05" fill="#ece1f1" fill-rule="evenodd" stroke="none"/>
      <path d="M47.85 44.5 L48.2 44.15 48.95 43.4 49.15 43.4 50.25 43.35 50.8 43.35 52.8 43.4 53.95 43.45 54.15 42.95 54.65 42.85 55.1 42.8 56.3 42.6 57.3 45.8 57.6 46.95 Q58.2 49.65 58.3 52.05 L57.8 53.5 57.6 52.45 57.05 49.7 56.15 46.65 55.9 45.8 55.6 44.7 55.6 44.4 55.45 44.4 54.7 44.5 51.15 44.5 48.75 44.5 48.2 44.5 47.85 44.5" fill="#acafb6" fill-rule="evenodd" stroke="none"/>
      <path d="M44.4 49.95 L44.65 49.35 44.7 49.25 44.7 49.15 44.75 49.05 44.8 48.95 44.85 48.85 46.05 46.85 46.75 45.8 46.85 45.7 47.25 45.25 47.85 44.5 48.2 44.5 48.75 44.5 48.35 45.8 48.25 46.05 48.0 46.8 47.65 47.85 46.85 50.15 46.65 50.35 46.3 50.7 45.8 51.4 45.7 51.6 45.35 51.15 44.4 49.95" fill="#4e5661" fill-rule="evenodd" stroke="none"/>
      <path d="M48.25 46.05 L48.35 45.8 48.75 44.5 51.15 44.5 54.7 44.5 55.45 44.4 55.6 44.7 55.5 45.8 55.05 50.4 54.65 53.35 52.4 50.5 51.4 49.35 48.25 46.05" fill="#6c6368" fill-rule="evenodd" stroke="none"/>
      <path d="M57.8 53.5 L57.05 55.3 57.05 55.25 56.65 54.9 56.25 55.15 55.8 55.3 Q55.5 55.3 55.45 54.3 L55.5 53.15 55.25 51.85 55.05 50.4 55.5 45.8 55.6 44.7 55.9 45.8 56.15 46.65 57.05 49.7 57.6 52.45 57.8 53.5" fill="#565962" fill-rule="evenodd" stroke="none"/>
      <path d="M46.85 50.15 L47.65 47.85 48.0 46.8 48.25 46.05 51.4 49.35 52.4 50.5 54.65 53.35 54.25 55.3 54.1 55.9 54.0 56.25 53.85 56.1 52.25 54.45 51.65 53.85 51.7 53.0 51.6 52.1 50.95 50.5 Q50.2 49.25 49.05 49.25 L47.95 49.5 47.65 49.6 47.6 49.6 47.05 49.9 46.85 50.15" fill="#383840" fill-rule="evenodd" stroke="none"/>
      <path d="M45.35 54.15 L46.35 55.05 46.65 55.35 46.85 55.55 Q47.75 56.35 48.5 56.55 L48.7 56.9 48.45 56.8 48.4 57.05 48.4 57.35 48.9 59.2 48.0 58.7 47.9 58.6 47.65 58.45 45.4 57.35 45.3 57.25 45.15 57.2 45.05 57.15 44.3 56.8 44.6 55.85 45.2 54.45 45.35 54.15" fill="#393840" fill-rule="evenodd" stroke="none"/>
      <path d="M44.3 56.8 L45.05 57.15 45.15 57.2 45.3 57.25 45.4 57.35 47.65 58.45 47.9 58.6 48.0 58.7 48.9 59.2 49.1 59.6 49.5 60.75 50.2 62.1 50.55 62.65 50.15 63.0 48.55 64.35 48.0 64.9 46.05 61.85 45.55 61.1 45.35 60.75 44.5 59.5 43.9 58.6 44.0 58.1 44.15 57.25 44.2 57.15 44.3 56.8" fill="#645f66" fill-rule="evenodd" stroke="none"/>
      <path d="M51.4 63.35 L51.0 64.45 50.35 66.1 Q49.8 66.45 49.1 66.95 L47.1 68.2 44.65 65.2 44.55 65.0 43.3 63.2 43.2 63.1 43.0 62.65 42.8 62.35 42.9 62.15 43.2 61.3 43.55 60.15 43.9 58.6 44.5 59.5 45.35 60.75 45.55 61.1 46.05 61.85 48.0 64.9 48.55 64.35 50.15 63.0 50.55 62.65 51.3 63.3 51.4 63.35" fill="#3b3a42" fill-rule="evenodd" stroke="none"/>
      <path d="M57.05 55.3 L56.25 57.2 55.9 56.0 Q55.6 55.3 55.25 55.3 54.8 55.3 54.15 55.85 L54.1 55.9 54.25 55.3 54.65 53.35 55.05 50.4 55.25 51.85 55.5 53.15 55.45 54.3 Q55.5 55.3 55.8 55.3 L56.25 55.15 56.65 54.9 57.05 55.25 57.05 55.3" fill="#c8bcbe" fill-rule="evenodd" stroke="none"/>
      <path d="M51.65 53.85 L52.25 54.45 53.85 56.1 54.0 56.25 53.9 56.55 53.8 56.95 53.75 57.0 53.5 57.6 53.5 57.7 52.75 56.75 51.95 55.9 51.3 55.2 51.65 53.85" fill="#605d64" fill-rule="evenodd" stroke="none"/>
      <path d="M50.65 56.1 L51.1 55.55 51.3 55.2 51.95 55.9 52.75 56.75 53.5 57.7 53.0 59.0 52.85 59.35 52.5 58.8 52.05 58.15 51.85 57.8 50.65 56.1" fill="#33363f" fill-rule="evenodd" stroke="none"/>
      <path d="M48.7 56.9 L48.5 56.55 48.9 56.6 48.95 56.6 49.05 56.6 49.1 56.6 Q50.05 56.6 50.65 56.1 L51.85 57.8 52.05 58.15 52.5 58.8 52.85 59.35 52.1 60.75 51.65 61.6 51.1 60.75 50.85 60.4 49.1 57.65 49.05 57.6 48.9 57.35 48.85 57.25 48.85 57.2 48.7 56.9" fill="#5d5c64" fill-rule="evenodd" stroke="none"/>
      <path d="M51.9 61.9 L51.4 63.35 51.3 63.3 50.55 62.65 50.2 62.1 49.5 60.75 49.1 59.6 48.9 59.2 48.4 57.35 48.4 57.05 48.45 56.8 48.7 56.9 48.85 57.2 48.85 57.25 48.9 57.35 49.05 57.6 49.1 57.65 50.85 60.4 51.1 60.75 51.65 61.6 51.9 61.9" fill="#c1b7b8" fill-rule="evenodd" stroke="none"/>
      <path d="M55.05 59.75 L54.95 59.9 54.55 60.75 54.15 61.4 53.75 60.75 52.85 59.35 53.0 59.0 53.5 57.7 55.05 59.75" fill="#2f333c" fill-rule="evenodd" stroke="none"/>
      <path d="M56.25 57.2 L55.8 58.25 55.05 59.75 53.5 57.7 53.5 57.6 53.75 57.0 53.8 56.95 53.9 56.55 54.0 56.25 54.1 55.9 54.15 55.85 Q54.8 55.3 55.25 55.3 55.6 55.3 55.9 56.0 L56.25 57.2" fill="#595963" fill-rule="evenodd" stroke="none"/>
      <path d="M54.15 61.4 L53.05 63.25 51.9 61.9 51.65 61.6 52.1 60.75 52.85 59.35 53.75 60.75 54.15 61.4" fill="#535760" fill-rule="evenodd" stroke="none"/>
      <path d="M50.8 43.35 L51.0 42.6 51.05 42.4 50.25 42.05 48.25 41.45 47.45 41.25 46.65 41.0 46.4 41.85 46.05 42.85 45.7 43.95 44.95 44.4 43.8 45.25 43.5 45.4 43.4 45.5 43.3 45.6 43.15 45.7 43.05 45.8 42.65 46.15 Q41.95 46.8 41.7 47.3 41.45 47.75 41.5 48.15 M44.4 50.05 L44.4 49.95 44.65 49.35 44.7 49.25 44.7 49.15 44.75 49.05 M44.8 48.95 L44.85 48.85 46.05 46.85 46.75 45.8 46.85 45.7 47.25 45.25 47.85 44.5 48.2 44.15 48.95 43.4 49.15 43.4 50.25 43.35 50.8 43.35 52.8 43.4 53.95 43.45 54.15 42.95 54.65 42.85 55.1 42.8 56.3 42.6 57.3 45.8 57.6 46.95 Q58.2 49.65 58.3 52.05 L57.8 53.5 57.05 55.3 56.25 57.2 55.8 58.25 55.05 59.75 54.95 59.9 54.55 60.75 54.15 61.4 53.05 63.25 51.9 61.9 51.4 63.35 51.0 64.45 50.35 66.1 Q49.8 66.45 49.1 66.95 L47.1 68.2 44.65 65.2 44.55 65.0 43.3 63.2 43.2 63.1 43.0 62.65 42.8 62.35 42.15 60.75 M46.85 50.15 L47.05 49.9 47.6 49.6 47.65 49.6 47.95 49.5 49.05 49.25 Q50.2 49.25 50.95 50.5 L51.6 52.1 51.7 53.0 51.65 53.85 51.3 55.2 51.1 55.55 50.65 56.1 Q50.05 56.6 49.1 56.6 L49.05 56.6 48.95 56.6 48.9 56.6 48.5 56.55 Q47.75 56.35 46.85 55.55 L46.65 55.35 46.35 55.05 45.35 54.15 45.3 54.15 44.05 53.05 M46.85 50.15 L46.65 50.35 46.3 50.7 45.8 51.4 45.7 51.6 45.2 52.05 M44.4 50.05 Q44.3 50.35 44.35 50.6 M48.7 56.9 L48.5 56.55 M51.65 61.6 L51.1 60.75 50.85 60.4 49.1 57.65 49.05 57.6 48.9 57.35 48.85 57.25 48.85 57.2 48.7 56.9 M51.65 61.6 L51.9 61.9" fill="none" stroke="#26272b" stroke-linecap="round" stroke-linejoin="round" stroke-width="1.5"/>
    </g>
    <g id="sprite1" transform="matrix(1.0, 0.0, 0.0, 1.0, 0.05, 0.0)">
      <use ffdec:characterId="3" height="131.15" transform="matrix(1.0, 0.0, 0.0, 1.0, -0.05, 0.0)" width="157.8" xlink:href="#shape2"/>
    </g>
    <g id="shape2" transform="matrix(1.0, 0.0, 0.0, 1.0, 0.05, 0.0)">
      <path d="M139.65 78.4 L138.95 77.75 Q124.35 64.6 116.55 62.8 L115.65 62.65 115.75 62.5 116.5 62.5 115.95 61.2 125.0 60.65 133.6 61.25 139.65 78.4" fill="#f95d2d" fill-rule="evenodd" stroke="none"/>
      <path d="M115.65 62.65 L116.55 62.8 Q124.35 64.6 138.95 77.75 L139.65 78.4 Q146.7 84.8 151.75 90.6 L149.6 92.2 145.55 94.65 137.7 98.6 129.35 90.55 Q115.1 77.55 101.9 72.6 L115.65 62.65" fill="#ff973b" fill-rule="evenodd" stroke="none"/>
      <path d="M115.95 61.2 L116.5 62.5 115.75 62.5 115.65 62.65 101.9 72.6 Q99.6 74.25 97.65 75.65 L86.35 67.15 79.85 61.4 Q74.4 56.1 69.0 49.45 65.45 45.2 62.05 40.35 L63.5 39.9 69.65 38.9 78.2 38.5 80.0 38.6 Q78.4 42.95 78.4 44.3 L78.45 45.8 Q79.05 51.8 83.95 57.4 L84.0 57.45 Q89.25 63.45 94.0 63.45 L108.4 62.05 115.95 61.2" fill="#fd6b30" fill-rule="evenodd" stroke="none"/>
      <path d="M57.05 42.4 L60.45 45.85 60.0 47.85 60.25 48.3 Q60.8 47.75 61.2 46.7 L65.15 50.5 65.5 50.85 Q68.9 54.05 73.7 59.75 75.25 61.6 77.5 63.55 81.8 67.25 88.7 71.5 L92.45 73.75 93.95 74.7 96.9 76.15 96.6 76.4 92.65 79.15 89.75 77.0 76.35 68.5 73.85 66.85 Q64.6 60.85 57.3 54.3 53.2 50.65 49.8 46.8 L51.55 45.5 57.05 42.4" fill="#fdc043" fill-rule="evenodd" stroke="none"/>
      <path d="M62.05 40.35 Q65.45 45.2 69.0 49.45 74.4 56.1 79.85 61.4 L86.35 67.15 97.65 75.65 96.9 76.15 93.95 74.7 92.45 73.75 88.7 71.5 Q81.8 67.25 77.5 63.55 75.25 61.6 73.7 59.75 68.9 54.05 65.5 50.85 L65.15 50.5 61.2 46.7 Q60.8 47.75 60.25 48.3 L60.0 47.85 60.45 45.85 57.05 42.4 Q59.5 41.2 61.75 40.4 L62.05 40.35" fill="#fff64e" fill-rule="evenodd" stroke="none"/>
      <path d="M92.65 79.15 L96.6 76.4 96.9 76.15 104.5 80.25 104.95 80.55 105.9 81.2 105.95 81.3 106.1 81.45 105.65 80.95 Q114.8 86.35 125.1 94.05 L133.45 100.6 132.05 101.25 127.4 104.75 121.85 99.85 Q117.75 96.35 104.2 88.4 L99.5 85.6 91.25 80.15 92.65 79.15" fill="#e75629" fill-rule="evenodd" stroke="none"/>
      <path d="M49.8 46.8 Q53.2 50.65 57.3 54.3 64.6 60.85 73.85 66.85 L76.35 68.5 89.75 77.0 92.65 79.15 91.25 80.15 91.1 80.25 89.6 81.3 Q81.95 74.8 72.25 68.3 L67.55 65.2 Q61.05 60.95 54.6 55.45 L47.4 48.9 49.35 47.2 49.8 46.8" fill="#ff7c38" fill-rule="evenodd" stroke="none"/>
      <path d="M91.25 80.15 L99.5 85.6 104.2 88.4 Q117.75 96.35 121.85 99.85 L127.4 104.75 123.05 107.85 112.75 100.45 Q97.6 89.85 86.45 83.5 L89.6 81.3 91.1 80.25 91.25 80.15" fill="#fff949" fill-rule="evenodd" stroke="none"/>
      <path d="M101.9 72.6 Q115.1 77.55 129.35 90.55 L137.7 98.6 133.45 100.6 125.1 94.05 Q114.8 86.35 105.65 80.95 L105.2 80.65 104.5 80.25 96.9 76.15 97.65 75.65 Q99.6 74.25 101.9 72.6" fill="#fe642e" fill-rule="evenodd" stroke="none"/>
      <path d="M89.6 81.3 L86.45 83.5 83.85 82.05 82.35 80.95 70.35 71.4 69.5 70.75 65.7 67.55 62.55 64.25 Q57.55 59.25 53.15 56.1 L52.45 55.55 46.4 49.95 47.4 48.9 54.6 55.45 Q61.05 60.95 67.55 65.2 L72.25 68.3 Q81.95 74.8 89.6 81.3" fill="#ffc945" fill-rule="evenodd" stroke="none"/>
      <path d="M86.45 83.5 Q97.6 89.85 112.75 100.45 L123.05 107.85 116.2 112.7 108.95 107.6 89.4 93.9 80.85 87.9 80.05 88.85 73.45 83.35 Q68.2 78.8 64.95 74.7 L62.4 71.0 66.45 73.4 68.15 74.4 69.3 74.4 69.3 73.25 68.65 71.5 65.7 67.55 69.5 70.75 70.35 71.4 82.35 80.95 83.85 82.05 86.45 83.5" fill="#ffa73d" fill-rule="evenodd" stroke="none"/>
      <path d="M139.65 78.4 L133.6 61.25 Q141.6 62.4 147.95 65.8 157.75 71.1 157.75 78.85 157.75 85.5 151.75 90.6 146.7 84.8 139.65 78.4" fill="#be4322" fill-rule="evenodd" stroke="none"/>
      <path d="M80.0 38.6 L78.2 38.5 69.65 38.9 71.3 34.95 Q74.0 28.05 74.0 21.1 74.0 17.05 72.3 8.3 L71.3 3.65 Q73.45 4.7 75.1 6.1 82.1 12.05 82.1 25.65 82.1 32.95 80.25 37.95 L80.0 38.6" fill="#fc622e" fill-rule="evenodd" stroke="none"/>
      <path d="M69.65 38.9 L63.5 39.9 62.05 40.35 61.85 40.05 63.25 34.35 Q64.3 30.75 66.05 28.35 65.9 24.35 63.25 15.7 L60.8 8.6 58.45 2.95 57.15 0.25 Q65.85 0.85 71.3 3.65 L72.3 8.3 Q74.0 17.05 74.0 21.1 74.0 28.05 71.3 34.95 L69.65 38.9" fill="#fd9b38" fill-rule="evenodd" stroke="none"/>
      <path d="M57.05 42.4 L51.55 45.5 49.8 46.8 49.35 47.2 Q47.15 44.75 44.35 42.5 40.85 39.75 37.35 36.05 L37.35 36.0 37.7 35.6 39.95 33.25 Q43.4 30.0 45.95 29.65 L48.3 29.4 55.4 28.75 58.15 28.2 58.65 27.45 58.0 24.0 56.2 19.95 53.2 14.5 52.5 13.05 47.95 3.8 46.65 1.4 46.1 0.4 51.55 0.0 57.15 0.25 58.45 2.95 60.8 8.6 63.25 15.7 Q65.9 24.35 66.05 28.35 64.3 30.75 63.25 34.35 L61.85 40.05 61.75 40.4 Q59.5 41.2 57.05 42.4" fill="#f3632e" fill-rule="evenodd" stroke="none"/>
      <path d="M46.1 0.4 L46.65 1.4 47.95 3.8 52.5 13.05 53.2 14.5 56.2 19.95 Q55.4 19.6 54.5 19.6 51.6 19.6 47.3 23.65 45.9 24.95 44.85 26.2 43.35 25.55 41.5 25.3 L39.7 25.0 39.7 24.75 Q37.5 24.75 34.5 26.1 34.95 25.1 35.95 24.3 L39.15 21.35 39.95 20.25 Q41.55 17.35 41.55 10.95 L41.4 1.25 46.1 0.4" fill="#ff7c37" fill-rule="evenodd" stroke="none"/>
      <path d="M41.4 1.25 L41.55 10.95 Q41.55 17.35 39.95 20.25 L39.15 21.35 35.95 24.3 Q34.95 25.1 34.5 26.1 32.85 26.75 31.05 27.8 30.7 27.95 30.45 28.2 27.35 30.05 25.85 32.2 24.5 34.05 24.5 36.2 L24.55 37.35 20.5 38.0 19.35 38.15 17.45 38.45 16.6 40.75 16.15 42.4 15.75 44.0 Q14.9 47.3 14.5 47.85 L12.85 49.95 Q10.65 52.65 8.7 55.5 L5.65 60.1 3.5 53.3 2.05 48.15 1.85 44.6 Q1.55 35.15 6.0 27.1 12.9 14.55 27.45 6.8 34.0 3.3 40.25 1.6 L41.4 1.25" fill="#ff7c34" fill-rule="evenodd" stroke="none"/>
      <path d="M56.2 19.95 L58.0 24.0 58.65 27.45 58.15 28.2 55.4 28.75 48.3 29.4 47.75 28.65 Q46.45 26.9 45.25 26.4 L44.85 26.2 Q45.9 24.95 47.3 23.65 51.6 19.6 54.5 19.6 55.4 19.6 56.2 19.95" fill="#fefc51" fill-rule="evenodd" stroke="none"/>
      <path d="M48.3 29.4 L45.95 29.65 Q43.4 30.0 39.95 33.25 L37.7 35.6 36.8 35.5 32.05 34.9 26.7 34.1 Q25.2 34.1 25.2 35.4 L25.25 35.95 Q25.5 36.4 26.6 36.65 L26.6 36.9 24.55 37.35 24.5 36.2 Q24.5 34.05 25.85 32.2 27.35 30.05 30.45 28.2 30.7 27.95 31.05 27.8 32.85 26.75 34.5 26.1 37.5 24.75 39.7 24.75 L39.7 25.0 41.5 25.3 Q43.35 25.55 44.85 26.2 L45.25 26.4 Q46.45 26.9 47.75 28.65 L48.3 29.4 M33.5 31.3 L33.6 30.1 33.45 31.15 33.4 31.55 33.4 31.8 33.5 31.3" fill="#feff5c" fill-rule="evenodd" stroke="none"/>
      <path d="M37.7 35.6 L37.35 36.0 37.35 36.05 Q40.85 39.75 44.35 42.5 47.15 44.75 49.35 47.2 L47.4 48.9 46.4 49.95 44.1 48.0 Q34.9 40.85 28.9 40.85 28.05 40.85 27.0 41.35 26.2 41.7 25.9 42.0 L32.5 47.25 33.65 48.2 35.45 49.6 36.1 49.75 39.9 50.85 42.45 53.0 42.95 53.6 43.3 53.95 Q40.9 56.95 39.0 62.3 L37.9 65.55 36.0 63.7 15.75 44.0 16.15 42.4 16.6 40.75 17.45 38.45 19.35 38.15 20.5 38.0 24.55 37.35 26.6 36.9 26.6 36.65 Q25.5 36.4 25.25 35.95 L25.2 35.4 Q25.2 34.1 26.7 34.1 L32.05 34.9 36.8 35.5 37.7 35.6 M38.5 51.55 L38.7 51.55 38.45 51.5 38.5 51.55" fill="#fee54b" fill-rule="evenodd" stroke="none"/>
      <path d="M12.85 49.95 L14.5 47.85 Q14.9 47.3 15.75 44.0 L36.0 63.7 37.9 65.55 36.55 70.35 36.15 72.05 35.3 76.15 Q29.5 70.45 27.4 69.25 L26.2 68.05 23.35 65.15 Q21.25 62.9 16.45 55.4 L12.85 49.95" fill="#fe963d" fill-rule="evenodd" stroke="none"/>
      <path d="M42.95 53.6 L42.45 53.0 39.9 50.85 36.1 49.75 35.45 49.6 33.65 48.2 32.5 47.25 25.9 42.0 Q26.2 41.7 27.0 41.35 28.05 40.85 28.9 40.85 34.9 40.85 44.1 48.0 L46.4 49.95 44.45 51.9 42.95 53.6" fill="#ff8c3f" fill-rule="evenodd" stroke="none"/>
      <path d="M8.7 55.5 Q10.65 52.65 12.85 49.95 L16.45 55.4 Q21.25 62.9 23.35 65.15 L26.2 68.05 27.4 69.25 Q29.5 70.45 35.3 76.15 L34.9 78.2 Q33.95 83.15 33.6 87.65 L32.2 86.7 30.6 85.65 26.25 82.95 Q23.2 79.65 19.05 73.55 L17.85 71.7 Q12.0 62.8 8.7 55.5" fill="#fe6c30" fill-rule="evenodd" stroke="none"/>
      <path d="M37.9 65.55 Q47.25 74.4 51.5 77.85 L56.3 81.65 74.85 95.6 72.75 98.5 Q62.2 91.45 56.55 87.3 L52.7 84.4 Q45.25 78.55 36.55 70.35 L37.9 65.55" fill="#ff9c3e" fill-rule="evenodd" stroke="none"/>
      <path d="M35.3 76.15 L36.15 72.05 36.55 70.35 Q45.25 78.55 52.7 84.4 L56.55 87.3 Q62.2 91.45 72.75 98.5 L69.85 103.05 Q63.6 99.05 58.1 95.45 52.3 91.65 47.5 88.15 40.0 82.75 34.9 78.2 L35.3 76.15" fill="#feef4c" fill-rule="evenodd" stroke="none"/>
      <path d="M37.9 65.55 L39.0 62.3 Q40.9 56.95 43.3 53.95 L46.65 56.95 48.25 58.25 52.1 61.35 Q54.85 63.8 56.7 66.3 58.3 68.5 61.4 70.4 L62.4 71.0 64.95 74.7 Q68.2 78.8 73.45 83.35 L80.05 88.85 Q78.1 91.1 74.9 95.45 L74.85 95.6 56.3 81.65 51.5 77.85 Q47.25 74.4 37.9 65.55" fill="#feff61" fill-rule="evenodd" stroke="none"/>
      <path d="M5.65 60.1 L8.7 55.5 Q12.0 62.8 17.85 71.7 L19.05 73.55 Q23.2 79.65 26.25 82.95 L30.6 85.65 32.2 86.7 33.6 87.65 33.4 93.3 Q33.4 95.15 33.55 96.9 L33.8 98.6 32.2 97.9 32.0 97.8 Q26.1 95.0 21.6 90.35 16.1 84.6 11.35 74.5 8.35 68.15 5.65 60.1" fill="#ff973e" fill-rule="evenodd" stroke="none"/>
      <path d="M33.6 87.65 Q33.95 83.15 34.9 78.2 40.0 82.75 47.5 88.15 52.3 91.65 58.1 95.45 63.6 99.05 69.85 103.05 68.35 105.75 67.55 107.95 65.9 112.3 65.25 118.3 63.8 115.6 62.5 112.45 60.45 107.35 54.15 104.8 L43.35 101.75 Q37.2 99.95 33.8 98.6 L33.55 96.9 Q33.4 95.15 33.4 93.3 L33.6 87.65" fill="#ff963e" fill-rule="evenodd" stroke="none"/>
      <path d="M43.3 53.95 L42.95 53.6 44.45 51.9 46.4 49.95 52.45 55.55 53.15 56.1 Q57.55 59.25 62.55 64.25 L65.7 67.55 68.65 71.5 69.3 73.25 69.3 74.4 68.15 74.4 66.45 73.4 62.4 71.0 61.4 70.4 Q58.3 68.5 56.7 66.3 54.85 63.8 52.1 61.35 L48.25 58.25 46.65 56.95 43.3 53.95" fill="#fd7332" fill-rule="evenodd" stroke="none"/>
      <path d="M80.05 88.85 L80.85 87.9 89.4 93.9 108.95 107.6 116.2 112.7 110.3 116.75 Q89.05 131.15 80.95 131.15 75.05 131.15 69.7 124.95 67.25 122.1 65.25 118.3 65.9 112.3 67.55 107.95 68.35 105.75 69.85 103.05 L72.75 98.5 74.85 95.6 74.9 95.45 Q78.1 91.1 80.05 88.85" fill="#fe7234" fill-rule="evenodd" stroke="none"/>
      <path d="M0.2 119.95 L0.0 120.7" fill="none" stroke="#ff00ff" stroke-linecap="round" stroke-linejoin="round" stroke-width="0.1"/>
    </g>
    <g id="shape3" transform="matrix(1.0, 0.0, 0.0, 1.0, 44.05, 37.1)">
      <path d="M34.75 48.1 L34.65 47.9 34.45 46.7 34.65 46.65 36.6 46.05 37.8 46.9 37.85 47.25 37.85 47.3 37.85 47.8 37.9 47.9 37.4 47.9 37.35 47.9 37.05 47.9 36.35 47.9 35.0 48.05 34.75 48.1" fill="#525661" fill-rule="evenodd" stroke="none"/>
      <path d="M30.1 47.55 L31.0 47.6 32.8 47.25 34.1 46.8 34.45 46.7 34.65 47.9 34.75 48.1 34.5 48.15 33.85 48.3 33.1 48.5 30.85 48.95 30.4 49.05 30.2 49.05 30.05 49.05 30.0 49.05 30.1 47.9 30.1 47.55" fill="#2e353b" fill-rule="evenodd" stroke="none"/>
      <path d="M30.0 49.05 L30.05 49.05 30.2 49.05 30.4 49.05 30.85 48.95 33.1 48.5 33.85 48.3 34.5 48.15 34.75 48.1 35.0 48.05 36.35 47.9 37.05 47.9 37.35 47.9 37.4 47.9 37.9 47.9 38.45 48.1 38.65 48.1 38.95 48.15 40.4 48.35 41.5 48.55 41.85 48.65 42.3 48.8 42.45 48.85 43.25 49.25 43.5 49.35 44.5 50.95 45.7 53.0 46.5 54.75 46.85 55.65 46.95 56.05 46.75 56.35 46.45 56.7 45.95 57.3 45.2 57.9 44.85 57.55 45.2 56.9 45.2 56.8 45.85 55.6 45.95 55.45 45.55 54.8 44.95 53.5 44.5 52.5 43.25 50.25 42.95 49.75 40.75 49.1 39.8 48.95 39.4 48.9 38.6 48.8 37.35 48.8 36.95 48.75 36.7 48.75 36.6 48.75 34.85 48.85 34.7 48.9 34.2 48.95 Q33.3 49.1 32.55 49.4 L31.4 49.75 31.2 49.8 30.65 49.9 30.1 49.95 29.2 50.0 29.1 50.0 28.3 49.95 26.65 49.5 25.9 49.1 24.45 47.75 24.3 47.5 24.45 47.6 26.3 48.4 26.6 48.5 Q28.25 49.1 29.4 49.1 L30.0 49.05 M17.0 48.65 L16.75 47.95 17.7 47.25 17.75 47.2 17.95 47.0 18.0 46.95 18.5 46.6 19.2 46.1 20.1 45.5 20.15 45.45 20.3 45.4 20.55 45.5 20.6 46.05 20.6 46.15 20.35 46.35 20.25 46.4 19.65 46.85 19.3 47.1 19.15 47.25 17.85 48.05 17.0 48.65" fill="#d7c3c4" fill-rule="evenodd" stroke="none"/>
      <path d="M45.55 54.8 L44.5 53.7 44.35 53.55 43.25 52.7 Q42.85 52.45 42.5 52.35 L41.5 50.5 40.75 49.1 42.95 49.75 43.25 50.25 44.5 52.5 44.95 53.5 45.55 54.8" fill="#565962" fill-rule="evenodd" stroke="none"/>
      <path d="M44.85 57.55 L44.6 57.25 44.5 57.15 43.25 56.0 Q42.15 55.05 41.05 54.45 L39.45 53.8 37.5 53.45 37.35 53.45 36.7 53.4 36.5 53.4 Q34.95 53.45 32.95 54.15 L32.55 54.35 32.2 54.5 32.1 54.5 Q29.5 55.55 28.1 55.55 L27.65 55.55 27.25 55.55 26.05 55.55 23.9 55.25 23.65 55.2 21.95 54.7 21.45 54.5 20.55 54.1 19.65 53.7 19.25 53.5 19.2 53.45 19.15 53.45 18.0 51.1 20.45 51.5 21.05 51.7 21.45 51.85 21.75 52.0 23.7 53.1 23.75 53.15 25.8 54.0 26.35 54.05 27.7 53.9 29.0 53.6 31.55 53.05 31.65 53.05 31.2 51.7 30.65 49.9 31.2 49.8 31.95 51.6 32.4 52.8 34.0 52.35 35.1 52.05 35.5 51.95 35.75 51.9 37.3 51.8 37.35 51.8 37.65 51.8 38.95 51.8 39.75 51.9 41.15 52.05 42.2 52.25 42.5 52.35 Q42.85 52.45 43.25 52.7 L44.35 53.55 44.5 53.7 45.55 54.8 45.85 55.6 45.2 56.8 45.2 56.9 44.85 57.55 M41.0 69.95 L41.2 70.1 41.0 70.0 41.0 69.95 M41.25 70.1 L42.0 68.25 43.05 65.35 43.2 65.35 43.3 65.3 43.85 65.1 44.05 65.25 44.55 65.9 45.0 66.7 44.85 67.4 44.55 67.25 44.35 67.1 43.8 66.8 43.3 67.95 42.85 69.0 42.25 70.35 42.15 70.65 41.3 70.1 41.25 70.1" fill="#3d3a41" fill-rule="evenodd" stroke="none"/>
      <path d="M40.75 49.1 L41.5 50.5 42.5 52.35 42.2 52.25 41.15 52.05 40.3 50.5 39.4 48.9 39.8 48.95 40.75 49.1" fill="#b6b1b7" fill-rule="evenodd" stroke="none"/>
      <path d="M41.15 52.05 L39.75 51.9 38.95 51.8 37.9 50.25 37.35 49.4 37.3 49.35 36.95 48.75 37.35 48.8 38.6 48.8 39.4 48.9 40.3 50.5 41.15 52.05" fill="#585b64" fill-rule="evenodd" stroke="none"/>
      <path d="M38.95 51.8 L37.65 51.8 37.35 51.8 37.3 51.8 35.75 51.9 35.25 50.9 35.2 50.75 34.2 48.95 34.7 48.9 34.85 48.85 36.6 48.75 36.7 48.75 36.95 48.75 37.3 49.35 37.35 49.4 37.9 50.25 38.95 51.8" fill="#33363f" fill-rule="evenodd" stroke="none"/>
      <path d="M35.75 51.9 L35.5 51.95 35.1 52.05 34.0 52.35 32.4 52.8 31.95 51.6 31.2 49.8 31.4 49.75 32.55 49.4 Q33.3 49.1 34.2 48.95 L35.2 50.75 35.25 50.9 35.75 51.9" fill="#d3bfc1" fill-rule="evenodd" stroke="none"/>
      <path d="M30.1 47.55 L30.1 47.9 30.0 49.05 29.4 49.1 Q28.25 49.1 26.6 48.5 L26.1 47.65 25.95 47.45 24.9 46.05 25.35 46.15 27.2 46.85 28.3 47.25 30.05 47.55 30.1 47.55" fill="#53535d" fill-rule="evenodd" stroke="none"/>
      <path d="M18.0 51.1 L17.1 48.95 17.0 48.65 17.85 48.05 19.15 47.25 19.3 47.1 19.65 46.85 20.25 46.4 20.35 46.35 20.6 46.15 20.6 46.05 20.55 45.5 21.3 45.95 21.45 46.0 21.75 46.15 23.65 47.25 23.75 47.25 23.9 47.35 23.95 47.35 24.2 47.5 24.3 47.5 24.45 47.75 25.9 49.1 26.65 49.5 28.3 49.95 29.1 50.0 29.2 50.0 30.1 49.95 30.65 49.9 31.2 51.7 31.65 53.05 31.55 53.05 29.0 53.6 27.7 53.9 26.35 54.05 25.8 54.0 23.75 53.15 23.7 53.1 21.75 52.0 21.45 51.85 21.05 51.7 20.45 51.5 18.0 51.1" fill="#635e65" fill-rule="evenodd" stroke="none"/>
      <path d="M25.55 62.9 L26.55 62.9 27.05 62.9 27.45 62.9 27.55 62.9 28.45 62.9 30.6 63.25 30.7 63.35 31.7 64.9 31.85 65.1 32.0 65.35 33.25 67.7 33.6 68.5 33.6 68.8 33.55 68.8 33.15 67.9 32.9 67.4 31.95 65.8 31.6 65.35 31.5 65.15 30.6 64.0 30.5 63.8 30.45 63.95 28.15 63.75 27.5 63.7 27.15 63.7 26.95 63.7 26.4 63.7 25.45 63.7 25.55 62.9" fill="#c1a9a7" fill-rule="evenodd" stroke="none"/>
      <path d="M30.6 64.0 L31.5 65.15 31.6 65.35 31.95 65.8 32.9 67.4 33.15 67.9 33.55 68.8 32.8 68.8 32.05 68.85 31.5 68.2 30.2 66.95 30.15 66.9 27.9 65.35 27.65 65.25 27.6 65.25 27.6 64.8 27.5 63.7 28.15 63.75 30.45 63.95 30.6 64.0" fill="#605f67" fill-rule="evenodd" stroke="none"/>
      <path d="M33.7 68.8 L33.8 68.9 34.25 68.8 34.4 68.8 34.45 68.8 34.5 68.8 35.95 68.8 36.1 68.8 36.1 69.0 36.45 70.65 36.45 70.75 36.2 70.75 35.95 70.7 35.85 70.7 34.9 70.8 34.85 70.85 33.9 70.9 33.6 70.65 32.4 69.7 31.55 68.9 32.05 68.85 32.8 68.8 33.55 68.8 33.6 68.9 33.6 68.8 33.7 68.8 M39.25 69.15 L39.35 69.2 39.45 69.2 40.9 69.9 41.0 70.0 41.2 70.1 41.25 70.1 41.3 70.1 42.15 70.65 42.0 71.05 41.9 71.3 41.85 71.55 41.7 71.8 41.55 72.2 41.2 72.0 40.85 71.85 40.45 71.7 40.3 71.65 39.8 71.5 39.15 71.25 39.1 71.25 39.1 71.05 39.15 70.65 39.25 69.5 39.25 69.15" fill="#f0e8f5" fill-rule="evenodd" stroke="none"/>
      <path d="M27.25 55.55 L27.25 55.65 27.35 56.05 27.6 57.05 27.75 57.6 27.6 57.6 27.3 57.65 26.45 57.75 26.25 57.75 26.6 58.8 26.7 59.1 27.05 60.05 27.25 60.35 27.0 60.5 26.85 60.6 26.05 61.1 25.15 61.75 25.35 62.4 25.5 62.9 25.55 62.9 25.45 63.7 26.4 63.7 26.95 63.7 27.15 63.7 27.5 63.7 27.6 64.8 27.6 65.25 27.65 65.25 27.9 65.35 30.15 66.9 30.2 66.95 31.5 68.2 32.05 68.85 31.55 68.9 31.35 68.95 28.8 69.55 28.0 69.9 27.35 70.2 26.55 70.65 25.95 71.05 25.4 71.45 25.35 71.45 25.05 71.05 24.75 70.65 24.35 70.1 24.2 69.9 23.7 69.2 23.1 68.25 22.0 66.55 20.75 64.1 19.8 65.25 19.75 65.25 19.6 65.5 18.8 64.0 18.25 62.8 17.6 60.8 17.7 60.4 17.95 59.55 18.75 56.7 19.55 54.1 19.65 53.7 20.55 54.1 21.45 54.5 21.95 54.7 23.65 55.2 23.9 55.25 26.05 55.55 27.25 55.55" fill="#3a3941" fill-rule="evenodd" stroke="none"/>
      <path d="M33.9 70.9 L32.7 71.0 32.15 71.05 31.8 71.1 30.8 71.35 29.5 71.75 27.8 72.4 27.6 72.45 26.45 72.65 25.95 72.7 25.15 72.0 24.95 71.8 25.35 71.45 25.4 71.45 25.95 71.05 26.55 70.65 27.35 70.2 28.0 69.9 28.8 69.55 31.35 68.95 31.55 68.9 32.4 69.7 33.6 70.65 33.9 70.9" fill="#9195ba" fill-rule="evenodd" stroke="none"/>
      <path d="M36.1 68.8 L36.15 68.8 36.6 68.8 36.65 68.8 38.9 69.05 39.1 69.1 39.25 69.15 39.25 69.5 39.15 70.65 39.1 71.05 39.1 71.25 38.6 71.15 38.15 71.05 36.65 70.8 36.45 70.75 36.45 70.65 36.1 69.0 36.1 68.8" fill="#fcfafb" fill-rule="evenodd" stroke="none"/>
      <path d="M44.85 67.4 L44.7 68.0 44.65 68.2 44.55 68.15 44.35 68.15 Q43.65 68.15 43.45 68.45 L43.3 68.65 43.25 69.1 43.3 69.45 43.45 69.65 43.6 69.8 Q43.8 70.05 44.1 70.1 L43.9 70.65 43.85 70.9 43.55 71.55 42.8 71.05 42.2 70.65 42.25 70.65 42.25 70.55 42.25 70.35 42.85 69.0 43.3 67.95 43.8 66.8 44.35 67.1 44.55 67.25 44.85 67.4" fill="#6d636b" fill-rule="evenodd" stroke="none"/>
      <path d="M43.55 71.55 L42.65 72.75 42.35 72.55 41.55 72.2 41.7 71.8 41.85 71.55 42.05 71.05 42.2 70.65 42.8 71.05 43.55 71.55" fill="#c8abc9" fill-rule="evenodd" stroke="none"/>
      <path d="M44.65 68.2 L44.55 68.6 44.1 70.1 Q43.8 70.05 43.6 69.8 L43.45 69.65 43.3 69.45 43.25 69.1 43.3 68.65 43.45 68.45 Q43.65 68.15 44.35 68.15 L44.55 68.15 44.65 68.2" fill="#e1c2bf" fill-rule="evenodd" stroke="none"/>
      <path d="M16.75 47.95 L16.45 48.15 16.35 47.65 16.3 47.25 16.3 46.95 16.25 46.95 16.2 46.15 16.15 45.6 16.15 45.0 16.15 44.3 16.15 43.6 16.15 43.5 Q16.2 43.15 16.8 43.15 L18.35 43.6 19.2 43.85 20.0 44.2 20.25 44.3 20.5 44.4 21.1 44.65 21.3 44.75 24.35 45.85 24.9 46.05 25.95 47.45 26.1 47.65 26.6 48.5 26.3 48.4 24.45 47.6 24.3 47.5 24.2 47.5 23.95 47.35 23.9 47.35 23.75 47.25 23.65 47.25 21.75 46.15 21.45 46.0 21.3 45.95 20.55 45.5 20.3 45.4 20.15 45.45 20.1 45.5 19.2 46.1 18.5 46.6 18.0 46.95 17.95 47.0 17.75 47.2 17.7 47.25 16.75 47.95" fill="#373741" fill-rule="evenodd" stroke="none"/>
      <path d="M27.75 57.6 L28.35 59.75 27.6 60.15 27.25 60.35 27.05 60.05 26.7 59.1 26.6 58.8 26.25 57.75 26.45 57.75 27.3 57.65 27.6 57.6 27.75 57.6" fill="#645f66" fill-rule="evenodd" stroke="none"/>
      <path d="M24.95 71.8 L24.5 71.4 24.15 71.05 23.8 70.65 23.15 70.05 23.1 70.0 22.9 69.8 21.75 68.55 21.35 68.0 19.7 65.65 19.6 65.5 19.75 65.25 19.8 65.25 20.75 64.1 22.0 66.55 23.1 68.25 23.7 69.2 24.2 69.9 24.35 70.1 24.75 70.65 25.05 71.05 25.35 71.45 24.95 71.8" fill="#4d5560" fill-rule="evenodd" stroke="none"/>
      <path d="M34.45 46.7 L34.1 46.8 32.8 47.25 31.0 47.6 30.1 47.55 30.05 47.55 28.3 47.25 27.2 46.85 25.35 46.15 24.9 46.05 24.35 45.85 21.3 44.75 21.1 44.65 20.5 44.4 20.25 44.3 20.0 44.2 19.2 43.85 18.35 43.6 16.8 43.15 Q16.2 43.15 16.15 43.5 L16.15 43.6 16.15 44.3 16.15 45.0 16.15 45.6 16.2 46.15 16.25 46.95 16.3 46.95 16.3 47.25 16.35 47.65 16.45 48.15 16.75 47.95 17.7 47.25 17.75 47.2 17.95 47.0 18.0 46.95 18.5 46.6 19.2 46.1 20.1 45.5 20.15 45.45 20.3 45.4 20.55 45.5 21.3 45.95 21.45 46.0 21.75 46.15 23.65 47.25 23.75 47.25 23.9 47.35 23.95 47.35 24.2 47.5 24.3 47.5 24.45 47.6 26.3 48.4 26.6 48.5 Q28.25 49.1 29.4 49.1 L30.0 49.05 30.05 49.05 30.2 49.05 30.4 49.05 30.85 48.95 33.1 48.5 33.85 48.3 34.5 48.15 34.75 48.1 35.0 48.05 36.35 47.9 37.05 47.9 37.35 47.9 37.4 47.9 37.9 47.9 38.45 48.1 38.65 48.1 38.95 48.15 40.4 48.35 41.5 48.55 41.85 48.65 42.3 48.8 42.45 48.85 43.25 49.25 43.5 49.35 44.5 50.95 45.7 53.0 46.5 54.75 46.85 55.65 46.95 56.05 46.75 56.35 46.45 56.7 45.95 57.3 45.2 57.9 44.85 57.55 44.6 57.25 44.5 57.15 43.25 56.0 Q42.15 55.05 41.05 54.45 L39.45 53.8 37.5 53.45 37.35 53.45 36.7 53.4 36.5 53.4 Q34.95 53.45 32.95 54.15 L32.55 54.35 32.2 54.5 32.1 54.5 Q29.5 55.55 28.1 55.55 L27.65 55.55 27.25 55.55 27.25 55.65 27.35 56.05 27.6 57.05 27.75 57.6 28.35 59.75 27.6 60.15 27.25 60.35 27.0 60.5 26.85 60.6 26.05 61.1 25.15 61.75 25.35 62.4 25.5 62.9 25.55 62.9 26.55 62.9 27.05 62.9 27.45 62.9 27.55 62.9 28.45 62.9 30.6 63.25 30.7 63.35 31.7 64.9 31.85 65.1 32.0 65.35 33.25 67.7 33.6 68.5 33.7 68.8 33.8 68.9 34.25 68.8 34.4 68.8 M34.45 46.7 L34.65 46.65 36.6 46.05 37.8 46.9 37.85 47.25 37.85 47.3 37.85 47.8 37.9 47.9 M34.45 68.8 L34.5 68.8 35.95 68.8 36.1 68.8 36.15 68.8 36.6 68.8 36.65 68.8 38.9 69.05 39.1 69.1 39.25 69.15 39.35 69.2 39.45 69.2 40.9 69.9 41.0 69.95 41.2 70.1 41.25 70.1 42.0 68.25 43.05 65.35 43.2 65.35 43.3 65.3 43.85 65.1 44.05 65.25 44.55 65.9 45.0 66.7 44.85 67.4 44.7 68.0 44.65 68.2 44.55 68.6 44.1 70.1 43.9 70.65 43.85 70.9 43.55 71.55 42.65 72.75 42.35 72.55 41.55 72.2 41.2 72.0 40.85 71.85 40.45 71.7 40.3 71.65 39.8 71.5 39.15 71.25 39.1 71.25 38.6 71.15 38.15 71.05 36.65 70.8 36.45 70.75 36.2 70.75 35.95 70.7 35.85 70.7 34.9 70.8 34.9 70.85 34.85 70.85 33.9 70.9 32.7 71.0 32.15 71.05 31.8 71.1 30.8 71.35 29.5 71.75 27.8 72.4 27.6 72.45 26.45 72.65 25.95 72.7 25.15 72.0 24.95 71.8 24.5 71.4 24.15 71.05 23.8 70.65 23.15 70.05 23.1 70.0 22.9 69.8 21.75 68.55 21.35 68.0 19.7 65.65 19.6 65.5 18.8 64.0 18.25 62.8 17.6 60.8 17.7 60.4 M19.65 53.7 L19.25 53.5 19.2 53.45 19.15 53.45 M34.9 70.8 L34.85 70.85 M27.25 55.55 L26.05 55.55 23.9 55.25 23.65 55.2 21.95 54.7 21.45 54.5 20.55 54.1 19.65 53.7" fill="none" stroke="#1d2323" stroke-linecap="round" stroke-linejoin="round" stroke-width="1.5"/>
      <path d="M12.5 43.45 L13.65 43.35 Q13.9 43.35 14.2 43.5 L14.9 43.7 15.65 43.6 Q17.05 44.2 18.25 45.2 L18.4 45.35 19.05 45.95 19.75 46.7 19.75 46.75 19.95 47.0 Q20.8 48.2 20.8 49.2 20.8 50.0 20.45 50.55 L20.3 50.7 20.1 50.95 19.75 51.15 18.45 51.5 15.65 51.05 14.25 50.55 12.6 49.45 12.55 49.45 12.5 49.4 11.95 48.9 11.2 48.15 11.0 47.8 Q10.1 46.6 10.1 45.25 10.1 44.5 11.0 44.0 L11.05 43.95 11.7 43.7 12.5 43.45 M13.55 45.4 L13.2 46.15 14.2 47.15 14.25 47.25 15.65 48.1 15.7 48.15 16.9 48.35 17.35 48.35 17.75 48.25 17.9 48.15 18.1 47.6 17.9 46.6 17.75 46.3 17.3 45.8 16.85 45.8 16.35 45.4 16.05 45.2 16.0 45.15 15.65 44.95 Q14.95 44.6 14.6 44.6 14.2 44.6 13.85 44.95 L13.55 45.4" fill="#ff873b" fill-rule="evenodd" stroke="none"/>
      <path d="M14.8 45.25 L14.7 45.55 Q14.7 45.9 15.15 46.3 L15.65 46.6 15.95 46.65 16.2 46.6 16.3 46.55 16.05 45.85 15.85 45.65 15.85 45.6 15.65 45.4 15.35 45.2 15.15 45.1 14.9 45.2 14.85 45.2 14.8 45.25 M13.55 45.4 L13.85 44.95 Q14.2 44.6 14.6 44.6 14.95 44.6 15.65 44.95 L16.0 45.15 16.05 45.2 16.35 45.4 16.85 45.8 17.3 45.8 17.75 46.3 17.9 46.6 18.1 47.6 17.9 48.15 17.75 48.25 17.35 48.35 16.9 48.35 15.7 48.15 15.65 48.1 14.25 47.25 14.2 47.15 13.2 46.15 13.55 45.4" fill="#fefe5e" fill-rule="evenodd" stroke="none"/>
      <path d="M14.8 45.25 L14.85 45.2 14.9 45.2 15.15 45.1 15.35 45.2 15.65 45.4 15.85 45.6 15.85 45.65 16.05 45.85 16.3 46.55 16.2 46.6 15.95 46.65 15.65 46.6 15.15 46.3 Q14.7 45.9 14.7 45.55 L14.8 45.25" fill="#feffff" fill-rule="evenodd" stroke="none"/>
      <path d="M41.5 -24.3 L40.05 -25.05 38.0 -26.05 37.6 -26.3 Q36.8 -26.95 36.4 -27.9 L35.15 -30.05 34.95 -30.25 Q36.95 -30.2 38.7 -28.7 L38.7 -28.65 Q40.5 -27.05 41.5 -24.3 M37.4 -28.65 L36.95 -28.6 36.95 -28.05 37.7 -27.25 37.95 -27.05 Q38.5 -26.65 38.85 -26.6 L39.45 -26.6 39.45 -26.95 38.4 -27.95 37.4 -28.65 M0.1 10.7 L-0.45 9.85 -0.75 8.25 -0.8 7.75 Q-1.05 6.5 -2.0 5.4 -6.35 0.55 -6.1 -4.5 -4.85 -0.55 -2.15 1.3 0.55 3.1 5.25 3.1 L7.55 2.95 9.0 2.8 Q10.3 2.8 11.25 3.55 12.2 4.2 13.0 5.8 L13.0 5.3 12.75 3.35 Q12.75 2.35 13.1 0.85 13.5 -0.65 13.5 -1.5 13.5 -2.9 12.85 -3.75 L11.2 -5.8 11.3 -5.8 Q11.75 -5.35 13.0 -5.2 L15.05 -4.8 Q15.95 -4.45 16.35 -3.2 16.75 -2.1 17.15 -2.1 18.15 -2.1 18.55 -3.6 18.85 -4.75 18.8 -7.1 18.8 -10.45 17.65 -13.1 16.6 -15.45 14.15 -18.05 L13.7 -18.5 11.05 -20.8 Q9.0 -22.1 6.15 -22.1 L1.85 -22.25 Q0.5 -22.7 0.0 -24.95 L0.0 -25.5 Q0.35 -25.15 1.7 -24.65 L4.05 -24.2 4.55 -24.25 Q4.35 -25.5 1.75 -26.85 -0.55 -28.1 -2.3 -28.35 L-1.0 -28.5 0.1 -28.7 4.45 -27.95 Q7.5 -27.2 10.1 -26.95 13.0 -26.75 14.9 -26.05 17.5 -25.15 19.85 -23.05 22.45 -20.85 24.1 -17.9 25.45 -15.55 26.9 -11.4 L27.25 -10.1 27.55 -8.35 28.05 -5.05 Q28.8 -1.4 31.55 -1.4 L32.25 -1.45 Q32.8 -1.6 32.8 -1.9 L32.15 -3.3 30.85 -5.7 Q30.55 -6.25 30.2 -8.0 L29.9 -9.85 Q30.35 -8.4 32.25 -5.5 34.1 -2.6 34.55 -2.6 35.15 -2.6 35.15 -3.75 35.15 -6.0 32.2 -9.85 L29.65 -12.95 28.9 -13.65 29.0 -13.65 29.8 -13.15 32.65 -10.4 Q35.1 -7.55 36.75 -5.0 L38.5 -2.3 40.05 0.55 41.0 3.25 Q41.4 4.1 41.9 4.35 L43.0 2.4 45.05 -0.1 46.6 -4.55 Q47.45 -7.3 48.15 -8.45 L48.9 -4.6 49.15 -2.05 48.95 0.15 Q48.95 0.65 50.0 2.45 51.0 5.0 51.0 9.2 L51.0 10.4 Q50.85 12.7 50.3 13.7 48.85 16.1 47.95 18.75 L47.8 19.2 47.0 19.8 Q46.05 19.8 44.55 18.85 42.8 17.7 42.8 16.5 L42.7 16.5 41.9 18.5 41.75 18.85 41.7 18.9 39.9 20.0 39.3 20.0 40.65 17.8 Q41.3 16.75 41.3 16.1 41.3 15.3 40.65 14.65 39.85 13.85 39.55 12.4 L39.45 9.75 Q39.4 8.45 38.9 7.8 37.5 6.25 37.1 2.65 L36.85 0.0 36.45 -1.85 36.45 0.25 Q36.35 1.75 35.85 2.4 L34.5 4.8 Q33.3 6.9 32.95 6.9 32.3 6.9 31.4 4.2 L30.55 1.2 Q30.2 0.25 29.25 -0.35 L27.95 -1.2 27.95 -1.05 28.4 1.3 28.85 4.35 28.2 6.45 Q27.55 8.3 27.6 11.0 L27.8 15.55 27.8 16.5 27.5 17.3 27.1 14.55 Q26.75 12.1 25.85 10.8 L23.35 8.3 Q21.7 6.55 21.25 4.4 20.95 2.8 19.65 1.3 18.65 0.15 17.45 -0.55 16.4 -1.2 16.05 -1.65 L16.8 0.1 Q17.85 2.45 17.75 3.9 L18.95 7.3 Q20.2 10.65 20.2 12.1 L19.7 15.5 18.9 14.8 17.2 12.15 Q16.1 10.3 15.15 9.5 13.8 8.3 12.05 8.3 L11.35 8.4 10.6 8.55 7.0 7.1 3.55 5.5 Q2.5 5.3 1.2 4.35 L-0.3 3.5 0.6 5.35 Q1.6 7.25 2.8 8.1 4.35 9.25 5.7 10.9 7.05 12.65 7.1 13.6 L7.1 14.0 Q6.3 12.65 4.95 12.0 3.95 11.5 3.0 11.5 L1.45 11.95 1.25 11.75 0.1 10.7 M19.35 -15.9 Q19.0 -17.1 19.15 -18.05 19.25 -19.1 18.95 -20.1 L18.7 -20.9 Q18.2 -22.1 17.4 -22.85 L17.4 -22.65 17.25 -21.95 17.1 -21.5 17.55 -20.65 17.8 -19.85 17.9 -18.85 17.8 -17.3 17.6 -16.15 Q17.6 -15.55 17.9 -15.15 18.15 -14.7 19.05 -14.3 L19.9 -14.3 19.35 -15.9 M15.45 -2.45 L15.25 -2.9 15.15 -2.9 15.45 -2.45" fill="#fdba0b" fill-rule="evenodd" stroke="none"/>
      <path d="M37.4 -28.65 L38.4 -27.95 39.45 -26.95 39.45 -26.6 38.85 -26.6 Q38.5 -26.65 37.95 -27.05 L37.7 -27.25 36.95 -28.05 36.95 -28.6 37.4 -28.65 M1.45 11.95 L3.0 11.5 Q3.95 11.5 4.95 12.0 6.3 12.65 7.1 14.0 L7.1 13.6 Q7.05 12.65 5.7 10.9 4.35 9.25 2.8 8.1 1.6 7.25 0.6 5.35 L-0.3 3.5 1.2 4.35 Q2.5 5.3 3.55 5.5 L7.0 7.1 10.6 8.55 11.35 8.4 12.05 8.3 Q13.8 8.3 15.15 9.5 16.1 10.3 17.2 12.15 L18.9 14.8 19.7 15.5 20.2 12.1 Q20.2 10.65 18.95 7.3 L17.75 3.9 Q17.85 2.45 16.8 0.1 L16.05 -1.65 Q16.4 -1.2 17.45 -0.55 18.65 0.15 19.65 1.3 20.95 2.8 21.25 4.4 21.7 6.55 23.35 8.3 L25.85 10.8 Q26.75 12.1 27.1 14.55 L27.5 17.3 27.8 16.5 27.8 15.55 27.6 11.0 Q27.55 8.3 28.2 6.45 L28.85 4.35 28.4 1.3 27.95 -1.05 27.95 -1.2 29.25 -0.35 Q30.2 0.25 30.55 1.2 L31.4 4.2 Q32.3 6.9 32.95 6.9 33.3 6.9 34.5 4.8 L35.85 2.4 Q36.35 1.75 36.45 0.25 L36.45 -1.85 36.85 0.0 37.1 2.65 Q37.5 6.25 38.9 7.8 39.4 8.45 39.45 9.75 L39.55 12.4 Q39.85 13.85 40.65 14.65 41.3 15.3 41.3 16.1 41.3 16.75 40.65 17.8 L39.3 20.0 39.9 20.0 41.7 18.9 41.75 18.85 41.9 18.5 42.7 16.5 42.8 16.5 Q42.8 17.7 44.55 18.85 46.05 19.8 47.0 19.8 L47.8 19.2 48.3 18.65 49.9 16.8 50.1 16.8 50.2 17.7 Q50.2 20.65 48.6 22.3 L47.35 23.55 Q46.7 24.3 46.5 25.4 L46.55 29.0 Q46.25 31.7 44.65 31.7 L43.65 31.5 42.15 31.3 42.05 31.3 Q41.1 31.3 40.1 31.8 L38.1 32.95 36.55 33.75 Q34.4 34.6 32.05 34.6 30.25 34.6 28.25 33.75 L24.6 31.9 21.6 30.75 19.3 30.2 17.4 29.8 Q16.3 29.55 15.3 28.65 L15.15 28.6 14.65 28.6 Q11.5 28.6 9.55 27.3 L8.3 26.25 6.85 24.45 4.6 21.6 Q3.15 20.3 0.8 20.3 L-1.05 20.75 -3.8 21.2 Q-6.55 21.2 -7.5 20.4 L-8.5 19.15 -9.05 18.2 -9.85 17.0 -9.65 17.1 -8.2 18.3 -7.8 18.5 Q-6.3 19.3 -4.35 19.3 L-2.25 19.0 -1.1 18.55 0.4 17.95 0.15 17.95 -2.2 18.1 -4.75 18.1 Q-6.05 18.1 -7.55 17.3 L-8.95 16.4 -8.85 16.4 Q-8.6 16.65 -7.75 16.95 L-6.2 17.2 Q-3.75 17.2 -0.55 15.5 1.7 14.3 2.9 13.95 L1.85 13.8 0.45 14.05 -1.05 14.3 -2.75 14.1 -4.15 13.7 -3.95 13.6 Q-2.5 14.0 -0.3 12.85 L1.45 11.95 M19.35 -15.9 L19.9 -14.3 19.05 -14.3 Q18.15 -14.7 17.9 -15.15 17.6 -15.55 17.6 -16.15 L17.8 -17.3 17.9 -18.85 17.8 -19.85 17.55 -20.65 17.1 -21.5 17.25 -21.95 17.4 -22.65 17.4 -22.85 Q18.2 -22.1 18.7 -20.9 L18.95 -20.1 Q19.25 -19.1 19.15 -18.05 19.0 -17.1 19.35 -15.9 M0.15 17.95 L0.1 17.8 -0.15 17.95 0.15 17.95 M-39.55 13.45 L-37.6 16.0 -36.9 16.65 Q-33.75 19.85 -30.9 20.7 L-32.5 20.55 -33.95 20.4 -35.35 19.25 Q-37.2 17.55 -38.25 16.1 -39.25 14.65 -39.55 13.45" fill="#feff5a" fill-rule="evenodd" stroke="none"/>
      <path d="M32.4 -36.15 L34.15 -33.55 Q35.55 -31.7 36.9 -30.6 L38.85 -28.95 39.55 -28.35 Q41.4 -26.4 41.85 -24.65 L41.85 -24.0 41.5 -24.3 Q40.5 -27.05 38.7 -28.65 L38.7 -28.7 Q36.95 -30.2 34.95 -30.25 L33.7 -31.95 Q32.15 -34.15 32.4 -36.15 M51.0 10.4 L51.0 9.2 Q51.0 5.0 50.0 2.45 48.95 0.65 48.95 0.15 L49.15 -2.05 48.9 -4.6 48.15 -8.45 Q47.45 -7.3 46.6 -4.55 L45.05 -0.1 43.0 2.4 41.9 4.35 Q41.4 4.1 41.0 3.25 L40.05 0.55 38.5 -2.3 36.75 -5.0 Q35.1 -7.55 32.65 -10.4 L29.8 -13.15 29.0 -13.65 28.9 -13.65 29.65 -12.95 32.2 -9.85 Q35.15 -6.0 35.15 -3.75 35.15 -2.6 34.55 -2.6 34.1 -2.6 32.25 -5.5 30.35 -8.4 29.9 -9.85 L30.2 -8.0 Q30.55 -6.25 30.85 -5.7 L32.15 -3.3 32.8 -1.9 Q32.8 -1.6 32.25 -1.45 L31.55 -1.4 Q28.8 -1.4 28.05 -5.05 L27.55 -8.35 27.25 -10.1 26.9 -11.4 Q25.45 -15.55 24.1 -17.9 22.45 -20.85 19.85 -23.05 17.5 -25.15 14.9 -26.05 13.0 -26.75 10.1 -26.95 7.5 -27.2 4.45 -27.95 L0.1 -28.7 -1.0 -28.5 -2.3 -28.35 Q-0.55 -28.1 1.75 -26.85 4.35 -25.5 4.55 -24.25 L4.05 -24.2 1.7 -24.65 Q0.35 -25.15 0.0 -25.5 L0.0 -24.95 Q0.5 -22.7 1.85 -22.25 L6.15 -22.1 Q9.0 -22.1 11.05 -20.8 L13.7 -18.5 14.15 -18.05 Q16.6 -15.45 17.65 -13.1 18.8 -10.45 18.8 -7.1 18.85 -4.75 18.55 -3.6 18.15 -2.1 17.15 -2.1 16.75 -2.1 16.35 -3.2 15.95 -4.45 15.05 -4.8 L13.0 -5.2 Q11.75 -5.35 11.3 -5.8 L11.2 -5.8 12.85 -3.75 Q13.5 -2.9 13.5 -1.5 13.5 -0.65 13.1 0.85 12.75 2.35 12.75 3.35 L13.0 5.3 13.0 5.8 Q12.2 4.2 11.25 3.55 10.3 2.8 9.0 2.8 L7.55 2.95 5.25 3.1 Q0.55 3.1 -2.15 1.3 -4.85 -0.55 -6.1 -4.5 -6.35 0.55 -2.0 5.4 -1.05 6.5 -0.8 7.75 L-0.75 8.25 -0.45 9.85 0.1 10.7 Q-0.9 11.5 -2.8 12.1 -5.75 13.0 -6.95 12.9 L-10.3 13.05 -13.15 13.4 Q-16.6 13.4 -20.85 11.0 -23.75 9.35 -25.7 7.6 -26.35 7.0 -27.3 4.75 -28.5 2.8 -30.8 2.8 L-31.65 2.9 Q-33.2 3.25 -34.4 4.8 -35.9 6.85 -35.85 9.85 -35.85 12.55 -34.1 15.3 L-34.55 14.85 -36.8 12.75 -36.35 9.35 Q-35.95 6.85 -36.05 5.35 -36.2 3.35 -35.3 1.9 -34.3 0.25 -32.2 0.25 L-30.0 0.5 Q-28.4 0.9 -26.85 1.8 -25.45 2.65 -22.45 5.2 L-17.8 8.65 Q-14.85 10.2 -11.7 10.2 -9.85 10.2 -6.9 9.1 -3.9 8.1 -2.1 8.1 L-1.45 8.15 -0.75 8.25 -2.65 7.55 -4.9 6.15 -6.05 4.2 Q-6.7 2.6 -7.0 2.35 L-9.25 -0.6 Q-10.45 -2.7 -10.45 -5.3 L-10.15 -7.45 -9.75 -9.25 -9.8 -9.85 Q-8.05 -8.45 -6.35 -6.65 L-3.3 -3.1 Q-1.65 -1.25 -0.05 -0.45 2.0 0.55 5.0 0.55 L8.05 0.4 Q9.95 0.0 9.95 -1.55 9.95 -2.9 8.5 -4.3 L6.1 -6.15 Q5.4 -6.85 5.25 -9.2 5.15 -11.4 4.0 -11.9 L4.15 -11.9 5.5 -10.9 7.35 -8.9 Q10.1 -6.15 12.3 -6.15 15.6 -6.15 15.55 -8.85 15.55 -11.45 14.05 -13.95 12.55 -16.35 10.25 -17.3 L9.25 -17.65 7.0 -18.0 3.35 -18.35 Q-0.5 -18.65 -1.75 -19.75 L-2.45 -20.75 -2.95 -22.1 -3.85 -24.55 Q-4.45 -25.5 -6.3 -25.95 L-9.3 -26.45 Q-12.2 -27.0 -14.65 -28.6 -17.6 -30.55 -17.6 -32.95 L-17.6 -33.15 Q-16.65 -31.6 -15.5 -31.0 -14.1 -30.3 -11.2 -30.3 L-5.65 -31.0 0.1 -31.7 Q5.65 -31.7 13.9 -29.3 22.6 -26.75 26.05 -23.75 27.55 -22.45 29.05 -20.2 L31.45 -16.4 31.8 -15.85 Q33.1 -14.3 34.35 -13.45 35.55 -12.65 37.05 -12.4 L36.5 -12.2 Q35.55 -11.85 35.55 -10.75 35.55 -9.55 37.75 -7.95 L40.5 -6.3 Q42.15 -5.2 42.85 -3.65 L43.6 -1.0 44.2 -2.8 45.35 -4.85 46.3 -6.45 48.2 -9.95 Q48.65 -10.9 48.65 -13.65 48.65 -17.35 46.85 -20.3 45.1 -23.2 42.05 -25.0 L42.6 -25.0 Q42.45 -25.0 42.35 -25.15 42.6 -25.75 44.9 -24.4 47.35 -23.05 48.8 -21.5 50.35 -19.85 51.3 -18.3 52.65 -16.15 52.65 -14.6 52.65 -12.95 52.05 -9.85 51.55 -6.85 51.55 -5.65 51.55 -4.1 52.8 -0.25 53.75 2.75 53.9 4.65 55.5 3.55 57.15 1.1 L59.0 -2.3 59.2 -0.9 59.55 3.05 Q59.55 6.05 59.0 8.35 L57.85 12.1 Q56.9 14.55 56.5 15.9 55.85 18.4 55.6 21.5 55.45 23.5 54.4 25.3 53.4 27.2 51.65 28.55 L50.3 29.75 Q50.15 30.95 49.65 32.15 48.95 33.95 47.65 35.4 50.8 34.95 51.0 31.6 L51.35 32.15 51.65 32.85 Q51.65 34.8 48.1 36.8 L44.15 38.65 Q44.25 39.25 45.4 39.4 L47.35 39.25 Q44.35 41.4 42.95 41.85 L40.05 42.25 40.75 41.6 41.55 41.15 42.25 40.7 42.6 39.95 43.0 39.15 45.2 37.1 47.55 34.95 Q48.45 33.95 48.95 31.45 L49.7 27.85 Q49.9 27.4 50.6 26.8 L51.9 25.7 Q53.5 24.2 53.5 22.4 L53.15 20.2 Q52.8 18.85 52.8 17.85 52.8 17.2 53.75 15.6 L55.5 12.5 Q55.95 11.45 56.4 8.35 L57.05 4.2 Q55.1 6.65 51.0 10.4 M40.0 -20.1 L39.45 -20.5 Q38.55 -21.3 37.9 -21.5 36.9 -21.85 36.05 -23.1 L35.9 -23.3 Q35.05 -24.65 35.3 -25.5 L35.3 -25.3 36.5 -24.25 36.6 -24.2 38.05 -23.1 Q39.85 -21.65 40.0 -20.1 M15.7 41.35 Q14.4 40.25 13.25 38.8 L11.35 37.6 7.65 35.15 Q2.4 31.3 2.4 28.05 L2.5 27.5 2.55 26.95 4.65 30.2 Q6.4 32.75 8.5 33.7 L8.5 33.5 Q7.95 32.7 7.5 30.45 L6.85 28.85 6.1 27.4 5.6 26.2 4.85 24.65 4.9 23.8 6.95 26.2 8.1 28.3 9.85 32.9 9.85 33.4 9.4 33.3 8.85 33.2 9.8 34.3 Q10.6 35.2 11.65 35.7 12.15 35.85 13.5 36.7 L15.05 37.5 14.5 38.05 Q14.25 38.3 14.25 38.65 14.25 39.5 15.7 41.35 M3.2 24.35 Q2.9 24.95 1.6 25.5 L-1.2 26.15 Q-3.9 26.15 -6.85 23.85 L-9.65 21.5 Q-11.65 19.75 -13.15 18.65 L-13.7 18.2 Q-16.25 16.4 -19.55 14.6 -24.4 11.95 -26.65 11.95 -29.95 11.95 -29.95 14.9 L-29.9 15.75 Q-29.6 17.7 -27.95 19.15 -26.7 20.25 -23.85 21.5 L-25.15 21.65 Q-27.05 21.65 -28.4 20.95 L-28.5 20.85 Q-29.95 19.95 -31.7 17.5 L-32.5 16.65 -33.0 15.65 -33.15 15.1 Q-33.85 13.05 -33.85 10.7 L-33.7 9.6 Q-33.25 7.25 -30.3 7.25 -28.45 7.25 -26.6 8.5 L-23.15 11.0 -17.4 13.55 Q-12.7 15.65 -12.7 16.65 -12.7 17.1 -12.85 17.3 L-11.95 17.65 -10.95 17.95 -11.15 18.2 -11.2 18.25 -11.25 18.55 Q-11.25 20.3 -6.85 21.9 -3.0 23.3 -0.4 23.3 L0.8 23.1 Q1.45 22.75 1.55 22.7 L1.65 22.7 0.9 23.3 -0.05 24.2 -0.05 24.4 0.6 24.5 2.65 24.4 3.2 24.35" fill="#fc7231" fill-rule="evenodd" stroke="none"/>
      <path d="M0.1 10.7 L1.25 11.75 1.45 11.95 -0.3 12.85 Q-2.5 14.0 -3.95 13.6 L-4.15 13.7 -2.75 14.1 -1.05 14.3 0.45 14.05 1.85 13.8 2.9 13.95 Q1.7 14.3 -0.55 15.5 -3.75 17.2 -6.2 17.2 L-7.75 16.95 Q-8.6 16.65 -8.85 16.4 L-8.95 16.4 -7.55 17.3 Q-6.05 18.1 -4.75 18.1 L-2.2 18.1 0.15 17.95 0.4 17.95 -1.1 18.55 -2.25 19.0 -4.35 19.3 Q-6.3 19.3 -7.8 18.5 L-8.2 18.3 -9.65 17.1 -9.85 17.0 -9.05 18.2 -8.5 19.15 -7.5 20.4 Q-6.55 21.2 -3.8 21.2 L-1.05 20.75 0.8 20.3 Q3.15 20.3 4.6 21.6 L6.85 24.45 8.3 26.25 9.55 27.3 Q11.5 28.6 14.65 28.6 L15.15 28.6 15.3 28.65 Q16.3 29.55 17.4 29.8 L19.3 30.2 21.6 30.75 24.6 31.9 28.25 33.75 Q30.25 34.6 32.05 34.6 34.4 34.6 36.55 33.75 L38.1 32.95 40.1 31.8 Q41.1 31.3 42.05 31.3 L42.15 31.3 43.65 31.5 44.65 31.7 Q46.25 31.7 46.55 29.0 L46.5 25.4 Q46.7 24.3 47.35 23.55 L48.6 22.3 Q50.2 20.65 50.2 17.7 L50.1 16.8 49.9 16.8 48.3 18.65 47.8 19.2 47.95 18.75 Q48.85 16.1 50.3 13.7 50.85 12.7 51.0 10.4 55.1 6.65 57.05 4.2 L56.4 8.35 Q55.95 11.45 55.5 12.5 L53.75 15.6 Q52.8 17.2 52.8 17.85 52.8 18.85 53.15 20.2 L53.5 22.4 Q53.5 24.2 51.9 25.7 L50.6 26.8 Q49.9 27.4 49.7 27.85 L48.95 31.45 Q48.45 33.95 47.55 34.95 L45.2 37.1 43.0 39.15 42.6 39.95 42.25 40.7 41.55 41.15 40.75 41.6 40.05 42.25 38.1 42.3 36.4 42.05 35.3 41.8 32.55 44.35 Q31.2 45.15 28.1 45.15 23.1 45.15 19.65 43.75 17.55 42.85 15.7 41.35 14.25 39.5 14.25 38.65 14.25 38.3 14.5 38.05 L15.05 37.5 13.5 36.7 Q12.15 35.85 11.65 35.7 10.6 35.2 9.8 34.3 L8.85 33.2 9.4 33.3 9.85 33.4 9.85 32.9 8.1 28.3 6.95 26.2 4.9 23.8 4.85 24.65 4.65 24.35 4.4 23.95 Q3.6 22.6 2.7 22.0 L3.35 23.9 3.2 24.35 2.65 24.4 0.6 24.5 -0.05 24.4 -0.05 24.2 0.9 23.3 1.65 22.7 1.55 22.7 Q1.45 22.75 0.8 23.1 L-0.4 23.3 Q-3.0 23.3 -6.85 21.9 -11.25 20.3 -11.25 18.55 L-11.2 18.25 -11.15 18.2 -10.95 17.95 -11.95 17.65 -12.85 17.3 Q-12.7 17.1 -12.7 16.65 -12.7 15.65 -17.4 13.55 L-23.15 11.0 -26.6 8.5 Q-28.45 7.25 -30.3 7.25 -33.25 7.25 -33.7 9.6 L-33.85 10.7 Q-33.85 13.05 -33.15 15.1 L-33.0 15.65 -32.5 16.65 -33.65 15.65 -34.05 15.3 -34.1 15.3 Q-35.85 12.55 -35.85 9.85 -35.9 6.85 -34.4 4.8 -33.2 3.25 -31.65 2.9 L-30.8 2.8 Q-28.5 2.8 -27.3 4.75 -26.35 7.0 -25.7 7.6 -23.75 9.35 -20.85 11.0 -16.6 13.4 -13.15 13.4 L-10.3 13.05 -6.95 12.9 Q-5.75 13.0 -2.8 12.1 -0.9 11.5 0.1 10.7" fill="#faa10f" fill-rule="evenodd" stroke="none"/>
      <path d="M-38.9 -30.05 L-38.85 -30.15 -36.5 -30.5 -34.95 -30.95 Q-34.6 -30.95 -33.4 -29.4 L-32.95 -28.75 -33.3 -28.7 -34.25 -28.4 Q-36.8 -28.4 -39.05 -29.95 L-38.9 -30.05 M-26.4 -28.8 L-27.1 -28.95 -29.45 -29.7 Q-32.95 -30.9 -34.05 -32.05 L-31.65 -32.05 -28.85 -31.3 -27.2 -30.95 -25.1 -30.75 -23.15 -30.9 Q-24.4 -29.8 -26.3 -28.85 L-26.4 -28.8" fill="#fc6633" fill-rule="evenodd" stroke="none"/>
      <path d="M-23.15 -30.9 L-21.95 -31.15 -21.1 -31.3 Q-21.75 -30.45 -22.85 -29.75 -24.45 -28.7 -25.5 -28.7 L-26.2 -28.75 -26.4 -28.8 -26.3 -28.85 Q-24.4 -29.8 -23.15 -30.9 M-19.55 -16.85 L-18.2 -16.2 -17.35 -15.85 Q-16.5 -15.4 -15.8 -14.65 L-15.4 -14.3 Q-14.7 -13.55 -14.15 -12.65 L-14.85 -12.85 -16.6 -12.75 -19.05 -12.55 Q-19.7 -12.55 -20.35 -12.95 L-20.8 -14.3 -20.9 -14.85 -20.45 -16.15 Q-20.05 -16.85 -19.55 -16.85" fill="#ffae0f" fill-rule="evenodd" stroke="none"/>
      <path d="M-20.35 -12.95 L-21.45 -14.05 -22.7 -16.3 Q-24.05 -19.4 -24.1 -21.3 L-21.9 -18.75 Q-20.9 -17.6 -19.55 -16.85 -20.05 -16.85 -20.45 -16.15 L-20.9 -14.85 -20.8 -14.3 -20.35 -12.95" fill="#ff652e" fill-rule="evenodd" stroke="none"/>
      <path d="M-41.75 13.5 L-42.4 12.1 Q-43.25 10.15 -43.3 8.3 -43.3 5.9 -40.4 5.55 L-39.5 5.45 Q-40.85 7.45 -40.85 9.2 L-40.8 9.55 Q-41.75 11.3 -41.75 13.2 L-41.75 13.5" fill="#e66840" fill-rule="evenodd" stroke="none"/>
      <path d="M-40.8 9.55 Q-40.7 11.45 -39.55 13.45 -39.25 14.65 -38.25 16.1 -37.2 17.55 -35.35 19.25 L-33.95 20.4 -34.75 20.35 Q-37.55 19.85 -39.7 16.75 L-40.0 16.3 -41.75 13.5 -41.75 13.2 Q-41.75 11.3 -40.8 9.55" fill="#fc9c09" fill-rule="evenodd" stroke="none"/>
      <path d="M32.4 -36.15 L32.25 -36.35 32.4 -36.35 32.4 -36.15 34.15 -33.55 Q35.55 -31.7 36.9 -30.6 L38.85 -28.95 39.55 -28.35 Q41.4 -26.4 41.85 -24.65 L41.85 -24.0 41.5 -24.3 40.05 -25.05 38.0 -26.05 37.6 -26.3 Q36.8 -26.95 36.4 -27.9 L35.15 -30.05 34.95 -30.25 33.7 -31.95 Q32.15 -34.15 32.4 -36.15 M40.05 42.25 L42.95 41.85 Q44.35 41.4 47.35 39.25 L45.4 39.4 Q44.25 39.25 44.15 38.65 L48.1 36.8 Q51.65 34.8 51.65 32.85 L51.35 32.15 51.0 31.6 Q50.8 34.95 47.65 35.4 48.95 33.95 49.65 32.15 50.15 30.95 50.3 29.75 L51.65 28.55 Q53.4 27.2 54.4 25.3 55.45 23.5 55.6 21.5 55.85 18.4 56.5 15.9 56.9 14.55 57.85 12.1 L59.0 8.35 Q59.55 6.05 59.55 3.05 L59.2 -0.9 59.0 -2.3 57.15 1.1 Q55.5 3.55 53.9 4.65 53.75 2.75 52.8 -0.25 51.55 -4.1 51.55 -5.65 51.55 -6.85 52.05 -9.85 52.65 -12.95 52.65 -14.6 52.65 -16.15 51.3 -18.3 50.35 -19.85 48.8 -21.5 47.35 -23.05 44.9 -24.4 42.6 -25.75 42.35 -25.15 42.45 -25.0 42.6 -25.0 L42.05 -25.0 Q45.1 -23.2 46.85 -20.3 48.65 -17.35 48.65 -13.65 48.65 -10.9 48.2 -9.95 L46.3 -6.45 45.35 -4.85 44.2 -2.8 43.6 -1.0 42.85 -3.65 Q42.15 -5.2 40.5 -6.3 L37.75 -7.95 Q35.55 -9.55 35.55 -10.75 35.55 -11.85 36.5 -12.2 L37.05 -12.4 Q35.55 -12.65 34.35 -13.45 33.1 -14.3 31.8 -15.85 L31.45 -16.4 29.05 -20.2 Q27.55 -22.45 26.05 -23.75 22.6 -26.75 13.9 -29.3 5.65 -31.7 0.1 -31.7 L-5.65 -31.0 -11.2 -30.3 Q-14.1 -30.3 -15.5 -31.0 -16.65 -31.6 -17.6 -33.15 L-17.6 -32.95 Q-17.6 -30.55 -14.65 -28.6 -12.2 -27.0 -9.3 -26.45 L-6.3 -25.95 Q-4.45 -25.5 -3.85 -24.55 L-2.95 -22.1 -2.45 -20.75 -1.75 -19.75 Q-0.5 -18.65 3.35 -18.35 L7.0 -18.0 9.25 -17.65 10.25 -17.3 Q12.55 -16.35 14.05 -13.95 15.55 -11.45 15.55 -8.85 15.6 -6.15 12.3 -6.15 10.1 -6.15 7.35 -8.9 L5.5 -10.9 4.15 -11.9 4.0 -11.9 Q5.15 -11.4 5.25 -9.2 5.4 -6.85 6.1 -6.15 L8.5 -4.3 Q9.95 -2.9 9.95 -1.55 9.95 0.0 8.05 0.4 L5.0 0.55 Q2.0 0.55 -0.05 -0.45 -1.65 -1.25 -3.3 -3.1 L-6.35 -6.65 Q-8.05 -8.45 -9.8 -9.85 L-9.75 -9.25 -10.15 -7.45 -10.45 -5.3 Q-10.45 -2.7 -9.25 -0.6 L-7.0 2.35 Q-6.7 2.6 -6.05 4.2 L-4.9 6.15 -2.65 7.55 -0.75 8.25 -1.45 8.15 -2.1 8.1 Q-3.9 8.1 -6.9 9.1 -9.85 10.2 -11.7 10.2 -14.85 10.2 -17.8 8.65 L-22.45 5.2 Q-25.45 2.65 -26.85 1.8 -28.4 0.9 -30.0 0.5 L-32.2 0.25 Q-34.3 0.25 -35.3 1.9 -36.2 3.35 -36.05 5.35 -35.95 6.85 -36.35 9.35 L-36.8 12.75 -34.55 14.85 -34.1 15.3 M40.0 -20.1 Q39.85 -21.65 38.05 -23.1 L36.6 -24.2 36.5 -24.25 35.3 -25.3 35.3 -25.5 Q35.05 -24.65 35.9 -23.3 L36.05 -23.1 Q36.9 -21.85 37.9 -21.5 38.55 -21.3 39.45 -20.5 L40.0 -20.1 M37.05 -12.4 L38.75 -12.2 M40.05 42.25 L38.1 42.3 36.4 42.05 35.3 41.8 32.55 44.35 Q31.2 45.15 28.1 45.15 23.1 45.15 19.65 43.75 17.55 42.85 15.7 41.35 14.4 40.25 13.25 38.8 L11.35 37.6 7.65 35.15 Q2.4 31.3 2.4 28.05 L2.5 27.5 2.55 26.95 4.65 30.2 Q6.4 32.75 8.5 33.7 L8.5 33.5 Q7.95 32.7 7.5 30.45 L6.85 28.85 6.1 27.4 5.6 26.2 4.85 24.65 4.65 24.35 4.4 23.95 Q3.6 22.6 2.7 22.0 L3.35 23.9 3.2 24.35 Q2.9 24.95 1.6 25.5 L-1.2 26.15 Q-3.9 26.15 -6.85 23.85 L-9.65 21.5 Q-11.65 19.75 -13.15 18.65 L-13.7 18.2 Q-16.25 16.4 -19.55 14.6 -24.4 11.95 -26.65 11.95 -29.95 11.95 -29.95 14.9 L-29.9 15.75 Q-29.6 17.7 -27.95 19.15 -26.7 20.25 -23.85 21.5 L-25.15 21.65 Q-27.05 21.65 -28.4 20.95 L-28.5 20.85 Q-29.95 19.95 -31.7 17.5 L-32.5 16.65 -33.65 15.65 -34.05 15.3 M-38.9 -30.05 L-39.05 -29.95 Q-36.8 -28.4 -34.25 -28.4 L-33.3 -28.7 -32.95 -28.75 -33.4 -29.4 Q-34.6 -30.95 -34.95 -30.95 L-36.5 -30.5 -38.85 -30.15 -38.9 -30.05 M-26.4 -28.8 L-27.1 -28.95 -29.45 -29.7 Q-32.95 -30.9 -34.05 -32.05 L-31.65 -32.05 -28.85 -31.3 -27.2 -30.95 -25.1 -30.75 -23.15 -30.9 -21.95 -31.15 -21.1 -31.3 Q-21.75 -30.45 -22.85 -29.75 -24.45 -28.7 -25.5 -28.7 L-26.2 -28.75 -26.4 -28.8 M-20.35 -12.95 L-21.45 -14.05 -22.7 -16.3 Q-24.05 -19.4 -24.1 -21.3 L-21.9 -18.75 Q-20.9 -17.6 -19.55 -16.85 L-18.2 -16.2 -17.35 -15.85 Q-16.5 -15.4 -15.8 -14.65 L-15.4 -14.3 Q-14.7 -13.55 -14.15 -12.65 L-14.85 -12.85 -16.6 -12.75 -19.05 -12.55 Q-19.7 -12.55 -20.35 -12.95 M-41.75 13.5 L-42.4 12.1 Q-43.25 10.15 -43.3 8.3 -43.3 5.9 -40.4 5.55 L-39.5 5.45 Q-40.85 7.45 -40.85 9.2 L-40.8 9.55 Q-40.7 11.45 -39.55 13.45 L-37.6 16.0 -36.9 16.65 Q-33.75 19.85 -30.9 20.7 L-30.25 20.9 M-41.75 13.5 L-40.0 16.3 -39.7 16.75 Q-37.55 19.85 -34.75 20.35 L-33.95 20.4 -32.5 20.55 -30.9 20.7" fill="none" stroke="#8a3700" stroke-linecap="round" stroke-linejoin="round" stroke-width="1.5"/>
      <path d="M21.7 35.3 L21.75 34.75 21.95 32.6 24.1 33.45 Q27.05 34.6 29.9 34.6 L38.0 34.0 38.9 34.1 37.45 37.25 33.7 39.3 31.75 37.75 31.6 37.8 30.8 38.35 Q30.5 38.35 29.15 37.15 L28.9 36.9 25.3 38.15 21.7 35.3" fill="#3df7e2" fill-rule="evenodd" stroke="none"/>
      <path d="M21.7 35.3 L25.3 38.15 28.9 36.9 29.15 37.15 Q30.5 38.35 30.8 38.35 L31.6 37.8 31.75 37.75 33.7 39.3 37.45 37.25 35.9 40.05 34.75 41.85 34.6 42.1 Q34.0 40.85 31.95 40.05 30.1 39.3 28.35 39.3 26.2 39.3 24.5 40.15 L22.95 41.15 22.7 40.15 21.6 37.05 21.7 35.3" fill="#ddcacc" fill-rule="evenodd" stroke="none"/>
      <path d="M22.95 41.15 L24.5 40.15 Q26.2 39.3 28.35 39.3 30.1 39.3 31.95 40.05 34.0 40.85 34.6 42.1 L28.4 45.75 23.2 41.9 22.95 41.15" fill="#faf2ef" fill-rule="evenodd" stroke="none"/>
      <path d="M37.45 37.25 L38.65 36.6 M21.7 35.3 L25.3 38.15 28.9 36.9 29.15 37.15 Q30.5 38.35 30.8 38.35 L31.6 37.8 31.75 37.75 33.7 39.3 37.45 37.25" fill="none" stroke="#207369" stroke-linecap="round" stroke-linejoin="round" stroke-width="1.5"/>
      <path d="M34.6 42.1 L36.6 40.9 M23.2 41.9 L28.4 45.75 34.6 42.1 M23.2 41.9 L21.95 41.0" fill="none" stroke="#601f0b" stroke-linecap="round" stroke-linejoin="round" stroke-width="1.5"/>
      <path d="M-41.75 -9.45 L-42.1 -10.3 -35.45 -3.0 -35.55 -1.85 -41.75 -9.45 M-33.2 -0.55 L-31.8 1.0 -31.9 2.65 -33.25 1.0 -33.2 -0.55 M-29.5 3.55 L-16.35 18.0 -16.4 18.2 -16.7 19.05 -16.7 19.2 -1.15 39.95 -1.35 40.1 -29.55 5.55 -29.5 3.55 M-29.6 9.2 L-2.9 43.1 -4.75 42.65 -32.2 7.55 -32.1 5.95 -29.6 9.2" fill="#fa732f" fill-rule="evenodd" stroke="none"/>
      <path d="M-41.75 -9.45 L-35.55 -1.85 -35.85 1.25 -39.2 -3.05 -41.75 -9.45 M-33.4 4.35 L-33.25 1.0 -31.9 2.65 -32.1 5.95 -33.4 4.35 M-29.55 5.55 L-1.35 40.1 -0.6 41.05 -0.65 43.65 -2.9 43.1 -29.6 9.2 -29.55 5.55" fill="#fefe0a" fill-rule="evenodd" stroke="none"/>
      <path d="M-34.35 -1.8 L-33.2 -0.55 -33.25 1.0 -33.4 4.35 -34.6 2.85 -34.35 -1.8" fill="#fffe5d" fill-rule="evenodd" stroke="none"/>
      <path d="M-39.2 -3.05 L-35.85 1.25 -34.6 2.85 -33.4 4.35 -32.1 5.95 -32.2 7.55 -37.9 0.25 -39.2 -3.05" fill="#ff7e32" fill-rule="evenodd" stroke="none"/>
      <path d="M-35.55 -1.85 L-35.45 -3.0 -34.35 -1.8 -34.6 2.85 -35.85 1.25 -35.55 -1.85" fill="#ffffff" fill-rule="evenodd" stroke="none"/>
      <path d="M-31.8 1.0 L-29.5 3.55 -29.55 5.55 -29.6 9.2 -32.1 5.95 -31.9 2.65 -31.8 1.0" fill="#ffff5f" fill-rule="evenodd" stroke="none"/>
      <path d="M-16.0 18.45 L-14.3 19.25 -13.0 20.9 -13.45 20.65 -16.7 19.05 -16.4 18.2 -16.0 18.45" fill="#f7ad00" fill-rule="evenodd" stroke="none"/>
      <path d="M-1.15 39.95 L-16.7 19.2 -16.7 19.05 -13.45 20.65 1.0 38.95 0.1 38.85 -1.15 39.95" fill="#fae400" fill-rule="evenodd" stroke="none"/>
      <path d="M-13.45 20.65 L-13.0 20.9 1.75 39.0 1.0 38.95 -13.45 20.65" fill="#faffc5" fill-rule="evenodd" stroke="none"/>
      <path d="M-14.3 19.25 L-12.3 20.3 6.6 41.15 5.65 42.85 1.0 42.75 -1.15 39.95 0.1 38.85 1.0 38.95 1.75 39.0 -13.0 20.9 -14.3 19.25" fill="#b97c00" fill-rule="evenodd" stroke="none"/>
      <path d="M-2.9 43.1 L-0.65 43.65 -0.6 41.05 1.0 43.0 2.3 47.6 0.0 48.75 -4.75 42.65 -2.9 43.1" fill="#fea03e" fill-rule="evenodd" stroke="none"/>
      <path d="M-35.45 -3.0 L-42.1 -10.3 -41.75 -9.45 -39.2 -3.05 -37.9 0.25 -32.2 7.55 -4.75 42.65 0.0 48.75 2.15 51.5 M-35.45 -3.0 L-34.35 -1.8 -33.2 -0.55 -31.8 1.0 -29.5 3.55 -16.35 18.0 -16.0 18.45 -14.3 19.25 -12.3 20.3 6.6 41.15 7.15 41.7 M-1.15 39.95 L-16.7 19.2 -16.7 19.05 -16.4 18.2 -16.35 18.0 M-16.0 18.45 L-16.4 18.2 M-1.15 39.95 L1.0 42.75 1.45 43.35" fill="none" stroke="#511c0c" stroke-linecap="round" stroke-linejoin="round" stroke-width="1.5"/>
      <path d="M31.35 -5.9 L31.35 -6.05 Q34.1 0.55 35.85 7.5 L35.5 7.8 35.15 7.9 34.8 7.85 34.5 7.65 34.15 7.3 33.6 6.45 33.6 6.3 Q32.95 0.45 31.35 -5.9 M36.25 9.2 L36.4 9.55 36.5 9.9 37.65 16.1 36.45 20.45 35.75 17.3 Q34.9 14.1 34.05 12.3 L33.85 9.1 34.25 8.7 34.8 8.55 35.65 8.8 36.25 9.2 M26.9 21.55 L27.0 21.65 Q27.65 24.25 28.9 26.6 L29.35 27.45 27.35 30.65 26.5 29.95 25.35 28.95 23.95 27.8 23.5 25.55 26.9 21.55" fill="#65727b" fill-rule="evenodd" stroke="none"/>
      <path d="M46.3 7.55 L46.45 7.3 46.4 16.3 45.55 19.35 45.3 19.7 Q44.4 20.95 43.95 20.95 43.65 20.95 43.65 19.65 L43.6 18.15 46.3 7.55" fill="#f1d700" fill-rule="evenodd" stroke="none"/>
      <path d="M31.35 -5.9 Q32.95 0.45 33.6 6.3 L33.5 6.2 33.5 6.3 33.6 6.45 33.8 8.5 33.85 9.1 34.05 12.3 33.1 13.75 32.2 15.2 30.7 17.55 29.8 19.1 29.2 20.35 28.85 18.55 28.05 14.95 29.4 8.45 29.65 7.3 Q30.8 1.0 31.35 -5.9 M33.25 30.0 L33.75 29.4 34.85 27.85 36.05 31.6 33.75 32.85 33.75 32.75 32.95 30.9 33.25 30.0 M30.15 28.4 L30.15 27.8 30.05 26.6 30.0 26.15 30.0 26.1 30.25 25.35 Q30.65 24.45 31.2 23.85 L32.85 22.1 33.2 21.75 33.4 21.55 33.55 21.85 33.5 22.05 32.7 26.6 32.6 26.95 32.5 27.25 32.4 27.05 Q31.3 27.65 31.1 27.8 L31.0 27.85 30.3 28.35 30.15 28.4" fill="#4d5560" fill-rule="evenodd" stroke="none"/>
      <path d="M33.6 6.45 L34.15 7.3 34.5 7.65 34.8 7.85 35.15 7.9 35.5 7.8 35.85 7.5 36.25 9.2 35.65 8.8 34.8 8.55 34.25 8.7 33.85 9.1 33.8 8.5 33.6 6.45 M46.05 33.3 L43.4 36.85 43.1 37.25 42.35 37.45 42.05 37.4 42.0 37.05 42.0 36.85 42.25 36.25 43.95 33.9 44.0 33.85 44.3 33.5 Q45.0 32.85 45.55 32.85 L45.95 33.05 46.05 33.3" fill="#abaeb7" fill-rule="evenodd" stroke="none"/>
      <path d="M30.0 26.1 L29.2 20.35 29.8 19.1 30.7 17.55 32.2 15.2 33.1 13.75 34.05 12.3 Q34.15 15.9 33.85 19.2 L33.6 21.35 33.55 21.85 33.4 21.55 33.2 21.75 32.85 22.1 31.2 23.85 Q30.65 24.45 30.25 25.35 L30.0 26.1" fill="#8f93b9" fill-rule="evenodd" stroke="none"/>
      <path d="M36.45 20.45 L35.6 23.2 35.4 23.75 34.9 25.35 34.3 23.6 33.7 22.15 33.55 21.85 33.6 21.35 33.85 19.2 Q34.15 15.9 34.05 12.3 34.9 14.1 35.75 17.3 L36.45 20.45" fill="#f5f3f6" fill-rule="evenodd" stroke="none"/>
      <path d="M34.9 25.35 L34.5 26.6 33.6 29.1 32.8 27.75 32.5 27.25 32.6 26.95 32.7 26.6 33.5 22.05 33.55 21.85 33.7 22.15 34.3 23.6 34.9 25.35" fill="#847d84" fill-rule="evenodd" stroke="none"/>
      <path d="M42.2 18.35 L42.2 18.3 42.3 17.95 42.4 17.85 46.3 7.55 43.6 18.15 42.3 22.85 41.05 27.85 39.55 27.4 40.65 23.65 42.1 18.55 42.2 18.35 42.3 17.95 42.2 18.35 M14.8 8.35 L13.6 2.45 13.85 2.75 16.35 10.4 15.7 9.55 14.8 8.35" fill="#e29b03" fill-rule="evenodd" stroke="none"/>
      <path d="M39.3 21.85 L39.45 21.75 42.2 18.35 42.1 18.55 40.65 23.65 39.3 21.85" fill="#2b323c" fill-rule="evenodd" stroke="none"/>
      <path d="M45.55 19.35 L44.5 23.05 44.5 23.0 Q44.05 22.6 43.3 22.6 L42.3 22.85 43.6 18.15 43.65 19.65 Q43.65 20.95 43.95 20.95 44.4 20.95 45.3 19.7 L45.55 19.35" fill="#fdfec4" fill-rule="evenodd" stroke="none"/>
      <path d="M50.8 24.55 L52.75 23.0 50.55 26.6 46.05 33.3 45.95 33.05 45.55 32.85 Q45.0 32.85 44.3 33.5 L44.0 33.85 50.8 24.55 M2.85 13.45 L14.25 24.6 16.15 26.45 15.15 27.6 13.85 27.9 Q12.6 27.9 11.3 26.55 L9.3 24.1 6.65 20.75 2.85 13.45" fill="#6b747d" fill-rule="evenodd" stroke="none"/>
      <path d="M44.5 23.05 L43.45 26.65 43.15 27.65 42.1 31.5 41.6 33.05 40.7 33.6 37.65 35.25 37.1 35.6 37.25 32.2 40.25 30.65 40.3 30.65 41.05 27.85 42.3 22.85 43.3 22.6 Q44.05 22.6 44.5 23.0 L44.5 23.05" fill="#f3d600" fill-rule="evenodd" stroke="none"/>
      <path d="M43.45 26.65 Q44.2 27.7 44.35 28.85 L44.4 29.75 44.15 29.95 43.8 28.9 43.7 28.55 43.15 27.65 43.45 26.65 M36.5 38.25 L37.65 35.25 40.7 33.6 39.7 34.85 38.15 36.65 37.9 36.85 37.75 37.05 36.5 38.25" fill="#2c333b" fill-rule="evenodd" stroke="none"/>
      <path d="M43.15 27.65 L43.7 28.55 43.8 28.9 44.15 29.95 42.1 31.5 43.15 27.65" fill="#515860" fill-rule="evenodd" stroke="none"/>
      <path d="M37.55 23.7 L39.3 21.85 40.65 23.65 39.55 27.4 39.3 28.35 37.55 23.7" fill="#4c545f" fill-rule="evenodd" stroke="none"/>
      <path d="M39.3 28.35 L39.55 27.4 41.05 27.85 40.3 30.65 40.25 30.65 38.7 30.2 38.75 30.2 39.3 28.35" fill="#ad6501" fill-rule="evenodd" stroke="none"/>
      <path d="M44.4 29.75 L50.8 24.55 44.0 33.85 43.95 33.9 42.25 36.25 40.85 38.1 33.2 44.0 33.75 41.45 35.95 39.7 36.5 38.25 37.75 37.05 37.9 36.85 38.15 36.65 39.7 34.85 40.7 33.6 41.6 33.05 42.1 31.5 44.15 29.95 44.4 29.75" fill="#4e5760" fill-rule="evenodd" stroke="none"/>
      <path d="M38.7 30.2 L40.25 30.65 37.25 32.2 36.45 32.6 36.0 32.85 34.35 33.7 31.6 35.05 31.5 34.95 31.6 34.25 31.6 34.2 32.45 33.6 32.9 33.3 33.75 32.75 33.75 32.85 36.05 31.6 38.7 30.2" fill="#fefeca" fill-rule="evenodd" stroke="none"/>
      <path d="M34.85 27.85 L35.7 26.6 36.55 24.85 36.55 24.8 36.75 24.5 37.55 23.7 39.3 28.35 38.75 30.2 38.7 30.2 36.05 31.6 34.85 27.85" fill="#67717b" fill-rule="evenodd" stroke="none"/>
      <path d="M33.6 29.1 L33.25 30.0 32.95 30.9 31.9 28.3 30.45 30.55 30.2 28.95 30.15 28.4 30.3 28.35 31.0 27.85 31.1 27.8 Q31.3 27.65 32.4 27.05 L32.5 27.25 32.8 27.75 33.6 29.1 M21.55 15.05 L23.3 17.5 24.85 19.5 22.65 21.7 21.75 17.5 21.35 15.4 21.55 15.15 21.55 15.05" fill="#2a333a" fill-rule="evenodd" stroke="none"/>
      <path d="M29.35 27.45 L29.5 27.8 30.0 28.6 30.2 28.95 30.45 30.55 29.35 32.3 28.5 31.65 27.9 31.15 27.35 30.65 29.35 27.45" fill="#4b555f" fill-rule="evenodd" stroke="none"/>
      <path d="M32.9 33.3 L32.45 33.6 31.9 32.15 31.9 32.05 31.85 32.05 30.7 33.5 30.4 33.2 31.9 31.5 32.9 33.3" fill="#996a02" fill-rule="evenodd" stroke="none"/>
      <path d="M31.6 34.25 L31.5 34.95 27.3 31.65 27.9 31.15 28.5 31.65 29.3 32.3 29.35 32.3 30.4 33.2 30.7 33.5 31.55 34.25 31.6 34.25" fill="#f3d802" fill-rule="evenodd" stroke="none"/>
      <path d="M30.4 33.2 L29.35 32.3 30.45 30.55 31.9 28.3 31.9 31.5 30.4 33.2" fill="#d99502" fill-rule="evenodd" stroke="none"/>
      <path d="M32.45 33.6 L31.6 34.2 31.55 34.25 30.7 33.5 31.85 32.05 31.9 32.15 32.45 33.6" fill="#65fefb" fill-rule="evenodd" stroke="none"/>
      <path d="M30.9 39.05 L30.7 39.15 25.85 35.45 27.15 31.75 27.3 31.65 31.5 34.95 31.5 35.1 31.5 35.45 30.9 39.05" fill="#e59f01" fill-rule="evenodd" stroke="none"/>
      <path d="M33.85 37.4 Q32.4 38.25 30.9 39.05 L31.5 35.45 31.5 35.1 31.6 35.05 34.35 33.7 33.85 37.4" fill="#f3db00" fill-rule="evenodd" stroke="none"/>
      <path d="M33.75 32.75 L32.9 33.3 31.9 31.5 31.9 28.3 32.95 30.9 33.75 32.75" fill="#f7e401" fill-rule="evenodd" stroke="none"/>
      <path d="M37.1 35.6 L36.5 35.95 36.45 32.6 37.25 32.2 37.1 35.6 M35.4 36.55 L33.85 37.4 34.35 33.7 36.0 32.85 35.4 36.55" fill="#fcfecd" fill-rule="evenodd" stroke="none"/>
      <path d="M36.5 35.95 L35.4 36.55 36.0 32.85 36.45 32.6 36.5 35.95" fill="#f5db00" fill-rule="evenodd" stroke="none"/>
      <path d="M43.1 37.25 L41.8 38.85 32.85 45.65 33.2 44.0 40.85 38.1 42.25 36.25 42.0 36.85 42.0 37.05 42.05 37.4 42.35 37.45 43.1 37.25" fill="#68727b" fill-rule="evenodd" stroke="none"/>
      <path d="M25.0 42.7 L25.0 46.75 12.05 32.3 Q5.85 22.3 1.3 11.9 L2.85 13.45 6.65 20.75 9.05 25.3 13.8 31.3 15.95 33.5 25.0 42.7" fill="#52575d" fill-rule="evenodd" stroke="none"/>
      <path d="M17.1 19.65 L14.8 8.35 15.7 9.55 16.35 10.4 20.65 24.05 20.65 24.2 19.95 27.35 19.8 27.8 19.35 29.4 19.25 29.75 19.2 29.95 19.05 29.3 17.1 19.65" fill="#de9b02" fill-rule="evenodd" stroke="none"/>
      <path d="M13.85 2.75 L19.45 9.75 20.95 14.1 21.25 14.95 21.35 15.4 20.8 15.65 Q20.25 15.65 19.45 14.95 18.4 14.0 17.55 12.4 L16.35 10.4 13.85 2.75" fill="#f6d957" fill-rule="evenodd" stroke="none"/>
      <path d="M14.8 22.65 Q15.55 21.1 17.1 19.65 L19.05 29.3 17.25 27.5 16.65 25.4 Q16.0 23.5 14.8 22.65" fill="#3b3a42" fill-rule="evenodd" stroke="none"/>
      <path d="M21.35 15.4 L21.75 17.5 21.55 17.3 Q20.8 16.7 20.1 16.7 19.65 16.7 19.45 17.05 L19.35 17.65 19.75 19.85 20.35 22.9 20.65 24.05 16.35 10.4 17.55 12.4 Q18.4 14.0 19.45 14.95 20.25 15.65 20.8 15.65 L21.35 15.4" fill="#faffc5" fill-rule="evenodd" stroke="none"/>
      <path d="M21.75 17.5 L22.65 21.7 23.5 25.55 23.95 27.8 25.35 28.95 24.7 29.55 24.65 29.55 21.65 27.2 21.65 27.15 20.95 25.05 20.65 24.2 20.65 24.05 20.35 22.9 19.75 19.85 19.35 17.65 19.45 17.05 Q19.65 16.7 20.1 16.7 20.8 16.7 21.55 17.3 L21.75 17.5" fill="#f7d957" fill-rule="evenodd" stroke="none"/>
      <path d="M24.85 19.5 L26.9 21.55 23.5 25.55 22.65 21.7 24.85 19.5" fill="#4d565f" fill-rule="evenodd" stroke="none"/>
      <path d="M20.95 25.05 L21.65 27.15 21.65 27.2 19.6 30.65 19.35 30.5 19.25 29.75 19.35 29.4 19.8 27.8 19.95 27.35 20.65 24.2 20.8 24.75 20.95 25.05" fill="#ae6506" fill-rule="evenodd" stroke="none"/>
      <path d="M25.0 41.85 L25.0 42.7 15.95 33.5 15.85 33.25 15.25 31.65 15.1 30.7 15.1 30.45 Q15.1 29.6 15.25 28.95 L15.4 28.5 15.75 27.8 16.55 26.85 17.25 27.5 19.05 29.3 19.2 29.95 19.3 30.45 19.35 30.5 19.4 30.7 19.4 30.95 Q19.9 32.75 21.05 35.05 L21.15 35.3 21.3 35.6 21.95 36.85 22.6 38.0 23.8 40.15 25.0 41.85" fill="#6c757e" fill-rule="evenodd" stroke="none"/>
      <path d="M22.55 32.95 L22.9 36.5 22.4 35.6 21.95 34.75 21.25 33.6 21.15 33.4 20.4 31.85 20.05 31.05 22.55 32.95" fill="#33333b" fill-rule="evenodd" stroke="none"/>
      <path d="M22.9 36.5 L23.15 38.85 24.95 41.4 25.0 41.85 23.8 40.15 22.6 38.0 21.95 36.85 21.3 35.6 21.15 35.3 21.05 35.05 Q19.9 32.75 19.4 30.95 L19.6 30.65 20.05 31.05 20.4 31.85 21.15 33.4 21.25 33.6 21.95 34.75 22.4 35.6 22.9 36.5" fill="#5d585f" fill-rule="evenodd" stroke="none"/>
      <path d="M24.0 34.05 L22.55 32.95 20.05 31.05 19.6 30.65 21.65 27.2 24.65 29.55 24.7 29.6 24.0 34.05" fill="#e19c01" fill-rule="evenodd" stroke="none"/>
      <path d="M27.9 31.15 L27.3 31.65 27.2 31.6 26.75 31.2 26.8 31.15 27.35 30.65 27.9 31.15 M24.7 29.55 L25.35 28.95 26.5 29.95 25.95 30.35 25.8 30.5 24.7 29.6 24.7 29.55" fill="#ffffc7" fill-rule="evenodd" stroke="none"/>
      <path d="M25.95 30.35 L26.5 29.95 27.35 30.65 26.8 31.15 26.7 31.2 25.9 30.55 25.95 30.35" fill="#f4d701" fill-rule="evenodd" stroke="none"/>
      <path d="M25.4 35.15 L24.8 34.65 25.9 30.55 26.7 31.2 26.75 31.2 25.4 35.15" fill="#eba301" fill-rule="evenodd" stroke="none"/>
      <path d="M25.85 35.45 L25.4 35.15 26.75 31.2 27.2 31.6 27.15 31.75 25.85 35.45 M24.8 34.65 L24.0 34.05 24.7 29.6 25.8 30.5 25.9 30.55 24.8 34.65" fill="#f9e000" fill-rule="evenodd" stroke="none"/>
      <path d="M16.55 26.85 L15.75 27.8 15.4 28.5 15.25 28.95 Q15.1 29.6 15.1 30.45 L15.1 30.7 15.25 31.65 15.85 33.25 15.95 33.5 13.8 31.3 9.05 25.3 6.65 20.75 9.3 24.1 11.3 26.55 Q12.6 27.9 13.85 27.9 L15.15 27.6 16.15 26.45 16.55 26.85" fill="#a9aeb4" fill-rule="evenodd" stroke="none"/>
      <path d="M14.25 24.6 Q14.35 23.65 14.8 22.65 16.0 23.5 16.65 25.4 L17.25 27.5 16.55 26.85 16.15 26.45 14.25 24.6" fill="#635e65" fill-rule="evenodd" stroke="none"/>
      <path d="M35.85 7.5 Q34.1 0.55 31.35 -6.05 L31.35 -5.9 Q30.8 1.0 29.65 7.3 L29.4 8.45 28.05 14.95 28.85 18.55 29.2 20.35 30.0 26.1 30.0 26.15 30.05 26.6 30.15 27.8 30.15 28.4 30.2 28.95 30.0 28.6 29.5 27.8 29.35 27.45 28.9 26.6 Q27.65 24.25 27.0 21.65 L26.9 21.55 24.85 19.5 23.3 17.5 21.55 15.05 21.15 14.4 20.95 14.1 M35.85 7.5 L36.25 9.2 36.4 9.55 36.5 9.9 37.65 16.1 36.45 20.45 35.6 23.2 35.4 23.75 34.9 25.35 34.5 26.6 33.6 29.1 33.25 30.0 33.75 29.4 34.85 27.85 35.7 26.6 36.55 24.85 36.55 24.8 36.75 24.5 37.55 23.7 39.3 21.85 39.45 21.75 42.2 18.35 42.3 17.95 42.4 17.85 M43.45 26.65 Q44.2 27.7 44.35 28.85 L44.4 29.75 50.8 24.55 52.75 23.0 50.55 26.6 46.05 33.3 43.4 36.85 43.1 37.25 41.8 38.85 32.85 45.65 33.2 44.0 33.75 41.45 35.95 39.7 36.5 38.25 37.65 35.25 M22.55 32.95 L22.9 36.5 23.15 38.85 24.95 41.4 25.0 41.85 25.0 42.7 25.0 46.75 12.05 32.3 Q5.85 22.3 1.3 11.9 L2.85 13.45 14.25 24.6 Q14.35 23.65 14.8 22.65 15.55 21.1 17.1 19.65 M42.1 31.5 L44.15 29.95 44.4 29.75 M39.3 28.35 L39.55 27.4 40.65 23.65 42.1 18.55 M38.7 30.2 L36.05 31.6 33.75 32.85 M38.7 30.2 L38.75 30.2 39.3 28.35 M29.3 32.3 L28.5 31.65 27.9 31.15 27.35 30.65 26.5 29.95 25.35 28.95 23.95 27.8 23.5 25.55 22.65 21.7 21.75 17.5 21.35 15.4 21.25 14.95 21.15 14.4 M32.95 30.9 L33.25 30.0 M30.45 30.55 L30.2 28.95 M19.05 29.3 L17.25 27.5 16.55 26.85 16.15 26.45 14.25 24.6" fill="none" stroke="#26272b" stroke-linecap="round" stroke-linejoin="round" stroke-width="1.5"/>
      <path d="M42.2 18.35 L42.2 18.3 42.3 17.95 M42.4 17.85 L46.3 7.55 46.45 7.3 46.4 16.3 45.55 19.35 44.5 23.05 43.45 26.65 43.15 27.65 42.1 31.5 41.6 33.05 40.7 33.6 37.65 35.25 37.1 35.6 36.5 35.95 35.4 36.55 33.85 37.4 Q32.4 38.25 30.9 39.05 L30.7 39.15 25.85 35.45 25.4 35.15 24.8 34.65 24.0 34.05 22.55 32.95 20.05 31.05 19.6 30.65 19.35 30.5 19.3 30.45 19.2 29.95 19.05 29.3 17.1 19.65 14.8 8.35 13.6 2.45 13.85 2.75 19.45 9.75 20.95 14.1 21.25 14.95 M42.1 18.55 L42.2 18.35 M33.75 32.85 L33.75 32.75 32.95 30.9 31.9 28.3 30.45 30.55 29.35 32.3 29.3 32.3" fill="none" stroke="#6f4900" stroke-linecap="round" stroke-linejoin="round" stroke-width="1.5"/>
      <path d="M11.85 40.7 L11.55 41.15 10.75 41.3 Q9.45 41.3 7.65 40.25 L6.2 39.15 6.45 39.05 7.25 38.7 8.85 39.25 Q10.8 39.95 11.85 40.7" fill="#fafbfd" fill-rule="evenodd" stroke="none"/>
      <path d="M6.2 39.15 L7.65 40.25 Q9.45 41.3 10.75 41.3 L11.55 41.15 11.85 40.7 14.25 42.05 14.8 42.5 Q15.55 43.15 15.6 43.95 L14.8 43.9 14.35 43.85 14.1 43.85 14.0 43.8 14.0 43.85 13.2 43.85 13.25 43.95 12.2 43.7 11.25 43.55 9.9 43.35 8.8 42.15 Q8.35 41.85 7.65 41.75 L6.65 41.5 6.5 41.4 5.65 40.95 3.55 39.7 1.95 38.25 1.85 38.1 2.05 37.95 2.2 37.95 2.45 37.95 3.45 38.1 4.1 38.35 5.95 39.25 6.2 39.15" fill="#e5ddec" fill-rule="evenodd" stroke="none"/>
      <path d="M9.9 43.35 L11.25 43.55 12.2 43.7 Q12.55 45.35 13.4 46.7 L14.15 47.6 14.35 47.9 Q15.55 49.1 17.0 49.75 L16.25 52.2 16.2 52.35 16.1 52.7 15.45 55.35 15.1 57.55 16.6 60.25 16.25 60.45 15.15 61.05 Q14.2 60.1 13.6 59.15 L12.75 57.7 13.0 56.6 13.65 53.0 13.0 53.3 11.65 51.8 11.5 51.45 11.0 50.0 10.2 47.6 10.05 46.8 10.0 46.15 10.1 45.1 10.1 45.05 11.0 45.15 11.55 45.25 11.35 45.05 9.55 43.9 8.45 43.35 8.9 43.3 9.9 43.35 M14.95 58.7 L14.85 58.9 14.95 58.8 14.95 58.7" fill="#3d3a41" fill-rule="evenodd" stroke="none"/>
      <path d="M3.45 38.1 L2.45 37.95 2.2 37.95 2.05 37.95 1.85 38.1 1.95 38.25 3.55 39.7 5.65 40.95 6.5 41.4 6.65 41.5 7.65 41.75 Q8.35 41.85 8.8 42.15 L9.9 43.35 8.9 43.3 8.45 43.35 7.75 43.5 5.7 43.95 3.8 44.35 3.55 44.4 3.45 44.35 3.35 44.4 3.15 44.5 3.1 44.5 2.25 42.95 1.25 40.5 1.0 38.8 1.1 37.8 1.3 37.45 2.55 37.8 3.1 37.95 3.45 38.1" fill="#9496bc" fill-rule="evenodd" stroke="none"/>
      <path d="M8.45 43.35 L9.55 43.9 11.35 45.05 11.55 45.25 11.0 45.15 10.1 45.05 10.1 45.1 10.0 46.15 10.05 46.8 10.2 47.6 11.0 50.0 11.5 51.45 11.65 51.8 11.4 51.6 Q10.05 50.55 9.2 50.25 L9.05 50.2 8.7 50.1 8.3 48.45 8.1 47.6 7.6 46.0 7.05 45.9 5.85 45.9 Q5.15 45.9 4.15 46.25 L2.95 46.6 2.7 46.55 4.1 45.35 4.2 45.3 4.45 45.15 5.35 44.15 5.7 43.95 7.75 43.5 8.45 43.35 M9.9 45.15 L10.05 45.15 9.95 45.1 9.9 45.15" fill="#d6bebe" fill-rule="evenodd" stroke="none"/>
      <path d="M12.2 43.7 L13.25 43.95 13.8 45.4 14.35 46.7 15.5 47.6 16.85 48.45 Q17.75 48.9 18.6 49.05 L20.2 51.15 20.95 52.3 20.9 54.65 20.9 56.0 20.65 56.05 18.1 54.0 16.25 52.2 17.0 49.75 Q15.55 49.1 14.35 47.9 L14.15 47.6 13.4 46.7 Q12.55 45.35 12.2 43.7" fill="#695f67" fill-rule="evenodd" stroke="none"/>
      <path d="M-4.4 44.7 L-2.8 45.15 -2.2 45.3 0.0 45.7 0.35 45.7 1.4 45.9 Q0.4 47.05 0.0 48.95 L-0.05 49.3 -0.2 50.15 -0.25 50.9 -0.9 53.0 -1.75 52.15 -3.35 49.95 -4.8 47.5 -4.7 46.05 -4.4 44.7" fill="#9094ba" fill-rule="evenodd" stroke="none"/>
      <path d="M-4.4 44.7 L-4.2 43.9 -3.75 42.25 -2.65 42.55 -1.3 42.95 0.55 43.6 1.2 43.85 2.1 44.25 2.9 44.55 3.0 44.6 Q2.35 44.95 1.8 45.45 L1.8 45.5 1.4 45.9 0.35 45.7 0.0 45.7 -2.2 45.3 -2.8 45.15 -4.4 44.7" fill="#e2d5e6" fill-rule="evenodd" stroke="none"/>
      <path d="M1.8 45.5 L1.8 45.45 Q2.35 44.95 3.0 44.6 L3.25 44.75 3.15 44.5 3.55 44.4 3.8 44.8 4.1 45.35 2.7 46.55 2.0 46.0 2.0 45.95 1.9 45.85 1.8 45.5" fill="#acb1b7" fill-rule="evenodd" stroke="none"/>
      <path d="M1.4 45.9 L1.8 45.5 1.9 45.85 2.0 45.95 2.0 46.0 2.7 46.55 2.25 47.0 1.0 48.6 0.25 49.8 -0.05 50.45 -0.25 50.9 -0.35 52.5 -0.4 53.35 -0.55 53.25 -0.9 53.0 -0.25 50.9 -0.2 50.15 -0.05 49.3 0.0 48.95 Q0.4 47.05 1.4 45.9" fill="#585f69" fill-rule="evenodd" stroke="none"/>
      <path d="M-0.4 53.35 L-0.35 52.5 -0.25 50.9 -0.05 50.45 0.25 49.8 1.0 48.6 2.25 47.0 2.7 46.55 2.95 46.6 4.15 46.25 Q5.15 45.9 5.85 45.9 L7.05 45.9 7.6 46.0 8.1 47.6 8.3 48.45 8.7 50.1 8.65 50.1 7.5 49.85 6.15 49.7 Q4.2 49.7 2.85 50.8 L2.6 50.95 1.9 51.75 1.35 52.8 1.25 53.25 Q1.1 53.8 1.1 54.45 L0.8 55.25 0.65 55.75 -0.1 54.85 -0.2 53.5 -0.4 53.35" fill="#2c333d" fill-rule="evenodd" stroke="none"/>
      <path d="M5.7 43.95 L5.35 44.15 4.45 45.15 4.2 45.3 4.1 45.35 3.8 44.8 3.55 44.4 3.8 44.35 5.7 43.95" fill="#44484b" fill-rule="evenodd" stroke="none"/>
      <path d="M0.65 55.75 L0.8 55.25 1.1 54.45 Q1.1 53.8 1.25 53.25 L1.55 53.05 2.55 52.65 2.6 52.65 4.35 52.6 4.65 52.6 Q4.2 53.05 3.75 54.0 3.0 55.5 3.0 56.7 L3.0 56.9 2.6 56.85 0.5 56.45 0.65 55.75" fill="#2b323c" fill-rule="evenodd" stroke="none"/>
      <path d="M4.65 52.6 L7.6 52.85 9.05 53.25 10.2 53.9 10.45 54.15 10.45 54.35 10.0 54.25 8.95 54.0 8.0 53.75 5.85 53.35 Q5.15 53.35 4.85 55.25 4.7 56.15 4.7 57.15 L3.5 57.0 3.0 56.9 3.0 56.7 Q3.0 55.5 3.75 54.0 4.2 53.05 4.65 52.6" fill="#b4b3b9" fill-rule="evenodd" stroke="none"/>
      <path d="M9.55 57.25 L10.4 58.25 9.75 58.1 7.35 58.1 Q8.45 59.35 8.6 61.35 L8.65 62.0 8.55 62.0 8.4 61.35 8.1 60.55 Q7.5 59.3 5.7 57.25 L7.55 57.4 7.65 57.4 8.3 57.35 8.35 57.35 9.55 57.25" fill="#38353e" fill-rule="evenodd" stroke="none"/>
      <path d="M10.45 54.35 L10.0 56.15 9.6 57.25 9.55 57.25 8.35 57.35 8.3 57.35 7.65 57.4 7.55 57.35 7.55 57.4 5.7 57.25 4.7 57.15 Q4.7 56.15 4.85 55.25 5.15 53.35 5.85 53.35 L8.0 53.75 8.95 54.0 10.0 54.25 10.45 54.35" fill="#5b5b63" fill-rule="evenodd" stroke="none"/>
      <path d="M11.7 64.5 Q11.4 66.25 10.15 67.2 8.8 68.2 6.35 68.2 L6.7 67.2 Q7.5 66.9 8.1 65.85 8.65 64.9 8.7 63.85 L8.75 63.85 8.95 63.35 9.05 64.05 9.15 64.7 9.15 65.45 8.95 66.15 9.85 65.5 10.8 64.8 11.7 64.5" fill="#3b3a42" fill-rule="evenodd" stroke="none"/>
      <path d="M16.1 52.7 L16.2 52.35 16.25 52.2 18.1 54.0 20.65 56.05 20.9 56.0 20.9 54.65 20.95 52.3 20.2 51.15 18.6 49.05 19.6 49.15 21.9 52.6 21.9 53.45 21.9 54.85 21.9 56.55 21.85 57.05 21.25 57.6 20.35 58.45 18.6 59.7 16.95 60.95 16.6 60.25 17.9 59.5 19.55 58.25 20.05 57.8 20.1 57.6 20.15 57.35 19.05 55.65 17.8 54.25 16.3 52.9 16.1 52.7" fill="#c1b5b9" fill-rule="evenodd" stroke="none"/>
      <path d="M16.6 60.25 L15.1 57.55 15.45 55.35 16.1 52.7 16.3 52.9 17.8 54.25 19.05 55.65 20.15 57.35 20.1 57.6 20.05 57.8 19.55 58.25 17.9 59.5 16.6 60.25" fill="#6b6169" fill-rule="evenodd" stroke="none"/>
      <path d="M10.4 58.25 L11.3 59.9 11.5 60.8 10.7 61.35 10.55 61.45 Q9.4 62.0 8.65 62.0 L8.6 61.35 Q8.45 59.35 7.35 58.1 L9.75 58.1 10.4 58.25" fill="#6e616a" fill-rule="evenodd" stroke="none"/>
      <path d="M15.15 61.05 L16.25 60.45 16.6 60.25 16.95 60.95 16.85 61.05 16.4 61.35 Q16.05 61.55 15.85 61.75 L15.45 61.35 15.15 61.05" fill="#9b9190" fill-rule="evenodd" stroke="none"/>
      <path d="M11.5 60.8 L11.6 61.35 11.75 62.3 11.1 62.2 10.15 62.15 Q9.25 62.15 9.15 62.55 L9.05 63.1 8.95 63.35 8.75 63.85 8.7 63.85 8.7 63.65 8.6 62.35 8.65 62.0 Q9.4 62.0 10.55 61.45 L10.7 61.35 11.5 60.8" fill="#efc8c9" fill-rule="evenodd" stroke="none"/>
      <path d="M11.75 62.3 L11.75 63.45 11.7 64.5 10.8 64.8 9.85 65.5 8.95 66.15 9.15 65.45 9.15 64.7 9.05 64.05 8.95 63.35 9.05 63.1 9.15 62.55 Q9.25 62.15 10.15 62.15 L11.1 62.2 11.75 62.3" fill="#6e6369" fill-rule="evenodd" stroke="none"/>
      <path d="M11.85 40.7 Q10.8 39.95 8.85 39.25 L7.25 38.7 6.45 39.05 6.2 39.15 5.95 39.25 4.1 38.35 3.45 38.1 3.1 37.95 2.55 37.8 1.3 37.45 1.1 37.8 1.0 38.8 1.25 40.5 2.25 42.95 3.1 44.5 3.15 44.5 3.25 44.75 3.0 44.6 2.9 44.55 2.1 44.25 1.2 43.85 0.55 43.6 -1.3 42.95 -2.65 42.55 -3.75 42.25 -4.2 43.9 -4.4 44.7 -4.7 46.05 -4.8 47.5 -3.35 49.95 -1.75 52.15 -0.9 53.0 -0.55 53.25 -0.4 53.35 -0.2 53.5 -0.1 54.85 0.65 55.75 0.8 55.25 1.1 54.45 Q1.1 53.8 1.25 53.25 L1.35 52.8 1.9 51.75 2.6 50.95 2.85 50.8 Q4.2 49.7 6.15 49.7 L7.5 49.85 8.65 50.1 8.7 50.1 9.05 50.2 9.2 50.25 Q10.05 50.55 11.4 51.6 L11.65 51.8 13.0 53.3 13.65 53.0 13.0 56.6 12.75 57.7 13.6 59.15 Q14.2 60.1 15.15 61.05 L15.45 61.35 15.85 61.75 Q16.05 61.55 16.4 61.35 L16.85 61.05 16.95 60.95 18.6 59.7 20.35 58.45 21.25 57.6 21.85 57.05 21.9 56.55 21.9 54.85 21.9 53.45 21.9 52.6 19.6 49.15 18.6 49.05 Q17.75 48.9 16.85 48.45 L15.5 47.6 14.35 46.7 13.8 45.4 13.25 43.95 13.2 43.85 14.0 43.85 14.0 43.8 14.1 43.85 14.35 43.85 14.8 43.9 15.6 43.95 Q15.55 43.15 14.8 42.5 L14.25 42.05 11.85 40.7 M14.0 43.85 L14.1 43.85 M1.25 53.25 L1.55 53.05 2.55 52.65 2.6 52.65 4.35 52.6 4.65 52.6 7.6 52.85 9.05 53.25 10.2 53.9 10.45 54.15 10.45 54.35 10.0 56.15 9.6 57.25 9.55 57.25 10.4 58.25 11.3 59.9 11.5 60.8 11.6 61.35 11.75 62.3 11.75 63.45 11.7 64.5 Q11.4 66.25 10.15 67.2 8.8 68.2 6.35 68.2 L6.3 68.2 5.25 68.05 M0.65 55.75 L0.5 56.45 2.6 56.85 3.0 56.9 3.5 57.0 4.7 57.15 5.7 57.25 Q7.5 59.3 8.1 60.55 L8.4 61.35 8.55 62.0 8.6 62.35 8.7 63.65 8.7 63.85 Q8.65 64.9 8.1 65.85 7.5 66.9 6.7 67.2 M7.65 57.4 L7.55 57.4 5.7 57.25 M7.55 57.4 L7.55 57.35 7.65 57.4 8.3 57.35 8.35 57.35 9.55 57.25" fill="none" stroke="#26272b" stroke-linecap="round" stroke-linejoin="round" stroke-width="1.5"/>
      <path d="M51.95 11.45 L50.5 18.35 48.9 13.85 53.7 -8.25 Q53.65 -1.95 53.0 3.75 L52.45 4.25 51.95 4.7 51.65 6.9 51.45 8.1 51.0 10.9 51.85 11.35 51.95 11.45" fill="#f3d802" fill-rule="evenodd" stroke="none"/>
      <path d="M53.0 3.75 L52.45 8.2 51.95 11.45 51.85 11.35 51.0 10.9 51.45 8.1 51.65 6.9 51.95 4.7 52.45 4.25 53.0 3.75" fill="#fcfecc" fill-rule="evenodd" stroke="none"/>
      <path d="M53.0 3.75 L52.45 8.2 51.95 11.45 50.5 18.35 48.9 13.85 53.7 -8.25 Q53.65 -1.95 53.0 3.75 Z" fill="none" stroke="#601f0b" stroke-linecap="round" stroke-linejoin="round" stroke-width="1.5"/>
      <path d="M40.85 -15.0 L40.1 -7.2 39.2 3.45 39.3 3.9 40.3 8.35 41.7 6.0 39.95 11.55 37.35 4.0 38.05 -0.45 Q39.2 -7.45 40.8 -15.2 L40.85 -15.0 M39.05 4.75 L39.1 4.4 38.95 4.8 39.05 4.75" fill="#df9d00" fill-rule="evenodd" stroke="none"/>
      <path d="M40.1 -7.2 L40.85 -15.0 Q42.05 -6.0 42.4 1.0 L42.1 1.2 41.45 1.2 Q40.25 1.2 40.1 -0.45 L40.2 -3.1 Q40.1 -4.35 40.15 -6.45 L40.1 -7.2" fill="#f5d802" fill-rule="evenodd" stroke="none"/>
      <path d="M40.1 -7.2 L40.15 -6.45 Q40.1 -4.35 40.2 -3.1 L40.1 -0.45 Q40.25 1.2 41.45 1.2 L42.1 1.2 42.4 1.0 42.5 2.9 42.5 3.1 41.9 2.7 40.6 2.25 Q40.1 2.25 39.55 3.35 L39.3 3.9 39.2 3.45 40.1 -7.2" fill="#fcfebf" fill-rule="evenodd" stroke="none"/>
      <path d="M41.7 6.0 L40.3 8.35 39.3 3.9 39.55 3.35 Q40.1 2.25 40.6 2.25 L41.9 2.7 42.5 3.1 42.5 3.6 41.7 6.0" fill="#f3d600" fill-rule="evenodd" stroke="none"/>
      <path d="M42.4 1.0 Q42.05 -6.0 40.85 -15.0 L40.8 -15.2 Q39.2 -7.45 38.05 -0.45 L37.35 4.0 39.95 11.55 41.7 6.0 42.5 3.6 42.5 3.1 42.5 2.9 42.4 1.0 Z" fill="none" stroke="#601f0b" stroke-linecap="round" stroke-linejoin="round" stroke-width="1.5"/>
      <path d="M20.9 -18.75 L21.85 -11.85 23.5 -0.25 24.0 1.9 25.55 8.75 25.5 9.55 20.65 0.95 20.6 -19.45 20.9 -18.75" fill="#e19c01" fill-rule="evenodd" stroke="none"/>
      <path d="M21.85 -11.85 L20.9 -18.75 Q24.0 -10.9 26.15 -3.45 L26.55 -1.95 25.3 -3.35 Q24.4 -4.75 23.6 -6.65 L21.85 -11.85 M25.55 8.75 L24.0 1.9 24.3 -0.05 Q24.65 -1.55 25.65 -1.55 L26.3 -1.3 26.7 -1.0 25.55 8.75" fill="#f3d600" fill-rule="evenodd" stroke="none"/>
      <path d="M21.85 -11.85 L23.6 -6.65 Q24.4 -4.75 25.3 -3.35 L26.55 -1.95 26.7 -1.35 26.7 -1.0 26.3 -1.3 25.65 -1.55 Q24.65 -1.55 24.3 -0.05 L24.0 1.9 23.5 -0.25 21.85 -11.85" fill="#faffbc" fill-rule="evenodd" stroke="none"/>
      <path d="M26.55 -1.95 L26.15 -3.45 Q24.0 -10.9 20.9 -18.75 L20.6 -19.45 20.65 0.95 25.5 9.55 25.55 8.75 26.7 -1.0 26.7 -1.35 26.55 -1.95 Z" fill="none" stroke="#601f0b" stroke-linecap="round" stroke-linejoin="round" stroke-width="1.5"/>
      <path d="M11.95 8.1 L10.9 10.7 3.1 -8.1 12.3 6.4 11.95 8.1" fill="#f4da00" fill-rule="evenodd" stroke="none"/>
      <path d="M3.1 -8.1 L10.9 10.7 11.95 8.1 10.7 14.65 7.5 7.0 Q3.65 -2.65 0.3 -12.6 L3.1 -8.1" fill="#e09b00" fill-rule="evenodd" stroke="none"/>
      <path d="M11.95 8.1 L12.3 6.4 3.1 -8.1 0.3 -12.6 Q3.65 -2.65 7.5 7.0 L10.7 14.65 11.95 8.1 Z" fill="none" stroke="#601f0b" stroke-linecap="round" stroke-linejoin="round" stroke-width="1.5"/>
    </g>
    <g id="shape4" transform="matrix(1.0, 0.0, 0.0, 1.0, 0.0, 0.0)">
      <path d="M50.5 0.0 Q53.95 0.0 53.95 3.3 L53.95 50.15 Q53.95 53.4 50.5 53.4 L3.3 53.4 Q0.0 53.4 0.0 50.15 L0.0 3.3 Q0.0 0.0 3.3 0.0 L50.5 0.0" fill="#000000" fill-opacity="0.003921569" fill-rule="evenodd" stroke="none"/>
    </g>
  </defs>
</svg>
