<?xml version="1.0" encoding="UTF-8" standalone="no"?>
<svg xmlns:ffdec="https://www.free-decompiler.com/flash" xmlns:xlink="http://www.w3.org/1999/xlink" ffdec:objectType="frame" height="87.3px" width="82.65px" xmlns="http://www.w3.org/2000/svg">
  <g transform="matrix(1.0, 0.0, 0.0, 1.0, 23.4, 7.4)">
    <use ffdec:characterId="4" height="87.3" transform="matrix(1.0, 0.0, 0.0, 1.0, -23.4, -7.4)" width="82.65" xlink:href="#sprite0"/>
  </g>
  <defs>
    <g id="sprite0" transform="matrix(1.0, 0.0, 0.0, 1.0, 23.4, 7.4)">
      <clipPath id="clipPath0" transform="matrix(1.0, 0.0, 0.0, 1.0, 0.0, 0.0)">
        <path d="M50.5 0.0 Q53.95 0.0 53.95 3.3 L53.95 50.15 Q53.95 53.4 50.5 53.4 L3.3 53.4 Q0.0 53.4 0.0 50.15 L0.0 3.3 Q0.0 0.0 3.3 0.0 L50.5 0.0" fill="#000000" fill-rule="evenodd" stroke="none"/>
      </clipPath>
      <g clip-path="url(#clipPath0)">
        <use ffdec:characterId="2" height="165.5" transform="matrix(0.5274, 0.0, 0.0, 0.5274, -23.4017, -7.3796)" width="156.75" xlink:href="#shape1"/>
      </g>
      <use ffdec:characterId="3" height="53.4" transform="matrix(1.0, 0.0, 0.0, 1.0, 0.0, 0.0)" width="53.95" xlink:href="#shape2"/>
    </g>
    <g id="shape1" transform="matrix(1.0, 0.0, 0.0, 1.0, -0.85, 95.9)">
      <path d="M109.55 46.1 L107.1 45.55 Q100.15 43.85 94.5 41.2 L95.15 42.9 95.75 44.45 Q98.95 44.8 103.7 46.05 L103.95 46.15 109.2 47.65 108.85 48.9 108.4 50.55 107.0 50.55 105.25 50.5 98.4 49.6 98.15 49.55 95.5 48.8 94.8 47.8 92.75 44.2 Q90.0 39.25 88.75 35.1 99.35 32.05 108.0 31.5 114.1 31.1 128.45 31.3 L128.45 31.7 Q128.45 33.7 128.1 35.35 L127.5 37.8 121.7 39.8 121.5 37.7 121.15 37.65 118.0 38.1 Q116.45 38.55 115.1 39.25 L115.35 41.25 115.35 41.3 114.95 41.25 113.7 41.05 110.4 41.5 109.55 46.1" fill="#fbb958" fill-rule="evenodd" stroke="none"/>
      <path d="M109.2 47.65 L103.95 46.15 103.7 46.05 Q98.95 44.8 95.75 44.45 L95.15 42.9 94.5 41.2 Q100.15 43.85 107.1 45.55 L109.55 46.1 109.2 47.65 M115.35 41.3 L115.35 41.25 115.1 39.25 Q116.45 38.55 118.0 38.1 L121.15 37.65 121.5 37.7 121.7 39.8 120.15 40.35 115.55 41.9 115.55 41.7 115.5 41.35 115.35 41.3" fill="#faf5b3" fill-rule="evenodd" stroke="none"/>
      <path d="M121.7 39.8 L127.5 37.8 127.2 38.8 125.85 40.0 121.5 43.65 121.55 43.1 121.8 40.95 121.7 39.8 M95.5 48.8 L98.15 49.55 98.4 49.6 105.25 50.5 107.0 50.55 108.4 50.55 107.1 53.75 107.05 53.8 Q105.45 55.1 103.85 55.1 L101.7 54.75 Q100.6 54.45 99.35 53.8 L98.85 53.55 95.5 48.8" fill="#fdaf27" fill-rule="evenodd" stroke="none"/>
      <path d="M121.7 39.8 L121.8 40.95 121.55 43.1 121.5 43.65 125.85 40.0 127.2 38.8 127.2 38.9 Q126.5 41.1 123.95 44.75 L123.7 45.1 121.3 45.3 121.2 45.3 117.2 45.4 115.65 45.35 115.65 44.35 115.55 41.9 120.15 40.35 121.7 39.8" fill="#fed480" fill-rule="evenodd" stroke="none"/>
      <path d="M123.7 45.1 L121.3 47.9 120.1 49.05 119.95 49.2 118.75 49.6 116.85 49.35 115.5 48.1 115.55 47.15 115.65 45.35 117.2 45.4 121.2 45.3 121.3 45.3 123.7 45.1" fill="#ffca5b" fill-rule="evenodd" stroke="none"/>
      <path d="M109.55 46.1 L110.4 41.5 113.7 41.05 114.95 41.25 115.35 41.3 115.5 41.35 115.55 41.7 115.55 41.9 115.65 44.35 115.65 45.35 115.55 47.15 115.5 48.1 116.85 49.35 118.75 49.6 119.95 49.2 120.1 49.05 121.3 47.9 123.7 45.1 123.95 44.75 Q126.5 41.1 127.2 38.9 L127.2 38.8 127.5 37.8 128.1 35.35 Q128.45 33.7 128.45 31.7 L128.45 31.3 Q114.1 31.1 108.0 31.5 99.35 32.05 88.75 35.1 90.0 39.25 92.75 44.2 L94.8 47.8 95.5 48.8 98.85 53.55 99.35 53.8 Q100.6 54.45 101.7 54.75 L103.85 55.1 Q105.45 55.1 107.05 53.8 L107.1 53.75 108.4 50.55 108.85 48.9 109.2 47.65 109.55 46.1 Z" fill="none" stroke="#b46608" stroke-linecap="round" stroke-linejoin="round" stroke-width="2.5"/>
      <path d="M143.2 10.15 L145.55 15.65 147.6 21.95 Q148.9 25.8 150.3 28.85 153.05 34.9 156.0 45.65 L156.35 47.05 Q153.95 45.2 150.45 43.55 144.45 40.7 135.25 38.4 119.45 34.45 105.95 34.45 L94.7 34.95 Q87.85 35.6 80.8 37.05 L74.25 38.5 71.65 39.2 Q65.45 40.85 60.5 43.0 54.15 45.65 50.75 47.5 51.65 39.95 52.45 35.6 L52.9 33.4 Q60.85 21.5 67.35 13.2 66.35 8.35 64.8 3.65 60.85 -8.85 53.6 -19.0 47.2 -28.1 39.65 -33.45 35.85 -36.15 32.55 -37.4 26.5 -38.35 36.35 -39.3 L57.3 -40.25 Q65.55 -40.25 75.8 -38.75 89.7 -36.85 97.75 -33.15 L107.6 -28.6 109.95 -30.9 112.75 -33.7 117.4 -34.15 131.35 -34.9 138.2 -34.45 139.5 -33.75 144.65 -30.65 Q141.2 -21.0 132.35 -11.2 126.9 -5.2 120.45 -0.1 L124.75 2.85 124.9 2.9 Q127.2 4.4 129.4 5.55 133.0 7.45 136.1 8.45 139.1 9.5 143.2 10.15 M70.65 38.35 L72.65 38.0 73.05 37.95 74.15 37.7 74.1 37.1 74.05 36.4 Q73.3 36.2 72.45 35.6 71.3 34.75 70.35 33.3 L67.7 37.45 68.0 37.7 Q68.8 38.4 69.8 38.5 L70.0 38.5 70.65 38.35 M128.7 12.7 L129.1 13.15 Q131.65 16.2 133.7 19.4 L137.2 25.15 137.7 26.05 137.8 26.5 Q137.8 27.45 136.9 28.85 L136.5 29.45 133.7 29.2 133.35 29.2 132.2 29.85 Q131.75 30.15 131.45 30.4 131.45 31.9 133.5 34.4 L134.0 35.0 Q144.65 38.15 149.8 41.0 L148.85 37.75 Q147.35 33.3 145.45 29.0 L144.9 27.9 Q138.65 22.4 136.15 19.8 131.95 15.4 129.15 10.85 L127.8 8.5 Q127.1 8.6 126.55 9.05 126.2 9.4 126.0 9.9 L128.7 12.7" fill="#176630" fill-rule="evenodd" stroke="none"/>
      <path d="M138.2 -34.45 L146.8 -33.55 148.75 -33.25 Q146.9 -28.95 144.15 -16.45 L141.45 -4.9 139.4 3.35 Q141.55 6.7 143.2 10.15 139.1 9.5 136.1 8.45 133.0 7.45 129.4 5.55 127.2 4.4 124.9 2.9 L124.75 2.85 120.45 -0.1 Q126.9 -5.2 132.35 -11.2 141.2 -21.0 144.65 -30.65 L139.5 -33.75 138.2 -34.45 M69.8 38.5 Q68.8 38.4 68.0 37.7 L67.7 37.45 70.35 33.3 Q71.3 34.75 72.45 35.6 73.3 36.2 74.05 36.4 L74.1 37.1 74.15 37.7 73.05 37.95 72.65 38.0 70.65 38.35 69.8 38.5 M128.7 12.7 L126.0 9.9 Q126.2 9.4 126.55 9.05 127.1 8.6 127.8 8.5 L129.15 10.85 Q131.95 15.4 136.15 19.8 138.65 22.4 144.9 27.9 L145.45 29.0 Q147.35 33.3 148.85 37.75 L149.8 41.0 Q144.65 38.15 134.0 35.0 L133.5 34.4 Q131.45 31.9 131.45 30.4 131.75 30.15 132.2 29.85 L133.35 29.2 133.7 29.2 136.5 29.45 136.9 28.85 Q137.8 27.45 137.8 26.5 L137.7 26.05 137.2 25.15 133.7 19.4 Q131.65 16.2 129.1 13.15 L128.7 12.7" fill="#2c7643" fill-rule="evenodd" stroke="none"/>
      <path d="M143.2 10.15 L145.55 15.65 147.6 21.95 Q148.9 25.8 150.3 28.85 153.05 34.9 156.0 45.65 L156.35 47.05 Q153.95 45.2 150.45 43.55 144.45 40.7 135.25 38.4 119.45 34.45 105.95 34.45 L94.7 34.95 Q87.85 35.6 80.8 37.05 L74.25 38.5 71.65 39.2 Q65.45 40.85 60.5 43.0 54.15 45.65 50.75 47.5 51.65 39.95 52.45 35.6 L52.9 33.4 Q60.85 21.5 67.35 13.2 66.35 8.35 64.8 3.65 60.85 -8.85 53.6 -19.0 47.2 -28.1 39.65 -33.45 35.85 -36.15 32.55 -37.4 26.5 -38.35 36.35 -39.3 L57.3 -40.25 Q65.55 -40.25 75.8 -38.75 89.7 -36.85 97.75 -33.15 L107.6 -28.6 109.95 -30.9 112.75 -33.7 117.4 -34.15 131.35 -34.9 138.2 -34.45 146.8 -33.55 148.75 -33.25 Q146.9 -28.95 144.15 -16.45 L141.45 -4.9 139.4 3.35 Q141.55 6.7 143.2 10.15 Z" fill="none" stroke="#084f2d" stroke-linecap="round" stroke-linejoin="round" stroke-width="2.5"/>
      <path d="M95.6 4.25 Q103.35 2.65 114.2 2.65 L115.55 2.7 Q117.7 4.4 121.65 13.25 125.6 22.1 125.85 32.7 L121.3 34.15 Q113.8 36.2 105.4 36.2 97.2 36.2 90.65 33.95 L89.85 33.7 89.85 32.7 Q89.85 21.75 91.7 14.65 93.3 8.55 95.6 4.3 L95.6 4.25 M110.75 21.15 Q110.95 22.8 111.45 24.85 112.05 27.15 112.8 28.25 L114.85 27.55 117.7 27.0 119.05 27.05 119.25 25.15 Q119.25 23.85 118.65 21.05 L118.0 18.5 117.2 18.0 Q115.9 17.25 115.2 17.25 L114.9 18.25 114.35 18.35 112.6 17.85 112.25 17.65 111.7 19.05 110.75 21.15" fill="#ffc05e" fill-rule="evenodd" stroke="none"/>
      <path d="M110.75 21.15 L111.7 19.05 112.25 17.65 112.6 17.85 114.35 18.35 114.9 18.25 115.2 17.25 Q115.9 17.25 117.2 18.0 L118.0 18.5 118.65 21.05 Q119.25 23.85 119.25 25.15 L119.05 27.05 117.7 27.0 114.85 27.55 112.8 28.25 Q112.05 27.15 111.45 24.85 110.95 22.8 110.75 21.15" fill="#f7f3c3" fill-rule="evenodd" stroke="none"/>
      <path d="M95.6 4.25 Q103.35 2.65 114.2 2.65 L115.55 2.7 Q117.7 4.4 121.65 13.25 125.6 22.1 125.85 32.7 L121.3 34.15 Q113.8 36.2 105.4 36.2 97.2 36.2 90.65 33.95 L89.85 33.7 89.85 32.7 Q89.85 21.75 91.7 14.65 93.3 8.55 95.6 4.3 L95.6 4.25 Z" fill="none" stroke="#b6682b" stroke-linecap="round" stroke-linejoin="round" stroke-width="1.5"/>
      <path d="M82.4 1.55 L81.8 -0.15 96.6 -1.15 106.65 -1.5 122.5 -1.65 129.6 -1.55 Q129.05 1.2 128.1 3.7 L126.05 8.0 121.5 8.95 Q114.55 10.25 105.9 10.25 99.35 10.25 89.45 8.4 L84.65 7.45 82.4 1.55 M97.9 2.35 Q99.05 5.05 99.95 6.45 L100.95 6.65 108.2 7.75 Q114.05 7.75 118.65 6.5 L121.2 5.85 121.95 3.3 115.45 2.1 107.3 1.35 97.9 2.35" fill="#17659c" fill-rule="evenodd" stroke="none"/>
      <path d="M97.9 2.35 L107.3 1.35 115.45 2.1 121.95 3.3 121.2 5.85 118.65 6.5 Q114.05 7.75 108.2 7.75 L100.95 6.65 99.95 6.45 Q99.05 5.05 97.9 2.35" fill="#2684ad" fill-rule="evenodd" stroke="none"/>
      <path d="M121.1 29.2 L127.5 29.0 127.75 29.0 127.75 29.75 127.2 33.1 126.9 34.3 120.85 36.05 Q115.0 37.4 108.2 37.4 L99.65 36.7 95.75 35.95 Q95.35 35.25 95.1 34.4 L96.0 34.15 Q100.6 32.75 107.15 31.3 L111.5 30.45 111.95 31.55 112.6 32.85 113.0 32.95 116.25 33.3 119.75 32.9 120.6 32.65 120.8 31.75 121.1 29.8 121.1 29.2 M119.3 34.15 L116.45 34.35 111.5 33.8 111.5 34.0 111.9 35.0 112.25 35.0 119.3 34.15" fill="#2684ad" fill-rule="evenodd" stroke="none"/>
      <path d="M111.5 30.45 L119.35 29.3 121.1 29.2 121.1 29.8 120.8 31.75 120.6 32.65 119.75 32.9 116.25 33.3 113.0 32.95 112.6 32.85 111.95 31.55 111.5 30.45 M119.3 34.15 L112.25 35.0 111.9 35.0 111.5 34.0 111.5 33.8 116.45 34.35 119.3 34.15" fill="#4ccde2" fill-rule="evenodd" stroke="none"/>
      <path d="M121.1 29.2 L127.5 29.0 127.75 29.0 127.75 29.75 127.2 33.1 126.9 34.3 120.85 36.05 Q115.0 37.4 108.2 37.4 L99.65 36.7 95.75 35.95 Q95.35 35.25 95.1 34.4 L96.0 34.15 Q100.6 32.75 107.15 31.3 L111.5 30.45 119.35 29.3 121.1 29.2 Z" fill="none" stroke="#074174" stroke-linecap="round" stroke-linejoin="round" stroke-width="1.5"/>
      <path d="M78.6 12.5 L78.7 12.0 79.0 10.55 Q79.45 8.45 79.95 7.15 L80.25 6.55 Q83.95 6.9 87.45 8.85 L90.1 10.55 93.35 13.7 Q92.6 17.5 90.15 22.4 L86.8 19.1 Q82.4 15.05 78.6 12.5" fill="#fff4cc" fill-rule="evenodd" stroke="none"/>
      <path d="M87.75 26.7 Q85.45 30.55 83.15 33.15 L80.15 31.6 78.15 30.1 77.95 27.55 77.85 26.4 77.8 25.7 77.75 24.0 77.8 21.15 78.0 17.8 78.0 17.55 84.9 24.2 86.55 25.65 87.75 26.7" fill="#ffd58b" fill-rule="evenodd" stroke="none"/>
      <path d="M90.15 22.4 L89.65 23.25 87.95 26.4 87.75 26.7 86.55 25.65 84.9 24.2 78.0 17.55 Q78.25 14.6 78.6 12.5 82.4 15.05 86.8 19.1 L90.15 22.4" fill="#fef0c3" fill-rule="evenodd" stroke="none"/>
      <path d="M78.6 12.5 L78.7 12.0 79.0 10.55 Q79.45 8.45 79.95 7.15 L80.25 6.55 Q83.95 6.9 87.45 8.85 L90.1 10.55 93.35 13.7 Q92.6 17.5 90.15 22.4 L89.65 23.25 87.95 26.4 87.75 26.7 Q85.45 30.55 83.15 33.15 L80.15 31.6 78.15 30.1 77.95 27.55 77.85 26.4 77.8 25.7 77.75 24.0 77.8 21.15 78.0 17.8 78.0 17.55 Q78.25 14.6 78.6 12.5 Z" fill="none" stroke="#b46608" stroke-linecap="round" stroke-linejoin="round" stroke-width="1.5"/>
      <path d="M86.8 28.25 Q87.7 27.25 88.2 26.05 89.5 22.9 89.55 20.35 89.55 17.85 88.55 15.75 L87.65 14.25 88.45 10.55 Q89.65 5.55 90.65 2.3 L97.9 2.35 109.75 1.85 Q109.0 6.15 109.0 12.55 109.0 16.95 109.35 21.25 L107.6 22.35 107.85 24.55 108.2 26.8 107.0 24.85 107.0 24.75 106.05 23.2 104.25 24.25 105.1 31.9 102.6 25.6 102.6 25.55 101.85 23.65 101.4 23.35 98.4 21.2 98.9 25.85 99.0 27.0 98.4 25.85 97.05 22.6 95.9 19.15 93.55 16.8 92.7 19.05 Q91.9 21.65 91.9 23.75 91.9 25.75 92.6 27.9 L93.3 29.6 95.1 30.05 96.65 30.35 96.9 29.25 96.9 29.15 97.5 27.0 97.85 29.65 97.95 30.15 98.0 30.55 98.65 30.55 99.05 32.8 99.65 35.25 101.9 37.05 Q102.3 33.7 102.85 31.75 L104.0 35.45 105.2 39.1 106.85 40.0 109.45 41.35 109.15 40.5 106.25 32.2 105.6 30.05 106.7 32.2 111.9 42.4 113.35 42.95 112.55 43.65 112.25 43.7 110.25 43.35 Q95.45 40.45 84.6 32.6 L85.2 31.05 85.4 30.7 86.8 28.25" fill="#14951f" fill-rule="evenodd" stroke="none"/>
      <path d="M109.35 21.25 L109.65 23.95 Q110.05 27.9 110.8 31.7 111.7 36.3 113.05 40.75 L113.25 41.4 Q113.55 42.4 113.35 42.95 L111.9 42.4 106.7 32.2 105.6 30.05 106.25 32.2 109.15 40.5 109.45 41.35 106.85 40.0 105.2 39.1 104.0 35.45 102.85 31.75 Q102.3 33.7 101.9 37.05 L99.65 35.25 99.05 32.8 98.65 30.55 98.0 30.55 97.95 30.15 97.85 29.65 97.5 27.0 96.9 29.15 96.9 29.25 96.65 30.35 95.1 30.05 93.3 29.6 92.6 27.9 Q91.9 25.75 91.9 23.75 91.9 21.65 92.7 19.05 L93.55 16.8 95.9 19.15 97.05 22.6 98.4 25.85 99.0 27.0 98.9 25.85 98.4 21.2 101.4 23.35 101.85 23.65 102.6 25.55 102.6 25.6 105.1 31.9 104.25 24.25 106.05 23.2 107.0 24.75 107.0 24.85 108.2 26.8 107.85 24.55 107.6 22.35 109.35 21.25" fill="#45bd2a" fill-rule="evenodd" stroke="none"/>
      <path d="M86.8 28.25 Q87.7 27.25 88.2 26.05 89.5 22.9 89.55 20.35 89.55 17.85 88.55 15.75 L87.65 14.25 88.45 10.55 Q89.65 5.55 90.65 2.3 L97.9 2.35 109.75 1.85 Q109.0 6.15 109.0 12.55 109.0 16.95 109.35 21.25 L109.65 23.95 Q110.05 27.9 110.8 31.7 111.7 36.3 113.05 40.75 L113.25 41.4 Q113.55 42.4 113.35 42.95 L112.55 43.65 112.25 43.7 110.25 43.35 Q95.45 40.45 84.6 32.6" fill="none" stroke="#084f2d" stroke-linecap="round" stroke-linejoin="round" stroke-width="1.5"/>
      <path d="M60.8 -32.85 L61.55 -36.05 Q63.85 -43.55 66.85 -48.95 L67.8 -50.6 87.4 -51.9 Q100.25 -51.9 116.65 -47.1 L118.95 -46.4 Q126.25 -44.15 132.65 -41.5 L133.7 -41.05 134.1 -40.9 135.85 -35.3 129.55 -38.4 Q120.15 -42.6 111.1 -44.05 106.5 -41.6 101.85 -39.65 98.3 -38.1 94.85 -36.9 L91.4 -35.85 Q82.7 -33.35 74.9 -33.35 L69.25 -33.85 68.45 -33.95 65.6 -34.5 Q64.1 -33.35 60.8 -32.85" fill="#f3973e" fill-rule="evenodd" stroke="none"/>
      <path d="M136.65 -32.6 L138.0 -27.0 138.75 -23.8 133.95 -23.85 133.45 -23.9 133.7 -26.1 133.65 -26.75 128.1 -24.1 115.0 -25.2 113.7 -25.4 110.5 -28.5 106.4 -32.3 107.35 -35.6 127.0 -33.9 136.65 -32.6" fill="#fad380" fill-rule="evenodd" stroke="none"/>
      <path d="M138.9 -23.05 L140.05 -17.15 141.2 -10.25 125.45 -7.8 Q117.5 -6.35 108.3 -4.15 96.05 -1.2 81.65 3.0 75.15 1.05 69.9 -1.75 64.7 -4.6 60.15 -7.85 59.9 -8.05 59.6 -8.2 L58.95 -9.1 Q58.35 -10.95 58.35 -13.05 L58.55 -16.4 63.95 -18.0 Q70.6 -20.25 73.95 -22.8 L72.45 -26.8 72.75 -26.85 86.55 -27.15 98.0 -26.95 104.15 -26.65 102.65 -29.8 100.8 -33.55 101.05 -35.0 101.3 -35.75 101.8 -36.6 102.7 -35.75 106.4 -32.3 110.5 -28.5 113.7 -25.4 115.0 -25.2 128.1 -24.1 133.65 -26.75 133.7 -26.1 133.45 -23.9 133.45 -23.85 133.9 -23.75 138.9 -23.05" fill="#fef0c3" fill-rule="evenodd" stroke="none"/>
      <path d="M58.55 -16.4 L58.95 -23.0 59.55 -26.55 60.2 -26.55 72.45 -26.8 Q71.05 -30.35 69.25 -33.85 L74.9 -33.35 Q82.7 -33.35 91.4 -35.85 L94.45 -35.85 95.2 -35.85 101.3 -35.75 101.05 -35.0 100.8 -33.55 102.65 -29.8 104.15 -26.65 98.0 -26.95 86.55 -27.15 72.75 -26.85 72.45 -26.8 73.95 -22.8 Q70.6 -20.25 63.95 -18.0 L58.55 -16.4 M107.35 -35.6 L106.4 -32.3 102.7 -35.75 107.35 -35.6" fill="#ffc05e" fill-rule="evenodd" stroke="none"/>
      <path d="M135.85 -35.3 L136.65 -32.6 127.0 -33.9 107.35 -35.6 102.7 -35.75 101.8 -36.6 101.3 -35.75 95.2 -35.85 94.45 -35.85 91.4 -35.85 94.85 -36.9 Q98.3 -38.1 101.85 -39.65 106.5 -41.6 111.1 -44.05 120.15 -42.6 129.55 -38.4 L135.85 -35.3" fill="#ffbb52" fill-rule="evenodd" stroke="none"/>
      <path d="M138.75 -23.8 L138.9 -23.05 133.9 -23.75 133.45 -23.85 133.45 -23.9 133.95 -23.85 138.75 -23.8" fill="#feeebd" fill-rule="evenodd" stroke="none"/>
      <path d="M59.55 -26.55 L60.65 -32.05 60.8 -32.85 Q64.1 -33.35 65.6 -34.5 L68.45 -33.95 69.25 -33.85 Q71.05 -30.35 72.45 -26.8 L60.2 -26.55 59.55 -26.55" fill="#faaf3e" fill-rule="evenodd" stroke="none"/>
      <path d="M141.2 -10.25 Q141.75 -5.4 141.5 -2.7 137.65 0.5 132.05 2.25 123.95 4.75 114.35 5.6 L103.95 6.1 Q94.3 6.1 85.0 3.85 L81.65 3.0 Q96.05 -1.2 108.3 -4.15 117.5 -6.35 125.45 -7.8 L141.2 -10.25 M117.7 0.55 L117.05 -0.7 Q115.55 -0.15 112.7 1.55 L112.0 1.95 Q110.4 2.85 109.5 3.5 L112.35 2.55 116.55 1.05 Q117.3 1.2 118.15 1.75 L117.7 0.55" fill="#faf2c4" fill-rule="evenodd" stroke="none"/>
      <path d="M117.7 0.55 L118.15 1.75 Q117.3 1.2 116.55 1.05 L112.35 2.55 109.5 3.5 Q110.4 2.85 112.0 1.95 L112.7 1.55 Q115.55 -0.15 117.05 -0.7 L117.7 0.55" fill="#ec923a" fill-rule="evenodd" stroke="none"/>
      <path d="M60.8 -32.85 L61.55 -36.05 Q63.85 -43.55 66.85 -48.95 L67.8 -50.6 87.4 -51.9 Q100.25 -51.9 116.65 -47.1 L118.95 -46.4 Q126.25 -44.15 132.65 -41.5 L133.7 -41.05 134.1 -40.9 135.85 -35.3 136.65 -32.6 138.0 -27.0 138.75 -23.8 138.9 -23.05 140.05 -17.15 141.2 -10.25 Q141.75 -5.4 141.5 -2.7 137.65 0.5 132.05 2.25 123.95 4.75 114.35 5.6 L103.95 6.1 Q94.3 6.1 85.0 3.85 L81.65 3.0 Q75.15 1.05 69.9 -1.75 64.7 -4.6 60.15 -7.85 59.9 -8.05 59.6 -8.2 L58.95 -9.1 Q58.35 -10.95 58.35 -13.05 L58.55 -16.4 58.95 -23.0 59.55 -26.55 60.65 -32.05 60.8 -32.85 Z" fill="none" stroke="#b6682b" stroke-linecap="round" stroke-linejoin="round" stroke-width="1.5"/>
      <path d="M69.7 -15.15 L71.35 -13.7 Q76.4 -9.45 80.4 -6.8 85.5 -3.4 90.45 -1.45 94.75 0.25 99.0 0.9 97.45 5.6 93.15 10.4 L92.35 11.25 87.25 13.7 88.9 8.55 90.3 3.7 87.75 7.95 83.45 14.75 83.1 15.4 Q79.45 16.65 77.35 16.8 L76.7 15.1 76.3 14.1 76.15 13.7 77.0 13.25 80.15 11.4 85.1 7.75 85.95 7.0 87.95 5.25 84.85 4.5 84.15 4.35 81.4 3.55 81.55 2.65 82.0 -0.15 79.75 2.45 79.35 2.85 78.1 2.4 77.1 1.95 77.05 1.75 76.6 -0.6 Q75.15 -1.1 72.7 -2.35 L69.95 -3.9 70.05 -5.4 70.3 -9.05 Q70.3 -11.2 69.7 -15.15 M69.05 31.45 Q65.5 35.55 61.9 42.5 L61.25 43.75 Q59.5 47.2 58.05 51.35 55.9 57.6 54.55 65.5 L54.3 67.05 52.95 63.2 Q53.35 58.95 54.4 52.45 L54.95 48.7 55.55 45.45 54.4 48.05 50.85 56.25 49.05 48.7 50.85 44.25 51.05 43.75 52.5 40.25 50.2 42.6 48.25 44.65 47.2 38.3 47.0 36.7 50.45 35.55 Q57.0 33.15 60.1 30.15 L60.15 29.9 60.3 27.65 Q61.9 27.85 63.85 28.6 L67.05 30.2 69.05 31.45" fill="#45bd2a" fill-rule="evenodd" stroke="none"/>
      <path d="M92.35 11.25 L89.4 14.15 86.25 16.95 81.6 20.9 80.45 21.8 78.7 23.0 76.65 24.4 Q74.0 26.4 70.75 29.6 L69.05 31.45 67.05 30.2 63.85 28.6 Q61.9 27.85 60.3 27.65 L60.15 29.9 60.1 30.15 Q57.0 33.15 50.45 35.55 L47.0 36.7 47.2 38.3 48.25 44.65 50.2 42.6 52.5 40.25 51.05 43.75 50.85 44.25 49.05 48.7 50.85 56.25 54.4 48.05 55.55 45.45 54.95 48.7 54.4 52.45 Q53.35 58.95 52.95 63.2 L54.3 67.05 54.1 68.35 52.75 66.75 Q49.05 62.4 45.9 57.3 L42.25 50.85 41.15 48.5 Q36.05 38.0 36.85 23.7 L37.0 21.75 Q38.1 17.1 39.65 13.3 46.0 -2.6 46.0 -12.7 46.0 -24.95 39.05 -32.2 35.6 -35.85 30.5 -37.95 L31.75 -38.0 Q42.15 -38.0 52.55 -31.45 62.0 -25.55 69.4 -15.45 L69.7 -15.15 Q70.3 -11.2 70.3 -9.05 L70.05 -5.4 69.95 -3.9 72.7 -2.35 Q75.15 -1.1 76.6 -0.6 L77.05 1.75 77.1 1.95 78.1 2.4 79.35 2.85 79.75 2.45 82.0 -0.15 81.55 2.65 81.4 3.55 84.15 4.35 84.85 4.5 87.95 5.25 85.95 7.0 85.1 7.75 80.15 11.4 77.0 13.25 76.15 13.7 76.3 14.1 76.7 15.1 77.35 16.8 Q79.45 16.65 83.1 15.4 L83.45 14.75 87.75 7.95 90.3 3.7 88.9 8.55 87.25 13.7 92.35 11.25" fill="#14951f" fill-rule="evenodd" stroke="none"/>
      <path d="M69.7 -15.15 L71.35 -13.7 Q76.4 -9.45 80.4 -6.8 85.5 -3.4 90.45 -1.45 94.75 0.25 99.0 0.9 97.45 5.6 93.15 10.4 L92.35 11.25 89.4 14.15 86.25 16.95 81.6 20.9 80.45 21.8 78.7 23.0 76.65 24.4 Q74.0 26.4 70.75 29.6 L69.05 31.45 Q65.5 35.55 61.9 42.5 M54.3 67.05 L54.1 68.35 M30.5 -37.95 L31.75 -38.0 Q42.15 -38.0 52.55 -31.45 62.0 -25.55 69.4 -15.45 L69.7 -15.15" fill="none" stroke="#084f2d" stroke-linecap="round" stroke-linejoin="round" stroke-width="1.5"/>
      <path d="M61.9 42.5 L61.25 43.75 Q59.5 47.2 58.05 51.35 55.9 57.6 54.55 65.5 L54.3 67.05 M54.1 68.35 L52.75 66.75 Q49.05 62.4 45.9 57.3 L42.25 50.85 41.15 48.5 Q36.05 38.0 36.85 23.7 L37.0 21.75 Q38.1 17.1 39.65 13.3 46.0 -2.6 46.0 -12.7 46.0 -24.95 39.05 -32.2 35.6 -35.85 30.5 -37.95" fill="none" stroke="#084f2d" stroke-linecap="round" stroke-linejoin="round" stroke-width="2.5"/>
      <path d="M101.4 -93.65 Q103.05 -94.65 105.35 -94.65 107.7 -94.65 108.65 -92.85 109.15 -91.8 109.15 -90.3 L108.9 -89.05 108.7 -88.2 109.0 -87.9 Q112.15 -84.2 116.7 -75.65 L118.45 -72.15 121.35 -65.3 121.35 -65.15 121.1 -65.25 119.55 -65.65 117.8 -69.85 116.8 -72.1 113.8 -77.9 114.9 -72.35 115.25 -70.1 115.65 -67.0 114.6 -67.45 Q112.95 -68.1 111.45 -68.85 L110.8 -75.15 110.1 -74.35 107.7 -71.85 107.15 -71.3 105.15 -72.8 105.3 -73.0 107.3 -76.25 Q108.65 -78.75 109.25 -80.4 L106.4 -78.65 106.8 -80.35 107.85 -85.75 106.75 -88.55 106.45 -88.3 Q105.55 -87.7 104.6 -87.7 103.75 -87.55 102.95 -88.15 101.3 -89.3 101.3 -92.8 L101.4 -93.65 M62.05 -76.05 L62.65 -76.45 Q64.05 -77.25 65.45 -77.25 67.65 -77.25 68.55 -75.15 69.05 -74.05 69.05 -72.75 L68.8 -71.55 68.65 -70.85 71.2 -70.85 72.6 -70.8 78.8 -70.5 89.75 -69.45 94.0 -68.85 97.45 -68.3 97.6 -68.55 98.5 -68.4 101.55 -67.6 107.6 -66.05 109.85 -65.4 111.9 -64.75 116.05 -63.45 119.7 -62.0 117.6 -61.4 116.15 -61.85 112.05 -63.05 105.0 -64.75 103.6 -65.05 Q89.05 -68.0 75.55 -68.65 L90.1 -66.45 102.95 -63.75 Q109.35 -62.15 114.15 -60.3 L106.65 -57.9 Q102.85 -59.55 97.6 -61.3 L94.3 -62.35 88.05 -64.2 94.2 -60.45 94.85 -60.05 100.45 -56.0 93.6 -54.1 89.25 -57.3 88.9 -57.55 Q82.9 -61.7 79.45 -62.9 L84.2 -57.7 85.45 -56.2 88.1 -52.8 86.45 -52.5 81.9 -57.75 79.7 -60.2 Q75.2 -65.0 70.65 -68.55 L78.1 -59.85 79.4 -58.25 84.25 -52.1 79.8 -51.5 78.8 -53.8 78.7 -54.05 76.3 -59.95 Q75.8 -58.8 75.4 -56.75 L74.95 -53.65 Q73.2 -56.15 71.8 -59.95 L71.1 -61.9 Q70.2 -61.4 68.85 -61.0 L68.75 -61.0 66.6 -71.25 Q65.65 -70.75 64.65 -70.75 63.9 -70.65 63.25 -71.1 61.9 -71.95 61.9 -74.45 L62.05 -76.05" fill="#45bd2a" fill-rule="evenodd" stroke="none"/>
      <path d="M101.4 -93.65 L101.3 -92.8 Q101.3 -89.3 102.95 -88.15 103.75 -87.55 104.6 -87.7 105.55 -87.7 106.45 -88.3 L106.75 -88.55 107.85 -85.75 106.8 -80.35 106.4 -78.65 109.25 -80.4 Q108.65 -78.75 107.3 -76.25 L105.3 -73.0 105.15 -72.8 107.15 -71.3 107.7 -71.85 110.1 -74.35 110.8 -75.15 111.45 -68.85 Q112.95 -68.1 114.6 -67.45 L115.65 -67.0 115.25 -70.1 114.9 -72.35 113.8 -77.9 116.8 -72.1 117.8 -69.85 119.55 -65.65 121.1 -65.25 121.35 -65.15 121.9 -63.8 122.25 -62.85 122.55 -62.0 121.9 -61.7 121.15 -61.4 119.55 -60.75 117.05 -59.65 116.35 -59.35 109.45 -56.65 103.95 -54.6 102.65 -54.1 96.3 -51.9 89.95 -49.85 88.85 -49.5 87.05 -48.95 86.5 -48.85 Q78.4 -46.55 72.25 -45.8 L70.35 -45.55 69.9 -45.45 68.8 -45.45 69.3 -46.75 65.9 -46.2 64.75 -45.95 64.55 -45.95 Q65.9 -48.05 69.1 -49.75 L69.6 -50.0 Q71.45 -50.9 72.85 -51.3 L73.45 -51.4 73.35 -51.65 73.15 -52.1 72.85 -52.75 Q71.4 -55.95 69.75 -58.25 68.25 -56.75 66.85 -54.65 66.4 -56.5 66.1 -58.7 65.55 -62.65 65.15 -69.2 L64.65 -69.15 Q63.15 -69.15 61.95 -70.45 60.8 -71.8 60.8 -73.45 60.8 -75.05 62.05 -76.05 L61.9 -74.45 Q61.9 -71.95 63.25 -71.1 63.9 -70.65 64.65 -70.75 65.65 -70.75 66.6 -71.25 L68.75 -61.0 68.85 -61.0 Q70.2 -61.4 71.1 -61.9 L71.8 -59.95 Q73.2 -56.15 74.95 -53.65 L75.4 -56.75 Q75.8 -58.8 76.3 -59.95 L78.7 -54.05 78.8 -53.8 79.8 -51.5 84.25 -52.1 79.4 -58.25 78.1 -59.85 70.65 -68.55 Q75.2 -65.0 79.7 -60.2 L81.9 -57.75 86.45 -52.5 88.1 -52.8 85.45 -56.2 84.2 -57.7 79.45 -62.9 Q82.9 -61.7 88.9 -57.55 L89.25 -57.3 93.6 -54.1 100.45 -56.0 94.85 -60.05 94.2 -60.45 88.05 -64.2 94.3 -62.35 97.6 -61.3 Q102.85 -59.55 106.65 -57.9 L114.15 -60.3 Q109.35 -62.15 102.95 -63.75 L90.1 -66.45 75.55 -68.65 Q89.05 -68.0 103.6 -65.05 L105.0 -64.75 112.05 -63.05 116.15 -61.85 117.6 -61.4 119.7 -62.0 116.05 -63.45 111.9 -64.75 109.85 -65.4 107.6 -66.05 101.55 -67.6 98.5 -68.4 97.6 -68.55 98.85 -70.3 100.9 -73.6 102.75 -77.45 103.85 -80.2 103.95 -80.45 105.0 -84.25 104.3 -84.2 102.85 -84.35 Q101.45 -84.75 100.35 -85.85 98.9 -87.3 98.9 -89.15 98.9 -91.9 100.95 -93.4 L101.4 -93.65" fill="#14951f" fill-rule="evenodd" stroke="none"/>
      <path d="M121.9 -63.8 L124.3 -62.85 124.75 -63.05 124.75 -62.65 124.75 -59.6 124.75 -59.55 124.2 -58.95 124.55 -58.5 126.55 -55.7 128.85 -51.7 129.0 -51.6 129.05 -51.6 132.95 -49.55 134.05 -46.1 134.45 -44.6 135.45 -40.7 Q135.7 -38.6 135.25 -38.5 L135.25 -38.45 129.85 -41.2 128.1 -42.0 127.35 -42.3 Q119.85 -45.45 113.0 -46.8 106.85 -43.7 100.85 -41.5 95.75 -39.6 90.8 -38.3 80.4 -35.7 69.7 -35.7 L66.1 -35.95 65.5 -37.8 64.75 -37.05 64.35 -36.6 65.6 -30.8 65.9 -29.25 66.6 -26.5 Q67.95 -25.65 69.95 -25.1 L70.75 -24.85 71.15 -24.15 Q63.55 -20.2 55.65 -19.85 L54.25 -23.65 52.45 -29.25 Q51.55 -32.4 51.25 -34.85 L54.7 -37.65 57.95 -40.15 59.9 -41.55 58.7 -44.55 61.2 -45.15 Q60.75 -46.65 59.75 -48.4 L55.9 -53.65 55.1 -54.55 Q52.15 -57.8 48.6 -59.75 L47.65 -60.2 49.85 -62.65 Q52.55 -65.5 55.65 -67.8 L55.15 -66.1 54.05 -61.9 Q56.3 -59.75 59.25 -53.45 L59.6 -52.45 61.15 -48.7 62.35 -47.55 62.95 -47.05 63.25 -46.9 63.55 -47.15 63.85 -50.0 64.0 -48.8 65.1 -51.6 66.5 -54.15 66.8 -54.5 66.85 -54.65 Q68.25 -56.75 69.75 -58.25 71.4 -55.95 72.85 -52.75 L73.15 -52.1 73.35 -51.65 73.45 -51.4 72.85 -51.3 72.3 -51.75 70.4 -53.45 Q69.1 -52.65 67.85 -51.15 L67.35 -50.6 Q66.1 -49.05 64.95 -46.85 L64.5 -45.9 64.55 -45.95 64.75 -45.95 64.15 -45.4 63.7 -45.0 63.65 -44.95 63.1 -44.4 63.1 -44.35 63.4 -42.9 63.55 -42.85 64.35 -42.7 64.85 -42.6 67.0 -42.45 67.95 -42.45 68.35 -44.0 68.75 -45.2 68.8 -45.45 69.9 -45.45 70.35 -45.55 72.25 -45.8 Q78.4 -46.55 86.5 -48.85 L87.05 -48.95 87.4 -47.9 88.05 -46.15 Q94.2 -46.4 105.3 -50.65 111.6 -53.1 115.85 -55.25 L116.7 -57.9 116.9 -59.15 117.05 -59.65 119.55 -60.75 121.15 -61.4 121.9 -61.7 122.55 -62.0 122.25 -62.85 121.9 -63.8 M124.3 -62.85 L124.75 -62.65 124.3 -62.85 M125.4 -49.35 L126.95 -49.15 127.3 -49.45 127.3 -49.65 127.3 -49.8 Q127.3 -51.5 126.7 -52.75 L125.05 -53.45 120.25 -55.25 119.4 -53.45 118.9 -51.45 118.9 -51.0 121.7 -50.15 125.4 -49.35 M126.8 -44.35 L127.85 -44.2 130.6 -43.65 131.0 -45.35 131.0 -45.4 130.95 -45.4 126.25 -46.2 122.9 -46.65 124.9 -44.75 126.8 -44.35 M61.1 -39.4 L60.85 -39.75 58.15 -36.85 Q55.7 -34.15 54.4 -32.45 54.85 -31.2 56.0 -29.25 L56.5 -28.5 Q57.5 -26.85 58.35 -25.9 L60.1 -26.55 Q62.4 -27.55 64.1 -28.8 L63.95 -29.25 Q62.8 -34.05 62.6 -39.35 L62.35 -39.35 61.1 -39.4 M101.8 -44.85 L96.4 -43.45 Q90.1 -42.1 83.75 -42.1 L78.85 -41.6 78.25 -39.35 78.25 -39.2 83.8 -38.7 Q89.55 -38.7 94.95 -40.85 L101.5 -43.75 101.8 -44.85" fill="#2684ad" fill-rule="evenodd" stroke="none"/>
      <path d="M66.1 -35.95 Q67.45 -32.2 68.75 -29.25 L69.25 -28.05 70.75 -24.85 69.95 -25.1 Q67.95 -25.65 66.6 -26.5 L65.9 -29.25 65.6 -30.8 64.35 -36.6 64.75 -37.05 65.5 -37.8 66.1 -35.95 M55.65 -67.8 L56.0 -68.1 Q59.5 -64.15 61.75 -57.95 L63.4 -52.25 63.85 -50.0 63.55 -47.15 63.25 -46.9 62.95 -47.05 62.35 -47.55 61.15 -48.7 59.6 -52.45 59.25 -53.45 Q56.3 -59.75 54.05 -61.9 L55.15 -66.1 55.65 -67.8 M125.4 -49.35 L121.7 -50.15 118.9 -51.0 118.9 -51.45 119.4 -53.45 120.25 -55.25 125.05 -53.45 126.7 -52.75 Q127.3 -51.5 127.3 -49.8 L127.3 -49.65 127.3 -49.45 126.95 -49.15 125.4 -49.35 M126.8 -44.35 L124.9 -44.75 122.9 -46.65 126.25 -46.2 130.95 -45.4 131.0 -45.4 131.0 -45.35 130.6 -43.65 127.85 -44.2 126.8 -44.35 M87.05 -48.95 L88.85 -49.5 89.95 -49.85 96.3 -51.9 102.65 -54.1 103.95 -54.6 109.45 -56.65 116.35 -59.35 117.05 -59.65 116.9 -59.15 116.7 -57.9 115.85 -55.25 Q111.6 -53.1 105.3 -50.65 94.2 -46.4 88.05 -46.15 L87.4 -47.9 87.05 -48.95 M68.8 -45.45 L68.75 -45.2 68.35 -44.0 67.95 -42.45 67.0 -42.45 64.85 -42.6 64.35 -42.7 63.55 -42.85 63.4 -42.9 63.1 -44.35 63.1 -44.4 63.65 -44.95 63.7 -45.0 64.15 -45.4 64.75 -45.95 65.9 -46.2 69.3 -46.75 68.8 -45.45 M64.55 -45.95 L64.5 -45.9 64.95 -46.85 Q66.1 -49.05 67.35 -50.6 L67.85 -51.15 Q69.1 -52.65 70.4 -53.45 L72.3 -51.75 72.85 -51.3 Q71.45 -50.9 69.6 -50.0 L69.1 -49.75 Q65.9 -48.05 64.55 -45.95 M101.8 -44.85 L101.5 -43.75 94.95 -40.85 Q89.55 -38.7 83.8 -38.7 L78.25 -39.2 78.25 -39.35 78.85 -41.6 83.75 -42.1 Q90.1 -42.1 96.4 -43.45 L101.8 -44.85" fill="#4ccde2" fill-rule="evenodd" stroke="none"/>
      <path d="M72.6 -70.8 L73.0 -72.7 Q73.95 -76.8 75.9 -82.0 74.35 -82.05 73.0 -83.5 71.35 -85.15 71.35 -87.55 71.35 -90.3 73.85 -91.9 L73.7 -91.45 73.45 -90.1 Q73.45 -87.35 74.85 -85.9 75.8 -84.95 77.0 -84.95 L78.7 -85.35 80.1 -84.35 78.15 -80.4 77.5 -78.95 Q77.65 -77.9 77.95 -76.8 L78.9 -74.55 79.25 -73.9 79.35 -74.55 79.8 -76.7 80.55 -78.85 81.75 -76.7 82.55 -75.2 84.5 -71.8 86.8 -71.7 92.2 -71.95 91.05 -73.9 88.7 -77.5 92.6 -74.5 95.1 -72.4 98.8 -73.2 Q99.7 -75.15 100.35 -78.05 L100.55 -78.8 97.35 -80.75 95.0 -82.15 98.1 -81.5 98.45 -81.35 100.85 -80.8 100.95 -81.8 101.8 -81.45 103.95 -80.45 103.85 -80.2 102.75 -77.45 100.9 -73.6 98.85 -70.3 97.6 -68.55 97.45 -68.3 94.0 -68.85 89.75 -69.45 78.8 -70.5 72.6 -70.8" fill="#226b37" fill-rule="evenodd" stroke="none"/>
      <path d="M73.85 -91.9 L73.95 -91.95 Q75.8 -93.15 77.55 -93.15 80.35 -93.15 81.35 -90.7 81.9 -89.45 81.9 -87.7 L81.7 -86.8 85.7 -86.2 Q91.35 -85.25 93.65 -84.5 L99.85 -82.25 100.95 -81.8 100.85 -80.8 98.45 -81.35 98.1 -81.5 95.0 -82.15 97.35 -80.75 100.55 -78.8 100.35 -78.05 Q99.7 -75.15 98.8 -73.2 L95.1 -72.4 92.6 -74.5 88.7 -77.5 91.05 -73.9 92.2 -71.95 86.8 -71.7 84.5 -71.8 82.55 -75.2 81.75 -76.7 80.55 -78.85 79.8 -76.7 79.35 -74.55 79.25 -73.9 78.9 -74.55 77.95 -76.8 Q77.65 -77.9 77.5 -78.95 L78.15 -80.4 80.1 -84.35 78.7 -85.35 77.0 -84.95 Q75.8 -84.95 74.85 -85.9 73.45 -87.35 73.45 -90.1 L73.7 -91.45 73.85 -91.9" fill="#37854d" fill-rule="evenodd" stroke="none"/>
      <path d="M121.35 -65.15 L121.35 -65.3 118.45 -72.15 116.7 -75.65 Q112.15 -84.2 109.0 -87.9 L108.7 -88.2 108.9 -89.05 109.15 -90.3 Q109.15 -91.8 108.65 -92.85 107.7 -94.65 105.35 -94.65 103.05 -94.65 101.4 -93.65 L100.95 -93.4 Q98.9 -91.9 98.9 -89.15 98.9 -87.3 100.35 -85.85 101.45 -84.75 102.85 -84.35 L104.3 -84.2 105.0 -84.25 103.95 -80.45 101.8 -81.45 100.95 -81.8 99.85 -82.25 93.65 -84.5 Q91.35 -85.25 85.7 -86.2 L81.7 -86.8 81.9 -87.7 Q81.9 -89.45 81.35 -90.7 80.35 -93.15 77.55 -93.15 75.8 -93.15 73.95 -91.95 L73.85 -91.9 Q71.35 -90.3 71.35 -87.55 71.35 -85.15 73.0 -83.5 74.35 -82.05 75.9 -82.0 73.95 -76.8 73.0 -72.7 L72.6 -70.8 71.2 -70.85 68.65 -70.85 68.8 -71.55 69.05 -72.75 Q69.05 -74.05 68.55 -75.15 67.65 -77.25 65.45 -77.25 64.05 -77.25 62.65 -76.45 L62.05 -76.05 Q60.8 -75.05 60.8 -73.45 60.8 -71.8 61.95 -70.45 63.15 -69.15 64.65 -69.15 L65.15 -69.2 Q65.55 -62.65 66.1 -58.7 66.4 -56.5 66.85 -54.65 M121.35 -65.15 L121.9 -63.8 122.25 -62.85 122.55 -62.0" fill="none" stroke="#084f2d" stroke-linecap="round" stroke-linejoin="round" stroke-width="2.5"/>
      <path d="M135.25 -38.5 L135.25 -38.45 129.85 -41.2 128.1 -42.0 127.35 -42.3 Q119.85 -45.45 113.0 -46.8 106.85 -43.7 100.85 -41.5 95.75 -39.6 90.8 -38.3 80.4 -35.7 69.7 -35.7 L66.1 -35.95 Q67.45 -32.2 68.75 -29.25 L69.25 -28.05 70.75 -24.85 71.15 -24.15 Q63.55 -20.2 55.65 -19.85 L54.25 -23.65 52.45 -29.25 Q51.55 -32.4 51.25 -34.85 L54.7 -37.65 57.95 -40.15 M66.8 -54.5 L66.85 -54.65 Q68.25 -56.75 69.75 -58.25 71.4 -55.95 72.85 -52.75 L73.15 -52.1 73.35 -51.65 73.45 -51.4 72.85 -51.3 Q71.45 -50.9 69.6 -50.0 L69.1 -49.75 Q65.9 -48.05 64.55 -45.95 L64.75 -45.95 65.9 -46.2 69.3 -46.75 68.8 -45.45 69.9 -45.45 70.35 -45.55 72.25 -45.8 Q78.4 -46.55 86.5 -48.85 L87.05 -48.95 88.85 -49.5 89.95 -49.85 96.3 -51.9 102.65 -54.1 103.95 -54.6 109.45 -56.65 116.35 -59.35 117.05 -59.65 119.55 -60.75 121.15 -61.4 121.9 -61.7" fill="none" stroke="#074174" stroke-linecap="round" stroke-linejoin="round" stroke-width="1.5"/>
      <path d="M121.9 -63.8 L124.3 -62.85 124.75 -62.65 124.75 -59.6 124.75 -59.55 124.2 -58.95 124.55 -58.5 126.55 -55.7 128.85 -51.7 129.0 -51.6 129.05 -51.6 132.95 -49.55 134.05 -46.1 134.45 -44.6 135.45 -40.7 Q135.7 -38.6 135.25 -38.5 M57.95 -40.15 L59.9 -41.55 58.7 -44.55 61.2 -45.15 Q60.75 -46.65 59.75 -48.4 L55.9 -53.65 55.1 -54.55 Q52.15 -57.8 48.6 -59.75 L47.65 -60.2 49.85 -62.65 Q52.55 -65.5 55.65 -67.8 L56.0 -68.1 Q59.5 -64.15 61.75 -57.95 L63.4 -52.25 63.85 -50.0 64.0 -48.8 65.1 -51.6 66.5 -54.15 66.8 -54.5 M121.9 -61.7 L122.55 -62.0" fill="none" stroke="#074174" stroke-linecap="round" stroke-linejoin="round" stroke-width="2.5"/>
      <path d="M72.6 -70.8 L78.8 -70.5 89.75 -69.45 94.0 -68.85 97.45 -68.3 97.6 -68.55 98.85 -70.3 100.9 -73.6 102.75 -77.45 103.85 -80.2 103.95 -80.45" fill="none" stroke="#084f2d" stroke-linecap="round" stroke-linejoin="round" stroke-width="1.5"/>
      <path d="M61.1 -39.4 L62.35 -39.35 62.6 -39.35 Q62.8 -34.05 63.95 -29.25 L64.1 -28.8 Q62.4 -27.55 60.1 -26.55 L58.35 -25.9 Q57.5 -26.85 56.5 -28.5 L56.0 -29.25 Q54.85 -31.2 54.4 -32.45 55.7 -34.15 58.15 -36.85 L60.85 -39.75 61.1 -39.4 Z" fill="none" stroke="#0e5b87" stroke-linecap="round" stroke-linejoin="round" stroke-width="1.5"/>
      <path d="M127.8 -17.85 L128.85 -18.4 130.95 -19.5 131.7 -19.9 132.25 -20.25 132.7 -20.45 133.1 -20.7 134.2 -21.3 134.45 -20.95 135.15 -19.4 Q136.3 -16.45 136.3 -12.5 136.3 -7.5 133.6 -4.45 L131.75 -2.9 130.8 -2.1 Q129.75 -1.45 128.7 -1.45 L127.0 -1.75 Q126.3 -1.95 126.2 -2.15 125.5 -2.65 125.05 -3.6 124.1 -5.35 124.1 -8.55 124.1 -12.35 125.55 -15.7 L125.75 -16.3 126.0 -16.8 127.4 -17.6 127.5 -17.65 127.8 -17.85 M127.1 -16.75 L126.9 -16.7 126.45 -15.6 Q124.85 -12.1 124.85 -7.85 124.85 -5.4 125.6 -3.8 L125.85 -3.35 Q126.85 -2.05 128.4 -2.05 129.45 -2.05 130.3 -2.5 L130.75 -2.75 131.65 -3.4 132.75 -4.5 132.85 -4.55 133.0 -4.85 133.25 -5.25 133.5 -5.7 Q134.95 -8.55 134.95 -12.2 134.95 -13.9 134.35 -16.8 L133.3 -20.35 132.9 -20.1 131.9 -19.6 131.45 -19.3 128.7 -17.7 127.5 -17.05 127.1 -16.75" fill="#f3973e" fill-rule="evenodd" stroke="none"/>
      <path d="M132.9 -20.1 L133.3 -20.35 134.35 -16.8 Q134.95 -13.9 134.95 -12.2 134.95 -8.55 133.5 -5.7 L133.25 -5.25 133.0 -4.85 132.85 -4.55 132.75 -4.5 131.65 -3.4 130.75 -2.75 130.3 -2.5 Q129.45 -2.05 128.4 -2.05 126.85 -2.05 125.85 -3.35 L125.6 -3.8 Q124.85 -5.4 124.85 -7.85 124.85 -12.1 126.45 -15.6 L126.9 -16.7 127.1 -16.75 Q126.25 -14.3 126.25 -11.55 126.25 -7.45 127.5 -5.35 128.45 -3.75 129.8 -3.75 L130.65 -3.9 Q131.9 -4.45 132.95 -6.4 134.4 -9.15 134.4 -12.85 134.4 -15.4 133.65 -18.0 L132.9 -20.1" fill="#f2f8f8" fill-rule="evenodd" stroke="none"/>
      <path d="M128.7 -17.7 L131.45 -19.3 131.8 -18.95 Q132.45 -18.2 132.45 -16.9 132.45 -16.25 131.85 -15.35 L131.3 -14.65 130.8 -14.4 130.25 -14.3 Q129.6 -14.3 129.25 -14.6 128.55 -15.25 128.55 -16.85 L128.7 -17.7 M131.4 -14.15 L131.55 -14.25 131.7 -14.3 132.3 -14.1 Q132.85 -13.8 132.85 -13.1 L132.6 -12.45 131.85 -11.85 131.5 -11.8 Q131.3 -11.8 131.05 -12.05 130.75 -12.3 130.75 -12.8 L130.9 -13.55 131.0 -13.7 131.15 -13.95 131.4 -14.15" fill="#fefafb" fill-rule="evenodd" stroke="none"/>
      <path d="M127.5 -17.05 L128.7 -17.7 128.55 -16.85 Q128.55 -15.25 129.25 -14.6 129.6 -14.3 130.25 -14.3 L130.8 -14.4 131.3 -14.65 131.85 -15.35 Q132.45 -16.25 132.45 -16.9 132.45 -18.2 131.8 -18.95 L131.45 -19.3 131.9 -19.6 132.65 -18.1 Q133.55 -15.8 133.55 -13.65 133.55 -11.85 132.85 -9.95 132.15 -8.1 131.1 -7.65 L130.45 -7.55 Q129.3 -7.55 128.45 -8.65 127.1 -10.3 127.1 -14.05 127.1 -15.7 127.5 -17.05 M131.4 -14.15 L131.15 -13.95 131.0 -13.7 130.9 -13.55 130.75 -12.8 Q130.75 -12.3 131.05 -12.05 131.3 -11.8 131.5 -11.8 L131.85 -11.85 132.6 -12.45 132.85 -13.1 Q132.85 -13.8 132.3 -14.1 L131.7 -14.3 131.55 -14.25 131.4 -14.15" fill="#192068" fill-rule="evenodd" stroke="none"/>
      <path d="M127.1 -16.75 L127.5 -17.05 Q127.1 -15.7 127.1 -14.05 127.1 -10.3 128.45 -8.65 129.3 -7.55 130.45 -7.55 L131.1 -7.65 Q132.15 -8.1 132.85 -9.95 133.55 -11.85 133.55 -13.65 133.55 -15.8 132.65 -18.1 L131.9 -19.6 132.9 -20.1 133.65 -18.0 Q134.4 -15.4 134.4 -12.85 134.4 -9.15 132.95 -6.4 131.9 -4.45 130.65 -3.9 L129.8 -3.75 Q128.45 -3.75 127.5 -5.35 126.25 -7.45 126.25 -11.55 126.25 -14.3 127.1 -16.75" fill="#2641a8" fill-rule="evenodd" stroke="none"/>
      <path d="M110.3 -18.45 Q110.35 -14.6 109.55 -10.75 108.5 -6.05 102.9 -3.5 98.4 -1.4 93.9 -2.8 92.9 -3.1 91.8 -3.65 86.3 -6.4 84.4 -12.6 82.5 -18.8 85.6 -24.7 88.35 -30.2 93.35 -32.55 L94.1 -32.85 95.4 -32.05 96.95 -31.1 99.7 -29.1 101.0 -28.0 110.2 -20.15 110.3 -18.45 M108.8 -20.1 L107.0 -22.05 101.0 -27.8 99.4 -29.1 96.7 -30.95 95.0 -31.9 94.1 -31.4 Q91.5 -30.1 90.3 -28.8 88.05 -26.25 86.55 -23.55 84.75 -20.05 84.75 -16.75 84.75 -9.9 89.05 -6.0 91.3 -3.95 93.95 -3.2 L97.5 -2.7 Q103.15 -2.7 106.4 -7.15 109.25 -11.05 109.25 -16.75 L108.95 -19.95 108.8 -20.1" fill="#f3973e" fill-rule="evenodd" stroke="none"/>
      <path d="M96.7 -30.95 L96.6 -30.95 Q94.1 -29.5 92.0 -27.1 89.35 -24.0 88.25 -21.8 86.9 -19.15 86.9 -16.15 86.9 -11.3 89.55 -8.25 91.55 -6.05 94.2 -5.5 L96.0 -5.35 Q102.7 -5.35 106.15 -10.05 108.85 -13.7 108.85 -18.55 L108.8 -20.1 108.95 -19.95 109.25 -16.75 Q109.25 -11.05 106.4 -7.15 103.15 -2.7 97.5 -2.7 L93.95 -3.2 Q91.3 -3.95 89.05 -6.0 84.75 -9.9 84.75 -16.75 84.75 -20.05 86.55 -23.55 88.05 -26.25 90.3 -28.8 91.5 -30.1 94.1 -31.4 L95.0 -31.9 96.7 -30.95" fill="#f2f8f8" fill-rule="evenodd" stroke="none"/>
      <path d="M108.8 -20.1 L108.85 -18.55 Q108.85 -13.7 106.15 -10.05 102.7 -5.35 96.0 -5.35 L94.2 -5.5 Q91.55 -6.05 89.55 -8.25 86.9 -11.3 86.9 -16.15 86.9 -19.15 88.25 -21.8 89.35 -24.0 92.0 -27.1 94.1 -29.5 96.6 -30.95 L96.7 -30.95 99.4 -29.1 98.55 -29.2 Q95.7 -29.2 93.3 -27.45 L92.7 -27.3 92.05 -26.75 91.0 -25.3 Q89.2 -23.0 89.2 -20.2 89.2 -14.6 92.95 -11.0 L94.7 -9.6 Q96.9 -8.1 99.05 -8.1 103.65 -8.1 105.95 -11.6 107.6 -14.2 107.6 -17.6 107.6 -20.05 107.0 -22.05 L108.8 -20.1" fill="#2641a8" fill-rule="evenodd" stroke="none"/>
      <path d="M107.0 -22.05 Q107.6 -20.05 107.6 -17.6 107.6 -14.2 105.95 -11.6 103.65 -8.1 99.05 -8.1 96.9 -8.1 94.7 -9.6 L92.95 -11.0 Q89.2 -14.6 89.2 -20.2 89.2 -23.0 91.0 -25.3 90.3 -24.05 90.3 -22.65 90.3 -20.0 92.0 -18.7 93.1 -17.95 94.15 -17.95 L95.9 -18.15 Q97.2 -18.55 98.15 -19.6 99.6 -21.1 99.6 -23.2 99.6 -25.8 98.0 -27.1 96.85 -28.0 95.55 -28.0 L93.3 -27.45 Q95.7 -29.2 98.55 -29.2 L99.4 -29.1 101.0 -27.8 107.0 -22.05 M97.7 -16.4 L96.85 -16.7 96.3 -16.55 96.0 -16.45 95.75 -16.4 95.6 -16.25 Q95.1 -15.65 95.1 -15.0 95.1 -14.25 95.7 -13.75 96.1 -13.35 96.6 -13.35 L97.05 -13.35 97.9 -13.95 Q98.45 -14.6 98.45 -15.05 98.45 -16.0 97.7 -16.4" fill="#192068" fill-rule="evenodd" stroke="none"/>
      <path d="M91.0 -25.3 L92.05 -26.75 92.7 -27.3 93.3 -27.45 95.55 -28.0 Q96.85 -28.0 98.0 -27.1 99.6 -25.8 99.6 -23.2 99.6 -21.1 98.15 -19.6 97.2 -18.55 95.9 -18.15 L94.15 -17.95 Q93.1 -17.95 92.0 -18.7 90.3 -20.0 90.3 -22.65 90.3 -24.05 91.0 -25.3 M97.7 -16.4 Q98.45 -16.0 98.45 -15.05 98.45 -14.6 97.9 -13.95 L97.05 -13.35 96.6 -13.35 Q96.1 -13.35 95.7 -13.75 95.1 -14.25 95.1 -15.0 95.1 -15.65 95.6 -16.25 L95.75 -16.4 96.0 -16.45 96.3 -16.55 96.85 -16.7 97.7 -16.4" fill="#fefafb" fill-rule="evenodd" stroke="none"/>
      <path d="M106.25 -31.8 L106.4 -32.3 110.5 -28.5 113.7 -25.4 115.4 -23.75 115.55 -22.4 Q115.55 -20.7 114.35 -19.1 112.95 -17.25 110.95 -17.25 110.1 -17.25 108.85 -17.8 L105.85 -23.35 104.15 -26.65 104.8 -26.65 105.1 -26.6 109.55 -18.3 111.0 -18.1 111.8 -18.15 113.1 -19.5 Q114.1 -21.05 114.1 -22.6 L114.1 -22.8 113.9 -24.3 113.85 -24.35 113.6 -24.65 112.65 -25.55 111.95 -26.2 111.85 -26.3 108.35 -29.75 107.6 -30.45 106.25 -31.8" fill="#ffbb52" fill-rule="evenodd" stroke="none"/>
      <path d="M105.1 -26.6 L105.05 -26.65 105.0 -26.8 104.9 -26.95 102.75 -30.95 101.3 -33.9 101.35 -34.2 Q101.6 -35.3 102.1 -35.75 L102.15 -35.85 102.25 -35.75 106.25 -31.8 107.6 -30.45 108.35 -29.75 111.85 -26.3 111.95 -26.2 112.65 -25.55 113.6 -24.65 113.85 -24.35 113.9 -24.3 114.1 -22.8 114.1 -22.6 Q114.1 -21.05 113.1 -19.5 L111.8 -18.15 111.0 -18.1 109.55 -18.3 105.1 -26.6" fill="#46bc2a" fill-rule="evenodd" stroke="none"/>
      <path d="M106.4 -32.3 L106.25 -31.8 102.25 -35.75 102.15 -35.85 102.1 -35.75 Q101.6 -35.3 101.35 -34.2 L101.3 -33.9 102.75 -30.95 104.9 -26.95 105.0 -26.8 105.05 -26.65 105.1 -26.6 104.8 -26.65 104.15 -26.65 102.65 -29.8 100.8 -33.55 101.05 -35.0 101.3 -35.75 101.8 -36.6 102.7 -35.75 106.4 -32.3" fill="#f3973e" fill-rule="evenodd" stroke="none"/>
      <path d="M132.7 -23.95 L133.0 -24.3 133.1 -24.7 133.25 -25.6 133.25 -26.1 129.6 -24.35 129.45 -24.25 129.05 -24.05 128.1 -24.1 133.65 -26.75 133.7 -26.1 133.45 -23.9 132.95 -23.9 132.7 -23.95" fill="#f3973e" fill-rule="evenodd" stroke="none"/>
      <path d="M129.05 -24.05 L129.45 -24.25 129.6 -24.35 133.25 -26.1 133.25 -25.6 133.1 -24.7 133.0 -24.3 132.7 -23.95 132.7 -23.9 126.15 -16.4 125.65 -16.3 Q124.4 -16.3 123.6 -17.15 122.75 -18.0 122.75 -19.5 L122.9 -20.75 123.05 -21.2 126.8 -23.0 Q127.8 -23.45 129.05 -24.05" fill="#46bc2a" fill-rule="evenodd" stroke="none"/>
      <path d="M132.7 -23.95 L132.95 -23.9 133.45 -23.9 133.45 -23.85 133.25 -23.15 129.6 -19.35 125.9 -15.0 Q124.5 -15.2 123.5 -16.1 121.8 -17.45 121.8 -20.15 L122.0 -21.25 127.8 -23.95 128.1 -24.1 129.05 -24.05 Q127.8 -23.45 126.8 -23.0 L123.05 -21.2 122.9 -20.75 122.75 -19.5 Q122.75 -18.0 123.6 -17.15 124.4 -16.3 125.65 -16.3 L126.15 -16.4 132.7 -23.9 132.7 -23.95" fill="#ffbb52" fill-rule="evenodd" stroke="none"/>
      <path d="M126.75 25.8 L123.2 24.9 Q121.6 19.05 121.6 13.85 L121.7 11.35 121.9 9.85 Q124.9 11.65 128.45 15.45 L127.7 20.15 126.75 25.8" fill="#fff8c1" fill-rule="evenodd" stroke="none"/>
      <path d="M128.45 15.45 L130.15 17.35 131.0 18.35 130.85 19.1 Q130.25 23.2 130.2 26.6 L126.75 25.8 127.7 20.15 128.45 15.45" fill="#fcd985" fill-rule="evenodd" stroke="none"/>
      <path d="M131.0 18.35 L134.4 22.95 134.55 23.85 Q134.55 25.15 133.6 26.4 L132.9 27.2 130.2 26.6 Q130.25 23.2 130.85 19.1 L131.0 18.35" fill="#f7b844" fill-rule="evenodd" stroke="none"/>
      <path d="M126.75 25.8 L123.2 24.9 Q121.6 19.05 121.6 13.85 L121.7 11.35 121.9 9.85 Q124.9 11.65 128.45 15.45 L130.15 17.35 131.0 18.35 134.4 22.95 134.55 23.85 Q134.55 25.15 133.6 26.4 L132.9 27.2 130.2 26.6 126.75 25.8 Z" fill="none" stroke="#b46608" stroke-linecap="round" stroke-linejoin="round" stroke-width="1.5"/>
      <path d="M120.15 20.0 L119.9 19.1 119.15 16.1 118.05 12.15 Q119.2 11.25 120.95 10.25 L123.9 8.75 Q124.15 13.35 125.95 19.1 L127.15 22.6 Q128.45 26.2 130.35 30.25 129.45 33.1 126.25 37.65 L126.1 37.8 125.95 38.0 123.25 41.5 123.2 41.65 123.2 40.55 123.3 40.3 123.8 31.45 124.8 34.65 125.05 35.4 125.45 34.15 124.95 31.35 124.5 29.2 124.4 28.45 124.55 28.7 124.65 28.85 126.15 31.45 Q126.55 29.5 126.55 28.2 L126.4 27.9 125.15 25.05 124.2 22.85 121.35 20.9 120.15 20.0" fill="#14951f" fill-rule="evenodd" stroke="none"/>
      <path d="M123.2 40.55 L123.2 39.85 122.9 34.95 122.75 33.35 Q122.35 29.4 121.7 26.7 L121.0 23.55 120.15 20.0 121.35 20.9 124.2 22.85 125.15 25.05 126.4 27.9 126.55 28.2 Q126.55 29.5 126.15 31.45 L124.65 28.85 124.55 28.7 124.4 28.45 124.5 29.2 124.95 31.35 125.45 34.15 125.05 35.4 124.8 34.65 123.8 31.45 123.3 40.3 123.2 40.55" fill="#45bd2a" fill-rule="evenodd" stroke="none"/>
      <path d="M120.15 20.0 L119.9 19.1 119.15 16.1 118.05 12.15 Q119.2 11.25 120.95 10.25 L123.9 8.75 Q124.15 13.35 125.95 19.1 L127.15 22.6 Q128.45 26.2 130.35 30.25 129.45 33.1 126.25 37.65 L126.1 37.8 125.95 38.0 123.25 41.5 123.2 41.65 123.2 40.55 123.2 39.85 122.9 34.95 122.75 33.35 Q122.35 29.4 121.7 26.7 L121.0 23.55 120.15 20.0 Z" fill="none" stroke="#084f2d" stroke-linecap="round" stroke-linejoin="round" stroke-width="1.5"/>
      <path d="M147.7 -30.5 Q146.9 -28.05 146.3 -20.65 145.75 -13.2 145.75 -8.45 L145.85 -3.65 145.85 -3.0 Q144.35 -2.1 142.45 -1.15 138.2 0.8 131.75 2.9 L139.65 1.5 142.35 0.95 146.05 0.1 146.2 1.8 144.35 2.15 142.25 2.5 141.55 2.6 140.45 4.7 139.4 6.8 140.9 7.35 141.95 7.7 143.4 7.85 145.45 7.45 145.5 7.45 146.15 7.15 146.15 6.7 145.85 4.85 148.15 6.55 148.6 6.9 148.6 7.65 Q148.6 10.5 147.05 12.9 L146.8 13.3 146.5 13.7 Q145.95 15.05 146.45 17.85 146.9 20.6 147.95 21.8 151.95 27.6 153.8 32.9 155.8 38.7 156.0 46.25 L155.65 46.2 154.85 43.5 Q153.4 39.15 151.75 35.9 L146.4 26.2 145.9 25.45 144.95 24.65 Q139.7 20.5 136.25 16.4 133.0 12.5 130.5 8.55 L129.25 6.35 Q128.1 4.3 128.05 2.35 128.9 2.25 130.5 1.3 L131.1 1.0 Q134.8 -1.35 137.7 -4.8 139.15 -6.6 140.0 -8.65 140.65 -11.8 143.25 -18.8 L146.75 -28.15 Q148.55 -32.95 147.7 -30.5 M144.3 12.15 L142.45 11.25 Q137.9 9.05 135.45 7.45 L139.9 15.85 141.9 18.65 143.7 20.8 143.9 20.95 144.2 21.15 147.9 23.9 146.55 21.3 Q144.35 16.45 144.3 12.15" fill="#14951f" fill-rule="evenodd" stroke="none"/>
      <path d="M145.85 -3.0 L146.05 0.1 142.35 0.95 139.65 1.5 131.75 2.9 Q138.2 0.8 142.45 -1.15 144.35 -2.1 145.85 -3.0 M146.2 1.8 L146.2 1.95 146.25 2.25 Q147.65 3.15 148.25 5.0 L148.6 6.9 148.15 6.55 145.85 4.85 146.15 6.7 146.15 7.15 145.5 7.45 145.45 7.45 143.4 7.85 141.95 7.7 140.9 7.35 139.4 6.8 140.45 4.7 141.55 2.6 142.25 2.5 144.35 2.15 146.2 1.8 M144.3 12.15 Q144.35 16.45 146.55 21.3 L147.9 23.9 144.2 21.15 143.9 20.95 143.7 20.8 141.9 18.65 139.9 15.85 135.45 7.45 Q137.9 9.05 142.45 11.25 L144.3 12.15" fill="#45bd2a" fill-rule="evenodd" stroke="none"/>
      <path d="M147.7 -30.5 Q146.9 -28.05 146.3 -20.65 145.75 -13.2 145.75 -8.45 L145.85 -3.65 145.85 -3.0 146.05 0.1 146.2 1.8 M146.25 2.25 Q147.65 3.15 148.25 5.0 L148.6 6.9 148.6 7.65 Q148.6 10.5 147.05 12.9 L146.8 13.3 146.5 13.7 Q145.95 15.05 146.45 17.85 146.9 20.6 147.95 21.8 151.95 27.6 153.8 32.9 155.8 38.7 156.0 46.25 M140.0 -8.65 Q140.65 -11.8 143.25 -18.8 L146.75 -28.15" fill="none" stroke="#084f2d" stroke-linecap="round" stroke-linejoin="round" stroke-width="2.0"/>
      <path d="M146.2 1.8 L146.2 1.95 146.25 2.25 M155.65 46.2 L154.85 43.5 Q153.4 39.15 151.75 35.9 L146.4 26.2 145.9 25.45 144.95 24.65 Q139.7 20.5 136.25 16.4 133.0 12.5 130.5 8.55 L129.25 6.35 Q128.1 4.3 128.05 2.35 128.9 2.25 130.5 1.3 L131.1 1.0 Q134.8 -1.35 137.7 -4.8 139.15 -6.6 140.0 -8.65" fill="none" stroke="#084f2d" stroke-linecap="round" stroke-linejoin="round" stroke-width="1.5"/>
      <path d="M98.7 5.45 L102.7 6.3 103.85 6.6 108.45 7.85 Q109.1 9.35 109.25 11.45 L109.3 12.7 107.6 13.1 105.1 13.25 103.85 13.2 101.15 12.7 100.65 12.65 Q99.65 11.1 99.1 8.1 L98.7 5.45 M112.75 7.55 L113.95 7.85 115.1 8.2 Q116.5 8.7 117.25 9.25 L117.15 9.5 116.35 11.8 114.8 11.35 114.35 11.15 113.05 10.7 112.75 7.55 M118.5 8.85 L119.9 8.25 Q122.55 7.15 124.3 7.05 L124.55 10.25 122.9 10.95 121.9 11.45 119.65 12.3 118.5 8.85" fill="#f7d511" fill-rule="evenodd" stroke="none"/>
      <path d="M108.45 7.85 L111.05 8.65 111.05 7.45 111.7 7.45 112.75 7.55 113.05 10.7 114.35 11.15 114.8 11.35 116.35 11.8 117.15 9.5 118.5 8.85 119.65 12.3 121.9 11.45 122.9 10.95 124.55 10.25 124.75 13.0 Q124.75 16.7 123.45 18.8 122.35 19.2 120.35 18.05 L120.2 18.0 Q117.1 16.3 115.2 14.85 L114.7 16.05 114.6 16.1 112.5 16.5 112.2 15.35 109.15 19.15 107.3 21.5 Q106.65 22.4 105.35 22.4 102.65 21.05 98.0 15.9 93.4 10.7 92.1 8.35 90.8 6.0 91.65 5.55 92.5 5.0 94.35 4.85 L98.7 5.45 99.1 8.1 Q99.65 11.1 100.65 12.65 L101.15 12.7 103.85 13.2 105.1 13.25 107.6 13.1 109.3 12.7 109.25 11.45 Q109.1 9.35 108.45 7.85 M115.2 14.85 L116.35 11.8 115.2 14.85 M112.2 15.35 L112.15 15.25 111.8 13.8 Q111.15 10.9 111.05 8.65 111.15 10.9 111.8 13.8 L112.15 15.25 112.2 15.35" fill="#e2a50e" fill-rule="evenodd" stroke="none"/>
      <path d="M98.7 5.45 L102.7 6.3 103.85 6.6 108.45 7.85 111.05 8.65 111.05 7.45 111.7 7.45 112.75 7.55 113.95 7.85 115.1 8.2 Q116.5 8.7 117.25 9.25 L117.15 9.5 118.5 8.85 119.9 8.25 Q122.55 7.15 124.3 7.05 L124.55 10.25 124.75 13.0 Q124.75 16.7 123.45 18.8 122.35 19.2 120.35 18.05 L120.2 18.0 Q117.1 16.3 115.2 14.85 L114.7 16.05 114.6 16.1 112.5 16.5 112.2 15.35 109.15 19.15 107.3 21.5 Q106.65 22.4 105.35 22.4 102.65 21.05 98.0 15.9 93.4 10.7 92.1 8.35 90.8 6.0 91.65 5.55 92.5 5.0 94.35 4.85 L98.7 5.45 M116.35 11.8 L117.15 9.5 M111.05 8.65 Q111.15 10.9 111.8 13.8 L112.15 15.25 112.2 15.35 M116.35 11.8 L115.2 14.85" fill="none" stroke="#b46608" stroke-linecap="round" stroke-linejoin="round" stroke-width="1.5"/>
      <path d="M53.6 -35.7 L53.75 -35.7 56.3 -36.15 56.85 -36.25 60.8 -36.7 60.8 -36.35 58.9 -34.25 58.35 -33.75 57.15 -32.55 59.1 -30.85 60.25 -29.8 60.35 -29.65 63.5 -25.7 64.55 -25.6 65.6 -25.5 69.65 -25.0 69.5 -24.25 68.15 -23.65 65.65 -22.7 65.2 -22.55 66.15 -20.3 66.5 -19.3 66.95 -17.65 67.45 -14.9 66.95 -14.85 66.3 -14.75 66.25 -14.75 Q65.9 -14.75 65.1 -15.05 L64.8 -15.2 64.45 -16.4 63.35 -19.1 61.3 -22.75 Q59.6 -25.3 57.8 -27.05 56.2 -28.6 54.45 -29.5 L53.75 -29.8 52.0 -30.4 48.25 -29.55 44.6 -28.35 Q42.9 -28.35 41.15 -29.45 L40.25 -30.1 39.25 -31.1 39.75 -31.4 Q42.95 -33.55 48.75 -36.4 L51.3 -35.2 53.95 -33.65 53.6 -35.7 M67.55 -13.75 L71.8 -10.45 71.6 -10.25 67.75 -10.85 67.55 -13.75 M63.8 2.3 L63.95 2.25 64.75 2.15 70.7 1.45 72.6 1.6 72.75 1.6 73.8 4.55 71.35 5.65 Q68.75 6.65 65.8 7.0 L64.05 7.15 Q64.2 8.05 64.75 8.25 L65.55 8.35 64.75 9.0 64.5 9.8 61.55 11.9 Q61.15 12.15 60.65 12.5 L60.55 12.55 56.6 7.85 60.4 3.4 61.8 4.05 63.5 4.7 63.45 4.1 Q63.45 3.6 63.8 2.3 M67.75 12.0 L66.85 12.2 77.25 22.9 78.7 24.45 78.3 24.55 73.9 25.55 69.75 21.9 Q65.8 18.35 61.75 13.85 L62.45 13.1 64.25 11.05 66.0 11.45 67.75 12.0 M84.95 30.85 L85.05 31.0 87.5 30.6 85.55 33.25 84.5 32.4 84.95 30.85 M88.7 32.4 L96.3 32.4 94.15 37.75 93.75 38.7 87.2 34.5 87.55 33.95 88.7 32.4 M26.25 29.2 L25.85 29.45 24.2 26.75 22.55 23.25 23.6 23.2 25.15 23.0 26.2 22.9 26.35 24.0 26.55 25.2 26.6 26.35 26.25 29.2 M9.05 21.75 L8.95 21.75 8.95 21.5 Q8.5 18.75 8.5 16.9 8.5 15.2 8.85 13.6 L8.95 13.4 9.15 12.7 11.1 14.4 12.85 15.75 11.75 17.65 9.7 20.75 9.05 21.75 M2.1 1.0 L2.1 0.75 Q3.5 0.1 5.55 -0.55 L8.55 -1.45 Q7.9 0.6 7.9 2.25 L7.9 2.4 6.4 2.15 2.1 1.0 M16.55 -23.25 L16.8 -23.75 Q17.5 -25.0 19.2 -26.35 22.85 -29.25 27.4 -30.0 L30.45 -30.25 Q34.95 -30.25 37.3 -27.25 L37.9 -24.4 38.25 -21.6 38.3 -19.7 38.3 -19.1 Q38.25 -14.85 37.6 -12.75 L37.4 -12.05 39.7 -13.7 40.8 -14.6 40.65 -13.2 41.75 -12.75 43.2 -11.9 43.35 -11.85 43.95 -11.45 44.45 -11.0 Q47.35 -8.75 50.8 -4.4 L51.05 -4.1 Q53.05 -1.5 54.4 1.95 L52.55 3.55 50.05 5.65 46.9 3.35 Q43.1 0.1 38.7 -6.35 L36.25 -10.15 Q37.1 -12.8 37.1 -16.3 L36.95 -18.5 Q36.7 -20.4 36.05 -22.25 L35.7 -23.25 34.6 -20.95 34.4 -20.5 Q32.85 -18.85 30.4 -17.45 L29.55 -17.0 Q26.3 -15.35 23.9 -15.35 21.85 -15.35 19.85 -17.0 L19.6 -17.15 Q16.95 -19.3 16.55 -23.25 M26.35 -3.6 L23.8 -2.2 21.95 -1.15 21.35 0.5 21.25 0.7 Q20.3 3.5 20.3 5.85 20.3 10.7 22.25 13.85 23.05 15.25 24.25 16.3 L26.15 17.65 25.6 18.1 24.2 19.1 Q21.7 18.45 19.75 17.25 18.65 16.1 17.7 14.6 15.85 11.7 14.95 8.65 14.0 5.55 14.0 2.15 L14.3 0.25 14.35 0.2 17.25 -2.1 20.35 -4.4 20.75 -4.7 21.95 -5.55 22.45 -5.35 22.85 -5.1 23.2 -4.95 Q23.8 -4.65 24.25 -4.45 L26.35 -3.6 M48.25 17.35 L51.05 14.35 52.1 16.6 Q53.85 19.9 55.85 19.9 L56.75 19.65 57.1 20.0 Q53.1 23.35 51.3 24.25 L49.9 21.3 48.25 17.35 M25.95 -28.45 L25.05 -28.25 24.8 -28.15 24.4 -28.05 23.4 -27.15 Q23.05 -26.55 23.05 -25.95 23.05 -25.05 24.1 -24.75 L25.3 -24.65 Q26.7 -24.65 27.8 -25.6 L28.05 -25.8 Q28.75 -26.5 28.75 -26.95 28.75 -27.65 27.7 -28.1 L25.95 -28.45" fill="#ffdc15" fill-rule="evenodd" stroke="none"/>
      <path d="M48.75 -36.4 L48.9 -36.5 51.95 -35.6 52.25 -35.4 53.6 -35.7 53.95 -33.65 51.3 -35.2 48.75 -36.4 M60.8 -36.35 L60.8 -34.6 60.35 -29.65 60.25 -29.8 59.1 -30.85 57.15 -32.55 58.35 -33.75 58.9 -34.25 60.8 -36.35 M69.5 -24.25 L68.45 -20.75 66.95 -17.65 66.5 -19.3 66.15 -20.3 65.2 -22.55 65.65 -22.7 68.15 -23.65 69.5 -24.25 M67.45 -14.9 L67.55 -13.75 67.75 -10.85 71.6 -10.25 68.55 -7.8 66.5 -6.3 66.3 -5.9 62.7 2.35 62.65 2.55 63.8 2.3 Q63.45 3.6 63.45 4.1 L63.5 4.7 61.8 4.05 60.4 3.4 56.6 7.85 55.45 9.2 55.35 9.3 59.4 13.2 59.55 13.3 60.55 12.55 60.65 12.5 Q61.15 12.15 61.55 11.9 L64.5 9.8 64.75 9.0 65.55 8.35 64.75 8.25 Q64.2 8.05 64.05 7.15 L65.8 7.0 Q68.75 6.65 71.35 5.65 L73.8 4.55 Q74.65 7.3 75.0 10.3 L71.0 11.25 67.75 12.0 66.0 11.45 64.25 11.05 62.45 13.1 61.75 13.85 61.05 14.75 61.4 15.05 64.8 18.3 72.5 25.45 72.75 25.65 74.15 26.95 75.25 26.7 79.4 26.15 80.3 26.1 84.95 30.85 84.5 32.4 84.1 33.5 84.45 33.85 84.85 34.25 84.9 34.15 85.55 33.25 87.5 30.6 88.35 30.45 88.7 32.4 87.55 33.95 87.2 34.5 86.65 35.35 90.15 38.35 90.25 38.45 93.0 40.2 93.75 38.7 94.15 37.75 96.3 32.4 97.15 32.4 97.5 38.8 97.5 40.85 97.2 44.3 96.85 46.95 96.75 47.0 92.0 46.3 86.25 45.0 Q85.1 38.65 84.85 35.55 L83.75 35.9 83.15 36.1 82.6 34.0 79.85 34.65 75.8 32.0 Q74.1 30.75 72.5 29.3 L64.5 22.7 57.75 17.35 57.0 25.25 53.05 27.65 49.5 29.3 47.95 29.45 47.65 29.45 46.95 26.2 Q45.85 20.65 45.85 18.25 L45.9 17.5 41.75 20.3 37.9 22.7 36.9 23.3 36.65 23.4 34.8 23.6 33.65 23.6 32.2 23.5 31.75 23.45 Q31.45 25.1 29.85 26.7 L28.55 27.75 26.25 29.2 26.6 26.35 26.55 25.2 26.35 24.0 26.2 22.9 25.15 23.0 23.6 23.2 22.55 23.25 22.3 22.35 19.9 21.6 18.0 20.95 14.95 21.5 10.2 21.8 9.05 21.75 9.7 20.75 11.75 17.65 12.85 15.75 11.1 14.4 9.15 12.7 9.4 12.05 8.65 10.55 7.9 8.95 6.05 7.1 Q3.2 3.95 2.1 1.0 L6.4 2.15 7.9 2.4 7.9 2.25 Q7.9 0.6 8.55 -1.45 L9.75 -1.7 10.5 -3.25 11.6 -5.3 16.6 -6.0 19.55 -6.35 20.2 -5.4 19.3 -4.85 16.75 -3.2 16.55 -3.1 14.8 -2.0 13.2 -1.0 Q12.95 0.25 12.85 1.45 L12.8 3.05 Q12.8 8.35 14.8 12.0 15.8 13.9 17.35 15.4 L17.6 15.65 18.0 16.0 19.55 17.15 19.75 17.25 Q21.7 18.45 24.2 19.1 L25.6 18.1 26.15 17.65 27.35 18.25 Q29.3 19.05 31.75 19.25 L33.3 19.35 36.95 18.85 40.95 17.65 41.45 17.45 Q43.9 16.8 45.8 15.7 49.0 13.85 52.0 10.2 L46.45 8.55 Q41.65 6.9 38.35 5.25 35.95 3.0 33.65 0.3 L32.7 -0.85 31.0 -3.1 29.9 -4.65 31.65 -7.45 34.0 -11.75 30.4 -9.1 Q27.7 -7.35 25.15 -6.5 L25.05 -6.85 27.65 -8.9 26.85 -8.8 Q25.1 -8.8 20.9 -10.2 18.65 -10.9 17.1 -11.6 L16.7 -13.0 16.25 -15.2 Q15.9 -17.15 15.9 -19.1 L16.3 -22.3 16.55 -23.25 Q16.95 -19.3 19.6 -17.15 L19.85 -17.0 Q21.85 -15.35 23.9 -15.35 26.3 -15.35 29.55 -17.0 L30.4 -17.45 Q32.85 -18.85 34.4 -20.5 L35.15 -21.4 35.4 -21.65 35.45 -21.4 35.55 -21.0 36.1 -18.2 36.15 -17.35 Q36.15 -15.45 35.45 -12.9 L35.15 -12.0 34.65 -10.55 35.7 -8.7 38.2 -4.85 Q40.8 -1.15 43.9 2.0 46.75 4.95 49.15 6.4 50.45 7.25 51.65 7.65 L52.3 7.15 54.55 5.35 56.25 3.9 56.8 3.45 57.25 3.4 58.95 3.15 59.25 2.75 59.9 1.7 60.5 0.65 62.05 -2.05 62.3 -2.5 62.4 -2.8 62.95 -4.2 63.1 -4.65 63.7 -7.25 63.8 -8.35 63.7 -10.2 63.3 -12.35 Q62.8 -14.45 61.75 -16.7 L61.0 -18.15 Q58.6 -22.25 54.6 -23.45 L53.25 -23.75 51.05 -23.95 48.9 -23.8 48.25 -23.8 44.05 -23.25 41.85 -22.7 41.2 -22.55 Q39.35 -22.6 38.0 -26.0 L37.8 -26.55 38.15 -26.0 38.4 -25.45 38.35 -27.1 38.2 -30.35 39.25 -31.1 40.25 -30.1 41.15 -29.45 Q42.9 -28.35 44.6 -28.35 L48.25 -29.55 52.0 -30.4 53.75 -29.8 54.45 -29.5 Q56.2 -28.6 57.8 -27.05 59.6 -25.3 61.3 -22.75 L63.35 -19.1 64.45 -16.4 64.8 -15.2 65.1 -15.05 Q65.9 -14.75 66.25 -14.75 L66.3 -14.75 66.95 -14.85 67.45 -14.9 M48.25 17.35 L49.9 21.3 51.3 24.25 Q53.1 23.35 57.1 20.0 L56.75 19.65 55.85 19.9 Q53.85 19.9 52.1 16.6 L51.05 14.35 48.25 17.35" fill="#fa9600" fill-rule="evenodd" stroke="none"/>
      <path d="M96.75 47.0 L89.85 47.45 88.6 47.4 83.7 46.9 Q83.55 45.95 83.55 43.95 L83.75 38.15 83.1 38.25 82.1 38.4 81.9 37.65 81.85 37.35 81.55 35.8 80.4 35.0 79.85 34.65 82.6 34.0 83.15 36.1 83.75 35.9 84.85 35.55 Q85.1 38.65 86.25 45.0 L92.0 46.3 96.75 47.0 M75.8 32.0 L68.65 27.35 58.8 20.95 58.8 21.8 58.9 26.4 58.95 27.9 53.35 28.85 49.5 29.3 53.05 27.65 57.0 25.25 57.75 17.35 64.5 22.7 72.5 29.3 Q74.1 30.75 75.8 32.0 M19.55 -6.35 L20.35 -6.4 20.45 -6.4 20.2 -6.6 Q18.2 -8.15 17.1 -11.6 18.65 -10.9 20.9 -10.2 25.1 -8.8 26.85 -8.8 L27.65 -8.9 25.05 -6.85 25.15 -6.5 Q27.7 -7.35 30.4 -9.1 L34.0 -11.75 31.65 -7.45 29.9 -4.65 29.55 -5.25 26.95 -3.9 26.8 -3.85 26.6 -3.75 26.35 -3.6 24.25 -4.45 Q23.8 -4.65 23.2 -4.95 L22.85 -5.1 22.45 -5.35 21.95 -5.55 21.65 -5.7 21.15 -6.0 20.85 -5.8 20.2 -5.4 19.55 -6.35 M37.3 -27.25 L37.8 -26.55 38.0 -26.0 Q39.35 -22.6 41.2 -22.55 L41.85 -22.7 44.05 -23.25 48.25 -23.8 48.9 -23.8 Q45.5 -23.4 43.05 -21.75 L42.65 -21.45 41.85 -20.85 41.0 -16.25 40.9 -15.3 40.8 -14.6 39.7 -13.7 37.4 -12.05 37.6 -12.75 Q38.25 -14.85 38.3 -19.1 L38.3 -19.7 38.25 -21.6 37.9 -24.4 37.3 -27.25 M41.45 17.45 L43.85 15.9 44.05 15.7 46.6 13.55 47.65 12.25 47.95 11.9 Q44.85 10.4 41.85 8.15 L38.35 5.25 Q41.65 6.9 46.45 8.55 L52.0 10.2 Q49.0 13.85 45.8 15.7 43.9 16.8 41.45 17.45" fill="#e25600" fill-rule="evenodd" stroke="none"/>
      <path d="M78.7 24.45 L79.8 25.55 80.3 26.1 79.4 26.15 75.25 26.7 74.15 26.95 72.75 25.65 72.5 25.45 64.8 18.3 61.4 15.05 61.05 14.75 61.75 13.85 Q65.8 18.35 69.75 21.9 L73.9 25.55 78.3 24.55 78.7 24.45 M56.8 3.45 L56.25 3.9 54.55 5.35 52.3 7.15 51.65 7.65 Q50.45 7.25 49.15 6.4 46.75 4.95 43.9 2.0 40.8 -1.15 38.2 -4.85 L35.7 -8.7 34.65 -10.55 35.15 -12.0 35.45 -12.9 Q36.15 -15.45 36.15 -17.35 L36.1 -18.2 35.55 -21.0 35.45 -21.4 35.4 -21.65 35.15 -21.4 34.4 -20.5 34.6 -20.95 35.7 -23.25 36.05 -22.25 Q36.7 -20.4 36.95 -18.5 L37.1 -16.3 Q37.1 -12.8 36.25 -10.15 L38.7 -6.35 Q43.1 0.1 46.9 3.35 L50.05 5.65 52.55 3.55 54.4 1.95 54.95 3.7 55.8 3.6 56.25 3.5 56.8 3.45 M60.55 12.55 L59.55 13.3 59.4 13.2 55.35 9.3 55.45 9.2 56.6 7.85 60.55 12.55 M93.75 38.7 L93.0 40.2 90.25 38.45 90.15 38.35 86.65 35.35 87.2 34.5 93.75 38.7 M85.55 33.25 L84.9 34.15 84.85 34.25 84.45 33.85 84.1 33.5 84.5 32.4 85.55 33.25 M25.95 -28.45 L27.7 -28.1 Q28.75 -27.65 28.75 -26.95 28.75 -26.5 28.05 -25.8 L27.8 -25.6 Q26.7 -24.65 25.3 -24.65 L24.1 -24.75 Q23.05 -25.05 23.05 -25.95 23.05 -26.55 23.4 -27.15 L24.4 -28.05 24.8 -28.15 25.05 -28.25 25.95 -28.45 M20.2 -5.4 L20.85 -5.8 21.15 -6.0 21.65 -5.7 21.95 -5.55 20.75 -4.7 20.35 -4.4 17.25 -2.1 14.35 0.2 14.3 0.25 14.0 2.15 Q14.0 5.55 14.95 8.65 15.85 11.7 17.7 14.6 18.65 16.1 19.75 17.25 L19.55 17.15 18.0 16.0 17.6 15.65 17.35 15.4 Q15.8 13.9 14.8 12.0 12.8 8.35 12.8 3.05 L12.85 1.45 Q12.95 0.25 13.2 -1.0 L14.8 -2.0 16.55 -3.1 16.75 -3.2 19.3 -4.85 20.2 -5.4" fill="#fffcf0" fill-rule="evenodd" stroke="none"/>
      <path d="M48.9 -23.8 L51.05 -23.95 53.25 -23.75 54.6 -23.45 Q58.6 -22.25 61.0 -18.15 L61.75 -16.7 Q62.8 -14.45 63.3 -12.35 L63.7 -10.2 63.8 -8.35 63.7 -7.25 63.1 -4.65 62.95 -4.2 62.4 -2.8 62.3 -2.5 62.05 -2.05 60.5 0.65 59.9 1.7 59.25 2.75 58.95 3.15 57.25 3.4 56.8 3.45 56.25 3.5 55.8 3.6 54.95 3.7 54.4 1.95 Q53.05 -1.5 51.05 -4.1 L50.8 -4.4 Q47.35 -8.75 44.45 -11.0 L43.95 -11.45 43.35 -11.85 43.2 -11.9 41.75 -12.75 40.65 -13.2 40.8 -14.6 40.9 -15.3 41.0 -16.25 41.85 -20.85 42.65 -21.45 43.05 -21.75 Q45.5 -23.4 48.9 -23.8 M49.25 -16.4 L50.15 -17.05 50.7 -17.75 50.85 -18.45 Q50.85 -19.2 50.1 -19.75 L50.35 -21.3 50.25 -22.05 Q46.15 -21.7 43.55 -19.5 L43.35 -18.4 42.95 -14.75 43.0 -14.15 45.9 -12.4 46.5 -11.9 Q48.9 -10.1 50.85 -7.6 L52.7 -5.05 53.45 -3.8 Q55.0 -1.05 55.75 1.4 L57.6 1.8 58.65 1.55 60.05 -0.75 61.7 -3.9 60.2 -3.8 56.95 -4.25 Q55.3 -4.7 53.7 -5.6 52.1 -6.45 51.05 -7.6 49.05 -9.8 48.85 -12.95 L48.8 -13.85 49.25 -16.4 M52.15 -18.55 L51.85 -18.45 51.35 -18.2 51.25 -18.15 51.15 -17.85 51.2 -17.65 Q51.25 -17.15 51.65 -16.75 L50.85 -13.8 50.8 -13.35 Q50.8 -9.9 52.85 -7.85 L54.05 -6.9 Q56.2 -5.45 58.4 -5.45 L60.0 -5.8 60.85 -6.1 62.8 -6.8 62.95 -7.35 62.95 -7.6 62.75 -9.7 Q62.35 -12.85 61.3 -15.15 L59.8 -17.65 57.35 -20.0 Q55.6 -21.3 54.0 -21.8 L53.35 -21.95 52.45 -19.3 52.2 -18.6 52.15 -18.55 M33.5 17.55 L36.5 16.8 Q40.3 15.55 45.6 13.0 L44.35 12.25 Q39.85 9.35 35.6 5.45 L33.6 3.5 32.15 2.05 28.65 -1.9 27.45 0.65 27.2 0.5 26.55 0.2 26.75 -0.95 26.7 -1.45 23.4 -0.2 Q22.35 2.05 22.35 5.6 22.35 9.8 23.3 12.55 24.35 15.4 26.5 16.8 25.1 14.25 24.7 11.95 L24.55 11.05 24.45 9.9 Q24.45 6.9 25.65 3.45 L26.3 3.4 Q25.65 5.5 25.65 7.4 25.65 8.55 25.8 9.55 26.0 11.85 26.8 13.6 27.25 14.75 27.95 15.7 L28.15 16.0 Q29.1 17.2 30.3 17.85 L30.75 17.85 33.5 17.55 M38.35 5.25 L41.85 8.15 Q44.85 10.4 47.95 11.9 L47.65 12.25 46.6 13.55 44.05 15.7 43.85 15.9 41.45 17.45 40.95 17.65 36.95 18.85 33.3 19.35 31.75 19.25 Q29.3 19.05 27.35 18.25 L26.15 17.65 24.25 16.3 Q23.05 15.25 22.25 13.85 20.3 10.7 20.3 5.85 20.3 3.5 21.25 0.7 L21.35 0.5 21.95 -1.15 23.8 -2.2 26.35 -3.6 26.6 -3.75 26.8 -3.85 26.95 -3.9 29.55 -5.25 29.9 -4.65 31.0 -3.1 32.7 -0.85 33.65 0.3 Q35.95 3.0 38.35 5.25" fill="#b4f9ff" fill-rule="evenodd" stroke="none"/>
      <path d="M46.7 -17.05 Q46.05 -17.65 46.05 -18.65 L46.35 -19.4 46.5 -19.6 47.35 -19.9 48.6 -20.15 50.05 -19.8 50.1 -19.75 Q50.85 -19.2 50.85 -18.45 L50.7 -17.75 50.15 -17.05 49.25 -16.4 48.4 -16.25 Q47.8 -16.25 47.1 -16.7 L46.7 -17.05 M51.65 -16.75 Q51.25 -17.15 51.2 -17.65 L51.15 -17.85 51.25 -18.15 51.35 -18.2 51.85 -18.45 52.15 -18.55 52.35 -18.55 53.15 -18.3 Q53.6 -18.0 53.6 -17.5 L53.55 -17.15 53.4 -16.85 Q53.0 -16.4 52.4 -16.4 52.0 -16.4 51.65 -16.75 M26.3 3.4 L25.65 3.45 24.7 3.15 24.6 3.05 24.15 2.6 23.9 1.75 24.1 0.8 24.35 0.4 25.85 0.1 26.55 0.2 27.2 0.5 27.45 0.65 Q28.0 1.05 28.0 1.75 L28.0 1.85 27.8 2.35 27.5 2.7 Q27.05 3.2 26.3 3.4 M30.7 2.6 L30.9 3.15 Q30.9 3.55 30.5 3.95 30.0 4.4 29.5 4.4 L29.05 4.25 28.7 3.7 28.45 3.2 Q28.45 2.95 28.6 2.7 L28.65 2.6 28.75 2.4 29.6 2.25 29.85 2.25 30.5 2.45 30.7 2.6" fill="#ffffff" fill-rule="evenodd" stroke="none"/>
      <path d="M50.1 -19.75 L50.05 -19.8 48.6 -20.15 47.35 -19.9 46.5 -19.6 46.35 -19.4 46.05 -18.65 Q46.05 -17.65 46.7 -17.05 L46.45 -16.5 Q45.85 -14.9 45.85 -13.85 L45.9 -12.4 43.0 -14.15 42.95 -14.75 43.35 -18.4 43.55 -19.5 Q46.15 -21.7 50.25 -22.05 L50.35 -21.3 50.1 -19.75 M52.45 -19.3 L53.35 -21.95 54.0 -21.8 Q55.6 -21.3 57.35 -20.0 L59.8 -17.65 61.3 -15.15 Q62.35 -12.85 62.75 -9.7 62.2 -8.25 61.15 -7.0 L60.0 -5.8 58.4 -5.45 Q56.2 -5.45 54.05 -6.9 L52.85 -7.85 Q55.0 -8.45 56.65 -10.25 58.65 -12.45 58.65 -14.35 58.65 -15.65 57.75 -16.75 L55.9 -18.1 Q54.15 -19.1 52.45 -19.3 M53.45 -3.8 L52.7 -5.05 50.85 -7.6 51.05 -7.6 Q52.1 -6.45 53.7 -5.6 55.3 -4.7 56.95 -4.25 L53.6 -3.8 53.45 -3.8 M33.5 17.55 L30.75 17.85 30.3 17.85 Q29.1 17.2 28.15 16.0 L27.95 15.7 Q27.25 14.75 26.8 13.6 L28.25 13.85 Q30.55 13.85 32.4 11.85 34.15 10.0 34.15 8.05 34.15 4.75 31.45 3.05 L31.4 3.0 30.7 2.6 30.5 2.45 29.85 2.25 28.0 1.85 28.0 1.75 Q28.0 1.05 27.45 0.65 L28.65 -1.9 32.15 2.05 33.6 3.5 35.6 5.45 36.3 7.85 Q37.55 7.95 38.2 8.8 38.8 9.45 38.8 10.25 38.8 11.95 35.85 13.9 L35.65 14.1 Q34.85 16.0 33.5 17.55 M24.7 11.95 Q25.1 14.25 26.5 16.8 24.35 15.4 23.3 12.55 22.35 9.8 22.35 5.6 22.35 2.05 23.4 -0.2 L26.7 -1.45 26.75 -0.95 26.55 0.2 25.85 0.1 24.35 0.4 24.1 0.8 23.9 1.75 24.15 2.6 24.6 3.05 24.4 3.25 Q23.45 4.75 23.45 6.95 23.45 9.6 24.3 11.35 L24.7 11.95" fill="#0798d7" fill-rule="evenodd" stroke="none"/>
      <path d="M46.7 -17.05 L47.1 -16.7 Q47.8 -16.25 48.4 -16.25 L49.25 -16.4 48.8 -13.85 48.85 -12.95 Q49.05 -9.8 51.05 -7.6 L50.85 -7.6 Q48.9 -10.1 46.5 -11.9 L45.9 -12.4 45.85 -13.85 Q45.85 -14.9 46.45 -16.5 L46.7 -17.05 M52.15 -18.55 L52.2 -18.6 52.45 -19.3 Q54.15 -19.1 55.9 -18.1 L57.75 -16.75 Q58.65 -15.65 58.65 -14.35 58.65 -12.45 56.65 -10.25 55.0 -8.45 52.85 -7.85 50.8 -9.9 50.8 -13.35 L50.85 -13.8 51.65 -16.75 Q52.0 -16.4 52.4 -16.4 53.0 -16.4 53.4 -16.85 L53.55 -17.15 53.6 -17.5 Q53.6 -18.0 53.15 -18.3 L52.35 -18.55 52.15 -18.55 M26.8 13.6 Q26.0 11.85 25.8 9.55 25.65 8.55 25.65 7.4 25.65 5.5 26.3 3.4 27.05 3.2 27.5 2.7 L27.8 2.35 28.0 1.85 29.85 2.25 29.6 2.25 28.75 2.4 28.65 2.6 28.6 2.7 Q28.45 2.95 28.45 3.2 L28.7 3.7 29.05 4.25 29.5 4.4 Q30.0 4.4 30.5 3.95 30.9 3.55 30.9 3.15 L30.7 2.6 31.4 3.0 31.45 3.05 Q34.15 4.75 34.15 8.05 34.15 10.0 32.4 11.85 30.55 13.85 28.25 13.85 L26.8 13.6 M25.65 3.45 Q24.45 6.9 24.45 9.9 L24.55 11.05 24.7 11.95 24.3 11.35 Q23.45 9.6 23.45 6.95 23.45 4.75 24.4 3.25 L24.6 3.05 24.7 3.15 25.65 3.45" fill="#0365bd" fill-rule="evenodd" stroke="none"/>
      <path d="M62.75 -9.7 L62.95 -7.6 62.95 -7.35 62.8 -6.8 60.85 -6.1 60.0 -5.8 61.15 -7.0 Q62.2 -8.25 62.75 -9.7 M56.95 -4.25 L60.2 -3.8 61.7 -3.9 60.05 -0.75 58.65 1.55 57.6 1.8 55.75 1.4 Q55.0 -1.05 53.45 -3.8 L53.6 -3.8 56.95 -4.25 M35.6 5.45 Q39.85 9.35 44.35 12.25 L45.6 13.0 Q40.3 15.55 36.5 16.8 L33.5 17.55 Q34.85 16.0 35.65 14.1 L35.85 13.9 Q38.8 11.95 38.8 10.25 38.8 9.45 38.2 8.8 37.55 7.95 36.3 7.85 L35.6 5.45" fill="#12e7f7" fill-rule="evenodd" stroke="none"/>
      <path d="M48.75 -36.4 L48.9 -36.5 51.95 -35.6 52.25 -35.4 53.6 -35.7 53.75 -35.7 56.3 -36.15 56.85 -36.25 60.8 -36.7 60.8 -36.35 60.8 -34.6 60.35 -29.65 63.5 -25.7 64.55 -25.6 65.6 -25.5 69.65 -25.0 69.5 -24.25 68.45 -20.75 66.95 -17.65 67.45 -14.9 67.55 -13.75 71.8 -10.45 71.6 -10.25 68.55 -7.8 66.5 -6.3 66.3 -5.9 62.7 2.35 62.65 2.55 63.8 2.3 63.95 2.25 64.75 2.15 70.7 1.45 72.6 1.6 72.75 1.6 73.8 4.55 Q74.65 7.3 75.0 10.3 L71.0 11.25 67.75 12.0 66.85 12.2 77.25 22.9 78.7 24.45 79.8 25.55 80.3 26.1 84.95 30.85 85.05 31.0 87.5 30.6 88.35 30.45 88.7 32.4 96.3 32.4 97.15 32.4 97.5 38.8 97.5 40.85 97.2 44.3 96.85 46.95 96.75 47.0 89.85 47.45 88.6 47.4 83.7 46.9 Q83.55 45.95 83.55 43.95 L83.75 38.15 83.1 38.25 82.1 38.4 81.9 37.65 81.85 37.35 81.55 35.8 80.4 35.0 79.85 34.65 75.8 32.0 68.65 27.35 58.8 20.95 58.8 21.8 58.9 26.4 58.95 27.9 53.35 28.85 49.5 29.3 47.95 29.45 47.65 29.45 46.95 26.2 Q45.85 20.65 45.85 18.25 L45.9 17.5 41.75 20.3 37.9 22.7 36.9 23.3 M39.75 -31.4 Q42.95 -33.55 48.75 -36.4 M48.9 -23.8 L51.05 -23.95 53.25 -23.75 54.6 -23.45 Q58.6 -22.25 61.0 -18.15 L61.75 -16.7 Q62.8 -14.45 63.3 -12.35 L63.7 -10.2 63.8 -8.35 63.7 -7.25 63.1 -4.65 62.95 -4.2 62.4 -2.8 62.3 -2.5 62.05 -2.05 60.5 0.65 59.9 1.7 59.25 2.75 58.95 3.15 57.25 3.4 56.8 3.45 56.25 3.5 55.8 3.6 54.95 3.7 54.4 1.95 Q53.05 -1.5 51.05 -4.1 L50.8 -4.4 Q47.35 -8.75 44.45 -11.0 L43.95 -11.45 43.35 -11.85 43.2 -11.9 41.75 -12.75 40.65 -13.2 40.8 -14.6 40.9 -15.3 41.0 -16.25 41.85 -20.85 42.65 -21.45 43.05 -21.75 Q45.5 -23.4 48.9 -23.8 M38.35 5.25 L41.85 8.15 Q44.85 10.4 47.95 11.9 L47.65 12.25 46.6 13.55 44.05 15.7 43.85 15.9 41.45 17.45 40.95 17.65 36.95 18.85 33.3 19.35 31.75 19.25 Q29.3 19.05 27.35 18.25 L26.15 17.65 24.25 16.3 Q23.05 15.25 22.25 13.85 20.3 10.7 20.3 5.85 20.3 3.5 21.25 0.7 L21.35 0.5 21.95 -1.15 23.8 -2.2 26.35 -3.6 26.6 -3.75 26.8 -3.85 26.95 -3.9 29.55 -5.25 29.9 -4.65 31.0 -3.1 32.7 -0.85 33.65 0.3 Q35.95 3.0 38.35 5.25" fill="none" stroke="#bf3400" stroke-linecap="round" stroke-linejoin="round" stroke-width="1.5"/>
      <path d="M36.9 23.3 L36.65 23.4 34.8 23.6 33.65 23.6 32.2 23.5 31.75 23.45 Q31.45 25.1 29.85 26.7 L28.55 27.75 26.25 29.2 25.85 29.45 24.2 26.75 22.55 23.25 22.3 22.35 19.9 21.6 18.0 20.95 14.95 21.5 10.2 21.8 9.05 21.75 8.95 21.75 8.95 21.5 Q8.5 18.75 8.5 16.9 8.5 15.2 8.85 13.6 L8.95 13.4 9.15 12.7 9.4 12.05 8.65 10.55 7.9 8.95 6.05 7.1 Q3.2 3.95 2.1 1.0 L2.1 0.75 Q3.5 0.1 5.55 -0.55 L8.55 -1.45 9.75 -1.7 10.5 -3.25 11.6 -5.3 16.6 -6.0 19.55 -6.35 20.35 -6.4 20.45 -6.4 20.2 -6.6 Q18.2 -8.15 17.1 -11.6 L16.7 -13.0 16.25 -15.2 Q15.9 -17.15 15.9 -19.1 L16.3 -22.3 16.55 -23.25 16.8 -23.75 Q17.5 -25.0 19.2 -26.35 22.85 -29.25 27.4 -30.0 L30.45 -30.25 Q34.95 -30.25 37.3 -27.25 L37.8 -26.55 38.15 -26.0 38.4 -25.45 38.35 -27.1 38.2 -30.35 39.25 -31.1 39.75 -31.4" fill="none" stroke="#bf3400" stroke-linecap="round" stroke-linejoin="round" stroke-width="2.5"/>
      <path d="M75.0 28.3 Q75.45 27.9 75.95 27.65 77.35 26.75 79.75 26.7 80.5 26.7 81.15 27.05 L81.4 27.2 Q82.0 28.25 82.4 30.0 L82.7 32.0 79.9 30.75 78.8 30.2 75.0 28.3" fill="#e99a22" fill-rule="evenodd" stroke="none"/>
      <path d="M82.7 32.0 L82.8 33.45 Q82.8 34.75 82.25 35.6 L81.3 36.0 Q80.05 34.7 78.4 33.7 L77.7 33.3 Q75.3 31.85 72.75 31.15 L73.35 30.15 Q74.1 29.1 75.0 28.3 L78.8 30.2 79.9 30.75 82.7 32.0" fill="#f6b745" fill-rule="evenodd" stroke="none"/>
      <path d="M81.3 36.0 L80.1 36.2 Q78.5 36.2 77.0 35.5 L75.9 34.95 Q73.85 33.6 72.7 31.3 L72.75 31.15 Q75.3 31.85 77.7 33.3 L78.4 33.7 Q80.05 34.7 81.3 36.0" fill="#ffd894" fill-rule="evenodd" stroke="none"/>
      <path d="M75.0 28.3 Q75.45 27.9 75.95 27.65 77.35 26.75 79.75 26.7 80.5 26.7 81.15 27.05 L81.4 27.2 Q82.0 28.25 82.4 30.0 L82.7 32.0 82.8 33.45 Q82.8 34.75 82.25 35.6 L81.3 36.0 80.1 36.2 Q78.5 36.2 77.0 35.5 L75.9 34.95 Q73.85 33.6 72.7 31.3 L72.75 31.15 73.35 30.15 Q74.1 29.1 75.0 28.3 Z" fill="none" stroke="#b46608" stroke-linecap="round" stroke-linejoin="round" stroke-width="1.5"/>
    </g>
    <g id="shape2" transform="matrix(1.0, 0.0, 0.0, 1.0, 0.0, 0.0)">
      <path d="M50.5 0.0 Q53.95 0.0 53.95 3.3 L53.95 50.15 Q53.95 53.4 50.5 53.4 L3.3 53.4 Q0.0 53.4 0.0 50.15 L0.0 3.3 Q0.0 0.0 3.3 0.0 L50.5 0.0" fill="#000000" fill-opacity="0.003921569" fill-rule="evenodd" stroke="none"/>
    </g>
  </defs>
</svg>
