<?xml version="1.0" encoding="UTF-8" standalone="no"?>
<svg xmlns:ffdec="https://www.free-decompiler.com/flash" xmlns:xlink="http://www.w3.org/1999/xlink" ffdec:objectType="frame" height="81.75px" width="79.85px" xmlns="http://www.w3.org/2000/svg">
  <g transform="matrix(1.0, 0.0, 0.0, 1.0, 13.95, 24.85)">
    <clipPath id="clipPath0" transform="matrix(1.0, 0.0, 0.0, 1.0, 0.0, 0.0)">
      <path d="M50.5 0.0 Q53.95 0.0 53.95 3.3 L53.95 50.15 Q53.95 53.4 50.5 53.4 L3.3 53.4 Q0.0 53.4 0.0 50.15 L0.0 3.3 Q0.0 0.0 3.3 0.0 L50.5 0.0" fill="#000000" fill-rule="evenodd" stroke="none"/>
    </clipPath>
    <g clip-path="url(#clipPath0)">
      <use ffdec:characterId="3" height="160.9" transform="matrix(0.5082, 0.0, 0.0, 0.5082, -13.9253, -24.8601)" width="157.05" xlink:href="#sprite0"/>
    </g>
    <use ffdec:characterId="4" height="53.4" transform="matrix(1.0, 0.0, 0.0, 1.0, 0.0, 0.0)" width="53.95" xlink:href="#shape2"/>
  </g>
  <defs>
    <g id="sprite0" transform="matrix(1.0, 0.0, 0.0, 1.0, -70.4, -56.95)">
      <use ffdec:characterId="2" height="160.9" transform="matrix(1.0, 0.0, 0.0, 1.0, 70.4, 56.95)" width="157.05" xlink:href="#shape1"/>
    </g>
    <g id="shape1" transform="matrix(1.0, 0.0, 0.0, 1.0, -70.4, -56.95)">
      <path d="M125.85 213.1 L126.15 212.3 126.7 208.5 126.95 204.85 Q127.1 201.35 123.8 197.7 119.0 192.4 109.2 191.65 L108.45 191.6 Q100.3 191.2 94.4 193.9 87.15 197.2 86.8 204.25 L86.85 206.45 87.1 208.7 87.4 210.0 79.3 213.1 70.9 213.1 75.7 211.55 75.75 211.55 84.0 208.45 83.65 207.65 83.15 206.25 Q82.3 203.6 82.45 201.05 83.0 190.95 92.4 185.35 99.5 181.2 109.2 180.85 L113.7 180.85 Q124.85 181.45 130.45 188.05 135.25 193.7 134.8 201.6 134.75 203.35 132.25 208.75 L132.25 208.8 130.1 213.1 125.85 213.1" fill="#ffe107" fill-rule="evenodd" stroke="none"/>
      <path d="M79.3 213.1 L87.4 210.0 87.1 208.7 86.85 206.45 86.8 204.25 Q87.15 197.2 94.4 193.9 100.3 191.2 108.45 191.6 L109.2 191.65 Q119.0 192.4 123.8 197.7 127.1 201.35 126.95 204.85 L126.7 208.5 126.15 212.3 125.85 213.1 123.95 213.1 124.1 211.95 Q124.3 207.75 121.4 203.15 117.2 196.5 108.7 196.05 101.85 195.7 96.95 198.7 91.9 201.95 91.6 207.4 L91.55 209.05 81.05 213.1 79.3 213.1" fill="#0041d2" fill-rule="evenodd" stroke="none"/>
      <path d="M81.05 213.1 L91.55 209.05 91.6 207.4 Q91.9 201.95 96.95 198.7 101.85 195.7 108.7 196.05 117.2 196.5 121.4 203.15 124.3 207.75 124.1 211.95 L123.95 213.1 81.05 213.1" fill="#117bf0" fill-rule="evenodd" stroke="none"/>
      <path d="M130.1 213.1 L132.25 208.8 132.25 208.75 Q134.75 203.35 134.8 201.6 135.25 193.7 130.45 188.05 124.85 181.45 113.7 180.85 L109.2 180.85 Q99.5 181.2 92.4 185.35 83.0 190.95 82.45 201.05 82.3 203.6 83.15 206.25 L83.65 207.65 84.0 208.45 75.75 211.55 75.7 211.55 70.9 213.1" fill="none" stroke="#d93b00" stroke-linecap="round" stroke-linejoin="round" stroke-width="1.0"/>
      <path d="M204.75 103.15 L204.8 103.1 204.85 103.1 204.75 103.15 M208.5 114.65 L208.5 118.5 204.75 117.85 203.5 117.75 202.25 117.85 200.65 118.0 199.6 118.2 199.3 118.25 197.5 118.75 Q195.4 119.4 193.2 120.45 L191.1 121.7 195.4 116.25 193.9 115.85 190.8 115.1 Q198.15 113.15 203.95 113.35 L208.5 114.65 M183.85 190.8 L181.8 191.35 Q185.25 192.65 190.95 197.3 L189.6 196.65 Q186.6 195.3 184.25 194.65 178.05 192.95 172.35 194.55 L169.85 195.55 Q167.65 196.65 166.15 198.1 L161.1 197.05 157.45 196.35 155.0 195.85 156.15 197.05 152.55 195.15 152.5 196.5 Q155.45 199.65 159.55 203.45 165.3 208.7 167.9 210.0 L170.3 209.5 173.15 208.9 172.7 206.45 172.5 204.8 172.6 204.6 Q175.65 206.4 181.55 212.65 L183.6 214.9 179.25 213.4 Q172.95 211.6 169.1 212.35 166.05 212.85 163.05 215.25 L162.5 214.6 Q158.8 210.75 154.7 204.8 L154.25 204.1 152.15 200.95 149.5 196.5 143.7 191.6 Q143.75 193.35 144.65 200.0 L145.55 206.6 137.95 196.75 139.65 192.85 139.8 192.4 140.1 193.0 142.9 198.0 142.8 194.3 142.7 191.15 Q143.1 190.45 143.9 189.85 L143.95 189.7 151.9 194.0 151.95 193.0 151.95 192.1 154.45 192.1 155.75 192.1 153.6 187.25 Q156.05 188.8 158.4 189.7 L160.3 189.4 161.3 189.2 164.85 191.0 167.3 192.25 166.75 191.25 165.85 189.45 165.7 189.15 166.05 189.1 169.45 189.2 171.5 189.4 183.85 190.8" fill="#b0001b" fill-rule="evenodd" stroke="none"/>
      <path d="M208.5 118.5 L208.5 123.5 207.5 121.9 206.1 119.85 204.75 117.85 208.5 118.5 M208.5 128.05 L208.5 133.65 203.55 135.1 208.5 128.05" fill="#ba050e" fill-rule="evenodd" stroke="none"/>
      <path d="M169.95 132.15 L169.85 131.5 169.35 129.65 171.4 129.4 173.95 128.9 171.9 130.5 171.6 130.85 169.95 132.15 M163.65 121.7 Q163.35 118.95 163.3 115.85 163.3 111.2 163.75 108.45 L168.05 103.1 189.1 103.1 188.9 103.85 185.05 108.25 177.65 116.15 Q173.65 119.7 170.25 121.25 L170.1 121.0 Q169.35 119.9 168.5 119.6 165.7 118.85 163.65 121.7 M188.5 128.85 L188.8 128.85 188.85 128.85 189.5 128.95 192.2 129.5 192.35 129.45 192.6 129.5 193.15 129.55 Q195.8 129.6 200.45 128.25 L204.45 126.95 200.4 130.0 198.3 131.5 192.15 135.45 191.95 135.5 191.4 135.75 Q189.65 136.7 188.2 137.1 L188.95 137.95 190.85 139.45 191.1 139.65 191.75 140.1 196.1 142.7 192.5 145.4 191.5 146.15 Q191.25 146.25 191.1 146.5 L189.35 147.7 187.5 148.95 187.0 149.25 186.15 149.85 187.3 150.4 187.9 150.65 189.65 153.4 Q190.55 153.8 191.75 154.55 L194.55 156.5 190.25 155.9 188.15 157.9 187.05 157.25 187.0 157.15 186.45 156.8 183.0 155.7 181.85 155.4 Q179.35 154.65 177.0 154.45 L175.85 152.6 180.05 150.7 184.45 149.2 187.65 147.45 189.0 146.65 190.95 145.45 188.75 145.45 188.6 145.35 187.9 145.4 184.8 145.25 181.95 144.75 180.85 144.55 Q181.25 144.2 181.55 144.0 L180.35 141.85 178.9 139.5 183.0 135.25 181.25 135.0 185.3 131.5 188.5 128.85 M178.4 127.6 Q176.9 126.55 175.25 126.1 L174.75 126.05 180.95 124.1 185.35 122.9 183.95 124.2 182.35 125.9 179.65 128.75 178.4 127.6 M176.9 145.5 L176.3 144.55 177.7 145.25 178.25 145.5 178.85 145.85 182.45 147.55 180.0 147.95 178.55 148.0 177.95 147.15 177.6 146.6 177.1 145.85 176.9 145.5 M183.85 135.25 L183.25 136.15 181.75 138.55 182.8 138.65 183.9 138.75 188.9 133.1 184.35 134.3 183.85 135.25 M188.1 141.2 L186.75 140.75 186.65 140.75 186.0 141.4 184.55 143.15 186.75 142.9 188.1 142.8 191.4 142.3 188.1 141.2 M182.95 159.15 L186.3 161.35 180.55 161.0 179.2 158.5 180.05 158.25 181.25 157.95 182.95 159.15 M180.0 164.4 L185.3 165.6 182.2 166.7 179.05 167.6 178.65 167.65 177.3 167.05 175.2 166.1 176.2 165.35 177.9 164.05 180.0 164.4" fill="#e83807" fill-rule="evenodd" stroke="none"/>
      <path d="M170.05 132.3 L169.95 132.15 171.6 130.85 171.9 130.5 173.95 128.9 171.4 129.4 169.35 129.65 169.15 129.0 168.45 128.5 167.1 127.7 Q165.5 126.85 164.4 126.65 163.9 124.25 163.65 121.7 165.7 118.85 168.5 119.6 169.35 119.9 170.1 121.0 L170.25 121.25 Q173.65 119.7 177.65 116.15 L185.05 108.25 188.9 103.85 189.1 103.1 191.8 103.1 189.7 106.85 185.7 113.75 185.2 114.55 184.7 115.3 183.7 116.9 183.3 117.5 182.5 118.6 181.6 119.9 182.5 120.35 184.65 121.1 187.2 121.6 188.85 121.7 188.55 122.0 186.9 123.95 185.05 125.75 185.9 125.45 187.2 124.95 187.95 124.8 Q188.45 124.55 188.9 124.35 L189.05 124.25 189.7 124.1 192.95 122.6 193.15 122.55 193.05 122.6 189.3 126.75 188.9 127.1 187.4 128.55 180.5 134.45 180.05 134.85 180.0 134.9 179.2 135.5 174.6 138.65 Q173.95 138.9 173.4 139.3 L173.65 138.55 174.05 136.55 174.5 134.3 171.65 133.1 170.05 132.3 M178.4 127.6 L179.65 128.75 182.35 125.9 183.95 124.2 185.35 122.9 180.95 124.1 174.75 126.05 175.25 126.1 Q176.9 126.55 178.4 127.6" fill="#ff6211" fill-rule="evenodd" stroke="none"/>
      <path d="M202.95 103.1 L201.7 104.6 Q203.3 103.75 204.75 103.15 L204.85 103.1 208.5 103.1 208.5 106.85 Q204.2 107.9 198.65 109.7 L197.5 110.05 193.85 111.25 186.75 113.85 185.2 114.55 185.7 113.75 189.7 106.85 191.8 103.1 202.95 103.1 M208.5 123.5 L208.5 128.05 203.55 135.1 202.25 135.45 200.1 135.95 194.0 137.05 199.1 132.8 206.6 125.75 203.35 126.5 Q196.7 127.95 193.55 128.05 L193.35 128.0 192.75 127.95 191.4 127.65 190.3 127.45 190.1 127.35 195.7 120.75 Q194.0 121.6 191.4 122.5 L189.05 123.4 187.9 123.65 189.6 120.9 188.8 120.75 186.65 120.35 Q184.7 119.75 183.6 119.2 L183.3 119.1 184.0 117.95 185.35 115.75 187.25 117.0 188.45 117.75 190.6 119.1 190.95 119.2 191.25 119.25 190.3 120.75 190.25 121.0 190.0 121.25 189.0 123.05 188.95 123.1 189.0 123.1 Q189.95 122.35 191.0 121.75 L191.1 121.7 193.2 120.45 Q195.4 119.4 197.5 118.75 L199.3 118.25 199.6 118.2 200.65 118.0 202.25 117.85 203.5 117.75 204.75 117.85 206.1 119.85 207.5 121.9 208.5 123.5" fill="#d92300" fill-rule="evenodd" stroke="none"/>
      <path d="M202.95 103.1 L204.8 103.1 204.75 103.15 Q203.3 103.75 201.7 104.6 L202.95 103.1 M208.5 106.85 L208.5 114.65 203.95 113.35 Q198.15 113.15 190.8 115.1 L193.9 115.85 195.4 116.25 191.1 121.7 191.0 121.75 Q189.95 122.35 189.0 123.1 L188.95 123.1 189.0 123.05 190.0 121.25 190.25 121.0 190.3 120.75 191.25 119.25 190.95 119.2 190.6 119.1 188.45 117.75 187.25 117.0 185.35 115.75 184.0 117.95 183.3 119.1 183.6 119.2 Q184.7 119.75 186.65 120.35 L188.8 120.75 189.6 120.9 187.9 123.65 189.05 123.4 191.4 122.5 Q194.0 121.6 195.7 120.75 L190.1 127.35 190.3 127.45 191.4 127.65 192.75 127.95 193.35 128.0 193.55 128.05 Q196.7 127.95 203.35 126.5 L206.6 125.75 199.1 132.8 194.0 137.05 200.1 135.95 202.25 135.45 203.55 135.1 202.9 135.95 205.95 138.35 208.3 140.7 204.25 146.4 201.8 149.75 Q197.4 151.4 194.9 151.2 L187.9 150.65 188.55 150.9 192.05 152.55 192.35 152.6 197.45 154.85 198.2 155.3 Q200.7 156.8 203.65 157.75 L200.6 160.75 199.4 161.8 200.4 162.15 206.3 163.45 207.65 163.75 205.95 164.8 201.3 163.8 Q196.4 162.4 190.85 159.4 L188.15 157.9 190.25 155.9 194.55 156.5 191.75 154.55 Q190.55 153.8 189.65 153.4 L187.9 150.65 187.3 150.4 186.15 149.85 187.0 149.25 187.5 148.95 189.35 147.7 191.1 146.5 Q191.25 146.25 191.5 146.15 L192.5 145.4 196.1 142.7 191.75 140.1 191.1 139.65 190.85 139.45 188.95 137.95 188.2 137.1 Q189.65 136.7 191.4 135.75 L191.95 135.5 192.15 135.45 198.3 131.5 200.4 130.0 204.45 126.95 200.45 128.25 Q195.8 129.6 193.15 129.55 L192.6 129.5 192.35 129.45 192.2 129.5 189.5 128.95 188.85 128.85 188.8 128.85 188.5 128.85 187.4 128.55 188.9 127.1 189.3 126.75 193.05 122.6 193.15 122.55 192.95 122.6 189.7 124.1 189.05 124.25 188.9 124.35 Q188.45 124.55 187.95 124.8 L187.2 124.95 185.9 125.45 185.05 125.75 186.9 123.95 188.55 122.0 188.85 121.7 187.2 121.6 184.65 121.1 182.5 120.35 181.6 119.9 182.5 118.6 183.3 117.5 183.7 116.9 184.7 115.3 185.2 114.55 186.75 113.85 193.85 111.25 197.5 110.05 198.65 109.7 Q204.2 107.9 208.5 106.85 M179.8 176.6 L176.7 175.9 176.6 175.85 176.7 176.0 177.25 176.45 Q179.2 178.25 180.9 179.35 L181.1 179.55 184.0 181.15 179.9 182.7 177.7 183.3 177.8 184.15 175.8 184.4 175.1 181.3 173.65 176.2 174.15 175.9 175.6 175.5 174.75 173.0 177.2 173.05 178.9 173.0 Q183.4 172.65 186.65 171.15 L186.75 172.0 185.05 172.75 182.25 173.85 178.85 174.4 179.8 176.6" fill="#cd1600" fill-rule="evenodd" stroke="none"/>
      <path d="M208.5 133.65 L208.5 133.75 208.3 133.8 208.5 133.8 208.5 146.45 207.45 147.35 206.45 148.25 208.1 150.3 208.5 150.8 208.5 154.55 203.85 154.85 Q200.25 155.05 197.45 154.8 L197.45 154.85 192.35 152.6 192.05 152.55 188.55 150.9 187.9 150.65 194.9 151.2 Q197.4 151.4 201.8 149.75 L204.25 146.4 208.3 140.7 205.95 138.35 202.9 135.95 203.55 135.1 208.5 133.65 M205.95 164.8 Q201.8 167.05 197.0 167.95 L189.9 168.55 189.15 168.15 188.8 167.95 189.05 168.45 188.4 168.35 192.2 170.8 Q195.25 172.65 198.65 173.65 193.25 177.1 186.75 177.3 L179.8 176.6 178.85 174.4 182.25 173.85 185.05 172.75 186.75 172.0 186.65 171.15 186.6 168.0 186.35 165.8 186.2 165.2 186.15 164.5 186.65 165.0 187.0 165.35 186.95 165.0 187.0 162.8 188.3 163.7 188.95 164.1 187.4 158.45 187.0 157.15 187.05 157.25 188.15 157.9 190.85 159.4 Q196.4 162.4 201.3 163.8 L205.95 164.8" fill="#c10f0f" fill-rule="evenodd" stroke="none"/>
      <path d="M189.9 168.55 L189.05 168.45 188.8 167.95 189.15 168.15 189.9 168.55 M137.95 196.75 Q137.75 196.65 137.7 196.4 132.45 189.15 128.75 182.8 L127.55 180.65 128.45 178.0 128.8 177.25 135.4 177.9 137.75 177.8 138.3 178.6 Q137.7 178.95 136.95 179.45 L138.3 179.7 138.75 179.25 139.7 180.85 138.6 182.7 Q139.7 184.15 140.75 184.9 L138.75 190.15 139.65 192.85 137.95 196.75 M132.5 166.05 L136.95 152.65 140.15 150.4 143.9 147.3 144.8 146.4 146.9 152.7 146.65 153.0 142.9 157.7 139.3 162.45 137.95 164.2 136.7 164.35 135.7 164.55 135.7 164.7 135.55 165.8 132.5 166.05 M187.4 128.55 L188.5 128.85 185.3 131.5 181.25 135.0 183.0 135.25 178.9 139.5 180.35 141.85 181.55 144.0 Q181.25 144.2 180.85 144.55 L181.95 144.75 184.8 145.25 187.9 145.4 188.6 145.35 188.75 145.45 190.95 145.45 189.0 146.65 187.65 147.45 184.45 149.2 180.05 150.7 175.85 152.6 177.0 154.45 Q179.35 154.65 181.85 155.4 L183.0 155.7 186.45 156.8 187.0 157.15 187.4 158.45 188.95 164.1 188.3 163.7 187.0 162.8 186.95 165.0 187.0 165.35 186.65 165.0 186.15 164.5 186.2 165.2 186.35 165.8 186.6 168.0 186.65 171.15 Q183.4 172.65 178.9 173.0 L177.2 173.05 174.75 173.0 175.6 175.5 174.15 175.9 173.65 176.2 175.1 181.3 175.8 184.4 173.75 184.55 172.6 184.6 171.2 184.6 171.65 185.9 172.4 187.55 170.8 187.2 170.4 187.05 Q167.85 186.35 164.7 184.25 L162.45 184.1 162.15 184.0 158.6 184.25 156.1 184.85 155.45 184.25 154.7 183.7 152.35 184.65 152.55 186.35 152.6 188.35 152.7 189.05 150.55 188.85 150.25 188.85 150.2 189.0 150.15 189.4 149.85 190.7 148.9 190.55 146.6 190.1 143.45 188.95 142.15 190.85 142.1 193.75 140.65 191.85 Q141.65 189.55 142.35 188.2 L146.3 188.85 148.75 189.0 148.5 187.1 151.95 186.4 149.8 180.1 152.85 181.05 158.55 182.55 Q161.7 182.15 167.3 179.8 L170.55 178.25 166.15 176.15 172.05 173.4 Q176.85 171.3 179.05 169.65 177.05 169.05 169.95 165.95 L170.25 165.95 Q171.6 165.4 173.0 165.0 L173.7 164.7 175.55 163.9 Q178.0 162.8 179.9 161.5 L177.85 160.1 172.25 156.4 172.05 156.2 171.95 156.1 172.4 156.15 177.6 157.65 177.3 157.15 175.45 154.4 174.55 153.1 173.9 152.25 175.45 151.8 180.65 149.75 182.2 149.0 183.95 148.2 184.85 147.85 186.75 146.8 187.65 146.35 186.75 146.2 186.2 146.15 185.2 146.0 181.3 145.4 181.15 145.35 180.05 144.95 179.2 144.65 180.0 144.25 180.65 144.0 179.6 141.75 179.05 140.8 178.5 139.9 178.1 139.1 178.45 138.8 179.65 137.95 180.65 136.95 181.9 135.75 180.4 135.65 179.95 135.6 179.2 135.5 180.0 134.9 180.05 134.85 180.5 134.45 187.4 128.55 M182.95 159.15 L181.25 157.95 180.05 158.25 179.2 158.5 180.55 161.0 186.3 161.35 182.95 159.15 M180.0 164.4 L177.9 164.05 176.2 165.35 175.2 166.1 177.3 167.05 178.65 167.65 179.05 167.6 182.2 166.7 185.3 165.6 180.0 164.4" fill="#da2206" fill-rule="evenodd" stroke="none"/>
      <path d="M128.8 177.25 L129.85 173.9 132.5 166.05 135.55 165.8 135.7 164.7 135.7 164.55 136.7 164.35 137.95 164.2 139.3 162.45 142.9 157.7 146.65 153.0 146.9 152.7 144.8 146.4 146.05 145.0 150.35 144.5 151.2 144.2 151.35 144.85 151.4 145.15 152.55 147.95 151.65 151.05 151.4 152.0 151.3 152.25 151.2 152.75 150.55 155.05 149.85 157.0 148.6 158.35 148.3 158.65 146.5 160.45 145.7 161.1 Q144.15 162.3 142.45 163.15 L140.95 164.05 140.45 164.2 Q139.05 164.85 137.5 165.3 L136.75 165.45 135.55 165.8 135.55 166.05 135.6 166.8 138.9 173.9 136.7 173.85 135.7 173.75 136.05 174.45 137.75 177.8 138.6 177.7 139.25 174.6 139.35 173.95 139.75 172.25 140.55 173.2 142.55 176.0 143.95 177.95 144.9 175.5 145.85 173.35 147.35 169.95 147.5 169.7 147.95 170.35 149.55 172.35 149.7 172.6 149.8 172.65 150.45 173.6 150.55 173.15 150.55 172.45 150.65 171.75 151.15 167.3 151.15 166.75 151.9 161.55 152.85 161.5 154.5 161.55 156.5 161.5 158.4 161.5 Q156.5 158.6 154.45 153.15 L155.6 152.75 156.15 152.5 Q156.45 152.45 156.75 152.2 L157.6 151.95 158.1 151.8 161.25 150.0 159.75 146.0 158.8 143.9 159.85 142.5 160.9 142.3 160.0 144.1 160.9 146.4 161.55 148.05 161.6 148.3 163.1 151.8 162.4 152.0 164.2 152.5 165.25 152.55 165.85 152.65 168.0 152.85 168.15 152.85 169.65 152.85 170.8 151.45 169.4 148.9 168.5 146.85 167.3 144.75 169.35 142.1 170.25 140.95 170.65 140.35 169.95 140.75 169.6 140.95 Q167.5 142.1 166.1 142.4 L164.9 140.1 Q166.7 138.45 168.95 135.55 L170.3 133.7 170.05 132.3 171.65 133.1 174.5 134.3 174.05 136.55 173.65 138.55 173.4 139.3 Q173.95 138.9 174.6 138.65 L179.2 135.5 179.95 135.6 180.4 135.65 181.9 135.75 180.65 136.95 179.65 137.95 178.45 138.8 178.1 139.1 178.5 139.9 179.05 140.8 179.6 141.75 180.65 144.0 180.0 144.25 179.2 144.65 180.05 144.95 181.15 145.35 181.3 145.4 185.2 146.0 186.2 146.15 186.75 146.2 187.65 146.35 186.75 146.8 184.85 147.85 183.95 148.2 182.2 149.0 180.65 149.75 175.45 151.8 173.9 152.25 174.55 153.1 175.45 154.4 177.3 157.15 177.6 157.65 172.4 156.15 171.95 156.1 172.05 156.2 172.25 156.4 177.85 160.1 179.9 161.5 Q178.0 162.8 175.55 163.9 L173.7 164.7 173.0 165.0 Q171.6 165.4 170.25 165.95 L169.95 165.95 169.65 166.0 170.1 166.3 Q171.15 166.7 172.7 167.4 L173.4 167.75 177.0 169.25 Q174.5 171.35 170.55 173.4 L169.35 174.05 167.1 175.2 165.7 175.9 165.2 176.2 164.7 176.3 165.1 176.45 165.15 176.5 166.15 177.1 168.4 178.2 165.7 179.1 164.9 179.35 164.1 179.7 160.05 181.05 159.75 181.0 158.7 180.95 155.0 180.65 153.6 180.5 151.25 179.95 151.2 179.95 149.55 179.5 149.4 179.45 149.2 179.35 148.85 179.2 148.95 179.8 149.0 179.9 Q149.85 183.05 150.8 185.2 L150.65 185.3 150.55 185.4 148.35 185.85 147.85 185.95 147.9 187.0 147.9 187.15 148.0 188.45 147.75 188.45 146.05 188.45 144.0 188.15 142.45 187.7 142.05 187.6 141.8 188.0 140.35 191.35 139.9 192.2 139.8 192.4 139.65 192.85 138.75 190.15 140.75 184.9 Q139.7 184.15 138.6 182.7 L139.7 180.85 138.75 179.25 139.1 179.05 140.35 178.0 142.95 180.75 143.9 181.65 144.8 182.7 145.9 179.2 146.5 177.7 147.3 179.3 147.5 179.65 147.6 179.45 147.7 179.1 149.5 176.85 150.8 177.0 151.3 177.05 152.65 177.1 152.7 175.3 154.25 177.4 154.5 177.4 154.6 177.5 155.9 177.6 156.0 177.55 157.2 174.35 157.35 174.35 159.2 174.9 158.2 174.2 155.85 172.45 155.55 173.65 155.2 173.0 155.45 172.05 155.75 171.35 156.1 171.6 160.15 174.0 160.4 173.3 160.3 173.25 160.4 173.25 160.75 171.3 161.2 171.55 160.85 173.3 164.0 173.7 166.15 173.75 168.5 171.75 170.55 169.7 167.55 165.3 168.6 164.95 170.55 164.15 173.2 163.15 172.8 161.85 172.0 159.75 170.35 155.75 167.4 154.95 165.55 154.4 164.8 154.1 166.35 158.5 168.2 163.75 164.15 163.05 162.75 162.85 162.5 164.15 161.35 170.4 161.25 171.3 160.9 170.9 162.7 162.0 162.9 162.0 165.35 162.4 167.25 162.6 165.4 157.3 164.15 154.3 164.1 153.85 162.9 153.45 161.85 153.1 160.5 152.65 158.1 153.15 155.75 153.35 156.9 156.15 158.25 159.4 159.75 162.55 159.8 162.7 159.8 162.75 159.5 162.75 157.7 162.95 154.65 163.05 154.6 163.05 152.7 162.6 152.65 163.05 152.05 167.15 151.8 170.35 151.55 172.7 151.55 173.2 154.5 175.3 154.85 174.0 155.45 174.05 154.8 176.4 151.5 173.8 151.4 175.55 150.3 174.7 147.9 172.6 144.25 178.55 143.55 179.8 140.25 174.2 139.35 177.8 138.3 178.6 137.75 177.8 135.4 177.9 128.8 177.25 M171.2 142.95 L171.75 144.2 Q171.25 145.0 170.25 147.35 L173.85 144.9 177.05 142.7 173.65 142.9 172.1 142.95 171.2 142.95 M176.9 145.5 L177.1 145.85 177.6 146.6 177.95 147.15 178.55 148.0 180.0 147.95 182.45 147.55 178.85 145.85 178.25 145.5 177.7 145.25 176.3 144.55 176.9 145.5 M188.1 141.2 L191.4 142.3 188.1 142.8 186.75 142.9 184.55 143.15 186.0 141.4 186.65 140.75 186.75 140.75 188.1 141.2 M183.85 135.25 L184.35 134.3 188.9 133.1 183.9 138.75 182.8 138.65 181.75 138.55 183.25 136.15 183.85 135.25 M164.9 169.35 L163.05 168.55 162.55 164.65 165.35 167.6 168.0 169.85 164.9 169.35 M160.55 175.2 L161.45 175.3 162.05 175.55 161.15 174.35 160.75 173.9 160.55 175.2" fill="#f0570d" fill-rule="evenodd" stroke="none"/>
      <path d="M160.9 142.3 L161.45 142.2 Q162.25 142.0 163.3 141.4 L164.7 140.2 164.9 140.1 166.1 142.4 Q167.5 142.1 169.6 140.95 L169.95 140.75 170.65 140.35 170.25 140.95 169.35 142.1 167.3 144.75 168.5 146.85 169.4 148.9 170.8 151.45 169.65 152.85 168.15 152.85 168.0 152.85 165.85 152.65 165.25 152.55 164.2 152.5 165.55 151.4 166.05 151.05 167.0 150.3 166.7 149.85 165.55 147.05 165.4 146.6 163.85 142.75 161.45 145.65 161.55 148.05 160.9 146.4 160.0 144.1 160.9 142.3 M171.2 142.95 L172.1 142.95 173.65 142.9 177.05 142.7 173.85 144.9 170.25 147.35 Q171.25 145.0 171.75 144.2 L171.2 142.95 M161.25 171.3 L161.35 170.4 162.5 164.15 162.75 162.85 164.15 163.05 168.2 163.75 166.35 158.5 164.8 154.1 165.55 154.4 167.4 154.95 170.35 155.75 172.0 159.75 172.8 161.85 173.2 163.15 170.55 164.15 168.6 164.95 167.55 165.3 170.55 169.7 168.5 171.75 166.15 173.75 164.0 173.7 160.85 173.3 161.2 171.55 161.6 171.65 161.25 171.3 M155.55 173.65 L155.85 172.45 158.2 174.2 159.2 174.9 157.35 174.35 157.2 174.35 156.0 177.55 155.9 177.6 154.6 177.5 154.5 177.4 154.25 177.4 152.7 175.3 152.65 177.1 151.3 177.05 150.8 177.0 149.5 176.85 147.7 179.1 147.6 179.45 147.5 179.65 147.3 179.3 146.5 177.7 145.9 179.2 144.8 182.7 143.9 181.65 142.95 180.75 140.35 178.0 139.1 179.05 138.75 179.25 138.3 179.7 136.95 179.45 Q137.7 178.95 138.3 178.6 L139.35 177.8 140.25 174.2 143.55 179.8 144.25 178.55 147.9 172.6 150.3 174.7 151.4 175.55 151.5 173.8 154.8 176.4 155.45 174.05 155.8 174.25 155.55 173.65 M164.9 169.35 L168.0 169.85 165.35 167.6 162.55 164.65 163.05 168.55 164.9 169.35 M151.4 145.15 L153.0 145.4 153.15 145.45 154.25 145.95 154.65 146.15 151.65 151.05 152.55 147.95 151.4 145.15 M150.55 155.05 L150.45 156.55 150.55 156.65 150.55 159.25 149.45 158.9 148.8 158.7 148.3 158.65 148.6 158.35 149.85 157.0 150.55 155.05 M146.5 160.45 L145.95 164.15 145.9 164.6 145.55 164.5 142.45 163.15 Q144.15 162.3 145.7 161.1 L146.5 160.45 M140.45 164.2 L139.25 166.75 137.7 165.4 137.5 165.3 Q139.05 164.85 140.45 164.2 M156.95 147.3 L157.45 144.85 159.2 148.55 158.5 148.05 Q157.6 147.45 156.95 147.3 M158.1 153.15 L158.75 154.7 158.4 155.05 156.9 156.15 155.75 153.35 158.1 153.15 M154.65 163.05 L155.1 165.75 154.95 166.05 154.9 166.5 153.35 166.15 153.45 166.8 153.4 166.75 153.15 166.8 152.05 167.15 152.65 163.05 152.7 162.6 154.6 163.05 154.65 163.05 M160.55 175.2 L160.75 173.9 161.15 174.35 162.05 175.55 161.45 175.3 160.55 175.2" fill="#fb7b18" fill-rule="evenodd" stroke="none"/>
      <path d="M161.55 148.05 L161.45 145.65 163.85 142.75 165.4 146.6 165.55 147.05 166.7 149.85 167.0 150.3 166.05 151.05 165.55 151.4 164.2 152.5 162.4 152.0 163.1 151.8 161.6 148.3 161.55 148.05 M158.1 153.15 L160.5 152.65 161.85 153.1 162.9 153.45 164.1 153.85 164.15 154.3 165.4 157.3 167.25 162.6 165.35 162.4 162.9 162.0 162.7 162.0 160.9 170.9 Q159.1 168.8 157.3 167.05 L157.1 166.8 155.75 165.4 155.2 164.95 155.1 165.75 154.65 163.05 157.7 162.95 159.5 162.75 159.8 162.75 159.8 162.7 159.75 162.55 158.25 159.4 156.9 156.15 158.4 155.05 158.75 154.7 158.1 153.15 M160.75 171.3 L160.4 173.25 160.3 173.25 160.4 173.3 160.15 174.0 156.1 171.6 155.75 171.35 155.45 172.05 155.2 173.0 154.3 171.3 153.6 169.85 153.05 169.0 152.95 173.35 153.05 173.35 154.1 173.8 154.55 173.9 154.85 174.0 154.5 175.3 151.55 173.2 151.55 172.7 151.8 170.35 152.05 167.15 153.15 166.8 153.4 166.75 153.45 166.8 153.7 167.45 156.0 168.75 158.6 170.1 160.75 171.3" fill="#fba118" fill-rule="evenodd" stroke="none"/>
      <path d="M177.8 184.15 L178.0 185.0 178.05 185.45 Q181.0 187.2 184.9 188.3 L187.9 188.75 188.8 188.8 185.2 190.25 183.85 190.8 171.5 189.4 169.45 189.2 166.05 189.1 165.7 189.15 165.85 189.45 166.75 191.25 167.3 192.25 164.85 191.0 161.3 189.2 160.3 189.4 158.4 189.7 Q156.05 188.8 153.6 187.25 L155.75 192.1 154.45 192.1 151.95 192.1 151.95 193.0 151.9 194.0 143.95 189.7 143.9 189.85 Q143.1 190.45 142.7 191.15 L142.8 194.3 142.9 198.0 140.1 193.0 139.8 192.4 139.9 192.2 140.35 191.35 141.8 188.0 142.05 187.6 142.45 187.7 144.0 188.15 146.05 188.45 147.75 188.45 148.0 188.45 147.9 187.15 147.9 187.0 147.85 185.95 148.35 185.85 150.55 185.4 150.65 185.3 150.8 185.2 Q149.85 183.05 149.0 179.9 L148.95 179.8 148.85 179.2 149.2 179.35 149.4 179.45 149.55 179.5 151.2 179.95 151.25 179.95 153.6 180.5 155.0 180.65 158.7 180.95 159.75 181.0 160.05 181.05 164.1 179.7 164.9 179.35 165.7 179.1 168.4 178.2 166.15 177.1 165.15 176.5 165.1 176.45 164.7 176.3 165.2 176.2 165.7 175.9 167.1 175.2 169.35 174.05 170.55 173.4 Q174.5 171.35 177.0 169.25 L173.4 167.75 172.7 167.4 Q171.15 166.7 170.1 166.3 L169.65 166.0 169.95 165.95 Q177.05 169.05 179.05 169.65 176.85 171.3 172.05 173.4 L166.15 176.15 170.55 178.25 167.3 179.8 Q161.7 182.15 158.55 182.55 L152.85 181.05 149.8 180.1 151.95 186.4 148.5 187.1 148.75 189.0 146.3 188.85 142.35 188.2 Q141.65 189.55 140.65 191.85 L142.1 193.75 142.15 190.85 143.45 188.95 146.6 190.1 148.9 190.55 149.85 190.7 150.15 189.4 150.2 189.0 150.25 188.85 150.55 188.85 152.7 189.05 152.6 188.35 152.55 186.35 152.35 184.65 154.7 183.7 155.45 184.25 156.1 184.85 158.6 184.25 162.15 184.0 162.45 184.1 164.7 184.25 Q167.85 186.35 170.4 187.05 L170.8 187.2 172.4 187.55 171.65 185.9 171.2 184.6 172.6 184.6 173.75 184.55 175.8 184.4 177.8 184.15 M156.15 197.05 L156.3 197.4 156.85 197.8 159.9 200.45 Q163.3 203.3 166.45 204.8 L169.35 205.95 170.75 206.2 172.0 205.25 172.5 204.8 172.7 206.45 173.15 208.9 170.3 209.5 167.9 210.0 Q165.3 208.7 159.55 203.45 155.45 199.65 152.5 196.5 L152.55 195.15 156.15 197.05" fill="#bf0008" fill-rule="evenodd" stroke="none"/>
      <path d="M151.2 144.2 L151.45 144.15 Q154.05 143.4 155.65 142.25 L156.8 141.25 158.15 139.9 160.7 137.05 159.5 142.4 159.85 142.5 158.8 143.9 159.75 146.0 161.25 150.0 158.1 151.8 157.6 151.95 156.75 152.2 Q156.45 152.45 156.15 152.5 L155.6 152.75 154.45 153.15 Q156.5 158.6 158.4 161.5 L156.5 161.5 154.5 161.55 152.85 161.5 151.9 161.55 151.15 166.75 151.15 167.3 150.65 171.75 150.55 172.45 150.55 173.15 150.45 173.6 149.8 172.65 149.7 172.6 149.55 172.35 147.95 170.35 147.5 169.7 147.35 169.95 145.85 173.35 144.9 175.5 143.95 177.95 142.55 176.0 140.55 173.2 139.75 172.25 139.35 173.95 139.25 174.6 138.6 177.7 137.75 177.8 136.05 174.45 135.7 173.75 136.7 173.85 138.9 173.9 135.6 166.8 135.55 166.05 135.55 165.8 136.75 165.45 137.5 165.3 137.7 165.4 139.25 166.75 140.45 164.2 140.95 164.05 142.45 163.15 145.55 164.5 145.9 164.6 145.95 164.15 146.5 160.45 148.3 158.65 148.8 158.7 149.45 158.9 150.55 159.25 150.55 156.65 150.45 156.55 150.55 155.05 151.2 152.75 151.3 152.25 151.4 152.0 151.65 151.05 154.65 146.15 154.25 145.95 153.15 145.45 153.0 145.4 151.4 145.15 151.35 144.85 151.2 144.2 M160.9 170.9 L161.25 171.3 161.6 171.65 161.2 171.55 160.75 171.3 158.6 170.1 156.0 168.75 153.7 167.45 153.45 166.8 153.35 166.15 154.9 166.5 154.95 166.05 155.1 165.75 155.2 164.95 155.75 165.4 157.1 166.8 157.3 167.05 Q159.1 168.8 160.9 170.9 M155.2 173.0 L155.55 173.65 155.8 174.25 155.45 174.05 154.85 174.0 154.55 173.9 154.1 173.8 153.05 173.35 152.95 173.35 153.05 169.0 153.6 169.85 154.3 171.3 155.2 173.0 M156.95 147.3 Q157.6 147.45 158.5 148.05 L159.2 148.55 157.45 144.85 156.95 147.3" fill="#feb916" fill-rule="evenodd" stroke="none"/>
      <path d="M208.5 133.75 L208.3 133.8 208.5 133.8 M208.5 146.45 L207.45 147.35 206.45 148.25 208.1 150.3 208.5 150.8 M208.5 154.55 L203.85 154.85 Q200.25 155.05 197.45 154.8 L197.45 154.85 198.2 155.3 Q200.7 156.8 203.65 157.75 L200.6 160.75 199.4 161.8 200.4 162.15 206.3 163.45 207.65 163.75 205.95 164.8 Q201.8 167.05 197.0 167.95 L189.9 168.55 189.05 168.45 188.4 168.35 192.2 170.8 Q195.25 172.65 198.65 173.65 193.25 177.1 186.75 177.3 L179.8 176.6 176.7 175.9 176.6 175.85 176.7 176.0 177.25 176.45 Q179.2 178.25 180.9 179.35 L181.1 179.55 184.0 181.15 179.9 182.7 177.7 183.3 177.8 184.15 178.0 185.0 178.05 185.45 Q181.0 187.2 184.9 188.3 L187.9 188.75 188.8 188.8 185.2 190.25 183.85 190.8 181.8 191.35 Q185.25 192.65 190.95 197.3 L189.6 196.65 Q186.6 195.3 184.25 194.65 178.05 192.95 172.35 194.55 L169.85 195.55 Q167.65 196.65 166.15 198.1 L161.1 197.05 157.45 196.35 155.0 195.85 156.15 197.05 156.3 197.4 156.85 197.8 159.9 200.45 Q163.3 203.3 166.45 204.8 L169.35 205.95 170.75 206.2 172.0 205.25 172.5 204.8 172.6 204.6 Q175.65 206.4 181.55 212.65 L183.6 214.9 179.25 213.4 Q172.95 211.6 169.1 212.35 166.05 212.85 163.05 215.25 L162.5 214.6 Q158.8 210.75 154.7 204.8 L154.25 204.1 152.15 200.95 149.5 196.5 143.7 191.6 Q143.75 193.35 144.65 200.0 L145.55 206.6 137.95 196.75 Q137.75 196.65 137.7 196.4 132.45 189.15 128.75 182.8 L127.55 180.65 128.45 178.0 128.8 177.25 129.85 173.9 132.5 166.05 136.95 152.65" fill="none" stroke="#760d83" stroke-linecap="round" stroke-linejoin="round" stroke-width="1.0"/>
      <path d="M170.3 133.7 L170.05 132.3 169.95 132.15 169.85 131.5 169.35 129.65 169.15 129.0 168.45 128.5 167.1 127.7 Q165.5 126.85 164.4 126.65 163.9 124.25 163.65 121.7 163.35 118.95 163.3 115.85 163.3 111.2 163.75 108.45 L168.05 103.1" fill="none" stroke="#c91d1d" stroke-linecap="round" stroke-linejoin="round" stroke-width="1.0"/>
      <path d="M136.95 152.65 L140.15 150.4 143.9 147.3 144.8 146.4 146.05 145.0 150.35 144.5 151.2 144.2 151.45 144.15 Q154.05 143.4 155.65 142.25 L156.8 141.25 158.15 139.9 160.7 137.05 159.5 142.4 159.85 142.5 160.9 142.3 161.45 142.2 Q162.25 142.0 163.3 141.4 L164.7 140.2 164.9 140.1 Q166.7 138.45 168.95 135.55 L170.3 133.7" fill="none" stroke="#ee4423" stroke-linecap="round" stroke-linejoin="round" stroke-width="1.0"/>
      <path d="M103.4 207.25 L92.2 213.2 92.2 203.3 94.4 198.65 92.2 199.4 92.2 196.55 94.75 196.15 95.0 196.35 96.7 198.45 95.05 202.45 Q93.85 205.5 93.4 207.0 L100.7 201.7 101.55 201.05 101.7 201.65 103.4 207.25" fill="#b0001b" fill-rule="evenodd" stroke="none"/>
      <path d="M100.15 135.7 L101.55 136.25 Q106.35 138.0 109.65 138.65 L111.4 140.8 104.8 148.05 105.15 148.55 110.35 155.85 115.2 163.2 117.15 165.9 119.4 166.5 121.3 167.1 121.3 167.35 121.05 168.7 118.9 168.0 117.4 167.4 112.15 165.0 111.5 164.65 108.8 163.0 Q106.0 161.2 103.5 159.1 L102.4 158.1 99.5 155.15 99.1 154.6 97.3 152.45 96.9 149.7 96.55 146.5 96.5 145.95 96.45 145.5 96.3 144.15 95.95 139.95 Q98.1 138.3 99.45 136.75 L99.6 136.5 100.15 135.7 M126.7 170.2 L128.35 181.05 129.2 185.75 116.3 184.15 111.55 183.15 116.55 179.65 117.4 178.85 115.5 178.55 111.15 177.9 120.55 170.1 120.9 169.15 121.05 168.7 126.7 170.2 M92.2 193.9 L92.2 181.75 92.3 182.05 92.8 181.75 95.1 180.05 95.5 182.15 96.1 186.95 98.4 185.95 100.45 185.1 106.65 182.5 108.7 184.3 109.15 184.8 106.75 186.4 108.1 189.15 Q105.3 190.55 102.9 191.2 L104.65 198.45 101.7 201.65 101.55 201.05 101.5 200.85 101.05 199.55 99.6 194.75 99.45 194.1 98.35 194.1 95.4 194.1 92.2 193.9 M92.2 173.8 L92.2 171.6 95.3 170.05 96.5 169.45 96.6 169.8 98.05 174.75 98.9 177.7 99.85 181.25 103.3 179.2 108.4 176.4 Q109.35 175.85 110.2 175.45 L110.25 177.75 110.25 178.65 110.3 182.8 111.55 183.15 110.3 184.0 108.6 182.55 108.5 177.7 99.8 183.65 98.9 181.85 94.45 172.95 Q93.2 173.4 92.2 173.8" fill="#f0570d" fill-rule="evenodd" stroke="none"/>
      <path d="M111.4 140.8 L112.75 142.3 118.6 147.55 123.8 151.55 126.7 170.2 121.05 168.7 121.3 167.35 121.3 167.1 119.4 166.5 117.15 165.9 115.2 163.2 110.35 155.85 105.15 148.55 104.8 148.05 111.4 140.8 M129.2 185.75 L129.4 186.9 130.15 190.55 126.9 192.85 Q117.15 199.6 103.95 206.95 L103.4 207.25 101.7 201.65 104.65 198.45 102.9 191.2 Q105.3 190.55 108.1 189.15 L106.75 186.4 109.15 184.8 109.8 185.4 112.45 185.55 110.3 184.0 111.55 183.15 116.3 184.15 129.2 185.75 M92.2 195.6 L92.2 194.35 98.55 194.75 100.2 200.05 Q97.9 201.25 96.75 201.95 L97.8 198.15 96.15 195.35 92.2 195.6" fill="#da2206" fill-rule="evenodd" stroke="none"/>
      <path d="M92.2 181.75 L92.2 173.8 Q93.2 173.4 94.45 172.95 L98.9 181.85 99.8 183.65 108.5 177.7 108.6 182.55 110.3 184.0 112.45 185.55 109.8 185.4 109.15 184.8 108.7 184.3 106.65 182.5 100.45 185.1 98.4 185.95 96.1 186.95 95.5 182.15 95.1 180.05 92.8 181.75 92.3 182.05 92.2 181.75 M99.45 136.75 Q98.1 138.3 95.95 139.95 L96.3 144.15 92.6 136.95 93.6 136.8 95.85 136.55 96.2 136.5 99.45 136.75 M96.9 149.7 L97.3 152.45 99.1 154.6 99.5 155.15 98.65 155.1 97.15 155.1 95.05 155.05 96.2 151.75 96.25 151.65 96.9 149.7 M102.4 158.1 L103.5 159.1 Q106.0 161.2 108.8 163.0 L102.3 163.5 101.65 163.5 101.7 162.95 102.4 158.1 M112.15 165.0 L117.4 167.4 117.0 167.5 113.5 168.65 112.15 165.0" fill="#fb7b18" fill-rule="evenodd" stroke="none"/>
      <path d="M92.2 196.55 L92.2 195.6 96.15 195.35 97.8 198.15 96.75 201.95 Q97.9 201.25 100.2 200.05 L98.55 194.75 92.2 194.35 92.2 193.9 95.4 194.1 98.35 194.1 99.45 194.1 99.6 194.75 101.05 199.55 101.5 200.85 101.55 201.05 100.7 201.7 93.4 207.0 Q93.85 205.5 95.05 202.45 L96.7 198.45 95.0 196.35 94.75 196.15 92.2 196.55" fill="#bf0008" fill-rule="evenodd" stroke="none"/>
      <path d="M92.2 131.4 L92.4 131.55 Q94.9 133.55 99.6 135.55 L100.15 135.7 99.6 136.5 99.45 136.75 96.2 136.5 95.85 136.55 93.6 136.8 92.6 136.95 96.3 144.15 96.45 145.5 96.5 145.95 96.55 146.5 96.9 149.7 96.25 151.65 96.2 151.75 95.05 155.05 97.15 155.1 98.65 155.1 99.5 155.15 102.4 158.1 101.7 162.95 101.65 163.5 102.3 163.5 108.8 163.0 111.5 164.65 112.15 165.0 113.5 168.65 117.0 167.5 117.4 167.4 118.9 168.0 121.05 168.7 120.9 169.15 120.55 170.1 111.15 177.9 115.5 178.55 117.4 178.85 116.55 179.65 111.55 183.15 110.3 182.8 110.25 178.65 110.25 177.75 110.2 175.45 Q109.35 175.85 108.4 176.4 L103.3 179.2 99.85 181.25 98.9 177.7 98.05 174.75 96.6 169.8 96.5 169.45 95.3 170.05 92.2 171.6 92.2 131.4" fill="#feb916" fill-rule="evenodd" stroke="none"/>
      <path d="M123.8 151.55 L126.7 170.2 128.35 181.05 129.2 185.75 129.4 186.9 130.15 190.55 126.9 192.85 Q117.15 199.6 103.95 206.95 L103.4 207.25 92.2 213.2 M92.2 203.3 L94.4 198.65 92.2 199.4" fill="none" stroke="#760d83" stroke-linecap="round" stroke-linejoin="round" stroke-width="1.0"/>
      <path d="M92.2 131.4 L92.4 131.55 Q94.9 133.55 99.6 135.55 L100.15 135.7 101.55 136.25 Q106.35 138.0 109.65 138.65 L111.4 140.8 112.75 142.3 118.6 147.55 123.8 151.55" fill="none" stroke="#ee4423" stroke-linecap="round" stroke-linejoin="round" stroke-width="1.0"/>
      <path d="M166.65 142.85 L166.95 143.65 166.3 152.75 165.95 154.5 165.05 160.05 166.7 159.25 168.65 158.3 168.85 157.05 169.25 154.95 169.55 154.65 170.25 152.5 170.7 148.7 170.8 144.35 170.6 140.6 Q171.2 141.45 171.75 143.9 L170.9 151.1 169.7 157.75 169.45 158.75 169.4 158.8 168.45 159.3 167.65 159.65 166.55 160.1 164.95 160.6 164.85 160.65 164.5 160.3 165.35 155.85 165.6 154.4 Q166.65 147.6 166.65 143.2 L166.65 142.85 M171.6 172.05 L171.25 172.65 Q171.15 171.65 170.05 170.45 168.9 169.2 167.15 168.7 L164.65 168.55 164.0 168.55 163.05 168.6 163.0 168.6 160.7 168.85 Q159.55 168.5 158.05 167.15 L157.25 166.25 156.95 166.3 156.85 166.1 157.1 166.05 157.25 166.25 157.1 166.05 156.85 166.1 156.15 164.85 154.55 161.9 154.85 158.0 154.95 156.65 154.1 154.7 151.45 154.55 152.55 153.0 153.1 152.25 150.8 146.85 151.6 147.25 151.05 146.2 149.4 142.9 149.85 142.35 151.4 145.55 152.15 147.05 152.45 147.65 153.25 149.3 151.85 148.0 152.7 149.6 153.7 151.45 155.15 154.05 156.4 156.4 156.65 156.85 158.15 159.65 158.25 159.75 157.25 159.0 156.25 158.4 157.15 160.25 159.7 165.35 159.8 165.55 160.1 165.6 162.25 166.05 162.7 166.15 163.9 166.4 168.55 167.3 170.1 169.65 171.6 172.05 M161.9 146.1 L162.15 149.8 162.45 154.05 162.7 157.55 162.75 158.5 162.4 158.2 160.5 156.25 159.45 155.25 159.45 154.8 159.4 152.3 158.9 144.75 Q159.2 145.85 159.75 146.55 L160.45 155.85 162.35 157.35 161.8 151.4 161.5 147.95 161.7 148.05 161.9 146.1 M154.95 138.0 L155.85 142.85 155.95 143.4 156.45 146.6 157.1 151.15 157.25 152.3 157.35 153.2 156.95 152.85 156.6 152.5 156.0 151.9 155.9 151.5 155.45 150.0 154.05 145.6 153.1 142.65 152.0 139.4 152.15 139.2 152.85 140.9 153.95 143.1 154.35 143.35 156.45 151.85 156.8 152.05 155.05 142.3 155.1 141.0 154.95 138.0" fill="#ffbb28" fill-rule="evenodd" stroke="none"/>
      <path d="M166.3 152.75 L166.3 152.9 167.55 156.25 168.8 155.35 169.25 154.95 168.85 157.05 168.65 158.3 166.7 159.25 165.05 160.05 165.95 154.5 166.3 152.75 M159.75 146.55 L160.3 147.1 161.5 147.95 161.8 151.4 162.35 157.35 160.45 155.85 159.75 146.55" fill="#fffd0f" fill-rule="evenodd" stroke="none"/>
      <path d="M165.5 163.15 L165.35 163.0 164.8 162.35 164.65 162.2 164.2 161.75 163.55 161.1 163.25 160.8 163.2 160.75 162.95 160.5 162.8 160.4 162.55 160.15 162.15 159.75 160.7 158.55 160.5 158.4 159.7 157.75 161.65 161.9 162.6 163.8 163.65 164.0 164.65 164.2 164.7 164.2 164.85 164.25 166.4 164.5 166.7 164.55 165.5 163.15 M162.8 159.7 L163.75 160.6 163.9 160.75 164.3 161.15 164.85 161.65 165.55 162.35 165.6 162.4 165.65 162.5 167.05 164.1 167.5 164.7 168.1 165.6 167.45 165.45 167.1 165.4 166.65 165.3 164.65 164.9 164.55 164.85 163.5 164.65 162.95 164.55 162.0 164.35 161.7 163.65 160.7 161.4 159.45 159.0 159.4 158.9 158.2 156.8 157.7 156.0 157.5 155.65 157.35 155.4 157.2 155.2 157.3 155.25 157.45 155.35 157.65 155.5 159.1 156.55 159.45 156.8 160.6 157.75 162.4 159.3 162.5 159.45 162.7 159.6 162.8 159.7" fill="#052a5d" fill-rule="evenodd" stroke="none"/>
      <path d="M162.15 159.75 L162.55 160.15 162.8 160.4 162.95 160.5 163.2 160.75 163.25 160.8 163.55 161.1 164.2 161.75 164.65 162.2 164.8 162.35 165.35 163.0 165.5 163.15 164.95 163.95 164.7 164.15 164.65 164.2 163.65 164.0 162.6 163.8 161.65 161.9 161.7 161.6 161.7 161.2 161.7 161.15 161.8 160.7 162.35 161.6 Q162.7 161.55 162.85 161.3 L162.9 161.1 162.85 161.0 162.8 160.95 162.6 160.75 162.55 160.7 161.95 160.1 162.15 159.75" fill="#2ffff9" fill-rule="evenodd" stroke="none"/>
      <path d="M161.95 160.1 L162.55 160.7 162.6 160.75 162.8 160.95 162.85 161.0 162.9 161.1 162.85 161.3 Q162.7 161.55 162.35 161.6 L161.8 160.7 160.95 159.2 161.75 159.9 161.95 160.1" fill="#ecfffe" fill-rule="evenodd" stroke="none"/>
      <path d="M162.15 159.75 L161.95 160.1 161.75 159.9 160.95 159.2 161.8 160.7 161.7 161.15 161.7 161.2 161.7 161.6 161.65 161.9 159.7 157.75 160.5 158.4 160.7 158.55 162.15 159.75 M164.65 164.2 L164.7 164.15 164.95 163.95 165.5 163.15 166.7 164.55 166.4 164.5 164.85 164.25 164.7 164.2 164.65 164.2" fill="#1088de" fill-rule="evenodd" stroke="none"/>
      <path d="M151.1 173.75 L151.35 175.8 150.95 174.05 151.1 173.75 M152.1 182.05 L152.15 182.15 150.9 181.5 150.3 181.15 148.95 180.45 148.65 180.3 148.55 180.2 143.4 184.45 141.5 179.45 141.2 178.75 137.75 181.25 135.25 183.35 Q133.5 179.85 131.85 174.55 L131.5 173.45 Q130.3 169.7 129.5 166.15 L126.9 167.85 125.45 168.9 Q126.55 166.45 128.1 163.95 L128.8 162.85 128.4 160.75 126.5 161.95 126.85 157.1 125.2 158.15 Q124.6 158.5 123.95 158.95 L122.5 159.95 123.95 155.95 122.85 153.95 121.95 152.25 113.2 159.8 113.1 159.9 113.3 159.05 114.4 151.8 115.7 143.45 115.8 142.8 116.35 139.25 119.4 138.65 121.65 138.2 127.15 136.95 Q128.2 136.2 127.85 135.0 L127.35 133.45 125.25 129.75 122.6 125.4 125.3 129.55 Q127.95 133.75 129.65 137.25 L130.1 138.1 131.05 140.1 131.1 140.15 131.25 140.3 131.45 140.25 131.8 140.4 131.9 140.45 131.8 140.05 131.85 138.9 131.8 138.05 132.05 138.25 132.9 139.3 Q134.65 141.5 135.15 141.5 L135.4 141.45 135.45 141.5 135.5 141.45 135.75 141.3 136.5 140.65 137.5 140.25 137.1 142.1 Q137.25 143.25 139.25 143.4 L139.8 143.6 Q140.5 144.3 141.2 144.3 L141.25 144.3 141.8 145.4 Q139.05 147.1 137.55 148.15 L138.85 149.2 140.85 150.8 136.45 154.4 138.75 156.45 141.05 157.9 Q141.15 161.85 142.1 167.4 142.75 171.4 143.4 173.65 L144.5 170.95 Q145.8 168.0 146.9 166.45 L147.3 168.35 147.95 170.7 149.05 168.4 149.55 167.4 152.0 166.95 153.3 166.75 153.7 166.7 153.05 167.65 Q152.3 167.8 151.2 168.25 L150.1 168.75 148.15 173.7 146.35 170.3 143.55 177.7 Q141.9 172.8 140.95 168.85 L138.7 159.15 136.45 157.5 133.45 158.85 136.9 150.55 135.25 150.35 133.1 150.2 133.95 149.35 138.7 144.9 137.75 143.7 136.45 143.95 136.8 142.45 136.95 141.65 134.65 142.45 133.2 140.4 132.35 139.3 132.05 144.7 130.6 140.9 129.65 138.25 126.65 139.25 128.35 140.35 129.65 141.2 126.75 148.35 126.65 149.75 Q126.4 152.65 126.45 154.35 L126.5 154.3 127.95 153.35 127.8 157.2 128.45 156.9 Q129.85 156.2 130.7 155.95 L132.35 167.2 133.55 174.4 136.65 172.35 136.75 177.2 139.5 175.95 140.65 177.05 143.7 179.35 146.15 177.7 148.85 178.5 150.05 175.9 150.95 174.05 151.35 175.8 152.1 182.05 150.3 181.15 152.1 182.05 M123.7 140.0 L117.45 142.7 121.7 142.4 123.7 142.15 125.75 141.75 123.7 140.0 M121.7 146.0 L120.55 145.55 117.9 144.45 120.8 147.6 120.9 147.7 123.6 150.55 122.95 146.35 121.7 146.0 M120.8 155.7 L121.1 156.95 121.85 159.5 Q121.15 161.75 120.6 165.2 L120.35 166.85 119.7 163.1 119.15 159.4 120.8 155.7 M139.7 185.1 L139.25 186.55 138.65 188.7 138.35 186.3 138.15 184.3 139.75 182.55 139.7 185.1 M129.8 174.95 L130.2 177.7 129.85 178.95 129.5 180.5 128.65 178.35 128.2 177.15 128.8 176.2 129.8 174.8 129.8 174.95 M125.85 175.55 Q123.3 179.3 120.5 181.95 122.6 178.3 123.95 173.5 L127.15 170.65 126.35 174.8 125.85 175.55" fill="#fb7b18" fill-rule="evenodd" stroke="none"/>
      <path d="M150.9 172.25 L151.1 173.75 150.95 174.05 150.05 175.9 148.85 178.5 146.15 177.7 143.7 179.35 140.65 177.05 139.5 175.95 136.75 177.2 136.65 172.35 133.55 174.4 132.35 167.2 130.7 155.95 Q129.85 156.2 128.45 156.9 L127.8 157.2 127.95 153.35 126.5 154.3 126.45 154.35 Q126.4 152.65 126.65 149.75 L126.75 148.35 129.65 141.2 128.35 140.35 126.65 139.25 129.65 138.25 130.6 140.9 132.05 144.7 132.35 139.3 133.2 140.4 134.65 142.45 136.95 141.65 136.8 142.45 136.45 143.95 137.75 143.7 138.7 144.9 133.95 149.35 133.1 150.2 135.25 150.35 136.9 150.55 133.45 158.85 136.45 157.5 138.7 159.15 140.95 168.85 Q141.9 172.8 143.55 177.7 L146.35 170.3 148.15 173.7 150.1 168.75 151.2 168.25 Q152.3 167.8 153.05 167.65 L152.15 169.05 150.85 171.25 150.85 171.9 150.9 172.25 150.7 172.7 150.95 174.05 150.7 172.7 150.9 172.25 M131.1 140.15 L130.25 138.25 129.65 136.55 Q128.8 135.75 125.65 129.0 L119.5 120.0 119.5 119.6 119.65 119.5 Q121.4 120.05 125.9 125.1 130.3 130.0 130.3 131.05 L130.3 131.1 131.35 132.45 Q132.3 134.1 132.3 134.75 132.3 135.2 133.05 136.5 L133.05 136.6 Q135.6 138.25 136.6 138.25 L136.95 138.3 136.55 137.15 136.0 135.45 Q135.35 134.1 134.4 131.15 L134.3 131.15 Q134.0 131.15 133.15 129.15 L133.1 129.05 132.15 126.5 132.0 126.0 Q131.75 124.95 130.6 123.3 L128.8 120.75 124.7 115.25 Q121.35 110.9 121.35 110.25 121.35 109.85 121.55 109.8 L121.7 109.8 121.85 109.8 Q124.4 112.4 130.45 117.5 133.85 120.6 134.85 122.75 L135.2 123.75 139.85 131.35 Q144.35 139.0 144.35 140.3 144.35 140.9 143.95 141.7 L143.9 141.75 143.5 141.85 142.7 141.0 142.1 142.55 141.25 144.3 141.2 144.3 Q140.5 144.3 139.8 143.6 L139.6 143.4 139.25 143.4 Q137.25 143.25 137.1 142.1 L137.5 140.25 136.5 140.65 135.75 141.3 135.5 141.45 135.4 141.45 135.15 141.5 Q134.65 141.5 132.9 139.3 L132.05 138.25 131.8 137.95 131.8 138.05 131.85 138.9 131.8 140.05 131.8 140.1 131.45 140.25 131.25 140.3 131.1 140.15 M145.6 126.65 Q150.1 134.35 150.1 138.5 150.1 139.3 149.25 139.3 L148.5 138.1 147.5 136.95 147.3 137.95 147.35 138.45 147.3 138.95 146.85 139.05 146.75 138.9 Q145.15 138.85 145.1 135.75 L143.45 132.3 141.15 127.3 138.5 121.6 Q134.45 113.2 132.35 110.05 L134.85 111.95 Q138.35 115.25 143.2 122.7 L145.6 126.65 M121.7 146.0 L122.95 146.35 123.6 150.55 120.9 147.7 120.8 147.6 117.9 144.45 120.55 145.55 121.7 146.0 M123.7 140.0 L125.75 141.75 123.7 142.15 121.7 142.4 117.45 142.7 123.7 140.0 M139.75 136.15 L139.75 136.2 139.85 136.25 139.75 136.15" fill="#ffa30d" fill-rule="evenodd" stroke="none"/>
      <path d="M156.95 166.3 L153.8 166.65 153.85 166.6 156.7 166.1 156.85 166.1 156.7 166.1 153.85 166.6 153.8 166.65 153.7 166.7 153.3 166.75 152.0 166.95 149.55 167.4 149.05 168.4 147.95 170.7 147.3 168.35 146.9 166.45 Q145.8 168.0 144.5 170.95 L143.4 173.65 Q142.75 171.4 142.1 167.4 141.15 161.85 141.05 157.9 L138.75 156.45 136.45 154.4 140.85 150.8 138.85 149.2 137.55 148.15 Q139.05 147.1 141.8 145.4 L141.25 144.3 142.1 142.55 142.7 141.0 143.5 141.85 143.9 141.75 143.95 141.7 144.65 142.3 144.95 142.25 146.75 142.2 148.15 140.4 148.6 139.85 148.7 140.1 149.85 142.35 149.4 142.9 147.45 145.55 146.4 146.95 147.95 148.3 147.25 150.2 145.9 154.0 144.65 157.8 145.65 157.45 145.2 163.95 148.2 162.35 149.35 165.05 151.85 163.75 Q153.2 164.35 156.15 164.85 L156.85 166.1 156.95 166.3 M145.5 144.75 L142.0 143.95 142.2 144.15 142.65 144.75 144.3 147.1 144.7 146.4 145.5 144.75 M143.15 151.75 L141.8 153.3 144.1 153.0 144.2 150.55 143.15 151.75 M144.0 155.4 L142.45 155.9 142.65 162.9 Q143.4 157.9 144.0 155.4" fill="#feb916" fill-rule="evenodd" stroke="none"/>
      <path d="M157.4 132.8 L157.3 132.3 157.65 133.05 157.4 132.8" fill="#ffffff" fill-rule="evenodd" stroke="none"/>
      <path d="M156.15 164.85 Q153.2 164.35 151.85 163.75 L149.35 165.05 148.2 162.35 145.2 163.95 145.65 157.45 144.65 157.8 145.9 154.0 147.25 150.2 147.95 148.3 146.4 146.95 147.45 145.55 149.4 142.9 151.05 146.2 151.6 147.25 150.8 146.85 153.1 152.25 152.55 153.0 151.45 154.55 154.1 154.7 154.95 156.65 154.85 158.0 154.55 161.9 156.15 164.85 M145.5 144.75 L144.7 146.4 144.3 147.1 142.65 144.75 142.2 144.15 142.0 143.95 145.5 144.75 M154.35 143.35 Q154.65 143.35 155.05 143.0 L155.05 142.3 156.8 152.05 156.45 151.85 154.35 143.35 M143.15 151.75 L144.2 150.55 144.1 153.0 141.8 153.3 143.15 151.75 M144.0 155.4 Q143.4 157.9 142.65 162.9 L142.45 155.9 144.0 155.4" fill="#fcef17" fill-rule="evenodd" stroke="none"/>
      <path d="M148.95 180.45 Q148.5 181.85 148.1 184.55 147.5 188.85 147.5 192.85 L147.55 194.8 147.45 194.7 146.95 193.85 146.75 193.55 146.05 191.1 145.35 188.35 143.55 189.25 143.5 189.3 138.85 190.05 138.35 190.15 137.3 190.45 137.1 189.25 136.85 187.8 133.7 188.75 133.6 188.75 131.15 189.5 131.0 182.8 128.9 183.2 128.6 183.25 127.5 183.45 124.2 184.1 118.7 185.3 119.45 182.8 120.45 179.5 122.1 173.55 119.15 174.0 116.0 174.45 113.15 174.95 111.55 174.7 116.05 171.25 118.6 169.15 Q119.15 167.5 119.15 166.3 L118.85 164.9 118.7 164.5 116.5 163.65 114.5 162.95 Q112.6 160.8 109.1 155.85 L106.05 151.4 113.6 142.1 115.85 139.35 116.35 139.25 115.8 142.8 115.7 143.45 114.4 151.8 113.3 159.05 113.1 159.9 113.2 159.8 121.95 152.25 122.85 153.95 123.95 155.95 122.5 159.95 123.95 158.95 Q124.6 158.5 125.2 158.15 L126.85 157.1 126.5 161.95 128.4 160.75 128.8 162.85 128.1 163.95 Q126.55 166.45 125.45 168.9 L126.9 167.85 129.5 166.15 Q130.3 169.7 131.5 173.45 L131.85 174.55 Q133.5 179.85 135.25 183.35 L137.75 181.25 141.2 178.75 141.5 179.45 143.4 184.45 148.55 180.2 148.65 180.3 148.95 180.45 M120.8 155.7 L119.15 159.4 119.7 163.1 120.35 166.85 120.6 165.2 Q121.15 161.75 121.85 159.5 L121.1 156.95 120.8 155.7 M116.3 183.5 L116.45 186.8 Q115.4 188.85 113.95 192.9 L114.25 188.1 114.55 185.3 116.3 183.5 M113.7 180.25 L116.85 178.5 116.3 179.35 114.75 182.05 108.5 184.6 111.4 182.25 113.7 180.25 M121.45 197.65 L120.9 193.7 120.3 188.9 121.1 188.35 121.85 187.85 122.05 188.45 122.8 190.4 122.35 192.55 121.55 197.6 121.45 197.65 M125.85 175.55 L126.35 174.8 127.15 170.65 123.95 173.5 Q122.6 178.3 120.5 181.95 123.3 179.3 125.85 175.55 M129.8 174.95 L129.8 174.8 128.8 176.2 128.2 177.15 128.65 178.35 129.5 180.5 129.85 178.95 130.2 177.7 129.8 174.95 M139.7 185.1 L139.75 182.55 138.15 184.3 138.35 186.3 138.65 188.7 139.25 186.55 139.7 185.1" fill="#e83807" fill-rule="evenodd" stroke="none"/>
      <path d="M146.85 193.95 L143.75 190.2 143.65 190.35 143.4 190.65 138.4 191.45 138.15 191.5 136.35 191.9 135.55 190.8 134.6 189.65 Q132.8 190.15 130.15 191.15 L129.5 191.45 128.75 184.3 121.35 186.1 117.4 187.25 117.95 181.85 Q118.4 177.85 118.8 175.75 L115.0 176.65 116.05 175.35 113.15 174.95 116.0 174.45 119.15 174.0 122.1 173.55 120.45 179.5 119.45 182.8 118.7 185.3 124.2 184.1 127.5 183.45 128.6 183.25 128.9 183.2 131.0 182.8 131.15 189.5 133.6 188.75 133.7 188.75 136.85 187.8 137.1 189.25 137.3 190.45 138.35 190.15 138.85 190.05 143.5 189.3 143.55 189.25 145.35 188.35 146.05 191.1 146.75 193.55 146.85 193.95 M134.1 198.15 Q133.1 200.4 132.4 203.2 L131.6 207.4 131.3 207.45 129.7 206.9 Q128.2 206.3 127.45 205.8 L125.85 208.05 125.25 208.1 120.0 208.55 119.4 207.2 118.65 205.5 117.15 206.4 115.6 207.4 115.5 207.3 112.45 203.55 111.15 202.05 109.8 202.35 109.35 202.45 105.15 203.3 104.0 199.6 103.8 199.15 103.45 198.3 102.0 195.45 103.1 194.15 104.15 192.7 103.75 190.75 103.25 189.15 109.15 188.65 Q110.3 191.2 112.8 198.9 L116.25 196.55 118.5 198.45 120.6 200.2 121.4 199.7 121.75 199.5 121.8 199.45 124.3 198.1 127.15 201.85 127.7 202.6 128.9 201.6 Q131.85 199.3 134.1 198.15 M108.9 196.35 L108.95 196.55 109.6 201.0 109.95 199.05 110.65 195.6 110.45 195.05 110.3 194.65 108.9 196.35 M108.65 190.55 L106.7 191.5 104.4 198.45 108.85 192.8 108.65 190.55" fill="#bf0008" fill-rule="evenodd" stroke="none"/>
      <path d="M147.45 194.7 L146.85 193.95 146.75 193.55 146.95 193.85 147.45 194.7 M143.4 190.65 Q140.85 193.85 138.75 198.3 L137.65 200.85 135.75 198.15 135.25 197.35 135.05 196.65 134.95 196.75 134.85 196.6 134.7 196.9 127.9 201.15 Q125.75 197.5 124.95 195.3 L122.3 197.05 121.55 197.6 122.35 192.55 122.8 190.4 122.05 188.45 121.85 187.85 121.1 188.35 120.3 188.9 120.9 193.7 121.45 197.65 120.2 198.55 120.1 198.35 118.9 195.75 117.95 193.4 Q116.7 194.05 114.95 195.4 L114.85 195.45 113.15 196.85 112.95 195.9 112.3 192.75 111.6 188.25 107.65 186.25 108.95 185.75 108.05 184.95 107.95 184.8 107.25 184.05 106.4 183.0 109.2 181.25 Q113.0 178.85 115.0 176.65 L118.8 175.75 Q118.4 177.85 117.95 181.85 L117.4 187.25 121.35 186.1 128.75 184.3 129.5 191.45 130.15 191.15 Q132.8 190.15 134.6 189.65 L135.55 190.8 136.35 191.9 138.15 191.5 138.4 191.45 143.4 190.65 M113.7 180.25 L111.4 182.25 108.5 184.6 114.75 182.05 116.3 179.35 116.85 178.5 113.7 180.25 M116.3 183.5 L114.55 185.3 114.25 188.1 113.95 192.9 Q115.4 188.85 116.45 186.8 L116.3 183.5 M108.65 190.55 L108.85 192.8 104.4 198.45 106.7 191.5 108.65 190.55 M108.9 196.35 L110.3 194.65 110.45 195.05 110.65 195.6 109.95 199.05 109.6 201.0 108.95 196.55 108.9 196.35" fill="#da2206" fill-rule="evenodd" stroke="none"/>
      <path d="M134.7 196.9 L134.1 198.15 Q131.85 199.3 128.9 201.6 L127.7 202.6 127.15 201.85 124.3 198.1 121.8 199.45 121.75 199.5 121.4 199.7 120.6 200.2 118.5 198.45 116.25 196.55 112.8 198.9 Q110.3 191.2 109.15 188.65 L103.25 189.15 102.6 187.7 104.65 187.15 107.65 186.25 111.6 188.25 112.3 192.75 112.95 195.9 113.15 196.85 114.85 195.45 114.95 195.4 Q116.7 194.05 117.95 193.4 L118.9 195.75 120.1 198.35 120.2 198.55 121.45 197.65 121.55 197.6 122.3 197.05 124.95 195.3 Q125.75 197.5 127.9 201.15 L134.7 196.9 M125.85 208.05 L122.65 211.3 Q120.0 213.7 117.9 215.0 L118.05 213.6 117.85 212.0 Q115.4 213.6 111.2 215.45 L110.55 215.7 106.5 217.35 107.5 214.95 107.9 213.8 Q104.45 215.85 101.4 215.85 L105.45 209.45 103.15 209.7 98.05 210.15 97.8 210.15 99.15 206.55 96.5 206.35 97.55 204.4 Q98.95 201.55 98.95 199.65 L98.75 198.45 98.75 198.35 102.0 195.45 103.45 198.3 103.8 199.15 104.0 199.6 105.15 203.3 109.35 202.45 109.8 202.35 111.15 202.05 112.45 203.55 115.5 207.3 115.6 207.4 117.15 206.4 118.65 205.5 119.4 207.2 120.0 208.55 125.25 208.1 125.85 208.05" fill="#b0001b" fill-rule="evenodd" stroke="none"/>
      <path d="M166.65 142.85 L166.95 143.65 166.3 152.75 166.3 152.9 167.55 156.25 168.8 155.35 169.25 154.95 169.55 154.65 170.25 152.5 170.7 148.7 170.8 144.35 170.6 140.6 Q171.2 141.45 171.75 143.9 L172.55 148.8 173.05 153.55 172.35 156.45 171.65 158.55 170.95 160.2 169.85 162.6 169.8 162.7 170.7 164.8 172.25 169.1 172.2 169.45 171.95 170.6 171.6 172.05 171.25 172.65 Q171.15 171.65 170.05 170.45 168.9 169.2 167.15 168.7 L164.65 168.55 164.0 168.55 163.05 168.6 163.0 168.6 160.7 168.85 Q159.55 168.5 158.05 167.15 L157.25 166.25 157.1 166.05 156.85 166.1 156.7 166.1 153.85 166.6 153.8 166.65 Q152.55 168.5 150.9 172.25 L150.7 172.7 150.95 174.05 151.35 175.8 151.7 177.4 152.45 182.2 M166.65 142.85 Q164.8 137.95 162.0 132.05 159.8 127.4 157.35 124.4 158.6 127.25 159.6 130.85 L161.9 140.3 162.15 141.55 162.2 142.6 161.9 146.1 161.7 148.05 161.5 147.95 160.3 147.1 159.75 146.55 Q159.2 145.85 158.9 144.75 L158.85 144.65 158.85 144.25 158.25 139.1 158.0 137.2 158.0 137.05 157.9 136.3 157.8 135.55 157.4 132.8 157.3 132.3 151.55 120.0 147.0 110.95 150.4 121.15 154.8 135.75 154.8 136.05 154.9 137.35 154.95 138.0 155.1 141.0 155.05 142.3 155.05 143.0 Q154.65 143.35 154.35 143.35 L153.95 143.1 152.85 140.9 152.15 139.2 151.45 137.5 150.5 135.3 149.8 133.75 148.9 131.9 148.2 130.45 147.6 129.6 145.6 126.65 Q150.1 134.35 150.1 138.5 150.1 139.3 149.25 139.3 L148.5 138.1 147.5 136.95 147.3 137.95 147.35 138.45 147.3 138.95 146.85 139.05 146.75 138.9 Q145.15 138.85 145.1 135.75 L143.45 132.3 144.35 138.6 139.9 130.9 134.85 122.75 Q133.85 120.6 130.45 117.5 124.4 112.4 121.85 109.8 L121.7 109.8 116.55 104.85 Q113.6 101.85 114.55 102.1 M134.85 111.95 L129.05 105.45 127.8 104.2 128.7 105.45 133.35 112.6 138.5 121.6 Q134.45 113.2 132.35 110.05 L134.85 111.95 Q138.35 115.25 143.2 122.7 L145.6 126.65 M143.45 132.3 L141.15 127.3 138.5 121.6" fill="none" stroke="#ee4423" stroke-linecap="round" stroke-linejoin="round" stroke-width="1.0"/>
      <path d="M152.45 182.2 L152.1 182.05 150.3 181.15 148.95 180.45 Q148.5 181.85 148.1 184.55 147.5 188.85 147.5 192.85 L147.55 194.8 M114.5 162.95 Q112.6 160.8 109.1 155.85 L106.05 151.4 113.6 142.1 115.85 139.35 116.35 139.25 119.4 138.65 121.65 138.2 127.15 136.95 Q128.2 136.2 127.85 135.0 L127.35 133.45 125.25 129.75 122.6 125.4 M133.15 129.15 L133.4 129.8 136.35 137.95 136.4 138.05 135.05 137.7 134.25 137.15 132.9 134.95 130.55 130.9 128.95 128.2 127.35 126.15 122.35 121.35 Q118.3 117.65 112.55 113.95 118.2 118.45 120.35 121.8 L122.45 125.15 M116.55 104.85 L121.15 111.1 130.15 123.55 131.95 126.05 132.15 126.5 M133.1 129.05 L133.15 129.15 M114.55 102.1 L116.55 104.85" fill="none" stroke="#c91d1d" stroke-linecap="round" stroke-linejoin="round" stroke-width="1.0"/>
      <path d="M147.55 194.8 L147.45 194.7 146.85 193.95 143.75 190.2 143.65 190.35 143.4 190.65 Q140.85 193.85 138.75 198.3 L137.65 200.85 135.75 198.15 135.25 197.35 134.95 196.75 134.85 196.6 M108.95 185.75 L108.05 184.95 107.95 184.8 107.25 184.05 106.4 183.0 109.2 181.25 Q113.0 178.85 115.0 176.65 L116.05 175.35 113.15 174.95 111.55 174.7 116.05 171.25 118.6 169.15 Q119.15 167.5 119.15 166.3 L118.85 164.9 118.7 164.5 116.5 163.65 114.5 162.95" fill="none" stroke="#931034" stroke-linecap="round" stroke-linejoin="round" stroke-width="1.0"/>
      <path d="M134.85 196.6 L134.7 196.9 134.1 198.15 Q133.1 200.4 132.4 203.2 L131.6 207.4 131.6 207.5 131.3 207.45 129.7 206.9 Q128.2 206.3 127.45 205.8 L125.85 208.05 122.65 211.3 Q120.0 213.7 117.9 215.0 L118.05 213.6 117.85 212.0 Q115.4 213.6 111.2 215.45 L110.55 215.7 106.5 217.35 107.5 214.95 107.9 213.8 Q104.45 215.85 101.4 215.85 L105.45 209.45 103.15 209.7 98.05 210.15 97.8 210.15 99.15 206.55 96.5 206.35 97.55 204.4 Q98.95 201.55 98.95 199.65 L98.75 198.45 98.75 198.35 102.0 195.45 103.1 194.15 104.15 192.7 103.75 190.75 103.25 189.15 102.6 187.7 104.65 187.15 107.65 186.25 108.95 185.75" fill="none" stroke="#760d83" stroke-linecap="round" stroke-linejoin="round" stroke-width="1.0"/>
      <path d="M171.2 87.7 L172.1 86.65 173.6 84.95 175.35 82.35 176.35 80.7 176.65 80.2 Q180.0 74.45 183.9 65.7 L186.5 59.5 187.2 57.7 187.3 57.45 Q185.55 65.15 180.6 76.25 L178.65 80.35 178.5 80.6 177.75 82.25 177.65 82.5 176.85 84.1 176.55 84.25 176.15 84.5 175.25 84.9 175.15 85.05 175.0 85.1 170.8 90.25 171.2 87.7 M187.9 89.35 L186.8 100.45 186.65 101.05 180.25 101.7 179.85 101.7 178.2 101.8 176.9 101.85 176.8 103.75 178.4 104.0 178.9 104.0 185.75 104.65 182.7 107.15 179.7 106.75 177.85 106.5 177.65 106.5 173.95 106.05 Q173.65 106.3 173.3 106.5 L172.45 107.15 171.35 107.95 164.45 113.5 160.6 123.8 160.45 124.3 159.2 127.6 158.05 130.5 158.05 130.75 158.15 132.2 Q158.3 135.8 158.8 139.1 L157.1 133.0 156.55 130.85 156.05 128.5 155.7 126.4 154.35 118.55 153.9 115.15 153.55 112.4 153.35 110.6 153.2 109.1 152.85 106.15 157.3 102.1 166.7 92.55 169.25 89.9 168.15 93.3 163.45 98.55 157.5 104.85 156.95 105.35 154.95 107.35 155.05 110.8 Q155.3 117.15 156.55 123.9 L156.55 123.95 156.95 126.0 156.95 126.05 157.65 129.35 157.85 127.95 158.1 126.55 158.7 125.1 158.9 124.45 159.9 121.85 160.3 120.6 162.45 115.05 163.25 112.65 165.35 110.85 170.7 106.45 171.5 105.75 171.85 105.45 172.9 104.6 173.85 103.85 174.25 103.5 175.15 102.85 175.2 102.25 175.25 101.9 175.25 101.7 175.4 100.6 175.7 99.0 175.9 97.7 176.15 96.35 177.3 87.3 178.35 85.15 177.5 95.55 180.55 93.75 187.9 89.35" fill="#ffe107" fill-rule="evenodd" stroke="none"/>
      <path d="M170.8 90.25 L175.0 85.1 175.15 85.05 175.25 84.9 176.15 84.5 176.55 84.25 176.85 84.1 176.55 84.65 176.05 85.2 175.2 86.15 175.15 86.25 170.5 91.55 168.0 94.4 167.7 94.8 157.55 105.9 157.0 106.5 155.95 107.65 156.0 109.7 156.35 115.1 156.55 117.3 156.7 118.8 156.95 121.1 157.1 122.45 157.4 124.8 157.8 127.5 157.85 127.25 158.1 126.55 157.85 127.95 157.65 129.35 156.95 126.05 156.95 126.0 156.55 123.95 156.55 123.9 Q155.3 117.15 155.05 110.8 L154.95 107.35 156.95 105.35 157.5 104.85 163.45 98.55 168.15 93.3 170.8 90.25 M187.45 58.55 L187.75 60.6 187.9 61.3 Q188.75 69.7 188.45 79.65 L187.9 89.35 180.55 93.75 177.5 95.55 178.35 85.15 178.35 84.85 178.4 84.25 178.45 83.95 178.7 83.5 178.85 83.15 181.75 76.8 Q185.45 67.75 187.45 58.55 M186.65 101.05 L186.2 104.35 185.75 104.65 178.9 104.0 178.4 104.0 176.8 103.75 176.9 101.85 178.2 101.8 179.85 101.7 180.25 101.7 186.65 101.05 M182.7 107.15 L180.65 109.1 179.85 110.0 176.0 113.7 174.4 115.25 173.6 116.0 167.3 122.0 163.3 129.65 162.95 130.35 Q161.85 132.9 159.7 138.55 L159.1 140.05 158.8 139.1 Q158.3 135.8 158.15 132.2 L158.05 130.75 158.05 130.5 159.2 127.6 160.45 124.3 160.6 123.8 164.45 113.5 171.35 107.95 172.45 107.15 173.3 106.5 Q173.65 106.3 173.95 106.05 L177.65 106.5 177.85 106.5 179.7 106.75 182.7 107.15" fill="#de8804" fill-rule="evenodd" stroke="none"/>
      <path d="M171.2 87.7 L170.8 90.25 168.15 93.3 169.25 89.9 171.2 87.7 M176.85 84.1 L177.65 82.5 177.75 82.25 178.5 80.6 178.65 80.35 180.6 76.25 Q185.55 65.15 187.3 57.45 L187.45 58.55 Q185.45 67.75 181.75 76.8 L178.85 83.15 178.7 83.5 178.45 83.95 178.4 84.25 178.35 84.85 178.35 85.15 177.3 87.3 177.4 86.15 177.45 85.95 177.45 85.9 177.5 85.4 177.6 83.9 177.6 83.45 177.4 83.7 177.15 83.9 176.55 84.65 176.85 84.1" fill="#fbffa8" fill-rule="evenodd" stroke="none"/>
      <path d="M176.55 84.65 L177.15 83.9 177.4 83.7 177.6 83.45 177.6 83.9 177.5 85.4 177.45 85.9 177.45 85.95 177.4 86.15 177.3 87.3 176.15 96.35 175.9 97.7 175.7 99.0 175.4 100.6 175.25 101.7 175.25 101.9 175.2 102.25 175.15 102.85 174.25 103.5 173.85 103.85 172.9 104.6 171.85 105.45 171.5 105.75 170.7 106.45 165.35 110.85 163.25 112.65 162.45 115.05 160.3 120.6 159.9 121.85 158.9 124.45 158.7 125.1 158.1 126.55 157.85 127.25 157.8 127.5 157.4 124.8 157.1 122.45 156.95 121.1 156.7 118.8 156.55 117.3 156.35 115.1 156.0 109.7 155.95 107.65 157.0 106.5 157.55 105.9 167.7 94.8 168.0 94.4 170.5 91.55 175.15 86.25 175.2 86.15 176.05 85.2 176.55 84.65 M175.05 88.7 L174.65 89.15 163.8 101.2 157.7 107.9 157.2 108.45 157.55 113.75 157.6 114.25 157.85 118.7 158.0 119.9 158.25 122.1 159.3 118.95 161.5 111.35 169.1 106.0 172.2 103.85 173.15 103.15 173.35 102.15 173.5 100.95 173.9 98.55 175.05 88.7" fill="#0041d2" fill-rule="evenodd" stroke="none"/>
      <path d="M172.25 98.5 Q172.8 97.45 172.85 96.05 L172.65 94.9 172.55 94.5 172.15 94.5 Q171.1 94.45 169.75 96.0 168.5 97.45 168.45 98.5 168.45 99.1 168.6 99.45 L168.6 99.65 Q168.05 99.9 167.55 100.25 L167.5 99.95 167.4 99.8 167.0 99.65 Q166.65 99.65 166.05 99.95 165.1 100.4 165.1 101.15 L165.25 101.85 Q162.65 104.05 160.45 107.15 159.0 109.15 158.15 111.8 L158.25 112.75 158.95 117.2 161.3 110.65 166.0 107.3 172.35 102.8 173.15 98.45 172.25 98.5 M175.05 88.7 L173.9 98.55 173.5 100.95 173.35 102.15 173.15 103.15 172.2 103.85 169.1 106.0 161.5 111.35 159.3 118.95 158.25 122.1 158.0 119.9 157.85 118.7 157.6 114.25 157.55 113.75 157.2 108.45 157.7 107.9 163.8 101.2 174.65 89.15 175.05 88.7" fill="#17abff" fill-rule="evenodd" stroke="none"/>
      <path d="M168.6 99.65 L168.6 99.45 Q168.45 99.1 168.45 98.5 168.5 97.45 169.75 96.0 171.1 94.45 172.15 94.5 L172.55 94.5 172.65 94.9 172.85 96.05 Q172.8 97.45 172.25 98.5 L171.55 99.5 Q170.6 100.4 169.75 100.35 169.05 100.35 168.7 99.8 L168.6 99.65 M165.25 101.85 L165.1 101.15 Q165.1 100.4 166.05 99.95 166.65 99.65 167.0 99.65 L167.4 99.8 167.5 99.95 167.55 100.25 167.5 100.6 Q167.45 101.5 167.0 101.9 166.65 102.4 166.1 102.4 165.55 102.35 165.25 101.85" fill="#def3ff" fill-rule="evenodd" stroke="none"/>
      <path d="M172.25 98.5 L173.15 98.45 172.35 102.8 166.0 107.3 161.3 110.65 158.95 117.2 158.25 112.75 158.15 111.8 Q159.0 109.15 160.45 107.15 162.65 104.05 165.25 101.85 165.55 102.35 166.1 102.4 166.65 102.4 167.0 101.9 167.45 101.5 167.5 100.6 L167.55 100.25 Q168.05 99.9 168.6 99.65 L168.7 99.8 Q169.05 100.35 169.75 100.35 170.6 100.4 171.55 99.5 L172.25 98.5" fill="#117bf0" fill-rule="evenodd" stroke="none"/>
      <path d="M187.3 57.45 L187.2 57.7 186.5 59.5 183.9 65.7 Q180.0 74.45 176.65 80.2 L176.35 80.7 175.35 82.35 173.6 84.95 172.1 86.65 171.2 87.7 169.25 89.9 166.7 92.55 157.3 102.1 152.85 106.15 153.2 109.1 153.35 110.6 153.55 112.4 153.9 115.15 154.35 118.55 155.7 126.4 156.05 128.5 156.55 130.85 157.1 133.0 158.8 139.1 159.1 140.05 159.7 138.55 Q161.85 132.9 162.95 130.35 L163.3 129.65 167.3 122.0 173.6 116.0 174.4 115.25 176.0 113.7 179.85 110.0 180.65 109.1 182.7 107.15 185.75 104.65 186.2 104.35 186.65 101.05 186.8 100.45 187.9 89.35 188.45 79.65 Q188.75 69.7 187.9 61.3 L187.75 60.6 187.45 58.55 187.3 57.45 Z" fill="none" stroke="#d93b00" stroke-linecap="round" stroke-linejoin="round" stroke-width="1.0"/>
      <path d="M184.1 163.3 L185.4 161.9 186.35 160.85 Q188.9 161.75 191.9 162.1 L194.35 162.3 192.6 163.75 190.95 165.1 Q187.25 164.6 184.1 163.3 M197.4 162.25 L201.6 161.4 199.65 165.1 194.95 165.45 196.35 163.7 197.4 162.25 M205.0 159.95 L205.3 159.75 Q208.3 158.05 209.9 155.65 L213.25 156.3 213.3 156.3 212.45 157.7 Q210.55 160.4 207.05 162.45 L204.65 163.7 205.0 159.95" fill="#ebab01" fill-rule="evenodd" stroke="none"/>
      <path d="M213.3 156.3 L213.55 160.95 Q211.6 163.2 208.5 164.95 200.6 169.45 190.45 168.2 187.05 167.75 184.1 166.8 L184.05 163.35 184.1 163.3 Q187.25 164.6 190.95 165.1 L191.55 165.15 194.95 165.45 199.65 165.1 Q202.25 164.6 204.65 163.7 L207.05 162.45 Q210.55 160.4 212.45 157.7 L213.3 156.3" fill="#d65d00" fill-rule="evenodd" stroke="none"/>
      <path d="M194.35 162.3 L197.4 162.25 196.35 163.7 194.95 165.45 191.55 165.15 190.95 165.1 192.6 163.75 194.35 162.3 M201.6 161.4 L205.0 159.95 204.65 163.7 Q202.25 164.6 199.65 165.1 L201.6 161.4" fill="#ffe562" fill-rule="evenodd" stroke="none"/>
      <path d="M184.1 163.3 L185.4 161.9 186.35 160.85 Q188.9 161.75 191.9 162.1 L194.35 162.3 197.4 162.25 201.6 161.4 205.0 159.95 205.3 159.75 Q208.3 158.05 209.9 155.65 L213.25 156.3 M213.3 156.3 L213.55 160.95 Q211.6 163.2 208.5 164.95 200.6 169.45 190.45 168.2 187.05 167.75 184.1 166.8 L184.05 163.35" fill="none" stroke="#d93b00" stroke-linecap="round" stroke-linejoin="round" stroke-width="1.0"/>
      <path d="M195.75 93.95 L196.45 96.25 197.4 100.05 Q194.8 102.6 192.5 105.75 L192.5 100.6 192.55 97.0 195.75 93.95 M187.7 102.8 L189.65 100.2 189.8 103.5 189.95 109.5 187.8 113.45 187.75 105.0 187.7 102.8" fill="#ffe562" fill-rule="evenodd" stroke="none"/>
      <path d="M197.4 100.05 L196.45 96.25 195.75 93.95 Q201.05 89.55 207.35 87.25 209.7 86.35 211.95 85.9 L214.8 87.6 Q217.05 88.9 218.55 90.0 214.8 90.15 210.6 91.7 203.25 94.35 197.4 100.05 M192.55 97.0 L192.5 100.6 192.5 105.75 191.2 107.55 189.95 109.5 189.8 103.5 189.65 100.2 192.55 97.0 M187.65 144.65 L186.05 145.4 185.2 145.75 Q179.35 139.75 179.0 129.3 178.55 116.35 186.8 104.0 L187.7 102.8 187.75 105.0 187.8 113.45 Q183.45 122.3 183.75 131.5 184.0 139.45 187.65 144.65" fill="#ebab01" fill-rule="evenodd" stroke="none"/>
      <path d="M197.4 100.05 Q203.25 94.35 210.6 91.7 214.8 90.15 218.55 90.0 L218.7 90.05 217.45 93.3 216.75 95.0 Q213.7 95.25 210.4 96.5 200.15 100.25 193.2 110.6 186.2 121.0 186.6 131.85 186.7 137.35 188.75 141.4 L188.25 142.9 187.7 144.6 187.7 144.65 187.65 144.7 187.65 144.65 187.7 144.65 187.65 144.65 Q184.0 139.45 183.75 131.5 183.45 122.3 187.8 113.45 L189.95 109.5 191.2 107.55 192.5 105.75 Q194.8 102.6 197.4 100.05" fill="#d65d00" fill-rule="evenodd" stroke="none"/>
      <path d="M218.55 90.0 Q217.05 88.9 214.8 87.6 L211.95 85.9 Q209.7 86.35 207.35 87.25 201.05 89.55 195.75 93.95 L192.55 97.0 189.65 100.2 187.7 102.8 186.8 104.0 Q178.55 116.35 179.0 129.3 179.35 139.75 185.2 145.75 L186.05 145.4 187.65 144.65 187.7 144.65 187.7 144.6 188.25 142.9 188.75 141.4 Q186.7 137.35 186.6 131.85 186.2 121.0 193.2 110.6 200.15 100.25 210.4 96.5 213.7 95.25 216.75 95.0 L217.45 93.3 218.7 90.05" fill="none" stroke="#d93b00" stroke-linecap="round" stroke-linejoin="round" stroke-width="1.0"/>
      <path d="M205.85 110.1 L207.6 109.4 207.6 114.6 207.0 112.9 205.85 110.1 M207.6 145.75 L207.6 149.3 207.0 149.45 206.4 149.65 198.5 149.85 197.85 149.6 Q195.9 148.95 194.25 147.55 189.1 143.25 189.4 134.9 189.65 128.65 192.8 122.8 L197.3 135.5 Q196.15 139.95 197.55 143.05 198.75 145.7 201.35 146.4 L204.15 146.55 204.4 146.5 206.1 146.25 206.85 146.0 207.6 145.75 M195.4 118.8 Q197.65 115.75 200.35 113.55 L200.5 119.05 200.75 127.9 Q199.55 129.7 198.6 131.7 L197.3 126.5 195.4 118.8" fill="#ebab03" fill-rule="evenodd" stroke="none"/>
      <path d="M207.6 120.45 L207.6 125.55 Q204.6 127.7 203.35 130.8 L202.8 132.75 202.6 134.2 202.6 135.8 Q202.7 137.05 203.15 138.25 203.95 140.3 205.65 141.25 L207.2 141.8 207.45 141.85 207.6 141.9 207.6 145.75 206.85 146.0 206.1 146.25 204.4 146.5 204.15 146.55 201.35 146.4 Q198.75 145.7 197.55 143.05 196.15 139.95 197.3 135.5 L198.15 132.85 198.6 131.7 Q199.55 129.7 200.75 127.9 202.75 124.7 205.75 121.95 L207.6 120.45" fill="#d96b00" fill-rule="evenodd" stroke="none"/>
      <path d="M207.6 125.55 L207.6 127.0 Q205.2 129.1 204.2 133.05 L204.05 133.75 Q203.6 135.85 204.05 137.85 204.55 139.95 205.9 140.85 L207.35 141.45 207.45 141.45 207.6 141.5 207.6 141.9 207.45 141.85 207.2 141.8 205.65 141.25 Q203.95 140.3 203.15 138.25 202.7 137.05 202.6 135.8 L202.6 134.2 202.8 132.75 203.35 130.8 Q204.6 127.7 207.6 125.55" fill="#0041d2" fill-rule="evenodd" stroke="none"/>
      <path d="M207.6 129.45 L207.6 141.5 207.45 141.45 207.35 141.45 205.9 140.85 Q204.55 139.95 204.05 137.85 203.6 135.85 204.05 133.75 L204.2 133.05 205.05 131.9 Q206.3 130.35 207.6 129.45" fill="#136fd6" fill-rule="evenodd" stroke="none"/>
      <path d="M207.6 127.0 L207.6 129.45 Q206.3 130.35 205.05 131.9 L204.2 133.05 Q205.2 129.1 207.6 127.0" fill="#17abff" fill-rule="evenodd" stroke="none"/>
      <path d="M207.6 114.6 L207.6 120.45 205.75 121.95 Q202.75 124.7 200.75 127.9 L200.5 119.05 200.35 113.55 Q202.95 111.4 205.85 110.1 L207.0 112.9 207.6 114.6 M192.8 122.8 Q193.85 120.9 195.25 119.0 L195.4 118.8 197.3 126.5 198.6 131.7 198.15 132.85 197.3 135.5 192.8 122.8" fill="#fff06f" fill-rule="evenodd" stroke="none"/>
      <path d="M181.45 144.4 L182.05 143.55 181.25 143.75 180.55 143.9 179.45 144.2 177.75 144.55 177.7 144.55 177.15 143.45 174.7 138.9 174.2 137.9 170.35 130.9 168.3 127.45 Q167.55 126.45 167.15 125.65 L166.5 124.6 166.4 124.45 165.5 123.1 164.65 121.7 164.65 121.75 163.75 119.05 161.55 112.45 Q157.3 100.6 154.45 90.9 L159.35 100.4 163.5 112.75 167.4 124.65 175.95 138.35 179.0 143.6 182.9 140.7 184.55 139.55 188.95 136.15 188.95 136.25 Q188.55 137.0 188.3 137.95 L184.9 141.15 181.45 144.4 M161.65 139.0 L158.9 138.7 156.25 138.35 153.45 138.05 153.4 138.0 152.4 137.85 151.15 137.6 150.4 137.2 149.65 136.75 Q148.5 135.95 147.15 135.35 L138.65 129.85 125.4 120.7 129.15 122.15 137.15 127.8 144.85 132.9 145.2 133.1 151.6 137.0 158.15 137.45 159.65 137.5 161.65 139.0" fill="#fbffa8" fill-rule="evenodd" stroke="none"/>
      <path d="M164.65 121.75 L164.65 121.7 165.5 123.1 166.4 124.45 166.5 124.6 167.15 125.65 Q167.55 126.45 168.3 127.45 L170.35 130.9 174.2 137.9 174.7 138.9 177.15 143.45 177.7 144.55 177.75 144.55 179.45 144.2 180.55 143.9 181.25 143.75 182.05 143.55 181.45 144.4 Q181.25 144.55 181.2 144.85 L181.0 145.1 180.4 145.9 Q179.8 146.6 179.35 147.5 L178.25 149.0 174.35 154.3 Q173.95 154.65 173.7 155.15 L172.85 156.3 Q172.35 156.75 172.2 157.2 L171.85 156.95 171.1 156.25 Q168.75 154.35 166.15 151.85 L165.4 151.1 162.85 148.8 162.25 148.2 159.75 145.85 158.25 144.45 156.45 142.75 152.1 138.7 150.9 137.6 151.15 137.6 152.4 137.85 153.4 138.0 153.45 138.05 156.25 138.35 158.9 138.7 161.65 139.0 161.85 139.05 162.15 137.4 162.85 132.8 163.0 131.75 163.35 128.95 Q163.75 126.0 164.3 123.65 164.2 123.1 164.45 122.75 L164.65 121.75 M174.4 152.2 L178.1 147.65 178.7 146.95 Q179.4 145.95 180.05 145.3 L180.25 145.1 179.95 145.1 177.2 145.8 176.8 145.2 Q173.65 140.15 169.65 132.85 L168.8 131.4 166.1 126.75 165.25 125.25 164.25 132.45 163.45 137.4 Q163.1 138.8 162.9 140.4 L155.65 139.25 154.7 139.15 153.3 138.85 Q154.55 140.35 156.55 142.25 L161.4 146.7 162.6 147.75 162.75 147.8 165.25 150.0 171.75 155.45 172.6 154.4 174.4 152.2" fill="#0041d2" fill-rule="evenodd" stroke="none"/>
      <path d="M154.45 90.9 Q157.3 100.6 161.55 112.45 L163.75 119.05 164.65 121.75 164.45 122.75 Q164.2 123.1 164.3 123.65 163.75 126.0 163.35 128.95 L163.0 131.75 162.85 132.8 162.15 137.4 161.85 139.05 161.65 139.0 159.65 137.5 Q159.4 137.35 159.3 137.2 L156.15 134.65 150.75 130.1 151.85 125.5 153.3 114.5 Q153.3 109.35 154.25 90.6 L154.25 90.5 154.45 90.9 M172.3 168.15 L167.35 163.55 167.05 161.8 165.65 153.3 171.95 158.2 172.0 159.85 Q171.9 160.95 172.15 162.4 L172.15 163.2 Q172.15 165.8 172.3 168.15 M164.3 160.75 L161.1 157.75 159.9 148.3 163.15 151.15 Q163.75 156.95 164.3 160.75 M154.7 151.8 L146.85 144.25 127.95 124.2 123.8 120.05 125.4 120.7 138.65 129.85 147.15 135.35 Q148.5 135.95 149.65 136.75 L150.4 137.2 149.55 137.1 148.75 137.05 Q152.25 141.05 156.1 144.65 L154.7 151.8" fill="#de8804" fill-rule="evenodd" stroke="none"/>
      <path d="M172.6 154.4 L171.75 155.45 165.25 150.0 162.75 147.8 162.6 147.75 161.4 146.7 156.55 142.25 Q154.55 140.35 153.3 138.85 L154.7 139.15 155.65 139.25 162.9 140.4 Q163.1 138.8 163.45 137.4 L164.25 132.45 165.25 125.25 166.1 126.75 168.8 131.4 169.65 132.85 Q173.65 140.15 176.8 145.2 L177.2 145.8 179.95 145.1 180.25 145.1 180.05 145.3 Q179.4 145.95 178.7 146.95 L178.1 147.65 174.4 152.2 Q174.35 145.1 171.3 139.75 L171.6 138.95 Q171.45 138.25 170.85 137.95 L170.4 137.8 169.95 137.7 169.5 137.2 168.95 136.55 169.25 136.35 169.4 135.25 Q169.3 133.25 168.2 132.45 167.45 131.85 166.7 131.85 L166.1 131.95 165.9 132.45 165.65 133.4 Q165.4 133.15 165.15 133.05 L164.45 137.35 163.75 141.15 157.45 140.25 155.6 139.95 156.8 141.05 161.0 145.0 162.5 146.4 162.85 146.6 165.1 148.5 172.6 154.4" fill="#17abff" fill-rule="evenodd" stroke="none"/>
      <path d="M165.65 133.4 L165.9 132.45 166.1 131.95 166.7 131.85 Q167.45 131.85 168.2 132.45 169.3 133.25 169.4 135.25 L169.25 136.35 168.95 136.55 168.75 136.65 168.0 136.8 Q165.6 136.7 165.6 133.55 165.55 133.4 165.65 133.4 M169.95 137.7 L170.4 137.8 170.85 137.95 Q171.45 138.25 171.6 138.95 L171.3 139.75 170.35 140.0 170.3 140.0 Q169.6 140.0 169.5 139.8 168.9 139.35 169.05 138.65 L169.05 137.85 169.15 137.65 169.25 137.65 169.95 137.7" fill="#def3ff" fill-rule="evenodd" stroke="none"/>
      <path d="M174.4 152.2 L172.6 154.4 165.1 148.5 162.85 146.6 162.5 146.4 161.0 145.0 156.8 141.05 155.6 139.95 157.45 140.25 163.75 141.15 164.45 137.35 165.15 133.05 Q165.4 133.15 165.65 133.4 165.55 133.4 165.6 133.55 165.6 136.7 168.0 136.8 L168.75 136.65 168.95 136.55 169.5 137.2 169.95 137.7 169.25 137.65 169.15 137.65 169.05 137.85 169.05 138.65 Q168.9 139.35 169.5 139.8 169.6 140.0 170.3 140.0 L170.35 140.0 171.3 139.75 Q174.35 145.1 174.4 152.2" fill="#117bf0" fill-rule="evenodd" stroke="none"/>
      <path d="M181.45 144.4 L184.9 141.15 188.3 137.95 Q186.5 142.35 183.1 149.15 L182.8 149.75 Q179.9 155.0 177.35 160.0 L176.45 161.5 172.5 168.3 172.3 168.15 Q172.15 165.8 172.15 163.2 L172.15 162.4 Q171.9 160.95 172.0 159.85 L171.95 158.2 165.65 153.3 167.05 161.8 167.35 163.55 166.2 162.5 165.8 162.1 164.3 160.75 Q163.75 156.95 163.15 151.15 L159.9 148.3 161.1 157.75 154.7 151.8 156.1 144.65 Q152.25 141.05 148.75 137.05 L149.55 137.1 150.4 137.2 151.15 137.6 150.9 137.6 152.1 138.7 156.45 142.75 158.25 144.45 159.75 145.85 162.25 148.2 162.85 148.8 165.4 151.1 166.15 151.85 Q168.75 154.35 171.1 156.25 L171.85 156.95 172.2 157.2 Q172.35 156.75 172.85 156.3 L173.7 155.15 Q173.95 154.65 174.35 154.3 L178.25 149.0 179.35 147.5 Q179.8 146.6 180.4 145.9 L181.0 145.1 181.2 144.85 Q181.25 144.55 181.45 144.4 M188.95 136.15 L184.55 139.55 182.9 140.7 179.0 143.6 175.95 138.35 167.4 124.65 163.5 112.75 159.35 100.4 164.6 110.2 Q172.45 124.1 175.9 135.15 L177.3 139.95 Q177.3 140.25 177.45 140.55 L177.55 140.8 178.15 140.6 182.3 139.0 188.95 136.05 189.0 136.1 188.95 136.15 M129.15 122.15 L138.0 125.75 Q145.55 128.85 150.65 130.5 L150.75 130.1 156.15 134.65 159.3 137.2 Q159.4 137.35 159.65 137.5 L158.15 137.45 151.6 137.0 145.2 133.1 144.85 132.9 137.15 127.8 129.15 122.15" fill="#ffe107" fill-rule="evenodd" stroke="none"/>
      <path d="M188.3 137.95 Q188.55 137.0 188.95 136.25 L188.95 136.15 189.0 136.1 188.95 136.05 182.3 139.0 178.15 140.6 177.55 140.8 177.45 140.55 Q177.3 140.25 177.3 139.95 L175.9 135.15 Q172.45 124.1 164.6 110.2 L159.35 100.4 154.45 90.9 154.25 90.5 154.25 90.6 Q153.3 109.35 153.3 114.5 L151.85 125.5 150.75 130.1 150.65 130.5 Q145.55 128.85 138.0 125.75 L129.15 122.15 125.4 120.7 123.8 120.05 127.95 124.2 146.85 144.25 154.7 151.8 161.1 157.75 164.3 160.75 165.8 162.1 166.2 162.5 167.35 163.55 172.3 168.15 172.5 168.3 176.45 161.5 177.35 160.0 Q179.9 155.0 182.8 149.75 L183.1 149.15 Q186.5 142.35 188.3 137.95 Z" fill="none" stroke="#d93b00" stroke-linecap="round" stroke-linejoin="round" stroke-width="1.0"/>
      <path d="M201.45 182.55 L199.3 184.05 201.6 183.3 202.55 182.95 Q206.85 181.45 207.55 180.25 L207.3 180.25 Q204.95 180.55 202.25 182.05 L201.45 182.55 M196.65 198.35 Q196.2 196.85 196.05 194.7 L196.05 193.2 197.6 193.8 Q199.5 194.55 202.85 194.4 206.6 194.2 211.0 191.7 L212.65 190.7 212.55 189.5 Q212.45 187.5 213.25 185.7 213.7 184.65 214.35 184.05 L213.6 183.35 212.4 183.1 211.6 183.3 210.45 183.55 208.35 185.1 Q205.9 186.65 203.7 187.5 201.35 188.45 199.2 188.55 194.15 188.85 189.4 187.2 186.8 186.35 185.35 185.3 L185.35 185.2 Q184.7 183.9 184.65 182.25 184.5 179.9 185.75 178.35 187.35 176.2 190.95 176.0 L191.7 176.0 Q190.35 176.95 189.45 178.75 188.2 181.15 188.3 182.45 L189.85 183.4 Q191.6 184.15 193.0 184.15 194.9 182.25 197.95 180.65 L201.5 179.15 Q204.5 178.15 207.55 178.0 L209.8 178.0 210.5 176.75 210.75 176.3 211.9 177.3 213.35 178.7 Q216.55 178.75 220.95 180.15 227.3 182.15 227.45 185.2 227.75 190.6 221.25 195.85 218.9 197.75 216.25 199.1 214.45 200.0 213.35 200.2 L213.5 199.55 Q217.05 197.35 216.95 195.6 L216.85 195.0 Q216.6 194.55 216.1 194.55 L217.2 193.1 Q219.4 189.55 219.25 186.2 L218.95 184.55 218.3 183.9 217.6 185.05 217.2 186.15 217.35 187.15 Q217.6 192.2 212.6 195.45 L211.1 196.3 Q208.7 197.55 205.65 198.3 205.35 197.55 204.65 196.9 203.5 195.9 202.55 195.95 202.0 196.0 201.9 196.95 L201.85 197.3 201.45 197.3 199.65 196.85 198.6 196.35 Q197.45 197.25 196.65 198.35" fill="#dc2305" fill-rule="evenodd" stroke="none"/>
      <path d="M194.05 205.55 Q194.1 203.5 195.35 200.7 195.8 199.4 196.65 198.35 197.45 197.25 198.6 196.35 L199.65 196.85 201.45 197.3 201.85 197.3 201.9 196.95 Q202.0 196.0 202.55 195.95 203.5 195.9 204.65 196.9 205.35 197.55 205.65 198.3 L204.4 198.55 204.35 198.0 204.05 198.0 Q202.25 198.1 200.8 199.85 200.5 202.25 195.7 205.45 L195.5 205.4 194.05 205.55" fill="#f9a529" fill-rule="evenodd" stroke="none"/>
      <path d="M211.1 196.3 L212.6 195.45 Q217.6 192.2 217.35 187.15 L217.2 186.15 217.6 185.05 218.3 183.9 218.95 184.55 219.25 186.2 Q219.4 189.55 217.2 193.1 L216.1 194.55 Q216.6 194.55 216.85 195.0 L216.95 195.6 Q217.05 197.35 213.5 199.55 L213.25 199.7 211.6 200.7 211.6 200.6 211.3 197.05 211.1 196.3" fill="#f38514" fill-rule="evenodd" stroke="none"/>
      <path d="M194.1 217.65 L191.65 217.7 190.8 217.75 185.9 217.75 Q186.7 214.35 186.55 211.85 L186.5 211.55 188.05 211.15 Q192.05 210.05 194.7 208.35 L199.85 205.2 Q204.1 201.95 204.4 198.85 L204.4 198.55 205.65 198.3 Q208.7 197.55 211.1 196.3 L211.3 197.05 211.6 200.6 211.6 200.7 208.7 202.45 207.9 203.5 Q203.95 205.15 201.35 207.0 199.95 208.1 197.7 210.25 L196.15 210.65 Q193.75 211.25 191.85 212.35 191.35 212.6 189.15 214.3 L194.85 214.1 Q193.95 215.55 194.05 217.3 L194.1 217.65" fill="#fbaa23" fill-rule="evenodd" stroke="none"/>
      <path d="M172.85 217.75 L161.5 217.75 161.25 217.15 162.85 217.25 164.6 217.2 169.15 216.6 Q171.2 216.05 172.7 215.05 L172.85 214.9 174.5 213.45 175.8 211.8 176.85 210.5 Q179.25 207.5 179.9 205.85 180.85 207.3 181.0 210.9 L181.05 211.05 180.05 212.25 179.65 212.75 179.4 213.3 176.3 214.3 174.7 214.6 Q174.7 215.55 174.15 216.5 L173.75 217.0 173.65 217.2 172.85 217.75" fill="#d42300" fill-rule="evenodd" stroke="none"/>
      <path d="M213.35 200.2 L213.35 200.45 213.85 201.7 214.3 202.75 211.6 203.4 Q208.7 204.35 206.35 205.7 L207.75 203.65 207.9 203.5 208.7 202.45 211.6 200.7 213.25 199.7 213.5 199.55 213.35 200.2" fill="#db472b" fill-rule="evenodd" stroke="none"/>
      <path d="M206.35 205.7 Q203.35 207.45 201.35 210.0 198.65 213.3 197.85 217.75 L195.95 217.75 195.1 217.7 194.1 217.65 194.05 217.3 Q193.95 215.55 194.85 214.1 L189.15 214.3 Q191.35 212.6 191.85 212.35 193.75 211.25 196.15 210.65 L197.7 210.25 Q199.95 208.1 201.35 207.0 203.95 205.15 207.9 203.5 L207.75 203.65 206.35 205.7" fill="#d23417" fill-rule="evenodd" stroke="none"/>
      <path d="M181.05 211.05 L181.1 210.85 186.4 209.9 Q190.15 208.8 194.15 206.3 L195.7 205.45 Q200.5 202.25 200.8 199.85 202.25 198.1 204.05 198.0 L204.35 198.0 204.4 198.55 204.4 198.85 Q204.1 201.95 199.85 205.2 L194.7 208.35 Q192.05 210.05 188.05 211.15 L186.5 211.55 184.85 211.9 182.2 212.2 181.1 212.25 181.05 211.25 181.05 211.05" fill="#fee819" fill-rule="evenodd" stroke="none"/>
      <path d="M181.1 210.85 Q183.1 208.75 186.55 207.4 190.0 205.95 194.05 205.55 L195.5 205.4 195.7 205.45 194.15 206.3 Q190.15 208.8 186.4 209.9 L181.1 210.85" fill="#da3600" fill-rule="evenodd" stroke="none"/>
      <path d="M185.9 217.75 L175.45 217.75 175.2 217.5 178.1 216.4 Q180.05 215.85 182.65 213.8 L184.85 211.9 186.5 211.55 186.55 211.85 Q186.7 214.35 185.9 217.75" fill="#f8a40d" fill-rule="evenodd" stroke="none"/>
      <path d="M174.6 217.75 L172.85 217.75 173.65 217.2 173.75 217.0 174.15 216.5 Q174.7 215.55 174.7 214.6 L176.3 214.3 179.4 213.3 179.7 212.9 179.65 212.75 180.05 212.25 181.1 212.25 182.2 212.2 184.85 211.9 182.65 213.8 Q180.05 215.85 178.1 216.4 L175.2 217.5 174.6 217.75" fill="#fc9a1b" fill-rule="evenodd" stroke="none"/>
      <path d="M175.45 217.75 L174.6 217.75 175.2 217.5 175.45 217.75" fill="#ffec1b" fill-rule="evenodd" stroke="none"/>
    </g>
    <g id="shape2" transform="matrix(1.0, 0.0, 0.0, 1.0, 0.0, 0.0)">
      <path d="M50.5 0.0 Q53.95 0.0 53.95 3.3 L53.95 50.15 Q53.95 53.4 50.5 53.4 L3.3 53.4 Q0.0 53.4 0.0 50.15 L0.0 3.3 Q0.0 0.0 3.3 0.0 L50.5 0.0" fill="#000000" fill-opacity="0.003921569" fill-rule="evenodd" stroke="none"/>
    </g>
  </defs>
</svg>
