<?xml version="1.0" encoding="UTF-8" standalone="no"?>
<svg xmlns:ffdec="https://www.free-decompiler.com/flash" xmlns:xlink="http://www.w3.org/1999/xlink" ffdec:objectType="frame" height="56.45px" width="56.35px" xmlns="http://www.w3.org/2000/svg">
  <g transform="matrix(1.0, 0.0, 0.0, 1.0, 0.3, 2.15)">
    <clipPath id="clipPath0" transform="matrix(1.0, 0.0, 0.0, 1.0, 0.0, 0.0)">
      <path d="M50.5 0.0 Q53.95 0.0 53.95 3.3 L53.95 50.15 Q53.95 53.4 50.5 53.4 L3.3 53.4 Q0.0 53.4 0.0 50.15 L0.0 3.3 Q0.0 0.0 3.3 0.0 L50.5 0.0" fill="#000000" fill-rule="evenodd" stroke="none"/>
    </clipPath>
    <g clip-path="url(#clipPath0)">
      <use ffdec:characterId="3" height="111.05" transform="matrix(0.5082, 0.0, 0.0, 0.5082, -0.2811, -2.1452)" width="110.9" xlink:href="#sprite0"/>
    </g>
    <use ffdec:characterId="4" height="53.4" transform="matrix(1.0, 0.0, 0.0, 1.0, 0.0, 0.0)" width="53.95" xlink:href="#shape2"/>
  </g>
  <defs>
    <g id="sprite0" transform="matrix(1.0, 0.0, 0.0, 1.0, -97.25, -101.65)">
      <use ffdec:characterId="2" height="111.05" transform="matrix(1.0, 0.0, 0.0, 1.0, 97.25, 101.65)" width="110.9" xlink:href="#shape1"/>
    </g>
    <g id="shape1" transform="matrix(1.0, 0.0, 0.0, 1.0, -97.25, -101.65)">
      <path d="M175.45 191.85 Q175.25 190.6 175.85 189.8 L175.85 189.65 176.2 189.7 176.85 189.15 177.25 191.85 176.25 191.85 175.45 191.85 M160.55 186.2 L159.35 186.2 152.85 186.3 152.25 184.85 Q149.95 179.6 147.1 176.05 L149.0 175.85 152.85 175.55 Q153.6 178.5 154.5 180.85 L160.35 184.3 160.4 184.5 160.55 186.2 M153.1 186.9 L162.2 193.9 159.9 194.3 157.75 192.55 Q157.05 192.0 156.25 191.55 L154.4 190.35 153.1 186.9 M117.5 203.9 L117.7 204.15 117.25 204.2 117.5 203.9 M121.5 203.65 L126.85 203.15 Q128.05 201.25 132.05 199.15 132.65 201.3 133.75 203.4 L136.9 208.65 133.55 212.2 117.15 212.2 Q118.7 207.9 119.85 206.15 L120.0 205.9 121.5 203.65 M156.7 194.65 L156.75 194.7 156.75 194.8 156.7 194.65" fill="#6082b0" fill-rule="evenodd" stroke="none"/>
      <path d="M150.55 102.15 Q152.3 106.0 152.85 109.85 L152.85 109.9 152.9 110.3 151.35 110.05 150.05 109.95 Q149.4 106.45 147.9 103.0 L147.55 102.15 150.55 102.15 M146.1 102.15 L147.2 103.6 148.1 105.15 149.5 109.85 147.55 110.1 147.1 110.15 146.6 106.8 146.05 104.45 145.35 102.15 146.1 102.15 M126.25 102.15 L130.05 106.95 Q131.9 109.15 135.45 111.7 L136.55 112.45 137.5 113.1 Q136.85 113.35 136.25 113.75 L135.7 113.95 134.9 114.5 134.5 114.8 132.35 116.35 130.6 115.1 130.25 114.8 Q126.15 111.65 124.7 109.75 L122.05 106.1 Q122.85 104.3 124.05 102.8 L124.6 102.15 126.25 102.15 M196.1 210.8 L197.05 212.2 195.45 212.2 196.1 210.8" fill="#db921f" fill-rule="evenodd" stroke="none"/>
      <path d="M142.75 102.3 L142.5 103.0 142.25 103.8 142.7 104.6 143.4 106.3 143.7 107.25 144.4 110.65 Q142.05 111.25 140.0 112.15 L140.35 111.25 Q140.85 109.95 141.05 109.8 L140.55 108.2 140.25 107.3 Q139.7 105.75 139.1 105.1 L137.55 104.95 135.25 104.6 137.7 104.35 139.75 103.65 141.4 103.1 142.0 102.8 142.5 102.5 142.75 102.3 M142.7 106.75 L141.55 103.5 Q140.9 104.15 141.0 104.45 L141.0 104.85 141.8 107.4 141.85 107.6 142.6 109.65 143.5 110.35 143.35 108.8 142.7 106.75 M146.4 114.15 L145.1 114.35 145.05 113.6 145.05 112.45 145.9 113.45 146.4 114.15 M144.1 114.65 L142.6 115.15 Q142.0 111.95 142.5 111.85 143.1 111.8 143.6 113.3 L144.1 114.65" fill="#fffbf8" fill-rule="evenodd" stroke="none"/>
      <path d="M189.55 198.95 L189.6 196.95 189.65 194.95 190.9 196.2 192.75 198.7 192.85 198.7 191.45 202.05 190.35 200.05 189.55 198.95 M142.7 106.75 L143.35 108.8 143.5 110.35 142.6 109.65 141.85 107.6 141.8 107.4 141.0 104.85 141.0 104.45 Q140.9 104.15 141.55 103.5 L142.7 106.75 M155.55 194.9 L154.4 190.35 156.25 191.55 157.1 193.05 157.05 193.5 156.7 194.65 156.75 194.8 155.9 195.05 155.55 194.9 M159.1 197.55 Q158.35 196.2 158.35 195.85 L159.0 195.05 159.25 194.95 160.5 194.85 Q162.55 196.85 164.4 199.65 165.0 200.5 165.6 202.1 L166.4 204.4 166.2 206.15 164.45 205.85 164.0 205.85 162.9 205.9 162.85 206.0 162.75 205.2 162.0 202.15 161.55 201.3 160.75 199.85 159.1 197.55" fill="#f7d957" fill-rule="evenodd" stroke="none"/>
      <path d="M192.75 161.45 L193.1 163.6 193.55 167.0 193.4 170.0 193.35 170.5 193.5 170.5 193.55 170.5 193.4 171.05 192.9 173.05 192.45 174.5 192.4 174.8 191.75 174.55 191.55 172.7 191.05 174.5 190.85 174.5 Q189.4 174.5 187.9 175.8 L187.45 176.2 188.2 172.5 188.4 170.8 188.05 171.0 188.1 169.8 188.2 168.55 188.25 168.3 190.1 165.5 192.75 161.45 M182.65 185.55 L182.75 185.5 184.7 184.2 184.9 184.05 185.05 184.0 185.2 186.15 184.75 186.0 182.65 185.55" fill="#dd921f" fill-rule="evenodd" stroke="none"/>
      <path d="M191.6 121.65 L190.95 120.0 190.9 119.8 189.9 117.8 189.4 116.95 188.85 116.0 188.2 114.45 188.9 114.95 Q190.25 116.6 190.75 118.1 L191.6 121.65 M169.05 113.8 L169.05 113.75 Q169.1 113.3 169.7 113.3 171.05 113.3 172.05 115.75 L172.9 118.8 172.95 120.5 172.9 121.5 171.4 123.5 171.35 122.15 171.35 121.45 170.75 118.25 Q170.1 116.15 169.1 114.8 L169.05 113.8 M164.6 116.6 L166.05 117.3 168.05 117.6 Q168.4 117.15 168.6 115.6 169.95 117.95 169.9 119.75 169.85 121.45 169.4 122.6 L168.9 123.85 Q166.75 118.85 164.0 118.85 158.35 118.85 152.2 120.0 144.6 121.3 144.85 123.25 L144.9 123.25 146.55 125.1 Q147.85 126.65 148.1 128.15 L148.6 130.85 Q147.25 128.45 142.6 126.75 137.7 124.95 132.55 124.95 135.75 123.25 140.1 123.25 L142.75 123.65 142.9 123.65 141.6 121.15 140.2 118.5 Q141.25 117.65 147.75 116.45 L154.9 115.35 161.25 115.35 Q163.25 115.45 164.1 116.0 L164.6 116.6" fill="#805310" fill-rule="evenodd" stroke="none"/>
      <path d="M191.6 121.65 L190.75 118.1 Q190.25 116.6 188.9 114.95 L191.2 116.75 Q195.6 121.5 195.6 131.25 195.6 133.2 194.75 136.5 L193.1 126.95 Q192.55 124.15 191.6 121.65 M181.85 118.95 L183.4 121.8 184.1 123.0 184.1 123.1 184.55 123.85 184.75 124.45 Q186.25 127.9 186.95 132.75 185.75 128.6 183.6 125.65 L183.25 125.15 182.25 124.15 182.25 124.75 181.9 127.75 180.9 124.65 179.9 122.45 Q178.55 120.1 177.1 118.95 L176.55 118.5 175.1 117.95 176.4 124.45 Q176.85 126.6 176.95 129.65 L177.35 134.35 177.4 134.5 177.45 134.6 177.35 134.5 167.2 127.3 Q162.1 123.8 157.6 122.1 154.5 120.8 151.6 120.45 L151.7 120.6 Q152.85 122.95 153.55 126.25 L155.1 132.1 155.55 133.5 149.5 133.7 143.25 133.6 141.55 133.35 141.9 133.95 142.4 134.8 142.95 135.8 Q139.65 132.15 137.0 130.85 L134.4 130.0 130.9 128.8 128.35 127.9 Q128.45 126.2 128.7 125.35 L127.05 123.75 124.9 121.95 130.25 122.5 131.65 120.6 Q133.25 119.35 135.35 118.3 L135.4 118.25 136.0 117.95 Q137.1 117.3 138.4 116.75 L139.6 116.25 141.75 115.45 142.6 115.15 144.1 114.65 145.1 114.35 146.4 114.15 Q147.9 113.65 149.55 113.45 L150.0 113.35 152.55 113.15 154.7 113.15 154.7 110.85 154.6 109.85 154.6 109.75 156.6 109.65 165.6 110.45 Q161.4 106.8 158.0 105.0 170.9 107.9 179.15 113.55 L181.85 118.95 M188.6 149.2 L188.65 150.25 188.4 150.5 188.4 150.45 188.6 149.2 M164.6 116.6 L164.1 116.0 Q163.25 115.45 161.25 115.35 L154.9 115.35 147.75 116.45 Q141.25 117.65 140.2 118.5 L141.6 121.15 142.9 123.65 142.75 123.65 140.1 123.25 Q135.75 123.25 132.55 124.95 137.7 124.95 142.6 126.75 147.25 128.45 148.6 130.85 L148.1 128.15 Q147.85 126.65 146.55 125.1 L144.9 123.25 144.85 123.25 Q144.6 121.3 152.2 120.0 158.35 118.85 164.0 118.85 166.75 118.85 168.9 123.85 L169.4 122.6 Q169.85 121.45 169.9 119.75 169.95 117.95 168.6 115.6 168.4 117.15 168.05 117.6 L166.05 117.3 164.6 116.6 M169.05 113.8 L169.1 114.8 Q170.1 116.15 170.75 118.25 L171.35 121.45 171.35 122.15 171.4 123.5 172.9 121.5 172.95 120.5 172.9 118.8 172.05 115.75 Q171.05 113.3 169.7 113.3 169.1 113.3 169.05 113.75 L169.05 113.8 M144.35 135.1 L142.5 134.8 142.75 134.8 144.35 135.1 M150.05 110.15 L150.1 110.8 Q150.4 112.6 150.1 113.25 L150.1 112.65 149.6 110.2 150.05 110.15 M142.75 102.3 L142.5 102.5 142.0 102.8 141.4 103.1 139.75 103.65 137.7 104.35 135.25 104.6 134.15 104.5 133.75 104.45 133.55 104.45 133.15 104.35 132.05 103.85 Q131.4 103.3 131.25 102.45 L131.25 102.15 143.1 102.15 143.0 102.25 142.75 102.3 M124.6 102.15 L124.05 102.8 Q122.85 104.3 122.05 106.1 121.0 108.35 120.55 111.15 L120.55 111.5 121.15 112.25 124.65 115.25 127.4 117.35 126.05 118.25 Q122.15 120.95 119.1 123.9 L116.75 122.65 116.05 122.3 Q108.4 118.25 102.55 113.3 L101.2 112.15 Q103.25 109.65 105.65 107.1 108.35 104.2 110.8 102.15 L124.6 102.15 M135.05 136.6 L135.1 136.6 Q135.7 136.8 136.1 137.15 L135.05 136.6 M107.8 102.15 Q103.5 106.05 100.15 111.2 L97.75 108.85 97.75 102.2 97.85 102.15 107.8 102.15 M103.4 141.45 L106.55 145.0 106.7 145.2 105.2 149.85 Q101.3 146.75 97.75 143.7 L97.75 134.95 98.0 135.2 103.4 141.45" fill="#523219" fill-rule="evenodd" stroke="none"/>
      <path d="M107.8 102.15 L110.8 102.15 Q108.35 104.2 105.65 107.1 103.25 109.65 101.2 112.15 L100.15 111.2 Q103.5 106.05 107.8 102.15" fill="#815315" fill-rule="evenodd" stroke="none"/>
      <path d="M147.55 102.15 L147.9 103.0 Q149.4 106.45 150.05 109.95 L149.5 109.85 148.1 105.15 147.2 103.6 146.1 102.15 147.55 102.15 M144.4 110.65 L143.7 107.25 143.4 106.3 142.7 104.6 142.25 103.8 142.5 103.0 142.75 102.3 143.0 102.25 143.1 102.15 145.35 102.15 146.05 104.45 146.6 106.8 147.1 110.15 144.4 110.65 M135.25 104.6 L137.55 104.95 139.1 105.1 Q139.7 105.75 140.25 107.3 L140.55 108.2 141.05 109.8 Q140.85 109.95 140.35 111.25 L140.0 112.15 137.5 113.1 136.55 112.45 135.45 111.7 Q131.9 109.15 130.05 106.95 L126.25 102.15 131.25 102.15 131.25 102.45 Q131.4 103.3 132.05 103.85 L133.15 104.35 133.55 104.45 133.75 104.45 134.15 104.5 135.25 104.6" fill="#f6d957" fill-rule="evenodd" stroke="none"/>
      <path d="M188.2 168.55 L188.1 169.8 188.05 171.0 188.4 170.8 188.2 172.5 187.45 176.2 186.9 178.2 185.05 183.8 184.9 184.05 184.7 184.2 182.75 185.5 182.65 185.55 181.5 185.4 181.45 184.8 182.45 183.85 183.95 182.15 185.55 177.55 187.4 171.55 188.2 168.55 M152.9 110.3 L152.85 109.9 152.85 109.85 Q152.3 106.0 150.55 102.15 L154.15 102.15 154.55 109.45 154.6 109.75 154.6 109.85 154.7 110.85 153.1 110.35 152.9 110.3 M122.05 106.1 L124.7 109.75 Q126.15 111.65 130.25 114.8 L130.6 115.1 132.35 116.35 Q130.9 117.5 130.05 119.0 129.75 118.95 129.55 118.75 L128.7 118.15 128.4 118.1 127.4 117.35 124.65 115.25 121.15 112.25 120.55 111.5 120.55 111.15 Q121.0 108.35 122.05 106.1" fill="#bd6d0c" fill-rule="evenodd" stroke="none"/>
      <path d="M152.9 110.3 L153.1 110.35 154.7 110.85 154.7 113.15 152.55 113.15 150.0 113.35 150.1 113.25 Q150.4 112.6 150.1 110.8 L150.05 110.15 150.05 109.95 151.35 110.05 152.9 110.3 M138.4 116.75 Q137.1 117.3 136.0 117.95 135.7 117.35 135.55 116.45 L135.55 116.4 Q135.25 114.45 135.7 113.95 L136.25 113.75 136.35 114.85 136.55 115.55 Q136.8 116.25 137.5 116.15 138.4 116.0 138.5 116.35 L138.4 116.75 M135.35 118.3 Q133.25 119.35 131.65 120.6 L130.85 120.1 130.05 119.0 Q130.9 117.5 132.35 116.35 L133.05 116.95 133.0 117.25 132.85 117.85 133.0 118.1 133.05 117.95 133.2 118.1 133.35 118.1 133.35 118.15 133.4 118.0 133.65 117.75 133.5 118.15 133.65 118.3 133.75 118.25 133.9 118.5 134.2 118.1 134.25 118.1 134.4 118.25 134.7 118.0 135.35 118.3" fill="#5e93bf" fill-rule="evenodd" stroke="none"/>
      <path d="M181.95 176.85 L184.1 173.95 187.25 169.65 188.25 168.3 188.2 168.55 187.4 171.55 185.55 177.55 183.95 182.15 182.45 183.85 181.45 184.8 180.85 185.35 180.15 186.0 176.85 189.15 176.2 189.7 175.85 189.65 174.95 189.45 171.35 188.55 Q166.9 187.4 163.85 186.1 L163.45 185.9 Q162.1 185.3 161.05 184.7 L160.35 184.3 154.5 180.85 Q153.6 178.5 152.85 175.55 L152.25 173.0 152.2 172.7 154.35 174.65 159.0 178.35 Q157.55 174.15 156.75 168.7 156.2 165.2 156.1 163.0 156.6 162.2 159.05 161.15 L160.3 160.7 161.1 161.0 161.7 161.5 162.1 161.8 161.4 161.7 159.85 161.5 159.75 164.45 Q159.75 167.8 161.05 170.5 L161.1 170.55 161.6 171.5 Q163.2 172.95 164.85 173.55 L167.85 174.35 172.55 174.2 174.55 175.35 174.55 173.8 174.35 172.15 174.05 171.1 181.85 176.95 181.95 176.85 M169.55 169.15 Q169.55 168.85 169.85 169.0 L169.75 169.0 169.55 169.15 M172.25 170.95 Q172.55 171.2 172.4 171.55 L172.4 171.5 172.25 170.95 M177.3 177.9 L177.25 177.85 176.05 176.95 Q175.6 176.95 175.6 177.3 L173.9 176.55 174.05 176.85 Q173.45 176.85 172.7 176.2 L172.1 175.55 171.85 175.55 Q164.9 175.55 161.6 172.8 159.9 171.3 159.55 169.55 L159.0 169.55 158.6 169.5 159.1 173.2 159.5 175.2 163.9 179.35 164.0 183.05 166.35 184.8 166.85 185.15 Q168.4 186.15 171.45 187.15 L175.3 188.15 176.1 188.3 176.35 188.3 176.45 188.15 176.7 187.9 178.3 185.6 178.5 185.25 178.9 184.55 179.75 183.15 181.45 179.55 181.7 179.0 181.9 178.35 181.7 178.45 180.5 178.7 179.95 178.7 179.5 178.7 177.3 177.9 M173.35 185.05 L176.1 185.0 175.9 185.8 175.7 186.05 174.55 186.45 173.2 185.8 173.35 185.05 M196.2 192.55 L196.45 192.15 202.35 183.2 Q205.5 178.15 207.65 172.25 L207.65 202.3 206.05 204.85 205.15 204.8 203.6 204.75 203.55 204.5 203.9 204.65 Q203.75 203.5 203.75 201.55 L202.9 201.0 202.35 199.3 201.6 197.3 201.7 195.85 Q201.2 195.35 199.85 194.85 L199.45 194.85 199.4 195.2 Q196.7 193.95 196.25 193.8 196.35 193.3 196.6 192.85 196.5 192.65 196.2 192.55 M150.1 113.25 L150.0 113.35 149.55 113.45 Q147.9 113.65 146.4 114.15 L145.9 113.45 145.05 112.45 145.05 113.6 145.1 114.35 144.1 114.65 143.6 113.3 Q143.1 111.8 142.5 111.85 142.0 111.95 142.6 115.15 L141.75 115.45 139.6 116.25 138.4 116.75 138.5 116.35 Q138.4 116.0 137.5 116.15 136.8 116.25 136.55 115.55 L136.35 114.85 136.25 113.75 Q136.85 113.35 137.5 113.1 L140.0 112.15 Q142.05 111.25 144.4 110.65 L147.1 110.15 147.55 110.1 149.5 109.85 149.6 110.2 150.1 112.65 150.1 113.25 M115.15 141.85 L116.85 141.6 Q117.85 141.6 118.25 141.95 L118.7 142.5 118.75 142.5 Q118.75 141.8 119.5 140.7 L120.55 139.6 Q120.05 141.95 120.05 144.3 120.05 149.8 122.55 154.2 123.65 156.1 126.15 157.15 L126.35 157.35 Q126.2 157.95 125.35 157.95 124.55 157.95 123.4 157.15 122.75 156.7 122.15 155.85 L120.7 153.85 Q119.15 151.35 118.7 150.0 118.2 148.6 117.5 148.6 116.35 148.6 115.25 150.15 L114.85 150.95 114.25 150.35 114.25 150.1 114.15 147.15 114.05 146.3 114.05 145.7 Q114.05 143.95 115.15 141.85" fill="#bed4e1" fill-rule="evenodd" stroke="none"/>
      <path d="M136.0 117.95 L135.4 118.25 134.6 117.85 134.3 117.6 134.2 117.15 Q134.15 116.75 134.4 115.85 134.6 115.0 134.9 114.5 L135.7 113.95 Q135.25 114.45 135.55 116.4 L135.55 116.45 Q135.7 117.35 136.0 117.95" fill="#bdd4e2" fill-rule="evenodd" stroke="none"/>
      <path d="M135.4 118.25 L135.35 118.3 134.7 118.0 134.4 118.25 134.25 118.1 134.2 118.1 133.9 118.5 133.75 118.25 133.65 118.3 133.5 118.15 133.65 117.75 133.4 118.0 133.35 118.15 133.35 118.1 133.2 118.1 133.05 117.95 133.0 118.1 132.85 117.85 133.0 117.25 133.05 116.95 132.35 116.35 134.5 114.8 134.9 114.5 Q134.6 115.0 134.4 115.85 134.15 116.75 134.2 117.15 L134.3 117.6 134.6 117.85 135.4 118.25" fill="#5f94c0" fill-rule="evenodd" stroke="none"/>
      <path d="M203.15 209.0 L206.6 212.0 206.85 212.2 206.6 212.2 202.75 210.2 203.15 209.0" fill="#111832" fill-rule="evenodd" stroke="none"/>
      <path d="M162.2 193.9 L167.9 197.8 Q166.65 199.4 165.6 202.1 165.0 200.5 164.4 199.65 162.55 196.85 160.5 194.85 L159.9 194.3 162.2 193.9 M162.85 206.05 L162.85 206.0 162.9 205.9 162.85 206.05 M138.45 210.85 L139.5 212.2 138.05 212.2 138.45 210.85 M197.8 206.95 L198.35 208.15 Q199.3 210.35 199.4 212.2 L197.05 212.2 196.1 210.8 197.8 206.95 M165.15 207.45 L165.25 207.55 Q166.85 209.0 172.4 212.2 L167.4 212.2 167.35 212.05 167.35 211.85 167.25 211.65 167.1 210.35 166.6 210.3 163.45 211.2 163.7 210.3 Q164.15 208.95 165.15 207.45" fill="#222943" fill-rule="evenodd" stroke="none"/>
      <path d="M97.75 194.2 L100.55 197.0 109.85 205.85 Q105.2 207.15 100.9 208.9 L100.05 209.35 97.75 206.05 97.75 194.2" fill="#2d354c" fill-rule="evenodd" stroke="none"/>
      <path d="M193.35 160.45 Q197.55 157.8 202.4 154.0 L207.65 149.85 207.65 158.2 199.55 163.5 199.45 163.3 Q199.4 162.85 198.75 162.6 197.1 161.85 197.55 161.1 L193.1 163.6 192.75 161.45 192.9 161.15 193.35 160.45 M206.05 204.85 L207.65 202.3 207.65 204.9 206.2 204.85 206.05 204.85" fill="#fffcf9" fill-rule="evenodd" stroke="none"/>
      <path d="M163.85 186.1 Q166.9 187.4 171.35 188.55 L174.95 189.45 175.85 189.65 175.85 189.8 Q175.25 190.6 175.45 191.85 171.65 191.6 167.7 189.2 164.55 187.25 163.85 186.1 M163.45 185.9 L160.55 186.2 160.4 184.5 160.35 184.3 161.05 184.7 Q162.1 185.3 163.45 185.9 M119.55 203.85 L121.5 203.65 120.0 205.9 119.85 206.15 Q118.7 207.9 117.15 212.2 L115.9 212.2 Q116.8 209.9 118.0 207.3 L119.55 203.85" fill="#778aab" fill-rule="evenodd" stroke="none"/>
      <path d="M193.1 163.6 L197.55 161.1 Q197.1 161.85 198.75 162.6 199.4 162.85 199.45 163.3 L199.55 163.5 193.85 166.85 193.55 167.0 193.1 163.6 M117.7 204.15 L119.55 203.85 118.0 207.3 Q116.8 209.9 115.9 212.2 L112.75 212.2 Q115.55 206.45 117.25 204.2 L117.7 204.15" fill="#bfd5e2" fill-rule="evenodd" stroke="none"/>
      <path d="M199.55 163.5 L207.65 158.2 207.65 159.75 206.75 160.95 204.2 163.65 202.25 165.35 Q203.2 165.35 206.2 163.6 L206.25 163.6 Q205.6 164.0 200.75 170.0 L194.45 177.65 Q193.2 179.3 191.35 182.65 L193.2 172.35 193.4 171.05 193.55 170.5 193.5 170.5 193.85 166.85 199.55 163.5 M177.55 202.85 L178.95 203.3 178.35 205.0 Q176.75 209.85 176.45 212.2 L174.5 212.2 Q173.85 211.6 173.85 211.15 176.7 207.65 177.55 202.85 M180.7 203.75 L186.35 204.55 187.55 206.85 Q188.25 208.25 189.25 212.2 L187.75 212.2 185.1 206.0 184.6 209.3 184.15 212.2 178.6 212.2 Q178.85 210.85 179.45 208.65 L179.9 206.7 180.7 203.75" fill="#15dbff" fill-rule="evenodd" stroke="none"/>
      <path d="M188.85 116.0 L189.4 116.95 189.9 117.8 190.9 119.8 190.95 120.0 191.6 121.65 Q192.55 124.15 193.1 126.95 L194.75 136.5 194.95 138.6 Q195.25 141.65 195.15 144.75 L194.7 144.65 192.35 146.95 191.7 147.6 190.2 148.95 188.55 152.7 188.65 150.25 188.6 149.2 188.7 148.2 188.7 144.65 Q188.75 142.3 187.7 136.0 L186.95 132.75 Q186.25 127.9 184.75 124.45 L184.55 123.85 184.1 123.1 184.1 123.0 183.4 121.8 181.85 118.95 183.7 121.35 184.1 121.95 Q186.75 125.85 187.95 129.8 L188.1 130.85 188.35 131.1 188.4 131.15 Q189.1 131.8 189.55 131.85 190.25 131.95 190.85 130.35 L191.0 129.9 191.4 128.65 189.65 123.2 Q187.35 116.8 184.4 112.1 180.7 106.2 179.05 102.15 L181.45 102.15 184.6 108.35 188.85 116.0 M177.1 118.95 Q178.55 120.1 179.9 122.45 L180.9 124.65 181.9 127.75 182.2 128.75 183.05 131.5 183.35 130.25 Q185.2 133.6 186.1 138.95 185.55 139.0 185.05 139.5 184.35 140.2 184.35 141.5 184.35 142.2 185.05 142.65 L185.25 142.8 185.1 144.3 Q184.85 146.15 184.05 148.3 L182.95 150.75 181.4 153.3 181.4 152.95 181.0 149.85 Q180.1 143.05 179.35 140.0 L178.75 137.8 Q178.1 135.7 177.45 134.65 L177.85 134.95 178.2 135.2 178.35 135.3 178.45 135.35 178.9 135.6 178.75 131.0 178.2 123.6 Q177.75 120.85 177.1 118.95 M179.7 134.95 L179.6 136.0 179.45 137.65 180.75 140.95 Q181.45 142.8 181.85 146.65 L181.95 145.1 182.1 142.2 181.85 137.2 181.55 134.6 181.45 134.3 Q180.7 134.3 180.1 133.6 179.7 133.0 179.6 132.3 L179.7 134.95 M177.7 158.5 L175.85 156.85 167.55 148.0 167.0 147.8 164.0 147.0 162.4 146.6 155.25 144.3 147.85 142.0 146.55 140.15 142.95 135.8 146.55 140.15 147.85 142.0 147.4 141.85 145.35 141.2 Q145.4 143.3 146.05 145.95 146.7 149.1 148.1 153.0 L149.1 155.65 151.55 156.65 152.45 156.9 152.5 162.8 152.5 163.85 151.6 163.2 Q150.0 162.15 148.6 162.15 L148.6 160.45 148.6 159.5 148.3 157.3 147.5 153.95 Q146.5 150.35 143.7 145.0 140.9 139.65 138.35 136.45 L137.4 135.35 138.2 135.45 Q139.35 135.45 139.7 135.0 138.05 133.35 134.7 131.65 L131.4 130.15 130.9 128.8 134.4 130.0 137.0 130.85 Q139.65 132.15 142.95 135.8 L142.4 134.8 142.5 134.8 144.35 135.1 147.2 135.7 149.25 136.15 157.7 137.0 159.7 136.85 159.85 136.65 160.25 135.35 Q160.25 134.5 159.7 133.8 L159.4 133.45 160.55 133.85 Q162.1 134.45 163.85 135.5 L170.05 139.5 Q175.1 142.65 178.85 147.45 L178.25 149.15 Q177.35 151.7 177.1 153.65 176.75 156.15 177.7 158.5 M192.4 174.8 L192.45 174.5 192.9 173.05 193.4 171.05 193.2 172.35 191.35 182.65 Q193.2 179.3 194.45 177.65 L200.75 170.0 Q205.6 164.0 206.25 163.6 L206.2 163.6 Q203.2 165.35 202.25 165.35 L204.2 163.65 206.75 160.95 207.65 159.75 207.65 172.25 Q205.5 178.15 202.35 183.2 L196.45 192.15 196.2 192.55 195.7 192.35 195.05 192.15 193.9 191.7 193.4 191.7 193.4 192.5 189.6 191.0 Q189.4 188.55 188.95 187.3 L187.25 186.7 Q188.65 184.45 190.1 181.0 L191.55 177.3 191.9 176.3 191.95 176.05 192.4 174.8 M193.5 170.5 L193.35 170.5 193.4 170.0 193.55 167.0 193.85 166.85 193.5 170.5 M181.45 184.8 L181.5 185.4 180.85 185.35 181.45 184.8 M184.9 184.05 L185.05 183.8 185.05 184.0 184.9 184.05 M167.9 197.8 L173.1 201.05 177.55 202.85 Q176.7 207.65 173.85 211.15 173.85 211.6 174.5 212.2 L172.4 212.2 Q166.85 209.0 165.25 207.55 L165.15 207.45 166.1 206.2 166.2 206.15 166.4 204.4 165.6 202.1 Q166.65 199.4 167.9 197.8 M178.95 203.3 L180.7 203.75 179.9 206.7 179.45 208.65 Q178.85 210.85 178.6 212.2 L176.45 212.2 Q176.75 209.85 178.35 205.0 L178.95 203.3 M97.75 158.1 L99.15 160.15 101.2 163.05 Q103.95 166.75 107.15 170.2 110.7 174.05 120.15 180.7 L125.0 184.0 126.25 184.95 Q126.4 185.0 126.55 185.15 L128.35 186.2 Q132.75 184.85 133.7 184.65 136.9 183.7 139.85 183.7 142.0 183.7 144.1 184.45 L133.65 177.7 127.35 173.55 Q117.9 167.2 111.85 163.85 107.35 161.35 102.95 158.1 L97.75 153.95 97.75 149.45 106.4 156.85 Q111.75 161.45 121.75 166.7 L127.65 169.65 Q134.55 172.7 138.4 172.7 140.75 174.45 142.7 176.5 144.45 178.35 145.85 180.45 148.6 184.3 149.4 188.0 L149.45 188.2 149.55 188.7 149.0 188.45 145.55 188.3 137.45 189.05 137.1 189.15 Q133.9 189.75 130.75 190.85 L125.75 193.0 Q119.1 191.5 111.7 185.8 L110.4 184.8 107.2 182.0 107.15 181.95 Q101.65 176.9 97.95 171.6 L97.8 171.35 97.75 171.3 97.75 158.1 M160.55 160.6 L161.1 161.0 160.3 160.7 160.55 160.6 M184.15 212.2 L184.6 209.3 185.1 206.0 187.75 212.2 184.15 212.2" fill="#0397c7" fill-rule="evenodd" stroke="none"/>
      <path d="M186.95 132.75 L187.7 136.0 Q188.75 142.3 188.7 144.65 L188.7 148.2 188.6 149.2 188.4 150.45 188.4 150.5 188.05 153.6 187.9 153.85 186.4 156.15 182.35 161.25 182.35 161.15 181.4 153.3 182.95 150.75 184.05 148.3 Q184.85 146.15 185.1 144.3 L185.25 142.8 185.05 142.65 Q184.35 142.2 184.35 141.5 184.35 140.2 185.05 139.5 185.55 139.0 186.1 138.95 185.2 133.6 183.35 130.25 L183.7 126.65 183.6 125.65 Q185.75 128.6 186.95 132.75 M182.65 166.45 L182.85 166.5 182.7 166.65 182.65 166.45 M186.35 204.55 L188.1 204.5 188.9 204.4 Q189.3 204.0 189.55 198.95 L190.35 200.05 191.45 202.05 191.55 202.2 191.85 202.3 Q194.35 202.85 195.45 203.85 L196.95 205.5 197.8 206.95 196.1 210.8 195.45 212.2 189.25 212.2 Q188.25 208.25 187.55 206.85 L186.35 204.55 M203.6 204.75 L205.15 204.8 206.05 204.85 206.2 204.85 207.65 204.9 207.65 208.05 205.8 206.6 203.65 204.95 203.6 204.75 M152.5 163.85 L152.5 162.8 152.45 156.9 158.25 158.6 160.55 160.6 160.3 160.7 159.05 161.15 Q156.6 162.2 156.1 163.0 156.2 165.2 156.75 168.7 157.55 174.15 159.0 178.35 L154.35 174.65 152.2 172.7 148.3 168.5 Q150.1 166.95 150.85 165.3 L152.5 165.85 152.55 164.6 152.55 163.95 152.5 163.85 M97.75 117.3 Q104.4 122.9 115.2 128.05 L115.75 128.3 128.2 133.7 135.05 136.6 136.1 137.15 Q139.4 139.35 142.55 145.65 145.8 152.15 146.5 157.1 L146.6 158.3 147.05 163.55 147.05 163.65 146.95 163.75 146.75 164.15 140.2 160.35 137.1 158.2 135.0 156.8 135.1 152.75 Q134.85 147.4 132.5 143.45 L132.05 142.7 Q130.6 140.5 128.8 139.3 L128.55 139.1 Q126.35 137.5 123.75 137.5 L123.0 137.5 121.0 137.7 Q117.2 138.35 115.85 140.65 L115.15 141.85 Q114.05 143.95 114.05 145.7 L114.05 146.3 114.05 147.15 114.15 147.15 114.25 150.1 114.25 150.35 114.15 150.65 113.7 151.1 112.05 150.15 Q109.95 148.75 106.7 145.2 L106.55 145.0 103.4 141.45 102.35 138.95 101.75 136.45 103.35 138.3 Q104.85 139.95 105.5 139.95 L105.5 139.85 Q100.4 129.0 97.75 122.4 L97.75 117.3 M147.05 164.0 L149.25 164.8 147.1 164.15 147.05 164.0 M97.75 134.95 L97.75 134.75 98.0 135.2 97.75 134.95 M109.85 205.85 Q113.5 204.85 117.25 204.2 115.55 206.45 112.75 212.2 L97.75 212.2 97.75 210.35 100.05 209.35 100.9 208.9 Q105.2 207.15 109.85 205.85" fill="#0b7293" fill-rule="evenodd" stroke="none"/>
      <path d="M203.65 204.95 L205.8 206.6 207.65 208.05 207.65 212.2 206.85 212.2 206.6 212.0 203.15 209.0 203.7 206.2 203.65 204.95" fill="#0198c5" fill-rule="evenodd" stroke="none"/>
      <path d="M187.45 176.2 L187.9 175.8 Q189.4 174.5 190.85 174.5 L191.05 174.5 Q189.95 179.55 186.35 183.3 186.2 183.2 185.05 184.0 L185.05 183.8 186.9 178.2 187.45 176.2 M191.75 174.55 L192.4 174.8 191.95 176.05 191.9 176.3 191.75 174.95 191.75 174.55" fill="#f8db5b" fill-rule="evenodd" stroke="none"/>
      <path d="M191.05 174.5 L191.55 172.7 191.75 174.55 191.75 174.95 191.9 176.3 191.55 177.3 190.1 181.0 Q188.65 184.45 187.25 186.7 L185.2 186.15 185.05 184.0 Q186.2 183.2 186.35 183.3 189.95 179.55 191.05 174.5" fill="#fefaf7" fill-rule="evenodd" stroke="none"/>
      <path d="M187.95 129.8 Q186.75 125.85 184.1 121.95 L183.45 118.5 183.45 118.15 183.55 118.1 Q184.25 118.15 185.55 120.8 186.75 123.1 187.35 125.25 L187.95 129.8 M176.35 102.15 Q178.1 108.05 180.1 111.15 L178.25 108.8 175.75 105.35 174.65 102.15 176.35 102.15" fill="#f5ffff" fill-rule="evenodd" stroke="none"/>
      <path d="M179.05 102.15 Q180.7 106.2 184.4 112.1 187.35 116.8 189.65 123.2 L191.4 128.65 191.0 129.9 190.85 130.35 Q190.25 131.95 189.55 131.85 189.1 131.8 188.4 131.15 L188.35 131.1 188.1 130.85 187.95 129.8 187.35 125.25 Q186.75 123.1 185.55 120.8 184.25 118.15 183.55 118.1 L183.45 118.15 183.45 118.5 184.1 121.95 183.7 121.35 181.85 118.95 179.15 113.55 176.7 107.95 175.75 105.35 178.25 108.8 180.1 111.15 Q178.1 108.05 176.35 102.15 L179.05 102.15 M128.35 127.9 L130.9 128.8 131.4 130.15 134.7 131.65 Q138.05 133.35 139.7 135.0 139.35 135.45 138.2 135.45 L137.4 135.35 138.35 136.45 Q140.9 139.65 143.7 145.0 146.5 150.35 147.5 153.95 L148.3 157.3 148.6 159.5 148.6 160.45 148.6 162.15 Q150.0 162.15 151.6 163.2 L152.5 163.85 152.55 163.95 152.55 164.6 152.5 165.85 150.85 165.3 149.25 164.8 147.05 164.0 147.05 163.65 147.05 163.55 146.6 158.3 146.5 157.1 Q145.8 152.15 142.55 145.65 139.4 139.35 136.1 137.15 135.7 136.8 135.1 136.6 L128.2 133.2 124.15 131.0 116.15 126.9 115.85 126.75 115.5 126.6 Q115.05 125.85 114.75 124.0 L114.75 122.5 116.05 122.3 116.75 122.65 119.1 123.9 120.25 124.45 128.35 127.9 M102.55 113.3 L105.05 116.45 Q106.55 118.15 107.7 118.85 L107.5 121.95 Q103.7 119.5 99.55 116.15 L98.7 115.45 97.95 114.85 97.75 114.7 97.75 108.85 100.15 111.2 101.2 112.15 102.55 113.3 M110.9 122.75 L111.05 120.5 113.2 121.35 113.4 124.5 113.55 125.35 111.9 124.5 111.15 124.1 111.0 124.0 110.9 122.75 M97.75 122.4 Q100.4 129.0 105.5 139.85 L105.5 139.95 Q104.85 139.95 103.35 138.3 L101.75 136.45 102.35 138.95 103.4 141.45 98.0 135.2 97.75 134.75 97.75 122.4 M97.75 153.95 L102.95 158.1 Q107.35 161.35 111.85 163.85 117.9 167.2 127.35 173.55 L133.65 177.7 144.1 184.45 Q142.0 183.7 139.85 183.7 136.9 183.7 133.7 184.65 132.75 184.85 128.35 186.2 L126.55 185.15 Q126.4 185.0 126.25 184.95 L125.0 184.0 120.15 180.7 Q110.7 174.05 107.15 170.2 103.95 166.75 101.2 163.05 L99.15 160.15 97.75 158.1 97.75 153.95 M147.1 164.15 L147.05 164.1 147.05 164.0 147.1 164.15" fill="#14dafd" fill-rule="evenodd" stroke="none"/>
      <path d="M189.6 191.0 L193.4 192.5 193.25 194.3 193.35 196.5 Q195.3 198.6 199.15 201.35 L199.35 201.55 200.7 202.55 201.0 202.75 203.55 204.5 203.6 204.75 203.65 204.95 203.7 206.2 203.15 209.0 202.75 210.2 202.05 212.2 201.8 212.2 201.85 211.05 201.8 209.8 Q201.6 208.05 200.9 206.35 200.25 204.7 199.1 203.05 197.3 200.4 195.1 199.35 194.0 198.85 192.85 198.7 L192.75 198.7 190.9 196.2 189.65 194.95 189.6 191.0" fill="#db9221" fill-rule="evenodd" stroke="none"/>
      <path d="M193.4 192.5 L193.4 191.7 193.9 191.7 195.05 192.15 Q194.55 193.4 194.35 195.1 L194.25 195.75 194.2 196.2 194.35 196.5 196.85 199.35 199.15 201.35 Q195.3 198.6 193.35 196.5 L193.25 194.3 193.4 192.5" fill="#2ff4fc" fill-rule="evenodd" stroke="none"/>
      <path d="M195.05 192.15 L195.7 192.35 196.2 192.55 Q196.5 192.65 196.6 192.85 196.35 193.3 196.25 193.8 195.95 194.55 195.95 195.45 195.95 196.0 196.25 196.3 L197.85 197.45 199.4 198.55 201.05 199.7 202.9 201.0 203.75 201.55 Q203.75 203.5 203.9 204.65 L203.55 204.5 201.0 202.75 200.7 202.55 199.35 201.55 199.15 201.35 196.85 199.35 194.35 196.5 194.2 196.2 194.25 195.75 194.35 195.1 Q194.55 193.4 195.05 192.15 M199.4 195.2 L199.45 194.85 199.85 194.85 Q201.2 195.35 201.7 195.85 L201.6 197.3 201.4 198.05 199.2 197.05 199.35 196.45 199.4 195.2" fill="#01b4ca" fill-rule="evenodd" stroke="none"/>
      <path d="M196.25 193.8 Q196.7 193.95 199.4 195.2 L199.35 196.45 199.2 197.05 201.4 198.05 201.6 197.3 202.35 199.3 202.9 201.0 201.05 199.7 199.4 198.55 197.85 197.45 196.25 196.3 Q195.95 196.0 195.95 195.45 195.95 194.55 196.25 193.8" fill="#dc941e" fill-rule="evenodd" stroke="none"/>
      <path d="M196.95 205.5 L197.4 205.5 198.25 205.55 Q199.95 205.65 200.9 206.35 201.6 208.05 201.8 209.8 L201.85 211.05 201.8 212.2 199.4 212.2 Q199.3 210.35 198.35 208.15 L197.8 206.95 196.95 205.5" fill="#f6d854" fill-rule="evenodd" stroke="none"/>
      <path d="M191.45 202.05 L192.85 198.7 Q194.0 198.85 195.1 199.35 197.3 200.4 199.1 203.05 200.25 204.7 200.9 206.35 199.95 205.65 198.25 205.55 L197.4 205.5 196.95 205.5 195.45 203.85 Q194.35 202.85 191.85 202.3 L191.55 202.2 191.45 202.05 M132.05 199.15 L136.5 197.05 Q139.95 195.65 144.1 195.6 L147.4 196.95 149.25 197.85 Q151.2 198.8 152.4 199.65 L153.55 200.55 153.6 200.65 153.85 200.85 154.0 201.05 154.1 201.3 Q155.4 202.85 156.25 204.85 L155.1 206.35 153.9 208.0 153.5 208.5 152.25 209.65 151.1 209.05 149.7 207.5 Q150.4 206.15 151.25 205.3 L153.35 203.4 151.35 203.05 150.4 203.0 149.55 203.0 Q148.5 203.7 147.25 205.2 L146.7 206.0 144.35 206.0 145.6 207.8 145.5 208.05 148.4 211.15 149.8 212.2 139.5 212.2 138.45 210.85 136.9 208.65 133.75 203.4 Q132.65 201.3 132.05 199.15 M160.15 212.2 Q160.45 209.75 161.6 207.7 L162.85 206.05 162.9 205.9 164.0 205.85 164.45 205.85 166.2 206.15 166.1 206.2 165.15 207.45 Q164.15 208.95 163.7 210.3 L163.45 211.2 163.3 212.2 160.15 212.2" fill="#bc6c0b" fill-rule="evenodd" stroke="none"/>
      <path d="M163.85 186.1 Q164.55 187.25 167.7 189.2 171.65 191.6 175.45 191.85 L176.25 191.85 177.25 191.85 178.9 191.65 180.75 191.2 179.95 191.55 178.85 192.05 177.7 192.45 172.85 193.45 171.7 193.2 172.55 194.35 Q173.9 195.55 176.55 195.8 L184.35 196.8 Q182.85 197.65 179.75 198.7 L176.9 199.65 Q179.4 201.0 183.6 202.8 L184.85 203.3 185.75 203.65 188.1 204.5 186.35 204.55 180.7 203.75 178.95 203.3 177.55 202.85 173.1 201.05 167.9 197.8 162.2 193.9 153.1 186.9 152.85 186.3 159.35 186.2 160.55 186.2 163.45 185.9 163.85 186.1" fill="#e8b72a" fill-rule="evenodd" stroke="none"/>
      <path d="M181.5 185.4 L182.65 185.55 184.75 186.0 185.2 186.15 187.25 186.7 188.95 187.3 Q189.4 188.55 189.6 191.0 L189.65 194.95 189.6 196.95 189.55 198.95 Q189.3 204.0 188.9 204.4 L188.1 204.5 185.75 203.65 184.85 203.3 183.6 202.8 Q179.4 201.0 176.9 199.65 L179.75 198.7 Q182.85 197.65 184.35 196.8 L176.55 195.8 Q173.9 195.55 172.55 194.35 L171.7 193.2 172.85 193.45 177.7 192.45 178.85 192.05 179.95 191.55 180.75 191.2 181.25 191.0 183.95 189.45 184.25 188.75 Q184.3 187.85 183.2 187.15 182.6 186.75 181.55 186.4 L180.15 186.0 180.85 185.35 181.5 185.4" fill="#f9f6a9" fill-rule="evenodd" stroke="none"/>
      <path d="M176.85 189.15 L180.15 186.0 181.55 186.4 Q182.6 186.75 183.2 187.15 184.3 187.85 184.25 188.75 L183.95 189.45 181.25 191.0 180.75 191.2 178.9 191.65 177.25 191.85 176.85 189.15" fill="#e7ba29" fill-rule="evenodd" stroke="none"/>
      <path d="M179.5 178.7 L179.95 178.7 180.5 178.7 181.7 178.45 181.9 178.35 181.7 179.0 181.45 179.55 179.75 183.15 178.9 184.55 178.5 185.25 178.3 185.6 176.7 187.9 176.45 188.15 176.35 188.3 176.1 188.3 175.3 188.15 171.45 187.15 Q168.4 186.15 166.85 185.15 L166.35 184.8 164.0 183.05 163.9 179.35 159.5 175.2 159.1 173.2 158.6 169.5 159.0 169.55 159.55 169.55 Q159.9 171.3 161.6 172.8 164.9 175.55 171.85 175.55 L172.1 175.55 172.7 176.2 Q173.45 176.85 174.05 176.85 L173.9 176.55 175.6 177.3 Q175.6 176.95 176.05 176.95 L177.25 177.85 177.3 177.9 179.5 178.7 M176.95 183.5 L177.25 183.5 177.55 182.55 Q177.4 181.95 176.75 181.65 L174.7 181.55 172.25 182.45 170.25 183.3 169.1 183.5 176.95 183.5 M173.35 185.05 L173.2 185.8 174.55 186.45 175.7 186.05 175.9 185.8 176.1 185.0 173.35 185.05" fill="#fffcfb" fill-rule="evenodd" stroke="none"/>
      <path d="M170.25 183.3 L172.25 182.45 174.7 181.55 176.75 181.65 Q177.4 181.95 177.55 182.55 L177.25 183.5 176.95 183.5 Q176.7 183.15 176.7 182.7 L173.25 182.65 170.25 183.3" fill="#bdd3e1" fill-rule="evenodd" stroke="none"/>
      <path d="M170.25 183.3 L173.25 182.65 176.7 182.7 Q176.7 183.15 176.95 183.5 L169.1 183.5 170.25 183.3" fill="#6284b2" fill-rule="evenodd" stroke="none"/>
      <path d="M181.9 127.75 L182.25 124.75 182.25 124.15 183.25 125.15 183.6 125.65 183.7 126.65 183.35 130.25 183.05 131.5 182.2 128.75 181.9 127.75 M177.1 118.95 Q177.75 120.85 178.2 123.6 L178.75 131.0 178.9 135.6 178.45 135.35 178.35 135.3 178.2 135.2 177.85 134.95 177.45 134.65 177.45 134.6 177.4 134.5 177.35 134.35 176.95 129.65 Q176.85 126.6 176.4 124.45 L175.1 117.95 176.55 118.5 177.1 118.95 M179.7 134.95 L179.6 132.3 Q179.7 133.0 180.1 133.6 180.7 134.3 181.45 134.3 L181.55 134.6 181.85 137.2 182.1 142.2 181.95 145.1 181.85 146.65 Q181.45 142.8 180.75 140.95 L179.45 137.65 179.6 136.0 179.7 134.95 M177.7 158.5 Q176.75 156.15 177.1 153.65 177.35 151.7 178.25 149.15 L178.85 147.45 Q175.1 142.65 170.05 139.5 L163.85 135.5 Q162.1 134.45 160.55 133.85 L159.4 133.45 159.7 133.8 Q160.25 134.5 160.25 135.35 L159.85 136.65 159.7 136.85 157.7 137.0 149.25 136.15 147.2 135.7 144.35 135.1 142.75 134.8 142.5 134.8 142.4 134.8 141.9 133.95 141.55 133.35 143.25 133.6 149.5 133.7 155.55 133.5 155.1 132.1 153.55 126.25 Q152.85 122.95 151.7 120.6 L151.6 120.45 Q154.5 120.8 157.6 122.1 L164.7 127.0 Q167.9 129.35 172.9 134.45 L176.05 137.7 178.05 140.1 178.45 140.7 178.6 141.3 179.85 149.1 179.9 149.5 180.45 154.5 Q180.85 158.3 180.85 160.8 179.35 159.9 177.7 158.5" fill="#15dbfe" fill-rule="evenodd" stroke="none"/>
      <path d="M177.45 134.65 Q178.1 135.7 178.75 137.8 L179.35 140.0 Q180.1 143.05 181.0 149.85 L181.4 152.95 181.4 153.3 182.35 161.15 182.35 161.25 182.1 161.5 180.85 160.8 Q180.85 158.3 180.45 154.5 L179.9 149.5 179.85 149.1 178.6 141.3 178.45 140.7 178.05 140.1 176.05 137.7 172.9 134.45 Q167.9 129.35 164.7 127.0 L157.6 122.1 Q162.1 123.8 167.2 127.3 L177.35 134.5 177.45 134.6 177.45 134.65 M182.45 166.3 L182.65 166.45 182.7 166.65 182.45 166.85 182.45 166.3" fill="#f5fffe" fill-rule="evenodd" stroke="none"/>
      <path d="M162.1 161.8 L162.1 161.85 162.05 163.0 162.25 165.8 162.2 165.85 162.1 165.95 161.9 166.7 Q161.9 167.35 162.6 167.65 163.05 169.0 163.75 170.15 L163.25 168.55 163.1 167.7 164.05 167.8 164.4 167.8 165.35 168.85 165.7 169.0 167.25 169.5 167.85 169.55 169.55 169.15 169.75 169.0 169.85 169.0 Q170.25 169.15 171.05 169.85 L172.25 170.95 172.4 171.5 172.4 171.55 172.45 172.65 Q162.35 174.05 161.5 168.15 160.55 162.2 161.4 161.7 L162.1 161.8 M162.95 162.5 L163.3 162.75 163.6 165.45 162.9 165.5 162.85 164.45 162.95 162.5" fill="#8cf526" fill-rule="evenodd" stroke="none"/>
      <path d="M162.1 161.85 L162.95 162.5 162.85 164.45 162.9 165.5 162.4 165.7 162.25 165.8 162.05 163.0 162.1 161.85 M162.6 167.65 L163.1 167.7 163.25 168.55 163.75 170.15 Q163.05 169.0 162.6 167.65 M169.85 169.0 L170.05 168.8 170.55 168.4 172.35 169.8 174.05 171.1 174.35 172.15 174.55 173.8 174.55 175.35 172.55 174.2 167.85 174.35 164.85 173.55 Q163.2 172.95 161.6 171.5 L161.1 170.55 161.05 170.5 Q159.75 167.8 159.75 164.45 L159.85 161.5 161.4 161.7 Q160.55 162.2 161.5 168.15 162.35 174.05 172.45 172.65 L172.4 171.55 Q172.55 171.2 172.25 170.95 L171.05 169.85 Q170.25 169.15 169.85 169.0 M132.5 143.45 Q134.85 147.4 135.1 152.75 L135.0 156.8 137.1 158.2 Q137.0 159.1 136.0 159.6 L134.25 160.1 Q132.0 160.35 129.85 159.6 L129.7 159.5 129.35 159.35 129.05 159.2 126.35 157.35 126.05 157.1 124.25 154.8 Q122.05 151.6 121.85 147.3 121.65 143.0 122.9 139.45 123.25 138.35 123.75 137.5 126.35 137.5 128.55 139.1 126.85 140.45 125.7 142.95 124.35 145.85 124.35 148.5 124.35 152.1 127.9 155.15 130.85 157.6 133.85 158.3 129.9 155.45 129.0 154.15 128.0 152.8 127.75 150.65 127.55 148.5 128.4 147.0 L129.5 145.6 129.7 146.5 130.0 147.15 130.4 147.85 130.7 148.1 131.15 148.15 Q131.55 148.15 131.75 147.7 L131.9 146.65 Q131.9 145.45 131.4 144.65 L131.05 144.2 132.5 143.45 M131.85 148.45 Q131.65 148.45 131.55 148.8 L131.65 149.45 Q131.65 150.8 132.5 150.8 133.0 150.8 133.0 150.15 L133.0 149.9 132.55 148.45 131.85 148.45" fill="#019408" fill-rule="evenodd" stroke="none"/>
      <path d="M162.25 165.8 L162.4 165.7 162.9 165.5 163.6 165.45 Q165.75 165.45 165.9 166.2 166.05 166.95 165.7 167.45 165.35 167.95 164.4 167.8 L164.05 167.8 163.1 167.7 162.6 167.65 Q161.9 167.35 161.9 166.7 L162.1 165.95 162.2 165.85 162.25 165.8" fill="#fffdfe" fill-rule="evenodd" stroke="none"/>
      <path d="M165.2 164.3 L167.75 166.2 170.55 168.4 170.05 168.8 169.85 169.0 Q169.55 168.85 169.55 169.15 L167.85 169.55 167.25 169.5 165.7 169.0 165.35 168.85 164.4 167.8 Q165.35 167.95 165.7 167.45 166.05 166.95 165.9 166.2 165.75 165.45 163.6 165.45 L163.3 162.75 164.35 163.6 165.2 164.3" fill="#029308" fill-rule="evenodd" stroke="none"/>
      <path d="M116.05 122.3 L114.75 122.5 114.75 124.0 Q115.05 125.85 115.5 126.6 L115.85 126.75 116.15 126.9 124.15 131.0 128.2 133.2 135.1 136.6 135.05 136.6 128.2 133.7 115.75 128.3 115.2 128.05 Q104.4 122.9 97.75 117.3 L97.75 114.7 97.95 114.85 98.7 115.45 99.55 116.15 Q103.7 119.5 107.5 121.95 L107.7 118.85 Q106.55 118.15 105.05 116.45 L102.55 113.3 Q108.4 118.25 116.05 122.3 M129.7 159.5 L129.85 159.6 Q132.0 160.35 134.25 160.1 L136.0 159.6 136.35 159.85 Q134.35 161.45 132.35 162.2 L129.85 162.85 128.5 162.65 128.05 162.65 128.05 163.85 Q127.85 164.7 127.25 164.7 125.35 164.15 125.35 163.6 L125.7 162.3 Q124.0 161.95 122.05 160.1 L119.65 157.5 Q119.25 158.15 119.25 160.15 L117.95 159.3 116.2 155.95 114.65 151.45 114.85 150.95 115.25 150.15 Q116.35 148.6 117.5 148.6 118.2 148.6 118.7 150.0 119.15 151.35 120.7 153.85 L122.15 155.85 Q122.4 156.65 123.2 157.6 125.05 159.65 128.15 159.65 L129.05 159.45 129.7 159.5 M110.9 122.75 L111.0 124.0 111.15 124.1 111.9 124.5 113.55 125.35 113.4 124.5 113.2 121.35 111.05 120.5 110.9 122.75" fill="#f4ffff" fill-rule="evenodd" stroke="none"/>
      <path d="M123.75 137.5 Q123.25 138.35 122.9 139.45 121.65 143.0 121.85 147.3 122.05 151.6 124.25 154.8 L126.05 157.1 126.15 157.15 Q123.65 156.1 122.55 154.2 120.05 149.8 120.05 144.3 120.05 141.95 120.55 139.6 L119.5 140.7 Q118.75 141.8 118.75 142.5 L118.7 142.5 118.25 141.95 Q117.85 141.6 116.85 141.6 L115.15 141.85 115.85 140.65 Q117.2 138.35 121.0 137.7 L123.0 137.5 123.75 137.5 M126.35 157.35 L129.05 159.2 129.35 159.35 129.05 159.45 128.15 159.65 Q125.05 159.65 123.2 157.6 122.4 156.65 122.15 155.85 122.75 156.7 123.4 157.15 124.55 157.95 125.35 157.95 126.2 157.95 126.35 157.35" fill="#5e83b0" fill-rule="evenodd" stroke="none"/>
      <path d="M188.55 152.7 L190.2 148.95 191.7 147.6 190.9 149.65 191.1 149.8 191.7 150.45 191.95 150.45 193.7 150.3 191.35 152.65 190.9 153.1 190.45 154.35 189.45 156.6 188.65 158.1 188.25 158.8 188.6 157.6 188.8 157.05 189.2 155.5 189.85 152.45 188.45 153.45 188.05 153.75 187.9 153.85 188.05 153.6 188.55 152.7 M162.4 146.6 L164.0 147.0 167.0 147.8 Q167.5 148.95 169.05 151.15 170.55 153.45 170.9 154.5 L170.4 153.85 170.1 153.65 169.9 153.5 169.85 154.85 169.9 157.5 Q170.2 159.45 171.2 161.8 L171.75 162.95 173.2 165.45 173.6 166.2 174.55 167.5 174.85 168.0 Q175.6 169.65 176.35 170.15 L173.15 168.65 171.2 167.7 167.75 166.2 165.2 164.3 172.85 166.65 171.55 164.9 Q169.2 161.35 168.5 157.0 168.1 155.1 167.4 154.0 L166.0 151.7 165.6 151.65 163.75 151.1 163.1 150.95 161.6 150.35 162.4 150.35 166.75 150.65 165.85 148.6 165.1 148.15 162.4 146.6 M131.05 144.2 L131.4 144.65 Q131.9 145.45 131.9 146.65 L131.75 147.7 Q131.55 148.15 131.15 148.15 L130.7 148.1 130.4 147.85 130.0 147.15 129.7 146.5 129.5 145.6 129.4 145.0 Q129.4 143.95 130.1 143.85 L130.2 143.85 Q130.7 143.85 131.05 144.2 M131.85 148.45 L132.55 148.45 133.0 149.9 133.0 150.15 Q133.0 150.8 132.5 150.8 131.65 150.8 131.65 149.45 L131.55 148.8 Q131.65 148.45 131.85 148.45" fill="#fffffb" fill-rule="evenodd" stroke="none"/>
      <path d="M128.55 139.1 L128.8 139.3 Q130.6 140.5 132.05 142.7 L132.5 143.45 131.05 144.2 Q130.7 143.85 130.2 143.85 L130.1 143.85 Q129.4 143.95 129.4 145.0 L129.5 145.6 128.4 147.0 Q127.55 148.5 127.75 150.65 128.0 152.8 129.0 154.15 129.9 155.45 133.85 158.3 130.85 157.6 127.9 155.15 124.35 152.1 124.35 148.5 124.35 145.85 125.7 142.95 126.85 140.45 128.55 139.1" fill="#8cf527" fill-rule="evenodd" stroke="none"/>
      <path d="M119.25 160.15 Q119.25 158.15 119.65 157.5 L122.05 160.1 Q124.0 161.95 125.7 162.3 L125.35 163.6 Q125.35 164.15 127.25 164.7 127.85 164.7 128.05 163.85 L128.05 162.65 128.5 162.65 129.85 162.85 132.35 162.2 Q134.35 161.45 136.35 159.85 L137.9 161.6 Q139.4 163.35 139.25 164.5 139.5 164.2 140.4 164.2 142.1 164.2 142.25 168.0 139.3 169.0 134.85 169.0 130.25 166.8 125.5 164.0 L119.25 160.15" fill="#c0d3e1" fill-rule="evenodd" stroke="none"/>
      <path d="M147.05 163.65 L147.05 164.0 147.05 164.1 147.1 164.15 149.25 164.8 150.85 165.3 Q150.1 166.95 148.3 168.5 L147.0 169.5 Q144.8 171.0 140.35 171.4 L139.85 171.2 134.85 169.0 Q139.3 169.0 142.25 168.0 L143.05 167.65 Q145.0 166.85 146.6 164.35 L146.75 164.15 146.95 163.75 147.05 163.65" fill="#2d3450" fill-rule="evenodd" stroke="none"/>
      <path d="M137.1 158.2 L140.2 160.35 146.75 164.15 146.6 164.35 Q145.0 166.85 143.05 167.65 L142.25 168.0 Q142.1 164.2 140.4 164.2 139.5 164.2 139.25 164.5 139.4 163.35 137.9 161.6 L136.35 159.85 136.0 159.6 Q137.0 159.1 137.1 158.2" fill="#7687a5" fill-rule="evenodd" stroke="none"/>
      <path d="M144.1 195.6 Q148.6 195.6 153.95 197.2 L154.1 199.3 154.0 201.05 153.85 200.85 153.6 200.65 153.55 200.55 152.4 199.65 Q151.2 198.8 149.25 197.85 L147.4 196.95 144.1 195.6" fill="#4a8ba7" fill-rule="evenodd" stroke="none"/>
      <path d="M154.85 197.5 L155.85 197.85 155.55 194.9 155.9 195.05 156.2 195.2 Q157.75 196.0 159.1 197.55 L160.75 199.85 161.55 201.3 162.0 202.15 162.75 205.2 162.85 206.0 162.85 206.05 161.6 207.7 Q160.45 209.75 160.15 212.2 L154.65 212.2 157.0 209.35 Q158.7 206.65 159.0 203.9 L159.05 202.85 159.0 201.5 155.05 197.7 154.85 197.5 M145.6 207.8 L144.35 206.0 146.7 206.0 145.6 207.8" fill="#d99220" fill-rule="evenodd" stroke="none"/>
      <path d="M156.25 191.55 Q157.05 192.0 157.75 192.55 L159.9 194.3 160.5 194.85 159.25 194.95 159.0 195.05 158.35 195.85 Q158.35 196.2 159.1 197.55 157.75 196.0 156.2 195.2 L155.9 195.05 156.75 194.8 156.75 194.7 156.7 194.65 157.05 193.5 157.1 193.05 156.25 191.55" fill="#fffeff" fill-rule="evenodd" stroke="none"/>
      <path d="M153.95 197.2 L154.85 197.5 155.05 197.7 159.0 201.5 159.05 202.85 159.0 203.9 Q156.9 207.5 156.35 207.5 L155.1 206.35 156.25 204.85 Q155.4 202.85 154.1 201.3 L154.0 201.05 154.1 199.3 153.95 197.2" fill="#02b2ca" fill-rule="evenodd" stroke="none"/>
      <path d="M151.35 203.05 L149.55 205.4 Q148.4 207.15 148.05 208.2 L148.25 208.55 149.75 211.2 150.5 212.2 149.8 212.2 148.4 211.15 145.5 208.05 145.6 207.8 146.7 206.0 147.25 205.2 Q148.5 203.7 149.55 203.0 L150.4 203.0 151.35 203.05" fill="#488aaa" fill-rule="evenodd" stroke="none"/>
      <path d="M153.5 208.5 L154.9 209.7 152.5 212.2 150.5 212.2 149.75 211.2 148.25 208.55 148.05 208.2 Q148.4 207.15 149.55 205.4 L151.35 203.05 153.35 203.4 151.25 205.3 Q150.4 206.15 149.7 207.5 L151.1 209.05 152.25 209.65 153.5 208.5" fill="#16a7bc" fill-rule="evenodd" stroke="none"/>
      <path d="M159.0 203.9 Q158.7 206.65 157.0 209.35 L154.65 212.2 152.5 212.2 154.9 209.7 153.5 208.5 153.9 208.0 155.1 206.35 156.35 207.5 Q156.9 207.5 159.0 203.9" fill="#2ef5fc" fill-rule="evenodd" stroke="none"/>
      <path d="M97.75 185.25 L104.6 191.7 117.5 203.9 117.25 204.2 Q113.5 204.85 109.85 205.85 L100.55 197.0 97.75 194.2 97.75 185.25 M97.75 206.05 L100.05 209.35 97.75 210.35 97.75 206.05" fill="#7689aa" fill-rule="evenodd" stroke="none"/>
      <path d="M152.85 186.3 L153.1 186.9 154.4 190.35 155.55 194.9 155.85 197.85 154.85 197.5 153.95 197.2 Q148.6 195.6 144.1 195.6 139.95 195.65 136.5 197.05 L132.05 199.15 Q128.05 201.25 126.85 203.15 L121.5 203.65 119.55 203.85 117.7 204.15 117.5 203.9 104.6 191.7 97.75 185.25 97.75 171.35 97.8 171.35 97.95 171.6 Q101.65 176.9 107.15 181.95 L107.2 182.0 Q105.4 182.55 104.25 183.45 L102.15 185.15 Q102.2 186.35 102.75 186.7 L107.35 185.55 110.4 184.8 111.7 185.8 Q119.1 191.5 125.75 193.0 L130.75 190.85 Q133.9 189.75 137.1 189.15 L137.45 189.05 145.55 188.3 149.0 188.45 149.55 188.7 149.45 188.2 149.4 188.0 Q148.6 184.3 145.85 180.45 144.45 178.35 142.7 176.5 140.75 174.45 138.4 172.7 134.55 172.7 127.65 169.65 127.75 169.5 128.0 169.45 L128.55 169.1 129.0 168.5 129.0 168.35 Q129.0 167.45 127.55 165.95 L125.5 164.0 Q130.25 166.8 134.85 169.0 L139.85 171.2 140.35 171.4 143.75 172.65 Q145.5 174.1 147.1 176.05 149.95 179.6 152.25 184.85 L152.85 186.3" fill="#bed6e2" fill-rule="evenodd" stroke="none"/>
      <path d="M97.75 143.7 Q101.3 146.75 105.2 149.85 L107.7 151.85 Q112.9 155.9 117.95 159.3 L119.25 160.15 125.5 164.0 127.55 165.95 Q129.0 167.45 129.0 168.35 L129.0 168.5 128.55 169.1 128.0 169.45 Q127.75 169.5 127.65 169.65 L121.75 166.7 Q111.75 161.45 106.4 156.85 L97.75 149.45 97.75 143.7 M97.75 171.3 L97.8 171.35 97.75 171.35 97.75 171.3 M107.2 182.0 L110.4 184.8 107.35 185.55 102.75 186.7 Q102.2 186.35 102.15 185.15 L104.25 183.45 Q105.4 182.55 107.2 182.0" fill="#fdfdfb" fill-rule="evenodd" stroke="none"/>
      <path d="M163.45 211.2 L166.6 210.3 167.1 210.35 167.25 211.65 167.35 211.85 167.35 212.05 167.4 212.2 165.95 212.2 165.9 211.9 164.2 212.2 163.3 212.2 163.45 211.2" fill="#bfd1dd" fill-rule="evenodd" stroke="none"/>
      <path d="M164.2 212.2 L165.9 211.9 165.95 212.2 164.2 212.2" fill="#eff3f4" fill-rule="evenodd" stroke="none"/>
      <path d="M136.9 208.65 L138.45 210.85 138.05 212.2 133.55 212.2 136.9 208.65" fill="#0d1226" fill-rule="evenodd" stroke="none"/>
      <path d="M202.75 210.2 L206.6 212.2 202.05 212.2 202.75 210.2" fill="#bdd3e0" fill-rule="evenodd" stroke="none"/>
      <path d="M191.7 147.6 L192.35 146.95 194.7 144.65 195.15 144.75 198.05 145.35 198.05 145.65 194.9 149.0 194.85 149.1 193.7 150.3 191.95 150.45 191.7 150.45 191.1 149.8 190.9 149.65 191.7 147.6 M167.0 147.8 L167.55 148.0 175.85 156.85 177.7 158.5 Q179.35 159.9 180.85 160.8 L182.1 161.5 182.35 161.25 186.4 156.15 187.9 153.85 188.05 153.75 188.45 153.45 189.85 152.45 189.2 155.5 188.8 157.05 188.6 157.6 188.25 158.8 187.45 160.15 184.65 164.35 183.35 165.95 182.85 166.5 182.65 166.45 182.45 166.3 180.9 165.4 179.6 164.45 179.5 164.4 Q175.15 161.1 172.85 157.15 L171.4 155.1 170.9 154.5 Q170.55 153.45 169.05 151.15 167.5 148.95 167.0 147.8 M163.1 150.95 L163.75 151.1 165.6 151.65 166.0 151.7 167.4 154.0 Q168.1 155.1 168.5 157.0 169.2 161.35 171.55 164.9 L172.85 166.65 165.2 164.3 164.35 163.6 163.3 162.75 162.95 162.5 162.1 161.85 162.1 161.8 161.7 161.5 161.75 161.3 162.05 160.15 162.25 159.35 162.3 159.15 162.55 155.85 162.55 153.45 Q161.4 152.7 159.35 151.95 L157.5 151.15 163.1 150.95 M176.35 170.15 Q175.6 169.65 174.85 168.0 L174.55 167.5 173.6 166.2 173.2 165.45 171.75 162.95 171.2 161.8 Q170.2 159.45 169.9 157.5 L169.85 154.85 169.9 153.5 170.1 153.65 170.4 153.85 170.9 154.5 173.95 160.45 177.7 166.85 177.75 166.95 177.9 167.5 178.1 169.65 178.1 170.95 Q177.25 170.5 176.4 170.15 L176.35 170.15" fill="#f7da58" fill-rule="evenodd" stroke="none"/>
      <path d="M147.85 142.0 L155.25 144.3 162.4 146.6 165.1 148.15 165.85 148.6 166.75 150.65 162.4 150.35 161.6 150.35 150.5 147.1 146.05 145.95 Q145.4 143.3 145.35 141.2 L147.4 141.85 147.85 142.0" fill="#f6da55" fill-rule="evenodd" stroke="none"/>
      <path d="M182.85 166.5 L183.35 165.95 184.65 164.35 187.45 160.15 188.25 158.8 188.65 158.1 189.45 156.6 190.45 154.35 190.9 153.1 191.35 152.65 193.7 150.3 194.85 149.1 194.9 149.0 198.05 145.65 Q197.4 149.6 195.9 154.15 194.6 158.15 193.35 160.45 L192.9 161.15 192.75 161.45 190.1 165.5 188.25 168.3 187.25 169.65 184.1 173.95 181.95 176.85 182.35 173.0 182.6 168.8 182.45 166.85 182.7 166.65 182.85 166.5" fill="#bc6e0c" fill-rule="evenodd" stroke="none"/>
      <path d="M170.9 154.5 L171.4 155.1 172.85 157.15 Q175.15 161.1 179.5 164.4 L179.6 164.45 180.9 165.4 182.45 166.3 182.45 166.85 182.6 168.8 182.35 173.0 181.95 176.85 181.85 176.95 174.05 171.1 172.35 169.8 170.55 168.4 167.75 166.2 171.2 167.7 173.15 168.65 176.35 170.15 176.4 170.15 Q177.25 170.5 178.1 170.95 L178.1 169.65 177.9 167.5 177.75 166.95 177.7 166.85 173.95 160.45 170.9 154.5 M161.6 150.35 L163.1 150.95 157.5 151.15 159.35 151.95 Q161.4 152.7 162.55 153.45 L162.55 155.85 162.3 159.15 162.25 159.35 162.05 160.15 161.75 161.3 161.7 161.5 161.1 161.0 160.55 160.6 158.25 158.6 152.45 156.9 151.55 156.65 149.1 155.65 148.1 153.0 Q146.7 149.1 146.05 145.95 L150.5 147.1 161.6 150.35" fill="#d9921e" fill-rule="evenodd" stroke="none"/>
      <path d="M177.3 177.9 L179.5 178.7 M147.1 176.05 L149.0 175.85 152.85 175.55" fill="none" stroke="#33537d" stroke-linecap="round" stroke-linejoin="round" stroke-width="1.0"/>
      <path d="M207.65 149.85 L202.4 154.0 Q197.55 157.8 193.35 160.45 M152.85 186.3 L153.1 186.9 154.4 190.35 155.55 194.9 155.85 197.85 154.85 197.5 153.95 197.2 Q148.6 195.6 144.1 195.6 139.95 195.65 136.5 197.05 L132.05 199.15 Q128.05 201.25 126.85 203.15 L121.5 203.65 120.0 205.9 119.85 206.15 Q118.7 207.9 117.15 212.2 M203.6 204.75 L205.15 204.8 206.05 204.85 206.2 204.85 207.65 204.9 M97.75 143.7 Q101.3 146.75 105.2 149.85 L107.7 151.85 Q112.9 155.9 117.95 159.3 L119.25 160.15 125.5 164.0 Q130.25 166.8 134.85 169.0 L139.85 171.2 140.35 171.4 143.75 172.65 Q145.5 174.1 147.1 176.05 149.95 179.6 152.25 184.85 L152.85 186.3" fill="none" stroke="#4e6387" stroke-linecap="round" stroke-linejoin="round" stroke-width="1.0"/>
      <path d="M188.9 114.95 L188.2 114.45 188.85 116.0 M188.9 114.95 L191.2 116.75 Q195.6 121.5 195.6 131.25 195.6 133.2 194.75 136.5 M188.65 150.25 L188.4 150.5 M154.6 109.75 L156.6 109.65 165.6 110.45 Q161.4 106.8 158.0 105.0 170.9 107.9 179.15 113.55 M149.6 110.2 L150.05 110.15 M131.65 120.6 L130.25 122.5 124.9 121.95 127.05 123.75 128.7 125.35 Q128.45 126.2 128.35 127.9 M127.4 117.35 L126.05 118.25 Q122.15 120.95 119.1 123.9 M97.75 102.2 L97.85 102.15 M105.2 149.85 L106.7 145.2" fill="none" stroke="#251305" stroke-linecap="round" stroke-linejoin="round" stroke-width="1.0"/>
      <path d="M154.7 110.85 L154.6 109.85 154.6 109.75 154.55 109.45 154.15 102.15 M142.75 102.3 L142.5 102.5 142.0 102.8 141.4 103.1 139.75 103.65 137.7 104.35 135.25 104.6 134.15 104.5 133.75 104.45 133.55 104.45 133.15 104.35 132.05 103.85 Q131.4 103.3 131.25 102.45 L131.25 102.15 M143.1 102.15 L143.0 102.25 142.75 102.3 M124.6 102.15 L124.05 102.8 Q122.85 104.3 122.05 106.1 121.0 108.35 120.55 111.15 L120.55 111.5 121.15 112.25 124.65 115.25 127.4 117.35 128.4 118.1 128.7 118.15 129.55 118.75 Q129.75 118.95 130.05 119.0" fill="none" stroke="#6b3f07" stroke-linecap="round" stroke-linejoin="round" stroke-width="1.0"/>
      <path d="M150.0 113.35 L152.55 113.15 154.7 113.15 154.7 110.85 M150.0 113.35 L149.55 113.45 Q147.9 113.65 146.4 114.15 L145.1 114.35 144.1 114.65 142.6 115.15 141.75 115.45 139.6 116.25 138.4 116.75 Q137.1 117.3 136.0 117.95 M135.35 118.3 Q133.25 119.35 131.65 120.6 L130.85 120.1 130.05 119.0" fill="none" stroke="#3d6f98" stroke-linecap="round" stroke-linejoin="round" stroke-width="1.0"/>
      <path d="M188.55 152.7 L190.2 148.95 191.7 147.6 192.35 146.95 194.7 144.65 195.15 144.75 198.05 145.35 198.05 145.65 Q197.4 149.6 195.9 154.15 194.6 158.15 193.35 160.45 L192.9 161.15 192.75 161.45 193.1 163.6 193.55 167.0 193.4 170.0 193.35 170.5 193.5 170.5 193.55 170.5 193.4 171.05 192.9 173.05 192.45 174.5 192.4 174.8 191.95 176.05 191.9 176.3 191.55 177.3 190.1 181.0 Q188.65 184.45 187.25 186.7 M167.0 147.8 L167.55 148.0 175.85 156.85 177.7 158.5 Q179.35 159.9 180.85 160.8 L182.1 161.5 182.35 161.25 186.4 156.15 187.9 153.85 188.05 153.6 188.55 152.7 M147.85 142.0 L155.25 144.3 162.4 146.6 164.0 147.0 167.0 147.8 M165.2 164.3 L167.75 166.2 170.55 168.4 172.35 169.8 174.05 171.1 181.85 176.95 181.95 176.85 184.1 173.95 187.25 169.65 188.25 168.3 190.1 165.5 192.75 161.45 M181.45 184.8 L181.5 185.4 M161.7 161.5 L162.1 161.8 162.1 161.85 162.95 162.5 163.3 162.75 164.35 163.6 165.2 164.3 M152.45 156.9 L151.55 156.65 149.1 155.65 148.1 153.0 Q146.7 149.1 146.05 145.95 145.4 143.3 145.35 141.2 L147.4 141.85 147.85 142.0 M152.45 156.9 L158.25 158.6 160.55 160.6 161.1 161.0 161.7 161.5" fill="none" stroke="#804b04" stroke-linecap="round" stroke-linejoin="round" stroke-width="1.0"/>
      <path d="M188.85 116.0 L189.4 116.95 189.9 117.8 190.9 119.8 190.95 120.0 191.6 121.65 Q192.55 124.15 193.1 126.95 L194.75 136.5 194.95 138.6 Q195.25 141.65 195.15 144.75 M188.85 116.0 L184.6 108.35 181.45 102.15 M181.85 118.95 L183.4 121.8 184.1 123.0 184.1 123.1 184.55 123.85 184.75 124.45 Q186.25 127.9 186.95 132.75 M188.6 149.2 L188.65 150.25 188.55 152.7 M175.75 105.35 L176.7 107.95 179.15 113.55 181.85 118.95 M174.65 102.15 L175.75 105.35 M177.1 118.95 Q178.55 120.1 179.9 122.45 L180.9 124.65 181.9 127.75 182.25 124.75 182.25 124.15 183.25 125.15 183.6 125.65 M177.45 134.6 L177.4 134.5 177.35 134.35 176.95 129.65 Q176.85 126.6 176.4 124.45 L175.1 117.95 176.55 118.5 177.1 118.95 M177.45 134.6 L177.45 134.65 M157.6 122.1 Q162.1 123.8 167.2 127.3 L177.35 134.5 177.45 134.6 M142.95 135.8 L146.55 140.15 147.85 142.0 M128.35 127.9 L130.9 128.8 134.4 130.0 137.0 130.85 Q139.65 132.15 142.95 135.8 M142.4 134.8 L141.9 133.95 141.55 133.35 143.25 133.6 149.5 133.7 155.55 133.5 155.1 132.1 153.55 126.25 Q152.85 122.95 151.7 120.6 L151.6 120.45 Q154.5 120.8 157.6 122.1 M119.1 123.9 L120.25 124.45 128.35 127.9 M152.5 163.85 L152.5 162.8 152.45 156.9 M116.05 122.3 Q108.4 118.25 102.55 113.3 L101.2 112.15 100.15 111.2 97.75 108.85 M150.85 165.3 L152.5 165.85 152.55 164.6 152.55 163.95 152.5 163.85 M116.05 122.3 L116.75 122.65 119.1 123.9 M103.4 141.45 L106.55 145.0 106.7 145.2 Q109.95 148.75 112.05 150.15 L113.7 151.1 114.15 150.65 114.25 150.35 M97.75 134.95 L98.0 135.2 103.4 141.45 M117.95 159.3 L116.2 155.95 114.65 151.45 114.85 150.95 M148.3 168.5 L147.0 169.5 Q144.8 171.0 140.35 171.4 M148.3 168.5 Q150.1 166.95 150.85 165.3" fill="none" stroke="#1f2489" stroke-linecap="round" stroke-linejoin="round" stroke-width="1.0"/>
      <path d="M188.25 168.3 L188.2 168.55 187.4 171.55 185.55 177.55 183.95 182.15 182.45 183.85 181.45 184.8 180.85 185.35 180.15 186.0 176.85 189.15 176.2 189.7 175.85 189.65 174.95 189.45 171.35 188.55 Q166.9 187.4 163.85 186.1 L163.45 185.9 Q162.1 185.3 161.05 184.7 L160.35 184.3 154.5 180.85 Q153.6 178.5 152.85 175.55 L152.25 173.0 152.2 172.7" fill="none" stroke="#557aac" stroke-linecap="round" stroke-linejoin="round" stroke-width="1.0"/>
      <path d="M202.75 210.2 L206.6 212.2" fill="none" stroke="#304769" stroke-linecap="round" stroke-linejoin="round" stroke-width="1.0"/>
    </g>
    <g id="shape2" transform="matrix(1.0, 0.0, 0.0, 1.0, 0.0, 0.0)">
      <path d="M50.5 0.0 Q53.95 0.0 53.95 3.3 L53.95 50.15 Q53.95 53.4 50.5 53.4 L3.3 53.4 Q0.0 53.4 0.0 50.15 L0.0 3.3 Q0.0 0.0 3.3 0.0 L50.5 0.0" fill="#000000" fill-opacity="0.003921569" fill-rule="evenodd" stroke="none"/>
    </g>
  </defs>
</svg>
