<?xml version="1.0" encoding="UTF-8" standalone="no"?>
<svg xmlns:ffdec="https://www.free-decompiler.com/flash" xmlns:xlink="http://www.w3.org/1999/xlink" ffdec:objectType="frame" height="55.0px" width="54.65px" xmlns="http://www.w3.org/2000/svg">
  <g transform="matrix(1.0, 0.0, 0.0, 1.0, 0.65, 0.25)">
    <clipPath id="clipPath0" transform="matrix(1.0, 0.0, 0.0, 1.0, 0.0, 0.0)">
      <path d="M50.5 0.0 Q53.95 0.0 53.95 3.3 L53.95 50.15 Q53.95 53.4 50.5 53.4 L3.3 53.4 Q0.0 53.4 0.0 50.15 L0.0 3.3 Q0.0 0.0 3.3 0.0 L50.5 0.0" fill="#000000" fill-rule="evenodd" stroke="none"/>
    </clipPath>
    <g clip-path="url(#clipPath0)">
      <use ffdec:characterId="2" height="55.0" transform="matrix(1.0, 0.0, 0.0, 1.0, -0.65, -0.25)" width="54.65" xlink:href="#shape1"/>
    </g>
    <use ffdec:characterId="3" height="53.4" transform="matrix(1.0, 0.0, 0.0, 1.0, 0.0, 0.0)" width="53.95" xlink:href="#shape2"/>
  </g>
  <defs>
    <g id="shape1" transform="matrix(1.0, 0.0, 0.0, 1.0, 0.65, 0.25)">
      <path d="M50.95 34.75 L50.4 28.45 49.7 23.0 48.55 23.85 46.2 24.25 Q43.7 24.25 41.5 22.85 L40.25 21.9 Q37.75 19.65 37.75 17.45 L37.8 16.9 Q38.0 15.75 39.1 14.95 L39.15 14.9 34.7 12.45 32.15 11.35 Q27.5 9.5 22.6 8.95 L22.5 8.95 18.35 8.45 18.25 8.45 14.65 7.85 14.1 7.7 13.85 7.65 13.4 7.55 8.9 6.2 9.35 4.85 13.75 5.75 13.9 5.8 14.3 5.85 17.4 6.3 20.9 6.7 23.7 7.05 31.4 8.2 33.55 8.6 37.75 9.7 38.3 9.9 Q41.8 11.05 44.45 12.7 L44.95 13.0 Q45.85 13.45 48.6 16.6 L51.95 20.65 Q52.75 21.75 53.2 25.15 L53.4 27.75 53.5 31.15 53.45 33.45 53.1 33.4 Q52.55 34.15 50.95 34.75 M53.4 34.55 L53.2 37.05 Q52.75 39.95 52.15 41.2 L52.1 41.25 51.4 42.05 51.2 42.3 50.95 42.55 48.65 44.2 50.15 40.55 50.2 40.45 50.45 39.5 Q51.0 37.65 51.0 36.65 L51.0 35.85 53.4 34.55" fill="#f8d118" fill-rule="evenodd" stroke="none"/>
      <path d="M9.35 4.85 L8.9 6.2 13.4 7.55 13.85 7.65 14.1 7.7 14.65 7.85 18.25 8.45 18.35 8.45 22.5 8.95 22.6 8.95 Q27.5 9.5 32.15 11.35 L34.7 12.45 39.15 14.9 39.1 14.95 Q38.0 15.75 37.8 16.9 L37.75 17.45 Q37.75 19.65 40.25 21.9 L41.5 22.85 Q43.7 24.25 46.2 24.25 L48.55 23.85 49.7 23.0 50.4 28.45 50.95 34.75 49.6 35.15 48.05 35.5 46.7 35.65 45.45 35.7 44.05 35.55 Q41.9 35.05 39.15 33.0 L36.95 31.25 Q35.75 30.05 35.45 29.2 L35.5 28.5 Q35.5 22.65 32.3 18.6 L32.25 18.55 31.25 17.45 30.2 16.45 28.8 15.4 28.7 15.35 Q26.4 13.8 23.3 13.0 L22.65 12.85 19.55 12.1 19.5 12.05 19.45 12.05 15.25 11.2 14.5 11.05 13.85 10.95 13.1 10.8 8.5 10.0 7.2 9.75 5.45 9.35 5.15 9.1 3.85 7.95 0.45 5.1 -0.15 4.6 -0.15 0.25 0.9 0.35 1.35 0.5 2.8 1.85 Q4.85 3.5 8.3 4.55 L9.35 4.85 M36.15 32.15 L36.95 31.25 36.2 32.2 36.15 32.15 M8.1 11.05 L8.4 10.5 8.3 11.1 8.1 11.05 M19.25 12.95 L19.45 12.05 19.6 13.05 19.25 12.95" fill="#faa218" fill-rule="evenodd" stroke="none"/>
      <path d="M-0.15 4.6 L0.45 5.1 3.85 7.95 5.15 9.1 5.45 9.35 7.2 9.75 8.5 10.0 13.1 10.8 13.85 10.95 14.5 11.05 15.25 11.2 19.45 12.05 19.5 12.05 19.55 12.1 22.65 12.85 23.3 13.0 Q26.4 13.8 28.7 15.35 L28.8 15.4 30.2 16.45 31.25 17.45 32.25 18.55 32.3 18.6 Q35.5 22.65 35.5 28.5 L35.45 29.2 Q35.75 30.05 36.95 31.25 L39.15 33.0 Q41.9 35.05 44.05 35.55 L45.45 35.7 46.7 35.65 48.05 35.5 49.6 35.15 50.95 34.75 Q52.55 34.15 53.1 33.4 L53.45 33.45 53.4 34.55 51.0 35.85 48.6 36.7 48.0 36.9 47.9 36.9 47.3 36.95 47.25 36.95 45.3 36.65 45.25 36.65 43.95 36.4 43.85 36.4 43.25 36.25 41.2 35.5 Q39.85 34.9 39.05 34.4 L36.2 32.2 36.95 31.25 36.15 32.15 34.3 30.6 34.3 30.5 34.35 30.5 34.35 30.4 34.3 29.9 34.15 28.8 34.15 28.75 33.1 23.65 Q32.55 21.0 31.4 19.2 L30.6 18.05 29.7 17.15 28.3 16.1 Q27.55 15.6 26.7 15.35 L26.55 15.25 23.0 14.1 20.5 13.35 19.9 13.15 19.85 13.15 19.6 13.05 19.45 12.05 19.25 12.95 8.3 11.1 8.4 10.5 8.1 11.05 4.9 10.5 4.5 10.2 4.35 10.0 3.05 8.95 -0.15 6.45 -0.15 4.6 M38.2 53.6 L38.3 53.7 38.4 54.25 34.0 54.25 35.7 53.85 36.85 53.95 37.75 53.95 38.2 53.6 M26.75 54.25 L17.5 54.25 17.55 53.95 17.9 51.45 17.75 49.7 17.5 48.45 17.5 48.65 16.8 46.35 16.35 45.35 16.65 45.35 15.4 43.3 15.15 42.95 14.5 41.85 13.85 40.7 13.25 39.5 13.35 39.45 13.1 38.85 12.85 38.2 12.65 37.65 12.55 37.3 Q12.4 36.6 12.4 35.55 L12.4 35.5 Q12.6 34.5 13.05 34.0 13.6 33.35 14.5 33.35 15.9 33.35 17.05 34.6 L17.4 35.3 17.7 35.55 17.6 35.7 Q17.45 35.95 17.25 36.75 17.1 37.45 17.1 38.4 L17.1 38.55 Q17.1 39.55 17.85 41.95 L19.0 45.3 19.15 45.55 19.15 45.65 19.5 46.8 19.55 47.0 22.7 50.05 26.35 53.5 26.75 53.85 26.75 54.25 M-0.15 25.0 L-0.15 19.1 0.7 18.85 0.85 19.15 2.6 20.4 Q3.55 21.5 3.55 22.65 3.55 24.5 0.7 24.9 L-0.1 25.0 -0.15 25.0" fill="#ffe139" fill-rule="evenodd" stroke="none"/>
      <path d="M51.2 42.3 L50.95 42.6 48.2 45.65 47.3 44.85 45.15 45.8 Q44.55 44.35 43.35 42.75 L41.7 40.7 41.25 40.6 38.7 39.85 36.95 39.3 34.6 33.55 33.45 30.95 31.4 26.65 30.4 26.4 28.8 26.4 27.95 26.1 23.1 24.15 21.3 23.5 17.5 21.9 15.35 20.9 14.25 20.3 12.5 19.35 Q13.05 14.85 13.5 13.75 L13.65 13.75 13.9 13.8 14.85 13.9 15.8 14.0 20.05 14.7 20.4 14.75 23.35 15.35 26.4 16.0 Q28.65 16.6 29.7 17.15 L30.6 18.05 31.4 19.2 Q32.55 21.0 33.1 23.65 L34.15 28.75 34.15 28.8 34.3 29.9 34.35 30.4 34.35 30.5 34.3 30.5 34.3 30.6 36.15 32.15 36.2 32.2 39.05 34.4 Q39.85 34.9 41.2 35.5 L43.25 36.25 43.85 36.4 43.95 36.4 45.25 36.65 45.3 36.65 47.25 36.95 47.3 36.95 47.9 36.9 48.0 36.9 48.6 36.7 51.0 35.85 51.0 36.65 Q51.0 37.65 50.45 39.5 L50.2 40.45 50.15 40.55 48.65 44.2 50.95 42.55 51.2 42.3 M38.3 53.7 Q39.1 53.8 39.85 54.25 L38.4 54.25 38.3 53.7" fill="#ed7d1b" fill-rule="evenodd" stroke="none"/>
      <path d="M48.2 45.65 L48.0 45.9 47.25 46.7 44.15 49.85 43.8 49.8 Q43.35 48.15 41.95 46.25 L39.8 43.35 39.8 43.3 39.25 42.9 39.25 42.55 37.4 42.25 35.5 42.15 35.3 41.85 35.05 41.55 35.0 41.45 34.0 39.45 32.95 37.1 32.2 35.45 31.45 33.55 31.35 33.4 31.0 32.4 30.45 30.75 30.4 30.65 29.4 28.4 29.15 28.3 29.1 28.25 28.5 28.0 28.3 27.9 Q27.15 27.4 25.0 26.85 L23.95 26.6 23.75 26.55 19.5 25.6 18.5 25.4 18.35 25.4 15.6 24.85 14.45 24.65 11.25 24.1 10.4 24.0 10.85 23.65 Q7.0 18.45 7.0 14.15 7.0 13.0 7.6 11.85 L8.1 11.05 8.3 11.1 19.25 12.95 19.6 13.05 19.85 13.15 19.9 13.15 20.5 13.35 23.0 14.1 26.55 15.25 26.7 15.35 Q27.55 15.6 28.3 16.1 L29.7 17.15 Q28.65 16.6 26.4 16.0 L23.35 15.35 20.4 14.75 20.05 14.7 15.8 14.0 14.85 13.9 13.9 13.8 13.65 13.75 13.5 13.75 Q13.05 14.85 12.5 19.35 L14.25 20.3 15.35 20.9 17.5 21.9 21.3 23.5 23.1 24.15 27.95 26.1 28.8 26.4 30.4 26.4 31.4 26.65 33.45 30.95 34.6 33.55 36.95 39.3 38.7 39.85 41.25 40.6 41.7 40.7 43.35 42.75 Q44.55 44.35 45.15 45.8 L47.3 44.85 48.2 45.65" fill="#de6b17" fill-rule="evenodd" stroke="none"/>
      <path d="M-0.15 14.05 L-0.15 6.45 3.05 8.95 4.35 10.0 4.5 10.2 4.9 10.5 8.1 11.05 7.6 11.85 Q7.0 13.0 7.0 14.15 7.0 18.45 10.85 23.65 L10.4 24.0 Q8.25 22.6 6.25 20.75 L5.75 20.25 4.1 18.6 3.85 18.3 2.45 16.8 2.25 16.6 1.1 15.35 -0.15 14.05" fill="#c75110" fill-rule="evenodd" stroke="none"/>
      <path d="M17.5 54.25 L8.6 54.25 Q10.5 53.8 11.8 52.95 L11.9 52.9 11.95 52.95 12.2 52.75 12.3 52.7 12.6 52.5 12.65 52.45 13.0 52.1 13.35 51.55 13.65 49.7 Q13.75 47.95 12.95 45.7 L12.75 45.15 12.6 44.7 12.5 44.55 11.35 43.35 9.0 40.15 9.2 40.0 9.15 39.65 9.1 39.45 8.45 36.4 8.25 35.0 8.35 33.85 Q8.7 32.15 9.95 31.1 11.65 29.7 14.5 29.7 L14.75 29.75 15.55 29.95 15.7 30.0 16.35 30.15 16.45 30.3 17.1 31.3 19.85 35.2 20.2 35.0 21.4 36.2 Q23.35 37.7 26.45 37.8 L26.65 37.8 Q28.4 37.8 29.8 37.1 L30.6 36.65 31.6 38.2 29.9 38.95 28.0 39.85 27.75 39.95 27.5 40.1 27.0 40.2 26.15 40.2 Q24.6 40.2 22.5 39.45 L21.1 38.8 20.75 38.65 20.7 38.65 17.7 35.55 17.4 35.3 17.05 34.6 Q15.9 33.35 14.5 33.35 13.6 33.35 13.05 34.0 12.6 34.5 12.4 35.5 L12.4 35.55 Q12.4 36.6 12.55 37.3 L12.65 37.65 12.85 38.2 13.1 38.85 13.35 39.45 13.25 39.5 13.85 40.7 14.5 41.85 15.15 42.95 15.4 43.3 16.65 45.35 16.35 45.35 16.8 46.35 17.5 48.65 17.5 48.45 17.75 49.7 17.9 51.45 17.55 53.95 17.5 54.25 M-0.15 28.0 L-0.15 25.0 -0.1 25.0 0.7 24.9 Q3.55 24.5 3.55 22.65 3.55 21.5 2.6 20.4 L0.85 19.15 1.05 18.75 1.15 18.75 1.55 18.9 1.85 18.85 3.1 18.5 5.45 21.6 5.55 21.8 Q6.2 23.0 6.2 24.75 6.2 25.9 5.1 26.65 4.15 27.3 2.3 27.65 L0.1 28.0 -0.15 28.0 M12.6 44.7 L12.55 44.55 12.5 44.55 12.55 44.55 12.6 44.7" fill="#dab84a" fill-rule="evenodd" stroke="none"/>
      <path d="M8.65 39.5 Q6.9 36.2 6.85 33.65 L6.35 33.75 4.55 33.2 0.35 32.45 0.1 32.4 -0.15 32.4 -0.15 28.0 0.1 28.0 2.3 27.65 Q4.15 27.3 5.1 26.65 6.2 25.9 6.2 24.75 6.2 23.0 5.55 21.8 L5.45 21.6 3.1 18.5 3.65 18.35 3.85 18.3 4.1 18.6 3.85 18.8 6.05 21.65 Q7.9 24.1 7.9 24.5 L7.75 24.9 7.65 25.35 Q7.65 25.8 8.4 26.65 9.2 27.6 9.95 27.6 11.65 26.55 13.0 26.55 16.6 26.55 17.8 28.2 L18.35 27.95 18.4 29.5 18.4 29.9 Q18.75 33.05 20.2 35.0 L19.85 35.2 17.1 31.3 16.45 30.3 16.35 30.15 15.7 30.0 15.55 29.95 14.75 29.75 14.5 29.7 Q11.65 29.7 9.95 31.1 8.7 32.15 8.35 33.85 L8.25 35.0 8.45 36.4 9.1 39.45 8.65 39.5" fill="#cd9b42" fill-rule="evenodd" stroke="none"/>
      <path d="M18.35 27.95 L17.8 28.2 Q16.6 26.55 13.0 26.55 11.65 26.55 9.95 27.6 9.2 27.6 8.4 26.65 7.65 25.8 7.65 25.35 L7.75 24.9 7.9 24.5 Q7.9 24.1 6.05 21.65 L3.85 18.8 4.1 18.6 5.75 20.25 6.25 20.75 Q8.25 22.6 10.4 24.0 L11.25 24.1 14.45 24.65 15.6 24.85 18.35 25.4 18.5 25.4 18.4 25.75 18.35 27.95" fill="#8c692a" fill-rule="evenodd" stroke="none"/>
      <path d="M18.35 27.95 L18.4 25.75 18.5 25.4 19.5 25.6 23.75 26.55 23.95 26.6 23.9 26.75 23.8 26.85 Q23.55 27.05 23.3 28.0 23.05 29.2 23.05 30.15 23.05 32.4 24.15 33.8 24.8 34.6 25.8 35.0 L27.5 35.25 Q30.3 35.25 31.3 33.5 L31.45 33.55 32.2 35.45 30.6 36.65 29.8 37.1 Q28.4 37.8 26.65 37.8 L26.45 37.8 Q23.35 37.7 21.4 36.2 L20.2 35.0 Q18.75 33.05 18.4 29.9 L18.4 29.5 18.35 27.95" fill="#38170b" fill-rule="evenodd" stroke="none"/>
      <path d="M31.3 33.5 Q30.3 35.25 27.5 35.25 L25.8 35.0 Q24.8 34.6 24.15 33.8 23.05 32.4 23.05 30.15 23.05 29.2 23.3 28.0 23.55 27.05 23.8 26.85 L23.9 26.75 23.95 26.6 25.0 26.85 24.9 27.25 24.25 28.75 Q24.1 29.45 24.1 30.2 24.1 31.85 25.05 33.0 L25.4 33.3 Q26.3 34.15 27.75 34.15 L29.55 33.7 Q30.5 33.25 30.7 32.5 L31.0 32.4 31.35 33.4 31.3 33.5" fill="#f4f2ed" fill-rule="evenodd" stroke="none"/>
      <path d="M25.0 26.85 Q27.15 27.4 28.3 27.9 L28.5 28.0 29.1 28.25 29.15 28.3 29.4 28.4 30.4 30.65 30.45 30.75 31.0 32.4 30.7 32.5 Q30.5 33.25 29.55 33.7 L27.75 34.15 Q26.3 34.15 25.4 33.3 L25.05 33.0 Q24.1 31.85 24.1 30.2 24.1 29.45 24.25 28.75 L24.9 27.25 25.0 26.85 M26.05 30.2 Q26.05 29.2 25.1 29.1 L24.4 29.3 Q24.15 29.5 24.15 30.15 24.15 31.05 24.9 31.2 L25.05 31.2 Q25.65 31.2 25.9 30.75 L26.05 30.2" fill="#32ac43" fill-rule="evenodd" stroke="none"/>
      <path d="M26.05 30.2 L25.9 30.75 Q25.65 31.2 25.05 31.2 L24.9 31.2 Q24.15 31.05 24.15 30.15 24.15 29.5 24.4 29.3 L25.1 29.1 Q26.05 29.2 26.05 30.2" fill="#80ed75" fill-rule="evenodd" stroke="none"/>
      <path d="M9.0 40.15 L8.65 39.5 9.1 39.45 9.15 39.65 9.2 40.0 9.0 40.15 M1.55 18.75 L-0.15 18.7 -0.15 16.2 2.25 16.6 2.45 16.8 3.85 18.3 3.65 18.35 3.1 18.5 1.85 18.85 1.55 18.75" fill="#ad7c2c" fill-rule="evenodd" stroke="none"/>
      <path d="M32.6 46.4 L31.7 46.3 32.85 47.45 33.3 48.0 37.15 52.2 38.2 53.6 37.75 53.95 36.85 53.95 35.7 53.85 34.0 54.25 27.15 54.25 26.75 54.25 26.75 53.85 26.35 53.5 22.7 50.05 19.55 47.0 19.5 46.8 19.15 45.65 19.15 45.55 19.0 45.3 17.85 41.95 Q17.1 39.55 17.1 38.55 L17.1 38.4 Q17.1 37.45 17.25 36.75 17.45 35.95 17.6 35.7 L17.7 35.55 20.7 38.65 20.75 38.65 21.05 39.05 22.0 40.4 23.65 41.95 24.1 42.25 Q25.65 43.25 27.8 43.5 L29.3 43.6 29.4 43.6 32.05 42.6 Q33.05 42.2 33.7 41.95 L34.1 43.4 33.75 44.95 32.65 46.2 32.6 46.4 M20.9 41.15 L22.65 43.55 Q24.05 45.3 25.0 45.55 L25.05 45.55 30.85 46.25 31.65 46.25 31.7 46.3 31.65 46.25 30.85 46.25 25.05 45.55 25.0 45.55 Q24.05 45.3 22.65 43.55 L20.9 41.15" fill="#c9c2b3" fill-rule="evenodd" stroke="none"/>
      <path d="M20.75 38.65 L21.1 38.8 22.5 39.45 Q24.6 40.2 26.15 40.2 L27.0 40.2 27.5 40.1 27.75 39.95 28.0 39.85 29.9 38.95 31.6 38.2 32.0 38.85 33.7 41.95 Q33.05 42.2 32.05 42.6 L29.4 43.6 29.3 43.6 27.8 43.5 Q25.65 43.25 24.1 42.25 L23.65 41.95 22.0 40.4 21.05 39.05 20.75 38.65" fill="#fffffa" fill-rule="evenodd" stroke="none"/>
      <path d="M39.25 42.9 L39.3 43.7 38.6 44.2 35.75 46.05 32.6 46.4 32.65 46.2 33.75 44.95 34.1 43.4 33.7 41.95 32.0 38.85 31.6 38.2 30.6 36.65 32.2 35.45 32.95 37.1 34.0 39.45 35.0 41.45 35.05 41.55 35.3 41.85 35.5 42.15 37.4 42.25 39.25 42.55 39.25 42.9" fill="#afa390" fill-rule="evenodd" stroke="none"/>
      <path d="M-0.15 16.2 L-0.15 14.05 1.1 15.35 2.25 16.6 -0.15 16.2" fill="#d8a34a" fill-rule="evenodd" stroke="none"/>
      <path d="M0.7 18.85 L1.05 18.75 0.85 19.15 0.7 18.85" fill="#daa64a" fill-rule="evenodd" stroke="none"/>
      <path d="M9.35 4.85 L8.3 4.55 Q4.85 3.5 2.8 1.85 L1.35 0.5 M0.9 0.35 L-0.15 0.25 M53.45 33.45 L53.5 31.15 53.4 27.75 53.2 25.15 Q52.75 21.75 51.95 20.65 L48.6 16.6 Q45.85 13.45 44.95 13.0 L44.45 12.7 Q41.8 11.05 38.3 9.9 L37.75 9.7 33.55 8.6 31.4 8.2 23.7 7.05 20.9 6.7 17.4 6.3 14.3 5.85 13.9 5.8 13.75 5.75 9.35 4.85 M53.45 33.45 L53.4 34.55 53.2 37.05 Q52.75 39.95 52.15 41.2 L52.1 41.25 51.4 42.05 51.2 42.3 50.95 42.6 48.2 45.65 48.0 45.9 47.25 46.7 44.15 49.85 M43.8 49.8 Q43.35 48.15 41.95 46.25 L39.8 43.35 39.8 43.3 39.25 42.9 M39.3 43.7 L38.6 44.2 35.75 46.05 32.6 46.4 31.7 46.3 32.85 47.45 33.3 48.0 37.15 52.2 38.2 53.6 38.3 53.7 Q39.1 53.8 39.85 54.25 M8.6 54.25 Q10.5 53.8 11.8 52.95 L11.9 52.9 Q12.25 52.65 12.6 52.5 L12.65 52.45 13.0 52.1 13.35 51.55 13.65 49.7 Q13.75 47.95 12.95 45.7 L12.75 45.15 12.6 44.7 12.5 44.55 11.35 43.35 9.0 40.15 8.65 39.5 Q6.9 36.2 6.85 33.65 M6.35 33.75 L4.55 33.2 0.35 32.45 0.1 32.4 -0.15 32.4 M-0.15 19.1 L0.7 18.85 1.05 18.75 1.15 18.75 1.55 18.75 -0.15 18.7 M3.1 18.5 L3.65 18.35 3.85 18.3 2.45 16.8 M-0.15 14.05 L1.1 15.35 2.25 16.6 M18.35 27.95 L18.4 25.75 18.5 25.4 18.35 25.4 15.6 24.85 14.45 24.65 11.25 24.1 10.4 24.0 Q8.25 22.6 6.25 20.75 L5.75 20.25 4.1 18.6 3.85 18.3 M1.15 18.75 L1.55 18.9 1.85 18.85 1.55 18.75 M3.1 18.5 L1.85 18.85 M23.95 26.6 L23.75 26.55 19.5 25.6 18.5 25.4 M18.4 29.9 Q18.75 33.05 20.2 35.0 L21.4 36.2 Q23.35 37.7 26.45 37.8 L26.65 37.8 Q28.4 37.8 29.8 37.1 L30.6 36.65 32.2 35.45 31.45 33.55 31.35 33.4 31.3 33.5 Q30.3 35.25 27.5 35.25 L25.8 35.0 Q24.8 34.6 24.15 33.8 23.05 32.4 23.05 30.15 23.05 29.2 23.3 28.0 23.55 27.05 23.8 26.85 L23.9 26.75 M23.95 26.6 L25.0 26.85 Q27.15 27.4 28.3 27.9 L28.5 28.0 29.1 28.25 29.15 28.3 M29.4 28.4 L30.4 30.65 30.45 30.75 31.0 32.4 31.35 33.4 M18.35 27.95 L18.4 29.5 M12.5 44.55 L12.55 44.55 12.6 44.7 M35.0 41.45 L34.0 39.45 32.95 37.1 32.2 35.45 M24.9 27.25 L24.25 28.75 Q24.1 29.45 24.1 30.2 24.1 31.85 25.05 33.0 L25.4 33.3 Q26.3 34.15 27.75 34.15 L29.55 33.7 Q30.5 33.25 30.7 32.5 M31.7 46.3 L31.65 46.25 30.85 46.25 25.05 45.55 25.0 45.55 Q24.05 45.3 22.65 43.55 L20.9 41.15 M39.25 42.55 L37.4 42.25 35.5 42.15 M35.3 41.85 L35.05 41.55 M12.6 52.5 L12.3 52.7 12.2 52.75 11.95 52.95" fill="none" stroke="#56250a" stroke-linecap="round" stroke-linejoin="round" stroke-width="1.0"/>
      <path d="M17.7 35.55 L20.7 38.65 20.75 38.65 21.1 38.8 22.5 39.45 Q24.6 40.2 26.15 40.2 L27.0 40.2 27.5 40.1 27.75 39.95 28.0 39.85 29.9 38.95 31.6 38.2 M26.75 54.25 L26.75 53.85 26.35 53.5 22.7 50.05 19.55 47.0 19.5 46.8 19.15 45.65 19.15 45.55 19.0 45.3 17.85 41.95 Q17.1 39.55 17.1 38.55 L17.1 38.4 Q17.1 37.45 17.25 36.75 17.45 35.95 17.6 35.7 L17.7 35.55 M34.0 54.25 L35.7 53.85 36.85 53.95 37.75 53.95 38.2 53.6" fill="none" stroke="#ff9b39" stroke-linecap="round" stroke-linejoin="round" stroke-width="1.0"/>
    </g>
    <g id="shape2" transform="matrix(1.0, 0.0, 0.0, 1.0, 0.0, 0.0)">
      <path d="M50.5 0.0 Q53.95 0.0 53.95 3.3 L53.95 50.15 Q53.95 53.4 50.5 53.4 L3.3 53.4 Q0.0 53.4 0.0 50.15 L0.0 3.3 Q0.0 0.0 3.3 0.0 L50.5 0.0" fill="#000000" fill-opacity="0.003921569" fill-rule="evenodd" stroke="none"/>
    </g>
  </defs>
</svg>
