<?xml version="1.0" encoding="UTF-8" standalone="no"?>
<svg xmlns:ffdec="https://www.free-decompiler.com/flash" xmlns:xlink="http://www.w3.org/1999/xlink" ffdec:objectType="frame" height="63.05px" width="59.5px" xmlns="http://www.w3.org/2000/svg">
  <g transform="matrix(1.0, 0.0, 0.0, 1.0, 2.65, 6.9)">
    <clipPath id="clipPath0" transform="matrix(1.0, 0.0, 0.0, 1.0, 0.0, 0.0)">
      <path d="M50.5 0.0 Q53.95 0.0 53.95 3.3 L53.95 50.15 Q53.95 53.4 50.5 53.4 L3.3 53.4 Q0.0 53.4 0.0 50.15 L0.0 3.3 Q0.0 0.0 3.3 0.0 L50.5 0.0" fill="#000000" fill-rule="evenodd" stroke="none"/>
    </clipPath>
    <g clip-path="url(#clipPath0)">
      <use ffdec:characterId="2" height="63.05" transform="matrix(1.0, 0.0, 0.0, 1.0, -2.65, -6.9)" width="59.5" xlink:href="#shape1"/>
    </g>
    <use ffdec:characterId="3" height="53.4" transform="matrix(1.0, 0.0, 0.0, 1.0, 0.0, 0.0)" width="53.95" xlink:href="#shape2"/>
  </g>
  <defs>
    <g id="shape1" transform="matrix(1.0, 0.0, 0.0, 1.0, 0.25, 0.25)">
      <path d="M0.0 1.65 L0.0 0.85 0.0 0.0 6.2 0.0 7.8 0.0 8.65 0.0 9.1 0.85 12.9 7.7 14.7 10.7 15.35 11.75 16.85 14.2 17.4 15.0 19.0 17.5 22.95 23.2 Q21.0 22.05 18.65 21.15 14.55 19.55 10.35 19.0 L12.6 18.85 13.05 18.85 17.15 18.7 15.7 16.0 17.15 18.7 13.05 18.85 12.6 18.85 10.35 19.0 7.15 19.35 2.2 17.25 0.7 16.7 8.6 15.9 11.65 15.85 14.8 15.85 15.2 15.7 15.4 15.85 15.7 16.0 15.5 15.6 15.1 14.8 13.4 11.55 12.9 10.6 8.2 0.95 8.15 0.9 0.0 1.65 M16.25 0.0 L26.85 0.0 31.95 0.0 32.0 0.55 30.85 1.3 31.25 1.45 32.35 1.85 31.25 1.45 32.05 0.55 32.1 1.05 32.35 1.85 32.75 2.0 33.2 2.15 34.0 2.7 36.0 4.15 37.55 5.35 38.05 5.8 39.25 6.8 39.55 7.1 40.65 8.15 42.1 9.7 40.65 8.15 39.55 7.1 40.25 7.05 42.45 6.75 42.4 7.15 42.1 9.7 42.3 9.9 42.55 10.15 44.05 12.0 44.4 12.75 44.6 13.3 44.65 13.45 45.1 14.55 46.2 18.15 45.95 14.55 45.9 14.3 45.8 12.9 45.4 7.3 45.1 2.95 45.0 1.8 45.25 2.9 45.75 5.25 46.7 10.05 48.1 18.15 48.6 21.35 49.05 24.2 48.85 24.05 48.7 23.95 47.9 23.4 Q47.15 22.95 46.45 22.85 L46.25 22.8 46.15 22.8 45.9 22.1 45.8 21.85 44.75 19.15 44.7 19.0 44.65 18.95 44.55 18.75 44.25 18.4 44.05 18.15 43.95 18.1 43.75 18.05 43.45 18.0 43.4 18.0 43.3 18.0 Q43.1 18.0 43.0 18.1 L44.85 22.9 44.2 23.2 44.1 23.25 43.45 23.85 43.05 24.45 42.45 24.2 39.7 21.4 39.95 21.1 41.35 19.25 41.6 18.85 41.65 18.75 41.8 18.45 41.85 18.05 41.9 17.45 41.9 16.9 41.8 15.4 41.45 13.55 41.3 13.05 41.0 12.05 40.9 11.8 40.85 11.65 Q39.9 9.2 38.1 7.15 L37.95 7.0 37.6 6.55 37.55 6.5 36.05 5.05 34.9 4.1 33.1 2.85 32.6 2.55 31.05 1.65 30.65 1.45 29.0 0.65 28.95 0.65 28.35 0.65 27.6 0.6 20.85 0.5 16.85 0.55 16.25 0.0 M37.05 0.0 L44.05 0.0 43.65 2.15 41.65 2.45 Q39.45 2.55 38.0 1.2 L37.35 0.45 37.05 0.0 M54.0 36.6 L56.1 38.65 58.7 40.7 57.35 42.25 54.7 44.8 Q56.05 45.45 58.25 45.85 L59.0 45.95 58.45 47.6 Q57.55 50.15 55.8 52.35 L54.4 54.0 53.35 54.9 50.65 56.6 51.5 57.45 51.8 57.65 53.1 58.6 53.5 58.8 53.0 59.2 51.8 59.8 50.2 60.3 48.35 60.45 46.9 60.35 47.05 62.55 44.05 62.55 44.05 62.25 44.0 60.6 43.85 60.75 41.5 62.55 36.85 62.55 40.55 59.85 41.5 59.15 41.55 59.1 44.65 56.35 45.3 56.75 47.85 57.45 49.45 57.6 48.6 53.35 48.55 52.95 51.45 51.0 Q53.3 49.45 55.0 47.4 L54.4 46.45 54.1 45.9 54.05 45.75 53.85 45.4 53.55 44.85 53.4 44.5 53.15 44.0 53.15 43.85 Q54.6 42.7 55.05 41.5 54.4 41.15 53.6 39.85 L53.6 39.75 53.65 39.65 53.95 37.0 54.0 36.6 M36.8 62.55 L32.05 62.55 29.75 61.65 29.7 61.85 29.35 62.55 26.6 62.55 27.0 60.95 27.0 60.85 27.35 59.95 23.35 56.45 22.4 55.7 21.85 55.3 21.35 56.1 21.15 56.45 20.5 57.7 Q19.45 59.8 18.55 62.55 L13.85 62.55 13.85 62.45 13.55 59.45 12.8 59.65 10.6 60.5 10.55 60.05 10.85 59.45 12.85 55.6 8.2 56.65 6.35 57.0 4.25 57.35 3.25 56.9 Q4.45 54.75 6.0 52.75 L6.1 52.65 2.9 52.85 0.0 52.95 0.0 49.2 0.3 49.2 10.4 48.45 7.9 47.1 6.3 46.15 7.3 45.9 9.3 45.35 7.4 42.45 6.95 42.2 5.2 41.35 6.5 40.9 5.25 38.45 4.2 36.05 3.6 34.25 3.4 33.75 2.65 31.0 0.0 30.6 0.0 25.5 2.35 24.1 0.0 22.65 0.0 20.75 1.65 21.15 1.05 20.35 1.3 20.3 2.4 21.3 4.35 23.0 10.05 27.35 Q17.5 32.35 24.35 33.5 20.1 35.4 14.85 38.5 L12.35 40.0 8.7 42.3 8.85 42.3 14.15 41.85 28.5 40.35 26.7 42.4 25.05 44.55 22.55 45.55 Q23.05 44.55 23.65 43.7 L15.65 43.3 10.95 42.7 8.7 42.3 8.65 42.3 12.0 39.6 8.65 42.3 8.7 42.3 10.95 42.7 15.65 43.3 15.75 43.4 16.6 44.15 17.95 45.3 18.75 45.95 21.45 47.85 Q20.25 50.7 19.65 53.6 L20.1 53.45 24.8 52.5 28.2 51.65 27.5 52.3 26.6 53.1 32.4 53.65 31.15 56.6 30.9 57.3 32.45 56.5 Q35.15 55.3 37.9 54.85 L38.0 56.6 Q38.0 59.1 37.4 61.1 L36.8 62.55 M20.8 62.55 L20.15 62.55 20.95 62.0 20.8 62.55 M0.0 11.1 L0.0 9.95 2.75 10.7 0.0 11.1 M7.8 0.0 L8.15 0.9 7.8 0.0 M29.0 0.65 L30.05 1.0 30.85 1.3 30.05 1.0 29.0 0.65 M28.95 0.65 L28.8 0.6 28.35 0.45 26.85 0.0 28.35 0.45 28.8 0.6 28.95 0.65 M44.85 25.1 L45.15 24.8 45.45 24.6 45.9 24.45 46.0 24.4 46.2 24.4 46.25 24.35 46.4 24.35 46.55 24.4 46.6 24.4 46.7 24.35 46.75 24.35 46.95 24.4 47.6 24.55 Q48.2 24.8 48.85 25.45 L49.3 25.95 49.5 27.35 49.0 27.1 47.1 25.75 47.05 25.7 46.7 25.45 46.7 25.8 44.85 25.1 M53.45 37.45 L53.5 36.95 53.45 36.95 53.5 36.8 53.7 36.8 53.75 37.6 53.6 39.35 53.55 39.8 52.6 40.9 52.25 41.15 52.25 41.2 51.65 41.65 51.25 41.85 51.4 40.7 51.35 40.6 51.25 40.4 51.2 39.9 51.3 39.0 51.35 38.45 52.05 37.55 52.2 37.3 53.0 36.35 53.0 36.5 52.65 36.9 52.0 37.8 51.8 38.05 51.75 38.6 51.65 39.55 51.75 40.05 51.8 40.2 51.9 40.35 52.1 40.6 52.1 40.65 52.15 40.7 52.3 40.8 52.4 40.85 52.45 40.85 52.65 40.7 52.75 40.65 53.1 39.9 53.4 38.55 Q53.7 38.45 53.65 37.5 L53.6 37.45 53.45 37.45 M53.2 37.7 L53.15 37.85 53.05 38.25 53.05 38.35 53.2 38.45 53.3 38.5 53.15 38.55 52.95 38.45 53.0 38.4 53.0 38.3 53.1 37.85 53.2 37.7 M37.35 49.85 L37.3 50.0 38.3 50.0 Q40.9 50.85 47.35 53.5 L46.75 53.7 45.3 53.25 40.55 51.95 40.25 51.85 37.3 51.5 37.0 51.45 36.5 51.3 35.45 51.05 33.7 50.5 33.15 50.3 28.8 51.5 Q29.3 49.85 30.25 47.85 L31.55 47.5 36.2 46.15 34.85 48.65 37.05 48.35 37.65 48.25 39.2 48.05 38.4 48.7 38.3 48.75 38.25 48.8 37.4 49.55 36.9 49.95 37.35 49.85 M37.2 36.3 L37.2 36.95 36.85 36.9 36.65 37.05 Q36.65 38.3 37.55 38.4 37.9 39.45 38.7 40.2 L40.1 41.15 40.4 41.25 41.4 41.3 42.3 41.05 42.4 40.95 42.55 40.9 43.3 40.5 43.9 42.05 42.45 41.8 40.25 41.3 39.1 40.95 35.45 39.7 35.2 39.1 Q34.7 37.65 34.7 36.8 L34.75 35.65 35.7 35.6 Q36.05 35.5 37.2 36.3 M3.65 23.4 L4.6 24.35 3.65 23.4 3.4 23.5 2.35 24.1 3.4 23.5 3.65 23.4 1.65 21.15 3.65 23.4 M12.0 39.6 Q15.1 37.15 18.4 34.85 14.2 32.3 10.05 29.05 L7.5 26.95 4.6 24.35 5.95 26.4 7.65 28.55 8.25 29.2 9.1 30.15 9.25 30.3 11.85 32.85 9.0 32.55 8.45 32.45 7.55 32.3 6.4 32.05 7.65 34.0 8.85 35.75 8.95 35.9 10.65 38.05 12.0 39.6 M6.2 0.0 L0.0 0.85 6.2 0.0" fill="#d0d2df" fill-rule="evenodd" stroke="none"/>
      <path d="M8.65 0.0 L16.25 0.0 16.85 0.55 20.05 3.35 24.95 7.65 25.55 8.2 27.3 9.75 28.35 10.75 29.6 11.85 32.35 14.4 32.8 14.8 33.35 15.3 37.2 19.0 39.7 21.4 42.45 24.2 43.05 24.45 42.95 24.65 42.7 25.3 Q42.45 26.2 42.6 27.25 L42.9 28.4 42.9 28.5 43.1 29.05 43.5 29.9 44.05 30.8 44.6 31.4 44.9 31.7 45.2 31.95 45.25 31.95 46.15 32.6 46.35 32.7 46.4 32.75 46.75 32.9 47.15 33.05 47.85 33.15 47.85 33.2 48.35 35.2 48.65 36.2 48.7 36.3 49.05 36.6 49.25 36.8 49.5 36.85 49.6 36.85 49.65 36.9 49.9 36.75 49.85 36.45 49.55 35.3 49.05 33.05 49.5 32.95 50.15 32.5 50.25 32.5 50.3 32.4 50.8 31.85 50.85 31.7 51.05 31.25 51.15 31.05 51.15 30.95 51.25 30.75 51.3 30.7 51.4 29.8 51.4 29.0 51.15 27.7 51.1 27.45 51.0 27.2 51.0 27.15 50.8 26.55 50.7 26.35 50.4 25.85 49.25 24.4 49.1 24.25 49.05 24.2 48.6 21.35 48.1 18.15 46.7 10.05 45.75 5.25 45.25 2.9 45.0 1.8 45.0 1.65 Q44.2 1.95 44.05 2.0 L43.65 2.15 44.05 0.0 46.6 0.0 46.3 1.1 46.2 1.15 46.45 1.35 47.05 1.85 Q48.35 5.7 50.05 12.55 L53.55 27.6 52.85 30.85 52.65 31.7 52.45 32.6 52.1 34.1 51.55 36.1 50.65 38.85 52.05 37.35 52.05 37.55 51.35 38.45 51.3 39.0 51.2 39.9 51.15 40.3 51.15 40.35 51.15 40.65 51.0 42.0 51.25 41.85 51.65 41.65 52.25 41.2 52.2 41.4 52.2 41.7 52.1 42.9 52.35 43.5 52.6 44.1 52.65 44.2 53.1 45.15 53.7 45.35 53.85 45.4 54.05 45.75 54.1 45.9 54.4 46.45 55.0 47.4 Q53.3 49.45 51.45 51.0 L48.55 52.95 47.35 53.5 Q40.9 50.85 38.3 50.0 L37.3 50.0 37.35 49.85 39.0 49.35 41.7 48.15 Q43.95 47.05 46.3 45.5 L46.7 45.25 45.65 42.55 45.2 41.15 45.15 41.0 45.05 40.75 44.85 40.1 44.6 39.2 44.45 38.6 44.25 37.75 Q44.95 37.95 46.1 38.5 L48.4 39.9 47.9 39.05 47.0 37.65 44.8 35.0 32.5 24.9 30.05 22.9 29.8 22.75 23.7 17.85 25.15 21.2 26.6 24.75 28.15 28.7 32.55 40.7 33.55 41.0 33.95 41.15 34.15 41.25 35.45 41.75 36.85 42.3 39.8 43.4 42.9 44.45 41.3 46.0 40.05 47.2 39.2 48.05 37.65 48.25 37.05 48.35 34.85 48.65 36.2 46.15 31.55 47.5 30.25 47.85 31.05 46.2 31.25 45.9 Q33.95 44.6 36.8 43.95 L34.0 43.25 32.8 43.0 32.7 43.0 Q28.6 43.4 25.05 44.55 L26.7 42.4 28.5 40.35 14.15 41.85 8.85 42.3 8.7 42.3 12.35 40.0 14.85 38.5 Q20.1 35.4 24.35 33.5 17.5 32.35 10.05 27.35 L4.35 23.0 2.4 21.3 1.3 20.3 1.4 20.25 3.65 19.8 7.15 19.35 10.35 19.0 Q14.55 19.55 18.65 21.15 21.0 22.05 22.95 23.2 L19.0 17.5 17.4 15.0 16.85 14.2 15.35 11.75 14.7 10.7 12.9 7.7 9.1 0.85 8.65 0.0 M44.05 62.55 L41.5 62.55 43.85 60.75 44.0 60.6 44.05 62.25 44.05 62.55 M32.05 62.55 L29.35 62.55 29.7 61.85 29.75 61.65 32.05 62.55 M26.6 62.55 L20.8 62.55 20.95 62.0 20.15 62.55 18.55 62.55 Q19.45 59.8 20.5 57.7 L21.15 56.45 21.35 56.1 21.85 55.3 22.4 55.7 23.35 56.45 27.35 59.95 27.0 60.85 27.0 60.95 26.6 62.55 M0.0 49.2 L0.0 30.6 2.65 31.0 3.4 33.75 3.6 34.25 4.2 36.05 5.25 38.45 6.5 40.9 5.2 41.35 6.95 42.2 7.4 42.45 9.3 45.35 7.3 45.9 6.3 46.15 7.9 47.1 10.4 48.45 0.3 49.2 0.0 49.2 M46.2 1.15 L44.9 0.2 45.0 1.65 44.9 0.2 46.2 1.15 M49.3 25.95 L49.6 26.45 50.1 27.65 50.15 27.75 50.2 27.95 Q50.45 29.1 50.1 29.9 L49.95 30.25 49.85 30.4 49.75 30.55 49.55 30.75 49.35 30.9 49.3 30.95 48.75 31.1 48.15 31.2 47.95 31.2 47.35 31.1 47.1 31.05 47.05 31.0 46.95 30.95 46.0 30.3 45.75 30.05 45.65 29.9 45.6 29.9 Q44.9 29.1 44.6 28.1 L44.45 27.65 44.35 26.95 Q44.3 26.15 44.55 25.55 L44.7 25.25 44.85 25.1 46.7 25.8 46.7 25.45 47.05 25.7 47.1 25.75 49.0 27.1 49.5 27.35 49.3 25.95 M47.2 26.65 L46.85 26.4 46.6 26.25 46.5 26.2 46.45 26.15 46.15 26.05 46.0 26.05 45.9 26.05 45.75 26.1 45.55 26.15 45.3 26.4 45.2 26.55 45.05 26.9 45.05 27.1 45.05 27.45 45.05 27.75 Q45.25 28.5 45.75 29.0 L46.0 29.2 46.2 29.35 46.3 29.45 46.4 29.45 46.5 29.5 46.8 29.6 46.9 29.6 47.3 29.55 47.4 29.5 47.6 29.4 47.65 29.35 47.7 29.25 47.8 29.15 47.8 29.1 47.9 28.85 47.95 28.4 47.95 28.25 47.9 27.9 Q47.75 27.25 47.25 26.7 L47.2 26.65 M51.4 45.9 L51.35 45.9 49.8 46.3 49.6 46.35 49.6 46.5 49.6 46.75 50.4 47.4 50.75 47.65 51.0 47.8 51.65 48.2 51.7 48.25 52.05 48.0 52.75 47.25 53.15 46.15 53.0 45.9 52.75 45.65 52.7 45.6 51.4 45.9" fill="#fdfeff" fill-rule="evenodd" stroke="none"/>
      <path d="M0.0 9.95 L0.0 1.65 8.15 0.9 8.2 0.95 12.9 10.6 10.95 10.55 9.85 10.5 8.0 10.45 2.75 10.7 0.0 9.95 M15.5 15.6 L15.7 16.0 15.4 15.85 15.2 15.7 15.5 15.6 M24.95 7.65 L20.05 3.35 16.85 0.55 20.85 0.5 27.6 0.6 28.35 0.65 28.95 0.65 29.0 0.65 30.65 1.45 31.05 1.65 32.6 2.55 33.1 2.85 34.9 4.1 36.05 5.05 37.55 6.5 37.6 6.55 37.95 7.0 38.1 7.15 Q39.9 9.2 40.85 11.65 L40.9 11.8 41.0 12.05 41.3 13.05 41.45 13.55 41.8 15.4 41.9 16.9 41.9 17.45 41.85 18.05 41.8 18.45 41.65 18.75 41.6 18.85 41.35 19.25 39.95 21.1 39.7 21.4 37.2 19.0 33.35 15.3 33.3 14.05 33.05 13.9 32.65 13.7 31.85 13.2 31.5 13.0 30.9 12.7 30.55 12.5 29.6 11.85 28.35 10.75 27.35 7.05 25.8 7.45 24.95 7.65 M28.45 1.2 L28.6 2.65 28.75 4.15 29.4 9.95 30.35 10.75 30.65 11.0 31.55 11.7 33.25 12.9 33.6 13.15 33.85 13.3 36.65 15.25 36.8 15.35 37.2 15.65 37.9 16.15 38.4 16.5 39.2 17.05 39.05 16.0 39.0 15.8 38.9 15.15 38.75 14.25 38.65 13.75 38.3 11.75 37.75 8.4 35.55 6.4 35.2 6.1 34.1 5.2 33.75 4.9 33.25 4.55 30.3 2.5 29.65 2.05 28.45 1.2 M53.35 37.6 L53.45 37.45 53.6 37.45 53.65 37.5 Q53.7 38.45 53.4 38.55 L53.3 38.5 53.2 38.45 53.05 38.35 53.05 38.25 53.15 37.85 53.2 37.7 53.35 37.6 M37.2 36.95 L37.85 37.05 38.15 37.2 38.85 38.0 38.85 38.05 38.2 38.25 37.55 38.4 Q36.65 38.3 36.65 37.05 L36.85 36.9 37.2 36.95" fill="#ffffff" fill-rule="evenodd" stroke="none"/>
      <path d="M31.95 0.0 L32.25 0.0 32.4 0.75 32.75 2.0 32.35 1.85 32.1 1.05 32.05 0.55 32.0 0.55 31.95 0.0 M42.1 9.7 L42.4 7.15 42.45 6.75 40.25 7.05 39.55 7.1 39.25 6.8 40.55 6.75 42.7 6.45 42.65 6.85 42.35 9.8 42.3 9.9 42.1 9.7" fill="#00979c" fill-rule="evenodd" stroke="none"/>
      <path d="M36.85 62.55 L36.8 62.55 37.4 61.1 Q38.0 59.1 38.0 56.6 L37.9 54.85 Q35.15 55.3 32.45 56.5 L30.9 57.3 31.15 56.6 32.4 53.65 26.6 53.1 27.5 52.3 28.2 51.65 28.8 51.5 33.15 50.3 33.7 50.5 35.45 51.05 36.5 51.3 37.0 51.45 37.3 51.5 40.25 51.85 40.55 51.95 45.3 53.25 46.75 53.7 47.35 53.5 48.55 52.95 48.6 53.35 49.45 57.6 47.85 57.45 45.3 56.75 44.65 56.35 41.55 59.1 41.5 59.15 40.55 59.85 36.85 62.55 M10.85 62.55 L0.0 62.55 0.0 58.95 1.25 58.85 5.5 58.6 6.95 58.55 10.4 58.85 10.45 59.2 10.55 60.05 10.6 60.5 10.85 62.55 M0.0 20.75 L0.0 16.8 0.7 16.7 2.2 17.25 7.15 19.35 3.65 19.8 1.4 20.25 1.3 20.3 1.05 20.35 1.65 21.15 0.0 20.75 M31.25 1.45 L30.85 1.3 32.0 0.55 32.05 0.55 31.25 1.45 M44.05 12.0 L44.25 12.2 44.65 12.75 45.95 14.55 46.2 18.15 45.1 14.55 44.65 13.45 44.6 13.3 44.4 12.75 44.05 12.0 M53.5 36.8 L53.45 35.95 53.0 36.5 53.0 36.35 54.05 34.9 53.95 36.6 53.95 37.0 53.65 39.65 53.6 39.75 53.55 39.8 53.6 39.35 53.75 37.6 53.7 36.8 53.5 36.8 M53.6 39.85 Q54.4 41.15 55.05 41.5 54.6 42.7 53.15 43.85 L53.15 43.55 53.25 42.7 53.6 39.85 M51.2 39.9 L51.25 40.4 51.35 40.6 51.4 40.7 51.25 41.85 51.0 42.0 51.15 40.65 51.15 40.35 51.15 40.3 51.2 39.9 M43.3 40.5 L43.55 40.35 43.7 40.05 44.0 39.4 44.2 39.85 44.2 39.9 44.3 40.35 44.8 42.15 43.9 42.05 43.3 40.5 M37.4 34.85 L37.2 36.25 37.2 36.3 Q36.05 35.5 35.7 35.6 L34.75 35.65 34.7 36.8 Q34.7 37.65 35.2 39.1 L35.45 39.7 35.05 39.55 Q34.25 37.6 33.8 35.5 L33.4 33.15 33.5 33.15 37.4 34.85 M4.6 24.35 L7.5 26.95 10.05 29.05 Q14.2 32.3 18.4 34.85 15.1 37.15 12.0 39.6 L10.65 38.05 8.95 35.9 8.85 35.75 7.65 34.0 6.4 32.05 7.55 32.3 8.45 32.45 9.0 32.55 11.85 32.85 9.25 30.3 9.1 30.15 8.25 29.2 7.65 28.55 5.95 26.4 4.6 24.35 M15.65 43.3 L23.65 43.7 Q23.05 44.55 22.55 45.55 L22.0 46.6 21.45 47.85 18.75 45.95 17.95 45.3 16.6 44.15 15.75 43.4 15.65 43.3" fill="#8c9eaa" fill-rule="evenodd" stroke="none"/>
      <path d="M32.25 0.0 L33.0 0.0 33.05 0.3 Q33.35 1.6 34.0 2.7 L33.2 2.15 32.75 2.0 32.4 0.75 32.25 0.0 M38.05 5.8 L40.75 5.95 42.8 5.6 43.25 5.45 43.2 6.3 42.9 9.65 42.55 10.15 42.3 9.9 42.35 9.8 42.65 6.85 42.7 6.45 40.55 6.75 39.25 6.8 38.05 5.8" fill="url(#gradient0)" fill-rule="evenodd" stroke="none"/>
      <path d="M29.3 2.25 L30.0 2.8 33.35 5.35 33.4 5.4 33.6 5.55 33.75 5.65 34.85 6.6 35.2 6.95 37.2 9.0 38.05 14.0 38.1 14.5 38.25 15.4 38.3 15.65 38.15 15.55 37.4 15.0 36.95 14.65 36.95 14.6 35.6 13.6 34.05 12.4 33.25 11.8 31.4 10.4 30.5 9.7 30.25 9.5 30.05 8.35 29.8 6.95 29.25 3.6 29.05 2.35 29.0 2.0 29.3 2.25" fill="url(#gradient1)" fill-rule="evenodd" stroke="none"/>
      <path d="M0.0 16.8 L0.0 15.65 6.55 14.95 10.55 14.8 12.55 14.95 13.85 15.1 14.2 15.1 15.1 14.8 15.5 15.6 15.2 15.7 14.8 15.85 11.65 15.85 8.6 15.9 0.7 16.7 0.0 16.8 M0.0 12.2 L0.0 11.1 2.75 10.7 8.0 10.45 9.85 10.5 10.95 10.55 12.9 10.6 13.4 11.55 12.5 11.45 9.3 11.25 7.15 11.3 5.0 11.45 1.6 11.9 0.0 12.2 M24.95 7.65 L25.8 7.45 27.35 7.05 28.35 10.75 27.3 9.75 27.25 9.6 26.6 7.85 25.55 8.2 24.95 7.65 M29.6 11.85 L30.55 12.5 30.9 12.7 31.5 13.0 31.85 13.2 32.65 13.7 33.05 13.9 33.3 14.05 33.35 15.3 32.8 14.8 32.75 14.65 32.55 14.55 32.35 14.4 29.6 11.85 M29.3 2.25 L29.0 2.0 29.05 2.35 29.25 3.6 29.8 6.95 30.05 8.35 30.25 9.5 30.5 9.7 31.4 10.4 33.25 11.8 34.05 12.4 35.6 13.6 36.95 14.6 36.95 14.65 37.4 15.0 38.15 15.55 38.3 15.65 38.25 15.4 38.1 14.5 38.05 14.0 37.2 9.0 35.2 6.95 34.85 6.6 33.75 5.65 33.6 5.55 33.4 5.4 33.35 5.35 30.0 2.8 29.3 2.25 M28.45 1.2 L29.65 2.05 30.3 2.5 33.25 4.55 33.75 4.9 34.1 5.2 35.2 6.1 35.55 6.4 37.75 8.4 38.3 11.75 38.65 13.75 38.75 14.25 38.9 15.15 39.0 15.8 39.05 16.0 39.2 17.05 38.4 16.5 37.9 16.15 37.2 15.65 36.8 15.35 36.65 15.25 33.85 13.3 33.6 13.15 33.25 12.9 31.55 11.7 30.65 11.0 30.35 10.75 29.4 9.95 28.75 4.15 28.6 2.65 28.45 1.2 M49.05 24.2 L49.1 24.25 49.25 24.4 50.4 25.85 50.7 26.35 50.8 26.55 51.0 27.15 51.0 27.2 51.1 27.45 51.15 27.7 51.4 29.0 51.4 29.8 51.3 30.7 51.25 30.75 51.15 30.95 51.15 31.05 51.05 31.25 50.85 31.7 50.8 31.85 50.3 32.4 50.25 32.5 50.15 32.5 49.5 32.95 49.05 33.05 49.55 35.3 49.85 36.45 49.9 36.75 49.65 36.9 49.6 36.85 49.5 36.85 49.25 36.8 49.05 36.6 48.7 36.3 48.65 36.2 48.35 35.2 47.85 33.2 47.85 33.15 47.15 33.05 46.75 32.9 46.4 32.75 46.35 32.7 46.15 32.6 45.25 31.95 45.2 31.95 44.9 31.7 44.6 31.4 44.05 30.8 43.5 29.9 43.1 29.05 42.9 28.5 42.9 28.4 42.6 27.25 Q42.45 26.2 42.7 25.3 L42.95 24.65 43.05 24.45 43.45 23.85 44.1 23.25 44.2 23.2 44.85 22.9 43.0 18.1 Q43.1 18.0 43.3 18.0 L43.4 18.0 43.45 18.0 43.75 18.05 43.95 18.1 44.05 18.15 44.25 18.4 44.55 18.75 44.65 18.95 44.7 19.0 44.75 19.15 45.8 21.85 45.9 22.1 46.15 22.8 46.25 22.8 46.45 22.85 Q47.15 22.95 47.9 23.4 L48.7 23.95 48.85 24.05 49.05 24.2 M44.25 18.65 L43.55 18.6 44.55 21.1 45.15 23.4 45.05 23.45 Q44.0 23.6 43.45 24.5 L43.45 24.55 43.25 24.9 Q42.85 25.75 42.95 26.85 L43.1 27.75 43.25 28.35 Q43.75 29.75 44.65 30.85 L44.75 30.9 44.9 31.05 45.2 31.4 46.75 32.4 47.05 32.5 47.85 32.65 48.25 33.9 49.0 36.4 49.3 36.5 49.55 36.5 48.8 32.6 49.0 32.5 49.75 32.25 50.05 32.05 50.3 31.8 50.45 31.55 50.6 31.35 Q51.45 30.05 50.95 28.15 L50.9 27.95 50.85 27.75 50.15 26.1 49.15 24.8 49.1 24.75 Q48.25 23.9 47.35 23.55 L46.5 23.3 46.25 23.25 46.2 23.25 46.1 23.25 45.0 20.1 44.25 18.65 M47.2 26.65 L47.25 26.7 Q47.75 27.25 47.9 27.9 L47.95 28.25 47.95 28.4 47.9 28.85 47.8 29.1 47.8 29.15 47.7 29.25 47.65 29.35 47.6 29.4 47.4 29.5 47.3 29.55 46.9 29.6 46.8 29.6 46.5 29.5 46.4 29.45 46.3 29.45 46.2 29.35 46.0 29.2 45.75 29.0 Q45.25 28.5 45.05 27.75 L45.05 27.45 45.05 27.1 45.05 26.9 45.2 26.55 45.3 26.4 45.55 26.15 45.75 26.1 45.9 26.05 46.0 26.05 46.15 26.05 46.45 26.15 46.5 26.2 46.6 26.25 46.85 26.4 47.2 26.65 M45.9 26.35 L45.85 26.35 45.7 26.4 45.65 26.4 45.6 26.45 45.4 26.7 45.2 27.0 45.2 27.2 45.2 27.75 45.3 27.95 45.85 28.85 46.1 29.05 46.2 29.15 46.25 29.2 46.35 29.2 46.5 29.3 46.8 29.4 47.0 29.4 47.15 29.35 47.2 29.35 47.25 29.3 47.4 29.2 47.55 29.05 47.6 28.95 47.65 28.95 47.8 28.35 47.8 28.25 47.7 27.9 47.15 26.85 47.1 26.85 46.45 26.35 46.4 26.35 46.2 26.3 46.0 26.3 45.9 26.35" fill="#00d7d7" fill-rule="evenodd" stroke="none"/>
      <path d="M33.0 0.0 L35.55 0.0 Q36.0 1.25 36.85 2.15 L37.15 2.4 Q38.85 3.9 41.25 3.8 L43.5 3.45 44.0 3.3 45.1 2.95 45.4 7.3 Q44.95 9.95 44.65 12.75 L44.25 12.2 44.05 12.0 42.55 10.15 42.9 9.65 43.2 6.3 43.25 5.45 42.8 5.6 40.75 5.95 38.05 5.8 37.55 5.35 36.0 4.15 34.0 2.7 Q33.35 1.6 33.05 0.3 L33.0 0.0" fill="url(#gradient2)" fill-rule="evenodd" stroke="none"/>
      <path d="M35.55 0.0 L37.05 0.0 37.35 0.45 38.0 1.2 Q39.45 2.55 41.65 2.45 L43.65 2.15 44.05 2.0 Q44.2 1.95 45.0 1.65 L45.0 1.8 45.1 2.95 44.0 3.3 43.5 3.45 41.25 3.8 Q38.85 3.9 37.15 2.4 L36.85 2.15 Q36.0 1.25 35.55 0.0 M46.3 1.1 L46.5 1.0 46.45 1.35 46.2 1.15 46.3 1.1" fill="url(#gradient3)" fill-rule="evenodd" stroke="none"/>
      <path d="M0.0 15.65 L0.0 12.2 1.6 11.9 5.0 11.45 7.15 11.3 9.3 11.25 12.5 11.45 13.4 11.55 15.1 14.8 14.2 15.1 13.85 15.1 12.55 14.95 10.55 14.8 6.55 14.95 0.0 15.65 M27.3 9.75 L25.55 8.2 26.6 7.85 27.25 9.6 27.3 9.75 M32.35 14.4 L32.55 14.55 32.75 14.65 32.8 14.8 32.35 14.4" fill="url(#gradient4)" fill-rule="evenodd" stroke="none"/>
      <path d="M0.0 58.95 L0.0 56.8 1.7 54.95 2.15 54.3 3.1 53.7 3.55 53.4 3.1 54.2 Q2.0 56.5 1.25 58.85 L0.0 58.95" fill="#c9e2ff" fill-rule="evenodd" stroke="none"/>
      <path d="M0.0 56.8 L0.0 52.95 2.9 52.85 6.1 52.65 6.0 52.75 Q4.45 54.75 3.25 56.9 L4.25 57.35 6.35 57.0 5.5 58.6 1.25 58.85 Q2.0 56.5 3.1 54.2 L3.55 53.4 3.1 53.7 2.15 54.3 1.7 54.95 0.0 56.8" fill="#8cb3e0" fill-rule="evenodd" stroke="none"/>
      <path d="M53.55 27.6 L53.95 29.25 54.35 31.05 54.55 32.0 54.4 32.9 54.3 33.75 54.2 34.6 54.1 35.6 54.05 35.7 54.0 36.4 54.0 36.6 53.95 37.0 53.95 36.6 54.05 34.9 53.0 36.35 52.2 37.3 52.05 37.55 52.05 37.35 50.65 38.85 51.55 36.1 52.1 34.1 52.45 32.6 52.65 31.7 52.85 30.85 53.55 27.6 M44.25 18.65 L45.0 20.1 46.1 23.25 46.2 23.25 46.25 23.25 46.5 23.3 47.35 23.55 Q48.25 23.9 49.1 24.75 L49.15 24.8 50.15 26.1 50.85 27.75 50.9 27.95 50.95 28.15 Q51.45 30.05 50.6 31.35 L50.45 31.55 50.3 31.8 50.05 32.05 49.75 32.25 49.0 32.5 48.8 32.6 49.55 36.5 49.3 36.5 49.0 36.4 48.25 33.9 47.85 32.65 47.05 32.5 46.75 32.4 45.2 31.4 44.9 31.05 44.75 30.9 44.65 30.85 Q43.75 29.75 43.25 28.35 L43.1 27.75 42.95 26.85 Q42.85 25.75 43.25 24.9 L43.45 24.55 43.45 24.5 Q44.0 23.6 45.05 23.45 L45.15 23.4 44.55 21.1 43.55 18.6 44.25 18.65 M49.3 25.95 L48.85 25.45 Q48.2 24.8 47.6 24.55 L46.95 24.4 46.75 24.35 46.7 24.35 46.6 24.4 46.55 24.4 46.4 24.35 46.25 24.35 46.2 24.4 46.0 24.4 45.9 24.45 45.45 24.6 45.15 24.8 44.85 25.1 44.7 25.25 44.55 25.55 Q44.3 26.15 44.35 26.95 L44.45 27.65 44.6 28.1 Q44.9 29.1 45.6 29.9 L45.65 29.9 45.75 30.05 46.0 30.3 46.95 30.95 47.05 31.0 47.1 31.05 47.35 31.1 47.95 31.2 48.15 31.2 48.75 31.1 49.3 30.95 49.35 30.9 49.55 30.75 49.75 30.55 49.85 30.4 49.95 30.25 50.1 29.9 Q50.45 29.1 50.2 27.95 L50.15 27.75 50.1 27.65 49.6 26.45 49.3 25.95 M45.9 26.35 L46.0 26.3 46.2 26.3 46.4 26.35 46.45 26.35 47.1 26.85 47.15 26.85 47.7 27.9 47.8 28.25 47.8 28.35 47.65 28.95 47.6 28.95 47.55 29.05 47.4 29.2 47.25 29.3 47.2 29.35 47.15 29.35 47.0 29.4 46.8 29.4 46.5 29.3 46.35 29.2 46.25 29.2 46.2 29.15 46.1 29.05 45.85 28.85 45.3 27.95 45.2 27.75 45.2 27.2 45.2 27.0 45.4 26.7 45.6 26.45 45.65 26.4 45.7 26.4 45.85 26.35 45.9 26.35 M53.6 39.75 L53.6 39.85 53.25 42.7 53.15 43.55 53.15 43.85 53.15 44.0 53.4 44.5 53.55 44.85 53.85 45.4 53.7 45.35 53.1 45.15 52.65 44.2 52.6 44.1 52.35 43.5 52.1 42.9 52.2 41.7 52.2 41.4 52.25 41.2 52.25 41.15 52.6 40.9 53.55 39.8 53.6 39.75 M39.2 48.05 L40.05 47.2 41.3 46.0 42.9 44.45 39.8 43.4 36.85 42.3 35.45 41.75 34.15 41.25 33.95 41.15 33.55 41.0 32.55 40.7 28.15 28.7 26.6 24.75 25.15 21.2 23.7 17.85 29.8 22.75 30.05 22.9 32.5 24.9 44.8 35.0 47.0 37.65 47.9 39.05 48.4 39.9 46.1 38.5 Q44.95 37.95 44.25 37.75 L44.45 38.6 44.6 39.2 44.85 40.1 45.05 40.75 45.15 41.0 45.2 41.15 45.65 42.55 46.7 45.25 46.3 45.5 Q43.95 47.05 41.7 48.15 L39.0 49.35 37.35 49.85 36.9 49.95 37.4 49.55 38.25 48.8 38.3 48.75 38.4 48.7 39.2 48.05 M44.0 39.4 L43.65 38.1 43.35 37.4 40.15 36.05 37.4 34.85 33.5 33.15 33.4 33.15 33.8 35.5 Q34.25 37.6 35.05 39.55 L35.45 39.7 39.1 40.95 40.25 41.3 42.45 41.8 43.9 42.05 44.8 42.15 44.3 40.35 44.2 39.9 44.2 39.85 44.0 39.4 M25.05 44.55 Q28.6 43.4 32.7 43.0 L32.8 43.0 34.0 43.25 36.8 43.95 Q33.95 44.6 31.25 45.9 L31.05 46.2 30.25 47.85 26.0 48.8 23.65 49.2 23.2 49.2 22.25 49.15 22.6 48.55 25.05 44.55" fill="#58ffff" fill-rule="evenodd" stroke="none"/>
      <path d="M53.5 36.8 L53.45 36.95 53.5 36.95 53.45 37.45 53.35 37.6 53.3 37.45 53.15 37.35 53.05 37.4 52.85 37.7 52.75 37.85 52.8 38.2 52.8 38.85 52.75 38.95 52.75 39.0 52.65 39.45 52.45 39.8 52.35 39.85 52.3 39.85 52.2 39.8 52.2 39.3 Q51.9 39.35 51.9 39.95 L51.9 40.1 51.95 40.1 51.9 40.35 51.8 40.2 51.75 40.05 51.65 39.55 51.75 38.6 51.8 38.05 52.0 37.8 52.65 36.9 53.0 36.5 53.45 35.95 53.5 36.8 M43.3 40.5 L43.15 40.2 43.2 40.15 43.2 40.0 Q43.05 39.25 42.15 39.15 L42.05 39.15 42.05 39.85 41.7 39.9 41.2 39.9 41.05 39.85 Q40.65 39.8 40.4 39.5 L40.0 38.85 39.85 37.85 39.9 37.3 39.6 37.1 Q39.05 36.7 38.5 36.75 38.2 36.75 38.0 36.9 L37.85 37.05 37.2 36.95 37.2 36.3 37.2 36.25 37.4 34.85 40.15 36.05 43.35 37.4 43.65 38.1 44.0 39.4 43.7 40.05 43.55 40.35 43.3 40.5" fill="#510003" fill-rule="evenodd" stroke="none"/>
      <path d="M51.9 40.35 L51.95 40.1 Q52.2 40.25 52.2 39.8 L52.3 39.85 52.35 39.85 52.45 39.8 52.65 39.45 52.75 39.0 52.75 38.95 52.8 38.85 52.8 38.2 52.75 37.85 52.85 37.7 53.05 37.4 53.15 37.35 53.3 37.45 53.35 37.6 53.2 37.7 53.1 37.85 53.0 38.3 52.9 38.55 52.75 39.5 52.55 40.05 52.75 40.45 Q53.1 40.25 53.2 39.0 L53.2 38.85 53.15 38.55 53.3 38.5 53.4 38.55 53.1 39.9 52.75 40.65 52.65 40.7 52.45 40.85 52.4 40.85 52.3 40.8 52.15 40.7 52.1 40.65 52.1 40.6 51.9 40.35 M43.15 40.2 L43.3 40.5 42.55 40.9 42.4 40.95 42.3 41.05 41.4 41.3 40.4 41.25 40.1 41.15 38.7 40.2 Q37.9 39.45 37.55 38.4 L38.2 38.25 38.5 38.35 38.35 38.8 38.35 39.0 Q39.0 40.7 40.3 40.8 L40.75 40.2 40.1 39.55 Q39.65 38.95 39.55 38.25 L39.2 37.95 Q38.8 37.3 38.15 37.2 L37.85 37.05 38.0 36.9 Q38.2 36.75 38.5 36.75 39.05 36.7 39.6 37.1 L39.9 37.3 39.85 37.85 40.0 38.85 40.4 39.5 Q40.65 39.8 41.05 39.85 L41.2 39.9 41.7 39.9 42.05 39.85 Q42.1 40.5 43.15 40.2" fill="#851c21" fill-rule="evenodd" stroke="none"/>
      <path d="M53.0 38.3 L53.0 38.4 52.95 38.45 53.15 38.55 53.2 38.85 53.2 39.0 Q53.1 40.25 52.75 40.45 L52.55 40.05 52.75 39.5 52.9 38.55 53.0 38.3 M39.2 37.95 L39.55 38.25 Q39.65 38.95 40.1 39.55 L40.75 40.2 40.3 40.8 Q39.0 40.7 38.35 39.0 L38.35 38.8 38.5 38.35 39.3 38.2 39.25 38.05 39.2 37.95" fill="#e0646a" fill-rule="evenodd" stroke="none"/>
      <path d="M51.95 40.1 L51.9 40.1 51.9 39.95 Q51.9 39.35 52.2 39.3 L52.2 39.8 Q52.2 40.25 51.95 40.1 M42.05 39.85 L42.05 39.15 42.15 39.15 Q43.05 39.25 43.2 40.0 L43.2 40.15 43.15 40.2 Q42.1 40.5 42.05 39.85 M38.15 37.2 Q38.8 37.3 39.2 37.95 L39.25 38.05 39.3 38.2 38.5 38.35 38.2 38.25 38.85 38.05 38.85 38.0 38.15 37.2" fill="#ffd2d4" fill-rule="evenodd" stroke="none"/>
      <path d="M51.45 46.25 L51.4 46.25 Q51.25 46.3 51.35 46.45 L51.45 46.55 Q52.05 47.3 52.7 46.3 L52.65 46.2 51.45 46.25 M51.4 45.9 L52.7 45.6 52.75 45.65 53.0 45.9 53.15 46.15 52.75 47.25 52.05 48.0 51.7 48.25 51.65 48.2 51.0 47.8 50.75 47.65 50.4 47.4 49.6 46.75 49.6 46.5 49.6 46.35 49.8 46.3 51.35 45.9 51.4 45.9" fill="#464042" fill-rule="evenodd" stroke="none"/>
      <path d="M51.45 46.25 L52.65 46.2 52.7 46.3 Q52.05 47.3 51.45 46.55 L51.35 46.45 Q51.25 46.3 51.4 46.25 L51.45 46.25" fill="#8e8e8e" fill-rule="evenodd" stroke="none"/>
      <path d="M54.4 54.0 L54.4 54.8 54.5 59.25 54.35 62.55 52.2 62.55 53.0 59.2 53.5 58.8 53.1 58.6 53.35 54.9 54.4 54.0" fill="#2a4462" fill-rule="evenodd" stroke="none"/>
      <path d="M28.8 51.5 L28.2 51.65 24.8 52.5 20.1 53.45 19.65 53.6 Q20.25 50.7 21.45 47.85 L22.0 46.6 22.55 45.55 25.05 44.55 22.6 48.55 22.25 49.15 23.2 49.2 23.65 49.2 26.0 48.8 30.25 47.85 Q29.3 49.85 28.8 51.5" fill="#05c2c2" fill-rule="evenodd" stroke="none"/>
      <path d="M52.2 62.55 L47.05 62.55 46.9 60.35 48.35 60.45 50.2 60.3 51.8 59.8 53.0 59.2 52.2 62.55 M13.85 62.55 L10.85 62.55 10.6 60.5 12.8 59.65 13.55 59.45 13.85 62.45 13.85 62.55 M53.35 54.9 L53.1 58.6 51.8 57.65 51.5 57.45 50.65 56.6 53.35 54.9 M6.35 57.0 L8.2 56.65 12.85 55.6 10.85 59.45 10.55 60.05 10.45 59.2 10.4 58.85 6.95 58.55 5.5 58.6 6.35 57.0" fill="#53749a" fill-rule="evenodd" stroke="none"/>
      <path d="M46.45 1.35 L47.05 1.85 Q48.35 5.7 50.05 12.55 L53.55 27.6 53.95 29.25 54.35 31.05 54.55 32.0 54.4 32.9 54.3 33.75 54.2 34.6 54.1 35.6 54.05 35.7 54.0 36.4 54.0 36.6 53.95 37.0 M8.15 0.9 L7.8 0.0 M8.15 0.9 L8.2 0.95 12.9 10.6 13.4 11.55 15.1 14.8 15.5 15.6 15.7 16.0 17.15 18.7 13.05 18.85 12.6 18.85 10.35 19.0 7.15 19.35 3.65 19.8 1.4 20.25 1.3 20.3 1.05 20.35 1.65 21.15 3.65 23.4 4.6 24.35 7.5 26.95 10.05 29.05 Q14.2 32.3 18.4 34.85 15.1 37.15 12.0 39.6 L8.65 42.3 8.7 42.3 10.95 42.7 15.65 43.3 23.65 43.7 Q23.05 44.55 22.55 45.55 L22.0 46.6 21.45 47.85 Q20.25 50.7 19.65 53.6 L20.1 53.45 24.8 52.5 28.2 51.65 28.8 51.5 33.15 50.3 33.7 50.5 35.45 51.05 36.5 51.3 37.0 51.45 37.3 51.5 40.25 51.85 40.55 51.95 45.3 53.25 46.75 53.7 47.35 53.5 48.55 52.95 51.45 51.0 Q53.3 49.45 55.0 47.4 L54.4 46.45 54.1 45.9 54.05 45.75 53.85 45.4 53.55 44.85 53.4 44.5 53.15 44.0 53.15 43.85 53.15 43.55 53.25 42.7 53.6 39.85 53.6 39.75 M16.85 0.55 L20.05 3.35 24.95 7.65 25.55 8.2 27.3 9.75 28.35 10.75 29.6 11.85 32.35 14.4 32.8 14.8 33.35 15.3 37.2 19.0 M16.85 0.55 L16.25 0.0 M45.4 7.3 L45.1 2.95 45.0 1.8 45.0 1.65 44.9 0.2 46.2 1.15 46.45 1.35 M45.9 14.3 L45.8 12.9 45.4 7.3" fill="none" stroke="#3e3b3e" stroke-linecap="round" stroke-linejoin="round" stroke-width="0.5"/>
      <path d="M46.6 0.0 L46.3 1.1 M54.0 36.6 L56.1 38.65 58.7 40.7 57.35 42.25 54.7 44.8 Q56.05 45.45 58.25 45.85 L59.0 45.95 58.45 47.6 Q57.55 50.15 55.8 52.35 L54.4 54.0 53.35 54.9 50.65 56.6 51.5 57.45 51.8 57.65 53.1 58.6 53.5 58.8 53.0 59.2 51.8 59.8 50.2 60.3 48.35 60.45 46.9 60.35 47.05 62.55 M0.0 25.5 L2.35 24.1 0.0 22.65 M29.0 0.65 L28.95 0.65 28.8 0.6 28.35 0.45 26.85 0.0 M32.35 1.85 L32.75 2.0 33.2 2.15 34.0 2.7 36.0 4.15 37.55 5.35 38.05 5.8 39.25 6.8 39.55 7.1 40.65 8.15 42.1 9.7 42.3 9.9 42.55 10.15 44.05 12.0 44.25 12.2 44.65 12.75 45.95 14.55 M32.35 1.85 L31.25 1.45 30.85 1.3 30.05 1.0 29.0 0.65 M3.65 23.4 L3.4 23.5 2.35 24.1 M6.35 57.0 L4.25 57.35 3.25 56.9 Q4.45 54.75 6.0 52.75 L6.1 52.65 2.9 52.85 0.0 52.95 M13.85 62.55 L13.85 62.45 13.55 59.45 12.8 59.65 10.6 60.5 10.85 62.55 M10.55 60.05 L10.85 59.45 12.85 55.6 8.2 56.65 6.35 57.0 M5.5 58.6 L6.95 58.55 10.4 58.85 10.45 59.2 10.55 60.05 10.6 60.5 M1.25 58.85 L0.0 58.95 M5.5 58.6 L1.25 58.85 M0.0 0.85 L6.2 0.0" fill="none" stroke="#332d2f" stroke-linecap="round" stroke-linejoin="round" stroke-width="0.5"/>
      <path d="M53.95 37.0 L53.95 36.6 54.05 34.9 53.0 36.35 52.2 37.3 52.05 37.55 51.35 38.45 51.3 39.0 51.2 39.9 51.15 40.3 51.15 40.35 51.15 40.65 51.0 42.0 51.25 41.85 51.65 41.65 52.25 41.2 52.25 41.15 52.6 40.9 53.55 39.8 53.6 39.75 53.65 39.65 53.95 37.0 M44.0 39.4 L43.65 38.1 43.35 37.4 40.15 36.05 37.4 34.85 33.5 33.15 33.4 33.15 33.8 35.5 Q34.25 37.6 35.05 39.55 L35.45 39.7 39.1 40.95 40.25 41.3 42.45 41.8 43.9 42.05 44.8 42.15 44.3 40.35 44.2 39.9 44.2 39.85 44.0 39.4" fill="none" stroke="#1b1d20" stroke-linecap="round" stroke-linejoin="round" stroke-width="0.5"/>
      <path d="M54.4 54.0 L54.4 54.8 54.5 59.25 54.35 62.55" fill="none" stroke="#003366" stroke-linecap="round" stroke-linejoin="round" stroke-width="0.5"/>
    </g>
    <radialGradient cx="0" cy="0" gradientTransform="matrix(0.0273, 0.0246, -0.0365, 0.0459, 31.25, -7.4)" gradientUnits="userSpaceOnUse" id="gradient0" r="819.2" spreadMethod="pad">
      <stop offset="0.023529411764705882" stop-color="#00aad4"/>
      <stop offset="1.0" stop-color="#0398a6"/>
    </radialGradient>
    <linearGradient gradientTransform="matrix(0.0057, 0.0, 0.0, 0.0083, 33.65, 8.8)" gradientUnits="userSpaceOnUse" id="gradient1" spreadMethod="pad" x1="-819.2" x2="819.2">
      <stop offset="0.011764705882352941" stop-color="#00e8ff"/>
      <stop offset="1.0" stop-color="#bdffee"/>
      <stop offset="1.0" stop-color="#00fff4"/>
    </linearGradient>
    <radialGradient cx="0" cy="0" gradientTransform="matrix(0.0274, 0.0247, -0.0365, 0.046, 32.95, -8.95)" gradientUnits="userSpaceOnUse" id="gradient2" r="819.2" spreadMethod="pad">
      <stop offset="0.011764705882352941" stop-color="#00f7ff"/>
      <stop offset="1.0" stop-color="#cdfffd"/>
    </radialGradient>
    <radialGradient cx="0" cy="0" gradientTransform="matrix(0.0079, 0.0071, -0.0106, 0.0133, 43.95, -7.25)" gradientUnits="userSpaceOnUse" id="gradient3" r="819.2" spreadMethod="pad">
      <stop offset="0.023529411764705882" stop-color="#00aad4"/>
      <stop offset="1.0" stop-color="#0398a6"/>
    </radialGradient>
    <linearGradient gradientTransform="matrix(0.0382, -0.0457, 0.005, 0.0042, 2.3, 13.2)" gradientUnits="userSpaceOnUse" id="gradient4" spreadMethod="pad" x1="-819.2" x2="819.2">
      <stop offset="0.011764705882352941" stop-color="#00e8ff"/>
      <stop offset="1.0" stop-color="#bdffee"/>
      <stop offset="1.0" stop-color="#00fff4"/>
    </linearGradient>
    <g id="shape2" transform="matrix(1.0, 0.0, 0.0, 1.0, 0.0, 0.0)">
      <path d="M50.5 0.0 Q53.95 0.0 53.95 3.3 L53.95 50.15 Q53.95 53.4 50.5 53.4 L3.3 53.4 Q0.0 53.4 0.0 50.15 L0.0 3.3 Q0.0 0.0 3.3 0.0 L50.5 0.0" fill="#000000" fill-opacity="0.003921569" fill-rule="evenodd" stroke="none"/>
    </g>
  </defs>
</svg>
