<?xml version="1.0" encoding="UTF-8" standalone="no"?>
<svg xmlns:ffdec="https://www.free-decompiler.com/flash" xmlns:xlink="http://www.w3.org/1999/xlink" ffdec:objectType="frame" height="58.3px" width="64.85px" xmlns="http://www.w3.org/2000/svg">
  <g transform="matrix(1.0, 0.0, 0.0, 1.0, 4.95, 0.15)">
    <clipPath id="clipPath0" transform="matrix(1.0, 0.0, 0.0, 1.0, 0.0, 0.0)">
      <path d="M50.5 0.0 Q53.95 0.0 53.95 3.3 L53.95 50.15 Q53.95 53.4 50.5 53.4 L3.3 53.4 Q0.0 53.4 0.0 50.15 L0.0 3.3 Q0.0 0.0 3.3 0.0 L50.5 0.0" fill="#000000" fill-rule="evenodd" stroke="none"/>
    </clipPath>
    <g clip-path="url(#clipPath0)">
      <use ffdec:characterId="2" height="58.3" transform="matrix(1.0, 0.0, 0.0, 1.0, -4.95, -0.15)" width="64.85" xlink:href="#shape1"/>
    </g>
    <use ffdec:characterId="3" height="53.4" transform="matrix(1.0, 0.0, 0.0, 1.0, 0.0, 0.0)" width="53.95" xlink:href="#shape2"/>
  </g>
  <defs>
    <g id="shape1" transform="matrix(1.0, 0.0, 0.0, 1.0, 0.25, 0.25)">
      <path d="M57.95 2.5 L59.9 0.0 60.35 0.0 56.95 6.45 Q54.5 10.75 51.85 14.6 L50.75 16.2 49.6 17.75 Q44.8 24.15 39.3 29.25 L37.85 30.55 37.15 30.65 36.65 30.5 36.2 30.2 32.25 24.3 27.25 16.05 Q23.15 8.8 20.0 1.4 L19.45 0.0 23.1 0.0 Q27.25 6.8 32.15 12.95 L32.85 13.85 34.0 15.25 37.75 19.6 38.95 20.95 40.1 20.15 42.15 18.6 43.7 17.35 46.4 15.0 48.85 12.65 51.65 9.8 57.95 2.5" fill="#adf7ff" fill-rule="evenodd" stroke="none"/>
      <path d="M58.55 0.0 L57.95 2.5 51.65 9.8 51.35 8.35 50.4 5.15 49.65 3.35 50.45 2.35 52.3 0.0 58.55 0.0 M56.95 6.45 L53.85 18.85 64.35 12.25 64.35 23.1 58.85 30.55 62.15 29.8 50.95 35.2 50.8 35.05 49.75 34.0 49.05 33.45 Q50.95 32.8 52.65 31.75 56.05 29.7 58.85 26.25 L61.7 22.6 59.7 22.95 56.3 22.25 52.8 21.6 50.65 21.9 51.45 18.35 52.45 16.15 51.9 16.45 51.7 16.6 51.85 14.6 Q54.5 10.75 56.95 6.45 M64.35 36.65 L64.35 38.5 57.65 46.1 54.2 49.95 52.1 49.0 53.55 47.8 54.85 44.05 57.55 41.9 59.75 40.15 64.35 36.65 M64.35 55.2 L64.35 57.8 63.1 57.8 64.35 55.2 M0.0 56.65 L0.0 51.7 3.75 51.3 4.45 51.25 4.85 51.05 1.45 54.95 0.65 56.1 0.6 56.2 0.0 56.65" fill="#a3fff6" fill-rule="evenodd" stroke="none"/>
      <path d="M5.1 0.0 L7.05 0.0 7.3 0.2 Q10.15 2.3 13.3 3.2 L13.6 3.25 15.85 3.65 16.1 4.0 17.85 7.1 17.1 6.6 15.25 5.35 12.3 3.8 6.85 0.9 5.75 0.35 5.1 0.0 M12.8 0.0 L13.5 0.0 13.9 0.5 14.75 1.7 15.05 2.2 15.45 2.9 13.85 1.0 12.8 0.0 M28.65 0.0 L29.9 0.0 31.0 1.85 31.5 2.8 31.9 0.0 35.95 0.0 37.35 2.15 37.8 2.9 37.75 0.95 37.7 0.0 44.8 0.0 46.25 7.75 47.15 13.35 47.75 11.95 Q48.75 9.45 48.75 6.95 L48.6 4.75 48.5 4.25 47.65 2.0 46.8 0.0 48.15 0.0 48.6 0.95 49.65 3.35 49.6 5.0 49.4 8.05 48.85 12.65 46.4 15.0 46.35 14.7 46.1 13.2 45.7 12.0 44.8 9.55 40.55 0.4 40.45 0.2 40.55 0.65 40.95 2.9 41.35 7.25 40.5 7.8 40.3 7.55 39.85 6.95 39.6 6.65 38.3 5.25 37.8 4.75 36.8 3.75 34.45 1.3 34.4 1.25 33.95 0.75 33.95 1.2 33.8 2.55 Q33.5 4.15 32.8 5.8 L31.95 7.45 31.3 8.65 Q31.2 6.35 30.55 4.2 30.05 2.55 29.2 1.0 L28.65 0.0 M52.65 31.75 Q50.95 32.8 49.05 33.45 L49.75 34.0 50.8 35.05 50.95 35.2 51.55 35.85 52.75 37.55 Q49.4 38.55 44.8 40.7 L44.15 41.05 41.85 40.6 41.8 40.35 Q43.9 39.85 44.8 38.1 L44.9 37.85 41.2 38.05 40.9 37.0 42.25 35.0 42.45 34.7 44.2 32.0 44.75 31.05 44.65 31.15 44.95 30.7 45.0 30.65 45.05 30.5 45.2 30.25 49.55 22.25 50.25 20.85 Q49.6 25.25 48.85 26.85 49.4 25.85 51.8 25.1 L55.85 23.8 56.3 23.8 52.4 27.7 Q52.7 27.45 53.85 27.1 54.8 26.8 55.4 26.4 55.2 27.9 53.45 30.65 L52.65 31.75 M50.75 16.2 L50.65 17.15 49.6 17.75 50.75 16.2" fill="#fff460" fill-rule="evenodd" stroke="none"/>
      <path d="M7.05 0.0 L12.8 0.0 13.85 1.0 15.45 2.9 15.55 3.0 15.6 3.1 15.65 3.2 15.7 3.25 15.75 3.4 15.85 3.65 13.6 3.25 13.3 3.2 Q10.15 2.3 7.3 0.2 L7.05 0.0 M29.9 0.0 L31.9 0.0 31.5 2.8 31.0 1.85 29.9 0.0 M35.95 0.0 L37.7 0.0 37.75 0.95 37.8 2.9 37.35 2.15 35.95 0.0 M44.8 0.0 L46.8 0.0 47.65 2.0 48.5 4.25 48.6 4.75 48.75 6.95 Q48.75 9.45 47.75 11.95 L47.15 13.35 46.25 7.75 44.8 0.0" fill="#fffec2" fill-rule="evenodd" stroke="none"/>
      <path d="M0.0 25.55 L0.0 19.25 Q4.6 21.05 9.15 21.1 L11.35 25.85 16.75 36.6 5.6 29.1 1.0 26.15 0.0 25.55 M0.0 10.15 L0.0 0.0 2.25 0.0 2.25 0.05 2.65 2.25 Q3.05 4.55 3.8 7.2 L4.2 8.5 4.45 9.35 5.35 11.85 8.45 19.5 Q6.15 17.8 4.2 15.65 L0.75 11.2 0.0 10.15 M4.2 0.0 L5.1 0.0 5.75 0.35 6.85 0.9 12.3 3.8 15.25 5.35 17.1 6.6 17.85 7.1 16.1 4.0 15.85 3.65 15.75 3.4 15.7 3.25 15.65 3.2 15.6 3.1 15.55 3.0 15.45 2.9 15.05 2.2 14.75 1.7 13.9 0.5 13.5 0.0 18.0 0.0 20.0 1.4 Q23.15 8.8 27.25 16.05 L25.95 16.85 25.5 16.5 25.45 16.45 20.2 12.65 18.35 11.2 14.35 8.15 11.55 6.0 10.35 5.0 4.2 0.0 M23.1 0.0 L28.65 0.0 29.2 1.0 Q30.05 2.55 30.55 4.2 31.2 6.35 31.3 8.65 L31.95 7.45 32.8 5.8 Q33.5 4.15 33.8 2.55 L33.95 1.2 33.95 0.75 34.4 1.25 34.45 1.3 36.8 3.75 37.8 4.75 38.3 5.25 39.6 6.65 39.85 6.95 40.3 7.55 40.5 7.8 32.15 12.95 Q27.25 6.8 23.1 0.0 M48.85 12.65 L49.4 8.05 49.6 5.0 49.65 3.35 50.4 5.15 51.35 8.35 51.65 9.8 48.85 12.65 M51.45 18.35 L50.65 21.9 52.8 21.6 56.3 22.25 59.7 22.95 61.7 22.6 58.85 26.25 Q56.05 29.7 52.65 31.75 L53.45 30.65 Q55.2 27.9 55.4 26.4 54.8 26.8 53.85 27.1 52.7 27.45 52.4 27.7 L56.3 23.8 55.85 23.8 51.8 25.1 Q49.4 25.85 48.85 26.85 49.6 25.25 50.25 20.85 L51.45 18.35 M50.65 17.15 L50.75 16.2 51.85 14.6 51.7 16.6 50.65 17.15 M41.35 7.25 L40.95 2.9 40.55 0.65 40.45 0.2 40.55 0.4 44.8 9.55 45.7 12.0 46.1 13.2 46.35 14.7 46.4 15.0 43.7 17.35 42.6 10.7 42.15 8.7 41.75 7.0 41.35 7.25 M42.25 35.0 L40.9 37.0 40.85 36.85 42.25 35.0 M41.2 38.05 L44.9 37.85 44.8 38.1 Q43.9 39.85 41.8 40.35 L41.25 38.25 41.2 38.05 M41.85 40.6 L44.15 41.05 Q39.25 43.3 35.55 44.5 L39.3 42.5 40.0 42.1 40.7 41.5 41.85 40.6 M25.35 42.55 L25.6 42.45 25.7 42.55 25.8 42.65 26.4 43.15 28.85 44.85 28.6 44.85 25.35 42.55 M34.15 43.6 L34.65 44.05 34.75 44.15 35.25 44.6 34.1 44.9 32.65 44.9 32.4 44.9 34.15 43.6 M11.55 45.75 L9.55 44.65 9.15 43.9 9.05 43.7 8.7 43.15 8.05 42.05 8.45 41.8 Q11.75 42.0 13.75 44.45 12.65 45.0 11.55 45.75" fill="#e9a600" fill-rule="evenodd" stroke="none"/>
      <path d="M61.25 57.8 L60.55 57.8 60.0 57.35 59.45 57.0 Q58.4 56.35 57.4 55.85 56.65 55.4 55.85 55.1 L59.15 56.0 58.2 53.75 58.15 53.7 57.6 53.0 56.15 51.4 56.75 51.75 56.8 51.75 56.9 51.8 56.95 51.8 57.05 52.0 57.45 52.45 57.6 52.65 59.6 55.4 61.25 57.8 M53.3 57.8 L50.5 57.8 51.0 57.6 52.6 56.75 53.3 57.8 M44.65 57.8 L43.25 57.8 43.8 55.4 45.35 56.35 45.45 56.4 44.65 57.8 M37.85 57.8 L35.8 57.8 34.3 54.8 34.2 54.6 34.45 54.8 35.25 55.5 37.85 57.8 M0.0 28.4 L0.0 27.0 2.95 29.05 6.15 31.45 0.1 28.45 0.0 28.4 M51.9 16.45 L52.45 16.15 51.45 18.35 50.25 20.85 49.55 22.25 45.2 30.25 45.05 30.5 45.0 30.65 44.95 30.7 44.65 31.15 42.75 32.75 42.2 33.7 38.65 40.15 Q38.65 41.25 38.85 41.45 39.1 41.9 40.0 42.1 L39.3 42.5 37.85 42.7 35.9 42.55 38.25 39.1 42.15 33.2 42.45 33.0 42.4 33.0 41.55 33.4 41.4 33.45 38.05 34.95 37.8 35.05 38.2 34.75 39.75 33.35 41.55 31.7 Q45.25 28.25 47.0 25.95 L47.1 25.8 50.3 20.3 51.6 17.4 51.65 17.2 51.9 16.45 M42.15 18.6 L40.1 20.15 Q41.3 15.2 41.7 12.05 L41.8 12.85 42.25 16.2 42.15 18.6 M37.75 19.6 L34.0 15.25 34.75 13.75 35.6 12.6 37.6 11.55 37.75 13.05 37.85 15.5 37.75 19.6 M49.0 48.5 L48.15 50.25 46.65 53.35 46.5 53.6 46.45 53.75 46.35 54.1 45.05 54.6 43.9 55.05 44.05 54.3 45.25 52.9 48.2 49.4 49.0 48.5 M49.5 47.95 L52.6 44.3 50.8 47.3 50.3 48.2 49.5 47.95 M25.4 16.65 Q25.15 17.8 25.15 19.05 L25.25 20.65 Q25.5 24.0 27.05 28.0 L27.25 28.6 Q30.8 30.6 33.0 32.95 32.2 29.1 32.2 25.8 L32.25 24.3 36.2 30.2 36.65 30.5 36.2 33.45 37.15 30.65 37.85 30.55 39.3 29.25 37.8 32.25 35.85 35.55 35.75 35.75 35.3 35.85 34.8 35.4 33.2 33.7 30.4 31.3 27.6 29.4 24.8 28.0 23.4 27.5 21.1 26.65 21.05 26.65 20.35 26.45 20.15 26.4 20.0 26.3 19.85 26.25 19.8 26.2 19.8 26.15 19.8 25.95 19.4 25.7 18.7 25.0 18.6 24.8 18.55 24.75 12.65 17.3 Q9.95 13.7 7.85 10.2 L7.65 9.8 5.95 6.75 5.15 5.3 5.35 5.8 4.1 3.3 5.0 3.9 12.5 8.75 13.35 11.15 13.8 12.35 15.05 15.45 Q16.95 19.9 19.25 23.8 L20.25 25.4 20.85 25.6 23.3 26.55 22.45 21.75 21.7 19.05 Q20.7 15.55 19.45 13.15 L25.4 16.65 M22.6 43.5 L22.75 43.5 23.75 43.2 23.95 43.15 33.05 49.5 31.75 51.2 30.0 49.75 23.95 44.65 22.55 43.5 22.6 43.5 M23.45 42.5 L23.4 42.55 23.4 42.5 23.1 42.0 22.9 41.65 22.2 40.35 20.1 36.5 18.3 33.1 18.0 32.55 16.3 29.3 16.15 28.95 19.3 34.3 19.5 34.6 19.65 34.7 20.1 35.15 20.2 35.25 20.45 35.6 20.5 35.65 20.5 35.6 21.55 36.7 24.9 40.1 24.25 41.25 24.0 41.65 23.9 41.8 23.55 42.3 23.45 42.5 M10.1 33.45 L18.05 39.0 18.8 40.45 15.7 37.9 15.3 37.6 15.05 37.4 10.5 33.9 10.1 33.45 M4.85 43.0 L5.3 43.9 6.15 45.85 6.25 46.1 4.65 47.35 3.35 46.05 1.45 44.0 1.4 43.95 1.1 43.25 1.0 43.05 0.75 41.75 0.7 41.35 Q0.7 40.4 1.2 39.3 L1.55 38.6 Q2.8 39.8 4.85 43.0 M43.5 51.05 L43.55 51.05 Q45.05 49.95 48.2 48.2 L45.85 51.35 45.0 52.45 44.6 53.0 44.4 52.7 43.5 51.05 M51.1 49.9 L51.3 49.95 52.45 50.25 52.8 50.35 52.25 50.3 51.1 50.25 51.05 50.25 51.1 50.3 51.4 51.45 52.15 52.25 52.8 52.8 54.45 53.95 54.95 54.25 54.0 53.95 51.6 52.85 51.55 52.8 50.75 50.9 50.4 50.2 50.85 49.85 51.1 49.9 M48.7 55.7 L48.2 56.3 47.55 55.35 47.6 55.25 48.15 53.8 Q48.95 52.25 49.45 51.75 L49.6 52.2 49.75 53.4 49.6 54.35 49.6 54.45 49.45 54.8 49.4 54.85 48.7 55.7" fill="#ffd23c" fill-rule="evenodd" stroke="none"/>
      <path d="M45.35 57.8 L44.65 57.8 45.45 56.4 46.0 56.75 45.35 57.8 M43.25 57.8 L41.35 57.8 41.85 57.0 42.85 55.3 44.25 53.0 43.55 51.85 43.2 51.3 43.0 51.0 43.25 50.85 43.35 50.75 49.1 47.1 50.2 45.8 52.7 43.0 55.05 40.25 54.85 39.5 54.5 37.6 54.45 37.5 54.45 37.45 54.55 37.15 55.9 38.75 55.95 38.8 56.0 38.85 56.1 38.95 56.1 39.0 56.0 39.45 55.2 40.85 55.2 40.8 54.75 41.55 54.65 41.75 54.3 42.45 53.3 44.3 53.1 44.65 52.2 46.2 50.9 48.5 50.45 48.25 50.3 48.2 50.8 47.3 52.6 44.3 49.5 47.95 49.3 47.85 49.0 48.5 48.2 49.4 45.25 52.9 44.05 54.3 43.9 55.05 43.45 55.2 43.8 55.4 43.25 57.8 M38.55 57.8 L37.85 57.8 35.25 55.5 34.45 54.8 34.2 54.6 34.3 54.8 35.8 57.8 34.15 57.8 33.5 56.9 31.8 55.2 31.3 54.75 31.1 54.6 30.05 53.5 30.0 53.5 22.6 46.05 21.6 45.0 20.75 44.15 14.65 38.0 14.0 37.35 10.5 33.9 15.05 37.4 15.3 37.6 15.7 37.9 18.8 40.45 19.85 42.35 20.45 43.4 22.2 43.55 22.55 43.5 23.95 44.65 30.0 49.75 31.75 51.2 33.05 49.5 23.95 43.15 24.3 43.0 24.4 42.9 24.45 42.9 27.25 44.8 30.75 47.1 33.25 48.8 33.45 48.9 33.75 49.15 33.9 49.25 33.85 49.25 33.65 49.9 32.9 52.1 38.55 57.8 M0.0 43.35 L0.0 35.65 0.95 36.85 1.8 38.05 1.95 38.3 Q3.65 40.7 4.85 43.0 2.8 39.8 1.55 38.6 L1.2 39.3 Q0.7 40.4 0.7 41.35 L0.75 41.75 1.0 43.05 1.1 43.25 1.4 43.95 1.45 44.0 3.35 46.05 0.0 43.35 M2.25 0.0 L4.2 0.0 10.35 5.0 11.55 6.0 14.35 8.15 18.35 11.2 20.2 12.65 25.45 16.45 25.4 16.65 19.45 13.15 14.75 10.15 12.5 8.75 5.0 3.9 4.1 3.3 3.8 2.55 3.85 3.1 Q4.15 6.2 5.15 11.1 L5.35 11.85 4.45 9.35 4.2 8.5 3.8 7.2 Q3.05 4.55 2.65 2.25 L2.25 0.05 2.25 0.0 M51.7 16.6 L51.9 16.45 51.65 17.2 51.6 17.4 50.3 20.3 47.1 25.8 47.0 25.95 Q45.25 28.25 41.55 31.7 L39.75 33.35 38.2 34.75 37.8 35.05 35.8 35.75 35.75 35.75 35.85 35.55 37.8 32.25 39.3 29.25 Q44.8 24.15 49.6 17.75 L50.65 17.15 51.7 16.6 M43.7 17.35 L42.15 18.6 42.25 16.2 41.8 12.85 41.7 12.05 Q41.3 15.2 40.1 20.15 L38.95 20.95 37.75 19.6 37.85 15.5 37.75 13.05 37.6 11.55 35.6 12.6 32.85 13.85 32.15 12.95 40.5 7.8 41.35 7.25 41.75 7.0 42.15 8.7 42.6 10.7 43.7 17.35 M44.65 31.15 L44.75 31.05 44.2 32.0 42.45 34.7 42.25 35.0 40.85 36.85 40.9 37.0 41.2 38.05 41.25 38.25 41.8 40.35 41.85 40.6 40.7 41.5 40.0 42.1 Q39.1 41.9 38.85 41.45 38.65 41.25 38.65 40.15 L42.2 33.7 42.75 32.75 44.65 31.15 M37.15 30.65 L36.2 33.45 36.65 30.5 37.15 30.65 M27.55 41.3 L26.3 41.75 25.2 42.1 24.8 42.2 23.75 42.45 23.45 42.5 23.55 42.3 23.9 41.8 24.0 41.65 24.25 41.25 24.9 40.1 21.55 36.7 20.5 35.6 20.5 35.5 23.65 38.0 26.0 39.25 26.3 39.65 26.55 39.95 27.55 41.3 M10.1 33.45 L9.85 33.25 9.05 32.4 10.55 33.45 17.65 38.25 18.05 39.0 10.1 33.45 M43.5 51.05 L44.4 52.7 44.6 53.0 45.0 52.45 45.85 51.35 48.2 48.2 Q45.05 49.95 43.55 51.05 L43.5 51.05 M54.0 53.95 L51.9 53.3 50.9 54.0 50.4 54.3 48.7 55.7 49.4 54.85 49.45 54.8 49.6 54.45 49.6 54.35 49.75 53.4 49.6 52.2 49.45 51.75 Q48.95 52.25 48.15 53.8 L49.25 51.5 49.3 51.4 50.3 49.95 50.4 49.65 50.65 49.75 51.1 49.9 50.85 49.85 50.4 50.2 50.75 50.9 51.55 52.8 51.6 52.85 54.0 53.95" fill="#ffef8c" fill-rule="evenodd" stroke="none"/>
      <path d="M62.15 29.8 L64.35 28.75 64.35 31.9 51.55 35.85 50.95 35.2 62.15 29.8 M64.35 53.25 L64.35 55.2 63.1 57.8 62.8 57.8 64.35 53.25" fill="#23bcff" fill-rule="evenodd" stroke="none"/>
      <path d="M64.35 31.9 L64.35 36.65 59.75 40.15 57.55 41.9 54.85 44.05 55.45 42.0 56.0 39.45 56.1 39.0 56.1 38.95 56.0 38.85 55.95 38.8 55.9 38.75 54.55 37.15 54.45 37.45 53.85 39.6 52.6 41.2 44.75 46.45 40.3 49.45 35.0 46.95 32.45 45.8 32.65 44.95 32.65 44.9 34.1 44.9 35.25 44.6 35.55 44.5 Q39.25 43.3 44.15 41.05 L44.8 40.7 Q49.4 38.55 52.75 37.55 L51.55 35.85 64.35 31.9 M64.35 38.5 L64.35 53.25 62.8 57.8 61.5 57.8 Q59.55 54.5 57.7 52.35 L57.35 51.85 56.25 51.2 56.1 51.05 55.2 50.45 54.2 49.95 57.65 46.1 64.35 38.5 M59.35 57.8 L53.95 57.8 53.1 56.6 52.8 56.1 52.65 55.95 52.6 55.9 55.5 55.3 Q56.9 56.05 58.45 57.15 L59.35 57.8" fill="#00e6fd" fill-rule="evenodd" stroke="none"/>
      <path d="M61.5 57.8 L61.25 57.8 59.6 55.4 57.6 52.65 57.45 52.45 57.05 52.0 56.95 51.8 56.9 51.8 56.8 51.75 56.75 51.75 56.15 51.4 54.15 50.5 53.85 50.35 51.65 49.5 50.8 49.2 50.55 49.1 49.95 48.8 49.85 48.75 49.75 48.8 49.3 49.45 48.95 50.05 48.5 50.95 47.85 52.3 47.1 54.1 47.0 54.4 46.95 54.45 46.75 55.05 46.9 55.25 46.95 55.35 47.05 55.5 47.2 55.7 47.45 55.95 47.8 56.4 47.9 56.65 48.2 56.9 48.25 57.05 48.55 57.25 48.65 56.9 48.75 56.55 48.85 56.35 Q49.65 55.4 50.8 54.6 L51.45 54.15 52.15 53.7 54.05 54.35 55.1 54.8 55.85 55.1 Q56.65 55.4 57.4 55.85 58.4 56.35 59.45 57.0 L60.0 57.35 60.55 57.8 59.35 57.8 58.45 57.15 Q56.9 56.05 55.5 55.3 L52.6 55.9 52.55 55.9 Q50.85 56.4 49.5 57.15 L49.3 57.65 49.25 57.8 49.3 57.65 49.5 57.15 Q50.85 56.4 52.55 55.9 L52.6 55.9 52.65 55.95 52.8 56.1 53.1 56.6 53.95 57.8 53.7 57.8 53.05 56.6 52.8 56.15 52.8 56.1 52.25 56.35 51.4 56.75 Q50.6 57.15 49.85 57.7 L49.7 57.8 49.25 57.8 47.55 57.8 47.25 57.6 47.1 57.5 46.65 57.15 46.25 56.9 46.0 56.75 45.45 56.4 45.35 56.35 43.8 55.4 43.45 55.2 43.9 55.05 45.05 54.6 46.35 54.1 46.45 53.75 46.5 53.6 46.65 53.35 48.15 50.25 49.0 48.5 49.3 47.85 49.5 47.95 50.3 48.2 50.45 48.25 50.9 48.5 51.25 48.65 52.1 49.0 54.2 49.95 55.2 50.45 56.1 51.05 56.25 51.2 57.35 51.85 57.7 52.35 Q59.55 54.5 61.5 57.8 M40.4 57.8 L39.15 57.8 38.4 57.1 40.35 53.75 40.05 52.8 40.0 52.45 39.25 50.2 40.3 49.45 44.75 46.45 52.6 41.2 53.85 39.6 54.45 37.45 54.45 37.5 54.5 37.6 54.85 39.5 54.95 40.0 52.75 42.65 50.65 44.85 Q47.3 48.3 43.3 50.7 L43.15 50.8 42.95 50.9 42.6 51.05 42.65 51.2 42.7 51.3 42.85 51.55 43.45 52.8 43.25 53.15 41.5 56.05 40.5 57.65 40.4 57.8 M25.1 57.8 L23.05 57.8 21.3 56.4 20.05 55.3 19.8 55.05 16.35 51.95 15.8 48.65 12.0 49.25 9.8 49.6 8.75 49.9 7.55 50.15 7.15 50.25 6.05 50.5 5.9 50.55 4.85 51.05 4.45 51.25 3.75 51.3 0.0 51.7 0.0 50.25 1.25 50.1 2.05 49.95 0.3 48.7 0.0 48.5 0.0 47.3 0.0 44.4 3.05 47.1 3.2 47.45 3.5 48.2 3.75 48.8 4.45 48.55 4.75 48.45 5.4 48.1 5.8 47.85 6.7 47.25 7.25 46.9 Q7.4 46.8 7.6 46.65 L7.9 46.45 8.3 46.15 8.35 46.1 7.9 44.9 7.85 44.8 7.55 44.15 6.9 42.8 6.35 41.85 5.05 39.55 4.0 37.8 2.75 35.95 1.9 34.6 0.75 33.2 0.7 33.2 0.55 33.1 0.0 33.15 0.0 31.85 1.85 31.85 Q3.05 33.45 4.9 36.8 L6.45 39.4 6.65 39.4 Q8.85 39.45 10.9 40.25 L13.85 41.85 16.25 43.9 Q18.25 46.0 19.9 49.05 L19.8 51.1 19.8 52.05 20.15 52.5 21.95 54.65 24.3 57.1 25.1 57.8 M0.0 25.85 L0.0 25.55 1.0 26.15 0.0 25.85 M5.35 5.8 L5.15 5.3 5.95 6.75 7.65 9.8 7.85 10.2 Q9.85 13.75 12.3 17.15 L17.2 23.3 18.35 24.6 18.55 24.8 18.6 24.8 18.7 25.0 19.4 25.7 19.8 25.95 19.8 26.15 19.8 26.2 19.8 26.25 19.85 26.25 20.0 26.3 20.15 26.4 20.35 26.45 21.05 26.65 21.1 26.65 23.4 27.5 24.8 28.0 27.6 29.4 30.4 31.3 33.2 33.7 34.8 35.4 35.3 35.85 35.75 35.75 35.8 35.75 37.8 35.05 38.05 34.95 41.4 33.45 41.55 33.4 42.4 33.0 42.45 33.0 42.15 33.2 38.25 39.1 35.9 42.55 37.85 42.7 39.3 42.5 35.55 44.5 35.25 44.6 34.75 44.15 34.65 44.05 34.15 43.6 34.85 42.95 35.95 41.5 36.2 40.5 36.7 39.65 37.05 39.1 37.1 39.05 37.15 39.0 37.25 38.95 37.3 38.9 37.85 38.55 38.15 38.2 38.25 37.9 38.65 37.5 38.8 37.4 39.0 37.05 39.85 35.7 41.5 33.85 41.5 33.7 39.5 35.15 38.95 35.5 37.15 36.65 36.85 36.8 36.0 37.3 35.9 37.3 35.75 37.4 35.55 37.5 34.4 38.05 33.95 38.25 33.9 38.2 33.75 38.0 33.3 37.5 31.75 35.9 31.55 35.75 29.55 33.9 29.05 33.45 25.35 30.45 23.65 29.2 23.55 29.1 22.1 28.1 22.05 28.05 21.15 27.45 21.0 27.35 20.8 27.2 20.8 27.3 21.3 31.2 Q21.8 34.05 22.5 36.25 L24.95 38.25 26.0 39.25 23.65 38.0 20.5 35.5 20.5 35.6 20.5 35.65 20.45 35.6 20.2 35.25 20.1 35.15 19.65 34.7 19.5 34.6 19.3 34.3 16.15 28.95 16.3 29.3 18.0 32.55 18.3 33.1 20.1 36.5 22.2 40.35 22.9 41.65 23.1 42.0 23.4 42.5 23.4 42.55 23.45 42.5 23.75 42.45 24.8 42.2 25.2 42.1 26.3 41.75 27.55 41.3 27.55 41.4 25.6 42.45 25.35 42.55 24.45 42.9 24.4 42.9 24.3 43.0 23.95 43.15 23.75 43.2 22.75 43.5 22.6 43.5 21.4 41.35 20.95 40.55 20.05 38.9 Q13.3 26.35 9.25 16.35 L8.35 13.8 7.95 12.65 6.65 9.65 5.9 7.75 5.35 5.8 M8.05 42.05 L8.7 43.15 9.05 43.7 9.15 43.9 9.55 44.65 11.55 45.75 12.8 46.4 15.5 47.75 14.6 45.7 13.75 44.45 Q11.75 42.0 8.45 41.8 L7.85 41.75 8.05 42.05 M6.45 39.4 L7.85 41.75 6.45 39.4 M15.8 48.65 L17.05 48.5 15.5 47.75 17.05 48.5 15.8 48.65 M0.0 47.3 L1.25 48.05 1.75 49.05 2.65 51.25 5.05 50.7 5.9 50.55 5.05 50.7 2.65 51.25 1.75 49.05 1.25 48.05 0.0 47.3" fill="#c25400" fill-rule="evenodd" stroke="none"/>
      <path d="M53.7 57.8 L53.3 57.8 52.6 56.75 51.0 57.6 50.5 57.8 49.7 57.8 49.85 57.7 Q50.6 57.15 51.4 56.75 L52.25 56.35 52.8 56.1 52.8 56.15 53.05 56.6 53.7 57.8 M47.55 57.8 L45.35 57.8 46.0 56.75 46.25 56.9 46.65 57.15 47.1 57.5 47.25 57.6 47.55 57.8 M41.35 57.8 L40.4 57.8 40.5 57.65 41.5 56.05 43.25 53.15 43.45 52.8 42.85 51.55 42.7 51.3 42.65 51.2 42.6 51.05 42.95 50.9 43.15 50.8 43.3 50.7 Q47.3 48.3 50.65 44.85 L52.75 42.65 54.95 40.0 54.85 39.5 55.05 40.25 52.7 43.0 50.2 45.8 49.1 47.1 43.35 50.75 43.25 50.85 43.0 51.0 43.2 51.3 43.55 51.85 44.25 53.0 42.85 55.3 41.85 57.0 41.35 57.8 M39.15 57.8 L38.55 57.8 32.9 52.1 33.65 49.9 33.85 49.25 33.9 49.25 33.75 49.15 33.45 48.9 33.25 48.8 30.75 47.1 27.25 44.8 24.45 42.9 25.35 42.55 28.6 44.85 31.75 47.1 33.35 48.25 33.75 48.55 33.9 48.65 34.0 48.75 34.65 49.25 34.95 49.45 34.75 49.85 34.65 50.25 34.55 50.55 33.95 52.45 34.65 53.2 35.35 54.0 36.95 55.7 37.2 56.0 38.4 57.15 38.4 57.1 39.15 57.8 M34.15 57.8 L25.1 57.8 24.3 57.1 21.95 54.65 20.15 52.5 19.8 52.05 19.8 51.1 19.9 49.05 Q18.25 46.0 16.25 43.9 L13.85 41.85 10.9 40.25 Q8.85 39.45 6.65 39.4 L6.45 39.4 4.9 36.8 Q3.05 33.45 1.85 31.85 L0.0 31.85 0.0 28.4 0.1 28.45 6.15 31.45 2.95 29.05 0.0 27.0 0.0 25.85 1.0 26.15 5.6 29.1 16.75 36.6 17.65 38.25 16.75 36.6 11.35 25.85 9.15 21.1 8.45 19.5 5.35 11.85 5.15 11.1 Q4.15 6.2 3.85 3.1 L3.8 2.55 4.1 3.3 5.35 5.8 5.9 7.75 6.65 9.65 7.95 12.65 8.35 13.8 9.25 16.35 Q13.3 26.35 20.05 38.9 L20.95 40.55 21.4 41.35 22.6 43.5 22.55 43.5 22.2 43.55 20.45 43.4 19.85 42.35 18.8 40.45 18.05 39.0 17.65 38.25 10.55 33.45 9.05 32.4 9.85 33.25 10.1 33.45 10.5 33.9 14.0 37.35 14.65 38.0 20.75 44.15 21.6 45.0 22.6 46.05 30.0 53.5 30.05 53.5 31.1 54.6 31.3 54.75 31.8 55.2 33.5 56.9 34.15 57.8 M0.0 50.25 L0.0 48.5 0.3 48.7 2.05 49.95 1.25 50.1 0.0 50.25 M0.0 44.4 L0.0 43.35 3.35 46.05 4.65 47.35 6.25 46.1 6.15 45.85 5.3 43.9 4.85 43.0 Q3.65 40.7 1.95 38.3 L1.8 38.05 0.95 36.85 0.0 35.65 0.0 33.15 0.55 33.1 0.7 33.2 0.75 33.2 1.9 34.6 2.75 35.95 4.0 37.8 5.05 39.55 6.35 41.85 6.9 42.8 7.55 44.15 7.85 44.8 7.9 44.9 8.35 46.1 8.3 46.15 7.9 46.45 7.6 46.65 Q7.4 46.8 7.25 46.9 L6.7 47.25 5.8 47.85 5.4 48.1 4.75 48.45 4.45 48.55 3.75 48.8 3.5 48.2 3.2 47.45 3.05 47.1 0.0 44.4 M34.0 15.25 L32.85 13.85 35.6 12.6 34.75 13.75 34.0 15.25 M56.0 39.45 L55.45 42.0 54.85 44.05 53.55 47.8 52.1 49.0 51.25 48.65 50.9 48.5 52.2 46.2 53.1 44.65 53.3 44.3 54.3 42.45 54.65 41.75 54.75 41.55 55.2 40.8 55.2 40.85 56.0 39.45 M55.85 55.1 L55.1 54.8 54.05 54.35 52.15 53.7 51.45 54.15 50.8 54.6 Q49.65 55.4 48.85 56.35 L48.75 56.55 48.65 56.9 48.55 57.25 48.25 57.05 48.2 56.9 47.9 56.65 47.8 56.4 47.45 55.95 47.2 55.7 47.05 55.5 46.95 55.35 46.9 55.25 46.75 55.05 46.95 54.45 47.0 54.4 47.1 54.1 47.85 52.3 48.5 50.95 48.95 50.05 49.3 49.45 49.75 48.8 49.85 48.75 49.95 48.8 50.55 49.1 50.8 49.2 51.65 49.5 53.85 50.35 54.15 50.5 56.15 51.4 57.6 53.0 58.15 53.7 58.2 53.75 59.15 56.0 55.85 55.1 M25.4 16.65 L25.45 16.45 25.5 16.5 25.95 16.85 27.25 16.05 32.25 24.3 32.2 25.8 Q32.2 29.1 33.0 32.95 30.8 30.6 27.25 28.6 L27.05 28.0 Q25.5 24.0 25.25 20.65 L25.15 19.05 Q25.15 17.8 25.4 16.65 M19.45 13.15 Q20.7 15.55 21.7 19.05 L22.45 21.75 23.3 26.55 20.85 25.6 20.25 25.4 19.25 23.8 Q16.95 19.9 15.05 15.45 L13.8 12.35 13.35 11.15 12.5 8.75 14.75 10.15 19.45 13.15 M7.85 10.2 Q9.95 13.7 12.65 17.3 L18.55 24.75 18.6 24.8 18.55 24.8 18.35 24.6 17.2 23.3 12.3 17.15 Q9.85 13.75 7.85 10.2 M19.8 26.2 L19.85 26.25 19.8 26.25 19.8 26.2 M54.0 53.95 L54.95 54.25 54.45 53.95 52.8 52.8 52.15 52.25 51.4 51.45 51.1 50.3 51.05 50.25 51.1 50.25 52.25 50.3 52.8 50.35 52.45 50.25 51.3 49.95 51.1 49.9 50.65 49.75 50.4 49.65 50.3 49.95 49.3 51.4 49.25 51.5 48.15 53.8 47.6 55.25 47.55 55.35 48.2 56.3 48.7 55.7 50.4 54.3 50.9 54.0 51.9 53.3 54.0 53.95" fill="#d77700" fill-rule="evenodd" stroke="none"/>
      <path d="M0.0 19.25 L0.0 10.15 0.75 11.2 4.2 15.65 Q6.15 17.8 8.45 19.5 L9.15 21.1 Q4.6 21.05 0.0 19.25 M18.0 0.0 L19.45 0.0 20.0 1.4 18.0 0.0 M8.45 41.8 L8.05 42.05 7.85 41.75 8.45 41.8" fill="#e0bf2b" fill-rule="evenodd" stroke="none"/>
      <path d="M25.6 42.45 L27.55 41.4 27.55 41.3 26.55 39.95 26.3 39.65 26.0 39.25 24.95 38.25 22.5 36.25 Q21.8 34.05 21.3 31.2 L20.8 27.3 20.8 27.2 21.0 27.35 21.15 27.45 22.05 28.05 22.05 28.2 22.05 28.3 22.1 29.15 22.6 32.4 22.95 33.3 23.05 33.6 23.5 34.65 23.7 35.05 24.15 35.95 24.9 36.8 25.1 37.05 25.15 37.15 25.35 37.3 27.2 37.75 27.7 37.8 28.2 37.8 29.25 37.7 29.65 37.65 30.1 37.55 30.1 36.95 Q30.0 35.05 29.55 33.95 L29.55 33.9 31.55 35.75 31.75 35.9 33.3 37.5 33.75 38.0 33.9 38.2 33.95 38.25 34.4 38.05 35.55 37.5 35.0 38.45 34.75 38.75 34.85 38.8 33.6 39.5 31.8 37.7 31.7 37.6 30.55 36.55 30.6 36.9 30.55 37.9 29.85 37.95 28.2 38.25 25.55 37.9 25.0 37.7 26.1 38.95 Q27.65 40.65 29.05 41.4 L28.65 41.65 27.2 42.65 28.3 43.7 29.6 44.85 31.1 45.8 30.95 45.9 30.7 45.9 28.85 44.85 26.4 43.15 25.8 42.65 25.7 42.55 25.6 42.45 M39.5 35.15 L41.5 33.7 41.5 33.85 39.85 35.7 40.0 35.4 40.05 35.35 40.05 35.2 39.9 35.15 39.5 35.15 M37.05 39.1 L36.7 39.65 36.65 39.65 35.85 39.55 35.7 39.35 35.65 39.05 35.7 39.05 35.9 39.15 36.1 39.1 37.0 39.1 37.05 39.1" fill="#d5cce7" fill-rule="evenodd" stroke="none"/>
      <path d="M22.05 28.05 L22.1 28.1 23.55 29.1 23.65 29.2 23.35 29.15 22.8 29.15 22.75 30.4 Q22.85 31.85 23.3 33.25 L23.5 33.95 23.95 34.9 24.0 35.1 25.1 37.05 26.65 37.2 26.8 37.25 26.85 37.25 26.95 37.25 27.1 37.25 28.05 37.25 28.4 37.25 29.4 37.15 29.45 35.95 29.05 33.5 29.05 33.45 29.55 33.9 29.55 33.95 Q30.0 35.05 30.1 36.95 L30.1 37.55 29.65 37.65 29.25 37.7 28.2 37.8 27.7 37.8 27.2 37.75 25.35 37.3 25.15 37.15 25.1 37.05 24.9 36.8 24.15 35.95 23.7 35.05 23.5 34.65 23.05 33.6 22.95 33.3 22.6 32.4 22.1 29.15 22.05 28.3 22.05 28.2 22.05 28.05" fill="url(#gradient0)" fill-rule="evenodd" stroke="none"/>
      <path d="M23.65 29.2 L25.35 30.45 29.05 33.45 29.05 33.5 29.45 35.95 29.4 37.15 28.4 37.25 28.05 37.25 27.1 37.25 26.95 37.25 26.85 37.25 26.8 37.25 26.65 37.2 25.1 37.05 24.0 35.1 23.95 34.9 23.5 33.95 23.3 33.25 Q22.85 31.85 22.75 30.4 L22.8 29.15 23.35 29.15 23.65 29.2 M24.55 32.0 L24.0 32.05 Q23.75 32.2 23.9 32.65 L24.4 33.7 Q25.0 34.3 25.6 34.4 26.15 34.4 26.15 33.95 L26.15 33.7 25.8 32.95 25.2 32.3 24.55 32.0" fill="url(#gradient1)" fill-rule="evenodd" stroke="none"/>
      <path d="M24.55 32.0 L25.2 32.3 25.8 32.95 26.15 33.7 26.15 33.95 Q26.15 34.4 25.6 34.4 25.0 34.3 24.4 33.7 L23.9 32.65 Q23.75 32.2 24.0 32.05 L24.55 32.0" fill="#ffe0ea" fill-rule="evenodd" stroke="none"/>
      <path d="M23.05 57.8 L22.25 57.8 21.9 57.5 21.65 57.8 20.45 57.8 19.25 57.8 19.6 57.05 17.8 55.65 16.5 54.7 Q13.45 53.0 10.95 52.75 9.55 52.6 8.25 52.75 5.85 52.9 3.75 53.8 2.4 55.3 1.05 57.25 L0.65 57.8 0.0 57.8 0.0 56.65 0.6 56.2 0.65 56.1 1.45 54.95 4.85 51.05 5.9 50.55 6.05 50.5 7.15 50.25 7.55 50.15 8.75 49.9 9.8 49.6 12.0 49.25 15.8 48.65 16.35 51.95 19.8 55.05 20.05 55.3 21.3 56.4 23.05 57.8 M11.55 45.75 Q12.65 45.0 13.75 44.45 L14.6 45.7 15.5 47.75 12.8 46.4 11.55 45.75 M28.85 44.85 L30.7 45.9 30.95 45.9 31.1 45.8 Q31.8 45.3 32.4 44.9 L32.65 44.9 32.65 44.95 32.45 45.8 35.0 46.95 40.3 49.45 39.25 50.2 40.0 52.45 40.05 52.8 40.35 53.75 38.4 57.1 38.4 57.15 37.2 56.0 36.95 55.7 35.35 54.0 34.65 53.2 33.95 52.45 34.55 50.55 34.65 50.25 34.75 49.85 34.95 49.45 34.65 49.25 34.0 48.75 33.9 48.65 33.75 48.55 33.35 48.25 31.75 47.1 28.6 44.85 28.85 44.85 M20.45 57.8 L21.15 56.75 21.3 56.4 21.15 56.75 20.45 57.8" fill="#2c50a6" fill-rule="evenodd" stroke="none"/>
      <path d="M36.0 37.3 L36.85 36.8 37.15 36.65 38.95 35.5 39.4 35.5 39.6 35.6 39.4 36.1 39.3 36.35 38.65 37.3 38.55 37.6 38.15 38.05 38.0 38.1 37.3 38.9 37.25 38.95 37.15 39.0 37.1 39.05 36.5 38.95 36.4 38.95 36.35 38.95 35.9 38.85 35.75 38.75 35.65 38.75 Q35.55 38.7 35.25 38.6 L35.35 38.45 35.6 37.95 36.0 37.3 M36.95 37.75 L36.5 37.9 Q36.3 37.9 36.1 38.05 L35.9 38.45 36.1 38.5 36.95 38.0 36.95 37.75" fill="url(#gradient2)" fill-rule="evenodd" stroke="none"/>
      <path d="M35.55 37.5 L35.75 37.4 35.9 37.3 36.0 37.3 35.6 37.95 35.35 38.45 35.25 38.6 Q35.55 38.7 35.65 38.75 L35.75 38.75 35.9 38.85 36.35 38.95 36.4 38.95 36.5 38.95 37.1 39.05 37.05 39.1 37.0 39.1 36.1 39.1 35.9 39.15 35.7 39.05 35.65 39.05 35.2 38.95 35.0 38.9 34.85 38.8 34.75 38.75 35.0 38.45 35.55 37.5 M38.95 35.5 L39.5 35.15 39.9 35.15 40.05 35.2 40.05 35.35 40.0 35.4 39.85 35.7 39.0 37.05 38.8 37.4 38.65 37.5 38.25 37.9 38.15 38.2 37.85 38.55 37.3 38.9 38.0 38.1 38.15 38.05 38.55 37.6 38.65 37.3 39.3 36.35 39.4 36.1 39.6 35.6 39.4 35.5 38.95 35.5" fill="url(#gradient3)" fill-rule="evenodd" stroke="none"/>
      <path d="M36.7 39.65 L36.2 40.5 35.95 41.5 34.85 42.95 34.15 43.6 32.4 44.9 Q31.8 45.3 31.1 45.8 L29.6 44.85 28.3 43.7 27.2 42.65 28.65 41.65 29.05 41.4 Q27.65 40.65 26.1 38.95 L25.0 37.7 25.55 37.9 28.2 38.25 29.85 37.95 30.55 37.9 30.6 36.9 30.55 36.55 31.7 37.6 31.8 37.7 33.6 39.5 34.85 38.8 35.0 38.9 35.2 38.95 35.65 39.05 35.7 39.35 35.85 39.55 36.65 39.65 36.7 39.65 M31.8 43.25 L32.2 43.2 32.5 43.15 30.4 42.7 29.9 42.85 29.2 42.85 29.05 42.85 29.0 42.95 28.85 43.05 29.05 43.2 30.9 43.35 31.0 43.35 31.35 43.3 31.8 43.25" fill="#fffdfa" fill-rule="evenodd" stroke="none"/>
      <path d="M29.9 42.85 L30.4 42.7 32.5 43.15 32.2 43.2 31.8 43.25 29.9 42.85 M29.0 42.95 L29.05 42.85 29.2 42.85 29.0 42.95" fill="#ada5bd" fill-rule="evenodd" stroke="none"/>
      <path d="M31.8 43.25 L31.35 43.3 31.0 43.35 30.9 43.35 29.05 43.2 28.85 43.05 29.0 42.95 29.2 42.85 29.9 42.85 31.8 43.25" fill="#932424" fill-rule="evenodd" stroke="none"/>
      <path d="M36.95 37.75 L36.95 38.0 36.1 38.5 35.9 38.45 36.1 38.05 Q36.3 37.9 36.5 37.9 L36.95 37.75" fill="#fcd5e1" fill-rule="evenodd" stroke="none"/>
      <path d="M22.25 57.8 L21.65 57.8 21.9 57.5 22.25 57.8 M19.25 57.8 L18.6 57.8 18.7 57.65 16.4 56.3 15.45 55.85 Q13.0 54.8 11.2 54.6 L8.8 54.55 Q5.9 54.55 3.95 55.3 L2.85 56.8 2.05 57.65 1.85 57.8 0.65 57.8 1.05 57.25 Q2.4 55.3 3.75 53.8 5.85 52.9 8.25 52.75 9.55 52.6 10.95 52.75 13.45 53.0 16.5 54.7 L17.8 55.65 19.6 57.05 19.25 57.8" fill="#4b6db5" fill-rule="evenodd" stroke="none"/>
      <path d="M18.6 57.8 L17.8 57.8 16.85 57.2 Q15.95 56.6 15.05 56.2 13.3 55.4 11.7 55.35 L11.35 55.3 11.1 55.3 9.2 55.3 7.5 55.65 6.55 56.0 6.25 56.15 4.25 57.8 1.85 57.8 2.05 57.65 2.85 56.8 3.95 55.3 Q5.9 54.55 8.8 54.55 L11.2 54.6 Q13.0 54.8 15.45 55.85 L16.4 56.3 18.7 57.65 18.6 57.8" fill="#48cfff" fill-rule="evenodd" stroke="none"/>
      <path d="M17.8 57.8 L11.15 57.8 Q10.55 57.35 9.35 57.25 L6.15 57.45 5.9 57.8 4.25 57.8 6.25 56.15 6.55 56.0 7.5 55.65 9.2 55.3 11.1 55.3 11.35 55.3 11.7 55.35 Q13.3 55.4 15.05 56.2 15.95 56.6 16.85 57.2 L17.8 57.8" fill="#c9dce2" fill-rule="evenodd" stroke="none"/>
      <path d="M11.15 57.8 L5.9 57.8 6.15 57.45 9.35 57.25 Q10.55 57.35 11.15 57.8" fill="#ffffff" fill-rule="evenodd" stroke="none"/>
      <path d="M57.95 2.5 L59.9 0.0 M60.35 0.0 L56.95 6.45 Q54.5 10.75 51.85 14.6 L50.75 16.2 49.6 17.75 Q44.8 24.15 39.3 29.25 L37.85 30.55 37.15 30.65 36.65 30.5 36.2 30.2 32.25 24.3 27.25 16.05 Q23.15 8.8 20.0 1.4 L19.45 0.0 M51.65 9.8 L57.95 2.5 M46.4 15.0 L48.85 12.65 51.65 9.8 M46.4 15.0 L43.7 17.35 42.15 18.6 40.1 20.15 38.95 20.95 37.75 19.6 34.0 15.25 32.85 13.85 32.15 12.95 Q27.25 6.8 23.1 0.0" fill="none" stroke="#006bff" stroke-linecap="round" stroke-linejoin="round" stroke-width="0.5"/>
      <path d="M58.55 0.0 L57.95 2.5 M56.95 6.45 L53.85 18.85 64.35 12.25 M64.35 23.1 L58.85 30.55 62.15 29.8 64.35 28.75 M49.65 3.35 L50.45 2.35 52.3 0.0 M50.95 35.2 L62.15 29.8 M63.1 57.8 L64.35 55.2" fill="none" stroke="#00a3ff" stroke-linecap="round" stroke-linejoin="round" stroke-width="0.5"/>
      <path d="M48.15 0.0 L48.6 0.95 49.65 3.35 50.4 5.15 51.35 8.35 51.65 9.8 M51.7 16.6 L51.9 16.45 52.45 16.15 51.45 18.35 50.65 21.9 52.8 21.6 56.3 22.25 59.7 22.95 61.7 22.6 58.85 26.25 Q56.05 29.7 52.65 31.75 50.95 32.8 49.05 33.45 L49.75 34.0 50.8 35.05 50.95 35.2 51.55 35.85 52.75 37.55 Q49.4 38.55 44.8 40.7 L44.15 41.05 Q39.25 43.3 35.55 44.5 L39.3 42.5 40.0 42.1 40.7 41.5 41.85 40.6 41.8 40.35 41.25 38.25 41.2 38.05 40.9 37.0 40.85 36.85 42.25 35.0 42.45 34.7 44.2 32.0 44.75 31.05 M50.65 17.15 L51.7 16.6 51.85 14.6 M49.6 17.75 L50.65 17.15 M50.25 20.85 L49.55 22.25 45.2 30.25 45.05 30.5 45.0 30.65 44.95 30.7 44.65 31.15 M51.45 18.35 L50.25 20.85 M40.3 49.45 L44.75 46.45 52.6 41.2 53.85 39.6 54.45 37.45 54.55 37.15 55.9 38.75 55.95 38.8 56.0 38.85 56.1 38.95 56.1 39.0 56.0 39.45 55.45 42.0 54.85 44.05 53.55 47.8 52.1 49.0 M40.5 7.8 L41.35 7.25 41.75 7.0 42.15 8.7 42.6 10.7 43.7 17.35 M25.45 16.45 L20.2 12.65 18.35 11.2 14.35 8.15 11.55 6.0 10.35 5.0 4.2 0.0 M25.45 16.45 L25.5 16.5 25.95 16.85 27.25 16.05 M32.15 12.95 L40.5 7.8 M22.6 43.5 L22.75 43.5 23.75 43.2 23.95 43.15 24.3 43.0 24.4 42.9 24.45 42.9 25.35 42.55 25.6 42.45 27.55 41.4 27.55 41.3 26.55 39.95 26.3 39.65 26.0 39.25 24.95 38.25 22.5 36.25 Q21.8 34.05 21.3 31.2 L20.8 27.3 20.8 27.2 21.0 27.35 21.15 27.45 22.05 28.05 22.1 28.1 23.55 29.1 23.65 29.2 25.35 30.45 29.05 33.45 29.55 33.9 31.55 35.75 31.75 35.9 33.3 37.5 33.75 38.0 33.9 38.2 33.95 38.25 34.4 38.05 35.55 37.5 35.75 37.4 35.9 37.3 36.0 37.3 36.85 36.8 37.15 36.65 M34.15 43.6 L34.65 44.05 34.75 44.15 35.25 44.6 35.55 44.5 M9.15 21.1 L8.45 19.5 5.35 11.85 4.45 9.35 4.2 8.5 3.8 7.2 Q3.05 4.55 2.65 2.25 L2.25 0.05 2.25 0.0 M18.05 39.0 L17.65 38.25 16.75 36.6 5.6 29.1 1.0 26.15 0.0 25.55 M18.8 40.45 L18.05 39.0 M13.75 44.45 Q11.75 42.0 8.45 41.8 L7.85 41.75 M15.5 47.75 L14.6 45.7 13.75 44.45 M22.55 43.5 L22.2 43.55 20.45 43.4 19.85 42.35 18.8 40.45 M15.8 48.65 L16.35 51.95 19.8 55.05 20.05 55.3 21.3 56.4 23.05 57.8 M22.6 43.5 L22.55 43.5 M16.75 36.6 L11.35 25.85 9.15 21.1 M28.6 44.85 L28.85 44.85 M32.65 44.9 L32.4 44.9 M32.65 44.9 L34.1 44.9 35.25 44.6 M28.6 44.85 L31.75 47.1 33.35 48.25 33.75 48.55 33.9 48.65 34.0 48.75 34.65 49.25 34.95 49.45 34.75 49.85 34.65 50.25 34.55 50.55 33.95 52.45 34.65 53.2 35.35 54.0 36.95 55.7 37.2 56.0 38.4 57.15 38.4 57.1 40.35 53.75 40.05 52.8 40.0 52.45 39.25 50.2 40.3 49.45 M25.35 42.55 L28.6 44.85" fill="none" stroke="#a63f00" stroke-linecap="round" stroke-linejoin="round" stroke-width="0.5"/>
      <path d="M49.5 47.95 L49.3 47.85 49.0 48.5 48.15 50.25 46.65 53.35 46.5 53.6 46.45 53.75 46.35 54.1 45.05 54.6 43.9 55.05 43.45 55.2 43.8 55.4 45.35 56.35 45.45 56.4 46.0 56.75 46.25 56.9 46.65 57.15 47.1 57.5 47.25 57.6 47.55 57.8 M49.5 47.95 L50.3 48.2 50.45 48.25 50.9 48.5 51.25 48.65 52.1 49.0 54.2 49.95 55.2 50.45 56.1 51.05 56.25 51.2 57.35 51.85 57.7 52.35 Q59.55 54.5 61.5 57.8 M8.05 42.05 L8.7 43.15 9.05 43.7 9.15 43.9 9.55 44.65 11.55 45.75 12.8 46.4 15.5 47.75 17.05 48.5 15.8 48.65 12.0 49.25 9.8 49.6 8.75 49.9 7.55 50.15 7.15 50.25 6.05 50.5 5.9 50.55 4.85 51.05 4.45 51.25 3.75 51.3 0.0 51.7 M8.05 42.05 L7.85 41.75 6.45 39.4 4.9 36.8 Q3.05 33.45 1.85 31.85 L0.0 31.85 M5.9 50.55 L5.05 50.7 2.65 51.25 1.75 49.05 1.25 48.05 0.0 47.3 M52.6 55.9 L55.5 55.3 Q56.9 56.05 58.45 57.15 L59.35 57.8 M49.25 57.8 L49.3 57.65 49.5 57.15 Q50.85 56.4 52.55 55.9 L52.6 55.9 52.65 55.95 52.8 56.1 53.1 56.6 53.95 57.8" fill="none" stroke="#a63f00" stroke-linecap="round" stroke-linejoin="round" stroke-width="0.5"/>
      <path d="M11.55 45.75 Q12.65 45.0 13.75 44.45 M4.85 51.05 L1.45 54.95 0.65 56.1 0.6 56.2 0.0 56.65 M40.3 49.45 L35.0 46.95 32.45 45.8 32.65 44.95 32.65 44.9 M21.3 56.4 L21.15 56.75 20.45 57.8" fill="none" stroke="#003366" stroke-linecap="round" stroke-linejoin="round" stroke-width="0.5"/>
      <path d="M41.5 33.7 L41.5 33.85 39.85 35.7 M37.05 39.1 L36.7 39.65 36.2 40.5 35.95 41.5 34.85 42.95 34.15 43.6 32.4 44.9 Q31.8 45.3 31.1 45.8 L30.95 45.9 30.7 45.9 28.85 44.85 26.4 43.15 25.8 42.65 25.7 42.55 25.6 42.45" fill="none" stroke="#3d6185" stroke-linecap="round" stroke-linejoin="round" stroke-width="0.5"/>
    </g>
    <linearGradient gradientTransform="matrix(0.0047, 0.0, 2.0E-4, 0.0061, 26.05, 32.8)" gradientUnits="userSpaceOnUse" id="gradient0" spreadMethod="pad" x1="-819.2" x2="819.2">
      <stop offset="0.0" stop-color="#830208"/>
      <stop offset="0.0" stop-color="#830208"/>
      <stop offset="0.0" stop-color="#7b070c"/>
      <stop offset="1.0" stop-color="#510003"/>
      <stop offset="1.0" stop-color="#770308"/>
      <stop offset="1.0" stop-color="#770308"/>
      <stop offset="1.0" stop-color="#5d0003"/>
    </linearGradient>
    <radialGradient cx="0" cy="0" fx="-115.2" fy="0" gradientTransform="matrix(0.0031, -0.0031, 0.0045, 0.0045, 25.55, 33.35)" gradientUnits="userSpaceOnUse" id="gradient1" r="819.2" spreadMethod="pad">
      <stop offset="0.0" stop-color="#d9617b"/>
      <stop offset="1.0" stop-color="#770308"/>
      <stop offset="1.0" stop-color="#770308"/>
    </radialGradient>
    <radialGradient cx="0" cy="0" fx="-112.0" fy="0" gradientTransform="matrix(-4.0E-4, -0.002, -0.003, 0.0022, 37.4, 37.45)" gradientUnits="userSpaceOnUse" id="gradient2" r="819.2" spreadMethod="pad">
      <stop offset="0.0" stop-color="#e0697b"/>
      <stop offset="1.0" stop-color="#770308"/>
      <stop offset="1.0" stop-color="#770308"/>
    </radialGradient>
    <linearGradient gradientTransform="matrix(-0.0018, -4.0E-4, -0.0017, 0.0034, 37.7, 36.3)" gradientUnits="userSpaceOnUse" id="gradient3" spreadMethod="pad" x1="-819.2" x2="819.2">
      <stop offset="0.0" stop-color="#830208"/>
      <stop offset="0.0" stop-color="#830208"/>
      <stop offset="0.0" stop-color="#7b070c"/>
      <stop offset="1.0" stop-color="#510003"/>
      <stop offset="1.0" stop-color="#770308"/>
      <stop offset="1.0" stop-color="#770308"/>
      <stop offset="1.0" stop-color="#5d0003"/>
    </linearGradient>
    <g id="shape2" transform="matrix(1.0, 0.0, 0.0, 1.0, 0.0, 0.0)">
      <path d="M50.5 0.0 Q53.95 0.0 53.95 3.3 L53.95 50.15 Q53.95 53.4 50.5 53.4 L3.3 53.4 Q0.0 53.4 0.0 50.15 L0.0 3.3 Q0.0 0.0 3.3 0.0 L50.5 0.0" fill="#000000" fill-opacity="0.003921569" fill-rule="evenodd" stroke="none"/>
    </g>
  </defs>
</svg>
