<?xml version="1.0" encoding="UTF-8" standalone="no"?>
<svg xmlns:ffdec="https://www.free-decompiler.com/flash" xmlns:xlink="http://www.w3.org/1999/xlink" ffdec:objectType="frame" height="56.9px" width="57.75px" xmlns="http://www.w3.org/2000/svg">
  <g transform="matrix(1.0, 0.0, 0.0, 1.0, 2.7, 1.9)">
    <clipPath id="clipPath0" transform="matrix(1.0, 0.0, 0.0, 1.0, 0.0, 0.0)">
      <path d="M50.5 0.0 Q53.95 0.0 53.95 3.3 L53.95 50.15 Q53.95 53.4 50.5 53.4 L3.3 53.4 Q0.0 53.4 0.0 50.15 L0.0 3.3 Q0.0 0.0 3.3 0.0 L50.5 0.0" fill="#000000" fill-rule="evenodd" stroke="none"/>
    </clipPath>
    <g clip-path="url(#clipPath0)">
      <use ffdec:characterId="2" height="56.9" transform="matrix(1.0, 0.0, 0.0, 1.0, -2.7, -1.9)" width="57.75" xlink:href="#shape1"/>
    </g>
    <use ffdec:characterId="3" height="53.4" transform="matrix(1.0, 0.0, 0.0, 1.0, 0.0, 0.0)" width="53.95" xlink:href="#shape2"/>
  </g>
  <defs>
    <g id="shape1" transform="matrix(1.0, 0.0, 0.0, 1.0, 2.7, 1.9)">
      <path d="M48.9 0.4 L48.8 0.2 Q48.35 0.1 48.1 -0.45 L47.65 -1.25 47.55 -1.4 46.7 -1.4 45.2 0.35 45.1 0.4 44.2 1.2 44.55 1.65 44.8 2.0 45.05 2.35 45.25 2.65 46.6 1.65 47.3 1.2 47.4 1.15 48.65 0.5 48.9 0.4 M26.8 3.3 L26.9 2.8 27.0 2.35 27.4 0.75 28.0 -1.4 27.65 -1.4 27.4 -0.9 25.95 1.8 Q25.7 2.35 25.1 2.1 L24.1 1.8 23.05 1.55 22.9 1.5 22.95 2.25 23.25 4.05 23.85 6.7 23.7 6.9 23.0 8.05 22.0 7.2 20.4 6.0 17.9 4.3 16.95 3.65 17.6 4.35 18.55 5.45 21.2 8.85 22.95 11.25 24.0 10.05 25.05 8.6 25.65 7.65 25.2 6.8 Q24.2 4.95 23.55 2.9 L23.5 2.8 23.7 2.85 23.9 2.85 26.2 3.15 26.25 3.2 26.5 3.2 26.8 3.3 M21.65 54.5 L32.5 54.5 32.2 54.4 31.45 54.15 30.75 53.95 29.65 53.65 28.9 53.5 28.35 53.4 25.9 52.95 23.85 52.8 23.5 52.8 22.8 52.8 21.35 52.05 21.15 51.95 21.5 53.3 21.55 53.55 21.65 54.5 M43.05 54.45 L42.9 54.5 45.2 54.5 44.85 53.85 43.45 54.35 43.3 54.4 43.05 54.45 M5.55 54.0 L6.3 53.95 6.85 53.95 8.0 53.9 9.6 53.95 9.85 53.95 10.05 53.95 10.15 53.15 10.4 51.1 8.8 51.95 7.0 53.1 5.8 53.85 5.55 54.0" fill="#6105ae" fill-rule="evenodd" stroke="none"/>
      <path d="M53.1 -1.4 L50.75 -0.45 48.9 0.4 48.65 0.5 47.4 1.15 47.3 1.2 Q46.6 2.35 46.15 3.55 L46.0 4.5 46.05 4.45 46.15 4.35 46.4 4.2 Q47.65 3.45 49.05 3.0 L49.15 2.95 49.0 3.85 48.05 8.2 47.0 11.8 46.7 12.7 47.6 14.6 Q48.05 15.6 49.0 16.15 L50.35 16.95 50.7 17.15 Q51.6 17.65 52.6 17.75 L53.45 17.8 54.15 17.45 54.55 17.2 54.55 -1.4 53.1 -1.4 M10.4 -1.4 L-2.2 -1.4 -2.2 2.65 -1.75 2.9 -0.8 3.5 1.85 5.5 2.8 6.5 3.45 7.25 4.3 8.15 6.05 9.95 7.1 11.15 8.0 12.2 9.75 14.7 10.65 16.2 11.6 17.95 12.25 17.65 14.75 15.9 15.45 15.25 15.45 15.2 Q17.1 13.6 17.3 11.3 L17.35 10.25 17.35 9.95 17.15 8.35 16.85 7.0 16.3 5.6 15.15 3.2 14.4 1.9 13.25 0.35 12.35 -0.2 10.4 -1.4" fill="#fbfff6" fill-rule="evenodd" stroke="none"/>
      <path d="M42.2 -1.4 L42.25 -1.35 43.9 0.75 44.2 1.2 45.1 0.4 45.2 0.35 46.7 -1.4 42.2 -1.4" fill="#9e72ff" fill-rule="evenodd" stroke="none"/>
      <path d="M44.2 1.2 L43.9 0.75 42.25 -1.35 42.2 -1.4 38.9 -1.4 39.45 -0.6 39.75 -0.15 40.45 1.5 40.9 1.45 41.75 1.5 41.85 1.5 42.3 1.7 42.6 1.9 42.75 2.05 43.0 2.45 43.05 2.6 43.2 2.85 43.25 3.0 Q43.55 3.65 43.35 4.35 L43.25 4.7 42.8 5.5 42.75 5.5 43.15 6.25 43.3 6.5 45.85 4.55 45.6 3.3 45.25 2.65 45.05 2.35 44.8 2.0 44.55 1.65 44.2 1.2 M29.75 -1.4 L28.0 -1.4 27.4 0.75 27.0 2.35 26.9 2.8 26.8 3.3 28.9 3.85 29.5 4.05 30.95 4.55 32.15 5.0 32.35 5.05 32.6 5.2 33.0 5.5 33.0 5.4 32.9 4.65 32.9 4.4 32.9 4.1 32.85 3.55 32.9 3.05 Q33.0 2.25 33.4 1.6 34.05 0.5 35.3 0.6 L35.4 0.6 36.15 0.7 37.35 1.2 37.7 1.4 38.85 2.35 39.35 1.9 39.2 1.75 Q38.7 1.3 38.1 0.95 36.9 0.3 35.6 0.1 L35.15 0.05 34.95 0.05 Q33.75 0.15 32.9 1.05 32.35 1.65 32.15 2.45 31.9 3.25 32.0 4.1 L31.4 3.85 29.35 2.95 28.95 2.85 29.1 1.9 29.55 -0.5 29.75 -1.4" fill="#d90a40" fill-rule="evenodd" stroke="none"/>
      <path d="M42.75 5.5 L42.8 5.5 43.25 4.7 43.35 4.35 Q43.55 3.65 43.25 3.0 L43.2 2.85 43.05 2.6 43.0 2.45 42.75 2.05 42.6 1.9 42.3 1.7 41.85 1.5 41.75 1.5 40.9 1.45 40.45 1.5 40.1 1.6 39.65 1.75 39.5 1.8 39.35 1.9 38.85 2.35 38.8 2.35 38.5 3.0 38.55 3.6 38.75 4.3 39.1 4.9 39.15 4.95 39.45 5.2 40.35 5.9 40.6 6.05 42.5 5.75 42.75 5.55 42.75 5.5 M36.75 -1.4 L36.85 -1.35 Q37.4 -0.65 38.3 -0.55 L38.45 -0.6 38.55 -0.65 38.75 -0.8 38.75 -1.4 36.75 -1.4" fill="#f7dfec" fill-rule="evenodd" stroke="none"/>
      <path d="M40.45 1.5 L39.75 -0.15 39.45 -0.6 38.9 -1.4 38.75 -1.4 38.75 -0.8 38.55 -0.65 38.45 -0.6 38.3 -0.55 Q37.4 -0.65 36.85 -1.35 L36.75 -1.4 29.75 -1.4 29.55 -0.5 29.1 1.9 28.95 2.85 29.35 2.95 31.4 3.85 32.0 4.1 Q31.9 3.25 32.15 2.45 32.35 1.65 32.9 1.05 33.75 0.15 34.95 0.05 L35.15 0.05 35.6 0.1 Q36.9 0.3 38.1 0.95 38.7 1.3 39.2 1.75 L39.35 1.9 39.5 1.8 39.65 1.75 40.1 1.6 40.45 1.5" fill="#f75763" fill-rule="evenodd" stroke="none"/>
      <path d="M27.65 -1.4 L10.4 -1.4 12.35 -0.2 13.25 0.35 14.0 0.95 15.6 2.2 16.85 3.5 16.95 3.65 17.9 4.3 20.4 6.0 22.0 7.2 23.0 8.05 23.7 6.9 23.85 6.7 23.25 4.05 22.95 2.25 22.9 1.5 23.05 1.55 24.1 1.8 25.1 2.1 Q25.7 2.35 25.95 1.8 L27.4 -0.9 27.65 -1.4 M4.8 54.5 L10.0 54.5 10.05 53.95 9.85 53.95 9.6 53.95 8.0 53.9 6.85 53.95 6.3 53.95 5.55 54.0 4.8 54.5" fill="#9a08ff" fill-rule="evenodd" stroke="none"/>
      <path d="M45.25 2.65 L45.6 3.3 45.85 4.55 46.0 4.5 46.15 3.55 Q46.6 2.35 47.3 1.2 L46.6 1.65 45.25 2.65 M-2.2 2.65 L-2.2 4.3 -1.95 4.5 -0.8 5.4 0.1 6.15 2.8 8.75 3.45 9.45 4.3 10.4 5.35 11.7 6.35 13.15 7.7 15.15 8.65 16.85 9.5 18.4 10.2 19.85 10.3 19.8 11.35 19.35 13.1 18.5 14.4 17.8 15.7 17.05 16.95 16.35 19.0 15.05 19.75 14.6 20.85 13.5 22.55 11.75 22.95 11.25 21.2 8.85 18.55 5.45 17.6 4.35 16.95 3.65 16.85 3.5 15.6 2.2 14.0 0.95 13.25 0.35 14.4 1.9 15.15 3.2 16.3 5.6 16.85 7.0 17.15 8.35 17.35 9.95 17.35 10.25 17.3 11.3 Q17.1 13.6 15.45 15.2 L15.45 15.25 14.75 15.9 12.25 17.65 11.6 17.95 10.65 16.2 9.75 14.7 8.0 12.2 7.1 11.15 6.05 9.95 4.3 8.15 3.45 7.25 2.8 6.5 1.85 5.5 -0.8 3.5 -1.75 2.9 -2.2 2.65 M53.5 23.05 L53.75 21.1 54.15 20.65 54.55 20.15 54.55 17.2 54.15 17.45 53.45 17.8 52.6 17.75 Q51.6 17.65 50.7 17.15 L50.35 16.95 49.0 16.15 Q48.05 15.6 47.6 14.6 L46.7 12.7 46.55 13.15 46.6 13.25 46.8 13.55 47.15 14.15 48.35 16.35 49.15 17.6 50.05 18.9 50.55 19.6 51.05 20.2 52.05 21.4 52.85 22.3 53.05 22.5 53.5 23.05 M44.95 16.45 L45.5 17.0 45.15 16.1 45.05 16.25 44.95 16.45" fill="#bcbff6" fill-rule="evenodd" stroke="none"/>
      <path d="M-2.2 4.3 L-2.2 5.9 -0.9 7.65 -2.0 6.95 -2.2 6.85 -2.2 21.25 -2.15 21.35 -2.15 21.5 -2.2 21.65 -2.2 23.05 -1.0 22.85 -0.8 22.85 1.0 22.5 3.35 22.05 3.45 22.05 5.9 21.4 5.95 21.4 6.05 21.4 7.0 21.1 7.3 21.0 8.95 20.35 10.2 19.85 9.5 18.4 8.65 16.85 7.7 15.15 6.35 13.15 5.35 11.7 4.3 10.4 3.45 9.45 2.8 8.75 0.1 6.15 -0.8 5.4 -1.95 4.5 -2.2 4.3 M5.9 21.4 L6.05 21.4 5.9 21.4" fill="#e36070" fill-rule="evenodd" stroke="none"/>
      <path d="M-2.2 5.9 L-2.2 6.85 -2.0 6.95 -0.9 7.65 -2.2 5.9 M-2.2 21.25 L-2.2 21.65 -2.15 21.5 -2.15 21.35 -2.2 21.25" fill="#ff96bc" fill-rule="evenodd" stroke="none"/>
      <path d="M-2.2 23.05 L-2.2 23.4 -1.5 23.25 -0.8 23.2 2.1 22.85 3.45 22.75 4.0 22.7 5.95 22.5 7.15 22.4 9.9 22.15 12.15 21.95 12.75 21.7 13.0 21.55 14.25 21.0 15.5 20.4 17.75 19.15 19.7 17.8 21.2 16.65 21.45 16.45 22.25 15.6 23.2 14.4 23.35 14.2 24.15 13.1 24.75 12.25 25.45 11.3 25.5 11.2 26.5 9.75 26.7 9.5 25.65 7.65 25.05 8.6 24.0 10.05 22.95 11.25 22.55 11.75 20.85 13.5 19.75 14.6 19.0 15.05 16.95 16.35 15.7 17.05 14.4 17.8 13.1 18.5 11.35 19.35 10.3 19.8 10.2 19.85 8.95 20.35 7.3 21.0 7.0 21.1 6.05 21.4 5.95 21.4 5.9 21.4 3.45 22.05 3.35 22.05 1.0 22.5 -0.8 22.85 -1.0 22.85 -2.2 23.05 M51.45 35.15 L52.85 35.35 54.55 35.6 54.55 30.2 54.15 29.6 53.5 28.8 53.25 28.55 53.15 28.45 52.45 27.55 52.4 27.5 52.3 27.45 51.3 26.25 51.15 26.0 51.05 25.95 49.95 24.6 49.6 24.2 49.5 24.0 49.45 23.9 49.15 23.25 48.75 22.4 48.0 20.75 47.8 20.3 47.7 20.1 47.25 19.05 47.0 18.55 46.5 17.35 45.9 15.85 45.6 15.25 45.15 16.1 45.5 17.0 45.8 17.65 46.3 19.0 46.4 19.15 47.4 21.5 47.45 21.75 47.95 22.75 48.4 23.55 49.0 24.6 49.2 24.95 49.55 25.5 50.55 26.9 50.95 27.45 51.2 27.8 51.9 28.8 Q51.6 29.75 51.6 30.8 51.45 32.75 51.45 34.65 L51.45 35.15" fill="#e6682e" fill-rule="evenodd" stroke="none"/>
      <path d="M-2.2 25.7 L-2.2 38.45 -2.15 38.4 -1.05 37.65 -0.8 37.5 0.25 36.65 0.5 36.6 2.0 36.1 2.45 35.95 2.65 35.55 2.85 34.9 2.95 34.35 3.45 32.2 3.55 31.85 3.65 31.5 5.0 27.65 5.45 26.55 5.75 25.5 6.45 25.15 9.0 23.95 12.6 22.75 13.6 22.45 15.1 22.0 17.45 21.4 17.4 23.65 17.3 25.3 17.3 25.45 17.2 26.7 17.15 27.35 17.15 28.2 17.75 27.8 18.2 27.45 18.6 27.15 19.85 26.2 19.95 26.15 20.45 25.8 21.2 24.75 21.7 24.1 22.5 23.05 23.15 22.2 23.75 21.5 24.6 20.2 24.95 16.8 25.1 15.0 25.15 14.1 25.15 13.9 25.45 12.1 25.5 11.2 25.45 11.3 24.75 12.25 24.15 13.1 23.35 14.2 23.2 14.4 22.25 15.6 21.45 16.45 21.2 16.65 19.7 17.8 17.75 19.15 15.5 20.4 14.25 21.0 13.0 21.55 12.75 21.7 12.15 21.95 11.7 22.1 10.4 22.65 9.1 23.1 7.8 23.6 5.65 24.3 5.6 24.3 3.75 24.65 3.7 24.65 3.45 24.7 2.45 24.85 0.95 25.1 -0.65 25.4 -0.8 25.45 -2.2 25.7 M50.55 19.6 L50.4 19.95 50.4 20.3 50.65 22.5 50.7 22.6 50.9 23.8 51.0 24.3 52.6 26.4 53.05 27.05 53.15 27.2 53.15 27.05 53.15 26.95 53.05 24.7 53.05 24.6 52.9 23.15 52.85 22.3 52.05 21.4 51.05 20.2 50.55 19.6" fill="#fff99d" fill-rule="evenodd" stroke="none"/>
      <path d="M-2.2 23.4 L-2.2 25.7 -0.8 25.45 -0.65 25.4 0.95 25.1 2.45 24.85 3.45 24.7 3.7 24.65 3.75 24.65 5.6 24.3 5.65 24.3 7.8 23.6 9.1 23.1 10.4 22.65 11.7 22.1 12.15 21.95 9.9 22.15 7.15 22.4 5.95 22.5 4.0 22.7 3.45 22.75 2.1 22.85 -0.8 23.2 -1.5 23.25 -2.2 23.4 M54.55 30.2 L54.55 24.1 53.95 23.5 53.5 23.05 53.05 22.5 52.85 22.3 52.9 23.15 53.05 24.6 53.05 24.7 53.15 26.95 53.15 27.05 53.15 27.2 53.05 27.05 52.6 26.4 51.0 24.3 50.9 23.8 50.7 22.6 50.65 22.5 50.4 20.3 50.4 19.95 50.55 19.6 50.05 18.9 49.15 17.6 48.35 16.35 47.15 14.15 46.8 13.55 46.6 13.25 46.55 13.15 46.15 14.3 46.1 14.4 45.6 15.25 45.9 15.85 46.5 17.35 47.0 18.55 47.25 19.05 47.7 20.1 47.8 20.3 48.0 20.75 48.75 22.4 49.15 23.25 49.45 23.9 49.5 24.0 49.6 24.2 49.95 24.6 51.05 25.95 51.15 26.0 51.3 26.25 52.3 27.45 52.4 27.5 52.45 27.55 53.15 28.45 53.25 28.55 53.5 28.8 54.15 29.6 54.55 30.2 M25.5 11.2 L25.45 12.1 25.15 13.9 25.15 14.1 25.1 15.0 24.95 16.8 24.6 20.2 23.75 21.5 23.15 22.2 22.5 23.05 21.7 24.1 21.2 24.75 20.45 25.8 21.4 25.1 22.65 24.1 23.3 23.6 23.55 23.35 24.35 22.5 24.65 22.25 26.15 20.6 27.55 18.9 28.75 17.35 29.7 15.9 30.95 13.95 29.45 12.75 28.35 11.8 27.7 11.2 27.4 10.7 26.7 9.5 26.5 9.75 25.5 11.2 M17.15 28.2 L17.15 27.35 17.2 26.7 17.3 25.45 17.3 25.3 17.4 23.65 17.45 21.4 15.1 22.0 13.6 22.45 12.6 22.75 9.0 23.95 6.45 25.15 5.75 25.5 5.45 26.55 5.0 27.65 3.65 31.5 3.55 31.85 3.45 32.2 2.95 34.35 2.85 34.9 2.65 35.55 2.45 35.95 3.45 35.6 3.95 35.45 6.1 34.65 7.3 34.25 7.8 33.95 9.4 33.15 11.05 32.25 12.15 31.55 12.8 31.15 14.7 29.95 15.5 29.4 16.45 28.7 16.5 28.7 17.15 28.2" fill="#ffb355" fill-rule="evenodd" stroke="none"/>
      <path d="M-2.2 38.45 L-2.2 40.8 -1.05 40.3 -1.8 41.15 -2.2 41.7 -2.2 54.5 4.8 54.5 5.55 54.0 5.8 53.85 7.0 53.1 8.8 51.95 10.4 51.1 10.15 53.15 10.05 53.95 10.0 54.5 12.25 54.5 12.3 53.85 12.35 53.55 12.4 52.7 12.45 52.3 12.5 51.45 12.55 50.2 12.6 49.3 12.6 48.45 12.55 46.85 12.45 45.3 12.3 43.75 12.25 42.4 12.05 40.75 12.15 39.25 12.15 38.6 12.25 37.1 12.3 36.6 13.2 38.5 13.75 39.7 14.3 41.1 14.55 41.9 14.85 42.65 15.35 44.25 15.8 45.8 16.1 47.0 16.15 46.6 16.4 44.95 16.6 44.0 16.6 43.85 16.65 43.65 16.8 43.1 17.2 44.15 17.3 44.35 17.3 44.5 17.5 45.05 17.95 46.55 18.55 48.65 18.85 49.8 18.85 50.2 18.9 50.55 18.9 50.65 18.95 50.9 19.05 53.4 19.0 54.5 21.65 54.5 21.55 53.55 21.5 53.3 21.15 51.95 20.7 50.25 20.65 50.2 20.55 49.75 20.15 48.45 19.75 47.35 19.1 45.5 18.8 44.6 17.75 42.15 15.85 38.15 13.85 34.2 13.6 33.75 14.0 32.75 Q14.35 31.7 14.85 30.75 L15.5 29.4 14.7 29.95 12.8 31.15 12.15 31.55 11.05 32.25 9.4 33.15 7.8 33.95 7.3 34.25 6.1 34.65 3.95 35.45 3.45 35.6 2.45 35.95 2.0 36.1 0.5 36.6 0.25 36.65 -0.8 37.5 -1.05 37.65 -2.15 38.4 -2.2 38.45 M45.2 54.5 L50.3 54.5 50.35 54.2 50.7 53.15 50.7 53.1 50.85 52.75 51.45 51.05 51.45 52.1 51.45 52.4 51.55 54.5 54.55 54.5 54.55 53.1 54.35 52.65 53.65 51.1 53.45 50.8 53.15 50.2 53.15 50.15 52.95 49.8 52.4 48.8 51.95 46.8 51.5 45.05 51.4 44.45 52.95 46.4 53.8 47.45 53.95 47.7 53.75 47.0 53.3 45.4 52.45 42.65 52.35 41.55 52.25 38.75 52.15 38.55 51.85 37.95 Q51.5 36.55 51.45 35.15 L51.45 34.65 Q51.45 32.75 51.6 30.8 51.6 29.75 51.9 28.8 L51.2 27.8 50.95 27.45 50.6 29.5 Q50.45 30.25 50.45 31.1 L50.45 31.65 50.3 34.15 50.3 34.65 50.35 35.6 50.55 37.05 50.6 37.5 50.65 37.8 50.75 38.35 50.7 38.65 50.45 39.85 49.55 41.8 49.0 42.65 48.25 43.35 47.4 43.95 45.7 45.15 44.55 45.85 Q44.25 46.0 43.9 46.2 L43.55 46.35 42.85 46.7 43.7 47.35 45.4 48.65 46.65 49.8 46.7 50.2 46.75 50.45 46.3 51.35 45.65 52.55 44.85 53.85 45.2 54.5 M8.6 36.85 L9.25 38.65 9.65 40.55 10.05 42.95 10.2 44.25 10.35 45.65 10.4 47.15 10.45 48.25 10.45 50.05 10.45 50.2 10.45 50.55 10.4 51.1 10.45 50.55 10.45 50.2 10.45 50.05 10.45 48.25 10.4 47.15 10.35 45.65 10.2 44.25 10.05 42.95 9.65 40.55 9.25 38.65 8.6 36.85 M3.05 44.8 L3.45 44.35 5.5 42.0 7.6 40.0 7.2 41.65 6.4 44.85 4.05 47.05 3.45 47.55 2.65 48.2 0.45 50.2 -0.5 51.15 -0.8 51.45 -1.9 52.65 -1.1 51.25 -0.8 50.75 -0.5 50.2 0.25 48.95 0.55 48.4 1.1 47.45 2.4 45.55 3.05 44.8 M30.95 13.95 L29.7 15.9 28.75 17.35 27.55 18.9 26.15 20.6 24.65 22.25 24.35 22.5 25.8 22.9 Q29.3 23.85 30.8 24.9 32.4 25.95 32.65 26.6 L33.05 27.8 33.15 28.55 33.15 28.7 33.15 28.75 33.05 29.0 32.8 29.3 32.5 29.5 32.1 29.7 31.4 29.9 31.3 29.9 30.75 29.9 30.65 29.9 30.75 29.95 31.0 30.05 31.7 30.35 32.05 30.45 32.2 30.5 32.7 30.6 33.3 30.75 33.9 30.85 35.65 31.0 37.55 30.75 39.6 29.75 40.6 28.9 41.2 28.05 41.5 27.7 41.45 27.8 41.45 27.95 41.45 28.45 41.25 29.4 41.6 29.25 42.1 28.9 42.85 28.35 44.3 27.1 45.7 25.4 46.1 24.8 46.85 23.55 47.3 22.35 47.45 21.85 47.45 21.75 47.4 21.5 46.4 19.15 46.3 19.0 45.8 17.65 45.5 17.0 44.95 16.45 42.8 19.8 41.15 21.85 40.15 20.85 38.95 19.7 36.95 18.3 33.95 16.2 31.25 14.2 30.95 13.95 M29.85 19.2 L29.6 19.1 31.85 18.95 33.05 18.85 34.3 18.8 34.5 18.95 35.75 19.65 37.75 21.05 38.95 22.0 40.6 23.35 40.8 23.2 42.35 22.15 44.05 20.5 43.9 21.95 43.8 22.5 43.3 24.1 43.3 24.15 42.15 26.35 41.1 27.45 40.8 27.7 40.45 28.0 40.85 26.35 40.75 25.4 39.65 25.65 39.5 26.0 38.75 26.95 37.8 28.0 35.6 29.45 33.45 29.8 34.15 29.4 Q35.3 28.65 35.5 27.25 L35.55 25.75 35.5 25.55 35.1 24.4 34.95 24.15 34.9 24.0 Q34.3 22.8 33.25 22.0 L32.5 21.25 31.9 20.75 29.85 19.2 M33.1 29.8 L33.2 29.8 33.3 29.8 33.1 29.8" fill="#aa2a5d" fill-rule="evenodd" stroke="none"/>
      <path d="M-2.2 40.8 L-2.2 41.7 -1.8 41.15 -1.05 40.3 -2.2 40.8 M12.25 54.5 L15.15 54.5 15.15 53.0 15.15 52.3 15.15 51.35 15.1 50.65 15.1 50.6 15.05 50.35 15.05 50.2 15.1 49.95 15.1 49.4 Q15.05 49.0 15.35 48.9 L15.6 49.3 15.75 49.65 15.9 50.1 15.95 50.2 15.95 50.25 15.85 51.3 15.85 51.8 15.85 52.0 15.7 53.75 15.6 54.5 19.0 54.5 19.05 53.4 18.95 50.9 18.9 50.65 18.9 50.55 18.85 50.2 18.85 49.8 18.55 48.65 17.95 46.55 17.5 45.05 17.3 44.5 17.3 44.35 17.2 44.15 16.8 43.1 16.65 43.65 16.6 43.85 16.6 44.0 16.4 44.95 16.15 46.6 16.1 47.0 15.8 45.8 15.35 44.25 14.85 42.65 14.55 41.9 14.3 41.1 13.75 39.7 13.2 38.5 12.3 36.6 12.25 37.1 12.15 38.6 12.15 39.25 12.05 40.75 12.25 42.4 12.3 43.75 12.45 45.3 12.55 46.85 12.6 48.45 12.6 49.3 12.55 50.2 12.5 51.45 12.45 52.3 12.4 52.7 12.35 53.55 12.3 53.85 12.25 54.5 M50.3 54.5 L51.55 54.5 51.45 52.4 51.45 52.1 51.45 51.05 50.85 52.75 50.7 53.1 50.7 53.15 50.35 54.2 50.3 54.5 M54.55 53.1 L54.55 50.15 54.3 49.95 54.3 49.9 53.9 49.3 53.9 49.2 54.0 49.2 54.05 49.1 54.25 48.95 54.5 49.1 54.55 49.15 54.55 43.75 54.4 43.45 53.15 40.75 52.25 38.75 52.35 41.55 52.45 42.65 53.3 45.4 53.75 47.0 53.95 47.7 53.8 47.45 52.95 46.4 51.4 44.45 51.5 45.05 51.95 46.8 52.4 48.8 52.95 49.8 53.15 50.15 53.15 50.2 53.45 50.8 53.65 51.1 54.35 52.65 54.55 53.1 M2.4 45.55 L1.1 47.45 0.55 48.4 0.25 48.95 -0.5 50.2 -0.8 50.75 -1.1 51.25 -1.9 52.65 -0.8 51.45 -0.5 51.15 0.45 50.2 2.65 48.2 3.45 47.55 4.05 47.05 6.4 44.85 7.2 41.65 7.6 40.0 5.5 42.0 3.45 44.35 3.05 44.8 2.55 45.4 2.4 45.55 M29.85 19.2 L31.9 20.75 32.5 21.25 33.25 22.0 Q34.3 22.8 34.9 24.0 L34.95 24.15 35.1 24.4 35.5 25.55 35.55 25.75 35.5 27.25 Q35.3 28.65 34.15 29.4 L33.45 29.8 35.6 29.45 37.8 28.0 38.75 26.95 39.5 26.0 39.65 25.65 40.75 25.4 40.85 26.35 40.45 28.0 40.8 27.7 41.1 27.45 42.15 26.35 43.3 24.15 43.3 24.1 43.8 22.5 43.9 21.95 44.05 20.5 42.35 22.15 40.8 23.2 40.6 23.35 38.95 22.0 37.75 21.05 35.75 19.65 34.5 18.95 34.3 18.8 33.05 18.85 31.85 18.95 29.6 19.1 29.85 19.2 M42.05 24.35 L41.95 24.55 41.6 25.2 41.5 25.35 41.4 25.45 41.55 24.35 41.55 23.9 42.2 23.4 42.35 23.25 42.05 24.35 M38.5 24.0 L38.55 24.1 38.5 24.35 38.45 24.65 Q38.15 25.8 37.45 26.8 L36.95 27.45 36.8 27.6 37.15 26.7 37.2 24.35 37.2 24.3 37.1 22.95 37.15 22.85 37.45 22.05 Q38.2 22.9 38.5 24.0" fill="#fa5468" fill-rule="evenodd" stroke="none"/>
      <path d="M45.85 4.55 L43.3 6.5 43.25 6.55 42.95 7.2 Q42.25 8.8 41.8 10.5 L41.2 13.5 41.1 14.35 41.05 15.4 40.8 15.0 39.4 12.55 39.35 12.5 37.2 9.55 34.85 7.1 34.5 6.8 33.0 5.5 32.6 5.2 32.35 5.05 32.15 5.0 30.95 4.55 29.5 4.05 28.9 3.85 26.8 3.3 26.5 3.2 26.25 3.2 28.65 4.0 29.15 4.15 31.55 5.05 31.75 5.1 32.05 5.3 33.3 6.25 34.15 6.85 35.95 8.7 36.45 9.25 37.7 10.8 38.1 11.35 38.8 12.4 39.6 13.55 40.3 14.6 41.3 16.4 41.6 14.65 41.75 13.9 41.85 13.2 42.0 12.5 42.35 10.85 42.55 10.15 42.9 8.9 43.05 8.35 43.3 7.55 44.0 6.45 45.15 5.2 45.75 4.75 45.95 4.6 46.4 4.2 46.15 4.35 46.05 4.45 46.0 4.5 45.85 4.55 M23.9 2.85 L23.7 2.85 23.5 2.8 23.55 2.9 Q24.2 4.95 25.2 6.8 L25.65 7.65 26.7 9.5 27.4 10.7 27.7 11.2 28.35 11.8 29.45 12.75 30.95 13.95 31.25 14.2 33.95 16.2 36.95 18.3 38.95 19.7 40.15 20.85 41.15 21.85 42.8 19.8 44.95 16.45 45.05 16.25 45.15 16.1 45.6 15.25 46.1 14.4 46.15 14.3 46.55 13.15 46.7 12.7 47.0 11.8 48.05 8.2 49.0 3.85 49.15 2.95 49.05 3.0 48.2 6.2 47.65 8.1 46.4 11.65 46.35 11.7 45.7 13.3 45.25 14.3 44.35 15.95 43.75 16.9 42.0 19.4 41.75 19.75 41.3 20.1 41.1 20.25 39.45 18.5 38.2 17.45 36.6 16.25 35.9 15.6 34.55 14.4 33.05 13.0 32.0 12.0 31.3 11.25 30.35 10.25 29.35 9.2 28.45 8.15 26.75 6.1 25.3 4.45 23.9 2.85" fill="#ffb657" fill-rule="evenodd" stroke="none"/>
      <path d="M26.25 3.2 L26.2 3.15 23.9 2.85 25.3 4.45 26.75 6.1 28.45 8.15 29.35 9.2 30.35 10.25 31.3 11.25 32.0 12.0 33.05 13.0 34.55 14.4 35.9 15.6 36.6 16.25 38.2 17.45 39.45 18.5 41.1 20.25 41.3 20.1 41.75 19.75 42.0 19.4 43.75 16.9 44.35 15.95 45.25 14.3 45.7 13.3 46.35 11.7 46.4 11.65 47.65 8.1 48.2 6.2 49.05 3.0 Q47.65 3.45 46.4 4.2 L45.95 4.6 45.75 4.75 45.15 5.2 44.0 6.45 43.3 7.55 43.05 8.35 42.9 8.9 42.55 10.15 42.35 10.85 42.0 12.5 41.85 13.2 41.75 13.9 41.6 14.65 41.3 16.4 40.3 14.6 39.6 13.55 38.8 12.4 38.1 11.35 37.7 10.8 36.45 9.25 35.95 8.7 34.15 6.85 33.3 6.25 32.05 5.3 31.75 5.1 31.55 5.05 29.15 4.15 28.65 4.0 26.25 3.2" fill="#ffffa4" fill-rule="evenodd" stroke="none"/>
      <path d="M43.3 6.5 L43.15 6.25 42.75 5.5 42.75 5.55 42.5 5.75 40.6 6.05 40.35 5.9 39.45 5.2 39.15 4.95 39.1 4.9 38.75 4.3 38.55 3.6 38.5 3.0 38.8 2.35 38.85 2.35 37.7 1.4 37.35 1.2 36.15 0.7 35.4 0.6 35.3 0.6 Q34.05 0.5 33.4 1.6 33.0 2.25 32.9 3.05 L32.85 3.55 32.9 4.1 32.9 4.4 32.9 4.65 33.0 5.4 33.0 5.5 34.5 6.8 34.85 7.1 37.2 9.55 39.35 12.5 39.4 12.55 40.8 15.0 41.05 15.4 41.1 14.35 41.2 13.5 41.8 10.5 Q42.25 8.8 42.95 7.2 L43.25 6.55 43.3 6.5" fill="#8a0350" fill-rule="evenodd" stroke="none"/>
      <path d="M20.45 25.8 L19.95 26.15 19.9 26.4 19.7 27.65 19.6 28.8 19.55 29.5 19.8 29.3 20.1 29.1 20.3 29.0 20.45 28.9 20.75 28.65 21.5 28.3 Q22.65 27.8 23.95 27.6 L23.85 28.3 23.85 28.75 23.85 29.3 23.95 30.25 24.0 30.65 25.9 30.3 27.25 30.45 27.3 30.5 27.6 30.55 27.7 30.1 27.75 29.65 27.85 28.8 27.75 27.8 28.65 28.1 28.7 27.45 29.0 26.6 Q29.35 26.2 30.0 26.3 L30.55 26.55 30.6 26.65 30.8 27.05 31.05 28.25 31.0 28.9 30.9 29.35 31.1 29.5 31.35 29.85 31.4 29.9 32.1 29.7 32.05 28.65 32.0 27.95 31.9 27.15 31.45 26.35 30.95 25.65 30.85 25.5 29.3 24.25 29.15 24.2 Q28.15 23.55 27.05 23.3 L26.35 23.2 25.7 23.15 24.6 23.15 23.55 23.35 23.3 23.6 22.65 24.1 21.4 25.1 20.45 25.8 M46.1 24.8 L45.7 25.4 44.3 27.1 42.85 28.35 42.1 28.9 42.05 29.25 41.9 29.95 41.9 30.15 42.3 30.05 42.75 29.95 42.95 29.9 44.4 29.75 44.35 29.9 44.3 30.25 44.15 30.9 44.05 31.65 44.05 31.75 44.75 31.7 45.35 31.85 45.8 32.0 45.9 31.35 46.0 30.85 46.05 30.4 46.0 30.15 45.95 29.85 45.9 29.85 45.9 29.05 45.9 28.65 Q46.0 28.25 46.2 28.0 L46.4 27.8 46.5 27.8 46.95 27.7 47.15 27.8 47.2 27.95 Q47.6 28.4 47.6 29.05 L47.6 29.15 47.6 29.35 47.4 30.2 47.35 30.3 47.35 30.4 47.4 30.45 47.45 30.5 47.55 30.55 47.6 30.6 47.65 30.65 47.95 31.0 48.05 31.2 48.05 31.1 48.25 30.25 48.3 29.7 48.3 27.1 48.25 26.35 47.7 25.65 47.05 25.0 46.6 24.9 46.1 24.8 M32.05 30.45 L31.7 30.35 31.8 30.5 31.9 30.75 31.95 30.85 32.0 30.95 32.05 30.75 32.05 30.45" fill="#592405" fill-rule="evenodd" stroke="none"/>
      <path d="M18.6 27.15 L18.2 27.45 17.75 27.8 17.15 28.2 16.5 28.7 16.5 28.8 16.6 29.3 16.75 30.05 17.1 31.85 17.4 33.1 17.45 33.55 17.5 33.7 17.5 33.05 17.55 32.2 17.65 31.15 17.7 30.45 17.85 29.1 18.05 28.35 18.3 27.75 18.6 27.15 M47.3 22.35 L46.85 23.55 46.1 24.8 46.6 24.9 47.05 25.0 47.7 25.65 48.25 26.35 48.85 27.35 48.9 27.65 49.0 30.0 49.2 30.7 49.3 31.35 49.35 31.85 49.3 32.4 50.0 30.45 50.1 29.55 50.15 28.35 50.1 27.8 50.05 27.5 50.0 27.2 49.9 26.65 49.55 25.5 49.2 24.95 49.0 24.6 48.4 23.55 47.95 22.75 47.3 22.35 M32.8 29.3 L33.05 29.0 33.15 28.7 33.15 28.55 33.05 27.8 32.65 26.6 Q32.4 25.95 30.8 24.9 29.3 23.85 25.8 22.9 L24.35 22.5 23.55 23.35 24.6 23.15 25.7 23.15 26.35 23.2 27.05 23.3 Q28.15 23.55 29.15 24.2 L29.3 24.25 30.85 25.5 30.95 25.65 31.45 26.35 31.9 27.15 32.0 27.3 32.0 27.45 32.05 27.45 32.05 27.5 32.1 27.5 32.1 27.55 32.15 27.6 32.2 27.75 32.8 29.3" fill="#391d12" fill-rule="evenodd" stroke="none"/>
      <path d="M15.5 29.4 L14.85 30.75 Q14.35 31.7 14.0 32.75 L13.6 33.75 13.85 34.2 15.85 38.15 17.75 42.15 18.8 44.6 19.1 45.5 20.55 46.2 20.85 46.35 22.35 46.75 24.7 47.45 27.45 48.1 28.95 48.4 29.95 48.55 31.35 48.55 33.6 48.55 36.1 48.4 36.4 48.4 38.7 48.1 39.9 47.85 40.35 47.8 41.55 47.3 42.05 47.1 42.85 46.7 43.55 46.35 43.9 46.2 Q44.25 46.0 44.55 45.85 L45.7 45.15 47.4 43.95 48.25 43.35 49.0 42.65 49.55 41.8 50.45 39.85 50.7 38.65 50.75 38.35 50.65 37.8 50.5 38.6 Q50.2 39.65 49.55 40.5 L48.3 42.2 47.3 43.1 46.15 43.9 44.45 44.8 44.3 44.85 43.35 45.3 43.25 45.35 41.45 45.85 41.35 45.9 41.15 45.95 40.25 46.1 37.9 46.4 37.45 46.45 36.75 46.5 36.05 46.8 35.85 46.85 35.6 46.9 35.35 46.95 34.9 46.9 34.65 46.8 34.0 46.6 30.35 46.4 27.05 45.9 26.6 45.8 26.45 45.75 25.25 45.5 24.35 45.15 23.05 44.55 22.3 44.15 22.0 44.0 20.75 43.1 20.4 43.25 19.4 42.65 20.0 42.5 19.75 42.2 18.6 40.95 18.45 40.75 18.3 40.8 17.25 39.65 17.45 39.6 17.75 39.55 17.05 37.55 17.0 37.25 16.85 36.7 17.2 36.9 18.45 37.5 19.4 37.9 20.65 38.3 22.2 38.7 23.8 38.95 25.4 39.05 26.5 38.9 26.75 38.85 27.45 38.6 26.85 38.8 26.7 38.85 26.5 38.9 25.15 38.9 23.2 38.65 22.75 38.5 21.0 37.95 Q20.4 37.75 19.75 37.35 L19.35 37.1 18.85 36.7 18.6 36.5 17.8 35.65 17.4 35.0 17.1 34.5 16.65 33.4 16.55 33.1 16.5 32.85 16.45 31.4 16.4 30.35 16.45 29.4 16.5 28.8 16.5 28.7 16.45 28.7 15.5 29.4 M47.45 21.75 L47.45 21.85 47.3 22.35 47.95 22.75 47.45 21.75 M40.6 28.9 L39.6 29.75 37.55 30.75 35.65 31.0 33.9 30.85 33.3 30.75 33.05 32.3 32.9 32.85 32.75 33.4 32.65 33.65 32.6 33.8 32.8 32.6 32.4 34.2 32.15 34.6 31.7 35.3 31.65 35.4 32.5 34.1 32.55 33.9 32.55 34.0 32.9 33.2 33.3 32.3 33.5 31.85 33.55 31.75 34.35 31.75 36.2 31.6 37.75 31.25 39.5 30.45 39.55 30.4 39.75 30.95 40.15 32.0 40.6 32.9 40.6 32.25 40.7 30.8 40.7 30.5 40.65 30.8 40.55 31.5 40.45 32.1 40.45 30.95 40.5 30.85 40.6 29.45 40.6 28.9 M49.55 25.5 L49.9 26.65 50.0 27.2 50.05 27.5 50.1 27.8 50.15 28.35 50.1 29.55 50.0 30.45 49.8 31.65 49.45 33.0 49.2 33.85 48.9 34.75 48.9 34.85 48.55 35.5 48.5 35.5 48.3 35.9 47.5 37.05 47.05 37.5 48.2 36.5 49.55 34.35 49.75 33.75 49.8 33.75 50.3 34.65 50.3 34.15 50.45 31.65 50.45 31.1 Q50.45 30.25 50.6 29.5 L50.95 27.45 50.55 26.9 49.55 25.5 M41.9 30.15 L41.9 29.95 41.75 30.1 41.6 30.2 41.45 30.35 41.15 30.45 41.1 30.5 41.1 30.55 41.45 30.35 41.6 30.25 41.8 30.2 41.9 30.15 M48.05 31.2 L48.25 31.5 48.05 31.1 48.05 31.2 M47.3 30.4 L47.35 30.4 47.35 30.45 47.4 30.45 47.35 30.4 47.35 30.3 47.3 30.4 M32.6 45.55 L32.15 45.05 31.65 44.5 31.45 44.3 31.35 44.05 31.0 43.4 30.95 43.3 30.65 42.6 30.5 42.0 30.45 41.7 30.45 41.45 30.45 41.35 30.55 40.95 30.75 40.6 30.95 40.45 31.15 40.45 31.35 40.5 32.15 40.55 32.5 40.6 33.05 40.65 33.55 40.75 34.3 40.8 35.0 40.9 35.35 40.95 35.8 40.9 35.9 40.9 36.7 40.9 37.35 40.85 37.8 40.85 38.2 40.8 38.45 40.8 38.6 40.75 38.75 40.75 38.8 40.7 38.85 40.7 38.9 40.7 39.1 40.8 39.1 40.85 39.1 41.3 39.1 41.6 39.05 41.9 38.95 42.65 38.8 43.4 38.5 44.2 38.25 44.8 38.9 43.7 39.4 42.3 39.65 40.45 39.55 40.2 38.15 40.45 37.3 40.5 36.3 40.5 36.1 40.5 34.15 40.4 32.25 40.25 31.5 40.1 31.4 40.1 30.85 40.0 30.6 40.05 30.2 40.45 30.2 40.5 Q29.95 41.35 30.05 42.25 L30.55 43.35 30.65 43.45 31.1 44.1 31.85 44.85 31.9 44.95 32.3 45.3 32.6 45.55 M38.8 41.25 L38.85 41.15 38.75 41.1 38.4 40.95 37.45 41.15 37.6 41.6 38.05 41.25 38.15 41.25 38.55 41.15 38.6 41.15 38.7 41.4 38.8 41.25 M32.3 40.9 L31.9 40.85 31.55 40.8 Q31.2 40.9 30.95 41.2 L30.85 41.35 31.0 41.6 31.1 41.65 31.1 41.6 31.25 41.4 31.35 41.25 31.6 41.05 31.65 40.95 31.85 40.95 31.95 41.05 32.15 41.3 32.3 40.9 M20.1 29.1 L20.25 29.05 20.3 29.0 20.1 29.1" fill="#c6ccfe" fill-rule="evenodd" stroke="none"/>
      <path d="M15.15 54.5 L15.6 54.5 15.7 53.75 15.85 52.0 15.85 51.8 15.85 51.3 15.95 50.25 15.95 50.2 15.9 50.1 15.75 49.65 15.6 49.3 15.35 48.9 Q15.05 49.0 15.1 49.4 L15.1 49.95 15.05 50.2 15.05 50.35 15.1 50.6 15.1 50.65 15.15 51.35 15.15 52.3 15.15 53.0 15.15 54.5 M54.55 50.15 L54.55 49.15 54.5 49.1 54.25 48.95 54.05 49.1 54.0 49.2 53.9 49.2 53.9 49.3 54.3 49.9 54.3 49.95 54.55 50.15 M42.05 24.35 L42.35 23.25 42.2 23.4 41.55 23.9 41.55 24.35 41.4 25.45 41.5 25.35 41.6 25.2 41.95 24.55 42.05 24.35 M38.5 24.0 Q38.2 22.9 37.45 22.05 L37.15 22.85 37.1 22.95 37.2 24.3 37.2 24.35 37.15 26.7 36.8 27.6 36.95 27.45 37.45 26.8 Q38.15 25.8 38.45 24.65 L38.5 24.35 38.55 24.1 38.5 24.0" fill="#ff9682" fill-rule="evenodd" stroke="none"/>
      <path d="M41.45 27.95 L41.45 27.8 41.5 27.7 41.2 28.05 40.6 28.9 40.6 29.45 40.5 30.85 40.45 30.95 40.45 32.1 40.55 31.5 40.65 30.8 40.7 30.5 40.75 30.15 41.05 29.15 41.1 28.95 41.1 28.9 41.45 27.95 M33.3 30.75 L32.7 30.6 32.85 31.75 32.85 31.85 32.8 32.6 32.6 33.8 32.65 33.65 32.75 33.4 32.9 32.85 33.05 32.3 33.3 30.75 M32.5 29.5 L32.8 29.3 32.2 27.75 32.15 27.6 32.1 27.55 32.1 27.5 32.05 27.5 32.15 27.8 32.3 28.55 32.5 29.5 M33.05 29.0 L33.15 28.75 33.15 28.7 33.05 29.0 M50.0 30.45 L49.3 32.4 49.35 31.85 49.3 31.35 49.2 30.7 49.0 30.0 49.0 30.1 48.9 30.5 48.75 32.2 48.65 32.6 48.6 32.8 48.25 34.2 48.15 34.45 48.1 34.5 48.1 34.55 48.05 34.8 47.9 35.15 47.8 35.35 46.9 36.8 46.4 37.35 45.7 37.85 45.65 37.9 45.45 37.95 45.45 38.0 45.35 38.05 45.2 38.1 44.45 38.25 44.35 38.25 44.15 38.25 43.65 38.3 44.3 38.35 44.6 38.35 45.3 38.3 45.35 38.25 46.45 37.85 47.05 37.5 47.5 37.05 48.3 35.9 48.5 35.5 48.55 35.5 48.9 34.85 48.9 34.75 49.2 33.85 49.45 33.0 49.8 31.65 50.0 30.45 M33.1 29.8 L33.3 29.8 33.2 29.8 33.1 29.8 M32.5 34.1 L32.5 34.25 32.55 34.0 32.55 33.9 32.5 34.1 M18.05 28.35 L17.85 29.1 17.7 30.45 17.65 31.15 17.55 32.2 17.5 33.05 17.5 33.7 17.45 33.55 17.4 33.1 17.1 31.85 16.75 30.05 16.6 29.3 16.5 28.8 16.45 29.4 16.4 30.35 16.45 31.4 16.5 32.85 16.55 33.1 16.65 33.4 17.1 34.5 17.4 35.0 17.8 35.65 18.6 36.5 18.85 36.7 19.35 37.1 19.75 37.35 Q20.4 37.75 21.0 37.95 L22.75 38.5 23.2 38.65 25.15 38.9 26.5 38.9 26.7 38.85 25.2 38.65 23.3 38.15 21.9 37.5 20.8 36.8 20.35 36.45 20.1 36.25 19.35 35.5 18.95 34.9 18.4 33.9 18.4 33.8 17.95 32.35 17.85 31.25 17.85 30.95 17.85 30.9 17.95 29.05 18.0 28.85 18.05 28.35" fill="#6d1e0d" fill-rule="evenodd" stroke="none"/>
      <path d="M19.95 26.15 L19.85 26.2 18.6 27.15 18.3 27.75 18.05 28.35 18.0 28.85 17.95 29.05 17.85 30.9 18.6 30.25 19.3 29.65 19.55 29.5 19.6 28.8 19.7 27.65 19.9 26.4 19.95 26.15 M42.1 28.9 L41.6 29.25 41.25 29.4 41.45 28.45 41.45 27.95 41.1 28.9 41.1 28.95 41.05 29.15 40.75 30.15 40.7 30.5 40.7 30.8 40.9 30.7 41.0 30.6 41.1 30.55 41.1 30.5 41.15 30.45 41.45 30.35 41.6 30.2 41.75 30.1 41.9 29.95 42.05 29.25 42.1 28.9 M32.7 30.6 L32.2 30.5 32.05 30.45 32.05 30.75 32.55 31.4 32.85 31.85 32.85 31.75 32.7 30.6 M32.1 29.7 L32.5 29.5 32.3 28.55 32.15 27.8 32.05 27.5 32.05 27.45 32.0 27.45 32.0 27.3 31.9 27.15 32.0 27.95 32.05 28.65 32.1 29.7 M49.0 30.0 L48.9 27.65 48.85 27.35 48.25 26.35 48.3 27.1 48.3 29.7 48.25 30.25 48.05 31.1 48.25 31.5 48.45 32.1 48.55 32.55 48.6 32.8 48.65 32.6 48.75 32.2 48.9 30.5 49.0 30.1 49.0 30.0" fill="#c7beff" fill-rule="evenodd" stroke="none"/>
      <path d="M41.1 30.55 L41.0 30.6 40.9 30.7 40.7 30.8 40.6 32.25 40.6 32.9 40.9 34.75 41.15 35.8 41.7 37.35 41.85 37.45 Q42.5 38.05 43.45 38.2 L44.05 38.25 44.15 38.25 44.35 38.25 44.45 38.25 45.2 38.1 45.35 38.05 45.45 38.0 45.45 37.95 45.65 37.9 45.7 37.85 46.4 37.35 46.9 36.8 47.8 35.35 47.9 35.15 48.05 34.8 48.1 34.55 48.1 34.5 48.15 34.45 48.25 34.2 48.6 32.8 48.55 32.55 48.45 32.1 48.25 31.5 48.05 31.2 48.05 31.25 47.75 32.45 47.7 32.75 47.6 33.1 46.6 35.15 46.2 35.7 45.3 36.5 44.9 36.75 44.75 36.8 44.45 37.0 44.0 37.1 43.95 37.1 42.9 36.9 Q42.1 36.1 41.85 34.95 L41.85 34.85 41.8 34.75 41.8 34.65 41.75 34.25 41.75 34.2 41.75 33.95 41.7 33.9 41.7 33.85 41.7 33.65 41.8 31.1 41.8 30.65 41.85 30.35 41.9 30.15 41.8 30.2 41.6 30.25 41.45 30.35 41.1 30.55 M27.45 38.6 L27.5 38.6 28.0 38.35 28.55 38.15 29.2 37.8 29.95 37.2 30.85 36.35 31.3 35.9 31.45 35.65 31.55 35.5 31.65 35.4 31.7 35.3 32.15 34.6 32.4 34.2 32.8 32.6 32.85 31.85 32.55 31.4 32.05 30.75 32.0 30.95 32.0 31.15 31.95 31.25 31.85 31.95 31.0 34.4 30.35 35.5 29.4 36.5 Q28.8 37.1 28.0 37.35 L27.05 37.7 26.8 37.7 25.6 37.7 24.35 37.55 Q23.0 37.4 22.05 36.5 L21.75 36.25 21.5 36.05 21.3 35.8 20.9 35.2 20.4 34.2 20.4 34.15 20.3 33.85 20.15 33.35 19.9 32.2 19.8 31.65 19.65 30.85 19.6 30.25 19.55 29.5 19.3 29.65 18.6 30.25 17.85 30.9 17.85 30.95 17.85 31.25 17.95 32.35 18.4 33.8 18.4 33.9 18.95 34.9 19.35 35.5 20.1 36.25 20.35 36.45 20.8 36.8 21.9 37.5 23.3 38.15 25.2 38.65 26.7 38.85 26.85 38.8 27.45 38.6" fill="#ffffff" fill-rule="evenodd" stroke="none"/>
      <path d="M31.7 30.35 L31.0 30.05 30.75 29.95 30.0 30.7 29.75 30.75 Q29.45 30.75 29.25 30.55 L29.1 30.35 28.95 30.0 28.85 29.6 28.75 29.05 28.65 28.1 27.75 27.8 27.85 28.8 27.75 29.65 27.7 30.1 27.6 30.55 28.05 30.65 28.25 30.75 28.75 31.0 29.5 31.45 29.8 31.7 30.65 32.65 30.75 32.8 Q30.45 33.9 29.75 34.85 L29.45 35.25 29.2 35.55 28.9 35.8 Q27.9 36.7 26.6 36.9 L26.35 36.95 25.8 37.05 25.0 37.05 23.75 36.7 23.65 36.65 23.55 36.6 23.05 36.15 22.9 36.05 22.55 35.7 22.2 35.45 22.05 35.3 22.0 35.25 21.8 35.0 21.55 34.5 21.1 33.3 21.05 33.15 20.95 32.7 21.1 32.55 21.2 32.5 22.15 31.7 22.45 31.5 Q22.9 31.15 23.4 30.9 L23.75 30.75 24.0 30.65 23.95 30.25 23.85 29.3 23.85 28.75 23.85 28.3 23.95 27.6 Q22.65 27.8 21.5 28.3 L20.75 28.65 20.45 28.9 20.3 29.0 20.25 29.05 20.1 29.1 19.8 29.3 19.55 29.5 19.6 30.25 19.65 30.85 19.8 31.65 19.9 32.2 20.15 33.35 20.3 33.85 20.4 34.15 20.4 34.2 20.9 35.2 21.3 35.8 21.5 36.05 21.75 36.25 22.05 36.5 Q23.0 37.4 24.35 37.55 L25.6 37.7 26.8 37.7 27.0 37.7 27.05 37.7 28.0 37.35 Q28.8 37.1 29.4 36.5 L30.35 35.5 31.0 34.4 31.85 31.95 31.95 31.25 32.0 31.15 32.0 30.95 31.95 30.85 31.9 30.75 31.8 30.5 31.7 30.35 M30.75 29.9 L31.3 29.9 31.4 29.9 31.35 29.85 31.1 29.5 30.9 29.35 30.85 29.5 30.75 29.7 30.75 29.8 30.75 29.9 M46.05 30.4 L46.0 30.85 45.9 31.35 45.8 32.0 45.35 31.85 44.75 31.7 44.05 31.75 44.05 31.65 44.15 30.9 44.3 30.25 44.35 29.9 44.4 29.75 42.95 29.9 42.75 29.95 42.3 30.05 41.9 30.15 41.85 30.35 41.8 30.65 41.8 31.1 41.7 33.65 41.7 33.85 41.7 33.9 41.75 33.95 41.75 34.2 41.75 34.25 41.8 34.65 41.8 34.75 41.85 34.85 41.85 34.95 Q42.1 36.1 42.9 36.9 L43.95 37.1 44.0 37.1 44.45 37.0 44.75 36.8 44.9 36.75 45.3 36.5 46.2 35.7 46.6 35.15 47.6 33.1 47.7 32.75 47.75 32.45 48.05 31.25 48.05 31.2 47.95 31.0 47.65 30.65 47.6 30.6 47.55 30.55 47.45 30.5 47.4 30.45 47.35 30.45 47.35 30.4 47.3 30.4 47.2 30.6 47.15 30.65 46.9 30.95 46.9 31.0 46.75 31.1 Q46.3 31.2 46.15 30.75 L46.05 30.4 M44.05 31.75 L44.05 34.3 44.15 34.65 44.35 34.8 44.95 34.25 45.1 33.85 45.25 33.5 45.6 32.75 45.8 32.0 46.45 32.5 46.85 33.1 46.5 34.1 46.45 34.3 46.05 34.95 Q45.55 35.7 44.75 36.1 L44.55 36.25 44.5 36.25 44.45 36.3 44.05 36.4 43.85 36.45 43.45 36.5 42.9 36.3 42.6 35.9 42.55 35.8 42.4 35.2 42.4 35.15 42.35 34.85 42.35 33.8 42.45 32.4 42.55 32.35 42.6 32.3 42.8 32.2 42.85 32.1 43.35 31.85 44.05 31.75 M27.6 30.55 L27.3 30.5 27.25 30.45 25.9 30.3 24.0 30.65 24.05 30.95 Q24.15 31.5 24.4 32.05 L24.85 32.8 24.9 32.85 25.6 33.2 26.25 33.1 26.6 32.85 26.7 32.75 27.4 31.45 27.6 30.55" fill="#bd5425" fill-rule="evenodd" stroke="none"/>
      <path d="M44.15 38.25 L44.05 38.25 43.45 38.2 Q42.5 38.05 41.85 37.45 L41.7 37.35 41.15 35.8 40.9 34.75 40.6 32.9 40.15 32.0 39.75 30.95 39.55 30.4 39.5 30.45 37.75 31.25 36.2 31.6 34.35 31.75 33.55 31.75 33.5 31.85 33.3 32.3 32.9 33.2 32.55 34.0 32.5 34.25 32.5 34.1 31.65 35.4 31.55 35.5 31.45 35.65 31.3 35.9 30.85 36.35 29.95 37.2 29.2 37.8 28.55 38.15 28.0 38.35 27.5 38.6 27.45 38.6 26.75 38.85 26.5 38.9 25.4 39.05 23.8 38.95 22.2 38.7 20.65 38.3 19.4 37.9 18.45 37.5 17.2 36.9 16.85 36.7 17.0 37.25 17.05 37.55 17.75 39.55 19.6 39.4 19.8 39.4 21.95 39.8 22.15 39.8 22.15 39.85 23.0 40.55 20.75 40.35 19.9 40.4 18.95 40.6 18.45 40.75 18.6 40.95 19.75 42.2 20.0 42.5 20.6 42.4 20.85 42.35 22.8 42.5 21.3 42.8 20.85 43.0 20.75 43.1 22.0 44.0 22.3 44.15 23.05 44.55 24.35 45.15 25.25 45.5 26.45 45.75 26.6 45.8 27.05 45.9 30.35 46.4 34.0 46.6 34.65 46.8 34.9 46.9 35.35 46.95 35.6 46.9 35.85 46.85 36.05 46.8 36.75 46.5 37.45 46.45 37.9 46.4 40.25 46.1 41.15 45.95 41.35 45.9 41.45 45.85 43.25 45.35 43.35 45.3 44.3 44.85 44.45 44.8 46.15 43.9 47.3 43.1 48.3 42.2 49.55 40.5 Q50.2 39.65 50.5 38.6 L50.65 37.8 50.6 37.5 50.55 37.05 50.35 35.6 50.3 34.65 49.8 33.75 49.75 33.75 49.55 34.35 48.2 36.5 47.05 37.5 46.45 37.85 45.35 38.25 45.3 38.3 44.6 38.35 44.3 38.35 43.65 38.3 44.15 38.25 M45.95 39.8 L47.9 39.35 49.95 39.2 49.3 40.1 48.75 40.1 47.55 40.1 46.15 40.25 45.4 40.4 45.95 39.8 M46.95 42.05 L45.35 41.9 45.15 41.9 45.6 41.8 47.05 41.65 48.2 41.8 47.6 42.25 46.95 42.05 M32.6 45.55 L32.3 45.3 31.9 44.95 31.85 44.85 31.1 44.1 30.65 43.45 30.55 43.35 30.05 42.25 Q29.95 41.35 30.2 40.5 L30.2 40.45 30.6 40.05 30.85 40.0 31.4 40.1 31.5 40.1 32.25 40.25 34.15 40.4 36.1 40.5 36.3 40.5 37.3 40.5 38.15 40.45 39.55 40.2 39.65 40.45 39.4 42.3 38.9 43.7 38.25 44.8 37.85 45.4 37.55 45.7 37.55 45.75 37.45 45.85 37.1 46.1 37.05 46.15 37.0 46.2 35.9 46.4 35.1 46.45 34.35 46.35 34.1 46.3 33.35 45.95 33.1 45.85 32.9 45.75 32.6 45.55 M37.6 41.6 L37.7 41.75 37.8 41.95 37.95 42.1 Q38.3 42.2 38.45 41.85 L38.55 41.65 38.7 41.4 38.6 41.15 38.55 41.15 38.15 41.25 38.05 41.25 37.6 41.6 M27.05 37.7 L27.0 37.7 26.8 37.7 27.05 37.7 M32.15 41.3 L31.95 41.05 31.85 40.95 31.65 40.95 31.6 41.05 31.35 41.25 31.25 41.4 31.1 41.6 31.1 41.65 31.2 41.85 31.75 41.9 31.85 41.7 32.15 41.3" fill="#fffdff" fill-rule="evenodd" stroke="none"/>
      <path d="M44.05 31.75 L43.35 31.85 42.85 32.1 42.8 32.2 42.6 32.3 42.55 32.35 42.45 32.4 42.35 33.8 42.35 34.85 42.4 35.15 42.4 35.2 42.55 35.8 42.6 35.9 42.9 36.3 43.45 36.5 43.85 36.45 44.05 36.4 44.45 36.3 44.5 36.25 44.55 36.25 44.75 36.1 Q45.55 35.7 46.05 34.95 L46.45 34.3 46.5 34.1 46.85 33.1 46.45 32.5 45.8 32.0 45.6 32.75 45.25 33.5 45.1 33.85 44.95 34.25 44.35 34.8 44.15 34.65 44.05 34.3 44.05 31.75 M42.75 33.5 L42.75 33.45 42.9 33.15 42.9 33.1 43.0 32.95 43.05 32.8 43.15 32.75 43.25 32.75 43.35 32.85 43.55 33.15 43.5 33.7 43.5 33.8 Q43.5 34.35 43.65 34.9 L43.75 35.0 43.8 35.05 44.05 35.1 44.15 35.1 44.7 34.95 45.1 34.55 45.75 33.4 45.8 33.25 45.8 33.35 45.8 33.65 45.75 34.25 45.25 35.1 45.05 35.3 44.35 35.75 44.3 35.8 44.15 35.85 43.75 36.0 43.65 36.0 43.55 36.0 43.2 35.8 43.1 35.65 42.9 35.35 42.8 34.75 42.75 34.3 42.75 33.95 42.75 33.5 M24.0 30.65 L23.75 30.75 23.4 30.9 Q22.9 31.15 22.45 31.5 L22.15 31.7 21.2 32.5 21.1 32.55 20.95 32.7 21.05 33.15 21.1 33.3 21.55 34.5 21.8 35.0 22.0 35.25 22.05 35.3 22.2 35.45 22.55 35.7 22.9 36.05 23.05 36.15 23.55 36.6 23.65 36.65 23.75 36.7 25.0 37.05 25.8 37.05 26.35 36.95 26.6 36.9 Q27.9 36.7 28.9 35.8 L29.2 35.55 29.45 35.25 29.75 34.85 Q30.45 33.9 30.75 32.8 L30.65 32.65 29.8 31.7 29.5 31.45 28.75 31.0 28.25 30.75 28.05 30.65 27.6 30.55 27.4 31.45 26.7 32.75 26.6 32.85 26.25 33.1 25.6 33.2 24.9 32.85 24.85 32.8 24.4 32.05 Q24.15 31.5 24.05 30.95 L24.0 30.65 M29.3 33.25 L29.25 33.45 Q28.9 34.8 27.7 35.4 L27.05 35.75 26.45 35.9 25.45 35.8 24.7 35.65 24.5 35.6 24.2 35.35 24.05 35.25 23.6 35.0 23.15 34.4 23.1 34.4 22.7 33.3 22.85 33.1 Q23.15 32.6 23.6 32.35 L23.75 32.75 24.15 33.5 24.2 33.6 24.95 34.1 25.7 34.25 26.25 34.25 27.25 33.95 27.45 33.75 28.15 32.4 28.5 32.65 28.65 32.8 28.85 32.9 28.95 32.95 29.3 33.25" fill="#ffb765" fill-rule="evenodd" stroke="none"/>
      <path d="M42.75 33.5 L42.75 33.95 42.75 34.3 42.8 34.75 42.9 35.35 43.1 35.65 43.2 35.8 43.55 36.0 43.65 36.0 43.75 36.0 44.15 35.85 44.3 35.8 44.35 35.75 45.05 35.3 45.25 35.1 45.75 34.25 45.8 33.65 45.8 33.35 45.8 33.25 45.75 33.4 45.1 34.55 44.7 34.95 44.15 35.1 44.05 35.1 43.8 35.05 43.75 35.0 43.65 34.9 Q43.5 34.35 43.5 33.8 L43.5 33.7 43.55 33.15 43.35 32.85 43.25 32.75 43.15 32.75 43.05 32.8 43.0 32.95 42.9 33.1 42.9 33.15 42.75 33.45 42.75 33.5 M29.3 33.25 L28.95 32.95 28.85 32.9 28.65 32.8 28.5 32.65 28.15 32.4 27.45 33.75 27.25 33.95 26.25 34.25 25.7 34.25 24.95 34.1 24.2 33.6 24.15 33.5 23.75 32.75 23.6 32.35 Q23.15 32.6 22.85 33.1 L22.7 33.3 23.1 34.4 23.15 34.4 23.6 35.0 24.05 35.25 24.2 35.35 24.5 35.6 24.7 35.65 25.45 35.8 26.45 35.9 27.05 35.75 27.7 35.4 Q28.9 34.8 29.25 33.45 L29.3 33.25" fill="#fff77b" fill-rule="evenodd" stroke="none"/>
      <path d="M30.75 29.95 L30.65 29.9 30.75 29.9 30.75 29.8 30.75 29.7 30.85 29.5 30.9 29.35 31.0 28.9 31.05 28.25 30.8 27.05 30.6 26.65 30.55 26.55 30.0 26.3 Q29.35 26.2 29.0 26.6 L28.7 27.45 28.65 28.1 28.75 29.05 28.85 29.6 28.95 30.0 29.1 30.35 29.25 30.55 Q29.45 30.75 29.75 30.75 L30.0 30.7 30.75 29.95 M47.35 30.3 L47.4 30.2 47.6 29.35 47.6 29.15 47.6 29.05 Q47.6 28.4 47.2 27.95 L47.15 27.8 46.95 27.7 46.5 27.8 46.4 27.8 46.2 28.0 Q46.0 28.25 45.9 28.65 L45.9 29.05 45.9 29.85 45.95 29.85 46.0 30.15 46.05 30.4 46.15 30.75 Q46.3 31.2 46.75 31.1 L46.9 31.0 46.9 30.95 47.15 30.65 47.2 30.6 47.3 30.4 47.35 30.3" fill="#edd1bc" fill-rule="evenodd" stroke="none"/>
      <path d="M45.95 39.8 L45.4 40.4 46.15 40.25 47.55 40.1 48.75 40.1 49.3 40.1 49.95 39.2 47.9 39.35 45.95 39.8 M46.95 42.05 L47.6 42.25 48.2 41.8 47.05 41.65 45.6 41.8 45.15 41.9 45.35 41.9 46.95 42.05 M20.75 43.1 L20.85 43.0 21.3 42.8 22.8 42.5 20.85 42.35 20.6 42.4 20.0 42.5 19.4 42.65 20.4 43.25 20.75 43.1 M18.45 40.75 L18.95 40.6 19.9 40.4 20.75 40.35 23.0 40.55 22.15 39.85 22.15 39.8 21.95 39.8 19.8 39.4 19.6 39.4 17.75 39.55 17.45 39.6 17.25 39.65 18.3 40.8 18.45 40.75" fill="#f9a3ca" fill-rule="evenodd" stroke="none"/>
      <path d="M32.5 54.5 L35.3 54.5 34.35 53.65 33.9 53.25 32.45 52.75 30.95 52.25 30.15 51.95 29.0 51.5 28.4 51.3 28.2 51.25 26.25 50.95 23.75 50.65 22.6 50.2 22.5 50.15 21.75 49.85 21.65 49.75 20.15 48.45 20.55 49.75 20.65 50.2 20.7 50.25 21.15 51.95 21.35 52.05 22.8 52.8 23.5 52.8 23.85 52.8 25.9 52.95 28.35 53.4 28.9 53.5 29.65 53.65 30.75 53.95 31.45 54.15 32.2 54.4 32.5 54.5 M38.1 54.5 L38.8 54.5 38.8 53.6 38.8 52.95 38.0 52.9 38.0 52.95 38.1 54.5 M40.65 54.5 L42.85 54.5 43.05 54.45 43.3 54.4 43.45 54.35 44.85 53.85 45.65 52.55 46.3 51.35 46.75 50.45 46.7 50.2 46.65 49.8 45.4 48.65 43.7 47.35 42.85 46.7 42.05 47.1 43.3 48.05 44.45 49.15 44.7 49.35 44.75 49.4 44.7 50.15 44.6 50.2 44.15 50.5 42.7 51.5 42.45 51.65 42.15 51.8 41.3 53.25 40.65 54.5" fill="#ffb751" fill-rule="evenodd" stroke="none"/>
      <path d="M19.1 45.5 L19.75 47.35 20.15 48.45 21.65 49.75 21.75 49.85 22.5 50.15 22.6 50.2 23.75 50.65 26.25 50.95 28.2 51.25 28.35 51.25 28.95 51.4 29.5 51.45 30.05 51.6 31.6 51.9 31.75 51.95 32.45 52.1 32.55 52.1 32.75 52.15 35.2 52.55 36.95 52.8 38.0 52.9 38.8 52.95 39.25 52.95 39.85 52.95 40.3 52.75 40.6 52.6 42.15 51.8 42.45 51.65 42.7 51.5 44.15 50.5 44.6 50.2 44.7 50.15 44.75 49.4 44.7 49.35 44.45 49.15 43.3 48.05 42.05 47.1 41.55 47.3 40.35 47.8 39.9 47.85 38.7 48.1 36.4 48.4 36.0 48.8 34.65 50.0 34.05 50.2 32.3 50.6 31.85 50.65 31.35 50.35 31.15 50.2 28.95 48.4 27.45 48.1 24.7 47.45 22.35 46.75 20.85 46.35 20.55 46.2 19.1 45.5" fill="#48234e" fill-rule="evenodd" stroke="none"/>
      <path d="M38.25 44.8 L38.5 44.2 38.8 43.4 38.95 42.65 39.05 41.9 39.1 41.6 39.1 41.3 39.1 40.85 39.1 40.8 38.9 40.7 38.85 40.7 38.8 40.7 38.75 40.75 38.6 40.75 38.45 40.8 38.2 40.8 37.8 40.85 37.35 40.85 36.7 40.9 35.9 40.9 35.8 40.9 35.35 40.95 35.0 40.9 34.3 40.8 33.55 40.75 33.05 40.65 32.5 40.6 32.15 40.55 31.35 40.5 31.15 40.45 30.95 40.45 30.75 40.6 30.55 40.95 30.45 41.35 30.45 41.45 30.45 41.7 30.5 42.0 30.65 42.6 30.95 43.3 31.0 43.4 31.35 44.05 31.45 44.3 31.65 44.5 32.15 45.05 32.6 45.55 32.9 45.75 33.1 45.85 32.7 45.5 31.75 44.4 31.2 43.5 31.0 43.05 30.8 42.45 30.8 42.4 30.75 41.55 30.8 41.4 30.85 41.35 30.95 41.2 Q31.2 40.9 31.55 40.8 L31.9 40.85 32.3 40.9 32.9 40.95 35.2 41.15 36.15 41.2 36.6 41.2 37.45 41.15 38.4 40.95 38.75 41.1 38.85 41.15 38.8 41.25 38.8 41.6 38.8 41.95 38.3 44.15 38.0 44.95 37.6 45.65 37.55 45.7 37.85 45.4 38.25 44.8" fill="#9a8eee" fill-rule="evenodd" stroke="none"/>
      <path d="M37.55 45.7 L37.6 45.65 38.0 44.95 38.3 44.15 38.8 41.95 38.8 41.6 38.8 41.25 38.7 41.4 38.55 41.65 38.45 41.85 Q38.3 42.2 37.95 42.1 L37.8 41.95 37.7 41.75 37.6 41.6 37.45 41.15 36.6 41.2 36.15 41.2 35.2 41.15 32.9 40.95 32.3 40.9 32.15 41.3 31.85 41.7 31.75 41.9 31.2 41.85 31.1 41.65 31.0 41.6 30.85 41.35 30.8 41.4 30.75 41.55 30.8 42.4 30.8 42.45 31.0 43.05 31.5 42.95 32.95 43.0 34.1 43.2 35.25 43.6 35.75 43.85 36.45 44.35 36.65 44.6 36.9 44.9 37.1 45.95 37.05 46.15 37.1 46.1 37.45 45.85 37.55 45.75 37.55 45.7" fill="#e73b40" fill-rule="evenodd" stroke="none"/>
      <path d="M31.0 43.05 L31.2 43.5 31.75 44.4 32.7 45.5 33.1 45.85 33.35 45.95 35.25 46.05 36.3 45.85 Q37.0 45.55 36.75 44.85 L36.65 44.6 36.45 44.35 35.75 43.85 35.25 43.6 34.1 43.2 32.95 43.0 31.5 42.95 31.0 43.05" fill="#f8b4a1" fill-rule="evenodd" stroke="none"/>
      <path d="M33.35 45.95 L34.1 46.3 34.35 46.35 35.1 46.45 35.9 46.4 37.0 46.2 37.05 46.15 37.1 45.95 36.9 44.9 36.65 44.6 36.75 44.85 Q37.0 45.55 36.3 45.85 L35.25 46.05 33.35 45.95" fill="#e57385" fill-rule="evenodd" stroke="none"/>
      <path d="M36.4 48.4 L36.1 48.4 33.6 48.55 31.35 48.55 29.95 48.55 28.95 48.4 31.15 50.2 31.35 50.35 31.85 50.65 32.3 50.6 34.05 50.2 34.65 50.0 36.0 48.8 36.4 48.4" fill="#6b5a91" fill-rule="evenodd" stroke="none"/>
      <path d="M35.3 54.5 L38.1 54.5 38.0 52.95 38.0 52.9 36.95 52.8 35.2 52.55 32.75 52.15 32.55 52.1 32.45 52.1 31.75 51.95 31.6 51.9 30.05 51.6 29.5 51.45 28.95 51.4 28.35 51.25 28.2 51.25 28.4 51.3 29.0 51.5 30.15 51.95 30.95 52.25 32.45 52.75 33.9 53.25 34.35 53.65 35.3 54.5 M38.8 54.5 L40.65 54.5 41.3 53.25 42.15 51.8 40.6 52.6 40.3 52.75 39.85 52.95 39.25 52.95 38.8 52.95 38.8 53.6 38.8 54.5" fill="#f5f0b0" fill-rule="evenodd" stroke="none"/>
      <path d="M53.1 -1.4 L50.75 -0.45 48.9 0.4 48.65 0.5 47.4 1.15 47.3 1.2 46.6 1.65 45.25 2.65 M53.5 23.05 L53.75 21.1 54.15 20.65 54.55 20.15 M13.25 0.35 L12.35 -0.2 10.4 -1.4 M13.25 0.35 L14.0 0.95 15.6 2.2 16.85 3.5 16.95 3.65 17.6 4.35 18.55 5.45 21.2 8.85 22.95 11.25 M44.95 16.45 L45.5 17.0 M50.95 27.45 L50.6 29.5 Q50.45 30.25 50.45 31.1 L50.45 31.65 50.3 34.15 50.3 34.65 50.35 35.6 50.55 37.05 50.6 37.5 50.65 37.8 50.75 38.35 50.7 38.65 50.45 39.85 49.55 41.8 49.0 42.65 48.25 43.35 47.4 43.95 45.7 45.15 44.55 45.85 Q44.25 46.0 43.9 46.2 L43.55 46.35 42.85 46.7 42.05 47.1 41.55 47.3 40.35 47.8 39.9 47.85 38.7 48.1 36.4 48.4 36.1 48.4 33.6 48.55 31.35 48.55 29.95 48.55 28.95 48.4 27.45 48.1 24.7 47.45 22.35 46.75 20.85 46.35 20.55 46.2 19.1 45.5" fill="none" stroke="#524880" stroke-linecap="round" stroke-linejoin="round" stroke-width="1.0"/>
      <path d="M44.2 1.2 L43.9 0.75 42.25 -1.35 42.2 -1.4 M44.2 1.2 L44.55 1.65 44.8 2.0 45.05 2.35 45.25 2.65 45.6 3.3 45.85 4.55 M26.8 3.3 L26.9 2.8 27.0 2.35 27.4 0.75 28.0 -1.4" fill="none" stroke="#6b093a" stroke-linecap="round" stroke-linejoin="round" stroke-width="1.0"/>
      <path d="M51.45 35.15 L52.85 35.35 54.55 35.6 M54.55 24.1 L53.95 23.5 53.5 23.05 53.05 22.5 52.85 22.3 52.05 21.4 51.05 20.2 50.55 19.6 50.05 18.9 49.15 17.6 48.35 16.35 47.15 14.15 46.8 13.55 46.6 13.25 46.55 13.15 46.7 12.7 47.0 11.8 48.05 8.2 49.0 3.85 49.15 2.95 49.05 3.0 Q47.65 3.45 46.4 4.2 L46.15 4.35 46.05 4.45 46.0 4.5 45.85 4.55 M22.95 11.25 L22.55 11.75 20.85 13.5 19.75 14.6 19.0 15.05 16.95 16.35 15.7 17.05 14.4 17.8 13.1 18.5 11.35 19.35 10.3 19.8 10.2 19.85 8.95 20.35 7.3 21.0 7.0 21.1 6.05 21.4 5.9 21.4 3.45 22.05 3.35 22.05 1.0 22.5 -0.8 22.85 -1.0 22.85 -2.2 23.05 M20.45 25.8 L19.95 26.15 19.85 26.2 18.6 27.15 18.2 27.45 17.75 27.8 17.15 28.2 16.5 28.7 16.45 28.7 15.5 29.4 14.7 29.95 12.8 31.15 12.15 31.55 11.05 32.25 9.4 33.15 7.8 33.95 7.3 34.25 6.1 34.65 3.95 35.45 3.45 35.6 2.45 35.95 2.0 36.1 0.5 36.6 0.25 36.65 -0.8 37.5 -1.05 37.65 -2.15 38.4 -2.2 38.45 M6.05 21.4 L5.95 21.4 5.9 21.4 M23.9 2.85 L23.7 2.85 23.5 2.8 23.55 2.9 Q24.2 4.95 25.2 6.8 L25.65 7.65 25.05 8.6 24.0 10.05 22.95 11.25 M23.9 2.85 L26.2 3.15 26.25 3.2 26.5 3.2 26.8 3.3 M30.95 13.95 L29.45 12.75 28.35 11.8 27.7 11.2 27.4 10.7 26.7 9.5 25.65 7.65 M24.35 22.5 L24.65 22.25 26.15 20.6 27.55 18.9 28.75 17.35 29.7 15.9 30.95 13.95 31.25 14.2 33.95 16.2 36.95 18.3 38.95 19.7 40.15 20.85 41.15 21.85 42.8 19.8 44.95 16.45 45.05 16.25 45.15 16.1 45.5 17.0 45.8 17.65 46.3 19.0 46.4 19.15 47.4 21.5 47.45 21.75 47.95 22.75 48.4 23.55 49.0 24.6 49.2 24.95 M24.35 22.5 L23.55 23.35 23.3 23.6 22.65 24.1 21.4 25.1 20.45 25.8 M45.6 15.25 L46.1 14.4 46.15 14.3 46.55 13.15 M45.6 15.25 L45.15 16.1 M44.85 53.85 L45.65 52.55 46.3 51.35 46.75 50.45 46.7 50.2 46.65 49.8 45.4 48.65 43.7 47.35 42.85 46.7" fill="none" stroke="#8a290f" stroke-linecap="round" stroke-linejoin="round" stroke-width="1.0"/>
      <path d="M54.55 43.75 L54.4 43.45 53.15 40.75 52.25 38.75 52.15 38.55 51.85 37.95 Q51.5 36.55 51.45 35.15 L51.45 34.65 Q51.45 32.75 51.6 30.8 51.6 29.75 51.9 28.8 M15.5 29.4 L14.85 30.75 Q14.35 31.7 14.0 32.75 L13.6 33.75 13.85 34.2 15.85 38.15 17.75 42.15 18.8 44.6 19.1 45.5 19.75 47.35 20.15 48.45 20.55 49.75 20.65 50.2 20.7 50.25 21.15 51.95 21.5 53.3 21.55 53.55 21.65 54.5 M10.4 51.1 L10.45 50.55 10.45 50.2 10.45 50.05 10.45 48.25 10.4 47.15 10.35 45.65 10.2 44.25 10.05 42.95 9.65 40.55 9.25 38.65 8.6 36.85 M47.45 21.75 L47.45 21.85 47.3 22.35 46.85 23.55 46.1 24.8 45.7 25.4 44.3 27.1 42.85 28.35 42.1 28.9 41.6 29.25 41.25 29.4 41.45 28.45 41.45 27.95 41.45 27.8 41.5 27.7 41.2 28.05 40.6 28.9 39.6 29.75 37.55 30.75 35.65 31.0 33.9 30.85 33.3 30.75 32.7 30.6 32.2 30.5 32.05 30.45 31.7 30.35 31.0 30.05 30.75 29.95 30.65 29.9 30.75 29.9 31.3 29.9 31.4 29.9 32.1 29.7 32.5 29.5 32.8 29.3 33.05 29.0 33.15 28.75 33.15 28.7 33.15 28.55 33.05 27.8 32.65 26.6 Q32.4 25.95 30.8 24.9 29.3 23.85 25.8 22.9 L24.35 22.5 M10.05 53.95 L10.0 54.5 M10.4 51.1 L10.15 53.15 10.05 53.95" fill="none" stroke="#5f0d28" stroke-linecap="round" stroke-linejoin="round" stroke-width="1.0"/>
      <path d="M48.9 0.4 L48.8 0.2 48.1 -1.4 M45.2 54.5 L44.85 53.85 M4.8 54.5 L5.55 54.0 5.8 53.85 7.0 53.1 8.8 51.95 10.4 51.1" fill="none" stroke="#4b0764" stroke-linecap="round" stroke-linejoin="round" stroke-width="1.0"/>
    </g>
    <g id="shape2" transform="matrix(1.0, 0.0, 0.0, 1.0, 0.0, 0.0)">
      <path d="M50.5 0.0 Q53.95 0.0 53.95 3.3 L53.95 50.15 Q53.95 53.4 50.5 53.4 L3.3 53.4 Q0.0 53.4 0.0 50.15 L0.0 3.3 Q0.0 0.0 3.3 0.0 L50.5 0.0" fill="#000000" fill-opacity="0.003921569" fill-rule="evenodd" stroke="none"/>
    </g>
  </defs>
</svg>
