<?xml version="1.0" encoding="UTF-8" standalone="no"?>
<svg xmlns:ffdec="https://www.free-decompiler.com/flash" xmlns:xlink="http://www.w3.org/1999/xlink" ffdec:objectType="frame" height="54.05px" width="54.9px" xmlns="http://www.w3.org/2000/svg">
  <g transform="matrix(1.0, 0.0, 0.0, 1.0, 0.95, 0.0)">
    <clipPath id="clipPath0" transform="matrix(1.0, 0.0, 0.0, 1.0, 0.0, 0.0)">
      <path d="M50.5 0.0 Q53.95 0.0 53.95 3.3 L53.95 50.15 Q53.95 53.4 50.5 53.4 L3.3 53.4 Q0.0 53.4 0.0 50.15 L0.0 3.3 Q0.0 0.0 3.3 0.0 L50.5 0.0" fill="#000000" fill-rule="evenodd" stroke="none"/>
    </clipPath>
    <g clip-path="url(#clipPath0)">
      <use ffdec:characterId="2" height="52.0" transform="matrix(1.0, 0.0, 0.0, 1.0, -0.95, 2.05)" width="53.8" xlink:href="#shape1"/>
    </g>
    <use ffdec:characterId="3" height="53.4" transform="matrix(1.0, 0.0, 0.0, 1.0, 0.0, 0.0)" width="53.95" xlink:href="#shape2"/>
  </g>
  <defs>
    <g id="shape1" transform="matrix(1.0, 0.0, 0.0, 1.0, 0.95, -2.05)">
      <path d="M38.3 2.75 L38.35 2.7 39.4 4.55 40.1 5.8 40.9 7.25 41.8 9.05 41.85 9.55 42.25 11.9 42.3 12.25 42.5 13.5 42.7 15.15 42.95 16.95 43.05 17.75 43.4 20.8 43.6 22.65 43.65 23.2 43.35 22.55 42.95 19.85 42.7 18.35 42.6 17.85 42.2 15.8 41.8 13.95 41.4 12.05 41.3 11.45 41.05 10.65 40.9 10.15 40.35 8.4 39.85 6.85 39.3 5.35 38.9 4.3 38.3 2.75 M2.1 9.9 L2.0 9.7 2.45 9.7 5.0 10.05 6.9 10.5 9.1 11.1 11.4 11.75 13.75 12.45 14.15 12.6 15.5 13.0 16.9 13.55 18.5 14.2 18.5 14.25 18.55 14.25 20.3 15.0 21.3 15.5 20.5 15.25 18.6 14.7 18.35 14.6 16.3 14.1 14.45 13.75 14.05 13.7 16.1 14.7 17.9 15.65 17.95 15.7 19.4 16.5 21.05 17.5 22.85 18.7 23.2 18.9 24.6 19.85 26.25 21.0 27.85 22.15 29.3 23.3 29.65 23.6 29.9 23.8 30.6 24.4 31.1 24.8 33.2 26.55 34.5 27.65 35.3 28.5 34.2 27.6 32.9 26.65 31.6 25.6 30.2 24.55 28.55 23.4 27.3 22.5 26.95 22.3 25.85 21.6 24.3 20.65 22.7 19.7 22.6 19.65 20.95 18.65 20.65 18.45 19.05 17.55 17.6 16.75 16.45 16.15 14.95 15.35 14.05 14.9 13.35 14.55 11.75 13.7 10.15 12.95 8.65 12.25 7.2 11.6 5.8 11.1 3.5 10.25 2.1 9.9 M38.5 40.05 L37.7 40.8 37.55 40.95 37.2 41.65 37.05 42.35 36.35 41.85 35.5 41.25 35.35 41.05 35.0 40.85 34.95 40.8 34.85 40.7 35.05 40.55 35.35 40.4 35.85 40.2 36.65 39.9 37.5 39.75 37.65 39.8 37.7 39.8 38.35 40.0 38.5 40.05" fill="#4cf1f5" fill-rule="evenodd" stroke="none"/>
      <path d="M7.65 53.55 L7.15 53.55 7.2 53.35 7.45 53.45 7.65 53.55 M-0.45 53.0 L-0.45 52.1 0.95 50.6 1.05 50.45 0.9 50.75 0.5 51.55 -0.15 52.6 -0.45 53.0 M41.05 10.65 L41.3 11.45 41.4 12.05 41.8 13.95 42.2 15.8 42.6 17.85 42.7 18.35 42.95 19.85 43.35 22.55 43.15 22.15 42.0 20.15 40.6 18.25 40.6 18.2 40.5 18.1 40.45 18.05 39.2 16.8 37.85 15.8 37.7 15.7 36.95 15.5 36.95 15.2 37.1 13.4 37.35 11.85 37.45 11.25 37.9 9.35 38.4 7.6 39.05 5.85 39.8 7.4 40.5 9.15 41.05 10.65 M44.7 36.65 L44.65 36.65 44.3 36.35 43.75 35.95 43.7 35.9 42.9 35.45 42.8 35.4 41.7 34.85 41.55 34.8 41.05 34.55 40.25 34.2 38.8 33.7 37.6 33.4 36.8 33.3 36.6 33.3 36.8 34.5 36.9 35.0 37.2 36.25 37.4 36.85 37.55 37.25 38.05 38.4 38.3 38.85 38.9 39.0 39.85 39.2 40.55 39.25 41.0 39.3 41.55 39.4 42.2 39.4 42.25 39.4 43.6 39.35 43.75 39.35 43.9 39.35 44.7 39.25 45.15 39.2 45.2 39.2 45.3 39.2 45.35 39.2 45.9 39.05 46.3 38.95 46.35 38.95 46.65 38.8 46.7 38.8 46.55 38.5 46.55 38.45 46.15 38.05 46.0 37.85 45.65 37.5 45.55 37.45 44.9 36.85 44.85 36.8 44.7 36.65 M36.4 38.75 L35.9 37.8 35.4 36.35 35.05 34.9 34.9 33.8 34.75 32.15 35.85 32.25 36.45 32.35 36.7 32.4 38.1 32.8 39.3 33.2 40.75 33.85 41.75 34.35 42.15 34.6 42.6 34.85 43.0 35.1 43.4 35.35 43.8 35.6 44.15 35.8 44.65 36.2 45.0 36.5 45.05 36.55 45.65 37.1 45.7 37.15 46.1 37.55 46.65 38.1 46.7 38.2 46.85 38.45 46.85 38.5 47.0 38.85 47.15 39.15 47.15 39.2 47.05 39.2 46.9 39.25 46.55 39.35 46.25 39.4 46.05 39.45 45.55 39.55 45.15 39.6 44.65 39.7 44.55 39.7 43.7 39.75 43.6 39.8 43.25 39.8 42.15 39.85 42.1 39.85 41.75 39.85 40.9 39.8 40.8 39.8 40.4 39.75 40.2 39.75 40.0 39.75 39.7 39.7 39.35 39.7 39.2 39.7 38.8 39.9 38.75 39.95 38.6 39.85 38.05 39.7 38.1 39.7 39.1 39.65 38.6 39.55 37.1 39.15 36.8 39.05 36.55 38.95 36.4 38.75 M34.85 40.7 L34.95 40.8 35.0 40.85 35.35 41.1 35.5 41.25 36.35 41.85 37.05 42.35 37.0 42.5 37.0 43.35 37.1 44.15 37.15 44.5 35.7 44.1 34.75 43.55 33.65 42.8 33.6 42.85 33.85 42.2 34.0 41.95 34.15 41.6 34.3 41.4 34.7 40.8 34.85 40.7 M20.95 18.65 L22.6 19.65 22.7 19.7 24.3 20.65 25.85 21.6 26.95 22.3 27.6 22.75 28.55 23.4 30.2 24.55 31.6 25.6 32.9 26.65 34.2 27.6 35.3 28.5 36.45 29.4 37.95 30.8 38.1 30.9 38.65 31.45 38.75 31.6 37.6 31.3 34.9 30.85 32.05 30.55 30.7 30.4 28.35 30.3 27.25 30.25 27.7 30.85 28.6 31.9 29.35 32.6 30.15 33.3 28.8 33.05 27.0 32.8 24.95 32.55 24.25 32.5 19.65 29.15 19.35 28.95 19.35 28.8 19.35 28.7 19.35 28.3 19.35 27.9 19.35 27.7 19.35 27.5 19.35 27.1 19.4 26.7 19.45 26.35 19.45 26.1 19.5 25.9 19.05 26.0 18.85 26.0 18.75 26.05 18.65 26.1 18.45 26.35 18.3 26.55 17.95 27.0 17.9 27.1 17.75 27.3 17.6 27.5 17.3 27.25 16.85 26.85 15.35 25.55 15.1 25.3 15.15 24.75 15.45 22.4 15.0 22.35 13.55 23.85 12.4 22.8 12.0 22.25 10.25 20.0 9.35 18.8 8.2 17.1 7.3 15.65 5.9 13.4 5.3 12.3 6.75 12.7 9.5 13.45 11.25 14.0 13.15 14.7 13.75 14.9 14.05 15.05 14.5 15.25 16.0 16.0 17.6 16.8 19.3 17.7 20.95 18.65 M23.55 49.5 L24.3 50.3 24.55 50.65 24.65 50.8 24.65 50.95 24.65 51.1 24.65 51.15 24.6 51.15 24.2 51.5 24.15 51.35 23.8 50.2 23.55 49.5 M24.25 53.3 L24.4 53.3 24.25 53.3 M8.15 51.4 L8.3 51.05 8.4 50.2 Q8.5 49.2 8.2 48.3 L8.65 48.9 9.15 49.85 9.15 50.4 9.1 51.6 8.35 51.4 8.15 51.4" fill="#064994" fill-rule="evenodd" stroke="none"/>
      <path d="M41.8 9.05 L42.15 9.75 42.9 11.85 43.1 12.45 43.9 15.0 44.45 16.7 44.65 17.45 45.3 19.9 45.55 21.25 45.85 23.65 45.9 23.85 46.15 26.3 46.35 28.25 46.25 28.5 46.05 28.15 45.45 27.1 44.85 26.25 44.1 24.15 43.65 23.2 43.6 22.65 43.4 20.8 43.05 17.75 42.95 16.95 42.7 15.15 42.5 13.5 42.3 12.25 42.25 11.9 41.85 9.55 41.8 9.05 M9.8 20.0 L9.0 19.1 7.75 17.65 5.6 15.2 5.2 14.75 5.0 14.45 4.05 13.05 2.7 10.85 2.1 9.9 3.5 10.25 5.8 11.1 7.2 11.6 8.65 12.25 10.15 12.95 11.75 13.7 13.35 14.55 14.05 14.9 14.95 15.35 16.45 16.15 17.6 16.75 19.05 17.55 20.65 18.45 20.95 18.65 19.3 17.7 17.6 16.8 16.0 16.0 14.5 15.25 14.05 15.05 13.75 14.9 13.15 14.7 11.25 14.0 9.5 13.45 6.75 12.7 5.3 12.3 5.9 13.4 7.3 15.65 8.2 17.1 9.35 18.8 10.25 20.0 12.0 22.25 12.4 22.8 12.05 22.4 10.45 20.75 9.8 20.0 M36.55 15.35 L36.45 14.15 36.45 13.7 36.6 11.05 36.6 10.9 36.8 9.05 37.1 7.3 37.75 4.7 38.3 2.75 38.9 4.3 39.3 5.35 39.85 6.85 40.35 8.4 40.9 10.15 41.05 10.65 40.5 9.15 39.8 7.4 39.05 5.85 38.4 7.6 37.9 9.35 37.45 11.25 37.35 11.85 37.1 13.4 36.95 15.2 36.95 15.5 36.55 15.35 M39.5 30.55 L39.55 30.65 40.4 31.8 40.95 32.55 40.35 32.25 39.3 31.75 38.8 31.65 38.8 31.6 38.75 31.6 38.65 31.45 38.1 30.9 37.95 30.8 36.45 29.4 35.3 28.5 34.5 27.65 33.2 26.55 31.1 24.8 30.6 24.4 29.9 23.8 29.65 23.6 29.3 23.3 27.85 22.15 26.25 21.0 24.6 19.85 23.2 18.9 22.85 18.7 21.05 17.5 19.4 16.5 17.95 15.7 17.9 15.65 16.1 14.7 14.05 13.7 14.45 13.75 16.3 14.1 18.35 14.6 18.6 14.7 20.5 15.25 21.3 15.5 21.95 15.85 23.5 16.65 24.55 17.25 24.95 17.45 27.35 18.85 28.1 19.4 28.35 19.6 29.8 20.7 31.3 21.9 32.7 23.1 33.35 23.65 34.3 24.65 35.45 25.9 36.6 27.25 37.05 27.75 37.6 28.35 37.6 28.7 37.95 29.0 38.7 29.7 39.25 30.3 39.5 30.55 M38.75 39.95 L38.5 40.05 38.35 40.0 37.7 39.8 37.65 39.8 37.5 39.75 38.05 39.7 38.6 39.85 38.75 39.95" fill="#2274d0" fill-rule="evenodd" stroke="none"/>
      <path d="M46.95 30.0 L47.25 29.35 48.25 27.55 48.4 28.3 48.25 29.55 48.1 31.45 48.0 33.35 47.6 31.9 47.55 31.7 47.2 30.65 47.05 30.2 46.95 30.0 M49.35 35.4 L49.3 35.65 50.45 34.7 51.0 34.35 Q50.3 35.05 49.85 35.95 L49.6 36.35 49.2 37.15 49.65 37.95 50.25 37.7 49.9 38.4 49.7 38.05 49.75 38.65 49.7 39.05 49.7 39.6 49.05 39.4 48.2 39.2 47.55 39.05 47.4 39.05 47.15 39.15 47.0 38.85 46.85 38.5 46.85 38.45 48.0 38.6 48.9 38.7 48.95 38.7 49.2 38.25 49.2 38.1 49.15 37.15 49.15 37.1 49.0 36.8 48.55 35.95 48.75 35.8 49.15 35.5 49.35 35.4 M50.35 43.9 L49.15 44.85 47.85 44.85 47.6 44.95 Q47.45 45.05 47.05 45.3 L46.75 45.4 46.6 45.4 45.8 45.4 43.4 45.35 43.1 45.35 42.85 45.35 42.4 45.3 41.8 45.25 41.75 45.25 41.0 45.2 40.65 45.15 39.15 44.95 39.05 44.9 38.6 44.8 37.3 44.5 37.15 44.5 37.1 44.15 37.0 43.35 37.0 42.5 37.05 42.35 37.65 42.7 39.15 43.45 40.35 43.95 41.1 44.2 41.2 44.25 41.35 44.25 41.55 44.35 42.15 44.5 42.5 44.6 42.55 44.6 43.95 44.85 45.5 44.95 46.0 45.0 46.2 44.95 46.45 44.85 47.15 44.55 47.55 44.35 48.7 44.35 49.65 44.2 49.85 44.1 50.35 43.9 M-0.45 48.6 L-0.45 48.2 0.05 48.2 1.75 48.2 2.95 48.05 3.4 47.95 3.75 47.9 4.75 47.65 5.25 47.35 5.4 47.25 6.7 46.45 8.1 45.5 8.55 45.25 10.05 45.8 10.6 45.85 11.3 45.95 12.15 46.05 13.3 46.2 12.45 46.45 11.7 46.6 11.5 46.65 11.25 46.7 9.5 47.0 7.5 47.35 6.65 47.5 6.25 47.6 5.25 47.9 3.95 48.1 3.6 48.2 2.5 48.35 2.55 48.3 1.65 48.45 1.6 48.45 0.35 48.55 -0.45 48.6 M9.4 20.0 L9.8 20.0 10.45 20.75 12.05 22.4 12.4 22.8 13.55 23.85 13.35 24.05 13.1 24.4 13.05 24.8 13.1 25.4 13.0 25.35 12.2 24.8 10.6 23.7 8.7 22.15 7.45 20.8 9.4 20.0 M14.15 12.6 L14.75 10.0 Q15.1 8.85 15.75 7.85 16.45 6.7 17.3 5.65 L19.0 4.0 Q19.5 3.55 20.9 2.55 L20.9 2.6 19.6 4.0 18.75 5.5 18.1 7.65 17.95 9.05 17.95 10.6 18.15 12.3 18.3 13.3 18.45 14.0 18.5 14.2 16.9 13.55 15.5 13.0 14.15 12.6 M27.25 14.5 L28.05 14.9 28.05 13.5 28.25 12.15 28.6 11.05 29.55 9.25 29.3 11.1 Q29.2 12.25 29.45 13.35 L29.9 14.95 30.15 15.65 30.95 16.45 31.2 16.7 32.0 17.35 31.65 17.15 31.15 16.85 30.5 16.5 29.25 15.75 27.6 14.75 27.25 14.5 M43.35 22.55 L43.65 23.2 44.1 24.15 44.85 26.25 44.4 25.65 44.0 25.15 43.65 24.7 42.7 23.5 42.3 23.05 42.1 22.85 41.7 20.8 41.05 19.15 40.6 18.25 42.0 20.15 43.15 22.15 43.35 22.55 M40.5 18.1 L40.6 18.2 40.6 18.25 40.5 18.1 M45.35 32.9 L45.5 32.4 45.45 32.9 45.35 32.9 M45.5 32.35 L45.4 31.65 45.4 31.45 45.5 32.35 M39.5 30.55 L40.85 32.0 41.4 32.6 41.45 32.65 41.2 32.65 40.95 32.55 40.4 31.8 39.55 30.65 39.5 30.55 M40.75 34.9 L40.45 35.8 40.35 36.9 40.35 37.1 39.3 37.0 38.2 37.0 38.05 37.0 38.0 36.85 37.7 36.0 37.5 35.1 37.3 34.0 37.55 34.0 37.8 34.05 38.15 34.1 38.6 34.2 39.1 34.35 39.6 34.5 40.15 34.65 40.7 34.85 40.75 34.9 M44.4 38.05 L44.45 38.0 44.55 37.6 44.6 37.4 44.65 37.05 44.75 37.1 44.75 37.15 45.05 37.4 45.4 37.75 45.45 37.8 45.6 38.0 45.75 38.25 45.8 38.25 46.0 38.65 45.95 38.65 45.85 38.65 45.65 38.55 45.15 38.35 44.4 38.05 M49.7 38.05 L49.65 37.95 49.7 38.05 M45.55 39.55 L45.3 39.6 44.8 39.7 43.65 39.95 43.05 40.0 41.5 40.2 40.3 40.3 39.95 40.35 39.4 40.25 38.5 40.05 38.75 39.95 39.05 40.0 39.15 40.0 39.3 40.05 40.05 40.1 40.7 40.05 42.15 39.85 43.25 39.8 43.6 39.8 43.7 39.75 44.55 39.7 44.65 39.7 45.15 39.6 45.55 39.55 M45.1 43.3 L46.1 43.05 46.6 42.95 47.45 42.95 47.9 43.0 47.5 43.5 47.5 43.55 47.25 43.85 47.0 43.85 47.2 43.5 46.6 43.45 46.15 43.45 45.1 43.55 45.05 43.55 45.0 43.75 44.75 43.75 44.85 43.65 44.9 43.6 45.0 43.4 45.05 43.4 45.1 43.3 M38.05 39.7 L37.5 39.75 36.25 39.25 34.85 38.7 34.15 38.4 34.0 38.3 33.45 37.9 33.35 37.85 32.8 38.3 32.6 38.45 32.5 38.55 32.15 38.8 31.6 39.3 31.35 39.6 31.15 39.85 30.8 40.25 30.5 40.6 29.85 41.6 29.2 42.75 29.6 42.45 30.85 41.9 32.05 41.5 32.15 41.45 32.85 41.15 33.65 40.7 34.3 40.25 34.85 40.7 34.7 40.8 34.3 41.4 33.8 41.75 33.75 41.8 33.35 42.05 32.5 42.5 31.6 42.9 31.15 43.05 31.05 43.1 30.85 43.15 30.15 43.35 29.15 43.55 27.95 43.65 28.6 42.85 29.65 41.55 30.35 40.65 30.4 40.55 30.5 40.35 30.55 40.3 30.25 40.4 30.15 40.45 29.45 40.65 28.8 40.8 27.75 40.95 27.45 40.95 26.0 41.1 25.75 41.15 25.6 41.15 25.1 41.15 23.45 41.25 22.6 41.2 21.05 41.05 19.6 40.8 19.05 40.7 19.0 40.7 18.5 40.6 17.6 40.35 18.3 40.1 19.5 39.7 21.1 39.2 21.95 39.0 22.0 38.95 22.9 38.8 23.85 38.7 24.5 38.6 24.6 38.6 25.45 38.45 26.75 38.2 27.0 38.15 27.15 38.15 27.15 38.1 27.1 38.1 27.05 38.05 26.9 38.05 26.85 38.05 26.4 37.95 25.75 37.85 24.45 37.8 22.9 37.75 21.35 37.7 20.05 37.55 18.95 37.35 20.25 37.3 21.6 37.15 23.2 36.95 24.7 36.65 24.9 36.55 25.8 36.3 27.5 35.7 27.6 35.65 28.45 35.3 29.2 34.85 29.5 34.7 30.7 34.95 32.25 35.4 33.45 35.85 34.55 36.4 35.05 37.2 35.25 37.5 36.05 38.45 36.4 38.75 36.55 38.95 36.8 39.05 37.2 39.3 37.7 39.55 38.05 39.7 M49.2 37.15 L49.15 37.1 49.2 37.15 M28.1 19.4 L28.55 19.65 29.4 20.1 30.0 20.4 31.35 21.15 32.2 21.7 32.15 21.55 31.8 19.35 32.9 19.75 33.35 19.9 35.2 20.7 36.6 21.4 37.45 21.9 37.85 22.2 37.95 22.25 37.95 22.05 37.5 20.0 37.0 18.65 36.85 18.25 36.75 18.05 36.2 16.8 36.65 17.15 36.85 17.35 37.35 17.85 38.45 19.1 39.25 20.15 39.45 20.4 39.6 20.65 38.7 20.15 Q38.2 21.15 37.95 22.3 L37.65 24.25 37.55 26.4 37.6 28.35 37.05 27.75 36.6 27.25 35.45 25.9 34.3 24.65 33.35 23.65 32.7 23.1 31.3 21.9 29.8 20.7 28.35 19.6 28.1 19.4 M26.95 22.3 L27.3 22.5 28.55 23.4 27.6 22.75 26.95 22.3 M13.35 26.45 L14.1 26.35 14.8 26.2 15.1 26.15 15.45 25.95 15.35 25.85 15.25 25.8 15.1 25.7 15.1 25.55 16.35 26.85 17.4 27.95 17.35 27.95 17.35 28.05 17.3 28.3 17.3 28.55 17.35 29.0 17.35 29.2 17.4 29.55 17.45 29.8 17.6 29.8 17.9 29.8 18.35 29.8 18.65 29.75 19.05 29.7 19.1 29.7 20.4 30.95 20.6 31.1 18.95 31.45 18.15 31.65 18.2 31.4 18.45 30.55 18.45 30.45 17.25 30.6 16.45 30.8 15.95 31.35 15.75 31.6 15.25 32.35 13.5 32.8 12.3 33.25 11.6 33.35 12.3 33.25 12.8 33.15 14.9 32.85 14.5 33.35 14.15 33.8 13.65 34.5 12.85 34.75 11.85 35.1 10.3 35.65 9.1 36.1 9.8 36.5 11.1 37.05 11.6 37.3 11.5 37.65 11.2 37.6 9.25 37.15 7.05 36.55 5.2 35.9 4.75 35.7 5.5 35.1 6.35 34.55 6.4 34.5 9.1 33.8 10.85 33.5 11.6 33.35 10.65 32.85 10.4 32.75 10.4 32.7 11.6 31.95 12.95 31.1 13.05 31.05 13.45 30.85 14.35 30.3 Q15.65 29.6 17.0 29.0 L16.45 29.05 14.95 29.15 13.1 29.15 13.4 28.45 13.45 28.3 13.65 27.6 12.9 27.6 11.9 27.65 11.3 28.15 11.1 28.35 10.65 28.75 10.05 28.6 9.85 28.55 10.2 28.4 9.95 28.3 10.35 28.0 10.6 27.85 11.4 27.35 12.65 26.75 13.35 26.45 M12.5 37.8 L12.7 37.6 14.2 38.0 14.4 38.05 13.55 37.95 12.5 37.8 M16.55 33.6 L16.7 33.4 17.5 32.6 19.65 32.45 19.8 32.45 22.05 32.35 22.85 32.35 23.15 32.4 22.2 32.5 20.85 32.7 20.15 32.85 19.5 32.95 18.05 33.2 16.65 33.55 16.55 33.6 M4.35 35.3 L4.3 35.5 4.1 35.4 4.35 35.3 M29.4 36.35 L28.2 36.45 28.0 36.55 26.65 37.25 27.5 37.1 28.4 37.05 28.8 37.05 29.5 36.35 29.4 36.35 M29.0 37.75 L28.7 37.8 28.45 37.95 27.35 38.65 27.3 38.7 27.15 38.8 26.0 39.65 25.75 39.75 25.65 39.75 25.05 40.0 24.85 40.05 24.75 40.05 23.15 40.15 23.1 40.15 22.1 40.15 23.3 40.3 23.35 40.3 24.6 40.35 26.2 40.3 28.0 40.1 29.25 39.85 29.7 39.8 30.7 39.55 30.8 39.5 31.9 38.75 32.3 38.4 32.85 37.85 32.6 37.85 32.0 37.75 31.25 37.65 29.75 37.65 29.0 37.75" fill="#ccdbfc" fill-rule="evenodd" stroke="none"/>
      <path d="M48.4 28.3 L48.4 28.35 48.7 29.25 48.85 29.75 49.2 31.7 49.35 33.55 49.35 34.7 49.35 35.4 49.15 35.5 48.75 35.8 48.55 35.95 48.3 35.5 48.25 35.05 48.05 33.55 48.0 33.35 48.1 31.45 48.25 29.55 48.4 28.3 M51.0 34.35 L51.2 34.2 50.8 36.0 50.45 37.25 50.25 37.65 50.25 37.7 49.65 37.95 49.2 37.15 49.6 36.35 49.85 35.95 Q50.3 35.05 51.0 34.35 M49.9 38.4 L50.1 38.7 50.3 39.05 50.6 39.3 52.35 41.0 52.05 41.85 50.45 43.85 50.4 43.85 50.35 43.9 49.85 44.1 49.65 44.2 48.7 44.35 47.55 44.35 47.15 44.55 46.45 44.85 46.2 44.95 46.0 45.0 45.5 44.95 43.95 44.85 42.55 44.6 42.5 44.6 42.15 44.5 41.55 44.35 41.35 44.25 41.2 44.25 41.1 44.2 40.35 43.95 39.15 43.45 37.65 42.7 37.05 42.35 37.2 41.65 37.55 40.95 37.7 40.8 38.5 40.05 39.4 40.25 39.95 40.35 40.3 40.3 41.5 40.2 43.05 40.0 43.65 39.95 44.8 39.7 45.3 39.6 45.55 39.55 46.05 39.45 46.25 39.4 46.55 39.35 46.9 39.25 47.05 39.2 47.15 39.2 47.15 39.15 47.4 39.05 47.55 39.05 48.2 39.2 49.05 39.4 49.7 39.6 49.7 39.05 49.75 38.65 49.7 38.05 49.9 38.4 M6.6 30.95 L7.0 30.55 9.0 29.05 9.2 28.9 9.6 28.65 9.85 28.55 10.05 28.6 10.65 28.75 10.0 29.35 9.65 29.65 9.3 29.95 8.55 30.7 7.7 31.45 6.6 30.95 M6.6 24.95 L5.95 23.6 5.5 22.05 5.45 21.95 5.45 20.85 Q5.45 19.55 5.8 18.3 L6.15 17.15 6.4 18.95 6.75 19.45 7.75 19.85 9.35 20.0 9.4 20.0 7.45 20.8 8.7 22.15 10.6 23.7 12.2 24.8 13.0 25.35 13.1 25.4 13.1 25.45 13.25 26.15 13.3 26.25 12.75 26.25 11.35 26.25 9.8 26.05 8.25 25.65 6.6 24.95 M20.9 2.6 L20.75 3.25 20.4 6.05 Q20.35 7.2 20.7 8.3 L21.05 9.35 21.15 9.5 22.05 10.75 22.8 11.55 24.75 13.05 25.7 13.65 26.75 14.25 26.85 14.3 27.25 14.5 27.6 14.75 29.25 15.75 30.5 16.5 31.15 16.85 31.65 17.15 32.0 17.35 31.2 16.7 30.95 16.45 30.15 15.65 29.9 14.95 29.45 13.35 Q29.2 12.25 29.3 11.1 L29.55 9.25 29.8 8.85 30.0 10.05 Q30.35 11.15 31.05 12.1 L32.2 13.4 32.5 13.65 32.6 13.7 33.0 13.9 35.2 14.85 35.45 14.95 36.55 15.35 36.95 15.5 37.7 15.7 37.85 15.8 39.2 16.8 40.45 18.05 40.5 18.1 40.6 18.25 41.05 19.15 41.7 20.8 42.1 22.85 41.15 21.95 40.1 21.0 39.6 20.65 39.45 20.4 39.25 20.15 38.45 19.1 37.35 17.85 36.85 17.35 36.65 17.15 36.2 16.8 36.75 18.05 36.85 18.25 37.0 18.65 37.5 20.0 37.95 22.05 37.95 22.25 37.85 22.2 37.45 21.9 36.6 21.4 35.2 20.7 33.35 19.9 32.9 19.75 31.8 19.35 32.15 21.55 32.2 21.7 31.35 21.15 30.0 20.4 29.4 20.1 28.55 19.65 28.1 19.4 27.35 18.85 24.95 17.45 24.55 17.25 23.5 16.65 21.95 15.85 21.3 15.5 20.3 15.0 18.55 14.25 18.5 14.25 18.5 14.2 18.45 14.0 18.3 13.3 18.15 12.3 17.95 10.6 17.95 9.05 18.1 7.65 18.75 5.5 19.6 4.0 20.9 2.6 M47.0 43.85 L47.25 43.85 47.5 43.55 47.5 43.5 47.9 43.0 47.45 42.95 46.6 42.95 46.1 43.05 45.1 43.3 45.0 43.4 44.9 43.6 44.85 43.65 44.75 43.75 45.0 43.75 46.2 43.8 46.25 43.8 46.85 43.8 47.0 43.85 M37.5 39.75 L36.65 39.9 35.85 40.2 35.35 40.4 35.05 40.55 34.85 40.7 34.3 40.25 33.65 40.7 32.85 41.15 32.15 41.45 32.05 41.5 30.85 41.9 29.6 42.45 29.2 42.75 29.85 41.6 30.5 40.6 30.8 40.25 31.15 39.85 31.35 39.6 31.6 39.3 32.15 38.8 32.5 38.55 32.6 38.45 32.8 38.3 33.35 37.85 33.45 37.9 34.15 38.4 34.85 38.7 36.25 39.25 37.5 39.75 M13.1 29.15 L14.95 29.15 16.45 29.05 17.0 29.0 Q15.65 29.6 14.35 30.3 L13.45 30.85 13.05 31.05 12.95 31.1 11.6 31.95 10.4 32.7 10.4 32.75 9.45 32.25 9.25 32.2 9.45 32.0 10.3 31.35 10.95 30.85 11.1 30.7 11.75 30.2 12.8 29.4 12.95 29.3 13.05 29.25 13.1 29.15 M29.4 36.35 L29.5 36.35 28.8 37.05 28.4 37.05 27.5 37.1 26.65 37.25 28.0 36.55 28.2 36.45 29.4 36.35 M29.0 37.75 L29.75 37.65 31.25 37.65 32.0 37.75 32.6 37.85 32.85 37.85 32.3 38.4 31.9 38.75 30.8 39.5 30.7 39.55 29.7 39.8 29.25 39.85 28.0 40.1 26.2 40.3 24.6 40.35 23.35 40.3 23.3 40.3 22.1 40.15 23.1 40.15 23.15 40.15 24.75 40.05 24.85 40.05 25.05 40.0 25.65 39.75 25.75 39.75 26.0 39.65 27.15 38.8 27.3 38.7 27.35 38.65 28.45 37.95 28.7 37.8 29.0 37.75" fill="#fffefc" fill-rule="evenodd" stroke="none"/>
      <path d="M46.25 28.5 L46.45 28.95 46.55 29.1 46.95 30.0 47.05 30.2 47.2 30.65 47.55 31.7 47.6 31.9 48.0 33.35 48.05 33.55 48.25 35.05 48.3 35.5 48.4 37.8 47.85 37.4 45.65 35.9 44.75 35.25 43.9 34.7 43.55 34.45 42.0 33.2 41.9 33.1 41.65 32.85 41.45 32.65 41.4 32.6 40.85 32.0 39.5 30.55 39.25 30.3 38.7 29.7 37.95 29.0 37.6 28.7 37.6 28.35 37.55 26.4 37.65 24.25 37.95 22.3 Q38.2 21.15 38.7 20.15 L39.6 20.65 40.1 21.0 41.15 21.95 42.1 22.85 42.3 23.05 42.7 23.5 43.65 24.7 44.0 25.15 44.4 25.65 44.85 26.25 45.45 27.1 46.05 28.15 46.25 28.5 M41.75 24.0 L41.4 23.8 40.65 23.45 40.3 23.35 39.9 23.3 39.8 24.8 39.85 26.1 39.9 26.65 40.0 27.45 40.05 28.0 40.15 28.7 40.15 28.75 40.35 28.55 Q41.05 28.15 41.85 28.25 L43.0 28.5 43.3 28.65 43.55 28.75 44.0 29.1 44.6 29.8 44.65 29.85 45.25 31.05 45.3 31.25 45.4 31.45 45.4 31.65 45.5 32.35 45.5 32.4 45.35 32.9 45.3 33.0 45.15 33.2 Q44.85 33.5 44.55 33.5 L45.4 34.1 45.55 34.2 45.75 34.3 46.9 34.85 47.3 34.95 47.6 35.05 47.6 34.85 47.6 34.5 47.6 34.3 47.4 32.95 47.3 32.0 47.2 31.6 47.15 31.25 47.1 31.15 46.8 30.35 46.55 29.85 46.25 29.25 46.0 28.85 45.95 28.75 45.75 28.5 45.25 27.75 44.6 26.9 44.25 26.0 44.2 25.95 43.85 25.4 43.45 24.85 43.35 24.8 42.85 24.3 42.5 24.05 42.4 24.0 41.85 23.9 41.75 24.0 M42.35 29.55 L41.35 29.3 Q41.0 29.3 40.8 29.5 40.45 29.65 40.45 30.05 L40.45 30.2 40.45 31.0 40.85 31.75 41.0 31.9 41.45 32.3 41.5 32.35 41.8 32.5 41.9 32.55 42.1 32.7 42.35 32.8 42.65 32.9 42.8 32.95 42.9 33.0 43.0 33.0 43.3 33.05 43.85 32.85 43.85 32.8 43.9 32.7 44.05 32.25 Q44.15 31.65 43.85 31.1 L43.8 30.95 42.85 29.8 42.45 29.6 42.35 29.55" fill="#18875f" fill-rule="evenodd" stroke="none"/>
      <path d="M41.75 24.0 L41.85 23.9 42.4 24.0 42.5 24.05 42.85 24.3 43.35 24.8 43.45 24.85 43.85 25.4 44.2 25.95 44.25 26.0 44.6 26.9 44.75 27.55 44.7 28.15 44.55 28.3 44.2 28.35 43.85 28.3 43.6 28.1 43.3 27.85 42.25 26.5 42.05 26.15 42.0 26.05 41.65 25.15 41.55 24.3 41.75 24.0 M45.75 29.8 L45.8 30.05 45.8 30.1 45.9 30.5 45.95 31.0 45.95 31.1 45.85 31.3 45.7 31.0 45.65 30.85 45.55 30.5 45.4 30.15 45.35 30.0 45.25 29.5 Q45.2 29.2 45.5 29.25 L45.5 29.3 45.75 29.8" fill="#f5f4fe" fill-rule="evenodd" stroke="none"/>
      <path d="M45.4 31.45 L45.3 31.25 45.25 31.05 44.65 29.85 44.6 29.8 44.0 29.1 43.55 28.75 43.3 28.65 43.0 28.5 41.85 28.25 Q41.05 28.15 40.35 28.55 L40.15 28.75 40.15 28.7 40.05 28.0 40.0 27.45 39.9 26.65 39.85 26.1 39.8 24.8 39.9 23.3 40.3 23.35 40.65 23.45 41.4 23.8 41.75 24.0 41.55 24.3 41.65 25.15 42.0 26.05 42.05 26.15 42.25 26.5 43.3 27.85 43.6 28.1 43.85 28.3 44.2 28.35 44.55 28.3 44.7 28.15 44.75 27.55 44.6 26.9 45.25 27.75 45.75 28.5 45.95 28.75 46.0 28.85 46.25 29.25 46.55 29.85 46.8 30.35 47.1 31.15 47.15 31.25 47.2 31.6 47.3 32.0 47.4 32.95 47.6 34.3 47.6 34.5 47.6 34.85 47.6 35.05 47.3 34.95 46.9 34.85 45.75 34.3 45.55 34.2 45.4 34.1 44.55 33.5 Q44.85 33.5 45.15 33.2 L45.3 33.0 45.35 32.9 45.45 32.9 45.5 32.4 45.5 32.35 45.4 31.45 M45.75 29.8 L45.5 29.3 45.5 29.25 Q45.2 29.2 45.25 29.5 L45.35 30.0 45.4 30.15 45.55 30.5 45.65 30.85 45.7 31.0 45.85 31.3 45.95 31.1 45.95 31.0 45.9 30.5 45.8 30.1 45.8 30.05 45.75 29.8" fill="#38e8c6" fill-rule="evenodd" stroke="none"/>
      <path d="M42.35 29.55 L42.45 29.6 42.85 29.8 43.8 30.95 43.85 31.1 Q44.15 31.65 44.05 32.25 L43.9 32.7 43.85 32.8 43.85 32.85 43.3 33.05 43.0 33.0 42.9 33.0 42.8 32.95 42.65 32.9 42.35 32.8 42.1 32.7 41.9 32.55 41.8 32.5 41.5 32.35 41.45 32.3 41.0 31.9 40.85 31.75 40.45 31.0 40.45 30.2 40.45 30.05 Q40.45 29.65 40.8 29.5 41.0 29.3 41.35 29.3 L42.35 29.55" fill="#1d6c66" fill-rule="evenodd" stroke="none"/>
      <path d="M13.0 53.55 L12.15 53.55 12.1 53.45 11.65 52.95 10.7 52.25 9.8 51.8 9.6 51.7 9.5 51.65 9.1 51.6 9.15 50.4 9.15 49.85 8.65 48.9 8.2 48.3 Q8.5 49.2 8.4 50.2 L8.3 51.05 8.15 51.4 8.05 51.35 7.35 51.25 6.2 51.15 5.45 51.2 4.95 51.35 4.75 51.5 5.0 51.8 5.25 52.05 5.95 52.6 6.9 53.2 7.2 53.35 7.15 53.55 -0.45 53.55 -0.45 53.0 -0.15 52.6 0.5 51.55 0.9 50.75 1.05 50.45 0.95 50.6 -0.45 52.1 -0.45 48.6 0.35 48.55 1.6 48.45 1.65 48.45 2.15 48.4 2.35 48.35 2.5 48.35 3.6 48.2 3.95 48.1 5.25 47.9 6.25 47.6 6.65 47.5 7.5 47.35 9.5 47.0 11.25 46.7 11.5 46.65 11.7 46.6 12.45 46.45 13.3 46.2 14.25 46.35 15.4 46.55 15.25 46.6 13.95 47.4 12.95 48.05 12.7 48.2 12.4 48.45 12.35 48.5 Q12.2 49.05 12.2 49.65 L12.35 50.8 12.55 52.3 12.55 52.4 12.65 52.65 13.0 53.55 M7.85 26.65 L7.75 26.55 6.7 25.1 6.6 24.95 8.25 25.65 9.8 26.05 11.35 26.25 12.75 26.25 13.3 26.25 13.35 26.4 13.35 26.45 12.65 26.75 11.4 27.35 10.6 27.85 10.35 28.0 9.95 28.3 9.25 27.9 8.55 27.45 7.85 26.65 M40.95 32.55 L41.2 32.65 41.65 32.85 41.9 33.1 42.0 33.2 43.55 34.45 43.9 34.7 44.75 35.25 45.65 35.9 47.85 37.4 48.4 37.8 48.3 35.5 48.55 35.95 49.0 36.8 49.15 37.1 49.15 37.15 49.2 38.1 49.2 38.25 48.95 38.7 48.9 38.7 48.0 38.6 46.85 38.45 46.7 38.2 46.65 38.1 46.1 37.55 45.7 37.15 45.65 37.1 45.05 36.55 45.0 36.5 44.65 36.2 44.15 35.8 43.8 35.6 43.4 35.35 43.0 35.1 42.6 34.85 42.15 34.6 41.75 34.35 40.75 33.85 39.3 33.2 38.1 32.8 36.7 32.4 36.45 32.35 35.85 32.25 34.75 32.15 34.9 33.8 35.05 34.9 35.4 36.35 35.9 37.8 36.4 38.75 36.05 38.45 35.25 37.5 35.05 37.2 34.55 36.4 33.45 35.85 32.25 35.4 30.7 34.95 29.5 34.7 29.2 34.85 28.45 35.3 27.6 35.65 27.5 35.7 25.8 36.3 24.9 36.55 24.7 36.65 23.2 36.95 21.6 37.15 20.25 37.3 18.95 37.35 20.05 37.55 21.35 37.7 22.9 37.75 24.45 37.8 25.75 37.85 26.4 37.95 26.85 38.05 26.9 38.05 27.1 38.1 27.15 38.1 27.15 38.15 27.0 38.15 26.75 38.2 25.45 38.45 24.6 38.6 24.5 38.6 23.85 38.7 22.9 38.8 22.0 38.95 21.95 39.0 21.1 39.2 19.5 39.7 18.3 40.1 17.6 40.35 18.5 40.6 19.0 40.7 19.05 40.7 19.6 40.8 21.05 41.05 22.6 41.2 23.45 41.25 24.0 41.25 25.6 41.15 25.75 41.15 26.0 41.1 27.45 40.95 27.75 40.95 28.8 40.8 29.45 40.65 30.15 40.45 30.25 40.4 30.55 40.3 30.5 40.35 30.4 40.55 30.35 40.65 29.65 41.55 28.6 42.85 27.95 43.65 29.15 43.55 30.15 43.35 30.85 43.15 31.05 43.1 31.6 42.9 32.5 42.5 33.35 42.05 33.75 41.8 33.8 41.75 34.3 41.4 34.15 41.6 34.0 41.95 33.85 42.2 33.6 42.85 Q32.7 43.85 31.45 44.35 L30.2 44.75 28.85 44.95 27.75 45.05 28.85 44.95 30.2 44.75 31.25 44.7 31.8 44.65 32.35 44.6 32.45 44.6 32.55 44.6 32.85 44.55 33.85 44.95 35.1 45.95 35.15 46.0 35.45 46.5 35.75 47.25 35.9 47.75 35.3 47.7 35.25 47.7 32.7 47.45 30.05 46.8 29.05 46.45 28.4 45.8 28.05 45.45 27.75 45.05 26.45 45.1 25.8 45.1 25.55 45.1 25.6 45.05 27.0 43.25 28.1 42.1 29.05 41.25 27.05 41.85 24.65 42.2 21.75 42.35 20.35 42.4 18.85 42.35 16.3 42.2 14.05 42.0 13.55 41.95 Q14.2 41.1 15.2 40.65 16.35 40.0 17.6 39.5 L19.65 38.8 20.9 38.45 21.3 38.3 20.6 38.3 19.15 38.3 16.55 38.2 14.4 38.05 14.2 38.0 12.7 37.6 13.45 36.9 14.15 36.15 14.85 35.4 15.45 34.8 15.5 34.7 16.55 33.6 16.65 33.55 18.05 33.2 19.5 32.95 20.15 32.85 20.85 32.7 22.2 32.5 23.15 32.4 24.25 32.5 24.95 32.55 27.0 32.8 28.8 33.05 30.15 33.3 29.35 32.6 28.6 31.9 27.7 30.85 27.25 30.25 28.35 30.3 30.7 30.4 32.05 30.55 34.9 30.85 37.6 31.3 38.75 31.6 38.8 31.6 38.8 31.65 39.3 31.75 40.35 32.25 40.95 32.55 M43.75 39.0 L43.7 39.0 43.95 38.8 43.75 39.0 M41.05 37.05 L41.05 37.1 41.05 37.2 41.0 37.3 41.0 37.55 40.95 37.2 40.95 37.1 41.05 37.05 M43.2 39.0 L43.4 38.95 43.25 39.0 43.2 39.0 M47.0 43.85 L46.85 43.8 46.25 43.8 46.2 43.8 45.0 43.75 45.05 43.55 45.1 43.55 46.15 43.45 46.6 43.45 47.2 43.5 47.0 43.85 M42.15 39.85 L40.7 40.05 40.05 40.1 39.3 40.05 39.25 40.0 39.15 40.0 39.05 40.0 38.75 39.95 38.8 39.9 39.2 39.7 39.35 39.7 39.7 39.7 40.0 39.75 40.2 39.75 40.4 39.75 40.8 39.8 40.9 39.8 41.75 39.85 42.1 39.85 42.15 39.85 M15.1 25.3 L15.35 25.55 16.85 26.85 17.3 27.25 17.6 27.5 17.5 27.65 17.4 27.95 16.35 26.85 15.1 25.55 15.1 25.3 M38.8 31.65 L38.75 31.6 38.8 31.65 M19.1 29.7 L19.35 29.65 20.75 31.15 20.9 31.25 19.5 31.65 17.95 32.15 18.05 32.0 18.15 31.65 18.95 31.45 20.6 31.1 20.4 30.95 19.1 29.7 M12.35 36.2 L12.2 36.4 11.8 36.9 11.65 37.15 11.6 37.3 11.1 37.05 9.8 36.5 9.1 36.1 10.3 35.65 11.85 35.1 12.85 34.75 13.65 34.5 13.4 34.8 12.8 35.6 12.35 36.2 M12.3 33.25 L13.5 32.8 15.25 32.35 14.95 32.7 14.9 32.85 12.8 33.15 12.3 33.25 M36.8 39.05 L37.1 39.15 38.6 39.55 39.1 39.65 38.1 39.7 38.05 39.7 37.7 39.55 37.2 39.3 36.8 39.05 M13.65 49.35 L13.8 49.45 13.8 49.5 13.65 49.35" fill="#8bb4e0" fill-rule="evenodd" stroke="none"/>
      <path d="M41.05 34.55 L41.55 34.8 41.7 34.85 42.8 35.4 42.9 35.45 43.7 35.9 43.75 35.95 44.3 36.35 44.65 36.65 44.7 36.65 44.65 37.0 44.65 37.05 44.6 37.4 44.55 37.6 44.45 38.0 44.4 38.05 44.4 38.15 44.05 38.7 43.95 38.8 43.7 39.0 43.75 39.0 43.15 39.25 42.3 39.3 41.9 39.2 41.25 38.95 41.15 38.9 40.95 38.75 40.45 37.65 40.45 37.6 40.35 37.1 40.35 36.9 40.45 35.8 40.75 34.9 41.05 34.55 M41.05 37.05 L40.95 37.1 40.95 37.2 41.0 37.55 41.15 38.0 41.35 38.4 41.75 38.8 42.15 39.05 42.4 39.1 42.7 39.1 43.15 39.0 43.2 39.0 43.25 39.0 43.4 38.95 43.4 38.9 43.5 38.85 43.8 38.55 43.95 38.35 44.1 38.1 44.15 37.95 44.15 37.85 44.05 37.8 43.85 37.7 43.6 37.6 43.5 37.55 43.4 37.65 43.3 37.7 43.0 37.8 42.9 37.85 42.65 37.8 42.35 37.7 42.0 37.35 41.9 37.15 41.85 37.05 41.45 37.0 41.05 37.05 M43.0 37.05 L43.05 37.15 43.15 37.25 43.3 37.35 43.35 37.4 43.55 37.45 43.7 37.45 43.95 37.35 44.05 37.3 44.15 37.2 44.15 37.1 44.25 36.95 44.25 36.85 44.25 36.7 44.2 36.65 44.15 36.5 44.15 36.45 44.05 36.35 44.0 36.3 43.9 36.2 43.8 36.15 43.65 36.1 43.6 36.05 43.5 36.05 43.35 36.1 43.3 36.1 43.15 36.15 43.05 36.2 43.05 36.3 42.9 36.55 42.9 36.7 42.95 36.85 43.0 36.95 43.0 37.05" fill="#0c539c" fill-rule="evenodd" stroke="none"/>
      <path d="M44.7 36.65 L44.85 36.8 44.9 36.85 45.55 37.45 45.65 37.5 46.0 37.85 46.15 38.05 46.55 38.45 46.55 38.5 46.7 38.8 46.65 38.8 46.35 38.95 46.3 38.95 45.9 39.05 45.35 39.2 45.3 39.2 45.2 39.2 45.15 39.2 44.7 39.25 43.9 39.35 43.75 39.35 43.6 39.35 42.25 39.4 42.2 39.4 41.55 39.4 41.0 39.3 40.55 39.25 39.85 39.2 38.9 39.0 38.3 38.85 38.05 38.4 37.55 37.25 37.4 36.85 37.2 36.25 36.9 35.0 36.8 34.5 36.6 33.3 36.8 33.3 37.6 33.4 38.8 33.7 40.25 34.2 41.05 34.55 40.75 34.9 40.7 34.85 40.15 34.65 39.6 34.5 39.1 34.35 38.6 34.2 38.15 34.1 37.8 34.05 37.55 34.0 37.3 34.0 37.5 35.1 37.7 36.0 38.0 36.85 38.05 37.0 38.6 38.35 38.75 38.6 39.2 38.7 39.55 38.8 39.85 38.85 40.0 38.85 40.3 38.9 40.75 38.95 41.15 38.95 41.25 38.95 41.9 39.2 42.3 39.3 43.15 39.25 43.75 39.0 43.9 39.0 44.0 39.0 44.15 38.95 44.7 38.95 44.9 38.9 45.15 38.85 45.4 38.8 45.55 38.8 45.6 38.8 45.85 38.65 45.95 38.65 46.0 38.65 45.8 38.25 45.75 38.25 45.6 38.0 45.45 37.8 45.4 37.75 45.05 37.4 44.75 37.15 44.75 37.1 44.65 37.05 44.65 37.0 44.7 36.65" fill="#e8a089" fill-rule="evenodd" stroke="none"/>
      <path d="M41.0 37.55 L41.0 37.3 41.05 37.2 41.05 37.1 41.05 37.05 41.45 37.0 41.85 37.05 41.9 37.15 42.0 37.35 42.35 37.7 42.65 37.8 42.9 37.85 43.0 37.8 43.3 37.7 43.4 37.65 43.5 37.55 43.6 37.6 43.85 37.7 44.05 37.8 44.15 37.85 44.15 37.95 44.1 38.1 43.95 38.35 43.8 38.55 43.5 38.85 43.4 38.9 43.4 38.95 43.2 39.0 43.15 39.0 42.7 39.1 42.4 39.1 42.15 39.05 41.75 38.8 41.35 38.4 41.15 38.0 41.0 37.55" fill="#51f2f9" fill-rule="evenodd" stroke="none"/>
      <path d="M43.0 37.05 L43.0 36.95 42.95 36.85 42.9 36.7 42.9 36.55 43.05 36.3 43.05 36.2 43.15 36.15 43.3 36.1 43.35 36.1 43.5 36.05 43.6 36.05 43.65 36.1 43.8 36.15 43.9 36.2 44.0 36.3 44.05 36.35 44.15 36.45 44.15 36.5 44.2 36.65 44.25 36.7 44.25 36.85 44.25 36.95 44.15 37.1 44.15 37.2 44.05 37.3 43.95 37.35 43.7 37.45 43.55 37.45 43.35 37.4 43.3 37.35 43.15 37.25 43.05 37.15 43.0 37.05" fill="#fbffff" fill-rule="evenodd" stroke="none"/>
      <path d="M40.35 37.1 L40.45 37.6 40.45 37.65 40.95 38.75 41.15 38.9 41.25 38.95 41.15 38.95 40.75 38.95 40.3 38.9 40.0 38.85 39.85 38.85 39.55 38.8 39.2 38.7 38.75 38.6 38.6 38.35 38.05 37.0 38.2 37.0 39.3 37.0 40.35 37.1 M43.95 38.8 L44.05 38.7 44.4 38.15 44.4 38.05 45.15 38.35 45.65 38.55 45.85 38.65 45.6 38.8 45.55 38.8 45.4 38.8 45.15 38.85 44.9 38.9 44.7 38.95 44.15 38.95 44.0 39.0 43.9 39.0 43.75 39.0 43.95 38.8" fill="#f4f3f2" fill-rule="evenodd" stroke="none"/>
      <path d="M41.75 45.25 L39.95 45.4 38.85 45.55 38.5 45.6 38.0 46.0 36.9 47.05 36.3 47.8 36.05 47.75 35.9 47.75 35.75 47.25 35.45 46.5 35.15 46.0 35.1 45.95 33.85 44.95 32.85 44.55 32.55 44.6 32.45 44.6 32.35 44.6 31.8 44.65 31.25 44.7 30.2 44.75 31.45 44.35 Q32.7 43.85 33.6 42.85 L33.65 42.8 34.75 43.55 35.7 44.1 37.15 44.5 37.3 44.5 38.6 44.8 39.05 44.9 39.15 44.95 40.65 45.15 41.0 45.2 41.75 45.25 M35.0 40.85 L35.35 41.05 35.5 41.25 35.35 41.1 35.0 40.85 M19.35 28.95 L19.65 29.15 24.25 32.5 23.15 32.4 22.85 32.35 22.05 32.35 19.8 32.45 19.65 32.45 17.5 32.6 17.55 32.5 17.95 32.15 19.5 31.65 20.9 31.25 20.75 31.15 19.35 29.65 19.45 29.6 19.7 29.55 19.8 29.5 19.45 29.2 19.4 29.1 19.4 29.05 19.35 28.95 M31.05 43.1 L31.15 43.05 31.6 42.9 31.05 43.1 M20.35 42.4 L21.75 42.35 24.65 42.2 27.05 41.85 29.05 41.25 28.1 42.1 27.0 43.25 25.6 45.05 24.95 44.7 22.4 43.4 20.35 42.4 M25.8 45.1 L26.45 45.1 27.75 45.05 28.05 45.45 28.4 45.8 29.05 46.45 27.65 45.9 27.15 45.7 25.8 45.1 M23.45 41.25 L25.1 41.15 25.6 41.15 24.0 41.25 23.45 41.25" fill="#606fcc" fill-rule="evenodd" stroke="none"/>
      <path d="M40.45 46.2 L41.5 46.6 41.9 46.8 42.85 47.6 43.05 48.15 42.9 48.7 42.55 49.2 42.5 49.25 41.55 49.95 44.15 51.0 45.2 51.5 45.2 51.6 45.15 51.9 45.1 51.95 45.0 52.1 44.95 52.1 44.9 52.2 44.55 52.4 44.2 52.55 43.95 52.6 43.2 52.8 42.3 53.0 41.7 53.1 40.8 53.2 40.2 53.25 39.55 53.3 38.85 53.3 38.15 53.3 37.6 53.3 37.55 53.3 37.35 53.25 36.7 53.25 36.55 53.25 36.0 53.2 35.5 53.2 34.85 53.2 34.8 53.2 34.1 53.15 33.95 53.15 33.9 53.15 33.05 53.05 32.1 52.9 31.6 52.85 31.1 52.75 30.15 52.5 29.2 52.25 28.95 52.2 28.6 52.1 28.4 52.0 28.2 51.95 28.55 52.1 28.75 52.2 29.1 52.35 29.2 52.35 29.2 52.4 29.4 52.5 29.45 52.55 29.6 52.6 29.6 52.65 29.65 52.65 29.8 52.75 29.8 52.8 30.15 53.05 30.2 53.1 30.25 53.1 30.3 53.15 30.45 53.25 30.45 53.35 30.5 53.35 30.55 53.45 30.6 53.5 30.6 53.55 19.2 53.55 18.45 53.25 16.75 52.55 16.5 52.4 16.9 52.5 17.65 52.65 18.5 52.85 19.35 52.95 20.25 53.1 21.2 53.2 22.15 53.25 22.9 53.3 23.1 53.3 23.55 53.3 24.0 53.3 24.25 53.3 24.4 53.3 24.7 53.3 25.2 53.35 26.35 53.35 27.15 53.35 27.35 53.3 27.8 53.25 27.85 53.2 27.9 53.2 28.15 53.1 28.2 53.1 28.3 53.05 28.35 53.0 28.35 52.95 28.45 52.9 28.5 52.7 28.45 52.6 28.45 52.55 28.35 52.35 28.3 52.35 28.25 52.25 27.95 51.95 27.9 51.95 27.65 51.85 26.9 51.45 26.1 51.05 26.55 51.15 27.2 51.3 27.85 51.4 28.1 51.45 28.5 51.5 28.8 51.55 28.9 51.55 29.2 51.55 29.25 51.55 30.1 51.65 31.1 51.75 31.9 51.8 32.15 51.8 32.3 51.8 33.25 51.8 34.2 51.8 34.45 51.75 35.0 51.65 36.05 51.45 36.9 51.2 37.45 50.95 36.45 50.95 35.55 50.9 35.3 50.9 34.7 50.9 34.3 50.85 33.8 50.8 33.05 50.7 32.6 50.6 31.9 50.5 31.1 50.3 30.25 50.1 29.45 49.85 28.65 49.55 27.2 48.95 26.6 48.65 26.25 48.45 25.9 48.2 25.3 47.85 24.75 47.4 24.4 47.15 24.2 47.0 23.35 46.2 23.9 46.5 24.8 46.95 24.85 46.95 25.9 47.4 27.0 47.9 28.2 48.4 28.55 48.5 29.6 48.7 30.65 48.9 31.65 49.05 32.65 49.2 33.5 49.3 34.05 49.35 34.3 49.4 35.0 49.45 35.2 49.5 36.15 49.5 36.65 49.55 36.9 49.55 37.5 49.55 37.55 49.55 37.75 49.5 37.95 49.5 38.3 49.45 39.4 49.3 39.85 49.25 39.95 49.2 40.25 48.95 40.55 48.6 40.7 48.35 40.7 48.25 40.75 47.55 40.7 47.3 40.65 46.95 40.45 46.45 40.4 46.35 40.45 46.2 M11.65 53.55 L8.95 53.55 8.65 53.4 8.5 53.3 7.95 53.0 7.5 52.65 7.4 52.55 7.3 52.5 7.2 52.2 7.3 52.15 7.75 52.15 8.4 52.2 8.65 52.2 8.8 52.25 8.95 52.25 9.0 52.25 9.2 52.3 9.5 52.35 10.1 52.55 10.2 52.6 10.3 52.65 10.45 52.7 11.0 53.0 11.25 53.2 11.35 53.25 11.45 53.4 11.6 53.5 11.65 53.55 M-0.45 38.6 L-0.45 35.95 -0.3 35.95 0.55 36.15 1.4 36.4 2.15 36.6 2.85 36.75 3.9 37.0 4.25 37.1 4.5 37.35 5.2 38.05 5.5 38.4 6.2 39.25 6.8 40.0 7.2 40.6 7.4 40.85 7.5 40.95 7.65 41.0 8.75 41.35 9.35 41.55 10.05 41.7 10.7 41.9 11.35 42.05 11.95 42.2 12.65 42.4 13.25 42.55 13.45 42.6 14.35 42.8 14.85 42.95 15.1 43.0 15.3 43.05 15.55 43.2 15.7 43.25 15.6 43.25 15.45 43.3 15.15 43.3 14.4 43.3 14.35 43.3 13.25 43.35 12.55 43.35 11.95 43.35 11.85 43.3 11.05 43.3 10.25 43.25 9.5 43.2 8.8 43.1 8.25 43.05 7.85 43.0 8.1 43.1 8.9 43.4 9.9 43.85 10.45 44.1 10.9 44.3 11.75 44.7 12.3 45.1 12.4 45.15 13.0 45.45 12.75 45.45 11.9 45.4 11.65 45.4 10.75 45.4 10.5 45.4 10.4 45.4 9.7 45.25 8.85 45.0 8.8 45.0 7.75 44.7 6.65 44.35 5.65 44.1 5.6 44.1 5.65 44.1 5.6 44.1 5.5 44.05 5.15 43.9 3.9 43.4 1.35 42.3 3.0 42.5 3.5 42.55 4.75 42.6 4.9 42.6 6.0 42.5 6.4 42.15 6.4 41.8 6.05 41.5 5.55 41.1 Q4.4 40.2 3.05 39.65 L2.75 39.55 1.8 39.25 0.65 38.95 0.4 38.85 -0.15 38.7 -0.45 38.6 M-0.45 35.0 L-0.45 28.3 -0.25 28.35 1.55 29.0 1.85 29.1 3.95 29.85 6.05 30.75 6.6 30.95 7.7 31.45 7.4 31.75 6.8 31.55 6.2 31.4 5.95 31.35 5.2 31.15 4.8 31.05 3.75 30.9 3.05 30.8 2.45 30.7 1.3 30.65 1.1 30.7 1.05 30.7 0.35 30.95 -0.1 31.3 -0.3 31.6 -0.3 31.7 -0.1 32.45 0.5 33.35 1.05 33.95 1.7 34.55 2.5 35.15 3.2 35.65 4.55 36.4 5.1 36.65 4.5 36.55 3.45 36.3 2.8 36.15 2.1 35.9 1.25 35.65 0.4 35.35 -0.45 35.0 M-0.45 25.55 L-0.45 24.75 0.15 24.75 0.2 24.75 0.75 24.85 1.9 25.0 3.05 25.2 4.2 25.5 4.75 25.6 5.35 25.8 6.4 26.1 7.05 26.35 7.55 26.85 8.35 27.65 8.7 27.95 8.8 28.05 8.7 28.0 8.0 27.65 6.9 27.2 5.8 26.8 5.2 26.6 4.7 26.45 4.65 26.45 4.6 26.4 4.05 26.3 3.75 26.2 2.65 26.0 1.4 25.8 0.1 25.6 -0.45 25.55 M9.1 32.3 L9.15 32.3 9.1 32.3" fill="#f35f3d" fill-rule="evenodd" stroke="none"/>
      <path d="M36.3 47.8 L37.7 47.65 38.0 47.4 Q38.2 46.8 37.8 46.3 L38.3 45.95 38.45 45.9 39.7 46.0 40.3 46.1 40.35 46.3 40.4 46.35 40.45 46.45 40.65 46.95 40.7 47.3 40.75 47.55 40.7 48.25 40.7 48.35 40.55 48.6 40.25 48.95 39.95 49.2 39.85 49.25 39.4 49.3 38.3 49.45 37.95 49.5 37.75 49.5 37.55 49.55 37.5 49.55 36.9 49.55 36.65 49.55 36.15 49.5 35.2 49.5 35.0 49.45 34.3 49.4 34.05 49.35 33.5 49.3 32.65 49.2 31.65 49.05 30.65 48.9 29.6 48.7 28.55 48.5 28.2 48.4 27.0 47.9 25.9 47.4 24.85 46.95 24.8 46.95 23.9 46.5 23.35 46.2 24.2 47.0 24.4 47.15 24.75 47.4 25.3 47.85 25.9 48.2 26.25 48.45 26.6 48.65 27.2 48.95 28.65 49.55 29.45 49.85 30.25 50.1 31.1 50.3 31.9 50.5 32.6 50.6 33.05 50.7 33.8 50.8 34.3 50.85 34.7 50.9 35.3 50.9 35.55 50.9 36.45 50.95 37.45 50.95 36.9 51.2 36.05 51.45 35.0 51.65 34.45 51.75 34.2 51.8 33.25 51.8 32.3 51.8 32.15 51.8 31.9 51.8 31.1 51.75 30.1 51.65 29.25 51.55 29.2 51.55 28.9 51.55 28.8 51.55 28.5 51.5 28.1 51.45 27.85 51.4 27.2 51.3 26.55 51.15 26.1 51.05 26.9 51.45 27.65 51.85 27.9 51.95 27.95 51.95 28.25 52.25 28.3 52.35 28.35 52.35 28.45 52.55 28.45 52.6 28.5 52.7 28.45 52.9 28.35 52.95 28.35 53.0 28.3 53.05 28.2 53.1 28.15 53.1 27.9 53.2 27.85 53.2 27.8 53.25 27.35 53.3 27.15 53.35 26.35 53.35 25.2 53.35 24.7 53.3 24.4 53.3 24.25 53.3 23.55 53.3 23.1 53.3 22.9 53.3 22.15 53.25 21.2 53.2 20.25 53.1 19.35 52.95 18.5 52.85 17.65 52.65 16.9 52.5 16.5 52.4 15.3 51.85 15.05 51.7 14.45 51.35 15.05 51.55 15.85 51.7 17.65 52.0 18.1 52.05 18.6 52.1 19.75 52.2 21.5 52.2 22.25 52.2 22.65 52.2 22.85 52.2 23.2 52.05 23.45 51.95 23.65 51.8 23.8 51.7 23.95 51.65 24.15 51.55 24.2 51.5 24.6 51.15 24.65 51.15 24.75 51.05 24.65 50.8 24.75 51.05 24.65 51.15 24.65 51.1 24.65 50.95 24.65 50.8 24.55 50.65 24.3 50.3 23.55 49.5 23.25 48.85 23.2 48.7 23.05 48.5 23.2 48.7 22.95 48.5 22.9 48.5 22.65 48.25 22.95 48.5 23.05 48.5 22.55 47.5 21.75 46.35 21.0 45.4 20.95 45.4 20.05 45.1 19.85 45.1 18.9 45.25 17.95 45.5 17.0 45.8 16.1 46.2 Q15.75 46.3 15.4 46.55 L14.25 46.35 13.3 46.2 12.15 46.05 11.3 45.95 10.6 45.85 10.05 45.8 8.55 45.25 7.8 44.95 5.65 44.1 6.65 44.35 7.75 44.7 8.8 45.0 8.85 45.0 9.7 45.25 10.4 45.4 10.5 45.4 10.75 45.4 11.65 45.4 11.9 45.4 12.75 45.45 13.0 45.45 12.4 45.15 12.3 45.1 11.75 44.7 10.9 44.3 10.45 44.1 9.9 43.85 8.9 43.4 8.1 43.1 7.85 43.0 8.25 43.05 8.8 43.1 9.5 43.2 10.25 43.25 11.05 43.3 11.85 43.3 11.95 43.35 12.55 43.35 13.25 43.35 14.35 43.3 14.4 43.3 15.15 43.3 15.45 43.3 15.6 43.25 15.7 43.25 15.55 43.2 15.3 43.05 15.1 43.0 14.85 42.95 14.35 42.8 13.45 42.6 13.25 42.55 12.65 42.4 11.95 42.2 11.35 42.05 10.7 41.9 10.05 41.7 9.35 41.55 8.75 41.35 7.65 41.0 7.5 40.95 7.4 40.85 7.2 40.6 6.8 40.0 6.2 39.25 5.5 38.4 5.2 38.05 4.5 37.35 4.25 37.1 3.9 37.0 2.85 36.75 2.15 36.6 1.4 36.4 0.55 36.15 -0.3 35.95 -0.45 35.95 -0.45 35.0 0.4 35.35 1.25 35.65 2.1 35.9 2.8 36.15 3.45 36.3 4.5 36.55 5.1 36.65 4.55 36.4 3.2 35.65 2.5 35.15 1.7 34.55 1.05 33.95 0.5 33.35 -0.1 32.45 -0.3 31.7 -0.3 31.6 -0.1 31.3 0.35 30.95 1.05 30.7 1.1 30.7 1.3 30.65 2.45 30.7 3.05 30.8 3.75 30.9 4.8 31.05 5.2 31.15 5.95 31.35 6.2 31.4 6.8 31.55 7.4 31.75 6.9 32.2 6.1 32.95 5.25 33.8 4.7 34.6 4.4 35.1 4.35 35.3 4.1 35.4 4.3 35.5 4.25 35.55 4.25 35.95 4.35 35.95 4.45 35.95 4.5 35.9 4.75 35.7 5.2 35.9 7.05 36.55 9.25 37.15 11.2 37.6 11.5 37.65 11.1 38.75 11.05 38.95 11.2 38.95 11.35 38.9 11.95 38.3 12.5 37.8 13.55 37.95 14.4 38.05 16.55 38.2 19.15 38.3 20.6 38.3 20.9 38.45 19.65 38.8 17.6 39.5 Q16.35 40.0 15.2 40.65 14.2 41.1 13.55 41.95 L14.05 42.0 16.3 42.2 18.85 42.35 20.35 42.4 22.4 43.4 24.95 44.7 25.6 45.05 25.55 45.1 25.8 45.1 27.15 45.7 27.65 45.9 29.05 46.45 30.05 46.8 32.7 47.45 35.25 47.7 35.3 47.7 35.9 47.75 36.05 47.75 36.3 47.8 M45.2 51.5 L45.25 51.55 Q46.05 51.95 46.35 52.75 L46.4 52.95 46.3 53.55 30.6 53.55 30.6 53.5 30.55 53.45 30.5 53.35 30.45 53.35 30.45 53.25 30.3 53.15 30.25 53.1 30.2 53.1 30.15 53.05 29.8 52.8 29.8 52.75 29.65 52.65 29.6 52.65 29.6 52.6 29.45 52.55 29.4 52.5 29.2 52.4 29.2 52.35 29.1 52.35 28.75 52.2 28.55 52.1 28.2 51.95 28.4 52.0 28.6 52.1 28.95 52.2 29.2 52.25 30.15 52.5 31.1 52.75 31.6 52.85 32.1 52.9 33.05 53.05 33.9 53.15 33.95 53.15 34.1 53.15 34.8 53.2 34.85 53.2 35.5 53.2 36.55 53.25 36.7 53.25 37.55 53.3 37.6 53.3 38.15 53.3 38.85 53.3 39.55 53.3 40.2 53.25 40.8 53.2 41.7 53.1 42.3 53.0 43.2 52.8 43.95 52.6 44.2 52.55 44.55 52.4 44.9 52.2 44.95 52.1 45.0 52.1 45.1 51.95 45.15 51.9 45.2 51.6 45.2 51.5 M12.15 53.55 L11.65 53.55 11.6 53.5 11.45 53.4 11.35 53.25 11.25 53.2 11.0 53.0 10.45 52.7 10.3 52.65 10.2 52.6 10.1 52.55 9.5 52.35 9.2 52.3 9.0 52.25 8.95 52.25 8.8 52.25 8.65 52.2 8.4 52.2 7.75 52.15 7.3 52.15 7.2 52.2 7.3 52.5 7.4 52.55 7.5 52.65 7.95 53.0 8.5 53.3 8.65 53.4 8.95 53.55 7.65 53.55 7.45 53.45 7.2 53.35 6.9 53.2 5.95 52.6 5.25 52.05 5.0 51.8 4.75 51.5 4.95 51.35 5.45 51.2 6.2 51.15 7.35 51.25 8.05 51.35 8.15 51.4 8.35 51.4 9.1 51.6 9.5 51.65 9.6 51.7 9.8 51.8 10.7 52.25 11.65 52.95 12.1 53.45 12.15 53.55 M9.0 29.05 L8.95 29.0 8.65 28.85 8.2 28.6 8.1 28.55 7.5 28.25 6.3 27.7 5.6 27.4 4.85 27.1 4.05 26.8 3.65 26.7 3.6 26.65 2.4 26.35 1.05 26.1 -0.25 25.85 -0.45 25.85 -0.45 25.55 0.1 25.6 1.4 25.8 2.65 26.0 3.75 26.2 4.05 26.3 4.6 26.4 4.65 26.45 4.7 26.45 5.2 26.6 5.8 26.8 6.9 27.2 8.0 27.65 8.7 28.0 8.8 28.05 8.7 27.95 8.35 27.65 7.55 26.85 7.05 26.35 7.35 26.45 7.85 26.65 8.55 27.45 9.25 27.9 9.95 28.3 10.2 28.4 9.85 28.55 9.6 28.65 9.2 28.9 9.0 29.05 M10.4 32.75 L10.65 32.85 11.6 33.35 10.85 33.5 9.1 33.8 6.4 34.5 6.35 34.55 6.55 34.35 7.0 34.0 7.55 33.55 8.55 32.75 9.1 32.3 9.15 32.3 9.25 32.2 9.45 32.25 10.4 32.75" fill="#7c1d3e" fill-rule="evenodd" stroke="none"/>
      <path d="M19.2 53.55 L15.0 53.55 15.05 51.7 15.3 51.85 16.5 52.4 16.75 52.55 18.45 53.25 19.2 53.55 M14.5 53.55 L13.0 53.55 12.65 52.65 12.55 52.4 12.55 52.3 12.35 50.8 12.2 49.65 Q12.2 49.05 12.35 48.5 L12.4 48.45 12.7 48.2 13.25 48.85 13.5 49.15 13.65 49.35 13.8 49.5 13.95 50.6 14.2 51.8 14.4 53.25 14.5 53.55 M13.55 23.85 L15.0 22.35 15.45 22.4 15.15 24.75 15.1 25.3 15.1 25.55 15.1 25.7 15.25 25.8 15.35 25.85 15.45 25.95 15.1 26.15 14.8 26.2 14.1 26.35 13.35 26.45 13.35 26.4 13.9 26.2 13.95 26.2 14.2 26.1 14.65 25.7 13.6 24.4 13.5 24.35 13.45 24.35 13.4 24.4 13.25 24.6 13.05 24.8 13.1 24.4 13.35 24.05 13.55 23.85 M17.6 27.5 L17.75 27.3 17.9 27.1 17.95 27.0 18.3 26.55 18.45 26.35 18.65 26.1 18.75 26.05 18.85 26.0 19.05 26.0 19.5 25.9 19.45 26.1 19.45 26.35 19.4 26.7 19.35 27.1 19.35 27.5 19.35 27.7 19.35 27.9 19.35 28.3 19.35 28.7 19.35 28.8 19.35 28.95 19.4 29.05 19.4 29.1 19.45 29.2 19.8 29.5 19.7 29.55 19.45 29.6 19.35 29.65 19.1 29.7 19.05 29.7 18.65 29.75 18.35 29.8 18.85 29.45 18.95 29.4 18.85 29.1 18.85 29.05 18.8 28.95 17.95 27.95 17.9 27.8 17.8 27.75 17.75 27.75 17.45 28.0 17.35 28.05 17.35 27.95 17.4 27.95 17.5 27.65 17.6 27.5 M15.95 31.35 L16.45 30.8 17.25 30.6 18.45 30.45 18.45 30.55 18.2 31.4 18.15 31.65 18.05 32.0 17.95 32.15 17.55 32.5 17.5 32.6 16.7 33.4 16.55 33.6 15.5 34.7 15.45 34.8 14.85 35.4 14.15 36.15 13.45 36.9 12.7 37.6 12.5 37.8 11.95 38.3 11.35 38.9 11.2 38.95 11.05 38.95 11.1 38.75 11.5 37.65 11.6 37.3 11.65 37.15 11.8 36.9 12.2 36.4 12.35 36.2 12.2 36.6 12.1 36.85 12.1 36.9 12.5 36.8 12.65 36.65 13.7 35.4 14.6 34.45 14.75 34.25 15.0 34.0 15.5 33.4 16.15 32.75 16.6 32.2 16.8 31.95 16.95 31.75 16.95 31.7 17.0 31.2 17.0 31.15 15.95 31.35 M10.65 28.75 L11.1 28.35 11.3 28.15 11.9 27.65 12.9 27.6 13.65 27.6 13.45 28.3 13.4 28.45 13.1 29.15 13.05 29.25 12.95 29.3 12.95 29.2 12.55 29.15 11.1 29.3 10.6 29.7 10.15 30.1 9.7 30.5 8.55 31.45 8.25 31.75 8.05 31.95 7.45 32.45 7.2 32.7 6.7 33.35 6.35 33.85 6.1 34.25 6.2 34.25 6.85 34.0 7.0 34.0 6.55 34.35 6.35 34.55 5.5 35.1 4.75 35.7 4.5 35.9 4.45 35.95 4.35 35.95 4.25 35.95 4.25 35.55 4.3 35.5 4.35 35.3 4.4 35.1 4.7 34.6 5.25 33.8 6.1 32.95 6.9 32.2 7.4 31.75 7.7 31.45 8.55 30.7 9.3 29.95 9.65 29.65 10.0 29.35 10.65 28.75 M22.65 52.2 L22.25 52.2 21.5 52.2 19.75 52.2 18.6 52.1 18.1 52.05 17.65 52.0 15.85 51.7 15.05 51.55 15.15 50.0 15.15 49.95 15.2 49.9 15.55 49.55 16.65 48.65 17.9 47.7 18.05 47.55 18.7 47.05 19.45 46.6 19.5 46.55 20.3 46.1 21.05 46.6 22.25 47.7 22.5 48.05 22.65 48.25 22.9 48.5 22.45 48.65 22.1 48.7 21.0 48.9 18.95 49.3 18.9 49.3 17.25 49.55 15.95 49.75 15.8 49.75 15.75 49.75 15.6 49.85 15.3 49.9 15.25 49.95 15.15 49.95 15.7 50.1 16.95 50.5 18.45 50.95 19.25 51.15 20.45 51.4 20.75 51.45 22.4 51.85 22.55 51.9 22.65 52.2" fill="#d77a31" fill-rule="evenodd" stroke="none"/>
      <path d="M13.05 24.8 L13.25 24.6 13.4 24.4 13.45 24.35 13.5 24.35 13.6 24.4 14.65 25.7 14.2 26.1 13.95 26.2 13.9 26.2 13.35 26.4 13.3 26.25 13.25 26.15 13.1 25.45 13.1 25.4 13.05 24.8 M17.35 28.05 L17.45 28.0 17.75 27.75 17.8 27.75 17.9 27.8 17.95 27.95 18.8 28.95 18.85 29.05 18.85 29.1 18.95 29.4 18.85 29.45 18.35 29.8 17.9 29.8 17.6 29.8 17.45 29.8 17.4 29.55 17.35 29.2 17.35 29.0 17.3 28.55 17.3 28.3 17.35 28.05 M15.95 31.35 L17.0 31.15 17.0 31.2 16.95 31.7 16.95 31.75 16.8 31.95 16.6 32.2 16.15 32.75 15.5 33.4 15.0 34.0 14.75 34.25 14.6 34.45 13.7 35.4 12.65 36.65 12.5 36.8 12.1 36.9 12.1 36.85 12.2 36.6 12.35 36.2 12.8 35.6 13.4 34.8 13.65 34.5 14.15 33.8 14.5 33.35 14.9 32.85 14.95 32.7 15.25 32.35 15.75 31.6 15.95 31.35 M12.95 29.3 L12.8 29.4 11.75 30.2 11.1 30.7 10.95 30.85 10.3 31.35 9.45 32.0 9.25 32.2 9.15 32.3 9.1 32.3 8.55 32.75 7.55 33.55 7.0 34.0 6.85 34.0 6.2 34.25 6.1 34.25 6.35 33.85 6.7 33.35 7.2 32.7 7.45 32.45 8.05 31.95 8.25 31.75 8.55 31.45 9.7 30.5 10.15 30.1 10.6 29.7 11.1 29.3 12.55 29.15 12.95 29.2 12.95 29.3" fill="#faec5d" fill-rule="evenodd" stroke="none"/>
      <path d="M0.65 38.95 L0.7 39.0 1.65 40.3 1.9 40.55 0.55 39.4 -0.15 38.7 0.4 38.85 0.65 38.95" fill="#4ad9f8" fill-rule="evenodd" stroke="none"/>
      <path d="M-0.45 41.75 L-0.45 41.25 0.7 41.0 0.0 40.35 -0.45 40.05 -0.45 38.6 -0.15 38.7 0.55 39.4 1.9 40.55 1.95 40.65 2.65 41.2 3.2 41.65 4.9 42.6 4.75 42.6 3.5 42.55 3.0 42.5 0.75 42.0 -0.45 41.75" fill="#0c85dc" fill-rule="evenodd" stroke="none"/>
      <path d="M-0.45 48.2 L-0.45 41.75 0.75 42.0 3.0 42.5 1.35 42.3 3.9 43.4 5.15 43.9 5.15 44.25 5.2 46.95 5.25 47.35 4.75 47.65 3.75 47.9 3.4 47.95 2.95 48.05 1.75 48.2 0.05 48.2 -0.45 48.2 M-0.45 41.25 L-0.45 40.05 0.0 40.35 0.7 41.0 -0.45 41.25 M2.5 48.35 L2.35 48.35 2.15 48.4 1.65 48.45 2.55 48.3 2.5 48.35" fill="#334ec3" fill-rule="evenodd" stroke="none"/>
      <path d="M15.0 53.55 L14.5 53.55 14.4 53.25 14.2 51.8 13.95 50.6 13.8 49.5 14.1 49.75 14.45 50.05 14.65 50.05 14.75 50.05 15.15 50.0 15.05 51.55 14.45 51.35 15.05 51.7 15.0 53.55 M15.4 46.55 Q15.75 46.3 16.1 46.2 L17.0 45.8 17.95 45.5 18.9 45.25 19.85 45.1 20.05 45.1 20.95 45.4 21.0 45.4 21.75 46.35 22.55 47.5 23.05 48.5 22.95 48.5 22.65 48.25 22.5 48.05 22.25 47.7 21.05 46.6 20.3 46.1 19.5 46.55 19.75 46.35 19.9 46.2 19.45 46.45 Q18.9 46.7 18.4 47.0 L18.2 47.1 17.7 47.4 Q17.35 47.55 16.95 47.8 L15.9 48.4 14.65 49.1 14.5 49.05 14.1 48.75 13.45 48.45 13.25 48.35 13.1 48.4 13.25 48.85 12.7 48.2 12.95 48.05 13.95 47.4 15.25 46.6 15.4 46.55 M23.2 48.7 L23.25 48.85 23.55 49.5 23.8 50.2 24.15 51.35 24.2 51.5 24.15 51.55 23.95 51.65 23.8 51.7 23.65 51.8 23.45 51.95 23.2 52.05 22.85 52.2 22.65 52.2 22.55 51.9 22.4 51.85 20.75 51.45 20.45 51.4 19.25 51.15 18.45 50.95 16.95 50.5 15.7 50.1 15.15 49.95 15.25 49.95 15.3 49.9 15.6 49.85 15.75 49.75 15.8 49.75 15.95 49.75 17.25 49.55 18.9 49.3 18.95 49.3 21.0 48.9 22.1 48.7 22.45 48.65 22.9 48.5 22.95 48.5 23.2 48.7 M23.55 53.3 L24.25 53.3 24.0 53.3 23.55 53.3" fill="#faec5a" fill-rule="evenodd" stroke="none"/>
      <path d="M13.25 48.85 L13.1 48.4 13.25 48.35 13.45 48.45 14.1 48.75 14.5 49.05 14.65 49.1 15.9 48.4 16.95 47.8 Q17.35 47.55 17.7 47.4 L18.2 47.1 18.4 47.0 Q18.9 46.7 19.45 46.45 L19.9 46.2 19.75 46.35 19.5 46.55 19.45 46.6 18.7 47.05 18.05 47.55 17.9 47.7 16.65 48.65 15.55 49.55 15.2 49.9 15.15 49.95 15.15 50.0 14.75 50.05 14.65 50.05 14.45 50.05 14.1 49.75 13.8 49.5 13.8 49.45 13.65 49.35 13.5 49.15 13.25 48.85" fill="#fefef6" fill-rule="evenodd" stroke="none"/>
      <path d="M38.3 2.75 L38.35 2.7 39.4 4.55 40.1 5.8 40.9 7.25 41.8 9.05 42.15 9.75 42.9 11.85 43.1 12.45 43.9 15.0 44.45 16.7 44.65 17.45 45.3 19.9 45.55 21.25 45.85 23.65 45.9 23.85 46.15 26.3 46.35 28.25 46.25 28.5 M9.8 20.0 L9.0 19.1 7.75 17.65 5.6 15.2 5.2 14.75 5.0 14.45 4.05 13.05 2.7 10.85 2.1 9.9 2.0 9.7 2.45 9.7 5.0 10.05 6.9 10.5 9.1 11.1 11.4 11.75 13.75 12.45 14.15 12.6 15.5 13.0 16.9 13.55 18.5 14.2 M36.55 15.35 L36.45 14.15 36.45 13.7 36.6 11.05 36.6 10.9 36.8 9.05 37.1 7.3 37.75 4.7 38.3 2.75 M39.5 30.55 L39.55 30.65 40.4 31.8 40.95 32.55 M33.65 42.8 L34.75 43.55 35.7 44.1 37.15 44.5 M21.3 15.5 L21.95 15.85 23.5 16.65 24.55 17.25 24.95 17.45 27.35 18.85 28.1 19.4 28.35 19.6 29.8 20.7 31.3 21.9 32.7 23.1 33.35 23.65 34.3 24.65 35.45 25.9 36.6 27.25 37.05 27.75 37.6 28.35 M21.3 15.5 L20.3 15.0 18.55 14.25 M12.4 22.8 L13.55 23.85 M15.1 25.3 L15.35 25.55 16.85 26.85 17.3 27.25 17.6 27.5 M19.35 28.95 L19.65 29.15 24.25 32.5 M12.4 22.8 L12.05 22.4 10.45 20.75 9.8 20.0" fill="none" stroke="#224698" stroke-linecap="round" stroke-linejoin="round" stroke-width="1.0"/>
      <path d="M46.95 30.0 L47.25 29.35 48.25 27.55 48.4 28.3 48.4 28.35 48.7 29.25 48.85 29.75 49.2 31.7 49.35 33.55 49.35 34.7 49.35 35.4 49.3 35.65 50.45 34.7 51.0 34.35 51.2 34.2 50.8 36.0 50.45 37.25 50.25 37.65 50.25 37.7 49.9 38.4 50.1 38.7 50.45 39.15 50.6 39.3 52.35 41.0 52.05 41.85 50.45 43.85 50.4 43.85 50.35 43.9 49.15 44.85 47.85 44.85 47.6 44.95 Q47.45 45.05 47.05 45.3 L46.75 45.4 46.6 45.4 45.8 45.4 43.4 45.35 43.1 45.35 42.85 45.35 42.4 45.3 41.8 45.25 41.75 45.25 39.95 45.4 38.85 45.55 38.5 45.6 38.0 46.0 36.9 47.05 36.3 47.8 M6.6 30.95 L7.0 30.55 9.0 29.05 9.2 28.9 9.6 28.65 9.85 28.55 10.2 28.4 9.95 28.3 9.25 27.9 8.55 27.45 7.85 26.65 7.75 26.55 6.7 25.1 6.6 24.95 5.95 23.6 5.5 22.05 5.45 21.95 5.45 20.85 Q5.45 19.55 5.8 18.3 L6.15 17.15 6.4 18.95 6.75 19.45 7.75 19.85 9.35 20.0 9.4 20.0 9.8 20.0 M14.15 12.6 L14.75 10.0 Q15.1 8.85 15.75 7.85 16.45 6.7 17.3 5.65 L19.0 4.0 Q19.5 3.55 20.9 2.55 L20.9 2.6 20.75 3.25 20.4 6.05 Q20.35 7.2 20.7 8.3 L21.05 9.35 21.15 9.5 22.05 10.75 22.8 11.55 24.75 13.05 25.7 13.65 26.75 14.25 26.85 14.3 27.25 14.5 28.05 14.9 28.05 13.5 28.25 12.15 28.6 11.05 29.55 9.25 29.8 8.85 30.0 10.05 Q30.35 11.15 31.05 12.1 L32.2 13.4 32.5 13.65 32.6 13.7 33.0 13.9 35.2 14.85 35.45 14.95 36.55 15.35 36.95 15.5 37.7 15.7 37.85 15.8 39.2 16.8 40.45 18.05 40.5 18.1 40.6 18.2 40.6 18.25 42.0 20.15 43.15 22.15 43.35 22.55 43.65 23.2 44.1 24.15 44.85 26.25 M40.95 32.55 L41.2 32.65 41.45 32.65 M41.2 32.65 L41.65 32.85 M49.15 37.1 L49.0 36.8 48.55 35.95 48.3 35.5 M49.2 37.15 L49.65 37.95 49.7 38.05 49.9 38.4 M50.1 38.7 L50.3 39.05 50.6 39.3 M37.15 44.5 L37.3 44.5 38.6 44.8 39.05 44.9 39.15 44.95 40.65 45.15 41.0 45.2 41.75 45.25 M33.6 42.85 L33.65 42.8 M49.15 37.1 L49.2 37.15 M38.8 31.65 L39.3 31.75 40.35 32.25 40.95 32.55 M24.25 32.5 L24.95 32.55 27.0 32.8 28.8 33.05 30.15 33.3 29.35 32.6 28.6 31.9 27.7 30.85 27.25 30.25 28.35 30.3 30.7 30.4 32.05 30.55 34.9 30.85 37.6 31.3 38.75 31.6 38.8 31.65 M11.6 33.35 L12.3 33.25 12.8 33.15 14.9 32.85 M6.35 34.55 L6.4 34.5 9.1 33.8 10.85 33.5 11.6 33.35 M23.15 32.4 L22.85 32.35 22.05 32.35 19.8 32.45 19.65 32.45 17.5 32.6 M4.3 35.5 L4.1 35.4 4.35 35.3 M11.5 37.65 L11.2 37.6 9.25 37.15 7.05 36.55 5.2 35.9 4.75 35.7 M-0.45 48.2 L0.05 48.2 1.75 48.2 2.95 48.05 3.4 47.95 3.75 47.9 4.75 47.65 5.25 47.35 5.4 47.25 6.7 46.45 8.1 45.5 8.55 45.25 M20.35 42.4 L18.85 42.35 16.3 42.2 14.05 42.0 13.55 41.95 Q14.2 41.1 15.2 40.65 16.35 40.0 17.6 39.5 L19.65 38.8 20.9 38.45 21.3 38.3 20.6 38.3 19.15 38.3 16.55 38.2 14.4 38.05 13.55 37.95 12.5 37.8 M23.15 32.4 L24.25 32.5 M25.6 45.05 L27.0 43.25 28.1 42.1 29.05 41.25 27.05 41.85 24.65 42.2 21.75 42.35 20.35 42.4 M25.6 45.05 L25.55 45.1 25.8 45.1 26.45 45.1 27.75 45.05 28.85 44.95 30.2 44.75 31.45 44.35 Q32.7 43.85 33.6 42.85" fill="none" stroke="#776eb4" stroke-linecap="round" stroke-linejoin="round" stroke-width="1.0"/>
      <path d="M46.25 28.5 L46.45 28.95 46.55 29.1 46.95 30.0 47.05 30.2 47.2 30.65 47.55 31.7 47.6 31.9 48.0 33.35 48.05 33.55 48.25 35.05 48.3 35.5 48.4 37.8 47.85 37.4 45.65 35.9 44.75 35.25 43.9 34.7 43.55 34.45 42.0 33.2 41.9 33.1 41.65 32.85 41.45 32.65 41.4 32.6 40.85 32.0 39.5 30.55 39.25 30.3 38.7 29.7 37.95 29.0 37.6 28.7 37.6 28.35 37.55 26.4 37.65 24.25 37.95 22.3 Q38.2 21.15 38.7 20.15 L39.6 20.65 40.1 21.0 41.15 21.95 42.1 22.85 42.3 23.05 42.7 23.5 43.65 24.7 44.0 25.15 44.4 25.65 44.85 26.25 45.45 27.1 46.05 28.15 46.25 28.5" fill="none" stroke="#15474f" stroke-linecap="round" stroke-linejoin="round" stroke-width="1.0"/>
      <path d="M36.3 47.8 L37.7 47.65 38.0 47.4 Q38.2 46.8 37.8 46.3 L38.3 45.95 38.45 45.9 39.7 46.0 40.3 46.1 40.4 46.15 40.45 46.2 41.5 46.6 41.9 46.8 42.85 47.6 43.05 48.15 42.9 48.7 42.55 49.2 42.5 49.25 41.55 49.95 44.15 51.0 45.2 51.5 45.25 51.55 Q46.05 51.95 46.35 52.75 L46.4 52.95 46.3 53.55 M-0.45 28.3 L-0.25 28.35 1.55 29.0 1.85 29.1 3.95 29.85 6.05 30.75 6.6 30.95 7.7 31.45 M9.0 29.05 L8.95 29.0 8.65 28.85 8.2 28.6 8.1 28.55 7.5 28.25 6.3 27.7 5.6 27.4 4.85 27.1 4.05 26.8 3.65 26.7 3.6 26.65 2.4 26.35 1.05 26.1 -0.25 25.85 -0.45 25.85 M-0.45 24.75 L0.15 24.75 0.2 24.75 0.75 24.85 1.9 25.0 3.05 25.2 4.2 25.5 4.75 25.6 5.35 25.8 6.4 26.1 7.05 26.35 7.35 26.45 7.85 26.65 M10.4 32.75 L10.65 32.85 11.6 33.35 M9.25 32.2 L9.45 32.25 10.4 32.75 M5.65 44.1 L7.8 44.95 8.55 45.25 10.05 45.8 10.6 45.85 11.3 45.95 12.15 46.05 13.3 46.2 14.25 46.35 15.4 46.55 M23.55 49.5 L24.3 50.3 24.55 50.65 24.65 50.8 24.75 51.05 24.65 51.15 24.6 51.15 24.2 51.5 24.15 51.55 23.95 51.65 23.8 51.7 23.65 51.8 23.45 51.95 23.2 52.05 22.85 52.2 22.65 52.2 22.25 52.2 21.5 52.2 19.75 52.2 18.6 52.1 18.1 52.05 17.65 52.0 15.85 51.7 15.05 51.55 14.45 51.35 15.05 51.7 15.3 51.85 16.5 52.4 16.75 52.55 18.45 53.25 19.2 53.55 M4.9 42.6 L6.0 42.5 6.4 42.15 6.4 41.8 6.05 41.5 5.55 41.1 Q4.4 40.2 3.05 39.65 L2.75 39.55 1.8 39.25 0.65 38.95 0.4 38.85 -0.15 38.7 -0.45 38.6 M4.9 42.6 L4.75 42.6 3.5 42.55 3.0 42.5 1.35 42.3 3.9 43.4 5.15 43.9 5.5 44.05 5.6 44.1 5.65 44.1 M9.1 51.6 L9.5 51.65 9.6 51.7 9.8 51.8 10.7 52.25 11.65 52.95 12.1 53.45 12.15 53.55 M20.9 38.45 L20.6 38.3 M20.35 42.4 L22.4 43.4 24.95 44.7 25.6 45.05 M25.8 45.1 L27.15 45.7 27.65 45.9 29.05 46.45 30.05 46.8 32.7 47.45 35.25 47.7 35.3 47.7 35.9 47.75 36.05 47.75 36.3 47.8 M24.65 51.15 L24.65 51.1 24.65 50.95 24.65 50.8 M7.2 53.35 L6.9 53.2 5.95 52.6 5.25 52.05 5.0 51.8 4.75 51.5 4.95 51.35 5.45 51.2 6.2 51.15 7.35 51.25 8.05 51.35 8.15 51.4 8.35 51.4 9.1 51.6 M7.2 53.35 L7.45 53.45 7.65 53.55" fill="none" stroke="#700e3e" stroke-linecap="round" stroke-linejoin="round" stroke-width="1.0"/>
      <path d="M13.55 23.85 L15.0 22.35 15.45 22.4 15.15 24.75 15.1 25.3 15.1 25.55 15.1 25.7 15.25 25.8 15.35 25.85 15.45 25.95 15.1 26.15 14.8 26.2 14.1 26.35 13.35 26.45 13.35 26.4 13.3 26.25 13.25 26.15 13.1 25.45 13.1 25.4 13.05 24.8 13.1 24.4 13.35 24.05 13.55 23.85 M17.6 27.5 L17.75 27.3 17.9 27.1 17.95 27.0 18.3 26.55 18.45 26.35 18.65 26.1 18.75 26.05 18.85 26.0 19.05 26.0 19.5 25.9 19.45 26.1 19.45 26.35 19.4 26.7 19.35 27.1 19.35 27.5 19.35 27.7 19.35 27.9 19.35 28.3 19.35 28.7 19.35 28.8 19.35 28.95 19.4 29.05 19.4 29.1 19.45 29.2 19.8 29.5 19.7 29.55 19.45 29.6 19.35 29.65 19.1 29.7 19.05 29.7 18.65 29.75 18.35 29.8 17.9 29.8 17.6 29.8 17.45 29.8 17.4 29.55 17.35 29.2 17.35 29.0 17.3 28.55 17.3 28.3 17.35 28.05 17.35 27.95 17.4 27.95 17.5 27.65 17.6 27.5 M18.15 31.65 L18.2 31.4 18.45 30.55 18.45 30.45 17.25 30.6 16.45 30.8 15.95 31.35 15.75 31.6 15.25 32.35 14.95 32.7 14.9 32.85 14.5 33.35 14.15 33.8 13.65 34.5 13.4 34.8 12.8 35.6 12.35 36.2 12.2 36.4 11.8 36.9 11.65 37.15 11.6 37.3 11.5 37.65 11.1 38.75 11.05 38.95 11.2 38.95 11.35 38.9 11.95 38.3 12.5 37.8 12.7 37.6 13.45 36.9 14.15 36.15 14.85 35.4 15.45 34.8 15.5 34.7 16.55 33.6 16.7 33.4 17.5 32.6 17.55 32.5 17.95 32.15 18.05 32.0 18.15 31.65 M10.65 28.75 L11.1 28.35 11.3 28.15 11.9 27.65 12.9 27.6 13.65 27.6 13.45 28.3 13.4 28.45 13.1 29.15 13.05 29.25 12.95 29.3 12.8 29.4 11.75 30.2 11.1 30.7 10.95 30.85 10.3 31.35 9.45 32.0 9.25 32.2 9.15 32.3 9.1 32.3 8.55 32.75 7.55 33.55 7.0 34.0 6.55 34.35 6.35 34.55 5.5 35.1 4.75 35.7 4.5 35.9 4.45 35.95 4.35 35.95 4.25 35.95 4.25 35.55 4.3 35.5 4.35 35.3 4.4 35.1 4.7 34.6 5.25 33.8 6.1 32.95 6.9 32.2 7.4 31.75 7.7 31.45 8.55 30.7 9.3 29.95 9.65 29.65 10.0 29.35 10.65 28.75 M15.4 46.55 Q15.75 46.3 16.1 46.2 L17.0 45.8 17.95 45.5 18.9 45.25 19.85 45.1 20.05 45.1 20.95 45.4 21.0 45.4 21.75 46.35 22.55 47.5 23.05 48.5 23.2 48.7 23.25 48.85 23.55 49.5 23.8 50.2 24.15 51.35 24.2 51.5 M13.0 53.55 L12.65 52.65 12.55 52.4 12.55 52.3 12.35 50.8 12.2 49.65 Q12.2 49.05 12.35 48.5 L12.4 48.45 12.7 48.2 12.95 48.05 13.95 47.4 15.25 46.6 15.4 46.55" fill="none" stroke="#b4551a" stroke-linecap="round" stroke-linejoin="round" stroke-width="1.0"/>
      <path d="M0.65 38.95 L0.7 39.0 1.65 40.3 1.9 40.55 1.95 40.65 2.65 41.2 3.2 41.65 4.9 42.6 M5.25 47.35 L5.2 46.95 5.15 44.25 5.15 43.9" fill="none" stroke="#14a4f5" stroke-linecap="round" stroke-linejoin="round" stroke-width="1.0"/>
    </g>
    <g id="shape2" transform="matrix(1.0, 0.0, 0.0, 1.0, 0.0, 0.0)">
      <path d="M50.5 0.0 Q53.95 0.0 53.95 3.3 L53.95 50.15 Q53.95 53.4 50.5 53.4 L3.3 53.4 Q0.0 53.4 0.0 50.15 L0.0 3.3 Q0.0 0.0 3.3 0.0 L50.5 0.0" fill="#000000" fill-opacity="0.003921569" fill-rule="evenodd" stroke="none"/>
    </g>
  </defs>
</svg>
