<?xml version="1.0" encoding="UTF-8" standalone="no"?>
<svg xmlns:ffdec="https://www.free-decompiler.com/flash" xmlns:xlink="http://www.w3.org/1999/xlink" ffdec:objectType="frame" height="57.1px" width="55.95px" xmlns="http://www.w3.org/2000/svg">
  <g transform="matrix(1.0, 0.0, 0.0, 1.0, 2.0, 2.0)">
    <clipPath id="clipPath0" transform="matrix(1.0, 0.0, 0.0, 1.0, 0.0, 0.0)">
      <path d="M50.5 0.0 Q53.95 0.0 53.95 3.3 L53.95 50.15 Q53.95 53.4 50.5 53.4 L3.3 53.4 Q0.0 53.4 0.0 50.15 L0.0 3.3 Q0.0 0.0 3.3 0.0 L50.5 0.0" fill="#000000" fill-rule="evenodd" stroke="none"/>
    </clipPath>
    <g clip-path="url(#clipPath0)">
      <use ffdec:characterId="2" height="57.1" transform="matrix(1.0, 0.0, 0.0, 1.0, -2.0, -2.0)" width="51.9" xlink:href="#shape1"/>
    </g>
    <use ffdec:characterId="3" height="53.4" transform="matrix(1.0, 0.0, 0.0, 1.0, 0.0, 0.0)" width="53.95" xlink:href="#shape2"/>
  </g>
  <defs>
    <g id="shape1" transform="matrix(1.0, 0.0, 0.0, 1.0, 2.0, 2.0)">
      <path d="M6.2 -1.5 L6.4 -1.5 6.5 -0.75 6.65 -0.1 6.9 0.75 7.05 1.4 7.15 1.7 7.2 2.0 7.65 3.3 7.7 3.45 7.8 3.8 8.75 5.9 8.95 6.3 9.85 7.85 9.9 7.9 10.0 8.1 10.2 8.4 10.65 9.1 10.75 9.2 9.15 8.2 9.0 8.05 7.5 7.1 4.75 5.5 3.2 4.6 4.45 4.9 4.65 4.95 5.15 5.1 5.85 5.3 6.4 5.55 6.3 5.15 6.15 4.4 6.1 4.15 6.0 3.2 6.0 2.45 6.0 0.65 6.0 0.2 6.05 -0.5 6.1 -0.85 6.2 -1.5 M17.05 2.8 L17.3 2.9 18.2 3.35 18.75 3.6 20.85 4.85 22.4 6.0 23.5 7.05 23.55 6.85 23.75 5.25 23.95 4.15 24.05 3.75 25.1 0.85 25.1 0.75 25.15 0.8 25.7 1.25 25.7 1.8 25.85 3.65 26.05 5.75 26.4 7.75 27.15 11.6 27.95 14.8 28.15 15.35 28.05 15.25 27.5 15.3 26.55 15.4 25.85 15.5 25.5 15.5 24.55 15.65 23.55 15.8 22.65 16.0 21.85 16.1 20.65 16.45 20.55 16.45 19.95 16.65 19.85 16.4 19.5 15.65 19.25 15.05 18.65 14.65 18.45 14.45 20.3 14.25 20.9 14.25 21.4 14.25 23.45 14.35 24.55 14.5 24.05 13.95 23.35 13.0 22.4 11.5 22.35 11.4 21.35 9.35 20.4 7.2 20.35 7.2 20.1 6.45 19.15 5.45 19.05 5.35 17.7 4.15 17.15 3.7 16.05 2.85 15.35 2.3 16.25 2.55 16.55 2.65 17.05 2.8 M36.85 44.0 Q36.4 43.6 35.8 43.25 L35.2 42.9 34.75 42.65 34.45 42.5 34.3 42.45 33.85 42.4 32.8 42.25 32.15 42.2 32.05 42.2 31.35 42.2 31.15 42.15 30.85 41.4 30.8 41.15 30.7 40.95 30.3 40.0 29.8 38.95 29.65 38.65 29.35 38.1 29.35 38.15 29.35 38.25 29.05 40.35 28.75 41.95 28.7 42.1 28.5 42.8 27.45 45.2 25.95 47.45 24.95 48.7 24.45 49.25 23.95 49.85 22.6 51.0 21.7 51.7 21.3 52.0 21.2 52.15 19.3 53.8 19.05 54.05 18.85 54.6 16.25 54.6 16.15 54.35 15.9 52.65 15.85 51.85 Q15.8 50.85 15.9 49.85 L15.95 49.15 Q16.1 48.0 16.65 47.1 17.15 46.15 16.8 46.4 L14.9 47.95 Q14.3 48.35 13.85 48.7 L14.15 48.4 14.7 47.8 15.3 47.15 15.95 46.35 16.5 45.65 17.05 44.95 17.6 44.25 18.1 43.5 18.7 42.55 18.8 42.35 18.9 42.2 18.95 42.1 19.25 41.3 19.55 40.55 19.65 40.25 19.7 40.4 19.6 40.9 19.5 41.15 19.3 42.2 19.0 43.45 18.7 44.5 18.7 44.6 18.65 44.7 Q18.4 45.4 18.3 46.15 L18.2 46.65 18.15 47.0 18.15 47.05 18.0 48.85 18.0 49.85 17.95 51.4 Q17.95 52.3 18.1 53.1 L18.15 53.4 18.35 52.9 Q18.7 51.8 19.35 50.9 L19.6 50.65 19.8 50.45 20.35 49.9 20.4 49.85 21.6 48.55 21.7 48.5 22.4 47.85 24.55 46.3 26.1 45.35 26.15 45.3 27.2 43.65 28.0 42.05 28.05 41.9 28.3 41.25 28.65 40.1 28.85 39.4 28.8 39.3 28.65 39.1 28.55 38.95 28.3 38.6 27.5 37.4 27.35 37.1 27.4 36.45 27.05 36.7 26.95 36.55 26.85 35.8 26.9 35.75 26.95 35.75 26.85 35.6 26.7 35.1 26.65 34.9 26.85 35.05 26.95 35.1 27.75 35.7 28.75 36.3 28.8 36.3 28.8 36.35 29.55 36.7 30.0 37.5 30.05 37.7 30.3 38.2 30.65 39.05 31.1 39.85 31.85 40.05 32.0 40.1 32.1 40.1 32.05 40.05 32.15 39.9 32.5 39.5 32.6 39.65 32.75 39.9 32.9 40.1 32.95 40.2 33.25 40.7 33.7 41.55 34.4 41.8 34.55 41.85 34.85 42.05 35.6 42.6 36.2 43.25 36.85 44.0 M26.15 54.6 L25.05 54.6 25.6 53.6 26.15 52.8 26.35 52.5 26.8 51.9 26.85 51.9 26.9 51.8 26.95 51.8 27.0 52.45 27.0 52.5 27.15 53.05 27.15 53.7 26.9 53.9 26.15 54.6 M-1.5 51.5 L-1.5 45.6 -1.5 42.3 -0.2 42.35 -0.5 45.65 -0.6 49.35 -0.6 49.85 -0.6 51.1 -1.5 51.5 M-1.5 41.2 L-1.5 40.4 -1.5 40.35 -1.5 35.45 0.9 36.0 1.25 35.55 2.85 33.8 4.2 32.4 2.5 32.75 -0.55 33.3 -1.5 33.45 -1.5 30.65 -1.5 30.4 -1.5 26.8 -1.5 25.25 -0.25 24.65 0.65 24.15 1.8 23.65 2.35 23.45 2.9 23.25 2.6 23.25 1.6 23.05 0.35 22.7 -0.95 22.15 -1.5 21.95 -1.5 21.3 -1.1 21.25 1.35 20.95 4.1 20.9 5.2 20.9 5.8 20.9 6.5 20.9 7.1 21.3 7.85 21.85 9.65 23.65 8.4 23.65 7.75 23.75 6.35 24.05 3.9 24.8 3.15 25.1 2.0 25.7 0.15 26.8 -1.35 26.8 -1.5 26.8 -1.35 26.8 0.15 26.8 2.0 25.7 3.15 25.1 3.9 24.8 6.35 24.05 7.75 23.75 8.4 23.65 9.65 23.65 10.25 24.2 10.5 24.4 11.55 25.8 12.6 27.2 13.3 27.5 13.6 27.6 16.35 28.7 16.95 28.9 18.3 29.35 19.7 29.8 20.45 30.05 22.65 30.7 24.95 31.3 25.5 31.45 25.9 31.75 26.3 32.25 26.6 32.6 26.75 32.75 26.45 32.75 26.2 32.75 23.55 32.65 23.5 32.65 22.05 32.55 20.75 32.8 18.0 33.55 17.4 33.75 16.65 34.0 15.4 34.6 13.35 35.2 11.65 35.7 10.0 36.15 8.25 36.55 6.6 36.85 5.0 37.05 4.95 37.05 6.55 37.55 8.35 38.1 8.25 38.15 7.35 38.5 7.35 38.55 7.2 38.55 7.15 38.6 5.1 39.3 4.8 39.45 2.65 40.05 0.35 40.75 -1.5 41.2 M-1.5 30.4 L-1.35 30.5 -1.05 30.7 -1.5 30.65 -1.05 30.7 -1.35 30.5 -1.5 30.4 M-1.5 40.35 L-1.45 40.35 -1.2 40.35 -1.5 40.4 -1.2 40.35 -1.45 40.35 -1.5 40.35 M-1.5 45.6 L-0.5 45.65 -1.5 45.6 M28.3 22.05 L27.7 22.8 27.05 23.65 26.5 24.5 26.2 25.05 25.05 24.0 25.0 23.95 23.75 22.55 23.4 22.1 23.05 21.65 23.35 21.6 24.95 21.55 25.9 21.6 26.85 21.8 27.8 21.95 28.3 22.05 M40.5 38.7 L40.45 38.85 40.4 38.9 40.3 39.0 40.4 38.75 40.45 38.7 40.5 38.6 40.55 38.1 40.5 38.1 39.75 38.45 39.8 38.7 39.8 39.0 39.8 39.55 39.8 39.6 39.55 38.75 39.45 38.35 39.35 38.05 39.8 37.9 40.4 37.85 40.75 37.85 40.7 38.1 40.5 38.7 M23.9 29.9 L23.55 29.8 23.35 29.75 22.5 29.5 23.2 29.65 23.4 29.7 23.95 29.85 23.9 29.9 M10.65 28.45 L10.55 28.35 9.55 27.1 9.1 26.75 Q8.7 26.45 8.25 26.3 L7.85 26.35 6.2 26.7 3.7 27.45 3.55 27.5 3.35 27.55 3.05 27.55 2.55 27.7 2.15 27.8 3.35 27.9 3.5 27.9 6.35 28.2 6.45 28.2 8.1 28.5 8.9 28.65 9.1 28.7 10.1 28.85 10.95 29.05 10.65 28.45 M20.3 35.05 L20.4 34.35 20.45 34.3 Q20.9 33.8 21.5 33.45 L23.25 32.9 Q22.25 33.85 21.5 34.95 L21.5 35.0 20.9 35.9 20.35 37.2 20.35 36.15 20.3 35.35 20.3 35.05 M0.5 42.35 L1.0 42.3 3.75 42.25 4.1 42.25 5.2 42.05 5.45 41.95 8.3 41.3 8.4 41.25 8.25 41.9 7.75 43.45 7.35 44.05 7.0 44.25 6.85 44.35 5.7 44.65 5.3 44.75 2.65 45.35 2.3 45.45 2.65 45.35 5.3 44.75 5.7 44.65 6.85 44.35 7.0 44.25 7.35 44.05 6.6 45.1 4.95 47.65 4.0 48.35 3.25 47.2 2.35 45.5 2.3 45.45 1.55 44.25 0.5 42.4 0.5 42.35 M11.7 40.8 L12.3 40.3 12.7 40.0 13.55 39.3 14.35 38.55 13.9 39.05 13.25 39.75 12.4 40.8 11.5 42.05 11.35 42.25 11.8 41.1 12.0 40.7 12.0 40.6 11.7 40.8 M0.9 36.0 L-0.05 37.3 2.0 37.25 4.95 37.05 2.0 37.25 -0.05 37.3 0.9 36.0 M23.35 29.75 L23.2 29.65 23.35 29.75 M29.35 38.15 L29.15 37.5 28.9 36.6 28.8 36.35 28.9 36.6 29.15 37.5 29.35 38.15" fill="#a1baec" fill-rule="evenodd" stroke="none"/>
      <path d="M44.15 42.0 L44.05 43.0 44.05 43.3 43.6 43.4 Q42.95 43.5 42.3 43.75 L41.05 44.25 40.45 44.6 39.95 44.9 39.95 44.8 40.0 44.3 40.0 44.2 40.0 43.85 40.0 43.7 39.75 42.6 39.75 42.55 39.75 42.45 39.8 42.4 38.55 42.4 38.25 42.35 37.4 42.2 36.45 41.95 36.15 41.85 36.4 42.0 37.0 42.45 37.55 42.75 37.95 42.95 38.45 43.1 38.5 43.15 38.6 43.35 38.75 43.55 39.3 44.3 39.4 44.35 39.4 44.4 39.3 44.8 39.15 45.45 38.85 46.35 38.3 47.9 38.1 48.3 37.85 48.4 37.9 48.2 38.0 47.6 37.95 46.3 37.8 45.8 37.7 45.6 37.4 44.95 37.3 44.75 37.15 44.45 37.0 44.25 36.85 44.05 36.85 44.0 36.2 43.25 35.6 42.6 34.85 42.05 34.55 41.85 34.4 41.8 33.7 41.55 33.25 40.7 32.95 40.2 32.9 40.1 32.75 39.9 32.6 39.65 32.65 39.45 32.8 39.2 33.2 39.55 33.3 39.7 33.35 39.7 33.4 39.8 33.45 39.8 34.2 40.7 34.4 40.9 34.55 41.15 34.65 41.25 35.15 41.25 35.3 41.25 36.35 41.25 37.25 41.3 37.8 41.4 39.35 41.55 39.5 41.6 40.55 41.75 40.85 41.8 40.75 41.95 40.5 42.5 40.25 43.1 40.7 43.0 41.35 42.85 41.9 42.75 42.4 42.7 42.95 42.6 43.25 42.55 43.35 42.45 Q43.7 42.15 44.15 42.0 M42.2 47.95 L41.75 48.7 41.45 47.75 41.3 47.05 40.95 46.1 41.15 45.6 41.2 45.35 41.2 45.25 Q41.85 46.05 42.05 47.1 L42.15 47.8 42.2 47.95 M12.4 54.6 L10.9 54.6 10.9 53.55 10.95 53.45 11.0 53.35 11.3 52.95 11.35 52.9 12.2 52.3 12.25 52.8 12.35 53.35 12.4 54.35 12.4 54.45 12.4 54.6" fill="#cae4f6" fill-rule="evenodd" stroke="none"/>
      <path d="M6.4 -1.5 L6.7 -1.5 7.2 -0.6 7.85 0.15 8.0 0.4 8.25 0.8 9.3 2.05 9.6 2.3 9.65 2.35 10.9 3.3 12.65 4.25 15.25 5.2 15.3 5.25 15.45 5.35 16.6 6.45 16.95 6.9 18.2 8.4 18.35 8.6 19.4 10.3 20.25 12.0 18.85 11.4 17.65 10.95 16.55 10.55 15.4 10.0 14.45 9.55 12.75 8.4 12.55 8.25 11.6 7.5 12.15 8.45 12.5 8.9 13.45 10.2 13.95 10.8 14.25 11.1 13.8 10.85 12.85 10.35 10.95 9.0 10.75 8.85 10.0 8.05 9.9 7.9 9.85 7.85 8.95 6.3 8.75 5.9 7.8 3.8 7.7 3.45 7.65 3.3 7.2 2.0 7.15 1.7 7.05 1.4 6.9 0.75 6.65 -0.1 6.5 -0.75 6.4 -1.5 M44.05 43.3 L44.1 44.45 44.2 45.35 44.45 46.0 43.6 45.95 42.95 45.85 42.75 46.55 42.25 47.85 42.2 47.95 42.15 47.8 42.05 47.1 Q41.85 46.05 41.2 45.25 L41.2 45.35 41.15 45.6 40.95 46.1 40.6 46.65 39.55 47.5 38.8 47.9 38.1 48.3 38.3 47.9 38.85 46.35 39.15 45.45 39.3 44.8 39.4 44.4 39.4 44.35 39.3 44.3 38.75 43.55 38.6 43.35 38.5 43.15 38.45 43.1 37.95 42.95 37.55 42.75 37.0 42.45 36.4 42.0 36.15 41.85 36.45 41.95 37.4 42.2 38.25 42.35 38.55 42.4 39.8 42.4 39.75 42.45 39.75 42.55 39.75 42.6 40.0 43.7 40.0 43.85 40.0 44.2 40.0 44.3 39.95 44.8 39.95 44.9 40.45 44.6 41.05 44.25 42.3 43.75 Q42.95 43.5 43.6 43.4 L44.05 43.3 M22.4 54.6 L20.85 54.6 20.9 54.5 21.7 53.2 21.8 53.1 22.45 52.3 22.45 53.0 22.4 53.7 22.4 54.6 M10.9 54.6 L10.1 54.6 9.9 54.25 11.2 53.0 11.3 52.95 11.0 53.35 10.95 53.45 10.9 53.55 10.9 54.6 M-1.5 42.3 L-1.5 41.2 0.35 40.75 2.65 40.05 4.8 39.45 5.1 39.3 7.15 38.6 7.2 38.55 7.35 38.55 7.35 38.5 8.25 38.15 8.35 38.1 8.65 38.0 10.25 37.35 12.5 36.45 13.8 35.85 14.2 35.7 14.4 35.65 16.05 34.9 17.6 34.45 17.95 34.4 19.6 33.95 19.65 35.1 19.6 36.25 19.5 37.85 19.45 38.15 19.4 38.35 18.9 40.1 18.75 40.5 18.15 41.85 17.6 42.75 17.55 42.75 17.0 43.15 16.9 43.25 15.1 44.6 12.6 45.9 11.95 46.2 12.4 43.9 Q12.7 42.55 13.25 41.25 L14.3 39.15 14.5 38.9 14.65 38.7 15.1 38.2 15.65 37.5 17.1 35.6 15.1 37.45 14.95 37.6 13.4 38.7 11.15 40.1 10.05 40.75 9.85 40.85 8.4 41.25 8.3 41.3 5.45 41.95 5.2 42.05 4.1 42.25 3.75 42.25 1.0 42.3 0.5 42.35 0.35 42.0 -0.05 41.05 -0.1 41.55 -0.2 42.35 -1.5 42.3 M-1.5 18.2 L-1.5 17.5 -0.75 18.0 -1.5 18.2 M40.4 38.9 L40.3 39.05 39.8 39.55 39.8 39.0 39.8 38.7 39.75 38.45 40.5 38.1 40.55 38.1 40.5 38.6 40.45 38.7 40.4 38.75 40.3 39.0 40.4 38.9 M10.65 28.45 L10.95 29.05 10.1 28.85 9.1 28.7 8.9 28.65 8.1 28.5 6.45 28.2 6.35 28.2 3.5 27.9 3.35 27.9 2.15 27.8 2.55 27.7 3.05 27.55 3.35 27.55 3.55 27.5 3.7 27.45 6.2 26.7 7.85 26.35 8.25 26.3 Q8.7 26.45 9.1 26.75 L9.55 27.1 10.55 28.35 10.65 28.45 M22.2 34.95 L22.6 34.3 24.55 34.65 24.9 34.75 26.25 35.0 26.3 35.05 26.85 35.6 26.95 35.75 26.9 35.75 26.85 35.8 25.65 36.8 25.5 36.9 23.6 38.55 23.5 38.75 22.35 40.3 Q21.55 41.65 21.0 43.05 L20.35 44.6 19.8 45.95 19.6 46.6 19.6 45.8 19.7 43.85 19.8 42.9 19.9 41.75 20.25 39.9 20.25 39.75 20.45 38.95 20.55 38.45 21.0 37.4 21.35 36.55 22.2 34.95 M26.6 40.55 L26.55 40.55 26.55 40.6 24.45 42.75 22.65 44.45 22.65 44.4 23.35 42.6 Q23.85 41.25 24.5 40.0 L25.0 39.05 26.1 37.65 26.1 37.6 27.0 36.75 27.05 36.7 27.4 36.45 27.35 37.1 27.25 37.8 27.2 38.85 27.2 39.6 26.6 40.55" fill="#fff8fc" fill-rule="evenodd" stroke="none"/>
      <path d="M-1.5 8.05 L-1.5 7.15 -0.6 7.35 0.3 7.6 0.6 8.7 0.65 8.85 -0.1 8.6 -0.95 8.25 -1.5 8.05 M2.75 8.65 L3.2 8.85 3.8 9.2 4.5 9.55 5.1 9.95 5.55 10.15 7.2 11.05 8.15 11.55 10.55 12.85 10.7 12.95 11.05 13.15 11.45 13.4 11.85 13.65 12.25 13.85 12.65 14.1 8.8 12.65 8.2 12.4 7.55 12.1 7.5 12.05 7.15 11.95 6.9 11.75 6.5 11.6 6.2 11.45 5.5 11.15 4.85 10.85 4.6 10.75 4.2 10.55 3.65 10.3 3.2 10.05 2.6 9.75 2.1 9.5 1.95 8.95 1.8 8.25 1.8 8.2 2.05 8.3 2.35 8.45 2.75 8.65" fill="#ffed8b" fill-rule="evenodd" stroke="none"/>
      <path d="M3.6 -1.5 L5.7 -1.5 6.1 -0.85 6.05 -0.5 6.0 0.2 5.15 -0.35 4.35 -0.9 4.15 -1.0 3.6 -1.5 M8.75 -1.5 L10.6 -1.5 11.05 -1.2 11.75 -0.7 16.9 2.7 14.7 1.7 13.85 1.3 13.25 0.85 12.75 0.6 11.05 -0.25 10.2 -0.7 Q9.55 -1.0 8.9 -1.4 L8.75 -1.5 M-1.5 13.05 L-1.5 12.4 -1.45 12.4 -1.35 12.45 0.15 13.3 0.2 13.3 1.25 14.1 1.9 14.7 1.95 14.75 1.85 14.75 Q1.6 14.5 1.25 14.4 L0.3 14.0 -0.35 13.65 -0.6 13.5 -1.5 13.05 M-1.5 8.15 L-1.5 8.05 -0.95 8.25 -0.1 8.6 0.65 8.85 0.6 8.7 0.3 7.6 -0.6 7.35 -1.5 7.15 -1.5 2.0 -1.4 2.05 -0.8 2.35 -0.65 2.9 -0.55 3.25 -0.3 4.35 0.15 6.45 0.2 6.6 0.4 7.6 0.8 8.95 1.15 10.15 1.85 10.5 2.85 11.05 3.45 11.35 3.95 11.6 5.2 12.25 6.4 12.8 7.55 13.3 8.4 13.7 8.8 14.05 8.6 13.95 6.7 13.3 6.05 13.05 5.1 12.7 3.2 11.95 2.8 11.75 1.6 11.2 0.65 10.75 0.25 10.1 -0.3 8.65 -1.5 8.15 M0.5 3.05 L1.45 3.55 3.2 4.6 4.75 5.5 7.5 7.1 9.0 8.05 9.15 8.2 10.75 9.2 11.25 9.6 12.2 10.2 15.0 12.05 17.2 13.55 18.45 14.45 18.65 14.65 18.8 15.9 18.85 16.0 19.05 17.0 19.25 17.85 19.4 18.5 19.75 19.7 20.4 21.45 21.05 23.1 20.45 23.1 18.65 23.05 16.8 23.0 15.1 23.05 13.5 23.05 14.1 22.2 14.75 22.0 15.7 21.7 17.4 21.05 18.5 20.6 18.5 20.2 18.55 19.0 18.5 18.2 18.5 18.05 18.45 17.85 18.15 16.35 17.85 16.25 17.05 16.0 15.3 15.4 14.95 15.3 13.85 14.95 13.85 14.9 12.7 14.4 10.7 13.55 9.4 13.0 8.15 12.45 7.4 12.15 6.95 11.95 6.8 11.85 6.5 11.7 5.45 11.25 4.5 10.8 4.3 10.7 2.6 9.95 2.2 9.75 2.15 9.7 2.0 9.6 1.7 8.35 1.6 8.05 1.3 6.95 1.2 6.6 0.85 4.9 0.8 4.35 0.6 3.4 0.5 3.05 M2.75 8.65 L2.35 8.45 2.05 8.3 1.8 8.2 1.8 8.25 1.95 8.95 2.1 9.5 2.6 9.75 3.2 10.05 3.65 10.3 4.2 10.55 4.6 10.75 4.85 10.85 5.5 11.15 6.2 11.45 6.5 11.6 6.9 11.75 7.15 11.95 7.5 12.05 7.55 12.1 8.2 12.4 8.8 12.65 12.65 14.1 12.25 13.85 11.85 13.65 11.45 13.4 11.05 13.15 10.7 12.95 10.55 12.85 8.15 11.55 7.2 11.05 5.55 10.15 5.1 9.95 4.5 9.55 3.8 9.2 3.2 8.85 2.75 8.65" fill="#fb9450" fill-rule="evenodd" stroke="none"/>
      <path d="M5.7 -1.5 L6.2 -1.5 6.1 -0.85 5.7 -1.5 M6.7 -1.5 L8.75 -1.5 8.9 -1.4 Q9.55 -1.0 10.2 -0.7 L11.05 -0.25 12.75 0.6 13.25 0.85 13.85 1.3 14.7 1.7 16.9 2.7 17.05 2.8 16.55 2.65 16.25 2.55 15.35 2.3 13.65 1.9 11.55 1.45 11.5 1.45 11.25 1.4 9.2 1.1 8.4 0.6 7.85 0.15 7.2 -0.6 6.7 -1.5 M-1.5 12.4 L-1.5 8.15 -0.3 8.65 0.25 10.1 0.65 10.75 1.6 11.2 2.8 11.75 3.2 11.95 5.1 12.7 6.05 13.05 6.7 13.3 8.6 13.95 8.8 14.05 8.4 13.7 8.7 13.85 9.8 14.3 11.8 15.3 12.85 15.75 12.8 16.35 12.7 17.45 12.6 18.6 12.55 19.35 12.5 21.65 12.5 22.7 12.5 23.75 12.5 23.8 Q12.45 24.75 12.55 25.7 L12.5 25.8 Q12.25 24.8 12.15 23.8 L12.05 23.65 11.95 23.05 11.95 22.0 11.95 21.9 11.05 21.15 10.05 20.35 9.65 20.05 9.5 19.85 7.95 18.65 7.7 18.45 7.2 18.1 7.0 17.95 6.9 17.85 6.8 17.8 6.65 17.75 6.6 17.7 6.0 17.35 4.85 16.6 3.55 15.85 2.75 15.4 2.15 15.1 0.75 14.25 0.3 14.0 1.25 14.4 Q1.6 14.5 1.85 14.75 L1.95 14.75 1.9 14.7 1.25 14.1 0.2 13.3 0.15 13.3 -1.35 12.45 -1.45 12.4 -1.5 12.4 M6.0 0.65 L4.65 -0.55 4.3 -0.85 4.15 -1.0 4.35 -0.9 5.15 -0.35 6.0 0.2 6.0 0.65 M13.85 14.95 L14.95 15.3 15.3 15.4 17.05 16.0 17.85 16.25 18.15 16.35 18.45 17.85 18.5 18.05 18.5 18.2 18.55 19.0 18.5 20.2 18.5 20.6 17.4 21.05 15.7 21.7 14.75 22.0 14.1 22.2 13.5 23.05 13.5 22.0 13.5 21.75 13.5 19.65 13.6 18.1 13.65 17.7 13.75 16.1 13.75 15.85 13.85 14.95" fill="#e65027" fill-rule="evenodd" stroke="none"/>
      <path d="M6.3 5.15 L5.45 4.2 5.1 3.75 4.85 3.5 4.45 3.15 3.75 2.3 2.8 1.15 2.65 0.9 1.3 -0.7 1.2 -0.8 0.65 -1.5 3.6 -1.5 4.15 -1.0 4.3 -0.85 4.65 -0.55 6.0 0.65 6.0 2.45 6.0 3.2 6.1 4.15 6.15 4.4 6.3 5.15 M-1.5 15.1 L-1.5 13.05 -0.6 13.5 -0.35 13.65 0.3 14.0 0.75 14.25 2.15 15.1 2.75 15.4 3.55 15.85 4.85 16.6 6.0 17.35 6.6 17.7 6.65 17.75 6.8 17.8 6.9 17.85 7.0 17.95 7.2 18.1 7.7 18.45 7.95 18.65 9.5 19.85 9.65 20.05 10.05 20.35 11.05 21.15 11.95 21.9 11.95 22.0 11.95 23.05 12.05 23.65 12.15 23.8 Q12.25 24.8 12.5 25.8 L12.55 25.7 Q12.45 24.75 12.5 23.8 L12.5 23.75 12.5 22.7 12.5 21.65 12.55 19.35 12.6 18.6 12.7 17.45 12.8 16.35 12.85 15.75 11.8 15.3 9.8 14.3 8.7 13.85 8.4 13.7 7.55 13.3 6.4 12.8 5.2 12.25 3.95 11.6 3.45 11.35 2.85 11.05 1.85 10.5 1.15 10.15 0.8 8.95 0.4 7.6 0.2 6.6 0.15 6.45 -0.3 4.35 -0.55 3.25 -0.65 2.9 -0.8 2.35 -0.3 2.6 0.5 3.05 0.6 3.4 0.8 4.35 0.85 4.9 1.2 6.6 1.3 6.95 1.6 8.05 1.7 8.35 2.0 9.6 2.15 9.7 2.2 9.75 2.6 9.95 4.3 10.7 4.5 10.8 5.45 11.25 6.5 11.7 6.8 11.85 6.95 11.95 7.4 12.15 8.15 12.45 9.4 13.0 10.7 13.55 12.7 14.4 13.85 14.9 13.85 14.95 13.75 15.85 13.75 16.1 13.65 17.7 13.6 18.1 13.5 19.65 13.5 21.75 13.5 22.0 13.5 23.05 15.1 23.05 16.8 23.0 18.65 23.05 20.45 23.1 21.05 23.1 20.4 21.45 19.75 19.7 19.4 18.5 19.25 17.85 19.05 17.0 18.85 16.0 18.8 15.9 18.65 14.65 19.25 15.05 19.5 15.65 19.85 16.4 19.95 16.65 20.55 17.9 21.7 19.8 23.05 21.65 23.4 22.1 23.75 22.55 25.0 23.95 25.05 24.0 26.2 25.05 26.3 25.15 26.6 25.7 26.65 25.8 27.4 27.25 28.9 30.5 29.5 32.0 27.15 31.75 25.8 31.5 25.5 31.45 24.95 31.3 22.65 30.7 20.45 30.05 19.7 29.8 18.3 29.35 16.95 28.9 16.35 28.7 13.6 27.6 13.3 27.5 12.6 27.2 11.55 25.8 10.5 24.4 10.25 24.2 9.65 23.65 7.85 21.85 7.1 21.3 6.5 20.9 5.8 20.35 2.75 18.05 1.0 16.75 0.9 16.7 -0.85 15.5 -1.5 15.1 M26.65 30.1 L26.65 29.05 26.25 28.4 26.05 27.95 25.95 27.85 25.6 27.45 25.4 27.25 25.35 27.2 25.2 27.05 24.9 26.7 24.15 25.85 23.25 25.0 22.45 24.5 22.4 24.5 22.3 24.5 21.65 24.45 21.35 24.4 21.25 24.45 19.25 25.1 18.1 25.5 17.4 25.75 Q17.15 26.05 17.05 26.5 L17.05 26.8 17.1 27.0 17.55 27.2 17.65 27.25 17.95 27.4 18.6 27.8 19.5 28.3 21.15 28.95 21.5 29.1 22.05 29.3 22.4 29.45 22.5 29.5 23.35 29.75 23.55 29.8 23.9 29.9 25.2 30.2 25.5 30.25 26.6 30.45 26.65 30.4 26.65 30.1" fill="#c1371d" fill-rule="evenodd" stroke="none"/>
      <path d="M27.9 54.6 L26.15 54.6 26.9 53.9 27.15 53.7 27.15 53.05 27.0 52.5 27.0 52.45 26.95 51.8 26.9 51.8 26.85 51.9 26.8 51.9 26.35 52.5 26.15 52.8 25.6 53.6 25.05 54.6 24.2 54.6 24.3 54.4 25.35 53.05 25.85 52.6 26.8 51.55 27.55 52.15 27.7 52.35 28.65 53.35 28.95 53.7 28.05 54.45 27.9 54.6 M22.7 54.6 L22.4 54.6 22.4 53.7 22.45 53.0 22.45 52.3 21.8 53.1 21.7 53.2 20.9 54.5 20.85 54.6 18.85 54.6 19.05 54.05 19.3 53.8 21.2 52.15 22.45 51.7 22.65 51.55 22.65 51.95 22.65 52.4 22.65 52.95 22.7 54.5 22.7 54.6 M16.25 54.6 L12.4 54.6 12.4 54.45 12.4 54.35 12.35 53.35 12.35 52.8 12.35 52.1 12.2 52.3 11.35 52.9 11.3 52.95 11.2 53.0 9.9 54.25 10.1 54.6 8.6 54.6 7.6 53.35 5.9 51.05 5.75 50.9 5.0 49.85 4.5 49.05 4.0 48.35 4.95 47.65 6.6 45.1 7.35 44.05 7.75 43.45 8.25 41.9 8.4 41.25 9.85 40.85 10.05 40.75 11.15 40.1 13.4 38.7 14.95 37.6 15.1 37.45 17.1 35.6 15.65 37.5 15.1 38.2 14.65 38.7 14.5 38.9 14.3 39.15 13.25 41.25 Q12.7 42.55 12.4 43.9 L11.95 46.2 12.6 45.9 15.1 44.6 16.9 43.25 17.0 43.15 17.55 42.75 17.6 42.75 18.15 41.85 18.75 40.5 18.9 40.1 19.4 38.35 19.45 38.15 19.5 37.85 19.6 36.25 19.65 35.1 19.7 35.1 20.3 35.05 20.3 35.35 20.35 36.15 20.35 37.2 20.9 35.9 21.5 35.0 22.2 34.95 21.35 36.55 21.0 37.4 20.55 38.45 20.45 38.95 20.25 39.75 20.25 39.9 19.6 40.9 19.7 40.4 19.65 40.25 19.55 40.55 19.25 41.3 18.95 42.1 18.9 42.2 18.8 42.35 18.7 42.55 18.1 43.5 17.6 44.25 17.05 44.95 16.5 45.65 15.95 46.35 15.3 47.15 14.7 47.8 14.15 48.4 13.85 48.7 12.25 49.75 12.05 49.85 11.9 49.95 11.45 50.15 10.0 50.75 8.95 51.1 7.9 51.35 7.55 51.45 7.5 51.45 7.55 51.4 8.4 50.2 8.6 49.85 8.85 49.35 9.35 48.35 10.0 46.95 10.15 46.3 10.55 44.65 10.85 43.7 11.35 42.25 10.85 43.7 10.55 44.65 10.15 46.3 10.0 46.95 9.35 48.35 8.85 49.35 8.6 49.85 8.4 50.2 7.55 51.4 7.5 51.45 7.55 51.45 7.9 51.35 8.95 51.1 10.0 50.75 11.45 50.15 11.9 49.95 12.05 49.85 12.25 49.75 13.85 48.7 Q14.3 48.35 14.9 47.95 L16.8 46.4 Q17.15 46.15 16.65 47.1 16.1 48.0 15.95 49.15 L15.9 49.85 Q15.8 50.85 15.85 51.85 L15.9 52.65 16.15 54.35 16.25 54.6 M-0.5 54.6 L-1.5 54.6 -1.5 51.5 -0.6 51.1 -0.5 54.6 M13.8 35.85 L12.5 36.45 10.25 37.35 8.65 38.0 8.65 37.0 10.6 36.5 13.8 35.85 M11.7 40.8 L11.3 41.2 9.5 42.55 8.5 43.25 7.35 44.05 8.5 43.25 9.5 42.55 11.3 41.2 11.7 40.8 12.0 40.6 12.0 40.7 11.8 41.1 11.35 42.25 11.5 42.05 12.4 40.8 13.25 39.75 13.9 39.05 14.35 38.55 13.55 39.3 12.7 40.0 12.3 40.3 11.7 40.8 M18.2 46.65 L18.5 46.3 19.3 45.55 19.5 45.9 19.55 46.15 19.5 46.5 19.5 47.0 19.1 49.85 18.9 50.75 18.55 51.9 18.1 53.1 Q17.95 52.3 17.95 51.4 L18.0 49.85 18.0 48.85 18.15 47.05 18.15 47.0 18.2 46.65" fill="#6472aa" fill-rule="evenodd" stroke="none"/>
      <path d="M1.25 54.6 L-0.5 54.6 -0.6 51.1 -0.6 49.85 -0.6 49.35 -0.5 45.65 -0.2 42.35 -0.1 41.55 -0.05 41.05 0.35 42.0 0.4 42.35 0.45 44.0 0.55 45.6 0.6 46.95 0.65 48.6 0.75 49.85 0.8 50.4 0.95 52.3 1.15 54.05 1.25 54.6" fill="#eea85a" fill-rule="evenodd" stroke="none"/>
      <path d="M8.6 54.6 L1.25 54.6 1.15 54.05 0.95 52.3 0.8 50.4 0.75 49.85 0.65 48.6 0.6 46.95 0.55 45.6 0.45 44.0 0.4 42.35 0.35 42.0 0.5 42.35 0.5 42.4 1.55 44.25 2.3 45.45 2.35 45.5 3.25 47.2 4.0 48.35 4.5 49.05 5.0 49.85 5.75 50.9 5.9 51.05 7.6 53.35 8.6 54.6" fill="#f9e5a6" fill-rule="evenodd" stroke="none"/>
      <path d="M26.25 -1.5 L30.15 -1.5 30.1 -1.0 30.2 2.7 30.6 5.7 30.7 6.25 31.65 7.85 33.4 10.75 34.7 12.85 35.3 13.8 36.15 15.25 36.9 16.55 36.7 17.65 35.7 17.2 35.55 17.1 33.9 16.2 32.65 15.25 32.4 15.0 31.65 14.3 31.8 15.05 32.0 16.05 32.3 17.1 32.95 18.7 32.8 20.05 32.4 22.1 32.4 22.2 32.1 23.4 32.05 23.5 31.8 24.25 31.95 23.7 32.3 22.2 32.45 19.9 32.4 18.95 31.35 16.8 29.85 13.6 29.05 11.6 28.3 9.45 27.6 7.15 27.05 4.75 26.65 2.45 26.6 2.05 26.4 0.35 26.25 -1.5 M45.15 25.55 L45.2 25.8 45.7 28.2 43.8 26.8 43.5 26.5 43.35 26.35 42.85 25.9 42.7 25.75 41.7 24.95 41.8 24.95 43.05 25.2 44.25 25.45 45.1 25.55 45.15 25.55 M29.25 53.45 L29.3 53.35 31.15 51.6 32.35 50.55 32.4 53.55 32.4 54.6 27.9 54.6 28.05 54.45 28.95 53.7 29.25 53.45 M26.4 16.55 L26.55 16.75 27.4 18.3 28.05 19.1 25.7 18.9 23.3 18.85 22.9 18.85 22.6 18.65 23.75 18.3 24.5 18.0 25.15 17.75 26.2 17.4 26.25 17.35 26.3 17.2 26.4 16.55" fill="#fffdfc" fill-rule="evenodd" stroke="none"/>
      <path d="M45.0 32.5 L45.3 32.8 45.7 33.05 45.65 33.05 45.15 33.15 44.65 33.2 44.1 33.25 43.75 33.3 43.65 33.3 43.6 33.35 43.5 33.35 43.1 33.35 42.4 33.45 42.2 33.45 41.75 33.5 41.1 33.6 41.4 33.65 41.6 33.65 41.7 33.75 42.1 34.1 42.4 34.35 42.65 34.55 42.95 34.7 43.35 34.85 43.6 35.0 43.8 35.05 44.3 35.15 44.4 35.15 44.85 35.2 45.0 35.25 45.55 35.3 45.85 35.35 46.05 35.35 46.5 35.3 46.3 35.35 46.1 35.5 46.05 35.55 45.7 35.75 45.95 36.25 46.05 36.35 46.3 36.75 46.8 37.25 47.45 37.65 47.8 37.85 47.75 37.9 47.75 38.0 47.7 37.95 47.45 37.7 47.25 38.2 47.0 38.6 46.2 38.9 46.1 38.75 45.6 38.4 Q45.05 38.0 44.3 37.75 L44.15 37.7 43.5 37.5 43.4 37.5 43.3 37.5 43.1 37.4 42.0 37.3 41.0 37.25 40.85 37.2 39.8 37.2 39.75 37.0 39.6 36.8 39.45 36.6 39.35 36.6 38.75 36.55 38.6 36.6 38.5 36.6 38.2 37.0 38.25 37.45 38.3 38.05 38.7 38.75 38.8 38.9 39.55 38.75 39.8 39.6 39.8 39.55 40.3 39.05 40.4 38.9 40.45 38.85 40.5 38.7 41.25 38.7 42.6 38.95 42.65 38.95 42.85 38.95 43.75 39.15 44.7 39.55 44.95 39.75 45.05 39.95 45.15 40.25 45.15 40.55 45.15 40.65 44.55 41.05 43.35 41.8 42.85 41.85 42.4 41.85 41.4 42.0 41.45 41.6 41.45 41.5 41.45 41.3 41.15 41.15 40.75 41.05 40.2 40.9 39.2 40.7 38.85 40.7 38.25 40.65 37.65 40.6 36.5 40.55 36.2 40.55 34.9 40.55 34.45 39.7 34.25 39.45 34.05 39.1 33.95 38.95 33.95 38.9 33.9 38.9 33.2 37.9 32.4 37.05 32.25 36.9 31.65 36.25 31.55 36.15 31.15 35.7 31.05 35.45 30.65 34.15 30.7 34.15 32.2 34.25 33.3 34.25 33.9 34.2 34.45 34.15 34.3 33.9 33.85 33.2 33.45 32.8 34.4 32.85 35.6 32.95 37.05 32.9 38.65 32.8 38.8 32.75 39.4 32.7 40.25 32.55 40.3 32.55 40.65 32.5 41.0 32.4 41.95 32.45 43.35 32.55 43.75 32.55 44.8 32.5 45.0 32.5 M43.15 39.7 L43.5 39.7 43.2 39.55 42.9 39.5 42.55 39.45 42.1 39.35 41.9 39.3 41.5 39.3 41.25 39.25 41.2 39.25 40.7 39.35 40.6 39.45 40.6 39.5 40.8 39.65 41.3 39.85 41.4 39.9 41.6 39.95 42.1 39.85 42.25 39.75 42.4 39.75 42.65 39.7 42.7 39.7 43.15 39.7 M34.6 35.45 L34.65 35.4 35.45 35.3 35.2 35.3 34.9 35.25 34.6 35.2 34.1 35.1 33.85 35.05 33.5 35.05 33.3 35.05 33.05 35.1 32.55 35.25 32.35 35.35 32.25 35.4 32.2 35.5 32.2 35.55 32.3 35.65 32.6 35.85 32.95 35.9 33.45 36.05 33.85 35.85 34.45 35.45 34.6 35.45" fill="#4d95c3" fill-rule="evenodd" stroke="none"/>
      <path d="M43.1 28.85 L43.2 29.45 43.5 30.55 43.5 30.6 43.7 31.45 44.3 31.95 44.55 32.15 45.0 32.5 44.8 32.5 43.75 32.55 43.35 32.55 41.95 32.45 41.0 32.4 40.65 32.5 40.3 32.55 40.25 32.55 39.4 32.7 38.8 32.75 38.65 32.8 37.05 32.9 35.6 32.95 34.4 32.85 33.45 32.8 33.85 33.2 34.3 33.9 34.45 34.15 33.9 34.2 33.3 34.25 32.2 34.25 30.7 34.15 30.65 34.15 31.05 35.45 31.15 35.7 31.55 36.15 31.65 36.25 32.25 36.9 32.4 37.05 33.2 37.9 33.9 38.9 33.95 38.9 33.95 38.95 34.05 39.1 34.25 39.45 34.45 39.7 34.9 40.55 36.2 40.55 36.5 40.55 37.65 40.6 38.25 40.65 38.85 40.7 39.2 40.7 40.2 40.9 40.75 41.05 41.15 41.15 41.45 41.3 41.45 41.5 41.45 41.6 41.4 42.0 42.4 41.85 42.85 41.85 43.35 41.8 44.55 41.05 45.15 40.65 45.15 40.55 45.15 40.25 45.05 39.95 44.95 39.75 44.7 39.55 43.75 39.15 42.85 38.95 42.65 38.95 42.6 38.95 41.25 38.7 40.5 38.7 40.7 38.1 40.95 38.1 41.35 38.1 42.15 38.2 42.3 38.2 42.75 38.3 43.25 38.4 43.45 38.4 43.55 38.45 43.85 38.5 44.2 38.6 44.3 38.65 44.9 38.95 45.4 39.2 45.55 39.3 45.85 39.45 45.65 39.15 45.55 39.1 45.5 39.0 44.85 38.6 44.4 38.4 44.0 38.25 43.65 38.15 43.6 38.1 43.5 38.1 43.1 38.0 43.0 38.0 42.7 37.9 42.6 37.9 42.15 37.8 41.6 37.75 41.15 37.7 40.75 37.7 40.3 37.7 40.15 37.7 39.75 37.7 39.55 37.75 39.45 37.65 39.4 37.5 38.95 37.1 38.85 37.1 38.85 37.2 38.85 37.3 39.15 37.9 39.15 38.25 39.15 38.45 39.25 38.4 39.45 38.35 39.55 38.75 38.8 38.9 38.7 38.75 38.3 38.05 38.25 37.45 38.2 37.0 38.5 36.6 38.6 36.6 38.75 36.55 39.35 36.6 39.45 36.6 39.6 36.8 39.75 37.0 39.8 37.2 40.85 37.2 41.0 37.25 42.0 37.3 43.1 37.4 43.3 37.5 43.4 37.5 43.5 37.5 44.15 37.7 44.3 37.75 Q45.05 38.0 45.6 38.4 L46.1 38.75 46.2 38.9 47.0 38.6 47.25 38.2 47.45 37.7 47.7 37.95 47.75 38.0 47.65 38.45 47.65 38.55 47.55 38.95 47.35 39.05 46.4 39.4 46.2 39.45 46.2 39.5 46.2 40.35 46.15 40.65 46.05 41.15 46.05 41.25 44.75 41.65 44.45 41.8 44.2 41.9 44.15 42.0 Q43.7 42.15 43.35 42.45 L43.25 42.55 42.95 42.6 42.4 42.7 41.9 42.75 41.35 42.85 40.7 43.0 40.25 43.1 40.5 42.5 40.75 41.95 40.85 41.8 40.55 41.75 39.5 41.6 39.35 41.55 37.8 41.4 37.25 41.3 36.35 41.25 35.3 41.25 35.15 41.25 34.65 41.25 34.55 41.15 34.4 40.9 34.2 40.7 33.45 39.8 33.4 39.8 33.35 39.7 33.3 39.7 33.2 39.55 32.8 39.2 32.75 39.15 32.6 39.35 32.5 39.5 32.15 39.9 32.05 40.05 32.1 40.1 32.0 40.1 31.85 40.05 31.1 39.85 30.65 39.05 30.3 38.2 30.05 37.7 30.0 37.5 29.55 36.7 28.8 36.35 28.8 36.3 27.8 34.3 26.75 32.75 27.8 34.3 28.8 36.3 28.75 36.3 27.75 35.7 26.95 35.1 26.85 35.05 26.65 34.9 26.6 34.65 26.35 33.45 26.2 32.75 26.45 32.75 26.75 32.75 26.6 32.6 26.3 32.25 25.9 31.75 25.8 31.5 27.15 31.75 29.5 32.0 28.9 30.5 27.4 27.25 26.65 25.8 26.6 25.7 26.3 25.15 26.2 25.05 26.5 24.5 27.05 23.65 27.7 22.8 28.3 22.05 28.75 22.2 29.6 22.5 31.3 23.3 31.4 23.0 31.3 23.6 31.05 25.1 31.45 25.4 32.6 25.95 32.75 26.0 35.7 27.0 36.35 27.2 39.3 28.0 40.45 28.3 42.85 28.8 43.1 28.85 M48.1 37.15 L47.85 37.35 47.8 37.85 47.45 37.65 46.8 37.25 46.3 36.75 46.05 36.35 45.95 36.25 45.7 35.75 46.05 35.55 46.2 36.05 46.25 36.15 46.3 36.2 46.8 36.5 47.4 36.8 48.05 37.1 48.1 37.15 M41.05 30.3 L40.8 30.05 40.8 30.0 40.3 29.4 39.95 28.9 39.85 28.85 39.8 28.8 38.65 28.35 38.65 28.3 38.1 28.15 37.45 27.85 37.3 27.8 35.8 27.3 34.55 26.95 34.4 26.9 33.9 26.9 33.75 26.9 32.6 26.95 31.45 27.05 30.25 27.25 30.35 27.45 31.0 28.45 31.8 29.55 32.4 30.25 32.75 30.6 33.8 31.55 34.5 32.05 34.85 32.3 35.05 32.3 35.35 32.35 35.7 32.4 36.4 32.45 37.25 32.45 37.8 32.4 37.95 32.4 38.8 32.3 39.1 32.25 39.55 32.2 40.15 32.15 40.6 31.95 40.85 31.85 41.0 31.8 41.05 31.8 41.6 31.5 41.75 31.4 41.5 31.1 41.25 30.65 41.15 30.45 41.05 30.3 M39.25 29.75 L39.25 29.85 39.2 30.05 39.25 29.75 M36.75 32.15 L36.2 32.0 35.95 31.8 36.5 32.05 36.75 32.15 M26.65 30.1 L26.65 30.4 26.6 30.45 25.5 30.25 25.2 30.2 25.15 30.1 26.3 30.1 26.65 30.1 M38.95 30.1 L38.85 30.3 38.85 30.25 38.95 30.1" fill="#2a5e8b" fill-rule="evenodd" stroke="none"/>
      <path d="M45.7 28.2 L45.85 29.2 45.6 29.2 43.85 28.8 43.05 28.65 40.85 28.0 40.3 27.85 36.85 26.85 36.75 26.85 34.0 25.95 33.3 25.7 31.65 24.75 31.8 24.25 32.05 23.5 32.1 23.4 32.4 22.2 32.4 22.1 32.8 20.05 32.95 18.7 32.3 17.1 32.0 16.05 31.8 15.05 31.65 14.3 32.4 15.0 32.65 15.25 33.9 16.2 35.55 17.1 35.7 17.2 36.7 17.65 36.7 17.8 36.45 19.35 36.4 19.7 36.2 20.95 36.15 22.3 36.2 23.15 36.65 23.35 36.95 23.5 37.05 23.55 37.8 23.85 38.3 24.0 39.6 24.4 40.55 24.65 41.7 24.95 42.7 25.75 42.85 25.9 43.35 26.35 43.5 26.5 43.8 26.8 45.7 28.2 M20.65 16.45 L21.85 16.1 22.65 16.0 23.55 15.8 24.55 15.65 25.5 15.5 25.85 15.5 26.4 16.55 26.3 17.2 26.25 17.35 26.2 17.4 25.15 17.75 24.5 18.0 23.75 18.3 22.6 18.65 22.5 18.55 21.4 17.5 20.75 16.6 20.65 16.45" fill="#f4e6d4" fill-rule="evenodd" stroke="none"/>
      <path d="M17.55 27.2 L17.1 27.0 17.05 26.8 17.05 26.5 Q17.15 26.05 17.4 25.75 L18.1 25.5 19.25 25.1 21.25 24.45 21.35 24.4 21.65 24.45 22.3 24.5 22.4 24.5 22.45 24.5 23.25 25.0 24.15 25.85 24.9 26.7 25.2 27.05 25.35 27.2 25.4 27.25 25.6 27.45 25.95 27.85 26.05 27.95 26.25 28.4 26.65 29.05 26.65 30.1 26.3 30.1 25.15 30.1 24.15 29.9 23.95 29.85 23.4 29.7 23.65 29.35 23.7 29.0 23.6 28.55 23.8 28.6 24.3 28.65 24.65 28.65 24.85 28.65 25.0 28.35 24.95 27.8 24.75 27.4 24.4 27.05 24.25 26.9 Q24.05 26.7 23.8 26.65 L23.5 26.55 22.4 26.65 22.25 26.7 22.1 26.5 21.65 26.1 21.55 26.0 21.4 25.85 20.9 25.5 20.8 25.5 20.1 25.65 20.0 25.7 Q18.9 25.85 18.0 26.35 L17.85 26.4 Q17.65 26.5 17.6 26.6 L17.55 26.65 17.55 26.95 17.55 27.2" fill="#0b99d2" fill-rule="evenodd" stroke="none"/>
      <path d="M25.7 1.25 L25.5 -1.2 25.5 -1.3 25.55 -1.5 26.25 -1.5 26.4 0.35 26.6 2.05 26.65 2.45 27.05 4.75 27.6 7.15 28.3 9.45 29.05 11.6 29.85 13.6 31.35 16.8 32.4 18.95 32.45 19.9 32.3 22.2 31.95 23.7 31.8 24.25 31.65 24.75 33.3 25.7 34.0 25.95 36.75 26.85 36.85 26.85 40.3 27.85 40.85 28.0 43.05 28.65 43.85 28.8 45.6 29.2 43.1 28.85 42.85 28.8 40.45 28.3 39.3 28.0 36.35 27.2 35.7 27.0 32.75 26.0 32.6 25.95 31.45 25.4 31.05 25.1 31.3 23.6 31.4 23.0 31.3 23.3 29.6 22.5 28.75 22.2 28.3 22.05 27.8 21.95 26.85 21.8 25.9 21.6 24.95 21.55 23.35 21.6 23.05 21.65 21.7 19.8 20.55 17.9 19.95 16.65 20.55 16.45 20.65 16.45 20.75 16.6 21.4 17.5 22.5 18.55 22.6 18.65 22.9 18.85 23.3 18.85 25.7 18.9 28.05 19.1 27.4 18.3 26.55 16.75 26.4 16.55 25.85 15.5 26.55 15.4 27.5 15.3 28.05 15.25 28.15 15.35 27.95 14.8 27.15 11.6 26.4 7.75 26.05 5.75 25.85 3.65 25.7 1.8 25.7 1.25 M28.15 15.35 L28.3 15.75 29.9 18.3 30.05 18.5 31.15 20.5 31.35 22.0 31.4 23.0 31.35 22.0 31.15 20.5 30.05 18.5 29.9 18.3 28.3 15.75 28.15 15.35" fill="#e5ba91" fill-rule="evenodd" stroke="none"/>
      <path d="M32.15 42.2 Q31.25 42.45 30.45 42.9 L29.9 43.15 28.65 44.05 28.45 44.2 Q28.15 44.3 28.0 44.55 L28.0 44.6 27.85 45.1 27.6 45.85 27.5 46.45 27.4 47.3 27.35 48.15 27.7 49.85 28.05 50.9 28.4 51.5 28.75 52.25 29.25 53.45 28.95 53.7 28.65 53.35 27.7 52.35 27.55 52.15 26.8 51.55 25.85 52.6 25.35 53.05 24.3 54.4 24.2 54.6 22.7 54.6 22.7 54.5 22.65 52.95 22.65 52.4 22.65 51.95 22.65 51.55 22.45 51.7 21.2 52.15 21.3 52.0 21.7 51.7 22.6 51.0 23.95 49.85 24.45 49.25 24.95 48.7 25.95 47.45 27.45 45.2 28.5 42.8 28.7 42.1 29.1 42.1 30.05 42.1 30.5 42.1 31.15 42.15 31.35 42.2 32.05 42.2 32.15 42.2 M32.5 39.5 L32.6 39.35 32.75 39.15 32.8 39.2 32.65 39.45 32.6 39.65 32.5 39.5 M26.3 35.05 L26.7 35.1 26.85 35.6 26.3 35.05 M19.6 40.9 L20.25 39.9 19.9 41.75 19.8 42.9 19.7 43.85 19.6 45.8 19.6 46.6 19.8 45.95 20.35 44.6 21.0 43.05 Q21.55 41.65 22.35 40.3 L23.5 38.75 23.6 38.55 25.5 36.9 25.65 36.8 26.85 35.8 26.95 36.55 27.0 36.75 26.1 37.6 26.1 37.65 25.0 39.05 24.5 40.0 Q23.85 41.25 23.35 42.6 L22.65 44.4 22.65 44.45 24.45 42.75 26.55 40.6 26.55 40.55 26.6 40.55 26.75 40.7 26.8 40.75 27.05 41.0 28.0 42.05 27.2 43.65 26.15 45.3 26.1 45.35 24.55 46.3 22.4 47.85 21.7 48.5 21.6 48.55 20.4 49.85 20.35 49.9 19.8 50.45 19.6 50.65 19.35 50.9 Q18.7 51.8 18.35 52.9 L18.15 53.4 18.1 53.1 18.55 51.9 18.9 50.75 19.1 49.85 19.5 47.0 19.5 46.5 19.55 46.15 19.5 45.9 19.3 45.55 18.5 46.3 18.2 46.65 18.3 46.15 Q18.4 45.4 18.65 44.7 L18.7 44.6 18.7 44.5 19.0 43.45 19.3 42.2 19.5 41.15 19.6 40.9" fill="#285c88" fill-rule="evenodd" stroke="none"/>
      <path d="M0.65 24.15 L0.1 24.4 -1.5 25.2 -1.5 21.95 -0.95 22.15 0.35 22.7 1.6 23.05 2.6 23.25 2.9 23.25 2.35 23.45 1.8 23.65 0.65 24.15 M-1.5 21.3 L-1.5 18.2 -0.75 18.0 -1.5 17.5 -1.5 15.1 -0.85 15.5 0.9 16.7 1.0 16.75 2.75 18.05 5.8 20.35 6.5 20.9 5.8 20.9 5.2 20.9 4.1 20.9 1.35 20.95 -1.1 21.25 -1.5 21.3 M7.85 0.15 L8.4 0.6 9.2 1.1 11.25 1.4 11.5 1.45 11.55 1.45 13.65 1.9 15.35 2.3 16.05 2.85 17.15 3.7 17.7 4.15 19.05 5.35 19.15 5.45 20.1 6.45 20.35 7.2 20.4 7.2 21.35 9.35 22.35 11.4 22.4 11.5 23.35 13.0 24.05 13.95 24.55 14.5 23.45 14.35 21.4 14.25 20.9 14.25 20.3 14.25 18.45 14.45 17.2 13.55 15.0 12.05 12.2 10.2 11.25 9.6 10.75 9.2 10.65 9.1 10.2 8.4 10.0 8.1 9.9 7.9 10.0 8.05 10.75 8.85 10.95 9.0 12.85 10.35 13.8 10.85 14.25 11.1 13.95 10.8 13.45 10.2 12.5 8.9 12.15 8.45 11.6 7.5 12.55 8.25 12.75 8.4 14.45 9.55 15.4 10.0 16.55 10.55 17.65 10.95 18.85 11.4 20.25 12.0 19.4 10.3 18.35 8.6 18.2 8.4 16.95 6.9 16.6 6.45 15.45 5.35 15.3 5.25 15.25 5.2 12.65 4.25 10.9 3.3 9.65 2.35 9.6 2.3 9.3 2.05 8.25 0.8 8.0 0.4 7.85 0.15" fill="#c9e3f6" fill-rule="evenodd" stroke="none"/>
      <path d="M45.7 33.05 L46.4 33.65 46.5 33.75 46.6 33.8 47.4 34.4 48.05 34.8 48.2 34.85 48.25 34.85 48.45 35.0 48.4 35.0 47.95 35.0 47.9 35.0 47.55 35.05 47.3 35.05 46.7 35.2 46.5 35.3 46.05 35.35 45.85 35.35 45.55 35.3 45.0 35.25 44.85 35.2 44.4 35.15 44.3 35.15 43.8 35.05 43.6 35.0 43.35 34.85 42.95 34.7 42.65 34.55 42.4 34.35 42.1 34.1 41.7 33.75 41.6 33.65 41.4 33.65 41.1 33.6 41.75 33.5 42.2 33.45 42.4 33.45 43.1 33.35 43.5 33.35 43.6 33.35 43.65 33.3 43.75 33.3 44.1 33.25 44.65 33.2 45.15 33.15 45.65 33.05 45.7 33.05 M43.15 39.7 L42.7 39.7 42.65 39.7 42.4 39.75 42.25 39.75 42.1 39.85 41.6 39.95 41.4 39.9 41.3 39.85 40.8 39.65 40.6 39.5 40.6 39.45 40.7 39.35 41.2 39.25 41.25 39.25 41.5 39.3 41.9 39.3 42.1 39.35 42.55 39.45 42.9 39.5 43.2 39.55 43.5 39.7 43.15 39.7 M34.45 35.45 L33.85 35.85 33.45 36.05 32.95 35.9 32.6 35.85 32.3 35.65 32.2 35.55 32.2 35.5 32.25 35.4 32.35 35.35 32.55 35.25 33.05 35.1 33.3 35.05 33.5 35.05 33.85 35.05 34.1 35.1 34.6 35.2 34.9 35.25 35.2 35.3 35.45 35.3 34.65 35.4 34.6 35.45 Q34.55 35.35 34.5 35.4 L34.45 35.45" fill="#92e1f5" fill-rule="evenodd" stroke="none"/>
      <path d="M48.45 35.0 L48.55 35.0 48.9 35.15 49.15 35.25 49.2 35.35 49.15 35.45 49.05 35.4 48.9 35.35 48.75 35.25 48.45 35.2 48.2 35.15 48.15 35.15 48.05 35.15 47.85 35.15 47.75 35.15 47.6 35.15 47.45 35.2 47.0 35.25 46.8 35.35 46.55 35.45 46.45 35.5 46.55 35.55 46.7 35.6 47.0 35.65 47.1 35.65 47.35 35.7 48.45 35.8 48.6 35.85 48.7 35.85 48.95 35.75 49.05 35.6 49.15 35.5 49.15 35.45 49.3 35.5 49.4 35.65 49.25 35.85 48.95 36.4 48.1 37.15 48.05 37.1 47.4 36.8 46.8 36.5 46.3 36.2 46.25 36.15 46.2 36.05 46.05 35.55 46.3 35.35 46.5 35.3 46.7 35.2 47.3 35.05 47.55 35.05 47.9 35.0 47.95 35.0 48.4 35.0 48.45 35.0" fill="#202f51" fill-rule="evenodd" stroke="none"/>
      <path d="M49.15 35.45 L49.15 35.5 49.05 35.6 48.95 35.75 48.7 35.85 48.6 35.85 48.45 35.8 47.35 35.7 47.1 35.65 47.0 35.65 46.7 35.6 46.55 35.55 46.45 35.5 46.55 35.45 46.8 35.35 47.0 35.25 47.45 35.2 47.6 35.15 47.75 35.15 47.85 35.15 48.05 35.15 48.15 35.15 48.2 35.15 48.45 35.2 48.75 35.25 48.9 35.35 49.05 35.4 49.15 35.45" fill="#3481c8" fill-rule="evenodd" stroke="none"/>
      <path d="M39.45 38.35 L39.25 38.4 39.15 38.45 39.15 38.25 39.15 37.9 38.85 37.3 38.85 37.2 38.85 37.1 38.95 37.1 39.4 37.5 39.45 37.65 39.55 37.75 39.75 37.7 40.15 37.7 40.3 37.7 40.75 37.7 41.15 37.7 41.6 37.75 42.15 37.8 42.6 37.9 42.7 37.9 43.0 38.0 43.1 38.0 43.5 38.1 43.6 38.1 43.65 38.15 44.0 38.25 44.4 38.4 44.85 38.6 45.5 39.0 45.55 39.1 45.65 39.15 45.85 39.45 45.55 39.3 45.4 39.2 44.9 38.95 44.3 38.65 44.2 38.6 43.85 38.5 43.55 38.45 43.45 38.4 43.25 38.4 42.75 38.3 42.3 38.2 42.15 38.2 41.35 38.1 40.95 38.1 40.7 38.1 40.75 37.85 40.4 37.85 39.8 37.9 39.35 38.05 39.45 38.35" fill="#1f4064" fill-rule="evenodd" stroke="none"/>
      <path d="M28.0 42.05 L27.05 41.0 26.8 40.75 26.75 40.7 26.6 40.55 27.2 39.6 27.2 38.85 27.25 37.8 27.35 37.1 27.5 37.4 28.3 38.6 28.55 38.95 28.65 39.1 28.8 39.3 28.85 39.4 28.65 40.1 28.3 41.25 28.05 41.9 28.0 42.05 M27.0 36.75 L26.95 36.55 27.05 36.7 27.0 36.75 M29.35 38.15 L29.35 38.1 29.65 38.65 29.8 38.95 30.3 40.0 30.7 40.95 30.8 41.15 30.85 41.4 31.15 42.15 30.5 42.1 30.05 42.1 29.1 42.1 28.7 42.1 28.75 41.95 29.05 40.35 29.35 38.25 29.35 38.15" fill="#686db1" fill-rule="evenodd" stroke="none"/>
      <path d="M41.05 30.3 L41.15 30.45 41.25 30.65 41.5 31.1 41.75 31.4 41.6 31.5 41.05 31.8 41.0 31.8 40.85 31.85 40.6 31.95 40.15 32.15 39.55 32.2 39.1 32.25 38.8 32.3 37.95 32.4 37.8 32.4 37.25 32.45 36.4 32.45 35.7 32.4 35.35 32.35 35.05 32.3 34.85 32.3 34.5 32.05 33.8 31.55 32.75 30.6 32.4 30.25 31.8 29.55 31.0 28.45 30.35 27.45 30.25 27.25 31.45 27.05 32.6 26.95 33.75 26.9 33.9 26.9 34.4 26.9 34.55 26.95 35.8 27.3 37.3 27.8 37.45 27.85 38.1 28.15 38.65 28.3 38.65 28.35 39.8 28.8 39.85 28.85 39.95 28.9 40.3 29.4 40.8 30.0 40.8 30.05 41.05 30.3 M40.8 31.5 L40.85 31.5 40.8 31.4 40.25 30.7 39.65 29.9 39.25 29.4 38.95 29.0 38.85 28.95 38.3 28.75 38.1 28.65 37.8 28.55 37.3 28.35 37.1 28.3 36.5 28.15 36.4 28.2 36.35 28.3 36.05 28.2 34.75 27.8 34.7 27.8 33.25 27.75 31.85 27.8 31.5 27.8 31.8 28.35 32.4 29.2 32.65 29.55 33.15 30.2 33.95 31.05 34.0 31.1 34.7 31.75 35.2 32.05 35.35 32.15 35.45 32.15 36.35 32.25 37.35 32.25 37.5 32.25 37.65 32.25 37.95 32.25 38.7 32.15 39.1 32.1 39.55 32.0 40.45 31.7 40.8 31.5" fill="#0b304a" fill-rule="evenodd" stroke="none"/>
      <path d="M39.25 29.4 L39.25 29.75 39.2 30.05 39.2 30.1 39.1 30.5 39.05 30.6 38.9 30.8 38.65 31.25 38.3 31.6 38.1 31.8 37.85 31.95 37.65 32.05 37.55 32.1 37.45 32.15 36.95 32.15 36.75 32.15 36.5 32.05 35.95 31.8 35.85 31.65 35.8 31.65 35.75 31.6 35.45 31.0 35.35 30.65 35.35 30.55 35.35 30.25 35.4 29.85 35.45 29.55 35.65 29.05 35.75 28.9 35.75 28.85 35.8 28.85 35.8 28.75 36.35 28.3 36.4 28.2 36.5 28.15 37.1 28.3 37.3 28.35 37.8 28.55 38.1 28.65 38.3 28.75 38.85 28.95 38.95 29.0 39.25 29.4 M37.55 30.5 L37.45 30.6 37.2 30.9 36.9 31.1 36.75 31.1 36.6 31.05 36.6 30.85 36.6 30.25 36.6 30.05 36.8 29.4 36.7 29.4 36.35 29.35 36.0 29.3 35.8 29.6 35.8 29.7 35.75 29.8 35.75 29.9 35.7 30.15 35.7 30.2 35.8 30.9 35.95 31.25 35.95 31.3 36.1 31.55 Q36.25 31.75 36.55 31.8 L36.8 31.9 37.1 31.9 37.3 31.9 37.45 31.85 37.65 31.8 37.75 31.75 38.05 31.55 38.3 31.3 38.55 31.0 38.8 30.5 38.85 30.3 38.95 30.1 38.95 30.05 38.9 29.95 38.9 29.9 38.85 29.75 38.85 29.7 38.7 29.55 38.7 29.5 38.65 29.45 38.5 29.4 38.35 29.4 38.25 29.4 38.15 29.4 38.05 29.45 38.0 29.45 38.0 29.5 37.95 29.5 37.95 29.55 37.7 29.8 37.55 30.15 37.5 30.45 37.55 30.5" fill="#380700" fill-rule="evenodd" stroke="none"/>
      <path d="M40.8 31.5 L40.6 31.4 40.1 31.1 39.35 30.7 39.05 30.6 39.1 30.5 39.2 30.1 39.2 30.05 39.25 29.85 39.25 29.75 39.25 29.4 39.65 29.9 40.25 30.7 40.8 31.4 40.85 31.5 40.8 31.5 M35.4 29.85 L34.8 29.85 33.7 30.1 33.95 31.05 33.15 30.2 32.65 29.55 32.4 29.2 31.8 28.35 31.5 27.8 31.85 27.8 33.25 27.75 34.7 27.8 34.75 27.8 36.05 28.2 36.35 28.3 35.8 28.75 35.8 28.85 35.75 28.85 35.75 28.9 35.65 29.05 35.45 29.55 35.4 29.85" fill="#cce9f1" fill-rule="evenodd" stroke="none"/>
      <path d="M37.55 30.5 L37.5 30.45 37.55 30.15 37.7 29.8 37.95 29.55 37.95 29.5 38.0 29.5 38.0 29.45 38.05 29.45 38.15 29.4 38.25 29.4 38.35 29.4 38.5 29.4 38.65 29.45 38.7 29.5 38.7 29.55 38.85 29.7 38.85 29.75 38.9 29.9 38.9 29.95 38.95 30.05 38.95 30.1 38.85 30.25 38.85 30.3 38.65 30.6 38.55 30.7 38.45 30.8 38.2 30.9 37.85 30.85 37.75 30.8 37.65 30.65 37.55 30.5" fill="#effbf7" fill-rule="evenodd" stroke="none"/>
      <path d="M39.05 30.6 L39.35 30.7 40.1 31.1 40.6 31.4 40.8 31.5 40.45 31.7 39.55 32.0 39.1 32.1 38.7 32.15 37.95 32.25 37.65 32.25 37.5 32.25 37.35 32.25 36.35 32.25 35.45 32.15 35.35 32.15 35.2 32.05 34.7 31.75 34.0 31.1 33.95 31.05 33.7 30.1 34.8 29.85 35.4 29.85 35.35 30.25 35.35 30.55 35.35 30.65 35.45 31.0 35.75 31.6 35.8 31.65 35.85 31.65 35.95 31.8 36.2 32.0 36.75 32.15 36.95 32.15 37.45 32.15 37.55 32.1 37.65 32.05 37.85 31.95 38.1 31.8 38.3 31.6 38.65 31.25 38.9 30.8 39.05 30.6" fill="#fffbf3" fill-rule="evenodd" stroke="none"/>
      <path d="M38.85 30.3 L38.8 30.5 38.55 31.0 38.3 31.3 38.05 31.55 37.75 31.75 37.65 31.8 37.45 31.85 37.3 31.9 37.1 31.9 36.8 31.9 36.55 31.8 Q36.25 31.75 36.1 31.55 L35.95 31.3 35.95 31.25 35.8 30.9 35.7 30.2 35.7 30.15 35.75 29.9 35.75 29.8 35.8 29.7 35.8 29.6 36.0 29.3 36.35 29.35 36.7 29.4 36.8 29.4 36.6 30.05 36.6 30.25 36.6 30.85 36.6 31.05 36.75 31.1 36.9 31.1 37.2 30.9 37.45 30.6 37.55 30.5 37.65 30.65 37.75 30.8 37.85 30.85 38.2 30.9 38.45 30.8 38.55 30.7 38.65 30.6 38.85 30.3 M36.05 30.8 L36.2 31.35 36.25 31.35 36.45 31.35 36.55 31.35 36.55 31.3 36.5 31.05 36.25 30.7 36.15 30.65 36.1 30.6 36.05 30.65 36.05 30.8 M37.85 31.45 L37.9 31.4 37.95 31.3 37.95 31.25 37.85 31.25 37.75 31.2 37.45 31.0 37.2 31.35 37.1 31.4 36.9 31.5 36.75 31.5 36.6 31.5 36.75 31.65 37.1 31.7 37.3 31.7 37.45 31.65 37.85 31.45" fill="#871f21" fill-rule="evenodd" stroke="none"/>
      <path d="M36.05 30.8 L36.05 30.65 36.1 30.6 36.15 30.65 36.25 30.7 36.5 31.05 36.55 31.3 36.55 31.35 36.45 31.35 36.25 31.35 36.2 31.35 36.05 30.8 M37.85 31.45 L37.45 31.65 37.3 31.7 37.1 31.7 36.75 31.65 36.6 31.5 36.75 31.5 36.9 31.5 37.1 31.4 37.2 31.35 37.45 31.0 37.75 31.2 37.85 31.25 37.95 31.25 37.95 31.3 37.9 31.4 37.85 31.45" fill="#b82528" fill-rule="evenodd" stroke="none"/>
      <path d="M22.5 29.5 L22.4 29.45 22.05 29.3 21.5 29.1 21.15 28.95 19.5 28.3 18.6 27.8 17.95 27.4 17.65 27.25 17.55 27.2 17.55 26.95 17.55 26.65 17.6 26.6 Q17.65 26.5 17.85 26.4 L18.0 26.35 Q18.9 25.85 20.0 25.7 L20.1 25.65 20.8 25.5 20.9 25.5 21.4 25.85 21.55 26.0 21.65 26.1 22.1 26.5 22.25 26.7 22.2 26.7 21.85 26.95 21.85 27.05 Q21.7 27.5 22.1 27.8 L22.45 28.15 22.5 28.15 22.9 28.35 23.6 28.55 23.7 29.0 23.65 29.35 23.4 29.7 23.2 29.65 22.5 29.5 M20.15 27.05 L21.05 26.95 20.8 26.55 20.65 26.55 20.65 26.5 19.95 26.3 19.5 26.5 19.4 26.6 19.3 26.75 19.9 27.0 20.15 27.05" fill="#26d1e0" fill-rule="evenodd" stroke="none"/>
      <path d="M20.15 27.05 L19.9 27.0 19.3 26.75 19.4 26.6 19.5 26.5 19.95 26.3 20.65 26.5 20.65 26.55 20.8 26.55 21.05 26.95 20.15 27.05 M22.25 26.7 L22.3 26.75 22.45 26.9 22.9 27.5 23.1 27.75 23.2 27.95 23.5 28.4 23.6 28.55 22.9 28.35 22.5 28.15 22.45 28.15 22.1 27.8 Q21.7 27.5 21.85 27.05 L21.85 26.95 22.2 26.7 22.25 26.7" fill="#94f8ff" fill-rule="evenodd" stroke="none"/>
      <path d="M22.25 26.7 L22.4 26.65 23.5 26.55 23.8 26.65 Q24.05 26.7 24.25 26.9 L24.4 27.05 24.75 27.4 24.95 27.8 25.0 28.35 24.85 28.65 24.65 28.65 24.3 28.65 23.8 28.6 23.6 28.55 23.5 28.4 23.2 27.95 23.1 27.75 22.9 27.5 22.45 26.9 22.3 26.75 22.25 26.7" fill="#69e8ff" fill-rule="evenodd" stroke="none"/>
      <path d="M30.15 -1.5 L31.05 -1.5 32.3 -0.15 32.85 0.55 34.15 2.3 36.05 5.05 38.25 8.2 38.7 8.9 39.35 9.95 39.85 10.85 39.85 10.9 39.9 10.9 39.9 11.05 40.3 13.35 40.75 15.35 40.8 15.4 40.9 16.35 40.9 16.5 42.15 19.95 42.95 23.55 43.0 24.15 41.15 24.2 39.25 24.05 37.8 23.85 37.05 23.55 36.95 23.5 36.65 23.35 36.2 23.15 36.15 22.3 36.2 20.95 36.4 19.7 36.45 19.35 36.7 17.8 38.65 18.35 39.55 18.45 40.4 18.35 40.45 18.35 40.8 17.9 40.85 17.85 40.85 17.75 40.85 17.7 40.9 17.4 40.85 16.3 40.85 16.2 40.8 16.0 40.45 16.0 40.3 15.75 40.15 15.15 40.35 15.1 39.6 13.5 39.2 12.65 39.1 12.4 38.55 11.15 38.5 11.1 38.35 10.7 38.1 10.3 37.35 9.35 36.9 8.6 35.8 6.9 35.8 6.45 35.6 5.65 34.65 4.0 33.95 3.1 33.85 2.95 33.35 2.85 33.15 2.85 32.85 2.8 30.8 0.65 Q30.5 2.1 30.55 3.55 L30.6 5.7 30.2 2.7 30.1 -1.0 30.15 -1.5 M36.65 10.4 L37.15 11.2 35.45 11.35 35.1 11.25 35.15 11.2 35.45 11.0 36.1 10.65 36.65 10.4 M39.55 15.2 L39.95 16.0 40.0 16.05 39.55 16.05 38.5 16.15 37.8 16.1 37.9 16.0 Q38.6 15.4 39.55 15.2 M32.75 5.5 L33.0 6.1 32.65 6.1 32.25 6.15 Q32.05 6.15 31.95 6.0 L32.25 5.8 32.6 5.6 32.75 5.5" fill="#eebc4b" fill-rule="evenodd" stroke="none"/>
      <path d="M39.9 10.9 L40.25 11.65 41.9 15.2 43.15 18.3 43.6 19.45 43.65 19.55 43.75 20.1 43.95 20.85 44.55 23.0 44.8 23.85 45.15 25.55 45.1 25.55 44.25 25.45 43.05 25.2 41.8 24.95 41.7 24.95 40.55 24.65 39.6 24.4 38.3 24.0 37.8 23.85 39.25 24.05 41.15 24.2 43.0 24.15 42.95 23.55 42.15 19.95 40.9 16.5 40.9 16.35 40.8 15.4 40.75 15.35 40.3 13.35 39.9 11.05 39.9 10.9" fill="#e36f3d" fill-rule="evenodd" stroke="none"/>
      <path d="M40.45 16.0 L40.65 17.1 40.75 17.65 40.0 16.05 39.95 16.0 39.55 15.2 39.4 15.0 38.45 13.3 37.45 11.65 37.15 11.2 36.65 10.4 36.45 10.15 36.15 9.65 36.15 9.45 36.25 9.2 Q36.45 9.0 36.7 8.95 L36.95 9.05 37.35 9.35 38.1 10.3 38.35 10.7 38.5 11.1 38.55 11.15 39.1 12.4 39.2 12.65 39.9 14.4 40.15 15.15 40.3 15.75 40.45 16.0 M33.15 2.85 L33.35 2.85 33.85 2.95 33.95 3.1 34.65 4.0 35.6 5.65 35.8 6.45 35.8 6.9 35.8 7.15 35.6 7.7 35.25 7.95 Q34.45 8.2 33.95 7.55 L33.2 6.45 33.0 6.1 32.75 5.5 32.6 5.1 32.5 3.95 32.7 3.15 32.9 2.9 33.15 2.85" fill="#f8ffde" fill-rule="evenodd" stroke="none"/>
      <path d="M40.45 16.0 L40.8 16.0 40.85 16.2 40.85 16.3 40.9 17.4 40.85 17.7 40.85 17.75 40.85 17.85 40.8 17.9 40.45 18.35 40.4 18.35 39.55 18.45 38.65 18.35 36.7 17.8 36.7 17.65 36.9 16.55 36.15 15.25 35.3 13.8 34.7 12.85 33.4 10.75 31.65 7.85 30.7 6.25 30.6 5.7 30.55 3.55 Q30.5 2.1 30.8 0.65 L32.85 2.8 32.9 2.9 32.7 3.15 32.5 3.95 32.6 5.1 32.75 5.5 32.6 5.6 32.25 5.8 31.95 6.0 Q32.05 6.15 32.25 6.15 L32.65 6.1 33.0 6.1 33.2 6.45 33.95 7.55 Q34.45 8.2 35.25 7.95 L35.6 7.7 35.8 7.15 35.8 6.9 36.9 8.6 37.35 9.35 36.95 9.05 36.7 8.95 Q36.45 9.0 36.25 9.2 L36.15 9.45 36.15 9.65 36.45 10.15 36.65 10.4 36.1 10.65 35.45 11.0 35.15 11.2 35.1 11.25 35.45 11.35 37.15 11.2 37.45 11.65 38.45 13.3 39.4 15.0 39.55 15.2 Q38.6 15.4 37.9 16.0 L37.8 16.1 38.5 16.15 39.55 16.05 40.0 16.05 40.75 17.65 40.65 17.1 40.45 16.0 M40.15 15.15 L39.9 14.4 39.2 12.65 39.6 13.5 40.35 15.1 40.15 15.15" fill="#f6e679" fill-rule="evenodd" stroke="none"/>
      <path d="M17.05 2.8 L17.3 2.9 18.2 3.35 18.75 3.6 20.85 4.85 22.4 6.0 23.5 7.05 23.55 6.85 23.75 5.25 23.95 4.15 24.05 3.75 25.1 0.85 25.1 0.75 25.15 0.8 25.7 1.25 M44.15 42.0 L44.05 43.0 44.05 43.3 44.1 44.45 44.2 45.35 44.45 46.0 43.6 45.95 42.95 45.85 42.75 46.55 42.25 47.85 42.2 47.95 41.75 48.7 41.45 47.75 41.3 47.05 40.95 46.1 40.6 46.65 39.55 47.5 38.8 47.9 38.1 48.3 37.85 48.4 37.9 48.2 38.0 47.6 37.95 46.3 37.8 45.8 37.7 45.6 37.4 44.95 37.3 44.75 37.15 44.45 37.0 44.25 36.85 44.05 36.85 44.0 Q36.4 43.6 35.8 43.25 L35.2 42.9 34.75 42.65 34.45 42.5 34.3 42.45 33.85 42.4 32.8 42.25 32.15 42.2 32.05 42.2 31.35 42.2 31.15 42.15 30.5 42.1 30.05 42.1 29.1 42.1 28.7 42.1 28.5 42.8 27.45 45.2 25.95 47.45 24.95 48.7 24.45 49.25 23.95 49.85 22.6 51.0 21.7 51.7 21.3 52.0 21.2 52.15 19.3 53.8 19.05 54.05 18.85 54.6 M-1.5 35.45 L0.9 36.0 1.25 35.55 2.85 33.8 4.2 32.4 2.5 32.75 -0.55 33.3 -1.5 33.45 M3.2 4.6 L4.45 4.9 4.65 4.95 5.15 5.1 5.85 5.3 6.4 5.55 6.3 5.15 6.15 4.4 6.1 4.15 6.0 3.2 6.0 2.45 6.0 0.65 6.0 0.2 6.05 -0.5 6.1 -0.85 6.2 -1.5 M6.7 -1.5 L7.2 -0.6 7.85 0.15 8.4 0.6 9.2 1.1 11.25 1.4 11.5 1.45 11.55 1.45 13.65 1.9 15.35 2.3 16.25 2.55 16.55 2.65 17.05 2.8 M-1.5 26.8 L-1.35 26.8 0.15 26.8 2.0 25.7 3.15 25.1 3.9 24.8 6.35 24.05 7.75 23.75 8.4 23.65 9.65 23.65 M-1.5 30.65 L-1.05 30.7 -1.35 30.5 -1.5 30.4 M-1.5 40.4 L-1.2 40.35 -1.45 40.35 -1.5 40.35 M-0.5 45.65 L-1.5 45.6 M-0.6 51.1 L-1.5 51.5 M25.9 31.75 L26.3 32.25 26.6 32.6 26.75 32.75 27.8 34.3 28.8 36.3 28.8 36.35 28.9 36.6 29.15 37.5 29.35 38.15 29.35 38.25 29.05 40.35 28.75 41.95 28.7 42.1 M26.7 35.1 L26.65 34.9 M16.65 34.0 L15.4 34.6 13.35 35.2 11.65 35.7 10.0 36.15 8.25 36.55 6.6 36.85 5.0 37.05 4.95 37.05 6.55 37.55 8.35 38.1 M8.4 41.25 L8.25 41.9 7.75 43.45 7.35 44.05 8.5 43.25 9.5 42.55 11.3 41.2 11.7 40.8 12.0 40.6 12.0 40.7 11.8 41.1 11.35 42.25 10.85 43.7 10.55 44.65 10.15 46.3 10.0 46.95 9.35 48.35 8.85 49.35 8.6 49.85 8.4 50.2 7.55 51.4 7.5 51.45 7.55 51.45 7.9 51.35 8.95 51.1 10.0 50.75 11.45 50.15 11.9 49.95 12.05 49.85 12.25 49.75 13.85 48.7 Q14.3 48.35 14.9 47.95 L16.8 46.4 Q17.15 46.15 16.65 47.1 16.1 48.0 15.95 49.15 L15.9 49.85 Q15.8 50.85 15.85 51.85 L15.9 52.65 16.15 54.35 16.25 54.6 M2.3 45.45 L2.65 45.35 5.3 44.75 5.7 44.65 6.85 44.35 7.0 44.25 7.35 44.05 6.6 45.1 4.95 47.65 4.0 48.35 M28.0 42.05 L27.05 41.0 26.8 40.75 26.75 40.7 26.6 40.55 M27.0 36.75 L26.95 36.55 26.85 35.8 M4.95 37.05 L2.0 37.25 -0.05 37.3 0.9 36.0 M23.95 29.85 L23.9 29.9 M23.2 29.65 L23.35 29.75 M25.5 31.45 L25.9 31.75 M26.85 35.6 L26.7 35.1" fill="none" stroke="#5e669c" stroke-linecap="round" stroke-linejoin="round" stroke-width="1.0"/>
      <path d="M6.3 5.15 L5.45 4.2 5.1 3.75 4.85 3.5 4.45 3.15 3.75 2.3 2.8 1.15 2.65 0.9 1.3 -0.7 1.2 -0.8 0.65 -1.5 M10.6 -1.5 L11.05 -1.2 11.75 -0.7 16.9 2.7 17.05 2.8 M-1.5 2.0 L-1.4 2.05 -0.8 2.35 -0.3 2.6 0.5 3.05 1.45 3.55 3.2 4.6 4.75 5.5 7.5 7.1 9.0 8.05 9.15 8.2 10.75 9.2 11.25 9.6 12.2 10.2 15.0 12.05 17.2 13.55 18.45 14.45 18.65 14.65 19.25 15.05 19.5 15.65 19.85 16.4 19.95 16.65 20.55 17.9 21.7 19.8 23.05 21.65 23.4 22.1 23.75 22.55 25.0 23.95 25.05 24.0 26.2 25.05 26.3 25.15 26.6 25.7 26.65 25.8 27.4 27.25 28.9 30.5 29.5 32.0 27.15 31.75 25.8 31.5 25.5 31.45 24.95 31.3 22.65 30.7 20.45 30.05 19.7 29.8 18.3 29.35 16.95 28.9 16.35 28.7 13.6 27.6 13.3 27.5 12.6 27.2 11.55 25.8 10.5 24.4 10.25 24.2 9.65 23.65 7.85 21.85 7.1 21.3 6.5 20.9 5.8 20.35 2.75 18.05 1.0 16.75 0.9 16.7 -0.85 15.5 -1.5 15.1" fill="none" stroke="#791d12" stroke-linecap="round" stroke-linejoin="round" stroke-width="1.0"/>
      <path d="M0.35 42.0 L-0.05 41.05 -0.1 41.55 -0.2 42.35 -0.5 45.65 -0.6 49.35 -0.6 49.85 -0.6 51.1 -0.5 54.6 M0.5 42.35 L0.5 42.4 1.55 44.25 2.3 45.45 2.35 45.5 3.25 47.2 4.0 48.35 4.5 49.05 5.0 49.85 5.75 50.9 5.9 51.05 7.6 53.35 8.6 54.6 M0.35 42.0 L0.5 42.35" fill="none" stroke="#ad4f3d" stroke-linecap="round" stroke-linejoin="round" stroke-width="1.0"/>
      <path d="M25.7 1.25 L25.5 -1.2 25.5 -1.3 25.55 -1.5 M45.15 25.55 L45.2 25.8 45.7 28.2 45.85 29.2 45.6 29.2 43.1 28.85 42.85 28.8 40.45 28.3 39.3 28.0 36.35 27.2 35.7 27.0 32.75 26.0 32.6 25.95 31.45 25.4 31.05 25.1 31.3 23.6 31.4 23.0 31.3 23.3 29.6 22.5 28.75 22.2 28.3 22.05 27.8 21.95 26.85 21.8 25.9 21.6 24.95 21.55 23.35 21.6 23.05 21.65 M29.25 53.45 L29.3 53.35 31.15 51.6 32.35 50.55 32.4 53.55 32.4 54.6 M25.85 15.5 L26.55 15.4 27.5 15.3 28.05 15.25 28.15 15.35 27.95 14.8 27.15 11.6 26.4 7.75 26.05 5.75 25.85 3.65 25.7 1.8 25.7 1.25 M19.95 16.65 L20.55 16.45 20.65 16.45 21.85 16.1 22.65 16.0 23.55 15.8 24.55 15.65 25.5 15.5 25.85 15.5 M31.4 23.0 L31.35 22.0 31.15 20.5 30.05 18.5 29.9 18.3 28.3 15.75 28.15 15.35 M28.95 53.7 L28.05 54.45 27.9 54.6 M29.25 53.45 L28.95 53.7" fill="none" stroke="#b16b49" stroke-linecap="round" stroke-linejoin="round" stroke-width="1.0"/>
      <path d="M43.1 28.85 L43.2 29.45 43.5 30.55 43.5 30.6 43.7 31.45 44.3 31.95 44.55 32.15 45.0 32.5 45.3 32.8 45.7 33.05 46.4 33.65 46.5 33.75 46.6 33.8 47.4 34.4 48.05 34.8 48.2 34.85 48.25 34.85 48.45 35.0 48.55 35.0 48.9 35.15 49.15 35.25 49.2 35.35 49.3 35.5 49.4 35.65 49.25 35.85 48.95 36.4 48.1 37.15 47.85 37.35 47.8 37.85 47.75 37.9 47.75 38.0 47.65 38.45 47.65 38.55 47.55 38.95 47.35 39.05 46.4 39.4 46.2 39.45 46.2 39.5 46.2 40.35 46.15 40.65 46.05 41.15 46.05 41.25 44.75 41.65 44.45 41.8 44.2 41.9 44.15 42.0 M32.15 42.2 Q31.25 42.45 30.45 42.9 L29.9 43.15 28.65 44.05 28.0 44.55 28.0 44.6 27.85 45.1 27.6 45.85 27.5 46.45 27.4 47.3 27.35 48.15 27.7 49.85 28.05 50.9 28.4 51.5 28.75 52.25 29.25 53.45 M28.3 22.05 L27.7 22.8 27.05 23.65 26.5 24.5 26.2 25.05 M25.8 31.5 L25.9 31.75 M8.65 38.0 L8.65 37.0 10.6 36.5 13.8 35.85 M19.65 35.1 L19.7 35.1 20.3 35.05 M21.5 35.0 L22.2 34.95 M26.3 35.05 L26.7 35.1 M26.65 34.9 L26.6 34.65 26.35 33.45 26.2 32.75 M25.2 30.2 L25.15 30.1" fill="none" stroke="#0b304a" stroke-linecap="round" stroke-linejoin="round" stroke-width="1.0"/>
      <path d="M31.05 -1.5 L32.3 -0.15 32.85 0.55 34.15 2.3 36.05 5.05 38.25 8.2 38.7 8.9 39.35 9.95 39.85 10.85" fill="none" stroke="#c66d00" stroke-linecap="round" stroke-linejoin="round" stroke-width="1.0"/>
      <path d="M39.85 10.85 L39.85 10.9 M39.9 10.9 L40.25 11.65 41.9 15.2 43.15 18.3 43.6 19.45 43.65 19.55 43.75 20.1 43.95 20.85 44.55 23.0 44.8 23.85 45.15 25.55" fill="none" stroke="#cd4227" stroke-linecap="round" stroke-linejoin="round" stroke-width="1.0"/>
    </g>
    <g id="shape2" transform="matrix(1.0, 0.0, 0.0, 1.0, 0.0, 0.0)">
      <path d="M50.5 0.0 Q53.95 0.0 53.95 3.3 L53.95 50.15 Q53.95 53.4 50.5 53.4 L3.3 53.4 Q0.0 53.4 0.0 50.15 L0.0 3.3 Q0.0 0.0 3.3 0.0 L50.5 0.0" fill="#000000" fill-opacity="0.003921569" fill-rule="evenodd" stroke="none"/>
    </g>
  </defs>
</svg>
