<?xml version="1.0" encoding="UTF-8" standalone="no"?>
<svg xmlns:ffdec="https://www.free-decompiler.com/flash" xmlns:xlink="http://www.w3.org/1999/xlink" ffdec:objectType="frame" height="67.35px" width="67.25px" xmlns="http://www.w3.org/2000/svg">
  <g transform="matrix(1.0, 0.0, 0.0, 1.0, 9.95, 8.1)">
    <clipPath id="clipPath0" transform="matrix(1.0, 0.0, 0.0, 1.0, 0.0, 0.0)">
      <path d="M50.5 0.0 Q53.95 0.0 53.95 3.3 L53.95 50.15 Q53.95 53.4 50.5 53.4 L3.3 53.4 Q0.0 53.4 0.0 50.15 L0.0 3.3 Q0.0 0.0 3.3 0.0 L50.5 0.0" fill="#000000" fill-rule="evenodd" stroke="none"/>
    </clipPath>
    <g clip-path="url(#clipPath0)">
      <use ffdec:characterId="2" height="67.35" transform="matrix(1.0, 0.0, 0.0, 1.0, -9.95, -8.1)" width="67.25" xlink:href="#shape1"/>
    </g>
    <use ffdec:characterId="3" height="53.4" transform="matrix(1.0, 0.0, 0.0, 1.0, 0.0, 0.0)" width="53.95" xlink:href="#shape2"/>
  </g>
  <defs>
    <g id="shape1" transform="matrix(1.0, 0.0, 0.0, 1.0, 9.95, 8.1)">
      <path d="M41.25 58.75 L35.9 58.75 39.45 53.8 40.0 53.1 41.25 58.75 M31.1 50.75 L31.2 50.85 31.0 50.85 31.2 50.85 33.65 50.7 39.3 50.1 39.75 52.0 37.1 52.15 36.25 52.3 36.05 52.3 35.3 52.5 Q33.95 52.75 32.55 53.3 L32.45 53.35 31.9 53.6 30.4 54.3 30.0 54.55 29.9 54.55 30.0 54.75 29.85 54.85 Q28.35 55.85 27.8 56.35 L27.3 56.75 27.3 56.45 27.3 56.35 27.3 56.1 27.8 54.85 32.85 42.2 Q33.45 44.7 32.55 47.65 L32.25 48.45 31.4 49.85 30.8 50.5 30.65 50.85 30.9 50.85 30.65 50.85 30.8 50.5 31.0 50.65 31.1 50.75 M39.25 53.25 L39.45 53.25 39.45 53.8 39.25 53.25 M31.0 50.85 L30.9 50.85 30.8 51.05 31.0 50.85" fill="url(#gradient0)" fill-rule="evenodd" stroke="none"/>
      <path d="M42.0 49.6 L44.95 58.75 41.25 58.75 40.0 53.1 40.7 52.05 39.75 52.0 39.3 50.1 42.0 49.6" fill="url(#gradient1)" fill-rule="evenodd" stroke="none"/>
      <path d="M38.55 27.0 L41.2 33.25 41.7 33.85 42.7 34.0 42.75 33.9 42.75 34.0 43.05 33.9 44.05 33.6 44.4 33.5 45.8 33.95 45.95 33.95 46.0 35.4 45.9 36.85 43.2 34.05 Q43.1 35.7 42.6 37.3 42.0 39.25 40.75 41.1 L40.55 41.4 39.55 42.9 38.4 44.6 38.15 44.95 Q36.5 47.0 31.1 50.75 L31.0 50.65 31.4 49.85 32.25 48.45 32.55 47.65 Q33.45 44.7 32.85 42.2 L32.65 41.6 33.75 40.8 Q36.1 38.9 36.5 35.75 L36.6 34.85 36.7 32.75 36.75 32.2 37.2 29.5 Q37.6 28.25 38.55 27.0 M42.7 34.0 L42.75 34.0 42.7 34.0 M30.9 50.85 L31.0 50.85 30.8 51.05 30.9 50.85" fill="#162d77" fill-rule="evenodd" stroke="none"/>
      <path d="M-9.45 48.05 L-8.0 49.2 -5.55 51.2 -3.65 56.6 -3.25 56.55 -3.1 56.8 -2.95 57.15 -3.15 57.2 -3.35 56.95 -5.5 58.75 -9.45 58.75 -9.45 48.05 M-3.1 56.8 L-3.35 56.95 -3.1 56.8 M56.8 39.95 L56.8 48.3 Q55.25 48.6 54.4 49.85 L53.0 52.2 49.95 49.15 47.65 46.9 Q49.45 45.3 50.3 43.15 L51.15 43.0 53.15 42.3 53.95 41.85 Q55.3 40.95 56.0 39.75 L56.8 39.95" fill="url(#gradient2)" fill-rule="evenodd" stroke="none"/>
      <path d="M48.75 -5.4 L49.75 -4.85 Q50.35 -4.2 50.35 -3.35 L50.1 -2.35 49.75 -1.9 Q49.1 -1.25 48.25 -1.25 47.4 -1.25 46.8 -1.9 46.15 -2.5 46.15 -3.35 L46.25 -3.85 Q46.35 -4.4 46.8 -4.85 47.4 -5.45 48.25 -5.45 L48.75 -5.4 M-5.9 50.25 L-6.6 48.3 -5.45 48.6 -5.0 48.7 -3.2 49.4 -2.4 49.75 -3.1 49.7 Q-3.45 49.7 -3.7 49.95 L-3.85 50.1 -4.1 50.5 -4.1 50.85 -5.55 49.9 -5.75 49.75 -5.9 50.25 M45.9 11.9 L45.35 12.8 Q44.85 13.3 44.2 13.45 L43.85 13.45 Q43.1 13.45 42.55 12.95 L42.4 12.8 42.35 12.75 Q41.8 12.2 41.75 11.5 L41.75 11.35 Q41.75 10.8 42.05 10.3 L42.4 9.85 Q43.0 9.25 43.85 9.25 44.7 9.25 45.35 9.85 45.95 10.5 45.95 11.35 L45.9 11.9 M41.7 33.85 L42.7 33.3 43.7 32.65 Q43.4 32.15 43.4 31.55 43.4 30.55 44.1 29.85 44.8 29.15 45.8 29.15 46.5 29.15 47.05 29.55 L47.15 29.45 48.55 27.15 50.5 27.0 52.95 26.2 52.95 26.3 52.0 27.7 49.5 28.6 49.05 28.75 48.9 28.95 47.85 30.35 48.2 31.35 48.2 31.55 48.2 31.65 Q48.15 32.5 47.5 33.15 L47.45 33.2 Q46.8 33.9 45.95 33.95 L45.8 33.95 44.4 33.5 44.2 33.3 43.05 33.9 42.75 34.0 42.75 33.9 42.7 34.0 41.7 33.85 M5.55 9.0 L6.0 8.95 Q6.85 8.95 7.5 9.55 8.1 10.2 8.1 11.05 8.1 11.9 7.5 12.5 6.85 13.15 6.0 13.15 L5.35 13.05 4.55 12.5 Q3.9 11.9 3.9 11.05 3.9 10.2 4.55 9.55 5.0 9.1 5.55 9.0 M11.65 48.8 L11.7 48.65 11.6 46.85 11.6 46.75 11.5 45.5 11.6 45.55 12.65 46.15 12.5 46.45 12.3 47.15 12.3 47.35 12.75 48.7 13.05 49.4 12.75 49.25 11.65 48.8 M39.75 52.0 L40.7 52.05 40.0 53.1 39.45 53.8 39.45 53.25 39.25 53.25 37.6 53.85 37.65 53.5 Q37.65 52.75 36.9 52.45 L36.25 52.3 37.1 52.15 39.75 52.0" fill="#ffffff" fill-rule="evenodd" stroke="none"/>
      <path d="M-5.5 58.75 L-3.35 56.95 -3.15 57.2 -2.95 57.15 -2.0 58.75 -5.5 58.75" fill="url(#gradient3)" fill-rule="evenodd" stroke="none"/>
      <path d="M-9.45 46.8 L-6.8 47.35 -5.45 48.6 -6.6 48.3 -5.9 50.25 -5.55 51.2 -8.0 49.2 -9.45 48.05 -9.45 46.8 M-5.55 49.9 L-5.9 50.25 -5.75 49.75 -5.55 49.9" fill="#e9f0ff" fill-rule="evenodd" stroke="none"/>
      <path d="M56.8 29.05 L56.8 37.45 56.65 37.45 56.65 36.95 Q56.65 34.85 55.65 33.3 L54.95 32.5 56.8 29.05" fill="url(#gradient4)" fill-rule="evenodd" stroke="none"/>
      <path d="M56.8 37.45 L56.8 39.95 56.0 39.75 56.2 39.35 56.65 37.45 56.8 37.45" fill="url(#gradient5)" fill-rule="evenodd" stroke="none"/>
      <path d="M53.05 26.15 Q54.7 23.5 55.75 20.6 L56.8 19.95 56.8 29.05 54.95 32.5 55.65 33.3 Q56.65 34.85 56.65 36.95 L56.65 37.45 56.2 39.35 56.0 39.75 Q55.3 40.95 53.95 41.85 L53.15 42.3 51.1 42.5 50.5 42.5 Q50.85 41.1 50.85 39.5 50.85 37.4 49.3 33.85 L49.9 33.0 Q51.0 31.75 52.55 31.65 L52.8 31.65 Q54.0 31.65 54.95 32.5 54.0 31.65 52.8 31.65 L52.55 31.65 Q51.0 31.75 49.9 33.0 L49.3 33.85 48.35 31.9 48.3 31.9 48.2 31.65 48.2 31.55 48.2 31.35 Q50.3 29.8 52.0 27.7 L52.95 26.3 53.05 26.15" fill="url(#gradient6)" fill-rule="evenodd" stroke="none"/>
      <path d="M55.75 20.6 L56.3 18.95 56.8 18.65 56.8 19.95 55.75 20.6 M50.5 42.5 L51.1 42.5 53.15 42.3 51.15 43.0 50.3 43.15 50.5 42.5" fill="url(#gradient7)" fill-rule="evenodd" stroke="none"/>
      <path d="M12.65 33.15 Q10.75 32.7 9.0 31.2 L8.5 30.75 8.25 30.4 8.6 29.4 Q9.15 28.2 10.0 28.2 L10.5 28.3 Q10.7 30.0 11.4 31.0 11.9 31.75 12.7 32.1 L12.75 32.5 12.65 33.15 M33.5 33.4 Q32.55 34.95 31.1 34.95 L30.8 34.85 30.7 34.5 30.7 34.25 30.9 33.6 31.05 33.55 31.8 33.75 Q32.65 33.75 33.0 32.75 L33.05 32.75 Q33.45 32.9 33.5 33.4" fill="#4decff" fill-rule="evenodd" stroke="none"/>
      <path d="M4.1 30.25 Q3.45 28.65 3.25 26.8 L3.25 26.65 3.2 25.4 Q3.2 23.3 3.6 21.8 4.0 20.5 4.75 19.45 L5.45 18.75 5.5 19.0 6.1 20.6 5.35 22.1 Q4.75 23.75 4.7 25.1 L4.65 25.5 4.9 28.0 5.1 29.05 5.9 31.95 Q6.4 33.0 7.7 34.3 L8.15 35.0 7.5 34.6 Q6.35 33.8 5.45 32.65 L5.25 32.4 4.5 31.05 4.35 30.9 4.1 30.25 M7.1 23.0 L7.35 23.6 7.35 23.8 7.2 24.8 7.15 26.0 7.15 26.3 7.15 26.6 7.15 27.7 6.95 26.65 6.9 26.3 6.9 26.25 6.85 25.25 6.85 24.8 6.9 23.9 7.1 23.0 M15.65 21.95 L16.2 20.75 Q18.2 22.45 19.6 24.8 20.55 26.3 20.95 28.05 L20.95 28.15 21.1 28.65 Q20.7 30.15 19.9 31.45 L19.5 32.05 19.25 32.45 19.2 32.5 18.05 33.75 18.05 33.7 18.0 33.7 18.2 33.45 19.05 32.3 19.25 31.9 17.5 33.2 15.9 33.8 15.3 33.9 14.7 33.95 12.05 33.55 Q10.2 32.9 8.9 31.3 L9.0 31.2 Q10.75 32.7 12.65 33.15 L13.85 33.4 14.25 33.4 15.65 33.2 Q16.8 32.9 17.8 32.05 L18.15 31.75 19.15 30.4 19.8 28.5 19.9 27.7 19.9 27.55 19.9 27.35 Q19.85 26.2 19.15 25.4 L18.35 24.8 17.6 23.85 17.15 23.3 15.65 21.95 M30.55 28.75 L31.65 28.05 31.25 28.8 31.0 29.4 30.7 30.2 30.65 30.4 30.6 30.55 30.3 31.7 30.25 31.75 29.95 33.0 30.05 33.85 Q30.15 34.4 30.4 34.65 L30.55 34.8 30.8 34.85 31.1 34.95 Q32.55 34.95 33.5 33.4 L33.85 32.8 34.3 31.75 34.65 30.3 34.7 30.25 34.7 30.2 35.0 28.9 34.8 27.7 34.7 25.95 35.5 25.35 Q35.95 25.55 36.3 26.0 37.0 26.9 37.0 28.35 L36.85 29.4 36.8 29.95 36.75 30.1 36.4 31.45 36.05 32.35 34.2 35.1 34.15 35.1 33.9 35.4 33.9 35.35 33.95 35.3 34.05 35.05 35.0 32.95 35.35 32.05 35.7 30.75 36.0 29.15 Q36.0 28.15 35.6 27.15 L35.4 26.75 35.45 28.35 35.25 30.45 34.85 31.9 34.55 32.55 Q34.05 33.85 33.35 34.5 32.6 35.3 31.5 35.3 L31.0 35.3 30.95 35.3 30.45 35.05 30.4 35.0 30.3 34.85 30.25 34.85 30.25 34.8 30.15 34.8 29.75 34.0 29.7 34.2 29.6 35.15 29.55 35.1 29.55 34.15 29.6 33.55 29.65 32.95 29.75 32.1 29.8 31.75 30.4 29.15 30.55 28.75" fill="#002d6a" fill-rule="evenodd" stroke="none"/>
      <path d="M32.85 29.6 L33.75 27.0 33.9 26.95 Q34.4 26.95 34.7 27.5 L34.8 27.7 35.0 28.9 34.7 30.2 34.7 30.25 34.65 30.3 33.9 30.75 33.6 30.7 33.35 30.6 33.1 30.2 33.05 30.15 32.85 29.6 M18.35 24.8 L19.15 25.4 Q19.85 26.2 19.9 27.35 L19.9 27.55 19.9 27.7 19.8 28.5 19.15 29.65 18.3 30.35 17.3 30.55 Q16.15 30.55 15.4 29.65 14.6 28.8 14.6 27.55 L14.8 26.35 15.4 25.4 15.7 25.1 Q16.35 24.55 17.3 24.55 17.9 24.55 18.35 24.8" fill="#e3f4ff" fill-rule="evenodd" stroke="none"/>
      <path d="M3.7 47.15 L4.3 47.0 3.85 46.55 Q4.35 44.8 5.2 43.1 L5.25 43.0 Q5.3 45.1 5.8 47.65 L6.0 47.65 5.9 48.1 5.85 47.8 5.8 47.65 5.85 47.8 5.9 48.1 5.95 48.3 6.15 49.15 7.3 53.55 7.3 53.7 8.4 58.75 6.35 58.75 4.65 55.95 3.05 54.0 2.95 53.8 3.05 53.7 2.95 53.55 2.7 53.35 2.3 53.0 Q2.75 52.75 3.3 52.65 L3.2 50.8 Q3.2 49.0 3.7 47.15 M-3.1 56.8 L-3.25 56.55 0.4 56.15 0.6 56.2 1.0 55.75 1.3 56.05 1.9 56.8 1.9 56.85 2.5 57.7 3.2 58.65 3.3 58.75 -2.0 58.75 -2.95 57.15 -3.1 56.8 M36.45 19.5 L37.25 23.0 34.65 24.5 36.45 19.5 M34.45 58.75 L29.15 58.75 29.35 58.55 30.15 57.95 30.25 57.9 30.95 57.35 31.3 57.15 31.65 57.7 31.8 57.7 34.45 58.75 M32.25 18.05 L32.3 25.8 32.2 25.85 28.7 27.7 Q30.15 24.25 30.95 21.1 L31.0 20.9 31.05 20.75 31.2 20.3 31.9 16.55 32.25 18.05 M17.6 18.65 Q19.2 16.95 21.35 17.15 L22.0 16.25 Q23.9 19.0 26.55 19.0 27.95 19.0 29.4 17.95 L30.9 16.7 30.15 20.9 30.15 20.95 29.8 22.6 28.6 27.7 26.9 28.65 20.45 21.55 17.6 18.65 M7.4 44.05 L7.5 44.0 7.9 44.05 8.0 44.05 7.9 44.35 7.4 44.05 M11.8 43.15 L19.55 44.3 19.65 46.5 18.45 47.75 16.7 49.45 16.7 49.4 14.9 47.9 14.6 47.45 13.85 46.25 11.8 43.15 M8.5 48.05 L8.65 48.1 8.55 48.1 8.45 48.1 8.5 48.05 M27.3 56.75 L25.25 58.75 25.25 58.45 25.3 57.45 25.3 57.35 25.75 57.4 Q26.4 57.4 27.05 56.7 L27.3 56.35 27.3 56.45 27.3 56.75 M4.7 52.5 L3.95 52.5 3.3 52.65 3.95 52.5 4.7 52.5" fill="#4c7aca" fill-rule="evenodd" stroke="none"/>
      <path d="M-9.35 11.7 Q-9.7 6.95 -7.85 0.85 L-7.6 0.9 Q-7.45 4.0 -6.3 8.35 -5.6 11.0 -4.65 12.75 -3.95 14.1 -3.05 14.9 -1.8 16.1 -0.2 16.1 1.05 16.1 2.3 15.15 L2.85 14.65 3.6 13.75 4.0 13.2 4.0 13.3 4.05 13.35 4.05 13.4 4.05 13.35 4.0 13.3 4.0 13.2 4.05 13.2 4.1 13.1 4.15 13.35 4.15 13.4 4.05 13.4 4.85 16.75 5.45 18.75 4.75 19.45 Q4.0 20.5 3.6 21.8 3.2 23.3 3.2 25.4 L3.25 26.65 3.25 26.7 Q2.1 23.4 -0.4 20.2 L-1.7 18.75 Q-3.8 16.35 -6.5 15.15 L-7.05 14.95 -7.25 14.85 -8.85 14.9 -9.0 14.25 -9.35 11.7 M2.15 38.55 L2.7 37.1 3.15 36.15 Q3.95 37.6 5.3 38.75 L6.45 39.55 Q8.25 40.7 10.6 41.75 L11.15 42.0 Q14.65 43.4 17.8 43.95 L19.55 44.15 21.35 44.2 21.55 44.2 21.65 44.35 21.4 44.35 21.35 44.35 19.55 44.3 21.35 44.35 21.4 44.35 21.65 44.35 22.15 45.6 22.2 45.8 21.65 46.05 21.55 46.7 21.55 47.65 21.1 48.1 21.0 48.25 19.6 50.0 Q19.45 51.85 18.95 53.5 L20.2 52.0 21.05 51.3 21.6 50.95 21.55 50.7 21.95 50.7 21.95 50.75 21.8 50.8 21.6 50.95 21.6 51.0 Q21.7 54.3 21.95 56.35 L21.95 56.65 22.4 58.65 22.4 58.75 17.55 58.75 8.4 58.75 7.3 53.7 7.3 53.55 Q7.2 50.6 8.1 48.8 L8.45 48.1 8.55 48.1 9.1 49.9 10.25 52.7 Q12.7 58.05 14.35 58.05 L15.15 57.9 16.5 56.85 Q17.25 56.1 17.55 55.15 L16.85 52.05 16.15 50.2 15.5 48.95 14.9 47.9 16.7 49.4 16.7 49.45 18.45 47.75 19.65 46.5 19.55 44.3 11.8 43.15 9.45 42.5 9.05 42.35 Q8.0 42.6 7.9 44.05 L7.5 44.0 7.4 44.05 Q6.4 45.4 6.0 47.65 L5.8 47.65 Q5.3 45.1 5.25 43.0 L5.25 42.35 5.45 40.8 2.15 38.55 M1.0 55.75 L2.95 53.8 3.05 54.0 4.65 55.95 6.35 58.75 3.3 58.75 3.2 58.65 2.5 57.7 1.9 56.85 1.9 56.8 1.3 56.05 1.0 55.75 M37.45 23.8 L38.4 26.6 38.55 27.0 Q37.6 28.25 37.2 29.5 L36.75 32.2 36.7 32.75 36.05 32.35 36.4 31.45 36.75 30.1 36.8 29.95 36.85 29.4 37.0 28.35 Q37.0 26.9 36.3 26.0 35.95 25.55 35.5 25.35 L37.45 23.8 M29.15 58.75 L25.25 58.75 24.35 58.75 24.6 58.4 25.3 57.45 25.25 58.45 25.25 58.75 27.3 56.75 27.8 56.35 Q28.35 55.85 29.85 54.85 L30.0 54.75 31.3 57.15 30.95 57.35 30.25 57.9 30.15 57.95 29.35 58.55 29.15 58.75 M4.15 13.35 L4.05 13.2 4.15 13.35 M16.2 20.75 L16.95 19.5 19.1 21.95 20.75 23.95 25.15 29.45 26.35 31.15 27.1 30.7 27.4 30.55 27.45 30.55 27.65 30.45 28.0 30.25 29.4 29.4 29.5 29.4 30.55 28.75 30.4 29.15 29.8 31.75 28.35 32.1 Q26.8 32.5 25.95 33.1 23.75 30.1 20.95 28.05 20.55 26.3 19.6 24.8 18.2 22.45 16.2 20.75 M5.45 40.8 L9.05 42.35 5.45 40.8 M19.65 46.5 L19.7 47.9 19.6 50.0 19.7 47.9 19.65 46.5 M24.45 51.5 Q25.4 51.8 26.05 52.5 27.25 53.75 27.3 56.1 L27.3 56.35 27.05 56.7 Q26.4 57.4 25.75 57.4 L25.3 57.35 25.3 57.15 25.1 54.6 25.05 54.4 24.9 53.5 24.7 52.5 24.45 51.5 M17.65 56.6 L17.55 55.15 17.65 56.6 17.95 56.05 18.95 53.5 17.95 56.05 17.65 56.6 17.65 57.4 17.55 58.75 17.65 57.4 17.65 56.6" fill="#aec4ff" fill-rule="evenodd" stroke="none"/>
      <path d="M-2.4 49.75 L-2.2 49.85 Q-1.9 49.95 -1.55 50.2 -0.3 50.85 0.85 51.75 L-0.65 51.55 -1.1 51.6 Q-1.55 51.65 -1.7 51.85 L-1.75 52.0 -1.75 52.1 Q-1.95 52.5 -1.75 52.75 L-1.8 52.8 -2.55 52.15 -4.1 50.85 -4.1 50.5 -3.85 50.1 -3.7 49.95 Q-3.45 49.7 -3.1 49.7 L-2.4 49.75 M48.2 31.35 L47.85 30.35 48.9 28.95 49.05 28.75 49.5 28.6 52.0 27.7 Q50.3 29.8 48.2 31.35 M44.4 33.5 L44.05 33.6 43.05 33.9 44.2 33.3 44.4 33.5 M23.75 8.7 L24.0 8.85 20.2 12.6 19.9 12.9 Q17.95 14.75 16.5 15.25 L16.5 14.9 Q17.15 13.45 18.35 11.6 L19.0 10.6 19.4 10.15 19.5 10.1 20.5 8.7 Q22.25 9.55 23.75 8.7 M10.4 48.4 L10.5 47.95 10.2 46.3 10.15 45.95 10.05 45.7 9.7 44.65 10.55 45.0 11.5 45.5 11.6 46.75 11.6 46.85 11.7 48.65 11.65 48.8 10.4 48.4 M14.2 50.05 L13.4 49.6 13.05 49.4 12.75 48.7 12.3 47.35 12.3 47.15 12.5 46.45 12.65 46.15 13.4 46.6 13.3 46.85 13.25 47.45 13.25 47.65 Q13.35 48.55 13.8 49.4 L14.2 50.05 M22.3 48.4 L23.5 49.95 23.7 51.3 23.85 52.75 23.7 52.55 23.05 51.7 22.6 51.2 22.4 51.0 22.4 50.4 22.3 48.4 M36.25 52.3 L36.9 52.45 Q37.65 52.75 37.65 53.5 L37.6 53.85 35.75 54.6 34.8 55.05 34.8 55.0 35.05 54.25 34.5 53.7 34.1 53.55 32.6 53.35 32.55 53.3 Q33.95 52.75 35.3 52.5 L36.05 52.3 36.25 52.3" fill="#ebe8b3" fill-rule="evenodd" stroke="none"/>
      <path d="M-5.55 51.2 L-5.9 50.25 -5.55 49.9 -4.1 50.85 -2.55 52.15 -1.8 52.8 -1.4 53.1 -0.9 53.6 0.15 54.75 0.4 55.05 1.0 55.75 0.6 56.2 0.4 56.15 -3.25 56.55 -3.65 56.6 -5.55 51.2 M35.9 58.75 L34.45 58.75 31.8 57.7 31.65 57.7 31.3 57.15 32.45 56.35 33.75 55.6 34.4 55.3 34.8 55.05 35.75 54.6 37.6 53.85 39.25 53.25 39.45 53.8 35.9 58.75 M6.15 49.15 L7.3 46.6 7.55 46.1 7.55 46.45 7.9 48.05 8.1 48.8 Q7.2 50.6 7.3 53.55 L6.15 49.15 M21.1 48.1 L21.1 48.6 21.05 51.3 20.2 52.0 18.95 53.5 Q19.45 51.85 19.6 50.0 L21.0 48.25 21.1 48.1" fill="#b8450f" fill-rule="evenodd" stroke="none"/>
      <path d="M0.85 51.75 L0.9 51.75 1.4 52.2 2.3 53.0 2.7 53.35 2.95 53.55 3.05 53.7 2.95 53.8 1.0 55.75 0.4 55.05 0.15 54.75 -0.9 53.6 -1.4 53.1 -1.8 52.8 -1.75 52.75 Q-1.95 52.5 -1.75 52.1 L-1.75 52.0 -1.7 51.85 Q-1.55 51.65 -1.1 51.6 L-0.65 51.55 0.85 51.75 M9.7 44.65 L10.05 45.7 10.15 45.95 10.2 46.3 10.5 47.95 10.4 48.4 9.55 48.2 8.65 48.1 8.5 48.05 8.1 46.3 7.9 44.35 8.0 44.05 9.7 44.65 M16.85 52.05 L15.5 50.9 14.2 50.05 13.8 49.4 Q13.35 48.55 13.25 47.65 L13.25 47.45 13.3 46.85 13.4 46.6 13.95 46.95 14.6 47.45 14.9 47.9 15.5 48.95 16.15 50.2 16.85 52.05 M24.2 50.8 L24.45 51.5 24.7 52.5 24.9 53.5 25.05 54.4 24.7 53.85 24.15 53.15 23.85 52.75 23.7 51.3 23.5 49.95 23.7 50.2 24.2 50.8 M21.65 47.6 L22.2 48.25 22.3 48.4 22.4 50.4 22.4 51.0 22.0 50.7 21.95 50.7 21.55 50.7 21.55 49.75 21.55 47.65 21.65 47.6 M32.55 53.3 L32.6 53.35 34.1 53.55 34.5 53.7 35.05 54.25 34.8 55.0 34.8 55.05 34.4 55.3 33.75 55.6 32.45 56.35 31.3 57.15 30.0 54.75 29.9 54.55 30.0 54.55 30.4 54.3 31.9 53.6 32.45 53.35 32.55 53.3" fill="#f1bc33" fill-rule="evenodd" stroke="none"/>
      <path d="M3.1 3.95 L4.05 4.4 Q3.35 8.95 3.95 12.75 L3.95 12.85 3.95 12.75 4.1 13.1 4.05 13.2 4.0 13.2 3.6 13.75 2.85 14.65 2.3 15.15 Q1.05 16.1 -0.2 16.1 -1.8 16.1 -3.05 14.9 -3.95 14.1 -4.65 12.75 -5.6 11.0 -6.3 8.35 -7.45 4.0 -7.6 0.9 -2.45 1.55 2.55 3.7 L3.1 3.95 M3.15 36.15 Q4.2 33.6 4.2 32.3 L4.1 30.25 4.35 30.9 4.5 31.05 5.25 32.4 5.45 32.65 Q6.35 33.8 7.5 34.6 L8.15 35.0 7.7 34.3 9.1 35.1 Q10.35 35.8 12.0 35.75 L15.5 35.1 15.95 35.0 17.95 33.75 18.05 33.7 18.05 33.75 19.2 32.5 19.25 32.45 19.5 32.05 19.9 31.45 Q20.7 30.15 21.1 28.65 L20.95 28.15 20.95 28.05 Q23.75 30.1 25.95 33.1 26.8 32.5 28.35 32.1 L29.8 31.75 29.75 32.1 29.65 32.95 29.6 33.55 29.55 34.15 29.55 35.1 29.6 35.15 29.55 35.35 30.25 36.3 30.4 36.4 Q30.85 36.75 31.5 36.7 L32.95 36.15 33.9 35.4 33.8 35.45 33.9 35.4 34.15 35.1 34.2 35.1 36.05 32.35 36.7 32.75 36.6 34.85 36.5 35.75 Q36.1 38.9 33.75 40.8 L32.65 41.6 30.65 42.7 28.75 43.45 26.8 43.75 23.8 44.1 21.55 44.2 21.35 44.2 19.55 44.15 17.8 43.95 Q14.65 43.4 11.15 42.0 L10.6 41.75 Q8.25 40.7 6.45 39.55 L5.3 38.75 Q3.95 37.6 3.15 36.15 M3.25 26.8 L3.25 26.7 3.25 26.65 3.25 26.8 M4.0 13.1 L4.0 13.2 4.0 13.1 3.95 12.95 3.95 12.85 3.95 12.95 4.0 13.1 4.0 12.95 3.95 12.95 4.0 12.95 3.95 12.85 4.0 12.95 4.0 13.1 4.05 13.2 4.0 13.1 M24.35 58.75 L22.4 58.75 22.4 58.65 21.95 56.65 21.95 56.35 Q21.7 54.3 21.6 51.0 L21.6 50.95 21.8 50.8 21.95 50.75 22.0 50.7 22.4 51.0 22.6 51.2 23.05 51.7 23.7 52.55 23.85 52.75 24.15 53.15 24.7 53.85 25.05 54.4 25.1 54.6 25.3 57.15 25.3 57.35 25.3 57.45 24.6 58.4 24.35 58.75 M20.15 35.2 Q19.85 35.35 19.4 36.85 18.95 38.3 18.95 38.9 18.95 40.7 19.55 41.6 20.3 42.7 22.2 42.7 24.05 42.7 25.15 40.9 L25.8 39.45 26.05 37.4 26.05 36.05 24.65 35.05 23.85 35.35 20.15 35.2 19.9 35.1 19.4 34.8 19.9 35.1 20.15 35.2 M7.9 44.05 Q8.0 42.6 9.05 42.35 L9.45 42.5 11.8 43.15 13.85 46.25 14.6 47.45 13.95 46.95 13.4 46.6 12.65 46.15 11.6 45.55 11.5 45.5 10.55 45.0 9.7 44.65 8.0 44.05 7.9 44.05 M10.4 48.4 L11.65 48.8 12.75 49.25 13.05 49.4 13.4 49.6 14.2 50.05 15.5 50.9 16.85 52.05 17.55 55.15 Q17.25 56.1 16.5 56.85 L15.15 57.9 14.35 58.05 Q12.7 58.05 10.25 52.7 L9.1 49.9 8.55 48.1 8.65 48.1 9.55 48.2 10.4 48.4 M26.95 36.45 Q26.55 36.35 26.05 36.05 26.55 36.35 26.95 36.45 M22.2 45.8 L23.5 48.9 23.9 49.9 23.95 50.05 23.7 50.2 23.5 49.95 22.3 48.4 22.2 48.25 21.65 47.6 21.65 47.55 21.55 47.65 21.55 46.7 21.65 46.05 22.2 45.8" fill="#f9fff8" fill-rule="evenodd" stroke="none"/>
      <path d="M6.0 47.65 Q6.4 45.4 7.4 44.05 L7.9 44.35 8.1 46.3 8.5 48.05 8.45 48.1 8.1 48.8 7.9 48.05 7.55 46.45 7.55 46.1 7.3 46.6 6.15 49.15 5.95 48.3 5.9 48.1 6.0 47.65 M21.05 51.3 L21.1 48.6 21.1 48.1 21.55 47.65 21.55 49.75 21.55 50.7 21.6 50.95 21.05 51.3" fill="#d9732d" fill-rule="evenodd" stroke="none"/>
      <path d="M40.1 -5.8 L40.4 -6.0 40.5 -6.05 40.35 -6.0 40.1 -5.85 39.25 -7.6 42.9 -7.6 42.5 -5.4 42.35 -4.15 41.8 0.0 Q41.3 -3.1 40.1 -5.8 M51.8 1.7 L51.8 1.75 51.7 1.75 51.8 1.7 M54.25 7.9 L54.25 7.95 54.05 8.0 54.25 7.9 M56.1 6.45 Q53.6 -0.85 50.5 -7.6 L52.55 -7.6 52.75 -6.95 54.15 -3.95 Q56.0 0.3 56.1 6.45 M40.95 12.3 L41.05 11.7 41.05 12.15 41.0 12.45 41.0 12.3 41.05 12.15 41.0 12.3 41.0 12.4 40.95 12.3" fill="url(#gradient8)" fill-rule="evenodd" stroke="none"/>
      <path d="M56.7 8.2 L56.15 6.6 56.1 6.45 Q56.0 0.3 54.15 -3.95 L52.75 -6.95 52.55 -7.6 54.7 -7.6 56.15 -3.8 56.8 -1.9 56.8 7.9 56.7 8.2" fill="#eaae23" fill-rule="evenodd" stroke="none"/>
      <path d="M19.0 -7.15 L19.0 -7.6 35.0 -7.6 35.45 -7.0 36.35 -5.7 37.15 -4.4 34.7 1.25 33.2 -1.0 32.2 -2.5 31.2 -3.95 30.8 -3.8 30.25 -3.55 28.55 -2.5 24.0 -7.05 26.95 -1.5 23.7 0.45 19.85 2.85 19.45 -1.0 19.05 -6.7 19.0 -7.15 M40.4 7.25 L39.55 5.85 39.55 5.8 38.2 4.7 Q37.5 4.3 36.55 4.2 L35.4 2.4 36.1 2.4 Q38.55 2.55 40.25 4.15 L40.3 4.75 40.4 6.85 40.4 7.25 M39.9 2.35 L39.7 2.5 39.65 2.5 38.8 2.0 38.5 1.9 37.15 -4.4 Q39.1 -1.1 39.9 2.35 M38.4 7.45 L37.55 6.0 36.95 4.9 Q37.4 5.0 37.75 5.25 38.5 5.55 39.05 6.2 39.9 7.2 40.0 8.5 L38.85 8.3 38.4 7.45 M39.65 9.85 L40.0 9.2 40.0 9.35 39.8 9.9 39.75 10.0 39.65 9.85" fill="url(#gradient9)" fill-rule="evenodd" stroke="none"/>
      <path d="M37.15 -4.4 L36.35 -5.7 35.45 -7.0 35.0 -7.6 39.25 -7.6 40.1 -5.85 40.1 -5.8 Q41.3 -3.1 41.8 0.0 L41.75 0.7 39.9 2.35 Q39.1 -1.1 37.15 -4.4 M40.25 4.15 L40.7 4.65 41.3 5.45 Q41.15 7.05 41.15 8.7 L40.65 8.6 40.4 7.25 40.4 6.85 40.3 4.75 40.25 4.15 M40.25 10.95 L40.55 10.0 41.1 10.1 41.05 11.7 40.95 12.3 40.25 10.95 M40.0 9.35 L39.9 9.95 39.85 10.2 39.75 10.0 39.8 9.9 40.0 9.35" fill="url(#gradient10)" fill-rule="evenodd" stroke="none"/>
      <path d="M-4.7 -7.25 Q-2.3 -5.6 -0.65 -3.7 L1.75 -0.95 1.75 -0.9 2.35 1.9 2.35 1.85 2.55 3.7 Q-2.45 1.55 -7.6 0.9 L-7.85 0.85 Q-9.7 6.95 -9.35 11.7 L-9.45 11.65 -9.45 -4.55 -8.85 -5.1 Q-7.05 -6.6 -4.7 -7.25" fill="#7f3b18" fill-rule="evenodd" stroke="none"/>
      <path d="M-5.05 -7.6 L-4.6 -7.3 Q0.5 -3.95 2.2 -1.25 L2.25 -1.2 2.3 -0.95 2.85 1.75 2.9 1.75 3.1 3.95 2.55 3.7 2.35 1.85 2.35 1.9 1.75 -0.9 1.75 -0.95 -0.65 -3.7 Q-2.3 -5.6 -4.7 -7.25 L-5.2 -7.6 -5.05 -7.6" fill="#6a3d16" fill-rule="evenodd" stroke="none"/>
      <path d="M8.1 -2.3 L8.15 -2.25 8.1 -2.25 8.1 -2.3 M7.25 -7.6 L6.15 -4.5 5.85 -3.7 4.8 0.0 4.8 0.35 4.2 3.2 4.05 4.4 3.1 3.95 2.9 1.75 2.85 1.75 2.3 -0.95 2.25 -1.2 2.2 -1.25 Q0.5 -3.95 -4.6 -7.3 L-5.05 -7.6 7.25 -7.6 M-9.45 15.0 L-9.45 14.15 -9.0 14.25 -8.85 14.9 -9.45 15.0" fill="url(#gradient11)" fill-rule="evenodd" stroke="none"/>
      <path d="M-4.7 -7.25 Q-7.05 -6.6 -8.85 -5.1 L-9.45 -4.55 -9.45 -7.6 -5.2 -7.6 -4.7 -7.25 M-9.45 11.65 L-9.35 11.7 -9.0 14.25 -9.45 14.15 -9.45 11.65" fill="#ac4a0d" fill-rule="evenodd" stroke="none"/>
      <path d="M47.65 46.9 Q46.15 48.1 44.05 48.95 L42.85 49.35 42.0 49.6 39.3 50.1 33.65 50.7 31.2 50.85 Q32.15 50.2 33.2 49.8 L33.55 49.65 38.5 48.1 38.85 47.95 40.95 46.65 42.45 45.2 42.5 45.15 43.8 43.6 Q44.65 42.4 44.95 41.3 L45.3 42.7 45.65 44.3 46.95 42.6 47.1 42.3 47.45 41.7 Q48.4 39.65 48.4 37.8 48.4 35.35 47.5 33.15 48.15 32.5 48.2 31.65 L48.3 31.9 48.35 31.9 49.3 33.85 Q50.85 37.4 50.85 39.5 50.85 41.1 50.5 42.5 L50.3 43.15 Q49.45 45.3 47.65 46.9" fill="url(#gradient12)" fill-rule="evenodd" stroke="none"/>
      <path d="M45.95 33.95 Q46.8 33.9 47.45 33.2 L47.5 33.15 Q48.4 35.35 48.4 37.8 48.4 39.65 47.45 41.7 L47.1 42.3 46.95 42.6 45.65 44.3 45.3 42.7 44.95 41.3 Q44.65 42.4 43.8 43.6 L42.5 45.15 42.45 45.2 40.95 46.65 38.85 47.95 38.5 48.1 33.55 49.65 33.2 49.8 Q32.15 50.2 31.2 50.85 L31.1 50.75 Q36.5 47.0 38.15 44.95 L38.4 44.6 39.55 42.9 40.55 41.4 40.75 41.1 Q42.0 39.25 42.6 37.3 43.1 35.7 43.2 34.05 L45.9 36.85 46.0 35.4 45.95 33.95 M31.0 50.65 L30.8 50.5 31.4 49.85 31.0 50.65" fill="url(#gradient13)" fill-rule="evenodd" stroke="none"/>
      <path d="M7.1 23.0 L6.9 23.9 6.85 24.8 6.85 25.25 6.9 26.25 6.9 26.3 6.85 26.3 Q5.5 26.3 4.9 28.0 L4.65 25.5 4.7 25.1 Q4.75 23.75 5.35 22.1 L6.1 20.6 7.1 23.0 M15.9 33.8 L17.5 33.2 19.25 31.9 19.05 32.3 18.2 33.45 18.0 33.7 18.05 33.7 17.95 33.75 15.95 35.0 16.0 34.45 15.9 33.8 M30.4 36.4 L30.25 36.3 29.55 35.35 29.6 35.15 29.7 34.2 29.75 34.0 30.15 34.8 30.25 34.8 30.25 34.85 30.3 34.85 30.4 35.0 30.45 35.05 30.4 36.05 30.4 36.4 M35.25 30.45 L35.45 28.35 35.4 26.75 35.6 27.15 Q36.0 28.15 36.0 29.15 L35.7 30.75 35.25 30.45" fill="#9adcfc" fill-rule="evenodd" stroke="none"/>
      <path d="M7.15 26.0 L7.2 24.8 7.4 24.55 7.55 24.45 7.6 24.15 8.2 25.2 7.15 26.0 M10.45 27.45 L10.65 27.35 12.7 25.9 12.65 26.4 12.65 26.5 12.35 27.45 Q12.5 28.95 13.0 29.85 13.8 31.2 15.8 31.2 L18.4 30.75 18.5 30.75 19.15 30.4 18.15 31.75 17.8 32.05 17.6 32.1 15.3 32.65 15.2 32.65 13.95 32.5 12.7 32.1 Q11.9 31.75 11.4 31.0 10.7 30.0 10.5 28.3 L10.45 27.45 M30.6 30.55 L30.65 30.4 30.7 30.2 30.7 30.4 30.8 31.65 Q31.05 32.75 31.85 32.75 L32.35 32.55 32.9 31.6 33.0 31.15 33.05 30.15 33.1 30.2 33.35 30.6 33.6 30.7 33.3 31.5 33.3 31.6 33.2 31.95 33.0 32.75 Q32.65 33.75 31.8 33.75 L31.05 33.55 Q30.45 33.1 30.45 31.8 L30.45 31.65 30.6 30.55" fill="#216ebe" fill-rule="evenodd" stroke="none"/>
      <path d="M32.35 30.85 L32.35 30.9 32.4 30.85 33.05 30.15 33.0 31.15 32.9 31.6 32.35 32.55 31.85 32.75 Q31.05 32.75 30.8 31.65 L30.7 30.4 30.7 30.2 31.0 29.4 Q31.05 30.9 31.95 30.9 L32.35 30.85 M33.75 27.0 L33.95 26.5 34.7 25.95 34.8 27.7 34.7 27.5 Q34.4 26.95 33.9 26.95 L33.75 27.0 M7.2 24.8 L7.35 23.8 7.35 23.6 7.6 24.15 7.55 24.45 7.4 24.55 7.2 24.8 M15.4 25.4 L14.8 26.35 14.6 27.55 Q14.6 28.8 15.4 29.65 16.15 30.55 17.3 30.55 L18.3 30.35 19.15 29.65 19.8 28.5 19.15 30.4 18.5 30.75 18.4 30.75 15.8 31.2 Q13.8 31.2 13.0 29.85 12.5 28.95 12.35 27.45 L12.65 26.5 12.65 26.4 13.1 26.95 Q13.65 27.4 14.3 27.55 L14.7 26.35 14.9 25.9 15.25 25.3 15.4 25.4" fill="#3565ba" fill-rule="evenodd" stroke="none"/>
      <path d="M32.35 27.6 L32.35 30.85 31.95 30.9 Q31.05 30.9 31.0 29.4 L31.25 28.8 31.65 28.05 32.35 27.6 M32.4 30.85 L32.85 29.6 33.05 30.15 32.4 30.85 M12.7 25.9 Q14.4 24.45 15.5 22.45 L15.5 22.25 15.65 21.95 17.15 23.3 17.6 23.85 18.35 24.8 Q17.9 24.55 17.3 24.55 16.35 24.55 15.7 25.1 L15.4 25.4 15.25 25.3 14.9 25.9 14.7 26.35 14.3 27.55 Q13.65 27.4 13.1 26.95 L12.65 26.4 12.7 25.9" fill="#00186b" fill-rule="evenodd" stroke="none"/>
      <path d="M7.15 27.7 L7.15 26.6 7.15 26.3 7.15 26.0 8.2 25.2 8.9 26.5 Q9.7 27.6 10.45 27.45 L10.5 28.3 10.0 28.2 Q9.15 28.2 8.6 29.4 L8.25 30.4 Q7.55 29.2 7.15 27.7 M17.8 32.05 Q16.8 32.9 15.65 33.2 L14.25 33.4 13.85 33.4 12.65 33.15 12.75 32.5 12.7 32.1 13.95 32.5 15.2 32.65 15.3 32.65 17.6 32.1 17.8 32.05 M34.65 30.3 L34.3 31.75 33.85 32.8 33.5 33.4 Q33.45 32.9 33.05 32.75 L33.0 32.75 33.2 31.95 33.3 31.6 33.3 31.5 33.6 30.7 33.9 30.75 34.65 30.3 M30.8 34.85 L30.55 34.8 30.4 34.65 Q30.15 34.4 30.05 33.85 L29.95 33.0 30.25 31.75 30.3 31.7 30.6 30.55 30.45 31.65 30.45 31.8 Q30.45 33.1 31.05 33.55 L30.9 33.6 30.7 34.25 30.7 34.5 30.8 34.85" fill="#4dcbf1" fill-rule="evenodd" stroke="none"/>
      <path d="M6.9 26.3 L6.95 26.65 7.15 27.7 Q7.55 29.2 8.25 30.4 L8.5 30.75 9.0 31.2 8.9 31.3 Q10.2 32.9 12.05 33.55 L14.7 33.95 15.3 33.9 15.9 33.8 16.0 34.45 15.95 35.0 15.5 35.1 12.0 35.75 Q10.35 35.8 9.1 35.1 L7.7 34.3 Q6.4 33.0 5.9 31.95 L5.1 29.05 4.9 28.0 Q5.5 26.3 6.85 26.3 L6.9 26.3 M33.9 35.4 L33.8 35.45 33.9 35.4 32.95 36.15 31.5 36.7 Q30.85 36.75 30.4 36.4 L30.4 36.05 30.45 35.05 30.95 35.3 31.0 35.3 31.5 35.3 Q32.6 35.3 33.35 34.5 34.05 33.85 34.55 32.55 L34.85 31.9 35.25 30.45 35.7 30.75 35.35 32.05 35.0 32.95 34.05 35.05 33.95 35.3 33.9 35.35 33.9 35.4" fill="#d1faf6" fill-rule="evenodd" stroke="none"/>
      <path d="M30.25 -3.55 L30.8 -3.8 31.2 -3.95 32.2 -2.5 32.4 -0.5 32.6 1.6 30.65 -0.35 30.25 -3.55 M32.7 5.35 L32.6 5.4 31.35 6.9 31.1 4.2 31.2 4.1 Q31.9 3.45 32.7 3.1 L32.7 3.55 32.7 4.0 32.7 5.35 M32.15 15.05 L31.25 14.4 31.3 13.8 31.5 11.6 31.85 12.25 32.0 12.3 32.35 12.65 32.2 14.35 32.15 15.05 M32.7 6.3 L32.65 7.15 32.15 7.05 32.7 6.3 M32.4 11.6 L31.75 10.35 Q31.55 9.6 31.65 8.7 L31.7 8.35 32.6 8.55 32.5 10.05 32.45 10.65 32.45 10.7 32.4 11.6 M31.05 15.85 L31.95 16.35 31.9 16.55 31.2 20.3 31.05 20.75 31.0 20.9 30.95 21.1 Q30.15 24.25 28.7 27.7 L28.6 28.0 28.6 27.7 29.8 22.6 30.15 20.95 30.15 20.9 30.9 16.7 31.05 15.85" fill="#819ed8" fill-rule="evenodd" stroke="none"/>
      <path d="M23.7 0.45 L26.95 -1.5 29.75 3.75 30.4 3.3 29.8 3.85 29.75 3.9 Q29.0 4.65 28.55 5.6 L28.45 5.65 27.8 3.9 22.0 5.0 21.95 4.9 21.85 4.25 Q21.85 3.35 22.45 2.3 22.9 1.45 23.7 0.45 M28.55 -2.5 L30.25 -3.55 30.65 -0.35 28.55 -2.5 M32.2 -2.5 L33.2 -1.0 34.7 1.25 34.6 1.45 34.55 1.45 32.85 1.85 32.6 1.6 32.4 -0.5 32.2 -2.5 M36.55 4.2 L36.5 4.2 36.2 4.2 Q34.55 4.1 33.2 4.95 L32.7 3.55 32.7 3.1 Q33.95 2.4 35.4 2.4 L36.55 4.2 M36.95 4.9 L37.55 6.0 38.4 7.45 38.4 7.6 38.35 8.2 34.5 7.5 33.5 5.65 33.5 5.6 Q34.6 4.75 36.1 4.8 L36.2 4.8 36.95 4.9" fill="#f9fcff" fill-rule="evenodd" stroke="none"/>
      <path d="M19.85 2.85 L23.7 0.45 Q22.9 1.45 22.45 2.3 21.85 3.35 21.85 4.25 L21.95 4.9 22.0 5.0 20.1 5.2 19.85 2.85 M33.2 4.95 L32.7 5.35 32.7 4.0 32.7 3.55 33.2 4.95 M31.35 6.9 L29.35 6.55 Q29.9 5.2 31.1 4.2 L31.35 6.9 M40.25 10.95 L40.95 12.3 41.0 12.4 40.95 12.45 40.8 12.4 40.4 12.55 39.1 12.6 39.15 12.5 40.25 10.95 M35.8 15.85 L34.95 15.8 Q33.35 15.7 32.15 15.05 L32.2 14.35 32.35 12.65 33.3 13.35 Q34.2 13.9 35.3 13.95 L35.55 13.95 35.8 15.85 M31.25 14.4 L30.35 13.55 Q28.55 11.5 28.8 8.7 L28.9 7.9 30.95 8.2 30.9 8.75 Q30.8 9.85 31.1 10.8 L31.5 11.6 31.3 13.8 31.25 14.4 M33.5 5.6 L33.5 5.65 34.5 7.5 32.65 7.15 32.7 6.3 33.15 5.85 33.5 5.6 M38.35 8.2 L38.4 7.6 38.4 7.45 38.85 8.3 38.35 8.2 M35.0 9.0 L35.45 13.2 33.85 12.8 32.6 11.8 32.4 11.6 32.45 10.7 32.45 10.65 32.5 10.05 32.6 8.55 35.0 9.0 M38.35 12.35 Q37.35 11.8 36.25 10.5 L35.1 9.0 36.65 9.3 36.95 9.35 39.65 9.85 39.75 10.0 39.85 10.2 Q39.5 11.3 38.55 12.15 L38.35 12.35 M28.55 5.6 L28.45 5.7 28.45 5.65 28.55 5.6 M20.25 6.45 L23.75 8.7 Q22.25 9.55 20.5 8.7 L20.5 8.5 20.25 6.45 M24.6 9.35 L25.7 10.25 27.55 9.05 Q27.4 11.45 28.7 13.5 L28.75 13.6 25.85 18.4 30.4 15.4 30.45 15.45 31.05 15.85 30.9 16.7 29.4 17.95 Q27.95 19.0 26.55 19.0 23.9 19.0 22.0 16.25 23.9 13.3 24.6 9.35 M31.95 16.35 L32.2 16.45 32.25 16.5 32.25 18.05 31.9 16.55 31.95 16.35" fill="#9dc3ea" fill-rule="evenodd" stroke="none"/>
      <path d="M37.25 23.0 L37.45 23.8 35.5 25.35 34.7 25.95 33.95 26.5 34.65 24.5 37.25 23.0 M32.3 25.8 L32.35 27.6 31.65 28.05 30.55 28.75 29.5 29.4 29.4 29.4 28.0 30.25 27.65 30.45 27.45 30.55 27.4 30.55 27.1 30.7 26.35 31.15 25.15 29.45 20.75 23.95 19.1 21.95 16.95 19.5 17.6 18.65 20.45 21.55 26.9 28.65 28.6 27.7 28.6 28.0 28.7 27.7 32.2 25.85 32.3 25.8" fill="#50bbdb" fill-rule="evenodd" stroke="none"/>
      <path d="M10.1 -6.45 L9.8 -6.5 9.75 -6.55 8.1 -2.3 8.1 -2.25 8.0 -1.85 Q6.85 -2.6 5.85 -3.7 L6.15 -4.5 7.25 -7.6 10.2 -7.6 9.8 -6.7 9.85 -6.65 10.1 -6.45 M17.5 -0.4 L17.0 -5.4 16.9 -6.75 16.9 -7.6 19.0 -7.6 19.0 -7.15 19.05 -6.7 19.45 -1.0 19.3 -0.95 17.5 -0.4 M41.8 0.0 L42.35 -4.15 42.5 -5.4 42.9 -7.6 44.55 -7.6 44.15 -4.4 43.9 -1.25 41.75 0.7 41.8 0.0 M47.8 -7.6 L50.5 -7.6 Q53.6 -0.85 56.1 6.45 L56.15 6.6 56.7 8.2 56.8 8.5 56.8 8.65 56.55 8.75 56.1 8.8 54.65 9.0 54.25 7.95 54.25 7.9 51.8 1.75 51.8 1.7 50.1 -2.35 50.35 -3.35 Q50.35 -4.2 49.75 -4.85 L48.75 -5.4 47.8 -7.6 M43.45 4.25 L43.35 6.05 42.5 5.45 42.4 5.35 41.9 4.6 41.45 4.0 42.1 4.15 43.7 0.95 43.6 1.95 43.45 4.25" fill="#f7ffff" fill-rule="evenodd" stroke="none"/>
      <path d="M47.8 -7.6 L48.75 -5.4 48.25 -5.45 Q47.4 -5.45 46.8 -4.85 46.35 -4.4 46.25 -3.85 L44.15 -4.4 44.55 -7.6 47.8 -7.6" fill="#7efa8c" fill-rule="evenodd" stroke="none"/>
      <path d="M17.0 -5.4 L14.15 -5.05 12.2 -5.3 12.0 -5.35 Q10.95 -5.75 10.1 -6.45 L9.85 -6.65 9.8 -6.7 10.2 -7.6 16.9 -7.6 16.9 -6.75 17.0 -5.4 M50.1 -2.35 L51.8 1.7 51.7 1.75 Q50.95 2.25 49.55 2.25 46.4 2.25 44.2 0.55 L44.0 0.4 45.6 -2.85 43.9 -1.25 44.15 -4.4 46.25 -3.85 46.15 -3.35 Q46.15 -2.5 46.8 -1.9 47.4 -1.25 48.25 -1.25 49.1 -1.25 49.75 -1.9 L50.1 -2.35" fill="#c1ffc8" fill-rule="evenodd" stroke="none"/>
      <path d="M8.1 -2.3 L9.75 -6.55 9.8 -6.5 10.1 -6.45 Q10.95 -5.75 12.0 -5.35 L12.2 -5.3 14.15 -5.05 17.0 -5.4 17.5 -0.4 17.5 -0.35 Q16.55 0.1 14.7 0.1 L12.4 -0.1 12.35 -0.1 11.0 -0.55 Q9.5 -1.15 8.15 -2.25 L8.1 -2.3 M51.8 1.75 L54.25 7.9 54.05 8.0 51.45 8.5 Q48.55 8.5 45.1 5.7 L43.45 4.25 43.6 1.95 43.7 0.95 44.0 0.4 44.2 0.55 Q46.4 2.25 49.55 2.25 50.95 2.25 51.7 1.75 L51.8 1.75" fill="#56ebf9" fill-rule="evenodd" stroke="none"/>
      <path d="M8.15 -2.25 Q9.5 -1.15 11.0 -0.55 L12.35 -0.1 12.4 -0.1 14.7 0.1 Q16.55 0.1 17.5 -0.35 L18.1 3.65 17.75 4.15 15.7 6.0 Q14.3 6.9 12.75 7.25 L11.0 7.4 Q8.25 7.4 6.05 5.5 L6.0 5.5 6.05 5.35 Q6.75 1.9 8.0 -1.85 L8.1 -2.25 8.15 -2.25 M54.25 7.95 L54.65 9.0 55.4 11.15 55.65 11.85 54.65 17.45 Q52.95 18.35 52.15 18.35 49.95 18.35 47.95 17.2 46.35 16.25 44.95 14.55 L44.2 13.45 Q44.85 13.3 45.35 12.8 L45.9 11.9 48.25 11.25 44.05 7.0 43.3 7.4 43.35 6.05 43.45 4.25 45.1 5.7 Q48.55 8.5 51.45 8.5 L54.05 8.0 54.25 7.95" fill="#52e6f0" fill-rule="evenodd" stroke="none"/>
      <path d="M17.5 -0.35 L17.5 -0.4 19.3 -0.95 19.45 -1.0 19.85 2.85 20.1 5.2 18.4 5.3 18.15 3.9 18.1 3.65 17.5 -0.35 M5.85 -3.7 Q6.85 -2.6 8.0 -1.85 6.75 1.9 6.05 5.35 L6.0 5.5 5.65 7.95 5.55 9.0 Q5.0 9.1 4.55 9.55 3.9 10.2 3.9 11.05 3.9 11.9 4.55 12.5 L5.35 13.05 5.35 13.35 5.4 16.1 4.15 13.4 4.15 13.35 4.1 13.1 3.95 12.75 Q3.35 8.95 4.05 4.4 L4.2 3.2 4.8 0.35 4.8 0.0 5.85 -3.7 M54.65 9.0 L56.1 8.8 56.55 8.75 56.8 8.65 56.8 16.95 56.3 18.95 55.75 20.6 Q54.7 23.5 53.05 26.15 L52.95 26.2 50.5 27.0 53.25 22.2 53.65 21.25 53.9 20.55 54.65 17.45 55.65 11.85 55.4 11.15 54.65 9.0 M43.35 6.05 L43.3 7.4 43.1 7.45 42.4 5.35 42.5 5.45 43.35 6.05 M41.3 5.45 Q41.95 6.55 42.1 7.8 L42.25 8.9 41.15 8.7 Q41.15 7.05 41.3 5.45 M42.05 10.3 Q41.75 10.8 41.75 11.35 L41.75 11.5 41.7 11.6 41.05 12.8 41.0 12.45 41.05 12.15 41.05 11.7 41.1 10.1 42.05 10.3 M42.35 12.75 L42.4 12.8 42.55 12.95 41.85 14.15 41.4 14.9 41.35 14.5 41.3 14.2 41.4 14.0 42.35 12.75 M18.45 5.5 L20.25 6.45 20.5 8.5 20.5 8.7 19.5 10.1 19.4 10.15 18.45 5.5" fill="#cafff5" fill-rule="evenodd" stroke="none"/>
      <path d="M5.45 18.75 L4.85 16.75 4.05 13.4 4.15 13.4 5.4 16.1 6.45 17.9 7.4 19.2 7.55 19.4 8.35 19.75 9.0 19.7 11.5 17.95 12.35 17.25 12.0 18.15 11.7 19.55 11.7 19.7 Q11.55 20.6 12.05 20.6 L13.2 20.3 14.4 19.4 14.5 19.25 15.6 18.05 16.15 17.25 16.8 16.25 Q18.85 15.85 20.55 13.9 L20.7 13.75 24.05 8.95 24.6 9.35 Q23.9 13.3 22.0 16.25 L21.35 17.15 Q19.2 16.95 17.6 18.65 L16.95 19.5 16.2 20.75 15.65 21.95 15.5 22.25 15.5 22.45 Q14.4 24.45 12.7 25.9 L10.65 27.35 10.45 27.45 Q9.7 27.6 8.9 26.5 L8.2 25.2 7.6 24.15 7.35 23.6 7.1 23.0 6.1 20.6 5.5 19.0 5.45 18.75 M40.8 13.1 L40.05 13.95 39.85 13.95 Q39.0 14.0 38.1 13.35 L38.95 12.75 39.1 12.6 40.4 12.55 40.8 12.4 40.95 12.45 40.8 13.1 M36.7 15.7 L35.8 15.85 35.55 13.95 36.55 13.9 36.7 15.7 M36.95 18.1 L36.95 18.45 38.4 24.55 38.55 23.6 38.8 23.15 Q39.1 22.65 39.65 22.65 40.6 22.65 41.35 23.45 42.05 24.15 43.0 25.9 41.65 23.2 41.05 21.4 L40.8 20.55 40.7 20.25 40.15 17.0 40.85 17.7 41.15 19.35 41.4 20.45 Q42.25 23.8 43.9 25.75 45.0 27.05 46.45 27.7 L46.95 27.9 47.3 28.0 46.3 28.0 Q45.6 28.2 45.05 28.55 L44.65 28.75 44.55 28.85 Q43.85 29.25 43.45 29.85 42.7 30.95 42.7 32.8 L42.7 33.3 41.7 33.85 41.2 33.25 38.55 27.0 38.4 26.6 37.45 23.8 37.25 23.0 36.45 19.5 36.95 18.1 M35.0 9.0 L35.1 9.0 36.25 10.5 Q37.35 11.8 38.35 12.35 L37.5 12.85 37.35 12.7 36.35 11.7 36.5 13.15 35.5 13.2 35.45 13.2 35.0 9.0 M5.6 18.1 L5.7 18.45 6.3 20.2 6.75 21.2 7.3 22.25 7.55 22.75 8.0 23.55 8.0 23.6 8.6 25.0 8.85 25.4 Q9.45 26.4 10.5 26.55 L12.5 24.95 12.75 24.7 14.0 23.05 13.95 22.95 12.95 23.2 Q11.8 23.2 11.3 21.65 L11.05 19.9 10.95 19.3 10.1 19.9 8.7 20.6 8.05 20.35 6.95 19.35 6.0 18.25 5.8 18.0 5.6 18.1" fill="url(#gradient14)" fill-rule="evenodd" stroke="none"/>
      <path d="M24.0 8.85 L24.05 8.95 20.7 13.75 20.55 13.9 Q18.85 15.85 16.8 16.25 L16.15 17.25 15.6 18.05 14.5 19.25 14.4 19.4 13.2 20.3 12.05 20.6 Q11.55 20.6 11.7 19.7 L11.7 19.55 12.0 18.15 12.35 17.25 12.35 17.2 13.7 16.1 14.35 15.5 Q16.85 13.25 19.0 10.6 L18.35 11.6 Q17.15 13.45 16.5 14.9 L16.5 15.25 Q17.95 14.75 19.9 12.9 L20.2 12.6 24.0 8.85" fill="url(#gradient15)" fill-rule="evenodd" stroke="none"/>
      <path d="M44.2 13.45 L44.95 14.55 Q46.35 16.25 47.95 17.2 49.95 18.35 52.15 18.35 52.95 18.35 54.65 17.45 L53.9 20.55 53.65 21.25 53.25 22.2 50.5 27.0 48.55 27.15 47.65 27.0 46.45 26.55 46.0 26.25 Q44.25 25.05 43.1 22.3 L42.45 20.4 41.85 17.8 41.5 15.65 41.5 15.55 41.4 14.95 41.4 14.9 41.85 14.15 42.55 12.95 Q43.1 13.45 43.85 13.45 L44.2 13.45 M18.4 5.3 L18.0 5.3 18.45 5.5 19.4 10.15 19.0 10.6 Q16.85 13.25 14.35 15.5 L13.7 16.1 12.35 17.2 12.35 17.25 11.5 17.95 9.0 19.7 8.35 19.75 7.55 19.4 7.4 19.2 6.45 17.9 5.4 16.1 5.35 13.35 5.35 13.05 6.0 13.15 Q6.85 13.15 7.5 12.5 8.1 11.9 8.1 11.05 8.1 10.2 7.5 9.55 6.85 8.95 6.0 8.95 L5.55 9.0 5.65 7.95 6.0 5.5 6.05 5.5 Q8.25 7.4 11.0 7.4 L12.75 7.25 Q14.3 6.9 15.7 6.0 L17.75 4.15 18.1 3.65 18.15 3.9 18.4 5.3" fill="#23a9f1" fill-rule="evenodd" stroke="none"/>
      <path d="M40.05 13.95 L39.85 14.1 38.5 15.05 36.7 15.7 36.55 13.9 38.1 13.35 Q39.0 14.0 39.85 13.95 L40.05 13.95 M40.15 17.0 L40.7 20.25 40.8 20.55 41.05 21.4 Q41.65 23.2 43.0 25.9 42.05 24.15 41.35 23.45 40.6 22.65 39.65 22.65 39.1 22.65 38.8 23.15 L38.55 23.6 38.4 24.55 36.95 18.45 36.95 18.1 37.4 16.75 37.55 16.7 39.1 15.95 40.15 17.0 M36.5 13.15 L36.35 11.7 37.35 12.7 37.5 12.85 36.5 13.15 M5.6 18.1 L5.8 18.0 6.0 18.25 6.95 19.35 8.05 20.35 8.7 20.6 10.1 19.9 10.95 19.3 11.05 19.9 11.3 21.65 Q11.8 23.2 12.95 23.2 L13.95 22.95 14.0 23.05 12.75 24.7 12.5 24.95 10.5 26.55 Q9.45 26.4 8.85 25.4 L8.6 25.0 8.0 23.6 8.0 23.55 7.55 22.75 7.3 22.25 6.75 21.2 6.3 20.2 5.7 18.45 5.6 18.1" fill="url(#gradient16)" fill-rule="evenodd" stroke="none"/>
      <path d="M41.0 12.45 L41.05 12.8 40.8 13.1 40.95 12.45 41.0 12.4 41.0 12.3 41.0 12.45 M41.35 14.5 L41.4 14.9 41.4 14.95 41.5 15.55 41.5 15.65 41.85 17.8 42.45 20.4 43.1 22.3 Q44.25 25.05 46.0 26.25 L46.45 26.55 47.65 27.0 48.55 27.15 47.15 29.45 47.05 29.55 Q46.5 29.15 45.8 29.15 44.8 29.15 44.1 29.85 43.4 30.55 43.4 31.55 43.4 32.15 43.7 32.65 L42.7 33.3 42.7 32.8 Q42.7 30.95 43.45 29.85 43.85 29.25 44.55 28.85 L44.65 28.75 45.05 28.55 Q45.6 28.2 46.3 28.0 L47.3 28.0 46.95 27.9 46.45 27.7 Q45.0 27.05 43.9 25.75 42.25 23.8 41.4 20.45 L41.15 19.35 40.85 17.7 41.8 18.65 41.35 14.5 M52.95 26.2 L53.05 26.15 52.95 26.3 52.95 26.2" fill="url(#gradient17)" fill-rule="evenodd" stroke="none"/>
      <path d="M25.8 39.45 L25.15 40.9 Q24.05 42.7 22.2 42.7 20.3 42.7 19.55 41.6 18.95 40.7 18.95 38.9 18.95 38.3 19.4 36.85 19.85 35.35 20.15 35.2 L23.85 35.35 24.55 36.3 Q25.55 37.85 25.8 39.45" fill="#ff8596" fill-rule="evenodd" stroke="none"/>
      <path d="M23.85 35.35 L24.65 35.05 26.05 36.05 26.05 37.4 25.8 39.45 Q25.55 37.85 24.55 36.3 L23.85 35.35" fill="#9c4652" fill-rule="evenodd" stroke="none"/>
      <path d="M-6.5 15.15 Q-3.8 16.35 -1.7 18.75 L-0.4 20.2 Q2.1 23.4 3.25 26.7 L3.25 26.8 Q3.45 28.65 4.1 30.25 L4.2 32.3 Q4.2 33.6 3.15 36.15 L2.7 37.1 2.15 38.55 Q1.25 40.8 1.25 42.25 1.25 42.75 1.4 43.25 1.65 44.05 2.25 44.8 L3.85 46.55 4.3 47.0 3.7 47.15 2.6 47.35 Q-2.0 48.1 -6.45 47.4 L-6.8 47.35 -9.45 46.8 -9.45 44.9 -9.35 44.9 -5.35 44.8 -0.15 43.95 -0.15 43.75 Q-1.05 43.1 -2.45 40.1 L-3.15 38.25 Q-3.95 36.0 -3.95 34.2 L-3.7 31.25 -3.65 31.35 -2.75 33.75 -1.1 37.65 -1.0 34.8 -0.95 33.8 -0.85 31.15 Q-0.85 25.85 -3.5 20.3 -4.75 17.55 -6.5 15.15" fill="url(#gradient18)" fill-rule="evenodd" stroke="none"/>
      <path d="M-9.45 15.0 L-8.85 14.9 -7.25 14.85 -7.05 14.95 -6.5 15.15 Q-4.75 17.55 -3.5 20.3 -0.85 25.85 -0.85 31.15 L-0.95 33.8 -1.0 34.8 -1.1 37.65 -2.75 33.75 -3.65 31.35 -3.7 31.25 -3.95 34.2 Q-3.95 36.0 -3.15 38.25 L-2.45 40.1 Q-1.05 43.1 -0.15 43.75 L-0.15 43.95 -5.35 44.8 -9.35 44.9 -9.45 44.9 -9.45 15.0" fill="url(#gradient19)" fill-rule="evenodd" stroke="none"/>
      <path d="M26.95 -1.5 L24.0 -7.05 28.55 -2.5 30.65 -0.35 32.6 1.6 32.85 1.85 34.55 1.45 34.6 1.45 34.7 1.25 37.15 -4.4 38.5 1.9 38.8 2.0 39.65 2.5 39.7 2.5 39.9 2.35 41.75 0.7 43.9 -1.25 45.6 -2.85 44.0 0.4 43.7 0.95 42.1 4.15 41.45 4.0 41.9 4.6 42.4 5.35 43.1 7.45 43.3 7.4 44.05 7.0 48.25 11.25 45.9 11.9 45.95 11.35 Q45.95 10.5 45.35 9.85 44.7 9.25 43.85 9.25 43.0 9.25 42.4 9.85 L42.05 10.3 41.1 10.1 40.55 10.0 40.25 10.95 39.15 12.5 39.1 12.6 38.95 12.75 38.1 13.35 36.55 13.9 35.55 13.95 35.3 13.95 Q34.2 13.9 33.3 13.35 L32.35 12.65 32.0 12.3 31.85 12.25 31.5 11.6 31.1 10.8 Q30.8 9.85 30.9 8.75 L30.95 8.2 28.9 7.9 28.8 8.7 Q28.55 11.5 30.35 13.55 L31.25 14.4 32.15 15.05 Q33.35 15.7 34.95 15.8 L35.8 15.85 36.7 15.7 38.5 15.05 39.85 14.1 40.05 13.95 40.8 13.1 41.05 12.8 41.7 11.6 41.75 11.5 Q41.8 12.2 42.35 12.75 L41.4 14.0 41.3 14.2 41.35 14.5 41.8 18.65 40.85 17.7 40.15 17.0 39.1 15.95 37.55 16.7 37.4 16.75 36.95 18.1 36.45 19.5 34.65 24.5 33.95 26.5 33.75 27.0 32.85 29.6 32.4 30.85 32.35 30.9 32.35 30.85 32.35 27.6 32.3 25.8 32.25 18.05 32.25 16.5 32.2 16.45 31.95 16.35 31.05 15.85 30.45 15.45 30.4 15.4 25.85 18.4 28.75 13.6 28.7 13.5 Q27.4 11.45 27.55 9.05 L25.7 10.25 24.6 9.35 24.05 8.95 24.0 8.85 23.75 8.7 20.25 6.45 18.45 5.5 18.0 5.3 18.4 5.3 20.1 5.2 22.0 5.0 27.8 3.9 28.45 5.65 28.45 5.7 28.55 5.6 Q29.0 4.65 29.75 3.9 L29.8 3.85 30.4 3.3 29.75 3.75 26.95 -1.5 M41.3 5.45 L40.7 4.65 40.25 4.15 Q38.55 2.55 36.1 2.4 L35.4 2.4 Q33.95 2.4 32.7 3.1 31.9 3.45 31.2 4.1 L31.1 4.2 Q29.9 5.2 29.35 6.55 L31.35 6.9 32.6 5.4 32.7 5.35 33.2 4.95 Q34.55 4.1 36.2 4.2 L36.5 4.2 36.55 4.2 Q37.5 4.3 38.2 4.7 L39.55 5.8 39.55 5.85 40.4 7.25 40.65 8.6 41.15 8.7 42.25 8.9 42.1 7.8 Q41.95 6.55 41.3 5.45 M36.95 4.9 L36.2 4.8 36.1 4.8 Q34.6 4.75 33.5 5.6 L33.15 5.85 32.7 6.3 32.15 7.05 32.65 7.15 34.5 7.5 38.35 8.2 38.85 8.3 40.0 8.5 Q39.9 7.2 39.05 6.2 38.5 5.55 37.75 5.25 37.4 5.0 36.95 4.9 M35.1 9.0 L35.0 9.0 32.6 8.55 31.7 8.35 31.65 8.7 Q31.55 9.6 31.75 10.35 L32.4 11.6 32.6 11.8 33.85 12.8 35.45 13.2 35.5 13.2 36.5 13.15 37.5 12.85 38.35 12.35 38.55 12.15 Q39.5 11.3 39.85 10.2 L39.9 9.95 40.0 9.35 40.0 9.2 39.65 9.85 36.95 9.35 36.65 9.3 35.1 9.0" fill="#ffff00" fill-rule="evenodd" stroke="none"/>
      <path d="M-5.0 48.7 L-6.45 47.4 M-5.5 58.75 L-3.35 56.95 -3.1 56.8 M-2.95 57.15 L-3.15 57.2 M42.0 49.6 L44.95 58.75 M27.3 56.1 L27.8 54.85 32.85 42.2" fill="none" stroke="#1f2d87" stroke-linecap="round" stroke-linejoin="round" stroke-width="1.0"/>
      <path d="M56.8 18.65 L56.3 18.95 M54.95 32.5 Q54.0 31.65 52.8 31.65 L52.55 31.65 Q51.0 31.75 49.9 33.0 L49.3 33.85 M53.15 42.3 L53.95 41.85 Q55.3 40.95 56.0 39.75 L56.2 39.35 56.65 37.45 56.65 36.95 Q56.65 34.85 55.65 33.3 L54.95 32.5 56.8 29.05 M50.3 43.15 L51.15 43.0 53.15 42.3" fill="none" stroke="#142a83" stroke-linecap="round" stroke-linejoin="round" stroke-width="1.0"/>
      <path d="M3.1 3.95 L4.05 4.4 M-9.35 11.7 Q-9.7 6.95 -7.85 0.85 L-7.6 0.9 Q-2.45 1.55 2.55 3.7 L3.1 3.95 M19.85 2.85 L23.7 0.45 26.95 -1.5 M28.55 -2.5 L30.25 -3.55 30.8 -3.8 M31.2 -3.95 L32.2 -2.5 33.2 -1.0 34.7 1.25 M-8.85 14.9 L-9.0 14.25 -9.35 11.7 M2.3 53.0 Q2.75 52.75 3.3 52.65 L3.2 50.8 Q3.2 49.0 3.7 47.15 M-3.1 56.8 L-3.25 56.55 M-2.95 57.15 L-3.1 56.8 M-2.0 58.75 L-2.95 57.15 M40.25 10.95 L40.95 12.3 41.0 12.4 M38.4 7.45 L37.55 6.0 36.95 4.9 M38.4 7.45 L38.85 8.3 M39.75 10.0 L39.65 9.85 M39.85 10.2 L39.75 10.0 M36.55 4.2 L35.4 2.4 M16.95 19.5 L19.1 21.95 20.75 23.95 25.15 29.45 26.35 31.15 27.1 30.7 27.4 30.55 27.45 30.55 27.65 30.45 28.0 30.25 29.4 29.4 29.5 29.4 30.55 28.75 31.65 28.05 32.35 27.6 M28.75 43.45 L30.65 42.7 32.65 41.6 33.75 40.8 Q36.1 38.9 36.5 35.75 L36.6 34.85 36.7 32.75 36.75 32.2 37.2 29.5 Q37.6 28.25 38.55 27.0 M5.25 43.0 L5.25 42.35 5.45 40.8 2.15 38.55 M3.85 46.55 Q4.35 44.8 5.2 43.1 L5.25 43.0 Q5.3 45.1 5.8 47.65 L5.85 47.8 5.9 48.1 M9.05 42.35 L5.45 40.8 M9.05 42.35 L9.45 42.5 11.8 43.15 19.55 44.3 21.35 44.35 21.4 44.35 21.65 44.35 21.55 44.2 M17.55 55.15 L16.85 52.05 M14.6 47.45 L13.85 46.25 11.8 43.15 M19.65 46.5 L19.55 44.3 M19.6 50.0 L19.7 47.9 19.65 46.5 M35.5 25.35 L34.7 25.95 33.95 26.5 M21.65 44.35 L23.8 44.3 23.85 44.3 26.8 43.95 28.75 43.45 M21.65 44.35 L22.15 45.6 22.2 45.8 23.5 48.9 23.9 49.9 23.95 50.05 24.2 50.8 M24.45 51.5 Q25.4 51.8 26.05 52.5 27.25 53.75 27.3 56.1 L27.3 56.35 27.3 56.45 27.3 56.75 25.25 58.75 25.25 58.45 25.3 57.45 25.3 57.35 25.3 57.15 25.1 54.6 M35.5 25.35 L37.45 23.8 M30.0 54.75 L29.85 54.85 Q28.35 55.85 27.8 56.35 L27.3 56.75 M21.95 50.7 L21.95 50.75 M18.95 53.5 L17.95 56.05 17.65 56.6 17.65 57.4 17.55 58.75 M17.55 55.15 L17.65 56.6 M3.3 52.65 L3.95 52.5 4.7 52.5 M2.95 53.8 L3.05 54.0 4.65 55.95 6.35 58.75 M8.4 58.75 L7.3 53.7" fill="none" stroke="#215086" stroke-linecap="round" stroke-linejoin="round" stroke-width="1.0"/>
      <path d="M5.45 18.75 L4.85 16.75 4.05 13.4 M4.0 13.1 L3.95 12.95 3.95 12.85 M-5.55 51.2 L-5.9 50.25 -6.6 48.3 -5.45 48.6 -5.0 48.7 -3.2 49.4 -2.4 49.75 -2.2 49.85 Q-1.9 49.95 -1.55 50.2 -0.3 50.85 0.85 51.75 L0.9 51.75 1.4 52.2 2.3 53.0 2.7 53.35 2.95 53.55 3.05 53.7 2.95 53.8 1.0 55.75 0.6 56.2 M-3.25 56.55 L-3.65 56.6 -5.55 51.2 M0.4 56.15 L-3.25 56.55 M36.45 19.5 L37.25 23.0 37.45 23.8 38.4 26.6 38.55 27.0 41.2 33.25 41.7 33.85 42.7 34.0 42.75 34.0 43.05 33.9 44.05 33.6 44.4 33.5 M52.0 27.7 L52.95 26.3 M48.2 31.35 Q50.3 29.8 52.0 27.7 M35.0 9.0 L35.45 13.2 M38.35 12.35 Q37.35 11.8 36.25 10.5 L35.1 9.0 M20.5 8.7 Q22.25 9.55 23.75 8.7 M17.6 18.65 Q19.2 16.95 21.35 17.15 L22.0 16.25 Q23.9 13.3 24.6 9.35 M39.1 12.6 L40.4 12.55 40.8 12.4 M35.8 15.85 L35.55 13.95 M6.1 20.6 L5.5 19.0 5.45 18.75 M7.35 23.6 L7.1 23.0 6.1 20.6 M7.35 23.6 L7.6 24.15 8.2 25.2 8.9 26.5 Q9.7 27.6 10.45 27.45 L10.65 27.35 12.7 25.9 Q14.4 24.45 15.5 22.45 M15.5 22.25 L15.65 21.95 16.2 20.75 16.95 19.5 17.6 18.65 M6.0 47.65 Q6.4 45.4 7.4 44.05 L7.5 44.0 7.9 44.05 8.0 44.05 9.7 44.65 10.55 45.0 11.5 45.5 11.6 45.55 12.65 46.15 13.4 46.6 13.95 46.95 14.6 47.45 14.9 47.9 15.5 48.95 16.15 50.2 16.85 52.05 15.5 50.9 14.2 50.05 13.4 49.6 13.05 49.4 12.75 49.25 11.65 48.8 10.4 48.4 9.55 48.2 8.65 48.1 M5.9 48.1 L6.0 47.65 M6.15 49.15 L7.3 53.55 Q7.2 50.6 8.1 48.8 L8.45 48.1 M6.15 49.15 L5.95 48.3 5.9 48.1 M24.2 50.8 L24.45 51.5 24.7 52.5 24.9 53.5 25.05 54.4 25.1 54.6 M21.55 47.65 L21.65 47.55 21.65 47.6 22.2 48.25 M22.3 48.4 L23.5 49.95 23.7 50.2 24.2 50.8 M21.1 48.1 L21.0 48.25 19.6 50.0 Q19.45 51.85 18.95 53.5 L20.2 52.0 21.05 51.3 21.6 50.95 21.8 50.8 21.95 50.75 22.0 50.7 22.4 51.0 22.6 51.2 23.05 51.7 23.7 52.55 23.85 52.75 24.15 53.15 24.7 53.85 25.05 54.4 M21.55 47.65 L21.1 48.1 M39.75 52.0 L40.7 52.05 40.0 53.1 39.45 53.8 35.9 58.75 M39.75 52.0 L37.1 52.15 36.25 52.3 36.05 52.3 35.3 52.5 Q33.95 52.75 32.55 53.3 L32.45 53.35 31.9 53.6 30.4 54.3 30.0 54.55 29.9 54.55 30.0 54.75 31.3 57.15 31.65 57.7 M34.45 58.75 L31.8 57.7 M7.3 53.7 L7.3 53.55" fill="none" stroke="#5e1d00" stroke-linecap="round" stroke-linejoin="round" stroke-width="1.0"/>
      <path d="M54.7 -7.6 L56.15 -3.8 56.8 -1.9 M56.8 7.9 L56.7 8.2" fill="none" stroke="#6a3d16" stroke-linecap="round" stroke-linejoin="round" stroke-width="1.0"/>
      <path d="M40.1 -5.85 L40.1 -5.8 Q41.3 -3.1 41.8 0.0 M39.25 -7.6 L40.1 -5.85 M-9.45 15.0 L-8.85 14.9 -7.25 14.85 -7.05 14.95 -6.5 15.15 Q-3.8 16.35 -1.7 18.75 L-0.4 20.2 Q2.1 23.4 3.25 26.7 L3.25 26.8 Q3.45 28.65 4.1 30.25 L4.2 32.3 Q4.2 33.6 3.15 36.15 L2.7 37.1 2.15 38.55 Q1.25 40.8 1.25 42.25 1.25 42.75 1.4 43.25 1.65 44.05 2.25 44.8 L3.85 46.55 4.3 47.0 3.7 47.15 2.6 47.35 Q-2.0 48.1 -6.45 47.4 L-6.8 47.35 -9.45 46.8 M40.95 12.3 L41.05 11.7 M47.65 46.9 Q46.15 48.1 44.05 48.95 L42.85 49.35 42.0 49.6 39.3 50.1 33.65 50.7 31.2 50.85 31.0 50.85 30.9 50.85 30.65 50.85 30.8 50.5 31.4 49.85 32.25 48.45 32.55 47.65 Q33.45 44.7 32.85 42.2 L32.65 41.6 M49.3 33.85 Q50.85 37.4 50.85 39.5 50.85 41.1 50.5 42.5 L50.3 43.15 Q49.45 45.3 47.65 46.9 M48.2 31.65 L48.3 31.9 48.35 31.9 49.3 33.85" fill="none" stroke="#1b1f5e" stroke-linecap="round" stroke-linejoin="round" stroke-width="1.0"/>
      <path d="M7.25 -7.6 L6.15 -4.5 5.85 -3.7 4.8 0.0 M4.05 4.4 L4.2 3.2 4.8 0.35 M19.0 -7.6 L19.0 -7.15 M19.05 -6.7 L19.45 -1.0 19.85 2.85 20.1 5.2 M41.8 0.0 L42.35 -4.15 42.5 -5.4 42.9 -7.6 M56.8 8.5 L56.7 8.2 56.15 6.6 56.1 6.45 Q53.6 -0.85 50.5 -7.6 M4.05 13.4 L4.05 13.35 4.0 13.3 4.0 13.2 4.0 13.1 4.0 12.95 3.95 12.85 3.95 12.75 Q3.35 8.95 4.05 4.4 M41.05 11.7 L41.1 10.1 M41.05 11.7 L41.05 12.15 41.0 12.45 M41.3 5.45 Q41.15 7.05 41.15 8.7 M53.05 26.15 Q54.7 23.5 55.75 20.6 L56.3 18.95 56.8 16.95 M52.95 26.3 L53.05 26.15 M41.75 0.7 L41.8 0.0 M20.5 8.7 L20.5 8.5 20.25 6.45" fill="none" stroke="#27799c" stroke-linecap="round" stroke-linejoin="round" stroke-width="1.0"/>
      <path d="M41.0 12.45 L41.05 12.8 M41.05 12.15 L41.0 12.3 41.0 12.45 M40.95 12.45 L40.8 13.1 M40.95 12.45 L41.0 12.4 41.0 12.3 M41.35 14.5 L41.4 14.9 41.4 14.95 41.5 15.55 41.5 15.65 41.85 17.8 42.45 20.4 43.1 22.3 Q44.25 25.05 46.0 26.25 L46.45 26.55 47.65 27.0 48.55 27.15 50.5 27.0 52.95 26.2 53.05 26.15 M12.35 17.25 L11.5 17.95 9.0 19.7 8.35 19.75 7.55 19.4 7.4 19.2 6.45 17.9 5.4 16.1 4.15 13.4 4.15 13.35 4.05 13.2 4.0 13.1 M19.4 10.15 L19.5 10.1 20.5 8.7 M19.0 10.6 L19.4 10.15 M19.0 10.6 Q16.85 13.25 14.35 15.5 L13.7 16.1 12.35 17.2 M3.95 12.95 L4.0 12.95" fill="none" stroke="#5e1d00" stroke-linecap="round" stroke-linejoin="round" stroke-width="0.5"/>
      <path d="M25.8 39.45 L25.15 40.9 Q24.05 42.7 22.2 42.7 20.3 42.7 19.55 41.6 18.95 40.7 18.95 38.9 18.95 38.3 19.4 36.85 19.85 35.35 20.15 35.2 L19.9 35.1 19.4 34.8 M23.85 35.35 L24.65 35.05 26.05 36.05 Q26.55 36.35 26.95 36.45 M25.8 39.45 L26.05 37.4 26.05 36.05 M20.15 35.2 L23.85 35.35" fill="none" stroke="#692a33" stroke-linecap="round" stroke-linejoin="round" stroke-width="1.0"/>
    </g>
    <linearGradient gradientTransform="matrix(-0.011, 0.02, 0.5106, 0.2806, -160.05, -48.4)" gradientUnits="userSpaceOnUse" id="gradient0" spreadMethod="pad" x1="-819.2" x2="819.2">
      <stop offset="0.00392156862745098" stop-color="#3170e1"/>
      <stop offset="1.0" stop-color="#2337aa"/>
    </linearGradient>
    <linearGradient gradientTransform="matrix(-0.007, 0.0163, 0.4904, 0.2115, -249.8, -70.3)" gradientUnits="userSpaceOnUse" id="gradient1" spreadMethod="pad" x1="-819.2" x2="819.2">
      <stop offset="0.00392156862745098" stop-color="#72b6f7"/>
      <stop offset="0.42745098039215684" stop-color="#467cdc"/>
      <stop offset="1.0" stop-color="#2048cb"/>
    </linearGradient>
    <linearGradient gradientTransform="matrix(0.0669, -0.047, -0.3079, -0.4379, 83.55, 179.4)" gradientUnits="userSpaceOnUse" id="gradient2" spreadMethod="pad" x1="-819.2" x2="819.2">
      <stop offset="0.00392156862745098" stop-color="#72f7f3"/>
      <stop offset="1.0" stop-color="#e9fdff"/>
    </linearGradient>
    <linearGradient gradientTransform="matrix(-0.0473, 0.0168, 0.1955, 0.5498, -63.65, -131.85)" gradientUnits="userSpaceOnUse" id="gradient3" spreadMethod="pad" x1="-819.2" x2="819.2">
      <stop offset="0.00392156862745098" stop-color="#3170e1"/>
      <stop offset="1.0" stop-color="#2337aa"/>
    </linearGradient>
    <linearGradient gradientTransform="matrix(0.0159, -0.0041, 0.1326, 0.5184, -37.5, -355.75)" gradientUnits="userSpaceOnUse" id="gradient4" spreadMethod="pad" x1="-819.2" x2="819.2">
      <stop offset="0.0" stop-color="#f5b024"/>
      <stop offset="1.0" stop-color="#f87908"/>
    </linearGradient>
    <linearGradient gradientTransform="matrix(0.0136, -0.0077, 0.2641, 0.4654, -104.9, -263.6)" gradientUnits="userSpaceOnUse" id="gradient5" spreadMethod="pad" x1="-819.2" x2="819.2">
      <stop offset="0.0" stop-color="#f2fbde"/>
      <stop offset="0.48627450980392156" stop-color="#f0ea8a"/>
      <stop offset="1.0" stop-color="#f0de56"/>
    </linearGradient>
    <linearGradient gradientTransform="matrix(0.0046, 0.0184, -0.5183, 0.1298, 478.1, -78.6)" gradientUnits="userSpaceOnUse" id="gradient6" spreadMethod="pad" x1="-819.2" x2="819.2">
      <stop offset="0.0" stop-color="#05176b"/>
      <stop offset="0.3764705882352941" stop-color="#072084"/>
      <stop offset="0.7607843137254902" stop-color="#0c31be"/>
      <stop offset="1.0" stop-color="#218ef3"/>
    </linearGradient>
    <linearGradient gradientTransform="matrix(0.0019, 0.0108, -0.526, 0.0931, 42.7, 35.6)" gradientUnits="userSpaceOnUse" id="gradient7" spreadMethod="pad" x1="-819.2" x2="819.2">
      <stop offset="0.0" stop-color="#0afdff"/>
      <stop offset="0.4117647058823529" stop-color="#0296ff"/>
      <stop offset="0.8901960784313725" stop-color="#258bf0"/>
    </linearGradient>
    <linearGradient gradientTransform="matrix(0.0215, -0.0043, 0.0913, 0.4586, 21.1, -122.8)" gradientUnits="userSpaceOnUse" id="gradient8" spreadMethod="pad" x1="-819.2" x2="819.2">
      <stop offset="0.0" stop-color="#d06f11"/>
      <stop offset="1.0" stop-color="#e9b224"/>
    </linearGradient>
    <linearGradient gradientTransform="matrix(0.0261, 0.0313, 0.4102, -0.3426, -214.65, 174.6)" gradientUnits="userSpaceOnUse" id="gradient9" spreadMethod="pad" x1="-819.2" x2="819.2">
      <stop offset="0.00392156862745098" stop-color="#3170e1"/>
      <stop offset="1.0" stop-color="#2337aa"/>
    </linearGradient>
    <linearGradient gradientTransform="matrix(0.013, 0.0225, 0.4633, -0.2681, -238.15, 124.35)" gradientUnits="userSpaceOnUse" id="gradient10" spreadMethod="pad" x1="-819.2" x2="819.2">
      <stop offset="0.00392156862745098" stop-color="#72b6f7"/>
      <stop offset="0.42745098039215684" stop-color="#467cdc"/>
      <stop offset="1.0" stop-color="#2048cb"/>
    </linearGradient>
    <linearGradient gradientTransform="matrix(-0.0246, -0.0049, -0.1047, 0.5259, 14.5, -143.05)" gradientUnits="userSpaceOnUse" id="gradient11" spreadMethod="pad" x1="-819.2" x2="819.2">
      <stop offset="0.0" stop-color="#d06f11"/>
      <stop offset="1.0" stop-color="#e9b224"/>
    </linearGradient>
    <linearGradient gradientTransform="matrix(0.0027, -0.0079, -0.5124, -0.175, 173.1, 84.4)" gradientUnits="userSpaceOnUse" id="gradient12" spreadMethod="pad" x1="-819.2" x2="819.2">
      <stop offset="0.00392156862745098" stop-color="#72b6f7"/>
      <stop offset="0.42745098039215684" stop-color="#467cdc"/>
      <stop offset="1.0" stop-color="#2048cb"/>
    </linearGradient>
    <linearGradient gradientTransform="matrix(-0.0022, -0.0124, -0.525, 0.0929, 190.05, 11.55)" gradientUnits="userSpaceOnUse" id="gradient13" spreadMethod="pad" x1="-819.2" x2="819.2">
      <stop offset="0.00392156862745098" stop-color="#3170e1"/>
      <stop offset="1.0" stop-color="#2337aa"/>
    </linearGradient>
    <linearGradient gradientTransform="matrix(-0.5366, 0.0, 0.0, 0.5366, 209.7, -157.1)" gradientUnits="userSpaceOnUse" id="gradient14" spreadMethod="pad" x1="-819.2" x2="819.2">
      <stop offset="0.0" stop-color="#dd7634"/>
      <stop offset="1.0" stop-color="#d8732b"/>
    </linearGradient>
    <linearGradient gradientTransform="matrix(-0.0074, 0.0056, 0.3232, 0.4273, -78.5, -106.5)" gradientUnits="userSpaceOnUse" id="gradient15" spreadMethod="pad" x1="-819.2" x2="819.2">
      <stop offset="0.0" stop-color="#ffdb48"/>
      <stop offset="1.0" stop-color="#e8a926"/>
    </linearGradient>
    <linearGradient gradientTransform="matrix(0.0019, 1.0E-4, 0.0188, -0.5362, -286.3, 171.15)" gradientUnits="userSpaceOnUse" id="gradient16" spreadMethod="pad" x1="-819.2" x2="819.2">
      <stop offset="0.0" stop-color="#bc3f13"/>
      <stop offset="1.0" stop-color="#b8450f"/>
    </linearGradient>
    <linearGradient gradientTransform="matrix(-0.0098, -0.0095, -0.3725, 0.3846, 367.35, -307.65)" gradientUnits="userSpaceOnUse" id="gradient17" spreadMethod="pad" x1="-819.2" x2="819.2">
      <stop offset="0.0" stop-color="#ffdb48"/>
      <stop offset="1.0" stop-color="#e8a926"/>
    </linearGradient>
    <linearGradient gradientTransform="matrix(-0.0066, -0.0149, -0.5353, 0.2385, 173.45, -39.65)" gradientUnits="userSpaceOnUse" id="gradient18" spreadMethod="pad" x1="-819.2" x2="819.2">
      <stop offset="0.00392156862745098" stop-color="#72b6f7"/>
      <stop offset="0.42745098039215684" stop-color="#467cdc"/>
      <stop offset="1.0" stop-color="#2048cb"/>
    </linearGradient>
    <linearGradient gradientTransform="matrix(-0.0194, -0.0173, -0.3903, 0.4359, 123.35, -119.5)" gradientUnits="userSpaceOnUse" id="gradient19" spreadMethod="pad" x1="-819.2" x2="819.2">
      <stop offset="0.00392156862745098" stop-color="#3170e1"/>
      <stop offset="1.0" stop-color="#2337aa"/>
    </linearGradient>
    <g id="shape2" transform="matrix(1.0, 0.0, 0.0, 1.0, 0.0, 0.0)">
      <path d="M50.5 0.0 Q53.95 0.0 53.95 3.3 L53.95 50.15 Q53.95 53.4 50.5 53.4 L3.3 53.4 Q0.0 53.4 0.0 50.15 L0.0 3.3 Q0.0 0.0 3.3 0.0 L50.5 0.0" fill="#000000" fill-opacity="0.003921569" fill-rule="evenodd" stroke="none"/>
    </g>
  </defs>
</svg>
