<?xml version="1.0" encoding="UTF-8" standalone="no"?>
<svg xmlns:ffdec="https://www.free-decompiler.com/flash" xmlns:xlink="http://www.w3.org/1999/xlink" ffdec:objectType="frame" height="63.1px" width="64.9px" xmlns="http://www.w3.org/2000/svg">
  <g transform="matrix(1.0, 0.0, 0.0, 1.0, 2.8, 5.05)">
    <clipPath id="clipPath0" transform="matrix(1.0, 0.0, 0.0, 1.0, 0.0, 0.0)">
      <path d="M50.5 0.0 Q53.95 0.0 53.95 3.3 L53.95 50.15 Q53.95 53.4 50.5 53.4 L3.3 53.4 Q0.0 53.4 0.0 50.15 L0.0 3.3 Q0.0 0.0 3.3 0.0 L50.5 0.0" fill="#000000" fill-rule="evenodd" stroke="none"/>
    </clipPath>
    <g clip-path="url(#clipPath0)">
      <use ffdec:characterId="2" height="63.1" transform="matrix(1.0, 0.0, 0.0, 1.0, -2.8, -5.05)" width="64.9" xlink:href="#shape1"/>
    </g>
    <use ffdec:characterId="3" height="53.4" transform="matrix(1.0, 0.0, 0.0, 1.0, 0.0, 0.0)" width="53.95" xlink:href="#shape2"/>
  </g>
  <defs>
    <g id="shape1" transform="matrix(1.0, 0.0, 0.0, 1.0, 2.8, 5.05)">
      <path d="M0.6 -4.15 L0.7 -3.95 0.95 -4.3 2.1 -4.3 1.25 -2.4 0.6 -0.9 0.45 -0.45 0.5 -2.4 0.6 -4.15" fill="#d868ee" fill-rule="evenodd" stroke="none"/>
      <path d="M0.5 -4.3 L0.6 -4.15 0.5 -2.4 0.45 -0.45 0.6 -0.9 1.25 -2.4 2.1 -4.3 5.1 -4.3 7.7 2.5 9.8 4.5 11.8 6.1 14.45 8.05 20.6 12.0 14.25 2.15 13.35 0.7 12.1 -1.25 11.85 -1.7 11.75 -3.55 11.7 -4.3 20.35 -4.3 20.5 -3.0 16.2 -0.7 16.4 0.1 Q17.05 1.4 19.2 2.2 L21.5 2.9 22.55 7.1 22.8 7.85 24.45 12.7 23.85 13.95 22.8 14.4 20.65 14.3 18.35 15.15 Q17.25 15.5 17.55 16.15 L17.2 15.9 13.15 12.45 11.15 10.8 10.55 10.25 8.15 8.25 6.3 6.7 4.25 5.0 1.8 4.5 0.15 4.1 -2.05 3.4 -2.05 -4.3 0.5 -4.3 M44.05 -4.3 L50.6 -4.3 49.95 -3.4 49.0 -2.0 47.8 0.0 46.75 1.95 45.65 3.85 Q44.7 2.65 45.35 1.0 L44.2 -0.1 Q42.5 -2.2 44.05 -4.3 M57.35 0.35 Q59.6 -2.0 61.25 -4.3 L61.35 -4.3 61.35 2.9 Q59.85 4.2 58.5 5.9 L56.85 8.15 56.35 8.95 52.4 11.45 50.65 12.55 46.35 15.4 43.6 17.2 40.6 17.5 40.3 17.5 39.75 17.4 41.25 16.15 44.55 12.8 44.6 12.75 46.3 10.8 48.9 6.95 48.45 6.55 48.6 6.35 49.0 5.75 51.1 2.1 51.55 2.6 52.2 3.4 52.3 3.7 52.4 4.1 52.85 7.2 52.85 7.3 52.95 7.15 53.55 5.75 54.25 3.9 54.5 3.25 55.45 2.25 56.0 1.65 57.3 0.4 57.35 0.35 M24.35 21.8 L24.5 21.9 25.05 22.35 24.95 22.3 24.35 21.8" fill="#ffffff" fill-rule="evenodd" stroke="none"/>
      <path d="M0.5 -4.3 L0.95 -4.3 0.7 -3.95 0.6 -4.15 0.5 -4.3" fill="#f92f17" fill-rule="evenodd" stroke="none"/>
      <path d="M5.1 -4.3 L7.2 -4.3 8.8 0.4 9.8 3.05 9.65 3.7 10.05 3.8 9.8 4.5 7.7 2.5 5.1 -4.3 M6.3 6.7 L8.15 8.25 7.15 10.05 6.15 11.65 5.4 12.55 4.85 13.1 4.75 14.45 Q4.75 16.25 5.4 17.5 3.95 16.35 3.45 14.4 3.2 13.55 3.1 12.55 L3.05 11.9 4.55 10.25 4.8 9.85 4.95 9.75 5.75 8.15 6.3 6.7" fill="#ff2a26" fill-rule="evenodd" stroke="none"/>
      <path d="M7.2 -4.3 L11.7 -4.3 11.75 -3.55 11.85 -1.7 12.1 -1.25 Q11.2 -0.65 10.6 -0.05 L10.2 1.2 10.15 1.4 Q9.9 2.25 9.8 3.05 L8.8 0.4 7.2 -4.3" fill="#fd301b" fill-rule="evenodd" stroke="none"/>
      <path d="M9.8 3.05 Q9.9 2.25 10.15 1.4 L10.2 1.2 10.6 -0.05 Q11.2 -0.65 12.1 -1.25 L13.35 0.7 Q12.75 0.95 12.55 1.15 L12.25 1.85 12.2 2.0 Q11.8 3.15 11.65 4.5 L10.15 3.85 10.05 3.8 9.65 3.7 9.8 3.05" fill="#fe5f0e" fill-rule="evenodd" stroke="none"/>
      <path d="M24.05 -4.3 L26.4 -4.3 26.05 -3.55 25.75 -2.85 25.7 -2.65 25.5 -2.15 25.1 -2.75 24.95 -2.9 24.8 -3.15 24.55 -3.5 24.05 -4.3" fill="#64d128" fill-rule="evenodd" stroke="none"/>
      <path d="M23.0 -4.3 L24.05 -4.3 24.55 -3.5 24.8 -3.15 24.95 -2.9 25.1 -2.75 25.5 -2.15 25.2 -1.05 24.9 0.4 23.35 0.45 23.2 0.45 20.95 0.4 17.85 0.15 16.4 0.1 16.2 -0.7 20.5 -3.0 20.95 -3.2 22.15 -3.85 22.7 -4.15 23.0 -4.3" fill="#75e12b" fill-rule="evenodd" stroke="none"/>
      <path d="M21.15 -4.3 L22.55 -4.3 22.7 -4.15 22.15 -3.85 20.95 -3.2 21.15 -4.3 M25.95 5.45 L22.8 7.85 22.55 7.1 21.5 2.9 22.8 3.25 24.55 3.65 24.65 3.65 24.7 3.7 25.0 4.0 25.95 5.45" fill="#fe791a" fill-rule="evenodd" stroke="none"/>
      <path d="M22.55 -4.3 L23.0 -4.3 22.7 -4.15 22.55 -4.3" fill="#ff4016" fill-rule="evenodd" stroke="none"/>
      <path d="M20.35 -4.3 L21.15 -4.3 20.95 -3.2 20.5 -3.0 20.35 -4.3 M13.35 0.7 L14.25 2.15 12.25 1.85 12.55 1.15 Q12.75 0.95 13.35 0.7" fill="#fd7119" fill-rule="evenodd" stroke="none"/>
      <path d="M27.25 -4.3 L31.1 -4.3 29.55 -2.55 28.3 -3.0 28.05 -3.1 27.85 -3.15 26.6 -3.4 26.85 -3.8 27.25 -4.3" fill="#58dc19" fill-rule="evenodd" stroke="none"/>
      <path d="M26.6 -3.4 L27.85 -3.15 28.05 -3.1 28.3 -3.0 29.55 -2.55 28.15 -0.9 28.05 -0.25 28.05 -0.15 26.8 1.05 26.5 1.4 26.3 1.6 25.05 3.2 Q25.1 1.8 25.4 0.35 L25.65 -0.6 25.8 -1.25 25.9 -1.6 26.1 -2.2 26.6 -3.4" fill="#70dd2a" fill-rule="evenodd" stroke="none"/>
      <path d="M26.4 -4.3 L27.25 -4.3 26.85 -3.8 26.6 -3.4 26.1 -2.2 25.75 -2.85 26.05 -3.55 26.4 -4.3" fill="#87ec36" fill-rule="evenodd" stroke="none"/>
      <path d="M25.5 -2.15 L25.7 -2.65 25.75 -2.85 26.1 -2.2 25.9 -1.6 25.8 -1.25 25.65 -0.6 25.4 0.35 Q25.1 1.8 25.05 3.2 L25.0 4.0 24.7 3.7 24.65 3.65 24.55 3.65 24.9 0.4 25.2 -1.05 25.5 -2.15" fill="#a6f220" fill-rule="evenodd" stroke="none"/>
      <path d="M31.1 -4.3 L32.2 -4.3 31.85 -3.3 Q31.4 -1.9 31.15 0.15 L30.9 3.15 Q29.3 1.6 28.05 -0.25 L28.15 -0.9 29.55 -2.55 31.1 -4.3" fill="#ff4319" fill-rule="evenodd" stroke="none"/>
      <path d="M28.05 -0.15 L28.05 -0.25 Q29.3 1.6 30.9 3.15 L30.8 5.9 30.8 6.9 31.15 9.9 31.25 10.45 31.45 12.0 31.55 12.55 31.55 12.75 31.2 14.05 31.15 13.95 30.55 12.55 29.25 9.4 29.25 9.35 29.15 9.1 Q28.6 7.5 28.35 5.65 28.05 3.65 28.05 1.45 L28.05 0.7 28.05 -0.15" fill="#ff5b1b" fill-rule="evenodd" stroke="none"/>
      <path d="M32.2 -4.3 L37.45 -4.3 37.1 -3.55 36.9 -3.1 36.45 -0.55 36.45 -0.5 35.25 -0.7 34.75 -0.7 32.4 -0.25 31.15 0.15 Q31.4 -1.9 31.85 -3.3 L32.2 -4.3" fill="#fea515" fill-rule="evenodd" stroke="none"/>
      <path d="M31.15 0.15 L32.4 -0.25 34.75 -0.7 35.25 -0.7 36.45 -0.5 36.3 0.4 36.15 1.6 35.95 3.4 35.9 5.7 Q35.9 7.3 36.3 9.7 L36.45 10.55 34.8 10.15 32.1 9.55 31.6 12.55 31.55 12.75 31.55 12.55 31.45 12.0 31.25 10.45 31.15 9.9 30.8 6.9 30.8 5.9 30.9 3.15 31.15 0.15" fill="#fdc115" fill-rule="evenodd" stroke="none"/>
      <path d="M37.45 -4.3 L38.95 -4.3 36.45 -0.55 36.9 -3.1 37.1 -3.55 37.45 -4.3" fill="#c5182b" fill-rule="evenodd" stroke="none"/>
      <path d="M38.95 -4.3 L41.35 -4.3 Q40.2 -3.5 39.5 -2.5 L39.5 -2.4 Q39.6 -1.5 40.05 -0.55 L40.15 -0.25 37.95 1.5 37.65 1.7 36.8 2.55 35.95 3.4 36.15 1.6 36.3 0.4 36.45 -0.5 36.45 -0.55 38.95 -4.3" fill="#ff280d" fill-rule="evenodd" stroke="none"/>
      <path d="M41.35 -4.3 L44.05 -4.3 Q42.5 -2.2 44.2 -0.1 L42.55 -0.35 42.4 -0.35 40.6 -0.5 40.05 -0.55 Q39.6 -1.5 39.5 -2.4 L39.5 -2.5 Q40.2 -3.5 41.35 -4.3" fill="#55cb1f" fill-rule="evenodd" stroke="none"/>
      <path d="M40.15 -0.25 L40.05 -0.55 40.6 -0.5 42.4 -0.35 42.55 -0.35 44.2 -0.1 45.35 1.0 Q44.7 2.65 45.65 3.85 L46.15 4.4 48.25 6.25 46.95 6.3 43.1 5.75 41.9 5.4 42.05 3.45 41.8 2.5 41.6 2.25 41.55 2.2 40.7 0.9 40.15 -0.25" fill="#7de02e" fill-rule="evenodd" stroke="none"/>
      <path d="M49.95 -3.4 L51.75 1.6 48.25 3.85 48.15 3.3 48.25 2.75 48.3 2.5 Q48.85 0.25 49.0 -2.0 L49.95 -3.4" fill="#7b0580" fill-rule="evenodd" stroke="none"/>
      <path d="M50.6 -4.3 L53.5 -4.3 55.3 0.0 56.0 1.65 55.45 2.25 54.5 3.25 54.05 3.7 53.85 3.55 53.05 3.0 52.35 3.6 52.2 3.4 51.55 2.6 51.1 2.1 49.0 5.75 48.6 6.35 Q48.1 5.45 48.05 4.0 L48.2 3.9 48.25 3.85 51.75 1.6 49.95 -3.4 50.6 -4.3 M53.85 17.4 L53.15 17.8 51.95 17.25 53.4 15.75 53.85 17.4" fill="#793566" fill-rule="evenodd" stroke="none"/>
      <path d="M53.5 -4.3 L55.65 -4.3 57.35 0.35 57.3 0.4 56.0 1.65 55.3 0.0 53.5 -4.3" fill="#2c2c62" fill-rule="evenodd" stroke="none"/>
      <path d="M49.55 20.5 L50.75 19.55 51.95 18.8 54.15 18.45 53.55 18.95 52.75 19.55 53.0 19.75 53.15 19.85 54.6 19.6 56.45 19.5 60.15 20.1 60.4 20.15 61.35 20.5 61.35 21.0 60.05 20.45 59.8 20.35 58.3 20.2 57.4 20.1 56.2 20.05 55.4 19.95 49.55 20.5" fill="#5f092e" fill-rule="evenodd" stroke="none"/>
      <path d="M61.35 18.95 L61.35 20.5 60.4 20.15 61.35 18.95" fill="#990047" fill-rule="evenodd" stroke="none"/>
      <path d="M60.45 22.6 L60.5 22.8 60.75 24.0 60.85 24.45 60.95 25.0 60.3 26.4 60.2 25.75 59.3 25.1 58.3 24.65 58.15 24.55 58.55 23.0 58.55 22.7 60.45 22.6" fill="#c30f2c" fill-rule="evenodd" stroke="none"/>
      <path d="M61.35 21.7 L61.35 27.2 61.25 27.4 60.45 28.1 60.35 26.75 60.3 26.4 60.95 25.0 60.85 24.45 60.75 24.0 60.5 22.8 60.45 22.6 60.3 22.25 60.4 22.2 61.1 21.6 61.35 21.7" fill="#b41357" fill-rule="evenodd" stroke="none"/>
      <path d="M61.35 21.0 L61.35 21.7 61.1 21.6 59.2 21.3 58.15 21.4 58.1 21.25 58.2 20.7 58.3 20.2 59.8 20.35 60.05 20.45 61.35 21.0 M61.35 27.2 L61.35 28.8 61.0 29.1 Q59.75 30.15 58.25 30.8 L58.5 30.25 58.75 29.4 59.4 27.1 59.4 26.95 58.75 26.15 58.65 26.1 Q58.2 25.7 57.6 25.5 L57.75 24.9 58.0 24.95 58.1 24.65 58.15 24.55 58.3 24.65 59.3 25.1 60.2 25.75 60.3 26.4 60.35 26.75 60.45 28.1 61.25 27.4 61.35 27.2 M59.6 27.75 L59.4 27.1 59.6 27.75" fill="#e10215" fill-rule="evenodd" stroke="none"/>
      <path d="M54.15 18.45 L58.5 18.25 61.35 18.4 61.35 18.95 60.4 20.15 60.15 20.1 56.45 19.5 54.6 19.6 53.15 19.85 53.0 19.75 52.75 19.55 53.55 18.95 54.15 18.45" fill="#93004b" fill-rule="evenodd" stroke="none"/>
      <path d="M56.15 10.6 L57.05 15.35 Q55.0 16.6 53.85 17.4 L53.4 15.75 55.0 13.3 55.3 12.65 56.15 10.6 M52.35 3.6 L53.05 3.0 53.85 3.55 54.05 3.7 53.05 4.65 52.35 3.6" fill="#3f4c92" fill-rule="evenodd" stroke="none"/>
      <path d="M52.2 3.4 L52.35 3.6 53.05 4.65 54.05 3.7 54.5 3.25 54.25 3.9 53.55 5.75 52.95 7.15 52.85 7.3 52.85 7.2 52.4 4.1 52.3 3.7 52.2 3.4" fill="#dc87fc" fill-rule="evenodd" stroke="none"/>
      <path d="M52.4 11.45 L52.35 11.65 52.1 12.95 51.75 14.1 51.2 14.65 50.3 13.45 50.65 12.55 52.4 11.45" fill="#f94f11" fill-rule="evenodd" stroke="none"/>
      <path d="M56.85 8.15 L56.15 10.6 55.3 12.65 55.0 13.3 54.9 13.25 53.65 13.0 52.95 12.85 52.65 12.9 52.1 12.95 52.35 11.65 52.4 11.45 56.35 8.95 56.85 8.15" fill="#d10d3f" fill-rule="evenodd" stroke="none"/>
      <path d="M48.05 4.0 Q48.1 5.45 48.6 6.35 L48.45 6.55 48.25 6.25 46.15 4.4 45.65 3.85 46.75 1.95 47.8 2.25 48.3 2.5 48.25 2.75 48.15 3.3 48.0 3.8 48.05 4.0 M40.9 8.65 L40.6 8.4 40.55 8.35 39.75 7.1 39.5 5.9 Q39.5 5.4 39.65 4.95 L40.15 3.8 40.6 3.25 41.5 2.65 41.8 2.5 42.05 3.45 41.9 5.4 41.35 7.45 40.9 8.65" fill="#ff2814" fill-rule="evenodd" stroke="none"/>
      <path d="M49.0 -2.0 Q48.85 0.25 48.3 2.5 L47.8 2.25 46.75 1.95 47.8 0.0 49.0 -2.0 M50.65 12.55 L50.3 13.45 49.45 14.85 48.6 15.3 Q47.7 15.8 46.35 16.45 L46.4 16.15 45.3 16.65 44.75 16.85 43.6 17.2 46.35 15.4 50.65 12.55 M41.55 2.2 L41.4 2.25 40.35 2.7 38.3 4.2 38.05 2.25 37.95 1.5 40.15 -0.25 40.7 0.9 41.55 2.2 M39.3 10.55 L39.8 10.9 39.3 11.75 36.25 16.05 37.0 13.4 37.0 13.3 37.65 12.55 37.85 12.25 38.4 11.6 39.3 10.55" fill="#ff5f1c" fill-rule="evenodd" stroke="none"/>
      <path d="M50.75 17.95 L49.2 20.6 46.85 21.2 46.05 21.5 46.3 21.25 46.75 20.75 47.25 20.3 Q48.3 19.4 49.8 18.5 L50.65 18.0 50.75 17.95 M48.25 3.85 L48.2 3.9 48.05 4.0 48.0 3.8 48.15 3.3 48.25 3.85" fill="#980077" fill-rule="evenodd" stroke="none"/>
      <path d="M38.3 4.2 L40.35 2.7 41.4 2.25 41.55 2.2 41.6 2.25 41.8 2.5 41.5 2.65 40.6 3.25 40.15 3.8 39.65 4.95 Q39.5 5.4 39.5 5.9 L39.75 7.1 40.55 8.35 40.6 8.4 40.9 8.65 39.8 10.9 39.3 10.55 38.4 9.6 Q37.4 8.2 37.4 6.45 37.4 5.4 38.05 4.5 L38.3 4.2" fill="#fb921d" fill-rule="evenodd" stroke="none"/>
      <path d="M48.25 6.25 L48.45 6.55 48.9 6.95 46.3 10.8 45.7 10.3 44.75 9.5 44.2 9.05 42.85 8.15 41.35 7.45 41.9 5.4 43.1 5.75 46.95 6.3 48.25 6.25" fill="#97f628" fill-rule="evenodd" stroke="none"/>
      <path d="M39.8 10.9 L40.9 8.65 41.35 7.45 42.85 8.15 44.2 9.05 44.75 9.5 45.7 10.3 46.3 10.8 44.6 12.75 44.55 12.8 44.15 12.85 43.25 12.8 41.25 12.4 40.25 12.1 39.3 11.75 39.8 10.9" fill="#a8fa29" fill-rule="evenodd" stroke="none"/>
      <path d="M50.3 13.45 L51.2 14.65 49.85 15.95 49.55 16.2 47.7 17.75 46.2 18.9 46.2 18.65 46.1 17.25 46.35 16.45 Q47.7 15.8 48.6 15.3 L49.45 14.85 50.3 13.45" fill="#fe6a22" fill-rule="evenodd" stroke="none"/>
      <path d="M46.35 16.45 L46.1 17.25 45.55 18.7 42.4 20.25 42.35 20.3 42.15 20.4 Q41.3 20.8 40.8 21.3 L40.15 20.2 39.8 19.7 39.5 19.3 38.9 18.7 39.35 18.35 40.3 17.5 40.6 17.5 43.6 17.2 44.75 16.85 45.3 16.65 46.4 16.15 46.35 16.45" fill="#c5e31f" fill-rule="evenodd" stroke="none"/>
      <path d="M46.2 18.9 L47.7 17.75 49.55 16.2 49.85 15.95 50.0 16.4 50.2 16.9 50.55 17.75 50.65 18.0 49.8 18.5 Q48.3 19.4 47.25 20.3 L46.75 20.75 45.95 20.3 45.85 20.25 45.65 20.1 45.1 19.8 46.2 18.9" fill="#f01b15" fill-rule="evenodd" stroke="none"/>
      <path d="M51.95 17.25 L51.9 17.25 50.75 17.95 50.65 18.0 50.55 17.75 50.2 16.9 50.0 16.4 49.85 15.95 51.2 14.65 51.75 14.1 52.1 12.95 52.65 12.9 52.95 12.85 53.65 13.0 54.9 13.25 55.0 13.3 53.4 15.75 51.95 17.25" fill="#d60d1f" fill-rule="evenodd" stroke="none"/>
      <path d="M44.55 12.8 L41.25 16.15 38.95 16.35 38.75 16.35 38.4 16.35 38.0 16.4 36.1 16.55 35.8 16.55 36.25 16.05 39.3 11.75 40.25 12.1 41.25 12.4 43.25 12.8 44.15 12.85 44.55 12.8" fill="#d4f512" fill-rule="evenodd" stroke="none"/>
      <path d="M46.1 17.25 L46.2 18.65 46.2 18.9 45.1 19.8 44.45 20.3 Q44.35 20.3 44.3 20.4 43.65 20.85 43.1 21.25 L42.95 21.25 42.45 20.3 42.4 20.25 45.55 18.7 46.1 17.25" fill="#fb741a" fill-rule="evenodd" stroke="none"/>
      <path d="M43.1 21.25 Q43.65 20.85 44.3 20.4 44.35 20.3 44.45 20.3 L45.1 19.8 45.65 20.1 45.85 20.25 45.95 20.3 46.75 20.75 46.3 21.25 46.05 21.5 45.95 21.5 Q45.4 21.55 44.8 21.85 L43.75 22.4 43.65 22.5 43.5 22.6 43.3 22.0 43.1 21.25" fill="#fe410a" fill-rule="evenodd" stroke="none"/>
      <path d="M42.4 20.25 L42.45 20.3 42.95 21.25 40.7 22.7 40.35 22.9 40.2 23.0 40.05 23.05 39.85 22.8 39.95 22.75 40.0 22.5 Q40.1 21.9 40.8 21.3 41.3 20.8 42.15 20.4 L42.35 20.3 42.4 20.25 M38.5 23.3 L38.35 23.6 38.3 23.35 38.5 23.3" fill="#c0f81b" fill-rule="evenodd" stroke="none"/>
      <path d="M40.35 22.9 L40.7 22.7 40.95 23.8 42.15 26.3 42.45 26.85 42.55 26.95 42.6 27.1 41.95 28.45 40.95 29.8 40.7 29.5 39.75 29.95 39.5 29.05 40.2 28.45 40.6 27.85 40.75 27.6 40.8 27.45 41.2 25.85 40.95 25.2 40.75 24.5 40.6 24.05 40.45 23.45 40.35 22.9" fill="#fad31c" fill-rule="evenodd" stroke="none"/>
      <path d="M39.85 22.8 L40.05 23.05 40.2 23.0 40.35 22.9 40.45 23.45 40.6 24.05 40.75 24.5 40.95 25.2 41.2 25.85 40.8 27.45 40.75 27.6 40.6 27.85 40.05 26.75 40.2 26.65 40.35 26.25 40.2 25.9 40.15 25.85 39.95 25.8 39.5 25.9 39.4 26.25 38.85 26.0 38.35 23.6 38.5 23.3 39.6 22.9 39.85 22.8" fill="#f5b50d" fill-rule="evenodd" stroke="none"/>
      <path d="M43.5 22.6 L43.65 22.5 43.75 22.4 44.8 21.85 Q45.4 21.55 45.95 21.5 L44.15 22.3 43.5 22.6 M43.25 25.95 L42.8 24.8 42.7 24.6 42.35 23.75 42.45 23.55 42.6 23.4 Q42.7 24.45 43.1 25.2 L43.55 25.95 43.55 27.0 43.5 27.95 43.5 27.55 43.4 26.65 43.35 26.5 43.25 25.95 M43.2 29.65 L43.25 29.35 43.35 29.05 43.3 29.55 43.2 29.65" fill="#f85415" fill-rule="evenodd" stroke="none"/>
      <path d="M40.7 22.7 L42.95 21.25 43.1 21.25 43.3 22.0 43.5 22.6 42.55 23.1 42.6 23.4 42.45 23.55 42.35 23.75 42.7 24.6 42.8 24.8 43.25 25.95 43.1 26.05 42.7 26.5 42.45 26.85 42.15 26.3 40.95 23.8 40.7 22.7" fill="#ff671d" fill-rule="evenodd" stroke="none"/>
      <path d="M42.6 23.4 L42.55 23.1 43.5 22.6 44.15 22.3 45.3 23.3 45.5 23.55 46.15 24.05 45.7 25.05 45.5 25.1 44.45 25.2 43.75 25.2 43.1 25.2 Q42.7 24.45 42.6 23.4" fill="#f57313" fill-rule="evenodd" stroke="none"/>
      <path d="M45.95 21.5 L46.05 21.5 46.85 21.2 47.5 22.2 47.65 22.45 47.8 22.7 47.95 22.9 47.6 23.05 47.3 23.15 46.3 23.7 46.15 24.05 45.5 23.55 45.3 23.3 44.15 22.3 45.95 21.5" fill="#fa3a09" fill-rule="evenodd" stroke="none"/>
      <path d="M49.2 20.6 L49.55 20.5 55.4 19.95 56.2 20.05 55.95 20.55 55.8 20.95 55.75 21.05 55.45 21.95 54.15 21.85 51.95 22.0 51.55 22.05 51.2 22.05 48.7 22.65 47.95 22.9 47.8 22.7 47.65 22.45 47.5 22.2 46.85 21.2 49.2 20.6" fill="#f30a0e" fill-rule="evenodd" stroke="none"/>
      <path d="M47.3 23.15 L47.6 23.05 47.95 22.9 48.7 22.65 51.2 22.05 51.55 22.05 51.75 22.35 51.85 22.6 52.2 24.25 52.2 24.5 50.5 24.85 49.15 25.2 49.0 25.25 Q48.6 25.55 48.05 26.55 L47.9 26.2 47.8 25.85 47.45 24.15 47.35 23.35 47.3 23.15" fill="#fe6610" fill-rule="evenodd" stroke="none"/>
      <path d="M47.3 23.15 L47.35 23.35 47.45 24.15 47.8 25.85 47.9 26.2 48.05 26.55 47.3 27.85 47.05 28.35 46.85 29.0 46.55 29.8 46.5 29.9 46.3 30.95 46.3 31.0 45.85 31.55 45.9 31.45 46.05 31.05 46.05 30.95 46.0 31.05 45.7 31.4 45.5 31.65 44.75 29.15 Q44.55 29.25 44.3 29.45 L45.1 26.65 45.55 25.45 45.7 25.05 46.15 24.05 46.3 23.7 47.3 23.15 M46.7 25.8 Q46.7 25.15 46.35 25.25 46.0 25.35 46.0 26.05 46.0 26.55 46.3 26.55 46.7 26.55 46.7 25.8" fill="#ff9422" fill-rule="evenodd" stroke="none"/>
      <path d="M58.55 22.7 L58.55 23.0 58.15 24.55 58.1 24.65 58.0 24.95 57.75 24.9 57.55 24.85 57.0 24.7 54.55 24.35 52.2 24.5 52.2 24.25 51.85 22.6 51.75 22.35 51.55 22.05 51.95 22.0 54.15 21.85 55.45 21.95 56.45 21.95 58.55 22.15 58.55 22.7" fill="#e82c0f" fill-rule="evenodd" stroke="none"/>
      <path d="M50.5 24.85 L52.2 24.5 54.55 24.35 57.0 24.7 57.55 24.85 57.75 24.9 57.6 25.5 56.35 25.2 55.65 25.2 52.05 25.75 51.75 25.8 50.8 26.2 50.5 24.85" fill="#b31315" fill-rule="evenodd" stroke="none"/>
      <path d="M60.45 22.6 L58.55 22.7 58.55 22.15 56.45 21.95 55.45 21.95 55.75 21.05 55.8 20.95 55.95 20.55 56.2 20.05 57.4 20.1 58.3 20.2 58.2 20.7 58.1 21.25 58.15 21.4 59.2 21.3 61.1 21.6 60.4 22.2 60.3 22.25 60.45 22.6" fill="#f00b0e" fill-rule="evenodd" stroke="none"/>
      <path d="M55.3 28.85 L53.95 28.6 52.15 28.1 54.05 26.6 56.35 25.2 57.6 25.5 Q58.2 25.7 58.65 26.1 L58.75 26.15 57.1 26.55 54.8 27.3 54.7 27.5 54.75 27.75 55.3 28.85" fill="#93033e" fill-rule="evenodd" stroke="none"/>
      <path d="M59.4 26.95 L59.05 27.05 56.5 27.95 Q56.65 28.5 57.3 28.9 L55.3 28.85 54.75 27.75 54.7 27.5 54.8 27.3 57.1 26.55 58.75 26.15 59.4 26.95" fill="#74012c" fill-rule="evenodd" stroke="none"/>
      <path d="M57.75 31.0 L58.5 30.25 58.25 30.8 Q59.75 30.15 61.0 29.1 L60.85 31.0 58.9 31.1 57.75 31.0" fill="#74001a" fill-rule="evenodd" stroke="none"/>
      <path d="M52.1 29.25 L52.6 29.8 Q53.4 30.9 53.7 32.05 L52.95 33.3 52.0 34.4 51.6 34.85 Q50.4 36.05 49.05 36.9 L49.0 36.5 48.95 36.2 48.85 35.4 50.4 34.2 50.55 33.2 50.55 32.45 50.4 32.5 49.0 32.75 47.65 33.0 47.7 32.55 48.6 32.35 50.3 31.95 50.65 31.85 51.1 32.05 51.5 31.95 51.65 31.65 51.65 31.55 51.65 31.3 51.55 31.25 51.55 31.05 51.2 30.75 50.6 30.6 50.55 30.7 49.8 30.3 49.75 30.3 49.8 30.25 Q50.3 29.9 51.1 29.6 51.65 29.35 52.1 29.25" fill="#ab0b25" fill-rule="evenodd" stroke="none"/>
      <path d="M49.55 27.95 Q51.0 28.1 52.1 29.25 51.65 29.35 51.1 29.6 50.3 29.9 49.8 30.25 L49.75 30.3 49.0 29.8 48.45 29.45 47.8 28.95 Q48.3 28.6 48.8 28.35 L49.55 27.95" fill="#ca0c18" fill-rule="evenodd" stroke="none"/>
      <path d="M52.95 33.3 L53.6 32.75 54.5 32.2 Q54.8 32.55 55.45 32.75 L56.85 33.0 56.75 33.6 56.6 34.3 53.85 35.15 52.0 34.4 52.95 33.3" fill="#b50126" fill-rule="evenodd" stroke="none"/>
      <path d="M61.35 30.9 L61.35 32.4 61.25 32.4 Q59.3 33.0 57.45 33.0 L56.85 33.0 55.45 32.75 Q54.8 32.55 54.5 32.2 56.3 31.15 57.65 31.15 L57.75 31.0 58.9 31.1 60.85 31.0 61.15 30.95 61.35 30.9" fill="#79002d" fill-rule="evenodd" stroke="none"/>
      <path d="M50.55 30.7 L50.6 30.6 51.2 30.75 51.55 31.05 51.55 31.25 51.65 31.3 51.65 31.55 51.65 31.65 51.5 31.95 51.1 32.05 50.65 31.85 50.45 31.5 50.4 31.25 50.35 31.05 50.4 30.8 50.55 30.7" fill="#fff835" fill-rule="evenodd" stroke="none"/>
      <path d="M55.05 41.45 L54.2 41.3 52.3 40.95 Q48.6 39.95 48.6 38.0 L48.7 37.15 49.05 36.9 Q50.4 36.05 51.6 34.85 L52.0 34.4 53.85 35.15 54.35 35.3 54.3 35.7 54.25 36.55 53.05 36.7 Q51.9 36.9 51.2 37.3 L51.6 37.8 54.15 39.5 56.35 40.15 55.3 41.3 55.15 41.45 55.05 41.45 55.3 41.3 55.05 41.45" fill="#ff2700" fill-rule="evenodd" stroke="none"/>
      <path d="M54.35 35.3 L56.45 35.5 58.2 35.45 Q58.35 36.05 59.1 36.65 L59.2 36.75 56.5 37.0 54.4 37.25 54.5 36.55 54.25 36.55 54.3 35.7 54.35 35.3" fill="#b60821" fill-rule="evenodd" stroke="none"/>
      <path d="M61.35 37.65 L61.35 38.5 Q58.55 39.5 57.3 39.5 L56.95 39.5 56.55 39.9 56.35 40.15 54.15 39.5 51.6 37.8 51.2 37.3 Q51.9 36.9 53.05 36.7 L54.25 36.55 54.5 36.55 54.4 37.25 56.5 37.0 59.2 36.75 Q59.9 37.25 60.8 37.55 L61.35 37.65" fill="#eb1107" fill-rule="evenodd" stroke="none"/>
      <path d="M61.35 32.4 L61.35 35.0 59.05 35.4 58.95 35.4 58.8 35.4 58.65 35.4 58.6 35.4 58.2 35.45 56.45 35.5 54.35 35.3 53.85 35.15 56.6 34.3 56.75 33.6 56.85 33.0 57.45 33.0 Q59.3 33.0 61.25 32.4 L61.35 32.4" fill="#e30a1b" fill-rule="evenodd" stroke="none"/>
      <path d="M61.35 35.95 L61.35 37.65 60.8 37.55 Q59.9 37.25 59.2 36.75 L59.1 36.65 Q58.35 36.05 58.2 35.45 L58.6 35.4 58.65 35.4 58.8 35.4 58.95 35.4 59.05 35.4 Q60.15 35.4 61.35 35.95" fill="#b60022" fill-rule="evenodd" stroke="none"/>
      <path d="M48.05 26.55 Q48.6 25.55 49.0 25.25 L49.15 25.2 50.5 24.85 50.8 26.2 Q49.15 26.85 49.1 27.9 L49.55 27.95 48.8 28.35 Q48.3 28.6 47.8 28.95 L47.05 28.35 47.3 27.85 48.05 26.55 M46.55 29.8 L46.85 29.0 47.3 29.3 Q46.95 29.5 46.55 29.8" fill="#de120b" fill-rule="evenodd" stroke="none"/>
      <path d="M46.7 25.8 Q46.7 26.55 46.3 26.55 46.0 26.55 46.0 26.05 46.0 25.35 46.35 25.25 46.7 25.15 46.7 25.8" fill="#ffdc24" fill-rule="evenodd" stroke="none"/>
      <path d="M46.85 29.0 L47.05 28.35 47.8 28.95 48.45 29.45 49.0 29.8 49.75 30.3 49.8 30.3 50.55 30.7 50.4 30.8 50.35 31.05 50.4 31.25 50.0 31.0 49.6 30.7 49.35 30.55 48.6 30.1 48.3 29.9 47.3 29.3 46.85 29.0" fill="#fd602b" fill-rule="evenodd" stroke="none"/>
      <path d="M45.85 31.55 L46.3 31.0 46.3 30.95 46.5 29.9 46.55 29.8 Q46.95 29.5 47.3 29.3 L48.3 29.9 47.8 32.2 45.05 32.9 45.1 32.75 45.6 32.05 45.85 31.55" fill="#fa181a" fill-rule="evenodd" stroke="none"/>
      <path d="M48.3 29.9 L48.6 30.1 49.35 30.55 49.6 30.7 50.0 31.0 50.4 31.25 50.45 31.5 50.2 31.55 48.6 32.0 47.8 32.2 48.3 29.9" fill="#e7130f" fill-rule="evenodd" stroke="none"/>
      <path d="M43.5 27.95 L43.55 27.0 43.55 25.95 43.1 25.2 43.75 25.2 44.45 25.2 45.5 25.1 45.7 25.05 45.55 25.45 45.1 26.65 44.3 29.45 42.55 30.55 42.25 30.65 42.0 30.75 41.6 30.95 42.2 30.45 43.2 29.65 43.3 29.55 43.35 29.05 43.35 28.95 43.4 28.6 43.5 27.95" fill="#fd591c" fill-rule="evenodd" stroke="none"/>
      <path d="M43.25 25.95 L43.35 26.5 43.4 26.65 43.5 27.55 43.5 27.95 43.4 28.6 43.35 28.95 43.35 29.05 43.25 29.35 43.2 29.65 42.2 30.45 41.6 30.95 41.6 31.0 40.95 29.8 41.95 28.45 42.6 27.1 42.55 26.95 42.45 26.85 42.7 26.5 43.1 26.05 43.25 25.95" fill="#ff4717" fill-rule="evenodd" stroke="none"/>
      <path d="M33.7 39.75 L33.6 39.75 32.3 39.65 32.5 39.4 33.2 38.7 33.3 38.55 34.6 38.05 35.1 37.9 35.2 37.9 35.7 37.8 35.9 35.65 36.65 36.7 37.45 37.45 35.6 38.3 35.35 38.4 35.05 38.45 34.15 39.35 33.7 39.75 M39.75 29.95 L40.7 29.5 40.95 29.8 41.6 31.0 41.1 31.25 39.9 31.95 39.0 32.3 40.05 31.45 39.9 30.75 39.75 29.95" fill="#f87a25" fill-rule="evenodd" stroke="none"/>
      <path d="M44.3 29.45 Q44.55 29.25 44.75 29.15 L45.5 31.65 45.1 32.0 43.95 32.75 43.9 32.8 Q43.45 33.05 43.1 33.25 L42.8 32.3 42.3 30.7 42.25 30.65 42.55 30.55 44.3 29.45 M44.45 31.7 L44.55 31.4 44.55 31.3 44.35 30.95 43.9 30.9 Q43.6 30.95 43.55 31.25 L43.45 31.55 43.55 32.05 43.9 32.2 44.3 31.9 44.45 31.7" fill="#ff8916" fill-rule="evenodd" stroke="none"/>
      <path d="M41.6 30.95 L42.0 30.75 42.25 30.65 42.3 30.7 42.8 32.3 43.1 33.25 42.8 33.4 42.15 33.6 42.05 33.85 41.95 33.6 41.6 32.95 41.25 32.55 39.65 33.15 39.05 33.4 38.55 33.05 39.6 32.2 39.85 32.0 39.9 31.95 41.1 31.25 41.6 31.0 41.6 30.95" fill="#f7970d" fill-rule="evenodd" stroke="none"/>
      <path d="M44.45 31.7 L44.3 31.9 43.9 32.2 43.55 32.05 43.45 31.55 43.55 31.25 Q43.6 30.95 43.9 30.9 L44.35 30.95 44.55 31.3 44.55 31.4 44.45 31.7" fill="#fff420" fill-rule="evenodd" stroke="none"/>
      <path d="M45.5 31.65 L45.7 31.4 46.0 31.05 46.05 30.95 46.05 31.05 45.9 31.45 45.85 31.55 45.6 32.05 45.1 32.75 45.05 32.9 44.95 33.0 44.75 33.3 44.55 33.5 43.55 34.6 43.35 34.75 43.1 34.95 Q42.4 34.95 42.2 34.6 L42.05 34.25 42.0 34.05 42.05 33.85 42.15 33.6 42.8 33.4 43.1 33.25 Q43.45 33.05 43.9 32.8 L43.95 32.75 45.1 32.0 45.5 31.65" fill="#ebf822" fill-rule="evenodd" stroke="none"/>
      <path d="M50.65 31.85 L50.3 31.95 48.6 32.35 47.7 32.55 47.4 32.65 44.95 33.35 44.85 33.4 44.55 33.5 44.75 33.3 44.95 33.0 45.05 32.9 47.8 32.2 48.6 32.0 50.2 31.55 50.45 31.5 50.65 31.85" fill="#f2421d" fill-rule="evenodd" stroke="none"/>
      <path d="M47.7 32.55 L47.65 33.0 49.0 32.75 50.4 32.5 50.55 32.45 50.55 33.2 50.4 34.2 48.85 35.4 47.05 36.5 46.95 36.25 46.3 35.25 44.95 33.45 44.85 33.4 44.95 33.35 47.4 32.65 47.7 32.55" fill="#eb1412" fill-rule="evenodd" stroke="none"/>
      <path d="M44.55 33.5 L44.85 33.4 44.95 33.45 46.3 35.25 46.95 36.25 46.5 36.5 Q46.3 36.5 46.05 36.65 L44.75 37.0 42.9 37.3 42.7 36.75 42.35 35.95 41.8 34.75 42.2 34.6 Q42.4 34.95 43.1 34.95 L43.35 34.75 43.55 34.6 44.55 33.5" fill="#fa2811" fill-rule="evenodd" stroke="none"/>
      <path d="M39.65 33.15 L41.25 32.55 41.6 32.95 41.95 33.6 42.05 33.85 42.0 34.05 42.05 34.25 42.2 34.6 41.8 34.75 41.1 35.0 41.05 35.0 39.45 35.35 39.65 33.15" fill="#ffc217" fill-rule="evenodd" stroke="none"/>
      <path d="M40.95 38.8 L39.4 38.45 38.1 37.85 38.65 37.4 39.85 38.2 40.4 38.5 40.95 38.8 M39.45 35.35 L41.05 35.0 41.1 35.0 41.8 34.75 42.35 35.95 42.7 36.75 42.9 37.3 42.0 37.35 41.65 37.35 39.3 37.15 39.2 36.35 39.05 35.35 39.4 35.35 39.45 35.35" fill="#f1530a" fill-rule="evenodd" stroke="none"/>
      <path d="M48.7 37.15 L47.75 37.7 46.7 38.15 46.5 38.25 42.8 38.85 43.1 38.1 42.9 37.3 44.75 37.0 46.05 36.65 Q46.3 36.5 46.5 36.5 L46.95 36.25 47.05 36.5 48.85 35.4 48.95 36.2 49.0 36.5 49.05 36.9 48.7 37.15" fill="#e21013" fill-rule="evenodd" stroke="none"/>
      <path d="M42.8 38.85 L42.0 38.85 40.95 38.8 40.4 38.5 39.85 38.2 38.65 37.4 38.2 37.0 38.2 36.95 38.3 36.95 38.55 36.9 39.1 37.1 39.3 37.15 41.65 37.35 42.0 37.35 42.9 37.3 43.1 38.1 42.8 38.85" fill="#ed241a" fill-rule="evenodd" stroke="none"/>
      <path d="M60.4 48.1 Q57.7 49.05 55.8 50.3 55.15 50.7 54.6 51.25 L54.05 51.4 53.8 51.45 Q52.6 51.8 51.5 52.5 L51.2 51.8 50.55 52.05 46.3 53.55 45.4 47.85 45.45 47.75 45.65 47.15 46.4 45.45 46.5 45.25 46.75 45.35 46.85 47.55 47.0 49.8 48.35 48.7 48.7 48.45 49.55 47.75 49.15 48.7 49.0 49.1 48.25 51.05 50.1 51.15 51.1 50.9 51.95 50.65 52.45 50.55 55.0 49.75 55.6 49.45 Q56.8 48.85 58.9 48.4 L60.4 48.1" fill="#fff600" fill-rule="evenodd" stroke="none"/>
      <path d="M48.7 48.45 L48.35 48.7 47.0 49.8 46.85 47.55 48.7 48.45 M49.15 48.7 L50.5 49.45 50.25 49.7 49.85 50.2 49.9 50.2 51.1 50.15 51.5 50.1 51.65 50.05 52.45 50.55 51.95 50.65 51.1 50.9 50.1 51.15 48.25 51.05 49.0 49.1 49.15 48.7" fill="#ffbc00" fill-rule="evenodd" stroke="none"/>
      <path d="M46.75 45.35 L52.1 45.75 54.7 45.65 55.15 47.65 55.15 47.75 55.6 49.45 55.0 49.75 52.45 50.55 51.65 50.05 52.2 49.9 52.4 49.5 Q52.4 49.15 51.95 49.1 L51.9 49.1 51.55 49.1 51.15 49.1 50.95 49.15 Q50.75 49.15 50.5 49.45 L49.15 48.7 49.55 47.75 48.7 48.45 46.85 47.55 46.75 45.35 M52.85 47.45 L52.65 47.4 52.4 47.4 52.4 47.45 52.1 47.85 51.9 48.15 52.1 48.2 52.45 48.15 53.0 47.95 53.0 47.85 52.95 47.6 52.85 47.45" fill="#ff9806" fill-rule="evenodd" stroke="none"/>
      <path d="M61.35 38.5 L61.35 40.65 58.75 40.45 56.35 40.15 56.55 39.9 56.95 39.5 57.3 39.5 Q58.55 39.5 61.35 38.5" fill="#ef1200" fill-rule="evenodd" stroke="none"/>
      <path d="M61.35 40.65 L61.35 42.15 58.95 41.95 55.15 41.45 55.3 41.3 56.35 40.15 58.75 40.45 61.35 40.65" fill="#fa2803" fill-rule="evenodd" stroke="none"/>
      <path d="M61.35 42.15 L61.35 43.9 57.85 43.7 56.6 43.45 Q54.7 42.95 54.35 41.9 L54.7 41.65 Q54.9 41.5 55.05 41.45 L55.15 41.45 58.95 41.95 61.35 42.15" fill="#c50119" fill-rule="evenodd" stroke="none"/>
      <path d="M55.7 45.45 Q53.7 44.9 53.7 43.25 53.7 42.5 54.35 41.9 54.7 42.95 56.6 43.45 L57.85 43.7 55.7 45.45" fill="#f91304" fill-rule="evenodd" stroke="none"/>
      <path d="M52.85 47.45 L52.95 47.6 53.0 47.85 53.0 47.95 52.45 48.15 52.1 48.2 51.9 48.15 52.1 47.85 52.4 47.45 52.4 47.4 52.65 47.4 52.85 47.45" fill="#ffbf17" fill-rule="evenodd" stroke="none"/>
      <path d="M51.65 50.05 L51.5 50.1 51.1 50.15 49.9 50.2 49.85 50.2 50.25 49.7 50.5 49.45 Q50.75 49.15 50.95 49.15 L51.15 49.1 51.55 49.1 51.9 49.1 51.95 49.1 Q52.4 49.15 52.4 49.5 L52.2 49.9 51.65 50.05" fill="#f5e605" fill-rule="evenodd" stroke="none"/>
      <path d="M60.6 48.05 L60.4 48.1 58.9 48.4 Q56.8 48.85 55.6 49.45 L55.15 47.75 55.15 47.65 54.7 45.65 56.0 45.55 56.45 45.5 58.7 45.2 59.2 45.75 59.55 46.2 60.3 47.2 60.6 48.05" fill="#ff9d0d" fill-rule="evenodd" stroke="none"/>
      <path d="M61.35 44.5 L61.35 47.85 61.15 47.9 60.6 48.05 60.3 47.2 59.55 46.2 59.2 45.75 58.7 45.2 61.05 44.6 61.2 44.55 61.35 44.5" fill="#f7570b" fill-rule="evenodd" stroke="none"/>
      <path d="M61.35 43.9 L61.35 44.5 61.2 44.55 61.05 44.6 58.7 45.2 56.45 45.5 56.0 45.55 55.7 45.45 57.85 43.7 61.35 43.9" fill="#ef2b00" fill-rule="evenodd" stroke="none"/>
      <path d="M61.35 28.8 L61.35 30.9 61.15 30.95 60.85 31.0 61.0 29.1 61.35 28.8" fill="#b80025" fill-rule="evenodd" stroke="none"/>
      <path d="M61.35 35.0 L61.35 35.95 Q60.15 35.4 59.05 35.4 L61.35 35.0" fill="#c40019" fill-rule="evenodd" stroke="none"/>
      <path d="M36.45 10.55 L36.3 9.7 Q35.9 7.3 35.9 5.7 L35.95 3.4 36.8 2.55 37.65 1.7 37.95 1.5 38.05 2.25 38.3 4.2 38.05 4.5 Q37.4 5.4 37.4 6.45 37.4 8.2 38.4 9.6 L39.3 10.55 38.4 11.6 37.85 12.25 37.65 12.55 37.0 13.3 36.85 12.55 36.5 11.1 36.45 10.55" fill="#ff4226" fill-rule="evenodd" stroke="none"/>
      <path d="M31.55 12.75 L31.6 12.55 32.1 9.55 34.8 10.15 36.45 10.55 36.5 11.1 36.85 12.55 37.0 13.3 37.0 13.4 36.25 16.05 35.8 16.55 33.95 18.65 32.2 18.65 30.85 18.65 31.1 16.6 31.2 14.85 31.2 14.1 31.2 14.05 31.55 12.75" fill="#fcf217" fill-rule="evenodd" stroke="none"/>
      <path d="M25.05 3.2 L26.3 1.6 26.5 1.4 26.8 1.05 28.05 -0.15 28.05 0.7 28.05 1.45 Q28.05 3.65 28.35 5.65 L27.9 5.75 26.55 5.95 26.25 6.0 25.95 5.45 25.0 4.0 25.05 3.2" fill="#c9f019" fill-rule="evenodd" stroke="none"/>
      <path d="M28.35 5.65 Q28.6 7.5 29.15 9.1 L29.25 9.35 29.25 9.4 29.25 9.5 29.3 9.7 29.5 13.5 29.45 15.75 29.4 16.45 29.25 17.25 29.0 18.65 28.65 19.8 28.7 21.05 30.75 19.2 29.9 21.8 Q29.2 23.45 28.1 24.45 L27.25 23.9 26.25 23.2 26.1 23.1 25.05 22.35 24.5 21.9 24.35 21.8 23.0 20.7 23.05 20.7 24.6 20.95 26.9 21.4 27.4 20.1 27.8 18.65 28.3 16.6 28.6 14.45 28.65 13.5 Q28.45 12.45 27.65 10.8 26.7 9.1 25.95 8.3 L26.45 7.75 26.7 7.25 26.5 6.65 26.25 6.0 26.55 5.95 27.9 5.75 28.35 5.65" fill="#fafe90" fill-rule="evenodd" stroke="none"/>
      <path d="M29.25 9.4 L30.55 12.55 31.15 13.95 31.2 14.05 31.2 14.1 31.15 13.95 Q30.2 12.25 29.35 9.8 L29.25 9.5 29.25 9.4 M25.95 5.45 L26.25 6.0 26.5 6.65 26.7 7.25 26.45 7.75 25.95 8.3 Q25.45 8.7 24.75 8.7 L24.75 8.75 Q25.25 10.6 24.45 12.7 L22.8 7.85 25.95 5.45" fill="#f58f0f" fill-rule="evenodd" stroke="none"/>
      <path d="M16.4 0.1 L17.85 0.15 20.95 0.4 23.2 0.45 23.35 0.45 24.9 0.4 24.55 3.65 22.8 3.25 21.5 2.9 19.2 2.2 Q17.05 1.4 16.4 0.1" fill="#95df34" fill-rule="evenodd" stroke="none"/>
      <path d="M24.45 12.7 Q25.25 10.6 24.75 8.75 L24.75 8.7 Q25.45 8.7 25.95 8.3 26.7 9.1 27.65 10.8 28.45 12.45 28.65 13.5 L28.6 14.45 28.3 16.6 27.85 16.6 25.8 16.25 25.1 16.0 24.9 15.9 Q23.55 15.3 22.8 14.4 L23.85 13.95 24.45 12.7" fill="#dff413" fill-rule="evenodd" stroke="none"/>
      <path d="M29.25 9.5 L29.35 9.8 Q30.2 12.25 31.15 13.95 L31.2 14.1 31.2 14.85 31.1 16.6 30.35 16.3 30.0 16.1 29.45 15.75 29.5 13.5 29.3 9.7 29.25 9.5" fill="#ebf61c" fill-rule="evenodd" stroke="none"/>
      <path d="M25.1 16.0 L25.8 16.25 27.85 16.6 28.3 16.6 27.8 18.65 27.4 20.1 26.9 21.4 24.6 20.95 24.65 20.75 25.1 16.0" fill="#eefd04" fill-rule="evenodd" stroke="none"/>
      <path d="M29.45 15.75 L30.0 16.1 30.35 16.3 31.1 16.6 30.85 18.65 30.75 19.2 28.7 21.05 28.65 19.8 29.0 18.65 29.25 17.25 29.4 16.45 29.45 15.75" fill="#e5f611" fill-rule="evenodd" stroke="none"/>
      <path d="M25.1 16.0 L24.65 20.75 24.6 20.95 23.05 20.7 23.0 20.7 18.9 17.4 18.75 17.25 Q17.75 16.6 17.55 16.15 17.25 15.5 18.35 15.15 L20.65 14.3 22.8 14.4 Q23.55 15.3 24.9 15.9 L25.1 16.0" fill="#f5f807" fill-rule="evenodd" stroke="none"/>
      <path d="M24.35 21.8 L24.95 22.3 25.05 22.35 26.1 23.1 26.25 23.2 27.25 23.9 26.5 24.45 26.35 24.55 Q24.95 25.35 23.0 25.35 21.45 25.35 20.25 24.35 18.65 22.9 18.5 19.85 L18.45 19.2 18.5 18.6 Q18.55 17.9 18.75 17.25 L18.9 17.4 23.0 20.7 24.35 21.8 M9.55 24.15 L9.3 24.15 8.75 24.0 Q8.45 23.8 8.45 23.4 8.45 23.15 8.6 23.05 L8.45 22.75 8.55 22.75 8.75 22.8 9.55 22.8 9.6 22.9 9.85 23.15 10.4 23.8 10.0 23.95 9.55 24.15" fill="#fffff4" fill-rule="evenodd" stroke="none"/>
      <path d="M39.5 29.05 L39.75 29.95 39.9 30.75 40.05 31.45 39.0 32.3 36.65 32.7 35.95 32.65 35.25 34.05 35.3 34.25 34.75 33.15 34.7 33.2 34.55 32.3 33.85 32.4 33.3 32.55 33.15 31.25 31.95 31.65 31.85 31.35 Q31.5 29.7 30.65 28.8 L28.05 29.6 26.25 30.25 26.15 30.3 25.2 28.3 19.75 29.4 17.05 25.65 15.45 26.35 Q14.45 24.6 13.15 23.6 L13.0 23.45 12.1 22.8 11.05 22.25 10.5 22.0 10.2 20.15 10.0 19.1 12.35 18.85 15.65 18.65 17.15 18.6 18.5 18.6 18.45 19.2 18.5 19.85 Q18.65 22.9 20.25 24.35 21.45 25.35 23.0 25.35 24.95 25.35 26.35 24.55 L26.5 24.45 27.25 23.9 28.1 24.45 Q29.2 23.45 29.9 21.8 L30.75 19.2 30.85 18.65 32.2 18.65 33.95 18.65 32.65 19.95 32.3 21.95 32.15 22.95 Q32.15 24.4 32.5 25.45 L32.95 25.3 Q33.1 26.05 33.5 26.55 L34.5 27.2 Q36.05 27.2 36.85 25.4 L37.3 24.05 37.35 23.75 38.3 23.35 38.35 23.6 38.85 26.0 39.5 29.05 M11.4 27.75 L13.5 27.25 Q12.25 27.75 11.45 28.15 L11.4 27.95 11.4 27.75" fill="#fff68d" fill-rule="evenodd" stroke="none"/>
      <path d="M41.25 16.15 L39.75 17.4 40.3 17.5 39.35 18.35 38.9 18.7 37.15 20.35 35.9 21.7 33.3 25.0 33.1 25.2 32.95 25.3 32.5 25.45 Q32.15 24.4 32.15 22.95 L32.3 21.95 32.65 19.95 33.95 18.65 35.8 16.55 36.1 16.55 38.0 16.4 38.4 16.35 38.75 16.35 38.95 16.35 41.25 16.15" fill="#dcf810" fill-rule="evenodd" stroke="none"/>
      <path d="M40.8 21.3 Q40.1 21.9 40.0 22.5 L39.95 22.75 39.85 22.8 39.6 22.9 38.5 23.3 38.3 23.35 37.35 23.75 34.7 24.65 33.4 25.1 33.1 25.2 33.3 25.0 35.9 21.7 37.15 20.35 38.9 18.7 39.5 19.3 39.8 19.7 40.15 20.2 40.8 21.3 M37.75 20.95 L37.55 21.0 37.3 21.25 37.3 21.3 37.3 21.45 37.25 21.8 Q37.25 22.3 37.4 22.5 L37.9 22.0 38.0 21.85 38.05 21.55 Q38.05 21.0 37.85 20.95 L37.75 20.95" fill="#ccf51d" fill-rule="evenodd" stroke="none"/>
      <path d="M37.75 20.95 L37.85 20.95 Q38.05 21.0 38.05 21.55 L38.0 21.85 37.9 22.0 37.4 22.5 Q37.25 22.3 37.25 21.8 L37.3 21.45 37.3 21.3 37.3 21.25 37.55 21.0 37.75 20.95" fill="#e4fe99" fill-rule="evenodd" stroke="none"/>
      <path d="M37.35 23.75 L37.3 24.05 36.85 25.4 Q36.05 27.2 34.5 27.2 L33.5 26.55 Q33.1 26.05 32.95 25.3 L33.1 25.2 33.4 25.1 34.7 24.65 37.35 23.75" fill="#fff7fd" fill-rule="evenodd" stroke="none"/>
      <path d="M14.25 2.15 L20.6 12.0 14.45 8.05 11.8 6.1 11.75 5.85 11.65 5.4 11.65 4.6 11.65 4.5 Q11.8 3.15 12.2 2.0 L12.25 1.85 14.25 2.15" fill="#fe5417" fill-rule="evenodd" stroke="none"/>
      <path d="M11.8 6.1 L9.8 4.5 10.05 3.8 10.15 3.85 11.65 4.5 11.65 4.6 11.65 5.4 11.75 5.85 11.8 6.1 M8.15 8.25 L10.55 10.25 9.45 12.55 7.15 10.05 8.15 8.25" fill="#f27612" fill-rule="evenodd" stroke="none"/>
      <path d="M10.55 10.25 L11.15 10.8 12.2 12.55 12.95 13.95 13.6 15.1 12.95 15.0 12.0 14.85 8.4 13.95 9.45 12.55 10.55 10.25" fill="#ff5b10" fill-rule="evenodd" stroke="none"/>
      <path d="M1.8 4.5 L4.25 5.0 6.3 6.7 5.75 8.15 4.95 9.75 4.1 8.95 3.95 8.75 Q2.7 7.45 1.55 6.95 L1.6 6.8 1.8 4.5" fill="#ff3211" fill-rule="evenodd" stroke="none"/>
      <path d="M-2.05 4.8 L-2.05 3.4 0.15 4.1 1.8 4.5 1.6 6.8 1.55 6.95 Q1.2 9.1 0.5 10.65 L0.5 10.7 0.2 11.25 -0.7 11.4 -0.7 11.3 -0.05 9.85 0.4 7.85 Q0.4 6.65 -0.4 5.75 -1.0 5.15 -2.05 4.8" fill="#cd1829" fill-rule="evenodd" stroke="none"/>
      <path d="M1.55 6.95 Q2.7 7.45 3.95 8.75 L4.1 8.95 4.95 9.75 4.8 9.85 4.55 10.25 3.05 11.9 3.1 12.55 Q3.2 13.55 3.45 14.4 L2.35 15.95 1.25 17.95 Q0.6 16.75 0.2 15.25 L0.4 13.65 0.5 11.7 0.5 11.2 0.5 10.7 0.5 10.65 Q1.2 9.1 1.55 6.95" fill="#fe3b1f" fill-rule="evenodd" stroke="none"/>
      <path d="M0.5 10.7 L0.5 11.2 0.5 11.7 0.4 13.65 0.2 15.25 Q0.6 16.75 1.25 17.95 L0.9 18.65 0.6 18.45 0.6 18.4 0.7 17.9 0.4 17.0 0.05 16.9 -0.15 16.95 -0.25 17.05 -0.4 17.15 -0.45 17.4 -1.6 15.75 -1.65 15.15 -1.65 15.1 -1.6 14.45 -1.5 13.95 -0.6 12.55 -0.25 12.0 0.2 11.25 0.5 10.7" fill="#da131a" fill-rule="evenodd" stroke="none"/>
      <path d="M9.45 12.55 L8.4 13.95 8.15 14.2 8.35 14.7 6.75 14.85 6.45 13.3 6.7 12.55 6.75 12.5 6.5 12.15 6.15 11.65 7.15 10.05 9.45 12.55" fill="#ff9223" fill-rule="evenodd" stroke="none"/>
      <path d="M7.05 19.3 Q5.95 18.65 5.4 17.55 L5.4 17.5 Q4.75 16.25 4.75 14.45 L4.85 13.1 5.4 12.55 6.15 11.65 6.5 12.15 6.75 12.5 6.7 12.55 6.45 13.3 Q6.3 14.05 6.3 15.2 L6.5 17.0 6.6 17.65 6.2 17.25 6.5 18.05 6.55 18.2 7.05 19.3" fill="#ffaa1d" fill-rule="evenodd" stroke="none"/>
      <path d="M8.4 13.95 L12.0 14.85 12.95 15.0 13.6 15.1 14.5 16.6 13.05 17.3 13.0 17.3 11.25 18.1 10.5 17.55 10.15 17.25 Q8.9 16.05 8.35 14.7 L8.15 14.2 8.4 13.95" fill="#f77712" fill-rule="evenodd" stroke="none"/>
      <path d="M6.45 13.3 L6.75 14.85 7.15 15.95 Q7.7 17.55 8.2 18.1 L7.7 18.55 6.75 17.75 6.6 17.65 6.5 17.0 6.3 15.2 Q6.3 14.05 6.45 13.3" fill="#f68914" fill-rule="evenodd" stroke="none"/>
      <path d="M1.25 17.95 L2.35 15.95 3.45 14.4 Q3.95 16.35 5.4 17.5 L5.4 17.55 Q5.95 18.65 7.05 19.3 L7.85 19.8 5.2 20.1 3.35 19.85 2.15 19.45 1.8 18.9 1.25 17.95" fill="#f94012" fill-rule="evenodd" stroke="none"/>
      <path d="M7.85 19.8 L7.05 19.3 6.55 18.2 6.5 18.05 6.2 17.25 6.6 17.65 6.75 17.75 7.7 18.55 8.2 18.1 9.1 17.7 10.15 17.25 10.5 17.55 9.8 17.8 8.9 18.3 8.75 18.35 8.7 18.75 8.55 19.2 9.1 19.35 9.65 19.5 9.7 19.5 10.0 20.1 10.1 20.3 10.2 20.55 9.15 20.3 7.85 19.8" fill="#fff712" fill-rule="evenodd" stroke="none"/>
      <path d="M10.0 20.1 L9.7 19.5 9.65 19.5 9.1 19.35 8.55 19.2 8.7 18.75 8.75 18.35 8.9 18.3 9.8 17.8 10.5 17.55 11.25 18.1 11.8 18.5 12.35 18.85 10.0 19.1 10.2 20.15 10.0 20.1" fill="#f9ba1f" fill-rule="evenodd" stroke="none"/>
      <path d="M6.75 14.85 L8.35 14.7 Q8.9 16.05 10.15 17.25 L9.1 17.7 8.2 18.1 Q7.7 17.55 7.15 15.95 L6.75 14.85" fill="#fdad16" fill-rule="evenodd" stroke="none"/>
      <path d="M-0.45 17.4 L-0.4 17.15 -0.25 17.05 -0.15 16.95 0.05 16.9 0.4 17.0 0.7 17.9 0.6 18.4 0.6 18.45 Q0.4 18.85 0.05 18.85 L0.0 18.85 -0.4 18.4 -0.5 17.75 -0.45 17.4" fill="#ffe430" fill-rule="evenodd" stroke="none"/>
      <path d="M0.2 11.25 L-0.25 12.0 -0.6 12.55 -1.5 13.95 -1.35 13.2 -1.25 13.05 -1.25 12.85 -1.2 12.8 -1.1 12.5 -0.7 11.4 0.2 11.25 M-1.6 15.75 L-0.45 17.4 -0.5 17.75 -0.4 18.4 -0.9 17.7 -1.05 17.45 -1.6 15.75 M0.6 18.45 L0.9 18.65 1.25 17.95 1.8 18.9 2.15 19.45 3.35 19.85 5.2 20.1 7.85 19.8 9.15 20.3 10.2 20.55 10.1 20.3 10.0 20.1 10.2 20.15 10.5 22.0 10.45 21.95 10.05 21.95 8.75 21.85 8.05 21.75 Q4.8 21.4 2.9 20.65 1.6 20.2 0.6 19.4 L0.0 18.85 0.05 18.85 Q0.4 18.85 0.6 18.45 M10.0 28.3 L11.4 27.75 11.4 27.95 11.0 28.35 10.95 28.4 7.05 29.15 6.6 28.95 6.3 28.8 10.0 28.3" fill="#fe3c18" fill-rule="evenodd" stroke="none"/>
      <path d="M0.7 22.9 L0.5 21.1 0.5 20.75 0.6 19.4 Q1.6 20.2 2.9 20.65 4.8 21.4 8.05 21.75 L8.25 22.3 8.45 22.75 6.8 22.8 3.9 22.95 3.45 23.0 2.45 23.0 0.7 22.9" fill="#f74f20" fill-rule="evenodd" stroke="none"/>
      <path d="M-2.05 22.0 L-2.05 18.7 -0.9 17.7 -0.4 18.4 0.0 18.85 0.6 19.4 0.5 20.75 0.5 21.1 0.7 22.9 0.5 22.9 Q-0.8 22.75 -1.6 22.25 L-1.95 22.05 -2.05 22.0" fill="#ef1a0a" fill-rule="evenodd" stroke="none"/>
      <path d="M0.7 22.9 L2.45 23.0 3.45 23.0 3.9 22.95 6.8 22.8 6.7 23.45 6.55 23.45 5.2 23.35 3.65 23.3 1.65 23.25 0.4 23.3 0.5 22.9 0.7 22.9" fill="#ff9b22" fill-rule="evenodd" stroke="none"/>
      <path d="M-2.05 23.65 L-2.05 22.9 -2.0 22.6 -1.95 22.05 -1.6 22.25 Q-0.8 22.75 0.5 22.9 L0.4 23.3 1.65 23.25 3.65 23.3 4.4 25.0 3.1 25.35 2.6 25.35 2.25 25.35 2.0 25.35 1.85 25.45 1.85 25.5 1.05 25.1 0.7 24.9 -0.05 24.5 -0.8 24.2 -2.05 23.65" fill="#ff6922" fill-rule="evenodd" stroke="none"/>
      <path d="M3.65 23.3 L5.2 23.35 6.55 23.45 6.7 23.45 7.5 23.45 7.35 23.9 7.1 23.95 6.55 24.25 6.35 24.3 5.35 24.7 4.95 24.8 4.4 25.0 3.65 23.3" fill="#ff820a" fill-rule="evenodd" stroke="none"/>
      <path d="M6.8 22.8 L8.45 22.75 8.6 23.05 Q8.45 23.15 8.45 23.4 8.45 23.8 8.75 24.0 L9.3 24.15 9.55 24.15 9.6 24.7 9.55 25.1 8.15 24.5 8.05 24.45 6.55 24.75 6.55 24.65 6.35 24.3 6.55 24.25 7.1 23.95 7.35 23.9 7.5 23.45 6.7 23.45 6.8 22.8" fill="#ffd526" fill-rule="evenodd" stroke="none"/>
      <path d="M6.35 24.3 L6.55 24.65 6.55 24.75 5.45 25.0 4.55 25.25 3.45 25.65 3.1 25.35 4.4 25.0 4.95 24.8 5.35 24.7 6.35 24.3" fill="#fb9e13" fill-rule="evenodd" stroke="none"/>
      <path d="M9.55 25.1 L9.6 24.7 9.55 24.15 10.0 23.95 10.4 23.8 9.85 23.15 9.6 22.9 9.55 22.8 8.75 21.85 10.05 21.95 10.45 21.95 10.5 22.0 11.05 22.25 12.1 22.8 13.0 23.45 13.15 23.6 11.95 23.35 11.75 24.35 11.25 25.9 11.1 25.85 9.55 25.1" fill="#ffcb19" fill-rule="evenodd" stroke="none"/>
      <path d="M8.45 22.75 L8.25 22.3 8.05 21.75 8.75 21.85 9.55 22.8 8.75 22.8 8.55 22.75 8.45 22.75" fill="#fac021" fill-rule="evenodd" stroke="none"/>
      <path d="M6.55 24.75 L8.05 24.45 8.15 24.5 9.55 25.1 11.1 25.85 11.25 25.9 12.25 26.3 13.7 27.1 13.75 27.15 13.65 27.2 13.95 27.15 13.5 27.25 11.4 27.75 10.0 28.3 Q9.25 27.6 9.9 27.35 L9.8 27.15 9.25 26.55 7.15 26.95 6.5 27.15 6.55 24.75" fill="#f86c15" fill-rule="evenodd" stroke="none"/>
      <path d="M18.75 17.25 Q18.55 17.9 18.5 18.6 L17.15 18.6 15.65 18.65 15.35 18.1 17.2 15.95 17.2 15.9 17.55 16.15 Q17.75 16.6 18.75 17.25" fill="#ffac14" fill-rule="evenodd" stroke="none"/>
      <path d="M11.15 10.8 L13.15 12.45 17.2 15.9 17.2 15.95 15.35 18.1 14.5 16.6 13.6 15.1 12.95 13.95 12.2 12.55 11.15 10.8" fill="#ffe00b" fill-rule="evenodd" stroke="none"/>
      <path d="M12.35 18.85 L11.8 18.5 11.25 18.1 13.0 17.3 13.05 17.3 14.5 16.6 15.35 18.1 15.65 18.65 12.35 18.85" fill="#ff8c15" fill-rule="evenodd" stroke="none"/>
      <path d="M13.75 27.15 L13.7 27.1 12.25 26.3 11.25 25.9 11.75 24.35 11.95 23.35 13.15 23.6 Q14.45 24.6 15.45 26.35 L15.8 27.0 15.6 27.05 15.15 27.1 14.85 27.1 13.75 27.15" fill="#eec80d" fill-rule="evenodd" stroke="none"/>
      <path d="M13.5 27.25 L13.95 27.15 13.65 27.2 13.75 27.15 14.85 27.1 15.15 27.1 15.6 27.05 15.8 27.0 15.45 26.35 17.05 25.65 19.75 29.4 25.2 28.3 26.15 30.3 25.85 30.4 Q24.1 31.1 23.0 31.65 L22.85 31.75 22.6 31.85 22.5 31.95 21.9 30.1 20.65 30.55 Q19.75 30.95 19.15 31.25 L19.05 31.1 18.55 30.35 17.75 28.3 17.15 26.9 15.4 27.3 14.8 27.4 13.7 27.65 11.5 28.3 11.45 28.15 Q12.25 27.75 13.5 27.25 M31.95 31.65 L33.15 31.25 33.3 32.55 33.85 32.4 34.55 32.3 34.7 33.2 Q34.25 33.35 33.95 33.55 33.35 33.8 33.25 33.95 L32.95 33.85 32.2 33.5 31.95 31.65 M13.95 27.15 L14.05 27.15 14.85 27.1 14.05 27.15 13.95 27.15 M15.2 27.95 L15.35 28.15 15.0 28.2 15.2 27.95" fill="#ecff1e" fill-rule="evenodd" stroke="none"/>
      <path d="M14.8 27.4 L15.4 27.3 17.15 26.9 17.75 28.3 17.0 29.05 16.6 29.5 16.35 28.5 15.25 29.15 15.3 29.25 15.05 29.35 14.65 29.6 14.3 29.1 14.35 29.05 14.5 28.85 14.7 28.6 15.0 28.2 15.35 28.15 15.2 27.95 14.95 27.6 14.8 27.4" fill="#fff41c" fill-rule="evenodd" stroke="none"/>
      <path d="M15.8 31.35 L16.0 31.8 15.55 30.15 15.3 29.25 15.25 29.15 16.35 28.5 16.6 29.5 17.15 31.1 16.25 32.45 16.4 32.45 16.35 32.5 16.2 32.65 16.15 32.45 15.8 31.35" fill="#dc7c2f" fill-rule="evenodd" stroke="none"/>
      <path d="M17.75 28.3 L18.55 30.35 19.05 31.1 19.15 31.25 19.7 32.0 18.6 32.3 17.9 32.45 17.75 31.9 Q17.0 32.15 16.4 32.45 L16.25 32.45 17.15 31.1 16.6 29.5 17.0 29.05 17.75 28.3" fill="#fff20b" fill-rule="evenodd" stroke="none"/>
      <path d="M15.3 29.25 L15.55 30.15 16.0 31.8 15.8 31.35 14.65 29.6 15.05 29.35 15.3 29.25" fill="#d88e5d" fill-rule="evenodd" stroke="none"/>
      <path d="M15.2 27.95 L15.0 28.2 14.55 28.3 13.9 28.5 13.7 27.65 14.8 27.4 14.95 27.6 15.2 27.95" fill="#e39743" fill-rule="evenodd" stroke="none"/>
      <path d="M-2.05 31.85 L-2.05 30.5 -1.35 30.5 -0.3 30.45 2.8 30.0 2.95 30.0 4.35 29.55 6.2 28.85 6.3 28.8 6.6 28.95 7.05 29.15 6.15 29.35 5.95 29.45 6.3 30.25 5.1 29.85 4.35 29.55 5.1 29.85 4.75 30.95 4.55 31.0 4.2 31.1 2.2 31.8 0.35 32.45 -0.85 32.15 -2.05 31.85 M11.4 27.95 L11.45 28.15 11.5 28.3 11.3 28.3 11.1 28.35 11.0 28.35 11.4 27.95" fill="#9e0231" fill-rule="evenodd" stroke="none"/>
      <path d="M13.7 27.65 L13.9 28.5 12.5 28.95 11.75 29.2 11.65 29.25 11.6 29.25 11.35 29.35 11.4 29.3 11.65 29.15 13.7 27.65" fill="#ba865e" fill-rule="evenodd" stroke="none"/>
      <path d="M15.0 28.2 L14.7 28.6 14.5 28.85 12.45 30.55 12.3 30.7 12.4 31.3 12.5 32.1 12.5 32.2 13.05 32.75 13.15 32.8 13.2 32.85 12.9 34.85 Q12.3 33.3 11.0 32.45 L10.95 31.4 10.95 31.0 10.45 30.85 10.65 29.5 11.1 29.35 11.4 29.3 11.35 29.35 11.6 29.25 11.65 29.25 11.75 29.2 12.5 28.95 13.9 28.5 14.55 28.3 15.0 28.2" fill="#462d4d" fill-rule="evenodd" stroke="none"/>
      <path d="M11.5 28.3 L13.7 27.65 11.65 29.15 11.4 29.3 11.1 29.35 11.05 28.8 11.1 28.35 11.3 28.3 11.5 28.3" fill="#3d212d" fill-rule="evenodd" stroke="none"/>
      <path d="M11.1 28.35 L11.05 28.8 11.1 29.35 10.65 29.5 8.25 30.0 9.45 30.5 10.45 30.85 10.95 31.0 10.95 31.4 11.0 32.45 Q9.95 31.75 8.45 31.45 L6.7 31.25 6.3 30.25 5.95 29.45 6.15 29.35 7.05 29.15 10.95 28.4 11.0 28.35 11.1 28.35" fill="#3e2950" fill-rule="evenodd" stroke="none"/>
      <path d="M10.45 30.85 L9.45 30.5 8.25 30.0 10.65 29.5 10.45 30.85" fill="#573d62" fill-rule="evenodd" stroke="none"/>
      <path d="M15.8 31.35 L16.15 32.45 13.95 32.65 13.55 32.75 13.15 32.8 13.05 32.75 12.5 32.2 12.5 32.1 12.4 31.3 12.3 30.7 12.45 30.55 14.5 28.85 14.35 29.05 14.3 29.1 14.65 29.6 15.8 31.35" fill="#6f3a54" fill-rule="evenodd" stroke="none"/>
      <path d="M16.15 32.45 L16.2 32.65 16.4 33.2 16.85 34.6 16.85 34.65 15.65 35.05 15.4 35.15 Q14.45 35.5 13.65 35.95 13.4 35.95 13.25 36.1 L12.9 34.85 13.2 32.85 13.15 32.8 13.55 32.75 13.95 32.65 16.15 32.45" fill="#52365c" fill-rule="evenodd" stroke="none"/>
      <path d="M19.75 48.6 L18.2 51.45 18.2 51.4 16.1 49.4 16.1 49.25 16.2 48.75 16.0 46.95 15.8 46.2 15.7 45.8 15.5 45.15 16.4 46.05 17.5 47.0 17.75 47.2 19.75 48.6 M6.3 30.25 L6.7 31.25 Q6.25 31.45 5.75 31.8 L5.15 32.2 4.55 32.7 4.55 32.65 4.2 31.1 4.55 31.0 4.75 30.95 5.1 29.85 6.3 30.25 M8.45 31.45 Q9.95 31.75 11.0 32.45 12.3 33.3 12.9 34.85 L13.25 36.1 13.3 37.45 Q13.3 39.25 12.7 41.5 L13.15 42.25 13.85 43.15 13.7 43.15 Q12.9 43.15 12.15 43.8 L11.85 44.05 10.85 42.4 10.6 41.85 10.65 41.55 10.7 41.05 10.75 39.8 10.7 38.3 Q10.55 35.95 9.7 34.75 8.85 33.4 7.5 33.3 L7.4 33.3 5.95 33.35 Q6.3 32.75 6.9 32.3 7.65 31.7 8.45 31.45" fill="#990134" fill-rule="evenodd" stroke="none"/>
      <path d="M13.65 35.95 Q14.45 35.5 15.4 35.15 L16.2 38.35 16.55 40.0 16.0 40.4 15.9 40.4 Q15.1 40.55 14.2 41.55 L14.1 41.45 15.05 40.2 16.0 39.2 13.9 39.75 13.75 37.0 13.65 35.95" fill="#502050" fill-rule="evenodd" stroke="none"/>
      <path d="M13.25 36.1 Q13.4 35.95 13.65 35.95 L13.75 37.0 13.9 39.75 16.0 39.2 15.05 40.2 14.1 41.45 14.2 41.55 Q14.85 42.55 17.05 44.75 L17.6 45.35 17.95 45.65 17.75 46.7 17.75 47.2 17.5 47.0 16.4 46.05 15.5 45.15 Q14.6 44.25 13.85 43.15 L13.15 42.25 12.7 41.5 Q13.3 39.25 13.3 37.45 L13.25 36.1" fill="#ce0817" fill-rule="evenodd" stroke="none"/>
      <path d="M19.15 31.25 Q19.75 30.95 20.65 30.55 L21.9 30.1 22.5 31.95 22.6 31.85 22.45 32.9 22.45 33.0 21.85 33.3 21.25 32.35 20.65 32.95 20.1 33.6 20.15 34.45 20.15 34.5 19.5 34.85 19.35 34.4 19.2 33.85 20.45 32.25 20.25 31.9 19.7 32.0 19.15 31.25" fill="#f5f51b" fill-rule="evenodd" stroke="none"/>
      <path d="M16.2 32.65 L16.35 32.5 16.4 32.45 Q17.0 32.15 17.75 31.9 L17.9 32.45 18.6 32.3 18.35 33.05 18.1 34.25 18.05 34.35 18.0 34.4 17.95 34.95 17.6 35.0 17.0 35.1 16.85 34.65 16.85 34.6 16.4 33.2 16.2 32.65" fill="#d47346" fill-rule="evenodd" stroke="none"/>
      <path d="M18.6 32.3 L19.7 32.0 20.25 31.9 20.45 32.25 19.2 33.85 19.35 34.4 18.95 34.4 18.8 34.35 18.7 34.35 18.3 34.35 18.1 34.35 18.1 34.25 18.35 33.05 18.6 32.3" fill="#8b4440" fill-rule="evenodd" stroke="none"/>
      <path d="M15.4 35.15 L15.65 35.05 16.85 34.65 17.0 35.1 17.6 37.1 18.15 37.9 18.3 38.05 18.3 38.2 18.15 38.25 18.2 38.75 16.55 40.0 16.2 38.35 15.4 35.15" fill="#43344b" fill-rule="evenodd" stroke="none"/>
      <path d="M18.1 34.25 L18.1 34.35 18.15 34.9 18.25 35.35 18.65 37.25 18.85 38.0 18.85 38.05 18.9 38.25 19.15 39.35 18.55 38.45 18.3 38.2 18.3 38.05 18.15 37.9 17.6 37.1 17.0 35.1 17.6 35.0 17.95 34.95 18.0 34.4 18.05 34.35 18.1 34.25" fill="#724f65" fill-rule="evenodd" stroke="none"/>
      <path d="M20.15 34.5 L20.15 34.45 20.1 33.6 20.65 32.95 21.25 32.35 21.85 33.3 22.45 33.0 22.8 32.9 22.45 35.1 22.3 34.25 20.4 36.2 20.15 34.5" fill="#de7933" fill-rule="evenodd" stroke="none"/>
      <path d="M19.35 34.4 L19.5 34.85 19.8 36.15 19.95 36.65 20.15 37.45 18.85 38.0 18.65 37.25 18.25 35.35 18.15 34.9 18.1 34.35 18.3 34.35 18.7 34.35 18.8 34.35 18.95 34.4 19.35 34.4" fill="#703950" fill-rule="evenodd" stroke="none"/>
      <path d="M19.5 34.85 L20.15 34.5 20.4 36.2 20.45 36.5 20.6 37.25 20.6 37.45 20.3 38.0 20.15 37.45 19.95 36.65 19.8 36.15 19.5 34.85" fill="#f0af55" fill-rule="evenodd" stroke="none"/>
      <path d="M6.5 27.15 L7.15 26.95 9.25 26.55 9.8 27.15 9.9 27.35 Q9.25 27.6 10.0 28.3 L6.3 28.8 6.2 28.85 4.35 29.55 2.95 30.0 2.8 30.0 2.55 28.75 2.45 28.6 3.5 28.5 4.45 27.85 6.5 27.15" fill="#ff3f1c" fill-rule="evenodd" stroke="none"/>
      <path d="M3.45 25.65 L4.55 25.25 5.45 25.0 6.55 24.75 6.5 27.15 4.45 27.85 3.5 28.5 2.45 28.6 2.35 28.65 1.15 28.75 1.05 28.75 1.05 28.4 1.15 27.2 1.1 26.4 1.0 25.75 0.95 25.65 1.05 25.7 1.15 25.75 1.25 25.75 1.65 25.9 1.65 25.95 1.7 26.2 1.95 26.4 2.15 26.5 2.2 26.55 2.4 26.55 2.45 26.55 3.1 26.4 3.2 26.3 3.5 25.85 3.45 25.65" fill="#ff4217" fill-rule="evenodd" stroke="none"/>
      <path d="M3.1 25.35 L3.45 25.65 3.5 25.85 3.2 26.3 3.1 26.4 2.45 26.55 2.4 26.55 2.2 26.55 2.15 26.5 1.95 26.4 1.7 26.2 1.65 25.95 1.65 25.9 1.85 25.5 1.85 25.45 2.0 25.35 2.25 25.35 2.6 25.35 3.1 25.35" fill="#ffef2e" fill-rule="evenodd" stroke="none"/>
      <path d="M-2.05 24.6 L-2.05 23.65 -0.8 24.2 -0.05 24.5 0.7 24.9 1.05 25.1 1.85 25.5 1.65 25.9 1.25 25.75 1.15 25.75 1.05 25.7 0.95 25.65 0.6 25.55 -1.25 24.65 -2.05 24.6" fill="#ff8320" fill-rule="evenodd" stroke="none"/>
      <path d="M-2.05 25.7 L-2.05 24.6 -1.25 24.65 0.6 25.55 0.95 25.65 1.0 25.75 1.1 26.4 1.15 27.2 1.05 28.4 -1.0 28.6 -1.9 26.15 -2.05 25.7" fill="#e61b1f" fill-rule="evenodd" stroke="none"/>
      <path d="M-2.05 30.5 L-2.05 28.6 -1.0 28.6 1.05 28.4 1.05 28.75 1.15 28.75 2.35 28.65 2.45 28.6 2.55 28.75 2.8 30.0 -0.3 30.45 -1.35 30.5 -2.05 30.5" fill="#c4091a" fill-rule="evenodd" stroke="none"/>
      <path d="M4.2 31.1 L4.55 32.65 4.55 32.7 Q4.2 32.95 4.0 33.2 L3.9 33.5 3.4 33.55 2.65 33.55 2.5 32.8 0.35 32.45 2.2 31.8 4.2 31.1" fill="#a70222" fill-rule="evenodd" stroke="none"/>
      <path d="M-2.05 35.8 L-2.05 33.45 -0.05 33.95 2.8 34.5 2.65 33.55 3.4 33.55 3.9 33.5 3.75 34.2 3.75 34.6 3.7 35.5 Q3.7 36.7 4.2 37.9 L4.55 38.6 4.55 38.65 4.75 39.05 3.65 38.9 3.15 38.7 0.15 37.25 -2.0 36.05 -2.05 35.8" fill="#c40524" fill-rule="evenodd" stroke="none"/>
      <path d="M4.55 32.7 L5.15 32.2 5.45 33.05 5.65 33.4 5.8 33.65 Q5.4 34.45 5.4 35.4 5.4 36.1 5.85 37.0 L6.1 37.5 5.4 37.9 4.55 38.65 4.55 38.6 4.2 37.9 Q3.7 36.7 3.7 35.5 L3.75 34.6 3.75 34.2 3.9 33.5 4.0 33.2 Q4.2 32.95 4.55 32.7" fill="#c13524" fill-rule="evenodd" stroke="none"/>
      <path d="M-2.05 33.45 L-2.05 31.85 -0.85 32.15 0.35 32.45 2.5 32.8 2.65 33.55 2.8 34.5 -0.05 33.95 -2.05 33.45" fill="#e10722" fill-rule="evenodd" stroke="none"/>
      <path d="M6.7 31.25 L8.45 31.45 Q7.65 31.7 6.9 32.3 6.3 32.75 5.95 33.35 L5.8 33.65 5.65 33.4 5.45 33.05 5.15 32.2 5.75 31.8 Q6.25 31.45 6.7 31.25" fill="#ab2836" fill-rule="evenodd" stroke="none"/>
      <path d="M6.1 37.5 L5.85 37.0 Q5.4 36.1 5.4 35.4 5.4 34.45 5.8 33.65 L5.95 33.35 7.4 33.3 7.5 33.3 Q8.85 33.4 9.7 34.75 10.55 35.95 10.7 38.3 L9.65 38.1 9.35 38.05 Q8.65 38.05 7.7 38.5 7.3 38.65 6.95 38.9 L6.5 38.1 6.1 37.5" fill="#9a0330" fill-rule="evenodd" stroke="none"/>
      <path d="M10.7 38.3 L10.75 39.8 10.7 41.05 10.65 41.55 Q8.9 41.65 8.05 42.35 7.9 40.75 7.55 39.65 L6.95 38.9 Q7.3 38.65 7.7 38.5 8.65 38.05 9.35 38.05 L9.65 38.1 10.7 38.3" fill="#aa042c" fill-rule="evenodd" stroke="none"/>
      <path d="M4.55 38.65 L5.4 37.9 6.1 37.5 6.5 38.1 6.95 38.9 7.55 39.65 Q7.9 40.75 8.05 42.35 L8.05 43.15 8.05 43.6 7.9 45.55 6.15 45.8 5.65 45.75 5.9 42.95 5.9 42.7 5.65 40.5 5.6 40.25 4.75 39.05 4.55 38.65" fill="#d1491f" fill-rule="evenodd" stroke="none"/>
      <path d="M4.75 39.05 L5.6 40.25 5.65 40.5 5.9 42.7 5.7 42.65 2.4 41.6 1.5 41.2 -0.75 39.75 -1.6 39.2 Q-1.7 37.4 -1.9 36.5 L-2.0 36.1 -2.0 36.05 0.15 37.25 3.15 38.7 3.65 38.9 4.75 39.05" fill="#d90921" fill-rule="evenodd" stroke="none"/>
      <path d="M-2.05 44.2 L-2.05 41.5 -1.95 41.05 -1.5 39.95 -1.6 39.2 -0.75 39.75 1.5 41.2 2.4 41.6 5.7 42.65 5.9 42.7 5.9 42.95 5.65 45.75 4.85 48.4 4.8 48.6 4.05 47.4 Q2.7 45.35 0.85 44.55 L-1.6 44.15 -2.05 44.2" fill="#e50915" fill-rule="evenodd" stroke="none"/>
      <path d="M10.65 41.55 L10.6 41.85 10.85 42.4 11.85 44.05 Q11.35 44.65 11.35 45.45 11.35 46.3 12.4 46.7 L13.5 46.9 13.7 47.6 13.7 48.25 13.7 48.95 11.95 48.4 10.65 47.85 7.8 46.2 7.9 45.55 8.05 43.6 8.05 43.15 8.05 42.35 Q8.9 41.65 10.65 41.55" fill="#c00522" fill-rule="evenodd" stroke="none"/>
      <path d="M0.7 48.6 L0.6 48.05 0.8 47.5 1.2 47.25 1.25 47.3 1.5 47.85 1.35 48.35 1.0 48.7 0.7 48.6" fill="#ffad2c" fill-rule="evenodd" stroke="none"/>
      <path d="M-2.05 47.6 L-2.05 44.2 -1.6 44.15 0.85 44.55 Q2.7 45.35 4.05 47.4 L4.8 48.6 4.05 50.2 4.0 50.35 3.3 51.55 2.65 53.35 1.85 55.05 0.7 52.7 0.5 52.3 0.4 52.05 Q-0.05 50.9 -0.15 50.15 L-0.5 50.05 -1.0 50.0 -1.0 49.85 -1.25 49.45 -1.95 47.9 -2.05 47.6 M0.7 48.6 L1.0 48.7 1.35 48.35 1.5 47.85 1.25 47.3 1.2 47.25 0.8 47.5 0.6 48.05 0.7 48.6" fill="#e82813" fill-rule="evenodd" stroke="none"/>
      <path d="M5.65 45.75 L6.15 45.8 7.9 45.55 7.8 46.2 7.15 48.55 6.95 49.1 6.15 50.9 5.85 51.55 5.45 52.2 4.1 50.3 4.05 50.2 4.8 48.6 4.85 48.4 5.65 45.75" fill="#db4b19" fill-rule="evenodd" stroke="none"/>
      <path d="M5.45 52.2 L5.85 51.55 6.15 50.9 6.95 49.1 7.15 48.55 Q8.25 50.15 9.0 52.65 L9.5 54.45 9.45 54.5 7.7 55.45 7.5 55.55 Q5.75 56.25 3.65 56.45 L4.2 54.7 4.4 53.95 5.45 52.2" fill="#e30c0a" fill-rule="evenodd" stroke="none"/>
      <path d="M7.15 48.55 L7.8 46.2 10.65 47.85 11.95 48.4 13.7 48.95 13.35 50.7 12.75 51.65 11.0 53.35 10.65 53.65 9.8 54.25 9.5 54.45 9.0 52.65 Q8.25 50.15 7.15 48.55" fill="#e00614" fill-rule="evenodd" stroke="none"/>
      <path d="M18.3 38.2 L18.55 38.45 19.15 39.35 18.9 38.25 18.85 38.05 18.85 38.0 20.15 37.45 20.3 38.0 20.4 38.35 21.2 40.95 18.3 40.5 18.25 40.35 18.2 38.75 18.15 38.25 18.3 38.2" fill="#483459" fill-rule="evenodd" stroke="none"/>
      <path d="M14.2 41.55 Q15.1 40.55 15.9 40.4 L16.0 40.4 16.55 40.0 18.2 38.75 18.25 40.35 18.3 40.5 18.3 42.25 18.05 42.8 17.45 43.9 17.05 44.75 Q14.85 42.55 14.2 41.55" fill="#391e41" fill-rule="evenodd" stroke="none"/>
      <path d="M18.3 42.25 L18.4 43.8 18.4 44.1 18.45 44.9 18.65 44.9 20.4 44.25 20.5 44.25 20.4 46.1 20.4 46.25 20.35 47.6 20.1 47.45 17.95 45.65 17.6 45.35 17.05 44.75 17.45 43.9 18.05 42.8 18.3 42.25" fill="#4d1329" fill-rule="evenodd" stroke="none"/>
      <path d="M18.3 42.25 L18.3 40.5 21.2 40.95 21.25 41.2 21.45 41.75 21.5 41.95 21.5 42.0 21.6 42.5 21.8 43.25 21.85 43.5 21.4 43.8 20.7 44.1 20.5 44.25 20.4 44.25 18.65 44.9 18.45 44.9 18.4 44.1 18.4 43.8 18.3 42.25" fill="#492450" fill-rule="evenodd" stroke="none"/>
      <path d="M11.85 44.05 L12.15 43.8 Q12.9 43.15 13.7 43.15 L13.85 43.15 Q14.6 44.25 15.5 45.15 L15.7 45.8 15.8 46.2 16.0 46.95 15.45 47.1 14.35 47.4 14.2 47.45 13.7 47.6 13.5 46.9 12.4 46.7 Q11.35 46.3 11.35 45.45 11.35 44.65 11.85 44.05" fill="#bb2e1a" fill-rule="evenodd" stroke="none"/>
      <path d="M13.7 48.95 L13.7 48.25 13.7 47.6 14.2 47.45 14.35 47.4 15.45 47.1 16.0 46.95 16.2 48.75 16.1 49.25 16.1 49.4 16.0 49.8 16.0 49.9 15.95 50.05 15.6 51.0 14.65 52.85 14.5 52.65 13.35 50.7 13.7 48.95" fill="#bd2822" fill-rule="evenodd" stroke="none"/>
      <path d="M27.55 49.05 L27.5 49.35 25.35 50.6 22.25 49.8 22.0 49.7 20.25 48.95 19.75 48.6 17.75 47.2 17.75 46.7 17.95 45.65 20.1 47.45 20.35 47.6 20.6 47.8 22.45 48.8 22.5 48.85 26.3 49.15 26.5 49.15 27.55 49.05" fill="#c1031c" fill-rule="evenodd" stroke="none"/>
      <path d="M39.4 26.25 L39.5 25.9 39.95 25.8 40.15 25.85 40.2 25.9 40.35 26.25 40.2 26.65 40.05 26.75 39.6 26.85 Q39.4 26.85 39.4 26.3 L39.4 26.25" fill="#fff02d" fill-rule="evenodd" stroke="none"/>
      <path d="M40.6 27.85 L40.2 28.45 39.5 29.05 38.85 26.0 39.4 26.25 39.4 26.3 Q39.4 26.85 39.6 26.85 L40.05 26.75 40.6 27.85" fill="#fdc22a" fill-rule="evenodd" stroke="none"/>
      <path d="M30.45 29.75 Q30.9 29.9 30.9 30.35 L30.35 30.8 30.0 30.7 29.8 30.1 29.9 29.7 30.2 29.7 30.45 29.75" fill="#fff183" fill-rule="evenodd" stroke="none"/>
      <path d="M28.05 29.6 L30.65 28.8 Q31.5 29.7 31.85 31.35 L31.65 31.75 30.95 33.0 30.55 32.1 30.45 31.85 30.35 31.65 30.1 32.2 30.0 32.45 29.0 31.9 29.4 30.8 28.15 31.2 28.05 29.6 M30.45 29.75 L30.2 29.7 29.9 29.7 29.8 30.1 30.0 30.7 30.35 30.8 30.9 30.35 Q30.9 29.9 30.45 29.75" fill="#ffe003" fill-rule="evenodd" stroke="none"/>
      <path d="M31.85 31.35 L31.95 31.65 32.2 33.5 32.95 33.85 33.25 33.95 Q33.35 33.8 33.95 33.55 34.25 33.35 34.7 33.2 L34.75 33.15 35.3 34.25 35.35 34.4 35.05 34.7 35.05 34.75 34.5 35.3 34.3 35.9 33.65 35.7 33.75 35.2 33.5 35.25 33.35 35.6 33.1 36.05 32.5 36.0 32.55 35.6 31.8 35.5 31.6 35.5 31.55 35.15 31.4 34.55 31.1 33.4 30.95 33.0 31.65 31.75 31.85 31.35 M32.2 34.75 L32.2 34.2 32.2 33.5 32.2 34.2 32.2 34.75" fill="#ffdd13" fill-rule="evenodd" stroke="none"/>
      <path d="M30.0 32.45 L30.1 32.2 30.35 31.65 30.45 31.85 30.55 32.1 30.95 33.0 31.1 33.4 31.4 34.55 29.75 35.25 28.6 35.75 30.0 32.45" fill="#efa828" fill-rule="evenodd" stroke="none"/>
      <path d="M31.4 34.55 L31.55 35.15 31.6 35.5 31.8 35.5 32.55 35.6 32.5 36.0 32.3 37.35 33.1 36.05 33.35 35.6 33.5 35.25 33.75 35.2 33.65 35.7 33.3 37.1 32.65 37.95 31.85 38.0 29.15 38.1 27.55 38.25 28.45 36.2 28.6 35.75 29.75 35.25 31.4 34.55" fill="#bc6a55" fill-rule="evenodd" stroke="none"/>
      <path d="M39.9 31.95 L39.85 32.0 39.6 32.2 38.55 33.05 39.05 33.4 39.65 33.15 39.45 35.35 39.4 35.35 39.05 35.35 37.25 35.15 36.8 36.35 36.65 36.7 35.9 35.65 35.9 35.6 35.35 34.4 35.3 34.25 35.25 34.05 35.95 32.65 36.65 32.7 39.0 32.3 39.9 31.95" fill="#fcd025" fill-rule="evenodd" stroke="none"/>
      <path d="M34.3 35.9 L34.5 35.3 35.05 34.75 35.05 34.7 35.35 34.4 35.9 35.6 35.9 35.65 35.7 37.8 35.2 37.9 35.1 37.9 34.6 38.05 33.95 37.05 34.05 36.95 34.1 36.9 34.25 36.15 34.3 35.9" fill="#955647" fill-rule="evenodd" stroke="none"/>
      <path d="M31.55 40.4 L31.25 40.7 31.45 39.4 31.5 39.2 32.65 37.95 33.3 37.1 33.65 35.7 34.3 35.9 34.25 36.15 34.1 36.9 34.05 36.95 33.95 37.05 33.15 37.9 32.3 38.75 32.1 38.9 32.0 39.15 31.85 39.55 31.65 40.2 31.55 40.4" fill="#c87a4c" fill-rule="evenodd" stroke="none"/>
      <path d="M32.5 36.0 L33.1 36.05 32.3 37.35 32.5 36.0" fill="#bb764c" fill-rule="evenodd" stroke="none"/>
      <path d="M39.05 35.35 L39.2 36.35 39.3 37.15 39.1 37.1 38.55 36.9 38.3 36.95 38.2 36.95 38.2 37.0 38.65 37.4 38.1 37.85 37.85 37.7 37.45 37.45 36.65 36.7 36.8 36.35 37.25 35.15 39.05 35.35" fill="#ff5e1a" fill-rule="evenodd" stroke="none"/>
      <path d="M26.15 30.3 L26.25 30.25 28.05 29.6 28.15 31.2 26.85 31.55 26.75 31.6 23.45 32.7 22.8 32.9 22.45 33.0 22.45 32.9 22.6 31.85 22.85 31.75 23.0 31.65 Q24.1 31.1 25.85 30.4 L26.15 30.3" fill="#fbec15" fill-rule="evenodd" stroke="none"/>
      <path d="M22.8 32.9 L23.45 32.7 25.05 35.15 25.5 35.95 26.2 36.9 26.25 37.0 25.95 37.1 24.95 37.45 23.75 37.8 23.4 37.9 23.1 38.0 23.05 37.85 23.05 37.75 22.9 37.0 22.45 35.1 22.8 32.9" fill="#a64c41" fill-rule="evenodd" stroke="none"/>
      <path d="M20.6 37.45 L20.6 37.25 20.45 36.5 20.4 36.2 22.3 34.25 22.45 35.1 22.9 37.0 22.25 37.35 21.35 37.8 20.7 38.15 20.6 37.45" fill="#b06a51" fill-rule="evenodd" stroke="none"/>
      <path d="M23.45 32.7 L26.75 31.6 26.85 31.55 27.1 32.3 27.2 32.75 27.25 33.0 27.9 35.35 27.85 35.5 Q27.7 35.7 27.7 35.95 L27.55 36.25 26.95 38.0 26.25 37.0 26.2 36.9 25.5 35.95 25.05 35.15 23.45 32.7" fill="#cd7838" fill-rule="evenodd" stroke="none"/>
      <path d="M29.0 31.9 L30.0 32.45 28.6 35.75 28.45 36.2 28.25 35.95 28.0 35.65 27.85 35.5 27.9 35.35 28.8 32.6 29.0 31.9" fill="#fdd500" fill-rule="evenodd" stroke="none"/>
      <path d="M26.85 31.55 L28.15 31.2 29.4 30.8 29.0 31.9 28.8 32.6 27.9 35.35 27.25 33.0 27.2 32.75 27.1 32.3 26.85 31.55" fill="#edb613" fill-rule="evenodd" stroke="none"/>
      <path d="M27.85 35.5 L28.0 35.65 28.25 35.95 28.45 36.2 27.55 38.25 27.4 38.55 27.0 39.5 26.7 40.1 26.4 39.45 26.45 39.3 26.85 38.25 26.95 38.0 27.55 36.25 27.7 35.95 Q27.7 35.7 27.85 35.5" fill="#c18390" fill-rule="evenodd" stroke="none"/>
      <path d="M23.1 38.0 L23.4 37.9 23.75 37.8 24.95 37.45 25.95 37.1 26.25 37.0 26.95 38.0 26.85 38.25 26.45 39.3 26.4 39.45 26.05 40.4 25.85 40.85 24.3 40.55 23.65 40.4 23.35 39.05 23.1 38.0" fill="#793f4e" fill-rule="evenodd" stroke="none"/>
      <path d="M29.25 39.65 Q29.25 38.85 29.75 38.55 L29.85 38.55 30.05 38.65 30.4 39.1 30.4 39.25 30.2 39.8 29.65 40.3 29.3 39.85 29.25 39.65" fill="#fbd38d" fill-rule="evenodd" stroke="none"/>
      <path d="M31.25 40.7 L29.9 42.25 29.75 42.5 28.35 41.7 28.2 41.6 26.5 40.65 26.7 40.1 27.0 39.5 27.4 38.55 27.55 38.25 29.15 38.1 31.85 38.0 32.65 37.95 31.5 39.2 31.45 39.4 31.25 40.7 M29.25 39.65 L29.3 39.85 29.65 40.3 30.2 39.8 30.4 39.25 30.4 39.1 30.05 38.65 29.85 38.55 29.75 38.55 Q29.25 38.85 29.25 39.65" fill="#5b3f56" fill-rule="evenodd" stroke="none"/>
      <path d="M26.4 39.45 L26.7 40.1 26.5 40.65 26.3 40.95 26.05 41.5 25.85 41.8 24.65 43.45 24.6 43.5 24.2 43.95 24.2 44.0 24.1 44.1 23.9 44.35 23.8 44.5 23.75 44.55 23.9 44.3 24.2 43.9 24.2 43.85 24.5 43.3 25.2 42.2 25.4 41.9 25.65 41.4 25.85 40.85 26.05 40.4 26.4 39.45" fill="#a68caf" fill-rule="evenodd" stroke="none"/>
      <path d="M29.75 42.5 L29.75 42.55 Q28.85 43.85 28.25 45.75 L27.5 45.3 27.3 45.2 26.6 44.75 25.1 43.7 24.65 43.45 25.85 41.8 26.05 41.5 26.3 40.95 26.5 40.65 28.2 41.6 28.35 41.7 29.75 42.5" fill="#3d395c" fill-rule="evenodd" stroke="none"/>
      <path d="M25.85 40.85 L25.65 41.4 25.4 41.9 25.2 42.2 24.5 43.3 24.2 43.85 24.2 43.9 23.9 44.3 23.75 44.55 23.7 44.55 23.55 44.8 23.55 44.65 23.7 44.15 23.0 43.6 22.1 42.85 23.75 40.7 23.65 40.4 24.3 40.55 25.85 40.85" fill="#3d2e4f" fill-rule="evenodd" stroke="none"/>
      <path d="M22.9 37.0 L23.05 37.75 23.05 37.85 23.1 38.0 23.35 39.05 22.25 40.2 21.35 41.15 21.25 40.95 20.7 38.15 21.35 37.8 22.25 37.35 22.9 37.0" fill="#6e4d6c" fill-rule="evenodd" stroke="none"/>
      <path d="M20.3 38.0 L20.6 37.45 20.7 38.15 21.25 40.95 21.35 41.15 21.5 41.95 21.45 41.75 21.25 41.2 21.2 40.95 20.4 38.35 20.3 38.0" fill="#a27b6c" fill-rule="evenodd" stroke="none"/>
      <path d="M21.8 43.25 L21.6 42.5 21.5 42.0 21.5 41.95 21.35 41.15 22.25 40.2 23.35 39.05 23.65 40.4 23.75 40.7 22.1 42.85 21.8 43.25" fill="#5e486e" fill-rule="evenodd" stroke="none"/>
      <path d="M20.5 44.25 L20.7 44.1 21.4 43.8 21.85 43.5 21.8 43.25 22.1 42.85 23.0 43.6 23.7 44.15 23.55 44.65 23.55 44.8 23.2 46.0 22.8 47.6 22.5 48.85 22.45 48.8 20.6 47.8 20.35 47.6 20.4 46.25 20.4 46.1 20.5 44.25" fill="#491142" fill-rule="evenodd" stroke="none"/>
      <path d="M24.65 43.45 L25.1 43.7 26.6 44.75 27.3 45.2 26.25 45.8 22.8 47.6 23.2 46.0 23.55 44.8 23.7 44.55 23.75 44.55 23.8 44.5 23.9 44.35 24.1 44.1 24.2 44.0 24.2 43.95 24.6 43.5 24.65 43.45" fill="#3d315f" fill-rule="evenodd" stroke="none"/>
      <path d="M28.25 45.75 L28.05 46.65 27.8 47.6 27.55 49.05 26.5 49.15 26.3 49.15 22.5 48.85 22.8 47.6 26.25 45.8 27.3 45.2 27.5 45.3 28.25 45.75" fill="#27183f" fill-rule="evenodd" stroke="none"/>
      <path d="M39.4 38.45 Q36.35 39.75 33.7 39.75 L34.15 39.35 35.05 38.45 35.35 38.4 35.6 38.3 37.45 37.45 37.85 37.7 38.1 37.85 39.4 38.45" fill="#ff5408" fill-rule="evenodd" stroke="none"/>
      <path d="M32.3 39.65 L31.55 40.4 31.65 40.2 31.85 39.55 32.0 39.15 32.1 38.9 32.3 38.75 33.15 37.9 33.95 37.05 34.6 38.05 33.3 38.55 33.2 38.7 32.5 39.4 32.3 39.65" fill="#9c5565" fill-rule="evenodd" stroke="none"/>
      <path d="M18.2 51.45 L16.65 53.3 15.35 54.6 14.25 55.4 11.6 57.15 11.3 57.3 10.15 57.3 10.75 56.85 11.45 56.35 Q13.4 54.75 14.65 52.85 L15.6 51.0 15.95 50.05 16.0 49.9 16.0 49.8 16.1 49.4 18.2 51.4 18.2 51.45" fill="#9e0639" fill-rule="evenodd" stroke="none"/>
      <path d="M14.65 52.85 Q13.4 54.75 11.45 56.35 L11.35 55.6 11.0 53.35 12.75 51.65 13.35 50.7 14.5 52.65 14.65 52.85" fill="#d82a1f" fill-rule="evenodd" stroke="none"/>
      <path d="M10.15 57.3 L7.55 57.3 7.5 55.55 7.7 55.45 9.45 54.5 9.5 54.45 9.8 54.25 10.65 53.65 11.0 53.35 11.35 55.6 11.45 56.35 10.75 56.85 10.15 57.3" fill="#ec3918" fill-rule="evenodd" stroke="none"/>
      <path d="M4.05 50.2 L4.1 50.3 5.45 52.2 4.4 53.95 4.2 54.7 3.65 56.45 3.35 56.5 3.35 56.25 3.35 56.1 2.45 56.15 1.7 56.2 1.65 56.2 1.4 55.65 1.85 55.05 2.65 53.35 3.3 51.55 4.0 50.35 4.05 50.2" fill="#fa6310" fill-rule="evenodd" stroke="none"/>
      <path d="M-1.0 50.0 L-0.5 50.05 -0.15 50.15 Q-0.05 50.9 0.4 52.05 L0.5 52.3 0.7 52.7 -0.85 54.5 -0.8 53.85 -0.8 52.65 -0.8 52.4 -0.9 50.9 -1.0 50.0" fill="#fe400e" fill-rule="evenodd" stroke="none"/>
      <path d="M0.7 52.7 L1.85 55.05 1.4 55.65 1.65 56.2 1.65 56.25 0.95 57.3 -1.25 56.95 -0.85 54.5 0.7 52.7" fill="#fd5105" fill-rule="evenodd" stroke="none"/>
      <path d="M3.15 57.3 L0.95 57.3 1.65 56.25 1.7 56.2 2.45 56.15 3.35 56.1 3.35 56.25 3.35 56.5 3.15 57.3" fill="#ffb50d" fill-rule="evenodd" stroke="none"/>
      <path d="M7.55 57.3 L3.15 57.3 3.35 56.5 3.65 56.45 Q5.75 56.25 7.5 55.55 L7.55 57.3" fill="#f73a10" fill-rule="evenodd" stroke="none"/>
      <path d="M51.5 52.5 Q50.65 52.9 49.9 53.45 L49.75 53.55 Q47.85 54.9 46.8 57.3 L45.1 57.3 Q44.75 55.4 44.75 53.65 44.9 49.5 45.4 47.85 L46.3 53.55 50.55 52.05 51.2 51.8 51.5 52.5" fill="#fffdff" fill-rule="evenodd" stroke="none"/>
      <path d="M-2.05 6.6 L-2.05 4.8 Q-1.0 5.15 -0.4 5.75 0.4 6.65 0.4 7.85 L-0.05 9.85 -0.7 11.3 -0.7 11.4 -1.1 12.5 -1.2 12.45 -0.95 10.8 -1.0 9.8 Q-1.2 7.8 -2.05 6.6" fill="#ea1a1a" fill-rule="evenodd" stroke="none"/>
      <path d="M-2.05 9.75 L-2.05 8.65 -2.0 8.8 -1.8 9.75 -2.05 9.75" fill="#f73d14" fill-rule="evenodd" stroke="none"/>
      <path d="M-2.05 8.65 L-2.05 6.6 Q-1.2 7.8 -1.0 9.8 L-0.95 10.8 -1.2 12.45 -1.55 12.4 -1.95 12.15 -1.9 11.9 -1.85 11.45 -1.75 10.8 -1.8 9.75 -2.0 8.8 -2.05 8.65" fill="#ff6221" fill-rule="evenodd" stroke="none"/>
      <path d="M-2.05 14.4 L-2.05 9.75 -1.8 9.75 -1.75 10.8 -1.85 11.45 -1.9 11.9 -1.95 12.15 -1.55 12.4 -1.2 12.45 -1.1 12.5 -1.2 12.8 -1.25 12.85 -1.25 13.05 -1.35 13.2 -1.5 13.95 -1.6 14.45 -1.65 15.1 -1.65 15.15 -2.05 14.4" fill="#f53818" fill-rule="evenodd" stroke="none"/>
      <path d="M-2.05 18.7 L-2.05 14.4 -1.65 15.15 -1.6 15.75 -1.05 17.45 -0.9 17.7 -2.05 18.7" fill="#e41c26" fill-rule="evenodd" stroke="none"/>
      <path d="M-2.05 22.9 L-2.05 22.0 -1.95 22.05 -2.0 22.6 -2.05 22.9" fill="#f7381c" fill-rule="evenodd" stroke="none"/>
      <path d="M-2.05 28.6 L-2.05 25.7 -1.9 26.15 -1.0 28.6 -2.05 28.6" fill="#dc1822" fill-rule="evenodd" stroke="none"/>
      <path d="M-2.05 36.15 L-2.05 35.8 -2.0 36.05 -2.0 36.1 -2.05 36.15" fill="#f63725" fill-rule="evenodd" stroke="none"/>
      <path d="M-2.05 41.5 L-2.05 36.15 -2.0 36.1 -1.9 36.5 Q-1.7 37.4 -1.6 39.2 L-1.5 39.95 -1.95 41.05 -2.05 41.5" fill="#ef410f" fill-rule="evenodd" stroke="none"/>
      <path d="M-2.05 53.7 L-2.05 47.95 -1.95 47.9 -1.25 49.45 -1.0 49.85 -1.0 50.0 -0.9 50.9 -0.8 52.4 -0.8 52.65 -0.8 53.85 -1.7 53.7 -2.05 53.7" fill="#ff7b16" fill-rule="evenodd" stroke="none"/>
      <path d="M-2.05 47.95 L-2.05 47.6 -1.95 47.9 -2.05 47.95" fill="#f5380e" fill-rule="evenodd" stroke="none"/>
      <path d="M-1.3 57.3 L-2.05 57.3 -2.05 53.7 -1.7 53.7 -0.8 53.85 -0.85 54.5 -1.25 56.95 -1.25 57.0 -1.3 57.3" fill="#ffbd06" fill-rule="evenodd" stroke="none"/>
      <path d="M0.95 57.3 L-1.3 57.3 -1.25 57.0 -1.25 56.95 0.95 57.3" fill="#f66d05" fill-rule="evenodd" stroke="none"/>
      <path d="M0.5 -4.3 L0.6 -4.15 0.7 -3.95 0.95 -4.3 M12.1 -1.25 L11.85 -1.7 11.75 -3.55 11.7 -4.3 M24.35 21.8 L24.95 22.3 25.05 22.35 M13.35 0.7 L14.25 2.15 20.6 12.0 14.45 8.05 11.8 6.1 9.8 4.5 7.7 2.5 5.1 -4.3 M13.35 0.7 L12.1 -1.25 M10.55 10.25 L11.15 10.8 13.15 12.45 17.2 15.9 17.55 16.15 M1.8 4.5 L4.25 5.0 6.3 6.7 8.15 8.25 10.55 10.25 M-2.05 3.4 L0.15 4.1 1.8 4.5" fill="none" stroke="#e466ee" stroke-linecap="round" stroke-linejoin="round" stroke-width="1.5"/>
      <path d="M20.95 -3.2 L22.15 -3.85 22.7 -4.15 23.0 -4.3 M20.5 -3.0 L20.95 -3.2 M29.55 -2.55 L31.1 -4.3 M28.05 -0.15 L28.05 -0.25 28.15 -0.9 29.55 -2.55 M16.4 0.1 L16.2 -0.7 20.5 -3.0 M28.05 -0.15 L28.05 0.7 28.05 1.45 Q28.05 3.65 28.35 5.65 28.6 7.5 29.15 9.1 L29.25 9.35 29.25 9.4 29.25 9.5 29.35 9.8 Q30.2 12.25 31.15 13.95 L31.2 14.1 31.2 14.85 31.1 16.6 30.85 18.65 30.75 19.2 29.9 21.8 Q29.2 23.45 28.1 24.45 L27.25 23.9 26.25 23.2 26.1 23.1 25.05 22.35 24.5 21.9 24.35 21.8 23.0 20.7 18.9 17.4 18.75 17.25 Q17.75 16.6 17.55 16.15 17.25 15.5 18.35 15.15 L20.65 14.3 22.8 14.4 23.85 13.95 24.45 12.7 Q25.25 10.6 24.75 8.75 L24.75 8.7 Q25.45 8.7 25.95 8.3 L26.45 7.75 26.7 7.25 26.5 6.65 26.25 6.0 25.95 5.45 25.0 4.0 24.7 3.7 24.65 3.65 24.55 3.65 22.8 3.25 21.5 2.9 19.2 2.2 Q17.05 1.4 16.4 0.1" fill="none" stroke="#fdff26" stroke-linecap="round" stroke-linejoin="round" stroke-width="1.5"/>
      <path d="M20.5 -3.0 L20.35 -4.3 M22.8 7.85 L24.45 12.7 M21.5 2.9 L22.55 7.1 22.8 7.85" fill="none" stroke="#e653df" stroke-linecap="round" stroke-linejoin="round" stroke-width="1.5"/>
      <path d="M40.05 -0.55 Q39.6 -1.5 39.5 -2.4 L39.5 -2.5 Q40.2 -3.5 41.35 -4.3 M40.15 -0.25 L40.05 -0.55 M44.2 -0.1 Q42.5 -2.2 44.05 -4.3 M45.65 3.85 L46.15 4.4 48.25 6.25 48.45 6.55 48.9 6.95 46.3 10.8 44.6 12.75 44.55 12.8 41.25 16.15 39.75 17.4 40.3 17.5 40.6 17.5 43.6 17.2 44.75 16.85 45.3 16.65 46.4 16.15 46.35 16.45 46.1 17.25 45.55 18.7 42.4 20.25 42.35 20.3 42.15 20.4 Q41.3 20.8 40.8 21.3 40.1 21.9 40.0 22.5 L39.95 22.75 39.85 22.8 39.6 22.9 38.5 23.3 38.3 23.35 37.35 23.75 34.7 24.65 33.4 25.1 33.1 25.2 32.95 25.3 32.5 25.45 Q32.15 24.4 32.15 22.95 L32.3 21.95 32.65 19.95 33.95 18.65 35.8 16.55 36.25 16.05 39.3 11.75 39.8 10.9 40.9 8.65 41.35 7.45 41.9 5.4 42.05 3.45 41.8 2.5 41.6 2.25 41.55 2.2 40.7 0.9 40.15 -0.25 M45.65 3.85 Q44.7 2.65 45.35 1.0 L44.2 -0.1" fill="none" stroke="#ffff1d" stroke-linecap="round" stroke-linejoin="round" stroke-width="1.5"/>
      <path d="M57.35 0.35 Q59.6 -2.0 61.25 -4.3 M61.35 2.9 Q59.85 4.2 58.5 5.9 L56.85 8.15 56.35 8.95 52.4 11.45 50.65 12.55 46.35 15.4 43.6 17.2 M50.6 -4.3 L49.95 -3.4 49.0 -2.0 47.8 0.0 46.75 1.95 45.65 3.85 M48.6 6.35 L49.0 5.75 51.1 2.1 51.55 2.6 52.2 3.4 52.35 3.6 53.05 4.65 54.05 3.7 54.5 3.25 55.45 2.25 56.0 1.65 57.3 0.4 57.35 0.35 M48.45 6.55 L48.6 6.35" fill="none" stroke="#e459fc" stroke-linecap="round" stroke-linejoin="round" stroke-width="1.5"/>
      <path d="M56.85 8.15 L56.15 10.6 55.3 12.65 55.0 13.3 53.4 15.75 51.95 17.25 51.9 17.25 50.75 17.95 50.65 18.0 49.8 18.5 Q48.3 19.4 47.25 20.3 L46.75 20.75 46.3 21.25 46.05 21.5" fill="none" stroke="#3d061b" stroke-linecap="round" stroke-linejoin="round" stroke-width="1.0"/>
      <path d="M49.0 -2.0 Q48.85 0.25 48.3 2.5 L48.25 2.75 48.15 3.3 48.0 3.8" fill="none" stroke="#430032" stroke-linecap="round" stroke-linejoin="round" stroke-width="1.0"/>
      <path d="M48.05 4.0 Q48.1 5.45 48.6 6.35 M48.0 3.8 L48.05 4.0" fill="none" stroke="#5d0a3c" stroke-linecap="round" stroke-linejoin="round" stroke-width="1.0"/>
      <path d="M51.95 18.8 L54.15 18.45 58.5 18.25 61.35 18.4 M49.95 -3.4 L51.75 1.6 48.25 3.85 48.2 3.9 48.05 4.0" fill="none" stroke="#3e0034" stroke-linecap="round" stroke-linejoin="round" stroke-width="1.5"/>
      <path d="M43.5 22.6 L43.65 22.5 43.75 22.4 44.8 21.85 Q45.4 21.55 45.95 21.5 M42.6 23.4 L42.45 23.55 42.35 23.75 42.7 24.6 42.8 24.8 43.25 25.95 43.35 26.5 43.4 26.65 43.5 27.55 43.5 27.95 M43.35 29.05 L43.25 29.35 43.2 29.65" fill="none" stroke="#f4251f" stroke-linecap="round" stroke-linejoin="round" stroke-width="1.0"/>
      <path d="M49.2 20.6 L49.55 20.5 55.4 19.95 56.2 20.05 57.4 20.1 58.3 20.2 59.8 20.35 60.05 20.45 M45.95 21.5 L46.05 21.5 46.85 21.2 49.2 20.6 M42.6 23.4 L42.55 23.1 43.5 22.6 44.15 22.3 45.95 21.5 M43.55 25.95 L43.1 25.2 Q42.7 24.45 42.6 23.4" fill="none" stroke="#c52702" stroke-linecap="round" stroke-linejoin="round" stroke-width="1.0"/>
      <path d="M55.65 -4.3 L57.35 0.35 M56.15 10.6 L57.05 15.35 Q55.0 16.6 53.85 17.4 L53.15 17.8 51.95 17.25" fill="none" stroke="#2a0852" stroke-linecap="round" stroke-linejoin="round" stroke-width="1.5"/>
      <path d="M49.55 20.5 L50.75 19.55 51.95 18.8 M55.05 41.45 L54.2 41.3 52.3 40.95 Q48.6 39.95 48.6 38.0 L48.7 37.15 M57.3 28.9 L55.3 28.85 53.95 28.6 52.15 28.1 54.05 26.6 56.35 25.2 M52.95 33.3 L53.6 32.75 54.5 32.2 Q56.3 31.15 57.65 31.15 M55.15 41.45 L58.95 41.95 M55.05 41.45 L55.15 41.45" fill="none" stroke="#92fffe" stroke-linecap="round" stroke-linejoin="round" stroke-width="1.5"/>
      <path d="M50.75 17.95 L49.2 20.6 M5.1 29.85 L6.3 30.25 M4.35 29.55 L5.1 29.85" fill="none" stroke="#400549" stroke-linecap="round" stroke-linejoin="round" stroke-width="1.5"/>
      <path d="M48.7 37.15 L47.75 37.7 46.7 38.15 M60.05 20.45 L61.35 21.0 M59.4 27.1 L59.6 27.75 M58.5 30.25 L58.75 29.4 59.4 27.1 59.4 26.95 58.75 26.15 58.65 26.1 Q58.2 25.7 57.6 25.5 L56.35 25.2 55.65 25.2 52.05 25.75 51.75 25.8 50.8 26.2 Q49.15 26.85 49.1 27.9 L49.55 27.95 Q51.0 28.1 52.1 29.25 L52.6 29.8 Q53.4 30.9 53.7 32.05 L52.95 33.3 52.0 34.4 51.6 34.85 Q50.4 36.05 49.05 36.9 L48.7 37.15 M58.5 30.25 L58.25 30.8 Q59.75 30.15 61.0 29.1 L61.35 28.8" fill="none" stroke="#620027" stroke-linecap="round" stroke-linejoin="round" stroke-width="1.0"/>
      <path d="M59.4 26.95 L59.05 27.05 56.5 27.95 Q56.65 28.5 57.3 28.9" fill="none" stroke="#400a3b" stroke-linecap="round" stroke-linejoin="round" stroke-width="1.5"/>
      <path d="M57.65 31.15 L57.75 31.0 58.5 30.25 M56.85 33.0 L55.45 32.75 Q54.8 32.55 54.5 32.2 M53.85 35.15 L54.35 35.3 56.45 35.5 58.2 35.45 58.6 35.4 58.65 35.4 58.8 35.4 58.95 35.4 59.05 35.4 61.35 35.0 M52.0 34.4 L53.85 35.15 M56.85 33.0 L57.45 33.0 Q59.3 33.0 61.25 32.4 L61.35 32.4 M58.95 41.95 L61.35 42.15" fill="none" stroke="#670005" stroke-linecap="round" stroke-linejoin="round" stroke-width="1.5"/>
      <path d="M59.2 36.75 L59.1 36.65 Q58.35 36.05 58.2 35.45 M61.35 37.65 L60.8 37.55 Q59.9 37.25 59.2 36.75" fill="none" stroke="#421430" stroke-linecap="round" stroke-linejoin="round" stroke-width="1.5"/>
      <path d="M43.5 27.95 L43.55 27.0 43.55 25.95 M41.6 30.95 L41.6 31.0 41.1 31.25 39.9 31.95 39.0 32.3 36.65 32.7 35.95 32.65 35.25 34.05 M43.2 29.65 L43.3 29.55 43.35 29.05 43.35 28.95 43.4 28.6 43.5 27.95 M41.6 30.95 L42.2 30.45 43.2 29.65" fill="none" stroke="#e32f0c" stroke-linecap="round" stroke-linejoin="round" stroke-width="1.0"/>
      <path d="M39.4 38.45 Q36.35 39.75 33.7 39.75 L33.6 39.75 32.3 39.65 M39.75 29.95 L40.7 29.5 40.95 29.8 41.6 31.0" fill="none" stroke="#431434" stroke-linecap="round" stroke-linejoin="round" stroke-width="1.0"/>
      <path d="M46.7 38.15 L46.5 38.25 42.8 38.85 42.0 38.85 40.95 38.8 39.4 38.45 38.1 37.85 37.85 37.7 37.45 37.45 36.65 36.7 35.9 35.65 M35.3 34.25 L35.25 34.05" fill="none" stroke="#821d11" stroke-linecap="round" stroke-linejoin="round" stroke-width="1.0"/>
      <path d="M61.35 47.85 L61.15 47.9 60.6 48.05 60.4 48.1 Q57.7 49.05 55.8 50.3 55.15 50.7 54.6 51.25 L54.05 51.4 53.8 51.45 Q52.6 51.8 51.5 52.5 50.65 52.9 49.9 53.45 L49.75 53.55 Q47.85 54.9 46.8 57.3 M45.1 57.3 Q44.75 55.4 44.75 53.65 44.9 49.5 45.4 47.85 L45.45 47.75 45.65 47.15 46.4 45.45 46.5 45.25 46.75 45.35 52.1 45.75 54.7 45.65 56.0 45.55 56.45 45.5 58.7 45.2 61.05 44.6 61.2 44.55 61.35 44.5" fill="none" stroke="#d608e7" stroke-linecap="round" stroke-linejoin="round" stroke-width="1.5"/>
      <path d="M56.0 45.55 L55.7 45.45 Q53.7 44.9 53.7 43.25 53.7 42.5 54.35 41.9 L54.7 41.65 Q54.9 41.5 55.05 41.45 L55.3 41.3" fill="none" stroke="#6f0400" stroke-linecap="round" stroke-linejoin="round" stroke-width="1.5"/>
      <path d="M18.75 17.25 Q18.55 17.9 18.5 18.6 L18.45 19.2 18.5 19.85 Q18.65 22.9 20.25 24.35 21.45 25.35 23.0 25.35 24.95 25.35 26.35 24.55 L26.5 24.45 27.25 23.9" fill="none" stroke="#df184f" stroke-linecap="round" stroke-linejoin="round" stroke-width="1.5"/>
      <path d="M37.75 20.95 L37.85 20.95 Q38.05 21.0 38.05 21.55 L38.0 21.85 37.9 22.0 37.4 22.5 Q37.25 22.3 37.25 21.8 L37.3 21.45 37.3 21.3 37.3 21.25 37.55 21.0 37.75 20.95" fill="none" stroke="#ffff1d" stroke-linecap="round" stroke-linejoin="round" stroke-width="0.1"/>
      <path d="M37.35 23.75 L37.3 24.05 36.85 25.4 Q36.05 27.2 34.5 27.2 L33.5 26.55 Q33.1 26.05 32.95 25.3" fill="none" stroke="#f6116e" stroke-linecap="round" stroke-linejoin="round" stroke-width="1.5"/>
      <path d="M38.5 23.3 L38.35 23.6" fill="none" stroke="#a61103" stroke-linecap="round" stroke-linejoin="round" stroke-width="1.0"/>
      <path d="M-1.6 14.45 L-1.65 15.1 M-1.65 15.15 L-1.6 15.75 -1.05 17.45 -0.9 17.7 -0.4 18.4 0.0 18.85 0.6 19.4 Q1.6 20.2 2.9 20.65 4.8 21.4 8.05 21.75 L8.75 21.85 10.05 21.95 10.45 21.95 10.5 22.0 11.05 22.25 12.1 22.8 13.0 23.45 13.15 23.6 Q14.45 24.6 15.45 26.35 L15.8 27.0 M10.0 28.3 L11.4 27.75 13.5 27.25 13.95 27.15 14.05 27.15 14.85 27.1 15.15 27.1 15.6 27.05 M6.3 28.8 L6.2 28.85 4.35 29.55 2.95 30.0 2.8 30.0 -0.3 30.45 -1.35 30.5 -2.05 30.5 M10.0 28.3 L6.3 28.8" fill="none" stroke="#de0301" stroke-linecap="round" stroke-linejoin="round" stroke-width="1.5"/>
      <path d="M26.15 30.3 L26.25 30.25 28.05 29.6 30.65 28.8 Q31.5 29.7 31.85 31.35 L31.95 31.65 32.2 33.5 32.2 34.2 32.2 34.75 M34.7 33.2 L34.75 33.15 35.3 34.25 35.35 34.4 35.9 35.6 M14.8 27.4 L15.4 27.3 17.15 26.9 17.75 28.3 18.55 30.35 M19.15 31.25 Q19.75 30.95 20.65 30.55 L21.9 30.1 22.5 31.95 22.6 31.85 22.85 31.75 23.0 31.65 Q24.1 31.1 25.85 30.4 L26.15 30.3 M14.8 27.4 L13.7 27.65 11.5 28.3 11.3 28.3 11.1 28.35 11.0 28.35 M33.25 33.95 Q33.35 33.8 33.95 33.55 34.25 33.35 34.7 33.2" fill="none" stroke="#ee121e" stroke-linecap="round" stroke-linejoin="round" stroke-width="1.0"/>
      <path d="M27.5 49.35 L25.35 50.6 22.25 49.8 22.0 49.7 20.25 48.95 19.75 48.6 17.75 47.2 17.5 47.0 16.4 46.05 15.5 45.15 Q14.6 44.25 13.85 43.15 L13.15 42.25 12.7 41.5 Q13.3 39.25 13.3 37.45 L13.25 36.1 12.9 34.85 Q12.3 33.3 11.0 32.45 9.95 31.75 8.45 31.45 L6.7 31.25 6.3 30.25 5.95 29.45 6.15 29.35 7.05 29.15 10.95 28.4 11.0 28.35" fill="none" stroke="#ed0f1c" stroke-linecap="round" stroke-linejoin="round" stroke-width="1.0"/>
      <path d="M11.4 27.95 L11.0 28.35" fill="none" stroke="#c90513" stroke-linecap="round" stroke-linejoin="round" stroke-width="1.0"/>
      <path d="M7.05 29.15 L6.6 28.95 6.3 28.8" fill="none" stroke="#6b012a" stroke-linecap="round" stroke-linejoin="round" stroke-width="1.0"/>
      <path d="M35.7 37.8 L35.9 35.65 35.9 35.6" fill="none" stroke="#ed215c" stroke-linecap="round" stroke-linejoin="round" stroke-width="1.0"/>
      <path d="M32.3 39.65 L31.55 40.4 31.25 40.7 29.9 42.25 29.75 42.5 29.75 42.55 M34.6 38.05 L35.1 37.9 35.2 37.9 35.7 37.8 M34.6 38.05 L33.3 38.55 33.2 38.7 32.5 39.4 32.3 39.65" fill="none" stroke="#400b13" stroke-linecap="round" stroke-linejoin="round" stroke-width="1.0"/>
      <path d="M29.75 42.55 Q28.85 43.85 28.25 45.75 L28.05 46.65 27.8 47.6 27.55 49.05 27.5 49.35" fill="none" stroke="#211334" stroke-linecap="round" stroke-linejoin="round" stroke-width="1.0"/>
      <path d="M19.75 48.6 L18.2 51.45 16.65 53.3 15.35 54.6 14.25 55.4 11.6 57.15 11.3 57.3" fill="none" stroke="#d700f8" stroke-linecap="round" stroke-linejoin="round" stroke-width="1.5"/>
      <path d="M-1.5 13.95 L-1.6 14.45 M-1.65 15.1 L-1.65 15.15 M-2.05 4.8 Q-1.0 5.15 -0.4 5.75 0.4 6.65 0.4 7.85 L-0.05 9.85 -0.7 11.3 -0.7 11.4 -1.1 12.5 -1.2 12.8 -1.25 12.85 -1.25 13.05 -1.35 13.2 -1.5 13.95" fill="none" stroke="#9b0019" stroke-linecap="round" stroke-linejoin="round" stroke-width="1.5"/>
    </g>
    <g id="shape2" transform="matrix(1.0, 0.0, 0.0, 1.0, 0.0, 0.0)">
      <path d="M50.5 0.0 Q53.95 0.0 53.95 3.3 L53.95 50.15 Q53.95 53.4 50.5 53.4 L3.3 53.4 Q0.0 53.4 0.0 50.15 L0.0 3.3 Q0.0 0.0 3.3 0.0 L50.5 0.0" fill="#000000" fill-opacity="0.003921569" fill-rule="evenodd" stroke="none"/>
    </g>
  </defs>
</svg>
