<?xml version="1.0" encoding="UTF-8" standalone="no"?>
<svg xmlns:ffdec="https://www.free-decompiler.com/flash" xmlns:xlink="http://www.w3.org/1999/xlink" ffdec:objectType="frame" height="59.1px" width="56.5px" xmlns="http://www.w3.org/2000/svg">
  <g transform="matrix(1.0, 0.0, 0.0, 1.0, 1.25, 4.2)">
    <clipPath id="clipPath0" transform="matrix(1.0, 0.0, 0.0, 1.0, 0.0, 0.0)">
      <path d="M50.5 0.0 Q53.95 0.0 53.95 3.3 L53.95 50.15 Q53.95 53.4 50.5 53.4 L3.3 53.4 Q0.0 53.4 0.0 50.15 L0.0 3.3 Q0.0 0.0 3.3 0.0 L50.5 0.0" fill="#000000" fill-rule="evenodd" stroke="none"/>
    </clipPath>
    <g clip-path="url(#clipPath0)">
      <use ffdec:characterId="2" height="55.8" transform="matrix(1.0, 0.0, 0.0, 1.0, -1.25, -0.9)" width="56.15" xlink:href="#shape1"/>
      <filter id="filter0">
        <feConvolveMatrix divisor="100.0" in="SourceGraphic" kernelMatrix="1 1 1 1 1 1 1 1 1 1 1 1 1 1 1 1 1 1 1 1 1 1 1 1 1 1 1 1 1 1 1 1 1 1 1 1 1 1 1 1 1 1 1 1 1 1 1 1 1 1 1 1 1 1 1 1 1 1 1 1 1 1 1 1 1 1 1 1 1 1 1 1 1 1 1 1 1 1 1 1 1 1 1 1 1 1 1 1 1 1 1 1 1 1 1 1 1 1 1 1" order="10 10" result="filterResult0"/>
      </filter>
      <use ffdec:characterId="4" filter="url(#filter0)" height="3.9" style="mix-blend-mode: overlay" transform="matrix(0.8788, 0.0, 0.0, 0.8788, 31.3382, 50.25)" width="3.15" xlink:href="#sprite0"/>
      <use ffdec:characterId="5" height="22.25" transform="matrix(1.0, 0.0, 0.0, 1.0, 41.95, 32.25)" width="13.3" xlink:href="#shape3"/>
      <filter id="filter1">
        <feColorMatrix in="SourceGraphic" result="filterResult1" type="matrix" values="0 0 0 0 0.4,0 0 0 0 0.0,0 0 0 0 1.0,0 0 0 1 0"/>
        <feConvolveMatrix divisor="25.0" in="filterResult1" kernelMatrix="1 1 1 1 1 1 1 1 1 1 1 1 1 1 1 1 1 1 1 1 1 1 1 1 1" order="5 5" result="filterResult2"/>
        <feComposite in="SourceGraphic" in2="filterResult2" operator="over" result="filterResult3"/>
      </filter>
      <use ffdec:characterId="7" filter="url(#filter1)" height="45.75" transform="matrix(0.4645, 0.1008, 0.0, 0.5523, 50.4, -4.1588)" width="7.75" xlink:href="#sprite1"/>
      <filter id="filter2">
        <feConvolveMatrix divisor="400.0" in="SourceGraphic" kernelMatrix="1 1 1 1 1 1 1 1 1 1 1 1 1 1 1 1 1 1 1 1 1 1 1 1 1 1 1 1 1 1 1 1 1 1 1 1 1 1 1 1 1 1 1 1 1 1 1 1 1 1 1 1 1 1 1 1 1 1 1 1 1 1 1 1 1 1 1 1 1 1 1 1 1 1 1 1 1 1 1 1 1 1 1 1 1 1 1 1 1 1 1 1 1 1 1 1 1 1 1 1 1 1 1 1 1 1 1 1 1 1 1 1 1 1 1 1 1 1 1 1 1 1 1 1 1 1 1 1 1 1 1 1 1 1 1 1 1 1 1 1 1 1 1 1 1 1 1 1 1 1 1 1 1 1 1 1 1 1 1 1 1 1 1 1 1 1 1 1 1 1 1 1 1 1 1 1 1 1 1 1 1 1 1 1 1 1 1 1 1 1 1 1 1 1 1 1 1 1 1 1 1 1 1 1 1 1 1 1 1 1 1 1 1 1 1 1 1 1 1 1 1 1 1 1 1 1 1 1 1 1 1 1 1 1 1 1 1 1 1 1 1 1 1 1 1 1 1 1 1 1 1 1 1 1 1 1 1 1 1 1 1 1 1 1 1 1 1 1 1 1 1 1 1 1 1 1 1 1 1 1 1 1 1 1 1 1 1 1 1 1 1 1 1 1 1 1 1 1 1 1 1 1 1 1 1 1 1 1 1 1 1 1 1 1 1 1 1 1 1 1 1 1 1 1 1 1 1 1 1 1 1 1 1 1 1 1 1 1 1 1 1 1 1 1 1 1 1 1 1 1 1 1 1 1 1 1 1 1 1 1 1 1 1 1 1 1 1 1 1 1 1 1 1 1 1 1 1 1 1 1 1 1 1 1 1 1 1 1 1 1 1 1 1 1 1 1 1 1 1 1" order="20 20" result="filterResult4"/>
      </filter>
      <use ffdec:characterId="9" filter="url(#filter2)" height="28.6" transform="matrix(0.4914, 0.1066, 0.0, 0.5845, 50.4, -1.2966)" width="8.1" xlink:href="#sprite2"/>
      <use ffdec:characterId="10" height="26.45" transform="matrix(1.0, 0.0, 0.0, 1.0, 25.3, -0.95)" width="29.2" xlink:href="#shape6"/>
      <filter id="filter3">
        <feColorMatrix in="SourceGraphic" result="filterResult5" type="matrix" values="0 0 0 0 0.8,0 0 0 0 0.4,0 0 0 0 1.0,0 0 0 1 0"/>
        <feConvolveMatrix divisor="25.0" in="filterResult5" kernelMatrix="1 1 1 1 1 1 1 1 1 1 1 1 1 1 1 1 1 1 1 1 1 1 1 1 1" order="5 5" result="filterResult6"/>
        <feComposite in="SourceGraphic" in2="filterResult6" operator="over" result="filterResult7"/>
      </filter>
      <use ffdec:characterId="12" filter="url(#filter3)" height="78.4" transform="matrix(0.4645, 0.1008, 0.0, 0.5523, 33.8323, -4.1861)" width="45.05" xlink:href="#sprite3"/>
      <filter id="filter4">
        <feConvolveMatrix divisor="64.0" in="SourceGraphic" kernelMatrix="1 1 1 1 1 1 1 1 1 1 1 1 1 1 1 1 1 1 1 1 1 1 1 1 1 1 1 1 1 1 1 1 1 1 1 1 1 1 1 1 1 1 1 1 1 1 1 1 1 1 1 1 1 1 1 1 1 1 1 1 1 1 1 1" order="8 8" result="filterResult8"/>
        <feColorMatrix in="filterResult8" result="filterResult9" type="matrix" values="0 0 0 0 0.8,0 0 0 0 0.4,0 0 0 0 1.0,0 0 0 1 0"/>
        <feConvolveMatrix divisor="25.0" in="filterResult9" kernelMatrix="1 1 1 1 1 1 1 1 1 1 1 1 1 1 1 1 1 1 1 1 1 1 1 1 1" order="5 5" result="filterResult10"/>
        <feComposite in="filterResult8" in2="filterResult10" operator="over" result="filterResult11"/>
      </filter>
      <use ffdec:characterId="12" filter="url(#filter4)" height="78.4" transform="matrix(0.4645, 0.1008, 0.0, 0.5523, 33.8323, -4.1861)" width="45.05" xlink:href="#sprite3"/>
    </g>
    <use ffdec:characterId="13" height="53.4" transform="matrix(1.0, 0.0, 0.0, 1.0, 0.0, 0.0)" width="53.95" xlink:href="#shape8"/>
  </g>
  <defs>
    <g id="shape1" transform="matrix(1.0, 0.0, 0.0, 1.0, 1.25, 0.9)">
      <path d="M-0.75 21.3 Q1.5 20.3 3.95 19.45 L10.1 17.1 16.7 24.15 1.65 46.65 -0.75 46.7 -0.75 21.3" fill="#1d1c20" fill-rule="evenodd" stroke="none"/>
      <path d="M-0.75 21.3 Q1.5 20.3 3.95 19.45 L10.1 17.1 16.7 24.15 1.65 46.65 -0.75 46.7" fill="none" stroke="#230e0d" stroke-linecap="round" stroke-linejoin="round" stroke-width="1.0"/>
      <path d="M32.85 39.15 L31.7 38.6 31.4 38.45 31.4 37.75 Q31.4 36.65 29.5 35.9 L30.3 37.4 30.25 37.4 27.05 36.75 22.8 36.35 Q21.75 36.35 21.35 36.75 20.9 37.2 21.0 38.25 L18.25 35.25 17.9 37.55 Q17.5 39.2 17.5 42.15 L17.5 43.0 17.55 43.15 17.95 44.3 17.55 44.1 17.0 43.85 14.3 42.3 Q8.95 34.5 7.8 33.9 L18.35 23.9 34.7 36.15 32.85 39.15" fill="#97abaa" fill-rule="evenodd" stroke="none"/>
      <path d="M17.95 44.3 L17.55 43.15 17.5 43.0 17.5 42.15 Q17.5 39.2 17.9 37.55 L18.25 35.25 21.0 38.25 Q20.9 37.2 21.35 36.75 21.75 36.35 22.8 36.35 L27.05 36.75 30.25 37.4 30.3 37.4 29.5 35.9 Q31.4 36.65 31.4 37.75 L31.4 38.45 31.7 38.6 32.85 39.15 32.75 39.15 31.9 43.55 27.65 48.05 18.95 44.8 18.35 44.5 17.95 44.3" fill="#ffffff" fill-rule="evenodd" stroke="none"/>
      <path d="M7.8 33.9 L7.45 34.2 M32.85 39.15 L34.7 36.15 18.35 23.9 7.8 33.9 Q8.95 34.5 14.3 42.3 L17.0 43.85 17.55 44.1 17.95 44.3 18.35 44.5 18.95 44.8 27.65 48.05 31.9 43.55 32.75 39.15 32.85 39.15 Z" fill="none" stroke="#230e0d" stroke-linecap="round" stroke-linejoin="round" stroke-width="1.0"/>
      <path d="M48.05 43.35 L48.6 42.75 50.5 54.4 49.7 54.4 Q49.1 51.05 48.05 43.35" fill="#4e5a6d" fill-rule="evenodd" stroke="none"/>
      <path d="M48.05 43.35 Q49.1 51.05 49.7 54.4 L39.5 54.4 40.0 52.0 48.05 43.35" fill="#424355" fill-rule="evenodd" stroke="none"/>
      <path d="M50.5 54.4 L48.6 42.75 48.05 43.35 40.0 52.0 39.5 54.4" fill="none" stroke="#230e0d" stroke-linecap="round" stroke-linejoin="round" stroke-width="1.0"/>
      <path d="M49.2 46.45 L49.25 46.55 Q49.45 50.05 48.05 50.6 L48.1 50.4 Q48.4 48.2 49.2 46.45" fill="#ffffff" fill-rule="evenodd" stroke="none"/>
      <path d="M46.9 48.7 L49.95 43.0 54.4 38.9 54.4 43.25 53.8 43.9 Q52.5 45.4 49.75 49.1 L48.6 50.6 48.0 52.35 47.3 54.0 46.55 54.0 46.75 50.8 46.9 48.7 M49.2 46.45 Q48.4 48.2 48.1 50.4 L48.05 50.6 Q49.45 50.05 49.25 46.55 L49.2 46.45" fill="#799fd9" fill-rule="evenodd" stroke="none"/>
      <path d="M47.3 54.0 L48.0 52.35 48.6 50.6 49.75 49.1 Q52.5 45.4 53.8 43.9 L54.4 43.25 54.4 43.9 Q51.45 47.6 48.25 53.1 L48.0 53.6 47.85 54.0 47.3 54.0 M52.8 49.25 L54.4 46.9 54.4 47.1 52.8 49.25" fill="#495568" fill-rule="evenodd" stroke="none"/>
      <path d="M50.05 54.0 L51.35 51.7 52.8 49.25 54.4 47.1 54.4 49.05 Q52.75 51.5 51.35 54.0 L50.05 54.0" fill="#1d1c20" fill-rule="evenodd" stroke="none"/>
      <path d="M46.9 48.7 L46.75 50.8 46.55 54.0 44.65 54.0 Q45.55 51.45 46.9 48.7 M54.4 43.9 L54.4 46.9 52.8 49.25 51.35 51.7 50.05 54.0 47.85 54.0 48.0 53.6 48.25 53.1 Q51.45 47.6 54.4 43.9" fill="#647ca1" fill-rule="evenodd" stroke="none"/>
      <path d="M54.4 38.9 L49.95 43.0 46.9 48.7 Q45.55 51.45 44.65 54.0 M54.4 49.05 Q52.75 51.5 51.35 54.0" fill="none" stroke="#230e0d" stroke-linecap="round" stroke-linejoin="round" stroke-width="1.0"/>
      <path d="M34.9 42.15 L37.7 37.8 41.75 39.25 42.9 41.45 46.4 42.15 48.75 46.55 47.1 53.65 23.35 53.65 11.65 46.2 10.65 45.75 Q3.5 43.15 -0.4 39.65 L-0.4 34.15 -0.25 34.1 0.3 35.7 18.9 41.7 Q24.95 43.4 34.9 42.15 L32.15 46.35 36.9 41.75 34.9 42.15 36.9 41.75 32.15 46.35 34.9 42.15 M3.15 53.65 L0.95 53.65 -0.4 52.95 -0.4 51.1 3.15 53.65" fill="#424355" fill-rule="evenodd" stroke="none"/>
      <path d="M-0.4 39.65 Q3.5 43.15 10.65 45.75 L11.65 46.2 23.35 53.65 3.15 53.65 -0.4 51.1 -0.4 39.65" fill="#617d92" fill-rule="evenodd" stroke="none"/>
      <path d="M-0.25 34.1 L-0.4 34.15 -0.4 33.35 -0.25 34.1 M-0.4 52.95 L0.95 53.65 -0.4 53.65 -0.4 52.95" fill="#4e5a6d" fill-rule="evenodd" stroke="none"/>
      <path d="M47.1 53.65 L48.75 46.55 46.4 42.15 42.9 41.45 41.75 39.25 37.7 37.8 34.9 42.15 36.9 41.75 32.15 46.35 34.9 42.15 Q24.95 43.4 18.9 41.7 L0.3 35.7 -0.25 34.1 -0.4 33.35" fill="none" stroke="#230e0d" stroke-linecap="round" stroke-linejoin="round" stroke-width="1.0"/>
      <path d="M46.45 10.05 L46.8 9.2 Q45.9 20.85 43.65 26.0 41.35 28.85 38.65 28.45 L38.15 28.35 39.25 24.05 40.55 25.45 41.1 25.8 Q40.65 26.7 40.05 27.0 L38.55 27.7 38.65 27.8 Q39.0 28.05 40.4 27.4 41.6 26.95 42.4 26.15 L43.25 25.7 43.65 25.25 43.8 24.75 45.15 19.8 Q45.85 16.15 46.45 10.05" fill="#6f8fa8" fill-rule="evenodd" stroke="none"/>
      <path d="M39.25 24.05 L39.4 23.35 Q41.65 24.45 43.7 20.45 44.6 18.05 45.15 13.7 L46.45 10.05 Q45.85 16.15 45.15 19.8 L43.8 24.75 43.65 25.25 43.25 25.7 42.4 26.15 Q41.6 26.95 40.4 27.4 39.0 28.05 38.65 27.8 L38.55 27.7 40.05 27.0 Q40.65 26.7 41.1 25.8 L40.55 25.45 39.25 24.05" fill="#9eb6e2" fill-rule="evenodd" stroke="none"/>
      <path d="M46.45 10.05 L46.8 9.2 Q45.9 20.85 43.65 26.0 41.35 28.85 38.65 28.45 L38.15 28.35 M39.4 23.35 Q41.65 24.45 43.7 20.45 44.6 18.05 45.15 13.7 L46.45 10.05" fill="none" stroke="#230e0d" stroke-linecap="round" stroke-linejoin="round" stroke-width="1.0"/>
      <path d="M34.4 5.85 Q34.55 5.15 34.85 4.6 L37.35 -0.4 38.85 -0.4 39.35 3.95 39.7 7.9 Q39.9 11.65 39.5 13.95 39.1 16.85 38.95 20.15 L38.85 21.1 39.0 21.4 39.0 21.8 39.0 23.35 Q38.4 27.55 36.1 32.55 L35.85 33.1 34.4 28.7 36.7 20.85 37.2 18.05 37.25 17.65 37.4 18.4 37.5 18.7 38.25 19.8 38.65 20.65 38.65 20.2 39.0 15.25 Q38.95 12.35 38.4 10.4 37.5 6.95 35.3 6.4 L34.55 6.25 34.45 6.3 34.4 5.85" fill="#495568" fill-rule="evenodd" stroke="none"/>
      <path d="M36.35 -0.4 L37.35 -0.4 34.85 4.6 Q34.55 5.15 34.4 5.85 L34.25 5.7 34.0 5.05 36.35 -0.4 M38.85 -0.4 L40.8 -0.4 41.5 3.7 Q41.35 3.55 41.2 3.55 L40.9 4.2 Q40.95 5.05 39.7 7.9 L39.35 3.95 38.85 -0.4 M42.1 19.9 Q39.75 28.45 36.55 34.95 L35.85 33.1 36.1 32.55 Q38.4 27.55 39.0 23.35 L39.0 21.8 39.2 23.85 39.35 23.9 41.75 20.45 42.1 19.9 M37.25 17.65 L36.75 15.25 Q36.2 11.6 35.4 9.1 L34.45 6.3 34.55 6.25 35.3 6.4 Q37.5 6.95 38.4 10.4 38.95 12.35 39.0 15.25 L38.65 20.2 38.65 20.65 38.25 19.8 37.5 18.7 37.4 18.4 37.25 17.65" fill="#647ca1" fill-rule="evenodd" stroke="none"/>
      <path d="M41.5 3.7 Q42.6 11.8 42.25 19.4 L42.25 19.5 42.1 19.9 41.75 20.45 39.35 23.9 39.2 23.85 39.0 21.8 39.0 21.4 38.85 21.1 38.95 20.15 Q39.1 16.85 39.5 13.95 39.9 11.65 39.7 7.9 40.95 5.05 40.9 4.2 L41.2 3.55 Q41.35 3.55 41.5 3.7 M40.15 20.7 L40.25 20.65 Q40.95 18.85 40.6 17.45 L40.45 17.45 Q38.15 19.65 40.15 20.7" fill="#799fd9" fill-rule="evenodd" stroke="none"/>
      <path d="M34.0 5.05 L34.25 5.7 34.4 5.85 34.45 6.3 35.4 9.1 Q36.2 11.6 36.75 15.25 L37.25 17.65 37.2 18.05 36.7 20.85 34.4 28.7 34.25 28.35 31.6 10.95 34.0 5.05" fill="#1d1c20" fill-rule="evenodd" stroke="none"/>
      <path d="M40.15 20.7 Q38.15 19.65 40.45 17.45 L40.6 17.45 Q40.95 18.85 40.25 20.65 L40.15 20.7" fill="#ffffff" fill-rule="evenodd" stroke="none"/>
      <path d="M36.35 -0.4 L34.0 5.05 31.6 10.95 34.25 28.35 34.4 28.7 35.85 33.1 36.55 34.95 Q39.75 28.45 42.1 19.9 L42.25 19.5 42.25 19.4 Q42.6 11.8 41.5 3.7 L40.8 -0.4" fill="none" stroke="#230e0d" stroke-linecap="round" stroke-linejoin="round" stroke-width="1.0"/>
      <path d="M18.65 27.1 L18.65 26.85 18.7 26.15 18.9 25.3 19.1 24.45 19.65 24.8 20.3 25.05 Q22.85 26.45 25.6 30.7 L27.75 34.5 27.45 34.55 26.75 34.1 25.8 33.6 25.15 32.75 23.35 34.55 21.85 34.2 21.7 34.05 21.7 33.7 21.65 33.5 21.85 33.35 Q22.6 32.65 22.6 31.95 22.6 31.35 21.95 30.25 L21.6 29.65 21.35 28.45 20.25 27.15 19.9 27.0 19.85 27.4 19.75 27.7 19.6 27.8 18.65 27.1" fill="#073b5d" fill-rule="evenodd" stroke="none"/>
      <path d="M27.45 34.55 L28.0 34.8 Q27.7 34.8 27.5 34.95 L26.55 35.1 24.65 35.2 23.7 35.1 22.85 35.0 22.2 34.95 22.05 34.95 20.95 34.65 20.45 34.65 Q20.2 34.65 20.0 34.95 L19.2 35.2 18.95 31.85 Q18.7 31.1 18.7 30.1 L18.65 29.7 18.6 29.0 18.6 28.7 18.5 28.0 18.6 27.8 18.65 27.1 19.6 27.8 19.75 27.7 19.85 27.4 19.9 27.0 20.25 27.15 21.35 28.45 21.6 29.65 21.6 29.7 21.65 30.0 21.7 30.35 21.4 29.85 21.05 29.05 21.0 29.0 20.9 29.25 20.9 29.2 20.5 30.25 Q20.3 30.95 20.25 31.8 L20.25 31.95 Q20.1 32.2 20.1 32.5 L20.05 33.5 20.05 33.8 19.9 33.5 19.75 32.65 19.65 31.1 19.65 30.7 20.0 28.6 20.1 27.8 19.75 27.7 19.75 27.85 19.75 28.05 19.6 28.6 Q19.3 30.55 19.4 31.85 L19.8 34.1 19.9 34.5 20.55 34.15 20.75 34.05 21.85 34.2 23.35 34.55 24.25 34.65 24.4 34.65 25.6 34.65 26.3 34.6 26.95 34.55 26.0 34.05 25.8 33.6 26.75 34.1 27.45 34.55" fill="#0c507c" fill-rule="evenodd" stroke="none"/>
      <path d="M21.6 29.65 L21.95 30.25 Q22.6 31.35 22.6 31.95 22.6 32.65 21.85 33.35 L21.65 33.5 21.7 33.7 21.7 34.05 21.85 34.2 20.75 34.05 20.55 34.15 19.9 34.5 19.8 34.1 20.05 33.85 20.05 33.8 20.05 33.5 20.1 33.5 Q20.55 33.65 21.25 33.15 22.05 32.5 22.05 31.95 22.05 30.35 20.9 30.1 20.6 30.1 20.5 30.25 L20.9 29.2 20.9 29.25 21.0 29.0 21.05 29.05 21.4 29.85 21.7 30.35 21.65 30.0 21.6 29.7 21.6 29.65 M23.35 34.55 L25.15 32.75 25.8 33.6 26.0 34.05 26.95 34.55 26.3 34.6 25.6 34.65 24.4 34.65 24.25 34.65 23.35 34.55 M19.75 27.7 L20.1 27.8 20.0 28.6 19.9 28.55 19.9 28.7 19.6 28.6 19.75 28.05 19.75 27.85 19.75 27.7" fill="#1491e2" fill-rule="evenodd" stroke="none"/>
      <path d="M19.65 31.1 L19.75 32.65 19.9 33.5 20.05 33.8 20.05 33.85 19.8 34.1 19.4 31.85 Q19.3 30.55 19.6 28.6 L19.9 28.7 19.8 28.7 Q19.2 30.1 19.65 31.1" fill="#43b5ff" fill-rule="evenodd" stroke="none"/>
      <path d="M20.0 28.6 L19.65 30.7 19.65 31.1 Q19.2 30.1 19.8 28.7 L19.9 28.7 19.9 28.55 20.0 28.6 M20.05 33.5 L20.1 32.5 Q20.1 32.2 20.25 31.95 L20.25 31.8 Q20.3 30.95 20.5 30.25 20.6 30.1 20.9 30.1 22.05 30.35 22.05 31.95 22.05 32.5 21.25 33.15 20.55 33.65 20.1 33.5 L20.05 33.5" fill="#ffffff" fill-rule="evenodd" stroke="none"/>
      <path d="M27.9 39.9 Q29.5 38.95 31.6 38.25 33.65 39.15 35.05 40.3 34.45 41.45 34.45 42.65 33.5 41.75 31.15 43.4 29.0 44.85 28.4 46.2 L27.9 39.9" fill="#617d92" fill-rule="evenodd" stroke="none"/>
      <path d="M35.05 40.3 Q36.1 41.25 36.8 42.45 L37.85 53.85 37.8 54.0 25.85 54.0 24.25 42.6 Q25.75 41.05 27.9 39.9 L28.4 46.2 Q29.0 44.85 31.15 43.4 33.5 41.75 34.45 42.65 34.45 41.45 35.05 40.3" fill="#4e5a6d" fill-rule="evenodd" stroke="none"/>
      <path d="M27.9 39.9 Q29.5 38.95 31.6 38.25 33.65 39.15 35.05 40.3 36.1 41.25 36.8 42.45 L37.85 53.85 37.8 54.0 M25.85 54.0 L24.25 42.6 Q25.75 41.05 27.9 39.9" fill="none" stroke="#230e0d" stroke-linecap="round" stroke-linejoin="round" stroke-width="1.0"/>
      <path d="M5.05 54.0 L5.7 52.5 9.7 49.35 Q12.4 46.9 19.55 42.85 L26.55 39.7 27.0 41.75 Q24.25 42.2 17.3 45.75 10.4 49.2 7.65 53.35 11.1 54.0 16.75 53.45 20.05 53.3 25.75 51.55 L26.0 51.55 26.1 52.15 26.6 54.0 26.1 54.0 25.8 52.15 22.7 53.05 17.9 54.0 6.45 54.0 6.15 53.9 6.1 54.0 5.05 54.0" fill="#4e5a6d" fill-rule="evenodd" stroke="none"/>
      <path d="M27.0 41.75 L28.4 50.85 28.9 54.0 26.6 54.0 26.1 52.15 26.0 51.55 25.75 51.55 Q20.05 53.3 16.75 53.45 11.1 54.0 7.65 53.35 10.4 49.2 17.3 45.75 24.25 42.2 27.0 41.75 M36.5 41.45 L38.05 43.8 Q37.85 44.3 37.8 44.95 L36.8 49.15 36.45 51.8 35.9 54.0 35.6 54.0 36.5 41.45" fill="#617d92" fill-rule="evenodd" stroke="none"/>
      <path d="M36.5 41.45 L35.6 54.0 34.6 54.0 36.05 40.8 36.5 41.45 M35.9 54.0 L36.45 51.8 36.8 49.15 37.8 44.95 Q37.85 44.3 38.05 43.8 L39.2 45.5 38.3 54.0 35.9 54.0" fill="#555869" fill-rule="evenodd" stroke="none"/>
      <path d="M26.1 54.0 L17.9 54.0 22.7 53.05 25.8 52.15 26.1 54.0 M6.45 54.0 L6.1 54.0 6.15 53.9 6.45 54.0" fill="#384250" fill-rule="evenodd" stroke="none"/>
      <path d="M5.05 54.0 L5.7 52.5 9.7 49.35 Q12.4 46.9 19.55 42.85 L26.55 39.7 27.0 41.75 28.4 50.85 28.9 54.0 M38.05 43.8 L36.5 41.45 36.05 40.8 34.6 54.0 M38.05 43.8 L39.2 45.5 38.3 54.0" fill="none" stroke="#230e0d" stroke-linecap="round" stroke-linejoin="round" stroke-width="1.0"/>
      <path d="M3.7 32.7 L4.05 31.3 9.05 23.45 18.6 25.95 18.8 29.85 10.05 45.2 Q8.3 49.75 6.95 54.0 L5.25 54.0 5.3 53.75 5.45 52.9 5.9 51.2 6.7 48.8 7.3 47.15 7.4 46.85 7.3 46.7 Q8.85 42.2 10.55 38.95 L12.2 36.25 12.4 35.95 12.5 35.75 12.8 35.2 12.5 35.7 12.55 35.3 Q12.95 33.6 12.95 32.25 L12.6 30.1 13.0 29.75 12.5 29.7 12.1 29.7 Q7.2 29.7 3.7 32.7" fill="#384250" fill-rule="evenodd" stroke="none"/>
      <path d="M3.7 32.7 Q7.2 29.7 12.1 29.7 L12.5 29.7 13.0 29.75 12.6 30.1 Q8.45 34.05 5.65 37.4 2.8 40.85 1.05 44.4 1.15 41.85 1.5 39.4 L3.7 32.7" fill="#4e5a6d" fill-rule="evenodd" stroke="none"/>
      <path d="M12.6 30.1 L12.95 32.25 Q12.95 33.6 12.55 35.3 L12.5 35.7 12.5 35.75 12.4 35.95 12.2 36.25 10.55 38.95 6.7 45.4 6.45 46.1 Q5.9 48.2 5.45 52.05 L5.3 53.6 5.3 53.75 5.25 54.0 1.7 54.0 Q0.9 49.0 1.05 44.4 2.8 40.85 5.65 37.4 8.45 34.05 12.6 30.1 M7.3 46.7 L7.4 46.85 7.3 47.15 7.25 47.1 Q7.15 46.9 7.3 46.65 L7.3 46.7" fill="#617d92" fill-rule="evenodd" stroke="none"/>
      <path d="M12.5 35.7 L12.8 35.2 12.5 35.75 12.5 35.7 M10.55 38.95 Q8.85 42.2 7.3 46.7 L7.3 46.65 Q7.15 46.9 7.25 47.1 L7.3 47.15 6.7 48.8 5.9 51.2 5.45 52.9 5.3 53.75 5.3 53.6 5.45 52.05 Q5.9 48.2 6.45 46.1 L6.7 45.4 10.55 38.95" fill="#a0afbc" fill-rule="evenodd" stroke="none"/>
      <path d="M9.05 23.45 L9.25 23.05 M18.6 25.95 L18.55 25.25 M6.95 54.0 Q8.3 49.75 10.05 45.2 L18.8 29.85 18.6 25.95 9.05 23.45 4.05 31.3 3.7 32.7 1.5 39.4 Q1.15 41.85 1.05 44.4 0.9 49.0 1.7 54.0" fill="none" stroke="#230e0d" stroke-linecap="round" stroke-linejoin="round" stroke-width="1.0"/>
      <path d="M21.85 9.75 L22.9 10.65 Q18.0 15.5 16.35 18.5 L15.35 20.5 15.35 20.6 Q15.35 24.45 20.1 27.6 22.15 29.0 24.85 30.1 L26.6 30.7 27.1 30.9 27.55 31.1 31.35 32.2 31.5 33.7 Q28.65 33.2 23.15 30.9 18.65 29.0 14.85 26.7 L13.95 26.05 12.7 25.45 12.0 25.05 9.55 23.9 4.1 21.6 5.95 19.4 7.55 16.85 5.25 14.45 Q7.45 12.95 12.8 10.75 17.95 8.6 20.3 8.5 L21.85 9.75" fill="#384250" fill-rule="evenodd" stroke="none"/>
      <path d="M21.85 9.75 L20.3 8.5 Q17.95 8.6 12.8 10.75 7.45 12.95 5.25 14.45 L7.55 16.85 5.95 19.4 4.1 21.6 9.55 23.9 12.0 25.05 12.7 25.45 13.95 26.05 14.85 26.7 Q18.65 29.0 23.15 30.9 28.65 33.2 31.5 33.7 L31.35 32.2 27.55 31.1 27.1 30.9 26.6 30.7 24.85 30.1 Q22.15 29.0 20.1 27.6 15.35 24.45 15.35 20.6 L15.35 20.5 16.35 18.5 Q18.0 15.5 22.9 10.65 L21.85 9.75 M31.6 13.75 Q28.55 14.7 24.6 18.75 L25.1 20.1 Q26.95 24.9 26.95 28.15 L26.95 28.5 27.1 28.35 Q29.75 26.2 32.2 24.75 34.7 23.2 38.0 22.0 38.55 25.45 37.5 30.1 L31.95 35.45 Q24.05 32.95 18.25 29.55 L2.2 21.4 6.05 16.45 2.9 14.65 Q10.0 9.45 19.15 6.3 21.95 7.4 24.7 8.95 28.2 10.9 31.6 13.75" fill="#4e5a6d" fill-rule="evenodd" stroke="none"/>
      <path d="M38.0 22.0 Q34.7 23.2 32.2 24.75 29.75 26.2 27.1 28.35 L26.95 28.5 26.95 28.15 Q26.95 24.9 25.1 20.1 L24.6 18.75 Q28.55 14.7 31.6 13.75 L37.4 19.4 38.0 22.0 M31.1 16.05 L30.8 16.2 Q30.7 16.2 30.65 16.3 L30.65 16.55 Q30.7 19.25 32.8 19.7 L32.85 19.5 Q33.3 17.0 31.1 16.05" fill="#617d92" fill-rule="evenodd" stroke="none"/>
      <path d="M31.1 16.05 Q33.3 17.0 32.85 19.5 L32.8 19.7 Q30.7 19.25 30.65 16.55 L30.65 16.3 Q30.7 16.2 30.8 16.2 L31.1 16.05" fill="#a0afbc" fill-rule="evenodd" stroke="none"/>
      <path d="M38.0 22.0 L37.4 19.4 31.6 13.75 Q28.2 10.9 24.7 8.95 21.95 7.4 19.15 6.3 10.0 9.45 2.9 14.65 L6.05 16.45 2.2 21.4 18.25 29.55 Q24.05 32.95 31.95 35.45 L37.5 30.1 Q38.55 25.45 38.0 22.0 Z" fill="none" stroke="#230e0d" stroke-linecap="round" stroke-linejoin="round" stroke-width="1.0"/>
      <path d="M35.65 19.25 L36.0 20.0 36.7 22.1 36.75 22.35 Q37.5 25.05 37.85 27.8 L37.9 28.15 37.95 28.6 38.0 29.15 37.85 30.15 Q36.55 34.75 34.2 38.35 L33.3 37.5 Q31.15 35.5 27.55 33.35 L27.25 33.15 30.25 28.5 31.25 29.15 Q34.65 31.3 36.15 32.9 L36.5 27.65 35.65 19.25" fill="#1d1c20" fill-rule="evenodd" stroke="none"/>
      <path d="M30.25 28.5 L35.55 18.8 35.65 19.25 36.5 27.65 36.15 32.9 Q34.65 31.3 31.25 29.15 L30.25 28.5" fill="#2b323c" fill-rule="evenodd" stroke="none"/>
      <path d="M37.95 28.6 L38.0 29.15 37.85 30.15 Q36.55 34.75 34.2 38.35 L33.3 37.5 Q31.15 35.5 27.55 33.35 L27.25 33.15" fill="none" stroke="#230e0d" stroke-linecap="round" stroke-linejoin="round" stroke-width="1.0"/>
      <path d="M0.0 16.9 L1.4 18.05 Q11.25 23.15 22.25 21.75 L22.3 21.75 23.1 22.65 16.7 24.35 16.55 24.35 14.15 24.9 Q16.1 26.05 19.25 26.45 L26.3 27.35 25.95 27.4 17.5 27.05 Q11.6 26.4 7.55 25.35 L3.5 24.8 1.65 24.2 0.8 23.5 0.0 22.85 0.0 16.9" fill="#9eb6e2" fill-rule="evenodd" stroke="none"/>
      <path d="M23.1 22.65 L28.4 28.15 25.85 28.3 Q12.85 28.8 1.65 25.1 L0.0 24.1 0.0 22.85 0.8 23.5 1.65 24.2 3.5 24.8 7.55 25.35 Q11.6 26.4 17.5 27.05 L25.95 27.4 26.3 27.35 19.25 26.45 Q16.1 26.05 14.15 24.9 L16.55 24.35 16.7 24.35 23.1 22.65" fill="#6f8fa8" fill-rule="evenodd" stroke="none"/>
      <path d="M0.0 16.9 L1.4 18.05 Q11.25 23.15 22.25 21.75 L22.3 21.75 M28.4 28.15 L25.85 28.3 Q12.85 28.8 1.65 25.1 L0.0 24.1" fill="none" stroke="#230e0d" stroke-linecap="round" stroke-linejoin="round" stroke-width="1.0"/>
      <path d="M17.5 0.0 L17.5 0.3 17.3 0.0 17.5 0.0 M24.7 14.8 L26.2 16.7 26.35 16.7 27.35 12.55 27.5 11.9 Q29.5 21.15 29.3 28.6 L27.45 26.9 27.45 26.3 Q27.45 20.65 25.6 16.25 L24.7 14.8 M10.2 0.0 L12.3 0.0 Q14.9 0.5 17.5 3.25 19.25 5.05 20.9 7.95 L23.5 13.15 23.75 13.6 22.55 12.75 21.1 11.8 20.85 11.65 20.15 10.85 18.2 8.5 13.0 2.7 10.2 0.0" fill="#647ca1" fill-rule="evenodd" stroke="none"/>
      <path d="M17.5 0.3 Q19.95 4.15 20.85 6.5 22.05 9.5 23.75 13.0 L24.2 14.05 Q24.35 14.05 24.45 14.2 L24.7 14.8 25.6 16.25 Q27.45 20.65 27.45 26.3 L27.45 26.9 23.05 22.9 Q21.9 15.75 21.4 14.3 L20.3 11.3 20.15 10.85 20.85 11.65 21.1 11.8 22.55 12.75 23.75 13.6 23.5 13.15 20.9 7.95 Q19.25 5.05 17.5 3.25 14.9 0.5 12.3 0.0 L17.3 0.0 17.5 0.3" fill="#495568" fill-rule="evenodd" stroke="none"/>
      <path d="M20.55 0.0 Q24.55 5.7 27.35 11.35 L27.45 11.55 27.5 11.9 27.35 12.55 26.35 16.7 26.2 16.7 24.7 14.8 24.45 14.2 Q24.35 14.05 24.2 14.05 L23.75 13.0 Q22.05 9.5 20.85 6.5 19.95 4.15 17.5 0.3 L17.5 0.0 20.55 0.0 M24.2 9.8 L24.0 9.9 Q22.4 12.7 25.6 13.25 L25.65 13.2 Q25.55 11.15 24.2 9.8" fill="#799fd9" fill-rule="evenodd" stroke="none"/>
      <path d="M24.2 9.8 Q25.55 11.15 25.65 13.2 L25.6 13.25 Q22.4 12.7 24.0 9.9 L24.2 9.8" fill="#ffffff" fill-rule="evenodd" stroke="none"/>
      <path d="M23.05 22.9 L22.6 22.5 9.3 5.6 8.95 0.0 10.2 0.0 13.0 2.7 18.2 8.5 20.15 10.85 20.3 11.3 21.4 14.3 Q21.9 15.75 23.05 22.9" fill="#1d1c20" fill-rule="evenodd" stroke="none"/>
      <path d="M27.5 11.9 L27.45 11.55 27.35 11.35 Q24.55 5.7 20.55 0.0 M27.5 11.9 Q29.5 21.15 29.3 28.6 M23.05 22.9 L22.6 22.5 9.3 5.6 8.95 0.0" fill="none" stroke="#230e0d" stroke-linecap="round" stroke-linejoin="round" stroke-width="1.0"/>
      <path d="M14.35 6.55 L15.85 8.1 18.2 12.25 18.85 13.6 Q20.9 17.8 22.25 23.15 L21.7 22.7 17.7 16.55 15.8 13.15 14.9 11.85 15.55 12.2 14.35 6.55" fill="#a88cee" fill-rule="evenodd" stroke="none"/>
      <path d="M14.35 6.55 L15.55 12.2 14.9 11.85 12.2 7.9 10.95 6.55 11.4 6.7 11.45 6.55 Q11.2 4.85 9.5 4.1 L9.4 4.15 9.5 5.05 4.5 0.0 6.1 0.0 Q10.7 3.15 14.35 6.55" fill="#edc9ff" fill-rule="evenodd" stroke="none"/>
      <path d="M9.5 5.05 L9.4 4.15 9.5 4.1 Q11.2 4.85 11.45 6.55 L11.4 6.7 10.95 6.55 Q9.75 6.05 9.5 5.05" fill="#ffffff" fill-rule="evenodd" stroke="none"/>
      <path d="M17.7 16.55 L21.7 22.7 7.9 10.7 6.35 10.9 3.25 0.0 4.3 0.0 5.4 4.45 Q6.55 9.05 6.95 9.75 L7.9 8.6 Q8.15 8.25 8.45 8.25 9.85 8.25 11.6 9.55 L11.65 9.65 12.8 10.6 Q14.95 12.6 17.7 16.55" fill="#6869bd" fill-rule="evenodd" stroke="none"/>
      <path d="M14.9 11.85 L15.8 13.15 17.7 16.55 Q14.95 12.6 12.8 10.6 L11.65 9.65 11.6 9.55 Q9.85 8.25 8.45 8.25 8.15 8.25 7.9 8.6 L6.95 9.75 Q6.55 9.05 5.4 4.45 L4.3 0.0 4.5 0.0 9.5 5.05 Q9.75 6.05 10.95 6.55 L12.2 7.9 14.9 11.85" fill="#4b4d7e" fill-rule="evenodd" stroke="none"/>
      <path d="M21.7 22.7 L22.25 23.15 Q20.9 17.8 18.85 13.6 L18.2 12.25 15.85 8.1 14.35 6.55 Q10.7 3.15 6.1 0.0 M21.7 22.7 L7.9 10.7 6.35 10.9 3.25 0.0" fill="none" stroke="#2f3664" stroke-linecap="round" stroke-linejoin="round" stroke-width="1.0"/>
      <path d="M31.3 53.65 L31.9 51.9 32.75 52.95 33.05 53.65 31.3 53.65" fill="#b554ff" fill-opacity="0.7294118" fill-rule="evenodd" stroke="none"/>
      <path d="M31.3 53.65 L30.15 53.65 31.9 48.8 34.05 53.65 33.05 53.65 32.75 52.95 31.9 51.9 31.3 53.65" fill="#6954ff" fill-opacity="0.7294118" fill-rule="evenodd" stroke="none"/>
      <path d="M16.2 54.0 L13.95 50.1 20.8 54.0 16.2 54.0" fill="#707d93" fill-rule="evenodd" stroke="none"/>
      <path d="M40.35 54.0 L41.85 51.75 41.4 54.0 40.35 54.0" fill="#48556b" fill-rule="evenodd" stroke="none"/>
      <path d="M16.2 54.0 L13.95 50.1 20.8 54.0 M40.35 54.0 L41.85 51.75 41.4 54.0" fill="none" stroke="#111f2c" stroke-linecap="round" stroke-linejoin="round" stroke-width="1.0"/>
    </g>
    <g id="sprite0" transform="matrix(1.0, 0.0, 0.0, 1.0, -6.7, 0.0)">
      <use ffdec:characterId="3" height="3.9" transform="matrix(1.0, 0.0, 0.0, 1.0, 6.7, 0.0)" width="3.15" xlink:href="#shape2"/>
    </g>
    <g id="shape2" transform="matrix(1.0, 0.0, 0.0, 1.0, -6.7, 0.0)">
      <path d="M7.95 3.9 L8.1 3.45 8.45 3.9 7.95 3.9" fill="#b554ff" fill-opacity="0.7294118" fill-rule="evenodd" stroke="none"/>
      <path d="M7.95 3.9 L6.7 3.9 8.1 0.0 9.85 3.9 8.45 3.9 8.1 3.45 7.95 3.9" fill="#6954ff" fill-opacity="0.7294118" fill-rule="evenodd" stroke="none"/>
    </g>
    <g id="shape3" transform="matrix(1.0, 0.0, 0.0, 1.0, -41.95, -32.25)">
      <path d="M53.45 54.0 L52.0 54.0 49.2 51.45 47.3 54.0 45.85 54.0 46.3 53.05 46.3 52.95 47.3 50.8 47.4 50.55 47.45 50.4 47.55 50.3 47.55 49.9 47.55 49.25 47.65 51.35 Q48.55 49.5 50.55 48.45 49.0 48.45 47.8 45.45 L47.4 44.55 47.15 42.85 46.95 42.0 46.7 40.45 45.7 36.1 45.95 35.8 49.65 44.4 51.55 48.65 49.1 49.5 51.25 51.5 52.5 52.75 52.5 52.9 52.65 53.2 53.45 54.0" fill="#a4a9cb" fill-rule="evenodd" stroke="none"/>
      <path d="M42.5 54.0 L42.45 51.9 44.55 40.55 45.1 32.75 46.45 35.2 Q48.75 39.65 51.15 46.45 L54.75 45.55 54.75 47.3 51.55 48.65 49.65 44.4 45.95 35.8 45.7 36.1 46.7 40.45 46.95 42.0 47.15 42.85 47.4 44.55 47.55 45.75 47.65 48.8 47.6 48.95 47.55 49.25 47.55 49.9 47.55 50.3 47.45 50.4 47.4 50.55 47.3 50.8 46.3 52.95 46.3 53.05 45.85 54.0 45.15 54.0 47.4 49.4 47.2 46.65 46.85 43.15 46.7 41.95 46.45 40.45 46.45 40.8 Q46.45 43.35 45.45 47.15 44.6 50.3 43.65 52.25 L44.4 52.15 Q44.8 52.15 45.25 52.45 L44.65 54.0 42.5 54.0" fill="#c7d4de" fill-rule="evenodd" stroke="none"/>
      <path d="M54.75 47.3 L54.75 54.0 53.85 54.0 52.5 52.75 51.25 51.5 49.1 49.5 51.55 48.65 54.75 47.3 M45.15 54.0 L44.65 54.0 45.25 52.45 Q44.8 52.15 44.4 52.15 L43.65 52.25 Q44.6 50.3 45.45 47.15 46.45 43.35 46.45 40.8 L46.45 40.45 46.7 41.95 46.85 43.15 47.2 46.65 47.4 49.4 45.15 54.0" fill="#ffffff" fill-rule="evenodd" stroke="none"/>
      <path d="M53.85 54.0 L53.45 54.0 52.65 53.2 52.5 52.9 52.5 52.75 53.85 54.0 M47.4 44.55 L47.8 45.45 Q49.0 48.45 50.55 48.45 48.55 49.5 47.65 51.35 L47.55 49.25 47.6 48.95 47.65 48.8 47.55 45.75 47.4 44.55" fill="#7a80a8" fill-rule="evenodd" stroke="none"/>
      <path d="M42.5 54.0 L42.45 51.9 44.55 40.55 45.1 32.75 46.45 35.2 Q48.75 39.65 51.15 46.45 L54.75 45.55 M52.0 54.0 L49.2 51.45 47.3 54.0" fill="none" stroke="#48565d" stroke-linecap="round" stroke-linejoin="round" stroke-width="1.0"/>
    </g>
    <g id="sprite1" transform="matrix(1.0, 0.0, 0.0, 1.0, 0.0, -2.7)">
      <use ffdec:characterId="6" height="45.75" transform="matrix(1.0, 0.0, 0.0, 1.0, 0.0, 2.7)" width="7.75" xlink:href="#shape4"/>
    </g>
    <g id="shape4" transform="matrix(1.0, 0.0, 0.0, 1.0, 0.0, -2.7)">
      <path d="M1.3 26.15 Q0.9 24.3 0.9 22.3 L0.9 22.1 Q0.0 16.45 0.0 11.65 0.0 6.65 0.8 4.3 1.0 3.6 1.7 2.7 L2.65 6.4 2.65 9.35 1.7 9.35 1.5 12.1 1.4 14.45 1.55 17.4 Q2.0 15.6 2.9 13.95 4.15 11.55 6.2 9.5 L7.75 8.1 7.75 8.4 6.7 9.5 6.65 9.55 6.55 9.65 Q4.2 11.8 2.9 15.2 2.2 17.0 1.8 19.3 L1.45 21.6 1.45 24.2 1.9 24.2 Q2.25 26.3 3.5 28.45 2.2 27.75 1.3 26.15 M7.75 10.85 L7.75 12.0 Q6.5 13.4 5.45 15.15 5.7 15.75 6.25 15.55 L6.3 15.6 Q6.0 15.9 6.0 16.35 5.95 17.05 6.6 17.25 7.35 17.1 7.65 16.6 L7.75 16.5 7.75 16.55 Q5.95 19.85 5.95 24.6 L5.95 25.7 Q4.05 23.6 4.05 21.4 4.05 16.9 5.75 12.65 L7.75 10.85 M7.75 26.95 L7.75 28.75 6.8 28.85 7.65 27.15 7.75 26.95" fill="#793da8" fill-rule="evenodd" stroke="none"/>
      <path d="M7.75 8.4 L7.75 10.85 5.75 12.65 Q4.05 16.9 4.05 21.4 4.05 23.6 5.95 25.7 L6.15 28.55 6.2 28.9 6.25 29.3 5.95 28.9 4.85 27.65 4.05 26.25 3.55 25.15 3.4 24.75 Q2.75 22.95 2.75 21.15 2.75 18.1 3.9 15.7 4.45 12.95 5.7 10.85 L6.55 9.65 6.65 9.55 6.7 9.5 7.75 8.4" fill="#282185" fill-rule="evenodd" stroke="none"/>
      <path d="M3.5 28.45 Q2.25 26.3 1.9 24.2 L1.45 24.2 1.45 21.6 1.8 19.3 Q2.2 17.0 2.9 15.2 4.2 11.8 6.55 9.65 L5.7 10.85 Q4.45 12.95 3.9 15.7 2.75 18.1 2.75 21.15 2.75 22.95 3.4 24.75 L3.55 25.15 4.05 26.25 4.85 27.65 5.95 28.9 6.25 29.3 6.2 28.9 6.15 28.55 6.5 28.9 6.7 29.05 6.5 29.35 5.55 31.4 4.2 29.65 3.5 28.45" fill="#7c72ff" fill-rule="evenodd" stroke="none"/>
      <path d="M7.75 12.0 L7.75 16.5 7.65 16.6 Q7.35 17.1 6.6 17.25 5.95 17.05 6.0 16.35 6.0 15.9 6.3 15.6 L6.25 15.55 Q5.7 15.75 5.45 15.15 6.5 13.4 7.75 12.0" fill="#f766ff" fill-rule="evenodd" stroke="none"/>
      <path d="M7.75 16.55 L7.75 26.95 7.65 27.15 6.8 28.85 6.7 29.05 6.5 28.9 6.15 28.55 5.95 25.7 5.95 24.6 Q5.95 19.85 7.75 16.55" fill="#69176d" fill-rule="evenodd" stroke="none"/>
      <path d="M7.75 28.75 L7.75 41.7 Q6.8 45.4 6.95 48.25 L6.95 48.45 4.85 41.3 Q3.8 37.9 3.7 35.55 L4.7 33.3 4.4 32.95 3.8 32.1 Q1.95 29.35 1.3 26.15 2.2 27.75 3.5 28.45 L4.2 29.65 5.55 31.4 6.5 29.35 6.7 29.05 6.8 28.85 7.75 28.75" fill="#0f1b66" fill-rule="evenodd" stroke="none"/>
    </g>
    <g id="sprite2" transform="matrix(1.0, 0.0, 0.0, 1.0, 0.0, -3.0)">
      <use ffdec:characterId="8" height="28.6" transform="matrix(1.0, 0.0, 0.0, 1.0, 0.0, 3.0)" width="8.1" xlink:href="#shape5"/>
    </g>
    <g id="shape5" transform="matrix(1.0, 0.0, 0.0, 1.0, 0.0, -3.0)">
      <path d="M7.6 3.1 L8.1 3.0 8.1 5.15 7.5 5.5 Q5.8 6.65 4.6 8.0 2.95 12.0 2.95 16.25 2.95 18.3 4.75 20.3 L4.95 23.0 5.05 23.7 Q3.75 22.3 3.0 20.85 1.75 18.5 1.75 16.0 1.75 13.15 2.8 10.85 3.35 8.3 4.55 6.3 L5.4 5.05 5.45 5.0 Q6.4 3.85 7.6 3.1 M8.1 9.3 L8.1 22.9 6.75 22.0 4.75 20.3 4.75 19.25 Q4.75 13.5 7.55 9.95 L8.1 9.3" fill="#efb6ff" fill-rule="evenodd" stroke="none"/>
      <path d="M7.6 3.1 Q6.4 3.85 5.45 5.0 L5.4 5.05 Q3.15 7.1 1.9 10.4 0.9 13.0 0.5 16.45 L0.5 18.9 0.95 18.9 Q1.75 23.55 6.65 28.0 L8.1 29.25 8.1 31.6 5.0 29.1 Q0.0 24.1 0.0 17.05 0.0 12.75 1.9 9.2 3.05 6.95 5.0 5.0 6.0 4.0 7.15 3.15 L7.6 3.1" fill="#2b40bf" fill-rule="evenodd" stroke="none"/>
      <path d="M4.95 23.0 L4.75 20.3 Q2.95 18.3 2.95 16.25 2.95 12.0 4.6 8.0 5.8 6.65 7.5 5.5 L8.1 5.15 8.1 9.3 7.55 9.95 Q4.75 13.5 4.75 19.25 L4.75 20.3 6.75 22.0 8.1 22.9 8.1 25.05 Q6.25 24.35 4.95 23.0" fill="#f1e0ff" fill-rule="evenodd" stroke="none"/>
      <path d="M5.4 5.05 L4.55 6.3 Q3.35 8.3 2.8 10.85 1.75 13.15 1.75 16.0 1.75 18.5 3.0 20.85 3.75 22.3 5.05 23.7 L4.95 23.0 Q6.25 24.35 8.1 25.05 L8.1 29.25 6.65 28.0 Q1.75 23.55 0.95 18.9 L0.5 18.9 0.5 16.45 Q0.9 13.0 1.9 10.4 3.15 7.1 5.4 5.05" fill="#7c72ff" fill-rule="evenodd" stroke="none"/>
    </g>
    <g id="shape6" transform="matrix(1.0, 0.0, 0.0, 1.0, -25.3, 0.95)">
      <path d="M32.4 -0.45 L37.1 0.7 38.45 1.05 38.8 1.1 Q55.7 5.1 37.65 0.3 L34.85 -0.45 38.35 -0.1 48.65 0.85 48.65 1.1 49.05 1.0 49.05 2.95 48.7 3.75 40.45 1.8 46.45 4.55 46.75 7.55 46.5 7.9 Q46.65 7.9 46.8 8.05 L46.9 8.1 Q47.85 8.75 48.2 9.55 L48.65 11.35 48.3 12.5 47.35 13.85 Q48.4 17.0 49.4 18.75 50.45 20.55 51.1 22.95 L51.1 23.05 52.55 14.1 53.2 10.45 53.65 10.9 51.95 20.8 51.2 24.85 46.45 13.65 47.55 12.4 47.85 11.05 Q47.0 8.65 45.85 8.4 L30.1 2.35 25.8 -0.45 32.4 -0.45" fill="url(#gradient0)" fill-rule="evenodd" stroke="none"/>
      <path d="M32.4 -0.45 L34.85 -0.45 37.65 0.3 Q55.7 5.1 38.8 1.1 L38.45 1.05 37.1 0.7 32.4 -0.45 M34.85 -0.45 L38.85 -0.45 38.35 -0.1 34.85 -0.45 M48.4 -0.45 L49.0 -0.45 49.0 0.75 48.95 0.6 48.6 0.05 48.6 -0.2 48.5 -0.35 48.4 -0.45" fill="url(#gradient1)" fill-rule="evenodd" stroke="none"/>
      <path d="M38.85 -0.45 L47.25 -0.45 47.15 -0.2 47.1 0.05 47.25 0.3 Q48.5 1.25 48.6 0.15 L48.7 0.25 48.95 0.6 49.0 0.75 49.05 1.0 48.65 1.1 48.65 0.85 38.35 -0.1 38.85 -0.45 M54.0 8.95 L54.0 9.9 53.35 9.5 53.2 9.65 53.2 10.25 47.45 6.4 47.9 5.9 49.15 4.75 54.0 8.95 M54.0 10.9 L54.0 12.55 51.95 20.8 53.65 10.9 54.0 10.9" fill="#eec2ff" fill-rule="evenodd" stroke="none"/>
      <path d="M47.25 -0.45 L48.4 -0.45 48.5 -0.35 48.6 -0.2 48.6 0.05 48.6 0.15 Q48.5 1.25 47.25 0.3 L47.1 0.05 47.15 -0.2 47.25 -0.45 M54.0 9.9 L54.0 10.9 53.65 10.9 53.2 10.45 53.2 10.25 53.2 9.65 53.35 9.5 54.0 9.9" fill="#ffffff" fill-rule="evenodd" stroke="none"/>
      <path d="M49.0 -0.45 L50.05 -0.45 49.8 4.55 54.0 8.4 54.0 8.95 49.15 4.75 47.9 5.9 48.7 3.75 49.05 2.95 49.05 1.0 49.0 0.75 49.0 -0.45" fill="#f2c2ff" fill-rule="evenodd" stroke="none"/>
      <path d="M53.2 10.45 L52.55 14.1 51.1 23.05 51.1 22.95 Q50.45 20.55 49.4 18.75 48.4 17.0 47.35 13.85 L48.3 12.5 48.65 11.35 48.2 9.55 Q47.85 8.75 46.9 8.1 L46.8 8.05 Q46.65 7.9 46.5 7.9 L46.75 7.55 46.45 4.55 40.45 1.8 48.7 3.75 47.9 5.9 47.45 6.4 53.2 10.25 53.2 10.45" fill="#7f5eaf" fill-rule="evenodd" stroke="none"/>
      <path d="M48.6 0.05 L48.95 0.6 48.7 0.25 48.6 0.15 48.6 0.05" fill="url(#gradient2)" fill-rule="evenodd" stroke="none"/>
      <path d="M54.0 12.55 L54.0 17.15 51.25 25.0 51.2 24.85 51.95 20.8 54.0 12.55" fill="#b191ff" fill-rule="evenodd" stroke="none"/>
      <path d="M50.05 -0.45 L49.8 4.55 54.0 8.4 M54.0 17.15 L51.25 25.0 51.2 24.85 46.45 13.65 47.55 12.4 47.85 11.05 Q47.0 8.65 45.85 8.4 L30.1 2.35 25.8 -0.45" fill="none" stroke="#372379" stroke-linecap="round" stroke-linejoin="round" stroke-width="1.0"/>
    </g>
    <linearGradient gradientTransform="matrix(0.0122, 0.0021, -8.0E-4, 0.0357, 39.35, -6.3)" gradientUnits="userSpaceOnUse" id="gradient0" spreadMethod="pad" x1="-819.2" x2="819.2">
      <stop offset="0.0" stop-color="#301748"/>
      <stop offset="1.0" stop-color="#9998ff"/>
    </linearGradient>
    <linearGradient gradientTransform="matrix(0.0292, 0.0048, -4.0E-4, 0.0227, 25.9, -18.75)" gradientUnits="userSpaceOnUse" id="gradient1" spreadMethod="pad" x1="-819.2" x2="819.2">
      <stop offset="0.0" stop-color="#321748"/>
      <stop offset="1.0" stop-color="#c68ad7"/>
    </linearGradient>
    <linearGradient gradientTransform="matrix(0.0292, 0.0048, -4.0E-4, 0.0227, 25.9, -18.75)" gradientUnits="userSpaceOnUse" id="gradient2" spreadMethod="pad" x1="-819.2" x2="819.2">
      <stop offset="0.0" stop-color="#172548"/>
      <stop offset="1.0" stop-color="#8aaad7"/>
    </linearGradient>
    <g id="sprite3" transform="matrix(1.0, 0.0, 0.0, 1.0, -0.5, -23.2)">
      <use ffdec:characterId="11" height="78.4" transform="matrix(1.0, 0.0, 0.0, 1.0, 0.5, 23.2)" width="45.05" xlink:href="#shape7"/>
    </g>
    <g id="shape7" transform="matrix(1.0, 0.0, 0.0, 1.0, -0.5, -23.2)">
      <path d="M39.75 27.5 Q42.95 35.0 45.55 42.55 L45.55 48.15 45.2 46.95 42.8 48.9 40.35 51.15 39.25 51.05 45.05 46.45 44.6 45.0 Q41.7 34.95 36.9 26.3 L39.75 27.5 M1.75 35.2 Q0.95 32.55 0.5 30.05 L2.55 29.65 Q3.2 32.55 4.1 35.35 L1.75 35.2" fill="#ecc6ff" fill-rule="evenodd" stroke="none"/>
      <path d="M39.75 27.5 L36.9 26.3 35.4 23.65 37.8 23.2 38.75 25.25 39.75 27.5" fill="#ffffff" fill-rule="evenodd" stroke="none"/>
      <path d="M39.25 51.05 L40.35 51.15 Q36.75 54.6 33.7 58.65 29.75 63.9 25.0 64.7 31.7 57.35 39.25 51.05 M4.1 35.35 Q5.2 38.8 6.7 42.15 8.15 45.4 10.35 47.4 5.05 44.9 2.3 36.95 L1.75 35.2 4.1 35.35 M7.35 96.95 Q6.45 98.2 4.85 99.05 3.9 99.55 3.45 100.45 25.7 92.35 45.55 79.5 L45.55 80.25 Q38.65 84.95 31.55 89.45 17.0 98.6 1.5 101.6 2.2 98.5 5.0 96.8 6.4 95.95 7.35 96.95" fill="#b191ff" fill-rule="evenodd" stroke="none"/>
    </g>
    <g id="shape8" transform="matrix(1.0, 0.0, 0.0, 1.0, 0.0, 0.0)">
      <path d="M50.5 0.0 Q53.95 0.0 53.95 3.3 L53.95 50.15 Q53.95 53.4 50.5 53.4 L3.3 53.4 Q0.0 53.4 0.0 50.15 L0.0 3.3 Q0.0 0.0 3.3 0.0 L50.5 0.0" fill="#000000" fill-opacity="0.003921569" fill-rule="evenodd" stroke="none"/>
    </g>
  </defs>
</svg>
