<?xml version="1.0" encoding="UTF-8" standalone="no"?>
<svg xmlns:ffdec="https://www.free-decompiler.com/flash" xmlns:xlink="http://www.w3.org/1999/xlink" ffdec:objectType="frame" height="83.45px" width="72.6px" xmlns="http://www.w3.org/2000/svg">
  <g transform="matrix(1.0, 0.0, 0.0, 1.0, 4.6, 9.05)">
    <clipPath id="clipPath0" transform="matrix(1.0, 0.0, 0.0, 1.0, 0.0, 0.0)">
      <path d="M50.5 0.0 Q53.95 0.0 53.95 3.3 L53.95 50.15 Q53.95 53.4 50.5 53.4 L3.3 53.4 Q0.0 53.4 0.0 50.15 L0.0 3.3 Q0.0 0.0 3.3 0.0 L50.5 0.0" fill="#000000" fill-rule="evenodd" stroke="none"/>
    </clipPath>
    <g clip-path="url(#clipPath0)">
      <use ffdec:characterId="2" height="18.2" transform="matrix(1.0, 0.0, 0.0, 1.0, -1.25, 39.5)" width="33.75" xlink:href="#shape1"/>
      <filter id="filter0">
        <feConvolveMatrix divisor="625.0" in="SourceGraphic" kernelMatrix="1 1 1 1 1 1 1 1 1 1 1 1 1 1 1 1 1 1 1 1 1 1 1 1 1 1 1 1 1 1 1 1 1 1 1 1 1 1 1 1 1 1 1 1 1 1 1 1 1 1 1 1 1 1 1 1 1 1 1 1 1 1 1 1 1 1 1 1 1 1 1 1 1 1 1 1 1 1 1 1 1 1 1 1 1 1 1 1 1 1 1 1 1 1 1 1 1 1 1 1 1 1 1 1 1 1 1 1 1 1 1 1 1 1 1 1 1 1 1 1 1 1 1 1 1 1 1 1 1 1 1 1 1 1 1 1 1 1 1 1 1 1 1 1 1 1 1 1 1 1 1 1 1 1 1 1 1 1 1 1 1 1 1 1 1 1 1 1 1 1 1 1 1 1 1 1 1 1 1 1 1 1 1 1 1 1 1 1 1 1 1 1 1 1 1 1 1 1 1 1 1 1 1 1 1 1 1 1 1 1 1 1 1 1 1 1 1 1 1 1 1 1 1 1 1 1 1 1 1 1 1 1 1 1 1 1 1 1 1 1 1 1 1 1 1 1 1 1 1 1 1 1 1 1 1 1 1 1 1 1 1 1 1 1 1 1 1 1 1 1 1 1 1 1 1 1 1 1 1 1 1 1 1 1 1 1 1 1 1 1 1 1 1 1 1 1 1 1 1 1 1 1 1 1 1 1 1 1 1 1 1 1 1 1 1 1 1 1 1 1 1 1 1 1 1 1 1 1 1 1 1 1 1 1 1 1 1 1 1 1 1 1 1 1 1 1 1 1 1 1 1 1 1 1 1 1 1 1 1 1 1 1 1 1 1 1 1 1 1 1 1 1 1 1 1 1 1 1 1 1 1 1 1 1 1 1 1 1 1 1 1 1 1 1 1 1 1 1 1 1 1 1 1 1 1 1 1 1 1 1 1 1 1 1 1 1 1 1 1 1 1 1 1 1 1 1 1 1 1 1 1 1 1 1 1 1 1 1 1 1 1 1 1 1 1 1 1 1 1 1 1 1 1 1 1 1 1 1 1 1 1 1 1 1 1 1 1 1 1 1 1 1 1 1 1 1 1 1 1 1 1 1 1 1 1 1 1 1 1 1 1 1 1 1 1 1 1 1 1 1 1 1 1 1 1 1 1 1 1 1 1 1 1 1 1 1 1 1 1 1 1 1 1 1 1 1 1 1 1 1 1 1 1 1 1 1 1 1 1 1 1 1 1 1 1 1 1 1 1 1 1 1 1 1 1 1 1 1 1 1 1 1 1 1 1 1 1 1 1 1 1 1 1 1 1 1 1 1 1 1 1 1 1 1 1 1 1 1 1 1 1 1 1 1 1 1 1 1 1 1 1 1 1 1 1 1 1 1 1 1 1 1 1 1 1 1 1 1 1 1 1 1 1 1 1" order="25 25" result="filterResult0"/>
      </filter>
      <use ffdec:characterId="4" filter="url(#filter0)" height="63.5" transform="matrix(-1.0464, 0.0, 0.0, 1.0464, 67.9987, -0.0431)" width="66.5" xlink:href="#sprite0"/>
      <use ffdec:characterId="5" height="83.45" transform="matrix(1.0, 0.0, 0.0, 1.0, -4.6, -9.05)" width="71.4" xlink:href="#shape3"/>
    </g>
    <use ffdec:characterId="6" height="53.4" transform="matrix(1.0, 0.0, 0.0, 1.0, 0.0, 0.0)" width="53.95" xlink:href="#shape4"/>
  </g>
  <defs>
    <g id="shape1" transform="matrix(1.0, 0.0, 0.0, 1.0, 1.25, -39.5)">
      <path d="M-0.75 40.0 Q4.7 41.85 8.7 42.8 17.15 44.75 23.6 49.7 27.15 52.35 32.0 57.2 L-0.75 57.2 -0.75 40.0" fill="#2b3d79" fill-rule="evenodd" stroke="none"/>
      <path d="M-0.75 40.0 Q4.7 41.85 8.7 42.8 17.15 44.75 23.6 49.7 27.15 52.35 32.0 57.2" fill="none" stroke="#3a4579" stroke-linecap="round" stroke-linejoin="round" stroke-width="1.0"/>
    </g>
    <g id="sprite0" transform="matrix(1.0, 0.0, 0.0, 1.0, -106.6, -183.15)">
      <use ffdec:characterId="3" height="63.5" transform="matrix(1.0, 0.0, 0.0, 1.0, 106.6, 183.15)" width="66.5" xlink:href="#shape2"/>
    </g>
    <g id="shape2" transform="matrix(1.0, 0.0, 0.0, 1.0, -106.6, -183.15)">
      <path d="M106.6 183.15 L173.1 183.15 173.1 246.65 106.6 246.65 106.6 240.75 106.85 240.4 Q112.35 233.0 112.35 226.1 112.35 214.95 110.7 207.9 L106.6 192.7 106.6 183.15" fill="#10002e" fill-opacity="0.54901963" fill-rule="evenodd" stroke="none"/>
    </g>
    <g id="shape3" transform="matrix(1.0, 0.0, 0.0, 1.0, 4.6, 9.05)">
      <path d="M-3.1 0.0 L-3.1 -1.55 9.25 -1.55 19.1 8.35 21.2 6.85 23.15 5.4 Q23.95 13.35 25.85 18.85 29.0 21.6 32.95 21.35 L33.1 17.1 Q31.6 13.3 28.4 13.8 L30.15 10.3 30.95 8.75 33.85 5.1 39.15 -1.55 33.85 5.1 30.95 8.75 30.15 10.3 28.4 13.8 Q31.6 13.3 33.1 17.1 L32.95 21.35 Q29.0 21.6 25.85 18.85 23.95 13.35 23.15 5.4 L21.2 6.85 19.1 8.35 9.25 -1.55 19.6 -1.55 25.35 -1.55 34.15 -1.55 39.15 -1.55 45.1 -1.55 45.1 -1.05 46.6 9.0 45.45 14.7 44.75 26.55 43.3 12.8 35.6 28.4 40.15 36.85 39.9 37.35 39.0 36.8 32.8 32.9 29.6 31.05 28.75 30.5 27.05 29.55 23.0 27.3 22.45 27.6 20.45 28.55 20.4 28.55 9.6 33.5 20.4 28.55 20.45 28.55 22.45 27.6 23.0 27.3 27.05 29.55 28.75 30.5 29.6 31.05 32.8 32.9 39.0 36.8 39.9 37.35 40.15 36.85 35.6 28.4 43.3 12.8 44.75 26.55 45.1 30.1 40.95 37.5 40.85 38.1 38.35 42.2 39.35 43.6 48.3 44.05 49.95 36.05 45.8 24.25 48.75 21.85 50.1 14.5 51.0 14.8 56.95 2.25 57.15 2.0 57.15 7.9 54.0 15.9 49.95 36.05 54.0 15.9 57.15 7.9 57.15 30.3 57.15 40.25 57.15 49.55 57.15 58.1 56.45 58.45 57.15 59.2 57.15 71.85 52.95 71.85 49.45 65.4 49.1 65.8 48.5 65.1 50.35 71.85 47.5 71.85 42.3 71.85 22.15 71.85 15.8 71.85 9.75 65.65 10.2 64.15 4.5 59.5 4.7 57.05 1.15 60.8 3.8 69.6 1.35 68.55 -2.1 64.3 -3.1 65.4 -3.1 63.1 -3.1 30.3 2.65 37.35 9.85 39.3 12.5 36.55 9.6 33.5 8.4 34.0 9.15 33.05 16.15 23.8 16.05 23.7 13.55 18.85 14.6 15.95 Q13.8 14.3 9.0 11.75 L8.75 11.55 4.1 9.3 3.75 7.05 -3.1 0.0 3.75 7.05 4.1 9.3 8.75 11.55 9.0 11.75 Q13.8 14.3 14.6 15.95 L13.55 18.85 16.05 23.7 16.15 23.8 9.15 33.05 4.25 26.95 -0.1 30.35 -3.1 28.65 -3.1 0.0 M57.15 30.3 L54.3 36.15 53.05 42.85 54.3 36.15 57.15 30.3 M57.15 40.25 L54.2 43.05 53.8 43.9 54.2 43.05 57.15 40.25 M40.15 36.85 L40.7 37.9 40.95 37.5 40.7 37.9 40.15 36.85 M48.3 44.05 L48.2 44.45 48.5 48.65 50.15 52.95 49.1 55.15 46.95 54.65 46.8 54.6 47.05 56.45 46.8 54.6 46.95 54.65 49.1 55.15 50.15 52.95 48.5 48.65 48.2 44.45 48.3 44.05 M52.3 46.8 L53.8 43.9 53.05 42.85 52.3 46.8 52.3 46.85 54.45 56.4 54.8 51.25 57.15 49.55 54.8 51.25 54.45 56.4 52.3 46.85 52.3 46.8 M30.15 10.3 L27.85 7.75 25.35 -1.55 27.85 7.75 30.15 10.3 M8.85 24.55 L9.7 22.6 7.85 24.1 8.85 24.55 11.3 25.7 16.05 23.7 11.3 25.7 8.85 24.55 M47.1 57.05 L39.05 44.8 39.0 44.7 19.3 60.1 18.95 60.45 13.35 56.05 5.1 56.65 0.8 57.0 0.05 56.25 5.35 44.45 4.15 39.2 2.65 37.35 4.15 39.2 5.35 44.45 0.05 56.25 0.8 57.0 5.1 56.65 13.35 56.05 18.95 60.45 19.3 60.1 39.0 44.7 39.05 44.8 47.1 57.05 47.15 57.15 48.4 60.25 49.25 59.75 47.0 55.7 47.05 56.45 47.1 57.05 M39.0 36.8 L38.8 38.2 37.05 39.85 38.8 38.2 39.0 36.8 M23.4 37.0 L22.15 34.9 22.3 31.05 22.45 27.6 22.3 31.05 25.5 31.45 26.1 30.8 26.1 30.7 26.2 30.55 27.05 29.55 26.2 30.55 26.1 30.7 26.1 30.8 25.5 31.45 22.3 31.05 22.15 34.9 23.4 37.0 23.7 37.35 Q28.05 41.1 33.95 43.25 L35.0 41.65 36.85 40.0 35.0 41.65 33.95 43.25 Q28.05 41.1 23.7 37.35 L23.4 37.0 26.5 42.2 15.75 39.2 13.7 37.65 12.5 36.55 13.7 37.65 15.75 39.2 26.5 42.2 23.4 37.0 M46.95 54.65 L47.0 55.7 46.95 54.65 M37.4 40.8 L37.05 40.0 37.05 39.85 36.85 40.0 37.4 40.8 38.15 42.55 38.35 42.2 38.15 42.55 37.4 40.8 M48.5 65.1 L46.2 62.45 Q44.8 59.9 42.85 58.0 L42.3 57.45 42.15 57.6 42.1 57.6 41.25 58.3 40.35 59.05 Q37.0 61.95 35.4 65.5 L36.3 66.65 Q39.0 69.75 42.3 71.85 39.0 69.75 36.3 66.65 L35.4 65.5 Q37.0 61.95 40.35 59.05 L41.25 58.3 42.1 57.6 41.15 57.1 40.85 57.0 25.7 67.05 22.15 71.85 25.7 67.05 40.85 57.0 41.15 57.1 42.1 57.6 42.15 57.6 41.3 56.65 40.85 57.0 41.3 56.65 42.15 57.6 42.3 57.45 42.85 58.0 Q44.8 59.9 46.2 62.45 L48.5 65.1 M55.05 59.15 L56.45 58.45 55.05 59.15 55.05 59.25 53.25 68.15 52.5 68.95 52.35 63.85 52.2 58.4 50.15 52.95 52.2 58.4 52.35 63.85 52.5 68.95 53.25 68.15 55.05 59.25 55.05 59.15 54.45 56.4 55.05 59.15 M10.2 64.15 L10.6 62.7 13.8 65.75 18.95 60.45 13.8 65.75 10.6 62.7 10.2 64.15 M4.7 57.05 L5.1 56.65 4.7 57.05 M19.6 -1.55 L21.2 6.85 19.6 -1.55 M34.15 -1.55 L33.85 5.1 34.15 -1.55 M0.05 56.25 L-0.1 56.5 1.15 60.8 -0.1 56.5 0.05 56.25 M7.85 24.1 L-0.75 20.05 4.25 26.95 -0.75 20.05 7.85 24.1 M-2.1 64.3 L-3.1 63.1 -2.1 64.3 M49.25 59.75 L51.8 64.35 52.35 63.85 51.8 64.35 49.25 59.75 M47.5 71.85 Q48.1 69.05 47.55 65.9 L47.25 64.6 46.85 63.7 46.2 62.45 46.85 63.7 47.25 64.6 47.55 65.9 Q48.1 69.05 47.5 71.85 M48.4 60.25 L50.2 64.6 49.45 65.4 50.2 64.6 48.4 60.25" fill="#0087ff" fill-rule="evenodd" stroke="none"/>
      <path d="M-3.1 0.0 L3.75 7.05 4.1 9.3 8.75 11.55 9.0 11.75 Q13.8 14.3 14.6 15.95 L13.55 18.85 16.05 23.7 16.15 23.8 9.15 33.05 8.4 34.0 9.6 33.5 20.4 28.55 20.45 28.55 22.45 27.6 23.0 27.3 27.05 29.55 28.75 30.5 29.6 31.05 32.8 32.9 39.0 36.8 39.9 37.35 40.15 36.85 35.6 28.4 43.3 12.8 44.75 26.55 45.45 14.7 46.6 9.0 45.1 -1.05 45.1 -1.55 M39.15 -1.55 L33.85 5.1 30.95 8.75 30.15 10.3 28.4 13.8 Q31.6 13.3 33.1 17.1 L32.95 21.35 Q29.0 21.6 25.85 18.85 23.95 13.35 23.15 5.4 L21.2 6.85 19.1 8.35 9.25 -1.55 M57.15 2.0 L56.95 2.25 51.0 14.8 50.1 14.5 48.75 21.85 45.8 24.25 49.95 36.05 54.0 15.9 57.15 7.9 M57.15 58.1 L56.45 58.45 57.15 59.2 M52.95 71.85 L49.45 65.4 49.1 65.8 48.5 65.1 50.35 71.85 M15.8 71.85 L9.75 65.65 10.2 64.15 4.5 59.5 4.7 57.05 1.15 60.8 3.8 69.6 1.35 68.55 -2.1 64.3 -3.1 65.4 M-3.1 30.3 L2.65 37.35 9.85 39.3 12.5 36.55 9.6 33.5 M50.1 14.5 L49.85 14.35 M53.05 42.85 L54.3 36.15 57.15 30.3 M44.75 26.55 L45.1 30.1 40.95 37.5 40.85 38.1 38.35 42.2 39.35 43.6 48.3 44.05 49.95 36.05 M47.05 56.45 L46.8 54.6 46.95 54.65 49.1 55.15 50.15 52.95 48.5 48.65 48.2 44.45 48.3 44.05 M40.95 37.5 L40.7 37.9 40.15 36.85 M53.8 43.9 L54.2 43.05 57.15 40.25 M53.05 42.85 L53.8 43.9 52.3 46.8 52.3 46.85 54.45 56.4 54.8 51.25 57.15 49.55 M52.3 46.8 L53.05 42.85 M25.35 -1.55 L27.85 7.75 30.15 10.3 M7.85 24.1 L9.7 22.6 8.85 24.55 11.3 25.7 16.05 23.7 M7.85 24.1 L8.85 24.55 M9.15 33.05 L4.25 26.95 -0.1 30.35 M2.65 37.35 L4.15 39.2 5.35 44.45 0.05 56.25 0.8 57.0 5.1 56.65 13.35 56.05 18.95 60.45 19.3 60.1 39.0 44.7 39.05 44.8 47.1 57.05 47.05 56.45 47.0 55.7 46.95 54.65 M36.85 40.0 L35.0 41.65 33.95 43.25 Q28.05 41.1 23.7 37.35 L23.4 37.0 26.5 42.2 15.75 39.2 13.7 37.65 12.5 36.55 M22.45 27.6 L22.3 31.05 25.5 31.45 26.1 30.8 26.1 30.7 26.2 30.55 27.05 29.55 M22.3 31.05 L22.15 34.9 23.4 37.0 M37.05 39.85 L38.8 38.2 39.0 36.8 M36.85 40.0 L37.05 39.85 37.05 40.0 37.4 40.8 38.15 42.55 38.35 42.2 M36.85 40.0 L37.4 40.8 M42.3 71.85 Q39.0 69.75 36.3 66.65 L35.4 65.5 Q37.0 61.95 40.35 59.05 L41.25 58.3 42.1 57.6 41.15 57.1 40.85 57.0 25.7 67.05 22.15 71.85 M5.1 56.65 L4.7 57.05 M18.95 60.45 L13.8 65.75 10.6 62.7 10.2 64.15 M50.15 52.95 L52.2 58.4 52.35 63.85 52.5 68.95 53.25 68.15 55.05 59.25 55.05 59.15 54.45 56.4 M56.45 58.45 L55.05 59.15 M42.1 57.6 L42.15 57.6 41.3 56.65 40.85 57.0 M42.15 57.6 L42.3 57.45 42.85 58.0 Q44.8 59.9 46.2 62.45 L48.5 65.1 M48.4 60.25 L47.15 57.15 47.1 57.05 M48.4 60.25 L49.25 59.75 47.0 55.7 M49.45 65.4 L50.2 64.6 48.4 60.25 M46.2 62.45 L46.85 63.7 47.25 64.6 47.55 65.9 Q48.1 69.05 47.5 71.85 M52.35 63.85 L51.8 64.35 49.25 59.75 M-3.1 63.1 L-2.1 64.3 M4.25 26.95 L-0.75 20.05 7.85 24.1 M1.15 60.8 L-0.1 56.5 0.05 56.25 M33.85 5.1 L34.15 -1.55 M21.2 6.85 L19.6 -1.55" fill="none" stroke="#0087ff" stroke-linecap="round" stroke-linejoin="round" stroke-width="3.0"/>
      <path d="M54.1 43.35 L54.1 47.6 Q45.45 43.25 42.5 41.4 38.55 38.95 35.7 28.25 34.2 22.8 33.35 17.05 L33.1 16.65 32.85 15.75 Q35.05 21.3 37.25 28.45 38.95 33.95 39.9 35.65 41.35 38.2 44.35 39.75 47.05 41.2 54.05 43.3 L54.1 43.35" fill="#0d0a15" fill-rule="evenodd" stroke="none"/>
      <path d="M46.05 54.45 L47.85 47.6 52.75 47.6 62.65 49.95 57.4 58.35 53.7 60.25 53.65 63.0 51.8 64.8 46.05 54.45" fill="#504973" fill-rule="evenodd" stroke="none"/>
      <path d="M46.05 54.45 L47.85 47.6 52.75 47.6 62.65 49.95 57.4 58.35 53.7 60.25 53.65 63.0 51.8 64.8 46.05 54.45 Z" fill="none" stroke="#232238" stroke-linecap="round" stroke-linejoin="round" stroke-width="1.0"/>
      <path d="M50.1 14.9 L51.0 15.25 56.95 2.7 64.95 -8.55 66.3 7.15 65.2 34.1 57.25 49.15 51.55 41.2 45.8 24.65 48.75 22.25 50.1 14.9" fill="#42339a" fill-rule="evenodd" stroke="none"/>
      <path d="M50.1 14.9 L48.75 22.25 45.8 24.65 51.55 41.2 57.25 49.15 65.2 34.1 66.3 7.15 64.95 -8.55 56.95 2.7 51.0 15.25 50.1 14.9 49.85 14.75" fill="none" stroke="#1f1c4d" stroke-linecap="round" stroke-linejoin="round" stroke-width="1.0"/>
      <path d="M36.3 54.05 L34.85 54.05 32.0 52.35 Q27.15 49.45 24.85 47.7 19.05 43.05 16.45 38.2 L16.4 38.05 Q15.4 36.2 14.9 34.35 L15.35 33.85 33.35 35.4 37.05 40.7 Q37.35 43.5 37.05 48.15 36.8 52.05 36.3 54.05" fill="#191425" fill-rule="evenodd" stroke="none"/>
      <path d="M34.85 54.05 L30.7 54.05 28.85 52.65 Q24.3 49.65 21.05 46.9 17.45 43.8 15.65 41.0 15.9 39.55 16.3 38.3 L16.45 38.2 Q19.05 43.05 24.85 47.7 27.15 49.45 32.0 52.35 L34.85 54.05 M0.0 47.2 L0.0 37.05 2.0 37.6 1.35 41.85 Q0.8 45.45 0.75 47.05 L5.95 49.55 4.3 48.95 0.0 47.2 M3.3 37.95 L8.4 39.3 7.8 42.65 Q7.8 44.05 12.95 47.55 L21.95 53.8 22.25 54.05 16.15 52.7 Q6.3 48.2 2.3 45.9 L2.85 41.45 3.3 37.95 M21.4 46.65 L21.45 46.8 Q22.15 46.95 22.6 47.45 L23.5 47.6 Q23.6 46.9 23.1 46.25 22.4 45.5 21.4 45.6 21.05 45.7 21.25 46.05 L21.4 46.65 M10.45 47.75 Q11.35 48.4 12.3 48.2 12.4 47.4 11.55 46.95 10.8 46.45 9.9 46.3 9.5 46.95 10.45 47.75" fill="#655c95" fill-rule="evenodd" stroke="none"/>
      <path d="M10.45 47.75 Q9.5 46.95 9.9 46.3 10.8 46.45 11.55 46.95 12.4 47.4 12.3 48.2 11.35 48.4 10.45 47.75 M21.4 46.65 L21.25 46.05 Q21.05 45.7 21.4 45.6 22.4 45.5 23.1 46.25 23.6 46.9 23.5 47.6 L22.6 47.45 Q22.15 46.95 21.45 46.8 L21.4 46.65" fill="#92a7c4" fill-rule="evenodd" stroke="none"/>
      <path d="M47.1 44.45 L52.4 44.7 Q51.7 49.75 49.85 54.05 L45.5 54.05 46.1 50.7 47.15 45.6 47.1 44.45 M43.4 54.05 L41.1 54.05 Q41.1 49.9 41.7 47.7 L42.45 44.15 45.3 44.35 43.85 51.3 Q43.55 52.55 43.4 54.05 M39.75 54.05 L36.3 54.05 Q36.8 52.05 37.05 48.15 37.35 43.5 37.05 40.7 L39.35 44.0 40.25 44.05 40.25 45.0 40.0 48.3 Q39.7 51.4 39.7 53.25 L39.75 54.05 M30.7 54.05 L25.5 54.05 25.2 53.8 15.9 47.1 15.15 46.5 11.0 43.45 9.55 42.2 9.4 39.6 9.85 39.7 14.9 34.35 Q15.4 36.2 16.4 38.05 L16.45 38.2 16.3 38.3 Q15.9 39.55 15.65 41.0 17.45 43.8 21.05 46.9 24.3 49.65 28.85 52.65 L30.7 54.05 M22.25 54.05 L18.75 54.05 17.8 53.5 16.15 52.7 22.25 54.05 M15.25 54.05 L0.0 54.05 0.0 47.2 4.3 48.95 5.95 49.55 7.9 50.45 Q12.45 52.55 15.25 54.05" fill="#504973" fill-rule="evenodd" stroke="none"/>
      <path d="M45.3 44.35 L47.1 44.45 47.15 45.6 46.1 50.7 45.5 54.05 43.4 54.05 Q43.55 52.55 43.85 51.3 L45.3 44.35 M41.1 54.05 L39.75 54.05 39.7 53.25 Q39.7 51.4 40.0 48.3 L40.25 45.0 40.25 44.05 42.45 44.15 41.7 47.7 Q41.1 49.9 41.1 54.05 M25.5 54.05 L22.25 54.05 21.95 53.8 12.95 47.55 Q7.8 44.05 7.8 42.65 L8.4 39.3 9.4 39.6 9.55 42.2 11.0 43.45 15.15 46.5 15.9 47.1 25.2 53.8 25.5 54.05 M18.75 54.05 L15.25 54.05 Q12.45 52.55 7.9 50.45 L5.95 49.55 0.75 47.05 Q0.8 45.45 1.35 41.85 L2.0 37.6 3.3 37.95 2.85 41.45 2.3 45.9 Q6.3 48.2 16.15 52.7 L17.8 53.5 18.75 54.05" fill="#3d365d" fill-rule="evenodd" stroke="none"/>
      <path d="M45.3 44.35 L47.1 44.45 52.4 44.7 Q51.7 49.75 49.85 54.05 M0.0 37.05 L2.0 37.6 3.3 37.95 8.4 39.3 9.4 39.6 9.85 39.7 14.9 34.35 15.35 33.85 33.35 35.4 37.05 40.7 39.35 44.0 40.25 44.05 42.45 44.15 45.3 44.35" fill="none" stroke="#232238" stroke-linecap="round" stroke-linejoin="round" stroke-width="1.0"/>
      <path d="M36.65 30.45 L42.1 25.4 40.85 38.5 38.15 42.95 37.05 40.4 36.65 30.45" fill="#504973" fill-rule="evenodd" stroke="none"/>
      <path d="M42.1 25.4 L42.35 25.1 M36.65 30.45 L36.6 30.05 M36.65 30.45 L42.1 25.4 40.85 38.5 38.15 42.95 37.05 40.4 36.65 30.45 Z" fill="none" stroke="#232238" stroke-linecap="round" stroke-linejoin="round" stroke-width="1.0"/>
      <path d="M36.15 0.0 L38.05 0.0 Q39.1 3.35 39.6 6.65 L39.45 8.0 36.15 0.0 M26.2 31.0 L25.5 31.85 19.7 31.15 8.45 25.95 9.7 23.05 -0.1 30.8 -0.75 30.45 -0.75 17.85 3.1 13.9 -0.75 14.6 -0.75 13.7 4.3 12.65 7.5 12.0 9.05 12.0 Q8.45 13.7 3.3 21.5 12.5 16.6 20.9 14.65 16.3 17.7 12.85 25.8 13.65 26.65 26.2 31.0 M-0.75 5.15 L-0.75 0.0 3.05 0.0 2.45 0.75 -0.75 5.15 M21.0 14.55 L21.2 14.55 20.9 14.65 21.0 14.55" fill="#bdc4e0" fill-rule="evenodd" stroke="none"/>
      <path d="M36.15 0.0 L39.45 8.0 38.2 16.85 26.2 31.0 Q13.65 26.65 12.85 25.8 16.3 17.7 20.9 14.65 12.5 16.6 3.3 21.5 8.45 13.7 9.05 12.0 L7.5 12.0 4.3 12.65 -0.75 13.7 -0.75 5.15 2.45 0.75 3.05 0.0 36.15 0.0 M21.0 14.55 L20.9 14.65 21.2 14.55 21.0 14.55" fill="#5f6eaa" fill-rule="evenodd" stroke="none"/>
      <path d="M-0.75 17.85 L-0.75 14.6 3.1 13.9 -0.75 17.85" fill="#dce2fa" fill-rule="evenodd" stroke="none"/>
      <path d="M39.45 8.0 L39.6 6.65 Q39.1 3.35 38.05 0.0 M39.45 8.0 L38.2 16.85 26.2 31.0 25.5 31.85 19.7 31.15 8.45 25.95 9.7 23.05 -0.1 30.8" fill="none" stroke="#4d4d72" stroke-linecap="round" stroke-linejoin="round" stroke-width="1.0"/>
      <path d="M23.4 37.4 L19.7 33.55 Q20.7 26.6 24.95 21.8 L39.85 31.7 38.85 38.25 38.45 38.0 35.6 36.0 35.15 35.75 34.65 35.45 34.3 35.55 33.45 35.75 29.15 36.3 Q27.45 36.3 25.9 35.5 L24.6 34.8 24.35 35.3 Q23.7 36.55 23.4 37.4" fill="#6e829c" fill-rule="evenodd" stroke="none"/>
      <path d="M29.45 39.2 L29.45 39.25 30.4 39.45 32.95 39.75 34.65 40.0 Q33.7 39.4 32.5 39.25 L29.6 39.05 29.55 39.05 29.5 39.1 29.45 39.1 29.45 39.2 M24.75 36.35 L25.05 35.75 26.95 36.55 29.8 37.15 33.05 36.55 34.65 36.0 37.9 38.5 36.05 40.0 33.65 42.15 30.2 40.7 Q27.85 39.55 24.45 37.25 L24.75 36.35" fill="#f1ffff" fill-rule="evenodd" stroke="none"/>
      <path d="M23.4 37.4 Q23.7 36.55 24.35 35.3 L24.6 34.8 25.9 35.5 Q27.45 36.3 29.15 36.3 L33.45 35.75 34.3 35.55 34.65 35.45 35.15 35.75 35.6 36.0 38.45 38.0 38.85 38.25 38.8 38.6 35.0 42.1 33.95 43.65 Q28.05 41.5 23.7 37.8 L23.4 37.4 M24.75 36.35 L24.45 37.25 Q27.85 39.55 30.2 40.7 L33.65 42.15 36.05 40.0 37.9 38.5 34.65 36.0 33.05 36.55 29.8 37.15 26.95 36.55 25.05 35.75 24.75 36.35 M29.45 39.2 L29.45 39.1 29.5 39.1 29.55 39.05 29.6 39.05 32.5 39.25 Q33.7 39.4 34.65 40.0 L32.95 39.75 30.4 39.45 29.45 39.25 29.45 39.2" fill="#92a7c4" fill-rule="evenodd" stroke="none"/>
      <path d="M38.85 38.25 L39.85 31.7 24.95 21.8 Q20.7 26.6 19.7 33.55 L23.4 37.4 23.7 37.8 Q28.05 41.5 33.95 43.65 L35.0 42.1 38.8 38.6 38.85 38.25 M19.7 33.55 L19.4 33.3 M24.65 21.55 L24.95 21.8" fill="none" stroke="#003366" stroke-linecap="round" stroke-linejoin="round" stroke-width="1.0"/>
      <path d="M23.55 27.3 Q25.25 27.25 27.2 28.7 L31.2 31.8 31.6 32.15 31.75 32.3 32.4 32.9 33.1 33.65 33.25 33.95 33.5 34.35 33.85 34.85 33.4 34.85 31.0 35.0 29.2 34.9 27.1 34.6 26.95 34.6 26.5 34.5 Q24.4 34.1 25.05 36.75 23.5 33.1 23.4 32.35 L23.1 30.15 Q22.9 28.7 23.05 27.55 23.25 27.6 23.5 27.8 L23.55 27.3 M23.45 30.4 L24.4 32.45 24.6 32.85 26.55 33.75 26.35 33.1 Q26.0 32.25 26.1 31.2 L26.15 30.15 26.35 29.6 23.5 27.8 Q23.35 28.8 23.45 30.4 M30.35 34.1 L30.4 34.3 29.85 34.45 Q29.15 34.55 28.7 33.6 28.15 32.6 28.3 31.05 L27.0 30.1 26.8 30.95 26.55 31.55 26.5 32.0 26.65 33.45 26.8 33.8 26.95 33.85 28.55 34.3 30.65 34.55 32.55 34.4 32.7 34.4 31.35 33.3 31.15 33.55 31.05 33.5 31.35 32.8 28.75 30.8 28.65 32.55 Q28.65 34.25 29.9 34.25 L30.35 34.1" fill="#4f0719" fill-rule="evenodd" stroke="none"/>
      <path d="M23.45 30.4 L23.6 30.2 Q24.05 29.75 24.5 29.75 25.35 29.75 26.0 31.1 L26.1 31.2 Q26.0 32.25 26.35 33.1 L26.55 33.75 24.6 32.85 24.4 32.45 23.45 30.4" fill="#ff9ab6" fill-rule="evenodd" stroke="none"/>
      <path d="M26.1 31.2 L26.0 31.1 Q25.35 29.75 24.5 29.75 24.05 29.75 23.6 30.2 L23.45 30.4 Q23.35 28.8 23.5 27.8 L26.35 29.6 26.15 30.15 26.1 31.2 M28.55 34.3 L26.95 33.85 26.8 33.8 26.65 33.45 26.5 32.0 26.55 31.55 26.8 30.95 Q27.0 32.4 27.8 33.5 L28.55 34.3" fill="#f94779" fill-rule="evenodd" stroke="none"/>
      <path d="M26.8 30.95 L27.0 30.1 28.3 31.05 Q28.15 32.6 28.7 33.6 29.15 34.55 29.85 34.45 L30.4 34.3 30.35 34.1 30.25 33.8 Q30.25 33.4 30.7 33.4 L31.05 33.5 31.15 33.55 31.35 33.3 32.7 34.4 32.55 34.4 30.65 34.55 28.55 34.3 27.8 33.5 Q27.0 32.4 26.8 30.95" fill="#b11a38" fill-rule="evenodd" stroke="none"/>
      <path d="M30.35 34.1 L29.9 34.25 Q28.65 34.25 28.65 32.55 L28.75 30.8 31.35 32.8 31.05 33.5 30.7 33.4 Q30.25 33.4 30.25 33.8 L30.35 34.1" fill="#2a000b" fill-rule="evenodd" stroke="none"/>
      <path d="M21.55 28.0 L21.6 28.0 22.1 27.2 21.5 25.7 20.7 24.35 15.4 27.0 11.8 28.45 Q11.35 28.45 9.25 26.85 L7.7 25.7 8.0 27.75 14.0 35.9 17.45 32.0 Q20.05 29.1 21.55 28.0 L19.65 30.6 16.2 34.85 15.4 35.95 15.2 36.1 15.2 36.2 14.85 36.65 15.35 36.85 Q16.8 37.35 18.7 38.4 L23.6 41.1 24.5 41.5 Q24.15 40.1 23.1 38.3 L21.05 35.05 21.35 31.45 21.5 28.95 21.55 28.0 M21.1 22.05 L22.5 26.1 22.15 35.35 26.5 42.6 15.75 39.6 13.7 38.05 Q7.8 32.85 -0.75 20.45 L11.3 26.1 21.1 22.05" fill="#504973" fill-rule="evenodd" stroke="none"/>
      <path d="M21.55 28.0 Q20.05 29.1 17.45 32.0 L14.0 35.9 8.0 27.75 7.7 25.7 9.25 26.85 Q11.35 28.45 11.8 28.45 L15.4 27.0 20.7 24.35 21.5 25.7 22.1 27.2 21.6 28.0 21.55 28.0" fill="#3d365d" fill-rule="evenodd" stroke="none"/>
      <path d="M21.5 28.95 L21.35 31.45 21.05 35.05 23.1 38.3 Q24.15 40.1 24.5 41.5 L23.6 41.1 21.15 39.25 16.45 36.05 16.35 35.7 17.55 34.0 Q19.75 30.8 21.45 28.85 L21.5 28.95" fill="#655c95" fill-rule="evenodd" stroke="none"/>
      <path d="M21.55 28.0 L21.5 28.95 21.45 28.85 Q19.75 30.8 17.55 34.0 L16.35 35.7 16.25 35.55 15.65 35.8 15.4 35.95 16.2 34.85 19.65 30.6 21.55 28.0 M23.6 41.1 L18.7 38.4 Q16.8 37.35 15.35 36.85 L14.85 36.65 15.2 36.2 15.2 36.35 15.2 36.5 16.2 36.55 16.45 36.05 21.15 39.25 23.6 41.1" fill="#8a7cd7" fill-rule="evenodd" stroke="none"/>
      <path d="M15.2 36.2 L15.2 36.1 15.4 35.95 15.65 35.8 16.25 35.55 16.35 35.7 16.45 36.05 16.2 36.55 15.2 36.5 15.2 36.35 15.2 36.2" fill="#92a7c4" fill-rule="evenodd" stroke="none"/>
      <path d="M21.1 22.05 L22.5 26.1 22.15 35.35 26.5 42.6 15.75 39.6 13.7 38.05 Q7.8 32.85 -0.75 20.45 L11.3 26.1 21.1 22.05 Z" fill="none" stroke="#232238" stroke-linecap="round" stroke-linejoin="round" stroke-width="1.0"/>
      <path d="M21.45 -0.8 L25.05 11.5 28.7 10.8 26.65 8.65 24.15 -0.8 25.45 -0.8 27.85 8.15 33.55 14.5 34.15 -0.8 35.15 -0.8 34.85 6.55 42.5 -0.55 42.55 -0.8 43.85 -0.8 41.0 27.05 24.75 19.95 Q21.55 10.75 19.65 -0.8 L21.45 -0.8" fill="#089df0" fill-rule="evenodd" stroke="none"/>
      <path d="M21.45 -0.8 L24.15 -0.8 26.65 8.65 28.7 10.8 25.05 11.5 21.45 -0.8 M35.15 -0.8 L42.55 -0.8 42.5 -0.55 34.85 6.55 35.15 -0.8" fill="#1cbaff" fill-rule="evenodd" stroke="none"/>
      <path d="M25.45 -0.8 L27.85 8.15 33.55 14.5 34.15 -0.8 M43.85 -0.8 L41.0 27.05 24.75 19.95 Q21.55 10.75 19.65 -0.8" fill="none" stroke="#10f3fa" stroke-linecap="round" stroke-linejoin="round" stroke-width="1.0"/>
      <path d="M0.0 3.65 L0.0 -0.8 2.7 -0.8 Q12.95 10.7 14.95 13.6 L17.5 15.05 14.1 18.85 33.9 29.25 38.1 31.8 45.25 17.9 44.65 28.3 39.9 37.8 Q32.3 32.75 23.0 27.75 L8.4 34.45 16.15 24.25 13.55 19.25 14.6 16.4 Q13.5 14.0 4.1 9.75 L3.75 7.5 0.0 3.65 M41.2 -0.8 L42.7 -0.8 42.7 -0.5 42.1 12.7 42.05 14.55 41.9 13.0 41.4 8.95 Q40.8 6.5 39.45 6.5 39.1 6.5 34.9 7.75 L37.55 4.2 40.3 0.45 40.35 0.3 41.2 -0.8 M33.35 23.4 L33.1 23.7 33.25 23.25 33.7 21.65 Q34.2 19.95 34.2 18.7 34.2 16.15 33.2 14.95 32.1 13.65 29.5 13.45 L29.3 13.4 31.85 9.45 32.2 9.7 Q31.5 9.95 30.65 11.4 L29.9 13.0 30.45 13.05 Q33.25 13.3 34.2 15.6 L34.7 17.35 35.05 20.45 34.3 21.95 33.35 23.4 M5.35 5.65 L5.9 8.55 12.15 12.05 4.9 5.2 5.35 5.65 M39.2 35.9 L36.55 31.65 20.3 22.7 11.75 31.65 23.35 26.65 39.2 35.9" fill="#42339a" fill-rule="evenodd" stroke="none"/>
      <path d="M4.3 -0.8 L9.6 -0.8 19.1 8.75 19.45 8.5 19.4 9.0 18.7 20.7 18.7 20.9 15.7 18.9 15.85 18.9 16.2 18.2 16.25 17.85 18.7 14.55 16.55 13.55 16.15 7.4 13.9 9.15 4.3 -0.8 M5.35 5.65 L4.9 5.2 12.15 12.05 5.9 8.55 5.35 5.65" fill="#593ff5" fill-rule="evenodd" stroke="none"/>
      <path d="M33.9 29.25 L14.1 18.85 17.5 15.05 14.95 13.6 Q12.95 10.7 2.7 -0.8 L4.3 -0.8 13.9 9.15 16.15 7.4 16.55 13.55 18.7 14.55 16.25 17.85 15.95 17.55 15.15 18.2 Q14.6 18.65 14.85 19.2 L15.35 19.1 Q15.45 18.9 15.7 18.9 L18.7 20.9 18.7 20.7 32.65 27.35 41.9 13.0 42.05 14.55 42.1 12.7 43.4 10.75 43.5 12.3 43.35 7.15 43.25 2.0 43.25 0.3 43.25 0.1 43.25 -0.8 45.1 -0.8 45.1 -0.6 45.3 1.0 Q44.9 1.85 45.0 2.55 L44.95 4.65 Q44.85 5.95 44.9 7.5 L44.9 7.55 44.9 7.75 43.9 14.0 43.5 16.15 43.5 16.0 43.7 12.3 34.2 28.8 Q34.1 28.3 33.7 28.05 L32.6 27.65 Q32.35 27.65 32.35 27.9 L32.4 28.15 32.5 28.45 33.35 28.95 34.05 29.0 33.9 29.25 M32.95 21.4 L33.1 17.55 Q31.6 13.7 28.4 14.25 L30.95 9.15 38.9 -0.8 41.1 -0.8 40.35 0.3 40.3 0.45 37.65 3.4 37.65 3.45 37.35 3.8 Q36.2 4.9 35.55 5.95 34.7 7.25 34.7 7.9 L35.65 11.3 Q36.6 15.25 36.6 17.8 36.6 19.6 35.7 22.35 L35.55 22.8 33.85 24.8 33.4 23.55 33.35 23.4 34.3 21.95 35.05 20.45 35.2 20.05 35.45 19.4 35.75 16.7 Q35.75 13.65 33.7 11.2 L32.2 9.7 31.85 9.45 29.3 13.4 29.5 13.45 Q32.1 13.65 33.2 14.95 34.2 16.15 34.2 18.7 34.2 19.95 33.7 21.65 L32.95 21.4 M34.1 8.85 Q34.55 8.05 34.3 7.2 L34.0 7.05 33.75 7.0 Q33.2 7.4 32.8 8.0 32.5 8.55 32.6 9.15 33.6 9.8 34.1 8.85" fill="#7d48ff" fill-rule="evenodd" stroke="none"/>
      <path d="M45.25 17.9 L38.1 31.8 33.9 29.25 34.05 29.0 34.2 28.9 34.2 28.8 43.7 12.3 43.5 16.0 43.5 16.15 43.9 14.0 44.9 7.75 44.9 7.55 44.9 7.5 Q44.85 5.95 44.95 4.65 L45.0 2.55 Q44.9 1.85 45.3 1.0 L46.6 9.45 45.45 15.15 45.25 17.9 M19.45 8.5 L23.15 5.8 Q23.95 13.75 25.85 19.25 29.0 22.05 32.95 21.8 L32.95 21.4 33.7 21.65 33.25 23.25 33.1 23.7 33.35 23.4 33.4 23.55 33.85 24.8 35.55 22.8 35.7 22.35 Q36.6 19.6 36.6 17.8 36.6 15.25 35.65 11.3 L34.7 7.9 Q34.7 7.25 35.55 5.95 36.2 4.9 37.35 3.8 L37.65 3.45 37.65 3.4 40.3 0.45 37.55 4.2 34.9 7.75 Q39.1 6.5 39.45 6.5 40.8 6.5 41.4 8.95 L41.9 13.0 32.65 27.35 18.7 20.7 19.4 9.0 19.45 8.5 M41.1 -0.8 L41.2 -0.8 40.35 0.3 41.1 -0.8 M42.7 -0.8 L43.25 -0.8 43.25 0.1 43.25 0.3 43.25 2.0 43.35 7.15 43.5 12.3 43.4 10.75 42.1 12.7 42.7 -0.5 42.7 -0.8" fill="#4e38d2" fill-rule="evenodd" stroke="none"/>
      <path d="M15.7 18.9 Q15.45 18.9 15.35 19.1 L14.85 19.2 Q14.6 18.65 15.15 18.2 L15.95 17.55 16.25 17.85 16.2 18.2 15.85 18.9 15.7 18.9 M34.1 8.85 Q33.6 9.8 32.6 9.15 32.5 8.55 32.8 8.0 33.2 7.4 33.75 7.0 L34.0 7.05 34.3 7.2 Q34.55 8.05 34.1 8.85 M34.05 29.0 L33.35 28.95 32.5 28.45 32.4 28.15 32.35 27.9 Q32.35 27.65 32.6 27.65 L33.7 28.05 Q34.1 28.3 34.2 28.8 L34.2 28.9 34.05 29.0" fill="#f1ffff" fill-rule="evenodd" stroke="none"/>
      <path d="M35.05 20.45 L34.7 17.35 34.2 15.6 Q33.25 13.3 30.45 13.05 L29.9 13.0 30.65 11.4 Q31.5 9.95 32.2 9.7 L33.7 11.2 Q35.75 13.65 35.75 16.7 L35.45 19.4 35.2 20.05 35.05 20.45 M39.2 35.9 L23.35 26.65 11.75 31.65 20.3 22.7 36.55 31.65 39.2 35.9" fill="#2e2083" fill-rule="evenodd" stroke="none"/>
      <path d="M0.0 3.65 L3.75 7.5 4.1 9.75 Q13.5 14.0 14.6 16.4 L13.55 19.25 16.15 24.25 8.4 34.45 23.0 27.75 Q32.3 32.75 39.9 37.8 L44.65 28.3 45.25 17.9 45.45 15.15 46.6 9.45 45.3 1.0 45.1 -0.6 45.1 -0.8 M9.6 -0.8 L19.1 8.75 19.45 8.5 23.15 5.8 Q23.95 13.75 25.85 19.25 29.0 22.05 32.95 21.8 L32.95 21.4 33.1 17.55 Q31.6 13.7 28.4 14.25 L30.95 9.15 38.9 -0.8" fill="none" stroke="#1f1c4d" stroke-linecap="round" stroke-linejoin="round" stroke-width="1.0"/>
      <path d="M40.75 20.2 L42.9 15.6 42.6 30.45 42.45 31.4 36.65 28.95 37.05 28.05 38.75 28.35 Q41.15 28.35 41.15 25.2 L40.8 23.05 40.5 21.55 40.75 20.2" fill="#fff39c" fill-rule="evenodd" stroke="none"/>
      <path d="M40.75 20.2 L40.5 21.55 40.8 23.05 41.15 25.2 Q41.15 28.35 38.75 28.35 L37.05 28.05 40.75 20.2" fill="#ffd754" fill-rule="evenodd" stroke="none"/>
      <path d="M37.05 28.05 L36.65 28.95 42.45 31.4 42.6 30.45 42.9 15.6 40.75 20.2 37.05 28.05 M44.25 30.6 L42.4 31.45 41.05 36.1 44.25 30.6 M43.3 13.2 L45.1 30.5 40.7 38.3 35.6 28.85 43.3 13.2" fill="#de8c1c" fill-rule="evenodd" stroke="none"/>
      <path d="M44.25 30.6 L41.05 36.1 42.4 31.45 44.25 30.6" fill="#a34810" fill-rule="evenodd" stroke="none"/>
      <path d="M43.3 13.2 L45.1 30.5 40.7 38.3 35.6 28.85 43.3 13.2 Z" fill="none" stroke="#833737" stroke-linecap="round" stroke-linejoin="round" stroke-width="0.5"/>
      <path d="M51.35 33.65 L54.35 17.75 54.85 16.9 54.85 30.1 53.85 33.25 50.4 44.1 52.0 54.85 49.3 46.85 49.4 43.7 51.35 33.65 M54.85 44.8 L54.85 48.75 54.45 49.2 53.95 46.15 54.85 44.8" fill="#d76b29" fill-rule="evenodd" stroke="none"/>
      <path d="M54.85 14.2 L54.85 16.9 54.35 17.75 51.35 33.65 50.45 33.8 54.0 16.35 54.85 14.2 M54.85 30.1 L54.85 33.05 53.85 33.25 54.85 30.1" fill="#ffd754" fill-rule="evenodd" stroke="none"/>
      <path d="M50.45 33.8 L51.35 33.65 49.4 43.7 49.3 46.85 52.0 54.85 50.4 44.1 53.85 33.25 54.85 33.05 54.85 35.5 54.3 36.6 52.3 47.2 54.2 43.5 54.85 42.9 54.85 44.8 53.95 46.15 54.45 49.2 54.85 48.75 54.85 51.65 54.8 51.65 54.6 54.85 54.0 54.85 52.0 54.85 50.7 54.85 48.5 49.1 48.2 44.85 50.45 33.8 M52.3 47.2 L52.3 47.25 54.0 54.85 52.3 47.25 52.3 47.2" fill="#de8c1c" fill-rule="evenodd" stroke="none"/>
      <path d="M54.85 14.2 L54.0 16.35 50.45 33.8 48.2 44.85 48.5 49.1 50.7 54.85 M54.85 35.5 L54.3 36.6 52.3 47.2 54.2 43.5 54.85 42.9 M54.85 51.65 L54.8 51.65 54.6 54.85 M54.0 54.85 L52.3 47.25 52.3 47.2" fill="none" stroke="#833737" stroke-linecap="round" stroke-linejoin="round" stroke-width="1.0"/>
      <path d="M24.75 65.55 L24.2 65.1 40.55 54.5 32.85 53.1 27.7 57.0 Q22.75 60.75 20.65 61.9 L19.2 60.6 19.3 60.5 39.0 45.1 39.05 45.2 39.65 47.9 39.35 47.55 39.35 47.4 39.15 46.8 39.0 46.75 38.35 46.7 Q37.85 47.15 38.15 48.1 38.35 48.7 38.8 48.95 L39.15 50.0 39.6 51.5 40.55 54.5 41.3 54.6 41.4 54.95 24.8 65.45 24.75 65.55" fill="#7d48ff" fill-rule="evenodd" stroke="none"/>
      <path d="M20.65 61.9 L24.15 65.1 24.05 65.2 17.35 73.9 9.75 66.1 10.6 63.1 13.8 66.15 19.2 60.6 20.65 61.9 M20.2 72.7 L24.75 65.55 24.8 65.45 41.4 54.95 41.3 54.6 39.65 47.9 39.05 45.2 47.15 57.55 50.2 65.0 49.1 66.2 41.3 57.1 25.7 67.45 21.4 73.25 20.2 72.7" fill="#42339a" fill-rule="evenodd" stroke="none"/>
      <path d="M17.35 73.9 L24.05 65.2 24.15 65.1 20.65 61.9 Q22.75 60.75 27.7 57.0 L32.85 53.1 40.55 54.5 24.2 65.1 24.75 65.55 20.2 72.7 17.35 73.9" fill="#4e38d2" fill-rule="evenodd" stroke="none"/>
      <path d="M38.8 48.95 Q38.35 48.7 38.15 48.1 37.85 47.15 38.35 46.7 L39.0 46.75 39.15 46.8 39.35 47.4 39.35 47.55 39.4 48.7 39.3 49.05 38.8 48.95" fill="#f1ffff" fill-rule="evenodd" stroke="none"/>
      <path d="M41.3 54.6 L40.55 54.5 39.6 51.5 39.15 50.0 38.8 48.95 39.3 49.05 39.4 48.7 39.35 47.55 39.65 47.9 41.3 54.6" fill="#b293ff" fill-rule="evenodd" stroke="none"/>
      <path d="M17.35 73.9 L20.2 72.7 21.4 73.25 25.7 67.45 41.3 57.1 49.1 66.2 50.2 65.0 47.15 57.55 39.05 45.2 39.0 45.1 19.3 60.5 19.2 60.6 13.8 66.15 10.6 63.1 9.75 66.1 17.35 73.9 Z" fill="none" stroke="#1f1c4d" stroke-linecap="round" stroke-linejoin="round" stroke-width="1.0"/>
      <path d="M5.05 45.85 L0.0 43.25 0.0 39.9 5.15 43.1 5.5 44.75 5.05 45.85" fill="#fff39c" fill-rule="evenodd" stroke="none"/>
      <path d="M0.0 39.9 L0.0 34.2 4.3 39.5 5.15 43.1 0.0 39.9" fill="#ffd754" fill-rule="evenodd" stroke="none"/>
      <path d="M0.0 43.95 L0.0 43.25 5.05 45.85 1.35 54.05 0.0 54.05 0.0 51.0 1.4 48.85 1.4 50.45 3.75 46.25 0.0 43.95" fill="#de8c1c" fill-rule="evenodd" stroke="none"/>
      <path d="M0.0 43.95 L3.75 46.25 1.4 50.45 1.4 48.85 0.0 51.0 0.0 43.95" fill="#d76b29" fill-rule="evenodd" stroke="none"/>
      <path d="M1.35 54.05 L5.05 45.85 5.5 44.75 5.15 43.1 4.3 39.5 0.0 34.2" fill="none" stroke="#833737" stroke-linecap="round" stroke-linejoin="round" stroke-width="1.0"/>
    </g>
    <g id="shape4" transform="matrix(1.0, 0.0, 0.0, 1.0, 0.0, 0.0)">
      <path d="M50.5 0.0 Q53.95 0.0 53.95 3.3 L53.95 50.15 Q53.95 53.4 50.5 53.4 L3.3 53.4 Q0.0 53.4 0.0 50.15 L0.0 3.3 Q0.0 0.0 3.3 0.0 L50.5 0.0" fill="#000000" fill-opacity="0.003921569" fill-rule="evenodd" stroke="none"/>
    </g>
  </defs>
</svg>
