<?xml version="1.0" encoding="UTF-8" standalone="no"?>
<svg xmlns:ffdec="https://www.free-decompiler.com/flash" xmlns:xlink="http://www.w3.org/1999/xlink" ffdec:objectType="frame" height="96.4px" width="139.75px" xmlns="http://www.w3.org/2000/svg">
  <g transform="matrix(1.0, 0.0, 0.0, 1.0, 85.35, 6.5)">
    <clipPath id="clipPath0" transform="matrix(1.0, 0.0, 0.0, 1.0, 0.0, 0.0)">
      <path d="M50.5 0.0 Q53.95 0.0 53.95 3.3 L53.95 50.15 Q53.95 53.4 50.5 53.4 L3.3 53.4 Q0.0 53.4 0.0 50.15 L0.0 3.3 Q0.0 0.0 3.3 0.0 L50.5 0.0" fill="#000000" fill-rule="evenodd" stroke="none"/>
    </clipPath>
    <g clip-path="url(#clipPath0)">
      <filter id="filter0">
        <feColorMatrix in="SourceGraphic" result="filterResult0" type="matrix" values="0 0 0 0 1.0,0 0 0 0 0.0,0 0 0 0 0.0,0 0 0 1 0"/>
        <feConvolveMatrix divisor="25.0" in="filterResult0" kernelMatrix="1 1 1 1 1 1 1 1 1 1 1 1 1 1 1 1 1 1 1 1 1 1 1 1 1" order="5 5" result="filterResult1"/>
        <feComposite in="SourceGraphic" in2="filterResult1" operator="over" result="filterResult2"/>
        <feColorMatrix in="filterResult2" result="filterResult3" type="matrix" values="0 0 0 0 1.0,0 0 0 0 1.0,0 0 0 0 0.0,0 0 0 1 0"/>
        <feConvolveMatrix divisor="25.0" in="filterResult3" kernelMatrix="1 1 1 1 1 1 1 1 1 1 1 1 1 1 1 1 1 1 1 1 1 1 1 1 1" order="5 5" result="filterResult4"/>
        <feComposite in="filterResult2" in2="filterResult4" operator="over" result="filterResult5"/>
      </filter>
      <use ffdec:characterId="3" filter="url(#filter0)" height="31.6" transform="matrix(-0.1322, -0.7697, 0.4989, -0.2042, 35.85, 32.55)" width="29.1" xlink:href="#sprite0"/>
      <filter id="filter1">
        <feColorMatrix in="SourceGraphic" result="filterResult6" type="matrix" values="0 0 0 0 1.0,0 0 0 0 0.0,0 0 0 0 0.0,0 0 0 1 0"/>
        <feConvolveMatrix divisor="25.0" in="filterResult6" kernelMatrix="1 1 1 1 1 1 1 1 1 1 1 1 1 1 1 1 1 1 1 1 1 1 1 1 1" order="5 5" result="filterResult7"/>
        <feComposite in="SourceGraphic" in2="filterResult7" operator="over" result="filterResult8"/>
        <feColorMatrix in="filterResult8" result="filterResult9" type="matrix" values="0 0 0 0 1.0,0 0 0 0 1.0,0 0 0 0 0.0,0 0 0 1 0"/>
        <feConvolveMatrix divisor="25.0" in="filterResult9" kernelMatrix="1 1 1 1 1 1 1 1 1 1 1 1 1 1 1 1 1 1 1 1 1 1 1 1 1" order="5 5" result="filterResult10"/>
        <feComposite in="filterResult8" in2="filterResult10" operator="over" result="filterResult11"/>
        <feConvolveMatrix divisor="100.0" in="filterResult11" kernelMatrix="1 1 1 1 1 1 1 1 1 1 1 1 1 1 1 1 1 1 1 1 1 1 1 1 1 1 1 1 1 1 1 1 1 1 1 1 1 1 1 1 1 1 1 1 1 1 1 1 1 1 1 1 1 1 1 1 1 1 1 1 1 1 1 1 1 1 1 1 1 1 1 1 1 1 1 1 1 1 1 1 1 1 1 1 1 1 1 1 1 1 1 1 1 1 1 1 1 1 1 1" order="10 10" result="filterResult12"/>
      </filter>
      <use ffdec:characterId="3" filter="url(#filter1)" height="31.6" transform="matrix(-0.1322, -0.7697, 0.4989, -0.2042, 35.85, 33.05)" width="29.1" xlink:href="#sprite0"/>
      <use ffdec:characterId="4" height="90.4" transform="matrix(1.0, 0.0, 0.0, 1.0, -85.35, -0.5)" width="137.4" xlink:href="#shape2"/>
      <filter id="filter2">
        <feConvolveMatrix divisor="25.0" in="SourceGraphic" kernelMatrix="1 1 1 1 1 1 1 1 1 1 1 1 1 1 1 1 1 1 1 1 1 1 1 1 1" order="5 5" result="filterResult13"/>
      </filter>
      <use ffdec:characterId="6" filter="url(#filter2)" height="38.75" transform="matrix(-0.622, 0.0, 0.0, 0.622, 5.1602, -1.9454)" width="9.45" xlink:href="#sprite1"/>
      <use ffdec:characterId="7" height="60.95" transform="matrix(1.0, 0.0, 0.0, 1.0, -1.45, 4.65)" width="55.85" xlink:href="#shape4"/>
      <filter id="filter3">
        <feConvolveMatrix divisor="25.0" in="SourceGraphic" kernelMatrix="1 1 1 1 1 1 1 1 1 1 1 1 1 1 1 1 1 1 1 1 1 1 1 1 1" order="5 5" result="filterResult14"/>
      </filter>
      <use ffdec:characterId="9" filter="url(#filter3)" height="51.85" style="mix-blend-mode: overlay" transform="matrix(-0.622, 0.0, 0.0, 0.622, 43.65, 6.1)" width="50.4" xlink:href="#sprite2"/>
      <filter id="filter4">
        <feColorMatrix in="SourceGraphic" result="filterResult15" type="matrix" values="0 0 0 0 1.0,0 0 0 0 0.0,0 0 0 0 0.0,0 0 0 1 0"/>
        <feConvolveMatrix divisor="25.0" in="filterResult15" kernelMatrix="1 1 1 1 1 1 1 1 1 1 1 1 1 1 1 1 1 1 1 1 1 1 1 1 1" order="5 5" result="filterResult16"/>
        <feComposite in="SourceGraphic" in2="filterResult16" operator="over" result="filterResult17"/>
        <feColorMatrix in="filterResult17" result="filterResult18" type="matrix" values="0 0 0 0 1.0,0 0 0 0 1.0,0 0 0 0 0.0,0 0 0 1 0"/>
        <feConvolveMatrix divisor="25.0" in="filterResult18" kernelMatrix="1 1 1 1 1 1 1 1 1 1 1 1 1 1 1 1 1 1 1 1 1 1 1 1 1" order="5 5" result="filterResult19"/>
        <feComposite in="filterResult17" in2="filterResult19" operator="over" result="filterResult20"/>
      </filter>
      <use ffdec:characterId="3" filter="url(#filter4)" height="31.6" transform="matrix(-0.6963, -0.6255, 0.5587, -0.5571, 10.55, 29.3)" width="29.1" xlink:href="#sprite0"/>
      <filter id="filter5">
        <feColorMatrix in="SourceGraphic" result="filterResult21" type="matrix" values="0 0 0 0 1.0,0 0 0 0 0.0,0 0 0 0 0.0,0 0 0 1 0"/>
        <feConvolveMatrix divisor="25.0" in="filterResult21" kernelMatrix="1 1 1 1 1 1 1 1 1 1 1 1 1 1 1 1 1 1 1 1 1 1 1 1 1" order="5 5" result="filterResult22"/>
        <feComposite in="SourceGraphic" in2="filterResult22" operator="over" result="filterResult23"/>
        <feColorMatrix in="filterResult23" result="filterResult24" type="matrix" values="0 0 0 0 1.0,0 0 0 0 1.0,0 0 0 0 0.0,0 0 0 1 0"/>
        <feConvolveMatrix divisor="25.0" in="filterResult24" kernelMatrix="1 1 1 1 1 1 1 1 1 1 1 1 1 1 1 1 1 1 1 1 1 1 1 1 1" order="5 5" result="filterResult25"/>
        <feComposite in="filterResult23" in2="filterResult25" operator="over" result="filterResult26"/>
        <feConvolveMatrix divisor="100.0" in="filterResult26" kernelMatrix="1 1 1 1 1 1 1 1 1 1 1 1 1 1 1 1 1 1 1 1 1 1 1 1 1 1 1 1 1 1 1 1 1 1 1 1 1 1 1 1 1 1 1 1 1 1 1 1 1 1 1 1 1 1 1 1 1 1 1 1 1 1 1 1 1 1 1 1 1 1 1 1 1 1 1 1 1 1 1 1 1 1 1 1 1 1 1 1 1 1 1 1 1 1 1 1 1 1 1 1" order="10 10" result="filterResult27"/>
      </filter>
      <use ffdec:characterId="3" filter="url(#filter5)" height="31.6" transform="matrix(-0.6963, -0.6255, 0.5587, -0.5571, 11.65, 30.05)" width="29.1" xlink:href="#sprite0"/>
    </g>
    <use ffdec:characterId="10" height="53.4" transform="matrix(1.0, 0.0, 0.0, 1.0, 0.0, 0.0)" width="53.95" xlink:href="#shape6"/>
  </g>
  <defs>
    <g id="sprite0" transform="matrix(1.0, 0.0, 0.0, 1.0, 0.0, 0.0)">
      <use ffdec:characterId="2" height="31.6" transform="matrix(1.0, 0.0, 0.0, 1.0, 0.0, 0.0)" width="29.1" xlink:href="#shape1"/>
    </g>
    <g id="shape1" transform="matrix(1.0, 0.0, 0.0, 1.0, 0.0, 0.0)">
      <path d="M19.3 21.75 L29.1 21.75 26.2 25.0 26.1 25.0 26.0 25.2 20.35 31.6 6.1 24.15 2.35 20.55 5.4 20.7 0.0 0.0 6.15 4.55 19.3 21.75" fill="#fff6d0" fill-opacity="0.39607844" fill-rule="evenodd" stroke="none"/>
    </g>
    <g id="shape2" transform="matrix(1.0, 0.0, 0.0, 1.0, 85.35, 0.5)">
      <path d="M40.9 7.0 Q39.05 7.6 39.7 5.7 L39.85 5.55 Q40.8 5.95 40.9 6.85 L40.9 7.0 M48.5 14.8 Q45.95 13.95 47.65 11.2 48.85 12.45 48.55 14.65 L48.5 14.8" fill="#ffffff" fill-rule="evenodd" stroke="none"/>
      <path d="M28.75 0.0 L30.3 0.0 35.2 3.3 35.5 3.95 36.0 5.4 37.0 5.3 38.9 5.5 38.9 5.3 Q37.9 4.8 32.8 0.0 L33.9 0.0 Q37.6 3.35 38.6 4.65 L38.8 4.85 38.6 4.05 41.5 6.65 40.35 15.65 Q33.75 8.95 28.75 0.0 M49.45 1.0 L49.25 14.5 49.4 14.3 49.2 15.1 49.05 15.8 Q49.2 18.75 48.8 21.35 48.4 24.5 47.6 27.5 L42.25 20.0 41.75 16.8 41.2 13.1 44.6 6.95 47.5 2.1 49.45 1.0 M49.95 13.75 L51.55 11.75 Q51.65 21.0 49.95 30.0 L49.2 29.95 48.2 27.1 48.25 26.9 Q49.5 22.05 49.55 15.9 L49.95 13.75 M40.9 7.0 L40.9 6.85 Q40.8 5.95 39.85 5.55 L39.7 5.7 Q39.05 7.6 40.9 7.0 M48.5 14.8 L48.55 14.65 Q48.85 12.45 47.65 11.2 45.95 13.95 48.5 14.8" fill="#fff18e" fill-rule="evenodd" stroke="none"/>
      <path d="M12.3 0.0 L14.2 0.0 14.8 2.6 21.2 8.25 21.75 8.75 Q21.45 7.9 22.05 7.8 L29.75 6.35 30.45 8.05 Q32.0 12.25 33.05 13.3 L34.45 14.3 36.5 16.05 36.6 16.05 36.6 15.65 36.1 12.9 35.55 10.75 38.9 15.1 Q40.05 16.65 40.85 18.35 L45.45 31.5 46.6 32.15 49.05 33.75 48.35 34.7 34.45 30.2 34.1 28.45 38.6 30.1 40.5 30.1 37.65 26.35 37.05 25.55 32.95 23.35 32.6 21.75 28.9 20.0 Q25.9 18.65 20.95 15.5 16.35 12.65 15.8 12.5 L15.95 12.5 17.65 12.25 18.0 12.15 21.7 11.85 22.95 11.95 22.7 10.75 12.65 3.05 12.3 0.1 12.3 0.0 M42.15 27.45 Q41.55 23.1 39.85 19.0 L38.95 16.65 38.15 15.5 37.2 14.15 37.35 18.1 31.8 13.4 30.95 11.85 28.9 8.25 25.95 8.85 22.75 9.55 23.35 11.0 24.35 13.0 21.3 12.85 18.7 13.05 Q23.4 16.15 27.25 18.35 L32.4 21.3 32.75 21.85 33.75 22.35 34.95 22.95 36.7 23.95 37.05 24.15 37.35 24.55 39.75 28.35 42.45 29.9 42.15 27.45 M22.4 10.0 L22.65 10.35 22.65 10.1 22.4 10.0" fill="#ffdf77" fill-rule="evenodd" stroke="none"/>
      <path d="M0.2 0.0 L9.15 0.0 9.3 0.45 9.35 0.55 Q9.45 1.95 10.4 6.25 L9.75 8.25 9.0 9.8 5.5 8.45 3.1 7.4 Q1.35 6.8 0.5 6.8 L2.35 5.8 3.75 4.95 1.4 0.7 0.2 0.0" fill="#ffc34f" fill-rule="evenodd" stroke="none"/>
      <path d="M-84.85 86.65 L-83.2 86.65 -84.8 89.4 -84.85 86.65" fill="#ffe180" fill-rule="evenodd" stroke="none"/>
      <path d="M-0.25 22.1 L-0.25 20.8 1.7 20.15 1.9 20.15 -0.25 22.1 M-0.25 9.1 L-0.25 0.0 0.2 0.0 1.4 0.7 3.75 4.95 2.35 5.8 0.5 6.8 Q1.35 6.8 3.1 7.4 L5.5 8.45 9.0 9.8 9.75 8.25 10.4 6.25 Q9.45 1.95 9.35 0.55 L9.3 0.45 9.15 0.0 12.3 0.0 12.3 0.1 12.65 3.05 22.7 10.75 22.95 11.95 21.7 11.85 18.0 12.15 17.65 12.25 15.95 12.5 15.8 12.5 Q16.35 12.65 20.95 15.5 25.9 18.65 28.9 20.0 L32.6 21.75 32.95 23.35 19.25 15.9 Q12.85 12.45 6.25 9.65 L3.4 8.5 -0.25 9.1 M34.45 30.2 L25.8 27.4 17.15 42.1 5.8 45.1 7.75 43.5 -0.25 44.25 -0.25 42.8 0.25 42.75 Q5.55 42.4 10.9 41.0 L10.6 42.35 10.15 43.2 10.35 43.2 Q14.3 41.65 15.95 40.55 17.45 39.5 18.5 37.75 L21.05 33.25 Q23.05 29.85 26.2 25.85 L28.75 26.65 34.1 28.45 34.45 30.2 M22.4 10.0 L22.65 10.1 22.65 10.35 22.4 10.0" fill="url(#gradient0)" fill-rule="evenodd" stroke="none"/>
      <path d="M14.2 0.0 L28.75 0.0 Q33.75 8.95 40.35 15.65 L41.5 6.65 38.6 4.05 38.8 4.85 38.6 4.65 Q37.6 3.35 33.9 0.0 L35.45 0.0 38.0 2.2 42.65 6.35 46.05 1.95 48.75 0.0 49.55 0.0 49.45 1.0 47.5 2.1 44.6 6.95 41.2 13.1 41.75 16.8 42.25 20.0 47.6 27.5 Q48.4 24.5 48.8 21.35 49.2 18.75 49.05 15.8 L49.2 15.1 49.4 14.3 49.95 13.75 49.55 15.9 Q49.5 22.05 48.25 26.9 L48.2 27.1 49.2 29.95 49.95 30.0 49.35 33.15 49.05 33.75 46.6 32.15 45.45 31.5 40.85 18.35 Q40.05 16.65 38.9 15.1 L35.55 10.75 36.1 12.9 36.6 15.65 36.6 16.05 36.5 16.05 34.45 14.3 33.05 13.3 Q32.0 12.25 30.45 8.05 L29.75 6.35 22.05 7.8 Q21.45 7.9 21.75 8.75 L21.2 8.25 14.8 2.6 14.2 0.0 M30.3 0.0 L32.8 0.0 Q37.9 4.8 38.9 5.3 L38.9 5.5 37.0 5.3 36.0 5.4 35.5 3.95 35.2 3.3 30.3 0.0" fill="url(#gradient1)" fill-rule="evenodd" stroke="none"/>
      <path d="M42.15 27.45 L42.45 29.9 39.75 28.35 37.35 24.55 37.05 24.15 36.7 23.95 34.95 22.95 33.75 22.35 32.75 21.85 32.4 21.3 27.25 18.35 Q23.4 16.15 18.7 13.05 L21.3 12.85 24.35 13.0 23.35 11.0 22.75 9.55 25.95 8.85 28.9 8.25 30.95 11.85 31.8 13.4 37.35 18.1 37.2 14.15 38.15 15.5 38.95 16.65 39.85 19.0 Q41.55 23.1 42.15 27.45" fill="url(#gradient2)" fill-rule="evenodd" stroke="none"/>
      <path d="M-0.25 22.1 L1.9 20.15 1.7 20.15 -0.25 20.8 -0.25 9.1 3.4 8.5 6.25 9.65 Q12.85 12.45 19.25 15.9 L32.95 23.35 37.05 25.55 37.65 26.35 40.5 30.1 38.6 30.1 34.1 28.45 28.75 26.65 26.2 25.85 Q23.05 29.85 21.05 33.25 L18.5 37.75 Q17.45 39.5 15.95 40.55 14.3 41.65 10.35 43.2 L10.15 43.2 10.6 42.35 10.9 41.0 Q5.55 42.4 0.25 42.75 L-0.25 42.8 -0.25 22.1" fill="url(#gradient3)" fill-rule="evenodd" stroke="none"/>
      <path d="M35.45 0.0 L38.0 2.2 42.65 6.35 46.05 1.95 48.75 0.0 M49.55 0.0 L49.45 1.0 49.25 14.5 49.4 14.3 49.95 13.75 51.55 11.75" fill="none" stroke="#c66f3a" stroke-linecap="round" stroke-linejoin="round" stroke-width="1.0"/>
      <path d="M49.95 30.0 L49.35 33.15 49.05 33.75 48.35 34.7 34.45 30.2 25.8 27.4 17.15 42.1 5.8 45.1 7.75 43.5 -0.25 44.25" fill="none" stroke="#742712" stroke-linecap="round" stroke-linejoin="round" stroke-width="1.0"/>
      <path d="M51.55 11.75 Q51.65 21.0 49.95 30.0" fill="none" stroke="#b64526" stroke-linecap="round" stroke-linejoin="round" stroke-width="1.0"/>
      <path d="M-84.85 86.65 L-84.8 89.4 -83.2 86.65" fill="none" stroke="#ff7d2c" stroke-linecap="round" stroke-linejoin="round" stroke-width="1.0"/>
    </g>
    <linearGradient gradientTransform="matrix(-0.0569, 0.0186, 0.0142, 0.0435, -19.3, 31.0)" gradientUnits="userSpaceOnUse" id="gradient0" spreadMethod="pad" x1="-819.2" x2="819.2">
      <stop offset="0.0" stop-color="#ff933f"/>
      <stop offset="1.0" stop-color="#ffd54d" stop-opacity="0.9882353"/>
    </linearGradient>
    <linearGradient gradientTransform="matrix(0.0351, 0.0436, 0.0148, -0.0119, 18.5, -6.8)" gradientUnits="userSpaceOnUse" id="gradient1" spreadMethod="pad" x1="-819.2" x2="819.2">
      <stop offset="0.0" stop-color="#ffca46"/>
      <stop offset="1.0" stop-color="#ffd54d" stop-opacity="0.9882353"/>
    </linearGradient>
    <linearGradient gradientTransform="matrix(0.0351, 0.0436, 0.0148, -0.0119, 18.5, -6.8)" gradientUnits="userSpaceOnUse" id="gradient2" spreadMethod="pad" x1="-819.2" x2="819.2">
      <stop offset="0.0" stop-color="#ffa146"/>
      <stop offset="1.0" stop-color="#ffd54d" stop-opacity="0.9882353"/>
    </linearGradient>
    <linearGradient gradientTransform="matrix(-0.0373, 0.0151, 0.0084, 0.0207, -3.95, 29.25)" gradientUnits="userSpaceOnUse" id="gradient3" spreadMethod="pad" x1="-819.2" x2="819.2">
      <stop offset="0.0" stop-color="#62362d"/>
      <stop offset="1.0" stop-color="#ff994a" stop-opacity="0.9882353"/>
    </linearGradient>
    <g id="sprite1" transform="matrix(1.0, 0.0, 0.0, 1.0, 55.4, 12.05)">
      <use ffdec:characterId="5" height="38.75" transform="matrix(1.0, 0.0, 0.0, 1.0, -55.4, -12.05)" width="9.45" xlink:href="#shape3"/>
    </g>
    <g id="shape3" transform="matrix(1.0, 0.0, 0.0, 1.0, 55.4, 12.05)">
      <path d="M-45.95 -10.25 L-47.7 -9.7 -48.35 -9.5 -45.95 -12.05 -45.95 -10.25 M-49.1 -8.5 L-50.4 -4.0 -51.05 -1.15 Q-48.95 -0.2 -46.75 -0.1 -49.7 1.95 -52.6 3.1 L-45.95 4.7 -45.95 5.75 -53.0 3.25 -55.4 3.9 Q-53.3 2.05 -50.65 0.4 -51.85 0.1 -52.75 -0.95 -51.5 -5.15 -49.1 -8.5 M-45.95 24.45 L-46.5 23.75 Q-46.75 23.45 -46.35 23.55 L-45.95 23.9 -45.95 24.45 M-45.95 26.7 Q-46.95 25.45 -45.95 24.6 L-45.95 26.7" fill="#fff0bf" fill-rule="evenodd" stroke="none"/>
    </g>
    <g id="shape4" transform="matrix(1.0, 0.0, 0.0, 1.0, 1.45, -4.65)">
      <path d="M44.4 41.85 L45.6 44.75 43.95 45.8 43.45 51.6 45.95 57.75 36.35 52.85 28.9 41.4 28.9 30.15 44.3 37.65 44.35 37.7 44.4 41.85" fill="#ffa73c" fill-rule="evenodd" stroke="none"/>
      <path d="M44.4 41.85 L45.6 44.75 43.95 45.8 43.45 51.6 45.95 57.75 36.35 52.85 28.9 41.4 28.9 30.15 44.3 37.65 44.35 37.7 44.4 41.85 Z" fill="none" stroke="#742712" stroke-linecap="round" stroke-linejoin="round" stroke-width="1.0"/>
      <path d="M-0.95 49.8 L0.0 49.55 3.9 48.55 Q6.55 47.7 18.8 45.55 L20.55 45.45 Q20.95 45.45 21.25 45.15 22.45 44.05 22.65 39.85 L31.15 43.2 32.8 45.45 Q34.05 46.95 34.7 49.5 35.35 52.5 35.55 52.75 L35.65 52.8 37.0 53.3 37.2 53.35 38.7 53.95 37.35 53.95 36.75 53.5 36.7 53.45 35.7 53.05 Q32.95 51.95 29.95 51.4 L26.1 50.6 23.05 49.85 22.55 50.05 22.45 52.1 22.55 53.95 13.4 53.95 13.25 52.9 13.25 52.75 10.25 51.45 3.05 51.45 -0.95 50.75 -0.95 49.8" fill="#ee6b2b" fill-rule="evenodd" stroke="none"/>
      <path d="M-0.95 49.25 L6.4 47.0 6.25 46.1 11.5 45.05 19.95 42.5 20.05 42.55 20.9 43.1 22.3 39.7 22.65 39.85 Q22.45 44.05 21.25 45.15 20.95 45.45 20.55 45.45 L18.8 45.55 Q6.55 47.7 3.9 48.55 L0.0 49.55 -0.95 49.8 -0.95 49.25 M31.15 43.2 L32.05 43.55 34.75 47.15 36.55 51.4 42.15 53.6 42.6 53.95 38.7 53.95 37.2 53.35 37.0 53.3 35.65 52.8 35.55 52.75 Q35.35 52.5 34.7 49.5 34.05 46.95 32.8 45.45 L31.15 43.2 M37.35 53.95 L22.55 53.95 22.45 52.1 22.55 50.05 23.05 49.85 26.1 50.6 29.95 51.4 Q32.95 51.95 35.7 53.05 L36.7 53.45 36.75 53.5 37.35 53.95 M13.4 53.95 L-0.95 53.95 -0.95 50.75 3.05 51.45 10.25 51.45 13.25 52.75 13.25 52.9 13.4 53.95" fill="#ffa73c" fill-rule="evenodd" stroke="none"/>
      <path d="M20.05 42.55 L19.95 42.5 11.5 45.05 6.25 46.1 6.4 47.0 -0.95 49.25 M22.65 39.85 L22.3 39.7 20.9 43.1 M31.15 43.2 L32.05 43.55 34.75 47.15 36.55 51.4 42.15 53.6 42.6 53.95 M31.15 43.2 L22.65 39.85" fill="none" stroke="#742712" stroke-linecap="round" stroke-linejoin="round" stroke-width="1.0"/>
      <path d="M48.0 40.65 L48.1 40.6 48.1 40.65 48.0 40.65 M52.85 58.45 L53.0 58.65 45.35 64.4 43.45 65.1 43.85 63.45 48.9 58.55 44.6 54.15 42.4 51.1 43.75 45.9 45.3 45.0 44.9 42.3 46.65 41.4 46.75 52.3 44.95 51.9 43.95 51.75 49.7 58.1 52.85 58.45" fill="#ffa73c" fill-rule="evenodd" stroke="none"/>
      <path d="M48.1 40.65 L48.55 52.25 50.95 55.75 50.85 56.35 50.1 56.35 44.95 51.9 46.75 52.3 46.65 41.4 48.0 40.65 48.1 40.65" fill="#fed13c" fill-rule="evenodd" stroke="none"/>
      <path d="M50.95 55.75 L52.85 58.45 49.7 58.1 43.95 51.75 44.95 51.9 50.1 56.35 50.85 56.35 50.95 55.75" fill="#fef08d" fill-rule="evenodd" stroke="none"/>
      <path d="M48.1 40.6 L48.1 40.65 48.55 52.25 50.95 55.75 52.85 58.45 53.0 58.65 45.35 64.4 43.45 65.1 43.85 63.45 48.9 58.55 44.6 54.15 42.4 51.1 43.75 45.9 45.3 45.0 44.9 42.3 46.65 41.4 48.0 40.65 48.1 40.65" fill="none" stroke="#742712" stroke-linecap="round" stroke-linejoin="round" stroke-width="1.0"/>
      <path d="M0.0 32.35 L0.0 22.85 5.4 23.7 7.95 30.95 1.0 31.35 0.0 32.35" fill="#ffa73c" fill-rule="evenodd" stroke="none"/>
      <path d="M5.4 23.7 L0.0 22.85 0.0 18.45 3.7 19.0 5.4 23.7" fill="#ffc34f" fill-rule="evenodd" stroke="none"/>
      <path d="M7.95 30.95 L5.4 23.7 3.7 19.0 0.0 18.45" fill="none" stroke="#cd602b" stroke-linecap="round" stroke-linejoin="round" stroke-width="1.0"/>
      <path d="M0.0 32.35 L1.0 31.35" fill="none" stroke="#773211" stroke-linecap="round" stroke-linejoin="round" stroke-width="1.0"/>
      <path d="M1.0 31.35 L7.95 30.95" fill="none" stroke="#954118" stroke-linecap="round" stroke-linejoin="round" stroke-width="1.0"/>
      <path d="M26.8 42.8 L26.55 29.7 41.1 33.7 45.25 38.85 42.95 41.65 42.65 41.45 42.15 42.1 41.75 42.55 Q41.3 43.25 41.3 44.25 L41.15 44.25 41.15 43.25 41.3 41.5 41.35 40.6 40.8 40.15 Q38.75 38.75 37.55 38.1 L33.5 38.45 32.8 38.5 32.3 39.8 32.3 39.95 31.95 41.9 Q31.2 40.85 30.35 38.75 L30.1 38.75 28.85 38.95 29.3 43.1 29.85 43.75 30.1 44.0 30.8 44.9 29.45 44.2 28.8 43.85 26.8 42.8" fill="#a1d3e5" fill-rule="evenodd" stroke="none"/>
      <path d="M42.95 41.65 L42.45 42.35 42.15 42.1 42.65 41.45 42.95 41.65 M35.2 47.6 L34.5 47.9 29.5 44.95 26.8 43.25 26.8 42.8 28.8 43.85 29.45 44.2 30.8 44.9 30.1 44.0 29.85 43.75 29.3 43.1 28.85 38.95 30.1 38.75 30.35 38.75 Q31.2 40.85 31.95 41.9 L32.3 39.95 32.3 39.8 32.8 38.5 33.5 38.45 37.55 38.1 Q38.75 38.75 40.8 40.15 L41.35 40.6 41.3 41.5 40.6 41.0 Q37.9 39.2 36.75 38.95 L36.55 38.95 33.65 39.3 33.15 39.4 32.9 40.2 32.8 40.4 Q32.2 42.4 32.2 43.45 L31.05 41.05 30.6 40.1 29.65 40.45 Q29.65 42.1 29.8 43.1 L31.8 45.4 32.0 45.55 35.2 47.6" fill="#ddf4fc" fill-rule="evenodd" stroke="none"/>
      <path d="M42.45 42.35 L42.25 42.55 41.55 44.7 35.2 47.6 32.0 45.55 31.8 45.4 29.8 43.1 Q29.65 42.1 29.65 40.45 L30.6 40.1 31.05 41.05 32.2 43.45 Q32.2 42.4 32.8 40.4 L32.9 40.2 33.15 39.4 33.65 39.3 36.55 38.95 36.75 38.95 Q37.9 39.2 40.6 41.0 L41.3 41.5 41.15 43.25 41.15 44.25 41.3 44.25 Q41.3 43.25 41.75 42.55 L42.15 42.1 42.45 42.35" fill="#ffffff" fill-rule="evenodd" stroke="none"/>
      <path d="M26.8 42.8 L26.55 29.7 41.1 33.7 45.25 38.85 42.95 41.65 42.45 42.35 42.25 42.55 41.55 44.7 35.2 47.6 34.5 47.9 29.5 44.95 26.8 43.25 26.8 42.8 Z" fill="none" stroke="#5d2121" stroke-linecap="round" stroke-linejoin="round" stroke-width="1.0"/>
      <path d="M29.65 32.75 L29.55 32.65 30.0 35.3 30.6 37.5 30.9 37.75 32.1 38.5 32.0 39.9 32.75 39.05 33.3 38.45 34.05 38.6 35.5 38.7 37.3 38.45 38.35 38.05 37.1 37.3 36.7 36.4 36.15 35.75 Q35.4 34.9 34.15 34.15 32.4 33.05 29.65 32.75 M29.05 33.45 L29.15 31.3 35.75 34.7 36.05 35.0 36.35 35.25 36.6 35.45 37.45 36.2 39.6 37.95 Q38.5 38.6 37.6 38.7 L36.45 38.95 34.75 39.0 33.5 38.9 32.5 40.1 Q31.75 41.05 31.75 41.25 L31.55 38.75 30.9 38.25 29.95 37.75 29.95 37.7 29.35 37.6 Q29.05 35.2 29.05 33.45" fill="#51b7ff" fill-rule="evenodd" stroke="none"/>
      <path d="M30.9 37.75 L30.6 37.5 30.0 35.3 29.55 32.65 29.65 32.75 31.2 33.7 31.0 33.9 Q30.75 34.4 30.75 35.05 30.75 36.05 31.45 36.85 L31.35 36.7 31.0 35.7 Q30.9 35.3 31.1 34.8 31.25 34.3 31.75 33.9 L32.6 34.5 32.0 35.0 Q31.65 35.5 31.65 36.05 31.65 36.95 32.1 37.55 L30.9 37.75 M32.65 37.4 L34.8 36.5 35.4 36.2 35.65 36.3 Q35.3 37.35 34.35 37.45 34.55 37.7 34.85 37.7 L34.9 37.7 33.75 37.95 Q33.2 37.95 32.65 37.4" fill="#adfff3" fill-rule="evenodd" stroke="none"/>
      <path d="M29.65 32.75 Q32.4 33.05 34.15 34.15 35.4 34.9 36.15 35.75 L36.7 36.4 37.1 37.3 36.6 36.95 36.1 37.9 35.7 38.25 34.6 38.5 32.75 38.05 32.1 37.55 Q31.65 36.95 31.65 36.05 31.65 35.5 32.0 35.0 L32.6 34.5 31.75 33.9 Q31.25 34.3 31.1 34.8 30.9 35.3 31.0 35.7 L31.35 36.7 31.45 36.85 Q30.75 36.05 30.75 35.05 30.75 34.4 31.0 33.9 L31.2 33.7 29.65 32.75 M35.4 36.2 L32.65 34.55 32.65 34.6 Q32.3 34.7 32.1 35.1 31.95 35.4 31.95 35.85 31.95 36.55 32.5 37.2 L32.65 37.4 Q33.2 37.95 33.75 37.95 L34.9 37.7 34.85 37.7 Q34.55 37.7 34.35 37.45 35.3 37.35 35.65 36.3 L35.4 36.2" fill="#50c2e7" fill-rule="evenodd" stroke="none"/>
      <path d="M32.65 37.4 L32.5 37.2 Q31.95 36.55 31.95 35.85 31.95 35.4 32.1 35.1 32.3 34.7 32.65 34.6 L32.65 34.55 35.4 36.2 34.8 36.5 32.65 37.4" fill="#e7fffb" fill-rule="evenodd" stroke="none"/>
      <path d="M37.1 37.3 L38.35 38.05 37.3 38.45 35.5 38.7 34.05 38.6 33.3 38.45 32.75 39.05 32.0 39.9 32.1 38.5 30.9 37.75 32.1 37.55 32.75 38.05 34.6 38.5 35.7 38.25 36.1 37.9 36.6 36.95 37.1 37.3" fill="#65f0dc" fill-rule="evenodd" stroke="none"/>
      <path d="M-0.25 9.6 L2.55 11.15 4.95 12.25 11.4 12.85 11.45 12.9 7.75 14.9 11.85 23.8 14.35 26.8 6.55 27.1 4.7 26.15 6.65 26.35 5.25 20.65 -0.25 15.8 -0.25 9.6" fill="#fff18e" fill-rule="evenodd" stroke="none"/>
      <path d="M-0.25 8.95 Q2.4 10.4 5.35 11.65 L19.65 12.2 19.4 11.05 Q25.7 12.0 31.45 14.6 L32.1 12.4 Q38.95 20.0 43.65 27.95 L30.3 28.45 28.45 34.75 29.15 38.95 28.1 40.25 28.05 42.35 26.35 41.35 25.75 48.25 21.8 40.65 21.7 40.45 15.9 47.3 15.9 42.25 15.8 37.4 15.85 34.55 15.9 29.15 16.0 27.2 15.6 27.25 12.75 30.15 10.4 32.45 Q11.7 30.75 13.25 27.3 L9.55 27.4 6.8 27.65 6.25 27.75 6.25 27.5 5.75 27.2 2.8 25.8 2.35 25.55 4.35 25.95 6.0 26.0 5.35 23.35 4.45 20.15 -0.25 16.4 -0.25 15.8 5.25 20.65 6.65 26.35 4.7 26.15 6.55 27.1 14.35 26.8 11.85 23.8 7.75 14.9 11.45 12.9 11.4 12.85 4.95 12.25 2.55 11.15 -0.25 9.6 -0.25 8.95 M4.9 34.9 L5.45 34.8 11.7 36.4 13.35 34.4 15.15 32.2 15.25 32.2 15.05 36.0 15.05 37.3 13.75 37.1 8.85 37.1 8.85 38.05 Q8.55 37.75 8.4 37.0 L8.25 36.6 2.7 36.15 Q3.7 35.55 4.9 34.9" fill="#ffd23c" fill-rule="evenodd" stroke="none"/>
      <path d="M-0.25 16.4 L4.45 20.15 5.35 23.35 6.0 26.0 4.35 25.95 2.35 25.55 2.8 25.8 5.75 27.2 6.25 27.5 6.25 27.75 6.8 27.65 9.55 27.4 13.25 27.3 Q11.7 30.75 10.4 32.45 L12.75 30.15 15.6 27.25 16.0 27.2 15.9 29.15 15.85 34.55 15.8 37.4 15.9 42.25 15.9 47.3 21.7 40.45 21.8 40.65 25.75 48.25 26.35 41.35 28.05 42.35 27.6 50.0 29.0 55.65 Q25.55 53.65 21.85 50.6 L18.35 45.95 15.4 48.5 Q14.35 44.85 14.2 40.15 L7.2 39.7 6.25 38.4 -0.25 38.4 -0.25 37.85 Q0.65 37.25 1.8 36.6 L2.7 36.15 8.25 36.6 8.4 37.0 Q8.55 37.75 8.85 38.05 L8.85 37.1 13.75 37.1 15.05 37.3 15.05 36.0 15.25 32.2 15.15 32.2 13.35 34.4 11.7 36.4 5.45 34.8 4.9 34.9 5.25 34.75 5.35 34.7 5.45 34.55 6.4 33.45 7.0 32.7 2.8 28.9 -0.25 25.7 -0.25 21.15 0.1 20.85 1.05 20.05 -0.25 18.65 -0.25 16.4" fill="#ffa73c" fill-rule="evenodd" stroke="none"/>
      <path d="M-0.25 18.65 L1.05 20.05 0.1 20.85 -0.25 21.15 -0.25 19.9 0.0 19.65 -0.25 19.4 -0.25 18.65 M-0.25 25.7 L2.8 28.9 7.0 32.7 6.4 33.45 5.45 34.55 5.35 34.7 5.25 34.75 4.9 34.9 Q3.7 35.55 2.7 36.15 L1.8 36.6 Q0.65 37.25 -0.25 37.85 L-0.25 35.45 0.4 34.8 5.0 32.8 Q2.0 29.8 -0.25 26.6 L-0.25 25.7" fill="#ff9898" fill-rule="evenodd" stroke="none"/>
      <path d="M43.65 27.95 Q38.95 20.0 32.1 12.4 L31.45 14.6 Q25.7 12.0 19.4 11.05 L19.65 12.2 5.35 11.65 Q2.4 10.4 -0.25 8.95" fill="none" stroke="#cd602b" stroke-linecap="round" stroke-linejoin="round" stroke-width="1.0"/>
      <path d="M28.05 42.35 L28.1 40.25 29.15 38.95 28.45 34.75 30.3 28.45 43.65 27.95 M-0.25 38.4 L6.25 38.4 7.2 39.7 14.2 40.15 Q14.35 44.85 15.4 48.5 L18.35 45.95 21.85 50.6 Q25.55 53.65 29.0 55.65 L27.6 50.0 28.05 42.35 M-0.25 26.6 Q2.0 29.8 5.0 32.8 L0.4 34.8 -0.25 35.45 M-0.25 19.4 L0.0 19.65 -0.25 19.9" fill="none" stroke="#742712" stroke-linecap="round" stroke-linejoin="round" stroke-width="1.0"/>
      <path d="M10.55 51.85 L11.25 51.9 12.85 48.9 5.45 49.35 -0.7 44.65 -0.7 44.0 5.0 48.65 13.5 48.05 13.8 50.4 21.7 53.75 20.7 53.75 13.7 50.9 12.15 52.55 14.3 53.75 12.3 53.75 11.6 53.35 1.6 52.5 -0.7 51.5 -0.7 50.0 1.5 51.15 10.55 51.85" fill="#ffa73c" fill-rule="evenodd" stroke="none"/>
      <path d="M-0.7 49.45 Q0.8 50.25 2.35 50.75 L5.75 50.95 8.2 51.0 10.55 51.85 1.5 51.15 -0.7 50.0 -0.7 49.45" fill="#fef08d" fill-rule="evenodd" stroke="none"/>
      <path d="M-0.7 44.65 L5.45 49.35 12.85 48.9 11.25 51.9 10.55 51.85 8.2 51.0 5.75 50.95 2.35 50.75 Q0.8 50.25 -0.7 49.45 L-0.7 44.65 M14.3 53.75 L12.15 52.55 13.7 50.9 20.7 53.75 14.3 53.75" fill="#fed13c" fill-rule="evenodd" stroke="none"/>
      <path d="M-0.7 51.5 L1.6 52.5 11.6 53.35 12.3 53.75 M21.7 53.75 L13.8 50.4 13.5 48.05 5.0 48.65 -0.7 44.0" fill="none" stroke="#742712" stroke-linecap="round" stroke-linejoin="round" stroke-width="1.0"/>
      <path d="M12.15 5.15 L12.45 5.55 12.6 6.4 13.55 9.85 13.65 10.0 13.7 10.15 13.8 10.5 14.15 11.6 14.0 11.2 13.9 10.85 13.85 10.75 13.7 10.6 13.75 11.2 13.75 11.4 13.75 11.7 13.8 12.25 13.9 13.9 13.9 14.2 14.0 14.9 14.3 15.95 14.4 16.3 16.15 22.25 17.0 25.05 17.05 24.85 17.2 24.4 17.2 24.35 17.35 24.6 17.35 24.55 17.3 24.15 17.55 23.45 17.8 23.7 18.15 22.9 Q19.75 26.4 27.1 28.1 L37.95 29.65 39.6 29.65 34.2 25.5 30.2 22.7 Q33.15 24.0 37.55 27.45 L40.2 29.6 40.7 30.0 40.5 30.05 39.9 30.15 38.5 30.35 35.25 30.55 28.9 30.25 Q31.4 31.1 33.35 32.0 L35.05 33.35 35.3 33.5 37.0 34.65 41.5 38.3 42.75 39.55 47.35 33.75 47.75 34.2 48.4 34.65 46.7 36.5 Q44.65 38.6 42.8 39.6 L43.5 40.3 42.85 40.8 Q37.7 35.95 32.1 33.0 27.95 31.15 23.8 29.6 L23.85 29.55 23.3 29.45 Q20.55 28.35 17.8 27.5 L16.75 27.15 16.5 26.55 Q14.35 20.65 12.6 14.05 12.25 9.75 12.15 5.15 M40.75 24.55 L41.65 25.35 42.4 26.55 44.15 29.45 41.3 26.95 40.75 24.55 M50.45 26.3 L50.45 26.15 Q51.1 22.15 51.35 18.25 L53.0 15.85 52.85 20.85 53.9 20.05 Q53.35 25.4 51.4 30.6 L50.45 26.3 M46.9 33.3 L44.2 29.55 47.45 32.55 47.9 32.95 47.35 33.75 46.9 33.3" fill="#ffe983" fill-rule="evenodd" stroke="none"/>
      <path d="M48.4 34.65 L47.75 34.2 47.35 33.75 47.9 32.95 47.45 32.55 44.2 29.55 44.2 29.5 44.15 29.45 42.4 26.55 41.65 25.35 48.1 31.55 49.25 32.8 50.45 26.3 51.4 30.6 50.45 32.95 49.85 34.25 49.85 34.3 49.05 33.9 48.4 34.65 M14.15 11.6 L13.8 10.5 13.7 10.15 13.65 10.0 13.55 9.85 12.6 6.4 12.45 5.55 Q14.45 8.25 16.7 10.5 19.75 13.65 23.25 16.0 L23.55 13.8 31.8 17.95 Q34.4 19.5 37.2 21.65 L40.75 24.55 41.3 26.95 37.3 23.55 36.35 22.7 35.65 22.15 25.35 19.2 25.05 19.15 25.0 19.4 24.95 20.4 21.0 17.8 20.65 17.6 17.7 15.65 14.95 13.75 14.15 11.6" fill="#fffadb" fill-rule="evenodd" stroke="none"/>
      <path d="M30.2 22.7 L34.2 25.5 39.6 29.65 37.95 29.65 27.1 28.1 Q19.75 26.4 18.15 22.9 L17.8 23.7 17.55 23.45 17.3 24.15 17.25 23.35 16.8 19.0 16.8 18.6 18.5 18.55 21.7 18.75 19.65 17.55 Q16.05 15.25 14.85 14.15 L14.75 14.05 14.65 13.7 14.0 11.2 13.9 11.1 13.95 12.1 14.0 12.9 14.15 14.55 14.3 15.5 15.6 19.85 15.6 19.95 17.2 24.35 17.2 24.4 17.05 24.85 17.0 25.05 16.15 22.25 14.4 16.3 14.3 15.95 14.0 14.9 13.9 14.2 13.9 13.9 13.8 12.25 13.75 11.7 13.75 11.4 13.75 11.2 13.7 10.6 13.85 10.75 13.9 10.85 14.0 11.2 14.15 11.6 14.95 13.75 17.7 15.65 20.65 17.6 21.0 17.8 24.95 20.4 25.0 19.4 25.05 19.15 25.35 19.2 35.65 22.15 36.35 22.7 37.3 23.55 41.3 26.95 44.15 29.45 44.2 29.5 43.7 29.55 40.8 26.85 35.8 22.6 25.7 19.85 25.3 19.7 25.15 19.65 25.05 20.8 24.85 20.7 24.95 21.25 25.35 23.0 25.35 23.1 25.7 22.15 27.1 21.95 Q28.35 21.95 30.2 22.7" fill="#ffd23c" fill-rule="evenodd" stroke="none"/>
      <path d="M23.3 29.45 L23.85 29.55 23.8 29.6 23.3 29.45 M43.5 40.3 L42.8 39.6 Q44.65 38.6 46.7 36.5 L48.4 34.65 49.05 33.9 49.85 34.3 43.5 40.3 M13.95 12.1 L13.9 11.1 14.0 11.2 14.65 13.7 13.95 12.1 14.0 12.6 14.0 12.9 13.95 12.1" fill="#ffa73c" fill-rule="evenodd" stroke="none"/>
      <path d="M13.95 12.1 L14.65 13.7 14.75 14.05 14.85 14.15 15.05 14.55 17.6 16.45 18.9 17.4 16.15 17.05 16.1 17.45 16.25 19.0 16.4 20.1 15.05 17.1 14.15 14.55 14.0 12.9 14.0 12.6 13.95 12.1 M46.9 33.3 L43.25 38.8 43.75 36.9 42.3 38.45 39.15 35.7 36.85 33.75 38.85 33.95 41.2 33.6 Q42.75 33.2 43.05 32.85 L42.85 32.15 Q41.55 29.7 40.35 28.8 32.75 22.95 29.5 22.0 L28.8 21.85 25.7 21.15 25.05 21.45 25.25 20.25 25.3 19.7 25.7 19.85 35.8 22.6 40.8 26.85 43.7 29.55 44.2 29.5 44.2 29.55 46.9 33.3" fill="#eea56d" fill-rule="evenodd" stroke="none"/>
      <path d="M47.35 33.75 L42.75 39.55 41.5 38.3 37.0 34.65 35.3 33.5 35.05 33.35 33.35 32.0 Q31.4 31.1 28.9 30.25 L35.25 30.55 38.5 30.35 39.9 30.15 40.5 30.05 40.7 30.0 40.2 29.6 37.55 27.45 Q33.15 24.0 30.2 22.7 28.35 21.95 27.1 21.95 L25.7 22.15 25.35 23.1 25.35 23.0 24.95 21.25 24.85 20.7 25.05 20.8 25.15 19.65 25.3 19.7 25.25 20.25 25.05 21.45 25.7 21.15 28.8 21.85 29.5 22.0 Q32.75 22.95 40.35 28.8 41.55 29.7 42.85 32.15 L43.05 32.85 Q42.75 33.2 41.2 33.6 L38.85 33.95 36.85 33.75 39.15 35.7 42.3 38.45 43.75 36.9 43.25 38.8 46.9 33.3 47.35 33.75 M17.3 24.15 L17.35 24.55 17.35 24.6 17.2 24.35 15.6 19.95 15.6 19.85 14.3 15.5 14.15 14.55 15.05 17.1 16.4 20.1 16.25 19.0 16.1 17.45 16.15 17.05 18.9 17.4 17.6 16.45 15.05 14.55 14.85 14.15 Q16.05 15.25 19.65 17.55 L21.7 18.75 18.5 18.55 16.8 18.6 16.8 19.0 17.25 23.35 17.3 24.15" fill="#ffc558" fill-rule="evenodd" stroke="none"/>
      <path d="M12.45 5.55 L12.15 5.15 M12.45 5.55 Q14.45 8.25 16.7 10.5 19.75 13.65 23.25 16.0 L23.55 13.8 31.8 17.95 Q34.4 19.5 37.2 21.65 L40.75 24.55" fill="none" stroke="#ff9a20" stroke-linecap="round" stroke-linejoin="round" stroke-width="1.0"/>
      <path d="M12.15 5.15 Q12.25 9.75 12.6 14.05 14.35 20.65 16.5 26.55 L16.75 27.15 17.8 27.5 Q20.55 28.35 23.3 29.45 L23.8 29.6 Q27.95 31.15 32.1 33.0 37.7 35.95 42.85 40.8 M40.75 24.55 L41.65 25.35 48.1 31.55 49.25 32.8 50.45 26.3 M50.45 26.15 Q51.1 22.15 51.35 18.25 M49.85 34.25 L49.85 34.3" fill="none" stroke="#cd602b" stroke-linecap="round" stroke-linejoin="round" stroke-width="1.0"/>
      <path d="M42.85 40.8 L43.5 40.3 49.85 34.3 M51.35 18.25 L53.0 15.85 52.85 20.85 53.9 20.05 Q53.35 25.4 51.4 30.6 L50.45 32.95 49.85 34.25" fill="none" stroke="#853209" stroke-linecap="round" stroke-linejoin="round" stroke-width="1.0"/>
    </g>
    <g id="sprite2" transform="matrix(1.0, 0.0, 0.0, 1.0, -16.8, 0.0)">
      <use ffdec:characterId="8" height="51.85" transform="matrix(1.0, 0.0, 0.0, 1.0, 16.8, 0.0)" width="50.4" xlink:href="#shape5"/>
    </g>
    <g id="shape5" transform="matrix(1.0, 0.0, 0.0, 1.0, -16.8, 0.0)">
      <path d="M66.7 0.7 L67.2 0.0 Q67.05 7.45 66.45 14.3 63.65 24.95 60.15 34.45 L59.8 35.4 58.15 35.95 Q53.7 37.35 49.2 39.05 L48.4 39.2 48.5 39.3 Q41.8 41.8 35.1 44.8 29.55 47.75 24.3 51.85 L24.3 51.5 22.25 51.5 27.25 47.5 29.95 45.6 30.3 45.35 33.15 43.2 Q36.2 41.75 40.2 40.35 L30.0 40.9 24.8 40.5 22.55 40.2 21.6 40.05 21.25 40.0 22.1 39.3 26.3 35.9 Q33.4 30.35 38.2 28.3 L31.8 32.75 23.05 39.35 25.75 39.35 Q36.6 38.55 43.2 36.95 54.95 34.15 57.55 28.55 L58.1 29.9 58.55 29.5 58.9 30.55 58.85 31.25 58.85 31.3 59.05 30.95 59.05 31.0 59.3 31.7 59.4 32.05 60.8 27.55 63.6 17.9 63.75 17.4 64.2 15.75 64.3 14.6 64.35 14.1 64.55 11.45 64.6 10.55 64.65 10.1 64.65 9.8 64.7 8.8 64.5 9.0 64.4 9.15 63.95 10.35 64.55 8.65 64.7 8.1 64.8 7.8 64.9 7.55 66.45 2.05 66.7 0.7 M20.25 35.1 L16.8 38.15 16.8 35.15 21.2 31.2 20.25 35.1" fill="#ffe983" fill-rule="evenodd" stroke="none"/>
      <path d="M66.7 0.7 L66.45 2.05 64.9 7.55 64.8 7.8 64.7 8.1 64.55 8.65 63.95 10.35 62.65 13.85 Q61.8 14.2 58.3 16.85 L53.55 20.05 52.95 20.35 Q51.1 21.2 46.6 24.55 L46.5 22.95 46.45 22.5 46.0 22.6 Q33.3 26.5 29.45 27.4 L28.3 28.3 26.7 29.6 20.25 35.1 21.2 31.2 26.9 26.55 Q31.4 23.1 35.65 20.65 L48.85 13.9 49.3 17.5 Q54.95 13.7 59.9 8.65 63.5 5.0 66.7 0.7 M41.8 22.95 Q49.9 20.7 46.9 15.8 L37.05 21.8 Q38.7 23.8 41.8 22.95 M62.8 9.2 Q62.3 8.7 61.65 8.8 L61.25 8.9 Q58.7 10.4 57.55 12.2 52.25 16.2 47.0 20.45 47.15 21.8 48.5 22.05 L52.5 19.85 Q55.95 18.25 57.4 16.45 61.75 14.35 63.0 9.4 L62.8 9.2" fill="#fffadb" fill-rule="evenodd" stroke="none"/>
      <path d="M62.8 9.2 L63.0 9.4 Q61.75 14.35 57.4 16.45 55.95 18.25 52.5 19.85 L48.5 22.05 Q47.15 21.8 47.0 20.45 52.25 16.2 57.55 12.2 58.7 10.4 61.25 8.9 L61.65 8.8 Q62.3 8.7 62.8 9.2 M41.8 22.95 Q38.7 23.8 37.05 21.8 L46.9 15.8 Q49.9 20.7 41.8 22.95" fill="#ffffff" fill-rule="evenodd" stroke="none"/>
    </g>
    <g id="shape6" transform="matrix(1.0, 0.0, 0.0, 1.0, 0.0, 0.0)">
      <path d="M50.5 0.0 Q53.95 0.0 53.95 3.3 L53.95 50.15 Q53.95 53.4 50.5 53.4 L3.3 53.4 Q0.0 53.4 0.0 50.15 L0.0 3.3 Q0.0 0.0 3.3 0.0 L50.5 0.0" fill="#000000" fill-opacity="0.003921569" fill-rule="evenodd" stroke="none"/>
    </g>
  </defs>
</svg>
