<?xml version="1.0" encoding="UTF-8" standalone="no"?>
<svg xmlns:ffdec="https://www.free-decompiler.com/flash" xmlns:xlink="http://www.w3.org/1999/xlink" ffdec:objectType="frame" height="172.65px" width="112.65px" xmlns="http://www.w3.org/2000/svg">
  <g transform="matrix(1.0, 0.0, 0.0, 1.0, 37.7, 18.85)">
    <clipPath id="clipPath0" transform="matrix(1.0, 0.0, 0.0, 1.0, 0.0, 0.0)">
      <path d="M50.5 0.0 Q53.95 0.0 53.95 3.3 L53.95 50.15 Q53.95 53.4 50.5 53.4 L3.3 53.4 Q0.0 53.4 0.0 50.15 L0.0 3.3 Q0.0 0.0 3.3 0.0 L50.5 0.0" fill="#000000" fill-rule="evenodd" stroke="none"/>
    </clipPath>
    <g clip-path="url(#clipPath0)">
      <use ffdec:characterId="2" height="154.3" transform="matrix(1.0, 0.0, 0.0, 1.0, -0.5, -0.5)" width="75.45" xlink:href="#shape1"/>
      <filter id="filter0">
        <feConvolveMatrix divisor="25.0" in="SourceGraphic" kernelMatrix="1 1 1 1 1 1 1 1 1 1 1 1 1 1 1 1 1 1 1 1 1 1 1 1 1" order="5 5" result="filterResult0"/>
      </filter>
      <use ffdec:characterId="3" filter="url(#filter0)" height="0.0" style="mix-blend-mode: screen" transform="matrix(-0.9074, 0.0, 0.0, 0.802, -37.7, -18.85)" width="0.0" xlink:href="#sprite0"/>
      <use ffdec:characterId="4" height="59.9" transform="matrix(1.0, 0.0, 0.0, 1.0, -0.95, -5.45)" width="56.2" xlink:href="#shape2"/>
      <filter id="filter1">
        <feConvolveMatrix divisor="25.0" in="SourceGraphic" kernelMatrix="1 1 1 1 1 1 1 1 1 1 1 1 1 1 1 1 1 1 1 1 1 1 1 1 1" order="5 5" result="filterResult1"/>
      </filter>
      <use ffdec:characterId="6" filter="url(#filter1)" height="23.15" style="mix-blend-mode: screen" transform="matrix(-1.2904, 0.0, 0.0, 1.2206, 65.1496, 10.3987)" width="41.95" xlink:href="#sprite1"/>
      <filter id="filter2">
        <feConvolveMatrix divisor="25.0" in="SourceGraphic" kernelMatrix="1 1 1 1 1 1 1 1 1 1 1 1 1 1 1 1 1 1 1 1 1 1 1 1 1" order="5 5" result="filterResult2"/>
      </filter>
      <use ffdec:characterId="6" filter="url(#filter2)" height="23.15" style="mix-blend-mode: screen" transform="matrix(-1.01, 0.0, 0.0, 0.8928, 41.8896, -0.0111)" width="41.95" xlink:href="#sprite1"/>
      <use ffdec:characterId="7" height="63.9" transform="matrix(1.0, 0.0, 0.0, 1.0, -11.6, -9.9)" width="72.05" xlink:href="#shape4"/>
      <filter id="filter3">
        <feConvolveMatrix divisor="25.0" in="SourceGraphic" kernelMatrix="1 1 1 1 1 1 1 1 1 1 1 1 1 1 1 1 1 1 1 1 1 1 1 1 1" order="5 5" result="filterResult3"/>
      </filter>
      <use ffdec:characterId="9" filter="url(#filter3)" height="9.45" transform="matrix(-1.5714, -0.2762, -0.3124, 1.3891, 37.1749, 22.3255)" width="6.9" xlink:href="#sprite2"/>
      <use ffdec:characterId="10" height="6.65" transform="matrix(1.0, 0.0, 0.0, 1.0, 17.7, 23.8)" width="7.9" xlink:href="#shape6"/>
      <filter id="filter4">
        <feConvolveMatrix divisor="25.0" in="SourceGraphic" kernelMatrix="1 1 1 1 1 1 1 1 1 1 1 1 1 1 1 1 1 1 1 1 1 1 1 1 1" order="5 5" result="filterResult4"/>
      </filter>
      <use ffdec:characterId="12" filter="url(#filter4)" height="49.5" style="mix-blend-mode: screen" transform="matrix(-1.01, 0.0, 0.0, 0.8928, 60.65, -0.4968)" width="41.5" xlink:href="#sprite3"/>
      <use ffdec:characterId="13" height="28.25" transform="matrix(1.0, 0.0, 0.0, 1.0, 25.35, 7.65)" width="12.05" xlink:href="#shape8"/>
      <use ffdec:characterId="15" height="9.6" style="mix-blend-mode: multiply" transform="matrix(0.7111, -0.075, 0.075, 0.7111, 28.5163, 26.5462)" width="4.9" xlink:href="#sprite4"/>
    </g>
    <use ffdec:characterId="16" height="53.4" transform="matrix(1.0, 0.0, 0.0, 1.0, 0.0, 0.0)" width="53.95" xlink:href="#shape10"/>
  </g>
  <defs>
    <g id="shape1" transform="matrix(1.0, 0.0, 0.0, 1.0, 0.5, 0.5)">
      <path d="M43.25 39.8 L42.1 39.55 43.6 39.45 43.75 39.45 43.55 40.0 43.25 39.8" fill="#ffe0b4" fill-rule="evenodd" stroke="none"/>
      <path d="M74.6 152.6 L74.2 152.45 74.6 152.45 74.6 152.6 74.95 153.15 Q74.6 154.65 74.6 152.6" fill="#ffb67e" fill-rule="evenodd" stroke="none"/>
      <path d="M49.55 39.6 Q47.8 36.8 43.75 35.9 L43.65 35.9 Q44.45 37.15 44.7 38.8 L44.85 39.6 M15.2 40.85 L15.6 40.15 M20.8 39.4 L25.5 30.2 43.65 35.9" fill="none" stroke="#5b2010" stroke-linecap="round" stroke-linejoin="round" stroke-width="1.0"/>
      <path d="M28.15 53.5 L27.6 53.5 38.0 27.55 30.85 30.95 27.55 19.65 25.35 19.75 27.25 18.95 29.05 16.8 24.95 16.25 25.2 14.8 30.5 5.45 30.45 5.7 Q28.85 13.3 29.55 16.25 L29.8 16.85 38.75 27.3 28.15 53.5" fill="#952800" fill-rule="evenodd" stroke="none"/>
      <path d="M30.9 3.35 L31.4 2.7 31.15 4.25 Q30.4 13.75 39.1 20.3 L44.15 24.65 Q42.2 38.4 34.75 53.5 L28.15 53.5 38.75 27.3 29.8 16.85 29.55 16.25 Q28.85 13.3 30.45 5.7 L30.5 5.45 30.9 3.35 M8.8 0.0 L9.6 1.3 Q19.1 3.95 27.2 8.45 L22.65 14.9 Q13.65 9.4 0.0 7.3 L0.0 0.0 8.8 0.0" fill="#2c1800" fill-rule="evenodd" stroke="none"/>
      <path d="M27.6 53.5 L24.45 53.5 29.25 31.95 25.6 20.4 23.05 20.75 23.4 15.1 30.9 3.35 30.5 5.45 25.2 14.8 24.95 16.25 29.05 16.8 27.25 18.95 25.35 19.75 27.55 19.65 30.85 30.95 38.0 27.55 27.6 53.5 M31.95 31.0 L31.7 31.0 31.55 30.95 31.35 31.1 Q31.05 31.2 30.85 31.4 L30.45 31.8 Q30.25 32.1 30.6 32.25 L31.0 32.3 31.65 31.95 32.25 31.55 32.4 31.15 32.1 30.9 32.05 30.95 31.95 31.0" fill="#f05d27" fill-rule="evenodd" stroke="none"/>
      <path d="M31.95 31.0 L32.05 30.95 32.1 30.9 32.4 31.15 32.25 31.55 31.65 31.95 31.0 32.3 30.6 32.25 Q30.25 32.1 30.45 31.8 L30.85 31.4 Q31.05 31.2 31.35 31.1 L31.55 30.95 31.7 31.0 31.95 31.0" fill="#ffa685" fill-rule="evenodd" stroke="none"/>
      <path d="M30.9 3.35 L31.4 2.7 31.15 4.25 Q30.4 13.75 39.1 20.3 L44.15 24.65 Q42.2 38.4 34.75 53.5 M24.45 53.5 L29.25 31.95 25.6 20.4 23.05 20.75 23.4 15.1 30.9 3.35 M8.8 0.0 L9.6 1.3 Q19.1 3.95 27.2 8.45 L22.65 14.9 Q13.65 9.4 0.0 7.3" fill="none" stroke="#5b2010" stroke-linecap="round" stroke-linejoin="round" stroke-width="1.0"/>
      <path d="M38.95 53.5 L36.7 51.55 30.15 39.4 38.35 38.1 42.3 53.5 38.95 53.5" fill="#af4918" fill-rule="evenodd" stroke="none"/>
      <path d="M38.95 53.5 L36.7 51.55 30.15 39.4 38.35 38.1 42.3 53.5" fill="none" stroke="#5b2010" stroke-linecap="round" stroke-linejoin="round" stroke-width="1.0"/>
    </g>
    <g id="shape2" transform="matrix(1.0, 0.0, 0.0, 1.0, 0.95, 5.45)">
      <path d="M-0.45 -4.95 L9.2 -3.65 8.8 35.0 Q11.8 45.25 10.0 53.95 L5.95 53.95 6.15 51.15 Q6.15 48.8 5.5 45.45 L5.3 44.3 1.3 50.3 -0.45 53.05 -0.45 -4.95" fill="#e96130" fill-rule="evenodd" stroke="none"/>
      <path d="M5.95 53.95 L-0.45 53.95 -0.45 53.05 1.3 50.3 5.3 44.3 5.5 45.45 Q6.15 48.8 6.15 51.15 L5.95 53.95" fill="#ea8a47" fill-rule="evenodd" stroke="none"/>
      <path d="M-0.45 -4.95 L9.2 -3.65 8.8 35.0 Q11.8 45.25 10.0 53.95" fill="none" stroke="#5b2010" stroke-linecap="round" stroke-linejoin="round" stroke-width="1.0"/>
      <path d="M7.75 37.5 Q10.1 39.5 14.25 40.3 L20.2 41.65 Q19.55 45.0 17.35 47.3 L15.45 48.9 Q16.9 50.5 18.9 53.95 L-0.45 53.95 -0.45 49.55 2.75 45.0 Q5.35 40.6 7.75 37.5 M25.6 44.05 L25.8 44.4 25.8 46.45 24.8 46.5 Q20.75 46.05 18.4 49.7 19.85 51.85 20.85 53.95 L19.9 53.95 19.35 53.2 Q16.5 49.3 16.5 48.95 16.5 47.9 19.6 46.1 22.55 44.35 25.6 44.05" fill="#2c1800" fill-rule="evenodd" stroke="none"/>
      <path d="M20.2 41.65 Q24.35 42.8 25.6 44.05 22.55 44.35 19.6 46.1 16.5 47.9 16.5 48.95 16.5 49.3 19.35 53.2 L19.9 53.95 18.9 53.95 Q16.9 50.5 15.45 48.9 L17.35 47.3 Q19.55 45.0 20.2 41.65 M-0.45 49.55 L-0.45 33.45 Q2.9 33.45 4.5 34.2 5.55 34.7 6.5 36.1 L7.75 37.5 Q5.35 40.6 2.75 45.0 L-0.45 49.55" fill="#120a00" fill-rule="evenodd" stroke="none"/>
      <path d="M7.75 37.5 Q10.1 39.5 14.25 40.3 L20.2 41.65 Q24.35 42.8 25.6 44.05 L25.8 44.4 25.8 46.45 24.8 46.5 Q20.75 46.05 18.4 49.7 19.85 51.85 20.85 53.95 M-0.45 33.45 Q2.9 33.45 4.5 34.2 5.55 34.7 6.5 36.1 L7.75 37.5" fill="none" stroke="#200700" stroke-linecap="round" stroke-linejoin="round" stroke-width="1.0"/>
      <path d="M24.75 38.4 L25.2 37.85 26.5 36.35 33.9 37.15 37.55 40.2 41.15 45.3 43.2 45.3 44.4 45.45 Q45.35 43.95 46.35 43.55 L46.85 43.45 47.45 43.35 47.7 43.35 47.55 43.4 47.5 43.4 Q46.15 43.8 45.5 44.45 44.95 44.95 44.8 45.95 45.85 45.65 46.35 46.45 46.7 46.9 46.65 47.7 L46.95 47.65 Q47.6 46.65 48.35 45.9 L47.6 47.5 Q47.3 47.9 45.55 48.0 L40.7 48.55 39.7 48.8 37.95 48.5 35.05 48.15 34.7 48.15 34.65 48.1 Q31.95 46.15 28.05 41.8 27.85 39.95 27.55 39.95 L27.45 40.0 26.75 39.3 26.1 38.65 24.75 38.4 M39.3 48.9 L38.45 49.05 37.1 48.85 36.95 48.8 37.85 48.85 39.3 48.9 M35.2 48.7 L35.6 50.55 35.6 51.35 Q34.05 49.6 32.15 48.0 28.4 44.85 25.8 44.85 L23.55 45.05 24.35 43.9 24.5 43.75 24.75 44.15 Q25.55 43.1 27.9 42.95 L28.1 42.95 30.75 45.0 31.45 45.5 31.8 45.85 32.15 46.6 32.55 47.7 32.6 47.9 33.45 48.3 33.5 48.4 34.45 48.7 34.5 48.7 35.2 48.7" fill="#ffe0b4" fill-rule="evenodd" stroke="none"/>
      <path d="M47.7 43.35 L47.45 43.35 46.85 43.45 46.35 43.55 Q45.35 43.95 44.4 45.45 L43.2 45.3 41.15 45.3 37.55 40.2 33.9 37.15 26.5 36.35 25.2 37.85 24.75 38.4 21.05 43.15 21.75 43.65 Q19.15 44.1 17.8 44.85 L25.35 30.0 43.6 35.7 Q49.65 37.0 50.65 42.5 L50.8 43.45 49.6 43.25 49.45 43.25 47.7 43.35 M27.85 42.35 L24.6 42.95 Q25.8 41.4 27.35 40.55 L27.85 42.35" fill="#ff7d3f" fill-rule="evenodd" stroke="none"/>
      <path d="M48.35 45.9 Q47.6 46.65 46.95 47.65 L46.65 47.7 Q46.7 46.9 46.35 46.45 45.85 45.65 44.8 45.95 44.95 44.95 45.5 44.45 46.15 43.8 47.5 43.4 L47.55 43.4 47.7 43.35 49.05 43.6 49.3 43.85 49.5 44.6 49.5 44.95 49.45 45.1 48.35 45.9" fill="#342823" fill-rule="evenodd" stroke="none"/>
      <path d="M24.75 38.4 L26.1 38.65 26.75 39.3 27.45 40.0 25.4 41.3 23.8 42.7 24.5 43.75 24.35 43.9 23.55 45.05 25.8 44.85 Q28.4 44.85 32.15 48.0 34.05 49.6 35.6 51.35 L35.6 50.55 35.2 48.7 36.95 48.8 37.1 48.85 38.45 49.05 39.3 48.9 39.7 48.8 40.7 48.55 45.55 48.0 Q47.3 47.9 47.6 47.5 L48.35 45.9 49.45 45.1 49.5 44.95 49.5 44.6 49.3 43.85 49.6 43.25 50.8 43.45 50.8 43.8 49.9 45.55 48.7 47.5 48.1 48.15 46.55 49.45 Q44.85 49.1 43.4 49.45 L42.4 49.7 Q41.15 50.2 40.1 51.2 L39.15 52.35 35.2 52.75 25.9 47.35 17.15 46.1 17.8 44.85 Q19.15 44.1 21.75 43.65 L21.05 43.15 24.75 38.4 M34.65 48.1 L34.7 48.15 34.65 48.15 34.65 48.1" fill="#f3be7f" fill-rule="evenodd" stroke="none"/>
      <path d="M27.45 40.0 L27.55 39.95 Q27.85 39.95 28.05 41.8 31.95 46.15 34.65 48.1 L34.65 48.15 34.7 48.15 35.05 48.15 37.95 48.5 39.7 48.8 39.3 48.9 37.85 48.85 36.95 48.8 35.2 48.7 34.5 48.7 34.45 48.7 33.5 48.4 33.45 48.3 32.6 47.9 32.55 47.7 32.15 46.6 31.8 45.85 31.45 45.5 30.75 45.0 28.1 42.95 27.9 42.95 Q25.55 43.1 24.75 44.15 L24.5 43.75 23.8 42.7 25.4 41.3 27.45 40.0 M27.85 42.35 L27.35 40.55 Q25.8 41.4 24.6 42.95 L27.85 42.35" fill="#ffa072" fill-rule="evenodd" stroke="none"/>
      <path d="M50.8 43.45 L50.8 43.8 49.9 45.55 48.7 47.5 48.1 48.15 46.55 49.45 Q44.85 49.1 43.4 49.45 L42.4 49.7 Q41.15 50.2 40.1 51.2 L39.15 52.35 35.2 52.75 25.9 47.35 17.15 46.1 17.8 44.85" fill="none" stroke="#5b2010" stroke-linecap="round" stroke-linejoin="round" stroke-width="1.0"/>
      <path d="M22.55 -0.45 L36.45 -0.45 Q38.85 2.8 39.95 6.35 38.4 9.2 35.65 12.5 28.65 20.9 22.25 20.9 16.4 20.9 9.5 14.45 L3.95 9.0 2.55 7.75 1.5 5.35 Q0.4 3.3 -0.95 1.95 L-0.95 -0.45 4.95 -0.45 Q11.35 6.2 16.15 6.2 19.3 6.2 21.1 3.9 22.5 2.05 22.55 -0.45" fill="#ffd077" fill-rule="evenodd" stroke="none"/>
      <path d="M22.55 -0.45 Q22.5 2.05 21.1 3.9 19.3 6.2 16.15 6.2 11.35 6.2 4.95 -0.45 L22.55 -0.45 M39.95 6.35 Q38.85 2.8 36.45 -0.45 L39.15 -0.45 Q40.25 1.95 40.85 4.6 L39.95 6.35" fill="#ff7023" fill-rule="evenodd" stroke="none"/>
      <path d="M-0.95 1.95 Q0.4 3.3 1.5 5.35 L2.55 7.75 -0.95 4.85 -0.95 1.95 M39.15 -0.45 L42.05 -0.45 42.05 -0.25 Q42.05 1.9 40.85 4.6 40.25 1.95 39.15 -0.45" fill="#f43606" fill-rule="evenodd" stroke="none"/>
      <path d="M52.3 -2.4 L52.65 -2.8 54.75 5.95 51.3 20.65 47.1 23.25 46.35 23.6 47.75 16.3 49.7 7.05 50.25 4.95 52.3 -2.4 M53.35 5.2 L53.2 5.15 52.75 5.0 Q52.45 5.1 52.3 5.35 52.15 5.7 52.25 6.05 52.35 6.45 52.75 6.4 L52.95 6.4 53.15 6.1 53.25 5.9 53.35 5.55 53.35 5.2" fill="#483c37" fill-rule="evenodd" stroke="none"/>
      <path d="M52.3 -2.4 L50.25 4.95 49.7 7.05 47.75 16.3 46.35 23.6 47.1 23.25 51.3 20.65 49.9 26.8 44.85 28.95 41.15 27.65 Q44.05 21.15 48.75 8.0 L48.7 4.7 48.75 4.15 42.5 9.3 Q36.8 13.6 31.8 16.45 L31.25 15.15 46.25 3.95 52.3 -2.4" fill="#342823" fill-rule="evenodd" stroke="none"/>
      <path d="M31.8 16.45 Q36.8 13.6 42.5 9.3 L48.75 4.15 48.7 4.7 48.75 8.0 Q44.05 21.15 41.15 27.65 L39.2 27.0 Q41.15 21.95 44.0 15.5 L46.45 9.85 46.55 8.25 46.65 6.55 Q43.4 9.75 37.35 13.85 35.3 15.1 32.1 17.2 L31.8 16.45" fill="#9f4831" fill-rule="evenodd" stroke="none"/>
      <path d="M32.1 17.2 Q35.3 15.1 37.35 13.85 43.4 9.75 46.65 6.55 L46.55 8.25 46.45 9.85 44.0 15.5 Q41.15 21.95 39.2 27.0 L36.0 25.95 32.1 17.2" fill="#c64624" fill-rule="evenodd" stroke="none"/>
      <path d="M53.35 5.2 L53.35 5.55 53.25 5.9 53.15 6.1 52.95 6.4 52.75 6.4 Q52.35 6.45 52.25 6.05 52.15 5.7 52.3 5.35 52.45 5.1 52.75 5.0 L53.2 5.15 53.35 5.2" fill="#ffeed9" fill-rule="evenodd" stroke="none"/>
      <path d="M51.3 20.65 L54.75 5.95 52.65 -2.8 52.3 -2.4 46.25 3.95 31.25 15.15 31.8 16.45 32.1 17.2 36.0 25.95 39.2 27.0 41.15 27.65 44.85 28.95 49.9 26.8 50.8 26.4 M51.3 20.65 L49.9 26.8 M31.25 15.15 L31.05 14.75 M36.0 25.95 L36.4 26.7 M44.15 29.2 L44.85 28.95 45.6 29.15" fill="none" stroke="#200700" stroke-linecap="round" stroke-linejoin="round" stroke-width="1.0"/>
      <path d="M44.6 20.25 L49.5 16.1 51.6 20.25 50.9 32.35 49.5 36.95 45.7 35.1 44.6 20.25" fill="#ff9b5d" fill-rule="evenodd" stroke="none"/>
      <path d="M44.6 20.25 L45.7 35.1 49.5 36.95 50.9 32.35 51.6 20.25 49.5 16.1 44.6 20.25 Z" fill="none" stroke="#a6452a" stroke-linecap="round" stroke-linejoin="round" stroke-width="0.5"/>
    </g>
    <g id="sprite1" transform="matrix(1.0, 0.0, 0.0, 1.0, -101.25, -4.3)">
      <use ffdec:characterId="5" height="23.15" transform="matrix(1.0, 0.0, 0.0, 1.0, 101.25, 4.3)" width="41.95" xlink:href="#shape3"/>
    </g>
    <g id="shape3" transform="matrix(1.0, 0.0, 0.0, 1.0, -101.25, -4.3)">
      <path d="M143.2 6.9 L143.2 9.95 140.3 12.7 Q140.75 11.3 141.35 10.05 142.2 8.25 143.2 6.9 M102.4 9.2 Q101.3 6.5 101.25 4.3 L103.8 4.3 Q102.9 6.65 102.4 9.2" fill="#f43606" fill-rule="evenodd" stroke="none"/>
      <path d="M140.3 12.7 L138.9 14.15 133.45 20.2 Q126.6 27.45 120.8 27.45 114.45 27.45 107.55 18.05 103.95 13.1 102.4 9.2 102.9 6.65 103.8 4.3 L143.2 4.3 143.2 6.9 Q142.2 8.25 141.35 10.05 140.75 11.3 140.3 12.7" fill="#ff7023" fill-rule="evenodd" stroke="none"/>
    </g>
    <g id="shape4" transform="matrix(1.0, 0.0, 0.0, 1.0, 11.6, 9.9)">
      <path d="M-6.25 22.75 L-11.1 2.65 -8.45 -9.4 -7.95 -8.8 -5.05 1.25 -4.3 4.1 -1.4 16.7 0.55 26.7 -0.55 26.2 Q-2.95 24.4 -6.25 22.75 M-9.25 2.1 L-9.15 2.5 -9.0 2.9 -8.6 3.3 -8.35 3.35 Q-7.85 3.35 -7.75 2.8 -7.65 2.3 -7.85 1.85 -8.0 1.5 -8.45 1.3 -8.75 1.25 -9.05 1.5 L-9.25 1.65 -9.25 2.1" fill="#483c37" fill-rule="evenodd" stroke="none"/>
      <path d="M-9.25 2.1 L-9.25 1.65 -9.05 1.5 Q-8.75 1.25 -8.45 1.3 -8.0 1.5 -7.85 1.85 -7.65 2.3 -7.75 2.8 -7.85 3.35 -8.35 3.35 L-8.6 3.3 -9.0 2.9 -9.15 2.5 -9.25 2.1" fill="#ffeed9" fill-rule="evenodd" stroke="none"/>
      <path d="M7.75 32.2 Q3.7 23.35 -2.95 5.3 L-2.95 0.85 -2.95 0.1 5.6 7.05 Q13.45 12.9 20.35 16.65 L19.9 17.7 12.8 13.15 Q4.5 7.6 -0.05 3.25 L0.05 5.7 0.2 7.9 3.7 15.5 10.4 31.25 7.75 32.2" fill="#9f4831" fill-rule="evenodd" stroke="none"/>
      <path d="M-7.95 -8.8 L0.45 -0.25 21.05 14.95 20.35 16.65 Q13.45 12.9 5.6 7.05 L-2.95 0.1 -2.95 0.85 -2.95 5.3 Q3.7 23.35 7.75 32.2 L4.5 38.7 -4.05 27.55 -6.25 22.75 Q-2.95 24.4 -0.55 26.2 L0.55 26.7 -1.4 16.7 -4.3 4.1 -5.05 1.25 -7.95 -8.8 M3.65 34.3 L4.5 38.7 3.65 34.3" fill="#342823" fill-rule="evenodd" stroke="none"/>
      <path d="M10.4 31.25 L3.7 15.5 0.2 7.9 0.05 5.7 -0.05 3.25 Q4.5 7.6 12.8 13.15 L19.9 17.7 14.65 29.65 10.4 31.25" fill="#c64624" fill-rule="evenodd" stroke="none"/>
      <path d="M-6.25 22.75 L-11.1 2.65 -8.45 -9.4 -7.95 -8.8 0.45 -0.25 21.05 14.95 21.3 14.35 M7.75 32.2 L10.4 31.25 14.65 29.65 14.2 30.75 M19.9 17.7 L20.35 16.65 21.05 14.95 M-6.25 22.75 L-4.05 27.55 4.5 38.7 3.65 34.3 M7.75 32.2 L4.5 38.7 M19.9 17.7 L14.65 29.65" fill="none" stroke="#200700" stroke-linecap="round" stroke-linejoin="round" stroke-width="1.0"/>
      <path d="M45.0 19.25 L40.2 15.9 28.85 9.35 27.6 9.35 Q27.6 12.8 28.85 17.2 28.85 20.0 23.75 22.1 L22.15 22.75 21.15 24.3 18.1 29.55 Q19.25 30.5 24.05 32.9 L25.75 33.5 26.1 33.65 27.85 31.8 30.65 32.8 35.4 34.75 Q39.35 36.35 40.4 36.55 41.65 36.95 43.65 38.55 L43.9 38.7 44.45 39.2 47.4 41.75 47.95 42.2 47.95 41.2 46.7 30.8 Q46.7 26.75 45.0 19.25 M26.7 2.4 L28.3 5.1 46.0 18.1 48.55 31.85 48.1 34.1 51.05 43.6 46.45 43.4 Q45.0 43.9 43.5 45.25 L42.3 44.85 45.15 43.25 45.95 42.75 Q42.3 38.0 41.45 37.35 39.7 36.45 36.9 35.45 L30.65 33.2 30.95 36.1 26.75 35.15 19.3 43.15 26.3 46.9 11.0 47.65 4.45 29.05 4.3 7.45 4.3 7.2 4.3 7.1 Q4.3 5.9 4.9 4.5 L6.3 7.1 6.35 7.4 Q7.3 11.3 7.45 14.3 L9.35 17.0 11.25 18.95 12.45 19.9 Q15.65 22.25 19.1 22.25 L19.3 22.25 20.2 21.85 Q22.25 20.75 23.05 18.25 22.6 17.5 22.6 15.8 L22.6 12.9 23.4 9.4 Q23.85 7.8 24.6 5.9 25.0 4.6 26.55 2.6 L26.7 2.4 M31.5 36.3 Q33.9 36.5 37.15 38.8 34.1 37.15 31.5 36.3 M37.75 39.2 L40.0 41.0 Q40.75 41.65 41.1 42.65 L42.0 44.75 41.2 44.5 37.75 39.2" fill="#d95b1d" fill-rule="evenodd" stroke="none"/>
      <path d="M45.0 19.25 Q46.7 26.75 46.7 30.8 L47.95 41.2 47.95 42.2 47.4 41.75 44.45 39.2 43.9 38.7 43.65 38.55 Q41.65 36.95 40.4 36.55 39.35 36.35 35.4 34.75 L30.65 32.8 27.85 31.8 26.1 33.65 25.75 33.5 24.05 32.9 Q19.25 30.5 18.1 29.55 L21.15 24.3 22.15 22.75 23.75 22.1 Q28.85 20.0 28.85 17.2 27.6 12.8 27.6 9.35 L28.85 9.35 40.2 15.9 45.0 19.25" fill="#2c1800" fill-rule="evenodd" stroke="none"/>
      <path d="M30.95 36.1 L30.65 33.2 36.9 35.45 Q39.7 36.45 41.45 37.35 42.3 38.0 45.95 42.75 L45.15 43.25 42.3 44.85 42.0 44.75 41.1 42.65 Q40.75 41.65 40.0 41.0 L37.75 39.2 37.65 39.05 37.15 38.8 Q33.9 36.5 31.5 36.3 L30.95 36.1 M41.95 40.9 L41.85 40.95 41.75 41.0 41.7 41.05 41.65 41.7 41.8 42.4 42.35 43.05 43.15 43.15 43.4 42.55 43.15 41.8 42.7 41.2 Q42.45 40.9 42.05 40.9 L41.95 40.9" fill="#ff7b3a" fill-rule="evenodd" stroke="none"/>
      <path d="M41.95 40.9 L42.05 40.9 Q42.45 40.9 42.7 41.2 L43.15 41.8 43.4 42.55 43.15 43.15 42.35 43.05 41.8 42.4 41.65 41.7 41.7 41.05 41.75 41.0 41.85 40.95 41.95 40.9" fill="#ffe0b4" fill-rule="evenodd" stroke="none"/>
      <path d="M7.95 0.1 L9.05 -1.15 6.2 -7.6 11.85 -5.6 17.0 0.8 16.2 1.6 17.1 3.95 Q14.25 5.4 13.4 7.1 12.65 9.5 13.25 12.25 16.85 16.6 20.05 15.05 22.75 9.7 21.1 4.55 L23.75 -2.5 25.35 0.25 Q24.0 2.9 23.55 4.9 L23.15 7.1 22.75 10.3 Q22.1 13.6 21.3 15.1 19.5 18.6 15.95 18.6 12.45 18.6 10.95 15.5 10.35 14.3 10.0 12.6 L10.0 13.1 Q10.0 14.7 11.0 16.95 11.75 18.75 12.85 19.55 L12.45 19.85 Q11.45 19.3 10.7 17.9 9.6 15.9 9.6 13.05 9.6 9.8 10.4 7.1 L10.7 6.55 11.5 5.55 Q11.1 4.4 10.3 3.15 L9.8 2.35 7.95 0.1" fill="#622211" fill-rule="evenodd" stroke="none"/>
      <path d="M26.7 2.4 L26.55 2.6 Q25.0 4.6 24.6 5.9 23.85 7.8 23.4 9.4 L22.6 12.9 22.6 15.8 Q22.6 17.5 23.05 18.25 22.25 20.75 20.2 21.85 L19.3 22.25 19.1 22.25 Q15.65 22.25 12.45 19.9 L11.25 18.95 9.35 17.0 7.45 14.3 Q7.3 11.3 6.35 7.4 L6.3 7.1 4.9 4.5 Q5.8 2.4 7.95 0.1 L9.8 2.35 10.3 3.15 Q11.1 4.4 11.5 5.55 L10.7 6.55 10.4 7.1 Q9.6 9.8 9.6 13.05 9.6 15.9 10.7 17.9 11.45 19.3 12.45 19.85 L12.85 19.55 Q11.75 18.75 11.0 16.95 10.0 14.7 10.0 13.1 L10.0 12.6 Q10.35 14.3 10.95 15.5 12.45 18.6 15.95 18.6 19.5 18.6 21.3 15.1 22.1 13.6 22.75 10.3 L23.15 7.1 23.55 4.9 Q24.0 2.9 25.35 0.25 L26.7 2.4" fill="#9f4831" fill-rule="evenodd" stroke="none"/>
      <path d="M51.05 43.6 L48.1 34.1 48.55 31.85 46.0 18.1 28.3 5.1 26.7 2.4 25.35 0.25 23.75 -2.5 21.1 4.55 Q22.75 9.7 20.05 15.05 16.85 16.6 13.25 12.25 12.65 9.5 13.4 7.1 14.25 5.4 17.1 3.95 L16.2 1.6 17.0 0.8 11.85 -5.6 6.2 -7.6 9.05 -1.15 7.95 0.1 Q5.8 2.4 4.9 4.5 4.3 5.9 4.3 7.1 L4.3 7.2 4.3 7.45 4.45 29.05 11.0 47.65 26.3 46.9" fill="none" stroke="#5b2010" stroke-linecap="round" stroke-linejoin="round" stroke-width="1.0"/>
      <path d="M9.15 24.6 L7.25 22.95 Q4.7 19.9 2.9 17.05 L2.3 16.0 6.1 18.15 Q9.4 20.1 11.05 21.45 L11.4 21.9 11.75 22.25 14.9 25.9 15.55 26.75 15.05 26.8 13.1 26.05 13.1 26.0 12.75 25.95 9.15 24.6 M16.05 32.9 L18.45 33.4 Q20.85 34.0 23.1 35.25 L20.25 37.9 18.5 38.6 18.45 38.6 Q17.95 38.8 17.95 38.6 L17.95 38.8 16.8 37.75 Q15.25 36.45 13.8 35.6 L13.65 35.55 Q9.85 33.2 8.45 31.65 L9.6 31.25 Q10.35 31.0 11.5 31.9 L12.45 32.7 12.7 32.65 13.45 32.6 13.6 32.6 16.05 32.9 M10.05 37.0 L11.3 37.4 12.45 37.75 13.95 38.35 14.7 38.6 16.25 39.2 16.35 39.2 14.0 41.2 13.65 41.55 12.2 40.2 Q10.4 38.4 10.05 37.0 M12.85 44.95 L13.85 44.05 14.4 43.55 15.55 42.65 16.75 41.75 15.85 44.85 14.65 46.7 13.6 45.75 13.35 45.5 12.85 44.95" fill="#ff9441" fill-rule="evenodd" stroke="none"/>
      <path d="M0.45 16.05 L0.45 14.9 2.3 16.0 2.9 17.05 Q4.7 19.9 7.25 22.95 L9.15 24.6 7.55 24.05 Q5.75 23.4 4.1 22.15 L3.4 21.6 1.9 18.9 0.45 16.05 M9.8 53.5 L7.45 53.5 7.35 52.65 9.7 48.55 10.65 47.3 12.85 44.95 13.35 45.5 13.6 45.75 14.65 46.7 13.65 48.05 13.05 48.8 12.85 49.05 11.05 51.3 10.5 52.2 10.4 52.35 9.8 53.5 M4.8 39.95 L4.75 39.5 7.05 41.3 Q7.35 38.9 8.45 36.6 L10.05 37.0 Q10.4 38.4 12.2 40.2 L13.65 41.55 11.75 43.2 11.75 43.25 10.85 44.0 8.7 46.1 7.1 48.05 Q6.95 45.85 6.95 43.25 L6.95 42.05 4.8 39.95 M8.45 31.65 Q9.85 33.2 13.65 35.55 L13.8 35.6 Q15.25 36.45 16.8 37.75 L16.75 37.75 15.85 38.15 13.9 37.7 13.65 37.6 10.6 36.55 10.0 36.4 8.7 36.15 7.35 35.8 2.9 34.35 2.3 33.7 4.75 32.75 8.45 31.65" fill="#ec6522" fill-rule="evenodd" stroke="none"/>
      <path d="M0.45 16.05 L1.9 18.9 3.4 21.6 4.1 22.15 Q5.75 23.4 7.55 24.05 L9.15 24.6 12.75 25.95 6.05 24.6 0.45 21.9 0.45 16.05 M2.3 16.0 L0.45 14.9 0.45 14.4 1.75 14.9 Q5.4 16.65 8.45 19.1 9.75 16.8 10.95 16.9 L11.6 18.1 13.85 17.9 16.15 20.15 17.2 21.05 17.7 21.55 18.0 22.15 Q18.75 21.95 19.05 22.15 23.1 22.2 18.9 23.4 L18.75 23.6 17.15 25.55 17.1 25.6 15.65 26.85 15.65 26.9 14.8 27.6 14.8 28.25 14.85 29.35 Q15.05 31.1 16.05 32.9 L13.6 32.6 13.45 32.6 12.7 32.65 12.45 32.7 11.5 31.9 Q10.35 31.0 9.6 31.25 L8.45 31.65 4.75 32.75 2.3 33.7 2.9 34.35 7.35 35.8 8.7 36.15 10.0 36.4 10.6 36.55 13.65 37.6 13.9 37.7 15.85 38.15 16.75 37.75 16.8 37.75 17.95 38.8 17.95 38.6 Q17.95 38.8 18.45 38.6 L18.85 42.1 19.0 43.6 19.1 44.0 18.85 44.5 18.9 45.05 17.65 47.45 16.3 50.9 13.95 53.5 9.8 53.5 10.4 52.35 10.5 52.2 11.05 51.3 12.85 49.05 13.05 48.8 13.65 48.05 14.65 46.7 15.85 44.85 16.75 41.75 15.55 42.65 14.4 43.55 13.85 44.05 12.85 44.95 10.65 47.3 9.7 48.55 7.35 52.65 7.45 53.5 5.1 53.5 4.6 50.3 1.1 46.3 0.45 44.8 0.45 40.35 2.45 40.7 4.8 39.95 6.95 42.05 6.95 43.25 Q6.95 45.85 7.1 48.05 L8.7 46.1 10.85 44.0 11.75 43.25 11.75 43.2 13.65 41.55 14.0 41.2 16.35 39.2 16.25 39.2 14.7 38.6 13.95 38.35 12.45 37.75 11.3 37.4 10.05 37.0 8.45 36.6 Q7.35 38.9 7.05 41.3 L4.75 39.5 4.6 38.8 5.5 37.75 3.8 36.4 Q2.9 35.55 1.8 33.9 L1.3 33.2 1.85 33.05 3.3 32.6 7.25 31.45 7.2 31.25 5.85 30.65 13.1 26.05 15.05 26.8 15.55 26.75 14.9 25.9 11.75 22.25 11.4 21.9 11.05 21.45 Q9.4 20.1 6.1 18.15 L2.3 16.0 M11.4 19.6 L11.4 19.35 11.2 19.05 11.05 18.95 10.8 18.85 10.6 18.75 10.6 18.8 10.4 18.9 10.25 19.0 10.25 19.15 10.2 19.3 10.2 19.4 10.55 19.9 11.2 19.95 11.35 19.85 11.4 19.75 11.4 19.6 M17.1 38.45 L16.95 38.25 16.9 38.2 16.9 38.25 17.1 38.7 17.1 38.45" fill="#d95b1d" fill-rule="evenodd" stroke="none"/>
      <path d="M11.4 19.6 L11.4 19.75 11.35 19.85 11.2 19.95 10.55 19.9 10.2 19.4 10.2 19.3 10.25 19.15 10.25 19.0 10.4 18.9 10.6 18.8 10.6 18.75 10.8 18.85 11.05 18.95 11.2 19.05 11.4 19.35 11.4 19.6" fill="#ffe0b4" fill-rule="evenodd" stroke="none"/>
      <path d="M5.85 30.65 L2.8 29.45 0.45 26.95 0.45 21.9 6.05 24.6 12.75 25.95 13.1 26.0 13.1 26.05 5.85 30.65" fill="#952720" fill-rule="evenodd" stroke="none"/>
      <path d="M0.45 14.4 L1.75 14.9 Q5.4 16.65 8.45 19.1 9.75 16.8 10.95 16.9 M17.65 47.45 L16.3 50.9 13.95 53.5 M5.1 53.5 L4.6 50.3 1.1 46.3 0.45 44.8 M0.45 40.35 L2.45 40.7 4.8 39.95 4.75 39.5 4.6 38.8 5.5 37.75 3.8 36.4 Q2.9 35.55 1.8 33.9 L1.3 33.2 1.85 33.05 3.3 32.6 7.25 31.45 7.2 31.25 5.85 30.65 2.8 29.45 0.45 26.95" fill="none" stroke="#5b2010" stroke-linecap="round" stroke-linejoin="round" stroke-width="1.0"/>
      <path d="M28.85 21.85 L31.05 27.45 31.2 28.05 31.1 28.05 31.35 28.5 31.4 28.7 31.2 28.65 31.1 28.65 30.95 28.45 30.8 28.15 Q30.45 27.85 29.85 27.65 L29.65 27.6 29.65 27.65 29.45 27.45 29.75 26.65 Q29.35 25.4 29.45 24.2 29.45 23.45 28.5 22.15 L28.3 21.7 28.7 21.7 28.85 21.85 M31.9 29.9 L32.1 30.4 32.0 30.55 Q31.75 31.7 31.1 32.3 L30.25 31.8 30.8 31.8 31.2 31.6 31.25 31.6 31.35 31.55 31.4 31.5 31.75 30.95 31.9 30.35 31.9 29.9 M32.4 31.25 L33.15 33.65 33.0 33.5 33.0 33.6 33.15 34.5 32.7 33.9 32.5 33.5 32.15 33.4 Q28.85 32.7 26.15 31.1 L25.5 30.65 24.3 29.85 24.4 29.7 25.1 29.9 25.8 29.9 25.9 30.0 27.4 30.95 Q28.8 31.8 30.7 32.65 L30.45 32.75 30.8 32.8 31.25 32.8 33.0 33.5 31.65 32.65 Q32.15 32.3 32.4 31.25 M28.25 30.75 L28.3 30.9 28.1 30.85 26.55 29.85 27.25 29.25 27.35 29.05 Q27.35 29.65 27.9 29.7 L28.1 29.75 Q28.05 30.35 28.25 30.75" fill="#f78f5d" fill-rule="evenodd" stroke="none"/>
      <path d="M31.4 28.7 L31.35 28.5 31.1 28.05 31.2 28.05 31.05 27.45 28.85 21.85 28.7 21.2 28.8 21.05 29.75 22.4 30.0 22.85 Q31.2 24.55 31.9 26.45 33.35 29.7 33.7 33.1 33.7 33.4 33.85 33.7 L33.7 33.9 33.55 35.55 32.3 33.95 Q28.25 33.3 25.35 31.45 L24.4 30.85 23.9 30.35 23.8 29.5 Q23.8 26.5 25.8 23.25 L25.8 23.15 26.05 23.0 26.3 22.85 Q24.6 26.4 24.4 29.7 L24.3 29.85 25.5 30.65 26.15 31.1 Q28.85 32.7 32.15 33.4 L32.5 33.5 32.7 33.9 33.15 34.5 33.0 33.6 33.0 33.5 33.15 33.65 32.4 31.25 32.1 30.4 31.9 29.9 31.9 29.65 31.8 29.05 31.65 28.85 31.4 28.7" fill="#342823" fill-rule="evenodd" stroke="none"/>
      <path d="M31.1 28.65 L31.2 28.65 31.4 28.7 31.65 28.85 31.8 29.05 31.9 29.65 31.9 29.9 31.9 30.35 31.75 30.95 31.4 31.5 31.35 31.55 31.25 31.6 31.2 31.6 30.8 31.6 30.45 31.55 30.4 31.5 30.05 30.95 29.75 30.35 29.75 29.7 29.85 29.2 29.85 29.15 30.05 29.05 30.15 28.9 30.25 28.8 30.25 28.7 30.25 28.65 30.45 28.65 30.7 28.65 30.85 28.65 31.1 28.65" fill="#511b05" fill-rule="evenodd" stroke="none"/>
      <path d="M30.95 28.45 L31.1 28.65 30.85 28.65 30.95 28.45 M32.1 30.4 L32.4 31.25 Q32.15 32.3 31.65 32.65 L33.0 33.5 31.25 32.8 30.8 32.8 30.45 32.75 30.7 32.65 Q28.8 31.8 27.4 30.95 L28.1 30.85 28.3 30.9 28.25 30.75 Q28.45 30.55 28.8 30.4 L28.85 30.35 28.9 30.1 29.25 29.5 29.45 29.2 29.6 29.2 29.65 28.9 Q30.05 28.5 30.45 28.55 L30.7 28.65 30.45 28.65 30.25 28.65 30.25 28.7 30.25 28.8 30.15 28.9 30.05 29.05 29.85 29.15 29.85 29.2 29.75 29.7 29.75 30.35 30.05 30.95 30.4 31.5 30.45 31.55 30.8 31.6 31.2 31.6 30.8 31.8 30.25 31.8 31.1 32.3 Q31.75 31.7 32.0 30.55 L32.1 30.4" fill="#9c350a" fill-rule="evenodd" stroke="none"/>
      <path d="M29.65 27.65 L29.65 27.6 29.85 27.65 Q30.45 27.85 30.8 28.15 L30.95 28.45 30.85 28.65 30.7 28.65 30.45 28.55 Q30.05 28.5 29.65 28.9 L29.6 29.2 29.45 29.2 29.25 29.5 28.9 30.1 28.85 30.35 28.8 30.4 Q28.45 30.55 28.25 30.75 28.05 30.35 28.1 29.75 29.05 29.7 29.65 28.85 29.85 28.2 29.65 27.65 M28.1 30.85 L27.4 30.95 25.9 30.0 25.8 29.9 25.5 29.75 25.65 28.2 Q26.3 25.65 27.0 24.2 L27.15 24.4 25.9 29.2 26.55 29.85 28.1 30.85" fill="#e7652e" fill-rule="evenodd" stroke="none"/>
      <path d="M28.3 21.7 L28.5 22.15 Q29.45 23.45 29.45 24.2 29.35 25.4 29.75 26.65 L29.45 27.45 29.65 27.65 Q29.85 28.2 29.65 28.85 29.05 29.7 28.1 29.75 L27.9 29.7 Q27.35 29.65 27.35 29.05 L27.25 29.25 26.55 29.85 25.9 29.2 27.15 24.4 27.0 24.2 Q26.3 25.65 25.65 28.2 L25.5 29.75 25.8 29.9 25.1 29.9 24.4 29.7 Q24.6 26.4 26.3 22.85 L26.05 23.0 Q26.55 22.5 27.35 22.15 28.0 21.75 28.3 21.7" fill="#ffe6aa" fill-rule="evenodd" stroke="none"/>
      <path d="M22.45 -0.95 L21.7 -0.25 21.9 -0.25 Q23.15 -1.35 24.75 0.55 L24.8 0.7 21.95 4.0 Q20.4 6.15 19.8 7.9 19.3 9.35 19.5 10.55 18.9 8.4 18.75 5.25 L18.5 1.9 Q18.45 0.6 19.0 -0.95 L22.45 -0.95 M24.95 0.9 L27.2 3.2 Q27.2 2.2 28.0 1.9 L28.2 1.9 29.75 1.55 Q31.5 1.2 31.9 -0.95 L33.25 -0.95 Q32.4 3.7 30.75 4.75 L27.8 5.15 26.4 5.15 25.55 3.65 Q24.9 2.2 24.95 0.9 M30.2 -0.95 Q29.2 -0.35 28.5 -0.1 L28.0 -0.05 Q26.6 -0.05 26.35 -0.9 L26.35 -0.95 30.2 -0.95 M52.95 12.35 L52.65 12.25 Q51.45 11.65 50.5 10.8 47.2 7.6 47.2 -0.05 L47.2 -0.95 48.25 -0.95 48.25 0.8 Q48.35 5.5 50.1 8.9 51.2 11.05 52.65 12.15 L52.95 12.35 M46.2 -0.95 Q44.85 1.4 44.85 3.45 44.85 6.35 46.65 11.45 L47.2 13.0 Q48.0 14.85 48.95 16.1 L49.05 16.15 49.9 16.85 50.1 18.3 Q50.1 19.95 48.55 20.35 46.8 20.8 46.45 22.15 L46.4 22.35 Q45.5 26.2 45.5 27.45 L45.35 27.55 44.95 26.75 44.75 25.8 Q44.75 24.6 45.6 22.75 L46.1 21.7 46.6 20.75 47.05 18.45 Q47.15 17.35 47.9 17.35 L48.95 17.6 49.1 16.9 48.95 16.1 48.45 15.7 44.95 12.65 44.25 10.5 44.15 10.95 Q43.3 12.85 42.7 12.85 L42.2 12.7 41.5 12.55 Q40.4 12.55 39.6 13.5 L39.55 13.7 Q38.75 14.85 38.75 16.95 L39.0 20.95 Q39.35 23.95 40.05 23.95 40.65 23.95 40.65 22.8 40.65 21.85 40.05 20.0 L40.05 18.8 Q41.3 19.25 41.85 21.65 42.25 23.25 42.25 25.15 L42.2 26.8 41.75 27.25 Q41.6 27.0 40.45 26.3 39.2 25.4 38.9 24.4 L37.35 20.05 Q36.8 18.3 36.8 15.55 36.8 13.25 36.95 11.6 L37.4 9.2 Q38.2 6.35 40.4 5.6 41.85 5.1 42.85 3.25 L42.8 1.6 Q42.8 0.9 43.3 -0.95 L46.2 -0.95 M54.9 18.25 Q55.55 17.7 55.9 16.5 56.75 13.95 59.2 13.25 L58.25 13.25 56.25 13.15 57.15 13.0 Q58.7 12.6 58.4 11.25 L59.45 13.8 Q60.45 16.6 60.45 17.7 60.7 22.9 56.65 24.35 L55.15 24.6 Q54.35 26.4 52.05 27.25 L51.7 29.15 49.5 33.0 Q48.95 33.85 48.65 37.1 L48.25 41.7 48.15 42.7 47.3 41.45 47.4 41.15 48.1 38.65 47.35 37.2 Q46.65 35.8 46.65 33.5 46.65 31.1 47.7 28.65 48.65 26.7 48.75 25.0 L50.1 24.75 50.8 24.6 50.5 24.35 54.0 23.0 Q58.2 20.9 58.2 17.7 58.2 16.05 57.85 15.4 L57.35 15.0 56.1 16.45 55.85 17.5 Q55.75 18.1 54.9 18.25 M20.3 12.5 L20.8 13.45 20.7 12.85 Q20.7 10.25 22.05 9.2 L22.35 9.0 22.35 9.55 Q22.35 10.5 22.75 11.75 L22.8 11.85 25.4 10.3 Q26.4 9.6 27.45 9.3 L28.85 8.9 30.4 8.75 Q31.95 8.75 33.3 10.2 34.9 11.85 34.9 14.65 34.9 15.85 34.3 16.9 34.1 20.3 31.45 20.9 L29.45 21.4 Q28.5 21.85 28.5 23.25 L28.65 24.1 26.15 22.6 24.55 21.35 23.55 19.6 Q22.75 17.7 21.5 16.1 20.8 15.3 20.4 12.85 L20.3 12.5" fill="#ffd077" fill-rule="evenodd" stroke="none"/>
      <path d="M24.8 0.7 L24.75 0.55 Q23.15 -1.35 21.9 -0.25 L21.7 -0.25 22.45 -0.95 26.35 -0.95 26.35 -0.9 Q26.6 -0.05 28.0 -0.05 L28.5 -0.1 Q29.2 -0.35 30.2 -0.95 L31.9 -0.95 Q31.5 1.2 29.75 1.55 L28.2 1.9 28.0 1.9 Q27.2 2.2 27.2 3.2 L24.95 0.9 25.0 0.65 24.8 0.7 M47.2 -0.95 L47.2 -0.05 Q47.2 7.6 50.5 10.8 51.45 11.65 52.65 12.25 L52.95 12.35 Q53.8 12.9 54.8 13.05 L56.25 13.15 58.25 13.25 59.2 13.25 Q56.75 13.95 55.9 16.5 55.55 17.7 54.9 18.25 L53.4 18.25 52.35 18.1 49.9 16.85 49.05 16.15 48.95 16.1 Q48.0 14.85 47.2 13.0 L46.65 11.45 Q44.85 6.35 44.85 3.45 44.85 1.4 46.2 -0.95 L47.2 -0.95" fill="#ffe9c2" fill-rule="evenodd" stroke="none"/>
      <path d="M19.5 10.55 Q19.3 9.35 19.8 7.9 20.4 6.15 21.95 4.0 L24.8 0.7 25.0 0.65 24.95 0.9 Q24.9 2.2 25.55 3.65 L26.4 5.15 27.8 5.15 30.75 4.75 Q32.4 3.7 33.25 -0.95 L43.3 -0.95 Q42.8 0.9 42.8 1.6 L42.85 3.25 Q41.85 5.1 40.4 5.6 38.2 6.35 37.4 9.2 L36.95 11.6 Q36.8 13.25 36.8 15.55 36.8 18.3 37.35 20.05 L38.9 24.4 Q39.2 25.4 40.45 26.3 41.6 27.0 41.75 27.25 L42.2 26.8 42.25 25.15 Q42.25 23.25 41.85 21.65 41.3 19.25 40.05 18.8 L40.05 20.0 Q40.65 21.85 40.65 22.8 40.65 23.95 40.05 23.95 39.35 23.95 39.0 20.95 L38.75 16.95 Q38.75 14.85 39.55 13.7 L39.6 13.5 Q40.4 12.55 41.5 12.55 L42.2 12.7 42.7 12.85 Q43.3 12.85 44.15 10.95 L44.25 10.5 44.95 12.65 48.45 15.7 48.95 16.1 49.1 16.9 48.95 17.6 47.9 17.35 Q47.15 17.35 47.05 18.45 L46.6 20.75 46.1 21.7 45.6 22.75 Q44.75 24.6 44.75 25.8 L44.95 26.75 45.35 27.55 45.5 27.45 Q45.5 26.2 46.4 22.35 L46.45 22.15 Q46.8 20.8 48.55 20.35 50.1 19.95 50.1 18.3 L49.9 16.85 52.35 18.1 53.4 18.25 54.9 18.25 Q55.75 18.1 55.85 17.5 L56.1 16.45 57.35 15.0 57.85 15.4 Q58.2 16.05 58.2 17.7 58.2 20.9 54.0 23.0 L50.5 24.35 50.8 24.6 50.1 24.75 48.75 25.0 Q48.65 26.7 47.7 28.65 46.65 31.1 46.65 33.5 46.65 35.8 47.35 37.2 L48.1 38.65 47.4 41.15 47.3 41.45 Q43.9 36.4 42.15 34.75 L36.55 31.2 Q34.8 30.1 33.65 27.85 L33.3 27.6 Q30.95 25.4 30.05 24.9 29.35 24.45 28.65 24.1 L28.5 23.25 Q28.5 21.85 29.45 21.4 L31.45 20.9 Q34.1 20.3 34.3 16.9 34.9 15.85 34.9 14.65 34.9 11.85 33.3 10.2 31.95 8.75 30.4 8.75 L28.85 8.9 27.45 9.3 Q26.4 9.6 25.4 10.3 L22.8 11.85 22.75 11.75 Q22.35 10.5 22.35 9.55 L22.35 9.0 22.05 9.2 Q20.7 10.25 20.7 12.85 L20.8 13.45 20.3 12.5 19.65 10.85 19.6 10.7 19.5 10.55" fill="url(#gradient0)" fill-rule="evenodd" stroke="none"/>
    </g>
    <linearGradient gradientTransform="matrix(-0.0101, -0.04, -0.0241, 0.0047, 38.4, -1.35)" gradientUnits="userSpaceOnUse" id="gradient0" spreadMethod="pad" x1="-819.2" x2="819.2">
      <stop offset="0.0" stop-color="#ff681e"/>
      <stop offset="1.0" stop-color="#ffbb54"/>
    </linearGradient>
    <g id="sprite2" transform="matrix(1.0, 0.0, 0.0, 1.0, -6.7, -4.95)">
      <use ffdec:characterId="8" height="9.45" transform="matrix(1.0, 0.0, 0.0, 1.0, 6.7, 4.95)" width="6.9" xlink:href="#shape5"/>
    </g>
    <g id="shape5" transform="matrix(1.0, 0.0, 0.0, 1.0, -6.7, -4.95)">
      <path d="M13.0 6.65 L13.1 6.75 13.1 6.85 Q13.85 9.35 13.45 11.4 L13.3 12.0 12.9 12.25 12.3 12.55 Q10.25 13.5 7.65 13.45 L6.7 14.4 6.8 13.2 6.8 13.1 6.9 12.7 Q7.6 10.4 8.9 8.3 L10.6 6.0 10.8 5.75 11.55 4.95 11.6 5.05 11.4 5.45 9.35 9.1 9.15 9.5 9.15 9.55 8.95 9.8 8.85 10.0 8.3 11.0 7.95 11.6 7.15 13.15 7.3 13.05 7.3 13.1 7.05 13.7 7.45 13.35 7.65 13.1 7.85 13.1 Q9.95 13.0 11.85 12.2 L12.3 12.0 13.1 11.6 13.1 11.5 Q13.4 9.15 12.85 6.5 L13.0 6.65" fill="#342823" fill-rule="evenodd" stroke="none"/>
      <path d="M13.0 6.65 L12.85 6.5 Q13.4 9.15 13.1 11.5 L12.65 11.55 12.2 11.5 12.4 11.4 12.5 10.3 12.25 7.4 12.15 7.45 12.25 10.95 11.7 11.35 11.4 10.8 11.35 10.65 10.95 11.05 10.8 11.05 Q10.2 10.9 10.0 10.25 9.9 9.8 10.15 9.45 L10.25 9.3 10.25 8.75 10.75 7.05 11.55 5.7 11.75 5.45 12.35 5.9 13.0 6.65" fill="#ffe6aa" fill-rule="evenodd" stroke="none"/>
      <path d="M13.1 11.5 L13.1 11.6 12.3 12.0 11.85 12.2 Q9.95 13.0 7.85 13.1 L7.65 13.1 7.45 13.35 7.05 13.7 7.3 13.1 7.3 13.05 7.15 13.15 7.95 11.6 8.25 12.6 7.3 13.05 8.45 12.8 8.75 12.85 8.95 12.85 8.8 12.7 11.05 12.0 12.15 11.5 12.2 11.5 12.65 11.55 13.1 11.5 M8.3 11.0 L8.85 10.0 8.95 9.8 9.15 9.55 9.15 9.5 9.35 9.1 11.4 5.45 11.55 5.4 11.75 5.45 11.55 5.7 10.75 7.05 10.25 8.75 10.25 9.3 10.15 9.45 10.15 9.4 10.05 9.4 9.4 9.65 9.25 9.8 8.85 10.3 8.85 10.4 8.8 10.45 8.75 10.5 8.7 10.5 8.65 10.55 8.6 10.6 8.5 10.8 8.45 11.0 8.45 11.2 8.45 11.35 8.45 11.5 8.45 11.55 8.5 11.65 8.55 11.7 8.55 11.8 8.55 11.85 8.6 11.9 8.6 11.95 8.85 12.1 9.15 12.2 8.6 12.45 Q8.3 11.95 8.3 11.1 L8.3 11.0 M10.8 11.05 L10.95 11.05 11.35 10.65 11.4 10.8 11.7 11.35 10.65 11.8 10.5 11.85 10.6 11.75 10.8 11.05" fill="#f78f5d" fill-rule="evenodd" stroke="none"/>
      <path d="M11.7 11.35 L12.25 10.95 12.15 7.45 12.25 7.4 12.5 10.3 12.4 11.4 12.2 11.5 12.15 11.5 11.05 12.0 10.65 11.8 11.7 11.35 M9.25 9.8 L9.4 9.65 10.05 9.4 10.15 9.4 10.15 9.45 Q9.9 9.8 10.0 10.25 10.2 10.9 10.8 11.05 L10.6 11.75 10.3 11.45 10.25 11.4 10.25 11.2 10.15 10.75 10.05 10.5 10.0 10.5 9.95 10.3 9.55 9.95 9.3 10.0 9.25 9.8" fill="#e7652e" fill-rule="evenodd" stroke="none"/>
      <path d="M9.3 10.0 L9.55 9.95 9.95 10.3 10.0 10.5 10.05 10.5 10.15 10.75 10.25 11.2 10.25 11.4 10.3 11.45 10.25 11.75 10.0 12.05 9.7 12.1 9.65 12.1 9.6 12.15 9.55 12.15 9.15 12.2 8.85 12.1 8.6 11.95 8.6 11.9 8.55 11.85 8.55 11.8 8.55 11.7 8.5 11.65 8.45 11.55 8.45 11.5 8.45 11.35 8.45 11.2 8.45 11.0 8.5 10.8 8.6 10.6 8.65 10.55 8.7 10.5 8.75 10.5 8.8 10.45 8.85 10.4 8.9 10.4 9.3 10.45 9.3 10.0" fill="#692306" fill-rule="evenodd" stroke="none"/>
      <path d="M7.95 11.6 L8.3 11.0 8.3 11.1 Q8.3 11.95 8.6 12.45 L9.15 12.2 9.55 12.15 9.6 12.15 9.65 12.1 9.7 12.1 10.0 12.05 10.25 11.75 10.3 11.45 10.6 11.75 10.5 11.85 10.65 11.8 11.05 12.0 8.8 12.7 8.95 12.85 8.75 12.85 8.45 12.8 7.3 13.05 8.25 12.6 7.95 11.6 M9.3 10.0 L9.3 10.45 8.9 10.4 8.85 10.4 8.85 10.3 9.25 9.8 9.3 10.0" fill="#9c350a" fill-rule="evenodd" stroke="none"/>
    </g>
    <g id="shape6" transform="matrix(1.0, 0.0, 0.0, 1.0, -17.7, -23.8)">
      <path d="M24.1 29.45 L24.4 30.45 17.7 30.15 Q18.7 27.7 20.9 25.3 L25.6 23.8 24.1 29.45" fill="#342823" fill-rule="evenodd" stroke="none"/>
    </g>
    <g id="sprite3" transform="matrix(1.0, 0.0, 0.0, 1.0, 0.0, -49.4)">
      <use ffdec:characterId="11" height="49.5" transform="matrix(1.0, 0.0, 0.0, 1.0, 0.0, 49.4)" width="41.5" xlink:href="#shape7"/>
    </g>
    <g id="shape7" transform="matrix(1.0, 0.0, 0.0, 1.0, 0.0, -49.4)">
      <path d="M13.8 49.4 L16.8 49.4 17.45 52.85 17.4 54.7 Q18.4 56.75 19.85 57.35 22.0 58.2 22.8 61.35 L23.25 64.05 23.4 68.5 Q23.4 71.6 22.9 73.5 L21.35 78.35 Q21.0 79.55 19.8 80.5 L18.5 81.55 18.05 81.05 18.0 79.2 Q18.0 77.1 18.4 75.3 18.95 72.6 20.2 72.1 L20.2 73.45 Q19.6 75.55 19.6 76.6 19.6 77.85 20.2 77.85 20.85 77.85 21.2 74.55 L21.45 70.05 Q21.45 67.65 20.7 66.4 L20.6 66.2 Q19.85 65.1 18.75 65.1 L18.05 65.3 17.55 65.45 Q16.95 65.45 16.15 63.3 L16.0 62.8 15.35 65.2 11.9 68.6 11.35 69.1 11.25 69.95 11.35 70.75 12.4 70.5 Q13.15 70.5 13.25 71.7 13.45 73.65 13.7 74.3 L14.2 75.35 14.7 76.5 Q15.55 78.6 15.55 79.95 L15.35 81.0 14.95 81.9 14.8 81.8 Q14.8 80.45 13.9 76.05 L13.85 75.9 Q13.5 74.35 11.75 73.85 10.25 73.4 10.25 71.6 L10.4 69.9 11.3 69.15 11.35 69.05 13.1 65.6 13.65 63.9 Q15.45 58.2 15.45 54.9 15.45 52.5 13.95 49.7 L13.8 49.4 M26.85 49.4 L28.2 49.4 Q28.45 52.4 30.4 52.8 L31.95 53.15 32.1 53.15 Q32.9 53.5 32.9 54.65 L35.15 52.05 Q35.2 53.5 34.55 55.15 L33.7 56.85 32.35 56.85 29.4 56.35 Q27.65 55.1 26.85 49.4 M29.25 49.4 L34.15 49.4 33.75 50.0 Q33.5 51.0 32.15 51.0 L31.6 50.9 29.95 49.95 29.25 49.4 M37.05 49.4 L40.8 49.4 40.85 49.5 Q41.6 51.55 41.5 53.15 L41.25 56.95 Q41.15 60.5 40.55 62.85 40.7 61.5 40.25 59.9 39.65 57.95 38.1 55.55 36.55 53.1 35.25 51.85 L35.35 51.7 Q36.95 49.5 38.15 50.8 L38.35 50.8 37.1 49.45 37.05 49.4 M39.75 65.05 L39.65 65.45 Q39.25 68.15 38.55 69.1 37.35 70.9 36.55 73.0 L35.55 74.95 33.95 76.4 31.5 78.05 31.6 77.1 Q31.6 75.55 30.7 75.05 L28.7 74.45 Q26.1 73.8 25.85 70.0 25.25 68.8 25.25 67.45 25.25 64.35 26.85 62.45 28.2 60.85 29.75 60.85 L31.3 61.0 32.65 61.45 Q33.7 61.85 34.7 62.6 L37.25 64.35 37.3 64.2 37.75 61.75 37.75 61.15 38.0 61.35 Q39.35 62.55 39.35 65.45 L39.25 66.1 39.75 65.05 M13.0 97.5 L12.15 98.9 12.1 97.75 11.7 92.6 Q11.35 88.95 10.85 88.0 L8.65 83.7 8.3 81.55 Q6.0 80.6 5.2 78.6 L3.75 78.3 Q-0.25 76.7 0.0 70.9 -0.05 69.65 1.0 66.5 L2.0 63.65 Q1.7 65.15 3.25 65.6 L4.15 65.8 2.15 65.9 1.25 65.9 Q3.65 66.7 4.5 69.55 4.85 70.85 5.5 71.5 4.65 71.3 4.55 70.65 L4.3 69.45 3.05 67.85 2.55 68.3 Q2.2 69.0 2.2 70.85 2.2 74.45 6.35 76.8 8.25 77.85 9.8 78.3 L9.55 78.65 10.2 78.75 11.55 79.1 Q11.7 80.95 12.6 83.15 13.65 85.9 13.65 88.6 13.65 91.15 12.95 92.75 L12.2 94.35 12.9 97.15 13.0 97.5 M7.4 64.9 L7.7 64.65 Q9.15 63.45 10.25 61.0 11.95 57.2 12.1 51.95 L12.05 49.4 13.1 49.4 13.1 51.0 Q13.1 59.6 9.8 63.15 L7.7 64.75 7.4 64.9" fill="#ffd077" fill-rule="evenodd" stroke="none"/>
      <path d="M13.1 49.4 L13.8 49.4 13.95 49.7 Q15.45 52.5 15.45 54.9 15.45 58.2 13.65 63.9 L13.1 65.6 11.35 69.05 11.3 69.15 10.4 69.9 Q9.15 70.9 8.0 71.3 L6.95 71.5 5.5 71.5 Q4.85 70.85 4.5 69.55 3.65 66.7 1.25 65.9 L2.15 65.9 4.15 65.8 5.55 65.7 Q6.55 65.5 7.4 64.9 L7.7 64.75 9.8 63.15 Q13.1 59.6 13.1 51.0 L13.1 49.4 M28.2 49.4 L29.25 49.4 29.95 49.95 31.6 50.9 32.15 51.0 Q33.5 51.0 33.75 50.0 L34.15 49.4 37.05 49.4 37.1 49.45 38.35 50.8 38.15 50.8 Q36.95 49.5 35.35 51.7 L35.25 51.85 35.1 51.75 35.15 52.05 32.9 54.65 Q32.9 53.5 32.1 53.15 L31.95 53.15 30.4 52.8 Q28.45 52.4 28.2 49.4" fill="#ffe9c2" fill-rule="evenodd" stroke="none"/>
      <path d="M16.8 49.4 L26.85 49.4 Q27.65 55.1 29.4 56.35 L32.35 56.85 33.7 56.85 34.55 55.15 Q35.2 53.5 35.15 52.05 L35.1 51.75 35.25 51.85 Q36.55 53.1 38.1 55.55 39.65 57.95 40.25 59.9 40.7 61.5 40.55 62.85 L40.45 63.05 40.4 63.2 39.75 65.05 39.25 66.1 39.35 65.45 Q39.35 62.55 38.0 61.35 L37.75 61.15 37.75 61.75 37.3 64.2 37.25 64.35 34.7 62.6 Q33.7 61.85 32.65 61.45 L31.3 61.0 29.75 60.85 Q28.2 60.85 26.85 62.45 25.25 64.35 25.25 67.45 25.25 68.8 25.85 70.0 26.1 73.8 28.7 74.45 L30.7 75.05 Q31.6 75.55 31.6 77.1 L31.5 78.05 30.05 78.95 26.85 81.95 26.55 82.25 Q25.4 84.8 23.65 86.0 L18.1 89.95 Q16.35 91.85 13.0 97.5 L12.9 97.15 12.2 94.35 12.95 92.75 Q13.65 91.15 13.65 88.6 13.65 85.9 12.6 83.15 11.7 80.95 11.55 79.1 L10.2 78.75 9.55 78.65 9.8 78.3 Q8.25 77.85 6.35 76.8 2.2 74.45 2.2 70.85 2.2 69.0 2.55 68.3 L3.05 67.85 4.3 69.45 4.55 70.65 Q4.65 71.3 5.5 71.5 L6.95 71.5 8.0 71.3 Q9.15 70.9 10.4 69.9 L10.25 71.6 Q10.25 73.4 11.75 73.85 13.5 74.35 13.85 75.9 L13.9 76.05 Q14.8 80.45 14.8 81.8 L14.95 81.9 15.35 81.0 15.55 79.95 Q15.55 78.6 14.7 76.5 L14.2 75.35 13.7 74.3 Q13.45 73.65 13.25 71.7 13.15 70.5 12.4 70.5 L11.35 70.75 11.25 69.95 11.35 69.1 11.9 68.6 15.35 65.2 16.0 62.8 16.15 63.3 Q16.95 65.45 17.55 65.45 L18.05 65.3 18.75 65.1 Q19.85 65.1 20.6 66.2 L20.7 66.4 Q21.45 67.65 21.45 70.05 L21.2 74.55 Q20.85 77.85 20.2 77.85 19.6 77.85 19.6 76.6 19.6 75.55 20.2 73.45 L20.2 72.1 Q18.95 72.6 18.4 75.3 18.0 77.1 18.0 79.2 L18.05 81.05 18.5 81.55 19.8 80.5 Q21.0 79.55 21.35 78.35 L22.9 73.5 Q23.4 71.6 23.4 68.5 L23.25 64.05 22.8 61.35 Q22.0 58.2 19.85 57.35 18.4 56.75 17.4 54.7 L17.45 52.85 16.8 49.4" fill="url(#gradient1)" fill-rule="evenodd" stroke="none"/>
    </g>
    <linearGradient gradientTransform="matrix(0.01, -0.0448, 0.0239, 0.0053, 21.8, 49.5)" gradientUnits="userSpaceOnUse" id="gradient1" spreadMethod="pad" x1="-819.2" x2="819.2">
      <stop offset="0.0" stop-color="#ff681e"/>
      <stop offset="1.0" stop-color="#ffbb54"/>
    </linearGradient>
    <g id="shape8" transform="matrix(1.0, 0.0, 0.0, 1.0, -25.35, -7.65)">
      <path d="M25.8 16.7 L26.45 12.25 31.7 7.9 32.0 13.5 36.45 24.8 35.95 27.05 35.3 29.45 35.1 29.9 32.25 26.0 26.35 17.5 26.25 17.3 25.8 16.7" fill="#483c37" fill-rule="evenodd" stroke="none"/>
      <path d="M25.8 16.7 L26.25 17.3 26.35 17.5 26.35 19.35 Q28.45 20.6 32.15 26.75 L33.9 30.05 Q34.55 32.05 34.65 35.0 L33.7 35.65 Q31.4 26.55 25.6 18.5 L25.8 16.7 M35.1 29.9 L35.3 29.45 35.95 27.05 36.45 24.8 37.15 26.65 37.0 29.2 Q36.75 31.7 36.0 34.0 L34.7 34.95 Q35.25 34.05 35.3 30.9 L35.3 30.05 35.1 29.9" fill="#120a00" fill-rule="evenodd" stroke="none"/>
      <path d="M26.35 17.5 L32.25 26.0 35.1 29.9 35.3 30.05 35.3 30.9 Q35.25 34.05 34.7 34.95 L34.65 35.0 Q34.55 32.05 33.9 30.05 L32.15 26.75 Q28.45 20.6 26.35 19.35 L26.35 17.5" fill="#342823" fill-rule="evenodd" stroke="none"/>
      <path d="M36.45 24.8 L32.0 13.5 31.7 7.9 26.45 12.25 25.8 16.7 25.6 18.5 Q31.4 26.55 33.7 35.65 L34.65 35.0 34.7 34.95 36.0 34.0 Q36.75 31.7 37.0 29.2 L37.15 26.65 36.45 24.8 Z" fill="none" stroke="#a6452a" stroke-linecap="round" stroke-linejoin="round" stroke-width="0.5"/>
    </g>
    <g id="sprite4" transform="matrix(1.0, 0.0, 0.0, 1.0, -3.5, -1.7)">
      <use ffdec:characterId="14" height="9.6" transform="matrix(1.0, 0.0, 0.0, 1.0, 3.5, 1.7)" width="4.9" xlink:href="#shape9"/>
    </g>
    <g id="shape9" transform="matrix(1.0, 0.0, 0.0, 1.0, -3.5, -1.7)">
      <path d="M5.65 2.55 L7.8 6.15 7.9 6.0 8.05 6.5 8.05 6.55 Q8.4 7.05 8.4 7.7 8.45 10.25 6.25 11.2 5.6 11.45 5.15 10.9 2.25 7.2 4.4 2.8 L5.15 1.7 5.6 2.45 5.65 2.35 5.65 2.55 M5.9 3.6 L5.6 3.05 5.1 4.15 5.05 4.2 Q3.75 7.5 5.75 10.45 6.0 10.85 6.4 10.45 8.0 8.95 7.8 6.7 L7.0 5.3 5.9 3.6" fill="#d93d33" fill-rule="evenodd" stroke="none"/>
      <path d="M7.2 5.85 L7.35 6.8 Q7.65 8.3 7.15 8.4 L7.1 8.85 5.95 9.5 Q5.05 7.4 6.5 5.4 L7.2 5.85" fill="#952720" fill-rule="evenodd" stroke="none"/>
    </g>
    <g id="shape10" transform="matrix(1.0, 0.0, 0.0, 1.0, 0.0, 0.0)">
      <path d="M50.5 0.0 Q53.95 0.0 53.95 3.3 L53.95 50.15 Q53.95 53.4 50.5 53.4 L3.3 53.4 Q0.0 53.4 0.0 50.15 L0.0 3.3 Q0.0 0.0 3.3 0.0 L50.5 0.0" fill="#000000" fill-opacity="0.003921569" fill-rule="evenodd" stroke="none"/>
    </g>
  </defs>
</svg>
