<?xml version="1.0" encoding="UTF-8" standalone="no"?>
<svg xmlns:ffdec="https://www.free-decompiler.com/flash" xmlns:xlink="http://www.w3.org/1999/xlink" ffdec:objectType="frame" height="55.45px" width="57.45px" xmlns="http://www.w3.org/2000/svg">
  <g transform="matrix(1.0, 0.0, 0.0, 1.0, 2.0, 1.0)">
    <clipPath id="clipPath0" transform="matrix(1.0, 0.0, 0.0, 1.0, 0.0, 0.0)">
      <path d="M50.5 0.0 Q53.95 0.0 53.95 3.3 L53.95 50.15 Q53.95 53.4 50.5 53.4 L3.3 53.4 Q0.0 53.4 0.0 50.15 L0.0 3.3 Q0.0 0.0 3.3 0.0 L50.5 0.0" fill="#000000" fill-rule="evenodd" stroke="none"/>
    </clipPath>
    <g clip-path="url(#clipPath0)">
      <use ffdec:characterId="2" height="55.45" transform="matrix(1.0, 0.0, 0.0, 1.0, -2.0, -1.0)" width="57.45" xlink:href="#shape1"/>
    </g>
    <use ffdec:characterId="3" height="53.4" transform="matrix(1.0, 0.0, 0.0, 1.0, 0.0, 0.0)" width="53.95" xlink:href="#shape2"/>
  </g>
  <defs>
    <g id="shape1" transform="matrix(1.0, 0.0, 0.0, 1.0, 2.0, 1.0)">
      <path d="M16.75 10.5 L15.5 11.4 Q13.6 12.5 10.8 13.0 L9.05 12.6 8.5 12.3 8.05 11.9 7.15 10.75 Q5.75 8.55 5.75 5.55 L5.85 1.7 12.5 7.2 13.2 7.8 16.35 10.2 16.4 10.25 16.75 10.5 M44.85 17.3 L44.45 16.9 Q45.45 16.4 46.2 16.25 L46.4 16.45 Q47.45 17.85 47.75 20.65 L47.75 21.15 47.65 21.0 47.15 20.05 46.95 19.6 46.3 18.8 45.6 18.05 44.85 17.3 M41.9 22.65 L42.2 23.6 Q42.4 24.3 41.8 24.15 37.35 23.45 39.85 21.3 L40.05 21.2 Q41.35 21.6 41.9 22.65 M35.05 35.05 Q34.5 35.55 34.0 35.6 33.15 35.65 32.7 33.9 L32.5 33.25 32.7 33.15 33.8 32.6 Q34.45 32.8 35.05 33.4 35.85 34.25 35.2 34.9 L35.05 35.05 M14.9 18.05 L15.95 18.85 16.35 19.25 17.15 20.3 17.95 21.85 Q17.7 21.9 17.4 22.1 L16.6 22.35 16.1 22.4 Q14.9 22.4 14.1 21.65 L13.45 20.5 13.25 19.85 14.9 18.05 M28.0 13.15 L27.75 12.75 27.4 12.4 29.05 11.75 30.05 11.45 Q30.9 12.4 31.45 13.85 L32.2 17.1 32.3 18.1 32.3 18.8 32.15 18.55 31.45 17.15 31.1 16.5 30.15 15.25 28.0 13.15 M10.95 29.3 L11.05 29.35 Q12.7 29.9 14.1 30.65 L10.75 32.15 10.3 32.35 8.65 31.8 6.4 31.0 10.95 29.3 M10.9 33.05 L11.3 32.7 13.85 31.25 14.4 31.05 14.75 30.95 16.0 31.65 Q18.05 32.95 19.45 34.55 L19.4 34.6 18.4 35.05 16.15 36.1 15.65 36.25 13.75 35.35 13.6 35.25 13.4 35.15 10.75 33.35 10.8 33.2 10.85 33.1 10.9 33.05 M17.8 39.3 Q18.45 38.95 19.5 38.55 L19.55 38.5 Q20.85 37.95 21.9 37.75 L22.5 37.95 24.3 42.05 25.15 44.05 23.0 44.55 19.75 44.55 19.7 44.1 19.15 42.2 19.05 41.9 Q18.45 40.55 17.5 39.5 L17.7 39.35 17.8 39.3 M21.95 48.05 L22.45 48.0 22.6 48.0 22.7 47.95 23.15 47.85 23.35 47.8 24.05 47.65 25.0 47.45 25.7 47.35 26.35 47.2 26.55 47.95 27.0 50.05 27.15 50.8 27.25 51.2 25.5 51.7 24.4 51.95 23.85 52.0 23.75 52.0 23.5 51.85 23.45 51.7 23.2 51.7 Q22.35 51.65 22.15 51.1 L20.95 48.25 21.95 48.05" fill="#ffffff" fill-rule="evenodd" stroke="none"/>
      <path d="M28.7 -0.5 L30.2 -0.5 27.1 4.65 25.95 4.8 25.15 4.95 24.8 5.0 24.3 5.1 Q22.4 5.55 20.55 6.6 L20.05 6.85 19.95 6.95 19.55 7.15 18.95 7.5 17.25 6.65 Q18.1 6.2 19.45 5.7 L21.7 4.95 24.05 4.2 26.45 3.35 27.7 1.1 28.7 -0.5 M51.2 -0.5 L51.8 -0.5 45.2 15.1 43.55 14.05 43.6 11.35 44.75 10.3 45.3 9.75 Q46.85 8.05 48.7 4.65 L49.6 2.9 49.85 2.45 50.95 0.05 51.2 -0.5 M18.2 53.95 L1.85 53.95 5.8 46.8 5.0 43.05 Q2.2 41.65 -0.5 40.1 L-0.5 53.95 -1.5 53.95 -1.5 38.5 Q1.15 40.05 3.9 41.45 7.3 41.05 10.0 39.2 L12.3 41.1 13.75 41.1 13.65 42.6 16.5 48.55 17.55 48.9 17.1 50.4 18.2 53.95 M29.4 45.45 L40.3 45.7 44.35 51.2 44.0 52.1 32.9 51.5 31.7 51.45 26.55 47.95 26.35 47.2 26.3 47.15 24.95 46.4 25.55 45.15 25.15 44.05 24.3 42.05 28.7 45.25 28.95 45.45 29.4 45.45 M42.65 44.65 L42.95 43.35 Q44.75 45.0 45.9 47.15 L46.0 47.2 45.4 48.7 42.65 44.65 M9.1 24.45 L12.8 20.35 13.3 20.85 14.05 21.8 14.8 23.75 14.9 25.35 14.5 27.4 14.4 27.65 14.2 28.15 14.1 27.8 12.5 26.75 10.4 25.35 9.1 24.45" fill="#21262e" fill-rule="evenodd" stroke="none"/>
      <path d="M54.95 18.8 L54.95 26.6 53.9 27.0 54.55 33.9 51.45 42.05 47.8 37.55 49.05 33.25 48.15 29.3 50.5 26.65 50.8 26.0 51.0 25.55 49.4 23.9 48.25 22.65 48.35 22.65 48.7 23.0 48.95 23.35 48.9 22.8 52.3 19.85 51.15 12.3 50.4 7.4 51.8 4.05 54.95 18.8 M47.75 18.2 L46.8 16.25 46.65 16.15 46.55 16.1 47.0 15.25 47.75 18.2 M45.4 48.7 L46.0 47.2 46.65 47.6 46.85 48.0 46.65 47.6 46.85 47.75 46.85 48.0 46.8 49.25 47.55 51.85 47.65 52.0 45.4 48.7 M45.05 52.15 L44.0 52.1 44.35 51.2 45.05 52.15" fill="#2b3441" fill-rule="evenodd" stroke="none"/>
      <path d="M53.75 -0.5 L54.95 -0.5 54.95 5.05 54.0 2.85 53.35 1.3 53.2 0.85 53.75 -0.5" fill="#56647b" fill-rule="evenodd" stroke="none"/>
      <path d="M54.95 5.05 L54.95 18.8 51.8 4.05 53.2 0.85 53.35 1.3 54.0 2.85 54.95 5.05 M47.0 15.25 L49.8 8.9 50.4 7.4 51.15 12.3 52.3 19.85 48.9 22.8 47.75 18.2 47.0 15.25" fill="#424c5d" fill-rule="evenodd" stroke="none"/>
      <path d="M0.95 -0.5 L3.4 -0.5 5.85 1.7 5.75 5.55 Q5.75 8.55 7.15 10.75 L8.05 11.9 8.5 12.3 9.05 12.6 10.8 13.0 Q13.6 12.5 15.5 11.4 L16.75 10.5 16.85 10.55 16.85 10.6 Q16.4 10.85 15.95 11.2 L15.3 11.7 Q13.2 13.25 10.7 15.75 L9.65 16.85 8.7 17.85 7.55 19.2 5.3 21.8 4.2 21.0 5.3 21.8 8.25 23.85 9.1 24.45 10.4 25.35 7.95 25.7 7.85 25.75 6.4 26.0 5.7 26.15 1.05 26.95 0.7 27.0 0.15 27.0 -1.5 25.95 -1.5 21.5 -1.0 21.35 0.9 21.0 1.4 20.95 Q2.5 20.8 3.75 20.95 L4.2 21.0 3.9 20.8 6.8 17.5 7.95 16.25 8.25 15.95 9.05 15.15 10.3 14.0 10.1 14.0 8.25 13.6 7.7 13.35 6.95 12.8 5.75 11.55 Q3.95 9.35 3.95 7.2 3.95 5.75 4.35 4.25 L4.65 3.4 0.95 -0.5 M19.1 -0.5 L20.65 -0.5 19.65 0.55 17.25 3.25 17.3 1.35 19.1 -0.5 M46.65 -0.5 L48.8 -0.5 46.45 0.95 46.65 -0.5 M1.85 53.95 L-0.5 53.95 -0.5 40.1 Q2.2 41.65 5.0 43.05 L5.8 46.8 1.85 53.95 M-1.5 18.65 L-1.5 16.75 1.3 18.85 -0.5 18.7 -1.15 18.65 -1.5 18.65 M12.8 20.35 L13.25 19.85 13.45 20.5 14.1 21.65 Q14.9 22.4 16.1 22.4 L16.6 22.35 17.4 22.1 Q17.7 21.9 17.95 21.85 L18.45 23.8 18.45 23.95 16.95 24.1 14.8 23.75 14.05 21.8 13.3 20.85 12.8 20.35" fill="#d7e5fa" fill-rule="evenodd" stroke="none"/>
      <path d="M5.3 21.8 L7.55 19.2 8.7 17.85 9.65 16.85 10.7 15.75 Q13.2 13.25 15.3 11.7 L15.95 11.2 Q16.4 10.85 16.85 10.6 L16.0 11.75 16.35 12.85 16.6 13.45 16.65 13.65 14.4 16.5 14.0 16.95 13.6 17.4 13.6 17.45 12.95 18.15 11.65 19.6 10.35 21.2 8.25 23.85 5.3 21.8 M5.85 1.7 L3.4 -0.5 11.95 -0.5 Q12.2 4.5 12.8 6.7 L12.6 7.05 12.5 7.2 5.85 1.7 M33.8 -0.5 L34.35 -0.5 35.1 14.4 35.35 14.8 35.95 14.95 35.9 15.85 34.9 14.7 34.75 11.45 34.65 9.95 34.55 8.2 34.35 4.05 34.1 0.5 33.8 -0.5 M35.7 -0.5 L38.65 -0.5 43.65 0.45 43.65 3.25 43.6 6.55 43.6 7.3 43.6 11.35 43.55 14.05 43.55 16.5 43.55 17.7 43.55 17.75 43.55 17.8 37.25 16.25 Q37.05 14.15 37.6 12.15 L37.75 11.65 Q38.15 10.35 38.9 9.15 L38.95 9.0 39.7 7.85 Q40.9 6.1 41.55 6.1 42.1 6.1 42.15 6.85 L42.15 0.9 36.15 0.05 36.15 5.35 36.1 9.85 36.1 11.8 35.7 -0.5 M47.85 53.95 L47.2 53.95 47.2 53.15 47.0 52.25 46.3 52.2 45.05 52.15 44.35 51.2 40.3 45.7 42.35 45.75 42.65 44.65 45.4 48.7 47.65 52.0 47.95 52.5 48.0 52.5 48.0 52.55 47.95 52.5 48.0 52.55 47.85 53.95 M32.0 53.95 L31.7 53.95 29.9 52.65 27.15 50.8 27.0 50.05 32.0 53.95 M-1.5 38.5 L-1.5 34.7 1.9 36.75 1.45 35.1 1.45 34.9 0.6 34.2 0.2 31.45 -0.1 29.45 -0.35 29.25 -0.15 29.05 0.8 28.05 1.6 27.5 2.15 27.2 6.1 26.2 7.3 26.15 12.5 26.75 14.1 27.8 14.2 28.15 14.4 27.65 15.35 27.95 17.75 28.15 18.05 28.15 17.6 29.3 Q17.0 30.55 16.05 31.6 L16.0 31.65 14.75 30.95 14.4 30.8 14.1 30.65 Q12.7 29.9 11.05 29.35 L10.95 29.3 Q7.65 28.35 5.3 29.8 2.45 31.65 3.85 36.65 L7.35 37.55 8.8 37.0 9.2 38.55 10.0 39.2 Q7.3 41.05 3.9 41.45 1.15 40.05 -1.5 38.5 M40.3 26.05 L41.55 24.5 41.65 24.55 50.8 26.0 50.5 26.65 49.35 26.4 47.35 25.9 47.05 25.85 41.85 25.0 41.1 25.9 39.8 27.65 37.85 30.1 37.25 30.1 40.3 26.05 M36.45 21.1 L39.9 24.4 38.35 26.9 36.45 29.8 36.3 29.8 30.05 25.5 25.0 26.45 17.15 20.3 16.35 19.25 15.95 18.85 18.0 16.5 Q18.5 19.65 21.25 21.45 24.15 23.35 28.6 23.35 30.7 23.35 34.05 22.1 L34.15 22.1 36.45 21.1 M46.1 29.85 L46.2 29.75 46.15 29.85 46.1 29.85 M28.35 9.6 L29.45 9.95 30.0 9.15 31.3 10.65 29.05 10.1 28.35 9.6 M14.2 28.15 L14.4 30.8 14.2 28.15" fill="#8c9aaf" fill-rule="evenodd" stroke="none"/>
      <path d="M0.95 -0.5 L4.65 3.4 4.35 4.25 Q3.95 5.75 3.95 7.2 3.95 9.35 5.75 11.55 L6.95 12.8 7.7 13.35 8.25 13.6 10.1 14.0 10.3 14.0 9.05 15.15 8.25 15.95 7.95 16.25 6.8 17.5 3.9 20.8 1.3 18.85 -1.5 16.75 -1.5 -0.5 0.95 -0.5 M11.95 -0.5 L19.1 -0.5 17.3 1.35 17.25 3.25 15.45 5.35 15.35 5.45 13.25 7.8 13.2 7.75 13.2 7.8 12.5 7.2 12.6 7.05 12.8 6.7 Q12.2 4.5 11.95 -0.5 M43.15 -0.5 L46.65 -0.5 46.45 0.95 46.4 1.0 45.6 1.5 45.25 1.8 43.65 3.25 43.65 0.45 43.15 -0.5 M54.95 26.6 L54.95 48.95 54.0 48.05 54.15 46.75 Q53.05 44.35 51.45 42.05 L54.55 33.9 53.9 27.0 54.95 26.6 M46.15 53.95 L35.15 53.95 32.9 51.5 44.0 52.1 45.05 52.15 46.3 52.2 46.15 53.95 M-1.5 28.55 L-1.5 25.95 0.15 27.0 0.7 27.0 1.05 26.95 5.7 26.15 6.4 26.0 7.85 25.75 7.95 25.7 10.4 25.35 12.5 26.75 7.3 26.15 6.1 26.2 2.15 27.2 1.6 27.5 0.8 28.05 -0.15 29.05 -0.35 29.25 -1.5 28.55 M14.8 23.75 L16.95 24.1 18.45 23.95 18.5 25.65 18.05 28.15 17.75 28.15 15.35 27.95 14.4 27.65 14.5 27.4 14.9 25.35 14.8 23.75 M48.0 52.5 L47.95 52.5 47.65 52.0 48.0 52.5 M48.0 52.55 L48.3 53.0 47.85 53.95 48.0 52.55" fill="#a5bad9" fill-rule="evenodd" stroke="none"/>
      <path d="M20.65 -0.5 L23.65 -0.5 22.65 0.5 17.65 5.9 17.15 6.55 17.25 6.65 18.95 7.5 19.55 7.15 19.95 6.95 19.55 7.2 Q17.95 8.35 16.4 10.25 L16.35 10.2 13.2 7.8 13.2 7.75 13.25 7.8 15.35 5.45 15.45 5.35 17.25 3.25 19.65 0.55 20.65 -0.5 M30.2 -0.5 L32.65 -0.5 33.8 -0.5 34.1 0.5 34.35 4.05 34.55 8.2 34.65 9.95 34.75 11.45 34.9 14.7 31.3 10.65 30.0 9.15 29.45 9.95 28.35 9.6 26.4 9.0 26.25 9.1 25.4 9.65 24.0 10.7 23.25 11.35 Q21.3 13.0 19.1 15.35 19.4 18.45 21.1 20.0 23.1 21.85 27.7 21.85 29.6 21.85 31.85 21.05 L33.25 21.05 33.8 21.65 34.15 22.1 34.05 22.1 Q30.7 23.35 28.6 23.35 24.15 23.35 21.25 21.45 18.5 19.65 18.0 16.5 L15.95 18.85 14.9 18.05 18.8 13.7 17.7 11.95 18.25 11.35 19.5 10.05 20.25 9.25 20.25 9.2 21.25 8.7 21.3 8.65 21.6 8.5 Q23.15 7.7 24.5 7.3 26.5 6.6 28.0 6.7 L28.65 6.8 29.95 6.85 28.35 5.4 28.05 5.1 27.9 5.1 25.15 4.95 25.95 4.8 27.1 4.65 30.2 -0.5 M48.8 -0.5 L50.4 -0.5 49.4 0.25 49.4 0.3 46.9 2.6 46.55 2.95 45.95 3.6 Q44.65 5.0 43.6 6.55 L43.65 3.25 45.25 1.8 45.6 1.5 46.4 1.0 46.45 0.95 48.8 -0.5 M51.8 -0.5 L53.75 -0.5 53.2 0.85 51.8 4.05 50.4 7.4 49.8 8.9 47.0 15.25 46.55 16.1 45.2 15.1 51.8 -0.5 M31.7 53.95 L30.7 53.95 27.25 51.2 27.15 50.8 29.9 52.65 31.7 53.95 M28.85 53.95 L27.9 53.95 27.7 53.15 28.85 53.95 M-1.5 34.7 L-1.5 32.5 -1.05 32.9 -0.3 33.6 0.6 34.4 0.6 34.2 1.45 34.9 1.45 35.1 1.9 36.75 -1.5 34.7 M36.1 11.8 L36.1 9.85 36.15 5.35 36.15 0.05 42.15 0.9 42.15 6.85 Q42.1 6.1 41.55 6.1 40.9 6.1 39.7 7.85 L38.95 9.0 38.9 9.15 Q38.15 10.35 37.75 11.65 L37.6 12.15 Q37.05 14.15 37.25 16.25 L35.95 15.9 35.9 15.85 35.95 14.95 36.15 15.0 36.1 11.8 M34.7 19.5 L36.45 21.1 34.15 22.1 33.9 20.0 34.7 19.5 M49.35 26.4 L50.5 26.65 48.15 29.3 46.4 31.2 37.85 30.1 Q40.9 26.7 45.65 26.7 47.2 26.7 47.2 27.55 L46.85 28.5 46.2 29.75 47.85 28.05 49.35 26.4 M46.1 29.85 L46.15 29.85 46.2 29.75 46.1 29.85 M43.5 36.65 L44.5 36.7 43.75 39.85 43.35 41.65 42.95 43.35 42.65 44.65 42.35 45.75 40.3 45.7 29.4 45.45 34.65 36.7 31.1 44.25 33.55 41.7 Q35.7 39.8 38.9 39.8 L39.0 39.8 Q39.85 39.85 40.95 40.6 42.1 41.4 42.2 42.0 L42.25 42.0 42.45 41.0 42.85 39.35 43.5 36.65 M34.0 35.6 L33.95 35.85 28.7 45.25 24.3 42.05 22.5 37.95 21.9 37.75 20.75 37.25 20.55 36.1 20.55 36.05 19.55 34.65 21.95 36.15 28.45 30.95 28.55 31.0 32.7 33.9 Q33.15 35.65 34.0 35.6 M32.65 -0.5 L29.3 5.1 29.35 5.15 31.55 6.85 30.0 9.15 31.55 6.85 29.35 5.15 29.3 5.1 32.65 -0.5 M35.0 36.05 L35.05 35.6 35.15 35.65 35.0 36.05" fill="#7a768c" fill-rule="evenodd" stroke="none"/>
      <path d="M26.65 -0.5 L28.7 -0.5 27.7 1.1 26.45 3.35 24.05 4.2 21.7 4.95 19.45 5.7 Q18.1 6.2 17.25 6.65 L17.15 6.55 17.65 5.9 18.45 5.5 19.5 5.0 Q21.75 3.85 23.5 2.6 L23.95 2.2 26.55 -0.35 26.6 -0.4 26.65 -0.5 M50.4 -0.5 L51.2 -0.5 50.95 0.05 49.85 2.45 49.6 2.9 48.7 4.65 Q46.85 8.05 45.3 9.75 L44.75 10.3 43.6 11.35 43.6 7.3 46.45 5.5 46.85 5.2 48.05 3.6 49.0 1.5 49.4 0.35 49.4 0.25 50.4 -0.5" fill="#3c3948" fill-rule="evenodd" stroke="none"/>
      <path d="M23.65 -0.5 L26.65 -0.5 26.6 -0.4 26.55 -0.35 23.95 2.2 23.5 2.6 Q21.75 3.85 19.5 5.0 L18.45 5.5 17.65 5.9 22.65 0.5 23.65 -0.5 M43.6 6.55 Q44.65 5.0 45.95 3.6 L46.55 2.95 46.9 2.6 49.4 0.3 49.4 0.25 49.4 0.35 49.0 1.5 48.05 3.6 46.85 5.2 46.45 5.5 43.6 7.3 43.6 6.55" fill="#4e4658" fill-rule="evenodd" stroke="none"/>
      <path d="M54.75 53.95 L53.7 53.95 53.95 53.5 Q53.95 52.2 52.4 50.85 L53.55 50.4 53.65 50.6 Q54.8 52.6 54.8 53.8 L54.75 53.95 M51.6 53.95 L50.0 53.95 50.0 52.45 Q48.85 51.65 48.4 50.9 L48.2 50.5 48.0 48.85 48.45 47.4 46.45 45.45 45.7 44.55 43.35 41.65 43.75 39.85 43.85 39.9 45.15 40.5 46.75 41.15 48.9 42.15 50.6 44.25 52.85 47.1 52.5 48.25 Q52.5 48.55 53.05 49.55 50.75 49.4 49.1 48.2 L49.05 48.15 Q48.65 48.75 48.7 49.2 L48.9 49.7 48.9 50.75 Q49.95 51.3 51.05 53.05 L51.6 53.95 M21.8 53.95 L20.0 53.95 Q18.85 52.2 18.85 50.05 L19.15 49.55 19.35 49.3 19.5 48.7 Q19.5 47.35 18.75 47.2 L18.7 47.2 Q17.55 47.1 16.95 46.0 L16.2 44.4 15.1 41.0 15.75 40.55 14.65 38.8 13.15 39.1 11.35 38.15 10.85 37.8 Q9.85 37.1 9.65 36.6 L8.95 35.5 Q8.05 36.25 7.5 36.25 L5.25 35.85 5.05 33.75 5.25 32.15 5.65 31.3 Q8.45 31.75 10.85 33.05 L10.9 33.05 10.85 33.1 10.8 33.2 10.75 33.15 10.3 33.0 10.25 32.95 10.1 33.75 9.85 34.75 11.65 36.35 11.8 36.5 12.4 37.1 13.25 38.25 14.05 37.25 14.2 37.15 15.7 38.45 16.1 38.1 Q16.3 37.85 16.6 37.7 L17.15 38.35 17.8 39.25 17.7 39.35 17.5 39.5 17.1 39.95 16.1 40.85 17.35 42.35 18.35 43.5 18.45 43.65 18.8 44.15 Q19.25 44.9 19.35 45.6 L19.15 46.45 20.35 46.45 21.35 46.15 21.95 48.05 20.95 48.25 20.55 48.3 20.8 49.4 20.05 49.95 Q21.3 50.7 21.8 53.95 M46.3 42.5 L44.75 41.9 45.9 43.95 Q46.6 45.0 47.45 45.55 L49.3 46.4 49.7 46.6 51.4 47.3 51.4 46.8 50.65 44.8 50.5 44.5 Q50.1 44.0 49.1 43.7 L46.3 42.55 46.3 42.5" fill="#97abc9" fill-rule="evenodd" stroke="none"/>
      <path d="M54.95 48.95 L54.95 53.95 54.75 53.95 54.8 53.8 Q54.8 52.6 53.65 50.6 L53.55 50.4 52.4 50.85 50.55 50.6 Q49.35 50.25 48.9 49.7 L48.7 49.2 Q48.65 48.75 49.05 48.15 L49.1 48.2 Q50.75 49.4 53.05 49.55 52.5 48.55 52.5 48.25 L52.85 47.1 50.6 44.25 48.9 42.15 46.75 41.15 45.15 40.5 43.85 39.9 43.75 39.85 44.5 36.7 44.65 36.15 44.9 35.35 44.25 34.35 44.45 34.35 47.8 37.55 51.45 42.05 Q53.05 44.35 54.15 46.75 L54.0 48.05 54.95 48.95 M50.0 53.95 L47.85 53.95 48.3 53.0 48.0 52.55 48.0 52.5 47.65 52.0 47.55 51.85 46.8 49.25 46.85 48.0 46.85 47.75 46.65 47.6 46.0 47.2 45.9 47.15 Q44.75 45.0 42.95 43.35 L43.35 41.65 45.7 44.55 46.45 45.45 48.45 47.4 48.0 48.85 48.2 50.5 48.4 50.9 Q48.85 51.65 50.0 52.45 L50.0 53.95 M27.9 53.95 L22.05 53.95 20.8 49.4 20.55 48.3 20.95 48.25 22.15 51.1 Q22.35 51.65 23.2 51.7 L23.45 51.7 23.5 51.85 23.75 52.0 23.85 52.0 24.4 51.95 25.5 51.7 27.25 51.2 27.7 53.15 27.9 53.95 M20.0 53.95 L18.2 53.95 17.1 50.4 17.55 48.9 16.5 48.55 13.65 42.6 13.75 41.1 12.3 41.1 10.0 39.2 9.2 38.55 8.8 37.0 7.35 37.55 3.85 36.65 Q2.45 31.65 5.3 29.8 7.65 28.35 10.95 29.3 L6.4 31.0 8.65 31.8 10.3 32.35 10.75 32.15 14.1 30.65 14.4 30.8 14.75 30.95 14.4 31.05 13.85 31.25 11.3 32.7 10.9 33.05 10.85 33.05 Q8.45 31.75 5.65 31.3 L5.25 32.15 5.05 33.75 5.25 35.85 7.5 36.25 Q8.05 36.25 8.95 35.5 L9.65 36.6 Q9.85 37.1 10.85 37.8 L11.35 38.15 13.15 39.1 14.65 38.8 15.75 40.55 15.1 41.0 16.2 44.4 16.95 46.0 Q17.55 47.1 18.7 47.2 L18.75 47.2 Q19.5 47.35 19.5 48.7 L19.35 49.3 19.15 49.55 18.85 50.05 Q18.85 52.2 20.0 53.95 M43.55 14.05 L45.2 15.1 46.55 16.1 46.65 16.15 46.8 16.25 47.75 18.2 48.9 22.8 48.95 23.35 48.7 23.0 47.75 21.15 47.75 20.65 Q47.45 17.85 46.4 16.45 L46.2 16.25 Q45.45 16.4 44.45 16.9 L44.85 17.3 44.4 17.05 44.25 16.95 44.2 16.95 44.15 16.9 43.95 16.8 43.8 16.65 43.55 16.5 43.55 14.05 M32.55 14.85 L33.6 18.45 33.9 20.0 34.15 22.1 33.8 21.65 33.15 20.45 32.3 18.8 32.3 18.1 32.2 17.1 31.45 13.85 Q30.9 12.4 30.05 11.45 L29.05 11.75 27.4 12.4 27.75 12.75 28.0 13.15 27.1 12.5 27.0 12.45 26.95 12.4 26.7 12.25 26.45 12.05 Q25.7 11.6 24.0 10.7 L25.4 9.65 26.25 9.1 26.4 9.0 28.35 9.6 29.05 10.1 30.7 11.3 31.0 11.45 32.55 14.85 M10.75 33.35 L13.4 35.15 13.6 35.25 13.75 35.35 15.65 36.25 16.15 36.1 18.4 35.05 19.4 34.6 19.45 34.55 19.55 34.65 20.55 36.05 20.55 36.1 20.75 37.25 21.9 37.75 Q20.85 37.95 19.55 38.5 L19.5 38.55 Q18.45 38.95 17.8 39.3 L17.8 39.25 17.15 38.35 16.6 37.7 Q16.3 37.85 16.1 38.1 L15.7 38.45 14.2 37.15 13.0 36.15 12.8 36.0 10.55 33.8 10.75 33.35 M17.1 39.95 L17.5 39.5 Q18.45 40.55 19.05 41.9 L19.15 42.2 19.7 44.1 19.75 44.55 23.0 44.55 25.15 44.05 25.55 45.15 24.95 46.4 26.3 47.15 26.35 47.2 25.7 47.35 25.0 47.45 24.05 47.65 23.35 47.8 23.15 47.85 22.7 47.95 22.6 48.0 22.45 48.0 21.95 48.05 21.35 46.15 21.2 45.6 19.35 45.6 Q19.25 44.9 18.8 44.15 L18.3 42.9 17.9 41.9 17.4 40.7 17.1 39.95" fill="#c4d7f3" fill-rule="evenodd" stroke="none"/>
      <path d="M53.7 53.95 L51.6 53.95 51.05 53.05 Q49.95 51.3 48.9 50.75 L48.9 49.7 Q49.35 50.25 50.55 50.6 L52.4 50.85 Q53.95 52.2 53.95 53.5 L53.7 53.95 M22.05 53.95 L21.8 53.95 Q21.3 50.7 20.05 49.95 L20.8 49.4 22.05 53.95 M46.3 42.5 L46.3 42.55 49.1 43.7 Q50.1 44.0 50.5 44.5 L50.65 44.8 51.4 46.8 51.4 47.3 49.7 46.6 49.3 46.4 47.45 45.55 Q46.6 45.0 45.9 43.95 L44.75 41.9 46.3 42.5 M10.8 33.2 L10.75 33.35 10.55 33.8 12.8 36.0 13.0 36.15 14.2 37.15 14.05 37.25 13.25 38.25 12.4 37.1 11.8 36.5 11.65 36.35 9.85 34.75 10.1 33.75 10.25 32.95 10.3 33.0 10.75 33.15 10.8 33.2 M17.8 39.25 L17.8 39.3 17.7 39.35 17.8 39.25 M18.8 44.15 L18.45 43.65 18.35 43.5 17.35 42.35 16.1 40.85 17.1 39.95 17.4 40.7 17.9 41.9 18.3 42.9 18.8 44.15 M19.35 45.6 L21.2 45.6 21.35 46.15 20.35 46.45 19.15 46.45 19.35 45.6" fill="#7085a3" fill-rule="evenodd" stroke="none"/>
      <path d="M38.65 -0.5 L43.15 -0.5 43.65 0.45 38.65 -0.5 M47.2 53.95 L46.15 53.95 46.3 52.2 47.0 52.25 47.2 53.15 47.2 53.95 M35.15 53.95 L32.0 53.95 27.0 50.05 26.55 47.95 31.7 51.45 32.9 51.5 35.15 53.95 M50.8 26.0 L41.65 24.55 41.55 24.5 40.3 26.05 38.35 26.9 39.9 24.4 36.45 21.1 34.7 19.5 33.6 18.45 32.55 14.85 39.85 21.3 Q37.35 23.45 41.8 24.15 42.4 24.3 42.2 23.6 L41.9 22.65 49.4 23.9 51.0 25.55 50.8 26.0" fill="#d1e5f7" fill-rule="evenodd" stroke="none"/>
      <path d="M30.7 53.95 L28.85 53.95 27.7 53.15 27.25 51.2 30.7 53.95 M37.85 30.1 L39.8 27.65 41.1 25.9 41.85 25.0 47.05 25.85 47.35 25.9 49.35 26.4 47.85 28.05 46.2 29.75 46.85 28.5 47.2 27.55 Q47.2 26.7 45.65 26.7 40.9 26.7 37.85 30.1 M43.5 36.65 L42.85 39.35 42.45 41.0 42.25 42.0 42.2 42.0 Q42.1 41.4 40.95 40.6 39.85 39.85 39.0 39.8 L38.9 39.8 Q35.7 39.8 33.55 41.7 L31.1 44.25 34.65 36.7 35.0 36.2 35.0 36.05 35.15 35.65 43.5 36.65" fill="#565269" fill-rule="evenodd" stroke="none"/>
      <path d="M26.45 14.1 L26.5 14.3 26.35 15.65 Q26.35 17.85 27.25 18.65 L27.4 18.7 26.25 18.65 25.55 18.3 Q24.7 17.8 24.2 17.1 L23.8 15.65 23.8 15.2 23.85 14.5 Q24.0 13.8 24.3 13.05 L24.65 12.5 24.75 12.6 24.4 13.8 24.2 15.3 Q24.2 16.05 24.9 16.95 L26.55 18.05 26.6 18.05 Q26.1 17.45 26.1 15.95 26.1 15.15 26.45 14.1" fill="#ff9985" fill-rule="evenodd" stroke="none"/>
      <path d="M43.55 17.7 L43.55 16.5 43.8 16.65 43.95 16.8 44.15 16.9 44.2 16.95 44.25 16.95 44.4 17.05 44.85 17.3 45.6 18.05 46.3 18.8 46.95 19.6 47.15 20.05 47.65 21.0 47.75 21.15 48.7 23.0 48.35 22.65 47.65 21.85 47.6 21.75 47.15 21.3 47.0 21.15 44.2 18.1 43.85 17.95 43.8 17.85 43.55 17.7 M33.8 21.65 L33.25 21.05 32.15 20.4 31.85 20.15 31.15 19.6 31.0 19.2 30.95 19.2 30.95 19.15 27.25 15.75 26.85 15.4 26.7 14.9 26.85 15.4 27.25 15.75 28.55 18.15 28.55 18.65 27.4 18.7 27.25 18.65 Q26.35 17.85 26.35 15.65 L26.5 14.3 26.7 14.9 26.55 14.0 26.45 13.85 24.75 12.6 24.65 12.5 24.25 12.25 23.4 11.5 23.25 11.35 24.0 10.7 Q25.7 11.6 26.45 12.05 L26.7 12.25 26.95 12.4 27.0 12.45 27.1 12.5 28.0 13.15 30.15 15.25 31.1 16.5 31.45 17.15 32.15 18.55 32.3 18.8 33.15 20.45 33.8 21.65" fill="#ffbfe5" fill-rule="evenodd" stroke="none"/>
      <path d="M24.65 12.5 L24.3 13.05 Q24.0 13.8 23.85 14.5 L24.25 12.25 24.65 12.5 M23.8 15.65 L24.2 17.1 Q24.7 17.8 25.55 18.3 L26.25 18.65 24.8 18.15 Q23.95 17.45 23.8 15.65" fill="#ff3800" fill-rule="evenodd" stroke="none"/>
      <path d="M43.85 17.95 L44.2 18.1 47.0 21.15 46.85 21.2 43.85 18.05 43.85 17.95 M47.15 21.3 L47.6 21.75 47.65 21.85 48.35 22.65 48.25 22.65 47.0 21.35 47.15 21.3 M33.25 21.05 L31.85 21.05 28.1 20.75 Q25.25 19.95 22.9 18.3 21.9 14.95 23.4 11.5 L24.25 12.25 23.85 14.5 23.75 15.25 23.8 15.65 Q23.95 17.45 24.8 18.15 L26.25 18.65 Q27.75 19.3 29.8 19.3 L30.95 19.2 31.0 19.2 31.15 19.6 31.85 20.15 32.15 20.4 33.25 21.05 M26.5 14.3 L26.55 14.0 26.7 14.9 26.5 14.3 M27.25 15.75 L30.95 19.15 28.8 19.1 Q27.85 19.1 27.4 18.7 L28.55 18.65 28.55 18.15 27.25 15.75 M31.15 19.6 L30.95 19.2 31.15 19.6" fill="#ff0000" fill-rule="evenodd" stroke="none"/>
      <path d="M43.55 17.75 L43.55 17.7 43.8 17.85 43.8 18.0 43.55 17.75 M26.45 14.1 Q26.1 15.15 26.1 15.95 26.1 17.45 26.6 18.05 L26.55 18.05 24.9 16.95 Q24.2 16.05 24.2 15.3 L24.4 13.8 24.75 12.6 26.45 13.85 26.45 14.1" fill="#ffe7c4" fill-rule="evenodd" stroke="none"/>
      <path d="M43.8 18.0 L43.8 17.85 43.85 17.95 43.85 18.05 43.8 18.0 M47.0 21.15 L47.15 21.3 47.0 21.35 46.85 21.2 47.0 21.15 M26.5 14.3 L26.45 14.1 26.45 13.85 26.55 14.0 26.5 14.3 M23.85 14.5 L23.8 15.2 23.8 15.65 23.75 15.25 23.85 14.5 M26.25 18.65 L27.4 18.7 Q27.85 19.1 28.8 19.1 L30.95 19.15 30.95 19.2 29.8 19.3 Q27.75 19.3 26.25 18.65" fill="#ff4d4d" fill-rule="evenodd" stroke="none"/>
      <path d="M34.35 -0.5 L35.7 -0.5 36.1 11.8 36.15 15.0 35.95 14.95 35.35 14.8 35.1 14.4 34.35 -0.5 M37.25 16.25 L43.55 17.8 43.55 17.75 43.8 18.0 43.85 18.05 46.85 21.2 47.0 21.35 48.25 22.65 49.4 23.9 41.9 22.65 Q41.35 21.6 40.05 21.2 L39.85 21.3 32.55 14.85 31.0 11.45 30.7 11.3 29.05 10.1 31.3 10.65 34.9 14.7 35.9 15.85 35.95 15.9 37.25 16.25 M38.35 26.9 L40.3 26.05 37.25 30.1 37.85 30.1 46.4 31.2 45.65 32.1 44.3 32.45 42.2 32.15 36.15 31.35 29.85 26.75 24.75 28.4 20.35 25.25 18.45 23.8 17.95 21.85 17.15 20.3 25.0 26.45 30.05 25.5 36.3 29.8 36.45 29.8 38.35 26.9 M44.5 36.7 L43.5 36.65 35.15 35.65 35.05 35.6 35.0 36.05 35.0 36.2 34.65 36.7 29.4 45.45 28.95 45.45 28.7 45.25 33.95 35.85 34.0 35.6 Q34.5 35.55 35.05 35.05 L44.65 36.15 44.5 36.7 M19.45 34.55 Q18.05 32.95 16.0 31.65 L16.05 31.6 21.8 34.9 23.05 32.7 23.45 32.9 29.25 28.6 28.9 30.6 32.5 33.25 32.7 33.9 28.55 31.0 28.45 30.95 21.95 36.15 19.55 34.65 19.45 34.55" fill="#9cb5cb" fill-rule="evenodd" stroke="none"/>
      <path d="M44.3 32.45 L43.9 33.85 43.95 33.9 35.2 32.95 29.5 28.6 Q31.1 29.0 34.1 30.7 37.85 32.9 39.3 32.9 L40.5 32.9 41.9 32.4 42.2 32.15 44.3 32.45 M29.25 28.6 L23.45 32.9 23.05 32.7 22.3 32.2 22.65 31.5 23.55 31.6 Q24.6 30.8 25.7 30.1 L27.45 29.05 Q28.35 28.55 28.9 28.55 L29.25 28.6" fill="#990000" fill-rule="evenodd" stroke="none"/>
      <path d="M3.9 20.8 L4.2 21.0 3.75 20.95 Q2.5 20.8 1.4 20.95 L0.9 21.0 -0.75 19.0 -1.15 18.65 -0.5 18.7 1.3 18.85 3.9 20.8 M42.2 32.15 L41.9 32.4 40.5 32.9 39.3 32.9 Q37.85 32.9 34.1 30.7 31.1 29.0 29.5 28.6 L29.35 28.5 29.25 28.55 29.25 28.6 28.9 28.55 Q28.35 28.55 27.45 29.05 L25.7 30.1 Q24.6 30.8 23.55 31.6 L22.65 31.5 Q23.45 30.2 23.45 29.5 23.45 28.1 22.55 27.55 L20.35 25.85 20.35 25.25 24.75 28.4 29.85 26.75 36.15 31.35 42.2 32.15" fill="#d53a06" fill-rule="evenodd" stroke="none"/>
      <path d="M29.5 28.6 L35.2 32.95 43.95 33.9 44.25 34.35 44.9 35.35 44.65 36.15 35.05 35.05 35.2 34.9 Q35.85 34.25 35.05 33.4 34.45 32.8 33.8 32.6 L32.7 33.15 32.5 33.25 28.9 30.6 29.25 28.6 29.25 28.55 29.35 28.5 29.5 28.6 M23.05 32.7 L21.8 34.9 16.05 31.6 Q17.0 30.55 17.6 29.3 L22.3 32.2 23.05 32.7" fill="#b1daff" fill-rule="evenodd" stroke="none"/>
      <path d="M-1.5 32.5 L-1.5 28.55 -0.35 29.25 -0.1 29.45 0.2 31.45 0.6 34.2 0.6 34.4 -0.3 33.6 -1.05 32.9 -1.5 32.5 M33.6 18.45 L34.7 19.5 33.9 20.0 33.6 18.45 M17.7 11.95 L18.8 13.7 14.9 18.05 13.25 19.85 12.8 20.35 9.1 24.45 8.25 23.85 10.35 21.2 11.65 19.6 12.95 18.15 13.6 17.45 13.6 17.4 14.0 16.95 14.4 16.5 16.65 13.65 16.6 13.45 16.35 12.85 16.0 11.75 16.85 10.6 17.7 11.95 M31.85 21.05 Q29.6 21.85 27.7 21.85 23.1 21.85 21.1 20.0 19.4 18.45 19.1 15.35 21.3 13.0 23.25 11.35 L23.4 11.5 Q21.9 14.95 22.9 18.3 25.25 19.95 28.1 20.75 L31.85 21.05" fill="#9c719f" fill-rule="evenodd" stroke="none"/>
      <path d="M-1.5 21.5 L-1.5 18.65 -1.15 18.65 -0.75 19.0 0.9 21.0 -1.0 21.35 -1.5 21.5 M18.45 23.8 L20.35 25.25 20.35 25.85 22.55 27.55 Q23.45 28.1 23.45 29.5 23.45 30.2 22.65 31.5 L22.3 32.2 17.6 29.3 18.05 28.15 18.5 25.65 18.45 23.95 18.45 23.8" fill="#f15454" fill-rule="evenodd" stroke="none"/>
      <path d="M25.15 4.95 L27.9 5.1 28.05 5.1 28.35 5.4 29.95 6.85 28.65 6.8 28.0 6.7 Q26.5 6.6 24.5 7.3 23.15 7.7 21.6 8.5 L21.3 8.65 21.25 8.7 20.25 9.2 20.25 9.25 20.2 9.15 20.1 8.95 19.55 7.2 19.95 6.95 20.05 6.85 20.55 6.6 Q22.4 5.55 24.3 5.1 L24.8 5.0 25.15 4.95" fill="#bfbabb" fill-rule="evenodd" stroke="none"/>
      <path d="M16.85 10.6 L16.85 10.55 16.75 10.5 16.4 10.25 Q17.95 8.35 19.55 7.2 L20.1 8.95 20.2 9.15 20.25 9.25 19.5 10.05 18.25 11.35 17.7 11.95 16.85 10.6" fill="#8e848b" fill-rule="evenodd" stroke="none"/>
      <path d="M4.2 21.0 L5.3 21.8 8.25 23.85 9.1 24.45 12.8 20.35 13.25 19.85 14.9 18.05 18.8 13.7 17.7 11.95 16.85 10.6 16.85 10.55 16.75 10.5 16.4 10.25 16.35 10.2 13.2 7.8 12.5 7.2 5.85 1.7 3.4 -0.5 M51.8 4.05 L53.2 0.85 53.75 -0.5 M43.6 11.35 L43.55 14.05 43.55 16.5 43.55 17.7 43.55 17.75 43.8 18.0 43.85 18.05 46.85 21.2 47.0 21.35 48.25 22.65 49.4 23.9 51.0 25.55 50.8 26.0 50.5 26.65 48.15 29.3 49.05 33.25 47.8 37.55 51.45 42.05 Q53.05 44.35 54.15 46.75 L54.0 48.05 54.95 48.95 M43.6 7.3 L43.6 11.35 M43.65 3.25 L43.6 6.55 43.6 7.3 M43.65 3.25 L43.65 0.45 43.15 -0.5 M47.0 15.25 L49.8 8.9 50.4 7.4 51.8 4.05 M43.55 17.8 L43.55 17.75 M47.0 15.25 L46.55 16.1 M51.45 42.05 L54.55 33.9 53.9 27.0 54.95 26.6 M43.95 33.9 L43.9 33.85 44.3 32.45 45.65 32.1 46.4 31.2 48.15 29.3 M43.95 33.9 L44.25 34.35 44.45 34.35 47.8 37.55 M29.4 45.45 L40.3 45.7 42.35 45.75 42.65 44.65 42.95 43.35 43.35 41.65 43.75 39.85 44.5 36.7 44.65 36.15 44.9 35.35 44.25 34.35 M28.7 45.25 L28.95 45.45 29.4 45.45 M42.65 44.65 L45.4 48.7 47.65 52.0 47.55 51.85 46.8 49.25 46.85 48.0 46.65 47.6 46.0 47.2 45.9 47.15 Q44.75 45.0 42.95 43.35 M46.85 48.0 L46.85 47.75 46.65 47.6 M29.45 9.95 L30.0 9.15 31.55 6.85 29.35 5.15 29.3 5.1 32.65 -0.5 M12.5 26.75 L10.4 25.35 9.1 24.45 M7.95 25.7 L7.85 25.75 M10.95 29.3 L11.05 29.35 Q12.7 29.9 14.1 30.65 L14.4 30.8 14.2 28.15 14.1 27.8 12.5 26.75 M6.1 26.2 L2.15 27.2 M19.45 34.55 Q18.05 32.95 16.0 31.65 L14.75 30.95 14.4 30.8 M19.45 34.55 L19.55 34.65 20.55 36.05 20.55 36.1 20.75 37.25 21.9 37.75 22.5 37.95 24.3 42.05 28.7 45.25 M10.0 39.2 L9.2 38.55 8.8 37.0 7.35 37.55 3.85 36.65 Q2.45 31.65 5.3 29.8 7.65 28.35 10.95 29.3 M-0.5 40.1 Q2.2 41.65 5.0 43.05 L5.8 46.8 1.85 53.95 M-1.5 38.5 Q1.15 40.05 3.9 41.45 7.3 41.05 10.0 39.2 L12.3 41.1 13.75 41.1 13.65 42.6 16.5 48.55 17.55 48.9 17.1 50.4 18.2 53.95 M26.35 47.2 L26.3 47.15 24.95 46.4 25.55 45.15 25.15 44.05 24.3 42.05 M27.25 51.2 L27.15 50.8 27.0 50.05 26.55 47.95 26.35 47.2 M32.9 51.5 L31.7 51.45 26.55 47.95 M27.25 51.2 L27.7 53.15 27.9 53.95 M47.65 52.0 L47.95 52.5 48.0 52.5 47.65 52.0 M48.0 52.5 L48.0 52.55 48.3 53.0 47.85 53.95 48.0 52.55 47.95 52.5 M45.05 52.15 L44.0 52.1 32.9 51.5 M45.05 52.15 L44.35 51.2 40.3 45.7 M-1.5 16.75 L1.3 18.85" fill="none" stroke="#383a48" stroke-linecap="round" stroke-linejoin="round" stroke-width="1.0"/>
      <path d="M45.4 48.7 L46.0 47.2 M44.35 51.2 L44.0 52.1" fill="none" stroke="#21222c" stroke-linecap="round" stroke-linejoin="round" stroke-width="1.0"/>
      <path d="M43.55 14.05 L45.2 15.1 46.55 16.1 46.65 16.15 46.8 16.25 47.75 18.2 48.9 22.8 48.95 23.35 M32.55 14.85 L33.6 18.45 33.9 20.0 34.15 22.1 M29.05 10.1 L30.7 11.3 31.0 11.45 32.55 14.85 M28.35 9.6 L29.05 10.1" fill="none" stroke="#4c5866" stroke-linecap="round" stroke-linejoin="round" stroke-width="1.0"/>
      <path d="M48.7 23.0 L48.95 23.35 M43.8 17.85 L43.55 17.7 M43.8 17.85 L43.85 17.95 44.2 18.1 47.0 21.15 47.15 21.3 47.6 21.75 M47.65 21.85 L48.35 22.65 48.7 23.0 M34.15 22.1 L33.8 21.65 33.25 21.05 32.15 20.4 M24.25 12.25 L23.4 11.5 23.25 11.35 M24.75 12.6 L24.65 12.5 24.25 12.25 M26.55 14.0 L26.45 13.85 24.75 12.6 M26.7 14.9 L26.85 15.4 27.25 15.75 30.95 19.15 30.95 19.2 31.15 19.6 31.85 20.15 M26.55 14.0 L26.7 14.9" fill="none" stroke="#bb4646" stroke-linecap="round" stroke-linejoin="round" stroke-width="0.5"/>
      <path d="M48.25 22.65 L48.35 22.65 M33.25 21.05 L31.85 21.05 28.1 20.75 Q25.25 19.95 22.9 18.3 21.9 14.95 23.4 11.5" fill="none" stroke="#bd251d" stroke-linecap="round" stroke-linejoin="round" stroke-width="0.5"/>
      <path d="M44.3 32.45 L42.2 32.15 36.15 31.35 29.85 26.75 24.75 28.4 20.35 25.25 18.45 23.8 M29.5 28.6 L35.2 32.95 43.95 33.9 M29.25 28.6 L23.45 32.9 23.05 32.7 22.3 32.2 17.6 29.3 M29.5 28.6 L29.35 28.5 29.25 28.55 29.25 28.6" fill="none" stroke="#b60000" stroke-linecap="round" stroke-linejoin="round" stroke-width="0.5"/>
      <path d="M14.9 18.05 L15.95 18.85 16.35 19.25 17.15 20.3 17.95 21.85 18.45 23.8 18.45 23.95 18.5 25.65 18.05 28.15 17.6 29.3 Q17.0 30.55 16.05 31.6 L16.0 31.65 M14.8 23.75 L14.05 21.8 13.3 20.85 12.8 20.35 M14.8 23.75 L14.9 25.35 14.5 27.4 14.4 27.65 14.2 28.15" fill="none" stroke="#383a48" stroke-linecap="round" stroke-linejoin="round" stroke-width="0.5"/>
      <path d="M3.9 20.8 L4.2 21.0 3.75 20.95 Q2.5 20.8 1.4 20.95 L0.9 21.0 -1.0 21.35 -1.5 21.5 M3.9 20.8 L1.3 18.85 -0.5 18.7 -1.15 18.65 -1.5 18.65" fill="none" stroke="#bb005c" stroke-linecap="round" stroke-linejoin="round" stroke-width="1.0"/>
    </g>
    <g id="shape2" transform="matrix(1.0, 0.0, 0.0, 1.0, 0.0, 0.0)">
      <path d="M50.5 0.0 Q53.95 0.0 53.95 3.3 L53.95 50.15 Q53.95 53.4 50.5 53.4 L3.3 53.4 Q0.0 53.4 0.0 50.15 L0.0 3.3 Q0.0 0.0 3.3 0.0 L50.5 0.0" fill="#000000" fill-opacity="0.003921569" fill-rule="evenodd" stroke="none"/>
    </g>
  </defs>
</svg>
