<?xml version="1.0" encoding="UTF-8" standalone="no"?>
<svg xmlns:ffdec="https://www.free-decompiler.com/flash" xmlns:xlink="http://www.w3.org/1999/xlink" ffdec:objectType="frame" height="65.2px" width="59.9px" xmlns="http://www.w3.org/2000/svg">
  <g transform="matrix(1.0, 0.0, 0.0, 1.0, 4.05, 10.25)">
    <clipPath id="clipPath0" transform="matrix(1.0, 0.0, 0.0, 1.0, 0.0, 0.0)">
      <path d="M50.5 0.0 Q53.95 0.0 53.95 3.3 L53.95 50.15 Q53.95 53.4 50.5 53.4 L3.3 53.4 Q0.0 53.4 0.0 50.15 L0.0 3.3 Q0.0 0.0 3.3 0.0 L50.5 0.0" fill="#000000" fill-rule="evenodd" stroke="none"/>
    </clipPath>
    <g clip-path="url(#clipPath0)">
      <use ffdec:characterId="2" height="64.7" transform="matrix(1.0, 0.0, 0.0, 1.0, -1.45, -10.25)" width="57.3" xlink:href="#shape1"/>
      <filter id="filter0">
        <feConvolveMatrix divisor="25.0" in="SourceGraphic" kernelMatrix="1 1 1 1 1 1 1 1 1 1 1 1 1 1 1 1 1 1 1 1 1 1 1 1 1" order="5 5" result="filterResult0"/>
      </filter>
      <use ffdec:characterId="4" filter="url(#filter0)" height="14.95" style="mix-blend-mode: hard-light" transform="matrix(0.8088, 0.4754, -0.213, 0.3623, 19.4521, 19.7811)" width="13.75" xlink:href="#sprite0"/>
      <filter id="filter1">
        <feConvolveMatrix divisor="25.0" in="SourceGraphic" kernelMatrix="1 1 1 1 1 1 1 1 1 1 1 1 1 1 1 1 1 1 1 1 1 1 1 1 1" order="5 5" result="filterResult1"/>
      </filter>
      <use ffdec:characterId="4" filter="url(#filter1)" height="14.95" style="mix-blend-mode: hard-light" transform="matrix(-0.6078, 0.2308, 0.1255, 0.3305, 38.8911, 24.0694)" width="13.75" xlink:href="#sprite0"/>
      <use ffdec:characterId="5" height="59.4" transform="matrix(1.0, 0.0, 0.0, 1.0, -4.05, -4.45)" width="59.45" xlink:href="#shape3"/>
    </g>
    <use ffdec:characterId="6" height="53.4" transform="matrix(1.0, 0.0, 0.0, 1.0, 0.0, 0.0)" width="53.95" xlink:href="#shape4"/>
  </g>
  <defs>
    <g id="shape1" transform="matrix(1.0, 0.0, 0.0, 1.0, 1.45, 10.25)">
      <path d="M53.35 19.4 L54.9 18.6 54.9 20.45 53.35 19.4" fill="#8295af" fill-rule="evenodd" stroke="none"/>
      <path d="M47.95 21.95 L53.35 19.4 54.9 20.45 54.9 22.75 54.4 22.75 51.3 24.3 Q49.1 23.15 47.95 21.95 M54.9 26.45 L54.9 26.9 54.55 26.85 54.9 26.45" fill="#6e819c" fill-rule="evenodd" stroke="none"/>
      <path d="M54.9 22.75 L54.9 26.45 54.55 26.85 52.9 29.1 Q51.3 33.75 49.0 44.2 L36.9 43.55 Q33.9 34.4 36.3 22.8 L39.85 24.75 44.6 27.35 50.7 24.6 51.3 24.3 54.4 22.75 54.9 22.75" fill="#3b4b62" fill-rule="evenodd" stroke="none"/>
      <path d="M36.3 22.8 Q36.7 20.95 37.25 19.05 L44.55 23.6 47.95 21.95 Q49.1 23.15 51.3 24.3 L50.7 24.6 44.6 27.35 39.85 24.75 36.3 22.8 M54.9 26.9 L54.9 38.05 Q53.65 41.25 52.7 44.4 L49.0 44.2 Q51.3 33.75 52.9 29.1 L54.55 26.85 54.9 26.9" fill="#53657e" fill-rule="evenodd" stroke="none"/>
      <path d="M36.3 22.8 Q36.7 20.95 37.25 19.05 L44.55 23.6 47.95 21.95 53.35 19.4 54.9 18.6 M54.9 38.05 Q53.65 41.25 52.7 44.4 L49.0 44.2 36.9 43.55 Q33.9 34.4 36.3 22.8" fill="none" stroke="#383a48" stroke-linecap="round" stroke-linejoin="round" stroke-width="1.0"/>
      <path d="M-0.95 37.25 L-0.95 31.65 -0.3 31.9 -0.7 33.95 -0.7 37.05 -0.95 37.25" fill="#2b3441" fill-rule="evenodd" stroke="none"/>
      <path d="M-0.3 31.9 L17.6 39.3 24.25 53.95 -0.95 53.95 -0.95 37.25 -0.7 37.05 -0.7 33.95 -0.3 31.9" fill="#583a45" fill-rule="evenodd" stroke="none"/>
      <path d="M-0.3 31.9 L17.6 39.3 24.25 53.95 M-0.95 31.65 L-0.3 31.9" fill="none" stroke="#1d1e27" stroke-linecap="round" stroke-linejoin="round" stroke-width="1.0"/>
      <path d="M18.05 53.5 L4.45 53.5 Q5.85 52.95 7.05 51.45 L7.65 50.55 Q8.45 49.4 10.05 45.95 L10.15 44.5 Q10.15 43.2 9.55 42.25 L8.7 41.4 Q7.55 40.6 5.65 40.6 L4.8 40.7 3.3 41.15 3.1 41.25 2.65 41.5 2.3 41.75 1.55 42.35 -0.2 44.0 -0.45 44.3 -0.45 43.1 -0.45 39.05 -0.2 38.05 0.2 38.8 2.35 38.3 5.25 38.0 5.45 38.0 Q9.8 38.05 13.55 40.65 15.45 42.0 16.55 43.5 L16.3 44.9 14.55 42.9 Q11.2 39.85 6.9 39.85 L4.95 40.0 Q1.9 40.55 -0.3 42.9 L-0.45 43.1 -0.3 42.9 Q1.9 40.55 4.95 40.0 L6.9 39.85 Q11.2 39.85 14.55 42.9 L16.3 44.9 Q17.95 47.25 18.2 50.3 18.35 52.0 18.05 53.5 M0.6 53.5 L-0.45 53.5 -0.45 52.85 0.6 53.5" fill="#a5bad9" fill-rule="evenodd" stroke="none"/>
      <path d="M-0.45 37.15 L0.0 36.9 Q2.65 35.6 5.95 35.6 12.05 35.6 16.7 39.9 L17.1 40.3 Q21.35 44.45 21.85 50.25 22.0 51.95 21.8 53.5 L18.05 53.5 Q18.35 52.0 18.2 50.3 17.95 47.25 16.3 44.9 L16.55 43.5 Q15.45 42.0 13.55 40.65 9.8 38.05 5.45 38.0 L5.25 38.0 2.35 38.3 0.2 38.8 -0.2 38.05 -0.45 37.65 -0.45 37.15" fill="#6e819c" fill-rule="evenodd" stroke="none"/>
      <path d="M4.45 53.5 L0.6 53.5 -0.45 52.85 -0.45 44.3 -0.2 44.0 1.55 42.35 2.3 41.75 2.65 41.5 3.1 41.25 3.3 41.15 4.8 40.7 5.65 40.6 Q7.55 40.6 8.7 41.4 L9.55 42.25 8.6 42.0 Q6.1 42.0 4.8 42.65 L4.85 43.8 Q4.85 46.65 3.65 48.7 L3.35 49.1 Q2.45 50.35 1.65 50.35 L1.05 50.3 Q1.15 51.25 1.7 51.8 2.25 52.3 3.35 52.45 L4.2 52.5 Q5.6 52.5 7.05 51.45 5.85 52.95 4.45 53.5 M-0.45 39.05 L-0.45 37.65 -0.2 38.05 -0.45 39.05" fill="#ffffff" fill-rule="evenodd" stroke="none"/>
      <path d="M7.05 51.45 Q5.6 52.5 4.2 52.5 L3.35 52.45 Q2.25 52.3 1.7 51.8 1.15 51.25 1.05 50.3 L1.65 50.35 Q2.45 50.35 3.35 49.1 L3.65 48.7 Q4.85 46.65 4.85 43.8 L4.8 42.65 Q6.1 42.0 8.6 42.0 L9.55 42.25 Q10.15 43.2 10.15 44.5 L10.05 45.95 Q8.45 49.4 7.65 50.55 L7.05 51.45" fill="#d7e5fa" fill-rule="evenodd" stroke="none"/>
      <path d="M-0.45 37.15 L0.0 36.9 Q2.65 35.6 5.95 35.6 12.05 35.6 16.7 39.9 L17.1 40.3 Q21.35 44.45 21.85 50.25 22.0 51.95 21.8 53.5 M-0.45 43.1 L-0.3 42.9 Q1.9 40.55 4.95 40.0 L6.9 39.85 Q11.2 39.85 14.55 42.9 L16.3 44.9 Q17.95 47.25 18.2 50.3 18.35 52.0 18.05 53.5" fill="none" stroke="#383a48" stroke-linecap="round" stroke-linejoin="round" stroke-width="1.0"/>
      <path d="M6.0 32.0 L3.55 31.2 9.35 7.85 21.65 6.45 21.45 9.5 Q20.75 17.2 19.6 20.55 L19.5 20.9 21.65 21.35 27.9 22.6 31.45 22.65 32.2 22.5 32.1 23.3 Q31.7 26.15 29.6 30.6 27.55 34.75 26.1 36.1 L26.05 36.1 Q26.65 35.0 26.85 33.1 L26.75 31.35 26.2 29.8 Q27.15 29.6 27.6 28.85 L27.5 28.65 27.3 28.45 25.8 28.95 Q25.4 27.75 24.8 27.0 L23.3 25.25 Q22.6 24.5 19.85 22.75 L20.0 23.6 20.15 25.05 20.2 25.65 19.1 25.15 18.65 25.0 15.8 23.6 15.7 23.85 15.1 22.25 Q14.45 23.5 14.15 26.95 13.95 28.95 14.15 30.85 12.3 29.9 11.25 28.75 L11.0 28.45 6.55 31.65 6.0 32.0 M21.9 33.5 Q20.6 32.45 19.35 30.8 L19.95 31.35 22.6 33.5 22.65 33.55 22.1 33.5 21.9 33.5" fill="#aa7a7a" fill-rule="evenodd" stroke="none"/>
      <path d="M6.0 32.0 L6.55 31.65 11.0 28.45 11.25 28.75 Q12.3 29.9 14.15 30.85 13.95 28.95 14.15 26.95 14.45 23.5 15.1 22.25 L15.7 23.85 16.65 26.0 17.85 27.05 Q20.35 29.0 23.25 29.9 L23.5 29.8 23.65 29.8 25.75 29.85 26.2 29.8 26.75 31.35 26.85 33.1 Q26.65 35.0 26.05 36.1 L26.1 36.1 Q27.55 34.75 29.6 30.6 31.7 26.15 32.1 23.3 L32.2 22.5 31.45 22.65 27.9 22.6 21.65 21.35 19.5 20.9 19.6 20.55 Q20.75 17.2 21.45 9.5 L21.65 6.45 29.4 5.55 30.0 5.65 Q33.15 6.2 39.3 10.55 41.8 15.25 41.45 17.9 L41.6 18.05 40.3 24.7 40.2 24.85 38.35 25.0 38.4 25.25 Q38.25 26.6 37.25 27.7 L36.0 28.85 Q35.7 29.1 35.4 30.4 L36.5 29.65 36.6 30.45 Q36.1 30.85 35.25 31.1 34.75 33.5 34.35 38.35 L27.3 38.55 6.0 32.0 M20.15 25.05 L20.0 23.6 19.85 22.75 Q22.6 24.5 23.3 25.25 L24.8 27.0 Q25.4 27.75 25.8 28.95 L25.05 29.15 22.8 27.6 Q21.15 26.3 20.15 25.05 M21.4 30.4 L22.7 30.05 19.4 29.2 21.4 30.4 M21.9 33.5 L22.1 33.5 22.65 33.55 22.6 33.5 19.95 31.35 19.35 30.8 Q20.6 32.45 21.9 33.5" fill="#d2aca6" fill-rule="evenodd" stroke="none"/>
      <path d="M40.2 24.85 L40.15 24.95 Q38.9 27.05 36.85 29.25 L37.8 32.25 34.85 38.3 34.35 38.35 Q34.75 33.5 35.25 31.1 36.1 30.85 36.6 30.45 L36.5 29.65 35.4 30.4 Q35.7 29.1 36.0 28.85 L37.25 27.7 Q38.25 26.6 38.4 25.25 L38.35 25.0 40.2 24.85" fill="#877070" fill-rule="evenodd" stroke="none"/>
      <path d="M15.7 23.85 L15.8 23.6 18.65 25.0 18.55 26.15 18.95 26.6 21.2 28.8 Q22.3 29.65 23.5 29.8 L23.25 29.9 Q20.35 29.0 17.85 27.05 L16.65 26.0 15.7 23.85 M19.1 25.15 L20.2 25.65 20.15 25.05 Q21.15 26.3 22.8 27.6 L25.05 29.15 Q22.9 29.0 21.0 27.75 19.55 26.8 19.1 25.15" fill="#ffdcd7" fill-rule="evenodd" stroke="none"/>
      <path d="M18.65 25.0 L19.1 25.15 Q19.55 26.8 21.0 27.75 22.9 29.0 25.05 29.15 L25.8 28.95 27.3 28.45 27.5 28.65 27.6 28.85 Q27.15 29.6 26.2 29.8 L25.75 29.85 23.65 29.8 23.5 29.8 Q22.3 29.65 21.2 28.8 L18.95 26.6 18.55 26.15 18.65 25.0" fill="#fff0ee" fill-rule="evenodd" stroke="none"/>
      <path d="M21.4 30.4 L19.4 29.2 22.7 30.05 21.4 30.4" fill="#b4aead" fill-rule="evenodd" stroke="none"/>
      <path d="M21.65 6.45 L9.35 7.85 3.55 31.2 6.0 32.0 27.3 38.55 34.35 38.35 34.85 38.3 34.65 38.7 M21.65 6.45 L29.4 5.55 30.0 5.65 Q33.15 6.2 39.3 10.55 41.8 15.25 41.45 17.9 L41.6 18.05 40.3 24.7 40.2 24.85 40.15 24.95 Q38.9 27.05 36.85 29.25 L37.8 32.25 34.85 38.3 M3.55 31.2 L3.45 31.6 M9.55 7.2 L9.35 7.85 8.9 7.9" fill="none" stroke="#383a48" stroke-linecap="round" stroke-linejoin="round" stroke-width="1.0"/>
      <path d="M29.5 1.1 Q40.9 -0.9 51.9 -8.85 L50.75 7.3 38.4 21.6 29.6 13.05 29.5 1.1" fill="#2b3441" fill-rule="evenodd" stroke="none"/>
      <path d="M51.9 -8.85 L51.95 -9.75 M29.5 -1.55 L29.5 1.1 Q40.9 -0.9 51.9 -8.85 L50.75 7.3 51.55 6.4 M28.4 1.25 L29.5 1.1 29.6 13.05 38.4 21.6 50.75 7.3 M29.6 13.05 L29.6 15.6 M38.4 21.6 L39.3 22.45 M29.6 13.05 L28.85 12.3" fill="none" stroke="#383a48" stroke-linecap="round" stroke-linejoin="round" stroke-width="1.0"/>
      <path d="M31.55 9.3 Q35.8 7.85 37.1 7.85 L37.7 7.95 39.25 10.25 40.5 12.7 Q41.3 13.6 41.5 15.25 L41.6 18.0 Q41.6 20.45 41.3 20.95 L38.9 22.35 Q34.15 24.8 31.1 24.8 29.8 24.8 26.7 18.95 L23.3 12.65 Q24.7 11.7 26.35 11.15 L31.55 9.3" fill="#1d242e" fill-rule="evenodd" stroke="none"/>
      <path d="M31.55 9.3 L26.35 11.15 Q24.7 11.7 23.3 12.65 L26.7 18.95 Q29.8 24.8 31.1 24.8 34.15 24.8 38.9 22.35 L41.3 20.95 Q41.6 20.45 41.6 18.0 L41.5 15.25 Q41.3 13.6 40.5 12.7 L39.25 10.25 37.7 7.95 37.1 7.85 Q35.8 7.85 31.55 9.3 M21.0 6.9 Q28.4 4.75 37.6 6.7 42.55 11.25 42.35 16.6 L42.5 21.7 39.8 24.45 Q35.75 26.65 30.9 27.55 21.75 21.35 15.85 15.0 L21.0 6.9" fill="#3a414d" fill-rule="evenodd" stroke="none"/>
      <path d="M21.0 6.9 Q28.4 4.75 37.6 6.7 42.55 11.25 42.35 16.6 L42.5 21.7 39.8 24.45 40.85 23.85 M15.85 15.0 L21.0 6.9 18.55 8.8 M15.7 15.3 L15.85 15.0 15.35 14.45 M39.8 24.45 Q35.75 26.65 30.9 27.55 21.75 21.35 15.85 15.0" fill="none" stroke="#383a48" stroke-linecap="round" stroke-linejoin="round" stroke-width="1.0"/>
      <path d="M25.45 -0.45 L26.55 -0.45 26.45 0.0 26.3 0.55 25.45 3.75 25.45 3.25 25.45 -0.45 M31.4 -0.45 L33.1 -0.45 Q32.2 3.65 31.35 9.3 L31.25 9.6 30.8 11.5 30.4 9.85 30.2 9.2 31.0 2.3 31.4 -0.45" fill="#d7e5fa" fill-rule="evenodd" stroke="none"/>
      <path d="M23.9 -0.45 L25.45 -0.45 25.45 3.25 24.05 7.05 24.05 7.4 23.3 12.45 22.5 18.35 21.9 17.7 21.7 17.1 22.8 9.85 23.9 -0.45 M29.55 -0.45 L31.4 -0.45 31.0 2.3 30.2 9.2 30.4 9.85 30.8 11.5 Q29.35 17.1 26.5 22.2 L26.05 21.85 Q28.85 13.6 29.6 10.2 L29.5 5.15 Q29.45 1.2 29.55 -0.45" fill="#a5bad9" fill-rule="evenodd" stroke="none"/>
      <path d="M14.15 -0.45 L15.2 -0.45 15.3 0.05 16.4 5.1 15.35 5.15 14.15 -0.45 M19.55 -0.45 L20.7 -0.45 20.8 0.7 20.75 1.1 21.05 6.65 20.65 6.45 20.25 6.15 19.55 -0.45 M23.05 -0.45 L23.9 -0.45 22.8 9.85 22.1 9.25 Q22.7 5.9 22.95 1.65 L23.05 -0.45" fill="#424c5d" fill-rule="evenodd" stroke="none"/>
      <path d="M0.0 2.9 L0.0 -0.45 0.55 -0.45 2.05 2.3 0.55 -0.45 8.8 -0.45 14.15 -0.45 15.35 5.15 16.4 5.1 15.3 0.05 15.2 -0.45 19.55 -0.45 20.25 6.15 20.65 6.45 21.05 6.65 20.75 1.1 20.8 0.7 20.7 -0.45 23.05 -0.45 22.95 1.65 Q22.7 5.9 22.1 9.25 L22.8 9.85 21.7 17.1 21.5 16.75 20.85 16.65 Q20.25 16.45 19.8 16.15 L17.95 14.55 17.95 14.7 17.55 15.4 Q15.4 12.7 12.35 7.9 L7.5 0.0 Q4.85 1.4 2.05 2.3 L0.0 2.9 M17.95 14.7 Q13.15 8.5 8.85 -0.35 L8.8 -0.45 8.85 -0.35 Q13.15 8.5 17.95 14.7 M21.05 6.65 L21.0 8.3 Q21.1 12.65 20.85 16.65 21.1 12.65 21.0 8.3 L21.05 6.65 M16.4 5.1 Q17.95 11.3 19.8 16.15 17.95 11.3 16.4 5.1" fill="#3a414d" fill-rule="evenodd" stroke="none"/>
      <path d="M26.55 -0.45 L29.55 -0.45 Q29.45 1.2 29.5 5.15 L29.6 10.2 Q28.85 13.6 26.05 21.85 24.3 20.45 22.5 18.35 L23.3 12.45 24.05 7.4 24.05 7.05 25.45 3.25 25.45 3.75 26.3 0.55 26.45 0.0 26.55 -0.45" fill="#6e819c" fill-rule="evenodd" stroke="none"/>
      <path d="M0.0 2.9 L2.05 2.3 4.2 5.9 Q10.15 13.4 15.35 17.9 10.15 13.4 4.2 5.9 L2.05 2.3 Q4.85 1.4 7.5 0.0 L12.35 7.9 Q15.4 12.7 17.55 15.4 16.35 17.85 15.15 18.8 L14.3 21.8 14.05 22.8 Q12.85 25.35 11.75 26.25 L4.95 28.5 0.0 25.05 0.0 8.5 0.0 2.9 M14.3 21.8 Q8.0 17.45 1.65 10.35 L0.0 8.5 1.65 10.35 Q8.0 17.45 14.3 21.8" fill="#2b3441" fill-rule="evenodd" stroke="none"/>
      <path d="M33.1 -0.45 Q32.2 3.65 31.35 9.3 L31.25 9.6 30.8 11.5 Q29.35 17.1 26.5 22.2 L26.05 21.85 Q24.3 20.45 22.5 18.35 L21.9 17.7 21.7 17.1 21.5 16.75 20.85 16.65 Q20.25 16.45 19.8 16.15 L17.95 14.55 17.95 14.7 17.55 15.4 Q16.35 17.85 15.15 18.8 L14.3 21.8 14.05 22.8 Q12.85 25.35 11.75 26.25 L4.95 28.5 0.0 25.05 M22.8 9.85 L23.9 -0.45 M22.8 9.85 L21.7 17.1" fill="none" stroke="#383a48" stroke-linecap="round" stroke-linejoin="round" stroke-width="1.0"/>
      <path d="M2.05 2.3 L0.55 -0.45 M8.8 -0.45 L8.85 -0.35 Q13.15 8.5 17.95 14.7 M21.05 6.65 L20.75 1.1 20.8 0.7 20.7 -0.45 M20.85 16.65 Q21.1 12.65 21.0 8.3 L21.05 6.65 M16.4 5.1 L15.3 0.05 15.2 -0.45 M0.0 8.5 L1.65 10.35 Q8.0 17.45 14.3 21.8 M2.05 2.3 L4.2 5.9 Q10.15 13.4 15.35 17.9 M19.8 16.15 Q17.95 11.3 16.4 5.1" fill="none" stroke="#383a48" stroke-linecap="round" stroke-linejoin="round" stroke-width="0.5"/>
      <path d="M-0.45 26.15 Q1.6 27.45 1.6 29.15 1.6 30.2 -0.45 31.15 L-0.45 26.15" fill="#a5bad9" fill-rule="evenodd" stroke="none"/>
      <path d="M-0.45 25.2 Q4.05 27.7 5.95 33.0 L6.0 33.15 1.9 39.25 -0.45 37.45 -0.45 31.15 Q1.6 30.2 1.6 29.15 1.6 27.45 -0.45 26.15 L-0.45 25.2" fill="#6e819c" fill-rule="evenodd" stroke="none"/>
      <path d="M-0.45 37.45 L1.9 39.25 6.0 33.15 5.95 33.0 Q4.05 27.7 -0.45 25.2" fill="none" stroke="#383a48" stroke-linecap="round" stroke-linejoin="round" stroke-width="1.0"/>
      <path d="M46.95 -0.45 L49.5 -0.45 Q47.15 5.85 42.9 12.6 L42.25 13.6 40.05 14.65 38.95 15.2 38.5 15.4 44.55 5.6 44.6 5.35 46.95 -0.45" fill="#d7e5fa" fill-rule="evenodd" stroke="none"/>
      <path d="M38.5 15.4 L38.95 15.2 40.05 14.65 37.8 17.6 39.95 16.45 Q42.35 15.45 42.8 15.65 42.85 14.0 44.85 10.8 47.55 6.65 48.25 5.1 49.5 2.15 51.0 -0.45 L53.2 -0.45 Q50.3 6.75 47.3 12.1 42.35 19.9 37.05 25.15 L34.65 26.55 Q33.4 26.1 33.2 25.55 36.15 18.95 38.5 15.4" fill="#a5bad9" fill-rule="evenodd" stroke="none"/>
      <path d="M40.05 14.65 L42.25 13.6 42.9 12.6 Q47.15 5.85 49.5 -0.45 L51.0 -0.45 Q49.5 2.15 48.25 5.1 47.55 6.65 44.85 10.8 42.85 14.0 42.8 15.65 42.35 15.45 39.95 16.45 L37.8 17.6 40.05 14.65" fill="#6e819c" fill-rule="evenodd" stroke="none"/>
      <path d="M54.6 -0.45 L55.35 -0.45 55.35 5.1 Q53.65 6.55 51.65 8.7 L48.05 12.7 Q50.7 8.7 51.9 5.9 L54.6 -0.45" fill="#2b3441" fill-rule="evenodd" stroke="none"/>
      <path d="M53.2 -0.45 L54.6 -0.45 51.9 5.9 Q50.7 8.7 48.05 12.7 L51.65 8.7 Q53.65 6.55 55.35 5.1 L55.35 6.25 Q51.5 9.9 47.95 15.45 43.65 23.55 37.65 26.4 L37.05 25.15 Q42.35 19.9 47.3 12.1 50.3 6.75 53.2 -0.45" fill="#3a414d" fill-rule="evenodd" stroke="none"/>
      <path d="M46.95 -0.45 L44.6 5.35 44.55 5.6 38.5 15.4 Q36.15 18.95 33.2 25.55 M55.35 6.25 Q51.5 9.9 47.95 15.45 43.65 23.55 37.65 26.4 L37.05 25.15 34.65 26.55 M37.05 25.15 Q42.35 19.9 47.3 12.1 50.3 6.75 53.2 -0.45" fill="none" stroke="#383a48" stroke-linecap="round" stroke-linejoin="round" stroke-width="1.0"/>
      <path d="M17.6 22.85 L18.35 22.15 18.45 22.05 18.1 21.6 18.55 21.95 19.55 22.7 19.95 22.9 20.0 22.95 20.0 23.0 19.4 22.85 18.9 23.25 18.3 23.8 16.95 25.05 9.45 31.5 11.6 28.8 Q13.55 26.5 16.15 24.15 L16.35 23.95 17.6 22.85 M19.4 21.3 L24.45 17.35 24.5 17.3 24.45 18.05 24.85 18.1 21.1 21.35 20.5 21.85 19.4 21.3" fill="#aa4033" fill-rule="evenodd" stroke="none"/>
      <path d="M20.0 23.0 L20.0 22.95 21.0 23.4 20.85 24.7 20.9 25.0 20.9 25.05 21.0 25.5 Q21.1 26.3 21.55 27.15 22.2 27.65 22.95 27.85 24.4 28.25 25.95 27.45 L26.15 27.35 26.8 26.95 27.6 27.7 27.55 27.7 26.75 28.0 26.6 28.0 Q24.7 28.45 22.95 28.05 L21.5 27.6 21.25 27.45 20.45 25.45 20.4 25.3 20.35 25.1 20.15 24.4 20.0 23.0 M37.35 26.7 L37.05 27.3 37.2 27.45 37.15 27.75 36.5 28.9 36.1 29.3 35.25 29.95 34.35 30.3 34.05 30.25 33.2 29.95 32.2 29.1 31.65 29.0 Q32.35 28.6 35.25 27.45 L35.7 27.2 37.35 26.7 M35.8 28.6 L35.9 28.55 36.1 27.9 Q35.85 27.95 35.55 28.1 L35.45 28.15 35.2 28.2 35.05 28.3 35.0 28.2 Q34.85 28.25 34.75 28.4 L34.65 28.45 34.35 28.55 Q34.1 28.55 33.9 28.7 L33.05 29.0 Q33.05 29.4 33.45 29.7 L34.05 30.05 35.15 29.5 35.75 28.8 35.8 28.6" fill="#622525" fill-rule="evenodd" stroke="none"/>
      <path d="M18.1 21.6 L17.7 21.15 17.05 20.1 19.4 21.3 20.5 21.85 20.75 21.95 24.9 24.1 25.3 24.3 25.4 24.35 26.25 25.25 26.65 25.65 27.65 26.75 28.05 27.25 28.45 27.8 29.0 28.45 28.85 28.4 28.1 28.0 27.7 27.75 27.6 27.7 26.8 26.95 26.8 26.9 26.6 26.75 26.4 26.55 26.4 26.6 26.3 26.5 24.1 24.8 23.4 24.35 21.5 23.55 21.0 23.4 20.0 22.95 19.95 22.9 19.55 22.7 18.55 21.95 18.1 21.6 M20.75 21.95 L20.0 22.95 20.75 21.95 M37.35 26.7 L35.7 27.2 35.25 27.45 Q32.35 28.6 31.65 29.0 L31.1 28.9 32.15 28.15 35.05 26.8 35.4 26.7 37.8 26.15 37.35 26.7" fill="#2e1b1b" fill-rule="evenodd" stroke="none"/>
      <path d="M28.1 28.0 L25.4 29.1 22.85 29.25 Q20.55 29.1 18.4 26.85 L16.95 25.05 18.3 23.8 Q18.8 25.85 20.3 27.2 21.9 28.6 24.0 28.8 26.25 29.05 27.6 27.7 L27.7 27.75 28.1 28.0 M16.35 23.95 L15.95 23.0 15.7 22.0 15.65 21.8 Q15.3 19.7 15.55 18.55 L17.6 22.85 16.35 23.95" fill="#cb4848" fill-rule="evenodd" stroke="none"/>
      <path d="M26.8 26.95 L26.15 27.35 25.95 27.45 Q24.4 28.25 22.95 27.85 22.2 27.65 21.55 27.15 21.1 26.3 21.0 25.5 L20.9 25.05 20.9 25.0 20.85 24.7 21.0 23.4 21.5 23.55 22.85 24.5 23.55 24.95 23.85 25.1 23.9 25.15 25.85 26.3 26.4 26.65 26.4 26.6 26.4 26.55 26.6 26.75 26.8 26.9 26.8 26.95 M35.8 28.6 L35.75 28.8 35.15 29.5 34.05 30.05 33.45 29.7 Q33.05 29.4 33.05 29.0 L33.9 28.7 Q34.1 28.55 34.35 28.55 L34.65 28.45 34.75 28.4 Q34.85 28.25 35.0 28.2 L35.05 28.3 35.2 28.2 35.45 28.15 35.55 28.1 Q35.85 27.95 36.1 27.9 L35.9 28.55 35.8 28.6" fill="#ffffff" fill-rule="evenodd" stroke="none"/>
      <path d="M21.5 23.55 L23.4 24.35 24.1 24.8 26.3 26.5 26.4 26.6 26.4 26.65 25.85 26.3 23.9 25.15 23.85 25.1 23.55 24.95 22.85 24.5 21.5 23.55" fill="#4f3939" fill-rule="evenodd" stroke="none"/>
      <path d="M21.1 21.35 L20.75 21.95 20.0 22.95 20.0 23.0 19.25 23.95" fill="none" stroke="#676c95" stroke-linecap="round" stroke-linejoin="round" stroke-width="0.1"/>
    </g>
    <g id="sprite0" transform="matrix(1.0, 0.0, 0.0, 1.0, 0.5, 0.5)">
      <use ffdec:characterId="3" height="14.95" transform="matrix(1.0, 0.0, 0.0, 1.0, -0.5, -0.5)" width="13.75" xlink:href="#shape2"/>
    </g>
    <g id="shape2" transform="matrix(1.0, 0.0, 0.0, 1.0, 0.5, 0.5)">
      <path d="M10.85 11.9 Q9.0 13.95 6.35 13.95 3.75 13.95 1.85 11.9 0.0 9.85 0.0 7.0 0.0 4.1 1.85 2.0 3.75 0.0 6.35 0.0 9.0 0.0 10.85 2.0 12.75 4.1 12.75 7.0 12.75 9.85 10.85 11.9 M8.3 4.6 Q7.35 3.6 5.95 3.6 4.6 3.6 3.6 4.6 2.65 5.7 2.65 7.25 2.65 8.7 3.6 9.8 4.6 10.85 5.95 10.85 7.35 10.85 8.3 9.8 9.3 8.7 9.3 7.25 9.3 5.7 8.3 4.6" fill="#a11616" fill-rule="evenodd" stroke="none"/>
      <path d="M8.3 4.6 Q9.3 5.7 9.3 7.25 9.3 8.7 8.3 9.8 7.35 10.85 5.95 10.85 4.6 10.85 3.6 9.8 2.65 8.7 2.65 7.25 2.65 5.7 3.6 4.6 4.6 3.6 5.95 3.6 7.35 3.6 8.3 4.6" fill="#ee3b3b" fill-rule="evenodd" stroke="none"/>
      <path d="M10.85 11.9 Q9.0 13.95 6.35 13.95 3.75 13.95 1.85 11.9 0.0 9.85 0.0 7.0 0.0 4.1 1.85 2.0 3.75 0.0 6.35 0.0 9.0 0.0 10.85 2.0 12.75 4.1 12.75 7.0 12.75 9.85 10.85 11.9 Z" fill="none" stroke="#660d0d" stroke-linecap="round" stroke-linejoin="round" stroke-width="1.0"/>
    </g>
    <g id="shape3" transform="matrix(1.0, 0.0, 0.0, 1.0, 4.05, 4.45)">
      <path d="M40.2 24.05 L35.65 25.7 35.15 27.45 35.15 27.75 41.65 26.35 42.55 26.2 44.1 24.4 46.25 21.8 47.45 20.35 47.5 19.9 47.6 18.9 43.65 24.2 Q43.15 24.9 41.5 25.25 L40.05 25.45 39.55 25.45 39.95 25.0 40.5 24.1 40.2 24.05 M31.45 25.1 L31.5 25.2 30.25 30.7 29.35 27.8 24.2 24.25 18.9 20.85 11.6 15.35 Q10.35 5.8 10.2 -4.2 L14.95 8.1 21.95 13.3 31.45 25.1 M31.1 25.2 L31.1 25.05 23.65 18.5 24.4 21.2 20.2 19.55 16.25 18.05 23.8 23.2 Q26.85 25.2 28.45 26.35 L29.4 27.05 30.35 29.6 30.4 29.65 31.1 25.2 M43.15 26.15 L42.9 26.35 35.05 28.35 34.75 28.7 35.1 24.8 44.7 19.85 53.6 11.0 48.5 20.45 43.2 26.0 43.15 26.15" fill="#ffffff" fill-rule="evenodd" stroke="none"/>
      <path d="M40.2 24.05 L40.5 24.1 39.95 25.0 39.55 25.45 40.05 25.45 41.5 25.25 Q43.15 24.9 43.65 24.2 L47.6 18.9 47.5 19.9 47.45 20.35 46.25 21.8 44.1 24.4 42.55 26.2 41.65 26.35 35.15 27.75 35.15 27.45 35.65 25.7 40.2 24.05 M31.1 25.2 L30.4 29.65 30.35 29.6 29.4 27.05 28.45 26.35 Q26.85 25.2 23.8 23.2 L16.25 18.05 20.2 19.55 24.4 21.2 23.65 18.5 31.1 25.05 31.1 25.2" fill="#c6d4f3" fill-rule="evenodd" stroke="none"/>
      <path d="M31.45 25.1 L21.95 13.3 14.95 8.1 10.2 -4.2 Q10.35 5.8 11.6 15.35 L18.9 20.85 24.2 24.25 29.35 27.8 30.25 30.7 31.5 25.2 31.45 25.1 M43.15 26.15 L42.9 26.35 35.05 28.35 34.75 28.7 35.1 24.8 44.7 19.85 53.6 11.0 48.5 20.45 43.2 26.0 43.15 26.15 Z" fill="none" stroke="#545b87" stroke-linecap="round" stroke-linejoin="round" stroke-width="0.5"/>
      <path d="M16.3 36.1 L16.55 35.8 16.35 36.1 16.3 36.1 16.35 36.1 Q14.15 38.95 13.9 39.45 L15.2 39.55 Q15.2 39.4 16.1 39.35 L16.3 39.35 18.45 39.3 15.95 40.3 15.9 40.3 11.1 41.85 Q12.05 40.45 14.55 37.85 L16.3 36.1 M34.05 34.85 L33.2 33.05 33.3 33.05 34.4 33.45 35.4 33.6 37.0 33.3 Q38.4 32.8 39.4 31.85 L39.4 31.9 39.05 32.55 38.65 33.05 38.7 33.05 41.4 33.6 42.95 34.1 46.4 35.3 Q44.2 36.4 43.0 36.65 L43.05 36.75 44.8 37.4 44.6 37.5 43.05 37.65 Q41.5 37.65 37.9 36.55 L36.65 36.2 37.9 36.55 Q41.5 37.65 43.05 37.65 L44.6 37.5 44.8 37.4 44.9 37.45 Q46.45 38.15 47.35 38.85 L53.4 44.15 52.75 44.15 51.9 44.0 54.8 47.6 54.9 47.75 54.9 52.65 53.15 52.1 52.55 52.1 52.75 53.45 53.1 54.45 51.85 54.45 51.7 53.0 Q51.35 50.65 48.7 46.75 L48.5 46.55 Q47.25 45.3 44.6 43.55 L44.6 43.6 46.45 49.25 Q46.55 50.55 45.9 54.45 L43.25 54.45 42.95 54.2 43.0 54.3 43.0 54.45 41.95 54.45 41.8 49.1 41.9 49.1 43.45 51.05 45.05 52.75 44.9 50.5 Q44.65 47.95 43.65 45.3 42.55 42.3 40.95 40.55 L39.85 39.5 39.95 39.55 43.5 41.6 45.3 42.4 45.8 42.5 Q44.2 40.4 41.45 38.6 L40.2 37.85 Q38.65 36.95 36.65 36.2 L34.8 35.45 34.05 34.85 34.45 34.45 34.05 34.85 M27.0 54.45 L26.7 54.45 27.05 53.7 27.2 53.7 27.0 54.45 M11.1 54.45 L5.35 54.45 5.95 51.65 Q6.55 49.3 7.25 48.25 7.1 49.2 7.1 50.25 L7.35 51.4 7.55 52.1 8.1 52.1 Q10.8 51.1 14.4 48.0 18.25 44.75 18.85 42.7 L18.85 43.65 Q18.85 45.65 17.85 48.25 L16.8 50.6 14.55 52.35 Q12.75 53.6 11.1 54.45 M44.6 37.5 L44.9 37.45 44.6 37.5 M41.0 48.55 Q41.05 52.3 40.6 54.0 38.55 52.95 35.85 50.9 31.5 47.6 30.3 44.7 L29.1 47.3 27.15 43.8 20.9 47.35 20.9 44.5 21.15 41.25 Q21.5 40.0 22.0 39.1 L21.95 39.35 21.95 42.35 Q22.0 43.3 22.3 44.1 L22.55 44.8 25.95 43.55 26.8 43.15 27.6 42.7 27.9 43.25 29.15 46.1 30.15 44.55 30.35 44.1 30.5 43.75 Q31.8 45.85 34.8 48.3 37.75 50.75 39.45 51.25 L40.8 42.65 41.0 48.55" fill="#c6d4f3" fill-rule="evenodd" stroke="none"/>
      <path d="M54.9 26.5 L54.9 27.0 Q52.7 32.55 48.65 35.25 L47.9 35.75 48.65 35.25 53.4 37.95 47.9 35.75 47.55 35.95 47.0 36.3 48.65 37.05 52.4 40.2 50.85 41.15 54.9 44.75 54.9 45.45 54.2 45.35 54.9 46.1 54.9 47.75 54.8 47.6 51.9 44.0 52.75 44.15 53.4 44.15 47.35 38.85 Q46.45 38.15 44.9 37.45 L44.8 37.4 43.05 36.75 43.0 36.65 Q44.2 36.4 46.4 35.3 L42.95 34.1 41.4 33.6 38.7 33.05 38.65 33.05 39.05 32.55 39.4 31.9 39.4 31.85 Q38.4 32.8 37.0 33.3 L35.4 33.6 34.4 33.45 33.3 33.05 33.2 33.05 34.05 34.85 33.8 35.05 Q32.65 36.0 31.15 36.45 L24.25 37.2 Q20.2 37.2 16.35 36.1 20.2 37.2 24.25 37.2 L31.15 36.45 Q32.65 36.0 33.8 35.05 L34.05 34.85 34.8 35.45 36.65 36.2 Q38.65 36.95 40.2 37.85 L41.45 38.6 Q44.2 40.4 45.8 42.5 L45.3 42.4 43.5 41.6 39.95 39.55 39.85 39.5 40.95 40.55 Q42.55 42.3 43.65 45.3 44.65 47.95 44.9 50.5 L45.05 52.75 43.45 51.05 41.9 49.1 41.8 49.1 41.95 54.45 27.0 54.45 27.2 53.7 27.05 53.7 26.7 54.45 16.1 54.45 15.9 53.45 13.9 54.45 11.1 54.45 Q12.75 53.6 14.55 52.35 L16.8 50.6 17.85 48.25 Q18.85 45.65 18.85 43.65 L18.85 42.7 Q18.25 44.75 14.4 48.0 10.8 51.1 8.1 52.1 L7.55 52.1 7.35 51.4 7.1 50.25 Q7.1 49.2 7.25 48.25 6.55 49.3 5.95 51.65 L5.35 54.45 4.45 54.45 Q5.55 49.7 8.3 44.5 5.75 45.0 -3.55 44.2 L0.35 40.0 -3.55 37.4 6.35 33.3 1.0 30.55 6.25 30.9 6.25 30.85 Q2.25 27.8 -0.7 23.95 L-0.7 20.45 -0.8 14.95 -0.8 14.8 Q2.25 19.6 4.65 22.85 8.55 28.2 10.05 29.65 11.15 30.4 11.35 30.4 L15.2 32.15 18.9 32.6 Q16.0 31.1 14.45 28.9 L20.85 31.25 27.0 32.7 32.4 31.85 34.8 32.55 38.1 31.8 40.9 29.25 40.0 32.4 Q41.1 31.85 42.35 31.4 L44.4 32.7 46.15 31.85 Q49.35 30.2 50.1 28.6 L54.9 26.5 M16.3 36.1 Q11.05 34.55 6.25 30.9 11.05 34.55 16.3 36.1 L14.55 37.85 Q12.05 40.45 11.1 41.85 L15.9 40.3 15.9 40.6 15.95 40.3 18.45 39.3 16.3 39.35 16.1 39.35 Q15.2 39.4 15.2 39.55 L13.9 39.45 Q14.15 38.95 16.35 36.1 L16.55 35.8 16.3 36.1 M47.0 36.3 L44.8 37.4 47.0 36.3 M54.9 52.65 L54.9 54.45 53.1 54.45 52.75 53.45 52.55 52.1 53.15 52.1 54.9 52.65 M51.85 54.45 L45.9 54.45 Q46.55 50.55 46.45 49.25 L44.6 43.6 44.6 43.55 Q47.25 45.3 48.5 46.55 L48.7 46.75 Q51.35 50.65 51.7 53.0 L51.85 54.45 M43.25 54.45 L43.0 54.45 43.0 54.3 42.95 54.2 43.25 54.45 M41.0 48.55 L40.8 42.65 39.45 51.25 Q37.75 50.75 34.8 48.3 31.8 45.85 30.5 43.75 L30.35 44.1 30.15 44.55 29.15 46.1 27.9 43.25 27.6 42.7 26.8 43.15 25.95 43.55 22.55 44.8 22.3 44.1 Q22.0 43.3 21.95 42.35 L21.95 39.35 22.0 39.1 Q21.5 40.0 21.15 41.25 L20.9 44.5 20.9 47.35 27.15 43.8 29.1 47.3 30.3 44.7 Q31.5 47.6 35.85 50.9 38.55 52.95 40.6 54.0 41.05 52.3 41.0 48.55 M15.35 43.1 L15.75 42.85 15.35 42.95 15.35 43.1 M33.8 35.05 L36.65 36.2 33.8 35.05" fill="#ffffff" fill-rule="evenodd" stroke="none"/>
      <path d="M15.95 40.3 L15.9 40.6 15.9 40.3 15.95 40.3 M15.35 43.1 L15.35 42.95 15.75 42.85 15.35 43.1" fill="#d2e7ff" fill-rule="evenodd" stroke="none"/>
      <path d="M54.9 26.5 L50.1 28.6 Q49.35 30.2 46.15 31.85 L44.4 32.7 42.35 31.4 Q41.1 31.85 40.0 32.4 L40.9 29.25 38.1 31.8 34.8 32.55 32.4 31.85 27.0 32.7 20.85 31.25 14.45 28.9 Q16.0 31.1 18.9 32.6 L15.2 32.15 11.35 30.4 Q11.15 30.4 10.05 29.65 8.55 28.2 4.65 22.85 2.25 19.6 -0.8 14.8 L-0.8 14.95 -0.7 20.45 -0.7 23.95 Q2.25 27.8 6.25 30.85 L6.25 30.9 Q11.05 34.55 16.3 36.1 L16.35 36.1 Q20.2 37.2 24.25 37.2 L31.15 36.45 Q32.65 36.0 33.8 35.05 L34.05 34.85 34.45 34.45 M44.8 37.4 L47.0 36.3 47.55 35.95 47.9 35.75 48.65 35.25 Q52.7 32.55 54.9 27.0 M47.0 36.3 L48.65 37.05 52.4 40.2 50.85 41.15 54.9 44.75 M54.9 45.45 L54.2 45.35 54.9 46.1 M16.1 54.45 L15.9 53.45 13.9 54.45 M4.45 54.45 Q5.55 49.7 8.3 44.5 5.75 45.0 -3.55 44.2 L0.35 40.0 -3.55 37.4 6.35 33.3 1.0 30.55 6.25 30.9 M36.65 36.2 L37.9 36.55 Q41.5 37.65 43.05 37.65 L44.6 37.5 44.8 37.4 M44.9 37.45 L44.6 37.5 M48.65 35.25 L53.4 37.95 47.9 35.75 M36.65 36.2 L33.8 35.05" fill="none" stroke="#676c95" stroke-linecap="round" stroke-linejoin="round" stroke-width="1.0"/>
      <path d="M30.3 26.2 L32.5 25.6 34.6 26.0 34.65 27.15 32.3 26.6 31.65 29.2 31.45 30.0 32.2 30.9 32.5 31.15 32.75 32.5 32.75 32.6 32.75 32.8 32.4 33.35 32.0 33.9 32.6 34.0 33.45 34.1 33.7 33.55 35.05 30.75 35.2 32.0 34.1 34.2 36.0 34.7 34.95 35.7 30.3 34.9 27.0 33.15 27.75 31.6 29.4 31.35 30.3 26.2 M29.1 32.95 L31.1 33.8 31.6 33.85 31.55 32.5 31.3 31.5 31.0 31.15 30.8 32.1 29.3 32.55 29.1 32.95" fill="#a5bad9" fill-rule="evenodd" stroke="none"/>
      <path d="M34.85 29.5 L35.05 30.75 33.7 33.55 33.45 34.1 33.4 33.2 33.4 32.1 Q33.45 31.5 34.05 30.8 L34.85 29.5 M35.2 32.0 L35.2 32.8 35.35 32.95 36.05 33.95 36.0 34.7 34.1 34.2 35.2 32.0 M29.1 32.95 L29.3 32.55 30.8 32.1 31.0 31.15 31.3 31.5 31.55 32.5 31.6 33.85 31.1 33.8 29.1 32.95 M31.65 29.2 L32.1 30.3 32.5 31.15 32.2 30.9 31.45 30.0 31.65 29.2 M32.75 32.8 L32.6 34.0 32.0 33.9 32.4 33.35 32.75 32.8" fill="#d7e5fa" fill-rule="evenodd" stroke="none"/>
      <path d="M34.65 27.15 L34.85 29.5 34.05 30.8 Q33.45 31.5 33.4 32.1 L33.4 33.2 33.45 34.1 32.6 34.0 32.75 32.8 32.75 32.6 32.75 32.5 32.5 31.15 32.1 30.3 31.65 29.2 32.3 26.6 34.65 27.15" fill="#ffffff" fill-rule="evenodd" stroke="none"/>
      <path d="M34.6 26.0 L34.65 27.15 34.85 29.5 35.05 30.75 35.2 32.0 35.2 32.8 35.35 32.95 36.05 33.95 36.0 34.7 34.95 35.7 30.3 34.9 27.0 33.15 27.75 31.6 29.4 31.35 30.3 26.2" fill="none" stroke="#383a48" stroke-linecap="round" stroke-linejoin="round" stroke-width="0.7000000000000001"/>
    </g>
    <g id="shape4" transform="matrix(1.0, 0.0, 0.0, 1.0, 0.0, 0.0)">
      <path d="M50.5 0.0 Q53.95 0.0 53.95 3.3 L53.95 50.15 Q53.95 53.4 50.5 53.4 L3.3 53.4 Q0.0 53.4 0.0 50.15 L0.0 3.3 Q0.0 0.0 3.3 0.0 L50.5 0.0" fill="#000000" fill-opacity="0.003921569" fill-rule="evenodd" stroke="none"/>
    </g>
  </defs>
</svg>
