<?xml version="1.0" encoding="UTF-8" standalone="no"?>
<svg xmlns:ffdec="https://www.free-decompiler.com/flash" xmlns:xlink="http://www.w3.org/1999/xlink" ffdec:objectType="frame" height="30.05px" width="30.0px" xmlns="http://www.w3.org/2000/svg">
  <g transform="matrix(1.0, 0.0, 0.0, 1.0, 0.0, 0.0)">
    <use ffdec:characterId="1" height="30.0" transform="matrix(1.0, 0.0, 0.0, 1.0, 0.0, 0.0)" width="30.0" xlink:href="#shape0"/>
    <use ffdec:characterId="3" height="30.0" transform="matrix(1.0, 0.0, 0.0, 1.0, 0.0, 0.05)" width="30.0" xlink:href="#sprite0"/>
  </g>
  <defs>
    <g id="shape0" transform="matrix(1.0, 0.0, 0.0, 1.0, 0.0, 0.0)">
      <path d="M0.0 0.0 L30.0 0.0 30.0 30.0 0.0 30.0 0.0 0.0" fill="#33cc66" fill-opacity="0.0" fill-rule="evenodd" stroke="none"/>
    </g>
    <g id="sprite0" transform="matrix(1.0, 0.0, 0.0, 1.0, 0.0, 0.0)">
      <use ffdec:characterId="2" height="30.0" transform="matrix(1.0, 0.0, 0.0, 1.0, 0.0, 0.0)" width="30.0" xlink:href="#shape1"/>
    </g>
    <g id="shape1" transform="matrix(1.0, 0.0, 0.0, 1.0, 0.0, 0.0)">
      <path d="M22.1 21.9 L22.1 21.85 22.15 21.9 22.1 21.9" fill="url(#gradient0)" fill-rule="evenodd" stroke="none"/>
      <path d="M21.15 9.55 L20.2 8.8 Q17.95 7.25 15.2 7.25 11.65 7.25 9.15 9.55 L9.05 9.7 Q7.05 11.75 6.75 14.45 L6.7 15.35 6.75 16.3 Q7.05 19.0 9.0 21.0 L9.15 21.15 Q11.65 23.5 15.2 23.5 18.7 23.5 21.5 20.85 23.65 18.5 23.65 15.35 23.65 12.85 22.3 10.9 L21.15 9.55 M21.1 7.95 L21.15 8.0 26.0 4.3 22.95 9.75 Q24.5 11.75 24.8 14.2 L30.0 15.05 24.85 16.35 Q24.5 19.25 22.55 21.4 L26.0 25.8 21.15 22.7 Q18.95 24.45 16.1 24.7 L14.95 30.0 13.8 24.65 Q11.25 24.3 9.25 22.85 L4.5 25.8 7.45 21.1 6.75 20.1 Q5.55 18.2 5.45 15.9 L5.45 15.8 0.0 14.95 5.55 13.75 Q5.8 12.0 6.75 10.55 L8.2 8.75 8.3 8.65 4.6 4.3 9.9 7.45 Q11.65 6.3 13.8 6.1 L14.95 0.0 16.85 6.15 Q19.2 6.5 21.1 7.95 M22.1 21.9 L22.15 21.9 22.1 21.85 22.1 21.9" fill="#ffffef" fill-rule="evenodd" stroke="none"/>
      <path d="M21.1 7.95 Q19.2 6.5 16.85 6.15 L14.95 0.0 13.8 6.1 Q11.65 6.3 9.9 7.45 L4.6 4.3 8.3 8.65 8.2 8.75 6.75 10.55 Q5.8 12.0 5.55 13.75 L0.0 14.95 5.45 15.8 5.45 15.9 Q5.55 18.2 6.75 20.1 L7.45 21.1 4.5 25.8 9.25 22.85 Q11.25 24.3 13.8 24.65 L14.95 30.0 16.1 24.7 Q18.95 24.45 21.15 22.7 L26.0 25.8 22.55 21.4 Q24.5 19.25 24.85 16.35 L30.0 15.05 24.8 14.2 Q24.5 11.75 22.95 9.75 L26.0 4.3 21.15 8.0 21.1 7.95 M25.3 11.3 L30.0 15.05 25.25 19.15 26.05 25.85 26.05 25.9 19.0 25.4 14.95 30.0 11.05 25.4 4.5 25.8 4.5 25.65 5.05 19.3 0.0 14.95 5.1 11.05 4.6 4.3 10.95 5.15 14.95 0.0 19.15 5.15 26.0 4.3 25.3 11.3" fill="#dce4e3" fill-rule="evenodd" stroke="none"/>
      <path d="M21.15 9.55 L22.3 10.9 Q23.65 12.85 23.65 15.35 23.65 18.5 21.5 20.85 18.7 23.5 15.2 23.5 11.65 23.5 9.15 21.15 L9.0 21.0 Q7.05 19.0 6.75 16.3 L6.7 15.35 6.75 14.45 Q7.05 11.75 9.05 9.7 L9.15 9.55 Q11.65 7.25 15.2 7.25 17.95 7.25 20.2 8.8 L21.15 9.55" fill="#66867e" fill-rule="evenodd" stroke="none"/>
      <path d="M20.7 14.55 L20.55 14.95 20.35 14.65 20.7 14.55 M20.65 15.4 L20.7 15.35 21.2 14.75 21.2 14.7 21.4 14.4 21.4 14.5 21.5 14.55 22.25 15.85 22.4 16.1 22.55 16.55 22.25 16.35 22.0 16.2 21.8 16.1 21.5 16.0 Q21.4 16.0 21.05 16.3 L21.05 16.35 20.85 16.45 20.8 16.55 Q20.4 16.85 20.1 17.1 L19.4 17.45 19.3 17.5 18.85 17.7 18.85 17.6 18.75 17.05 18.85 17.1 Q19.4 17.3 19.9 17.1 L19.95 17.1 20.15 16.9 20.25 16.85 20.3 16.75 20.65 16.2 20.65 16.05 20.7 15.85 20.65 15.4 M21.1 9.5 Q20.1 10.45 19.6 11.45 L19.1 12.6 19.05 12.7 19.05 12.85 19.1 12.85 19.4 14.0 19.45 14.05 19.4 14.05 19.3 14.15 19.4 14.05 19.45 14.05 19.6 14.2 19.45 14.2 19.3 14.2 19.3 14.15 19.25 14.15 18.8 14.55 18.3 15.0 18.05 15.35 17.95 15.45 17.75 15.7 17.75 15.65 17.5 15.15 17.75 15.65 17.75 15.7 17.95 15.45 18.05 15.35 18.0 15.45 18.0 15.5 17.95 15.85 18.0 16.15 16.95 15.75 16.75 15.7 16.3 15.75 16.2 15.75 15.75 15.9 Q15.1 16.0 14.6 16.55 L14.35 16.8 14.25 17.0 13.85 17.8 13.7 17.8 13.25 17.6 13.15 17.55 13.95 17.1 14.35 16.55 14.5 15.9 14.45 15.3 14.4 15.2 15.05 15.3 15.65 15.2 16.0 15.05 16.3 14.85 16.5 14.5 16.5 14.65 16.5 15.1 16.5 15.2 16.5 15.3 16.55 15.3 16.65 15.3 16.8 15.3 17.5 15.15 17.6 15.1 17.95 15.0 18.3 14.9 18.15 14.35 18.2 13.8 18.25 13.65 18.3 12.95 18.3 12.75 17.95 12.6 18.4 11.6 18.5 11.45 19.1 10.6 19.2 10.45 19.25 10.4 19.3 10.35 20.15 9.4 20.55 9.05 21.1 9.5 M8.5 10.35 L8.9 9.9 Q9.5 11.2 10.4 12.3 L10.9 12.9 11.15 13.15 11.65 13.65 11.8 13.85 11.85 13.85 12.15 14.1 11.95 14.2 11.9 14.2 11.45 14.55 11.4 14.7 11.35 14.65 11.0 14.3 10.9 14.2 10.0 13.15 9.85 12.9 8.75 10.85 8.5 10.35 M11.45 16.75 L10.9 17.2 10.85 17.3 Q10.5 17.8 10.5 18.5 L10.5 18.7 Q10.55 19.2 10.9 19.6 L10.95 19.65 Q11.4 20.05 11.75 20.05 L11.95 20.0 12.15 20.0 12.15 19.9 12.45 19.9 12.55 19.9 12.9 20.0 13.1 20.05 12.95 20.6 12.9 20.75 12.8 20.9 12.7 21.1 12.6 21.15 13.0 21.45 13.4 21.8 13.6 22.0 13.8 22.05 14.15 22.25 13.8 22.2 13.6 22.2 13.55 22.15 13.45 22.15 13.25 22.15 12.0 21.7 11.35 21.4 11.1 21.25 10.9 21.1 10.05 20.45 9.55 19.85 9.6 19.5 9.25 18.35 9.15 17.7 9.15 17.6 Q9.2 16.95 9.4 16.55 9.5 16.2 9.7 16.0 L10.15 15.7 10.9 15.55 11.2 15.55 11.2 15.65 11.3 16.45 11.45 16.75 M15.65 22.3 L16.0 22.0 16.15 21.85 16.7 21.45 16.85 21.3 16.85 21.25 16.9 21.25 17.6 20.7 18.1 20.2 18.2 20.05 18.3 20.25 18.4 20.9 18.5 21.4 18.45 21.8 18.15 21.9 17.8 21.9 17.75 21.55 Q17.55 21.6 17.2 21.9 L17.1 22.0 16.9 22.05 16.5 22.15 16.35 22.2 16.15 22.25 15.65 22.3 M16.5 14.35 L16.4 14.35 16.45 14.3 16.5 14.3 16.5 14.35 M14.6 16.55 L14.35 16.55 14.6 16.55" fill="#392e28" fill-rule="evenodd" stroke="none"/>
      <path d="M21.2 9.6 L21.2 9.7 21.25 10.8 Q21.25 12.6 20.85 13.95 L20.7 14.55 20.35 14.65 20.1 14.4 19.6 14.2 19.45 14.05 19.4 14.0 19.1 12.85 19.05 12.85 19.05 12.7 19.1 12.6 19.6 11.45 Q20.1 10.45 21.1 9.5 L21.2 9.35 21.2 9.6 M19.85 13.75 Q19.65 13.85 19.5 14.0 L19.45 14.05 19.5 14.0 Q19.65 13.85 19.85 13.75 M22.55 16.55 L22.65 17.1 22.7 17.7 22.7 18.15 22.55 18.9 22.5 19.0 22.45 19.05 22.3 19.25 22.25 19.45 22.1 19.55 22.1 19.6 21.7 19.95 21.55 20.05 21.1 20.35 21.05 20.4 20.05 21.05 19.8 21.15 19.4 21.4 19.2 21.45 18.85 21.65 18.8 21.65 18.45 21.8 18.5 21.4 18.4 20.9 18.3 20.25 18.2 20.05 18.1 20.2 17.6 20.7 16.9 21.25 16.85 21.25 16.85 21.3 16.7 21.45 16.15 21.85 16.0 22.0 15.65 22.3 15.4 22.3 15.2 22.3 15.05 22.3 14.9 22.3 14.15 22.25 13.8 22.05 13.6 22.0 13.4 21.8 13.0 21.45 12.6 21.15 12.7 21.1 12.8 20.9 12.9 20.75 12.95 20.6 13.1 20.05 12.9 20.0 12.55 19.9 12.45 19.9 12.15 19.9 12.15 20.0 11.95 20.0 11.75 20.05 Q11.4 20.05 10.95 19.65 L10.9 19.6 Q10.55 19.2 10.5 18.7 L10.5 18.5 Q10.5 17.8 10.85 17.3 L10.9 17.2 11.45 16.75 11.5 16.75 11.6 16.9 12.2 17.4 12.25 17.45 12.35 17.5 12.7 17.6 12.75 17.6 13.15 17.55 13.25 17.6 13.7 17.8 13.85 17.8 13.8 18.5 14.2 19.6 14.7 20.05 14.5 20.3 14.45 20.35 14.15 20.55 14.15 20.6 14.0 20.5 13.85 20.35 14.0 21.0 14.3 21.45 14.5 21.45 14.7 21.25 14.75 21.25 14.9 21.1 Q15.1 20.9 15.25 20.85 L15.45 21.15 15.65 21.45 15.75 21.35 15.85 21.2 16.35 20.55 16.5 20.3 16.55 20.4 17.25 20.1 17.4 20.0 17.75 19.7 17.95 19.5 17.95 19.45 18.15 19.25 18.55 18.6 18.8 18.05 18.85 17.7 19.3 17.5 19.4 17.45 20.1 17.1 Q20.4 16.85 20.8 16.55 L20.85 16.45 21.05 16.35 21.05 16.3 Q21.4 16.0 21.5 16.0 L21.8 16.1 22.0 16.2 22.25 16.35 22.55 16.55 M8.9 9.9 L9.05 9.7 9.15 9.55 9.65 9.15 10.15 9.4 10.9 9.75 11.4 10.0 11.2 10.25 Q11.2 10.55 11.65 10.85 L11.8 10.95 12.25 11.1 12.55 10.9 13.85 12.1 14.1 12.35 14.95 13.35 15.3 14.05 15.3 14.2 15.3 14.4 15.95 14.4 16.1 14.4 16.45 14.3 16.4 14.35 16.5 14.35 16.5 14.5 16.3 14.85 16.0 15.05 15.65 15.2 15.05 15.3 14.4 15.2 14.3 14.95 14.15 14.75 13.75 14.55 12.95 14.2 12.3 13.95 12.25 13.95 12.15 13.9 12.0 13.85 11.85 13.85 12.0 13.85 12.15 13.9 12.25 13.95 12.25 14.05 12.15 14.1 11.85 13.85 11.8 13.85 11.65 13.65 11.15 13.15 10.9 12.9 10.4 12.3 Q9.5 11.2 8.9 9.9 M20.5 18.2 L20.35 18.15 20.0 18.15 19.95 18.4 19.9 18.7 Q19.75 19.0 19.75 19.25 L19.7 19.4 19.7 19.45 19.65 19.45 19.4 19.15 19.35 19.45 19.4 19.85 19.4 20.05 19.4 20.6 19.6 20.35 19.7 20.3 19.85 20.05 20.05 19.8 20.05 19.75 20.1 20.1 20.35 19.75 20.45 19.65 20.5 20.0 20.75 19.75 21.05 19.35 21.35 18.75 21.55 19.2 21.8 18.9 21.95 18.7 21.95 18.55 22.1 18.15 22.0 17.55 21.95 17.5 21.85 17.7 21.7 18.0 21.15 17.45 21.05 17.9 20.9 18.35 20.65 18.3 20.5 18.2 M22.7 18.15 L22.65 18.35 22.5 19.0 22.65 18.35 22.7 18.15 M16.35 20.3 L16.25 20.35 15.95 20.35 15.8 20.25 16.35 20.3 M14.7 14.6 L14.65 15.05 14.35 14.85 14.15 14.75 14.35 14.85 14.65 15.05 14.7 14.6" fill="#54433b" fill-rule="evenodd" stroke="none"/>
      <path d="M21.2 9.6 L21.75 10.2 Q21.95 11.95 21.55 13.75 L21.4 14.4 21.2 14.7 21.2 14.75 20.7 15.35 20.65 15.4 20.6 15.1 20.55 14.95 20.7 14.55 20.85 13.95 Q21.25 12.6 21.25 10.8 L21.2 9.7 21.2 9.6 M9.65 9.15 L10.15 8.75 10.9 9.1 11.2 9.3 11.25 9.3 11.25 9.35 11.3 9.35 12.55 10.2 12.9 10.45 14.25 11.7 14.3 11.7 14.35 11.75 14.35 11.8 14.4 11.85 14.8 12.25 15.25 12.8 15.3 12.8 15.35 12.9 16.0 13.75 16.5 13.85 16.55 13.9 16.65 13.9 17.2 13.8 17.25 13.8 17.25 13.85 Q17.05 14.1 16.65 14.2 L16.5 14.3 16.45 14.3 16.1 14.4 15.95 14.4 15.3 14.4 15.3 14.2 15.3 14.05 14.95 13.35 14.1 12.35 13.85 12.1 12.55 10.9 12.25 11.1 11.8 10.95 11.65 10.85 Q11.2 10.55 11.2 10.25 L11.4 10.0 10.9 9.75 10.15 9.4 9.65 9.15 M16.5 20.3 L16.35 20.55 15.85 21.2 15.75 21.35 15.65 21.45 15.45 21.15 15.25 20.85 Q15.1 20.9 14.9 21.1 L14.75 21.25 14.7 21.25 14.5 21.45 14.3 21.45 14.0 21.0 13.85 20.35 14.0 20.5 14.15 20.6 14.15 20.55 14.45 20.35 14.5 20.3 14.7 20.05 14.8 20.15 14.95 20.15 15.6 20.25 15.8 20.25 15.95 20.35 16.25 20.35 16.35 20.3 16.4 20.3 16.5 20.3 M20.5 18.2 L20.65 18.3 20.9 18.35 21.05 17.9 21.15 17.45 21.7 18.0 21.85 17.7 21.95 17.5 22.0 17.55 22.1 18.15 21.95 18.55 21.95 18.7 21.8 18.9 21.55 19.2 21.35 18.75 21.05 19.35 20.75 19.75 20.5 20.0 20.45 19.65 20.35 19.75 20.1 20.1 20.05 19.75 20.05 19.8 19.85 20.05 19.7 20.3 19.6 20.35 19.4 20.6 19.4 20.05 19.4 19.85 19.35 19.45 19.4 19.15 19.65 19.45 19.7 19.45 19.7 19.4 19.75 19.25 Q19.75 19.0 19.9 18.7 L19.95 18.4 20.0 18.15 20.35 18.15 20.5 18.2" fill="#6a544c" fill-rule="evenodd" stroke="none"/>
      <path d="M19.9 14.85 L20.0 14.95 20.3 15.35 20.3 15.45 20.3 15.55 20.3 15.7 20.25 16.0 20.1 16.25 19.75 16.55 19.65 16.55 19.1 16.55 18.75 16.35 18.65 16.1 Q18.5 15.9 18.5 15.7 L18.5 15.65 18.6 15.45 18.6 15.4 18.65 15.3 18.8 15.1 19.0 14.95 19.2 14.85 19.2 15.1 19.4 15.3 19.7 15.3 19.75 15.25 19.85 15.05 19.9 14.85 M12.65 14.75 L12.95 14.8 13.25 14.85 13.45 15.0 13.6 15.1 13.6 15.15 13.7 15.3 13.8 15.45 13.8 15.9 13.7 16.35 13.45 16.55 12.85 16.85 12.7 16.85 12.2 16.75 11.95 16.5 11.65 16.0 11.65 15.75 11.7 15.4 11.8 15.15 11.9 15.05 11.95 15.25 12.15 15.4 12.3 15.45 12.6 15.35 12.75 15.05 12.65 14.75" fill="#0e3f4d" fill-rule="evenodd" stroke="none"/>
      <path d="M20.55 14.95 L20.6 15.1 20.65 15.4 20.7 15.85 20.65 16.05 20.65 16.2 20.3 16.75 20.25 16.85 20.15 16.9 19.95 17.1 19.9 17.1 Q19.4 17.3 18.85 17.1 L18.75 17.05 Q18.6 16.55 18.05 16.15 L18.0 16.15 17.95 15.85 18.0 15.5 18.0 15.45 18.05 15.35 18.3 15.0 18.8 14.55 19.25 14.15 19.3 14.15 19.3 14.2 19.45 14.2 19.6 14.2 20.1 14.4 20.35 14.65 20.55 14.95 M19.2 14.85 L19.0 14.95 18.8 15.1 18.65 15.3 18.6 15.4 18.6 15.45 18.5 15.65 18.5 15.7 Q18.5 15.9 18.65 16.1 L18.75 16.35 19.1 16.55 19.65 16.55 19.75 16.55 20.1 16.25 20.25 16.0 20.3 15.7 20.3 15.55 20.3 15.45 20.3 15.35 20.0 14.95 19.9 14.85 19.85 14.8 19.65 14.55 19.5 14.55 19.3 14.7 19.3 14.75 19.2 14.85 M13.15 17.55 L12.75 17.6 12.7 17.6 12.35 17.5 12.25 17.45 12.2 17.4 11.6 16.9 11.5 16.75 11.45 16.75 11.3 16.45 11.2 15.65 11.2 15.55 11.25 15.1 Q11.25 14.85 11.4 14.7 L11.45 14.55 11.9 14.2 11.95 14.2 12.15 14.1 12.25 14.05 12.25 13.95 12.3 13.95 12.95 14.2 13.75 14.55 14.15 14.75 14.3 14.95 14.4 15.2 14.45 15.3 14.5 15.9 14.35 16.55 13.95 17.1 13.15 17.55 M11.9 15.05 L11.8 15.15 11.7 15.4 11.65 15.75 11.65 16.0 11.95 16.5 12.2 16.75 12.7 16.85 12.85 16.85 13.45 16.55 13.7 16.35 13.8 15.9 13.8 15.45 13.7 15.3 13.6 15.15 13.6 15.1 13.45 15.0 13.25 14.85 12.95 14.8 12.65 14.75 12.6 14.75 12.5 14.65 12.45 14.6 12.2 14.55 12.15 14.55 12.0 14.6 11.9 14.95 11.9 15.05" fill="#08242c" fill-rule="evenodd" stroke="none"/>
      <path d="M21.7 19.95 L21.75 20.05 21.75 20.15 21.55 20.05 21.7 19.95" fill="#362c27" fill-rule="evenodd" stroke="none"/>
      <path d="M19.2 10.45 L19.1 10.6 18.5 11.45 18.4 11.6 17.95 12.6 17.9 12.8 17.85 12.95 16.2 11.75 Q14.9 10.6 14.9 9.8 14.9 9.35 15.15 9.05 15.8 9.35 15.9 9.6 L16.0 9.55 15.8 9.1 15.6 8.8 15.55 8.6 15.6 8.6 16.5 8.95 17.25 9.2 17.3 9.3 17.45 9.35 18.75 10.05 19.2 10.4 19.2 10.45 M21.7 20.65 L21.5 20.85 Q20.1 22.15 18.55 22.85 L19.05 22.25 19.05 22.2 19.55 22.0 19.9 21.85 20.05 21.75 20.1 21.65 20.7 21.15 21.3 20.8 21.7 20.65 M17.8 23.1 L15.4 23.5 14.95 23.5 13.2 23.3 14.15 23.35 15.55 23.25 15.85 23.15 16.0 23.1 16.7 22.9 17.4 22.55 17.8 23.1" fill="#f9f9f7" fill-rule="evenodd" stroke="none"/>
      <path d="M21.75 20.15 L21.75 20.6 21.7 20.65 21.3 20.8 20.7 21.15 20.1 21.65 20.05 21.75 19.9 21.85 19.55 22.0 19.05 22.2 19.05 22.25 18.55 22.85 17.8 23.1 17.4 22.55 16.7 22.9 16.0 23.1 15.85 23.15 15.55 23.25 14.15 23.35 13.2 23.3 11.8 22.85 11.7 22.7 11.7 22.35 11.8 22.35 12.8 22.2 13.25 22.15 13.45 22.15 13.55 22.15 13.6 22.2 13.8 22.2 14.15 22.25 14.9 22.3 15.05 22.3 15.2 22.3 15.4 22.3 15.65 22.3 16.15 22.25 16.35 22.2 16.5 22.15 16.9 22.05 17.1 22.0 17.2 21.9 Q17.55 21.6 17.75 21.55 L17.8 21.9 18.15 21.9 18.45 21.8 18.8 21.65 18.85 21.65 19.2 21.45 19.4 21.4 19.8 21.15 20.05 21.05 21.05 20.4 21.1 20.35 21.55 20.05 21.75 20.15 M9.85 21.8 L9.7 21.65 9.7 21.6 9.85 21.8 M6.75 15.55 L6.75 14.45 7.15 12.75 7.6 12.25 7.8 12.05 7.95 11.9 8.1 12.2 8.35 12.6 8.4 12.7 8.4 12.75 8.4 12.8 Q8.3 12.75 8.35 12.6 8.3 12.75 8.4 12.8 L8.35 12.85 7.6 13.75 7.35 14.2 7.2 14.6 7.0 14.55 6.95 14.9 6.75 15.55 M13.4 8.55 L13.8 8.6 14.1 8.7 15.15 9.05 Q14.9 9.35 14.9 9.8 14.9 10.6 16.2 11.75 L17.85 12.95 17.7 13.4 17.6 13.65 17.35 13.75 17.3 13.75 17.25 13.8 17.2 13.8 16.65 13.9 16.55 13.9 16.5 13.85 16.0 13.75 15.35 12.9 15.3 12.8 15.25 12.8 14.8 12.25 14.4 11.85 14.35 11.8 14.35 11.75 14.1 11.3 13.6 10.35 13.45 9.85 13.5 9.85 13.75 9.8 14.15 9.65 14.25 9.65 13.65 9.4 13.45 9.2 13.25 8.75 13.4 8.55" fill="#e0d8ca" fill-rule="evenodd" stroke="none"/>
      <path d="M11.8 22.85 L10.9 22.45 9.85 21.8 9.7 21.6 9.7 21.65 9.15 21.15 9.0 21.0 7.6 19.1 Q6.9 17.8 6.75 16.3 L6.75 15.55 6.95 14.9 7.0 14.55 7.2 14.6 7.1 15.15 7.05 15.6 7.05 16.2 7.2 17.2 7.3 17.6 7.5 17.9 7.5 17.95 7.6 18.0 7.7 18.0 7.95 18.75 8.1 19.1 8.2 19.2 Q8.6 19.9 8.95 20.05 L9.1 20.05 9.3 19.95 9.55 19.85 10.05 20.45 10.9 21.1 11.1 21.25 11.35 21.4 12.0 21.7 13.25 22.15 12.8 22.2 11.8 22.35 11.7 22.35 11.7 22.7 11.8 22.85 M11.25 9.35 L11.3 9.25 11.15 8.55 11.1 8.45 11.05 8.2 11.0 8.05 11.2 8.1 11.25 8.1 12.55 8.35 12.6 8.35 13.15 8.45 13.4 8.55 13.25 8.75 13.45 9.2 13.65 9.4 14.25 9.65 14.15 9.65 13.75 9.8 13.5 9.85 13.45 9.85 13.6 10.35 14.1 11.3 14.35 11.75 14.3 11.7 14.25 11.7 12.9 10.45 12.55 10.2 11.3 9.35 11.25 9.35" fill="#c9bbaa" fill-rule="evenodd" stroke="none"/>
      <path d="M17.95 12.6 L18.3 12.75 18.3 12.95 18.25 13.65 18.2 13.8 18.15 14.35 18.3 14.9 17.95 15.0 17.6 15.1 17.5 15.15 16.8 15.3 16.65 15.3 16.55 15.3 16.5 15.3 16.5 15.2 16.5 15.1 16.5 14.65 16.5 14.5 16.5 14.35 16.5 14.3 16.65 14.2 Q17.05 14.1 17.25 13.85 L17.25 13.8 17.3 13.75 17.35 13.75 17.6 13.65 17.7 13.4 17.85 12.95 17.9 12.8 17.95 12.6 M7.95 11.9 L7.7 11.5 8.5 10.35 8.75 10.85 9.85 12.9 10.0 13.15 10.9 14.2 11.0 14.3 11.35 14.65 11.4 14.7 Q11.25 14.85 11.25 15.1 L10.9 14.95 10.5 14.7 9.1 13.65 8.9 13.45 9.1 13.65 10.5 14.7 10.9 14.95 11.25 15.1 11.2 15.55 10.9 15.55 10.15 15.7 9.7 16.0 Q9.5 16.2 9.4 16.55 9.2 16.95 9.15 17.6 L9.15 17.7 9.25 18.35 9.6 19.5 9.55 19.85 9.3 19.95 8.4 18.35 8.0 17.2 7.95 17.1 7.8 16.2 7.8 15.85 7.85 14.8 7.9 14.75 8.0 14.35 Q8.2 13.65 8.75 13.5 L8.85 13.45 8.9 13.45 8.4 12.8 8.4 12.75 8.4 12.7 8.35 12.6 8.1 12.2 7.95 11.9 M7.5 17.95 L7.5 17.9 7.7 18.0 7.6 18.0 7.5 17.95" fill="#312823" fill-rule="evenodd" stroke="none"/>
      <path d="M8.4 12.8 L8.9 13.45 8.85 13.45 8.75 13.5 Q8.2 13.65 8.0 14.35 L7.9 14.75 7.85 14.8 7.8 15.85 7.8 16.2 7.95 17.1 8.0 17.2 8.4 18.35 9.3 19.95 9.1 20.05 8.95 20.05 Q8.6 19.9 8.2 19.2 L8.1 19.1 7.95 18.75 7.7 18.0 7.5 17.9 7.3 17.6 7.2 17.2 7.05 16.2 7.05 15.6 7.1 15.15 7.2 14.6 7.35 14.2 7.6 13.75 8.35 12.85 8.4 12.8" fill="#6b564b" fill-rule="evenodd" stroke="none"/>
      <path d="M19.9 14.85 L19.85 15.05 19.75 15.25 19.7 15.3 19.4 15.3 19.2 15.1 19.2 14.85 19.3 14.75 19.3 14.7 19.5 14.55 19.65 14.55 19.85 14.8 19.9 14.85 M11.9 15.05 L11.9 14.95 12.0 14.6 12.15 14.55 12.2 14.55 12.45 14.6 12.5 14.65 12.6 14.75 12.65 14.75 12.75 15.05 12.6 15.35 12.3 15.45 12.15 15.4 11.95 15.25 11.9 15.05" fill="#fefad7" fill-rule="evenodd" stroke="none"/>
      <path d="M14.7 20.05 L14.2 19.6 13.8 18.5 13.85 17.8 14.25 17.0 14.35 16.8 14.6 16.55 Q15.1 16.0 15.75 15.9 L15.85 16.05 16.2 15.75 16.3 15.75 16.75 15.7 16.95 15.75 16.95 15.85 17.4 16.2 17.65 16.5 16.4 16.25 15.25 16.65 15.25 16.55 15.2 16.7 15.1 16.8 15.05 16.85 14.65 17.3 14.35 17.95 14.3 18.35 Q14.35 19.45 14.7 20.0 L14.8 20.15 14.7 20.05" fill="#f9cb3a" fill-rule="evenodd" stroke="none"/>
      <path d="M18.85 17.7 L18.8 18.05 18.55 18.6 18.15 19.25 17.95 19.45 17.6 19.55 17.75 19.7 17.4 20.0 17.25 20.1 16.55 20.4 16.5 20.3 16.5 20.25 16.4 20.05 16.15 19.8 16.2 19.7 16.3 19.65 16.35 19.65 16.55 19.75 16.75 19.85 16.9 19.75 17.05 19.55 17.1 19.5 17.4 19.1 17.4 19.05 17.6 18.75 17.9 18.2 Q17.75 18.35 17.5 18.1 L17.5 18.05 17.3 17.65 17.4 17.3 17.6 17.2 17.8 17.05 17.7 16.55 17.65 16.55 17.7 16.5 17.65 16.5 17.4 16.2 16.95 15.85 16.95 15.75 18.0 16.15 18.05 16.15 Q18.6 16.55 18.75 17.05 L18.85 17.6 18.85 17.7 M18.65 17.95 L18.65 17.9 18.6 17.95 18.65 17.95" fill="#ffff9d" fill-rule="evenodd" stroke="none"/>
      <path d="M17.95 19.45 L17.95 19.5 17.75 19.7 17.6 19.55 17.95 19.45 M17.65 16.5 L17.7 16.5 17.65 16.55 17.7 16.55 17.8 17.05 17.6 17.2 17.4 17.3 17.3 17.65 17.5 18.05 17.5 18.1 Q17.75 18.35 17.9 18.2 L17.6 18.75 17.4 19.05 17.4 19.1 17.1 19.5 17.05 19.55 16.7 19.5 Q15.95 19.4 15.45 18.9 L14.95 18.05 14.9 17.7 14.9 17.4 14.9 17.3 15.05 16.85 15.1 16.8 15.2 16.7 15.25 16.55 15.25 16.65 16.4 16.25 17.65 16.5 M16.2 15.75 L15.85 16.05 15.75 15.9 16.2 15.75 M18.65 17.95 L18.6 17.95 18.65 17.9 18.65 17.95" fill="#f7bc2e" fill-rule="evenodd" stroke="none"/>
      <path d="M17.05 19.55 L16.9 19.75 16.75 19.85 16.55 19.75 16.35 19.65 16.3 19.65 16.2 19.7 16.15 19.8 16.4 20.05 16.5 20.25 16.5 20.3 16.4 20.3 16.35 20.3 15.8 20.25 15.6 20.25 14.95 20.15 14.8 20.15 14.7 20.0 Q14.35 19.45 14.3 18.35 L14.35 17.95 14.65 17.3 15.05 16.85 14.9 17.3 14.9 17.4 14.9 17.7 14.95 18.05 15.45 18.9 Q15.95 19.4 16.7 19.5 L17.05 19.55 M15.35 19.55 L15.65 19.65 16.0 19.7 16.15 19.8 16.0 19.7 15.65 19.65 15.35 19.55" fill="#f7922d" fill-rule="evenodd" stroke="none"/>
      <path d="M20.65 15.4 L20.7 15.35 21.2 14.75 21.2 14.7 21.4 14.4 21.55 13.75 Q21.95 11.95 21.75 10.2 M20.55 9.05 L20.15 9.4 19.3 10.35 19.25 10.4 19.2 10.45 19.1 10.6 18.5 11.45 18.4 11.6 17.95 12.6 17.9 12.8 17.85 12.95 17.7 13.4 17.6 13.65 17.35 13.75 M21.5 14.55 L22.25 15.85 22.4 16.1 22.55 16.55 22.65 17.1 22.7 17.7 22.7 18.15 22.65 18.35 22.5 19.0 22.45 19.05 22.3 19.25 22.25 19.45 22.1 19.55 22.1 19.6 21.7 19.95 21.75 20.05 21.75 20.15 21.75 20.6 M7.15 12.75 L7.6 12.25 7.8 12.05 7.95 11.9 7.7 11.5 M10.15 8.75 L10.9 9.1 11.2 9.3 11.25 9.3 11.25 9.35 11.3 9.35 12.55 10.2 12.9 10.45 14.25 11.7 14.3 11.7 14.35 11.75 14.35 11.8 14.4 11.85 14.8 12.25 15.25 12.8 15.3 12.8 15.35 12.9 16.0 13.75 16.5 13.85 16.55 13.9 16.65 13.9 17.2 13.8 17.25 13.8 17.3 13.75 M11.3 9.25 L11.15 8.55 11.1 8.45 11.05 8.2 M11.2 8.1 L11.25 8.1 12.55 8.35 12.6 8.35 13.15 8.45 13.4 8.55 13.8 8.6 14.1 8.7 15.15 9.05 Q15.8 9.35 15.9 9.6 M16.0 9.55 L15.8 9.1 15.6 8.8 15.55 8.6 15.6 8.6 16.5 8.95 17.25 9.2 17.3 9.3 17.45 9.35 18.75 10.05 19.2 10.4 M21.4 14.4 L21.4 14.5 M14.15 22.25 L14.9 22.3 15.05 22.3 15.2 22.3 15.4 22.3 15.65 22.3 16.15 22.25 16.35 22.2 16.5 22.15 16.9 22.05 17.1 22.0 17.2 21.9 Q17.55 21.6 17.75 21.55 L17.8 21.9 18.15 21.9 18.45 21.8 18.8 21.65 18.85 21.65 19.2 21.45 19.4 21.4 19.8 21.15 20.05 21.05 21.05 20.4 21.1 20.35 21.55 20.05 21.7 19.95 M7.95 11.9 L8.1 12.2 8.35 12.6 8.4 12.7 M8.4 12.75 L8.4 12.8 8.9 13.45 9.1 13.65 10.5 14.7 10.9 14.95 11.25 15.1 M8.4 12.8 Q8.3 12.75 8.35 12.6 M7.2 14.6 L7.35 14.2 7.6 13.75 8.35 12.85 8.4 12.8 M9.3 19.95 L9.55 19.85 10.05 20.45 10.9 21.1 11.1 21.25 11.35 21.4 12.0 21.7 13.25 22.15 13.45 22.15 13.55 22.15 13.6 22.2 13.8 22.2 14.15 22.25 M7.5 17.9 L7.3 17.6 7.2 17.2 7.05 16.2 7.05 15.6 7.1 15.15 7.2 14.6 M7.5 17.95 L7.6 18.0 7.7 18.0 7.95 18.75 8.1 19.1 8.2 19.2 Q8.6 19.9 8.95 20.05 L9.1 20.05 9.3 19.95 M14.35 16.55 L14.6 16.55" fill="none" stroke="#120c0e" stroke-linecap="round" stroke-linejoin="round" stroke-width="0.2"/>
      <path d="M20.55 14.95 L20.6 15.1 20.65 15.4 20.7 15.85 20.65 16.05 20.65 16.2 20.3 16.75 20.25 16.85 20.15 16.9 19.95 17.1 19.9 17.1 Q19.4 17.3 18.85 17.1 L18.75 17.05 M19.45 14.05 L19.5 14.0 Q19.65 13.85 19.85 13.75 M17.5 15.15 L17.75 15.65 17.75 15.7 17.95 15.45 18.05 15.35 18.3 15.0 18.8 14.55 19.25 14.15 19.3 14.15 19.4 14.05 19.45 14.05 M19.6 14.2 L20.1 14.4 20.35 14.65 20.55 14.95 M13.15 17.55 L12.75 17.6 12.7 17.6 12.35 17.5 12.25 17.45 12.2 17.4 11.6 16.9 11.5 16.75 11.45 16.75 11.3 16.45 11.2 15.65 11.2 15.55 11.25 15.1 Q11.25 14.85 11.4 14.7 L11.45 14.55 11.9 14.2 11.95 14.2 12.15 14.1 12.25 14.05 M18.05 15.35 L18.0 15.45 18.0 15.5 17.95 15.85 18.0 16.15 M19.6 14.2 L19.45 14.2 19.3 14.2 M12.25 13.95 L12.3 13.95 12.95 14.2 13.75 14.55 14.15 14.75 14.35 14.85 14.65 15.05 14.7 14.6 M14.15 14.75 L14.3 14.95 14.4 15.2 14.45 15.3 14.5 15.9 14.35 16.55 13.95 17.1 13.15 17.55 M11.85 13.85 L11.8 13.85 11.65 13.65 M11.85 13.85 L12.0 13.85 12.15 13.9 12.25 13.95" fill="none" stroke="#300a1f" stroke-linecap="round" stroke-linejoin="round" stroke-width="0.2"/>
      <path d="M18.85 17.7 L18.8 18.05 18.55 18.6 18.15 19.25 17.95 19.45 17.95 19.5 17.75 19.7 17.4 20.0 17.25 20.1 16.55 20.4 16.5 20.3 16.5 20.25 16.4 20.05 16.15 19.8 16.0 19.7 15.65 19.65 15.35 19.55 M14.7 20.05 L14.2 19.6 13.8 18.5 13.85 17.8 14.25 17.0 14.35 16.8 14.6 16.55 Q15.1 16.0 15.75 15.9 L16.2 15.75 16.3 15.75 16.75 15.7 16.95 15.75 18.0 16.15 18.05 16.15 Q18.6 16.55 18.75 17.05 L18.85 17.6 18.85 17.7 M16.4 20.3 L16.35 20.3 15.8 20.25 15.6 20.25 14.95 20.15 14.8 20.15 14.7 20.05" fill="none" stroke="#0d0908" stroke-linecap="round" stroke-linejoin="round" stroke-width="0.2"/>
      <path d="M9.05 20.8 Q6.75 18.5 6.75 15.25 6.75 12.05 9.1 9.7 L9.2 9.6 Q11.7 7.3 15.25 7.3 L15.95 7.3 Q9.25 12.55 10.25 21.8 L9.2 20.95 9.05 20.8" fill="#ffffff" fill-opacity="0.2" fill-rule="evenodd" stroke="none"/>
      <path d="M10.7 11.8 L9.5 13.15 Q8.95 13.05 8.85 12.75 L8.85 12.4 Q9.15 10.8 10.6 9.7 11.25 9.2 11.6 9.3 11.95 9.4 11.8 10.1 L10.7 11.8 M8.85 15.5 Q8.35 15.4 8.2 15.0 L8.25 14.6 Q8.35 13.8 9.15 13.9 10.05 14.0 9.9 14.75 L9.55 15.25 Q9.2 15.55 8.85 15.5" fill="#ffffff" fill-rule="evenodd" stroke="none"/>
    </g>
    <linearGradient gradientTransform="matrix(0.0068, 0.0, 0.0, 0.005, 20.5, 25.9)" gradientUnits="userSpaceOnUse" id="gradient0" spreadMethod="pad" x1="-819.2" x2="819.2">
      <stop offset="0.0" stop-color="#65298e"/>
      <stop offset="1.0" stop-color="#9a6cc5"/>
    </linearGradient>
  </defs>
</svg>
