<?xml version="1.0" encoding="UTF-8" standalone="no"?>
<svg xmlns:ffdec="https://www.free-decompiler.com/flash" xmlns:xlink="http://www.w3.org/1999/xlink" ffdec:objectType="frame" height="31.85px" width="30.0px" xmlns="http://www.w3.org/2000/svg">
  <g transform="matrix(1.0, 0.0, 0.0, 1.0, 0.0, 0.0)">
    <use ffdec:characterId="1" height="30.0" transform="matrix(1.0, 0.0, 0.0, 1.0, 0.0, 0.0)" width="30.0" xlink:href="#shape0"/>
    <use ffdec:characterId="6" height="31.85" transform="matrix(1.0, 0.0, 0.0, 1.0, 0.0, 0.0)" width="30.0" xlink:href="#sprite0"/>
  </g>
  <defs>
    <g id="shape0" transform="matrix(1.0, 0.0, 0.0, 1.0, 0.0, 0.0)">
      <path d="M0.0 0.0 L30.0 0.0 30.0 30.0 0.0 30.0 0.0 0.0" fill="#33cc66" fill-opacity="0.0" fill-rule="evenodd" stroke="none"/>
    </g>
    <g id="sprite0" transform="matrix(1.0, 0.0, 0.0, 1.0, 0.0, 0.0)">
      <use ffdec:characterId="2" height="30.0" transform="matrix(1.0, 0.0, 0.0, 1.0, 0.0, 0.0)" width="30.0" xlink:href="#shape1"/>
      <clipPath id="clipPath0" transform="matrix(1.0, 0.0, 0.0, 1.0, 0.0, 0.0)">
        <path d="M23.65 15.35 Q23.65 18.5 21.55 20.85 18.7 23.5 15.2 23.5 11.65 23.5 9.15 21.15 L9.0 21.0 Q6.7 18.65 6.7 15.35 6.7 12.1 9.05 9.7 L9.15 9.55 Q11.65 7.25 15.2 7.25 18.65 7.25 21.15 9.55 23.65 12.0 23.65 15.35" fill="#663300" fill-rule="evenodd" stroke="none"/>
      </clipPath>
      <g clip-path="url(#clipPath0)">
        <use ffdec:characterId="4" height="139.7" transform="matrix(0.2252, 0.0, 0.0, 0.2252, 1.2708, 0.3695)" width="90.35" xlink:href="#shape3"/>
      </g>
      <use ffdec:characterId="5" height="14.5" transform="matrix(1.0, 0.0, 0.0, 1.0, 6.8, 7.35)" width="9.2" xlink:href="#shape4"/>
    </g>
    <g id="shape1" transform="matrix(1.0, 0.0, 0.0, 1.0, 0.0, 0.0)">
      <path d="M26.05 4.35 L26.0 4.35 26.05 4.3 26.05 4.35" fill="url(#gradient0)" fill-rule="evenodd" stroke="none"/>
      <path d="M26.05 4.3 L26.0 4.35 26.0 4.3 26.05 4.3" fill="url(#gradient1)" fill-rule="evenodd" stroke="none"/>
      <path d="M29.35 14.95 L29.85 14.95 29.9 15.0 29.65 15.0 29.35 14.95" fill="url(#gradient2)" fill-rule="evenodd" stroke="none"/>
      <path d="M29.95 15.1 L29.95 15.05 29.65 15.0 29.9 15.0 29.95 15.05 30.0 15.05 29.95 15.1 M26.1 25.8 L26.1 25.85 26.05 25.8 26.1 25.8" fill="url(#gradient3)" fill-rule="evenodd" stroke="none"/>
      <path d="M22.1 21.9 L22.1 21.85 22.15 21.9 22.1 21.9" fill="url(#gradient4)" fill-rule="evenodd" stroke="none"/>
      <path d="M4.55 25.8 L4.5 25.8 4.5 25.65 4.85 25.35 4.55 25.75 4.55 25.8" fill="url(#gradient5)" fill-rule="evenodd" stroke="none"/>
      <path d="M26.0 4.3 L26.0 4.35 21.2 8.05 21.1 7.95 Q19.2 6.5 16.9 6.15 L14.95 0.0 19.15 5.15 26.0 4.3 M29.35 14.95 L24.8 14.2 Q24.55 11.75 23.0 9.75 L26.05 4.35 25.3 11.3 29.85 14.95 29.35 14.95 M29.95 15.1 L25.25 19.1 26.1 25.8 26.05 25.8 26.1 25.85 26.1 25.9 19.0 25.4 14.95 30.0 11.1 25.4 4.55 25.8 9.3 22.85 Q11.3 24.3 13.85 24.65 L14.95 30.0 16.1 24.7 Q18.95 24.45 21.15 22.7 L26.05 25.8 22.55 21.4 Q24.55 19.25 24.8 16.35 L29.95 15.1 M4.5 25.65 L5.1 19.3 0.0 14.95 5.15 11.05 4.6 4.3 11.0 5.15 14.95 0.0 13.9 6.1 Q11.65 6.3 9.85 7.45 L4.6 4.3 8.3 8.6 8.2 8.75 Q5.95 10.95 5.55 13.8 L0.0 14.95 5.45 15.8 Q5.55 18.8 7.45 21.15 L4.85 25.35 4.5 25.65" fill="#a57341" fill-rule="evenodd" stroke="none"/>
      <path d="M26.0 4.35 L26.05 4.35 23.0 9.75 Q24.55 11.75 24.8 14.2 L29.35 14.95 29.65 15.0 29.95 15.05 29.95 15.1 24.8 16.35 Q24.55 19.25 22.55 21.4 L26.05 25.8 21.15 22.7 Q18.95 24.45 16.1 24.7 L14.95 30.0 13.85 24.65 Q11.3 24.3 9.3 22.85 L4.55 25.8 4.55 25.75 4.85 25.35 7.45 21.15 Q5.55 18.8 5.45 15.8 L0.0 14.95 5.55 13.8 Q5.95 10.95 8.2 8.75 L8.3 8.6 4.6 4.3 9.85 7.45 Q11.65 6.3 13.9 6.1 L14.95 0.0 16.9 6.15 Q19.2 6.5 21.1 7.95 L21.2 8.05 26.0 4.35 M22.1 21.9 L22.15 21.9 22.1 21.85 22.1 21.9 M23.65 15.35 Q23.65 12.0 21.15 9.55 18.65 7.25 15.2 7.25 11.65 7.25 9.15 9.55 L9.05 9.7 Q6.7 12.1 6.7 15.35 6.7 18.65 9.0 21.0 L9.15 21.15 Q11.65 23.5 15.2 23.5 18.7 23.5 21.55 20.85 23.65 18.5 23.65 15.35" fill="#e1cbb7" fill-rule="evenodd" stroke="none"/>
      <path d="M23.65 15.35 Q23.65 18.5 21.55 20.85 18.7 23.5 15.2 23.5 11.65 23.5 9.15 21.15 L9.0 21.0 Q6.7 18.65 6.7 15.35 6.7 12.1 9.05 9.7 L9.15 9.55 Q11.65 7.25 15.2 7.25 18.65 7.25 21.15 9.55 23.65 12.0 23.65 15.35" fill="#663300" fill-rule="evenodd" stroke="none"/>
    </g>
    <linearGradient gradientTransform="matrix(0.0049, 0.0, 0.0, 0.0065, 25.85, 9.55)" gradientUnits="userSpaceOnUse" id="gradient0" spreadMethod="pad" x1="-819.2" x2="819.2">
      <stop offset="0.0" stop-color="#5f2288"/>
      <stop offset="1.0" stop-color="#a276cd"/>
    </linearGradient>
    <linearGradient gradientTransform="matrix(0.0068, 0.0, 0.0, 0.0052, 20.5, 4.25)" gradientUnits="userSpaceOnUse" id="gradient1" spreadMethod="pad" x1="-819.2" x2="819.2">
      <stop offset="0.0" stop-color="#fd9b0b"/>
      <stop offset="1.0" stop-color="#fde42b"/>
    </linearGradient>
    <linearGradient gradientTransform="matrix(0.0048, 0.0, 0.0, 0.0067, 26.1, 20.35)" gradientUnits="userSpaceOnUse" id="gradient2" spreadMethod="pad" x1="-819.2" x2="819.2">
      <stop offset="0.0" stop-color="#8d010c"/>
      <stop offset="1.0" stop-color="#f2b03f"/>
    </linearGradient>
    <linearGradient gradientTransform="matrix(0.0048, 0.0, 0.0, 0.0067, 26.1, 20.35)" gradientUnits="userSpaceOnUse" id="gradient3" spreadMethod="pad" x1="-819.2" x2="819.2">
      <stop offset="0.0" stop-color="#fd9e0c"/>
      <stop offset="1.0" stop-color="#fddd27"/>
    </linearGradient>
    <linearGradient gradientTransform="matrix(0.0068, 0.0, 0.0, 0.005, 20.5, 25.9)" gradientUnits="userSpaceOnUse" id="gradient4" spreadMethod="pad" x1="-819.2" x2="819.2">
      <stop offset="0.0" stop-color="#65298e"/>
      <stop offset="1.0" stop-color="#9a6cc5"/>
    </linearGradient>
    <linearGradient gradientTransform="matrix(0.0064, 0.0, 0.0, 0.0049, 9.7, 25.95)" gradientUnits="userSpaceOnUse" id="gradient5" spreadMethod="pad" x1="-819.2" x2="819.2">
      <stop offset="0.0" stop-color="#fd9e0c"/>
      <stop offset="1.0" stop-color="#fddd27"/>
    </linearGradient>
    <g id="shape3" transform="matrix(1.0, 0.0, 0.0, 1.0, 45.2, 69.85)">
      <path d="M-1.0 -22.3 L1.75 -19.2 4.35 -16.35 0.75 -14.5 0.7 -14.5 -0.15 -15.35 0.4 -15.8 -3.1 -20.85 -2.35 -21.4 -1.35 -22.05 -1.0 -22.3 M-13.8 -16.35 Q-10.55 -14.45 -3.55 -11.6 L-4.15 -10.05 -4.55 -7.8 -4.5 -7.4 -2.95 -6.8 0.8 -5.45 1.4 -5.85 Q3.55 -7.15 5.55 -7.15 L6.55 -7.0 Q8.05 -9.95 8.05 -14.8 L7.7 -18.35 9.65 -18.45 Q19.45 -18.45 27.75 -10.05 33.25 -4.45 35.15 1.95 L34.45 1.25 Q31.05 -1.95 26.7 -1.95 L26.15 -1.85 21.55 -0.95 Q20.55 -0.65 19.75 -0.15 18.3 2.05 18.3 4.75 18.3 8.65 20.65 11.0 22.75 13.1 25.8 13.2 26.95 14.3 27.65 16.4 28.35 18.4 28.35 19.85 L28.35 19.9 28.3 20.15 26.3 20.5 26.45 20.2 Q26.85 19.3 26.85 18.6 26.85 16.9 25.25 15.55 23.25 13.85 19.75 13.85 L18.4 14.15 18.1 14.25 15.95 8.05 Q15.65 7.75 15.15 7.5 13.75 6.65 12.4 6.65 L11.8 4.2 10.4 0.25 Q8.25 -4.75 5.85 -5.85 L4.45 -6.15 Q3.4 -6.15 2.55 -5.35 L2.25 -5.0 1.75 -4.35 Q0.9 -3.05 0.6 -1.15 0.35 0.1 0.35 1.6 0.35 4.95 0.85 8.65 L1.2 10.95 1.55 12.65 2.1 14.8 1.55 15.95 0.15 18.65 0.0 18.9 0.9 20.25 1.85 21.0 Q2.65 21.45 3.6 21.7 L3.8 21.7 4.8 21.85 5.7 23.25 5.75 23.4 7.65 27.25 8.75 30.35 8.95 31.3 8.4 32.05 8.05 32.35 6.65 33.3 3.95 34.15 Q3.3 41.85 7.7 47.8 9.35 50.0 12.0 52.3 10.95 57.15 6.15 61.35 4.1 63.1 1.7 64.4 -2.8 66.75 -8.45 67.25 L-11.55 67.35 -15.45 67.15 -18.0 66.95 -18.15 67.6 -17.9 68.2 -18.9 67.95 -20.35 67.5 Q-24.05 66.25 -26.4 64.75 L-31.85 60.55 Q-35.0 57.85 -39.5 54.55 -44.0 51.25 -44.6 45.9 -45.25 40.55 -40.3 34.05 -35.45 27.55 -34.35 28.05 L-25.15 28.55 -19.05 28.9 -17.8 30.65 -16.45 36.3 -16.05 38.0 -14.0 33.85 Q-12.4 30.85 -10.95 29.0 L-9.25 29.0 -8.75 29.0 -6.9 29.0 Q-5.25 29.0 -3.55 28.25 -2.75 27.9 -2.25 27.1 -1.65 26.2 -1.45 24.8 L-5.1 16.15 Q-8.15 8.7 -8.35 0.85 L-8.35 -0.05 Q-8.35 -4.35 -7.6 -7.25 L-7.25 -8.4 -6.8 -9.4 -11.0 -13.0 -14.35 -15.95 -13.8 -16.35 M0.85 13.35 L-0.45 7.35 -2.55 5.35 -5.6 2.75 -5.95 4.1 -6.15 5.15 -4.9 10.65 Q-3.4 16.5 -1.75 20.65 L-1.7 20.8 0.1 24.05 0.25 24.3 Q0.15 25.3 -0.65 28.05 L5.45 32.35 6.75 31.55 7.9 30.85 7.5 29.85 4.45 23.05 2.35 22.65 Q0.85 21.95 -0.5 20.1 L-1.1 19.3 0.1 16.2 1.0 13.9 0.85 13.35 M-18.55 65.85 L-17.25 66.05 -13.15 66.45 Q-8.15 66.45 -3.1 64.45 L0.15 62.9 -1.5 61.3 Q-9.65 53.15 -14.8 43.8 -16.25 47.95 -17.6 50.8 L-20.7 49.85 Q-19.95 52.95 -19.25 59.2 -19.25 61.75 -19.55 64.0 L-19.35 64.15 -18.45 64.75 -18.55 65.5 -18.55 65.85" fill="#e59700" fill-rule="evenodd" stroke="none"/>
      <path d="M-0.15 -15.35 L0.7 -14.5 0.75 -14.5 4.35 -16.35 1.75 -19.2 -1.0 -22.3 -0.3 -22.7 7.55 -18.3 7.7 -18.35 8.05 -14.8 Q8.05 -9.95 6.55 -7.0 L5.55 -7.15 Q3.55 -7.15 1.4 -5.85 L0.8 -5.45 -2.95 -6.8 -4.5 -7.4 -4.55 -7.8 -4.15 -10.05 -3.55 -11.6 Q-10.55 -14.45 -13.8 -16.35 L-12.75 -17.1 -11.3 -17.95 -1.65 -14.2 -0.55 -15.1 -0.15 -15.35 M-19.05 28.9 L-10.95 29.0 Q-12.4 30.85 -14.0 33.85 L-16.05 38.0 -16.45 36.3 -17.8 30.65 -19.05 28.9 M0.85 13.35 L1.0 13.9 0.1 16.2 -1.1 19.3 -0.5 20.1 Q0.85 21.95 2.35 22.65 L4.45 23.05 7.5 29.85 7.9 30.85 6.75 31.55 5.45 32.35 -0.65 28.05 Q0.15 25.3 0.25 24.3 L0.1 24.05 -1.7 20.8 -1.75 20.65 Q-3.4 16.5 -4.9 10.65 L-6.15 5.15 -5.95 4.1 -5.6 2.75 -2.55 5.35 -0.45 7.35 0.85 13.35 M-0.55 -12.15 L-1.25 -12.35 Q-1.7 -12.35 -2.05 -11.9 -2.45 -11.65 -2.45 -11.15 -2.45 -10.45 -1.55 -10.45 -0.95 -10.45 -0.45 -10.95 L-0.05 -11.65 Q-0.05 -11.9 -0.55 -12.15 M-18.55 65.85 L-18.55 65.5 -18.45 64.75 -19.35 64.15 -19.55 64.0 Q-19.25 61.75 -19.25 59.2 -19.95 52.95 -20.7 49.85 L-17.6 50.8 Q-16.25 47.95 -14.8 43.8 -9.65 53.15 -1.5 61.3 L0.15 62.9 -3.1 64.45 Q-8.15 66.45 -13.15 66.45 L-17.25 66.05 -18.55 65.85" fill="#fede17" fill-rule="evenodd" stroke="none"/>
      <path d="M12.4 6.65 L12.3 6.65 Q10.55 6.65 9.65 7.95 8.85 9.1 8.85 11.05 8.85 12.4 9.25 14.0 L5.9 12.8 4.2 12.2 1.5 9.35 2.2 12.55 2.85 14.5 Q2.35 15.4 1.75 17.3 L1.05 19.65 Q2.35 20.95 4.8 20.95 L5.7 20.85 10.0 30.7 10.15 32.35 10.3 33.6 12.75 34.9 15.15 31.3 16.4 29.6 20.4 30.6 21.55 31.55 23.8 33.15 26.1 36.6 Q28.95 41.9 28.95 48.3 28.95 61.25 17.85 66.0 L16.55 66.5 16.2 66.6 Q9.75 68.4 7.4 68.7 L7.0 68.75 2.5 65.1 -1.45 66.4 Q-4.8 67.5 -8.2 68.0 L-7.15 69.2 -7.0 69.3 -17.9 68.2 -18.15 67.6 -18.0 66.95 -15.45 67.15 -11.55 67.35 -8.45 67.25 Q-2.8 66.75 1.7 64.4 4.1 63.1 6.15 61.35 10.95 57.15 12.0 52.3 9.35 50.0 7.7 47.8 3.3 41.85 3.95 34.15 L6.65 33.3 8.05 32.35 8.4 32.05 8.95 31.3 8.75 30.35 7.65 27.25 5.75 23.4 5.7 23.25 4.8 21.85 3.8 21.7 3.6 21.7 Q2.65 21.45 1.85 21.0 L0.9 20.25 0.0 18.9 0.15 18.65 1.55 15.95 2.1 14.8 1.55 12.65 1.2 10.95 0.85 8.65 Q0.35 4.95 0.35 1.6 0.35 0.1 0.6 -1.15 0.9 -3.05 1.75 -4.35 L2.25 -5.0 2.55 -5.35 Q3.4 -6.15 4.45 -6.15 L5.85 -5.85 Q8.25 -4.75 10.4 0.25 L11.8 4.2 12.4 6.65 M4.9 -5.65 Q4.0 -5.65 3.05 -5.1 L2.7 -4.85 4.35 -4.35 5.6 -5.55 4.9 -5.65" fill="#c9c2b3" fill-rule="evenodd" stroke="none"/>
      <path d="M9.25 14.0 Q10.35 18.25 14.3 24.05 L14.55 24.35 17.65 27.85 16.4 29.6 15.15 31.3 12.75 34.9 10.3 33.6 10.15 32.35 10.0 30.7 5.7 20.85 4.8 20.95 Q2.35 20.95 1.05 19.65 L1.75 17.3 Q2.35 15.4 2.85 14.5 L2.2 12.55 1.5 9.35 4.2 12.2 5.9 12.8 9.25 14.0 M7.0 68.75 L-3.7 69.35 -7.0 69.3 -7.15 69.2 -8.2 68.0 Q-4.8 67.5 -1.45 66.4 L2.5 65.1 7.0 68.75 M4.9 -5.65 L5.6 -5.55 4.35 -4.35 2.7 -4.85 3.05 -5.1 Q4.0 -5.65 4.9 -5.65" fill="#fffdf5" fill-rule="evenodd" stroke="none"/>
      <path d="M35.15 1.95 Q36.15 5.3 36.15 8.9 36.15 12.5 35.1 16.3 L31.95 18.55 Q30.05 19.65 28.35 20.15 L28.3 20.15 28.35 19.9 28.35 19.85 Q28.35 18.4 27.65 16.4 26.95 14.3 25.8 13.2 22.75 13.1 20.65 11.0 18.3 8.65 18.3 4.75 18.3 2.05 19.75 -0.15 20.55 -0.65 21.55 -0.95 L26.15 -1.85 26.7 -1.95 Q31.05 -1.95 34.45 1.25 L35.15 1.95" fill="#d07200" fill-rule="evenodd" stroke="none"/>
      <path d="M-0.55 -12.15 Q-0.05 -11.9 -0.05 -11.65 L-0.45 -10.95 Q-0.95 -10.45 -1.55 -10.45 -2.45 -10.45 -2.45 -11.15 -2.45 -11.65 -2.05 -11.9 -1.7 -12.35 -1.25 -12.35 L-0.55 -12.15" fill="#fff8d0" fill-rule="evenodd" stroke="none"/>
      <path d="M-1.0 -22.3 L-1.35 -22.05 -2.35 -21.4 -3.1 -20.85 0.4 -15.8 -0.15 -15.35 -0.55 -15.1 -1.65 -14.2 -11.3 -17.95 -12.75 -17.1 -13.8 -16.35 -14.35 -15.95 -11.0 -13.0 -6.8 -9.4 -7.25 -8.4 -7.6 -7.25 Q-8.35 -4.35 -8.35 -0.05 L-8.35 0.85 Q-8.15 8.7 -5.1 16.15 L-1.45 24.8 Q-1.65 26.2 -2.25 27.1 -2.75 27.9 -3.55 28.25 -5.25 29.0 -6.9 29.0 L-8.75 29.0 -9.25 29.0 -10.95 29.0 -19.05 28.9 -25.15 28.55 -34.35 28.05 Q-35.45 27.55 -40.3 34.05 -45.25 40.55 -44.6 45.9 -44.0 51.25 -39.5 54.55 -35.0 57.85 -31.85 60.55 L-26.4 64.75 Q-24.05 66.25 -20.35 67.5 L-18.9 67.95 -17.9 68.2 -7.0 69.3 -3.7 69.35 7.0 68.75 7.4 68.7 Q9.75 68.4 16.2 66.6 L16.55 66.5 17.85 66.0 Q28.95 61.25 28.95 48.3 28.95 41.9 26.1 36.6 L23.8 33.15 21.55 31.55 20.4 30.6 17.65 27.85 14.55 24.35 14.3 24.05 Q10.35 18.25 9.25 14.0 8.85 12.4 8.85 11.05 8.85 9.1 9.65 7.95 10.55 6.65 12.3 6.65 L12.4 6.65 Q13.75 6.65 15.15 7.5 15.65 7.75 15.95 8.05 L18.1 14.25 18.4 14.15 19.75 13.85 Q23.25 13.85 25.25 15.55 26.85 16.9 26.85 18.6 26.85 19.3 26.45 20.2 L26.3 20.5 28.3 20.15 28.35 20.15 Q30.05 19.65 31.95 18.55 L35.1 16.3 Q36.15 12.5 36.15 8.9 36.15 5.3 35.15 1.95 33.25 -4.45 27.75 -10.05 19.45 -18.45 9.65 -18.45 L7.7 -18.35 7.55 -18.3 -0.3 -22.7 -1.0 -22.3 Z" fill="none" stroke="#cb5900" stroke-linecap="round" stroke-linejoin="round" stroke-width="1.0"/>
      <path d="M23.8 3.75 L24.3 4.55 23.75 5.05 23.4 5.85 Q23.25 6.4 23.25 7.1 23.25 9.9 25.5 9.9 L26.9 9.6 27.35 9.4 27.5 9.65 26.75 10.0 25.7 10.35 25.3 10.35 Q24.35 10.35 23.7 9.75 22.65 8.8 22.65 6.55 22.65 5.5 22.9 4.85 23.15 4.0 23.8 3.75" fill="#98ffd1" fill-rule="evenodd" stroke="none"/>
      <path d="M27.5 9.65 L28.65 11.65 26.6 12.25 25.7 12.3 Q23.45 12.3 21.85 10.9 20.0 9.3 20.0 6.65 20.0 4.1 21.2 2.65 21.7 2.05 22.35 1.7 L23.8 3.75 Q23.15 4.0 22.9 4.85 22.65 5.5 22.65 6.55 22.65 8.8 23.7 9.75 24.35 10.35 25.3 10.35 L25.7 10.35 26.75 10.0 27.5 9.65" fill="#2a404b" fill-rule="evenodd" stroke="none"/>
      <path d="M24.3 4.55 L27.35 9.4 26.9 9.6 25.5 9.9 Q23.25 9.9 23.25 7.1 23.25 6.4 23.4 5.85 L23.75 5.05 24.3 4.55" fill="#1ff698" fill-rule="evenodd" stroke="none"/>
      <path d="M17.2 -60.05 Q18.6 -52.75 22.7 -46.85 L21.35 -47.7 18.95 -49.5 Q17.45 -50.75 16.55 -52.05 L16.85 -56.75 17.2 -60.05 M23.45 -45.8 L23.8 -45.35 25.95 -42.85 21.7 -42.45 21.65 -42.45 18.25 -42.1 Q17.3 -45.2 16.8 -48.05 L19.0 -47.15 19.35 -47.0 23.45 -45.8 M27.65 -41.2 Q30.85 -38.35 34.85 -36.6 36.95 -31.75 38.95 -21.55 L30.95 -29.85 30.4 -30.4 29.15 -31.65 27.45 -23.55 27.1 -21.85 24.05 -27.7 Q21.55 -32.8 19.85 -37.35 L22.9 -38.8 23.2 -38.95 27.65 -41.2 M40.95 -9.1 L41.2 -6.6 40.05 -6.9 38.95 -6.6 Q37.8 -6.0 36.85 -4.05 L36.75 -3.85 Q36.0 -2.15 35.7 -0.1 34.75 -0.95 34.45 -2.75 L34.5 -2.9 34.55 -3.15 Q34.95 -4.55 35.5 -5.8 L35.75 -6.25 Q37.4 -9.45 39.6 -9.45 L39.8 -9.45 40.95 -9.1 M40.85 12.65 L40.4 15.45 40.4 15.55 40.35 15.65 39.6 19.35 37.7 20.05 37.0 20.3 32.75 21.25 32.8 21.1 36.2 18.7 36.2 18.65 Q37.95 17.1 39.25 15.15 L38.25 14.65 Q36.85 13.85 36.2 12.55 L36.25 12.35 36.7 11.55 37.5 11.05 Q38.6 12.75 40.05 12.75 L40.85 12.65 M-15.3 -10.1 Q-9.5 -7.05 -1.55 -4.75 4.05 -3.15 8.8 -2.35 L9.3 -4.55 Q10.15 -8.3 10.15 -10.6 10.15 -12.45 9.6 -15.9 L9.25 -17.85 8.95 -18.15 10.75 -16.9 14.4 -14.0 17.3 -11.45 13.75 -5.35 12.2 -2.5 21.25 -3.15 21.7 -2.4 Q16.85 -2.2 12.85 -0.45 11.4 0.2 10.4 0.95 9.25 1.8 8.7 2.8 4.2 1.1 -0.15 -0.95 -9.5 -5.35 -15.3 -10.1 M-11.6 -42.4 L-0.7 -37.55 Q8.15 -33.5 15.65 -29.55 L21.05 -23.4 21.1 -23.35 22.9 -21.35 13.75 -24.75 8.55 -28.85 -0.95 -35.85 Q-6.3 -39.45 -11.6 -42.4" fill="#fc7e32" fill-rule="evenodd" stroke="none"/>
      <path d="M16.45 -66.7 Q16.55 -63.25 17.2 -60.05 L16.85 -56.75 16.55 -52.05 Q17.45 -50.75 18.95 -49.5 L21.35 -47.7 22.7 -46.85 23.45 -45.8 19.35 -47.0 19.0 -47.15 16.8 -48.05 Q17.3 -45.2 18.25 -42.1 L21.65 -42.45 21.7 -42.45 25.95 -42.85 27.65 -41.2 23.2 -38.95 22.9 -38.8 19.85 -37.35 Q21.55 -32.8 24.05 -27.7 L27.1 -21.85 26.45 -18.7 25.65 -20.3 Q24.1 -23.35 22.6 -27.15 L19.7 -34.85 19.0 -36.95 17.35 -42.05 15.95 -46.9 15.8 -48.4 15.8 -48.55 Q15.45 -52.55 15.45 -53.65 L15.45 -53.85 Q15.45 -59.75 16.45 -66.7 M-14.8 -9.3 L-15.55 -10.25 -15.3 -10.1 Q-9.5 -5.35 -0.15 -0.95 4.2 1.1 8.7 2.8 9.25 1.8 10.4 0.95 11.4 0.2 12.85 -0.45 16.85 -2.2 21.7 -2.4 L21.25 -3.15 22.25 -3.25 22.65 -2.45 22.95 -2.45 23.45 -2.45 24.5 -0.5 23.5 -0.75 23.0 -0.85 19.75 -1.15 Q16.15 -1.15 12.95 0.95 11.35 2.05 10.4 3.4 L9.6 4.95 8.2 4.45 Q3.4 2.5 -2.95 -1.15 -10.3 -5.4 -14.8 -9.3 M-14.65 -43.05 L-15.7 -44.05 -11.6 -42.4 Q-6.3 -39.45 -0.95 -35.85 L8.55 -28.85 13.75 -24.75 22.9 -21.35 25.75 -18.05 21.75 -20.25 20.15 -21.1 15.45 -23.35 14.35 -23.8 Q13.7 -24.05 13.15 -24.25 L10.35 -26.3 4.4 -30.55 Q-7.3 -38.85 -14.65 -43.05" fill="#fff569" fill-rule="evenodd" stroke="none"/>
      <path d="M15.65 -29.55 L17.4 -28.65 13.0 -35.1 Q10.0 -40.1 8.25 -43.75 9.35 -48.75 11.4 -55.55 13.75 -63.35 16.5 -69.35 L16.4 -68.5 16.45 -66.7 Q15.45 -59.75 15.45 -53.85 L15.45 -53.65 Q15.45 -52.55 15.8 -48.55 L15.8 -48.4 15.95 -46.9 17.35 -42.05 19.0 -36.95 19.7 -34.85 22.6 -27.15 Q24.1 -23.35 25.65 -20.3 L26.45 -18.7 26.25 -17.75 25.75 -18.05 22.9 -21.35 21.1 -23.35 21.05 -23.4 15.65 -29.55 M39.6 19.35 L39.5 19.65 38.95 20.45 38.35 21.25 37.8 22.0 36.8 23.25 36.05 24.15 32.55 27.9 30.1 30.0 29.4 30.55 29.45 30.1 30.0 23.25 30.0 21.3 30.0 21.25 30.0 19.15 Q29.1 16.2 27.0 11.75 23.95 5.25 21.05 2.0 L18.55 1.7 Q16.4 1.7 14.9 2.8 12.4 4.6 12.4 9.1 12.4 11.05 12.85 13.4 L13.25 15.25 Q7.8 12.15 1.2 6.75 -8.0 -0.8 -14.8 -9.3 -10.3 -5.4 -2.95 -1.15 3.4 2.5 8.2 4.45 L9.6 4.95 10.4 3.4 Q11.35 2.05 12.95 0.95 16.15 -1.15 19.75 -1.15 L23.0 -0.85 23.5 -0.75 24.5 -0.5 33.2 16.0 33.25 19.25 33.25 19.6 33.25 20.2 33.6 19.9 35.85 18.0 36.5 17.4 38.0 16.15 38.1 16.05 38.7 15.55 37.2 14.6 36.95 14.35 36.1 13.15 35.5 12.05 Q33.8 8.35 33.8 3.1 33.8 0.95 34.1 -0.95 L34.2 -0.7 34.4 -0.1 34.55 0.35 Q34.95 1.25 35.55 1.95 L35.5 2.9 Q35.5 7.0 36.85 9.9 L37.5 11.05 36.7 11.55 36.25 12.35 36.2 12.55 Q36.85 13.85 38.25 14.65 L39.25 15.15 Q37.95 17.1 36.2 18.65 L36.2 18.7 32.8 21.1 32.75 21.25 37.0 20.3 37.7 20.05 39.6 19.35 M8.95 -18.15 L0.75 -27.2 Q-7.85 -36.5 -14.65 -43.05 -7.3 -38.85 4.4 -30.55 L10.35 -26.3 13.15 -24.25 12.95 -24.35 15.8 -17.3 16.65 -15.15 18.45 -10.8 18.25 -10.55 14.1 -4.1 15.5 -4.2 22.3 -4.6 23.0 -3.3 23.45 -2.45 22.95 -2.45 22.65 -2.45 22.25 -3.25 21.25 -3.15 12.2 -2.5 13.75 -5.35 17.3 -11.45 14.4 -14.0 10.75 -16.9 8.95 -18.15" fill="#cb4503" fill-rule="evenodd" stroke="none"/>
      <path d="M38.95 -21.55 L39.25 -19.95 39.35 -19.4 36.3 -22.85 Q32.85 -26.4 30.5 -28.0 L30.4 -27.55 27.7 -16.3 27.45 -16.4 15.75 -21.65 15.35 -21.8 15.65 -21.15 15.9 -20.7 15.95 -20.55 18.0 -16.4 20.65 -11.15 20.45 -10.8 17.85 -6.05 17.7 -5.8 18.4 -5.75 20.95 -5.65 22.85 -5.55 24.15 -3.35 24.7 -2.35 29.05 5.95 33.85 15.5 34.8 17.45 35.25 16.8 35.7 16.2 35.15 15.25 Q31.5 9.1 31.5 1.55 31.5 -2.35 32.65 -5.3 L32.7 -5.4 Q33.0 -6.3 33.45 -7.05 L34.1 -8.15 34.9 -9.2 Q36.9 -11.5 39.4 -11.5 L39.5 -11.5 40.7 -11.15 40.85 -10.15 40.95 -9.1 39.8 -9.45 39.6 -9.45 Q37.4 -9.45 35.75 -6.25 L35.5 -5.8 Q34.95 -4.55 34.55 -3.15 L34.5 -2.9 34.45 -2.75 34.1 -0.95 Q33.8 0.95 33.8 3.1 33.8 8.35 35.5 12.05 L36.1 13.15 36.95 14.35 37.2 14.6 38.7 15.55 38.1 16.05 38.0 16.15 36.5 17.4 35.85 18.0 33.6 19.9 33.25 20.2 33.25 19.6 33.25 19.25 33.2 16.0 24.5 -0.5 23.45 -2.45 23.0 -3.3 22.3 -4.6 15.5 -4.2 14.1 -4.1 18.25 -10.55 18.45 -10.8 16.65 -15.15 15.8 -17.3 12.95 -24.35 13.15 -24.25 Q13.7 -24.05 14.35 -23.8 L15.45 -23.35 20.15 -21.1 21.75 -20.25 25.75 -18.05 26.25 -17.75 26.45 -18.7 27.1 -21.85 27.45 -23.55 29.15 -31.65 30.4 -30.4 30.95 -29.85 38.95 -21.55" fill="#de7a00" fill-rule="evenodd" stroke="none"/>
      <path d="M39.35 -19.4 L40.7 -11.15 39.5 -11.5 38.85 -12.55 35.55 -15.75 34.0 -17.3 Q32.25 -19.2 31.7 -20.3 30.6 -22.7 30.4 -27.55 L30.5 -28.0 Q32.85 -26.4 36.3 -22.85 L39.35 -19.4 M33.45 -7.05 Q32.65 -7.8 31.35 -8.2 L24.85 -9.35 22.25 -10.0 19.65 -14.75 17.1 -20.1 27.55 -16.15 Q27.8 -15.35 28.3 -14.8 29.05 -13.95 31.0 -13.6 L32.1 -13.3 Q33.2 -13.0 33.7 -12.5 34.7 -11.5 34.9 -9.2 L34.1 -8.15 33.45 -7.05 M35.25 16.8 L30.45 6.95 Q25.4 -3.3 24.1 -6.1 L20.85 -6.6 20.8 -7.05 23.45 -7.65 24.75 -7.75 Q28.55 -7.75 31.65 -5.95 L32.65 -5.3 Q31.5 -2.35 31.5 1.55 31.5 9.1 35.15 15.25 L35.7 16.2 35.25 16.8" fill="#fedb1d" fill-rule="evenodd" stroke="none"/>
      <path d="M35.25 16.8 L34.8 17.45 33.85 15.5 29.05 5.95 24.7 -2.35 24.15 -3.35 22.85 -5.55 20.95 -5.65 18.4 -5.75 17.7 -5.8 17.85 -6.05 20.45 -10.8 20.65 -11.15 18.0 -16.4 15.95 -20.55 15.9 -20.7 15.65 -21.15 15.35 -21.8 15.75 -21.65 27.45 -16.4 27.7 -16.3 30.4 -27.55 Q30.6 -22.7 31.7 -20.3 32.25 -19.2 34.0 -17.3 L35.55 -15.75 38.85 -12.55 39.5 -11.5 39.4 -11.5 Q36.9 -11.5 34.9 -9.2 34.7 -11.5 33.7 -12.5 33.2 -13.0 32.1 -13.3 L31.0 -13.6 Q29.05 -13.95 28.3 -14.8 27.8 -15.35 27.55 -16.15 L17.1 -20.1 19.65 -14.75 22.25 -10.0 24.85 -9.35 31.35 -8.2 Q32.65 -7.8 33.45 -7.05 33.0 -6.3 32.7 -5.4 L32.65 -5.3 31.65 -5.95 Q28.55 -7.75 24.75 -7.75 L23.45 -7.65 20.8 -7.05 20.85 -6.6 24.1 -6.1 Q25.4 -3.3 30.45 6.95 L35.25 16.8" fill="#fffee2" fill-rule="evenodd" stroke="none"/>
      <path d="M41.2 -6.6 L41.7 -6.3 Q40.6 -6.1 39.6 -5.15 L39.35 -4.95 Q37.45 -3.1 37.35 0.55 L37.35 0.85 37.55 3.4 Q37.85 5.55 38.7 7.55 39.4 9.35 40.6 10.95 L40.65 11.05 42.95 8.6 44.4 6.25 Q44.05 8.25 43.3 9.9 42.55 11.5 41.6 12.25 L40.85 12.65 40.05 12.75 Q38.6 12.75 37.5 11.05 L36.85 9.9 Q35.5 7.0 35.5 2.9 L35.55 1.95 Q35.55 0.85 35.7 -0.1 36.0 -2.15 36.75 -3.85 L36.85 -4.05 Q37.8 -6.0 38.95 -6.6 L40.05 -6.9 41.2 -6.6" fill="#fdd9ff" fill-rule="evenodd" stroke="none"/>
      <path d="M34.1 -0.95 L34.45 -2.75 Q34.75 -0.95 35.7 -0.1 35.55 0.85 35.55 1.95 34.95 1.25 34.55 0.35 L34.4 -0.1 34.2 -0.7 34.1 -0.95" fill="#ffd9c2" fill-rule="evenodd" stroke="none"/>
      <path d="M38.7 7.55 Q37.85 5.55 37.55 3.4 L37.35 0.85 37.35 0.55 Q37.45 -3.1 39.35 -4.95 L39.6 -5.15 40.65 -4.15 Q40.35 -3.65 40.35 -2.7 40.35 -0.65 41.6 -0.65 L42.05 -0.7 42.1 -0.25 42.1 -0.2 42.05 -0.15 41.75 0.1 Q41.45 0.6 41.45 1.2 41.45 1.95 41.85 2.3 L42.35 2.5 42.35 3.0 Q42.35 4.75 41.85 5.95 41.1 7.75 39.35 7.75 L38.7 7.55" fill="#d4157e" fill-rule="evenodd" stroke="none"/>
      <path d="M42.35 2.5 L41.85 2.3 Q41.45 1.95 41.45 1.2 41.45 0.6 41.75 0.1 L42.05 -0.15 42.1 -0.2 42.1 -0.25 42.45 -0.4 42.5 -0.4 43.0 -0.05 Q43.45 0.4 43.45 1.05 43.25 2.5 42.35 2.5 M42.05 -0.7 L41.6 -0.65 Q40.35 -0.65 40.35 -2.7 40.35 -3.65 40.65 -4.15 L40.8 -4.35 Q41.0 -4.6 41.4 -4.65 L42.0 -4.1 Q42.75 -3.2 42.75 -2.0 42.75 -0.95 42.05 -0.7" fill="#dbffef" fill-rule="evenodd" stroke="none"/>
      <path d="M41.7 -6.3 Q42.6 -5.6 43.3 -4.05 44.65 -1.15 44.65 2.9 L44.4 6.25 42.95 8.6 40.65 11.05 40.6 10.95 Q39.4 9.35 38.7 7.55 L39.35 7.75 Q41.1 7.75 41.85 5.95 42.35 4.75 42.35 3.0 L42.35 2.5 Q43.25 2.5 43.45 1.05 43.45 0.4 43.0 -0.05 L42.5 -0.4 42.45 -0.4 42.1 -0.25 42.05 -0.7 Q42.75 -0.95 42.75 -2.0 42.75 -3.2 42.0 -4.1 L41.4 -4.65 Q41.0 -4.6 40.8 -4.35 L40.65 -4.15 39.6 -5.15 Q40.6 -6.1 41.7 -6.3" fill="#f61f4e" fill-rule="evenodd" stroke="none"/>
      <path d="M15.65 -29.55 L17.4 -28.65 13.0 -35.1 Q10.0 -40.1 8.25 -43.75 9.35 -48.75 11.4 -55.55 13.75 -63.35 16.5 -69.35 L16.4 -68.5 16.45 -66.7 Q16.55 -63.25 17.2 -60.05 18.6 -52.75 22.7 -46.85 L23.45 -45.8 23.8 -45.35 25.95 -42.85 27.65 -41.2 Q30.85 -38.35 34.85 -36.6 36.95 -31.75 38.95 -21.55 L39.25 -19.95 39.35 -19.4 40.7 -11.15 40.85 -10.15 40.95 -9.1 41.2 -6.6 41.7 -6.3 Q42.6 -5.6 43.3 -4.05 44.65 -1.15 44.65 2.9 L44.4 6.25 Q44.05 8.25 43.3 9.9 42.55 11.5 41.6 12.25 L40.85 12.65 40.4 15.45 40.4 15.55 40.35 15.65 39.6 19.35 39.5 19.65 38.95 20.45 38.35 21.25 37.8 22.0 36.8 23.25 36.05 24.15 32.55 27.9 30.1 30.0 29.4 30.55 29.45 30.1 30.0 23.25 30.0 21.3 30.0 21.25 30.0 19.15 Q29.1 16.2 27.0 11.75 23.95 5.25 21.05 2.0 L18.55 1.7 Q16.4 1.7 14.9 2.8 12.4 4.6 12.4 9.1 12.4 11.05 12.85 13.4 L13.25 15.25 Q7.8 12.15 1.2 6.75 -8.0 -0.8 -14.8 -9.3 L-15.55 -10.25 -15.3 -10.1 Q-9.5 -7.05 -1.55 -4.75 4.05 -3.15 8.8 -2.35 L9.3 -4.55 Q10.15 -8.3 10.15 -10.6 10.15 -12.45 9.6 -15.9 L9.25 -17.85 8.95 -18.15 0.75 -27.2 Q-7.85 -36.5 -14.65 -43.05 L-15.7 -44.05 -11.6 -42.4 -0.7 -37.55 Q8.15 -33.5 15.65 -29.55 Z" fill="none" stroke="#952809" stroke-linecap="round" stroke-linejoin="round" stroke-width="1.0"/>
    </g>
    <g id="shape4" transform="matrix(1.0, 0.0, 0.0, 1.0, -6.8, -7.35)">
      <path d="M15.3 7.35 L16.0 7.35 Q9.3 12.6 10.3 21.85 L9.25 21.0 9.1 20.85 Q6.8 18.55 6.8 15.3 6.8 12.1 9.15 9.75 L9.25 9.65 Q11.7 7.35 15.3 7.35" fill="#ffffff" fill-opacity="0.2" fill-rule="evenodd" stroke="none"/>
      <path d="M10.75 11.9 L9.55 13.25 8.9 12.85 8.9 12.5 Q9.2 10.9 10.65 9.8 11.25 9.3 11.6 9.4 12.0 9.5 11.85 10.2 L10.75 11.9 M9.6 15.35 L8.9 15.6 Q8.35 15.5 8.25 15.1 L8.3 14.7 Q8.4 13.9 9.2 14.0 10.05 14.1 9.9 14.85 L9.6 15.35" fill="#ffffff" fill-rule="evenodd" stroke="none"/>
    </g>
  </defs>
</svg>
