<?xml version="1.0" encoding="UTF-8" standalone="no"?>
<svg xmlns:ffdec="https://www.free-decompiler.com/flash" xmlns:xlink="http://www.w3.org/1999/xlink" ffdec:objectType="frame" height="30.05px" width="30.0px" xmlns="http://www.w3.org/2000/svg">
  <g transform="matrix(1.0, 0.0, 0.0, 1.0, 0.0, 0.0)">
    <use ffdec:characterId="1" height="30.0" transform="matrix(1.0, 0.0, 0.0, 1.0, 0.0, 0.0)" width="30.0" xlink:href="#shape0"/>
    <use ffdec:characterId="3" height="30.0" transform="matrix(1.0, 0.0, 0.0, 1.0, 0.0, 0.05)" width="30.0" xlink:href="#sprite0"/>
  </g>
  <defs>
    <g id="shape0" transform="matrix(1.0, 0.0, 0.0, 1.0, 0.0, 0.0)">
      <path d="M0.0 0.0 L30.0 0.0 30.0 30.0 0.0 30.0 0.0 0.0" fill="#33cc66" fill-opacity="0.0" fill-rule="evenodd" stroke="none"/>
    </g>
    <g id="sprite0" transform="matrix(1.0, 0.0, 0.0, 1.0, 0.0, 0.0)">
      <use ffdec:characterId="2" height="30.0" transform="matrix(1.0, 0.0, 0.0, 1.0, 0.0, 0.0)" width="30.0" xlink:href="#shape1"/>
    </g>
    <g id="shape1" transform="matrix(1.0, 0.0, 0.0, 1.0, 0.0, 0.0)">
      <path d="M22.1 21.9 L22.1 21.85 22.15 21.9 22.1 21.9" fill="url(#gradient0)" fill-rule="evenodd" stroke="none"/>
      <path d="M21.15 9.55 L20.2 8.8 Q17.95 7.25 15.2 7.25 11.65 7.25 9.15 9.55 L9.05 9.7 Q7.05 11.75 6.75 14.45 L6.7 15.35 6.75 16.3 Q7.05 19.0 9.0 21.0 L9.15 21.15 Q11.65 23.5 15.2 23.5 18.7 23.5 21.5 20.85 23.65 18.5 23.65 15.35 23.65 12.85 22.3 10.9 L21.15 9.55 M21.1 7.95 L21.15 8.0 26.0 4.3 22.95 9.75 Q24.5 11.75 24.8 14.2 L30.0 15.05 24.85 16.35 Q24.5 19.25 22.55 21.4 L26.0 25.8 21.15 22.7 Q18.95 24.45 16.1 24.7 L14.95 30.0 13.8 24.65 Q11.25 24.3 9.25 22.85 L4.5 25.8 7.45 21.1 6.75 20.1 Q5.55 18.2 5.45 15.9 L5.45 15.8 0.0 14.95 5.55 13.75 Q5.8 12.0 6.75 10.55 L8.2 8.75 8.3 8.65 4.6 4.3 9.9 7.45 Q11.65 6.3 13.8 6.1 L14.95 0.0 16.85 6.15 Q19.2 6.5 21.1 7.95 M22.1 21.9 L22.15 21.9 22.1 21.85 22.1 21.9" fill="#ffffef" fill-rule="evenodd" stroke="none"/>
      <path d="M21.1 7.95 Q19.2 6.5 16.85 6.15 L14.95 0.0 13.8 6.1 Q11.65 6.3 9.9 7.45 L4.6 4.3 8.3 8.65 8.2 8.75 6.75 10.55 Q5.8 12.0 5.55 13.75 L0.0 14.95 5.45 15.8 5.45 15.9 Q5.55 18.2 6.75 20.1 L7.45 21.1 4.5 25.8 9.25 22.85 Q11.25 24.3 13.8 24.65 L14.95 30.0 16.1 24.7 Q18.95 24.45 21.15 22.7 L26.0 25.8 22.55 21.4 Q24.5 19.25 24.85 16.35 L30.0 15.05 24.8 14.2 Q24.5 11.75 22.95 9.75 L26.0 4.3 21.15 8.0 21.1 7.95 M25.3 11.3 L30.0 15.05 25.25 19.15 26.05 25.85 26.05 25.9 19.0 25.4 14.95 30.0 11.05 25.4 4.5 25.8 4.5 25.65 5.05 19.3 0.0 14.95 5.1 11.05 4.6 4.3 10.95 5.15 14.95 0.0 19.15 5.15 26.0 4.3 25.3 11.3" fill="#dce4e3" fill-rule="evenodd" stroke="none"/>
      <path d="M21.15 9.55 L22.3 10.9 Q23.65 12.85 23.65 15.35 23.65 18.5 21.5 20.85 18.7 23.5 15.2 23.5 11.65 23.5 9.15 21.15 L9.0 21.0 Q7.05 19.0 6.75 16.3 L6.7 15.35 6.75 14.45 Q7.05 11.75 9.05 9.7 L9.15 9.55 Q11.65 7.25 15.2 7.25 17.95 7.25 20.2 8.8 L21.15 9.55" fill="#66867e" fill-rule="evenodd" stroke="none"/>
      <path d="M14.15 23.45 L16.15 23.45 15.4 23.5 14.95 23.5 14.15 23.45" fill="#f9f9f7" fill-rule="evenodd" stroke="none"/>
      <path d="M22.1 16.05 L21.7 14.9 21.1 14.1 20.3 13.25 19.65 12.2 18.6 11.1 17.6 10.3 17.4 10.2 16.05 9.65 15.9 9.6 14.65 9.3 13.35 9.15 12.85 9.1 12.4 9.15 12.2 9.15 11.55 9.25 11.55 9.2 12.0 9.05 12.2 9.0 13.5 8.75 13.7 8.75 14.25 9.05 14.65 9.15 15.1 9.3 15.2 9.3 15.6 9.3 15.7 9.35 15.75 9.35 15.95 9.3 16.15 9.3 16.2 9.3 16.55 9.25 16.75 9.2 16.8 9.25 17.9 9.75 Q18.9 10.25 19.6 10.95 21.05 12.2 21.7 14.05 L22.05 15.5 22.1 16.05" fill="#54ffe7" fill-rule="evenodd" stroke="none"/>
      <path d="M11.55 9.2 L11.55 9.25 12.2 9.15 12.4 9.15 12.85 9.1 12.7 9.2 12.3 9.4 12.25 9.4 11.75 9.6 11.35 9.95 11.3 10.1 10.85 10.4 10.8 10.5 10.55 10.7 10.35 10.7 10.2 10.8 9.95 11.05 9.6 11.35 9.35 11.8 9.3 11.95 8.35 13.15 8.2 13.35 8.15 13.55 8.0 13.9 7.9 13.95 7.75 13.95 7.25 14.15 Q7.4 13.2 7.95 12.25 8.55 11.1 9.5 10.3 L11.3 9.3 11.55 9.2" fill="#2cffed" fill-rule="evenodd" stroke="none"/>
      <path d="M12.85 9.1 L13.35 9.15 14.65 9.3 15.9 9.6 16.05 9.65 17.4 10.2 17.6 10.3 16.9 10.2 16.05 10.1 15.3 10.05 15.2 10.05 14.85 10.05 14.35 10.3 13.45 10.95 13.0 11.25 Q12.5 11.6 12.15 12.05 L11.85 12.35 10.95 13.45 10.8 13.4 10.5 13.4 10.1 13.45 9.65 13.5 9.25 13.55 9.05 13.6 9.35 13.1 9.65 12.55 10.05 12.05 10.45 11.65 11.0 11.2 11.25 11.05 11.0 10.85 10.85 10.8 10.55 10.7 10.8 10.5 10.85 10.4 11.3 10.1 11.25 10.25 11.4 10.5 11.45 10.5 11.45 10.55 11.85 10.75 12.35 10.75 12.6 10.7 12.9 10.6 13.25 10.3 13.3 10.0 13.15 9.7 12.75 9.45 12.5 9.4 12.35 9.4 12.3 9.4 12.7 9.2 12.85 9.1 M9.3 11.95 L9.05 12.4 8.85 12.95 8.65 13.65 8.6 13.7 8.2 13.85 8.0 13.9 8.15 13.55 8.2 13.35 8.35 13.15 9.3 11.95" fill="#27edff" fill-rule="evenodd" stroke="none"/>
      <path d="M19.9 17.05 L20.0 17.1 20.1 17.3 20.05 17.65 19.9 17.75 19.7 17.8 19.65 17.75 19.5 17.65 19.5 17.5 19.5 17.3 19.55 17.1 19.65 17.0 19.8 17.0 19.85 17.05 19.9 17.05 M12.3 9.4 L12.35 9.4 12.5 9.4 12.75 9.45 13.15 9.7 13.3 10.0 13.25 10.3 12.9 10.6 12.6 10.7 12.35 10.75 11.85 10.75 11.45 10.55 11.45 10.5 11.4 10.5 11.25 10.25 11.3 10.1 11.35 9.95 11.75 9.6 12.25 9.4 12.3 9.4 M10.55 10.7 L10.85 10.8 11.0 10.85 11.25 11.05 11.0 11.2 10.45 11.65 10.05 12.05 9.65 12.55 9.35 13.1 9.05 13.6 8.95 13.8 8.75 14.25 8.7 14.4 8.5 14.95 8.5 14.75 8.5 14.4 8.5 14.2 8.6 13.7 8.65 13.65 8.85 12.95 9.05 12.4 9.3 11.95 9.35 11.8 9.6 11.35 9.95 11.05 10.2 10.8 10.35 10.7 10.55 10.7 M14.05 16.1 L14.25 16.45 14.25 16.5 14.25 16.75 14.05 17.05 13.95 17.1 13.7 17.2 13.4 17.15 13.2 17.0 13.15 16.95 13.0 16.7 13.05 16.4 13.05 16.35 13.2 16.2 13.3 16.1 13.6 15.95 13.75 15.95 14.0 16.05 14.05 16.1" fill="#ffffff" fill-rule="evenodd" stroke="none"/>
      <path d="M14.95 11.4 L14.95 11.45 15.0 11.55 Q13.6 11.7 12.35 12.45 11.7 12.8 11.15 13.3 L11.05 13.45 10.95 13.45 11.85 12.35 12.15 12.05 Q12.5 11.6 13.0 11.25 L13.45 10.95 14.5 11.2 14.95 11.4 M17.6 10.3 L18.6 11.1 19.65 12.2 20.3 13.25 19.35 12.55 18.25 11.7 17.7 11.3 16.6 10.7 15.3 10.05 16.05 10.1 16.9 10.2 17.6 10.3" fill="#1bc9fb" fill-rule="evenodd" stroke="none"/>
      <path d="M16.45 10.95 L16.4 10.95 16.1 10.9 15.8 10.95 15.55 11.05 15.4 11.2 15.4 11.4 15.4 11.6 15.4 11.65 15.15 11.7 14.95 11.75 14.65 11.8 14.35 11.9 14.0 12.0 13.65 12.15 13.35 12.3 13.0 12.45 12.65 12.55 12.3 12.75 12.1 12.9 11.85 13.1 11.6 13.25 11.45 13.45 11.4 13.45 11.35 13.55 11.25 13.65 11.45 14.25 11.5 14.3 11.6 14.15 11.9 13.9 12.2 13.6 12.55 13.35 12.95 13.1 13.4 12.9 13.8 12.75 14.25 12.6 14.75 12.5 15.2 12.45 15.7 12.4 16.25 12.4 16.7 12.45 17.25 12.55 17.4 12.55 17.75 12.65 18.2 12.8 18.75 12.95 19.15 13.2 19.65 13.45 20.1 13.75 20.5 14.05 20.7 14.3 20.85 14.45 21.15 14.9 21.5 15.35 21.75 15.75 21.95 16.2 21.95 16.4 21.95 16.6 22.0 16.8 22.0 17.0 22.05 17.1 22.05 17.35 22.05 17.55 22.0 17.65 22.0 17.9 21.95 18.15 21.95 18.4 22.15 18.35 Q21.9 19.7 20.95 20.75 L19.8 21.6 19.65 21.7 18.45 22.25 17.7 22.45 17.45 22.45 16.7 22.4 16.05 22.35 15.6 22.35 15.35 22.3 14.75 22.1 14.1 21.9 13.55 21.65 13.2 21.5 12.95 21.4 12.4 21.1 11.95 20.9 11.45 20.65 11.3 20.45 10.85 20.0 Q10.1 19.0 9.85 17.9 L9.8 17.75 9.8 17.7 9.7 17.0 9.7 16.8 9.7 16.75 9.7 16.7 9.7 16.65 9.8 15.85 Q10.05 14.75 10.7 13.95 L10.85 13.65 11.05 13.45 11.15 13.3 Q11.7 12.8 12.35 12.45 13.6 11.7 15.0 11.55 L14.95 11.45 14.95 11.4 15.0 11.1 Q15.1 10.9 15.3 10.85 15.55 10.7 15.8 10.7 L16.3 10.75 16.4 10.8 16.65 10.95 16.6 10.95 16.45 10.95 M21.2 19.5 L21.25 19.4 21.7 18.45 21.85 17.8 21.85 17.65 21.85 17.4 21.8 16.85 Q21.65 15.85 20.85 15.0 L20.45 14.5 19.15 13.7 Q18.05 13.15 16.7 13.05 L15.4 13.1 15.05 13.15 Q14.05 13.35 13.2 13.9 L12.8 14.1 12.15 14.7 11.9 14.8 11.75 14.85 11.4 15.1 11.2 15.35 11.05 15.65 10.9 16.0 10.8 16.35 10.8 16.6 10.75 16.8 10.75 17.15 10.8 17.35 10.8 17.75 10.9 18.15 10.9 18.2 11.0 18.6 11.15 19.0 11.35 19.4 11.7 19.85 11.7 19.9 11.7 20.0 11.75 20.15 11.8 20.3 12.0 20.45 12.1 20.4 12.15 20.4 12.3 20.55 12.7 20.8 12.75 20.85 12.95 20.95 13.2 21.1 13.35 21.15 13.5 21.25 13.75 21.4 14.1 21.5 14.5 21.65 14.85 21.75 15.25 21.85 15.65 21.95 16.1 22.0 16.45 22.05 16.55 22.05 16.9 22.05 17.35 22.0 17.75 21.95 18.1 21.85 18.5 21.75 18.8 21.6 19.05 21.5 19.65 21.15 20.25 20.85 20.3 20.8 20.55 20.55 20.9 20.1 21.1 19.8 21.2 19.5" fill="#db841a" fill-rule="evenodd" stroke="none"/>
      <path d="M22.15 18.35 L21.95 18.4 21.95 18.15 22.0 17.9 22.0 17.65 22.05 17.55 22.05 17.35 22.05 17.1 22.0 17.0 22.0 16.8 21.95 16.6 21.95 16.4 21.95 16.2 21.75 15.75 21.5 15.35 21.15 14.9 20.85 14.45 20.7 14.3 20.5 14.05 20.1 13.75 19.65 13.45 19.15 13.2 18.75 12.95 18.2 12.8 17.75 12.65 17.4 12.55 17.25 12.55 16.7 12.45 16.25 12.4 15.7 12.4 15.2 12.45 14.75 12.5 14.25 12.6 13.8 12.75 13.4 12.9 12.95 13.1 12.55 13.35 12.2 13.6 11.9 13.9 11.6 14.15 11.5 14.3 11.45 14.25 11.25 13.65 11.35 13.55 11.4 13.45 11.45 13.45 11.6 13.25 11.85 13.1 12.1 12.9 12.3 12.75 12.65 12.55 13.0 12.45 13.35 12.3 13.65 12.15 14.0 12.0 14.35 11.9 14.65 11.8 14.95 11.75 15.15 11.7 15.4 11.65 15.4 11.6 15.4 11.4 15.4 11.2 15.55 11.05 15.8 10.95 16.1 10.9 16.4 10.95 16.45 10.95 16.65 11.15 16.85 11.35 16.9 11.45 16.85 11.45 16.7 11.55 16.65 11.65 16.65 11.75 16.8 11.9 17.15 12.0 17.2 11.95 17.2 12.0 17.25 12.1 17.35 12.15 17.75 12.25 18.05 12.35 18.5 12.5 18.9 12.65 19.3 12.85 19.7 13.15 20.15 13.45 20.55 13.8 20.9 14.1 21.3 14.5 21.65 14.85 21.7 14.9 22.1 16.05 22.3 17.3 22.2 18.25 22.15 18.35" fill="#fdc530" fill-rule="evenodd" stroke="none"/>
      <path d="M16.2 9.3 L16.15 9.3 15.95 9.3 15.75 9.35 15.7 9.35 15.7 9.25 15.75 9.05 15.75 9.0 15.95 9.0 16.05 9.0 16.1 9.0 16.15 9.15 16.2 9.3 M18.85 14.3 L19.35 14.6 19.9 14.95 20.4 15.35 20.75 15.7 21.0 16.05 21.0 16.1 21.1 16.2 21.35 16.6 21.15 16.8 21.1 16.8 21.05 16.65 20.8 16.3 20.55 16.15 19.95 16.1 Q19.6 16.15 19.35 16.35 L19.05 16.7 18.8 17.0 18.75 17.1 18.65 17.5 18.65 17.55 18.25 17.6 18.2 17.55 18.0 17.55 17.55 17.4 17.5 17.4 17.4 17.3 17.4 17.2 17.35 16.8 17.25 16.45 16.9 15.75 16.6 15.45 16.35 15.3 16.0 15.1 15.7 15.0 15.6 14.95 15.2 14.9 14.85 14.85 14.1 14.9 14.05 14.9 13.4 15.05 12.85 15.35 12.45 15.6 12.2 15.3 12.2 15.2 12.5 14.95 12.9 14.7 13.35 14.45 13.7 14.3 13.8 14.25 14.05 14.15 14.4 14.05 15.0 13.95 15.6 13.85 16.25 13.8 16.9 13.85 17.6 13.9 17.85 13.95 17.6 13.95 17.05 14.1 16.9 14.35 17.05 14.8 17.4 15.3 17.45 15.35 18.05 15.7 18.7 15.85 19.3 15.75 19.35 15.75 19.5 15.65 19.65 15.5 19.75 15.25 19.5 14.75 19.2 14.5 18.85 14.3 M18.5 14.15 L18.75 14.25 18.7 14.25 18.5 14.15 M20.45 19.8 L20.05 20.15 19.55 20.45 19.45 20.5 19.1 20.7 18.8 20.8 18.6 20.9 18.35 20.95 18.05 21.0 17.95 21.05 17.8 21.1 17.55 21.15 17.0 21.2 16.85 21.2 16.5 21.2 16.1 21.2 15.7 21.1 15.3 21.0 14.75 20.85 14.7 20.8 14.9 20.7 15.0 20.65 15.35 20.45 15.75 20.15 16.1 19.8 16.4 19.45 16.75 19.0 16.75 18.95 16.95 18.65 17.05 18.6 17.55 18.55 17.95 18.55 18.0 18.55 18.45 18.6 18.9 18.65 18.95 18.75 19.3 19.25 19.9 19.5 20.2 19.55 20.55 19.55 20.75 19.55 20.45 19.8 M16.4 8.15 L16.45 8.2 16.5 8.3 16.65 8.9 16.6 8.9 16.3 8.95 16.1 9.0 16.05 8.9 15.95 8.6 15.95 8.5 16.0 8.5 16.05 8.45 16.05 8.4 16.0 8.35 15.95 8.35 15.95 8.25 15.9 8.25 15.8 8.25 15.8 8.3 15.75 8.35 15.75 8.4 15.8 8.45 15.8 8.5 15.8 8.6 15.8 8.8 15.8 8.95 15.75 9.0 15.65 9.0 15.35 8.95 15.15 8.9 15.15 8.8 15.15 8.75 15.15 8.4 15.15 8.15 15.45 8.25 15.7 8.25 15.8 8.25 15.75 8.1 15.7 7.95 15.65 7.85 15.75 7.85 15.8 7.8 15.85 7.8 15.95 7.75 15.95 7.8 15.95 8.15 15.95 8.25 16.15 8.2 16.4 8.15" fill="#e4480b" fill-rule="evenodd" stroke="none"/>
      <path d="M16.75 9.2 L16.55 9.25 16.2 9.3 16.15 9.15 16.1 9.0 16.3 8.95 16.6 8.9 16.65 8.9 16.7 8.95 16.75 9.2 M15.7 9.35 L15.6 9.3 15.2 9.3 15.1 9.3 14.65 9.15 14.25 9.05 13.7 8.75 13.65 8.7 14.1 8.15 14.55 7.75 14.6 7.7 15.55 7.3 15.2 7.0 15.6 7.25 15.7 7.25 15.65 7.3 16.2 7.7 16.4 8.15 16.15 8.2 15.95 8.25 15.95 8.15 15.95 7.8 15.95 7.75 15.85 7.8 15.8 7.8 15.75 7.85 15.65 7.85 15.7 7.95 15.75 8.1 15.8 8.25 15.7 8.25 15.45 8.25 15.15 8.15 15.15 8.4 15.15 8.75 15.15 8.8 15.15 8.9 15.35 8.95 15.65 9.0 15.75 9.0 15.75 9.05 15.7 9.25 15.7 9.35 M15.6 7.25 L15.55 7.3 15.6 7.25 15.65 7.3 15.6 7.25" fill="#aa2106" fill-rule="evenodd" stroke="none"/>
      <path d="M15.75 9.0 L15.8 8.95 15.8 8.8 15.8 8.6 15.8 8.5 15.8 8.45 15.85 8.45 15.9 8.5 15.95 8.5 15.95 8.6 16.05 8.9 16.1 9.0 16.05 9.0 15.95 9.0 15.75 9.0 M15.8 8.3 L15.8 8.25 15.9 8.25 15.95 8.25 15.95 8.35 15.9 8.3 15.8 8.3" fill="#ff5e10" fill-rule="evenodd" stroke="none"/>
      <path d="M15.8 8.45 L15.75 8.4 15.75 8.35 15.8 8.3 15.9 8.3 15.95 8.35 16.0 8.35 16.05 8.4 16.05 8.45 16.0 8.5 15.95 8.5 15.9 8.5 15.85 8.45 15.8 8.45" fill="#ffad10" fill-rule="evenodd" stroke="none"/>
      <path d="M16.65 10.95 L16.4 10.8 16.3 10.75 15.8 10.7 Q15.55 10.7 15.3 10.85 15.1 10.9 15.0 11.1 L14.95 11.4 14.5 11.2 13.45 10.95 14.35 10.3 14.85 10.05 15.2 10.05 15.3 10.05 16.6 10.7 17.7 11.3 18.25 11.7 19.35 12.55 Q18.6 12.1 17.65 11.8 L17.55 11.65 17.05 11.15 16.75 11.0 16.7 11.0 16.65 10.95" fill="#1be8fb" fill-rule="evenodd" stroke="none"/>
      <path d="M16.45 10.95 L16.6 10.95 16.65 10.95 16.7 11.0 16.75 11.0 17.05 11.15 17.55 11.65 17.65 11.8 Q18.6 12.1 19.35 12.55 L20.3 13.25 21.1 14.1 21.7 14.9 21.65 14.85 21.3 14.5 20.9 14.1 20.55 13.8 20.15 13.45 19.7 13.15 19.3 12.85 18.9 12.65 18.5 12.5 18.05 12.35 17.75 12.25 17.35 12.15 17.25 12.1 17.2 12.0 17.2 11.95 17.3 11.9 17.35 11.8 17.3 11.65 17.1 11.5 17.05 11.45 16.9 11.45 16.85 11.35 16.65 11.15 16.45 10.95" fill="#ffdb35" fill-rule="evenodd" stroke="none"/>
      <path d="M17.2 11.95 L17.15 12.0 16.8 11.9 16.65 11.75 16.65 11.65 16.7 11.55 16.85 11.45 16.9 11.45 17.05 11.45 17.1 11.5 17.3 11.65 17.35 11.8 17.3 11.9 17.2 11.95" fill="#fff57e" fill-rule="evenodd" stroke="none"/>
      <path d="M17.85 13.95 L18.2 14.05 18.5 14.15 18.7 14.25 18.75 14.25 18.8 14.3 18.85 14.3 19.2 14.5 19.5 14.75 19.75 15.25 19.65 15.5 19.5 15.65 19.35 15.75 19.3 15.75 18.7 15.85 18.05 15.7 17.45 15.35 17.4 15.3 17.05 14.8 16.9 14.35 17.05 14.1 17.6 13.95 17.85 13.95 M18.55 14.55 L18.55 14.6 18.55 14.7 18.7 14.9 18.95 15.0 19.0 15.05 19.15 15.0 19.2 14.9 19.2 14.8 19.1 14.65 19.0 14.55 18.9 14.55 18.7 14.5 18.6 14.5 18.55 14.55" fill="#ff6012" fill-rule="evenodd" stroke="none"/>
      <path d="M12.15 14.7 L12.8 14.1 13.2 13.9 Q14.05 13.35 15.05 13.15 L15.4 13.1 16.7 13.05 Q18.05 13.15 19.15 13.7 L20.45 14.5 20.85 15.0 Q21.65 15.85 21.8 16.85 L21.85 17.4 21.85 17.65 21.85 17.8 21.7 18.45 21.25 19.4 21.2 19.5 20.1 20.55 19.35 21.0 Q18.1 21.65 16.5 21.6 L16.25 21.6 14.15 21.15 13.6 20.95 13.3 20.75 12.5 20.15 12.4 20.1 11.7 19.25 11.25 18.3 Q11.05 17.85 11.1 17.25 L11.1 17.05 Q11.15 15.95 11.85 15.05 L12.15 14.7 M17.85 13.95 L17.6 13.9 16.9 13.85 16.25 13.8 15.6 13.85 15.0 13.95 14.4 14.05 14.05 14.15 13.8 14.25 13.7 14.3 13.35 14.45 12.9 14.7 12.5 14.95 12.2 15.2 12.2 15.3 12.45 15.6 12.85 15.35 13.4 15.05 14.05 14.9 14.1 14.9 14.85 14.85 15.2 14.9 15.6 14.95 15.7 15.0 16.0 15.1 16.35 15.3 16.6 15.45 16.9 15.75 17.25 16.45 17.35 16.8 17.4 17.2 17.4 17.3 17.5 17.4 17.55 17.4 18.0 17.55 18.2 17.55 18.25 17.6 18.65 17.55 18.65 17.5 18.75 17.1 18.8 17.0 19.05 16.7 19.35 16.35 Q19.6 16.15 19.95 16.1 L20.55 16.15 20.8 16.3 21.05 16.65 21.1 16.8 21.15 16.8 21.35 16.6 21.1 16.2 21.0 16.1 21.0 16.05 20.75 15.7 20.4 15.35 19.9 14.95 19.35 14.6 18.85 14.3 18.8 14.3 18.75 14.25 18.5 14.15 18.2 14.05 17.85 13.95 M21.15 17.85 L21.15 17.55 20.85 16.85 Q20.55 16.5 20.1 16.5 19.65 16.5 19.35 16.85 L19.15 17.45 19.1 17.6 19.1 17.85 19.2 18.55 19.3 18.75 19.35 18.75 Q19.65 19.2 20.1 19.2 L20.85 18.75 21.0 18.45 21.15 17.85 M20.45 19.8 L20.75 19.55 20.55 19.55 20.2 19.55 19.9 19.5 19.3 19.25 18.95 18.75 18.9 18.65 18.45 18.6 18.0 18.55 17.95 18.55 17.55 18.55 17.05 18.6 16.95 18.65 16.75 18.95 16.75 19.0 16.4 19.45 16.1 19.8 15.75 20.15 15.35 20.45 15.0 20.65 14.9 20.7 14.7 20.8 14.75 20.85 15.3 21.0 15.7 21.1 16.1 21.2 16.5 21.2 16.85 21.2 17.0 21.2 17.55 21.15 17.8 21.1 17.95 21.05 18.05 21.0 18.35 20.95 18.6 20.9 18.8 20.8 19.1 20.7 19.45 20.5 19.55 20.45 20.05 20.15 20.45 19.8 M16.9 17.6 L16.85 17.1 Q16.75 16.45 16.25 15.9 15.55 15.25 14.6 15.25 13.6 15.25 12.9 15.9 L12.75 16.05 12.75 16.1 Q12.2 16.75 12.2 17.6 12.2 18.55 12.9 19.25 13.6 19.95 14.6 19.95 15.55 19.95 16.25 19.25 L16.6 18.8 16.8 18.25 16.9 17.6" fill="#bb2b03" fill-rule="evenodd" stroke="none"/>
      <path d="M21.15 17.85 L21.0 18.45 20.85 18.75 20.1 19.2 Q19.65 19.2 19.35 18.75 L19.3 18.75 19.2 18.55 19.1 17.85 19.1 17.6 19.15 17.45 19.35 16.85 Q19.65 16.5 20.1 16.5 20.55 16.5 20.85 16.85 L21.15 17.55 21.15 17.85 M19.65 17.75 L19.65 18.0 19.75 18.3 19.95 18.5 20.0 18.55 20.15 18.55 20.25 18.5 20.4 18.45 20.55 18.2 20.6 17.85 20.6 17.6 20.6 17.4 20.5 17.05 20.3 16.95 20.1 16.95 20.0 17.0 19.9 17.05 19.85 17.05 19.8 17.0 19.65 17.0 19.55 17.1 19.5 17.3 19.5 17.5 19.5 17.65 19.65 17.75 M13.2 17.0 L13.15 17.05 Q13.05 17.35 13.1 17.65 L13.25 18.3 13.6 18.85 14.1 19.25 14.7 19.35 15.25 19.2 15.7 18.8 16.0 18.2 16.0 18.1 16.05 17.5 16.0 17.1 15.9 16.85 15.65 16.45 15.15 16.05 14.8 15.95 14.4 16.0 14.05 16.1 14.0 16.05 13.75 15.95 13.6 15.95 13.3 16.1 13.2 16.2 13.05 16.35 13.05 16.4 13.0 16.7 13.15 16.95 13.2 17.0 M16.9 17.6 L16.8 18.25 16.6 18.8 16.25 19.25 Q15.55 19.95 14.6 19.95 13.6 19.95 12.9 19.25 12.2 18.55 12.2 17.6 12.2 16.75 12.75 16.1 L12.75 16.05 12.9 15.9 Q13.6 15.25 14.6 15.25 15.55 15.25 16.25 15.9 16.75 16.45 16.85 17.1 L16.9 17.6" fill="#e7e4c3" fill-rule="evenodd" stroke="none"/>
      <path d="M19.9 17.05 L20.0 17.0 20.1 16.95 20.3 16.95 20.5 17.05 20.6 17.4 20.6 17.6 20.6 17.85 20.55 18.2 20.4 18.45 20.25 18.5 20.15 18.55 20.0 18.55 19.95 18.5 19.75 18.3 19.65 18.0 19.65 17.75 19.7 17.8 19.9 17.75 20.05 17.65 20.1 17.3 20.0 17.1 19.9 17.05 M14.05 16.1 L14.4 16.0 14.8 15.95 15.15 16.05 15.65 16.45 15.9 16.85 16.0 17.1 16.05 17.5 16.0 18.1 16.0 18.2 15.7 18.8 15.25 19.2 14.7 19.35 14.1 19.25 13.6 18.85 13.25 18.3 13.1 17.65 Q13.05 17.35 13.15 17.05 L13.2 17.0 13.4 17.15 13.7 17.2 13.95 17.1 14.05 17.05 14.25 16.75 14.25 16.5 14.25 16.45 14.05 16.1" fill="#1f1142" fill-rule="evenodd" stroke="none"/>
      <path d="M21.2 19.5 L21.1 19.8 20.9 20.1 20.55 20.55 20.3 20.8 20.25 20.85 19.65 21.15 19.05 21.5 18.8 21.6 18.5 21.75 18.1 21.85 17.75 21.95 17.35 22.0 16.9 22.05 16.55 22.05 16.45 22.05 16.1 22.0 15.65 21.95 15.25 21.85 14.85 21.75 14.5 21.65 14.1 21.5 13.75 21.4 13.5 21.25 13.35 21.15 13.2 21.1 12.95 20.95 12.75 20.85 12.7 20.8 12.3 20.55 12.15 20.4 12.15 20.35 12.15 20.25 12.05 20.1 12.05 20.05 11.95 19.9 11.85 19.85 11.75 19.85 11.7 19.9 11.7 19.85 11.35 19.4 11.15 19.0 11.0 18.6 10.9 18.2 10.9 18.15 10.8 17.75 10.8 17.35 10.75 17.15 10.75 16.8 10.8 16.6 10.8 16.35 10.9 16.0 11.05 15.65 11.2 15.35 11.4 15.1 11.75 14.85 11.9 14.8 12.15 14.7 11.85 15.05 Q11.15 15.95 11.1 17.05 L11.1 17.25 Q11.05 17.85 11.25 18.3 L11.7 19.25 12.4 20.1 12.5 20.15 13.3 20.75 13.6 20.95 14.15 21.15 16.25 21.6 16.5 21.6 Q18.1 21.65 19.35 21.0 L20.1 20.55 21.2 19.5" fill="#faad19" fill-rule="evenodd" stroke="none"/>
      <path d="M18.55 14.55 L18.6 14.5 18.7 14.5 18.9 14.55 19.0 14.55 19.1 14.65 19.2 14.8 19.2 14.9 19.15 15.0 19.0 15.05 18.95 15.0 18.7 14.9 18.55 14.7 18.55 14.6 18.55 14.55" fill="#ffa158" fill-rule="evenodd" stroke="none"/>
      <path d="M11.05 13.45 L10.85 13.65 10.8 13.65 10.9 13.5 10.95 13.45 11.05 13.45 M9.7 17.0 L9.8 17.7 9.8 17.75 9.85 17.9 9.75 17.85 9.7 17.0" fill="#109ae7" fill-rule="evenodd" stroke="none"/>
      <path d="M9.7 16.7 L9.7 16.75 9.7 16.8 9.7 17.0 9.75 17.85 9.45 17.75 8.5 17.3 8.2 17.15 7.8 16.85 7.75 16.8 7.75 16.35 7.75 15.4 7.85 14.65 8.0 14.0 8.0 13.9 8.2 13.85 8.6 13.7 8.5 14.2 8.5 14.4 8.25 14.55 8.1 14.75 8.0 15.05 8.05 15.25 8.05 15.3 8.1 15.4 8.2 15.65 8.25 15.7 8.55 15.95 9.05 16.35 9.3 16.5 9.7 16.7 M9.05 13.6 L9.25 13.55 9.65 13.5 10.1 13.45 10.5 13.4 10.8 13.4 10.95 13.45 10.9 13.5 10.8 13.65 10.25 13.75 9.75 13.9 9.3 14.0 8.85 14.15 8.75 14.25 8.95 13.8 9.05 13.6" fill="#14b5fc" fill-rule="evenodd" stroke="none"/>
      <path d="M10.85 13.65 L10.7 13.95 10.8 13.65 10.85 13.65" fill="#0d5fb5" fill-rule="evenodd" stroke="none"/>
      <path d="M10.7 13.95 Q10.05 14.75 9.8 15.85 L9.7 16.65 9.7 16.7 9.3 16.5 9.05 16.35 8.55 15.95 8.25 15.7 8.2 15.65 8.1 15.4 8.05 15.3 8.05 15.25 8.0 15.05 8.1 14.75 8.25 14.55 8.5 14.4 8.5 14.75 8.5 14.95 8.7 14.4 8.75 14.25 8.85 14.15 9.3 14.0 9.75 13.9 10.25 13.75 10.8 13.65 10.7 13.95" fill="#1297e2" fill-rule="evenodd" stroke="none"/>
      <path d="M7.25 14.15 L7.75 13.95 7.9 13.95 8.0 13.9 8.0 14.0 7.85 14.65 7.75 15.4 7.75 16.35 7.75 16.8 7.25 16.45 7.15 15.55 Q7.1 14.95 7.2 14.35 L7.25 14.15" fill="#17ebff" fill-rule="evenodd" stroke="none"/>
      <path d="M7.75 16.8 L7.8 16.85 8.2 17.15 8.5 17.3 9.45 17.75 9.75 17.85 9.8 18.15 10.25 19.25 10.95 20.35 11.25 20.7 11.4 20.85 11.7 21.1 11.9 21.3 12.2 21.6 12.75 21.95 13.0 22.15 13.85 22.55 13.0 22.6 11.95 22.25 11.9 22.2 11.4 21.95 9.8 20.9 Q8.7 19.95 8.0 18.65 L7.95 18.2 7.8 17.25 7.75 16.8" fill="#158de9" fill-rule="evenodd" stroke="none"/>
      <path d="M9.85 17.9 Q10.1 19.0 10.85 20.0 L11.3 20.45 11.25 20.65 11.25 20.7 10.95 20.35 10.25 19.25 9.8 18.15 9.75 17.85 9.85 17.9 M13.85 22.55 L13.0 22.15 12.75 21.95 12.9 21.8 13.0 21.75 15.0 22.4 14.0 22.55 13.85 22.55" fill="#127bcc" fill-rule="evenodd" stroke="none"/>
      <path d="M11.45 20.65 L11.95 20.9 12.4 21.1 12.95 21.4 13.2 21.5 13.55 21.65 14.1 21.9 14.75 22.1 15.35 22.3 15.6 22.35 16.05 22.35 16.7 22.4 17.45 22.45 17.7 22.45 15.0 22.4 13.0 21.75 Q12.15 21.3 11.45 20.65" fill="#b64f0f" fill-rule="evenodd" stroke="none"/>
      <path d="M12.15 20.4 L12.1 20.4 12.0 20.45 11.8 20.3 11.75 20.15 11.7 20.0 11.7 19.9 11.75 19.85 11.85 19.85 11.95 19.9 12.05 20.05 12.05 20.1 12.15 20.25 12.15 20.35 12.15 20.4" fill="#ffdc38" fill-rule="evenodd" stroke="none"/>
      <path d="M11.3 20.45 L11.45 20.65 Q12.15 21.3 13.0 21.75 L12.9 21.8 12.75 21.95 12.2 21.6 11.9 21.3 11.7 21.1 11.4 20.85 11.25 20.7 11.25 20.65 11.3 20.45" fill="#0b67af" fill-rule="evenodd" stroke="none"/>
      <path d="M17.7 22.45 L18.45 22.25 17.1 22.7 14.75 22.95 13.0 22.6 13.85 22.55 14.0 22.55 15.0 22.4 17.7 22.45" fill="#0fbaf3" fill-rule="evenodd" stroke="none"/>
      <path d="M7.75 16.8 L7.8 17.25 7.95 18.2 8.0 18.65 7.6 17.65 7.25 16.45 7.75 16.8" fill="#2cd6ff" fill-rule="evenodd" stroke="none"/>
      <path d="M16.65 10.95 L16.4 10.8 16.3 10.75 15.8 10.7 Q15.55 10.7 15.3 10.85 15.1 10.9 15.0 11.1 L14.95 11.4 14.95 11.45 15.0 11.55 Q13.6 11.7 12.35 12.45 11.7 12.8 11.15 13.3 L11.05 13.45 10.85 13.65 10.7 13.95 Q10.05 14.75 9.8 15.85 L9.7 16.65 9.7 16.7 M9.7 16.75 L9.7 16.8 9.7 17.0 9.8 17.7 9.8 17.75 9.85 17.9 Q10.1 19.0 10.85 20.0 L11.3 20.45 11.45 20.65 Q12.15 21.3 13.0 21.75 L15.0 22.4 17.7 22.45 18.45 22.25 19.65 21.7 19.8 21.6 20.95 20.75 Q21.9 19.7 22.15 18.35 L22.2 18.25 22.3 17.3 22.1 16.05 21.7 14.9 21.1 14.1 20.3 13.25 19.35 12.55 Q18.6 12.1 17.65 11.8 L17.55 11.65 17.05 11.15 16.75 11.0 16.7 11.0 16.65 10.95 M12.15 14.7 L12.8 14.1 13.2 13.9 Q14.05 13.35 15.05 13.15 L15.4 13.1 16.7 13.05 Q18.05 13.15 19.15 13.7 L20.45 14.5 20.85 15.0 Q21.65 15.85 21.8 16.85 L21.85 17.4 21.85 17.65 21.85 17.8 21.7 18.45 21.25 19.4 21.2 19.5 20.1 20.55 19.35 21.0 Q18.1 21.65 16.5 21.6 L16.25 21.6 14.15 21.15 13.6 20.95 13.3 20.75 12.5 20.15 12.4 20.1 11.7 19.25 11.25 18.3 Q11.05 17.85 11.1 17.25 L11.1 17.05 Q11.15 15.95 11.85 15.05 L12.15 14.7 M22.1 16.05 L22.05 15.5 21.7 14.05 Q21.05 12.2 19.6 10.95 18.9 10.25 17.9 9.75 L16.8 9.25 16.75 9.2 16.55 9.25 16.2 9.3 16.15 9.3 15.95 9.3 15.75 9.35 15.7 9.35 15.6 9.3 15.2 9.3 15.1 9.3 14.65 9.15 14.25 9.05 13.7 8.75 13.5 8.75 12.2 9.0 12.0 9.05 11.55 9.2 11.3 9.3 9.5 10.3 Q8.55 11.1 7.95 12.25 7.4 13.2 7.25 14.15 L7.2 14.35 Q7.1 14.95 7.15 15.55 L7.25 16.45 7.6 17.65 8.0 18.65 Q8.7 19.95 9.8 20.9 L11.4 21.95 11.9 22.2 11.95 22.25 13.0 22.6 14.75 22.95 17.1 22.7 18.45 22.25 M21.15 17.85 L21.0 18.45 20.85 18.75 20.1 19.2 Q19.65 19.2 19.35 18.75 L19.3 18.75 19.2 18.55 19.1 17.85 19.1 17.6 19.15 17.45 19.35 16.85 Q19.65 16.5 20.1 16.5 20.55 16.5 20.85 16.85 L21.15 17.55 21.15 17.85 M13.7 8.75 L13.65 8.7 14.1 8.15 14.55 7.75 14.6 7.7 15.55 7.3 15.6 7.25 15.65 7.3 16.2 7.7 16.4 8.15 16.45 8.2 16.5 8.3 16.65 8.9 16.7 8.95 16.75 9.2 M16.9 17.6 L16.8 18.25 16.6 18.8 16.25 19.25 Q15.55 19.95 14.6 19.95 13.6 19.95 12.9 19.25 12.2 18.55 12.2 17.6 12.2 16.75 12.75 16.1 L12.75 16.05 12.9 15.9 Q13.6 15.25 14.6 15.25 15.55 15.25 16.25 15.9 16.75 16.45 16.85 17.1 L16.9 17.6 Z" fill="none" stroke="#430c0c" stroke-linecap="round" stroke-linejoin="round" stroke-width="0.2"/>
      <path d="M9.05 20.8 Q6.75 18.5 6.75 15.25 6.75 12.05 9.1 9.7 L9.2 9.6 Q11.7 7.3 15.25 7.3 L15.95 7.3 Q9.25 12.55 10.25 21.8 L9.2 20.95 9.05 20.8" fill="#ffffff" fill-opacity="0.2" fill-rule="evenodd" stroke="none"/>
      <path d="M10.7 11.8 L9.5 13.15 Q8.95 13.05 8.85 12.75 L8.85 12.4 Q9.15 10.8 10.6 9.7 11.25 9.2 11.6 9.3 11.95 9.4 11.8 10.1 L10.7 11.8 M8.85 15.5 Q8.35 15.4 8.2 15.0 L8.25 14.6 Q8.35 13.8 9.15 13.9 10.05 14.0 9.9 14.75 L9.55 15.25 Q9.2 15.55 8.85 15.5" fill="#ffffff" fill-rule="evenodd" stroke="none"/>
    </g>
    <linearGradient gradientTransform="matrix(0.0068, 0.0, 0.0, 0.005, 20.5, 25.9)" gradientUnits="userSpaceOnUse" id="gradient0" spreadMethod="pad" x1="-819.2" x2="819.2">
      <stop offset="0.0" stop-color="#65298e"/>
      <stop offset="1.0" stop-color="#9a6cc5"/>
    </linearGradient>
  </defs>
</svg>
