<?xml version="1.0" encoding="UTF-8" standalone="no"?>
<svg xmlns:ffdec="https://www.free-decompiler.com/flash" xmlns:xlink="http://www.w3.org/1999/xlink" ffdec:objectType="frame" height="30.0px" width="30.0px" xmlns="http://www.w3.org/2000/svg">
  <g transform="matrix(1.0, 0.0, 0.0, 1.0, 0.0, 0.0)">
    <use ffdec:characterId="1" height="30.0" transform="matrix(1.0, 0.0, 0.0, 1.0, 0.0, 0.0)" width="30.0" xlink:href="#shape0"/>
    <use ffdec:characterId="3" height="30.0" transform="matrix(1.0, 0.0, 0.0, 1.0, 0.0, 0.0)" width="30.0" xlink:href="#sprite0"/>
  </g>
  <defs>
    <g id="shape0" transform="matrix(1.0, 0.0, 0.0, 1.0, 0.0, 0.0)">
      <path d="M0.0 0.0 L30.0 0.0 30.0 30.0 0.0 30.0 0.0 0.0" fill="#33cc66" fill-opacity="0.0" fill-rule="evenodd" stroke="none"/>
    </g>
    <g id="sprite0" transform="matrix(1.0, 0.0, 0.0, 1.0, 0.0, 0.0)">
      <use ffdec:characterId="2" height="30.0" transform="matrix(1.0, 0.0, 0.0, 1.0, 0.0, 0.0)" width="30.0" xlink:href="#shape1"/>
    </g>
    <g id="shape1" transform="matrix(1.0, 0.0, 0.0, 1.0, 0.0, 0.0)">
      <path d="M22.1 21.85 L22.15 21.9 22.1 21.9 22.1 21.85" fill="url(#gradient0)" fill-rule="evenodd" stroke="none"/>
      <path d="M21.15 9.55 L20.2 8.8 Q17.95 7.25 15.2 7.25 11.65 7.25 9.15 9.55 L9.05 9.7 Q7.05 11.75 6.75 14.45 L6.7 15.35 6.75 16.3 Q7.05 19.0 9.0 21.0 L9.15 21.15 Q11.65 23.5 15.2 23.5 18.7 23.5 21.5 20.85 23.65 18.5 23.65 15.35 23.65 12.85 22.3 10.9 L21.15 9.55 M21.1 7.95 L21.15 8.0 26.0 4.3 22.95 9.75 Q24.5 11.75 24.8 14.2 L30.0 15.05 24.85 16.35 Q24.5 19.25 22.55 21.4 L26.0 25.8 21.15 22.7 Q18.95 24.45 16.1 24.7 L14.95 30.0 13.8 24.65 Q11.25 24.3 9.25 22.85 L4.5 25.8 7.45 21.1 6.75 20.1 Q5.55 18.2 5.45 15.9 L5.45 15.8 0.0 14.95 5.55 13.75 Q5.8 12.0 6.75 10.55 L8.2 8.75 8.3 8.65 4.6 4.3 9.9 7.45 Q11.65 6.3 13.8 6.1 L14.95 0.0 16.85 6.15 Q19.2 6.5 21.1 7.95 M22.1 21.85 L22.1 21.9 22.15 21.9 22.1 21.85" fill="#bcf7fb" fill-rule="evenodd" stroke="none"/>
      <path d="M21.1 7.95 Q19.2 6.5 16.85 6.15 L14.95 0.0 13.8 6.1 Q11.65 6.3 9.9 7.45 L4.6 4.3 8.3 8.65 8.2 8.75 6.75 10.55 Q5.8 12.0 5.55 13.75 L0.0 14.95 5.45 15.8 5.45 15.9 Q5.55 18.2 6.75 20.1 L7.45 21.1 4.5 25.8 9.25 22.85 Q11.25 24.3 13.8 24.65 L14.95 30.0 16.1 24.7 Q18.95 24.45 21.15 22.7 L26.0 25.8 22.55 21.4 Q24.5 19.25 24.85 16.35 L30.0 15.05 24.8 14.2 Q24.5 11.75 22.95 9.75 L26.0 4.3 21.15 8.0 21.1 7.95 M25.3 11.3 L30.0 15.05 25.25 19.15 26.05 25.85 26.05 25.9 19.0 25.4 14.95 30.0 11.05 25.4 4.5 25.8 4.5 25.65 5.05 19.3 0.0 14.95 5.1 11.05 4.6 4.3 10.95 5.15 14.95 0.0 19.15 5.15 26.0 4.3 25.3 11.3" fill="#10a2d5" fill-rule="evenodd" stroke="none"/>
      <path d="M21.15 9.55 L22.3 10.9 Q23.65 12.85 23.65 15.35 23.65 18.5 21.5 20.85 18.7 23.5 15.2 23.5 11.65 23.5 9.15 21.15 L9.0 21.0 Q7.05 19.0 6.75 16.3 L6.7 15.35 6.75 14.45 Q7.05 11.75 9.05 9.7 L9.15 9.55 Q11.65 7.25 15.2 7.25 17.95 7.25 20.2 8.8 L21.15 9.55" fill="#075674" fill-rule="evenodd" stroke="none"/>
      <path d="M17.0 9.35 L17.05 9.75 17.05 9.85 16.3 9.9 Q14.65 10.1 13.35 10.95 12.35 11.7 11.8 12.7 L11.4 12.7 10.9 12.75 10.7 13.05 Q10.7 13.35 11.35 13.65 L11.45 13.7 11.4 13.85 11.2 15.3 11.35 16.65 10.75 17.05 10.6 17.2 10.5 17.35 10.3 17.2 9.2 16.55 9.0 16.35 8.6 16.05 7.85 15.2 7.75 15.0 7.9 14.7 Q9.0 12.1 10.8 10.9 L10.8 10.85 10.85 10.55 11.05 10.35 Q11.7 9.75 12.65 9.8 13.55 9.9 14.05 9.15 14.25 8.9 14.55 8.75 L14.7 8.65 14.9 8.55 15.3 8.5 16.15 8.95 16.4 9.05 17.0 9.35 M7.2 16.8 L7.2 16.75 7.25 16.8 7.2 16.8" fill="#2a659b" fill-rule="evenodd" stroke="none"/>
      <path d="M20.95 13.6 L20.6 13.0 20.45 12.7 Q19.65 11.7 17.9 10.4 L17.15 9.85 17.05 9.75 17.0 9.35 18.4 10.15 18.4 10.45 19.1 10.7 Q20.4 11.65 21.3 12.9 22.95 15.3 22.35 18.1 L21.9 19.85 21.45 20.0 21.9 17.6 22.05 17.45 22.1 17.05 22.05 16.85 21.9 16.65 21.6 15.05 21.8 14.45 21.5 13.8 20.95 13.6" fill="#d5fcff" fill-rule="evenodd" stroke="none"/>
      <path d="M17.9 10.4 Q19.65 11.7 20.45 12.7 L20.6 13.0 20.95 13.6 20.9 13.6 Q20.5 13.65 20.3 13.9 20.05 14.2 20.1 14.55 L20.4 15.15 21.05 15.35 21.6 15.05 21.9 16.65 21.7 16.45 21.15 16.0 20.75 15.9 Q20.5 15.9 20.45 16.1 L20.65 16.9 21.35 17.55 21.75 17.65 21.9 17.6 21.45 20.0 21.35 20.05 20.8 20.2 19.65 20.3 Q19.8 18.3 17.95 17.15 16.0 15.85 13.7 15.9 L13.3 15.95 13.15 14.75 13.15 14.5 Q13.15 13.25 13.55 12.35 13.6 12.75 14.0 13.0 L14.95 13.25 Q15.45 13.25 15.85 12.85 16.15 12.55 16.1 12.05 L15.7 11.3 Q15.3 11.0 14.75 11.05 L14.7 11.05 16.0 10.5 16.35 10.45 17.2 10.4 17.9 10.4 M17.05 9.75 L17.15 9.85 17.05 9.85 17.05 9.75 M16.6 11.2 L16.2 10.8 16.0 10.5 16.2 10.8 16.6 11.2 M18.75 12.15 Q18.55 11.95 18.35 11.9 L18.3 11.9 18.0 11.85 17.75 11.9 Q17.55 11.95 17.55 12.15 L17.7 12.55 18.0 12.85 Q18.5 13.4 19.15 13.4 L19.35 13.35 19.4 13.15 19.1 12.5 18.75 12.15 M16.6 13.95 L16.4 14.15 16.4 14.4 16.65 15.0 17.05 15.25 17.35 15.3 17.75 15.2 18.1 15.1 18.15 15.15 18.3 15.45 18.5 15.7 19.0 15.9 19.3 15.8 19.55 15.5 19.45 15.3 19.25 15.15 19.1 15.3 18.85 15.4 18.65 15.2 18.6 14.95 18.5 14.8 18.4 14.75 18.15 14.65 17.95 14.75 17.55 14.85 17.1 14.8 Q16.8 14.65 16.8 14.3 L16.85 14.15 16.85 14.05 16.6 13.95 M20.0 13.1 L20.45 12.7 20.0 13.1" fill="#377faf" fill-rule="evenodd" stroke="none"/>
      <path d="M19.1 10.7 L18.4 10.45 18.4 10.15 19.1 10.7 M17.15 9.85 L17.9 10.4 17.2 10.4 16.35 10.45 16.0 10.5 14.7 11.05 Q14.2 11.1 13.85 11.45 13.5 11.8 13.55 12.25 L13.55 12.35 Q13.15 13.25 13.15 14.5 L13.15 14.75 13.3 15.95 Q12.4 16.0 11.7 16.4 L11.35 16.65 11.2 15.3 11.4 13.85 11.45 13.7 12.45 13.95 12.95 13.85 13.15 13.6 13.0 13.2 12.8 13.0 12.6 12.9 12.55 12.9 12.3 12.8 11.8 12.7 Q12.35 11.7 13.35 10.95 14.65 10.1 16.3 9.9 L17.05 9.85 17.15 9.85" fill="#2e73a3" fill-rule="evenodd" stroke="none"/>
      <path d="M18.75 12.15 L19.1 12.5 19.4 13.15 19.35 13.35 19.15 13.4 Q18.5 13.4 18.0 12.85 L17.7 12.55 17.55 12.15 Q17.55 11.95 17.75 11.9 L18.0 11.85 18.3 11.9 18.35 11.9 Q18.55 11.95 18.75 12.15 M18.55 12.2 L18.25 12.2 18.25 12.45 18.5 12.7 18.75 12.8 18.9 12.75 18.75 12.45 18.55 12.25 18.55 12.2" fill="#6aa7d0" fill-rule="evenodd" stroke="none"/>
      <path d="M18.55 12.2 L18.55 12.25 18.75 12.45 18.9 12.75 18.75 12.8 18.5 12.7 18.25 12.45 18.25 12.2 18.55 12.2 M19.55 15.5 L19.3 15.8 19.0 15.9 18.5 15.7 18.3 15.45 18.15 15.15 18.1 15.1 17.75 15.2 17.35 15.3 17.05 15.25 16.65 15.0 16.4 14.4 16.4 14.15 16.6 13.95 16.85 14.05 16.85 14.15 16.8 14.3 Q16.8 14.65 17.1 14.8 L17.55 14.85 17.95 14.75 18.15 14.65 18.4 14.75 18.5 14.8 18.6 14.95 18.65 15.2 18.85 15.4 19.1 15.3 19.25 15.15 19.45 15.3 19.55 15.5" fill="#a0cce9" fill-rule="evenodd" stroke="none"/>
      <path d="M20.95 13.6 L21.5 13.8 21.8 14.45 21.6 15.05 21.05 15.35 20.4 15.15 20.1 14.55 Q20.05 14.2 20.3 13.9 20.5 13.65 20.9 13.6 L20.95 13.6 M21.15 14.0 L21.0 13.95 20.8 14.1 20.9 14.25 21.05 14.35 21.25 14.25 21.25 14.15 21.15 14.0 M13.55 12.35 L13.55 12.25 Q13.5 11.8 13.85 11.45 14.2 11.1 14.7 11.05 L14.75 11.05 Q15.3 11.0 15.7 11.3 L16.1 12.05 Q16.15 12.55 15.85 12.85 15.45 13.25 14.95 13.25 L14.0 13.0 Q13.6 12.75 13.55 12.35 M15.3 11.6 Q15.0 11.6 15.05 11.9 15.1 12.3 15.4 12.25 L15.65 12.1 15.7 11.95 15.3 11.6" fill="#093355" fill-rule="evenodd" stroke="none"/>
      <path d="M22.05 16.85 L22.1 17.05 22.05 17.45 21.9 17.6 21.75 17.65 21.35 17.55 20.65 16.9 20.45 16.1 Q20.5 15.9 20.75 15.9 L21.15 16.0 21.7 16.45 21.9 16.65 21.8 16.6 21.7 16.65 21.65 16.7 Q21.5 17.1 21.7 17.2 L21.9 17.2 21.95 17.2 22.0 17.1 22.05 16.9 22.05 16.85 M11.45 13.7 L11.35 13.65 Q10.7 13.35 10.7 13.05 L10.9 12.75 11.4 12.7 11.8 12.7 12.3 12.8 12.55 12.9 12.4 12.9 12.35 13.0 12.35 13.1 Q12.4 13.5 12.65 13.5 L12.9 13.4 12.9 13.25 12.85 13.05 12.8 13.0 13.0 13.2 13.15 13.6 12.95 13.85 12.45 13.95 11.45 13.7" fill="#ffb0fe" fill-rule="evenodd" stroke="none"/>
      <path d="M21.15 14.0 L21.25 14.15 21.25 14.25 21.05 14.35 20.9 14.25 20.8 14.1 21.0 13.95 21.15 14.0 M15.3 11.6 L15.7 11.95 15.65 12.1 15.4 12.25 Q15.1 12.3 15.05 11.9 15.0 11.6 15.3 11.6" fill="#c6ffff" fill-rule="evenodd" stroke="none"/>
      <path d="M21.9 16.65 L22.05 16.85 22.05 16.9 22.0 17.1 21.95 17.2 21.9 17.2 21.7 17.2 Q21.5 17.1 21.65 16.7 L21.7 16.65 21.8 16.6 21.9 16.65 M12.8 13.0 L12.85 13.05 12.9 13.25 12.9 13.4 12.65 13.5 Q12.4 13.5 12.35 13.1 L12.35 13.0 12.4 12.9 12.55 12.9 12.6 12.9 12.8 13.0" fill="#fff5ff" fill-rule="evenodd" stroke="none"/>
      <path d="M13.0 7.5 L14.05 7.95 14.7 8.25 14.75 8.25 15.3 8.5 14.9 8.55 14.7 8.65 14.5 8.65 Q13.3 8.05 12.2 7.75 L13.0 7.5 M10.9 8.5 L10.95 8.3 Q11.45 8.0 11.95 7.85 L11.8 8.25 11.3 8.35 Q11.1 8.35 10.9 8.5" fill="#adfcf8" fill-rule="evenodd" stroke="none"/>
      <path d="M10.95 8.3 L10.9 8.5 10.9 8.75 10.9 8.85 10.85 10.55 10.2 10.95 10.05 10.95 9.7 10.9 9.65 10.8 10.05 10.35 10.05 10.25 10.1 9.95 10.3 8.7 10.35 8.7 10.35 8.55 10.45 8.6 10.55 8.6 10.55 8.55 10.95 8.3" fill="#cffdfd" fill-rule="evenodd" stroke="none"/>
      <path d="M12.2 7.75 Q13.3 8.05 14.5 8.65 L14.7 8.65 14.55 8.75 Q14.25 8.9 14.05 9.15 13.55 9.9 12.65 9.8 11.7 9.75 11.05 10.35 L10.85 10.55 10.9 8.85 10.9 8.75 10.9 8.5 Q11.1 8.35 11.3 8.35 L11.8 8.25 11.95 7.85 11.95 7.65 12.2 7.75" fill="#86dcd7" fill-rule="evenodd" stroke="none"/>
      <path d="M10.55 8.55 L10.55 8.6 10.45 8.6 10.35 8.55 10.45 8.45 10.55 8.55 M9.65 10.8 L9.7 10.9 10.05 10.95 10.2 10.95 9.7 11.3 8.75 12.5 8.0 13.8 7.65 14.6 7.6 14.5 7.5 14.2 7.45 13.9 7.45 13.85 7.75 13.3 8.15 12.6 8.2 12.55 8.8 11.75 8.9 11.55 9.65 10.8" fill="#96fdff" fill-rule="evenodd" stroke="none"/>
      <path d="M10.85 10.55 L10.8 10.85 10.8 10.9 Q9.0 12.1 7.9 14.7 L7.75 15.0 7.75 14.9 7.75 14.85 7.7 14.8 7.65 14.6 8.0 13.8 8.75 12.5 9.7 11.3 10.2 10.95 10.85 10.55" fill="#44a4f9" fill-rule="evenodd" stroke="none"/>
      <path d="M7.75 15.0 L7.85 15.2 8.6 16.05 9.0 16.35 9.2 16.55 10.3 17.2 10.5 17.35 10.9 17.6 11.3 17.9 11.5 18.0 11.65 18.1 12.45 18.5 12.4 18.6 11.8 18.45 11.55 18.35 11.4 18.3 10.55 18.05 10.5 18.0 10.05 17.85 9.35 17.6 9.0 17.5 8.45 17.25 7.9 17.05 7.25 16.8 7.2 16.75 7.2 16.8 7.05 17.0 7.05 17.05 6.9 17.25 6.75 16.3 6.7 15.55 6.7 15.15 6.75 14.45 Q6.9 12.85 7.75 11.45 L7.8 11.45 7.8 11.35 8.25 11.4 8.8 11.45 8.85 11.45 8.9 11.55 8.8 11.75 8.2 12.55 8.1 12.6 8.05 12.65 7.95 12.75 7.75 13.1 7.45 13.85 7.45 13.9 7.5 14.2 7.6 14.5 7.65 14.6 7.7 14.8 7.75 14.85 7.75 14.9 7.75 15.0" fill="#94c9f6" fill-rule="evenodd" stroke="none"/>
      <path d="M7.05 17.05 L7.05 17.0 7.2 16.8 7.25 16.8 7.9 17.05 8.45 17.25 9.0 17.5 9.35 17.6 10.05 17.85 10.5 18.0 10.55 18.05 11.4 18.3 11.55 18.35 11.8 18.45 12.4 18.6 12.2 18.95 11.5 19.95 11.5 20.0 11.25 20.45 11.15 20.65 9.75 19.35 9.45 19.05 9.05 18.75 8.4 18.15 8.05 17.9 7.05 17.05" fill="#f1feff" fill-rule="evenodd" stroke="none"/>
      <path d="M22.6 17.35 L22.7 17.35 23.15 17.8 23.25 17.95 22.5 19.6 22.35 19.5 22.3 19.5 22.6 17.35 M10.5 17.35 L10.6 17.2 10.75 17.05 11.35 16.65 11.7 16.4 Q12.4 16.0 13.3 15.95 L13.7 15.9 Q16.0 15.85 17.95 17.15 19.8 18.3 19.65 20.3 L18.4 20.25 18.3 20.25 18.2 20.2 16.3 19.95 15.65 19.8 14.2 19.3 13.55 19.0 12.6 18.55 12.75 18.3 Q13.25 17.45 14.25 17.35 L17.2 17.5 Q17.6 17.6 17.8 17.8 L17.85 17.75 Q17.55 17.3 16.05 16.8 L15.05 16.55 14.1 16.45 Q12.4 16.45 11.3 17.25 L10.95 17.5 10.9 17.6 10.5 17.35 M15.65 23.0 L15.55 23.0 15.55 22.95 15.65 23.0" fill="#ffffff" fill-rule="evenodd" stroke="none"/>
      <path d="M12.45 18.5 L11.65 18.1 11.5 18.0 11.3 17.9 10.9 17.6 10.95 17.5 11.3 17.25 Q12.4 16.45 14.1 16.45 L15.05 16.55 16.05 16.8 Q17.55 17.3 17.85 17.75 L17.8 17.8 Q17.6 17.6 17.2 17.5 L14.25 17.35 Q13.25 17.45 12.75 18.3 L12.6 18.55 12.45 18.5" fill="#e0dceb" fill-rule="evenodd" stroke="none"/>
      <path d="M21.45 20.0 L21.9 19.85 22.3 19.65 22.35 19.5 22.5 19.6 21.5 20.85 20.9 21.4 19.5 21.2 18.65 21.15 18.55 21.15 18.45 21.1 18.4 21.1 15.95 20.9 15.85 21.0 15.35 21.6 15.15 21.65 15.3 21.7 15.45 22.55 15.5 22.95 15.25 22.95 14.55 23.15 14.5 23.2 14.2 23.25 13.7 23.4 11.85 22.9 11.65 22.6 11.6 22.55 11.25 22.05 11.15 21.85 10.9 21.7 10.6 21.5 11.15 20.65 11.25 20.45 11.5 20.0 11.5 19.95 12.2 18.95 12.4 18.6 12.45 18.5 12.6 18.55 13.55 19.0 14.2 19.3 15.65 19.8 16.3 19.95 18.2 20.2 18.3 20.25 18.4 20.25 19.65 20.3 20.8 20.2 21.35 20.05 21.45 20.0" fill="#f3ffff" fill-rule="evenodd" stroke="none"/>
      <path d="M11.85 22.9 Q10.35 22.3 9.15 21.15 L9.0 21.0 7.85 19.55 8.6 20.05 8.65 20.05 9.2 20.45 9.35 20.6 10.6 21.5 10.9 21.7 11.15 21.85 11.25 22.05 11.6 22.55 11.65 22.6 11.85 22.9" fill="#80bdf3" fill-rule="evenodd" stroke="none"/>
      <path d="M6.9 17.25 L7.05 17.05 8.05 17.9 8.4 18.15 9.05 18.75 9.45 19.05 9.75 19.35 11.15 20.65 10.6 21.5 9.35 20.6 9.2 20.45 8.65 20.05 8.6 20.05 7.85 19.55 Q7.2 18.45 6.9 17.25 M17.2 23.3 L15.65 23.0 15.55 22.95 15.5 22.95 15.45 22.55 15.3 21.7 15.35 21.7 15.4 21.65 15.45 21.6 15.35 21.6 15.85 21.0 15.95 20.9 18.4 21.1 18.45 21.1 18.55 21.15 18.65 21.15 19.5 21.2 20.9 21.4 Q19.15 22.8 17.2 23.3" fill="#d2eaff" fill-rule="evenodd" stroke="none"/>
      <path d="M13.7 23.4 L14.2 23.25 14.5 23.2 14.55 23.15 15.25 22.95 15.5 22.95 15.55 22.95 15.55 23.0 15.65 23.0 17.2 23.3 15.2 23.5 13.7 23.4 M15.3 21.7 L15.15 21.65 15.35 21.6 15.45 21.6 15.4 21.65 15.35 21.7 15.3 21.7" fill="#d3ebff" fill-rule="evenodd" stroke="none"/>
      <path d="M21.9 19.85 L22.35 18.1 Q22.95 15.3 21.3 12.9 20.4 11.65 19.1 10.7 L18.4 10.15 17.0 9.35 16.4 9.05 16.15 8.95 15.3 8.5 14.75 8.25 14.7 8.25 14.05 7.95 13.0 7.5 M10.5 17.35 L10.6 17.2 10.75 17.05 11.35 16.65 11.7 16.4 Q12.4 16.0 13.3 15.95 L13.7 15.9 Q16.0 15.85 17.95 17.15 19.8 18.3 19.65 20.3 M10.3 8.7 L10.1 9.95 10.05 10.25 10.05 10.35 9.65 10.8 8.9 11.55 M8.2 12.55 L8.15 12.6 7.75 13.3 7.45 13.85 M19.55 15.5 L19.3 15.8 19.0 15.9 18.5 15.7 18.3 15.45 18.15 15.15 18.1 15.1 17.75 15.2 17.35 15.3 17.05 15.25 16.65 15.0 16.4 14.4 16.4 14.15 16.6 13.95" fill="none" stroke="#2b5b87" stroke-linecap="round" stroke-linejoin="round" stroke-width="0.2"/>
      <path d="M16.0 10.5 L16.2 10.8 16.6 11.2 M20.45 12.7 L20.0 13.1" fill="none" stroke="#001717" stroke-linecap="round" stroke-linejoin="round" stroke-width="0.2"/>
      <path d="M21.45 20.0 L21.9 19.85 22.3 19.65 M22.6 17.35 L22.3 19.5 M23.25 17.95 L23.15 17.8 22.7 17.35 M19.65 20.3 L20.8 20.2 21.35 20.05 21.45 20.0 M7.75 15.0 L7.85 15.2 8.6 16.05 9.0 16.35 9.2 16.55 10.3 17.2 10.5 17.35 10.9 17.6 11.3 17.9 11.5 18.0 11.65 18.1 12.45 18.5 12.6 18.55 13.55 19.0 14.2 19.3 15.65 19.8 16.3 19.95 18.2 20.2 18.3 20.25 18.4 20.25 19.65 20.3 M8.9 11.55 L8.85 11.45 8.8 11.45 8.25 11.4 7.8 11.35 M8.2 12.55 L8.8 11.75 8.9 11.55 M7.45 13.85 L7.75 13.1 7.95 12.75 8.05 12.65 8.1 12.6 8.2 12.55 M7.45 13.85 L7.45 13.9 7.5 14.2 7.6 14.5 7.65 14.6 7.7 14.8 7.75 14.85 7.75 14.9 7.75 15.0" fill="none" stroke="#20506b" stroke-linecap="round" stroke-linejoin="round" stroke-width="0.2"/>
      <path d="M15.25 7.3 L15.95 7.3 Q9.25 12.55 10.25 21.8 L9.2 20.95 9.05 20.8 Q6.75 18.5 6.75 15.25 6.75 12.05 9.1 9.7 L9.2 9.6 Q11.7 7.3 15.25 7.3" fill="#ffffff" fill-opacity="0.2" fill-rule="evenodd" stroke="none"/>
      <path d="M11.8 10.1 L10.7 11.8 9.5 13.15 Q8.95 13.05 8.85 12.75 L8.85 12.4 Q9.15 10.8 10.6 9.7 11.25 9.2 11.6 9.3 11.95 9.4 11.8 10.1 M8.25 14.6 Q8.35 13.8 9.15 13.9 10.05 14.0 9.9 14.75 L9.55 15.25 Q9.2 15.55 8.85 15.5 8.35 15.4 8.2 15.0 L8.25 14.6" fill="#ffffff" fill-rule="evenodd" stroke="none"/>
    </g>
    <linearGradient gradientTransform="matrix(0.0068, 0.0, 0.0, 0.005, 20.5, 25.9)" gradientUnits="userSpaceOnUse" id="gradient0" spreadMethod="pad" x1="-819.2" x2="819.2">
      <stop offset="0.0" stop-color="#65298e"/>
      <stop offset="1.0" stop-color="#9a6cc5"/>
    </linearGradient>
  </defs>
</svg>
