<?xml version="1.0" encoding="UTF-8" standalone="no"?>
<svg xmlns:ffdec="https://www.free-decompiler.com/flash" xmlns:xlink="http://www.w3.org/1999/xlink" ffdec:objectType="frame" height="30.05px" width="30.0px" xmlns="http://www.w3.org/2000/svg">
  <g transform="matrix(1.0, 0.0, 0.0, 1.0, 0.0, 0.0)">
    <use ffdec:characterId="1" height="30.0" transform="matrix(1.0, 0.0, 0.0, 1.0, 0.0, 0.0)" width="30.0" xlink:href="#shape0"/>
    <use ffdec:characterId="3" height="30.0" transform="matrix(1.0, 0.0, 0.0, 1.0, 0.0, 0.05)" width="30.0" xlink:href="#sprite0"/>
  </g>
  <defs>
    <g id="shape0" transform="matrix(1.0, 0.0, 0.0, 1.0, 0.0, 0.0)">
      <path d="M0.0 0.0 L30.0 0.0 30.0 30.0 0.0 30.0 0.0 0.0" fill="#33cc66" fill-opacity="0.0" fill-rule="evenodd" stroke="none"/>
    </g>
    <g id="sprite0" transform="matrix(1.0, 0.0, 0.0, 1.0, 0.0, 0.0)">
      <use ffdec:characterId="2" height="30.0" transform="matrix(1.0, 0.0, 0.0, 1.0, 0.0, 0.0)" width="30.0" xlink:href="#shape1"/>
    </g>
    <g id="shape1" transform="matrix(1.0, 0.0, 0.0, 1.0, 0.0, 0.0)">
      <path d="M26.0 4.35 L25.95 4.35 26.0 4.3 26.0 4.35" fill="url(#gradient0)" fill-rule="evenodd" stroke="none"/>
      <path d="M26.0 4.3 L25.95 4.35 25.95 4.3 26.0 4.3" fill="url(#gradient1)" fill-rule="evenodd" stroke="none"/>
      <path d="M29.85 14.95 L29.9 15.0 29.65 15.0 29.35 14.95 29.85 14.95" fill="url(#gradient2)" fill-rule="evenodd" stroke="none"/>
      <path d="M29.9 15.0 L29.95 15.05 30.0 15.05 29.95 15.1 29.95 15.05 29.65 15.0 29.9 15.0 M26.05 25.8 L26.05 25.85 26.0 25.8 26.05 25.8" fill="url(#gradient3)" fill-rule="evenodd" stroke="none"/>
      <path d="M22.15 21.9 L22.1 21.9 22.1 21.85 22.15 21.9" fill="url(#gradient4)" fill-rule="evenodd" stroke="none"/>
      <path d="M4.55 25.8 L4.5 25.8 4.5 25.65 4.8 25.35 4.55 25.75 4.55 25.8" fill="url(#gradient5)" fill-rule="evenodd" stroke="none"/>
      <path d="M25.95 4.35 L26.0 4.35 22.95 9.75 Q24.5 11.75 24.8 14.2 L29.35 14.95 29.65 15.0 29.95 15.05 29.95 15.1 24.8 16.35 Q24.5 19.25 22.55 21.4 L26.0 25.8 21.15 22.7 Q18.95 24.45 16.1 24.7 L14.95 30.0 13.8 24.65 Q11.3 24.3 9.25 22.85 L4.55 25.8 4.55 25.75 4.8 25.35 7.45 21.15 Q5.55 18.8 5.45 15.8 L0.0 14.95 5.55 13.8 Q5.95 10.95 8.2 8.75 L8.3 8.6 4.6 4.3 9.85 7.45 Q11.65 6.3 13.85 6.1 L14.95 0.0 16.85 6.15 Q19.2 6.5 21.1 7.95 L21.2 8.05 25.95 4.35 M22.15 21.9 L22.1 21.85 22.1 21.9 22.15 21.9 M23.65 15.35 Q23.65 12.0 21.15 9.55 18.6 7.25 15.2 7.25 11.65 7.25 9.15 9.55 L9.05 9.7 Q6.7 12.1 6.7 15.35 6.7 18.65 9.0 21.0 L9.15 21.15 Q11.65 23.5 15.2 23.5 18.7 23.5 21.5 20.85 23.65 18.5 23.65 15.35" fill="#ff99cc" fill-rule="evenodd" stroke="none"/>
      <path d="M23.65 15.35 Q23.65 18.5 21.5 20.85 18.7 23.5 15.2 23.5 11.65 23.5 9.15 21.15 L9.0 21.0 Q6.7 18.65 6.7 15.35 6.7 12.1 9.05 9.7 L9.15 9.55 Q11.65 7.25 15.2 7.25 18.6 7.25 21.15 9.55 23.65 12.0 23.65 15.35" fill="#540154" fill-rule="evenodd" stroke="none"/>
      <path d="M25.95 4.3 L25.95 4.35 21.2 8.05 21.1 7.95 Q19.2 6.5 16.85 6.15 L14.95 0.0 19.15 5.15 25.95 4.3 M29.35 14.95 L24.8 14.2 Q24.5 11.75 22.95 9.75 L26.0 4.35 25.3 11.3 29.85 14.95 29.35 14.95 M29.95 15.1 L25.25 19.1 26.05 25.8 26.0 25.8 26.05 25.85 26.05 25.9 19.0 25.4 14.95 30.0 11.05 25.4 4.55 25.8 9.25 22.85 Q11.3 24.3 13.8 24.65 L14.95 30.0 16.1 24.7 Q18.95 24.45 21.15 22.7 L26.0 25.8 22.55 21.4 Q24.5 19.25 24.8 16.35 L29.95 15.1 M4.5 25.65 L5.05 19.3 0.0 14.95 5.1 11.05 4.6 4.3 10.95 5.15 14.95 0.0 13.85 6.1 Q11.65 6.3 9.85 7.45 L4.6 4.3 8.3 8.6 8.2 8.75 Q5.95 10.95 5.55 13.8 L0.0 14.95 5.45 15.8 Q5.55 18.8 7.45 21.15 L4.8 25.35 4.5 25.65" fill="#b73dc5" fill-rule="evenodd" stroke="none"/>
      <path d="M21.8 17.05 L21.85 17.0 21.95 16.9 22.05 16.9 22.05 16.95 22.1 17.15 22.1 17.2 22.05 17.35 22.05 17.5 21.95 17.5 21.85 17.45 21.75 17.25 21.8 17.05 M14.05 17.15 L14.05 17.05 14.2 16.8 14.3 16.8 14.35 16.75 14.5 16.85 14.55 16.85 14.65 16.9 14.65 17.0 14.75 17.15 14.6 17.4 14.4 17.4 14.3 17.4 14.1 17.25 14.1 17.2 14.05 17.15" fill="#ffdcf4" fill-rule="evenodd" stroke="none"/>
      <path d="M17.55 7.75 L18.25 8.05 19.3 8.7 19.4 8.8 20.3 9.4 20.35 9.5 21.45 11.5 21.65 11.95 Q22.1 13.15 22.2 14.5 L22.2 15.05 22.1 15.1 21.85 14.9 21.45 14.15 21.35 13.95 21.3 13.8 21.05 12.55 20.9 11.9 20.55 11.0 20.55 10.95 19.2 9.15 18.85 8.8 17.55 7.75 M22.55 11.5 L22.7 11.6 22.85 11.9 23.35 13.05 23.0 12.8 23.0 12.75 Q22.5 12.3 22.5 11.8 L22.55 11.5 M16.5 13.75 L16.5 13.9 16.15 14.6 15.9 15.1 15.85 15.15 15.2 15.85 14.45 16.4 14.4 16.4 14.4 16.45 14.35 16.45 14.4 16.4 14.3 16.45 14.1 16.55 13.85 16.15 13.65 15.9 13.2 15.25 12.65 14.7 11.8 14.1 11.15 13.85 11.15 13.75 11.3 12.7 12.05 10.7 12.1 10.6 12.1 10.5 Q12.7 9.3 13.2 8.75 L13.5 8.55 13.95 8.45 14.3 8.45 Q14.95 8.45 15.55 8.9 16.3 9.4 16.6 10.6 L16.65 10.7 16.75 11.9 16.75 12.05 16.5 13.75 M14.1 11.55 L13.95 12.05 13.95 12.15 13.9 12.35 14.15 12.65 14.3 12.8 14.35 12.9 14.95 13.55 15.05 13.35 15.8 11.2 14.9 10.0 14.45 9.6 14.1 11.55 M13.9 13.3 L13.7 12.9 13.4 13.45 13.3 13.75 13.05 14.2 13.7 14.95 14.35 14.4 13.95 13.4 13.9 13.3 M14.4 16.4 L14.3 16.3 13.85 16.15 14.3 16.3 14.4 16.4" fill="#fd347a" fill-rule="evenodd" stroke="none"/>
      <path d="M17.55 7.75 L18.85 8.8 19.2 9.15 20.55 10.95 20.55 11.0 20.9 11.9 21.05 12.55 21.3 13.8 21.35 13.95 21.45 14.15 21.85 14.9 22.1 15.1 22.2 15.05 22.2 15.1 21.45 16.4 21.25 16.55 20.8 16.65 19.9 16.15 19.55 15.9 18.85 15.35 17.8 14.35 17.2 13.65 17.1 14.05 17.05 14.4 16.5 13.75 16.75 12.05 16.75 11.9 16.65 10.7 16.6 10.6 Q16.3 9.4 15.55 8.9 14.95 8.45 14.3 8.45 L13.95 8.45 13.5 8.55 13.2 8.75 Q12.7 9.3 12.1 10.5 L12.1 10.6 12.05 10.7 11.3 12.7 11.15 13.75 11.15 13.85 10.95 13.8 10.85 13.75 10.9 13.75 10.9 13.5 11.05 12.7 11.2 12.1 11.25 11.9 11.8 10.55 11.95 10.15 12.0 10.05 12.45 9.2 12.7 8.8 13.1 8.3 13.25 8.1 13.75 7.6 14.1 7.3 13.75 7.6 13.25 8.1 13.1 8.3 12.7 8.8 12.45 9.2 12.0 10.05 11.95 10.15 11.8 10.55 11.25 11.9 11.2 12.1 11.05 12.7 10.9 13.5 10.9 13.75 10.85 13.75 10.75 13.75 10.55 13.75 10.5 13.75 10.35 13.75 10.25 13.75 9.6 13.85 Q9.2 14.0 8.95 14.25 L8.95 13.6 9.0 13.05 9.1 12.7 8.0 13.5 7.0 14.15 6.9 14.15 6.8 14.25 Q6.9 13.15 7.4 12.15 L7.55 11.95 8.35 11.2 8.65 10.85 10.25 9.3 Q10.8 8.85 11.4 8.5 L12.6 8.05 13.05 7.65 13.25 7.45 13.3 7.45 14.1 7.3 14.2 7.2 15.6 7.2 16.0 7.3 16.7 7.5 17.55 7.75 M21.65 10.8 L22.5 11.45 22.55 11.5 22.5 11.8 Q22.5 12.3 23.0 12.75 L23.0 12.8 23.35 13.05 23.55 13.9 23.35 13.95 23.2 13.95 23.05 13.9 22.65 13.85 22.4 13.75 22.4 13.65 22.35 12.95 22.25 12.4 22.1 11.9 21.65 10.8 M21.25 16.55 L21.3 16.2 21.4 15.25 21.4 15.1 21.3 13.8 21.4 15.1 21.4 15.25 21.3 16.2 21.25 16.55 M9.5 10.95 L9.25 11.9 9.15 12.35 9.1 12.7 9.15 12.35 9.25 11.9 9.5 10.95" fill="#b83461" fill-rule="evenodd" stroke="none"/>
      <path d="M22.2 15.05 L22.2 14.5 Q22.1 13.15 21.65 11.95 L21.45 11.5 20.35 9.5 21.45 10.6 21.65 10.8 22.1 11.9 22.25 12.4 22.35 12.95 22.4 13.65 22.4 13.75 22.4 14.15 22.4 14.25 22.4 14.3 22.2 15.05 M14.1 11.55 L14.45 9.6 14.9 10.0 15.8 11.2 15.05 13.35 14.95 13.55 14.35 12.9 14.3 12.8 14.15 12.65 13.9 12.35 13.95 12.15 13.95 12.05 14.1 11.55 M13.9 13.3 L13.95 13.4 14.35 14.4 13.7 14.95 13.05 14.2 13.3 13.75 13.4 13.45 13.7 12.9 13.9 13.3" fill="#ff83b0" fill-rule="evenodd" stroke="none"/>
      <path d="M23.55 13.9 L23.6 13.9 23.6 14.5 23.55 14.55 23.35 14.7 23.25 14.55 23.2 14.5 22.95 14.4 Q22.7 14.4 22.5 14.55 L22.4 14.25 22.4 14.15 22.4 13.75 22.65 13.85 23.05 13.9 23.2 13.95 23.35 13.95 23.55 13.9 M22.85 15.7 L22.65 15.7 22.6 15.4 22.85 15.35 22.85 15.55 22.85 15.7 M6.75 14.65 L6.75 14.25 6.8 14.25 6.9 14.15 7.0 14.15 8.0 13.5 9.1 12.7 9.0 13.05 8.95 13.6 8.95 14.25 8.85 14.35 8.6 14.7 8.5 15.15 8.6 14.7 8.85 14.35 8.95 14.25 Q9.2 14.0 9.6 13.85 L10.25 13.75 10.35 13.75 10.5 13.75 10.55 13.75 10.45 13.85 10.45 13.9 Q10.05 14.35 10.05 15.1 10.05 16.1 10.5 16.8 L10.6 16.85 11.4 17.4 11.45 17.45 10.95 17.4 10.75 17.4 10.45 17.35 10.4 17.35 10.45 17.2 10.25 16.75 10.25 16.7 10.2 16.7 Q10.0 16.45 9.6 16.45 L9.45 16.5 Q9.3 16.5 9.2 16.6 L9.1 16.7 8.55 16.05 8.4 15.55 8.5 15.15 8.4 15.15 8.1 15.2 8.2 14.95 8.3 14.25 8.25 14.15 8.15 14.15 7.55 14.4 7.1 14.6 7.0 14.6 6.75 14.65 M9.55 15.15 L9.2 15.25 9.0 15.55 9.2 15.9 9.55 16.05 9.85 15.9 10.0 15.6 9.95 15.45 9.9 15.35 9.75 15.2 9.55 15.15" fill="#a1388e" fill-rule="evenodd" stroke="none"/>
      <path d="M12.35 22.95 L12.35 23.05 12.25 23.05 12.35 22.95 M21.25 16.55 L21.45 16.4 22.2 15.1 22.2 15.05 22.4 14.3 22.4 14.25 22.5 14.55 22.5 14.6 22.55 15.1 22.1 16.2 21.95 16.5 21.6 16.8 21.25 17.1 21.15 17.5 20.55 17.75 19.75 17.4 19.45 17.25 18.6 16.8 18.5 16.7 18.3 16.6 17.45 15.95 16.95 15.7 Q16.75 15.55 15.7 16.2 L15.1 16.65 14.5 16.45 14.45 16.4 15.2 15.85 15.85 15.15 15.9 15.1 16.15 14.6 16.5 13.9 16.5 13.75 17.05 14.4 17.4 14.7 18.85 15.8 19.4 16.15 19.55 16.25 Q20.3 16.65 20.8 16.65 L21.25 16.55 M14.5 16.45 L15.2 15.85 14.5 16.45" fill="#e5b84b" fill-rule="evenodd" stroke="none"/>
      <path d="M22.5 14.55 Q22.7 14.4 22.95 14.4 L23.2 14.5 23.25 14.55 23.35 14.7 23.35 14.75 23.2 15.15 23.1 15.25 22.85 15.35 22.6 15.4 22.55 15.1 22.5 14.6 22.5 14.55 M9.55 15.15 L9.75 15.2 9.9 15.35 9.95 15.45 10.0 15.6 9.85 15.9 9.55 16.05 9.2 15.9 9.0 15.55 9.2 15.25 9.55 15.15 M9.1 16.7 L9.2 16.6 Q9.3 16.5 9.45 16.5 L9.6 16.45 Q10.0 16.45 10.2 16.7 L10.25 16.7 10.25 16.75 10.45 17.2 10.4 17.35 10.25 17.3 10.1 17.25 9.1 16.7 M11.25 14.95 L11.5 14.95 11.55 15.0 11.75 15.2 11.75 15.25 11.75 15.4 Q11.75 15.9 11.3 15.9 L10.95 15.7 10.85 15.4 10.95 15.05 11.25 14.95 M11.95 17.4 L11.8 17.35 11.65 17.15 11.65 17.05 11.6 16.95 11.8 16.5 Q12.0 16.25 12.3 16.25 L12.85 16.45 Q13.15 16.65 13.1 17.1 L12.8 17.2 12.65 17.25 12.35 17.35 12.15 17.4 11.95 17.4" fill="#792b6b" fill-rule="evenodd" stroke="none"/>
      <path d="M23.6 14.5 L23.6 15.55 23.2 15.6 23.05 15.65 22.85 15.7 22.85 15.55 22.85 15.35 23.1 15.25 23.2 15.15 23.35 14.75 23.35 14.7 23.55 14.55 23.6 14.5 M6.85 15.15 L6.75 15.15 6.75 14.65 7.0 14.6 7.1 14.6 7.55 14.4 8.15 14.15 8.25 14.15 8.3 14.25 8.2 14.95 8.1 15.2 7.6 15.2 7.5 15.2 7.45 15.2 6.85 15.15 M10.85 13.75 L10.95 13.8 11.15 13.85 11.8 14.1 12.65 14.7 13.2 15.25 13.65 15.9 13.85 16.15 14.1 16.55 14.3 16.45 14.35 16.45 14.3 16.45 14.4 16.4 14.45 16.4 14.5 16.45 14.1 16.65 14.0 16.65 13.5 16.95 13.25 17.05 13.5 16.95 13.35 17.2 13.25 17.95 13.2 18.0 13.15 18.1 12.95 18.6 Q12.7 19.2 12.7 19.9 12.7 21.0 13.1 21.75 L13.35 22.15 12.45 20.95 Q11.85 19.95 11.85 18.95 L11.9 18.6 12.0 18.0 12.0 17.9 12.1 17.5 12.55 17.4 13.0 17.25 13.1 17.15 13.25 17.05 13.1 17.1 Q13.15 16.65 12.85 16.45 L12.3 16.25 Q12.0 16.25 11.8 16.5 L11.6 16.95 11.65 17.05 11.65 17.15 11.8 17.35 11.95 17.4 11.95 17.45 11.55 17.45 11.45 17.45 11.4 17.4 10.6 16.85 10.5 16.8 Q10.05 16.1 10.05 15.1 10.05 14.35 10.45 13.9 L10.45 13.85 10.55 13.75 10.75 13.75 10.85 13.75 M11.25 14.95 L10.95 15.05 10.85 15.4 10.95 15.7 11.3 15.9 Q11.75 15.9 11.75 15.4 L11.75 15.25 11.75 15.2 11.55 15.0 11.5 14.95 11.25 14.95 M14.35 16.45 L14.1 16.65 14.35 16.45 14.4 16.45 14.4 16.4 14.35 16.45" fill="#cd5eb9" fill-rule="evenodd" stroke="none"/>
      <path d="M22.65 15.7 L22.65 15.75 22.75 17.0 22.75 17.5 22.7 18.9 22.65 19.3 22.25 19.9 21.95 20.35 21.5 20.85 21.45 20.95 21.3 21.05 21.25 21.1 20.8 21.5 18.65 22.8 17.75 22.95 16.4 23.1 16.3 23.1 16.25 23.1 15.5 23.1 15.25 23.1 15.15 23.05 14.4 22.8 14.05 22.6 13.35 22.15 13.1 21.75 Q12.7 21.0 12.7 19.9 12.7 19.2 12.95 18.6 L13.15 18.1 13.2 18.0 13.25 17.95 13.5 17.6 13.6 18.2 13.95 18.7 14.4 18.9 15.15 18.9 15.75 18.45 16.0 17.75 15.8 17.05 15.1 16.65 15.7 16.2 Q16.75 15.55 16.95 15.7 L17.45 15.95 18.3 16.6 18.5 16.7 18.6 16.8 19.45 17.25 19.75 17.4 20.55 17.75 21.15 17.5 21.15 17.8 21.3 18.45 21.35 18.55 21.25 18.6 21.2 18.55 21.1 18.6 20.5 18.8 19.75 18.6 18.85 18.2 18.55 18.05 17.65 17.65 17.45 17.65 17.1 17.65 Q16.95 17.7 16.75 17.8 L16.5 18.0 16.3 18.15 16.1 18.5 16.1 18.55 16.05 18.6 15.95 18.7 15.9 19.0 15.9 19.4 15.9 19.6 15.9 19.75 Q15.25 19.35 14.6 19.45 13.9 19.55 13.55 20.2 13.25 20.75 13.5 21.3 L14.25 21.9 Q15.0 22.1 15.5 21.45 15.95 20.85 15.45 20.25 L14.85 19.9 14.4 20.25 14.3 20.65 14.55 20.85 14.9 20.9 15.0 20.6 14.9 20.9 14.55 20.85 14.3 20.65 14.4 20.25 14.85 19.9 15.45 20.25 Q15.95 20.85 15.5 21.45 15.0 22.1 14.25 21.9 L13.5 21.3 Q13.25 20.75 13.55 20.2 13.9 19.55 14.6 19.45 15.25 19.35 15.9 19.75 15.95 20.8 16.75 21.4 L15.95 22.65 15.75 22.85 15.95 22.65 16.75 21.4 16.95 21.5 17.65 21.75 17.75 21.75 18.0 21.8 18.5 21.8 19.05 21.75 19.95 21.6 20.65 21.25 20.7 21.2 21.05 20.95 21.25 20.8 21.35 20.75 21.45 20.6 21.5 20.6 21.7 20.2 21.9 19.6 21.95 19.3 21.9 19.1 21.85 18.95 21.95 18.9 22.15 18.7 22.35 18.25 22.4 17.6 22.25 16.95 21.95 16.55 21.95 16.5 22.05 16.45 22.1 16.2 22.05 16.45 21.95 16.5 22.1 16.2 22.55 15.1 22.6 15.4 22.65 15.7 M12.35 22.9 L12.35 22.95 12.25 23.05 11.55 22.75 11.75 22.65 12.0 22.35 12.35 22.9 M9.65 21.6 L9.3 21.3 9.6 21.2 9.85 21.15 9.65 21.6 M22.25 19.9 L21.95 19.6 21.9 19.6 21.95 19.6 22.25 19.9 M21.95 20.35 L21.75 20.2 21.7 20.2 21.75 20.2 21.95 20.35 M21.45 20.95 L21.5 20.6 21.45 20.95 M21.05 20.95 L21.1 21.0 21.25 21.1 21.1 21.0 21.05 20.95 M20.8 21.5 L20.75 21.4 20.7 21.2 20.75 21.4 20.8 21.5 M16.15 16.9 L16.15 17.25 16.05 17.15 15.8 17.05 16.05 17.15 16.15 17.25 16.15 16.9" fill="#ffde95" fill-rule="evenodd" stroke="none"/>
      <path d="M21.95 16.5 L21.95 16.55 22.25 16.95 22.4 17.6 22.35 18.25 22.15 18.7 21.95 18.9 21.85 18.95 21.55 18.9 21.35 18.55 21.3 18.45 21.15 17.8 21.15 17.5 21.25 17.1 21.6 16.8 21.95 16.5 M22.1 17.2 L22.1 17.15 22.05 16.95 22.05 16.9 21.95 16.9 21.85 17.0 21.8 17.05 21.7 17.1 21.6 17.15 21.5 17.25 21.5 17.3 21.45 17.35 21.4 17.45 21.4 17.55 21.4 17.85 21.55 18.3 21.8 18.45 21.85 18.45 22.05 18.35 22.1 18.15 22.2 17.85 22.2 17.65 22.1 17.3 22.1 17.2 M14.5 16.45 L15.1 16.65 15.8 17.05 16.0 17.75 15.75 18.45 15.15 18.9 14.4 18.9 13.95 18.7 13.6 18.2 13.5 17.6 13.5 17.5 Q13.5 17.1 13.75 16.85 L13.85 16.8 13.75 16.85 Q13.5 17.1 13.5 17.5 L13.5 17.6 13.25 17.95 13.35 17.2 13.5 16.95 14.0 16.65 14.1 16.65 14.5 16.45 M14.05 17.15 L14.0 17.2 14.0 17.25 13.85 17.6 13.9 17.8 14.05 18.15 14.3 18.35 14.65 18.45 14.75 18.45 Q14.95 18.45 15.15 18.25 L15.5 17.8 15.45 17.5 15.45 17.4 15.35 17.25 15.25 17.15 15.1 17.05 14.9 17.0 14.65 17.0 14.65 16.9 14.55 16.85 14.5 16.85 14.35 16.75 14.3 16.8 14.2 16.8 14.05 17.05 14.05 17.15 M13.85 16.8 L13.5 16.95 13.85 16.8 13.9 16.75 13.85 16.8 M13.9 16.75 L14.1 16.65 13.9 16.75" fill="#41122c" fill-rule="evenodd" stroke="none"/>
      <path d="M21.8 17.05 L21.75 17.25 21.85 17.45 21.95 17.5 22.05 17.5 22.05 17.35 22.1 17.2 22.1 17.3 22.2 17.65 22.2 17.85 22.1 18.15 22.05 18.35 21.85 18.45 21.8 18.45 21.55 18.3 21.4 17.85 21.4 17.55 21.4 17.45 21.45 17.35 21.5 17.3 21.5 17.25 21.6 17.15 21.7 17.1 21.8 17.05 M14.65 17.0 L14.9 17.0 15.1 17.05 15.25 17.15 15.35 17.25 15.45 17.4 15.45 17.5 15.5 17.8 15.15 18.25 Q14.95 18.45 14.75 18.45 L14.65 18.45 14.3 18.35 14.05 18.15 13.9 17.8 13.85 17.6 14.0 17.25 14.0 17.2 14.05 17.15 14.1 17.2 14.1 17.25 14.3 17.4 14.4 17.4 14.6 17.4 14.75 17.15 14.65 17.0" fill="#70244f" fill-rule="evenodd" stroke="none"/>
      <path d="M11.55 22.75 L9.65 21.6 9.85 21.15 9.9 21.15 10.25 21.2 10.85 21.4 11.05 21.5 11.65 21.9 12.0 22.35 11.75 22.65 11.55 22.75 M21.85 18.95 L21.9 19.1 21.95 19.3 21.9 19.6 21.75 19.6 Q21.5 19.7 21.35 19.9 L21.1 20.2 20.85 20.6 20.75 20.8 Q20.65 21.05 20.7 21.2 20.65 21.05 20.75 20.8 L20.85 20.6 21.1 20.2 21.35 19.9 Q21.5 19.7 21.75 19.6 L21.9 19.6 21.7 20.2 21.45 20.35 21.2 20.55 Q21.05 20.7 21.05 20.95 21.05 20.7 21.2 20.55 L21.45 20.35 21.7 20.2 21.5 20.6 21.45 20.6 21.35 20.75 21.25 20.8 21.05 20.95 20.7 21.2 20.65 21.25 19.95 21.6 19.05 21.75 18.5 21.8 18.0 21.8 17.75 21.75 17.65 21.75 16.95 21.5 16.75 21.4 Q16.85 20.6 16.2 20.05 L15.9 19.75 16.2 20.05 Q16.85 20.6 16.75 21.4 15.95 20.8 15.9 19.75 L15.9 19.6 15.9 19.4 15.9 19.0 15.95 18.7 16.05 18.6 16.1 18.55 16.1 18.5 16.3 18.15 16.5 18.0 16.75 17.8 Q16.95 17.7 17.1 17.65 L17.45 17.65 17.65 17.65 18.55 18.05 18.85 18.2 19.75 18.6 20.5 18.8 21.1 18.6 21.2 18.55 21.25 18.6 21.35 18.55 21.55 18.9 21.85 18.95 M17.75 18.0 L17.75 18.05 17.8 18.15 17.75 18.0" fill="#fffbcd" fill-rule="evenodd" stroke="none"/>
      <path d="M7.4 12.15 Q7.95 10.8 9.05 9.7 L9.15 9.55 Q10.95 7.9 13.3 7.45 L13.25 7.45 13.05 7.65 12.6 8.05 11.4 8.5 Q10.8 8.85 10.25 9.3 L8.65 10.85 8.35 11.2 7.55 11.95 7.4 12.15 M20.8 16.65 Q20.3 16.65 19.55 16.25 L19.4 16.15 18.85 15.8 17.4 14.7 17.05 14.4 17.1 14.05 17.2 13.65 17.8 14.35 18.85 15.35 19.55 15.9 19.9 16.15 20.8 16.65" fill="#e43472" fill-rule="evenodd" stroke="none"/>
      <path d="M9.3 21.3 L9.15 21.15 9.0 21.0 8.65 20.6 8.65 20.5 8.7 20.4 9.05 20.35 9.2 20.35 9.25 20.35 10.1 20.5 10.25 20.6 10.35 20.9 10.35 21.0 10.25 21.2 9.9 21.15 9.85 21.15 9.6 21.2 9.3 21.3" fill="#f65832" fill-rule="evenodd" stroke="none"/>
      <path d="M8.65 20.6 L8.55 20.5 8.7 20.4 8.65 20.5 8.65 20.6 M10.25 21.2 L10.35 21.0 10.35 20.9 10.25 20.6 10.1 20.5 10.35 20.65 10.6 20.9 10.85 21.4 10.25 21.2" fill="#cf4120" fill-rule="evenodd" stroke="none"/>
      <path d="M15.15 23.05 L14.4 23.05 14.35 23.05 14.05 23.05 12.2 21.5 Q11.35 20.5 11.25 19.3 L11.2 18.6 Q11.25 18.05 11.5 17.95 L11.65 17.95 11.8 17.95 12.0 17.9 12.0 18.0 11.9 18.6 11.85 18.95 Q11.85 19.95 12.45 20.95 L13.35 22.15 14.05 22.6 14.4 22.8 15.15 23.05 M6.85 16.85 L6.75 16.3 6.75 15.9 7.0 16.05 6.85 16.85" fill="#ff7d36" fill-rule="evenodd" stroke="none"/>
      <path d="M14.05 23.05 L12.35 22.9 12.0 22.35 11.65 21.9 11.05 21.5 10.85 21.4 10.6 20.9 10.35 20.65 10.1 20.5 9.25 20.35 9.2 20.35 9.05 20.35 8.7 20.4 8.55 20.5 Q7.15 18.85 6.85 16.85 L7.0 16.05 6.75 15.9 6.75 15.3 6.85 15.15 7.45 15.2 7.5 15.2 7.6 15.2 8.1 15.2 8.4 15.15 8.5 15.15 8.4 15.55 8.55 16.05 9.1 16.7 10.1 17.25 10.25 17.3 10.4 17.35 10.45 17.35 10.75 17.4 10.95 17.4 11.45 17.45 11.9 17.5 12.1 17.5 12.0 17.9 11.8 17.95 11.65 17.95 11.5 17.95 Q11.25 18.05 11.2 18.6 L11.25 19.3 Q11.35 20.5 12.2 21.5 L14.05 23.05" fill="#f85833" fill-rule="evenodd" stroke="none"/>
      <path d="M22.1 16.2 L22.05 16.45 21.95 16.5 21.6 16.8 21.25 17.1 21.15 17.5 21.15 17.8 21.3 18.45 21.35 18.55 21.55 18.9 21.85 18.95 21.95 18.9 22.15 18.7 22.35 18.25 22.4 17.6 22.25 16.95 21.95 16.55 M14.5 16.45 L15.1 16.65 15.8 17.05 16.05 17.15 16.15 17.25 16.15 16.9 M13.5 17.6 L13.6 18.2 13.95 18.7 14.4 18.9 15.15 18.9 15.75 18.45 16.0 17.75 15.8 17.05 M14.35 16.45 L14.3 16.45 14.1 16.55 M13.85 16.8 L13.75 16.85 Q13.5 17.1 13.5 17.5 L13.5 17.6 M14.45 16.4 L14.5 16.45 M13.9 16.75 L13.85 16.8 M14.4 16.45 L14.35 16.45 M14.4 16.4 L14.3 16.45 M13.85 16.15 L14.3 16.3 14.4 16.4 14.45 16.4" fill="none" stroke="#300a1f" stroke-linecap="round" stroke-linejoin="round" stroke-width="0.2"/>
      <path d="M20.35 9.5 L20.3 9.4 19.4 8.8 19.3 8.7 18.25 8.05 17.55 7.75 18.85 8.8 19.2 9.15 20.55 10.95 20.55 11.0 20.9 11.9 21.05 12.55 21.3 13.8 21.4 15.1 21.4 15.25 21.3 16.2 21.25 16.55 21.45 16.4 22.2 15.1 22.2 15.05 22.4 14.3 22.4 14.25 22.4 14.15 22.4 13.75 22.65 13.85 23.05 13.9 23.2 13.95 23.35 13.95 23.55 13.9 M20.35 9.5 L21.45 10.6 21.65 10.8 22.5 11.45 22.55 11.5 M23.6 15.55 L23.2 15.6 23.05 15.65 22.85 15.7 22.65 15.7 22.65 15.75 22.75 17.0 22.75 17.5 22.7 18.9 22.65 19.3 M18.65 22.8 L17.75 22.95 16.4 23.1 16.3 23.1 16.25 23.1 15.5 23.1 15.25 23.1 15.15 23.05 14.4 23.05 14.35 23.05 14.05 23.05 12.35 22.9 12.35 22.95 12.35 23.05 M6.75 15.3 L6.85 15.15 6.75 15.15 M6.75 14.25 L6.8 14.25 6.9 14.15 7.0 14.15 8.0 13.5 9.1 12.7 9.15 12.35 9.25 11.9 9.5 10.95 M16.0 7.3 L16.7 7.5 17.55 7.75 M21.65 10.8 L22.1 11.9 22.25 12.4 22.35 12.95 22.4 13.65 22.4 13.75 M22.55 15.1 L22.5 14.6 22.5 14.55 22.4 14.25 M22.6 15.4 L22.55 15.1 M21.25 16.55 L20.8 16.65 Q20.3 16.65 19.55 16.25 L19.4 16.15 18.85 15.8 17.4 14.7 17.05 14.4 16.5 13.75 16.5 13.9 16.15 14.6 15.9 15.1 15.85 15.15 15.2 15.85 14.5 16.45 14.1 16.65 13.9 16.75 M22.6 15.4 L22.65 15.7 M14.1 7.3 L13.75 7.6 13.25 8.1 13.1 8.3 12.7 8.8 12.45 9.2 12.0 10.05 11.95 10.15 11.8 10.55 11.25 11.9 11.2 12.1 11.05 12.7 10.9 13.5 10.9 13.75 10.85 13.75 10.95 13.8 11.15 13.85 11.8 14.1 12.65 14.7 13.2 15.25 13.65 15.9 M16.6 10.6 L16.65 10.7 16.75 11.9 16.75 12.05 16.5 13.75 M8.95 14.25 L8.95 13.6 9.0 13.05 9.1 12.7 M8.1 15.2 L8.4 15.15 8.5 15.15 8.6 14.7 8.85 14.35 8.95 14.25 Q9.2 14.0 9.6 13.85 L10.25 13.75 10.35 13.75 10.5 13.75 10.55 13.75 10.75 13.75 10.85 13.75 M8.1 15.2 L7.6 15.2 7.5 15.2 7.45 15.2 6.85 15.15 M10.4 17.35 L10.45 17.35 10.75 17.4 10.95 17.4 11.45 17.45 11.55 17.45 11.95 17.45 11.95 17.4 12.15 17.4 12.35 17.35 12.65 17.25 12.8 17.2 13.1 17.1 13.25 17.05 13.5 16.95 14.0 16.65 14.1 16.65 14.35 16.45 14.4 16.4 M9.1 16.7 L8.55 16.05 8.4 15.55 8.5 15.15 M10.4 17.35 L10.25 17.3 10.1 17.25 9.1 16.7 M8.7 20.4 L8.55 20.5 M10.1 20.5 L9.25 20.35 9.2 20.35 9.05 20.35 8.7 20.4 M10.1 20.5 L10.35 20.65 10.6 20.9 10.85 21.4 11.05 21.5 11.65 21.9 12.0 22.35 12.35 22.9 M12.1 17.5 L12.15 17.4 M13.5 16.95 L13.85 16.8 M14.45 16.4 L15.2 15.85" fill="none" stroke="#662110" stroke-linecap="round" stroke-linejoin="round" stroke-width="0.2"/>
      <path d="M21.45 20.95 L21.3 21.05 M21.9 19.6 L21.95 19.6 22.25 19.9 M20.7 21.2 Q20.65 21.05 20.75 20.8 L20.85 20.6 21.1 20.2 21.35 19.9 Q21.5 19.7 21.75 19.6 L21.9 19.6 M21.7 20.2 L21.75 20.2 21.95 20.35 M15.9 19.75 L16.2 20.05 Q16.85 20.6 16.75 21.4 L15.95 22.65 15.75 22.85 M21.05 20.95 Q21.05 20.7 21.2 20.55 L21.45 20.35 21.7 20.2 M21.5 20.6 L21.45 20.95 M20.7 21.2 L20.75 21.4 20.8 21.5 M21.25 21.1 L21.1 21.0 21.05 20.95 M15.9 19.75 Q15.25 19.35 14.6 19.45 13.9 19.55 13.55 20.2 13.25 20.75 13.5 21.3 L14.25 21.9 Q15.0 22.1 15.5 21.45 15.95 20.85 15.45 20.25 L14.85 19.9 14.4 20.25 14.3 20.65 14.55 20.85 14.9 20.9 15.0 20.6" fill="none" stroke="#b23e55" stroke-linecap="round" stroke-linejoin="round" stroke-width="0.2"/>
      <path d="M10.25 21.85 L9.2 21.0 9.05 20.85 Q6.75 18.55 6.75 15.3 6.75 12.1 9.1 9.75 L9.2 9.65 Q11.65 7.35 15.25 7.35 L15.95 7.35 Q9.25 12.6 10.25 21.85" fill="#ffffff" fill-opacity="0.2" fill-rule="evenodd" stroke="none"/>
      <path d="M11.8 10.2 L10.7 11.9 9.5 13.25 Q8.95 13.15 8.85 12.85 L8.85 12.5 Q9.15 10.9 10.6 9.8 11.2 9.3 11.55 9.4 11.95 9.5 11.8 10.2 M8.2 15.1 L8.25 14.7 Q8.35 13.9 9.15 14.0 10.0 14.1 9.85 14.85 L9.55 15.35 Q9.2 15.65 8.85 15.6 8.3 15.5 8.2 15.1" fill="#ffffff" fill-rule="evenodd" stroke="none"/>
    </g>
    <linearGradient gradientTransform="matrix(0.0049, 0.0, 0.0, 0.0065, 25.8, 9.55)" gradientUnits="userSpaceOnUse" id="gradient0" spreadMethod="pad" x1="-819.2" x2="819.2">
      <stop offset="0.0" stop-color="#5f2288"/>
      <stop offset="1.0" stop-color="#a276cd"/>
    </linearGradient>
    <linearGradient gradientTransform="matrix(0.0068, 0.0, 0.0, 0.0052, 20.5, 4.25)" gradientUnits="userSpaceOnUse" id="gradient1" spreadMethod="pad" x1="-819.2" x2="819.2">
      <stop offset="0.0" stop-color="#fd9b0b"/>
      <stop offset="1.0" stop-color="#fde42b"/>
    </linearGradient>
    <linearGradient gradientTransform="matrix(0.0048, 0.0, 0.0, 0.0067, 26.05, 20.35)" gradientUnits="userSpaceOnUse" id="gradient2" spreadMethod="pad" x1="-819.2" x2="819.2">
      <stop offset="0.0" stop-color="#8d010c"/>
      <stop offset="1.0" stop-color="#f2b03f"/>
    </linearGradient>
    <linearGradient gradientTransform="matrix(0.0048, 0.0, 0.0, 0.0067, 26.05, 20.35)" gradientUnits="userSpaceOnUse" id="gradient3" spreadMethod="pad" x1="-819.2" x2="819.2">
      <stop offset="0.0" stop-color="#fd9e0c"/>
      <stop offset="1.0" stop-color="#fddd27"/>
    </linearGradient>
    <linearGradient gradientTransform="matrix(0.0068, 0.0, 0.0, 0.005, 20.5, 25.9)" gradientUnits="userSpaceOnUse" id="gradient4" spreadMethod="pad" x1="-819.2" x2="819.2">
      <stop offset="0.0" stop-color="#65298e"/>
      <stop offset="1.0" stop-color="#9a6cc5"/>
    </linearGradient>
    <linearGradient gradientTransform="matrix(0.0064, 0.0, 0.0, 0.0049, 9.7, 25.95)" gradientUnits="userSpaceOnUse" id="gradient5" spreadMethod="pad" x1="-819.2" x2="819.2">
      <stop offset="0.0" stop-color="#fd9e0c"/>
      <stop offset="1.0" stop-color="#fddd27"/>
    </linearGradient>
  </defs>
</svg>
