<?xml version="1.0" encoding="UTF-8" standalone="no"?>
<svg xmlns:ffdec="https://www.free-decompiler.com/flash" xmlns:xlink="http://www.w3.org/1999/xlink" ffdec:objectType="frame" height="30.05px" width="30.0px" xmlns="http://www.w3.org/2000/svg">
  <g transform="matrix(1.0, 0.0, 0.0, 1.0, 0.0, 0.0)">
    <use ffdec:characterId="1" height="30.0" transform="matrix(1.0, 0.0, 0.0, 1.0, 0.0, 0.0)" width="30.0" xlink:href="#shape0"/>
    <use ffdec:characterId="3" height="30.0" transform="matrix(1.0, 0.0, 0.0, 1.0, 0.0, 0.05)" width="30.0" xlink:href="#sprite0"/>
  </g>
  <defs>
    <g id="shape0" transform="matrix(1.0, 0.0, 0.0, 1.0, 0.0, 0.0)">
      <path d="M0.0 0.0 L30.0 0.0 30.0 30.0 0.0 30.0 0.0 0.0" fill="#33cc66" fill-opacity="0.0" fill-rule="evenodd" stroke="none"/>
    </g>
    <g id="sprite0" transform="matrix(1.0, 0.0, 0.0, 1.0, 0.0, 0.0)">
      <use ffdec:characterId="2" height="30.0" transform="matrix(1.0, 0.0, 0.0, 1.0, 0.0, 0.0)" width="30.0" xlink:href="#shape1"/>
    </g>
    <g id="shape1" transform="matrix(1.0, 0.0, 0.0, 1.0, 0.0, 0.0)">
      <path d="M26.05 4.3 L26.05 4.35 26.0 4.35 26.05 4.3" fill="url(#gradient0)" fill-rule="evenodd" stroke="none"/>
      <path d="M26.05 4.3 L26.0 4.35 26.0 4.3 26.05 4.3" fill="url(#gradient1)" fill-rule="evenodd" stroke="none"/>
      <path d="M29.85 14.95 L29.9 15.0 29.65 15.0 29.35 14.95 29.85 14.95" fill="url(#gradient2)" fill-rule="evenodd" stroke="none"/>
      <path d="M29.9 15.0 L29.95 15.05 30.0 15.05 29.95 15.1 29.95 15.05 29.65 15.0 29.9 15.0 M26.1 25.8 L26.1 25.85 26.05 25.8 26.1 25.8" fill="url(#gradient3)" fill-rule="evenodd" stroke="none"/>
      <path d="M22.1 21.9 L22.1 21.85 22.15 21.9 22.1 21.9" fill="url(#gradient4)" fill-rule="evenodd" stroke="none"/>
      <path d="M4.55 25.8 L4.5 25.8 4.5 25.65 4.85 25.35 4.55 25.75 4.55 25.8" fill="url(#gradient5)" fill-rule="evenodd" stroke="none"/>
      <path d="M26.05 4.35 L25.3 11.3 29.85 14.95 29.35 14.95 24.8 14.2 Q24.55 11.75 23.0 9.75 L26.05 4.35 M29.95 15.1 L25.25 19.1 26.1 25.8 26.05 25.8 26.1 25.85 26.1 25.9 19.0 25.4 14.95 30.0 11.1 25.4 4.55 25.8 9.3 22.85 Q11.3 24.3 13.85 24.65 L14.95 30.0 16.1 24.7 Q18.95 24.45 21.15 22.7 L26.05 25.8 22.55 21.4 Q24.55 19.25 24.8 16.35 L29.95 15.1 M4.5 25.65 L5.1 19.3 0.0 14.95 5.15 11.05 4.6 4.3 11.0 5.15 14.95 0.0 19.15 5.15 26.0 4.3 26.0 4.35 21.2 8.05 21.1 7.95 Q19.2 6.5 16.9 6.15 L14.95 0.0 13.9 6.1 Q11.65 6.3 9.85 7.45 L4.6 4.3 8.3 8.6 8.2 8.75 Q5.95 10.95 5.55 13.8 L0.0 14.95 5.45 15.8 Q5.55 18.8 7.45 21.15 L4.85 25.35 4.5 25.65" fill="#a57341" fill-rule="evenodd" stroke="none"/>
      <path d="M26.0 4.35 L26.05 4.35 23.0 9.75 Q24.55 11.75 24.8 14.2 L29.35 14.95 29.65 15.0 29.95 15.05 29.95 15.1 24.8 16.35 Q24.55 19.25 22.55 21.4 L26.05 25.8 21.15 22.7 Q18.95 24.45 16.1 24.7 L14.95 30.0 13.85 24.65 Q11.3 24.3 9.3 22.85 L4.55 25.8 4.55 25.75 4.85 25.35 7.45 21.15 Q5.55 18.8 5.45 15.8 L0.0 14.95 5.55 13.8 Q5.95 10.95 8.2 8.75 L8.3 8.6 4.6 4.3 9.85 7.45 Q11.65 6.3 13.9 6.1 L14.95 0.0 16.9 6.15 Q19.2 6.5 21.1 7.95 L21.2 8.05 26.0 4.35 M22.1 21.9 L22.15 21.9 22.1 21.85 22.1 21.9 M23.65 15.35 Q23.65 12.0 21.15 9.55 18.65 7.25 15.2 7.25 11.65 7.25 9.15 9.55 L9.05 9.7 Q6.7 12.1 6.7 15.35 6.7 18.65 9.0 21.0 L9.15 21.15 Q11.65 23.5 15.2 23.5 18.7 23.5 21.55 20.85 23.65 18.5 23.65 15.35" fill="#e1cbb7" fill-rule="evenodd" stroke="none"/>
      <path d="M23.65 15.35 Q23.65 18.5 21.55 20.85 18.7 23.5 15.2 23.5 11.65 23.5 9.15 21.15 L9.0 21.0 Q6.7 18.65 6.7 15.35 6.7 12.1 9.05 9.7 L9.15 9.55 Q11.65 7.25 15.2 7.25 18.65 7.25 21.15 9.55 23.65 12.0 23.65 15.35" fill="#663300" fill-rule="evenodd" stroke="none"/>
      <path d="M20.45 10.9 L20.55 10.85 20.85 11.1 21.0 11.35 20.85 11.5 20.5 12.5 20.25 13.2 20.5 14.0 Q20.7 14.3 21.0 14.3 L21.5 13.85 21.75 13.75 22.05 14.5 22.2 14.75 22.05 14.9 21.65 15.15 21.35 15.2 Q20.5 15.2 20.0 14.6 19.45 13.85 19.45 12.6 19.45 12.05 19.6 11.65 L19.75 11.4 20.05 11.0 20.45 10.9 M16.2 7.8 L17.65 8.05 17.9 8.2 Q18.95 8.55 19.3 9.45 L19.3 9.55 19.3 9.65 19.3 9.8 18.95 10.1 18.2 10.3 18.05 10.3 18.05 10.25 18.1 10.0 17.65 9.15 17.4 8.95 Q16.7 8.4 16.05 8.4 L16.2 7.8 M14.7 12.1 L14.9 12.2 15.15 12.4 15.35 12.75 15.45 13.65 15.0 14.65 14.1 14.85 Q13.55 14.85 13.15 14.5 12.7 14.2 12.7 13.5 12.7 12.7 13.2 12.3 13.65 11.95 14.2 11.95 14.45 11.95 14.7 12.1 M14.25 13.2 L14.25 13.15 14.2 13.15 14.1 13.15 14.05 13.15 14.05 13.3 14.0 13.3 14.0 13.5 14.1 13.5 14.25 13.5 14.3 13.2 14.25 13.2" fill="#ffffe0" fill-rule="evenodd" stroke="none"/>
      <path d="M21.75 13.75 L21.5 13.85 21.0 14.3 Q20.7 14.3 20.5 14.0 L20.25 13.2 20.5 12.5 20.85 11.5 21.0 11.35 21.4 12.65 21.75 13.75" fill="#e5473d" fill-rule="evenodd" stroke="none"/>
      <path d="M20.55 10.85 L20.45 10.9 20.05 11.0 19.75 11.4 19.6 11.65 Q19.45 12.05 19.45 12.6 19.45 13.85 20.0 14.6 20.5 15.2 21.35 15.2 L21.65 15.15 22.05 14.9 22.2 14.85 22.6 15.7 22.45 16.3 22.45 16.45 22.4 16.45 22.2 16.3 22.0 16.45 21.2 16.25 20.05 16.05 19.45 15.8 19.1 15.35 18.7 14.5 18.65 13.65 Q18.65 13.1 18.25 12.1 L18.1 12.0 17.65 11.4 16.55 10.55 Q16.05 10.1 15.1 9.95 L14.75 9.85 14.7 9.85 14.45 9.85 14.35 9.8 13.9 9.8 12.95 9.65 12.8 9.6 12.8 9.55 12.75 9.55 12.75 9.45 12.65 9.0 Q12.65 8.7 12.8 8.45 L12.9 8.3 12.95 8.4 13.1 8.3 Q13.2 8.2 13.2 8.25 L13.35 8.2 13.45 8.05 13.4 8.1 13.45 8.1 14.05 8.1 14.8 8.25 15.0 8.3 15.0 8.45 15.0 8.7 15.1 8.95 15.0 8.95 15.15 9.1 15.2 9.3 15.4 9.45 15.65 9.55 15.9 9.75 16.7 10.05 16.75 10.1 17.0 10.2 17.1 10.2 17.35 10.25 17.4 10.25 17.45 10.3 17.65 10.3 17.8 10.3 18.2 10.4 18.25 10.4 18.4 10.4 18.95 10.2 19.15 10.1 19.2 10.05 19.35 10.0 19.55 10.0 19.6 10.2 19.8 10.1 19.95 10.2 20.55 10.85" fill="#857d6a" fill-rule="evenodd" stroke="none"/>
      <path d="M13.35 8.2 L13.2 8.25 Q13.2 8.2 13.1 8.3 L12.95 8.4 12.9 8.3 12.8 8.45 Q12.65 8.7 12.65 9.0 L12.75 9.45 12.75 9.55 12.8 9.55 12.8 9.6 12.95 9.65 13.9 9.8 14.35 9.8 14.45 9.85 14.45 9.95 13.55 10.05 Q12.55 10.3 11.8 11.1 10.55 12.3 10.55 13.95 L10.55 14.4 10.0 13.8 8.9 13.65 7.6 13.5 Q7.65 12.85 7.85 12.4 L8.35 11.6 8.5 11.35 8.55 11.3 8.8 10.95 8.75 10.95 9.25 10.4 9.45 10.2 9.7 10.0 9.85 9.95 10.0 9.8 10.55 9.55 11.25 9.15 11.45 9.1 11.7 8.9 12.1 8.65 Q12.55 8.3 12.95 8.25 L13.35 8.2 M15.1 9.95 Q16.05 10.1 16.55 10.55 L17.65 11.4 18.1 12.0 18.25 12.1 Q18.65 13.1 18.65 13.65 L18.7 14.5 19.1 15.35 19.45 15.8 20.05 16.05 21.2 16.25 22.0 16.45 22.2 16.3 22.4 16.45 22.45 16.45 22.3 16.9 22.25 16.95 22.2 17.05 21.85 16.9 21.6 16.85 20.55 16.65 19.35 16.7 18.5 16.75 Q17.85 16.95 17.1 17.4 L16.2 18.05 15.35 18.7 Q13.9 20.0 13.9 21.15 L13.9 21.45 13.65 21.45 11.65 21.05 10.55 20.65 9.65 20.0 9.45 19.8 9.65 19.6 9.5 19.4 9.2 19.35 8.7 19.1 8.3 18.6 8.15 18.05 8.25 17.7 8.9 16.75 7.7 16.0 7.45 15.75 7.2 15.5 7.05 15.3 7.6 15.2 7.9 15.15 7.9 15.2 8.05 15.2 8.9 15.7 9.15 15.95 Q9.8 16.7 10.45 16.7 L11.15 16.5 11.45 16.25 11.55 16.25 11.6 16.2 11.6 16.3 Q12.45 16.9 14.1 16.9 15.25 16.9 16.35 16.15 17.65 15.15 17.65 13.8 L17.2 11.8 16.55 10.95 16.35 10.85 16.2 10.65 16.1 10.55 15.55 10.1 15.1 10.0 15.1 9.95 M10.7 18.6 L9.85 19.3 9.65 19.55 9.65 19.6 9.65 19.55 9.85 19.3 10.7 18.6" fill="#2f2025" fill-rule="evenodd" stroke="none"/>
      <path d="M22.4 17.15 L22.65 17.5 22.85 18.2 Q22.85 19.1 21.75 20.0 L21.2 20.4 21.15 20.4 Q20.25 20.4 19.8 20.0 19.4 19.75 19.4 19.35 L19.65 19.15 19.55 19.15 19.4 19.15 19.35 19.15 19.35 18.95 18.85 17.95 18.25 17.4 16.7 18.0 16.35 18.25 15.65 18.8 15.35 18.7 16.2 18.05 17.1 17.4 Q17.85 16.95 18.5 16.75 L19.35 16.7 20.55 16.65 21.6 16.85 21.85 16.9 22.2 17.05 22.4 17.15 M19.3 19.55 L19.35 19.4 19.35 19.55 19.3 19.55" fill="#b3b8ce" fill-rule="evenodd" stroke="none"/>
      <path d="M21.2 20.4 L20.2 21.25 19.95 20.85 19.45 20.6 19.1 21.15 Q18.7 21.7 17.85 21.7 17.2 21.7 17.0 21.35 L16.9 20.6 17.0 20.2 17.15 19.8 Q17.15 19.5 16.3 19.1 16.0 18.9 15.65 18.8 L16.35 18.25 16.7 18.0 18.25 17.4 18.85 17.95 19.35 18.95 19.35 19.15 18.2 19.55 Q17.35 19.95 17.35 20.6 L17.45 21.05 17.9 21.15 18.75 20.85 19.0 20.15 19.3 19.55 19.35 19.55 19.35 19.4 19.4 19.35 Q19.4 19.75 19.8 20.0 20.25 20.4 21.15 20.4 L21.2 20.4" fill="#818493" fill-rule="evenodd" stroke="none"/>
      <path d="M13.45 8.05 L13.35 8.2 12.95 8.25 12.95 8.2 12.7 7.6 13.55 7.4 13.45 8.0 13.45 8.05" fill="#9fa6b6" fill-rule="evenodd" stroke="none"/>
      <path d="M8.8 10.85 L8.7 10.7 8.3 10.6 9.05 9.7 9.15 9.55 Q10.7 8.1 12.7 7.6 L12.95 8.2 12.95 8.25 Q12.55 8.3 12.1 8.65 L11.7 8.9 11.45 9.1 11.25 9.15 10.55 9.55 10.0 9.8 9.85 9.95 9.7 10.0 9.45 10.2 9.25 10.4 9.0 10.55 8.8 10.85" fill="#888b9c" fill-rule="evenodd" stroke="none"/>
      <path d="M17.4 10.25 L17.35 10.25 17.1 10.2 17.2 10.2 16.75 10.05 16.7 10.05 15.9 9.75 15.65 9.55 15.25 9.2 15.1 8.95 15.0 8.7 15.15 8.65 Q15.55 8.4 16.05 8.4 16.7 8.4 17.4 8.95 L17.65 9.15 18.1 10.0 18.05 10.25 18.05 10.3 17.8 10.3 17.4 10.25 M17.35 10.25 L17.2 10.2 17.35 10.25" fill="#de4337" fill-rule="evenodd" stroke="none"/>
      <path d="M14.45 9.95 L14.5 9.95 15.1 10.0 15.55 10.1 16.1 10.55 16.2 10.65 16.35 10.85 16.55 10.95 17.2 11.8 17.65 13.8 Q17.65 15.15 16.35 16.15 15.25 16.9 14.1 16.9 12.45 16.9 11.6 16.3 L11.6 16.2 11.55 16.05 11.25 15.35 10.75 14.5 10.6 14.4 10.55 14.4 10.55 13.95 Q10.55 12.3 11.8 11.1 12.55 10.3 13.55 10.05 L14.45 9.95 M15.1 11.6 Q14.55 11.2 13.85 11.2 13.2 11.2 12.65 11.85 12.05 12.5 12.05 13.35 12.05 14.25 12.7 14.75 L12.9 14.95 Q13.4 15.2 14.05 15.3 L14.25 15.3 Q15.1 15.3 15.55 14.9 16.1 14.45 16.1 13.6 L16.05 13.05 15.8 12.5 15.75 12.4 15.65 12.25 15.1 11.6" fill="#000000" fill-rule="evenodd" stroke="none"/>
      <path d="M14.7 12.1 Q14.45 11.95 14.2 11.95 13.65 11.95 13.2 12.3 12.7 12.7 12.7 13.5 12.7 14.2 13.15 14.5 13.55 14.85 14.1 14.85 L15.0 14.65 15.45 13.65 15.35 12.75 15.15 12.4 14.9 12.2 14.7 12.1 M15.1 11.6 L15.65 12.25 15.75 12.4 15.8 12.5 16.05 13.05 16.1 13.6 Q16.1 14.45 15.55 14.9 15.1 15.3 14.25 15.3 L14.05 15.3 Q13.4 15.2 12.9 14.95 L12.7 14.75 Q12.05 14.25 12.05 13.35 12.05 12.5 12.65 11.85 13.2 11.2 13.85 11.2 14.55 11.2 15.1 11.6" fill="#7f7062" fill-rule="evenodd" stroke="none"/>
      <path d="M7.2 13.4 L7.45 13.4 7.5 13.4 Q7.2 13.6 7.2 14.15 L7.2 14.4 7.25 14.5 7.45 14.6 7.5 14.6 8.8 14.9 8.95 14.95 9.85 15.3 10.3 15.1 10.35 15.05 10.6 14.75 10.6 14.7 10.6 14.4 10.75 14.5 11.25 15.35 11.55 16.05 11.6 16.2 11.55 16.25 11.45 16.25 11.15 16.5 10.45 16.7 Q9.8 16.7 9.15 15.95 L8.9 15.7 8.05 15.2 7.9 15.2 7.9 15.15 7.6 15.2 7.05 15.3 6.9 14.65 6.8 14.45 7.0 13.95 7.2 13.55 7.2 13.4 M8.75 10.9 L8.8 10.85 9.0 10.55 9.25 10.4 8.75 10.95 8.75 10.9" fill="#403c3b" fill-rule="evenodd" stroke="none"/>
      <path d="M7.5 13.4 L7.6 13.5 8.9 13.65 10.0 13.8 10.55 14.4 10.6 14.4 10.6 14.7 10.6 14.75 10.35 15.05 10.3 15.1 9.85 15.3 8.95 14.95 8.8 14.9 7.5 14.6 7.45 14.6 7.25 14.5 7.2 14.4 7.2 14.15 Q7.2 13.6 7.5 13.4" fill="#867e6b" fill-rule="evenodd" stroke="none"/>
      <path d="M6.7 15.3 L6.95 13.35 7.2 13.4 7.2 13.55 7.0 13.95 6.8 14.45 6.9 14.65 7.05 15.3 6.7 15.3" fill="#a3aaba" fill-rule="evenodd" stroke="none"/>
      <path d="M9.45 19.8 L8.95 19.95 Q8.5 19.95 7.9 19.6 7.2 18.5 6.9 17.2 L6.9 17.15 7.2 16.7 6.8 16.5 6.7 15.35 6.7 15.3 7.05 15.3 7.2 15.5 7.45 15.75 7.7 16.0 8.9 16.75 8.25 17.7 8.15 18.05 8.3 18.6 8.7 19.1 9.2 19.35 9.5 19.4 9.65 19.6 9.45 19.8" fill="#7c7e8d" fill-rule="evenodd" stroke="none"/>
      <path d="M20.2 21.25 L20.1 21.3 19.55 21.95 19.0 22.45 18.05 22.65 16.75 22.85 15.75 22.8 14.9 22.5 14.3 21.95 14.25 21.75 14.0 21.5 13.9 21.15 Q13.9 20.0 15.35 18.7 L15.65 18.8 Q16.0 18.9 16.3 19.1 17.15 19.5 17.15 19.8 L17.0 20.2 16.9 20.6 17.0 21.35 Q17.2 21.7 17.85 21.7 18.7 21.7 19.1 21.15 L19.45 20.6 19.95 20.85 20.2 21.25" fill="#737584" fill-rule="evenodd" stroke="none"/>
      <path d="M19.35 19.15 L19.4 19.15 19.55 19.15 19.65 19.15 19.4 19.35 19.35 19.4 19.3 19.55 19.0 20.15 18.75 20.85 17.9 21.15 17.45 21.05 17.35 20.6 Q17.35 19.95 18.2 19.55 L19.35 19.15" fill="#504845" fill-rule="evenodd" stroke="none"/>
      <path d="M20.45 10.9 L20.05 11.0 19.75 11.4 19.6 11.65 Q19.45 12.05 19.45 12.6 19.45 13.85 20.0 14.6 20.5 15.2 21.35 15.2 L21.65 15.15 22.05 14.9 M22.2 14.75 L22.05 14.5 21.75 13.75 21.4 12.65 21.0 11.35 20.85 11.1 20.55 10.85 19.95 10.2 19.8 10.1 19.65 10.0 19.3 9.8 19.3 9.65 19.3 9.55 19.3 9.45 Q18.95 8.55 17.9 8.2 L17.65 8.05 16.2 7.8 16.0 7.8 Q15.55 7.8 15.0 8.25 L15.0 8.3 15.0 8.45 15.0 8.7 15.1 8.95 15.25 9.2 15.65 9.55 15.9 9.75 16.7 10.05 16.75 10.05 17.2 10.2 17.35 10.25 17.4 10.25 17.8 10.3 18.05 10.3 18.2 10.3 18.95 10.1 19.3 9.8 M14.8 8.25 L14.05 8.1 13.45 8.1 13.4 8.1 13.45 8.05 M22.45 16.45 L22.45 16.3 22.6 15.7 22.2 14.85 22.2 14.75 M22.45 16.45 L22.3 16.9 M22.25 16.95 L22.4 17.15 22.65 17.5 22.85 18.2 Q22.85 19.1 21.75 20.0 L21.2 20.4 20.2 21.25 20.1 21.3 19.55 21.95 19.0 22.45 18.05 22.65 16.75 22.85 15.75 22.8 14.9 22.5 14.3 21.95 14.25 21.75 14.0 21.5 13.9 21.45 M13.65 21.45 L11.65 21.05 10.55 20.65 9.65 20.0 9.45 19.8 8.95 19.95 Q8.5 19.95 7.9 19.6 M6.9 17.15 L7.2 16.7 6.8 16.5 M6.95 13.35 L7.2 13.4 7.45 13.4 7.5 13.4 7.6 13.5 Q7.65 12.85 7.85 12.4 L8.35 11.6 8.5 11.35 8.55 11.3 8.7 10.9 8.75 10.9 8.8 10.85 9.0 10.55 9.25 10.4 9.45 10.2 M8.7 10.7 L8.3 10.6 M13.55 7.4 L13.45 8.0 M22.2 17.05 L21.85 16.9 21.6 16.85 20.55 16.65 19.35 16.7 18.5 16.75 Q17.85 16.95 17.1 17.4 L16.2 18.05 15.35 18.7 Q13.9 20.0 13.9 21.15 L14.0 21.5 M19.35 19.15 L19.4 19.15 19.55 19.15 19.65 19.15 19.4 19.35 19.35 19.4 19.3 19.55 19.0 20.15 18.75 20.85 17.9 21.15 17.45 21.05 17.35 20.6 Q17.35 19.95 18.2 19.55 L19.35 19.15 M22.2 17.05 L22.4 17.15 M12.95 8.25 L13.35 8.2 M12.95 8.25 Q12.55 8.3 12.1 8.65 L11.7 8.9 11.45 9.1 11.25 9.15 M8.8 10.95 L8.55 11.3 M14.45 9.95 L14.5 9.95 15.1 10.0 15.55 10.1 16.1 10.55 16.2 10.65 16.35 10.85 16.55 10.95 17.2 11.8 17.65 13.8 Q17.65 15.15 16.35 16.15 15.25 16.9 14.1 16.9 12.45 16.9 11.6 16.3 M14.45 9.95 L13.55 10.05 Q12.55 10.3 11.8 11.1 10.55 12.3 10.55 13.95 L10.55 14.4 10.6 14.4 10.75 14.5 11.25 15.35 M15.1 11.6 L15.65 12.25 15.75 12.4 15.8 12.5 16.05 13.05 16.1 13.6 Q16.1 14.45 15.55 14.9 15.1 15.3 14.25 15.3 L14.05 15.3 Q13.4 15.2 12.9 14.95 L12.7 14.75 Q12.05 14.25 12.05 13.35 12.05 12.5 12.65 11.85 13.2 11.2 13.85 11.2 14.55 11.2 15.1 11.6 M10.55 14.4 L10.0 13.8 8.9 13.65 7.6 13.5 M7.2 13.55 L7.0 13.95 6.8 14.45 6.9 14.65 7.05 15.3 7.2 15.5 7.45 15.75 7.7 16.0 8.9 16.75 8.25 17.7 8.15 18.05 8.3 18.6 8.7 19.1 9.2 19.35 9.5 19.4 M9.65 19.6 L9.65 19.55 9.85 19.3 10.7 18.6 M9.45 19.8 L9.65 19.6 M14.25 13.2 L14.3 13.2 14.25 13.5 14.1 13.5 14.0 13.5 14.0 13.3 14.05 13.3 14.05 13.15 14.1 13.15 14.2 13.15 14.25 13.15 14.25 13.2 14.2 13.15 M14.25 13.2 L14.25 13.35 14.2 13.35 14.2 13.4 14.1 13.5 14.05 13.3 14.1 13.3 14.1 13.15 M14.2 13.35 L14.2 13.3 14.1 13.3 14.1 13.4 14.2 13.4" fill="none" stroke="#000100" stroke-linecap="round" stroke-linejoin="round" stroke-width="0.2"/>
      <path d="M9.25 21.0 L9.1 20.85 Q6.8 18.55 6.8 15.3 6.8 12.1 9.15 9.75 L9.25 9.65 Q11.7 7.35 15.3 7.35 L16.0 7.35 Q9.3 12.6 10.3 21.85 L9.25 21.0" fill="#ffffff" fill-opacity="0.2" fill-rule="evenodd" stroke="none"/>
      <path d="M10.75 11.9 L9.55 13.25 8.9 12.85 8.9 12.5 Q9.2 10.9 10.65 9.8 11.25 9.3 11.6 9.4 12.0 9.5 11.85 10.2 L10.75 11.9 M8.3 14.7 Q8.4 13.9 9.2 14.0 10.05 14.1 9.9 14.85 L9.6 15.35 8.9 15.6 Q8.35 15.5 8.25 15.1 L8.3 14.7" fill="#ffffff" fill-rule="evenodd" stroke="none"/>
    </g>
    <linearGradient gradientTransform="matrix(0.0049, 0.0, 0.0, 0.0065, 25.85, 9.55)" gradientUnits="userSpaceOnUse" id="gradient0" spreadMethod="pad" x1="-819.2" x2="819.2">
      <stop offset="0.0" stop-color="#5f2288"/>
      <stop offset="1.0" stop-color="#a276cd"/>
    </linearGradient>
    <linearGradient gradientTransform="matrix(0.0068, 0.0, 0.0, 0.0052, 20.5, 4.25)" gradientUnits="userSpaceOnUse" id="gradient1" spreadMethod="pad" x1="-819.2" x2="819.2">
      <stop offset="0.0" stop-color="#fd9b0b"/>
      <stop offset="1.0" stop-color="#fde42b"/>
    </linearGradient>
    <linearGradient gradientTransform="matrix(0.0048, 0.0, 0.0, 0.0067, 26.1, 20.35)" gradientUnits="userSpaceOnUse" id="gradient2" spreadMethod="pad" x1="-819.2" x2="819.2">
      <stop offset="0.0" stop-color="#8d010c"/>
      <stop offset="1.0" stop-color="#f2b03f"/>
    </linearGradient>
    <linearGradient gradientTransform="matrix(0.0048, 0.0, 0.0, 0.0067, 26.1, 20.35)" gradientUnits="userSpaceOnUse" id="gradient3" spreadMethod="pad" x1="-819.2" x2="819.2">
      <stop offset="0.0" stop-color="#fd9e0c"/>
      <stop offset="1.0" stop-color="#fddd27"/>
    </linearGradient>
    <linearGradient gradientTransform="matrix(0.0068, 0.0, 0.0, 0.005, 20.5, 25.9)" gradientUnits="userSpaceOnUse" id="gradient4" spreadMethod="pad" x1="-819.2" x2="819.2">
      <stop offset="0.0" stop-color="#65298e"/>
      <stop offset="1.0" stop-color="#9a6cc5"/>
    </linearGradient>
    <linearGradient gradientTransform="matrix(0.0064, 0.0, 0.0, 0.0049, 9.7, 25.95)" gradientUnits="userSpaceOnUse" id="gradient5" spreadMethod="pad" x1="-819.2" x2="819.2">
      <stop offset="0.0" stop-color="#fd9e0c"/>
      <stop offset="1.0" stop-color="#fddd27"/>
    </linearGradient>
  </defs>
</svg>
