<?xml version="1.0" encoding="UTF-8" standalone="no"?>
<svg xmlns:ffdec="https://www.free-decompiler.com/flash" xmlns:xlink="http://www.w3.org/1999/xlink" ffdec:objectType="frame" height="30.0px" width="30.0px" xmlns="http://www.w3.org/2000/svg">
  <g transform="matrix(1.0, 0.0, 0.0, 1.0, 0.0, 0.0)">
    <use ffdec:characterId="1" height="30.0" transform="matrix(1.0, 0.0, 0.0, 1.0, 0.0, 0.0)" width="30.0" xlink:href="#shape0"/>
    <use ffdec:characterId="3" height="30.0" transform="matrix(1.0, 0.0, 0.0, 1.0, 0.0, 0.0)" width="30.0" xlink:href="#sprite0"/>
  </g>
  <defs>
    <g id="shape0" transform="matrix(1.0, 0.0, 0.0, 1.0, 0.0, 0.0)">
      <path d="M0.0 0.0 L30.0 0.0 30.0 30.0 0.0 30.0 0.0 0.0" fill="#33cc66" fill-opacity="0.0" fill-rule="evenodd" stroke="none"/>
    </g>
    <g id="sprite0" transform="matrix(1.0, 0.0, 0.0, 1.0, 0.0, 0.0)">
      <use ffdec:characterId="2" height="30.0" transform="matrix(1.0, 0.0, 0.0, 1.0, 0.0, 0.0)" width="30.0" xlink:href="#shape1"/>
    </g>
    <g id="shape1" transform="matrix(1.0, 0.0, 0.0, 1.0, 0.0, 0.0)">
      <path d="M15.0 0.05 L19.15 5.15 26.0 4.3 26.0 4.4 Q23.65 6.25 21.25 8.05 L21.1 7.95 Q19.2 6.5 16.9 6.15 L15.0 0.05 13.9 6.1 Q11.65 6.3 9.8 7.45 L4.65 4.35 8.25 8.65 8.25 8.7 8.2 8.7 8.2 8.75 Q6.0 10.95 5.5 13.85 L0.05 15.0 5.4 15.85 Q5.6 18.85 7.5 21.2 L4.6 25.8 4.5 25.8 4.5 25.65 5.05 19.3 0.05 15.0 0.0 14.95 5.15 11.05 4.6 4.3 10.95 5.1 14.95 0.0 15.0 0.05 M26.0 4.5 L25.3 11.3 30.0 15.05 30.0 15.1 24.8 14.25 Q24.5 11.8 23.0 9.8 L26.0 4.5 M29.9 15.15 L25.3 19.15 26.05 25.85 26.05 25.9 18.95 25.4 15.05 29.9 16.15 24.65 Q18.9 24.4 21.15 22.7 L26.05 25.85 22.55 21.4 Q24.45 19.25 24.8 16.4 L29.9 15.15 M15.0 29.95 L14.95 30.0 11.05 25.4 4.65 25.8 9.3 22.9 Q11.3 24.35 13.85 24.65 L15.0 29.95" fill="#0bdd30" fill-rule="evenodd" stroke="none"/>
      <path d="M15.0 0.05 L16.9 6.15 Q19.2 6.5 21.1 7.95 L21.25 8.05 Q23.65 6.25 26.0 4.4 L26.0 4.5 23.0 9.8 Q24.5 11.8 24.8 14.25 L30.0 15.1 29.9 15.15 24.8 16.4 Q24.45 19.25 22.55 21.4 L26.05 25.85 21.15 22.7 Q18.9 24.4 16.15 24.65 L15.05 29.9 15.0 29.95 13.85 24.65 Q11.3 24.35 9.3 22.9 L4.65 25.8 4.6 25.8 7.5 21.2 Q5.6 18.85 5.4 15.85 L0.05 15.0 5.5 13.85 Q6.0 10.95 8.2 8.75 L8.25 8.7 8.25 8.65 4.65 4.35 9.8 7.45 Q11.65 6.3 13.9 6.1 L15.0 0.05 M23.7 15.35 Q23.7 12.0 21.15 9.55 18.6 7.25 15.2 7.25 11.65 7.25 9.15 9.55 L9.05 9.7 Q6.7 12.1 6.7 15.35 6.7 18.65 9.0 21.0 L9.15 21.15 Q11.65 23.5 15.2 23.5 18.7 23.5 21.5 20.85 23.7 18.5 23.7 15.35" fill="#c5fa74" fill-rule="evenodd" stroke="none"/>
      <path d="M23.7 15.35 Q23.7 18.5 21.5 20.85 18.7 23.5 15.2 23.5 11.65 23.5 9.15 21.15 L9.0 21.0 Q6.7 18.65 6.7 15.35 6.7 12.1 9.05 9.7 L9.15 9.55 Q11.65 7.25 15.2 7.25 18.6 7.25 21.15 9.55 23.7 12.0 23.7 15.35" fill="#284f17" fill-rule="evenodd" stroke="none"/>
      <path d="M20.85 13.15 Q20.6 12.9 20.25 12.9 19.95 12.9 19.7 13.15 L19.5 13.7 19.7 14.3 20.25 14.55 20.85 14.3 21.05 13.7 20.9 13.2 20.85 13.15 M21.3 13.75 L21.0 14.5 Q20.7 14.85 20.25 14.85 19.85 14.85 19.5 14.5 19.2 14.2 19.2 13.75 19.2 13.4 19.35 13.15 L19.5 12.95 Q19.85 12.6 20.25 12.6 20.7 12.6 21.0 12.95 L21.2 13.2 21.3 13.75 M14.5 12.0 Q14.1 11.65 13.5 11.65 12.9 11.65 12.45 12.0 12.0 12.4 12.0 12.9 12.0 13.45 12.45 13.8 12.9 14.2 13.5 14.2 14.1 14.2 14.5 13.8 14.95 13.45 14.95 12.9 14.95 12.4 14.5 12.0 M14.8 11.85 Q15.3 12.3 15.3 12.95 L15.3 13.2 14.8 14.05 Q14.25 14.5 13.5 14.5 12.8 14.5 12.25 14.05 11.75 13.6 11.75 12.95 L11.85 12.4 12.25 11.85 Q12.8 11.35 13.5 11.35 14.25 11.35 14.8 11.85" fill="#331514" fill-rule="evenodd" stroke="none"/>
      <path d="M20.85 13.15 L20.9 13.2 21.05 13.7 20.85 14.3 20.25 14.55 19.7 14.3 19.5 13.7 19.7 13.15 Q19.95 12.9 20.25 12.9 20.6 12.9 20.85 13.15 M20.35 13.4 L20.2 13.15 20.1 13.1 20.0 13.05 19.9 13.15 19.85 13.15 19.75 13.4 20.0 13.65 20.25 13.55 20.35 13.4 M13.05 12.1 L13.0 12.05 12.9 12.0 12.75 12.0 12.55 12.15 12.5 12.4 12.6 12.65 12.75 12.75 13.1 12.55 13.2 12.45 13.2 12.35 13.05 12.1 M14.5 12.0 Q14.95 12.4 14.95 12.9 14.95 13.45 14.5 13.8 14.1 14.2 13.5 14.2 12.9 14.2 12.45 13.8 12.0 13.45 12.0 12.9 12.0 12.4 12.45 12.0 12.9 11.65 13.5 11.65 14.1 11.65 14.5 12.0" fill="#4f2a24" fill-rule="evenodd" stroke="none"/>
      <path d="M20.35 13.4 L20.25 13.55 20.0 13.65 19.75 13.4 19.85 13.15 19.9 13.15 20.0 13.05 20.1 13.1 20.2 13.15 20.35 13.4 M13.05 12.1 L13.2 12.35 13.2 12.45 13.1 12.55 12.75 12.75 12.6 12.65 12.5 12.4 12.55 12.15 12.75 12.0 12.9 12.0 13.0 12.05 13.05 12.1" fill="#ffffff" fill-rule="evenodd" stroke="none"/>
      <path d="M21.3 13.75 L21.2 13.2 21.0 12.95 Q20.7 12.6 20.25 12.6 19.85 12.6 19.5 12.95 L19.35 13.15 Q19.2 13.4 19.2 13.75 19.2 14.2 19.5 14.5 19.85 14.85 20.25 14.85 20.7 14.85 21.0 14.5 L21.3 13.75 M20.6 15.2 L20.45 15.2 19.45 14.95 Q18.9 14.5 18.9 13.7 18.9 13.05 19.2 12.65 L19.55 12.35 19.65 12.35 19.9 12.3 20.2 12.25 Q20.6 12.25 21.05 12.55 21.8 13.05 21.8 14.05 21.8 15.15 20.6 15.2 M10.35 9.8 Q9.35 11.25 9.35 12.75 9.35 14.3 11.15 15.8 L11.25 15.75 11.9 15.55 Q12.2 15.55 12.45 15.9 L12.65 16.4 12.65 16.45 12.55 16.65 12.5 16.75 14.85 17.6 Q15.3 17.25 15.85 17.0 L16.45 16.75 16.55 16.8 17.75 17.55 18.1 17.85 Q19.45 17.6 20.95 16.25 L21.0 16.2 22.15 14.8 22.4 14.25 22.45 14.45 22.05 15.6 21.85 16.1 21.0 16.8 19.9 18.0 19.7 18.3 18.95 18.85 18.7 18.7 18.2 18.55 17.95 18.5 17.75 18.75 16.9 18.15 15.9 18.7 15.75 18.8 14.6 19.45 14.5 19.55 13.95 18.65 13.1 18.75 12.8 18.35 10.9 16.35 9.7 15.35 8.45 13.8 8.2 13.2 7.9 12.35 Q8.45 11.35 9.35 10.55 L10.35 9.8 M18.35 9.25 L18.4 9.6 18.25 10.2 17.5 10.65 17.25 10.7 16.7 10.5 16.55 10.5 16.35 10.4 16.3 10.4 15.95 10.15 15.4 9.45 14.3 8.95 13.4 8.6 14.4 8.5 15.7 8.95 15.85 9.0 16.55 9.25 16.65 9.3 16.75 9.4 17.0 9.7 17.15 10.4 17.2 10.4 17.55 10.55 17.9 9.55 17.7 9.0 18.2 9.2 18.35 9.25 M13.55 10.9 L13.65 10.95 14.8 11.25 Q15.85 11.75 15.85 12.95 15.85 13.85 15.1 14.4 14.4 14.95 13.5 14.95 12.5 14.95 11.85 14.5 11.15 14.0 11.15 13.2 11.15 12.35 11.95 11.55 12.35 11.2 12.7 11.0 L13.25 10.9 13.55 10.9 M14.8 11.85 Q14.25 11.35 13.5 11.35 12.8 11.35 12.25 11.85 L11.85 12.4 11.75 12.95 Q11.75 13.6 12.25 14.05 12.8 14.5 13.5 14.5 14.25 14.5 14.8 14.05 L15.3 13.2 15.3 12.95 Q15.3 12.3 14.8 11.85 M17.5 10.65 L17.55 10.55 17.5 10.65 M13.25 16.1 L13.2 16.3 13.05 16.35 12.9 16.25 12.9 16.2 13.0 16.0 13.1 15.95 13.25 16.0 13.25 16.1" fill="#dfbc18" fill-rule="evenodd" stroke="none"/>
      <path d="M20.6 15.2 Q21.8 15.15 21.8 14.05 21.8 13.05 21.05 12.55 20.6 12.25 20.2 12.25 L19.9 12.3 19.65 12.35 19.55 12.35 19.2 12.65 Q18.9 13.05 18.9 13.7 18.9 14.5 19.45 14.95 L20.45 15.2 20.6 15.2 M22.4 14.25 L22.15 14.8 21.0 16.2 20.95 16.25 Q19.45 17.6 18.1 17.85 L17.75 17.55 16.55 16.8 16.45 16.75 15.85 17.0 Q15.3 17.25 14.85 17.6 L12.5 16.75 12.55 16.65 12.65 16.45 12.65 16.4 12.45 15.9 Q12.2 15.55 11.9 15.55 L11.25 15.75 11.15 15.8 Q9.35 14.3 9.35 12.75 9.35 11.25 10.35 9.8 11.75 8.9 13.4 8.6 L14.3 8.95 15.4 9.45 15.95 10.15 16.3 10.4 16.35 10.4 16.55 10.5 16.7 10.5 17.25 10.7 17.5 10.65 18.25 10.2 18.4 9.6 18.35 9.25 20.05 10.35 20.25 10.55 Q22.0 12.15 22.4 14.25 M13.55 10.9 L13.25 10.9 12.7 11.0 Q12.35 11.2 11.95 11.55 11.15 12.35 11.15 13.2 11.15 14.0 11.85 14.5 12.5 14.95 13.5 14.95 14.4 14.95 15.1 14.4 15.85 13.85 15.85 12.95 15.85 11.75 14.8 11.25 L13.65 10.95 13.55 10.9 M19.0 10.75 L19.15 10.95 19.3 11.0 19.5 11.0 19.75 10.9 19.65 10.75 19.5 10.65 19.2 10.55 19.1 10.6 19.05 10.65 19.0 10.65 19.0 10.75 M18.5 14.95 L18.35 14.65 17.95 14.5 17.65 14.55 Q17.3 14.65 17.2 14.85 17.3 14.65 17.65 14.55 L17.95 14.5 18.35 14.65 18.5 14.95 M13.25 16.1 L13.25 16.0 13.1 15.95 13.0 16.0 12.9 16.2 12.9 16.25 13.05 16.35 13.2 16.3 13.25 16.1" fill="#f0ee25" fill-rule="evenodd" stroke="none"/>
      <path d="M7.9 12.35 L8.2 13.2 8.45 13.8 9.7 15.35 7.35 13.7 7.55 13.05 7.9 12.35 M13.1 18.75 L13.95 18.65 14.5 19.55 14.3 19.65 14.25 19.75 14.05 19.9 14.0 19.9 13.95 19.9 13.9 19.95 13.85 19.8 13.1 18.75 M17.75 18.75 L17.95 18.5 18.2 18.55 18.7 18.7 18.95 18.85 19.7 18.3 19.45 18.75 18.95 19.7 18.9 19.8 18.95 19.85 18.85 19.8 18.85 19.75 18.7 19.6 18.4 19.3 Q18.1 18.95 17.75 18.75 M21.85 16.1 L22.05 15.6 22.45 14.45 22.5 15.45 22.5 15.5 22.5 15.6 21.85 16.1" fill="#bf7b13" fill-rule="evenodd" stroke="none"/>
      <path d="M9.7 15.35 L10.9 16.35 12.8 18.35 11.15 17.1 10.3 16.5 7.15 14.5 7.05 14.45 6.75 14.6 6.7 14.6 6.7 14.0 6.75 14.05 6.8 14.1 6.95 14.15 7.05 14.15 7.1 14.0 6.95 13.8 6.85 13.8 6.7 13.75 6.7 13.35 6.9 13.5 7.35 13.7 9.7 15.35 M15.9 18.7 L16.9 18.15 17.75 18.75 Q18.1 18.95 18.4 19.3 L18.7 19.6 18.25 19.45 17.8 19.35 17.7 19.35 17.5 19.4 17.15 19.75 17.0 19.85 16.85 20.15 16.6 20.65 16.5 20.15 16.45 20.1 16.4 19.9 16.3 19.7 15.7 19.2 15.55 19.25 15.35 19.35 15.75 18.9 15.9 18.7 M19.9 18.0 L21.0 16.8 21.85 16.1 22.5 15.6 22.65 15.55 23.05 15.95 23.15 17.0 23.0 16.9 22.45 16.6 22.4 16.55 20.7 17.65 19.8 18.4 19.85 18.2 19.9 18.0 M22.35 16.1 L22.45 16.2 22.55 16.2 22.65 16.15 22.7 16.0 22.65 15.95 22.6 15.95 22.5 15.95 22.4 16.0 22.35 16.1 M16.75 18.55 L16.7 18.65 16.9 18.95 17.05 19.0 17.25 18.8 17.1 18.5 17.0 18.45 16.75 18.55" fill="#d1ec43" fill-rule="evenodd" stroke="none"/>
      <path d="M22.35 16.1 L22.4 16.0 22.5 15.95 22.6 15.95 22.65 15.95 22.7 16.0 22.65 16.15 22.55 16.2 22.45 16.2 22.35 16.1 M16.75 18.55 L17.0 18.45 17.1 18.5 17.25 18.8 17.05 19.0 16.9 18.95 16.7 18.65 16.75 18.55" fill="#f0ffa1" fill-rule="evenodd" stroke="none"/>
      <path d="M12.8 18.35 L13.1 18.75 13.85 19.8 13.9 19.95 13.9 20.0 13.2 20.75 13.1 20.85 12.45 21.35 11.85 21.75 11.0 21.45 10.8 21.35 10.7 21.3 11.1 20.5 11.65 19.75 10.85 20.5 10.15 21.05 10.1 21.1 8.25 20.1 7.9 19.6 8.25 19.5 8.4 19.4 8.45 19.4 8.75 19.3 8.5 19.35 8.35 19.35 8.15 19.35 7.8 19.4 7.5 18.85 7.55 18.85 7.95 18.8 7.45 18.75 6.95 17.4 7.2 16.75 7.7 15.9 7.15 16.15 7.1 16.2 6.75 16.35 6.7 16.35 6.7 14.6 6.75 14.6 7.05 14.45 7.15 14.5 10.3 16.5 11.15 17.1 12.8 18.35 M14.5 19.55 L14.6 19.45 15.75 18.8 15.9 18.7 15.75 18.9 15.35 19.35 15.55 19.25 15.7 19.2 16.3 19.7 16.4 19.9 16.45 20.1 16.5 20.15 16.6 20.65 16.85 20.15 17.0 19.85 17.15 19.75 17.5 19.4 17.7 19.35 17.8 19.35 18.25 19.45 18.7 19.6 18.85 19.75 18.85 19.8 18.85 19.95 18.85 20.3 18.55 21.4 18.2 22.15 18.0 22.1 17.85 22.05 17.5 21.9 16.9 21.6 15.85 22.25 15.25 22.1 Q14.65 21.75 14.6 20.7 L14.55 20.5 14.6 20.45 14.7 20.25 14.85 20.05 15.25 19.5 15.35 19.35 15.15 19.45 15.05 19.5 15.0 19.5 14.55 19.65 14.35 19.7 14.25 19.75 14.3 19.65 14.5 19.55 M23.05 15.95 L23.45 16.5 23.6 16.65 23.6 17.3 23.5 17.25 23.2 17.0 23.15 17.0 23.15 17.15 23.15 17.25 23.1 17.7 23.05 18.0 23.0 18.05 22.35 18.35 22.75 18.65 22.9 18.9 22.95 19.0 22.6 19.4 21.05 20.8 20.95 20.9 20.75 21.0 20.45 21.25 20.45 21.3 20.5 21.0 20.6 20.85 20.65 20.7 20.7 20.6 20.6 20.7 20.5 20.8 20.15 21.15 20.1 21.2 19.9 21.05 19.75 20.95 19.75 20.7 19.8 20.5 19.8 20.45 19.85 20.0 19.95 19.45 19.5 20.2 Q19.5 19.2 19.8 18.4 L20.7 17.65 22.4 16.55 22.45 16.6 23.0 16.9 23.15 17.0 23.05 15.95 M19.35 22.45 L18.35 22.9 17.8 23.1 17.15 22.95 16.6 22.95 15.75 23.1 15.3 23.25 15.8 23.5 15.2 23.5 15.1 23.5 14.5 23.25 14.45 23.3 14.35 23.45 14.35 23.5 13.1 23.3 13.5 23.15 Q14.9 22.7 15.65 22.7 L15.9 22.75 16.1 22.7 16.35 22.65 17.05 22.65 17.25 22.65 17.8 22.7 18.2 22.8 18.35 22.9 18.95 22.55 19.35 22.45" fill="#8cbe29" fill-rule="evenodd" stroke="none"/>
      <path d="M19.7 18.3 L19.9 18.0 19.85 18.2 19.8 18.4 Q19.5 19.2 19.5 20.2 L19.95 19.45 19.85 20.0 19.8 20.45 19.8 20.5 19.75 20.7 19.75 20.95 19.9 21.05 20.1 21.2 20.15 21.15 20.5 20.8 20.6 20.7 20.7 20.6 20.65 20.7 20.6 20.85 20.5 21.0 20.45 21.3 20.45 21.25 20.75 21.0 20.95 20.9 21.05 20.8 22.6 19.4 21.5 20.85 20.35 21.85 19.75 22.25 19.65 22.25 18.35 22.55 19.45 22.4 19.35 22.45 18.95 22.55 18.35 22.9 18.2 22.8 17.8 22.7 17.25 22.65 17.05 22.65 16.35 22.65 16.1 22.7 15.9 22.75 15.65 22.7 Q14.9 22.7 13.5 23.15 L13.1 23.3 11.95 22.95 12.9 22.75 13.65 22.65 10.9 22.45 9.15 21.15 9.0 21.0 8.25 20.1 10.1 21.1 10.15 21.05 10.85 20.5 11.65 19.75 11.1 20.5 10.7 21.3 10.8 21.35 11.0 21.45 11.85 21.75 12.45 21.35 13.1 20.85 13.2 20.75 13.9 20.0 13.9 19.95 13.95 19.9 14.0 19.9 14.05 19.9 14.25 19.75 14.35 19.7 14.55 19.65 15.0 19.5 15.05 19.5 15.15 19.45 15.35 19.35 15.25 19.5 14.85 20.05 14.7 20.25 14.6 20.45 14.55 20.5 14.6 20.7 Q14.65 21.75 15.25 22.1 L15.85 22.25 16.9 21.6 17.5 21.9 17.85 22.05 18.0 22.1 18.2 22.15 18.55 21.4 18.85 20.3 18.85 19.95 18.85 19.8 18.95 19.85 18.9 19.8 18.95 19.7 19.45 18.75 19.7 18.3 M23.5 17.25 L22.9 18.9 22.75 18.65 22.35 18.35 23.0 18.05 23.05 18.0 23.1 17.7 23.15 17.25 23.15 17.15 23.15 17.0 23.2 17.0 23.5 17.25 M15.1 23.5 L14.35 23.5 14.35 23.45 14.45 23.3 14.5 23.25 15.1 23.5 M7.9 19.6 L7.8 19.5 7.75 19.4 7.8 19.4 8.15 19.35 8.35 19.35 8.5 19.35 8.75 19.3 8.45 19.4 8.4 19.4 8.25 19.5 7.9 19.6 M7.5 18.85 L7.45 18.75 7.95 18.8 7.55 18.85 7.5 18.85 M6.95 17.4 L6.75 16.35 7.1 16.2 7.15 16.15 7.7 15.9 7.2 16.75 6.95 17.4" fill="#569515" fill-rule="evenodd" stroke="none"/>
      <path d="M22.1 21.15 L22.15 21.15 22.15 21.2 22.1 21.15" fill="#33700b" fill-rule="evenodd" stroke="none"/>
      <path d="M19.75 22.25 L19.45 22.4 18.35 22.55 19.65 22.25 19.75 22.25 M11.95 22.95 L10.9 22.45 13.65 22.65 12.9 22.75 11.95 22.95" fill="#357b11" fill-rule="evenodd" stroke="none"/>
      <path d="M14.85 7.25 L14.85 7.2 14.9 7.25 15.5 8.0 15.85 8.3 15.9 8.35 16.1 8.55 16.15 8.55 16.25 8.4 16.2 8.25 15.75 7.3 16.15 7.3 16.55 7.85 16.8 8.35 16.85 8.35 17.05 8.25 17.2 7.9 17.2 7.85 17.55 8.7 17.5 8.85 17.5 8.95 17.45 9.0 17.35 9.15 17.35 9.2 16.9 8.9 17.0 9.3 16.75 9.4 16.65 9.3 16.55 9.25 15.85 9.0 15.7 8.95 14.4 8.5 14.3 8.5 13.75 8.3 13.75 7.8 14.95 8.2 15.4 8.35 15.45 8.4 15.45 8.35 15.4 8.3 15.15 7.75 14.85 7.25" fill="#1d8315" fill-rule="evenodd" stroke="none"/>
      <path d="M14.85 7.25 L15.15 7.75 15.4 8.3 15.45 8.35 15.45 8.4 15.4 8.35 14.95 8.2 13.75 7.8 13.8 7.35 14.85 7.25 M17.2 7.85 L17.2 7.9 17.05 8.25 16.85 8.35 16.8 8.35 16.55 7.85 16.15 7.3 17.05 7.45 17.15 7.7 17.2 7.75 17.2 7.85 M15.75 7.3 L16.2 8.25 16.25 8.4 16.15 8.55 16.1 8.55 15.9 8.35 15.85 8.3 15.5 8.0 14.9 7.25 15.2 7.25 15.75 7.3" fill="#40ae27" fill-rule="evenodd" stroke="none"/>
      <path d="M13.75 7.8 L13.75 8.3 12.9 8.0 12.2 7.75 13.0 7.5 13.75 7.8" fill="#438e14" fill-rule="evenodd" stroke="none"/>
      <path d="M13.0 7.5 L13.8 7.35 13.75 7.8 13.0 7.5" fill="#5dba24" fill-rule="evenodd" stroke="none"/>
      <path d="M16.75 9.4 L17.0 9.3 16.9 8.9 17.35 9.2 17.35 9.15 17.45 9.0 17.5 8.95 17.5 8.85 17.55 8.7 17.65 8.9 17.7 9.0 17.9 9.55 17.55 10.55 17.2 10.4 17.15 10.4 17.0 9.7 16.75 9.4" fill="#1c5b0f" fill-rule="evenodd" stroke="none"/>
      <path d="M19.0 10.75 L19.0 10.65 19.05 10.65 19.1 10.6 19.2 10.55 19.5 10.65 19.65 10.75 19.75 10.9 19.5 11.0 19.3 11.0 19.15 10.95 19.0 10.75" fill="#fffd80" fill-rule="evenodd" stroke="none"/>
      <path d="M6.7 14.0 L6.7 13.75 6.85 13.8 6.95 13.8 7.1 14.0 7.05 14.15 6.95 14.15 6.8 14.1 6.75 14.05 6.7 14.0" fill="#f6ffc6" fill-rule="evenodd" stroke="none"/>
      <path d="M17.8 23.1 L15.8 23.5 15.3 23.25 15.75 23.1 16.6 22.95 17.15 22.95 17.8 23.1" fill="#a4db36" fill-rule="evenodd" stroke="none"/>
      <path d="M21.3 13.75 L21.0 14.5 Q20.7 14.85 20.25 14.85 19.85 14.85 19.5 14.5 19.2 14.2 19.2 13.75 19.2 13.4 19.35 13.15 L19.5 12.95 Q19.85 12.6 20.25 12.6 20.7 12.6 21.0 12.95 L21.2 13.2 21.3 13.75 M22.4 14.25 Q22.0 12.15 20.25 10.55 L20.05 10.35 18.35 9.25 18.2 9.2 17.7 9.0 17.9 9.55 17.55 10.55 17.5 10.65 M13.4 8.6 Q11.75 8.9 10.35 9.8 L9.35 10.55 Q8.45 11.35 7.9 12.35 L7.55 13.05 7.35 13.7 6.9 13.5 M9.7 15.35 L10.9 16.35 12.8 18.35 13.1 18.75 13.85 19.8 13.9 19.95 M14.5 19.55 L14.6 19.45 15.75 18.8 15.9 18.7 16.9 18.15 17.75 18.75 Q18.1 18.95 18.4 19.3 L18.7 19.6 18.85 19.75 18.85 19.8 18.95 19.85 M19.7 18.3 L19.9 18.0 21.0 16.8 21.85 16.1 22.5 15.6 22.65 15.55 23.05 15.95 23.45 16.5 23.6 16.65 M22.45 14.45 L22.4 14.25 M22.45 14.45 L22.5 15.45 22.5 15.5 22.5 15.6 M13.75 8.3 L14.3 8.5 14.4 8.5 15.7 8.95 15.85 9.0 16.55 9.25 16.65 9.3 16.75 9.4 17.0 9.7 17.15 10.4 M17.55 8.7 L17.2 7.85 17.2 7.75 M13.75 8.3 L12.9 8.0 12.2 7.75 M13.4 8.6 L14.4 8.5 M14.8 11.85 Q15.3 12.3 15.3 12.95 L15.3 13.2 14.8 14.05 Q14.25 14.5 13.5 14.5 12.8 14.5 12.25 14.05 11.75 13.6 11.75 12.95 L11.85 12.4 12.25 11.85 Q12.8 11.35 13.5 11.35 14.25 11.35 14.8 11.85 M17.05 7.45 L17.15 7.7 M17.55 8.7 L17.65 8.9 17.7 9.0 M9.7 15.35 L7.35 13.7 M17.2 14.85 Q17.3 14.65 17.65 14.55 L17.95 14.5 18.35 14.65 18.5 14.95 M14.25 19.75 L14.05 19.9 14.0 19.9 M14.25 19.75 L14.3 19.65 14.5 19.55 M19.7 18.3 L19.45 18.75 18.95 19.7 18.9 19.8" fill="none" stroke="#48130f" stroke-linecap="round" stroke-linejoin="round" stroke-width="0.2"/>
      <path d="M10.25 21.75 L9.2 20.9 9.05 20.75 Q6.75 18.45 6.75 15.2 6.75 12.0 9.1 9.65 L9.2 9.55 Q11.65 7.25 15.25 7.25 L15.95 7.25 Q9.25 12.5 10.25 21.75" fill="#ffffff" fill-opacity="0.2" fill-rule="evenodd" stroke="none"/>
      <path d="M11.8 10.1 L10.7 11.8 9.5 13.15 Q8.95 13.05 8.85 12.75 L8.85 12.4 Q9.15 10.8 10.6 9.7 11.2 9.2 11.55 9.3 11.95 9.4 11.8 10.1 M8.2 15.0 L8.25 14.6 Q8.35 13.8 9.15 13.9 10.0 14.0 9.85 14.75 L9.55 15.25 Q9.2 15.55 8.85 15.5 8.3 15.4 8.2 15.0" fill="#ffffff" fill-rule="evenodd" stroke="none"/>
    </g>
  </defs>
</svg>
