<?xml version="1.0" encoding="UTF-8" standalone="no"?>
<svg xmlns:ffdec="https://www.free-decompiler.com/flash" xmlns:xlink="http://www.w3.org/1999/xlink" ffdec:objectType="frame" height="30.05px" width="30.0px" xmlns="http://www.w3.org/2000/svg">
  <g transform="matrix(1.0, 0.0, 0.0, 1.0, 0.0, 0.0)">
    <use ffdec:characterId="1" height="30.0" transform="matrix(1.0, 0.0, 0.0, 1.0, 0.0, 0.0)" width="30.0" xlink:href="#shape0"/>
    <use ffdec:characterId="3" height="30.0" transform="matrix(1.0, 0.0, 0.0, 1.0, 0.0, 0.05)" width="30.0" xlink:href="#sprite0"/>
  </g>
  <defs>
    <g id="shape0" transform="matrix(1.0, 0.0, 0.0, 1.0, 0.0, 0.0)">
      <path d="M0.0 0.0 L30.0 0.0 30.0 30.0 0.0 30.0 0.0 0.0" fill="#33cc66" fill-opacity="0.0" fill-rule="evenodd" stroke="none"/>
    </g>
    <g id="sprite0" transform="matrix(1.0, 0.0, 0.0, 1.0, 0.0, 0.0)">
      <use ffdec:characterId="2" height="30.0" transform="matrix(1.0, 0.0, 0.0, 1.0, 0.0, 0.0)" width="30.0" xlink:href="#shape1"/>
    </g>
    <g id="shape1" transform="matrix(1.0, 0.0, 0.0, 1.0, 0.0, 0.0)">
      <path d="M29.95 15.0 L30.0 15.05 29.85 15.0 29.95 15.0" fill="url(#gradient0)" fill-rule="evenodd" stroke="none"/>
      <path d="M30.0 15.05 L29.95 15.1 29.35 15.0 29.85 15.0 30.0 15.05" fill="url(#gradient1)" fill-rule="evenodd" stroke="none"/>
      <path d="M15.0 29.95 L14.95 30.0 14.95 29.85 15.0 29.9 15.0 29.95 M22.05 21.9 L22.05 21.85 22.1 21.9 22.05 21.9" fill="url(#gradient2)" fill-rule="evenodd" stroke="none"/>
      <path d="M4.6 4.3 L4.65 4.3 4.65 4.35 4.6 4.3" fill="url(#gradient3)" fill-rule="evenodd" stroke="none"/>
      <path d="M4.6 4.35 L4.6 4.3 4.65 4.35 4.6 4.35" fill="url(#gradient4)" fill-rule="evenodd" stroke="none"/>
      <path d="M4.5 25.8 L4.5 25.65 4.6 25.7 4.5 25.8 M7.75 9.15 L7.85 9.1 7.75 9.2 7.75 9.15" fill="#4dc4c2" fill-rule="evenodd" stroke="none"/>
      <path d="M0.05 15.0 L0.0 14.95 0.3 14.95 0.05 15.0" fill="url(#gradient5)" fill-rule="evenodd" stroke="none"/>
      <path d="M15.0 0.1 L19.1 5.15 26.0 4.3 26.0 4.5 25.95 4.45 25.55 4.8 21.25 8.05 21.1 7.95 Q19.15 6.5 16.55 6.1 L15.0 0.1 13.9 6.05 Q11.6 6.3 9.5 7.65 L4.65 4.35 7.75 9.15 7.75 9.2 Q5.85 11.25 5.5 13.85 L0.3 14.95 0.0 14.95 5.1 11.05 4.6 4.35 4.65 4.35 4.65 4.3 10.95 5.15 14.95 0.0 15.0 0.1 M26.0 4.5 L25.25 11.3 29.95 15.0 29.85 15.0 29.35 15.0 24.75 14.25 Q24.5 11.8 23.0 9.8 L26.0 4.5 M29.85 15.15 L25.2 19.1 26.05 25.85 26.05 25.9 18.95 25.4 15.05 29.9 16.1 24.65 Q18.9 24.4 21.15 22.7 L26.05 25.85 22.55 21.4 Q24.45 19.2 24.75 16.4 L29.85 15.15 M14.95 30.0 L11.05 25.4 4.5 25.8 9.3 22.9 Q11.3 24.35 13.85 24.65 L14.95 29.85 14.95 30.0 M4.5 25.65 L5.05 19.3 0.05 15.0 5.4 15.85 Q5.55 18.85 7.5 21.2 L4.6 25.7 4.5 25.65" fill="#d81114" fill-rule="evenodd" stroke="none"/>
      <path d="M15.0 0.1 L16.55 6.1 Q19.15 6.5 21.1 7.95 L21.25 8.05 25.55 4.8 25.95 4.45 26.0 4.5 23.0 9.8 Q24.5 11.8 24.75 14.25 L29.35 15.0 29.95 15.1 29.85 15.15 24.75 16.4 Q24.45 19.2 22.55 21.4 L26.05 25.85 21.15 22.7 Q18.9 24.4 16.1 24.65 L15.05 29.9 15.0 29.95 15.0 29.9 14.95 29.85 13.85 24.65 Q11.3 24.35 9.3 22.9 L4.5 25.8 4.6 25.7 7.5 21.2 Q5.55 18.85 5.4 15.85 L0.05 15.0 0.3 14.95 5.5 13.85 Q5.85 11.25 7.75 9.2 L7.85 9.1 7.75 9.15 4.65 4.35 9.5 7.65 Q11.6 6.3 13.9 6.05 L15.0 0.1 M22.05 21.9 L22.1 21.9 22.05 21.85 22.05 21.9 M23.6 15.35 Q23.6 12.0 21.15 9.55 18.6 7.2 15.2 7.2 11.6 7.2 9.15 9.55 L9.05 9.7 Q6.65 12.1 6.65 15.35 6.65 18.65 9.0 21.0 L9.15 21.15 Q11.6 23.5 15.2 23.5 18.65 23.5 21.5 20.85 23.6 18.5 23.6 15.35" fill="#ffdc66" fill-rule="evenodd" stroke="none"/>
      <path d="M23.6 15.35 Q23.6 18.5 21.5 20.85 18.65 23.5 15.2 23.5 11.6 23.5 9.15 21.15 L9.0 21.0 Q6.65 18.65 6.65 15.35 6.65 12.1 9.05 9.7 L9.15 9.55 Q11.6 7.2 15.2 7.2 18.6 7.2 21.15 9.55 23.6 12.0 23.6 15.35" fill="#670e16" fill-rule="evenodd" stroke="none"/>
      <path d="M17.65 16.75 L17.6 16.4 17.6 15.8 18.1 15.65 18.0 15.85 18.0 16.4 18.0 16.45 18.4 17.15 19.25 17.35 20.0 16.85 20.25 16.2 20.65 16.6 20.4 17.1 Q20.0 17.65 19.35 17.75 18.7 17.85 18.2 17.45 L17.65 16.75 M20.05 15.85 L20.15 16.0 20.2 16.2 20.1 16.4 19.95 16.5 19.85 16.5 19.7 16.45 19.55 16.2 19.6 16.05 19.65 16.0 19.75 15.9 20.05 15.85 M13.55 15.65 L13.75 15.75 13.95 15.85 13.9 15.85 13.95 15.9 14.0 16.1 13.95 16.3 13.85 16.4 13.65 16.45 Q13.4 16.45 13.3 16.25 L13.25 16.15 13.2 16.05 13.25 15.9 Q13.3 15.7 13.55 15.65 M11.5 16.8 L11.55 17.0 11.9 17.55 Q12.3 17.9 12.9 17.9 L13.9 17.55 Q14.3 17.15 14.3 16.6 L14.0 15.85 14.7 15.9 14.85 16.55 Q14.85 17.3 14.25 17.85 13.7 18.35 12.9 18.35 12.1 18.35 11.55 17.85 L11.1 17.25 11.5 16.8" fill="#ffffff" fill-rule="evenodd" stroke="none"/>
      <path d="M22.7 18.2 L22.2 19.1 22.05 18.9 21.8 17.7 21.85 17.3 21.9 17.1 21.95 17.35 21.95 17.65 21.95 17.7 Q22.05 18.15 22.3 18.25 L22.45 18.3 22.7 18.2 M7.75 19.4 L7.25 18.45 7.25 18.35 7.3 18.35 7.2 17.6 7.1 17.15 7.0 16.95 6.95 16.85 6.95 16.8 7.2 17.05 7.55 17.5 8.0 18.25 7.8 18.6 7.6 19.0 7.65 19.1 7.7 19.2 7.75 19.35 7.75 19.4 M7.35 12.1 L8.05 10.9 8.2 11.0 8.6 11.15 8.7 11.1 8.75 11.1 8.95 10.75 9.15 10.45 9.7 10.75 9.75 10.75 10.25 11.0 10.35 11.05 10.45 11.05 11.0 10.55 11.3 10.15 11.35 10.1 11.4 9.95 11.5 10.05 11.45 10.05 11.45 10.1 11.05 10.75 10.5 11.35 10.3 11.5 9.9 11.75 9.8 11.8 9.45 11.95 9.05 12.05 9.35 12.5 9.4 12.55 9.7 12.95 9.2 13.0 9.1 13.0 8.6 12.95 7.4 12.65 7.35 12.1 M17.1 9.8 L18.05 9.3 18.0 9.5 17.85 10.2 17.85 10.5 17.95 10.6 18.0 10.6 18.3 10.65 18.6 10.6 18.55 11.15 18.55 11.6 18.05 11.25 18.0 11.2 17.7 11.15 17.65 10.75 17.45 10.6 17.15 10.55 17.1 9.8 M19.95 12.0 L19.95 12.05 19.75 12.05 19.7 12.05 19.05 12.1 18.85 11.9 19.15 11.95 19.55 12.0 19.6 12.0 19.75 12.0 19.95 12.0 M18.0 15.1 Q18.35 14.7 18.95 14.6 19.6 14.5 20.1 14.9 20.65 15.25 20.7 15.9 L20.4 15.65 19.9 15.4 19.8 15.25 19.05 15.05 18.9 15.0 18.65 15.0 18.0 15.1 M13.05 15.3 L12.9 15.3 Q12.35 15.3 11.95 15.6 L11.55 15.85 Q11.25 16.05 10.95 16.4 11.05 15.75 11.55 15.25 12.1 14.75 12.9 14.75 13.7 14.75 14.25 15.25 L13.75 15.25 13.05 15.3" fill="#fa895d" fill-rule="evenodd" stroke="none"/>
      <path d="M6.65 15.75 L6.65 15.2 6.65 14.05 6.7 14.5 6.65 15.2 6.7 14.5 6.7 14.7 6.75 15.15 6.65 15.75 M9.8 9.0 Q10.6 8.35 11.55 7.95 L13.25 9.7 13.85 10.65 12.55 9.75 12.2 9.95 11.7 10.15 12.15 10.55 12.05 11.0 12.0 11.35 12.0 11.5 11.85 11.85 11.75 12.0 11.6 12.4 11.5 12.55 11.4 12.7 11.35 12.8 11.15 12.95 11.05 13.0 10.5 13.3 10.1 13.45 9.55 13.7 9.25 14.15 9.05 14.45 Q8.6 15.1 8.1 15.35 L8.05 15.35 7.65 15.45 7.85 15.05 8.0 14.85 8.05 14.75 8.1 14.7 8.0 14.45 7.5 13.05 7.45 12.9 7.4 12.65 8.6 12.95 9.1 13.0 9.2 13.0 9.7 12.95 9.4 12.55 9.35 12.5 9.05 12.05 9.45 11.95 9.8 11.8 9.9 11.75 10.3 11.5 10.5 11.35 11.05 10.75 11.45 10.1 11.45 10.05 11.5 10.05 11.4 9.95 10.4 9.35 10.35 9.3 10.3 9.3 9.95 9.1 9.8 9.0 M13.95 10.8 L14.55 10.75 14.6 10.75 15.0 10.8 15.8 10.85 15.9 10.85 15.95 10.85 15.95 10.65 16.05 10.6 16.15 10.5 16.35 10.35 17.1 9.8 17.15 10.55 17.45 10.6 17.65 10.75 17.7 11.15 18.0 11.2 18.05 11.25 18.55 11.6 18.85 11.9 19.05 12.1 19.7 12.05 19.75 12.05 19.95 12.05 19.95 12.1 20.0 12.2 19.95 12.45 19.95 12.5 19.55 12.75 19.6 12.8 19.65 12.85 19.7 12.95 20.0 13.4 20.35 13.95 20.3 13.95 19.95 13.45 19.65 13.2 19.6 13.1 19.55 13.1 19.5 13.05 19.45 13.0 19.25 12.85 18.6 12.5 17.9 12.0 17.7 11.9 16.45 11.35 16.05 11.3 15.85 11.25 15.8 11.25 15.0 11.2 14.7 11.2 14.25 11.35 14.2 11.4 13.9 11.6 13.25 12.0 12.7 11.9 12.6 11.9 12.8 11.25 12.55 11.0 12.55 10.95 13.9 10.8 13.95 10.8 M11.5 10.05 L11.65 10.15 11.7 10.15 11.65 10.15 11.5 10.05 M17.7 11.15 L16.05 10.85 15.95 10.85 16.05 10.85 17.7 11.15 M19.55 12.75 L19.05 12.1 19.55 12.75" fill="#f73433" fill-rule="evenodd" stroke="none"/>
      <path d="M17.3 23.25 L16.9 23.35 16.6 23.4 16.5 23.4 16.35 23.35 16.3 23.35 16.05 23.4 15.8 23.4 16.05 23.2 16.25 23.1 16.55 23.05 17.3 23.25" fill="#adfca0" fill-rule="evenodd" stroke="none"/>
      <path d="M17.6 23.2 L17.3 23.25 16.55 23.05 16.25 23.1 16.05 23.2 15.8 23.4 15.65 23.45 15.55 23.5 14.95 23.5 15.0 23.35 15.15 23.2 15.2 23.1 15.4 22.85 15.55 22.7 15.7 22.7 15.8 22.7 16.05 22.7 16.2 22.7 17.2 22.95 17.55 23.15 17.6 23.2" fill="#7ddc8a" fill-rule="evenodd" stroke="none"/>
      <path d="M8.8 10.0 L9.05 9.7 9.1 9.65 9.3 9.7 9.45 9.3 9.8 9.0 9.95 9.1 10.3 9.3 10.3 9.4 10.2 9.65 10.0 9.85 9.95 9.9 9.8 9.9 9.75 9.85 9.45 9.8 9.45 9.85 9.3 9.7 9.2 10.0 8.8 10.0 M18.85 8.95 L18.9 8.9 19.15 8.85 Q19.05 9.25 19.1 9.65 L19.2 10.4 19.9 10.25 19.9 10.65 19.9 10.95 19.75 10.95 19.3 10.95 19.25 10.85 19.25 10.8 19.2 10.6 19.15 10.6 19.2 10.4 18.95 10.5 18.8 10.05 18.8 9.9 18.85 8.95" fill="#f8f34d" fill-rule="evenodd" stroke="none"/>
      <path d="M14.95 23.5 L13.95 23.5 14.05 23.45 14.65 23.0 15.05 22.8 15.4 22.7 15.55 22.7 15.4 22.85 15.2 23.1 15.15 23.2 15.0 23.35 14.95 23.5 14.05 23.45 14.95 23.5 M11.35 22.7 L10.2 22.0 9.9 21.45 10.4 21.5 10.5 21.5 10.6 21.3 11.0 21.45 11.35 21.6 11.65 21.65 11.65 21.9 11.7 21.9 11.75 22.1 11.75 22.15 11.7 22.15 11.6 22.25 11.5 22.35 11.45 22.5 11.35 22.7 M7.25 12.3 L7.35 12.1 7.4 12.65 7.45 12.9 7.25 12.3 M9.1 9.65 L9.15 9.55 9.45 9.3 9.3 9.7 9.1 9.65 M7.5 13.05 L8.0 14.45 8.1 14.7 8.05 14.75 8.0 14.85 7.95 14.7 7.65 13.5 7.5 13.05 M11.0 21.45 L10.5 21.5 11.0 21.45 M11.75 22.1 L11.65 21.9 11.75 22.1" fill="#718b4f" fill-rule="evenodd" stroke="none"/>
      <path d="M21.95 17.05 L22.15 17.35 22.65 17.85 22.8 18.0 22.75 18.1 22.7 18.2 22.45 18.3 22.3 18.25 Q22.05 18.15 21.95 17.7 L21.95 17.65 21.95 17.35 21.9 17.1 21.95 17.05 M7.25 18.45 L6.85 17.2 6.95 16.95 6.95 16.85 7.0 16.95 7.1 17.15 7.2 17.6 7.3 18.35 7.25 18.35 7.25 18.45 M8.05 10.9 L8.8 10.0 9.2 10.0 9.3 9.7 9.45 9.85 9.45 9.8 9.75 9.85 9.8 9.9 9.95 9.9 10.0 9.85 10.2 9.65 10.3 9.4 10.3 9.3 10.35 9.3 10.4 9.35 11.4 9.95 11.35 10.1 11.3 10.15 11.0 10.55 10.45 11.05 10.35 11.05 10.25 11.0 9.75 10.75 9.7 10.75 9.15 10.45 8.95 10.75 8.75 11.1 8.7 11.1 8.6 11.15 8.2 11.0 8.05 10.9 M18.05 9.3 L18.85 8.95 18.8 9.9 18.8 10.05 18.95 10.5 19.05 10.55 19.15 10.6 19.2 10.6 19.25 10.8 19.25 10.85 19.3 10.95 19.75 10.95 19.9 10.95 19.9 11.75 19.9 11.8 19.95 12.0 19.75 12.0 19.6 12.0 19.55 12.0 19.15 11.95 18.85 11.9 18.55 11.6 18.55 11.15 18.6 10.6 18.3 10.65 18.0 10.6 17.95 10.6 17.85 10.5 17.85 10.2 18.0 9.5 18.05 9.3" fill="#ffdc66" fill-rule="evenodd" stroke="none"/>
      <path d="M10.2 22.0 L9.35 21.35 9.55 21.35 9.65 21.4 9.9 21.45 10.2 22.0 M6.85 17.2 L6.65 15.75 6.75 15.15 6.7 14.7 6.7 14.5 Q6.8 13.35 7.25 12.3 L7.45 12.9 7.5 13.05 7.65 13.5 7.95 14.7 8.0 14.85 7.85 15.05 7.65 15.45 7.2 16.35 7.1 16.55 6.95 16.8 6.95 16.85 6.95 16.95 6.85 17.2 M13.85 10.65 L13.95 10.8 13.9 10.8 12.55 10.95 12.15 10.55 11.7 10.15 12.2 9.95 12.55 9.75 13.85 10.65 M8.0 17.8 L8.05 18.05 8.0 17.95 8.0 17.8" fill="#d10909" fill-rule="evenodd" stroke="none"/>
      <path d="M21.55 16.45 L21.6 16.55 21.9 17.0 21.95 17.05 21.9 17.1 21.85 17.3 21.8 17.7 22.05 18.9 22.2 19.1 22.1 19.25 21.95 19.4 21.7 19.6 21.5 19.8 21.45 19.85 20.95 20.2 20.4 20.45 20.8 20.05 20.8 20.0 21.1 19.45 21.15 19.4 21.25 19.2 21.3 18.95 21.3 18.9 21.5 18.25 21.5 18.0 21.55 17.7 21.55 16.75 21.55 16.55 21.55 16.45 M19.05 21.55 L19.05 21.7 19.05 21.85 18.85 22.3 18.3 22.6 18.1 22.6 18.0 22.6 17.85 22.55 17.55 22.45 17.55 22.4 17.25 22.25 17.3 22.2 17.25 22.15 17.0 21.85 16.8 21.6 16.7 21.35 17.2 21.45 17.25 21.45 17.45 21.4 17.55 21.5 17.65 21.55 17.9 21.65 18.0 21.7 18.4 21.75 19.0 21.6 19.05 21.55 M14.05 23.45 L13.2 23.3 13.6 23.05 13.85 22.85 14.15 22.45 14.2 22.45 14.7 22.5 14.9 22.5 15.35 22.45 15.5 22.45 15.75 22.4 16.05 22.3 16.15 22.3 16.05 22.35 15.7 22.55 15.55 22.7 15.4 22.7 15.05 22.8 14.65 23.0 14.05 23.45 M8.45 20.4 L7.75 19.4 7.75 19.35 7.7 19.2 7.65 19.1 7.6 19.0 7.8 18.6 8.0 18.25 7.55 17.5 7.2 17.05 6.95 16.8 7.1 16.55 7.2 16.35 7.65 15.45 8.05 15.35 8.1 15.35 Q8.6 15.1 9.05 14.45 L9.25 14.15 9.55 13.7 10.1 13.45 10.5 13.3 9.9 13.85 9.5 14.3 9.5 14.35 9.3 14.55 9.25 14.65 8.45 15.8 8.3 16.2 8.0 17.1 8.0 17.8 8.0 17.95 8.05 18.05 8.05 18.2 8.2 18.65 8.4 19.3 8.45 19.6 8.5 20.05 8.45 20.2 8.45 20.4 M19.95 12.5 L19.8 12.85 19.7 12.95 19.65 12.85 19.6 12.8 19.55 12.75 19.95 12.5 M12.15 10.55 L12.55 10.95 12.55 11.0 12.8 11.25 12.6 11.9 12.7 11.9 13.25 12.0 13.9 11.6 14.2 11.4 14.25 11.35 14.7 11.2 15.0 11.2 15.8 11.25 15.85 11.25 16.05 11.3 16.45 11.35 17.7 11.9 17.9 12.0 18.6 12.5 18.25 12.4 17.95 12.35 Q17.55 12.35 17.2 12.75 L17.15 12.85 17.0 13.05 16.9 13.35 16.85 13.45 16.75 13.7 16.15 13.45 16.05 13.4 15.75 13.3 15.45 13.2 14.8 13.0 14.35 12.9 14.25 12.9 13.4 12.75 13.35 12.75 12.15 12.65 12.1 12.65 11.85 12.65 11.7 12.65 11.15 12.95 11.35 12.8 11.4 12.7 11.5 12.55 11.6 12.4 11.75 12.0 11.85 11.85 12.0 11.5 12.0 11.35 12.05 11.0 12.15 10.55 M13.1 21.0 L13.1 21.15 13.2 21.55 13.45 21.75 13.65 21.85 13.75 21.9 14.1 21.9 14.2 21.9 14.3 21.9 13.9 22.4 13.5 22.6 13.35 22.65 13.4 22.75 13.2 22.8 12.95 22.7 12.65 22.5 12.45 22.25 12.35 22.1 12.3 21.75 12.25 21.7 12.45 20.8 Q12.7 20.3 13.0 20.1 L13.0 20.15 13.1 21.0" fill="#d81114" fill-rule="evenodd" stroke="none"/>
      <path d="M18.1 22.6 L18.1 22.65 18.25 22.85 17.85 22.9 17.45 22.85 17.3 22.75 16.75 22.2 16.35 22.25 16.15 22.3 16.05 22.3 15.75 22.4 15.5 22.45 15.35 22.45 14.9 22.5 14.7 22.5 14.2 22.45 14.15 22.45 13.85 22.85 13.6 23.05 13.2 23.3 11.35 22.7 11.45 22.5 11.5 22.35 11.6 22.25 11.7 22.15 11.75 22.15 11.75 22.1 11.7 21.9 11.65 21.9 11.65 21.65 11.85 20.95 Q12.2 20.05 13.0 20.0 L13.0 20.1 Q12.7 20.3 12.45 20.8 L12.25 21.7 12.3 21.75 12.35 22.1 12.45 22.25 12.65 22.5 12.95 22.7 13.2 22.8 13.4 22.75 13.35 22.65 13.5 22.6 13.9 22.4 14.3 21.9 14.4 21.9 14.7 21.9 15.9 21.9 16.05 21.9 16.5 21.9 16.65 21.85 16.9 21.85 17.0 21.85 17.25 22.15 17.3 22.2 17.25 22.25 17.55 22.4 17.55 22.45 17.85 22.55 18.0 22.6 18.1 22.6 M9.35 21.35 L9.15 21.15 9.0 21.0 8.45 20.4 8.45 20.2 8.5 20.05 8.45 19.6 8.4 19.3 8.2 18.65 8.05 18.2 8.05 18.05 8.0 17.8 8.0 17.1 8.3 16.2 8.45 15.8 9.25 14.65 9.3 14.55 9.5 14.35 9.5 14.3 9.9 13.85 10.5 13.3 11.05 13.0 11.15 12.95 11.7 12.65 11.85 12.65 12.1 12.65 12.15 12.65 13.35 12.75 13.4 12.75 14.25 12.9 14.35 12.9 14.8 13.0 15.45 13.2 15.75 13.3 16.05 13.4 16.15 13.45 16.75 13.7 16.85 13.45 16.9 13.35 17.0 13.05 17.15 12.85 17.2 12.75 Q17.55 12.35 17.95 12.35 L18.25 12.4 18.6 12.5 19.25 12.85 19.45 13.0 19.5 13.05 19.55 13.1 19.6 13.1 19.65 13.2 19.95 13.45 20.3 13.95 20.25 14.0 20.15 13.9 19.45 13.2 19.35 13.15 19.05 12.95 18.95 12.9 18.8 12.85 18.35 12.85 17.9 13.0 17.85 13.05 17.75 13.1 17.65 13.15 17.6 13.2 17.25 13.45 16.9 13.8 16.7 14.15 16.6 14.3 16.55 14.35 16.05 14.0 16.0 13.95 15.05 13.45 14.9 13.45 14.65 13.35 14.55 13.3 14.45 13.25 14.3 13.2 13.35 13.05 12.95 13.05 12.3 13.05 12.15 13.05 12.1 13.05 11.9 13.05 11.2 13.3 11.15 13.35 10.95 13.45 10.8 13.55 10.2 14.0 10.15 14.0 9.6 14.4 9.4 14.65 9.2 15.0 8.85 16.2 8.8 16.45 8.7 17.55 8.7 17.9 8.7 18.15 9.0 19.6 9.15 19.85 9.4 20.25 9.85 20.8 10.05 20.95 10.6 21.3 10.5 21.5 10.4 21.5 9.9 21.45 9.65 21.4 9.55 21.35 9.35 21.35" fill="#af1728" fill-rule="evenodd" stroke="none"/>
      <path d="M20.85 14.8 L21.0 15.0 20.7 15.2 20.6 15.1 20.55 15.0 19.55 14.25 19.45 14.2 19.05 14.05 19.0 14.2 18.8 14.2 18.75 14.2 18.45 14.25 18.2 14.35 Q17.85 14.55 17.85 14.9 L17.95 15.15 17.9 15.25 17.6 15.8 17.6 16.4 17.65 16.75 Q17.65 17.25 18.4 17.65 L18.55 17.7 19.1 17.9 19.4 17.95 19.8 18.0 20.15 17.9 20.55 17.65 20.6 17.6 Q21.1 17.15 21.1 16.5 L21.05 15.95 21.0 15.8 20.95 15.6 20.7 15.2 21.0 15.05 21.1 15.3 21.15 15.35 21.15 15.4 21.2 15.4 21.2 15.45 21.25 15.5 21.3 15.65 21.35 15.7 21.35 15.75 21.5 16.25 21.55 16.45 21.55 16.55 21.55 16.75 21.55 17.7 21.5 18.0 21.5 18.25 21.3 18.9 21.3 18.95 21.25 19.2 21.15 19.4 21.1 19.45 20.8 20.0 20.8 20.05 20.4 20.45 20.25 20.6 19.95 20.8 19.0 21.1 18.95 21.1 18.65 20.65 18.65 20.6 18.25 20.3 18.05 20.25 17.85 20.2 17.75 20.2 17.4 20.25 17.3 20.3 17.15 20.35 16.95 20.55 Q16.7 20.9 16.7 21.15 L16.7 21.25 16.5 21.2 16.05 21.15 15.0 21.0 14.4 20.9 14.35 20.9 14.2 20.8 14.0 20.45 13.85 20.3 13.65 20.15 13.6 20.15 13.45 20.1 Q12.95 19.45 12.95 18.85 L13.0 18.5 13.4 18.55 13.5 18.55 14.1 18.5 14.35 18.4 14.6 18.25 14.7 18.2 15.0 17.7 15.1 17.5 15.15 17.05 Q15.15 15.9 14.25 15.1 L14.0 14.95 13.4 14.65 13.35 14.6 13.25 14.55 13.3 14.5 13.9 13.9 14.05 13.85 14.4 13.95 14.75 14.1 14.95 14.2 15.15 14.3 15.25 14.35 15.8 14.55 16.05 14.7 16.3 14.85 16.5 14.65 16.6 14.55 16.65 14.4 16.8 14.25 17.1 13.9 17.55 13.5 17.75 13.35 18.0 13.2 18.15 13.1 18.5 13.0 18.8 12.85 18.95 12.9 19.05 12.95 19.35 13.15 19.45 13.2 20.15 13.9 20.25 14.0 20.4 14.15 20.45 14.25 20.7 14.65 20.8 14.75 20.85 14.8 M15.75 23.5 L15.55 23.5 15.65 23.45 15.8 23.4 15.75 23.5 M20.3 18.85 L20.3 18.8 19.95 18.5 19.65 18.35 19.15 18.15 19.05 18.15 18.4 17.95 18.35 17.95 18.0 17.9 17.9 17.9 17.55 17.85 17.25 17.85 17.2 17.85 16.75 17.9 16.6 17.9 16.05 18.05 15.95 18.05 15.7 18.2 15.65 18.25 15.6 18.35 15.65 18.4 15.75 18.55 15.75 18.6 15.85 18.65 16.05 18.8 16.25 18.85 16.4 18.9 16.45 18.95 16.4 18.95 16.3 18.95 16.05 19.0 15.95 19.0 15.85 19.05 15.75 19.15 15.65 19.4 15.65 19.45 15.8 19.8 15.9 19.9 16.05 20.0 16.15 20.0 16.45 20.05 16.5 20.05 16.7 20.05 17.2 19.85 17.25 19.75 17.35 19.65 17.45 19.4 17.45 19.3 17.4 19.3 17.4 19.25 17.35 19.2 17.15 19.1 17.75 19.2 17.85 19.2 18.25 19.2 18.45 19.25 18.6 19.25 20.0 19.15 20.15 19.1 20.35 18.95 20.35 18.9 20.3 18.85" fill="#feefda" fill-rule="evenodd" stroke="none"/>
      <path d="M19.95 20.8 L19.0 21.25 19.0 21.2 18.95 21.1 19.0 21.1 19.95 20.8 M10.6 21.3 L10.05 20.95 9.85 20.8 9.4 20.25 9.15 19.85 9.0 19.6 8.7 18.15 8.7 17.9 8.7 17.55 8.8 16.45 8.85 16.2 9.2 15.0 9.4 14.65 9.6 14.4 10.15 14.0 10.2 14.0 10.8 13.55 10.95 13.45 11.15 13.35 11.2 13.3 11.9 13.05 12.1 13.05 12.15 13.05 12.3 13.05 12.95 13.05 13.35 13.05 14.3 13.2 14.45 13.25 14.55 13.3 14.65 13.35 14.9 13.45 15.05 13.45 16.0 13.95 16.05 14.0 16.55 14.35 16.6 14.3 16.7 14.15 16.9 13.8 17.25 13.45 17.6 13.2 17.65 13.15 17.75 13.1 17.85 13.05 17.9 13.0 18.35 12.85 18.8 12.85 18.5 13.0 18.15 13.1 18.0 13.2 17.75 13.35 17.55 13.5 17.1 13.9 16.8 14.25 16.65 14.4 16.6 14.55 16.5 14.65 16.3 14.85 16.05 14.7 15.8 14.55 15.25 14.35 15.15 14.3 14.95 14.2 14.75 14.1 14.4 13.95 14.05 13.85 13.05 13.55 Q12.9 13.6 12.8 13.7 L12.05 14.1 12.0 14.15 Q11.75 14.25 11.6 14.4 L11.2 14.65 11.1 14.75 11.0 14.85 10.95 14.9 Q10.3 15.6 10.3 16.7 10.3 17.65 11.45 18.15 L12.4 18.4 12.65 18.45 13.0 18.5 12.95 18.85 Q12.95 19.45 13.45 20.1 L13.1 20.0 13.0 20.0 Q12.2 20.05 11.85 20.95 L11.65 21.65 11.35 21.6 11.0 21.45 10.6 21.3 M14.25 21.25 L14.35 21.25 14.25 20.9 14.2 20.8 14.35 20.9 14.4 20.9 15.0 21.0 16.05 21.15 16.5 21.2 16.7 21.25 16.7 21.35 16.8 21.6 17.0 21.85 16.9 21.85 16.65 21.85 16.5 21.9 16.05 21.9 15.9 21.9 14.7 21.9 14.4 21.9 14.3 21.9 14.35 21.45 14.25 21.25 M14.35 21.25 L14.35 21.45 14.35 21.25" fill="#ffd2a6" fill-rule="evenodd" stroke="none"/>
      <path d="M17.95 15.15 L17.85 14.9 Q17.85 14.55 18.2 14.35 L18.45 14.25 18.75 14.2 18.8 14.2 19.0 14.2 19.05 14.05 19.45 14.2 19.55 14.25 20.55 15.0 20.6 15.1 20.7 15.2 20.95 15.6 21.0 15.8 21.05 15.95 21.1 16.5 Q21.1 17.15 20.6 17.6 L20.55 17.65 20.15 17.9 19.8 18.0 19.4 17.95 19.1 17.9 18.55 17.7 18.4 17.65 Q17.65 17.25 17.65 16.75 L18.2 17.45 Q18.7 17.85 19.35 17.75 20.0 17.65 20.4 17.1 L20.65 16.6 20.7 15.9 Q20.65 15.25 20.1 14.9 19.6 14.5 18.95 14.6 18.35 14.7 18.0 15.1 L17.95 15.15 M19.9 15.4 L19.05 15.05 19.8 15.25 19.9 15.4 M16.45 18.95 L16.5 18.95 16.75 18.95 17.05 19.05 17.15 19.1 17.35 19.2 17.4 19.25 17.4 19.3 17.45 19.3 17.45 19.4 17.35 19.65 17.25 19.75 17.2 19.85 16.7 20.05 16.5 20.05 16.45 20.05 16.15 20.0 16.05 20.0 15.9 19.9 15.8 19.8 15.65 19.45 15.65 19.4 16.05 19.6 16.1 19.65 16.25 19.65 16.35 19.5 16.55 19.3 16.85 19.4 17.25 19.75 16.85 19.4 16.55 19.3 16.35 19.5 16.25 19.65 16.1 19.65 16.05 19.6 15.65 19.4 15.75 19.15 15.85 19.05 15.95 19.0 16.05 19.0 16.3 18.95 16.4 18.95 16.45 18.95 M13.0 18.5 L12.65 18.45 12.4 18.4 11.45 18.15 Q10.3 17.65 10.3 16.7 10.3 15.6 10.95 14.9 L11.0 14.85 11.1 14.75 11.2 14.65 11.6 14.4 Q11.75 14.25 12.0 14.15 L12.05 14.1 12.8 13.7 Q12.9 13.6 13.05 13.55 L14.05 13.85 13.9 13.9 13.3 14.5 13.25 14.55 13.35 14.6 13.4 14.65 14.0 14.95 14.25 15.1 Q15.15 15.9 15.15 17.05 L15.1 17.5 15.0 17.7 14.7 18.2 14.6 18.25 14.35 18.4 14.1 18.5 13.5 18.55 13.4 18.55 13.0 18.5 M11.95 15.6 Q12.35 15.3 12.9 15.3 L13.05 15.3 11.95 15.6 M14.25 15.25 Q13.7 14.75 12.9 14.75 12.1 14.75 11.55 15.25 11.05 15.75 10.95 16.4 L10.95 16.55 11.1 17.25 11.55 17.85 Q12.1 18.35 12.9 18.35 13.7 18.35 14.25 17.85 14.85 17.3 14.85 16.55 L14.7 15.9 14.25 15.25" fill="#fdbaa0" fill-rule="evenodd" stroke="none"/>
      <path d="M17.6 15.8 L17.9 15.25 17.95 15.15 18.0 15.1 18.65 15.0 18.9 15.0 19.05 15.05 18.95 15.05 Q18.55 15.1 18.25 15.45 L18.2 15.5 18.1 15.65 17.6 15.8 M20.7 15.9 L20.65 16.6 20.25 16.2 20.25 16.1 20.25 16.0 19.9 15.4 20.4 15.65 20.7 15.9 M13.05 15.3 L13.75 15.25 14.25 15.25 14.7 15.9 14.0 15.85 14.0 15.8 13.95 15.75 13.9 15.65 Q13.5 15.35 13.05 15.3 M10.95 16.4 Q11.25 16.05 11.55 15.85 L11.95 15.6 11.9 15.65 Q11.5 16.05 11.5 16.6 L11.5 16.8 11.1 17.25 10.95 16.55 10.95 16.4" fill="#9da7af" fill-rule="evenodd" stroke="none"/>
      <path d="M19.9 15.4 L20.25 16.0 20.25 16.1 20.25 16.2 20.2 16.2 20.15 16.0 20.05 15.85 19.95 15.8 19.9 15.7 19.7 15.6 19.15 15.3 Q18.75 15.3 18.45 15.65 L18.4 15.65 18.15 15.65 18.1 15.65 18.2 15.5 18.25 15.45 Q18.55 15.1 18.95 15.05 L19.05 15.05 19.9 15.4 M11.95 15.6 L13.05 15.3 Q13.5 15.35 13.9 15.65 L13.95 15.75 14.0 15.8 14.0 15.85 13.95 15.85 13.75 15.75 13.55 15.65 13.3 15.65 13.0 15.65 12.25 15.8 Q11.85 16.05 11.8 16.55 L11.55 16.8 11.5 16.8 11.5 16.6 Q11.5 16.05 11.9 15.65 L11.95 15.6" fill="#2a0904" fill-rule="evenodd" stroke="none"/>
      <path d="M18.45 15.65 Q18.75 15.3 19.15 15.3 L19.7 15.6 19.9 15.7 19.95 15.8 20.05 15.85 19.75 15.9 Q19.15 15.6 18.45 15.65 M11.8 16.55 Q11.85 16.05 12.25 15.8 L13.0 15.65 13.3 15.65 13.55 15.65 Q13.3 15.7 13.25 15.9 12.45 16.05 11.8 16.55" fill="#2d1513" fill-rule="evenodd" stroke="none"/>
      <path d="M18.4 15.65 L18.45 15.65 Q19.15 15.6 19.75 15.9 L19.65 16.0 19.6 16.05 19.55 16.2 19.7 16.45 19.85 16.5 19.95 16.5 19.85 16.7 19.2 17.15 18.6 17.05 Q18.25 16.75 18.25 16.35 L18.25 16.3 Q18.25 15.9 18.4 15.7 L18.4 15.65 M13.95 16.3 L13.95 16.6 13.65 17.4 13.0 17.7 Q12.4 17.7 12.1 17.3 11.8 16.95 11.8 16.6 L11.8 16.55 Q12.45 16.05 13.25 15.9 L13.2 16.05 13.25 16.15 13.3 16.25 Q13.4 16.45 13.65 16.45 L13.85 16.4 13.95 16.3" fill="#4c2420" fill-rule="evenodd" stroke="none"/>
      <path d="M18.1 15.65 L18.15 15.65 18.4 15.65 18.4 15.7 Q18.25 15.9 18.25 16.3 L18.25 16.35 Q18.25 16.75 18.6 17.05 L19.2 17.15 19.85 16.7 19.95 16.5 20.1 16.4 20.2 16.2 20.25 16.2 20.0 16.85 19.25 17.35 18.4 17.15 18.0 16.45 18.0 16.4 18.0 15.85 18.1 15.65 M11.5 16.8 L11.55 16.8 11.8 16.55 11.8 16.6 Q11.8 16.95 12.1 17.3 12.4 17.7 13.0 17.7 L13.65 17.4 13.95 16.6 13.95 16.3 14.0 16.1 13.95 15.9 13.9 15.85 13.95 15.85 14.0 15.85 14.3 16.6 Q14.3 17.15 13.9 17.55 L12.9 17.9 Q12.3 17.9 11.9 17.55 L11.55 17.0 11.5 16.8" fill="#3f120a" fill-rule="evenodd" stroke="none"/>
      <path d="M16.6 23.4 L15.75 23.5 15.8 23.4 16.05 23.4 16.3 23.35 16.35 23.35 16.5 23.4 16.6 23.4 M16.45 18.95 L16.4 18.9 16.25 18.85 16.05 18.8 15.85 18.65 15.75 18.6 15.75 18.55 15.65 18.4 15.6 18.35 15.65 18.25 15.7 18.2 15.95 18.05 16.05 18.05 16.6 17.9 16.75 17.9 17.2 17.85 17.25 17.85 17.55 17.85 17.9 17.9 18.0 17.9 18.35 17.95 18.4 17.95 19.05 18.15 19.15 18.15 19.65 18.35 19.95 18.5 20.3 18.8 20.3 18.85 20.35 18.95 20.15 19.1 20.0 19.15 18.6 19.25 18.45 19.25 18.25 19.2 17.85 19.2 17.75 19.2 17.15 19.1 17.05 19.05 16.75 18.95 16.5 18.95 16.45 18.95" fill="#fffff7" fill-rule="evenodd" stroke="none"/>
      <path d="M14.2 20.8 L13.8 21.0 13.7 20.95 13.5 20.7 13.45 20.55 13.5 20.3 13.6 20.2 13.65 20.15 13.85 20.3 14.0 20.45 14.2 20.8 M17.3 20.3 L17.4 20.25 17.75 20.2 17.85 20.2 17.9 20.4 17.85 20.7 17.85 20.8 17.65 20.95 17.4 20.7 17.3 20.55 17.3 20.3" fill="#fedcdd" fill-rule="evenodd" stroke="none"/>
      <path d="M13.5 20.3 L13.45 20.55 13.5 20.7 13.7 20.95 13.8 21.0 14.2 20.8 14.25 20.9 14.35 21.25 14.25 21.25 14.0 21.35 13.8 21.4 13.4 21.3 13.2 21.1 13.15 21.1 13.1 21.0 13.3 20.5 13.5 20.3 M17.15 20.35 L17.3 20.3 17.3 20.55 17.4 20.7 17.65 20.95 17.85 20.8 17.85 20.7 17.9 20.4 17.85 20.2 18.05 20.25 18.1 20.35 18.1 20.65 17.85 21.25 17.7 21.35 17.45 21.4 17.3 21.25 17.2 21.1 17.1 20.55 17.15 20.35" fill="#ffbb9a" fill-rule="evenodd" stroke="none"/>
      <path d="M13.0 20.0 L13.1 20.0 13.45 20.1 13.6 20.15 13.65 20.15 13.6 20.2 13.5 20.3 13.3 20.5 13.1 21.0 13.0 20.15 13.0 20.1 13.0 20.0 M16.7 21.25 L16.7 21.15 Q16.7 20.9 16.95 20.55 L17.15 20.35 17.1 20.55 17.2 21.1 17.3 21.25 17.45 21.4 17.25 21.45 17.2 21.45 16.7 21.35 16.7 21.25" fill="#f78678" fill-rule="evenodd" stroke="none"/>
      <path d="M19.0 21.25 L19.0 21.3 19.05 21.55 19.0 21.6 18.4 21.75 18.0 21.7 17.9 21.65 17.65 21.55 17.55 21.5 17.45 21.4 17.7 21.35 17.85 21.25 18.1 20.65 18.1 20.35 18.05 20.25 18.25 20.3 18.65 20.6 18.65 20.65 18.95 21.1 19.0 21.2 19.0 21.25 M18.25 22.85 L18.25 22.9 18.3 22.95 17.6 23.2 17.55 23.15 17.2 22.95 16.2 22.7 16.05 22.7 15.8 22.7 15.7 22.7 15.55 22.7 15.7 22.55 16.05 22.35 16.15 22.3 16.35 22.25 16.75 22.2 17.3 22.75 17.45 22.85 17.85 22.9 18.25 22.85 M13.1 21.0 L13.15 21.1 13.2 21.1 13.4 21.3 13.8 21.4 14.0 21.35 14.25 21.25 14.35 21.45 14.3 21.9 14.2 21.9 14.1 21.9 13.75 21.9 13.65 21.85 13.45 21.75 13.2 21.55 13.1 21.15 13.1 21.0" fill="#ee4b50" fill-rule="evenodd" stroke="none"/>
      <path d="M20.35 13.95 L20.4 13.95 20.8 14.65 20.85 14.8 21.0 15.0 21.0 15.05 21.1 15.25 21.15 15.35 21.15 15.4 21.2 15.4 21.25 15.5 21.3 15.55 21.3 15.65 21.35 15.7 21.35 15.75 21.5 16.25 21.55 16.45 21.6 16.55 21.9 17.0 21.95 17.05 22.15 17.35 22.65 17.85 22.8 18.0 22.75 18.1 22.7 18.2 22.2 19.1 22.1 19.25 21.95 19.4 21.7 19.6 21.5 19.8 21.45 19.85 20.95 20.2 20.4 20.45 20.25 20.6 19.95 20.8 19.0 21.25 19.0 21.3 19.05 21.55 19.05 21.7 19.05 21.85 18.85 22.3 18.3 22.6 18.1 22.6 18.1 22.65 18.25 22.85 18.25 22.9 18.3 22.95 17.6 23.2 17.3 23.25 16.9 23.35 M16.6 23.4 L15.75 23.5 15.55 23.5 14.95 23.5 14.05 23.45 13.2 23.3 11.35 22.7 10.2 22.0 9.35 21.35 9.15 21.15 9.0 21.0 8.45 20.4 7.75 19.4 7.25 18.45 6.85 17.2 6.65 15.75 6.65 15.2 6.7 14.5 Q6.8 13.35 7.25 12.3 L7.35 12.1 8.05 10.9 8.8 10.0 9.05 9.7 9.1 9.65 9.15 9.55 9.45 9.3 9.8 9.0 Q10.6 8.35 11.55 7.95 L13.25 9.7 13.85 10.65 13.95 10.8 14.55 10.75 14.6 10.75 15.0 10.8 15.8 10.85 15.9 10.85 15.95 10.85 15.95 10.65 16.05 10.6 16.15 10.5 16.35 10.35 17.1 9.8 18.05 9.3 18.85 8.95 18.9 8.9 19.15 8.85 Q19.05 9.25 19.1 9.65 L19.2 10.4 19.9 10.25 19.9 10.65 19.9 10.95 19.9 11.75 19.9 11.8 19.95 12.0 19.95 12.05 19.95 12.1 20.0 12.2 19.95 12.45 19.95 12.5 19.8 12.85 19.7 12.95 20.0 13.4 20.35 13.95 M20.25 14.0 L20.4 14.15 20.45 14.25 20.7 14.65 20.8 14.75 20.85 14.8 M21.0 15.05 L21.1 15.3 21.15 15.35 M21.2 15.4 L21.2 15.45 21.25 15.5 21.3 15.65 M20.4 20.45 L20.8 20.05 20.8 20.0 21.1 19.45 21.15 19.4 21.25 19.2 21.3 18.95 21.3 18.9 21.5 18.25 21.5 18.0 21.55 17.7 21.55 16.75 21.55 16.55 21.55 16.45 M11.7 10.15 L12.15 10.55 12.55 10.95 13.9 10.8 13.95 10.8 M11.7 10.15 L11.65 10.15 11.5 10.05 11.4 9.95 10.4 9.35 10.35 9.3 10.3 9.3 9.95 9.1 9.8 9.0 M7.4 12.65 L7.45 12.9 7.5 13.05 8.0 14.45 8.1 14.7 8.05 14.75 8.0 14.85 7.85 15.05 7.65 15.45 7.2 16.35 7.1 16.55 6.95 16.8 6.95 16.85 6.95 16.95 6.85 17.2 M12.8 11.25 L12.55 11.0 12.55 10.95 M17.7 11.15 L18.0 11.2 18.05 11.25 18.55 11.6 18.85 11.9 19.05 12.1 19.55 12.75 19.6 12.8 19.65 12.85 19.7 12.95 M15.95 10.85 L16.05 10.85 17.7 11.15 M9.1 9.65 L9.3 9.7 9.45 9.3 M8.0 14.85 L7.95 14.7 7.65 13.5 7.5 13.05 M10.6 21.3 L10.05 20.95 9.85 20.8 9.4 20.25 9.15 19.85 9.0 19.6 8.7 18.15 8.7 17.9 8.7 17.55 8.8 16.45 8.85 16.2 9.2 15.0 9.4 14.65 9.6 14.4 10.15 14.0 10.2 14.0 10.8 13.55 10.95 13.45 11.15 13.35 11.2 13.3 11.9 13.05 12.1 13.05 12.15 13.05 12.3 13.05 12.95 13.05 13.35 13.05 14.3 13.2 14.45 13.25 14.55 13.3 14.65 13.35 14.9 13.45 15.05 13.45 16.0 13.95 16.05 14.0 16.55 14.35 16.6 14.3 16.7 14.15 16.9 13.8 17.25 13.45 17.6 13.2 17.65 13.15 17.75 13.1 17.85 13.05 17.9 13.0 18.35 12.85 18.8 12.85 18.95 12.9 19.05 12.95 19.35 13.15 19.45 13.2 20.15 13.9 20.25 14.0 M9.35 21.35 L9.55 21.35 9.65 21.4 9.9 21.45 10.4 21.5 10.5 21.5 11.0 21.45 11.35 21.6 11.65 21.65 11.85 20.95 Q12.2 20.05 13.0 20.0 L13.1 20.0 13.45 20.1 13.6 20.15 13.65 20.15 13.85 20.3 14.0 20.45 14.2 20.8 14.25 20.9 14.35 21.25 14.35 21.45 14.3 21.9 14.4 21.9 14.7 21.9 15.9 21.9 16.05 21.9 16.5 21.9 16.65 21.85 16.9 21.85 17.0 21.85 16.8 21.6 16.7 21.35 16.7 21.25 16.7 21.15 Q16.7 20.9 16.95 20.55 L17.15 20.35 17.3 20.3 17.4 20.25 17.75 20.2 17.85 20.2 18.05 20.25 18.25 20.3 18.65 20.6 18.65 20.65 18.95 21.1 19.0 21.2 19.0 21.25 M10.6 21.3 L11.0 21.45 M13.35 22.65 L13.5 22.6 13.9 22.4 14.3 21.9 M11.6 22.25 L11.5 22.35 11.45 22.5 11.35 22.7 M11.75 22.15 L11.7 22.15 M11.65 21.9 L11.75 22.1 M11.65 21.65 L11.65 21.9 M17.25 19.75 L16.85 19.4 16.55 19.3 16.35 19.5 16.25 19.65 16.1 19.65 16.05 19.6 15.65 19.4 M17.0 21.85 L17.25 22.15 17.3 22.2 M18.0 22.6 L18.1 22.6 M10.2 22.0 L9.9 21.45 M7.35 12.1 L7.4 12.65 M7.45 12.9 L7.25 12.3" fill="none" stroke="#540f0f" stroke-linecap="round" stroke-linejoin="round" stroke-width="0.1"/>
      <path d="M17.65 16.75 L17.6 16.4 17.6 15.8 17.9 15.25 17.95 15.15 18.0 15.1 Q18.35 14.7 18.95 14.6 19.6 14.5 20.1 14.9 20.65 15.25 20.7 15.9 L20.65 16.6 20.4 17.1 Q20.0 17.65 19.35 17.75 18.7 17.85 18.2 17.45 L17.65 16.75 M19.9 15.4 L20.4 15.65 20.7 15.9 M19.9 15.4 L19.05 15.05 18.9 15.0 18.65 15.0 18.0 15.1 M11.95 15.6 L13.05 15.3 13.75 15.25 14.25 15.25 Q13.7 14.75 12.9 14.75 12.1 14.75 11.55 15.25 11.05 15.75 10.95 16.4 11.25 16.05 11.55 15.85 L11.95 15.6 M14.7 15.9 L14.25 15.25 M11.1 17.25 L10.95 16.55 10.95 16.4 M14.7 15.9 L14.85 16.55 Q14.85 17.3 14.25 17.85 13.7 18.35 12.9 18.35 12.1 18.35 11.55 17.85 L11.1 17.25" fill="none" stroke="#430c0c" stroke-linecap="round" stroke-linejoin="round" stroke-width="0.1"/>
      <path d="M13.1 21.0 L13.15 21.1 13.2 21.1 13.4 21.3 13.8 21.4 14.0 21.35 14.25 21.25 14.35 21.25 M13.1 21.0 L13.0 20.15 M18.05 20.25 L18.1 20.35 18.1 20.65 17.85 21.25 17.7 21.35 17.45 21.4 17.25 21.45 17.2 21.45 16.7 21.35" fill="none" stroke="#b17057" stroke-linecap="round" stroke-linejoin="round" stroke-width="0.1"/>
      <path d="M16.9 23.35 L16.6 23.4 16.5 23.4 16.35 23.35 16.3 23.35 16.05 23.4 15.8 23.4 15.65 23.45 15.55 23.5 M13.95 23.5 L14.05 23.45 14.65 23.0 15.05 22.8 15.4 22.7 15.55 22.7 15.7 22.7 15.8 22.7 16.05 22.7 16.2 22.7 17.2 22.95 17.55 23.15 17.6 23.2" fill="none" stroke="#64804f" stroke-linecap="round" stroke-linejoin="round" stroke-width="0.1"/>
      <path d="M15.25 7.25 L15.95 7.25 Q9.25 12.5 10.25 21.75 L9.2 20.9 9.05 20.75 Q6.75 18.45 6.75 15.2 6.75 12.0 9.1 9.65 L9.2 9.55 Q11.65 7.25 15.25 7.25" fill="#ffffff" fill-opacity="0.2" fill-rule="evenodd" stroke="none"/>
      <path d="M11.55 9.3 Q11.95 9.4 11.8 10.1 L10.7 11.8 9.5 13.15 Q8.95 13.05 8.85 12.75 L8.85 12.4 Q9.15 10.8 10.6 9.7 11.2 9.2 11.55 9.3 M9.15 13.9 Q10.0 14.0 9.85 14.75 L9.55 15.25 Q9.2 15.55 8.85 15.5 8.3 15.4 8.2 15.0 L8.25 14.6 Q8.35 13.8 9.15 13.9" fill="#ffffff" fill-rule="evenodd" stroke="none"/>
    </g>
    <linearGradient gradientTransform="matrix(0.0049, 0.0, 0.0, 0.0065, 25.8, 9.55)" gradientUnits="userSpaceOnUse" id="gradient0" spreadMethod="pad" x1="-819.2" x2="819.2">
      <stop offset="0.0" stop-color="#14737c"/>
      <stop offset="1.0" stop-color="#48f2e0"/>
    </linearGradient>
    <linearGradient gradientTransform="matrix(0.0048, 0.0, 0.0, 0.0067, 26.05, 20.35)" gradientUnits="userSpaceOnUse" id="gradient1" spreadMethod="pad" x1="-819.2" x2="819.2">
      <stop offset="0.0" stop-color="#14737c"/>
      <stop offset="1.0" stop-color="#48f2e0"/>
    </linearGradient>
    <linearGradient gradientTransform="matrix(0.0068, 0.0, 0.0, 0.005, 20.45, 25.9)" gradientUnits="userSpaceOnUse" id="gradient2" spreadMethod="pad" x1="-819.2" x2="819.2">
      <stop offset="0.0" stop-color="#14737c"/>
      <stop offset="1.0" stop-color="#48f2e0"/>
    </linearGradient>
    <linearGradient gradientTransform="matrix(0.0063, 0.0, 0.0, 0.0051, 9.7, 4.15)" gradientUnits="userSpaceOnUse" id="gradient3" spreadMethod="pad" x1="-819.2" x2="819.2">
      <stop offset="0.0" stop-color="#14737c"/>
      <stop offset="1.0" stop-color="#48f2e0"/>
    </linearGradient>
    <linearGradient gradientTransform="matrix(0.0052, 0.0, 0.0, 0.0065, 4.25, 9.55)" gradientUnits="userSpaceOnUse" id="gradient4" spreadMethod="pad" x1="-819.2" x2="819.2">
      <stop offset="0.0" stop-color="#14737c"/>
      <stop offset="1.0" stop-color="#48f2e0"/>
    </linearGradient>
    <linearGradient gradientTransform="matrix(0.005, 0.0, 0.0, 0.0065, 4.05, 20.25)" gradientUnits="userSpaceOnUse" id="gradient5" spreadMethod="pad" x1="-819.2" x2="819.2">
      <stop offset="0.0" stop-color="#14737c"/>
      <stop offset="1.0" stop-color="#48f2e0"/>
    </linearGradient>
  </defs>
</svg>
