<?xml version="1.0" encoding="UTF-8" standalone="no"?>
<svg xmlns:ffdec="https://www.free-decompiler.com/flash" xmlns:xlink="http://www.w3.org/1999/xlink" ffdec:objectType="frame" height="30.05px" width="30.0px" xmlns="http://www.w3.org/2000/svg">
  <g transform="matrix(1.0, 0.0, 0.0, 1.0, 0.0, 0.0)">
    <use ffdec:characterId="1" height="30.0" transform="matrix(1.0, 0.0, 0.0, 1.0, 0.0, 0.0)" width="30.0" xlink:href="#shape0"/>
    <use ffdec:characterId="3" height="30.0" transform="matrix(1.0, 0.0, 0.0, 1.0, 0.0, 0.05)" width="30.0" xlink:href="#sprite0"/>
  </g>
  <defs>
    <g id="shape0" transform="matrix(1.0, 0.0, 0.0, 1.0, 0.0, 0.0)">
      <path d="M0.0 0.0 L30.0 0.0 30.0 30.0 0.0 30.0 0.0 0.0" fill="#33cc66" fill-opacity="0.0" fill-rule="evenodd" stroke="none"/>
    </g>
    <g id="sprite0" transform="matrix(1.0, 0.0, 0.0, 1.0, 0.0, 0.0)">
      <use ffdec:characterId="2" height="30.0" transform="matrix(1.0, 0.0, 0.0, 1.0, 0.0, 0.0)" width="30.0" xlink:href="#shape1"/>
    </g>
    <g id="shape1" transform="matrix(1.0, 0.0, 0.0, 1.0, 0.0, 0.0)">
      <path d="M29.85 15.0 L29.95 15.0 30.0 15.05 29.85 15.0" fill="url(#gradient0)" fill-rule="evenodd" stroke="none"/>
      <path d="M29.35 15.0 L29.85 15.0 30.0 15.05 29.95 15.1 29.35 15.0" fill="url(#gradient1)" fill-rule="evenodd" stroke="none"/>
      <path d="M15.0 29.95 L14.95 30.0 14.95 29.85 15.0 29.9 15.0 29.95 M22.05 21.9 L22.05 21.85 22.1 21.9 22.05 21.9" fill="url(#gradient2)" fill-rule="evenodd" stroke="none"/>
      <path d="M4.6 4.3 L4.65 4.3 4.65 4.35 4.6 4.3" fill="url(#gradient3)" fill-rule="evenodd" stroke="none"/>
      <path d="M4.6 4.35 L4.6 4.3 4.65 4.35 4.6 4.35" fill="url(#gradient4)" fill-rule="evenodd" stroke="none"/>
      <path d="M4.5 25.8 L4.5 25.65 4.6 25.7 4.5 25.8 M7.75 9.15 L7.85 9.1 7.75 9.2 7.75 9.15" fill="#4dc4c2" fill-rule="evenodd" stroke="none"/>
      <path d="M0.05 15.0 L0.0 14.95 0.3 14.95 0.05 15.0" fill="url(#gradient5)" fill-rule="evenodd" stroke="none"/>
      <path d="M26.0 4.3 L23.0 9.8 Q24.5 11.8 24.75 14.25 L29.35 15.0 29.95 15.1 29.85 15.15 24.75 16.4 Q24.45 19.2 22.55 21.4 L26.05 25.85 21.15 22.7 Q18.9 24.4 16.1 24.65 L15.05 29.9 15.0 29.95 15.0 29.9 14.95 29.85 13.85 24.65 Q11.3 24.35 9.3 22.9 L4.5 25.8 4.6 25.7 7.5 21.2 Q5.55 18.85 5.4 15.85 L0.05 15.0 0.3 14.95 5.5 13.85 Q5.85 11.25 7.75 9.2 L7.85 9.1 7.75 9.15 4.65 4.35 9.5 7.65 Q11.6 6.3 13.9 6.05 L14.95 0.0 15.0 0.1 16.55 6.1 Q19.15 6.5 21.1 7.95 L21.25 8.05 25.55 4.8 26.0 4.3 M22.05 21.9 L22.1 21.9 22.05 21.85 22.05 21.9 M23.6 15.35 Q23.6 12.0 21.15 9.55 18.6 7.2 15.2 7.2 11.6 7.2 9.15 9.55 L9.05 9.7 Q6.65 12.1 6.65 15.35 6.65 18.65 9.0 21.0 L9.15 21.15 Q11.6 23.5 15.2 23.5 18.65 23.5 21.5 20.85 23.6 18.5 23.6 15.35" fill="#fff57f" fill-rule="evenodd" stroke="none"/>
      <path d="M26.0 4.3 L25.25 11.3 29.95 15.0 29.85 15.0 29.35 15.0 24.75 14.25 Q24.5 11.8 23.0 9.8 L26.0 4.3 25.55 4.8 21.25 8.05 21.1 7.95 Q19.15 6.5 16.55 6.1 L15.0 0.1 19.1 5.15 26.0 4.3 M29.85 15.15 L25.2 19.1 26.05 25.85 26.05 25.9 18.95 25.4 15.05 29.9 16.1 24.65 Q18.9 24.4 21.15 22.7 L26.05 25.85 22.55 21.4 Q24.45 19.2 24.75 16.4 L29.85 15.15 M14.95 30.0 L11.05 25.4 4.5 25.8 9.3 22.9 Q11.3 24.35 13.85 24.65 L14.95 29.85 14.95 30.0 M4.5 25.65 L5.05 19.3 0.05 15.0 5.4 15.85 Q5.55 18.85 7.5 21.2 L4.6 25.7 4.5 25.65 M0.0 14.95 L5.1 11.05 4.6 4.35 4.65 4.35 4.65 4.3 10.95 5.15 14.95 0.0 13.9 6.05 Q11.6 6.3 9.5 7.65 L4.65 4.35 7.75 9.15 7.75 9.2 Q5.85 11.25 5.5 13.85 L0.3 14.95 0.0 14.95" fill="#f4cf26" fill-rule="evenodd" stroke="none"/>
      <path d="M23.6 15.35 Q23.6 18.5 21.5 20.85 18.65 23.5 15.2 23.5 11.6 23.5 9.15 21.15 L9.0 21.0 Q6.65 18.65 6.65 15.35 6.65 12.1 9.05 9.7 L9.15 9.55 Q11.6 7.2 15.2 7.2 18.6 7.2 21.15 9.55 23.6 12.0 23.6 15.35" fill="#743606" fill-rule="evenodd" stroke="none"/>
      <path d="M20.5 9.5 L20.8 9.5 21.0 9.5 21.1 9.5 21.15 9.55 22.2 10.75 Q21.9 10.8 21.9 11.1 L20.85 10.75 20.75 10.75 20.7 10.65 20.7 10.6 20.6 10.1 20.5 9.55 20.5 9.5 M21.2 11.9 L20.85 11.05 20.8 10.85 20.95 10.9 21.9 11.2 22.0 11.35 22.45 11.6 22.7 11.6 22.9 12.1 22.85 12.1 22.35 11.95 22.05 11.9 21.9 11.85 21.75 11.85 21.7 11.85 21.4 11.9 21.2 11.9 M20.3 10.7 L20.85 12.0 20.6 12.05 Q19.8 11.5 18.8 11.0 L18.75 10.95 18.4 10.8 18.15 10.7 18.1 10.65 18.2 10.65 18.45 10.65 18.6 10.65 18.85 10.65 18.9 10.6 19.0 10.6 19.45 10.9 19.7 10.65 20.15 10.7 20.3 10.7 M22.5 11.3 L22.45 11.3 22.45 11.2 22.5 11.25 22.5 11.3 M6.65 15.05 Q6.7 13.8 7.1 12.7 L7.3 12.75 7.35 12.75 7.6 12.85 7.85 13.0 7.9 13.05 8.6 13.95 9.05 14.55 9.1 14.55 8.55 13.8 7.95 13.05 7.95 13.0 8.45 13.3 8.7 13.4 8.8 13.45 8.95 13.55 9.3 13.75 9.45 13.85 9.4 14.4 9.4 14.6 8.9 14.7 8.15 14.8 7.95 14.85 7.85 14.85 7.55 14.9 7.3 14.95 6.65 15.05 M10.2 14.5 L10.25 14.25 10.3 14.25 10.3 14.5 10.2 14.5 M10.0 15.2 L10.05 15.2 10.05 15.25 10.0 15.2 M7.85 17.15 L7.9 17.3 7.85 17.3 7.85 17.25 7.8 17.15 7.85 17.15 M8.5 17.0 L8.7 17.0 8.55 17.15 8.5 17.0" fill="#1a344f" fill-rule="evenodd" stroke="none"/>
      <path d="M21.1 9.5 L21.0 9.5 20.8 9.5 20.5 9.5 20.3 8.85 21.1 9.5 M7.1 12.7 L7.3 12.25 7.85 13.0 7.6 12.85 7.35 12.75 7.3 12.75 7.1 12.7 M7.35 12.15 L8.05 10.9 8.5 10.95 8.7 11.0 9.95 11.4 9.9 11.65 9.65 12.5 9.55 13.05 9.45 13.85 9.3 13.75 8.95 13.55 8.8 13.45 8.7 13.4 8.45 13.3 7.95 13.0 7.4 12.25 7.35 12.15 M18.15 8.7 L18.85 8.65 18.3 8.7 18.15 8.7 M10.25 14.25 L10.3 13.95 10.3 14.25 10.25 14.25 M19.05 8.7 L18.95 8.7 18.95 8.65 19.05 8.65 19.05 8.7 M17.0 10.2 L17.05 10.1 17.3 10.0 17.45 9.95 17.9 9.85 18.0 9.85 18.5 9.8 18.55 9.8 18.65 9.8 19.0 9.75 19.2 9.75 19.8 9.7 20.0 10.1 19.85 10.1 19.6 10.15 19.35 10.05 18.95 10.25 18.9 10.3 18.85 10.35 18.95 10.35 18.95 10.4 19.0 10.6 18.9 10.6 18.85 10.65 18.6 10.65 18.45 10.65 18.2 10.65 18.1 10.65 17.75 10.5 17.0 10.2 M20.25 10.6 L19.75 10.5 19.75 10.4 19.85 10.4 20.15 10.45 20.25 10.6 M19.7 10.65 L19.75 10.6 20.3 10.7 20.15 10.7 19.7 10.65" fill="#6abbe6" fill-rule="evenodd" stroke="none"/>
      <path d="M20.5 9.55 L20.6 10.1 20.7 10.6 20.5 10.15 20.5 10.1 20.3 9.55 20.15 9.2 20.05 8.9 19.9 8.55 20.3 8.85 20.5 9.5 20.4 9.5 20.5 9.55 M16.15 9.0 L17.3 8.8 17.45 9.0 17.8 9.65 17.75 9.7 17.25 9.35 17.4 9.8 17.45 9.95 17.3 10.0 17.05 10.1 17.0 10.2 16.65 10.1 16.6 10.0 16.5 9.85 16.1 9.1 16.2 9.05 16.15 9.0" fill="#ebfffe" fill-rule="evenodd" stroke="none"/>
      <path d="M20.7 10.6 L20.7 10.65 20.75 10.75 20.25 10.6 20.15 10.45 20.0 10.1 19.8 9.7 19.05 8.7 19.05 8.65 18.95 8.65 18.9 8.65 19.1 8.1 19.9 8.55 20.05 8.9 20.15 9.2 20.3 9.55 20.5 10.1 20.5 10.15 20.7 10.6 M20.8 10.85 L20.85 11.05 21.2 11.9 20.85 12.0 20.3 10.7 20.8 10.85 M15.9 9.8 L15.95 9.65 16.05 9.1 16.1 9.1 16.5 9.85 16.6 10.0 16.65 10.1 15.9 9.8 M18.05 13.75 L18.1 13.8 18.05 13.8 18.05 13.75" fill="#67bae6" fill-rule="evenodd" stroke="none"/>
      <path d="M20.75 10.75 L20.85 10.75 21.9 11.1 Q21.9 10.8 22.2 10.75 L22.5 11.25 22.45 11.2 22.45 11.3 22.5 11.3 22.7 11.6 22.45 11.6 22.0 11.35 21.9 11.2 20.95 10.9 20.8 10.85 20.3 10.7 19.75 10.6 19.7 10.65 19.45 10.9 19.0 10.6 18.95 10.4 18.95 10.35 18.95 10.25 19.35 10.05 19.6 10.15 19.75 10.4 19.75 10.5 20.25 10.6 20.75 10.75 M7.3 12.25 L7.35 12.15 7.4 12.25 7.95 13.0 7.95 13.05 8.55 13.8 9.1 14.55 9.05 14.55 8.6 13.95 7.9 13.05 7.85 13.0 7.3 12.25" fill="#ffffff" fill-rule="evenodd" stroke="none"/>
      <path d="M21.2 11.9 L21.4 11.9 21.2 12.25 21.3 12.2 21.7 12.15 21.8 12.15 21.9 12.15 22.05 12.15 22.35 12.2 23.05 12.6 23.2 12.75 23.25 12.95 23.0 12.75 22.35 12.4 22.0 12.35 21.85 12.3 21.75 12.3 21.65 12.3 21.55 12.3 21.35 12.3 21.2 12.35 21.0 12.35 21.2 12.35 21.35 12.3 21.55 12.3 21.65 12.3 21.75 12.3 21.7 12.5 21.85 12.65 21.85 12.7 22.0 12.7 22.4 12.9 22.55 13.0 22.95 13.25 23.0 13.25 22.95 13.35 22.9 13.5 22.8 13.9 22.6 14.45 22.45 14.4 22.05 14.25 22.0 14.2 21.6 14.05 21.7 14.0 22.0 14.1 22.05 14.15 22.45 14.3 22.55 14.1 22.7 13.75 22.85 13.35 22.85 13.3 22.5 13.05 22.4 13.0 22.0 12.85 21.85 12.85 21.55 12.8 21.85 12.85 22.0 12.85 21.9 12.95 22.0 13.15 22.0 13.2 21.95 13.15 21.7 12.9 21.55 12.8 21.0 12.35 20.6 12.05 20.85 12.0 21.2 11.9 M23.7 15.9 L23.7 16.25 23.65 16.3 23.55 16.4 23.35 16.55 23.15 16.8 23.1 17.05 23.2 17.15 22.95 17.3 21.7 17.55 Q20.9 17.55 20.3 17.2 L20.25 17.2 20.25 17.15 20.3 17.15 20.35 17.2 20.55 16.95 20.75 16.75 20.8 16.75 20.85 16.7 20.95 16.65 21.05 16.6 21.05 16.55 21.1 16.55 21.1 16.5 21.2 16.2 21.25 16.1 21.25 15.9 21.25 15.85 21.2 15.8 21.1 15.65 21.1 15.6 21.05 15.5 21.35 15.85 21.9 16.4 21.85 16.5 21.8 16.6 21.85 16.65 21.95 16.7 22.25 16.7 21.6 16.85 21.5 16.85 20.8 16.75 21.5 16.85 21.6 16.85 22.25 16.7 22.8 16.7 22.9 16.6 22.95 16.6 23.15 16.4 23.25 16.3 23.4 16.15 23.5 16.15 23.55 16.15 23.6 16.15 23.6 16.05 23.65 16.0 23.7 15.9 M23.3 13.85 L23.5 14.1 23.65 14.75 23.6 15.3 23.5 15.65 23.15 16.25 23.05 16.25 22.95 16.25 23.0 16.2 23.1 16.05 23.4 15.6 23.55 14.8 23.3 13.85 M21.4 14.3 L21.4 14.4 21.3 14.5 21.25 14.55 21.2 14.65 20.9 15.25 20.9 15.3 20.7 15.0 20.9 14.8 21.35 14.25 21.4 14.3 M22.05 13.3 L22.1 13.35 22.3 13.85 22.0 13.9 21.95 13.9 21.85 13.9 21.7 14.0 21.6 13.95 22.05 13.3 M21.2 13.65 L21.25 13.65 21.2 13.7 21.2 13.65 M23.55 16.15 L23.35 16.4 23.25 16.5 23.0 16.7 22.9 16.8 22.85 16.8 22.75 16.85 22.1 17.1 21.65 17.15 21.55 17.15 20.55 16.95 21.55 17.15 21.65 17.15 22.1 17.1 22.75 16.85 22.85 16.8 22.9 16.8 23.0 16.7 23.25 16.5 23.35 16.4 23.55 16.15 M20.3 17.2 L20.35 17.2 20.3 17.2" fill="#bf670d" fill-rule="evenodd" stroke="none"/>
      <path d="M21.4 11.9 L21.7 11.85 21.75 11.85 21.9 11.85 22.05 11.9 22.35 11.95 22.85 12.1 22.95 12.15 23.2 12.75 23.05 12.6 22.35 12.2 22.05 12.15 21.9 12.15 21.8 12.15 21.7 12.15 21.3 12.2 21.2 12.25 21.4 11.9 M21.75 12.3 L21.85 12.3 22.0 12.35 22.35 12.4 23.0 12.75 23.25 12.95 23.3 13.0 23.6 13.35 23.6 13.4 23.7 13.55 23.7 15.9 23.65 16.0 23.6 16.05 23.4 16.15 23.15 16.25 23.5 15.65 23.6 15.3 23.65 14.75 23.5 14.1 23.3 13.85 23.25 13.8 23.25 13.85 23.3 13.85 23.55 14.8 23.4 15.6 23.1 16.05 23.0 16.2 22.95 16.25 22.9 16.2 23.05 16.0 22.9 15.9 22.55 15.65 22.3 15.55 21.9 15.3 21.35 14.75 21.25 14.55 21.3 14.5 21.4 14.4 21.4 14.3 21.55 14.45 21.6 14.5 22.15 14.85 22.4 14.95 22.65 15.05 22.7 15.05 22.9 15.15 23.05 14.65 23.05 14.55 23.25 13.85 23.05 14.55 23.05 14.65 22.9 15.15 22.7 15.05 22.65 15.05 22.4 14.95 22.15 14.85 21.6 14.5 21.55 14.45 21.4 14.3 21.35 14.25 21.45 14.15 21.55 14.0 21.6 14.05 22.0 14.2 22.05 14.25 22.45 14.4 22.6 14.45 22.8 13.9 22.9 13.5 22.95 13.35 23.0 13.25 22.95 13.25 22.55 13.0 22.4 12.9 22.0 12.7 21.85 12.7 21.85 12.65 21.7 12.5 21.75 12.3 M22.0 12.85 L22.4 13.0 22.5 13.05 22.85 13.3 22.85 13.35 22.7 13.75 22.55 14.1 22.45 14.3 22.05 14.15 22.0 14.1 21.7 14.0 21.85 13.9 21.95 13.9 22.0 13.9 22.3 13.85 22.1 13.35 22.05 13.3 22.05 13.25 22.0 13.2 22.0 13.15 21.9 12.95 22.0 12.85 M23.7 16.25 L23.7 16.35 23.65 16.3 23.7 16.25 M20.3 21.85 L19.0 22.6 18.9 22.65 18.75 22.55 18.65 22.5 18.3 22.3 18.5 22.05 18.7 21.9 18.6 21.8 18.35 21.4 18.15 21.15 18.05 20.95 18.0 20.9 17.6 20.35 17.45 20.1 17.35 19.95 16.9 19.3 16.2 18.25 15.45 17.2 15.25 16.95 15.05 16.6 14.7 16.15 14.55 15.9 14.4 15.75 14.25 15.55 14.2 15.5 14.15 15.45 13.85 15.0 13.8 15.0 13.7 14.85 13.55 14.65 12.65 13.55 12.45 13.25 12.4 13.2 12.4 13.15 12.25 13.0 11.95 12.65 11.55 12.15 11.35 12.0 11.3 11.9 11.15 11.75 11.1 11.85 10.7 13.1 10.6 13.5 10.8 13.55 11.05 13.95 11.05 14.0 11.25 14.1 11.65 14.45 11.8 14.65 11.85 14.7 12.4 15.3 12.45 15.35 12.35 15.35 12.25 15.3 12.1 15.25 11.9 15.2 11.7 15.25 11.3 15.35 11.1 15.5 10.8 15.9 10.7 15.8 10.3 15.3 10.3 14.5 10.3 14.25 10.3 13.95 10.3 13.9 10.4 13.4 10.45 13.05 10.65 12.25 10.85 11.65 10.9 11.45 10.95 11.35 11.3 10.5 11.35 10.35 11.4 10.25 11.6 10.45 11.95 10.7 12.0 10.75 12.15 10.85 13.2 11.85 13.3 11.95 14.4 13.15 14.7 13.45 15.05 13.85 16.4 15.6 16.6 15.85 16.6 15.9 16.85 16.25 16.9 16.35 17.05 16.55 17.15 16.7 17.25 16.8 17.95 17.85 18.4 18.55 18.9 19.35 19.3 19.95 19.9 21.05 20.2 21.7 20.3 21.85 M17.55 23.05 L17.05 22.85 16.9 22.8 15.95 22.45 15.95 22.4 15.7 22.1 15.6 21.95 15.4 21.7 15.35 21.65 15.1 21.4 15.0 21.35 14.1 20.95 13.8 20.8 13.5 20.7 12.7 20.35 12.65 20.3 12.65 20.25 12.9 20.25 13.25 20.2 13.5 20.35 13.8 20.5 14.5 20.8 14.95 21.0 15.35 21.2 15.6 21.3 15.7 21.35 16.0 21.5 16.6 21.75 16.75 21.8 16.9 21.85 17.15 21.95 16.9 21.8 16.8 21.75 16.6 21.65 16.05 21.3 15.65 21.15 15.65 21.1 15.35 20.95 15.2 20.9 15.15 20.8 14.9 20.6 13.8 19.4 13.5 19.1 13.35 18.9 13.2 18.75 12.7 18.2 12.1 17.5 11.4 16.6 11.65 16.25 12.25 16.1 12.5 16.1 13.0 16.5 13.05 16.65 13.25 17.35 13.25 17.0 13.1 16.5 13.1 16.45 13.05 16.35 12.7 16.1 12.5 16.0 12.3 15.95 12.1 15.9 11.55 16.1 11.45 16.2 11.35 16.3 11.25 16.45 11.0 16.15 10.85 15.95 11.05 15.8 11.1 15.75 11.6 15.45 11.65 15.45 12.1 15.35 12.35 15.45 12.45 15.45 12.45 15.35 12.5 15.45 12.55 15.5 12.6 15.5 12.65 15.55 12.65 15.5 12.45 14.7 12.4 14.4 12.35 14.05 12.25 13.7 12.25 13.55 12.3 13.6 12.6 13.85 13.5 14.9 13.7 15.2 14.1 15.9 14.15 16.0 14.55 16.75 15.25 18.3 15.45 18.75 14.65 18.3 14.6 18.25 14.65 18.3 15.45 18.75 15.7 18.9 15.8 19.0 15.9 19.15 16.1 19.55 16.85 20.75 17.2 21.45 17.35 21.9 17.4 22.05 17.15 21.95 17.4 22.1 17.4 22.15 17.3 22.3 17.25 22.3 17.1 22.4 17.55 22.95 17.55 23.05 M10.15 10.9 L10.45 10.1 10.65 9.7 11.25 10.15 11.15 10.3 10.75 11.25 10.75 11.2 10.65 11.0 10.5 11.1 10.3 11.3 10.3 11.15 10.4 10.7 10.15 10.9 M10.25 13.35 L10.15 14.2 10.1 14.45 10.05 15.2 10.0 15.2 9.8 15.05 9.7 14.95 9.4 14.6 9.4 14.4 9.45 13.85 9.55 13.05 9.65 12.5 9.7 12.75 9.75 12.8 9.85 13.4 10.1 12.95 10.15 12.95 10.15 13.05 10.2 13.3 10.25 13.35 M19.0 22.6 L18.75 22.5 18.65 22.5 18.75 22.5 19.0 22.6 M13.25 17.4 L13.2 17.4 13.25 17.35 13.2 17.4 13.25 17.4 13.25 17.5 13.25 17.55 13.6 17.75 13.85 17.9 14.55 18.35 14.6 18.25 13.85 17.8 13.6 17.65 13.25 17.4 M12.45 15.45 L12.55 15.5 12.45 15.45" fill="#f9d42b" fill-rule="evenodd" stroke="none"/>
      <path d="M20.6 12.05 L21.0 12.35 21.55 12.8 21.7 12.9 21.95 13.15 22.0 13.2 22.05 13.25 21.4 13.6 21.3 13.65 21.25 13.65 21.2 13.65 21.35 13.45 20.95 13.6 20.9 13.6 20.75 13.6 20.45 13.65 20.2 13.6 20.2 13.55 20.1 13.45 20.05 13.35 19.7 13.15 19.6 13.15 19.25 13.3 19.2 13.35 19.05 13.6 19.05 13.65 19.1 13.75 19.2 13.8 19.3 13.85 19.4 13.9 19.4 14.05 19.25 14.05 19.2 14.05 19.1 14.05 18.9 14.05 18.5 14.0 18.3 13.9 18.1 13.8 18.05 13.75 17.85 13.7 17.2 13.3 Q16.5 12.95 15.55 12.95 L15.5 13.0 15.25 12.95 15.1 12.95 15.0 12.95 14.95 12.95 15.1 12.9 15.25 12.9 16.4 13.0 17.1 13.15 17.2 13.15 18.15 13.5 18.2 13.5 18.15 13.45 17.45 12.9 17.3 12.8 17.2 12.75 16.1 11.9 15.7 11.75 15.15 11.6 14.45 11.35 14.25 11.35 14.25 11.3 14.15 11.05 13.95 10.4 14.0 10.4 14.6 10.6 15.0 10.7 15.7 10.95 17.55 11.6 17.6 11.6 17.9 11.75 18.05 11.8 18.5 12.0 19.8 12.6 20.1 12.75 20.5 13.05 20.25 12.7 20.1 12.5 20.0 12.4 19.15 11.6 18.7 11.15 18.35 10.85 18.15 10.7 18.4 10.8 18.75 10.95 18.8 11.0 Q19.8 11.5 20.6 12.05 M13.25 11.7 L13.2 11.7 13.15 11.45 12.95 10.75 12.5 9.1 13.45 9.2 13.8 10.35 13.65 10.4 13.8 10.4 14.0 11.2 14.05 11.35 14.05 11.4 14.1 11.45 14.15 11.6 14.55 13.0 14.7 13.45 14.4 13.15 14.4 13.0 13.85 11.7 13.8 11.6 13.7 11.6 13.35 11.65 13.25 11.7 M13.25 10.45 L13.3 10.7 13.35 10.85 13.55 10.95 13.7 10.9 13.7 10.7 13.65 10.4 13.65 10.3 13.4 10.15 13.3 10.25 13.25 10.35 13.25 10.45" fill="#fff57f" fill-rule="evenodd" stroke="none"/>
      <path d="M22.85 12.1 L22.9 12.1 22.95 12.15 22.85 12.1" fill="#e39226" fill-rule="evenodd" stroke="none"/>
      <path d="M21.7 14.0 L21.6 14.05 21.55 14.0 21.6 13.95 21.7 14.0 M14.45 22.5 L15.45 23.35 15.6 23.5 15.75 23.65 15.4 23.65 15.25 23.5 14.6 23.0 14.45 22.9 14.35 22.85 14.25 22.75 14.2 22.75 13.65 22.6 13.25 22.45 12.75 22.3 12.65 22.25 11.9 22.05 11.5 21.95 11.3 21.9 10.65 21.7 10.2 21.55 9.9 21.5 9.95 21.4 9.8 21.45 9.7 21.5 9.6 21.55 9.15 21.15 9.0 21.0 8.25 20.15 8.45 20.05 8.5 20.05 8.85 20.0 8.9 20.0 9.45 19.95 9.6 19.95 9.7 19.95 10.8 20.05 11.0 20.2 11.1 20.25 11.65 20.7 11.85 20.8 12.35 21.15 12.55 21.3 12.8 21.5 13.8 22.25 14.3 22.6 14.45 22.5 M23.25 13.85 L23.25 13.8 23.3 13.85 23.25 13.85" fill="#685455" fill-rule="evenodd" stroke="none"/>
      <path d="M22.05 13.25 L22.05 13.3 21.6 13.95 21.55 14.0 21.45 14.15 21.35 14.25 20.9 14.8 20.7 15.0 20.55 15.15 20.45 15.3 20.15 15.55 19.95 15.75 19.7 15.55 19.6 15.45 19.8 15.2 19.85 15.2 20.05 14.95 20.15 14.9 20.25 14.75 20.3 14.7 20.35 14.65 20.45 14.6 20.8 14.15 21.15 13.75 21.2 13.7 21.25 13.65 21.3 13.65 21.4 13.6 22.05 13.25" fill="#e8c426" fill-rule="evenodd" stroke="none"/>
      <path d="M13.3 11.95 L13.3 11.85 13.25 11.7 13.35 11.65 13.7 11.6 13.8 11.6 13.85 11.7 14.4 13.0 14.4 13.15 13.3 11.95 M13.6 9.25 L15.0 9.55 15.5 9.7 15.9 9.8 16.65 10.1 17.0 10.2 17.75 10.5 18.1 10.65 18.15 10.7 18.35 10.85 18.7 11.15 19.15 11.6 20.0 12.4 20.1 12.5 20.25 12.7 20.5 13.05 20.1 12.75 19.8 12.6 18.5 12.0 18.05 11.8 17.9 11.75 17.6 11.6 17.55 11.6 15.7 10.95 15.0 10.7 14.6 10.6 14.0 10.4 13.95 10.4 13.6 9.25 M14.25 11.35 L14.45 11.35 15.15 11.6 15.7 11.75 16.1 11.9 17.2 12.75 17.3 12.8 17.45 12.9 18.15 13.45 18.2 13.5 18.15 13.5 17.2 13.15 17.1 13.15 16.4 13.0 15.25 12.9 15.1 12.9 14.95 12.95 14.75 12.95 14.35 11.55 14.3 11.45 14.25 11.35 14.15 11.4 14.05 11.4 14.05 11.35 14.2 11.3 14.25 11.35" fill="#f4cf26" fill-rule="evenodd" stroke="none"/>
      <path d="M13.45 9.2 L13.6 9.25 13.95 10.4 14.15 11.05 14.25 11.3 14.25 11.35 14.2 11.3 14.05 11.35 14.0 11.2 13.8 10.4 13.8 10.35 13.45 9.2 M14.95 12.95 L15.0 12.95 15.1 12.95 15.25 12.95 15.5 13.0 15.3 13.0 15.65 13.45 16.0 14.0 16.25 14.6 16.8 15.2 17.0 15.3 17.05 15.3 17.7 15.5 17.8 15.5 18.1 15.45 18.15 15.45 18.35 15.35 18.65 15.25 18.55 15.4 18.55 15.45 18.3 15.6 17.9 15.7 17.65 15.7 17.6 15.7 17.1 15.65 17.0 15.65 16.55 15.4 16.1 14.75 16.05 14.65 15.8 14.1 Q15.65 13.85 15.3 13.85 L15.05 13.85 14.7 13.45 14.55 13.0 14.15 11.6 14.1 11.45 14.05 11.4 14.15 11.4 14.25 11.35 14.3 11.45 14.35 11.55 14.75 12.95 14.95 12.95 M17.85 13.7 L18.05 13.75 18.05 13.8 18.1 13.8 18.3 13.9 18.5 14.0 18.9 14.05 19.1 14.05 19.2 14.05 19.25 14.05 19.4 14.05 19.6 14.0 19.85 13.95 20.15 13.9 20.25 13.9 20.55 13.85 20.75 13.75 20.8 13.75 21.2 13.65 21.2 13.7 21.15 13.75 20.8 14.15 20.45 14.6 20.35 14.65 20.3 14.7 20.25 14.75 20.15 14.9 20.0 14.75 19.8 14.6 19.45 14.5 19.25 14.45 19.15 14.45 18.85 14.5 18.8 14.6 18.05 13.85 17.85 13.7" fill="#bc6b1c" fill-rule="evenodd" stroke="none"/>
      <path d="M19.4 14.05 L19.4 13.9 19.3 13.85 19.2 13.8 19.1 13.75 19.05 13.65 19.05 13.6 19.2 13.35 19.25 13.3 19.6 13.15 19.7 13.15 20.05 13.35 20.1 13.45 20.2 13.55 20.2 13.6 20.45 13.65 20.75 13.6 20.9 13.6 20.95 13.6 21.35 13.45 21.2 13.65 20.8 13.75 20.75 13.75 20.55 13.85 20.25 13.9 20.15 13.9 19.85 13.95 19.6 14.0 19.4 14.05 M13.25 10.45 L13.25 10.35 13.3 10.25 13.4 10.15 13.65 10.3 13.65 10.4 13.7 10.7 13.7 10.9 13.55 10.95 13.35 10.85 13.3 10.7 13.25 10.45" fill="#fffdee" fill-rule="evenodd" stroke="none"/>
      <path d="M23.55 16.4 L23.45 17.0 23.4 17.0 23.35 17.05 23.2 17.15 23.1 17.05 23.15 16.8 23.35 16.55 23.55 16.4 M22.25 19.9 L21.5 20.85 21.4 21.0 21.35 20.85 21.25 20.9 21.1 21.05 21.05 21.1 20.95 21.15 20.85 21.0 20.6 20.9 20.55 20.9 20.35 20.85 20.3 20.85 20.2 20.8 20.15 20.8 20.15 20.75 20.2 20.7 20.4 20.55 20.55 20.4 20.85 20.15 20.9 20.1 21.2 19.85 21.45 19.65 21.6 19.5 21.65 19.45 21.8 19.4 21.75 19.5 21.7 19.6 21.7 19.65 21.65 19.8 21.65 19.85 21.75 19.75 22.0 19.6 22.0 19.7 22.1 19.95 22.2 19.9 22.25 19.9 M23.15 16.25 L23.4 16.15 23.25 16.3 23.15 16.4 22.95 16.6 22.9 16.6 22.8 16.7 22.25 16.7 21.95 16.7 21.85 16.65 21.8 16.6 21.85 16.5 21.9 16.4 21.35 15.85 21.05 15.5 21.0 15.45 20.95 15.35 20.9 15.3 20.95 15.35 21.0 15.45 21.05 15.5 21.1 15.6 21.1 15.65 21.2 15.8 21.25 15.85 21.25 15.9 21.2 15.8 21.25 15.9 21.25 16.1 21.2 16.2 21.1 16.5 21.05 16.35 21.05 16.3 21.0 16.25 21.0 16.15 21.0 16.05 20.85 15.7 20.8 15.6 20.75 15.55 20.55 15.15 20.7 15.0 20.9 15.3 20.9 15.25 21.2 14.65 21.25 14.55 21.35 14.75 21.9 15.3 22.3 15.55 22.55 15.65 22.9 15.9 23.05 16.0 22.9 16.2 22.95 16.25 22.75 16.4 22.6 16.5 22.25 16.7 22.6 16.5 22.75 16.4 22.95 16.25 23.05 16.25 23.15 16.25 M22.85 19.65 L22.85 19.6 22.9 19.6 22.85 19.65 M18.8 17.05 L18.8 17.15 18.85 17.2 18.85 17.3 18.8 17.6 18.75 17.85 18.7 17.9 18.25 17.75 18.1 17.55 18.1 17.5 18.1 17.4 18.35 16.85 18.45 16.9 18.55 16.95 18.7 17.0 18.75 17.05 18.8 17.05" fill="#e3912b" fill-rule="evenodd" stroke="none"/>
      <path d="M19.95 15.75 L20.15 15.55 20.45 15.3 20.55 15.15 20.75 15.55 20.8 15.6 20.85 15.7 20.8 15.7 20.8 15.75 20.85 15.85 20.85 15.9 20.85 16.1 20.85 16.2 20.65 16.3 20.55 16.25 20.5 16.2 20.35 16.15 19.9 15.85 19.9 15.8 19.7 15.6 19.7 15.55 19.95 15.75 20.15 15.85 20.45 16.0 20.4 15.95 20.15 15.55 20.4 15.95 20.45 16.0 20.85 16.1 20.45 16.0 20.15 15.85 19.95 15.75 M21.05 16.55 L21.05 16.6 20.95 16.65 20.85 16.7 20.8 16.75 20.75 16.75 20.55 16.95 20.35 17.2 20.3 17.15 20.25 17.15 20.2 17.15 19.7 17.1 19.65 17.1 19.5 17.1 18.85 17.1 18.8 17.05 18.75 17.05 18.7 17.0 18.55 16.95 18.45 16.9 18.35 16.85 18.1 17.4 18.1 17.5 18.1 17.55 18.25 17.75 18.7 17.9 18.5 18.15 18.6 18.2 18.7 18.3 18.8 18.4 18.85 18.6 19.0 18.65 19.2 18.7 19.15 18.85 19.3 19.3 19.3 19.35 19.35 19.5 19.6 20.0 19.65 20.1 19.75 20.3 19.8 20.4 20.0 20.9 20.05 21.1 19.9 21.05 19.3 19.95 18.9 19.35 18.4 18.55 17.95 17.85 17.25 16.8 18.45 16.1 18.75 15.95 19.15 15.7 19.2 15.65 19.6 15.45 19.55 15.65 19.5 15.8 19.5 15.9 19.6 15.95 19.65 16.0 19.8 16.05 19.8 16.1 19.85 16.1 20.35 16.4 20.45 16.45 20.55 16.5 20.65 16.55 20.75 16.55 20.95 16.45 21.0 16.4 21.0 16.25 21.05 16.3 21.05 16.35 21.1 16.5 21.05 16.55 M20.85 15.85 L20.75 15.75 20.7 15.65 20.45 15.3 20.7 15.65 20.75 15.75 20.85 15.85 M19.5 15.9 L18.35 16.85 19.5 15.9" fill="#a35703" fill-rule="evenodd" stroke="none"/>
      <path d="M23.3 17.65 L23.2 18.05 23.1 18.65 22.95 18.6 22.85 18.55 22.75 18.5 22.7 18.45 22.65 18.3 Q22.45 18.4 22.2 18.6 L22.1 18.65 22.1 18.7 21.9 18.8 21.8 18.9 21.75 18.9 21.65 19.0 21.55 19.05 21.5 19.0 21.7 18.8 21.75 18.75 21.85 18.65 21.9 18.65 21.95 18.6 22.5 18.15 22.9 17.8 23.3 17.5 23.3 17.65 M21.1 16.5 L21.1 16.55 21.05 16.55 21.1 16.5 M20.85 15.7 L21.0 16.05 21.0 16.15 21.0 16.25 21.0 16.4 20.95 16.45 20.75 16.55 20.65 16.55 20.55 16.5 20.45 16.45 20.35 16.4 19.85 16.1 19.8 16.1 19.8 16.05 19.65 16.0 19.6 15.95 19.5 15.9 19.5 15.8 19.55 15.65 19.6 15.45 19.7 15.55 19.7 15.6 19.9 15.8 19.9 15.85 20.35 16.15 20.5 16.2 20.55 16.25 20.65 16.3 20.85 16.2 20.85 16.1 20.85 15.9 20.85 15.85 20.8 15.75 20.8 15.7 20.85 15.7 M18.85 17.1 L19.0 17.15 19.05 17.2 19.1 17.25 19.35 17.55 19.45 17.65 19.85 18.05 19.95 18.15 20.35 18.55 20.4 18.6 20.6 18.8 20.8 19.0 20.9 19.05 21.05 19.25 20.95 19.35 20.8 19.45 20.7 19.5 20.7 19.55 20.5 19.7 20.35 19.6 20.05 19.25 19.65 18.65 19.45 18.4 19.25 18.05 19.15 17.85 18.95 17.5 18.9 17.4 18.85 17.3 18.85 17.2 18.8 17.15 18.8 17.05 18.85 17.1" fill="#fffdf0" fill-rule="evenodd" stroke="none"/>
      <path d="M23.45 17.0 L23.45 17.05 23.4 17.0 23.45 17.0 M23.45 17.1 L23.35 17.55 23.3 17.5 22.9 17.8 22.5 18.15 21.95 18.6 21.9 18.65 21.85 18.65 21.75 18.75 21.7 18.8 21.5 19.0 21.35 19.1 21.25 19.05 21.2 19.0 21.0 18.8 20.9 18.7 20.75 18.5 20.6 18.25 20.3 17.55 20.25 17.35 20.3 17.2 Q20.9 17.55 21.7 17.55 L22.95 17.3 23.2 17.15 23.35 17.05 23.45 17.1 M23.4 16.15 L23.6 16.05 23.6 16.15 23.55 16.15 23.5 16.15 23.4 16.15 M20.3 17.2 L20.25 17.35 20.25 17.2 20.3 17.2" fill="#1b1716" fill-rule="evenodd" stroke="none"/>
      <path d="M23.35 17.55 L23.3 17.65 23.3 17.5 23.35 17.55 M22.95 18.6 L22.9 18.75 22.75 18.5 22.85 18.55 22.95 18.6 M20.25 17.2 L20.25 17.35 20.3 17.55 20.6 18.25 20.75 18.5 20.9 18.7 21.0 18.8 21.2 19.0 21.25 19.05 21.2 19.1 21.05 19.25 20.9 19.05 20.8 19.0 20.6 18.8 20.4 18.6 20.35 18.55 19.95 18.15 19.85 18.05 19.45 17.65 19.35 17.55 19.1 17.25 19.05 17.2 19.0 17.15 18.85 17.1 19.5 17.1 19.65 17.1 19.7 17.1 20.2 17.15 20.25 17.15 20.25 17.2 M18.85 17.3 L18.9 17.4 18.95 17.5 19.15 17.85 19.25 18.05 19.45 18.4 19.65 18.65 20.05 19.25 20.35 19.6 20.45 19.75 20.25 19.9 19.75 20.3 19.65 20.1 19.6 20.0 19.35 19.5 19.3 19.35 19.3 19.3 19.15 18.85 19.2 18.7 19.0 18.65 18.85 18.6 18.8 18.4 18.7 18.3 18.6 18.2 18.5 18.15 18.7 17.9 18.75 17.85 18.8 17.6 18.85 17.3" fill="#edc822" fill-rule="evenodd" stroke="none"/>
      <path d="M22.9 18.75 L23.0 18.85 22.8 19.2 22.65 19.35 22.55 19.55 22.5 19.6 22.4 19.85 22.25 19.9 22.2 19.9 22.1 19.95 22.0 19.7 22.0 19.6 21.75 19.75 21.65 19.85 21.65 19.8 21.7 19.65 21.7 19.6 21.75 19.5 21.8 19.4 21.65 19.45 21.6 19.5 21.45 19.65 21.2 19.85 20.9 20.1 20.85 20.15 20.55 20.4 20.4 20.55 20.2 20.7 20.15 20.75 20.15 20.8 20.2 20.8 20.3 20.85 20.35 20.85 20.55 20.9 20.6 20.9 20.85 21.0 20.95 21.15 21.05 21.1 21.1 21.05 21.25 20.9 21.35 20.85 21.4 21.0 20.85 21.45 20.55 21.3 20.5 21.25 20.2 21.15 20.05 21.1 20.0 20.9 19.8 20.4 19.75 20.3 20.25 19.9 20.45 19.75 20.5 19.7 20.7 19.55 20.7 19.5 20.8 19.45 20.95 19.35 21.05 19.25 21.2 19.1 21.25 19.05 21.35 19.1 21.5 19.0 21.55 19.05 21.65 19.0 21.75 18.9 21.8 18.9 21.9 18.8 22.1 18.7 22.1 18.65 22.2 18.6 Q22.45 18.4 22.65 18.3 L22.7 18.45 22.75 18.5 22.9 18.75" fill="#bb660c" fill-rule="evenodd" stroke="none"/>
      <path d="M23.45 17.05 L23.45 17.1 23.35 17.05 23.4 17.0 23.45 17.05" fill="#e40b13" fill-rule="evenodd" stroke="none"/>
      <path d="M20.85 21.45 L20.7 21.55 20.5 21.25 20.55 21.3 20.85 21.45" fill="#65b3d9" fill-rule="evenodd" stroke="none"/>
      <path d="M20.7 21.55 L20.3 21.85 20.2 21.7 19.9 21.05 20.05 21.1 20.2 21.15 20.5 21.25 20.7 21.55" fill="#2e6e9c" fill-rule="evenodd" stroke="none"/>
      <path d="M23.1 22.05 L23.25 22.15 23.15 22.15 23.1 22.05" fill="#e1ba1d" fill-rule="evenodd" stroke="none"/>
      <path d="M11.25 10.15 L11.3 10.2 11.4 10.25 11.35 10.35 11.3 10.5 10.95 11.35 10.9 11.45 10.85 11.65 10.65 12.25 10.45 13.05 10.4 13.4 10.3 13.9 10.3 13.95 10.25 14.25 10.2 14.5 10.1 14.45 10.15 14.2 10.25 13.35 10.35 12.8 10.65 11.6 10.75 11.25 11.15 10.3 11.25 10.15 M11.95 12.65 L12.25 13.0 12.4 13.15 12.4 13.2 12.45 13.25 12.65 13.55 13.55 14.65 13.7 14.85 13.8 15.0 13.75 15.1 13.75 15.05 13.7 15.0 13.5 14.8 13.35 14.55 12.65 13.75 12.35 13.5 12.25 13.4 12.2 13.35 12.25 13.55 12.25 13.7 12.35 14.05 12.4 14.4 12.25 14.45 12.15 13.95 12.05 13.35 12.0 13.05 11.95 12.75 11.95 12.65 M9.0 18.5 L9.0 18.45 8.95 18.1 8.95 18.0 8.9 17.6 9.05 17.6 9.2 17.6 9.45 17.65 10.45 17.65 10.6 17.65 11.0 17.7 11.05 17.7 11.4 17.7 11.25 17.4 11.15 17.15 11.15 17.0 11.15 16.85 11.25 16.45 11.3 16.5 11.35 16.55 11.35 16.6 11.4 16.6 12.1 17.5 12.7 18.2 13.2 18.75 13.35 18.9 13.5 19.1 13.8 19.4 14.9 20.6 15.15 20.8 15.2 20.9 15.35 20.95 15.65 21.1 15.65 21.15 16.05 21.3 16.6 21.65 16.6 21.75 16.0 21.5 15.7 21.35 15.6 21.3 15.35 21.2 14.95 21.0 14.5 20.8 13.8 20.5 13.5 20.35 13.25 20.2 12.6 19.9 11.4 18.75 10.75 18.75 10.7 18.75 10.3 18.7 10.2 18.7 9.2 18.65 8.95 18.65 9.0 18.55 9.0 18.5 M13.25 17.4 L13.6 17.65 13.85 17.8 14.6 18.25 14.55 18.35 13.85 17.9 13.6 17.75 13.25 17.55 13.25 17.5 13.25 17.4" fill="#c26a10" fill-rule="evenodd" stroke="none"/>
      <path d="M10.15 10.95 L10.15 10.9 10.4 10.7 10.3 11.15 10.3 11.3 10.5 11.1 10.65 11.0 10.75 11.2 10.75 11.25 10.65 11.6 10.35 12.8 10.25 13.35 10.2 13.3 10.15 13.05 10.15 12.95 10.1 12.95 9.85 13.4 9.75 12.8 9.7 12.75 9.65 12.5 9.9 11.65 9.95 11.4 10.15 10.95 M12.45 15.35 L12.4 15.3 11.85 14.7 11.8 14.65 11.65 14.45 11.25 14.1 11.05 14.0 11.05 13.95 10.8 13.55 10.6 13.5 10.7 13.1 11.1 11.85 11.15 11.75 11.3 11.9 11.35 12.0 11.55 12.15 11.95 12.65 11.95 12.75 12.0 13.05 12.05 13.35 12.15 13.95 12.25 14.45 12.4 15.15 12.45 15.35" fill="#fff778" fill-rule="evenodd" stroke="none"/>
      <path d="M8.05 10.9 L8.5 10.35 9.3 10.6 10.15 10.95 9.95 11.4 8.7 11.0 8.5 10.95 8.05 10.9 M17.3 8.8 L18.15 8.7 18.3 8.7 18.85 8.65 18.9 8.65 18.95 8.65 18.95 8.7 19.05 8.7 19.8 9.7 19.2 9.75 19.0 9.75 18.65 9.8 18.55 9.8 18.5 9.8 18.0 9.85 17.9 9.85 17.45 9.95 17.4 9.8 17.25 9.35 17.75 9.7 17.8 9.65 17.45 9.0 17.3 8.8 M18.95 10.35 L18.85 10.35 18.9 10.3 18.95 10.25 18.95 10.35 M19.6 10.15 L19.85 10.1 20.0 10.1 20.15 10.45 19.85 10.4 19.75 10.4 19.6 10.15" fill="#c3ffff" fill-rule="evenodd" stroke="none"/>
      <path d="M15.95 22.4 L15.7 22.3 15.4 22.15 15.15 22.1 13.8 21.45 13.55 21.3 13.0 21.05 12.5 20.75 12.25 20.6 12.2 20.6 12.0 20.3 11.9 20.2 11.9 20.15 11.45 19.8 11.4 19.8 10.55 19.7 10.25 19.7 9.75 19.65 9.0 19.6 8.75 19.55 8.6 19.55 7.85 19.5 7.8 19.5 7.75 19.5 7.6 19.5 7.7 19.35 7.75 19.25 8.0 18.05 8.0 17.8 8.0 17.7 7.9 17.3 7.85 17.15 7.85 17.1 7.45 16.4 7.35 16.3 7.2 16.15 7.15 16.05 7.0 15.95 6.65 15.7 6.65 15.35 6.65 15.05 7.3 14.95 7.55 14.9 7.85 14.85 7.95 14.85 8.15 14.8 8.9 14.7 9.4 14.6 9.7 14.95 9.8 15.05 10.0 15.2 9.75 15.25 9.6 15.25 9.0 15.35 8.7 15.4 8.05 15.5 7.7 15.55 7.65 15.55 7.4 15.6 7.55 15.75 7.65 15.8 7.95 16.15 8.1 16.35 8.35 16.75 8.5 17.0 8.55 17.15 8.7 17.0 10.2 17.05 10.5 17.1 10.65 17.1 10.55 17.0 10.4 16.85 10.3 16.8 10.5 16.8 10.55 16.8 10.65 16.8 10.6 16.65 10.85 15.95 11.0 16.15 11.25 16.45 11.15 16.85 11.15 17.0 11.15 17.15 11.25 17.4 11.4 17.7 11.05 17.7 11.0 17.7 10.6 17.65 10.45 17.65 9.45 17.65 9.2 17.6 9.05 17.6 8.9 17.6 8.95 18.0 8.95 18.1 9.0 18.45 9.0 18.5 9.0 18.55 8.9 18.7 8.85 18.75 8.95 18.8 9.2 18.8 10.3 18.9 10.4 18.9 10.6 18.95 10.7 18.95 11.25 19.0 11.35 19.0 11.9 19.55 12.05 19.65 12.35 19.95 12.55 20.15 12.65 20.25 12.65 20.3 12.7 20.35 13.5 20.7 13.8 20.8 14.1 20.95 15.0 21.35 15.1 21.4 15.35 21.65 15.4 21.7 15.6 21.95 15.7 22.1 15.95 22.4" fill="#c36d0a" fill-rule="evenodd" stroke="none"/>
      <path d="M10.1 14.45 L10.2 14.5 10.3 14.5 10.3 15.3 10.7 15.8 10.8 15.9 11.1 15.5 11.3 15.35 11.7 15.25 11.9 15.2 12.1 15.25 12.25 15.3 12.35 15.35 12.45 15.35 12.45 15.45 12.35 15.45 12.1 15.35 11.65 15.45 11.6 15.45 11.1 15.75 11.05 15.8 10.85 15.95 10.6 16.65 10.65 16.8 10.55 16.8 10.5 16.8 10.3 16.8 9.7 16.8 9.4 16.8 9.25 16.75 8.85 16.75 8.55 16.7 8.4 16.5 8.25 16.25 8.0 15.95 7.7 15.65 7.6 15.6 7.65 15.55 7.7 15.55 8.05 15.5 8.7 15.4 9.0 15.35 9.6 15.25 9.75 15.25 10.0 15.2 10.05 15.25 10.05 15.2 10.1 14.45 M10.05 15.2 L10.15 15.2 10.2 14.5 10.15 15.2 10.05 15.2 M11.4 16.6 L11.35 16.6 11.35 16.55 11.3 16.5 11.25 16.45 11.35 16.3 11.45 16.2 11.55 16.1 12.1 15.9 12.3 15.95 12.5 16.0 12.7 16.1 13.05 16.35 13.1 16.45 13.1 16.5 13.25 17.0 13.25 17.35 13.05 16.65 13.0 16.5 12.5 16.1 12.25 16.1 11.65 16.25 11.4 16.6 M12.4 14.4 L12.45 14.7 12.65 15.5 12.65 15.55 12.6 15.5 12.55 15.5 12.5 15.45 12.45 15.35 12.4 15.15 12.25 14.45 12.4 14.4" fill="#be6a10" fill-rule="evenodd" stroke="none"/>
      <path d="M7.55 19.1 L7.45 18.85 7.5 18.25 7.5 18.1 7.45 18.1 7.4 17.7 7.4 17.65 7.45 17.7 7.6 18.0 7.6 18.05 7.7 18.5 7.55 19.1 M6.7 16.05 L6.65 15.7 7.0 15.95 7.15 16.05 7.2 16.15 7.35 16.3 7.45 16.4 7.85 17.1 7.85 17.15 7.8 17.15 7.65 16.9 7.4 16.65 7.35 16.6 7.35 16.55 7.15 16.4 7.05 16.3 6.95 16.25 6.7 16.05" fill="#ac6a2d" fill-rule="evenodd" stroke="none"/>
      <path d="M8.5 17.0 L8.35 16.75 8.1 16.35 7.95 16.15 7.65 15.8 7.55 15.75 7.4 15.6 7.65 15.55 7.6 15.6 7.7 15.65 8.0 15.95 8.25 16.25 8.4 16.5 8.55 16.7 8.85 16.75 8.75 16.9 8.7 17.0 8.5 17.0" fill="#fdf382" fill-rule="evenodd" stroke="none"/>
      <path d="M7.45 18.85 L7.4 18.75 7.0 17.65 7.05 17.7 7.2 17.85 7.2 17.75 7.2 17.65 7.2 17.55 7.3 17.5 7.15 17.4 7.15 17.35 7.05 17.25 6.9 17.0 6.85 16.95 6.85 16.9 6.8 16.85 6.75 16.5 6.8 16.55 6.85 16.6 6.9 16.7 6.95 16.7 6.95 16.75 7.2 17.1 7.3 17.25 7.35 17.5 7.4 17.6 7.4 17.65 7.4 17.7 7.45 18.1 7.5 18.1 7.5 18.25 7.45 18.85 M7.45 18.1 L7.4 18.75 7.45 18.1" fill="#1c3554" fill-rule="evenodd" stroke="none"/>
      <path d="M7.7 19.35 L7.55 19.1 7.7 18.5 7.6 18.05 7.6 18.0 7.45 17.7 7.5 17.7 7.7 17.6 7.8 17.4 7.8 17.3 7.7 17.05 7.65 16.9 7.8 17.15 7.85 17.25 7.85 17.3 7.9 17.5 8.0 17.7 8.0 17.8 8.0 18.05 7.75 19.25 7.7 19.35 M6.75 16.5 L6.7 16.05 6.95 16.25 7.05 16.3 7.15 16.4 7.0 16.55 6.95 16.7 6.9 16.7 6.85 16.6 6.8 16.55 6.75 16.5" fill="#f5d52a" fill-rule="evenodd" stroke="none"/>
      <path d="M7.4 17.6 L7.35 17.5 7.3 17.25 7.2 17.1 6.95 16.75 6.95 16.7 7.0 16.55 7.15 16.4 7.35 16.55 7.35 16.6 7.4 16.65 7.65 16.9 7.7 17.05 7.8 17.3 7.8 17.4 7.7 17.6 7.5 17.7 7.45 17.7 7.4 17.65 7.4 17.6" fill="#fff86c" fill-rule="evenodd" stroke="none"/>
      <path d="M7.0 17.65 L6.8 16.85 6.85 16.9 6.85 16.95 6.9 17.0 7.05 17.25 7.15 17.35 7.15 17.4 7.2 17.5 7.2 17.55 7.2 17.65 7.2 17.75 7.2 17.85 7.05 17.7 7.0 17.65" fill="#306f98" fill-rule="evenodd" stroke="none"/>
      <path d="M8.85 16.75 L9.25 16.75 9.4 16.8 9.7 16.8 10.3 16.8 10.4 16.85 10.55 17.0 10.65 17.1 10.5 17.1 10.2 17.05 8.7 17.0 8.75 16.9 8.85 16.75" fill="#eec11d" fill-rule="evenodd" stroke="none"/>
      <path d="M12.5 20.75 L14.45 22.5 14.3 22.6 13.8 22.25 12.8 21.5 12.55 21.3 12.35 21.15 11.85 20.8 11.65 20.7 11.1 20.25 11.0 20.2 10.8 20.05 9.7 19.95 9.6 19.95 9.45 19.95 8.9 20.0 8.85 20.0 8.5 20.05 8.45 20.05 8.25 20.15 7.8 19.5 7.85 19.5 8.6 19.55 8.75 19.55 9.0 19.6 9.75 19.65 10.25 19.7 10.55 19.7 11.4 19.8 12.0 20.3 12.2 20.6 12.25 20.6 12.5 20.75" fill="#181619" fill-rule="evenodd" stroke="none"/>
      <path d="M9.0 18.55 L8.95 18.65 9.2 18.65 10.2 18.7 10.3 18.7 10.7 18.75 10.75 18.75 11.4 18.75 12.6 19.9 13.25 20.2 12.9 20.25 12.65 20.25 12.55 20.15 12.35 19.95 12.05 19.65 11.9 19.55 11.35 19.0 11.25 19.0 10.7 18.95 10.6 18.95 10.4 18.9 10.3 18.9 9.2 18.8 8.95 18.8 8.85 18.75 8.9 18.7 9.0 18.55" fill="#fdf876" fill-rule="evenodd" stroke="none"/>
      <path d="M15.25 23.5 L15.2 23.5 Q11.9 23.5 9.6 21.55 L9.7 21.5 9.8 21.45 9.95 21.4 9.9 21.5 10.2 21.55 10.65 21.7 11.3 21.9 11.5 21.95 11.9 22.05 12.65 22.25 12.75 22.3 13.25 22.45 13.65 22.6 14.2 22.75 14.25 22.75 14.35 22.85 14.45 22.9 14.6 23.0 15.25 23.5" fill="#a38786" fill-rule="evenodd" stroke="none"/>
      <path d="M15.5 13.0 L15.55 12.95 Q16.5 12.95 17.2 13.3 L17.85 13.7 18.05 13.85 18.8 14.6 19.0 14.9 18.9 14.95 18.75 14.95 18.4 15.15 18.1 15.3 17.75 15.35 17.7 15.35 17.1 15.2 16.25 14.6 16.0 14.0 15.65 13.45 15.3 13.0 15.5 13.0 M18.45 16.1 L17.25 16.8 17.15 16.7 17.35 16.65 17.55 16.5 17.75 16.3 17.75 15.9 17.75 15.85 17.9 15.9 18.45 16.1 M16.4 15.6 L16.9 15.65 16.8 15.75 16.6 15.9 16.6 15.85 16.4 15.6 M17.8 14.75 L18.05 14.4 17.8 13.9 17.3 13.75 Q16.8 13.75 16.8 14.2 L16.95 14.6 17.3 14.8 17.55 14.8 17.8 14.75 M17.7 14.25 L17.55 14.4 17.5 14.45 17.45 14.45 17.35 14.5 17.1 14.25 Q17.1 14.0 17.35 14.0 L17.4 14.0 17.6 14.1 17.7 14.25 M16.85 16.25 Q16.75 16.05 16.95 15.9 L17.0 15.9 17.25 15.85 17.4 15.95 17.35 16.2 17.3 16.25 17.25 16.35 17.2 16.35 16.9 16.35 16.85 16.25" fill="#18100d" fill-rule="evenodd" stroke="none"/>
      <path d="M18.8 14.6 L18.85 14.5 19.15 14.45 19.25 14.45 19.45 14.5 19.8 14.6 20.0 14.75 20.15 14.9 20.05 14.95 19.85 15.2 19.8 15.2 19.6 15.45 19.2 15.65 19.15 15.7 18.75 15.95 18.45 16.1 17.9 15.9 17.75 15.85 17.65 15.85 17.1 15.7 16.9 15.65 16.4 15.6 15.05 13.85 15.3 13.85 Q15.65 13.85 15.8 14.1 L16.05 14.65 16.1 14.75 16.55 15.4 17.0 15.65 17.1 15.65 17.6 15.7 17.65 15.7 17.9 15.7 18.3 15.6 18.55 15.45 18.55 15.4 18.65 15.25 18.75 15.25 19.15 15.3 19.0 14.95 19.0 14.9 18.8 14.6" fill="#e58f2a" fill-rule="evenodd" stroke="none"/>
      <path d="M16.25 14.6 L17.1 15.2 17.7 15.35 17.75 15.35 18.1 15.3 18.4 15.15 18.75 14.95 18.9 14.95 19.0 14.9 19.0 14.95 19.15 15.3 18.75 15.25 18.65 15.25 18.35 15.35 18.15 15.45 18.1 15.45 17.8 15.5 17.7 15.5 17.05 15.3 17.0 15.3 16.8 15.2 16.25 14.6" fill="#10213d" fill-rule="evenodd" stroke="none"/>
      <path d="M17.8 14.75 L17.55 14.8 17.3 14.8 16.95 14.6 16.8 14.2 Q16.8 13.75 17.3 13.75 L17.8 13.9 18.05 14.4 17.8 14.75 M17.7 14.25 L17.6 14.1 17.4 14.0 17.35 14.0 Q17.1 14.0 17.1 14.25 L17.35 14.5 17.45 14.45 17.5 14.45 17.55 14.4 17.7 14.25" fill="#ff1500" fill-rule="evenodd" stroke="none"/>
      <path d="M16.9 15.65 L17.1 15.7 17.65 15.85 17.75 15.85 17.75 15.9 17.75 16.3 17.55 16.5 17.35 16.65 17.15 16.7 17.05 16.55 16.9 16.35 17.2 16.35 17.25 16.35 17.3 16.25 17.35 16.2 17.4 15.95 17.25 15.85 17.0 15.9 16.95 15.9 Q16.75 16.05 16.85 16.25 L16.6 15.9 16.8 15.75 16.9 15.65" fill="#f61213" fill-rule="evenodd" stroke="none"/>
      <path d="M15.45 17.2 L16.2 18.25 16.9 19.3 17.35 19.95 17.45 20.1 17.6 20.35 18.0 20.9 18.05 20.95 18.15 21.15 18.35 21.4 18.6 21.8 18.7 21.9 18.5 22.05 18.3 22.3 18.65 22.5 18.0 22.25 17.4 22.05 17.35 21.9 17.2 21.45 16.85 20.75 16.1 19.55 15.9 19.15 16.0 19.1 16.1 19.05 15.9 18.5 15.9 18.45 15.45 17.2" fill="#fff67c" fill-rule="evenodd" stroke="none"/>
      <path d="M13.8 15.0 L13.85 15.0 14.15 15.45 14.2 15.5 14.25 15.55 14.4 15.75 14.55 15.9 14.7 16.15 15.05 16.6 15.25 16.95 15.45 17.2 15.9 18.45 15.9 18.5 16.1 19.05 16.0 19.1 15.75 18.55 14.85 16.75 14.55 16.25 14.15 15.6 13.75 15.1 13.8 15.0" fill="#efca19" fill-rule="evenodd" stroke="none"/>
      <path d="M15.45 18.75 L15.25 18.3 14.55 16.75 14.15 16.0 14.1 15.9 13.7 15.2 13.5 14.9 12.6 13.85 12.3 13.6 12.25 13.55 12.2 13.35 12.25 13.4 12.35 13.5 12.65 13.75 13.35 14.55 13.5 14.8 13.7 15.0 13.75 15.05 13.75 15.1 14.15 15.6 14.55 16.25 14.85 16.75 15.75 18.55 16.0 19.1 15.7 18.9 15.45 18.75" fill="#fbf970" fill-rule="evenodd" stroke="none"/>
      <path d="M18.9 22.65 L17.75 23.15 17.55 23.05 17.55 22.95 17.1 22.4 17.25 22.3 17.3 22.3 17.4 22.15 17.4 22.1 17.4 22.05 18.0 22.25 18.65 22.5 18.75 22.55 18.9 22.65" fill="#fdf974" fill-rule="evenodd" stroke="none"/>
      <path d="M21.2 11.9 L21.4 11.9 21.7 11.85 21.75 11.85 21.9 11.85 22.05 11.9 22.35 11.95 22.85 12.1 22.9 12.1 M20.85 12.0 L21.2 11.9 M20.6 12.05 L20.85 12.0 M22.95 12.15 L22.85 12.1 M17.75 23.15 L17.55 23.05 17.05 22.85 16.9 22.8 15.95 22.45 15.95 22.4 15.7 22.3 15.4 22.15 15.15 22.1 13.8 21.45 13.55 21.3 13.0 21.05 12.5 20.75 12.25 20.6 12.2 20.6 12.0 20.3 11.9 20.2 11.9 20.15 11.45 19.8 11.4 19.8 10.55 19.7 10.25 19.7 9.75 19.65 9.0 19.6 8.75 19.55 8.6 19.55 7.85 19.5 7.8 19.5 7.75 19.5 M10.15 10.95 L10.15 10.9 10.45 10.1 10.65 9.7 11.25 10.15 11.3 10.2 11.4 10.25 11.6 10.45 11.95 10.7 12.0 10.75 12.15 10.85 13.2 11.85 13.3 11.95 14.4 13.15 14.7 13.45 15.05 13.85 16.4 15.6 16.6 15.85 16.6 15.9 16.85 16.25 16.9 16.35 17.05 16.55 17.15 16.7 17.25 16.8 17.95 17.85 18.4 18.55 18.9 19.35 19.3 19.95 19.9 21.05 20.2 21.7 20.3 21.85 M20.3 17.2 Q20.9 17.55 21.7 17.55 L22.95 17.3 23.2 17.15 23.35 17.05 23.4 17.0 23.45 17.0 M20.3 17.2 L20.25 17.2 M9.45 13.85 L9.55 13.05 9.65 12.5 9.9 11.65 9.95 11.4 10.15 10.95 M6.65 15.05 L7.3 14.95 7.55 14.9 7.85 14.85 7.95 14.85 8.15 14.8 8.9 14.7 9.4 14.6 9.4 14.4 9.45 13.85 M6.65 15.7 L7.0 15.95 7.15 16.05 7.2 16.15 7.35 16.3 7.45 16.4 7.85 17.1 7.85 17.15 7.9 17.3 8.0 17.7 8.0 17.8 8.0 18.05 7.75 19.25 7.7 19.35 M6.95 16.7 L6.9 16.7 6.85 16.6 6.8 16.55 6.75 16.5 M6.95 16.7 L6.95 16.75 7.2 17.1 7.3 17.25 7.35 17.5 7.4 17.6 M7.4 17.65 L7.4 17.7 7.45 18.1 7.4 18.75" fill="none" stroke="#151714" stroke-linecap="round" stroke-linejoin="round" stroke-width="0.2"/>
      <path d="M21.0 12.35 L21.2 12.35 21.35 12.3 21.55 12.3 21.65 12.3 21.75 12.3 21.85 12.3 22.0 12.35 22.35 12.4 23.0 12.75 23.25 12.95 M21.55 12.8 L21.85 12.85 22.0 12.85 22.4 13.0 22.5 13.05 22.85 13.3 22.85 13.35 22.7 13.75 22.55 14.1 22.45 14.3 22.05 14.15 22.0 14.1 21.7 14.0 21.6 13.95 M23.25 13.85 L23.25 13.8 23.3 13.85 23.55 14.8 23.4 15.6 23.1 16.05 23.0 16.2 22.95 16.25 22.75 16.4 22.6 16.5 22.25 16.7 21.6 16.85 21.5 16.85 20.8 16.75 M23.25 13.85 L23.05 14.55 23.05 14.65 22.9 15.15 22.7 15.05 22.65 15.05 22.4 14.95 22.15 14.85 21.6 14.5 21.55 14.45 21.4 14.3 21.35 14.25 M23.55 16.15 L23.6 16.15 23.6 16.05 M20.55 16.95 L21.55 17.15 21.65 17.15 22.1 17.1 22.75 16.85 22.85 16.8 22.9 16.8 23.0 16.7 23.25 16.5 23.35 16.4 23.55 16.15 M10.2 14.5 L10.25 14.25 10.3 13.95 M10.3 13.9 L10.4 13.4 10.45 13.05 10.65 12.25 10.85 11.65 10.9 11.45 10.95 11.35 11.3 10.5 11.35 10.35 11.4 10.25 M18.65 22.5 L18.75 22.5 19.0 22.6 M10.05 15.2 L10.0 15.2 9.75 15.25 9.6 15.25 9.0 15.35 8.7 15.4 8.05 15.5 7.7 15.55 7.65 15.55 7.6 15.6 7.7 15.65 8.0 15.95 8.25 16.25 8.4 16.5 8.55 16.7 8.85 16.75 9.25 16.75 9.4 16.8 9.7 16.8 10.3 16.8 10.5 16.8 10.55 16.8 10.65 16.8 10.6 16.65 10.85 15.95 11.05 15.8 11.1 15.75 11.6 15.45 11.65 15.45 12.1 15.35 12.35 15.45 12.45 15.45 12.55 15.5 12.6 15.5 12.65 15.55 12.65 15.5 12.45 14.7 12.4 14.4 12.35 14.05 12.25 13.7 12.25 13.55 12.2 13.35 12.25 13.4 12.35 13.5 12.65 13.75 13.35 14.55 13.5 14.8 13.7 15.0 13.75 15.05 13.75 15.1 14.15 15.6 14.55 16.25 14.85 16.75 15.75 18.55 16.0 19.1 15.7 18.9 15.45 18.75 14.65 18.3 14.6 18.25 13.85 17.8 13.6 17.65 13.25 17.4 13.2 17.4 13.25 17.35 13.25 17.0 13.1 16.5 13.1 16.45 13.05 16.35 12.7 16.1 12.5 16.0 12.3 15.95 12.1 15.9 11.55 16.1 11.45 16.2 11.35 16.3 11.25 16.45 11.15 16.85 11.15 17.0 11.15 17.15 11.25 17.4 11.4 17.7 11.05 17.7 11.0 17.7 10.6 17.65 10.45 17.65 9.45 17.65 9.2 17.6 9.05 17.6 8.9 17.6 8.95 18.0 8.95 18.1 9.0 18.45 9.0 18.5 M10.2 14.5 L10.15 15.2 10.05 15.2 M9.0 18.55 L8.95 18.65 9.2 18.65 10.2 18.7 10.3 18.7 10.7 18.75 10.75 18.75 11.4 18.75 12.6 19.9 13.25 20.2 13.5 20.35 13.8 20.5 14.5 20.8 14.95 21.0 15.35 21.2 15.6 21.3 15.7 21.35 16.0 21.5 16.6 21.75 16.75 21.8 16.9 21.85 17.15 21.95 17.4 22.05 18.0 22.25 18.65 22.5" fill="none" stroke="#743606" stroke-linecap="round" stroke-linejoin="round" stroke-width="0.2"/>
      <path d="M20.6 12.05 L21.0 12.35 21.55 12.8 21.7 12.9 21.95 13.15 22.0 13.2 22.05 13.25 22.05 13.3 21.6 13.95 21.55 14.0 21.45 14.15 21.35 14.25 20.9 14.8 20.7 15.0 20.55 15.15 20.45 15.3 20.15 15.55 19.95 15.75 M13.3 11.95 L13.3 11.85 13.25 11.7 13.2 11.7 13.15 11.45 12.95 10.75 12.5 9.1 13.45 9.2 13.6 9.25 15.0 9.55 15.5 9.7 15.9 9.8 16.65 10.1 17.0 10.2 17.75 10.5 18.1 10.65 18.15 10.7 18.4 10.8 18.75 10.95 18.8 11.0 Q19.8 11.5 20.6 12.05 M16.4 15.6 L16.9 15.65 17.1 15.7 17.65 15.85 17.75 15.85 17.9 15.9 18.45 16.1" fill="none" stroke="#181317" stroke-linecap="round" stroke-linejoin="round" stroke-width="0.2"/>
      <path d="M20.3 10.7 L20.85 12.0 M8.5 10.35 L9.3 10.6 10.15 10.95 M15.9 9.8 L15.95 9.65 16.05 9.1 16.05 9.05 16.15 9.0 17.3 8.8 18.15 8.7 18.85 8.65 18.9 8.65 19.1 8.1 M19.05 8.7 L19.05 8.65 18.95 8.65 18.9 8.65 M19.8 9.7 L19.05 8.7 M20.0 10.1 L19.8 9.7 M20.25 10.6 L20.15 10.45 20.0 10.1 M7.85 17.3 L7.9 17.3" fill="none" stroke="#1a385a" stroke-linecap="round" stroke-linejoin="round" stroke-width="0.2"/>
      <path d="M15.5 13.0 L15.55 12.95 Q16.5 12.95 17.2 13.3 L17.85 13.7 18.05 13.85 18.8 14.6 19.0 14.9 19.0 14.95 19.15 15.3 18.75 15.25 18.65 15.25 18.35 15.35 18.15 15.45 18.1 15.45 17.8 15.5 17.7 15.5 17.05 15.3 17.0 15.3 16.8 15.2 16.25 14.6 16.0 14.0 15.65 13.45 15.3 13.0 15.5 13.0 M20.9 15.3 L20.95 15.35 21.0 15.45 21.05 15.5 21.1 15.6 21.1 15.65 21.2 15.8 21.25 15.9 21.25 16.1 21.2 16.2 21.1 16.5 21.05 16.55 21.05 16.6 20.95 16.65 20.85 16.7 20.8 16.75 20.75 16.75 20.55 16.95 20.35 17.2 20.3 17.2 20.25 17.35 20.3 17.55 20.6 18.25 20.75 18.5 20.9 18.7 21.0 18.8 21.2 19.0 21.25 19.05 21.35 19.1 21.5 19.0 21.7 18.8 21.75 18.75 21.85 18.65 21.9 18.65 21.95 18.6 22.5 18.15 22.9 17.8 23.3 17.5 23.35 17.55 M20.7 15.0 L20.9 15.3 M21.25 15.9 L21.25 15.85 21.2 15.8 M19.7 15.55 L19.6 15.45 19.2 15.65 19.15 15.7 18.75 15.95 18.45 16.1 17.25 16.8 M20.45 16.0 L20.85 16.1 M20.05 21.1 L20.2 21.15 20.5 21.25 20.55 21.3 20.85 21.45 M19.9 21.05 L20.05 21.1 M19.95 15.75 L20.15 15.85 20.45 16.0 M19.7 15.55 L19.95 15.75" fill="none" stroke="#18100d" stroke-linecap="round" stroke-linejoin="round" stroke-width="0.2"/>
      <path d="M20.45 15.3 L20.7 15.65 20.75 15.75 20.85 15.85 M20.45 16.0 L20.4 15.95 20.15 15.55 M18.35 16.85 L19.5 15.9" fill="none" stroke="#5f3301" stroke-linecap="round" stroke-linejoin="round" stroke-width="0.2"/>
      <path d="M12.5 20.75 L14.45 22.5 15.45 23.35 15.6 23.5 M12.0 20.3 L11.4 19.8" fill="none" stroke="#141819" stroke-linecap="round" stroke-linejoin="round" stroke-width="0.2"/>
      <path d="M9.2 9.55 Q11.65 7.25 15.25 7.25 L15.95 7.25 Q9.25 12.5 10.25 21.75 L9.2 20.9 9.05 20.75 Q6.75 18.45 6.75 15.2 6.75 12.0 9.1 9.65 L9.2 9.55" fill="#ffffff" fill-opacity="0.2" fill-rule="evenodd" stroke="none"/>
      <path d="M11.8 10.1 L10.7 11.8 9.5 13.15 Q8.95 13.05 8.85 12.75 L8.85 12.4 Q9.15 10.8 10.6 9.7 11.2 9.2 11.55 9.3 11.95 9.4 11.8 10.1 M9.85 14.75 L9.55 15.25 Q9.2 15.55 8.85 15.5 8.3 15.4 8.2 15.0 L8.25 14.6 Q8.35 13.8 9.15 13.9 10.0 14.0 9.85 14.75" fill="#ffffff" fill-rule="evenodd" stroke="none"/>
    </g>
    <linearGradient gradientTransform="matrix(0.0049, 0.0, 0.0, 0.0065, 25.8, 9.55)" gradientUnits="userSpaceOnUse" id="gradient0" spreadMethod="pad" x1="-819.2" x2="819.2">
      <stop offset="0.0" stop-color="#14737c"/>
      <stop offset="1.0" stop-color="#48f2e0"/>
    </linearGradient>
    <linearGradient gradientTransform="matrix(0.0048, 0.0, 0.0, 0.0067, 26.05, 20.35)" gradientUnits="userSpaceOnUse" id="gradient1" spreadMethod="pad" x1="-819.2" x2="819.2">
      <stop offset="0.0" stop-color="#14737c"/>
      <stop offset="1.0" stop-color="#48f2e0"/>
    </linearGradient>
    <linearGradient gradientTransform="matrix(0.0068, 0.0, 0.0, 0.005, 20.45, 25.9)" gradientUnits="userSpaceOnUse" id="gradient2" spreadMethod="pad" x1="-819.2" x2="819.2">
      <stop offset="0.0" stop-color="#14737c"/>
      <stop offset="1.0" stop-color="#48f2e0"/>
    </linearGradient>
    <linearGradient gradientTransform="matrix(0.0063, 0.0, 0.0, 0.0051, 9.7, 4.15)" gradientUnits="userSpaceOnUse" id="gradient3" spreadMethod="pad" x1="-819.2" x2="819.2">
      <stop offset="0.0" stop-color="#14737c"/>
      <stop offset="1.0" stop-color="#48f2e0"/>
    </linearGradient>
    <linearGradient gradientTransform="matrix(0.0052, 0.0, 0.0, 0.0065, 4.25, 9.55)" gradientUnits="userSpaceOnUse" id="gradient4" spreadMethod="pad" x1="-819.2" x2="819.2">
      <stop offset="0.0" stop-color="#14737c"/>
      <stop offset="1.0" stop-color="#48f2e0"/>
    </linearGradient>
    <linearGradient gradientTransform="matrix(0.005, 0.0, 0.0, 0.0065, 4.05, 20.25)" gradientUnits="userSpaceOnUse" id="gradient5" spreadMethod="pad" x1="-819.2" x2="819.2">
      <stop offset="0.0" stop-color="#14737c"/>
      <stop offset="1.0" stop-color="#48f2e0"/>
    </linearGradient>
  </defs>
</svg>
