<?xml version="1.0" encoding="UTF-8" standalone="no"?>
<svg xmlns:ffdec="https://www.free-decompiler.com/flash" xmlns:xlink="http://www.w3.org/1999/xlink" ffdec:objectType="frame" height="30.05px" width="30.0px" xmlns="http://www.w3.org/2000/svg">
  <g transform="matrix(1.0, 0.0, 0.0, 1.0, 0.0, 0.0)">
    <use ffdec:characterId="1" height="30.0" transform="matrix(1.0, 0.0, 0.0, 1.0, 0.0, 0.0)" width="30.0" xlink:href="#shape0"/>
    <use ffdec:characterId="3" height="30.0" transform="matrix(1.0, 0.0, 0.0, 1.0, 0.0, 0.05)" width="30.0" xlink:href="#sprite0"/>
  </g>
  <defs>
    <g id="shape0" transform="matrix(1.0, 0.0, 0.0, 1.0, 0.0, 0.0)">
      <path d="M0.0 0.0 L30.0 0.0 30.0 30.0 0.0 30.0 0.0 0.0" fill="#33cc66" fill-opacity="0.0" fill-rule="evenodd" stroke="none"/>
    </g>
    <g id="sprite0" transform="matrix(1.0, 0.0, 0.0, 1.0, 0.0, 0.0)">
      <use ffdec:characterId="2" height="30.0" transform="matrix(1.0, 0.0, 0.0, 1.0, 0.0, 0.0)" width="30.0" xlink:href="#shape1"/>
    </g>
    <g id="shape1" transform="matrix(1.0, 0.0, 0.0, 1.0, 0.0, 0.0)">
      <path d="M22.1 21.85 L22.15 21.9 22.1 21.9 22.1 21.85" fill="url(#gradient0)" fill-rule="evenodd" stroke="none"/>
      <path d="M21.1 7.95 Q19.2 6.5 16.85 6.15 L14.95 0.0 13.8 6.1 Q11.65 6.3 9.9 7.45 L4.6 4.3 8.3 8.65 8.2 8.75 6.75 10.55 Q5.8 12.0 5.55 13.75 L0.0 14.95 5.45 15.8 5.45 15.9 Q5.55 18.2 6.75 20.1 L7.45 21.1 4.5 25.8 9.25 22.85 Q11.25 24.3 13.8 24.65 L14.95 30.0 16.1 24.7 Q18.95 24.45 21.15 22.7 L26.0 25.8 22.55 21.4 Q24.5 19.25 24.85 16.35 L30.0 15.05 24.8 14.2 Q24.5 11.75 22.95 9.75 L26.0 4.3 21.15 8.0 21.1 7.95 M25.3 11.3 L30.0 15.05 25.25 19.15 26.05 25.85 26.05 25.9 19.0 25.4 14.95 30.0 11.05 25.4 4.5 25.8 4.5 25.65 5.05 19.3 0.0 14.95 5.1 11.05 4.6 4.3 10.95 5.15 14.95 0.0 19.15 5.15 26.0 4.3 25.3 11.3" fill="#e82f01" fill-rule="evenodd" stroke="none"/>
      <path d="M21.15 9.55 L20.2 8.8 Q17.95 7.25 15.2 7.25 11.65 7.25 9.15 9.55 L9.05 9.7 Q7.05 11.75 6.75 14.45 L6.7 15.35 6.75 16.3 Q7.05 19.0 9.0 21.0 L9.15 21.15 Q11.65 23.5 15.2 23.5 18.7 23.5 21.5 20.85 23.65 18.5 23.65 15.35 23.65 12.85 22.3 10.9 L21.15 9.55 M21.1 7.95 L21.15 8.0 26.0 4.3 22.95 9.75 Q24.5 11.75 24.8 14.2 L30.0 15.05 24.85 16.35 Q24.5 19.25 22.55 21.4 L26.0 25.8 21.15 22.7 Q18.95 24.45 16.1 24.7 L14.95 30.0 13.8 24.65 Q11.25 24.3 9.25 22.85 L4.5 25.8 7.45 21.1 6.75 20.1 Q5.55 18.2 5.45 15.9 L5.45 15.8 0.0 14.95 5.55 13.75 Q5.8 12.0 6.75 10.55 L8.2 8.75 8.3 8.65 4.6 4.3 9.9 7.45 Q11.65 6.3 13.8 6.1 L14.95 0.0 16.85 6.15 Q19.2 6.5 21.1 7.95 M22.1 21.85 L22.1 21.9 22.15 21.9 22.1 21.85" fill="#ff6a00" fill-rule="evenodd" stroke="none"/>
      <path d="M21.15 9.55 L22.3 10.9 Q23.65 12.85 23.65 15.35 23.65 18.5 21.5 20.85 18.7 23.5 15.2 23.5 11.65 23.5 9.15 21.15 L9.0 21.0 Q7.05 19.0 6.75 16.3 L6.7 15.35 6.75 14.45 Q7.05 11.75 9.05 9.7 L9.15 9.55 Q11.65 7.25 15.2 7.25 17.95 7.25 20.2 8.8 L21.15 9.55" fill="#68001d" fill-rule="evenodd" stroke="none"/>
      <path d="M20.5 9.35 L20.3 9.95 20.15 10.3 19.0 10.05 18.75 10.0 19.0 10.05 20.15 10.3 19.7 10.95 19.4 11.3 19.0 11.6 18.65 11.8 18.2 11.9 18.15 11.8 17.9 11.5 17.85 11.4 17.8 11.15 17.8 11.05 17.9 10.85 18.1 10.55 18.1 10.5 18.2 10.35 18.1 10.15 18.3 10.1 18.45 10.1 18.55 10.0 18.65 10.0 18.75 10.0 18.8 9.85 18.9 9.8 Q19.3 9.55 19.65 9.4 L20.35 9.35 20.5 9.35 M18.45 10.1 L18.35 10.2 18.1 10.5 18.35 10.2 18.45 10.1" fill="#ff9a02" fill-rule="evenodd" stroke="none"/>
      <path d="M20.15 10.3 L20.3 9.95 20.5 9.35 20.65 9.75 20.4 10.2 20.3 10.45 19.9 11.45 19.65 11.5 19.45 11.55 19.05 11.7 19.0 11.6 19.4 11.3 19.7 10.95 20.15 10.3 20.25 10.3 20.3 10.45 20.25 10.3 20.15 10.3" fill="#ff8003" fill-rule="evenodd" stroke="none"/>
      <path d="M20.3 10.45 L20.4 10.2 20.65 9.75 20.75 10.05 20.75 10.25 20.75 10.35 20.7 10.45 20.55 10.75 20.4 11.05 20.3 10.45 20.4 11.05 20.1 11.85 19.9 11.45 20.3 10.45" fill="#f56d00" fill-rule="evenodd" stroke="none"/>
      <path d="M20.7 10.45 L20.7 11.2 20.7 11.6 20.6 11.85 20.5 12.1 20.35 12.45 20.3 12.3 20.2 12.1 20.1 11.85 20.4 11.05 20.55 10.75 20.7 10.45 M20.6 11.85 L20.55 11.7 20.45 11.2 20.4 11.05 20.45 11.2 20.55 11.7 20.6 11.85" fill="#f34e00" fill-rule="evenodd" stroke="none"/>
      <path d="M22.3 15.15 L22.3 15.0 22.95 14.5 23.1 14.4 23.15 14.35 23.25 14.25 23.3 14.2 23.3 14.3 22.8 15.45 22.7 15.5 22.7 15.45 22.75 15.4 22.8 15.25 22.85 15.2 23.15 14.45 23.0 14.55 22.9 14.6 22.45 15.05 22.4 15.05 22.3 15.15" fill="#eaeaec" fill-rule="evenodd" stroke="none"/>
      <path d="M20.35 12.5 L20.4 13.1 20.45 13.25 20.25 13.15 20.25 12.5 20.35 12.5 M20.25 13.3 L20.35 13.6 20.4 14.0 20.4 14.15 20.45 15.0 20.45 15.1 20.45 15.2 20.4 15.55 20.35 15.65 20.3 15.65 20.0 15.85 19.95 16.0 19.9 16.1 19.45 16.7 19.3 16.5 19.25 16.4 19.05 16.05 19.0 15.9 19.0 15.85 19.4 15.65 19.8 15.25 19.8 15.2 19.85 15.15 20.05 14.65 20.1 14.6 20.1 14.5 20.2 14.15 20.2 14.0 20.25 13.3" fill="#dc1c0d" fill-rule="evenodd" stroke="none"/>
      <path d="M20.35 12.45 L20.35 12.5 20.25 12.5 20.25 13.15 20.25 13.3 20.2 14.0 20.2 14.15 20.1 14.5 20.1 14.6 20.05 14.65 19.85 15.15 19.8 15.2 19.8 15.25 19.4 15.65 19.0 15.85 18.95 15.85 18.95 15.75 18.85 15.5 18.75 15.15 18.7 14.8 18.65 14.65 19.05 14.45 19.55 14.0 19.65 13.85 19.85 13.4 19.9 12.9 20.0 12.65 20.0 12.4 20.0 12.35 20.1 11.85 20.2 12.1 20.3 12.3 20.35 12.45" fill="#e82f01" fill-rule="evenodd" stroke="none"/>
      <path d="M20.45 13.25 L20.5 13.6 20.55 14.0 20.7 15.3 20.7 15.35 20.9 15.7 21.15 16.1 21.2 16.15 21.05 16.15 20.85 16.25 20.5 16.35 20.4 16.4 20.35 16.45 20.05 16.85 20.0 17.0 19.75 17.0 19.55 16.85 19.45 16.7 19.9 16.1 19.95 16.0 20.0 15.85 20.3 15.65 20.35 15.65 20.4 15.55 20.45 15.2 20.45 15.1 20.45 15.0 20.4 14.15 20.4 14.0 20.35 13.6 20.25 13.3 20.25 13.15 20.45 13.25" fill="#c71014" fill-rule="evenodd" stroke="none"/>
      <path d="M22.25 15.55 L22.25 15.45 22.3 15.15 22.4 15.05 22.4 15.4 22.25 15.55" fill="#fffffd" fill-rule="evenodd" stroke="none"/>
      <path d="M21.75 15.95 L21.8 15.9 Q21.95 15.75 22.25 15.55 L22.4 15.4 22.45 15.6 22.3 15.65 Q22.05 15.75 21.85 15.9 L21.8 15.95 21.75 15.95" fill="#fffff6" fill-rule="evenodd" stroke="none"/>
      <path d="M21.6 16.0 L21.65 16.0 21.75 15.95 21.8 15.95 21.85 15.9 21.9 15.9 21.95 15.9 21.95 15.85 22.0 15.85 22.4 15.7 22.5 15.7 22.55 16.2 22.6 16.35 22.55 16.45 22.6 16.4 22.6 16.5 22.65 16.65 22.65 16.75 22.5 16.75 22.45 16.75 22.2 16.7 22.25 16.55 22.35 16.2 22.35 16.05 22.4 15.85 22.4 15.7 22.4 15.85 22.35 16.05 22.35 16.2 22.25 16.55 22.2 16.7 22.05 16.55 22.0 16.45 21.95 16.35 21.85 16.4 21.7 16.45 21.6 16.4 21.6 16.25 21.55 16.15 21.55 16.1 21.6 16.0 M22.0 15.85 L21.95 15.9 22.0 15.85" fill="#fedf47" fill-rule="evenodd" stroke="none"/>
      <path d="M22.8 15.45 L22.8 15.55 23.15 15.55 23.05 15.65 22.9 15.65 22.8 15.7 22.75 15.7 22.7 15.5 22.8 15.45" fill="#ffffff" fill-rule="evenodd" stroke="none"/>
      <path d="M21.3 16.1 L21.45 16.05 21.55 16.0 21.6 16.0 21.55 16.1 21.55 16.15 21.6 16.25 21.6 16.4 21.7 16.45 21.85 16.4 21.95 16.35 22.0 16.45 22.05 16.55 22.2 16.7 22.1 17.05 22.05 17.0 21.65 16.75 21.35 16.3 21.35 16.25 21.3 16.1" fill="#fcc52c" fill-rule="evenodd" stroke="none"/>
      <path d="M21.2 16.15 L21.2 16.1 21.25 16.1 21.3 16.1 21.35 16.25 21.35 16.3 21.65 16.75 22.05 17.0 22.1 17.05 22.1 17.15 22.1 17.25 22.05 17.25 22.1 17.25 22.1 17.15 22.1 17.05 22.45 17.1 22.55 17.1 22.65 17.1 22.65 17.2 22.55 17.45 22.4 17.5 22.2 17.55 22.1 17.55 21.95 17.5 21.85 17.45 21.8 17.4 21.7 17.2 21.6 17.25 21.55 17.25 21.2 17.05 21.1 16.95 21.0 16.8 20.85 16.25 21.05 16.15 21.2 16.15 M22.05 17.25 L22.05 17.3 21.95 17.5 22.05 17.3 22.05 17.25" fill="#fda505" fill-rule="evenodd" stroke="none"/>
      <path d="M23.05 15.65 L22.75 16.15 22.6 16.4 22.55 16.45 22.6 16.35 22.7 16.15 22.8 15.9 22.8 15.8 22.9 15.65 23.05 15.65" fill="#f1f1f1" fill-rule="evenodd" stroke="none"/>
      <path d="M22.65 16.75 L22.65 16.85 22.65 16.9 22.65 17.0 22.7 17.05 22.65 17.1 22.55 17.1 22.45 17.1 22.1 17.05 22.2 16.7 22.45 16.75 22.5 16.75 22.65 16.75" fill="#feb510" fill-rule="evenodd" stroke="none"/>
      <path d="M22.7 17.75 L22.7 18.1 22.5 18.2 22.4 18.2 22.25 18.25 22.25 18.3 22.2 18.4 21.65 18.65 21.2 18.55 20.85 18.4 Q20.35 18.0 20.3 17.15 L20.3 16.95 20.3 16.9 20.35 16.45 20.4 16.4 20.5 16.35 20.5 16.55 20.55 16.9 20.55 17.0 20.6 17.15 20.7 17.35 20.65 17.6 20.85 18.0 21.05 18.05 21.05 18.1 21.15 18.15 21.45 18.25 21.9 18.3 22.15 18.3 22.2 18.25 22.25 18.25 22.35 18.1 22.35 18.0 22.4 17.95 22.7 17.75" fill="#cd0f19" fill-rule="evenodd" stroke="none"/>
      <path d="M22.7 18.1 L22.7 18.3 22.5 18.45 22.3 18.65 22.2 18.7 22.2 18.75 22.0 18.85 21.55 18.9 21.45 18.9 21.25 18.9 Q19.85 18.8 19.85 17.5 L19.95 17.15 20.0 17.0 20.05 16.85 20.35 16.45 20.3 16.9 20.3 16.95 20.3 17.15 Q20.35 18.0 20.85 18.4 L21.2 18.55 21.65 18.65 22.2 18.4 22.25 18.3 22.25 18.25 22.4 18.2 22.5 18.2 22.7 18.1" fill="#b90c1f" fill-rule="evenodd" stroke="none"/>
      <path d="M22.7 17.1 L22.7 17.2 22.7 17.3 22.7 17.4 22.55 17.45 22.4 17.95 22.35 17.95 22.3 18.0 22.15 18.0 22.05 18.05 21.9 18.05 21.6 17.95 21.6 17.7 21.3 17.85 21.2 17.85 21.1 17.3 20.9 17.25 Q20.75 17.25 20.7 17.35 20.75 17.25 20.9 17.25 L21.1 17.3 21.2 17.85 21.1 17.8 21.0 17.75 20.85 17.45 20.7 17.35 20.6 17.15 20.55 17.0 20.55 16.9 20.5 16.55 20.5 16.35 20.85 16.25 21.0 16.8 21.1 16.95 21.2 17.05 21.55 17.25 21.6 17.25 21.7 17.2 21.8 17.4 21.85 17.45 21.95 17.5 22.1 17.55 22.2 17.55 22.4 17.5 22.55 17.45 22.65 17.2 22.65 17.1 22.7 17.1 M21.95 17.5 L21.9 17.65 21.75 17.8 21.6 17.95 21.75 17.8 21.9 17.65 21.95 17.5" fill="#ef6a05" fill-rule="evenodd" stroke="none"/>
      <path d="M22.7 17.4 L22.7 17.45 22.7 17.75 22.4 17.95 22.35 18.0 22.35 18.1 22.25 18.25 22.2 18.25 22.15 18.3 21.9 18.3 21.45 18.25 21.15 18.15 21.05 18.1 21.05 18.05 20.85 18.0 20.65 17.6 20.7 17.35 20.85 17.45 21.0 17.75 21.1 17.8 21.2 17.85 21.3 17.85 21.6 17.7 21.6 17.95 21.25 18.05 21.15 18.05 21.05 18.05 21.15 18.05 21.25 18.05 21.6 17.95 21.9 18.05 22.05 18.05 22.15 18.0 22.3 18.0 22.35 17.95 22.4 17.95 22.55 17.45 22.7 17.4" fill="#df4a08" fill-rule="evenodd" stroke="none"/>
      <path d="M22.3 18.95 L22.3 18.75 22.4 18.65 22.4 19.05 22.3 18.95" fill="#f6e8e8" fill-rule="evenodd" stroke="none"/>
      <path d="M22.3 18.65 L22.3 18.7 22.1 19.3 22.05 19.3 21.75 19.3 21.7 19.3 21.4 19.3 21.2 19.25 21.15 19.25 20.6 19.1 20.5 19.05 20.3 18.95 20.2 18.9 20.05 18.8 20.05 18.7 19.9 18.0 19.75 17.65 19.7 17.55 19.65 17.55 19.55 17.5 19.25 17.45 19.1 17.4 19.0 17.4 18.85 17.35 18.8 17.35 18.2 17.25 17.85 17.2 17.75 17.25 17.3 17.4 17.55 17.1 17.65 17.0 17.95 16.35 18.1 16.45 18.35 16.65 19.3 17.2 19.85 17.5 Q19.85 18.8 21.25 18.9 L21.45 18.9 21.55 18.9 22.0 18.85 22.2 18.75 22.2 18.7 22.3 18.65 M21.4 19.3 L21.45 18.9 21.4 19.3 M15.0 17.0 L15.05 17.05 14.9 16.95 15.0 17.0 M14.8 16.9 L14.75 16.9 14.75 16.85 14.8 16.9" fill="#6f011c" fill-rule="evenodd" stroke="none"/>
      <path d="M22.4 19.05 L22.65 19.2 22.7 19.2 22.75 19.3 22.7 19.4 22.65 19.35 22.6 19.3 22.55 19.3 22.45 19.2 22.3 19.15 22.3 18.95 22.4 19.05" fill="#f8ffff" fill-rule="evenodd" stroke="none"/>
      <path d="M22.1 19.45 L21.95 19.85 21.9 20.15 21.9 20.4 21.7 20.75 21.7 20.7 21.7 20.65 21.35 20.4 21.3 20.35 21.25 20.3 21.2 20.2 21.35 19.65 21.4 19.3 21.35 19.65 21.2 20.2 21.25 20.3 21.3 20.35 21.25 20.35 21.25 20.3 21.1 20.25 20.95 20.25 20.8 20.3 20.7 20.35 20.65 20.4 20.55 20.45 Q20.45 20.5 20.3 20.6 L20.1 20.75 20.0 20.8 19.45 20.95 19.0 20.9 18.8 20.85 18.35 20.55 18.15 20.45 17.85 20.1 17.85 20.05 17.6 19.85 17.45 19.75 17.6 19.8 17.65 19.8 17.85 19.8 18.6 19.95 18.95 19.95 19.3 19.8 19.65 19.55 19.9 19.25 20.05 18.8 20.2 18.9 20.3 18.95 20.5 19.05 20.6 19.1 21.15 19.25 21.2 19.25 21.4 19.3 21.7 19.3 21.75 19.3 22.05 19.3 22.1 19.45 M21.2 20.2 L21.1 20.25 21.2 20.2" fill="#68001d" fill-rule="evenodd" stroke="none"/>
      <path d="M21.7 20.65 L21.5 20.85 21.45 20.9 21.25 21.1 21.05 21.0 20.9 20.9 20.85 20.85 20.8 20.85 20.75 20.8 20.7 20.85 20.65 20.9 20.15 21.1 20.05 21.15 19.25 21.2 19.0 21.2 18.95 21.2 18.8 21.15 18.0 20.7 17.85 20.45 17.85 20.4 17.7 20.5 17.55 20.6 17.5 20.65 17.35 20.75 17.2 20.85 17.1 20.9 16.65 21.1 16.5 21.2 16.3 21.25 16.1 21.3 16.05 21.35 15.85 21.35 15.75 21.4 15.5 21.45 15.2 21.45 15.1 21.45 14.9 21.45 14.75 21.4 14.65 21.4 14.5 21.35 14.05 21.2 13.8 21.1 13.6 20.95 13.5 20.85 13.4 20.8 13.05 20.45 12.6 19.4 12.5 18.5 12.55 18.35 12.6 18.35 12.7 18.3 12.7 18.35 12.75 18.7 12.95 19.25 13.5 20.15 13.55 20.15 13.7 20.35 13.95 20.55 14.5 20.9 14.8 21.0 15.0 21.05 15.25 21.05 15.4 21.05 15.5 21.05 15.8 21.0 16.0 20.95 16.05 20.95 16.7 20.65 17.0 20.45 17.3 20.3 17.4 20.3 17.6 20.2 17.75 20.2 17.85 20.2 18.15 20.45 18.35 20.55 18.8 20.85 19.0 20.9 19.45 20.95 20.0 20.8 20.1 20.75 20.3 20.6 Q20.45 20.5 20.55 20.45 L20.65 20.4 20.7 20.35 20.8 20.3 20.95 20.25 21.1 20.25 21.25 20.3 21.25 20.35 21.3 20.35 21.35 20.4 21.7 20.65 M20.65 20.4 L21.1 20.25 20.65 20.4" fill="#7e001c" fill-rule="evenodd" stroke="none"/>
      <path d="M20.9 21.4 L20.55 21.65 20.3 21.45 20.2 21.5 20.1 21.5 19.35 21.6 19.2 21.6 19.05 21.6 19.0 21.6 18.9 21.6 18.75 21.6 18.35 21.45 17.85 21.25 17.8 21.25 17.65 21.2 17.5 21.1 17.4 21.15 17.3 21.2 17.1 21.3 16.85 21.4 16.65 21.5 16.3 21.55 16.2 21.6 16.05 21.6 15.95 21.6 15.85 21.65 15.45 21.85 15.15 21.95 15.05 21.95 14.8 22.05 14.6 22.15 14.45 22.2 14.35 22.25 13.95 22.4 14.3 22.15 14.45 22.0 14.55 21.95 14.45 22.0 14.3 22.15 13.95 22.4 13.6 22.75 13.55 22.7 13.8 22.4 13.85 22.3 13.9 22.2 14.15 21.7 13.6 21.2 13.5 21.1 13.45 21.1 13.4 21.05 12.95 20.65 12.85 20.55 12.6 20.05 12.4 19.5 12.15 18.95 Q11.85 18.5 11.15 18.4 L11.15 18.35 11.5 18.35 12.2 18.3 12.55 18.35 12.5 18.5 12.6 19.4 13.05 20.45 13.4 20.8 13.5 20.85 13.6 20.95 13.8 21.1 14.05 21.2 14.5 21.35 14.65 21.4 14.75 21.4 14.9 21.45 15.1 21.45 15.2 21.45 15.5 21.45 15.75 21.4 15.85 21.35 16.05 21.35 16.1 21.3 16.3 21.25 16.5 21.2 16.65 21.1 17.1 20.9 17.2 20.85 17.35 20.75 17.5 20.65 17.55 20.6 17.7 20.5 17.85 20.4 17.85 20.45 18.0 20.7 18.8 21.15 18.95 21.2 19.0 21.2 19.25 21.2 20.05 21.15 20.15 21.1 20.65 20.9 20.7 20.85 20.8 20.85 20.85 20.85 20.85 21.15 20.9 21.4 M14.55 21.95 L14.65 21.85 14.9 21.65 15.1 21.5 15.1 21.45 15.1 21.5 14.9 21.65 14.65 21.85 14.55 21.95" fill="#b9091e" fill-rule="evenodd" stroke="none"/>
      <path d="M21.25 21.1 L20.9 21.4 20.85 21.15 20.85 20.85 20.9 20.9 21.05 21.0 21.25 21.1" fill="#c61908" fill-rule="evenodd" stroke="none"/>
      <path d="M21.9 20.4 L21.95 20.25 22.0 20.05 22.05 20.2 21.9 20.4" fill="#9d031f" fill-rule="evenodd" stroke="none"/>
      <path d="M18.8 22.7 L17.65 23.15 17.25 23.1 16.8 23.2 16.7 23.2 16.55 23.15 16.1 23.05 16.75 22.8 16.85 22.75 17.75 22.6 17.8 22.6 17.95 22.65 18.05 22.65 18.3 22.65 18.5 22.7 18.5 22.65 18.75 22.7 18.8 22.7" fill="#f99d18" fill-rule="evenodd" stroke="none"/>
      <path d="M20.55 21.65 L19.8 22.2 19.3 21.95 19.15 21.9 19.0 21.85 18.95 21.85 18.75 21.8 18.7 21.75 17.85 21.6 17.8 21.6 17.55 21.6 17.3 21.6 17.0 21.6 16.6 21.7 16.25 21.8 16.05 21.85 16.0 21.85 15.85 21.9 15.4 22.1 15.1 22.2 15.05 22.2 15.0 22.25 14.5 22.45 14.4 22.5 13.9 22.7 13.55 22.9 13.55 22.85 13.6 22.75 13.95 22.4 14.35 22.25 14.45 22.2 14.6 22.15 14.8 22.05 15.05 21.95 15.15 21.95 15.45 21.85 15.85 21.65 15.95 21.6 16.05 21.6 16.2 21.6 16.3 21.55 16.65 21.5 16.85 21.4 17.1 21.3 17.3 21.2 17.4 21.15 17.5 21.1 17.65 21.2 17.8 21.25 17.85 21.25 18.35 21.45 18.75 21.6 18.9 21.6 19.0 21.6 19.05 21.6 19.2 21.6 19.35 21.6 20.1 21.5 20.2 21.5 20.3 21.45 20.55 21.65" fill="#c72113" fill-rule="evenodd" stroke="none"/>
      <path d="M19.8 22.2 L19.45 22.4 19.35 22.3 19.25 22.25 18.7 22.05 18.6 22.0 17.9 21.9 17.85 21.9 16.95 22.0 16.55 22.1 16.4 22.1 16.05 22.15 16.0 22.2 15.9 22.2 15.4 22.4 15.1 22.5 15.05 22.55 15.0 22.55 15.0 22.6 14.95 22.6 14.45 22.7 14.4 22.7 14.3 22.7 13.95 22.8 13.55 22.9 13.9 22.7 14.4 22.5 14.5 22.45 15.0 22.25 15.05 22.2 15.1 22.2 15.4 22.1 15.85 21.9 16.0 21.85 16.05 21.85 16.25 21.8 16.6 21.7 17.0 21.6 17.3 21.6 17.55 21.6 17.8 21.6 17.85 21.6 18.7 21.75 18.75 21.8 18.95 21.85 19.0 21.85 19.15 21.9 19.3 21.95 19.8 22.2 M9.15 19.25 L9.0 19.2 8.7 19.15 8.5 19.1 8.45 19.1 8.35 19.1 8.3 19.05 8.05 19.0 7.8 18.95 8.05 18.9 8.05 19.0 8.35 19.0 8.45 19.0 8.65 18.95 8.95 18.95 9.15 18.95 9.5 18.9 10.65 18.8 10.75 18.75 Q11.4 18.75 11.65 19.15 L11.95 19.65 12.05 19.75 12.25 20.1 12.75 20.65 12.9 20.75 13.4 21.45 13.45 21.65 13.4 21.95 13.3 22.4 13.15 22.75 13.05 23.0 13.05 22.95 13.1 22.75 13.1 22.4 13.0 21.8 12.4 20.85 12.25 20.65 12.2 20.55 12.05 20.35 11.95 20.25 11.9 20.2 11.7 20.0 11.5 19.85 10.85 19.55 10.7 19.5 9.55 19.3 9.35 19.3 9.2 19.25 9.15 19.25" fill="#dd4106" fill-rule="evenodd" stroke="none"/>
      <path d="M19.1 22.55 L18.8 22.7 18.75 22.7 18.5 22.65 18.3 22.6 18.05 22.6 17.95 22.6 17.8 22.6 17.75 22.6 16.85 22.75 16.75 22.8 16.1 23.05 16.05 23.05 15.85 23.05 15.3 23.15 14.9 23.2 14.65 23.25 14.25 23.35 14.0 23.45 13.85 23.5 13.95 23.45 14.2 23.15 14.35 23.05 Q14.45 22.9 14.6 22.85 L14.95 22.7 15.0 22.7 15.05 22.65 15.15 22.6 15.4 22.55 15.95 22.4 16.75 22.3 16.9 22.25 17.45 22.2 17.95 22.25 18.55 22.35 19.1 22.55" fill="#f26702" fill-rule="evenodd" stroke="none"/>
      <path d="M13.15 7.5 L13.35 7.45 13.35 7.55 13.15 7.5" fill="#fffebc" fill-rule="evenodd" stroke="none"/>
      <path d="M9.8 10.3 L9.4 9.85 9.4 9.35 9.8 9.0 10.15 9.25 9.95 9.75 9.95 9.8 9.85 10.1 9.85 10.25 9.8 10.3 M10.45 8.6 L10.65 8.45 11.1 8.2 11.45 8.35 11.75 8.25 11.95 8.05 12.05 7.85 12.1 7.8 12.9 7.55 13.15 7.5 13.35 7.55 13.35 7.45 13.75 7.35 13.8 7.75 13.7 7.7 13.55 7.65 13.35 7.55 13.3 7.75 13.1 8.55 13.1 8.6 13.05 8.6 12.7 8.65 12.55 8.65 12.35 8.65 12.3 9.35 12.3 9.4 12.3 9.55 12.15 9.65 11.5 9.75 11.2 9.7 10.8 9.6 10.45 9.4 10.15 9.25 10.45 8.6" fill="#feff97" fill-rule="evenodd" stroke="none"/>
      <path d="M13.8 7.75 L13.8 7.8 13.85 8.0 13.85 8.05 13.9 8.25 13.85 8.4 13.8 8.6 13.65 8.6 13.1 8.6 13.1 8.55 13.3 7.75 13.35 7.55 13.55 7.65 13.7 7.7 13.8 7.75" fill="#fff476" fill-rule="evenodd" stroke="none"/>
      <path d="M12.3 9.35 L12.35 8.65 12.55 8.65 12.7 8.65 13.05 8.6 13.1 8.6 13.2 8.85 13.2 9.0 13.1 9.45 12.8 9.7 12.7 9.7 12.5 9.6 12.4 9.45 12.4 9.35 12.3 9.35" fill="#fdf97b" fill-rule="evenodd" stroke="none"/>
      <path d="M12.3 9.35 L12.4 9.35 12.4 9.45 12.5 9.6 12.7 9.7 12.8 9.7 13.1 9.45 13.2 9.0 13.2 8.85 13.1 8.6 13.65 8.6 13.8 8.6 13.7 9.0 13.45 9.6 13.2 9.95 12.85 10.2 12.8 10.25 12.35 10.45 12.3 9.55 12.3 9.4 12.3 9.35" fill="#ffed4d" fill-rule="evenodd" stroke="none"/>
      <path d="M12.35 10.45 L12.8 10.25 12.85 10.2 13.2 9.95 13.45 9.6 13.7 9.0 13.8 8.6 13.9 9.35 13.85 9.85 13.85 9.9 13.65 9.95 13.65 10.25 13.4 10.4 13.0 10.55 12.9 10.6 12.55 10.6 12.4 10.6 12.4 10.55 12.35 10.45" fill="#fce82f" fill-rule="evenodd" stroke="none"/>
      <path d="M14.7 8.65 L14.9 8.25 14.9 8.2 14.95 8.2 15.05 8.15 15.35 8.05 15.2 8.3 15.1 8.6 15.15 8.75 15.35 8.8 15.7 8.7 16.2 8.6 16.3 8.65 16.65 8.8 16.75 8.85 16.95 8.95 17.2 8.7 17.3 8.7 17.55 9.35 17.6 9.5 17.6 9.7 17.6 9.8 17.6 9.95 17.6 10.25 17.6 10.45 17.45 10.3 17.4 10.25 17.3 10.1 17.25 10.05 17.15 9.95 16.3 9.05 16.25 9.05 16.05 9.1 16.0 9.1 15.25 9.3 15.1 9.35 14.95 9.45 14.1 9.8 14.45 9.2 14.65 8.75 14.7 8.65" fill="#ffea3f" fill-rule="evenodd" stroke="none"/>
      <path d="M14.95 8.2 L14.95 8.15 15.75 7.3 15.8 7.2 15.8 7.3 15.85 7.45 16.0 7.55 16.4 7.4 16.6 7.35 16.85 7.3 17.2 7.5 17.25 7.55 17.3 7.7 17.4 7.85 17.2 7.6 16.95 7.45 16.9 7.45 16.7 7.6 15.75 7.9 15.35 8.05 15.05 8.15 14.95 8.2" fill="#fef244" fill-rule="evenodd" stroke="none"/>
      <path d="M10.55 11.05 L10.5 11.0 10.6 11.05 11.05 11.2 11.3 11.3 11.4 11.35 11.5 11.35 11.45 11.45 11.45 11.4 11.25 11.35 11.1 11.3 10.55 11.05 M14.25 8.6 L14.3 8.6 14.6 8.6 14.65 8.6 14.7 8.65 14.65 8.75 14.45 9.2 14.1 9.8 14.25 9.0 14.25 8.6 M12.55 11.5 L12.45 11.0 12.5 11.0 12.95 10.9 13.1 10.85 13.6 10.6 13.5 11.05 13.5 11.45 13.3 11.45 13.15 11.5 13.0 11.5 12.75 11.5 12.65 11.5 12.55 11.5" fill="#fad50b" fill-rule="evenodd" stroke="none"/>
      <path d="M13.95 8.6 L14.05 8.6 14.25 8.6 14.25 9.0 14.1 9.8 13.85 9.9 13.85 9.85 13.9 9.35 13.8 8.6 13.95 8.6 M12.4 10.6 L12.55 10.6 12.9 10.6 13.0 10.55 13.4 10.4 13.65 10.25 13.6 10.6 13.1 10.85 12.95 10.9 12.5 11.0 12.45 11.0 12.4 10.6" fill="#ffdf28" fill-rule="evenodd" stroke="none"/>
      <path d="M15.35 8.05 L15.75 7.9 16.7 7.6 16.9 7.55 17.2 8.3 17.3 8.6 17.2 8.7 16.95 8.95 16.75 8.85 16.65 8.8 16.3 8.65 16.2 8.6 15.7 8.7 15.35 8.8 15.15 8.75 15.1 8.6 15.2 8.3 15.35 8.05" fill="#ffea23" fill-rule="evenodd" stroke="none"/>
      <path d="M11.1 8.2 L12.1 7.8 12.05 7.85 11.95 8.05 11.75 8.25 11.45 8.35 11.1 8.2" fill="#fffeb1" fill-rule="evenodd" stroke="none"/>
      <path d="M9.8 9.0 Q10.1 8.75 10.45 8.6 L10.15 9.25 9.8 9.0" fill="#feffb7" fill-rule="evenodd" stroke="none"/>
      <path d="M12.3 9.55 L12.35 10.45 12.3 10.45 11.7 10.55 11.4 10.45 11.3 10.45 10.9 10.35 Q10.2 10.15 9.95 9.8 L9.95 9.75 10.15 9.25 10.45 9.4 10.8 9.6 11.2 9.7 11.5 9.75 12.15 9.65 12.3 9.55" fill="#fef667" fill-rule="evenodd" stroke="none"/>
      <path d="M10.2 10.7 L9.8 10.3 9.85 10.25 9.85 10.1 9.95 9.8 Q10.2 10.15 10.9 10.35 L11.3 10.45 11.4 10.45 11.7 10.55 12.3 10.45 12.35 10.45 12.4 10.55 12.4 10.6 12.45 11.0 11.85 11.05 11.35 11.0 11.25 11.0 11.0 10.95 10.7 10.85 10.2 10.7" fill="#fff25d" fill-rule="evenodd" stroke="none"/>
      <path d="M10.5 11.0 L10.25 10.75 10.2 10.7 10.7 10.85 11.0 10.95 11.25 11.0 11.35 11.0 11.85 11.05 12.45 11.0 12.55 11.5 11.5 11.35 11.4 11.35 11.3 11.3 11.05 11.2 10.6 11.05 10.5 11.0" fill="#ffda23" fill-rule="evenodd" stroke="none"/>
      <path d="M11.55 12.05 L11.55 12.0 11.15 11.65 11.05 11.55 10.55 11.05 11.1 11.3 11.25 11.35 11.45 11.4 11.45 11.45 12.3 11.65 12.45 11.7 12.6 11.75 12.75 12.25 12.8 12.45 12.75 12.45 12.65 12.45 11.95 12.2 11.75 12.1 11.55 12.05" fill="#ffb900" fill-rule="evenodd" stroke="none"/>
      <path d="M9.6 12.05 L9.95 12.15 10.35 12.2 10.35 12.3 10.4 12.2 10.55 12.25 10.7 12.3 10.95 12.35 11.05 12.35 11.15 12.4 11.2 12.4 11.45 12.45 11.7 12.5 12.2 12.7 12.25 12.7 13.0 12.95 13.05 13.15 13.1 13.25 13.15 13.35 13.5 13.55 13.95 13.75 14.0 13.75 14.55 14.0 Q14.4 14.05 14.3 14.15 L14.05 14.35 13.9 14.5 13.45 15.1 13.0 14.9 12.85 14.9 12.7 14.9 12.65 14.9 12.4 14.9 12.2 14.95 12.15 14.7 12.1 14.5 11.95 14.25 11.9 14.1 11.65 13.75 11.3 13.45 10.85 13.2 10.7 13.05 10.65 13.0 10.65 13.1 10.25 12.9 10.05 12.75 10.0 12.7 9.6 12.25 9.6 12.05 M13.05 13.8 L13.35 13.65 13.45 13.65 Q13.55 13.65 13.8 13.8 L13.85 13.85 14.05 14.15 13.85 14.45 13.4 14.55 13.15 14.55 12.8 14.45 12.75 14.4 12.5 14.25 12.35 14.15 12.1 13.95 11.75 13.65 11.65 13.55 11.45 13.3 11.3 13.05 11.0 12.5 11.0 12.4 10.95 12.35 11.0 12.4 11.0 12.5 11.3 13.05 11.45 13.3 11.65 13.55 11.75 13.65 12.1 13.95 12.35 14.15 12.5 14.25 12.75 14.4 12.8 14.45 13.15 14.55 13.4 14.55 13.85 14.45 14.05 14.15 13.85 13.85 13.8 13.8 Q13.55 13.65 13.45 13.65 L13.35 13.65 13.05 13.8 M12.2 14.95 L12.4 14.9 12.65 14.9 12.7 14.9 12.85 14.9 13.0 14.9 13.45 15.1 13.3 15.55 13.25 15.8 12.9 15.5 12.85 15.45 12.55 15.2 12.2 14.95" fill="#fff17a" fill-rule="evenodd" stroke="none"/>
      <path d="M12.55 11.5 L12.65 11.5 12.75 11.5 13.0 11.5 13.15 11.5 13.3 11.45 13.5 11.45 13.45 11.55 13.8 11.85 13.9 11.95 13.85 11.95 13.45 11.9 13.25 11.85 12.9 11.8 12.7 11.75 12.6 11.75 12.6 11.6 12.55 11.5" fill="#ffb601" fill-rule="evenodd" stroke="none"/>
      <path d="M12.55 11.5 L12.6 11.6 12.6 11.75 12.45 11.7 12.3 11.65 11.45 11.45 11.5 11.35 12.55 11.5" fill="#fcce09" fill-rule="evenodd" stroke="none"/>
      <path d="M11.65 12.15 L11.55 12.05 11.75 12.1 11.95 12.2 12.65 12.45 12.75 12.45 12.8 12.45 12.9 12.5 13.4 12.6 13.45 12.6 13.55 12.65 13.7 12.65 14.45 12.8 14.55 12.8 15.05 12.9 15.65 12.95 15.7 12.95 15.85 12.95 16.5 13.45 16.6 13.55 16.15 13.55 15.9 13.55 15.85 13.55 15.35 13.55 14.7 13.4 14.65 13.4 14.3 13.35 14.15 13.3 14.0 13.25 13.8 13.2 13.75 13.15 13.55 13.1 13.2 13.0 13.55 13.1 13.75 13.15 13.8 13.2 14.0 13.25 14.15 13.3 14.3 13.35 15.15 13.6 15.2 13.7 Q14.85 13.8 14.55 14.0 L14.0 13.75 13.95 13.75 13.5 13.55 13.15 13.35 13.1 13.25 13.05 13.15 13.0 12.95 13.2 13.0 13.0 12.9 12.95 12.85 12.85 12.8 12.75 12.75 12.55 12.65 11.9 12.4 11.65 12.15 M12.8 12.45 L12.95 12.85 12.8 12.45" fill="#fe9603" fill-rule="evenodd" stroke="none"/>
      <path d="M11.45 12.25 L11.65 12.15 11.9 12.4 12.2 12.7 11.7 12.5 11.45 12.45 11.45 12.25 M10.55 14.05 L10.75 14.15 10.5 14.2 10.15 14.3 10.05 14.35 9.8 14.35 9.75 14.35 9.6 14.3 9.85 14.3 10.05 14.25 10.55 14.05" fill="#f24a03" fill-rule="evenodd" stroke="none"/>
      <path d="M8.45 13.6 L8.45 13.4 8.5 13.4 8.55 13.45 8.6 13.55 8.8 13.8 9.05 13.85 9.15 13.9 9.2 13.95 9.35 14.05 9.6 14.05 10.15 13.9 10.55 14.05 10.05 14.25 9.85 14.3 9.6 14.3 9.55 14.3 9.55 14.25 9.3 14.15 9.25 14.15 9.1 14.05 9.0 14.0 8.95 14.0 8.75 13.85 8.5 13.65 8.5 13.6 8.45 13.6 M11.2 12.4 L11.3 12.35 11.45 12.25 11.45 12.45 11.2 12.4" fill="#fc6e02" fill-rule="evenodd" stroke="none"/>
      <path d="M13.65 10.25 L13.65 9.95 13.85 9.9 14.1 9.8 14.95 9.45 15.1 9.35 15.25 9.3 16.0 9.1 16.05 9.1 16.15 9.15 16.15 9.2 16.3 9.65 16.05 10.0 15.9 10.05 15.6 10.1 15.35 10.2 15.25 10.3 14.8 10.85 14.5 11.35 14.25 11.5 13.8 11.35 13.5 11.05 13.6 10.6 13.65 10.25" fill="#ffd715" fill-rule="evenodd" stroke="none"/>
      <path d="M13.5 11.45 L13.5 11.05 13.8 11.35 14.25 11.5 14.5 11.35 14.8 10.85 15.25 10.3 15.35 10.2 15.6 10.1 15.9 10.05 16.05 10.0 16.3 9.65 16.15 9.2 16.15 9.15 16.05 9.1 16.25 9.05 16.3 9.05 17.15 9.95 17.25 10.05 17.3 10.1 17.4 10.25 17.45 10.3 17.6 10.45 17.6 10.85 17.6 10.95 17.5 10.9 17.3 10.8 17.05 10.7 17.0 10.7 16.65 10.55 16.05 10.4 15.95 10.4 15.9 10.45 15.85 10.55 15.85 10.6 15.5 10.9 15.3 11.2 15.2 11.3 15.2 11.35 15.05 11.6 14.9 11.85 14.8 11.95 14.7 12.1 14.6 12.4 14.05 12.05 14.0 12.05 13.9 11.95 13.8 11.85 13.45 11.55 13.5 11.45" fill="#fdcd01" fill-rule="evenodd" stroke="none"/>
      <path d="M12.6 11.75 L12.7 11.75 12.9 11.8 13.25 11.85 13.45 11.9 13.85 11.95 13.9 11.95 14.0 12.05 14.05 12.05 14.6 12.4 14.65 12.45 15.0 12.65 15.85 12.95 15.0 12.65 14.65 12.45 14.6 12.4 14.7 12.1 14.75 12.15 15.35 12.3 15.8 12.4 16.0 12.35 16.0 12.2 15.95 11.95 15.95 11.85 16.05 11.55 16.05 11.5 16.1 11.45 16.15 11.4 16.25 11.35 16.35 11.3 16.5 11.3 16.55 11.3 16.65 11.3 16.8 11.35 16.95 11.4 17.2 11.25 17.2 11.2 17.25 11.1 17.3 11.05 17.3 10.8 17.5 10.9 17.6 10.95 17.6 11.1 17.6 11.2 17.6 11.25 17.65 11.25 17.9 11.5 18.15 11.8 18.2 11.9 18.2 11.95 17.9 11.9 17.55 11.85 17.25 11.85 16.95 11.8 16.85 11.8 16.85 11.85 16.7 12.2 16.6 12.55 16.55 12.95 16.5 13.4 16.5 13.45 15.85 12.95 15.7 12.95 15.65 12.95 15.05 12.9 14.55 12.8 14.45 12.8 13.7 12.65 13.55 12.65 13.45 12.6 13.4 12.6 12.9 12.5 12.8 12.45 12.75 12.25 12.6 11.75" fill="#ffa700" fill-rule="evenodd" stroke="none"/>
      <path d="M14.7 12.1 L14.8 11.95 14.9 11.85 15.05 11.6 15.2 11.35 15.2 11.3 15.3 11.2 15.5 10.9 15.85 10.6 15.85 10.55 15.9 10.45 15.95 10.4 16.05 10.4 16.65 10.55 17.0 10.7 17.05 10.7 17.3 10.8 17.3 11.05 17.25 11.1 17.2 11.2 17.2 11.25 16.95 11.4 16.8 11.35 16.65 11.3 16.55 11.3 16.5 11.3 16.35 11.3 16.25 11.35 16.15 11.4 16.1 11.45 16.05 11.5 16.05 11.55 15.95 11.85 15.95 11.95 16.0 12.2 16.0 12.35 15.8 12.4 15.35 12.3 14.75 12.15 14.7 12.1" fill="#ffbb02" fill-rule="evenodd" stroke="none"/>
      <path d="M16.0 7.3 L16.6 7.35 16.4 7.4 16.0 7.55 15.85 7.45 15.8 7.3 16.0 7.3 M17.2 7.5 L18.0 7.7 18.1 8.05 17.85 8.05 17.8 8.05 17.4 7.9 17.4 7.85 17.3 7.7 17.25 7.55 17.2 7.5" fill="#fffa8f" fill-rule="evenodd" stroke="none"/>
      <path d="M18.1 8.05 L18.15 8.3 17.95 8.65 17.8 9.0 17.75 9.2 17.65 9.5 17.6 9.5 17.55 9.35 17.3 8.7 17.3 8.6 17.2 8.3 16.9 7.55 16.9 7.45 16.95 7.45 17.2 7.6 17.4 7.85 17.4 7.9 17.8 8.05 17.85 8.05 18.1 8.05" fill="#ffda09" fill-rule="evenodd" stroke="none"/>
      <path d="M18.15 8.3 L18.25 8.6 18.2 8.65 18.05 9.1 17.85 9.75 18.1 10.15 18.2 10.35 18.1 10.5 18.1 10.55 17.9 10.85 17.8 11.05 17.75 11.05 17.65 11.25 17.6 11.25 17.6 11.2 17.6 11.1 17.6 10.95 17.6 10.85 17.6 10.45 17.6 10.25 17.6 9.95 17.6 9.8 17.6 9.7 17.65 9.5 17.75 9.2 17.8 9.0 17.95 8.65 18.15 8.3" fill="#fcb201" fill-rule="evenodd" stroke="none"/>
      <path d="M16.6 12.55 L16.7 12.2 16.85 11.85 16.85 11.8 16.95 11.8 17.25 11.85 17.55 11.85 17.9 11.9 17.9 11.95 17.95 12.05 18.0 12.25 17.8 12.55 17.45 12.55 17.3 12.75 17.2 12.95 17.15 13.05 17.05 13.15 17.0 13.25 16.8 13.1 16.75 12.9 16.7 12.85 16.6 12.55" fill="#ff9501" fill-rule="evenodd" stroke="none"/>
      <path d="M17.65 11.25 L17.75 11.05 17.8 11.05 17.8 11.15 17.85 11.4 17.9 11.5 17.65 11.25 M18.2 11.95 L18.2 11.9 18.65 11.8 19.0 11.6 19.05 11.7 19.45 11.55 19.65 11.5 19.9 11.45 19.6 12.3 19.6 12.35 18.65 13.45 18.45 13.5 18.4 13.2 18.4 12.95 18.35 12.7 18.35 12.65 18.25 12.3 18.2 11.95" fill="#ff6a00" fill-rule="evenodd" stroke="none"/>
      <path d="M16.6 12.55 L16.7 12.85 16.75 12.9 16.8 13.1 17.0 13.25 17.05 13.15 17.15 13.05 17.2 12.95 17.3 12.75 17.45 12.55 17.8 12.55 18.0 12.25 17.95 12.05 17.9 11.95 17.9 11.9 18.2 11.95 18.25 12.3 18.35 12.65 18.35 12.7 18.4 12.95 17.9 12.9 17.6 12.9 17.55 12.9 17.5 13.15 17.5 13.25 17.45 13.5 17.45 13.65 17.45 13.75 17.4 14.3 17.4 14.4 17.35 14.45 17.3 14.35 16.9 13.9 16.8 13.8 16.75 13.7 16.6 13.55 16.5 13.45 16.5 13.4 16.55 12.95 16.6 12.55" fill="#fe7902" fill-rule="evenodd" stroke="none"/>
      <path d="M19.9 11.45 L20.1 11.85 20.0 12.35 20.0 12.4 20.0 12.65 19.9 12.9 19.85 13.4 19.65 13.85 19.55 14.0 19.05 14.45 18.65 14.65 18.45 13.6 18.45 13.5 18.65 13.45 19.6 12.35 19.6 12.3 19.9 11.45" fill="#f85103" fill-rule="evenodd" stroke="none"/>
      <path d="M8.45 13.4 L8.35 13.4 8.1 13.4 8.0 13.35 7.8 13.35 7.95 13.25 8.1 13.15 8.15 13.15 8.15 13.05 8.1 12.7 8.4 12.85 8.45 12.85 8.6 12.95 8.9 13.1 9.05 13.2 9.55 13.55 9.6 13.6 9.5 13.7 8.65 13.45 8.55 13.45 8.5 13.4 8.45 13.4 M7.55 13.3 L7.25 13.25 7.05 13.25 7.1 13.2 7.0 13.15 7.3 12.25 7.4 12.1 7.3 12.25 7.9 12.6 8.0 12.65 7.95 13.1 7.9 13.1 7.55 13.3" fill="#ffffbb" fill-rule="evenodd" stroke="none"/>
      <path d="M7.05 13.25 L7.0 13.25 6.85 13.2 7.0 13.2 7.1 13.2 7.05 13.25 M7.4 12.1 L7.6 12.0 9.6 12.05 9.6 12.25 10.0 12.7 10.05 12.75 10.25 12.9 10.65 13.1 10.65 13.0 10.7 13.05 10.85 13.2 11.3 13.45 11.65 13.75 11.9 14.1 11.95 14.25 12.1 14.5 12.15 14.7 12.2 14.95 11.95 14.8 11.75 14.65 11.45 14.5 11.2 14.35 10.75 14.15 10.55 14.05 10.15 13.9 10.0 13.85 9.85 13.8 9.75 13.8 9.5 13.7 9.6 13.6 9.55 13.55 9.05 13.2 8.9 13.1 8.6 12.95 8.45 12.85 8.4 12.85 8.1 12.7 8.0 12.45 8.0 12.65 7.9 12.6 7.3 12.25 7.4 12.1" fill="#fff99b" fill-rule="evenodd" stroke="none"/>
      <path d="M9.5 13.7 L9.75 13.8 9.2 13.9 9.15 13.9 9.05 13.85 8.8 13.8 8.6 13.55 8.55 13.45 8.65 13.45 9.5 13.7" fill="#f8ba05" fill-rule="evenodd" stroke="none"/>
      <path d="M9.75 13.8 L9.85 13.8 10.0 13.85 10.15 13.9 9.6 14.05 9.35 14.05 9.2 13.95 9.15 13.9 9.2 13.9 9.75 13.8" fill="#fe9d00" fill-rule="evenodd" stroke="none"/>
      <path d="M8.0 12.65 L8.0 12.45 8.1 12.7 8.15 13.05 8.15 13.15 8.1 13.15 7.95 13.25 7.95 13.1 8.0 12.65" fill="#f9fbf0" fill-rule="evenodd" stroke="none"/>
      <path d="M7.8 13.35 L7.55 13.45 7.3 13.6 7.05 13.7 6.85 13.75 6.9 13.6 7.05 13.5 7.25 13.45 7.25 13.4 7.55 13.3 7.9 13.1 7.95 13.1 7.95 13.25 7.8 13.35" fill="#ededed" fill-rule="evenodd" stroke="none"/>
      <path d="M8.2 14.25 L8.2 14.2 8.25 14.1 8.45 13.6 8.5 13.6 8.5 13.65 8.75 13.85 8.95 14.0 9.0 14.0 9.1 14.05 9.3 14.7 9.35 14.8 9.2 14.7 8.7 14.45 8.2 14.25" fill="#ffad00" fill-rule="evenodd" stroke="none"/>
      <path d="M7.15 15.0 L7.65 14.75 7.75 14.7 7.8 14.65 8.2 14.25 8.7 14.45 9.2 14.7 9.35 14.8 9.35 14.9 9.4 15.3 9.45 15.5 9.45 15.6 9.35 15.5 8.9 15.2 8.55 15.05 8.2 14.95 7.95 14.95 7.85 14.95 7.65 14.95 7.3 15.0 7.15 15.0" fill="#fdb304" fill-rule="evenodd" stroke="none"/>
      <path d="M6.6 15.35 L6.6 15.3 6.7 15.25 6.9 15.15 6.95 15.1 7.05 15.05 7.1 15.05 7.15 15.05 7.3 15.0 7.65 14.95 7.85 14.95 7.95 14.95 8.2 14.95 8.55 15.05 8.9 15.2 9.35 15.5 9.45 15.6 9.45 15.8 9.4 16.35 9.4 16.45 9.35 16.7 9.3 16.9 9.3 17.0 9.2 17.15 8.9 17.5 8.8 17.6 8.75 17.55 8.65 17.45 8.65 17.4 8.85 17.3 9.0 17.15 9.15 16.75 9.2 16.65 9.2 16.55 9.1 16.1 8.7 15.65 8.3 15.4 7.95 15.3 7.7 15.3 7.5 15.25 7.3 15.25 7.2 15.3 7.05 15.3 7.0 15.3 6.8 15.3 6.7 15.35 6.6 15.35" fill="#ffc400" fill-rule="evenodd" stroke="none"/>
      <path d="M6.7 15.4 L6.6 15.4 6.6 15.35 6.7 15.35 6.8 15.3 7.0 15.3 7.05 15.3 7.2 15.3 7.3 15.25 7.5 15.25 7.5 15.3 7.7 15.35 8.0 15.45 8.2 15.65 8.35 15.75 8.55 16.4 8.55 16.55 8.5 16.4 8.4 16.2 8.2 16.05 8.1 15.95 7.85 15.85 7.8 15.85 7.75 15.8 7.5 15.65 7.35 15.55 7.25 15.55 7.05 15.45 6.8 15.4 6.7 15.4" fill="#ffd621" fill-rule="evenodd" stroke="none"/>
      <path d="M7.5 15.25 L7.7 15.3 7.95 15.3 8.3 15.4 8.7 15.65 9.1 16.1 9.2 16.55 9.2 16.65 9.15 16.75 9.0 17.15 8.7 17.25 8.6 17.25 7.95 17.05 8.05 17.05 8.4 16.9 8.45 16.8 8.5 16.75 8.55 16.6 8.55 16.55 8.55 16.4 8.35 15.75 8.2 15.65 8.0 15.45 7.7 15.35 7.5 15.3 7.5 15.25" fill="#ffbc0f" fill-rule="evenodd" stroke="none"/>
      <path d="M9.55 14.3 L9.6 14.3 9.75 14.35 9.85 14.4 10.05 14.45 10.2 14.5 10.6 14.7 10.7 14.8 10.65 14.9 10.55 14.85 10.15 14.6 10.05 14.55 10.0 14.55 9.95 14.5 9.9 14.5 9.8 14.45 9.55 14.35 9.55 14.3" fill="#c60313" fill-rule="evenodd" stroke="none"/>
      <path d="M9.1 14.05 L9.25 14.15 9.3 14.15 9.55 14.25 9.5 14.3 9.5 14.35 9.55 14.35 9.7 14.45 9.75 14.55 10.2 15.3 10.4 16.1 10.4 16.15 10.4 16.4 10.35 16.55 10.25 16.95 10.3 16.55 10.3 16.5 10.3 16.4 10.3 16.15 Q10.2 15.4 9.4 14.85 L9.35 14.8 9.3 14.7 9.1 14.05" fill="#fa8600" fill-rule="evenodd" stroke="none"/>
      <path d="M7.5 18.9 L7.45 18.75 7.55 18.75 7.6 18.75 7.85 18.75 8.0 18.7 8.1 18.7 8.25 18.65 8.5 18.6 8.85 18.5 8.9 18.45 8.95 18.4 9.0 18.4 9.45 18.15 9.7 17.95 9.85 17.75 9.9 17.75 10.2 17.15 10.25 16.95 10.35 16.55 10.4 16.4 10.4 16.15 10.4 16.1 10.2 15.3 9.75 14.55 9.7 14.45 9.55 14.35 9.8 14.45 9.9 14.5 9.95 14.5 10.0 14.55 10.05 14.55 10.75 15.45 10.75 15.5 10.95 16.1 11.0 16.3 11.0 16.7 10.85 17.5 10.75 17.75 10.65 17.8 10.05 18.2 9.65 18.3 9.6 18.35 9.5 18.35 9.45 18.4 9.2 18.45 9.05 18.55 9.05 18.65 8.95 18.7 8.9 18.7 8.7 18.8 8.6 18.8 8.35 18.85 8.3 18.9 8.05 18.9 7.6 18.9 7.5 18.9" fill="#f76200" fill-rule="evenodd" stroke="none"/>
      <path d="M10.75 14.15 L11.2 14.35 11.1 14.35 10.35 14.45 10.2 14.45 9.85 14.4 9.75 14.35 9.8 14.35 10.05 14.35 10.15 14.3 10.5 14.2 10.75 14.15" fill="#fd440b" fill-rule="evenodd" stroke="none"/>
      <path d="M9.45 15.6 L9.45 15.5 9.4 15.3 9.35 14.9 9.35 14.8 9.4 14.85 Q10.2 15.4 10.3 16.15 L10.3 16.4 10.3 16.5 10.3 16.55 10.25 16.95 10.2 17.15 9.8 17.65 9.75 17.7 9.7 17.75 9.6 17.8 9.5 17.85 9.5 17.9 9.45 17.9 9.25 18.0 9.1 18.05 9.05 18.05 9.4 17.8 9.45 17.8 9.55 17.7 9.9 16.9 Q9.9 16.2 9.55 15.7 L9.45 15.6" fill="#fd8c00" fill-rule="evenodd" stroke="none"/>
      <path d="M6.95 14.05 L6.8 14.05 6.85 13.9 6.9 13.9 6.9 13.95 6.95 13.95 6.95 14.05" fill="#e3e3e3" fill-rule="evenodd" stroke="none"/>
      <path d="M6.85 13.2 L6.9 13.1 7.0 13.15 7.1 13.2 7.0 13.2 6.85 13.2" fill="#fffe97" fill-rule="evenodd" stroke="none"/>
      <path d="M6.95 13.95 L7.05 13.95 7.1 13.95 7.1 14.05 7.05 14.05 6.95 14.05 6.95 13.95" fill="#f8f8f8" fill-rule="evenodd" stroke="none"/>
      <path d="M7.1 14.05 L7.05 14.25 7.2 14.55 7.15 14.65 6.9 15.1 7.1 14.55 7.05 14.5 7.05 14.45 6.95 14.35 6.95 14.25 6.95 14.05 7.05 14.05 7.1 14.05" fill="#e5e5e5" fill-rule="evenodd" stroke="none"/>
      <path d="M7.05 17.75 L7.05 17.65 7.1 17.7 7.15 17.75 7.05 17.75 M6.75 16.0 L6.7 15.4 6.8 15.4 7.05 15.45 7.25 15.55 7.35 15.55 7.5 15.65 7.75 15.8 7.4 15.75 7.25 15.75 7.1 15.75 Q6.9 15.8 6.75 16.0" fill="#ffdf43" fill-rule="evenodd" stroke="none"/>
      <path d="M7.05 17.65 L6.75 16.3 6.75 16.0 Q6.9 15.8 7.1 15.75 L7.25 15.75 7.4 15.75 7.75 15.8 7.8 15.85 7.85 15.85 8.1 15.95 8.2 16.05 8.4 16.2 8.5 16.4 8.55 16.55 8.55 16.6 8.5 16.75 8.45 16.8 8.4 16.9 8.05 17.05 7.95 17.05 7.9 17.05 7.75 16.95 7.6 16.75 7.75 16.8 7.8 16.85 7.9 16.85 8.2 16.7 8.2 16.6 7.95 16.3 7.8 16.25 7.65 16.2 7.6 16.2 Q7.4 16.2 7.3 16.4 L7.25 16.45 7.1 16.75 7.3 17.2 7.45 17.35 7.45 17.4 7.8 17.65 7.9 17.65 8.05 17.7 8.2 17.75 8.4 17.75 8.25 17.8 8.05 17.8 7.85 17.85 7.8 17.85 7.35 17.8 7.25 17.75 7.1 17.7 7.05 17.65" fill="#fff345" fill-rule="evenodd" stroke="none"/>
      <path d="M9.0 17.15 L8.85 17.3 8.65 17.4 8.65 17.45 8.6 17.45 8.15 17.55 8.1 17.55 8.0 17.55 7.7 17.5 7.45 17.35 7.3 17.2 7.1 16.75 7.25 16.45 7.3 16.4 Q7.4 16.2 7.6 16.2 L7.65 16.2 7.8 16.25 7.95 16.3 8.2 16.6 8.2 16.7 7.9 16.85 7.8 16.85 7.75 16.8 7.6 16.75 7.75 16.95 7.9 17.05 7.95 17.05 8.6 17.25 8.7 17.25 9.0 17.15" fill="#ffe22e" fill-rule="evenodd" stroke="none"/>
      <path d="M12.35 23.1 L12.2 23.05 12.35 22.6 12.35 22.55 12.4 22.6 12.4 22.65 12.35 23.1 M10.9 22.45 L10.5 22.2 10.7 22.15 10.8 22.1 10.9 22.4 10.9 22.45 M7.15 18.05 L7.05 17.75 7.15 17.75 7.4 17.95 7.9 18.1 8.0 18.1 8.15 18.15 8.0 18.15 7.9 18.2 7.5 18.15 7.15 18.05 M8.65 17.45 L8.75 17.55 8.8 17.6 8.7 17.6 8.65 17.65 8.45 17.75 8.4 17.75 8.2 17.75 8.05 17.7 7.9 17.65 7.8 17.65 7.45 17.4 7.45 17.35 7.7 17.5 8.0 17.55 8.1 17.55 8.15 17.55 8.6 17.45 8.65 17.45" fill="#ffcd22" fill-rule="evenodd" stroke="none"/>
      <path d="M7.45 18.75 L7.3 18.4 7.55 18.4 7.85 18.45 8.15 18.4 8.2 18.4 8.45 18.35 8.8 18.25 8.9 18.2 9.1 18.1 9.15 18.1 8.9 18.25 8.85 18.3 8.8 18.35 8.5 18.5 8.25 18.55 8.2 18.55 7.85 18.65 7.6 18.7 7.45 18.75" fill="#ffbc20" fill-rule="evenodd" stroke="none"/>
      <path d="M7.3 18.4 L7.15 18.05 7.5 18.15 7.9 18.2 8.0 18.15 8.15 18.15 8.25 18.15 8.35 18.15 8.4 18.15 8.75 18.1 8.85 18.1 8.9 18.1 9.05 18.05 9.1 18.05 9.25 18.0 9.15 18.1 9.1 18.1 8.9 18.2 8.8 18.25 8.45 18.35 8.2 18.4 8.15 18.4 7.85 18.45 7.55 18.4 7.3 18.4" fill="#fdbe0e" fill-rule="evenodd" stroke="none"/>
      <path d="M8.8 17.6 L8.9 17.5 9.2 17.15 9.3 17.0 9.3 16.9 9.35 16.7 9.3 17.05 9.25 17.15 9.05 17.55 8.8 17.85 8.7 17.95 8.55 18.05 8.45 18.1 8.4 18.15 8.35 18.15 8.25 18.15 8.15 18.15 8.0 18.1 7.9 18.1 7.4 17.95 7.15 17.75 7.1 17.7 7.25 17.75 7.35 17.8 7.8 17.85 7.85 17.85 8.05 17.8 8.25 17.8 8.4 17.75 8.45 17.75 8.65 17.65 8.7 17.6 8.8 17.6" fill="#ffb511" fill-rule="evenodd" stroke="none"/>
      <path d="M9.35 16.7 L9.4 16.45 9.4 16.35 9.45 15.8 9.45 15.6 9.55 15.7 Q9.9 16.2 9.9 16.9 L9.55 17.7 9.45 17.8 9.4 17.8 9.05 18.05 8.9 18.1 8.85 18.1 8.75 18.1 8.4 18.15 8.45 18.1 8.55 18.05 8.7 17.95 8.8 17.85 9.05 17.55 9.25 17.15 9.3 17.05 9.35 16.7" fill="#ff9000" fill-rule="evenodd" stroke="none"/>
      <path d="M9.25 18.0 L9.45 17.9 9.5 17.9 9.5 17.85 9.6 17.8 9.7 17.75 9.75 17.7 9.8 17.65 10.2 17.15 9.9 17.75 9.85 17.75 9.7 17.95 9.45 18.15 9.0 18.4 8.95 18.4 8.9 18.45 8.85 18.5 8.5 18.6 8.25 18.65 8.1 18.7 8.0 18.7 7.85 18.75 7.6 18.75 7.55 18.75 7.45 18.75 7.6 18.7 7.85 18.65 8.2 18.55 8.25 18.55 8.5 18.5 8.8 18.35 8.85 18.3 8.9 18.25 9.15 18.1 9.25 18.0" fill="#fb9205" fill-rule="evenodd" stroke="none"/>
      <path d="M9.05 18.65 L9.05 18.55 9.2 18.45 9.45 18.4 9.5 18.35 9.6 18.35 10.2 18.2 10.45 18.15 11.4 17.95 11.5 18.35 11.15 18.35 10.9 18.35 10.75 18.35 10.6 18.35 9.85 18.45 9.5 18.55 9.05 18.65" fill="#da3c00" fill-rule="evenodd" stroke="none"/>
      <path d="M10.05 14.55 L10.15 14.6 10.55 14.85 10.65 14.9 11.05 15.25 11.35 15.5 11.4 15.5 11.5 16.1 11.45 16.35 11.4 16.45 11.35 16.5 11.3 16.55 11.2 17.05 11.15 17.25 11.2 17.35 11.2 17.45 11.3 17.75 11.4 17.95 10.45 18.15 10.2 18.2 9.6 18.35 9.65 18.3 10.05 18.2 10.65 17.8 10.75 17.75 10.85 17.5 11.0 16.7 11.0 16.3 10.95 16.1 10.75 15.5 10.75 15.45 10.05 14.55" fill="#f24002" fill-rule="evenodd" stroke="none"/>
      <path d="M13.2 23.3 L12.95 23.25 13.05 23.0 13.15 22.75 13.3 22.4 13.4 21.95 13.45 21.65 13.4 21.45 12.9 20.75 12.75 20.65 12.25 20.1 12.05 19.75 11.95 19.65 11.65 19.15 Q11.4 18.75 10.75 18.75 L10.65 18.8 9.5 18.9 9.15 18.95 8.95 18.95 8.65 18.95 8.45 19.0 8.35 19.0 8.05 19.0 8.05 18.9 8.3 18.9 8.35 18.85 8.6 18.8 8.7 18.8 8.9 18.7 8.95 18.7 9.05 18.65 9.5 18.55 9.85 18.45 10.6 18.35 10.75 18.35 10.9 18.35 11.15 18.35 11.15 18.4 Q11.85 18.5 12.15 18.95 L12.4 19.5 12.6 20.05 12.85 20.55 12.95 20.65 13.4 21.05 13.45 21.1 13.5 21.1 13.6 21.2 14.15 21.7 13.9 22.2 13.85 22.3 13.8 22.4 13.55 22.7 13.6 22.75 13.55 22.85 13.5 22.95 13.45 22.95 13.3 23.15 13.2 23.3" fill="#da380a" fill-rule="evenodd" stroke="none"/>
      <path d="M7.4 18.95 L7.4 18.85 7.5 18.9 7.6 18.9 7.8 18.95 8.05 19.0 8.3 19.05 8.35 19.1 8.45 19.1 8.5 19.1 8.7 19.15 9.0 19.2 9.15 19.25 9.2 19.25 9.35 19.3 9.55 19.3 10.7 19.5 10.85 19.55 11.5 19.85 11.7 20.0 11.9 20.2 11.95 20.25 12.05 20.35 12.2 20.55 12.05 20.4 11.9 20.3 11.7 20.15 11.3 19.95 Q11.0 19.75 10.7 19.7 L10.15 19.6 9.65 19.55 9.3 19.5 9.15 19.5 9.0 19.5 8.8 19.55 8.75 19.55 8.55 19.6 8.5 19.6 8.4 19.55 8.0 19.3 7.85 19.2 7.75 19.1 7.55 19.0 7.4 18.95" fill="#ef7d0d" fill-rule="evenodd" stroke="none"/>
      <path d="M12.2 20.55 L12.25 20.65 12.4 20.85 12.65 21.85 12.65 22.35 12.6 22.65 12.55 22.75 12.55 22.85 12.5 22.65 12.5 22.6 12.45 22.5 12.35 22.2 12.3 22.15 12.3 22.1 12.2 21.75 12.1 21.5 12.1 21.45 11.85 21.15 11.7 21.0 11.6 20.9 11.55 20.85 10.75 20.4 10.2 20.3 10.05 20.3 9.5 20.45 9.45 20.45 9.2 20.15 8.85 19.85 8.55 19.65 8.5 19.6 8.55 19.6 8.75 19.55 8.8 19.55 9.0 19.5 9.15 19.5 9.3 19.5 9.65 19.55 10.15 19.6 10.7 19.7 Q11.0 19.75 11.3 19.95 L11.7 20.15 11.9 20.3 12.05 20.4 12.2 20.55" fill="#f77d02" fill-rule="evenodd" stroke="none"/>
      <path d="M7.8 19.45 L7.6 19.1 7.75 19.1 7.85 19.2 7.8 19.3 7.8 19.45" fill="#f69200" fill-rule="evenodd" stroke="none"/>
      <path d="M8.9 20.9 L8.1 19.95 8.1 19.9 7.8 19.45 7.8 19.3 7.85 19.2 8.0 19.3 8.4 19.55 8.4 19.6 8.5 19.95 8.7 20.4 8.75 20.55 8.8 20.6 8.85 20.75 8.9 20.9" fill="#e96600" fill-rule="evenodd" stroke="none"/>
      <path d="M9.75 21.7 L9.15 21.15 9.0 21.0 8.9 20.9 8.85 20.75 8.8 20.6 8.75 20.55 8.7 20.4 8.5 19.95 8.4 19.6 8.4 19.55 8.5 19.6 8.55 19.65 8.85 19.85 9.2 20.15 9.45 20.45 9.6 20.85 9.75 21.45 9.75 21.7" fill="#c20c00" fill-rule="evenodd" stroke="none"/>
      <path d="M12.2 23.05 L12.0 22.95 12.05 22.9 12.05 22.85 12.1 22.55 12.05 22.25 11.85 22.0 11.75 21.9 11.6 21.85 11.35 21.8 11.15 21.75 11.0 21.75 10.95 21.55 10.85 21.35 10.8 21.3 10.4 21.0 9.7 20.85 9.6 20.85 9.45 20.45 9.5 20.45 10.05 20.3 10.2 20.3 10.75 20.4 11.55 20.85 11.6 20.9 11.7 21.0 11.85 21.15 12.1 21.45 12.1 21.5 12.2 21.75 12.3 22.1 12.3 22.15 12.35 22.5 12.35 22.55 12.35 22.6 12.2 23.05" fill="#fc9508" fill-rule="evenodd" stroke="none"/>
      <path d="M10.2 22.0 L9.75 21.7 9.75 21.45 9.6 20.85 9.7 20.85 10.4 21.0 10.8 21.3 10.85 21.35 10.95 21.55 11.0 21.75 10.9 21.7 10.6 21.75 10.3 21.85 10.2 21.95 10.2 22.0" fill="#feba19" fill-rule="evenodd" stroke="none"/>
      <path d="M12.55 23.15 L12.35 23.1 12.4 22.65 12.4 22.6 12.35 22.55 12.35 22.5 12.3 22.15 12.35 22.2 12.45 22.5 12.5 22.6 12.5 22.65 12.55 22.85 12.55 22.95 12.55 23.05 12.55 23.15 M10.5 22.2 L10.2 22.0 10.2 21.95 10.3 21.85 10.6 21.75 10.9 21.7 11.0 21.75 11.05 21.85 11.0 21.9 10.9 22.0 10.8 22.0 10.8 22.1 10.7 22.15 10.5 22.2" fill="#f8ad13" fill-rule="evenodd" stroke="none"/>
      <path d="M18.4 12.95 L18.4 13.2 18.45 13.5 18.45 13.6 18.3 13.55 18.05 13.65 17.85 13.85 17.8 14.0 17.8 14.1 17.7 14.5 17.75 14.65 17.7 14.65 17.4 14.4 17.4 14.3 17.45 13.75 17.45 13.65 17.45 13.5 17.5 13.25 17.5 13.15 17.55 12.9 17.6 12.9 17.9 12.9 18.4 12.95" fill="#ff6200" fill-rule="evenodd" stroke="none"/>
      <path d="M18.65 14.65 L18.7 14.8 18.75 15.15 18.7 15.25 18.6 15.4 18.45 15.45 18.25 15.3 18.2 15.15 18.05 14.95 17.8 14.7 17.75 14.7 17.75 14.65 17.7 14.5 17.8 14.1 17.8 14.0 17.85 13.85 18.05 13.65 18.3 13.55 18.45 13.6 18.65 14.65" fill="#f44300" fill-rule="evenodd" stroke="none"/>
      <path d="M18.75 15.15 L18.85 15.5 18.95 15.75 18.95 15.85 19.0 15.85 19.0 15.9 19.05 16.05 19.25 16.4 19.15 16.45 19.1 16.45 18.95 16.5 18.9 16.5 18.55 16.35 18.4 16.25 17.95 15.75 17.95 15.7 17.9 15.4 17.65 14.75 17.6 14.7 17.55 14.65 17.4 14.5 17.4 14.4 17.7 14.65 17.75 14.65 17.75 14.7 17.8 14.7 18.05 14.95 18.2 15.15 18.25 15.3 18.45 15.45 18.6 15.4 18.7 15.25 18.75 15.15" fill="#d61d08" fill-rule="evenodd" stroke="none"/>
      <path d="M16.6 13.55 L16.75 13.7 16.8 13.8 16.9 13.9 17.3 14.35 17.3 14.6 17.25 14.55 16.95 14.35 16.85 14.3 16.7 14.25 16.6 14.2 16.55 14.15 16.0 13.9 15.35 13.65 15.2 13.7 15.15 13.6 14.3 13.35 14.65 13.4 14.7 13.4 15.35 13.55 15.85 13.55 15.9 13.55 16.15 13.55 16.6 13.55 M15.35 13.65 L15.15 13.6 15.35 13.65 M13.0 12.95 L12.25 12.7 12.2 12.7 11.9 12.4 12.55 12.65 12.75 12.75 12.85 12.8 12.95 12.85 13.0 12.9 13.2 13.0 13.0 12.95 12.95 12.85 13.0 12.95" fill="#fc6901" fill-rule="evenodd" stroke="none"/>
      <path d="M15.35 13.65 L16.0 13.9 16.55 14.15 16.6 14.2 16.25 14.15 Q15.85 14.15 15.45 14.45 L15.05 14.8 14.85 15.0 Q14.4 15.65 14.4 16.45 L14.4 16.55 14.4 16.65 14.25 16.55 14.2 16.5 14.05 16.4 14.0 16.35 13.8 16.2 13.75 16.15 13.7 16.15 13.75 15.85 13.75 15.75 13.45 15.15 13.45 15.1 13.45 15.15 13.75 15.75 13.75 15.85 13.7 16.15 13.45 15.95 13.25 15.8 13.3 15.55 13.45 15.1 13.9 14.5 14.05 14.35 14.3 14.15 Q14.4 14.05 14.55 14.0 14.85 13.8 15.2 13.7 L15.35 13.65" fill="#fdec58" fill-rule="evenodd" stroke="none"/>
      <path d="M16.3 14.6 L16.3 14.55 16.4 14.55 16.3 14.6 M16.45 14.55 L16.75 14.6 16.8 14.65 17.0 14.75 Q17.4 15.05 17.4 15.45 L17.4 15.5 16.85 15.3 16.9 15.05 16.75 14.7 16.45 14.55" fill="#ff9a03" fill-rule="evenodd" stroke="none"/>
      <path d="M15.5 15.7 L15.45 15.55 15.65 15.3 15.85 15.4 15.9 15.45 15.9 15.6 15.9 15.75 15.85 15.75 15.7 15.8 15.5 15.7 M16.0 15.4 L15.9 15.05 16.05 14.7 16.3 14.6 16.4 14.55 16.45 14.55 16.75 14.7 16.9 15.05 16.85 15.3 16.7 15.5 16.5 15.6 16.45 15.65 16.35 15.6 16.1 15.5 16.0 15.4" fill="#ffffa0" fill-rule="evenodd" stroke="none"/>
      <path d="M16.7 14.25 L16.85 14.3 16.95 14.35 17.25 14.55 17.3 14.6 17.6 14.95 17.9 15.4 17.95 15.7 17.95 15.75 17.95 15.85 17.95 16.0 17.95 16.2 17.8 15.95 17.7 15.8 17.45 15.6 17.4 15.55 17.4 15.5 17.4 15.45 Q17.4 15.05 17.0 14.75 L16.8 14.65 16.75 14.6 16.45 14.55 16.4 14.55 16.3 14.55 Q15.75 14.55 15.4 14.95 15.05 15.35 15.05 15.95 L15.05 16.1 15.15 16.5 15.3 16.9 15.4 17.15 15.45 17.3 15.45 17.4 15.25 17.25 15.2 17.2 15.1 17.1 15.05 17.05 15.0 17.0 14.85 16.8 14.7 16.5 Q14.6 16.2 14.65 15.8 L14.7 15.7 Q14.8 15.2 15.2 14.75 15.7 14.3 16.15 14.25 L16.7 14.25" fill="#ffa805" fill-rule="evenodd" stroke="none"/>
      <path d="M16.3 14.55 L16.3 14.6 16.05 14.7 15.9 15.05 16.0 15.4 15.9 15.45 15.85 15.4 15.65 15.3 15.45 15.55 15.5 15.7 15.3 16.05 15.3 16.3 15.25 16.45 15.3 16.9 15.15 16.5 15.05 16.1 15.05 15.95 Q15.05 15.35 15.4 14.95 15.75 14.55 16.3 14.55" fill="#ffb300" fill-rule="evenodd" stroke="none"/>
      <path d="M17.95 16.35 L17.65 17.0 17.55 17.1 17.3 17.4 17.25 17.4 17.2 17.45 16.9 17.55 16.6 17.6 16.35 17.6 16.15 17.6 15.95 17.6 15.9 17.6 15.7 17.55 15.6 17.45 15.45 17.4 15.45 17.3 15.4 17.15 15.3 16.9 15.25 16.45 15.3 16.3 15.3 16.05 15.5 15.7 15.7 15.8 15.85 15.75 15.9 15.75 15.9 15.6 15.9 15.45 16.0 15.4 16.1 15.5 16.35 15.6 16.45 15.65 16.5 15.6 16.7 15.5 16.85 15.3 17.4 15.5 17.4 15.55 17.45 15.6 17.7 15.8 17.8 15.95 17.95 16.2 17.95 16.35" fill="#cf0c10" fill-rule="evenodd" stroke="none"/>
      <path d="M16.6 14.2 L16.7 14.25 16.15 14.25 Q15.7 14.3 15.2 14.75 14.8 15.2 14.7 15.7 L14.65 15.8 Q14.6 16.2 14.7 16.5 L14.85 16.8 15.0 17.0 14.9 16.95 14.8 16.9 14.75 16.85 14.45 16.7 14.4 16.65 14.4 16.55 14.4 16.45 Q14.4 15.65 14.85 15.0 L15.05 14.8 15.45 14.45 Q15.85 14.15 16.25 14.15 L16.6 14.2" fill="#ffc800" fill-rule="evenodd" stroke="none"/>
      <path d="M19.55 16.85 L19.75 17.0 20.0 17.0 19.95 17.15 19.55 16.85 M18.1 16.45 L17.95 16.35 17.95 16.2 17.95 16.0 17.95 15.85 17.95 15.75 18.05 16.25 18.1 16.45 M17.3 14.35 L17.35 14.45 17.4 14.4 17.4 14.5 17.55 14.65 17.6 14.7 17.65 14.75 17.9 15.4 17.6 14.95 17.3 14.6 17.3 14.35 M17.35 14.45 L17.4 14.5 17.35 14.45" fill="#7c0016" fill-rule="evenodd" stroke="none"/>
      <path d="M15.95 17.6 L16.0 17.9 16.25 18.5 16.3 18.55 16.45 18.75 16.5 18.75 16.65 18.85 16.7 18.9 16.75 18.95 16.85 19.05 17.25 19.1 17.6 19.15 17.65 19.15 17.9 19.15 18.1 19.1 18.05 19.25 18.05 19.35 18.1 19.35 17.9 19.4 17.7 19.4 17.65 19.4 17.25 19.35 17.0 19.35 16.9 19.3 16.8 19.25 16.7 19.25 16.3 19.0 16.2 18.85 16.0 18.6 16.0 18.55 15.8 18.05 15.7 17.55 15.9 17.6 15.95 17.6" fill="#9b0427" fill-rule="evenodd" stroke="none"/>
      <path d="M17.0 17.7 L16.7 17.7 16.55 17.65 16.4 17.65 16.15 17.6 16.35 17.6 16.6 17.6 16.9 17.55 17.0 17.65 17.0 17.7" fill="#820024" fill-rule="evenodd" stroke="none"/>
      <path d="M15.95 17.6 L16.15 17.6 16.4 17.65 16.55 17.65 16.7 17.7 17.0 17.7 17.1 17.95 17.1 18.15 17.0 18.35 17.05 18.5 17.2 18.55 17.2 18.5 Q17.55 18.55 17.55 18.75 L17.5 18.85 17.35 18.95 17.25 18.95 16.85 18.85 16.7 18.8 16.5 18.7 16.3 18.55 16.25 18.5 16.0 17.9 15.95 17.6" fill="#a1001f" fill-rule="evenodd" stroke="none"/>
      <path d="M15.25 17.25 L15.45 17.4 15.6 17.45 15.7 17.55 15.8 18.05 15.65 18.75 15.6 18.85 15.4 19.0 15.4 19.05 15.25 19.15 15.15 19.15 14.95 19.05 14.75 18.95 14.45 18.7 14.35 18.6 14.45 18.6 14.8 18.5 15.2 18.2 15.3 18.05 15.35 17.75 15.25 17.25" fill="#b3021c" fill-rule="evenodd" stroke="none"/>
      <path d="M15.05 17.05 L15.1 17.1 15.2 17.2 15.25 17.25 15.35 17.75 15.3 18.05 15.2 18.2 14.8 18.5 14.45 18.6 14.35 18.6 14.3 18.65 14.15 18.6 13.75 18.45 13.6 18.3 13.5 18.25 13.3 18.0 13.2 17.7 13.25 17.5 Q13.3 17.2 13.5 17.05 L13.55 17.0 13.7 16.9 14.25 16.8 14.35 16.8 14.75 16.9 14.8 16.9 14.9 16.95 15.05 17.05 M18.1 19.35 L18.05 19.35 18.05 19.25 18.1 19.1 18.2 19.2 18.25 19.35 18.2 19.35 18.1 19.35 M14.35 17.0 L14.25 17.0 Q14.05 17.0 13.9 17.15 L13.7 17.35 13.65 17.5 13.7 17.75 13.8 17.85 13.9 17.95 14.1 18.0 14.2 18.05 14.4 17.95 14.45 17.9 14.75 17.45 14.65 17.15 14.55 17.1 14.35 17.0" fill="#bd0221" fill-rule="evenodd" stroke="none"/>
      <path d="M15.8 18.05 L16.0 18.55 16.0 18.6 16.2 18.85 16.3 19.0 16.7 19.5 16.8 19.55 16.75 19.55 16.7 19.55 16.6 19.55 16.15 19.45 16.05 19.45 15.75 19.35 15.45 19.3 15.4 19.3 15.25 19.2 15.15 19.2 15.15 19.15 15.25 19.15 15.4 19.05 15.4 19.0 15.6 18.85 15.65 18.75 15.8 18.05" fill="#9d0224" fill-rule="evenodd" stroke="none"/>
      <path d="M17.3 17.4 L17.75 17.25 17.85 17.2 18.2 17.25 18.8 17.35 18.85 17.35 19.0 17.4 19.1 17.4 19.25 17.45 19.55 17.5 19.65 17.55 19.7 17.55 19.75 17.65 19.9 18.0 20.05 18.7 20.05 18.8 19.9 19.25 19.65 19.55 19.3 19.8 18.95 19.95 18.6 19.95 17.85 19.8 17.9 19.8 18.75 19.55 18.85 19.45 18.95 19.4 19.0 19.35 19.35 18.5 19.15 17.85 19.05 17.75 19.0 17.7 18.85 17.65 18.8 17.6 18.75 17.6 18.35 17.4 18.3 17.4 18.15 17.45 17.85 17.55 17.75 17.6 17.25 17.7 17.0 17.7 17.0 17.65 16.9 17.55 17.2 17.45 17.25 17.4 17.3 17.4 17.2 17.45 17.3 17.4" fill="#790124" fill-rule="evenodd" stroke="none"/>
      <path d="M17.2 18.5 L17.2 18.55 17.05 18.5 17.0 18.35 17.1 18.15 17.2 18.05 17.7 17.95 17.8 17.95 18.05 17.95 18.35 18.1 18.65 18.6 18.65 18.65 18.55 19.15 18.5 19.15 18.45 19.2 18.45 19.1 18.4 18.95 18.3 18.95 18.35 18.65 Q18.35 18.25 18.0 18.2 L17.85 18.2 17.7 18.2 Q17.3 18.2 17.2 18.4 L17.2 18.5" fill="#a00022" fill-rule="evenodd" stroke="none"/>
      <path d="M16.3 18.55 L16.5 18.7 16.7 18.8 16.85 18.85 17.25 18.95 17.35 18.95 17.5 18.85 17.55 18.75 Q17.55 18.55 17.2 18.5 L17.2 18.4 Q17.3 18.2 17.7 18.2 L17.85 18.2 18.0 18.2 Q18.35 18.25 18.35 18.65 L18.3 18.95 18.25 18.95 18.15 19.05 18.1 19.1 17.9 19.15 17.65 19.15 17.6 19.15 17.25 19.1 16.85 19.05 16.75 18.95 16.7 18.9 16.65 18.85 16.5 18.75 16.45 18.75 16.3 18.55" fill="#840025" fill-rule="evenodd" stroke="none"/>
      <path d="M17.1 18.15 L17.1 17.95 17.0 17.7 17.25 17.7 17.75 17.6 17.85 17.55 18.15 17.45 18.3 17.4 18.7 17.95 18.75 18.35 18.75 18.65 18.55 19.15 18.65 18.65 18.65 18.6 18.35 18.1 18.05 17.95 17.8 17.95 17.7 17.95 17.2 18.05 17.1 18.15" fill="#920025" fill-rule="evenodd" stroke="none"/>
      <path d="M19.45 16.7 L19.55 16.85 19.95 17.15 19.85 17.5 19.3 17.2 18.35 16.65 18.1 16.45 18.05 16.25 17.95 15.75 18.4 16.25 18.55 16.35 18.9 16.5 18.95 16.5 19.1 16.45 19.15 16.45 19.25 16.4 19.3 16.5 19.45 16.7" fill="#b40019" fill-rule="evenodd" stroke="none"/>
      <path d="M17.85 19.8 L17.65 19.8 17.6 19.8 17.45 19.75 17.3 19.75 17.25 19.7 17.15 19.7 17.0 19.7 16.9 19.65 16.75 19.65 16.6 19.65 16.7 19.6 16.75 19.55 16.8 19.55 16.7 19.5 16.3 19.0 16.7 19.25 16.8 19.25 16.9 19.3 17.0 19.35 17.25 19.35 17.65 19.4 17.7 19.4 17.9 19.4 18.1 19.35 18.2 19.35 18.25 19.35 18.45 19.2 18.5 19.15 18.55 19.15 18.75 18.65 18.75 18.35 18.7 17.95 18.3 17.4 18.35 17.4 18.75 17.6 18.8 17.6 18.85 17.65 19.0 17.7 19.05 17.75 19.15 17.85 19.35 18.5 19.0 19.35 18.95 19.4 18.85 19.45 18.75 19.55 17.9 19.8 17.85 19.8" fill="#7c001f" fill-rule="evenodd" stroke="none"/>
      <path d="M11.2 14.35 L11.45 14.5 11.75 14.65 11.3 14.75 10.8 14.65 10.35 14.45 11.1 14.35 11.2 14.35" fill="#e5260a" fill-rule="evenodd" stroke="none"/>
      <path d="M11.75 14.65 L11.95 14.8 11.55 15.35 11.45 15.35 11.35 15.2 10.7 14.8 10.6 14.7 10.2 14.5 10.2 14.45 10.35 14.45 10.8 14.65 11.3 14.75 11.75 14.65" fill="#e61616" fill-rule="evenodd" stroke="none"/>
      <path d="M11.95 14.8 L12.2 14.95 12.55 15.2 Q12.2 15.55 12.2 16.2 L12.15 16.25 11.7 15.7 11.7 15.65 11.7 15.7 12.15 16.25 12.15 16.3 12.25 16.4 12.25 16.55 12.15 16.6 Q11.95 16.65 11.85 16.8 11.6 17.0 11.6 17.35 11.6 17.65 11.95 17.9 L12.25 18.1 12.45 18.25 12.55 18.3 12.55 18.35 12.2 18.3 11.5 18.35 11.4 17.95 11.3 17.75 11.2 17.45 11.2 17.35 11.15 17.25 11.2 17.05 11.3 16.55 11.35 16.5 11.4 16.45 11.45 16.35 11.5 16.1 11.4 15.5 11.35 15.5 11.05 15.25 10.65 14.9 10.7 14.8 11.35 15.2 11.45 15.35 11.55 15.45 11.55 15.35 11.95 14.8 M11.55 15.45 L11.7 15.65 11.55 15.45" fill="#ce001b" fill-rule="evenodd" stroke="none"/>
      <path d="M12.8 16.65 L12.65 16.65 12.6 16.7 12.2 16.9 Q11.95 17.1 11.95 17.4 L12.25 17.9 12.95 18.0 13.0 18.1 12.95 18.15 13.0 18.45 13.3 19.15 13.5 19.4 13.85 19.8 14.3 20.1 13.7 19.9 13.0 19.25 12.75 18.7 12.7 18.35 12.7 18.3 12.6 18.35 12.55 18.3 12.45 18.25 12.25 18.1 11.95 17.9 Q11.6 17.65 11.6 17.35 11.6 17.0 11.85 16.8 11.95 16.65 12.15 16.6 L12.25 16.55 12.25 16.4 12.2 16.2 Q12.2 15.55 12.55 15.2 L12.85 15.45 12.9 15.5 Q12.65 15.85 12.7 16.25 L12.7 16.5 12.8 16.65" fill="#94011e" fill-rule="evenodd" stroke="none"/>
      <path d="M12.95 18.0 L12.25 17.9 11.95 17.4 Q11.95 17.1 12.2 16.9 L12.6 16.7 12.65 16.65 12.8 16.65 12.9 16.7 13.2 16.65 13.3 16.65 13.55 16.6 13.7 16.6 13.55 16.65 13.35 16.75 Q12.95 17.05 12.9 17.55 L12.9 17.7 12.95 18.0" fill="#b10021" fill-rule="evenodd" stroke="none"/>
      <path d="M13.7 16.15 L13.75 16.15 13.8 16.2 14.0 16.35 14.05 16.4 14.2 16.5 13.85 16.55 13.75 16.55 13.7 16.6 13.55 16.6 13.3 16.65 13.2 16.65 12.9 16.7 12.8 16.65 12.7 16.5 12.7 16.25 Q12.65 15.85 12.9 15.5 L13.25 15.8 13.45 15.95 13.7 16.15 M13.8 16.2 L14.05 16.4 13.8 16.2" fill="#ab0020" fill-rule="evenodd" stroke="none"/>
      <path d="M14.2 16.5 L14.25 16.55 14.4 16.65 14.45 16.7 14.75 16.85 14.75 16.9 14.35 16.8 14.25 16.8 13.7 16.9 13.55 17.0 13.5 17.05 Q13.3 17.2 13.25 17.5 L13.2 17.7 13.3 18.0 13.5 18.25 13.6 18.3 13.75 18.45 14.15 18.6 14.3 18.65 14.35 18.6 14.45 18.7 14.75 18.95 14.95 19.05 15.15 19.15 14.95 19.25 14.45 19.3 14.35 19.3 13.8 19.2 13.55 19.1 13.5 19.05 13.0 18.45 12.95 18.15 13.0 18.1 12.95 18.0 12.9 17.7 12.9 17.55 Q12.95 17.05 13.35 16.75 L13.55 16.65 13.7 16.6 13.75 16.55 13.85 16.55 14.2 16.5" fill="#a80021" fill-rule="evenodd" stroke="none"/>
      <path d="M14.35 17.0 L14.55 17.1 14.65 17.15 14.75 17.45 14.45 17.9 14.4 17.95 14.2 18.05 14.1 18.0 13.9 17.95 13.8 17.85 13.7 17.75 13.65 17.5 13.7 17.35 13.9 17.15 Q14.05 17.0 14.25 17.0 L14.35 17.0 M14.35 17.25 L14.3 17.2 14.1 17.3 13.95 17.5 14.05 17.65 14.3 17.65 14.4 17.6 14.4 17.55 14.45 17.45 14.35 17.25" fill="#d3011e" fill-rule="evenodd" stroke="none"/>
      <path d="M14.35 17.25 L14.45 17.45 14.4 17.55 14.4 17.6 14.3 17.65 14.05 17.65 13.95 17.5 14.1 17.3 14.3 17.2 14.35 17.25" fill="#f00019" fill-rule="evenodd" stroke="none"/>
      <path d="M14.3 20.1 L13.85 19.8 13.5 19.4 13.3 19.15 13.0 18.45 13.5 19.05 13.55 19.1 13.8 19.2 14.35 19.3 14.45 19.3 14.95 19.25 15.15 19.15 15.15 19.2 15.25 19.2 15.4 19.3 15.45 19.3 15.75 19.35 16.05 19.45 16.15 19.45 16.6 19.55 16.7 19.55 16.75 19.55 16.7 19.6 16.6 19.65 16.15 19.85 16.05 19.85 15.9 19.9 15.85 19.95 15.7 19.95 15.65 20.0 15.6 20.0 15.5 20.05 15.3 20.1 15.1 20.1 15.0 20.1 14.9 20.15 14.8 20.15 14.8 20.1 14.3 20.1" fill="#920024" fill-rule="evenodd" stroke="none"/>
      <path d="M17.45 19.75 L17.6 19.85 17.85 20.05 17.85 20.1 18.15 20.45 17.85 20.2 17.75 20.2 17.6 20.2 17.4 20.3 17.3 20.3 17.0 20.45 16.7 20.65 16.05 20.95 16.0 20.95 15.8 21.0 15.5 21.05 15.4 21.05 15.25 21.05 15.0 21.05 14.8 21.0 14.5 20.9 13.95 20.55 13.7 20.35 13.55 20.15 13.5 20.15 12.95 19.25 12.75 18.7 13.0 19.25 13.7 19.9 14.3 20.1 14.8 20.1 14.8 20.15 14.9 20.15 15.0 20.1 15.1 20.1 15.3 20.1 15.5 20.05 15.6 20.0 15.65 20.0 15.7 19.95 15.85 19.95 15.9 19.9 16.05 19.85 16.15 19.85 16.6 19.65 16.75 19.65 16.9 19.65 17.0 19.7 17.15 19.7 17.25 19.7 17.3 19.75 17.45 19.75" fill="#770124" fill-rule="evenodd" stroke="none"/>
      <path d="M12.95 23.25 L12.55 23.15 12.55 23.05 12.55 22.95 12.55 22.85 12.55 22.75 12.6 22.65 12.65 22.35 12.65 21.85 12.4 20.85 13.0 21.8 13.1 22.4 13.1 22.75 13.05 22.95 13.05 23.0 12.95 23.25" fill="#e6660b" fill-rule="evenodd" stroke="none"/>
      <path d="M11.6 22.8 L11.55 22.8 11.5 22.85 11.5 22.75 11.3 22.5 11.25 22.5 11.25 22.3 11.2 22.3 11.0 22.35 10.9 22.4 10.8 22.1 10.95 22.1 11.4 22.25 11.6 22.4 11.7 22.55 11.65 22.75 11.6 22.8" fill="#f7b70f" fill-rule="evenodd" stroke="none"/>
      <path d="M12.0 22.95 L11.6 22.8 11.65 22.75 11.7 22.55 11.6 22.4 11.4 22.25 10.95 22.1 10.8 22.1 10.8 22.0 10.9 22.0 11.0 21.9 11.05 21.85 11.0 21.75 11.15 21.75 11.35 21.8 11.6 21.85 11.75 21.9 11.85 22.0 12.05 22.25 12.1 22.55 12.05 22.85 12.05 22.9 12.0 22.95 M11.2 22.6 L10.9 22.45 10.9 22.4 11.0 22.35 11.2 22.3 11.25 22.3 11.25 22.5 11.2 22.6" fill="#fe9a10" fill-rule="evenodd" stroke="none"/>
      <path d="M11.5 22.75 L11.2 22.6 11.25 22.5 11.3 22.5 11.5 22.75" fill="#f4d326" fill-rule="evenodd" stroke="none"/>
      <path d="M13.95 23.45 L13.2 23.3 13.3 23.15 13.5 22.95 13.3 23.15 13.45 22.95 13.5 22.95 13.55 22.9 13.95 22.8 14.3 22.7 14.4 22.7 14.45 22.7 14.95 22.6 14.6 22.85 Q14.45 22.9 14.35 23.05 L14.2 23.15 13.95 23.45" fill="#ee7912" fill-rule="evenodd" stroke="none"/>
      <path d="M19.45 22.4 L19.1 22.55 18.55 22.35 17.95 22.25 17.45 22.2 16.9 22.25 16.75 22.3 15.95 22.4 15.4 22.55 15.15 22.6 15.05 22.65 15.0 22.7 14.95 22.7 14.6 22.85 14.95 22.6 15.0 22.6 15.0 22.55 15.05 22.55 15.1 22.5 15.4 22.4 15.9 22.2 16.0 22.2 16.05 22.15 16.4 22.1 16.55 22.1 16.95 22.0 17.85 21.9 17.9 21.9 18.6 22.0 18.7 22.05 19.25 22.25 19.35 22.3 19.45 22.4" fill="#df5200" fill-rule="evenodd" stroke="none"/>
      <path d="M14.2 23.55 L13.75 23.55 13.85 23.5 14.0 23.45 14.25 23.35 14.25 23.45 14.2 23.55 M13.5 22.95 L13.55 22.85 13.55 22.9 13.5 22.95" fill="#442e80" fill-rule="evenodd" stroke="none"/>
      <path d="M14.75 23.55 L14.2 23.55 14.25 23.45 14.25 23.35 14.65 23.25 14.9 23.2 14.8 23.5 14.75 23.55" fill="#52195d" fill-rule="evenodd" stroke="none"/>
      <path d="M15.25 23.5 L15.25 23.55 14.75 23.55 14.8 23.5 14.9 23.2 15.3 23.15 15.25 23.5" fill="#55103f" fill-rule="evenodd" stroke="none"/>
      <path d="M18.3 18.95 L18.4 18.95 18.45 19.1 18.45 19.2 18.25 19.35 18.2 19.2 18.1 19.1 18.15 19.05 18.25 18.95 18.3 18.95" fill="#d20024" fill-rule="evenodd" stroke="none"/>
      <path d="M17.65 23.15 L17.0 23.35 16.8 23.25 16.7 23.2 16.8 23.2 17.25 23.1 17.65 23.15" fill="#fc9515" fill-rule="evenodd" stroke="none"/>
      <path d="M17.0 23.35 L15.25 23.5 15.3 23.15 15.85 23.05 16.05 23.05 16.1 23.05 16.55 23.15 16.7 23.2 16.8 23.25 17.0 23.35" fill="#63042e" fill-rule="evenodd" stroke="none"/>
      <path d="M18.5 22.65 L18.5 22.7 18.3 22.65 18.05 22.65 17.95 22.65 17.8 22.6 17.95 22.6 18.05 22.6 18.3 22.6 18.5 22.65" fill="#f29f1d" fill-rule="evenodd" stroke="none"/>
      <path d="M20.5 9.35 L20.35 9.35 19.65 9.4 Q19.3 9.55 18.9 9.8 L18.8 9.85 18.55 10.0 18.65 10.0 18.75 10.0 19.0 10.05 20.15 10.3 20.25 10.3 20.3 10.45 20.4 11.05 20.45 11.2 20.55 11.7 20.6 11.85 20.5 12.1 20.35 12.45 M20.65 9.75 L20.5 9.35 M20.65 9.75 L20.75 10.05 20.75 10.25 20.75 10.35 20.7 10.45 20.7 11.2 20.7 11.6 20.6 11.85 M18.45 10.1 L18.55 10.0 M13.9 11.95 L13.8 11.85 13.45 11.55 M14.7 12.1 L14.8 11.95 14.9 11.85 15.05 11.6 15.2 11.35 15.2 11.3 15.3 11.2 15.5 10.9 15.85 10.6 15.85 10.55 15.9 10.45 15.95 10.4 16.05 10.4 16.65 10.55 17.0 10.7 17.05 10.7 17.3 10.8 17.5 10.9 17.6 10.95 M14.6 12.4 L14.05 12.05 14.0 12.05 13.9 11.95 M17.6 11.2 L17.6 11.25 17.65 11.25 17.9 11.5 18.15 11.8 18.2 11.9 18.2 11.95 18.25 12.3 18.35 12.65 18.35 12.7 18.4 12.95 18.4 13.2 18.45 13.5 18.45 13.6 M17.9 11.9 L17.55 11.85 17.25 11.85 16.95 11.8 16.85 11.8 M18.1 10.5 L18.35 10.2 18.45 10.1 M17.9 11.9 L18.2 11.95 M17.55 12.9 L17.6 12.9 17.9 12.9 18.4 12.95 M15.85 12.95 L15.0 12.65 14.65 12.45 14.6 12.4 14.7 12.1" fill="none" stroke="#ffef05" stroke-linecap="round" stroke-linejoin="round" stroke-width="0.1"/>
      <path d="M20.35 12.45 L20.35 12.5 20.4 13.1 20.45 13.25 20.5 13.6 20.55 14.0 20.7 15.3 20.7 15.35" fill="none" stroke="#ee9c08" stroke-linecap="round" stroke-linejoin="round" stroke-width="0.1"/>
      <path d="M21.95 15.9 L21.95 15.85 22.0 15.85 22.4 15.7 22.5 15.7 22.55 16.2 M22.2 16.7 L22.25 16.55 22.35 16.2 22.35 16.05 22.4 15.85 22.4 15.7 M22.1 17.05 L22.2 16.7 M22.05 17.25 L22.1 17.25 22.1 17.15 22.1 17.05" fill="none" stroke="#fdfed4" stroke-linecap="round" stroke-linejoin="round" stroke-width="0.1"/>
      <path d="M21.25 16.1 L21.3 16.1 21.45 16.05 21.55 16.0 21.6 16.0 21.65 16.0 21.75 15.95 21.8 15.9 M22.7 17.3 L22.7 17.4 22.7 17.45 22.7 17.75 22.7 18.1 22.7 18.3 M21.85 15.9 L21.9 15.9 M21.75 15.95 L21.65 16.0" fill="none" stroke="#f9d000" stroke-linecap="round" stroke-linejoin="round" stroke-width="0.1"/>
      <path d="M22.6 16.4 L22.6 16.5 22.65 16.65 22.65 16.75 22.65 16.85 22.65 16.9 22.65 17.0 22.7 17.05 22.7 17.1 22.7 17.2 22.7 17.3 M21.9 15.9 L21.95 15.9 22.0 15.85 M22.55 16.2 L22.6 16.35" fill="none" stroke="#ffffb4" stroke-linecap="round" stroke-linejoin="round" stroke-width="0.1"/>
      <path d="M21.2 16.15 L21.2 16.1 21.25 16.1 M20.4 16.4 L20.5 16.35 20.85 16.25 21.05 16.15 21.2 16.15" fill="none" stroke="#f8da00" stroke-linecap="round" stroke-linejoin="round" stroke-width="0.1"/>
      <path d="M20.7 15.35 L20.9 15.7 21.15 16.1 21.2 16.15 M19.45 16.7 L19.55 16.85 19.95 17.15 M18.95 15.75 L18.95 15.85 M17.95 15.75 L17.95 15.7 17.9 15.4 17.65 14.75 17.6 14.7 17.55 14.65 17.4 14.5 M19.0 15.9 L19.05 16.05 19.25 16.4 19.3 16.5 19.45 16.7" fill="none" stroke="#f94816" stroke-linecap="round" stroke-linejoin="round" stroke-width="0.1"/>
      <path d="M20.05 16.85 L20.35 16.45 20.4 16.4" fill="none" stroke="#c4101c" stroke-linecap="round" stroke-linejoin="round" stroke-width="0.1"/>
      <path d="M21.05 18.05 L20.85 18.0 20.65 17.6 20.7 17.35 Q20.75 17.25 20.9 17.25 L21.1 17.3 21.2 17.85 M21.6 17.95 L21.75 17.8 21.9 17.65 21.95 17.5 22.05 17.3 22.05 17.25 M21.05 18.05 L21.15 18.05 21.25 18.05 21.6 17.95" fill="none" stroke="#fae653" stroke-linecap="round" stroke-linejoin="round" stroke-width="0.1"/>
      <path d="M22.7 18.3 L22.5 18.45 22.3 18.65 22.2 18.7 22.2 18.75 22.0 18.85" fill="none" stroke="#d00b12" stroke-linecap="round" stroke-linejoin="round" stroke-width="0.1"/>
      <path d="M22.3 18.65 L22.3 18.7 22.1 19.3 22.1 19.35 22.1 19.45 21.95 19.85 21.9 20.15 21.9 20.4" fill="none" stroke="#7a0732" stroke-linecap="round" stroke-linejoin="round" stroke-width="0.1"/>
      <path d="M20.0 17.0 L20.05 16.85 M22.0 18.85 L21.55 18.9 21.45 18.9 21.25 18.9 Q19.85 18.8 19.85 17.5 L19.95 17.15 20.0 17.0" fill="none" stroke="#630013" stroke-linecap="round" stroke-linejoin="round" stroke-width="0.1"/>
      <path d="M21.45 18.9 L21.4 19.3 21.35 19.65 21.2 20.2 21.25 20.3 21.3 20.35 M21.1 20.25 L21.2 20.2 M21.1 20.25 L20.65 20.4" fill="none" stroke="#4a000f" stroke-linecap="round" stroke-linejoin="round" stroke-width="0.1"/>
      <path d="M21.9 20.4 L21.95 20.25 22.0 20.05 M20.8 20.85 L20.75 20.8 20.7 20.85 20.65 20.9 20.15 21.1 20.05 21.15 19.25 21.2 19.0 21.2 18.95 21.2 18.8 21.15 18.0 20.7 17.85 20.45 17.85 20.4 17.7 20.5 17.55 20.6 17.5 20.65 17.35 20.75 17.2 20.85 17.1 20.9 16.65 21.1 16.5 21.2 16.3 21.25 16.1 21.3 16.05 21.35 15.85 21.35 15.75 21.4 15.5 21.45 15.2 21.45 15.1 21.45 15.1 21.5 14.9 21.65 14.65 21.85 14.55 21.95 M20.8 20.85 L20.85 20.85 20.9 20.9 21.05 21.0 21.25 21.1 M12.55 18.35 L12.5 18.5 12.6 19.4 13.05 20.45 13.4 20.8 13.5 20.85 13.6 20.95 13.8 21.1 14.05 21.2 14.5 21.35 14.65 21.4 14.75 21.4 14.9 21.45 15.1 21.45 M12.55 18.35 L12.55 18.3" fill="none" stroke="#e22213" stroke-linecap="round" stroke-linejoin="round" stroke-width="0.1"/>
      <path d="M20.85 20.85 L20.85 21.15 20.9 21.4" fill="none" stroke="#e72509" stroke-linecap="round" stroke-linejoin="round" stroke-width="0.1"/>
      <path d="M22.0 20.05 L22.05 20.2" fill="none" stroke="#c81518" stroke-linecap="round" stroke-linejoin="round" stroke-width="0.1"/>
      <path d="M19.9 11.45 L20.1 11.85 20.2 12.1 20.3 12.3 20.35 12.45 M19.9 11.45 L19.65 11.5 19.45 11.55 19.05 11.7" fill="none" stroke="#ffd106" stroke-linecap="round" stroke-linejoin="round" stroke-width="0.1"/>
      <path d="M11.65 12.15 L11.55 12.05 11.55 12.0 11.15 11.65 11.05 11.55 10.55 11.05 10.5 11.0 10.25 10.75 10.2 10.7 9.8 10.3 9.4 9.85 9.4 9.35 M13.35 7.55 L13.55 7.65 13.7 7.7 13.8 7.75 M13.35 7.55 L13.15 7.5 M10.15 9.25 L10.45 8.6 M9.95 9.8 L9.85 10.1 9.85 10.25 9.8 10.3 M12.2 12.7 L11.9 12.4 11.65 12.15 M10.15 9.25 L9.95 9.75" fill="none" stroke="#fffff6" stroke-linecap="round" stroke-linejoin="round" stroke-width="0.1"/>
      <path d="M13.75 7.35 L13.8 7.75 13.8 7.8 13.85 8.0 13.85 8.05 13.9 8.25 13.95 8.6 14.05 8.6 14.25 8.6 14.3 8.6 14.6 8.6 14.65 8.6 14.7 8.65 M12.3 9.35 L12.35 8.65 12.55 8.65 12.7 8.65 13.05 8.6 13.1 8.6 13.65 8.6 13.8 8.6 13.95 8.6 M12.3 9.35 L12.3 9.4 12.3 9.55 12.35 10.45 12.4 10.55 12.4 10.6 12.45 11.0 12.55 11.5 12.6 11.6 12.6 11.75 12.75 12.25 12.8 12.45 12.95 12.85 13.0 12.95 M17.3 14.6 L17.3 14.35" fill="none" stroke="#f8fda1" stroke-linecap="round" stroke-linejoin="round" stroke-width="0.1"/>
      <path d="M14.9 8.25 L14.9 8.2 M14.95 8.2 L14.95 8.15 15.75 7.3 15.8 7.2 16.0 7.3 M18.0 7.7 L18.1 8.05 18.15 8.3 18.25 8.6" fill="none" stroke="#ffffef" stroke-linecap="round" stroke-linejoin="round" stroke-width="0.1"/>
      <path d="M14.7 8.65 L14.9 8.25 M14.9 8.2 L14.95 8.2 15.05 8.15 15.35 8.05 15.75 7.9 16.7 7.6 16.9 7.55 17.2 8.3 17.3 8.6 17.3 8.7 17.55 9.35 17.6 9.5 M14.1 9.8 L14.45 9.2 14.65 8.75 14.7 8.65" fill="none" stroke="#ffffff" stroke-linecap="round" stroke-linejoin="round" stroke-width="0.1"/>
      <path d="M8.45 13.4 L8.35 13.4 M9.6 12.05 L9.95 12.15 10.35 12.2 10.4 12.2 10.55 12.25 10.7 12.3 10.95 12.35 11.05 12.35 11.15 12.4 11.2 12.4 11.45 12.45 11.7 12.5 12.2 12.7 12.25 12.7 13.0 12.95 13.2 13.0 13.55 13.1 13.75 13.15 13.8 13.2 14.0 13.25 14.15 13.3 14.3 13.35 15.15 13.6 15.35 13.65 16.0 13.9 16.55 14.15 M9.5 13.7 L9.75 13.8 9.85 13.8 10.0 13.85 10.15 13.9 10.55 14.05 10.75 14.15 11.2 14.35 11.45 14.5 11.75 14.65 11.95 14.8 12.2 14.95 12.55 15.2 12.85 15.45 12.9 15.5 13.25 15.8 13.45 15.95 M8.55 13.45 L8.5 13.4 8.45 13.4 M9.5 13.7 L8.65 13.45 8.55 13.45 M13.75 16.15 L13.8 16.2 14.05 16.4 14.2 16.5 14.25 16.55" fill="none" stroke="#ffff9c" stroke-linecap="round" stroke-linejoin="round" stroke-width="0.1"/>
      <path d="M11.2 12.4 L11.3 12.35 11.45 12.25 11.65 12.15 M7.5 15.25 L7.7 15.3 7.95 15.3 8.3 15.4 8.7 15.65 9.1 16.1 M9.2 16.65 L9.15 16.75 M7.5 15.25 L7.3 15.25 7.2 15.3 7.05 15.3 7.0 15.3 6.8 15.3 6.7 15.35 6.6 15.35 M7.6 18.9 L8.05 18.9" fill="none" stroke="#fffec5" stroke-linecap="round" stroke-linejoin="round" stroke-width="0.1"/>
      <path d="M18.25 8.6 L18.2 8.65 18.05 9.1 17.85 9.75 18.1 10.15 18.2 10.35 M13.65 10.25 L13.65 9.95 13.85 9.9 14.1 9.8 14.95 9.45 15.1 9.35 15.25 9.3 16.0 9.1 M13.5 11.45 L13.5 11.05 13.6 10.6 13.65 10.25 M13.45 11.55 L13.5 11.45 M17.6 10.95 L17.6 10.85 17.6 10.45 17.45 10.3 17.4 10.25 17.3 10.1 17.25 10.05 17.15 9.95 16.3 9.05 16.25 9.05 16.05 9.1 M17.6 9.7 L17.6 9.8 17.6 9.95 17.6 10.25 17.6 10.45 M17.6 9.7 L17.6 9.5 M17.6 10.95 L17.6 11.1 17.6 11.2" fill="none" stroke="#fffa83" stroke-linecap="round" stroke-linejoin="round" stroke-width="0.1"/>
      <path d="M16.85 11.8 L16.85 11.85 16.7 12.2 16.6 12.55 16.55 12.95 16.5 13.4 16.5 13.45 16.6 13.55 16.75 13.7 16.8 13.8 16.9 13.9 17.3 14.35 17.35 14.45 17.4 14.5 17.4 14.4 17.4 14.3 17.45 13.75 17.45 13.65 17.45 13.5 17.5 13.25 17.5 13.15 17.55 12.9 M16.5 13.45 L15.85 12.95" fill="none" stroke="#ffd307" stroke-linecap="round" stroke-linejoin="round" stroke-width="0.1"/>
      <path d="M8.35 13.4 L8.1 13.4 8.0 13.35 7.8 13.35 M7.55 13.3 L7.25 13.25 7.05 13.25 7.0 13.25 M7.6 12.0 L9.6 12.05" fill="none" stroke="#fffefb" stroke-linecap="round" stroke-linejoin="round" stroke-width="0.1"/>
      <path d="M6.6 15.3 L6.7 15.25 6.9 15.15 M6.95 15.1 L7.05 15.05 7.1 15.05 7.15 15.0 7.65 14.75 7.75 14.7 7.8 14.65 8.2 14.25 8.2 14.2 8.25 14.1 8.45 13.6 8.45 13.4 M8.45 13.6 L8.5 13.6 8.5 13.65 8.75 13.85 8.95 14.0 9.0 14.0 9.1 14.05 9.25 14.15 9.3 14.15 9.55 14.25" fill="none" stroke="#fff99a" stroke-linecap="round" stroke-linejoin="round" stroke-width="0.1"/>
      <path d="M9.55 14.25 L9.55 14.3 9.6 14.3 9.75 14.35 9.85 14.4 10.05 14.45 10.2 14.5 10.6 14.7" fill="none" stroke="#fed12e" stroke-linecap="round" stroke-linejoin="round" stroke-width="0.1"/>
      <path d="M9.2 16.55 L9.2 16.65 M9.15 16.75 L9.0 17.15 8.85 17.3 8.65 17.4 M7.45 17.35 L7.3 17.2 7.1 16.75 7.25 16.45 7.3 16.4 Q7.4 16.2 7.6 16.2 L7.65 16.2 7.8 16.25 7.95 16.3 8.2 16.6 8.2 16.7 7.9 16.85 7.8 16.85 7.75 16.8 7.6 16.75 M7.45 17.35 L7.7 17.5 8.0 17.55 8.1 17.55 8.15 17.55 8.6 17.45 8.65 17.45" fill="none" stroke="#ffff97" stroke-linecap="round" stroke-linejoin="round" stroke-width="0.1"/>
      <path d="M9.05 18.65 L9.5 18.55 9.85 18.45 10.6 18.35 10.75 18.35 10.9 18.35 M8.9 18.7 L8.95 18.7 9.05 18.65" fill="none" stroke="#ffab29" stroke-linecap="round" stroke-linejoin="round" stroke-width="0.1"/>
      <path d="M7.6 19.1 L7.4 18.95 M9.0 19.2 L9.15 19.25 M8.45 19.1 L8.5 19.1 M7.6 19.1 L7.75 19.1" fill="none" stroke="#fef99d" stroke-linecap="round" stroke-linejoin="round" stroke-width="0.1"/>
      <path d="M7.4 18.85 L7.5 18.9 7.6 18.9 7.8 18.95 8.05 18.9 8.3 18.9 8.35 18.85 8.6 18.8 8.7 18.8 8.9 18.7" fill="none" stroke="#f9e978" stroke-linecap="round" stroke-linejoin="round" stroke-width="0.1"/>
      <path d="M7.75 19.1 L7.55 19.0 M7.85 19.2 L7.75 19.1 M8.4 19.55 L8.0 19.3 7.85 19.2 M8.4 19.55 L8.5 19.6 8.55 19.65 8.85 19.85 9.2 20.15 9.45 20.45 9.6 20.85 9.75 21.45 9.75 21.7" fill="none" stroke="#ffef40" stroke-linecap="round" stroke-linejoin="round" stroke-width="0.1"/>
      <path d="M13.5 22.95 L13.55 22.85 M13.3 23.15 L13.5 22.95 M13.3 23.15 L13.2 23.3" fill="none" stroke="#fff6cb" stroke-linecap="round" stroke-linejoin="round" stroke-width="0.1"/>
      <path d="M11.0 21.75 L11.15 21.75 11.35 21.8 11.6 21.85 11.75 21.9 11.85 22.0 12.05 22.25 12.1 22.55 12.05 22.85 12.05 22.9 12.0 22.95 M10.9 22.4 L11.0 22.35 11.2 22.3 M11.0 21.75 L10.9 21.7 10.6 21.75 10.3 21.85 10.2 21.95 10.2 22.0 M10.9 22.4 L10.9 22.45" fill="none" stroke="#ffeb96" stroke-linecap="round" stroke-linejoin="round" stroke-width="0.1"/>
      <path d="M18.65 14.65 L18.7 14.8 18.75 15.15 18.85 15.5 18.95 15.75 M18.95 15.85 L19.0 15.85 19.0 15.9 M18.45 13.6 L18.65 14.65" fill="none" stroke="#ff9f01" stroke-linecap="round" stroke-linejoin="round" stroke-width="0.1"/>
      <path d="M16.7 14.25 L16.85 14.3 M16.7 14.25 L16.15 14.25 Q15.7 14.3 15.2 14.75 14.8 15.2 14.7 15.7 L14.65 15.8 Q14.6 16.2 14.7 16.5" fill="none" stroke="#f7c025" stroke-linecap="round" stroke-linejoin="round" stroke-width="0.1"/>
      <path d="M16.85 14.3 L16.95 14.35 17.25 14.55 17.3 14.6 17.6 14.95 M14.7 16.5 L14.85 16.8 15.0 17.0 15.05 17.05 15.1 17.1" fill="none" stroke="#fd9301" stroke-linecap="round" stroke-linejoin="round" stroke-width="0.1"/>
      <path d="M16.55 14.15 L16.6 14.2 16.7 14.25 M13.7 16.15 L13.75 16.15 M13.8 16.2 L14.0 16.35 14.05 16.4 M14.25 16.55 L14.4 16.65 14.45 16.7 14.75 16.85 14.8 16.9 14.9 16.95 15.0 17.0 M13.45 15.95 L13.7 16.15" fill="none" stroke="#fece00" stroke-linecap="round" stroke-linejoin="round" stroke-width="0.1"/>
      <path d="M16.15 17.6 L15.95 17.6 15.9 17.6 15.7 17.55 15.6 17.45 M16.15 17.6 L16.35 17.6 16.6 17.6" fill="none" stroke="#eb3203" stroke-linecap="round" stroke-linejoin="round" stroke-width="0.1"/>
      <path d="M15.1 17.1 L15.2 17.2 15.25 17.25 15.45 17.4 15.6 17.45" fill="none" stroke="#f85400" stroke-linecap="round" stroke-linejoin="round" stroke-width="0.1"/>
      <path d="M15.95 17.6 L16.0 17.9 16.25 18.5 16.3 18.55 16.45 18.75 16.5 18.75 16.65 18.85 16.7 18.9 16.75 18.95 16.85 19.05 17.25 19.1 17.6 19.15 17.65 19.15 17.9 19.15 18.1 19.1 18.15 19.05 18.25 18.95 M17.2 18.5 L17.2 18.55 M17.2 18.5 L17.2 18.4 Q17.3 18.2 17.7 18.2 L17.85 18.2 18.0 18.2 Q18.35 18.25 18.35 18.65 L18.3 18.95" fill="none" stroke="#790018" stroke-linecap="round" stroke-linejoin="round" stroke-width="0.1"/>
      <path d="M17.95 16.35 L17.65 17.0 17.55 17.1 17.3 17.4 17.2 17.45 16.9 17.55 16.6 17.6 M17.95 16.2 L17.95 16.0 M17.95 16.2 L17.95 16.35" fill="none" stroke="#c4131d" stroke-linecap="round" stroke-linejoin="round" stroke-width="0.1"/>
      <path d="M17.95 16.0 L17.95 15.85 17.95 15.75 M17.9 15.4 L17.6 14.95" fill="none" stroke="#ed3501" stroke-linecap="round" stroke-linejoin="round" stroke-width="0.1"/>
      <path d="M19.85 17.5 L19.3 17.2 18.35 16.65 18.1 16.45 18.05 16.25 17.95 15.75" fill="none" stroke="#55000b" stroke-linecap="round" stroke-linejoin="round" stroke-width="0.1"/>
      <path d="M13.45 15.1 L13.45 15.15 13.75 15.75 13.75 15.85 13.7 16.15 M10.95 12.35 L11.0 12.4 11.0 12.5 11.3 13.05 11.45 13.3 11.65 13.55 11.75 13.65 12.1 13.95 12.35 14.15 12.5 14.25 12.75 14.4 12.8 14.45 13.15 14.55 13.4 14.55 13.85 14.45 14.05 14.15 13.85 13.85 13.8 13.8 Q13.55 13.65 13.45 13.65 L13.35 13.65 13.05 13.8 M12.2 14.95 L12.4 14.9 12.65 14.9 12.7 14.9 12.85 14.9 13.0 14.9 13.45 15.1" fill="none" stroke="#fffccb" stroke-linecap="round" stroke-linejoin="round" stroke-width="0.1"/>
      <path d="M10.7 14.8 L10.6 14.7 M11.45 15.35 L11.35 15.2 10.7 14.8 M11.55 15.45 L11.45 15.35 M11.7 15.65 L11.55 15.45" fill="none" stroke="#ff9927" stroke-linecap="round" stroke-linejoin="round" stroke-width="0.1"/>
      <path d="M12.15 16.25 L11.7 15.7 11.7 15.65 M12.55 15.2 Q12.2 15.55 12.2 16.2 L12.25 16.4 12.25 16.55 12.15 16.6 Q11.95 16.65 11.85 16.8 11.6 17.0 11.6 17.35 11.6 17.65 11.95 17.9 L12.25 18.1 12.45 18.25 12.55 18.3 12.6 18.35 M12.25 16.4 L12.15 16.3 12.15 16.25" fill="none" stroke="#e72b10" stroke-linecap="round" stroke-linejoin="round" stroke-width="0.1"/>
      <path d="M10.9 18.35 L11.15 18.35 11.5 18.35 12.2 18.3 12.55 18.35 12.6 18.35" fill="none" stroke="#f24b14" stroke-linecap="round" stroke-linejoin="round" stroke-width="0.1"/>
      <path d="M14.55 21.95 L14.45 22.0 14.3 22.15 13.95 22.4 13.6 22.75 13.55 22.85" fill="none" stroke="#ff9f29" stroke-linecap="round" stroke-linejoin="round" stroke-width="0.1"/>
      <path d="M14.9 23.2 L14.65 23.25 14.25 23.35 14.0 23.45 13.85 23.5 M16.7 23.2 L16.55 23.15 16.1 23.05 16.05 23.05 15.85 23.05 15.3 23.15 14.9 23.2 M17.0 23.35 L16.8 23.25 16.7 23.2" fill="none" stroke="#ffeb5b" stroke-linecap="round" stroke-linejoin="round" stroke-width="0.1"/>
      <path d="M10.25 21.8 L9.2 20.95 9.05 20.8 Q6.75 18.5 6.75 15.25 6.75 12.05 9.1 9.7 L9.2 9.6 Q11.7 7.3 15.25 7.3 L15.95 7.3 Q9.25 12.55 10.25 21.8" fill="#ffffff" fill-opacity="0.2" fill-rule="evenodd" stroke="none"/>
      <path d="M11.8 10.1 L10.7 11.8 9.5 13.15 Q8.95 13.05 8.85 12.75 L8.85 12.4 Q9.15 10.8 10.6 9.7 11.25 9.2 11.6 9.3 11.95 9.4 11.8 10.1 M8.25 14.6 Q8.35 13.8 9.15 13.9 10.05 14.0 9.9 14.75 L9.55 15.25 Q9.2 15.55 8.85 15.5 8.35 15.4 8.2 15.0 L8.25 14.6" fill="#ffffff" fill-rule="evenodd" stroke="none"/>
    </g>
    <linearGradient gradientTransform="matrix(0.0068, 0.0, 0.0, 0.005, 20.5, 25.9)" gradientUnits="userSpaceOnUse" id="gradient0" spreadMethod="pad" x1="-819.2" x2="819.2">
      <stop offset="0.0" stop-color="#65298e"/>
      <stop offset="1.0" stop-color="#9a6cc5"/>
    </linearGradient>
  </defs>
</svg>
