<?xml version="1.0" encoding="UTF-8" standalone="no"?>
<svg xmlns:ffdec="https://www.free-decompiler.com/flash" xmlns:xlink="http://www.w3.org/1999/xlink" ffdec:objectType="frame" height="30.05px" width="30.0px" xmlns="http://www.w3.org/2000/svg">
  <g transform="matrix(1.0, 0.0, 0.0, 1.0, 0.0, 0.0)">
    <use ffdec:characterId="1" height="30.0" transform="matrix(1.0, 0.0, 0.0, 1.0, 0.0, 0.0)" width="30.0" xlink:href="#shape0"/>
    <use ffdec:characterId="3" height="30.0" transform="matrix(1.0, 0.0, 0.0, 1.0, 0.0, 0.05)" width="30.0" xlink:href="#sprite0"/>
  </g>
  <defs>
    <g id="shape0" transform="matrix(1.0, 0.0, 0.0, 1.0, 0.0, 0.0)">
      <path d="M0.0 0.0 L30.0 0.0 30.0 30.0 0.0 30.0 0.0 0.0" fill="#33cc66" fill-opacity="0.0" fill-rule="evenodd" stroke="none"/>
    </g>
    <g id="sprite0" transform="matrix(1.0, 0.0, 0.0, 1.0, 0.0, 0.0)">
      <use ffdec:characterId="2" height="30.0" transform="matrix(1.0, 0.0, 0.0, 1.0, 0.0, 0.0)" width="30.0" xlink:href="#shape1"/>
    </g>
    <g id="shape1" transform="matrix(1.0, 0.0, 0.0, 1.0, 0.0, 0.0)">
      <path d="M25.55 4.8 L26.0 4.3 26.0 4.5 25.95 4.45 25.55 4.8 M29.95 15.0 L30.0 15.05 29.85 15.0 29.95 15.0" fill="url(#gradient0)" fill-rule="evenodd" stroke="none"/>
      <path d="M30.0 15.05 L29.95 15.1 29.35 15.0 29.85 15.0 30.0 15.05" fill="url(#gradient1)" fill-rule="evenodd" stroke="none"/>
      <path d="M15.0 29.95 L14.95 30.0 14.95 29.85 15.0 29.9 15.0 29.95 M22.05 21.9 L22.05 21.85 22.1 21.9 22.05 21.9" fill="url(#gradient2)" fill-rule="evenodd" stroke="none"/>
      <path d="M14.95 0.0 L15.0 0.1 14.95 0.35 14.95 0.0" fill="url(#gradient3)" fill-rule="evenodd" stroke="none"/>
      <path d="M4.6 4.3 L4.65 4.3 4.65 4.35 4.6 4.3" fill="url(#gradient4)" fill-rule="evenodd" stroke="none"/>
      <path d="M4.6 4.35 L4.6 4.3 4.65 4.35 4.6 4.35" fill="url(#gradient5)" fill-rule="evenodd" stroke="none"/>
      <path d="M4.5 25.8 L4.5 25.65 4.6 25.7 4.5 25.8 M7.75 9.15 L7.85 9.1 7.75 9.2 7.75 9.15" fill="#4dc4c2" fill-rule="evenodd" stroke="none"/>
      <path d="M0.05 15.0 L0.0 14.95 0.3 14.95 0.05 15.0" fill="url(#gradient6)" fill-rule="evenodd" stroke="none"/>
      <path d="M25.55 4.8 L21.25 8.05 21.1 7.95 Q19.15 6.5 16.55 6.1 L15.0 0.1 19.1 5.15 26.0 4.3 25.55 4.8 M14.95 0.0 L14.95 0.35 13.9 6.05 Q11.6 6.3 9.5 7.65 L4.65 4.35 7.75 9.15 7.75 9.2 Q5.85 11.25 5.5 13.85 L0.3 14.95 0.0 14.95 5.1 11.05 4.6 4.35 4.65 4.35 4.65 4.3 10.95 5.15 14.95 0.0 M26.0 4.5 L25.25 11.3 29.95 15.0 29.85 15.0 29.35 15.0 24.75 14.25 Q24.5 11.8 23.0 9.8 L26.0 4.5 M29.85 15.15 L25.2 19.1 26.05 25.85 26.05 25.9 18.95 25.4 15.05 29.9 16.1 24.65 Q18.9 24.4 21.15 22.7 L26.05 25.85 22.55 21.4 Q24.45 19.2 24.75 16.4 L29.85 15.15 M14.95 30.0 L11.05 25.4 4.5 25.8 9.3 22.9 Q11.3 24.35 13.85 24.65 L14.95 29.85 14.95 30.0 M4.5 25.65 L5.05 19.3 0.05 15.0 5.4 15.85 Q5.55 18.85 7.5 21.2 L4.6 25.7 4.5 25.65" fill="#5aa135" fill-rule="evenodd" stroke="none"/>
      <path d="M15.0 0.1 L16.55 6.1 Q19.15 6.5 21.1 7.95 L21.25 8.05 25.55 4.8 25.95 4.45 26.0 4.5 23.0 9.8 Q24.5 11.8 24.75 14.25 L29.35 15.0 29.95 15.1 29.85 15.15 24.75 16.4 Q24.45 19.2 22.55 21.4 L26.05 25.85 21.15 22.7 Q18.9 24.4 16.1 24.65 L15.05 29.9 15.0 29.95 15.0 29.9 14.95 29.85 13.85 24.65 Q11.3 24.35 9.3 22.9 L4.5 25.8 4.6 25.7 7.5 21.2 Q5.55 18.85 5.4 15.85 L0.05 15.0 0.3 14.95 5.5 13.85 Q5.85 11.25 7.75 9.2 L7.85 9.1 7.75 9.15 4.65 4.35 9.5 7.65 Q11.6 6.3 13.9 6.05 L14.95 0.35 15.0 0.1 M22.05 21.9 L22.1 21.9 22.05 21.85 22.05 21.9 M23.6 15.35 Q23.6 12.0 21.15 9.55 18.6 7.2 15.2 7.2 11.6 7.2 9.15 9.55 L9.05 9.7 Q6.65 12.1 6.65 15.35 6.65 18.65 9.0 21.0 L9.15 21.15 Q11.6 23.5 15.2 23.5 18.65 23.5 21.5 20.85 23.6 18.5 23.6 15.35" fill="#96d973" fill-rule="evenodd" stroke="none"/>
      <path d="M23.6 15.35 Q23.6 18.5 21.5 20.85 18.65 23.5 15.2 23.5 11.6 23.5 9.15 21.15 L9.0 21.0 Q6.65 18.65 6.65 15.35 6.65 12.1 9.05 9.7 L9.15 9.55 Q11.6 7.2 15.2 7.2 18.6 7.2 21.15 9.55 23.6 12.0 23.6 15.35" fill="#1f3612" fill-rule="evenodd" stroke="none"/>
      <path d="M20.75 14.5 L20.8 14.65 20.75 14.75 20.65 14.8 20.5 14.7 20.45 14.5 20.5 14.3 20.6 14.25 20.7 14.35 20.75 14.5 M20.9 16.9 L21.55 17.5 22.3 18.15 22.0 18.0 20.3 16.85 20.65 16.85 20.9 16.9 M14.75 12.45 L14.85 12.4 15.65 13.4 15.55 13.5 15.15 13.0 14.75 12.45 M15.85 15.75 L14.75 15.95 13.55 16.25 14.35 15.9 15.55 15.45 15.6 15.55 15.85 15.75" fill="#ffffff" fill-rule="evenodd" stroke="none"/>
      <path d="M21.2 15.4 L20.7 15.15 Q20.25 14.8 20.25 14.3 L20.35 14.05 20.4 14.0 20.45 14.0 20.85 14.2 21.15 15.25 21.2 15.4 M20.75 14.5 L20.7 14.35 20.6 14.25 20.5 14.3 20.45 14.5 20.5 14.7 20.65 14.8 20.75 14.75 20.8 14.65 20.75 14.5" fill="#cbfffc" fill-rule="evenodd" stroke="none"/>
      <path d="M20.4 14.0 L20.35 14.05 20.25 14.3 Q20.25 14.8 20.7 15.15 L21.2 15.4 21.25 15.6 21.15 15.6 20.25 15.3 Q19.9 14.95 19.9 14.6 L20.1 14.15 20.4 14.0 M15.6 11.5 L15.65 11.5 16.15 11.5 16.2 11.5 15.95 11.7 15.85 11.75 15.55 11.9 15.5 11.9 15.35 11.95 15.25 11.9 15.2 11.9 15.15 11.95 15.1 12.1 15.05 12.1 15.05 12.2 14.95 12.3 14.9 12.3 14.9 12.35 14.85 12.4 14.75 12.45 14.7 12.5 14.55 12.65 14.3 12.75 14.15 12.85 13.3 12.95 12.75 12.95 12.75 12.85 12.8 12.55 12.85 12.55 13.1 12.6 14.15 12.35 14.3 12.25 14.6 12.0 14.7 11.85 15.15 11.85 15.2 11.9 15.15 11.85 14.7 11.85 15.3 11.65 15.35 11.65 15.6 11.5 M19.95 16.1 L19.35 15.85 19.4 15.7 19.05 15.45 19.05 15.2 19.0 14.85 17.9 14.25 16.75 13.7 16.35 13.5 16.4 12.3 16.75 12.4 16.8 12.45 17.35 12.65 17.35 13.4 19.45 14.45 19.5 14.85 19.75 15.7 19.8 15.75 19.95 15.85 19.95 16.1" fill="#81fcf7" fill-rule="evenodd" stroke="none"/>
      <path d="M20.45 14.0 L20.4 14.0 20.1 14.15 19.9 14.6 Q19.9 14.95 20.25 15.3 L21.15 15.6 21.25 15.6 21.35 15.8 21.15 15.8 Q20.25 15.8 19.85 14.9 L19.6 14.25 19.5 13.9 18.3 13.1 17.45 12.65 18.35 13.0 18.55 13.1 20.45 13.95 20.45 14.0 M16.2 11.5 L16.3 11.6 16.55 11.9 16.75 12.05 17.35 12.6 17.35 12.65 16.8 12.45 16.75 12.4 15.95 11.7 16.2 11.5 M14.55 12.65 L14.7 12.5 14.75 12.45 15.15 13.0 15.55 13.5 15.3 13.55 14.85 13.0 14.55 12.65 M14.85 12.4 L14.9 12.35 14.9 12.3 14.95 12.3 15.3 12.65 15.8 13.25 15.85 13.3 15.8 13.3 15.65 13.4 14.85 12.4" fill="#6d8593" fill-rule="evenodd" stroke="none"/>
      <path d="M21.35 15.8 L21.4 16.1 21.0 16.3 20.95 16.3 20.95 16.1 20.8 16.1 20.1 15.85 19.8 15.75 19.75 15.7 19.5 14.85 19.45 14.45 17.35 13.4 17.35 12.65 17.45 12.65 18.3 13.1 19.5 13.9 19.6 14.25 19.85 14.9 Q20.25 15.8 21.15 15.8 L21.35 15.8 M18.5 15.7 L18.05 16.05 18.0 16.05 17.1 15.75 16.75 15.6 16.55 15.5 16.35 15.4 16.3 15.15 16.15 14.8 16.25 14.8 16.45 14.8 16.55 15.05 16.65 15.3 16.75 15.35 17.3 15.5 17.6 15.6 17.65 15.6 17.9 15.65 18.1 15.65 18.2 15.6 18.35 15.5 18.45 15.65 18.5 15.7 M12.75 12.85 L12.75 12.95 12.7 13.0 12.9 13.45 13.0 13.7 13.5 13.8 14.3 13.8 14.85 13.65 Q14.0 13.7 14.0 13.2 L14.05 12.95 14.15 12.85 14.3 12.75 14.55 12.65 14.85 13.0 15.3 13.55 15.55 13.5 15.65 13.4 15.8 13.3 15.85 13.3 15.85 13.2 16.0 13.05 16.05 12.9 16.1 12.8 16.15 12.65 15.65 12.2 15.4 12.0 15.35 11.95 15.45 11.95 16.3 12.25 16.4 12.3 16.3 12.25 15.45 11.95 15.35 11.95 15.4 12.0 15.65 12.2 16.15 12.65 16.1 12.8 16.05 12.9 16.0 13.05 15.85 13.2 15.85 13.3 15.8 13.25 15.3 12.65 14.95 12.3 15.05 12.2 15.05 12.1 15.1 12.1 15.15 11.95 15.2 11.9 15.25 11.9 15.3 11.95 15.35 11.95 15.5 11.9 15.55 11.9 15.85 11.75 15.95 11.7 16.75 12.4 16.4 12.3 16.35 13.5 16.75 13.7 17.9 14.25 19.0 14.85 19.05 15.2 18.95 15.15 18.35 14.65 16.45 14.15 14.75 13.8 14.7 13.95 14.45 14.15 13.85 14.3 13.4 14.2 12.9 13.85 12.6 13.3 12.55 13.0 12.75 12.85" fill="#415560" fill-rule="evenodd" stroke="none"/>
      <path d="M20.5 16.55 L20.65 16.75 18.75 16.3 18.65 16.3 19.0 16.45 19.0 16.5 19.05 16.5 20.25 17.2 20.45 17.3 22.0 18.0 22.3 18.15 22.75 18.55 22.7 18.55 21.4 18.1 18.4 17.05 18.25 17.2 17.95 17.4 17.35 17.1 17.3 17.45 17.25 17.7 16.6 17.0 16.3 17.35 16.25 17.4 15.95 17.65 15.85 17.7 15.15 17.3 14.95 17.15 14.45 16.8 14.25 16.8 13.55 16.8 11.9 16.75 11.1 16.75 11.5 16.5 12.35 15.95 12.4 15.9 13.55 15.25 13.65 15.15 13.95 15.05 14.25 14.85 14.3 14.85 15.6 14.15 16.05 14.25 16.1 14.6 16.15 14.8 16.3 15.15 16.35 15.4 16.55 15.5 16.75 15.6 17.1 15.75 18.0 16.05 18.05 16.05 18.5 15.7 18.55 15.65 18.8 15.45 18.9 15.65 19.35 15.85 19.95 16.1 20.6 16.3 20.55 16.45 20.5 16.55 M16.25 16.95 L15.8 16.8 14.45 16.8 15.8 16.8 16.25 16.95 15.85 17.0 15.35 17.0 15.35 17.1 15.65 17.25 15.9 17.45 16.05 17.3 16.25 16.95 M15.65 14.9 Q15.55 14.95 15.35 15.1 L13.9 15.85 12.6 16.5 12.25 16.6 13.2 16.55 15.3 16.45 17.3 16.35 17.3 16.3 16.65 16.0 16.1 15.65 15.75 15.2 15.65 14.9 M18.4 17.05 L18.3 17.0 18.0 16.9 17.35 17.1 18.0 16.9 18.3 17.0 18.4 17.05" fill="#d3cd83" fill-rule="evenodd" stroke="none"/>
      <path d="M20.95 16.3 L20.5 16.55 20.55 16.45 20.6 16.3 19.95 16.1 19.95 15.85 19.8 15.75 20.1 15.85 20.8 16.1 20.95 16.1 20.95 16.3 M19.35 15.85 L18.9 15.65 18.8 15.45 18.55 15.65 18.5 15.7 18.45 15.65 18.35 15.5 18.55 15.4 18.75 15.2 18.75 15.15 17.4 14.6 17.1 14.5 16.95 14.5 16.75 14.45 16.65 14.4 16.3 14.3 16.35 14.65 16.45 14.8 16.25 14.8 16.15 14.8 16.1 14.6 16.05 14.25 15.6 14.15 14.3 14.85 14.25 14.85 13.95 15.05 13.65 15.15 13.55 15.25 13.5 15.15 13.1 14.7 13.0 14.6 11.95 13.4 12.4 13.1 12.55 13.0 12.6 13.3 12.9 13.85 13.4 14.2 13.85 14.3 14.45 14.15 14.7 13.95 14.75 13.8 16.45 14.15 18.35 14.65 18.95 15.15 19.05 15.2 19.05 15.45 19.4 15.7 19.35 15.85 M12.75 12.95 L13.3 12.95 14.15 12.85 14.05 12.95 14.0 13.2 Q14.0 13.7 14.85 13.65 L14.3 13.8 13.5 13.8 13.0 13.7 12.9 13.45 12.7 13.0 12.75 12.95 M18.8 15.45 L18.8 15.35 18.75 15.2 18.8 15.35 18.8 15.45 M16.3 14.3 L16.05 14.25 16.3 14.3 M14.7 13.95 L15.6 14.15 14.7 13.95" fill="#22323a" fill-rule="evenodd" stroke="none"/>
      <path d="M20.65 16.75 L20.9 16.9 20.65 16.85 20.3 16.85 22.0 18.0 20.45 17.3 20.25 17.2 19.05 16.5 19.0 16.5 19.0 16.45 18.65 16.3 18.75 16.3 20.65 16.75 M11.65 22.85 L10.65 22.3 10.75 22.3 11.05 22.15 11.2 22.1 11.5 22.25 12.1 22.5 11.65 22.85 M16.25 16.95 L16.05 17.3 15.9 17.45 15.65 17.25 15.35 17.1 15.35 17.0 15.85 17.0 16.25 16.95 M15.65 14.9 L15.75 15.2 16.1 15.65 16.65 16.0 17.3 16.3 17.3 16.35 15.3 16.45 13.2 16.55 12.25 16.6 12.6 16.5 13.9 15.85 15.35 15.1 Q15.55 14.95 15.65 14.9 M15.85 15.75 L15.6 15.55 15.55 15.45 14.35 15.9 13.55 16.25 14.75 15.95 15.85 15.75" fill="#f0ebb7" fill-rule="evenodd" stroke="none"/>
      <path d="M21.4 18.1 L21.7 18.4 19.9 17.9 19.05 17.8 18.1 18.2 17.45 18.6 16.45 17.95 15.95 17.65 16.25 17.4 16.3 17.35 16.6 17.0 17.25 17.7 17.3 17.45 17.35 17.1 17.95 17.4 18.25 17.2 18.4 17.05 21.4 18.1 M9.45 21.4 L9.2 21.2 9.2 21.0 9.0 21.0 8.55 20.5 8.55 20.35 8.6 20.0 9.2 21.0 9.45 21.4 M13.55 15.25 L12.4 15.9 12.0 15.4 11.95 15.3 11.95 15.25 11.5 14.7 12.55 14.55 13.0 14.6 13.1 14.7 13.5 15.15 13.55 15.25 M12.35 15.95 L11.5 16.5 10.5 16.55 10.35 16.55 10.25 16.4 11.25 16.15 12.0 16.0 12.15 16.0 12.35 15.95 M13.55 16.8 L14.25 16.8 14.45 16.8 14.95 17.15 15.15 17.3 14.75 17.35 Q14.35 17.45 14.2 17.65 L13.75 17.05 13.55 16.8" fill="#5aa135" fill-rule="evenodd" stroke="none"/>
      <path d="M22.25 19.9 L21.5 20.85 Q19.0 23.2 16.05 23.45 L16.05 23.35 16.15 22.95 15.4 22.65 14.95 22.25 15.35 20.9 14.85 20.5 14.8 20.45 14.45 20.05 14.9 20.05 15.25 20.0 15.15 20.0 Q14.8 19.85 14.8 19.25 L14.8 19.2 14.85 18.7 14.8 18.3 15.7 18.5 Q16.2 18.65 16.25 19.25 L16.3 19.45 Q16.35 20.25 16.65 20.6 L16.75 20.7 17.2 20.9 17.5 21.0 Q17.6 20.65 17.85 20.45 18.0 20.25 18.25 20.2 L18.8 20.1 19.3 20.05 19.45 19.7 19.6 19.5 Q20.05 19.25 21.1 19.5 L22.25 19.9 M15.75 23.5 L15.2 23.5 15.15 23.5 15.15 23.45 15.2 23.3 Q15.3 22.95 15.45 22.95 L15.75 23.1 15.85 23.4 15.75 23.5 M10.65 22.3 L10.4 22.3 10.15 22.0 10.1 21.85 8.3 18.95 8.4 18.9 9.95 21.2 10.7 22.25 10.75 22.3 10.65 22.3" fill="#c1ee87" fill-rule="evenodd" stroke="none"/>
      <path d="M22.15 19.05 L22.45 19.6 22.25 19.9 21.1 19.5 Q20.05 19.25 19.6 19.5 L19.45 19.7 19.3 20.05 18.8 20.1 18.25 20.2 Q18.0 20.25 17.85 20.45 17.6 20.65 17.5 21.0 L17.2 20.9 16.75 20.7 16.65 20.6 Q16.35 20.25 16.3 19.45 L16.25 19.25 Q16.2 18.65 15.7 18.5 L14.8 18.3 14.85 18.7 14.8 19.2 14.8 19.25 Q14.8 19.85 15.15 20.0 L15.25 20.0 14.9 20.05 14.45 20.05 14.8 20.45 14.85 20.5 15.35 20.9 14.95 22.25 15.4 22.65 16.15 22.95 16.05 23.35 16.05 23.45 15.75 23.5 15.85 23.4 15.75 23.1 15.45 22.95 Q15.3 22.95 15.2 23.3 L15.15 23.45 14.75 23.1 14.55 22.95 14.15 22.45 14.35 21.8 14.7 21.2 14.0 20.65 14.0 20.6 13.55 19.9 14.0 19.65 14.45 19.55 14.35 19.05 14.25 18.8 14.0 17.8 14.7 17.8 Q15.65 17.75 16.1 18.2 L16.8 19.55 17.0 20.0 17.6 19.55 18.3 19.05 19.45 18.35 19.55 18.3 21.15 18.75 22.15 19.05 M22.75 20.95 L22.7 20.9 22.75 20.95" fill="#96d973" fill-rule="evenodd" stroke="none"/>
      <path d="M21.7 18.4 L22.0 18.8 22.15 19.05 21.15 18.75 19.55 18.3 19.45 18.35 18.3 19.05 17.6 19.55 17.0 20.0 16.8 19.55 16.1 18.2 Q15.65 17.75 14.7 17.8 L14.0 17.8 14.25 18.8 14.35 19.05 14.45 19.55 14.0 19.65 13.55 19.9 14.0 20.6 14.0 20.65 14.7 21.2 14.35 21.8 14.15 22.45 14.55 22.95 14.75 23.1 14.9 23.5 14.75 23.1 15.15 23.45 15.15 23.5 14.9 23.5 13.85 23.4 13.9 23.15 13.15 23.0 13.1 23.0 12.45 22.8 12.65 22.55 12.85 22.3 11.95 21.9 11.85 21.8 11.2 21.45 11.65 20.85 12.2 20.35 11.45 19.95 10.6 19.4 10.65 19.4 10.65 19.35 11.2 19.15 11.25 19.15 11.55 18.95 10.8 18.4 10.1 17.8 10.4 17.75 10.65 17.7 11.1 17.8 10.7 17.15 10.35 16.55 10.5 16.55 11.5 16.5 11.1 16.75 11.9 16.75 13.55 16.8 13.75 17.05 14.2 17.65 Q14.35 17.45 14.75 17.35 L15.15 17.3 15.85 17.7 15.95 17.65 16.45 17.95 17.45 18.6 18.1 18.2 19.05 17.8 19.9 17.9 21.7 18.4 M10.15 22.0 L9.45 21.4 9.2 21.0 8.6 20.0 8.55 20.35 8.55 20.5 8.15 20.05 8.15 19.7 8.2 19.05 8.3 18.95 10.1 21.85 10.15 22.0 M12.2 16.9 L12.05 16.85 11.7 16.85 11.7 17.05 11.7 17.2 11.95 17.35 12.3 17.45 12.3 17.4 12.2 17.05 12.2 16.9 M12.65 16.95 L12.65 17.8 13.1 18.1 13.45 18.35 13.55 18.35 13.55 18.3 13.45 17.85 13.4 17.4 13.2 17.25 13.1 17.2 12.65 16.95 M12.4 18.35 L12.2 18.3 Q12.1 18.3 12.05 18.4 L11.95 18.85 12.5 18.9 12.45 18.85 12.4 18.6 12.4 18.35 M12.95 19.1 L12.9 19.55 13.1 19.5 13.4 19.3 13.45 19.25 13.1 19.05 12.95 19.05 12.95 19.1" fill="#87d260" fill-rule="evenodd" stroke="none"/>
      <path d="M9.0 15.15 L8.1 17.6 7.85 17.7 7.75 17.45 7.75 17.0 7.85 15.4 8.3 15.35 9.0 15.15 M7.55 11.75 L7.8 11.25 8.1 11.0 8.3 10.85 8.4 10.8 8.9 10.4 9.25 10.1 9.45 10.2 9.45 10.35 9.45 10.45 9.2 10.6 8.65 11.15 8.5 11.3 8.4 11.35 8.25 11.5 8.2 11.5 7.9 11.75 7.85 11.75 7.6 11.75 7.55 11.75 M9.25 9.45 L9.3 9.4 9.25 9.2 9.45 9.3 9.5 9.3 9.8 9.45 9.75 9.6 9.75 9.65 9.65 9.6 Q9.45 9.45 9.25 9.45 M11.8 8.15 L11.9 8.25 11.95 8.4 11.25 9.45 10.8 10.25 10.7 10.25 10.35 10.1 10.25 9.65 11.0 8.85 11.8 8.15 M11.0 10.45 L11.1 10.75 11.15 10.7 12.3 11.2 12.55 11.3 13.3 11.5 13.7 11.5 13.65 11.35 14.25 11.6 14.05 11.8 14.0 11.9 13.5 12.15 13.3 12.1 13.2 12.1 12.7 11.9 12.3 11.75 12.1 11.6 11.6 11.3 11.5 11.3 11.5 11.35 11.3 11.65 11.05 11.95 11.05 12.0 10.15 13.1 9.7 13.6 9.45 13.9 9.45 13.95 9.2 13.8 9.15 13.75 9.15 13.7 9.2 13.6 9.2 13.55 9.45 13.3 9.45 13.2 9.8 12.7 9.8 12.65 9.8 12.7 9.45 13.2 9.45 13.3 9.2 13.55 9.2 13.6 9.15 13.7 8.95 13.6 9.2 13.4 9.8 12.4 9.8 12.65 10.4 11.75 10.45 11.6 10.55 11.4 10.8 11.05 10.6 10.6 10.9 10.55 10.95 10.55 11.0 10.45 M12.95 11.1 L13.35 10.9 14.05 10.6 14.65 11.05 15.2 11.4 15.25 11.4 15.25 11.25 15.45 11.35 15.35 11.65 15.3 11.65 14.7 11.85 14.65 11.8 14.6 11.8 14.3 11.65 14.25 11.6 13.8 11.25 13.55 11.35 13.1 11.15 12.95 11.1 M11.1 10.75 L11.05 10.8 10.8 11.05 11.05 10.8 11.1 10.75 M8.3 14.35 L8.25 14.4 7.8 14.5 8.05 14.1 8.1 14.15 8.25 14.25 8.3 14.35 M7.75 12.3 L8.0 12.3 8.05 12.2 8.1 12.4 8.2 12.95 8.1 12.95 7.8 12.65 7.75 12.45 7.75 12.3 M8.2 13.25 L8.25 13.25 8.3 13.3 8.5 13.35 8.55 13.4 8.75 13.5 8.9 13.55 8.85 13.6 8.85 13.7 8.65 13.85 8.5 13.8 8.25 13.7 7.9 13.5 7.85 13.45 7.85 13.35 8.0 13.3 8.1 13.2 8.2 13.25 M7.9 13.5 L7.85 13.35 7.9 13.5 M10.25 16.0 L10.1 15.8 9.75 14.95 9.75 14.85 10.0 14.65 10.25 14.45 10.4 15.2 10.55 15.85 10.25 16.0" fill="#b8805e" fill-rule="evenodd" stroke="none"/>
      <path d="M7.8 11.25 L8.25 10.6 8.7 10.3 8.75 10.25 9.1 10.1 9.25 10.1 8.9 10.4 8.4 10.8 8.3 10.85 8.1 11.0 7.8 11.25 M11.95 8.4 L12.05 8.55 11.6 9.3 11.5 9.5 11.15 10.1 11.0 10.15 10.8 10.25 11.25 9.45 11.95 8.4 M11.15 10.7 L11.2 10.65 11.55 10.6 11.6 10.6 12.95 11.1 13.1 11.15 13.55 11.35 13.65 11.35 13.7 11.5 13.3 11.5 12.55 11.3 12.3 11.2 11.15 10.7 M14.05 10.6 L14.25 10.6 15.1 11.1 15.25 11.25 15.25 11.4 15.2 11.4 14.65 11.05 14.05 10.6" fill="#fccdb0" fill-rule="evenodd" stroke="none"/>
      <path d="M10.15 16.05 L9.15 15.05 9.15 15.0 9.1 14.95 9.0 15.15 8.3 15.35 7.85 15.4 7.75 17.0 7.75 17.45 7.85 17.7 Q7.6 17.7 7.4 17.5 L7.3 16.35 7.2 15.25 7.0 15.2 6.95 15.25 6.65 15.45 6.65 15.35 Q6.65 13.4 7.55 11.75 L7.6 11.75 7.85 11.75 7.9 11.75 8.2 11.5 8.25 11.5 8.4 11.35 8.5 11.3 8.65 11.15 9.2 10.6 9.45 10.45 9.45 10.35 9.45 10.2 9.25 10.1 9.1 10.1 8.75 10.25 8.7 10.3 8.55 10.25 9.05 9.7 9.15 9.55 9.25 9.45 Q9.45 9.45 9.65 9.6 L9.75 9.65 9.75 9.6 9.8 9.45 9.85 9.4 9.9 9.3 10.0 9.2 10.35 9.0 10.85 8.55 11.55 8.05 11.8 8.15 11.0 8.85 10.25 9.65 10.35 10.1 10.7 10.25 10.8 10.25 11.0 10.15 11.15 10.1 11.05 10.25 11.0 10.45 10.95 10.55 10.9 10.55 10.6 10.6 10.8 11.05 10.55 11.4 10.45 11.6 10.4 11.75 9.8 12.65 9.8 12.4 9.85 12.0 Q9.85 11.3 9.35 10.75 L9.45 10.65 9.45 10.6 9.45 10.45 9.45 10.6 9.45 10.65 9.35 10.75 8.8 11.4 8.7 11.5 8.3 11.95 8.25 12.05 8.05 12.2 8.0 12.3 7.75 12.3 7.75 12.45 7.8 12.65 8.1 12.95 8.2 12.95 8.2 13.1 8.2 13.25 8.1 13.2 8.0 13.3 7.85 13.35 7.85 13.45 7.9 13.5 8.25 13.7 8.5 13.8 8.65 13.85 8.85 13.7 8.85 13.6 8.9 13.55 8.95 13.6 9.15 13.7 9.15 13.75 9.2 13.8 9.45 13.95 9.45 13.9 9.7 13.6 10.15 13.1 11.05 12.0 11.05 11.95 11.3 11.65 11.5 11.35 11.5 11.3 11.6 11.3 12.1 11.6 12.3 11.75 12.7 11.9 13.2 12.1 13.3 12.1 13.5 12.15 14.0 11.9 14.05 11.8 14.25 11.6 13.65 11.35 13.55 11.35 13.8 11.25 14.25 11.6 14.3 11.65 14.6 11.8 14.65 11.8 14.7 11.85 14.6 12.0 14.3 12.25 14.15 12.35 13.1 12.6 12.85 12.55 12.8 12.55 12.6 12.4 11.7 12.9 11.05 13.8 10.8 14.15 10.7 14.3 10.6 14.3 10.3 14.25 10.2 14.3 10.25 14.45 10.0 14.65 9.75 14.85 9.75 14.95 10.1 15.8 10.25 16.0 10.15 16.05 M15.45 11.35 L15.6 11.5 15.35 11.65 15.45 11.35 M8.3 14.35 L8.35 14.35 8.4 14.45 8.75 14.75 9.0 14.95 9.15 14.9 9.75 14.15 9.9 14.0 10.2 13.6 10.4 13.35 11.05 12.6 11.5 12.0 11.55 11.95 11.6 11.95 12.2 12.2 12.35 12.3 12.6 12.4 12.35 12.3 12.2 12.2 11.6 11.95 11.55 11.95 11.5 12.0 11.05 12.6 10.4 13.35 10.2 13.6 9.9 14.0 9.75 14.15 9.15 14.9 9.0 14.95 8.75 14.75 8.4 14.45 8.35 14.35 8.3 14.35 8.25 14.25 8.1 14.15 8.05 14.1 7.8 14.5 8.25 14.4 8.3 14.35 M11.55 11.95 L11.55 11.9 11.55 11.75 11.5 11.35 11.55 11.75 11.55 11.9 11.55 11.95 M7.0 15.2 L7.1 15.15 7.25 15.0 7.8 14.5 7.25 15.0 7.1 15.15 7.0 15.2 M15.35 11.95 L15.3 11.95 15.25 11.9 15.35 11.95 M9.85 9.95 L9.75 9.65 9.85 9.95" fill="#835031" fill-rule="evenodd" stroke="none"/>
      <path d="M8.7 11.5 L8.8 11.85 8.75 12.4 8.65 12.6 8.45 13.0 8.4 13.05 8.2 13.1 8.2 12.95 8.1 12.4 8.3 11.95 8.7 11.5" fill="#fcfe5d" fill-rule="evenodd" stroke="none"/>
      <path d="M8.7 11.5 L8.8 11.4 8.95 11.95 Q8.95 12.5 8.55 12.9 L8.45 13.0 8.65 12.6 8.75 12.4 8.8 11.85 8.7 11.5" fill="#feffbf" fill-rule="evenodd" stroke="none"/>
      <path d="M8.1 12.4 L8.05 12.2 8.25 12.05 8.3 11.95 8.1 12.4" fill="#e7a654" fill-rule="evenodd" stroke="none"/>
      <path d="M13.85 23.4 L13.65 23.4 13.65 23.35 13.1 23.2 12.95 23.2 12.15 22.9 12.3 22.55 12.4 22.3 11.5 22.0 11.4 21.95 10.6 21.6 Q10.75 21.25 11.2 20.85 L11.7 20.45 10.65 19.75 10.1 19.2 10.35 19.05 10.8 19.0 10.2 18.6 9.45 17.9 9.65 17.85 10.4 17.55 10.1 17.1 9.9 16.65 9.85 16.35 9.8 16.2 10.15 16.05 10.25 16.0 10.55 15.85 10.85 15.75 11.7 15.55 11.4 15.15 11.05 14.75 11.45 14.7 11.5 14.7 11.95 15.25 11.95 15.3 12.0 15.4 12.4 15.9 12.35 15.95 12.15 16.0 12.0 16.0 11.25 16.15 10.25 16.4 10.35 16.55 10.7 17.15 11.1 17.8 10.65 17.7 10.4 17.75 10.1 17.8 10.8 18.4 11.55 18.95 11.25 19.15 11.2 19.15 10.65 19.35 10.65 19.4 10.6 19.4 11.45 19.95 12.2 20.35 11.65 20.85 11.2 21.45 11.85 21.8 11.95 21.9 12.85 22.3 12.65 22.55 12.45 22.8 13.1 23.0 13.15 23.0 13.9 23.15 13.85 23.4 M8.15 20.05 L7.9 19.65 Q7.9 19.2 8.05 18.85 L8.2 18.7 8.3 18.75 8.4 18.9 8.3 18.95 8.2 19.05 8.15 19.7 8.15 20.05 M11.25 19.15 L10.8 19.0 11.25 19.15" fill="#79eca2" fill-rule="evenodd" stroke="none"/>
      <path d="M17.65 15.05 Q17.65 15.4 17.9 15.4 L18.15 15.3 18.2 15.15 18.2 15.2 18.15 15.4 18.05 15.5 18.15 15.55 18.2 15.6 18.1 15.65 17.9 15.65 17.4 15.2 17.1 14.5 17.4 14.6 17.95 14.95 17.8 14.95 17.75 14.95 17.7 14.9 17.45 14.7 17.4 14.7 17.3 14.7 17.25 14.8 17.35 14.95 17.65 15.05" fill="#ff7400" fill-rule="evenodd" stroke="none"/>
      <path d="M17.65 15.05 L17.35 14.95 17.25 14.8 17.3 14.7 17.4 14.7 17.45 14.7 17.7 14.9 17.75 14.95 17.8 14.95 17.8 15.0 17.7 15.05 17.65 15.05 M16.3 14.3 L16.65 14.4 16.75 14.45 16.95 14.5 16.9 14.7 17.1 15.15 17.6 15.6 17.3 15.5 16.75 15.35 16.65 15.3 16.55 15.05 16.45 14.8 16.35 14.65 16.3 14.3" fill="#f5feff" fill-rule="evenodd" stroke="none"/>
      <path d="M18.2 15.6 L18.15 15.55 18.05 15.5 18.15 15.4 18.2 15.2 18.2 15.15 18.15 15.3 17.9 15.4 Q17.65 15.4 17.65 15.05 L17.7 15.05 17.8 15.0 17.8 14.95 17.95 14.95 17.4 14.6 18.75 15.15 18.75 15.2 18.55 15.4 18.35 15.5 18.2 15.6" fill="#9f510f" fill-rule="evenodd" stroke="none"/>
      <path d="M17.1 14.5 L17.4 15.2 17.9 15.65 17.65 15.6 17.6 15.6 17.1 15.15 16.9 14.7 16.95 14.5 17.1 14.5" fill="#233038" fill-rule="evenodd" stroke="none"/>
      <path d="M12.2 16.9 L12.2 17.05 12.3 17.4 12.3 17.45 11.95 17.35 11.7 17.2 11.7 17.05 11.7 16.85 12.05 16.85 12.2 16.9 M12.4 18.35 L12.4 18.6 12.45 18.85 12.5 18.9 11.95 18.85 12.05 18.4 Q12.1 18.3 12.2 18.3 L12.4 18.35 M12.65 16.95 L13.1 17.2 13.2 17.25 13.4 17.4 13.45 17.85 13.55 18.3 13.55 18.35 13.45 18.35 13.1 18.1 12.65 17.8 12.65 16.95 M12.95 19.1 L12.95 19.05 13.1 19.05 13.45 19.25 13.4 19.3 13.1 19.5 12.9 19.55 12.95 19.1" fill="#91d96b" fill-rule="evenodd" stroke="none"/>
      <path d="M13.65 23.4 L11.65 22.85 12.1 22.5 11.5 22.25 11.2 22.1 11.3 22.05 11.5 22.0 12.4 22.3 12.3 22.55 12.15 22.9 12.95 23.2 13.1 23.2 13.65 23.35 13.65 23.4" fill="#dbd38b" fill-rule="evenodd" stroke="none"/>
      <path d="M21.2 15.4 L21.15 15.25 20.85 14.2 20.45 14.0 20.4 14.0 20.1 14.15 19.9 14.6 Q19.9 14.95 20.25 15.3 L21.15 15.6 21.25 15.6 21.2 15.4 M17.45 12.65 L18.35 13.0 18.55 13.1 20.45 13.95 20.45 14.0 M21.25 15.6 L21.35 15.8 21.4 16.1 21.0 16.3 20.95 16.3 20.5 16.55 20.65 16.75 20.9 16.9 21.55 17.5 22.3 18.15 22.75 18.55 22.7 18.55 21.4 18.1 18.4 17.05 18.3 17.0 18.0 16.9 17.35 17.1 17.95 17.4 18.25 17.2 18.4 17.05 M15.6 11.5 L15.65 11.5 16.15 11.5 16.2 11.5 16.3 11.6 16.55 11.9 16.75 12.05 17.35 12.6 17.35 12.65 17.45 12.65 M20.5 16.55 L20.55 16.45 20.6 16.3 19.95 16.1 19.35 15.85 18.9 15.65 18.8 15.45 18.55 15.65 18.5 15.7 18.05 16.05 18.0 16.05 17.1 15.75 16.75 15.6 16.55 15.5 16.35 15.4 16.3 15.15 16.15 14.8 16.1 14.6 16.05 14.25 15.6 14.15 14.3 14.85 14.25 14.85 13.95 15.05 13.65 15.15 13.55 15.25 12.4 15.9 12.35 15.95 11.5 16.5 11.1 16.75 11.9 16.75 13.55 16.8 14.25 16.8 14.45 16.8 15.8 16.8 16.25 16.95 M14.7 11.85 L15.3 11.65 15.35 11.65 15.6 11.5 M12.85 12.55 L12.8 12.55 12.75 12.85 12.75 12.95 13.3 12.95 14.15 12.85 14.3 12.75 14.55 12.65 14.7 12.5 14.75 12.45 14.85 12.4 14.9 12.35 14.9 12.3 14.95 12.3 15.05 12.2 15.05 12.1 15.1 12.1 15.15 11.95 15.2 11.9 15.15 11.85 14.7 11.85 M15.25 11.9 L15.3 11.95 15.35 11.95 15.25 11.9 15.2 11.9 M15.35 11.95 L15.5 11.9 15.55 11.9 15.85 11.75 15.95 11.7 16.2 11.5 M16.4 12.3 L16.3 12.25 15.45 11.95 15.35 11.95 15.4 12.0 15.65 12.2 16.15 12.65 16.1 12.8 16.05 12.9 16.0 13.05 15.85 13.2 15.85 13.3 15.8 13.3 M17.4 14.6 L17.1 14.5 17.4 15.2 17.9 15.65 18.1 15.65 18.2 15.6 18.35 15.5 18.55 15.4 18.75 15.2 18.75 15.15 17.4 14.6 M18.75 15.2 L18.8 15.35 18.8 15.45 M19.05 15.2 L19.0 14.85 17.9 14.25 16.75 13.7 16.35 13.5 16.4 12.3 16.75 12.4 16.8 12.45 17.35 12.65 17.35 13.4 19.45 14.45 19.5 14.85 19.75 15.7 19.8 15.75 19.95 15.85 19.95 16.1 M19.05 15.2 L19.05 15.45 19.4 15.7 19.35 15.85 M16.05 14.25 L16.3 14.3 16.65 14.4 16.75 14.45 16.95 14.5 17.1 14.5 M16.3 14.3 L16.35 14.65 16.45 14.8 16.55 15.05 16.65 15.3 16.75 15.35 17.3 15.5 17.6 15.6 17.1 15.15 16.9 14.7 16.95 14.5 M17.9 15.65 L17.65 15.6 17.6 15.6 M15.95 17.65 L15.85 17.7 15.15 17.3 14.95 17.15 14.45 16.8 M15.95 17.65 L16.25 17.4 16.3 17.35 16.6 17.0 17.25 17.7 17.3 17.45 17.35 17.1 M14.85 13.65 L14.3 13.8 13.5 13.8 13.0 13.7 12.9 13.45 12.7 13.0 12.75 12.95 M13.0 14.6 L13.1 14.7 13.5 15.15 13.55 15.25 M12.55 13.0 L12.4 13.1 11.95 13.4 13.0 14.6 M12.75 12.85 L12.55 13.0 M15.6 14.15 L14.7 13.95" fill="none" stroke="#18242a" stroke-linecap="round" stroke-linejoin="round" stroke-width="0.2"/>
      <path d="M21.4 18.1 L21.7 18.4 22.0 18.8 22.15 19.05 22.45 19.6 M7.9 19.65 Q7.9 19.2 8.05 18.85 L8.2 18.7 8.3 18.75 8.4 18.9 9.95 21.2 10.7 22.25 10.75 22.3 M11.5 22.0 L11.4 21.95 10.6 21.6 Q10.75 21.25 11.2 20.85 L11.7 20.45 10.65 19.75 10.1 19.2 10.35 19.05 10.8 19.0 10.2 18.6 9.45 17.9 9.65 17.85 10.4 17.55 10.1 17.1 9.9 16.65 9.85 16.35 9.8 16.2 10.15 16.05 10.25 16.0 10.55 15.85 10.85 15.75 11.7 15.55 11.4 15.15 11.05 14.75 11.45 14.7 11.5 14.7 12.55 14.55 13.0 14.6 M10.8 19.0 L11.25 19.15 M13.65 23.4 L13.65 23.35 13.1 23.2 12.95 23.2 12.15 22.9 12.3 22.55 12.4 22.3 11.5 22.0 M14.9 23.5 L14.75 23.1 M15.85 23.4 L15.75 23.5" fill="none" stroke="#2e5817" stroke-linecap="round" stroke-linejoin="round" stroke-width="0.2"/>
      <path d="M10.15 16.05 L9.15 15.05 9.15 15.0 9.1 14.95 9.0 15.15 8.1 17.6 7.85 17.7 Q7.6 17.7 7.4 17.5 L7.3 16.35 7.2 15.25 7.0 15.2 6.95 15.25 6.65 15.45 M8.25 10.6 L8.7 10.3 8.55 10.25 M9.45 9.3 L9.5 9.3 9.8 9.45 9.85 9.4 9.9 9.3 10.0 9.2 10.35 9.0 10.85 8.55 11.55 8.05 11.8 8.15 11.9 8.25 11.95 8.4 12.05 8.55 11.6 9.3 11.5 9.5 11.15 10.1 11.05 10.25 11.0 10.45 11.1 10.75 11.15 10.7 11.2 10.65 11.55 10.6 11.6 10.6 12.95 11.1 13.35 10.9 14.05 10.6 14.25 10.6 15.1 11.1 15.25 11.25 15.45 11.35 15.6 11.5 M11.0 10.45 L10.95 10.55 10.9 10.55 10.6 10.6 M10.8 11.05 L11.05 10.8 11.1 10.75 M9.8 12.65 L10.4 11.75 10.45 11.6 10.55 11.4 10.8 11.05 M11.5 11.35 L11.5 11.3 M14.25 11.6 L13.65 11.35 13.55 11.35 13.1 11.15 12.95 11.1 M12.6 12.4 L12.35 12.3 12.2 12.2 11.6 11.95 11.55 11.95 11.5 12.0 11.05 12.6 10.4 13.35 10.2 13.6 9.9 14.0 9.75 14.15 9.15 14.9 9.0 14.95 8.75 14.75 8.4 14.45 8.35 14.35 8.3 14.35 8.25 14.25 8.1 14.15 8.05 14.1 7.8 14.5 7.25 15.0 7.1 15.15 7.0 15.2 M11.5 11.35 L11.55 11.75 11.55 11.9 11.55 11.95 M14.25 11.6 L14.3 11.65 14.6 11.8 14.65 11.8 14.7 11.85 14.6 12.0 14.3 12.25 14.15 12.35 13.1 12.6 12.85 12.55 M9.75 9.65 L9.75 9.6 9.8 9.45 M9.75 9.65 L9.85 9.95 M9.25 10.1 L9.45 10.2 9.45 10.35 9.45 10.45 9.45 10.6 9.45 10.65 9.35 10.75 Q9.85 11.3 9.85 12.0 L9.8 12.4 9.2 13.4 8.95 13.6 9.15 13.7 9.15 13.75 M9.8 12.65 L9.8 12.7 9.45 13.2 9.45 13.3 9.2 13.55 9.2 13.6 9.15 13.7 M8.7 10.3 L8.75 10.25 9.1 10.1 9.25 10.1 M8.8 11.4 L8.7 11.5 8.3 11.95 8.25 12.05 8.05 12.2 8.0 12.3 7.75 12.3 M8.45 13.0 L8.55 12.9 Q8.95 12.5 8.95 11.95 L8.8 11.4 9.35 10.75 M8.2 12.95 L8.1 12.4 8.05 12.2 M8.9 13.55 L8.95 13.6 M8.45 13.0 L8.4 13.05 8.2 13.1 8.2 13.25 8.25 13.25 8.3 13.3 8.5 13.35 8.55 13.4 8.75 13.5 8.9 13.55 M7.85 13.35 L8.0 13.3 8.1 13.2 8.2 13.25 M8.2 12.95 L8.2 13.1 M7.85 13.35 L7.9 13.5 M10.25 14.45 L10.2 14.3 10.3 14.25 10.6 14.3 10.7 14.3 10.8 14.15 11.05 13.8 11.7 12.9 12.6 12.4 12.8 12.55 M10.55 15.85 L10.4 15.2 10.25 14.45" fill="none" stroke="#3c2110" stroke-linecap="round" stroke-linejoin="round" stroke-width="0.2"/>
      <path d="M10.75 22.3 L11.05 22.15 11.2 22.1 11.3 22.05 11.5 22.0 M10.65 22.3 L10.75 22.3" fill="none" stroke="#7e6d45" stroke-linecap="round" stroke-linejoin="round" stroke-width="0.2"/>
      <path d="M9.2 9.55 Q11.65 7.25 15.25 7.25 L15.95 7.25 Q9.25 12.5 10.25 21.75 L9.2 20.9 9.05 20.75 Q6.75 18.45 6.75 15.2 6.75 12.0 9.1 9.65 L9.2 9.55" fill="#ffffff" fill-opacity="0.2" fill-rule="evenodd" stroke="none"/>
      <path d="M11.8 10.1 L10.7 11.8 9.5 13.15 Q8.95 13.05 8.85 12.75 L8.85 12.4 Q9.15 10.8 10.6 9.7 11.2 9.2 11.55 9.3 11.95 9.4 11.8 10.1 M9.85 14.75 L9.55 15.25 Q9.2 15.55 8.85 15.5 8.3 15.4 8.2 15.0 L8.25 14.6 Q8.35 13.8 9.15 13.9 10.0 14.0 9.85 14.75" fill="#ffffff" fill-rule="evenodd" stroke="none"/>
    </g>
    <linearGradient gradientTransform="matrix(0.0049, 0.0, 0.0, 0.0065, 25.8, 9.55)" gradientUnits="userSpaceOnUse" id="gradient0" spreadMethod="pad" x1="-819.2" x2="819.2">
      <stop offset="0.0" stop-color="#14737c"/>
      <stop offset="1.0" stop-color="#48f2e0"/>
    </linearGradient>
    <linearGradient gradientTransform="matrix(0.0048, 0.0, 0.0, 0.0067, 26.05, 20.35)" gradientUnits="userSpaceOnUse" id="gradient1" spreadMethod="pad" x1="-819.2" x2="819.2">
      <stop offset="0.0" stop-color="#14737c"/>
      <stop offset="1.0" stop-color="#48f2e0"/>
    </linearGradient>
    <linearGradient gradientTransform="matrix(0.0068, 0.0, 0.0, 0.005, 20.45, 25.9)" gradientUnits="userSpaceOnUse" id="gradient2" spreadMethod="pad" x1="-819.2" x2="819.2">
      <stop offset="0.0" stop-color="#14737c"/>
      <stop offset="1.0" stop-color="#48f2e0"/>
    </linearGradient>
    <linearGradient gradientTransform="matrix(0.0068, 0.0, 0.0, 0.0052, 20.45, 4.2)" gradientUnits="userSpaceOnUse" id="gradient3" spreadMethod="pad" x1="-819.2" x2="819.2">
      <stop offset="0.0" stop-color="#14737c"/>
      <stop offset="1.0" stop-color="#48f2e0"/>
    </linearGradient>
    <linearGradient gradientTransform="matrix(0.0063, 0.0, 0.0, 0.0051, 9.7, 4.15)" gradientUnits="userSpaceOnUse" id="gradient4" spreadMethod="pad" x1="-819.2" x2="819.2">
      <stop offset="0.0" stop-color="#14737c"/>
      <stop offset="1.0" stop-color="#48f2e0"/>
    </linearGradient>
    <linearGradient gradientTransform="matrix(0.0052, 0.0, 0.0, 0.0065, 4.25, 9.55)" gradientUnits="userSpaceOnUse" id="gradient5" spreadMethod="pad" x1="-819.2" x2="819.2">
      <stop offset="0.0" stop-color="#14737c"/>
      <stop offset="1.0" stop-color="#48f2e0"/>
    </linearGradient>
    <linearGradient gradientTransform="matrix(0.005, 0.0, 0.0, 0.0065, 4.05, 20.25)" gradientUnits="userSpaceOnUse" id="gradient6" spreadMethod="pad" x1="-819.2" x2="819.2">
      <stop offset="0.0" stop-color="#14737c"/>
      <stop offset="1.0" stop-color="#48f2e0"/>
    </linearGradient>
  </defs>
</svg>
