<?xml version="1.0" encoding="UTF-8" standalone="no"?>
<svg xmlns:ffdec="https://www.free-decompiler.com/flash" xmlns:xlink="http://www.w3.org/1999/xlink" ffdec:objectType="frame" height="30.0px" width="30.0px" xmlns="http://www.w3.org/2000/svg">
  <g transform="matrix(1.0, 0.0, 0.0, 1.0, 0.0, 0.0)">
    <use ffdec:characterId="1" height="30.0" transform="matrix(1.0, 0.0, 0.0, 1.0, 0.0, 0.0)" width="30.0" xlink:href="#shape0"/>
    <use ffdec:characterId="3" height="29.45" transform="matrix(1.0, 0.0, 0.0, 1.0, 0.3, 0.15)" width="29.45" xlink:href="#sprite0"/>
  </g>
  <defs>
    <g id="shape0" transform="matrix(1.0, 0.0, 0.0, 1.0, 0.0, 0.0)">
      <path d="M0.0 0.0 L30.0 0.0 30.0 30.0 0.0 30.0 0.0 0.0" fill="#33cc66" fill-opacity="0.0" fill-rule="evenodd" stroke="none"/>
    </g>
    <g id="sprite0" transform="matrix(1.0, 0.0, 0.0, 1.0, -0.3, -0.1)">
      <use ffdec:characterId="2" height="29.45" transform="matrix(1.0, 0.0, 0.0, 1.0, 0.3, 0.1)" width="29.45" xlink:href="#shape1"/>
    </g>
    <g id="shape1" transform="matrix(1.0, 0.0, 0.0, 1.0, -0.3, -0.1)">
      <path d="M29.75 14.85 L29.65 14.8 29.75 14.8 29.75 14.85" fill="url(#gradient0)" fill-rule="evenodd" stroke="none"/>
      <path d="M7.9 9.1 L8.05 9.05 7.9 9.15 7.9 9.1 M4.75 25.25 L4.85 25.35 4.75 25.4 4.75 25.25" fill="#4dc4c2" fill-rule="evenodd" stroke="none"/>
      <path d="M15.0 29.4 L15.05 29.45 15.05 29.5 15.0 29.55 15.0 29.4" fill="url(#gradient1)" fill-rule="evenodd" stroke="none"/>
      <path d="M29.75 14.9 L24.6 14.1 Q24.35 11.65 22.9 9.75 L25.85 4.35 25.4 4.85 21.15 8.0 21.05 7.9 Q19.1 6.5 16.55 6.1 L15.05 0.2 19.1 5.15 25.85 4.35 25.1 11.15 29.75 14.8 29.65 14.8 29.75 14.85 29.75 14.9 M15.0 0.1 L13.95 6.0 Q11.7 6.3 9.65 7.6 L4.9 4.35 7.9 9.1 7.9 9.15 Q6.1 11.15 5.75 13.7 L0.6 14.8 0.35 14.8 5.6 15.65 Q5.75 18.6 7.7 20.9 L4.85 25.35 9.45 22.55 Q11.4 24.0 13.9 24.3 L15.0 29.4 15.0 29.55 11.15 25.0 4.75 25.4 4.85 25.35 4.75 25.25 5.25 19.05 0.35 14.8 0.3 14.8 5.35 10.95 4.85 4.35 4.9 4.35 11.05 5.15 15.0 0.1 M15.1 29.45 L16.15 24.3 Q18.85 24.05 21.1 22.4 L25.9 25.5 22.45 21.1 Q24.3 18.9 24.6 16.2 L29.65 14.95 25.1 18.85 25.9 25.5 18.95 25.0 15.1 29.45" fill="#215181" fill-rule="evenodd" stroke="none"/>
      <path d="M15.05 0.2 L16.55 6.1 Q19.1 6.5 21.05 7.9 L21.15 8.0 25.4 4.85 25.85 4.35 22.9 9.75 Q24.35 11.65 24.6 14.1 L29.75 14.9 29.65 14.95 24.6 16.2 Q24.3 18.9 22.45 21.1 L25.9 25.5 21.1 22.4 Q18.85 24.05 16.15 24.3 L15.1 29.45 15.05 29.5 15.05 29.45 15.0 29.4 13.9 24.3 Q11.4 24.0 9.45 22.55 L4.85 25.35 7.7 20.9 Q5.75 18.6 5.6 15.65 L0.35 14.8 0.6 14.8 5.75 13.7 Q6.1 11.15 7.9 9.15 L8.05 9.05 7.9 9.1 4.9 4.35 9.65 7.6 Q11.7 6.3 13.95 6.0 L15.0 0.1 15.05 0.2 M23.5 15.15 Q23.5 11.9 21.1 9.45 18.6 7.15 15.25 7.15 11.7 7.15 9.3 9.45 L9.2 9.6 Q6.85 11.95 6.85 15.15 6.85 18.4 9.15 20.7 L9.3 20.85 Q11.7 23.15 15.25 23.15 18.65 23.15 21.45 20.55 23.5 18.25 23.5 15.15" fill="#4dd0df" fill-rule="evenodd" stroke="none"/>
      <path d="M23.5 15.15 Q23.5 18.25 21.45 20.55 18.65 23.15 15.25 23.15 11.7 23.15 9.3 20.85 L9.15 20.7 Q6.85 18.4 6.85 15.15 6.85 11.95 9.2 9.6 L9.3 9.45 Q11.7 7.15 15.25 7.15 18.6 7.15 21.1 9.45 23.5 11.9 23.5 15.15" fill="#000033" fill-rule="evenodd" stroke="none"/>
      <path d="M22.9 14.2 L23.15 13.7 23.3 13.35 23.45 14.0 23.35 14.0 Q23.1 14.05 23.1 14.25 L23.25 14.5 23.4 14.5 23.5 14.45 23.5 15.0 23.3 15.1 23.0 14.85 22.9 14.25 22.9 14.2 M6.95 16.5 L6.85 15.15 6.85 15.1 6.9 15.0 6.9 14.85 7.0 14.4 7.2 13.75 7.25 13.6 7.5 13.0 7.8 12.5 7.95 12.35 8.25 12.0 8.45 11.8 9.05 11.25 9.25 11.1 9.35 11.05 9.45 11.4 9.2 11.6 9.2 11.55 9.15 11.55 8.9 11.6 8.9 11.7 8.85 11.75 8.75 11.95 8.75 12.0 8.2 12.75 7.85 13.25 8.55 12.15 8.15 12.45 8.15 12.4 7.95 12.4 7.9 12.5 7.95 12.55 8.0 12.65 7.65 13.4 Q7.15 14.5 7.15 15.05 L7.15 15.1 6.95 16.5 M10.05 10.6 L10.45 10.35 10.55 10.3 10.8 10.2 10.85 10.25 10.9 10.45 11.0 10.7 11.0 10.8 10.8 10.8 10.6 10.85 10.55 10.8 10.65 10.6 10.65 10.5 10.55 10.45 10.4 10.45 10.15 10.6 10.05 10.6 M18.7 10.75 L18.8 10.9 18.55 10.95 17.95 10.75 17.85 10.7 17.8 10.65 17.55 10.45 Q17.0 9.9 16.7 9.9 L16.5 9.95 16.8 10.55 16.9 10.65 17.25 10.9 17.3 10.95 17.9 11.7 18.3 12.45 18.5 13.25 18.55 13.7 18.6 14.35 18.75 15.2 18.95 15.65 19.1 15.8 19.0 16.05 19.0 15.85 18.85 15.6 18.6 15.25 18.4 15.2 18.4 15.15 18.3 15.35 17.75 15.7 Q17.1 15.7 16.8 15.1 L16.5 13.75 16.15 12.5 15.75 11.45 Q15.75 11.2 15.9 11.0 L16.3 10.75 16.4 10.75 16.55 10.8 16.55 10.75 16.6 10.65 16.6 10.6 16.5 10.55 16.4 10.45 16.2 10.35 16.2 10.2 16.3 9.85 16.45 9.8 16.55 9.75 Q16.85 9.75 17.4 10.25 L17.9 10.55 18.1 10.65 18.5 10.75 18.7 10.75 M19.15 13.4 L19.45 13.3 20.1 13.15 20.85 13.1 21.15 13.1 21.3 13.1 20.35 13.25 20.2 13.15 20.1 13.2 20.05 13.3 20.1 13.35 19.75 13.45 19.75 13.35 19.6 13.3 19.55 13.4 19.55 13.5 19.6 13.5 19.15 13.75 19.15 13.5 19.15 13.4 M20.9 18.35 L21.25 18.25 Q21.2 18.1 21.3 18.0 L21.4 17.95 21.5 17.9 21.55 17.9 21.85 18.0 21.95 18.2 22.0 18.45 21.9 18.75 21.6 18.95 21.45 18.9 21.4 18.9 21.35 18.8 21.25 18.95 21.1 18.95 20.9 18.9 20.85 18.55 20.9 18.35 M21.25 18.35 L21.2 18.45 21.2 18.55 21.35 18.55 21.45 18.55 21.45 18.5 21.5 18.55 21.55 18.55 21.75 18.45 21.8 18.3 21.8 18.15 21.55 18.0 21.5 18.05 21.4 18.2 21.35 18.25 21.25 18.25 21.25 18.35 M13.45 18.5 L13.9 18.65 14.6 19.0 15.45 19.35 15.45 19.45 15.35 19.8 Q15.35 20.2 15.65 20.45 L16.3 20.65 16.9 20.45 16.95 20.45 17.15 20.65 16.75 21.3 16.4 22.45 15.8 21.35 15.0 20.2 13.45 18.5 M20.25 20.05 L20.3 20.3 20.05 21.15 19.95 21.15 19.8 21.0 19.7 20.85 19.9 20.75 20.1 20.3 20.1 20.15 20.05 20.1 20.05 20.05 20.1 20.1 20.25 20.05 M21.05 19.3 L21.1 19.25 21.2 19.25 21.35 19.3 21.45 19.35 21.6 19.65 21.5 19.85 21.25 19.95 21.2 19.95 21.0 19.85 20.95 19.85 20.85 19.6 20.85 19.55 20.9 19.4 Q21.0 19.3 21.05 19.3 M21.3 19.5 L21.25 19.45 21.1 19.45 21.05 19.5 21.1 19.6 21.2 19.75 21.3 19.65 21.3 19.6 21.35 19.5 21.3 19.5 M11.6 11.3 L11.6 11.15 Q11.6 10.6 11.75 10.35 11.9 10.0 12.35 10.0 L12.55 10.0 Q13.2 10.05 13.65 10.3 L14.1 10.6 14.25 10.7 14.25 10.75 14.65 10.9 15.0 10.75 15.0 10.7 15.15 10.85 15.25 11.0 14.95 11.15 14.8 11.15 14.35 11.0 14.25 10.85 14.0 10.7 13.85 10.75 13.8 10.7 13.6 10.6 13.15 10.45 12.9 10.4 12.15 10.6 12.0 10.75 12.0 10.8 12.05 11.3 12.55 12.0 12.85 12.3 13.6 12.8 14.4 13.35 14.75 13.7 14.8 13.75 14.9 13.95 15.1 14.45 15.3 14.95 15.4 15.25 15.25 14.95 14.3 13.6 12.65 12.3 11.8 11.55 11.6 11.3 M18.4 14.7 L18.4 14.9 18.4 15.15 18.4 14.9 18.4 14.7 18.4 14.65 18.4 14.4 18.4 14.3 18.4 14.2 18.35 13.8 18.1 12.55 17.4 11.5 17.35 11.5 16.95 11.1 16.85 11.05 16.75 10.95 16.55 10.9 Q16.25 10.9 16.1 11.2 L16.0 11.65 16.05 11.95 16.4 12.55 16.95 13.55 17.15 14.55 17.35 15.1 Q17.55 15.35 17.8 15.35 L18.4 14.7 M16.55 10.8 L16.7 10.9 16.75 10.95 16.7 10.9 16.55 10.8 M19.85 19.65 L19.9 19.7 19.85 19.7 19.85 19.65 M17.25 20.55 L17.4 20.4 17.5 20.45 17.45 20.45 17.25 20.55 M16.0 21.2 L16.1 21.5 16.3 21.55 16.5 21.4 16.6 21.15 16.25 20.9 16.1 20.95 16.0 21.1 16.0 21.2" fill="#3295b1" fill-rule="evenodd" stroke="none"/>
      <path d="M20.35 19.75 L20.3 19.85 20.15 19.9 20.0 19.75 20.0 19.65 20.05 19.6 20.1 19.6 20.2 19.6 20.3 19.6 20.35 19.75 M13.6 10.6 L13.8 10.7 13.6 10.9 13.6 10.95 13.6 11.15 Q13.6 11.6 14.05 11.6 L14.35 11.45 14.45 11.15 14.35 11.0 14.8 11.15 15.05 11.35 15.25 11.7 15.4 11.7 15.45 11.75 15.75 12.0 16.0 13.05 16.0 13.2 Q15.85 13.6 15.4 13.6 L15.35 13.6 15.35 13.55 15.3 13.6 14.95 13.45 15.0 13.4 14.8 13.15 Q14.55 12.9 14.65 12.5 L14.6 12.45 14.7 12.15 14.6 12.05 14.55 12.0 14.35 11.85 14.15 11.85 13.75 11.75 13.65 11.65 Q13.3 11.45 13.3 11.15 13.3 10.8 13.6 10.6 M10.55 10.8 L10.35 10.9 10.15 10.8 10.15 10.7 10.15 10.6 10.4 10.45 10.55 10.45 10.65 10.5 10.65 10.6 10.55 10.8 M14.75 11.45 L14.65 11.45 14.6 11.5 14.6 11.6 14.65 11.8 14.8 11.85 14.95 11.75 14.95 11.65 14.85 11.5 14.75 11.45 M15.05 13.0 L15.05 13.05 Q15.15 13.2 15.35 13.2 L15.7 13.05 15.8 12.65 15.5 12.15 15.25 12.1 14.95 12.2 14.9 12.55 14.95 12.85 15.0 12.95 15.05 13.0 M17.1 11.6 L17.0 11.6 16.8 11.65 16.7 11.85 16.9 12.2 17.25 12.35 17.4 12.3 17.55 12.6 17.7 13.05 17.75 13.35 17.8 13.6 17.7 13.85 17.6 14.05 17.65 14.25 17.95 14.3 18.05 13.55 17.55 12.3 17.5 12.2 17.55 12.05 17.35 11.7 17.2 11.6 17.1 11.6 M16.95 11.1 L17.35 11.5 17.4 11.5 18.1 12.55 18.35 13.8 18.4 14.2 18.4 14.3 18.4 14.4 18.05 14.7 17.65 14.4 Q17.5 14.15 17.5 13.8 L17.65 13.6 17.7 13.5 17.55 12.9 17.35 12.6 Q16.45 12.65 16.45 11.75 L16.6 11.35 16.95 11.1 M9.2 11.7 L9.15 11.7 9.05 11.75 8.95 11.75 8.95 11.7 8.9 11.7 8.9 11.6 9.15 11.55 9.2 11.55 9.2 11.6 9.2 11.7 M10.0 11.0 L10.15 11.2 10.05 11.4 10.05 11.45 9.95 11.55 9.85 11.55 9.75 11.55 9.55 11.45 9.55 11.3 9.65 11.05 10.0 11.0 M8.0 12.65 L7.95 12.55 7.9 12.5 7.95 12.4 8.15 12.4 8.15 12.45 8.15 12.6 8.05 12.65 8.0 12.65 M15.95 14.3 L15.95 14.35 15.7 14.35 15.7 14.2 Q15.7 14.0 15.95 14.1 L16.0 14.2 15.95 14.3 M15.75 17.25 L15.75 17.2 15.8 17.25 15.9 17.45 15.85 17.5 15.75 17.55 15.7 17.5 15.65 17.35 15.7 17.3 15.75 17.25 M16.3 17.85 L16.45 17.85 16.5 17.95 16.5 18.0 16.5 18.05 16.4 18.1 16.3 18.0 16.25 17.95 16.25 17.9 16.3 17.85 M13.5 14.4 Q13.5 14.3 13.7 14.3 L13.9 14.5 13.8 14.7 13.7 14.75 13.5 14.65 13.45 14.55 13.5 14.4 M19.25 19.9 L19.25 19.85 19.35 19.8 19.4 19.75 19.45 19.75 19.8 19.8 19.8 19.85 19.95 20.15 19.9 20.15 19.5 20.55 19.25 20.4 19.2 20.35 19.1 20.1 19.1 20.05 19.2 19.9 19.25 19.9 M16.75 20.0 L16.7 20.05 16.7 20.1 16.35 20.3 15.95 20.15 15.65 19.75 15.75 19.45 15.8 19.4 15.85 19.45 15.85 19.35 16.15 19.2 16.5 19.3 16.75 19.55 16.8 19.75 16.75 20.0 M17.0 20.0 L17.05 19.95 17.2 19.95 17.35 20.1 17.35 20.2 17.35 20.3 17.3 20.35 17.05 20.35 17.0 20.3 16.95 20.15 16.95 20.1 17.0 20.0 M16.25 21.05 L16.4 21.2 16.4 21.25 16.25 21.35 16.15 21.3 16.15 21.1 16.2 21.1 16.2 21.05 16.25 21.05" fill="#80e9e6" fill-rule="evenodd" stroke="none"/>
      <path d="M23.45 14.0 L23.5 14.45 23.4 14.5 23.25 14.5 23.1 14.25 Q23.1 14.05 23.35 14.0 L23.45 14.0 M19.8 21.85 L18.65 22.45 18.3 22.3 Q17.85 22.0 17.85 21.45 17.85 20.75 18.35 20.5 L18.75 20.5 18.9 20.5 19.15 20.55 19.35 20.6 19.45 20.65 19.6 20.8 19.75 21.0 19.9 21.2 19.8 21.45 19.5 21.6 19.8 21.8 19.8 21.85 M9.35 11.05 L9.45 10.95 9.75 10.75 10.05 10.6 10.15 10.6 10.15 10.7 10.15 10.8 10.35 10.9 10.55 10.8 10.6 10.85 10.75 11.1 10.55 11.6 10.0 11.8 Q9.75 11.8 9.55 11.6 L9.45 11.4 9.35 11.05 M20.35 13.25 L20.4 13.35 20.35 13.4 20.25 13.45 20.15 13.45 20.1 13.4 20.1 13.35 20.05 13.3 20.1 13.2 20.2 13.15 20.35 13.25 M19.75 13.45 L19.75 13.5 19.65 13.55 19.6 13.5 19.55 13.5 19.55 13.4 19.6 13.3 19.75 13.35 19.75 13.45 M21.35 18.25 L21.4 18.2 21.5 18.05 21.55 18.0 21.8 18.15 21.8 18.3 21.75 18.45 21.55 18.55 21.5 18.55 21.45 18.5 21.45 18.55 21.35 18.55 21.2 18.55 21.2 18.45 21.25 18.35 21.35 18.35 21.35 18.25 M21.3 19.5 L21.35 19.5 21.3 19.6 21.3 19.65 21.2 19.75 21.1 19.6 21.05 19.5 21.1 19.45 21.25 19.45 21.3 19.5 M13.15 10.45 L13.6 10.6 Q13.3 10.8 13.3 11.15 13.3 11.45 13.65 11.65 L13.75 11.75 14.15 11.85 14.35 11.85 14.55 12.0 14.6 12.05 14.7 12.15 14.6 12.45 14.65 12.5 Q14.55 12.9 14.8 13.15 L15.0 13.4 14.95 13.45 15.3 13.6 15.3 13.65 15.35 13.6 15.4 13.6 Q15.85 13.6 16.0 13.2 L16.0 13.05 16.1 13.3 16.2 14.0 15.95 14.8 15.9 14.8 Q15.55 14.8 15.35 14.25 L15.05 13.65 14.55 13.15 14.25 12.6 14.3 12.4 14.35 12.25 14.3 12.2 13.9 12.0 13.8 11.9 13.5 11.8 13.45 11.75 13.35 11.7 Q12.8 11.45 12.8 11.05 L12.9 10.5 13.15 10.45 M14.8 11.15 L14.95 11.15 15.25 11.0 15.4 11.25 15.5 11.4 15.7 11.85 15.75 11.95 15.75 12.0 15.45 11.75 15.4 11.7 15.25 11.7 15.05 11.35 14.8 11.15 M8.75 12.0 L8.75 11.95 8.85 11.75 8.9 11.7 8.95 11.7 8.95 11.75 9.05 11.75 9.15 11.7 9.2 11.7 9.3 11.8 9.2 12.05 9.05 12.15 8.75 12.0 M10.0 11.0 L9.65 11.05 9.55 11.3 9.55 11.45 9.75 11.55 9.85 11.55 9.95 11.55 10.05 11.45 10.05 11.4 10.15 11.2 10.0 11.0 M8.15 12.45 L8.55 12.15 7.85 13.25 7.55 13.9 7.2 15.2 7.15 15.2 7.15 15.1 7.15 15.05 Q7.15 14.5 7.65 13.4 L8.0 12.65 8.05 12.65 8.15 12.6 8.15 12.45 M15.95 14.3 L16.0 14.2 15.95 14.1 Q15.7 14.0 15.7 14.2 L15.7 14.35 15.95 14.35 15.95 14.3 M18.8 20.75 L18.7 20.9 18.85 21.15 19.05 21.2 19.3 21.1 19.45 20.95 19.3 20.7 19.0 20.65 18.9 20.65 18.8 20.75 M18.1 21.4 L18.05 21.6 18.1 21.75 18.35 21.9 18.6 21.75 18.7 21.55 18.65 21.4 18.45 21.25 18.55 21.2 18.6 21.1 18.55 21.0 18.4 21.0 18.35 21.1 18.4 21.2 18.45 21.25 18.3 21.25 18.1 21.4 M16.25 21.05 L16.2 21.05 16.2 21.1 16.15 21.1 16.15 21.3 16.25 21.35 16.4 21.25 16.4 21.2 16.25 21.05 M16.0 21.2 L16.0 21.1 16.1 20.95 16.25 20.9 16.6 21.15 16.5 21.4 16.3 21.55 16.1 21.5 16.0 21.2" fill="#4dd0df" fill-rule="evenodd" stroke="none"/>
      <path d="M22.8 18.6 L21.45 20.55 20.2 21.6 20.05 21.35 20.0 21.25 19.95 21.2 19.95 21.15 20.05 21.15 20.3 20.3 20.25 20.05 20.35 20.05 20.55 19.8 20.45 19.55 20.15 19.4 19.85 19.65 19.5 19.45 19.45 19.45 18.45 19.45 18.0 19.45 17.05 19.55 16.9 19.15 16.3 18.95 15.75 19.05 15.6 19.15 15.55 19.25 15.45 19.35 14.6 19.0 13.9 18.65 13.45 18.5 13.35 18.4 13.0 18.1 12.8 17.95 13.5 17.85 13.65 17.85 14.25 18.0 15.1 18.4 Q16.3 18.95 17.7 18.95 L20.05 18.55 20.9 18.35 20.85 18.55 20.9 18.9 21.1 18.95 21.25 18.95 21.35 18.8 21.4 18.9 21.45 18.9 21.6 18.95 21.9 18.75 22.0 18.45 21.95 18.2 22.7 18.5 22.8 18.6 M6.95 16.6 L6.95 16.5 7.15 15.1 7.15 15.2 7.2 15.2 7.55 13.9 7.85 13.25 8.2 12.75 8.75 12.0 9.05 12.15 9.2 12.05 9.3 11.8 9.2 11.7 9.2 11.6 9.45 11.4 9.55 11.6 Q9.75 11.8 10.0 11.8 L10.55 11.6 10.75 11.1 10.6 10.85 10.8 10.8 10.8 11.15 11.05 12.4 11.35 13.05 11.2 13.05 11.05 13.1 10.1 12.75 10.1 12.8 10.65 13.35 10.3 13.55 9.65 13.65 8.9 13.55 8.35 13.35 Q8.5 14.0 9.1 14.55 L8.7 14.5 Q7.85 14.5 7.3 15.6 L7.0 16.6 6.95 16.6 M21.25 18.35 L21.25 18.25 21.35 18.25 21.35 18.35 21.25 18.35 M21.05 19.3 Q21.0 19.3 20.9 19.4 L20.85 19.55 20.85 19.6 20.95 19.85 21.0 19.85 21.2 19.95 21.25 19.95 21.5 19.85 21.6 19.65 21.45 19.35 21.35 19.3 21.2 19.25 21.1 19.25 21.05 19.3 M15.25 11.0 L15.15 10.85 15.35 10.8 15.8 10.75 16.05 10.75 16.3 10.75 15.9 11.0 Q15.75 11.2 15.75 11.45 L16.15 12.5 16.5 13.75 16.8 15.1 Q17.1 15.7 17.75 15.7 L18.3 15.35 18.4 15.15 18.4 15.2 18.35 15.4 18.25 15.7 18.2 15.8 18.0 15.95 17.7 16.05 Q17.3 16.05 16.85 15.65 L16.65 15.5 16.4 15.2 16.3 15.15 16.25 14.5 16.25 14.4 16.2 14.0 16.1 13.3 16.0 13.05 15.75 12.0 15.75 11.95 15.7 11.85 15.5 11.4 15.4 11.25 15.25 11.0" fill="#1f6992" fill-rule="evenodd" stroke="none"/>
      <path d="M11.35 8.05 L11.45 8.0 11.55 8.05 11.6 8.0 11.7 8.0 11.7 7.9 11.7 7.85 11.85 7.8 11.9 7.9 12.3 8.45 12.45 8.7 13.0 9.25 13.35 9.55 14.0 10.0 14.2 10.1 14.3 10.15 14.55 10.35 14.75 10.5 14.7 10.65 14.5 10.75 14.25 10.6 13.85 10.1 13.15 9.45 11.85 8.35 12.85 9.6 13.55 10.05 14.05 10.5 13.95 10.45 13.7 10.25 13.25 9.9 13.2 9.9 12.7 9.6 12.2 9.15 11.75 8.75 11.35 8.05 M15.05 8.2 L15.05 8.0 Q15.1 7.7 15.3 7.7 L15.9 8.05 16.7 8.45 17.35 9.1 18.15 10.0 18.5 10.45 18.35 10.5 Q18.2 10.5 18.0 10.3 L17.75 10.0 17.8 10.0 17.85 9.9 17.3 9.25 17.1 9.15 17.3 9.35 17.65 9.9 17.45 9.75 16.95 9.25 16.75 9.1 16.25 8.65 Q15.6 8.15 15.4 8.15 L15.05 8.2 M16.65 8.7 L16.7 8.6 16.65 8.5 16.5 8.5 16.45 8.6 16.55 8.75 16.65 8.7" fill="#1f88cc" fill-rule="evenodd" stroke="none"/>
      <path d="M11.45 8.0 L11.7 7.85 11.7 7.9 11.7 8.0 11.6 8.0 11.55 8.05 11.45 8.0 M15.05 8.0 L15.05 7.85 15.05 7.35 15.1 7.2 15.15 7.15 Q15.2 7.05 15.3 7.05 L15.35 7.15 15.8 7.65 16.65 8.4 16.7 8.45 15.9 8.05 15.3 7.7 Q15.1 7.7 15.05 8.0 M14.05 10.5 L13.55 10.05 12.85 9.6 11.85 8.35 13.15 9.45 13.85 10.1 14.25 10.6 14.15 10.55 14.1 10.55 14.05 10.5 M17.65 9.9 L17.3 9.35 17.1 9.15 17.3 9.25 17.85 9.9 17.8 10.0 17.75 10.0 17.65 9.9 M16.65 8.7 L16.55 8.75 16.45 8.6 16.5 8.5 16.65 8.5 16.7 8.6 16.65 8.7" fill="#69e6ef" fill-rule="evenodd" stroke="none"/>
      <path d="M10.8 8.35 Q11.05 8.15 11.35 8.05 L11.75 8.75 12.2 9.15 12.7 9.6 13.2 9.9 13.25 9.9 13.7 10.25 13.95 10.45 13.65 10.25 13.5 10.2 Q12.55 9.6 12.05 9.6 L11.5 9.8 11.3 10.65 11.25 10.6 Q10.9 9.75 10.8 8.35 M15.25 9.1 L15.05 8.2 15.4 8.15 Q15.6 8.15 16.25 8.65 L16.75 9.1 16.95 9.25 17.45 9.75 16.45 9.35 16.4 9.35 16.1 9.45 15.8 9.55 15.35 9.25 15.25 9.1 M21.3 13.1 L21.55 13.3 21.0 13.45 19.9 13.9 19.55 14.1 19.25 14.3 19.2 14.35 19.15 13.75 19.6 13.5 19.65 13.55 19.75 13.5 19.75 13.45 20.1 13.35 20.1 13.4 20.15 13.45 20.25 13.45 20.35 13.4 20.4 13.35 20.35 13.25 21.3 13.1 M15.95 16.45 L16.15 15.9 16.25 15.75 16.85 16.2 Q17.2 16.6 17.65 16.6 L18.2 16.25 18.5 15.95 18.7 16.0 18.85 16.2 19.0 16.75 18.9 17.15 18.75 17.45 18.5 17.65 18.5 17.7 17.9 17.85 17.85 17.85 16.7 17.45 16.05 16.65 15.95 16.45 M16.8 16.85 L16.8 16.95 17.0 17.2 17.85 17.45 18.6 17.2 18.8 16.75 18.8 16.65 18.6 16.75 18.5 16.9 17.85 17.15 17.15 17.0 16.9 16.8 16.8 16.85 M16.6 16.5 L16.65 16.45 16.45 16.2 Q16.2 16.2 16.2 16.4 L16.2 16.55 16.35 16.65 16.45 16.65 16.6 16.5" fill="#1c6aa3" fill-rule="evenodd" stroke="none"/>
      <path d="M10.8 10.15 L10.8 10.1 10.75 9.95 10.65 9.45 10.6 9.25 10.5 8.7 10.45 8.55 10.8 8.35 Q10.9 9.75 11.25 10.6 L10.9 10.35 10.85 10.25 10.8 10.15" fill="#18689b" fill-rule="evenodd" stroke="none"/>
      <path d="M10.8 10.2 L10.8 10.15 10.85 10.25 10.9 10.35 11.25 10.6 11.3 10.65 11.5 9.8 12.05 9.6 Q12.55 9.6 13.5 10.2 L13.65 10.25 13.95 10.45 14.05 10.5 14.1 10.55 14.15 10.55 14.25 10.6 14.5 10.75 14.7 10.65 14.75 10.5 14.8 10.5 14.95 10.65 15.0 10.7 15.0 10.75 14.65 10.9 14.25 10.75 14.25 10.7 14.1 10.6 13.65 10.3 Q13.2 10.05 12.55 10.0 L12.35 10.0 Q11.9 10.0 11.75 10.35 11.6 10.6 11.6 11.15 L11.6 11.3 11.6 11.4 11.6 11.55 11.65 11.8 11.7 12.05 11.75 12.2 11.55 11.95 11.0 10.85 11.0 10.8 11.0 10.7 10.9 10.45 10.85 10.25 10.8 10.2 M15.5 9.8 L15.25 9.1 15.35 9.25 15.8 9.55 16.1 9.45 16.4 9.35 16.45 9.35 17.45 9.75 17.65 9.9 17.75 10.0 18.0 10.3 Q18.2 10.5 18.35 10.5 L18.5 10.45 18.65 10.65 18.7 10.75 18.5 10.75 18.1 10.65 18.05 10.6 17.8 10.4 17.6 10.2 Q17.1 9.7 16.6 9.6 L16.45 9.6 16.4 9.6 Q15.95 9.6 15.95 10.05 L15.95 10.2 15.7 10.05 15.55 10.05 15.55 9.9 15.55 9.8 15.5 9.8" fill="#183857" fill-rule="evenodd" stroke="none"/>
      <path d="M15.45 19.35 L15.55 19.25 15.6 19.15 15.75 19.05 16.3 18.95 16.9 19.15 17.05 19.55 17.05 19.85 17.4 19.95 17.5 20.3 17.5 20.45 17.4 20.4 17.25 20.55 17.15 20.65 16.95 20.45 16.9 20.45 16.3 20.65 15.65 20.45 Q15.35 20.2 15.35 19.8 L15.45 19.45 15.45 19.35 M19.85 19.65 L20.15 19.4 20.45 19.55 20.55 19.8 20.35 20.05 20.25 20.05 20.1 20.1 20.05 20.05 20.05 20.1 20.1 20.15 20.1 20.3 19.9 20.75 19.7 20.85 19.6 20.8 19.45 20.65 19.35 20.6 19.15 20.55 19.0 20.35 19.0 20.15 19.15 19.75 Q19.35 19.6 19.5 19.6 L19.8 19.65 19.85 19.65 19.85 19.7 19.9 19.7 19.85 19.65 M20.35 19.75 L20.3 19.6 20.2 19.6 20.1 19.6 20.05 19.6 20.0 19.65 20.0 19.75 20.15 19.9 20.3 19.85 20.35 19.75 M15.4 15.25 L15.3 14.95 15.1 14.45 14.9 13.95 14.8 13.75 14.75 13.7 14.4 13.35 13.6 12.8 12.85 12.3 12.55 12.0 12.05 11.3 12.0 10.8 12.0 10.75 12.15 10.6 12.9 10.4 13.15 10.45 12.9 10.5 12.8 11.05 Q12.8 11.45 13.35 11.7 L13.45 11.75 13.5 11.8 13.9 12.0 14.3 12.2 14.35 12.25 14.3 12.4 14.25 12.6 14.55 13.15 15.05 13.65 15.35 14.25 Q15.55 14.8 15.9 14.8 L15.95 14.8 16.2 14.0 16.25 14.4 16.25 14.5 16.3 15.15 16.4 15.2 16.2 15.2 15.75 15.55 15.7 15.8 15.7 15.85 15.65 15.9 15.45 15.35 15.45 15.3 15.4 15.25 M19.1 15.8 L18.95 15.65 18.75 15.2 18.6 14.35 18.55 13.7 18.5 13.25 18.3 12.45 17.9 11.7 17.3 10.95 17.25 10.9 16.9 10.65 16.8 10.55 16.5 9.95 16.7 9.9 Q17.0 9.9 17.55 10.45 L17.8 10.65 17.85 10.7 17.7 10.65 17.7 10.7 17.65 10.85 18.05 11.4 18.45 11.9 18.65 12.35 18.85 13.55 Q18.9 14.25 19.1 14.5 L19.2 14.45 19.2 14.65 19.15 15.15 19.1 15.8 M18.4 14.7 L17.8 15.35 Q17.55 15.35 17.35 15.1 L17.15 14.55 16.95 13.55 16.4 12.55 16.05 11.95 16.0 11.65 16.1 11.2 Q16.25 10.9 16.55 10.9 L16.75 10.95 16.85 11.05 16.95 11.1 16.6 11.35 16.45 11.75 Q16.45 12.65 17.35 12.6 L17.55 12.9 17.7 13.5 17.65 13.6 17.5 13.8 Q17.5 14.15 17.65 14.4 L18.05 14.7 18.4 14.4 18.4 14.65 18.4 14.7 M14.95 12.85 L15.05 13.0 15.0 12.95 14.95 12.85 M16.6 16.5 L16.45 16.65 16.35 16.65 16.2 16.55 16.2 16.4 Q16.2 16.2 16.45 16.2 L16.65 16.45 16.6 16.5 M16.8 16.85 L16.9 16.8 17.15 17.0 17.85 17.15 18.5 16.9 18.6 16.75 18.8 16.65 18.8 16.75 18.6 17.2 17.85 17.45 17.0 17.2 16.8 16.95 16.8 16.85 M15.8 17.25 L15.85 17.25 15.9 17.35 15.9 17.4 15.9 17.45 15.8 17.25 M15.7 17.5 L15.65 17.45 15.6 17.45 15.6 17.35 15.65 17.25 15.75 17.25 15.7 17.3 15.65 17.35 15.7 17.5 M19.25 19.9 L19.2 19.9 19.1 20.05 19.1 20.1 19.2 20.35 19.25 20.4 19.5 20.55 19.9 20.15 19.95 20.15 19.8 19.85 19.8 19.8 19.45 19.75 19.4 19.75 19.35 19.8 19.25 19.85 19.25 19.9 M16.75 20.0 L16.8 19.75 16.75 19.55 16.5 19.3 16.15 19.2 15.85 19.35 15.85 19.45 15.8 19.4 15.75 19.45 15.65 19.75 15.95 20.15 16.35 20.3 16.7 20.1 16.7 20.05 16.75 20.0 M17.0 20.0 L16.95 20.1 16.95 20.15 17.0 20.3 17.05 20.35 17.3 20.35 17.35 20.3 17.35 20.2 17.35 20.1 17.2 19.95 17.05 19.95 17.0 20.0" fill="#45b8d4" fill-rule="evenodd" stroke="none"/>
      <path d="M23.3 17.2 L22.8 18.6 22.7 18.5 21.95 18.2 21.85 18.0 21.55 17.9 21.5 17.9 21.4 17.95 21.3 18.0 Q21.2 18.1 21.25 18.25 L20.9 18.35 20.05 18.55 17.7 18.95 Q16.3 18.95 15.1 18.4 L14.25 18.0 13.65 17.85 13.5 17.85 12.8 17.95 Q12.0 17.35 11.5 17.4 10.8 17.45 10.2 18.4 9.6 19.3 9.7 20.2 L10.05 21.25 10.35 21.7 10.15 21.55 8.8 19.85 Q8.05 18.6 8.05 17.55 L8.15 16.95 8.1 16.95 Q7.8 17.25 7.65 17.7 L7.5 18.35 7.0 16.65 7.0 16.6 7.3 15.6 Q7.85 14.5 8.7 14.5 L9.1 14.55 Q8.5 14.0 8.35 13.35 L8.9 13.55 9.65 13.65 10.3 13.55 10.65 13.35 10.1 12.8 10.1 12.75 11.05 13.1 11.2 13.05 11.35 13.05 11.05 12.4 10.8 11.15 10.8 10.8 11.0 10.8 11.0 10.85 11.55 11.95 11.75 12.2 12.35 12.85 12.7 13.15 14.3 14.0 14.45 14.2 14.5 14.25 14.25 14.35 14.1 14.4 14.05 14.7 14.0 14.9 14.1 15.15 14.25 15.45 14.3 15.5 14.6 15.9 14.8 15.9 15.5 15.95 15.55 15.95 15.6 16.25 15.75 16.55 15.4 16.55 14.45 16.25 14.0 15.55 13.7 14.75 13.8 14.7 13.9 14.5 13.7 14.3 Q13.5 14.3 13.5 14.4 L12.65 13.9 12.55 13.9 12.5 13.85 12.2 13.75 11.8 13.55 11.75 13.55 11.9 13.75 12.0 13.95 11.5 14.05 10.95 14.15 11.3 14.3 11.7 14.45 11.0 14.9 10.1 15.05 Q10.55 15.65 11.8 15.75 L12.8 15.8 12.85 15.8 13.65 16.5 14.65 17.45 Q15.85 18.55 17.2 18.55 L18.4 18.3 19.0 17.8 21.15 17.35 21.95 17.05 22.65 16.9 Q23.0 16.9 23.3 17.2" fill="#215181" fill-rule="evenodd" stroke="none"/>
      <path d="M11.65 11.8 L11.6 11.55 11.6 11.4 11.6 11.3 11.8 11.55 12.65 12.3 14.3 13.6 15.25 14.95 15.4 15.25 15.45 15.3 15.45 15.35 15.65 15.9 15.65 16.0 15.6 16.25 15.55 15.95 15.45 15.75 15.2 15.35 15.15 15.25 14.95 14.9 14.85 14.8 14.7 14.55 14.6 14.35 14.5 14.25 14.45 14.2 14.3 14.0 14.0 13.75 13.95 13.65 13.55 13.3 13.4 13.2 12.65 12.75 11.65 11.8 M15.95 10.2 L15.95 10.05 Q15.95 9.6 16.4 9.6 L16.45 9.6 16.6 9.6 Q17.1 9.7 17.6 10.2 L17.8 10.4 18.05 10.6 18.1 10.65 17.9 10.55 17.4 10.25 Q16.85 9.75 16.55 9.75 L16.45 9.8 16.3 9.85 16.2 10.2 16.2 10.35 15.95 10.2" fill="#a4adec" fill-rule="evenodd" stroke="none"/>
      <path d="M17.65 22.8 L17.8 22.9 17.5 22.9 17.5 23.0 17.35 22.9 17.3 22.85 17.2 22.7 17.2 22.65 17.15 22.65 17.15 22.6 16.95 21.8 16.95 21.75 17.1 21.25 17.15 21.25 17.15 21.65 Q17.15 22.35 17.6 22.75 L17.65 22.8 M23.6 17.75 L23.7 17.75 23.7 17.8 23.6 17.8 23.6 17.75 M11.65 11.8 L12.65 12.75 13.4 13.2 13.55 13.3 13.95 13.65 14.0 13.75 14.3 14.0 12.7 13.15 12.35 12.85 11.75 12.2 11.7 12.05 11.65 11.8" fill="#7ee2a2" fill-rule="evenodd" stroke="none"/>
      <path d="M13.0 9.25 L13.8 9.2 13.9 9.2 14.2 9.35 14.45 9.45 14.9 9.5 14.95 9.5 15.5 9.8 15.55 9.8 15.55 9.9 15.2 9.85 15.2 9.8 15.1 9.7 Q14.9 9.7 14.9 9.8 L14.9 9.85 14.8 9.85 14.8 9.8 14.75 9.75 14.7 9.75 14.6 9.8 14.6 9.85 14.35 9.9 14.0 10.0 13.35 9.55 13.0 9.25 M14.75 10.5 L14.55 10.35 14.3 10.15 14.7 10.1 15.55 10.05 15.7 10.05 15.95 10.2 16.2 10.35 16.4 10.45 16.5 10.55 16.45 10.55 16.35 10.55 16.25 10.55 16.25 10.5 16.2 10.4 16.15 10.4 16.1 10.5 16.1 10.55 16.0 10.55 15.35 10.55 14.95 10.65 14.8 10.5 14.75 10.5 M14.45 9.45 L14.2 9.45 13.55 9.5 13.35 9.55 13.55 9.5 14.2 9.45 14.45 9.45" fill="#c48e3e" fill-rule="evenodd" stroke="none"/>
      <path d="M14.8 9.85 L14.75 9.85 14.7 9.9 14.65 9.85 14.6 9.85 14.6 9.8 14.7 9.75 14.75 9.75 14.8 9.8 14.8 9.85 M14.9 9.85 L14.9 9.8 Q14.9 9.7 15.1 9.7 L15.2 9.8 15.2 9.85 15.05 9.9 14.9 9.85 M16.25 10.55 L16.15 10.6 16.1 10.6 16.1 10.55 16.1 10.5 16.15 10.4 16.2 10.4 16.25 10.5 16.25 10.55" fill="#f5eecd" fill-rule="evenodd" stroke="none"/>
      <path d="M14.3 10.15 L14.2 10.1 14.0 10.0 14.35 9.9 14.6 9.85 14.65 9.85 14.7 9.9 14.75 9.85 14.8 9.85 14.9 9.85 15.05 9.9 15.2 9.85 15.55 9.9 15.55 10.05 14.7 10.1 14.3 10.15 M15.0 10.7 L14.95 10.65 15.35 10.55 16.0 10.55 16.1 10.55 16.1 10.6 16.15 10.6 16.25 10.55 16.35 10.55 16.45 10.55 16.5 10.55 16.6 10.6 16.6 10.65 16.55 10.75 16.55 10.8 16.4 10.75 16.3 10.75 16.05 10.75 15.8 10.75 15.35 10.8 15.15 10.85 15.0 10.7" fill="#ede0a3" fill-rule="evenodd" stroke="none"/>
      <path d="M13.85 10.75 L14.0 10.7 14.25 10.85 14.35 11.0 14.45 11.15 14.35 11.45 14.05 11.6 Q13.6 11.6 13.6 11.15 L13.6 10.95 13.75 10.8 13.85 10.75 M14.75 11.45 L14.85 11.5 14.95 11.65 14.95 11.75 14.8 11.85 14.65 11.8 14.6 11.6 14.6 11.5 14.65 11.45 14.75 11.45 M14.95 12.85 L14.9 12.55 14.95 12.2 15.25 12.1 15.5 12.15 15.8 12.65 15.7 13.05 15.35 13.2 Q15.15 13.2 15.05 13.05 L15.05 13.0 14.95 12.85 M17.1 11.6 L17.2 11.6 17.35 11.7 17.55 12.05 17.5 12.2 17.55 12.3 18.05 13.55 17.95 14.3 17.65 14.25 17.6 14.05 17.7 13.85 17.8 13.6 17.75 13.35 17.7 13.05 17.55 12.6 17.4 12.3 17.25 12.35 16.9 12.2 16.7 11.85 16.8 11.65 17.0 11.6 17.1 11.6" fill="#d6f9fc" fill-rule="evenodd" stroke="none"/>
      <path d="M18.8 10.9 L18.95 11.25 19.1 12.2 19.1 12.5 19.1 12.6 19.15 13.4 19.15 13.5 19.15 13.75 19.2 14.35 19.2 14.45 19.1 14.5 Q18.9 14.25 18.85 13.55 L18.65 12.35 18.45 11.9 18.05 11.4 17.65 10.85 17.7 10.7 17.7 10.65 17.85 10.7 17.95 10.75 18.55 10.95 18.8 10.9 M13.8 10.7 L13.85 10.75 13.75 10.8 13.6 10.95 13.6 10.9 13.8 10.7 M13.5 11.8 L13.8 11.9 13.9 12.0 13.5 11.8 M15.35 13.6 L15.3 13.65 15.3 13.6 15.35 13.55 15.35 13.6" fill="#6be4f0" fill-rule="evenodd" stroke="none"/>
      <path d="M23.5 15.0 L23.5 15.15 23.5 15.65 23.05 15.75 22.7 15.6 22.65 15.45 22.8 14.6 22.9 14.2 22.9 14.25 23.0 14.85 23.3 15.1 23.5 15.0 M18.15 22.65 L17.65 22.8 17.6 22.75 Q17.15 22.35 17.15 21.65 L17.15 21.25 17.1 21.25 16.95 21.75 16.95 21.8 17.15 22.6 17.15 22.65 17.2 22.65 17.2 22.7 17.3 22.85 17.35 22.9 16.8 23.0 16.7 22.9 16.6 22.7 16.45 22.55 16.4 22.45 16.75 21.3 17.15 20.65 17.25 20.55 17.45 20.45 17.5 20.45 17.75 20.4 17.95 20.4 18.05 20.4 17.65 20.6 17.5 20.95 17.35 21.35 Q17.35 21.85 17.8 22.35 L18.15 22.65 M7.0 16.65 L6.95 16.8 6.95 16.6 7.0 16.6 7.0 16.65 M22.55 16.3 L22.6 16.15 22.8 16.1 22.9 16.05 22.6 16.25 22.55 16.3 M17.5 20.95 Q17.25 20.95 17.2 21.05 L17.2 21.1 17.1 21.2 17.1 21.25 17.1 21.2 17.2 21.1 17.2 21.05 Q17.25 20.95 17.5 20.95" fill="#286ca4" fill-rule="evenodd" stroke="none"/>
      <path d="M23.5 15.65 L23.3 17.2 Q23.0 16.9 22.65 16.9 L21.95 17.05 21.15 17.35 19.0 17.8 18.4 18.3 17.2 18.55 Q15.85 18.55 14.65 17.45 L13.65 16.5 12.85 15.8 12.8 15.8 11.8 15.75 Q10.55 15.65 10.1 15.05 L11.0 14.9 11.7 14.45 11.3 14.3 10.95 14.15 11.5 14.05 12.0 13.95 11.9 13.75 11.75 13.55 11.8 13.55 12.2 13.75 12.5 13.85 12.55 13.9 13.05 14.35 13.2 14.45 13.4 14.65 13.75 15.75 13.85 16.0 13.9 16.15 14.0 16.35 15.0 17.25 15.55 17.55 16.05 17.9 16.1 17.95 16.2 18.05 16.45 18.15 16.85 18.25 17.75 18.3 18.1 18.15 18.35 17.9 18.45 17.85 18.65 17.75 18.7 17.7 18.75 17.65 18.85 17.45 19.0 17.1 19.0 17.0 19.35 17.05 19.85 17.05 20.0 17.05 20.6 17.0 21.15 16.95 21.6 16.8 21.95 16.65 22.15 16.5 22.25 16.45 22.45 16.35 22.55 16.3 22.6 16.25 22.9 16.05 22.8 16.1 22.6 16.15 22.6 16.05 22.65 15.5 22.65 15.45 22.7 15.6 23.05 15.75 23.5 15.65 M10.35 21.75 L9.3 20.85 9.15 20.7 Q8.05 19.6 7.5 18.35 L7.65 17.7 Q7.8 17.25 8.1 16.95 L8.15 16.95 8.05 17.55 Q8.05 18.6 8.8 19.85 L10.15 21.55 10.35 21.7 10.35 21.75 M8.55 20.75 L8.55 20.7 8.6 20.75 8.55 20.75 M18.4 15.2 L18.6 15.25 18.85 15.6 19.0 15.85 19.0 16.05 19.0 16.15 19.0 16.25 19.0 16.75 18.85 16.2 18.7 16.0 18.5 15.95 18.2 16.25 17.65 16.6 Q17.2 16.6 16.85 16.2 L16.25 15.75 16.15 15.9 15.95 16.45 15.8 16.1 15.7 15.8 15.75 15.55 16.2 15.2 16.4 15.2 16.65 15.5 16.85 15.65 Q17.3 16.05 17.7 16.05 L18.0 15.95 18.2 15.8 18.25 15.7 18.35 15.4 18.4 15.2 M12.25 14.95 L12.3 14.7 12.5 14.45 12.75 14.4 13.05 14.35 12.75 14.4 12.5 14.45 12.3 14.7 12.25 14.95" fill="#1f447c" fill-rule="evenodd" stroke="none"/>
      <path d="M20.05 21.7 L19.8 21.85 19.8 21.8 19.5 21.6 19.8 21.45 19.9 21.2 19.75 21.0 19.6 20.8 19.7 20.85 19.8 21.0 19.9 21.15 19.95 21.2 19.95 21.25 20.0 21.35 20.05 21.5 20.05 21.7 M18.65 22.45 L18.15 22.65 17.8 22.35 Q17.35 21.85 17.35 21.35 L17.5 20.95 17.65 20.6 18.05 20.4 17.95 20.4 17.75 20.4 17.5 20.45 17.5 20.3 17.4 19.95 17.05 19.85 17.05 19.55 18.0 19.45 18.45 19.45 19.45 19.45 19.5 19.45 19.85 19.65 19.8 19.65 19.5 19.6 Q19.35 19.6 19.15 19.75 L19.0 20.15 19.0 20.35 19.15 20.55 18.9 20.5 18.75 20.5 18.35 20.5 Q17.85 20.75 17.85 21.45 17.85 22.0 18.3 22.3 L18.65 22.45" fill="#3482a1" fill-rule="evenodd" stroke="none"/>
      <path d="M14.85 14.8 L14.95 14.9 14.6 15.05 14.3 15.5 14.25 15.45 Q14.25 15.15 14.4 15.0 14.6 14.75 14.85 14.8" fill="#103652" fill-rule="evenodd" stroke="none"/>
      <path d="M16.1 23.1 L15.25 23.15 Q12.75 23.15 10.85 22.05 L10.35 21.75 10.35 21.7 10.05 21.25 9.7 20.2 Q9.6 19.3 10.2 18.4 10.8 17.45 11.5 17.4 12.0 17.35 12.8 17.95 L13.0 18.1 13.35 18.4 13.45 18.5 13.4 18.5 13.0 18.6 12.65 18.95 Q12.2 19.4 12.2 19.9 L12.2 19.95 Q12.2 21.2 13.0 21.95 13.9 22.75 15.5 22.75 L16.35 22.75 16.25 22.9 16.1 23.1 M21.0 13.45 Q20.7 13.8 20.55 14.35 L20.5 14.7 20.45 15.05 20.25 15.15 20.15 15.45 Q20.15 15.75 20.5 15.75 L20.45 16.2 20.45 16.4 20.5 16.7 20.4 16.85 20.6 17.0 20.0 17.05 19.85 17.05 19.95 16.75 19.95 16.6 20.0 16.6 20.1 16.4 20.1 16.3 19.85 16.1 19.75 15.7 19.85 15.2 19.95 14.75 19.9 14.5 19.65 14.45 Q19.4 14.45 19.2 14.65 L19.2 14.45 19.2 14.35 19.25 14.3 19.55 14.1 19.9 13.9 21.0 13.45" fill="#b798ef" fill-rule="evenodd" stroke="none"/>
      <path d="M19.0 16.05 L19.1 15.8 19.15 15.15 19.2 14.65 Q19.4 14.45 19.65 14.45 L19.9 14.5 19.95 14.75 19.85 15.2 19.75 15.7 19.85 16.1 20.1 16.3 20.1 16.4 20.0 16.6 19.95 16.6 19.95 16.75 19.85 17.05 19.35 17.05 19.0 17.0 19.05 16.3 19.0 16.15 19.0 16.05 M16.35 22.75 L15.5 22.75 Q13.9 22.75 13.0 21.95 12.2 21.2 12.2 19.95 L12.2 19.9 Q12.2 19.4 12.65 18.95 L13.0 18.6 13.4 18.5 13.45 18.5 15.0 20.2 15.8 21.35 16.4 22.45 16.4 22.6 16.35 22.75" fill="#dbd5fa" fill-rule="evenodd" stroke="none"/>
      <path d="M15.6 16.25 L15.65 16.0 15.65 15.9 15.7 15.85 15.7 15.8 15.8 16.1 15.95 16.45 16.05 16.65 16.7 17.45 17.85 17.85 17.9 17.85 18.5 17.7 18.5 17.65 18.75 17.45 18.9 17.15 19.0 16.75 19.0 16.25 19.0 16.15 19.05 16.3 19.0 17.0 19.0 17.1 18.85 17.45 18.75 17.65 18.7 17.7 18.65 17.75 18.45 17.85 18.35 17.9 18.1 17.95 18.1 18.0 17.8 18.0 17.45 17.95 16.7 17.65 16.15 17.2 15.9 16.8 15.85 16.7 15.75 16.55 15.6 16.25" fill="#65c5e2" fill-rule="evenodd" stroke="none"/>
      <path d="M17.8 18.0 L18.1 18.0 18.1 17.95 18.35 17.9 18.1 18.15 17.75 18.3 16.85 18.25 16.45 18.15 16.2 18.05 16.1 17.95 16.05 17.9 15.55 17.55 15.0 17.25 14.0 16.35 13.9 16.15 13.85 16.0 13.75 15.75 13.4 14.65 13.2 14.45 13.05 14.35 12.55 13.9 12.65 13.9 13.5 14.4 13.45 14.55 13.5 14.65 13.7 14.75 14.0 15.55 14.0 15.65 Q14.1 16.25 14.7 16.75 15.3 17.25 15.7 17.2 L15.75 17.25 15.65 17.25 15.6 17.35 15.6 17.45 15.65 17.45 15.7 17.5 15.75 17.55 15.85 17.5 15.9 17.45 15.9 17.4 16.2 17.75 16.3 17.85 16.25 17.9 16.25 17.95 16.3 18.0 16.4 18.1 16.5 18.05 16.5 18.0 17.25 18.15 17.7 18.1 17.8 18.0" fill="#20c8cc" fill-rule="evenodd" stroke="none"/>
      <path d="M15.75 16.55 L15.85 16.7 15.9 16.8 16.15 17.2 16.7 17.65 17.45 17.95 17.8 18.0 17.7 18.1 17.25 18.15 16.5 18.0 16.5 17.95 16.45 17.85 16.3 17.85 16.2 17.75 15.9 17.4 15.9 17.35 15.85 17.25 15.8 17.25 15.75 17.2 15.75 17.25 15.7 17.2 Q15.3 17.25 14.7 16.75 14.1 16.25 14.0 15.65 L14.0 15.55 14.45 16.25 15.4 16.55 15.75 16.55" fill="#228eaa" fill-rule="evenodd" stroke="none"/>
      <path d="M18.8 20.75 L18.9 20.65 19.0 20.65 19.3 20.7 19.45 20.95 19.3 21.1 19.05 21.2 18.85 21.15 18.7 20.9 18.8 20.75 M18.1 21.4 L18.3 21.25 18.45 21.25 18.4 21.2 18.35 21.1 18.4 21.0 18.55 21.0 18.6 21.1 18.55 21.2 18.45 21.25 18.65 21.4 18.7 21.55 18.6 21.75 18.35 21.9 18.1 21.75 18.05 21.6 18.1 21.4" fill="#78ebf0" fill-rule="evenodd" stroke="none"/>
      <path d="M20.2 21.6 L20.05 21.7 20.05 21.5 20.0 21.35 19.95 21.25 19.95 21.2 20.0 21.25 20.05 21.35 20.2 21.6 M19.95 21.15 L19.95 21.2 19.9 21.15 19.8 21.0 19.95 21.15" fill="#37a1d0" fill-rule="evenodd" stroke="none"/>
      <path d="M16.8 23.0 L16.1 23.1 16.25 22.9 16.35 22.75 16.4 22.6 16.4 22.45 16.45 22.55 16.6 22.7 16.7 22.9 16.8 23.0" fill="#826ae1" fill-rule="evenodd" stroke="none"/>
      <path d="M14.7 14.55 L14.85 14.8 Q14.6 14.75 14.4 15.0 14.25 15.15 14.25 15.45 L14.1 15.15 14.1 15.0 14.15 14.65 Q14.25 14.5 14.5 14.5 L14.7 14.55 M14.95 14.9 L15.15 15.25 15.2 15.35 15.15 15.65 14.8 15.9 14.6 15.9 14.3 15.5 14.6 15.05 14.95 14.9 M15.05 15.45 L15.05 15.3 14.85 15.05 Q14.6 15.0 14.6 15.35 L14.75 15.6 14.9 15.6 15.05 15.45" fill="#ffe340" fill-rule="evenodd" stroke="none"/>
      <path d="M14.5 14.25 L14.6 14.35 14.7 14.55 14.5 14.5 Q14.25 14.5 14.15 14.65 L14.1 15.0 14.1 15.15 14.0 14.9 14.05 14.7 14.1 14.4 14.25 14.35 14.5 14.25 M15.2 15.35 L15.45 15.75 15.55 15.95 15.5 15.95 14.8 15.9 15.15 15.65 15.2 15.35" fill="#0a3c57" fill-rule="evenodd" stroke="none"/>
      <path d="M15.05 15.45 L14.9 15.6 14.75 15.6 14.6 15.35 Q14.6 15.0 14.85 15.05 L15.05 15.3 15.05 15.45" fill="#f8fbfe" fill-rule="evenodd" stroke="none"/>
      <path d="M22.9 14.2 L23.15 13.7 23.3 13.35 M6.85 15.1 L6.9 15.0 6.9 14.85 7.0 14.4 7.2 13.75 7.25 13.6 7.5 13.0 7.8 12.5 7.95 12.35 8.25 12.0 8.45 11.8 9.05 11.25 9.25 11.1 9.35 11.05 9.45 10.95 9.75 10.75 10.05 10.6 10.45 10.35 10.55 10.3 10.8 10.2 10.8 10.15 10.8 10.1 10.75 9.95 10.65 9.45 10.6 9.25 10.5 8.7 10.45 8.55 M11.85 7.8 L11.9 7.9 12.3 8.45 12.45 8.7 13.0 9.25 13.8 9.2 13.9 9.2 14.2 9.35 14.45 9.45 14.9 9.5 14.95 9.5 15.5 9.8 15.25 9.1 15.05 8.2 15.05 8.0 15.05 7.85 15.05 7.35 15.1 7.2 15.15 7.15 Q15.2 7.05 15.3 7.05 L15.35 7.15 15.8 7.65 16.65 8.4 16.7 8.45 17.35 9.1 18.15 10.0 18.5 10.45 18.65 10.65 18.7 10.75 18.8 10.9 18.95 11.25 19.1 12.2 19.1 12.5 19.1 12.6 19.15 13.4 19.45 13.3 20.1 13.15 20.85 13.1 21.15 13.1 21.3 13.1 21.55 13.3 21.0 13.45 Q20.7 13.8 20.55 14.35 L20.5 14.7 20.45 15.05 20.25 15.15 20.15 15.45 Q20.15 15.75 20.5 15.75 L20.45 16.2 20.45 16.4 20.5 16.7 M20.4 16.85 L20.6 17.0 21.15 16.95 21.6 16.8 21.95 16.65 22.15 16.5 22.25 16.45 22.45 16.35 22.55 16.3 22.6 16.15 22.6 16.05 22.65 15.5 22.65 15.45 22.8 14.6 22.9 14.2 M19.15 13.75 L19.2 14.35 19.25 14.3 19.55 14.1 19.9 13.9 21.0 13.45 M22.9 16.05 L22.6 16.25 22.55 16.3 M11.0 10.8 L11.0 10.7 10.9 10.45 10.85 10.25 10.8 10.2 M13.55 13.3 L13.95 13.65 M14.0 13.75 L14.3 14.0 14.45 14.2 14.5 14.25 14.6 14.35 14.7 14.55 14.85 14.8 14.95 14.9 15.15 15.25 15.2 15.35 15.45 15.75 15.55 15.95 15.6 16.25 15.65 16.0 15.65 15.9 15.7 15.85 15.7 15.8 15.75 15.55 16.2 15.2 16.4 15.2 16.65 15.5 16.85 15.65 Q17.3 16.05 17.7 16.05 L18.0 15.95 18.2 15.8 18.25 15.7 18.35 15.4 18.4 15.2 18.6 15.25 18.85 15.6 19.0 15.85 19.0 16.05 19.1 15.8 19.15 15.15 19.2 14.65 19.2 14.45 19.2 14.35 M11.75 12.2 L12.35 12.85 12.7 13.15 14.3 14.0 M11.75 12.2 L11.55 11.95 11.0 10.85 11.0 10.8 M19.15 13.75 L19.15 13.5 19.15 13.4 M18.4 15.15 L18.4 15.2 M19.0 16.15 L19.0 16.05 M19.85 17.05 L20.0 17.05 20.6 17.0 M16.3 15.15 L16.4 15.2 M15.55 15.95 L15.5 15.95 14.8 15.9 14.6 15.9 14.3 15.5 14.25 15.45 14.1 15.15 14.0 14.9 14.05 14.7 14.1 14.4 14.25 14.35 14.5 14.25 M15.6 16.25 L15.75 16.55 15.85 16.7 15.9 16.8 16.15 17.2 16.7 17.65 17.45 17.95 17.8 18.0 18.1 18.0 18.1 17.95 18.35 17.9 18.45 17.85 18.65 17.75 18.7 17.7 18.75 17.65 18.85 17.45 19.0 17.1 19.0 17.0 19.05 16.3 19.0 16.15 M18.35 17.9 L18.1 18.15 17.75 18.3 16.85 18.25 16.45 18.15 16.2 18.05 16.1 17.95 16.05 17.9 15.55 17.55 15.0 17.25 14.0 16.35 13.9 16.15 13.85 16.0 13.75 15.75 13.4 14.65 13.2 14.45 13.05 14.35 12.75 14.4 12.5 14.45 12.3 14.7 12.25 14.95 M19.0 17.0 L19.35 17.05 19.85 17.05 M12.55 13.9 L13.05 14.35 M14.1 15.15 L14.1 15.0 14.15 14.65 Q14.25 14.5 14.5 14.5 L14.7 14.55 M12.5 13.85 L12.55 13.9 M14.8 15.9 L15.15 15.65 15.2 15.35" fill="none" stroke="#0e1e38" stroke-linecap="round" stroke-linejoin="round" stroke-width="0.1"/>
      <path d="M20.5 16.7 L20.4 16.85 M19.95 21.15 L19.95 21.2 20.0 21.25 20.05 21.35 20.2 21.6 M14.75 10.5 L14.55 10.35 14.3 10.15 14.2 10.1 14.0 10.0 13.35 9.55 13.0 9.25 M11.6 11.3 L11.6 11.15 Q11.6 10.6 11.75 10.35 11.9 10.0 12.35 10.0 L12.55 10.0 Q13.2 10.05 13.65 10.3 L14.1 10.6 14.25 10.7 14.25 10.75 14.65 10.9 15.0 10.75 15.0 10.7 14.95 10.65 14.8 10.5 14.75 10.5 M15.15 10.85 L15.0 10.7 M11.6 11.3 L11.6 11.4 11.6 11.55 11.65 11.8 11.7 12.05 11.75 12.2 M15.55 9.9 L15.55 9.8 15.5 9.8 M15.55 10.05 L15.55 9.9 M18.1 10.65 L18.05 10.6 17.8 10.4 17.6 10.2 Q17.1 9.7 16.6 9.6 L16.45 9.6 16.4 9.6 Q15.95 9.6 15.95 10.05 L15.95 10.2 M18.1 10.65 L18.5 10.75 18.7 10.75 M18.75 20.5 L18.9 20.5 19.15 20.55 19.35 20.6 19.45 20.65 19.6 20.8 19.7 20.85 19.8 21.0 19.95 21.15 M17.1 21.25 L17.1 21.2 17.2 21.1 17.2 21.05 Q17.25 20.95 17.5 20.95 M17.1 21.25 L16.95 21.75 16.95 21.8 17.15 22.6 17.15 22.65 17.2 22.65 17.2 22.7 17.3 22.85 17.35 22.9" fill="none" stroke="#000033" stroke-linecap="round" stroke-linejoin="round" stroke-width="0.1"/>
      <path d="M13.35 9.55 L13.55 9.5 14.2 9.45 14.45 9.45 M14.3 10.15 L14.7 10.1 15.55 10.05 15.7 10.05 15.95 10.2 16.2 10.35 16.4 10.45 16.5 10.55 16.6 10.6 16.6 10.65 16.55 10.75 16.55 10.8 16.4 10.75 16.3 10.75 16.05 10.75 15.8 10.75 15.35 10.8 15.15 10.85" fill="none" stroke="#7d5533" stroke-linecap="round" stroke-linejoin="round" stroke-width="0.1"/>
      <path d="M12.8 17.95 L13.0 18.1 13.35 18.4 13.45 18.5 15.0 20.2 15.8 21.35 16.4 22.45 16.45 22.55 16.6 22.7 16.7 22.9 16.8 23.0 M15.25 11.0 L15.15 10.85 M16.2 14.0 L16.1 13.3 16.0 13.05 15.75 12.0 15.75 11.95 15.7 11.85 15.5 11.4 15.4 11.25 15.25 11.0 M18.4 15.15 L18.4 14.9 18.4 14.7 18.4 14.65 18.4 14.4 18.4 14.3 18.4 14.2 18.35 13.8 18.1 12.55 17.4 11.5 17.35 11.5 16.95 11.1 16.85 11.05 16.75 10.95 16.7 10.9 16.55 10.8 M10.35 21.7 L10.05 21.25 9.7 20.2 Q9.6 19.3 10.2 18.4 10.8 17.45 11.5 17.4 12.0 17.35 12.8 17.95 M16.2 14.0 L16.25 14.4 16.25 14.5 16.3 15.15 M10.35 21.75 L10.35 21.7" fill="none" stroke="#1f447c" stroke-linecap="round" stroke-linejoin="round" stroke-width="0.1"/>
      <path d="M10.5 21.65 L9.45 20.85 9.3 20.7 Q7.05 18.4 7.05 15.2 7.05 12.1 9.4 9.8 L9.45 9.7 Q11.85 7.45 15.4 7.45 L16.05 7.45 Q9.5 12.6 10.5 21.65" fill="#ffffff" fill-opacity="0.2" fill-rule="evenodd" stroke="none"/>
      <path d="M11.1 11.4 L9.9 12.75 Q9.4 12.65 9.25 12.35 L9.25 12.0 Q9.55 10.45 11.0 9.4 11.6 8.9 11.95 8.95 12.3 9.05 12.2 9.75 L11.1 11.4 M9.25 15.05 Q8.7 14.95 8.65 14.55 L8.7 14.2 Q8.8 13.4 9.55 13.5 10.4 13.6 10.25 14.3 L9.95 14.8 9.25 15.05" fill="#ffffff" fill-rule="evenodd" stroke="none"/>
    </g>
    <linearGradient gradientTransform="matrix(0.0048, 0.0, 0.0, 0.0064, 25.65, 9.45)" gradientUnits="userSpaceOnUse" id="gradient0" spreadMethod="pad" x1="-819.2" x2="819.2">
      <stop offset="0.0" stop-color="#14737c"/>
      <stop offset="1.0" stop-color="#48f2e0"/>
    </linearGradient>
    <linearGradient gradientTransform="matrix(0.0067, 0.0, 0.0, 0.0049, 20.4, 25.5)" gradientUnits="userSpaceOnUse" id="gradient1" spreadMethod="pad" x1="-819.2" x2="819.2">
      <stop offset="0.0" stop-color="#14737c"/>
      <stop offset="1.0" stop-color="#48f2e0"/>
    </linearGradient>
  </defs>
</svg>
