<?xml version="1.0" encoding="UTF-8" standalone="no"?>
<svg xmlns:ffdec="https://www.free-decompiler.com/flash" xmlns:xlink="http://www.w3.org/1999/xlink" ffdec:objectType="frame" height="60.0px" width="60.0px" xmlns="http://www.w3.org/2000/svg">
  <g transform="matrix(1.0, 0.0, 0.0, 1.0, 0.0, 0.0)">
    <use ffdec:characterId="1" height="60.0" transform="matrix(1.0, 0.0, 0.0, 1.0, 0.0, 0.0)" width="60.0" xlink:href="#shape0"/>
  </g>
  <defs>
    <g id="shape0" transform="matrix(1.0, 0.0, 0.0, 1.0, 0.0, 0.0)">
      <path d="M0.0 0.0 L60.0 0.0 60.0 60.0 0.0 60.0 0.0 0.0" fill="#33cc66" fill-opacity="0.0" fill-rule="evenodd" stroke="none"/>
      <path d="M26.05 4.5 L25.3 11.3 30.0 15.0 29.9 15.0 29.35 15.0 24.75 14.25 Q24.55 11.8 23.05 9.8 L26.05 4.5 M29.9 15.15 L25.2 19.1 26.05 25.85 26.05 25.9 18.95 25.4 15.05 29.9 16.1 24.65 Q18.9 24.4 21.15 22.7 L26.05 25.85 22.55 21.4 Q24.45 19.2 24.75 16.4 L29.9 15.15 M15.0 30.0 L11.05 25.4 4.5 25.8 9.3 22.9 Q11.3 24.35 13.85 24.65 L15.0 29.85 15.0 30.0 M4.5 25.65 L5.05 19.3 0.05 15.0 5.4 15.85 Q5.55 18.85 7.5 21.2 L4.6 25.7 4.5 25.65 M0.0 14.95 L5.15 11.05 4.6 4.35 4.65 4.35 7.75 9.15 7.75 9.2 Q5.9 11.25 5.5 13.85 L0.3 14.95 0.0 14.95 M4.65 4.3 L10.95 5.15 15.0 0.0 15.0 0.35 13.95 6.05 Q11.6 6.3 9.55 7.65 L4.65 4.35 4.65 4.3 M15.0 0.1 L19.1 5.15 26.05 4.3 25.55 4.8 21.25 8.05 21.1 7.95 Q19.2 6.5 16.55 6.1 L15.0 0.1" fill="#226faa" fill-rule="evenodd" stroke="none"/>
      <path d="M29.9 15.0 L30.0 15.0 30.0 15.05 29.9 15.0 M26.05 4.3 L26.05 4.5 25.95 4.45 25.55 4.8 26.05 4.3" fill="url(#gradient0)" fill-rule="evenodd" stroke="none"/>
      <path d="M26.05 4.5 L23.05 9.8 Q24.55 11.8 24.75 14.25 L29.35 15.0 30.0 15.1 29.9 15.15 24.75 16.4 Q24.45 19.2 22.55 21.4 L26.05 25.85 21.15 22.7 Q18.9 24.4 16.1 24.65 L15.05 29.9 15.0 29.95 15.0 29.9 15.0 29.85 13.85 24.65 Q11.3 24.35 9.3 22.9 L4.5 25.8 4.6 25.7 7.5 21.2 Q5.55 18.85 5.4 15.85 L0.05 15.0 0.3 14.95 5.5 13.85 Q5.9 11.25 7.75 9.2 L7.85 9.1 7.75 9.15 4.65 4.35 9.55 7.65 Q11.6 6.3 13.95 6.05 L15.0 0.35 15.0 0.1 16.55 6.1 Q19.2 6.5 21.1 7.95 L21.25 8.05 25.55 4.8 25.95 4.45 26.05 4.5 M22.05 21.85 L22.05 21.9 22.1 21.9 22.05 21.85 M23.6 15.35 Q23.6 12.0 21.15 9.55 18.65 7.2 15.2 7.2 11.6 7.2 9.15 9.55 L9.05 9.7 Q6.65 12.1 6.65 15.35 6.65 18.65 9.0 21.0 L9.15 21.15 Q11.6 23.5 15.2 23.5 18.65 23.5 21.55 20.85 23.6 18.5 23.6 15.35" fill="#d4a53d" fill-rule="evenodd" stroke="none"/>
      <path d="M29.35 15.0 L29.9 15.0 30.0 15.05 30.0 15.1 29.35 15.0" fill="url(#gradient1)" fill-rule="evenodd" stroke="none"/>
      <path d="M15.0 29.95 L15.0 30.0 15.0 29.85 15.0 29.9 15.0 29.95 M22.05 21.85 L22.1 21.9 22.05 21.9 22.05 21.85" fill="url(#gradient2)" fill-rule="evenodd" stroke="none"/>
      <path d="M23.6 15.35 Q23.6 18.5 21.55 20.85 18.65 23.5 15.2 23.5 11.6 23.5 9.15 21.15 L9.0 21.0 Q6.65 18.65 6.65 15.35 6.65 12.1 9.05 9.7 L9.15 9.55 Q11.6 7.2 15.2 7.2 18.65 7.2 21.15 9.55 23.6 12.0 23.6 15.35" fill="#0f2472" fill-rule="evenodd" stroke="none"/>
      <path d="M15.0 0.0 L15.0 0.1 15.0 0.35 15.0 0.0" fill="url(#gradient3)" fill-rule="evenodd" stroke="none"/>
      <path d="M4.6 4.3 L4.65 4.3 4.65 4.35 4.6 4.3" fill="url(#gradient4)" fill-rule="evenodd" stroke="none"/>
      <path d="M4.6 4.35 L4.6 4.3 4.65 4.35 4.6 4.35" fill="url(#gradient5)" fill-rule="evenodd" stroke="none"/>
      <path d="M4.5 25.8 L4.5 25.65 4.6 25.7 4.5 25.8 M7.75 9.15 L7.85 9.1 7.75 9.2 7.75 9.15" fill="#4dc4c2" fill-rule="evenodd" stroke="none"/>
      <path d="M0.05 15.0 L0.0 14.95 0.3 14.95 0.05 15.0" fill="url(#gradient6)" fill-rule="evenodd" stroke="none"/>
      <path d="M19.95 11.6 L20.65 12.55 21.55 14.15 23.0 15.1 23.1 15.95 Q23.25 18.1 21.8 19.85 L21.5 19.75 Q21.0 19.75 20.3 20.1 L20.1 20.2 19.6 20.5 19.5 20.65 18.95 20.65 17.95 20.6 18.4 20.35 19.3 19.85 19.4 19.8 20.1 18.85 Q20.8 17.8 20.8 17.05 L20.55 15.8 Q20.2 15.0 19.55 14.5 L18.4 13.75 18.0 13.95 17.35 14.25 16.35 14.35 15.35 14.05 Q14.95 13.65 14.9 12.95 L15.55 12.4 16.1 11.95 15.95 12.45 15.7 13.0 15.6 13.2 15.85 13.15 17.1 12.8 17.55 12.65 19.35 11.85 19.95 11.6 M15.35 8.45 L16.4 9.05 14.1 8.8 12.65 8.95 12.15 9.05 11.05 9.4 10.8 9.05 12.65 8.55 14.5 8.35 15.35 8.45 M22.55 15.2 L22.15 15.1 22.05 15.1 22.05 15.15 22.05 15.25 22.2 15.5 22.15 15.6 22.2 15.65 22.25 15.65 22.35 15.65 22.4 15.6 22.5 15.6 22.7 15.45 22.55 15.2 M22.65 15.75 L22.6 15.75 22.45 15.75 22.5 15.9 22.55 15.95 22.7 15.85 22.65 15.75 M13.55 16.45 L13.95 16.6 Q14.75 17.0 15.1 17.35 L15.0 17.6 14.9 18.5 Q14.9 19.15 15.2 19.6 L14.15 18.5 Q13.6 17.6 13.55 16.45 M13.7 20.8 L13.45 20.4 13.4 20.2 13.35 19.9 13.35 19.8 13.35 19.7 13.55 19.2 14.05 18.6 13.6 19.3 13.45 19.7 13.45 19.75 13.45 20.05 13.5 20.15 13.65 20.7 13.7 20.8 M13.15 19.5 L13.0 19.7 12.95 19.8 12.9 19.9 12.8 20.1 12.8 20.25 12.75 20.4 12.8 20.45 12.85 20.5 12.75 20.45 12.7 20.25 12.65 20.15 12.65 20.1 12.75 19.95 12.85 19.8 13.15 19.5 M12.35 19.6 L12.2 19.75 12.15 19.8 12.05 19.9 12.15 20.1 12.15 20.2 12.2 20.25 12.1 20.1 11.95 19.8 12.15 19.7 12.2 19.65 12.35 19.6" fill="#3687c6" fill-rule="evenodd" stroke="none"/>
      <path d="M22.65 15.75 L22.7 15.85 22.55 15.95 22.5 15.9 22.45 15.75 22.6 15.75 22.65 15.75 M22.55 15.2 L22.7 15.45 22.5 15.6 22.4 15.6 22.35 15.65 22.25 15.65 22.2 15.65 22.15 15.6 22.2 15.5 22.05 15.25 22.05 15.15 22.05 15.1 22.15 15.1 22.55 15.2" fill="#77c1fa" fill-rule="evenodd" stroke="none"/>
      <path d="M8.2 11.35 L8.2 10.7 8.2 10.65 8.2 10.6 8.2 10.55 8.25 10.55 8.45 10.4 Q9.0 9.85 9.95 9.4 L10.8 9.05 11.05 9.4 9.8 10.1 8.2 11.35 M16.4 9.05 L16.7 9.25 16.65 9.25 16.4 9.2 16.3 9.15 16.25 9.25 16.2 9.15 15.9 9.1 15.5 9.05 14.8 9.05 13.95 9.1 12.65 9.35 12.25 9.45 11.7 9.65 11.4 9.8 11.05 9.4 12.15 9.05 12.65 8.95 14.1 8.8 16.4 9.05 M19.7 11.3 L19.95 11.6 19.35 11.85 17.55 12.65 17.1 12.8 15.85 13.15 15.6 13.2 15.7 13.0 15.95 12.45 16.1 11.95 15.55 12.4 14.9 12.95 Q14.95 13.65 15.35 14.05 L16.35 14.35 17.35 14.25 18.0 13.95 18.4 13.75 19.55 14.5 Q20.2 15.0 20.55 15.8 L20.8 17.05 Q20.8 17.8 20.1 18.85 L19.4 19.8 19.3 19.85 18.4 20.35 17.95 20.6 18.95 20.65 19.5 20.65 19.35 20.85 18.85 21.2 18.1 21.6 17.8 21.5 18.1 21.6 18.0 21.6 17.8 21.5 17.7 21.5 17.6 21.5 17.5 21.55 17.35 21.6 17.2 21.65 16.75 21.75 16.75 21.8 16.3 21.5 Q16.0 21.25 15.75 21.25 L15.15 21.4 15.75 21.25 Q16.0 21.25 16.3 21.5 L16.75 21.8 16.2 21.85 16.15 21.85 16.0 21.5 15.9 21.3 15.15 21.4 15.1 21.45 14.3 21.7 13.8 21.45 13.6 21.3 13.8 21.45 14.3 21.7 14.2 21.75 13.85 21.55 13.6 21.3 13.55 21.25 12.45 20.85 12.2 20.75 11.85 20.55 11.8 20.55 11.75 20.5 11.65 20.4 11.25 20.2 10.45 19.55 10.1 19.15 9.85 18.5 9.6 18.2 8.65 17.9 Q8.0 17.4 8.0 16.35 L8.2 15.2 8.5 14.55 8.6 14.55 9.9 14.8 11.65 14.95 12.8 14.9 11.6 12.9 11.4 12.4 10.8 10.1 11.1 9.95 11.4 9.8 11.45 9.8 11.65 10.5 12.45 11.8 12.5 11.8 12.65 12.05 13.35 12.55 13.95 12.9 14.1 12.45 14.6 11.45 14.85 10.95 15.1 10.55 15.55 9.9 16.1 9.35 Q16.2 9.25 16.25 9.25 L16.3 9.75 16.3 10.15 16.3 10.75 16.3 10.9 16.3 10.95 16.2 11.65 16.1 11.95 16.2 11.9 16.4 11.8 16.3 12.2 16.2 12.35 15.9 12.95 16.4 12.85 17.2 12.55 18.05 12.2 18.55 11.95 19.7 11.3 M15.2 19.6 Q15.8 20.45 17.5 20.6 L17.7 20.55 19.05 19.8 Q20.5 18.65 20.5 16.9 20.5 15.7 19.75 14.95 19.15 14.35 18.3 14.25 L17.55 14.5 16.8 14.6 16.65 14.6 16.5 14.6 15.8 14.45 15.25 14.15 Q14.85 13.75 14.7 13.15 L14.7 12.65 14.7 12.5 14.6 12.6 14.0 13.4 13.5 14.5 13.45 14.75 13.35 15.0 13.25 16.35 13.45 16.4 13.55 16.45 Q13.6 17.6 14.15 18.5 L15.2 19.6 M13.95 21.0 L14.05 21.05 13.95 20.45 13.9 20.1 13.9 20.0 13.9 19.95 13.9 19.6 14.0 18.85 14.05 18.75 14.1 18.6 14.05 18.6 13.55 19.2 13.35 19.7 13.35 19.8 13.35 19.9 13.4 20.2 13.45 20.4 13.7 20.8 13.95 21.0 M13.2 19.5 L13.15 19.5 12.85 19.8 12.75 19.95 12.65 20.1 12.65 20.15 12.7 20.25 12.75 20.45 12.85 20.5 13.0 20.65 13.05 20.7 13.15 20.7 13.2 20.7 13.15 20.35 13.15 20.25 13.2 20.1 13.2 19.85 13.2 19.5 M12.45 19.6 L12.45 19.55 12.35 19.6 12.2 19.65 12.15 19.7 11.95 19.8 12.1 20.1 12.2 20.25 12.25 20.3 12.3 20.35 12.35 20.4 12.35 20.35 12.35 20.3 12.35 20.1 12.35 19.9 12.45 19.6" fill="#226faa" fill-rule="evenodd" stroke="none"/>
      <path d="M21.8 19.85 L21.5 20.2 20.65 21.0 20.0 21.45 Q19.4 21.9 18.8 22.15 L18.75 22.2 18.5 21.95 18.0 21.6 18.1 21.6 18.85 21.2 19.35 20.85 19.5 20.65 19.6 20.5 20.1 20.2 20.3 20.1 Q21.0 19.75 21.5 19.75 L21.8 19.85 M18.05 22.45 L17.75 22.55 16.7 22.8 15.0 22.85 Q13.55 22.7 12.25 22.2 L12.2 22.0 Q12.2 21.45 12.6 21.35 L13.15 21.8 14.05 22.15 14.95 21.95 15.6 21.8 15.75 22.0 15.9 22.2 16.75 22.2 17.65 22.15 17.7 22.2 18.05 22.45 M8.05 19.05 L8.2 18.85 8.25 18.85 8.45 18.65 9.05 18.5 9.6 18.65 9.5 18.75 9.25 18.85 8.35 19.1 8.3 19.1 8.05 19.05 M18.8 22.15 L18.4 21.8 18.1 21.6 18.4 21.8 18.8 22.15" fill="#a9d9ef" fill-rule="evenodd" stroke="none"/>
      <path d="M8.0 13.15 L8.1 12.9 8.1 12.85 Q8.65 11.9 9.5 11.1 L10.15 10.55 10.45 12.0 10.65 12.6 10.8 12.9 11.2 13.75 11.75 14.35 11.4 14.35 10.0 14.2 9.1 13.9 8.75 13.75 8.0 13.15 M16.75 9.25 L17.2 9.35 18.65 10.25 19.05 10.65 18.7 10.95 18.65 11.0 17.95 11.4 16.85 11.85 16.95 11.5 16.95 11.45 17.05 10.95 17.05 10.85 17.05 10.8 17.05 10.65 16.95 9.95 16.9 9.6 16.8 9.3 16.75 9.25 M12.25 9.45 L12.65 9.35 13.95 9.1 14.8 9.05 15.5 9.05 14.6 10.1 14.25 10.6 14.2 10.7 14.05 10.95 13.8 11.4 13.7 11.7 Q13.6 11.95 13.65 12.15 L13.3 11.85 13.1 11.6 12.7 10.95 12.65 10.85 12.5 10.55 12.4 10.25 12.25 9.55 12.25 9.45 M15.7 15.25 L16.15 15.0 16.7 14.95 16.85 14.9 17.45 14.9 Q19.05 14.9 19.75 15.85 20.3 16.6 20.15 17.6 L20.0 18.1 Q19.7 19.0 19.05 19.5 L18.6 19.85 18.5 19.9 18.4 19.95 17.45 20.2 17.2 20.2 Q16.3 20.2 15.85 19.8 15.35 19.3 15.3 18.1 L15.6 17.6 15.85 16.9 Q15.35 16.35 14.2 15.9 L13.85 15.75 14.0 14.8 14.25 13.75 14.3 13.65 15.05 14.75 15.3 15.0 15.7 15.25 M17.15 16.2 Q16.65 16.5 16.35 17.1 15.95 17.85 16.1 18.6 16.25 19.4 16.85 19.7 17.45 20.05 18.2 19.7 18.9 19.45 19.3 18.65 L19.6 17.9 19.55 17.15 Q19.4 16.4 18.8 16.05 18.2 15.75 17.45 16.05 L17.15 16.2" fill="#d4a53d" fill-rule="evenodd" stroke="none"/>
      <path d="M10.5 8.5 Q11.15 8.1 11.85 7.85 L12.4 7.8 12.65 7.8 12.9 7.8 13.75 7.9 14.0 7.9 14.4 8.05 15.35 8.45 14.5 8.35 12.65 8.55 10.8 9.05 10.5 8.5" fill="#8594a7" fill-rule="evenodd" stroke="none"/>
      <path d="M11.85 7.85 Q12.2 7.65 12.65 7.55 L14.0 7.9 13.75 7.9 12.9 7.8 12.65 7.8 12.4 7.8 11.85 7.85" fill="#b7c2d0" fill-rule="evenodd" stroke="none"/>
      <path d="M8.45 10.4 L9.05 9.7 9.15 9.55 10.5 8.5 10.8 9.05 9.95 9.4 Q9.0 9.85 8.45 10.4" fill="#64687b" fill-rule="evenodd" stroke="none"/>
      <path d="M7.6 14.0 L8.0 13.15 8.75 13.75 9.1 13.9 10.0 14.2 11.4 14.35 11.75 14.35 11.2 13.75 10.8 12.9 10.65 12.6 10.45 12.0 10.15 10.55 10.65 10.2 10.9 11.75 11.15 12.45 11.2 12.55 11.2 12.6 Q11.6 13.65 12.55 14.65 L11.35 14.7 9.9 14.65 9.85 14.65 8.65 14.35 8.55 14.35 8.2 14.25 7.6 14.0 M16.7 9.25 L16.75 9.25 16.8 9.3 16.9 9.6 16.95 9.95 17.05 10.65 17.05 10.8 17.05 10.85 17.05 10.95 16.95 11.45 16.95 11.5 16.85 11.85 17.95 11.4 18.65 11.0 18.7 10.95 19.05 10.65 19.4 10.95 19.4 11.0 19.7 11.3 18.55 11.95 18.05 12.2 17.2 12.55 16.4 12.85 15.9 12.95 16.2 12.35 16.3 12.2 16.4 11.8 16.5 10.95 16.5 10.9 16.5 10.85 16.5 10.65 16.5 10.25 16.5 9.7 16.45 9.4 16.4 9.2 16.65 9.25 16.7 9.25 M15.5 9.05 L15.9 9.1 15.9 9.25 15.2 10.0 14.85 10.55 14.6 10.95 14.45 11.25 14.35 11.5 13.8 12.7 13.25 12.3 12.85 11.95 12.65 11.75 12.25 11.1 11.85 10.1 11.7 9.7 11.7 9.65 12.25 9.45 12.25 9.55 12.4 10.25 12.5 10.55 12.65 10.85 12.7 10.95 13.1 11.6 13.3 11.85 13.65 12.15 Q13.6 11.95 13.7 11.7 L13.8 11.4 14.05 10.95 14.2 10.7 14.25 10.6 14.6 10.1 15.5 9.05 M13.55 16.45 L13.45 16.4 13.25 16.35 13.35 15.0 13.45 14.75 13.5 14.5 14.0 13.4 14.6 12.6 14.7 12.5 14.7 12.65 14.7 13.15 Q14.85 13.75 15.25 14.15 L15.8 14.45 16.5 14.6 16.65 14.6 16.8 14.6 17.55 14.5 18.3 14.25 Q19.15 14.35 19.75 14.95 20.5 15.7 20.5 16.9 20.5 18.65 19.05 19.8 L17.7 20.55 17.5 20.6 Q15.8 20.45 15.2 19.6 14.9 19.15 14.9 18.5 L15.0 17.6 15.1 17.35 Q14.75 17.0 13.95 16.6 L13.55 16.45 M15.7 15.25 L15.3 15.0 15.05 14.75 14.3 13.65 14.25 13.75 14.0 14.8 13.85 15.75 14.2 15.9 Q15.35 16.35 15.85 16.9 L15.6 17.6 15.3 18.1 Q15.35 19.3 15.85 19.8 16.3 20.2 17.2 20.2 L17.45 20.2 18.4 19.95 18.5 19.9 18.6 19.85 19.05 19.5 Q19.7 19.0 20.0 18.1 L20.15 17.6 Q20.3 16.6 19.75 15.85 19.05 14.9 17.45 14.9 L16.85 14.9 16.7 14.95 16.15 15.0 15.7 15.25" fill="#d2efff" fill-rule="evenodd" stroke="none"/>
      <path d="M8.0 19.15 L7.9 19.0 Q7.25 17.75 7.25 16.15 7.25 15.2 7.5 14.3 L7.6 14.0 8.2 14.25 8.55 14.35 8.65 14.35 9.85 14.65 9.9 14.65 11.35 14.7 12.55 14.65 Q11.6 13.65 11.2 12.6 L11.2 12.55 11.15 12.45 10.9 11.75 10.65 10.2 10.15 10.55 9.5 11.1 Q8.65 11.9 8.1 12.85 L8.1 12.65 8.2 11.85 8.2 11.35 9.8 10.1 11.05 9.4 11.4 9.8 11.7 9.65 11.7 9.7 11.85 10.1 12.25 11.1 12.65 11.75 12.85 11.95 13.25 12.3 13.8 12.7 14.35 11.5 14.45 11.25 14.6 10.95 14.85 10.55 15.2 10.0 15.9 9.25 15.9 9.1 16.2 9.15 16.25 9.25 16.3 9.15 16.4 9.2 16.45 9.4 16.5 9.7 16.5 10.25 16.5 10.65 16.5 10.85 16.5 10.9 16.5 10.95 16.4 11.8 16.2 11.9 16.1 11.95 16.2 11.65 16.3 10.95 16.3 10.9 16.3 10.75 16.3 10.15 16.3 9.75 16.25 9.25 Q16.2 9.25 16.1 9.35 L15.55 9.9 15.1 10.55 14.85 10.95 14.6 11.45 14.1 12.45 13.95 12.9 13.35 12.55 12.65 12.05 12.5 11.8 12.45 11.8 11.65 10.5 11.45 9.8 11.4 9.8 11.1 9.95 10.8 10.1 11.4 12.4 11.6 12.9 12.8 14.9 11.65 14.95 9.9 14.8 8.6 14.55 8.5 14.55 8.2 15.2 8.0 16.35 Q8.0 17.4 8.65 17.9 L9.6 18.2 9.85 18.5 10.1 19.15 9.95 18.95 9.7 19.45 9.1 20.0 8.85 20.25 8.7 20.3 8.6 20.35 8.5 19.9 8.45 19.6 8.45 19.55 8.65 19.45 8.95 19.2 9.0 19.2 9.05 19.15 9.05 19.1 9.5 18.75 9.6 18.65 9.05 18.5 8.45 18.65 8.25 18.85 8.2 18.85 8.05 19.05 8.0 19.15" fill="#0f5083" fill-rule="evenodd" stroke="none"/>
      <path d="M9.75 21.7 L9.55 21.7 8.95 21.15 8.8 20.95 8.7 20.7 8.6 20.35 8.7 20.3 8.85 20.25 9.1 20.0 9.7 19.45 9.95 18.95 10.1 19.15 10.45 19.55 11.25 20.2 11.65 20.4 11.75 20.5 11.8 20.55 11.85 20.55 12.0 20.65 11.85 21.15 11.85 21.25 11.35 21.5 10.8 21.6 10.4 21.65 9.8 21.7 9.75 21.7" fill="#3786c1" fill-rule="evenodd" stroke="none"/>
      <path d="M18.75 22.2 L18.05 22.45 17.7 22.2 17.65 22.15 16.75 22.2 15.9 22.2 15.75 22.0 15.6 21.8 14.95 21.95 14.05 22.15 13.15 21.8 12.6 21.35 Q12.2 21.45 12.2 22.0 L12.25 22.2 11.75 22.05 11.45 21.9 11.4 21.9 10.8 21.6 11.35 21.5 11.85 21.25 11.85 21.15 12.0 20.65 11.85 20.55 12.2 20.75 12.45 20.85 13.55 21.25 13.6 21.3 13.85 21.55 14.2 21.75 14.3 21.7 15.1 21.45 15.15 21.4 15.9 21.3 16.0 21.5 16.15 21.85 16.2 21.85 16.75 21.8 16.75 21.75 17.2 21.65 17.35 21.6 17.5 21.55 17.6 21.5 17.7 21.5 17.8 21.5 18.0 21.6 18.5 21.95 18.75 22.2 M8.25 19.65 L8.2 19.55 8.0 19.15 8.05 19.05 8.3 19.1 8.35 19.1 9.25 18.85 9.5 18.75 9.05 19.1 9.05 19.15 9.0 19.2 8.95 19.2 8.65 19.45 8.45 19.55 8.25 19.65 M9.05 19.15 L8.95 19.2 9.05 19.15 M15.1 21.45 L15.05 21.45 14.3 21.7 15.05 21.45 15.1 21.45 M17.8 21.5 L17.5 21.55 17.8 21.5 M17.35 21.6 L17.25 21.65 16.8 21.8 16.75 21.8 16.8 21.8 17.25 21.65 17.35 21.6" fill="#659ed0" fill-rule="evenodd" stroke="none"/>
      <path d="M8.5 20.45 L7.95 19.75 8.25 19.65 8.45 19.55 8.45 19.6 8.5 19.9 8.6 20.35 8.55 20.4 8.5 20.45" fill="#6f7a85" fill-rule="evenodd" stroke="none"/>
      <path d="M8.7 20.7 L8.5 20.45 8.55 20.4 8.6 20.35 8.7 20.7" fill="#848d96" fill-rule="evenodd" stroke="none"/>
      <path d="M11.4 21.9 L10.75 22.4 9.75 21.7 9.8 21.7 10.4 21.65 10.8 21.6 11.4 21.9" fill="#a5d1ee" fill-rule="evenodd" stroke="none"/>
      <path d="M17.15 16.2 L17.45 16.05 Q18.2 15.75 18.8 16.05 19.4 16.4 19.55 17.15 L19.6 17.9 19.5 18.05 Q19.15 18.65 18.35 18.65 L17.5 18.35 Q17.0 17.9 17.0 16.95 L17.05 16.6 17.15 16.2 M18.5 16.75 L18.5 16.85 18.5 16.95 18.65 17.2 19.05 17.35 19.3 17.15 19.05 16.7 18.75 16.55 18.55 16.55 18.55 16.6 18.5 16.7 18.5 16.75" fill="#172d82" fill-rule="evenodd" stroke="none"/>
      <path d="M19.6 17.9 L19.3 18.65 Q18.9 19.45 18.2 19.7 17.45 20.05 16.85 19.7 16.25 19.4 16.1 18.6 15.95 17.85 16.35 17.1 16.65 16.5 17.15 16.2 L17.05 16.6 17.0 16.95 Q17.0 17.9 17.5 18.35 L18.35 18.65 Q19.15 18.65 19.5 18.05 L19.6 17.9" fill="#0f2472" fill-rule="evenodd" stroke="none"/>
      <path d="M18.5 16.75 L18.5 16.7 18.55 16.6 18.55 16.55 18.75 16.55 19.05 16.7 19.3 17.15 19.05 17.35 18.65 17.2 18.5 16.95 18.5 16.85 18.5 16.75" fill="#c6d2ff" fill-rule="evenodd" stroke="none"/>
      <path d="M13.95 21.0 L13.7 20.8 13.65 20.7 13.5 20.15 13.45 20.05 13.45 19.75 13.45 19.7 13.6 19.3 14.05 18.6 14.1 18.6 14.05 18.75 13.85 19.25 13.7 20.0 13.75 20.15 13.75 20.3 13.95 21.0 M13.15 19.5 L13.2 19.5 13.05 19.8 13.0 20.1 13.0 20.2 13.1 20.5 13.15 20.7 13.05 20.7 13.0 20.65 12.85 20.5 12.8 20.45 12.75 20.4 12.8 20.25 12.8 20.1 12.9 19.9 12.95 19.8 13.0 19.7 13.15 19.5 M12.35 19.6 L12.45 19.55 12.45 19.6 12.3 19.95 12.3 20.2 12.3 20.3 12.3 20.35 12.25 20.3 12.2 20.25 12.15 20.2 12.15 20.1 12.05 19.9 12.15 19.8 12.2 19.75 12.35 19.6" fill="#175493" fill-rule="evenodd" stroke="none"/>
      <path d="M14.05 18.75 L14.0 18.85 13.9 19.6 13.9 19.95 13.9 20.0 13.9 20.1 13.95 20.45 14.05 21.05 13.95 21.0 13.75 20.3 13.75 20.15 13.7 20.0 13.85 19.25 14.05 18.75 M13.15 20.7 L13.1 20.5 13.0 20.2 13.0 20.1 13.05 19.8 13.2 19.5 13.2 19.85 13.2 20.1 13.15 20.25 13.15 20.35 13.2 20.7 13.15 20.7 M12.3 20.35 L12.3 20.3 12.3 20.2 12.3 19.95 12.45 19.6 12.35 19.9 12.35 20.1 12.35 20.3 12.35 20.35 12.35 20.4 12.3 20.35" fill="#104479" fill-rule="evenodd" stroke="none"/>
      <path d="M19.95 11.6 L20.65 12.55 21.55 14.15 23.0 15.1 23.1 15.95 Q23.25 18.1 21.8 19.85 L21.5 20.2 20.65 21.0 20.0 21.45 Q19.4 21.9 18.8 22.15 L18.75 22.2 18.05 22.45 17.75 22.55 16.7 22.8 15.0 22.85 Q13.55 22.7 12.25 22.2 L11.75 22.05 11.45 21.9 M11.4 21.9 L10.75 22.4 M9.75 21.7 L9.55 21.7 M7.95 19.75 L8.25 19.65 8.45 19.55 8.65 19.45 8.95 19.2 9.05 19.15 9.05 19.1 M8.2 19.55 L8.0 19.15 7.9 19.0 Q7.25 17.75 7.25 16.15 7.25 15.2 7.5 14.3 L7.6 14.0 8.0 13.15 8.1 12.9 8.1 12.85 8.1 12.65 8.2 11.85 8.2 11.35 8.2 10.7 8.2 10.65 8.2 10.6 8.2 10.55 M12.65 7.55 L14.0 7.9 14.4 8.05 15.35 8.45 16.4 9.05 16.7 9.25 16.75 9.25 17.2 9.35 18.65 10.25 19.05 10.65 19.4 10.95 19.4 11.0 19.7 11.3 19.95 11.6 M16.65 9.25 L16.7 9.25 M13.55 21.25 L13.6 21.3 13.8 21.45 14.3 21.7 15.05 21.45 15.1 21.45 15.15 21.4 15.75 21.25 Q16.0 21.25 16.3 21.5 L16.75 21.8 16.8 21.8 17.25 21.65 17.35 21.6 17.5 21.55 17.8 21.5 18.1 21.6 18.4 21.8 18.8 22.15 M9.75 21.7 L9.8 21.7 10.4 21.65 10.8 21.6 11.35 21.5 11.85 21.25 M19.6 17.9 L19.3 18.65 Q18.9 19.45 18.2 19.7 17.45 20.05 16.85 19.7 16.25 19.4 16.1 18.6 15.95 17.85 16.35 17.1 16.65 16.5 17.15 16.2 L17.45 16.05 Q18.2 15.75 18.8 16.05 19.4 16.4 19.55 17.15 L19.6 17.9 Z" fill="none" stroke="#13284d" stroke-linecap="round" stroke-linejoin="round" stroke-width="0.1"/>
      <path d="M9.2 9.55 Q11.65 7.25 15.25 7.25 L15.95 7.25 Q9.25 12.5 10.25 21.75 L9.05 20.75 Q6.75 18.45 6.75 15.2 6.75 12.0 9.1 9.65 L9.2 9.55" fill="#ffffff" fill-opacity="0.2" fill-rule="evenodd" stroke="none"/>
      <path d="M11.8 10.1 L10.7 11.8 9.5 13.15 Q8.95 13.05 8.85 12.75 L8.85 12.4 Q9.15 10.8 10.6 9.7 11.2 9.2 11.55 9.3 11.95 9.4 11.8 10.1 M8.25 14.6 Q8.35 13.8 9.15 13.9 10.0 14.0 9.85 14.75 L9.55 15.25 Q9.2 15.55 8.85 15.5 8.3 15.4 8.2 15.0 L8.25 14.6" fill="#ffffff" fill-rule="evenodd" stroke="none"/>
    </g>
    <linearGradient color-interpolation="linearRGB" gradientTransform="matrix(0.0049, 0.0, 0.0, 0.0065, 25.8, 9.55)" gradientUnits="userSpaceOnUse" id="gradient0" spreadMethod="repeat" x1="-819.2" x2="819.2">
      <stop offset="0.0" stop-color="#14737c"/>
      <stop offset="1.0" stop-color="#48f2e0"/>
    </linearGradient>
    <linearGradient gradientTransform="matrix(0.0048, 0.0, 0.0, 0.0067, 26.05, 20.35)" gradientUnits="userSpaceOnUse" id="gradient1" spreadMethod="pad" x1="-819.2" x2="819.2">
      <stop offset="0.0" stop-color="#14737c"/>
      <stop offset="1.0" stop-color="#48f2e0"/>
    </linearGradient>
    <linearGradient gradientTransform="matrix(0.0068, 0.0, 0.0, 0.005, 20.45, 25.9)" gradientUnits="userSpaceOnUse" id="gradient2" spreadMethod="pad" x1="-819.2" x2="819.2">
      <stop offset="0.0" stop-color="#14737c"/>
      <stop offset="1.0" stop-color="#48f2e0"/>
    </linearGradient>
    <linearGradient gradientTransform="matrix(0.0068, 0.0, 0.0, 0.0052, 20.45, 4.2)" gradientUnits="userSpaceOnUse" id="gradient3" spreadMethod="pad" x1="-819.2" x2="819.2">
      <stop offset="0.0" stop-color="#14737c"/>
      <stop offset="1.0" stop-color="#48f2e0"/>
    </linearGradient>
    <linearGradient gradientTransform="matrix(0.0063, 0.0, 0.0, 0.0051, 9.75, 4.15)" gradientUnits="userSpaceOnUse" id="gradient4" spreadMethod="pad" x1="-819.2" x2="819.2">
      <stop offset="0.0" stop-color="#14737c"/>
      <stop offset="1.0" stop-color="#48f2e0"/>
    </linearGradient>
    <linearGradient gradientTransform="matrix(0.0053, 0.0, 0.0, 0.0065, 4.3, 9.55)" gradientUnits="userSpaceOnUse" id="gradient5" spreadMethod="pad" x1="-819.2" x2="819.2">
      <stop offset="0.0" stop-color="#14737c"/>
      <stop offset="1.0" stop-color="#48f2e0"/>
    </linearGradient>
    <linearGradient gradientTransform="matrix(0.005, 0.0, 0.0, 0.0065, 4.05, 20.25)" gradientUnits="userSpaceOnUse" id="gradient6" spreadMethod="pad" x1="-819.2" x2="819.2">
      <stop offset="0.0" stop-color="#14737c"/>
      <stop offset="1.0" stop-color="#48f2e0"/>
    </linearGradient>
  </defs>
</svg>
