<?xml version="1.0" encoding="UTF-8" standalone="no"?>
<svg xmlns:ffdec="https://www.free-decompiler.com/flash" xmlns:xlink="http://www.w3.org/1999/xlink" ffdec:objectType="frame" height="30.0px" width="30.0px" xmlns="http://www.w3.org/2000/svg">
  <g transform="matrix(1.0, 0.0, 0.0, 1.0, 0.0, 0.0)">
    <use ffdec:characterId="1" height="30.0" transform="matrix(1.0, 0.0, 0.0, 1.0, 0.0, 0.0)" width="30.0" xlink:href="#shape0"/>
    <use ffdec:characterId="3" height="29.35" transform="matrix(1.0, 0.0, 0.0, 1.0, 0.4, 0.4)" width="29.3" xlink:href="#sprite0"/>
  </g>
  <defs>
    <g id="shape0" transform="matrix(1.0, 0.0, 0.0, 1.0, 0.0, 0.0)">
      <path d="M0.0 0.0 L30.0 0.0 30.0 30.0 0.0 30.0 0.0 0.0" fill="#33cc66" fill-opacity="0.0" fill-rule="evenodd" stroke="none"/>
    </g>
    <g id="sprite0" transform="matrix(1.0, 0.0, 0.0, 1.0, -0.4, -0.35)">
      <use ffdec:characterId="2" height="29.35" transform="matrix(1.0, 0.0, 0.0, 1.0, 0.4, 0.35)" width="29.3" xlink:href="#shape1"/>
    </g>
    <g id="shape1" transform="matrix(1.0, 0.0, 0.0, 1.0, -0.4, -0.35)">
      <path d="M25.8 4.6 L25.7 4.7 25.3 5.1 21.15 8.25 21.05 8.15 Q19.05 6.7 16.6 6.4 L15.1 0.45 19.05 5.4 25.8 4.6 M15.0 0.75 L14.0 6.3 Q11.75 6.5 9.65 7.85 L5.0 4.6 7.95 9.35 Q6.15 11.35 5.8 13.9 L0.7 15.0 0.4 15.0 5.7 15.8 Q5.9 18.8 7.75 21.05 L4.9 25.45 4.8 25.45 5.4 19.2 0.4 15.0 5.4 11.15 4.9 4.6 5.0 4.6 11.15 5.4 15.0 0.35 15.0 0.75 M4.8 25.55 L9.55 22.75 Q11.45 24.15 13.9 24.45 L15.0 29.5 15.0 29.7 11.25 25.15 4.8 25.55 M15.1 29.6 L16.1 24.45 Q18.85 24.25 21.05 22.55 L25.8 25.65 22.45 21.25 Q24.3 19.1 24.6 16.4 L29.6 15.2 25.0 19.0 25.8 25.65 18.85 25.15 15.1 29.6 M29.1 15.0 L24.6 14.3 Q24.3 11.95 22.85 9.95 L25.8 4.8 25.0 11.45 29.7 15.0 29.6 15.0 29.1 15.0" fill="#08bd64" fill-rule="evenodd" stroke="none"/>
      <path d="M25.7 4.7 L25.8 4.8 22.85 9.95 Q24.3 11.95 24.6 14.3 L29.1 15.0 29.7 15.1 29.6 15.2 24.6 16.4 Q24.3 19.1 22.45 21.25 L25.8 25.65 21.05 22.55 Q18.85 24.25 16.1 24.45 L15.1 29.6 15.0 29.5 13.9 24.45 Q11.45 24.15 9.55 22.75 L4.8 25.55 4.9 25.45 7.75 21.05 Q5.9 18.8 5.7 15.8 L0.4 15.0 0.7 15.0 5.8 13.9 Q6.15 11.35 7.95 9.35 L5.0 4.6 9.65 7.85 Q11.75 6.5 14.0 6.3 L15.0 0.75 15.1 0.45 16.6 6.4 Q19.05 6.7 21.05 8.15 L21.15 8.25 25.3 5.1 25.7 4.7 M23.45 15.4 Q23.45 12.15 21.05 9.65 18.55 7.4 15.3 7.4 11.75 7.4 9.35 9.65 L9.25 9.85 Q6.85 12.25 6.85 15.4 6.85 18.6 9.25 20.85 L9.35 21.05 Q11.75 23.35 15.3 23.35 18.65 23.35 21.45 20.75 23.45 18.5 23.45 15.4" fill="#7bfe75" fill-rule="evenodd" stroke="none"/>
      <path d="M23.45 15.4 Q23.45 18.5 21.45 20.75 18.65 23.35 15.3 23.35 11.75 23.35 9.35 21.05 L9.25 20.85 Q6.85 18.6 6.85 15.4 6.85 12.25 9.25 9.85 L9.35 9.65 Q11.75 7.4 15.3 7.4 18.55 7.4 21.05 9.65 23.45 12.15 23.45 15.4" fill="#180003" fill-rule="evenodd" stroke="none"/>
      <path d="M4.9 25.45 L4.8 25.55 4.8 25.45 4.9 25.45" fill="#4dc4c2" fill-rule="evenodd" stroke="none"/>
      <path d="M25.8 4.8 L25.7 4.7 25.8 4.6 25.8 4.8 M29.7 15.0 L29.7 15.1 29.6 15.0 29.7 15.0" fill="url(#gradient0)" fill-rule="evenodd" stroke="none"/>
      <path d="M29.7 15.1 L29.1 15.0 29.6 15.0 29.7 15.1" fill="url(#gradient1)" fill-rule="evenodd" stroke="none"/>
      <path d="M15.1 0.45 L15.0 0.75 15.0 0.35 15.1 0.45" fill="url(#gradient2)" fill-rule="evenodd" stroke="none"/>
      <path d="M15.0 29.5 L15.1 29.6 15.0 29.7 15.0 29.5" fill="url(#gradient3)" fill-rule="evenodd" stroke="none"/>
      <path d="M16.35 6.5 Q9.85 11.65 10.8 20.65 L9.8 19.85 9.65 19.7 Q7.4 17.45 7.4 14.3 7.4 11.15 9.7 8.85 L9.8 8.75 Q12.2 6.5 15.7 6.5 L16.35 6.5" fill="#ffffff" fill-opacity="0.2" fill-rule="evenodd" stroke="none"/>
      <path d="M12.1 8.5 Q12.45 8.55 12.3 9.25 L11.25 10.9 10.05 12.25 9.45 11.85 9.45 11.5 Q9.75 9.95 11.15 8.85 11.8 8.4 12.1 8.5 M8.8 14.05 L8.85 13.65 Q8.95 12.85 9.75 12.95 10.6 13.05 10.45 13.8 L10.1 14.3 9.45 14.5 Q8.95 14.45 8.8 14.05" fill="#ffffff" fill-rule="evenodd" stroke="none"/>
      <path d="M20.55 8.1 L20.55 8.15 20.55 8.3 20.55 8.35 20.55 8.6 20.6 8.85 20.55 8.6 20.55 8.35 20.55 8.3 20.65 8.2 21.35 8.75 21.25 8.75 21.2 8.75 20.9 8.8 20.6 8.85 20.6 8.95 20.6 9.0 21.25 8.9 21.5 8.9 22.1 9.5 21.3 10.0 21.0 10.15 20.8 10.25 20.55 10.5 20.55 10.2 20.55 10.0 20.6 9.45 20.4 9.05 20.35 9.0 20.25 8.85 20.15 8.7 20.1 8.6 20.05 8.55 19.95 8.4 20.05 8.15 20.15 7.85 20.55 8.1 M22.15 9.6 L22.8 10.5 22.3 12.1 22.35 12.15 21.8 12.3 21.85 12.25 21.95 12.25 22.15 12.15 22.15 12.05 22.2 11.9 22.25 11.75 22.3 11.5 22.5 10.65 22.5 10.6 22.4 10.6 22.2 10.75 22.0 10.9 22.0 10.95 21.95 11.0 21.9 11.0 21.8 10.85 21.85 10.85 22.0 10.75 22.4 10.6 22.0 10.75 21.85 10.85 21.8 10.85 21.6 10.95 21.5 11.05 21.45 11.1 21.25 11.3 21.1 11.4 21.05 11.45 20.85 11.65 20.8 11.7 20.8 11.75 20.7 11.85 20.7 11.9 20.65 11.9 20.65 11.95 20.6 12.25 20.55 12.4 20.3 12.4 20.25 12.4 19.9 12.4 19.5 11.9 19.6 11.75 19.6 11.7 19.65 11.65 19.8 11.45 19.85 11.35 19.85 11.3 19.9 11.25 20.0 11.2 20.1 11.2 20.35 11.05 20.55 10.9 Q20.95 10.55 21.3 10.3 L22.15 9.6 M20.55 20.85 L19.95 21.25 19.75 21.15 19.15 20.85 18.95 20.7 19.75 20.55 20.05 20.5 20.2 20.5 20.3 20.5 20.35 20.5 20.75 20.5 20.55 20.85 M7.3 13.95 Q7.35 13.2 7.55 12.5 L7.55 12.9 7.35 13.95 7.3 13.95 M13.85 9.4 L13.85 9.35 14.15 8.5 14.2 8.45 14.35 8.75 14.5 9.0 14.55 9.1 14.6 9.1 14.65 9.2 14.65 9.25 14.55 9.25 14.15 9.3 13.85 9.4 M15.2 8.0 L15.4 8.3 15.9 9.3 15.65 9.25 15.05 9.2 14.95 9.2 14.8 9.2 14.75 9.1 14.7 8.95 14.65 8.9 14.5 8.35 14.45 8.25 15.2 8.0 M18.95 7.2 L19.2 7.3 19.2 7.45 18.95 7.25 18.95 7.2 M19.45 7.45 L19.85 7.65 19.8 7.85 19.8 7.9 19.75 8.0 19.75 8.05 19.4 7.7 19.4 7.65 19.4 7.55 19.45 7.45 M20.6 9.0 L20.6 9.15 20.6 9.45 20.6 9.15 20.6 9.0 M22.1 11.2 L22.25 11.05 22.25 11.25 22.25 11.4 22.1 11.2 M19.45 18.8 L19.5 18.9 20.3 19.55 20.8 20.1 20.85 20.2 20.25 20.1 20.15 20.05 20.05 20.0 19.65 19.7 19.5 19.6 19.0 19.35 18.7 19.15 18.8 19.1 19.2 19.0 19.3 18.9 19.45 18.8 M14.25 8.4 L14.25 8.35 14.3 8.35 14.25 8.4 M16.2 10.35 L16.15 10.2 16.9 9.5 17.75 8.8 17.7 9.05 17.7 9.5 17.7 9.55 17.7 9.7 17.7 9.8 17.7 9.85 17.7 10.05 17.7 10.4 17.7 10.6 17.7 10.7 17.7 10.85 17.15 10.6 16.85 10.5 16.3 10.4 16.2 10.35 M18.35 19.2 L18.55 19.35 18.65 19.35 18.95 19.55 19.4 19.8 19.5 19.9 20.0 20.25 20.05 20.25 19.95 20.3 19.2 20.45 18.65 20.55 18.55 20.5 18.45 20.45 18.35 20.35 18.3 20.3 18.5 20.15 18.5 20.1 18.45 19.8 18.4 19.75 18.35 19.6 18.3 19.55 18.25 19.45 17.9 19.25 18.1 19.25 18.35 19.2 M18.9 20.7 L18.95 20.7 18.85 20.75 18.9 20.7" fill="#ffff77" fill-opacity="0.5019608" fill-rule="evenodd" stroke="none"/>
      <path d="M20.55 8.15 L20.6 8.15 20.65 8.2 20.55 8.3 20.55 8.15" fill="#ce8748" fill-rule="evenodd" stroke="none"/>
      <path d="M20.55 8.1 L20.6 8.15 20.55 8.15 20.55 8.1 M21.35 8.75 L21.45 8.8 21.25 8.85 21.2 8.85 20.9 8.9 20.6 8.95 20.6 8.85 20.9 8.8 21.2 8.75 21.25 8.75 21.35 8.75 M22.1 9.5 L22.1 9.55 21.3 10.1 20.45 10.65 20.5 10.6 20.5 10.55 20.55 10.55 20.55 10.5 20.8 10.25 21.0 10.15 21.3 10.0 22.1 9.5 M21.35 20.2 L21.3 20.3 21.1 20.3 20.9 20.3 20.85 20.3 20.6 20.25 20.4 20.25 20.25 20.1 20.85 20.2 21.35 20.2 M20.35 13.1 L20.35 13.05 20.85 13.0 20.8 13.05 20.35 13.1 M18.7 19.15 L19.0 19.35 19.5 19.6 19.65 19.7 20.05 20.0 19.85 19.9 19.65 19.75 19.5 19.65 19.15 19.45 19.0 19.35 18.7 19.2 18.65 19.15 18.7 19.15 M20.05 20.25 L20.1 20.3 20.05 20.3 19.95 20.35 19.4 20.5 19.2 20.5 18.75 20.6 18.65 20.55 19.2 20.45 19.95 20.3 20.05 20.25" fill="#ffffc2" fill-opacity="0.8" fill-rule="evenodd" stroke="none"/>
      <path d="M21.45 8.8 L21.5 8.9 21.25 8.9 20.6 9.0 20.6 8.95 20.9 8.9 21.2 8.85 21.25 8.85 21.45 8.8 M22.1 9.55 L22.15 9.6 21.3 10.3 Q20.95 10.55 20.55 10.9 L20.35 11.05 20.1 11.2 20.0 11.2 19.9 11.25 20.05 11.05 20.2 10.85 20.25 10.85 20.4 10.7 20.45 10.65 21.3 10.1 22.1 9.55 M21.15 13.0 L21.05 13.05 21.0 13.05 20.95 13.1 20.8 13.15 20.65 13.2 20.45 13.25 20.35 13.1 20.8 13.05 20.85 13.05 20.85 13.0 21.0 13.0 21.05 13.0 21.15 13.0 M21.3 20.3 L21.05 20.5 21.0 20.5 20.75 20.5 20.35 20.5 20.3 20.5 20.2 20.5 20.05 20.5 19.75 20.55 18.95 20.7 18.9 20.7 18.85 20.75 18.8 20.65 18.75 20.6 19.2 20.5 19.4 20.5 19.95 20.35 20.05 20.3 20.1 20.3 20.05 20.25 20.0 20.25 19.5 19.9 19.4 19.8 18.95 19.55 18.65 19.35 18.55 19.35 18.35 19.2 18.65 19.15 18.7 19.2 19.0 19.35 19.15 19.45 19.5 19.65 19.65 19.75 19.85 19.9 20.05 20.0 20.15 20.05 20.25 20.1 20.4 20.25 20.6 20.25 20.85 20.3 20.9 20.3 21.1 20.3 21.3 20.3 M18.9 20.7 L18.8 20.65 18.9 20.7" fill="#ce663a" fill-rule="evenodd" stroke="none"/>
      <path d="M13.95 9.55 L13.85 9.4 14.15 9.3 14.55 9.25 14.65 9.25 14.8 9.5 14.8 9.55 14.85 9.7 14.85 9.75 14.9 10.05 14.9 10.1 15.0 10.6 15.0 10.85 14.9 10.95 14.85 10.95 14.8 11.0 14.75 10.95 14.45 10.45 14.0 9.6 13.95 9.55 M15.9 9.3 L15.9 9.35 16.05 9.55 16.05 9.6 16.1 9.9 16.15 10.2 16.2 10.35 16.2 10.4 16.15 10.45 16.1 10.45 16.0 10.5 15.95 10.5 15.95 10.45 15.75 10.25 15.7 10.2 15.4 9.95 15.35 9.95 15.35 9.9 15.15 9.75 15.0 9.6 15.0 9.55 14.8 9.2 14.95 9.2 15.05 9.2 15.65 9.25 15.9 9.3 M17.85 7.9 L17.85 7.85 17.85 7.75 18.05 7.25 18.2 6.9 18.75 7.1 18.75 7.25 18.7 7.4 18.65 7.85 18.65 8.1 18.6 8.45 18.5 8.85 18.45 8.9 18.45 8.95 18.35 9.35 18.2 9.75 18.2 9.8 18.2 9.85 17.85 9.8 17.7 9.8 17.7 9.7 17.7 9.55 17.7 9.5 17.7 9.05 17.75 8.8 17.75 8.45 17.75 8.4 17.8 8.2 17.8 8.1 17.85 8.0 17.85 7.9 M19.95 8.4 L20.05 8.55 20.1 8.6 20.15 8.7 20.25 8.85 20.35 9.0 20.4 9.05 20.6 9.45 20.55 10.0 20.55 10.2 20.55 10.5 20.55 10.55 20.5 10.55 20.5 10.6 20.45 10.65 20.4 10.7 20.25 10.85 20.2 10.8 20.15 10.75 19.9 10.6 19.95 10.2 19.95 10.0 19.9 9.7 19.9 9.25 19.9 9.1 19.85 9.1 19.85 9.05 19.85 8.9 19.85 8.75 19.95 8.4 M21.7 11.6 L21.95 11.3 22.0 11.3 22.1 11.2 22.25 11.4 22.2 11.65 22.2 11.9 22.15 12.05 22.15 12.15 21.95 12.25 21.85 12.25 21.8 12.3 21.8 12.2 21.7 11.6 M21.5 11.05 L21.6 10.95 21.8 10.85 21.9 11.0 21.9 11.05 21.8 11.1 21.65 11.3 21.5 11.1 21.5 11.05 M15.0 9.9 L15.0 9.8 15.05 9.85 15.35 10.15 15.4 10.2 15.5 10.25 15.6 10.4 15.7 10.5 15.75 10.55 15.7 10.55 15.6 10.6 15.2 10.75 15.2 10.6 15.15 10.5 15.1 10.15 15.05 9.9 15.0 9.9 M19.2 7.45 L19.2 7.7 19.2 7.8 19.2 7.95 19.15 8.15 19.1 9.3 19.1 9.4 19.1 9.6 19.05 9.65 19.05 9.75 19.05 9.85 19.05 10.0 19.0 10.1 18.95 10.1 18.85 10.05 18.75 10.0 18.45 9.9 18.5 9.8 18.6 9.55 18.7 9.2 18.75 9.05 18.9 7.9 18.95 7.25 19.2 7.45 M19.6 9.15 L19.6 9.2 19.65 9.35 19.65 9.55 19.7 9.95 19.7 10.0 19.7 10.15 19.7 10.3 19.7 10.45 19.45 10.35 19.3 10.25 19.35 9.9 19.45 9.55 19.5 9.5 19.55 9.25 19.6 9.15 M19.3 9.05 L19.35 9.05 19.4 8.55 19.35 8.35 19.35 8.05 19.35 8.0 19.4 7.65 19.4 7.7 19.75 8.05 19.7 8.1 19.7 8.15 19.55 8.6 19.5 8.65 19.5 8.7 19.4 9.1 19.3 9.35 19.3 9.05" fill="#ffff77" fill-opacity="0.7019608" fill-rule="evenodd" stroke="none"/>
      <path d="M14.2 8.45 L14.25 8.35 14.25 8.4 14.5 8.75 14.55 8.9 14.6 8.95 14.7 9.2 14.75 9.2 14.85 9.4 14.75 9.3 14.65 9.25 14.65 9.2 14.6 9.1 14.55 9.1 14.5 9.0 14.35 8.75 14.2 8.45 M22.5 10.65 L22.45 10.65 22.2 10.9 22.05 11.1 22.0 11.1 21.9 11.0 21.95 11.0 22.0 10.95 22.0 10.9 22.2 10.75 22.4 10.6 22.5 10.6 22.5 10.65" fill="#f39c56" fill-rule="evenodd" stroke="none"/>
      <path d="M14.3 8.3 L14.4 8.15 Q14.75 7.8 15.1 7.75 L15.2 8.0 14.45 8.25 14.5 8.35 14.65 8.9 14.7 8.95 14.75 9.1 14.8 9.2 15.0 9.55 15.0 9.6 15.15 9.75 15.35 9.9 15.35 9.95 15.3 9.95 15.25 9.85 15.15 9.8 14.95 9.6 14.95 9.55 14.85 9.45 14.85 9.4 14.75 9.2 14.7 9.2 14.6 8.95 14.55 8.9 14.5 8.75 14.25 8.4 14.3 8.35 14.3 8.3 M18.85 7.15 L18.95 7.2 18.95 7.25 18.9 7.9 18.75 9.05 18.7 9.2 18.6 9.55 18.5 9.8 18.45 9.9 18.3 10.3 18.15 10.6 18.1 10.6 18.1 10.7 18.05 10.8 18.0 10.9 17.95 10.95 18.0 10.75 18.05 10.7 18.05 10.55 18.1 10.45 18.15 10.25 18.2 10.25 18.3 9.85 18.35 9.8 18.45 9.5 18.6 9.2 18.6 9.15 18.65 9.05 18.65 9.0 18.7 8.7 18.7 8.5 18.7 8.45 18.75 8.0 18.8 7.9 18.8 7.8 18.8 7.55 18.85 7.25 18.85 7.15 M19.3 7.35 L19.45 7.45 19.4 7.55 19.4 7.65 19.35 8.0 19.35 8.05 19.35 8.35 19.4 8.55 19.35 9.05 19.3 9.05 19.3 8.6 19.3 8.35 19.3 8.05 19.3 7.95 19.3 7.85 19.3 7.8 19.3 7.6 19.3 7.4 19.3 7.35 M20.05 7.75 L20.15 7.85 20.05 8.15 19.95 8.4 19.85 8.75 19.85 8.9 19.85 9.05 19.85 9.1 19.9 9.1 19.9 9.25 19.9 9.7 19.95 10.0 19.95 10.2 19.9 10.6 19.9 10.85 19.9 10.9 19.9 11.0 19.9 11.2 19.85 11.2 19.85 11.05 19.85 10.95 19.8 10.75 19.8 10.65 19.8 10.5 19.8 10.35 19.75 10.0 19.75 9.95 19.75 9.6 19.75 9.5 19.75 9.2 19.75 9.05 19.75 8.9 19.75 8.75 19.8 8.4 19.85 8.25 19.85 8.2 19.85 8.15 19.9 8.05 19.95 8.0 19.95 7.95 20.05 7.75 M22.0 11.1 L22.05 11.1 22.2 10.9 22.45 10.65 22.5 10.65 22.3 11.5 22.25 11.75 22.2 11.9 22.2 11.65 22.25 11.4 22.25 11.25 22.25 11.05 22.1 11.2 22.0 11.3 21.95 11.3 21.7 11.6 21.5 11.8 21.45 11.9 21.45 11.8 21.5 11.75 21.5 11.7 21.55 11.7 21.6 11.6 21.6 11.55 21.65 11.5 21.7 11.45 21.9 11.2 21.95 11.2 21.95 11.15 22.0 11.1 M21.0 11.8 L21.25 11.8 21.3 11.8 21.35 11.75 21.35 11.8 21.3 11.8 21.05 11.85 20.85 11.9 20.7 11.95 20.65 11.95 20.65 11.9 20.7 11.9 20.7 11.85 20.75 11.85 20.85 11.8 21.0 11.8 M21.3 12.25 L21.3 12.15 21.4 12.0 21.4 11.95 21.45 11.9 21.45 12.0 21.4 12.05 21.35 12.35 21.35 12.45 21.3 12.45 21.2 12.5 21.25 12.35 21.3 12.25 M15.15 10.8 L15.15 10.7 15.1 10.5 15.05 10.15 15.0 9.9 15.05 9.9 15.1 10.15 15.15 10.5 15.2 10.6 15.2 10.75 15.3 11.65 15.3 11.85 15.2 11.85 15.2 11.8 15.2 11.5 15.2 11.45 15.15 10.95 15.15 10.8 M15.85 10.5 L15.85 10.45 15.7 10.35 15.7 10.3 15.6 10.25 15.6 10.2 15.4 10.05 15.35 9.95 15.4 9.95 15.7 10.2 15.75 10.25 15.95 10.45 15.95 10.5 16.0 10.5 16.15 10.6 16.25 10.65 16.25 10.75 16.2 10.8 16.15 10.75 15.9 10.5 15.85 10.5 M19.15 10.15 L19.2 9.9 19.25 9.85 19.25 9.75 19.3 9.6 19.35 9.5 19.35 9.45 19.4 9.4 19.45 9.2 19.5 9.15 19.5 9.05 19.6 8.9 19.6 9.05 19.6 9.15 19.55 9.25 19.5 9.5 19.45 9.55 19.35 9.9 19.3 10.25 19.15 11.0 19.15 11.1 19.1 11.25 19.1 11.35 19.1 11.4 19.05 11.55 19.05 11.75 19.0 12.1 18.95 12.3 18.85 12.3 18.85 12.2 18.9 12.1 18.9 11.75 18.95 11.55 18.95 11.5 19.0 11.2 19.0 11.05 19.0 11.0 19.0 10.95 19.05 10.6 19.1 10.5 19.15 10.2 19.15 10.15 M9.05 18.65 L9.1 18.7 8.75 18.95 9.05 18.65" fill="#ffffc2" fill-rule="evenodd" stroke="none"/>
      <path d="M20.95 13.1 L20.65 13.3 20.5 13.4 20.45 13.25 20.65 13.2 20.8 13.15 20.95 13.1 M19.9 10.6 L20.15 10.75 20.2 10.8 20.25 10.85 20.2 10.85 20.05 11.05 19.9 11.25 19.85 11.3 19.85 11.2 19.9 11.2 19.9 11.0 19.9 10.9 19.9 10.85 19.9 10.6 M21.6 11.6 L21.55 11.7 21.5 11.7 21.55 11.6 21.6 11.6 M21.45 11.9 L21.5 11.8 21.7 11.6 21.8 12.2 21.8 12.3 21.75 12.3 21.6 12.35 21.55 12.35 21.35 12.45 21.35 12.35 21.4 12.05 21.45 12.0 21.45 11.9 M20.85 11.65 L21.05 11.45 21.1 11.4 21.25 11.3 21.45 11.1 21.5 11.05 21.5 11.1 21.65 11.3 21.55 11.4 21.5 11.45 21.4 11.5 21.35 11.6 21.3 11.6 21.2 11.65 20.95 11.75 20.85 11.65 M21.35 11.8 L21.35 11.9 21.25 12.05 21.2 12.15 21.1 11.95 21.05 11.85 21.3 11.8 21.35 11.8 M19.1 12.75 L19.05 12.8 18.9 12.75 18.9 12.7 18.85 12.7 18.85 12.45 18.85 12.4 18.85 12.3 18.95 12.3 19.0 12.1 19.05 11.75 19.05 11.55 19.1 11.4 19.1 11.35 19.1 11.25 19.15 11.1 19.15 11.0 19.3 10.25 19.45 10.35 19.7 10.45 19.7 10.5 19.7 10.65 19.65 11.05 19.65 11.15 19.65 11.3 19.65 11.4 19.65 11.65 19.6 11.7 19.6 11.75 19.5 11.9 19.2 12.55 19.15 12.65 19.1 12.7 19.1 12.75 M16.0 10.5 L16.1 10.45 16.15 10.45 16.2 10.4 16.25 10.65 16.15 10.6 16.0 10.5 M15.05 11.5 L15.0 11.5 15.0 11.45 14.95 11.3 14.9 11.2 14.8 11.0 14.85 10.95 14.9 10.95 15.0 10.85 15.0 11.0 15.0 11.05 15.0 11.2 15.05 11.5 M17.95 10.95 L18.0 10.9 18.05 10.8 18.1 10.7 18.1 10.6 18.15 10.6 18.3 10.3 18.45 9.9 18.75 10.0 18.85 10.05 18.95 10.1 19.0 10.1 18.95 10.3 18.9 10.9 18.85 10.95 18.85 11.0 18.85 11.15 18.85 11.4 18.8 11.5 18.8 11.65 18.8 11.7 18.7 12.05 18.7 12.1 18.7 12.25 18.65 12.35 18.6 12.6 18.45 12.55 17.85 12.5 17.8 11.95 17.75 11.6 17.8 11.5 17.8 11.45 17.85 11.25 17.9 11.1 17.95 10.95 M17.7 10.85 L17.7 10.7 17.7 10.6 17.7 10.4 17.7 10.05 17.7 9.85 17.7 9.8 17.85 9.8 18.2 9.85 18.15 9.9 18.1 10.1 18.1 10.15 18.05 10.2 18.05 10.25 17.95 10.5 17.9 10.7 17.85 10.85 17.7 10.85 M15.2 10.75 L15.6 10.6 15.7 10.55 15.75 10.55 15.9 10.7 16.05 10.85 16.15 10.95 16.2 11.0 16.3 11.1 16.35 11.45 16.25 11.5 16.0 11.55 15.9 11.55 15.5 11.75 15.4 11.8 15.35 11.8 15.3 11.85 15.3 11.65 15.2 10.75 M8.3 12.3 L8.5 12.15 8.6 12.7 8.3 12.3" fill="#ffff77" fill-opacity="0.8" fill-rule="evenodd" stroke="none"/>
      <path d="M21.7 11.45 L21.65 11.5 21.6 11.55 21.6 11.6 21.55 11.6 21.5 11.7 21.5 11.75 21.45 11.8 21.45 11.9 21.4 11.95 21.4 12.0 21.3 12.15 21.3 12.25 21.2 12.15 21.25 12.05 21.35 11.9 21.35 11.8 21.35 11.75 21.3 11.8 21.25 11.8 21.0 11.8 20.95 11.75 21.2 11.65 21.3 11.6 21.35 11.6 21.4 11.5 21.5 11.45 21.55 11.4 21.65 11.3 21.7 11.45 M14.85 9.4 L14.85 9.45 14.95 9.55 14.95 9.6 15.15 9.8 15.25 9.85 15.3 9.95 15.35 9.95 15.4 10.05 15.6 10.2 15.6 10.25 15.7 10.3 15.7 10.35 15.85 10.45 15.85 10.5 15.75 10.55 15.7 10.5 15.6 10.4 15.5 10.25 15.4 10.2 15.35 10.15 15.05 9.85 15.0 9.8 15.0 9.9 15.05 10.15 15.1 10.5 15.15 10.7 15.15 10.8 15.1 10.8 15.0 10.85 15.0 10.6 14.9 10.1 14.9 10.05 14.85 9.75 14.85 9.7 14.8 9.55 14.8 9.5 14.65 9.25 14.75 9.3 14.85 9.4 M19.0 10.1 L19.1 10.1 19.15 10.15 19.15 10.2 19.1 10.5 19.05 10.6 19.0 10.95 18.85 10.95 18.9 10.9 18.95 10.3 19.0 10.1 M19.7 10.45 L19.8 10.5 19.8 10.65 19.7 10.65 19.7 10.5 19.7 10.45 M18.3 9.85 L18.2 10.25 18.15 10.25 18.05 10.2 18.1 10.15 18.1 10.1 18.15 9.9 18.2 9.85 18.2 9.8 18.3 9.85 M17.75 11.45 L17.8 11.45 17.8 11.5 17.75 11.6 17.75 11.55 17.75 11.45" fill="#f3583a" fill-rule="evenodd" stroke="none"/>
      <path d="M20.95 11.75 L21.0 11.8 20.85 11.8 20.75 11.85 20.7 11.85 20.8 11.75 20.85 11.75 20.95 11.75 M21.2 12.15 L21.3 12.25 21.25 12.35 21.2 12.5 21.05 12.55 21.0 12.55 21.0 12.5 21.1 12.4 21.1 12.3 21.2 12.15 M15.0 10.85 L15.1 10.8 15.15 10.8 15.15 10.95 15.2 11.45 15.2 11.5 15.2 11.8 15.1 11.6 15.05 11.5 15.0 11.2 15.0 11.05 15.0 11.0 15.0 10.85 M15.75 10.55 L15.85 10.5 15.9 10.5 16.15 10.75 16.2 10.8 16.3 10.85 16.3 11.1 16.2 11.0 16.15 10.95 16.05 10.85 15.9 10.7 15.75 10.55 M18.15 10.25 L18.1 10.45 18.05 10.55 18.05 10.7 18.0 10.75 17.95 10.95 17.9 11.1 17.85 11.25 17.8 11.45 17.75 11.45 17.75 11.35 17.75 11.2 17.75 11.1 17.85 10.85 17.9 10.7 17.95 10.5 18.05 10.25 18.05 10.2 18.15 10.25 M19.7 10.65 L19.8 10.65 19.8 10.75 19.85 10.95 19.85 11.05 19.85 11.2 19.85 11.3 19.85 11.35 19.8 11.45 19.65 11.65 19.65 11.4 19.65 11.3 19.65 11.15 19.65 11.05 19.7 10.65 M19.0 11.0 L19.0 11.05 19.0 11.2 18.95 11.5 18.95 11.55 18.9 11.75 18.9 12.1 18.85 12.2 18.85 12.3 18.85 12.4 18.85 12.45 18.85 12.7 18.8 12.9 18.8 12.95 18.75 13.9 18.5 13.75 18.45 13.75 18.35 13.7 18.45 13.4 18.45 13.25 18.55 12.95 18.6 12.7 18.6 12.6 18.65 12.35 18.7 12.25 18.7 12.1 18.7 12.05 18.8 11.7 18.8 11.65 18.8 11.5 18.85 11.4 18.85 11.15 18.85 11.0 18.85 10.95 19.0 11.0" fill="#bc1e20" fill-rule="evenodd" stroke="none"/>
      <path d="M20.65 11.95 L20.7 11.95 20.85 11.9 21.05 11.85 21.1 11.95 21.2 12.15 21.1 12.3 21.1 12.4 21.0 12.5 21.0 12.55 20.95 12.55 20.55 12.7 20.55 12.4 20.6 12.25 20.65 11.95 M20.8 11.75 L20.8 11.7 20.85 11.65 20.95 11.75 20.85 11.75 20.8 11.75 M19.05 12.8 L19.0 12.95 18.9 13.35 18.85 13.55 18.75 13.9 18.8 12.95 18.8 12.9 18.85 12.7 18.9 12.7 18.9 12.75 19.05 12.8 M15.95 12.2 L15.85 12.1 15.6 12.0 15.45 11.95 15.45 11.9 15.3 11.85 15.35 11.8 15.4 11.8 15.5 11.75 15.9 11.55 16.0 11.55 16.25 11.5 16.35 11.45 16.4 12.25 16.4 12.3 16.4 12.45 16.35 12.4 16.2 12.35 15.95 12.2 M18.6 12.6 L18.6 12.7 18.55 12.95 18.45 13.25 18.45 13.4 18.35 13.7 18.3 13.65 18.2 13.6 18.05 13.5 18.0 13.35 17.85 12.5 18.45 12.55 18.6 12.6" fill="#ffff77" fill-rule="evenodd" stroke="none"/>
      <path d="M18.75 7.1 L18.85 7.15 18.85 7.25 18.8 7.55 18.8 7.8 18.8 7.9 18.75 8.0 18.7 8.45 18.7 8.5 18.7 8.7 18.65 9.0 18.65 9.05 18.6 9.15 18.6 9.2 18.45 9.5 18.35 9.8 18.3 9.85 18.2 9.8 18.2 9.75 18.35 9.35 18.45 8.95 18.45 8.9 18.5 8.85 18.6 8.45 18.65 8.1 18.65 7.85 18.7 7.4 18.75 7.25 18.75 7.1 M19.2 7.3 L19.3 7.35 19.3 7.4 19.3 7.6 19.3 7.8 19.3 7.85 19.3 7.95 19.3 8.05 19.3 8.35 19.3 8.6 19.3 9.05 19.3 9.35 19.4 9.1 19.5 8.7 19.5 8.65 19.55 8.6 19.7 8.15 19.7 8.1 19.75 8.05 19.75 8.0 19.8 7.9 19.8 7.85 19.85 7.65 20.05 7.75 19.95 7.95 19.95 8.0 19.9 8.05 19.85 8.05 19.85 8.15 19.85 8.2 19.8 8.2 19.8 8.4 19.75 8.75 19.75 8.9 19.75 9.05 19.75 9.2 19.75 9.5 19.75 9.6 19.75 9.95 19.75 10.0 19.8 10.35 19.8 10.5 19.7 10.45 19.7 10.3 19.7 10.15 19.7 10.0 19.7 9.95 19.65 9.55 19.65 9.35 19.6 9.2 19.6 9.15 19.6 9.05 19.6 8.9 19.5 9.05 19.5 9.15 19.45 9.2 19.4 9.4 19.35 9.45 19.35 9.5 19.3 9.6 19.25 9.75 19.25 9.85 19.2 9.9 19.15 10.15 19.1 10.1 19.0 10.1 19.05 10.0 19.05 9.85 19.05 9.75 19.05 9.65 19.1 9.6 19.1 9.4 19.1 9.3 19.15 8.15 19.2 7.95 19.2 7.8 19.2 7.7 19.2 7.45 19.2 7.3 M21.9 11.0 L22.0 11.1 21.95 11.15 21.95 11.2 21.9 11.2 21.7 11.45 21.65 11.3 21.8 11.1 21.9 11.05 21.9 11.0" fill="#f38546" fill-rule="evenodd" stroke="none"/>
      <path d="M22.9 12.05 L21.2 12.95 21.15 13.0 21.05 13.0 21.0 13.0 20.85 13.0 20.35 13.05 20.25 12.9 20.2 12.8 20.15 12.7 19.9 12.4 20.25 12.4 20.3 12.4 20.55 12.4 20.55 12.7 20.95 12.55 21.0 12.55 21.05 12.55 21.2 12.5 21.3 12.45 21.35 12.45 21.55 12.35 21.6 12.35 21.75 12.3 21.8 12.3 22.35 12.15 22.85 11.95 22.9 12.05 M7.4 15.85 L7.3 15.05 7.65 15.15 7.9 15.25 7.75 15.5 7.4 15.85 M7.3 14.9 L7.3 14.5 7.3 14.1 7.35 14.1 7.7 14.3 8.35 14.7 8.1 15.0 8.0 15.1 7.6 15.0 7.4 14.9 7.35 14.9 7.3 14.9 M7.55 12.5 L7.8 11.75 7.8 11.8 8.0 12.15 8.1 12.25 8.65 13.1 8.7 13.15 8.8 14.05 8.4 14.6 7.75 14.25 7.4 14.0 7.35 13.95 7.55 12.9 7.55 12.5 M7.8 11.65 L8.15 10.95 8.15 11.0 8.5 12.15 8.3 12.3 8.2 12.2 8.1 12.05 7.9 11.7 7.8 11.65 M20.85 13.0 L20.85 13.05 20.8 13.05 20.85 13.0" fill="#ffff77" fill-opacity="0.6" fill-rule="evenodd" stroke="none"/>
      <path d="M22.8 10.5 L23.2 11.4 23.05 11.75 22.85 11.95 22.35 12.15 22.3 12.1 22.8 10.5 M19.75 18.25 L21.65 19.8 21.75 19.9 21.35 20.2 20.85 20.2 20.8 20.1 20.3 19.55 19.5 18.9 19.45 18.8 19.55 18.6 19.65 18.45 19.7 18.3 19.75 18.25 M21.05 20.5 L20.55 20.85 20.75 20.5 21.0 20.5 21.05 20.5 M19.5 21.5 L19.45 21.5 19.4 21.45 19.5 21.5 M16.1 9.9 L16.45 9.0 17.5 8.15 17.85 7.9 17.85 8.0 17.8 8.1 17.8 8.2 17.75 8.4 17.75 8.45 17.75 8.8 16.9 9.5 16.15 10.2 16.1 9.9" fill="#ffd4b6" fill-opacity="0.7019608" fill-rule="evenodd" stroke="none"/>
      <path d="M23.05 11.75 L23.05 11.8 23.0 11.9 22.85 11.95 23.05 11.75" fill="#ffd4b6" fill-opacity="0.8" fill-rule="evenodd" stroke="none"/>
      <path d="M20.5 13.4 L20.75 14.05 20.8 14.2 20.85 14.45 20.6 14.85 20.55 14.9 20.4 15.0 20.1 15.15 19.9 15.2 19.85 15.2 19.55 15.2 19.4 15.15 18.9 14.9 18.7 14.7 18.4 13.85 18.55 13.9 18.75 13.9 18.85 13.9 18.85 13.55 18.9 13.35 19.0 12.95 19.05 12.8 19.1 12.75 19.2 12.7 19.65 12.65 20.15 12.7 20.2 12.8 20.25 12.9 20.35 13.05 20.35 13.1 20.45 13.25 20.5 13.4 M20.3 17.2 L21.35 17.6 21.35 17.65 21.25 17.65 21.0 17.6 20.75 17.55 20.15 17.4 20.1 17.4 20.05 17.35 19.95 17.35 19.6 17.2 19.5 17.15 19.2 17.0 19.1 16.95 19.0 16.85 18.9 16.65 18.95 16.55 Q19.0 16.4 19.25 16.4 L19.3 16.45 19.4 16.45 19.4 16.5 19.45 16.5 19.45 16.55 19.45 16.65 19.55 16.75 19.6 16.75 19.65 16.8 19.75 16.9 20.15 17.15 20.25 17.2 20.3 17.2 M12.75 8.65 L12.8 8.55 13.2 9.0 13.25 9.0 12.85 9.2 12.7 9.3 12.7 9.1 12.75 8.65 M20.3 14.15 L20.25 14.1 20.15 14.0 19.95 13.9 19.85 13.9 19.75 14.0 19.7 14.25 19.7 14.35 19.75 14.45 19.8 14.55 19.95 14.75 20.0 14.75 20.2 14.55 20.25 14.5 20.3 14.35 20.3 14.15 M15.15 17.55 L15.05 17.6 14.85 17.85 14.8 17.85 14.5 17.7 14.05 17.5 13.7 17.35 13.55 17.1 13.15 16.5 13.15 16.45 13.2 16.45 13.35 16.35 13.4 16.3 13.1 15.55 13.0 15.1 13.1 15.1 13.4 15.65 13.65 16.15 13.7 16.25 13.8 16.4 14.0 16.85 14.35 17.05 14.5 17.15 14.6 17.2 15.15 17.5 15.15 17.55" fill="#d7f56d" fill-rule="evenodd" stroke="none"/>
      <path d="M20.3 14.15 L20.3 14.35 20.25 14.5 20.2 14.55 20.0 14.75 19.95 14.75 19.8 14.55 19.75 14.45 19.7 14.35 19.7 14.25 19.75 14.0 19.85 13.9 19.95 13.9 20.15 14.0 20.25 14.1 20.3 14.15" fill="#f6fdde" fill-rule="evenodd" stroke="none"/>
      <path d="M20.85 14.45 L20.95 14.9 21.0 15.2 20.55 15.35 20.45 15.35 20.35 15.4 20.25 15.4 20.15 15.45 20.0 15.5 19.85 15.5 19.5 15.65 19.45 15.65 19.2 15.65 18.45 15.5 18.15 15.4 18.0 15.3 17.55 14.9 17.05 14.25 16.95 14.05 Q16.65 13.45 16.65 12.8 L16.65 12.75 16.7 12.5 16.85 12.1 17.05 11.85 17.05 11.9 17.1 12.05 17.25 12.6 17.35 13.0 17.55 13.4 17.65 13.6 18.35 13.85 18.4 13.85 18.7 14.7 18.9 14.9 19.4 15.15 19.55 15.2 19.85 15.2 19.9 15.2 20.1 15.15 20.4 15.0 20.55 14.9 20.6 14.85 20.85 14.45 M12.4 9.5 L12.45 9.15 12.45 9.05 12.5 8.95 12.75 8.65 12.7 9.1 12.7 9.3 12.85 9.2 13.25 9.0 13.55 9.25 13.8 9.45 13.85 9.55 13.55 9.6 13.5 9.65 Q13.05 9.75 12.7 10.0 L12.7 9.95 12.7 9.3 12.4 9.5 M20.15 12.7 L19.65 12.65 19.2 12.7 19.1 12.75 19.1 12.7 19.15 12.65 19.2 12.55 19.5 11.9 19.9 12.4 20.15 12.7" fill="#7bfe75" fill-rule="evenodd" stroke="none"/>
      <path d="M21.0 15.2 L21.0 15.25 20.65 15.45 20.6 15.5 20.55 15.5 20.4 15.6 20.25 15.7 19.95 15.9 19.85 15.95 19.75 16.0 19.5 16.15 19.4 16.25 19.35 16.25 19.35 16.1 19.45 15.75 19.5 15.65 19.85 15.5 20.0 15.5 20.15 15.45 20.25 15.4 20.35 15.4 20.45 15.35 20.55 15.35 21.0 15.2 M21.35 17.6 L21.55 17.65 21.6 17.65 21.65 17.7 21.25 17.75 19.9 17.9 19.8 17.9 19.55 17.9 19.45 17.9 19.4 17.9 19.2 17.9 19.1 17.9 18.4 17.85 18.4 17.75 18.2 17.4 18.15 17.3 17.8 16.6 17.75 16.6 17.65 16.45 17.5 16.2 17.1 15.7 16.95 15.5 16.85 15.4 16.6 15.2 16.55 15.2 15.95 14.8 15.45 14.5 15.4 14.5 15.05 14.35 14.85 14.25 14.45 14.05 14.35 14.0 14.25 13.9 14.05 13.6 14.1 13.6 14.55 13.75 14.95 13.95 15.5 14.15 15.6 14.2 16.05 14.4 16.1 14.45 16.7 14.7 16.8 14.7 17.0 14.8 17.0 14.85 17.3 15.2 17.85 16.0 18.05 16.3 18.45 16.8 18.8 17.4 18.95 17.45 19.0 17.45 19.95 17.65 20.05 17.65 20.85 17.7 21.25 17.65 21.35 17.65 21.35 17.6 M13.8 9.45 L13.95 9.55 14.0 9.6 14.45 10.45 14.75 10.95 14.8 11.0 14.9 11.2 14.95 11.3 15.0 11.45 15.0 11.5 15.05 11.5 15.1 11.6 15.2 11.8 15.2 11.85 15.3 11.85 15.45 11.9 15.45 11.95 15.6 12.0 15.85 12.1 15.95 12.2 16.0 12.45 16.0 12.5 15.85 12.45 15.45 12.3 15.4 12.25 15.05 12.1 14.4 11.8 14.25 11.3 14.2 11.0 14.1 10.8 14.1 10.7 14.05 10.55 13.95 10.05 13.85 9.55 13.8 9.45 M18.85 13.55 L18.85 13.9 18.75 13.9 18.55 13.9 18.4 13.85 18.35 13.85 17.65 13.6 17.55 13.4 17.35 13.0 17.25 12.6 17.1 12.05 17.05 11.9 17.05 11.85 17.0 11.7 17.0 11.6 16.95 11.25 16.85 10.5 17.15 10.6 17.7 10.85 17.75 11.1 17.75 11.2 17.75 11.35 17.75 11.45 17.75 11.55 17.75 11.6 17.8 11.95 17.85 12.5 18.0 13.35 18.05 13.5 18.2 13.6 18.3 13.65 18.35 13.7 18.45 13.75 18.5 13.75 18.75 13.9 18.85 13.55" fill="#089862" fill-rule="evenodd" stroke="none"/>
      <path d="M20.65 15.45 L20.7 15.55 20.7 15.6 20.7 15.9 20.7 15.95 20.65 16.35 20.55 16.6 Q20.35 16.95 20.0 16.95 L19.8 16.9 19.75 16.9 19.65 16.8 19.6 16.75 19.55 16.7 19.55 16.65 19.55 16.7 19.5 16.65 19.55 16.65 19.7 16.5 19.85 16.6 19.9 16.65 20.05 16.65 20.15 16.65 20.2 16.65 20.45 16.5 20.5 16.45 20.55 16.35 20.6 16.15 20.6 15.9 20.6 15.85 20.6 15.65 20.55 15.5 20.6 15.5 20.65 15.45 M16.95 15.5 L17.1 15.7 16.7 16.45 15.95 16.8 15.05 16.65 15.0 16.6 14.8 16.45 14.75 16.4 14.6 16.25 14.5 16.15 14.45 16.05 14.35 15.95 14.3 15.9 14.05 15.4 14.05 14.95 14.05 14.8 14.4 14.9 14.35 15.0 14.45 15.6 14.55 15.8 14.6 15.95 14.7 16.0 14.8 16.15 14.85 16.2 14.85 16.25 15.2 16.45 15.35 16.45 15.4 16.5 15.85 16.55 16.3 16.45 16.5 16.35 16.6 16.25 16.85 15.85 16.95 15.5" fill="#fff83f" fill-rule="evenodd" stroke="none"/>
      <path d="M19.5 16.15 L19.75 16.0 19.85 15.95 19.95 15.9 20.25 15.7 20.4 15.6 20.55 15.5 20.6 15.65 20.6 15.85 20.6 15.9 20.6 16.15 20.5 16.15 20.45 15.85 20.45 15.75 20.4 15.6 20.45 15.75 20.35 15.85 20.1 16.1 20.05 16.1 20.0 16.05 19.9 16.05 19.85 16.1 19.85 16.25 19.85 16.35 19.7 16.5 19.6 16.3 19.55 16.25 19.5 16.15 M14.85 14.25 L15.05 14.35 15.4 14.5 15.45 14.5 15.95 14.8 16.55 15.2 16.6 15.2 16.85 15.4 16.95 15.5 16.85 15.85 16.6 16.25 16.5 16.35 16.3 16.45 15.85 16.55 15.4 16.5 15.45 16.45 15.6 16.45 16.2 16.3 16.4 16.15 16.6 15.75 16.3 15.6 16.0 15.45 15.85 15.4 15.7 15.35 15.55 15.3 15.45 15.25 15.3 15.2 15.25 15.1 15.2 15.05 15.15 15.0 15.0 14.95 14.9 15.0 14.9 15.05 14.85 15.05 14.8 15.0 14.6 14.95 Q14.65 14.65 14.85 14.3 L14.85 14.25" fill="#270f09" fill-rule="evenodd" stroke="none"/>
      <path d="M20.6 16.15 L20.55 16.35 20.5 16.45 20.45 16.5 20.2 16.65 20.15 16.65 20.05 16.65 19.9 16.65 19.85 16.6 19.7 16.5 19.85 16.35 19.85 16.45 19.95 16.45 20.0 16.4 20.05 16.4 20.05 16.35 20.25 16.3 20.35 16.0 20.35 15.85 20.45 15.75 20.45 15.85 20.5 16.15 20.6 16.15 M20.5 16.45 L20.5 16.15 20.5 16.45 M14.95 15.4 L15.05 15.65 15.1 15.7 15.4 16.0 15.7 16.05 16.1 15.9 16.3 15.6 16.6 15.75 16.4 16.15 16.2 16.3 15.6 16.45 15.45 16.45 15.4 16.5 15.35 16.45 15.25 16.4 14.95 16.2 14.9 16.15 14.85 16.15 14.85 16.1 14.7 15.8 14.65 15.65 14.6 15.4 14.6 15.35 14.6 15.1 14.6 14.95 14.8 15.0 14.85 15.05 14.85 15.15 14.85 15.3 14.95 15.4" fill="#5a1c11" fill-rule="evenodd" stroke="none"/>
      <path d="M20.35 15.85 L20.35 16.0 20.25 16.3 20.05 16.35 20.1 16.2 20.05 16.1 20.1 16.1 20.35 15.85 M15.3 15.2 L15.45 15.25 15.55 15.3 15.7 15.35 15.85 15.4 16.0 15.45 16.3 15.6 16.1 15.9 15.7 16.05 15.4 16.0 15.1 15.7 15.05 15.65 14.95 15.4 15.15 15.45 15.25 15.45 15.3 15.3 15.3 15.2" fill="#6d2214" fill-rule="evenodd" stroke="none"/>
      <path d="M20.55 16.6 L20.55 16.7 20.3 17.15 20.3 17.2 20.25 17.2 20.15 17.15 19.75 16.9 19.8 16.9 20.0 16.95 Q20.35 16.95 20.55 16.6 M13.3 20.3 L12.85 20.5 12.7 20.6 12.45 20.95 12.45 21.0 12.35 21.2 12.45 21.55 12.5 21.7 12.5 21.75 12.55 21.75 12.55 21.85 12.6 21.95 12.0 21.7 12.0 21.6 12.0 21.55 12.05 20.9 12.05 20.85 12.1 20.6 12.15 20.6 12.5 20.4 13.4 20.1 13.3 20.3 M19.55 16.7 L19.6 16.75 19.55 16.75 19.45 16.65 19.45 16.55 19.45 16.5 19.5 16.6 19.5 16.65 19.55 16.7 M17.1 15.7 L17.5 16.2 17.65 16.45 17.75 16.6 17.8 16.6 18.15 17.3 18.05 17.3 17.95 17.35 17.9 17.35 17.85 17.3 17.7 17.1 17.45 16.85 17.4 16.8 17.15 16.55 17.15 16.5 16.95 16.6 16.65 16.75 16.6 16.75 16.55 16.8 16.4 16.85 16.35 16.9 16.3 16.9 16.2 16.95 16.1 16.95 16.0 16.95 15.85 16.95 15.55 16.9 15.1 16.8 14.7 16.6 14.3 16.2 14.15 16.0 13.9 15.0 13.65 15.5 13.6 15.5 Q13.65 15.95 14.1 16.4 L14.15 16.45 14.75 16.85 15.1 16.95 15.55 17.05 15.8 17.05 15.85 17.05 16.0 17.05 15.9 17.15 15.85 17.25 15.75 17.45 15.7 17.45 15.6 17.7 15.5 18.15 15.45 18.05 15.25 17.7 15.15 17.55 15.15 17.5 14.6 17.2 14.5 17.15 14.35 17.05 14.0 16.85 13.8 16.4 13.7 16.25 13.65 16.15 13.4 15.65 13.1 15.1 13.05 14.95 13.25 14.65 13.4 14.5 13.7 14.25 14.2 13.95 14.25 13.95 14.15 14.2 14.1 14.4 14.1 14.55 14.05 14.6 14.05 14.7 14.05 14.8 14.05 14.95 14.05 15.4 14.3 15.9 14.25 15.95 14.35 16.1 15.0 16.65 15.05 16.65 15.0 16.65 15.0 16.6 15.05 16.65 15.95 16.8 16.7 16.45 17.1 15.7 M15.45 19.05 L15.55 19.1 15.45 19.1 15.45 19.05 M19.45 16.55 L19.5 16.6 19.45 16.55 M14.05 15.4 L14.25 15.95 14.05 15.4 M17.4 19.7 L17.3 19.7 17.3 19.65 17.4 19.7" fill="#1d4487" fill-rule="evenodd" stroke="none"/>
      <path d="M12.25 10.35 L12.3 9.95 12.4 9.5 12.7 9.3 12.7 9.95 12.7 10.0 Q13.05 9.75 13.5 9.65 L13.55 9.6 13.55 9.7 13.65 10.4 13.65 10.5 13.65 10.6 13.85 11.3 13.9 11.4 13.9 11.5 14.05 11.8 14.4 12.35 14.55 12.55 14.95 13.0 15.65 13.55 15.75 13.6 16.15 13.9 16.4 14.05 16.85 14.35 16.95 14.4 17.2 14.6 17.7 15.15 17.8 15.3 17.95 15.6 18.3 16.05 18.45 16.35 18.55 16.5 18.75 16.8 18.85 16.9 18.9 17.05 18.85 17.05 18.9 17.1 19.1 17.2 19.35 17.25 19.4 17.3 19.7 17.35 19.95 17.4 20.0 17.45 20.1 17.45 20.15 17.45 20.75 17.55 21.0 17.6 21.25 17.65 20.85 17.7 20.05 17.65 19.95 17.65 19.0 17.45 18.95 17.45 18.8 17.4 18.45 16.8 18.05 16.3 17.85 16.0 17.3 15.2 17.0 14.85 17.0 14.8 16.8 14.7 16.7 14.7 16.15 14.4 15.05 13.5 14.85 13.3 14.75 13.35 14.65 13.35 14.55 13.3 14.4 13.05 14.4 12.95 14.45 12.9 14.3 12.75 13.75 12.15 13.7 12.1 13.7 12.05 13.65 12.05 13.65 12.0 13.4 12.1 12.75 11.9 12.7 11.85 12.65 11.75 12.45 11.2 Q12.45 10.9 12.6 10.75 L12.8 10.65 12.85 10.65 12.7 10.35 12.7 10.15 12.7 10.1 12.7 10.0 12.6 10.05 12.55 10.1 12.25 10.35 M14.05 13.6 L14.25 13.9 14.35 14.0 14.3 14.0 14.25 13.95 14.2 13.95 13.7 14.25 13.4 14.5 13.25 14.65 13.05 14.95 13.0 14.9 12.75 14.6 13.4 14.05 13.75 13.8 14.05 13.6" fill="#08bd64" fill-rule="evenodd" stroke="none"/>
      <path d="M19.15 21.65 L18.95 21.75 18.95 21.65 19.05 21.45 19.1 21.5 19.15 21.6 19.15 21.65 M14.55 22.4 L14.0 22.3 14.0 22.05 14.5 22.0 14.6 21.95 14.8 21.95 14.85 21.9 15.0 21.9 15.35 21.75 15.35 21.55 15.4 21.65 15.45 21.7 15.45 21.8 15.55 21.95 15.8 22.3 15.85 22.45 15.75 22.4 15.4 22.3 15.05 22.2 15.0 22.2 14.8 22.25 14.55 22.4 M12.0 11.4 L12.05 11.15 12.05 11.0 12.25 10.35 12.55 10.1 12.6 10.05 12.7 10.0 12.7 10.1 12.7 10.15 12.7 10.35 12.85 10.65 12.8 10.65 12.6 10.75 Q12.45 10.9 12.45 11.2 L12.65 11.75 12.7 11.85 12.75 11.9 13.4 12.1 13.65 12.0 13.65 12.05 13.7 12.05 13.7 12.1 13.75 12.15 14.3 12.75 14.45 12.9 14.4 12.95 14.4 13.05 14.55 13.3 14.65 13.35 14.75 13.35 14.85 13.3 15.05 13.5 16.15 14.4 16.7 14.7 16.1 14.45 16.05 14.4 15.6 14.2 15.5 14.15 14.95 13.95 14.55 13.75 14.1 13.6 14.05 13.6 13.75 13.8 13.4 14.05 12.75 14.6 12.65 14.75 12.6 14.45 12.4 14.3 12.3 14.2 12.25 14.15 11.5 13.7 11.55 13.55 11.75 12.7 11.85 12.25 11.85 12.2 11.85 12.1 11.9 11.95 12.0 11.4 M12.85 12.25 L12.85 12.15 12.85 12.1 12.75 12.1 12.7 12.1 12.65 12.2 12.75 12.3 12.8 12.3 12.85 12.25 M13.0 12.35 L13.0 12.4 13.1 12.6 13.3 12.7 13.45 12.65 13.6 12.5 13.6 12.45 13.65 12.15 13.25 12.2 Q13.0 12.2 13.0 12.35 M15.35 21.75 L15.45 21.7 15.35 21.75" fill="#007762" fill-rule="evenodd" stroke="none"/>
      <path d="M14.0 22.3 L13.8 22.25 13.8 22.05 13.8 21.8 13.85 21.9 13.9 21.9 14.0 22.05 14.0 22.3 M13.0 18.75 L12.8 18.5 12.55 18.25 12.45 18.15 11.8 17.45 11.75 17.4 11.65 17.3 11.65 17.25 11.3 16.65 Q10.65 15.2 11.2 13.6 L11.4 13.05 11.45 13.0 11.3 13.9 11.3 13.95 11.25 14.6 11.25 14.85 11.3 15.65 12.25 17.4 12.4 17.55 12.8 18.0 13.4 18.3 13.45 18.35 13.55 18.4 14.15 18.65 14.25 18.7 14.95 19.0 15.05 19.0 15.45 19.1 15.55 19.1 15.6 19.1 15.95 19.25 16.25 19.35 16.3 19.4 16.35 19.5 16.15 19.5 15.75 19.45 15.6 19.45 14.75 19.35 14.1 19.15 13.5 18.95 13.3 18.85 13.2 18.85 13.05 18.8 13.0 18.75 M11.75 12.25 L11.8 12.2 11.8 12.1 11.85 11.95 12.0 11.4 11.9 11.95 11.85 12.1 11.85 12.2 11.85 12.25 11.75 12.25" fill="#839cad" fill-rule="evenodd" stroke="none"/>
      <path d="M11.45 13.0 L11.55 12.7 11.75 12.25 11.85 12.25 11.75 12.7 11.55 13.55 11.5 13.7 12.25 14.15 12.3 14.2 12.4 14.3 12.6 14.45 12.65 14.75 12.9 15.9 13.15 16.45 13.15 16.5 13.55 17.1 13.7 17.35 14.05 17.5 14.5 17.7 14.8 17.85 14.85 17.85 14.9 18.2 15.15 18.6 15.35 18.9 15.45 19.05 15.45 19.1 15.05 19.0 14.95 19.0 14.25 18.7 14.15 18.65 13.55 18.4 13.45 18.35 13.4 18.3 12.8 18.0 12.4 17.55 12.25 17.4 11.3 15.65 11.25 14.85 11.25 14.6 11.3 13.95 11.3 13.9 11.45 13.0" fill="#00857b" fill-rule="evenodd" stroke="none"/>
      <path d="M19.5 15.65 L19.45 15.75 19.35 16.1 19.35 16.25 19.35 16.3 19.4 16.45 19.3 16.45 19.25 16.4 Q19.0 16.4 18.95 16.55 L18.9 16.65 19.0 16.85 19.1 16.95 19.2 17.0 19.5 17.15 19.6 17.2 19.95 17.35 20.05 17.35 20.1 17.4 20.15 17.4 20.75 17.55 20.15 17.45 20.1 17.45 20.0 17.45 19.95 17.4 19.7 17.35 19.4 17.3 19.35 17.25 19.1 17.2 18.9 17.1 18.85 17.05 18.9 17.05 18.85 16.9 18.75 16.8 18.55 16.5 18.45 16.35 18.3 16.05 17.95 15.6 17.8 15.3 17.7 15.15 17.2 14.6 16.95 14.4 16.85 14.35 16.4 14.05 16.15 13.9 15.75 13.6 15.65 13.55 14.95 13.0 14.55 12.55 14.4 12.35 14.05 11.8 13.9 11.5 13.9 11.4 13.85 11.3 13.65 10.6 13.65 10.5 13.65 10.4 13.55 9.7 13.55 9.6 13.85 9.55 13.95 10.05 14.05 10.55 14.1 10.7 14.1 10.8 14.2 11.0 14.25 11.3 14.4 11.8 15.05 12.1 15.4 12.25 15.45 12.3 15.85 12.45 16.0 12.5 16.0 12.45 15.95 12.2 16.2 12.35 16.35 12.4 16.4 12.45 16.4 12.3 16.4 12.25 16.35 11.45 16.3 11.1 16.3 10.85 16.2 10.8 16.25 10.75 16.25 10.65 16.2 10.4 16.2 10.35 16.3 10.4 16.85 10.5 16.95 11.25 17.0 11.6 17.0 11.7 17.05 11.85 16.85 12.1 16.7 12.5 16.65 12.75 16.65 12.8 Q16.65 13.45 16.95 14.05 L17.05 14.25 17.55 14.9 18.0 15.3 18.15 15.4 18.45 15.5 19.2 15.65 19.45 15.65 19.5 15.65 M16.3 10.85 L16.25 10.75 16.3 10.85 M15.5 18.15 L15.55 18.2 16.0 18.95 16.25 19.35 15.95 19.25 15.6 19.1 15.55 19.1 15.45 19.05 15.35 18.9 15.15 18.6 14.9 18.2 14.85 17.85 15.05 17.6 15.15 17.55 15.25 17.7 15.45 18.05 15.5 18.15 M13.1 15.1 L13.0 15.1 13.1 15.55 13.4 16.3 13.35 16.35 13.2 16.45 13.15 16.45 12.9 15.9 12.65 14.75 12.75 14.6 13.0 14.9 13.05 14.95 13.1 15.1" fill="#0edc5d" fill-rule="evenodd" stroke="none"/>
      <path d="M15.85 22.45 L15.65 22.45 14.55 22.4 14.8 22.25 15.0 22.2 15.05 22.2 15.4 22.3 15.75 22.4 15.85 22.45 M12.85 12.25 L12.8 12.3 12.75 12.3 12.65 12.2 12.7 12.1 12.75 12.1 12.85 12.1 12.85 12.15 12.85 12.25 M13.0 12.35 Q13.0 12.2 13.25 12.2 L13.65 12.15 13.6 12.45 13.6 12.5 13.45 12.65 13.3 12.7 13.1 12.6 13.0 12.4 13.0 12.35" fill="#0aa86b" fill-rule="evenodd" stroke="none"/>
      <path d="M19.8 8.4 L19.8 8.2 19.85 8.2 19.85 8.25 19.8 8.4 M19.85 8.15 L19.85 8.05 19.9 8.05 19.85 8.15" fill="#dd945a" fill-rule="evenodd" stroke="none"/>
      <path d="M17.7 10.85 L17.85 10.85 17.75 11.1 17.7 10.85" fill="#ffd377" fill-opacity="0.8" fill-rule="evenodd" stroke="none"/>
      <path d="M18.85 10.95 L19.0 10.95 19.0 11.0 18.85 10.95" fill="#ad7447" fill-rule="evenodd" stroke="none"/>
      <path d="M10.1 20.5 L9.75 20.15 9.6 20.0 9.45 19.85 9.55 19.65 10.0 20.35 10.1 20.5 M9.35 19.7 L8.8 19.1 Q9.0 18.95 9.15 18.9 L9.3 19.2 9.35 19.35 9.4 19.4 9.4 19.45 9.45 19.45 9.35 19.7 M8.75 19.0 L8.0 17.75 8.15 17.7 8.7 17.55 8.15 17.5 7.85 17.5 7.4 15.85 7.75 15.5 7.9 15.25 8.35 15.4 8.85 15.6 8.9 15.6 9.05 15.65 9.15 15.7 9.1 16.35 8.95 17.5 8.95 17.55 8.9 17.6 8.9 17.75 8.9 17.95 9.05 18.6 9.05 18.65 8.75 18.95 8.75 19.0 M8.15 10.95 L8.35 10.6 8.55 10.95 9.35 12.45 9.65 12.95 10.0 13.6 10.3 14.0 10.4 14.1 10.1 14.6 9.2 13.5 8.85 13.05 8.8 12.95 8.6 12.7 8.5 12.15 8.15 11.0 8.15 10.95 M8.7 13.15 L8.95 13.5 9.05 13.7 9.9 14.85 9.55 15.2 9.15 15.0 8.85 14.85 8.5 14.65 8.4 14.6 8.8 14.05 8.7 13.15 M8.35 14.7 L8.45 14.75 8.85 15.0 9.0 15.1 9.15 15.2 9.4 15.35 9.25 15.5 9.15 15.5 8.85 15.4 8.0 15.1 8.1 15.0 8.35 14.7 M10.2 20.25 L9.6 19.35 9.35 18.8 9.3 18.7 9.3 18.65 9.25 18.5 9.2 18.5 9.2 18.25 9.1 17.35 9.15 16.4 9.15 16.2 9.25 16.05 9.35 15.8 9.4 15.75 9.45 15.6 9.45 15.55 9.55 15.45 9.65 15.25 9.8 15.05 9.95 14.9 10.15 14.7 Q10.35 14.5 10.5 14.4 L10.25 15.15 10.1 15.5 9.7 17.4 Q9.7 18.85 10.4 20.15 L10.2 20.25" fill="#e5f08c" fill-opacity="0.7019608" fill-rule="evenodd" stroke="none"/>
      <path d="M7.3 15.05 L7.3 14.9 7.35 14.9 7.35 14.95 7.3 15.05 M7.3 14.1 L7.3 13.95 7.35 13.95 7.4 14.0 7.35 14.1 7.3 14.1 M7.8 11.75 L7.8 11.65 7.9 11.7 8.1 12.05 8.2 12.2 8.3 12.3 8.6 12.7 8.8 12.95 8.65 13.1 8.1 12.25 8.0 12.15 7.8 11.8 7.8 11.75" fill="#ba5138" fill-rule="evenodd" stroke="none"/>
      <path d="M10.55 20.8 L10.1 20.5 10.0 20.35 9.55 19.65 9.45 19.85 9.35 19.7 9.45 19.45 9.4 19.45 9.4 19.4 9.35 19.35 9.3 19.2 9.15 18.9 Q9.0 18.95 8.8 19.1 L8.75 19.0 8.75 18.95 9.1 18.7 9.05 18.65 9.05 18.6 8.9 17.95 8.9 17.75 8.9 17.6 8.95 17.55 8.95 17.5 9.1 16.35 9.15 15.7 9.05 15.65 8.9 15.6 8.85 15.6 8.35 15.4 7.9 15.25 7.65 15.15 7.3 15.05 7.35 14.95 7.35 14.9 7.4 14.9 7.6 15.0 8.0 15.1 8.85 15.4 9.15 15.5 9.25 15.5 9.4 15.35 9.15 15.2 9.0 15.1 8.85 15.0 8.45 14.75 8.35 14.7 7.7 14.3 7.75 14.25 8.4 14.6 8.5 14.65 8.85 14.85 9.15 15.0 9.55 15.2 9.9 14.85 9.05 13.7 8.95 13.5 8.7 13.15 8.65 13.1 8.8 12.95 8.85 13.05 9.2 13.5 10.1 14.6 10.4 14.1 10.6 14.25 10.65 14.3 10.5 14.4 Q10.35 14.5 10.15 14.7 L9.95 14.9 9.8 15.05 9.65 15.25 9.55 15.45 9.45 15.55 9.45 15.6 9.4 15.75 9.35 15.8 9.25 16.05 9.15 16.2 9.15 16.4 9.1 17.35 9.2 18.25 9.2 18.5 9.25 18.5 9.3 18.65 9.3 18.7 9.35 18.8 9.6 19.35 10.2 20.25 10.25 20.3 10.6 20.7 10.6 20.75 10.55 20.8" fill="#a02c2e" fill-rule="evenodd" stroke="none"/>
      <path d="M7.75 14.25 L7.7 14.3 7.35 14.1 7.4 14.0 7.75 14.25" fill="#ce5a3f" fill-rule="evenodd" stroke="none"/>
      <path d="M10.65 14.3 L10.75 14.35 10.4 15.2 10.3 15.45 10.3 15.55 Q10.1 16.15 10.15 16.8 L10.2 17.2 Q10.35 18.35 11.05 19.3 L11.35 19.7 11.6 19.95 Q11.25 20.15 10.85 20.5 L10.75 20.5 10.85 20.5 10.85 20.55 10.75 20.5 10.7 20.6 10.7 20.55 10.4 20.15 Q9.7 18.85 9.7 17.4 L10.1 15.5 10.25 15.15 10.5 14.4 10.65 14.3" fill="#cbf08c" fill-opacity="0.9098039" fill-rule="evenodd" stroke="none"/>
      <path d="M20.05 16.35 L20.05 16.4 20.0 16.4 19.95 16.45 19.85 16.45 19.85 16.35 19.85 16.25 19.85 16.1 19.9 16.05 20.0 16.05 20.05 16.1 20.1 16.2 20.05 16.35 M15.3 15.2 L15.3 15.3 15.25 15.45 15.15 15.45 14.95 15.4 14.85 15.3 14.85 15.15 14.85 15.05 14.9 15.05 14.9 15.0 15.0 14.95 15.15 15.0 15.2 15.05 15.25 15.1 15.3 15.2" fill="#e3ffb9" fill-rule="evenodd" stroke="none"/>
      <path d="M19.9 17.9 L19.85 17.95 19.8 17.95 19.8 17.9 19.9 17.9 M19.45 21.5 L19.15 21.65 19.15 21.6 19.1 21.5 19.05 21.45 19.05 21.35 19.1 21.15 19.25 21.3 19.4 21.4 19.4 21.45 19.45 21.5 M12.0 21.7 L11.2 21.25 11.2 21.2 11.45 20.75 11.55 20.65 12.1 20.3 12.45 19.95 12.4 19.65 12.45 19.6 12.6 19.7 12.9 19.85 13.15 19.95 13.25 19.9 13.5 19.8 13.6 19.75 13.65 19.75 13.7 19.7 13.6 19.85 13.5 19.95 13.45 20.0 13.55 20.05 13.45 20.05 13.4 20.1 12.5 20.4 12.15 20.6 12.1 20.6 12.05 20.85 12.05 20.9 12.0 21.55 12.0 21.6 12.0 21.7 M18.15 17.3 L18.2 17.4 18.4 17.75 18.4 17.85 19.1 17.9 18.3 17.85 17.6 17.5 17.4 17.4 17.0 17.1 16.95 17.05 16.75 17.0 16.65 17.1 16.55 17.25 16.5 17.25 16.2 17.55 16.25 17.75 16.3 17.9 16.35 18.1 16.45 18.45 16.5 18.5 16.65 18.6 16.9 18.8 17.0 18.9 17.3 19.1 17.4 19.15 17.6 19.35 17.4 19.35 17.1 19.4 16.95 19.4 16.45 19.4 16.4 19.4 16.3 19.4 16.25 19.35 16.0 18.95 15.55 18.2 15.5 18.15 15.6 17.7 15.7 17.45 15.75 17.45 15.85 17.25 15.9 17.15 16.0 17.05 15.85 17.05 15.8 17.05 15.55 17.05 15.1 16.95 14.75 16.85 14.15 16.45 14.1 16.4 Q13.65 15.95 13.6 15.5 L13.65 15.5 13.9 15.0 14.15 16.0 14.3 16.2 14.7 16.6 15.1 16.8 15.55 16.9 15.85 16.95 16.0 16.95 16.1 16.95 16.2 16.95 16.3 16.9 16.35 16.9 16.4 16.85 16.55 16.8 16.6 16.75 16.65 16.75 16.95 16.6 17.15 16.5 17.15 16.55 17.4 16.8 17.45 16.85 17.7 17.1 17.85 17.3 17.9 17.35 17.95 17.35 18.05 17.3 18.15 17.3 M13.45 20.0 L13.45 20.05 13.45 20.0 M18.75 20.6 L18.8 20.65 18.85 20.75 18.95 21.0 18.65 20.75 18.45 20.6 18.05 20.4 18.3 20.3 18.35 20.35 18.45 20.45 18.55 20.5 18.65 20.55 18.75 20.6" fill="#0065bf" fill-rule="evenodd" stroke="none"/>
      <path d="M19.35 16.25 L19.4 16.25 19.5 16.15 19.55 16.25 19.6 16.3 19.7 16.5 19.55 16.65 19.5 16.65 19.5 16.6 19.45 16.5 19.4 16.5 19.4 16.45 19.35 16.3 19.35 16.25 M14.35 14.0 L14.45 14.05 14.85 14.25 14.85 14.3 Q14.65 14.65 14.6 14.95 L14.6 15.1 14.6 15.35 14.6 15.4 14.65 15.65 14.7 15.8 14.85 16.1 14.85 16.15 14.9 16.15 14.95 16.2 15.25 16.4 15.35 16.45 15.2 16.45 14.85 16.25 14.85 16.2 14.8 16.15 14.7 16.0 14.6 15.95 14.55 15.8 14.45 15.6 14.35 15.0 14.4 14.9 14.05 14.8 14.05 14.7 14.05 14.6 14.1 14.55 14.1 14.4 14.15 14.2 14.25 13.95 14.3 14.0 14.35 14.0 M19.4 16.25 L19.4 16.35 19.4 16.45 19.4 16.35 19.4 16.25 M14.3 14.0 L14.1 14.4 14.3 14.0 M14.3 15.9 L14.35 15.95 14.45 16.05 14.5 16.15 14.6 16.25 14.75 16.4 14.8 16.45 15.0 16.6 15.0 16.65 14.35 16.1 14.25 15.95 14.3 15.9" fill="#cc832e" fill-rule="evenodd" stroke="none"/>
      <path d="M19.85 17.95 L19.8 18.1 19.75 18.25 19.7 18.3 19.7 18.25 19.6 17.95 19.55 17.9 19.8 17.9 19.8 17.95 19.85 17.95 M19.95 21.25 L19.5 21.5 19.4 21.45 19.4 21.4 19.25 21.3 19.1 21.15 19.1 21.1 18.95 21.0 18.85 20.75 18.95 20.7 19.15 20.85 19.75 21.15 19.95 21.25 M11.2 21.25 L10.55 20.8 10.6 20.75 10.6 20.7 10.65 20.7 10.65 20.65 10.7 20.6 10.75 20.5 10.85 20.55 10.85 20.5 Q11.25 20.15 11.6 19.95 L11.8 19.9 12.35 19.65 12.4 19.65 12.45 19.95 12.1 20.3 11.55 20.65 11.45 20.75 11.2 21.2 11.2 21.25 M19.1 17.9 L19.2 17.9 19.4 17.9 19.3 17.95 19.15 18.0 19.0 18.05 18.75 18.1 18.45 18.15 18.3 18.15 18.1 18.15 17.9 17.95 17.75 17.9 17.6 17.8 17.55 17.75 17.5 17.75 17.35 17.65 17.3 17.85 17.35 18.15 17.8 18.5 17.9 18.6 18.1 18.7 18.55 18.75 18.85 18.75 19.1 18.65 19.2 18.65 19.45 18.55 19.65 18.45 19.55 18.6 19.45 18.8 19.3 18.9 19.2 19.0 18.8 19.1 18.7 19.15 18.65 19.15 18.35 19.2 18.1 19.25 17.9 19.25 17.85 19.3 17.6 19.35 17.4 19.15 17.3 19.1 17.0 18.9 16.9 18.8 16.65 18.6 16.5 18.5 16.45 18.45 16.35 18.1 16.3 17.9 16.25 17.75 16.2 17.55 16.5 17.25 16.55 17.25 16.65 17.1 16.75 17.0 16.95 17.05 17.0 17.1 17.4 17.4 17.6 17.5 18.3 17.85 19.1 17.9 M10.85 20.55 L10.8 20.65 10.8 20.7 10.75 20.8 10.8 20.85 10.85 20.9 10.9 20.9 11.0 20.8 11.05 20.7 11.05 20.55 11.05 20.5 11.0 20.5 10.9 20.5 10.85 20.55" fill="#04bafc" fill-rule="evenodd" stroke="none"/>
      <path d="M19.4 17.9 L19.45 17.9 19.55 17.9 19.6 17.95 19.7 18.25 19.7 18.3 19.65 18.45 19.45 18.55 19.2 18.65 19.1 18.65 18.85 18.75 18.55 18.75 18.1 18.7 17.9 18.6 17.8 18.5 17.35 18.15 17.3 17.85 17.35 17.65 17.5 17.75 17.55 17.75 17.6 17.8 17.75 17.9 17.9 17.95 18.1 18.15 18.3 18.15 18.45 18.15 18.75 18.1 19.0 18.05 19.15 18.0 19.3 17.95 19.4 17.9 M10.85 20.55 L10.9 20.5 11.0 20.5 11.05 20.5 11.05 20.55 11.05 20.7 11.0 20.8 10.9 20.9 10.85 20.9 10.8 20.85 10.75 20.8 10.8 20.7 10.8 20.65 10.85 20.55" fill="#0df5f5" fill-rule="evenodd" stroke="none"/>
      <path d="M18.0 22.1 L16.9 22.35 16.7 22.2 Q16.3 21.85 16.25 21.4 L16.25 21.35 16.35 21.0 15.55 20.8 15.55 20.7 15.3 20.7 15.3 20.65 15.25 20.65 15.15 20.55 15.05 20.5 14.6 20.05 14.4 19.85 14.25 19.7 14.1 19.55 14.05 19.5 14.0 19.5 14.05 19.5 14.1 19.55 14.25 19.7 14.4 19.85 14.6 20.05 15.05 20.5 15.15 20.55 15.1 20.65 14.95 20.55 14.6 20.4 14.5 20.35 14.45 20.35 14.25 20.25 14.05 20.5 14.0 20.65 14.05 21.05 14.1 21.2 14.15 21.3 14.3 21.6 14.45 21.75 14.55 21.85 13.95 21.9 13.9 21.9 13.85 21.9 13.8 21.8 13.65 21.65 13.85 21.55 13.9 21.5 13.85 21.45 13.8 21.2 13.75 21.0 13.75 20.8 13.75 20.7 13.85 20.25 13.95 20.15 14.05 20.05 14.1 20.0 13.85 19.65 13.95 19.55 14.0 19.5 14.0 19.45 14.05 19.4 14.1 19.25 14.1 19.2 14.1 19.15 14.1 19.2 14.05 19.2 13.85 19.2 13.5 19.2 13.45 19.2 13.05 19.2 13.0 19.4 13.05 19.45 13.25 19.9 13.15 19.95 12.9 19.85 12.6 19.7 12.45 19.6 12.15 19.45 12.25 18.9 12.85 18.75 13.0 18.75 13.05 18.8 13.2 18.85 13.3 18.85 13.5 18.95 14.1 19.15 14.75 19.35 15.6 19.45 15.75 19.45 16.15 19.5 16.35 19.5 16.3 19.4 16.4 19.4 16.45 19.4 16.95 19.4 17.1 19.4 17.4 19.35 17.6 19.35 17.85 19.3 17.9 19.25 18.25 19.45 18.3 19.55 18.35 19.6 18.1 19.6 18.0 19.6 17.9 19.6 17.7 19.65 17.55 19.65 17.4 19.7 17.3 19.65 17.25 19.65 17.15 19.7 16.95 19.7 16.7 19.7 16.35 19.7 15.8 19.65 15.75 19.6 15.6 19.6 15.3 19.5 15.25 19.8 15.2 20.05 15.15 20.1 15.3 20.2 15.45 20.25 15.6 20.3 16.15 20.45 16.6 20.5 16.65 20.5 16.8 20.5 16.7 20.6 16.4 20.75 16.25 20.75 15.55 20.7 16.25 20.75 16.4 20.75 16.65 20.75 16.9 20.7 17.0 20.7 17.15 20.75 17.05 20.9 16.9 21.15 16.9 21.3 16.9 21.35 16.95 21.6 17.0 21.8 17.0 21.85 17.05 21.95 17.05 22.0 17.6 22.1 17.85 22.1 17.9 22.1 18.0 22.1 M17.1 19.4 L17.15 19.45 17.25 19.65 17.15 19.45 17.1 19.4" fill="#b4743a" fill-rule="evenodd" stroke="none"/>
      <path d="M18.8 21.8 L18.55 21.9 18.6 21.7 18.35 21.75 18.25 21.75 17.9 21.7 17.55 21.5 17.35 21.1 17.35 20.95 17.4 20.8 17.5 20.6 17.5 20.55 17.6 20.5 17.4 20.3 17.45 20.15 17.45 20.05 17.5 20.1 17.85 20.3 17.9 20.3 17.95 20.35 17.9 20.35 17.75 20.4 17.65 20.45 17.6 20.5 17.8 20.65 17.85 20.7 18.2 21.05 18.1 21.1 17.9 21.25 17.95 21.35 18.05 21.3 18.45 21.2 18.6 21.65 18.6 21.7 18.8 21.55 19.0 21.4 19.05 21.35 19.05 21.45 18.95 21.65 18.8 21.8 M14.1 19.2 L14.1 19.25 14.05 19.4 14.0 19.45 14.0 19.5 13.95 19.55 13.85 19.65 13.7 19.7 13.65 19.75 13.6 19.75 13.5 19.8 13.25 19.9 13.05 19.45 13.0 19.4 13.05 19.2 13.45 19.2 13.5 19.2 13.85 19.2 14.05 19.2 14.1 19.2 M14.8 21.95 L14.7 21.85 14.65 21.8 14.55 21.45 14.55 21.35 14.6 21.15 14.6 21.05 Q14.65 20.95 14.75 20.95 14.8 20.85 14.9 20.85 L15.05 20.9 15.25 21.0 15.35 21.1 15.35 21.25 15.35 21.35 15.35 21.55 15.35 21.75 15.0 21.9 14.85 21.9 14.8 21.95 M18.45 19.8 L18.5 20.1 18.3 20.15 18.15 20.15 18.0 20.15 17.95 20.1 17.9 20.1 17.7 19.9 17.7 19.85 17.75 19.7 17.85 19.65 17.9 19.65 18.0 19.6 18.1 19.6 18.3 19.7 18.35 19.8 18.45 19.8 M17.15 19.9 L17.1 20.05 17.05 20.1 16.85 20.15 16.9 20.2 17.0 20.25 17.0 20.3 16.65 20.35 16.6 20.35 15.95 20.2 15.7 19.95 15.8 19.9 16.3 19.8 16.4 19.8 16.9 19.85 17.15 19.9" fill="#ffff31" fill-rule="evenodd" stroke="none"/>
      <path d="M16.9 22.35 L15.85 22.45 15.8 22.3 15.55 21.95 15.45 21.8 15.45 21.7 15.4 21.65 15.35 21.55 15.35 21.35 15.35 21.25 15.35 21.1 15.35 20.95 15.35 20.85 15.35 20.75 15.55 20.8 16.35 21.0 16.25 21.35 16.25 21.4 Q16.3 21.85 16.7 22.2 L16.9 22.35 M13.65 21.65 L13.35 21.1 13.25 20.95 13.15 20.7 13.2 20.5 13.25 20.45 13.3 20.35 13.3 20.3 13.4 20.1 13.45 20.05 13.55 20.05 13.45 20.0 13.5 19.95 13.6 19.85 13.7 19.7 13.85 19.65 14.1 20.0 14.05 20.05 13.95 20.15 13.85 20.25 13.75 20.7 13.75 20.8 13.75 21.0 13.8 21.2 13.85 21.45 13.9 21.5 13.85 21.55 13.65 21.65" fill="#b28e51" fill-rule="evenodd" stroke="none"/>
      <path d="M18.95 21.75 L18.8 21.8 18.95 21.65 18.95 21.75 M18.55 21.9 L18.0 22.1 17.9 22.1 17.85 22.1 17.6 22.1 17.05 22.0 17.05 21.95 17.0 21.85 17.0 21.8 16.95 21.6 16.9 21.35 16.9 21.3 16.9 21.15 17.05 20.9 17.15 20.75 17.25 20.55 17.25 20.5 17.35 20.4 17.4 20.3 17.3 20.2 17.25 20.2 17.2 20.25 17.15 20.35 17.1 20.5 17.0 20.7 16.9 20.7 16.65 20.75 16.4 20.75 16.7 20.6 16.8 20.5 16.65 20.5 16.6 20.5 16.15 20.45 15.6 20.3 15.45 20.25 15.3 20.2 15.15 20.1 15.2 20.05 15.25 19.8 15.3 19.5 15.6 19.6 15.75 19.6 15.8 19.65 16.35 19.7 16.7 19.7 16.95 19.7 17.15 19.7 17.25 19.65 17.3 19.65 17.3 19.7 17.4 19.7 17.55 19.65 17.7 19.65 17.9 19.6 18.0 19.6 17.9 19.65 17.85 19.65 17.75 19.7 17.7 19.85 17.7 19.9 17.9 20.1 17.95 20.1 18.0 20.15 18.15 20.15 18.3 20.15 18.5 20.1 18.5 20.15 18.3 20.3 18.05 20.4 17.95 20.35 17.9 20.3 17.85 20.3 17.5 20.1 17.45 20.05 17.3 20.0 17.4 19.85 17.35 19.8 17.3 19.7 17.35 19.8 17.4 19.85 17.3 20.0 17.45 20.05 17.45 20.15 17.4 20.3 17.6 20.5 17.5 20.55 17.5 20.6 17.4 20.8 17.35 20.95 17.35 21.1 17.55 21.5 17.9 21.7 18.25 21.75 18.35 21.75 18.6 21.7 18.55 21.9 M13.9 21.9 L13.95 21.9 14.55 21.85 14.45 21.75 14.3 21.6 14.15 21.3 14.1 21.2 14.05 21.05 14.0 20.65 14.05 20.5 14.25 20.25 14.45 20.35 14.5 20.35 14.6 20.4 14.95 20.55 15.1 20.65 15.2 20.75 15.25 20.75 15.35 20.85 15.35 20.95 15.35 21.1 15.25 21.0 15.05 20.9 14.9 20.85 Q14.8 20.85 14.75 20.95 14.65 20.95 14.6 21.05 L14.6 21.15 14.55 21.35 14.55 21.45 14.65 21.8 14.7 21.85 14.8 21.95 14.6 21.95 14.5 22.0 14.0 22.05 13.9 21.9 M18.35 19.6 L18.4 19.75 18.45 19.8 18.35 19.8 18.3 19.7 18.1 19.6 18.35 19.6 M17.15 19.9 L16.9 19.85 16.4 19.8 16.3 19.8 15.8 19.9 15.7 19.95 15.95 20.2 16.6 20.35 16.65 20.35 17.0 20.3 17.05 20.3 17.1 20.25 17.15 20.2 17.25 20.2 17.3 20.0 17.15 19.95 17.15 19.9" fill="#fec948" fill-rule="evenodd" stroke="none"/>
      <path d="M15.15 20.55 L15.25 20.65 15.3 20.65 15.3 20.7 15.55 20.7 15.55 20.8 15.35 20.75 15.35 20.85 15.25 20.75 15.2 20.75 15.1 20.65 15.15 20.55 M15.3 20.7 L15.35 20.75 15.3 20.7 M17.25 20.2 L17.3 20.2 17.4 20.3 17.35 20.4 17.25 20.5 17.25 20.55 17.15 20.75 17.0 20.7 17.1 20.5 17.15 20.35 17.2 20.25 17.25 20.2" fill="#c98a31" fill-rule="evenodd" stroke="none"/>
      <path d="M10.4 20.15 L10.7 20.55 10.7 20.6 10.65 20.65 10.65 20.7 10.6 20.7 10.25 20.3 10.2 20.25 10.4 20.15" fill="#e5f08c" fill-opacity="0.9098039" fill-rule="evenodd" stroke="none"/>
      <path d="M17.95 20.35 L18.05 20.4 18.45 20.6 18.65 20.75 18.95 21.0 19.1 21.1 19.1 21.15 19.05 21.35 19.0 21.4 18.8 21.55 18.6 21.7 18.6 21.65 18.45 21.2 18.05 21.3 17.95 21.35 17.9 21.25 18.1 21.1 18.2 21.05 17.85 20.7 17.8 20.65 17.6 20.5 17.65 20.45 17.75 20.4 17.9 20.35 17.95 20.35 M17.0 20.3 L17.0 20.25 16.9 20.2 16.85 20.15 17.05 20.1 17.1 20.05 17.15 19.9 17.15 19.95 17.3 20.0 17.25 20.2 17.15 20.2 17.1 20.25 17.05 20.3 17.0 20.3" fill="#f3ff8a" fill-rule="evenodd" stroke="none"/>
      <path d="M20.55 8.1 L20.55 8.15 20.55 8.3 20.55 8.35 20.55 8.6 20.6 8.85 20.6 8.95 20.6 9.0 20.6 9.15 20.6 9.45 20.55 10.0 20.55 10.2 20.55 10.5 20.55 10.55 M23.2 11.4 L23.05 11.75 23.05 11.8 23.0 11.9 22.9 12.05 M13.85 9.35 L14.15 8.5 14.2 8.45 14.25 8.35 14.3 8.3 14.4 8.15 Q14.75 7.8 15.1 7.75 L15.2 8.0 15.4 8.3 15.9 9.3 15.9 9.35 16.05 9.55 16.05 9.6 M17.85 7.75 L18.05 7.25 18.2 6.9 M22.5 10.65 L22.5 10.6 22.4 10.6 22.0 10.75 21.85 10.85 21.8 10.85 21.6 10.95 21.5 11.05 21.45 11.1 21.25 11.3 21.1 11.4 21.05 11.45 20.85 11.65 20.8 11.7 20.8 11.75 20.7 11.85 20.7 11.9 20.65 11.9 20.65 11.95 M22.2 11.9 L22.25 11.75 22.3 11.5 22.5 10.65 M22.2 11.9 L22.15 12.05 22.15 12.15" fill="none" stroke="#704d3c" stroke-linecap="round" stroke-linejoin="round" stroke-width="0.1"/>
      <path d="M22.9 12.05 L21.2 12.95 21.15 13.0 21.05 13.05 21.0 13.05 20.95 13.1 20.65 13.3 20.5 13.4 M19.75 18.25 L21.65 19.8 21.75 19.9 M13.8 21.8 L13.65 21.65 13.35 21.1 13.25 20.95 13.15 20.7 13.2 20.5 13.25 20.45 13.3 20.35 13.3 20.3 13.4 20.1 13.45 20.05 13.45 20.0 13.5 19.95 13.6 19.85 13.7 19.7 13.65 19.75 13.6 19.75 13.5 19.8 13.25 19.9 13.15 19.95 12.9 19.85 12.6 19.7 12.45 19.6 12.15 19.45 12.25 18.9 12.85 18.75 13.0 18.75 M8.0 17.75 L8.15 17.7 8.7 17.55 8.15 17.5 7.85 17.5 M8.35 10.6 L8.55 10.95 9.35 12.45 9.65 12.95 10.0 13.6 10.3 14.0 10.4 14.1 10.6 14.25 10.65 14.3 10.75 14.35 10.4 15.2 10.3 15.45 10.3 15.55 Q10.1 16.15 10.15 16.8 L10.2 17.2 Q10.35 18.35 11.05 19.3 L11.35 19.7 11.6 19.95 M13.95 9.55 L13.85 9.4 13.85 9.35 M16.05 9.6 L16.1 9.9 16.45 9.0 17.5 8.15 17.85 7.9 17.85 7.85 17.85 7.75 M20.25 10.85 L20.4 10.7 20.45 10.65 20.5 10.6 M20.5 10.55 L20.55 10.55 M21.35 12.45 L21.55 12.35 21.6 12.35 21.75 12.3 21.8 12.3 21.85 12.25 21.95 12.25 22.15 12.15 M20.55 12.4 L20.6 12.25 20.65 11.95 M21.2 12.5 L21.3 12.45 21.35 12.45 M21.0 12.55 L21.05 12.55 21.2 12.5 M20.55 12.4 L20.55 12.7 20.95 12.55 21.0 12.55 M19.1 12.75 L19.05 12.8 19.0 12.95 18.9 13.35 18.85 13.55 18.75 13.9 18.5 13.75 18.45 13.75 18.35 13.7 18.3 13.65 18.2 13.6 18.05 13.5 18.0 13.35 17.85 12.5 17.8 11.95 17.75 11.6 17.75 11.55 17.75 11.45 17.75 11.35 17.75 11.2 17.75 11.1 17.7 10.85 17.7 10.7 17.7 10.6 17.7 10.4 17.7 10.05 17.7 9.85 17.7 9.8 17.7 9.7 17.7 9.55 17.7 9.5 17.7 9.05 17.75 8.8 17.75 8.45 17.75 8.4 17.8 8.2 17.8 8.1 17.85 8.0 17.85 7.9 M16.2 10.4 L16.2 10.35 16.15 10.2 16.1 9.9 M14.8 11.0 L14.75 10.95 14.45 10.45 14.0 9.6 13.95 9.55 M15.95 12.2 L15.85 12.1 15.6 12.0 15.45 11.95 15.45 11.9 15.3 11.85 15.2 11.85 M15.2 11.8 L15.1 11.6 15.05 11.5 15.0 11.5 15.0 11.45 14.95 11.3 14.9 11.2 14.8 11.0 M16.3 11.1 L16.3 10.85 16.25 10.75 16.25 10.65 16.2 10.4 M16.3 11.1 L16.35 11.45 16.4 12.25 16.4 12.3 16.4 12.45 16.35 12.4 16.2 12.35 15.95 12.2 M20.25 10.85 L20.2 10.85 20.05 11.05 19.9 11.25 19.85 11.3 19.85 11.35 19.8 11.45 19.65 11.65 19.6 11.7 19.6 11.75 19.5 11.9 19.2 12.55 19.15 12.65 19.1 12.7 19.1 12.75 M14.1 19.2 L14.1 19.25 14.05 19.4 14.0 19.45 14.0 19.5 14.05 19.5 14.1 19.55 14.25 19.7 14.4 19.85 14.6 20.05 15.05 20.5 15.15 20.55 15.25 20.65 15.3 20.65 15.3 20.7 15.55 20.7 16.25 20.75 16.4 20.75 16.65 20.75 16.9 20.7 17.0 20.7 17.1 20.5 17.15 20.35 17.2 20.25 17.25 20.2 17.3 20.0 17.45 20.05 17.5 20.1 17.85 20.3 17.9 20.3 17.95 20.35 18.05 20.4 18.3 20.3 18.5 20.15 18.5 20.1 18.45 19.8 18.4 19.75 18.35 19.6 18.3 19.55 18.25 19.45 17.9 19.25 M17.25 19.65 L17.15 19.45 17.1 19.4 M14.1 19.2 L14.1 19.15 M13.85 19.65 L13.7 19.7 M13.9 21.9 L14.0 22.05 14.5 22.0 14.6 21.95 14.8 21.95 14.85 21.9 15.0 21.9 15.35 21.75 15.35 21.55 15.35 21.35 15.35 21.25 15.35 21.1 15.35 20.95 15.35 20.85 15.35 20.75 15.3 20.7 M13.85 19.65 L13.95 19.55 M15.85 22.45 L15.8 22.3 15.55 21.95 15.45 21.8 15.45 21.7 15.35 21.75 M13.8 21.8 L13.85 21.9 13.9 21.9 M17.3 19.7 L17.35 19.8 17.4 19.85 17.3 20.0 M18.95 21.0 L18.65 20.75 18.45 20.6 18.05 20.4 M18.95 21.0 L19.1 21.1 19.1 21.15 19.05 21.35 19.05 21.45 18.95 21.65 18.95 21.75 M17.3 19.7 L17.3 19.65 17.25 19.65 M15.45 21.7 L15.4 21.65 15.35 21.55" fill="none" stroke="#54241e" stroke-linecap="round" stroke-linejoin="round" stroke-width="0.1"/>
      <path d="M20.5 13.4 L20.75 14.05 20.8 14.2 20.85 14.45 20.95 14.9 21.0 15.2 21.0 15.25 20.65 15.45 20.6 15.5 20.55 15.5 20.4 15.6 20.25 15.7 19.95 15.9 19.85 15.95 19.75 16.0 19.5 16.15 19.4 16.25 19.35 16.25 19.35 16.3 19.4 16.45 19.4 16.35 19.4 16.25 M20.3 17.2 L21.35 17.6 21.55 17.65 21.6 17.65 21.65 17.7 21.25 17.75 19.9 17.9 19.8 17.9 19.55 17.9 19.45 17.9 M13.8 22.25 L13.8 22.05 13.8 21.8 M13.0 18.75 L12.8 18.5 12.55 18.25 12.45 18.15 11.8 17.45 11.75 17.4 11.65 17.3 11.65 17.25 11.3 16.65 Q10.65 15.2 11.2 13.6 L11.4 13.05 11.45 13.0 11.55 12.7 11.75 12.25 11.8 12.2 11.8 12.1 11.85 11.95 12.0 11.4 12.05 11.15 12.05 11.0 12.25 10.35 12.3 9.95 12.4 9.5 12.45 9.15 12.45 9.05 12.5 8.95 12.75 8.65 12.8 8.55 13.2 9.0 13.25 9.0 13.55 9.25 13.8 9.45 13.95 9.55 M20.35 13.05 L20.25 12.9 20.2 12.8 20.15 12.7 19.9 12.4 19.5 11.9 M20.35 13.1 L20.35 13.05 M20.35 13.1 L20.45 13.25 20.5 13.4 M19.55 16.65 L19.55 16.7 M19.6 16.75 L19.65 16.8 19.75 16.9 20.15 17.15 20.25 17.2 20.3 17.2 M14.35 14.0 L14.45 14.05 14.85 14.25 15.05 14.35 15.4 14.5 15.45 14.5 15.95 14.8 16.55 15.2 16.6 15.2 16.85 15.4 16.95 15.5 17.1 15.7 17.5 16.2 17.65 16.45 17.75 16.6 17.8 16.6 18.15 17.3 18.2 17.4 18.4 17.75 18.4 17.85 19.1 17.9 19.2 17.9 M16.85 10.5 L17.15 10.6 17.7 10.85 M16.85 10.5 L16.3 10.4 16.2 10.35 M15.5 18.15 L15.55 18.2 16.0 18.95 16.25 19.35 16.3 19.4 16.35 19.5 16.15 19.5 15.75 19.45 15.6 19.45 14.75 19.35 14.1 19.15 13.5 18.95 13.3 18.85 13.2 18.85 13.05 18.8 13.0 18.75 M15.5 18.15 L15.45 18.05 15.25 17.7 15.15 17.55 15.15 17.5 14.6 17.2 14.5 17.15 14.35 17.05 14.0 16.85 13.8 16.4 13.7 16.25 13.65 16.15 13.4 15.65 13.1 15.1 13.05 14.95 13.25 14.65 13.4 14.5 13.7 14.25 14.2 13.95 14.25 13.95 14.3 14.0 14.35 14.0 M19.45 16.5 L19.4 16.5 19.4 16.45 M19.5 16.6 L19.45 16.55 19.45 16.5 M19.5 16.6 L19.5 16.65 19.55 16.65 M19.15 21.65 L19.15 21.6 19.1 21.5 19.05 21.45" fill="none" stroke="#244a62" stroke-linecap="round" stroke-linejoin="round" stroke-width="0.1"/>
      <path d="M20.65 15.45 L20.7 15.55 20.7 15.6 20.7 15.9 20.7 15.95 20.65 16.35 20.55 16.6 Q20.35 16.95 20.0 16.95 L19.8 16.9 19.75 16.9 M20.55 15.5 L20.6 15.65 20.6 15.85 20.6 15.9 20.6 16.15 20.55 16.35 20.5 16.45 20.45 16.5 20.2 16.65 20.15 16.65 20.05 16.65 19.9 16.65 19.85 16.6 19.7 16.5 19.6 16.3 19.55 16.25 19.5 16.15 M19.55 16.7 L19.6 16.75 M20.45 15.75 L20.4 15.6 M20.5 16.15 L20.45 15.85 20.45 15.75 M20.5 16.15 L20.5 16.45 M15.4 16.5 L15.85 16.55 16.3 16.45 16.5 16.35 16.6 16.25 16.85 15.85 16.95 15.5 M15.05 16.65 L15.95 16.8 16.7 16.45 17.1 15.7 M15.35 16.45 L15.25 16.4 14.95 16.2 14.9 16.15 14.85 16.15 14.85 16.1 14.7 15.8 14.65 15.65 14.6 15.4 14.6 15.35 14.6 15.1 14.6 14.95 Q14.65 14.65 14.85 14.3 L14.85 14.25 M19.45 16.5 L19.5 16.6 M19.55 16.7 L19.5 16.65 M14.05 14.8 L14.05 14.7 14.05 14.6 14.1 14.55 14.1 14.4 14.3 14.0 M14.05 14.8 L14.05 14.95 14.05 15.4 14.25 15.95 14.35 16.1 15.0 16.65 15.05 16.65" fill="none" stroke="#0b0205" stroke-linecap="round" stroke-linejoin="round" stroke-width="0.1"/>
      <path d="M20.55 16.6 L20.55 16.7 20.3 17.15 20.3 17.2 M19.9 17.9 L19.85 17.95 19.8 18.1 19.75 18.25 19.7 18.3 19.65 18.45 19.55 18.6 19.45 18.8 19.3 18.9 19.2 19.0 18.8 19.1 18.7 19.15 18.65 19.15 18.35 19.2 18.1 19.25 17.9 19.25 17.85 19.3 17.6 19.35 17.4 19.35 17.1 19.4 16.95 19.4 16.45 19.4 16.4 19.4 16.3 19.4 M13.3 20.3 L12.85 20.5 12.7 20.6 12.45 20.95 12.45 21.0 12.35 21.2 12.45 21.55 12.5 21.7 12.5 21.75 12.55 21.75 12.55 21.85 12.6 21.95 M11.6 19.95 L11.8 19.9 12.35 19.65 12.4 19.65 12.45 19.6 M10.7 20.6 L10.75 20.5 10.85 20.5 Q11.25 20.15 11.6 19.95 M10.7 20.6 L10.65 20.65 10.65 20.7 10.6 20.7 10.6 20.75 10.55 20.8 M18.75 20.6 L18.8 20.65 18.9 20.7 18.95 20.7 19.15 20.85 19.75 21.15 19.95 21.25 M18.3 20.3 L18.35 20.35 18.45 20.45 18.55 20.5 18.65 20.55 18.75 20.6" fill="none" stroke="#143c63" stroke-linecap="round" stroke-linejoin="round" stroke-width="0.1"/>
    </g>
    <linearGradient gradientTransform="matrix(0.0048, 0.0, 0.0, 0.0064, 25.6, 9.65)" gradientUnits="userSpaceOnUse" id="gradient0" spreadMethod="pad" x1="-819.2" x2="819.2">
      <stop offset="0.0" stop-color="#14737c"/>
      <stop offset="1.0" stop-color="#48f2e0"/>
    </linearGradient>
    <linearGradient gradientTransform="matrix(0.0047, 0.0, 0.0, 0.0065, 25.8, 20.25)" gradientUnits="userSpaceOnUse" id="gradient1" spreadMethod="pad" x1="-819.2" x2="819.2">
      <stop offset="0.0" stop-color="#14737c"/>
      <stop offset="1.0" stop-color="#48f2e0"/>
    </linearGradient>
    <linearGradient gradientTransform="matrix(0.0066, 0.0, 0.0, 0.0051, 20.35, 4.5)" gradientUnits="userSpaceOnUse" id="gradient2" spreadMethod="pad" x1="-819.2" x2="819.2">
      <stop offset="0.0" stop-color="#14737c"/>
      <stop offset="1.0" stop-color="#48f2e0"/>
    </linearGradient>
    <linearGradient gradientTransform="matrix(0.0066, 0.0, 0.0, 0.0048, 20.35, 25.65)" gradientUnits="userSpaceOnUse" id="gradient3" spreadMethod="pad" x1="-819.2" x2="819.2">
      <stop offset="0.0" stop-color="#14737c"/>
      <stop offset="1.0" stop-color="#48f2e0"/>
    </linearGradient>
  </defs>
</svg>
