<?xml version="1.0" encoding="UTF-8" standalone="no"?>
<svg xmlns:ffdec="https://www.free-decompiler.com/flash" xmlns:xlink="http://www.w3.org/1999/xlink" ffdec:objectType="frame" height="30.25px" width="30.2px" xmlns="http://www.w3.org/2000/svg">
  <g transform="matrix(1.0, 0.0, 0.0, 1.0, 0.2, 0.25)">
    <use ffdec:characterId="1" height="30.25" transform="matrix(1.0, 0.0, 0.0, 1.0, -0.2, -0.25)" width="30.2" xlink:href="#shape0"/>
  </g>
  <defs>
    <g id="shape0" transform="matrix(1.0, 0.0, 0.0, 1.0, 0.2, 0.25)">
      <path d="M0.0 0.0 L30.0 0.0 30.0 30.0 0.0 30.0 0.0 0.0" fill="#33cc66" fill-opacity="0.0" fill-rule="evenodd" stroke="none"/>
      <path d="M14.75 -0.25 L14.85 -0.15 16.35 5.85 Q18.95 6.25 20.9 7.7 L21.1 7.8 25.35 4.55 25.85 4.05 22.85 9.55 Q24.35 11.55 24.6 14.0 L29.15 14.75 29.75 14.85 29.65 14.9 24.6 16.15 Q24.25 18.95 22.35 21.15 L25.85 25.6 20.95 22.45 Q18.7 24.15 15.9 24.4 L14.85 29.65 14.75 29.6 13.7 24.4 Q11.1 24.1 9.1 22.65 L4.3 25.55 4.4 25.45 7.35 20.95 Q5.35 18.6 5.2 15.6 L-0.15 14.75 0.1 14.7 5.3 13.6 Q5.65 11.0 7.55 8.95 L7.7 8.85 7.55 8.9 4.45 4.1 9.3 7.4 Q11.4 6.05 13.7 5.8 L14.75 -0.25 M21.95 21.65 L21.85 21.6 21.85 21.65 21.95 21.65 M23.45 15.1 Q23.45 11.75 20.95 9.3 18.4 6.95 15.0 6.95 11.4 6.95 8.95 9.3 L8.85 9.45 Q6.45 11.85 6.45 15.1 6.45 18.4 8.85 20.75 L8.95 20.9 Q11.4 23.25 15.0 23.25 18.45 23.25 21.35 20.6 23.45 18.25 23.45 15.1" fill="#dba13e" fill-rule="evenodd" stroke="none"/>
      <path d="M14.75 -0.25 L13.7 5.8 Q11.4 6.05 9.3 7.4 L4.45 4.1 7.55 8.9 7.55 8.95 Q5.65 11.0 5.3 13.6 L0.1 14.7 -0.2 14.7 4.9 10.8 4.4 4.1 4.45 4.1 4.45 4.05 10.8 4.9 14.75 -0.25 M-0.15 14.75 L5.2 15.6 Q5.35 18.6 7.35 20.95 L4.4 25.45 4.3 25.4 4.85 19.05 -0.15 14.75 M4.3 25.55 L9.1 22.65 Q11.1 24.1 13.7 24.4 L14.75 29.6 14.75 29.75 10.85 25.15 4.3 25.55 M14.85 29.65 L15.9 24.4 Q18.7 24.15 20.95 22.45 L25.85 25.6 22.35 21.15 Q24.25 18.95 24.6 16.15 L29.65 14.9 25.05 18.85 25.85 25.6 25.85 25.65 18.8 25.15 14.85 29.65 M29.15 14.75 L24.6 14.0 Q24.35 11.55 22.85 9.55 L25.85 4.05 25.35 4.55 21.1 7.8 20.9 7.7 Q18.95 6.25 16.35 5.85 L14.85 -0.15 18.9 4.9 25.85 4.05 25.05 11.05 29.75 14.75 29.65 14.75 29.15 14.75" fill="#a64a1e" fill-rule="evenodd" stroke="none"/>
      <path d="M29.75 14.75 L29.8 14.8 29.65 14.75 29.75 14.75" fill="url(#gradient0)" fill-rule="evenodd" stroke="none"/>
      <path d="M29.75 14.85 L29.15 14.75 29.65 14.75 29.8 14.8 29.75 14.85" fill="url(#gradient1)" fill-rule="evenodd" stroke="none"/>
      <path d="M14.75 29.6 L14.85 29.65 14.85 29.7 14.75 29.75 14.75 29.6 M21.95 21.65 L21.85 21.65 21.85 21.6 21.95 21.65" fill="url(#gradient2)" fill-rule="evenodd" stroke="none"/>
      <path d="M23.45 15.1 Q23.45 18.25 21.35 20.6 18.45 23.25 15.0 23.25 11.4 23.25 8.95 20.9 L8.85 20.75 Q6.45 18.4 6.45 15.1 6.45 11.85 8.85 9.45 L8.95 9.3 Q11.4 6.95 15.0 6.95 18.4 6.95 20.95 9.3 23.45 11.75 23.45 15.1" fill="#0c1718" fill-rule="evenodd" stroke="none"/>
      <path d="M4.45 4.05 L4.45 4.1 4.4 4.05 4.45 4.05" fill="url(#gradient3)" fill-rule="evenodd" stroke="none"/>
      <path d="M4.4 4.05 L4.45 4.1 4.4 4.1 4.4 4.05" fill="url(#gradient4)" fill-rule="evenodd" stroke="none"/>
      <path d="M7.55 8.9 L7.7 8.85 7.55 8.95 7.55 8.9 M4.4 25.45 L4.3 25.55 4.3 25.4 4.4 25.45" fill="#4dc4c2" fill-rule="evenodd" stroke="none"/>
      <path d="M0.1 14.7 L-0.15 14.75 -0.2 14.7 0.1 14.7" fill="url(#gradient5)" fill-rule="evenodd" stroke="none"/>
      <path d="M9.0 20.65 L8.85 20.5 Q6.55 18.2 6.55 14.95 6.55 11.75 8.9 9.4 L9.0 9.3 Q11.45 7.0 15.05 7.0 L15.75 7.0 Q9.05 12.25 10.05 21.5 L9.0 20.65" fill="#ffffff" fill-opacity="0.2" fill-rule="evenodd" stroke="none"/>
      <path d="M11.6 9.85 L10.5 11.55 9.3 12.9 8.65 12.5 8.65 12.15 Q8.95 10.55 10.4 9.45 11.0 8.95 11.35 9.05 11.75 9.15 11.6 9.85 M8.0 14.75 L8.05 14.35 Q8.15 13.55 8.95 13.65 9.8 13.75 9.65 14.5 L9.35 15.0 8.65 15.25 Q8.1 15.15 8.0 14.75" fill="#ffffff" fill-rule="evenodd" stroke="none"/>
      <path d="M9.15 9.2 L9.2 9.2 9.5 9.2 9.8 9.2 10.25 9.25 11.35 9.45 12.3 9.7 12.3 9.45 12.35 9.2 12.3 8.7 13.35 9.2 13.35 9.15 13.3 8.55 13.3 8.4 13.35 7.9 13.7 8.2 14.25 8.7 15.35 9.3 15.4 8.9 15.4 8.85 15.6 9.0 15.85 9.15 16.2 8.7 16.35 8.55 17.1 9.6 17.55 9.95 17.7 10.1 17.75 10.05 18.2 9.25 19.15 8.05 19.15 8.7 19.2 9.85 19.35 10.75 19.35 10.8 19.4 10.85 19.75 11.45 19.8 11.55 19.9 11.45 20.15 11.3 20.2 11.75 20.35 12.35 20.8 12.35 21.0 12.35 20.85 13.2 20.8 13.2 20.65 13.75 20.9 14.15 21.1 14.45 20.55 14.95 20.4 14.7 20.65 14.25 20.35 13.8 20.35 13.35 20.5 12.65 20.25 12.7 20.1 12.7 20.1 12.65 20.1 12.55 19.95 12.3 19.75 11.95 19.55 11.7 19.5 11.6 19.15 11.15 19.1 10.9 19.05 10.8 18.9 9.95 18.8 9.0 18.75 9.05 18.1 10.05 18.0 10.3 17.85 10.55 17.75 10.75 18.0 11.7 18.1 11.95 18.15 12.0 18.1 12.3 18.0 12.1 17.65 11.55 17.45 10.8 17.5 10.65 17.6 10.35 17.25 10.1 17.05 9.9 16.35 9.0 16.05 9.25 16.0 9.4 15.85 9.35 15.65 9.3 15.6 9.55 15.25 9.45 14.55 9.2 14.0 8.9 13.7 8.7 13.65 8.6 13.6 9.0 13.5 9.6 13.35 9.5 12.6 9.25 12.6 9.3 12.55 10.0 12.45 9.95 11.2 9.65 10.2 9.55 10.1 9.55 9.65 9.55 9.85 10.1 9.95 10.7 10.0 10.75 9.95 10.75 9.35 10.85 9.1 10.9 9.05 11.15 9.0 11.85 9.05 12.1 9.2 12.45 9.25 12.5 9.4 12.55 9.7 12.65 10.35 12.4 10.55 12.05 10.35 11.85 10.2 11.9 10.15 11.95 10.2 12.0 10.2 12.1 9.95 12.25 9.9 12.2 9.85 11.9 Q9.85 11.55 10.4 11.55 L10.45 11.6 10.6 11.6 10.65 11.7 10.8 12.1 10.6 12.5 10.4 12.65 10.1 12.75 10.05 12.8 9.65 12.85 9.1 12.8 9.05 12.75 8.95 12.65 8.6 12.15 8.4 12.25 7.35 12.75 6.85 12.95 6.95 12.6 7.65 12.2 8.75 11.5 8.75 11.15 8.65 10.65 9.1 10.6 9.3 10.6 9.55 10.6 9.4 10.0 9.05 9.3 9.15 9.2 M20.2 19.2 L20.2 19.4 20.4 20.0 20.2 20.0 19.6 20.0 19.5 19.95 19.6 20.3 19.8 20.55 19.4 20.75 18.75 21.0 18.95 21.45 19.1 22.3 18.35 22.65 17.9 22.6 17.9 22.7 17.85 22.85 17.4 22.95 17.7 22.5 17.85 22.35 17.85 22.25 17.9 22.25 18.55 22.35 18.8 22.35 18.8 22.25 18.7 21.55 18.45 21.0 18.8 20.85 19.35 20.5 19.25 20.4 19.1 20.1 19.0 19.9 18.95 19.75 19.0 19.75 19.15 19.75 19.55 19.7 19.6 19.7 19.95 19.6 19.9 19.2 20.2 19.2 M15.05 23.3 L13.95 23.25 13.5 22.95 12.6 22.3 12.35 22.05 12.2 22.05 11.85 22.1 11.8 22.15 11.7 21.6 11.6 21.1 11.2 21.2 11.05 21.2 11.05 21.15 10.95 20.75 10.85 20.25 9.95 20.65 9.6 20.85 9.35 21.0 8.85 19.5 8.8 19.55 8.35 19.6 8.25 19.6 8.0 19.55 8.2 19.2 8.4 18.65 8.15 18.65 7.3 18.6 7.15 18.35 7.4 18.4 8.45 18.5 8.55 18.5 8.6 18.5 9.2 18.2 9.3 18.2 10.0 17.65 10.05 17.55 10.05 17.5 9.9 17.15 9.85 17.05 9.55 17.15 9.3 17.25 9.3 17.3 9.35 17.35 9.5 17.4 9.6 17.3 9.7 17.2 9.8 17.2 9.85 17.2 9.85 17.3 9.7 17.55 9.6 17.65 9.4 17.7 9.2 17.65 9.05 17.4 9.05 17.3 9.25 16.95 9.75 16.85 9.95 16.9 10.1 16.95 10.2 17.05 10.25 17.3 10.2 17.75 10.1 17.9 9.45 18.35 9.05 18.6 8.6 18.75 8.5 19.05 8.5 19.25 8.6 19.25 8.6 19.3 9.05 19.4 9.2 19.4 9.35 20.2 9.45 20.4 9.6 20.55 9.75 20.5 11.05 19.85 11.05 19.9 11.3 20.6 11.3 20.7 11.35 20.75 11.4 20.8 11.85 20.75 11.95 21.65 12.1 21.75 12.2 21.75 12.65 21.85 12.95 21.8 13.05 21.75 13.15 21.65 13.35 21.1 13.3 20.95 13.0 20.85 12.6 20.95 12.5 21.1 12.75 21.3 12.85 21.25 12.9 21.35 12.95 21.45 12.9 21.55 12.6 21.7 12.55 21.7 12.55 21.65 Q12.3 21.5 12.3 21.0 L12.3 20.85 12.55 20.7 12.65 20.65 12.75 20.65 13.2 20.6 13.35 20.65 13.55 20.65 13.55 20.7 13.65 21.05 13.65 21.1 13.65 21.15 13.55 21.55 13.25 21.95 13.1 22.05 12.95 22.2 13.35 22.5 14.15 23.0 15.0 23.25 15.05 23.3 M6.85 17.35 L6.75 17.0 6.9 16.85 7.05 16.75 6.9 16.4 6.75 16.05 6.75 15.95 6.9 15.9 7.35 15.7 7.6 15.5 7.0 14.65 6.6 13.95 6.75 13.25 6.85 13.45 7.1 14.1 7.75 15.1 8.25 15.6 7.8 15.8 7.5 16.0 7.4 16.0 7.25 16.0 7.2 16.05 7.25 16.2 7.45 16.5 7.6 16.7 7.55 16.75 6.85 17.3 6.85 17.35 M17.35 15.2 L17.05 15.2 16.65 15.2 16.6 15.25 16.1 14.95 15.85 14.4 15.8 14.3 15.9 13.7 15.95 13.25 16.25 13.4 16.3 13.5 16.3 13.55 16.25 13.8 16.25 14.05 16.2 14.2 16.55 14.8 17.05 15.05 17.2 15.0 17.3 15.0 17.3 15.1 17.35 15.2 M17.7 10.1 L17.6 10.35 17.7 10.1 M14.6 11.45 L14.6 11.4 14.5 10.5 14.5 10.4 15.1 11.0 15.5 11.25 15.8 11.0 16.2 10.7 16.35 11.25 16.5 11.7 16.75 11.6 17.1 11.45 Q17.3 12.15 17.85 12.7 L17.9 12.75 18.8 13.45 18.8 13.65 18.65 14.25 18.55 14.4 18.45 14.45 18.35 14.45 18.3 14.45 18.0 14.35 17.8 13.8 17.9 13.7 18.0 13.65 18.05 13.65 18.1 13.6 18.35 13.7 18.4 13.8 18.35 13.85 18.3 13.95 18.25 13.95 18.2 13.9 18.1 13.85 18.05 13.95 18.1 14.15 18.25 14.2 18.3 14.25 18.5 14.05 18.55 13.85 18.45 13.55 18.45 13.45 17.75 12.9 17.65 12.9 16.95 11.85 16.45 11.9 16.2 11.55 16.05 11.25 15.85 11.4 15.65 11.55 15.45 11.4 14.85 11.15 14.85 11.3 14.85 11.45 14.85 11.5 14.95 11.95 15.0 12.1 14.75 12.05 14.65 11.7 14.6 11.45 14.65 11.7 14.6 11.75 14.4 11.95 14.35 12.0 14.15 12.15 13.75 12.45 14.35 13.1 14.2 13.2 13.6 13.5 13.0 13.75 12.9 13.8 13.25 14.5 13.35 14.75 13.35 14.85 13.1 15.25 12.85 15.9 12.95 15.9 13.05 15.9 13.9 15.8 13.95 15.8 14.35 15.7 14.5 15.7 14.6 15.8 14.65 15.95 14.75 15.95 14.85 15.95 15.0 15.9 15.1 15.85 15.15 15.8 15.4 16.15 15.75 16.65 15.85 16.45 16.1 16.05 16.3 15.8 16.15 16.8 16.15 16.85 16.15 17.15 16.1 17.4 15.95 17.3 15.7 17.15 15.1 16.15 15.0 16.2 14.6 16.45 14.6 16.4 14.5 16.2 14.4 16.05 14.35 16.05 13.7 16.15 13.45 16.2 12.6 16.45 12.5 16.5 Q12.45 16.05 12.7 15.3 L12.85 14.9 12.95 14.6 12.75 14.15 12.45 13.6 12.45 13.5 13.1 13.25 13.9 13.0 13.9 12.95 13.7 12.8 13.15 12.45 13.75 12.05 14.15 11.75 14.3 11.7 14.35 11.65 14.35 11.6 14.6 11.45 M19.8 11.55 L19.9 11.85 19.9 11.95 20.1 12.5 20.1 12.55 20.1 12.5 19.9 11.95 19.9 11.85 19.8 11.55 M19.8 18.2 L19.9 18.3 19.9 18.65 19.9 18.75 19.85 19.15 19.8 18.7 19.75 18.15 19.8 18.2 M16.15 20.3 L16.7 20.75 17.4 21.1 17.45 21.1 17.6 20.3 18.0 19.1 18.2 19.2 18.6 19.3 18.6 19.2 18.65 18.3 18.75 18.3 19.15 18.4 19.35 17.95 19.6 18.1 19.6 18.65 19.6 18.95 19.25 18.75 18.9 18.6 18.85 19.2 18.9 19.55 18.95 19.7 18.3 19.5 18.15 19.45 18.1 19.5 17.95 19.85 17.75 20.45 17.7 21.15 17.7 21.4 17.75 21.45 17.55 21.4 17.45 21.35 16.55 20.9 16.05 20.6 15.9 20.45 15.6 20.2 15.25 19.85 15.0 19.3 14.25 19.7 13.95 19.8 13.95 19.45 13.95 19.25 13.95 19.05 13.9 19.05 13.85 18.9 13.8 18.8 13.75 18.7 13.6 18.45 13.4 18.1 Q13.45 17.65 14.0 17.65 14.35 17.65 14.5 17.9 L14.6 18.1 14.65 18.35 14.65 18.45 14.6 18.55 14.55 18.55 14.45 18.6 14.4 18.6 14.15 18.45 14.05 18.25 14.15 18.2 14.15 18.25 14.3 18.3 14.45 18.15 14.35 18.0 Q14.25 17.8 14.05 17.8 L13.9 17.85 13.8 18.1 13.8 18.2 13.85 18.35 14.0 18.55 14.1 18.8 14.15 18.95 14.15 19.15 14.15 19.3 14.15 19.35 14.15 19.4 14.55 19.2 14.65 19.2 14.7 19.15 15.1 18.95 15.25 19.25 15.45 19.5 15.85 19.95 15.95 20.1 16.1 20.25 16.15 20.3 M13.85 18.9 L13.95 19.05 13.85 18.9" fill="#16eff8" fill-rule="evenodd" stroke="none"/>
      <path d="M17.4 22.95 L16.75 23.15 16.7 22.85 17.0 22.85 17.0 22.7 16.9 22.25 16.85 22.1 17.3 22.3 17.7 22.5 17.4 22.95 M16.35 23.2 L16.0 23.25 16.0 23.15 15.95 22.5 16.0 22.0 16.15 22.75 16.35 23.2 M15.8 23.25 L15.1 23.3 15.05 23.3 15.0 23.25 14.15 23.0 13.35 22.5 12.95 22.2 13.1 22.05 13.25 21.95 13.55 21.55 13.65 21.15 13.6 21.65 13.55 21.85 13.6 21.85 15.0 21.15 15.2 21.4 15.45 21.7 15.8 23.25 M7.15 18.35 L6.95 17.75 8.45 17.55 9.05 17.4 9.2 17.65 9.4 17.7 9.6 17.65 9.3 18.2 9.2 18.2 8.6 18.5 8.55 18.5 8.45 18.5 7.4 18.4 7.15 18.35 M6.75 13.25 L6.75 13.2 6.7 13.0 6.85 12.95 7.35 12.75 8.4 12.25 8.6 12.15 8.95 12.65 9.05 12.75 9.1 12.8 9.65 12.85 10.05 12.8 10.1 12.75 10.4 12.65 10.6 12.5 10.8 12.1 10.65 11.7 10.6 11.6 10.45 11.6 10.4 11.55 Q9.85 11.55 9.85 11.9 L9.9 12.2 9.95 12.25 10.2 12.1 10.2 12.0 10.15 11.95 10.2 11.9 10.35 11.85 10.55 12.05 10.35 12.4 9.7 12.65 9.4 12.55 9.25 12.5 9.2 12.45 9.05 12.1 9.0 11.85 9.05 11.15 9.1 10.9 9.35 10.85 9.95 10.75 10.0 10.75 9.95 10.7 9.85 10.1 9.65 9.55 10.6 10.05 10.75 10.2 11.65 10.9 12.1 11.3 11.85 11.25 Q11.2 10.9 10.1 10.7 L10.1 10.85 10.05 10.85 9.55 11.0 9.15 11.1 9.05 11.55 Q9.05 12.2 9.35 12.5 L9.6 12.55 9.85 12.55 10.1 12.45 10.4 12.1 10.4 12.0 10.2 12.0 10.25 12.15 10.1 12.3 9.95 12.3 9.85 12.3 9.8 11.95 9.75 11.7 9.75 11.55 9.95 11.5 10.3 11.5 10.65 11.55 10.8 11.85 10.85 12.2 10.3 12.75 9.75 13.0 9.4 12.95 8.9 12.75 8.6 12.5 8.45 12.35 7.4 12.9 6.9 13.1 7.05 13.55 7.05 13.6 8.5 14.35 10.15 14.8 11.05 14.85 9.05 15.6 7.6 15.95 7.5 16.0 7.8 15.8 8.25 15.6 7.75 15.1 7.1 14.1 6.85 13.45 6.75 13.25 M20.1 12.7 L20.25 12.7 20.5 12.65 20.35 13.35 20.35 13.8 20.65 14.25 20.4 14.7 20.25 14.3 20.2 14.1 20.05 14.1 19.95 14.05 19.85 14.1 19.75 14.1 19.55 14.2 18.85 14.7 18.8 14.65 18.75 14.6 18.45 14.5 18.35 14.5 18.3 14.5 18.3 14.7 18.05 14.5 18.0 14.5 17.85 14.45 17.55 14.5 17.45 14.5 17.0 13.8 16.85 13.65 16.5 13.1 15.9 12.45 15.85 12.4 15.8 12.35 15.8 12.3 15.65 12.3 15.7 12.35 15.75 12.9 15.75 13.25 15.6 14.15 15.5 14.45 15.75 14.85 16.55 15.3 16.35 15.6 16.3 15.8 16.1 16.05 15.85 16.45 15.85 16.35 15.85 15.8 15.9 15.45 15.6 15.2 15.25 14.85 15.0 14.55 15.15 14.2 15.05 14.2 14.6 14.25 14.35 14.35 14.65 13.8 15.1 13.3 15.35 13.1 15.35 12.95 15.0 12.9 14.9 12.9 15.0 12.8 15.05 12.75 15.25 12.6 15.15 12.5 14.85 12.55 14.65 12.55 14.35 12.55 14.25 12.5 14.5 12.2 14.4 11.95 14.6 11.75 14.65 11.7 14.75 12.05 15.0 12.1 14.95 11.95 14.85 11.5 14.85 11.45 14.85 11.3 14.95 11.4 15.25 11.85 15.65 12.0 15.85 12.1 15.95 11.95 16.0 12.0 16.35 12.5 16.9 13.3 17.15 13.5 17.3 13.65 17.3 13.45 17.65 13.7 17.7 13.65 17.75 13.5 18.0 13.6 18.05 13.65 18.0 13.65 17.9 13.7 17.8 13.8 18.0 14.35 18.3 14.45 18.35 14.45 18.45 14.45 18.55 14.4 18.65 14.25 18.8 13.65 18.8 13.45 17.9 12.75 17.85 12.7 Q17.3 12.15 17.1 11.45 L16.75 11.6 16.5 11.7 16.35 11.25 16.2 10.7 15.8 11.0 15.5 11.25 15.1 11.0 14.5 10.4 14.5 10.5 14.6 11.4 14.6 11.45 14.35 11.6 14.35 11.65 14.3 11.7 14.15 11.75 13.75 12.05 13.15 12.45 13.7 12.8 13.9 12.95 13.9 13.0 13.1 13.25 12.45 13.5 12.45 13.6 12.75 14.15 12.95 14.6 12.85 14.9 12.7 15.3 Q12.45 16.05 12.5 16.5 L12.6 16.45 13.45 16.2 13.7 16.15 14.35 16.05 14.4 16.05 14.5 16.2 14.6 16.4 14.6 16.45 15.0 16.2 15.15 16.7 15.8 17.7 16.5 18.3 16.6 18.65 17.05 20.2 16.65 20.3 16.6 20.3 16.5 20.0 16.15 20.3 16.1 20.25 16.1 20.2 16.25 19.45 15.85 19.95 15.45 19.5 15.55 19.4 15.6 19.15 15.75 19.25 15.95 19.4 15.9 18.95 15.85 18.6 15.8 18.6 15.5 18.65 15.25 18.65 15.4 18.15 15.55 17.75 15.15 17.4 14.8 16.95 14.35 17.1 14.1 17.2 14.05 16.9 13.95 16.55 13.3 16.95 Q12.9 17.2 12.65 17.45 L12.45 17.65 12.2 17.85 12.1 17.5 11.95 16.95 12.05 16.3 12.3 14.45 12.05 14.05 11.7 13.6 12.2 13.35 13.1 12.9 12.8 12.7 12.4 12.45 13.25 11.95 13.35 11.5 13.45 10.95 13.15 10.5 13.1 10.4 12.9 10.65 12.9 10.7 12.75 10.9 12.7 10.75 12.6 10.1 12.55 10.0 12.6 9.3 12.6 9.25 13.35 9.5 13.5 9.6 13.6 9.0 13.65 8.6 13.7 8.7 14.0 8.9 14.55 9.2 15.25 9.45 15.6 9.55 15.65 9.3 15.85 9.35 16.0 9.4 16.05 9.25 16.35 9.0 17.05 9.9 17.25 10.1 17.6 10.35 17.5 10.65 17.45 10.8 17.65 11.55 18.0 12.1 17.95 12.2 18.0 12.25 18.1 12.4 18.1 12.35 18.1 12.3 18.15 12.0 18.1 11.95 18.0 11.7 17.75 10.75 17.85 10.55 18.0 10.3 18.1 10.05 18.75 9.05 18.5 9.85 18.35 10.5 18.35 10.85 18.35 10.9 18.3 11.0 18.3 11.15 18.85 12.65 19.1 13.1 19.55 13.8 19.75 13.8 19.7 13.25 19.65 12.8 19.95 13.45 19.95 13.6 19.95 13.85 20.05 13.9 20.1 13.3 20.1 12.75 20.1 12.7 M17.95 14.95 L17.7 15.0 17.85 14.9 17.95 14.9 17.95 14.95 M17.55 15.1 L17.55 15.2 17.45 15.2 17.4 15.2 17.5 15.15 17.55 15.1 M7.25 16.0 L8.05 16.2 9.1 16.3 7.7 16.7 7.55 16.75 7.6 16.7 7.45 16.5 7.25 16.2 7.2 16.05 7.25 16.0 M18.5 14.05 L18.3 14.25 18.25 14.2 18.1 14.15 18.05 13.95 18.1 13.85 18.2 13.9 18.25 13.95 18.3 13.95 18.35 13.85 18.4 13.9 18.3 13.95 18.35 14.05 18.5 13.95 18.5 14.05 M18.45 14.5 L18.5 14.5 18.55 14.4 18.5 14.5 18.45 14.5 M15.0 12.1 L15.25 12.1 15.65 12.3 15.25 12.1 15.0 12.1 M8.9 13.4 L9.45 13.85 9.25 13.9 8.65 13.8 8.4 13.75 8.3 13.5 8.3 13.25 8.3 13.05 8.35 12.9 8.9 13.4 M9.05 18.6 L8.95 18.75 8.6 19.25 8.5 19.25 8.5 19.05 8.6 18.75 9.05 18.6 M9.2 19.4 L9.4 19.3 10.35 18.95 10.1 19.65 9.75 20.5 9.6 20.55 9.45 20.4 9.35 20.2 9.2 19.4 M11.3 20.7 L11.55 20.2 11.8 19.4 12.1 20.75 12.15 21.6 12.3 21.7 12.75 21.8 12.95 21.75 13.1 21.6 13.2 21.45 13.3 21.2 13.25 21.1 13.15 21.0 13.0 20.9 12.75 21.0 12.6 21.1 12.65 21.2 12.85 21.25 12.9 21.25 13.05 21.45 13.0 21.65 12.75 21.75 12.55 21.7 12.45 21.65 12.3 21.55 12.25 21.3 12.2 20.8 12.2 20.75 12.65 20.65 12.55 20.7 12.3 20.85 12.3 21.0 Q12.3 21.5 12.55 21.65 L12.55 21.7 12.6 21.7 12.9 21.55 12.95 21.45 12.9 21.35 12.85 21.25 12.75 21.3 12.5 21.1 12.6 20.95 13.0 20.85 13.3 20.95 13.35 21.1 13.15 21.65 13.05 21.75 12.95 21.8 12.65 21.85 12.2 21.75 12.1 21.75 11.95 21.65 11.85 20.75 11.4 20.8 11.35 20.75 11.3 20.7 M12.75 20.65 L13.35 20.5 13.6 20.5 13.6 20.7 13.65 21.05 13.55 20.7 13.55 20.65 13.35 20.65 13.2 20.6 12.75 20.65 M9.8 17.2 L9.7 17.2 9.6 17.3 9.5 17.4 9.35 17.35 9.3 17.3 9.85 17.15 9.8 17.2 M16.65 12.6 L16.85 12.8 17.05 12.9 16.95 13.15 16.65 12.6 M19.1 14.1 L19.25 13.95 19.1 13.8 18.85 13.6 19.1 14.1 M19.85 19.15 L19.85 19.2 19.25 19.1 19.1 19.1 19.15 19.7 19.15 19.75 19.0 19.75 18.95 19.75 19.0 19.9 18.2 20.15 18.05 21.0 18.05 21.35 18.4 21.7 18.8 22.25 18.8 22.35 18.55 22.35 17.9 22.25 17.85 22.25 17.85 22.35 17.8 22.25 17.75 22.05 17.65 21.75 16.35 21.45 16.05 21.3 14.7 20.25 14.4 20.25 14.0 20.25 13.45 20.2 13.0 20.1 13.15 19.7 13.35 19.15 13.0 18.45 13.5 18.65 13.7 18.75 13.8 18.8 13.85 18.9 13.9 19.05 13.95 19.05 13.95 19.25 13.95 19.45 13.95 19.8 14.25 19.7 15.0 19.3 15.25 19.85 15.6 20.2 15.9 20.45 16.05 20.6 16.55 20.9 17.45 21.35 17.55 21.4 17.75 21.45 17.7 21.4 17.7 21.15 17.75 20.45 17.95 19.85 18.1 19.5 18.15 19.45 18.3 19.5 18.95 19.7 18.9 19.55 18.85 19.2 18.9 18.6 19.25 18.75 19.6 18.95 19.6 18.65 19.6 18.1 19.75 18.15 19.8 18.7 19.85 19.15 M14.2 13.2 L14.55 13.4 14.05 13.75 13.8 13.75 13.45 13.8 13.0 13.75 13.6 13.5 14.2 13.2 M13.35 14.75 L13.55 14.7 14.0 14.55 13.0 15.8 12.95 15.9 12.85 15.9 13.1 15.25 13.35 14.85 13.35 14.75 M13.95 15.8 L14.35 15.25 14.4 15.55 14.35 15.7 13.95 15.8 M14.75 15.95 L14.9 15.05 14.95 15.2 15.05 15.55 15.1 15.85 15.0 15.9 14.85 15.95 14.75 15.95 M14.2 14.75 L14.0 15.2 13.85 15.15 14.05 14.9 14.2 14.75 M14.15 18.45 L14.4 18.6 14.45 18.6 14.25 19.2 14.15 19.35 14.15 19.3 14.15 19.15 14.15 18.95 14.1 18.8 14.0 18.55 14.1 18.45 14.15 18.45 M11.05 18.7 L11.3 18.1 11.25 18.7 11.05 19.7 10.9 19.6 10.75 19.35 11.05 18.7" fill="#a0d2d4" fill-rule="evenodd" stroke="none"/>
      <path d="M20.55 14.95 L20.9 15.45 21.6 16.35 21.6 16.9 21.0 18.45 20.5 18.3 20.35 18.2 20.35 18.1 20.3 17.95 20.1 17.3 19.95 17.3 19.75 17.2 19.6 17.2 19.1 17.05 18.55 16.75 17.9 16.3 17.85 16.15 18.0 16.05 18.0 16.0 18.1 15.95 18.05 15.7 17.95 15.65 17.75 15.6 17.7 15.5 17.85 15.4 17.9 15.35 18.4 15.15 18.4 15.1 18.45 14.85 18.6 14.9 18.75 14.9 19.0 15.0 19.15 14.8 19.7 14.35 19.8 14.25 20.05 14.25 20.25 14.3 20.4 14.7 20.55 14.95 M20.4 15.1 L20.35 15.0 20.3 14.85 20.35 15.15 20.6 15.9 20.65 15.9 20.85 15.85 20.9 15.8 20.8 15.7 20.55 15.3 20.4 15.1 M20.95 16.05 L20.9 16.05 20.85 16.15 20.85 16.2 Q20.85 16.45 21.0 16.5 L21.15 16.6 21.35 16.5 21.35 16.45 21.15 16.15 20.95 16.05 M18.2 16.1 L18.15 16.15 18.15 16.2 18.1 16.25 18.2 16.3 18.3 16.25 18.35 16.25 18.3 16.15 18.3 16.1 18.2 16.1" fill="#dba13e" fill-rule="evenodd" stroke="none"/>
      <path d="M20.4 15.1 L20.55 15.3 20.8 15.7 20.9 15.8 20.85 15.85 20.65 15.9 20.6 15.9 20.35 15.15 20.3 14.85 20.35 15.0 20.4 15.1 M20.95 16.05 L21.15 16.15 21.35 16.45 21.35 16.5 21.15 16.6 21.0 16.5 Q20.85 16.45 20.85 16.2 L20.85 16.15 20.9 16.05 20.95 16.05" fill="#ffc841" fill-rule="evenodd" stroke="none"/>
      <path d="M21.6 16.9 L21.45 17.95 21.25 18.75 21.2 18.85 20.9 18.9 20.3 18.95 20.25 18.9 20.2 18.8 20.15 18.8 20.15 18.75 20.2 18.35 20.0 18.1 19.7 17.8 19.6 17.75 19.45 17.65 19.0 17.3 18.05 16.85 18.0 16.7 17.45 16.65 17.4 16.5 17.25 15.8 16.9 15.9 16.65 16.0 16.65 15.75 16.65 15.7 16.65 15.55 16.65 15.35 16.65 15.2 17.05 15.2 17.35 15.2 17.4 15.2 17.45 15.2 17.55 15.2 17.55 15.1 17.55 15.0 17.6 15.0 17.7 15.0 17.95 14.95 18.0 14.9 18.3 14.8 18.3 14.7 18.3 14.5 18.35 14.5 18.45 14.5 18.75 14.6 18.8 14.65 18.85 14.7 19.55 14.2 19.75 14.1 19.85 14.1 19.95 14.05 20.05 14.1 20.2 14.1 20.25 14.3 20.05 14.25 19.8 14.25 19.7 14.35 19.15 14.8 19.0 15.0 18.75 14.9 18.6 14.9 18.45 14.85 18.4 15.1 18.4 15.15 17.9 15.35 17.85 15.4 17.7 15.5 17.75 15.6 17.95 15.65 18.05 15.7 18.1 15.95 18.0 16.0 18.0 16.05 17.85 16.15 17.9 16.3 18.55 16.75 19.1 17.05 19.6 17.2 19.75 17.2 19.95 17.3 20.1 17.3 20.3 17.95 20.35 18.1 20.35 18.2 20.5 18.3 21.0 18.45 21.6 16.9 M16.7 16.2 L16.95 16.1 17.1 16.05 17.15 16.05 17.0 16.1 16.7 16.2 M18.2 16.1 L18.3 16.1 18.3 16.15 18.35 16.25 18.3 16.25 18.2 16.3 18.1 16.25 18.15 16.2 18.15 16.15 18.2 16.1" fill="#bd732b" fill-rule="evenodd" stroke="none"/>
      <path d="M21.2 18.85 L21.2 18.9 20.7 19.05 20.25 19.15 20.2 19.2 19.9 19.2 19.85 19.2 19.85 19.15 19.9 18.75 19.9 18.65 19.9 18.3 19.8 18.2 19.75 18.1 19.6 18.0 19.4 17.8 19.0 17.55 18.0 17.15 17.95 17.0 17.9 16.9 17.45 16.8 17.25 16.75 17.15 16.25 17.15 16.05 17.15 16.25 17.25 16.75 17.45 16.8 17.9 16.9 17.95 17.0 18.0 17.15 19.0 17.55 19.4 17.8 19.6 18.0 19.75 18.1 19.8 18.2 19.75 18.15 19.6 18.1 19.35 17.95 19.25 17.95 18.9 17.8 18.45 17.7 16.75 17.45 16.4 17.15 16.15 16.85 16.15 16.8 16.3 15.8 16.35 15.6 16.55 15.3 16.6 15.25 16.65 15.2 16.65 15.35 16.65 15.55 16.65 15.7 16.65 15.75 16.65 16.0 16.9 15.9 17.25 15.8 17.4 16.5 17.45 16.65 18.0 16.7 18.05 16.85 19.0 17.3 19.45 17.65 19.6 17.75 19.7 17.8 20.0 18.1 20.2 18.35 20.15 18.75 20.15 18.8 20.2 18.8 20.25 18.9 20.3 18.95 20.9 18.9 21.2 18.85 M17.15 16.05 L17.1 16.05 16.95 16.1 16.7 16.2 17.0 16.1 17.15 16.05" fill="#a64a1e" fill-rule="evenodd" stroke="none"/>
      <path d="M16.75 23.15 L16.35 23.2 16.15 22.75 16.0 22.0 15.95 22.5 16.0 23.15 16.0 23.25 15.8 23.25 15.45 21.7 15.2 21.4 15.0 21.15 13.6 21.85 13.55 21.85 13.6 21.65 13.65 21.15 13.65 21.1 13.65 21.05 13.6 20.7 13.6 20.5 13.35 20.5 12.75 20.65 12.65 20.65 12.2 20.75 12.2 20.8 12.25 21.3 12.3 21.55 12.45 21.65 12.55 21.7 12.75 21.75 13.0 21.65 13.05 21.45 12.9 21.25 12.85 21.25 12.65 21.2 12.6 21.1 12.75 21.0 13.0 20.9 13.15 21.0 13.25 21.1 13.3 21.2 13.2 21.45 13.1 21.6 12.95 21.75 12.75 21.8 12.3 21.7 12.15 21.6 12.1 20.75 11.8 19.4 11.55 20.2 11.3 20.7 11.3 20.6 11.05 19.9 11.05 19.85 9.75 20.5 10.1 19.65 10.35 18.95 9.4 19.3 9.2 19.4 9.05 19.4 8.6 19.3 8.6 19.25 8.95 18.75 9.05 18.6 9.45 18.35 10.1 17.9 10.2 17.75 10.25 17.3 10.2 17.05 10.1 16.95 9.95 16.9 9.75 16.85 9.25 16.95 9.05 17.3 9.05 17.4 8.45 17.55 6.95 17.75 6.85 17.35 6.85 17.3 7.55 16.75 7.7 16.7 9.1 16.3 8.05 16.2 7.25 16.0 7.4 16.0 7.5 16.0 7.6 15.95 9.05 15.6 11.05 14.85 10.15 14.8 8.5 14.35 7.05 13.6 7.05 13.55 6.9 13.1 7.4 12.9 8.45 12.35 8.6 12.5 8.9 12.75 9.4 12.95 9.75 13.0 10.3 12.75 10.85 12.2 10.8 11.85 10.65 11.55 10.3 11.5 9.95 11.5 9.75 11.55 9.75 11.7 9.8 11.95 9.85 12.3 9.95 12.3 10.1 12.3 10.25 12.15 10.2 12.0 10.4 12.0 10.4 12.1 10.1 12.45 9.85 12.55 9.6 12.55 9.35 12.5 Q9.05 12.2 9.05 11.55 L9.15 11.1 9.55 11.0 10.05 10.85 10.1 10.85 10.1 10.7 Q11.2 10.9 11.85 11.25 L12.1 11.3 11.65 10.9 10.75 10.2 10.6 10.05 9.65 9.55 10.1 9.55 10.2 9.55 11.2 9.65 12.45 9.95 12.55 10.0 12.6 10.1 12.7 10.75 12.75 10.9 12.9 10.7 12.9 10.65 13.1 10.4 13.15 10.5 13.45 10.95 13.35 11.5 13.25 11.95 12.4 12.45 12.8 12.7 13.1 12.9 12.2 13.35 11.7 13.6 12.05 14.05 12.3 14.45 12.05 16.3 11.95 16.95 12.1 17.5 12.2 17.85 12.45 17.65 12.65 17.45 Q12.9 17.2 13.3 16.95 L13.95 16.55 14.05 16.9 14.1 17.2 14.35 17.1 14.8 16.95 15.15 17.4 15.55 17.75 15.4 18.15 15.25 18.65 15.5 18.65 15.8 18.6 15.85 18.6 15.9 18.95 15.95 19.4 15.75 19.25 15.6 19.15 15.55 19.4 15.45 19.5 15.25 19.25 15.1 18.95 14.7 19.15 14.65 19.2 14.55 19.2 14.15 19.4 14.15 19.35 14.25 19.2 14.45 18.6 14.55 18.55 14.6 18.55 14.65 18.45 14.65 18.35 14.6 18.1 14.5 17.9 Q14.35 17.65 14.0 17.65 13.45 17.65 13.4 18.1 L13.6 18.45 13.75 18.7 13.8 18.8 13.7 18.75 13.5 18.65 13.0 18.45 13.35 19.15 13.15 19.7 13.0 20.1 13.45 20.2 14.0 20.25 14.4 20.25 14.7 20.25 16.05 21.3 16.35 21.45 17.65 21.75 17.75 22.05 17.8 22.25 17.85 22.35 17.7 22.5 17.3 22.3 16.85 22.1 16.9 22.25 17.0 22.7 17.0 22.85 16.7 22.85 16.75 23.15 M14.85 11.3 L14.85 11.15 15.45 11.4 15.65 11.55 15.85 11.4 16.05 11.25 16.2 11.55 16.45 11.9 16.95 11.85 17.65 12.9 17.75 12.9 18.45 13.45 18.45 13.55 18.55 13.85 18.5 14.05 18.5 13.95 18.35 14.05 18.3 13.95 18.4 13.9 18.35 13.85 18.4 13.8 18.35 13.7 18.1 13.6 18.05 13.65 18.0 13.6 17.75 13.5 17.7 13.65 17.65 13.7 17.3 13.45 17.3 13.65 17.15 13.5 16.9 13.3 16.35 12.5 16.0 12.0 15.95 11.95 15.85 12.1 15.65 12.0 15.25 11.85 14.95 11.4 14.85 11.3 M14.4 11.95 L14.5 12.2 14.25 12.5 14.35 12.55 14.65 12.55 14.85 12.55 15.15 12.5 15.25 12.6 15.05 12.75 15.0 12.8 14.9 12.9 15.0 12.9 15.35 12.95 15.35 13.1 15.1 13.3 14.65 13.8 14.35 14.35 14.6 14.25 15.05 14.2 15.15 14.2 15.0 14.55 15.25 14.85 15.6 15.2 15.9 15.45 15.85 15.8 15.85 16.35 15.85 16.45 15.75 16.65 15.4 16.15 15.15 15.8 15.1 15.85 15.05 15.55 14.95 15.2 14.9 15.05 14.75 15.95 14.65 15.95 14.6 15.8 14.5 15.7 14.35 15.7 14.4 15.55 14.35 15.25 13.95 15.8 13.9 15.8 13.05 15.9 12.95 15.9 13.0 15.8 14.0 14.55 13.55 14.7 13.35 14.75 13.25 14.5 12.9 13.8 13.0 13.75 13.45 13.8 13.8 13.75 14.05 13.75 14.55 13.4 14.2 13.2 14.35 13.1 13.75 12.45 14.15 12.15 14.35 12.0 14.4 11.95 M18.75 9.05 L18.8 9.0 18.9 9.95 19.05 10.8 19.1 10.9 19.15 11.15 19.5 11.6 19.55 11.7 19.75 11.95 19.95 12.3 20.1 12.55 20.1 12.65 20.1 12.7 20.1 12.75 20.1 13.3 20.05 13.9 19.95 13.85 19.95 13.6 19.95 13.45 19.65 12.8 19.7 13.25 19.75 13.8 19.55 13.8 19.1 13.1 18.85 12.65 18.3 11.15 18.3 11.0 18.35 10.9 18.35 10.85 18.35 10.5 18.5 9.85 18.75 9.05 M18.0 12.1 L18.1 12.3 18.1 12.35 18.1 12.4 18.0 12.25 17.95 12.2 18.0 12.1 M8.9 13.4 L8.35 12.9 8.3 13.05 8.3 13.25 8.3 13.5 8.4 13.75 8.65 13.8 9.25 13.9 9.45 13.85 8.9 13.4 M9.3 17.3 L9.3 17.25 9.55 17.15 9.85 17.05 9.9 17.15 10.05 17.5 10.05 17.55 10.0 17.65 9.3 18.2 9.6 17.65 9.7 17.55 9.85 17.3 9.85 17.2 9.8 17.2 9.85 17.15 9.3 17.3 M19.1 14.1 L18.85 13.6 19.1 13.8 19.25 13.95 19.1 14.1 M16.65 12.6 L16.95 13.15 17.05 12.9 16.85 12.8 16.65 12.6 M18.8 22.25 L18.4 21.7 18.05 21.35 18.05 21.0 18.2 20.15 19.0 19.9 19.1 20.1 19.25 20.4 19.35 20.5 18.8 20.85 18.45 21.0 18.7 21.55 18.8 22.25 M14.2 14.75 L14.05 14.9 13.85 15.15 14.0 15.2 14.2 14.75 M14.0 18.55 L13.85 18.35 13.8 18.2 13.8 18.1 13.9 17.85 14.05 17.8 Q14.25 17.8 14.35 18.0 L14.45 18.15 14.3 18.3 14.15 18.25 14.15 18.2 14.05 18.25 14.15 18.45 14.1 18.45 14.0 18.55 M11.05 18.7 L10.75 19.35 10.9 19.6 11.05 19.7 11.25 18.7 11.3 18.1 11.05 18.7" fill="#ecead1" fill-rule="evenodd" stroke="none"/>
      <path d="M17.7 15.0 L17.6 15.0 17.55 15.0 17.55 15.1 17.5 15.15 17.4 15.2 17.35 15.2 17.3 15.1 17.3 15.0 17.2 15.0 17.05 15.05 16.55 14.8 16.2 14.2 16.25 14.05 16.25 13.8 16.3 13.55 16.3 13.5 16.25 13.4 15.95 13.25 15.85 13.25 15.75 13.25 15.75 12.9 15.7 12.35 15.65 12.3 15.8 12.3 15.8 12.35 15.85 12.4 15.9 12.45 16.5 13.1 16.35 13.65 16.35 13.85 16.35 14.25 16.4 14.45 16.65 14.7 17.1 14.95 17.2 14.9 17.4 14.8 17.55 14.5 17.85 14.45 18.0 14.5 18.05 14.5 18.3 14.7 18.0 14.9 17.95 14.9 17.85 14.9 17.7 15.0" fill="#0a97e7" fill-rule="evenodd" stroke="none"/>
      <path d="M18.3 14.7 L18.3 14.8 18.0 14.9 17.95 14.95 17.95 14.9 18.0 14.9 18.3 14.7 M15.0 16.2 L15.1 16.15 15.7 17.15 15.95 17.3 16.1 17.4 16.15 17.15 16.15 16.85 16.4 17.15 16.75 17.45 18.45 17.7 18.9 17.8 19.25 17.95 19.35 17.95 19.15 18.4 18.75 18.3 18.65 18.3 18.6 19.2 18.6 19.3 18.2 19.2 18.0 19.1 17.6 20.3 17.45 21.1 17.4 21.1 16.7 20.75 16.15 20.3 16.5 20.0 16.6 20.3 16.65 20.3 17.05 20.2 16.6 18.65 16.5 18.3 15.8 17.7 15.15 16.7 15.0 16.2 M15.85 19.95 L16.25 19.45 16.1 20.2 16.1 20.25 15.95 20.1 15.85 19.95" fill="#6dbcbf" fill-rule="evenodd" stroke="none"/>
      <path d="M17.55 14.5 L17.4 14.8 17.2 14.9 16.9 14.1 16.35 13.85 16.35 13.65 16.5 13.1 16.85 13.65 17.0 13.8 17.45 14.5 17.55 14.5" fill="#4f09af" fill-rule="evenodd" stroke="none"/>
      <path d="M16.55 15.3 L15.75 14.85 15.5 14.45 15.6 14.15 15.75 13.25 15.85 13.25 15.95 13.25 15.9 13.7 15.8 14.3 15.85 14.4 16.1 14.95 16.6 15.25 16.55 15.3" fill="#5bf8ff" fill-rule="evenodd" stroke="none"/>
      <path d="M17.2 14.9 L17.1 14.95 16.65 14.7 16.4 14.45 16.35 14.25 16.35 13.85 16.9 14.1 17.2 14.9" fill="#7119ea" fill-rule="evenodd" stroke="none"/>
      <path d="M9.15 9.2 L9.2 9.2 9.5 9.2 9.8 9.2 10.25 9.25 11.35 9.45 12.3 9.7 12.3 9.45 12.35 9.2 12.3 8.7 13.35 9.2 13.35 9.15 13.3 8.55 13.3 8.4 13.35 7.9 13.7 8.2 14.25 8.7 15.35 9.3 15.4 8.9 15.4 8.85 15.6 9.0 15.85 9.15 16.2 8.7 16.35 8.55 17.1 9.6 17.55 9.95 17.7 10.1 17.75 10.05 18.2 9.25 19.15 8.05 19.15 8.7 19.2 9.85 19.35 10.75 19.35 10.8 19.4 10.85 19.75 11.45 19.8 11.55 19.9 11.45 20.15 11.3 20.2 11.75 20.35 12.35 20.8 12.35 21.0 12.35 20.85 13.2 20.8 13.2 20.65 13.75 20.9 14.15 21.1 14.45 20.55 14.95 M20.2 19.2 L20.2 19.4 20.4 20.0 20.2 20.0 19.6 20.0 19.5 19.95 19.6 20.3 19.8 20.55 19.4 20.75 18.75 21.0 18.95 21.45 19.1 22.3 M18.35 22.65 L17.9 22.6 17.9 22.7 17.85 22.85 M13.95 23.25 L13.5 22.95 12.6 22.3 12.35 22.05 12.2 22.05 11.85 22.1 11.8 22.15 11.7 21.6 11.6 21.1 11.2 21.2 11.05 21.2 11.05 21.15 10.95 20.75 10.85 20.25 9.95 20.65 9.6 20.85 9.35 21.0 8.85 19.5 8.8 19.55 8.35 19.6 8.25 19.6 8.0 19.55 8.2 19.2 8.4 18.65 8.15 18.65 7.3 18.6 M6.75 17.0 L6.9 16.85 7.05 16.75 6.9 16.4 6.75 16.05 6.75 15.95 6.9 15.9 7.35 15.7 7.6 15.5 7.0 14.65 6.6 13.95 M6.95 12.6 L7.65 12.2 8.75 11.5 8.75 11.15 8.65 10.65 9.1 10.6 9.3 10.6 9.55 10.6 9.4 10.0 9.05 9.3 M17.6 10.35 L17.7 10.1 M18.55 14.4 L18.65 14.25 18.8 13.65 18.8 13.45 17.9 12.75 17.85 12.7 Q17.3 12.15 17.1 11.45 L16.75 11.6 16.5 11.7 16.35 11.25 16.2 10.7 15.8 11.0 15.5 11.25 15.1 11.0 14.5 10.4 14.5 10.5 14.6 11.4 14.6 11.45 14.65 11.7 14.75 12.05 15.0 12.1 15.25 12.1 15.65 12.3 15.7 12.35 15.75 12.9 15.75 13.25 15.6 14.15 15.5 14.45 15.75 14.85 16.55 15.3 M18.55 14.4 L18.5 14.5 18.45 14.5 M15.0 16.2 L14.6 16.45 14.6 16.4 14.5 16.2 14.4 16.05 14.35 16.05 13.7 16.15 13.45 16.2 12.6 16.45 12.5 16.5 Q12.45 16.05 12.7 15.3 L12.85 14.9 12.95 14.6 12.75 14.15 12.45 13.6 12.45 13.5 13.1 13.25 13.9 13.0 13.9 12.95 13.7 12.8 13.15 12.45 13.75 12.05 14.15 11.75 14.3 11.7 14.35 11.65 14.35 11.6 14.6 11.45 M20.1 12.55 L20.1 12.5 19.9 11.95 19.9 11.85 19.8 11.55 M17.6 10.35 L17.5 10.65 17.45 10.8 17.65 11.55 18.0 12.1 18.1 12.3 18.1 12.35 M20.1 12.75 L20.1 12.7 20.1 12.65 20.1 12.55 M16.5 13.1 L15.9 12.45 15.85 12.4 15.8 12.35 15.8 12.3 15.65 12.3 M18.3 14.7 L18.05 14.5 18.0 14.5 17.85 14.45 17.55 14.5 17.45 14.5 17.0 13.8 16.85 13.65 16.5 13.1 M17.95 14.9 L18.0 14.9 18.3 14.7 M17.95 14.95 L17.95 14.9 17.85 14.9 17.7 15.0 M17.4 15.2 L17.5 15.15 17.55 15.1 M16.15 16.85 L16.15 17.15 16.1 17.4 15.95 17.3 15.7 17.15 15.1 16.15 15.0 16.2 M19.6 18.1 L19.6 18.65 19.6 18.95 19.25 18.75 18.9 18.6 18.85 19.2 18.9 19.55 18.95 19.7 18.3 19.5 18.15 19.45 18.1 19.5 17.95 19.85 17.75 20.45 17.7 21.15 17.7 21.4 17.75 21.45 17.55 21.4 17.45 21.35 16.55 20.9 16.05 20.6 15.9 20.45 15.6 20.2 15.25 19.85 15.0 19.3 14.25 19.7 13.95 19.8 13.95 19.45 13.95 19.25 13.95 19.05 13.85 18.9" fill="none" stroke="#098bff" stroke-linecap="round" stroke-linejoin="round" stroke-width="0.1"/>
      <path d="M20.55 14.95 L20.9 15.45 21.6 16.35 21.6 16.9 21.45 17.95 21.25 18.75 21.2 18.85 21.2 18.9 20.7 19.05 20.25 19.15 20.2 19.2 19.9 19.2 19.85 19.2 19.85 19.15 19.9 18.75 19.9 18.65 19.9 18.3 19.8 18.2 19.75 18.15 19.6 18.1 19.35 17.95 19.25 17.95 18.9 17.8 18.45 17.7 16.75 17.45 16.4 17.15 16.15 16.85 16.15 16.8 16.3 15.8 16.35 15.6 16.55 15.3 16.6 15.25 16.65 15.2 17.05 15.2 17.35 15.2 17.4 15.2 17.45 15.2 17.55 15.2 17.55 15.1 17.55 15.0 17.6 15.0 17.7 15.0 17.95 14.95 18.0 14.9 18.3 14.8 18.3 14.7 18.3 14.5 18.35 14.5 18.45 14.5 18.75 14.6 18.8 14.65 18.85 14.7 19.55 14.2 19.75 14.1 19.85 14.1 19.95 14.05 20.05 14.1 20.2 14.1 20.25 14.3 20.4 14.7 20.55 14.95 M16.7 16.2 L16.95 16.1 17.1 16.05 17.15 16.05 17.15 16.25 17.25 16.75 17.45 16.8 17.9 16.9 17.95 17.0 18.0 17.15 19.0 17.55 19.4 17.8 19.6 18.0 19.75 18.1 19.8 18.2" fill="none" stroke="#64221a" stroke-linecap="round" stroke-linejoin="round" stroke-width="0.1"/>
    </g>
    <linearGradient gradientTransform="matrix(0.0049, 0.0, 0.0, 0.0065, 25.65, 9.3)" gradientUnits="userSpaceOnUse" id="gradient0" spreadMethod="pad" x1="-819.2" x2="819.2">
      <stop offset="0.0" stop-color="#14737c"/>
      <stop offset="1.0" stop-color="#48f2e0"/>
    </linearGradient>
    <linearGradient gradientTransform="matrix(0.0048, 0.0, 0.0, 0.0067, 25.85, 20.1)" gradientUnits="userSpaceOnUse" id="gradient1" spreadMethod="pad" x1="-819.2" x2="819.2">
      <stop offset="0.0" stop-color="#14737c"/>
      <stop offset="1.0" stop-color="#48f2e0"/>
    </linearGradient>
    <linearGradient gradientTransform="matrix(0.0068, 0.0, 0.0, 0.005, 20.3, 25.65)" gradientUnits="userSpaceOnUse" id="gradient2" spreadMethod="pad" x1="-819.2" x2="819.2">
      <stop offset="0.0" stop-color="#14737c"/>
      <stop offset="1.0" stop-color="#48f2e0"/>
    </linearGradient>
    <linearGradient gradientTransform="matrix(0.0063, 0.0, 0.0, 0.0051, 9.55, 3.9)" gradientUnits="userSpaceOnUse" id="gradient3" spreadMethod="pad" x1="-819.2" x2="819.2">
      <stop offset="0.0" stop-color="#14737c"/>
      <stop offset="1.0" stop-color="#48f2e0"/>
    </linearGradient>
    <linearGradient gradientTransform="matrix(0.0052, 0.0, 0.0, 0.0065, 4.1, 9.3)" gradientUnits="userSpaceOnUse" id="gradient4" spreadMethod="pad" x1="-819.2" x2="819.2">
      <stop offset="0.0" stop-color="#14737c"/>
      <stop offset="1.0" stop-color="#48f2e0"/>
    </linearGradient>
    <linearGradient gradientTransform="matrix(0.005, 0.0, 0.0, 0.0065, 3.85, 20.0)" gradientUnits="userSpaceOnUse" id="gradient5" spreadMethod="pad" x1="-819.2" x2="819.2">
      <stop offset="0.0" stop-color="#14737c"/>
      <stop offset="1.0" stop-color="#48f2e0"/>
    </linearGradient>
  </defs>
</svg>
