<?xml version="1.0" encoding="UTF-8" standalone="no"?>
<svg xmlns:ffdec="https://www.free-decompiler.com/flash" xmlns:xlink="http://www.w3.org/1999/xlink" ffdec:objectType="frame" height="30.0px" width="30.0px" xmlns="http://www.w3.org/2000/svg">
  <g transform="matrix(1.0, 0.0, 0.0, 1.0, 0.0, 0.0)">
    <use ffdec:characterId="1" height="30.0" transform="matrix(1.0, 0.0, 0.0, 1.0, 0.0, 0.0)" width="30.0" xlink:href="#shape0"/>
    <use ffdec:characterId="3" height="30.0" transform="matrix(1.0, 0.0, 0.0, 1.0, 0.0, 0.0)" width="30.0" xlink:href="#sprite0"/>
  </g>
  <defs>
    <g id="shape0" transform="matrix(1.0, 0.0, 0.0, 1.0, 0.0, 0.0)">
      <path d="M0.0 0.0 L30.0 0.0 30.0 30.0 0.0 30.0 0.0 0.0" fill="#33cc66" fill-opacity="0.0" fill-rule="evenodd" stroke="none"/>
    </g>
    <g id="sprite0" transform="matrix(1.0, 0.0, 0.0, 1.0, 0.0, 0.0)">
      <use ffdec:characterId="2" height="30.0" transform="matrix(1.0, 0.0, 0.0, 1.0, 0.0, 0.0)" width="30.0" xlink:href="#shape1"/>
    </g>
    <g id="shape1" transform="matrix(1.0, 0.0, 0.0, 1.0, 0.0, 0.0)">
      <path d="M22.1 21.85 L22.15 21.9 22.1 21.9 22.1 21.85" fill="url(#gradient0)" fill-rule="evenodd" stroke="none"/>
      <path d="M21.15 9.55 L22.3 10.9 Q23.65 12.85 23.65 15.35 23.65 18.5 21.5 20.85 18.7 23.5 15.2 23.5 11.65 23.5 9.15 21.15 L9.0 21.0 Q7.05 19.0 6.75 16.3 L6.7 15.35 6.75 14.45 Q7.05 11.75 9.05 9.7 L9.15 9.55 Q11.65 7.25 15.2 7.25 17.95 7.25 20.2 8.8 L21.15 9.55" fill="#2a171b" fill-rule="evenodd" stroke="none"/>
      <path d="M21.1 7.95 Q19.2 6.5 16.85 6.15 L14.95 0.0 13.8 6.1 Q11.65 6.3 9.9 7.45 L4.6 4.3 8.3 8.65 8.2 8.75 6.75 10.55 Q5.8 12.0 5.55 13.75 L0.0 14.95 5.45 15.8 5.45 15.9 Q5.55 18.2 6.75 20.1 L7.45 21.1 4.5 25.8 9.25 22.85 Q11.25 24.3 13.8 24.65 L14.95 30.0 16.1 24.7 Q18.95 24.45 21.15 22.7 L26.0 25.8 22.55 21.4 Q24.5 19.25 24.85 16.35 L30.0 15.05 24.8 14.2 Q24.5 11.75 22.95 9.75 L26.0 4.3 21.15 8.0 21.1 7.95 M25.3 11.3 L30.0 15.05 25.25 19.15 26.05 25.85 26.05 25.9 19.0 25.4 14.95 30.0 11.05 25.4 4.5 25.8 4.5 25.65 5.05 19.3 0.0 14.95 5.1 11.05 4.6 4.3 10.95 5.15 14.95 0.0 19.15 5.15 26.0 4.3 25.3 11.3" fill="#d29d6a" fill-rule="evenodd" stroke="none"/>
      <path d="M21.15 9.55 L20.2 8.8 Q17.95 7.25 15.2 7.25 11.65 7.25 9.15 9.55 L9.05 9.7 Q7.05 11.75 6.75 14.45 L6.7 15.35 6.75 16.3 Q7.05 19.0 9.0 21.0 L9.15 21.15 Q11.65 23.5 15.2 23.5 18.7 23.5 21.5 20.85 23.65 18.5 23.65 15.35 23.65 12.85 22.3 10.9 L21.15 9.55 M21.1 7.95 L21.15 8.0 26.0 4.3 22.95 9.75 Q24.5 11.75 24.8 14.2 L30.0 15.05 24.85 16.35 Q24.5 19.25 22.55 21.4 L26.0 25.8 21.15 22.7 Q18.95 24.45 16.1 24.7 L14.95 30.0 13.8 24.65 Q11.25 24.3 9.25 22.85 L4.5 25.8 7.45 21.1 6.75 20.1 Q5.55 18.2 5.45 15.9 L5.45 15.8 0.0 14.95 5.55 13.75 Q5.8 12.0 6.75 10.55 L8.2 8.75 8.3 8.65 4.6 4.3 9.9 7.45 Q11.65 6.3 13.8 6.1 L14.95 0.0 16.85 6.15 Q19.2 6.5 21.1 7.95 M22.1 21.85 L22.1 21.9 22.15 21.9 22.1 21.85" fill="#f5f7df" fill-rule="evenodd" stroke="none"/>
      <path d="M14.3 23.5 L13.9 23.45 13.65 22.9 13.3 22.5 13.4 22.5 13.7 22.45 13.95 22.45 14.1 22.7 14.25 23.2 14.3 23.45 14.3 23.5 M13.55 23.4 L13.4 23.35 13.55 23.3 13.55 23.4 M7.0 14.9 L6.9 13.75 6.9 13.65 6.9 13.55 7.4 12.05 7.35 12.45 7.3 12.85 7.3 13.15 7.3 13.65 7.35 13.75 7.6 15.1 7.3 15.0 7.0 14.9 M9.15 9.6 L9.15 9.55 10.65 8.45 10.9 8.9 11.25 9.8 11.4 10.8 11.35 11.2 11.3 11.5 11.25 11.4 11.05 11.25 10.95 11.2 10.55 11.1 10.35 11.15 10.1 11.2 10.1 11.25 10.0 11.4 9.85 11.6 9.55 11.8 9.5 11.85 9.4 11.85 9.3 11.85 9.25 11.8 9.1 11.75 9.05 11.7 8.95 11.55 8.95 11.35 9.0 11.2 9.55 11.05 10.2 10.9 10.2 10.7 10.05 9.95 Q9.8 9.55 9.4 9.55 L9.15 9.6 M10.2 10.9 L10.1 11.2 10.2 10.9" fill="#955c41" fill-rule="evenodd" stroke="none"/>
      <path d="M18.0 13.65 L18.15 14.3 17.8 14.05 17.85 14.0 17.95 13.65 18.0 13.65 M13.9 23.45 L13.55 23.4 13.55 23.3 13.4 23.35 11.8 22.9 Q12.2 22.6 12.5 22.55 L12.55 22.55 12.65 22.55 13.3 22.5 13.65 22.9 13.9 23.45 M7.4 12.05 L7.45 11.8 7.5 11.75 7.5 11.7 Q7.7 11.05 8.05 10.9 L8.05 10.95 9.05 9.7 9.15 9.6 9.4 9.55 Q9.8 9.55 10.05 9.95 L10.2 10.7 10.2 10.9 9.55 11.05 9.0 11.2 8.95 11.35 8.95 11.55 9.05 11.7 9.1 11.75 9.25 11.8 9.3 11.85 9.4 11.85 9.5 11.85 9.55 11.8 9.85 11.6 10.0 11.4 10.1 11.25 10.1 11.2 10.35 11.15 10.55 11.1 10.95 11.2 11.05 11.25 11.25 11.4 11.3 11.5 11.3 11.55 11.25 11.85 10.9 12.6 10.65 12.95 10.6 12.95 10.0 13.45 10.65 13.25 11.0 13.15 11.05 13.1 11.15 13.1 12.8 12.7 13.05 12.65 14.85 12.5 14.7 13.05 12.6 13.6 Q12.0 13.8 11.3 14.15 L10.95 14.3 10.7 14.4 10.2 14.65 10.2 14.5 9.75 14.65 9.75 14.8 9.5 14.9 8.15 15.25 7.6 15.1 7.35 13.75 7.3 13.65 7.3 13.15 7.3 12.85 7.35 12.45 7.4 12.05 M8.05 10.95 L8.0 11.4 8.0 11.75 8.0 11.8 8.1 12.35 8.4 12.95 Q8.85 13.55 9.45 13.55 L9.6 13.55 9.7 13.55 10.0 13.45 9.7 13.55 9.6 13.55 9.45 13.55 Q8.85 13.55 8.4 12.95 L8.1 12.35 8.0 11.8 8.0 11.75 8.0 11.4 8.05 10.95 M12.65 22.55 Q13.15 22.6 13.45 23.15 L13.55 23.3 13.45 23.15 Q13.15 22.6 12.65 22.55" fill="#b47e4c" fill-rule="evenodd" stroke="none"/>
      <path d="M18.15 14.3 Q18.4 15.2 19.0 15.9 L19.45 16.35 19.25 16.35 19.15 16.4 18.95 16.3 Q18.4 16.0 17.9 16.0 L17.75 16.05 17.15 16.5 16.0 16.55 15.35 16.05 Q14.4 15.4 13.35 15.3 L13.15 15.3 12.95 15.3 12.75 15.35 12.1 15.45 12.0 15.45 Q11.6 15.6 11.3 15.85 10.7 16.35 10.7 17.3 L10.7 17.4 10.1 17.55 8.7 17.85 8.3 17.4 8.1 17.05 7.8 16.35 7.55 15.2 7.6 15.1 8.15 15.25 9.5 14.9 9.75 14.8 9.75 14.85 9.8 15.15 9.9 15.55 10.15 15.45 10.4 15.4 10.3 15.0 10.25 14.8 10.2 14.65 10.7 14.4 10.95 14.3 11.3 14.15 Q12.0 13.8 12.6 13.6 L14.7 13.05 14.7 13.1 14.8 13.1 14.45 13.5 14.25 13.7 13.75 14.3 Q13.75 14.7 14.15 14.8 L15.15 14.05 15.7 13.6 15.8 13.85 16.8 13.65 17.0 13.7 17.25 13.95 17.75 14.2 17.8 14.05 18.15 14.3 M22.9 18.85 L21.9 20.4 21.7 20.45 Q20.95 20.7 20.55 21.0 L20.4 21.15 20.15 21.4 Q19.7 21.8 19.05 21.95 L17.4 22.15 17.25 21.85 17.15 21.7 17.1 21.7 Q16.85 21.4 16.45 21.4 L15.7 21.55 15.45 21.95 15.45 22.0 15.55 22.25 15.3 22.25 14.35 22.35 14.25 22.15 13.85 21.55 13.8 21.5 13.55 21.35 13.55 21.3 13.45 21.2 13.25 21.0 13.45 20.9 16.15 20.1 18.7 19.7 22.35 18.8 22.85 18.8 22.9 18.85 M20.75 17.6 L21.4 18.15 20.1 18.25 16.5 19.15 15.7 19.4 16.0 19.15 Q16.6 18.6 16.6 18.05 L17.0 17.95 Q17.3 18.4 18.15 18.4 19.05 18.4 19.45 17.9 L19.55 17.75 20.2 17.65 20.75 17.6 M13.0 19.9 L11.15 19.55 11.0 19.5 10.85 19.4 10.35 19.1 11.3 18.9 11.75 19.3 Q12.35 19.75 13.0 19.9 M20.3 20.9 L20.6 20.5 20.4 20.45 Q20.05 20.45 19.8 20.7 L19.7 21.0 19.7 21.2 20.0 21.35 20.15 21.35 20.3 21.05 20.3 20.95 20.3 21.05 20.15 21.35 20.2 21.1 20.3 20.95 20.3 20.9 M13.05 14.6 L13.05 14.45 12.95 14.15 12.85 14.15 12.55 14.2 12.35 14.2 12.45 14.55 12.45 14.65 12.55 15.05 13.1 15.0 13.05 14.6 M11.1 15.0 L11.65 15.0 11.6 14.7 11.6 14.65 11.55 14.35 10.95 14.4 11.05 14.7 11.05 14.75 11.1 15.0 M17.8 21.45 Q17.65 21.45 17.65 21.6 L17.6 21.65 17.65 21.7 17.75 21.85 18.05 21.6 18.05 21.55 18.0 21.5 17.85 21.45 17.8 21.45" fill="#e7c585" fill-rule="evenodd" stroke="none"/>
      <path d="M19.45 16.35 L19.65 16.5 19.7 16.55 19.3 16.6 19.25 16.55 18.3 16.35 18.05 16.35 17.3 16.55 17.25 16.6 17.15 16.6 16.9 17.0 16.7 17.0 16.2 17.05 15.9 17.05 15.65 16.7 15.3 16.45 Q14.55 16.0 13.5 16.0 L13.05 16.0 Q12.25 16.05 11.7 16.45 L11.55 16.5 11.45 16.6 Q10.95 17.0 10.95 17.5 L10.95 17.6 10.55 17.65 8.5 18.1 8.5 18.15 8.45 18.25 8.2 17.9 8.15 17.9 Q7.25 16.65 7.0 14.9 L7.3 15.0 7.6 15.1 7.55 15.2 7.8 16.35 8.1 17.05 8.3 17.4 8.7 17.85 10.1 17.55 10.7 17.4 10.7 17.3 Q10.7 16.35 11.3 15.85 11.6 15.6 12.0 15.45 L12.1 15.45 12.75 15.35 12.95 15.3 13.15 15.3 13.35 15.3 Q14.4 15.4 15.35 16.05 L16.0 16.55 17.15 16.5 17.75 16.05 17.9 16.0 Q18.4 16.0 18.95 16.3 L19.15 16.4 19.25 16.35 19.45 16.35 M20.4 17.1 L21.2 17.6 20.75 17.6 20.2 17.65 19.55 17.75 19.45 17.9 Q19.05 18.4 18.15 18.4 17.3 18.4 17.0 17.95 L16.6 18.05 Q16.6 18.6 16.0 19.15 L15.7 19.4 15.25 19.65 13.6 19.95 13.0 19.9 Q12.35 19.75 11.75 19.3 L11.3 18.9 10.35 19.1 10.3 19.1 10.15 19.65 9.5 19.2 10.9 18.75 11.35 18.65 11.65 18.6 11.7 18.6 Q12.45 19.05 13.5 19.05 14.55 19.05 15.3 18.6 L15.9 18.0 15.95 17.9 16.05 17.65 16.3 17.6 16.8 17.55 16.95 17.55 17.15 17.55 17.3 17.6 18.3 17.8 19.25 17.6 19.6 17.3 19.65 17.25 20.4 17.1" fill="#d7a26e" fill-rule="evenodd" stroke="none"/>
      <path d="M10.2 14.65 L10.25 14.8 10.3 15.0 10.4 15.4 10.15 15.45 9.9 15.55 9.8 15.15 9.75 14.85 9.75 14.8 10.2 14.65 M13.05 14.6 L13.1 15.0 12.55 15.05 12.45 14.65 12.45 14.55 12.35 14.2 12.55 14.2 12.85 14.15 12.95 14.15 13.05 14.45 13.05 14.6 M11.1 15.0 L11.05 14.75 11.05 14.7 10.95 14.4 11.55 14.35 11.6 14.65 11.6 14.7 11.65 15.0 11.1 15.0" fill="#796c5f" fill-rule="evenodd" stroke="none"/>
      <path d="M9.75 14.8 L9.75 14.65 10.2 14.5 10.2 14.65 9.75 14.8" fill="#5b5047" fill-rule="evenodd" stroke="none"/>
      <path d="M13.9 22.4 L13.5 22.0 12.95 21.45 12.85 21.35 12.6 21.1 12.5 21.05 10.9 20.15 10.15 19.65 10.3 19.1 10.35 19.1 10.85 19.4 11.0 19.5 Q12.6 20.4 13.25 21.0 L13.45 21.2 13.55 21.3 13.55 21.35 13.8 21.5 13.85 21.55 14.25 22.15 14.35 22.35 13.9 22.4 M12.85 21.35 L13.2 21.65 13.5 22.0 13.2 21.65 12.85 21.35" fill="#d9ab73" fill-rule="evenodd" stroke="none"/>
      <path d="M21.2 17.6 L21.3 17.65 22.05 18.1 22.9 18.6 23.0 18.65 23.25 18.85 22.9 18.85 22.85 18.8 22.35 18.8 18.7 19.7 16.15 20.1 13.45 20.9 13.25 21.0 Q12.6 20.4 11.0 19.5 L11.15 19.55 13.0 19.9 13.6 19.95 15.25 19.65 15.7 19.4 16.5 19.15 20.1 18.25 21.4 18.15 20.75 17.6 21.2 17.6 M21.85 18.2 L21.8 18.25 21.75 18.25 21.7 18.35 21.85 18.5 22.05 18.6 22.2 18.6 22.2 18.5 22.05 18.3 21.95 18.25 21.85 18.2" fill="#f5d599" fill-rule="evenodd" stroke="none"/>
      <path d="M21.85 18.2 L21.95 18.25 22.05 18.3 22.2 18.5 22.2 18.6 22.05 18.6 21.85 18.5 21.7 18.35 21.75 18.25 21.8 18.25 21.85 18.2" fill="#ffecc9" fill-rule="evenodd" stroke="none"/>
      <path d="M19.1 12.85 L18.95 13.0 18.85 13.0 18.8 12.9 19.1 12.85 M21.9 20.4 L21.5 20.85 Q18.7 23.5 15.2 23.5 L14.65 23.5 14.65 23.3 14.35 22.35 15.3 22.25 15.55 22.25 15.45 22.0 15.45 21.95 15.7 21.55 16.45 21.4 Q16.85 21.4 17.1 21.7 L17.15 21.7 17.25 21.85 17.4 22.15 19.05 21.95 Q19.7 21.8 20.15 21.4 L20.4 21.15 20.55 21.0 Q20.95 20.7 21.7 20.45 L21.9 20.4 M11.4 8.65 L12.2 9.0 14.65 9.5 17.25 9.25 17.45 9.2 17.35 9.7 16.6 9.7 16.5 9.7 16.3 9.55 16.2 9.5 16.1 9.8 14.95 10.0 12.95 10.25 12.9 10.25 11.95 10.05 11.75 9.95 11.55 9.05 11.4 8.65 M20.6 20.5 L20.3 20.9 20.3 20.95 20.2 21.1 20.15 21.35 20.0 21.35 19.7 21.2 19.7 21.0 19.8 20.7 Q20.05 20.45 20.4 20.45 L20.6 20.5 M11.7 11.7 L12.15 11.8 12.1 11.7 12.35 11.3 Q12.5 11.15 12.8 11.15 13.25 11.15 13.45 11.4 L13.55 11.45 13.6 11.6 14.0 11.55 14.25 11.5 15.05 12.2 14.85 12.5 13.05 12.65 12.8 12.7 11.15 13.1 11.05 13.1 11.0 13.15 11.3 12.7 11.7 11.7 M13.75 11.25 L13.8 11.2 13.9 11.2 13.95 11.3 13.8 11.45 13.7 11.4 13.7 11.35 13.7 11.25 13.75 11.25 M17.2 11.55 L17.15 11.55 17.2 11.4 17.2 11.55 M17.8 21.45 L17.85 21.45 18.0 21.5 18.05 21.55 18.05 21.6 17.75 21.85 17.65 21.7 17.6 21.65 17.65 21.6 Q17.65 21.45 17.8 21.45" fill="#d29d6a" fill-rule="evenodd" stroke="none"/>
      <path d="M11.7 11.7 L11.75 11.15 11.75 10.75 11.75 9.95 11.95 10.05 12.9 10.25 12.95 10.25 14.95 10.0 16.1 9.8 16.0 10.35 15.8 10.3 15.55 10.3 14.7 10.5 14.65 10.5 14.1 10.75 13.75 10.95 14.15 11.35 14.25 11.5 14.0 11.55 13.6 11.6 13.55 11.45 13.45 11.4 Q13.25 11.15 12.8 11.15 12.5 11.15 12.35 11.3 L12.1 11.7 12.15 11.8 11.7 11.7 M16.5 9.7 L16.6 9.7 17.35 9.7 17.25 10.5 16.8 9.95 16.5 9.7 M13.75 11.25 L13.7 11.25 13.7 11.35 13.7 11.4 13.8 11.45 13.95 11.3 13.9 11.2 13.8 11.2 13.75 11.25" fill="#deba78" fill-rule="evenodd" stroke="none"/>
      <path d="M14.65 23.5 L14.3 23.5 14.3 23.45 14.25 23.2 14.1 22.7 13.95 22.45 13.9 22.4 14.35 22.35 14.65 23.3 14.65 23.5 M10.65 8.45 L10.8 8.35 11.4 8.65 11.55 9.05 11.75 9.95 11.25 9.8 10.9 8.9 10.65 8.45 M11.3 11.55 L11.4 11.6 11.7 11.7 11.3 12.7 11.0 13.15 10.65 13.25 10.0 13.45 10.6 12.95 10.65 12.95 10.9 12.6 11.25 11.85 11.3 11.55" fill="#bf8354" fill-rule="evenodd" stroke="none"/>
      <path d="M11.25 9.8 L11.75 9.95 11.75 10.75 11.75 11.15 11.7 11.7 11.4 11.6 11.3 11.55 11.3 11.5 11.35 11.2 11.4 10.8 11.25 9.8" fill="#d08e5b" fill-rule="evenodd" stroke="none"/>
      <path d="M8.5 18.15 L8.5 18.1 10.55 17.65 10.6 17.9 10.75 18.5 9.15 18.9 8.5 18.15 M16.2 17.05 L16.7 17.0 16.75 17.2 16.8 17.3 16.3 17.35 16.2 17.05" fill="#7e3e25" fill-rule="evenodd" stroke="none"/>
      <path d="M19.7 16.55 L20.1 16.5 20.45 16.75 20.55 16.8 20.1 16.9 19.95 16.9 19.65 16.95 19.5 16.7 19.45 16.65 19.3 16.6 19.7 16.55 M9.1 19.85 L8.95 19.75 8.5 19.4 8.45 19.0 8.45 18.25 8.5 18.15 9.15 18.9 9.1 19.6 9.1 19.85 M10.55 17.65 L10.95 17.6 Q11.0 18.05 11.4 18.4 L10.75 18.5 10.6 17.9 10.55 17.65 M15.9 17.05 L16.2 17.05 16.3 17.35 16.05 17.4 15.9 17.05 M16.7 17.0 L16.9 17.0 16.9 17.05 16.95 17.3 16.8 17.3 16.75 17.2 16.7 17.0" fill="#5f2b16" fill-rule="evenodd" stroke="none"/>
      <path d="M9.5 19.2 L9.5 19.25 9.35 19.1 9.15 18.9 10.75 18.5 10.8 18.55 10.9 18.75 9.5 19.2 M16.3 17.35 L16.8 17.3 16.95 17.55 16.8 17.55 16.3 17.6 16.3 17.35" fill="#9a4a2b" fill-rule="evenodd" stroke="none"/>
      <path d="M20.55 16.8 L20.8 17.05 20.4 17.1 19.65 17.25 19.7 17.1 19.7 17.05 19.65 16.95 19.95 16.9 20.1 16.9 20.55 16.8 M9.5 19.25 L9.45 19.4 9.45 19.95 9.45 20.0 9.1 19.85 9.1 19.6 9.15 18.9 9.35 19.1 9.5 19.25 M16.05 17.4 L16.3 17.35 16.3 17.6 16.05 17.65 16.05 17.6 16.05 17.5 16.05 17.4 M16.95 17.55 L16.8 17.3 16.95 17.3 17.15 17.55 16.95 17.55 M10.75 18.5 L11.4 18.4 11.65 18.6 11.35 18.65 10.9 18.75 10.8 18.55 10.75 18.5" fill="#77351b" fill-rule="evenodd" stroke="none"/>
      <path d="M17.95 7.7 L18.25 7.8 18.0 8.05 17.95 7.7" fill="#fefff7" fill-rule="evenodd" stroke="none"/>
      <path d="M21.15 9.55 L20.8 9.9 20.2 10.6 20.6 10.75 22.45 11.15 22.7 11.15 22.55 11.3 Q21.0 12.55 19.1 12.85 L18.8 12.9 18.85 13.0 19.4 14.0 18.75 13.8 18.7 13.8 18.0 13.65 17.95 13.65 17.85 14.0 17.8 14.05 17.75 14.2 17.25 13.95 17.0 13.7 16.8 13.65 15.8 13.85 15.7 13.6 15.65 13.45 15.55 13.15 15.55 13.0 15.35 13.05 15.2 13.1 14.8 13.1 14.7 13.1 14.7 13.05 14.85 12.5 15.05 12.2 14.25 11.5 14.15 11.35 13.75 10.95 14.1 10.75 14.65 10.5 14.7 10.5 14.65 11.1 15.0 11.2 15.35 11.35 16.0 11.5 15.95 11.65 15.9 12.3 16.45 12.35 16.8 12.35 17.05 12.65 17.25 12.75 17.4 12.75 17.65 12.8 17.85 12.8 17.9 12.75 17.9 12.8 18.0 12.8 18.2 12.7 18.5 12.6 18.4 12.5 17.95 12.05 18.1 11.8 18.15 11.65 18.15 11.55 18.0 11.5 17.85 11.5 17.75 11.45 17.55 11.5 17.2 11.55 17.2 11.4 17.25 11.15 17.4 10.8 17.25 10.5 17.35 9.7 17.45 9.2 17.6 8.55 17.9 7.65 17.9 7.6 17.95 7.7 18.0 8.05 18.35 8.95 18.9 9.65 19.4 9.3 20.05 8.9 20.2 8.8 20.65 9.1 21.15 9.55 M16.1 9.8 L16.2 9.5 16.3 9.55 16.35 9.75 16.45 10.15 16.6 11.25 16.25 10.85 15.55 10.3 15.8 10.3 16.0 10.35 16.1 9.8 M20.65 9.1 L19.9 9.9 19.8 10.0 19.55 10.25 17.85 11.5 19.55 10.25 19.8 10.0 19.9 9.9 20.65 9.1 M18.5 12.6 L18.7 12.8 18.7 12.85 18.8 12.9 18.7 12.85 18.7 12.8 18.5 12.6 M15.15 14.05 L14.15 14.8 Q13.75 14.7 13.75 14.3 L14.25 13.7 14.45 13.5 15.0 13.95 15.15 14.05" fill="#cdc9af" fill-rule="evenodd" stroke="none"/>
      <path d="M21.15 9.55 L22.3 10.9 22.45 11.15 20.6 10.75 20.2 10.6 20.8 9.9 21.15 9.55 M18.25 7.8 Q19.25 8.15 20.2 8.8 L20.05 8.9 19.4 9.3 18.9 9.65 18.35 8.95 18.0 8.05 18.25 7.8 M16.3 9.55 L16.5 9.7 16.8 9.95 17.25 10.5 17.4 10.8 17.25 11.15 17.2 11.4 17.15 11.55 17.2 11.55 17.55 11.5 17.75 11.45 17.85 11.5 18.0 11.5 18.15 11.55 18.15 11.65 18.1 11.8 17.95 12.05 18.4 12.5 18.5 12.6 18.2 12.7 18.0 12.8 17.9 12.8 17.9 12.75 17.85 12.8 17.65 12.8 17.4 12.75 17.25 12.75 17.05 12.65 16.8 12.35 16.45 12.35 15.9 12.3 15.95 11.65 16.0 11.5 15.35 11.35 15.0 11.2 14.65 11.1 14.7 10.5 15.55 10.3 16.25 10.85 16.6 11.25 16.45 10.15 16.35 9.75 16.3 9.55 M15.1 10.7 L15.0 10.85 15.15 11.0 15.45 11.05 Q15.9 11.05 15.9 10.85 L15.65 10.7 15.45 10.65 15.15 10.7 15.1 10.7" fill="#f5f7df" fill-rule="evenodd" stroke="none"/>
      <path d="M15.1 10.7 L15.15 10.7 15.45 10.65 15.65 10.7 15.9 10.85 Q15.9 11.05 15.45 11.05 L15.15 11.0 15.0 10.85 15.1 10.7" fill="#fffef0" fill-rule="evenodd" stroke="none"/>
      <path d="M15.7 13.6 L15.15 14.05 15.0 13.95 14.45 13.5 14.8 13.1 15.2 13.1 15.35 13.05 15.55 13.0 15.55 13.15 15.65 13.45 15.7 13.6" fill="#a8a087" fill-rule="evenodd" stroke="none"/>
      <path d="M11.45 16.6 L11.55 16.5 11.7 16.45 Q12.25 16.05 13.05 16.0 L13.5 16.0 Q14.55 16.0 15.3 16.45 L15.65 16.7 Q14.7 16.2 13.6 16.2 L13.3 16.25 14.6 17.1 13.8 17.1 12.75 17.15 11.75 16.6 11.35 16.9 11.3 16.95 11.45 16.6 M17.15 16.6 L17.25 16.6 17.3 16.55 18.05 16.35 18.3 16.35 19.25 16.55 19.3 16.6 19.25 16.6 18.35 16.45 18.2 16.45 18.65 16.75 18.9 16.85 18.7 16.85 18.45 16.85 17.9 16.9 17.35 16.6 17.15 16.75 17.1 16.8 17.15 16.6 M17.55 16.6 L17.65 16.6 17.75 16.6 18.05 16.6 18.15 16.5 18.0 16.45 17.9 16.45 17.8 16.5 17.7 16.5 17.55 16.6 M16.05 17.6 L16.05 17.65 15.95 17.9 15.75 17.95 15.15 17.9 13.9 17.65 15.05 17.4 15.05 17.3 15.3 17.4 15.5 17.45 16.05 17.6 M19.65 17.25 L19.55 17.3 19.35 17.25 19.2 17.25 18.95 17.25 18.5 17.15 18.85 17.1 19.15 17.05 19.15 16.95 19.2 17.0 19.35 17.05 19.7 17.1 19.65 17.25 M12.45 16.35 Q12.15 16.45 12.15 16.55 L12.3 16.6 12.5 16.6 13.1 16.5 13.2 16.4 12.95 16.25 12.9 16.25 12.8 16.25 12.65 16.3 12.45 16.35" fill="#defff6" fill-rule="evenodd" stroke="none"/>
      <path d="M17.55 16.6 L17.7 16.5 17.8 16.5 17.9 16.45 18.0 16.45 18.15 16.5 18.05 16.6 17.75 16.6 17.65 16.6 17.55 16.6 M12.45 16.35 L12.65 16.3 12.8 16.25 12.9 16.25 12.95 16.25 13.2 16.4 13.1 16.5 12.5 16.6 12.3 16.6 12.15 16.55 Q12.15 16.45 12.45 16.35" fill="#ffffff" fill-rule="evenodd" stroke="none"/>
      <path d="M15.65 16.7 L15.9 17.05 16.05 17.4 16.05 17.5 16.05 17.6 15.5 17.45 15.3 17.4 15.05 17.3 15.0 17.1 14.6 17.1 13.3 16.25 13.6 16.2 Q14.7 16.2 15.65 16.7 M17.1 16.8 L17.15 16.75 17.35 16.6 17.9 16.9 17.5 16.95 17.85 17.25 18.5 17.15 18.95 17.25 19.2 17.25 19.35 17.25 19.55 17.3 19.1 17.4 19.05 17.4 18.2 17.5 17.8 17.45 17.55 17.4 17.25 17.25 17.1 17.0 17.1 16.9 17.1 16.8 M18.9 16.85 L18.65 16.75 18.2 16.45 18.35 16.45 19.25 16.6 19.3 16.6 19.45 16.65 19.5 16.7 19.65 16.95 19.7 17.05 19.7 17.1 19.35 17.05 19.2 17.0 19.15 16.95 19.1 16.85 18.9 16.85 M13.9 17.65 L15.15 17.9 15.75 17.95 14.95 18.2 13.4 18.45 12.8 18.4 12.2 18.25 12.15 18.2 11.35 17.55 11.3 17.15 11.3 16.95 11.35 16.9 11.75 16.6 12.75 17.15 12.05 17.25 12.45 17.75 12.65 17.95 12.7 17.95 13.9 17.65" fill="#b9e2d7" fill-rule="evenodd" stroke="none"/>
      <path d="M10.95 17.6 L10.95 17.5 Q10.95 17.0 11.45 16.6 L11.3 16.95 11.3 17.15 11.35 17.55 12.15 18.2 12.2 18.25 12.8 18.4 13.4 18.45 14.95 18.2 15.75 17.95 15.95 17.9 15.9 18.0 15.3 18.6 Q14.55 19.05 13.5 19.05 12.45 19.05 11.7 18.6 L11.65 18.6 11.4 18.4 Q11.0 18.05 10.95 17.6 M16.9 17.0 L17.15 16.6 17.1 16.8 17.1 16.9 17.1 17.0 17.25 17.25 17.55 17.4 17.8 17.45 18.2 17.5 19.05 17.4 19.1 17.4 19.55 17.3 19.65 17.25 19.6 17.3 19.25 17.6 18.3 17.8 17.3 17.6 17.15 17.55 16.95 17.3 16.9 17.05 16.9 17.0" fill="#83a2a8" fill-rule="evenodd" stroke="none"/>
      <path d="M17.9 16.9 L18.45 16.85 18.7 16.85 18.9 16.85 19.1 16.85 19.15 16.95 19.15 17.05 18.85 17.1 18.5 17.15 17.85 17.25 17.5 16.95 17.9 16.9 M15.05 17.3 L15.05 17.4 13.9 17.65 12.7 17.95 12.65 17.95 12.45 17.75 12.05 17.25 12.75 17.15 13.8 17.1 14.6 17.1 15.0 17.1 15.05 17.3" fill="#f9f228" fill-rule="evenodd" stroke="none"/>
      <path d="M22.55 11.3 Q21.0 12.55 19.1 12.85 L18.95 13.0 18.85 13.0 19.4 14.0 18.75 13.8 18.7 13.8 18.0 13.65 18.15 14.3 Q18.4 15.2 19.0 15.9 L19.45 16.35 19.65 16.5 19.7 16.55 20.1 16.5 20.45 16.75 20.55 16.8 20.8 17.05 20.4 17.1 21.2 17.6 21.3 17.65 22.05 18.1 22.9 18.6 23.0 18.65 M11.8 22.9 Q12.2 22.6 12.5 22.55 L12.55 22.55 12.65 22.55 13.3 22.5 13.4 22.5 13.7 22.45 13.95 22.45 13.9 22.4 13.5 22.0 12.95 21.45 12.85 21.35 12.6 21.1 12.5 21.05 10.9 20.15 10.15 19.65 9.5 19.2 9.5 19.25 9.45 19.4 9.45 19.95 9.45 20.0 9.1 19.85 8.95 19.75 8.5 19.4 8.45 19.0 8.45 18.25 8.2 17.9 8.15 17.9 Q7.25 16.65 7.0 14.9 L6.9 13.75 6.9 13.65 6.9 13.55 M8.05 10.9 L8.05 10.95 8.0 11.4 8.0 11.75 8.0 11.8 8.1 12.35 8.4 12.95 Q8.85 13.55 9.45 13.55 L9.6 13.55 9.7 13.55 10.0 13.45 10.65 13.25 11.0 13.15 11.05 13.1 11.15 13.1 12.8 12.7 13.05 12.65 14.85 12.5 15.05 12.2 14.25 11.5 14.15 11.35 13.75 10.95 14.1 10.75 14.65 10.5 14.7 10.5 15.55 10.3 15.8 10.3 16.0 10.35 16.1 9.8 16.2 9.5 16.3 9.55 16.5 9.7 16.8 9.95 17.25 10.5 17.35 9.7 17.45 9.2 17.6 8.55 17.9 7.65 17.9 7.6 M10.8 8.35 L11.4 8.65 12.2 9.0 14.65 9.5 17.25 9.25 17.45 9.2 M20.3 20.9 L20.3 20.95 20.3 21.05 20.15 21.35 20.0 21.35 19.7 21.2 19.7 21.0 19.8 20.7 Q20.05 20.45 20.4 20.45 L20.6 20.5 M10.65 8.45 L10.9 8.9 11.25 9.8 11.4 10.8 11.35 11.2 11.3 11.5 11.3 11.55 11.25 11.85 10.9 12.6 10.65 12.95 10.6 12.95 10.0 13.45 M10.1 11.2 L10.1 11.25 10.0 11.4 9.85 11.6 9.55 11.8 9.5 11.85 9.4 11.85 9.3 11.85 9.25 11.8 9.1 11.75 9.05 11.7 8.95 11.55 8.95 11.35 9.0 11.2 M10.2 10.9 L10.2 10.7 10.05 9.95 Q9.8 9.55 9.4 9.55 L9.15 9.6 M18.5 12.6 L18.4 12.5 17.95 12.05 18.1 11.8 18.15 11.65 18.15 11.55 18.0 11.5 17.85 11.5 17.75 11.45 17.55 11.5 17.2 11.55 17.15 11.55 17.2 11.4 17.25 11.15 17.4 10.8 17.25 10.5 M17.2 11.4 L17.2 11.55 M17.85 11.5 L19.55 10.25 19.8 10.0 19.9 9.9 20.65 9.1 M14.7 13.05 L14.85 12.5 M8.5 18.15 L8.5 18.1 10.55 17.65 10.95 17.6 10.95 17.5 Q10.95 17.0 11.45 16.6 L11.55 16.5 11.7 16.45 Q12.25 16.05 13.05 16.0 L13.5 16.0 Q14.55 16.0 15.3 16.45 L15.65 16.7 15.9 17.05 16.2 17.05 16.7 17.0 16.9 17.0 17.15 16.6 17.25 16.6 17.3 16.55 18.05 16.35 18.3 16.35 19.25 16.55 19.3 16.6 19.7 16.55 M8.5 18.15 L8.45 18.25 M18.8 12.9 L18.7 12.85 18.7 12.8 18.5 12.6 M19.1 12.85 L18.8 12.9 18.85 13.0 M18.0 13.65 L17.95 13.65 17.85 14.0 17.8 14.05 17.75 14.2 17.25 13.95 17.0 13.7 16.8 13.65 15.8 13.85 15.7 13.6 15.15 14.05 14.15 14.8 Q13.75 14.7 13.75 14.3 L14.25 13.7 14.45 13.5 14.8 13.1 14.7 13.1 14.7 13.05 M14.8 13.1 L15.2 13.1 15.35 13.05 15.55 13.0 15.55 13.15 15.65 13.45 15.7 13.6 M17.9 16.9 L18.45 16.85 18.7 16.85 18.9 16.85 19.1 16.85 19.15 16.95 19.15 17.05 18.85 17.1 18.5 17.15 17.85 17.25 17.5 16.95 17.9 16.9 M19.3 16.6 L19.45 16.65 19.5 16.7 19.65 16.95 19.7 17.05 19.7 17.1 19.65 17.25 19.6 17.3 19.25 17.6 18.3 17.8 17.3 17.6 17.15 17.55 16.95 17.55 16.8 17.55 16.3 17.6 16.05 17.65 16.05 17.6 16.05 17.5 16.05 17.4 15.9 17.05 M16.95 17.3 L16.9 17.05 16.9 17.0 M15.05 17.3 L15.05 17.4 13.9 17.65 12.7 17.95 12.65 17.95 12.45 17.75 12.05 17.25 12.75 17.15 13.8 17.1 14.6 17.1 15.0 17.1 15.05 17.3 M15.95 17.9 L16.05 17.65 M11.65 18.6 L11.7 18.6 Q12.45 19.05 13.5 19.05 14.55 19.05 15.3 18.6 L15.9 18.0 15.95 17.9 M16.95 17.3 L17.15 17.55 M11.4 18.4 Q11.0 18.05 10.95 17.6 M10.9 18.75 L11.35 18.65 11.65 18.6 11.4 18.4 M13.5 22.0 L13.2 21.65 12.85 21.35 M13.95 22.45 L14.1 22.7 14.25 23.2 14.3 23.45 14.3 23.5 M13.55 23.3 L13.55 23.4 M13.55 23.3 L13.45 23.15 Q13.15 22.6 12.65 22.55 M10.9 18.75 L9.5 19.2 M10.1 11.2 L10.2 10.9 M20.4 17.1 L19.65 17.25" fill="none" stroke="#430c0c" stroke-linecap="round" stroke-linejoin="round" stroke-width="0.1"/>
      <path d="M9.1 9.7 L9.2 9.6 Q11.7 7.3 15.25 7.3 L15.95 7.3 Q9.25 12.55 10.25 21.8 L9.2 20.95 9.05 20.8 Q6.75 18.5 6.75 15.25 6.75 12.05 9.1 9.7" fill="#ffffff" fill-opacity="0.2" fill-rule="evenodd" stroke="none"/>
      <path d="M11.6 9.3 Q11.95 9.4 11.8 10.1 L10.7 11.8 9.5 13.15 Q8.95 13.05 8.85 12.75 L8.85 12.4 Q9.15 10.8 10.6 9.7 11.25 9.2 11.6 9.3 M9.9 14.75 L9.55 15.25 Q9.2 15.55 8.85 15.5 8.35 15.4 8.2 15.0 L8.25 14.6 Q8.35 13.8 9.15 13.9 10.05 14.0 9.9 14.75" fill="#ffffff" fill-rule="evenodd" stroke="none"/>
    </g>
    <linearGradient gradientTransform="matrix(0.0068, 0.0, 0.0, 0.005, 20.5, 25.9)" gradientUnits="userSpaceOnUse" id="gradient0" spreadMethod="pad" x1="-819.2" x2="819.2">
      <stop offset="0.0" stop-color="#65298e"/>
      <stop offset="1.0" stop-color="#9a6cc5"/>
    </linearGradient>
  </defs>
</svg>
