<?xml version="1.0" encoding="UTF-8" standalone="no"?>
<svg xmlns:ffdec="https://www.free-decompiler.com/flash" xmlns:xlink="http://www.w3.org/1999/xlink" ffdec:objectType="frame" height="30.0px" width="30.0px" xmlns="http://www.w3.org/2000/svg">
  <g transform="matrix(1.0, 0.0, 0.0, 1.0, 0.0, 0.0)">
    <use ffdec:characterId="1" height="30.0" transform="matrix(1.0, 0.0, 0.0, 1.0, 0.0, 0.0)" width="30.0" xlink:href="#shape0"/>
    <use ffdec:characterId="3" height="60.0" transform="matrix(0.5, 0.0, 0.0, 0.5, 0.0, 0.0)" width="60.0" xlink:href="#sprite0"/>
  </g>
  <defs>
    <g id="shape0" transform="matrix(1.0, 0.0, 0.0, 1.0, 0.0, 0.0)">
      <path d="M0.0 0.0 L30.0 0.0 30.0 30.0 0.0 30.0 0.0 0.0" fill="#33cc66" fill-opacity="0.0" fill-rule="evenodd" stroke="none"/>
    </g>
    <g id="sprite0" transform="matrix(1.0, 0.0, 0.0, 1.0, 0.0, 0.0)">
      <use ffdec:characterId="2" height="60.0" transform="matrix(1.0, 0.0, 0.0, 1.0, 0.0, 0.0)" width="60.0" xlink:href="#shape1"/>
    </g>
    <g id="shape1" transform="matrix(1.0, 0.0, 0.0, 1.0, 0.0, 0.0)">
      <path d="M42.3 19.1 Q43.7 20.4 44.6 21.8 47.3 25.7 47.3 30.7 47.3 37.0 43.0 41.7 37.4 47.0 30.4 47.0 23.3 47.0 18.3 42.3 L18.0 42.0 Q14.1 38.0 13.5 32.6 L13.4 30.7 13.5 28.9 Q14.1 23.5 18.1 19.4 L18.3 19.1 Q23.3 14.5 30.4 14.5 35.9 14.5 40.4 17.6 41.4 18.2 42.3 19.1" fill="#4b1c6c" fill-rule="evenodd" stroke="none"/>
      <path d="M44.2 43.8 L44.2 43.7 44.3 43.8 44.2 43.8" fill="url(#gradient0)" fill-rule="evenodd" stroke="none"/>
      <path d="M52.0 8.6 L45.9 19.5 Q49.0 23.5 49.6 28.4 L60.0 30.1 49.7 32.7 Q49.0 38.5 45.1 42.8 L52.0 51.6 42.3 45.4 Q37.9 48.9 32.2 49.4 L29.9 60.0 27.6 49.3 Q22.5 48.6 18.5 45.7 L9.0 51.6 14.9 42.2 13.5 40.2 Q11.1 36.4 10.9 31.8 L10.9 31.6 0.0 29.9 11.1 27.5 Q11.6 24.0 13.5 21.1 14.7 19.2 16.4 17.5 L16.6 17.3 9.2 8.6 19.8 14.9 Q23.3 12.6 27.6 12.2 L29.9 0.0 33.7 12.3 Q38.4 13.0 42.2 15.9 L42.3 16.0 52.0 8.6 M42.3 19.1 Q41.4 18.2 40.4 17.6 35.9 14.5 30.4 14.5 23.3 14.5 18.3 19.1 L18.1 19.4 Q14.1 23.5 13.5 28.9 L13.4 30.7 13.5 32.6 Q14.1 38.0 18.0 42.0 L18.3 42.3 Q23.3 47.0 30.4 47.0 37.4 47.0 43.0 41.7 47.3 37.0 47.3 30.7 47.3 25.7 44.6 21.8 43.7 20.4 42.3 19.1 M44.2 43.8 L44.3 43.8 44.2 43.7 44.2 43.8" fill="#f6fd33" fill-rule="evenodd" stroke="none"/>
      <path d="M52.0 8.6 L42.3 16.0 42.2 15.9 Q38.4 13.0 33.7 12.3 L29.9 0.0 27.6 12.2 Q23.3 12.6 19.8 14.9 L9.2 8.6 16.6 17.3 16.4 17.5 Q14.7 19.2 13.5 21.1 11.6 24.0 11.1 27.5 L0.0 29.9 10.9 31.6 10.9 31.8 Q11.1 36.4 13.5 40.2 L14.9 42.2 9.0 51.6 18.5 45.7 Q22.5 48.6 27.6 49.3 L29.9 60.0 32.2 49.4 Q37.9 48.9 42.3 45.4 L52.0 51.6 45.1 42.8 Q49.0 38.5 49.7 32.7 L60.0 30.1 49.6 28.4 Q49.0 23.5 45.9 19.5 L52.0 8.6 50.6 22.6 60.0 30.1 50.5 38.3 52.1 51.7 52.1 51.8 38.0 50.8 29.9 60.0 22.1 50.8 9.0 51.6 9.0 51.3 10.1 38.6 0.0 29.9 10.2 22.1 9.2 8.6 21.9 10.3 29.9 0.0 38.3 10.3 52.0 8.6" fill="#fd7800" fill-rule="evenodd" stroke="none"/>
      <path d="M44.6 21.95 L45.15 22.8 44.9 23.15 44.2 23.55 43.9 23.8 43.8 23.9 43.5 24.15 43.3 24.3 41.65 25.3 Q41.3 25.4 41.05 25.65 L40.45 25.95 40.4 26.0 40.3 26.0 40.15 26.1 40.0 26.2 39.5 25.6 39.4 25.55 39.4 25.5 39.55 25.4 39.6 25.4 39.8 25.3 39.9 25.3 40.0 25.25 43.45 22.95 44.45 22.0 44.6 21.95 M46.15 24.85 L46.95 27.8 46.85 27.7 46.65 27.6 45.6 27.6 46.45 30.1 46.35 30.4 46.25 30.35 45.6 29.75 44.6 27.0 45.15 26.1 46.1 24.95 46.15 24.85 M47.2 31.35 Q47.15 33.4 46.6 35.25 L46.55 35.25 46.45 34.35 46.25 32.8 46.1 32.1 46.05 31.7 46.05 31.5 46.35 31.0 46.55 30.7 46.7 30.6 46.75 30.65 47.2 31.35 M45.75 37.55 L43.65 40.85 43.6 37.6 43.55 37.45 43.55 37.15 43.45 35.7 43.45 35.5 Q43.3 35.4 43.45 35.25 L43.3 34.95 43.3 34.6 43.0 33.0 43.85 32.85 44.65 32.75 44.75 32.75 45.0 32.75 45.05 33.05 45.3 34.2 45.3 34.3 45.5 35.25 45.65 36.95 45.75 37.55 M20.1 43.55 L20.1 43.75 20.05 43.8 18.2 42.3 17.9 42.0 17.55 41.65 17.65 40.75 17.7 39.4 Q17.85 36.85 18.35 34.85 L18.35 34.75 18.4 34.6 18.4 34.5 19.75 34.3 20.2 34.25 20.7 34.2 20.75 34.2 21.15 34.15 21.05 34.45 20.75 35.8 20.7 36.3 20.5 36.95 20.45 37.95 20.45 38.05 20.35 38.7 20.25 39.1 20.1 41.45 20.1 41.65 20.1 42.15 20.1 43.55 M13.5 32.1 L13.35 31.95 13.3 30.7 13.4 29.15 14.55 30.3 14.5 30.6 14.65 32.25 14.75 32.3 15.6 31.35 16.05 31.9 16.95 32.95 16.95 33.3 16.75 35.2 16.75 35.65 13.5 32.1 M13.45 28.5 L13.45 28.4 13.5 28.35 Q14.25 26.8 16.05 24.8 L17.5 26.25 18.65 27.7 18.45 28.05 17.25 31.35 17.2 31.35 16.95 31.5 16.75 31.6 16.55 31.6 15.85 30.8 15.85 30.7 16.25 29.75 16.65 28.4 16.15 28.35 16.0 28.3 15.6 28.35 15.05 28.7 14.45 29.4 13.55 28.6 13.45 28.5 M19.2 18.25 Q19.95 17.65 20.8 17.1 L20.75 18.3 21.9 17.5 21.95 17.45 22.65 16.3 22.6 16.15 24.35 15.45 23.45 16.95 23.65 17.4 25.0 15.25 27.15 14.75 27.8 15.2 31.75 18.3 32.0 18.45 32.4 18.8 33.8 20.2 33.6 20.5 31.4 23.75 30.0 25.95 29.4 27.0 29.35 27.1 29.3 27.1 28.85 27.0 28.1 26.55 26.3 25.6 23.8 24.2 22.65 23.55 22.55 23.4 21.95 23.0 21.6 22.6 21.45 22.3 21.35 22.2 21.35 22.0 21.05 21.7 20.7 21.2 19.85 19.85 19.6 19.4 19.45 18.95 19.2 18.25 M27.8 14.65 L30.3 14.5 Q33.25 14.5 35.95 15.4 L36.3 16.1 36.4 16.3 36.5 16.8 35.65 17.8 33.9 17.8 32.95 17.9 32.3 18.05 32.3 18.0 27.8 14.65 M43.1 26.0 L44.2 29.4 44.95 32.2 44.6 32.25 43.7 32.3 42.9 32.45 42.8 31.95 42.5 30.7 42.4 30.65 42.35 30.35 41.5 28.05 41.2 27.4 41.35 27.3 43.1 26.0 M29.75 27.3 L29.9 27.0 30.05 26.75 32.0 23.75 34.15 20.55 37.55 24.2 37.75 24.4 37.8 24.4 37.8 24.45 37.45 24.95 37.4 25.0 Q36.9 25.55 34.3 25.85 33.65 26.4 33.3 26.8 L33.1 27.0 Q35.75 27.1 38.5 25.9 L39.05 25.7 39.35 26.1 39.6 26.25 39.6 26.4 Q36.1 28.05 32.8 28.2 L32.75 28.1 32.5 28.05 31.15 27.75 29.75 27.3 M38.0 24.0 L37.75 23.75 35.45 21.35 34.5 20.3 34.45 20.2 34.75 19.8 36.3 17.8 36.7 17.4 36.8 17.25 37.0 18.0 37.15 18.35 37.4 18.95 37.55 19.4 37.75 20.1 38.3 22.2 38.4 22.8 38.4 22.9 38.1 23.7 38.0 24.0 M24.1 18.5 L23.8 19.05 Q22.9 20.45 22.85 20.9 22.85 21.35 25.45 22.3 L25.55 22.35 29.0 23.55 29.1 23.55 27.5 20.5 26.15 18.8 24.6 17.8 24.1 18.5 M22.05 26.25 L24.3 27.4 23.5 28.35 22.95 29.15 22.65 29.75 22.35 30.4 21.9 31.6 21.75 31.9 21.75 31.95 21.55 32.85 21.3 33.45 20.8 33.55 20.7 33.6 20.35 33.65 20.2 33.65 18.65 33.85 18.55 33.85 18.7 33.3 19.0 32.25 19.25 31.55 19.3 31.3 Q20.4 28.6 22.05 26.25" fill="#ffcd40" fill-rule="evenodd" stroke="none"/>
      <path d="M44.6 21.95 L44.45 22.0 43.45 22.95 40.0 25.25 39.9 25.3 39.8 25.3 39.6 25.4 39.55 25.4 39.4 25.5 39.05 25.05 38.95 24.95 38.45 24.5 38.4 24.45 38.0 24.0 38.1 23.7 38.4 22.9 38.4 22.8 38.3 22.2 37.75 20.1 37.55 19.4 37.4 18.95 37.15 18.35 37.0 18.0 36.8 17.25 37.8 16.15 Q39.1 16.75 40.3 17.6 L42.2 19.1 Q43.6 20.4 44.5 21.8 L44.6 21.95 M46.95 27.8 L47.15 29.3 46.45 30.1 45.6 27.6 46.65 27.6 46.85 27.7 46.95 27.8 M47.2 30.0 L47.2 30.7 47.2 31.35 46.75 30.65 46.7 30.6 47.2 30.0 M20.8 17.1 Q21.65 16.55 22.6 16.15 L22.65 16.3 21.95 17.45 21.9 17.5 20.75 18.3 20.8 17.1 M35.95 15.4 L37.3 15.95 36.5 16.8 36.4 16.3 36.3 16.1 35.95 15.4 M24.1 18.5 L24.6 17.8 26.15 18.8 27.5 20.5 29.1 23.55 29.0 23.55 25.55 22.35 25.45 22.3 Q22.85 21.35 22.85 20.9 22.9 20.45 23.8 19.05 L24.1 18.5 M39.05 25.7 L38.5 25.9 Q35.75 27.1 33.1 27.0 L33.3 26.8 Q33.65 26.4 34.3 25.85 36.9 25.55 37.4 25.0 L37.45 24.95 37.8 24.45 37.8 24.4 37.85 24.45 38.4 24.95 38.5 25.2 39.05 25.7 M14.45 29.4 L15.05 28.7 15.6 28.35 16.0 28.3 16.15 28.35 16.65 28.4 16.25 29.75 15.85 30.7 15.85 30.8 14.5 29.5 14.45 29.4 M15.6 31.35 L14.75 32.3 14.65 32.25 14.5 30.6 14.55 30.3 15.6 31.35" fill="#f6fd33" fill-rule="evenodd" stroke="none"/>
      <path d="M40.0 26.2 L40.15 26.1 40.3 26.0 40.4 26.0 40.45 25.95 41.05 25.65 Q41.3 25.4 41.65 25.3 L43.3 24.3 43.5 24.15 43.8 23.9 43.9 23.8 44.2 23.55 44.9 23.15 45.15 22.8 45.65 23.7 46.15 24.85 46.1 24.95 45.15 26.1 44.6 27.0 45.6 29.75 Q45.15 29.4 44.5 29.4 L44.2 29.4 43.1 26.0 43.3 25.85 43.6 25.6 43.85 25.35 45.65 23.7 43.85 25.35 43.6 25.6 43.3 25.85 43.0 25.9 41.8 26.1 41.35 26.1 40.6 26.15 40.25 26.2 40.0 26.25 40.0 26.2 M46.6 35.25 L46.0 36.95 45.65 36.95 45.5 35.25 45.3 34.3 45.3 34.2 45.05 33.05 45.0 32.75 44.75 32.75 44.65 32.75 43.85 32.85 43.0 33.0 42.9 32.5 42.9 32.45 43.7 32.3 44.6 32.25 44.95 32.2 44.95 32.25 45.0 32.7 45.0 32.75 45.05 32.75 45.15 32.7 45.2 32.65 45.45 32.2 45.5 32.15 45.55 32.1 45.9 31.55 46.05 31.5 46.05 31.7 46.1 32.1 46.25 32.8 46.45 34.35 46.55 35.25 46.6 35.25 M16.95 40.9 L16.35 40.2 16.8 39.3 16.8 40.2 16.95 40.9 M15.9 39.55 Q13.8 36.4 13.4 32.6 L13.35 32.2 13.5 32.1 16.75 35.65 16.75 35.2 16.95 33.3 16.95 32.95 17.85 33.95 18.05 34.25 18.1 34.3 18.25 34.45 18.35 34.55 18.35 34.6 18.4 34.6 18.35 34.75 18.35 34.85 Q17.85 36.85 17.7 39.4 L17.35 39.3 16.8 39.15 Q16.85 38.1 17.25 37.3 L17.4 36.9 17.5 36.85 17.4 36.6 16.75 35.65 17.4 36.6 16.05 39.1 15.9 39.55 M13.5 28.35 Q13.65 27.25 13.95 26.25 L14.25 25.7 14.5 25.25 15.9 23.15 16.75 22.2 16.3 21.8 15.6 22.7 15.0 23.55 Q15.5 22.55 16.15 21.65 16.95 20.45 18.0 19.4 L18.2 19.1 19.2 18.25 19.45 18.95 19.6 19.4 19.85 19.85 20.7 21.2 21.05 21.7 20.85 22.1 20.7 22.5 19.65 22.7 19.55 22.8 17.95 23.3 19.55 24.65 19.6 24.7 19.75 24.75 19.8 24.75 20.1 24.95 20.15 25.0 20.65 23.85 20.7 23.7 20.85 23.25 21.25 22.4 21.25 22.35 21.35 22.2 21.45 22.3 21.6 22.6 21.95 23.0 22.55 23.4 22.65 23.55 23.8 24.2 26.3 25.6 28.1 26.55 28.85 27.0 29.3 27.1 29.3 27.15 28.9 27.2 28.0 27.5 26.9 27.8 26.2 28.05 25.85 28.2 25.55 28.05 24.3 27.4 22.05 26.25 20.95 25.55 20.35 25.1 20.15 25.0 20.35 25.1 20.95 25.55 22.05 26.25 Q20.4 28.6 19.3 31.3 L18.55 31.2 17.25 31.35 18.45 28.05 18.65 27.7 17.5 26.25 16.05 24.8 Q14.25 26.8 13.5 28.35 M40.7 27.75 L40.2 28.05 Q36.5 30.4 33.8 31.2 L29.4 29.7 29.1 29.55 28.5 29.25 28.7 29.0 29.45 27.8 29.75 27.3 31.15 27.75 32.5 28.05 32.75 28.1 32.8 28.2 Q36.1 28.05 39.6 26.4 L40.7 27.75 M16.3 21.8 L16.15 21.65 16.3 21.8 M16.75 22.2 L17.95 23.3 16.75 22.2 M18.55 33.9 L18.65 33.85 20.2 33.65 20.35 33.65 20.7 33.6 20.8 33.55 21.3 33.45 21.15 34.15 20.75 34.2 20.7 34.2 20.2 34.25 19.75 34.3 18.4 34.5 18.55 33.95 18.55 33.9" fill="#fd7800" fill-rule="evenodd" stroke="none"/>
      <path d="M46.35 30.4 L45.9 31.0 45.6 29.75 46.25 30.35 46.35 30.4 M16.55 31.6 L16.75 31.6 16.95 31.5 17.2 31.35 17.25 31.35 17.25 31.4 17.1 32.15 16.55 31.6" fill="#834b07" fill-rule="evenodd" stroke="none"/>
      <path d="M39.4 25.55 L39.5 25.6 40.0 26.2 39.9 26.2 39.65 26.25 39.6 26.4 39.6 26.25 39.35 26.1 39.05 25.7 39.3 25.6 39.4 25.55 M13.4 29.15 L13.4 28.9 13.45 28.5 13.55 28.6 14.45 29.4 14.5 29.5 14.55 29.6 14.55 30.3 13.4 29.15 M24.35 15.45 L25.0 15.25 23.65 17.4 23.45 16.95 24.35 15.45 M27.15 14.75 L27.8 14.65 32.3 18.0 32.3 18.05 32.35 18.1 34.1 19.85 34.45 19.25 35.65 17.8 36.5 16.8 36.7 17.4 36.3 17.8 34.75 19.8 34.45 20.2 34.5 20.3 35.45 21.35 37.75 23.75 38.0 24.0 38.0 24.05 37.85 24.15 37.75 24.4 37.55 24.2 34.15 20.55 32.0 23.75 30.05 26.75 29.9 27.0 29.75 27.3 29.4 27.15 29.35 27.1 29.4 27.0 30.0 25.95 31.4 23.75 33.6 20.5 33.8 20.2 32.4 18.8 32.0 18.45 31.75 18.3 27.8 15.2 27.15 14.75 M46.7 30.6 L46.55 30.7 46.35 31.0 46.05 31.5 45.95 31.3 45.9 31.0 46.35 30.4 46.45 30.1 46.7 30.45 46.7 30.6 M15.85 30.8 L16.55 31.6 17.1 32.15 16.95 32.95 16.05 31.9 15.6 31.35 15.85 30.8" fill="#c02d00" fill-rule="evenodd" stroke="none"/>
      <path d="M39.4 25.5 L39.4 25.55 39.3 25.6 39.05 25.7 38.5 25.2 38.4 24.95 37.85 24.45 37.8 24.4 37.75 24.4 37.85 24.15 38.0 24.05 38.0 24.0 38.4 24.45 38.45 24.5 38.95 24.95 39.05 25.05 39.4 25.5 M47.15 29.3 L47.2 30.0 46.7 30.6 46.7 30.45 46.45 30.1 47.15 29.3 M37.3 15.95 L37.8 16.15 36.8 17.25 36.7 17.4 36.5 16.8 37.3 15.95 M14.5 29.5 L15.85 30.8 15.6 31.35 14.55 30.3 14.55 29.6 14.5 29.5" fill="#d76811" fill-rule="evenodd" stroke="none"/>
      <path d="M46.0 36.95 L45.75 37.55 45.65 36.95 46.0 36.95 M36.4 45.9 L36.1 46.0 35.45 46.25 35.95 46.0 36.1 46.0 36.3 45.9 36.4 45.9 M29.2 47.0 L25.05 46.3 25.3 46.3 27.1 46.5 27.55 46.55 Q28.55 46.7 29.2 47.0 M17.55 41.65 L16.95 40.9 16.8 40.2 16.8 39.3 16.8 39.15 17.35 39.3 17.7 39.4 17.65 40.75 17.55 41.65 M43.3 25.85 L43.1 26.0 41.35 27.3 41.2 27.4 41.0 27.5 40.5 26.9 40.45 26.8 40.0 26.25 40.25 26.2 40.6 26.15 41.35 26.1 41.8 26.1 43.0 25.9 43.3 25.85 M44.2 29.4 L44.5 29.4 Q45.15 29.4 45.6 29.75 L45.9 31.0 45.15 32.0 45.0 32.2 44.95 32.2 44.2 29.4 M35.65 17.8 L34.45 19.25 34.1 19.85 32.35 18.1 32.3 18.05 32.95 17.9 33.9 17.8 35.65 17.8 M25.85 28.2 L26.2 28.05 26.9 27.8 28.0 27.5 28.9 27.2 29.3 27.15 29.0 27.65 28.85 27.9 28.3 28.8 28.1 29.1 25.85 28.2 M20.7 22.5 L20.25 23.5 19.85 24.65 19.8 24.75 19.75 24.75 19.6 24.7 19.55 24.65 17.95 23.3 19.55 22.8 19.65 22.7 20.7 22.5 M17.25 31.35 L18.55 31.2 19.3 31.3 19.25 31.55 19.0 32.25 18.7 33.3 18.55 33.85 18.65 33.85 18.55 33.9 18.45 33.85 18.4 33.75 17.25 32.4 17.1 32.15 17.25 31.4 17.25 31.35" fill="#6d3004" fill-rule="evenodd" stroke="none"/>
      <path d="M43.65 40.85 L43.0 41.6 43.0 41.45 42.8 41.5 42.5 41.65 42.25 40.6 42.4 40.6 42.95 40.35 42.95 40.3 42.95 39.45 42.65 39.65 42.1 39.9 41.95 39.3 41.8 38.95 42.1 38.55 42.2 38.55 Q42.8 37.55 43.0 36.15 L43.1 34.55 43.1 34.25 43.0 34.0 Q42.9 32.4 42.25 31.25 L41.8 30.65 Q40.75 29.0 39.5 29.0 38.3 28.95 37.55 30.6 37.0 31.5 36.85 32.65 L36.25 32.5 Q36.1 32.5 36.0 32.65 L35.2 33.3 34.45 34.25 34.0 34.85 32.95 33.85 Q32.05 33.0 31.7 33.0 L31.2 33.15 Q30.85 31.2 29.5 29.85 L29.4 29.7 33.8 31.2 Q36.5 30.4 40.2 28.05 L40.7 27.75 40.9 27.6 41.0 27.5 41.2 27.4 41.5 28.05 42.35 30.35 42.4 30.65 42.5 30.7 42.8 31.95 42.9 32.45 42.9 32.5 43.0 33.0 43.3 34.6 43.3 34.95 43.45 35.25 Q43.3 35.4 43.45 35.5 L43.45 35.7 43.55 37.15 43.55 37.45 43.6 37.6 43.65 40.85 M21.15 43.85 L20.1 43.55 20.1 42.15 21.45 42.7 21.05 42.7 21.15 43.2 21.3 43.3 21.3 43.8 21.3 43.85 21.15 43.85 M24.3 27.4 L25.55 28.05 24.45 28.25 Q23.75 28.5 22.95 29.15 L23.5 28.35 24.3 27.4 M20.1 41.45 L20.25 39.1 20.35 38.7 20.45 38.05 20.45 37.95 20.5 36.95 20.8 37.55 20.15 41.25 20.1 41.45" fill="#cd6648" fill-rule="evenodd" stroke="none"/>
      <path d="M16.35 40.2 L15.9 39.55 16.05 39.1 17.4 36.6 17.5 36.85 17.4 36.9 17.25 37.3 Q16.85 38.1 16.8 39.15 L16.8 39.3 16.35 40.2 M13.95 26.25 L15.0 23.55 15.6 22.7 16.3 21.8 16.75 22.2 15.9 23.15 14.5 25.25 14.25 25.7 13.95 26.25 M45.9 31.0 L45.95 31.3 46.05 31.5 45.9 31.55 45.55 32.1 45.5 32.15 45.45 32.2 45.2 32.65 45.15 32.7 45.05 32.75 45.0 32.75 45.0 32.7 44.95 32.25 44.95 32.2 45.0 32.2 45.15 32.0 45.9 31.0 M41.0 27.5 L40.9 27.6 40.7 27.75 39.6 26.4 39.65 26.25 39.9 26.2 40.0 26.2 40.0 26.25 40.45 26.8 40.5 26.9 41.0 27.5 M29.35 27.1 L29.4 27.15 29.75 27.3 29.45 27.8 28.7 29.0 28.5 29.25 28.1 29.1 28.3 28.8 28.85 27.9 29.0 27.65 29.3 27.15 29.3 27.1 29.35 27.1 M21.35 22.2 L21.25 22.35 21.25 22.4 20.85 23.25 20.7 23.7 20.65 23.85 20.15 25.0 20.1 24.95 19.8 24.75 19.85 24.65 20.25 23.5 20.7 22.5 20.85 22.1 21.05 21.7 21.35 22.0 21.35 22.2 M17.1 32.15 L17.25 32.4 18.4 33.75 18.45 33.85 18.55 33.9 18.55 33.95 18.4 34.5 18.4 34.6 18.35 34.6 18.35 34.55 18.25 34.45 18.1 34.3 18.05 34.25 17.85 33.95 16.95 32.95 17.1 32.15" fill="#771d02" fill-rule="evenodd" stroke="none"/>
      <path d="M29.4 29.7 L29.5 29.85 Q30.85 31.2 31.2 33.15 L31.4 34.0 31.4 34.35 31.3 36.05 31.3 36.3 Q31.0 37.8 30.0 38.95 28.3 40.75 25.8 40.6 L25.6 40.6 Q24.3 40.5 23.25 39.95 L23.2 39.95 22.85 39.7 21.6 38.7 20.8 37.55 20.5 36.95 20.7 36.3 20.75 35.8 21.05 36.7 Q21.35 37.55 22.0 38.25 L23.2 39.25 Q24.35 39.95 25.8 40.05 27.5 40.05 28.75 39.25 L28.8 39.15 28.85 39.15 29.5 38.5 Q30.5 37.5 30.8 36.25 L30.9 34.35 30.85 33.95 30.8 33.45 30.8 33.4 30.6 33.0 Q30.25 31.4 29.15 30.3 27.8 28.65 26.0 28.6 24.9 28.6 24.0 29.1 23.25 29.55 22.5 30.3 L22.35 30.4 22.65 29.75 22.95 29.15 Q23.75 28.5 24.45 28.25 L25.55 28.05 25.85 28.2 28.1 29.1 28.5 29.25 29.1 29.55 29.4 29.7 M36.85 32.65 Q37.0 31.5 37.55 30.6 38.3 28.95 39.5 29.0 40.75 29.0 41.8 30.65 L42.25 31.25 Q42.9 32.4 43.0 34.0 L43.1 34.25 43.1 34.55 43.0 36.15 Q42.8 37.55 42.2 38.55 L42.1 38.55 41.8 38.95 41.65 39.15 41.5 39.35 40.5 39.95 39.55 40.05 Q38.6 40.05 38.0 39.55 L37.45 38.95 37.15 38.5 Q36.65 37.35 36.55 35.85 L36.55 35.8 36.55 34.5 36.6 33.75 Q36.65 33.15 36.85 32.65 M38.1 38.95 L38.35 39.1 Q38.8 39.45 39.55 39.45 40.75 39.4 41.6 38.5 L41.65 38.4 41.9 38.1 41.9 38.05 Q42.7 36.85 42.65 34.65 L42.65 34.55 42.65 34.2 Q42.5 32.25 41.6 31.05 40.55 29.75 39.5 29.7 38.45 29.7 37.8 31.0 L37.75 31.0 37.2 32.7 37.0 33.55 36.95 34.5 36.95 35.8 Q37.0 37.05 37.45 38.05 L37.85 38.75 38.1 38.95" fill="#581818" fill-rule="evenodd" stroke="none"/>
      <path d="M38.1 38.95 L38.4 38.95 39.0 38.85 39.1 38.8 39.25 38.75 39.25 38.7 39.4 38.55 40.1 37.8 40.8 36.35 41.2 34.6 41.2 34.3 40.75 32.3 Q39.95 30.7 38.7 30.7 38.3 30.7 37.8 31.0 38.45 29.7 39.5 29.7 40.55 29.75 41.6 31.05 42.5 32.25 42.65 34.2 L42.65 34.55 42.65 34.65 Q42.7 36.85 41.9 38.05 L41.9 38.1 41.65 38.4 41.6 38.5 Q40.75 39.4 39.55 39.45 38.8 39.45 38.35 39.1 L38.1 38.95 M21.3 33.45 L21.55 32.85 21.75 31.95 21.75 31.9 21.9 31.6 22.35 30.4 22.5 30.3 Q23.25 29.55 24.0 29.1 24.9 28.6 26.0 28.6 27.8 28.65 29.15 30.3 30.25 31.4 30.6 33.0 29.8 30.6 27.35 30.2 L27.3 30.2 27.05 30.1 26.9 30.1 Q24.45 30.2 23.25 31.95 22.6 33.05 22.5 34.3 L22.45 34.95 Q22.45 36.9 23.75 38.2 L23.8 38.25 23.85 38.4 24.7 38.95 25.6 39.35 27.0 39.45 28.25 39.35 28.8 39.15 28.75 39.25 Q27.5 40.05 25.8 40.05 24.35 39.95 23.2 39.25 L22.0 38.25 Q21.35 37.55 21.05 36.7 L20.75 35.8 21.05 34.45 21.15 34.15 21.3 33.45 M40.0 34.35 L39.95 34.45 39.6 34.85 39.5 34.85 38.75 34.6 Q38.5 34.3 38.5 33.7 L38.5 33.65 38.45 33.6 Q38.5 32.5 39.1 32.4 L39.3 32.3 Q39.8 32.3 40.0 32.8 L40.15 33.65 40.0 34.35 M29.1 32.4 L29.3 32.4 Q29.8 32.5 30.1 33.15 L30.3 33.7 30.35 34.15 30.1 35.05 30.1 34.95 30.0 35.1 29.4 35.4 28.7 35.15 Q28.1 34.65 28.1 33.85 28.1 33.05 28.5 32.7 28.7 32.45 29.1 32.4" fill="#fcffff" fill-rule="evenodd" stroke="none"/>
      <path d="M37.8 31.0 Q38.3 30.7 38.7 30.7 39.95 30.7 40.75 32.3 L41.2 34.3 41.2 34.6 40.8 36.35 40.1 37.8 39.4 38.55 39.25 38.7 39.25 38.75 39.1 38.8 39.0 38.85 38.4 38.95 38.1 38.95 37.85 38.75 37.45 38.05 Q37.0 37.05 36.95 35.8 L36.95 34.5 37.0 33.55 37.2 32.7 37.75 31.0 37.8 31.0 M30.6 33.0 L30.8 33.4 30.8 33.45 30.85 33.95 30.9 34.35 30.8 36.25 Q30.5 37.5 29.5 38.5 L28.85 39.15 28.8 39.15 28.25 39.35 27.0 39.45 25.6 39.35 24.7 38.95 24.3 38.65 23.85 38.4 23.8 38.25 23.75 38.2 Q22.45 36.9 22.45 34.95 L22.5 34.3 Q22.6 33.05 23.25 31.95 24.45 30.2 26.9 30.1 L27.3 30.2 27.35 30.2 Q29.8 30.6 30.6 33.0 M40.0 34.35 L40.15 33.65 40.0 32.8 Q39.8 32.3 39.3 32.3 38.95 31.95 38.5 31.95 37.8 31.95 37.4 32.75 L37.4 32.8 37.1 33.55 36.95 34.75 37.0 35.7 37.45 36.75 Q37.85 37.6 38.5 37.55 39.1 37.6 39.6 36.75 L40.0 35.4 40.0 34.95 40.0 34.75 40.0 34.45 40.0 34.35 M29.1 32.4 Q28.3 31.7 27.2 31.7 25.8 31.8 24.9 32.7 24.1 33.65 24.05 34.85 L24.05 34.95 Q24.1 36.3 24.95 37.25 25.85 38.15 27.05 38.15 28.25 38.15 29.1 37.25 L29.9 36.1 30.1 35.05 30.35 34.15 30.3 33.7 30.1 33.15 Q29.8 32.5 29.3 32.4 L29.1 32.4" fill="#347db1" fill-rule="evenodd" stroke="none"/>
      <path d="M42.1 42.45 L42.1 42.65 41.6 42.85 40.75 43.2 39.05 43.75 37.55 44.15 37.4 44.15 36.3 44.35 31.7 44.75 26.05 44.05 25.75 43.9 25.4 43.85 23.65 43.3 24.15 43.25 24.15 43.2 24.1 42.7 22.3 42.7 22.3 42.3 Q22.3 41.8 22.45 41.35 L22.65 41.45 23.05 41.5 24.0 41.45 23.8 41.05 23.25 40.85 22.65 40.75 22.8 40.45 23.25 40.6 25.75 40.95 Q28.5 41.1 29.75 39.95 30.5 39.45 31.2 37.85 L31.8 36.25 32.65 36.6 34.15 37.3 35.3 36.6 36.1 36.15 36.4 37.85 36.7 38.55 36.9 39.05 37.1 39.45 Q37.85 40.75 39.25 40.75 40.15 40.75 41.3 39.95 L41.6 39.65 41.75 40.05 41.1 40.25 40.8 40.45 40.75 40.55 40.6 40.9 40.75 41.05 41.6 40.85 42.0 40.75 42.2 41.75 41.95 41.75 41.2 42.0 40.85 42.05 40.75 42.35 41.75 42.4 42.1 42.35 42.1 42.45 M35.95 42.0 L36.1 41.75 36.2 41.5 36.1 41.45 35.95 41.65 35.15 41.8 34.7 41.7 34.15 41.25 33.65 41.75 Q32.95 42.25 32.35 42.25 L31.7 42.15 Q31.3 42.0 31.2 41.65 L31.2 41.5 31.0 41.5 30.8 41.5 30.8 41.65 30.65 41.75 Q30.65 42.15 31.1 42.4 L31.75 42.65 32.65 42.55 33.5 42.25 33.95 41.85 34.1 41.8 34.2 41.75 34.45 42.05 35.3 42.25 35.95 42.05 35.95 42.0 M35.05 40.25 L35.05 40.2 34.9 40.05 34.85 40.05 34.8 40.2 34.25 40.2 33.65 40.2 33.6 40.25 33.3 40.35 33.1 40.45 33.05 40.45 34.15 40.8 Q34.45 40.85 35.1 40.3 L35.05 40.25" fill="#ffffff" fill-rule="evenodd" stroke="none"/>
      <path d="M42.25 42.35 L42.1 42.45 42.1 42.35 42.25 42.35 M41.6 42.85 L40.15 43.95 39.45 44.4 39.4 44.4 36.7 45.0 24.0 44.55 23.65 44.5 22.8 44.25 22.45 44.2 21.3 43.85 21.3 43.8 21.3 43.3 21.6 43.45 22.15 43.45 22.3 43.45 23.35 43.35 23.65 43.3 25.4 43.85 25.75 43.9 26.05 44.05 31.7 44.75 36.3 44.35 37.4 44.15 37.55 44.15 39.05 43.75 40.75 43.2 41.6 42.85 M31.2 33.15 L31.7 33.0 Q32.05 33.0 32.95 33.85 L34.0 34.85 34.45 34.25 35.2 33.3 36.0 32.65 Q36.1 32.5 36.25 32.5 L36.85 32.65 Q36.65 33.15 36.6 33.75 L36.55 34.5 36.55 35.8 36.55 35.85 Q36.65 37.35 37.15 38.5 L37.45 38.95 38.0 39.55 Q38.6 40.05 39.55 40.05 L40.5 39.95 41.5 39.35 41.65 39.15 41.8 38.95 41.95 39.3 42.1 39.9 42.05 39.95 41.75 40.05 41.6 39.65 41.3 39.95 Q40.15 40.75 39.25 40.75 37.85 40.75 37.1 39.45 L36.9 39.05 36.7 38.55 36.4 37.85 36.1 36.15 35.3 36.6 34.15 37.3 32.65 36.6 31.8 36.25 31.2 37.85 Q30.5 39.45 29.75 39.95 28.5 41.1 25.75 40.95 L23.25 40.6 22.8 40.45 22.65 40.75 22.3 40.6 22.5 40.3 22.55 40.25 22.85 39.7 23.2 39.95 23.25 39.95 Q24.3 40.5 25.6 40.6 L25.8 40.6 Q28.3 40.75 30.0 38.95 31.0 37.8 31.3 36.3 L31.3 36.05 31.4 34.35 31.4 34.0 31.2 33.15 M42.25 40.6 L42.5 41.65 42.5 41.7 42.35 41.7 42.2 41.75 42.0 40.75 42.1 40.75 42.25 40.6 M22.45 41.35 Q22.3 41.8 22.3 42.3 L22.3 42.7 21.45 42.7 21.65 42.0 22.0 41.25 22.45 41.35 M35.05 40.25 L35.1 40.3 Q34.45 40.85 34.15 40.8 L33.05 40.45 33.1 40.45 33.3 40.35 33.7 40.55 34.25 40.6 34.8 40.5 35.05 40.25" fill="#d7af9b" fill-rule="evenodd" stroke="none"/>
      <path d="M43.0 41.6 L42.9 41.7 42.25 42.35 42.1 42.35 41.75 42.4 40.75 42.35 40.85 42.05 41.2 42.0 41.95 41.75 42.2 41.75 42.35 41.7 42.5 41.7 42.5 41.65 42.8 41.5 43.0 41.45 43.0 41.6 M42.1 39.9 L42.65 39.65 42.95 39.45 42.95 40.3 42.95 40.35 42.4 40.6 42.25 40.6 42.1 40.75 42.0 40.75 41.6 40.85 40.75 41.05 40.6 40.9 40.75 40.55 40.8 40.45 41.1 40.25 41.75 40.05 42.05 39.95 42.1 39.9 M22.65 40.75 L23.25 40.85 23.8 41.05 24.0 41.45 23.05 41.5 22.65 41.45 22.45 41.35 22.0 41.25 20.85 41.1 20.75 40.5 21.15 40.5 22.3 40.6 22.65 40.75 M22.3 42.7 L24.1 42.7 24.15 43.2 24.15 43.25 23.65 43.3 23.35 43.35 22.3 43.45 22.15 43.45 21.6 43.45 21.3 43.3 21.15 43.2 21.05 42.7 21.45 42.7 22.3 42.7 M35.95 42.0 L35.95 42.05 35.3 42.25 34.45 42.05 34.2 41.75 34.1 41.8 33.95 41.85 33.5 42.25 32.65 42.55 31.75 42.65 31.1 42.4 Q30.65 42.15 30.65 41.75 L30.8 41.65 30.8 41.5 31.0 41.5 31.2 41.5 31.2 41.65 Q31.3 42.0 31.7 42.15 L32.35 42.25 Q32.95 42.25 33.65 41.75 L34.15 41.25 34.7 41.7 35.15 41.8 35.95 41.65 36.1 41.45 36.2 41.5 36.1 41.75 35.95 42.0" fill="#7b4632" fill-rule="evenodd" stroke="none"/>
      <path d="M20.1 42.15 L20.1 41.65 20.1 41.45 20.15 41.25 20.8 37.55 21.6 38.7 22.85 39.7 22.55 40.25 22.5 40.3 22.3 40.6 21.15 40.5 20.75 40.5 20.85 41.1 22.0 41.25 21.65 42.0 21.45 42.7 20.1 42.15" fill="#e28267" fill-rule="evenodd" stroke="none"/>
      <path d="M39.3 32.3 L39.1 32.4 Q38.5 32.5 38.45 33.6 L38.5 33.65 38.5 33.7 Q38.5 34.3 38.75 34.6 L39.5 34.85 39.6 34.85 39.95 34.45 40.0 34.35 40.0 34.45 40.0 34.75 40.0 34.95 40.0 35.4 39.6 36.75 Q39.1 37.6 38.5 37.55 37.85 37.6 37.45 36.75 L37.0 35.7 36.95 34.75 37.1 33.55 37.4 32.8 37.4 32.75 Q37.8 31.95 38.5 31.95 38.95 31.95 39.3 32.3 M30.1 35.05 L29.9 36.1 29.1 37.25 Q28.25 38.15 27.05 38.15 25.85 38.15 24.95 37.25 24.1 36.3 24.05 34.95 L24.05 34.85 Q24.1 33.65 24.9 32.7 25.8 31.8 27.2 31.7 28.3 31.7 29.1 32.4 28.7 32.45 28.5 32.7 28.1 33.05 28.1 33.85 28.1 34.65 28.7 35.15 L29.4 35.4 30.0 35.1 30.1 34.95 30.1 35.05" fill="#141843" fill-rule="evenodd" stroke="none"/>
      <path d="M23.85 44.65 L23.65 44.5 24.0 44.55 Q23.95 44.55 23.85 44.65" fill="#6e5396" fill-rule="evenodd" stroke="none"/>
      <path d="M36.7 45.8 L36.7 45.85 36.4 45.9 36.3 45.9 36.1 46.0 35.95 46.0 35.45 46.25 Q32.95 47.0 30.3 47.0 L29.2 47.0 Q28.55 46.7 27.55 46.55 L27.1 46.5 25.3 46.3 25.05 46.3 23.5 45.75 23.5 45.7 Q23.5 45.0 23.65 44.8 L23.85 44.65 Q23.95 44.55 24.0 44.55 L36.7 45.0 36.7 45.05 36.7 45.8" fill="#27621a" fill-rule="evenodd" stroke="none"/>
      <path d="M39.45 44.4 L38.3 45.05 37.8 45.25 37.85 45.3 36.7 45.8 36.7 45.05 36.7 45.0 39.4 44.4 39.45 44.4 M22.8 44.25 L22.9 44.45 Q23.35 45.0 23.45 45.7 L22.4 45.25 22.05 44.7 Q21.9 44.55 21.25 44.35 L21.05 44.4 21.0 44.45 20.35 44.05 21.15 43.85 21.3 43.85 22.45 44.2 22.8 44.25" fill="#e29425" fill-rule="evenodd" stroke="none"/>
      <path d="M38.3 45.05 Q38.05 45.15 37.85 45.3 L37.8 45.25 38.3 45.05 M22.4 45.25 L21.0 44.45 21.05 44.4 21.25 44.35 Q21.9 44.55 22.05 44.7 L22.4 45.25" fill="#f0cf34" fill-rule="evenodd" stroke="none"/>
      <path d="M33.3 40.35 L33.6 40.25 33.65 40.2 34.25 40.2 34.8 40.2 34.85 40.05 34.9 40.05 35.05 40.2 35.05 40.25 34.8 40.5 34.25 40.6 33.7 40.55 33.3 40.35" fill="#070101" fill-rule="evenodd" stroke="none"/>
      <path d="M43.3 25.85 L43.6 25.6 43.85 25.35 45.65 23.7 M43.3 25.85 L43.1 26.0 41.35 27.3 41.2 27.4 41.0 27.5 40.9 27.6 40.7 27.75 40.2 28.05 Q36.5 30.4 33.8 31.2 L29.4 29.7 29.1 29.55 28.5 29.25 28.1 29.1 25.85 28.2 25.55 28.05 24.3 27.4 22.05 26.25 20.95 25.55 20.35 25.1 20.15 25.0 20.1 24.95 19.8 24.75 19.75 24.75 19.6 24.7 19.55 24.65 17.95 23.3 16.75 22.2 16.3 21.8 16.15 21.65 M17.4 36.6 L17.5 36.85 M21.15 34.15 L21.3 33.45" fill="none" stroke="#4d0c09" stroke-linecap="round" stroke-linejoin="round" stroke-width="0.1"/>
      <path d="M20.1 43.55 L20.1 43.75 20.05 43.8 M41.2 27.4 L41.5 28.05 42.35 30.35 42.4 30.65 42.5 30.7 42.8 31.95 42.9 32.45 42.9 32.5 43.0 33.0 43.3 34.6 43.3 34.95 43.45 35.25 Q43.3 35.4 43.45 35.5 L43.45 35.7 43.55 37.15 43.55 37.45 43.6 37.6 43.65 40.85 M21.3 33.45 L21.55 32.85 21.75 31.95 21.75 31.9 21.9 31.6 22.35 30.4 22.65 29.75 22.95 29.15 23.5 28.35 24.3 27.4 M20.1 42.15 L20.1 41.65 20.1 41.45 20.25 39.1 20.35 38.7 20.45 38.05 20.45 37.95 20.5 36.95 20.7 36.3 20.75 35.8 21.05 34.45 21.15 34.15 M20.1 42.15 L20.1 43.55" fill="none" stroke="#793f12" stroke-linecap="round" stroke-linejoin="round" stroke-width="0.1"/>
      <path d="M13.5 32.1 L13.35 31.95 M16.75 35.65 L17.4 36.6 M17.5 36.85 L17.4 36.9 17.25 37.3 Q16.85 38.1 16.8 39.15 L16.8 39.3 16.8 40.2 16.95 40.9 M16.75 35.65 L13.5 32.1" fill="none" stroke="#702d0d" stroke-linecap="round" stroke-linejoin="round" stroke-width="0.1"/>
      <path d="M23.65 44.5 L22.8 44.25 22.45 44.2 21.3 43.85 21.15 43.85 20.1 43.55 M23.65 44.5 L24.0 44.55 36.7 45.0 39.4 44.4" fill="none" stroke="#4a1b12" stroke-linecap="round" stroke-linejoin="round" stroke-width="0.1"/>
      <path d="M23.85 44.65 L23.65 44.5" fill="none" stroke="#3b1f4d" stroke-linecap="round" stroke-linejoin="round" stroke-width="0.1"/>
      <path d="M36.7 45.8 L36.7 45.85 M23.5 45.75 L23.5 45.7 Q23.5 45.0 23.65 44.8 L23.85 44.65 Q23.95 44.55 24.0 44.55 M36.7 45.8 L36.7 45.05 36.7 45.0" fill="none" stroke="#154a1c" stroke-linecap="round" stroke-linejoin="round" stroke-width="0.1"/>
      <path d="M22.8 44.25 L22.9 44.45 Q23.35 45.0 23.45 45.7 M20.35 44.05 L21.15 43.85 M37.4 44.15 L37.55 44.15 M39.4 44.4 L39.45 44.4" fill="none" stroke="#7b0c0c" stroke-linecap="round" stroke-linejoin="round" stroke-width="0.1"/>
      <path d="M13.5 30.5 Q13.5 24.1 18.2 19.4 L18.4 19.2 Q23.4 14.6 30.5 14.6 L31.9 14.6 Q18.5 25.1 20.5 43.6 L18.4 41.9 18.1 41.6 Q13.5 37.0 13.5 30.5" fill="#ffffff" fill-opacity="0.2" fill-rule="evenodd" stroke="none"/>
      <path d="M21.4 23.6 L19.0 26.3 Q17.9 26.1 17.7 25.5 L17.7 24.8 Q18.3 21.6 21.2 19.4 22.5 18.4 23.2 18.6 23.9 18.8 23.6 20.2 23.5 20.7 21.4 23.6 M19.1 30.5 Q18.4 31.1 17.7 31.0 16.7 30.8 16.4 30.0 L16.5 29.2 Q16.7 27.6 18.3 27.8 20.1 28.0 19.8 29.5 L19.1 30.5" fill="#ffffff" fill-rule="evenodd" stroke="none"/>
    </g>
    <linearGradient gradientTransform="matrix(0.0136, 0.0, 0.0, 0.0099, 41.0, 51.8)" gradientUnits="userSpaceOnUse" id="gradient0" spreadMethod="pad" x1="-819.2" x2="819.2">
      <stop offset="0.0" stop-color="#65298e"/>
      <stop offset="1.0" stop-color="#9a6cc5"/>
    </linearGradient>
  </defs>
</svg>
