<?xml version="1.0" encoding="UTF-8" standalone="no"?>
<svg xmlns:ffdec="https://www.free-decompiler.com/flash" xmlns:xlink="http://www.w3.org/1999/xlink" ffdec:objectType="frame" height="30.0px" width="29.95px" xmlns="http://www.w3.org/2000/svg">
  <g transform="matrix(1.0, 0.0, 0.0, 1.0, 0.0, 0.0)">
    <use ffdec:characterId="1" height="30.0" transform="matrix(1.0, 0.0, 0.0, 1.0, 0.0, 0.0)" width="29.95" xlink:href="#shape0"/>
  </g>
  <defs>
    <g id="shape0" transform="matrix(1.0, 0.0, 0.0, 1.0, 0.0, 0.0)">
      <path d="M0.0 0.0 L29.95 0.0 29.95 30.0 0.0 30.0 0.0 0.0" fill="#33cc66" fill-opacity="0.0" fill-rule="evenodd" stroke="none"/>
      <path d="M25.95 4.5 L22.95 9.8 Q24.45 11.8 24.75 14.25 L29.95 15.1 29.85 15.15 24.75 16.4 Q24.45 19.25 22.5 21.4 L26.05 25.85 21.1 22.7 Q18.85 24.4 16.1 24.65 L15.0 29.9 15.0 29.95 13.85 24.65 Q11.3 24.35 9.3 22.9 L4.65 25.85 4.6 25.85 7.5 21.2 Q5.6 18.85 5.4 15.85 L0.05 15.0 5.5 13.85 Q6.0 10.95 8.2 8.75 L8.25 8.7 8.25 8.65 4.65 4.35 9.8 7.45 Q11.65 6.3 13.9 6.1 L15.0 0.05 16.85 6.15 Q19.2 6.5 21.1 7.95 L21.2 8.05 25.95 4.4 25.95 4.5 M23.7 15.35 Q23.7 12.0 21.1 9.55 18.6 7.25 15.15 7.25 11.65 7.25 9.15 9.55 L9.05 9.7 Q6.7 12.1 6.7 15.35 6.7 18.65 9.0 21.0 L9.15 21.15 Q11.65 23.5 15.15 23.5 18.7 23.5 21.45 20.85 23.7 18.5 23.7 15.35" fill="#fe8b2e" fill-rule="evenodd" stroke="none"/>
      <path d="M29.95 15.1 L24.75 14.25 Q24.45 11.8 22.95 9.8 L25.95 4.5 25.3 11.3 29.95 15.05 29.95 15.1 M25.95 4.4 L21.2 8.05 21.1 7.95 Q19.2 6.5 16.85 6.15 L15.0 0.05 13.9 6.1 Q11.65 6.3 9.8 7.45 L4.65 4.35 8.25 8.65 8.25 8.7 8.2 8.7 8.2 8.75 Q6.0 10.95 5.5 13.85 L0.05 15.0 5.4 15.85 Q5.6 18.85 7.5 21.2 L4.6 25.85 4.5 25.85 4.5 25.65 5.05 19.3 0.05 15.0 0.0 14.95 5.15 11.05 4.6 4.3 10.95 5.1 14.95 0.0 15.0 0.05 19.15 5.15 25.95 4.3 25.95 4.4 M4.65 25.85 L9.3 22.9 Q11.3 24.35 13.85 24.65 L15.0 29.95 14.95 30.0 11.05 25.4 4.65 25.85 M15.0 29.9 L16.1 24.65 Q18.85 24.4 21.1 22.7 L26.05 25.85 22.5 21.4 Q24.45 19.25 24.75 16.4 L29.85 15.15 25.3 19.15 26.05 25.85 26.05 25.9 18.9 25.4 15.0 29.9" fill="#ca1712" fill-rule="evenodd" stroke="none"/>
      <path d="M23.7 15.35 Q23.7 18.5 21.45 20.85 18.7 23.5 15.15 23.5 11.65 23.5 9.15 21.15 L9.0 21.0 Q6.7 18.65 6.7 15.35 6.7 12.1 9.05 9.7 L9.15 9.55 Q11.65 7.25 15.15 7.25 18.6 7.25 21.1 9.55 23.7 12.0 23.7 15.35" fill="#490009" fill-rule="evenodd" stroke="none"/>
      <path d="M20.9 10.25 L20.3 10.8 20.15 10.55 20.05 10.45 20.05 10.35 20.05 10.3 20.3 10.15 20.35 10.1 20.8 9.9 20.9 10.25" fill="#b6ffff" fill-rule="evenodd" stroke="none"/>
      <path d="M20.3 10.8 L20.9 10.25 20.95 10.65 21.1 12.4 20.85 11.9 20.3 10.8" fill="#a3d1e9" fill-rule="evenodd" stroke="none"/>
      <path d="M19.6 12.0 L19.9 11.95 20.3 12.05 20.4 12.2 20.25 12.25 20.15 12.35 20.1 12.5 20.05 12.9 20.05 13.05 20.1 13.2 20.15 13.4 20.45 13.95 Q20.8 14.3 21.15 14.3 L21.2 14.3 21.3 14.65 Q21.3 14.75 20.95 14.85 L20.7 14.95 20.5 15.0 19.7 15.2 19.6 15.3 19.5 15.6 19.05 15.45 18.55 15.35 Q18.25 15.35 17.6 15.8 L16.6 16.2 16.3 16.15 15.65 15.7 16.45 16.0 17.4 15.75 17.5 15.65 17.55 15.6 17.9 15.15 18.0 14.75 17.95 14.4 Q17.95 13.75 17.6 13.45 L16.85 13.15 16.7 13.1 16.55 13.1 15.8 13.15 15.45 13.35 15.2 13.5 15.05 13.75 14.95 13.95 14.85 13.9 14.7 13.75 Q14.7 13.4 15.2 13.1 L15.8 12.8 15.75 12.8 15.5 12.65 15.45 12.6 Q15.1 12.35 15.1 11.85 15.1 11.35 15.4 11.2 L15.5 11.2 15.55 11.2 15.7 11.15 15.75 11.15 15.8 11.15 15.75 11.2 15.65 11.3 15.55 11.4 15.45 11.7 Q15.45 12.05 15.75 12.25 L16.35 12.5 16.5 12.5 16.95 12.55 17.55 12.6 18.1 12.8 18.15 12.85 18.4 12.95 18.65 13.05 18.8 13.15 19.2 13.5 19.4 13.7 19.5 12.85 19.5 12.75 19.55 12.45 19.6 12.0 M20.55 12.5 L20.5 12.5 20.55 12.45 20.55 12.5 M17.05 14.15 L17.1 14.2 17.15 14.35 17.1 14.45 17.1 14.5 17.1 14.55 17.05 14.6 17.1 14.5 17.1 14.45 17.1 14.35 17.05 14.2 17.05 14.15 M16.75 14.05 L16.9 14.05 16.95 14.05 17.0 14.1 16.9 14.05 16.75 14.05" fill="#c8fffc" fill-rule="evenodd" stroke="none"/>
      <path d="M20.4 12.2 L20.45 12.2 20.6 12.2 20.85 12.25 21.1 12.4 21.15 12.45 21.25 12.6 21.25 12.65 21.25 12.85 21.25 12.95 21.15 12.75 21.05 12.6 21.0 12.55 20.95 12.5 20.9 12.5 20.85 12.45 20.55 12.4 20.5 12.45 20.4 12.45 20.3 12.5 Q20.1 12.65 20.05 13.05 L20.05 12.9 20.1 12.5 20.15 12.35 20.25 12.25 20.4 12.2 M17.95 14.4 L17.65 13.8 Q17.4 13.55 17.05 13.45 L16.8 13.35 16.65 13.35 16.3 13.35 16.25 13.35 15.6 13.65 15.2 14.15 15.1 14.55 15.15 14.9 15.45 15.5 15.5 15.55 15.35 15.45 15.0 15.2 14.85 14.5 14.85 14.15 14.95 13.95 15.05 13.75 15.2 13.5 15.45 13.35 15.8 13.15 16.55 13.1 16.7 13.1 16.85 13.15 17.6 13.45 Q17.95 13.75 17.95 14.4" fill="#423218" fill-rule="evenodd" stroke="none"/>
      <path d="M20.05 10.45 L20.15 10.55 20.3 10.8 20.85 11.9 21.1 12.4 20.85 12.25 20.6 12.2 20.45 12.2 20.4 12.2 20.3 12.05 19.9 11.95 19.6 12.0 19.6 11.85 19.65 11.8 19.7 11.75 20.05 10.45 M20.55 12.4 L20.85 12.45 20.75 12.45 20.55 12.5 20.55 12.45 20.55 12.4 M20.9 12.5 L20.95 12.5 21.0 12.55 20.9 12.5 M21.2 14.3 L21.45 14.15 21.45 14.1 21.45 13.8 21.55 14.8 21.95 14.95 21.55 15.2 Q21.3 14.9 20.9 14.95 L20.7 14.95 20.95 14.85 Q21.3 14.75 21.3 14.65 L21.2 14.3" fill="#a1cfe6" fill-rule="evenodd" stroke="none"/>
      <path d="M20.85 12.45 L20.9 12.5 21.0 12.55 21.05 12.6 21.05 12.7 21.05 12.8 20.9 12.85 20.65 12.8 20.5 12.55 20.5 12.5 20.55 12.5 20.75 12.45 20.85 12.45" fill="#fcfefb" fill-rule="evenodd" stroke="none"/>
      <path d="M20.05 13.05 Q20.1 12.65 20.3 12.5 L20.4 12.45 20.5 12.45 20.55 12.4 20.55 12.45 20.5 12.5 20.5 12.55 20.65 12.8 20.9 12.85 21.05 12.8 21.05 12.7 21.05 12.6 21.15 12.75 21.25 12.95 21.45 13.8 21.1 13.95 21.05 13.95 Q20.65 13.9 20.35 13.6 L20.1 13.2 20.05 13.05 M21.05 12.95 L20.9 12.95 20.85 13.1 20.85 13.25 21.0 13.4 21.1 13.4 21.2 13.3 21.2 13.25 21.2 13.1 21.15 13.05 21.15 13.0 21.1 13.0 21.05 12.95 M17.95 14.4 L18.0 14.75 17.9 15.15 17.45 15.35 17.2 15.45 16.65 15.5 16.5 15.5 16.3 15.45 15.6 15.05 15.5 14.85 15.2 14.15 15.6 13.65 16.25 13.35 16.3 13.35 16.65 13.35 16.8 13.35 17.05 13.45 Q17.4 13.55 17.65 13.8 L17.95 14.4 M16.0 13.65 L15.85 13.8 15.6 14.1 15.65 14.35 15.7 14.35 15.85 14.45 16.1 14.4 16.3 14.25 16.5 14.1 16.6 13.85 16.3 13.6 16.1 13.65 16.05 13.65 16.0 13.65 M17.05 14.6 L17.1 14.55 17.1 14.5 17.1 14.45 17.15 14.35 17.1 14.2 17.05 14.15 17.0 14.1 16.95 14.05 16.9 14.05 16.75 14.05 16.75 14.1 16.65 14.2 16.65 14.25 16.65 14.45 16.8 14.6 17.0 14.65 17.0 14.6 17.05 14.6" fill="#d6e6e6" fill-rule="evenodd" stroke="none"/>
      <path d="M21.05 12.95 L21.1 13.0 21.15 13.0 21.15 13.05 21.2 13.1 21.2 13.25 21.2 13.3 21.1 13.4 21.0 13.4 20.85 13.25 20.85 13.1 20.9 12.95 21.05 12.95 M17.05 14.15 L17.05 14.2 17.1 14.35 17.1 14.45 17.1 14.5 17.05 14.6 17.0 14.6 17.0 14.65 16.8 14.6 16.65 14.45 16.65 14.25 16.65 14.2 16.75 14.1 16.75 14.05 16.9 14.05 17.0 14.1 17.05 14.15" fill="#0a0e11" fill-rule="evenodd" stroke="none"/>
      <path d="M21.45 13.8 L21.45 14.1 21.45 14.15 21.2 14.3 21.15 14.3 Q20.8 14.3 20.45 13.95 L20.15 13.4 20.1 13.2 20.35 13.6 Q20.65 13.9 21.05 13.95 L21.1 13.95 21.45 13.8" fill="#fbffff" fill-rule="evenodd" stroke="none"/>
      <path d="M19.85 15.35 L19.95 15.3 20.05 15.25 20.1 15.25 20.3 15.45 20.3 15.55 20.3 15.7 20.2 15.9 20.15 16.0 20.1 16.0 19.85 16.1 19.75 16.1 19.7 16.05 19.6 15.9 19.65 15.7 19.85 15.35" fill="#fe8b2e" fill-rule="evenodd" stroke="none"/>
      <path d="M20.7 14.95 L20.9 14.95 Q21.3 14.9 21.55 15.2 L20.75 15.45 20.75 15.5 20.3 15.45 20.3 15.4 20.3 15.35 20.5 15.0 20.7 14.95" fill="#fe580c" fill-rule="evenodd" stroke="none"/>
      <path d="M20.5 15.0 L20.3 15.35 20.3 15.4 20.3 15.45 20.1 15.25 20.05 15.25 19.95 15.3 19.85 15.35 19.75 15.35 19.6 15.3 19.7 15.2 20.5 15.0" fill="#f85d1b" fill-rule="evenodd" stroke="none"/>
      <path d="M22.55 14.65 L22.6 14.65 22.6 14.9 22.6 15.45 22.55 15.45 22.35 16.2 22.3 16.25 22.3 16.3 22.2 16.4 22.15 16.45 21.9 16.75 21.7 16.75 21.85 16.6 22.05 16.3 22.1 16.25 22.3 15.45 22.3 15.25 22.45 14.8 22.55 14.65" fill="#b4978f" fill-rule="evenodd" stroke="none"/>
      <path d="M21.55 15.2 L21.95 14.95 22.0 14.95 22.0 14.9 22.45 14.6 22.45 14.8 22.3 15.0 22.05 15.3 22.0 15.35 Q21.35 16.0 20.75 16.1 L20.7 15.9 20.7 15.6 20.75 15.5 20.75 15.45 21.55 15.2" fill="#f6cabd" fill-rule="evenodd" stroke="none"/>
      <path d="M20.75 16.1 Q21.35 16.0 22.0 15.35 L22.05 15.3 22.3 15.0 22.3 15.25 21.95 15.8 21.75 16.0 21.65 16.1 21.5 16.25 21.0 16.5 20.75 16.2 20.75 16.15 20.75 16.1" fill="#ad8f84" fill-rule="evenodd" stroke="none"/>
      <path d="M21.0 16.5 L21.5 16.25 21.65 16.1 21.75 16.0 21.95 15.8 22.3 15.25 22.3 15.45 22.1 16.25 22.05 16.3 21.85 16.6 21.7 16.75 21.1 16.6 21.0 16.55 21.0 16.5" fill="#a8837b" fill-rule="evenodd" stroke="none"/>
      <path d="M19.6 15.3 L19.75 15.35 19.85 15.35 19.65 15.7 19.6 15.9 19.7 16.05 19.75 16.1 19.85 16.1 20.1 16.0 20.1 16.15 20.1 16.2 Q19.85 16.3 19.75 16.4 L19.65 16.55 19.65 16.6 19.7 16.7 19.75 16.7 19.95 16.6 20.05 16.6 20.15 16.6 20.3 16.55 20.35 16.55 20.5 16.55 20.95 16.5 21.0 16.5 21.0 16.55 21.1 16.6 21.7 16.75 21.9 16.75 22.15 16.45 22.15 16.75 21.75 17.2 21.7 17.2 21.35 17.5 21.25 17.45 21.2 17.45 20.65 17.15 20.6 17.15 20.3 17.05 20.25 17.0 19.9 16.95 19.8 17.0 19.55 16.9 19.45 16.8 19.4 16.8 19.35 16.6 19.3 16.25 19.35 16.2 19.35 16.1 19.4 15.8 19.5 15.6 19.6 15.3" fill="#cf3415" fill-rule="evenodd" stroke="none"/>
      <path d="M22.15 16.45 L22.2 16.4 22.3 16.45 22.45 17.0 22.25 17.55 21.7 17.9 21.7 17.8 21.7 17.75 21.7 17.65 21.8 17.45 22.05 17.25 22.15 16.8 22.15 16.75 22.15 16.45 M21.35 17.5 L21.45 17.55 21.7 17.5 21.7 17.65 21.5 17.9 21.1 17.7 Q20.85 17.4 20.6 17.35 L20.3 17.25 19.85 17.2 19.5 17.0 19.4 16.85 19.4 16.8 19.45 16.8 19.55 16.9 19.8 17.0 19.85 17.0 20.3 17.1 20.6 17.15 20.65 17.15 21.2 17.45 21.25 17.45 21.35 17.5" fill="#fcccbe" fill-rule="evenodd" stroke="none"/>
      <path d="M20.3 15.45 L20.75 15.5 20.7 15.6 20.7 15.9 20.75 16.1 20.35 16.15 20.3 16.15 20.25 16.15 20.1 16.2 20.1 16.15 20.1 16.0 20.15 16.0 20.2 15.9 20.3 15.7 20.3 15.55 20.3 15.45 M22.15 16.75 L22.15 16.8 22.05 17.25 21.8 17.45 21.7 17.5 21.45 17.55 21.35 17.5 21.7 17.2 21.75 17.2 22.15 16.75" fill="#f85c2b" fill-rule="evenodd" stroke="none"/>
      <path d="M22.55 15.45 Q22.9 15.85 22.9 16.6 L22.9 16.75 22.9 17.0 22.7 17.1 22.45 17.0 22.3 16.45 22.2 16.4 22.3 16.3 22.3 16.25 22.35 16.2 22.55 15.45" fill="#fffbe0" fill-rule="evenodd" stroke="none"/>
      <path d="M20.75 16.1 L20.75 16.15 20.75 16.2 21.0 16.5 20.95 16.5 20.5 16.55 20.35 16.55 20.3 16.55 20.2 16.5 20.1 16.55 20.05 16.55 20.05 16.35 20.05 16.3 20.1 16.2 20.25 16.15 20.3 16.15 20.35 16.15 20.75 16.1" fill="#ff8129" fill-rule="evenodd" stroke="none"/>
      <path d="M19.4 16.8 L19.4 16.85 19.5 17.0 19.85 17.2 20.3 17.25 20.6 17.35 Q20.85 17.4 21.1 17.7 L21.5 17.9 21.0 18.3 20.8 18.45 20.3 18.65 19.8 18.8 19.2 18.9 19.05 18.8 18.55 18.8 18.45 18.85 18.4 18.85 18.2 18.9 17.8 19.05 17.75 19.05 17.5 19.1 17.05 19.15 17.5 18.85 17.6 18.75 17.65 18.5 17.45 18.15 18.6 17.7 18.75 17.55 18.9 17.4 Q19.25 16.95 19.25 16.3 L19.2 16.2 19.3 16.25 19.35 16.6 19.4 16.8" fill="#f8dac2" fill-rule="evenodd" stroke="none"/>
      <path d="M21.7 17.65 L21.7 17.75 21.7 17.8 21.7 17.9 21.6 18.2 21.6 18.3 21.45 18.6 21.4 18.65 21.35 18.7 20.55 19.05 20.4 19.05 20.35 19.0 20.3 19.0 19.8 18.8 20.3 18.65 20.8 18.45 21.0 18.3 21.5 17.9 21.7 17.65" fill="#fffadd" fill-rule="evenodd" stroke="none"/>
      <path d="M22.9 17.0 L22.85 17.55 22.75 17.7 22.6 17.85 22.3 18.1 21.8 18.3 21.6 18.3 21.6 18.2 21.7 17.9 22.25 17.55 22.45 17.0 22.7 17.1 22.9 17.0" fill="#f4d8c0" fill-rule="evenodd" stroke="none"/>
      <path d="M21.45 18.6 L21.7 18.7 21.8 18.7 Q21.95 18.65 22.05 18.55 L22.1 18.55 22.15 18.5 21.9 19.05 21.65 19.4 20.3 19.7 20.2 19.7 18.75 19.4 18.6 19.35 19.2 19.2 19.2 18.9 19.8 18.8 20.3 19.0 20.35 19.0 20.4 19.05 20.55 19.05 21.35 18.7 21.4 18.65 21.45 18.6" fill="#f8d8c1" fill-rule="evenodd" stroke="none"/>
      <path d="M21.6 18.3 L21.8 18.3 22.3 18.1 22.2 18.4 22.2 18.45 22.15 18.5 22.1 18.55 22.05 18.55 Q21.95 18.65 21.8 18.7 L21.7 18.7 21.45 18.6 21.6 18.3" fill="#fffedf" fill-rule="evenodd" stroke="none"/>
      <path d="M22.85 17.55 L22.35 18.7 22.35 18.85 22.35 18.9 22.3 19.1 22.05 19.25 21.65 19.4 21.9 19.05 22.15 18.5 22.2 18.45 22.2 18.4 22.3 18.1 22.6 17.85 22.75 17.7 22.85 17.55" fill="#fff7db" fill-rule="evenodd" stroke="none"/>
      <path d="M22.3 19.1 L22.1 19.65 21.9 19.9 21.0 20.25 21.3 19.9 21.65 19.4 22.05 19.25 22.3 19.1" fill="#fffee0" fill-rule="evenodd" stroke="none"/>
      <path d="M18.6 19.35 L18.75 19.4 20.2 19.7 20.3 19.7 21.65 19.4 21.3 19.9 21.0 20.25 20.75 20.35 20.3 20.45 19.8 20.6 19.05 20.7 18.9 20.7 18.75 20.7 17.55 20.6 16.85 20.45 16.6 20.35 17.3 20.0 17.4 19.9 17.55 19.8 17.6 19.75 17.85 19.6 18.4 19.35 18.6 19.35" fill="#e9c2a1" fill-rule="evenodd" stroke="none"/>
      <path d="M20.4 20.85 L20.3 20.85 20.2 20.9 20.15 20.9 19.45 21.1 18.8 21.2 18.0 21.15 17.15 21.05 16.15 20.75 15.8 20.65 15.7 20.65 15.8 20.6 16.5 20.4 16.6 20.35 16.85 20.45 17.55 20.6 18.75 20.7 18.9 20.7 19.05 20.7 19.8 20.6 20.3 20.45 20.75 20.35 21.0 20.25 20.75 20.5 20.4 20.85" fill="#fadfc2" fill-rule="evenodd" stroke="none"/>
      <path d="M21.9 19.9 L21.55 20.25 21.3 20.45 20.4 20.85 20.75 20.5 21.0 20.25 21.9 19.9" fill="#fcfddd" fill-rule="evenodd" stroke="none"/>
      <path d="M20.2 20.9 L20.55 21.3 20.6 21.35 20.7 21.55 20.35 21.8 20.35 21.65 20.3 21.65 20.25 21.35 20.2 21.1 20.15 20.9 20.2 20.9" fill="#fbf1cd" fill-rule="evenodd" stroke="none"/>
      <path d="M20.35 21.8 L20.0 22.05 19.95 21.85 19.8 21.55 19.75 21.45 19.65 21.3 19.45 21.1 20.15 20.9 20.2 21.1 20.25 21.35 20.3 21.65 20.35 21.65 20.35 21.8" fill="#eea980" fill-rule="evenodd" stroke="none"/>
      <path d="M13.65 8.3 L13.9 8.4 13.85 8.2 13.75 7.6 13.75 7.45 13.75 7.35 14.4 7.3 15.7 8.0 16.25 8.4 16.35 8.45 16.3 8.35 16.3 8.3 16.7 8.95 16.75 9.0 15.95 9.0 15.65 8.75 15.1 8.3 14.3 7.8 14.35 8.35 14.55 8.45 14.6 8.6 14.35 8.5 14.35 8.75 13.65 8.3" fill="#ff6827" fill-rule="evenodd" stroke="none"/>
      <path d="M11.15 8.2 L11.75 7.9 13.55 8.3 13.65 8.3 14.35 8.75 14.35 8.85 14.4 9.2 14.15 9.1 14.05 9.0 Q12.6 8.35 11.15 8.25 L11.15 8.2" fill="#fe6a22" fill-rule="evenodd" stroke="none"/>
      <path d="M14.55 8.45 L14.35 8.35 14.3 7.8 15.1 8.3 15.65 8.75 15.95 9.0 15.85 9.0 15.55 9.0 15.55 9.05 14.75 8.55 14.55 8.45" fill="#fd4a10" fill-rule="evenodd" stroke="none"/>
      <path d="M14.4 9.2 L14.35 8.85 14.35 8.75 14.35 8.5 14.6 8.6 14.75 9.05 14.85 9.4 14.85 9.45 14.4 9.2" fill="#ff5a28" fill-rule="evenodd" stroke="none"/>
      <path d="M11.15 8.25 Q12.6 8.35 14.05 9.0 L14.15 9.1 14.4 9.2 14.55 9.85 14.45 9.8 14.3 9.7 13.7 9.25 Q12.7 8.7 11.55 8.7 L11.25 8.7 11.15 8.25" fill="#fa4c19" fill-rule="evenodd" stroke="none"/>
      <path d="M14.4 9.2 L14.85 9.45 14.85 9.4 14.75 9.05 14.6 8.6 14.9 8.75 15.65 9.65 15.7 9.8 15.7 10.0 15.75 10.0 15.75 10.15 15.65 10.1 15.6 10.05 15.2 9.95 14.95 9.9 14.85 9.85 14.55 9.85 14.4 9.2" fill="#b10005" fill-rule="evenodd" stroke="none"/>
      <path d="M15.7 9.8 L15.65 9.65 14.9 8.75 14.6 8.6 14.55 8.45 14.75 8.55 15.55 9.05 15.7 9.8" fill="#fe1c1d" fill-rule="evenodd" stroke="none"/>
      <path d="M11.25 8.7 L11.55 8.7 Q12.7 8.7 13.7 9.25 L14.3 9.7 14.45 9.8 14.25 9.8 13.8 9.85 13.8 10.05 13.15 9.75 12.05 9.5 11.55 9.5 11.25 8.7" fill="#ff1e17" fill-rule="evenodd" stroke="none"/>
      <path d="M10.9 9.5 L10.7 8.75 10.7 8.4 11.15 8.2 11.15 8.25 11.25 8.7 11.55 9.5 11.1 9.6 11.05 9.6 10.9 9.5" fill="#ff6919" fill-rule="evenodd" stroke="none"/>
      <path d="M11.5 10.5 L11.9 10.75 11.75 11.0 11.7 11.0 10.85 10.85 10.35 10.45 11.2 10.6 11.5 10.5" fill="#f79e8c" fill-rule="evenodd" stroke="none"/>
      <path d="M9.15 9.75 L9.1 9.65 9.15 9.55 9.35 9.4 9.6 9.7 10.15 10.25 10.2 10.3 10.35 10.45 9.95 10.3 9.9 10.25 9.85 10.25 9.15 9.75 M9.7 9.1 L10.0 8.85 10.55 9.25 10.75 9.45 10.9 9.5 11.05 9.6 11.75 10.0 11.75 10.1 11.95 10.55 11.9 10.75 11.5 10.5 11.1 10.2 10.75 9.95 9.9 9.3 9.7 9.1" fill="#9e6c61" fill-rule="evenodd" stroke="none"/>
      <path d="M9.6 10.25 L9.35 10.0 9.15 9.75 9.85 10.25 9.9 10.25 9.95 10.3 10.35 10.45 10.85 10.85 10.75 10.85 10.15 10.85 9.6 10.25 M11.75 11.0 L11.9 10.75 11.95 10.55 11.75 10.1 11.75 10.0 11.8 10.0 12.9 10.45 13.0 11.1 13.0 11.35 12.95 11.45 12.9 11.65 12.85 11.6 11.75 11.0 M10.6 11.2 L10.7 11.2 11.05 11.3 11.1 11.3 10.6 11.2" fill="#8c5c50" fill-rule="evenodd" stroke="none"/>
      <path d="M11.55 9.5 L12.05 9.5 13.15 9.75 13.8 10.05 13.9 11.1 13.9 11.2 13.95 11.3 13.95 11.45 14.0 11.55 13.85 11.45 13.2 11.35 13.0 11.35 13.0 11.1 12.9 10.45 11.8 10.0 11.55 9.5 M13.0 11.7 L12.9 11.65 12.95 11.45 12.95 11.5 13.0 11.7 M12.3 14.95 L12.25 14.75 12.45 14.75 13.45 14.6 13.7 15.3 13.7 15.35 13.9 15.65 13.9 15.75 14.05 15.95 14.7 16.55 15.15 16.7 15.25 16.8 15.65 16.85 15.3 17.25 15.25 17.3 15.25 17.4 15.2 17.55 15.2 17.7 15.2 18.0 15.1 18.1 14.7 17.75 14.0 17.6 13.4 17.5 13.1 17.45 12.5 17.4 12.35 17.35 11.9 17.2 11.8 17.15 12.3 17.0 12.5 17.0 13.0 16.6 12.75 16.15 12.45 16.0 12.3 15.95 12.2 15.9 12.05 15.85 11.95 15.85 11.85 15.7 11.9 15.65 11.95 15.6 11.95 15.55 12.05 15.45 12.25 15.2 12.25 15.15 12.3 14.95" fill="#af0000" fill-rule="evenodd" stroke="none"/>
      <path d="M8.25 12.5 L8.35 12.45 8.4 12.45 9.45 12.3 9.3 11.95 9.0 11.05 8.95 10.3 9.35 10.25 9.4 10.25 9.6 10.25 10.15 10.85 9.95 10.95 9.5 11.0 9.65 11.4 10.2 12.4 10.5 12.75 8.6 12.95 8.45 13.0 8.3 12.7 8.25 12.5 M11.75 10.0 L11.05 9.6 11.1 9.6 11.55 9.5 11.8 10.0 11.75 10.0" fill="#fa3417" fill-rule="evenodd" stroke="none"/>
      <path d="M9.35 9.4 L9.7 9.1 9.9 9.3 10.75 9.95 11.1 10.2 11.5 10.5 11.2 10.6 10.35 10.45 10.2 10.3 10.15 10.25 9.6 9.7 9.35 9.4" fill="#faaf9c" fill-rule="evenodd" stroke="none"/>
      <path d="M10.85 10.85 L11.7 11.0 11.75 11.0 12.85 11.6 12.9 11.65 13.0 11.85 13.2 12.35 13.2 12.4 13.1 12.4 13.0 12.3 12.6 11.95 12.45 11.85 Q12.1 11.55 11.6 11.4 L11.35 11.35 11.15 11.35 11.1 11.3 11.05 11.3 10.7 11.2 10.6 11.2 10.5 11.2 10.2 11.2 10.0 11.25 9.8 11.05 Q9.85 10.95 9.95 10.95 L10.15 10.85 10.75 10.85 10.85 10.85" fill="#88ccef" fill-rule="evenodd" stroke="none"/>
      <path d="M11.15 11.35 L11.35 11.35 11.6 11.4 Q12.1 11.55 12.45 11.85 L12.6 11.95 13.0 12.3 13.1 12.4 13.2 12.4 13.2 12.35 13.0 11.85 12.9 11.65 13.0 11.7 13.55 12.25 13.9 12.65 13.6 13.55 13.55 13.8 13.45 13.65 13.3 13.35 12.9 12.8 12.25 12.05 11.55 11.5 11.15 11.35" fill="#c8fdff" fill-rule="evenodd" stroke="none"/>
      <path d="M11.1 11.3 L11.15 11.35 11.55 11.5 12.25 12.05 12.9 12.8 13.3 13.35 13.45 13.65 13.55 13.8 13.5 14.2 13.55 14.25 13.5 14.25 13.4 14.15 13.15 13.95 12.95 13.8 Q12.25 13.4 11.8 13.5 L12.0 12.95 Q12.0 12.5 11.5 12.1 L11.25 11.95 10.5 11.45 10.55 11.3 10.55 11.25 10.6 11.2 11.1 11.3" fill="#4f8ec3" fill-rule="evenodd" stroke="none"/>
      <path d="M10.0 11.25 L10.2 11.2 10.5 11.2 10.6 11.2 10.55 11.25 10.55 11.3 10.5 11.45 11.25 11.95 11.5 12.1 Q12.0 12.5 12.0 12.95 L11.8 13.5 Q12.25 13.4 12.95 13.8 L13.15 13.95 13.4 14.15 13.5 14.25 13.55 14.25 13.55 14.45 13.45 14.45 13.4 14.45 13.1 14.4 12.8 14.35 Q11.95 14.2 11.5 13.85 L11.3 13.65 11.0 13.1 10.75 12.4 10.0 11.25" fill="#75b5e1" fill-rule="evenodd" stroke="none"/>
      <path d="M15.95 9.0 L16.75 9.0 16.9 9.0 16.95 9.0 17.2 9.1 17.5 9.25 17.75 9.4 17.95 9.5 18.0 9.55 18.05 9.6 18.1 9.7 18.15 9.7 18.25 9.7 18.3 9.7 18.4 9.75 18.5 9.75 18.65 9.75 18.65 9.8 18.6 9.8 18.6 9.85 18.35 10.05 18.3 10.05 17.9 9.85 17.6 9.75 17.5 9.8 17.4 9.75 17.35 9.75 17.1 9.6 17.05 9.55 16.3 9.3 16.25 9.3 16.2 9.3 16.05 9.4 15.95 9.7 15.95 9.95 15.85 10.1 15.75 10.2 15.85 10.5 15.8 10.5 15.7 10.45 15.2 10.25 15.05 10.2 14.95 10.15 14.7 10.1 14.6 10.05 14.35 10.0 14.2 10.05 14.15 10.25 14.1 11.0 14.05 11.35 14.05 11.45 14.15 11.5 14.6 11.7 14.55 11.75 14.5 11.85 14.3 11.95 14.2 11.9 14.1 11.75 14.0 11.55 13.95 11.45 13.95 11.3 13.9 11.2 13.9 11.1 13.8 10.05 13.8 9.85 14.25 9.8 14.45 9.8 14.55 9.85 14.85 9.85 14.95 9.9 15.2 9.95 15.6 10.05 15.65 10.1 15.75 10.15 15.75 10.0 15.7 10.0 15.7 9.8 15.55 9.05 15.55 9.0 15.85 9.0 15.95 9.0" fill="#bcfefc" fill-rule="evenodd" stroke="none"/>
      <path d="M13.0 11.35 L13.2 11.35 13.85 11.45 14.0 11.55 14.1 11.75 14.1 11.9 Q13.6 11.5 13.05 11.5 L12.95 11.5 12.95 11.45 13.0 11.35 M14.6 11.7 L14.15 11.5 14.05 11.45 14.05 11.35 14.1 11.0 14.15 10.25 14.2 10.05 14.35 10.0 14.6 10.05 14.7 10.1 14.95 10.15 15.05 10.2 15.2 10.25 15.7 10.45 15.8 10.5 15.85 10.5 15.75 10.2 15.85 10.1 15.95 9.95 15.95 9.7 16.05 9.4 16.2 9.3 16.25 9.3 16.3 9.3 17.05 9.55 17.1 9.6 17.35 9.75 17.25 9.75 17.15 9.75 17.0 9.75 16.9 9.75 16.65 9.75 16.5 9.8 16.3 9.9 16.1 10.3 16.05 10.4 16.05 10.5 16.0 10.6 15.95 10.65 15.85 10.75 15.45 10.85 15.35 10.85 15.2 10.8 15.0 10.75 14.75 10.6 14.7 10.6 14.6 10.65 14.6 10.8 14.65 11.1 14.7 11.5 14.65 11.6 14.6 11.7" fill="#a6d8ef" fill-rule="evenodd" stroke="none"/>
      <path d="M14.6 11.7 L14.65 11.6 14.7 11.5 14.65 11.1 14.6 10.8 14.6 10.65 14.7 10.6 14.75 10.6 15.0 10.75 15.2 10.8 15.35 10.85 15.45 10.85 15.85 10.75 15.95 10.65 16.0 10.6 16.05 10.5 16.05 10.4 16.1 10.3 16.3 9.9 16.5 9.8 16.65 9.75 16.9 9.75 17.0 9.75 17.15 9.75 17.25 9.75 17.35 9.75 17.4 9.75 17.4 9.8 17.25 9.8 17.2 9.8 16.8 10.0 16.75 10.05 16.55 10.2 16.35 10.6 16.3 10.75 16.3 10.8 15.9 11.1 15.8 11.15 15.75 11.15 15.7 11.15 15.55 11.2 15.5 11.2 15.4 11.2 Q15.1 11.35 15.1 11.85 15.1 12.35 15.45 12.6 L15.5 12.65 14.95 12.55 14.8 12.55 Q14.5 12.7 14.35 13.25 L14.1 11.9 14.2 11.9 14.3 11.95 14.5 11.85 14.55 11.75 14.6 11.7" fill="#6cadd5" fill-rule="evenodd" stroke="none"/>
      <path d="M13.55 13.8 L13.6 13.55 13.9 12.65 13.55 12.25 13.0 11.7 12.95 11.5 13.05 11.5 Q13.6 11.5 14.1 11.9 L14.35 13.25 14.15 14.35 14.35 15.2 14.4 15.25 15.1 16.1 15.5 16.35 15.8 16.65 15.85 16.7 15.65 16.85 15.25 16.8 15.15 16.7 14.7 16.55 14.05 15.95 13.9 15.75 13.9 15.65 13.7 15.35 13.7 15.3 13.45 14.6 13.4 14.45 13.45 14.45 13.55 14.45 13.55 14.25 13.5 14.2 13.55 13.8" fill="#6ca8cd" fill-rule="evenodd" stroke="none"/>
      <path d="M17.95 9.45 L17.95 7.7 18.35 7.85 18.5 9.45 18.05 9.6 18.0 9.55 17.95 9.45 M18.7 7.95 L19.05 8.1 19.15 8.7 18.85 9.1 18.7 7.95" fill="#a57a73" fill-rule="evenodd" stroke="none"/>
      <path d="M18.35 7.85 L18.7 7.95 18.85 9.1 18.5 9.45 18.35 7.85" fill="#f1af9f" fill-rule="evenodd" stroke="none"/>
      <path d="M20.05 10.3 L20.05 10.35 20.05 10.45 19.7 11.75 19.65 11.8 19.6 11.85 19.55 11.9 19.5 12.05 19.15 12.4 18.95 12.55 18.5 12.5 18.75 12.3 18.95 12.05 19.25 11.6 19.35 11.4 19.55 10.9 19.7 9.85 19.7 9.6 19.6 9.05 19.55 8.95 19.45 8.75 19.3 8.45 19.3 8.25 19.65 8.45 19.8 8.95 19.85 9.0 19.85 9.15 19.9 9.2 19.95 9.4 19.95 9.45 20.0 9.7 20.0 9.8 20.05 10.15 20.05 10.25 20.05 10.3" fill="#b99187" fill-rule="evenodd" stroke="none"/>
      <path d="M19.2 8.9 L19.25 8.7 19.4 8.9 19.35 9.1 19.35 9.15 19.35 9.2 19.3 9.4 18.65 10.35 18.55 10.45 18.25 10.65 17.75 11.0 17.6 11.1 17.55 11.15 Q17.3 11.2 17.15 11.3 L17.15 11.05 17.15 10.8 17.3 10.55 17.35 10.5 17.45 10.45 17.55 10.45 17.85 10.35 18.0 10.25 18.25 10.1 18.35 10.05 18.6 9.85 18.6 9.8 18.65 9.8 18.7 9.7 18.75 9.65 18.8 9.65 18.8 9.55 18.95 9.4 19.05 9.25 19.1 9.15 19.1 9.1 19.15 9.05 19.15 9.0 19.2 8.9" fill="#c69b92" fill-rule="evenodd" stroke="none"/>
      <path d="M19.15 8.7 L19.2 8.9 19.15 9.0 19.15 9.05 19.1 9.1 19.1 9.15 19.05 9.25 18.95 9.4 18.8 9.55 18.8 9.65 18.75 9.65 18.7 9.7 18.65 9.8 18.65 9.75 18.5 9.75 18.4 9.75 18.3 9.7 18.25 9.7 18.15 9.7 18.1 9.7 18.05 9.6 18.5 9.45 18.85 9.1 19.15 8.7" fill="#9c6c62" fill-rule="evenodd" stroke="none"/>
      <path d="M19.0 10.75 L19.4 10.05 19.5 9.5 19.5 9.3 19.45 9.05 19.4 8.9 19.45 8.75 19.55 8.95 19.6 9.05 19.7 9.6 19.7 9.85 19.55 10.9 19.35 11.4 19.4 10.95 19.4 10.7 19.3 10.6 Q19.15 10.6 19.0 10.75" fill="#ab8175" fill-rule="evenodd" stroke="none"/>
      <path d="M17.15 11.3 Q17.3 11.2 17.55 11.15 L17.6 11.1 17.75 11.0 18.25 10.65 18.55 10.45 18.65 10.35 19.3 9.4 19.35 9.2 19.35 9.15 19.35 9.1 19.4 8.9 19.45 9.05 19.5 9.3 19.5 9.5 19.4 10.05 19.0 10.75 18.35 11.4 18.0 11.7 17.7 11.95 17.5 12.05 17.15 11.3" fill="#ffc5b7" fill-rule="evenodd" stroke="none"/>
      <path d="M16.25 7.9 L16.2 7.7 16.15 7.5 16.35 7.65 17.4 8.7 17.5 8.85 17.8 9.2 17.9 9.35 17.95 9.45 18.0 9.55 17.95 9.5 17.75 9.4 17.5 9.25 17.2 9.1 17.1 8.95 17.05 8.9 16.25 7.9" fill="#ff4a1e" fill-rule="evenodd" stroke="none"/>
      <path d="M16.3 8.3 L16.25 7.9 17.05 8.9 17.1 8.95 17.2 9.1 16.95 9.0 16.9 9.0 16.75 9.0 16.7 8.95 16.3 8.3" fill="#ed1f21" fill-rule="evenodd" stroke="none"/>
      <path d="M16.75 10.05 L16.8 10.0 17.2 9.8 17.25 9.8 17.25 10.0 17.05 10.35 16.7 10.8 16.6 10.8 16.55 10.65 16.55 10.5 16.6 10.35 16.75 10.05" fill="#ffffe4" fill-rule="evenodd" stroke="none"/>
      <path d="M17.5 9.8 L17.6 9.75 17.9 9.85 18.3 10.05 18.35 10.05 18.25 10.1 18.0 10.25 17.85 10.35 17.55 10.45 17.45 10.45 17.35 10.5 17.3 10.55 17.15 10.8 16.9 11.05 Q16.75 11.35 16.75 11.85 L16.95 12.55 16.5 12.5 16.35 12.5 15.75 12.25 15.95 11.7 16.1 11.6 16.45 11.1 16.45 10.9 16.3 10.8 16.3 10.75 16.35 10.6 16.55 10.2 16.75 10.05 16.6 10.35 16.55 10.5 16.55 10.65 16.6 10.8 16.7 10.8 17.05 10.35 17.25 10.0 17.25 9.8 17.4 9.8 17.5 9.8 M19.5 12.75 L19.5 12.85 19.4 13.7 19.2 13.5 18.8 13.15 18.65 13.05 19.5 12.75" fill="#fedfc2" fill-rule="evenodd" stroke="none"/>
      <path d="M15.8 11.15 L15.9 11.1 16.3 10.8 16.45 10.9 16.45 11.1 16.1 11.6 15.95 11.7 15.75 12.25 Q15.45 12.05 15.45 11.7 L15.55 11.4 15.65 11.3 15.75 11.2 15.8 11.15" fill="#fff7de" fill-rule="evenodd" stroke="none"/>
      <path d="M17.15 10.8 L17.15 11.05 17.15 11.3 17.5 12.05 Q17.85 12.4 18.5 12.5 L18.95 12.55 19.15 12.4 19.5 12.05 19.55 11.9 19.6 11.85 19.6 12.0 19.55 12.45 19.5 12.75 18.65 13.05 18.4 12.95 18.15 12.85 18.1 12.8 17.55 12.6 16.95 12.55 16.75 11.85 Q16.75 11.35 16.9 11.05 L17.15 10.8" fill="#ebc1a9" fill-rule="evenodd" stroke="none"/>
      <path d="M19.0 10.75 Q19.15 10.6 19.3 10.6 L19.4 10.7 19.4 10.95 19.35 11.4 19.25 11.6 18.95 12.05 18.75 12.3 18.5 12.5 Q17.85 12.4 17.5 12.05 L17.7 11.95 18.0 11.7 18.35 11.4 19.0 10.75" fill="#9b6f64" fill-rule="evenodd" stroke="none"/>
      <path d="M9.95 10.95 Q9.85 10.95 9.8 11.05 L10.0 11.25 10.75 12.4 11.0 13.1 11.3 13.65 11.5 13.85 Q11.95 14.2 12.8 14.35 L13.1 14.4 13.4 14.45 13.45 14.6 12.45 14.75 12.25 14.75 11.75 14.9 11.7 14.9 11.6 14.85 11.55 14.8 11.2 14.4 11.15 14.35 10.9 13.45 10.9 13.3 10.9 13.2 10.95 13.15 10.9 13.1 10.75 13.0 10.5 12.75 10.2 12.4 9.65 11.4 9.5 11.0 9.95 10.95" fill="#d4180c" fill-rule="evenodd" stroke="none"/>
      <path d="M8.7 13.25 L8.45 13.0 8.6 12.95 10.5 12.75 10.75 13.0 10.9 13.1 10.95 13.15 10.9 13.2 10.9 13.3 10.8 13.3 9.3 13.25 8.7 13.25" fill="#d94612" fill-rule="evenodd" stroke="none"/>
      <path d="M8.7 14.35 L7.95 13.65 7.75 13.4 7.6 13.15 7.45 12.7 8.25 12.5 8.3 12.7 8.45 13.0 8.7 13.25 8.9 13.5 9.85 14.3 9.95 14.35 10.35 14.65 10.4 14.65 10.9 14.9 11.2 15.0 11.0 15.05 10.55 15.15 10.3 15.2 9.4 15.45 10.05 15.2 9.55 14.9 9.05 14.6 8.75 14.35 8.7 14.35" fill="#ea4518" fill-rule="evenodd" stroke="none"/>
      <path d="M7.7 14.9 L8.15 14.9 8.85 14.85 8.75 14.9 9.05 14.9 9.55 14.9 10.05 15.2 9.4 15.45 9.3 15.5 8.7 15.8 8.65 15.85 7.9 15.9 7.85 15.2 7.7 14.9" fill="#f0412c" fill-rule="evenodd" stroke="none"/>
      <path d="M7.7 14.9 L7.85 15.2 7.9 15.9 7.7 15.9 7.2 15.85 7.15 15.85 7.05 15.3 6.95 14.95 6.9 14.8 7.0 14.75 7.55 14.65 7.7 14.9" fill="#f8ff6c" fill-rule="evenodd" stroke="none"/>
      <path d="M9.55 14.9 L9.05 14.9 8.75 14.9 8.85 14.85 8.15 14.9 7.7 14.9 7.55 14.65 8.95 14.6 9.05 14.6 9.55 14.9 M7.9 15.9 L8.65 15.85 8.15 16.25 8.2 16.35 7.85 16.35 7.9 15.9" fill="#d02e1f" fill-rule="evenodd" stroke="none"/>
      <path d="M7.3 14.4 L7.45 14.4 8.55 14.35 8.7 14.35 8.75 14.35 9.05 14.6 8.95 14.6 7.55 14.65 7.45 14.5 7.3 14.4" fill="#d23526" fill-rule="evenodd" stroke="none"/>
      <path d="M8.7 13.25 L9.3 13.25 10.8 13.3 10.9 13.3 10.9 13.45 11.15 14.35 11.2 14.4 11.55 14.8 11.6 14.85 11.7 14.9 11.6 14.9 11.2 15.0 10.9 14.9 10.4 14.65 10.35 14.65 9.95 14.35 9.85 14.3 8.9 13.5 8.7 13.25" fill="#d31a17" fill-rule="evenodd" stroke="none"/>
      <path d="M6.95 17.35 L6.9 17.15 7.35 17.1 7.55 17.1 7.6 17.1 7.65 17.1 7.65 17.15 7.6 17.25 6.95 17.35 M6.75 14.6 L6.75 14.4 6.85 14.4 7.25 14.4 7.3 14.4 7.45 14.5 7.55 14.65 7.0 14.75 6.9 14.8 6.85 14.75 6.75 14.6" fill="#fef840" fill-rule="evenodd" stroke="none"/>
      <path d="M6.9 17.1 L6.75 16.0 6.75 15.9 6.75 15.85 6.75 15.6 6.7 15.55 6.7 15.35 6.75 14.6 6.85 14.75 6.9 14.8 6.95 14.95 7.05 15.3 7.15 15.85 7.15 16.2 7.15 16.35 7.1 16.6 7.1 16.65 6.9 17.1" fill="#bf261e" fill-rule="evenodd" stroke="none"/>
      <path d="M6.9 17.15 L6.85 17.15 6.9 17.1 7.1 16.65 7.1 16.6 7.15 16.35 7.15 16.2 7.15 15.85 7.2 15.85 7.7 15.9 7.9 15.9 7.85 16.35 7.85 16.4 7.65 17.1 7.6 17.1 7.55 17.1 7.35 17.1 6.9 17.15 M6.6 18.1 L6.6 18.15 6.55 18.15 6.6 18.1" fill="#f6a726" fill-rule="evenodd" stroke="none"/>
      <path d="M6.75 16.0 L6.7 15.6 6.75 15.6 6.75 15.85 6.75 15.9 6.75 16.0" fill="#4f3b6c" fill-rule="evenodd" stroke="none"/>
      <path d="M6.7 15.6 L6.7 15.55 6.75 15.6 6.7 15.6" fill="#615176" fill-rule="evenodd" stroke="none"/>
      <path d="M7.05 17.8 L7.05 17.7 7.2 17.55 7.25 17.5 7.35 17.45 7.5 17.35 7.55 17.3 7.65 17.25 8.15 17.2 8.3 17.2 8.65 17.2 9.05 17.2 9.15 17.2 9.2 17.2 8.95 17.3 8.7 17.45 8.45 17.6 8.25 17.55 8.05 17.55 7.85 17.6 7.2 17.75 7.15 17.75 7.1 17.75 7.05 17.8 M10.2 19.85 L10.3 19.75 10.45 19.7 10.85 19.8 10.9 19.9 10.95 19.95 10.9 19.95 Q10.7 19.95 10.6 20.05 L10.6 20.0 10.6 19.95 Q10.55 19.8 10.35 19.8 L10.2 19.85 M10.0 20.9 L10.0 20.8 10.15 20.85 10.2 20.85 10.35 20.75 10.4 20.75 10.4 20.8 10.35 20.8 10.3 20.8 10.0 21.0 10.0 20.95 10.0 20.9" fill="#593b77" fill-rule="evenodd" stroke="none"/>
      <path d="M7.75 18.95 L7.6 19.1 7.5 18.95 7.6 18.75 7.65 18.5 7.65 18.45 7.65 18.4 7.7 18.25 7.75 18.05 7.85 17.8 7.7 17.7 Q7.55 17.7 7.35 18.2 L7.3 18.45 7.05 17.8 7.1 17.75 7.15 17.75 7.2 17.75 7.85 17.6 8.05 17.55 8.25 17.55 8.45 17.6 8.35 17.65 8.25 17.7 7.75 18.25 7.7 18.45 7.7 18.55 7.7 18.6 7.75 18.95" fill="#4f396a" fill-rule="evenodd" stroke="none"/>
      <path d="M7.05 17.7 L6.95 17.35 7.6 17.25 7.65 17.25 7.55 17.3 7.5 17.35 7.35 17.45 7.25 17.5 7.2 17.55 7.05 17.7" fill="#ec902b" fill-rule="evenodd" stroke="none"/>
      <path d="M7.5 18.95 L7.45 18.75 7.3 18.45 7.35 18.2 Q7.55 17.7 7.7 17.7 L7.85 17.8 7.75 18.05 7.7 18.25 7.65 18.4 7.65 18.45 7.65 18.5 7.6 18.75 7.5 18.95" fill="#7c56a1" fill-rule="evenodd" stroke="none"/>
      <path d="M8.7 15.8 L9.3 15.5 9.4 15.45 10.3 15.2 10.55 15.15 11.0 15.05 11.2 15.0 11.6 14.9 11.7 14.9 11.75 14.9 12.25 14.75 12.3 14.95 11.9 15.0 11.8 15.05 11.65 15.05 11.1 15.3 10.55 15.6 10.2 15.8 9.75 16.2 9.7 16.2 9.2 16.5 9.0 16.25 8.95 16.2 8.7 15.85 8.7 15.8" fill="#fe5824" fill-rule="evenodd" stroke="none"/>
      <path d="M9.2 16.5 L9.7 16.2 9.8 16.2 10.2 16.0 10.75 15.8 11.2 15.7 11.95 15.55 11.95 15.6 11.9 15.65 11.85 15.7 11.95 15.85 12.05 15.85 12.2 15.9 11.95 16.05 11.6 16.25 11.45 16.3 11.2 16.45 10.35 17.0 10.2 17.15 Q10.1 17.15 10.05 17.25 L9.95 17.15 9.8 17.0 9.75 17.0 9.35 16.65 9.2 16.5" fill="#ca1913" fill-rule="evenodd" stroke="none"/>
      <path d="M9.2 17.2 L9.15 17.2 8.95 17.0 8.9 17.0 8.75 16.85 9.2 16.5 9.35 16.65 9.75 17.0 9.8 17.0 9.95 17.15 10.05 17.25 9.65 17.6 9.65 17.55 9.2 17.2" fill="#e8361a" fill-rule="evenodd" stroke="none"/>
      <path d="M8.65 15.85 L8.7 15.8 8.7 15.85 8.95 16.2 9.0 16.25 9.2 16.5 8.75 16.85 8.2 16.35 8.15 16.25 8.65 15.85" fill="#ec5a1e" fill-rule="evenodd" stroke="none"/>
      <path d="M9.7 16.2 L9.75 16.2 10.2 15.8 10.55 15.6 11.1 15.3 11.65 15.05 11.8 15.05 11.9 15.0 12.3 14.95 12.25 15.15 12.25 15.2 12.05 15.45 11.95 15.55 11.2 15.7 10.75 15.8 10.2 16.0 9.8 16.2 9.7 16.2" fill="#dd4015" fill-rule="evenodd" stroke="none"/>
      <path d="M7.65 17.1 L7.85 16.4 7.85 16.35 8.2 16.35 8.75 16.85 8.9 17.0 7.65 17.1" fill="#b22919" fill-rule="evenodd" stroke="none"/>
      <path d="M8.45 17.6 L8.7 17.45 8.95 17.3 9.2 17.2 9.65 17.55 9.65 17.6 9.6 17.75 9.3 18.25 9.35 18.45 8.4 18.35 7.75 18.4 7.7 18.45 7.75 18.25 8.25 17.7 8.35 17.65 8.45 17.6" fill="#d70c12" fill-rule="evenodd" stroke="none"/>
      <path d="M9.15 17.2 L9.05 17.2 8.65 17.2 8.3 17.2 8.15 17.2 7.65 17.25 7.6 17.25 7.65 17.15 7.65 17.1 8.9 17.0 8.95 17.0 9.15 17.2" fill="#e83c28" fill-rule="evenodd" stroke="none"/>
      <path d="M7.8 19.05 L7.75 18.95 7.7 18.6 7.7 18.55 7.7 18.45 7.75 18.4 8.4 18.35 9.35 18.45 9.8 19.0 10.3 19.35 Q11.2 20.0 12.2 20.15 L12.65 20.15 13.05 20.15 13.2 20.2 12.55 20.65 12.3 20.8 12.25 20.75 11.95 20.65 11.75 20.55 11.55 20.5 11.15 20.35 11.1 20.3 10.95 19.95 10.9 19.9 10.85 19.8 10.45 19.7 10.3 19.75 10.2 19.85 10.15 19.95 10.15 20.0 10.1 20.05 10.1 20.1 9.75 20.05 9.7 20.05 9.1 20.05 9.1 20.0 9.15 19.95 9.15 19.7 9.1 19.45 9.0 19.2 Q8.8 18.9 8.45 18.9 L8.4 18.9 7.8 19.05" fill="#bb0b0b" fill-rule="evenodd" stroke="none"/>
      <path d="M9.6 17.75 L9.65 17.6 10.05 17.25 10.15 17.3 10.2 17.35 10.7 17.55 10.6 18.0 10.6 18.05 10.35 18.35 10.3 18.5 9.8 18.2 9.5 17.95 9.55 17.8 9.6 17.75" fill="#ee511a" fill-rule="evenodd" stroke="none"/>
      <path d="M9.35 18.45 L9.3 18.25 9.6 17.75 9.55 17.8 9.5 17.95 9.8 18.2 10.3 18.5 10.4 18.55 10.75 18.65 10.85 18.7 11.25 18.75 11.35 18.95 11.7 19.3 12.05 19.6 12.5 19.9 13.0 20.15 13.05 20.15 12.65 20.15 12.2 20.15 Q11.2 20.0 10.3 19.35 L9.8 19.0 9.35 18.45" fill="#9e0001" fill-rule="evenodd" stroke="none"/>
      <path d="M9.0 20.0 L8.95 19.9 8.8 19.7 8.55 19.45 8.65 19.35 8.65 19.15 8.6 19.0 8.45 18.9 Q8.8 18.9 9.0 19.2 L9.1 19.45 9.15 19.7 9.15 19.95 9.1 20.0 9.1 20.05 9.05 20.05 9.0 20.0" fill="#4c3464" fill-rule="evenodd" stroke="none"/>
      <path d="M8.45 19.85 L8.55 19.9 8.9 20.0 8.95 20.0 9.0 20.0 9.05 20.05 9.1 20.05 9.7 20.05 9.7 20.15 9.65 20.3 9.65 20.35 9.35 20.4 9.0 20.4 8.95 20.35 8.9 20.35 8.6 20.2 8.35 20.05 8.25 19.95 Q8.35 19.85 8.4 19.85 L8.45 19.85" fill="#8b59b8" fill-rule="evenodd" stroke="none"/>
      <path d="M8.05 19.85 L7.9 19.6 8.3 19.45 8.5 19.45 8.55 19.45 8.8 19.7 8.95 19.9 9.0 20.0 8.95 20.0 8.9 20.0 8.55 19.9 8.45 19.85 8.35 19.75 8.25 19.7 8.2 19.75 8.05 19.85 M9.7 20.05 L9.75 20.05 10.1 20.1 10.05 20.2 10.0 20.4 10.0 20.8 10.0 20.9 9.85 20.85 9.75 20.85 9.7 20.85 9.65 20.75 9.65 20.7 9.65 20.6 9.65 20.35 9.65 20.3 9.7 20.15 9.7 20.05 M10.95 19.95 L11.1 20.3 10.95 20.3 10.75 20.2 10.75 20.55 10.75 20.65 10.75 20.7 10.65 20.7 10.5 20.75 10.4 20.8 10.4 20.75 10.45 20.65 10.55 20.5 10.6 20.2 10.6 20.1 10.6 20.05 Q10.7 19.95 10.9 19.95 L10.95 19.95" fill="#3f294f" fill-rule="evenodd" stroke="none"/>
      <path d="M7.9 19.6 L7.65 19.15 7.8 19.05 8.4 18.9 8.45 18.9 8.6 19.0 8.65 19.15 8.65 19.35 8.55 19.45 8.5 19.45 8.3 19.45 7.9 19.6" fill="#784da9" fill-rule="evenodd" stroke="none"/>
      <path d="M8.2 20.05 L8.05 19.85 8.2 19.75 8.25 19.7 8.35 19.75 8.45 19.85 8.4 19.85 Q8.35 19.85 8.25 19.95 L8.2 20.0 8.2 20.05" fill="#321f3f" fill-rule="evenodd" stroke="none"/>
      <path d="M8.85 20.85 L8.2 20.05 8.2 20.0 8.25 19.95 8.35 20.05 8.6 20.2 8.9 20.35 8.95 20.35 9.0 20.4 9.35 20.4 9.65 20.35 9.65 20.6 9.65 20.7 9.65 20.75 9.7 20.85 9.35 20.9 8.9 20.85 8.85 20.85" fill="#653e53" fill-rule="evenodd" stroke="none"/>
      <path d="M10.1 20.1 L10.1 20.05 10.15 20.0 10.15 19.95 10.2 19.85 10.35 19.8 Q10.55 19.8 10.6 19.95 L10.6 20.0 10.6 20.05 10.6 20.1 10.6 20.2 10.55 20.5 10.45 20.65 10.4 20.75 10.35 20.75 10.2 20.85 10.15 20.85 10.0 20.8 10.0 20.4 10.05 20.2 10.1 20.1" fill="#905fc8" fill-rule="evenodd" stroke="none"/>
      <path d="M9.7 20.85 L9.75 20.85 9.85 20.85 10.0 20.9 10.0 20.95 10.0 21.0 9.9 21.05 9.85 21.1 9.75 21.1 9.7 20.85" fill="#361b50" fill-rule="evenodd" stroke="none"/>
      <path d="M9.1 21.1 L9.0 21.0 8.85 20.85 8.9 20.85 9.35 20.9 9.7 20.85 9.75 21.1 9.5 21.05 9.1 21.1" fill="#2b1838" fill-rule="evenodd" stroke="none"/>
      <path d="M9.8 21.7 L9.15 21.15 9.1 21.1 9.5 21.05 9.75 21.1 9.85 21.1 9.8 21.15 9.75 21.4 9.8 21.55 9.8 21.7" fill="#d86a08" fill-rule="evenodd" stroke="none"/>
      <path d="M9.9 21.05 L10.0 21.0 10.3 20.8 10.35 20.8 10.4 20.8 10.5 20.75 10.6 20.95 10.65 21.1 10.45 21.15 10.35 21.2 10.15 21.3 10.1 21.35 10.0 21.4 10.0 21.45 9.9 21.55 9.9 21.1 9.9 21.05" fill="#ffe03a" fill-rule="evenodd" stroke="none"/>
      <path d="M9.85 21.75 L9.8 21.75 9.8 21.7 9.8 21.55 9.75 21.4 9.8 21.15 9.85 21.1 9.9 21.05 9.9 21.1 9.9 21.55 9.9 21.6 9.85 21.75 M10.65 21.1 L10.6 20.95 10.5 20.75 10.65 20.7 10.75 20.7 11.0 20.7 11.15 20.75 11.25 21.15 10.95 21.05 10.9 21.05 10.8 21.05 10.75 21.1 10.65 21.1" fill="#f1a825" fill-rule="evenodd" stroke="none"/>
      <path d="M9.95 21.8 L9.85 21.75 9.9 21.6 9.9 21.55 9.9 21.65 9.95 21.8" fill="#b72003" fill-rule="evenodd" stroke="none"/>
      <path d="M10.0 21.85 L9.95 21.8 9.9 21.65 9.9 21.55 10.0 21.45 10.0 21.4 10.0 21.65 10.0 21.85" fill="#cb4214" fill-rule="evenodd" stroke="none"/>
      <path d="M10.7 22.35 L10.0 21.85 10.0 21.65 10.0 21.4 10.1 21.35 10.15 21.3 10.2 21.3 10.4 21.55 10.55 21.8 10.65 22.1 10.7 22.3 10.7 22.35" fill="#f95120" fill-rule="evenodd" stroke="none"/>
      <path d="M8.35 22.75 L8.35 22.8 8.25 22.8 8.35 22.75" fill="#f9b14d" fill-rule="evenodd" stroke="none"/>
      <path d="M14.35 13.25 Q14.5 12.7 14.8 12.55 L14.95 12.55 15.5 12.65 15.75 12.8 15.8 12.8 15.2 13.1 Q14.7 13.4 14.7 13.75 L14.85 13.9 14.95 13.95 14.85 14.15 14.85 14.5 15.0 15.2 15.35 15.45 15.5 15.55 15.65 15.7 16.3 16.15 16.6 16.2 17.6 15.8 Q18.25 15.35 18.55 15.35 L19.05 15.45 19.5 15.6 19.4 15.8 18.75 15.75 Q18.4 15.75 18.1 16.0 L17.9 16.25 17.65 16.45 17.45 16.65 17.4 16.7 17.1 16.95 17.0 17.0 16.55 17.2 16.15 17.25 16.45 16.95 16.5 16.8 16.55 16.6 16.5 16.6 16.25 16.6 15.85 16.7 15.8 16.65 15.5 16.35 15.1 16.1 14.4 15.25 14.35 15.2 14.15 14.35 14.35 13.25" fill="#a4d3ed" fill-rule="evenodd" stroke="none"/>
      <path d="M16.0 13.65 L16.05 13.65 16.1 13.65 16.3 13.6 16.6 13.85 16.5 14.1 16.3 14.25 16.1 14.4 15.85 14.45 15.7 14.35 15.65 14.35 15.6 14.1 15.85 13.8 16.0 13.65" fill="#fffefd" fill-rule="evenodd" stroke="none"/>
      <path d="M17.9 15.15 L17.55 15.6 17.5 15.65 17.4 15.75 16.45 16.0 15.65 15.7 15.5 15.55 15.45 15.5 15.15 14.9 15.1 14.55 15.2 14.15 15.5 14.85 15.6 15.05 16.3 15.45 16.5 15.5 16.65 15.5 17.2 15.45 17.45 15.35 17.9 15.15" fill="#e5fbf8" fill-rule="evenodd" stroke="none"/>
      <path d="M15.85 16.7 L16.25 16.6 16.5 16.6 16.55 16.6 16.5 16.8 16.45 16.95 16.15 17.25 16.55 17.2 17.0 17.0 17.1 16.95 17.1 17.4 17.15 17.85 17.25 17.95 17.1 17.95 16.5 17.8 16.45 17.8 16.2 17.75 15.95 17.65 15.3 17.25 15.65 16.85 15.85 16.7" fill="#fad6b4" fill-rule="evenodd" stroke="none"/>
      <path d="M17.1 16.95 L17.4 16.7 17.45 16.65 17.65 16.45 17.9 16.25 17.95 16.2 18.4 16.1 18.5 16.1 19.2 16.2 19.25 16.3 Q19.25 16.95 18.9 17.4 L18.75 17.55 18.6 17.7 17.45 18.15 17.35 18.05 17.25 17.95 17.15 17.85 17.1 17.4 17.1 16.95" fill="#fffdde" fill-rule="evenodd" stroke="none"/>
      <path d="M15.3 17.25 L15.95 17.65 16.2 17.75 16.45 17.8 16.5 17.8 17.1 17.95 17.25 17.95 17.35 18.05 17.45 18.15 17.65 18.5 17.6 18.75 17.5 18.85 17.05 19.15 17.0 19.15 16.55 19.1 16.5 19.1 16.1 19.0 15.9 18.85 15.55 18.55 15.5 18.55 15.45 18.45 15.3 18.25 15.25 18.2 15.2 18.0 15.2 17.7 15.2 17.55 15.25 17.4 15.25 17.3 15.3 17.25" fill="#eabc9a" fill-rule="evenodd" stroke="none"/>
      <path d="M19.2 18.9 L19.2 19.2 18.6 19.35 18.4 19.35 17.85 19.6 17.6 19.75 17.55 19.8 17.4 19.9 17.3 20.0 16.65 20.05 16.5 20.05 16.05 20.0 14.6 19.9 13.9 19.75 13.8 19.75 13.4 19.6 13.25 19.55 13.15 19.55 12.15 19.05 12.9 19.05 13.1 19.05 Q13.9 19.0 14.6 18.55 L15.0 18.2 15.2 18.2 15.3 18.25 15.45 18.45 15.5 18.55 15.55 18.55 15.9 18.85 16.1 19.0 16.5 19.1 16.55 19.1 17.0 19.15 17.05 19.15 17.5 19.1 17.75 19.05 17.8 19.05 18.2 18.9 18.4 18.85 18.45 18.85 18.55 18.8 19.05 18.8 19.2 18.9" fill="#d01913" fill-rule="evenodd" stroke="none"/>
      <path d="M15.2 18.0 L15.25 18.2 15.3 18.25 15.2 18.2 15.0 18.2 14.9 18.2 14.05 18.25 13.0 18.2 12.5 18.15 11.75 17.95 10.9 17.65 10.95 17.65 11.45 17.15 11.7 16.95 12.3 16.45 12.75 16.15 13.0 16.6 12.5 17.0 12.3 17.0 11.8 17.15 11.9 17.2 12.35 17.35 12.5 17.4 13.1 17.45 13.4 17.5 14.0 17.6 14.7 17.75 15.1 18.1 15.2 18.0" fill="#ca1712" fill-rule="evenodd" stroke="none"/>
      <path d="M17.9 16.25 L18.1 16.0 Q18.4 15.75 18.75 15.75 L19.4 15.8 19.35 16.1 19.35 16.2 19.3 16.25 19.2 16.2 18.5 16.1 18.4 16.1 17.95 16.2 17.9 16.25" fill="#fee4c9" fill-rule="evenodd" stroke="none"/>
      <path d="M20.1 16.2 L20.05 16.3 20.05 16.35 20.05 16.55 19.95 16.6 19.75 16.7 19.7 16.7 19.65 16.6 19.65 16.55 19.75 16.4 Q19.85 16.3 20.1 16.2" fill="#f98d2b" fill-rule="evenodd" stroke="none"/>
      <path d="M11.6 16.25 L11.95 16.05 12.2 15.9 12.3 15.95 12.45 16.0 12.75 16.15 12.3 16.45 11.7 16.95 11.45 17.15 10.95 17.65 10.9 17.65 10.6 18.05 10.6 18.0 10.7 17.55 11.0 17.15 11.0 17.1 11.1 17.0 11.6 16.25" fill="#db4216" fill-rule="evenodd" stroke="none"/>
      <path d="M10.05 17.25 Q10.1 17.15 10.2 17.15 L10.35 17.0 11.2 16.45 11.45 16.3 11.6 16.25 11.1 17.0 11.0 17.1 11.0 17.15 10.7 17.55 10.2 17.35 10.15 17.3 10.05 17.25" fill="#ec5c28" fill-rule="evenodd" stroke="none"/>
      <path d="M10.3 18.5 L10.35 18.35 10.6 18.05 10.9 17.65 11.75 17.95 12.5 18.15 13.0 18.2 14.05 18.25 14.9 18.2 13.45 18.5 13.0 18.6 12.7 18.65 11.8 18.7 10.9 18.65 10.75 18.65 10.4 18.55 10.3 18.5" fill="#f72b10" fill-rule="evenodd" stroke="none"/>
      <path d="M14.9 18.2 L15.0 18.2 14.6 18.55 Q13.9 19.0 13.1 19.05 L12.9 19.05 12.15 19.05 11.7 19.0 11.35 18.95 11.25 18.75 10.85 18.7 10.75 18.65 10.9 18.65 11.8 18.7 12.7 18.65 13.0 18.6 13.45 18.5 14.9 18.2" fill="#a40000" fill-rule="evenodd" stroke="none"/>
      <path d="M13.2 20.2 L13.05 20.15 13.0 20.15 12.5 19.9 12.05 19.6 11.7 19.3 11.35 18.95 11.7 19.0 12.15 19.05 13.15 19.55 13.25 19.55 13.4 19.6 13.8 19.75 13.9 19.75 14.6 19.9 16.05 20.0 16.5 20.05 16.65 20.05 17.3 20.0 16.6 20.35 16.5 20.4 15.8 20.6 15.7 20.65 15.55 20.55 15.35 20.55 14.35 20.5 13.2 20.2" fill="#f13917" fill-rule="evenodd" stroke="none"/>
      <path d="M11.1 20.3 L11.15 20.35 11.55 20.5 11.75 20.55 11.95 20.65 12.25 20.75 12.3 20.8 12.6 21.05 12.85 21.3 12.95 21.4 12.95 21.45 12.9 21.5 12.85 21.5 12.8 21.55 12.8 21.6 12.75 21.65 12.5 21.45 12.35 21.35 12.05 21.15 12.0 21.1 11.55 20.85 11.45 20.8 11.3 20.75 11.0 20.65 11.05 20.45 11.1 20.35 11.1 20.3" fill="#8b62c0" fill-rule="evenodd" stroke="none"/>
      <path d="M12.75 21.65 L12.8 21.6 12.8 21.55 12.85 21.5 12.9 21.5 12.95 21.45 13.2 21.75 13.2 21.8 13.15 22.0 12.85 21.7 12.8 21.7 12.75 21.65" fill="#352049" fill-rule="evenodd" stroke="none"/>
      <path d="M12.3 20.8 L12.55 20.65 13.2 20.2 14.35 20.5 15.35 20.55 15.55 20.55 15.7 20.65 15.8 20.65 16.15 20.75 17.15 21.05 16.45 21.0 15.75 20.9 15.65 20.8 15.5 20.75 15.45 20.7 15.0 20.6 14.3 20.7 14.2 20.7 14.15 20.75 14.0 20.8 13.65 21.0 13.45 21.25 13.4 21.3 13.2 21.65 13.2 21.75 12.95 21.45 12.95 21.4 12.85 21.3 12.6 21.05 12.3 20.8" fill="#f2c0c9" fill-rule="evenodd" stroke="none"/>
      <path d="M15.9 23.45 L15.65 23.5 15.6 23.45 15.5 23.25 15.45 23.05 15.1 22.6 14.95 22.3 14.9 22.25 14.9 22.2 14.85 22.1 14.7 21.9 14.1 21.65 14.05 21.65 13.65 22.25 13.65 22.35 13.6 22.35 13.6 22.45 13.5 22.75 13.5 22.8 13.35 22.85 13.3 22.9 13.25 22.9 13.15 23.0 13.1 23.05 13.05 23.05 13.05 23.0 13.05 22.9 13.05 22.6 13.1 22.1 13.15 22.0 13.2 21.8 13.2 21.75 13.2 21.65 13.4 21.3 13.45 21.25 13.65 21.0 14.0 20.8 14.15 20.75 14.2 20.7 14.3 20.7 14.7 20.85 14.9 21.05 15.15 21.3 15.2 21.35 15.3 21.5 15.55 21.95 15.6 22.05 15.6 22.1 15.65 22.15 15.65 22.2 15.9 23.0 15.9 23.05 15.9 23.25 15.9 23.45" fill="#fba37f" fill-rule="evenodd" stroke="none"/>
      <path d="M15.3 21.5 L15.2 21.35 15.15 21.3 14.9 21.05 14.7 20.85 14.3 20.7 15.0 20.6 15.45 20.7 15.5 20.75 15.65 20.8 15.75 20.9 16.15 21.25 15.95 21.25 15.5 21.35 15.3 21.5" fill="#ffcbab" fill-rule="evenodd" stroke="none"/>
      <path d="M11.1 20.3 L11.1 20.35 11.05 20.45 11.0 20.65 11.3 20.75 11.45 20.8 11.55 20.85 12.0 21.1 12.05 21.15 12.35 21.35 12.5 21.45 12.75 21.65 12.7 21.9 12.7 21.95 12.8 22.6 12.55 22.35 12.3 22.1 11.6 21.55 11.6 21.5 11.55 21.5 11.5 21.3 11.4 20.85 11.15 20.75 11.0 20.7 11.0 20.65 10.85 20.55 10.75 20.55 10.75 20.2 10.95 20.3 11.1 20.3" fill="#533c70" fill-rule="evenodd" stroke="none"/>
      <path d="M13.05 23.25 L12.85 23.2 12.75 23.1 12.65 22.95 12.5 22.75 12.4 22.65 11.9 22.15 11.8 22.05 11.65 21.7 11.6 21.55 12.3 22.1 12.55 22.35 12.8 22.6 12.7 21.95 12.7 21.9 12.75 21.65 12.8 21.7 12.85 21.7 13.15 22.0 13.1 22.1 13.05 22.6 13.05 22.9 13.05 23.0 13.05 23.05 13.05 23.1 13.05 23.25 M11.0 20.7 L10.75 20.7 10.75 20.65 10.75 20.55 10.85 20.55 11.0 20.65 11.0 20.7" fill="#362247" fill-rule="evenodd" stroke="none"/>
      <path d="M11.15 22.55 L10.7 22.35 10.7 22.3 10.65 22.1 10.55 21.8 10.4 21.55 10.2 21.3 10.15 21.3 10.35 21.2 10.45 21.15 10.65 21.1 10.75 21.35 10.8 21.5 10.85 21.7 10.95 22.05 11.1 22.35 11.15 22.55" fill="#e63600" fill-rule="evenodd" stroke="none"/>
      <path d="M11.8 22.85 L11.15 22.55 11.1 22.35 10.95 22.05 10.85 21.7 10.8 21.5 10.75 21.35 10.65 21.1 10.75 21.1 10.8 21.05 10.9 21.05 10.95 21.05 11.25 21.15 11.35 21.4 11.35 21.45 11.45 21.75 11.45 21.8 11.75 22.75 11.8 22.85" fill="#a8150b" fill-rule="evenodd" stroke="none"/>
      <path d="M12.15 23.0 L12.15 23.05 11.85 22.95 11.8 22.85 11.75 22.75 11.45 21.8 11.45 21.75 11.35 21.45 11.35 21.4 11.25 21.15 11.5 21.3 11.55 21.5 11.6 21.5 11.6 21.55 11.65 21.7 11.8 22.05 11.8 22.1 12.0 22.6 12.05 22.75 12.15 23.0" fill="#ed1b0c" fill-rule="evenodd" stroke="none"/>
      <path d="M11.15 20.75 L11.4 20.85 11.5 21.3 11.25 21.15 11.15 20.75" fill="#ffff2a" fill-rule="evenodd" stroke="none"/>
      <path d="M12.75 23.2 L12.15 23.0 12.05 22.75 12.0 22.6 11.8 22.1 11.8 22.05 11.9 22.15 12.4 22.65 12.5 22.75 12.65 22.95 12.75 23.1 12.75 23.2" fill="#d9852d" fill-rule="evenodd" stroke="none"/>
      <path d="M13.65 22.35 L13.65 22.25 14.05 21.65 14.1 21.65 14.7 21.9 14.85 22.1 14.9 22.2 14.9 22.25 14.95 22.3 15.1 22.6 14.95 22.5 14.65 22.35 14.45 22.3 14.4 22.3 14.2 22.25 13.65 22.35" fill="#f28f68" fill-rule="evenodd" stroke="none"/>
      <path d="M15.2 23.5 L15.15 23.5 14.7 23.5 14.35 22.8 14.2 22.75 14.15 22.75 13.9 22.7 13.5 22.75 13.6 22.45 13.6 22.35 13.65 22.35 14.2 22.25 14.4 22.3 14.45 22.3 14.65 22.35 14.95 22.5 15.1 22.6 15.2 23.3 15.2 23.5" fill="#f09163" fill-rule="evenodd" stroke="none"/>
      <path d="M14.7 23.5 L13.5 23.35 13.5 23.25 13.5 23.15 13.5 22.95 13.5 22.8 13.5 22.75 13.9 22.7 14.15 22.75 14.2 22.75 14.35 22.8 14.7 23.5" fill="#f9c59d" fill-rule="evenodd" stroke="none"/>
      <path d="M12.85 23.2 L12.75 23.2 12.75 23.1 12.85 23.2" fill="#e9c46b" fill-rule="evenodd" stroke="none"/>
      <path d="M13.5 23.35 L13.05 23.25 13.05 23.1 13.05 23.05 13.1 23.05 13.15 23.0 13.25 22.9 13.3 22.9 13.35 22.85 13.5 22.8 13.5 22.95 13.5 23.15 13.5 23.25 13.5 23.35" fill="#fcd4b1" fill-rule="evenodd" stroke="none"/>
      <path d="M19.9 22.1 Q18.4 23.05 16.7 23.35 L16.7 23.2 16.75 23.2 16.8 23.2 17.25 23.15 17.65 23.05 Q19.05 22.75 19.05 22.3 L18.5 21.8 17.9 21.65 17.2 21.55 17.15 21.55 17.1 21.55 16.55 21.65 16.4 21.65 16.3 21.5 16.2 21.3 16.15 21.25 15.75 20.9 16.45 21.0 17.15 21.05 18.0 21.15 18.8 21.2 19.45 21.1 19.65 21.3 19.75 21.45 19.8 21.55 19.9 22.1" fill="#912822" fill-rule="evenodd" stroke="none"/>
      <path d="M20.0 22.05 L19.9 22.1 19.8 21.55 19.75 21.45 19.8 21.55 19.95 21.85 20.0 22.05" fill="#6a2635" fill-rule="evenodd" stroke="none"/>
      <path d="M16.7 23.35 L16.7 23.45 16.3 23.5 16.0 23.45 15.95 23.45 15.9 23.45 15.9 23.25 15.9 23.05 15.9 23.0 15.65 22.2 15.65 22.15 15.6 22.1 15.6 22.05 15.55 21.95 15.3 21.5 15.5 21.35 15.95 21.25 16.15 21.25 16.2 21.3 16.3 21.5 16.4 21.65 16.45 21.7 16.45 21.75 16.55 22.1 16.6 22.2 16.7 22.75 16.7 22.9 16.7 23.15 16.7 23.2 16.7 23.35" fill="#feffd7" fill-rule="evenodd" stroke="none"/>
      <path d="M16.4 21.65 L16.55 21.65 17.1 21.55 17.15 21.55 17.2 21.55 17.9 21.65 18.5 21.8 19.05 22.3 Q19.05 22.75 17.65 23.05 L17.25 23.15 16.8 23.2 16.75 23.2 16.7 23.2 16.7 23.15 16.7 22.9 16.7 22.75 16.6 22.2 16.55 22.1 16.45 21.75 16.45 21.7 16.4 21.65" fill="#ab3a2a" fill-rule="evenodd" stroke="none"/>
      <path d="M16.0 23.45 L15.9 23.45 15.95 23.45 16.0 23.45" fill="#ffd0af" fill-rule="evenodd" stroke="none"/>
      <path d="M15.65 23.5 L15.2 23.5 15.2 23.3 15.1 22.6 15.45 23.05 15.5 23.25 15.6 23.45 15.65 23.5" fill="#f4a074" fill-rule="evenodd" stroke="none"/>
      <path d="M20.9 10.25 L20.8 9.9 20.35 10.1 20.3 10.15 20.05 10.3 M21.1 12.4 L20.95 10.65 20.9 10.25 M21.95 14.95 L21.55 14.8 21.45 13.8 M22.45 14.6 L22.5 14.55 22.55 14.65 22.6 14.65 22.6 14.9 22.6 15.45 22.55 15.45 Q22.9 15.85 22.9 16.6 L22.9 16.75 22.9 17.0 22.85 17.55 22.35 18.7 22.35 18.85 22.35 18.9 22.3 19.1 22.1 19.65 21.9 19.9 21.55 20.25 21.3 20.45 20.4 20.85 20.3 20.85 M6.75 14.4 L6.85 14.4 7.25 14.4 7.3 14.4 7.45 14.4 8.55 14.35 M8.7 14.35 L7.95 13.65 7.75 13.4 7.6 13.15 7.45 12.7 8.25 12.5 8.35 12.45 8.4 12.45 9.45 12.3 9.3 11.95 9.0 11.05 8.95 10.3 9.35 10.25 9.4 10.25 9.6 10.25 9.35 10.0 9.15 9.75 9.1 9.65 M10.0 8.85 L10.55 9.25 10.75 9.45 M10.9 9.5 L10.7 8.75 10.7 8.4 M11.75 7.9 L13.55 8.3 13.65 8.3 13.9 8.4 13.85 8.2 13.75 7.6 13.75 7.45 13.75 7.35 M14.4 7.3 L15.7 8.0 16.25 8.4 16.35 8.45 16.3 8.35 16.3 8.3 16.25 7.9 16.2 7.7 16.15 7.5 16.35 7.65 17.4 8.7 17.5 8.85 17.8 9.2 17.9 9.35 17.95 9.45 17.95 7.7 M19.05 8.1 L19.15 8.7 19.2 8.9 19.25 8.7 19.3 8.45 19.3 8.25 M19.65 8.45 L19.8 8.95 19.85 9.0 19.85 9.15 19.9 9.2 19.95 9.4 19.95 9.45 20.0 9.7 20.0 9.8 20.05 10.15 M22.45 14.6 L22.0 14.9 22.0 14.95 M22.3 16.25 L22.35 16.2 22.55 15.45 M18.6 9.85 L18.6 9.8 18.65 9.8 18.7 9.7 18.75 9.65 18.8 9.65 18.8 9.55 18.95 9.4 19.05 9.25 19.1 9.15 19.1 9.1 19.15 9.05 19.15 9.0 19.2 8.9 M18.0 9.55 L17.95 9.45 M8.75 14.35 L8.7 14.35" fill="none" stroke="#5e1e1c" stroke-linecap="round" stroke-linejoin="round" stroke-width="0.1"/>
      <path d="M20.2 20.9 L20.55 21.3 20.6 21.35 20.7 21.55" fill="none" stroke="#612220" stroke-linecap="round" stroke-linejoin="round" stroke-width="0.1"/>
      <path d="M15.1 7.05 L15.8 7.05 Q9.15 12.3 10.1 21.55 L9.1 20.7 8.95 20.55 Q6.65 18.25 6.65 15.0 6.65 11.8 9.0 9.45 L9.1 9.35 Q11.5 7.05 15.1 7.05" fill="#ffffff" fill-opacity="0.2" fill-rule="evenodd" stroke="none"/>
      <path d="M11.65 9.9 L10.6 11.6 9.35 12.95 Q8.8 12.85 8.75 12.55 L8.75 12.2 Q9.05 10.6 10.5 9.5 11.05 9.0 11.45 9.1 11.85 9.2 11.65 9.9 M9.05 13.7 Q9.9 13.8 9.75 14.55 L9.4 15.05 8.75 15.3 Q8.2 15.2 8.05 14.8 L8.15 14.4 Q8.25 13.6 9.05 13.7" fill="#ffffff" fill-rule="evenodd" stroke="none"/>
      <path d="M11.65 9.9 L10.6 11.6 9.35 12.95 Q8.8 12.85 8.75 12.55 L8.75 12.2 Q9.05 10.6 10.5 9.5 11.05 9.0 11.45 9.1 11.85 9.2 11.65 9.9 M9.05 13.7 Q9.9 13.8 9.75 14.55 L9.4 15.05 8.75 15.3 Q8.2 15.2 8.05 14.8 L8.15 14.4 Q8.25 13.6 9.05 13.7" fill="#ffffff" fill-rule="evenodd" stroke="none"/>
    </g>
  </defs>
</svg>
