<?xml version="1.0" encoding="UTF-8" standalone="no"?>
<svg xmlns:ffdec="https://www.free-decompiler.com/flash" xmlns:xlink="http://www.w3.org/1999/xlink" ffdec:objectType="frame" height="30.0px" width="30.0px" xmlns="http://www.w3.org/2000/svg">
  <g transform="matrix(1.0, 0.0, 0.0, 1.0, 0.0, 0.0)">
    <use ffdec:characterId="1" height="30.0" transform="matrix(1.0, 0.0, 0.0, 1.0, 0.0, 0.0)" width="30.0" xlink:href="#shape0"/>
  </g>
  <defs>
    <g id="shape0" transform="matrix(1.0, 0.0, 0.0, 1.0, 0.0, 0.0)">
      <path d="M0.0 0.0 L30.0 0.0 30.0 30.0 0.0 30.0 0.0 0.0" fill="#33cc66" fill-opacity="0.0" fill-rule="evenodd" stroke="none"/>
      <path d="M26.0 4.5 L23.0 9.8 Q24.5 11.8 24.8 14.25 L30.0 15.1 29.9 15.15 24.8 16.4 Q24.5 19.25 22.55 21.4 L26.1 25.85 21.15 22.7 Q18.9 24.4 16.15 24.65 L15.05 29.9 15.05 29.95 13.85 24.65 Q11.3 24.35 9.3 22.9 L4.7 25.85 4.65 25.85 7.55 21.2 Q5.6 18.85 5.45 15.85 L0.05 15.0 5.55 13.85 Q6.05 10.95 8.25 8.75 L8.3 8.7 8.3 8.65 4.7 4.35 9.8 7.45 Q11.7 6.3 13.9 6.1 L15.05 0.05 16.9 6.15 Q19.25 6.5 21.15 7.95 L21.25 8.05 Q23.65 6.25 26.0 4.4 L26.0 4.5 M23.75 15.35 Q23.75 12.0 21.15 9.55 18.65 7.25 15.2 7.25 11.7 7.25 9.2 9.55 L9.05 9.7 Q6.75 12.1 6.75 15.35 6.75 18.65 9.05 21.0 L9.2 21.15 Q11.7 23.5 15.2 23.5 18.75 23.5 21.5 20.85 23.75 18.5 23.75 15.35" fill="#fef9ff" fill-rule="evenodd" stroke="none"/>
      <path d="M30.0 15.1 L24.8 14.25 Q24.5 11.8 23.0 9.8 L26.0 4.5 25.35 11.3 30.0 15.05 30.0 15.1 M26.0 4.4 Q23.65 6.25 21.25 8.05 L21.15 7.95 Q19.25 6.5 16.9 6.15 L15.05 0.05 13.9 6.1 Q11.7 6.3 9.8 7.45 L4.7 4.35 8.3 8.65 8.3 8.7 8.25 8.7 8.25 8.75 Q6.05 10.95 5.55 13.85 L0.05 15.0 5.45 15.85 Q5.6 18.85 7.55 21.2 L4.65 25.85 4.55 25.85 4.55 25.65 5.05 19.3 0.05 15.0 0.0 14.95 5.15 11.05 4.65 4.3 10.95 5.1 15.0 0.0 15.05 0.05 19.2 5.15 26.0 4.3 26.0 4.4 M4.7 25.85 L9.3 22.9 Q11.3 24.35 13.85 24.65 L15.05 29.95 15.0 30.0 11.05 25.4 4.7 25.85 M15.05 29.9 L16.15 24.65 Q18.9 24.4 21.15 22.7 L26.1 25.85 22.55 21.4 Q24.5 19.25 24.8 16.4 L29.9 15.15 25.35 19.15 26.1 25.85 26.1 25.9 18.95 25.4 15.05 29.9" fill="#a90408" fill-rule="evenodd" stroke="none"/>
      <path d="M23.75 15.35 Q23.75 18.5 21.5 20.85 18.75 23.5 15.2 23.5 11.7 23.5 9.2 21.15 L9.05 21.0 Q6.75 18.65 6.75 15.35 6.75 12.1 9.05 9.7 L9.2 9.55 Q11.7 7.25 15.2 7.25 18.65 7.25 21.15 9.55 23.75 12.0 23.75 15.35" fill="#490009" fill-rule="evenodd" stroke="none"/>
      <path d="M15.15 7.05 L15.85 7.05 Q9.15 12.3 10.15 21.55 L9.1 20.7 8.95 20.55 Q6.65 18.25 6.65 15.0 6.65 11.8 9.0 9.45 L9.1 9.35 Q11.55 7.05 15.15 7.05" fill="#ffffff" fill-opacity="0.2" fill-rule="evenodd" stroke="none"/>
      <path d="M11.7 9.9 L10.6 11.6 9.4 12.95 8.75 12.55 8.75 12.2 Q9.05 10.6 10.5 9.5 11.1 9.0 11.45 9.1 11.85 9.2 11.7 9.9 M9.05 13.7 Q9.9 13.8 9.75 14.55 L9.45 15.05 8.75 15.3 Q8.2 15.2 8.1 14.8 L8.2 14.4 Q8.25 13.6 9.05 13.7" fill="#ffffff" fill-rule="evenodd" stroke="none"/>
      <path d="M20.1 8.7 L21.15 9.55 21.55 9.9 21.45 10.55 21.45 11.4 21.45 12.25 21.3 12.45 19.9 12.85 19.9 12.75 19.85 12.75 19.9 12.75 19.9 12.85 20.2 13.9 20.35 15.9 20.15 16.85 19.75 17.75 19.65 17.8 19.5 17.9 19.5 17.95 19.25 18.05 18.85 18.1 Q18.4 18.2 18.1 17.9 L18.05 17.75 17.65 17.15 17.35 16.75 16.25 15.7 15.35 14.8 15.15 14.55 15.4 14.1 15.8 13.55 16.0 13.25 15.9 13.2 Q15.55 13.2 14.9 13.95 L14.85 14.05 14.7 13.7 Q14.6 13.35 14.65 12.35 14.7 11.4 15.35 10.75 16.0 10.15 16.55 9.95 17.45 10.2 18.15 10.7 L18.5 10.95 Q18.5 10.15 18.75 9.8 L19.8 8.9 20.1 8.7 M18.95 11.35 L18.5 10.95 18.95 11.35 19.5 12.05 19.75 12.45 19.85 12.7 19.85 12.75 20.55 12.2 20.7 12.15 20.7 9.95 18.95 11.35 M10.85 8.35 L11.0 8.35 11.4 8.2 11.4 8.15 12.8 9.2 13.55 10.0 13.6 10.2 13.55 11.0 13.5 11.25 13.4 11.0 13.25 10.7 12.75 10.3 Q12.15 9.9 11.5 9.75 L11.55 11.25 11.65 11.6 11.65 11.75 12.95 12.45 12.25 12.45 11.9 12.4 11.35 12.3 10.9 12.25 10.8 12.2 10.15 11.85 9.5 10.65 9.05 9.7 9.2 9.55 10.85 8.35 M19.05 12.7 L19.0 12.65 18.95 12.65 18.9 12.6 18.7 12.55 Q18.5 12.55 18.45 12.75 L18.5 12.9 18.85 13.65 19.15 14.85 19.15 15.25 19.15 15.95 19.15 16.05 19.1 16.55 19.2 16.6 19.4 16.4 19.5 16.2 19.5 16.15 19.75 15.35 19.75 14.75 19.75 14.5 19.5 13.55 19.45 13.5 19.35 13.25 19.3 13.15 19.3 13.1 19.15 12.85 19.05 12.7 M18.35 12.9 L18.35 12.95 18.4 12.95 18.35 12.9 M12.95 14.6 L12.9 14.6 12.85 15.2 12.8 15.25 Q12.7 15.25 12.65 15.35 L12.55 15.65 12.65 16.0 12.7 16.2 12.8 16.3 13.05 16.35 13.15 16.25 13.15 16.35 13.5 16.8 14.3 16.8 14.3 16.95 14.25 16.95 13.95 17.05 13.9 17.1 13.45 17.2 12.8 16.8 12.6 16.5 12.45 16.15 12.25 15.35 12.25 15.25 Q12.25 14.5 12.65 14.5 L12.95 14.6 M19.05 16.95 L19.0 16.95 18.95 16.95 18.95 17.0 18.85 17.0 18.75 17.05 18.65 17.25 18.75 17.55 18.85 17.6 19.05 17.4 19.1 17.35 19.15 17.15 19.15 17.0 19.05 16.95" fill="#710100" fill-rule="evenodd" stroke="none"/>
      <path d="M21.45 12.25 L21.45 11.4 21.45 10.55 21.55 9.9 21.85 10.25 21.65 12.2 21.45 12.25 M13.5 11.25 L13.55 11.0 13.6 10.2 13.55 10.0 12.8 9.2 11.4 8.15 11.4 8.2 11.0 8.35 10.85 8.35 Q11.4 8.05 11.95 7.85 13.3 8.75 14.05 9.85 L14.0 9.9 13.7 11.85 13.5 11.25 M19.05 12.7 L19.15 12.85 19.3 13.1 19.3 13.15 19.35 13.25 19.45 13.5 19.5 13.55 19.75 14.5 19.75 14.75 19.75 15.35 19.5 16.15 19.5 16.2 19.4 16.4 19.2 16.6 19.1 16.55 19.15 16.05 19.15 15.95 19.15 15.25 19.15 14.85 18.85 13.65 18.5 12.9 18.45 12.75 Q18.5 12.55 18.7 12.55 L18.9 12.6 18.95 12.65 19.0 12.65 19.05 12.7 M12.85 15.2 L13.0 16.05 13.15 16.25 13.05 16.35 12.8 16.3 12.7 16.2 12.65 16.0 12.55 15.65 12.65 15.35 Q12.7 15.25 12.8 15.25 L12.85 15.2 M19.05 16.95 L19.15 17.0 19.15 17.15 19.1 17.35 19.05 17.4 18.85 17.6 18.75 17.55 18.65 17.25 18.75 17.05 18.85 17.0 18.95 17.0 18.95 16.95 19.0 16.95 19.05 16.95" fill="#d13f32" fill-rule="evenodd" stroke="none"/>
      <path d="M20.55 12.2 L19.85 12.75 19.85 12.7 20.1 12.25 20.5 11.4 20.55 12.2 M23.05 12.1 L23.45 13.25 21.85 14.7 21.55 13.0 21.85 12.7 22.2 12.45 22.8 12.2 23.05 12.1 M20.9 19.1 L21.4 19.75 21.7 20.7 21.5 20.85 21.35 21.0 20.35 19.45 20.45 19.3 20.9 19.1 M17.45 20.75 L18.6 21.7 18.65 22.25 18.65 22.8 Q17.05 23.5 15.2 23.5 L13.9 23.4 Q13.85 22.6 14.75 22.65 L16.0 22.5 16.85 21.7 17.25 21.0 17.35 20.9 17.45 20.75 M13.5 11.25 L13.7 11.85 13.95 12.9 13.5 12.05 Q13.15 11.15 12.6 10.55 L12.65 10.55 13.4 11.0 13.5 11.25 M7.2 12.65 L7.7 13.55 7.0 13.3 7.2 12.65 M7.7 16.6 L7.95 17.35 8.0 18.6 7.55 18.95 7.0 17.45 7.7 16.6 M16.1 22.05 L16.0 22.0 15.45 21.35 Q15.1 20.75 15.1 20.35 L15.1 20.3 Q15.1 19.9 15.45 19.7 L15.95 19.95 16.15 19.85 16.6 19.6 16.7 20.25 16.7 20.5 16.8 21.0 16.5 21.6 16.3 21.8 16.1 22.05 M14.85 14.05 L14.9 13.95 Q15.55 13.2 15.9 13.2 L16.0 13.25 15.8 13.55 15.4 14.1 15.15 14.55 15.1 14.55 14.9 14.2 14.85 14.05" fill="#ee0b02" fill-rule="evenodd" stroke="none"/>
      <path d="M20.7 9.95 L20.7 12.15 20.55 12.2 20.5 11.4 20.1 12.25 19.85 12.7 19.75 12.45 Q20.45 11.4 20.7 9.95 M21.65 12.2 L22.85 11.75 23.05 12.1 22.8 12.2 22.2 12.45 21.85 12.7 21.55 13.0 21.45 12.25 21.65 12.2 M18.6 21.7 L19.1 22.25 19.3 22.5 18.65 22.8 18.65 22.25 18.6 21.7 M11.5 9.75 Q12.15 9.9 12.75 10.3 L13.25 10.7 13.4 11.0 12.65 10.55 12.6 10.55 Q13.15 11.15 13.5 12.05 L12.4 10.55 11.5 9.75 M16.2 22.05 L16.1 22.05 16.3 21.8 16.5 21.6 16.8 21.0 16.7 20.5 16.7 20.25 16.6 19.6 16.75 19.5 16.95 19.35 17.2 20.65 17.35 20.9 17.25 21.0 16.3 22.1 16.2 22.05" fill="#ff8f79" fill-rule="evenodd" stroke="none"/>
      <path d="M23.35 14.9 L23.1 15.15 20.15 16.85 20.35 15.9 21.1 15.3 20.35 15.9 20.2 13.9 20.75 13.2 21.0 13.8 21.15 14.8 21.1 15.3 21.85 14.7 23.35 14.9 M9.45 14.25 L9.45 14.2 9.35 13.65 9.45 13.3 9.55 13.1 10.45 13.6 10.4 14.1 10.4 14.65 9.45 14.25 10.4 14.65 10.55 15.65 6.75 15.3 6.85 14.0 Q7.25 13.8 7.7 13.55 L9.45 14.25 M16.75 19.5 L16.8 19.3 16.8 19.25 16.85 18.8 16.7 17.85 16.45 17.1 15.75 16.35 15.55 16.35 15.1 15.95 14.9 15.8 14.0 15.55 14.15 16.35 14.15 16.4 14.4 16.85 14.45 16.9 14.5 16.95 14.45 17.0 14.45 17.05 14.45 17.25 14.4 17.65 14.55 18.05 14.9 18.6 15.0 18.75 15.6 19.4 15.65 19.45 15.75 19.55 16.15 19.85 15.95 19.95 15.45 19.7 15.15 19.55 Q14.45 19.1 13.9 18.45 L13.75 18.3 13.65 18.15 14.2 17.15 14.25 16.95 14.3 16.95 14.3 16.8 13.5 16.8 13.15 16.35 13.15 16.25 13.0 16.05 12.85 15.2 12.9 14.6 12.95 14.6 13.55 14.75 14.15 15.0 14.2 15.0 14.4 15.1 14.45 15.1 14.85 15.35 15.05 15.45 Q16.45 16.25 17.35 17.5 L17.45 18.05 17.45 19.0 16.95 19.35 16.75 19.5" fill="#c3a5a7" fill-rule="evenodd" stroke="none"/>
      <path d="M18.95 11.35 L20.7 9.95 Q20.45 11.4 19.75 12.45 L19.5 12.05 18.95 11.35 M23.45 13.25 L23.7 14.5 23.35 14.9 21.85 14.7 23.45 13.25 M20.2 18.3 L20.9 19.1 20.45 19.3 20.35 19.45 21.35 21.0 20.75 21.55 20.4 21.4 19.8 20.7 Q19.4 20.1 19.4 19.4 19.4 19.0 19.65 18.65 L19.7 18.6 Q19.9 18.3 20.15 18.3 L20.2 18.3 M12.95 12.45 L11.65 11.75 11.65 11.6 11.55 11.25 11.5 9.75 12.4 10.55 13.5 12.05 13.95 12.9 14.0 13.0 12.95 12.45 M7.0 13.3 L7.7 13.55 Q7.25 13.8 6.85 14.0 L7.0 13.3 M8.0 18.6 L7.95 17.35 7.7 16.6 7.95 16.3 8.7 16.2 8.8 16.75 8.9 17.45 8.85 18.05 Q8.65 19.0 7.95 19.65 L7.55 18.95 8.0 18.6 8.85 18.05 8.0 18.6 M9.7 21.6 Q10.75 20.95 11.7 20.95 L13.65 21.55 15.85 22.2 16.2 22.1 16.2 22.05 16.3 22.1 17.25 21.0 16.85 21.7 16.0 22.5 14.75 22.65 Q13.85 22.6 13.9 23.4 12.7 23.25 11.6 22.8 L11.25 22.25 Q10.75 21.55 10.25 21.9 L10.15 21.95 9.7 21.6 M16.0 22.0 L14.5 21.35 14.25 20.9 14.2 20.8 14.2 20.7 14.3 20.2 Q14.55 19.8 15.15 19.55 L15.45 19.7 Q15.1 19.9 15.1 20.3 L15.1 20.35 Q15.1 20.75 15.45 21.35 L16.0 22.0 M14.85 14.05 L14.9 14.2 15.1 14.55 15.15 14.55 14.85 15.35 14.45 15.1 14.4 15.1 14.2 15.0 14.15 15.0 14.85 14.05 M17.2 20.65 L17.45 20.75 17.35 20.9 17.2 20.65 M19.7 18.6 L20.35 19.45 19.7 18.6" fill="#a90408" fill-rule="evenodd" stroke="none"/>
      <path d="M21.3 12.45 L21.45 12.25 21.55 13.0 21.85 14.7 21.1 15.3 21.15 14.8 21.0 13.8 20.75 13.2 21.3 12.45 M9.55 13.1 L9.45 13.3 9.35 13.65 9.45 14.2 9.45 14.25 7.7 13.55 7.2 12.65 7.5 11.9 9.55 13.1 M15.55 16.35 L15.75 16.35 16.45 17.1 16.7 17.85 16.85 18.8 16.8 19.25 16.8 19.3 16.75 19.5 16.6 19.6 16.15 19.85 15.75 19.55 15.65 19.45 15.6 19.4 15.0 18.75 14.9 18.6 14.55 18.05 14.4 17.65 14.45 17.25 14.45 17.05 14.45 17.0 14.5 16.95 14.45 16.9 14.4 16.85 14.15 16.4 14.15 16.35 14.35 16.35 14.55 16.35 14.55 16.4 14.55 16.45 14.55 16.5 14.6 16.8 14.75 17.05 14.9 17.15 15.4 17.2 16.0 17.05 15.55 16.35 M16.05 17.3 L16.0 17.05 16.05 17.3 M15.15 16.15 L15.15 16.2 15.1 16.25 15.05 16.3 15.0 16.3 14.95 16.25 14.9 16.2 15.0 16.1 15.15 16.15" fill="#fef9ff" fill-rule="evenodd" stroke="none"/>
      <path d="M20.1 8.7 L19.8 8.9 18.75 9.8 Q18.5 10.15 18.5 10.95 L18.15 10.7 17.8 9.7 19.5 8.35 20.1 8.7 M19.75 17.75 L19.7 17.8 19.5 18.15 19.4 18.25 18.35 19.2 17.75 19.55 17.45 20.75 17.2 20.65 16.95 19.35 17.45 19.0 17.45 18.05 17.35 17.5 Q16.45 16.25 15.05 15.45 L14.85 15.35 15.15 14.55 15.35 14.8 16.25 15.7 17.35 16.75 17.65 17.15 18.05 17.75 18.1 17.9 Q18.4 18.2 18.85 18.1 L19.25 18.05 19.5 17.95 19.5 17.9 19.65 17.8 19.75 17.75 M13.7 11.85 L14.0 9.9 15.55 9.75 16.55 9.95 Q16.0 10.15 15.35 10.75 14.7 11.4 14.65 12.35 14.6 13.35 14.7 13.7 L14.85 14.05 14.15 15.0 13.55 14.75 12.95 14.6 12.65 14.5 Q12.25 14.5 12.25 15.25 L12.25 15.35 12.45 16.15 12.6 16.5 12.8 16.8 13.45 17.2 13.9 17.1 13.95 17.05 14.25 16.95 14.2 17.15 13.65 18.15 13.75 18.3 13.55 18.2 13.4 18.35 13.0 18.15 11.9 17.15 11.8 17.05 11.45 16.35 11.1 15.3 11.15 15.3 11.55 15.6 11.2 14.8 11.1 14.45 11.1 14.0 11.1 13.8 Q11.1 13.15 11.25 12.55 L10.75 12.6 10.3 12.6 10.0 12.4 9.65 12.15 9.15 11.15 8.7 10.15 9.05 9.7 9.5 10.65 10.15 11.85 10.8 12.2 10.9 12.25 11.35 12.3 11.9 12.4 12.25 12.45 12.95 12.45 14.0 13.0 13.95 12.9 13.7 11.85 M10.8 18.75 L11.55 17.5 12.8 18.3 12.95 18.35 12.55 19.95 12.25 19.9 Q11.5 20.15 10.7 20.6 L10.75 20.55 10.7 20.55 10.55 20.7 10.1 21.0 10.0 21.0 10.05 20.95 10.35 20.6 10.65 20.15 10.55 20.15 10.1 20.3 10.8 18.75 M13.65 18.15 L13.55 18.2 13.65 18.15 M11.25 12.55 L12.25 12.45 11.25 12.55 M17.75 19.55 L17.3 19.75 17.45 19.0 17.3 19.75 17.75 19.55" fill="#490009" fill-rule="evenodd" stroke="none"/>
      <path d="M8.4 10.5 L8.7 10.15 9.15 11.15 9.65 12.15 10.0 12.4 10.3 12.6 9.35 12.65 8.4 10.5 M10.4 14.65 L10.4 14.1 10.45 13.6 10.75 12.6 11.25 12.55 Q11.1 13.15 11.1 13.8 L11.1 14.0 11.1 14.45 11.2 14.8 11.55 15.6 11.15 15.3 11.1 15.3 11.45 16.35 11.8 17.05 11.9 17.15 13.0 18.15 13.4 18.35 13.3 18.45 12.95 18.35 12.8 18.3 11.55 17.5 10.95 16.65 10.65 15.95 10.55 15.65 10.4 14.65 M9.55 20.25 L9.7 20.2 10.8 18.75 10.1 20.3 10.55 20.15 10.65 20.15 10.35 20.6 10.05 20.95 10.0 21.0 9.5 21.4 9.2 21.15 9.15 21.1 9.55 20.25 M10.55 20.7 L10.7 20.55 10.75 20.55 10.7 20.6 10.55 20.7" fill="#662e37" fill-rule="evenodd" stroke="none"/>
      <path d="M19.7 17.8 L20.2 18.3 20.15 18.3 Q19.9 18.3 19.7 18.6 L19.65 18.65 Q19.4 19.0 19.4 19.4 19.4 20.1 19.8 20.7 L20.4 21.4 18.75 20.65 18.35 19.2 19.4 18.25 19.5 18.15 19.7 17.8 M8.85 18.05 L8.9 17.45 8.8 16.75 8.7 16.2 10.65 15.95 10.95 16.65 11.55 17.5 10.8 18.75 9.7 20.2 9.55 20.25 8.6 20.55 7.95 19.65 Q8.65 19.0 8.85 18.05 9.85 17.3 10.95 16.65 9.85 17.3 8.85 18.05 M9.5 21.4 L10.0 21.0 10.1 21.0 10.55 20.7 10.7 20.6 Q11.5 20.15 12.25 19.9 L12.55 19.95 12.95 18.35 13.3 18.45 13.4 18.35 13.55 18.2 13.75 18.3 13.9 18.45 Q14.45 19.1 15.15 19.55 14.55 19.8 14.3 20.2 L14.2 20.7 14.2 20.8 14.25 20.9 14.5 21.35 16.0 22.0 16.1 22.05 16.2 22.05 16.2 22.1 15.85 22.2 13.65 21.55 11.7 20.95 Q10.75 20.95 9.7 21.6 L9.5 21.4 M12.55 19.95 L12.55 20.0 Q13.35 20.75 14.4 21.3 L14.5 21.35 14.4 21.3 Q13.35 20.75 12.55 20.0 L12.55 19.95 M11.6 22.8 L10.15 21.95 10.25 21.9 Q10.75 21.55 11.25 22.25 L11.6 22.8 M19.4 18.25 L19.7 18.6 19.4 18.25" fill="#720306" fill-rule="evenodd" stroke="none"/>
      <path d="M15.55 16.35 L16.0 17.05 15.4 17.2 15.4 17.15 15.35 16.95 15.1 16.8 14.95 16.55 14.95 16.5 14.95 16.45 14.9 16.4 14.85 16.4 14.7 16.35 14.55 16.4 14.55 16.35 14.6 16.25 14.9 15.8 15.1 15.95 15.55 16.35 M15.15 16.15 L15.0 16.1 14.9 16.2 14.95 16.25 15.0 16.3 15.05 16.3 15.1 16.25 15.15 16.2 15.15 16.15" fill="#e58d08" fill-rule="evenodd" stroke="none"/>
      <path d="M14.55 16.4 L14.7 16.35 14.85 16.4 14.9 16.4 14.95 16.45 14.95 16.5 14.95 16.55 15.1 16.8 15.35 16.95 15.4 17.15 15.4 17.2 14.9 17.15 14.75 17.05 14.6 16.8 14.55 16.5 14.55 16.45 14.55 16.4" fill="#ffdd43" fill-rule="evenodd" stroke="none"/>
      <path d="M14.15 16.35 L14.0 15.55 14.9 15.8 14.6 16.25 14.55 16.35 14.35 16.35 14.15 16.35" fill="#d0f4fd" fill-rule="evenodd" stroke="none"/>
      <path d="M18.5 10.95 L18.95 11.35 20.7 9.95 20.7 12.15 20.55 12.2 19.85 12.75 19.9 12.75 19.9 12.85 21.3 12.45 21.45 12.25 21.65 12.2 22.85 11.75 M21.85 10.25 L21.65 12.2 M23.7 14.5 L23.35 14.9 23.1 15.15 20.15 16.85 19.75 17.75 19.7 17.8 20.2 18.3 20.9 19.1 21.4 19.75 21.7 20.7 M20.75 21.55 L20.4 21.4 18.75 20.65 18.35 19.2 17.75 19.55 17.45 20.75 18.6 21.7 19.1 22.25 19.3 22.5 19.45 22.7 M19.85 12.7 L19.85 12.75 M21.55 13.0 L21.85 14.7 23.45 13.25 M21.85 14.7 L21.1 15.3 20.35 15.9 20.15 16.85 M21.3 12.45 L20.75 13.2 20.2 13.9 20.35 15.9 M23.35 14.9 L21.85 14.7 M20.35 19.45 L21.35 21.0 M21.55 13.0 L21.45 12.25 M13.5 11.25 L13.7 11.85 14.0 9.9 14.05 9.85 Q13.3 8.75 11.95 7.85 M12.25 12.45 L12.95 12.45 11.65 11.75 11.65 11.6 11.55 11.25 11.5 9.75 Q12.15 9.9 12.75 10.3 L13.25 10.7 13.4 11.0 13.5 11.25 M19.5 8.35 L17.8 9.7 18.15 10.7 18.5 10.95 M16.55 9.95 L15.55 9.75 14.0 9.9 M16.55 9.95 Q17.45 10.2 18.15 10.7 M18.95 11.35 L19.5 12.05 19.75 12.45 19.85 12.7 M8.4 10.5 L9.35 12.65 10.3 12.6 10.75 12.6 10.45 13.6 9.55 13.1 7.5 11.9 M9.45 14.25 L10.4 14.65 10.4 14.1 10.45 13.6 M7.2 12.65 L7.7 13.55 9.45 14.25 M6.75 15.3 L10.55 15.65 10.4 14.65 M7.0 13.3 L7.7 13.55 Q7.25 13.8 6.85 14.0 M7.7 16.6 L7.0 17.45 M7.55 18.95 L8.0 18.6 8.85 18.05 Q9.85 17.3 10.95 16.65 L10.65 15.95 8.7 16.2 7.95 16.3 7.7 16.6 M9.55 20.25 L9.7 20.2 10.8 18.75 11.55 17.5 10.95 16.65 M8.6 20.55 L9.55 20.25 9.15 21.1 M9.5 21.4 L10.0 21.0 10.1 21.0 10.55 20.7 10.7 20.6 Q11.5 20.15 12.25 19.9 L12.55 19.95 12.95 18.35 12.8 18.3 11.55 17.5 M16.2 22.05 L16.1 22.05 16.0 22.0 14.5 21.35 14.4 21.3 Q13.35 20.75 12.55 20.0 L12.55 19.95 M19.9 12.85 L20.2 13.9 M15.15 14.55 L15.4 14.1 15.8 13.55 16.0 13.25 15.9 13.2 Q15.55 13.2 14.9 13.95 L14.85 14.05 14.15 15.0 13.55 14.75 12.95 14.6 12.9 14.6 12.85 15.2 13.0 16.05 13.15 16.25 13.15 16.35 13.5 16.8 14.3 16.8 14.3 16.95 14.25 16.95 14.2 17.15 13.65 18.15 13.75 18.3 13.9 18.45 Q14.45 19.1 15.15 19.55 L15.45 19.7 15.95 19.95 16.15 19.85 16.6 19.6 16.75 19.5 16.95 19.35 17.2 20.65 17.45 20.75 M15.55 16.35 L16.0 17.05 16.05 17.3 M15.4 17.2 L16.0 17.05 M14.9 17.15 L15.4 17.2 M16.95 19.35 L17.45 19.0 17.45 18.05 17.35 17.5 Q16.45 16.25 15.05 15.45 L14.85 15.35 14.45 15.1 14.4 15.1 14.2 15.0 14.15 15.0 M14.15 16.4 L14.15 16.35 14.0 15.55 14.9 15.8 15.1 15.95 15.55 16.35 M18.35 19.2 L19.4 18.25 19.5 18.15 19.7 17.8 M12.95 12.45 L14.0 13.0 13.95 12.9 13.7 11.85 M15.15 14.55 L14.85 15.35 M11.25 12.55 L10.75 12.6 M13.4 18.35 L13.55 18.2 13.65 18.15 M12.25 12.45 L11.25 12.55 M10.65 15.95 L10.55 15.65 M13.55 18.2 L13.75 18.3 M13.4 18.35 L13.3 18.45 12.95 18.35 M11.6 22.8 L11.25 22.25 Q10.75 21.55 10.25 21.9 M17.35 20.9 L17.25 21.0 16.3 22.1 16.2 22.05 M17.45 19.0 L17.3 19.75 17.75 19.55 M17.2 20.65 L17.35 20.9 M19.7 18.6 L19.4 18.25 M20.35 19.45 L19.7 18.6" fill="none" stroke="#370211" stroke-linecap="round" stroke-linejoin="round" stroke-width="0.1"/>
      <path d="M15.15 7.3 L15.85 7.3 Q9.15 12.55 10.15 21.8 L9.1 20.95 8.95 20.85 Q6.65 18.5 6.65 15.25 6.65 12.05 9.0 9.7 L9.1 9.6 Q11.55 7.3 15.15 7.3" fill="#ffffff" fill-opacity="0.2" fill-rule="evenodd" stroke="none"/>
      <path d="M11.7 9.9 L10.6 11.6 9.4 12.95 8.75 12.55 8.75 12.2 Q9.05 10.6 10.5 9.5 11.1 9.0 11.45 9.1 11.85 9.2 11.7 9.9 M9.05 13.7 Q9.9 13.8 9.75 14.55 L9.45 15.05 8.75 15.3 Q8.2 15.2 8.1 14.8 L8.2 14.4 Q8.25 13.6 9.05 13.7" fill="#ffffff" fill-rule="evenodd" stroke="none"/>
    </g>
  </defs>
</svg>
