<?xml version="1.0" encoding="UTF-8" standalone="no"?>
<svg xmlns:ffdec="https://www.free-decompiler.com/flash" xmlns:xlink="http://www.w3.org/1999/xlink" ffdec:objectType="frame" height="30.05px" width="30.15px" xmlns="http://www.w3.org/2000/svg">
  <g transform="matrix(1.0, 0.0, 0.0, 1.0, 0.0, 0.0)">
    <use ffdec:characterId="1" height="30.0" transform="matrix(1.0, 0.0, 0.0, 1.0, 0.0, 0.0)" width="30.0" xlink:href="#shape0"/>
    <use ffdec:characterId="3" height="30.0" transform="matrix(1.0, 0.0, 0.0, 1.0, 0.15, 0.05)" width="30.0" xlink:href="#sprite0"/>
  </g>
  <defs>
    <g id="shape0" transform="matrix(1.0, 0.0, 0.0, 1.0, 0.0, 0.0)">
      <path d="M0.0 0.0 L30.0 0.0 30.0 30.0 0.0 30.0 0.0 0.0" fill="#33cc66" fill-opacity="0.0" fill-rule="evenodd" stroke="none"/>
    </g>
    <g id="sprite0" transform="matrix(1.0, 0.0, 0.0, 1.0, 0.0, 0.0)">
      <use ffdec:characterId="2" height="30.0" transform="matrix(1.0, 0.0, 0.0, 1.0, 0.0, 0.0)" width="30.0" xlink:href="#shape1"/>
    </g>
    <g id="shape1" transform="matrix(1.0, 0.0, 0.0, 1.0, 0.0, 0.0)">
      <path d="M26.0 4.3 L26.0 4.35 25.95 4.35 26.0 4.3" fill="url(#gradient0)" fill-rule="evenodd" stroke="none"/>
      <path d="M26.0 4.3 L25.95 4.35 25.95 4.3 26.0 4.3" fill="url(#gradient1)" fill-rule="evenodd" stroke="none"/>
      <path d="M25.95 4.35 L26.0 4.35 22.95 9.75 Q24.5 11.75 24.8 14.2 L29.35 14.95 29.65 15.0 29.95 15.05 29.95 15.1 24.8 16.35 Q24.5 19.25 22.55 21.4 L26.0 25.8 21.15 22.7 Q18.95 24.45 16.1 24.7 L14.95 30.0 13.8 24.65 Q11.3 24.3 9.25 22.85 L4.55 25.8 4.55 25.75 4.8 25.35 7.45 21.15 Q5.55 18.8 5.45 15.8 L0.0 14.95 5.55 13.8 Q5.95 10.95 8.15 8.75 L8.3 8.65 4.6 4.3 9.85 7.45 Q11.65 6.3 13.85 6.1 L14.95 0.0 16.85 6.15 Q19.2 6.5 21.1 7.95 L21.2 8.05 25.95 4.35 M22.15 21.9 L22.1 21.85 22.1 21.9 22.15 21.9 M23.65 15.35 Q23.65 12.0 21.15 9.55 18.6 7.25 15.2 7.25 11.65 7.25 9.15 9.55 L9.05 9.7 Q6.65 12.1 6.65 15.35 6.65 18.65 9.0 21.0 L9.15 21.15 Q11.65 23.5 15.2 23.5 18.65 23.5 21.5 20.85 23.65 18.5 23.65 15.35" fill="#7fa9d3" fill-rule="evenodd" stroke="none"/>
      <path d="M26.0 4.35 L25.3 11.3 29.85 14.95 29.35 14.95 24.8 14.2 Q24.5 11.75 22.95 9.75 L26.0 4.35 M29.95 15.1 L25.25 19.15 26.05 25.8 26.0 25.8 26.05 25.85 26.05 25.9 19.0 25.4 14.95 30.0 11.05 25.4 4.55 25.8 9.25 22.85 Q11.3 24.3 13.8 24.65 L14.95 30.0 16.1 24.7 Q18.95 24.45 21.15 22.7 L26.0 25.8 22.55 21.4 Q24.5 19.25 24.8 16.35 L29.95 15.1 M4.5 25.65 L5.05 19.3 0.0 14.95 5.1 11.05 4.6 4.3 10.95 5.15 14.95 0.0 19.15 5.15 25.95 4.3 25.95 4.35 21.2 8.05 21.1 7.95 Q19.2 6.5 16.85 6.15 L14.95 0.0 13.85 6.1 Q11.65 6.3 9.85 7.45 L4.6 4.3 8.3 8.65 8.15 8.75 Q5.95 10.95 5.55 13.8 L0.0 14.95 5.45 15.8 Q5.55 18.8 7.45 21.15 L4.8 25.35 4.5 25.65" fill="#39406e" fill-rule="evenodd" stroke="none"/>
      <path d="M29.85 14.95 L29.9 15.0 29.65 15.0 29.35 14.95 29.85 14.95" fill="url(#gradient2)" fill-rule="evenodd" stroke="none"/>
      <path d="M29.9 15.0 L29.95 15.05 30.0 15.05 29.95 15.1 29.95 15.05 29.65 15.0 29.9 15.0 M26.05 25.8 L26.05 25.85 26.0 25.8 26.05 25.8" fill="url(#gradient3)" fill-rule="evenodd" stroke="none"/>
      <path d="M22.15 21.9 L22.1 21.9 22.1 21.85 22.15 21.9" fill="url(#gradient4)" fill-rule="evenodd" stroke="none"/>
      <path d="M23.65 15.35 Q23.65 18.5 21.5 20.85 18.65 23.5 15.2 23.5 11.65 23.5 9.15 21.15 L9.0 21.0 Q6.65 18.65 6.65 15.35 6.65 12.1 9.05 9.7 L9.15 9.55 Q11.65 7.25 15.2 7.25 18.6 7.25 21.15 9.55 23.65 12.0 23.65 15.35" fill="#0a0b1f" fill-rule="evenodd" stroke="none"/>
      <path d="M4.55 25.8 L4.5 25.8 4.5 25.65 4.8 25.35 4.55 25.75 4.55 25.8" fill="url(#gradient5)" fill-rule="evenodd" stroke="none"/>
      <path d="M21.8 10.2 L22.05 10.55 22.05 10.9 21.9 10.85 21.7 10.75 21.75 10.4 21.8 10.2" fill="#880a0b" fill-rule="evenodd" stroke="none"/>
      <path d="M21.75 10.4 L21.7 10.75 21.65 11.35 21.65 11.4 21.1 11.9 20.05 11.3 20.85 10.35 21.25 9.85 21.65 10.35 21.75 10.4" fill="#5b5c6e" fill-rule="evenodd" stroke="none"/>
      <path d="M21.8 10.2 L21.75 10.4 21.65 10.35 21.25 9.85 21.05 9.6 20.9 9.4 20.95 9.4 21.15 9.55 21.8 10.2" fill="#595971" fill-rule="evenodd" stroke="none"/>
      <path d="M17.45 10.25 L18.55 10.15 20.3 9.95 20.9 9.4 21.05 9.6 21.25 9.85 20.85 10.35 20.05 11.3 19.5 11.05 19.1 10.9 17.7 10.35 17.45 10.25" fill="#5b5c70" fill-rule="evenodd" stroke="none"/>
      <path d="M20.4 12.25 L20.4 12.0 20.55 12.0 20.5 11.9 20.45 11.75 19.4 11.3 19.5 11.05 20.05 11.3 21.1 11.9 20.6 12.35 20.45 12.3 20.4 12.25" fill="#221e3f" fill-rule="evenodd" stroke="none"/>
      <path d="M19.4 11.3 L20.45 11.75 20.5 11.9 20.55 12.0 20.4 12.0 20.4 12.25 20.35 12.65 20.35 12.7 19.65 12.3 19.1 11.8 19.15 11.75 19.4 11.3 M20.0 11.9 L19.95 11.9 19.85 11.9 19.85 12.0 19.95 12.2 20.0 12.25 20.1 12.2 20.15 12.05 20.0 11.9" fill="#2f254a" fill-rule="evenodd" stroke="none"/>
      <path d="M20.4 12.25 L20.45 12.3 20.6 12.35 20.5 12.4 20.45 12.75 20.45 13.0 20.35 12.95 20.25 12.95 20.35 12.7 20.35 12.65 20.4 12.25" fill="#1d193e" fill-rule="evenodd" stroke="none"/>
      <path d="M20.6 12.35 L21.1 11.9 21.65 11.4 21.65 11.45 21.7 11.5 21.8 11.6 21.6 11.85 21.5 11.9 21.25 12.2 21.05 12.45 21.0 12.45 20.65 12.35 20.6 12.35" fill="#c71f1f" fill-rule="evenodd" stroke="none"/>
      <path d="M20.6 12.35 L20.65 12.35 21.0 12.45 21.05 12.45 21.0 12.5 20.95 12.55 20.4 13.5 20.45 13.0 20.45 12.75 20.5 12.4 20.6 12.35" fill="#fd3f01" fill-rule="evenodd" stroke="none"/>
      <path d="M21.05 12.45 L21.25 12.2 21.5 11.9 21.6 11.85 21.65 12.05 21.6 12.1 21.2 12.55 20.9 12.9 20.65 13.25 20.4 13.5 20.95 12.55 21.0 12.5 21.05 12.45" fill="#902421" fill-rule="evenodd" stroke="none"/>
      <path d="M22.3 10.9 L22.5 11.2 22.45 11.25 22.3 11.3 22.3 11.15 22.3 11.1 22.3 11.0 22.3 10.9" fill="#2c2b4a" fill-rule="evenodd" stroke="none"/>
      <path d="M22.5 11.2 L22.9 11.9 22.8 11.9 22.25 11.9 22.2 11.9 22.05 11.9 22.0 12.0 21.95 11.9 21.95 11.85 22.45 11.25 22.5 11.2" fill="#19162b" fill-rule="evenodd" stroke="none"/>
      <path d="M22.3 11.3 L22.45 11.25 21.95 11.85 21.9 11.85 21.65 12.15 21.65 12.2 21.6 12.25 21.6 12.1 21.65 12.05 21.65 12.0 21.9 11.75 22.3 11.3" fill="#3f3571" fill-rule="evenodd" stroke="none"/>
      <path d="M22.05 10.9 L22.05 10.55 22.3 10.9 22.3 11.0 22.3 11.1 22.05 11.05 22.05 10.9" fill="#6f0706" fill-rule="evenodd" stroke="none"/>
      <path d="M21.6 11.85 L21.8 11.6 22.0 11.35 22.05 11.05 22.3 11.1 22.3 11.15 22.3 11.3 21.9 11.75 21.65 12.0 21.65 12.05 21.6 11.85" fill="#720906" fill-rule="evenodd" stroke="none"/>
      <path d="M21.7 10.75 L21.9 10.85 22.05 10.9 22.05 11.05 22.0 11.35 21.8 11.6 21.7 11.5 21.65 11.45 21.65 11.4 21.65 11.35 21.7 10.75" fill="#9c110c" fill-rule="evenodd" stroke="none"/>
      <path d="M21.95 11.85 L21.95 11.9 22.0 12.0 21.75 12.45 21.65 12.6 21.45 13.0 21.3 13.3 21.25 13.3 21.2 13.05 21.6 12.25 21.65 12.2 21.65 12.15 21.9 11.85 21.95 11.85" fill="#1a1130" fill-rule="evenodd" stroke="none"/>
      <path d="M21.6 12.1 L21.6 12.25 21.1 12.85 21.05 12.95 20.9 13.05 20.9 12.9 21.2 12.55 21.6 12.1" fill="#46396f" fill-rule="evenodd" stroke="none"/>
      <path d="M22.0 12.0 L22.05 11.9 22.2 11.9 22.25 12.05 22.3 12.15 22.3 12.2 22.15 12.2 22.1 12.25 21.7 13.0 21.65 13.15 21.55 13.25 21.5 13.05 21.45 13.0 21.65 12.6 21.75 12.45 22.0 12.0" fill="#ed8911" fill-rule="evenodd" stroke="none"/>
      <path d="M22.85 12.2 L23.0 12.5 23.05 12.65 23.05 12.9 22.85 13.15 22.9 13.65 22.9 13.7 22.9 13.8 22.85 13.85 22.85 13.75 22.75 13.6 22.7 13.4 22.65 13.15 22.6 13.15 22.45 13.05 22.5 12.9 22.7 13.05 22.9 12.75 22.85 12.25 22.85 12.2 M22.15 12.2 L22.3 12.2 22.35 12.85 22.35 13.0 22.3 13.0 22.3 12.9 22.25 12.85 22.15 12.35 22.15 12.2" fill="#d94f04" fill-rule="evenodd" stroke="none"/>
      <path d="M22.15 12.2 L22.15 12.35 22.25 12.85 22.3 12.9 22.05 13.15 21.9 13.1 21.7 13.0 22.1 12.25 22.15 12.2" fill="#d54e00" fill-rule="evenodd" stroke="none"/>
      <path d="M22.9 11.9 L23.15 12.5 23.05 12.5 23.0 12.5 22.85 12.2 22.3 12.2 22.3 12.15 22.25 12.05 22.2 11.9 22.25 11.9 22.8 11.9 22.9 11.9" fill="#e18d10" fill-rule="evenodd" stroke="none"/>
      <path d="M22.3 12.2 L22.85 12.2 22.85 12.25 22.9 12.75 22.7 13.05 22.5 12.9 22.35 12.85 22.3 12.2" fill="#c33600" fill-rule="evenodd" stroke="none"/>
      <path d="M23.15 12.5 L23.45 13.45 23.15 14.1 23.1 14.0 22.95 13.75 22.9 13.7 22.9 13.65 23.1 12.85 23.15 12.85 23.05 12.65 23.0 12.5 23.05 12.5 23.15 12.5" fill="#cf6404" fill-rule="evenodd" stroke="none"/>
      <path d="M22.9 13.65 L22.85 13.15 23.05 12.9 23.05 12.65 23.15 12.85 23.1 12.85 22.9 13.65" fill="#c03100" fill-rule="evenodd" stroke="none"/>
      <path d="M23.15 14.1 L22.85 14.65 22.4 15.55 22.35 15.55 22.3 15.4 22.3 15.3 22.35 15.2 22.45 14.95 22.55 14.7 22.6 14.6 22.7 14.35 22.85 13.85 22.9 13.8 22.9 13.7 22.95 13.75 23.1 14.0 23.15 14.1" fill="#d6570a" fill-rule="evenodd" stroke="none"/>
      <path d="M22.85 13.75 L22.85 13.85 22.6 14.1 22.65 14.3 22.7 14.35 22.6 14.6 22.5 14.65 22.5 14.35 22.45 14.1 22.35 14.1 22.15 14.0 22.05 14.15 22.0 14.15 21.9 14.1 22.1 13.9 22.1 13.85 22.05 13.6 22.2 13.6 22.2 13.85 22.35 13.95 22.55 14.0 22.85 13.75" fill="#dd5604" fill-rule="evenodd" stroke="none"/>
      <path d="M22.45 13.05 L22.6 13.15 22.65 13.15 22.7 13.4 22.75 13.6 22.85 13.75 22.55 14.0 22.35 13.95 22.2 13.85 22.2 13.6 22.15 13.25 22.35 13.0 22.45 13.05" fill="#cc4201" fill-rule="evenodd" stroke="none"/>
      <path d="M22.35 13.0 L22.35 12.85 22.5 12.9 22.45 13.05 22.35 13.0" fill="#d54b0a" fill-rule="evenodd" stroke="none"/>
      <path d="M22.3 12.9 L22.3 13.0 22.35 13.0 22.15 13.25 22.2 13.6 22.05 13.6 22.05 13.5 22.0 13.35 21.75 13.25 21.65 13.15 21.7 13.0 21.9 13.1 22.05 13.15 22.3 12.9" fill="#de5b09" fill-rule="evenodd" stroke="none"/>
      <path d="M21.55 13.25 L21.65 13.15 21.75 13.25 22.0 13.35 22.05 13.5 22.05 13.6 22.1 13.85 22.1 13.9 21.9 14.1 21.65 14.0 21.45 13.95 21.45 13.6 21.4 13.45 21.55 13.25" fill="#da4e03" fill-rule="evenodd" stroke="none"/>
      <path d="M20.9 12.9 L20.9 13.05 20.9 13.1 20.4 13.75 20.15 14.05 20.05 13.85 20.25 13.65 20.3 13.6 20.4 13.5 20.65 13.25 20.9 12.9" fill="#6c62b9" fill-rule="evenodd" stroke="none"/>
      <path d="M20.4 13.75 L20.9 13.1 20.9 13.05 20.95 13.25 21.05 13.4 20.65 14.0 20.4 13.75" fill="#362d6e" fill-rule="evenodd" stroke="none"/>
      <path d="M20.9 13.05 L21.05 12.95 21.1 12.85 21.6 12.25 21.2 13.05 21.05 13.4 20.95 13.25 20.9 13.05" fill="#312459" fill-rule="evenodd" stroke="none"/>
      <path d="M21.45 13.0 L21.5 13.05 21.55 13.25 21.4 13.45 21.35 13.6 21.35 13.7 21.2 13.95 21.15 13.95 21.05 14.15 20.95 14.3 20.7 14.7 20.65 14.4 20.8 14.15 21.1 13.65 21.25 13.3 21.3 13.3 21.45 13.0" fill="#f7a909" fill-rule="evenodd" stroke="none"/>
      <path d="M20.4 13.5 L20.3 13.6 20.25 13.65 20.05 13.85 20.0 13.85 19.95 13.95 19.9 13.7 20.2 13.3 20.25 12.95 20.35 12.95 20.45 13.0 20.4 13.5" fill="#2e1d63" fill-rule="evenodd" stroke="none"/>
      <path d="M18.7 12.45 L19.1 11.8 19.65 12.3 20.35 12.7 20.25 12.95 20.2 13.3 19.9 13.7 19.85 13.7 19.6 13.55 19.45 13.45 19.4 13.45 18.85 12.75 18.75 12.6 18.7 12.45" fill="#302e5d" fill-rule="evenodd" stroke="none"/>
      <path d="M21.35 13.7 L21.35 13.6 21.4 13.45 21.45 13.6 21.45 13.95 21.65 14.0 21.6 14.2 21.6 14.25 21.4 14.2 21.25 14.25 21.2 14.35 21.2 14.45 21.1 14.45 21.05 14.45 21.05 14.5 21.0 14.4 21.0 14.35 20.95 14.3 21.05 14.15 21.15 14.25 21.25 14.15 21.35 14.05 21.35 13.85 21.35 13.75 21.35 13.7" fill="#e56305" fill-rule="evenodd" stroke="none"/>
      <path d="M21.05 14.15 L21.15 13.95 21.2 13.95 21.35 13.7 21.35 13.75 21.35 13.85 21.35 14.05 21.25 14.15 21.15 14.25 21.05 14.15" fill="#e26008" fill-rule="evenodd" stroke="none"/>
      <path d="M21.2 13.05 L21.25 13.3 21.1 13.65 20.8 14.15 20.65 14.4 20.6 14.15 20.65 14.0 21.05 13.4 21.2 13.05" fill="#321d46" fill-rule="evenodd" stroke="none"/>
      <path d="M21.2 14.45 L21.2 14.35 21.25 14.25 21.4 14.2 21.6 14.25 21.75 14.25 21.8 14.8 21.6 15.0 21.35 14.9 21.2 14.85 21.2 14.45" fill="#e05804" fill-rule="evenodd" stroke="none"/>
      <path d="M20.45 15.15 L20.55 15.0 20.7 15.1 20.8 15.0 20.85 14.95 21.05 14.8 21.05 14.5 21.05 14.45 21.1 14.45 21.2 14.45 21.2 14.85 21.35 14.9 21.3 15.05 21.2 15.0 20.95 15.1 20.8 15.25 20.8 15.75 20.95 15.8 20.9 15.9 20.65 15.85 20.5 15.95 20.35 16.05 20.35 16.15 20.35 16.45 20.4 16.45 20.55 16.55 20.4 16.75 20.3 16.75 20.25 16.7 20.2 16.65 20.15 16.65 20.05 16.75 19.95 16.8 19.95 16.75 20.0 16.7 20.0 16.55 20.2 16.4 20.2 16.1 20.1 16.05 20.15 15.9 20.3 15.9 20.65 15.65 20.65 15.25 20.45 15.15" fill="#e3740b" fill-rule="evenodd" stroke="none"/>
      <path d="M20.7 14.7 L20.95 14.3 21.0 14.35 21.0 14.4 21.05 14.5 21.05 14.8 20.85 14.95 20.8 15.0 20.7 15.1 20.55 15.0 20.7 14.7" fill="#e1690a" fill-rule="evenodd" stroke="none"/>
      <path d="M20.6 14.15 L20.65 14.4 20.2 15.25 20.05 15.45 20.05 15.0 20.6 14.15" fill="#29236d" fill-rule="evenodd" stroke="none"/>
      <path d="M20.15 14.05 L20.4 13.75 20.65 14.0 20.6 14.15 20.05 15.0 20.0 14.55 20.0 14.2 20.15 14.05" fill="#393389" fill-rule="evenodd" stroke="none"/>
      <path d="M20.65 14.4 L20.7 14.7 20.55 15.0 20.45 15.15 20.3 15.4 20.2 15.6 20.05 15.8 20.0 15.85 19.95 15.75 19.75 15.6 19.7 15.55 19.7 15.5 19.7 15.45 19.75 15.2 19.85 15.3 20.0 15.4 20.05 15.45 20.2 15.25 20.65 14.4" fill="#fac809" fill-rule="evenodd" stroke="none"/>
      <path d="M20.2 15.6 L20.3 15.4 20.45 15.15 20.65 15.25 20.65 15.65 20.3 15.9 20.15 15.9 20.2 15.6" fill="#d67001" fill-rule="evenodd" stroke="none"/>
      <path d="M21.65 14.0 L21.9 14.1 22.0 14.15 21.95 14.25 21.95 14.4 21.95 14.7 22.15 14.8 22.05 15.0 21.85 14.9 21.8 14.95 21.6 15.1 21.6 15.55 21.8 15.7 21.9 15.7 21.95 15.7 22.2 15.5 22.2 15.55 22.1 15.75 21.9 15.9 21.95 16.1 21.9 16.25 21.9 16.3 21.85 16.3 21.8 16.1 21.8 16.0 21.75 15.9 21.5 15.75 21.35 15.85 21.3 15.7 21.4 15.6 21.4 15.1 21.3 15.05 21.35 14.9 21.6 15.0 21.8 14.8 21.75 14.25 21.6 14.25 21.6 14.2 21.65 14.0" fill="#de5a07" fill-rule="evenodd" stroke="none"/>
      <path d="M20.95 15.8 L20.8 15.75 20.8 15.25 20.95 15.1 21.2 15.0 21.3 15.05 21.4 15.1 21.4 15.6 21.3 15.7 21.25 15.7 21.05 15.8 20.95 15.8" fill="#d75b05" fill-rule="evenodd" stroke="none"/>
      <path d="M22.5 14.65 L22.6 14.6 22.55 14.7 22.5 14.65 M22.7 14.35 L22.65 14.3 22.6 14.1 22.85 13.85 22.7 14.35" fill="#bc3500" fill-rule="evenodd" stroke="none"/>
      <path d="M22.0 14.15 L22.05 14.15 22.15 14.0 22.35 14.1 22.45 14.1 22.5 14.35 22.5 14.65 22.25 14.85 22.15 14.8 21.95 14.7 21.95 14.4 21.95 14.25 22.0 14.15" fill="#d14900" fill-rule="evenodd" stroke="none"/>
      <path d="M22.2 15.5 L21.95 15.7 21.9 15.7 21.8 15.7 21.6 15.55 21.6 15.1 21.8 14.95 21.85 14.9 22.05 15.0 22.15 15.0 22.2 15.5" fill="#ca4500" fill-rule="evenodd" stroke="none"/>
      <path d="M22.05 15.0 L22.15 14.8 22.25 14.85 22.5 14.65 22.55 14.7 22.45 14.95 22.3 15.0 22.35 15.2 22.3 15.3 22.3 15.4 22.2 15.5 22.15 15.0 22.05 15.0" fill="#d8560b" fill-rule="evenodd" stroke="none"/>
      <path d="M21.95 16.1 L21.9 15.9 22.1 15.75 22.0 15.95 21.95 16.1 M22.2 15.55 L22.2 15.5 22.3 15.4 22.2 15.55 M22.45 14.95 L22.35 15.2 22.3 15.0 22.45 14.95" fill="#c63a00" fill-rule="evenodd" stroke="none"/>
      <path d="M22.35 15.55 L22.35 15.65 22.2 15.9 22.0 16.35 21.9 16.55 21.7 16.9 21.6 17.2 21.55 17.25 21.4 17.6 21.35 17.6 21.45 17.35 21.55 17.05 21.55 17.0 21.65 16.7 21.75 16.55 21.85 16.3 21.9 16.3 21.9 16.25 21.95 16.1 22.0 15.95 22.1 15.75 22.2 15.55 22.3 15.4 22.35 15.55" fill="#ce5013" fill-rule="evenodd" stroke="none"/>
      <path d="M21.35 15.85 L21.5 15.75 21.75 15.9 21.8 16.0 21.8 16.1 21.85 16.3 21.35 16.55 21.25 16.45 21.1 16.35 21.15 16.1 21.15 16.0 21.35 15.85" fill="#cc4003" fill-rule="evenodd" stroke="none"/>
      <path d="M21.55 17.0 L21.5 16.8 21.5 16.7 21.6 16.65 21.75 16.55 21.65 16.7 21.55 17.0" fill="#bd3b00" fill-rule="evenodd" stroke="none"/>
      <path d="M21.85 16.3 L21.75 16.55 21.6 16.65 21.5 16.7 21.5 16.8 21.55 17.0 21.55 17.05 21.45 17.35 21.4 17.3 21.35 17.3 21.1 17.6 21.05 17.7 21.0 17.7 21.05 17.4 21.4 17.05 21.35 16.75 21.15 16.6 21.25 16.45 21.35 16.55 21.85 16.3" fill="#c24300" fill-rule="evenodd" stroke="none"/>
      <path d="M20.4 16.75 L20.55 16.55 20.7 16.65 20.75 16.65 21.0 16.4 21.0 16.3 21.0 15.95 20.9 15.9 20.95 15.8 21.05 15.8 21.25 15.7 21.3 15.7 21.35 15.85 21.15 16.0 21.15 16.1 21.1 16.35 21.25 16.45 21.15 16.6 21.05 16.55 20.8 16.8 20.75 16.8 20.7 17.3 20.65 17.35 20.55 17.35 20.55 16.8 20.5 16.8 20.4 16.75" fill="#cf5200" fill-rule="evenodd" stroke="none"/>
      <path d="M20.55 16.55 L20.4 16.45 20.35 16.45 20.35 16.15 20.35 16.05 20.5 15.95 20.65 15.85 20.9 15.9 21.0 15.95 21.0 16.3 21.0 16.4 20.75 16.65 20.7 16.65 20.55 16.55" fill="#cd5a00" fill-rule="evenodd" stroke="none"/>
      <path d="M19.95 16.8 L20.05 16.75 20.15 16.65 20.2 16.65 20.25 16.7 20.3 16.75 20.4 16.75 20.5 16.8 20.0 17.35 19.85 17.2 19.8 17.2 19.95 16.8" fill="#cb5800" fill-rule="evenodd" stroke="none"/>
      <path d="M20.5 16.8 L20.55 16.8 20.55 17.35 20.4 17.5 20.25 17.55 20.2 17.5 20.15 17.45 20.1 17.4 20.05 17.35 20.0 17.35 20.5 16.8" fill="#c74604" fill-rule="evenodd" stroke="none"/>
      <path d="M21.15 16.6 L21.35 16.75 21.4 17.05 21.05 17.4 21.05 17.35 21.05 17.2 21.05 17.05 20.7 17.3 20.75 16.8 20.8 16.8 21.05 16.55 21.15 16.6" fill="#c63d07" fill-rule="evenodd" stroke="none"/>
      <path d="M21.35 17.6 L21.25 17.6 21.1 17.65 21.05 17.7 21.1 17.6 21.35 17.3 21.4 17.3 21.45 17.35 21.35 17.6" fill="#ac2100" fill-rule="evenodd" stroke="none"/>
      <path d="M20.55 17.35 L20.65 17.35 20.7 17.3 21.05 17.05 21.05 17.2 21.05 17.35 20.8 17.5 Q20.55 17.6 20.25 17.85 L20.2 17.85 20.1 17.9 20.15 17.6 20.25 17.6 20.25 17.55 20.4 17.5 20.55 17.35" fill="#270d32" fill-rule="evenodd" stroke="none"/>
      <path d="M21.1 17.65 L21.1 18.05 20.9 18.3 20.85 18.3 20.85 18.5 20.8 18.55 20.65 18.15 20.65 18.1 20.6 18.0 20.55 17.85 20.6 17.85 20.7 17.65 21.05 17.35 21.05 17.4 21.0 17.7 21.05 17.7 21.1 17.65" fill="#271734" fill-rule="evenodd" stroke="none"/>
      <path d="M20.25 17.55 L20.25 17.6 20.15 17.6 20.1 17.65 20.0 17.55 19.9 17.45 19.8 17.35 19.8 17.2 19.85 17.2 20.0 17.35 20.05 17.35 20.1 17.4 20.15 17.45 20.2 17.5 20.25 17.55" fill="#c85e08" fill-rule="evenodd" stroke="none"/>
      <path d="M20.55 17.85 L20.6 18.0 20.65 18.1 20.65 18.15 20.8 18.55 20.35 18.7 20.25 18.75 20.25 18.6 20.3 18.55 20.35 18.25 20.4 17.9 20.55 17.85" fill="#20153d" fill-rule="evenodd" stroke="none"/>
      <path d="M21.05 17.35 L20.7 17.65 20.6 17.85 20.55 17.85 20.4 17.9 20.25 18.05 20.25 17.85 Q20.55 17.6 20.8 17.5 L21.05 17.35" fill="#36245e" fill-rule="evenodd" stroke="none"/>
      <path d="M20.1 17.9 L20.2 17.85 20.25 17.85 20.25 18.05 20.1 18.2 20.0 18.3 19.85 18.35 19.25 18.75 19.3 18.35 19.35 18.25 19.45 18.3 19.85 18.05 20.1 17.9" fill="#2d3065" fill-rule="evenodd" stroke="none"/>
      <path d="M20.25 18.05 L20.4 17.9 20.35 18.25 20.3 18.55 20.25 18.6 20.25 18.75 20.35 18.7 20.8 18.55 20.8 18.6 20.75 18.65 20.4 19.0 20.25 19.1 20.15 19.25 19.8 19.55 19.8 19.5 19.8 19.15 20.05 18.5 20.1 18.45 20.2 18.15 20.1 18.2 20.25 18.05" fill="#3f3476" fill-rule="evenodd" stroke="none"/>
      <path d="M21.1 21.1 L20.4 21.0 20.4 20.75 19.85 20.65 19.55 20.55 19.45 20.3 19.6 20.05 19.85 19.55 19.7 19.6 19.7 19.55 19.8 19.5 19.8 19.55 20.15 19.25 20.25 19.1 20.4 19.0 20.75 18.65 20.8 18.6 20.8 18.55 20.85 18.5 21.05 18.9 21.05 18.95 21.15 19.25 21.2 19.35 21.2 19.8 21.15 20.25 21.15 20.6 21.1 21.1" fill="#44000b" fill-rule="evenodd" stroke="none"/>
      <path d="M20.85 18.5 L20.85 18.3 20.9 18.3 21.35 19.15 21.15 19.25 21.05 18.95 21.05 18.9 20.85 18.5" fill="#c1c8e5" fill-rule="evenodd" stroke="none"/>
      <path d="M21.1 18.05 L21.2 18.0 22.3 18.85 22.7 19.25 22.45 19.6 21.65 19.4 21.5 19.3 21.4 19.3 21.35 19.15 20.9 18.3 21.1 18.05" fill="#616e9b" fill-rule="evenodd" stroke="none"/>
      <path d="M21.65 19.4 L21.65 19.6 21.5 19.55 21.4 19.55 21.4 19.8 21.25 19.8 21.2 19.8 21.2 19.35 21.15 19.25 21.35 19.15 21.4 19.3 21.5 19.3 21.65 19.4" fill="#c2d9ff" fill-rule="evenodd" stroke="none"/>
      <path d="M22.45 19.6 L22.35 19.75 21.65 19.6 21.65 19.4 22.45 19.6" fill="#c5daf9" fill-rule="evenodd" stroke="none"/>
      <path d="M22.35 19.75 L21.8 20.55 21.7 20.5 21.5 20.4 21.35 20.3 21.4 19.8 21.4 19.55 21.5 19.55 21.65 19.6 22.35 19.75" fill="#99acca" fill-rule="evenodd" stroke="none"/>
      <path d="M21.25 21.1 L21.15 21.4 21.05 21.4 21.1 21.2 21.1 21.1 21.15 20.6 21.15 20.25 21.2 19.8 21.25 19.8 21.4 19.8 21.35 20.3 21.35 20.45 21.25 21.1" fill="#c8dbfb" fill-rule="evenodd" stroke="none"/>
      <path d="M21.8 20.55 L21.5 20.85 21.25 21.1 21.35 20.45 21.35 20.3 21.5 20.4 21.7 20.5 21.8 20.55" fill="#93aac9" fill-rule="evenodd" stroke="none"/>
      <path d="M20.4 21.0 L20.4 21.75 20.0 22.05 19.7 21.95 19.8 21.65 19.4 21.55 19.25 21.55 19.1 21.65 18.95 21.75 18.7 21.65 19.0 21.25 19.1 21.2 19.45 20.8 19.55 20.6 19.55 20.55 19.85 20.65 20.4 20.75 20.4 21.0" fill="#4a0e03" fill-rule="evenodd" stroke="none"/>
      <path d="M13.3 8.95 L14.0 9.4 15.8 10.4 15.4 10.6 14.7 10.95 13.75 10.6 13.1 10.1 13.2 9.45 13.25 9.15 13.3 8.95" fill="#950e0a" fill-rule="evenodd" stroke="none"/>
      <path d="M12.55 8.4 L13.3 8.95 13.25 9.15 13.2 9.45 13.1 10.1 12.9 9.95 11.95 9.25 11.6 8.95 12.2 8.6 12.4 8.5 12.55 8.4" fill="#890707" fill-rule="evenodd" stroke="none"/>
      <path d="M10.4 8.65 L10.55 8.5 11.25 9.05 11.45 9.2 11.6 9.3 11.45 9.4 11.05 9.1 10.5 8.7 10.4 8.65" fill="#3f415a" fill-rule="evenodd" stroke="none"/>
      <path d="M10.55 8.5 L10.9 8.35 11.6 8.95 11.95 9.25 12.9 9.95 12.75 10.2 11.6 9.3 11.45 9.2 11.25 9.05 10.55 8.5" fill="#6e0200" fill-rule="evenodd" stroke="none"/>
      <path d="M9.3 9.45 L10.4 8.65 10.5 8.7 11.05 9.1 11.45 9.4 11.45 9.55 11.45 10.05 11.5 10.7 11.5 10.75 11.3 10.7 11.15 10.65 10.2 10.5 9.65 10.4 9.3 9.45" fill="#1b1a28" fill-rule="evenodd" stroke="none"/>
      <path d="M10.9 8.35 Q11.45 8.0 12.05 7.8 L12.35 8.25 12.55 8.4 12.4 8.5 12.2 8.6 11.6 8.95 10.9 8.35" fill="#860406" fill-rule="evenodd" stroke="none"/>
      <path d="M11.45 9.4 L11.6 9.3 12.75 10.2 13.1 10.4 13.4 10.6 13.4 10.65 13.3 10.75 13.25 10.75 13.05 10.55 12.7 10.3 12.3 10.05 11.45 9.4" fill="#544c73" fill-rule="evenodd" stroke="none"/>
      <path d="M11.5 10.75 L11.5 10.7 11.45 10.05 11.45 9.55 11.45 9.4 12.3 10.05 12.7 10.3 13.05 10.55 13.25 10.75 13.3 10.75 13.15 11.0 12.75 10.95 12.75 10.9 12.35 10.85 12.15 10.8 11.5 10.75" fill="#2e1c32" fill-rule="evenodd" stroke="none"/>
      <path d="M11.5 10.75 L12.15 10.8 12.35 10.85 12.75 10.9 12.75 10.95 13.15 11.0 13.45 11.05 13.55 11.05 13.7 11.1 13.65 11.3 13.45 11.25 13.4 11.25 13.1 11.2 12.75 11.1 12.55 11.05 12.15 11.0 11.5 10.9 11.3 10.9 11.15 10.8 11.05 10.8 10.9 10.8 10.3 10.7 10.2 10.5 11.15 10.65 11.3 10.7 11.5 10.75" fill="#f2b409" fill-rule="evenodd" stroke="none"/>
      <path d="M10.3 10.7 L10.25 10.7 10.2 10.7 10.0 10.65 9.95 10.65 9.55 10.6 9.5 10.5 9.65 10.4 10.2 10.5 10.3 10.7" fill="#e78309" fill-rule="evenodd" stroke="none"/>
      <path d="M9.5 10.5 L9.55 10.6 9.95 10.65 10.0 10.65 10.2 10.7 10.25 10.7 10.1 10.9 10.2 11.45 10.4 11.55 10.6 11.65 10.6 11.7 10.5 11.8 10.4 11.8 10.15 11.65 9.7 11.9 9.8 12.5 10.05 12.6 10.05 12.65 9.95 12.85 9.65 12.75 9.3 13.05 9.55 13.55 9.55 13.6 9.4 13.75 9.45 13.8 9.3 13.85 9.2 13.65 9.2 13.6 9.35 13.55 9.1 13.0 9.05 13.0 8.75 13.0 8.4 12.45 8.35 12.35 8.35 12.25 8.35 12.15 8.3 12.05 8.1 12.0 7.95 11.7 8.15 11.75 8.35 11.85 8.75 11.5 8.7 10.95 8.65 10.9 8.8 10.7 8.95 10.75 9.4 10.4 9.5 10.5 M8.5 12.05 L8.55 12.35 8.65 12.55 8.85 12.65 9.15 12.7 9.2 12.7 9.45 12.55 9.5 12.5 9.45 12.25 9.4 12.0 9.25 11.9 9.1 11.85 8.95 11.75 8.5 12.05 M9.7 11.6 L9.95 11.45 9.8 10.9 9.8 10.85 9.4 10.7 9.15 10.85 8.95 11.0 9.0 11.25 9.05 11.6 9.25 11.65 9.3 11.7 9.5 11.75 9.7 11.6" fill="#d35906" fill-rule="evenodd" stroke="none"/>
      <path d="M10.3 10.7 L10.9 10.8 11.05 10.8 11.15 10.8 11.15 11.05 11.15 11.1 11.15 11.4 10.8 11.6 10.7 11.65 10.6 11.65 10.4 11.55 10.2 11.45 10.1 10.9 10.25 10.7 10.3 10.7" fill="#d56900" fill-rule="evenodd" stroke="none"/>
      <path d="M11.15 10.8 L11.3 10.9 11.35 11.35 11.2 11.3 11.2 11.4 11.15 11.4 11.15 11.1 11.15 11.05 11.15 10.8" fill="#dd850a" fill-rule="evenodd" stroke="none"/>
      <path d="M11.15 11.4 L11.2 11.4 11.2 11.3 11.35 11.35 11.6 11.35 12.15 11.5 12.4 11.55 12.55 11.6 12.65 11.6 12.85 11.65 13.25 11.7 13.5 11.8 13.95 11.9 13.8 12.35 13.7 12.75 13.25 12.6 12.5 12.25 12.3 12.2 12.0 12.05 11.15 11.65 11.15 11.6 11.15 11.45 11.15 11.4" fill="#ffd200" fill-rule="evenodd" stroke="none"/>
      <path d="M10.6 11.65 L10.7 11.65 10.8 11.6 11.15 11.4 11.15 11.45 11.15 11.6 11.15 11.65 10.85 11.9 10.9 12.15 10.95 12.35 10.95 12.4 11.2 12.55 11.5 12.7 11.75 12.5 11.85 12.75 11.7 12.85 11.75 13.0 11.85 13.3 12.05 13.4 12.1 13.4 12.05 13.65 11.85 13.6 11.55 13.75 11.45 13.95 11.5 14.2 11.3 14.3 11.2 13.9 10.95 13.75 10.95 13.6 11.15 13.6 11.5 13.4 11.45 13.1 11.35 12.8 10.8 12.6 10.65 12.7 10.6 12.5 10.75 12.35 10.65 12.05 10.65 11.9 10.5 11.8 10.6 11.7 10.6 11.65" fill="#de8006" fill-rule="evenodd" stroke="none"/>
      <path d="M11.3 10.9 L11.5 10.9 12.15 11.0 12.55 11.05 12.4 11.2 12.25 11.35 12.15 11.5 11.6 11.35 11.35 11.35 11.3 10.9" fill="#e48905" fill-rule="evenodd" stroke="none"/>
      <path d="M10.5 11.8 L10.65 11.9 10.65 12.05 10.75 12.35 10.6 12.5 10.25 12.7 10.05 12.65 10.05 12.6 9.8 12.5 9.7 11.9 10.15 11.65 10.4 11.8 10.5 11.8" fill="#ce5d00" fill-rule="evenodd" stroke="none"/>
      <path d="M11.15 11.65 L12.0 12.05 12.0 12.35 11.75 12.5 11.5 12.7 11.2 12.55 10.95 12.4 10.95 12.35 10.9 12.15 10.85 11.9 11.15 11.65" fill="#dd8a00" fill-rule="evenodd" stroke="none"/>
      <path d="M12.55 11.05 L12.75 11.1 12.75 11.25 13.0 11.3 13.25 11.35 13.45 11.25 13.65 11.3 13.65 11.35 13.7 11.35 13.7 11.4 13.65 11.45 13.5 11.55 13.5 11.7 13.5 11.8 13.25 11.7 13.25 11.6 13.2 11.6 13.1 11.6 12.9 11.5 12.85 11.5 12.6 11.45 12.55 11.45 12.4 11.55 12.15 11.5 12.25 11.35 12.4 11.2 12.55 11.05" fill="#f5b500" fill-rule="evenodd" stroke="none"/>
      <path d="M13.25 11.7 L12.85 11.65 12.65 11.6 12.55 11.6 12.4 11.55 12.55 11.45 12.6 11.45 12.85 11.5 12.9 11.5 13.1 11.6 13.2 11.6 13.25 11.6 13.25 11.7" fill="#e2a100" fill-rule="evenodd" stroke="none"/>
      <path d="M12.0 12.05 L12.3 12.2 12.5 12.25 13.25 12.6 13.15 12.7 13.05 12.75 13.15 13.05 12.85 13.2 12.7 12.65 12.1 12.5 11.95 12.65 11.85 12.75 11.75 12.5 12.0 12.35 12.0 12.05" fill="#f0b406" fill-rule="evenodd" stroke="none"/>
      <path d="M13.1 10.1 L13.75 10.6 14.7 10.95 16.75 11.75 17.4 11.95 17.45 12.0 18.3 12.65 18.7 12.95 18.75 13.0 18.8 13.05 19.0 13.4 18.95 13.35 18.9 13.3 18.85 13.3 18.6 13.1 18.45 13.05 18.4 13.0 18.0 12.7 17.8 12.55 17.25 12.15 17.15 12.1 17.1 12.05 16.75 11.9 16.05 11.65 15.75 11.5 15.1 11.3 14.5 11.05 13.55 10.7 13.45 10.65 13.4 10.6 13.1 10.4 12.75 10.2 12.9 9.95 13.1 10.1" fill="#730c0d" fill-rule="evenodd" stroke="none"/>
      <path d="M13.4 10.6 L13.45 10.65 13.55 10.7 14.5 11.05 15.1 11.3 15.75 11.5 16.05 11.65 16.75 11.9 17.1 12.05 17.15 12.1 17.25 12.15 17.2 12.3 17.1 12.3 17.05 12.3 16.75 12.1 15.95 11.8 15.65 11.65 15.05 11.4 14.3 11.1 14.25 11.1 14.15 11.1 13.3 10.75 13.4 10.65 13.4 10.6" fill="#6f589e" fill-rule="evenodd" stroke="none"/>
      <path d="M13.15 11.0 L13.3 10.75 14.15 11.1 14.25 11.1 14.85 11.45 15.6 11.8 15.5 11.9 15.5 12.0 15.0 11.75 13.7 11.1 13.55 11.05 13.45 11.05 13.15 11.0" fill="#5a2039" fill-rule="evenodd" stroke="none"/>
      <path d="M12.75 11.1 L13.1 11.2 13.4 11.25 13.45 11.25 13.25 11.35 13.0 11.3 12.75 11.25 12.75 11.1" fill="#e3ab00" fill-rule="evenodd" stroke="none"/>
      <path d="M13.65 11.3 L13.7 11.1 15.0 11.75 15.5 12.0 15.8 12.15 15.95 12.2 16.1 12.3 16.55 12.5 16.9 12.7 16.95 12.7 17.0 12.75 17.05 12.75 17.15 12.8 17.4 13.05 17.85 13.45 17.15 13.15 16.95 13.05 16.9 13.05 16.85 13.0 16.65 12.9 16.5 12.85 16.15 12.65 16.0 12.55 15.8 12.45 15.65 12.35 15.6 12.35 15.35 12.2 15.15 12.15 14.85 12.0 14.65 11.9 14.4 11.75 14.1 11.55 13.85 11.45 13.7 11.4 13.7 11.35 13.65 11.35 13.65 11.3" fill="#ffdc0a" fill-rule="evenodd" stroke="none"/>
      <path d="M13.95 11.9 L13.5 11.8 13.5 11.7 13.5 11.55 13.65 11.45 13.7 11.4 13.85 11.45 14.1 11.55 14.4 11.75 14.65 11.9 14.6 12.0 14.55 12.05 14.4 12.0 14.0 11.9 13.95 11.9" fill="#f1b401" fill-rule="evenodd" stroke="none"/>
      <path d="M14.25 11.1 L14.3 11.1 15.05 11.4 15.65 11.65 15.95 11.8 15.9 11.95 15.6 11.8 14.85 11.45 14.25 11.1" fill="#52333b" fill-rule="evenodd" stroke="none"/>
      <path d="M13.7 12.75 L13.8 12.35 13.95 11.9 14.0 11.9 14.4 12.0 14.55 12.05 14.65 12.15 14.7 12.15 15.25 12.4 15.5 12.5 15.0 13.3 14.7 13.2 14.65 13.15 14.45 13.1 13.7 12.75" fill="#fbed04" fill-rule="evenodd" stroke="none"/>
      <path d="M14.65 11.9 L14.85 12.0 14.8 12.05 14.7 12.15 14.65 12.15 14.55 12.05 14.6 12.0 14.65 11.9" fill="#f4c600" fill-rule="evenodd" stroke="none"/>
      <path d="M14.85 12.0 L15.15 12.15 15.35 12.2 15.6 12.35 15.65 12.35 15.8 12.45 15.75 12.7 15.6 12.6 15.5 12.55 15.5 12.5 15.25 12.4 14.7 12.15 14.8 12.05 14.85 12.0 M16.0 12.55 L16.15 12.65 16.5 12.85 16.65 12.9 16.85 13.0 16.9 13.05 16.95 13.05 16.95 13.1 16.95 13.3 16.95 13.35 16.6 13.75 16.8 13.4 16.75 13.4 16.4 13.1 16.3 13.05 15.9 12.75 16.0 12.55 M16.45 14.0 L16.35 14.1 15.9 14.0 15.85 14.0 15.5 13.85 15.45 13.75 15.4 13.6 15.65 13.7 15.9 13.8 16.35 14.05 16.45 14.0" fill="#fbd400" fill-rule="evenodd" stroke="none"/>
      <path d="M16.6 10.0 L17.4 10.25 17.45 10.25 17.7 10.35 19.1 10.9 18.85 11.05 18.45 10.9 18.4 10.9 18.0 10.8 17.6 10.9 17.6 11.1 17.95 11.3 18.0 11.3 17.9 11.4 17.9 11.5 17.85 11.5 17.85 11.45 15.95 10.5 16.4 10.2 16.5 10.1 16.6 10.0" fill="#1d1927" fill-rule="evenodd" stroke="none"/>
      <path d="M14.0 9.4 L16.6 10.0 16.5 10.1 16.4 10.2 15.95 10.5 15.8 10.4 14.0 9.4" fill="#261829" fill-rule="evenodd" stroke="none"/>
      <path d="M14.7 10.95 L15.4 10.6 15.8 10.4 15.95 10.5 17.85 11.45 17.85 11.5 17.7 11.65 17.45 11.95 17.45 12.0 17.4 11.95 16.75 11.75 14.7 10.95" fill="#d72509" fill-rule="evenodd" stroke="none"/>
      <path d="M16.95 12.7 L16.9 12.7 16.55 12.5 16.1 12.3 15.95 12.2 15.8 12.15 15.5 12.0 15.5 11.9 15.6 11.8 15.9 11.95 17.0 12.5 17.0 12.55 16.95 12.7" fill="#5c2528" fill-rule="evenodd" stroke="none"/>
      <path d="M15.95 11.8 L16.75 12.1 17.05 12.3 17.1 12.3 17.05 12.5 17.0 12.5 15.9 11.95 15.95 11.8" fill="#5b344f" fill-rule="evenodd" stroke="none"/>
      <path d="M18.85 11.05 L19.4 11.3 19.15 11.75 19.1 11.8 18.7 12.45 18.2 11.4 18.0 11.3 17.95 11.3 17.6 11.1 17.6 10.9 18.0 10.8 18.4 10.9 18.45 10.9 18.85 11.05" fill="#2f2240" fill-rule="evenodd" stroke="none"/>
      <path d="M18.75 13.0 L18.7 12.95 18.3 12.65 17.45 12.0 17.45 11.95 17.7 11.65 17.85 11.5 17.9 11.5 18.45 12.4 18.6 12.7 18.75 12.9 18.75 13.0" fill="#f85c05" fill-rule="evenodd" stroke="none"/>
      <path d="M17.25 12.15 L17.8 12.55 18.0 12.7 18.4 13.0 18.45 13.05 18.6 13.1 18.6 13.3 18.4 13.15 18.25 13.05 17.75 12.7 17.2 12.35 17.2 12.3 17.25 12.15" fill="#9e8cd8" fill-rule="evenodd" stroke="none"/>
      <path d="M17.1 12.3 L17.2 12.3 17.2 12.35 17.75 12.7 18.25 13.05 18.4 13.15 18.4 13.25 18.4 13.7 17.7 13.05 17.3 12.75 17.3 12.7 17.15 12.6 17.05 12.5 17.1 12.3" fill="#6e59b6" fill-rule="evenodd" stroke="none"/>
      <path d="M18.0 11.3 L18.2 11.4 18.7 12.45 18.75 12.6 18.85 12.75 18.75 12.9 18.6 12.7 18.45 12.4 17.9 11.5 17.9 11.4 18.0 11.3" fill="#231e47" fill-rule="evenodd" stroke="none"/>
      <path d="M19.5 11.05 L19.4 11.3 18.85 11.05 19.1 10.9 19.5 11.05" fill="#1b1728" fill-rule="evenodd" stroke="none"/>
      <path d="M20.0 11.9 L20.15 12.05 20.1 12.2 20.0 12.25 19.95 12.2 19.85 12.0 19.85 11.9 19.95 11.9 20.0 11.9" fill="#493d65" fill-rule="evenodd" stroke="none"/>
      <path d="M9.15 9.6 L9.15 9.55 9.3 9.45 9.65 10.4 9.5 10.5 9.4 10.4 9.4 10.35 9.2 9.75 9.15 9.6" fill="#e77e13" fill-rule="evenodd" stroke="none"/>
      <path d="M9.05 9.7 L9.15 9.6 9.2 9.75 9.05 9.7" fill="#d1550b" fill-rule="evenodd" stroke="none"/>
      <path d="M8.35 10.5 L9.05 9.7 9.2 9.75 9.4 10.35 9.4 10.4 8.95 10.75 8.8 10.7 8.4 10.6 8.35 10.5" fill="#c85000" fill-rule="evenodd" stroke="none"/>
      <path d="M7.75 11.3 L7.85 11.15 7.85 11.35 7.85 11.45 7.75 11.3 M8.0 10.95 L8.35 10.5 8.4 10.6 8.8 10.7 8.65 10.9 8.55 10.9 8.3 10.75 8.1 10.9 8.0 10.95" fill="#cf5105" fill-rule="evenodd" stroke="none"/>
      <path d="M7.85 11.15 L7.9 11.0 8.0 10.95 8.1 10.9 8.3 10.75 8.55 10.9 8.65 10.9 8.7 10.95 8.75 11.5 8.35 11.85 8.15 11.75 7.95 11.7 7.85 11.45 7.85 11.35 7.85 11.15" fill="#c44502" fill-rule="evenodd" stroke="none"/>
      <path d="M8.75 13.85 L8.7 13.8 7.45 11.9 7.75 11.3 7.85 11.45 7.95 11.7 8.1 12.0 8.35 12.35 8.4 12.45 8.75 13.0 8.95 13.25 9.0 13.4 8.95 13.4 8.75 13.85" fill="#ec9b04" fill-rule="evenodd" stroke="none"/>
      <path d="M8.5 12.05 L8.95 11.75 9.1 11.85 9.25 11.9 9.4 12.0 9.45 12.25 9.5 12.5 9.45 12.55 9.2 12.7 9.15 12.7 8.85 12.65 8.65 12.55 8.55 12.35 8.5 12.05" fill="#c74803" fill-rule="evenodd" stroke="none"/>
      <path d="M8.1 12.0 L8.3 12.05 8.35 12.15 8.35 12.25 8.35 12.35 8.1 12.0" fill="#c34100" fill-rule="evenodd" stroke="none"/>
      <path d="M9.7 11.6 L9.5 11.75 9.3 11.7 9.25 11.65 9.05 11.6 9.0 11.25 8.95 11.0 9.15 10.85 9.4 10.7 9.8 10.85 9.8 10.9 9.95 11.45 9.7 11.6" fill="#ce5b00" fill-rule="evenodd" stroke="none"/>
      <path d="M10.05 12.65 L10.25 12.7 10.6 12.5 10.65 12.7 10.45 12.9 10.65 13.45 10.9 13.55 10.95 13.6 10.95 13.75 10.65 13.7 10.4 13.85 10.25 13.95 10.45 14.45 10.75 14.6 10.7 14.8 10.35 14.7 10.1 14.85 10.05 14.95 9.9 14.7 9.95 14.65 10.15 14.45 9.95 14.0 9.45 13.8 9.4 13.75 9.55 13.6 9.55 13.55 9.75 13.6 10.1 13.7 10.25 13.6 10.45 13.45 10.25 13.1 10.25 13.0 9.95 12.85 10.05 12.65" fill="#ce5306" fill-rule="evenodd" stroke="none"/>
      <path d="M9.55 13.55 L9.3 13.05 9.65 12.75 9.95 12.85 10.25 13.0 10.25 13.1 10.45 13.45 10.25 13.6 10.1 13.7 9.75 13.6 9.55 13.55" fill="#ca5102" fill-rule="evenodd" stroke="none"/>
      <path d="M8.75 13.0 L9.05 13.0 9.1 13.0 9.35 13.55 9.2 13.6 9.2 13.65 9.0 13.4 8.95 13.25 8.75 13.0" fill="#c64204" fill-rule="evenodd" stroke="none"/>
      <path d="M9.95 15.5 L9.5 14.85 9.1 14.3 8.75 13.85 8.95 13.4 9.0 13.4 9.2 13.65 9.3 13.85 9.35 13.95 9.9 14.7 10.05 14.95 10.3 15.35 10.05 15.45 9.95 15.5" fill="#d76300" fill-rule="evenodd" stroke="none"/>
      <path d="M9.3 13.85 L9.45 13.8 9.95 14.0 10.15 14.45 9.95 14.65 9.9 14.7 9.35 13.95 9.3 13.85" fill="#c44300" fill-rule="evenodd" stroke="none"/>
      <path d="M10.05 14.95 L10.1 14.85 10.35 14.7 10.7 14.8 10.95 14.9 11.15 15.45 10.9 15.65 10.5 15.65 10.45 15.6 10.3 15.35 10.05 14.95" fill="#c74900" fill-rule="evenodd" stroke="none"/>
      <path d="M8.6 18.35 L8.55 18.35 8.7 18.15 8.8 18.05 8.85 17.95 9.1 17.55 9.8 17.15 10.8 16.6 10.95 16.8 10.25 17.5 9.8 17.9 9.75 18.0 9.45 18.05 9.1 18.1 8.7 18.15 8.6 18.35 M9.65 18.15 L9.6 18.15 9.65 18.1 9.65 18.15" fill="#55698e" fill-rule="evenodd" stroke="none"/>
      <path d="M8.35 18.75 L8.6 18.35 8.7 18.15 9.1 18.1 9.45 18.05 9.75 18.0 9.7 18.05 9.65 18.1 9.6 18.15 9.5 18.25 9.55 18.35 9.6 18.45 9.75 18.6 9.95 18.55 10.25 18.45 10.15 18.55 10.05 18.7 9.9 18.8 9.6 18.85 9.55 18.85 9.35 18.85 8.55 18.75 8.35 18.75" fill="#53669e" fill-rule="evenodd" stroke="none"/>
      <path d="M9.75 18.25 L9.9 18.05 9.95 18.0 10.4 17.6 11.1 16.95 11.5 17.4 11.7 17.45 11.75 17.45 12.8 17.5 12.45 17.6 12.05 17.75 11.05 18.1 10.6 18.25 10.4 18.3 9.9 18.5 9.75 18.25" fill="#4a0008" fill-rule="evenodd" stroke="none"/>
      <path d="M9.75 18.0 L9.8 17.9 10.25 17.5 10.95 16.8 11.1 16.95 10.4 17.6 9.95 18.0 9.9 18.05 9.75 18.25 9.75 18.3 9.65 18.2 9.65 18.15 9.65 18.1 9.7 18.05 9.75 18.0" fill="#919dcd" fill-rule="evenodd" stroke="none"/>
      <path d="M9.6 18.15 L9.65 18.15 9.65 18.2 9.75 18.3 9.75 18.35 9.6 18.45 9.55 18.35 9.5 18.25 9.6 18.15" fill="#9fb1d7" fill-rule="evenodd" stroke="none"/>
      <path d="M9.9 18.5 L10.4 18.3 10.6 18.25 10.5 18.35 10.25 18.45 9.95 18.55 9.75 18.6 9.6 18.45 9.75 18.35 9.85 18.5 9.9 18.5" fill="#9099c0" fill-rule="evenodd" stroke="none"/>
      <path d="M10.8 16.6 L10.55 16.25 9.95 15.5 10.05 15.45 10.3 15.35 10.45 15.6 10.5 15.65 10.65 15.85 10.85 16.15 10.85 16.2 11.05 16.4 11.2 16.65 11.25 16.75 11.3 16.75 11.75 17.4 11.75 17.45 11.7 17.45 11.5 17.4 11.1 16.95 10.95 16.8 10.8 16.6" fill="#dd600e" fill-rule="evenodd" stroke="none"/>
      <path d="M10.6 18.25 L11.05 18.1 12.05 17.75 12.0 18.0 11.9 18.3 11.85 18.6 11.65 18.6 11.3 18.7 11.1 18.7 9.9 18.8 10.05 18.7 10.15 18.55 10.25 18.45 10.5 18.35 10.6 18.25" fill="#677aa2" fill-rule="evenodd" stroke="none"/>
      <path d="M9.7 19.4 L9.55 19.35 8.15 19.0 8.25 18.9 9.35 18.85 9.55 18.85 9.6 18.85 9.85 18.85 9.55 19.1 9.6 19.15 9.7 19.4" fill="#3a4468" fill-rule="evenodd" stroke="none"/>
      <path d="M8.25 18.9 L8.35 18.75 8.55 18.75 9.35 18.85 8.25 18.9 M9.9 18.8 L11.1 18.7 11.05 18.85 9.85 18.85 9.6 18.85 9.9 18.8" fill="#a3b2dd" fill-rule="evenodd" stroke="none"/>
      <path d="M11.0 19.9 L10.6 19.7 9.7 19.4 9.6 19.15 9.55 19.1 9.85 18.85 11.05 18.85 11.3 18.85 11.3 19.45 11.25 19.7 11.25 19.85 11.0 19.9" fill="#363e6c" fill-rule="evenodd" stroke="none"/>
      <path d="M9.6 21.55 L9.15 21.15 9.0 21.0 8.8 20.8 Q9.25 20.5 9.7 20.3 L10.1 21.1 10.1 21.15 9.75 21.4 9.65 21.5 9.6 21.55" fill="#546172" fill-rule="evenodd" stroke="none"/>
      <path d="M9.7 20.3 L10.2 20.1 10.75 19.95 10.75 20.95 10.6 20.95 10.1 21.15 10.1 21.1 9.7 20.3" fill="#3f4c76" fill-rule="evenodd" stroke="none"/>
      <path d="M9.75 21.4 L10.1 21.15 10.6 20.95 10.75 20.95 11.15 20.85 11.35 20.8 11.35 20.85 11.55 20.95 11.7 21.1 11.9 21.35 11.6 21.6 11.45 21.7 11.25 21.8 11.2 21.85 11.1 21.5 11.05 21.35 10.95 21.35 10.75 21.35 10.7 21.35 9.75 21.4" fill="#516185" fill-rule="evenodd" stroke="none"/>
      <path d="M10.65 22.3 L9.6 21.55 9.65 21.5 9.75 21.4 10.7 21.35 10.75 21.35 10.95 21.35 11.05 21.35 11.1 21.5 11.2 21.85 10.8 22.2 10.7 22.25 10.65 22.3" fill="#5d6b85" fill-rule="evenodd" stroke="none"/>
      <path d="M18.4 13.15 L18.6 13.3 19.15 13.7 19.15 13.75 19.2 14.4 18.8 14.1 18.4 13.7 18.4 13.25 18.4 13.15" fill="#7a6acd" fill-rule="evenodd" stroke="none"/>
      <path d="M19.2 14.4 L19.15 13.75 19.15 13.7 19.55 14.0 19.85 14.25 19.9 14.7 19.95 15.1 19.2 14.4" fill="#8e76d4" fill-rule="evenodd" stroke="none"/>
      <path d="M18.6 13.1 L18.85 13.3 18.9 13.3 18.95 13.35 19.0 13.4 19.15 13.55 19.35 13.65 19.55 13.8 19.55 14.0 19.15 13.7 18.6 13.3 18.6 13.1" fill="#a69afc" fill-rule="evenodd" stroke="none"/>
      <path d="M19.0 13.4 L18.8 13.05 18.75 13.0 18.75 12.9 18.85 12.75 19.4 13.45 19.45 13.45 19.6 13.55 19.85 13.7 19.9 13.7 19.95 13.95 19.9 14.0 19.55 13.8 19.35 13.65 19.15 13.55 19.0 13.4" fill="#2a2583" fill-rule="evenodd" stroke="none"/>
      <path d="M20.05 13.85 L20.15 14.05 20.0 14.2 20.0 14.55 19.9 14.7 19.85 14.25 19.55 14.0 19.55 13.8 19.9 14.0 19.95 13.95 20.0 13.85 20.05 13.85" fill="#a8a8ff" fill-rule="evenodd" stroke="none"/>
      <path d="M17.15 13.15 L17.85 13.45 18.0 13.6 18.05 13.6 18.0 13.9 17.85 13.75 17.15 13.15" fill="#ffdf10" fill-rule="evenodd" stroke="none"/>
      <path d="M18.0 13.9 L18.05 13.95 17.9 14.15 17.9 14.3 18.05 14.6 18.3 14.7 18.4 14.7 18.45 14.7 18.4 14.85 18.35 14.8 18.0 14.8 17.9 14.8 Q17.85 14.8 17.75 14.9 L17.7 14.95 17.55 14.8 17.75 14.45 17.7 14.4 17.65 14.3 17.6 14.1 17.5 14.1 17.3 13.9 17.7 13.9 17.85 13.75 18.0 13.9" fill="#f5d609" fill-rule="evenodd" stroke="none"/>
      <path d="M19.75 15.2 L19.7 15.45 19.7 15.5 19.6 15.4 19.45 15.3 19.45 15.25 19.25 15.05 19.05 14.9 18.9 14.75 18.7 14.55 18.4 14.25 18.35 14.2 18.15 14.0 18.1 14.0 18.05 13.95 18.0 13.9 18.05 13.6 18.25 13.8 18.35 13.95 18.4 13.95 18.6 14.15 18.75 14.3 19.0 14.55 19.05 14.55 19.2 14.7 19.25 14.75 19.75 15.2" fill="#ffe109" fill-rule="evenodd" stroke="none"/>
      <path d="M17.85 13.45 L17.4 13.05 17.15 12.8 17.05 12.75 17.0 12.75 16.95 12.7 17.0 12.55 17.0 12.5 17.05 12.5 17.15 12.6 17.3 12.7 17.3 12.75 17.7 13.05 18.4 13.7 18.8 14.1 18.75 14.3 18.6 14.15 18.4 13.95 18.35 13.95 18.25 13.8 18.05 13.6 18.0 13.6 17.85 13.45" fill="#593e8d" fill-rule="evenodd" stroke="none"/>
      <path d="M20.0 15.4 L19.85 15.3 19.75 15.2 19.25 14.75 19.2 14.7 19.05 14.55 19.0 14.55 18.75 14.3 18.8 14.1 19.2 14.4 19.95 15.1 20.0 15.1 20.0 15.4" fill="#6142b9" fill-rule="evenodd" stroke="none"/>
      <path d="M18.05 13.95 L18.1 14.0 18.15 14.0 18.35 14.2 18.4 14.25 18.7 14.55 18.9 14.75 18.7 14.75 18.45 14.7 18.4 14.7 18.3 14.7 18.05 14.6 17.9 14.3 17.9 14.15 18.05 13.95" fill="#f1c300" fill-rule="evenodd" stroke="none"/>
      <path d="M17.7 14.95 L17.75 14.9 Q17.85 14.8 17.9 14.8 L18.0 14.8 18.35 14.8 18.4 14.85 18.7 14.9 18.9 15.35 18.7 15.5 18.45 15.65 18.4 15.7 17.95 15.65 17.7 15.55 17.6 15.35 17.5 15.1 17.7 14.95" fill="#ecb502" fill-rule="evenodd" stroke="none"/>
      <path d="M18.9 14.75 L19.05 14.9 18.95 14.95 19.1 15.35 19.25 15.35 19.4 15.4 19.4 15.55 19.15 15.5 19.1 15.5 18.8 15.65 18.75 15.55 18.7 15.5 18.9 15.35 18.7 14.9 18.4 14.85 18.45 14.7 18.7 14.75 18.9 14.75" fill="#eec201" fill-rule="evenodd" stroke="none"/>
      <path d="M19.05 14.9 L19.25 15.05 19.45 15.25 19.45 15.3 19.6 15.4 19.5 15.4 19.4 15.4 19.25 15.35 19.1 15.35 18.95 14.95 19.05 14.9" fill="#f1a900" fill-rule="evenodd" stroke="none"/>
      <path d="M19.7 15.5 L19.7 15.55 19.4 15.55 19.4 15.4 19.5 15.4 19.6 15.4 19.7 15.5" fill="#f5ae00" fill-rule="evenodd" stroke="none"/>
      <path d="M20.05 15.45 L20.0 15.4 20.0 15.1 19.95 15.1 19.9 14.7 20.0 14.55 20.05 15.0 20.05 15.45" fill="#a292fd" fill-rule="evenodd" stroke="none"/>
      <path d="M16.95 13.05 L17.15 13.15 17.05 13.55 16.7 13.9 16.65 14.0 16.45 14.25 16.5 14.45 16.3 14.6 16.25 14.4 16.25 14.35 15.85 14.25 15.85 14.0 15.9 14.0 16.35 14.1 16.45 14.0 16.5 13.85 16.6 13.75 16.95 13.35 16.95 13.3 16.95 13.1 16.95 13.05" fill="#f1de00" fill-rule="evenodd" stroke="none"/>
      <path d="M16.5 14.45 L16.45 14.25 16.65 14.0 16.7 13.9 17.05 13.55 17.05 13.65 17.0 13.6 16.7 13.95 16.65 14.0 16.6 14.15 16.7 14.4 16.5 14.45" fill="#f7cf00" fill-rule="evenodd" stroke="none"/>
      <path d="M17.3 13.9 L17.5 14.1 17.5 14.15 17.6 14.3 17.65 14.3 17.7 14.4 17.75 14.45 17.55 14.8 17.5 14.8 17.35 14.95 17.3 15.0 17.2 15.0 16.9 14.7 16.9 14.65 16.8 14.55 16.7 14.4 16.6 14.15 16.65 14.0 16.7 13.95 17.0 13.6 17.05 13.65 17.3 13.9" fill="#fcff12" fill-rule="evenodd" stroke="none"/>
      <path d="M17.05 13.55 L17.15 13.15 17.85 13.75 17.7 13.9 17.3 13.9 17.05 13.65 17.05 13.55" fill="#fbce01" fill-rule="evenodd" stroke="none"/>
      <path d="M15.5 12.5 L15.5 12.55 15.6 12.6 15.75 12.7 15.9 12.75 16.3 13.05 16.4 13.1 16.75 13.4 16.8 13.4 16.6 13.75 16.5 13.85 16.45 14.0 16.35 14.05 15.9 13.8 15.65 13.7 15.4 13.6 15.1 13.4 15.05 13.4 14.95 13.35 15.0 13.3 15.5 12.5" fill="#fcfb0d" fill-rule="evenodd" stroke="none"/>
      <path d="M15.8 12.45 L16.0 12.55 15.9 12.75 15.75 12.7 15.8 12.45" fill="#fad701" fill-rule="evenodd" stroke="none"/>
      <path d="M15.85 14.0 L15.85 14.25 15.8 14.2 15.65 14.15 15.45 14.15 15.2 14.3 15.05 14.45 15.2 14.95 15.3 14.95 15.5 15.0 15.6 15.05 15.6 15.2 15.6 15.25 15.2 15.2 Q15.0 15.25 14.75 15.5 L14.9 15.95 14.7 15.95 14.65 15.95 14.55 15.55 14.5 15.55 14.15 15.4 13.95 15.4 14.0 15.3 14.0 15.2 14.5 15.35 14.95 15.0 14.8 14.5 14.55 14.45 14.6 14.25 14.85 14.25 15.25 13.95 15.1 13.55 15.05 13.4 15.1 13.4 15.4 13.6 15.45 13.75 15.5 13.85 15.85 14.0" fill="#f1b807" fill-rule="evenodd" stroke="none"/>
      <path d="M15.85 14.25 L16.25 14.35 16.25 14.4 16.3 14.6 16.35 14.7 16.35 14.9 16.25 14.95 15.85 15.1 15.6 15.05 15.5 15.0 15.3 14.95 15.2 14.95 15.05 14.45 15.2 14.3 15.45 14.15 15.65 14.15 15.8 14.2 15.85 14.25" fill="#edba00" fill-rule="evenodd" stroke="none"/>
      <path d="M18.7 15.5 L18.75 15.55 18.8 15.65 18.65 15.8 18.7 15.95 18.7 16.1 18.5 16.2 18.45 16.05 18.4 15.85 18.15 15.85 17.7 15.8 17.65 15.8 17.4 16.05 17.35 16.05 17.2 16.2 17.05 16.35 16.8 16.15 17.45 15.6 17.3 15.2 17.05 15.1 17.0 15.1 16.55 15.0 16.5 15.0 Q16.45 15.0 16.35 15.1 L16.1 15.25 16.35 15.8 16.1 15.7 16.0 15.7 15.85 15.3 15.6 15.25 15.6 15.2 15.6 15.05 15.85 15.1 16.25 14.95 16.35 14.9 16.35 14.7 16.3 14.6 16.5 14.45 16.6 14.65 16.65 14.8 17.2 15.0 17.3 15.0 17.35 14.95 17.5 14.8 17.55 14.8 17.7 14.95 17.5 15.1 17.6 15.35 17.7 15.55 17.95 15.65 18.4 15.7 18.45 15.65 18.7 15.5" fill="#f5c908" fill-rule="evenodd" stroke="none"/>
      <path d="M14.9 15.95 L14.75 15.5 Q15.0 15.25 15.2 15.2 L15.6 15.25 15.85 15.3 16.0 15.7 15.55 15.8 15.25 15.85 14.9 15.95" fill="#e3a105" fill-rule="evenodd" stroke="none"/>
      <path d="M16.35 15.8 L16.1 15.25 16.35 15.1 Q16.45 15.0 16.5 15.0 L16.55 15.0 17.0 15.1 17.05 15.1 17.3 15.2 17.45 15.6 16.8 16.15 16.45 15.9 16.35 15.85 16.35 15.8" fill="#edb603" fill-rule="evenodd" stroke="none"/>
      <path d="M17.5 14.1 L17.6 14.1 17.65 14.3 17.6 14.3 17.5 14.15 17.5 14.1" fill="#f6d800" fill-rule="evenodd" stroke="none"/>
      <path d="M16.7 14.4 L16.8 14.55 16.9 14.65 16.9 14.7 17.2 15.0 16.65 14.8 16.6 14.65 16.5 14.45 16.7 14.4" fill="#f6c900" fill-rule="evenodd" stroke="none"/>
      <path d="M17.05 16.35 L17.2 16.2 17.35 16.05 17.4 16.05 17.65 15.8 17.7 15.8 18.15 15.85 18.4 15.85 18.45 16.05 18.5 16.2 18.55 16.4 18.0 17.0 17.65 16.75 17.6 16.7 17.2 16.4 17.05 16.35" fill="#df9705" fill-rule="evenodd" stroke="none"/>
      <path d="M17.15 16.55 L17.05 16.6 17.05 16.65 16.9 16.8 16.6 17.15 16.45 17.0 16.2 16.75 16.1 16.6 16.15 16.4 16.15 16.35 16.3 16.0 16.3 15.95 16.95 16.4 17.15 16.55" fill="#5b304e" fill-rule="evenodd" stroke="none"/>
      <path d="M16.6 17.15 L16.9 16.8 17.05 16.65 17.05 16.6 17.15 16.55 17.7 16.95 17.75 17.05 18.0 17.2 17.9 17.25 17.8 17.3 17.75 17.35 17.2 17.65 17.15 17.6 16.6 17.15" fill="#473581" fill-rule="evenodd" stroke="none"/>
      <path d="M16.8 16.15 L17.05 16.35 17.2 16.4 17.6 16.7 17.65 16.75 18.0 17.0 18.0 17.2 17.75 17.05 17.7 16.95 17.15 16.55 16.95 16.4 16.3 15.95 16.0 15.7 16.1 15.7 16.35 15.8 16.35 15.85 16.45 15.9 16.8 16.15" fill="#592578" fill-rule="evenodd" stroke="none"/>
      <path d="M16.3 15.95 L16.3 16.0 16.15 16.35 16.15 16.4 16.1 16.6 16.1 16.5 15.6 16.75 15.5 16.6 15.4 16.35 15.4 16.3 15.25 15.85 15.55 15.8 16.0 15.7 16.3 15.95" fill="#572c3d" fill-rule="evenodd" stroke="none"/>
      <path d="M14.7 15.95 L14.9 15.95 15.25 15.85 15.4 16.3 15.4 16.35 15.5 16.6 15.6 16.75 15.05 17.05 15.0 17.2 15.0 17.25 14.85 16.95 14.8 16.65 14.75 16.5 14.7 16.15 14.7 15.95" fill="#481d31" fill-rule="evenodd" stroke="none"/>
      <path d="M16.1 16.6 L16.2 16.75 16.05 16.85 15.7 17.05 15.4 17.2 15.35 17.2 15.35 17.25 15.3 17.35 15.0 17.2 15.05 17.05 15.6 16.75 16.1 16.5 16.1 16.6" fill="#5d3859" fill-rule="evenodd" stroke="none"/>
      <path d="M16.2 16.75 L16.45 17.0 16.6 17.15 17.15 17.6 17.2 17.65 17.45 17.9 17.9 18.3 18.0 18.35 18.3 18.7 18.45 18.8 18.8 19.15 18.85 19.1 19.05 18.9 19.1 18.9 19.15 18.85 19.25 18.75 19.85 18.35 20.0 18.3 20.1 18.2 20.2 18.15 20.1 18.45 20.05 18.5 19.8 19.15 19.4 19.45 19.4 19.25 19.15 19.55 19.1 19.7 18.85 19.85 18.55 20.1 17.85 20.1 17.7 19.35 17.7 19.2 17.6 19.25 17.05 19.65 17.0 19.75 16.45 19.4 16.4 19.4 16.1 19.15 15.9 18.6 15.8 18.45 16.05 18.45 15.8 17.95 15.4 17.2 15.7 17.05 16.05 16.85 16.2 16.75 M16.45 18.3 L16.45 18.35 16.5 19.05 16.9 19.5 17.75 19.0 17.85 19.4 18.0 19.9 18.2 19.95 18.45 19.95 18.5 19.95 18.8 19.65 18.65 19.6 18.15 19.8 18.25 19.6 18.7 19.4 18.7 19.3 18.45 19.05 18.05 18.75 17.95 18.7 17.35 18.2 16.9 18.15 16.75 18.2 16.45 18.3" fill="#6787aa" fill-rule="evenodd" stroke="none"/>
      <path d="M15.0 17.2 L15.3 17.35 15.35 17.25 15.55 17.7 15.75 18.15 15.1 17.95 15.05 17.9 14.95 17.9 15.0 17.7 15.0 17.25 15.0 17.2" fill="#483563" fill-rule="evenodd" stroke="none"/>
      <path d="M15.4 17.2 L15.8 17.95 16.05 18.45 15.4 18.15 15.1 17.95 15.75 18.15 15.55 17.7 15.35 17.25 15.35 17.2 15.4 17.2" fill="#655091" fill-rule="evenodd" stroke="none"/>
      <path d="M16.05 18.45 L15.8 18.45 15.55 18.35 15.4 18.3 15.2 18.25 14.95 18.15 14.85 18.0 14.95 17.9 15.05 17.9 15.1 17.95 15.4 18.15 16.05 18.45" fill="#22122d" fill-rule="evenodd" stroke="none"/>
      <path d="M15.8 18.45 L15.9 18.6 16.1 19.15 15.75 19.25 15.7 19.2 15.4 18.3 15.55 18.35 15.8 18.45" fill="#3a2a59" fill-rule="evenodd" stroke="none"/>
      <path d="M14.95 18.15 L15.2 18.25 15.4 18.3 15.7 19.2 15.75 19.25 15.9 19.3 16.05 19.4 16.4 19.6 16.8 19.85 16.75 19.9 16.35 19.7 15.8 19.5 15.2 19.25 15.45 19.15 15.4 19.15 15.05 18.55 14.7 18.15 14.85 18.0 14.95 18.15" fill="#270d18" fill-rule="evenodd" stroke="none"/>
      <path d="M16.45 18.3 L16.75 18.2 16.9 18.15 17.35 18.2 17.95 18.7 18.05 18.75 18.45 19.05 18.7 19.3 18.7 19.4 18.25 19.6 18.15 19.8 18.65 19.6 18.8 19.65 18.5 19.95 18.45 19.95 18.2 19.95 18.0 19.9 17.85 19.4 17.75 19.0 16.9 19.5 16.5 19.05 16.45 18.35 16.45 18.3" fill="#d2e6e7" fill-rule="evenodd" stroke="none"/>
      <path d="M17.2 17.65 L17.75 17.35 17.8 17.3 17.9 17.25 18.0 17.2 18.65 17.7 18.7 17.75 18.55 18.0 18.55 18.05 18.35 18.55 18.25 18.45 18.05 18.2 17.6 17.8 17.45 17.9 17.2 17.65" fill="#5751b1" fill-rule="evenodd" stroke="none"/>
      <path d="M18.45 18.8 L18.3 18.7 18.0 18.35 17.9 18.3 17.45 17.9 17.6 17.8 18.05 18.2 18.25 18.45 18.35 18.55 18.45 18.6 18.45 18.8" fill="#716ac7" fill-rule="evenodd" stroke="none"/>
      <path d="M19.95 15.75 L20.0 15.85 20.05 15.8 20.2 15.6 20.15 15.9 20.1 16.05 20.1 16.2 20.0 16.5 20.0 16.55 20.0 16.7 19.85 16.65 19.85 16.4 19.9 16.2 19.95 16.15 19.95 15.75" fill="#f3b404" fill-rule="evenodd" stroke="none"/>
      <path d="M19.7 15.55 L19.75 15.6 19.95 15.75 19.95 16.15 19.9 16.2 19.4 16.5 19.15 16.4 19.0 16.4 18.8 16.35 18.75 16.3 18.7 16.15 18.7 16.1 18.7 15.95 18.65 15.8 18.8 15.65 19.1 15.5 19.15 15.5 19.4 15.55 19.7 15.55" fill="#e49902" fill-rule="evenodd" stroke="none"/>
      <path d="M20.1 16.05 L20.2 16.1 20.2 16.4 20.0 16.55 20.0 16.5 20.1 16.2 20.1 16.05" fill="#ca7000" fill-rule="evenodd" stroke="none"/>
      <path d="M18.1 17.1 L18.75 16.6 18.8 16.6 19.4 16.65 19.4 16.75 19.55 17.05 19.55 17.1 19.4 17.3 19.0 17.5 18.95 17.65 18.8 17.6 18.75 17.55 18.15 17.1 18.1 17.1" fill="#da7c00" fill-rule="evenodd" stroke="none"/>
      <path d="M18.5 16.2 L18.7 16.1 18.7 16.15 18.75 16.3 18.8 16.35 19.0 16.4 19.15 16.4 19.4 16.5 19.9 16.2 19.85 16.4 19.8 16.5 19.65 16.6 19.7 16.85 19.7 16.9 19.75 17.0 19.65 17.3 19.5 17.45 19.3 17.6 19.4 17.75 19.45 17.9 19.4 17.95 19.4 18.0 19.35 18.0 19.3 17.95 19.15 17.85 19.0 17.7 18.95 17.65 19.0 17.5 19.4 17.3 19.55 17.1 19.55 17.05 19.4 16.75 19.4 16.65 18.8 16.6 18.75 16.6 18.1 17.1 18.0 17.0 18.55 16.4 18.5 16.2" fill="#e79903" fill-rule="evenodd" stroke="none"/>
      <path d="M19.75 17.0 L19.7 16.9 19.7 16.85 19.65 16.6 19.8 16.5 19.85 16.4 19.85 16.65 19.8 16.9 19.75 17.0" fill="#d98700" fill-rule="evenodd" stroke="none"/>
      <path d="M20.0 16.7 L19.95 16.75 19.95 16.8 19.8 17.2 19.8 17.35 19.7 17.6 19.65 17.7 19.65 17.75 19.55 17.85 19.55 17.95 19.55 18.0 19.45 18.05 19.4 18.0 19.4 17.95 19.45 17.9 19.55 17.65 19.55 17.6 19.65 17.3 19.75 17.0 19.8 16.9 19.85 16.65 20.0 16.7" fill="#f6a810" fill-rule="evenodd" stroke="none"/>
      <path d="M18.7 17.75 L18.65 17.7 18.0 17.2 18.0 17.0 18.1 17.1 18.15 17.1 18.75 17.55 18.8 17.6 18.95 17.65 19.0 17.7 19.15 17.85 19.3 17.95 19.3 18.2 19.1 18.05 19.0 17.95 18.85 17.9 18.7 17.75" fill="#5e2880" fill-rule="evenodd" stroke="none"/>
      <path d="M18.35 18.55 L18.55 18.05 18.55 18.0 18.7 17.75 18.85 17.9 19.0 17.95 19.1 18.05 19.3 18.2 19.3 18.3 19.15 18.45 19.1 18.6 19.0 18.6 18.8 18.85 18.45 18.6 18.35 18.55" fill="#6860c5" fill-rule="evenodd" stroke="none"/>
      <path d="M19.8 17.35 L19.9 17.45 20.0 17.55 20.1 17.65 19.95 17.75 19.7 17.85 19.55 17.95 19.55 17.85 19.65 17.75 19.65 17.7 19.7 17.6 19.8 17.35" fill="#bd5a00" fill-rule="evenodd" stroke="none"/>
      <path d="M20.1 17.65 L20.15 17.6 20.1 17.9 19.85 18.05 19.45 18.3 19.35 18.25 19.35 18.2 19.3 18.2 19.3 17.95 19.35 18.0 19.4 18.0 19.45 18.05 19.55 18.0 19.55 17.95 19.7 17.85 19.95 17.75 20.1 17.65" fill="#1d124e" fill-rule="evenodd" stroke="none"/>
      <path d="M19.45 17.9 L19.4 17.75 19.3 17.6 19.5 17.45 19.65 17.3 19.55 17.6 19.55 17.65 19.45 17.9" fill="#cd5e04" fill-rule="evenodd" stroke="none"/>
      <path d="M19.25 18.75 L19.15 18.85 19.1 18.9 19.0 18.6 19.1 18.6 19.15 18.45 19.3 18.3 19.3 18.2 19.35 18.2 19.35 18.25 19.3 18.35 19.25 18.75" fill="#8880e5" fill-rule="evenodd" stroke="none"/>
      <path d="M15.05 13.4 L15.1 13.55 15.25 13.95 14.85 14.25 14.6 14.25 14.4 14.15 14.15 14.1 14.0 13.55 14.65 13.15 14.7 13.2 15.0 13.3 14.95 13.35 15.05 13.4" fill="#f4c601" fill-rule="evenodd" stroke="none"/>
      <path d="M14.6 14.25 L14.55 14.45 14.35 14.4 14.05 14.35 Q13.95 14.4 13.8 14.55 L13.7 14.4 13.65 14.35 13.7 14.3 13.85 14.2 13.65 13.6 13.4 13.55 13.45 13.45 13.5 13.4 13.55 13.4 13.85 13.45 14.45 13.1 14.65 13.15 14.0 13.55 14.15 14.1 14.4 14.15 14.6 14.25" fill="#f0bc08" fill-rule="evenodd" stroke="none"/>
      <path d="M13.25 12.6 L13.7 12.75 14.45 13.1 13.85 13.45 13.55 13.4 13.5 13.4 13.3 13.3 13.15 13.05 13.05 12.75 13.15 12.7 13.25 12.6" fill="#e9ba00" fill-rule="evenodd" stroke="none"/>
      <path d="M12.05 13.65 L12.1 13.4 12.3 13.5 12.35 13.5 12.55 13.4 12.85 13.25 12.85 13.2 13.15 13.05 13.3 13.3 13.5 13.4 13.45 13.45 13.4 13.55 13.1 13.45 12.85 13.6 12.7 13.75 12.75 14.0 12.5 14.15 12.4 13.75 12.05 13.65" fill="#ebaf01" fill-rule="evenodd" stroke="none"/>
      <path d="M12.1 13.4 L12.05 13.4 11.85 13.3 11.75 13.0 11.7 12.85 11.85 12.75 11.95 12.65 12.1 12.5 12.7 12.65 12.85 13.2 12.85 13.25 12.55 13.4 12.35 13.5 12.3 13.5 12.1 13.4" fill="#e39703" fill-rule="evenodd" stroke="none"/>
      <path d="M12.75 14.0 L12.7 13.75 12.85 13.6 13.1 13.45 13.4 13.55 13.65 13.6 13.85 14.2 13.7 14.3 13.65 14.35 13.55 14.45 13.1 14.35 12.85 14.25 12.75 14.0" fill="#e59e04" fill-rule="evenodd" stroke="none"/>
      <path d="M14.0 15.2 L14.0 15.3 13.95 15.4 13.85 15.35 13.7 15.45 13.45 15.55 13.5 15.8 13.65 16.1 13.8 16.15 13.8 16.35 13.7 16.25 13.55 16.35 13.45 16.4 13.4 16.35 13.3 16.3 13.4 16.2 13.3 15.85 13.3 15.8 13.25 15.65 13.0 15.55 12.9 15.5 12.95 15.35 13.25 15.4 13.55 15.25 13.5 15.0 13.4 14.7 13.0 14.55 12.7 14.45 12.5 14.65 12.3 14.4 12.5 14.25 12.5 14.15 12.75 14.0 12.85 14.25 13.1 14.35 13.55 14.45 13.65 14.35 13.7 14.4 13.8 14.55 13.65 14.7 13.7 14.9 13.8 15.1 14.0 15.2" fill="#e49407" fill-rule="evenodd" stroke="none"/>
      <path d="M12.5 14.65 L12.7 14.45 13.0 14.55 13.4 14.7 13.5 15.0 13.55 15.25 13.25 15.4 12.95 15.35 12.9 15.35 12.6 15.25 12.55 15.25 12.45 15.05 12.35 14.8 12.45 14.65 12.5 14.65" fill="#dd8404" fill-rule="evenodd" stroke="none"/>
      <path d="M12.3 14.4 L12.5 14.65 12.45 14.65 12.35 14.8 12.45 15.05 12.55 15.25 12.6 15.25 12.9 15.35 12.95 15.35 12.9 15.5 12.6 15.45 12.45 15.55 12.3 15.65 12.15 15.5 12.4 15.35 12.2 14.85 11.9 14.7 11.95 14.5 12.15 14.55 12.3 14.4" fill="#e2860b" fill-rule="evenodd" stroke="none"/>
      <path d="M14.55 14.45 L14.8 14.5 14.95 15.0 14.5 15.35 14.0 15.2 13.8 15.1 13.7 14.9 13.65 14.7 13.8 14.55 Q13.95 14.4 14.05 14.35 L14.35 14.4 14.55 14.45" fill="#e4a205" fill-rule="evenodd" stroke="none"/>
      <path d="M13.95 15.4 L14.15 15.4 14.5 15.55 14.55 15.55 14.65 15.95 14.1 16.15 14.05 16.15 14.05 16.2 13.8 16.15 13.65 16.1 13.5 15.8 13.45 15.55 13.7 15.45 13.85 15.35 13.95 15.4" fill="#dc8500" fill-rule="evenodd" stroke="none"/>
      <path d="M11.5 14.2 L11.45 13.95 11.55 13.75 11.85 13.6 12.05 13.65 12.4 13.75 12.5 14.15 12.5 14.25 12.3 14.4 12.15 14.55 11.95 14.5 11.8 14.45 11.6 14.35 11.55 14.3 11.5 14.2" fill="#dd8102" fill-rule="evenodd" stroke="none"/>
      <path d="M10.65 12.7 L10.8 12.6 11.35 12.8 11.45 13.1 11.5 13.4 11.15 13.6 10.95 13.6 10.9 13.55 10.65 13.45 10.45 12.9 10.65 12.7" fill="#d56c01" fill-rule="evenodd" stroke="none"/>
      <path d="M10.95 13.75 L11.2 13.9 11.3 14.3 11.35 14.45 11.05 14.65 10.75 14.6 10.45 14.45 10.25 13.95 10.4 13.85 10.65 13.7 10.95 13.75" fill="#ce5800" fill-rule="evenodd" stroke="none"/>
      <path d="M11.3 14.3 L11.5 14.2 11.55 14.3 11.6 14.35 11.8 14.45 11.95 14.5 11.9 14.7 11.5 14.6 11.3 14.8 11.2 14.95 11.4 15.4 11.6 15.45 11.75 15.5 11.75 15.65 11.4 15.6 11.3 15.65 11.05 15.85 11.15 16.05 11.15 16.15 11.25 16.35 11.3 16.4 11.35 16.45 11.55 16.5 11.6 16.5 11.55 16.65 11.45 16.65 11.35 16.6 11.3 16.65 11.25 16.75 11.2 16.65 11.05 16.4 10.85 16.2 10.9 15.95 10.9 15.9 10.65 15.85 10.5 15.65 10.9 15.65 11.15 15.45 10.95 14.9 10.7 14.8 10.75 14.6 11.05 14.65 11.35 14.45 11.3 14.3" fill="#d25e09" fill-rule="evenodd" stroke="none"/>
      <path d="M11.75 15.5 L11.6 15.45 11.4 15.4 11.2 14.95 11.3 14.8 11.5 14.6 11.9 14.7 12.2 14.85 12.4 15.35 12.15 15.5 12.05 15.5 11.95 15.55 11.9 15.55 11.75 15.5" fill="#ca5d00" fill-rule="evenodd" stroke="none"/>
      <path d="M12.8 17.5 L11.75 17.45 11.75 17.4 12.0 17.1 11.9 16.85 11.85 16.7 11.7 16.65 11.55 16.65 11.6 16.5 11.85 16.6 12.2 16.25 12.05 15.95 12.0 15.8 11.9 15.7 11.75 15.7 11.75 15.65 11.75 15.5 11.9 15.55 11.95 15.55 12.05 15.5 12.15 15.5 12.3 15.65 12.25 15.75 12.2 15.8 12.3 15.95 12.35 16.1 12.4 16.25 12.7 16.3 12.85 16.35 12.75 16.5 12.45 16.45 12.35 16.5 12.05 16.75 12.2 16.9 12.4 17.2 12.45 17.25 12.6 17.3 12.65 17.3 12.9 17.2 13.0 17.45 12.8 17.5" fill="#d25e07" fill-rule="evenodd" stroke="none"/>
      <path d="M12.9 15.5 L13.0 15.55 13.25 15.65 13.3 15.8 13.3 15.85 13.4 16.2 13.3 16.3 13.15 16.4 12.85 16.35 12.7 16.3 12.4 16.25 12.35 16.1 12.3 15.95 12.2 15.8 12.25 15.75 12.3 15.65 12.45 15.55 12.6 15.45 12.9 15.5" fill="#cf6300" fill-rule="evenodd" stroke="none"/>
      <path d="M11.6 16.5 L11.55 16.5 11.35 16.45 11.3 16.4 11.25 16.35 11.15 16.15 11.15 16.05 11.05 15.85 11.3 15.65 11.4 15.6 11.75 15.65 11.75 15.7 11.9 15.7 12.0 15.8 12.05 15.95 12.2 16.25 11.85 16.6 11.6 16.5" fill="#c84d00" fill-rule="evenodd" stroke="none"/>
      <path d="M11.25 16.75 L11.3 16.65 11.35 16.6 11.45 16.65 11.55 16.65 11.7 16.65 11.85 16.7 11.9 16.85 12.0 17.1 11.75 17.4 11.3 16.75 11.25 16.75" fill="#c44010" fill-rule="evenodd" stroke="none"/>
      <path d="M12.9 17.2 L12.65 17.3 12.6 17.3 12.45 17.25 12.4 17.2 12.2 16.9 12.05 16.75 12.35 16.5 12.45 16.45 12.75 16.5 13.1 16.6 13.25 17.0 12.9 17.2" fill="#c95001" fill-rule="evenodd" stroke="none"/>
      <path d="M10.65 15.85 L10.9 15.9 10.9 15.95 10.85 16.2 10.85 16.15 10.65 15.85" fill="#c04b00" fill-rule="evenodd" stroke="none"/>
      <path d="M12.05 17.75 L12.45 17.6 12.8 17.5 13.0 17.45 13.7 17.2 13.55 17.5 13.5 17.6 13.4 17.75 13.35 17.9 13.3 17.9 13.05 18.4 12.6 18.5 11.85 18.6 11.9 18.3 12.0 18.0 12.05 17.75" fill="#7f9fc8" fill-rule="evenodd" stroke="none"/>
      <path d="M12.55 18.85 L12.6 18.55 12.6 18.5 13.05 18.4 13.3 17.9 13.45 18.0 13.4 18.3 13.45 18.5 13.6 18.75 13.65 18.8 13.75 18.85 13.7 18.95 13.5 18.9 13.25 18.85 12.9 18.85 12.55 18.85" fill="#bfddf9" fill-rule="evenodd" stroke="none"/>
      <path d="M11.1 18.7 L11.3 18.7 11.65 18.6 11.85 18.6 12.6 18.5 12.6 18.55 12.55 18.85 12.0 18.8 11.85 18.8 11.3 18.85 11.05 18.85 11.1 18.7" fill="#b8cbf3" fill-rule="evenodd" stroke="none"/>
      <path d="M14.65 15.95 L14.7 15.95 14.7 16.15 14.75 16.5 14.8 16.65 14.85 16.95 15.0 17.25 15.0 17.7 14.95 17.9 14.85 18.0 14.7 18.15 14.15 17.5 14.5 17.5 14.5 17.45 14.25 16.8 14.25 16.75 14.15 16.4 14.1 16.35 14.05 16.2 14.05 16.15 14.1 16.15 14.65 15.95" fill="#261013" fill-rule="evenodd" stroke="none"/>
      <path d="M13.8 16.35 L13.8 16.15 14.05 16.2 14.1 16.35 14.15 16.4 14.1 16.4 13.8 16.35" fill="#e87a1b" fill-rule="evenodd" stroke="none"/>
      <path d="M13.45 16.4 L13.55 16.35 13.7 16.25 13.8 16.35 14.1 16.4 14.15 16.4 14.25 16.75 14.15 16.8 13.95 16.8 13.7 16.9 13.45 16.9 13.3 16.55 13.45 16.4" fill="#d55f07" fill-rule="evenodd" stroke="none"/>
      <path d="M14.25 16.75 L14.25 16.8 14.5 17.45 14.15 17.1 14.15 17.05 13.95 16.8 14.15 16.8 14.25 16.75" fill="#d4620c" fill-rule="evenodd" stroke="none"/>
      <path d="M13.3 16.3 L13.4 16.35 13.45 16.4 13.3 16.55 13.45 16.9 13.7 16.9 13.95 16.8 14.15 17.05 14.15 17.1 14.5 17.45 14.5 17.5 14.15 17.5 13.9 17.2 13.85 17.2 13.8 17.15 13.7 17.2 13.0 17.45 12.9 17.2 13.25 17.0 13.1 16.6 12.75 16.5 12.85 16.35 13.15 16.4 13.3 16.3" fill="#d56809" fill-rule="evenodd" stroke="none"/>
      <path d="M13.75 18.85 L13.65 18.8 13.6 18.75 13.45 18.5 13.4 18.3 13.45 18.0 13.5 18.0 13.55 17.85 13.7 17.5 13.85 17.2 13.9 17.2 14.15 17.5 14.7 18.15 15.05 18.55 15.4 19.15 14.55 19.05 14.35 19.0 14.3 19.0 14.1 18.95 13.75 18.85" fill="#a4bddc" fill-rule="evenodd" stroke="none"/>
      <path d="M13.45 18.0 L13.3 17.9 13.35 17.9 13.4 17.75 13.5 17.6 13.55 17.5 13.7 17.2 13.8 17.15 13.85 17.2 13.7 17.5 13.55 17.85 13.5 18.0 13.45 18.0" fill="#bdd9f1" fill-rule="evenodd" stroke="none"/>
      <path d="M13.7 18.95 L13.75 18.85 14.1 18.95 14.3 19.0 14.35 19.0 14.55 19.05 15.4 19.15 15.45 19.15 15.2 19.25 15.05 19.15 Q14.8 19.25 14.7 19.3 L14.3 19.15 14.0 19.05 13.9 19.0 13.7 18.95" fill="#bfcff3" fill-rule="evenodd" stroke="none"/>
      <path d="M15.2 19.25 L15.8 19.5 15.55 19.95 15.05 19.55 14.85 19.4 14.7 19.3 Q14.8 19.25 15.05 19.15 L15.2 19.25" fill="#b95300" fill-rule="evenodd" stroke="none"/>
      <path d="M12.55 18.85 L12.9 18.85 13.25 18.85 13.5 18.9 13.7 18.95 13.9 19.0 14.0 19.05 14.3 19.15 14.7 19.3 14.85 19.4 14.25 19.6 13.95 19.7 13.85 19.75 13.75 19.8 13.3 20.0 12.55 19.55 12.55 19.5 12.05 19.25 11.75 19.1 11.85 18.8 12.0 18.8 12.55 18.85" fill="#425178" fill-rule="evenodd" stroke="none"/>
      <path d="M13.85 19.75 L13.95 19.7 14.25 19.6 14.25 20.1 14.35 20.25 14.1 20.3 14.0 20.3 13.85 19.8 13.85 19.75" fill="#3a437a" fill-rule="evenodd" stroke="none"/>
      <path d="M14.85 19.4 L15.05 19.55 14.95 20.1 14.35 20.25 14.25 20.1 14.25 19.6 14.85 19.4" fill="#49010d" fill-rule="evenodd" stroke="none"/>
      <path d="M15.05 19.55 L15.55 19.95 15.65 20.0 16.35 20.5 16.9 20.9 17.05 20.9 17.15 20.9 17.2 20.9 18.55 20.9 18.55 21.15 18.5 21.15 17.7 21.1 17.05 21.1 17.0 21.05 16.2 20.65 16.05 21.0 15.4 20.7 14.95 20.4 14.95 20.1 15.05 19.55" fill="#1a1323" fill-rule="evenodd" stroke="none"/>
      <path d="M13.3 20.0 L13.75 19.8 13.95 20.3 13.95 20.35 14.35 21.55 14.45 21.9 14.5 22.1 14.55 22.15 14.65 22.25 14.2 22.5 14.05 22.6 13.95 22.05 14.0 21.9 14.05 21.8 14.05 21.65 14.1 21.55 13.8 20.7 13.55 20.45 13.0 20.1 13.3 20.0" fill="#23265d" fill-rule="evenodd" stroke="none"/>
      <path d="M13.85 19.75 L13.85 19.8 14.0 20.3 14.5 21.75 14.45 21.85 14.45 21.9 14.35 21.55 13.95 20.35 13.95 20.3 13.75 19.8 13.85 19.75" fill="#626ca1" fill-rule="evenodd" stroke="none"/>
      <path d="M13.3 20.0 L13.0 20.1 12.85 20.2 12.75 20.2 12.2 20.3 12.15 20.2 11.85 19.8 11.25 19.85 11.25 19.7 11.3 19.45 11.3 18.85 11.85 18.8 11.75 19.1 12.05 19.25 12.55 19.5 12.55 19.55 13.3 20.0" fill="#39406c" fill-rule="evenodd" stroke="none"/>
      <path d="M13.0 20.1 L13.55 20.45 13.8 20.7 14.1 21.55 14.05 21.65 14.0 21.65 13.65 21.75 13.45 21.25 13.35 21.0 13.0 20.15 12.85 20.2 13.0 20.1" fill="#242656" fill-rule="evenodd" stroke="none"/>
      <path d="M12.15 20.2 L12.2 20.3 12.75 20.2 12.85 20.2 13.0 20.15 13.35 21.0 13.1 21.35 12.85 21.65 12.7 21.4 12.75 21.4 12.75 21.35 12.6 21.35 12.5 21.35 12.4 21.35 12.1 21.35 11.9 21.35 11.7 21.1 12.0 20.45 12.05 20.35 12.15 20.2" fill="#35446f" fill-rule="evenodd" stroke="none"/>
      <path d="M11.9 21.35 L12.1 21.35 12.4 21.35 12.5 21.35 12.6 21.35 12.75 21.35 12.75 21.4 12.7 21.4 12.4 21.4 12.0 21.45 11.85 21.5 11.7 21.6 11.6 21.65 11.6 21.6 11.9 21.35" fill="#8b9fc0" fill-rule="evenodd" stroke="none"/>
      <path d="M12.7 21.4 L12.85 21.65 12.95 21.8 13.05 21.95 13.1 22.6 12.45 22.4 12.35 22.35 12.3 22.35 11.45 21.75 11.6 21.65 11.7 21.6 11.85 21.5 12.0 21.45 12.4 21.4 12.7 21.4" fill="#758eac" fill-rule="evenodd" stroke="none"/>
      <path d="M13.35 21.0 L13.45 21.25 13.65 21.75 14.0 22.6 14.0 22.7 13.85 23.05 13.7 23.05 13.35 23.0 13.1 22.95 13.1 22.6 13.05 21.95 12.95 21.8 12.85 21.65 13.1 21.35 13.35 21.0" fill="#3b4371" fill-rule="evenodd" stroke="none"/>
      <path d="M14.05 21.65 L14.05 21.8 14.0 21.9 13.95 22.05 14.05 22.6 14.0 22.6 13.65 21.75 14.0 21.65 14.05 21.65" fill="#252758" fill-rule="evenodd" stroke="none"/>
      <path d="M14.0 20.3 L14.1 20.3 14.35 20.25 15.25 21.75 15.05 21.85 14.65 22.05 14.55 21.95 14.5 21.75 14.0 20.3" fill="#42598f" fill-rule="evenodd" stroke="none"/>
      <path d="M14.35 20.25 L14.95 20.1 14.95 20.4 15.4 20.7 16.05 21.0 16.8 21.35 17.1 21.45 17.7 21.65 17.95 21.8 17.85 21.85 17.7 21.8 17.15 21.65 15.65 21.4 15.6 21.5 15.75 21.75 16.25 21.85 16.6 21.9 16.5 21.95 16.35 22.1 16.2 22.05 16.1 22.05 15.4 21.9 15.25 21.75 14.35 20.25" fill="#4a0e0d" fill-rule="evenodd" stroke="none"/>
      <path d="M10.75 19.95 L11.0 19.9 11.25 19.85 11.85 19.8 12.15 20.2 12.05 20.35 12.0 20.45 11.7 21.1 11.55 20.95 11.35 20.85 11.35 20.8 11.15 20.85 10.75 20.95 10.75 19.95" fill="#3b4970" fill-rule="evenodd" stroke="none"/>
      <path d="M10.75 22.35 L10.7 22.4 10.6 22.5 10.45 22.65 10.4 22.45 10.5 22.45 10.65 22.3 10.7 22.25 10.8 22.2 11.2 21.85 11.25 21.8 11.45 21.7 11.6 21.6 11.6 21.65 11.45 21.75 11.25 21.95 10.8 22.3 10.75 22.35" fill="#b9cadc" fill-rule="evenodd" stroke="none"/>
      <path d="M11.8 22.85 L11.0 22.5 10.95 22.45 10.8 22.3 11.25 21.95 11.45 21.75 12.3 22.35 12.35 22.35 11.8 22.85" fill="#88a0bc" fill-rule="evenodd" stroke="none"/>
      <path d="M13.1 23.3 L11.8 22.85 12.35 22.35 12.45 22.4 13.1 22.6 13.1 22.95 13.1 23.15 13.1 23.25 13.1 23.3" fill="#88a0ba" fill-rule="evenodd" stroke="none"/>
      <path d="M11.0 22.5 L10.75 22.35 10.8 22.3 10.95 22.45 11.0 22.5" fill="#9eb2b0" fill-rule="evenodd" stroke="none"/>
      <path d="M15.1 22.5 L14.75 22.2 14.65 22.05 15.05 21.85 15.25 21.75 15.4 21.9 16.1 22.05 15.4 22.35 15.1 22.5" fill="#85aade" fill-rule="evenodd" stroke="none"/>
      <path d="M14.65 22.25 L14.55 22.15 14.5 22.1 14.45 21.9 14.45 21.85 14.5 21.75 14.55 21.95 14.65 22.05 14.75 22.2 15.1 22.5 15.2 22.6 15.6 22.95 15.6 23.15 15.1 22.65 14.95 22.55 14.65 22.25" fill="#b2d2ff" fill-rule="evenodd" stroke="none"/>
      <path d="M14.35 23.5 L13.75 23.4 13.85 23.05 14.0 22.7 14.0 22.6 14.05 22.6 14.35 23.5" fill="#303962" fill-rule="evenodd" stroke="none"/>
      <path d="M15.4 23.5 L15.2 23.5 14.35 23.5 14.05 22.6 14.2 22.5 14.65 22.25 14.95 22.55 15.1 22.65 15.6 23.15 15.7 23.3 15.65 23.3 15.4 23.5" fill="#333e6b" fill-rule="evenodd" stroke="none"/>
      <path d="M13.75 23.4 L13.1 23.3 13.1 23.25 13.1 23.15 13.1 22.95 13.35 23.0 13.7 23.05 13.85 23.05 13.75 23.4" fill="#49597a" fill-rule="evenodd" stroke="none"/>
      <path d="M13.45 24.1 L13.55 24.2 13.45 24.2 13.45 24.1" fill="#444b67" fill-rule="evenodd" stroke="none"/>
      <path d="M19.1 18.9 L19.05 18.9 18.85 19.1 18.8 19.15 18.45 18.8 18.45 18.6 18.8 18.85 19.0 18.6 19.1 18.9" fill="#947de5" fill-rule="evenodd" stroke="none"/>
      <path d="M19.7 19.55 L19.7 19.6 19.85 19.55 19.6 20.05 19.45 20.3 19.4 20.35 19.4 20.3 19.5 19.7 19.5 19.55 19.5 19.45 19.55 19.4 19.7 19.3 19.7 19.55" fill="#b63800" fill-rule="evenodd" stroke="none"/>
      <path d="M19.4 19.25 L19.4 19.45 19.4 19.5 19.5 19.45 19.5 19.55 19.5 19.7 19.4 20.3 19.4 20.35 19.15 20.85 19.25 20.2 19.25 20.0 19.25 19.95 19.3 19.85 19.35 19.5 19.4 19.25" fill="#cd4c0a" fill-rule="evenodd" stroke="none"/>
      <path d="M19.8 19.5 L19.7 19.55 19.7 19.3 19.55 19.4 19.5 19.45 19.4 19.5 19.4 19.45 19.8 19.15 19.8 19.5 M18.55 20.1 L18.85 19.85 19.1 19.7 18.85 20.1 18.55 20.1" fill="#221e37" fill-rule="evenodd" stroke="none"/>
      <path d="M19.1 19.7 L19.15 19.55 19.15 19.65 19.15 19.95 19.15 20.0 19.15 20.25 19.1 20.9 18.9 20.3 18.85 20.15 18.85 20.1 19.1 19.7" fill="#f9c809" fill-rule="evenodd" stroke="none"/>
      <path d="M19.15 19.55 L19.4 19.25 19.35 19.5 19.3 19.85 19.25 19.95 19.25 20.0 19.25 20.2 19.15 20.85 19.1 20.9 19.15 20.25 19.15 20.0 19.15 19.95 19.15 19.65 19.15 19.55" fill="#ffdd24" fill-rule="evenodd" stroke="none"/>
      <path d="M17.85 20.1 L18.55 20.1 18.85 20.1 18.85 20.15 18.9 20.3 18.7 20.3 18.3 20.3 18.0 20.3 17.75 20.3 17.85 20.1" fill="#ffeb01" fill-rule="evenodd" stroke="none"/>
      <path d="M19.45 20.3 L19.55 20.55 19.55 20.6 19.45 20.8 19.1 21.2 19.0 21.25 18.95 21.25 18.55 21.15 18.55 20.9 19.1 20.9 19.15 20.85 19.4 20.35 19.45 20.3" fill="#232440" fill-rule="evenodd" stroke="none"/>
      <path d="M18.55 21.15 L18.95 21.25 19.0 21.25 18.7 21.65 18.55 21.8 18.55 21.15" fill="#2b224f" fill-rule="evenodd" stroke="none"/>
      <path d="M18.55 20.9 L17.2 20.9 17.75 20.3 18.0 20.3 18.3 20.3 18.7 20.3 18.9 20.3 19.1 20.9 18.55 20.9" fill="#f4c200" fill-rule="evenodd" stroke="none"/>
      <path d="M17.7 21.1 L18.5 21.15 18.55 21.15 18.55 21.8 18.45 21.95 18.25 21.9 18.15 21.85 17.95 21.8 17.7 21.65 17.7 21.1" fill="#473370" fill-rule="evenodd" stroke="none"/>
      <path d="M19.7 22.25 L18.95 22.65 18.8 22.5 19.1 22.35 19.5 22.15 19.25 22.2 18.95 22.25 18.75 22.2 18.75 22.05 18.75 22.0 18.95 21.75 19.1 21.65 19.25 21.55 19.4 21.55 19.8 21.65 19.7 21.95 19.7 22.25" fill="#d1270e" fill-rule="evenodd" stroke="none"/>
      <path d="M17.7 19.35 L17.85 20.1 17.75 20.3 17.2 20.9 17.3 20.6 17.3 20.55 17.35 20.5 17.45 20.1 17.55 19.7 17.7 19.4 17.7 19.35" fill="#f6dc03" fill-rule="evenodd" stroke="none"/>
      <path d="M17.6 19.25 L17.7 19.2 17.7 19.35 17.7 19.4 17.55 19.7 17.45 20.1 17.35 20.5 17.3 20.55 17.3 20.6 17.2 20.9 17.15 20.9 17.25 20.55 17.3 20.5 17.55 19.6 17.6 19.25" fill="#fff52f" fill-rule="evenodd" stroke="none"/>
      <path d="M17.0 19.75 L17.05 19.65 17.6 19.25 17.55 19.6 17.3 20.5 17.25 20.55 17.15 20.9 17.05 20.9 16.9 20.5 16.9 20.4 16.85 20.25 16.75 19.9 16.8 19.85 17.0 19.75" fill="#e5a200" fill-rule="evenodd" stroke="none"/>
      <path d="M16.1 19.15 L16.4 19.4 16.45 19.4 17.0 19.75 16.8 19.85 16.4 19.6 16.05 19.4 15.9 19.3 15.75 19.25 16.1 19.15" fill="#523c6d" fill-rule="evenodd" stroke="none"/>
      <path d="M15.8 19.5 L16.35 19.7 16.35 20.5 15.65 20.0 15.55 19.95 15.8 19.5" fill="#d66d00" fill-rule="evenodd" stroke="none"/>
      <path d="M16.6 21.9 L16.25 21.85 15.75 21.75 15.6 21.5 15.65 21.4 17.15 21.65 17.7 21.8 17.85 21.85 18.15 21.95 18.35 22.05 18.35 22.25 18.15 22.25 17.75 22.2 17.75 22.25 17.7 22.2 17.65 22.25 17.55 22.25 17.55 22.2 17.45 22.15 16.6 21.9" fill="#b91b18" fill-rule="evenodd" stroke="none"/>
      <path d="M16.05 21.0 L16.2 20.65 17.0 21.05 16.85 21.05 16.8 21.35 16.05 21.0" fill="#45213d" fill-rule="evenodd" stroke="none"/>
      <path d="M16.35 19.7 L16.75 19.9 16.85 20.25 16.9 20.4 16.9 20.5 17.05 20.9 16.9 20.9 16.35 20.5 16.35 19.7" fill="#e48f01" fill-rule="evenodd" stroke="none"/>
      <path d="M17.0 21.05 L17.05 21.1 17.7 21.1 17.7 21.65 17.1 21.45 16.8 21.35 16.85 21.05 17.0 21.05" fill="#46365d" fill-rule="evenodd" stroke="none"/>
      <path d="M17.7 23.15 L17.5 23.2 17.4 22.75 17.3 22.25 17.2 22.25 17.05 22.2 16.35 22.1 16.5 21.95 16.6 21.9 17.45 22.15 17.7 23.1 17.7 23.15" fill="#7a0f09" fill-rule="evenodd" stroke="none"/>
      <path d="M16.95 23.35 L16.1 23.45 16.05 23.3 16.15 23.2 16.45 22.95 16.55 22.8 17.2 22.25 17.3 22.25 17.4 22.75 16.95 23.35" fill="#628dba" fill-rule="evenodd" stroke="none"/>
      <path d="M17.45 22.15 L17.55 22.2 17.55 22.25 17.65 22.25 17.7 22.2 17.75 22.25 18.1 22.3 18.15 22.35 18.55 22.45 18.7 22.65 18.2 22.9 17.7 23.1 17.45 22.15" fill="#df270b" fill-rule="evenodd" stroke="none"/>
      <path d="M18.75 22.75 L17.7 23.15 17.7 23.1 18.2 22.9 18.7 22.65 18.75 22.75" fill="#ef2406" fill-rule="evenodd" stroke="none"/>
      <path d="M17.5 23.2 L16.95 23.35 17.4 22.75 17.5 23.2" fill="#628abd" fill-rule="evenodd" stroke="none"/>
      <path d="M17.05 22.2 L17.2 22.25 16.55 22.8 16.45 22.95 16.35 22.8 17.05 22.2" fill="#a9d1ff" fill-rule="evenodd" stroke="none"/>
      <path d="M15.6 22.95 L15.2 22.6 15.1 22.5 15.4 22.35 16.1 22.05 16.2 22.05 16.35 22.1 17.05 22.2 16.35 22.8 16.1 23.0 16.1 23.05 16.05 23.1 15.8 23.1 15.6 22.95" fill="#81aae2" fill-rule="evenodd" stroke="none"/>
      <path d="M16.1 23.45 L15.85 23.5 15.8 23.4 15.7 23.3 15.6 23.15 15.6 22.95 15.8 23.1 16.05 23.1 16.1 23.05 16.1 23.0 16.35 22.8 16.45 22.95 16.15 23.2 16.05 23.3 16.1 23.45" fill="#b0cffb" fill-rule="evenodd" stroke="none"/>
      <path d="M16.15 23.65 L16.3 24.05 16.3 24.15 16.35 24.2 16.2 24.2 16.2 24.15 16.05 23.85 16.15 23.65" fill="#9bc0ec" fill-rule="evenodd" stroke="none"/>
      <path d="M15.85 23.5 L15.4 23.5 15.65 23.3 15.7 23.3 15.8 23.4 15.85 23.5" fill="#36416f" fill-rule="evenodd" stroke="none"/>
      <path d="M20.0 22.05 L19.7 22.25 19.7 21.95 20.0 22.05" fill="#7b140d" fill-rule="evenodd" stroke="none"/>
      <path d="M18.95 22.65 L18.95 22.75 18.85 22.7 18.8 22.65 18.7 22.65 18.55 22.45 18.15 22.35 18.1 22.3 17.75 22.25 17.75 22.2 18.15 22.25 18.35 22.25 18.35 22.05 18.15 21.95 17.85 21.85 17.95 21.8 18.15 21.85 18.25 21.9 18.45 21.95 18.55 21.8 18.7 21.65 18.95 21.75 18.75 22.0 18.75 22.05 18.75 22.2 18.95 22.25 19.25 22.2 19.5 22.15 19.1 22.35 18.8 22.5 18.95 22.65" fill="#61100f" fill-rule="evenodd" stroke="none"/>
      <path d="M18.85 22.7 L18.75 22.75 18.7 22.65 18.8 22.65 18.85 22.7" fill="#941001" fill-rule="evenodd" stroke="none"/>
      <path d="M21.8 10.2 L21.75 10.4 21.7 10.75 21.65 11.35 21.65 11.4" fill="none" stroke="#430819" stroke-linecap="round" stroke-linejoin="round" stroke-width="0.1"/>
      <path d="M17.4 10.25 L17.45 10.25 18.55 10.15 20.3 9.95 20.9 9.4 20.95 9.4" fill="none" stroke="#3c3e4a" stroke-linecap="round" stroke-linejoin="round" stroke-width="0.1"/>
      <path d="M20.6 12.35 L21.1 11.9 21.65 11.4 M20.45 13.0 L20.45 12.75 20.5 12.4 20.6 12.35 M20.4 13.5 L20.45 13.0" fill="none" stroke="#6b0d0e" stroke-linecap="round" stroke-linejoin="round" stroke-width="0.1"/>
      <path d="M22.3 10.9 L22.3 11.0 22.3 11.1 22.3 11.15 22.3 11.3" fill="none" stroke="#190e2e" stroke-linecap="round" stroke-linejoin="round" stroke-width="0.1"/>
      <path d="M22.3 11.3 L21.9 11.75 21.65 12.0 21.65 12.05 21.6 12.1 21.2 12.55 20.9 12.9 20.65 13.25" fill="none" stroke="#1f1337" stroke-linecap="round" stroke-linejoin="round" stroke-width="0.1"/>
      <path d="M22.0 12.0 L22.05 11.9 M22.0 12.0 L21.75 12.45 21.65 12.6 21.45 13.0 21.3 13.3 21.25 13.3 21.1 13.65 20.8 14.15 20.65 14.4 20.2 15.25 20.05 15.45" fill="none" stroke="#d3500c" stroke-linecap="round" stroke-linejoin="round" stroke-width="0.1"/>
      <path d="M23.45 13.45 L23.15 14.1 22.85 14.65 22.4 15.55 22.35 15.55 22.35 15.65 22.2 15.9 22.0 16.35 21.9 16.55 21.7 16.9 21.6 17.2 21.55 17.25 21.4 17.6 M22.05 11.9 L22.2 11.9 22.25 11.9 22.8 11.9 22.9 11.9" fill="none" stroke="#a11a00" stroke-linecap="round" stroke-linejoin="round" stroke-width="0.1"/>
      <path d="M20.65 13.25 L20.4 13.5 20.3 13.6 20.25 13.65 20.05 13.85 20.0 13.85 19.95 13.95 19.9 14.0" fill="none" stroke="#18126a" stroke-linecap="round" stroke-linejoin="round" stroke-width="0.1"/>
      <path d="M21.4 17.6 L21.35 17.6 21.25 17.6 21.1 17.65 21.05 17.7 21.0 17.7 21.05 17.4 21.05 17.35 21.05 17.2 21.05 17.05 20.7 17.3 20.65 17.35 20.55 17.35 20.4 17.5 20.25 17.55 20.25 17.6 20.15 17.6 20.1 17.65 19.95 17.75 19.7 17.85 19.55 17.95 19.55 18.0 19.45 18.05" fill="none" stroke="#b2160a" stroke-linecap="round" stroke-linejoin="round" stroke-width="0.1"/>
      <path d="M21.1 17.65 L21.1 18.05 20.9 18.3 20.85 18.3 20.85 18.5 20.8 18.55 20.8 18.6 20.75 18.65 20.4 19.0 20.25 19.1 20.15 19.25 19.8 19.55 19.8 19.5 19.8 19.15 20.05 18.5 20.1 18.45 20.2 18.15" fill="none" stroke="#16083f" stroke-linecap="round" stroke-linejoin="round" stroke-width="0.1"/>
      <path d="M21.1 18.05 L21.2 18.0" fill="none" stroke="#242249" stroke-linecap="round" stroke-linejoin="round" stroke-width="0.1"/>
      <path d="M21.2 18.0 L22.3 18.85 22.7 19.25" fill="none" stroke="#4a4f75" stroke-linecap="round" stroke-linejoin="round" stroke-width="0.1"/>
      <path d="M21.1 21.2 L21.1 21.1 21.15 20.6 21.15 20.25 21.2 19.8 21.2 19.35 21.15 19.25 21.05 18.95 21.05 18.9 20.85 18.5" fill="none" stroke="#280219" stroke-linecap="round" stroke-linejoin="round" stroke-width="0.1"/>
      <path d="M20.4 21.0 L20.4 21.75 M19.55 20.55 L19.85 20.65 20.4 20.75 20.4 21.0 M14.35 20.25 L14.95 20.1" fill="none" stroke="#2a0306" stroke-linecap="round" stroke-linejoin="round" stroke-width="0.1"/>
      <path d="M11.6 9.3 L11.45 9.2 11.25 9.05 10.55 8.5 M12.75 10.2 L13.1 10.4 13.4 10.6 13.45 10.65 13.55 10.7 M11.6 9.3 L12.75 10.2" fill="none" stroke="#14061d" stroke-linecap="round" stroke-linejoin="round" stroke-width="0.1"/>
      <path d="M12.05 7.8 L12.35 8.25 12.55 8.4 13.3 8.95 14.0 9.4 15.8 10.4 15.95 10.5 17.85 11.45 17.85 11.5 17.9 11.5 18.45 12.4 18.6 12.7 18.75 12.9 18.75 13.0 18.8 13.05 19.0 13.4" fill="none" stroke="#50040e" stroke-linecap="round" stroke-linejoin="round" stroke-width="0.1"/>
      <path d="M11.5 10.75 L12.15 10.8 12.35 10.85 12.75 10.9 12.75 10.95 13.15 11.0 13.45 11.05 13.55 11.05 M10.2 10.5 L11.15 10.65 11.3 10.7 11.5 10.75 M10.2 10.5 L9.65 10.4" fill="none" stroke="#ac2900" stroke-linecap="round" stroke-linejoin="round" stroke-width="0.1"/>
      <path d="M13.7 11.1 L13.55 11.05 M17.05 12.75 L17.0 12.75 16.95 12.7 16.9 12.7 16.55 12.5 16.1 12.3 15.95 12.2 15.8 12.15 15.5 12.0 15.0 11.75 13.7 11.1" fill="none" stroke="#c63522" stroke-linecap="round" stroke-linejoin="round" stroke-width="0.1"/>
      <path d="M13.55 10.7 L14.5 11.05 15.1 11.3 15.75 11.5 16.05 11.65 16.75 11.9 17.1 12.05 17.15 12.1 17.25 12.15 17.8 12.55 18.0 12.7 18.4 13.0 18.45 13.05 18.6 13.1 18.85 13.3 18.9 13.3" fill="none" stroke="#2d0d43" stroke-linecap="round" stroke-linejoin="round" stroke-width="0.1"/>
      <path d="M14.0 9.4 L16.6 10.0 17.4 10.25 M21.1 11.9 L20.05 11.3 19.5 11.05 19.1 10.9 17.7 10.35 17.45 10.25" fill="none" stroke="#151219" stroke-linecap="round" stroke-linejoin="round" stroke-width="0.1"/>
      <path d="M9.3 9.45 L9.65 10.4" fill="none" stroke="#be2213" stroke-linecap="round" stroke-linejoin="round" stroke-width="0.1"/>
      <path d="M10.8 16.6 L10.55 16.25 9.95 15.5 9.5 14.85 9.1 14.3 8.75 13.85 8.7 13.8 7.45 11.9 M10.95 16.8 L10.8 16.6 M11.5 17.4 L11.1 16.95 10.95 16.8" fill="none" stroke="#a11901" stroke-linecap="round" stroke-linejoin="round" stroke-width="0.1"/>
      <path d="M8.15 19.0 L8.25 18.9 8.35 18.75 8.6 18.35 8.7 18.15 8.8 18.05 8.85 17.95 9.1 17.55 9.8 17.15 10.8 16.6" fill="none" stroke="#3c384f" stroke-linecap="round" stroke-linejoin="round" stroke-width="0.1"/>
      <path d="M11.1 16.95 L10.4 17.6 9.95 18.0 9.9 18.05 9.75 18.25 9.75 18.3 9.75 18.35 9.85 18.5 9.9 18.5 10.4 18.3 10.6 18.25 11.05 18.1 12.05 17.75 12.45 17.6 12.8 17.5 13.0 17.45 13.7 17.2 13.8 17.15" fill="none" stroke="#162343" stroke-linecap="round" stroke-linejoin="round" stroke-width="0.1"/>
      <path d="M11.0 19.9 L10.6 19.7 9.7 19.4 9.55 19.35 8.15 19.0" fill="none" stroke="#282457" stroke-linecap="round" stroke-linejoin="round" stroke-width="0.1"/>
      <path d="M8.8 20.8 Q9.25 20.5 9.7 20.3 L10.2 20.1 10.75 19.95 11.0 19.9 11.25 19.85 11.85 19.8" fill="none" stroke="#171c39" stroke-linecap="round" stroke-linejoin="round" stroke-width="0.1"/>
      <path d="M18.9 13.3 L18.95 13.35 19.0 13.4 19.15 13.55 19.35 13.65 19.55 13.8 19.9 14.0" fill="none" stroke="#1a1370" stroke-linecap="round" stroke-linejoin="round" stroke-width="0.1"/>
      <path d="M20.05 15.45 L20.0 15.4 19.85 15.3 19.75 15.2 19.25 14.75 19.2 14.7 19.05 14.55 19.0 14.55 18.75 14.3 18.6 14.15 18.4 13.95 18.35 13.95 18.25 13.8 18.05 13.6 18.0 13.6 17.85 13.45 17.4 13.05 17.15 12.8 17.05 12.75" fill="none" stroke="#c06512" stroke-linecap="round" stroke-linejoin="round" stroke-width="0.1"/>
      <path d="M16.8 16.15 L17.05 16.35 17.2 16.4 17.6 16.7 17.65 16.75 18.0 17.0 18.1 17.1 18.15 17.1 18.75 17.55 18.8 17.6 18.95 17.65 19.0 17.7 19.15 17.85 19.3 17.95 19.35 18.0 19.4 18.0 19.45 18.05 M16.1 15.7 L16.35 15.8 16.35 15.85 16.45 15.9 16.8 16.15" fill="none" stroke="#cb4b04" stroke-linecap="round" stroke-linejoin="round" stroke-width="0.1"/>
      <path d="M14.65 15.95 L14.7 15.95 14.9 15.95 15.25 15.85 15.55 15.8 16.0 15.7 16.1 15.7 M14.65 15.95 L14.1 16.15 14.05 16.15 14.05 16.2 14.1 16.35 14.15 16.4 14.25 16.75 14.25 16.8 14.5 17.45 14.5 17.5" fill="none" stroke="#b3250f" stroke-linecap="round" stroke-linejoin="round" stroke-width="0.1"/>
      <path d="M16.2 16.75 L16.05 16.85 15.7 17.05 15.4 17.2" fill="none" stroke="#2c1333" stroke-linecap="round" stroke-linejoin="round" stroke-width="0.1"/>
      <path d="M16.2 16.75 L16.45 17.0 16.6 17.15 17.15 17.6" fill="none" stroke="#2e102c" stroke-linecap="round" stroke-linejoin="round" stroke-width="0.1"/>
      <path d="M15.4 17.2 L15.8 17.95 16.05 18.45 15.8 18.45 15.9 18.6 16.1 19.15 16.4 19.4 16.45 19.4 17.0 19.75 M15.4 18.3 L15.55 18.35 15.8 18.45 M14.95 18.15 L15.2 18.25 15.4 18.3" fill="none" stroke="#160633" stroke-linecap="round" stroke-linejoin="round" stroke-width="0.1"/>
      <path d="M17.15 17.6 L17.2 17.65 17.45 17.9 17.9 18.3 18.0 18.35 18.3 18.7 18.45 18.8 18.8 19.15" fill="none" stroke="#110d59" stroke-linecap="round" stroke-linejoin="round" stroke-width="0.1"/>
      <path d="M20.2 18.15 L20.1 18.2 20.0 18.3 19.85 18.35 19.25 18.75 19.15 18.85 19.1 18.9 19.05 18.9 18.85 19.1 18.8 19.15" fill="none" stroke="#0e0544" stroke-linecap="round" stroke-linejoin="round" stroke-width="0.1"/>
      <path d="M12.8 17.5 L11.75 17.45 11.7 17.45 11.5 17.4 M14.5 17.5 L14.15 17.5" fill="none" stroke="#ad200e" stroke-linecap="round" stroke-linejoin="round" stroke-width="0.1"/>
      <path d="M14.15 17.5 L14.7 18.15 15.05 18.55 15.4 19.15 15.45 19.15 M13.85 17.2 L13.9 17.2 14.15 17.5 M13.85 17.2 L13.8 17.15" fill="none" stroke="#3b384d" stroke-linecap="round" stroke-linejoin="round" stroke-width="0.1"/>
      <path d="M19.85 19.55 L19.6 20.05 19.45 20.3 19.4 20.35 19.15 20.85 19.1 20.9 18.55 20.9 17.2 20.9 17.15 20.9 17.05 20.9 16.9 20.9 M14.7 19.3 Q14.8 19.25 15.05 19.15" fill="none" stroke="#a31016" stroke-linecap="round" stroke-linejoin="round" stroke-width="0.1"/>
      <path d="M15.45 19.15 L15.2 19.25 M14.25 19.6 L13.95 19.7 13.85 19.75 13.75 19.8 13.3 20.0 13.0 20.1 12.85 20.2 M14.25 19.6 L14.85 19.4" fill="none" stroke="#162753" stroke-linecap="round" stroke-linejoin="round" stroke-width="0.1"/>
      <path d="M14.25 20.1 L14.25 19.6" fill="none" stroke="#201648" stroke-linecap="round" stroke-linejoin="round" stroke-width="0.1"/>
      <path d="M14.7 19.3 L14.85 19.4 15.05 19.55 15.55 19.95 15.65 20.0 16.35 20.5 16.9 20.9" fill="none" stroke="#af230c" stroke-linecap="round" stroke-linejoin="round" stroke-width="0.1"/>
      <path d="M14.95 20.1 L15.05 19.55 M14.95 20.1 L14.95 20.4 15.4 20.7 16.05 21.0 16.8 21.35 17.1 21.45 17.7 21.65 17.95 21.8 18.15 21.85 18.25 21.9 18.45 21.95" fill="none" stroke="#0d0b18" stroke-linecap="round" stroke-linejoin="round" stroke-width="0.1"/>
      <path d="M12.15 20.2 L12.2 20.3 12.75 20.2 12.85 20.2 13.0 20.15 M11.85 19.8 L12.15 20.2" fill="none" stroke="#141b47" stroke-linecap="round" stroke-linejoin="round" stroke-width="0.1"/>
      <path d="M13.0 20.15 L13.35 21.0 13.45 21.25 13.65 21.75 14.0 22.6 14.0 22.7 13.85 23.05 13.75 23.4" fill="none" stroke="#13143f" stroke-linecap="round" stroke-linejoin="round" stroke-width="0.1"/>
      <path d="M14.35 20.25 L14.25 20.1 M15.25 21.75 L14.35 20.25 M15.4 21.9 L15.25 21.75" fill="none" stroke="#1c1a3f" stroke-linecap="round" stroke-linejoin="round" stroke-width="0.1"/>
      <path d="M19.7 19.55 L19.7 19.6 19.85 19.55 M19.4 19.25 L19.4 19.45 19.4 19.5 19.5 19.45 19.55 19.4 19.7 19.3 19.7 19.55" fill="none" stroke="#ba3009" stroke-linecap="round" stroke-linejoin="round" stroke-width="0.1"/>
      <path d="M19.1 19.7 L19.15 19.55 19.4 19.25 M18.85 20.1 L19.1 19.7" fill="none" stroke="#e67f16" stroke-linecap="round" stroke-linejoin="round" stroke-width="0.1"/>
      <path d="M17.85 20.1 L18.55 20.1 18.85 20.1" fill="none" stroke="#c76600" stroke-linecap="round" stroke-linejoin="round" stroke-width="0.1"/>
      <path d="M19.45 20.3 L19.55 20.55 19.55 20.6 19.45 20.8 19.1 21.2 19.0 21.25 18.7 21.65 18.55 21.8 18.45 21.95" fill="none" stroke="#120a17" stroke-linecap="round" stroke-linejoin="round" stroke-width="0.1"/>
      <path d="M17.0 19.75 L17.05 19.65 17.6 19.25 17.7 19.2 17.7 19.35 17.85 20.1 M16.75 19.9 L16.8 19.85 17.0 19.75" fill="none" stroke="#b35b14" stroke-linecap="round" stroke-linejoin="round" stroke-width="0.1"/>
      <path d="M15.2 19.25 L15.8 19.5 16.35 19.7 16.75 19.9 M15.05 19.15 L15.2 19.25" fill="none" stroke="#b2340e" stroke-linecap="round" stroke-linejoin="round" stroke-width="0.1"/>
      <path d="M16.1 22.05 L15.4 21.9 M17.2 22.25 L17.3 22.25 17.4 22.75 17.5 23.2 M16.35 22.1 L17.05 22.2 17.2 22.25 M16.1 22.05 L16.2 22.05 16.35 22.1" fill="none" stroke="#313a7f" stroke-linecap="round" stroke-linejoin="round" stroke-width="0.1"/>
      <path d="M6.75 15.25 Q6.75 12.05 9.1 9.7 L9.2 9.6 Q11.65 7.3 15.25 7.3 L15.95 7.3 Q9.25 12.55 10.2 21.8 L9.2 20.95 9.05 20.8 Q6.75 18.5 6.75 15.25" fill="#ffffff" fill-opacity="0.2" fill-rule="evenodd" stroke="none"/>
      <path d="M10.7 11.8 L9.5 13.15 Q8.95 13.05 8.85 12.75 L8.85 12.4 Q9.15 10.8 10.6 9.7 11.2 9.2 11.55 9.3 11.95 9.4 11.8 10.1 L10.7 11.8 M8.25 14.6 Q8.35 13.8 9.15 13.9 10.0 14.0 9.85 14.75 L9.5 15.25 8.85 15.5 Q8.3 15.4 8.2 15.0 L8.25 14.6" fill="#ffffff" fill-rule="evenodd" stroke="none"/>
    </g>
    <linearGradient gradientTransform="matrix(0.0049, 0.0, 0.0, 0.0065, 25.8, 9.55)" gradientUnits="userSpaceOnUse" id="gradient0" spreadMethod="pad" x1="-819.2" x2="819.2">
      <stop offset="0.0" stop-color="#5f2288"/>
      <stop offset="1.0" stop-color="#a276cd"/>
    </linearGradient>
    <linearGradient gradientTransform="matrix(0.0068, 0.0, 0.0, 0.0052, 20.5, 4.25)" gradientUnits="userSpaceOnUse" id="gradient1" spreadMethod="pad" x1="-819.2" x2="819.2">
      <stop offset="0.0" stop-color="#fd9b0b"/>
      <stop offset="1.0" stop-color="#fde42b"/>
    </linearGradient>
    <linearGradient gradientTransform="matrix(0.0048, 0.0, 0.0, 0.0067, 26.05, 20.35)" gradientUnits="userSpaceOnUse" id="gradient2" spreadMethod="pad" x1="-819.2" x2="819.2">
      <stop offset="0.0" stop-color="#8d010c"/>
      <stop offset="1.0" stop-color="#f2b03f"/>
    </linearGradient>
    <linearGradient gradientTransform="matrix(0.0048, 0.0, 0.0, 0.0067, 26.05, 20.35)" gradientUnits="userSpaceOnUse" id="gradient3" spreadMethod="pad" x1="-819.2" x2="819.2">
      <stop offset="0.0" stop-color="#fd9e0c"/>
      <stop offset="1.0" stop-color="#fddd27"/>
    </linearGradient>
    <linearGradient gradientTransform="matrix(0.0068, 0.0, 0.0, 0.005, 20.5, 25.9)" gradientUnits="userSpaceOnUse" id="gradient4" spreadMethod="pad" x1="-819.2" x2="819.2">
      <stop offset="0.0" stop-color="#65298e"/>
      <stop offset="1.0" stop-color="#9a6cc5"/>
    </linearGradient>
    <linearGradient gradientTransform="matrix(0.0064, 0.0, 0.0, 0.0049, 9.65, 25.95)" gradientUnits="userSpaceOnUse" id="gradient5" spreadMethod="pad" x1="-819.2" x2="819.2">
      <stop offset="0.0" stop-color="#fd9e0c"/>
      <stop offset="1.0" stop-color="#fddd27"/>
    </linearGradient>
  </defs>
</svg>
