<?xml version="1.0" encoding="UTF-8" standalone="no"?>
<svg xmlns:ffdec="https://www.free-decompiler.com/flash" xmlns:xlink="http://www.w3.org/1999/xlink" ffdec:objectType="frame" height="30.0px" width="30.0px" xmlns="http://www.w3.org/2000/svg">
  <g transform="matrix(1.0, 0.0, 0.0, 1.0, 0.0, 0.0)">
    <use ffdec:characterId="1" height="30.0" transform="matrix(1.0, 0.0, 0.0, 1.0, 0.0, 0.0)" width="30.0" xlink:href="#shape0"/>
  </g>
  <defs>
    <g id="shape0" transform="matrix(1.0, 0.0, 0.0, 1.0, 0.0, 0.0)">
      <path d="M0.0 0.0 L30.0 0.0 30.0 30.0 0.0 30.0 0.0 0.0" fill="#33cc66" fill-opacity="0.0" fill-rule="evenodd" stroke="none"/>
      <path d="M4.35 4.7 L9.05 8.3 9.15 8.2 Q10.95 6.8 13.25 6.45 L15.1 0.5 16.2 6.4 Q18.25 6.65 19.95 7.7 L25.1 4.7 21.55 8.9 21.6 9.0 23.0 10.75 Q23.95 12.15 24.2 13.85 L29.55 15.0 24.3 15.8 24.3 15.9 Q24.2 18.15 23.0 20.0 L22.35 20.95 25.2 25.5 20.6 22.65 Q18.65 24.05 16.2 24.4 L15.1 29.6 13.95 24.45 Q11.2 24.2 9.05 22.5 L4.35 25.5 7.7 21.25 Q5.8 19.15 5.45 16.35 L0.5 15.1 5.55 14.3 Q5.8 11.9 7.3 9.95 L4.35 4.7 M10.0 9.05 L9.05 9.75 7.95 11.1 Q6.65 12.95 6.65 15.4 6.65 18.45 8.7 20.75 11.45 23.25 14.8 23.25 18.25 23.25 20.7 21.0 L20.85 20.85 Q22.7 18.9 23.0 16.3 L23.1 15.4 23.0 14.5 Q22.7 11.9 20.8 9.9 L20.7 9.75 Q18.25 7.55 14.8 7.55 12.15 7.55 10.0 9.05 M8.15 21.75 L8.15 21.65 8.1 21.75 8.15 21.75" fill="#ff8c33" fill-rule="evenodd" stroke="none"/>
      <path d="M10.0 9.05 Q12.15 7.55 14.8 7.55 18.25 7.55 20.7 9.75 L20.8 9.9 Q22.7 11.9 23.0 14.5 L23.1 15.4 23.0 16.3 Q22.7 18.9 20.85 20.85 L20.7 21.0 Q18.25 23.25 14.8 23.25 11.45 23.25 8.7 20.75 6.65 18.45 6.65 15.4 6.65 12.95 7.95 11.1 L9.05 9.75 10.0 9.05" fill="#521440" fill-rule="evenodd" stroke="none"/>
      <path d="M15.1 0.5 L13.25 6.45 Q10.95 6.8 9.15 8.2 L9.05 8.3 4.35 4.7 11.0 5.5 15.1 0.5 18.95 5.5 25.1 4.7 24.6 11.2 29.55 15.0 24.65 19.2 25.2 25.35 25.2 25.5 18.85 25.15 15.1 29.6 11.15 25.15 4.3 25.6 4.3 25.55 5.1 19.1 0.5 15.1 5.05 11.45 4.35 4.7 7.3 9.95 Q5.8 11.9 5.55 14.3 L0.5 15.1 5.45 16.35 Q5.8 19.15 7.7 21.25 L4.35 25.5 9.05 22.5 Q11.2 24.2 13.95 24.45 L15.1 29.6 16.2 24.4 Q18.65 24.05 20.6 22.65 L25.2 25.5 22.35 20.95 23.0 20.0 Q24.2 18.15 24.3 15.9 L24.3 15.8 29.55 15.0 24.2 13.85 Q23.95 12.15 23.0 10.75 L21.6 9.0 21.55 8.9 25.1 4.7 19.95 7.7 Q18.25 6.65 16.2 6.4 L15.1 0.5" fill="#b41223" fill-rule="evenodd" stroke="none"/>
      <path d="M8.15 21.75 L8.1 21.75 8.15 21.65 8.15 21.75" fill="url(#gradient0)" fill-rule="evenodd" stroke="none"/>
      <path d="M8.7 10.05 L8.85 9.9 9.25 10.95 9.65 11.9 9.9 12.4 9.95 12.45 10.05 12.7 10.05 12.75 9.9 12.85 9.8 12.85 8.7 10.05 M20.2 9.25 L20.5 9.5 16.6 13.05 16.35 13.05 16.05 13.05 15.9 13.0 15.95 12.95 16.1 12.8 19.25 10.1 20.2 9.25 M12.35 22.85 L11.75 22.6 11.65 22.1 11.55 21.6 11.45 21.1 11.4 20.85 11.85 20.9 12.35 20.95 12.85 20.4 13.05 20.15 12.5 22.25 12.35 22.85 M11.95 11.35 L12.05 10.9 12.1 11.45 12.1 11.9 12.1 12.1 12.1 12.45 12.3 14.85 12.1 15.25 11.4 14.45 11.5 13.95 11.75 12.5 11.8 12.3 11.8 12.2 11.8 12.1 11.95 11.6 11.95 11.35" fill="#e92d2e" fill-rule="evenodd" stroke="none"/>
      <path d="M8.85 9.9 L9.05 9.7 9.95 11.9 9.95 11.95 10.05 12.2 9.8 10.55 10.2 10.0 Q10.45 9.7 10.8 9.7 L10.8 9.65 10.9 9.8 Q10.55 10.05 10.4 10.75 L10.25 11.65 10.3 11.7 10.4 12.1 10.7 12.9 10.25 12.8 10.2 12.8 10.2 12.95 10.2 13.35 10.5 13.85 10.65 14.05 10.95 14.55 11.6 15.5 11.85 15.95 11.95 16.1 12.2 16.45 12.4 16.3 12.5 16.2 12.55 16.15 13.05 15.65 14.6 14.1 14.7 14.0 14.85 13.75 15.0 13.6 15.45 13.2 15.55 13.05 15.7 12.95 15.8 12.85 15.85 12.8 17.3 11.6 20.0 9.1 20.2 9.25 19.25 10.1 16.1 12.8 15.95 12.95 15.9 13.0 15.85 13.2 15.85 13.4 15.95 14.05 Q16.1 14.55 16.55 14.9 L15.85 14.85 15.75 14.85 15.75 14.8 15.45 14.75 15.05 14.75 14.8 14.7 13.45 15.95 13.15 16.2 12.5 16.85 12.4 17.0 12.0 17.35 11.8 16.85 11.65 16.55 11.05 15.35 10.85 15.05 10.45 14.95 10.1 15.05 9.9 15.15 9.7 14.85 9.5 14.55 9.7 14.35 10.05 13.4 10.05 13.0 10.05 12.85 10.05 12.75 10.05 12.7 9.95 12.45 9.9 12.4 9.65 11.9 9.25 10.95 8.85 9.9 M20.95 10.0 L21.95 11.3 21.6 11.65 21.15 12.1 20.4 12.8 20.25 12.9 19.1 13.85 18.85 13.9 18.15 13.65 17.6 13.15 20.0 10.85 20.95 10.0 M16.55 23.05 L16.25 23.1 Q16.35 23.0 16.4 23.0 L16.45 23.0 16.55 23.05 M14.6 23.2 L13.8 23.15 13.9 23.0 15.55 21.4 15.75 21.2 15.75 21.15 15.85 21.15 15.95 20.95 15.95 20.9 14.5 20.85 13.55 19.7 13.45 19.6 13.35 19.75 13.15 19.9 12.35 20.65 12.3 20.7 12.15 20.7 11.95 20.7 11.35 20.65 11.3 20.65 11.3 20.85 11.35 21.35 11.4 21.4 11.45 21.9 11.6 22.55 11.4 22.5 11.35 22.25 11.2 21.8 11.15 21.45 11.1 20.95 11.05 20.85 11.0 20.6 11.0 20.55 11.0 20.5 11.1 20.5 11.35 20.55 12.2 20.65 12.9 19.95 13.15 19.65 13.25 19.6 13.45 19.35 13.6 19.2 13.65 19.05 13.75 18.8 13.9 19.0 14.0 19.1 14.0 19.15 14.15 19.3 14.4 19.6 14.5 19.75 14.85 20.15 15.1 20.45 15.55 20.4 15.85 20.4 16.1 20.4 16.2 20.4 16.25 20.4 17.9 20.35 16.1 21.8 15.9 21.95 14.6 23.2 M7.95 11.0 L8.55 10.25 8.8 10.85 9.15 11.8 9.5 12.6 9.5 12.65 Q9.5 13.4 9.15 13.75 L9.1 13.75 8.6 12.75 8.1 11.5 7.95 11.0" fill="#95b6c9" fill-rule="evenodd" stroke="none"/>
      <path d="M9.05 9.7 L9.05 9.65 10.0 8.95 10.15 8.9 10.4 9.1 10.8 9.65 10.8 9.7 Q10.45 9.7 10.2 10.0 L9.8 10.55 10.05 12.2 9.95 11.95 9.95 11.9 9.05 9.7 M17.25 7.75 Q18.75 8.15 20.0 9.1 L17.3 11.6 15.85 12.8 15.8 12.85 15.7 12.95 15.55 13.05 15.45 13.2 15.0 13.6 14.85 13.75 14.7 14.0 14.6 14.1 13.05 15.65 12.55 16.15 12.5 16.2 12.4 16.3 12.2 16.45 11.95 16.1 11.85 15.95 11.6 15.5 10.95 14.55 10.65 14.05 10.5 13.85 10.2 13.35 10.2 12.95 10.2 12.8 10.25 12.8 10.7 12.9 10.7 13.0 10.8 13.2 10.85 13.35 10.95 13.55 11.15 14.05 11.15 14.1 11.3 14.3 11.35 14.45 11.4 14.55 11.45 14.65 11.8 15.25 12.2 16.0 12.55 15.65 12.8 15.35 13.3 14.8 15.1 12.85 15.45 12.5 15.55 12.35 16.55 11.25 16.9 10.9 16.9 10.85 17.05 9.95 17.0 9.6 16.75 9.05 16.2 8.6 16.35 8.5 17.25 7.75 M20.8 9.8 L20.95 10.0 20.0 10.85 17.6 13.15 18.15 13.65 18.85 13.9 18.35 14.05 18.2 14.05 Q17.5 14.05 17.2 13.55 L17.05 13.05 17.25 12.85 20.15 10.35 20.65 9.95 20.8 9.8 M13.8 23.15 L13.45 23.1 13.95 22.6 Q15.05 21.55 15.7 21.05 L14.7 21.1 14.5 20.85 15.95 20.9 15.95 20.95 15.85 21.15 15.75 21.15 15.75 21.2 15.55 21.4 13.9 23.0 13.8 23.15 M11.4 22.5 L11.2 22.4 11.15 21.95 11.1 21.55 11.1 21.5 11.1 21.4 11.0 20.9 11.0 20.85 11.0 20.7 11.0 20.65 11.0 20.6 11.0 20.5 11.0 20.45 10.9 20.05 11.0 20.05 11.2 20.05 11.25 20.05 11.4 20.05 11.45 20.1 11.85 20.1 12.15 20.1 12.4 19.9 12.85 19.5 12.95 19.4 13.15 19.2 13.4 19.05 13.75 18.75 13.75 18.8 13.65 19.05 13.6 19.2 13.45 19.35 13.25 19.6 13.15 19.65 12.9 19.95 12.2 20.65 11.35 20.55 11.1 20.5 11.0 20.5 11.0 20.55 11.0 20.6 11.05 20.85 11.1 20.95 11.15 21.45 11.2 21.8 11.35 22.25 11.4 22.5" fill="#e3f4fe" fill-rule="evenodd" stroke="none"/>
      <path d="M11.35 8.2 Q12.1 7.8 13.0 7.65 L13.35 7.75 13.35 7.8 12.7 8.6 11.55 8.25 11.35 8.2" fill="#75769a" fill-rule="evenodd" stroke="none"/>
      <path d="M10.15 8.9 Q10.7 8.45 11.35 8.2 L11.55 8.25 12.7 8.6 12.4 9.25 12.2 9.25 12.15 9.25 11.55 9.05 11.4 8.8 11.1 9.25 10.8 9.65 10.4 9.1 10.15 8.9 M7.05 12.7 L7.3 12.15 7.5 12.55 7.55 12.7 7.7 12.9 7.75 12.95 7.95 13.05 8.3 13.2 8.35 13.2 8.5 13.35 8.35 12.95 8.2 12.6 8.1 12.45 7.95 12.1 7.8 11.5 7.75 11.35 7.95 11.0 8.1 11.5 8.6 12.75 9.1 13.75 9.5 14.55 9.7 14.85 9.9 15.15 10.1 15.05 10.45 14.95 10.85 15.05 11.05 15.35 11.1 15.5 10.55 15.75 Q9.65 16.35 9.05 17.15 L8.9 16.55 8.8 16.05 8.4 13.85 8.35 13.85 8.1 13.65 7.75 13.35 7.55 13.15 7.5 13.15 7.15 12.75 7.05 12.7 M20.05 15.8 L20.05 15.7 20.2 15.5 20.45 15.5 21.3 14.85 21.1 15.15 21.05 15.2 20.95 15.35 20.85 15.5 20.85 15.6 Q20.3 16.2 19.9 16.9 L19.3 17.95 19.1 18.4 19.0 18.4 18.65 17.85 19.0 17.4 19.15 17.15 19.25 17.05 20.05 15.8" fill="#1d284d" fill-rule="evenodd" stroke="none"/>
      <path d="M16.55 7.6 L17.25 7.75 16.35 8.5 16.2 8.6 16.75 9.05 17.0 9.6 17.05 9.95 16.9 10.85 16.9 10.9 16.55 11.25 16.55 11.2 15.5 10.3 15.25 10.1 14.45 9.65 14.35 9.6 14.05 9.45 13.7 9.65 13.65 9.7 13.4 9.95 12.7 10.6 12.4 10.9 12.2 11.05 12.1 10.7 12.05 10.9 11.95 11.35 11.7 11.65 11.3 12.25 11.0 12.55 11.0 12.65 10.9 12.75 10.75 12.95 10.7 13.0 10.7 12.9 10.4 12.1 10.3 11.7 10.25 11.65 10.4 10.75 Q10.55 10.05 10.9 9.8 L10.8 9.65 11.1 9.25 11.4 8.8 11.55 9.05 12.15 9.25 12.2 9.25 12.1 9.7 12.65 9.95 13.45 9.3 13.8 9.05 14.35 8.65 14.35 8.7 14.75 9.1 14.75 9.15 15.6 9.5 15.95 9.45 15.6 8.6 16.2 7.95 16.5 7.65 16.55 7.6 M21.95 11.3 L22.8 13.2 22.3 13.65 22.1 13.9 21.6 14.55 21.3 14.85 20.45 15.5 20.2 15.5 20.6 14.8 20.85 14.3 21.0 14.05 21.6 12.85 21.8 12.4 21.65 11.8 21.6 11.65 21.95 11.3 M11.35 14.45 L11.4 14.55 11.35 14.45 M12.4 17.0 L12.5 16.85 13.15 16.2 13.65 16.2 13.75 16.2 14.45 16.15 14.7 16.15 14.7 16.05 14.9 15.2 15.0 15.0 15.05 14.75 15.45 14.75 15.75 14.8 15.75 14.85 16.45 15.8 16.65 16.2 16.65 16.25 15.7 17.2 15.5 17.35 14.25 18.2 14.15 18.25 13.45 18.6 13.45 18.5 13.35 18.4 13.4 17.8 13.9 18.0 14.05 18.1 14.15 17.95 15.55 16.55 15.6 16.55 15.6 16.45 15.55 15.8 15.15 15.7 15.0 15.7 14.9 15.9 14.8 16.35 13.35 16.5 13.3 16.5 12.85 17.35 12.8 17.45 12.4 17.0 M14.7 18.8 L14.5 18.75 14.55 18.45 Q15.15 18.1 15.6 18.0 L15.5 18.9 15.15 18.9 14.7 18.8" fill="#28215d" fill-rule="evenodd" stroke="none"/>
      <path d="M10.85 22.2 L10.25 21.85 10.45 21.7 10.55 21.7 11.1 21.5 11.1 21.55 10.85 22.2 M10.9 12.75 L11.0 12.65 11.0 12.55 11.3 12.25 11.7 11.65 11.7 11.75 11.65 12.2 11.6 12.45 11.05 13.15 10.9 12.75 M12.4 10.9 L12.7 10.6 13.4 9.95 13.65 9.7 13.7 9.65 13.75 9.7 13.8 9.95 12.9 10.75 12.5 11.15 12.4 10.9 M14.35 9.6 L14.45 9.65 15.25 10.1 15.4 11.35 15.35 11.8 15.3 11.95 14.6 10.75 14.2 9.95 14.35 9.6 M10.45 20.1 L10.45 20.15 10.9 20.75 10.9 20.8 10.95 20.75 11.0 20.9 11.1 21.4 10.6 20.75 10.1 20.2 9.75 20.35 9.2 20.55 9.1 20.6 9.05 20.6 8.95 20.65 8.7 17.65 10.45 17.7 10.45 17.95 10.4 18.25 10.4 18.7 10.2 19.7 10.1 20.2 10.45 20.1" fill="#5e5f83" fill-rule="evenodd" stroke="none"/>
      <path d="M22.8 17.5 Q22.25 19.3 20.85 20.75 L20.65 20.9 19.4 21.95 19.3 21.9 19.6 21.1 19.8 20.5 19.85 20.4 22.35 17.9 22.6 17.65 22.8 17.5 M10.7 13.0 L10.75 12.95 10.9 12.75 11.05 13.15 11.0 13.15 10.85 13.35 10.8 13.2 10.7 13.0 M11.7 11.65 L11.95 11.35 11.95 11.6 11.8 12.1 11.8 12.2 11.7 12.3 11.6 12.45 11.65 12.2 11.7 11.75 11.7 11.65 M12.2 11.05 L12.4 10.9 12.5 11.15 12.5 11.2 12.9 10.85 13.85 10.1 13.9 10.1 14.5 10.85 15.15 12.15 15.0 12.5 14.85 12.05 Q14.55 11.05 14.1 10.55 L14.0 10.45 13.9 10.35 13.8 10.45 12.55 11.4 12.4 11.6 12.35 11.35 12.35 11.3 12.2 11.05" fill="#414262" fill-rule="evenodd" stroke="none"/>
      <path d="M20.5 9.5 L20.65 9.65 20.8 9.8 20.65 9.95 20.15 10.35 17.25 12.85 17.05 13.05 17.2 13.55 Q17.5 14.05 18.2 14.05 L18.35 14.05 18.85 13.9 19.1 13.85 19.0 13.9 18.2 14.45 18.1 14.55 17.9 14.7 17.25 15.05 17.0 15.0 16.8 14.95 16.55 14.9 Q16.1 14.55 15.95 14.05 L15.85 13.4 15.85 13.2 15.9 13.0 16.05 13.05 16.35 13.05 16.6 13.05 20.5 9.5 M13.45 23.1 L12.55 22.9 12.65 22.6 13.05 21.0 13.35 20.1 13.4 19.9 13.05 20.15 12.85 20.4 12.35 20.95 11.85 20.9 11.4 20.85 11.45 21.1 11.55 21.6 11.65 22.1 11.75 22.6 11.6 22.55 11.45 21.9 11.4 21.4 11.35 21.35 11.3 20.85 11.3 20.65 11.35 20.65 11.95 20.7 12.15 20.7 12.3 20.7 12.35 20.65 13.15 19.9 13.35 19.75 13.45 19.6 13.55 19.7 14.5 20.85 14.7 21.1 15.7 21.05 Q15.05 21.55 13.95 22.6 L13.45 23.1 M8.55 10.25 L8.7 10.05 9.8 12.85 9.9 12.85 10.05 12.75 10.05 12.85 10.05 13.0 10.05 13.4 9.7 14.35 9.5 14.55 9.1 13.75 9.15 13.75 Q9.5 13.4 9.5 12.65 L9.5 12.6 9.15 11.8 8.8 10.85 8.55 10.25 M12.05 10.9 L12.1 10.7 12.2 11.05 12.35 11.3 12.35 11.35 12.4 11.6 12.4 11.7 12.45 11.75 12.7 12.5 13.15 14.4 13.2 14.45 13.3 14.8 12.8 15.35 12.55 15.65 12.2 16.0 11.8 15.25 11.45 14.65 11.4 14.55 11.4 14.45 12.1 15.25 12.3 14.85 12.1 12.45 12.1 12.1 12.1 11.9 12.1 11.45 12.05 10.9" fill="#b41223" fill-rule="evenodd" stroke="none"/>
      <path d="M16.25 23.1 L15.8 23.15 16.15 23.0 15.95 22.3 15.9 21.95 16.1 21.8 16.25 22.4 16.4 22.85 16.45 23.0 16.4 23.0 Q16.35 23.0 16.25 23.1 M11.2 22.4 L11.0 22.3 11.15 21.95 11.2 22.4 M7.3 12.15 L7.75 11.35 7.8 11.5 7.95 12.1 8.1 12.45 8.2 12.6 8.35 12.95 8.5 13.35 8.35 13.2 8.3 13.2 7.95 13.05 7.75 12.95 7.7 12.9 7.55 12.7 7.5 12.55 7.3 12.15 M11.6 12.45 L11.7 12.3 11.8 12.2 11.8 12.3 11.75 12.5 11.5 13.95 11.4 14.45 11.4 14.55 11.35 14.45 11.3 14.3 11.15 14.1 11.15 14.05 10.95 13.55 10.85 13.35 11.0 13.15 11.05 13.15 11.6 12.45 M11.15 13.3 L11.3 13.65 11.45 13.05 11.55 12.75 11.15 13.3 M13.3 14.8 L13.2 14.45 13.15 14.4 12.7 12.5 12.45 11.75 12.4 11.7 12.4 11.6 12.55 11.4 13.8 10.45 13.9 10.35 14.0 10.45 14.1 10.55 Q14.55 11.05 14.85 12.05 L15.0 12.5 15.05 12.75 15.1 12.85 13.3 14.8 M10.45 20.15 L10.75 20.05 10.8 20.05 11.0 19.95 11.0 20.05 10.9 20.05 11.0 20.45 10.9 20.75 10.45 20.15 M11.45 20.1 L11.6 19.8 11.75 19.75 12.85 19.5 12.4 19.9 11.85 20.1 11.45 20.1 M11.0 20.7 L11.0 20.85 11.0 20.9 10.95 20.75 11.0 20.7 M13.85 10.7 L13.5 11.8 13.25 12.9 13.65 13.85 14.45 13.15 14.85 12.75 13.9 10.65 13.85 10.7 M15.5 20.15 L15.75 20.1 15.85 20.4 15.55 20.4 15.5 20.15" fill="#29396b" fill-rule="evenodd" stroke="none"/>
      <path d="M11.15 13.3 L11.55 12.75 11.45 13.05 11.3 13.65 11.15 13.3 M13.85 10.7 L13.9 10.65 14.85 12.75 14.45 13.15 13.65 13.85 13.25 12.9 13.5 11.8 13.85 10.7" fill="#435e9a" fill-rule="evenodd" stroke="none"/>
      <path d="M10.1 21.75 L8.95 20.85 8.95 20.65 9.05 20.6 9.1 20.6 9.2 20.55 9.75 20.35 10.1 20.2 10.6 20.75 11.1 21.4 10.75 21.5 10.45 21.6 10.1 21.75 M6.8 13.65 L6.9 13.3 7.5 13.15 7.55 13.15 7.75 13.35 8.1 13.65 7.75 13.65 7.5 13.65 7.15 13.65 6.8 13.65 M7.05 12.75 L7.05 12.7 7.15 12.75 7.05 12.75 M19.05 18.45 L19.3 19.2 19.45 19.5 19.55 19.9 19.7 20.3 19.75 20.45 19.8 20.5 19.6 21.1 19.45 21.05 19.3 21.0 18.8 20.85 18.55 20.75 18.4 20.7 18.35 20.7 18.15 20.65 18.2 20.6 18.2 20.55 19.05 18.45" fill="#8e8fb6" fill-rule="evenodd" stroke="none"/>
      <path d="M22.8 13.2 L23.0 14.4 23.05 14.85 22.85 14.65 22.7 14.55 22.1 13.9 22.3 13.65 22.8 13.2 M10.25 21.85 L10.1 21.75 10.45 21.6 10.75 21.5 11.1 21.4 11.1 21.5 10.55 21.7 10.45 21.7 10.25 21.85 M6.75 13.85 L6.8 13.65 7.15 13.65 7.5 13.65 7.75 13.65 8.1 13.65 8.35 13.85 7.75 13.85 7.55 13.85 7.5 13.85 6.75 13.85 M6.9 13.3 L7.05 12.75 7.15 12.75 7.5 13.15 6.9 13.3 M21.6 14.55 L21.65 14.7 21.95 15.5 22.3 16.15 22.5 16.6 22.7 17.05 22.4 17.45 21.5 15.95 21.4 15.8 21.05 15.2 21.1 15.15 21.3 14.85 21.6 14.55 M20.85 15.6 L21.25 16.2 21.35 16.4 21.9 17.15 22.2 17.65 19.8 20.35 19.75 20.1 19.6 19.75 19.6 19.65 19.3 17.95 19.9 16.9 Q20.3 16.2 20.85 15.6 M19.45 21.05 L19.45 21.15 19.2 21.7 19.15 21.75 18.45 21.9 18.1 21.95 16.85 22.1 17.45 21.45 18.15 20.65 18.35 20.7 18.4 20.7 18.55 20.75 18.8 20.85 19.3 21.0 19.45 21.05" fill="#b7b8db" fill-rule="evenodd" stroke="none"/>
      <path d="M8.95 20.85 L8.7 20.6 8.65 20.55 8.5 20.15 8.5 20.1 7.25 18.4 Q6.65 16.95 6.65 15.3 L6.75 13.85 7.5 13.85 7.55 13.85 7.75 13.85 8.35 13.85 8.4 13.85 8.8 16.05 8.9 16.55 9.05 17.15 8.7 17.65 8.95 20.65 8.95 20.85" fill="#333454" fill-rule="evenodd" stroke="none"/>
      <path d="M11.1 15.5 L11.05 15.35 11.65 16.55 11.8 16.85 12.0 17.35 12.4 17.0 12.8 17.45 12.85 17.55 12.0 19.15 11.6 19.8 11.45 20.1 11.4 20.05 11.25 20.05 11.2 20.05 11.3 19.9 11.8 18.05 11.7 18.1 11.3 16.8 11.15 16.45 11.15 16.35 11.1 15.5 M11.0 20.65 L11.0 20.7 10.95 20.75 11.0 20.65 M17.75 16.15 L17.9 15.65 17.95 15.45 18.2 14.55 19.55 14.3 21.0 14.05 20.85 14.3 19.95 14.4 18.5 14.7 18.2 15.5 18.15 15.75 18.1 16.0 18.0 16.05 17.75 16.15 M19.3 15.65 L20.2 15.5 20.05 15.7 20.05 15.8 19.3 16.0 19.3 15.9 19.3 15.65" fill="#19264f" fill-rule="evenodd" stroke="none"/>
      <path d="M11.15 16.35 L11.15 16.45 11.15 17.25 11.05 19.85 11.0 19.95 10.8 20.05 10.75 20.05 10.45 20.15 10.45 20.1 10.45 19.9 10.5 19.55 10.6 18.4 10.7 18.1 10.7 17.85 10.7 17.8 10.7 17.75 Q10.6 16.9 11.15 16.35 M11.6 19.8 L12.0 19.15 12.85 17.55 13.35 18.4 13.45 18.5 13.45 18.6 14.15 18.25 14.1 18.75 14.0 19.15 14.0 19.1 13.9 19.0 13.75 18.8 13.75 18.75 13.4 19.05 13.15 19.2 12.95 19.4 12.85 19.5 11.75 19.75 11.6 19.8 M17.55 19.1 L17.75 18.85 18.1 18.5 18.2 18.4 18.3 18.25 18.65 17.9 18.25 18.6 17.55 19.25 17.35 19.4 17.25 19.45 17.35 19.35 17.55 19.1" fill="#2b2c48" fill-rule="evenodd" stroke="none"/>
      <path d="M11.0 22.3 L10.85 22.2 11.1 21.55 11.15 21.95 11.0 22.3 M15.25 10.1 L15.5 10.3 16.55 11.2 16.55 11.25 15.55 12.35 15.45 12.5 15.1 12.85 15.05 12.75 15.0 12.5 15.15 12.15 15.2 12.1 15.3 11.95 15.35 11.8 15.4 11.35 15.25 10.1 M9.05 17.15 Q9.65 16.35 10.55 15.75 L11.1 15.5 11.15 16.35 Q10.6 16.9 10.7 17.75 L10.7 17.8 10.7 17.85 10.7 18.1 10.6 18.4 10.5 19.55 10.45 19.9 10.45 20.1 10.1 20.2 10.2 19.7 10.4 18.7 10.4 18.25 10.45 17.95 10.45 17.7 8.7 17.65 9.05 17.15 M17.05 19.6 L17.1 19.55 17.15 19.55 17.2 19.5 17.25 19.45 17.35 19.4 17.55 19.25 18.25 18.6 18.65 17.9 18.65 17.85 19.0 18.4 19.1 18.4 19.05 18.45 18.2 20.55 18.0 20.45 17.95 20.4 17.9 20.35 17.95 20.35 17.95 20.4 17.95 20.35 17.9 20.35 17.45 19.95 17.05 19.6" fill="#3d3e62" fill-rule="evenodd" stroke="none"/>
      <path d="M11.0 19.95 L11.05 19.85 11.15 17.25 11.15 16.45 11.3 16.8 11.7 18.1 11.8 18.05 11.3 19.9 11.2 20.05 11.0 20.05 11.0 19.95 M11.0 20.45 L11.0 20.5 11.0 20.6 11.0 20.65 10.95 20.75 10.9 20.8 10.9 20.75 11.0 20.45 M17.75 16.2 L17.75 16.15 18.0 16.05 18.1 16.0 18.0 16.3 17.9 16.65 17.75 17.25 17.6 17.95 17.35 19.3 17.2 19.5 17.15 19.55 17.55 17.2 17.6 16.9 17.75 16.2 M18.1 18.5 L18.4 17.45 18.45 17.25 18.65 16.6 18.65 16.45 18.85 15.75 19.3 15.65 19.3 15.9 19.3 16.0 19.15 16.05 18.5 17.6 18.3 18.25 18.2 18.4 18.1 18.5" fill="#273f72" fill-rule="evenodd" stroke="none"/>
      <path d="M8.25 20.1 L7.25 18.4 8.5 20.1 8.25 20.1" fill="#474964" fill-rule="evenodd" stroke="none"/>
      <path d="M8.65 20.55 L8.25 20.1 8.5 20.1 8.5 20.15 8.65 20.55" fill="#5a5b79" fill-rule="evenodd" stroke="none"/>
      <path d="M23.05 14.85 L23.1 15.3 23.0 16.2 22.8 17.5 22.6 17.65 22.35 17.9 19.85 20.4 19.8 20.5 19.75 20.45 19.7 20.3 19.55 19.9 19.45 19.5 19.3 19.2 19.05 18.45 19.1 18.4 19.3 17.95 19.6 19.65 19.6 19.75 19.75 20.1 19.8 20.35 22.2 17.65 21.9 17.15 21.35 16.4 21.25 16.2 20.85 15.6 20.85 15.5 20.95 15.35 21.05 15.2 21.4 15.8 21.5 15.95 22.4 17.45 22.7 17.05 22.5 16.6 22.3 16.15 21.95 15.5 21.65 14.7 21.6 14.55 22.1 13.9 22.7 14.55 22.85 14.65 23.05 14.85 M16.85 22.1 L18.1 21.95 18.45 21.9 19.15 21.75 19.2 21.7 19.45 21.15 19.45 21.05 19.6 21.1 19.3 21.9 19.2 21.9 19.1 21.95 18.45 22.1 18.3 22.1 16.85 22.2 16.85 22.1" fill="#ecf1ff" fill-rule="evenodd" stroke="none"/>
      <path d="M13.35 7.8 L13.6 7.55 14.85 7.45 16.55 7.6 16.5 7.65 16.2 7.95 15.6 8.6 15.95 9.45 15.6 9.5 14.75 9.15 14.75 9.1 14.35 8.7 14.35 8.65 13.8 9.05 13.45 9.3 12.65 9.95 12.1 9.7 12.2 9.25 12.4 9.25 12.7 8.6 13.35 7.8 M12.85 17.55 L12.8 17.45 12.85 17.35 13.3 16.5 13.35 16.5 14.8 16.35 14.9 15.9 15.0 15.7 15.15 15.7 15.55 15.8 15.6 16.45 15.6 16.55 15.55 16.55 14.15 17.95 14.05 18.1 13.9 18.0 13.4 17.8 13.35 18.4 12.85 17.55" fill="#4d46b6" fill-rule="evenodd" stroke="none"/>
      <path d="M13.7 9.65 L14.05 9.45 14.35 9.6 14.2 9.95 14.6 10.75 15.3 11.95 15.2 12.1 15.15 12.15 14.5 10.85 13.9 10.1 13.85 10.1 12.9 10.85 12.5 11.2 12.5 11.15 12.9 10.75 13.8 9.95 13.75 9.7 13.7 9.65" fill="#9192b1" fill-rule="evenodd" stroke="none"/>
      <path d="M13.15 16.2 L13.45 15.95 14.8 14.7 15.05 14.75 15.0 15.0 14.9 15.2 14.7 16.05 14.7 16.15 14.45 16.15 13.75 16.2 13.65 16.2 13.15 16.2 M14.25 16.05 L14.45 16.05 14.7 15.2 14.75 15.15 14.7 15.2 14.25 15.6 13.8 16.05 14.25 16.05" fill="#dbe3ff" fill-rule="evenodd" stroke="none"/>
      <path d="M14.25 16.05 L13.8 16.05 14.25 15.6 14.7 15.2 14.75 15.15 14.7 15.2 14.45 16.05 14.25 16.05" fill="#ffffff" fill-rule="evenodd" stroke="none"/>
      <path d="M15.75 14.85 L15.85 14.85 16.55 14.9 16.8 14.95 17.0 15.0 17.25 15.05 17.9 14.7 18.1 14.55 18.2 14.45 19.0 13.9 19.1 13.85 20.25 12.9 20.4 12.8 21.15 12.1 21.6 11.65 21.65 11.8 21.8 12.4 21.6 12.85 21.0 14.05 19.55 14.3 18.2 14.55 17.95 15.45 17.9 15.65 17.75 16.15 17.75 16.2 17.5 16.35 17.4 16.3 16.7 16.2 16.65 16.2 16.45 15.8 15.75 14.85 M19.3 16.0 L20.05 15.8 19.25 17.05 19.3 16.0" fill="#2a4072" fill-rule="evenodd" stroke="none"/>
      <path d="M16.65 16.2 L16.7 16.2 17.4 16.3 17.5 16.35 17.75 16.2 17.6 16.9 17.55 17.2 17.15 19.55 17.1 19.55 17.05 19.6 16.25 20.4 16.2 20.4 16.1 20.4 16.15 20.05 16.5 18.1 16.6 16.95 16.65 16.25 16.65 16.2 M18.3 18.25 L18.5 17.6 19.15 16.05 19.3 16.0 19.25 17.05 19.15 17.15 19.0 17.4 18.65 17.85 18.65 17.9 18.3 18.25" fill="#5471b4" fill-rule="evenodd" stroke="none"/>
      <path d="M19.3 15.65 L19.3 15.3 18.8 15.5 18.55 15.7 18.1 16.0 18.15 15.75 18.2 15.5 18.5 14.7 19.95 14.4 20.85 14.3 20.6 14.8 20.2 15.5 19.3 15.65" fill="#4162aa" fill-rule="evenodd" stroke="none"/>
      <path d="M18.1 16.0 L18.55 15.7 18.8 15.5 19.3 15.3 19.3 15.65 18.85 15.75 18.65 16.45 18.65 16.6 18.45 17.25 18.4 17.45 18.1 18.5 17.75 18.85 17.55 19.1 17.35 19.3 17.6 17.95 17.75 17.25 17.9 16.65 18.0 16.3 18.1 16.0" fill="#99b5f4" fill-rule="evenodd" stroke="none"/>
      <path d="M14.0 19.15 L14.1 18.75 14.15 18.25 14.25 18.2 15.5 17.35 15.7 17.2 16.65 16.25 16.6 16.95 16.5 18.1 16.15 20.05 15.75 20.1 15.5 20.15 15.1 20.15 15.05 20.15 14.85 20.15 14.5 19.75 14.4 19.6 14.15 19.3 14.0 19.15 M17.35 19.3 L17.55 19.1 17.35 19.35 17.25 19.45 17.2 19.5 17.35 19.3 M14.7 18.8 L15.15 18.9 15.5 18.9 15.6 18.0 Q15.15 18.1 14.55 18.45 L14.5 18.75 14.7 18.8" fill="#211c46" fill-rule="evenodd" stroke="none"/>
      <path d="M17.55 22.8 L16.55 23.05 16.45 23.0 16.4 22.85 16.25 22.4 16.1 21.8 17.9 20.35 17.95 20.4 18.0 20.45 18.2 20.55 18.2 20.6 18.15 20.65 17.45 21.45 16.85 22.1 16.85 22.2 16.85 22.25 17.55 22.8 M16.15 20.05 L16.1 20.4 15.85 20.4 15.75 20.1 16.15 20.05 M16.25 20.4 L17.05 19.6 17.45 19.95 17.9 20.35 16.25 20.4" fill="#434466" fill-rule="evenodd" stroke="none"/>
      <path d="M19.4 21.95 L17.55 22.8 16.85 22.25 16.85 22.2 18.3 22.1 18.45 22.1 19.1 21.95 19.2 21.9 19.3 21.9 19.4 21.95" fill="#4e4f72" fill-rule="evenodd" stroke="none"/>
      <path d="M15.8 23.15 L14.85 23.2 14.6 23.2 15.9 21.95 15.95 22.3 16.15 23.0 15.8 23.15 M12.4 19.9 L12.15 20.1 11.85 20.1 12.4 19.9 M14.85 20.15 L15.05 20.15 15.1 20.15 15.5 20.15 15.55 20.4 15.1 20.45 14.85 20.15" fill="#354e85" fill-rule="evenodd" stroke="none"/>
      <path d="M12.55 22.9 L12.35 22.85 12.5 22.25 13.05 20.15 13.4 19.9 13.35 20.1 13.05 21.0 12.65 22.6 12.55 22.9" fill="#ff8c33" fill-rule="evenodd" stroke="none"/>
      <path d="M10.15 8.9 L10.4 9.1 10.8 9.65 10.9 9.8 Q10.55 10.05 10.4 10.75 L10.25 11.65 10.3 11.7 10.4 12.1 10.7 12.9 10.7 13.0 M16.55 11.25 L16.9 10.9 16.9 10.85 17.05 9.95 17.0 9.6 16.75 9.05 16.2 8.6 16.35 8.5 17.25 7.75 M9.1 13.75 L9.5 14.55 9.7 14.85 9.9 15.15 10.1 15.05 10.45 14.95 10.85 15.05 11.05 15.35 11.65 16.55 11.8 16.85 12.0 17.35 12.4 17.0 12.5 16.85 13.15 16.2 13.45 15.95 14.8 14.7 15.05 14.75 15.45 14.75 15.75 14.8 15.75 14.85 M9.1 13.75 L8.6 12.75 8.1 11.5 7.95 11.0 M11.2 20.05 L11.25 20.05 11.4 20.05 11.45 20.1 11.85 20.1 12.15 20.1 12.4 19.9 12.85 19.5 12.95 19.4 13.15 19.2 13.4 19.05 13.75 18.75 13.75 18.8 13.9 19.0 14.0 19.1 14.0 19.15 14.15 19.3 14.4 19.6 14.5 19.75 14.85 20.15 15.1 20.45 15.55 20.4 15.85 20.4 16.1 20.4 16.2 20.4 16.25 20.4 17.9 20.35 16.1 21.8 15.9 21.95 14.6 23.2 M11.0 20.05 L10.9 20.05 11.0 20.45 11.0 20.5 11.0 20.6 11.0 20.65 11.0 20.7 11.0 20.85 11.0 20.9 11.1 21.4 11.1 21.5 11.1 21.55 11.15 21.95 11.2 22.4 M11.0 20.05 L11.2 20.05 M21.6 11.65 L21.95 11.3 M17.95 20.4 L17.95 20.35 17.9 20.35" fill="none" stroke="#7b96e7" stroke-linecap="round" stroke-linejoin="round" stroke-width="0.1"/>
      <path d="M13.35 7.8 L13.6 7.55 M12.7 8.6 L13.35 7.8 M10.8 9.65 L11.1 9.25 11.4 8.8 11.55 9.05 12.15 9.25 12.2 9.25 12.4 9.25 12.7 8.6 M12.85 17.55 L12.8 17.45 12.4 17.0 M14.0 19.15 L14.1 18.75 14.15 18.25 13.45 18.6 13.45 18.5 13.35 18.4 12.85 17.55 M21.3 14.85 L20.45 15.5 20.2 15.5 M17.55 19.1 L17.35 19.35 17.25 19.45 17.2 19.5 17.15 19.55 M15.5 20.15 L15.75 20.1 16.15 20.05 M14.85 20.15 L15.05 20.15 15.1 20.15 15.5 20.15" fill="none" stroke="#1e1b51" stroke-linecap="round" stroke-linejoin="round" stroke-width="0.1"/>
      <path d="M10.7 13.0 L10.75 12.95 10.9 12.75 11.0 12.65 M11.0 12.55 L11.3 12.25 11.7 11.65 11.95 11.35 M12.2 11.05 L12.4 10.9 12.7 10.6 13.4 9.95 13.65 9.7 13.7 9.65 14.05 9.45 14.35 9.6 14.45 9.65 15.25 10.1 15.5 10.3 16.55 11.2 16.55 11.25 M16.65 16.2 L16.65 16.25 16.6 16.95 16.5 18.1 16.15 20.05 16.1 20.4 M16.25 20.4 L17.05 19.6 17.1 19.55 17.15 19.55 M20.2 15.5 L20.6 14.8 20.85 14.3 21.0 14.05 M17.35 19.3 L17.55 19.1 17.75 18.85 18.1 18.5 18.2 18.4 18.3 18.25 18.65 17.9 18.65 17.85 19.0 17.4 19.15 17.15 19.25 17.05 20.05 15.8 20.05 15.7 20.2 15.5 M17.2 19.5 L17.35 19.3" fill="none" stroke="#262f54" stroke-linecap="round" stroke-linejoin="round" stroke-width="0.1"/>
      <path d="M11.1 15.5 L11.05 15.35 M11.15 16.35 L11.1 15.5 M11.15 16.45 L11.15 16.35 M11.0 19.95 L11.05 19.85 11.15 17.25 11.15 16.45 M11.45 20.1 L11.6 19.8 12.0 19.15 12.85 17.55 M11.0 19.95 L11.0 20.05 M10.95 20.75 L10.9 20.8 10.9 20.75 11.0 20.45 M10.95 20.75 L11.0 20.7 M15.75 14.85 L16.45 15.8 16.65 16.2 M21.0 14.05 L21.6 12.85 21.8 12.4 21.65 11.8 21.6 11.65" fill="none" stroke="#1c2441" stroke-linecap="round" stroke-linejoin="round" stroke-width="0.1"/>
      <path d="M13.0 7.65 L13.35 7.75 13.35 7.8 M9.05 17.15 Q9.65 16.35 10.55 15.75 L11.1 15.5 M9.05 17.15 L8.7 17.65 8.95 20.65 8.95 20.85 M19.1 18.4 L19.05 18.45 18.2 20.55 18.2 20.6 18.15 20.65 17.45 21.45 16.85 22.1 16.85 22.2 16.85 22.25 17.55 22.8 M19.1 18.4 L19.0 18.4 18.65 17.85" fill="none" stroke="#19203f" stroke-linecap="round" stroke-linejoin="round" stroke-width="0.1"/>
      <path d="M11.95 11.35 L12.05 10.9 12.1 10.7 12.2 11.05" fill="none" stroke="#8a1528" stroke-linecap="round" stroke-linejoin="round" stroke-width="0.1"/>
      <path d="M20.65 9.7 L20.75 9.8 Q23.0 12.1 23.0 15.2 23.0 18.35 20.8 20.55 L20.65 20.7 19.6 21.55 Q20.6 12.55 14.1 7.5 L14.8 7.5 Q18.2 7.5 20.65 9.7" fill="#ffffff" fill-opacity="0.2" fill-rule="evenodd" stroke="none"/>
      <path d="M21.0 15.45 L20.3 15.2 19.95 14.75 Q19.8 14.0 20.65 13.9 21.45 13.8 21.55 14.55 L21.6 14.95 21.0 15.45 M18.3 9.45 Q18.65 9.35 19.3 9.8 20.65 10.9 21.0 12.45 L21.0 12.75 Q20.9 13.05 20.4 13.2 L19.2 11.85 18.15 10.25 Q17.95 9.5 18.3 9.45" fill="#ffffff" fill-rule="evenodd" stroke="none"/>
    </g>
    <linearGradient gradientTransform="matrix(-0.0066, 0.0, 0.0, 0.0048, 9.7, 25.6)" gradientUnits="userSpaceOnUse" id="gradient0" spreadMethod="pad" x1="-819.2" x2="819.2">
      <stop offset="0.0" stop-color="#65298e"/>
      <stop offset="1.0" stop-color="#9a6cc5"/>
    </linearGradient>
  </defs>
</svg>
