<?xml version="1.0" encoding="UTF-8" standalone="no"?>
<svg xmlns:ffdec="https://www.free-decompiler.com/flash" xmlns:xlink="http://www.w3.org/1999/xlink" ffdec:objectType="frame" height="30.05px" width="30.05px" xmlns="http://www.w3.org/2000/svg">
  <g transform="matrix(1.0, 0.0, 0.0, 1.0, 0.05, 0.0)">
    <use ffdec:characterId="1" height="30.0" transform="matrix(1.0, 0.0, 0.0, 1.0, 0.0, 0.0)" width="30.0" xlink:href="#shape0"/>
    <use ffdec:characterId="9" height="30.0" transform="matrix(1.0, 0.0, 0.0, 1.0, -0.05, 0.05)" width="30.0" xlink:href="#sprite0"/>
  </g>
  <defs>
    <g id="shape0" transform="matrix(1.0, 0.0, 0.0, 1.0, 0.0, 0.0)">
      <path d="M0.0 0.0 L30.0 0.0 30.0 30.0 0.0 30.0 0.0 0.0" fill="#33cc66" fill-opacity="0.0" fill-rule="evenodd" stroke="none"/>
    </g>
    <g id="sprite0" transform="matrix(1.0, 0.0, 0.0, 1.0, 0.05, 0.0)">
      <use ffdec:characterId="8" height="60.0" transform="matrix(0.5, 0.0, 0.0, 0.5, -0.05, 0.0)" width="60.0" xlink:href="#sprite1"/>
    </g>
    <g id="sprite1" transform="matrix(1.0, 0.0, 0.0, 1.0, 0.0, 0.0)">
      <use ffdec:characterId="2" height="60.0" transform="matrix(1.0, 0.0, 0.0, 1.0, 0.0, 0.0)" width="60.0" xlink:href="#shape1"/>
      <use ffdec:characterId="6" height="34.2" transform="matrix(1.0, 0.0, 0.0, 1.0, 7.65, 12.95)" width="43.95" xlink:href="#sprite2"/>
      <use ffdec:characterId="7" height="29.0" transform="matrix(1.0, 0.0, 0.0, 1.0, 13.35, 14.8)" width="18.4" xlink:href="#shape4"/>
    </g>
    <g id="shape1" transform="matrix(1.0, 0.0, 0.0, 1.0, 0.0, 0.0)">
      <path d="M0.0 0.0 L60.0 0.0 60.0 60.0 0.0 60.0 0.0 0.0" fill="#33cc66" fill-opacity="0.0" fill-rule="evenodd" stroke="none"/>
      <path d="M42.2 15.8 L42.25 15.85 42.25 15.95 51.95 8.6 45.9 19.5 46.0 19.6 47.85 22.5 Q48.95 24.75 49.45 27.25 L49.6 28.25 49.6 28.35 60.0 30.1 49.8 32.65 49.65 32.65 Q49.35 35.15 48.5 37.35 47.35 40.3 45.1 42.75 L45.25 42.9 51.95 51.55 42.25 45.35 42.05 45.5 Q37.75 48.85 32.2 49.35 L32.2 49.5 29.95 60.0 27.55 49.3 27.1 49.25 26.7 49.2 Q23.1 48.5 20.05 46.65 L19.15 46.05 19.05 46.0 18.55 45.65 9.0 51.55 14.9 42.2 14.85 42.15 13.5 40.2 12.95 39.2 Q11.05 35.75 10.9 31.8 L10.9 31.55 10.65 31.5 0.0 29.9 10.6 27.6 11.1 27.5 Q11.55 24.0 13.5 21.1 14.7 19.25 16.45 17.5 L16.55 17.4 16.6 17.3 9.15 8.6 19.5 14.75 19.65 14.8 19.8 14.9 Q23.3 12.6 27.55 12.25 L27.6 12.0 29.95 0.0 33.7 12.3 37.5 13.25 37.75 13.35 37.9 13.4 Q40.15 14.3 42.2 15.8 M42.1 18.95 L41.45 18.4 40.4 17.6 Q38.05 16.0 35.4 15.25 L33.95 14.9 30.4 14.55 Q23.3 14.55 18.3 19.1 L18.1 19.4 Q14.8 22.85 13.8 27.25 L13.5 28.9 13.4 30.65 13.5 32.55 Q13.75 34.5 14.4 36.25 15.25 38.65 16.9 40.75 L17.95 41.95 18.3 42.25 20.0 43.65 20.15 43.75 21.8 44.85 Q24.8 46.5 28.45 46.85 L30.4 46.95 35.4 46.25 Q39.45 44.95 43.0 41.65 47.1 37.25 47.35 31.45 L47.35 30.65 Q47.35 25.65 44.65 21.8 L44.2 21.2 42.25 19.1 42.1 18.95 M44.2 43.6 L44.2 43.75 44.3 43.75 44.25 43.65 44.2 43.6" fill="#f4cb0f" fill-rule="evenodd" stroke="none"/>
      <path d="M46.0 19.6 L45.9 19.5 51.95 8.6 42.25 15.95 42.25 15.85 42.2 15.8 39.35 10.2 51.95 8.6 50.7 22.0 46.0 19.6 M33.7 12.3 L29.95 0.0 27.6 12.0 22.45 9.55 29.95 0.0 38.15 10.1 33.7 12.3 M19.5 14.75 L9.15 8.6 16.6 17.3 16.55 17.4 10.1 21.45 9.15 8.6 21.5 10.25 19.5 14.75 M10.6 27.6 L0.0 29.9 10.65 31.5 9.45 38.0 0.0 29.9 9.75 22.4 10.6 27.6 M14.85 42.15 L14.9 42.2 9.0 51.55 18.55 45.65 19.05 46.0 21.45 50.85 9.0 51.55 9.0 51.3 10.1 39.5 14.85 42.15 M27.1 49.25 L27.55 49.3 29.95 60.0 32.2 49.5 37.55 51.35 29.95 60.0 22.4 51.15 27.1 49.25 M42.05 45.5 L42.25 45.35 51.95 51.55 45.25 42.9 50.55 38.75 52.05 51.65 52.05 51.75 38.9 50.85 42.05 45.5 M49.8 32.65 L60.0 30.1 49.6 28.35 49.6 28.25 50.95 22.85 60.0 30.1 50.65 38.15 49.8 32.65" fill="#6fec51" fill-rule="evenodd" stroke="none"/>
      <path d="M42.1 18.95 L42.25 19.1 44.2 21.2 44.65 21.8 Q47.35 25.65 47.35 30.65 L47.35 31.45 Q47.1 37.25 43.0 41.65 39.45 44.95 35.4 46.25 L30.4 46.95 28.45 46.85 Q24.8 46.5 21.8 44.85 L20.15 43.75 20.0 43.65 18.3 42.25 17.95 41.95 16.9 40.75 Q15.25 38.65 14.4 36.25 13.75 34.5 13.5 32.55 L13.4 30.65 13.5 28.9 13.8 27.25 Q14.8 22.85 18.1 19.4 L18.3 19.1 Q23.3 14.55 30.4 14.55 L33.95 14.9 35.4 15.25 Q38.05 16.0 40.4 17.6 L41.45 18.4 42.1 18.95" fill="#660000" fill-rule="evenodd" stroke="none"/>
      <path d="M42.2 15.8 Q40.15 14.3 37.9 13.4 L37.75 13.35 37.5 13.25 33.7 12.3 38.15 10.1 38.3 10.3 39.35 10.2 42.2 15.8 M27.6 12.0 L27.55 12.25 Q23.3 12.6 19.8 14.9 L19.65 14.8 19.5 14.75 21.5 10.25 21.85 10.3 22.45 9.55 27.6 12.0 M16.55 17.4 L16.45 17.5 Q14.7 19.25 13.5 21.1 11.55 24.0 11.1 27.5 L10.6 27.6 9.75 22.4 10.15 22.05 10.1 21.45 16.55 17.4 M10.65 31.5 L10.9 31.55 10.9 31.8 Q11.05 35.75 12.95 39.2 L13.5 40.2 14.85 42.15 10.1 39.5 10.15 38.6 9.45 38.0 10.65 31.5 M19.05 46.0 L19.15 46.05 20.05 46.65 Q23.1 48.5 26.7 49.2 L27.1 49.25 22.4 51.15 22.1 50.8 21.45 50.85 19.05 46.0 M32.2 49.5 L32.2 49.35 Q37.75 48.85 42.05 45.5 L38.9 50.85 38.0 50.8 37.55 51.35 32.2 49.5 M45.25 42.9 L45.1 42.75 Q47.35 40.3 48.5 37.35 49.35 35.15 49.65 32.65 L49.8 32.65 50.65 38.15 50.5 38.25 50.55 38.75 45.25 42.9 M49.6 28.25 L49.45 27.25 Q48.95 24.75 47.85 22.5 L46.0 19.6 50.7 22.0 50.65 22.6 50.95 22.85 49.6 28.25" fill="#3aa821" fill-rule="evenodd" stroke="none"/>
      <path d="M44.2 43.6 L44.25 43.65 44.3 43.75 44.2 43.75 44.2 43.6" fill="url(#gradient0)" fill-rule="evenodd" stroke="none"/>
      <path d="M23.4 20.45 L21.25 23.8 18.85 26.5 Q17.7 26.3 17.5 25.75 L17.5 25.05 Q18.1 21.8 21.05 19.65 22.3 18.65 23.05 18.8 23.75 19.05 23.4 20.45 M19.6 29.7 L18.95 30.75 Q18.2 31.35 17.5 31.2 16.55 31.0 16.25 30.2 L16.35 29.45 Q16.55 27.8 18.1 28.05 19.9 28.2 19.6 29.7" fill="#ffffff" fill-rule="evenodd" stroke="none"/>
    </g>
    <linearGradient gradientTransform="matrix(0.0136, 0.0, 0.0, 0.0099, 40.95, 51.75)" gradientUnits="userSpaceOnUse" id="gradient0" spreadMethod="pad" x1="-819.2" x2="819.2">
      <stop offset="0.0" stop-color="#65298e"/>
      <stop offset="1.0" stop-color="#9a6cc5"/>
    </linearGradient>
    <g id="sprite2" transform="matrix(1.0, 0.0, 0.0, 1.0, 5.75, 1.6)">
      <clipPath id="clipPath0" transform="matrix(1.0, 0.0, 0.0, 1.0, 0.0, 0.0)">
        <path d="M30.8 6.65 L31.25 7.25 Q33.95 11.1 33.95 16.1 L33.95 16.9 Q33.7 22.7 29.6 27.1 26.05 30.4 22.0 31.7 L17.0 32.4 15.05 32.3 Q11.4 31.95 8.4 30.3 L6.75 29.2 6.6 29.1 4.9 27.7 4.55 27.4 3.5 26.2 Q1.85 24.1 1.0 21.7 0.35 19.95 0.1 18.0 L0.0 16.1 0.1 14.35 0.4 12.7 Q1.4 8.3 4.7 4.85 L4.9 4.55 Q9.9 0.0 17.0 0.0 L20.55 0.35 22.0 0.7 Q24.65 1.45 27.0 3.05 L28.05 3.85 28.7 4.4 28.85 4.55 30.8 6.65" fill="#660000" fill-rule="evenodd" stroke="none"/>
      </clipPath>
      <g clip-path="url(#clipPath0)">
        <use ffdec:characterId="5" height="204.1" transform="matrix(0.1677, 0.0, 0.0, 0.1677, -5.7596, -1.6096)" width="262.3" xlink:href="#sprite3"/>
      </g>
    </g>
    <g id="sprite3" transform="matrix(1.0, 0.0, 0.0, 1.0, 1.25, 1.25)">
      <use ffdec:characterId="4" height="204.1" transform="matrix(1.0, 0.0, 0.0, 1.0, -1.25, -1.25)" width="262.3" xlink:href="#shape3"/>
    </g>
    <g id="shape3" transform="matrix(1.0, 0.0, 0.0, 1.0, 1.25, 1.25)">
      <path d="M210.45 125.6 L215.4 137.85 215.6 145.95 Q215.6 153.5 214.65 159.9 L213.5 165.85 Q212.1 171.8 208.75 180.05 204.55 182.25 201.3 182.25 198.7 182.25 195.75 180.7 L193.5 179.25 192.2 175.45 194.9 171.5 197.1 168.25 194.15 160.95 198.2 153.4 Q206.1 138.15 210.45 125.6 M200.55 169.6 L201.0 171.55 199.45 174.65 198.85 176.0 199.75 176.55 Q201.6 177.45 203.7 177.45 206.35 177.45 207.85 175.2 L209.65 169.45 211.15 163.35 211.2 163.1 209.85 155.2 Q207.05 158.4 204.7 162.05 203.65 163.7 200.55 169.6" fill="#205b11" fill-rule="evenodd" stroke="none"/>
      <path d="M200.55 169.6 Q203.65 163.7 204.7 162.05 207.05 158.4 209.85 155.2 L211.2 163.1 211.15 163.35 209.65 169.45 207.85 175.2 Q206.35 177.45 203.7 177.45 201.6 177.45 199.75 176.55 L198.85 176.0 199.45 174.65 201.0 171.55 200.55 169.6" fill="#2e771b" fill-rule="evenodd" stroke="none"/>
      <path d="M210.45 125.6 Q206.1 138.15 198.2 153.4 L194.15 160.95 197.1 168.25 194.9 171.5 192.2 175.45 193.5 179.25 195.75 180.7 Q198.7 182.25 201.3 182.25 204.55 182.25 208.75 180.05 212.1 171.8 213.5 165.85 L214.65 159.9 Q215.6 153.5 215.6 145.95 L215.4 137.85 210.45 125.6 Z" fill="none" stroke="#1a352b" stroke-linecap="round" stroke-linejoin="round" stroke-width="2.5"/>
      <path d="M53.85 23.85 L49.1 2.85 48.5 0.15 50.35 0.0 Q52.65 0.0 54.9 1.4 L55.65 1.95 60.3 13.55 Q63.0 20.5 65.6 29.15 L66.55 32.3 65.65 32.4 Q64.0 32.4 61.35 31.2 L60.1 30.55 Q58.0 29.4 56.7 27.9 55.05 26.15 53.85 23.85" fill="#de3926" fill-rule="evenodd" stroke="none"/>
      <path d="M66.55 32.3 L69.65 44.05 72.9 59.15 Q76.15 77.0 77.0 90.0 L74.45 90.3 70.0 89.95 64.25 67.4 Q58.3 44.15 57.05 38.4 L53.85 23.85 Q55.05 26.15 56.7 27.9 58.0 29.4 60.1 30.55 L61.35 31.2 Q64.0 32.4 65.65 32.4 L66.55 32.3" fill="#9f2e21" fill-rule="evenodd" stroke="none"/>
      <path d="M53.85 23.85 L49.1 2.85 48.5 0.15 50.35 0.0 Q52.65 0.0 54.9 1.4 L55.65 1.95 60.3 13.55 Q63.0 20.5 65.6 29.15 L66.55 32.3 69.65 44.05 72.9 59.15 Q76.15 77.0 77.0 90.0 L74.45 90.3 70.0 89.95 64.25 67.4 Q58.3 44.15 57.05 38.4 L53.85 23.85 Z" fill="none" stroke="#54140e" stroke-linecap="round" stroke-linejoin="round" stroke-width="2.5"/>
      <path d="M181.6 19.55 L183.7 4.05 184.1 4.05 Q186.6 4.05 188.1 7.45 L188.5 8.4 187.65 17.9 187.0 25.75 Q185.95 25.3 185.1 24.6 183.2 23.0 181.95 20.3 L181.75 19.9 181.6 19.55" fill="#de3926" fill-rule="evenodd" stroke="none"/>
      <path d="M181.6 19.55 L181.75 19.9 181.95 20.3 Q183.2 23.0 185.1 24.6 185.95 25.3 187.0 25.75 L186.05 37.6 185.4 45.55 Q183.75 63.45 181.35 76.8 179.4 74.4 177.3 71.1 L175.15 67.45 Q177.4 52.9 180.4 28.95 L181.5 20.5 181.6 19.55" fill="#9f2e21" fill-rule="evenodd" stroke="none"/>
      <path d="M187.0 25.75 L187.65 17.9 188.5 8.4 188.1 7.45 Q186.6 4.05 184.1 4.05 L183.7 4.05 181.6 19.55 181.5 20.5 180.4 28.95 Q177.4 52.9 175.15 67.45 L177.3 71.1 Q179.4 74.4 181.35 76.8 183.75 63.45 185.4 45.55 L186.05 37.6 187.0 25.75 Z" fill="none" stroke="#54140e" stroke-linecap="round" stroke-linejoin="round" stroke-width="2.5"/>
      <path d="M91.85 81.6 Q85.7 79.3 79.3 77.95 L70.8 76.65 61.65 76.2 Q42.15 76.2 26.8 81.45 L21.4 83.55 18.95 84.7 18.6 85.4 Q18.0 86.85 17.55 88.4 15.9 93.95 15.9 101.1 15.9 107.7 17.75 112.8 18.6 115.0 19.75 116.95 L20.2 117.65 Q21.95 120.3 24.0 121.8 L26.1 121.7 Q37.6 120.9 52.9 116.0 L60.65 113.3 Q78.95 106.55 92.7 97.95 92.65 102.6 92.05 107.65 72.9 118.5 52.5 123.7 L49.65 124.4 Q42.1 126.15 34.0 127.2 L10.5 128.7 Q3.15 121.45 0.95 110.5 L2.45 110.9 Q8.65 112.5 16.1 112.8 14.85 106.7 14.85 99.05 14.85 94.85 16.0 88.45 L17.2 82.85 22.9 80.85 Q42.05 74.55 61.85 74.55 L70.8 74.95 Q70.65 73.5 70.15 72.0 80.5 74.2 91.45 78.6 L91.85 81.6" fill="#2b719a" fill-rule="evenodd" stroke="none"/>
      <path d="M91.85 81.6 Q92.7 88.85 92.7 96.75 L92.7 97.95 Q78.95 106.55 60.65 113.3 L52.9 116.0 Q37.6 120.9 26.1 121.7 L24.0 121.8 Q21.95 120.3 20.2 117.65 L19.75 116.95 Q18.6 115.0 17.75 112.8 15.9 107.7 15.9 101.1 15.9 93.95 17.55 88.4 18.0 86.85 18.6 85.4 L18.95 84.7 21.4 83.55 26.8 81.45 Q42.15 76.2 61.65 76.2 L70.8 76.65 79.3 77.95 Q85.7 79.3 91.85 81.6 M19.9 87.6 Q18.3 93.2 18.3 100.25 18.3 107.3 20.4 112.8 21.3 115.3 22.7 117.5 L29.15 117.95 Q36.4 117.95 45.9 115.55 L50.65 114.2 53.2 113.45 Q53.75 109.8 54.7 106.5 56.1 101.35 58.5 96.8 L53.4 95.4 51.4 94.9 44.35 93.15 41.1 96.45 35.5 102.45 Q36.95 103.7 39.6 105.35 42.95 107.45 45.05 108.15 L45.75 106.5 46.95 103.65 45.1 102.85 44.45 104.7 44.1 105.75 41.6 102.6 43.25 100.55 44.45 99.2 49.2 101.3 50.25 101.8 48.15 108.55 46.85 112.6 Q43.4 112.8 38.25 110.9 L35.35 109.7 Q31.5 107.95 29.4 106.45 36.9 94.7 46.45 86.05 L53.4 89.4 55.25 90.3 60.75 93.0 63.55 89.1 66.45 86.75 Q70.25 82.85 70.75 77.4 49.8 77.5 27.95 84.55 L19.95 87.4 19.9 87.6" fill="#a67c15" fill-rule="evenodd" stroke="none"/>
      <path d="M0.95 110.5 Q0.0 105.7 0.0 100.25 0.0 84.75 7.35 73.65 L9.7 70.45 40.75 69.3 Q56.35 69.3 68.75 71.7 L70.15 72.0 Q70.65 73.5 70.8 74.95 L61.85 74.55 Q42.05 74.55 22.9 80.85 L17.2 82.85 16.0 88.45 Q14.85 94.85 14.85 99.05 14.85 106.7 16.1 112.8 8.65 112.5 2.45 110.9 L0.95 110.5 M11.2 73.65 L11.0 74.7 Q11.0 76.25 12.2 77.05 13.2 77.7 14.55 77.7 15.8 77.7 16.6 76.85 17.25 76.2 17.25 75.55 17.25 74.4 15.75 73.6 14.5 72.9 13.5 72.9 12.65 72.9 12.0 73.25 L11.35 73.45 11.2 73.65" fill="#61bde4" fill-rule="evenodd" stroke="none"/>
      <path d="M11.2 73.65 L11.35 73.45 12.0 73.25 Q12.65 72.9 13.5 72.9 14.5 72.9 15.75 73.6 17.25 74.4 17.25 75.55 17.25 76.2 16.6 76.85 15.8 77.7 14.55 77.7 13.2 77.7 12.2 77.05 11.0 76.25 11.0 74.7 L11.2 73.65" fill="#9ae1ff" fill-rule="evenodd" stroke="none"/>
      <path d="M19.9 87.6 L19.95 87.4 27.95 84.55 Q49.8 77.5 70.75 77.4 70.25 82.85 66.45 86.75 L63.55 89.1 60.75 93.0 55.25 90.3 53.4 89.4 46.45 86.05 Q36.9 94.7 29.4 106.45 31.5 107.95 35.35 109.7 L38.25 110.9 Q43.4 112.8 46.85 112.6 L48.15 108.55 50.25 101.8 49.2 101.3 44.45 99.2 43.25 100.55 41.6 102.6 44.1 105.75 44.45 104.7 45.1 102.85 46.95 103.65 45.75 106.5 45.05 108.15 Q42.95 107.45 39.6 105.35 36.95 103.7 35.5 102.45 L41.1 96.45 44.35 93.15 51.4 94.9 53.4 95.4 58.5 96.8 Q56.1 101.35 54.7 106.5 53.75 109.8 53.2 113.45 L50.65 114.2 45.9 115.55 Q36.4 117.95 29.15 117.95 L22.7 117.5 Q21.3 115.3 20.4 112.8 18.3 107.3 18.3 100.25 18.3 93.2 19.9 87.6" fill="#f4cb0f" fill-rule="evenodd" stroke="none"/>
      <path d="M92.7 97.95 L92.7 96.75 Q92.7 88.85 91.85 81.6 L91.45 78.6 Q80.5 74.2 70.15 72.0 L68.75 71.7 Q56.35 69.3 40.75 69.3 L9.7 70.45 7.35 73.65 Q0.0 84.75 0.0 100.25 0.0 105.7 0.95 110.5 3.15 121.45 10.5 128.7 L34.0 127.2 Q42.1 126.15 49.65 124.4 L52.5 123.7 Q72.9 118.5 92.05 107.65 92.65 102.6 92.7 97.95 Z" fill="none" stroke="#1a3854" stroke-linecap="round" stroke-linejoin="round" stroke-width="2.5"/>
      <path d="M70.05 166.15 L73.1 169.1 76.5 172.35 76.5 173.15 Q76.5 176.15 75.3 177.9 74.05 179.65 71.05 181.1 L68.05 183.8 Q64.0 186.7 60.0 186.7 56.1 186.7 52.7 184.05 50.45 178.15 49.35 173.25 48.45 169.35 47.9 164.35 47.3 159.35 47.3 155.4 L47.35 155.0 Q48.75 149.1 52.25 139.3 56.2 128.25 59.25 122.5 L65.2 129.85 66.4 131.4 66.3 132.4 Q66.3 144.65 71.15 154.0 70.4 155.7 70.3 156.9 L70.05 160.0 69.9 161.75 69.9 162.65 69.8 165.95 70.05 166.15 M67.05 163.45 L66.0 162.4 Q61.7 158.35 57.75 157.7 56.65 159.75 55.45 163.15 54.75 165.15 54.35 166.85 54.8 169.1 55.9 172.3 57.2 176.15 58.25 178.2 L61.8 178.85 Q65.4 178.85 68.1 177.55 L68.1 177.5 Q69.05 176.15 69.05 174.0 69.05 172.1 68.25 170.5 L67.9 169.9 67.1 169.55 65.15 168.75 66.05 166.2 67.05 163.45" fill="#205b11" fill-rule="evenodd" stroke="none"/>
      <path d="M67.05 163.45 L66.05 166.2 65.15 168.75 67.1 169.55 67.9 169.9 68.25 170.5 Q69.05 172.1 69.05 174.0 69.05 176.15 68.1 177.5 L68.1 177.55 Q65.4 178.85 61.8 178.85 L58.25 178.2 Q57.2 176.15 55.9 172.3 54.8 169.1 54.35 166.85 54.75 165.15 55.45 163.15 56.65 159.75 57.75 157.7 61.7 158.35 66.0 162.4 L67.05 163.45" fill="#2e771b" fill-rule="evenodd" stroke="none"/>
      <path d="M70.05 166.15 L73.1 169.1 76.5 172.35 76.5 173.15 Q76.5 176.15 75.3 177.9 74.05 179.65 71.05 181.1 L68.05 183.8 Q64.0 186.7 60.0 186.7 56.1 186.7 52.7 184.05 50.45 178.15 49.35 173.25 48.45 169.35 47.9 164.35 47.3 159.35 47.3 155.4 L47.35 155.0 Q48.75 149.1 52.25 139.3 56.2 128.25 59.25 122.5 L65.2 129.85 66.4 131.4 66.3 132.4 Q66.3 144.65 71.15 154.0 70.4 155.7 70.3 156.9 L70.05 160.0 69.95 161.65 69.9 162.65 Q69.9 164.4 70.05 166.15 L69.8 165.95 69.9 162.65 69.9 161.75 70.05 160.0" fill="none" stroke="#1a3129" stroke-linecap="round" stroke-linejoin="round" stroke-width="2.5"/>
      <path d="M127.45 177.0 L128.35 176.9 135.45 176.6 143.35 177.35 Q146.65 177.85 151.65 179.3 151.2 191.9 143.35 201.6 L142.15 201.55 138.25 201.15 Q135.8 200.7 134.35 200.0 132.0 196.35 129.6 187.45 127.75 180.4 127.45 177.0" fill="#256215" fill-rule="evenodd" stroke="none"/>
      <path d="M127.45 177.0 L128.35 176.9 135.45 176.6 143.35 177.35 Q146.65 177.85 151.65 179.3 151.2 191.9 143.35 201.6 L142.15 201.55 138.25 201.15 Q135.8 200.7 134.35 200.0 132.0 196.35 129.6 187.45 127.75 180.4 127.45 177.0 Z" fill="none" stroke="#172c25" stroke-linecap="round" stroke-linejoin="round" stroke-width="2.5"/>
      <path d="M109.9 176.05 Q115.4 177.35 122.2 179.95 121.45 185.05 118.5 192.0 115.95 198.0 113.2 201.3 L112.05 201.4 Q109.6 201.4 107.6 200.65 106.05 200.05 105.0 199.05 102.85 195.25 100.4 188.9 98.35 183.5 96.4 174.4 103.0 174.45 109.9 176.05" fill="#256215" fill-rule="evenodd" stroke="none"/>
      <path d="M109.9 176.05 Q115.4 177.35 122.2 179.95 121.45 185.05 118.5 192.0 115.95 198.0 113.2 201.3 L112.05 201.4 Q109.6 201.4 107.6 200.65 106.05 200.05 105.0 199.05 102.85 195.25 100.4 188.9 98.35 183.5 96.4 174.4 103.0 174.45 109.9 176.05 Z" fill="none" stroke="#172c26" stroke-linecap="round" stroke-linejoin="round" stroke-width="2.5"/>
      <path d="M186.3 71.95 L187.7 71.5 Q192.75 69.85 198.45 68.6 206.25 66.8 215.2 65.7 232.05 63.6 246.15 63.05 L248.85 65.95 Q257.45 76.05 259.35 91.45 260.0 96.85 259.7 101.75 L258.25 102.3 Q252.3 104.65 244.95 105.9 245.45 99.7 244.5 92.1 244.0 87.95 242.05 81.65 L240.2 76.25 234.3 75.0 Q216.75 71.55 199.3 73.05 L194.9 73.5 186.05 74.95 Q186.0 73.55 186.3 71.95 M244.45 69.9 Q245.55 68.95 245.35 67.45 L245.0 66.45 244.85 66.25 244.15 66.15 242.65 65.95 Q241.7 66.1 240.5 66.95 239.1 67.9 239.25 69.0 239.35 69.65 240.05 70.25 240.95 71.0 242.2 70.85 243.5 70.7 244.45 69.9" fill="#61bde4" fill-rule="evenodd" stroke="none"/>
      <path d="M244.45 69.9 Q243.5 70.7 242.2 70.85 240.95 71.0 240.05 70.25 239.35 69.65 239.25 69.0 239.1 67.9 240.5 66.95 241.7 66.1 242.65 65.95 L244.15 66.15 244.85 66.25 245.0 66.45 245.35 67.45 Q245.55 68.95 244.45 69.9" fill="#9ae1ff" fill-rule="evenodd" stroke="none"/>
      <path d="M186.3 71.95 Q186.0 73.55 186.05 74.95 L194.9 73.5 199.3 73.05 Q216.75 71.55 234.3 75.0 L240.2 76.25 242.05 81.65 Q244.0 87.95 244.5 92.1 245.45 99.7 244.95 105.9 252.3 104.65 258.25 102.3 L259.7 101.75 Q258.85 112.9 252.45 120.95 L228.95 122.35 218.65 121.95 213.05 121.45 210.1 121.1 Q189.25 118.45 168.9 110.05 167.7 105.05 167.1 100.45 181.8 107.35 200.75 111.8 L208.8 113.5 218.05 115.05 236.05 115.95 238.2 115.8 Q240.05 114.05 241.45 111.2 L241.8 110.45 243.3 106.1 Q244.5 100.8 243.7 94.25 242.85 87.15 240.5 81.8 L239.1 79.0 238.65 78.35 236.15 77.5 Q233.65 76.7 230.45 76.1 216.4 73.1 199.6 74.65 L195.3 75.1 186.25 76.65 Q182.05 77.6 177.95 79.0 171.75 81.1 165.95 84.1 L165.95 81.1 Q176.3 75.45 186.3 71.95" fill="#2b719a" fill-rule="evenodd" stroke="none"/>
      <path d="M167.1 100.45 L166.95 99.25 Q165.95 91.4 165.95 84.1 171.75 81.1 177.95 79.0 182.05 77.6 186.25 76.65 L195.3 75.1 199.6 74.65 Q216.4 73.1 230.45 76.1 233.65 76.7 236.15 77.5 L238.65 78.35 239.1 79.0 240.5 81.8 Q242.85 87.15 243.7 94.25 244.5 100.8 243.3 106.1 L241.8 110.45 241.45 111.2 Q240.05 114.05 238.2 115.8 L236.05 115.95 218.05 115.05 208.8 113.5 200.75 111.8 Q181.8 107.35 167.1 100.45 M201.0 84.05 Q204.95 87.1 208.1 90.95 L212.15 88.3 213.85 87.2 215.6 86.1 220.35 83.05 Q230.9 90.45 239.75 101.2 L234.25 105.15 231.5 106.7 Q226.65 109.2 223.15 109.45 L222.1 107.05 221.4 105.55 219.85 102.05 218.5 99.1 219.5 98.5 222.75 96.55 223.95 95.85 225.3 97.05 227.2 98.85 225.1 102.3 224.6 101.3 223.75 99.5 Q222.95 99.95 222.0 100.55 L223.5 103.25 224.4 104.8 Q226.45 103.85 229.5 101.35 L230.45 100.6 233.25 97.95 226.95 92.7 223.3 89.8 221.05 90.7 Q219.55 91.25 217.4 92.1 L216.5 92.45 214.55 93.15 Q212.5 93.95 210.8 94.7 213.05 98.25 214.7 102.35 216.65 107.15 217.65 112.45 226.1 113.35 232.6 112.55 L238.95 111.35 Q240.1 108.95 240.65 106.4 242.05 100.7 241.2 93.7 240.35 86.7 238.05 81.35 L238.0 81.15 229.75 79.25 Q214.4 76.3 199.9 76.55 L200.5 80.65 201.0 84.05" fill="#a67c15" fill-rule="evenodd" stroke="none"/>
      <path d="M201.0 84.05 L200.5 80.65 199.9 76.55 Q214.4 76.3 229.75 79.25 L238.0 81.15 238.05 81.35 Q240.35 86.7 241.2 93.7 242.05 100.7 240.65 106.4 240.1 108.95 238.95 111.35 L232.6 112.55 Q226.1 113.35 217.65 112.45 216.65 107.15 214.7 102.35 213.05 98.25 210.8 94.7 212.5 93.95 214.55 93.15 L216.5 92.45 217.4 92.1 Q219.55 91.25 221.05 90.7 L223.3 89.8 226.95 92.7 233.25 97.95 230.45 100.6 229.5 101.35 Q226.45 103.85 224.4 104.8 L223.5 103.25 222.0 100.55 Q222.95 99.95 223.75 99.5 L224.6 101.3 225.1 102.3 227.2 98.85 225.3 97.05 223.95 95.85 222.75 96.55 219.5 98.5 218.5 99.1 219.85 102.05 221.4 105.55 222.1 107.05 223.15 109.45 Q226.65 109.2 231.5 106.7 L234.25 105.15 239.75 101.2 Q230.9 90.45 220.35 83.05 L215.6 86.1 213.85 87.2 212.15 88.3 208.1 90.95 Q204.95 87.1 201.0 84.05" fill="#f4cb0f" fill-rule="evenodd" stroke="none"/>
      <path d="M259.7 101.75 Q260.0 96.85 259.35 91.45 257.45 76.05 248.85 65.95 L246.15 63.05 Q232.05 63.6 215.2 65.7 206.25 66.8 198.45 68.6 192.75 69.85 187.7 71.5 L186.3 71.95 Q176.3 75.45 165.95 81.1 L165.95 84.1 Q165.95 91.4 166.95 99.25 L167.1 100.45 Q167.7 105.05 168.9 110.05 189.25 118.45 210.1 121.1 L213.05 121.45 218.65 121.95 228.95 122.35 252.45 120.95 Q258.85 112.9 259.7 101.75 Z" fill="none" stroke="#1a3854" stroke-linecap="round" stroke-linejoin="round" stroke-width="2.5"/>
      <path d="M72.0 90.1 Q75.6 86.2 80.1 82.65 103.35 64.25 136.15 64.25 153.45 64.25 168.1 69.4 181.2 73.95 192.15 82.65 199.95 88.85 205.15 95.9 L204.45 99.65 203.85 101.55 203.7 101.5 Q195.45 98.55 187.15 97.4 L184.55 97.05 184.05 97.5 Q181.15 100.45 178.4 105.0 L169.65 103.5 159.35 102.35 138.95 101.45 110.05 102.8 108.4 102.95 106.9 100.35 Q104.05 95.65 101.35 93.05 87.5 96.55 76.5 103.3 74.85 100.5 73.6 96.8 72.45 93.35 72.0 90.1" fill="#205b14" fill-rule="evenodd" stroke="none"/>
      <path d="M76.5 103.3 Q87.5 96.55 101.35 93.05 104.05 95.65 106.9 100.35 L108.4 102.95 Q110.2 106.3 111.35 109.5 106.1 112.35 100.6 114.65 L92.1 117.8 Q88.35 115.55 85.2 112.8 83.4 111.4 81.65 109.6 L80.85 108.75 77.85 105.15 76.55 103.4 76.5 103.3 M178.4 105.0 Q181.15 100.45 184.05 97.5 L184.55 97.05 187.15 97.4 Q195.45 98.55 203.7 101.5 L202.1 105.65 200.3 109.45 Q198.85 112.05 197.2 113.85 L195.85 113.8 195.4 113.8 Q191.5 113.8 187.95 113.95 L174.35 115.1 173.15 115.3 Q175.05 110.55 177.85 105.85 L178.4 105.0 M131.3 128.3 L117.25 126.6 Q111.05 125.45 105.6 123.7 L113.95 123.0 114.15 123.0 Q118.95 123.0 123.6 124.25 L126.45 125.15 Q128.75 126.9 131.3 128.3" fill="#0c460e" fill-rule="evenodd" stroke="none"/>
      <path d="M203.7 101.5 L203.85 101.55 206.2 102.4 210.1 104.05 Q212.8 109.5 214.1 115.4 206.15 113.95 197.2 113.85 198.85 112.05 200.3 109.45 L202.1 105.65 203.7 101.5 M215.35 125.4 L215.35 127.05 215.25 130.7 214.0 130.2 213.7 130.1 213.3 129.95 Q208.5 128.05 204.15 126.9 L202.05 126.9 Q199.55 123.65 196.05 121.65 202.4 120.4 208.8 119.85 210.65 120.9 212.9 122.95 L215.35 125.4 M212.4 144.65 Q210.45 150.05 207.3 155.05 L205.0 156.7 203.95 157.45 Q205.9 152.55 206.55 147.7 L212.4 144.65 M58.3 139.15 L57.35 133.85 Q59.6 136.45 62.85 139.2 69.1 144.45 76.15 146.15 L80.15 146.8 Q79.85 148.9 79.85 151.1 79.85 153.6 80.2 156.0 77.05 154.45 73.85 153.4 L67.95 151.9 Q65.0 148.7 61.4 143.6 L58.3 139.15 M57.0 128.75 L56.95 128.2 56.95 127.05 56.95 126.2 57.0 124.55 58.05 125.4 59.65 126.4 Q61.2 127.3 63.05 127.9 67.7 129.4 76.45 129.4 L87.4 128.5 90.6 127.9 90.05 128.4 Q86.25 132.1 83.9 136.2 L80.25 136.3 Q70.2 136.3 65.7 134.65 61.0 132.95 57.0 128.75 M57.2 121.8 L57.5 119.35 Q64.3 111.55 72.95 105.6 L76.5 103.3 76.55 103.4 77.85 105.15 80.85 108.75 81.65 109.6 Q83.4 111.4 85.2 112.8 88.35 115.55 92.1 117.8 84.35 120.2 77.1 120.95 76.35 120.35 75.25 119.95 73.45 119.3 71.15 119.3 67.9 119.3 63.75 120.9 62.2 121.5 60.95 122.15 L60.35 122.2 57.2 121.8" fill="#205b11" fill-rule="evenodd" stroke="none"/>
      <path d="M72.0 90.1 Q72.45 93.35 73.6 96.8 74.85 100.5 76.5 103.3 L72.95 105.6 Q64.3 111.55 57.5 119.35 59.6 104.45 70.0 92.3 L72.0 90.1 M108.4 102.95 L110.05 102.8 138.95 101.45 159.35 102.35 169.65 103.5 178.4 105.0 177.85 105.85 Q175.05 110.55 173.15 115.3 L174.35 115.1 187.95 113.95 Q191.5 113.8 195.4 113.8 L195.85 113.8 197.2 113.85 Q206.15 113.95 214.1 115.4 215.2 120.25 215.35 125.4 L212.9 122.95 Q210.65 120.9 208.8 119.85 202.4 120.4 196.05 121.65 193.15 120.05 189.6 119.3 186.2 121.3 183.05 122.25 L172.8 125.05 168.1 126.05 Q158.35 127.95 148.6 128.45 L141.8 128.6 131.3 128.3 Q128.75 126.9 126.45 125.15 L123.6 124.25 Q118.95 123.0 114.15 123.0 L113.95 123.0 105.6 123.7 99.65 121.55 Q94.95 123.8 90.6 127.9 L87.4 128.5 76.45 129.4 Q67.7 129.4 63.05 127.9 61.2 127.3 59.65 126.4 L58.05 125.4 57.0 124.55 57.2 121.8 60.35 122.2 60.95 122.15 Q62.2 121.5 63.75 120.9 67.9 119.3 71.15 119.3 73.45 119.3 75.25 119.95 76.35 120.35 77.1 120.95 84.35 120.2 92.1 117.8 L100.6 114.65 Q106.1 112.35 111.35 109.5 110.2 106.3 108.4 102.95 M203.85 101.55 L204.45 99.65 205.15 95.9 208.65 101.25 210.1 104.05 206.2 102.4 203.85 101.55 M215.25 130.7 L215.2 131.6 214.65 135.9 Q213.9 140.4 212.4 144.65 L206.55 147.7 205.45 148.2 205.2 148.35 199.6 150.5 198.95 150.65 198.1 150.9 199.35 148.1 199.65 147.25 199.6 145.35 Q199.4 142.1 198.65 139.35 L197.6 136.5 196.05 136.2 195.35 136.25 189.5 144.05 184.15 151.3 183.8 151.85 182.5 153.6 181.15 153.0 180.75 152.8 180.45 152.7 Q174.65 150.2 168.7 149.2 L168.1 149.1 159.4 148.4 156.6 149.1 153.5 150.0 Q148.5 151.5 144.25 153.3 L141.7 154.4 Q135.45 157.1 132.85 158.65 L130.8 158.7 129.2 158.65 126.0 158.15 124.45 157.65 124.7 156.6 124.6 156.45 Q121.8 152.4 117.65 147.8 111.55 141.05 105.15 136.25 L104.8 136.15 101.95 135.75 101.15 135.85 Q98.8 138.3 96.15 144.35 L95.9 144.9 95.15 146.75 94.6 146.8 94.45 146.8 93.8 146.85 90.1 147.05 87.35 147.1 80.15 146.8 76.15 146.15 Q69.1 144.45 62.85 139.2 59.6 136.45 57.35 133.85 L57.0 128.75 Q61.0 132.95 65.7 134.65 70.2 136.3 80.25 136.3 L83.9 136.2 Q81.35 140.55 80.4 145.4 L85.7 145.9 93.75 144.8 94.65 144.65 94.8 144.6 95.85 142.25 Q98.25 137.2 99.8 134.8 L103.35 134.6 107.05 135.0 Q112.25 138.3 118.7 145.7 L126.65 155.35 126.8 155.4 Q129.2 156.1 131.55 156.1 L133.6 155.95 144.0 151.45 Q152.25 148.0 157.55 146.3 L160.3 145.5 Q164.0 145.7 168.1 146.6 L173.55 148.0 Q178.0 149.35 181.95 151.05 L184.65 147.1 Q191.3 137.55 195.6 133.25 198.05 133.6 199.45 134.4 200.1 136.45 200.6 139.75 L201.1 144.8 200.3 147.85 200.45 147.8 204.4 146.35 206.8 145.4 206.85 143.0 Q206.85 133.55 202.25 127.2 L202.05 126.9 204.15 126.9 Q208.5 128.05 213.3 129.95 L213.7 130.1 214.0 130.2 215.25 130.7 M207.3 155.05 L205.0 158.4 204.45 159.1 201.45 162.7 202.75 160.15 197.25 163.25 196.15 163.8 Q190.65 166.65 185.55 168.75 L181.2 167.65 Q173.7 165.9 169.5 165.9 L168.1 165.95 163.8 166.2 160.85 167.4 156.1 169.1 150.95 170.6 Q142.35 172.9 136.2 172.9 L132.2 172.65 131.65 172.55 Q128.7 171.1 125.3 170.3 120.55 169.1 114.8 169.1 L107.35 169.5 103.15 172.4 Q99.15 174.7 94.55 174.7 L91.05 174.1 84.9 160.2 81.6 157.85 80.35 157.05 Q81.8 165.65 87.65 173.0 90.2 176.2 93.55 179.15 L92.05 179.3 Q85.75 175.9 80.1 171.4 74.75 167.15 70.6 162.45 61.25 151.85 58.3 139.15 L61.4 143.6 Q65.0 148.7 67.95 151.9 L73.85 153.4 Q77.05 154.45 80.2 156.0 L83.95 158.05 85.0 158.7 86.1 161.15 Q87.95 165.3 89.3 167.75 L91.65 171.65 95.25 172.0 98.0 171.55 Q100.95 170.9 102.95 170.1 L106.2 168.55 106.7 168.4 109.6 167.95 116.1 167.6 123.95 168.35 128.3 169.15 129.7 169.95 Q133.2 171.6 138.35 171.6 L142.25 171.4 Q147.15 170.8 152.4 168.8 154.9 167.85 159.05 165.55 L168.1 164.6 172.45 164.5 180.2 164.95 Q184.35 165.4 186.3 166.05 L192.95 163.4 196.65 161.7 Q200.6 159.7 203.95 157.45 L205.0 156.7 207.3 155.05 M143.6 179.5 L143.45 179.4 148.05 175.5 Q149.2 174.6 154.35 171.35 155.6 170.55 156.7 169.9 L158.85 173.65 161.2 178.5 161.15 178.5 160.45 178.1 159.7 177.65 158.85 175.7 156.5 172.1 156.0 171.5 Q153.0 173.05 148.5 176.75 L145.4 179.45 143.6 179.5" fill="#1f8717" fill-rule="evenodd" stroke="none"/>
      <path d="M198.95 150.65 L199.6 150.5 205.2 148.35 205.45 148.2 206.55 147.7 Q205.9 152.55 203.95 157.45 200.6 159.7 196.65 161.7 L192.95 163.4 186.3 166.05 Q184.35 165.4 180.2 164.95 L172.45 164.5 168.1 164.6 159.05 165.55 Q154.9 167.85 152.4 168.8 147.15 170.8 142.25 171.4 L138.35 171.6 Q133.2 171.6 129.7 169.95 L128.3 169.15 123.95 168.35 116.1 167.6 109.6 167.95 106.7 168.4 106.2 168.55 102.95 170.1 Q100.95 170.9 98.0 171.55 L95.25 172.0 91.65 171.65 89.3 167.75 Q87.95 165.3 86.1 161.15 L85.0 158.7 83.95 158.05 80.2 156.0 Q79.85 153.6 79.85 151.1 79.85 148.9 80.15 146.8 L87.35 147.1 90.1 147.05 93.8 146.85 94.45 146.8 94.2 149.55 93.95 152.75 Q96.1 157.75 99.65 160.15 104.5 163.4 114.25 163.4 118.25 163.4 121.85 162.4 L123.3 161.95 124.1 158.85 124.3 158.05 124.45 157.65 126.0 158.15 129.2 158.65 130.8 158.7 132.85 158.65 Q135.45 157.1 141.7 154.4 L144.25 153.3 Q148.5 151.5 153.5 150.0 L156.6 149.1 159.4 148.4 168.1 149.1 168.7 149.2 Q174.65 150.2 180.45 152.7 L180.75 152.8 181.15 153.0 182.5 153.6 181.4 155.15 181.35 155.15 181.2 155.1 181.3 158.85 182.85 159.8 185.35 160.9 187.6 160.95 Q188.75 160.95 191.05 160.1 L191.75 159.75 191.8 159.7 195.4 157.55 198.95 150.65 M196.05 121.65 Q199.55 123.65 202.05 126.9 196.2 127.15 186.85 130.0 177.05 132.95 170.35 136.9 L168.1 137.1 162.0 137.4 Q147.45 137.4 135.75 135.8 L129.8 134.85 129.05 134.7 Q129.05 133.6 127.45 132.7 126.05 131.9 124.9 131.9 L123.25 132.1 122.9 131.95 121.8 131.55 Q116.95 130.0 110.0 130.0 103.3 130.0 97.2 131.55 93.45 132.45 89.95 133.95 87.2 135.1 85.35 136.15 L83.9 136.2 Q86.25 132.1 90.05 128.4 L90.6 127.9 92.9 127.3 96.4 126.0 96.45 126.0 97.0 125.8 Q101.3 124.4 105.6 123.7 111.05 125.45 117.25 126.6 L131.3 128.3 Q134.45 129.95 138.0 130.95 L140.0 131.45 Q145.2 132.6 151.95 132.6 159.9 132.6 164.75 131.3 L168.1 130.35 173.6 128.5 177.45 127.0 180.9 125.55 Q188.45 123.15 196.05 121.65" fill="#2e771b" fill-rule="evenodd" stroke="none"/>
      <path d="M201.45 162.7 L198.3 166.05 192.15 171.4 Q183.9 177.95 174.5 182.15 L173.65 181.75 Q171.3 180.85 168.1 180.5 L164.8 180.3 160.2 181.6 Q151.2 183.9 142.75 184.9 L130.75 185.6 Q119.15 185.6 108.1 181.15 L102.95 178.9 101.8 178.8 93.55 179.15 Q90.2 176.2 87.65 173.0 81.8 165.65 80.35 157.05 L81.6 157.85 84.9 160.2 91.05 174.1 94.55 174.7 Q99.15 174.7 103.15 172.4 L107.35 169.5 114.8 169.1 Q120.55 169.1 125.3 170.3 128.7 171.1 131.65 172.55 L132.2 172.65 136.2 172.9 Q142.35 172.9 150.95 170.6 L156.1 169.1 160.85 167.4 163.8 166.2 168.1 165.95 169.5 165.9 Q173.7 165.9 181.2 167.65 L185.55 168.75 Q190.65 166.65 196.15 163.8 L197.25 163.25 202.75 160.15 201.45 162.7 M202.05 126.9 L202.25 127.2 Q206.85 133.55 206.85 143.0 L206.8 145.4 204.4 146.35 200.45 147.8 200.3 147.85 201.1 144.8 200.6 139.75 Q200.1 136.45 199.45 134.4 198.05 133.6 195.6 133.25 191.3 137.55 184.65 147.1 L181.95 151.05 Q178.0 149.35 173.55 148.0 L168.1 146.6 Q164.0 145.7 160.3 145.5 L157.55 146.3 Q152.25 148.0 144.0 151.45 L133.6 155.95 131.55 156.1 Q129.2 156.1 126.8 155.4 L126.65 155.35 118.7 145.7 Q112.25 138.3 107.05 135.0 L103.35 134.6 99.8 134.8 Q98.25 137.2 95.85 142.25 L94.8 144.6 94.65 144.65 93.75 144.8 85.7 145.9 80.4 145.4 Q81.35 140.55 83.9 136.2 L85.35 136.15 Q87.2 135.1 89.95 133.95 93.45 132.45 97.2 131.55 103.3 130.0 110.0 130.0 116.95 130.0 121.8 131.55 L122.9 131.95 123.25 132.1 122.6 132.45 122.55 132.45 122.35 133.5 Q122.35 135.0 123.25 135.8 L124.55 136.5 125.65 136.6 126.5 136.55 128.05 136.0 129.0 135.1 129.05 134.7 129.8 134.85 135.75 135.8 Q147.45 137.4 162.0 137.4 L168.1 137.1 170.35 136.9 Q177.05 132.95 186.85 130.0 196.2 127.15 202.05 126.9 M131.3 128.3 L141.8 128.6 148.6 128.45 Q158.35 127.95 168.1 126.05 L172.8 125.05 183.05 122.25 Q186.2 121.3 189.6 119.3 193.15 120.05 196.05 121.65 188.45 123.15 180.9 125.55 L177.45 127.0 173.6 128.5 168.1 130.35 164.75 131.3 Q159.9 132.6 151.95 132.6 145.2 132.6 140.0 131.45 L138.0 130.95 Q134.45 129.95 131.3 128.3 M105.6 123.7 Q101.3 124.4 97.0 125.8 L96.45 126.0 96.4 126.0 92.9 127.3 90.6 127.9 Q94.95 123.8 99.65 121.55 L105.6 123.7 M161.15 178.5 L161.2 178.5 158.85 173.65 156.7 169.9 Q155.6 170.55 154.35 171.35 149.2 174.6 148.05 175.5 L143.45 179.4 143.6 179.5 144.45 180.0 146.75 181.3 148.6 180.2 Q152.15 178.2 154.85 176.9 L157.7 179.65 161.15 178.5" fill="#3aa821" fill-rule="evenodd" stroke="none"/>
      <path d="M182.5 153.6 L183.8 151.85 184.15 151.3 189.5 144.05 195.35 136.25 196.05 136.2 197.6 136.5 198.65 139.35 Q199.4 142.1 199.6 145.35 L199.65 147.25 199.35 148.1 198.1 150.9 Q196.25 154.45 194.0 156.8 L193.35 157.1 192.85 157.35 188.95 158.9 187.15 159.25 Q181.55 159.2 181.3 155.3 L181.4 155.15 182.5 153.6 M124.45 157.65 L124.3 158.05 122.8 160.3 122.5 160.6 122.3 160.85 117.8 161.9 112.85 162.65 111.4 162.6 110.95 162.6 Q103.5 162.1 99.25 157.6 97.45 155.7 96.4 153.35 95.2 150.7 95.0 147.5 L94.95 147.25 95.15 146.75 95.9 144.9 96.15 144.35 Q98.8 138.3 101.15 135.85 L101.95 135.75 104.8 136.15 105.15 136.25 Q111.55 141.05 117.65 147.8 121.8 152.4 124.6 156.45 L124.7 156.6 124.45 157.65 M145.4 179.45 L148.5 176.75 Q153.0 173.05 156.0 171.5 L156.5 172.1 158.85 175.7 159.7 177.65 159.85 178.05 159.25 178.15 157.75 178.5 156.65 177.35 155.7 176.5 155.05 176.0 154.2 176.3 Q152.5 176.85 149.9 178.2 147.8 179.25 146.65 180.05 L145.15 179.65 145.4 179.45" fill="#202928" fill-rule="evenodd" stroke="none"/>
      <path d="M198.1 150.9 L198.95 150.65 195.4 157.55 191.8 159.7 191.75 159.75 191.05 160.1 Q188.75 160.95 187.6 160.95 L185.35 160.9 182.85 159.8 181.3 158.85 181.2 155.1 181.35 155.15 181.4 155.15 181.3 155.3 Q181.55 159.2 187.15 159.25 L188.95 158.9 192.85 157.35 193.35 157.1 194.0 156.8 Q196.25 154.45 198.1 150.9 M124.3 158.05 L124.1 158.85 123.3 161.95 121.85 162.4 Q118.25 163.4 114.25 163.4 104.5 163.4 99.65 160.15 96.1 157.75 93.95 152.75 L94.2 149.55 94.45 146.8 94.6 146.8 95.15 146.75 94.95 147.25 95.0 147.5 Q95.2 150.7 96.4 153.35 97.45 155.7 99.25 157.6 103.5 162.1 110.95 162.6 L111.4 162.6 112.85 162.65 117.8 161.9 122.3 160.85 122.5 160.6 122.8 160.3 124.3 158.05" fill="#45a82b" fill-rule="evenodd" stroke="none"/>
      <path d="M174.5 182.15 L168.1 184.7 Q156.35 188.8 142.95 189.6 L136.15 189.8 Q114.1 189.8 96.35 181.5 L92.05 179.3 93.55 179.15 101.8 178.8 102.95 178.9 108.1 181.15 Q119.15 185.6 130.75 185.6 L142.75 184.9 Q151.2 183.9 160.2 181.6 L164.8 180.3 168.1 180.5 Q171.3 180.85 173.65 181.75 L174.5 182.15" fill="#256215" fill-rule="evenodd" stroke="none"/>
      <path d="M129.05 134.7 L129.0 135.1 128.05 136.0 126.5 136.55 125.65 136.6 124.55 136.5 123.25 135.8 Q122.35 135.0 122.35 133.5 L122.55 132.45 122.6 132.45 123.25 132.1 Q125.45 133.0 127.1 134.25 L129.05 134.7" fill="#6ff551" fill-rule="evenodd" stroke="none"/>
      <path d="M123.25 132.1 L124.9 131.9 Q126.05 131.9 127.45 132.7 129.05 133.6 129.05 134.7 L127.1 134.25 Q125.45 133.0 123.25 132.1" fill="#6fdb52" fill-rule="evenodd" stroke="none"/>
      <path d="M143.6 179.5 L145.4 179.45 145.15 179.65 146.65 180.05 Q147.8 179.25 149.9 178.2 152.5 176.85 154.2 176.3 L155.05 176.0 155.7 176.5 156.65 177.35 157.75 178.5 159.25 178.15 159.85 178.05 159.7 177.65 160.45 178.1 161.15 178.5 157.7 179.65 154.85 176.9 Q152.15 178.2 148.6 180.2 L146.75 181.3 144.45 180.0 143.6 179.5" fill="#53d436" fill-rule="evenodd" stroke="none"/>
      <path d="M205.15 95.9 Q199.95 88.85 192.15 82.65 181.2 73.95 168.1 69.4 153.45 64.25 136.15 64.25 103.35 64.25 80.1 82.65 75.6 86.2 72.0 90.1 L70.0 92.3 Q59.6 104.45 57.5 119.35 L57.2 121.8 57.0 124.55 56.95 126.2 56.95 127.05 56.95 128.2 57.0 128.75 57.35 133.85 58.3 139.15 Q61.25 151.85 70.6 162.45 74.75 167.15 80.1 171.4 85.75 175.9 92.05 179.3 L96.35 181.5 Q114.1 189.8 136.15 189.8 L142.95 189.6 Q156.35 188.8 168.1 184.7 L174.5 182.15 Q183.9 177.95 192.15 171.4 L198.3 166.05 201.45 162.7 204.45 159.1 205.0 158.4 207.3 155.05 Q210.45 150.05 212.4 144.65 213.9 140.4 214.65 135.9 L215.2 131.6 215.25 130.7 215.35 127.05 215.35 125.4 Q215.2 120.25 214.1 115.4 212.8 109.5 210.1 104.05 L208.65 101.25 205.15 95.9 Z" fill="none" stroke="#153127" stroke-linecap="round" stroke-linejoin="round" stroke-width="2.5"/>
      <path d="M89.3 29.4 L92.15 26.65 Q108.9 11.95 131.7 12.45 L132.6 12.45 Q154.7 13.2 170.2 27.75 L169.05 29.7 168.05 31.0 Q164.05 27.15 159.0 24.15 147.25 17.1 134.55 17.1 L132.2 17.2 131.6 17.25 131.55 17.25 Q128.05 16.45 118.8 18.35 107.5 20.7 101.25 25.15 95.4 29.3 91.1 34.6 89.25 32.7 89.25 30.0 L89.3 29.4" fill="#de3926" fill-rule="evenodd" stroke="none"/>
      <path d="M170.2 27.75 L171.9 29.45 Q179.0 36.6 183.0 48.1 L183.75 50.2 186.65 52.45 188.4 53.9 188.55 54.35 189.15 55.95 Q185.8 52.0 178.85 48.05 173.25 36.9 171.7 34.85 L171.4 34.5 168.05 31.0 169.05 29.7 170.2 27.75 M76.5 94.95 L75.9 73.05 75.95 68.9 Q76.0 56.65 76.55 50.05 80.15 38.5 89.3 29.4 L89.25 30.0 Q89.25 32.7 91.1 34.6 87.05 39.55 84.3 45.45 82.45 49.45 81.6 52.6 L81.2 60.05 81.1 62.15 Q80.45 75.15 80.45 86.85 L80.55 94.1 80.55 94.55 79.7 94.6 76.5 94.95" fill="#9f2e21" fill-rule="evenodd" stroke="none"/>
      <path d="M195.9 85.65 L196.05 88.35 196.55 88.75 196.1 89.65 196.55 93.35 196.35 96.15 Q195.75 99.8 193.55 103.3 L191.4 106.3 191.05 106.65 Q186.55 110.05 179.2 112.6 173.9 114.4 167.15 115.75 L165.2 116.15 151.7 118.0 139.4 118.75 134.5 118.8 121.2 118.25 121.05 118.25 117.55 117.9 117.5 117.9 115.95 117.75 104.8 114.35 Q97.45 111.8 93.2 108.8 89.7 106.35 85.45 100.4 L80.9 94.5 80.55 94.1 80.45 86.85 Q80.45 75.15 81.1 62.15 L81.2 60.05 81.6 52.6 Q82.45 49.45 84.3 45.45 87.05 39.55 91.1 34.6 L93.6 36.45 95.85 37.4 94.6 39.0 Q92.6 41.8 92.1 43.65 91.05 45.4 90.15 47.45 86.65 55.2 86.05 64.5 L85.4 65.85 84.7 69.8 84.1 76.1 Q83.8 80.25 83.8 85.2 L83.9 91.55 91.7 91.05 96.55 90.8 97.35 92.75 99.05 97.3 100.1 102.25 100.3 103.8 Q102.2 102.4 107.2 99.7 108.35 99.05 111.45 97.75 L113.95 101.35 Q115.85 104.5 117.45 109.0 L119.4 107.0 Q119.15 108.4 119.15 109.8 119.15 113.35 120.2 116.3 125.1 117.65 133.9 117.85 L137.6 117.55 146.85 116.45 Q147.95 115.8 148.15 115.05 L148.2 114.7 148.2 114.65 145.8 112.35 144.3 110.15 Q141.65 105.2 143.05 99.45 L143.45 98.2 Q145.0 93.35 149.25 90.5 149.75 90.15 150.25 89.95 154.6 87.5 159.3 88.75 164.55 90.05 167.3 95.0 170.0 100.0 168.55 105.75 L167.8 108.25 166.55 110.55 166.1 111.25 166.05 111.7 Q166.05 112.8 166.65 113.25 L167.25 113.55 167.35 113.55 168.75 113.5 Q171.7 113.2 176.5 111.75 L180.8 110.4 Q187.25 107.75 191.4 104.9 191.35 100.3 189.9 97.1 188.9 95.0 187.45 94.1 L187.4 90.75 187.5 84.3 192.35 85.05 195.9 85.65 M168.05 31.0 L171.4 34.5 171.7 34.85 Q173.25 36.9 178.85 48.05 175.25 46.0 170.65 43.95 L169.75 43.55 168.6 41.4 Q166.2 37.25 162.45 34.05 165.8 33.45 168.05 31.0 M191.65 92.15 L191.85 95.35 191.9 96.75 192.75 94.95 193.3 93.85 194.5 91.55 194.85 90.95 194.45 90.85 192.7 90.55 192.2 90.45 191.7 90.45 191.65 91.55 191.65 92.15 M165.5 109.75 L166.6 107.7 167.3 105.45 Q168.6 100.25 166.15 95.75 163.7 91.3 158.95 90.1 154.7 89.0 150.8 91.2 L149.9 91.7 Q146.05 94.25 144.65 98.65 L144.3 99.75 Q143.05 104.95 145.45 109.4 146.05 110.5 146.8 111.4 147.8 112.65 149.1 113.5 150.15 114.25 151.4 114.7 L152.7 115.1 155.05 115.45 157.1 115.35 Q159.45 114.95 161.7 113.45 L163.1 112.45 165.5 109.75 M88.05 95.95 L87.1 95.9 87.05 95.9 88.1 96.9 91.2 99.9 Q93.0 101.7 95.05 103.1 L95.3 103.25 95.25 103.05 94.8 100.95 94.45 99.5 93.95 97.5 93.6 96.25 92.25 96.2 88.05 95.95 M112.3 110.75 L111.85 109.9 110.75 108.0 109.7 106.35 108.9 105.05 107.1 106.0 105.45 106.85 Q104.65 107.25 104.05 107.6 L103.85 107.7 103.7 107.75 102.55 108.35 104.55 109.4 108.45 110.9 110.1 111.3 112.7 111.65 112.3 110.75" fill="#2b719a" fill-rule="evenodd" stroke="none"/>
      <path d="M168.05 31.0 Q165.8 33.45 162.45 34.05 161.1 32.85 159.55 31.8 155.0 28.65 149.05 26.7 141.35 24.15 132.8 24.15 L132.75 24.15 Q122.05 24.15 116.9 25.45 112.9 26.5 104.2 30.9 99.2 33.4 95.85 37.4 L93.6 36.45 91.1 34.6 Q95.4 29.3 101.25 25.15 107.5 20.7 118.8 18.35 128.05 16.45 131.55 17.25 L131.6 17.25 132.2 17.2 134.55 17.1 Q147.25 17.1 159.0 24.15 164.05 27.15 168.05 31.0" fill="#66b8e8" fill-rule="evenodd" stroke="none"/>
      <path d="M165.8 47.2 Q165.8 46.3 166.6 45.7 168.25 45.05 171.15 46.85 174.05 48.65 174.05 50.15 L173.55 51.0 Q172.85 51.6 171.5 51.6 169.9 51.6 168.15 50.6 165.8 49.35 165.8 47.2" fill="#81829c" fill-rule="evenodd" stroke="none"/>
      <path d="M189.15 55.95 L189.3 56.3 184.95 57.45 Q179.05 58.9 172.95 59.75 L155.15 60.95 Q136.5 60.95 124.2 57.1 111.5 53.15 111.5 46.75 111.5 45.65 112.1 44.65 L112.65 43.9 110.65 44.95 Q106.3 47.4 102.95 50.05 102.0 52.1 102.0 54.2 102.0 61.5 116.05 64.5 126.0 66.65 143.85 66.65 158.85 66.65 174.15 63.0 L178.15 61.95 Q184.5 60.25 189.95 58.15 L192.25 65.75 Q194.95 76.95 195.75 84.25 L194.5 84.1 186.15 82.85 186.5 93.65 186.6 96.05 178.05 93.05 175.0 98.0 Q173.95 93.75 171.35 89.5 165.25 79.55 154.85 79.55 148.2 79.55 141.0 85.05 133.1 91.1 133.1 98.35 L133.1 98.55 126.8 97.65 123.95 96.95 Q115.65 94.55 107.7 88.85 100.75 83.85 97.0 75.15 97.85 64.75 100.95 55.0 L102.6 50.3 Q104.15 46.4 105.9 43.3 110.65 40.6 116.8 38.8 125.15 36.35 133.55 36.15 L135.2 36.1 Q152.7 36.1 169.75 43.55 L170.65 43.95 Q175.25 46.0 178.85 48.05 185.8 52.0 189.15 55.95 M165.8 47.2 Q165.8 49.35 168.15 50.6 169.9 51.6 171.5 51.6 172.85 51.6 173.55 51.0 L174.05 50.15 Q174.05 48.65 171.15 46.85 168.25 45.05 166.6 45.7 165.8 46.3 165.8 47.2 M194.05 91.55 L192.75 93.8 192.7 91.55 194.05 91.55 M184.7 103.9 L181.45 105.15 180.85 105.4 181.7 102.1 183.2 103.0 184.7 103.9 M92.75 97.4 L93.9 100.35 92.1 99.05 89.2 97.0 91.85 97.3 92.75 97.4 M131.55 113.35 L126.25 112.25 128.35 109.7 131.55 113.35 M107.9 107.4 L108.65 108.75 109.3 109.9 108.65 109.65 105.9 108.6 107.9 107.4" fill="#343547" fill-rule="evenodd" stroke="none"/>
      <path d="M162.45 34.05 Q166.2 37.25 168.6 41.4 L169.75 43.55 Q152.7 36.1 135.2 36.1 L133.55 36.15 Q125.15 36.35 116.8 38.8 110.65 40.6 105.9 43.3 102.3 45.3 99.5 47.9 91.1 55.55 88.05 60.85 L86.05 64.5 Q86.65 55.2 90.15 47.45 91.05 45.4 92.1 43.65 92.6 41.8 94.6 39.0 L95.85 37.4 Q99.2 33.4 104.2 30.9 112.9 26.5 116.9 25.45 122.05 24.15 132.75 24.15 L132.8 24.15 Q141.35 24.15 149.05 26.7 155.0 28.65 159.55 31.8 161.1 32.85 162.45 34.05" fill="#1d1e27" fill-rule="evenodd" stroke="none"/>
      <path d="M189.3 56.3 L189.95 58.15 Q184.5 60.25 178.15 61.95 L174.15 63.0 Q158.85 66.65 143.85 66.65 126.0 66.65 116.05 64.5 102.0 61.5 102.0 54.2 102.0 52.1 102.95 50.05 106.3 47.4 110.65 44.95 L112.65 43.9 112.1 44.65 Q111.5 45.65 111.5 46.75 111.5 53.15 124.2 57.1 136.5 60.95 155.15 60.95 L172.95 59.75 Q179.05 58.9 184.95 57.45 L189.3 56.3" fill="#515266" fill-rule="evenodd" stroke="none"/>
      <path d="M195.75 84.25 L195.9 85.65 192.35 85.05 187.5 84.3 187.4 90.75 187.45 94.1 187.45 96.35 187.55 98.25 186.65 97.9 183.95 96.95 178.65 95.45 175.35 99.55 174.4 100.75 172.8 103.1 172.95 101.3 172.95 101.15 Q172.95 94.65 169.3 89.25 164.75 82.5 156.75 82.5 149.25 82.5 142.85 87.7 138.85 90.9 137.1 95.05 136.3 96.8 135.95 98.75 135.65 100.4 135.65 102.2 135.65 104.75 136.25 106.9 130.5 102.75 127.8 100.35 L123.0 104.0 119.4 107.0 117.45 109.0 Q115.85 104.5 113.95 101.35 L111.45 97.75 Q108.35 99.05 107.2 99.7 102.2 102.4 100.3 103.8 L100.1 102.25 99.05 97.3 97.35 92.75 96.55 90.8 91.7 91.05 83.9 91.55 83.8 85.2 Q83.8 80.25 84.1 76.1 L84.7 69.8 85.4 65.85 86.05 64.5 88.05 60.85 Q91.1 55.55 99.5 47.9 102.3 45.3 105.9 43.3 104.15 46.4 102.6 50.3 L100.95 55.0 Q97.85 64.75 97.0 75.15 100.75 83.85 107.7 88.85 115.65 94.55 123.95 96.95 L126.8 97.65 133.1 98.55 133.1 98.35 Q133.1 91.1 141.0 85.05 148.2 79.55 154.85 79.55 165.25 79.55 171.35 89.5 173.95 93.75 175.0 98.0 L178.05 93.05 186.6 96.05 186.5 93.65 186.15 82.85 194.5 84.1 195.75 84.25 M191.65 92.15 L191.65 91.55 191.7 90.45 192.2 90.45 192.7 90.55 194.45 90.85 194.85 90.95 194.5 91.55 193.3 93.85 192.75 94.95 191.9 96.75 191.85 95.35 191.65 92.15 M184.7 103.9 L183.2 103.0 181.7 102.1 180.85 105.4 181.45 105.15 184.7 103.9 M194.05 91.55 L192.7 91.55 192.75 93.8 194.05 91.55 M184.15 102.55 L185.6 103.55 186.15 104.0 185.4 104.35 Q182.45 105.65 180.5 106.65 L179.0 107.45 179.45 105.95 180.4 102.95 180.85 101.6 181.05 100.9 181.95 101.3 183.05 101.9 184.15 102.55 M88.05 95.95 L92.25 96.2 93.6 96.25 93.95 97.5 94.45 99.5 94.8 100.95 95.25 103.05 95.3 103.25 95.05 103.1 Q93.0 101.7 91.2 99.9 L88.1 96.9 87.05 95.9 87.1 95.9 88.05 95.95 M92.75 97.4 L91.85 97.3 89.2 97.0 92.1 99.05 93.9 100.35 92.75 97.4 M128.0 107.5 L129.3 108.5 132.0 110.95 133.05 112.0 135.05 114.0 134.9 114.05 133.5 114.2 132.3 114.15 125.85 113.15 125.5 113.1 122.6 112.5 123.5 111.65 123.55 111.65 125.15 110.1 127.15 108.3 128.0 107.5 M131.55 113.35 L128.35 109.7 126.25 112.25 131.55 113.35 M112.3 110.75 L112.7 111.65 110.1 111.3 108.45 110.9 104.55 109.4 102.55 108.35 103.7 107.75 103.85 107.7 104.05 107.6 Q104.65 107.25 105.45 106.85 L107.1 106.0 108.9 105.05 109.7 106.35 110.75 108.0 111.85 109.9 112.3 110.75 M107.9 107.4 L105.9 108.6 108.65 109.65 109.3 109.9 108.65 108.75 107.9 107.4" fill="#21222e" fill-rule="evenodd" stroke="none"/>
      <path d="M119.4 107.0 L123.0 104.0 127.8 100.35 Q130.5 102.75 136.25 106.9 135.65 104.75 135.65 102.2 135.65 100.4 135.95 98.75 136.3 96.8 137.1 95.05 138.85 90.9 142.85 87.7 149.25 82.5 156.75 82.5 164.75 82.5 169.3 89.25 172.95 94.65 172.95 101.15 L172.95 101.3 172.8 103.1 174.4 100.75 175.35 99.55 178.65 95.45 183.95 96.95 186.65 97.9 187.55 98.25 187.45 96.35 187.45 94.1 Q188.9 95.0 189.9 97.1 191.35 100.3 191.4 104.9 187.25 107.75 180.8 110.4 L176.5 111.75 Q171.7 113.2 168.75 113.5 L167.35 113.55 167.25 113.55 166.65 113.25 Q166.05 112.8 166.05 111.7 L166.1 111.25 166.55 110.55 167.8 108.25 168.55 105.75 Q170.0 100.0 167.3 95.0 164.55 90.05 159.3 88.75 154.6 87.5 150.25 89.95 149.75 90.15 149.25 90.5 145.0 93.35 143.45 98.2 L143.05 99.45 Q141.65 105.2 144.3 110.15 L145.8 112.35 148.2 114.65 148.2 114.7 148.15 115.05 Q147.95 115.8 146.85 116.45 L137.6 117.55 133.9 117.85 Q125.1 117.65 120.2 116.3 119.15 113.35 119.15 109.8 119.15 108.4 119.4 107.0 M184.15 102.55 L183.05 101.9 181.95 101.3 181.05 100.9 180.85 101.6 180.4 102.95 179.45 105.95 179.0 107.45 180.5 106.65 Q182.45 105.65 185.4 104.35 L186.15 104.0 185.6 103.55 184.15 102.55 M128.0 107.5 L127.15 108.3 125.15 110.1 123.55 111.65 123.5 111.65 122.6 112.5 125.5 113.1 125.85 113.15 132.3 114.15 133.5 114.2 134.9 114.05 135.05 114.0 133.05 112.0 132.0 110.95 129.3 108.5 128.0 107.5" fill="#61bde4" fill-rule="evenodd" stroke="none"/>
      <path d="M196.55 88.75 L197.1 89.2 Q199.6 91.4 200.5 94.25 200.9 95.65 200.9 97.25 200.9 103.0 193.45 110.5 L190.0 113.7 Q191.2 110.2 191.4 106.3 L193.55 103.3 Q195.75 99.8 196.35 96.15 L196.55 93.35 196.1 89.65 196.55 88.75 M125.75 123.4 Q107.35 120.7 92.9 112.6 85.45 108.4 80.75 102.65 78.25 99.5 76.5 95.95 L76.5 94.95 79.7 94.6 80.55 94.55 80.9 94.5 85.45 100.4 Q89.7 106.35 93.2 108.8 97.45 111.8 104.8 114.35 L115.95 117.75 117.5 117.9 117.55 117.9 121.05 118.25 Q122.7 121.3 125.75 123.4 M165.5 109.75 L163.1 112.45 161.7 113.45 Q159.45 114.95 157.1 115.35 L155.05 115.45 152.7 115.1 151.4 114.7 Q150.15 114.25 149.1 113.5 147.8 112.65 146.8 111.4 146.05 110.5 145.45 109.4 143.05 104.95 144.3 99.75 L144.65 98.65 Q146.05 94.25 149.9 91.7 L150.8 91.2 Q148.35 95.2 148.35 101.25 148.35 108.35 152.5 111.0 154.65 112.35 157.65 112.35 161.05 112.35 165.5 109.75" fill="#a67c15" fill-rule="evenodd" stroke="none"/>
      <path d="M190.0 113.7 Q186.7 116.45 182.8 118.95 166.0 124.7 144.95 124.7 L140.0 124.65 125.75 123.4 Q122.7 121.3 121.05 118.25 L121.2 118.25 134.5 118.8 139.4 118.75 151.7 118.0 165.2 116.15 167.15 115.75 Q173.9 114.4 179.2 112.6 186.55 110.05 191.05 106.65 L191.4 106.3 Q191.2 110.2 190.0 113.7 M150.8 91.2 Q154.7 89.0 158.95 90.1 163.7 91.3 166.15 95.75 168.6 100.25 167.3 105.45 L166.6 107.7 165.5 109.75 Q161.05 112.35 157.65 112.35 154.65 112.35 152.5 111.0 148.35 108.35 148.35 101.25 148.35 95.2 150.8 91.2" fill="#f4cb0f" fill-rule="evenodd" stroke="none"/>
      <path d="M170.2 27.75 L171.9 29.45 Q179.0 36.6 183.0 48.1 L183.75 50.2 M76.5 95.95 L76.5 94.95 75.9 73.05 75.95 68.9 Q76.0 56.65 76.55 50.05 80.15 38.5 89.3 29.4 L92.15 26.65 Q108.9 11.95 131.7 12.45 L132.6 12.45 Q154.7 13.2 170.2 27.75" fill="none" stroke="#54140e" stroke-linecap="round" stroke-linejoin="round" stroke-width="2.5"/>
      <path d="M183.75 50.2 L186.65 52.45 188.4 53.9 188.55 54.35 189.15 55.95 189.3 56.3 189.95 58.15 192.25 65.75 Q194.95 76.95 195.75 84.25 L195.9 85.65 196.05 88.35" fill="none" stroke="#1f1c23" stroke-linecap="round" stroke-linejoin="round" stroke-width="2.5"/>
      <path d="M196.05 88.35 L196.55 88.75 197.1 89.2 Q199.6 91.4 200.5 94.25 200.9 95.65 200.9 97.25 200.9 103.0 193.45 110.5 L190.0 113.7 Q186.7 116.45 182.8 118.95 166.0 124.7 144.95 124.7 L140.0 124.65 125.75 123.4 Q107.35 120.7 92.9 112.6 85.45 108.4 80.75 102.65 78.25 99.5 76.5 95.95" fill="none" stroke="#9f4f11" stroke-linecap="round" stroke-linejoin="round" stroke-width="2.5"/>
    </g>
    <g id="shape4" transform="matrix(1.0, 0.0, 0.0, 1.0, -13.35, -14.8)">
      <path d="M20.35 43.8 L18.2 42.1 17.95 41.85 Q13.35 37.2 13.35 30.75 13.35 24.3 18.05 19.65 L18.2 19.45 Q23.2 14.8 30.35 14.8 L31.75 14.8 Q18.35 25.35 20.35 43.8" fill="#ffffff" fill-opacity="0.2" fill-rule="evenodd" stroke="none"/>
    </g>
  </defs>
</svg>
