<?xml version="1.0" encoding="UTF-8" standalone="no"?>
<svg xmlns:ffdec="https://www.free-decompiler.com/flash" xmlns:xlink="http://www.w3.org/1999/xlink" ffdec:objectType="frame" height="30.05px" width="30.05px" xmlns="http://www.w3.org/2000/svg">
  <g transform="matrix(1.0, 0.0, 0.0, 1.0, 0.05, 0.0)">
    <use ffdec:characterId="1" height="30.0" transform="matrix(1.0, 0.0, 0.0, 1.0, 0.0, 0.0)" width="30.0" xlink:href="#shape0"/>
    <use ffdec:characterId="4" height="30.0" transform="matrix(1.0, 0.0, 0.0, 1.0, -0.05, 0.05)" width="30.0" xlink:href="#sprite0"/>
  </g>
  <defs>
    <g id="shape0" transform="matrix(1.0, 0.0, 0.0, 1.0, 0.0, 0.0)">
      <path d="M0.0 0.0 L30.0 0.0 30.0 30.0 0.0 30.0 0.0 0.0" fill="#33cc66" fill-opacity="0.0" fill-rule="evenodd" stroke="none"/>
    </g>
    <g id="sprite0" transform="matrix(1.0, 0.0, 0.0, 1.0, 0.05, 0.0)">
      <use ffdec:characterId="3" height="60.0" transform="matrix(0.5, 0.0, 0.0, 0.5, -0.05, 0.0)" width="60.0" xlink:href="#sprite1"/>
    </g>
    <g id="sprite1" transform="matrix(1.0, 0.0, 0.0, 1.0, 0.0, 0.0)">
      <use ffdec:characterId="2" height="60.0" transform="matrix(1.0, 0.0, 0.0, 1.0, 0.0, 0.0)" width="60.0" xlink:href="#shape1"/>
    </g>
    <g id="shape1" transform="matrix(1.0, 0.0, 0.0, 1.0, 0.0, 0.0)">
      <path d="M0.0 0.0 L60.0 0.0 60.0 60.0 0.0 60.0 0.0 0.0" fill="#33cc66" fill-opacity="0.0" fill-rule="evenodd" stroke="none"/>
      <path d="M37.25 13.2 Q39.9 14.15 42.2 15.9 L42.3 16.0 52.0 8.6 45.9 19.5 Q47.3 21.3 48.2 23.3 49.25 25.7 49.6 28.4 L60.0 30.1 49.7 32.7 Q49.4 35.3 48.45 37.6 47.35 40.15 45.5 42.35 L45.1 42.8 52.0 51.6 42.3 45.4 Q39.9 47.3 37.1 48.35 L32.2 49.4 29.9 60.0 27.6 49.3 23.15 48.2 Q20.65 47.25 18.5 45.7 L9.0 51.6 14.9 42.2 13.5 40.2 12.25 37.75 Q11.05 34.95 10.9 31.8 L10.9 31.6 0.0 29.9 11.1 27.5 Q11.45 25.1 12.45 23.0 12.9 22.0 13.5 21.1 14.7 19.2 16.4 17.5 L16.6 17.3 9.2 8.6 19.8 14.9 Q21.35 13.9 23.1 13.25 25.2 12.4 27.6 12.2 L29.9 0.0 33.7 12.3 37.25 13.2 M44.6 21.8 Q43.7 20.4 42.3 19.1 41.4 18.2 40.4 17.6 38.45 16.25 36.3 15.5 33.5 14.5 30.4 14.5 26.95 14.5 24.0 15.6 20.9 16.75 18.3 19.1 L18.1 19.4 Q16.05 21.5 14.9 24.0 13.8 26.3 13.5 28.9 L13.4 30.7 13.5 32.6 Q13.75 34.85 14.55 36.85 15.7 39.65 18.0 42.0 L18.3 42.3 Q20.9 44.75 24.1 45.95 27.0 47.0 30.4 47.0 33.4 47.0 36.15 46.05 39.8 44.75 43.0 41.7 44.5 40.05 45.5 38.2 L46.2 36.7 Q47.3 33.9 47.3 30.7 47.3 27.2 45.95 24.2 L45.5 23.3 44.6 21.8 M44.3 43.8 L44.2 43.7 44.2 43.8 44.3 43.8" fill="#ffff66" fill-rule="evenodd" stroke="none"/>
      <path d="M37.25 13.2 L33.7 12.3 29.9 0.0 38.3 10.3 38.4 10.3 37.25 13.2 M23.1 13.25 Q21.35 13.9 19.8 14.9 L9.2 8.6 21.9 10.3 23.1 13.25 M12.45 23.0 Q11.45 25.1 11.1 27.5 L0.0 29.9 10.2 22.1 12.45 23.0 M12.25 37.75 L13.5 40.2 14.9 42.2 9.0 51.6 9.0 51.3 10.1 38.6 12.25 37.75 M23.15 48.2 L27.6 49.3 29.9 60.0 22.1 50.8 23.15 48.2 M37.1 48.35 Q39.9 47.3 42.3 45.4 L52.0 51.6 52.1 51.75 52.1 51.8 38.05 50.8 37.1 48.35 M48.45 37.6 Q49.4 35.3 49.7 32.7 L60.0 30.1 50.5 38.3 50.55 38.45 48.45 37.6 M48.2 23.3 Q47.3 21.3 45.9 19.5 L52.0 8.6 50.65 22.35 48.2 23.3" fill="#c97800" fill-rule="evenodd" stroke="none"/>
      <path d="M44.6 21.8 L45.5 23.3 45.95 24.2 Q47.3 27.2 47.3 30.7 47.3 33.9 46.2 36.7 L45.5 38.2 Q44.5 40.05 43.0 41.7 39.8 44.75 36.15 46.05 33.4 47.0 30.4 47.0 27.0 47.0 24.1 45.95 20.9 44.75 18.3 42.3 L18.0 42.0 Q15.7 39.65 14.55 36.85 13.75 34.85 13.5 32.6 L13.4 30.7 13.5 28.9 Q13.8 26.3 14.9 24.0 16.05 21.5 18.1 19.4 L18.3 19.1 Q20.9 16.75 24.0 15.6 26.95 14.5 30.4 14.5 33.5 14.5 36.3 15.5 38.45 16.25 40.4 17.6 41.4 18.2 42.3 19.1 43.7 20.4 44.6 21.8" fill="#313656" fill-rule="evenodd" stroke="none"/>
      <path d="M52.0 8.6 L42.3 16.0 42.2 15.9 Q39.9 14.15 37.25 13.2 L38.4 10.3 52.0 8.6 M29.9 0.0 L27.6 12.2 Q25.2 12.4 23.1 13.25 L21.9 10.3 29.9 0.0 M9.2 8.6 L16.6 17.3 16.4 17.5 Q14.7 19.2 13.5 21.1 12.9 22.0 12.45 23.0 L10.2 22.1 9.2 8.6 M0.0 29.9 L10.9 31.6 10.9 31.8 Q11.05 34.95 12.25 37.75 L10.1 38.6 0.0 29.9 M9.0 51.6 L18.5 45.7 Q20.65 47.25 23.15 48.2 L22.1 50.8 9.0 51.6 M29.9 60.0 L32.2 49.4 37.1 48.35 38.05 50.8 38.0 50.8 29.9 60.0 M52.0 51.6 L45.1 42.8 45.5 42.35 Q47.35 40.15 48.45 37.6 L50.55 38.45 52.1 51.7 52.1 51.75 52.0 51.6 M60.0 30.1 L49.6 28.4 Q49.25 25.7 48.2 23.3 L50.65 22.35 50.6 22.6 60.0 30.1" fill="#ff9900" fill-rule="evenodd" stroke="none"/>
      <path d="M44.3 43.8 L44.2 43.8 44.2 43.7 44.3 43.8" fill="url(#gradient0)" fill-rule="evenodd" stroke="none"/>
      <path d="M18.4 19.2 Q23.4 14.6 30.5 14.6 L31.9 14.6 Q18.5 25.1 20.5 43.6 L18.4 41.9 18.1 41.6 Q13.5 37.0 13.5 30.5 13.5 24.1 18.2 19.4 L18.4 19.2" fill="#ffffff" fill-opacity="0.2" fill-rule="evenodd" stroke="none"/>
      <path d="M23.2 18.6 Q23.9 18.8 23.6 20.2 23.5 20.7 21.4 23.6 L19.0 26.3 Q17.9 26.1 17.7 25.5 L17.7 24.8 Q18.3 21.6 21.2 19.4 22.5 18.4 23.2 18.6 M19.8 29.5 L19.1 30.5 Q18.4 31.1 17.7 31.0 16.7 30.8 16.4 30.0 L16.5 29.2 Q16.7 27.6 18.3 27.8 20.1 28.0 19.8 29.5" fill="#ffffff" fill-rule="evenodd" stroke="none"/>
      <path d="M43.05 23.55 L43.6 23.25 43.55 23.35 Q43.25 24.7 43.6 26.1 L43.85 26.8 44.0 26.85 44.1 26.95 44.15 26.95 44.5 27.3 44.55 27.45 44.6 27.55 44.5 27.9 44.3 28.5 44.25 28.5 44.0 28.65 43.6 28.7 43.55 28.7 43.7 28.35 43.75 28.1 43.7 27.6 43.05 27.05 43.0 27.05 42.7 27.0 42.75 26.95 42.85 26.85 42.95 26.85 42.8 26.45 42.7 25.95 Q42.6 25.15 42.8 24.3 L43.05 23.55 M45.2 27.25 L45.95 27.05 46.05 27.6 46.15 28.2 46.2 28.2 45.25 28.85 44.7 29.05 44.75 28.85 45.0 28.05 45.15 27.35 45.2 27.25 M27.65 20.05 L28.1 19.65 28.1 19.75 Q28.1 21.15 28.8 22.45 L29.15 23.05 29.35 23.05 29.45 23.1 29.5 23.15 29.9 23.4 30.0 23.55 30.05 23.6 30.05 23.95 30.05 24.0 30.0 24.6 29.95 24.65 29.75 24.8 29.35 24.95 29.3 24.95 29.4 24.55 29.4 24.35 29.35 24.25 29.2 23.9 Q29.0 23.5 28.45 23.5 L28.15 23.5 28.1 23.45 28.25 23.35 28.3 23.3 28.1 22.95 27.85 22.45 27.6 20.85 27.65 20.05 M30.6 23.2 L31.3 22.85 31.5 23.35 31.55 23.5 31.75 23.9 31.0 24.7 30.5 25.05 30.55 24.8 30.6 24.05 30.6 24.0 30.6 23.75 30.6 23.3 30.6 23.2 M43.85 26.8 L42.95 26.85 43.85 26.8 M24.75 22.85 L24.75 22.8 25.8 23.6 26.0 23.75 Q26.15 24.4 26.65 25.2 L26.65 25.25 26.7 25.3 26.95 25.65 26.85 25.65 26.8 25.65 26.3 25.4 25.75 24.95 25.05 24.0 Q24.75 23.45 24.75 22.85 M29.5 23.15 L29.35 23.05 29.5 23.15 M29.15 23.05 L28.3 23.3 29.15 23.05" fill="#fffbf0" fill-rule="evenodd" stroke="none"/>
      <path d="M35.55 42.2 Q36.35 42.55 37.35 43.15 L37.85 43.45 37.75 43.75 37.8 43.8 38.1 44.05 38.2 44.45 38.1 44.65 37.85 44.55 37.35 44.65 37.2 44.8 37.0 44.6 34.9 43.4 34.9 43.15 34.7 42.3 34.6 42.1 34.75 42.15 35.55 42.2 M26.25 46.55 L26.0 46.5 26.05 46.45 25.75 44.9 25.95 44.95 26.0 45.15 26.25 46.55 M21.25 21.05 L24.5 21.85 26.25 22.65 26.35 22.7 26.35 22.85 26.3 23.55 26.35 23.9 26.0 23.75 25.8 23.6 24.75 22.8 24.75 22.85 Q24.6 23.35 24.6 24.05 L24.8 25.75 21.45 25.9 19.85 25.8 19.75 25.15 20.2 24.85 20.8 24.35 20.8 24.15 20.75 23.95 20.75 23.1 20.8 22.05 21.25 21.05 M40.55 18.65 L41.0 20.55 Q41.55 22.9 41.25 25.05 L41.1 26.0 41.1 26.05 41.0 26.55 40.95 26.65 40.9 26.65 40.75 26.9 40.65 27.1 40.45 27.3 39.95 26.65 38.55 25.4 38.5 25.35 38.3 25.2 38.5 25.35 38.55 25.4 38.5 25.5 38.45 25.5 38.25 25.25 38.3 25.2 38.15 25.1 37.7 23.3 Q37.4 21.85 37.4 19.55 L37.45 19.55 Q38.4 18.8 39.2 18.65 L40.45 18.6 40.55 18.65 M39.1 29.35 L39.1 29.4 39.35 29.6 39.6 29.75 39.85 29.85 40.05 29.85 40.3 29.75 40.5 29.6 40.7 30.1 40.75 30.3 40.8 30.4 40.8 30.45 41.0 31.15 41.0 31.2 40.95 31.15 40.9 31.2 40.65 31.45 40.3 31.85 40.1 32.0 39.95 32.1 39.65 32.25 39.1 32.35 38.9 32.35 38.55 32.3 37.9 32.2 37.6 32.1 37.35 32.05 Q36.5 31.8 35.75 31.35 L35.6 31.3 34.9 30.85 33.75 29.7 Q32.85 28.5 31.4 28.05 L30.6 27.9 30.75 27.8 30.2 27.55 30.0 27.45 30.85 26.5 31.75 25.75 Q33.6 24.35 35.35 24.2 L35.7 24.2 Q36.75 24.6 37.4 25.2 L37.8 25.65 36.65 26.6 36.6 26.65 35.45 27.6 36.85 29.6 37.6 30.65 37.7 30.6 38.75 29.7 38.95 29.55 39.1 29.35 M22.5 38.45 L22.05 37.1 22.5 37.45 23.8 38.35 Q23.6 38.45 23.5 38.6 24.9 39.0 26.65 40.55 L27.95 41.95 27.3 42.05 26.5 42.0 26.2 41.95 25.7 41.85 24.6 41.25 23.8 40.3 23.8 40.25 23.3 38.95 23.0 38.55 Q22.85 38.4 22.65 38.4 L22.5 38.45 M24.35 34.4 L24.4 34.3 24.55 34.05 25.25 35.85 25.75 36.55 26.15 36.2 26.5 37.2 26.7 37.65 27.35 38.75 25.95 38.1 25.8 38.05 25.8 38.0 25.6 37.65 25.1 36.7 24.55 35.25 24.35 34.4 M29.25 45.05 Q30.05 44.85 30.55 45.3 L30.3 45.65 29.95 46.1 29.65 45.55 29.2 45.1 29.25 45.05 M34.75 44.05 L34.8 43.95 34.85 44.15 34.75 44.05" fill="#db5427" fill-rule="evenodd" stroke="none"/>
      <path d="M44.5 27.3 L44.65 27.3 45.2 27.25 45.15 27.35 45.0 28.05 44.75 28.85 44.7 29.05 44.05 29.15 43.55 29.1 43.3 29.0 42.85 28.5 42.75 28.05 42.75 27.2 42.7 27.0 43.0 27.05 43.05 27.05 43.7 27.6 43.75 28.1 43.7 28.35 43.55 28.7 43.6 28.7 44.0 28.65 44.25 28.5 44.3 28.5 44.5 27.9 44.6 27.55 44.55 27.45 44.5 27.3 M45.95 27.05 L46.0 27.05 46.85 26.75 47.0 27.5 46.7 27.75 46.2 28.2 46.15 28.2 46.05 27.6 45.95 27.05 M43.15 30.15 L43.2 30.3 Q43.35 31.0 43.85 31.4 L44.3 31.8 44.15 31.8 43.05 31.1 Q42.55 30.65 42.45 30.2 L42.4 29.75 43.15 30.15 M43.1 32.1 L42.15 32.15 42.1 32.1 41.85 30.6 42.05 30.5 Q42.15 31.2 42.8 31.85 L43.1 32.1 M26.35 22.7 Q26.55 21.4 27.25 20.5 L27.65 20.05 27.6 20.85 27.85 22.45 28.1 22.95 27.95 23.0 27.55 23.2 27.35 23.25 27.2 23.25 26.8 23.15 26.4 22.9 26.35 22.85 26.35 22.7 M29.9 23.4 L30.05 23.35 30.1 23.35 30.6 23.2 30.6 23.3 30.6 23.75 30.6 24.0 30.6 24.05 30.55 24.8 30.5 25.05 29.95 25.3 29.45 25.35 29.15 25.35 28.6 24.95 28.35 24.55 28.2 23.8 28.2 23.7 28.15 23.5 28.45 23.5 Q29.0 23.5 29.2 23.9 L29.35 24.25 29.4 24.35 29.4 24.55 29.3 24.95 29.35 24.95 29.75 24.8 29.95 24.65 30.0 24.6 30.05 24.0 30.05 23.95 30.05 23.6 30.0 23.55 29.9 23.4 M31.3 22.85 L31.35 22.8 32.45 22.05 32.9 21.75 32.95 21.85 32.95 22.2 32.65 22.6 32.15 23.35 32.15 23.4 31.75 23.9 31.55 23.5 31.5 23.35 31.3 22.85 M41.1 26.0 Q41.55 24.65 42.55 23.9 42.75 23.7 43.05 23.55 L42.8 24.3 Q42.6 25.15 42.7 25.95 L42.8 26.45 42.7 26.45 42.25 26.55 41.85 26.55 41.15 26.0 41.1 26.0 M42.75 28.05 L43.0 28.4 43.15 28.6 43.35 28.7 43.55 28.7 43.35 28.7 43.15 28.6 43.0 28.4 42.75 28.05 M44.6 27.55 L44.55 28.0 44.3 28.5 44.55 28.0 44.6 27.55 M29.65 28.4 L29.15 28.55 28.4 28.65 28.35 28.65 27.65 28.55 27.45 28.45 27.45 28.7 27.55 29.3 27.75 29.65 27.3 29.55 27.25 29.5 Q26.85 29.3 26.85 28.7 L26.85 28.55 26.85 28.15 26.7 28.0 26.55 27.9 26.5 27.8 25.8 28.1 25.65 28.25 25.4 28.55 25.25 29.0 24.75 28.75 24.7 28.7 24.45 28.55 24.2 28.25 23.1 26.4 22.95 26.05 23.0 25.9 Q23.2 26.35 23.8 26.6 L24.9 26.85 25.25 26.8 24.95 26.15 24.8 25.75 24.6 24.05 Q24.6 23.35 24.75 22.85 24.75 23.45 25.05 24.0 L25.75 24.95 26.3 25.4 26.8 25.65 26.55 25.7 26.3 25.8 26.45 25.9 26.8 26.35 26.9 26.75 Q26.8 27.05 26.95 27.2 L26.95 27.25 27.15 27.35 27.4 27.35 27.45 27.35 27.55 27.35 Q28.0 27.3 28.25 27.05 28.5 27.7 29.25 28.15 L29.35 28.25 29.65 28.4 M28.45 30.25 L28.5 30.3 28.35 30.45 27.95 30.8 27.9 30.8 Q27.1 30.8 26.7 30.4 L26.65 30.35 Q26.3 30.0 26.3 29.5 L26.5 29.4 26.65 29.35 26.9 29.75 27.05 29.8 27.55 29.9 27.9 29.85 28.2 30.05 28.45 30.25 M28.45 26.25 L29.25 26.45 29.35 26.6 Q29.6 27.15 30.0 27.45 L30.2 27.55 30.75 27.8 30.6 27.9 29.8 27.65 29.35 27.4 28.6 26.7 28.45 26.25 M30.05 23.6 L30.15 23.95 30.15 24.05 30.0 24.6 30.15 24.05 30.15 23.95 30.05 23.6 M28.35 24.55 L28.7 24.8 28.95 24.95 29.1 25.0 29.3 24.95 29.1 25.0 28.95 24.95 28.7 24.8 28.35 24.55 M25.95 26.6 Q25.95 27.1 26.25 27.5 L26.5 27.8 26.25 27.5 Q25.95 27.1 25.95 26.6 L25.8 26.7 25.25 26.8 25.8 26.7 25.95 26.6 26.2 25.95 26.3 25.8 26.2 25.95 25.95 26.6 M27.45 28.45 L26.85 28.15 27.45 28.45 M23.75 29.15 L24.2 29.9 24.15 29.9 23.95 29.85 Q23.5 29.85 23.2 30.2 L22.9 30.25 22.3 29.45 22.1 29.15 21.45 27.9 22.55 28.75 23.1 29.0 23.7 29.15 23.75 29.15 M25.75 31.9 L26.1 31.6 26.3 31.4 25.95 32.3 25.9 32.35 25.85 32.35 Q25.4 32.95 24.8 33.1 L24.4 33.15 24.15 33.15 24.0 33.1 23.6 32.95 23.2 32.65 Q22.7 32.15 22.7 31.25 L22.7 31.15 23.0 30.4 23.15 30.25 23.2 30.2 23.45 30.2 23.95 30.4 24.0 30.45 24.0 30.6 23.9 30.85 23.8 30.9 23.75 30.95 23.65 30.95 23.35 31.0 23.3 31.4 23.3 31.45 Q23.3 32.0 23.65 32.35 L23.75 32.4 24.05 32.55 24.1 32.6 24.3 32.6 24.35 32.6 25.5 32.05 25.75 31.9 M20.85 31.2 L21.05 30.6 Q21.2 30.2 21.5 30.1 L21.45 29.8 21.95 30.35 22.35 30.85 22.25 31.05 22.05 31.3 21.85 31.4 21.4 31.55 20.95 31.3 20.85 31.2 M22.9 33.05 L22.95 33.05 23.55 33.3 23.6 33.35 23.9 33.7 23.65 33.95 23.5 34.0 23.45 34.0 22.95 33.8 22.65 33.25 22.7 33.15 22.9 33.05" fill="#ffbd00" fill-rule="evenodd" stroke="none"/>
      <path d="M47.0 27.5 L47.15 28.25 46.45 29.05 46.1 29.35 Q44.95 30.3 43.7 30.2 L43.2 30.15 43.15 30.15 42.4 29.75 42.35 29.65 42.15 29.45 42.05 29.3 Q41.7 28.7 41.85 28.1 42.0 27.4 42.6 27.05 L42.65 27.0 42.75 26.95 42.65 27.0 42.6 27.05 Q42.0 27.4 41.85 28.1 41.7 28.7 42.05 29.3 L42.15 29.45 42.1 29.65 42.0 30.1 42.05 30.5 41.85 30.6 41.75 30.25 41.7 29.9 41.55 29.15 41.4 28.95 41.0 28.15 40.7 27.7 40.7 27.65 40.7 27.6 40.85 27.0 40.9 27.0 40.9 26.85 41.0 26.55 41.1 26.05 41.1 26.0 41.15 26.0 41.85 26.55 42.25 26.55 42.7 26.45 42.8 26.45 42.95 26.85 42.85 26.85 42.75 26.95 42.7 27.0 42.75 27.2 42.75 28.05 42.85 28.5 43.3 29.0 43.55 29.1 44.05 29.15 44.7 29.05 45.25 28.85 46.2 28.2 46.7 27.75 47.0 27.5 M37.5 45.5 L37.15 45.65 37.1 45.6 37.15 45.6 37.05 45.25 Q37.05 44.95 37.2 44.8 L37.35 44.65 37.35 44.9 37.5 45.5 M23.95 45.85 L22.15 45.05 22.35 44.95 23.2 44.5 23.95 45.85 M14.35 28.85 L13.95 28.85 13.6 28.2 13.85 26.85 14.0 26.3 14.5 26.2 14.9 26.15 17.0 25.65 17.7 25.45 17.8 25.4 18.3 25.25 18.8 25.05 18.85 25.05 20.2 24.45 20.15 23.3 20.1 22.2 20.15 21.05 20.6 19.9 20.75 19.6 20.95 19.15 Q21.15 19.05 21.55 18.9 L22.35 18.5 22.4 18.55 22.2 19.1 21.95 19.25 21.8 19.3 21.3 19.7 21.2 19.8 21.0 20.55 20.8 22.0 20.8 22.05 20.75 23.1 20.75 23.95 20.8 24.15 20.8 24.35 20.2 24.85 19.75 25.15 18.9 25.65 17.8 26.15 17.35 26.3 17.0 26.4 17.2 27.25 17.45 28.45 17.3 28.5 17.25 28.5 16.3 28.8 15.05 28.9 14.35 28.85 M16.75 20.95 L17.05 20.6 17.0 20.7 16.95 20.9 16.9 20.95 16.75 20.95 M32.95 22.2 L32.95 22.25 32.8 23.35 32.25 24.65 31.95 25.05 Q31.0 26.25 29.75 26.4 L29.3 26.45 29.25 26.45 28.45 26.25 28.35 26.15 28.1 26.0 28.0 25.9 Q27.5 25.35 27.5 24.75 27.5 24.1 27.95 23.6 L28.0 23.55 28.05 23.5 28.1 23.45 28.05 23.5 28.0 23.55 27.95 23.6 Q27.5 24.1 27.5 24.75 27.5 25.35 28.0 25.9 L28.1 26.0 28.1 26.25 28.15 26.7 28.25 27.05 Q28.0 27.3 27.55 27.35 L27.65 27.15 27.75 26.7 27.75 26.6 27.45 25.85 26.95 25.65 26.7 25.3 26.65 25.25 26.65 25.2 Q26.15 24.4 26.0 23.75 L26.35 23.9 26.3 23.55 26.35 22.85 26.4 22.9 26.8 23.15 27.2 23.25 27.35 23.25 27.55 23.2 27.95 23.0 28.1 22.95 28.3 23.3 28.25 23.35 28.1 23.45 28.15 23.5 28.2 23.7 28.2 23.8 28.35 24.55 28.6 24.95 29.15 25.35 29.45 25.35 29.95 25.3 30.5 25.05 31.0 24.7 31.75 23.9 32.15 23.4 32.15 23.35 32.65 22.6 32.95 22.2 M13.85 26.85 L14.4 26.85 14.55 26.85 14.65 26.8 17.0 26.4 14.65 26.8 14.55 26.85 14.4 26.85 13.85 26.85 M26.55 27.9 L26.5 28.45 26.55 28.8 26.65 29.35 26.5 29.4 26.3 29.5 Q26.3 30.0 26.65 30.35 L26.7 30.4 Q27.1 30.8 27.9 30.8 L27.95 30.8 27.85 30.85 27.1 31.05 26.35 30.9 26.3 30.9 26.3 31.0 26.3 31.05 26.3 31.4 26.1 31.6 25.75 31.9 25.7 31.85 Q25.5 31.4 24.95 31.25 L25.05 30.9 Q25.05 30.35 24.65 30.05 L24.45 29.95 24.4 29.95 24.2 29.9 23.75 29.15 23.8 29.15 23.55 28.85 23.25 28.4 Q22.95 27.65 22.95 26.55 L22.95 26.05 23.1 26.4 24.2 28.25 24.45 28.55 24.7 28.7 24.75 28.75 25.25 29.0 25.25 29.1 25.2 29.3 Q25.2 30.05 25.8 30.55 L26.3 30.9 25.8 30.55 Q25.2 30.05 25.2 29.3 L25.25 29.1 25.25 29.0 25.4 28.55 Q25.7 28.55 25.7 29.0 L25.7 29.05 25.7 29.2 25.6 29.35 25.55 29.5 25.85 29.55 26.2 29.5 26.25 29.4 26.3 29.35 26.3 29.05 26.3 29.0 26.3 28.85 26.15 28.35 25.8 28.1 26.5 27.8 26.55 27.9 M21.4 29.2 L21.35 28.75 21.4 27.9 21.45 27.9 22.1 29.15 22.3 29.45 22.9 30.25 23.2 30.2 23.15 30.25 23.0 30.4 22.7 31.15 22.7 31.25 Q22.7 32.15 23.2 32.65 L23.6 32.95 24.0 33.1 24.15 33.15 24.4 33.15 24.8 33.1 24.55 34.05 24.4 34.3 24.35 34.4 23.8 34.7 23.45 34.7 Q22.95 34.7 22.5 34.2 21.95 33.55 21.9 32.55 L21.7 32.55 21.2 32.4 Q20.85 32.15 20.85 31.45 L20.85 31.2 20.95 31.3 21.4 31.55 21.85 31.4 22.05 31.3 22.25 31.05 22.35 30.85 21.95 30.35 21.45 29.8 21.4 29.2 M22.9 33.05 L22.7 33.15 22.65 33.25 22.95 33.8 23.45 34.0 23.5 34.0 23.65 33.95 23.9 33.7 23.6 33.35 23.55 33.3 22.95 33.05 22.9 33.05 M29.9 41.05 L30.2 40.65 30.3 40.5 30.5 40.35 30.4 40.75 30.4 41.0 30.4 41.1 30.6 41.95 30.7 42.2 30.8 42.35 30.85 42.6 30.55 42.75 30.2 43.15 30.1 43.85 29.75 43.0 29.65 42.15 29.7 41.65 29.75 41.5 29.9 41.05 M32.05 43.7 L32.2 43.85 33.9 44.45 34.4 44.5 Q33.8 45.1 32.6 45.1 L31.35 44.9 31.35 44.85 31.65 44.0 31.6 43.6 32.05 43.7" fill="#cd7100" fill-rule="evenodd" stroke="none"/>
      <path d="M36.9 45.75 L36.1 46.05 35.4 44.85 35.3 44.75 34.85 44.15 34.8 43.95 34.9 43.4 37.0 44.6 37.2 44.8 Q37.05 44.95 37.05 45.25 L37.15 45.6 37.1 45.6 36.9 45.75 M30.05 47.0 L27.75 46.85 28.35 45.6 28.6 45.3 29.0 45.2 29.05 45.2 29.2 45.1 29.65 45.55 29.95 46.1 29.75 46.35 29.85 46.45 30.05 47.0 M27.2 46.75 L26.25 46.55 26.0 45.15 25.95 44.95 25.75 44.9 25.3 43.05 24.55 43.65 23.5 41.1 22.5 38.45 22.65 38.4 Q22.85 38.4 23.0 38.55 L23.3 38.95 23.8 40.25 23.8 40.3 24.6 41.25 25.7 41.85 26.2 41.95 26.5 42.0 27.3 42.05 27.95 41.95 28.5 42.65 29.15 42.75 29.35 42.85 Q28.55 43.2 27.95 44.05 L27.4 45.1 27.3 45.45 Q27.15 45.9 27.15 46.35 L27.2 46.75 M32.8 23.35 L35.2 23.7 34.95 22.05 35.0 22.05 Q36.1 20.55 37.35 19.55 L37.4 19.55 Q37.4 21.85 37.7 23.3 L38.15 25.1 37.35 24.55 37.25 24.5 Q36.55 24.1 35.8 23.85 L35.7 24.2 35.35 24.2 Q33.6 24.35 31.75 25.75 L30.85 26.5 30.0 27.45 Q29.6 27.15 29.35 26.6 L29.25 26.45 29.3 26.45 29.75 26.4 Q31.0 26.25 31.95 25.05 L32.25 24.65 32.8 23.35 M40.9 26.85 L40.85 27.0 40.7 27.6 40.7 27.65 40.6 27.55 40.45 27.3 40.65 27.1 40.75 26.9 40.9 26.65 40.95 26.65 41.0 26.55 40.9 26.85 M19.85 25.8 L21.45 25.9 24.8 25.75 24.95 26.15 25.25 26.8 24.9 26.85 23.8 26.6 Q23.2 26.35 23.0 25.9 L22.95 26.05 22.95 26.55 Q22.95 27.65 23.25 28.4 L23.55 28.85 23.1 29.0 22.55 28.75 21.45 27.9 21.4 27.9 21.35 28.75 21.4 29.2 20.1 29.15 19.7 27.3 20.05 27.05 19.95 26.6 19.85 25.8 M35.8 23.85 L35.2 23.7 35.8 23.85 M26.9 26.75 L26.95 27.15 26.95 27.2 27.15 27.35 26.95 27.25 26.95 27.2 Q26.8 27.05 26.9 26.75 M27.45 28.45 L27.65 28.55 28.35 28.65 27.55 29.3 27.45 28.7 27.45 28.45 M26.3 31.0 L26.3 30.9 26.35 30.9 26.3 31.0 M24.55 34.05 L24.8 33.1 Q25.4 32.95 25.85 32.35 L25.9 32.35 25.95 32.3 25.9 32.55 25.8 34.0 25.85 34.5 26.05 35.75 26.05 35.8 26.15 36.2 25.75 36.55 25.25 35.85 24.55 34.05" fill="#dc3719" fill-rule="evenodd" stroke="none"/>
      <path d="M40.45 27.3 L40.6 27.55 40.7 27.65 40.7 27.7 41.0 28.15 41.4 28.95 41.7 29.9 41.75 30.25 41.85 30.6 42.1 32.1 42.05 32.1 Q41.7 31.4 41.0 31.2 L41.0 31.15 40.8 30.45 40.8 30.4 40.75 30.3 40.7 30.1 40.5 29.6 40.3 29.75 40.05 29.85 39.85 29.85 39.6 29.75 39.35 29.6 39.1 29.4 39.1 29.35 39.15 29.35 39.3 29.2 39.85 28.7 40.0 28.55 39.95 28.45 39.6 27.7 39.45 27.4 39.45 27.3 39.15 26.7 38.5 25.5 38.55 25.4 39.95 26.65 40.45 27.3 M38.15 25.1 L38.3 25.2 38.25 25.25 38.2 25.3 37.8 25.65 37.4 25.2 Q36.75 24.6 35.7 24.2 L35.8 23.85 Q36.55 24.1 37.25 24.5 L37.35 24.55 38.15 25.1 M23.8 34.7 L24.35 34.4 24.55 35.25 25.1 36.7 25.6 37.65 25.8 38.0 25.8 38.05 25.4 37.9 25.35 37.9 24.75 37.1 24.15 35.9 23.8 34.7" fill="#ff7337" fill-rule="evenodd" stroke="none"/>
      <path d="M44.15 31.8 L43.75 31.95 43.1 32.1 42.8 31.85 Q42.15 31.2 42.05 30.5 L42.0 30.1 42.1 29.65 42.15 29.45 42.35 29.65 42.4 29.75 42.45 30.2 Q42.55 30.65 43.05 31.1 L44.15 31.8 M41.4 28.95 L41.55 29.15 41.7 29.9 41.4 28.95 M30.6 27.9 L30.55 27.9 30.2 28.1 29.65 28.4 29.35 28.25 29.25 28.15 Q28.5 27.7 28.25 27.05 L28.15 26.7 28.1 26.25 28.1 26.0 28.35 26.15 28.45 26.25 28.6 26.7 29.35 27.4 29.8 27.65 30.6 27.9 M26.95 25.65 L27.45 25.85 27.75 26.6 27.75 26.7 27.65 27.15 27.55 27.35 27.45 27.35 27.4 27.35 27.15 27.35 26.95 27.2 26.95 27.15 26.9 26.75 26.8 26.35 26.45 25.9 26.3 25.8 26.55 25.7 26.8 25.65 26.85 25.65 26.95 25.65 M26.55 27.9 L26.7 28.0 26.85 28.15 26.85 28.55 26.85 28.7 Q26.85 29.3 27.25 29.5 L27.3 29.55 27.75 29.65 27.9 29.85 27.55 29.9 27.05 29.8 26.9 29.75 26.65 29.35 26.55 28.8 26.5 28.45 26.55 27.9 M25.4 28.55 L25.65 28.25 25.8 28.1 26.15 28.35 26.3 28.85 26.3 29.0 26.3 29.05 26.3 29.35 26.25 29.4 26.2 29.5 25.85 29.55 25.55 29.5 25.6 29.35 25.7 29.2 25.7 29.05 25.7 29.0 Q25.7 28.55 25.4 28.55 M24.2 29.9 L24.4 29.95 24.45 29.95 24.65 30.05 Q25.05 30.35 25.05 30.9 L24.95 31.25 Q25.5 31.4 25.7 31.85 L25.75 31.9 25.5 32.05 24.35 32.6 24.3 32.6 24.1 32.6 24.05 32.55 23.75 32.4 23.65 32.35 Q23.3 32.0 23.3 31.45 L23.3 31.4 23.35 31.0 23.65 30.95 23.75 30.95 23.8 30.9 23.9 30.85 24.0 30.6 24.0 30.45 23.95 30.4 23.45 30.2 23.2 30.2 Q23.5 29.85 23.95 29.85 L24.15 29.9 24.2 29.9 M24.35 31.85 Q24.6 31.85 24.85 31.5 L24.95 31.25 24.85 31.5 Q24.6 31.85 24.35 31.85" fill="#ffeec0" fill-rule="evenodd" stroke="none"/>
      <path d="M42.15 32.15 L42.4 33.7 42.4 33.9 42.75 36.1 42.85 36.9 42.25 36.5 42.0 36.6 41.75 34.95 41.75 34.8 41.65 34.15 41.45 33.0 41.2 31.8 41.0 31.2 Q41.7 31.4 42.05 32.1 L42.1 32.1 42.15 32.15 M40.65 40.8 L40.2 41.05 Q38.7 41.95 37.0 42.15 L35.55 42.2 34.75 42.15 34.6 42.1 34.55 42.1 34.45 41.95 37.0 41.55 38.05 41.25 Q39.4 40.8 40.25 40.0 L40.15 40.55 40.65 40.8 M34.1 36.4 Q34.1 35.85 34.6 35.6 L34.65 35.55 35.2 35.45 35.9 35.4 35.95 35.4 36.5 35.4 37.2 35.5 37.6 35.6 38.1 35.75 38.95 36.3 39.55 36.8 39.55 36.9 39.55 37.05 39.3 37.75 39.25 37.8 38.4 38.05 Q38.0 38.05 37.55 37.65 L37.15 37.45 35.9 37.3 34.7 37.25 Q34.1 37.1 34.1 36.4" fill="#fff4a6" fill-rule="evenodd" stroke="none"/>
      <path d="M41.0 31.2 L41.2 31.8 41.45 33.0 41.65 34.15 41.75 34.8 41.75 34.95 42.0 36.6 Q41.55 36.9 40.9 38.2 L40.5 39.2 40.25 40.0 Q39.4 40.8 38.05 41.25 L37.0 41.55 34.45 41.95 34.3 41.75 34.15 41.55 33.45 40.85 33.1 40.6 33.9 40.7 36.35 40.85 36.35 40.6 Q35.5 40.45 34.6 40.1 L34.85 39.8 35.05 39.55 36.0 38.5 36.05 38.3 35.65 38.0 35.3 37.35 34.6 37.65 33.8 37.8 33.5 37.8 Q33.2 37.75 32.95 37.55 L32.9 37.5 32.8 37.6 32.5 38.1 32.4 38.9 32.4 38.95 31.9 38.6 30.8 37.7 30.6 37.55 30.65 37.5 Q31.25 36.9 31.25 35.75 L31.25 35.6 30.95 33.8 31.95 34.1 Q32.7 34.1 33.2 33.55 33.75 33.05 33.75 32.3 33.75 31.55 33.2 31.05 32.7 30.5 31.95 30.5 31.2 30.5 30.7 31.05 30.2 31.55 30.2 32.3 L30.2 32.7 Q29.45 32.0 28.35 32.0 L28.2 32.0 28.2 31.9 28.35 30.45 28.5 30.3 28.45 30.25 Q28.65 29.35 29.15 28.55 L29.65 28.4 30.2 28.1 30.55 27.9 30.6 27.9 31.4 28.05 Q32.85 28.5 33.75 29.7 L34.9 30.85 35.6 31.3 35.75 31.35 Q36.5 31.8 37.35 32.05 L37.6 32.1 37.9 32.2 38.55 32.3 38.9 32.35 39.1 32.35 39.65 32.25 39.95 32.1 40.1 32.0 40.3 31.85 40.65 31.45 40.9 31.2 40.95 31.15 41.0 31.2 M32.65 37.05 L32.9 37.5 32.65 37.05 M41.35 34.6 Q41.35 33.9 41.0 33.4 40.65 32.95 40.15 32.95 39.65 32.95 39.3 33.4 38.95 33.9 38.95 34.6 38.95 35.25 39.3 35.75 39.65 36.2 40.15 36.2 40.65 36.2 41.0 35.75 41.35 35.25 41.35 34.6 M34.1 36.4 Q34.1 37.1 34.7 37.25 L35.9 37.3 37.15 37.45 37.55 37.65 Q38.0 38.05 38.4 38.05 L39.25 37.8 39.3 37.75 39.55 37.05 39.55 36.9 39.55 36.8 38.95 36.3 38.1 35.75 37.6 35.6 37.2 35.5 36.5 35.4 35.95 35.4 35.9 35.4 35.2 35.45 34.65 35.55 34.6 35.6 Q34.1 35.85 34.1 36.4 M27.35 38.75 L26.7 37.65 27.75 38.5 28.05 38.7 28.6 39.0 28.85 39.15 29.85 39.65 31.2 40.15 30.75 40.25 30.5 40.35 30.3 40.5 30.2 40.65 28.5 39.45 27.35 38.75 M28.6 40.1 L28.65 40.1 28.8 40.2 28.6 40.1 M29.7 43.0 L29.75 43.0 30.1 43.85 30.65 44.45 30.75 44.55 31.0 44.7 30.55 45.3 Q30.05 44.85 29.25 45.05 L29.0 45.1 29.25 45.05 29.2 45.1 29.05 45.2 29.0 45.2 29.0 45.1 Q29.15 43.9 29.7 43.0 M37.05 37.8 L36.75 38.2 36.35 38.35 36.05 38.3 36.35 38.35 36.75 38.2 37.05 37.8" fill="#ffe6a6" fill-rule="evenodd" stroke="none"/>
      <path d="M42.85 36.9 Q42.85 38.7 41.65 39.95 L40.65 40.8 40.15 40.55 40.25 40.0 40.5 39.2 40.9 38.2 Q41.55 36.9 42.0 36.6 L42.25 36.5 42.85 36.9 M28.2 32.0 L28.35 32.0 Q29.45 32.0 30.2 32.7 30.3 33.2 30.7 33.55 L30.95 33.8 31.25 35.6 31.25 35.75 Q31.25 36.9 30.65 37.5 L30.6 37.55 Q30.1 38.05 29.15 38.05 27.65 38.05 26.85 37.05 26.4 36.5 26.2 35.75 L26.1 34.45 26.1 34.1 26.1 34.05 26.15 33.75 26.3 33.3 Q26.95 32.05 28.2 32.0" fill="#fda468" fill-rule="evenodd" stroke="none"/>
      <path d="M30.2 32.7 L30.2 32.3 Q30.2 31.55 30.7 31.05 31.2 30.5 31.95 30.5 32.7 30.5 33.2 31.05 33.75 31.55 33.75 32.3 33.75 33.05 33.2 33.55 32.7 34.1 31.95 34.1 L30.95 33.8 30.7 33.55 Q30.3 33.2 30.2 32.7 M41.35 34.6 Q41.35 35.25 41.0 35.75 40.65 36.2 40.15 36.2 39.65 36.2 39.3 35.75 38.95 35.25 38.95 34.6 38.95 33.9 39.3 33.4 39.65 32.95 40.15 32.95 40.65 32.95 41.0 33.4 41.35 33.9 41.35 34.6 M32.05 31.65 Q32.05 31.2 31.6 31.2 31.2 31.15 31.2 31.5 L31.3 31.75 31.55 31.95 31.8 31.95 32.05 31.65 M39.65 33.85 L39.7 34.1 39.9 34.25 40.05 34.25 40.2 34.0 39.95 33.55 Q39.65 33.55 39.65 33.85" fill="#4f261d" fill-rule="evenodd" stroke="none"/>
      <path d="M19.55 18.05 Q20.0 17.7 20.45 17.45 20.5 17.95 20.85 18.35 L20.75 18.3 20.4 18.85 20.05 19.4 19.8 19.35 19.15 19.1 19.55 18.05 M21.95 19.25 L21.85 19.7 21.3 19.7 21.8 19.3 21.95 19.25" fill="#fea01a" fill-rule="evenodd" stroke="none"/>
      <path d="M14.0 26.3 L14.4 25.1 14.45 25.55 15.1 25.5 15.15 25.6 15.25 25.6 16.6 25.4 17.0 25.25 16.65 22.1 15.9 22.1 16.75 20.95 16.9 20.95 16.95 20.9 17.0 20.7 17.05 20.6 17.8 19.7 17.65 20.35 18.1 20.4 19.65 20.45 20.05 19.4 20.4 18.85 20.75 18.3 20.85 18.35 22.35 18.5 21.55 18.9 Q21.15 19.05 20.95 19.15 L20.75 19.6 20.6 19.9 20.15 21.05 20.1 22.2 20.15 23.3 20.2 24.45 18.85 25.05 18.8 25.05 18.3 25.25 17.8 25.4 17.7 25.45 17.0 25.65 14.9 26.15 14.5 26.2 14.0 26.3 M18.6 24.4 L18.8 24.4 19.2 24.3 19.35 22.6 19.3 21.8 19.1 21.75 18.55 21.6 18.25 21.55 18.15 21.5 17.55 21.35 17.8 23.3 18.15 24.75 18.6 24.4" fill="#fdba09" fill-rule="evenodd" stroke="none"/>
      <path d="M14.85 24.0 L15.9 22.1 16.65 22.1 17.0 25.25 16.6 25.4 15.25 25.6 15.15 25.6 15.1 25.5 14.85 24.0 M21.85 19.7 L21.25 21.05 20.8 22.05 20.8 22.0 21.0 20.55 21.2 19.8 21.3 19.7 21.85 19.7 M18.1 20.4 L19.05 19.25 19.15 19.1 19.8 19.35 20.05 19.4 19.65 20.45 18.1 20.4 M18.15 21.5 L18.25 21.55 18.55 21.6 19.1 21.75 19.3 21.8 19.35 22.6 19.2 24.3 18.8 24.4 18.6 24.4 18.55 24.4 18.45 24.4 18.2 23.2 18.1 22.05 18.05 21.5 18.15 21.5" fill="#f9a91c" fill-rule="evenodd" stroke="none"/>
      <path d="M38.1 16.25 L40.15 17.45 40.5 18.55 40.45 18.6 39.2 18.65 Q38.4 18.8 37.45 19.55 L37.4 19.45 Q37.45 17.1 38.1 16.25" fill="#facc3b" fill-rule="evenodd" stroke="none"/>
      <path d="M34.95 22.05 Q34.8 18.8 36.85 16.35 L37.3 15.9 38.1 16.25 Q37.45 17.1 37.4 19.45 L37.45 19.55 37.4 19.55 37.35 19.55 Q36.1 20.55 35.0 22.05 L34.95 22.05" fill="#f7be15" fill-rule="evenodd" stroke="none"/>
      <path d="M17.8 19.7 L18.1 19.4 18.3 19.1 19.55 18.05 19.15 19.1 19.05 19.25 18.1 20.4 17.65 20.35 17.8 19.7" fill="#ffe105" fill-rule="evenodd" stroke="none"/>
      <path d="M24.4 46.05 L23.95 45.85 23.2 44.5 23.45 44.35 23.9 45.1 24.4 46.05 M14.4 25.1 L14.85 24.0 15.1 25.5 14.45 25.55 14.4 25.1 M18.15 21.5 L18.05 21.5 18.1 22.05 18.2 23.2 18.45 24.4 18.55 24.4 18.6 24.4 18.15 24.75 17.8 23.3 17.55 21.35 18.15 21.5 M17.8 26.15 L17.8 26.2 17.9 27.3 18.0 28.25 17.45 28.45 17.2 27.25 17.0 26.4 17.35 26.3 17.8 26.15" fill="#ffedc4" fill-rule="evenodd" stroke="none"/>
      <path d="M26.0 46.5 L24.4 46.05 23.9 45.1 23.45 44.35 23.85 44.1 24.0 44.0 24.55 43.65 25.3 43.05 25.75 44.9 26.05 46.45 26.0 46.5 M19.75 25.15 L19.85 25.8 19.95 26.6 20.05 27.05 19.7 27.3 18.65 27.95 18.45 28.05 18.0 28.25 17.9 27.3 17.8 26.2 17.8 26.15 18.9 25.65 19.75 25.15" fill="#f9af02" fill-rule="evenodd" stroke="none"/>
      <path d="M21.3 43.55 L21.05 43.2 Q18.65 39.65 16.95 35.45 L14.35 28.85 15.05 28.9 16.3 28.8 17.25 28.5 17.3 28.5 17.45 28.45 17.5 28.6 17.8 29.95 Q18.15 31.7 19.0 34.25 L20.6 38.85 20.85 39.5 22.45 43.15 23.1 44.4 23.2 44.5 22.35 44.95 21.3 43.55" fill="#a65e06" fill-rule="evenodd" stroke="none"/>
      <path d="M23.2 44.5 L23.1 44.4 22.45 43.15 20.85 39.5 20.6 38.85 19.0 34.25 Q18.15 31.7 17.8 29.95 L17.5 28.6 17.45 28.45 18.0 28.25 18.1 28.8 Q18.6 31.75 19.6 35.1 L20.8 38.7 21.95 41.6 22.3 42.25 23.05 43.65 23.45 44.35 23.2 44.5" fill="#ffbe56" fill-rule="evenodd" stroke="none"/>
      <path d="M18.0 28.25 L18.45 28.05 18.65 27.95 19.7 27.3 20.1 29.15 21.0 33.2 22.05 37.1 22.5 38.45 23.5 41.1 24.55 43.65 24.0 44.0 23.85 44.1 23.45 44.35 23.05 43.65 22.3 42.25 21.95 41.6 20.8 38.7 19.6 35.1 Q18.6 31.75 18.1 28.8 L18.0 28.25" fill="#d88500" fill-rule="evenodd" stroke="none"/>
      <path d="M37.8 25.65 L38.2 25.3 38.25 25.25 38.45 25.5 38.5 25.5 39.15 26.7 39.45 27.3 39.45 27.4 39.6 27.7 39.95 28.45 40.0 28.55 39.85 28.7 39.3 29.2 39.15 29.35 39.1 29.35 38.95 29.55 38.75 29.7 37.7 30.6 37.6 30.65 36.85 29.6 35.45 27.6 36.6 26.65 36.65 26.6 37.8 25.65" fill="#f4cc2e" fill-rule="evenodd" stroke="none"/>
      <path d="M32.05 31.65 L31.8 31.95 31.55 31.95 31.3 31.75 31.2 31.5 Q31.2 31.15 31.6 31.2 32.05 31.2 32.05 31.65 M39.65 33.85 Q39.65 33.55 39.95 33.55 L40.2 34.0 40.05 34.25 39.9 34.25 39.7 34.1 39.65 33.85" fill="#fbfbfb" fill-rule="evenodd" stroke="none"/>
      <path d="M27.75 46.85 L27.2 46.75 27.15 46.35 Q27.15 45.9 27.3 45.45 L27.4 45.1 27.95 44.05 Q28.55 43.2 29.35 42.85 L29.7 43.0 Q29.15 43.9 29.0 45.1 L29.0 45.2 28.6 45.3 28.35 45.6 27.75 46.85 M29.15 28.55 Q28.65 29.35 28.45 30.25 L28.2 30.05 27.9 29.85 27.75 29.65 27.55 29.3 28.35 28.65 28.4 28.65 29.15 28.55 M28.35 30.45 L28.2 31.9 28.2 32.0 Q26.95 32.05 26.3 33.3 L26.15 33.75 26.1 34.05 25.8 34.0 25.9 32.55 25.95 32.3 26.3 31.4 26.3 31.05 26.3 31.0 26.35 30.9 27.1 31.05 27.85 30.85 27.95 30.8 28.35 30.45 M30.6 37.55 L30.8 37.7 31.9 38.6 32.4 38.95 Q32.4 39.95 33.15 40.3 L33.95 40.45 34.6 40.1 Q35.5 40.45 36.35 40.6 L36.35 40.85 33.9 40.7 33.1 40.6 33.05 40.6 32.4 40.3 31.25 40.15 31.2 40.15 29.85 39.65 28.85 39.15 28.6 39.0 28.05 38.7 27.75 38.5 26.7 37.65 26.5 37.2 26.85 37.05 Q27.65 38.05 29.15 38.05 30.1 38.05 30.6 37.55 M29.0 45.1 L28.95 45.1 28.6 45.3 28.95 45.1 29.0 45.1" fill="#fad590" fill-rule="evenodd" stroke="none"/>
      <path d="M25.8 34.0 L26.1 34.05 26.1 34.1 26.1 34.45 26.2 35.75 26.05 35.8 26.05 35.75 25.85 34.5 25.8 34.0" fill="#f7bd86" fill-rule="evenodd" stroke="none"/>
      <path d="M26.5 37.2 L26.15 36.2 26.05 35.8 26.2 35.75 Q26.4 36.5 26.85 37.05 L26.5 37.2" fill="#f1b464" fill-rule="evenodd" stroke="none"/>
      <path d="M31.9 46.95 L30.4 47.0 30.05 47.0 29.85 46.45 29.75 46.35 29.95 46.1 30.3 45.65 30.55 45.3 31.0 44.7 31.35 44.9 32.6 45.1 Q33.8 45.1 34.4 44.5 L34.55 44.35 34.75 44.05 34.85 44.15 35.3 44.75 35.25 44.8 35.15 44.85 35.05 44.95 34.6 45.35 34.4 45.5 33.8 45.9 32.9 46.15 32.2 45.95 31.95 45.85 31.75 45.7 31.45 45.75 31.9 46.95 M25.8 38.05 L25.95 38.1 25.75 38.35 25.7 38.4 25.55 38.7 27.05 39.7 27.7 40.35 28.1 40.75 29.2 42.0 29.25 42.0 29.55 41.95 29.65 41.65 29.7 41.65 29.65 42.15 29.75 43.0 29.7 43.0 29.35 42.85 29.15 42.75 28.5 42.65 27.95 41.95 26.65 40.55 Q24.9 39.0 23.5 38.6 23.6 38.45 23.8 38.35 L24.05 38.2 25.35 37.9 25.4 37.9 25.8 38.05 M29.75 41.5 L29.5 41.3 29.15 41.05 28.35 40.45 28.35 40.4 28.45 40.2 28.6 40.1 28.8 40.2 29.45 40.7 29.55 40.75 29.9 41.05 29.75 41.5" fill="#c5b593" fill-rule="evenodd" stroke="none"/>
      <path d="M36.1 46.05 L31.9 46.95 31.45 45.75 31.75 45.7 31.95 45.85 32.2 45.95 32.9 46.15 33.8 45.9 34.4 45.5 34.6 45.35 35.05 44.95 35.15 44.85 35.25 44.8 35.3 44.75 35.4 44.85 36.1 46.05 M25.95 38.1 L27.35 38.75 28.5 39.45 30.2 40.65 29.9 41.05 29.55 40.75 29.45 40.7 28.8 40.2 28.65 40.1 28.6 40.1 28.45 40.2 28.35 40.4 28.35 40.45 29.15 41.05 29.5 41.3 29.75 41.5 29.7 41.65 29.65 41.65 29.55 41.95 29.25 42.0 29.2 42.0 28.1 40.75 27.7 40.35 27.05 39.7 25.55 38.7 25.7 38.4 25.75 38.35 25.95 38.1" fill="#fff9e9" fill-rule="evenodd" stroke="none"/>
      <path d="M22.15 45.05 L21.3 44.6 21.3 43.6 21.3 43.55 22.35 44.95 22.15 45.05" fill="#98825b" fill-rule="evenodd" stroke="none"/>
      <path d="M31.0 44.7 L30.75 44.55 30.65 44.45 30.1 43.85 30.2 43.15 30.55 42.75 30.85 42.6 Q30.95 43.2 31.45 43.5 L31.5 43.5 31.6 43.6 31.65 44.0 31.35 44.85 31.35 44.9 31.0 44.7 M33.05 40.6 L33.1 40.6 33.45 40.85 34.15 41.55 33.95 41.9 33.95 41.95 Q33.7 42.3 33.3 42.3 L33.25 42.3 32.9 41.75 32.8 41.7 32.7 41.6 32.4 41.35 Q32.4 40.7 33.0 40.6 L33.05 40.6" fill="#f9f2d8" fill-rule="evenodd" stroke="none"/>
      <path d="M33.8 37.8 L34.6 37.65 35.3 37.35 35.65 38.0 36.05 38.3 36.0 38.5 35.05 39.55 34.7 38.85 34.2 38.15 33.8 37.8" fill="#d03821" fill-rule="evenodd" stroke="none"/>
      <path d="M32.4 38.95 L32.4 38.9 32.5 38.1 32.8 37.6 32.9 37.5 32.95 37.55 Q33.2 37.75 33.5 37.8 L33.8 37.8 34.2 38.15 34.7 38.85 35.05 39.55 34.85 39.8 34.6 40.1 33.95 40.45 33.15 40.3 Q32.4 39.95 32.4 38.95" fill="#ffa066" fill-rule="evenodd" stroke="none"/>
      <path d="M30.8 42.35 L30.7 42.2 30.6 41.95 30.4 41.1 30.4 41.0 30.4 40.75 30.5 40.35 30.75 40.25 31.2 40.15 31.25 40.15 32.4 40.3 33.05 40.6 33.0 40.6 Q32.4 40.7 32.4 41.35 32.05 41.1 31.8 41.1 L31.7 41.1 31.2 41.25 31.15 41.3 31.05 41.4 Q30.8 41.75 30.8 42.3 L30.8 42.35 M33.25 42.3 L33.3 42.3 Q33.7 42.3 33.95 41.95 L33.95 41.9 34.15 41.55 34.3 41.75 34.45 41.95 34.55 42.1 34.6 42.1 34.7 42.3 34.9 43.15 34.9 43.4 34.8 43.95 34.75 44.05 34.55 44.35 34.4 44.5 33.9 44.45 32.2 43.85 32.05 43.7 32.35 43.75 Q32.95 43.75 33.25 43.4 L33.25 43.35 33.3 43.25 33.4 42.9 33.25 42.3" fill="#ffc000" fill-rule="evenodd" stroke="none"/>
      <path d="M30.85 42.6 L30.8 42.35 30.8 42.3 Q30.8 41.75 31.05 41.4 L31.15 41.3 31.2 41.25 31.7 41.1 31.8 41.1 Q32.05 41.1 32.4 41.35 L32.7 41.6 32.8 41.7 32.9 41.75 33.25 42.3 33.4 42.9 33.3 43.25 33.25 43.35 33.25 43.4 Q32.95 43.75 32.35 43.75 L32.05 43.7 31.6 43.6 31.5 43.5 31.45 43.5 Q30.95 43.2 30.85 42.6 M31.7 41.4 L31.5 41.45 31.45 41.5 31.3 41.65 31.1 42.4 Q31.1 43.0 31.6 43.3 L32.2 43.45 32.95 43.25 33.05 43.15 33.1 43.1 33.25 42.65 Q33.25 42.25 32.65 41.75 L32.4 41.6 31.9 41.4 31.7 41.4" fill="#00857a" fill-rule="evenodd" stroke="none"/>
      <path d="M31.7 41.4 L31.9 41.4 32.4 41.6 32.65 41.75 Q33.25 42.25 33.25 42.65 L33.1 43.1 33.05 43.15 32.95 43.25 32.2 43.45 31.6 43.3 Q31.1 43.0 31.1 42.4 L31.3 41.65 31.45 41.5 31.5 41.45 31.7 41.4" fill="#00b44a" fill-rule="evenodd" stroke="none"/>
      <path d="M39.55 44.1 L39.65 44.3 39.65 44.35 38.7 44.9 38.75 44.55 38.8 44.05 38.85 43.95 39.05 43.9 39.55 44.1" fill="#ffefe4" fill-rule="evenodd" stroke="none"/>
      <path d="M37.85 43.45 L37.85 43.4 37.9 43.35 38.4 43.3 Q39.05 43.3 39.5 44.0 L39.55 44.1 39.05 43.9 38.85 43.95 38.8 44.05 38.75 44.55 38.7 44.9 37.5 45.5 37.35 44.9 37.35 44.65 37.85 44.55 38.1 44.65 38.2 44.45 38.1 44.05 37.8 43.8 37.75 43.75 37.85 43.45 M37.15 45.65 L36.9 45.75 37.1 45.6 37.15 45.65" fill="#f1bc0a" fill-rule="evenodd" stroke="none"/>
      <path d="M43.05 23.55 L43.6 23.25 43.55 23.35 Q43.25 24.7 43.6 26.1 L43.85 26.8 44.0 26.85 44.15 26.95 44.5 27.3 44.65 27.3 45.2 27.25 45.95 27.05 46.0 27.05 46.85 26.75 M47.15 28.25 L46.45 29.05 46.1 29.35 Q44.95 30.3 43.7 30.2 L43.2 30.15 43.15 30.15 43.2 30.3 Q43.35 31.0 43.85 31.4 L44.3 31.8 44.15 31.8 43.75 31.95 43.1 32.1 42.15 32.15 M37.85 43.45 L37.85 43.4 37.9 43.35 38.4 43.3 Q39.05 43.3 39.5 44.0 L39.55 44.1 39.65 44.3 M21.3 43.55 L21.05 43.2 Q18.65 39.65 16.95 35.45 L14.35 28.85 13.95 28.85 13.6 28.2 M20.85 18.35 L22.35 18.5 22.4 18.55 22.2 19.1 21.95 19.25 21.8 19.3 21.3 19.7 21.2 19.8 21.0 20.55 20.8 22.0 20.8 22.05 20.75 23.1 20.75 23.95 20.8 24.15 20.8 24.35 20.2 24.85 19.75 25.15 19.85 25.8 19.95 26.6 20.05 27.05 19.7 27.3 18.65 27.95 18.45 28.05 18.0 28.25 17.45 28.45 17.3 28.5 17.25 28.5 16.3 28.8 15.05 28.9 14.35 28.85 M26.35 22.7 Q26.55 21.4 27.25 20.5 L27.65 20.05 28.1 19.65 28.1 19.75 Q28.1 21.15 28.8 22.45 L29.15 23.05 29.35 23.05 29.45 23.1 29.5 23.15 29.9 23.4 30.05 23.35 30.1 23.35 30.6 23.2 31.3 22.85 31.35 22.8 32.45 22.05 32.9 21.75 32.95 21.85 32.95 22.2 32.95 22.25 32.8 23.35 32.25 24.65 31.95 25.05 Q31.0 26.25 29.75 26.4 L29.3 26.45 29.25 26.45 29.35 26.6 Q29.6 27.15 30.0 27.45 L30.2 27.55 30.75 27.8 30.6 27.9 30.55 27.9 30.2 28.1 29.65 28.4 29.15 28.55 28.4 28.65 28.35 28.65 27.65 28.55 27.45 28.45 27.45 28.7 27.55 29.3 27.75 29.65 27.9 29.85 28.2 30.05 28.45 30.25 28.5 30.3 28.35 30.45 27.95 30.8 27.85 30.85 27.1 31.05 26.35 30.9 26.3 30.9 25.8 30.55 Q25.2 30.05 25.2 29.3 L25.25 29.1 25.25 29.0 25.4 28.55 25.65 28.25 25.8 28.1 26.5 27.8 26.55 27.9 26.7 28.0 26.85 28.15 27.45 28.45 M41.1 26.0 Q41.55 24.65 42.55 23.9 42.75 23.7 43.05 23.55 M42.95 26.85 L43.85 26.8 M42.75 26.95 L42.65 27.0 42.6 27.05 Q42.0 27.4 41.85 28.1 41.7 28.7 42.05 29.3 L42.15 29.45 42.35 29.65 42.4 29.75 43.15 30.15 M43.55 28.7 L43.6 28.7 44.0 28.65 44.25 28.5 44.3 28.5 44.55 28.0 44.6 27.55 44.55 27.45 44.5 27.3 M44.0 26.85 L44.1 26.95 44.15 26.95 M41.1 26.05 L41.1 26.0 M40.85 27.0 L40.9 27.0 40.9 26.85 M42.95 26.85 L42.85 26.85 42.75 26.95 M43.55 28.7 L43.35 28.7 43.15 28.6 43.0 28.4 42.75 28.05 M41.7 29.9 L41.55 29.15 41.4 28.95 M20.05 19.4 L20.4 18.85 20.75 18.3 20.85 18.35 M24.8 25.75 L24.6 24.05 Q24.6 23.35 24.75 22.85 L24.75 22.8 25.8 23.6 26.0 23.75 26.35 23.9 26.3 23.55 26.35 22.85 26.35 22.7 M28.3 23.3 L29.15 23.05 M29.35 23.05 L29.5 23.15 M28.3 23.3 L28.25 23.35 28.1 23.45 28.05 23.5 28.0 23.55 27.95 23.6 Q27.5 24.1 27.5 24.75 27.5 25.35 28.0 25.9 L28.1 26.0 28.35 26.15 28.45 26.25 29.25 26.45 M29.3 24.95 L29.35 24.95 29.75 24.8 29.95 24.65 30.0 24.6 30.15 24.05 30.15 23.95 30.05 23.6 30.0 23.55 29.9 23.4 M18.1 20.4 L19.65 20.45 20.05 19.4 M18.6 24.4 L18.8 24.4 19.2 24.3 19.35 22.6 19.3 21.8 19.1 21.75 18.55 21.6 18.25 21.55 18.15 21.5 18.05 21.5 18.1 22.05 18.2 23.2 18.45 24.4 18.55 24.4 18.6 24.4 M15.9 22.1 L16.65 22.1 17.0 25.25 16.6 25.4 15.25 25.6 15.15 25.6 15.1 25.5 14.85 24.0 M17.8 19.7 L17.65 20.35 18.1 20.4 M17.8 26.15 L18.9 25.65 19.75 25.15 M17.0 26.4 L17.35 26.3 17.8 26.15 M17.0 26.4 L14.65 26.8 14.55 26.85 14.4 26.85 13.85 26.85 M23.45 44.35 L23.85 44.1 24.0 44.0 24.55 43.65 23.5 41.1 22.5 38.45 22.05 37.1 21.0 33.2 20.1 29.15 19.7 27.3 M29.3 24.95 L29.1 25.0 28.95 24.95 28.7 24.8 28.35 24.55 M27.55 27.35 L27.65 27.15 27.75 26.7 27.75 26.6 27.45 25.85 26.95 25.65 26.85 25.65 26.8 25.65 26.55 25.7 26.3 25.8 26.2 25.95 25.95 26.6 25.8 26.7 25.25 26.8 24.95 26.15 24.8 25.75 M26.95 27.2 L27.15 27.35 27.4 27.35 M27.45 27.35 L27.55 27.35 M26.5 27.8 L26.25 27.5 Q25.95 27.1 25.95 26.6 M26.95 27.2 Q26.8 27.05 26.9 26.75 M22.95 26.05 L22.95 26.55 Q22.95 27.65 23.25 28.4 L23.55 28.85 23.8 29.15 23.75 29.15 23.7 29.15 23.1 29.0 22.55 28.75 21.45 27.9 21.4 27.9 21.35 28.75 21.4 29.2 21.45 29.8 21.5 30.1 Q21.2 30.2 21.05 30.6 L20.85 31.2 20.85 31.45 Q20.85 32.15 21.2 32.4 L21.7 32.55 21.9 32.55 Q21.95 33.55 22.5 34.2 22.95 34.7 23.45 34.7 L23.8 34.7 24.35 34.4 24.4 34.3 24.55 34.05 24.8 33.1 24.4 33.15 24.15 33.15 24.0 33.1 23.6 32.95 23.2 32.65 Q22.7 32.15 22.7 31.25 L22.7 31.15 23.0 30.4 23.15 30.25 23.2 30.2 Q23.5 29.85 23.95 29.85 L24.15 29.9 24.2 29.9 24.4 29.95 24.45 29.95 24.65 30.05 Q25.05 30.35 25.05 30.9 L24.95 31.25 24.85 31.5 Q24.6 31.85 24.35 31.85 M26.3 31.4 L26.3 31.05 26.3 31.0 26.3 30.9 M22.95 26.05 L23.0 25.9 Q23.2 26.35 23.8 26.6 L24.9 26.85 25.25 26.8 M25.95 32.3 L25.9 32.35 25.85 32.35 Q25.4 32.95 24.8 33.1 M26.3 31.4 L25.95 32.3 M29.9 41.05 L30.2 40.65 30.3 40.5 30.5 40.35 30.75 40.25 31.2 40.15 31.25 40.15 32.4 40.3 33.05 40.6 33.1 40.6 33.45 40.85 34.15 41.55 34.3 41.75 34.45 41.95 34.55 42.1 M29.7 41.65 L29.75 41.5 29.9 41.05 M31.0 44.7 L30.75 44.55 30.65 44.45 30.1 43.85 29.75 43.0 29.65 42.15 29.7 41.65 M23.2 44.5 L23.45 44.35 M22.15 45.05 L22.35 44.95 21.3 43.55 M22.35 44.95 L23.2 44.5 M26.0 46.5 L26.05 46.45 25.75 44.9 25.3 43.05 24.55 43.65 M34.4 44.5 L34.55 44.35 34.75 44.05 34.8 43.95 34.9 43.4 34.9 43.15 34.7 42.3 34.6 42.1 M31.0 44.7 L31.35 44.9 32.6 45.1 Q33.8 45.1 34.4 44.5 M37.35 44.65 L37.85 44.55 38.1 44.65 38.2 44.45 38.1 44.05 37.8 43.8 37.75 43.75 37.85 43.45 M37.2 44.8 L37.35 44.65 M37.1 45.6 L37.15 45.6 37.05 45.25 Q37.05 44.95 37.2 44.8 M37.1 45.6 L36.9 45.75" fill="none" stroke="#992000" stroke-linecap="round" stroke-linejoin="round" stroke-width="0.1"/>
      <path d="M42.15 32.15 L42.4 33.7 42.4 33.9 42.75 36.1 42.85 36.9 Q42.85 38.7 41.65 39.95 L40.65 40.8 40.2 41.05 Q38.7 41.95 37.0 42.15 L35.55 42.2 Q36.35 42.55 37.35 43.15 L37.85 43.45 M21.25 21.05 L24.5 21.85 26.25 22.65 26.35 22.7 M32.8 23.35 L35.2 23.7 34.95 22.05 Q34.8 18.8 36.85 16.35 L37.3 15.9 M40.15 17.45 L40.5 18.55 40.55 18.65 41.0 20.55 Q41.55 22.9 41.25 25.05 L41.1 26.0 M40.85 27.0 L40.9 26.85 41.0 26.55 41.1 26.05 M40.45 27.3 L40.6 27.55 40.7 27.65 40.7 27.6 40.85 27.0 M41.4 28.95 L41.0 28.15 40.7 27.7 40.7 27.65 M41.4 28.95 L41.7 29.9 41.75 30.25 41.85 30.6 42.1 32.1 42.15 32.15 M41.0 31.2 Q41.7 31.4 42.05 32.1 M41.0 31.2 L40.95 31.15 40.9 31.2 40.65 31.45 40.3 31.85 40.1 32.0 39.95 32.1 39.65 32.25 39.1 32.35 38.9 32.35 38.55 32.3 37.9 32.2 37.6 32.1 37.35 32.05 Q36.5 31.8 35.75 31.35 L35.6 31.3 34.9 30.85 33.75 29.7 Q32.85 28.5 31.4 28.05 L30.6 27.9 M30.2 32.7 L30.2 32.3 Q30.2 31.55 30.7 31.05 31.2 30.5 31.95 30.5 32.7 30.5 33.2 31.05 33.75 31.55 33.75 32.3 33.75 33.05 33.2 33.55 32.7 34.1 31.95 34.1 L30.95 33.8 30.7 33.55 Q30.3 33.2 30.2 32.7 M32.4 38.95 L32.4 38.9 32.5 38.1 32.8 37.6 M32.9 37.5 L32.65 37.05 M41.35 34.6 Q41.35 33.9 41.0 33.4 40.65 32.95 40.15 32.95 39.65 32.95 39.3 33.4 38.95 33.9 38.95 34.6 38.95 35.25 39.3 35.75 39.65 36.2 40.15 36.2 40.65 36.2 41.0 35.75 41.35 35.25 41.35 34.6 M38.15 25.1 L38.3 25.2 38.5 25.35 38.55 25.4 39.95 26.65 40.45 27.3 M37.25 24.5 Q36.55 24.1 35.8 23.85 L35.2 23.7 M27.55 29.3 L28.35 28.65 M23.1 29.0 L23.55 28.85 M21.4 29.2 L20.1 29.15 M27.35 38.75 L26.7 37.65 26.5 37.2 26.15 36.2 26.05 35.8 26.05 35.75 25.85 34.5 25.8 34.0 25.9 32.55 25.95 32.3 M25.35 37.9 L24.75 37.1 24.15 35.9 23.8 34.7 M26.3 31.0 L26.35 30.9 M23.8 38.35 L22.5 37.45 22.05 37.1 M29.35 42.85 Q28.55 43.2 27.95 44.05 L27.4 45.1 27.3 45.45 Q27.15 45.9 27.15 46.35 L27.2 46.75 M29.0 45.1 L29.25 45.05 Q30.05 44.85 30.55 45.3 M29.0 45.2 L29.05 45.2 29.2 45.1 29.25 45.05 M29.0 45.2 L28.6 45.3 28.35 45.6 27.75 46.85 M28.6 45.3 L28.95 45.1 29.0 45.1 M25.75 44.9 L25.95 44.95 M34.6 40.1 L33.95 40.45 33.15 40.3 Q32.4 39.95 32.4 38.95 M33.8 37.8 L34.6 37.65 35.3 37.35 35.65 38.0 36.05 38.3 36.35 38.35 36.75 38.2 37.05 37.8 M36.0 38.5 L35.05 39.55 34.85 39.8 34.6 40.1 M33.8 37.8 L33.5 37.8 Q33.2 37.75 32.95 37.55 L32.9 37.5 M34.6 42.1 L34.55 42.1 M35.55 42.2 L34.75 42.15 34.6 42.1 M34.85 44.15 L34.8 43.95 M38.15 25.1 L37.35 24.55" fill="none" stroke="#602b31" stroke-linecap="round" stroke-linejoin="round" stroke-width="0.1"/>
      <path d="M20.45 17.45 Q20.5 17.95 20.85 18.35 M21.95 19.25 L21.85 19.7 21.25 21.05 20.8 22.05" fill="none" stroke="#e77200" stroke-linecap="round" stroke-linejoin="round" stroke-width="0.1"/>
      <path d="M21.3 44.6 L21.3 43.6 21.3 43.55 M25.8 38.05 L25.95 38.1 27.35 38.75 28.5 39.45 30.2 40.65 M25.35 37.9 L25.4 37.9 25.8 38.05 M29.35 42.85 L29.15 42.75 28.5 42.65 27.95 41.95 26.65 40.55 Q24.9 39.0 23.5 38.6 23.6 38.45 23.8 38.35 L24.05 38.2 25.35 37.9 M29.7 43.0 L29.35 42.85 M29.75 43.0 L29.7 43.0 M30.55 45.3 L31.0 44.7 M29.95 46.1 L30.3 45.65 30.55 45.3 M30.05 47.0 L29.85 46.45 29.75 46.35 29.95 46.1 M35.3 44.75 L34.85 44.15 34.75 44.05 M35.3 44.75 L35.4 44.85 36.1 46.05" fill="none" stroke="#64493e" stroke-linecap="round" stroke-linejoin="round" stroke-width="0.1"/>
    </g>
    <linearGradient gradientTransform="matrix(0.0136, 0.0, 0.0, 0.0099, 41.0, 51.8)" gradientUnits="userSpaceOnUse" id="gradient0" spreadMethod="pad" x1="-819.2" x2="819.2">
      <stop offset="0.0" stop-color="#65298e"/>
      <stop offset="1.0" stop-color="#9a6cc5"/>
    </linearGradient>
  </defs>
</svg>
