<?xml version="1.0" encoding="UTF-8" standalone="no"?>
<svg xmlns:ffdec="https://www.free-decompiler.com/flash" xmlns:xlink="http://www.w3.org/1999/xlink" ffdec:objectType="frame" height="31.95px" width="32.05px" xmlns="http://www.w3.org/2000/svg">
  <g transform="matrix(1.0, 0.0, 0.0, 1.0, 0.9, 0.45)">
    <use ffdec:characterId="1" height="30.0" transform="matrix(1.0, 0.0, 0.0, 1.0, 0.0, 0.0)" width="30.0" xlink:href="#shape0"/>
    <use ffdec:characterId="14" height="31.95" transform="matrix(1.0, 0.0, 0.0, 1.0, -0.9, -0.45)" width="32.05" xlink:href="#sprite0"/>
  </g>
  <defs>
    <g id="shape0" transform="matrix(1.0, 0.0, 0.0, 1.0, 0.0, 0.0)">
      <path d="M0.0 0.0 L30.0 0.0 30.0 30.0 0.0 30.0 0.0 0.0" fill="#33cc66" fill-opacity="0.0" fill-rule="evenodd" stroke="none"/>
    </g>
    <g id="sprite0" transform="matrix(1.0, 0.0, 0.0, 1.0, 0.9, 0.5)">
      <use ffdec:characterId="13" height="30.2" transform="matrix(1.0565, 0.0, 0.0, 1.0565, -0.9028, -0.4802)" width="30.35" xlink:href="#sprite1"/>
    </g>
    <g id="sprite1" transform="matrix(1.0, 0.0, 0.0, 1.0, 0.05, -0.35)">
      <use ffdec:characterId="2" height="30.05" transform="matrix(1.0, 0.0, 0.0, 1.0, -0.05, 0.35)" width="30.05" xlink:href="#shape1"/>
      <use ffdec:characterId="12" height="30.0" transform="matrix(1.0, 0.0, 0.0, 1.0, 0.3, 0.55)" width="30.0" xlink:href="#sprite2"/>
    </g>
    <g id="shape1" transform="matrix(1.0, 0.0, 0.0, 1.0, 0.05, -0.35)">
      <path d="M25.5 5.2 L25.5 5.0 18.95 5.8 15.05 1.0 15.0 0.9 11.25 5.8 5.3 5.0 5.25 5.0 5.25 5.05 5.7 11.4 0.9 15.05 0.9 15.1 5.65 19.2 5.6 19.45 5.15 25.25 5.15 25.4 11.35 25.0 15.0 29.35 15.1 29.25 18.8 25.0 25.55 25.45 24.75 19.05 29.15 15.25 29.25 15.2 29.3 15.15 29.25 15.1 24.8 11.6 25.5 5.2 M30.0 30.4 L-0.05 30.4 -0.05 0.35 30.0 0.35 30.0 30.4" fill="#33cc66" fill-opacity="0.0" fill-rule="evenodd" stroke="none"/>
    </g>
    <g id="sprite2" transform="matrix(1.0, 0.0, 0.0, 1.0, 0.0, 0.0)">
      <use ffdec:characterId="3" height="30.0" transform="matrix(1.0, 0.0, 0.0, 1.0, 0.0, 0.0)" width="30.0" xlink:href="#shape2"/>
      <clipPath id="clipPath0" transform="matrix(1.0, 0.0, 0.0, 1.0, 0.0, 0.0)">
        <path d="M21.15 9.55 Q23.65 12.0 23.65 15.35 23.65 18.5 21.55 20.85 18.7 23.5 15.2 23.5 11.65 23.5 9.15 21.15 L9.0 21.0 Q6.7 18.65 6.7 15.35 6.7 12.1 9.05 9.7 L9.15 9.55 Q11.65 7.25 15.2 7.25 18.65 7.25 21.15 9.55" fill="#000033" fill-rule="evenodd" stroke="none"/>
      </clipPath>
      <g clip-path="url(#clipPath0)">
        <use ffdec:characterId="10" height="31.95" transform="matrix(0.4946, 0.0, 0.0, 0.4946, 5.814, 7.55)" width="38.25" xlink:href="#sprite3"/>
      </g>
      <use ffdec:characterId="11" height="14.5" transform="matrix(1.0, 0.0, 0.0, 1.0, 6.75, 7.35)" width="9.2" xlink:href="#shape7"/>
    </g>
    <g id="shape2" transform="matrix(1.0, 0.0, 0.0, 1.0, 0.0, 0.0)">
      <path d="M26.05 4.35 L26.0 4.35 26.05 4.3 26.05 4.35" fill="url(#gradient0)" fill-rule="evenodd" stroke="none"/>
      <path d="M26.0 4.35 L26.05 4.35 23.0 9.75 Q24.55 11.75 24.8 14.2 L29.35 14.95 29.65 15.0 29.95 15.05 29.95 15.1 24.8 16.35 Q24.55 19.25 22.55 21.4 L26.05 25.8 21.15 22.7 Q18.95 24.45 16.1 24.7 L14.95 30.0 13.85 24.65 Q11.3 24.3 9.3 22.85 L4.55 25.8 4.55 25.75 4.85 25.35 7.45 21.15 Q5.55 18.8 5.45 15.8 L0.0 14.95 5.55 13.8 Q5.95 10.95 8.2 8.75 L8.3 8.6 4.6 4.3 9.85 7.45 Q11.65 6.3 13.9 6.1 L14.95 0.0 16.9 6.15 Q19.2 6.5 21.1 7.95 L21.2 8.05 26.0 4.35 M22.1 21.85 L22.1 21.9 22.15 21.9 22.1 21.85 M23.65 15.35 Q23.65 12.0 21.15 9.55 18.65 7.25 15.2 7.25 11.65 7.25 9.15 9.55 L9.05 9.7 Q6.7 12.1 6.7 15.35 6.7 18.65 9.0 21.0 L9.15 21.15 Q11.65 23.5 15.2 23.5 18.7 23.5 21.55 20.85 23.65 18.5 23.65 15.35" fill="#66ffff" fill-rule="evenodd" stroke="none"/>
      <path d="M26.05 4.3 L26.0 4.35 26.0 4.3 26.05 4.3" fill="url(#gradient1)" fill-rule="evenodd" stroke="none"/>
      <path d="M26.0 4.3 L26.0 4.35 21.2 8.05 21.1 7.95 Q19.2 6.5 16.9 6.15 L14.95 0.0 19.15 5.15 26.0 4.3 M29.35 14.95 L24.8 14.2 Q24.55 11.75 23.0 9.75 L26.05 4.35 25.3 11.3 29.85 14.95 29.35 14.95 M29.95 15.1 L25.25 19.1 26.1 25.8 26.05 25.8 26.1 25.85 26.1 25.9 19.0 25.4 14.95 30.0 11.1 25.4 4.55 25.8 9.3 22.85 Q11.3 24.3 13.85 24.65 L14.95 30.0 16.1 24.7 Q18.95 24.45 21.15 22.7 L26.05 25.8 22.55 21.4 Q24.55 19.25 24.8 16.35 L29.95 15.1 M4.5 25.65 L5.1 19.3 0.0 14.95 5.15 11.05 4.6 4.3 11.0 5.15 14.95 0.0 13.9 6.1 Q11.65 6.3 9.85 7.45 L4.6 4.3 8.3 8.6 8.2 8.75 Q5.95 10.95 5.55 13.8 L0.0 14.95 5.45 15.8 Q5.55 18.8 7.45 21.15 L4.85 25.35 4.5 25.65" fill="#3a8fdb" fill-rule="evenodd" stroke="none"/>
      <path d="M29.35 14.95 L29.85 14.95 29.9 15.0 29.65 15.0 29.35 14.95" fill="url(#gradient2)" fill-rule="evenodd" stroke="none"/>
      <path d="M29.95 15.1 L29.95 15.05 29.65 15.0 29.9 15.0 29.95 15.05 30.0 15.05 29.95 15.1 M26.1 25.8 L26.1 25.85 26.05 25.8 26.1 25.8" fill="url(#gradient3)" fill-rule="evenodd" stroke="none"/>
      <path d="M22.1 21.85 L22.15 21.9 22.1 21.9 22.1 21.85" fill="url(#gradient4)" fill-rule="evenodd" stroke="none"/>
      <path d="M23.65 15.35 Q23.65 18.5 21.55 20.85 18.7 23.5 15.2 23.5 11.65 23.5 9.15 21.15 L9.0 21.0 Q6.7 18.65 6.7 15.35 6.7 12.1 9.05 9.7 L9.15 9.55 Q11.65 7.25 15.2 7.25 18.65 7.25 21.15 9.55 23.65 12.0 23.65 15.35" fill="#000033" fill-rule="evenodd" stroke="none"/>
      <path d="M4.55 25.8 L4.5 25.8 4.5 25.65 4.85 25.35 4.55 25.75 4.55 25.8" fill="url(#gradient5)" fill-rule="evenodd" stroke="none"/>
    </g>
    <linearGradient gradientTransform="matrix(0.0049, 0.0, 0.0, 0.0065, 25.85, 9.55)" gradientUnits="userSpaceOnUse" id="gradient0" spreadMethod="pad" x1="-819.2" x2="819.2">
      <stop offset="0.0" stop-color="#5f2288"/>
      <stop offset="1.0" stop-color="#a276cd"/>
    </linearGradient>
    <linearGradient gradientTransform="matrix(0.0068, 0.0, 0.0, 0.0052, 20.5, 4.25)" gradientUnits="userSpaceOnUse" id="gradient1" spreadMethod="pad" x1="-819.2" x2="819.2">
      <stop offset="0.0" stop-color="#fd9b0b"/>
      <stop offset="1.0" stop-color="#fde42b"/>
    </linearGradient>
    <linearGradient gradientTransform="matrix(0.0048, 0.0, 0.0, 0.0067, 26.1, 20.35)" gradientUnits="userSpaceOnUse" id="gradient2" spreadMethod="pad" x1="-819.2" x2="819.2">
      <stop offset="0.0" stop-color="#8d010c"/>
      <stop offset="1.0" stop-color="#f2b03f"/>
    </linearGradient>
    <linearGradient gradientTransform="matrix(0.0048, 0.0, 0.0, 0.0067, 26.1, 20.35)" gradientUnits="userSpaceOnUse" id="gradient3" spreadMethod="pad" x1="-819.2" x2="819.2">
      <stop offset="0.0" stop-color="#fd9e0c"/>
      <stop offset="1.0" stop-color="#fddd27"/>
    </linearGradient>
    <linearGradient gradientTransform="matrix(0.0068, 0.0, 0.0, 0.005, 20.5, 25.9)" gradientUnits="userSpaceOnUse" id="gradient4" spreadMethod="pad" x1="-819.2" x2="819.2">
      <stop offset="0.0" stop-color="#65298e"/>
      <stop offset="1.0" stop-color="#9a6cc5"/>
    </linearGradient>
    <linearGradient gradientTransform="matrix(0.0064, 0.0, 0.0, 0.0049, 9.7, 25.95)" gradientUnits="userSpaceOnUse" id="gradient5" spreadMethod="pad" x1="-819.2" x2="819.2">
      <stop offset="0.0" stop-color="#fd9e0c"/>
      <stop offset="1.0" stop-color="#fddd27"/>
    </linearGradient>
    <g id="sprite3" transform="matrix(1.0, 0.0, 0.0, 1.0, 2.6, 0.0)">
      <clipPath id="clipPath1" transform="matrix(1.0, 0.0, 0.0, 1.0, 0.0, 0.0)">
        <path d="M30.75 7.45 L32.25 10.45 Q32.95 12.3 33.15 14.3 L33.2 15.55 33.2 15.95 Q33.2 20.4 31.05 24.1 L29.05 26.75 27.7 27.95 26.3 28.95 24.25 30.15 21.2 31.35 19.8 31.7 18.4 31.9 16.75 31.95 16.05 31.95 13.25 31.65 Q10.3 31.05 7.8 29.55 L6.7 28.8 4.9 27.3 4.6 27.05 Q2.7 25.15 1.6 22.95 L0.9 21.35 Q0.0 18.85 0.0 16.05 L0.0 15.95 0.0 15.65 0.2 13.45 Q0.75 10.1 2.75 7.3 3.6 6.05 4.75 4.9 L4.9 4.6 Q9.2 0.55 15.2 0.05 L16.75 0.0 18.0 0.05 19.85 0.3 22.25 0.9 Q23.6 1.35 24.95 2.1 L28.4 4.6 29.5 5.8 30.6 7.25 30.75 7.45" fill="#a81212" fill-rule="evenodd" stroke="none"/>
      </clipPath>
      <g clip-path="url(#clipPath1)">
        <use ffdec:characterId="9" height="135.5" transform="matrix(0.1673, 0.0, 0.0, 0.1673, -2.5836, 4.9664)" width="145.7" xlink:href="#sprite4"/>
        <use ffdec:characterId="9" height="135.5" transform="matrix(-0.1673, 0.0, 0.0, 0.1673, 35.6336, 5.8664)" width="145.7" xlink:href="#sprite4"/>
      </g>
    </g>
    <g id="sprite4" transform="matrix(1.0, 0.0, 0.0, 1.0, 0.5, 0.5)">
      <use ffdec:characterId="6" height="135.5" transform="matrix(1.0, 0.0, 0.0, 1.0, -0.5, -0.5)" width="145.7" xlink:href="#shape5"/>
      <filter id="filter0">
        <feConvolveMatrix divisor="25.0" in="SourceGraphic" kernelMatrix="1 1 1 1 1 1 1 1 1 1 1 1 1 1 1 1 1 1 1 1 1 1 1 1 1" order="5 5" result="filterResult0"/>
      </filter>
      <use ffdec:characterId="8" filter="url(#filter0)" height="17.85" style="mix-blend-mode: screen" transform="matrix(0.9451, 0.0, 0.0, 0.9451, 102.8, 78.95)" width="18.7" xlink:href="#sprite5"/>
    </g>
    <g id="shape5" transform="matrix(1.0, 0.0, 0.0, 1.0, 0.5, 0.5)">
      <path d="M95.15 43.15 Q96.2 43.25 96.25 42.4 96.3 41.6 95.15 41.5 93.95 41.45 93.9 42.1 L93.95 42.6 Q94.25 43.1 95.15 43.15 M29.25 30.55 L28.35 29.3 Q46.55 36.25 67.95 38.5 L68.45 38.55 Q80.8 40.2 90.2 39.05 L90.35 39.0 Q99.5 39.4 105.8 45.05 L104.3 46.3 Q100.75 48.8 97.05 48.6 91.9 48.35 89.0 47.5 85.15 46.4 82.95 44.0 L80.5 44.0 Q66.0 43.25 54.35 39.85 47.9 38.0 29.25 30.55" fill="#77a1c9" fill-rule="evenodd" stroke="none"/>
      <path d="M95.15 43.15 Q94.25 43.1 93.95 42.6 L93.9 42.1 Q93.95 41.45 95.15 41.5 96.3 41.6 96.25 42.4 96.2 43.25 95.15 43.15" fill="#ffffff" fill-rule="evenodd" stroke="none"/>
      <path d="M29.25 30.55 Q47.9 38.0 54.35 39.85 66.0 43.25 80.5 44.0 L82.95 44.0 Q85.15 46.4 89.0 47.5 91.9 48.35 97.05 48.6 100.75 48.8 104.3 46.3 L105.8 45.05 108.65 48.05 Q106.95 49.25 104.9 49.9 101.5 51.05 97.05 50.8 L89.25 49.75 87.85 49.5 82.3 49.8 Q76.4 49.95 68.6 49.55 59.0 49.05 51.0 47.25 45.25 45.95 40.85 44.1 34.25 37.8 29.25 30.55" fill="#44627e" fill-rule="evenodd" stroke="none"/>
      <path d="M108.65 48.05 L111.3 51.8 111.5 52.0 111.55 52.5 Q114.85 59.65 118.8 72.25 111.95 71.05 107.2 66.15 102.4 61.25 91.05 59.05 84.6 57.9 82.75 56.25 L59.9 54.0 50.5 52.35 Q45.3 48.45 40.85 44.1 45.25 45.95 51.0 47.25 59.0 49.05 68.6 49.55 76.4 49.95 82.3 49.8 L87.85 49.5 89.25 49.75 97.05 50.8 Q101.5 51.05 104.9 49.9 106.95 49.25 108.65 48.05" fill="#2f4a64" fill-rule="evenodd" stroke="none"/>
      <path d="M105.8 45.05 Q99.5 39.4 90.35 39.0 L90.2 39.05 Q80.8 40.2 68.45 38.55 L67.95 38.5 Q46.55 36.25 28.35 29.3 L29.25 30.55 Q34.25 37.8 40.85 44.1 45.3 48.45 50.5 52.35 L59.9 54.0 82.75 56.25 Q84.6 57.9 91.05 59.05 102.4 61.25 107.2 66.15 111.95 71.05 118.8 72.25 114.85 59.65 111.55 52.5 L111.5 52.0 111.3 51.8 108.65 48.05 105.8 45.05 Z" fill="none" stroke="#18232e" stroke-linecap="round" stroke-linejoin="round" stroke-width="1.0"/>
      <path d="M89.45 27.15 Q94.8 30.85 99.4 34.45 L99.75 34.65 Q109.2 47.55 114.8 59.95 L113.55 59.6 107.7 51.6 104.5 47.35 98.65 40.75 94.2 34.15 89.45 27.15 M110.85 58.85 Q94.05 53.95 78.3 47.15 69.1 35.8 59.25 22.4 69.7 29.5 80.5 34.45 86.45 37.3 92.5 39.45 L102.95 47.75 Q104.25 49.9 106.9 53.35 L110.85 58.85" fill="#ffea8a" fill-rule="evenodd" stroke="none"/>
      <path d="M89.45 27.15 L94.2 34.15 98.65 40.75 104.5 47.35 107.7 51.6 113.55 59.6 110.85 58.85 106.9 53.35 Q104.25 49.9 102.95 47.75 L92.5 39.45 Q86.45 37.3 80.5 34.45 69.7 29.5 59.25 22.4 L57.35 19.8 Q66.6 24.6 77.5 29.2 L86.45 33.0 90.6 35.45 90.1 34.35 83.45 23.15 Q86.55 25.1 89.45 27.15" fill="#fff5b1" fill-rule="evenodd" stroke="none"/>
      <path d="M57.35 19.8 L45.55 3.35 43.25 0.0 Q66.9 12.3 83.45 23.15 L90.1 34.35 90.6 35.45 86.45 33.0 77.5 29.2 Q66.6 24.6 57.35 19.8" fill="#ffffff" fill-rule="evenodd" stroke="none"/>
      <path d="M113.55 59.6 L114.8 59.95 Q109.2 47.55 99.75 34.65 L99.4 34.45 Q94.8 30.85 89.45 27.15 86.55 25.1 83.45 23.15 66.9 12.3 43.25 0.0 L45.55 3.35 57.35 19.8 59.25 22.4 Q69.1 35.8 78.3 47.15 94.05 53.95 110.85 58.85 L113.55 59.6 Z" fill="none" stroke="#ff713c" stroke-linecap="round" stroke-linejoin="round" stroke-width="1.0"/>
      <path d="M83.4 49.55 Q88.1 49.8 92.3 51.05 98.05 52.75 102.85 56.25 105.5 58.25 107.85 60.85 L108.05 61.1 108.25 61.5 Q113.15 68.55 114.8 76.2 108.95 77.75 103.2 74.3 97.45 70.95 82.75 69.65 L77.2 68.95 Q73.45 68.25 71.9 67.4 52.6 67.5 42.6 66.8 L30.45 65.7 29.65 65.35 40.0 63.3 47.6 61.7 60.8 58.7 70.05 60.05 74.9 59.9 75.2 62.15 81.55 61.1 86.0 63.5 93.75 67.4 93.95 67.45 Q92.45 65.65 89.0 59.6 L86.8 55.55 84.65 51.8 83.4 49.55" fill="#2f4a64" fill-rule="evenodd" stroke="none"/>
      <path d="M83.4 49.55 L84.65 51.8 86.8 55.55 85.45 56.3 Q80.0 59.15 74.9 59.9 L74.85 58.3 75.3 54.35 Q69.95 56.35 60.8 58.7 53.8 57.05 47.15 53.65 L41.8 52.95 11.35 48.35 3.95 47.8 0.0 44.15 2.9 44.85 4.5 45.15 Q21.7 48.8 40.85 50.15 L51.4 50.55 52.0 50.55 59.95 50.9 78.9 49.65 79.7 49.5 79.95 49.45 83.4 49.55 M82.45 51.1 Q82.55 50.0 81.05 50.2 79.5 50.45 79.45 51.5 L79.45 52.0 79.6 52.2 80.2 52.3 81.8 51.95 Q82.45 51.6 82.45 51.1" fill="#77a1c9" fill-rule="evenodd" stroke="none"/>
      <path d="M86.8 55.55 L89.0 59.6 Q92.45 65.65 93.95 67.45 L93.75 67.4 86.0 63.5 81.55 61.1 75.2 62.15 74.9 59.9 70.05 60.05 60.8 58.7 47.6 61.7 40.0 63.3 29.65 65.35 24.8 62.7 22.95 61.6 Q18.55 59.05 14.6 56.25 L11.2 53.8 10.35 53.15 3.95 47.8 11.35 48.35 41.8 52.95 47.15 53.65 Q53.8 57.05 60.8 58.7 69.95 56.35 75.3 54.35 L74.85 58.3 74.9 59.9 Q80.0 59.15 85.45 56.3 L86.8 55.55" fill="#44627e" fill-rule="evenodd" stroke="none"/>
      <path d="M82.45 51.1 Q82.45 51.6 81.8 51.95 L80.2 52.3 79.6 52.2 79.45 52.0 79.45 51.5 Q79.5 50.45 81.05 50.2 82.55 50.0 82.45 51.1" fill="#ffffff" fill-rule="evenodd" stroke="none"/>
      <path d="M29.65 65.35 L30.45 65.7 42.6 66.8 Q52.6 67.5 71.9 67.4 73.45 68.25 77.2 68.95 L82.75 69.65 Q97.45 70.95 103.2 74.3 108.95 77.75 114.8 76.2 113.15 68.55 108.25 61.5 L108.05 61.1 107.85 60.85 Q105.5 58.25 102.85 56.25 98.05 52.75 92.3 51.05 88.1 49.8 83.4 49.55 L79.95 49.45 79.7 49.5 78.9 49.65 59.95 50.9 52.0 50.55 51.4 50.55 40.85 50.15 Q21.7 48.8 4.5 45.15 L2.9 44.85 0.0 44.15 3.95 47.8 10.35 53.15 11.2 53.8 14.6 56.25 Q18.55 59.05 22.95 61.6 L24.8 62.7 29.65 65.35 Z" fill="none" stroke="#18232e" stroke-linecap="round" stroke-linejoin="round" stroke-width="1.0"/>
      <path d="M105.0 97.2 L105.0 92.6 107.7 94.5 108.9 97.95 Q112.5 101.45 116.6 108.35 L120.25 115.2 Q128.15 118.75 133.0 123.1 135.8 125.6 138.7 129.35 138.7 125.65 138.1 119.85 137.45 114.1 137.45 112.45 L139.7 114.25 Q140.95 124.4 139.15 134.5 132.3 124.95 121.05 117.15 L118.45 115.4 Q112.6 104.85 105.0 97.2" fill="#334b64" fill-rule="evenodd" stroke="none"/>
      <path d="M105.0 92.6 L105.0 74.2 107.1 74.15 Q115.15 74.15 119.5 85.6 121.75 91.6 123.0 100.1 L123.0 101.1 137.45 112.45 Q137.45 114.1 138.1 119.85 138.7 125.65 138.7 129.35 135.8 125.6 133.0 123.1 128.15 118.75 120.25 115.2 L116.6 108.35 Q112.5 101.45 108.9 97.95 L107.7 94.5 Q111.95 97.0 118.65 97.85 L119.0 97.95 123.0 101.1 119.0 97.95 118.65 97.85 Q111.95 97.0 107.7 94.5 L105.0 92.6" fill="#243a4f" fill-rule="evenodd" stroke="none"/>
      <path d="M123.0 101.1 L137.45 112.45 139.7 114.25 Q140.95 124.4 139.15 134.5 132.3 124.95 121.05 117.15 L118.45 115.4 Q112.6 104.85 105.0 97.2 M123.0 101.1 L119.0 97.95 118.65 97.85 Q111.95 97.0 107.7 94.5 L105.0 92.6" fill="none" stroke="#18232e" stroke-linecap="round" stroke-linejoin="round" stroke-width="1.0"/>
      <path d="M74.55 63.9 Q80.9 65.7 85.3 67.6 87.8 68.65 89.7 69.8 92.95 71.7 96.3 74.75 L97.55 75.95 100.4 78.65 100.55 79.8 93.45 74.45 Q88.65 70.95 82.5 68.75 79.95 70.85 74.1 72.55 70.0 73.7 66.2 74.15 L59.7 67.95 57.45 69.55 54.65 68.9 Q44.6 72.95 38.4 74.4 33.3 75.6 27.1 75.85 23.7 74.1 20.7 70.05 31.15 70.9 39.9 69.8 L50.3 68.25 52.4 67.75 52.9 67.55 53.4 67.4 Q55.5 66.55 57.65 66.0 65.05 63.95 73.55 63.75 L74.55 63.9 M73.15 64.4 Q71.9 64.2 71.9 65.3 71.9 65.7 72.05 65.85 L73.15 66.15 74.35 66.05 74.45 65.4 Q74.45 64.55 73.15 64.4" fill="#77a1c9" fill-rule="evenodd" stroke="none"/>
      <path d="M100.4 78.65 L97.55 75.95 96.3 74.75 Q92.95 71.7 89.7 69.8 87.8 68.65 85.3 67.6 80.9 65.7 74.55 63.9 81.15 64.9 86.4 67.15 93.7 70.15 98.35 75.4 L100.25 77.75 100.4 78.65 M20.7 70.05 Q23.7 74.1 27.1 75.85 33.3 75.6 38.4 74.4 44.6 72.95 54.65 68.9 L57.45 69.55 59.7 67.95 66.2 74.15 Q70.0 73.7 74.1 72.55 79.95 70.85 82.5 68.75 88.65 70.95 93.45 74.45 L100.55 79.8 100.6 80.2 97.0 79.0 Q92.95 77.75 89.65 76.15 L83.75 76.6 76.0 77.0 72.9 77.05 69.2 76.95 68.25 76.05 66.2 74.15 62.1 74.35 54.75 73.8 54.65 73.7 58.15 71.75 60.55 70.05 57.45 69.55 Q49.2 75.1 41.4 77.1 L32.7 78.35 31.35 77.75 27.1 75.85 25.4 75.85 24.8 75.85 25.0 75.9 21.3 76.3 Q19.75 75.6 17.3 74.05 14.9 72.45 10.45 68.5 L20.7 70.05" fill="#44627e" fill-rule="evenodd" stroke="none"/>
      <path d="M100.55 79.8 L100.4 78.65 100.25 77.75 98.35 75.4 100.15 74.8 105.0 74.2 105.0 92.6 Q102.95 90.7 101.75 88.25 L100.6 80.2 100.55 79.8" fill="#243a4f" fill-rule="evenodd" stroke="none"/>
      <path d="M66.2 74.15 L68.25 76.05 69.2 76.95 72.9 77.05 76.0 77.0 83.75 76.6 89.65 76.15 Q92.95 77.75 97.0 79.0 L100.6 80.2 101.75 88.25 Q102.95 90.7 105.0 92.6 L105.0 97.2 Q90.9 82.85 70.8 78.4 L70.4 78.3 Q53.3 79.45 40.4 83.5 36.5 83.0 31.85 81.4 27.25 79.75 21.3 76.3 L25.0 75.9 24.8 75.85 25.4 75.85 27.1 75.85 31.35 77.75 32.7 78.35 41.4 77.1 Q49.2 75.1 57.45 69.55 L60.55 70.05 58.15 71.75 54.65 73.7 54.75 73.8 62.1 74.35 66.2 74.15" fill="#2f4a64" fill-rule="evenodd" stroke="none"/>
      <path d="M73.15 64.4 Q74.45 64.55 74.45 65.4 L74.35 66.05 73.15 66.15 72.05 65.85 Q71.9 65.7 71.9 65.3 71.9 64.2 73.15 64.4" fill="#ffffff" fill-rule="evenodd" stroke="none"/>
      <path d="M74.55 63.9 L73.55 63.75 Q65.05 63.95 57.65 66.0 55.5 66.55 53.4 67.4 L52.9 67.55 52.4 67.75 50.3 68.25 39.9 69.8 Q31.15 70.9 20.7 70.05 L10.45 68.5 Q14.9 72.45 17.3 74.05 19.75 75.6 21.3 76.3 27.25 79.75 31.85 81.4 36.5 83.0 40.4 83.5 53.3 79.45 70.4 78.3 L70.8 78.4 Q90.9 82.85 105.0 97.2 M100.55 79.8 L100.4 78.65 100.25 77.75 98.35 75.4 Q93.7 70.15 86.4 67.15 81.15 64.9 74.55 63.9 M100.6 80.2 L100.55 79.8 M100.6 80.2 L101.75 88.25 Q102.95 90.7 105.0 92.6" fill="none" stroke="#18232e" stroke-linecap="round" stroke-linejoin="round" stroke-width="1.0"/>
      <path d="M117.05 94.2 L118.05 94.45 113.5 90.05 105.8 82.8 106.05 84.35 106.2 84.8 106.45 85.8 106.65 86.45 106.85 87.2 107.9 89.6 Q110.35 92.2 115.8 93.85 L117.05 94.2 M107.15 82.2 L114.65 89.2 120.3 94.95 120.45 95.1 118.45 94.85 117.55 94.7 116.15 94.35 114.1 93.75 109.75 92.0 Q108.3 91.3 107.1 90.45 L106.6 89.5 105.2 86.7 102.8 78.25 105.75 80.9 107.15 82.2" fill="#0f55aa" fill-rule="evenodd" stroke="none"/>
      <path d="M106.05 84.35 Q109.6 86.6 113.3 90.2 L117.05 94.2 115.8 93.85 Q112.35 89.45 107.35 86.15 L106.65 86.15 106.65 86.45 106.45 85.8 106.2 84.8 106.05 84.35" fill="#47e4f3" fill-rule="evenodd" stroke="none"/>
      <path d="M115.8 93.85 Q110.35 92.2 107.9 89.6 L106.85 87.2 106.65 86.45 106.65 86.15 107.35 86.15 Q112.35 89.45 115.8 93.85" fill="#c2fffd" fill-rule="evenodd" stroke="none"/>
      <path d="M106.05 84.35 L105.8 82.8 113.5 90.05 118.05 94.45 117.05 94.2 113.3 90.2 Q109.6 86.6 106.05 84.35" fill="#4795f3" fill-rule="evenodd" stroke="none"/>
      <path d="M119.05 95.65 L122.75 97.95 Q128.9 101.9 133.75 106.2 L135.1 107.45 136.0 108.3 136.95 109.25 136.0 108.65 133.6 107.1 133.05 106.8 Q123.6 101.15 119.1 101.15 L117.95 101.35 117.45 101.55 117.3 101.55 118.35 98.1 119.05 95.65" fill="#243a4f" fill-rule="evenodd" stroke="none"/>
      <path d="M142.25 115.3 L140.25 116.25 Q137.55 112.6 133.25 108.95 125.25 102.1 118.6 102.1 117.6 102.1 116.95 102.55 L115.95 103.55 115.95 103.5 Q116.1 102.45 117.2 99.25 118.1 96.6 118.85 95.55 L119.05 95.65 118.35 98.1 117.3 101.55 117.45 101.55 117.95 101.35 119.1 101.15 Q123.6 101.15 133.05 106.8 L133.6 107.1 136.0 108.65 136.95 109.25 Q140.05 112.25 142.25 115.3" fill="#2f4a64" fill-rule="evenodd" stroke="none"/>
      <path d="M140.25 116.25 L135.05 118.65 113.95 104.1 117.2 95.7 112.95 86.35 123.45 74.4 135.7 82.6 137.7 88.4 137.35 89.0 136.3 90.65 135.55 89.75 135.5 89.75 133.7 87.35 133.1 86.5 132.95 90.05 124.75 84.3 124.25 89.75 Q123.75 94.55 123.1 96.8 L126.2 99.1 132.45 104.2 133.9 105.4 136.0 107.3 140.45 111.6 143.4 114.75 Q142.85 115.05 142.25 115.3 140.05 112.25 136.95 109.25 L136.0 108.3 135.1 107.45 133.75 106.2 Q128.9 101.9 122.75 97.95 L119.05 95.65 118.85 95.55 Q118.1 96.6 117.2 99.25 116.1 102.45 115.95 103.5 L115.95 103.55 116.95 102.55 Q117.6 102.1 118.6 102.1 125.25 102.1 133.25 108.95 137.55 112.6 140.25 116.25" fill="#44627e" fill-rule="evenodd" stroke="none"/>
      <path d="M137.7 88.4 L140.7 98.0 138.5 94.75 Q136.75 92.35 134.8 91.15 L133.3 94.95 Q132.05 98.55 131.55 101.3 L125.65 95.15 125.6 93.05 125.75 87.3 Q127.95 87.95 131.65 89.75 L132.9 90.35 132.95 90.05 133.1 86.5 133.7 87.35 135.5 89.75 135.55 89.75 136.3 90.65 137.35 89.0 137.7 88.4 M141.0 98.95 L141.2 99.75 Q138.0 96.8 136.6 96.05 L136.25 99.7 136.0 104.1 135.95 104.85 136.0 107.3 133.9 105.4 Q134.1 104.45 133.7 104.1 133.3 103.65 133.4 100.85 133.55 98.0 135.7 93.3 L138.15 95.45 139.6 97.4 141.0 98.95" fill="#77a1c9" fill-rule="evenodd" stroke="none"/>
      <path d="M140.7 98.0 L141.0 98.95 139.6 97.4 138.15 95.45 135.7 93.3 Q133.55 98.0 133.4 100.85 133.3 103.65 133.7 104.1 134.1 104.45 133.9 105.4 L132.45 104.2 126.2 99.1 123.1 96.8 Q123.75 94.55 124.25 89.75 L124.75 84.3 132.95 90.05 132.9 90.35 131.65 89.75 Q127.95 87.95 125.75 87.3 L125.6 93.05 125.65 95.15 131.55 101.3 Q132.05 98.55 133.3 94.95 L134.8 91.15 Q136.75 92.35 138.5 94.75 L140.7 98.0 M141.2 99.75 L142.1 103.1 Q143.6 108.6 144.7 114.15 L143.4 114.75 140.45 111.6 136.0 107.3 135.95 104.85 136.0 104.1 136.25 99.7 136.6 96.05 Q138.0 96.8 141.2 99.75" fill="#aad5ff" fill-rule="evenodd" stroke="none"/>
      <path d="M140.25 116.25 L135.05 118.65 113.95 104.1 117.2 95.7 112.95 86.35 123.45 74.4 135.7 82.6 137.7 88.4 140.7 98.0 141.0 98.95 141.2 99.75 142.1 103.1 Q143.6 108.6 144.7 114.15 L143.4 114.75 Q142.85 115.05 142.25 115.3 L140.25 116.25 Z" fill="none" stroke="#18232e" stroke-linecap="round" stroke-linejoin="round" stroke-width="1.0"/>
      <path d="M127.1 46.1 L127.25 47.8 Q127.6 49.3 128.15 49.7 L129.05 49.75 Q129.4 49.35 128.75 47.9 128.1 46.5 127.25 45.9 L127.1 46.1 M135.85 61.55 L135.15 66.4 Q134.65 69.1 135.1 75.2 130.75 59.5 125.35 45.85 L126.0 40.2 Q132.95 54.0 135.85 61.55" fill="#fefefe" fill-rule="evenodd" stroke="none"/>
      <path d="M125.35 46.2 L125.35 45.85 Q130.75 59.5 135.1 75.2 134.65 69.1 135.15 66.4 L135.85 61.55 136.0 62.0 135.9 67.05 135.5 73.2 137.15 82.95 136.9 83.85 137.15 85.05 136.9 83.95 135.95 87.1 135.1 85.65 135.2 85.3 136.15 81.3 136.05 80.95 135.55 78.5 135.2 77.25 135.0 76.35 132.6 68.0 125.35 46.2" fill="#94fafe" fill-rule="evenodd" stroke="none"/>
      <path d="M127.1 46.1 L127.25 45.9 Q128.1 46.5 128.75 47.9 129.4 49.35 129.05 49.75 L128.15 49.7 Q127.6 49.3 127.25 47.8 L127.1 46.1" fill="#ffffff" fill-rule="evenodd" stroke="none"/>
      <path d="M128.65 69.0 L127.0 70.0 125.05 71.3 Q124.75 65.5 124.8 63.95 124.9 56.25 126.15 50.8 L132.4 70.5 Q134.3 76.4 134.45 80.35 L133.45 77.15 Q131.85 72.8 128.65 69.0" fill="#3a8fdb" fill-rule="evenodd" stroke="none"/>
      <path d="M125.35 46.2 L132.6 68.0 135.0 76.35 135.2 77.25 135.55 78.5 136.05 80.95 136.15 81.3 135.2 85.3 135.1 85.65 128.45 75.55 Q125.55 73.25 123.7 72.5 123.4 63.4 125.35 46.2 M128.65 69.0 Q131.85 72.8 133.45 77.15 L134.45 80.35 Q134.3 76.4 132.4 70.5 L126.15 50.8 Q124.9 56.25 124.8 63.95 124.75 65.5 125.05 71.3 L127.0 70.0 128.65 69.0" fill="#6be1ff" fill-rule="evenodd" stroke="none"/>
      <path d="M135.95 87.1 L136.9 83.95 137.15 85.05 136.9 83.85 137.15 82.95 135.5 73.2 135.9 67.05 136.0 62.0 136.7 63.8 Q138.6 72.75 138.75 83.15 L136.65 88.15 135.95 87.1" fill="#5df3f7" fill-rule="evenodd" stroke="none"/>
      <path d="M125.35 45.85 L125.35 46.2 Q123.4 63.4 123.7 72.5 125.55 73.25 128.45 75.55 L135.1 85.65 135.95 87.1 136.65 88.15 138.75 83.15 Q138.6 72.75 136.7 63.8 L136.0 62.0 135.85 61.55 Q132.95 54.0 126.0 40.2 L125.35 45.85 Z" fill="none" stroke="#2f84e2" stroke-linecap="round" stroke-linejoin="round" stroke-width="1.0"/>
      <path d="M96.3 30.0 Q102.5 37.35 110.1 44.7 L116.45 50.65 119.15 54.35 119.0 52.9 116.8 38.1 120.55 43.9 122.4 53.3 124.15 62.0 127.1 71.1 128.5 76.85 131.05 87.55 129.0 86.25 127.3 78.9 125.7 71.4 119.55 59.5 Q115.2 55.95 111.05 51.6 103.65 43.85 97.1 33.55 L96.3 30.0" fill="#fff5b1" fill-rule="evenodd" stroke="none"/>
      <path d="M96.3 30.0 Q93.75 19.4 91.35 7.95 L90.4 3.45 Q106.3 22.15 116.8 38.1 L119.0 52.9 119.15 54.35 116.45 50.65 110.1 44.7 Q102.5 37.35 96.3 30.0" fill="#ffffff" fill-rule="evenodd" stroke="none"/>
      <path d="M120.55 43.9 Q123.9 49.35 126.65 54.45 L126.85 54.7 Q130.9 72.05 131.95 88.15 L131.05 87.55 128.5 76.85 127.1 71.1 124.15 62.0 122.4 53.3 120.55 43.9 M129.0 86.25 Q116.6 77.75 105.65 67.0 101.4 51.6 97.1 33.55 103.65 43.85 111.05 51.6 115.2 55.95 119.55 59.5 L125.7 71.4 127.3 78.9 129.0 86.25" fill="#ffea8a" fill-rule="evenodd" stroke="none"/>
      <path d="M116.8 38.1 Q106.3 22.15 90.4 3.45 L91.35 7.95 Q93.75 19.4 96.3 30.0 L97.1 33.55 Q101.4 51.6 105.65 67.0 116.6 77.75 129.0 86.25 L131.05 87.55 131.95 88.15 Q130.9 72.05 126.85 54.7 L126.65 54.45 Q123.9 49.35 120.55 43.9 L116.8 38.1 Z" fill="none" stroke="#ff713c" stroke-linecap="round" stroke-linejoin="round" stroke-width="1.0"/>
      <path d="M86.7 48.9 L86.6 49.25 87.9 51.05 Q89.15 52.5 89.95 52.5 L90.85 51.85 Q90.85 51.1 89.35 50.05 87.75 48.85 86.7 48.9 M84.85 50.3 L81.75 43.25 Q97.2 53.65 104.9 60.0 L107.35 66.1 Q108.65 69.6 113.1 76.35 98.8 61.7 84.85 50.3" fill="#fefefe" fill-rule="evenodd" stroke="none"/>
      <path d="M86.7 48.9 Q87.75 48.85 89.35 50.05 90.85 51.1 90.85 51.85 L89.95 52.5 Q89.15 52.5 87.9 51.05 L86.6 49.25 86.7 48.9" fill="#ffffff" fill-rule="evenodd" stroke="none"/>
      <path d="M105.3 60.4 L107.05 61.9 122.6 80.4 122.95 83.75 Q123.35 88.85 122.55 92.4 L122.2 92.35 Q121.3 87.7 120.45 84.95 L121.0 85.5 120.4 84.85 120.0 83.65 112.15 73.7 108.5 66.3 105.3 60.4" fill="#5df3f7" fill-rule="evenodd" stroke="none"/>
      <path d="M105.3 60.4 L108.5 66.3 112.15 73.7 120.0 83.65 120.4 84.85 121.0 85.5 120.45 84.95 Q121.3 87.7 122.2 92.35 L120.8 92.2 119.75 87.9 Q118.7 83.9 118.05 82.55 L117.75 82.15 115.6 79.8 114.5 78.6 113.7 77.75 106.0 70.0 85.05 50.75 84.85 50.3 Q98.8 61.7 113.1 76.35 108.65 69.6 107.35 66.1 L104.9 60.0 105.3 60.4" fill="#94fafe" fill-rule="evenodd" stroke="none"/>
      <path d="M96.15 71.65 Q91.15 62.7 88.75 55.4 L107.5 73.1 Q113.1 78.4 115.85 82.9 L112.8 79.9 Q108.45 76.15 103.05 74.35 L102.1 76.85 101.15 79.95 96.15 71.65" fill="#3a8fdb" fill-rule="evenodd" stroke="none"/>
      <path d="M120.8 92.2 L116.8 91.55 Q112.9 86.85 107.05 82.1 L100.6 82.45 Q94.45 72.1 85.05 50.75 L106.0 70.0 113.7 77.75 114.5 78.6 115.6 79.8 117.75 82.15 118.05 82.55 Q118.7 83.9 119.75 87.9 L120.8 92.2 M96.15 71.65 L101.15 79.95 102.1 76.85 103.05 74.35 Q108.45 76.15 112.8 79.9 L115.85 82.9 Q113.1 78.4 107.5 73.1 L88.75 55.4 Q91.15 62.7 96.15 71.65" fill="#6be1ff" fill-rule="evenodd" stroke="none"/>
      <path d="M122.2 92.35 L122.55 92.4 Q123.35 88.85 122.95 83.75 L122.6 80.4 107.05 61.9 105.3 60.4 104.9 60.0 Q97.2 53.65 81.75 43.25 L84.85 50.3 85.05 50.75 Q94.45 72.1 100.6 82.45 L107.05 82.1 Q112.9 86.85 116.8 91.55 L120.8 92.2 122.2 92.35 Z" fill="none" stroke="#2f84e2" stroke-linecap="round" stroke-linejoin="round" stroke-width="1.0"/>
    </g>
    <g id="sprite5" transform="matrix(1.0, 0.0, 0.0, 1.0, 0.0, 0.0)">
      <use ffdec:characterId="7" height="17.85" transform="matrix(1.0, 0.0, 0.0, 1.0, 0.0, 0.0)" width="18.7" xlink:href="#shape6"/>
    </g>
    <g id="shape6" transform="matrix(1.0, 0.0, 0.0, 1.0, 0.0, 0.0)">
      <path d="M3.1 2.8 L4.6 4.2 12.55 11.6 18.5 17.65 18.7 17.85 16.55 17.55 15.6 17.4 14.15 17.05 11.95 16.4 7.35 14.55 4.55 12.9 4.0 11.9 2.55 8.95 0.0 0.0 3.1 2.8 M4.05 8.7 L4.3 9.45 5.4 12.0 Q8.0 14.75 13.75 16.5 L15.1 16.9 16.15 17.15 11.35 12.5 3.2 4.8 3.45 6.45 3.6 6.95 3.85 8.0 4.05 8.7" fill="#0f55aa" fill-rule="evenodd" stroke="none"/>
      <path d="M13.75 16.5 Q8.0 14.75 5.4 12.0 L4.3 9.45 4.05 8.7 4.05 8.35 4.8 8.35 Q10.1 11.85 13.75 16.5" fill="#c2fffd" fill-rule="evenodd" stroke="none"/>
      <path d="M13.75 16.5 Q10.1 11.85 4.8 8.35 L4.05 8.35 4.05 8.7 3.85 8.0 3.6 6.95 3.45 6.45 Q7.2 8.85 11.1 12.65 L15.1 16.9 13.75 16.5" fill="#47e4f3" fill-rule="evenodd" stroke="none"/>
      <path d="M3.45 6.45 L3.2 4.8 11.35 12.5 16.15 17.15 15.1 16.9 11.1 12.65 Q7.2 8.85 3.45 6.45" fill="#4795f3" fill-rule="evenodd" stroke="none"/>
    </g>
    <g id="shape7" transform="matrix(1.0, 0.0, 0.0, 1.0, -6.75, -7.35)">
      <path d="M9.1 9.75 L9.2 9.65 Q11.65 7.35 15.25 7.35 L15.95 7.35 Q9.25 12.6 10.25 21.85 L9.2 21.0 9.05 20.85 Q6.75 18.55 6.75 15.3 6.75 12.1 9.1 9.75" fill="#ffffff" fill-opacity="0.2" fill-rule="evenodd" stroke="none"/>
      <path d="M11.8 10.2 L10.7 11.9 9.5 13.25 Q8.95 13.15 8.85 12.85 L8.85 12.5 Q9.15 10.9 10.6 9.8 11.2 9.3 11.55 9.4 11.95 9.5 11.8 10.2 M8.2 15.1 L8.25 14.7 Q8.35 13.9 9.15 14.0 10.0 14.1 9.85 14.85 L9.55 15.35 Q9.2 15.65 8.85 15.6 8.3 15.5 8.2 15.1" fill="#ffffff" fill-rule="evenodd" stroke="none"/>
    </g>
  </defs>
</svg>
