<?xml version="1.0" encoding="UTF-8" standalone="no"?>
<svg xmlns:ffdec="https://www.free-decompiler.com/flash" xmlns:xlink="http://www.w3.org/1999/xlink" ffdec:objectType="frame" height="30.0px" width="30.0px" xmlns="http://www.w3.org/2000/svg">
  <g transform="matrix(1.0, 0.0, 0.0, 1.0, 0.0, 0.0)">
    <use ffdec:characterId="1" height="30.0" transform="matrix(1.0, 0.0, 0.0, 1.0, 0.0, 0.0)" width="30.0" xlink:href="#shape0"/>
    <filter id="filter4">
      <feColorMatrix in="SourceGraphic" result="filterResult6" type="matrix" values="0 0 0 0 0.1764706,0 0 0 0 0.14117648,0 0 0 0 0.49803922,0 0 0 1 0"/>
      <feConvolveMatrix divisor="9.0" in="filterResult6" kernelMatrix="1 1 1 1 1 1 1 1 1" order="3 3" result="filterResult7"/>
      <feComposite in="SourceGraphic" in2="filterResult7" operator="over" result="filterResult8"/>
    </filter>
    <use ffdec:characterId="14" filter="url(#filter4)" height="60.5" transform="matrix(0.469, 0.0, 0.0, 0.469, 1.0531, 1.0093)" width="60.0" xlink:href="#sprite0"/>
  </g>
  <defs>
    <g id="shape0" transform="matrix(1.0, 0.0, 0.0, 1.0, 0.0, 0.0)">
      <path d="M0.0 0.0 L30.0 0.0 30.0 30.0 0.0 30.0 0.0 0.0" fill="#33cc66" fill-opacity="0.0" fill-rule="evenodd" stroke="none"/>
    </g>
    <g id="sprite0" transform="matrix(1.0, 0.0, 0.0, 1.0, 0.1, 0.3)">
      <filter id="filter3">
        <feColorMatrix in="SourceGraphic" result="filterResult3" type="matrix" values="0 0 0 0 0.1764706,0 0 0 0 0.14117648,0 0 0 0 0.49803922,0 0 0 1 0"/>
        <feConvolveMatrix divisor="9.0" in="filterResult3" kernelMatrix="1 1 1 1 1 1 1 1 1" order="3 3" result="filterResult4"/>
        <feComposite in="SourceGraphic" in2="filterResult4" operator="over" result="filterResult5"/>
      </filter>
      <use ffdec:characterId="13" filter="url(#filter3)" height="60.5" transform="matrix(1.0, 0.0, 0.0, 1.0, -0.1, -0.3)" width="60.0" xlink:href="#sprite1"/>
    </g>
    <g id="sprite1" transform="matrix(1.0, 0.0, 0.0, 1.0, 0.15, -0.05)">
      <use ffdec:characterId="2" height="60.0" transform="matrix(1.0, 0.0, 0.0, 1.0, -0.15, 0.05)" width="60.0" xlink:href="#shape1"/>
      <use ffdec:characterId="3" height="0.0" transform="matrix(0.3205, 0.0, 0.0, 0.3205, 10.9, 11.9)" width="0.0" xlink:href="#sprite2"/>
      <use ffdec:characterId="12" height="59.15" transform="matrix(1.0, 0.0, 0.0, 1.0, 9.65, 1.4)" width="47.95" xlink:href="#sprite3"/>
    </g>
    <g id="shape1" transform="matrix(1.0, 0.0, 0.0, 1.0, 0.15, -0.05)">
      <path d="M47.05 30.75 Q47.05 37.05 42.95 41.75 37.15 47.05 30.25 47.05 23.05 47.05 18.15 42.35 L17.85 42.05 Q13.15 37.35 13.15 30.75 13.15 24.25 17.95 19.45 L18.15 19.15 Q23.05 14.45 30.25 14.45 37.15 14.45 42.15 19.15 47.05 24.05 47.05 30.75" fill="#2c040c" fill-rule="evenodd" stroke="none"/>
      <path d="M51.95 9.05 L51.75 8.95 50.95 9.65 51.95 8.65 51.95 9.05 M59.85 30.05 L59.85 30.15 59.65 30.05 59.85 30.05" fill="url(#gradient0)" fill-rule="evenodd" stroke="none"/>
      <path d="M50.95 9.65 L51.75 8.95 51.95 9.05 45.95 19.65 Q48.95 23.65 49.35 28.55 L58.55 30.05 59.85 30.25 59.65 30.35 49.35 32.85 Q48.75 38.45 44.95 42.85 L51.95 51.75 42.15 45.45 Q39.8 47.25 37.1 48.25 34.7 49.1 32.05 49.35 L29.95 59.85 29.85 59.95 29.85 59.75 27.55 49.35 Q22.45 48.75 18.45 45.85 L8.85 51.65 9.05 51.45 14.85 42.45 Q10.95 37.75 10.65 31.75 L-0.05 30.05 0.45 29.95 10.85 27.75 Q11.65 22.55 15.35 18.45 L15.55 18.25 15.35 18.35 9.15 8.75 18.95 15.35 Q23.05 12.65 27.75 12.15 L29.85 0.75 29.85 0.25 32.95 12.25 Q38.25 13.05 42.05 15.95 L42.35 16.15 50.95 9.65 M47.05 30.75 Q47.05 24.05 42.15 19.15 37.15 14.45 30.25 14.45 23.05 14.45 18.15 19.15 L17.95 19.45 Q13.15 24.25 13.15 30.75 13.15 37.35 17.85 42.05 L18.15 42.35 Q23.05 47.05 30.25 47.05 33.8 47.05 37.1 45.65 40.15 44.3 42.95 41.75 46.85 37.3 47.05 31.4 L47.05 30.75" fill="#1db1ff" fill-rule="evenodd" stroke="none"/>
      <path d="M51.95 8.65 L50.95 9.65 42.35 16.15 42.05 15.95 Q38.25 13.05 32.95 12.25 L29.85 0.25 29.85 0.75 27.75 12.15 Q23.05 12.65 18.95 15.35 L9.15 8.75 15.35 18.35 15.35 18.45 Q11.65 22.55 10.85 27.75 L0.45 29.95 -0.15 29.95 10.15 22.15 9.05 8.75 9.15 8.75 9.15 8.65 21.75 10.35 29.85 0.05 29.85 0.25 38.05 10.35 51.95 8.65 M-0.05 30.05 L10.65 31.75 Q10.95 37.75 14.85 42.45 L9.05 51.45 8.85 51.35 9.95 38.65 -0.05 30.05 M8.85 51.65 L18.45 45.85 Q22.45 48.75 27.55 49.35 L29.85 59.75 29.85 59.95 29.85 60.05 21.95 50.85 8.85 51.65 M29.95 59.85 L32.05 49.35 Q34.7 49.1 37.1 48.25 39.8 47.25 42.15 45.45 L51.95 51.75 44.95 42.85 Q48.75 38.45 49.35 32.85 L59.65 30.35 50.25 38.25 51.95 51.75 51.95 51.85 37.75 50.85 29.95 59.85 M58.55 30.05 L49.35 28.55 Q48.95 23.65 45.95 19.65 L51.95 9.05 50.45 22.65 59.85 30.05 59.65 30.05 58.55 30.05" fill="#153580" fill-rule="evenodd" stroke="none"/>
      <path d="M59.85 30.25 L58.55 30.05 59.65 30.05 59.85 30.15 59.85 30.25" fill="url(#gradient1)" fill-rule="evenodd" stroke="none"/>
      <path d="M9.15 8.75 L9.05 8.65 9.15 8.65 9.15 8.75" fill="url(#gradient2)" fill-rule="evenodd" stroke="none"/>
      <path d="M9.05 8.65 L9.15 8.75 9.05 8.75 9.05 8.65" fill="url(#gradient3)" fill-rule="evenodd" stroke="none"/>
      <path d="M15.35 18.35 L15.55 18.25 15.35 18.45 15.35 18.35 M9.05 51.45 L8.85 51.65 8.85 51.35 9.05 51.45" fill="#4dc4c2" fill-rule="evenodd" stroke="none"/>
      <path d="M0.45 29.95 L-0.05 30.05 -0.15 29.95 0.45 29.95" fill="url(#gradient4)" fill-rule="evenodd" stroke="none"/>
    </g>
    <linearGradient color-interpolation="linearRGB" gradientTransform="matrix(0.0099, 0.0, 0.0, 0.013, 51.45, 19.15)" gradientUnits="userSpaceOnUse" id="gradient0" spreadMethod="repeat" x1="-819.2" x2="819.2">
      <stop offset="0.0" stop-color="#14737c"/>
      <stop offset="1.0" stop-color="#48f2e0"/>
    </linearGradient>
    <linearGradient gradientTransform="matrix(0.0097, 0.0, 0.0, 0.0133, 51.95, 40.75)" gradientUnits="userSpaceOnUse" id="gradient1" spreadMethod="pad" x1="-819.2" x2="819.2">
      <stop offset="0.0" stop-color="#14737c"/>
      <stop offset="1.0" stop-color="#48f2e0"/>
    </linearGradient>
    <linearGradient gradientTransform="matrix(0.0126, 0.0, 0.0, 0.0102, 19.35, 8.35)" gradientUnits="userSpaceOnUse" id="gradient2" spreadMethod="pad" x1="-819.2" x2="819.2">
      <stop offset="0.0" stop-color="#14737c"/>
      <stop offset="1.0" stop-color="#48f2e0"/>
    </linearGradient>
    <linearGradient gradientTransform="matrix(0.0105, 0.0, 0.0, 0.013, 8.45, 19.15)" gradientUnits="userSpaceOnUse" id="gradient3" spreadMethod="pad" x1="-819.2" x2="819.2">
      <stop offset="0.0" stop-color="#14737c"/>
      <stop offset="1.0" stop-color="#48f2e0"/>
    </linearGradient>
    <linearGradient gradientTransform="matrix(0.01, 0.0, 0.0, 0.0131, 7.95, 40.55)" gradientUnits="userSpaceOnUse" id="gradient4" spreadMethod="pad" x1="-819.2" x2="819.2">
      <stop offset="0.0" stop-color="#14737c"/>
      <stop offset="1.0" stop-color="#48f2e0"/>
    </linearGradient>
    <g id="sprite3" transform="matrix(1.0, 0.0, 0.0, 1.0, 3.5, 13.05)">
      <clipPath id="clipPath0" transform="matrix(1.0, 0.0, 0.0, 1.0, 0.0, 0.0)">
        <path d="M29.0 4.7 Q33.9 9.6 33.9 16.3 33.9 22.6 29.8 27.3 24.0 32.6 17.1 32.6 9.9 32.6 5.0 27.9 L4.7 27.6 Q0.0 22.9 0.0 16.3 0.0 9.8 4.8 5.0 L5.0 4.7 Q9.9 0.0 17.1 0.0 24.0 0.0 29.0 4.7" fill="#2c040c" fill-rule="evenodd" stroke="none"/>
      </clipPath>
      <g clip-path="url(#clipPath0)">
        <use ffdec:characterId="5" height="59.15" transform="matrix(1.0, 0.0, 0.0, 1.0, -3.5, -13.05)" width="47.95" xlink:href="#shape3"/>
        <filter id="filter0">
          <feConvolveMatrix divisor="25.0" in="SourceGraphic" kernelMatrix="1 1 1 1 1 1 1 1 1 1 1 1 1 1 1 1 1 1 1 1 1 1 1 1 1" order="5 5" result="filterResult0"/>
        </filter>
        <use ffdec:characterId="7" filter="url(#filter0)" height="29.85" transform="matrix(-0.5428, 0.0, 0.0, 0.5428, 18.2357, 5.3143)" width="22.0" xlink:href="#sprite4"/>
        <use ffdec:characterId="8" height="9.8" transform="matrix(1.0, 0.0, 0.0, 1.0, 18.55, 12.95)" width="19.55" xlink:href="#shape5"/>
        <filter id="filter1">
          <feConvolveMatrix divisor="25.0" in="SourceGraphic" kernelMatrix="1 1 1 1 1 1 1 1 1 1 1 1 1 1 1 1 1 1 1 1 1 1 1 1 1" order="5 5" result="filterResult1"/>
        </filter>
        <use ffdec:characterId="10" filter="url(#filter1)" height="19.7" transform="matrix(-0.5427, 0.0, 0.1567, 0.5427, 38.793, 17.8287)" width="20.85" xlink:href="#sprite5"/>
        <use ffdec:characterId="11" height="12.85" transform="matrix(1.0, 0.0, 0.0, 1.0, -2.95, 21.25)" width="14.0" xlink:href="#shape7"/>
        <filter id="filter2">
          <feConvolveMatrix divisor="25.0" in="SourceGraphic" kernelMatrix="1 1 1 1 1 1 1 1 1 1 1 1 1 1 1 1 1 1 1 1 1 1 1 1 1" order="5 5" result="filterResult2"/>
        </filter>
        <use ffdec:characterId="10" filter="url(#filter2)" height="19.7" transform="matrix(0.308, 0.0, -0.2072, 0.4156, 3.9496, 21.4422)" width="20.85" xlink:href="#sprite5"/>
      </g>
    </g>
    <g id="shape3" transform="matrix(1.0, 0.0, 0.0, 1.0, 3.5, 13.05)">
      <path d="M7.8 7.75 L8.6 5.8 Q10.2 2.05 11.85 -1.05 L12.2 -1.75 12.25 -1.7 14.05 0.85 14.8 2.0 16.6 4.85 17.65 6.7 16.9 10.8 16.8 10.6 14.8 6.5 13.1 3.65 12.3 2.45 13.1 3.65 14.8 6.5 16.8 10.6 16.9 10.8 17.65 6.7 16.6 4.85 14.8 2.0 14.05 0.85 Q17.2 -1.95 20.6 -4.25 L19.95 -2.0 24.1 -1.05 Q26.2 -5.5 27.95 -11.05 28.3 -8.55 28.3 -5.7 L27.9 0.2 Q31.95 1.7 35.65 3.85 L37.65 5.05 34.4 5.3 37.65 10.85 41.25 14.3 41.25 28.7 41.25 31.7 39.7 31.7 36.5 31.7 33.35 31.7 32.1 31.7 27.95 31.7 25.45 31.7 22.75 31.7 21.95 31.7 21.2 31.7 17.45 31.7 13.4 31.7 9.35 31.7 7.0 31.7 6.55 31.7 5.55 31.7 5.35 31.7 6.0 30.9 5.9 29.6 5.45 29.8 4.8 31.7 3.45 31.7 3.8 30.7 3.7 30.45 1.2 31.35 0.6 31.7 -1.5 31.7 -1.5 31.1 0.55 29.15 3.6 23.75 4.6 21.55 5.8 22.1 7.1 22.85 8.65 23.95 8.85 24.1 8.7 24.65 8.8 24.7 10.15 24.8 10.25 26.2 10.65 26.65 10.6 26.7 Q12.85 26.3 14.5 25.3 L12.45 23.25 11.55 21.7 11.55 21.65 11.5 21.65 11.3 21.5 9.95 20.25 9.0 19.3 8.45 18.7 7.25 17.1 6.15 16.55 6.15 15.95 6.05 14.7 5.55 11.95 4.7 11.9 4.15 8.2 Q4.25 4.1 4.65 0.3 L4.9 -2.15 Q5.65 2.1 7.0 6.75 L7.8 7.75 8.8 8.85 7.8 7.75 M10.5 4.6 Q9.5 6.7 8.8 8.85 L9.15 9.2 9.25 11.8 Q9.5 9.4 10.05 6.95 L10.25 6.1 10.35 5.6 10.4 5.75 10.5 4.6 10.75 4.05 11.1 3.3 10.75 4.05 10.5 4.6 M12.3 2.45 L12.0 1.95 11.9 1.75 11.8 2.0 11.1 3.3 11.25 3.55 12.3 2.45 M11.5 21.8 L11.6 22.85 11.5 22.85 11.4 22.85 9.25 22.6 8.9 20.8 7.55 17.65 4.5 15.55 4.85 15.35 Q5.45 14.95 6.05 14.7 L6.15 15.95 6.15 16.55 7.25 17.1 8.45 18.7 9.0 19.3 9.95 20.25 11.3 21.5 11.5 21.65 11.5 21.8 M36.45 14.7 L34.65 14.3 27.55 13.45 25.4 13.05 24.55 15.4 22.85 16.3 20.05 17.75 19.95 16.2 20.7 15.65 22.9 14.95 Q22.85 12.75 24.55 9.25 L26.2 9.2 26.6 8.1 27.0 6.95 27.75 4.6 27.75 3.6 27.85 1.9 27.9 0.2 27.85 1.9 27.75 3.6 27.75 4.6 27.0 6.95 26.6 8.1 26.2 9.2 24.55 9.25 Q22.85 12.75 22.9 14.95 L20.7 15.65 19.95 16.2 20.05 17.75 22.85 16.3 24.55 15.4 25.4 13.05 27.55 13.45 34.65 14.3 34.65 13.3 36.45 14.7 36.8 14.75 37.65 15.0 37.05 15.15 40.5 17.8 Q39.45 14.3 37.65 10.85 39.45 14.3 40.5 17.8 L37.05 15.15 37.65 15.0 36.8 14.75 36.45 14.7 34.65 13.3 34.65 14.3 36.45 14.7 M21.0 22.25 L22.15 22.2 22.6 22.2 25.05 22.0 26.05 20.25 29.85 17.1 37.05 15.15 29.85 17.1 26.05 20.25 25.05 22.0 22.6 22.2 22.9 22.85 25.7 24.05 22.9 22.85 22.6 22.2 22.15 22.2 21.0 22.25 20.3 23.7 14.95 25.75 14.5 25.3 14.95 25.75 20.3 23.7 21.0 22.25 19.6 22.25 19.35 22.25 19.1 22.25 19.7 20.85 20.35 19.6 20.55 19.3 21.35 18.15 21.85 18.1 22.85 16.4 22.95 16.35 22.85 16.4 21.85 18.1 21.35 18.15 20.55 19.3 20.35 19.6 19.7 20.85 19.1 22.25 19.35 22.25 19.6 22.25 21.0 22.25 M27.55 13.45 L25.9 13.45 25.7 13.45 25.0 15.55 22.95 16.35 22.85 16.3 22.95 16.35 25.0 15.55 25.7 13.45 25.9 13.45 27.55 13.45 M17.65 6.7 L17.8 5.8 22.25 2.75 23.4 0.5 24.1 -1.05 23.4 0.5 22.25 2.75 17.8 5.8 17.65 6.7 M39.7 31.7 L38.4 31.15 35.35 30.35 32.7 29.65 31.4 29.3 30.35 28.95 26.8 28.05 26.0 27.85 24.15 29.15 24.2 28.4 24.4 26.85 25.7 24.05 26.2 23.15 28.6 22.85 28.8 22.75 28.8 22.05 29.2 21.8 Q30.75 20.9 32.4 20.15 33.75 19.5 35.1 19.0 L37.4 18.2 38.05 21.05 40.65 28.1 41.25 28.7 40.65 28.1 38.05 21.05 37.4 18.2 35.1 19.0 Q33.75 19.5 32.4 20.15 30.75 20.9 29.2 21.8 L28.8 22.05 28.8 22.75 28.6 22.85 26.2 23.15 25.7 24.05 24.4 26.85 24.2 28.4 24.15 29.15 26.0 27.85 26.8 28.05 30.35 28.95 31.4 29.3 32.7 29.65 35.35 30.35 38.4 31.15 39.7 31.7 M16.4 12.25 L18.45 11.15 18.15 11.9 17.95 12.45 Q16.9 15.35 15.4 17.85 L12.2 21.4 12.1 21.55 10.6 20.0 9.15 18.15 7.75 15.55 7.6 15.1 7.35 14.55 6.9 13.0 6.75 12.4 9.05 14.1 9.25 11.8 9.05 14.1 6.75 12.4 6.9 13.0 7.35 14.55 7.6 15.1 7.75 15.55 9.15 18.15 10.6 20.0 12.1 21.55 12.2 21.4 15.4 17.85 Q16.9 15.35 17.95 12.45 L18.15 11.9 18.45 11.15 16.4 12.25 14.0 13.65 10.4 5.75 14.0 13.65 16.4 12.25 16.9 10.8 16.4 12.25 M12.2 21.4 L13.1 22.55 Q15.3 19.8 19.05 16.9 L19.8 16.3 19.95 16.2 19.8 16.3 19.05 16.9 Q15.3 19.8 13.1 22.55 L12.2 21.4 M12.95 22.75 L11.55 21.7 12.95 22.75 M9.05 28.45 L9.2 28.4 10.0 29.3 10.4 27.5 10.3 26.7 10.6 26.7 10.3 26.7 10.4 27.5 10.0 29.3 9.2 28.4 9.05 28.45 7.4 29.05 7.45 29.2 8.65 29.25 9.05 28.45 M13.4 31.7 L17.05 29.6 17.45 31.7 17.05 29.6 13.4 31.7 M10.25 26.2 L10.3 26.7 10.25 26.2 M9.35 31.7 L8.85 29.4 8.0 31.0 8.3 29.95 8.65 29.25 8.3 29.95 8.0 31.0 8.85 29.4 9.35 31.7 M24.2 28.4 L17.45 31.7 24.2 28.4 M22.6 30.9 L26.1 28.85 26.8 28.05 26.1 28.85 25.4 29.85 25.45 31.7 25.4 29.85 26.1 28.85 22.6 30.9 22.75 31.7 22.6 30.9 22.15 31.15 21.95 31.7 22.15 31.15 22.6 30.9 M30.35 28.95 L27.9 30.95 27.95 31.7 27.9 30.95 30.35 28.95 M21.2 31.7 L22.15 31.15 21.2 31.7 M35.35 30.35 L36.5 31.7 35.35 30.35 M31.4 29.3 L31.6 30.95 32.1 31.7 31.6 30.95 31.4 29.3 M32.7 29.65 L32.65 30.75 33.35 31.7 32.65 30.75 32.7 29.65 M6.55 29.4 L6.85 31.05 7.0 31.7 6.85 31.05 6.85 31.15 6.55 31.7 6.85 31.15 6.85 31.05 6.55 29.4 5.9 29.6 6.55 29.4 7.4 29.05 6.55 29.4 M5.45 29.8 L3.7 30.45 5.45 29.8 M6.0 30.9 L6.0 30.95 5.55 31.7 6.0 30.95 6.0 30.9 M8.0 31.0 L7.9 31.2 7.7 30.35 7.45 29.2 7.7 30.35 8.3 29.95 7.7 30.35 7.9 31.2 8.0 31.0" fill="#4229ee" fill-rule="evenodd" stroke="none"/>
      <path d="M14.05 0.85 L12.25 -1.7 12.2 -1.75 11.85 -1.05 Q10.2 2.05 8.6 5.8 L7.8 7.75 8.8 8.85 Q9.5 6.7 10.5 4.6 L10.75 4.05 11.1 3.3 11.8 2.0 11.9 1.75 12.0 1.95 12.3 2.45 13.1 3.65 14.8 6.5 16.8 10.6 16.9 10.8 17.65 6.7 16.6 4.85 14.8 2.0 14.05 0.85 Q17.2 -1.95 20.6 -4.25 L19.95 -2.0 24.1 -1.05 Q26.2 -5.5 27.95 -11.05 28.3 -8.55 28.3 -5.7 L27.9 0.2 Q31.95 1.7 35.65 3.85 L37.65 5.05 34.4 5.3 37.65 10.85 41.25 14.3 M5.35 31.7 L6.0 30.9 5.9 29.6 5.45 29.8 4.8 31.7 M3.45 31.7 L3.8 30.7 3.7 30.45 1.2 31.35 0.6 31.7 M-1.5 31.1 L0.55 29.15 3.6 23.75 4.6 21.55 5.8 22.1 7.1 22.85 8.65 23.95 8.85 24.1 8.7 24.65 8.8 24.7 10.15 24.8 10.25 26.2 10.65 26.65 10.6 26.7 Q12.85 26.3 14.5 25.3 L12.45 23.25 11.55 21.7 11.5 21.8 11.6 22.85 11.5 22.85 11.4 22.85 9.25 22.6 8.9 20.8 7.55 17.65 4.5 15.55 4.85 15.35 Q5.45 14.95 6.05 14.7 L5.55 11.95 4.7 11.9 4.15 8.2 Q4.25 4.1 4.65 0.3 L4.9 -2.15 Q5.65 2.1 7.0 6.75 L7.8 7.75 M41.25 28.7 L40.65 28.1 38.05 21.05 37.4 18.2 35.1 19.0 Q33.75 19.5 32.4 20.15 30.75 20.9 29.2 21.8 L28.8 22.05 28.8 22.75 28.6 22.85 26.2 23.15 25.7 24.05 24.4 26.85 24.2 28.4 24.15 29.15 26.0 27.85 26.8 28.05 30.35 28.95 31.4 29.3 32.7 29.65 35.35 30.35 38.4 31.15 39.7 31.7 M24.1 -1.05 L23.4 0.5 22.25 2.75 17.8 5.8 17.65 6.7 M27.9 0.2 L27.85 1.9 27.75 3.6 27.75 4.6 27.0 6.95 26.6 8.1 26.2 9.2 24.55 9.25 Q22.85 12.75 22.9 14.95 L20.7 15.65 19.95 16.2 20.05 17.75 22.85 16.3 24.55 15.4 25.4 13.05 27.55 13.45 34.65 14.3 34.65 13.3 36.45 14.7 36.8 14.75 37.65 15.0 37.05 15.15 40.5 17.8 Q39.45 14.3 37.65 10.85 M22.85 16.3 L22.95 16.35 25.0 15.55 25.7 13.45 25.9 13.45 27.55 13.45 M14.5 25.3 L14.95 25.75 20.3 23.7 21.0 22.25 19.6 22.25 19.35 22.25 19.1 22.25 19.7 20.85 20.35 19.6 20.55 19.3 21.35 18.15 21.85 18.1 22.85 16.4 22.95 16.35 M37.05 15.15 L29.85 17.1 26.05 20.25 25.05 22.0 22.6 22.2 22.9 22.85 25.7 24.05 M22.6 22.2 L22.15 22.2 21.0 22.25 M34.65 14.3 L36.45 14.7 M8.8 8.85 L9.15 9.2 9.25 11.8 Q9.5 9.4 10.05 6.95 L10.25 6.1 10.35 5.6 10.4 5.75 10.5 4.6 M11.1 3.3 L11.25 3.55 12.3 2.45 M10.4 5.75 L14.0 13.65 16.4 12.25 16.9 10.8 M9.25 11.8 L9.05 14.1 6.75 12.4 6.9 13.0 7.35 14.55 7.6 15.1 7.75 15.55 9.15 18.15 10.6 20.0 12.1 21.55 12.2 21.4 15.4 17.85 Q16.9 15.35 17.95 12.45 L18.15 11.9 18.45 11.15 16.4 12.25 M6.05 14.7 L6.15 15.95 6.15 16.55 7.25 17.1 8.45 18.7 9.0 19.3 9.95 20.25 11.3 21.5 11.5 21.65 11.55 21.65 11.55 21.7 12.95 22.75 M19.95 16.2 L19.8 16.3 19.05 16.9 Q15.3 19.8 13.1 22.55 L12.2 21.4 M11.5 21.8 L11.5 21.65 M10.6 26.7 L10.3 26.7 10.4 27.5 10.0 29.3 9.2 28.4 9.05 28.45 8.65 29.25 8.3 29.95 8.0 31.0 8.85 29.4 9.35 31.7 M10.3 26.7 L10.25 26.2 M17.45 31.7 L17.05 29.6 13.4 31.7 M9.05 28.45 L7.4 29.05 7.45 29.2 8.65 29.25 M5.9 29.6 L6.55 29.4 7.4 29.05 M7.45 29.2 L7.7 30.35 8.3 29.95 M7.7 30.35 L7.9 31.2 8.0 31.0 M7.0 31.7 L6.85 31.05 6.85 31.15 6.55 31.7 M5.55 31.7 L6.0 30.95 6.0 30.9 M3.7 30.45 L5.45 29.8 M6.85 31.05 L6.55 29.4 M33.35 31.7 L32.65 30.75 32.7 29.65 M32.1 31.7 L31.6 30.95 31.4 29.3 M36.5 31.7 L35.35 30.35 M26.8 28.05 L26.1 28.85 25.4 29.85 25.45 31.7 M22.75 31.7 L22.6 30.9 22.15 31.15 21.95 31.7 M22.15 31.15 L21.2 31.7 M27.95 31.7 L27.9 30.95 30.35 28.95 M26.1 28.85 L22.6 30.9 M17.45 31.7 L24.2 28.4" fill="none" stroke="#4229ee" stroke-linecap="round" stroke-linejoin="round" stroke-width="4.0"/>
      <path d="M29.15 34.95 L29.15 34.3 Q29.15 31.4 27.45 29.8 26.25 28.7 23.6 27.85 L23.2 27.75 19.75 19.95 19.9 19.85 Q21.75 18.7 21.75 17.5 21.75 15.35 19.75 14.4 L18.45 13.8 Q17.8 13.4 17.8 12.85 17.8 12.25 19.3 11.2 L23.05 8.75 25.95 8.1 28.15 7.9 32.25 8.75 34.8 8.55 Q35.65 8.55 36.45 9.55 L36.8 10.05 40.0 13.15 40.0 34.95 29.15 34.95" fill="#153580" fill-rule="evenodd" stroke="none"/>
      <path d="M29.15 34.95 L29.15 34.3 Q29.15 31.4 27.45 29.8 26.25 28.7 23.6 27.85 L23.2 27.75 19.75 19.95 19.9 19.85 Q21.75 18.7 21.75 17.5 21.75 15.35 19.75 14.4 L18.45 13.8 Q17.8 13.4 17.8 12.85 17.8 12.25 19.3 11.2 L23.05 8.75 25.95 8.1 28.15 7.9 32.25 8.75 34.8 8.55 Q35.65 8.55 36.45 9.55 L36.8 10.05 40.0 13.15" fill="none" stroke="#093db1" stroke-linecap="round" stroke-linejoin="round" stroke-width="1.0"/>
      <path d="M3.8 33.6 L7.35 29.2 12.45 29.4 10.75 36.0 8.85 36.05 4.1 40.75 3.05 42.9 1.6 43.6 1.35 43.85 1.1 43.35 -0.3 41.6 Q1.8 39.25 3.0 37.3 L3.9 35.5 3.8 33.6" fill="#6c8acb" fill-rule="evenodd" stroke="none"/>
      <path d="M3.8 33.6 L3.9 35.5 3.0 37.3 Q1.8 39.25 -0.3 41.6 L1.1 43.35 1.35 43.85 -0.3 45.6 -2.4 41.25 3.8 33.6" fill="#85a6ee" fill-rule="evenodd" stroke="none"/>
      <path d="M1.35 43.85 L1.6 43.6 3.05 42.9 4.1 40.75 8.85 36.05 10.75 36.0 12.45 29.4 7.35 29.2 3.8 33.6 -2.4 41.25 -0.3 45.6 1.35 43.85 Z" fill="none" stroke="#3650a7" stroke-linecap="round" stroke-linejoin="round" stroke-width="1.0"/>
      <path d="M7.0 29.15 L6.8 31.2 3.0 38.05 -2.75 39.4 -2.3 37.55 2.75 36.2 5.95 30.95 5.85 28.7 10.0 25.95 10.6 26.65 7.0 29.15" fill="#153580" fill-rule="evenodd" stroke="none"/>
      <path d="M7.0 29.15 L6.8 31.2 3.0 38.05 -2.75 39.4 -2.3 37.55 2.75 36.2 5.95 30.95 5.85 28.7 10.0 25.95 10.6 26.65 7.0 29.15 Z" fill="none" stroke="#3650a7" stroke-linecap="round" stroke-linejoin="round" stroke-width="0.5"/>
      <path d="M15.65 22.3 L15.65 23.55 Q15.65 25.45 15.2 26.15 L14.7 26.75 12.75 27.2 Q10.85 27.55 10.2 27.85 L10.05 29.0 12.75 28.65 15.85 29.2 15.7 28.25 16.55 28.5 Q18.9 29.2 19.4 29.9 21.05 28.05 23.75 27.35 L25.05 26.8 Q25.45 26.25 25.5 25.1 L25.25 25.0 Q24.3 24.8 23.7 24.35 22.35 23.3 21.2 20.1 L21.6 19.9 22.9 22.9 26.05 24.2 25.9 27.7 16.6 33.5 16.2 31.5 9.5 35.95 8.7 31.95 7.75 32.35 Q8.0 29.5 10.15 26.75 L10.25 26.75 Q12.95 26.4 14.8 25.05 L15.0 22.55 15.65 22.3 M13.75 30.85 L13.75 30.9 Q14.85 31.25 15.0 30.0 L14.9 29.9 Q14.0 29.95 13.75 30.85" fill="#153580" fill-rule="evenodd" stroke="none"/>
      <path d="M21.2 20.1 Q22.35 23.3 23.7 24.35 24.3 24.8 25.25 25.0 L25.5 25.1 Q25.45 26.25 25.05 26.8 L23.75 27.35 Q21.05 28.05 19.4 29.9 18.9 29.2 16.55 28.5 L15.7 28.25 15.85 29.2 12.75 28.65 10.05 29.0 10.2 27.85 Q10.85 27.55 12.75 27.2 L14.7 26.75 15.2 26.15 Q15.65 25.45 15.65 23.55 L15.65 22.3 21.2 20.1" fill="#0a225b" fill-rule="evenodd" stroke="none"/>
      <path d="M13.75 30.85 Q14.0 29.95 14.9 29.9 L15.0 30.0 Q14.85 31.25 13.75 30.9 L13.75 30.85" fill="#0e59ff" fill-rule="evenodd" stroke="none"/>
      <path d="M15.65 22.3 L15.0 22.55 14.8 25.05 Q12.95 26.4 10.25 26.75 L10.15 26.75 Q8.0 29.5 7.75 32.35 L8.7 31.95 9.5 35.95 16.2 31.5 16.6 33.5 25.9 27.7 26.05 24.2 22.9 22.9 21.6 19.9 21.2 20.1 15.65 22.3 Z" fill="none" stroke="#3650a7" stroke-linecap="round" stroke-linejoin="round" stroke-width="1.0"/>
      <path d="M12.4 23.3 L12.8 23.05 14.4 24.05 13.9 23.25 13.4 22.6 15.6 20.9 17.9 20.85 18.7 20.75 19.15 20.5 20.5 19.5 21.6 18.65 21.2 20.9 21.0 22.25 20.3 23.7 14.9 25.75 12.4 23.3" fill="#ffffff" fill-rule="evenodd" stroke="none"/>
      <path d="M21.0 22.25 L21.2 20.9 21.6 18.65 20.5 19.5 19.15 20.5 18.7 20.75 17.9 20.85 15.6 20.9 13.4 22.6 13.9 23.25 14.4 24.05 12.8 23.05 12.4 23.3 11.55 21.75 18.85 13.8 23.6 16.8 21.0 22.25" fill="#bbe2ff" fill-rule="evenodd" stroke="none"/>
      <path d="M12.4 23.3 L14.9 25.75 20.3 23.7 21.0 22.25 23.6 16.8 18.85 13.8 11.55 21.75 12.4 23.3 M19.05 13.6 L18.85 13.8 M11.55 21.75 L10.75 20.4" fill="none" stroke="#3650a7" stroke-linecap="round" stroke-linejoin="round" stroke-width="1.0"/>
      <path d="M19.8 16.0 L19.75 17.95 19.75 19.55 19.7 19.85 Q18.15 21.1 17.0 21.15 L15.95 21.1 15.6 21.05 15.2 20.9 15.35 20.6 15.85 19.9 15.9 19.8 16.25 19.45 17.1 18.75 17.15 18.7 18.55 17.4 19.0 17.0 19.8 16.0 M19.45 18.65 L19.45 18.35 19.45 18.3 19.4 18.0 19.45 17.55 19.2 17.7 19.05 17.85 19.1 18.45 19.1 18.55 19.1 18.85 18.85 19.75 18.55 20.2 19.35 19.45 19.45 18.65 M19.0 18.55 L19.0 18.5 18.95 17.9 18.0 18.6 17.9 18.65 17.9 18.95 17.35 19.35 17.3 18.9 17.2 19.0 16.3 19.85 16.3 20.2 16.3 20.25 Q16.45 20.9 16.9 20.9 L17.0 20.85 17.95 20.6 18.4 20.3 18.45 20.2 18.8 19.45 18.95 18.95 19.0 18.55 M15.8 20.85 L16.25 20.85 16.5 20.9 16.65 20.9 16.4 20.8 16.15 20.5 16.1 20.5 16.0 20.2 15.45 20.8 15.8 20.85" fill="#2a20b8" fill-rule="evenodd" stroke="none"/>
      <path d="M19.1 18.55 L19.1 18.45 19.05 17.85 19.2 17.7 19.45 17.55 19.4 18.0 19.45 18.3 19.45 18.35 19.45 18.65 19.1 18.55 M17.9 18.95 L17.9 18.65 18.0 18.6 18.95 17.9 19.0 18.5 19.0 18.55 Q18.5 18.6 17.9 18.95 M16.1 20.5 L15.8 20.85 15.45 20.8 16.0 20.2 16.1 20.5" fill="#38aaff" fill-rule="evenodd" stroke="none"/>
      <path d="M19.45 18.65 L19.35 19.45 18.55 20.2 18.85 19.75 19.1 18.85 19.1 18.55 19.45 18.65 M17.9 18.95 Q18.5 18.6 19.0 18.55 L18.95 18.95 18.8 19.45 18.45 20.2 17.7 20.05 17.6 19.95 17.35 19.55 17.35 19.35 17.9 18.95" fill="#cdffff" fill-rule="evenodd" stroke="none"/>
      <path d="M17.0 20.85 L16.9 20.9 Q16.45 20.9 16.3 20.25 L16.3 20.2 16.3 19.85 17.2 19.0 17.3 18.9 17.35 19.35 17.35 19.55 17.2 20.5 17.15 20.75 16.9 20.85 17.0 20.85" fill="#160bad" fill-rule="evenodd" stroke="none"/>
      <path d="M17.35 19.55 L17.6 19.95 17.4 20.4 17.15 20.75 17.2 20.5 17.35 19.55" fill="#540eff" fill-rule="evenodd" stroke="none"/>
      <path d="M10.3 7.25 L10.6 2.6 11.25 3.55 Q15.6 -0.95 20.6 -4.25 L19.95 -1.95 Q28.45 -0.3 35.65 3.85 L32.3 3.6 Q28.5 2.1 24.75 0.95 L19.35 -0.5 18.45 1.6 17.2 4.8 17.2 4.9 17.1 2.85 17.2 0.75 17.2 -0.25 14.15 2.6 Q12.55 4.0 12.05 5.2 L11.5 4.15 11.3 4.15 11.4 9.0 10.3 7.25" fill="#2587ff" fill-rule="evenodd" stroke="none"/>
      <path d="M35.65 3.85 L37.6 5.05 34.4 5.35 Q38.55 11.55 40.45 17.8 L34.6 13.3 34.6 14.8 25.35 13.1 24.5 15.4 Q22.3 16.6 20.05 17.75 L19.7 12.9 14.05 15.4 10.25 7.75 10.3 7.25 11.4 9.0 11.45 9.05 Q14.15 13.2 15.05 13.5 L16.6 10.9 18.45 7.7 20.65 7.65 26.3 8.05 Q28.0 8.35 30.95 9.45 L30.75 9.25 26.9 6.9 Q23.65 4.9 22.9 4.15 L23.45 3.8 26.5 3.6 31.6 3.55 32.3 3.6 35.65 3.85" fill="#153580" fill-rule="evenodd" stroke="none"/>
      <path d="M11.4 9.0 L11.3 4.15 11.5 4.15 12.05 5.2 Q12.55 4.0 14.15 2.6 L17.2 -0.25 17.2 0.75 17.1 2.85 17.2 4.9 17.2 4.8 18.45 1.6 19.35 -0.5 24.75 0.95 Q28.5 2.1 32.3 3.6 L31.6 3.55 26.5 3.6 23.45 3.8 22.9 4.15 Q23.65 4.9 26.9 6.9 L30.75 9.25 30.95 9.45 Q28.0 8.35 26.3 8.05 L20.65 7.65 18.45 7.7 16.6 10.9 15.05 13.5 Q14.15 13.2 11.45 9.05 L11.4 9.0" fill="#1b4ab8" fill-rule="evenodd" stroke="none"/>
      <path d="M10.3 7.25 L10.6 2.6 11.25 3.55 Q15.6 -0.95 20.6 -4.25 L19.95 -1.95 Q28.45 -0.3 35.65 3.85 L37.6 5.05 34.4 5.35 Q38.55 11.55 40.45 17.8 L34.6 13.3 34.6 14.8 25.35 13.1 24.5 15.4 Q22.3 16.6 20.05 17.75 L19.7 12.9 14.05 15.4 10.25 7.75 10.3 7.25 Z" fill="none" stroke="#093db1" stroke-linecap="round" stroke-linejoin="round" stroke-width="1.0"/>
      <path d="M12.2 -1.65 L12.1 -0.7 11.95 1.9 11.95 1.95 11.85 1.8 11.75 2.0 11.8 -1.0 12.2 -1.7 12.2 -1.65 M14.75 6.5 L14.95 6.3 16.55 4.9 19.1 9.45 17.7 13.0 Q16.55 9.7 14.75 6.5 M10.7 4.05 Q8.85 8.05 7.85 12.0 L7.2 9.25 8.6 5.85 8.6 7.15 9.55 5.4 Q10.35 4.15 10.7 4.05" fill="#bfd3ff" fill-rule="evenodd" stroke="none"/>
      <path d="M11.95 1.95 L11.95 1.9 12.1 -0.7 12.2 -1.65 Q14.55 1.45 16.55 4.9 L14.95 6.3 14.75 6.5 11.95 1.95" fill="#ffffff" fill-rule="evenodd" stroke="none"/>
      <path d="M11.8 -1.0 L11.75 2.0 10.7 4.05 Q10.35 4.15 9.55 5.4 L8.6 7.15 8.6 5.85 Q10.15 2.1 11.8 -1.0" fill="#85abff" fill-rule="evenodd" stroke="none"/>
      <path d="M11.95 1.95 L14.75 6.5 Q16.55 9.7 17.7 13.0 L19.1 9.45 16.55 4.9 Q14.55 1.45 12.2 -1.65 L12.2 -1.7 11.8 -1.0 Q10.15 2.1 8.6 5.85 L7.2 9.25 7.85 12.0 Q8.85 8.05 10.7 4.05 L11.75 2.0 11.85 1.8 11.95 1.95 Z" fill="none" stroke="#3650a7" stroke-linecap="round" stroke-linejoin="round" stroke-width="1.0"/>
      <path d="M4.6 15.7 L4.5 15.55 4.85 15.35 Q7.0 14.05 9.3 14.05 L9.35 14.05 9.55 16.15 10.35 17.0 10.65 18.35 9.95 18.05 9.15 17.4 8.55 17.1 8.55 17.2 8.3 17.05 7.9 16.8 7.45 16.55 7.3 16.45 7.15 16.4 7.05 16.35 Q5.7 15.7 4.6 15.7 M9.2 16.25 L9.1 15.95 9.0 15.15 8.6 17.0 9.2 16.25" fill="#ffffff" fill-rule="evenodd" stroke="none"/>
      <path d="M4.6 15.7 Q5.7 15.7 7.05 16.35 L7.15 16.4 7.3 16.45 7.45 16.55 8.0 17.0 8.4 17.85 8.55 20.0 7.5 17.65 4.6 15.7" fill="#afe2ff" fill-rule="evenodd" stroke="none"/>
      <path d="M7.45 16.55 L7.9 16.8 8.3 17.05 8.55 17.2 8.55 17.1 9.15 17.4 9.95 18.05 8.35 17.25 8.4 17.85 8.0 17.0 7.45 16.55 M9.2 16.25 L8.6 17.0 9.0 15.15 9.1 15.95 9.2 16.25" fill="#bfd3ff" fill-rule="evenodd" stroke="none"/>
      <path d="M9.95 18.05 L10.65 18.35 10.7 18.7 10.4 18.6 10.35 18.6 8.6 18.0 8.65 18.65 9.35 20.0 9.75 20.75 9.65 21.05 9.45 21.45 9.55 21.4 9.6 21.4 9.8 21.45 10.35 21.75 10.75 22.15 11.4 22.85 9.2 22.6 8.9 20.8 8.55 20.0 8.4 17.85 8.35 17.25 9.95 18.05" fill="#1584ff" fill-rule="evenodd" stroke="none"/>
      <path d="M10.7 18.7 L10.85 18.75 11.15 19.9 11.45 21.4 11.55 22.85 11.45 22.85 11.4 22.1 10.95 20.3 10.9 20.25 10.7 19.4 10.5 19.25 9.6 18.4 9.6 18.5 9.8 19.45 9.95 20.55 10.0 20.6 9.8 20.9 9.75 21.0 9.55 21.4 9.45 21.45 9.65 21.05 9.75 20.75 9.35 20.0 8.65 18.65 8.6 18.0 10.35 18.6 10.4 18.6 10.7 18.7" fill="#83bdff" fill-rule="evenodd" stroke="none"/>
      <path d="M11.45 22.85 L11.4 22.85 10.75 22.15 10.35 21.75 9.8 21.45 9.6 21.4 9.55 21.4 9.75 21.0 9.8 20.9 10.0 20.6 9.95 20.55 9.8 19.45 9.6 18.5 9.6 18.4 10.5 19.25 10.7 19.4 10.9 20.25 10.95 20.3 11.4 22.1 11.45 22.85" fill="#a6dfff" fill-rule="evenodd" stroke="none"/>
      <path d="M10.65 18.35 L10.35 17.0 9.55 16.15 9.35 14.05 9.3 14.05 Q7.0 14.05 4.85 15.35 L4.5 15.55 4.6 15.7 7.5 17.65 8.55 20.0 8.9 20.8 9.2 22.6 11.4 22.85 11.45 22.85 11.55 22.85 11.45 21.4 11.15 19.9 10.85 18.75 10.7 18.7 10.65 18.35 Z" fill="none" stroke="#3650a7" stroke-linecap="round" stroke-linejoin="round" stroke-width="1.0"/>
      <path d="M4.9 6.05 L4.95 6.1 5.35 6.95 5.45 7.25 5.7 8.0 6.35 8.85 6.75 9.25 6.85 9.4 7.05 9.65 Q7.05 10.85 7.4 13.1 L7.6 14.5 7.65 14.75 7.6 14.9 7.3 16.4 7.25 16.4 Q7.35 15.8 7.05 14.55 L6.8 13.6 6.95 12.1 Q7.0 11.1 6.5 10.3 L6.2 9.85 5.75 9.5 5.6 10.15 5.6 10.7 5.65 11.15 4.75 8.55 4.9 6.05" fill="#85abff" fill-rule="evenodd" stroke="none"/>
      <path d="M4.9 6.05 L4.75 8.55 5.65 11.15 5.6 10.7 5.6 10.15 5.75 9.5 6.2 9.85 6.5 10.3 Q7.0 11.1 6.95 12.1 L6.8 13.6 7.05 14.55 Q7.35 15.8 7.25 16.4 L7.3 16.4 7.6 14.9 7.65 14.75 7.6 14.5 7.4 13.1 Q7.05 10.85 7.05 9.65 L6.85 9.4 6.75 9.25 6.35 8.85 5.7 8.0 5.45 7.25 5.35 6.95 4.95 6.1 4.9 6.05 M4.6 0.3 L5.0 2.05 5.55 7.35 6.3 8.3 6.9 9.1 7.1 9.4 7.15 9.5 7.25 9.55 7.3 9.8 8.0 15.15 9.7 17.4 13.15 20.7 12.95 22.75 Q9.4 20.25 7.2 17.1 L6.1 16.55 Q6.2 14.75 5.5 11.95 L4.65 11.9 4.1 8.2 4.6 0.3" fill="#bfd3ff" fill-rule="evenodd" stroke="none"/>
      <path d="M13.15 20.7 L9.7 17.4 8.0 15.15 7.3 9.8 7.25 9.55 7.15 9.5 7.1 9.4 6.9 9.1 6.3 8.3 5.55 7.35 5.0 2.05 4.6 0.3 4.9 -2.15 Q5.6 2.1 7.0 6.75 L9.1 9.2 9.5 14.55 13.25 20.05 13.15 20.7" fill="#ffffff" fill-rule="evenodd" stroke="none"/>
      <path d="M4.6 0.3 L4.1 8.2 4.65 11.9 5.5 11.95 Q6.2 14.75 6.1 16.55 L7.2 17.1 Q9.4 20.25 12.95 22.75 M13.25 20.05 L9.5 14.55 9.1 9.2 7.0 6.75 Q5.6 2.1 4.9 -2.15 L4.6 0.3" fill="none" stroke="#3650a7" stroke-linecap="round" stroke-linejoin="round" stroke-width="1.0"/>
      <path d="M27.0 -3.75 L27.2 -3.25 27.45 0.85 27.35 2.45 26.4 0.95 25.7 1.6 25.25 2.1 25.35 5.0 25.4 6.05 25.4 6.35 24.65 3.55 24.4 2.95 24.3 2.5 24.95 0.85 26.9 -3.85 27.0 -3.75" fill="#85abff" fill-rule="evenodd" stroke="none"/>
      <path d="M27.0 -3.75 L26.9 -3.85 24.95 0.85 24.3 2.5 24.4 2.95 24.65 3.55 25.4 6.35 25.4 6.05 25.35 5.0 25.25 2.1 25.7 1.6 26.4 0.95 27.35 2.45 27.45 0.85 27.2 -3.25 27.0 -3.75 M11.95 21.05 L16.1 18.25 Q18.45 16.45 20.5 13.6 L21.05 13.75 21.35 13.85 Q22.7 9.6 23.25 6.8 L23.7 6.9 24.45 7.05 23.9 3.45 23.8 2.55 24.1 1.9 24.8 0.35 26.7 -4.2 26.95 -5.3 27.0 -4.45 27.05 -4.2 27.05 -4.0 27.2 -4.3 Q27.4 -5.1 28.25 -5.7 27.9 -0.75 27.7 4.65 L26.15 9.2 24.5 9.25 Q22.8 12.75 22.85 15.0 L20.65 15.7 Q15.75 19.25 13.05 22.6 L11.95 21.05 M23.35 5.85 L23.15 5.65 20.85 13.05 20.75 13.1 Q20.6 12.65 19.45 11.75 L18.6 11.05 19.65 6.55 23.35 3.9 Q23.7 6.1 24.0 6.4 L24.0 6.5 23.35 5.85" fill="#bfd3ff" fill-rule="evenodd" stroke="none"/>
      <path d="M28.25 -5.7 Q27.4 -5.1 27.2 -4.3 L27.05 -4.0 27.05 -4.2 27.0 -4.45 26.95 -5.3 26.7 -4.2 24.8 0.35 24.1 1.9 23.8 2.55 23.9 3.45 24.45 7.05 23.7 6.9 23.25 6.8 Q22.7 9.6 21.35 13.85 L21.05 13.75 20.5 13.6 Q18.45 16.45 16.1 18.25 L11.95 21.05 11.45 20.25 16.3 12.5 Q17.25 9.8 17.75 5.85 L22.2 2.8 Q25.35 -3.0 27.95 -11.05 L28.25 -5.7 M23.35 5.85 L24.0 6.5 24.0 6.4 Q23.7 6.1 23.35 3.9 L19.65 6.55 18.6 11.05 19.45 11.75 Q20.6 12.65 20.75 13.1 L20.85 13.05 23.15 5.65 23.35 5.85" fill="#ffffff" fill-rule="evenodd" stroke="none"/>
      <path d="M28.25 -5.7 L27.95 -11.05 Q25.35 -3.0 22.2 2.8 L17.75 5.85 Q17.25 9.8 16.3 12.5 L11.45 20.25 11.95 21.05 13.05 22.6 Q15.75 19.25 20.65 15.7 L22.85 15.0 Q22.8 12.75 24.5 9.25 L26.15 9.2 27.7 4.65 Q27.9 -0.75 28.25 -5.7 Z" fill="none" stroke="#3650a7" stroke-linecap="round" stroke-linejoin="round" stroke-width="1.0"/>
      <path d="M42.5 37.35 L43.1 39.2 36.2 37.8 31.6 30.95 31.3 28.9 27.0 26.45 27.7 25.75 32.75 28.5 32.6 30.75 36.5 36.0 42.5 37.35" fill="#153580" fill-rule="evenodd" stroke="none"/>
      <path d="M42.5 37.35 L36.5 36.0 32.6 30.75 32.75 28.5 27.7 25.75 27.0 26.45 31.3 28.9 31.6 30.95 36.2 37.8 43.1 39.2 42.5 37.35 Z" fill="none" stroke="#3650a7" stroke-linecap="round" stroke-linejoin="round" stroke-width="0.5"/>
      <path d="M12.0 32.5 L17.0 29.65 17.2 30.55 Q16.25 32.3 13.65 33.7 L12.3 34.4 12.2 34.05 12.0 32.5 M10.0 33.65 L11.75 32.65 11.95 34.25 11.95 34.6 11.9 34.6 Q11.45 34.65 10.85 35.1 L9.6 35.65 9.95 33.9 10.0 33.65" fill="#ffffff" fill-rule="evenodd" stroke="none"/>
      <path d="M23.4 28.75 L27.45 26.8 28.4 27.6 17.35 33.9 23.4 28.75 M12.4 35.05 L9.35 37.1 8.4 32.55 7.35 33.75 6.45 29.1 7.35 28.7 7.85 31.2 8.8 29.4 Q9.0 30.85 9.9 33.7 L10.0 33.65 9.95 33.9 9.6 35.65 9.55 36.45 9.6 36.45 10.65 35.3 10.85 35.1 Q11.45 34.65 11.9 34.6 L11.95 34.6 11.95 34.25 11.75 32.65 12.0 32.5 12.2 34.05 12.3 34.4 12.4 35.05" fill="#ffce83" fill-rule="evenodd" stroke="none"/>
      <path d="M17.2 30.55 L17.4 31.75 23.4 28.75 17.35 33.9 16.0 34.65 16.0 32.55 12.4 35.05 12.3 34.4 13.65 33.7 Q16.25 32.3 17.2 30.55 M10.85 35.1 L10.65 35.3 9.6 36.45 9.55 36.45 9.6 35.65 10.85 35.1" fill="#fffab8" fill-rule="evenodd" stroke="none"/>
      <path d="M12.0 32.5 L17.0 29.65 17.2 30.55 17.4 31.75 23.4 28.75 27.45 26.8 28.4 27.6 17.35 33.9 16.0 34.65 16.0 32.55 12.4 35.05 9.35 37.1 8.4 32.55 7.35 33.75 6.45 29.1 7.35 28.7 7.85 31.2 8.8 29.4 Q9.0 30.85 9.9 33.7 L10.0 33.65 11.75 32.65 12.0 32.5 Z" fill="none" stroke="#a13722" stroke-linecap="round" stroke-linejoin="round" stroke-width="0.5"/>
      <path d="M26.1 28.9 L27.05 27.65 29.85 27.6 30.5 28.85 27.9 30.95 28.15 35.65 23.05 37.85 25.15 36.65 27.45 35.3 Q27.55 35.2 27.6 35.2 L27.4 31.0 26.1 28.9" fill="#ffce83" fill-rule="evenodd" stroke="none"/>
      <path d="M25.65 29.45 L26.1 28.9 27.4 31.0 27.6 35.2 Q27.55 35.2 27.45 35.3 26.6 31.8 25.65 29.45" fill="#fffab8" fill-rule="evenodd" stroke="none"/>
      <path d="M27.45 35.3 L25.15 36.65 23.05 37.85 25.55 35.0 25.35 29.9 25.65 29.45 Q26.6 31.8 27.45 35.3" fill="#ffffff" fill-rule="evenodd" stroke="none"/>
      <path d="M26.1 28.9 L27.05 27.65 26.7 27.65 M25.65 29.45 L26.1 28.9 M23.05 37.85 L28.15 35.65 27.9 30.95 30.5 28.85 29.85 27.6 27.05 27.65 M29.85 27.6 L29.65 27.2 M23.05 37.85 L25.55 35.0 25.35 29.9 25.65 29.45" fill="none" stroke="#a13722" stroke-linecap="round" stroke-linejoin="round" stroke-width="0.5"/>
      <path d="M29.15 24.5 L27.05 24.4 24.6 27.75 25.85 26.85 30.35 28.0 40.0 30.35 42.05 31.6 41.4 30.5 40.0 28.25 40.85 28.35 43.45 30.85 43.95 33.55 38.35 31.2 26.0 27.85 24.1 29.2 24.35 26.85 26.15 23.15 28.55 22.85 28.85 23.6 29.1 24.3 29.15 24.5" fill="#bfd3ff" fill-rule="evenodd" stroke="none"/>
      <path d="M40.85 28.35 L40.0 28.25 36.25 27.75 33.8 26.75 33.7 25.8 34.0 25.85 35.35 26.15 35.5 26.2 35.55 25.75 35.8 24.65 36.15 23.0 35.3 21.4 34.3 21.9 34.15 22.0 Q33.55 22.25 33.2 22.45 L32.95 22.6 33.2 22.4 34.2 21.35 34.3 21.3 34.55 20.9 35.1 20.45 35.65 20.35 34.85 21.05 34.35 21.45 34.45 21.45 36.2 21.65 36.9 22.1 36.9 22.05 36.2 21.6 36.05 21.55 Q35.9 21.5 35.85 21.25 L35.85 20.85 Q36.0 20.5 36.75 20.45 37.1 20.45 37.8 21.65 L37.7 21.1 37.2 20.1 36.95 19.15 36.95 19.1 36.1 19.9 36.05 19.5 37.4 18.3 38.0 21.05 40.6 28.1 40.85 28.35 M37.7 24.6 L37.95 25.3 37.65 25.4 37.3 25.5 36.8 24.1 36.7 24.0 36.5 25.35 36.45 25.95 37.95 26.4 38.0 26.45 39.2 27.05 39.75 27.4 39.65 27.1 38.2 23.85 37.0 22.75 36.9 22.75 37.1 23.4 37.7 24.6" fill="#0e59ff" fill-rule="evenodd" stroke="none"/>
      <path d="M40.0 28.25 L41.4 30.5 42.05 31.6 40.0 30.35 30.35 28.0 25.85 26.85 24.6 27.75 27.05 24.4 29.15 24.5 29.25 24.7 29.25 24.8 30.7 25.45 33.8 26.75 36.25 27.75 40.0 28.25 M36.05 19.5 L36.1 19.9 35.65 20.35 35.1 20.45 35.05 20.45 35.0 20.3 Q34.8 19.35 35.95 19.3 L36.05 19.5 M35.15 21.55 L35.25 21.65 Q36.4 23.2 35.3 23.85 L35.2 23.75 Q34.6 22.5 35.15 21.55" fill="#ffffff" fill-rule="evenodd" stroke="none"/>
      <path d="M29.15 24.5 L29.1 24.3 28.85 23.6 28.55 22.85 28.75 22.75 28.8 22.05 29.2 21.8 29.5 22.35 30.5 21.85 32.35 21.2 32.7 21.25 32.45 21.7 32.0 22.55 31.6 22.45 31.0 22.35 29.85 24.0 29.25 24.7 29.15 24.5 M33.8 26.75 L30.7 25.45 30.95 24.6 31.35 23.75 31.7 23.7 32.8 23.8 33.5 23.9 Q34.55 25.6 35.35 26.15 L34.0 25.85 33.7 25.8 33.8 26.75" fill="#1584ff" fill-rule="evenodd" stroke="none"/>
      <path d="M30.7 25.45 L29.25 24.8 29.25 24.7 29.85 24.0 31.0 22.35 31.6 22.45 32.0 22.55 32.45 21.7 32.7 21.25 32.35 21.2 30.5 21.85 29.5 22.35 29.2 21.8 Q30.7 20.9 32.4 20.15 L33.15 20.4 34.2 20.85 34.55 20.9 34.3 21.3 34.2 21.35 33.2 22.4 32.95 22.6 33.2 22.45 Q33.55 22.25 34.15 22.0 L34.15 22.1 33.75 23.35 34.3 24.05 35.55 25.75 35.5 26.2 35.35 26.15 Q34.55 25.6 33.5 23.9 L32.8 23.8 31.7 23.7 31.35 23.75 30.95 24.6 30.7 25.45" fill="#83bdff" fill-rule="evenodd" stroke="none"/>
      <path d="M37.4 18.3 L36.05 19.5 35.95 19.3 Q34.8 19.35 35.0 20.3 L35.05 20.45 35.1 20.45 34.55 20.9 34.2 20.85 33.15 20.4 32.4 20.15 35.1 19.0 37.4 18.2 37.4 18.3 M34.15 22.0 L34.3 21.9 35.3 21.4 36.15 23.0 35.8 24.65 35.55 25.75 34.3 24.05 33.75 23.35 34.15 22.1 34.15 22.0 M35.15 21.55 Q34.6 22.5 35.2 23.75 L35.3 23.85 Q36.4 23.2 35.25 21.65 L35.15 21.55" fill="#a6dfff" fill-rule="evenodd" stroke="none"/>
      <path d="M36.1 19.9 L36.95 19.1 36.95 19.15 37.2 20.1 37.7 21.1 37.8 21.65 Q37.1 20.45 36.75 20.45 36.0 20.5 35.85 20.85 L35.85 21.25 Q35.9 21.5 36.05 21.55 L36.2 21.6 36.9 22.05 36.9 22.1 36.2 21.65 34.45 21.45 34.35 21.45 34.85 21.05 35.65 20.35 36.1 19.9 M37.7 24.6 L37.1 23.4 36.9 22.75 37.0 22.75 38.2 23.85 39.65 27.1 39.75 27.4 39.2 27.05 38.0 26.45 37.95 26.4 36.45 25.95 36.5 25.35 36.7 24.0 36.8 24.1 37.3 25.5 37.65 25.4 37.95 25.3 37.7 24.6" fill="#0342cd" fill-rule="evenodd" stroke="none"/>
      <path d="M28.55 22.85 L26.15 23.15 24.35 26.85 24.1 29.2 26.0 27.85 38.35 31.2 43.95 33.55 43.45 30.85 40.85 28.35 40.6 28.1 38.0 21.05 37.4 18.3 37.4 18.2 35.1 19.0 32.4 20.15 Q30.7 20.9 29.2 21.8 L28.8 22.05 28.75 22.75 28.55 22.85 Z" fill="none" stroke="#3650a7" stroke-linecap="round" stroke-linejoin="round" stroke-width="1.0"/>
      <path d="M2.1 35.4 L3.75 30.7 3.0 28.6 3.75 27.35 5.25 27.4 5.5 29.6 3.75 34.75 4.25 37.65 2.1 35.4" fill="#ffce83" fill-rule="evenodd" stroke="none"/>
      <path d="M2.1 35.4 L4.25 37.65 3.75 34.75 5.5 29.6 5.25 27.4 3.75 27.35 3.0 28.6 3.75 30.7 2.1 35.4 M3.75 27.35 L4.0 26.9" fill="none" stroke="#a13722" stroke-linecap="round" stroke-linejoin="round" stroke-width="0.5"/>
      <path d="M14.6 23.55 L17.6 23.05 16.5 23.6 14.6 23.55" fill="#0e59ff" fill-rule="evenodd" stroke="none"/>
      <path d="M11.5 8.0 L14.15 13.8 14.2 13.8 14.15 14.5 14.1 15.45 14.05 15.75 14.05 16.1 13.3 17.5 13.1 17.75 13.55 15.2 13.6 15.1 13.65 14.75 13.75 14.3 13.8 14.05 13.65 14.25 13.4 14.55 13.1 14.95 13.0 15.0 13.0 15.05 12.0 16.1 11.5 16.6 11.3 16.8 11.15 16.9 11.1 14.85 11.15 15.0 11.15 14.15 11.15 14.0 Q11.2 13.4 11.5 13.2 L11.8 14.05 11.85 14.4 11.9 15.2 12.0 15.2 12.45 14.65 13.15 14.0 13.2 13.9 13.55 13.5 12.35 11.0 11.4 8.75 11.5 8.0" fill="#83bdff" fill-rule="evenodd" stroke="none"/>
      <path d="M10.2 7.1 L10.35 6.25 10.5 5.75 11.5 8.0 11.4 8.75 12.35 11.0 13.55 13.5 13.2 13.9 13.15 14.0 12.45 14.65 12.0 15.2 11.9 15.2 11.85 14.4 11.8 14.05 11.5 13.2 Q11.2 13.4 11.15 14.0 L11.15 14.15 11.15 15.0 11.1 14.85 11.15 16.9 11.05 17.0 10.95 16.65 10.75 15.3 10.6 13.9 10.35 11.5 10.35 11.15 10.2 7.1 M14.2 13.8 L18.55 11.3 18.3 12.1 16.45 14.35 15.9 14.85 15.6 15.15 15.35 15.4 14.9 15.85 13.55 17.3 13.3 17.5 14.05 16.1 14.05 15.75 14.1 15.45 14.15 14.5 14.2 13.8 M10.5 11.1 Q10.65 11.7 11.1 11.5 L11.25 11.3 Q11.4 10.25 10.85 9.45 L10.75 9.3 Q10.15 10.05 10.5 11.1 M16.05 14.0 L16.05 14.05 Q17.1 13.9 17.25 12.75 L17.25 12.7 Q16.2 12.95 16.05 14.0" fill="#a6dfff" fill-rule="evenodd" stroke="none"/>
      <path d="M10.5 11.1 Q10.15 10.05 10.75 9.3 L10.85 9.45 Q11.4 10.25 11.25 11.3 L11.1 11.5 Q10.65 11.7 10.5 11.1 M16.05 14.0 Q16.2 12.95 17.25 12.7 L17.25 12.75 Q17.1 13.9 16.05 14.05 L16.05 14.0" fill="#ffffff" fill-rule="evenodd" stroke="none"/>
      <path d="M9.1 14.2 L9.2 14.25 Q9.4 10.75 10.2 7.1 L10.35 11.15 10.35 11.5 10.6 13.9 10.75 15.3 10.95 16.65 10.9 16.45 10.85 16.2 10.85 16.05 10.45 13.9 10.4 13.65 10.25 12.75 10.2 12.75 10.1 13.85 9.7 16.35 9.65 16.15 9.5 15.6 9.1 14.2 M11.05 17.0 L11.15 16.9 11.3 16.8 11.5 16.6 12.0 16.1 13.0 15.05 13.0 15.0 13.1 14.95 13.4 14.55 13.65 14.25 13.8 14.05 13.75 14.3 13.65 14.75 13.6 15.1 13.55 15.2 13.1 17.75 13.3 17.5 13.55 17.3 15.0 15.95 15.05 15.9 15.9 15.15 16.35 14.6 13.75 18.7 11.9 20.5 11.75 20.35 10.35 18.7 9.4 17.35 9.2 16.8 9.2 16.75 9.55 17.2 10.35 18.05 9.95 17.0 10.4 17.8 11.7 20.25 11.2 17.55 11.15 17.5 11.05 17.0 M12.05 18.3 Q12.1 17.5 12.5 17.5 L12.7 17.55 12.95 17.8 13.05 15.4 11.55 17.15 11.95 19.75 12.05 18.3" fill="#1584ff" fill-rule="evenodd" stroke="none"/>
      <path d="M18.3 12.1 L18.1 12.6 Q17.05 15.55 15.55 18.0 L12.2 21.7 10.75 20.15 9.3 18.3 7.9 15.7 7.5 14.7 Q7.05 13.6 6.9 12.55 L9.1 14.2 9.5 15.6 9.65 16.15 9.7 16.35 10.1 13.85 10.2 12.75 10.25 12.75 10.4 13.65 10.45 13.9 10.85 16.05 10.85 16.2 10.9 16.45 10.95 16.65 11.05 17.0 11.15 17.5 11.2 17.55 11.7 20.25 10.4 17.8 9.95 17.0 10.35 18.05 9.55 17.2 9.2 16.75 9.2 16.8 9.4 17.35 10.35 18.7 11.75 20.35 11.9 20.5 13.75 18.7 16.35 14.6 15.9 15.15 15.05 15.9 15.0 15.95 13.55 17.3 14.9 15.85 15.35 15.4 15.6 15.15 15.9 14.85 16.45 14.35 18.3 12.1 M12.05 18.3 L11.95 19.75 11.55 17.15 13.05 15.4 12.95 17.8 12.7 17.55 12.5 17.5 Q12.1 17.5 12.05 18.3" fill="#0e59ff" fill-rule="evenodd" stroke="none"/>
      <path d="M10.2 7.1 L10.35 6.25 10.5 5.75 11.5 8.0 14.15 13.8 14.2 13.8 18.55 11.3 18.3 12.1 18.1 12.6 Q17.05 15.55 15.55 18.0 L12.2 21.7 10.75 20.15 9.3 18.3 7.9 15.7 7.5 14.7 Q7.05 13.6 6.9 12.55 L9.1 14.2 9.2 14.25 Q9.4 10.75 10.2 7.1 Z" fill="none" stroke="#0049c9" stroke-linecap="round" stroke-linejoin="round" stroke-width="0.5"/>
    </g>
    <g id="sprite4" transform="matrix(1.0, 0.0, 0.0, 1.0, 0.25, 0.25)">
      <use ffdec:characterId="6" height="29.85" transform="matrix(1.0, 0.0, 0.0, 1.0, -0.25, -0.25)" width="22.0" xlink:href="#shape4"/>
    </g>
    <g id="shape4" transform="matrix(1.0, 0.0, 0.0, 1.0, 0.25, 0.25)">
      <path d="M17.45 15.5 L21.5 12.5 Q21.15 14.4 20.4 16.45 L19.65 18.3 17.1 23.1 14.4 26.5 11.65 29.35 5.55 22.55 Q2.85 18.0 0.85 12.6 L0.5 11.65 Q2.05 14.1 3.9 15.85 L4.9 16.75 5.5 17.25 5.95 17.75 6.7 18.55 9.2 21.25 6.55 18.8 6.4 18.7 4.95 17.25 4.05 16.3 Q7.0 21.5 8.85 23.8 10.6 26.0 12.3 27.15 L12.6 26.85 15.15 23.8 16.9 21.3 17.25 20.3 16.55 21.1 15.15 22.6 15.85 20.7 15.05 22.2 12.65 26.65 13.55 21.7 13.6 21.6 13.8 20.7 13.85 20.7 14.0 20.0 14.1 19.65 14.2 19.25 14.2 18.95 15.0 14.95 15.05 14.55 15.3 12.85 15.4 12.85 15.6 14.85 16.25 19.5 16.4 19.1 16.7 18.15 17.45 15.5 M10.8 21.7 L10.4 22.15 10.15 17.75 12.9 20.95 12.2 25.85 12.2 25.75 12.05 23.1 Q11.85 21.65 11.15 21.65 L10.8 21.7" fill="#0e59ff" fill-rule="evenodd" stroke="none"/>
      <path d="M0.5 11.65 L0.0 10.2 8.05 14.75 8.15 16.05 8.15 16.1 8.25 17.8 8.3 18.35 8.3 19.05 9.65 21.65 9.2 21.25 6.7 18.55 5.95 17.75 5.5 17.25 4.9 16.75 3.9 15.85 Q2.05 14.1 0.5 11.65 M13.0 4.15 L14.9 0.0 15.1 0.9 15.45 2.5 15.15 9.95 15.1 10.6 14.7 15.0 14.4 17.55 14.0 20.0 13.85 20.7 13.8 20.7 13.65 20.5 13.7 16.75 13.65 17.05 13.65 17.0 13.6 15.4 13.6 15.2 Q13.55 14.05 13.0 13.65 L12.5 15.3 12.4 15.9 Q12.15 16.8 12.25 17.35 L12.15 17.35 11.25 16.4 10.0 15.15 9.9 15.0 9.2 14.25 11.4 9.6 13.2 5.5 13.0 4.15 M13.75 10.6 Q14.55 10.95 14.9 9.85 15.55 7.9 14.35 6.55 L14.15 6.8 Q13.2 8.25 13.5 10.2 L13.75 10.6 M4.6 15.3 L4.6 15.15 Q4.35 13.2 2.4 12.8 2.3 12.8 2.35 12.9 2.7 14.95 4.6 15.3" fill="#a6dfff" fill-rule="evenodd" stroke="none"/>
      <path d="M8.05 14.75 L8.15 14.8 13.0 4.15 13.2 5.5 11.4 9.6 9.2 14.25 9.9 15.0 10.0 15.15 11.25 16.4 12.15 17.35 12.25 17.35 Q12.15 16.8 12.4 15.9 L12.5 15.3 13.0 13.65 Q13.55 14.05 13.6 15.2 L13.6 15.4 13.65 17.0 13.65 17.05 13.7 16.75 13.65 20.5 13.4 20.3 13.05 19.95 12.15 19.05 10.3 17.1 10.25 17.05 10.1 16.95 9.45 16.2 9.0 15.6 8.75 15.3 8.85 15.7 9.0 16.5 9.15 17.15 9.2 17.35 10.1 22.05 9.65 21.65 8.3 19.05 8.3 18.35 8.25 17.8 8.15 16.1 8.15 16.05 8.05 14.75" fill="#83bdff" fill-rule="evenodd" stroke="none"/>
      <path d="M13.75 10.6 L13.5 10.2 Q13.2 8.25 14.15 6.8 L14.35 6.55 Q15.55 7.9 14.9 9.85 14.55 10.95 13.75 10.6 M4.6 15.3 Q2.7 14.95 2.35 12.9 2.3 12.8 2.4 12.8 4.35 13.2 4.6 15.15 L4.6 15.3" fill="#ffffff" fill-rule="evenodd" stroke="none"/>
      <path d="M15.45 2.5 Q16.85 9.2 17.25 15.65 L17.45 15.5 16.7 18.15 16.4 19.1 16.25 19.5 15.6 14.85 15.4 12.85 15.3 12.85 15.05 14.55 15.0 14.95 14.2 18.95 14.2 19.25 14.1 19.65 14.0 20.0 14.4 17.55 14.7 15.0 15.1 10.6 15.15 9.95 15.45 2.5 M13.8 20.7 L13.6 21.6 13.55 21.7 12.65 26.65 15.05 22.2 15.85 20.7 15.15 22.6 16.55 21.1 17.25 20.3 16.9 21.3 15.15 23.8 12.6 26.85 12.3 27.15 Q10.6 26.0 8.85 23.8 7.0 21.5 4.05 16.3 L4.95 17.25 6.4 18.7 6.55 18.8 9.2 21.25 9.65 21.65 10.1 22.05 9.2 17.35 9.15 17.15 9.0 16.5 8.85 15.7 8.75 15.3 9.0 15.6 9.45 16.2 10.1 16.95 10.25 17.05 10.3 17.1 12.15 19.05 13.05 19.95 13.4 20.3 13.65 20.5 13.8 20.7 M10.8 21.7 L11.15 21.65 Q11.85 21.65 12.05 23.1 L12.2 25.75 12.2 25.85 12.9 20.95 10.15 17.75 10.4 22.15 10.8 21.7" fill="#1584ff" fill-rule="evenodd" stroke="none"/>
      <path d="M17.45 15.5 L21.5 12.5 Q21.15 14.4 20.4 16.45 L19.65 18.3 17.1 23.1 14.4 26.5 11.65 29.35 5.55 22.55 Q2.85 18.0 0.85 12.6 L0.5 11.65 0.0 10.2 8.05 14.75 8.15 14.8 13.0 4.15 14.9 0.0 15.1 0.9 15.45 2.5 Q16.85 9.2 17.25 15.65 L17.45 15.5 Z" fill="none" stroke="#0049c9" stroke-linecap="round" stroke-linejoin="round" stroke-width="0.5"/>
    </g>
    <g id="shape5" transform="matrix(1.0, 0.0, 0.0, 1.0, -18.55, -12.95)">
      <path d="M26.0 15.35 L25.8 15.7 25.85 15.7 27.25 16.4 26.4 14.55 26.0 15.35 M22.0 17.75 L22.8 16.4 25.0 15.55 25.65 13.45 25.85 13.45 Q31.55 13.45 36.75 14.8 L37.6 15.0 37.2 15.1 31.0 15.8 30.85 15.8 30.75 15.85 30.65 15.9 28.9 16.25 27.85 16.45 27.35 16.6 27.3 16.5 25.75 16.85 23.75 17.45 22.0 17.75 M19.6 22.25 L19.35 22.25 19.7 21.55 Q19.95 20.9 20.95 19.75 L21.0 19.75 21.65 19.15 21.1 20.2 20.55 21.4 20.6 21.4 21.65 20.8 Q22.55 20.4 23.05 20.35 L22.95 20.35 22.7 20.25 22.55 19.95 22.8 19.35 22.85 19.2 24.45 17.95 24.0 18.9 23.4 19.95 23.3 20.05 23.75 20.35 23.8 20.4 24.15 20.85 23.6 20.85 22.2 21.15 21.2 21.55 19.6 22.25" fill="#ffffff" fill-rule="evenodd" stroke="none"/>
      <path d="M26.0 15.35 L26.4 14.55 27.25 16.4 25.85 15.7 25.8 15.7 26.0 15.35 M23.75 17.45 L25.75 16.85 27.3 16.5 27.35 16.6 27.85 16.45 28.9 16.25 30.65 15.9 30.55 15.9 28.65 16.4 27.6 17.25 27.8 16.65 23.75 17.45" fill="#bfd3ff" fill-rule="evenodd" stroke="none"/>
      <path d="M27.0 19.45 L26.0 20.25 25.0 22.05 19.6 22.25 21.2 21.55 22.2 21.15 23.6 20.85 24.15 20.85 24.3 20.85 24.55 20.85 24.1 20.5 23.85 20.2 25.0 19.45 26.85 18.1 27.0 17.45 22.55 18.0 21.8 18.15 22.0 17.75 23.75 17.45 27.8 16.65 27.6 17.25 27.0 19.45" fill="#1584ff" fill-rule="evenodd" stroke="none"/>
      <path d="M19.35 22.25 L19.05 22.25 19.7 20.85 20.55 19.3 21.35 18.2 21.8 18.15 22.55 18.0 27.0 17.45 26.85 18.1 25.0 19.45 23.85 20.2 24.1 20.5 24.55 20.85 24.3 20.85 23.8 20.4 23.75 20.35 23.3 20.05 23.4 19.95 24.0 18.9 24.45 17.95 24.5 17.85 22.2 18.65 21.7 18.85 21.0 19.65 21.0 19.75 20.95 19.75 Q19.95 20.9 19.7 21.55 L19.35 22.25" fill="#83bdff" fill-rule="evenodd" stroke="none"/>
      <path d="M37.2 15.1 L29.8 17.1 27.0 19.45 27.6 17.25 28.65 16.4 30.55 15.9 30.65 15.9 30.75 15.85 30.85 15.8 31.0 15.8 37.2 15.1" fill="#afe2ff" fill-rule="evenodd" stroke="none"/>
      <path d="M24.3 20.85 L24.15 20.85 23.8 20.4 24.3 20.85 M21.0 19.75 L21.0 19.65 21.7 18.85 22.2 18.65 24.5 17.85 24.45 17.95 22.85 19.2 22.8 19.35 22.55 19.95 22.7 20.25 22.95 20.35 23.05 20.35 Q22.55 20.4 21.65 20.8 L20.6 21.4 20.55 21.4 21.1 20.2 21.65 19.15 21.0 19.75" fill="#a6dfff" fill-rule="evenodd" stroke="none"/>
      <path d="M22.0 17.75 L22.8 16.4 25.0 15.55 25.65 13.45 25.85 13.45 Q31.55 13.45 36.75 14.8 L37.6 15.0 37.2 15.1 29.8 17.1 27.0 19.45 26.0 20.25 25.0 22.05 19.6 22.25 19.35 22.25 19.05 22.25 19.7 20.85 20.55 19.3 21.35 18.2 21.8 18.15 22.0 17.75 Z" fill="none" stroke="#3650a7" stroke-linecap="round" stroke-linejoin="round" stroke-width="1.0"/>
    </g>
    <g id="sprite5" transform="matrix(1.0, 0.0, 0.0, 1.0, 0.5, 0.5)">
      <use ffdec:characterId="9" height="19.7" transform="matrix(1.0, 0.0, 0.0, 1.0, -0.5, -0.5)" width="20.85" xlink:href="#shape6"/>
    </g>
    <g id="shape6" transform="matrix(1.0, 0.0, 0.0, 1.0, 0.5, 0.5)">
      <path d="M18.15 5.75 L19.05 6.15 19.5 7.45 19.85 7.55 19.7 9.05 19.6 10.3 19.55 11.0 18.05 9.75 15.1 6.9 14.1 7.15 13.4 7.35 12.15 5.9 11.35 5.05 12.1 4.95 15.75 5.95 17.9 6.75 18.15 5.75 M9.1 14.25 Q10.25 13.2 11.3 9.95 L12.55 9.7 14.5 9.45 15.2 9.5 16.35 10.95 17.2 12.45 12.2 15.1 11.85 13.4 11.35 13.55 9.1 14.25" fill="#1584ff" fill-rule="evenodd" stroke="none"/>
      <path d="M18.15 5.75 L17.9 6.75 15.75 5.95 12.1 4.95 11.35 5.05 12.15 5.9 13.4 7.35 14.1 7.15 15.1 6.9 18.05 9.75 19.55 11.0 19.55 11.15 17.2 12.45 16.35 10.95 15.2 9.5 14.5 9.45 12.55 9.7 11.3 9.95 Q10.25 13.2 9.1 14.25 L8.8 14.35 8.4 13.5 9.9 10.35 10.55 9.0 9.25 6.75 9.15 6.55 11.15 7.35 11.6 7.55 11.15 7.25 8.7 5.35 8.55 5.25 7.85 4.7 8.45 4.45 10.2 3.6 11.45 3.05 Q14.9 4.25 18.15 5.75" fill="#83bdff" fill-rule="evenodd" stroke="none"/>
      <path d="M11.45 3.05 L10.2 3.6 8.45 4.45 7.85 4.7 6.65 3.8 6.75 3.8 6.75 3.6 Q6.65 1.85 4.45 1.9 L4.4 2.2 1.25 0.15 1.25 0.0 5.95 1.25 11.45 3.05 M9.15 6.55 L9.25 6.75 10.55 9.0 9.9 10.35 8.4 13.5 7.45 11.55 5.95 8.55 6.7 5.6 8.8 6.4 9.15 6.55 M7.1 5.9 L6.95 6.05 Q5.6 8.95 7.95 10.05 L8.05 9.85 Q8.6 7.5 7.1 5.9" fill="#a6dfff" fill-rule="evenodd" stroke="none"/>
      <path d="M1.25 0.15 L4.4 2.2 4.5 2.95 2.55 1.55 2.6 1.65 2.6 3.45 2.2 5.3 2.2 6.3 Q2.9 4.05 3.6 4.05 4.95 4.05 5.45 4.65 L5.65 5.35 5.4 5.95 5.2 6.05 Q4.7 6.3 4.1 6.9 L4.1 7.05 5.15 6.15 Q6.65 5.15 8.3 5.6 L8.45 5.6 7.35 4.9 5.6 3.7 6.65 3.8 7.85 4.7 8.55 5.25 8.7 5.35 11.15 7.25 11.6 7.55 11.15 7.35 9.15 6.55 8.8 6.4 6.7 5.6 5.95 8.55 7.45 11.55 8.4 13.5 8.8 14.35 9.1 14.25 11.35 13.55 11.85 13.4 12.2 15.1 8.15 17.25 0.0 18.7 0.3 18.25 1.55 5.25 1.25 0.15 M3.9 11.6 Q3.85 10.8 4.45 9.45 L4.45 8.25 4.3 8.25 2.6 10.3 1.55 16.35 1.55 17.0 Q2.25 16.0 4.3 15.0 L4.35 14.95 Q6.05 14.1 6.95 14.0 L6.5 12.95 5.5 10.5 5.3 10.65 5.15 13.2 4.4 13.1 3.8 12.9 3.9 11.6" fill="#0e59ff" fill-rule="evenodd" stroke="none"/>
      <path d="M4.4 2.2 L4.45 1.9 Q6.65 1.85 6.75 3.6 L6.75 3.8 6.65 3.8 5.6 3.7 4.5 2.95 4.4 2.2 M7.1 5.9 Q8.6 7.5 8.05 9.85 L7.95 10.05 Q5.6 8.95 6.95 6.05 L7.1 5.9" fill="#ffffff" fill-rule="evenodd" stroke="none"/>
      <path d="M5.6 3.7 L7.35 4.9 8.45 5.6 8.3 5.6 Q6.65 5.15 5.15 6.15 L4.1 7.05 4.1 6.9 Q4.7 6.3 5.2 6.05 L5.4 5.95 5.65 5.35 5.45 4.65 Q4.95 4.05 3.6 4.05 2.9 4.05 2.2 6.3 L2.2 5.3 2.6 3.45 2.6 1.65 2.55 1.55 4.5 2.95 5.6 3.7 M3.9 11.6 L3.8 12.9 4.4 13.1 5.15 13.2 5.3 10.65 5.5 10.5 6.5 12.95 6.95 14.0 Q6.05 14.1 4.35 14.95 L4.3 15.0 Q2.25 16.0 1.55 17.0 L1.55 16.35 2.6 10.3 4.3 8.25 4.45 8.25 4.45 9.45 Q3.85 10.8 3.9 11.6" fill="#0342cd" fill-rule="evenodd" stroke="none"/>
      <path d="M19.85 7.55 L19.5 7.45 19.05 6.15 18.15 5.75 Q14.9 4.25 11.45 3.05 L5.95 1.25 1.25 0.0 1.25 0.15 1.55 5.25 0.3 18.25 0.0 18.7" fill="none" stroke="#3650a7" stroke-linecap="round" stroke-linejoin="round" stroke-width="1.0"/>
    </g>
    <g id="shape7" transform="matrix(1.0, 0.0, 0.0, 1.0, 2.95, -21.25)">
      <path d="M4.75 21.8 L4.75 21.75 5.95 22.2 7.25 23.0 6.75 23.2 6.05 23.55 Q5.9 23.6 5.85 23.7 L5.6 23.3 5.7 23.2 Q6.05 22.5 5.35 22.5 L5.25 22.65 4.75 21.8 M5.8 24.45 L5.8 24.55 5.75 25.5 5.25 26.0 4.15 27.35 4.25 26.55 4.45 25.3 5.3 24.05 5.75 24.4 5.8 24.45 M5.3 24.2 L5.25 24.25 Q4.25 25.45 4.75 25.9 L4.8 25.85 Q5.45 24.85 5.3 24.2" fill="#a6dfff" fill-rule="evenodd" stroke="none"/>
      <path d="M5.3 23.3 L5.6 23.75 5.8 24.05 5.75 24.05 4.8 24.2 5.0 23.95 5.1 23.65 Q5.1 23.4 4.65 23.4 4.45 23.4 3.7 24.35 L4.85 22.4 5.15 22.95 5.3 23.3 M4.7 24.3 Q4.45 24.4 4.2 24.65 L4.2 24.6 Q4.5 24.35 4.7 24.25 L4.75 24.25 4.7 24.3 M4.0 25.15 L3.75 25.65 Q3.3 26.2 3.2 26.55 L2.9 27.1 3.0 27.2 3.25 27.2 3.8 26.15 3.9 26.1 3.7 27.1 3.6 27.5 2.6 27.95 2.6 28.0 1.7 28.5 1.35 28.75 1.45 28.5 3.0 26.0 3.95 25.15 4.0 25.15" fill="#0342cd" fill-rule="evenodd" stroke="none"/>
      <path d="M4.75 21.8 L5.25 22.65 5.15 22.95 4.85 22.4 3.7 24.35 Q4.45 23.4 4.65 23.4 5.1 23.4 5.1 23.65 L5.0 23.95 4.8 24.2 5.75 24.05 5.8 24.05 5.6 23.75 5.3 23.3 5.6 23.3 5.85 23.7 5.9 23.9 5.95 23.95 6.3 24.75 6.4 24.85 6.25 24.75 5.8 24.45 5.75 24.4 5.3 24.05 4.45 25.3 4.25 26.55 4.15 27.35 4.1 27.7 4.25 27.65 5.05 27.35 5.25 27.3 5.0 28.0 3.3 28.85 2.7 29.0 2.05 29.15 1.05 29.4 0.5 29.5 0.7 29.3 4.75 21.8 M4.7 24.3 L4.75 24.25 4.7 24.25 Q4.5 24.35 4.2 24.6 L4.2 24.65 Q4.45 24.4 4.7 24.3 M4.0 25.15 L3.95 25.15 3.0 26.0 1.45 28.5 1.35 28.75 1.7 28.5 2.6 28.0 2.6 27.95 3.6 27.5 3.7 27.1 3.9 26.1 3.8 26.15 3.25 27.2 3.0 27.2 2.9 27.1 3.2 26.55 Q3.3 26.2 3.75 25.65 L4.0 25.15" fill="#0e59ff" fill-rule="evenodd" stroke="none"/>
      <path d="M5.85 23.7 Q5.9 23.6 6.05 23.55 L6.75 23.2 7.25 23.0 Q8.1 23.5 8.8 24.1 L8.45 24.55 8.0 24.2 7.05 23.8 6.8 23.8 6.85 24.2 6.95 24.75 7.25 24.7 7.6 24.6 7.75 25.35 7.9 25.8 8.1 26.25 8.05 26.35 7.05 26.9 7.1 26.25 7.05 25.65 6.85 25.65 6.2 25.75 5.75 25.85 4.25 27.65 4.1 27.7 4.15 27.35 5.25 26.0 5.75 25.5 5.8 24.55 5.8 24.45 6.25 24.75 6.4 24.85 6.3 24.75 5.95 23.95 5.9 23.9 5.85 23.7" fill="#83bdff" fill-rule="evenodd" stroke="none"/>
      <path d="M5.25 22.65 L5.35 22.5 Q6.05 22.5 5.7 23.2 L5.6 23.3 5.3 23.3 5.15 22.95 5.25 22.65 M7.05 26.9 L8.05 26.35 8.1 26.25 8.15 26.2 9.6 28.15 5.2 29.35 2.0 30.35 2.3 29.9 2.7 29.0 3.3 28.85 5.0 28.0 7.05 26.9 M5.3 24.2 Q5.45 24.85 4.8 25.85 L4.75 25.9 Q4.25 25.45 5.25 24.25 L5.3 24.2" fill="#ffffff" fill-rule="evenodd" stroke="none"/>
      <path d="M8.8 24.1 L9.0 24.3 8.85 24.8 8.95 24.85 8.55 25.5 8.25 26.0 8.15 26.2 8.1 26.25 7.9 25.8 7.75 25.35 7.6 24.6 7.25 24.7 6.95 24.75 6.85 24.2 6.8 23.8 7.05 23.8 8.0 24.2 8.45 24.55 8.8 24.1 M4.25 27.65 L5.75 25.85 6.2 25.75 6.85 25.65 7.05 25.65 7.1 26.25 7.05 26.9 5.0 28.0 5.25 27.3 5.05 27.35 4.25 27.65" fill="#1584ff" fill-rule="evenodd" stroke="none"/>
      <path d="M8.95 24.85 L10.3 24.95 10.55 27.7 10.15 29.45 9.35 28.55 1.35 31.55 -2.45 33.6 -1.6 31.5 0.5 29.5 1.05 29.4 -1.0 32.2 Q-0.65 31.85 -0.1 31.55 0.45 31.25 1.65 31.1 L2.05 29.15 2.7 29.0 2.3 29.9 2.0 30.35 5.2 29.35 9.6 28.15 8.15 26.2 8.25 26.0 8.55 25.5 8.95 24.85" fill="#bfd3ff" fill-rule="evenodd" stroke="none"/>
      <path d="M2.05 29.15 L1.65 31.1 Q0.45 31.25 -0.1 31.55 -0.65 31.85 -1.0 32.2 L1.05 29.4 2.05 29.15" fill="#6c8acb" fill-rule="evenodd" stroke="none"/>
      <path d="M7.25 23.0 L5.95 22.2 4.75 21.75 4.75 21.8 0.7 29.3 0.5 29.5 -1.6 31.5 -2.45 33.6 1.35 31.55 9.35 28.55 10.15 29.45 10.55 27.7 10.3 24.95 8.95 24.85 8.85 24.8 9.0 24.3 8.8 24.1 Q8.1 23.5 7.25 23.0 Z" fill="none" stroke="#3650a7" stroke-linecap="round" stroke-linejoin="round" stroke-width="1.0"/>
    </g>
  </defs>
</svg>
