<?xml version="1.0" encoding="UTF-8" standalone="no"?>
<svg xmlns:ffdec="https://www.free-decompiler.com/flash" xmlns:xlink="http://www.w3.org/1999/xlink" ffdec:objectType="frame" height="30.0px" width="30.0px" xmlns="http://www.w3.org/2000/svg">
  <g transform="matrix(1.0, 0.0, 0.0, 1.0, 0.0, 0.0)">
    <use ffdec:characterId="1" height="30.0" transform="matrix(1.0, 0.0, 0.0, 1.0, 0.0, 0.0)" width="30.0" xlink:href="#shape0"/>
    <use ffdec:characterId="11" height="58.95" transform="matrix(0.4661, 0.0, 0.0, 0.4661, 1.0627, 1.4756)" width="58.95" xlink:href="#sprite0"/>
  </g>
  <defs>
    <g id="shape0" transform="matrix(1.0, 0.0, 0.0, 1.0, 0.0, 0.0)">
      <path d="M30.0 30.0 L0.0 30.0 0.0 0.0 30.0 0.0 30.0 30.0" fill="#33cc66" fill-opacity="0.0" fill-rule="evenodd" stroke="none"/>
    </g>
    <g id="sprite0" transform="matrix(1.0, 0.0, 0.0, 1.0, -1.1, 3.7)">
      <use ffdec:characterId="2" height="58.95" transform="matrix(1.0, 0.0, 0.0, 1.0, 1.1, -3.7)" width="58.95" xlink:href="#shape1"/>
      <use ffdec:characterId="9" height="21.85" transform="matrix(-1.8654, 0.0, 0.0, 1.8654, 47.9154, 1.3199)" width="22.95" xlink:href="#sprite1"/>
      <use ffdec:characterId="10" height="55.95" transform="matrix(1.0, 0.0, 0.0, 1.0, 2.7, -2.2)" width="55.85" xlink:href="#shape6"/>
    </g>
    <g id="shape1" transform="matrix(1.0, 0.0, 0.0, 1.0, -1.1, 3.7)">
      <path d="M49.15 33.8 L50.15 45.65 50.15 45.95 50.05 45.95 37.95 45.2 30.65 53.75 23.1 45.2 9.95 46.1 9.95 45.95 11.45 33.45 2.7 25.95 2.6 25.85 2.7 25.85 2.85 25.7 11.35 18.9 10.05 5.9 10.05 5.8 10.15 5.8 22.85 7.4 30.65 -2.2 38.1 7.4 49.95 5.8 49.05 18.4 58.55 25.7 49.15 33.8" fill="#d6d6d6" fill-rule="evenodd" stroke="none"/>
      <path d="M49.15 33.8 L58.55 25.7 49.05 18.4 49.95 5.8 38.1 7.4 30.65 -2.2 22.85 7.4 10.15 5.8 10.05 5.8 10.05 5.9 11.35 18.9 2.85 25.7 2.7 25.85 2.6 25.85 2.7 25.95 11.45 33.45 9.95 45.95 9.95 46.1 23.1 45.2 30.65 53.75 37.95 45.2 50.05 45.95 50.15 45.95 50.15 45.65 49.15 33.8 Z" fill="none" stroke="#321cc0" stroke-linecap="round" stroke-linejoin="round" stroke-width="3.0"/>
      <path d="M43.05 13.85 L49.95 5.8 49.05 18.4 58.55 25.7 48.2 23.55 Q47.45 18.25 43.25 14.1 L43.05 13.85 M48.4 27.25 L58.55 25.7 49.15 33.8 50.15 45.65 49.6 45.1 44.65 37.25 Q48.2 32.85 48.4 27.25 M50.05 45.95 L37.95 45.2 30.65 53.75 23.1 45.2 9.95 46.1 9.95 46.0 10.05 45.95 19.1 40.15 Q23.2 43.4 28.5 43.9 L30.65 53.75 32.8 43.8 Q37.45 43.15 41.3 40.45 L50.05 45.95 M9.95 45.95 L11.45 33.45 2.7 25.95 12.3 28.3 Q12.85 33.7 16.5 37.7 L10.05 45.95 9.95 45.95 M2.85 25.7 L11.35 18.9 10.05 5.9 15.75 16.0 Q12.85 19.7 12.3 24.3 L3.8 25.7 2.85 25.7 M10.15 5.8 L22.85 7.4 30.65 -2.2 38.1 7.4 49.95 5.8 40.2 11.7 Q36.8 9.55 32.7 9.2 L30.65 -2.2 27.1 9.25 Q22.75 9.95 19.2 12.65 L19.0 12.8 10.15 5.9 10.15 5.8" fill="#faeeee" fill-rule="evenodd" stroke="none"/>
      <path d="M43.05 13.85 L43.25 14.1 Q47.45 18.25 48.2 23.55 L48.4 24.95 48.5 25.7 48.5 25.8 48.5 26.15 48.5 26.35 48.4 27.1 48.4 27.25 Q48.2 32.85 44.65 37.25 L43.55 38.45 43.15 38.75 41.3 40.45 Q37.45 43.15 32.8 43.8 L30.65 43.9 30.3 43.9 28.5 43.9 Q23.2 43.4 19.1 40.15 L17.6 38.85 17.4 38.75 17.3 38.65 17.3 38.55 17.3 38.45 16.5 37.7 Q12.85 33.7 12.3 28.3 L12.2 26.7 12.2 26.35 12.2 25.85 12.2 25.7 12.3 24.3 Q12.85 19.7 15.75 16.0 L17.5 13.95 17.9 13.55 19.0 12.8 19.2 12.65 Q22.75 9.95 27.1 9.25 L30.3 9.0 30.65 9.0 32.7 9.2 Q36.8 9.55 40.2 11.7 L42.4 13.3 43.05 13.85" fill="#7379f8" fill-rule="evenodd" stroke="none"/>
      <path d="M50.15 45.65 L50.15 45.95 50.05 45.95 50.05 45.85 49.6 45.1 50.15 45.65" fill="url(#gradient0)" fill-rule="evenodd" stroke="none"/>
      <path d="M10.05 5.8 L10.15 5.8 10.15 5.9 10.05 5.8" fill="url(#gradient1)" fill-rule="evenodd" stroke="none"/>
      <path d="M10.05 5.9 L10.05 5.8 10.15 5.9 10.05 5.9" fill="url(#gradient2)" fill-rule="evenodd" stroke="none"/>
      <path d="M9.95 46.0 L9.95 45.95 10.05 45.95 9.95 46.0 M2.7 25.95 L2.6 25.85 2.7 25.85 2.75 25.8 3.25 25.8 2.7 25.85 2.7 25.95" fill="url(#gradient3)" fill-rule="evenodd" stroke="none"/>
      <path d="M2.75 25.8 L2.85 25.7 3.8 25.7 3.25 25.8 2.75 25.8" fill="url(#gradient4)" fill-rule="evenodd" stroke="none"/>
      <path d="M17.3 38.55 L17.3 38.65 17.25 38.65 17.3 38.55" fill="url(#gradient5)" fill-rule="evenodd" stroke="none"/>
      <path d="M41.55 16.0 Q45.95 20.35 45.95 26.35 45.95 32.4 41.65 36.7 L41.4 36.95 39.45 38.55 Q41.3 21.3 28.8 11.5 L30.1 11.5 Q36.8 11.5 41.4 15.8 L41.55 16.0" fill="#ffffff" fill-opacity="0.2" fill-rule="evenodd" stroke="none"/>
      <path d="M42.05 26.9 Q41.4 27.0 40.75 26.45 40.25 25.95 40.2 25.5 39.9 24.1 41.5 23.9 42.95 23.75 43.15 25.2 L43.25 25.95 Q43.05 26.7 42.05 26.9 M42.05 21.75 Q41.85 22.35 40.85 22.5 40.65 22.5 38.6 20.0 L36.55 16.85 Q36.25 15.5 37.0 15.35 37.65 15.15 38.8 16.1 41.5 18.15 42.05 21.1 L42.05 21.75" fill="#ffffff" fill-rule="evenodd" stroke="none"/>
    </g>
    <linearGradient gradientTransform="matrix(-0.0119, 0.0, 0.0, 0.0092, 40.45, 46.2)" gradientUnits="userSpaceOnUse" id="gradient0" spreadMethod="pad" x1="-819.2" x2="819.2">
      <stop offset="0.0" stop-color="#fd9e0c"/>
      <stop offset="1.0" stop-color="#fddd27"/>
    </linearGradient>
    <linearGradient gradientTransform="matrix(-0.0126, 0.0, 0.0, 0.0096, 20.3, 5.75)" gradientUnits="userSpaceOnUse" id="gradient1" spreadMethod="pad" x1="-819.2" x2="819.2">
      <stop offset="0.0" stop-color="#fd9b0b"/>
      <stop offset="1.0" stop-color="#fde42b"/>
    </linearGradient>
    <linearGradient gradientTransform="matrix(-0.0092, 0.0, 0.0, 0.0121, 10.4, 15.6)" gradientUnits="userSpaceOnUse" id="gradient2" spreadMethod="pad" x1="-819.2" x2="819.2">
      <stop offset="0.0" stop-color="#5f2288"/>
      <stop offset="1.0" stop-color="#a276cd"/>
    </linearGradient>
    <linearGradient gradientTransform="matrix(-0.009, 0.0, 0.0, 0.0124, 9.95, 35.75)" gradientUnits="userSpaceOnUse" id="gradient3" spreadMethod="pad" x1="-819.2" x2="819.2">
      <stop offset="0.0" stop-color="#fd9e0c"/>
      <stop offset="1.0" stop-color="#fddd27"/>
    </linearGradient>
    <linearGradient gradientTransform="matrix(-0.009, 0.0, 0.0, 0.0124, 9.95, 35.75)" gradientUnits="userSpaceOnUse" id="gradient4" spreadMethod="pad" x1="-819.2" x2="819.2">
      <stop offset="0.0" stop-color="#8d010c"/>
      <stop offset="1.0" stop-color="#f2b03f"/>
    </linearGradient>
    <linearGradient gradientTransform="matrix(-0.0127, 0.0, 0.0, 0.0093, 20.3, 46.1)" gradientUnits="userSpaceOnUse" id="gradient5" spreadMethod="pad" x1="-819.2" x2="819.2">
      <stop offset="0.0" stop-color="#65298e"/>
      <stop offset="1.0" stop-color="#9a6cc5"/>
    </linearGradient>
    <g id="sprite1" transform="matrix(1.0, 0.0, 0.0, 1.0, 1.0, 5.35)">
      <clipPath id="clipPath0" transform="matrix(1.0, 0.0, 0.0, 1.0, 0.0, 0.0)">
        <path d="M14.45 2.3 Q16.95 4.75 16.95 8.1 16.95 11.25 14.8 13.6 12.0 16.25 8.5 16.25 4.95 16.25 2.45 13.9 L2.3 13.75 Q0.0 11.4 0.0 8.1 0.0 4.85 2.35 2.45 L2.45 2.3 Q4.95 0.0 8.5 0.0 11.9 0.0 14.45 2.3" fill="#4b1c6c" fill-rule="evenodd" stroke="none"/>
      </clipPath>
      <g clip-path="url(#clipPath0)">
        <use ffdec:characterId="4" height="21.85" transform="matrix(1.0, 0.0, 0.0, 1.0, -1.0, -5.35)" width="22.95" xlink:href="#shape3"/>
        <filter id="filter0">
          <feColorMatrix in="SourceGraphic" result="filterResult0" type="matrix" values="0 0 0 0 0.0,0 0 0 0 1.0,0 0 0 0 1.0,0 0 0 1 0"/>
          <feConvolveMatrix divisor="9.0" in="filterResult0" kernelMatrix="1 1 1 1 1 1 1 1 1" order="3 3" result="filterResult1"/>
          <feComposite in="SourceGraphic" in2="filterResult1" operator="over" result="filterResult2"/>
        </filter>
        <use ffdec:characterId="6" filter="url(#filter0)" height="4.7" transform="matrix(0.2372, 0.0, 0.0, 0.2372, 7.6, 11.1)" width="6.5" xlink:href="#sprite2"/>
        <filter id="filter1">
          <feColorMatrix in="SourceGraphic" result="filterResult3" type="matrix" values="0 0 0 0 1.0,0 0 0 0 0.0,0 0 0 0 1.0,0 0 0 1 0"/>
          <feConvolveMatrix divisor="289.0" in="filterResult3" kernelMatrix="1 1 1 1 1 1 1 1 1 1 1 1 1 1 1 1 1 1 1 1 1 1 1 1 1 1 1 1 1 1 1 1 1 1 1 1 1 1 1 1 1 1 1 1 1 1 1 1 1 1 1 1 1 1 1 1 1 1 1 1 1 1 1 1 1 1 1 1 1 1 1 1 1 1 1 1 1 1 1 1 1 1 1 1 1 1 1 1 1 1 1 1 1 1 1 1 1 1 1 1 1 1 1 1 1 1 1 1 1 1 1 1 1 1 1 1 1 1 1 1 1 1 1 1 1 1 1 1 1 1 1 1 1 1 1 1 1 1 1 1 1 1 1 1 1 1 1 1 1 1 1 1 1 1 1 1 1 1 1 1 1 1 1 1 1 1 1 1 1 1 1 1 1 1 1 1 1 1 1 1 1 1 1 1 1 1 1 1 1 1 1 1 1 1 1 1 1 1 1 1 1 1 1 1 1 1 1 1 1 1 1 1 1 1 1 1 1 1 1 1 1 1 1 1 1 1 1 1 1 1 1 1 1 1 1 1 1 1 1 1 1 1 1 1 1 1 1 1 1 1 1 1 1 1 1 1 1 1 1 1 1 1 1 1 1 1 1 1 1 1 1 1 1 1 1 1 1 1 1 1 1 1 1 1 1 1 1 1 1" order="17 17" result="filterResult4"/>
          <feComposite in="SourceGraphic" in2="filterResult4" operator="over" result="filterResult5"/>
          <feConvolveMatrix divisor="25.0" in="filterResult5" kernelMatrix="1 1 1 1 1 1 1 1 1 1 1 1 1 1 1 1 1 1 1 1 1 1 1 1 1" order="5 5" result="filterResult6"/>
        </filter>
        <use ffdec:characterId="8" filter="url(#filter1)" height="16.7" transform="matrix(0.2372, 0.0, 0.0, 0.2372, 5.0, 2.0)" width="14.7" xlink:href="#sprite3"/>
        <filter id="filter2">
          <feColorMatrix in="SourceGraphic" result="filterResult7" type="matrix" values="0 0 0 0 1.0,0 0 0 0 0.0,0 0 0 0 1.0,0 0 0 1 0"/>
          <feConvolveMatrix divisor="289.0" in="filterResult7" kernelMatrix="1 1 1 1 1 1 1 1 1 1 1 1 1 1 1 1 1 1 1 1 1 1 1 1 1 1 1 1 1 1 1 1 1 1 1 1 1 1 1 1 1 1 1 1 1 1 1 1 1 1 1 1 1 1 1 1 1 1 1 1 1 1 1 1 1 1 1 1 1 1 1 1 1 1 1 1 1 1 1 1 1 1 1 1 1 1 1 1 1 1 1 1 1 1 1 1 1 1 1 1 1 1 1 1 1 1 1 1 1 1 1 1 1 1 1 1 1 1 1 1 1 1 1 1 1 1 1 1 1 1 1 1 1 1 1 1 1 1 1 1 1 1 1 1 1 1 1 1 1 1 1 1 1 1 1 1 1 1 1 1 1 1 1 1 1 1 1 1 1 1 1 1 1 1 1 1 1 1 1 1 1 1 1 1 1 1 1 1 1 1 1 1 1 1 1 1 1 1 1 1 1 1 1 1 1 1 1 1 1 1 1 1 1 1 1 1 1 1 1 1 1 1 1 1 1 1 1 1 1 1 1 1 1 1 1 1 1 1 1 1 1 1 1 1 1 1 1 1 1 1 1 1 1 1 1 1 1 1 1 1 1 1 1 1 1 1 1 1 1 1 1 1 1 1 1 1 1 1 1 1 1 1 1 1 1 1 1 1 1" order="17 17" result="filterResult8"/>
          <feComposite in="SourceGraphic" in2="filterResult8" operator="over" result="filterResult9"/>
          <feConvolveMatrix divisor="25.0" in="filterResult9" kernelMatrix="1 1 1 1 1 1 1 1 1 1 1 1 1 1 1 1 1 1 1 1 1 1 1 1 1" order="5 5" result="filterResult10"/>
        </filter>
        <use ffdec:characterId="8" filter="url(#filter2)" height="16.7" transform="matrix(0.1652, 0.0, 0.0, 0.108, 12.15, 8.95)" width="14.7" xlink:href="#sprite3"/>
      </g>
    </g>
    <g id="shape3" transform="matrix(1.0, 0.0, 0.0, 1.0, 1.0, 5.35)">
      <path d="M11.85 -0.7 L11.85 -0.8 11.95 -0.85 12.85 0.65 Q13.7 2.55 13.9 5.05 L13.9 5.2 13.65 5.55 13.55 5.65 13.3 5.9 13.25 5.95 13.4 6.35 13.15 6.65 13.1 5.65 12.6 4.55 12.55 5.05 11.4 7.45 10.25 9.3 9.9 9.7 10.35 8.85 11.8 6.0 12.15 5.05 12.25 4.7 12.3 4.35 12.4 4.3 12.35 4.2 12.3 4.2 12.3 4.1 12.3 4.05 12.3 3.45 12.2 1.65 11.85 -0.7 M13.65 5.55 L13.55 3.95 13.0 1.85 12.75 1.25 12.65 4.05 13.65 5.55" fill="#a13200" fill-rule="evenodd" stroke="none"/>
      <path d="M11.95 -0.85 L11.85 -0.8 11.9 -0.9 11.95 -0.85 M12.0 5.0 L11.95 5.0 Q11.9 4.8 12.0 4.75 L12.0 5.0 M6.5 12.65 L6.55 12.7 6.45 12.75 6.5 12.65 M5.8 10.55 L5.9 10.3 5.9 10.35 5.8 10.55 M3.15 4.05 L3.55 5.6 3.65 5.95 3.55 6.15 3.35 6.25 Q3.2 6.25 2.95 6.05 L2.8 5.9 2.9 4.85 Q2.95 4.35 3.15 4.05 M2.8 6.1 L3.15 6.35 2.85 6.4 2.8 6.55 2.8 6.35 2.8 6.1 M3.55 6.4 L3.65 6.3 3.75 6.15 3.8 6.45 3.55 6.4 M3.25 8.1 L4.2 9.1 4.2 9.9 4.1 9.9 4.0 9.7 3.95 9.6 3.25 8.1" fill="#ffed93" fill-rule="evenodd" stroke="none"/>
      <path d="M16.3 1.3 L16.9 -0.2 17.65 -1.55 17.75 -1.55 17.9 -1.85 18.6 -2.55 18.95 -2.9 19.05 -2.95 19.9 -3.65 20.75 -4.2 20.0 -3.2 19.3 -1.6 18.4 -0.5 17.85 0.85 17.8 1.2 17.75 1.4 Q17.75 2.05 18.1 2.55 L18.2 2.65 Q18.65 3.3 19.35 3.0 L19.05 3.55 18.8 3.55 18.65 3.6 17.65 3.8 17.0 4.1 Q16.75 3.8 16.75 3.25 L16.8 3.05 Q16.8 2.4 17.15 1.45 L17.5 0.35 17.5 0.3 17.45 0.35 16.3 1.3 M14.6 7.45 Q14.65 7.0 14.95 6.5 15.5 5.55 16.9 4.5 L17.15 4.3 17.3 4.2 17.55 4.1 17.75 4.0 18.05 3.9 18.15 3.85 18.2 3.8 18.85 3.65 19.0 3.65 19.0 3.7 Q17.85 4.35 17.2 5.2 L16.8 5.9 16.55 7.0 15.2 7.3 15.1 7.3 14.6 7.45 M12.75 9.9 L13.5 9.25 15.1 8.1 15.1 7.8 14.95 7.75 15.15 7.7 16.55 7.3 17.55 7.15 17.6 7.2 17.7 7.25 17.6 7.3 Q16.65 7.55 16.15 7.9 15.15 8.45 15.15 9.75 L15.15 9.95 14.0 9.85 13.5 9.85 12.75 9.9 M12.0 11.9 L12.75 11.3 Q13.15 11.0 13.15 10.7 L13.05 10.35 12.65 10.25 12.65 10.2 13.0 10.2 13.85 10.15 13.9 10.15 15.25 10.2 15.3 10.3 15.1 10.55 14.4 10.85 Q13.5 11.2 13.1 12.0 L12.0 11.9" fill="#ea83a0" fill-rule="evenodd" stroke="none"/>
      <path d="M13.3 5.9 L13.55 5.65 13.65 5.55 13.9 5.2 13.95 5.1 13.95 5.05 15.1 2.25 Q17.95 -4.05 21.85 -5.25 L20.75 -4.2 19.9 -3.65 19.05 -2.95 18.95 -2.9 18.6 -2.55 17.9 -1.85 17.65 -1.55 16.9 -0.2 16.3 1.3 16.0 2.25 15.75 3.0 15.2 4.6 14.65 5.4 13.65 5.95 13.3 5.9 M16.55 4.65 L16.55 4.7 14.95 5.8 13.75 7.15 13.25 7.9 11.9 8.55 12.25 7.85 12.45 7.55 12.6 7.4 13.45 6.7 13.9 6.35 14.65 5.85 16.55 4.65 M13.75 8.15 L13.3 8.5 11.85 10.05 11.0 10.25 10.95 10.1 11.5 9.45 11.75 9.15 11.8 9.1 12.75 8.6 12.75 8.7 12.85 8.55 13.75 8.15 M11.65 10.35 L11.55 10.55 11.55 10.7 Q10.8 11.15 10.1 12.15 L10.3 11.5 10.55 10.9 10.6 10.85 10.6 10.8 10.65 10.8 11.65 10.35 M2.35 3.6 L2.3 5.1 1.7 3.85 1.6 3.65 1.2 3.05 0.75 2.5 0.25 2.05 -0.25 1.7 -0.35 1.65 -0.35 1.7 -0.9 1.1 Q0.0 1.4 0.75 2.0 L1.25 2.35 1.6 2.7 2.35 3.6 M0.4 5.35 L0.5 5.35 1.15 5.5 1.75 5.8 2.35 6.35 2.45 6.85 1.9 6.25 1.8 6.2 1.25 5.85 0.85 5.65 0.5 5.55 0.45 5.55 0.3 5.45 0.35 5.4 0.35 5.35 0.4 5.35 M2.95 9.2 L3.1 9.7 2.8 9.45 2.7 9.35 2.35 9.05 1.95 8.8 1.9 8.75 1.2 8.6 1.0 8.55 0.95 8.45 Q1.0 8.35 1.2 8.35 1.5 8.35 2.1 8.7 L2.5 8.9 2.55 8.95 2.95 9.2 M2.05 10.9 L3.25 10.95 3.45 10.95 3.5 11.0 4.25 11.45 4.3 11.5 4.4 11.55 4.4 11.6 4.6 12.1 4.55 12.05 4.25 11.75 4.0 11.6 3.55 11.3 3.2 11.15 3.1 11.15 2.8 11.1 2.6 11.1 2.55 11.25 2.2 11.15 1.85 11.15 2.0 10.95 2.05 10.9" fill="#6a49ce" fill-rule="evenodd" stroke="none"/>
      <path d="M17.75 1.4 L17.8 1.2 17.85 0.85 18.4 -0.5 19.3 -1.6 Q18.95 0.0 19.35 1.9 L19.4 1.95 19.45 2.15 19.6 2.75 19.35 2.75 Q18.65 2.75 18.2 2.25 L17.8 1.4 17.75 1.4 M19.0 4.55 L18.8 5.35 Q18.7 6.2 19.15 7.0 L18.9 6.9 18.3 6.85 17.4 6.9 17.35 6.65 Q17.35 5.95 18.05 5.25 L18.9 4.55 19.0 4.55 M0.25 2.05 L0.75 2.9 1.05 3.65 1.55 5.0 1.6 5.2 1.4 5.4 1.15 5.5 0.5 5.35 0.4 5.35 0.55 5.1 0.75 4.3 0.75 3.75 -0.3 1.75 -0.25 1.7 0.25 2.05 M0.5 5.55 L0.85 5.65 1.25 5.85 1.85 6.9 2.2 7.5 2.4 7.95 2.25 8.4 2.1 8.7 Q1.5 8.35 1.2 8.35 1.0 8.35 0.95 8.45 L0.9 8.45 1.25 7.9 1.3 7.7 1.3 7.55 1.35 7.1 Q1.35 6.1 0.5 5.55 M1.2 8.6 L1.9 8.75 1.95 8.8 2.35 9.05 2.8 9.6 3.05 10.05 3.25 10.45 3.35 10.7 3.25 10.95 2.05 10.9 2.3 10.3 2.3 10.2 2.25 10.05 1.95 9.3 1.2 8.6 M2.55 11.25 L2.6 11.1 2.8 11.1 3.1 11.15 3.2 11.2 3.2 11.15 3.55 11.3 4.0 11.6 4.25 11.75 4.55 12.05 4.6 12.1 4.65 12.2 4.7 12.35 4.75 12.55 4.75 12.65 4.5 12.55 Q4.2 12.55 4.0 12.8 L3.75 13.15 3.75 12.6 3.65 12.0 Q3.35 11.5 2.55 11.25" fill="#ffc18f" fill-rule="evenodd" stroke="none"/>
      <path d="M17.9 -1.85 L17.75 -1.55 17.65 -1.55 17.9 -1.85 M19.0 3.65 L19.1 3.6 19.0 3.7 19.0 3.65 M12.6 7.4 L12.45 7.55 12.55 7.4 12.6 7.4 M12.25 10.55 L12.35 10.45 12.3 10.55 12.25 10.55 M17.65 7.3 L17.6 7.3 17.7 7.25 17.6 7.2 17.55 7.15 17.95 7.1 18.25 7.1 18.35 7.1 18.0 7.25 18.0 7.4 17.85 7.35 17.8 7.35 17.8 7.3 17.65 7.3 M15.25 10.2 L15.3 10.2 15.3 10.3 15.25 10.2 M16.5 10.4 L16.55 10.4 16.45 10.45 16.5 10.4 M-0.25 1.7 L-0.3 1.75 -0.35 1.75 -0.35 1.7 -0.35 1.65 -0.25 1.7 M3.1 9.7 L3.2 10.05 3.35 10.4 3.25 10.45 3.05 10.05 2.8 9.6 2.35 9.05 2.7 9.35 2.8 9.45 3.1 9.7 M0.95 8.45 L1.0 8.55 0.85 8.55 0.85 8.5 0.9 8.45 0.95 8.45 M3.1 11.15 L3.2 11.15 3.2 11.2 3.1 11.15 M4.4 11.55 L4.3 11.5 4.35 11.45 4.4 11.55" fill="#f4bbdf" fill-rule="evenodd" stroke="none"/>
      <path d="M19.05 3.55 L19.35 3.0 Q18.65 3.3 18.2 2.65 L18.1 2.55 Q17.75 2.05 17.75 1.4 L17.8 1.4 18.2 2.25 Q18.65 2.75 19.35 2.75 L19.6 2.75 19.7 3.1 19.8 3.3 19.05 3.55 M19.1 3.6 L19.25 3.6 19.65 3.55 19.0 4.55 18.9 4.55 18.05 5.25 Q17.35 5.95 17.35 6.65 L17.4 6.9 16.7 6.95 16.55 7.0 16.8 5.9 17.2 5.2 Q17.85 4.35 19.0 3.7 L19.1 3.6 M15.15 9.95 L15.15 9.75 Q15.15 8.45 16.15 7.9 16.65 7.55 17.6 7.3 L17.65 7.3 16.9 7.85 Q16.05 8.5 16.05 8.95 L16.45 9.45 Q16.85 9.55 16.85 9.95 L16.75 10.3 16.2 10.15 15.3 9.95 15.15 9.95 M15.3 10.2 L15.75 10.3 15.95 10.3 16.0 10.3 16.5 10.4 16.45 10.45 15.55 10.85 Q14.25 11.4 14.25 12.6 13.7 12.15 13.1 12.0 13.5 11.2 14.4 10.85 L15.1 10.55 15.3 10.3 15.3 10.2 M2.3 5.1 L2.3 5.55 2.3 5.6 2.3 5.65 2.35 6.1 2.35 6.35 1.75 5.8 1.15 5.5 1.4 5.4 1.6 5.2 1.55 5.0 1.05 3.65 0.75 2.9 0.25 2.05 0.75 2.5 1.2 3.05 1.6 3.65 1.7 3.85 2.3 5.1 M1.25 5.85 L1.8 6.2 1.9 6.25 2.45 6.85 2.55 7.45 2.6 7.8 2.8 8.7 2.85 8.8 2.85 8.9 2.95 9.2 2.55 8.95 2.5 8.9 2.1 8.7 2.25 8.4 2.4 7.95 2.2 7.5 1.85 6.9 1.25 5.85 M3.35 10.4 L3.4 10.55 3.95 10.65 4.15 10.8 4.25 11.0 4.35 11.45 4.3 11.5 4.25 11.45 3.5 11.0 3.45 10.95 3.25 10.95 3.35 10.7 3.25 10.45 3.35 10.4" fill="#ef9768" fill-rule="evenodd" stroke="none"/>
      <path d="M16.3 1.3 L17.45 0.35 17.5 0.35 17.15 1.45 Q16.8 2.4 16.8 3.05 L16.75 3.25 Q16.75 3.8 17.0 4.1 L16.85 4.2 15.1 5.15 14.65 5.4 15.2 4.6 15.75 3.0 16.0 2.25 16.3 1.3" fill="#b1e8fd" fill-rule="evenodd" stroke="none"/>
      <path d="M17.45 0.35 L17.5 0.3 17.5 0.35 17.45 0.35" fill="#ffc190" fill-rule="evenodd" stroke="none"/>
      <path d="M13.15 6.65 L13.4 6.35 13.25 5.95 13.3 5.9 13.65 5.95 14.65 5.4 15.1 5.15 16.85 4.2 17.0 4.1 17.65 3.8 18.65 3.6 18.8 3.55 19.05 3.55 19.8 3.3 19.8 3.35 19.65 3.55 19.25 3.6 19.1 3.6 19.0 3.65 18.85 3.65 18.2 3.8 18.15 3.85 18.05 3.9 17.75 4.0 17.55 4.1 17.3 4.2 17.15 4.3 16.65 4.6 16.55 4.65 14.65 5.85 13.9 6.35 13.45 6.7 12.6 7.4 12.55 7.4 13.15 6.65 M13.25 7.9 L14.6 7.45 15.1 7.3 15.2 7.3 16.55 7.0 16.7 6.95 17.4 6.9 18.3 6.85 18.9 6.9 19.15 7.0 19.3 7.2 19.0 7.15 18.45 7.1 18.35 7.1 18.25 7.1 17.95 7.1 17.55 7.15 16.55 7.3 15.15 7.7 14.95 7.75 14.85 7.8 14.6 7.85 13.75 8.15 12.85 8.55 12.75 8.6 11.8 9.1 12.05 8.65 11.9 8.55 13.25 7.9 M11.85 10.05 L12.75 9.9 13.5 9.85 14.0 9.85 15.15 9.95 15.3 9.95 16.2 10.15 16.75 10.3 17.75 10.65 17.8 10.8 17.6 10.8 16.55 10.4 16.5 10.4 16.0 10.3 15.95 10.3 15.75 10.3 15.3 10.2 15.25 10.2 13.9 10.15 13.85 10.15 13.0 10.2 12.65 10.2 12.6 10.2 12.5 10.2 12.35 10.2 11.65 10.35 10.65 10.8 10.6 10.8 11.05 10.3 11.0 10.25 11.85 10.05 M12.1 8.7 L12.1 8.65 12.05 8.65 12.1 8.7 M16.0 10.3 L15.85 10.2 15.75 10.3 15.85 10.2 16.0 10.3" fill="#521962" fill-rule="evenodd" stroke="none"/>
      <path d="M16.55 4.65 L16.65 4.6 17.15 4.3 16.9 4.5 Q15.5 5.55 14.95 6.5 14.65 7.0 14.6 7.45 L13.25 7.9 13.75 7.15 14.95 5.8 16.55 4.7 16.55 4.65" fill="#b5e3ff" fill-rule="evenodd" stroke="none"/>
      <path d="M9.9 9.7 L10.25 9.3 11.4 7.45 12.55 5.05 12.6 4.55 13.1 5.65 13.15 6.65 12.55 7.4 12.45 7.55 12.25 7.85 11.9 8.55 12.05 8.65 11.8 9.1 11.75 9.15 11.5 9.45 10.95 10.1 11.0 10.25 11.05 10.3 10.6 10.8 10.4 10.3 10.05 10.1 10.0 10.1 9.65 10.15 9.7 10.1 9.85 9.8 9.9 9.7 M13.65 5.55 L12.65 4.05 12.75 1.25 13.0 1.85 13.55 3.95 13.65 5.55" fill="#d67e24" fill-rule="evenodd" stroke="none"/>
      <path d="M11.85 -0.7 L12.2 1.65 12.3 3.45 12.3 4.05 12.0 3.9 11.85 3.95 11.6 2.45 11.35 1.85 10.9 2.1 10.35 3.0 10.3 3.0 10.25 3.05 10.25 3.0 10.7 1.8 11.85 -0.7 M12.3 4.1 L12.3 4.2 12.0 4.3 12.3 4.1 M12.3 4.35 L12.25 4.7 12.15 5.05 11.8 6.0 10.35 8.85 10.45 7.9 10.5 7.45 10.4 6.75 10.1 6.45 9.25 6.8 8.85 7.0 9.1 6.65 10.15 5.65 10.25 5.65 11.15 5.0 12.3 4.35 M12.0 5.0 L12.0 4.75 Q11.9 4.8 11.95 5.0 L12.0 5.0" fill="#fefdf8" fill-rule="evenodd" stroke="none"/>
      <path d="M10.25 3.05 L10.3 3.0 10.35 3.0 10.9 2.1 11.35 1.85 11.6 2.45 11.85 3.95 11.8 3.95 11.1 4.45 10.2 4.85 9.9 4.85 9.8 4.55 Q9.8 4.1 10.1 3.45 L10.25 3.05" fill="#f9f495" fill-rule="evenodd" stroke="none"/>
      <path d="M12.3 4.05 L12.3 4.1 12.0 4.3 Q11.6 4.45 11.1 4.85 L10.25 5.45 9.8 5.25 9.6 5.3 10.0 5.55 10.15 5.65 9.1 6.65 8.85 7.0 7.3 8.75 Q6.4 9.6 6.4 10.9 L6.5 11.55 6.55 12.15 6.5 12.55 6.5 12.65 6.45 12.75 5.95 13.25 5.85 13.35 5.85 13.3 5.8 13.3 5.8 13.25 5.55 12.35 5.55 12.15 Q5.55 11.4 5.7 10.8 L5.8 10.55 5.9 10.35 5.9 10.3 6.45 9.25 7.3 8.25 8.1 7.35 8.8 6.1 8.7 5.35 8.6 4.7 8.75 3.8 9.25 2.3 9.3 2.75 9.3 3.7 10.7 1.8 10.25 3.0 10.25 3.05 10.1 3.45 Q9.8 4.1 9.8 4.55 L9.9 4.85 10.2 4.85 11.1 4.45 11.8 3.95 11.85 3.95 12.0 3.9 12.3 4.05 M10.35 8.85 L9.9 9.7 9.85 9.8 9.7 10.1 9.65 10.15 8.3 10.55 8.05 10.65 Q8.2 9.35 9.0 8.85 9.15 8.75 9.65 8.55 L10.25 8.2 10.45 7.9 10.35 8.85" fill="#ffc871" fill-rule="evenodd" stroke="none"/>
      <path d="M12.3 4.2 L12.35 4.2 12.4 4.3 12.3 4.35 11.15 5.0 10.25 5.65 10.15 5.65 10.0 5.55 9.6 5.3 9.8 5.25 10.25 5.45 11.1 4.85 Q11.6 4.45 12.0 4.3 L12.3 4.2 M7.65 3.8 L8.35 2.5 9.05 1.45 9.1 1.5 9.25 2.3 8.75 3.8 8.6 4.7 8.7 5.35 8.8 6.1 8.1 7.35 7.3 8.25 6.45 9.25 5.9 10.3 5.8 10.55 5.7 10.8 Q5.55 11.4 5.55 12.15 L5.5 12.1 5.45 11.95 5.3 9.85 Q6.7 8.7 8.1 6.35 L7.9 5.05 7.8 4.6 7.65 3.8 M4.15 3.95 L4.1 4.3 3.8 5.85 4.0 6.95 3.85 6.6 3.8 6.45 3.75 6.15 3.65 6.3 3.55 6.4 3.5 6.4 3.2 6.35 3.15 6.35 2.8 6.1 2.75 6.1 2.7 6.05 2.3 5.65 2.3 5.6 2.3 5.55 2.3 5.1 2.35 3.6 2.35 3.15 Q2.35 1.9 2.6 1.0 L2.85 0.35 3.0 1.35 3.35 2.65 3.4 2.75 3.5 2.55 Q3.75 1.8 4.05 1.6 L4.0 2.05 4.25 3.25 4.3 3.4 4.25 3.5 4.15 3.95 M3.15 4.05 L3.05 3.25 3.0 3.25 2.6 4.55 2.4 5.35 2.35 5.55 2.3 5.6 2.55 5.7 2.8 5.9 2.95 6.05 Q3.2 6.25 3.35 6.25 L3.55 6.15 3.65 5.95 3.55 5.6 3.15 4.05" fill="#d4691e" fill-rule="evenodd" stroke="none"/>
      <path d="M11.85 10.05 L13.3 8.5 13.75 8.15 14.6 7.85 14.85 7.8 14.95 7.75 15.1 7.8 15.1 8.1 13.5 9.25 12.75 9.9 11.85 10.05 M12.85 8.55 L12.75 8.7 12.75 8.6 12.85 8.55 M10.1 12.15 Q10.8 11.15 11.55 10.7 L11.55 10.55 11.65 10.35 12.35 10.2 12.5 10.2 12.6 10.2 12.65 10.2 12.65 10.25 13.05 10.35 13.15 10.7 Q13.15 11.0 12.75 11.3 L12.0 11.9 11.3 12.1 11.25 12.15 10.0 12.85 10.05 12.45 10.1 12.15 M12.25 10.55 L12.3 10.55 12.35 10.45 12.25 10.55" fill="#c0ebfd" fill-rule="evenodd" stroke="none"/>
      <path d="M8.85 7.0 L9.25 6.8 10.1 6.45 10.4 6.75 10.5 7.45 10.45 7.9 10.25 8.2 9.65 8.55 Q9.15 8.75 9.0 8.85 8.2 9.35 8.05 10.65 7.2 11.05 7.0 11.8 L7.0 12.0 6.55 12.7 6.5 12.65 6.5 12.55 6.55 12.15 6.5 11.55 6.4 10.9 Q6.4 9.6 7.3 8.75 L8.85 7.0" fill="#ffef97" fill-rule="evenodd" stroke="none"/>
      <path d="M7.0 12.0 L7.0 11.8 Q7.2 11.05 8.05 10.65 L8.3 10.55 9.65 10.15 10.0 10.1 10.05 10.1 10.4 10.3 10.6 10.8 10.6 10.85 10.55 10.9 10.3 11.5 10.1 12.15 10.05 12.45 10.05 12.3 10.0 12.2 10.0 12.1 9.9 12.15 9.6 12.6 9.5 12.4 9.3 12.2 9.3 12.15 9.15 12.05 8.9 12.05 8.15 12.2 7.55 12.15 7.15 12.05 7.05 12.0 7.0 12.0" fill="#776cee" fill-rule="evenodd" stroke="none"/>
      <path d="M10.0 12.85 L11.25 12.15 11.3 12.15 10.75 13.5 10.1 14.55 9.4 15.2 8.95 15.75 9.65 13.7 9.9 13.2 10.0 12.85" fill="#727afe" fill-rule="evenodd" stroke="none"/>
      <path d="M16.75 10.3 L16.85 9.95 Q16.85 9.55 16.45 9.45 L16.05 8.95 Q16.05 8.5 16.9 7.85 L17.65 7.3 17.8 7.3 17.8 7.35 17.85 7.35 18.0 7.4 18.0 7.25 18.35 7.1 18.45 7.1 19.0 7.15 19.3 7.2 Q17.35 8.25 17.55 9.9 L17.75 10.65 16.75 10.3 M16.55 10.4 L17.6 10.8 Q14.85 10.8 14.75 13.05 L14.25 12.6 Q14.25 11.4 15.55 10.85 L16.45 10.45 16.55 10.4" fill="#fac296" fill-rule="evenodd" stroke="none"/>
      <path d="M5.35 1.5 L5.75 1.05 6.25 1.5 6.55 3.45 6.6 4.0 6.55 4.0 6.5 4.05 6.6 4.15 6.65 5.35 6.45 5.85 6.05 5.8 Q5.45 5.8 5.45 6.6 5.45 7.0 5.6 7.2 L5.2 7.8 5.05 7.4 Q4.6 6.2 4.6 5.35 L4.6 4.85 4.75 4.15 5.4 3.7 Q5.8 3.2 5.8 2.75 L5.65 2.0 5.3 1.65 5.35 1.5" fill="#7083fd" fill-rule="evenodd" stroke="none"/>
      <path d="M6.25 1.5 L5.75 1.05 5.35 1.5 5.85 0.15 6.25 1.5 M5.3 1.65 L5.65 2.0 5.8 2.75 Q5.8 3.2 5.4 3.7 L4.75 4.15 4.85 3.5 4.85 3.45 4.9 3.45 5.45 3.1 5.6 2.6 Q5.6 1.9 5.25 1.85 L5.3 1.65" fill="#919fff" fill-rule="evenodd" stroke="none"/>
      <path d="M7.65 3.8 L7.8 4.6 7.3 3.4 7.25 3.3 7.2 3.25 6.95 2.75 6.25 1.5 5.85 0.15 5.35 1.5 5.25 1.65 5.3 1.65 5.25 1.85 5.1 1.85 Q4.6 1.95 4.6 2.9 L4.6 3.15 4.85 3.45 4.85 3.5 4.75 4.15 4.45 4.2 4.2 3.95 4.15 3.95 4.25 3.5 4.3 3.4 4.35 3.25 4.75 1.8 Q5.25 0.05 6.05 -1.7 6.9 -0.05 7.65 3.8" fill="#e2fffa" fill-rule="evenodd" stroke="none"/>
      <path d="M5.25 1.85 Q5.6 1.9 5.6 2.6 L5.45 3.1 4.9 3.45 4.85 3.45 4.6 3.15 4.6 2.9 Q4.6 1.95 5.1 1.85 L5.25 1.85" fill="#ffffff" fill-rule="evenodd" stroke="none"/>
      <path d="M5.35 1.5 L5.3 1.65 5.25 1.65 5.35 1.5" fill="#b2fdf2" fill-rule="evenodd" stroke="none"/>
      <path d="M4.75 4.15 L4.6 4.85 4.6 5.35 Q4.6 6.2 5.05 7.4 L5.2 7.8 5.6 7.2 Q5.45 7.0 5.45 6.6 5.45 5.8 6.05 5.8 L6.45 5.85 6.65 5.35 6.6 4.15 6.7 4.1 6.7 4.0 6.6 4.0 6.55 3.45 6.25 1.5 6.95 2.75 7.2 3.25 7.25 3.3 7.3 3.4 7.25 3.4 7.35 3.85 7.45 4.85 7.0 6.6 Q6.85 6.4 6.55 6.4 6.05 6.35 6.05 7.1 L6.05 7.35 6.3 7.65 Q5.35 8.75 4.85 8.75 L4.65 8.7 4.3 7.95 4.15 7.45 4.0 6.95 3.8 5.85 4.1 4.3 4.15 3.95 4.2 3.95 4.45 4.2 4.75 4.15 M6.85 4.95 L7.0 5.0 7.25 4.8 7.25 4.7 7.05 4.7 6.85 4.8 6.85 4.95" fill="#70ffea" fill-rule="evenodd" stroke="none"/>
      <path d="M7.8 4.6 L7.9 5.05 8.1 6.35 Q6.7 8.7 5.3 9.85 L5.25 9.85 4.65 8.7 4.85 8.75 Q5.35 8.75 6.3 7.65 L6.05 7.35 6.05 7.1 Q6.05 6.35 6.55 6.4 6.85 6.4 7.0 6.6 L7.45 4.85 7.35 3.85 7.25 3.4 7.3 3.4 7.8 4.6 M6.6 4.15 L6.5 4.05 6.55 4.0 6.6 4.0 6.7 4.0 6.7 4.1 6.6 4.15 M6.85 4.95 L6.85 4.8 7.05 4.7 7.25 4.7 7.25 4.8 7.0 5.0 6.85 4.95" fill="#d4fff7" fill-rule="evenodd" stroke="none"/>
      <path d="M2.3 5.6 L2.35 5.55 2.4 5.35 2.6 4.55 3.0 3.25 3.05 3.25 3.15 4.05 Q2.95 4.35 2.9 4.85 L2.8 5.9 2.55 5.7 2.3 5.6 M2.3 5.65 L2.7 6.05 2.75 6.1 2.8 6.1 2.8 6.35 2.8 6.55 2.8 6.7 2.8 6.9 2.8 7.1 2.85 7.35 2.9 7.5 3.25 8.1 3.95 9.6 4.0 9.7 4.1 9.9 3.55 9.55 3.3 9.35 3.25 9.3 2.85 8.9 2.85 8.8 2.8 8.7 2.6 7.8 2.55 7.45 2.45 6.85 2.35 6.35 2.35 6.1 2.3 5.65" fill="#ffb25b" fill-rule="evenodd" stroke="none"/>
      <path d="M5.3 9.85 L5.45 11.95 5.5 12.1 5.55 12.15 5.55 12.35 5.8 13.25 5.75 13.25 5.05 12.5 5.1 12.4 5.1 12.35 5.05 12.25 5.0 12.15 5.0 12.05 4.55 11.2 4.4 11.05 4.15 10.8 3.95 10.65 3.4 10.55 3.35 10.4 3.2 10.05 3.1 9.7 2.95 9.2 2.85 8.9 3.25 9.3 3.3 9.35 3.55 9.55 4.1 9.9 4.2 9.9 4.2 9.1 3.25 8.1 2.9 7.5 2.85 7.35 2.8 7.1 2.8 6.9 2.8 6.7 2.8 6.55 2.85 6.4 3.15 6.35 3.2 6.35 3.5 6.4 3.55 6.4 3.8 6.45 3.85 6.6 4.0 6.95 4.15 7.45 4.3 7.95 4.65 8.7 5.25 9.85 5.3 9.85" fill="#fefce7" fill-rule="evenodd" stroke="none"/>
      <path d="M6.55 12.7 L7.0 12.0 7.05 12.0 7.15 12.05 7.55 12.15 8.15 12.2 8.9 12.05 9.15 12.05 9.3 12.15 9.3 12.2 9.05 12.3 8.25 12.6 8.15 12.6 8.05 12.55 Q7.85 12.55 7.0 13.2 L6.2 13.85 6.15 13.9 6.05 13.7 5.95 13.6 5.85 13.5 5.75 13.3 5.8 13.3 5.85 13.3 5.85 13.35 5.95 13.25 6.45 12.75 6.55 12.7 M4.15 10.8 L4.4 11.05 4.55 11.2 5.0 12.05 5.0 12.15 5.05 12.25 5.1 12.35 5.1 12.4 4.9 12.3 4.85 12.35 4.75 12.55 4.7 12.35 4.65 12.2 4.6 12.1 4.4 11.6 4.4 11.55 4.35 11.45 4.25 11.0 4.15 10.8" fill="#86a5fb" fill-rule="evenodd" stroke="none"/>
      <path d="M5.1 12.4 L5.05 12.5 5.75 13.25 5.75 13.3 5.85 13.5 5.95 13.6 6.05 13.7 6.15 13.9 6.2 13.85 6.75 14.3 6.65 14.4 6.25 14.4 6.25 14.9 6.35 14.7 6.95 14.55 7.15 14.55 7.65 14.55 7.8 14.6 7.8 14.65 7.9 14.8 7.9 14.9 8.0 15.2 7.65 15.4 7.5 15.5 6.95 15.7 6.85 15.7 6.65 15.6 6.25 15.85 6.15 15.75 6.15 16.1 6.1 16.1 6.05 15.8 5.65 14.95 5.55 14.45 5.5 14.2 5.45 13.95 4.9 13.15 4.8 13.15 4.75 12.7 4.75 12.65 4.75 12.55 4.85 12.35 4.9 12.3 5.1 12.4 M6.1 13.9 L6.05 13.95 6.15 13.9 6.1 13.9" fill="#dbfeff" fill-rule="evenodd" stroke="none"/>
      <path d="M10.05 12.45 L10.0 12.85 9.9 13.2 9.65 13.7 9.5 13.9 9.3 14.25 9.2 14.6 8.95 14.3 8.65 13.75 8.7 13.8 8.85 13.6 8.9 13.55 9.1 13.3 9.25 13.1 9.6 12.6 9.9 12.15 10.0 12.1 10.0 12.2 10.05 12.3 10.05 12.45 M10.0 12.2 L9.35 13.1 9.1 13.4 8.8 13.85 9.1 14.35 9.15 14.35 9.35 13.85 9.4 13.8 9.65 13.5 9.65 13.45 9.9 12.7 9.95 12.5 10.0 12.35 10.0 12.2 M5.5 14.8 L5.45 14.5 5.4 14.4 5.35 13.95 4.85 13.3 4.8 13.3 4.8 13.15 4.9 13.15 5.45 13.95 5.5 14.2 5.55 14.45 5.65 14.95 5.55 14.8 5.5 14.8" fill="#665fb6" fill-rule="evenodd" stroke="none"/>
      <path d="M10.0 12.2 L10.0 12.35 9.95 12.5 9.9 12.7 9.65 13.45 9.65 13.5 9.4 13.8 9.35 13.85 9.15 14.35 9.1 14.35 8.8 13.85 9.1 13.4 9.35 13.1 10.0 12.2 M4.85 13.3 L5.35 13.95 5.4 14.4 5.45 14.5 5.5 14.8 4.85 13.55 4.85 13.4 4.8 13.35 4.85 13.3" fill="#8f9afd" fill-rule="evenodd" stroke="none"/>
      <path d="M6.2 13.85 L7.0 13.2 Q7.85 12.55 8.05 12.55 L8.15 12.6 8.25 12.6 9.05 12.3 9.3 12.2 9.5 12.4 9.6 12.6 9.25 13.1 9.1 13.3 8.9 13.55 8.85 13.6 8.7 13.8 8.65 13.75 8.95 14.3 9.2 14.6 9.15 14.6 9.1 14.7 8.35 15.65 8.35 15.7 8.3 15.7 8.05 15.8 7.75 15.9 7.6 15.9 6.95 15.75 6.95 15.7 7.5 15.5 7.65 15.4 8.0 15.2 7.9 14.9 7.9 14.8 7.8 14.65 7.8 14.6 7.9 14.65 8.25 14.95 8.25 14.85 8.2 14.8 8.1 14.65 8.0 14.45 7.9 14.55 7.75 14.55 7.7 14.45 7.7 14.55 7.35 14.45 6.75 14.4 6.65 14.4 6.75 14.3 6.2 13.85" fill="#c3fffc" fill-rule="evenodd" stroke="none"/>
      <path d="M9.2 14.6 L9.3 14.25 9.5 13.9 9.65 13.7 8.95 15.75 8.8 15.9 8.75 15.95 8.1 16.4 7.85 16.3 7.75 16.25 7.4 16.1 7.75 16.0 7.9 15.95 8.3 15.75 8.35 15.7 8.35 15.65 9.1 14.7 9.15 14.6 9.2 14.6" fill="#90a1ef" fill-rule="evenodd" stroke="none"/>
      <path d="M7.7 14.55 L7.75 14.55 7.9 14.55 8.0 14.45 8.1 14.65 8.2 14.8 8.25 14.85 8.25 14.95 7.9 14.65 7.8 14.6 7.65 14.55 7.15 14.55 6.95 14.55 6.35 14.7 6.25 14.9 6.25 14.4 6.65 14.4 6.75 14.4 7.35 14.45 7.7 14.55" fill="#536a67" fill-rule="evenodd" stroke="none"/>
      <path d="M6.95 15.75 L7.6 15.9 7.75 15.9 8.05 15.8 8.3 15.7 8.3 15.75 7.9 15.95 7.75 16.0 7.4 16.1 7.25 16.1 6.9 16.0 6.5 16.1 6.15 16.1 6.15 15.75 6.25 15.85 6.65 15.6 6.85 15.7 6.95 15.75" fill="#9bb9dc" fill-rule="evenodd" stroke="none"/>
      <path d="M4.8 13.3 L4.85 13.3 4.8 13.35 4.8 13.3" fill="#cafeff" fill-rule="evenodd" stroke="none"/>
      <path d="M11.85 -0.8 L11.85 -0.7 10.7 1.8 9.3 3.7 9.3 2.75 9.25 2.3 9.1 1.5 9.05 1.45 8.35 2.5 7.65 3.8 M13.9 5.2 L13.9 5.05 Q13.7 2.55 12.85 0.65 L11.95 -0.85 11.9 -0.9 11.85 -0.8 M7.0 12.0 L7.0 11.8 M4.3 3.4 L4.25 3.25 4.0 2.05 4.05 1.6 Q3.75 1.8 3.5 2.55 L3.4 2.75 3.35 2.65 3.0 1.35 2.85 0.35 2.6 1.0 Q2.35 1.9 2.35 3.15 L2.35 3.6 2.3 5.1 2.3 5.55 2.3 5.6 M2.35 6.35 L2.35 6.1 M2.45 6.85 L2.35 6.35 M2.85 8.9 L2.95 9.2 3.1 9.7 3.2 10.05 3.35 10.4 3.4 10.55 3.95 10.65 4.15 10.8 M5.05 12.25 L5.1 12.35 5.1 12.4 M2.45 6.85 L2.55 7.45 2.6 7.8 2.8 8.7 2.85 8.8 2.85 8.9 M6.45 12.75 L6.55 12.7 M5.8 13.3 L5.8 13.25" fill="none" stroke="#a85d2e" stroke-linecap="round" stroke-linejoin="round" stroke-width="0.2"/>
      <path d="M13.15 6.65 L13.4 6.35 13.25 5.95 13.3 5.9 13.55 5.65 13.65 5.55 13.9 5.2 13.95 5.1 13.95 5.05 15.1 2.25 Q17.95 -4.05 21.85 -5.25 L20.75 -4.2 20.0 -3.2 19.3 -1.6 Q18.95 0.0 19.35 1.9 L19.4 1.95 19.45 2.15 19.6 2.75 19.7 3.1 19.8 3.3 19.8 3.35 19.65 3.55 19.0 4.55 18.8 5.35 Q18.7 6.2 19.15 7.0 L19.3 7.2 Q17.35 8.25 17.55 9.9 L17.75 10.65 17.8 10.8 M12.25 7.85 L11.9 8.55 12.05 8.65 12.1 8.7 12.1 8.65 12.05 8.65 11.8 9.1 M11.75 9.15 L11.5 9.45 10.95 10.1 11.0 10.25 11.05 10.3 10.6 10.8 10.6 10.85 M12.55 7.4 L12.45 7.55 M12.55 7.4 L13.15 6.65 M10.1 12.15 L10.05 12.45 10.0 12.85 11.25 12.15 11.3 12.1 12.0 11.9 13.1 12.0 Q13.7 12.15 14.25 12.6 L14.75 13.05 Q14.85 10.8 17.6 10.8 M10.55 10.9 L10.3 11.5 10.1 12.15 M-0.3 1.75 L0.75 3.75 0.75 4.3 0.55 5.1 0.4 5.35 0.35 5.35 M2.35 3.6 L1.6 2.7 1.25 2.35 0.75 2.0 Q0.0 1.4 -0.9 1.1 L-0.35 1.7 -0.35 1.75 M0.35 5.4 L0.3 5.45 0.45 5.55 0.5 5.55 Q1.35 6.1 1.35 7.1 L1.3 7.55 1.3 7.7 1.25 7.9 0.9 8.45 0.85 8.5 0.85 8.55 1.0 8.55 1.2 8.6 1.95 9.3 2.25 10.05 2.3 10.2 2.3 10.3 2.05 10.9 2.0 10.95 1.85 11.15 2.2 11.15 2.55 11.25 Q3.35 11.5 3.65 12.0 L3.75 12.6 3.75 13.15 4.0 12.8 Q4.2 12.55 4.5 12.55 L4.75 12.65 4.75 12.55 4.7 12.35 M4.6 12.1 L4.4 11.6 4.4 11.55 4.35 11.45 4.25 11.0 4.15 10.8 M4.65 12.2 L4.6 12.1" fill="none" stroke="#7f149c" stroke-linecap="round" stroke-linejoin="round" stroke-width="0.2"/>
      <path d="M17.0 4.1 L17.65 3.8 18.65 3.6 18.8 3.55 19.05 3.55 19.8 3.3 M19.65 3.55 L20.0 3.55 M14.65 5.4 L15.1 5.15 16.85 4.2 17.0 4.1 M17.15 4.3 L16.65 4.6 16.55 4.65 14.65 5.85 13.9 6.35 M17.15 4.3 L17.3 4.2 17.55 4.1 17.75 4.0 18.05 3.9 18.15 3.85 18.2 3.8 18.85 3.65 19.0 3.65 19.1 3.6 M19.25 3.6 L19.65 3.55 M19.3 7.2 L19.65 7.3 M14.65 5.4 L13.65 5.95 13.3 5.9 M13.45 6.7 L12.6 7.4 12.45 7.55 12.25 7.85 M11.85 10.05 L12.75 9.9 13.5 9.85 14.0 9.85 15.15 9.95 15.3 9.95 16.2 10.15 16.75 10.3 17.75 10.65 18.25 10.9 M14.95 7.75 L14.85 7.8 14.6 7.85 13.75 8.15 12.85 8.55 12.75 8.6 11.8 9.1 11.75 9.15 M11.0 10.25 L11.85 10.05 M17.55 7.15 L16.55 7.3 15.15 7.7 14.95 7.75 M12.65 10.2 L12.6 10.2 12.5 10.2 12.35 10.2 11.65 10.35 10.65 10.8 10.6 10.8 M10.6 10.85 L10.55 10.9 M8.95 15.75 L9.4 15.2 10.1 14.55 10.75 13.5 11.3 12.15 11.25 12.15 M17.55 7.15 L17.95 7.1 18.25 7.1 18.35 7.1 M18.45 7.1 L19.0 7.15 19.3 7.2 M12.65 10.2 L13.0 10.2 13.85 10.15 13.9 10.15 15.25 10.2 15.3 10.2 15.75 10.3 15.95 10.3 16.0 10.3 16.5 10.4 16.55 10.4 17.6 10.8 17.8 10.8 M5.5 14.8 L5.55 14.8 5.65 14.95 6.05 15.8 6.1 16.1 6.15 16.1 6.5 16.1 6.9 16.0 7.25 16.1 M4.8 13.15 L4.8 13.3 4.8 13.35 4.85 13.4 4.85 13.55 5.5 14.8 M7.4 16.1 L7.75 16.25 7.85 16.3 8.1 16.4 8.75 15.95 8.8 15.9 M4.75 12.65 L4.75 12.7 4.8 13.15" fill="none" stroke="#39347e" stroke-linecap="round" stroke-linejoin="round" stroke-width="0.2"/>
      <path d="M6.55 12.7 L7.0 12.0 M7.0 11.8 Q7.2 11.05 8.05 10.65 L8.3 10.55 9.65 10.15 10.0 10.1 10.05 10.1 10.4 10.3 10.6 10.8 M4.15 10.8 L4.4 11.05 4.55 11.2 5.0 12.05 5.0 12.15 5.05 12.25 M5.1 12.4 L5.05 12.5 5.75 13.25 5.8 13.25 M6.45 12.75 L5.95 13.25 5.85 13.35 5.85 13.3 5.8 13.3" fill="none" stroke="#933800" stroke-linecap="round" stroke-linejoin="round" stroke-width="0.2"/>
      <path d="M15.75 10.3 L15.85 10.2 16.0 10.3" fill="none" stroke="#521962" stroke-linecap="round" stroke-linejoin="round" stroke-width="0.2"/>
      <path d="M7.65 3.8 L7.8 4.6 M7.9 5.05 L8.1 6.35 Q6.7 8.7 5.3 9.85 L5.25 9.85 4.65 8.7 4.3 7.95 4.15 7.45 4.0 6.95 3.8 5.85 4.1 4.3 4.15 3.95 4.25 3.5 4.3 3.4 4.35 3.25 4.75 1.8 Q5.25 0.05 6.05 -1.7 6.9 -0.05 7.65 3.8" fill="none" stroke="#0f6bad" stroke-linecap="round" stroke-linejoin="round" stroke-width="0.2"/>
      <path d="M7.2 12.15 L7.1 12.15 Q7.1 11.15 8.2 10.7 L9.5 10.4 10.2 10.2 9.4 11.35 8.8 12.1 8.7 12.15 8.5 12.15 8.05 12.2 7.2 12.15 M8.65 10.9 L8.6 10.9 8.6 10.95 7.85 11.3 7.8 11.4 7.6 11.55 7.25 12.05 7.6 12.1 8.65 11.9 9.2 11.2 9.5 10.55 8.65 10.9" fill="#342f31" fill-rule="evenodd" stroke="none"/>
      <path d="M8.6 10.95 L7.85 11.5 Q7.3 12.0 7.95 11.95 L8.1 11.95 Q8.4 11.95 8.75 11.6 9.15 11.25 9.15 10.9 L9.05 10.85 8.65 10.9 9.5 10.55 9.2 11.2 8.65 11.9 7.6 12.1 7.25 12.05 7.6 11.55 7.8 11.4 7.85 11.3 8.6 10.95" fill="#81a6f8" fill-rule="evenodd" stroke="none"/>
    </g>
    <g id="sprite2" transform="matrix(1.0, 0.0, 0.0, 1.0, 0.0, 0.0)">
      <use ffdec:characterId="5" height="4.7" transform="matrix(1.0, 0.0, 0.0, 1.0, 0.0, 0.0)" width="6.5" xlink:href="#shape4"/>
    </g>
    <g id="shape4" transform="matrix(1.0, 0.0, 0.0, 1.0, 0.0, 0.0)">
      <path d="M5.1 1.75 L5.2 1.55 5.9 0.5 5.75 0.25 5.55 0.05 6.05 0.0 Q6.5 0.0 6.5 0.3 6.5 1.75 4.9 3.25 3.35 4.65 2.15 4.65 L1.4 4.65 Q-1.25 4.95 1.05 2.85 3.3 0.7 4.2 0.35 L4.35 0.3 5.35 0.05 Q5.0 0.5 3.65 1.4 L2.95 1.85 2.25 2.3 1.05 3.35 1.0 3.45 0.95 3.55 1.05 3.75 1.4 3.6 1.7 3.4 Q2.15 3.05 2.65 3.0 L2.75 3.0 3.8 3.1 Q4.0 3.45 4.2 3.45 L4.4 3.4 Q4.45 2.75 4.85 2.1 L5.1 1.75" fill="#bbffee" fill-rule="evenodd" stroke="none"/>
      <path d="M1.4 3.6 L1.05 3.75 0.95 3.55 1.0 3.45 1.0 3.6 1.4 3.6 M1.05 3.35 L2.25 2.3 1.65 2.75 1.05 3.35" fill="#64a8b4" fill-rule="evenodd" stroke="none"/>
      <path d="M5.1 1.75 L4.85 2.1 4.45 1.95 4.95 1.75 5.1 1.75 M2.65 3.0 Q2.15 3.05 1.7 3.4 L1.4 3.6 1.0 3.6 1.0 3.45 1.05 3.35 1.65 2.75 2.25 2.3 2.95 1.85 3.65 1.4 3.7 1.4 Q4.05 1.65 4.05 2.0 4.05 2.45 3.05 2.85 L2.65 3.0" fill="#ffffff" fill-rule="evenodd" stroke="none"/>
      <path d="M5.55 0.05 L5.75 0.25 5.9 0.5 5.2 1.55 5.1 1.75 4.95 1.75 4.45 1.95 4.85 2.1 Q4.45 2.75 4.4 3.4 L4.2 3.45 Q4.0 3.45 3.8 3.1 L2.75 3.0 2.65 3.0 3.05 2.85 Q4.05 2.45 4.05 2.0 4.05 1.65 3.7 1.4 L3.65 1.4 Q5.0 0.5 5.35 0.05 L5.55 0.05" fill="#5bcade" fill-rule="evenodd" stroke="none"/>
    </g>
    <g id="sprite3" transform="matrix(1.0, 0.0, 0.0, 1.0, 0.0, 0.0)">
      <use ffdec:characterId="7" height="16.7" transform="matrix(1.0, 0.0, 0.0, 1.0, 0.0, 0.0)" width="14.7" xlink:href="#shape5"/>
    </g>
    <g id="shape5" transform="matrix(1.0, 0.0, 0.0, 1.0, 0.0, 0.0)">
      <path d="M0.0 9.8 Q0.0 4.8 2.3 2.2 4.3 -0.05 7.35 0.0 10.2 0.05 12.4 2.0 14.7 4.1 14.7 7.0 14.7 9.9 13.35 12.65 11.3 16.7 7.2 16.7 3.25 16.7 1.25 13.4 0.0 11.35 0.0 9.8" fill="#ff83c0" fill-rule="evenodd" stroke="none"/>
    </g>
    <g id="shape6" transform="matrix(1.0, 0.0, 0.0, 1.0, -2.7, 2.2)">
      <path d="M42.4 13.3 L40.2 11.7 49.95 5.8 43.05 13.85 42.4 13.3 M48.5 25.8 L48.5 25.7 48.4 24.95 48.2 23.55 58.55 25.7 48.4 27.25 48.4 27.1 48.5 26.35 48.5 26.15 48.5 25.8 M50.05 45.95 L41.3 40.45 43.15 38.75 43.55 38.45 44.65 37.25 50.05 45.85 50.05 45.95 M30.65 9.0 L30.3 9.0 27.1 9.25 30.65 -2.2 32.7 9.2 30.65 9.0 M15.75 16.0 L10.05 5.9 10.15 5.9 19.0 12.8 17.9 13.55 17.5 13.95 15.75 16.0 M12.2 26.7 L12.3 28.3 2.7 25.95 2.7 25.85 12.3 24.3 12.2 25.7 12.2 25.85 12.2 26.35 12.2 26.7 M19.1 40.15 L10.05 45.95 16.5 37.7 17.3 38.45 17.3 38.55 17.25 38.65 17.3 38.65 17.4 38.75 17.6 38.85 19.1 40.15 M30.3 43.9 L30.65 43.9 32.8 43.8 30.65 53.75 28.5 43.9 30.3 43.9" fill="#eaaa00" fill-rule="evenodd" stroke="none"/>
    </g>
  </defs>
</svg>
