<?xml version="1.0" encoding="UTF-8" standalone="no"?>
<svg xmlns:ffdec="https://www.free-decompiler.com/flash" xmlns:xlink="http://www.w3.org/1999/xlink" ffdec:objectType="frame" height="30.0px" width="30.0px" xmlns="http://www.w3.org/2000/svg">
  <g transform="matrix(1.0, 0.0, 0.0, 1.0, 0.0, 0.0)">
    <use ffdec:characterId="1" height="30.0" transform="matrix(1.0, 0.0, 0.0, 1.0, 0.0, 0.0)" width="30.0" xlink:href="#shape0"/>
    <use ffdec:characterId="9" height="58.95" transform="matrix(0.4236, 0.0, 0.0, 0.4236, 3.0431, 2.5468)" width="58.95" xlink:href="#sprite0"/>
  </g>
  <defs>
    <g id="shape0" transform="matrix(1.0, 0.0, 0.0, 1.0, 0.0, 0.0)">
      <path d="M0.0 30.0 L0.0 0.0 30.0 0.0 30.0 30.0 0.0 30.0" fill="#33cc66" fill-opacity="0.0" fill-rule="evenodd" stroke="none"/>
    </g>
    <g id="sprite0" transform="matrix(1.0, 0.0, 0.0, 1.0, -1.4, 2.25)">
      <use ffdec:characterId="2" height="58.95" transform="matrix(1.0, 0.0, 0.0, 1.0, 1.4, -2.25)" width="58.95" xlink:href="#shape1"/>
      <use ffdec:characterId="8" height="17.1" transform="matrix(-1.8654, 0.0, 0.0, 1.8654, 53.6252, 12.75)" width="20.85" xlink:href="#sprite1"/>
    </g>
    <g id="shape1" transform="matrix(1.0, 0.0, 0.0, 1.0, -1.4, 2.25)">
      <path d="M50.45 47.4 L50.35 47.4 38.25 46.65 30.95 55.2 23.4 46.65 10.25 47.55 10.25 47.4 11.75 34.9 3.0 27.4 2.9 27.3 3.0 27.3 3.15 27.15 11.65 20.35 10.35 7.35 10.35 7.25 10.45 7.25 23.15 8.85 30.95 -0.75 38.4 8.85 50.25 7.25 49.35 19.85 58.85 27.15 49.45 35.25 50.45 47.1 50.45 47.4" fill="#d6d6d6" fill-rule="evenodd" stroke="none"/>
      <path d="M50.45 47.4 L50.45 47.1 49.45 35.25 58.85 27.15 49.35 19.85 50.25 7.25 38.4 8.85 30.95 -0.75 23.15 8.85 10.45 7.25 10.35 7.25 10.35 7.35 11.65 20.35 3.15 27.15 3.0 27.3 2.9 27.3 3.0 27.4 11.75 34.9 10.25 47.4 10.25 47.55 23.4 46.65 30.95 55.2 38.25 46.65 50.35 47.4 50.45 47.4 Z" fill="none" stroke="#430083" stroke-linecap="round" stroke-linejoin="round" stroke-width="3.0"/>
      <path d="M50.25 7.25 L40.5 13.15 Q37.1 11.0 33.0 10.65 L30.95 -0.75 38.4 8.85 50.25 7.25 49.35 19.85 58.85 27.15 49.45 35.25 50.45 47.1 49.9 46.55 44.95 38.7 Q48.5 34.3 48.7 28.7 L58.85 27.15 48.5 25.0 Q47.75 19.7 43.55 15.55 L43.35 15.3 50.25 7.25 M50.35 47.4 L38.25 46.65 30.95 55.2 23.4 46.65 10.25 47.55 10.25 47.45 10.35 47.4 19.4 41.6 Q23.5 44.85 28.8 45.35 L30.95 55.2 33.1 45.25 Q37.75 44.6 41.6 41.9 L50.35 47.4 M10.25 47.4 L11.75 34.9 3.0 27.4 12.6 29.75 Q13.15 35.15 16.8 39.15 L10.35 47.4 10.25 47.4 M3.15 27.15 L11.65 20.35 10.35 7.35 16.05 17.45 Q13.15 21.15 12.6 25.75 L4.2 27.15 4.1 27.15 3.15 27.15 M10.45 7.25 L23.15 8.85 30.95 -0.75 27.4 10.7 Q23.05 11.4 19.5 14.1 L19.3 14.25 10.45 7.35 10.45 7.25" fill="#cccccc" fill-rule="evenodd" stroke="none"/>
      <path d="M40.5 13.15 L50.25 7.25 43.35 15.3 42.7 14.75 40.5 13.15 M30.95 -0.75 L33.0 10.65 30.95 10.45 30.6 10.45 27.4 10.7 30.95 -0.75 M48.7 28.7 L48.7 28.55 48.8 27.8 48.8 27.6 48.8 27.25 48.8 27.15 48.7 26.4 48.5 25.0 58.85 27.15 48.7 28.7 M44.95 38.7 L49.9 46.55 50.35 47.3 50.35 47.4 41.6 41.9 43.45 40.2 43.85 39.9 44.95 38.7 M33.1 45.25 L30.95 55.2 28.8 45.35 30.6 45.35 30.95 45.35 33.1 45.25 M19.4 41.6 L10.35 47.4 16.8 39.15 17.6 39.9 17.6 40.0 17.55 40.1 17.6 40.1 17.7 40.2 17.9 40.3 19.4 41.6 M10.35 7.35 L10.45 7.35 19.3 14.25 18.2 15.0 17.8 15.4 16.05 17.45 10.35 7.35 M12.6 25.75 L12.5 27.15 12.5 27.3 12.5 27.8 12.5 28.15 12.6 29.75 3.0 27.4 3.0 27.3 3.55 27.25 4.1 27.15 4.2 27.15 12.6 25.75" fill="#ffffff" fill-rule="evenodd" stroke="none"/>
      <path d="M33.0 10.65 Q37.1 11.0 40.5 13.15 L42.7 14.75 43.35 15.3 43.55 15.55 Q47.75 19.7 48.5 25.0 L48.7 26.4 48.8 27.15 48.8 27.25 48.8 27.6 48.8 27.8 48.7 28.55 48.7 28.7 Q48.5 34.3 44.95 38.7 L43.85 39.9 43.45 40.2 41.6 41.9 Q37.75 44.6 33.1 45.25 L30.95 45.35 30.6 45.35 28.8 45.35 Q23.5 44.85 19.4 41.6 L17.9 40.3 17.7 40.2 17.6 40.1 17.6 40.0 17.6 39.9 16.8 39.15 Q13.15 35.15 12.6 29.75 L12.5 28.15 12.5 27.8 12.5 27.3 12.5 27.15 12.6 25.75 Q13.15 21.15 16.05 17.45 L17.8 15.4 18.2 15.0 19.3 14.25 19.5 14.1 Q23.05 11.4 27.4 10.7 L30.6 10.45 30.95 10.45 33.0 10.65 M41.95 17.35 L41.8 17.05 Q37.1 12.75 30.5 12.75 24.15 12.75 19.4 17.05 14.75 21.65 14.75 27.9 14.75 33.75 18.75 38.15 23.95 43.1 30.5 43.1 37.1 43.1 41.8 38.7 L42.05 38.4 Q46.35 34.05 46.35 27.9 46.35 21.8 41.95 17.35" fill="#e9c0e9" fill-rule="evenodd" stroke="none"/>
      <path d="M41.95 17.35 Q46.35 21.8 46.35 27.9 46.35 34.05 42.05 38.4 L41.8 38.7 Q37.1 43.1 30.5 43.1 23.95 43.1 18.75 38.15 14.75 33.75 14.75 27.9 14.75 21.65 19.4 17.05 24.15 12.75 30.5 12.75 37.1 12.75 41.8 17.05 L41.95 17.35" fill="#4b1c6c" fill-rule="evenodd" stroke="none"/>
      <path d="M50.45 47.1 L50.45 47.4 50.35 47.4 50.35 47.3 49.9 46.55 50.45 47.1" fill="url(#gradient0)" fill-rule="evenodd" stroke="none"/>
      <path d="M10.35 7.25 L10.45 7.25 10.45 7.35 10.35 7.25" fill="url(#gradient1)" fill-rule="evenodd" stroke="none"/>
      <path d="M10.35 7.35 L10.35 7.25 10.45 7.35 10.35 7.35" fill="url(#gradient2)" fill-rule="evenodd" stroke="none"/>
      <path d="M10.25 47.45 L10.25 47.4 10.35 47.4 10.25 47.45 M3.0 27.4 L2.9 27.3 3.0 27.3 3.05 27.25 3.55 27.25 3.0 27.3 3.0 27.4" fill="url(#gradient3)" fill-rule="evenodd" stroke="none"/>
      <path d="M3.05 27.25 L3.15 27.15 4.1 27.15 3.55 27.25 3.05 27.25" fill="url(#gradient4)" fill-rule="evenodd" stroke="none"/>
      <path d="M17.6 40.0 L17.6 40.1 17.55 40.1 17.6 40.0" fill="url(#gradient5)" fill-rule="evenodd" stroke="none"/>
      <path d="M41.85 17.45 Q46.25 21.8 46.25 27.8 46.25 33.85 41.95 38.15 L41.7 38.4 39.75 40.0 Q41.6 22.75 29.1 12.95 L30.4 12.95 Q37.1 12.95 41.7 17.25 L41.85 17.45" fill="#ffffff" fill-opacity="0.2" fill-rule="evenodd" stroke="none"/>
      <path d="M43.55 27.4 Q43.35 28.15 42.35 28.35 41.7 28.45 41.05 27.9 40.55 27.4 40.5 26.95 40.2 25.55 41.8 25.35 43.25 25.2 43.45 26.65 L43.55 27.4 M42.35 22.55 L42.35 23.2 Q42.15 23.8 41.15 23.95 L38.9 21.45 36.85 18.3 Q36.55 16.95 37.3 16.8 37.95 16.6 39.1 17.55 41.8 19.6 42.35 22.55" fill="#ffffff" fill-rule="evenodd" stroke="none"/>
    </g>
    <linearGradient gradientTransform="matrix(-0.0119, 0.0, 0.0, 0.0092, 40.75, 47.65)" gradientUnits="userSpaceOnUse" id="gradient0" spreadMethod="pad" x1="-819.2" x2="819.2">
      <stop offset="0.0" stop-color="#fd9e0c"/>
      <stop offset="1.0" stop-color="#fddd27"/>
    </linearGradient>
    <linearGradient gradientTransform="matrix(-0.0126, 0.0, 0.0, 0.0096, 20.6, 7.2)" gradientUnits="userSpaceOnUse" id="gradient1" spreadMethod="pad" x1="-819.2" x2="819.2">
      <stop offset="0.0" stop-color="#fd9b0b"/>
      <stop offset="1.0" stop-color="#fde42b"/>
    </linearGradient>
    <linearGradient gradientTransform="matrix(-0.0092, 0.0, 0.0, 0.0121, 10.7, 17.05)" gradientUnits="userSpaceOnUse" id="gradient2" spreadMethod="pad" x1="-819.2" x2="819.2">
      <stop offset="0.0" stop-color="#5f2288"/>
      <stop offset="1.0" stop-color="#a276cd"/>
    </linearGradient>
    <linearGradient gradientTransform="matrix(-0.009, 0.0, 0.0, 0.0124, 10.25, 37.2)" gradientUnits="userSpaceOnUse" id="gradient3" spreadMethod="pad" x1="-819.2" x2="819.2">
      <stop offset="0.0" stop-color="#fd9e0c"/>
      <stop offset="1.0" stop-color="#fddd27"/>
    </linearGradient>
    <linearGradient gradientTransform="matrix(-0.009, 0.0, 0.0, 0.0124, 10.25, 37.2)" gradientUnits="userSpaceOnUse" id="gradient4" spreadMethod="pad" x1="-819.2" x2="819.2">
      <stop offset="0.0" stop-color="#8d010c"/>
      <stop offset="1.0" stop-color="#f2b03f"/>
    </linearGradient>
    <linearGradient gradientTransform="matrix(-0.0127, 0.0, 0.0, 0.0093, 20.6, 47.55)" gradientUnits="userSpaceOnUse" id="gradient5" spreadMethod="pad" x1="-819.2" x2="819.2">
      <stop offset="0.0" stop-color="#65298e"/>
      <stop offset="1.0" stop-color="#9a6cc5"/>
    </linearGradient>
    <g id="sprite1" transform="matrix(1.0, 0.0, 0.0, 1.0, 3.9, 0.0)">
      <clipPath id="clipPath0" transform="matrix(1.0, 0.0, 0.0, 1.0, 0.0, 0.0)">
        <path d="M14.45 2.3 Q16.95 4.75 16.95 8.1 16.95 11.25 14.8 13.6 12.0 16.25 8.5 16.25 4.95 16.25 2.45 13.9 L2.3 13.75 Q0.0 11.4 0.0 8.1 0.0 4.85 2.35 2.45 L2.45 2.3 Q4.95 0.0 8.5 0.0 11.9 0.0 14.45 2.3" fill="#4b1c6c" fill-rule="evenodd" stroke="none"/>
      </clipPath>
      <g clip-path="url(#clipPath0)">
        <use ffdec:characterId="4" height="17.25" transform="matrix(0.3829, 0.0, 0.0, 0.3829, 8.1427, 10.2016)" width="22.9" xlink:href="#shape3"/>
        <use ffdec:characterId="5" height="26.4" transform="matrix(0.3829, 0.0, 0.0, 0.3829, -3.4912, 6.9892)" width="49.4" xlink:href="#shape4"/>
        <use ffdec:characterId="6" height="19.8" transform="matrix(0.3829, 0.0, 0.0, 0.3829, -3.9012, 9.0453)" width="24.05" xlink:href="#shape5"/>
        <use ffdec:characterId="7" height="23.95" transform="matrix(0.3829, 0.0, 0.0, 0.3829, 2.0429, 1.2053)" width="31.85" xlink:href="#shape6"/>
      </g>
    </g>
    <g id="shape3" transform="matrix(1.0, 0.0, 0.0, 1.0, 13.6, 29.9)">
      <path d="M-3.25 -29.65 Q3.1 -23.45 7.0 -16.75 L9.05 -12.9 -11.15 -12.9 -11.4 -13.8 Q-12.6 -18.95 -12.9 -23.45 L-12.6 -23.9 -10.15 -26.0 Q-6.6 -28.65 -3.25 -29.65" fill="#f4f6f5" fill-rule="evenodd" stroke="none"/>
      <path d="M-11.15 -12.9 L-12.5 -12.9 -12.55 -13.1 -13.35 -20.75 -13.1 -22.85 -12.9 -23.45 Q-12.6 -18.95 -11.4 -13.8 L-11.15 -12.9" fill="#d0d5db" fill-rule="evenodd" stroke="none"/>
      <path d="M-3.25 -29.65 Q3.1 -23.45 7.0 -16.75 L9.05 -12.9" fill="none" stroke="#6b67c5" stroke-linecap="round" stroke-linejoin="round" stroke-width="0.5"/>
      <path d="M-12.5 -12.9 L-12.55 -13.1 -13.35 -20.75 -13.1 -22.85 -12.9 -23.45 -12.6 -23.9" fill="none" stroke="#9c99ee" stroke-linecap="round" stroke-linejoin="round" stroke-width="0.5"/>
    </g>
    <g id="shape4" transform="matrix(1.0, 0.0, 0.0, 1.0, 27.4, 33.85)">
      <path d="M18.35 -16.0 L18.0 -15.8 17.35 -15.55 Q15.9 -15.55 14.65 -16.3 13.4 -17.1 13.4 -18.05 L13.45 -18.6 13.5 -18.85 13.2 -18.6 13.15 -18.25 Q13.15 -16.95 14.45 -16.1 15.6 -15.35 16.95 -15.35 L18.0 -15.4 18.45 -15.75 19.75 -12.75 19.55 -12.45 18.75 -11.65 15.45 -12.4 9.4 -13.0 4.05 -12.3 -0.3 -11.3 Q-1.7 -12.25 -2.95 -14.6 L-4.35 -17.8 -5.1 -20.75 -5.85 -20.35 -6.8 -19.65 -7.45 -18.95 Q-10.7 -22.3 -16.4 -22.3 -17.25 -22.3 -19.55 -21.25 L-20.35 -20.85 -19.1 -22.7 Q-17.0 -25.75 -14.4 -28.4 -13.1 -26.75 -10.65 -25.35 L-8.1 -24.0 -5.85 -22.95 Q-2.0 -21.15 2.25 -21.05 8.5 -20.85 14.65 -22.1 L16.55 -19.3 18.35 -16.0 M6.85 -18.8 L6.05 -19.05 3.8 -19.5 1.2 -19.2 Q0.0 -18.85 -1.25 -17.95 -1.8 -17.4 -1.8 -16.4 -1.8 -15.3 -0.7 -14.7 0.2 -14.15 1.5 -14.15 L3.1 -14.4 5.05 -15.0 5.35 -15.0 6.95 -15.15 Q7.7 -15.3 8.0 -15.7 8.35 -16.15 8.35 -17.0 8.35 -18.15 6.85 -18.8 M-3.4 -8.25 Q1.1 -10.35 6.0 -11.2 11.1 -12.05 16.2 -11.35 L17.15 -11.2 Q19.35 -9.85 21.25 -8.15 L21.75 -7.7 -3.35 -7.7 -3.4 -8.25" fill="#f4f6f5" fill-rule="evenodd" stroke="none"/>
      <path d="M18.45 -15.75 L18.0 -15.4 16.95 -15.35 Q15.6 -15.35 14.45 -16.1 13.15 -16.95 13.15 -18.25 L13.2 -18.6 13.5 -18.85 13.45 -18.6 13.4 -18.05 Q13.4 -17.1 14.65 -16.3 15.9 -15.55 17.35 -15.55 L18.0 -15.8 18.35 -16.0 18.45 -15.75 M-20.35 -20.85 L-19.55 -21.25 Q-17.25 -22.3 -16.4 -22.3 -10.7 -22.3 -7.45 -18.95 L-5.75 -16.75 -5.6 -16.5 Q-3.8 -13.25 -3.4 -8.25 L-3.35 -7.7 -27.15 -7.7 Q-25.6 -11.9 -23.1 -16.3 L-20.35 -20.85 M-4.35 -17.8 L-2.95 -14.6 Q-1.7 -12.25 -0.3 -11.3 L4.05 -12.3 9.4 -13.0 15.45 -12.4 18.75 -11.65 19.55 -12.45 19.75 -12.75 21.25 -8.15 Q19.35 -9.85 17.15 -11.2 L16.2 -11.35 Q11.1 -12.05 6.0 -11.2 1.1 -10.35 -3.4 -8.25 -3.8 -13.25 -5.6 -16.5 L-5.75 -16.75 -5.05 -17.35 -4.35 -17.8" fill="#e2e5ea" fill-rule="evenodd" stroke="none"/>
      <path d="M14.65 -22.1 Q8.5 -20.85 2.25 -21.05 -2.0 -21.15 -5.85 -22.95 L-8.1 -24.0 -10.65 -25.35 Q-13.1 -26.75 -14.4 -28.4 L-13.4 -29.35 Q-9.3 -24.4 -2.85 -22.75 3.4 -21.1 9.8 -22.3 L13.65 -23.4 14.4 -22.45 14.65 -22.1" fill="#d7dadf" fill-rule="evenodd" stroke="none"/>
      <path d="M6.85 -18.8 Q8.35 -18.15 8.35 -17.0 8.35 -16.15 8.0 -15.7 7.7 -15.3 6.95 -15.15 L5.35 -15.0 5.05 -15.0 3.1 -14.4 1.5 -14.15 Q0.2 -14.15 -0.7 -14.7 -1.8 -15.3 -1.8 -16.4 -1.8 -17.4 -1.25 -17.95 0.0 -18.85 1.2 -19.2 L3.8 -19.5 6.05 -19.05 6.85 -18.8" fill="#ffffff" fill-rule="evenodd" stroke="none"/>
      <path d="M13.65 -23.4 L9.8 -22.3 Q3.4 -21.1 -2.85 -22.75 -9.3 -24.4 -13.4 -29.35 L-12.35 -30.3 -12.3 -30.35 -8.35 -33.6 Q-0.7 -33.45 5.35 -30.25 10.05 -27.7 13.65 -23.4" fill="#bdc4cc" fill-rule="evenodd" stroke="none"/>
      <path d="M-7.45 -18.95 L-6.8 -19.65 -5.85 -20.35 -5.1 -20.75 -4.35 -17.8 -5.05 -17.35 -5.75 -16.75 -7.45 -18.95" fill="#ecedef" fill-rule="evenodd" stroke="none"/>
      <path d="M18.35 -16.0 L16.55 -19.3 14.65 -22.1 14.4 -22.45 13.65 -23.4 Q10.05 -27.7 5.35 -30.25 -0.7 -33.45 -8.35 -33.6 L-12.3 -30.35 -12.35 -30.3 -13.4 -29.35 -14.4 -28.4 Q-17.0 -25.75 -19.1 -22.7 L-20.35 -20.85 -23.1 -16.3 Q-25.6 -11.9 -27.15 -7.7 M19.75 -12.75 L18.45 -15.75 18.35 -16.0 M21.25 -8.15 L19.75 -12.75 M21.25 -8.15 L21.75 -7.7" fill="none" stroke="#6b67c5" stroke-linecap="round" stroke-linejoin="round" stroke-width="0.5"/>
      <path d="M-20.35 -20.85 L-19.55 -21.25 Q-17.25 -22.3 -16.4 -22.3 -10.7 -22.3 -7.45 -18.95 L-5.75 -16.75 -5.6 -16.5 Q-3.8 -13.25 -3.4 -8.25 L-3.35 -7.7 M-3.4 -8.25 Q1.1 -10.35 6.0 -11.2 11.1 -12.05 16.2 -11.35 L17.15 -11.2 Q19.35 -9.85 21.25 -8.15" fill="none" stroke="#9c99ee" stroke-linecap="round" stroke-linejoin="round" stroke-width="0.5"/>
    </g>
    <g id="shape5" transform="matrix(1.0, 0.0, 0.0, 1.0, 10.45, 30.7)">
      <path d="M3.2 -30.45 Q6.6 -29.45 10.15 -26.8 L12.6 -24.7 12.85 -24.25 Q12.6 -19.75 11.4 -14.6 L10.5 -11.15 1.15 -11.15 Q0.3 -12.95 -1.15 -14.4 L-0.55 -14.15 Q0.7 -13.7 1.9 -13.7 L3.0 -13.9 3.1 -13.95 5.15 -18.6 8.4 -25.5 6.85 -26.55 Q5.45 -27.35 4.75 -27.35 L4.35 -27.3 Q3.3 -26.35 2.2 -24.8 -0.6 -20.9 -2.25 -15.5 L-2.25 -15.35 Q-3.3 -16.2 -4.6 -16.75 L-5.6 -17.15 -7.05 -17.5 Q-3.1 -24.25 3.2 -30.45" fill="#f4f6f5" fill-rule="evenodd" stroke="none"/>
      <path d="M-7.05 -17.5 L-5.6 -17.15 -7.3 -14.0 -8.65 -11.15 -10.2 -11.15 Q-8.9 -14.4 -7.05 -17.5 M-2.25 -15.35 L-2.25 -15.5 Q-0.6 -20.9 2.2 -24.8 3.3 -26.35 4.35 -27.3 L4.75 -27.35 Q5.45 -27.35 6.85 -26.55 L8.4 -25.5 5.15 -18.6 3.1 -13.95 3.0 -13.9 1.9 -13.7 Q0.7 -13.7 -0.55 -14.15 L-1.15 -14.4 -1.25 -14.5 -2.2 -15.35 -2.25 -15.35" fill="#ffffff" fill-rule="evenodd" stroke="none"/>
      <path d="M10.5 -11.15 L11.4 -14.6 Q12.6 -19.75 12.85 -24.25 L13.1 -23.65 13.35 -21.55 12.55 -13.9 12.35 -11.95 12.35 -11.9 12.3 -11.7 12.25 -11.15 10.5 -11.15" fill="#d0d5db" fill-rule="evenodd" stroke="none"/>
      <path d="M-5.6 -17.15 L-4.6 -16.75 Q-3.3 -16.2 -2.25 -15.35 L-2.2 -15.35 -1.25 -14.5 -1.15 -14.4 Q0.3 -12.95 1.15 -11.15 L-8.65 -11.15 -7.3 -14.0 -5.6 -17.15" fill="#e7e6ec" fill-rule="evenodd" stroke="none"/>
      <path d="M12.85 -24.25 L12.6 -24.7 M12.85 -24.25 L13.1 -23.65 13.35 -21.55 12.55 -13.9 12.35 -11.95 12.35 -11.9 12.3 -11.7" fill="none" stroke="#9c99ee" stroke-linecap="round" stroke-linejoin="round" stroke-width="0.5"/>
      <path d="M3.2 -30.45 Q-3.1 -24.25 -7.05 -17.5 -8.9 -14.4 -10.2 -11.15 M12.3 -11.7 L12.25 -11.15" fill="none" stroke="#6b67c5" stroke-linecap="round" stroke-linejoin="round" stroke-width="0.5"/>
    </g>
    <g id="shape6" transform="matrix(1.0, 0.0, 0.0, 1.0, 15.95, 12.0)">
      <path d="M-13.6 -7.65 L-11.15 -9.7 -10.75 -9.9 Q-7.95 -11.35 -4.75 -11.65 L1.55 -11.3 Q4.65 -10.6 7.5 -9.15 L10.75 -7.05 13.0 -5.0 Q14.75 -3.1 15.35 -0.6 L15.55 0.25 Q15.8 2.15 15.4 4.05 14.8 6.7 13.05 8.65 L12.0 8.9 11.05 9.0 9.7 9.1 8.45 9.1 6.4 8.95 0.4 7.85 Q-2.5 6.9 -5.05 5.35 -7.7 3.7 -9.85 1.5 L-12.35 -1.4 -13.25 -1.9 -14.2 -2.2 -14.3 -3.75 -14.0 -6.6 -13.6 -7.65 M0.0 -3.5 L1.35 -3.7 2.95 -4.35 Q4.9 -5.35 4.9 -6.55 4.9 -8.65 2.05 -9.7 -0.25 -10.55 -3.55 -10.55 -5.1 -10.55 -6.5 -9.85 L-7.35 -9.35 -7.85 -8.75 -8.1 -7.8 Q-8.1 -5.65 -5.3 -4.45 -3.05 -3.5 0.0 -3.5" fill="#f4f6f5" fill-rule="evenodd" stroke="none"/>
      <path d="M-13.6 -7.65 L-14.0 -6.6 -14.3 -3.75 -14.2 -2.2 Q-14.05 -0.5 -13.55 1.0 L-12.7 2.95 -12.65 3.1 -12.65 3.2 -12.55 3.65 -12.7 4.45 -13.05 5.15 -14.8 2.6 Q-15.75 0.5 -15.7 -1.85 -15.65 -5.3 -13.6 -7.65 M0.0 -3.5 Q-3.05 -3.5 -5.3 -4.45 -8.1 -5.65 -8.1 -7.8 L-7.85 -8.75 -7.35 -9.35 -6.5 -9.85 Q-5.1 -10.55 -3.55 -10.55 -0.25 -10.55 2.05 -9.7 4.9 -8.65 4.9 -6.55 4.9 -5.35 2.95 -4.35 L1.35 -3.7 0.0 -3.5" fill="#ffffff" fill-rule="evenodd" stroke="none"/>
      <path d="M-14.2 -2.2 L-13.25 -1.9 -12.35 -1.4 -9.85 1.5 Q-7.7 3.7 -5.05 5.35 -2.5 6.9 0.4 7.85 L6.4 8.95 8.45 9.1 9.7 9.1 11.05 9.0 12.0 8.9 13.05 8.65 13.0 8.75 12.5 9.2 Q11.4 10.25 10.05 10.85 L8.25 10.95 8.1 11.0 7.4 11.05 3.0 10.8 Q-0.15 10.35 -3.15 9.3 -4.8 8.75 -6.4 8.0 L-6.5 7.95 -8.45 6.9 -8.75 6.7 -8.85 6.65 Q-11.1 5.25 -12.65 3.1 L-12.7 2.95 -13.55 1.0 Q-14.05 -0.5 -14.2 -2.2" fill="#d0d5db" fill-rule="evenodd" stroke="none"/>
      <path d="M10.05 10.85 L8.55 11.3 8.1 11.4 7.7 11.45 3.35 11.7 2.85 11.65 1.9 11.55 0.7 11.4 -2.35 10.8 Q-5.25 10.05 -8.0 8.7 L-8.9 8.25 Q-11.15 7.1 -12.95 5.3 L-13.05 5.15 -12.7 4.45 -12.55 3.65 -12.65 3.2 -12.65 3.1 Q-11.1 5.25 -8.85 6.65 L-8.75 6.7 -8.45 6.9 -6.5 7.95 -6.4 8.0 Q-4.8 8.75 -3.15 9.3 -0.15 10.35 3.0 10.8 L7.4 11.05 8.1 11.0 8.25 10.95 10.05 10.85" fill="#e2e5ea" fill-rule="evenodd" stroke="none"/>
      <path d="M13.05 8.65 Q14.8 6.7 15.4 4.05 15.8 2.15 15.55 0.25 L15.35 -0.6 Q14.75 -3.1 13.0 -5.0 L10.75 -7.05 7.5 -9.15 Q4.65 -10.6 1.55 -11.3 L-4.75 -11.65 Q-7.95 -11.35 -10.75 -9.9 L-11.15 -9.7 -13.6 -7.65 Q-15.65 -5.3 -15.7 -1.85 -15.75 0.5 -14.8 2.6 L-13.05 5.15 -12.95 5.3 Q-11.15 7.1 -8.9 8.25 L-8.0 8.7 Q-5.25 10.05 -2.35 10.8 L0.7 11.4 1.9 11.55 2.85 11.65 3.35 11.7 7.7 11.45 8.1 11.4 8.55 11.3 10.05 10.85 Q11.4 10.25 12.5 9.2 L13.0 8.75 13.05 8.65 Z" fill="none" stroke="#6b67c5" stroke-linecap="round" stroke-linejoin="round" stroke-width="0.5"/>
      <path d="M5.9 -0.85 Q6.7 -0.85 7.25 0.05 7.7 0.8 7.7 1.65 L7.65 2.2 Q10.45 2.95 13.3 2.7 L13.45 2.65 13.9 1.8 Q14.5 0.85 15.1 0.85 L15.4 0.95 15.55 1.15 15.6 1.75 15.45 2.95 15.35 3.4 15.25 3.75 14.9 4.4 14.1 4.85 13.65 4.65 13.5 4.5 13.4 4.25 13.3 3.5 8.05 3.2 7.45 3.0 7.05 3.55 Q6.45 4.2 5.35 4.2 4.15 4.2 3.7 3.5 3.4 3.0 3.4 1.85 3.4 1.3 3.95 0.3 L4.25 -0.2 4.75 -0.55 5.9 -0.85" fill="#343263" fill-rule="evenodd" stroke="none"/>
    </g>
  </defs>
</svg>
