<?xml version="1.0" encoding="UTF-8" standalone="no"?>
<svg xmlns:ffdec="https://www.free-decompiler.com/flash" xmlns:xlink="http://www.w3.org/1999/xlink" ffdec:objectType="frame" height="30.0px" width="30.0px" xmlns="http://www.w3.org/2000/svg">
  <g transform="matrix(1.0, 0.0, 0.0, 1.0, 0.0, 0.0)">
    <use ffdec:characterId="1" height="30.0" transform="matrix(1.0, 0.0, 0.0, 1.0, 0.0, 0.0)" width="30.0" xlink:href="#shape0"/>
    <use ffdec:characterId="7" height="58.95" transform="matrix(0.4661, 0.0, 0.0, 0.4661, 1.0627, 1.4756)" width="58.95" xlink:href="#sprite0"/>
  </g>
  <defs>
    <g id="shape0" transform="matrix(1.0, 0.0, 0.0, 1.0, 0.0, 0.0)">
      <path d="M30.0 30.0 L0.0 30.0 0.0 0.0 30.0 0.0 30.0 30.0" fill="#33cc66" fill-opacity="0.0" fill-rule="evenodd" stroke="none"/>
    </g>
    <g id="sprite0" transform="matrix(1.0, 0.0, 0.0, 1.0, -1.1, 3.7)">
      <use ffdec:characterId="2" height="58.95" transform="matrix(1.0, 0.0, 0.0, 1.0, 1.1, -3.7)" width="58.95" xlink:href="#shape1"/>
      <use ffdec:characterId="5" height="22.95" transform="matrix(-1.8654, 0.0, 0.0, 1.8654, 48.4751, 4.2113)" width="20.15" xlink:href="#sprite1"/>
      <use ffdec:characterId="6" height="55.95" transform="matrix(1.0, 0.0, 0.0, 1.0, 2.7, -2.2)" width="55.85" xlink:href="#shape4"/>
    </g>
    <g id="shape1" transform="matrix(1.0, 0.0, 0.0, 1.0, -1.1, 3.7)">
      <path d="M58.55 25.7 L49.15 33.8 50.15 45.65 50.15 45.95 50.05 45.95 37.95 45.2 30.65 53.75 23.1 45.2 9.95 46.1 9.95 45.95 11.45 33.45 2.7 25.95 2.6 25.85 2.7 25.85 2.85 25.7 11.35 18.9 10.05 5.9 10.05 5.8 10.15 5.8 22.85 7.4 30.65 -2.2 38.1 7.4 49.95 5.8 49.05 18.4 58.55 25.7" fill="#d6d6d6" fill-rule="evenodd" stroke="none"/>
      <path d="M58.55 25.7 L49.05 18.4 49.95 5.8 38.1 7.4 30.65 -2.2 22.85 7.4 10.15 5.8 10.05 5.8 10.05 5.9 11.35 18.9 2.85 25.7 2.7 25.85 2.6 25.85 2.7 25.95 11.45 33.45 9.95 45.95 9.95 46.1 23.1 45.2 30.65 53.75 37.95 45.2 50.05 45.95 50.15 45.95 50.15 45.65 49.15 33.8 58.55 25.7 Z" fill="none" stroke="#562216" stroke-linecap="round" stroke-linejoin="round" stroke-width="3.0"/>
      <path d="M43.05 13.85 L49.95 5.8 49.05 18.4 58.55 25.7 48.2 23.55 Q47.45 18.25 43.25 14.1 L43.05 13.85 M48.4 27.25 L58.55 25.7 49.15 33.8 50.15 45.65 49.6 45.1 44.65 37.25 Q48.2 32.85 48.4 27.25 M50.05 45.95 L37.95 45.2 30.65 53.75 23.1 45.2 9.95 46.1 9.95 46.0 10.05 45.95 19.1 40.15 Q23.2 43.4 28.5 43.9 L30.65 53.75 32.8 43.8 Q37.45 43.15 41.3 40.45 L50.05 45.95 M9.95 45.95 L11.45 33.45 2.7 25.95 12.3 28.3 Q12.85 33.7 16.5 37.7 L10.05 45.95 9.95 45.95 M2.85 25.7 L11.35 18.9 10.05 5.9 15.75 16.0 Q12.85 19.7 12.3 24.3 L3.8 25.7 2.85 25.7 M10.15 5.8 L22.85 7.4 30.65 -2.2 38.1 7.4 49.95 5.8 40.2 11.7 Q36.8 9.55 32.7 9.2 L30.65 -2.2 27.1 9.25 Q22.75 9.95 19.2 12.65 L19.0 12.8 10.15 5.9 10.15 5.8" fill="#faeeee" fill-rule="evenodd" stroke="none"/>
      <path d="M43.05 13.85 L43.25 14.1 Q47.45 18.25 48.2 23.55 L48.4 24.95 48.5 25.7 48.5 25.8 48.5 26.15 48.5 26.35 48.4 27.1 48.4 27.25 Q48.2 32.85 44.65 37.25 L43.55 38.45 43.15 38.75 41.3 40.45 Q37.45 43.15 32.8 43.8 L30.65 43.9 30.3 43.9 28.5 43.9 Q23.2 43.4 19.1 40.15 L17.6 38.85 17.4 38.75 17.3 38.65 17.3 38.55 17.3 38.45 16.5 37.7 Q12.85 33.7 12.3 28.3 L12.2 26.7 12.2 26.35 12.2 25.85 12.2 25.7 12.3 24.3 Q12.85 19.7 15.75 16.0 L17.5 13.95 17.9 13.55 19.0 12.8 19.2 12.65 Q22.75 9.95 27.1 9.25 L30.3 9.0 30.65 9.0 32.7 9.2 Q36.8 9.55 40.2 11.7 L42.4 13.3 43.05 13.85" fill="#460e1d" fill-rule="evenodd" stroke="none"/>
      <path d="M50.15 45.65 L50.15 45.95 50.05 45.95 50.05 45.85 49.6 45.1 50.15 45.65" fill="url(#gradient0)" fill-rule="evenodd" stroke="none"/>
      <path d="M10.05 5.8 L10.15 5.8 10.15 5.9 10.05 5.8" fill="url(#gradient1)" fill-rule="evenodd" stroke="none"/>
      <path d="M10.05 5.9 L10.05 5.8 10.15 5.9 10.05 5.9" fill="url(#gradient2)" fill-rule="evenodd" stroke="none"/>
      <path d="M9.95 46.0 L9.95 45.95 10.05 45.95 9.95 46.0 M2.7 25.95 L2.6 25.85 2.7 25.85 2.75 25.8 3.25 25.8 2.7 25.85 2.7 25.95" fill="url(#gradient3)" fill-rule="evenodd" stroke="none"/>
      <path d="M2.75 25.8 L2.85 25.7 3.8 25.7 3.25 25.8 2.75 25.8" fill="url(#gradient4)" fill-rule="evenodd" stroke="none"/>
      <path d="M17.3 38.55 L17.3 38.65 17.25 38.65 17.3 38.55" fill="url(#gradient5)" fill-rule="evenodd" stroke="none"/>
      <path d="M41.4 36.95 L39.45 38.55 Q41.3 21.3 28.8 11.5 L30.1 11.5 Q36.8 11.5 41.4 15.8 L41.55 16.0 Q45.95 20.35 45.95 26.35 45.95 32.4 41.65 36.7 L41.4 36.95" fill="#ffffff" fill-opacity="0.2" fill-rule="evenodd" stroke="none"/>
      <path d="M41.5 23.9 Q42.95 23.75 43.15 25.2 L43.25 25.95 Q43.05 26.7 42.05 26.9 41.4 27.0 40.75 26.45 40.25 25.95 40.2 25.5 39.9 24.1 41.5 23.9 M42.05 21.1 L42.05 21.75 Q41.85 22.35 40.85 22.5 40.65 22.5 38.6 20.0 L36.55 16.85 Q36.25 15.5 37.0 15.35 37.65 15.15 38.8 16.1 41.5 18.15 42.05 21.1" fill="#ffffff" fill-rule="evenodd" stroke="none"/>
    </g>
    <linearGradient gradientTransform="matrix(-0.0119, 0.0, 0.0, 0.0092, 40.45, 46.2)" gradientUnits="userSpaceOnUse" id="gradient0" spreadMethod="pad" x1="-819.2" x2="819.2">
      <stop offset="0.0" stop-color="#fd9e0c"/>
      <stop offset="1.0" stop-color="#fddd27"/>
    </linearGradient>
    <linearGradient gradientTransform="matrix(-0.0126, 0.0, 0.0, 0.0096, 20.3, 5.75)" gradientUnits="userSpaceOnUse" id="gradient1" spreadMethod="pad" x1="-819.2" x2="819.2">
      <stop offset="0.0" stop-color="#fd9b0b"/>
      <stop offset="1.0" stop-color="#fde42b"/>
    </linearGradient>
    <linearGradient gradientTransform="matrix(-0.0092, 0.0, 0.0, 0.0121, 10.4, 15.6)" gradientUnits="userSpaceOnUse" id="gradient2" spreadMethod="pad" x1="-819.2" x2="819.2">
      <stop offset="0.0" stop-color="#5f2288"/>
      <stop offset="1.0" stop-color="#a276cd"/>
    </linearGradient>
    <linearGradient gradientTransform="matrix(-0.009, 0.0, 0.0, 0.0124, 9.95, 35.75)" gradientUnits="userSpaceOnUse" id="gradient3" spreadMethod="pad" x1="-819.2" x2="819.2">
      <stop offset="0.0" stop-color="#fd9e0c"/>
      <stop offset="1.0" stop-color="#fddd27"/>
    </linearGradient>
    <linearGradient gradientTransform="matrix(-0.009, 0.0, 0.0, 0.0124, 9.95, 35.75)" gradientUnits="userSpaceOnUse" id="gradient4" spreadMethod="pad" x1="-819.2" x2="819.2">
      <stop offset="0.0" stop-color="#8d010c"/>
      <stop offset="1.0" stop-color="#f2b03f"/>
    </linearGradient>
    <linearGradient gradientTransform="matrix(-0.0127, 0.0, 0.0, 0.0093, 20.3, 46.1)" gradientUnits="userSpaceOnUse" id="gradient5" spreadMethod="pad" x1="-819.2" x2="819.2">
      <stop offset="0.0" stop-color="#65298e"/>
      <stop offset="1.0" stop-color="#9a6cc5"/>
    </linearGradient>
    <g id="sprite1" transform="matrix(1.0, 0.0, 0.0, 1.0, 1.3, 3.8)">
      <clipPath id="clipPath0" transform="matrix(1.0, 0.0, 0.0, 1.0, 0.0, 0.0)">
        <path d="M14.45 2.3 Q16.95 4.75 16.95 8.1 16.95 11.25 14.8 13.6 12.0 16.25 8.5 16.25 4.95 16.25 2.45 13.9 L2.3 13.75 Q0.0 11.4 0.0 8.1 0.0 4.85 2.35 2.45 L2.45 2.3 Q4.95 0.0 8.5 0.0 11.9 0.0 14.45 2.3" fill="#4b1c6c" fill-rule="evenodd" stroke="none"/>
      </clipPath>
      <g clip-path="url(#clipPath0)">
        <use ffdec:characterId="4" height="22.95" transform="matrix(1.0, 0.0, 0.0, 1.0, -1.3, -3.8)" width="20.15" xlink:href="#shape3"/>
      </g>
    </g>
    <g id="shape3" transform="matrix(1.0, 0.0, 0.0, 1.0, 1.3, 3.8)">
      <path d="M13.65 -3.8 L14.85 -3.8 14.9 -3.75 15.15 -3.6 15.15 -3.55 15.25 -2.6 14.8 -2.3 14.0 -1.7 13.85 -1.5 13.55 -2.4 13.65 -2.55 13.65 -2.6 13.6 -2.7 13.65 -2.85 13.85 -2.95 13.65 -3.8" fill="#00317c" fill-rule="evenodd" stroke="none"/>
      <path d="M14.85 -3.8 L15.8 -3.8 16.35 -2.5 15.75 -3.1 15.2 -3.55 15.15 -3.6 14.9 -3.75 14.85 -3.8" fill="#002761" fill-rule="evenodd" stroke="none"/>
      <path d="M13.85 -1.5 L14.0 -1.7 14.8 -2.3 15.25 -2.6 15.35 -2.3 15.55 -1.85 15.35 -1.55 14.75 -1.0 14.2 -0.65 14.15 -0.75 13.85 -1.5" fill="#003988" fill-rule="evenodd" stroke="none"/>
      <path d="M13.2 -3.8 L13.65 -3.8 13.85 -2.95 13.65 -2.85 13.6 -2.7 13.65 -2.6 13.65 -2.55 13.55 -2.4 13.25 -3.55 13.2 -3.8" fill="#0443a0" fill-rule="evenodd" stroke="none"/>
      <path d="M16.35 -2.5 L16.4 -1.85 16.25 -0.75 15.7 -1.3 15.35 -1.55 15.55 -1.85 15.35 -2.3 15.25 -2.6 15.15 -3.55 15.15 -3.6 15.2 -3.55 15.75 -3.1 16.35 -2.5" fill="#01265b" fill-rule="evenodd" stroke="none"/>
      <path d="M5.7 -0.6 L6.75 -1.85 7.05 -2.2 7.55 -2.15 7.65 -2.15 7.5 -1.7 7.35 -1.05 5.7 -0.6" fill="#004097" fill-rule="evenodd" stroke="none"/>
      <path d="M7.35 -1.05 L7.5 -1.7 7.65 -2.15 7.7 -2.2 Q8.6 -2.55 9.4 -3.15 L9.55 -2.85 9.75 -2.05 8.8 -1.6 8.3 -1.4 8.15 -1.35 7.35 -1.05" fill="#034baf" fill-rule="evenodd" stroke="none"/>
      <path d="M7.05 -2.2 Q7.7 -3.1 7.75 -3.8 L10.05 -3.8 10.1 -3.75 9.9 -3.5 9.4 -3.15 Q8.6 -2.55 7.7 -2.2 L7.55 -2.15 7.05 -2.2" fill="#013a94" fill-rule="evenodd" stroke="none"/>
      <path d="M4.25 -0.45 L5.85 -2.25 7.05 -2.2 6.75 -1.85 5.7 -0.6 5.25 -0.55 5.1 -0.55 4.95 -0.55 4.25 -0.45" fill="#002d6e" fill-rule="evenodd" stroke="none"/>
      <path d="M9.8 -1.75 L9.95 -1.8 10.4 -1.95 10.55 -1.8 10.05 -1.6 9.8 -1.55 9.15 -1.3 9.1 -1.55 9.8 -1.75" fill="#00b4ff" fill-rule="evenodd" stroke="none"/>
      <path d="M9.8 -1.75 L9.75 -2.05 11.1 -2.85 11.15 -2.15 10.4 -1.95 9.95 -1.8 9.8 -1.75" fill="#075de8" fill-rule="evenodd" stroke="none"/>
      <path d="M7.65 -0.55 L7.45 -0.55 7.25 -0.55 7.35 -1.05 8.15 -1.35 8.1 -1.3 8.1 -1.2 7.9 -0.95 7.65 -0.55 M8.3 -1.4 L8.8 -1.6 9.75 -2.05 9.8 -1.75 9.1 -1.55 8.4 -1.3 8.3 -1.4" fill="#0072e0" fill-rule="evenodd" stroke="none"/>
      <path d="M9.4 -3.15 L9.9 -3.5 10.1 -3.75 10.95 -3.35 11.1 -3.3 11.1 -2.85 9.75 -2.05 9.55 -2.85 9.4 -3.15" fill="#0346b1" fill-rule="evenodd" stroke="none"/>
      <path d="M12.45 -3.8 L13.2 -3.8 13.25 -3.55 13.55 -2.4 12.15 -1.1 12.1 -1.05 12.0 -1.25 11.9 -1.35 11.85 -1.5 12.35 -3.0 12.4 -3.45 12.45 -3.8" fill="#015bd5" fill-rule="evenodd" stroke="none"/>
      <path d="M10.2 -3.8 L11.05 -3.8 11.05 -3.7 11.1 -3.3 10.95 -3.35 10.1 -3.75 10.2 -3.8" fill="#024fbb" fill-rule="evenodd" stroke="none"/>
      <path d="M10.05 -3.8 L10.2 -3.8 10.1 -3.75 10.05 -3.8" fill="#0046b7" fill-rule="evenodd" stroke="none"/>
      <path d="M11.05 -3.8 L11.1 -3.8 11.85 -3.55 12.4 -3.45 12.35 -3.0 11.1 -3.3 11.05 -3.7 11.05 -3.8" fill="#005acc" fill-rule="evenodd" stroke="none"/>
      <path d="M11.1 -2.85 L11.1 -3.3 12.35 -3.0 11.85 -1.5 11.75 -1.6 11.6 -1.85 11.55 -1.95 11.55 -2.05 11.3 -2.2 11.2 -2.15 11.15 -2.15 11.1 -2.85" fill="#0361db" fill-rule="evenodd" stroke="none"/>
      <path d="M10.55 -1.8 L10.4 -1.95 11.15 -2.15 11.15 -2.1 11.1 -2.0 11.15 -1.95 11.2 -1.85 11.15 -1.85 10.55 -1.8" fill="#0ae6ff" fill-rule="evenodd" stroke="none"/>
      <path d="M11.6 -1.85 L11.5 -1.7 11.4 -1.7 11.3 -1.75 11.2 -1.85 11.15 -1.95 11.1 -2.0 11.15 -2.1 11.15 -2.15 11.2 -2.15 11.3 -2.2 11.55 -2.05 11.55 -1.95 11.6 -1.85" fill="#14f8e9" fill-rule="evenodd" stroke="none"/>
      <path d="M9.15 -1.3 L9.8 -1.55 10.05 -1.6 10.55 -1.8 11.15 -1.85 11.2 -1.85 11.3 -1.75 11.4 -1.7 11.65 -1.35 11.35 -1.5 11.3 -1.55 11.15 -1.5 10.95 -1.45 10.9 -1.45 10.7 -1.3 9.9 -1.1 9.8 -1.1 9.55 -1.0 9.25 -0.9 8.25 -0.6 8.0 -0.5 7.9 -0.5 8.3 -1.0 8.4 -1.05 9.15 -1.3" fill="#0062ed" fill-rule="evenodd" stroke="none"/>
      <path d="M11.85 -1.5 L11.9 -1.35 11.85 -1.35 11.75 -1.35 11.65 -1.35 11.4 -1.7 11.5 -1.7 11.6 -1.85 11.75 -1.6 11.85 -1.5" fill="#0eeeff" fill-rule="evenodd" stroke="none"/>
      <path d="M11.1 -3.8 L12.45 -3.8 12.4 -3.45 11.85 -3.55 11.1 -3.8" fill="#0046b0" fill-rule="evenodd" stroke="none"/>
      <path d="M11.2 -1.15 L11.15 -1.2 11.1 -1.2 10.95 -1.35 10.9 -1.45 10.95 -1.45 11.15 -1.5 11.3 -1.55 11.35 -1.5 11.65 -1.35 11.7 -1.3 11.8 -1.15 11.95 -0.95 12.05 -0.85 12.05 -0.75 12.2 -0.6 12.3 -0.4 12.45 -0.1 12.7 0.45 12.9 0.95 12.8 0.75 12.6 0.5 12.3 0.1 12.25 0.05 12.15 -0.05 12.05 -0.2 11.65 -0.6 11.55 -0.7 11.45 -0.8 11.4 -0.9 11.2 -1.15" fill="#0561de" fill-rule="evenodd" stroke="none"/>
      <path d="M11.9 -1.35 L12.0 -1.25 12.1 -1.05 12.3 -0.8 12.05 -0.75 12.05 -0.85 11.95 -0.95 11.8 -1.15 11.7 -1.3 11.65 -1.35 11.75 -1.35 11.85 -1.35 11.9 -1.35" fill="#13c4ff" fill-rule="evenodd" stroke="none"/>
      <path d="M12.1 -1.05 L12.15 -1.1 13.55 -2.4 13.85 -1.5 13.65 -1.25 13.55 -1.2 13.4 -1.1 12.75 -0.5 12.6 -0.3 12.55 -0.4 12.35 -0.7 12.3 -0.8 12.1 -1.05" fill="#035ec7" fill-rule="evenodd" stroke="none"/>
      <path d="M12.7 0.45 L12.45 -0.1 12.3 -0.4 12.2 -0.6 12.05 -0.75 12.3 -0.8 12.35 -0.7 12.55 -0.4 12.6 -0.3 12.7 -0.2 12.75 -0.1 13.15 0.75 12.7 0.45" fill="#009df2" fill-rule="evenodd" stroke="none"/>
      <path d="M11.65 -0.6 L12.05 -0.2 12.15 -0.05 12.25 0.05 12.3 0.1 12.6 0.5 12.45 0.6 12.35 0.5 12.25 0.4 12.2 0.3 11.7 -0.25 11.4 -0.55 11.6 -0.6 11.65 -0.6" fill="#21b4ff" fill-rule="evenodd" stroke="none"/>
      <path d="M10.95 -0.6 L11.05 -0.65 11.1 -0.65 11.25 -0.55 11.4 -0.55 11.7 -0.25 12.2 0.3 12.25 0.4 12.35 0.5 12.45 0.6 12.45 0.7 12.35 0.85 12.2 1.1 11.85 0.9 11.4 0.65 10.55 0.45 10.2 0.4 10.0 0.4 9.7 0.45 9.55 0.4 9.95 0.05 10.0 0.15 10.1 0.2 10.1 0.25 10.2 0.25 10.3 0.25 10.4 0.1 10.2 -0.1 10.95 -0.6" fill="#009bee" fill-rule="evenodd" stroke="none"/>
      <path d="M12.6 -0.3 L12.75 -0.5 13.4 -1.1 13.55 -1.2 13.55 -1.1 13.65 -0.75 13.7 -0.4 13.45 -0.3 13.15 0.75 12.75 -0.1 12.7 -0.2 12.6 -0.3" fill="#045ed9" fill-rule="evenodd" stroke="none"/>
      <path d="M10.95 -1.35 L11.1 -1.2 11.15 -1.2 11.2 -1.15 11.1 -1.1 10.95 -1.1 10.85 -1.1 10.8 -1.15 10.75 -1.2 10.75 -1.25 10.8 -1.25 10.85 -1.35 10.95 -1.35" fill="#00ecee" fill-rule="evenodd" stroke="none"/>
      <path d="M9.8 -0.85 L9.8 -1.0 9.8 -1.1 9.9 -1.1 10.7 -1.3 10.9 -1.45 10.95 -1.35 10.85 -1.35 10.8 -1.25 10.75 -1.25 10.75 -1.2 10.8 -1.15 10.85 -1.1 10.8 -1.1 9.8 -0.85" fill="#19c2ff" fill-rule="evenodd" stroke="none"/>
      <path d="M11.4 -0.55 L11.35 -0.65 11.3 -0.65 11.2 -0.75 11.1 -0.85 10.85 -1.1 10.95 -1.1 11.1 -1.1 11.2 -1.15 11.4 -0.9 11.45 -0.8 11.55 -0.7 11.65 -0.6 11.6 -0.6 11.4 -0.55" fill="#16dbfe" fill-rule="evenodd" stroke="none"/>
      <path d="M8.05 -0.3 L8.1 -0.35 8.3 -0.4 9.25 -0.7 9.45 -0.75 9.8 -0.85 10.8 -1.1 10.85 -1.1 11.1 -0.85 11.2 -0.75 11.3 -0.65 11.35 -0.65 11.4 -0.55 11.25 -0.55 11.1 -0.65 11.05 -0.65 10.95 -0.6 10.75 -0.65 10.05 -0.65 9.9 -0.6 9.4 -0.55 9.3 -0.55 8.6 -0.4 8.4 -0.4 8.1 -0.3 8.05 -0.3" fill="#0160f0" fill-rule="evenodd" stroke="none"/>
      <path d="M7.2 0.45 L7.6 -0.1 7.75 -0.2 7.85 -0.25 7.95 -0.3 8.05 -0.3 8.1 -0.3 8.4 -0.4 8.6 -0.4 9.3 -0.55 9.4 -0.55 9.9 -0.6 10.05 -0.65 10.75 -0.65 10.95 -0.6 10.2 -0.1 10.15 -0.1 10.05 -0.05 9.95 0.05 9.55 0.4 9.05 0.3 9.0 0.3 Q8.25 0.3 7.5 0.75 L7.4 0.6 7.2 0.45" fill="#0076ec" fill-rule="evenodd" stroke="none"/>
      <path d="M9.95 0.05 L10.05 -0.05 10.15 -0.1 10.2 -0.1 10.4 0.1 10.3 0.25 10.2 0.25 10.1 0.25 10.1 0.2 10.0 0.15 9.95 0.05" fill="#d2fdff" fill-rule="evenodd" stroke="none"/>
      <path d="M12.2 1.1 L12.65 1.5 12.85 1.7 13.25 2.15 13.7 2.9 13.75 3.0 13.95 3.3 13.7 3.05 13.7 3.0 13.05 2.3 12.4 1.8 12.35 1.75 12.3 1.75 12.2 1.7 12.2 1.65 11.95 1.55 Q11.25 1.2 10.55 1.2 L9.05 1.4 9.0 1.4 8.15 1.7 7.85 1.9 7.8 1.85 8.05 1.65 8.05 1.6 8.35 1.35 8.6 1.1 8.9 0.9 9.05 0.75 9.55 0.4 9.7 0.45 10.0 0.4 10.2 0.4 10.55 0.45 11.4 0.65 11.85 0.9 12.2 1.1" fill="#01b8f4" fill-rule="evenodd" stroke="none"/>
      <path d="M10.55 2.5 L10.4 2.6 10.2 2.7 10.2 2.75 9.25 3.4 8.9 3.7 8.9 3.65 8.75 3.6 9.05 3.3 10.25 2.4 10.3 2.3 10.55 2.5" fill="#ebfcff" fill-rule="evenodd" stroke="none"/>
      <path d="M5.0 7.9 L4.85 7.65 4.75 7.25 Q4.75 6.5 5.9 4.85 L6.85 3.6 7.1 3.3 Q8.55 1.95 9.6 2.15 L9.7 2.1 10.2 2.25 10.25 2.3 10.3 2.3 10.25 2.4 9.05 3.3 8.75 3.6 8.15 4.2 7.2 5.15 6.8 5.55 6.3 6.15 6.25 6.25 5.5 7.15 5.0 7.9" fill="#01ebe8" fill-rule="evenodd" stroke="none"/>
      <path d="M8.15 1.7 L9.0 1.4 9.05 1.4 10.95 1.85 11.05 1.9 11.1 1.9 10.3 2.3 10.25 2.3 10.2 2.25 9.7 2.1 9.6 2.15 Q8.55 1.95 7.1 3.3 L6.85 3.6 5.9 4.85 Q4.75 6.5 4.75 7.25 L4.85 7.65 5.0 7.9 4.85 8.15 4.8 8.15 4.4 8.15 4.2 8.1 4.05 7.85 Q4.05 7.05 5.1 5.2 L5.2 5.05 6.45 3.4 6.45 3.35 6.7 3.5 6.75 3.0 7.6 2.15 8.15 1.7" fill="#00e0f0" fill-rule="evenodd" stroke="none"/>
      <path d="M11.2 2.0 L11.2 2.1 11.2 2.15 11.1 2.2 11.0 2.25 10.55 2.5 10.3 2.3 11.1 1.9 11.2 2.0" fill="#d8f9ff" fill-rule="evenodd" stroke="none"/>
      <path d="M9.05 1.4 L10.55 1.2 Q11.25 1.2 11.95 1.55 L11.3 1.75 11.1 1.9 11.05 1.9 10.95 1.85 9.05 1.4" fill="#00cbec" fill-rule="evenodd" stroke="none"/>
      <path d="M11.95 1.55 L12.2 1.65 12.2 1.7 12.1 1.85 11.9 1.95 11.4 2.05 11.1 1.9 11.3 1.75 11.95 1.55" fill="#00c5f0" fill-rule="evenodd" stroke="none"/>
      <path d="M11.1 2.2 L11.15 2.25 11.15 2.3 11.25 2.45 12.5 4.4 13.4 6.3 13.4 6.35 13.3 6.4 13.3 6.35 13.15 5.9 12.25 4.2 11.2 2.55 11.05 2.35 10.65 2.55 10.55 2.6 10.4 2.65 10.25 2.75 10.2 2.8 9.4 3.45 9.15 3.75 9.1 3.8 7.4 5.45 7.05 5.85 6.9 6.0 6.9 5.9 6.9 5.85 7.0 5.8 8.35 4.25 8.9 3.7 9.25 3.4 10.2 2.75 10.2 2.7 10.4 2.6 10.55 2.5 11.0 2.25 11.1 2.2 M13.8 7.6 L14.05 8.65 14.2 9.8 14.0 9.7 13.95 9.35 13.85 8.65 13.85 8.55 13.75 8.1 13.7 7.95 13.45 6.9 13.35 6.6 13.35 6.5 13.4 6.4 13.5 6.65 13.8 7.6 M14.0 9.9 L14.25 10.0 14.2 10.1 14.0 10.05 14.0 9.9 M6.65 6.15 L6.7 6.15 6.65 6.3 6.65 6.35 5.95 7.2 5.6 7.6 5.55 7.65 5.4 7.9 5.25 8.15 5.15 8.35 5.0 8.35 5.2 8.0 5.25 7.95 5.3 7.85 5.5 7.5 6.5 6.35 6.65 6.15 M4.9 8.5 L5.05 8.5 5.0 8.65 4.75 9.0 4.65 9.0 4.9 8.5" fill="#10cce5" fill-rule="evenodd" stroke="none"/>
      <path d="M11.35 2.2 L11.35 2.25 11.45 2.35 12.35 3.55 12.45 3.8 12.75 4.25 12.5 4.4 11.25 2.45 11.15 2.3 11.15 2.25 11.1 2.2 11.2 2.15 11.2 2.1 11.2 2.0 11.25 2.15 11.35 2.2" fill="#a5ffff" fill-rule="evenodd" stroke="none"/>
      <path d="M11.1 1.9 L11.4 2.05 11.55 2.1 13.0 3.25 13.95 4.65 14.0 4.75 14.2 5.35 14.4 5.95 14.45 6.2 14.4 6.2 14.25 7.2 14.05 7.5 13.8 6.7 13.75 6.65 13.65 6.25 13.2 5.1 12.75 4.25 12.45 3.8 12.35 3.55 11.45 2.35 11.35 2.25 11.55 2.1 11.35 2.2 11.25 2.15 11.2 2.0 11.1 1.9" fill="#07e6ee" fill-rule="evenodd" stroke="none"/>
      <path d="M11.35 2.25 L11.35 2.2 11.55 2.1 11.35 2.25" fill="#0eccee" fill-rule="evenodd" stroke="none"/>
      <path d="M11.4 2.05 L11.9 1.95 Q11.65 2.05 11.55 2.1 L11.4 2.05" fill="#08caee" fill-rule="evenodd" stroke="none"/>
      <path d="M13.15 0.75 L13.45 -0.3 13.7 -0.4 13.8 0.1 13.95 1.05 13.95 1.45 13.95 1.6 13.65 1.6 13.55 1.5 13.4 1.2 13.15 0.75" fill="#0666d4" fill-rule="evenodd" stroke="none"/>
      <path d="M12.9 0.95 L12.7 0.45 13.15 0.75 13.4 1.2 13.35 1.2 13.15 1.15 13.15 1.2 13.1 1.15 13.0 1.0 12.9 0.95" fill="#00b7f3" fill-rule="evenodd" stroke="none"/>
      <path d="M12.6 0.5 L12.8 0.75 12.9 0.95 13.0 1.0 13.1 1.15 13.15 1.2 12.95 1.3 12.85 1.15 12.7 0.95 12.45 0.6 12.6 0.5" fill="#0ae1e6" fill-rule="evenodd" stroke="none"/>
      <path d="M12.45 0.6 L12.7 0.95 12.85 1.15 12.95 1.3 13.2 1.65 13.45 2.05 13.65 2.5 13.75 2.65 13.85 2.95 14.05 3.3 13.95 3.3 13.75 3.0 13.7 2.9 13.25 2.15 12.85 1.7 12.65 1.5 12.2 1.1 12.35 0.85 12.45 0.7 12.45 0.6" fill="#0089e7" fill-rule="evenodd" stroke="none"/>
      <path d="M13.9 2.3 L14.25 3.25 14.05 3.3 13.85 2.95 13.75 2.65 13.65 2.5 13.45 2.05 13.2 1.65 12.95 1.3 13.15 1.2 13.15 1.15 13.35 1.2 13.4 1.2 13.55 1.5 13.65 1.6 13.65 1.65 13.9 2.3" fill="#07fee9" fill-rule="evenodd" stroke="none"/>
      <path d="M12.2 1.7 L12.3 1.75 12.35 1.75 12.4 1.8 13.05 2.3 13.7 3.0 13.7 3.05 13.95 3.3 14.1 3.55 14.1 3.6 14.15 3.7 14.35 4.6 14.35 4.65 14.55 5.5 14.6 5.85 14.65 5.95 14.65 6.2 14.65 7.0 14.65 7.5 14.6 7.5 14.55 7.0 14.45 6.2 14.4 5.95 14.2 5.35 14.0 4.75 13.95 4.65 13.0 3.25 11.55 2.1 Q11.65 2.05 11.9 1.95 L12.1 1.85 12.2 1.7" fill="#00d1f0" fill-rule="evenodd" stroke="none"/>
      <path d="M7.75 -0.2 L7.9 -0.45 7.9 -0.5 8.0 -0.5 8.25 -0.6 9.25 -0.9 9.55 -1.0 9.8 -1.1 9.8 -1.0 9.8 -0.85 9.45 -0.75 9.25 -0.7 8.3 -0.4 8.1 -0.35 8.05 -0.3 7.95 -0.3 7.85 -0.25 7.75 -0.2" fill="#0f9ff8" fill-rule="evenodd" stroke="none"/>
      <path d="M9.1 -1.55 L9.15 -1.3 8.4 -1.05 8.5 -1.15 8.5 -1.2 8.45 -1.3 8.4 -1.3 9.1 -1.55" fill="#12f6ff" fill-rule="evenodd" stroke="none"/>
      <path d="M8.15 -1.35 L8.3 -1.4 8.4 -1.3 8.45 -1.3 8.5 -1.2 8.5 -1.15 8.4 -1.05 8.3 -1.0 8.25 -1.0 8.15 -1.1 8.1 -1.2 8.1 -1.3 8.15 -1.35" fill="#f4fff7" fill-rule="evenodd" stroke="none"/>
      <path d="M9.55 0.4 L9.05 0.75 8.9 0.9 8.6 1.1 8.2 1.05 7.3 1.25 7.15 1.3 6.55 1.65 6.45 1.55 7.4 0.8 7.5 0.75 Q8.25 0.3 9.0 0.3 L9.05 0.3 9.55 0.4" fill="#0088f1" fill-rule="evenodd" stroke="none"/>
      <path d="M7.45 -0.2 L7.5 -0.4 7.65 -0.55 7.9 -0.95 8.1 -1.2 8.15 -1.1 8.25 -1.0 8.3 -1.0 7.9 -0.5 7.9 -0.45 7.75 -0.2 7.6 -0.1 7.2 0.45 7.0 0.4 7.15 0.1 7.45 -0.2" fill="#09f4ff" fill-rule="evenodd" stroke="none"/>
      <path d="M7.15 0.1 L7.0 0.4 6.6 0.95 6.35 1.35 6.15 1.65 6.05 0.8 6.05 0.65 6.9 0.25 7.15 0.1" fill="#0374ee" fill-rule="evenodd" stroke="none"/>
      <path d="M7.15 0.1 L6.9 0.25 6.95 0.0 7.45 -0.2 7.15 0.1" fill="#07ccff" fill-rule="evenodd" stroke="none"/>
      <path d="M6.9 0.25 L6.05 0.65 6.0 0.7 5.95 0.7 5.25 1.0 5.15 1.0 5.1 0.75 5.35 0.65 5.75 0.5 6.0 0.4 6.95 0.0 6.9 0.25" fill="#05dcf9" fill-rule="evenodd" stroke="none"/>
      <path d="M5.45 0.2 L4.95 -0.55 5.1 -0.55 5.15 -0.5 5.25 -0.55 5.7 -0.6 7.35 -1.05 7.25 -0.55 7.45 -0.55 7.65 -0.55 7.5 -0.4 7.45 -0.2 6.95 0.0 6.0 0.4 5.75 0.5 5.55 0.3 5.45 0.2" fill="#0b69dd" fill-rule="evenodd" stroke="none"/>
      <path d="M7.0 0.4 L7.2 0.45 7.2 0.5 6.45 1.55 6.4 1.6 6.3 1.75 6.2 1.9 6.15 1.65 6.35 1.35 6.6 0.95 7.0 0.4" fill="#41dfff" fill-rule="evenodd" stroke="none"/>
      <path d="M7.5 0.75 L7.4 0.8 6.45 1.55 7.2 0.5 7.2 0.45 7.4 0.6 7.5 0.75" fill="#0280ee" fill-rule="evenodd" stroke="none"/>
      <path d="M8.6 1.1 L8.35 1.35 8.05 1.6 8.05 1.65 7.55 1.6 7.35 1.6 7.15 1.6 7.05 1.6 6.55 1.75 6.55 1.65 7.15 1.3 7.3 1.25 8.2 1.05 8.6 1.1" fill="#019cef" fill-rule="evenodd" stroke="none"/>
      <path d="M8.05 1.65 L7.8 1.85 7.6 2.05 6.8 2.75 6.55 3.0 6.3 3.25 6.25 3.2 6.15 3.05 5.95 3.1 5.85 3.15 5.85 2.95 5.9 2.6 5.95 2.5 6.2 2.0 6.2 1.95 6.25 2.0 6.35 1.85 6.55 1.75 7.05 1.6 7.15 1.6 7.35 1.6 7.55 1.6 8.05 1.65 M3.25 7.4 L3.4 7.6 3.55 7.7 3.4 8.0 3.3 8.3 3.2 8.45 3.1 8.45 2.9 8.45 2.85 8.45 3.05 7.9 3.25 7.4" fill="#08aaf5" fill-rule="evenodd" stroke="none"/>
      <path d="M7.8 1.85 L7.85 1.9 7.6 2.15 6.75 3.0 6.75 2.9 7.6 2.05 7.8 1.85" fill="#00c7f1" fill-rule="evenodd" stroke="none"/>
      <path d="M7.85 1.9 L8.15 1.7 7.6 2.15 7.85 1.9" fill="#0fb4ed" fill-rule="evenodd" stroke="none"/>
      <path d="M18.85 13.55 L18.85 13.65 18.8 13.7 18.8 13.55 18.85 13.55 M18.85 16.95 L18.85 18.1 18.8 18.15 18.7 18.25 18.6 18.2 18.3 18.1 17.9 17.95 17.55 17.8 17.25 17.75 17.1 18.05 16.75 18.75 16.55 19.05 16.55 19.15 15.7 19.15 15.85 18.95 16.1 18.7 16.1 18.65 16.15 18.6 16.3 18.35 16.65 17.8 16.7 17.8 17.3 17.0 17.5 16.75 17.8 16.3 18.05 15.85 17.85 16.3 17.8 16.45 18.2 16.6 Q18.5 16.7 18.85 16.95 M1.35 19.15 L-1.3 19.15 -1.3 16.65 -0.75 17.15 -0.7 17.25 -0.6 17.35 0.1 18.0 0.1 18.05 0.4 18.35 0.55 18.5 0.75 18.65 0.75 18.6 0.8 18.7 1.35 19.15 M-1.3 13.55 L-1.3 11.25 -0.55 11.6 -0.5 11.6 -0.35 11.6 -0.35 11.65 -0.6 12.15 -0.7 12.25 -1.1 13.1 -1.2 13.45 -1.3 13.55 M14.6 11.5 L14.6 11.45 14.65 11.5 14.6 11.5 M3.85 17.95 L4.0 18.0 3.8 17.95 3.85 17.95" fill="#035cf6" fill-rule="evenodd" stroke="none"/>
      <path d="M8.9 3.7 L8.35 4.25 7.0 5.8 6.9 5.85 6.85 5.8 6.8 5.55 7.2 5.15 8.15 4.2 8.75 3.6 8.9 3.65 8.9 3.7" fill="#adffff" fill-rule="evenodd" stroke="none"/>
      <path d="M6.9 6.0 L7.05 5.85 7.4 5.45 9.1 3.8 9.15 3.75 9.4 3.45 10.2 2.8 10.25 2.75 10.4 2.65 10.55 2.6 10.8 2.85 9.45 4.05 8.9 4.5 7.7 5.65 7.7 5.7 7.45 5.95 7.25 6.2 7.2 6.15 6.9 6.0 M5.15 8.35 L5.25 8.15 5.4 7.9 5.55 7.65 5.6 7.6 5.95 7.2 6.65 6.35 6.6 7.0 5.7 8.35 5.6 8.35 5.15 8.35" fill="#00e1e5" fill-rule="evenodd" stroke="none"/>
      <path d="M6.3 3.25 L6.55 3.0 6.75 2.9 6.75 3.0 6.45 3.35 6.3 3.25" fill="#03c5fa" fill-rule="evenodd" stroke="none"/>
      <path d="M6.55 3.0 L6.8 2.75 6.8 2.8 6.75 2.9 6.55 3.0" fill="#00b7e7" fill-rule="evenodd" stroke="none"/>
      <path d="M6.8 2.75 L7.6 2.05 6.75 2.9 6.8 2.8 6.8 2.75" fill="#01b9ef" fill-rule="evenodd" stroke="none"/>
      <path d="M6.75 3.0 L6.7 3.5 6.45 3.35 6.75 3.0" fill="#01e2f4" fill-rule="evenodd" stroke="none"/>
      <path d="M6.25 6.25 L6.3 6.15 6.8 5.55 6.85 5.8 6.8 5.75 Q6.7 5.75 6.65 5.85 L6.65 5.9 6.6 5.95 6.6 6.05 6.65 6.15 6.5 6.35 6.25 6.25" fill="#fef8fc" fill-rule="evenodd" stroke="none"/>
      <path d="M6.9 5.85 L6.9 5.9 6.9 6.0 7.2 6.15 7.25 6.2 7.5 6.3 7.8 6.55 8.0 6.7 8.2 6.8 8.65 7.1 8.75 7.2 8.8 7.25 9.6 7.8 9.65 7.8 9.75 7.9 10.0 8.05 10.05 8.1 10.15 8.3 10.2 8.35 10.2 8.4 10.15 8.4 9.95 8.35 Q9.8 8.2 9.6 8.2 L9.55 8.2 8.95 8.4 8.9 8.4 8.8 8.45 8.7 8.5 8.65 8.5 8.55 8.5 8.5 8.5 8.4 8.55 8.35 8.55 8.2 8.55 8.15 8.55 8.05 8.55 8.0 8.55 7.75 8.5 7.55 8.45 7.35 8.35 7.3 8.35 7.15 8.25 6.9 8.0 6.7 7.75 6.6 7.5 6.6 7.45 6.6 7.2 6.6 7.1 6.6 7.0 6.65 6.35 6.65 6.3 6.7 6.15 6.65 6.15 6.6 6.05 6.6 5.95 6.65 5.9 6.65 5.85 Q6.7 5.75 6.8 5.75 L6.85 5.8 6.9 5.85" fill="#fffeff" fill-rule="evenodd" stroke="none"/>
      <path d="M10.8 2.85 L10.85 2.9 11.5 3.85 12.25 5.4 12.25 5.45 12.3 5.5 12.8 6.45 12.85 6.5 12.85 6.55 12.9 6.7 12.6 6.9 12.1 5.55 12.1 5.45 11.4 4.35 10.7 4.2 9.9 4.25 8.65 5.15 7.9 5.85 7.5 6.3 7.25 6.2 7.45 5.95 7.7 5.7 7.7 5.65 8.9 4.5 9.45 4.05 10.8 2.85 M13.15 7.6 L13.25 8.1 13.45 9.5 12.8 9.25 12.85 8.4 12.95 8.25 13.0 8.2 13.15 7.6 M6.2 8.5 L6.2 8.55 Q6.25 9.6 7.45 10.7 8.55 11.75 9.6 11.75 10.95 11.75 11.75 11.0 L12.1 10.6 12.75 9.45 13.45 9.7 13.5 10.1 Q13.3 10.15 13.2 10.3 L12.7 10.65 12.1 11.7 12.1 11.75 11.95 12.4 11.45 12.8 Q10.55 13.45 9.35 13.45 8.55 13.45 8.15 12.8 L8.1 12.55 7.55 11.6 6.65 10.55 Q6.2 10.25 5.65 10.25 L5.25 10.2 5.2 9.65 5.25 9.25 5.35 8.95 5.6 8.5 6.2 8.5 M6.6 7.0 L6.6 7.1 6.6 7.2 6.6 7.45 6.25 8.1 6.25 8.25 6.25 8.35 5.7 8.35 6.6 7.0" fill="#00f5e6" fill-rule="evenodd" stroke="none"/>
      <path d="M7.5 6.3 L7.9 5.85 8.65 5.15 9.9 4.25 10.7 4.2 11.4 4.35 12.1 5.45 12.1 5.55 12.6 6.9 12.5 6.95 12.45 7.05 12.2 7.2 12.05 7.4 11.85 7.5 11.65 7.7 11.55 7.85 11.2 8.2 11.2 8.35 11.15 8.35 11.1 8.75 10.4 8.65 10.3 8.6 10.2 8.5 10.2 8.4 10.2 8.35 10.15 8.3 10.05 8.1 10.0 8.05 9.75 7.9 9.65 7.8 9.6 7.8 8.8 7.25 8.75 7.2 8.65 7.1 8.2 6.8 8.0 6.7 7.8 6.55 7.5 6.3 M12.85 8.4 L12.8 9.25 12.15 9.0 12.0 9.0 11.95 8.95 11.3 8.8 11.2 8.75 11.3 8.6 11.4 8.5 11.4 8.45 11.5 8.35 11.8 8.6 12.15 8.7 12.25 8.7 12.45 8.7 12.5 8.7 12.55 8.65 12.85 8.4 M6.6 7.45 L6.6 7.5 6.7 7.75 6.9 8.0 7.15 8.25 7.3 8.35 7.25 8.35 6.25 8.35 6.25 8.25 6.25 8.1 6.6 7.45 M9.0 8.4 L9.45 8.35 9.55 8.35 9.9 8.45 9.95 8.5 10.0 8.55 9.85 8.55 9.0 8.4" fill="#41fae8" fill-rule="evenodd" stroke="none"/>
      <path d="M12.5 4.4 L12.75 4.25 13.2 5.1 13.65 6.25 13.75 6.65 13.8 6.7 13.75 6.7 13.7 6.65 13.5 6.65 13.4 6.4 13.65 6.25 13.4 6.35 13.4 6.3 12.5 4.4" fill="#edfcf7" fill-rule="evenodd" stroke="none"/>
      <path d="M11.2 2.55 L12.25 4.2 13.15 5.9 13.3 6.35 13.3 6.4 13.05 6.6 13.0 6.65 12.9 6.7 12.85 6.55 12.85 6.5 12.8 6.45 12.3 5.5 12.25 5.45 12.25 5.4 11.5 3.85 10.85 2.9 10.8 2.85 10.9 2.8 11.2 2.55 M13.1 6.7 L13.15 6.7 13.3 6.55 13.35 6.5 13.35 6.6 13.45 6.9 13.7 7.95 13.6 8.05 13.15 7.1 13.1 6.7" fill="#00dff1" fill-rule="evenodd" stroke="none"/>
      <path d="M10.55 2.6 L10.65 2.55 11.05 2.35 11.2 2.55 10.9 2.8 10.8 2.85 10.55 2.6" fill="#06daf0" fill-rule="evenodd" stroke="none"/>
      <path d="M15.7 -1.3 L16.25 -0.75 15.75 0.6 15.35 1.25 15.3 1.15 14.65 0.3 15.0 -0.1 15.7 -1.3" fill="#052b6a" fill-rule="evenodd" stroke="none"/>
      <path d="M15.35 -1.55 L15.7 -1.3 15.0 -0.1 14.65 0.3 14.2 -0.65 14.75 -1.0 15.35 -1.55" fill="#003077" fill-rule="evenodd" stroke="none"/>
      <path d="M13.55 -1.2 L13.65 -1.25 13.85 -1.5 14.15 -0.75 14.2 -0.65 14.0 -0.55 13.7 -0.4 13.65 -0.75 13.55 -1.1 13.55 -1.2" fill="#0148a0" fill-rule="evenodd" stroke="none"/>
      <path d="M13.7 -0.4 L14.0 -0.55 14.2 -0.65 14.65 0.3 14.0 0.95 13.95 1.05 13.8 0.1 13.7 -0.4" fill="#003f93" fill-rule="evenodd" stroke="none"/>
      <path d="M14.65 0.3 L15.3 1.15 15.35 1.25 15.05 1.65 14.35 1.6 13.95 1.6 13.95 1.45 13.95 1.05 14.0 0.95 14.65 0.3" fill="#01387b" fill-rule="evenodd" stroke="none"/>
      <path d="M15.25 3.45 L15.25 3.65 15.05 4.85 14.95 5.05 14.85 4.7 14.8 4.6 14.45 3.65 14.35 3.5 14.25 3.25 13.9 2.3 14.0 2.2 14.0 2.1 15.15 3.25 15.25 3.45" fill="#0072bb" fill-rule="evenodd" stroke="none"/>
      <path d="M14.0 2.1 L14.0 2.2 13.9 2.3 13.65 1.65 13.65 1.6 13.95 1.6 14.0 2.1" fill="#008ee7" fill-rule="evenodd" stroke="none"/>
      <path d="M15.25 3.45 L15.15 3.25 14.0 2.1 13.95 1.6 14.35 1.6 15.05 1.65 14.85 1.9 15.25 3.45" fill="#02458c" fill-rule="evenodd" stroke="none"/>
      <path d="M17.6 5.2 L17.35 5.6 17.25 5.85 16.1 4.0 Q15.3 2.4 15.3 1.75 L15.3 1.7 15.05 1.65 15.35 1.25 16.5 2.2 17.3 4.25 17.6 5.2" fill="#011c3a" fill-rule="evenodd" stroke="none"/>
      <path d="M17.25 5.85 L17.1 6.1 16.9 5.75 15.65 4.3 15.65 4.2 15.25 3.45 14.85 1.9 15.05 1.65 15.3 1.7 15.3 1.75 Q15.3 2.4 16.1 4.0 L17.25 5.85" fill="#003d69" fill-rule="evenodd" stroke="none"/>
      <path d="M16.25 -0.75 L17.4 1.25 Q18.1 3.05 18.1 4.55 L17.6 5.2 17.3 4.25 16.5 2.2 15.35 1.25 15.75 0.6 16.25 -0.75" fill="#001228" fill-rule="evenodd" stroke="none"/>
      <path d="M15.05 4.85 L15.25 3.65 15.25 3.45 15.65 4.2 15.65 4.3 15.7 4.4 16.2 6.3 16.35 6.95 Q15.7 6.3 15.05 4.85" fill="#035881" fill-rule="evenodd" stroke="none"/>
      <path d="M16.35 6.95 L16.2 6.3 15.7 4.4 15.65 4.3 16.9 5.75 17.1 6.1 16.75 7.3 16.7 7.7 16.7 7.9 16.65 7.85 16.45 7.5 16.4 7.4 16.35 6.95" fill="#02436d" fill-rule="evenodd" stroke="none"/>
      <path d="M13.95 3.3 L14.05 3.3 14.1 3.4 14.15 3.7 14.1 3.6 14.1 3.55 13.95 3.3" fill="#00b6dc" fill-rule="evenodd" stroke="none"/>
      <path d="M14.25 3.25 L14.35 3.5 14.45 3.65 14.8 4.6 14.55 4.6 14.1 3.4 14.05 3.3 14.25 3.25" fill="#06e9fa" fill-rule="evenodd" stroke="none"/>
      <path d="M14.15 3.7 L14.1 3.4 14.55 4.6 14.5 4.6 14.15 3.7" fill="#00b5e5" fill-rule="evenodd" stroke="none"/>
      <path d="M14.8 4.6 L14.85 4.7 14.95 5.05 15.8 7.45 16.1 8.3 16.15 8.55 16.3 8.9 16.6 9.95 16.35 10.05 16.05 8.95 16.05 8.85 16.0 8.75 15.45 7.0 14.85 5.35 14.55 4.6 14.8 4.6" fill="#05ecff" fill-rule="evenodd" stroke="none"/>
      <path d="M14.65 7.5 L14.65 7.0 14.65 6.2 14.65 5.95 14.6 5.85 14.55 5.5 14.35 4.65 14.35 4.6 14.5 4.6 14.8 5.45 15.05 6.35 15.1 6.5 15.2 6.8 15.6 8.6 15.7 9.05 15.8 9.6 16.0 10.4 15.85 10.45 15.65 10.35 14.9 10.05 14.65 10.0 14.55 9.95 14.5 9.9 14.25 8.55 14.3 8.55 14.6 8.05 14.65 7.5" fill="#01ccf7" fill-rule="evenodd" stroke="none"/>
      <path d="M14.35 4.6 L14.15 3.7 14.5 4.6 14.35 4.6" fill="#01bcef" fill-rule="evenodd" stroke="none"/>
      <path d="M14.5 4.6 L14.55 4.6 14.85 5.35 15.45 7.0 16.0 8.75 16.05 8.85 16.05 8.95 16.0 9.0 15.95 9.0 15.7 9.05 15.6 8.6 15.2 6.8 15.1 6.5 15.05 6.35 14.8 5.45 14.5 4.6" fill="#0093e3" fill-rule="evenodd" stroke="none"/>
      <path d="M13.3 6.4 L13.4 6.35 13.65 6.25 13.4 6.4 13.35 6.5 13.3 6.55 13.15 6.7 13.1 6.7 13.05 6.6 13.3 6.4" fill="#93f8ff" fill-rule="evenodd" stroke="none"/>
      <path d="M14.45 6.2 L14.55 7.0 14.6 7.5 14.65 7.5 14.6 8.05 14.3 8.55 14.25 8.55 14.2 8.3 14.1 7.85 14.05 7.5 14.25 7.2 14.4 6.2 14.45 6.2" fill="#00e4ea" fill-rule="evenodd" stroke="none"/>
      <path d="M14.95 5.05 L15.05 4.85 Q15.7 6.3 16.35 6.95 L16.4 7.4 16.45 7.5 16.4 7.45 16.3 7.5 16.05 7.5 15.8 7.45 14.95 5.05" fill="#01aeea" fill-rule="evenodd" stroke="none"/>
      <path d="M2.4 0.25 L2.25 -0.1 2.15 -1.0 2.2 -1.95 5.85 -2.25 4.25 -0.45 3.0 0.0 2.4 0.25" fill="#011d4f" fill-rule="evenodd" stroke="none"/>
      <path d="M-1.3 -0.6 L-0.75 0.4 Q-0.15 1.2 0.7 1.25 L0.0 1.7 -1.3 2.7 -1.3 -0.6" fill="#032356" fill-rule="evenodd" stroke="none"/>
      <path d="M2.2 -1.95 L2.15 -1.0 2.25 -0.1 2.4 0.25 1.7 0.6 0.95 1.05 0.7 1.25 Q-0.15 1.2 -0.75 0.4 L-1.3 -0.6 -1.3 -0.7 -0.3 -1.2 2.2 -1.95" fill="#00276c" fill-rule="evenodd" stroke="none"/>
      <path d="M-0.4 2.85 L-0.25 2.6 -0.2 2.85 -0.15 2.95 -0.15 3.0 -0.25 3.1 -0.75 3.8 -0.85 3.95 -0.85 3.85 -0.9 3.45 -0.75 3.35 -0.4 2.85" fill="#10ccff" fill-rule="evenodd" stroke="none"/>
      <path d="M-0.25 2.6 L-0.1 2.4 0.05 2.2 0.35 1.75 0.4 1.75 0.4 1.9 0.45 2.1 0.4 2.1 0.2 2.45 -0.15 2.95 -0.2 2.85 -0.25 2.6" fill="#07e9ff" fill-rule="evenodd" stroke="none"/>
      <path d="M-1.3 2.85 L-1.3 2.7 0.0 1.7 0.7 1.25 0.75 1.25 0.9 1.25 1.1 1.75 0.7 1.75 0.5 1.7 0.45 1.75 0.4 1.75 0.35 1.75 0.05 2.2 -0.1 2.4 -0.25 2.6 -0.4 2.85 -0.55 2.85 -0.9 2.85 -1.3 2.85" fill="#005fbe" fill-rule="evenodd" stroke="none"/>
      <path d="M0.2 2.45 L0.3 2.55 0.95 2.9 0.75 3.05 0.55 3.3 0.5 3.3 0.45 3.8 0.0 4.2 0.0 4.0 0.1 3.6 -0.2 3.25 -0.25 3.1 -0.15 3.0 -0.15 2.95 0.2 2.45" fill="#0480fc" fill-rule="evenodd" stroke="none"/>
      <path d="M-0.25 3.1 L-0.2 3.25 0.1 3.6 0.0 4.0 0.0 4.2 -0.05 4.65 -0.25 4.6 -0.5 4.45 -0.7 4.65 -0.7 4.35 -0.75 3.8 -0.25 3.1" fill="#018bf6" fill-rule="evenodd" stroke="none"/>
      <path d="M-0.9 2.85 L-0.55 2.85 -0.4 2.85 -0.75 3.35 -0.9 3.45 -1.1 3.7 -0.9 2.85" fill="#0074e2" fill-rule="evenodd" stroke="none"/>
      <path d="M-1.3 3.95 L-1.3 2.85 -0.9 2.85 -1.1 3.7 -1.3 3.95" fill="#006fe5" fill-rule="evenodd" stroke="none"/>
      <path d="M-1.3 4.45 L-1.3 3.95 -1.1 3.7 -0.9 3.45 -0.85 3.85 -0.85 3.95 -1.1 4.2 -1.3 4.45" fill="#05b2ff" fill-rule="evenodd" stroke="none"/>
      <path d="M-1.3 4.8 L-1.3 4.45 -1.1 4.2 -0.85 3.95 -0.75 3.8 -0.7 4.35 -0.7 4.65 -1.0 5.0 -1.1 5.1 -1.3 4.8" fill="#007df5" fill-rule="evenodd" stroke="none"/>
      <path d="M0.45 3.8 L0.45 3.9 0.5 4.85 0.65 5.45 0.85 6.1 0.7 6.1 0.55 6.1 0.5 6.35 0.4 6.6 0.1 6.35 0.0 5.95 -0.05 5.25 -0.1 5.0 -0.05 4.65 0.0 4.2 0.45 3.8" fill="#00abfd" fill-rule="evenodd" stroke="none"/>
      <path d="M-0.05 4.65 L-0.1 5.0 -0.05 5.25 0.0 5.95 0.1 6.35 0.05 6.3 -0.3 6.05 -0.35 6.05 -0.4 6.15 -0.45 6.0 -0.55 5.65 -0.55 5.6 -0.7 4.65 -0.5 4.45 -0.25 4.6 -0.05 4.65" fill="#00a2fb" fill-rule="evenodd" stroke="none"/>
      <path d="M-1.3 5.35 L-1.3 4.8 -1.1 5.1 -1.3 5.35" fill="#0573fc" fill-rule="evenodd" stroke="none"/>
      <path d="M-1.3 6.4 L-1.3 5.35 -1.1 5.1 -1.0 5.0 -0.7 4.65 -0.55 5.6 -0.55 5.65 -0.45 6.0 -0.4 6.15 -0.35 6.25 -0.3 6.35 -0.35 6.55 -0.4 6.9 -1.3 6.4" fill="#018bf8" fill-rule="evenodd" stroke="none"/>
      <path d="M0.1 6.35 L0.4 6.6 0.95 6.9 1.2 7.0 0.7 7.1 0.1 7.05 -0.4 6.9 -0.35 6.55 -0.3 6.35 -0.35 6.25 -0.4 6.15 -0.35 6.05 -0.3 6.05 0.05 6.3 0.1 6.35" fill="#01adff" fill-rule="evenodd" stroke="none"/>
      <path d="M3.8 0.5 L5.1 0.3 5.45 0.2 5.55 0.3 5.75 0.5 5.35 0.65 5.1 0.75 4.45 0.95 3.7 1.2 3.8 0.5" fill="#0e85ed" fill-rule="evenodd" stroke="none"/>
      <path d="M3.3 0.4 L3.95 -0.15 4.25 -0.45 4.95 -0.55 5.45 0.2 5.1 0.3 3.8 0.5 3.3 0.4" fill="#005fcd" fill-rule="evenodd" stroke="none"/>
      <path d="M2.4 0.25 L3.0 0.0 4.25 -0.45 3.95 -0.15 3.3 0.4 2.4 1.05 2.3 1.0 2.05 0.75 1.9 0.8 1.75 0.75 1.7 0.6 2.4 0.25" fill="#00499e" fill-rule="evenodd" stroke="none"/>
      <path d="M3.3 0.4 L3.8 0.5 3.7 1.2 3.3 1.3 2.75 1.45 2.8 1.4 2.4 1.05 3.3 0.4" fill="#0765d7" fill-rule="evenodd" stroke="none"/>
      <path d="M5.1 0.75 L5.15 1.0 3.8 1.45 3.65 1.55 3.3 1.65 3.25 1.65 3.3 1.45 3.3 1.3 3.7 1.2 4.45 0.95 5.1 0.75" fill="#0ae4ff" fill-rule="evenodd" stroke="none"/>
      <path d="M3.25 1.65 L3.3 1.65 3.65 1.55 3.8 1.45 3.65 1.6 3.4 1.75 2.85 2.1 2.75 2.15 2.15 2.55 1.85 2.65 1.75 2.7 1.75 2.6 1.95 1.9 2.55 1.8 2.85 1.75 3.25 1.65" fill="#0888f6" fill-rule="evenodd" stroke="none"/>
      <path d="M5.15 1.0 L5.25 1.0 5.05 1.5 4.9 1.9 4.15 2.1 4.0 2.15 3.7 1.9 3.6 1.85 3.4 1.75 3.65 1.6 3.8 1.45 5.15 1.0" fill="#018dfc" fill-rule="evenodd" stroke="none"/>
      <path d="M3.4 1.75 L3.6 1.85 3.7 1.9 4.0 2.15 4.15 2.1 4.1 2.15 3.9 2.5 3.6 2.55 3.15 2.65 2.95 2.7 2.85 2.1 3.4 1.75" fill="#0093ff" fill-rule="evenodd" stroke="none"/>
      <path d="M4.15 2.1 L4.9 1.9 4.7 2.45 4.6 2.8 4.1 3.1 3.55 3.4 3.0 4.6 2.95 4.75 2.6 4.2 2.25 3.95 1.9 3.85 1.75 3.85 1.75 3.35 1.75 3.15 1.85 3.1 2.0 3.0 2.95 2.7 3.15 2.65 3.6 2.55 3.9 2.5 4.1 2.15 4.15 2.1" fill="#00bcfc" fill-rule="evenodd" stroke="none"/>
      <path d="M6.05 0.65 L6.05 0.8 6.15 1.65 5.85 2.05 5.8 2.1 5.65 2.15 5.45 2.3 5.4 2.2 5.35 2.1 5.05 1.5 5.25 1.0 5.95 0.7 6.0 0.7 6.05 0.65" fill="#007cf4" fill-rule="evenodd" stroke="none"/>
      <path d="M5.05 1.5 L5.35 2.1 5.4 2.2 5.45 2.3 4.6 2.8 4.7 2.45 4.9 1.9 5.05 1.5" fill="#0281f4" fill-rule="evenodd" stroke="none"/>
      <path d="M5.45 2.3 L5.65 2.15 5.8 2.1 5.85 2.05 5.0 3.4 4.25 4.4 4.1 4.3 4.6 2.8 5.45 2.3" fill="#0077e5" fill-rule="evenodd" stroke="none"/>
      <path d="M6.45 1.55 L6.55 1.65 6.55 1.75 6.35 1.85 6.25 2.0 6.2 1.95 6.2 1.9 6.3 1.75 6.4 1.6 6.45 1.55" fill="#0090f5" fill-rule="evenodd" stroke="none"/>
      <path d="M6.2 1.9 L6.2 1.95 5.95 2.25 5.75 2.55 4.45 4.45 4.15 4.85 4.15 4.9 3.95 4.8 4.25 4.4 5.0 3.4 5.85 2.05 6.15 1.65 6.2 1.9" fill="#5de2ff" fill-rule="evenodd" stroke="none"/>
      <path d="M4.15 4.9 L4.15 4.85 4.45 4.45 5.75 2.55 5.95 2.25 6.2 1.95 6.2 2.0 5.95 2.5 5.85 2.6 5.65 3.05 5.05 4.05 4.75 4.65 4.65 4.9 4.5 4.8 4.35 4.9 4.2 4.9 4.15 4.9" fill="#00c4f1" fill-rule="evenodd" stroke="none"/>
      <path d="M0.95 1.05 L1.7 0.6 1.75 0.75 1.9 0.8 2.05 0.75 2.3 1.0 2.4 1.05 2.8 1.4 2.75 1.45 2.15 1.6 1.75 1.65 1.1 1.75 0.9 1.25 0.9 1.2 0.95 1.05" fill="#0558be" fill-rule="evenodd" stroke="none"/>
      <path d="M0.7 1.75 L0.8 2.0 0.8 2.05 0.8 2.1 0.6 2.15 0.45 2.1 0.4 1.9 0.4 1.75 0.45 1.75 0.5 1.7 0.7 1.75" fill="#fffafa" fill-rule="evenodd" stroke="none"/>
      <path d="M0.8 2.05 L1.1 2.05 1.3 2.05 1.55 2.0 1.4 2.25 1.15 2.6 0.95 2.9 0.3 2.55 0.2 2.45 0.4 2.1 0.45 2.1 0.6 2.15 0.8 2.1 0.8 2.05" fill="#0080ef" fill-rule="evenodd" stroke="none"/>
      <path d="M1.1 1.75 L1.75 1.65 1.75 1.95 1.55 2.0 1.3 2.05 1.1 2.05 0.8 2.05 0.8 2.0 0.7 1.75 1.1 1.75" fill="#05e4ec" fill-rule="evenodd" stroke="none"/>
      <path d="M1.95 1.9 L1.75 2.6 1.75 2.7 1.65 2.7 1.35 2.6 1.15 2.6 1.4 2.25 1.55 2.0 1.75 1.95 1.95 1.9" fill="#0087fc" fill-rule="evenodd" stroke="none"/>
      <path d="M2.75 1.45 L3.3 1.3 3.3 1.45 3.25 1.65 2.85 1.75 2.55 1.8 1.95 1.9 1.75 1.95 1.75 1.65 2.15 1.6 2.75 1.45" fill="#00e1f8" fill-rule="evenodd" stroke="none"/>
      <path d="M2.85 2.1 L2.95 2.7 2.0 3.0 1.85 3.1 1.75 3.15 1.75 2.7 1.85 2.65 2.15 2.55 2.75 2.15 2.85 2.1" fill="#0094fa" fill-rule="evenodd" stroke="none"/>
      <path d="M0.95 2.9 L1.15 2.6 1.35 2.6 1.65 2.7 1.75 2.7 1.75 3.15 1.7 3.15 0.45 3.8 0.5 3.3 0.55 3.3 0.75 3.05 0.95 2.9" fill="#0093fd" fill-rule="evenodd" stroke="none"/>
      <path d="M1.75 3.15 L1.75 3.35 1.75 3.85 1.9 3.85 2.25 3.95 Q1.9 5.0 1.85 5.7 L0.85 6.1 0.65 5.45 0.5 4.85 0.45 3.9 0.45 3.8 1.7 3.15 1.75 3.15" fill="#00bbff" fill-rule="evenodd" stroke="none"/>
      <path d="M1.85 5.7 Q1.9 5.0 2.25 3.95 L2.6 4.2 2.95 4.75 2.85 5.05 2.1 5.5 1.85 5.7" fill="#01c3ff" fill-rule="evenodd" stroke="none"/>
      <path d="M12.7 14.05 L12.8 13.9 13.0 13.5 13.2 13.1 13.3 12.9 13.65 12.25 13.65 12.2 14.0 11.65 14.15 11.35 14.2 10.85 14.25 10.7 14.25 11.0 14.2 11.4 14.2 11.5 14.2 11.55 14.15 11.6 14.1 11.7 13.8 12.25 13.3 13.15 13.05 13.5 12.85 13.9 12.7 14.05 M0.85 6.1 L1.85 5.7 1.85 5.95 1.9 6.5 1.85 6.6 1.8 6.7 Q1.5 6.85 1.35 6.95 L1.2 7.0 0.95 6.9 0.4 6.6 0.5 6.35 0.55 6.1 0.7 6.1 0.85 6.1" fill="#00b8fb" fill-rule="evenodd" stroke="none"/>
      <path d="M2.95 4.75 L3.0 4.6 3.55 3.4 4.1 3.1 3.85 3.6 3.6 4.1 3.55 4.2 Q3.4 4.25 3.4 4.55 L3.4 4.65 3.25 4.75 2.85 5.05 2.95 4.75" fill="#03bfff" fill-rule="evenodd" stroke="none"/>
      <path d="M2.7 6.3 L2.65 6.25 2.55 6.0 2.85 5.05 3.25 4.75 3.35 5.5 3.4 5.65 3.2 5.9 3.15 6.05 2.7 6.3" fill="#02aff4" fill-rule="evenodd" stroke="none"/>
      <path d="M1.85 5.7 L2.1 5.5 2.85 5.05 2.55 6.0 2.65 6.25 2.7 6.3 2.5 6.35 1.8 6.7 1.85 6.6 1.9 6.5 1.85 5.95 1.85 5.7" fill="#00b4f9" fill-rule="evenodd" stroke="none"/>
      <path d="M1.8 6.7 L2.5 6.35 2.7 6.3 3.15 6.05 3.0 6.25 2.5 7.1 2.3 7.1 1.65 7.15 1.55 7.15 0.7 7.1 1.2 7.0 1.35 6.95 Q1.5 6.85 1.8 6.7" fill="#0294fb" fill-rule="evenodd" stroke="none"/>
      <path d="M3.4 5.65 L3.8 5.1 3.95 4.8 4.15 4.9 3.9 5.25 3.7 5.55 3.5 5.9 2.75 7.05 2.3 7.75 2.05 8.15 1.8 8.5 1.55 8.5 1.85 8.1 2.15 7.6 2.5 7.1 3.0 6.25 3.15 6.05 3.2 5.9 3.4 5.65" fill="#fbfffd" fill-rule="evenodd" stroke="none"/>
      <path d="M5.65 3.05 L5.85 2.6 5.95 2.5 5.9 2.6 5.85 2.95 5.85 3.15 5.65 3.05" fill="#02b1f2" fill-rule="evenodd" stroke="none"/>
      <path d="M4.65 4.9 L4.75 4.65 5.05 4.05 5.65 3.05 5.85 3.15 5.95 3.1 6.15 3.05 6.25 3.2 6.3 3.25 6.0 3.6 5.1 4.85 5.1 4.9 4.95 5.1 Q4.05 6.45 3.55 7.7 L3.4 7.6 3.25 7.4 4.65 4.9" fill="#0abff4" fill-rule="evenodd" stroke="none"/>
      <path d="M6.45 3.35 L6.45 3.4 5.2 5.05 5.1 5.2 4.95 5.1 5.1 4.9 5.1 4.85 6.0 3.6 6.3 3.25 6.45 3.35" fill="#00ccf1" fill-rule="evenodd" stroke="none"/>
      <path d="M4.1 3.1 L4.6 2.8 4.1 4.3 3.6 4.1 3.85 3.6 4.1 3.1" fill="#0090eb" fill-rule="evenodd" stroke="none"/>
      <path d="M3.6 4.1 L4.1 4.3 3.85 4.85 3.8 5.1 3.4 5.65 3.35 5.5 3.25 4.75 3.4 4.65 3.4 4.55 Q3.4 4.25 3.55 4.2 L3.6 4.1" fill="#00a6fa" fill-rule="evenodd" stroke="none"/>
      <path d="M4.1 4.3 L4.25 4.4 3.95 4.8 3.8 5.1 3.85 4.85 4.1 4.3" fill="#0082e4" fill-rule="evenodd" stroke="none"/>
      <path d="M4.15 4.9 L4.2 4.9 4.35 4.9 4.5 4.8 4.65 4.9 3.25 7.4 3.4 6.9 3.05 7.65 2.9 7.9 2.6 8.45 2.55 8.45 1.8 8.5 2.05 8.15 2.3 7.75 2.75 7.05 3.5 5.9 3.7 5.55 3.9 5.25 4.15 4.9" fill="#05ddf4" fill-rule="evenodd" stroke="none"/>
      <path d="M5.1 5.2 Q4.05 7.05 4.05 7.85 L4.2 8.1 4.4 8.15 4.8 8.15 4.85 8.15 4.8 8.25 4.75 8.35 4.7 8.35 4.4 8.35 3.3 8.4 3.25 8.45 3.2 8.45 3.3 8.3 3.4 8.0 3.55 7.7 Q4.05 6.45 4.95 5.1 L5.1 5.2" fill="#09d1f5" fill-rule="evenodd" stroke="none"/>
      <path d="M4.85 8.15 L5.0 7.9 5.5 7.15 6.25 6.25 6.5 6.35 5.5 7.5 5.3 7.85 5.25 7.95 5.2 8.0 5.0 8.35 4.9 8.5 4.7 8.5 4.65 8.5 4.7 8.4 4.7 8.35 4.75 8.35 4.8 8.25 4.85 8.15" fill="#e4ffff" fill-rule="evenodd" stroke="none"/>
      <path d="M7.25 8.5 L7.05 8.5 6.3 8.5 6.2 8.5 5.6 8.5 5.65 8.45 5.7 8.35 6.25 8.35 7.25 8.35 7.25 8.5 M5.0 8.35 L5.15 8.35 5.05 8.5 4.9 8.5 5.0 8.35" fill="#93ffff" fill-rule="evenodd" stroke="none"/>
      <path d="M5.05 8.5 L5.15 8.35 5.6 8.35 5.7 8.35 5.65 8.45 5.6 8.5 5.05 8.5" fill="#e6ffff" fill-rule="evenodd" stroke="none"/>
      <path d="M4.65 9.0 L4.75 9.0 5.0 8.65 5.05 8.5 5.6 8.5 5.35 8.95 5.25 9.25 5.2 9.65 5.25 10.2 4.75 10.3 4.7 10.0 4.65 9.5 4.65 9.3 4.65 9.0" fill="#00d8ea" fill-rule="evenodd" stroke="none"/>
      <path d="M10.2 8.8 L10.25 8.8 11.4 9.05 11.9 9.15 12.75 9.45 12.1 10.6 11.75 11.0 Q10.95 11.75 9.6 11.75 8.55 11.75 7.45 10.7 6.25 9.6 6.2 8.55 L6.2 8.5 6.3 8.5 7.05 8.5 7.25 8.5 7.3 8.5 7.45 8.45 7.55 8.45 7.75 8.5 8.0 8.55 8.05 8.55 8.15 8.55 8.2 8.55 8.35 8.55 8.4 8.55 8.85 8.6 9.8 8.75 9.9 8.75 10.15 8.8 10.15 8.85 10.2 8.8" fill="#47fde7" fill-rule="evenodd" stroke="none"/>
      <path d="M3.2 8.45 L3.25 8.45 3.3 8.4 4.4 8.35 4.7 8.35 4.7 8.4 4.65 8.5 4.4 8.55 4.35 8.55 4.25 8.55 3.2 8.6 3.1 8.6 3.2 8.45" fill="#b8ffff" fill-rule="evenodd" stroke="none"/>
      <path d="M4.25 8.55 L4.35 8.55 4.4 8.55 4.4 9.0 4.4 9.1 4.35 9.15 4.0 10.2 3.95 10.25 3.7 11.3 3.7 11.4 3.65 11.45 3.55 11.9 3.2 11.45 3.0 10.8 3.0 10.7 Q3.0 10.0 3.3 9.45 3.65 8.8 4.25 8.55" fill="#00e4f4" fill-rule="evenodd" stroke="none"/>
      <path d="M4.4 8.55 L4.65 8.5 4.4 9.0 4.4 8.55" fill="#13dfe0" fill-rule="evenodd" stroke="none"/>
      <path d="M4.65 8.5 L4.7 8.5 4.9 8.5 4.65 9.0 4.65 9.3 4.65 9.5 4.7 10.0 4.75 10.3 4.65 10.4 4.55 10.0 4.55 9.8 4.55 9.7 4.5 9.4 4.4 9.0 4.65 8.5" fill="#fafdff" fill-rule="evenodd" stroke="none"/>
      <path d="M4.0 10.2 L4.35 9.15 4.4 9.1 4.4 9.0 4.5 9.4 4.1 10.45 4.0 10.2" fill="#e3ffff" fill-rule="evenodd" stroke="none"/>
      <path d="M4.0 10.2 L4.1 10.45 4.05 10.55 3.95 10.9 3.8 11.6 3.7 12.05 3.55 11.9 3.65 11.45 3.7 11.4 3.7 11.3 3.95 10.25 4.0 10.2" fill="#b6ffff" fill-rule="evenodd" stroke="none"/>
      <path d="M4.1 10.45 L4.5 9.4 4.55 9.7 4.2 10.6 4.2 10.65 4.15 10.7 3.95 11.6 3.9 11.6 3.9 11.65 3.85 11.65 3.8 11.6 3.95 10.9 4.05 10.55 4.1 10.45" fill="#008ed5" fill-rule="evenodd" stroke="none"/>
      <path d="M4.55 9.7 L4.55 9.8 4.55 10.0 4.65 10.4 4.65 10.55 Q4.45 10.6 4.4 10.7 L4.2 10.65 4.2 10.6 4.55 9.7" fill="#0ac2e6" fill-rule="evenodd" stroke="none"/>
      <path d="M4.75 10.3 L5.25 10.2 5.65 10.25 Q6.2 10.25 6.65 10.55 L7.55 11.6 8.1 12.55 8.15 12.8 8.15 12.9 8.15 13.15 8.25 13.75 8.1 13.7 8.1 13.15 7.95 12.6 7.3 11.55 Q6.45 10.4 5.4 10.4 L5.35 10.4 5.25 10.4 5.2 10.4 5.1 10.4 4.95 10.45 4.8 10.5 4.75 10.5 4.7 10.8 4.65 10.55 4.65 10.4 4.75 10.3" fill="#daffff" fill-rule="evenodd" stroke="none"/>
      <path d="M4.5 13.15 L4.35 12.6 4.6 12.65 4.6 12.7 4.7 13.05 4.9 13.25 4.5 13.15 M4.7 10.8 L4.75 10.5 4.8 10.5 4.95 10.45 5.1 10.4 5.2 10.4 4.95 11.45 4.85 11.25 4.7 10.8 M5.2 13.15 L5.35 13.35 4.95 13.25 5.2 13.15" fill="#06a3f2" fill-rule="evenodd" stroke="none"/>
      <path d="M5.2 10.4 L5.25 10.4 5.35 10.4 5.4 10.4 Q6.45 10.4 7.3 11.55 L7.95 12.6 8.1 13.15 8.1 13.7 8.1 13.95 8.1 14.0 7.05 13.8 6.5 13.7 6.25 13.65 5.7 13.45 5.35 13.35 5.2 13.15 5.15 13.1 4.75 12.4 4.8 12.35 4.95 11.45 5.2 10.4" fill="#009af2" fill-rule="evenodd" stroke="none"/>
      <path d="M0.7 7.1 L1.55 7.15 1.65 7.15 2.3 7.1 2.5 7.1 2.15 7.6 1.85 8.1 1.6 8.05 0.9 7.95 0.5 7.95 -0.1 7.95 0.05 7.7 0.15 7.3 0.7 7.1" fill="#058aff" fill-rule="evenodd" stroke="none"/>
      <path d="M10.2 8.4 L10.2 8.5 10.3 8.6 10.3 8.65 10.25 8.75 10.2 8.8 10.15 8.85 10.15 8.8 10.0 8.55 9.95 8.5 9.9 8.45 9.55 8.35 9.45 8.35 9.0 8.4 8.9 8.45 8.8 8.5 8.7 8.5 8.8 8.45 8.9 8.4 8.95 8.4 9.55 8.2 9.6 8.2 Q9.8 8.2 9.95 8.35 L10.15 8.4 10.2 8.4 M11.1 8.75 L11.15 8.35 11.2 8.35 11.25 8.4 11.4 8.45 11.4 8.5 11.3 8.6 11.2 8.75 11.1 8.85 11.1 8.75 M1.8 8.5 L2.55 8.45 2.6 8.45 2.55 8.55 2.5 8.65 2.5 8.7 2.45 8.7 2.1 8.7 1.75 8.7 1.7 8.7 1.75 8.55 1.8 8.5" fill="#c6ffff" fill-rule="evenodd" stroke="none"/>
      <path d="M1.55 8.55 L1.55 8.5 1.8 8.5 1.75 8.55 1.7 8.7 1.4 8.7 1.55 8.55" fill="#f3fbee" fill-rule="evenodd" stroke="none"/>
      <path d="M2.6 8.45 L2.9 7.9 3.05 7.65 3.4 6.9 3.25 7.4 3.05 7.9 2.85 8.45 2.8 8.45 2.6 8.45" fill="#97e8ff" fill-rule="evenodd" stroke="none"/>
      <path d="M2.8 8.45 L2.75 8.65 2.7 8.65 2.5 8.7 2.5 8.65 2.55 8.55 2.6 8.45 2.8 8.45" fill="#d1ffff" fill-rule="evenodd" stroke="none"/>
      <path d="M3.2 8.45 L3.1 8.6 3.0 8.6 2.75 8.65 2.8 8.45 2.85 8.45 2.9 8.45 3.1 8.45 3.2 8.45" fill="#f1ffff" fill-rule="evenodd" stroke="none"/>
      <path d="M-1.3 7.15 L-1.3 6.4 -0.4 6.9 0.1 7.05 0.7 7.1 0.15 7.3 0.05 7.7 -1.1 7.3 -1.3 7.15" fill="#0490ff" fill-rule="evenodd" stroke="none"/>
      <path d="M-1.3 8.8 L-1.3 8.1 -0.1 7.95 0.5 7.95 0.9 7.95 0.75 8.55 0.35 8.55 -0.7 8.65 -0.75 8.7 -1.3 8.8" fill="#0768f3" fill-rule="evenodd" stroke="none"/>
      <path d="M0.75 8.55 L0.75 8.8 0.35 8.8 -0.7 8.95 -0.75 8.7 -0.7 8.65 0.35 8.55 0.75 8.55" fill="#abffff" fill-rule="evenodd" stroke="none"/>
      <path d="M1.6 8.05 L1.85 8.1 1.55 8.5 1.55 8.55 1.15 8.5 1.1 8.5 1.6 8.05" fill="#0e91e3" fill-rule="evenodd" stroke="none"/>
      <path d="M1.1 8.5 L1.15 8.5 1.55 8.55 1.4 8.7 1.35 8.8 1.05 8.8 0.75 8.8 0.75 8.55 1.1 8.5" fill="#dbffff" fill-rule="evenodd" stroke="none"/>
      <path d="M0.9 7.95 L1.6 8.05 1.1 8.5 0.75 8.55 0.9 7.95" fill="#0187fa" fill-rule="evenodd" stroke="none"/>
      <path d="M1.35 8.8 L1.4 8.7 1.7 8.7 1.6 8.85 1.2 9.45 1.2 9.5 1.15 9.55 1.05 9.65 1.0 9.7 0.95 9.65 0.85 9.55 0.9 9.5 0.95 9.4 1.35 8.8" fill="#eaffff" fill-rule="evenodd" stroke="none"/>
      <path d="M0.9 9.5 L0.8 9.45 0.85 9.4 0.95 9.4 0.9 9.5 M0.45 9.95 L0.5 9.85 0.7 9.8 0.5 10.05 0.45 9.95" fill="#00b4f7" fill-rule="evenodd" stroke="none"/>
      <path d="M1.05 8.8 L1.35 8.8 0.95 9.4 0.85 9.4 0.95 9.1 1.05 8.8" fill="#00a9fb" fill-rule="evenodd" stroke="none"/>
      <path d="M0.35 8.8 L0.75 8.8 1.05 8.8 0.95 9.1 0.85 9.4 0.35 9.35 0.35 8.8" fill="#01bef6" fill-rule="evenodd" stroke="none"/>
      <path d="M1.7 8.7 L1.75 8.7 2.1 8.7 2.45 8.7 2.5 8.7 2.35 8.95 2.05 9.5 2.0 9.6 1.8 10.0 1.45 10.9 1.3 11.35 1.05 12.0 0.85 11.9 0.55 11.8 -0.05 11.55 -0.05 11.5 0.1 11.2 0.65 10.25 1.0 9.7 1.05 9.65 1.15 9.55 1.2 9.5 1.2 9.45 1.6 8.85 1.7 8.7" fill="#00d2fa" fill-rule="evenodd" stroke="none"/>
      <path d="M0.9 9.5 L0.85 9.55 0.7 9.8 0.5 9.85 0.45 9.95 0.35 9.9 0.15 9.6 0.35 9.5 0.35 9.35 0.85 9.4 0.8 9.45 0.9 9.5" fill="#00b7ff" fill-rule="evenodd" stroke="none"/>
      <path d="M0.35 9.35 L0.35 9.5 0.15 9.6 -0.35 9.95 -0.5 9.5 -0.55 9.4 -0.35 9.4 0.0 9.35 0.35 9.35" fill="#00c0fd" fill-rule="evenodd" stroke="none"/>
      <path d="M-0.7 8.95 L0.35 8.8 0.35 9.35 0.0 9.35 -0.35 9.4 -0.55 9.4 -0.65 9.15 -0.7 9.0 -0.7 8.95" fill="#00befd" fill-rule="evenodd" stroke="none"/>
      <path d="M0.45 9.95 L0.5 10.05 0.15 10.55 0.05 10.85 0.0 10.95 -0.1 10.7 0.45 9.95" fill="#00a8ff" fill-rule="evenodd" stroke="none"/>
      <path d="M0.7 9.8 L0.85 9.55 0.95 9.65 1.0 9.7 0.65 10.25 0.1 11.2 -0.05 11.5 -0.05 11.55 -0.2 11.5 -0.3 11.45 -0.25 11.4 0.0 10.95 0.05 10.85 0.15 10.55 0.5 10.05 0.7 9.8" fill="#a5edff" fill-rule="evenodd" stroke="none"/>
      <path d="M0.15 9.6 L0.35 9.9 0.45 9.95 -0.1 10.7 -0.2 10.4 -0.15 10.4 -0.25 10.1 -0.25 10.05 -0.35 9.95 0.15 9.6" fill="#00c6ff" fill-rule="evenodd" stroke="none"/>
      <path d="M3.1 8.6 L3.2 8.6 4.25 8.55 Q3.65 8.8 3.3 9.45 3.0 10.0 3.0 10.7 L3.0 10.8 2.9 10.65 2.8 10.25 2.75 10.45 2.65 10.15 2.65 9.95 Q2.7 9.45 3.1 8.6" fill="#00d9f4" fill-rule="evenodd" stroke="none"/>
      <path d="M2.75 8.65 L3.0 8.6 3.1 8.6 Q2.7 9.45 2.65 9.95 L2.65 10.15 2.75 10.45 2.35 11.55 2.0 12.25 1.95 12.35 1.25 12.05 1.4 11.75 1.6 11.25 2.0 10.3 2.2 9.85 2.2 9.8 2.25 9.65 2.55 9.0 2.7 8.75 2.75 8.65" fill="#00adf8" fill-rule="evenodd" stroke="none"/>
      <path d="M16.35 10.05 L16.6 9.95 16.85 10.85 16.6 11.2 16.4 11.05 16.55 10.8 16.55 10.75 16.35 10.05 M11.3 8.8 L11.95 8.95 12.0 9.0 12.15 9.0 12.8 9.25 13.45 9.5 13.45 9.55 13.45 9.7 12.75 9.45 11.9 9.15 11.4 9.05 11.4 9.0 11.3 8.8 M2.5 8.7 L2.7 8.65 2.75 8.65 2.7 8.75 2.55 9.0 2.25 9.65 2.2 9.8 2.2 9.85 2.0 10.3 1.8 10.0 2.0 9.6 2.05 9.5 2.35 8.95 2.5 8.7" fill="#d2ffff" fill-rule="evenodd" stroke="none"/>
      <path d="M2.0 10.3 L1.6 11.25 1.4 11.75 1.25 12.05 1.1 12.0 1.05 12.0 1.3 11.35 1.45 10.9 1.8 10.0 2.0 10.3" fill="#76f3ff" fill-rule="evenodd" stroke="none"/>
      <path d="M2.75 10.45 L2.8 10.25 2.9 10.65 3.0 10.8 3.2 11.45 3.55 11.9 3.4 12.6 3.4 12.85 2.7 12.6 2.55 12.55 2.05 12.4 1.95 12.35 2.0 12.25 2.35 11.55 2.75 10.45" fill="#01d3f8" fill-rule="evenodd" stroke="none"/>
      <path d="M1.25 12.05 L1.95 12.35 2.05 12.4 2.55 12.55 2.7 12.6 3.4 12.85 3.4 12.95 2.7 12.75 2.55 12.7 2.45 12.65 2.0 12.5 1.9 12.45 1.2 12.2 1.25 12.05" fill="#08faec" fill-rule="evenodd" stroke="none"/>
      <path d="M3.05 15.25 L3.0 15.25 3.0 15.2 2.5 14.9 2.2 14.7 1.5 14.25 1.35 14.1 0.8 13.5 0.95 13.05 1.0 12.8 1.2 12.2 1.9 12.45 2.0 12.5 2.0 12.55 1.95 13.05 1.95 13.3 2.55 13.7 3.25 14.2 3.35 14.25 3.4 14.5 3.45 15.5 3.05 15.25" fill="#0593ff" fill-rule="evenodd" stroke="none"/>
      <path d="M2.0 12.5 L2.45 12.65 2.55 12.7 2.7 12.75 3.4 12.95 3.35 13.8 3.35 13.85 3.65 14.1 3.7 14.15 4.25 14.5 4.2 14.75 3.75 14.45 3.7 14.45 3.5 14.35 3.35 14.25 3.25 14.2 2.55 13.7 1.95 13.3 1.95 13.05 2.0 12.55 2.0 12.5 M-0.2 10.4 L-0.1 10.7 -0.25 10.95 -0.45 11.35 -0.45 11.3 -0.6 11.15 -0.6 10.95 -0.6 10.75 -0.55 10.7 -0.4 10.55 -0.2 10.4" fill="#00bcff" fill-rule="evenodd" stroke="none"/>
      <path d="M-0.05 11.55 L0.55 11.8 0.85 11.9 1.05 12.0 1.0 12.15 0.75 12.05 -0.15 11.7 -0.05 11.55" fill="#02e4f2" fill-rule="evenodd" stroke="none"/>
      <path d="M1.2 12.2 L1.0 12.15 1.05 12.0 1.1 12.0 1.25 12.05 1.2 12.2" fill="#d1f3fc" fill-rule="evenodd" stroke="none"/>
      <path d="M1.0 12.15 L1.2 12.2 1.0 12.8 0.95 13.05 0.75 12.85 0.8 12.85 1.0 12.15" fill="#a6f3ff" fill-rule="evenodd" stroke="none"/>
      <path d="M-0.15 11.7 L0.75 12.05 1.0 12.15 0.8 12.85 0.75 12.85 0.1 12.2 -0.25 11.85 -0.2 11.85 -0.15 11.7" fill="#02c7fb" fill-rule="evenodd" stroke="none"/>
      <path d="M16.2 11.3 L16.3 11.55 16.3 11.6 16.15 11.8 16.1 11.85 15.7 12.5 15.6 12.35 15.6 12.3 15.85 11.85 16.2 11.3 M0.95 13.05 L0.8 13.5 0.75 13.8 0.45 13.55 0.5 13.4 0.75 12.85 0.95 13.05" fill="#e2ffff" fill-rule="evenodd" stroke="none"/>
      <path d="M-0.25 11.85 L0.1 12.2 0.75 12.85 0.5 13.4 0.45 13.55 0.35 13.5 -0.1 12.9 -0.5 12.4 -0.45 12.3 -0.25 11.85" fill="#00b4fb" fill-rule="evenodd" stroke="none"/>
      <path d="M3.6 16.4 L3.15 16.25 Q2.6 16.05 2.2 15.85 L2.05 15.75 2.15 16.0 1.95 15.9 1.3 15.4 0.9 15.15 0.1 14.65 -0.55 13.75 -0.75 13.1 -0.75 13.0 -0.5 12.4 -0.1 12.9 0.35 13.5 0.45 13.55 0.75 13.8 1.55 14.55 2.4 15.1 2.55 15.2 3.25 15.65 3.35 15.9 3.6 16.4" fill="#01bafb" fill-rule="evenodd" stroke="none"/>
      <path d="M0.8 13.5 L1.35 14.1 1.5 14.25 2.2 14.7 2.5 14.9 2.5 15.05 2.55 15.2 2.4 15.1 1.55 14.55 0.75 13.8 0.8 13.5" fill="#cbeafe" fill-rule="evenodd" stroke="none"/>
      <path d="M4.35 12.6 L4.7 10.8 4.85 11.25 4.95 11.45 4.8 12.35 4.75 12.4 Q4.6 12.45 4.6 12.65 L4.35 12.6" fill="#00a3f0" fill-rule="evenodd" stroke="none"/>
      <path d="M4.2 10.65 L4.4 10.7 Q4.45 10.6 4.65 10.55 L4.7 10.8 4.35 12.6 4.5 13.15 4.4 13.1 3.8 12.9 3.75 12.9 3.85 12.1 3.9 11.65 3.9 11.6 3.95 11.6 4.15 10.7 4.2 10.65" fill="#00a4f2" fill-rule="evenodd" stroke="none"/>
      <path d="M3.9 11.65 L3.85 12.1 3.75 12.9 3.6 12.85 3.7 12.05 3.8 11.6 3.85 11.65 3.9 11.65" fill="#006aca" fill-rule="evenodd" stroke="none"/>
      <path d="M3.55 11.9 L3.7 12.05 3.6 12.85 3.55 12.85 3.4 12.85 3.4 12.6 3.55 11.9" fill="#baf7ff" fill-rule="evenodd" stroke="none"/>
      <path d="M4.75 12.4 L5.15 13.1 5.2 13.15 4.95 13.25 4.9 13.25 4.7 13.05 4.6 12.7 4.6 12.65 Q4.6 12.45 4.75 12.4" fill="#04b2ee" fill-rule="evenodd" stroke="none"/>
      <path d="M3.75 12.9 L3.8 12.9 4.4 13.1 4.5 13.15 4.55 13.25 4.55 13.35 4.4 13.25 3.75 13.05 3.6 13.0 3.6 12.95 3.6 12.85 3.75 12.9" fill="#18dffe" fill-rule="evenodd" stroke="none"/>
      <path d="M5.35 13.35 L5.5 13.6 5.45 13.6 5.4 13.55 5.3 13.55 4.55 13.35 4.55 13.25 4.5 13.15 4.9 13.25 4.95 13.25 5.35 13.35" fill="#0dfff3" fill-rule="evenodd" stroke="none"/>
      <path d="M3.75 13.05 L4.4 13.25 4.55 13.35 4.4 13.8 4.3 14.3 4.2 14.2 3.7 13.8 3.75 13.05" fill="#00a1ea" fill-rule="evenodd" stroke="none"/>
      <path d="M3.4 12.85 L3.55 12.85 3.6 12.85 3.6 12.95 3.6 13.0 3.4 12.95 3.4 12.85" fill="#ddffff" fill-rule="evenodd" stroke="none"/>
      <path d="M3.4 12.95 L3.6 13.0 3.6 13.7 3.65 14.1 3.35 13.85 3.35 13.8 3.4 12.95" fill="#e9fcf6" fill-rule="evenodd" stroke="none"/>
      <path d="M3.6 13.0 L3.75 13.05 3.7 13.8 3.6 13.7 3.6 13.0" fill="#0067bd" fill-rule="evenodd" stroke="none"/>
      <path d="M4.9 14.65 L4.6 14.7 4.25 14.5 3.7 14.15 3.65 14.1 3.6 13.7 3.7 13.8 4.2 14.2 4.3 14.3 4.65 14.5 4.7 14.55 4.9 14.65" fill="#f4fbeb" fill-rule="evenodd" stroke="none"/>
      <path d="M5.4 15.5 L5.7 15.7 6.6 16.3 7.3 16.85 7.6 17.1 6.7 16.65 6.5 16.55 6.3 16.5 5.65 16.25 5.55 16.25 5.9 16.4 6.55 16.7 7.75 17.35 7.75 17.4 7.95 17.45 8.25 17.6 8.45 17.75 8.75 17.85 8.45 17.8 7.9 17.65 7.7 17.55 7.65 17.55 6.55 17.15 6.35 17.1 6.25 17.05 5.6 16.85 5.45 16.7 5.35 16.7 5.05 16.5 5.25 16.55 4.95 16.4 4.35 16.05 4.2 15.95 4.15 15.9 3.5 15.5 3.45 15.5 3.4 14.5 3.35 14.25 3.5 14.35 3.7 14.45 3.75 14.45 4.2 14.75 4.25 14.8 5.35 15.45 5.4 15.5" fill="#018cff" fill-rule="evenodd" stroke="none"/>
      <path d="M5.5 13.6 L5.55 13.7 5.65 14.7 5.65 14.9 5.0 14.65 4.7 14.55 4.65 14.5 4.3 14.3 4.4 13.8 4.55 13.35 5.3 13.55 5.4 13.55 5.45 13.6 5.5 13.6" fill="#01a1f7" fill-rule="evenodd" stroke="none"/>
      <path d="M5.65 14.9 L5.7 14.9 5.95 14.95 7.35 15.35 7.55 15.4 7.9 15.45 9.6 15.65 10.95 15.65 11.3 15.65 11.55 15.65 11.6 15.65 11.9 15.65 12.95 15.6 13.9 15.55 14.05 15.5 14.45 15.45 14.35 15.65 14.15 15.65 14.05 15.65 13.8 15.7 12.95 15.75 11.9 15.8 11.85 15.8 11.65 15.8 11.3 15.8 11.1 15.8 10.95 15.8 9.6 15.75 7.9 15.6 7.55 15.5 7.35 15.5 5.7 15.0 4.9 14.65 4.7 14.55 5.0 14.65 5.65 14.9" fill="#004fe3" fill-rule="evenodd" stroke="none"/>
      <path d="M6.5 13.7 L6.45 13.7 6.2 13.7 5.95 13.7 5.85 13.7 5.8 13.7 5.5 13.6 5.35 13.35 5.7 13.45 6.25 13.65 6.5 13.7" fill="#0af6ea" fill-rule="evenodd" stroke="none"/>
      <path d="M11.65 14.65 L11.45 14.9 11.4 14.95 11.3 15.0 10.6 15.3 11.25 15.1 11.35 15.1 11.4 15.05 11.55 15.0 12.1 14.8 12.35 14.65 11.6 15.65 11.55 15.65 11.3 15.65 10.95 15.65 9.6 15.65 7.9 15.45 7.55 15.4 7.35 15.35 5.95 14.95 5.7 14.9 5.65 14.9 5.65 14.7 5.55 13.7 5.5 13.6 5.8 13.7 5.85 13.7 6.45 13.9 Q6.65 15.25 9.05 15.25 L10.15 15.1 10.35 15.05 11.05 14.9 11.6 14.7 11.65 14.65 M5.35 16.7 L5.25 16.7 5.2 16.75 5.05 16.75 4.95 16.8 4.8 16.8 4.7 16.8 4.2 16.85 2.7 16.6 2.2 16.4 1.95 16.3 Q0.8 15.5 -0.3 14.85 L-0.7 14.6 -0.85 14.4 -1.0 14.3 -1.25 14.15 -1.05 13.65 -0.8 13.15 -0.75 13.0 -0.75 13.1 -0.55 13.75 0.1 14.65 0.9 15.15 1.3 15.4 1.95 15.9 2.15 16.0 2.05 15.75 2.2 15.85 Q2.6 16.05 3.15 16.25 L3.6 16.4 4.25 16.65 4.65 16.75 4.5 16.35 4.55 16.3 5.0 16.5 5.05 16.5 5.35 16.7" fill="#009cfd" fill-rule="evenodd" stroke="none"/>
      <path d="M8.1 14.0 L8.15 14.2 7.45 14.1 6.45 13.9 5.85 13.7 5.95 13.7 6.2 13.7 6.45 13.7 6.5 13.7 7.05 13.8 8.1 14.0" fill="#0cc5fd" fill-rule="evenodd" stroke="none"/>
      <path d="M-1.3 8.1 L-1.3 7.15 -1.1 7.3 0.05 7.7 -0.1 7.95 -1.3 8.1" fill="#027ef8" fill-rule="evenodd" stroke="none"/>
      <path d="M-1.3 9.05 L-1.3 8.8 -0.75 8.7 -0.7 8.95 -1.3 9.05" fill="#69e9ff" fill-rule="evenodd" stroke="none"/>
      <path d="M-1.3 9.4 L-1.3 9.05 -0.7 8.95 -0.7 9.0 -0.65 9.15 -0.95 9.35 -1.15 9.55 -1.3 9.4" fill="#03b8ff" fill-rule="evenodd" stroke="none"/>
      <path d="M-0.55 9.4 L-0.5 9.5 -0.35 9.95 -0.75 10.15 -0.9 9.9 -1.0 9.75 -1.15 9.55 -0.95 9.35 -0.65 9.15 -0.55 9.4" fill="#00b3fd" fill-rule="evenodd" stroke="none"/>
      <path d="M-1.3 10.0 L-1.3 9.4 -1.15 9.55 -1.0 9.75 -0.9 9.9 -0.95 10.0 -1.0 10.15 -1.2 10.1 -1.25 10.0 -1.3 10.0" fill="#00a8fc" fill-rule="evenodd" stroke="none"/>
      <path d="M-0.9 9.9 L-0.75 10.15 -0.6 10.65 -0.95 10.4 -1.05 10.45 -1.2 10.1 -1.0 10.15 -0.95 10.0 -0.9 9.9" fill="#02b6ff" fill-rule="evenodd" stroke="none"/>
      <path d="M-1.3 10.6 L-1.3 10.1 -1.2 10.1 -1.05 10.45 -1.3 10.6" fill="#008af9" fill-rule="evenodd" stroke="none"/>
      <path d="M-1.05 10.45 L-0.95 10.4 -0.6 10.65 -0.6 10.75 -0.6 10.95 -0.6 11.15 -0.7 11.0 -1.05 10.45" fill="#04afff" fill-rule="evenodd" stroke="none"/>
      <path d="M-1.3 10.1 L-1.3 10.0 -1.25 10.0 -1.2 10.1 -1.3 10.1" fill="#0288f9" fill-rule="evenodd" stroke="none"/>
      <path d="M-1.3 11.05 L-1.3 10.6 -1.05 10.45 -0.7 11.0 -0.6 11.15 -0.45 11.3 -0.65 11.25 -0.75 11.2 -1.3 11.05" fill="#018ef7" fill-rule="evenodd" stroke="none"/>
      <path d="M-0.75 10.15 L-0.35 9.95 -0.25 10.05 -0.25 10.1 -0.15 10.4 -0.2 10.4 -0.4 10.55 -0.55 10.7 -0.6 10.75 -0.6 10.65 -0.75 10.15" fill="#06bbff" fill-rule="evenodd" stroke="none"/>
      <path d="M-0.45 11.35 L-0.25 10.95 -0.1 10.7 0.0 10.95 -0.25 11.4 -0.45 11.35" fill="#00abfe" fill-rule="evenodd" stroke="none"/>
      <path d="M-0.45 11.3 L-0.45 11.35 -0.25 11.4 -0.3 11.45 -0.35 11.65 -0.35 11.6 -0.5 11.6 -0.5 11.45 -0.5 11.4 -0.45 11.3" fill="#0cc6ff" fill-rule="evenodd" stroke="none"/>
      <path d="M-1.3 11.25 L-1.3 11.05 -0.75 11.2 -0.65 11.25 -0.45 11.3 -0.5 11.4 -0.5 11.45 -0.5 11.6 -0.55 11.6 -1.3 11.25" fill="#12dbf9" fill-rule="evenodd" stroke="none"/>
      <path d="M-0.15 11.7 L-0.2 11.85 -0.25 11.85 -0.45 12.3 -0.6 12.15 -0.35 11.65 -0.3 11.45 -0.2 11.5 -0.05 11.55 -0.15 11.7" fill="#d4fefc" fill-rule="evenodd" stroke="none"/>
      <path d="M-0.75 13.0 L-0.8 13.15 -1.05 13.65 -1.2 13.45 -1.1 13.1 -0.7 12.25 -0.6 12.15 -0.45 12.3 -0.5 12.4 -0.75 13.0" fill="#49eaff" fill-rule="evenodd" stroke="none"/>
      <path d="M-1.3 14.15 L-1.3 13.55 -1.2 13.45 -1.05 13.65 -1.25 14.15 -1.3 14.15" fill="#06cfff" fill-rule="evenodd" stroke="none"/>
      <path d="M-1.3 16.15 L-1.3 14.15 -1.25 14.15 -1.0 14.3 -0.85 14.4 -0.7 14.6 -0.35 15.0 0.25 15.7 0.3 15.75 0.25 15.85 0.45 17.2 0.7 18.25 0.5 18.15 0.25 17.85 -0.45 17.15 -0.55 17.05 -1.3 16.15" fill="#0384fc" fill-rule="evenodd" stroke="none"/>
      <path d="M-0.7 14.6 L-0.3 14.85 Q0.8 15.5 1.95 16.3 L2.2 16.4 2.7 16.6 4.2 16.85 4.7 16.8 5.2 17.9 5.3 18.15 5.2 18.4 4.55 18.2 4.0 18.0 3.85 17.95 3.45 17.75 0.5 15.7 0.4 15.55 -0.35 15.0 -0.7 14.6" fill="#0089fd" fill-rule="evenodd" stroke="none"/>
      <path d="M-1.3 16.65 L-1.3 16.15 -0.55 17.05 -0.7 17.25 -0.75 17.15 -1.3 16.65" fill="#05ecfc" fill-rule="evenodd" stroke="none"/>
      <path d="M1.65 19.15 L1.35 19.15 0.8 18.7 0.75 18.6 0.75 18.65 0.55 18.5 0.4 18.35 0.1 18.05 0.1 18.0 -0.6 17.35 -0.7 17.25 -0.55 17.05 -0.45 17.15 0.25 17.85 0.5 18.15 0.7 18.3 0.75 18.35 1.0 18.55 1.65 19.15" fill="#16c7ff" fill-rule="evenodd" stroke="none"/>
      <path d="M5.7 15.2 L6.25 15.45 6.45 15.5 6.85 15.6 7.65 15.75 7.5 16.2 7.35 16.35 6.75 16.1 5.7 15.7 5.4 15.5 5.7 15.2" fill="#0192fd" fill-rule="evenodd" stroke="none"/>
      <path d="M5.7 15.2 L5.7 15.0 7.35 15.5 7.55 15.5 7.65 15.75 6.85 15.6 6.45 15.5 6.25 15.45 5.7 15.2" fill="#3efcf2" fill-rule="evenodd" stroke="none"/>
      <path d="M4.6 14.7 L5.0 14.9 5.7 15.2 5.4 15.5 5.35 15.45 4.25 14.8 4.2 14.75 4.25 14.5 4.6 14.7" fill="#05abff" fill-rule="evenodd" stroke="none"/>
      <path d="M5.7 15.0 L5.7 15.2 5.0 14.9 4.6 14.7 4.9 14.65 5.7 15.0" fill="#87fff4" fill-rule="evenodd" stroke="none"/>
      <path d="M5.7 15.7 L6.75 16.1 7.35 16.35 7.45 16.4 9.45 17.3 9.55 17.35 10.1 17.6 10.2 17.8 10.05 18.1 9.75 18.2 9.65 18.15 9.55 18.15 8.95 17.8 7.6 17.1 7.3 16.85 6.6 16.3 5.7 15.7" fill="#0375fc" fill-rule="evenodd" stroke="none"/>
      <path d="M7.75 17.35 L6.55 16.7 5.9 16.4 5.55 16.25 5.65 16.25 6.3 16.5 6.5 16.55 6.7 16.65 7.6 17.1 7.75 17.35" fill="#0036ed" fill-rule="evenodd" stroke="none"/>
      <path d="M5.05 16.5 L5.0 16.5 4.55 16.3 4.5 16.25 4.2 16.1 3.25 15.65 3.05 15.25 3.45 15.5 3.5 15.5 4.15 15.9 4.2 15.95 4.35 16.05 4.95 16.4 5.25 16.55 5.05 16.5" fill="#8cd3ff" fill-rule="evenodd" stroke="none"/>
      <path d="M8.85 19.15 L8.05 19.15 8.05 19.05 7.9 18.8 7.8 18.6 7.75 18.55 6.6 17.65 6.2 17.35 6.15 17.35 5.45 16.8 5.35 16.7 5.45 16.7 5.6 16.85 6.25 17.05 6.35 17.1 6.55 17.25 7.55 17.95 7.95 18.2 8.15 18.4 8.85 19.15" fill="#005efb" fill-rule="evenodd" stroke="none"/>
      <path d="M4.55 16.3 L4.5 16.35 4.65 16.75 4.25 16.65 3.6 16.4 3.35 15.9 3.25 15.65 4.2 16.1 4.5 16.25 4.55 16.3" fill="#07a6ff" fill-rule="evenodd" stroke="none"/>
      <path d="M4.7 16.8 L4.8 16.8 4.95 16.8 5.05 16.75 5.2 16.75 5.25 16.7 5.35 16.7 5.45 16.8 6.15 17.35 6.2 17.35 6.6 17.65 7.75 18.55 7.8 18.6 7.9 18.8 8.05 19.05 6.35 18.7 5.2 18.4 5.3 18.15 5.2 17.9 4.7 16.8" fill="#0283fa" fill-rule="evenodd" stroke="none"/>
      <path d="M8.05 19.15 L4.1 19.15 2.55 17.9 0.4 15.8 0.35 15.8 0.3 15.75 0.25 15.7 -0.35 15.0 0.4 15.55 0.5 15.7 3.45 17.75 3.85 17.95 3.8 17.95 4.0 18.0 4.55 18.2 5.2 18.4 6.35 18.7 8.05 19.05 8.05 19.15" fill="#0163fc" fill-rule="evenodd" stroke="none"/>
      <path d="M10.2 19.15 L9.75 19.15 9.75 19.1 9.05 18.8 8.15 18.35 7.95 18.2 7.55 17.95 6.55 17.25 6.35 17.1 6.55 17.15 7.65 17.55 7.7 17.55 7.9 17.65 8.45 17.8 8.75 17.85 8.95 17.95 9.5 18.2 9.55 18.25 10.35 18.55 10.4 18.6 10.35 18.65 10.2 19.05 10.2 19.15" fill="#008bff" fill-rule="evenodd" stroke="none"/>
      <path d="M2.5 14.9 L3.0 15.2 3.0 15.25 3.05 15.25 3.25 15.65 2.55 15.2 2.5 15.05 2.5 14.9" fill="#a9efff" fill-rule="evenodd" stroke="none"/>
      <path d="M4.1 19.15 L2.25 19.15 1.05 18.5 0.8 18.3 0.7 18.25 0.45 17.2 0.25 15.85 0.3 15.75 0.35 15.8 0.4 15.8 2.55 17.9 4.1 19.15 M14.5 13.3 L14.5 13.25 14.85 12.85 15.15 12.45 15.25 12.25 15.3 12.15 15.35 12.05 15.6 12.3 15.3 12.75 15.2 12.9 14.95 13.25 14.6 13.65 14.6 13.6 14.5 13.3" fill="#007efe" fill-rule="evenodd" stroke="none"/>
      <path d="M2.25 19.15 L1.65 19.15 1.0 18.55 0.75 18.35 0.7 18.3 0.5 18.15 0.7 18.25 0.8 18.3 1.05 18.5 2.25 19.15" fill="#0063f4" fill-rule="evenodd" stroke="none"/>
      <path d="M17.1 6.1 L17.65 6.95 17.65 7.0 17.7 7.8 17.65 8.85 17.5 8.7 16.7 7.9 16.7 7.7 16.75 7.3 17.1 6.1" fill="#033846" fill-rule="evenodd" stroke="none"/>
      <path d="M17.65 7.0 L17.7 7.05 17.8 7.3 18.6 9.25 Q18.15 9.15 17.65 8.85 L17.7 7.8 17.65 7.0" fill="#062230" fill-rule="evenodd" stroke="none"/>
      <path d="M16.6 9.95 L16.3 8.9 16.15 8.55 16.5 7.95 16.45 7.5 16.65 7.85 16.7 7.9 17.0 9.8 16.9 10.0 16.9 10.1 16.95 10.8 16.9 11.3 16.9 11.35 16.6 11.2 16.85 10.85 16.6 9.95" fill="#00a5f9" fill-rule="evenodd" stroke="none"/>
      <path d="M16.9 11.35 L16.9 11.3 16.95 10.8 16.9 10.1 16.9 10.0 17.0 9.8 17.45 10.8 17.3 11.55 17.3 11.6 17.25 11.6 16.9 11.35" fill="#0a8ff6" fill-rule="evenodd" stroke="none"/>
      <path d="M18.6 9.25 L18.85 9.9 18.85 9.95 18.6 10.55 18.3 11.2 17.95 10.6 17.6 9.8 17.65 8.85 Q18.15 9.15 18.6 9.25" fill="#003e54" fill-rule="evenodd" stroke="none"/>
      <path d="M16.7 7.9 L17.5 8.7 17.65 8.85 17.6 9.8 17.4 9.25 17.0 9.8 16.7 7.9" fill="#0177a5" fill-rule="evenodd" stroke="none"/>
      <path d="M17.0 9.8 L17.4 9.25 17.6 9.8 17.5 10.5 17.45 10.8 17.0 9.8" fill="#006d9d" fill-rule="evenodd" stroke="none"/>
      <path d="M17.45 10.8 L17.5 10.5 17.6 9.8 17.95 10.6 18.3 11.2 18.25 11.25 18.1 11.55 18.0 11.7 17.45 10.8" fill="#005d9e" fill-rule="evenodd" stroke="none"/>
      <path d="M16.15 8.55 L16.1 8.3 15.8 7.45 16.05 7.5 16.3 7.5 16.4 7.45 16.45 7.5 16.5 7.95 16.15 8.55" fill="#00b1f6" fill-rule="evenodd" stroke="none"/>
      <path d="M13.8 7.6 L14.0 7.5 14.05 7.5 14.1 7.85 14.2 8.3 14.25 8.55 14.05 8.65 13.8 7.6 M13.55 10.35 L13.5 10.1 13.75 10.05 13.85 10.05 14.0 10.05 14.0 10.3 13.9 10.3 13.55 10.35" fill="#ceffff" fill-rule="evenodd" stroke="none"/>
      <path d="M13.8 6.7 L14.05 7.5 14.0 7.5 13.8 7.6 13.5 6.65 13.7 6.65 13.75 6.7 13.8 6.7" fill="#fff8ff" fill-rule="evenodd" stroke="none"/>
      <path d="M13.15 7.1 L13.6 8.05 13.7 7.95 13.75 8.1 13.85 8.55 13.85 8.65 13.95 9.35 14.0 9.7 13.9 9.65 13.45 9.5 13.25 8.1 13.15 7.6 13.15 7.3 13.15 7.1 M13.45 9.7 L13.5 9.7 14.0 9.9 14.0 10.05 13.85 10.05 13.75 10.05 13.5 10.1 13.45 9.7" fill="#06d8f1" fill-rule="evenodd" stroke="none"/>
      <path d="M13.45 9.5 L13.9 9.65 14.0 9.7 14.2 9.8 14.5 9.9 14.5 9.95 14.5 10.1 14.5 10.15 14.25 10.0 14.0 9.9 13.5 9.7 13.45 9.7 13.45 9.55 13.45 9.5" fill="#fff9fa" fill-rule="evenodd" stroke="none"/>
      <path d="M12.1 11.7 L12.7 10.65 13.2 10.3 Q13.3 10.15 13.5 10.1 L13.55 10.35 Q13.1 10.45 12.8 10.9 L12.3 11.75 12.1 11.7" fill="#c0ffff" fill-rule="evenodd" stroke="none"/>
      <path d="M14.05 10.9 L13.75 11.05 13.65 10.95 13.55 10.6 13.55 10.35 13.9 10.3 14.0 10.3 14.0 10.65 14.05 10.9" fill="#079cff" fill-rule="evenodd" stroke="none"/>
      <path d="M14.0 10.3 L14.0 10.05 14.2 10.1 14.2 10.4 14.15 10.35 14.0 10.3" fill="#f7ffff" fill-rule="evenodd" stroke="none"/>
      <path d="M14.5 10.15 L14.5 10.1 14.5 9.95 14.5 9.9 14.55 9.95 14.65 10.0 14.9 10.05 15.6 10.5 16.0 10.75 15.9 10.95 15.5 10.75 14.8 10.3 14.7 10.25 14.5 10.15" fill="#d5ffff" fill-rule="evenodd" stroke="none"/>
      <path d="M14.2 10.1 L14.25 10.0 14.25 10.1 14.3 10.4 14.35 10.85 14.35 11.0 14.35 11.1 14.35 11.35 14.3 11.55 13.9 12.3 13.55 12.85 13.35 13.2 13.15 13.55 13.05 13.7 12.85 13.95 12.85 13.9 13.05 13.5 13.3 13.15 13.8 12.25 14.1 11.7 14.15 11.6 14.2 11.55 14.2 11.5 14.2 11.4 14.25 11.0 14.25 10.7 14.25 10.4 14.2 10.4 14.2 10.1" fill="#0282e7" fill-rule="evenodd" stroke="none"/>
      <path d="M14.05 8.65 L14.25 8.55 14.5 9.9 14.2 9.8 14.05 8.65 M16.85 14.1 L16.95 14.95 16.65 15.25 16.65 14.85 16.65 14.65 16.85 14.1" fill="#d6ffff" fill-rule="evenodd" stroke="none"/>
      <path d="M14.55 10.8 L14.5 10.35 14.5 10.2 14.5 10.15 14.7 10.25 14.8 10.3 15.5 10.75 15.9 10.95 15.35 12.05 15.3 12.15 15.2 12.05 15.15 12.05 15.05 11.95 14.9 11.8 14.65 11.5 14.6 11.45 14.6 11.4 14.55 10.8" fill="#00c9f4" fill-rule="evenodd" stroke="none"/>
      <path d="M14.25 10.0 L14.5 10.15 14.5 10.2 14.5 10.35 14.55 10.8 14.5 10.8 14.35 10.85 14.3 10.4 14.25 10.1 14.25 10.0 M12.85 13.95 L13.05 13.7 13.15 13.55 13.35 13.2 13.55 12.85 13.9 12.3 13.95 12.3 14.1 12.3 13.7 12.85 13.65 12.95 13.5 13.25 13.25 13.65 13.2 13.75 13.15 13.8 12.95 14.2 12.9 14.2 12.8 14.3 12.75 14.35 12.5 14.45 12.7 14.2 12.85 13.95" fill="#b0ffff" fill-rule="evenodd" stroke="none"/>
      <path d="M14.2 10.85 L14.05 10.9 14.0 10.65 14.0 10.3 14.15 10.35 14.2 10.4 14.25 10.4 14.25 10.7 14.2 10.85" fill="#0ba3f6" fill-rule="evenodd" stroke="none"/>
      <path d="M15.7 9.05 L15.95 9.0 16.0 9.0 16.05 8.95 16.35 10.05 16.3 10.1 16.2 10.25 16.1 10.4 16.05 10.65 16.0 10.4 15.8 9.6 15.7 9.05" fill="#0691fa" fill-rule="evenodd" stroke="none"/>
      <path d="M14.9 10.05 L15.65 10.35 15.85 10.45 16.0 10.4 16.05 10.65 16.05 10.8 16.0 10.8 16.0 10.75 15.6 10.5 14.9 10.05" fill="#0dbdff" fill-rule="evenodd" stroke="none"/>
      <path d="M16.35 10.05 L16.55 10.75 16.55 10.8 16.4 11.05 16.2 10.9 16.05 10.8 16.05 10.65 16.1 10.4 16.2 10.25 16.3 10.1 16.35 10.05" fill="#1286ed" fill-rule="evenodd" stroke="none"/>
      <path d="M15.9 10.95 L16.0 10.75 16.0 10.8 16.05 10.8 16.2 10.9 16.4 11.05 16.3 11.2 16.15 11.1 16.0 11.0 15.9 10.95" fill="#9ff3ff" fill-rule="evenodd" stroke="none"/>
      <path d="M15.9 10.95 L16.0 11.0 16.15 11.1 16.3 11.2 16.2 11.3 15.85 11.85 15.6 12.3 15.35 12.05 15.9 10.95" fill="#0087f0" fill-rule="evenodd" stroke="none"/>
      <path d="M16.4 11.05 L16.6 11.2 16.9 11.35 17.25 11.6 17.3 11.6 17.35 11.65 17.4 11.7 17.3 11.8 17.25 11.8 17.15 11.7 16.9 11.55 16.55 11.3 16.3 11.55 16.2 11.3 16.3 11.2 16.4 11.05" fill="#fff9ff" fill-rule="evenodd" stroke="none"/>
      <path d="M16.3 11.55 L16.55 11.3 16.9 11.55 17.15 11.7 17.25 11.8 17.45 12.05 17.45 12.1 17.45 12.25 17.45 12.3 17.65 13.15 17.8 13.85 18.25 14.95 17.95 15.25 17.3 15.7 17.25 15.75 17.15 15.8 17.05 15.45 17.0 15.2 16.95 14.95 16.85 14.1 16.35 11.8 16.3 11.6 16.3 11.55" fill="#0380f6" fill-rule="evenodd" stroke="none"/>
      <path d="M14.6 11.5 L14.65 11.5 14.9 11.8 15.05 11.95 15.15 12.05 15.2 12.05 15.3 12.15 15.25 12.25 15.15 12.45 14.85 12.85 14.5 13.25 14.5 13.3 14.3 13.45 14.3 13.5 14.1 13.75 14.15 13.5 14.15 13.35 Q14.05 13.2 13.75 13.2 L13.5 13.25 13.65 12.95 13.7 12.85 14.1 12.3 14.3 12.05 14.45 11.8 14.6 11.5" fill="#00c8fd" fill-rule="evenodd" stroke="none"/>
      <path d="M15.6 12.3 L15.6 12.35 15.7 12.5 15.6 12.7 15.55 12.8 14.7 13.85 14.4 14.2 14.35 14.2 14.05 14.6 13.9 14.6 13.85 14.6 14.0 14.45 14.25 14.15 14.5 13.85 14.55 13.75 14.6 13.65 14.95 13.25 15.2 12.9 15.3 12.75 15.6 12.3" fill="#71e9ff" fill-rule="evenodd" stroke="none"/>
      <path d="M15.7 12.5 L16.1 11.85 16.15 12.05 16.4 13.05 16.65 14.65 16.2 15.05 15.7 15.2 15.7 14.65 15.65 13.85 Q15.4 14.0 15.3 14.4 L15.3 14.45 15.15 14.4 14.9 14.3 15.05 14.45 15.15 14.5 14.75 14.95 14.3 14.6 14.3 14.55 14.25 14.55 14.05 14.6 14.35 14.2 14.4 14.2 14.7 13.85 15.55 12.8 15.6 12.7 15.7 12.5" fill="#01a6ff" fill-rule="evenodd" stroke="none"/>
      <path d="M16.1 11.85 L16.15 11.8 16.3 11.6 16.35 11.8 16.85 14.1 16.65 14.65 16.4 13.05 16.15 12.05 16.1 11.85" fill="#f4ffff" fill-rule="evenodd" stroke="none"/>
      <path d="M14.35 10.85 L14.5 10.8 14.55 10.8 14.6 11.4 14.6 11.45 14.6 11.5 14.45 11.8 14.3 12.05 14.1 12.3 13.95 12.3 13.9 12.3 14.3 11.55 14.35 11.35 14.35 11.1 14.35 11.0 14.35 10.85 M12.5 14.45 L12.75 14.35 12.8 14.3 12.9 14.2 12.75 14.5 12.55 14.6 12.4 14.65 12.35 14.65 12.5 14.45" fill="#f5fffb" fill-rule="evenodd" stroke="none"/>
      <path d="M12.3 11.75 L12.8 10.9 Q13.1 10.45 13.55 10.35 L13.55 10.6 13.65 10.95 13.75 11.05 14.05 10.9 14.2 10.85 14.15 11.35 14.0 11.65 13.65 12.2 13.65 12.25 13.3 12.9 13.2 13.1 13.0 13.5 12.8 13.9 12.7 14.05 12.25 14.6 11.95 14.75 11.55 14.9 11.45 14.9 11.65 14.65 11.7 14.6 11.85 14.5 12.0 14.4 12.05 14.05 12.0 13.75 12.05 13.05 12.05 12.85 12.05 12.8 12.2 12.15 12.2 12.05 12.3 11.75" fill="#00a0f1" fill-rule="evenodd" stroke="none"/>
      <path d="M14.1 13.75 L14.3 13.5 14.3 13.45 14.5 13.3 14.6 13.6 14.6 13.65 14.55 13.75 14.5 13.85 14.25 14.15 14.0 14.45 13.7 14.45 13.9 14.05 14.05 13.85 14.1 13.75" fill="#0086e5" fill-rule="evenodd" stroke="none"/>
      <path d="M13.5 13.25 L13.75 13.2 Q14.05 13.2 14.15 13.35 L14.15 13.5 14.1 13.75 14.05 13.85 13.9 14.05 13.65 13.9 13.55 13.85 13.2 13.75 13.25 13.65 13.5 13.25" fill="#08e1f2" fill-rule="evenodd" stroke="none"/>
      <path d="M12.95 14.2 L13.15 13.8 13.2 13.75 13.55 13.85 13.65 13.9 13.9 14.05 13.7 14.45 13.4 14.4 13.3 14.35 13.25 14.35 13.1 14.25 12.95 14.2" fill="#04e3e8" fill-rule="evenodd" stroke="none"/>
      <path d="M13.85 14.6 L13.9 14.6 14.05 14.6 13.85 14.9 13.8 15.0 13.65 15.2 13.3 15.35 12.85 15.2 12.75 15.05 12.6 14.8 12.75 14.5 13.0 14.4 13.25 14.35 13.3 14.35 13.4 14.4 13.7 14.45 13.6 14.65 13.8 14.6 13.85 14.6" fill="#00aefc" fill-rule="evenodd" stroke="none"/>
      <path d="M14.0 14.45 L13.85 14.6 13.8 14.6 13.6 14.65 13.7 14.45 14.0 14.45" fill="#009af3" fill-rule="evenodd" stroke="none"/>
      <path d="M11.6 15.65 L12.35 14.65 12.4 14.65 12.55 14.6 12.6 14.8 12.75 15.05 12.85 15.2 13.3 15.35 13.65 15.2 13.8 15.0 13.85 14.9 14.05 14.6 14.25 14.55 14.3 14.55 14.3 14.6 14.75 14.95 14.7 15.0 14.55 15.25 14.45 15.45 14.05 15.5 13.9 15.55 12.95 15.6 11.9 15.65 11.6 15.65 M15.7 15.2 L16.2 15.05 16.65 14.65 16.65 14.85 16.65 15.25 16.15 15.45 15.95 15.5 15.3 15.55 15.45 15.4 15.5 15.25 15.55 15.2 15.6 15.2 15.7 15.2" fill="#0096fa" fill-rule="evenodd" stroke="none"/>
      <path d="M15.3 14.6 L15.25 14.6 14.8 15.0 14.8 15.05 14.65 15.35 14.65 15.45 14.9 15.4 14.8 15.6 14.35 15.65 14.45 15.45 14.55 15.25 14.7 15.0 14.75 14.95 15.15 14.5 15.05 14.45 14.9 14.3 15.15 14.4 15.3 14.45 15.3 14.6" fill="#007df8" fill-rule="evenodd" stroke="none"/>
      <path d="M15.3 14.6 L15.3 14.45 15.35 14.5 15.45 14.6 15.5 14.8 15.35 15.2 15.3 15.4 15.25 15.4 15.2 15.4 15.1 15.4 14.9 15.4 15.05 15.2 15.15 15.1 15.3 14.9 15.3 14.6" fill="#06def3" fill-rule="evenodd" stroke="none"/>
      <path d="M15.3 14.45 L15.3 14.4 Q15.4 14.0 15.65 13.85 L15.7 14.65 15.55 15.15 15.55 15.2 15.5 15.25 15.4 15.35 15.3 15.4 15.35 15.2 15.5 14.8 15.45 14.6 15.35 14.5 15.3 14.45" fill="#03c9fa" fill-rule="evenodd" stroke="none"/>
      <path d="M14.9 15.4 L14.65 15.45 14.65 15.35 14.8 15.05 14.8 15.0 15.25 14.6 15.3 14.6 15.3 14.9 15.15 15.1 15.05 15.2 14.9 15.4" fill="#00e1e9" fill-rule="evenodd" stroke="none"/>
      <path d="M18.6 10.55 L18.6 10.6 18.85 11.55 18.85 12.05 18.25 11.7 18.1 11.55 18.25 11.25 18.3 11.2 18.6 10.55" fill="#003f75" fill-rule="evenodd" stroke="none"/>
      <path d="M17.25 11.8 L17.3 11.8 17.4 11.7 17.35 11.65 17.3 11.6 17.35 11.6 17.8 11.8 17.85 12.0 17.9 12.1 17.85 12.2 17.8 12.25 17.75 12.25 17.7 12.25 17.45 12.1 17.45 12.05 17.25 11.8" fill="#01e6f9" fill-rule="evenodd" stroke="none"/>
      <path d="M17.45 10.8 L18.0 11.7 17.9 11.9 17.85 12.0 17.8 11.8 17.35 11.6 17.3 11.6 17.3 11.55 17.45 10.8" fill="#009aff" fill-rule="evenodd" stroke="none"/>
      <path d="M18.25 14.95 L17.8 13.85 17.65 13.15 17.45 12.3 17.45 12.25 17.45 12.1 17.7 12.25 17.75 12.25 18.15 12.7 18.55 13.15 18.6 13.25 18.5 14.0 18.4 14.55 18.25 14.95" fill="#0199fe" fill-rule="evenodd" stroke="none"/>
      <path d="M18.85 12.05 L18.85 12.8 18.8 12.85 18.7 12.9 18.65 12.85 18.2 12.45 17.85 12.2 17.9 12.1 17.85 12.0 17.9 11.9 18.0 11.7 18.1 11.55 18.25 11.7 18.85 12.05" fill="#0075fc" fill-rule="evenodd" stroke="none"/>
      <path d="M17.75 12.25 L17.8 12.25 17.85 12.2 18.2 12.45 18.65 12.85 18.7 12.9 18.75 13.0 18.8 13.3 18.8 13.45 18.8 13.55 18.8 13.7 18.7 14.25 18.65 14.55 18.6 14.4 Q18.55 14.4 18.45 14.5 L18.4 14.55 18.5 14.0 18.6 13.25 18.55 13.15 18.15 12.7 17.75 12.25" fill="#0beeff" fill-rule="evenodd" stroke="none"/>
      <path d="M18.85 12.8 L18.85 13.55 18.8 13.55 18.8 13.45 18.8 13.3 18.75 13.0 18.7 12.9 18.8 12.85 18.85 12.8" fill="#0075f8" fill-rule="evenodd" stroke="none"/>
      <path d="M18.85 13.65 L18.85 14.7 18.75 14.75 18.65 14.8 18.65 14.55 18.7 14.25 18.8 13.7 18.85 13.65" fill="#006eeb" fill-rule="evenodd" stroke="none"/>
      <path d="M18.65 14.55 L18.65 14.8 18.65 14.9 18.55 15.0 18.45 15.2 18.35 15.2 18.25 15.15 18.25 15.05 18.25 14.95 18.4 14.55 18.45 14.5 Q18.55 14.4 18.6 14.4 L18.65 14.55" fill="#05fefa" fill-rule="evenodd" stroke="none"/>
      <path d="M12.9 6.7 L13.0 6.65 13.05 6.6 13.1 6.7 13.15 7.1 13.15 7.3 13.15 7.6 13.0 8.2 12.95 8.25 12.85 8.4 12.55 8.65 12.5 8.7 12.45 8.7 12.25 8.7 12.15 8.7 11.8 8.6 11.5 8.35 11.4 8.45 11.25 8.4 11.2 8.35 11.2 8.2 11.55 7.85 11.65 7.7 11.85 7.5 12.05 7.4 12.2 7.2 12.45 7.05 12.5 6.95 12.6 6.9 12.9 6.7" fill="#fcffff" fill-rule="evenodd" stroke="none"/>
      <path d="M10.3 8.6 L10.4 8.65 11.1 8.75 11.1 8.85 11.2 8.75 11.3 8.8 11.4 9.0 11.4 9.05 10.25 8.8 10.25 8.75 10.3 8.65 10.3 8.6" fill="#b3ffff" fill-rule="evenodd" stroke="none"/>
      <path d="M10.2 8.8 L10.25 8.75 10.25 8.8 10.2 8.8 M10.15 8.8 L9.9 8.75 9.85 8.55 10.0 8.55 10.15 8.8" fill="#fffdff" fill-rule="evenodd" stroke="none"/>
      <path d="M8.85 8.6 L8.4 8.55 8.5 8.5 8.55 8.5 8.65 8.5 8.7 8.5 8.8 8.5 8.9 8.45 8.85 8.6 M7.55 8.45 L7.45 8.45 7.3 8.5 7.25 8.5 7.25 8.35 7.3 8.35 7.35 8.35 7.55 8.45" fill="#e8ffff" fill-rule="evenodd" stroke="none"/>
      <path d="M9.9 8.75 L9.8 8.75 8.85 8.6 8.9 8.45 9.0 8.4 9.85 8.55 9.9 8.75" fill="#c1fff4" fill-rule="evenodd" stroke="none"/>
      <path d="M11.45 14.9 L11.55 14.9 11.95 14.75 12.25 14.6 12.5 14.45 12.35 14.65 12.1 14.8 11.55 15.0 11.4 15.05 11.35 15.1 11.25 15.1 10.6 15.3 11.3 15.0 11.4 14.95 11.45 14.9 M8.25 13.75 L8.15 13.15 8.15 12.9 8.15 12.8 Q8.55 13.45 9.35 13.45 10.55 13.45 11.45 12.8 L11.95 12.4 11.9 12.65 11.9 12.9 11.9 13.15 11.45 13.5 Q10.5 14.05 9.55 14.05 L8.7 13.9 8.25 13.75" fill="#01d2f9" fill-rule="evenodd" stroke="none"/>
      <path d="M8.1 13.7 L8.25 13.75 8.25 13.8 8.25 13.95 8.25 14.0 8.3 14.15 8.3 14.2 8.4 14.5 8.55 14.7 8.65 14.85 8.55 14.75 8.35 14.55 8.3 14.5 8.15 14.2 8.1 14.0 8.1 13.95 8.1 13.7" fill="#b5ffff" fill-rule="evenodd" stroke="none"/>
      <path d="M8.4 14.5 L8.3 14.2 8.3 14.15 8.25 14.0 8.25 13.95 8.25 13.8 8.25 13.75 8.7 13.9 9.55 14.05 Q10.5 14.05 11.45 13.5 L11.9 13.15 11.9 13.7 11.9 13.85 11.45 14.2 10.1 14.75 9.55 14.8 9.2 14.75 8.8 14.65 8.4 14.5" fill="#01d0fa" fill-rule="evenodd" stroke="none"/>
      <path d="M8.15 14.2 L8.3 14.5 8.35 14.55 8.55 14.75 8.65 14.85 8.7 14.85 9.2 14.95 9.55 15.0 10.15 15.05 10.35 15.05 10.15 15.1 9.05 15.25 Q6.65 15.25 6.45 13.9 L7.45 14.1 8.15 14.2" fill="#00a9f4" fill-rule="evenodd" stroke="none"/>
      <path d="M8.65 14.85 L8.55 14.7 8.4 14.5 8.8 14.65 9.2 14.75 9.55 14.8 10.1 14.75 11.45 14.2 11.9 13.85 11.9 14.05 11.85 14.25 11.6 14.7 11.05 14.9 10.35 15.05 10.15 15.05 9.55 15.0 9.2 14.95 8.7 14.85 8.65 14.85" fill="#08c2fb" fill-rule="evenodd" stroke="none"/>
      <path d="M11.95 12.4 L12.1 11.75 12.1 11.7 12.3 11.75 12.2 12.05 12.2 12.15 12.05 12.8 12.05 12.85 12.05 13.05 12.0 13.75 11.9 13.85 11.9 13.7 11.9 13.15 11.9 12.9 11.9 12.65 11.95 12.4" fill="#a7feff" fill-rule="evenodd" stroke="none"/>
      <path d="M12.0 13.75 L12.05 14.05 12.0 14.4 11.85 14.5 11.7 14.6 11.65 14.65 11.6 14.7 11.85 14.25 11.9 14.05 11.9 13.85 12.0 13.75" fill="#6ff1ff" fill-rule="evenodd" stroke="none"/>
      <path d="M12.25 14.6 L12.7 14.05 12.85 13.9 12.85 13.95 12.7 14.2 12.5 14.45 12.25 14.6" fill="#0887d4" fill-rule="evenodd" stroke="none"/>
      <path d="M12.75 14.5 L12.6 14.8 12.55 14.6 12.75 14.5" fill="#008be3" fill-rule="evenodd" stroke="none"/>
      <path d="M13.25 14.35 L13.0 14.4 12.75 14.5 12.9 14.2 12.95 14.2 13.1 14.25 13.25 14.35" fill="#05a8ff" fill-rule="evenodd" stroke="none"/>
      <path d="M7.65 15.75 L7.55 15.5 7.9 15.6 9.6 15.75 10.95 15.8 11.1 15.8 11.3 15.8 11.65 15.8 11.85 15.8 11.9 15.8 12.95 15.75 13.8 15.7 14.05 15.65 14.15 15.65 14.35 15.65 14.2 15.9 13.7 15.95 13.3 15.95 12.8 16.1 12.45 16.1 11.9 16.1 10.3 16.05 10.15 16.0 10.05 16.0 8.65 15.95 7.65 15.75" fill="#06e0e9" fill-rule="evenodd" stroke="none"/>
      <path d="M10.3 16.05 L11.9 16.1 12.45 16.1 12.75 16.25 13.05 16.95 12.8 17.65 11.05 17.95 10.9 17.95 10.8 17.95 10.1 17.6 9.55 17.35 9.45 17.3 9.95 16.95 10.25 16.25 10.3 16.05" fill="#0195ff" fill-rule="evenodd" stroke="none"/>
      <path d="M12.45 16.1 L12.8 16.1 13.3 15.95 13.7 15.95 14.2 15.9 14.9 15.85 15.05 15.8 16.2 15.65 16.5 15.6 16.15 15.8 14.1 17.1 12.8 17.65 13.05 16.95 12.75 16.25 12.45 16.1" fill="#0191ff" fill-rule="evenodd" stroke="none"/>
      <path d="M7.35 16.35 L7.5 16.2 7.65 15.75 8.65 15.95 10.05 16.0 10.15 16.0 10.3 16.05 10.25 16.25 9.95 16.95 9.45 17.3 7.45 16.4 7.35 16.35" fill="#018ffd" fill-rule="evenodd" stroke="none"/>
      <path d="M11.95 19.15 L10.2 19.15 10.2 19.05 10.35 18.65 10.4 18.6 10.35 18.55 10.45 18.6 10.6 18.6 10.6 18.65 11.15 18.8 11.3 18.9 11.6 19.0 11.9 19.1 11.95 19.15" fill="#00b5f1" fill-rule="evenodd" stroke="none"/>
      <path d="M9.5 18.2 L9.75 18.2 10.55 18.45 11.45 18.75 11.75 18.85 11.9 18.9 11.85 18.95 11.75 18.95 11.85 19.0 11.9 19.05 11.9 19.1 11.6 19.0 11.3 18.9 11.15 18.8 10.6 18.65 10.6 18.6 10.45 18.6 10.35 18.55 9.55 18.25 9.5 18.2" fill="#0031d8" fill-rule="evenodd" stroke="none"/>
      <path d="M9.75 18.2 L10.05 18.1 10.2 17.8 10.1 17.6 10.8 17.95 10.9 18.0 10.9 18.1 10.75 18.35 10.55 18.45 9.75 18.2" fill="#0267fd" fill-rule="evenodd" stroke="none"/>
      <path d="M10.55 18.45 L10.75 18.35 10.9 18.1 10.9 18.0 11.05 18.1 Q11.6 18.35 11.7 18.55 L11.9 18.8 11.75 18.85 11.45 18.75 10.55 18.45" fill="#0061f2" fill-rule="evenodd" stroke="none"/>
      <path d="M10.9 18.0 L10.8 17.95 10.9 17.95 11.05 17.95 12.8 17.65 14.1 17.1 16.15 15.8 16.5 15.6 16.6 15.5 16.85 15.35 16.65 15.55 16.6 15.55 16.6 15.6 16.55 15.65 16.3 15.9 16.0 16.15 15.5 16.6 15.25 16.8 14.8 17.1 14.55 17.2 14.35 17.35 14.15 17.45 13.35 17.9 13.0 18.1 11.9 18.8 11.7 18.55 Q11.6 18.35 11.05 18.1 L10.9 18.0" fill="#015af4" fill-rule="evenodd" stroke="none"/>
      <path d="M8.75 17.85 L8.45 17.75 8.25 17.6 7.95 17.45 7.75 17.4 7.75 17.35 7.6 17.1 8.95 17.8 8.95 17.95 8.75 17.85" fill="#003fe1" fill-rule="evenodd" stroke="none"/>
      <path d="M9.75 19.15 L8.85 19.15 8.15 18.4 7.95 18.2 8.15 18.35 9.05 18.8 9.75 19.1 9.75 19.15" fill="#0058f6" fill-rule="evenodd" stroke="none"/>
      <path d="M8.95 17.8 L9.55 18.15 9.65 18.15 9.75 18.2 9.5 18.2 8.95 17.95 8.95 17.8" fill="#0044ef" fill-rule="evenodd" stroke="none"/>
      <path d="M13.05 19.15 L11.95 19.15 11.9 19.1 11.9 19.05 11.85 19.0 11.75 18.95 11.85 18.95 11.9 18.9 Q12.65 18.5 13.35 18.05 L14.35 17.5 14.55 17.75 14.65 18.0 14.55 18.1 13.95 18.55 13.05 19.15" fill="#0083fa" fill-rule="evenodd" stroke="none"/>
      <path d="M13.35 17.9 L13.35 18.05 Q12.65 18.5 11.9 18.9 L11.75 18.85 11.9 18.8 13.0 18.1 13.35 17.9" fill="#005bec" fill-rule="evenodd" stroke="none"/>
      <path d="M18.85 14.7 L18.85 16.95 Q18.5 16.7 18.2 16.6 L17.8 16.45 17.85 16.3 18.05 15.85 18.2 15.45 18.35 15.2 18.45 15.2 18.55 15.0 18.65 14.9 18.65 14.8 18.75 14.75 18.85 14.7" fill="#026beb" fill-rule="evenodd" stroke="none"/>
      <path d="M17.15 15.8 L17.25 15.75 17.3 15.7 17.95 15.25 18.25 14.95 18.25 15.05 18.1 15.35 16.85 17.2 15.55 18.9 15.5 18.95 15.45 18.95 14.95 18.75 14.65 18.2 14.65 18.15 14.65 18.05 14.65 18.0 14.7 17.95 15.45 17.4 16.2 16.7 16.35 16.6 16.65 16.3 17.15 15.8" fill="#006cf5" fill-rule="evenodd" stroke="none"/>
      <path d="M15.55 18.9 L16.85 17.2 18.1 15.35 18.25 15.05 18.25 15.15 18.35 15.2 18.2 15.45 18.05 15.85 17.8 16.3 17.5 16.75 17.3 17.0 16.7 17.8 16.65 17.8 16.3 18.35 16.15 18.6 16.1 18.65 16.1 18.7 15.75 18.85 15.55 18.95 15.55 18.9" fill="#0dcaff" fill-rule="evenodd" stroke="none"/>
      <path d="M14.2 15.9 L14.35 15.65 14.8 15.6 15.3 15.55 15.95 15.5 16.15 15.45 16.45 15.45 16.55 15.4 16.65 15.4 16.8 15.3 16.9 15.25 16.85 15.35 16.6 15.5 16.5 15.6 16.2 15.65 15.05 15.8 14.9 15.85 14.2 15.9" fill="#2eeeff" fill-rule="evenodd" stroke="none"/>
      <path d="M16.95 14.95 L17.0 15.2 16.9 15.25 16.8 15.3 16.65 15.4 16.65 15.25 16.95 14.95" fill="#d0fdff" fill-rule="evenodd" stroke="none"/>
      <path d="M17.05 15.45 L17.15 15.8 16.65 16.3 16.35 16.6 16.2 16.7 16.1 16.4 16.0 16.15 16.3 15.9 16.55 15.65 16.6 15.6 16.6 15.55 16.65 15.55 16.95 15.5 17.0 15.35 17.0 15.45 17.05 15.45" fill="#0076fb" fill-rule="evenodd" stroke="none"/>
      <path d="M17.0 15.2 L17.05 15.45 17.0 15.45 17.0 15.35 16.95 15.5 16.65 15.55 16.85 15.35 16.9 15.25 17.0 15.2" fill="#017aff" fill-rule="evenodd" stroke="none"/>
      <path d="M18.35 19.15 L17.15 19.15 16.8 18.8 16.75 18.75 17.1 18.05 17.25 17.75 17.55 17.8 17.9 17.95 18.3 18.1 18.6 18.2 18.7 18.25 18.3 18.85 18.35 19.15" fill="#0178f8" fill-rule="evenodd" stroke="none"/>
      <path d="M18.85 18.1 L18.85 19.15 18.35 19.15 18.3 18.85 18.7 18.25 18.8 18.15 18.85 18.1" fill="#006fec" fill-rule="evenodd" stroke="none"/>
      <path d="M16.15 15.45 L16.65 15.25 16.65 15.4 16.55 15.4 16.45 15.45 16.15 15.45" fill="#9ce3ff" fill-rule="evenodd" stroke="none"/>
      <path d="M14.8 15.6 L14.9 15.4 15.1 15.4 15.2 15.4 15.25 15.4 15.3 15.4 15.4 15.35 15.5 15.25 15.45 15.4 15.3 15.55 14.8 15.6" fill="#0090f3" fill-rule="evenodd" stroke="none"/>
      <path d="M15.7 14.65 L15.7 15.2 15.6 15.2 15.55 15.2 15.55 15.15 15.7 14.65" fill="#0097fe" fill-rule="evenodd" stroke="none"/>
      <path d="M16.0 16.15 L16.1 16.4 16.2 16.7 15.45 17.4 15.4 17.15 15.3 16.8 15.25 16.8 15.5 16.6 16.0 16.15" fill="#007afb" fill-rule="evenodd" stroke="none"/>
      <path d="M15.3 16.8 L15.4 17.15 15.45 17.4 14.7 17.95 14.65 18.0 14.55 17.75 14.35 17.5 14.85 17.1 15.3 16.8" fill="#0480fa" fill-rule="evenodd" stroke="none"/>
      <path d="M15.25 16.8 L15.3 16.8 14.85 17.1 14.35 17.5 14.2 17.45 14.15 17.45 14.35 17.35 14.55 17.2 14.8 17.1 15.25 16.8" fill="#0573fe" fill-rule="evenodd" stroke="none"/>
      <path d="M13.35 18.05 L13.35 17.9 14.15 17.45 14.2 17.45 14.35 17.5 13.35 18.05" fill="#0048d9" fill-rule="evenodd" stroke="none"/>
      <path d="M15.35 19.15 L13.5 19.15 13.95 18.55 14.55 18.1 14.65 18.0 14.65 18.05 14.65 18.15 14.65 18.2 14.95 18.75 15.45 18.95 15.5 18.95 15.35 19.15" fill="#0062f7" fill-rule="evenodd" stroke="none"/>
      <path d="M17.15 19.15 L16.55 19.15 16.55 19.05 16.75 18.75 16.8 18.8 17.15 19.15" fill="#006efd" fill-rule="evenodd" stroke="none"/>
      <path d="M15.7 19.15 L15.35 19.15 15.5 18.95 15.55 18.9 15.55 18.95 15.75 18.85 16.1 18.7 15.85 18.95 15.7 19.15" fill="#09c4ff" fill-rule="evenodd" stroke="none"/>
      <path d="M13.5 19.15 L13.05 19.15 13.95 18.55 13.5 19.15" fill="#0355f9" fill-rule="evenodd" stroke="none"/>
    </g>
    <g id="shape4" transform="matrix(1.0, 0.0, 0.0, 1.0, -2.7, 2.2)">
      <path d="M42.4 13.3 L40.2 11.7 49.95 5.8 43.05 13.85 42.4 13.3 M48.4 24.95 L48.2 23.55 58.55 25.7 48.4 27.25 48.4 27.1 48.5 26.35 48.5 26.15 48.5 25.8 48.5 25.7 48.4 24.95 M44.65 37.25 L50.05 45.85 50.05 45.95 41.3 40.45 43.15 38.75 43.55 38.45 44.65 37.25 M30.65 9.0 L30.3 9.0 27.1 9.25 30.65 -2.2 32.7 9.2 30.65 9.0 M19.0 12.8 L17.9 13.55 17.5 13.95 15.75 16.0 10.05 5.9 10.15 5.9 19.0 12.8 M12.2 26.7 L12.3 28.3 2.7 25.95 2.7 25.85 12.3 24.3 12.2 25.7 12.2 25.85 12.2 26.35 12.2 26.7 M17.3 38.65 L17.4 38.75 17.6 38.85 19.1 40.15 10.05 45.95 16.5 37.7 17.3 38.45 17.3 38.55 17.25 38.65 17.3 38.65 M30.3 43.9 L30.65 43.9 32.8 43.8 30.65 53.75 28.5 43.9 30.3 43.9" fill="#0478c3" fill-rule="evenodd" stroke="none"/>
    </g>
  </defs>
</svg>
