<?xml version="1.0" encoding="UTF-8" standalone="no"?>
<svg xmlns:ffdec="https://www.free-decompiler.com/flash" xmlns:xlink="http://www.w3.org/1999/xlink" ffdec:objectType="frame" height="30.0px" width="30.0px" xmlns="http://www.w3.org/2000/svg">
  <g transform="matrix(1.0, 0.0, 0.0, 1.0, 0.0, 0.0)">
    <use ffdec:characterId="1" height="30.0" transform="matrix(1.0, 0.0, 0.0, 1.0, 0.0, 0.0)" width="30.0" xlink:href="#shape0"/>
    <use ffdec:characterId="6" height="57.8" transform="matrix(0.4661, 0.0, 0.0, 0.4661, 1.319, 1.6853)" width="57.8" xlink:href="#sprite0"/>
  </g>
  <defs>
    <g id="shape0" transform="matrix(1.0, 0.0, 0.0, 1.0, 0.0, 0.0)">
      <path d="M0.0 0.0 L30.0 0.0 30.0 30.0 0.0 30.0 0.0 0.0" fill="#33cc66" fill-opacity="0.0" fill-rule="evenodd" stroke="none"/>
    </g>
    <g id="sprite0" transform="matrix(1.0, 0.0, 0.0, 1.0, -1.65, 3.25)">
      <use ffdec:characterId="5" height="58.95" transform="matrix(0.9805, 0.0, 0.0, 0.9805, 1.6393, -3.2708)" width="58.95" xlink:href="#sprite1"/>
    </g>
    <g id="sprite1" transform="matrix(1.0, 0.0, 0.0, 1.0, -0.55, 1.5)">
      <use ffdec:characterId="2" height="58.95" transform="matrix(1.0, 0.0, 0.0, 1.0, 0.55, -1.5)" width="58.95" xlink:href="#shape1"/>
      <clipPath id="clipPath0" transform="matrix(1.0, 0.0, 0.0, 1.0, 0.0, 0.0)">
        <path d="M41.25 38.95 L41.0 39.25 Q36.3 43.65 29.7 43.65 23.15 43.65 17.95 38.7 13.95 34.3 13.95 28.45 13.95 22.2 18.6 17.6 23.35 13.3 29.7 13.3 36.3 13.3 41.0 17.6 L41.15 17.9 Q45.55 22.35 45.55 28.45 45.55 34.6 41.25 38.95" fill="#380000" fill-rule="evenodd" stroke="none"/>
      </clipPath>
      <g clip-path="url(#clipPath0)">
        <use ffdec:characterId="4" height="42.55" transform="matrix(1.0, 0.0, 0.0, 1.0, 15.45, 1.35)" width="37.4" xlink:href="#shape3"/>
      </g>
    </g>
    <g id="shape1" transform="matrix(1.0, 0.0, 0.0, 1.0, -0.55, 1.5)">
      <path d="M58.0 27.9 L48.6 36.0 49.6 47.85 49.6 48.15 49.5 48.15 37.4 47.4 30.1 55.95 22.55 47.4 9.4 48.3 9.4 48.15 10.9 35.65 2.15 28.15 2.05 28.05 2.15 28.05 2.3 27.9 10.8 21.1 9.5 8.1 9.5 8.0 9.6 8.0 22.3 9.6 30.1 0.0 37.55 9.6 49.4 8.0 48.5 20.6 58.0 27.9" fill="#d6d6d6" fill-rule="evenodd" stroke="none"/>
      <path d="M58.0 27.9 L48.5 20.6 49.4 8.0 37.55 9.6 30.1 0.0 22.3 9.6 9.6 8.0 9.5 8.0 9.5 8.1 10.8 21.1 2.3 27.9 2.15 28.05 2.05 28.05 2.15 28.15 10.9 35.65 9.4 48.15 9.4 48.3 22.55 47.4 30.1 55.95 37.4 47.4 49.5 48.15 49.6 48.15 49.6 47.85 48.6 36.0 58.0 27.9 Z" fill="none" stroke="#33578e" stroke-linecap="round" stroke-linejoin="round" stroke-width="3.0"/>
      <path d="M39.65 13.9 L41.85 15.5 42.5 16.05 42.7 16.3 Q46.9 20.45 47.65 25.75 L47.85 27.15 47.95 27.9 47.95 28.0 47.95 28.35 47.95 28.55 47.85 29.3 47.85 29.45 Q47.65 35.05 44.1 39.45 L43.0 40.65 42.6 40.95 40.75 42.65 Q36.9 45.35 32.25 46.0 L30.1 46.1 29.75 46.1 27.95 46.1 Q22.65 45.6 18.55 42.35 L17.05 41.05 16.85 40.95 16.75 40.85 16.75 40.75 16.75 40.65 15.95 39.9 Q12.3 35.9 11.75 30.5 L11.65 28.9 11.65 28.55 11.65 28.05 11.65 27.9 11.75 26.5 Q12.3 21.9 15.2 18.2 L16.95 16.15 17.35 15.75 18.45 15.0 18.65 14.85 Q22.2 12.15 26.55 11.45 L29.75 11.2 30.1 11.2 32.15 11.4 Q36.25 11.75 39.65 13.9 M41.1 18.1 L40.95 17.8 Q36.25 13.5 29.65 13.5 23.3 13.5 18.55 17.8 13.9 22.4 13.9 28.65 13.9 34.5 17.9 38.9 23.1 43.85 29.65 43.85 36.25 43.85 40.95 39.45 L41.2 39.15 Q45.5 34.8 45.5 28.65 45.5 22.55 41.1 18.1" fill="#183064" fill-rule="evenodd" stroke="none"/>
      <path d="M42.5 16.05 L41.85 15.5 39.65 13.9 49.4 8.0 42.5 16.05 M32.15 11.4 L30.1 11.2 29.75 11.2 26.55 11.45 30.1 0.0 32.15 11.4 M18.45 15.0 L17.35 15.75 16.95 16.15 15.2 18.2 9.5 8.1 9.6 8.1 18.45 15.0 M11.75 26.5 L11.65 27.9 11.65 28.05 11.65 28.55 11.65 28.9 11.75 30.5 2.15 28.15 2.15 28.05 2.7 28.0 3.25 27.9 11.75 26.5 M15.95 39.9 L16.75 40.65 16.75 40.75 16.7 40.85 16.75 40.85 16.85 40.95 17.05 41.05 18.55 42.35 9.5 48.15 15.95 39.9 M27.95 46.1 L29.75 46.1 30.1 46.1 32.25 46.0 30.1 55.95 27.95 46.1 M40.75 42.65 L42.6 40.95 43.0 40.65 44.1 39.45 49.05 47.3 49.5 48.05 49.5 48.15 40.75 42.65 M47.85 29.45 L47.85 29.3 47.95 28.55 47.95 28.35 47.95 28.0 47.95 27.9 47.85 27.15 47.65 25.75 58.0 27.9 47.85 29.45" fill="#ffffff" fill-rule="evenodd" stroke="none"/>
      <path d="M41.1 18.1 Q45.5 22.55 45.5 28.65 45.5 34.8 41.2 39.15 L40.95 39.45 Q36.25 43.85 29.65 43.85 23.1 43.85 17.9 38.9 13.9 34.5 13.9 28.65 13.9 22.4 18.55 17.8 23.3 13.5 29.65 13.5 36.25 13.5 40.95 17.8 L41.1 18.1" fill="#330033" fill-rule="evenodd" stroke="none"/>
      <path d="M39.65 13.9 Q36.25 11.75 32.15 11.4 L30.1 0.0 37.55 9.6 49.4 8.0 48.5 20.6 58.0 27.9 48.6 36.0 49.6 47.85 49.05 47.3 44.1 39.45 Q47.65 35.05 47.85 29.45 L58.0 27.9 47.65 25.75 Q46.9 20.45 42.7 16.3 L42.5 16.05 49.4 8.0 39.65 13.9 M26.55 11.45 Q22.2 12.15 18.65 14.85 L18.45 15.0 9.6 8.1 9.6 8.0 22.3 9.6 30.1 0.0 26.55 11.45 M15.2 18.2 Q12.3 21.9 11.75 26.5 L3.25 27.9 2.3 27.9 10.8 21.1 9.5 8.1 15.2 18.2 M11.75 30.5 Q12.3 35.9 15.95 39.9 L9.5 48.15 9.4 48.15 10.9 35.65 2.15 28.15 11.75 30.5 M18.55 42.35 Q22.65 45.6 27.95 46.1 L30.1 55.95 22.55 47.4 9.4 48.3 9.4 48.2 9.5 48.15 18.55 42.35 M32.25 46.0 Q36.9 45.35 40.75 42.65 L49.5 48.15 37.4 47.4 30.1 55.95 32.25 46.0" fill="#ffc142" fill-rule="evenodd" stroke="none"/>
      <path d="M49.05 47.3 L49.6 47.85 49.6 48.15 49.5 48.15 49.5 48.05 49.05 47.3" fill="url(#gradient0)" fill-rule="evenodd" stroke="none"/>
      <path d="M9.6 8.0 L9.6 8.1 9.5 8.0 9.6 8.0" fill="url(#gradient1)" fill-rule="evenodd" stroke="none"/>
      <path d="M9.5 8.0 L9.6 8.1 9.5 8.1 9.5 8.0" fill="url(#gradient2)" fill-rule="evenodd" stroke="none"/>
      <path d="M2.2 28.0 L2.7 28.0 2.15 28.05 2.15 28.15 2.05 28.05 2.15 28.05 2.2 28.0 M9.4 48.15 L9.5 48.15 9.4 48.2 9.4 48.15" fill="url(#gradient3)" fill-rule="evenodd" stroke="none"/>
      <path d="M2.2 28.0 L2.3 27.9 3.25 27.9 2.7 28.0 2.2 28.0" fill="url(#gradient4)" fill-rule="evenodd" stroke="none"/>
      <path d="M16.75 40.75 L16.75 40.85 16.7 40.85 16.75 40.75" fill="url(#gradient5)" fill-rule="evenodd" stroke="none"/>
      <path d="M41.0 18.2 Q45.4 22.55 45.4 28.55 45.4 34.6 41.1 38.9 L40.85 39.15 38.9 40.75 Q40.75 23.5 28.25 13.7 L29.55 13.7 Q36.25 13.7 40.85 18.0 L41.0 18.2" fill="#ffffff" fill-opacity="0.2" fill-rule="evenodd" stroke="none"/>
      <path d="M40.95 26.1 Q42.4 25.95 42.6 27.4 L42.7 28.15 Q42.5 28.9 41.5 29.1 40.85 29.2 40.2 28.65 39.7 28.15 39.65 27.7 39.35 26.3 40.95 26.1 M41.5 23.3 L41.5 23.95 Q41.3 24.55 40.3 24.7 40.1 24.7 38.05 22.2 L36.0 19.05 Q35.7 17.7 36.45 17.55 37.1 17.35 38.25 18.3 40.95 20.35 41.5 23.3" fill="#ffffff" fill-rule="evenodd" stroke="none"/>
    </g>
    <linearGradient gradientTransform="matrix(-0.0119, 0.0, 0.0, 0.0092, 39.9, 48.4)" gradientUnits="userSpaceOnUse" id="gradient0" spreadMethod="pad" x1="-819.2" x2="819.2">
      <stop offset="0.0" stop-color="#fd9e0c"/>
      <stop offset="1.0" stop-color="#fddd27"/>
    </linearGradient>
    <linearGradient gradientTransform="matrix(-0.0126, 0.0, 0.0, 0.0096, 19.75, 7.95)" gradientUnits="userSpaceOnUse" id="gradient1" spreadMethod="pad" x1="-819.2" x2="819.2">
      <stop offset="0.0" stop-color="#fd9b0b"/>
      <stop offset="1.0" stop-color="#fde42b"/>
    </linearGradient>
    <linearGradient gradientTransform="matrix(-0.0092, 0.0, 0.0, 0.0121, 9.85, 17.8)" gradientUnits="userSpaceOnUse" id="gradient2" spreadMethod="pad" x1="-819.2" x2="819.2">
      <stop offset="0.0" stop-color="#5f2288"/>
      <stop offset="1.0" stop-color="#a276cd"/>
    </linearGradient>
    <linearGradient gradientTransform="matrix(-0.009, 0.0, 0.0, 0.0124, 9.4, 37.95)" gradientUnits="userSpaceOnUse" id="gradient3" spreadMethod="pad" x1="-819.2" x2="819.2">
      <stop offset="0.0" stop-color="#fd9e0c"/>
      <stop offset="1.0" stop-color="#fddd27"/>
    </linearGradient>
    <linearGradient gradientTransform="matrix(-0.009, 0.0, 0.0, 0.0124, 9.4, 37.95)" gradientUnits="userSpaceOnUse" id="gradient4" spreadMethod="pad" x1="-819.2" x2="819.2">
      <stop offset="0.0" stop-color="#8d010c"/>
      <stop offset="1.0" stop-color="#f2b03f"/>
    </linearGradient>
    <linearGradient gradientTransform="matrix(-0.0127, 0.0, 0.0, 0.0093, 19.75, 48.3)" gradientUnits="userSpaceOnUse" id="gradient5" spreadMethod="pad" x1="-819.2" x2="819.2">
      <stop offset="0.0" stop-color="#65298e"/>
      <stop offset="1.0" stop-color="#9a6cc5"/>
    </linearGradient>
    <g id="shape3" transform="matrix(1.0, 0.0, 0.0, 1.0, -15.45, -1.35)">
      <path d="M51.25 1.85 Q51.85 5.1 51.1 10.1 L50.3 15.7 50.3 15.75 50.25 15.95 50.15 16.45 50.2 15.4 50.3 12.4 50.3 9.95 50.25 6.95 50.25 5.45 50.15 4.85 48.65 6.2 Q47.7 7.05 46.9 8.0 L46.9 7.95 48.6 5.55 50.05 3.5 50.3 3.1 51.25 1.85 M50.15 16.6 L49.85 17.75 49.3 20.2 49.1 20.85 48.8 22.05 48.7 22.45 48.35 23.7 48.3 23.75 47.9 23.9 47.25 24.15 47.0 24.2 46.75 24.3 46.15 24.55 Q45.45 24.85 44.7 25.2 L44.35 25.35 44.2 25.45 44.3 25.35 44.7 25.05 45.7 24.35 47.25 23.4 47.25 23.35 47.45 23.3 47.5 23.15 47.7 22.6 47.95 22.0 48.15 21.5 48.35 21.1 48.6 20.5 49.0 19.55 49.15 19.3 49.25 19.05 49.75 17.75 50.1 16.65 50.15 16.45 50.15 16.6 M22.75 3.95 L22.9 4.45 23.4 7.0 Q24.35 11.95 24.25 16.65 L23.95 14.7 23.6 12.1 23.25 9.8 23.05 8.45 22.95 7.8 22.65 6.25 22.45 4.95 22.45 4.9 22.6 4.35 22.75 3.95 M43.65 15.8 L43.75 15.75 43.5 17.05 43.45 17.1 43.45 17.3 42.35 18.7 41.65 19.4 42.55 18.2 43.05 17.35 43.4 16.6 43.65 15.8" fill="#d0f0ff" fill-rule="evenodd" stroke="none"/>
      <path d="M50.75 2.05 L51.2 1.6 51.25 1.85 50.3 3.1 50.05 3.5 48.6 5.55 46.9 7.95 46.9 8.0 46.8 8.1 45.2 10.45 43.6 12.9 43.6 12.95 42.8 13.4 42.75 13.4 42.5 13.55 40.35 14.9 38.5 16.15 37.95 16.5 38.5 15.95 39.85 14.45 41.15 13.05 41.85 12.35 42.3 11.85 43.35 10.7 45.15 8.75 46.5 7.2 47.25 6.3 48.3 5.2 49.5 3.7 50.5 2.4 50.75 2.05 M18.7 11.3 L19.85 8.35 19.8 8.5 19.45 9.55 20.0 8.6 21.0 6.95 22.3 5.15 22.4 5.0 22.1 6.25 21.5 8.85 21.2 10.45 20.95 12.25 20.85 13.7 20.75 13.6 20.1 15.15 19.3 17.3 18.55 19.8 Q18.3 21.0 18.2 22.1 L18.05 22.35 17.5 23.3 17.5 23.15 17.3 21.15 17.3 20.4 17.55 18.4 18.05 15.55 18.65 12.85 19.25 10.4 19.45 9.55 18.95 10.75 18.7 11.3 M41.8 26.6 L42.65 26.1 44.2 25.45 44.35 25.35 44.7 25.2 Q45.45 24.85 46.15 24.55 L46.75 24.3 47.0 24.2 47.25 24.15 46.35 25.1 46.0 25.45 44.95 26.45 43.7 27.4 41.95 28.65 40.7 29.55 41.45 27.4 41.8 26.6 M43.65 15.8 L43.3 16.05 43.2 16.15 41.25 17.5 40.75 17.85 40.65 17.95 40.6 18.2 40.55 18.6 40.55 19.35 40.55 20.2 40.7 20.15 41.0 20.05 41.45 19.85 42.75 19.3 42.9 19.25 42.85 19.35 42.75 19.4 42.2 19.7 41.15 20.25 40.55 20.55 40.2 20.7 40.1 20.75 40.1 20.6 40.1 20.4 40.1 19.75 40.1 19.45 40.25 18.35 40.25 18.25 40.25 18.2 40.4 17.7 40.6 17.5 40.75 17.35 40.95 17.2 42.05 16.5 42.1 16.45 42.85 16.05 43.25 15.8 43.3 15.8 43.75 15.55 43.8 15.55 43.75 15.75 43.65 15.8 M20.75 18.75 L20.75 18.95 20.9 20.5 20.9 20.55 20.65 20.8 20.0 22.0 19.7 22.75 20.05 21.2 20.15 20.9 20.75 18.75 M21.6 25.6 Q21.7 25.45 21.85 25.4 L22.6 25.1 22.85 25.05 22.95 25.1 23.05 25.15 23.45 26.05 23.75 27.1 23.8 27.3 23.5 29.15 23.5 29.2 23.4 29.75 23.4 29.85 23.1 30.7 23.15 30.25 23.05 29.9 23.0 29.8 22.95 29.65 22.85 28.75 23.1 28.4 23.1 28.35 23.3 27.1 23.2 26.9 Q23.1 26.6 22.75 26.6 L22.6 26.6 Q22.3 26.75 22.15 27.05 L21.6 27.2 21.3 27.4 21.25 27.45 21.1 27.6 20.8 28.0 20.6 28.35 20.1 30.1 Q19.95 30.85 19.95 31.55 L20.0 32.25 19.95 32.25 20.0 32.7 20.05 32.95 20.2 33.45 20.35 33.65 Q20.55 33.9 20.8 33.8 L20.85 33.85 21.0 33.75 21.05 33.75 21.2 33.75 21.45 33.75 21.8 33.65 22.25 33.2 22.3 33.15 22.3 33.25 21.75 34.65 21.6 34.85 20.75 34.9 20.65 34.9 20.5 34.85 20.2 34.7 19.5 33.45 19.45 33.35 19.45 32.55 19.45 32.25 19.45 32.05 Q19.45 30.95 19.75 29.85 L20.05 28.9 20.55 27.55 21.15 26.4 21.45 25.9 21.6 25.6" fill="#5784c8" fill-rule="evenodd" stroke="none"/>
      <path d="M50.3 16.0 L50.25 16.15 50.15 16.6 50.15 16.45 50.1 16.65 49.75 17.75 49.25 19.05 49.15 19.3 49.0 19.55 48.6 20.5 48.35 21.1 48.15 21.5 47.95 22.0 47.7 22.6 47.5 23.15 47.45 23.3 47.25 23.35 47.25 23.4 45.7 24.35 44.7 25.05 44.3 25.35 44.2 25.45 42.65 26.1 41.8 26.6 41.9 26.2 42.45 25.35 43.7 23.3 43.8 23.2 44.25 22.3 45.05 21.05 45.4 20.5 45.65 19.1 45.8 18.35 45.8 18.15 45.9 17.75 46.05 16.9 46.3 14.75 46.4 13.95 46.6 12.0 46.6 11.65 45.55 12.05 44.05 12.7 43.6 12.95 43.6 12.9 45.2 10.45 46.8 8.1 46.9 8.0 Q47.7 7.05 48.65 6.2 L50.15 4.85 50.25 5.45 50.25 6.95 50.3 9.95 50.3 12.4 50.2 15.4 50.15 16.45 50.25 15.95 50.3 16.0 M24.25 16.65 L24.25 16.85 24.25 16.95 24.25 17.15 24.0 17.55 23.95 17.5 23.55 17.05 22.05 15.25 21.85 15.0 21.8 14.95 21.7 14.8 20.85 13.75 20.85 13.7 20.95 12.25 21.2 10.45 21.5 8.85 22.1 6.25 22.4 5.0 22.45 4.9 22.45 4.95 22.65 6.25 22.95 7.8 23.05 8.45 23.25 9.8 23.6 12.1 23.95 14.7 24.25 16.65 M42.9 19.25 L42.75 19.3 41.45 19.85 41.0 20.05 40.7 20.15 40.55 20.2 40.55 19.35 40.55 18.6 40.6 18.2 40.65 17.95 40.75 17.85 41.25 17.5 43.2 16.15 43.3 16.05 43.65 15.8 43.4 16.6 43.05 17.35 42.55 18.2 41.65 19.4 42.35 18.7 43.45 17.3 43.2 18.15 43.0 18.9 42.9 19.25 M20.8 18.75 L21.1 19.15 21.4 19.45 21.55 19.65 21.6 19.75 21.65 19.8 21.55 19.9 21.45 19.9 20.95 20.45 20.95 20.5 20.9 20.55 20.9 20.5 20.75 18.95 20.75 18.75 20.75 18.7 20.8 18.75" fill="#82bff5" fill-rule="evenodd" stroke="none"/>
      <path d="M48.3 23.75 L46.1 26.15 45.75 26.5 45.1 27.1 40.4 30.35 38.3 31.5 38.25 31.35 39.9 30.1 40.7 29.55 41.95 28.65 43.7 27.4 44.95 26.45 46.0 25.45 46.35 25.1 47.25 24.15 47.9 23.9 48.3 23.75 M19.05 31.1 L18.5 29.6 18.45 29.35 17.55 26.15 17.3 25.0 17.15 24.3 17.1 24.0 16.95 23.25 16.5 20.9 Q17.45 15.25 18.7 11.3 L18.95 10.75 19.45 9.55 19.25 10.4 18.65 12.85 18.05 15.55 17.55 18.4 17.3 20.4 17.3 21.15 17.5 23.15 17.5 23.3 17.6 24.35 17.75 25.15 17.8 25.7 18.3 28.35 18.95 30.75 19.05 31.1 M19.85 8.35 L19.9 8.2 Q21.0 5.65 22.35 4.15 L22.7 3.75 22.75 3.95 22.6 4.35 22.45 4.9 22.4 5.0 22.3 5.15 21.0 6.95 20.0 8.6 19.45 9.55 19.8 8.5 19.85 8.35 M36.25 18.3 L36.8 17.5 37.6 16.25 38.15 15.5 41.25 11.65 42.3 10.55 Q45.5 7.0 49.9 2.8 L50.75 2.05 50.5 2.4 49.5 3.7 48.3 5.2 47.25 6.3 46.5 7.2 45.15 8.75 43.35 10.7 42.3 11.85 41.85 12.35 41.15 13.05 39.85 14.45 38.5 15.95 37.95 16.5 37.1 17.4 36.25 18.3" fill="#41c7ed" fill-rule="evenodd" stroke="none"/>
      <path d="M38.3 31.5 L38.3 31.9 38.3 32.05 37.65 32.3 37.6 32.0 37.45 31.6 37.15 31.1 36.7 31.15 36.0 31.2 35.9 31.25 35.8 30.9 35.65 30.55 35.65 30.5 36.0 30.4 36.9 30.25 37.5 30.4 Q38.0 30.6 38.2 31.15 L38.25 31.35 38.3 31.5 M31.1 40.45 L31.1 40.5 Q28.65 41.25 28.2 42.8 L24.65 43.5 Q27.5 41.9 29.0 39.35 L29.35 38.75 29.45 38.4 29.85 37.55 30.4 35.65 30.45 35.4 30.5 35.15 30.95 34.35 31.7 33.05 31.8 32.95 31.85 32.8 32.8 31.1 34.05 29.0 34.8 27.55 35.7 25.95 36.75 24.15 37.9 22.2 39.2 20.0 39.45 19.6 40.25 18.35 40.1 19.45 40.1 19.75 40.1 20.4 40.1 20.6 40.1 20.75 40.2 20.7 40.55 20.55 41.15 20.25 42.2 19.7 42.75 19.4 42.85 19.35 42.9 19.25 43.0 18.9 43.2 18.15 43.45 17.3 43.45 17.1 43.5 17.05 43.75 15.75 43.8 15.55 43.75 15.55 43.3 15.8 43.25 15.8 42.85 16.05 42.1 16.45 42.05 16.5 40.95 17.2 42.1 15.3 42.75 14.3 42.9 14.05 43.6 12.95 44.05 12.7 45.55 12.05 46.6 11.65 46.6 12.0 46.4 13.95 46.3 14.75 46.05 16.9 45.9 17.75 45.8 18.15 45.8 18.35 45.65 19.1 45.4 20.5 45.05 21.05 44.25 22.3 43.8 23.2 43.7 23.3 42.1 24.35 40.35 25.6 38.7 26.85 37.4 28.0 35.6 29.8 34.55 30.95 34.4 31.2 34.2 31.35 34.25 31.45 34.3 31.45 34.8 32.1 34.4 32.55 34.2 32.85 34.1 33.05 33.35 34.85 33.15 34.8 32.75 34.65 33.0 33.65 Q33.05 33.35 32.75 33.3 L32.5 33.25 32.25 33.7 32.6 33.9 32.6 33.95 32.4 34.65 32.3 34.65 31.65 34.75 31.55 35.1 31.5 35.15 31.5 35.2 30.85 37.2 30.7 37.8 30.65 38.25 30.55 39.1 30.45 39.45 31.55 39.6 31.5 39.65 31.1 40.45 M23.75 42.4 L23.7 42.4 22.5 41.15 22.1 40.5 22.15 40.5 22.95 40.65 23.05 40.6 23.9 39.75 24.4 39.3 24.5 39.3 24.7 39.35 24.9 39.35 25.25 39.45 26.05 39.55 26.75 39.55 25.85 41.35 25.05 42.5 24.45 42.9 23.75 42.4 M16.35 32.8 L16.3 32.5 15.85 30.9 15.8 30.5 16.5 30.85 18.75 32.2 19.0 32.3 19.0 32.45 Q18.75 33.5 18.75 34.5 L18.35 34.2 17.55 33.65 17.2 33.4 16.7 33.05 16.65 33.05 16.35 32.8 M48.35 30.4 L48.25 30.5 47.9 30.7 45.95 32.5 45.2 33.25 45.2 33.3 44.8 33.7 43.7 35.1 42.65 36.55 42.1 36.45 43.5 34.9 45.05 33.2 45.25 33.0 45.25 32.6 45.2 32.4 45.25 32.3 45.1 31.95 44.75 32.05 42.15 32.65 44.75 32.05 45.1 31.95 45.25 32.3 45.2 32.4 42.15 35.6 Q41.8 35.95 41.25 35.85 L39.95 35.5 39.45 36.1 38.55 35.95 36.8 35.8 36.4 35.75 34.7 35.7 35.5 34.0 35.6 33.8 35.65 33.95 36.55 33.6 38.7 32.8 41.65 31.9 42.15 31.75 41.4 32.8 42.15 32.65 42.25 32.45 42.85 31.55 43.3 31.45 44.5 31.15 45.15 31.0 47.05 30.6 48.35 30.4 M40.45 36.2 L40.15 36.15 40.15 36.1 40.45 36.2 M28.0 23.65 L27.35 22.95 26.25 21.6 26.4 21.1 27.05 18.4 26.85 18.2 26.1 20.65 26.0 21.2 25.85 21.8 26.1 22.2 26.7 23.05 27.75 24.3 Q27.5 25.1 27.4 25.95 L27.45 27.6 27.6 28.55 27.65 28.6 27.8 29.2 27.8 29.35 28.3 29.1 29.25 28.4 29.55 28.15 30.35 27.55 32.1 25.35 34.5 21.45 33.95 22.5 32.75 24.6 32.4 25.3 31.65 27.1 30.75 29.95 30.2 32.25 30.15 32.65 30.0 33.5 29.25 33.75 26.5 34.8 24.0 35.95 22.6 36.65 21.95 36.95 20.9 37.6 20.85 37.2 20.75 36.5 20.7 35.8 20.7 35.65 20.7 35.5 21.2 35.55 21.6 35.5 21.75 35.45 22.3 35.2 23.25 33.75 23.3 33.6 23.55 33.05 24.1 31.95 24.5 29.8 24.55 29.4 24.55 29.35 24.4 26.55 24.2 25.65 24.05 25.0 23.4 23.9 23.9 22.55 24.9 20.1 25.85 18.15 Q26.45 16.95 27.2 15.9 L27.45 15.55 28.45 17.05 Q29.2 18.2 29.65 19.55 L30.0 20.6 29.0 21.75 28.85 21.95 28.25 23.05 28.2 23.1 28.2 23.2 28.15 23.25 28.0 23.65 M26.95 29.8 L27.65 29.5 27.8 29.35 27.65 29.5 26.95 29.8 M21.55 19.65 L21.55 17.75 21.65 16.15 21.8 14.95 21.85 15.0 22.05 15.25 23.55 17.05 23.95 17.5 24.0 17.55 23.55 18.35 23.15 19.1 Q22.7 19.2 22.35 19.4 L22.15 19.45 21.65 19.8 21.6 19.75 21.55 19.65 M33.55 35.6 L33.6 35.35 33.7 35.15 33.9 34.5 Q34.35 33.4 34.95 32.7 L35.05 32.55 35.1 32.6 35.45 33.2 34.9 34.0 34.7 34.35 34.5 34.75 34.4 34.95 34.25 35.45 34.2 35.45 33.85 35.25 33.8 35.25 33.55 35.6 M36.05 31.8 L36.95 31.7 Q37.2 31.75 37.25 32.1 L37.3 32.15 37.25 32.25 36.6 32.3 36.1 32.5 36.1 32.3 36.05 31.8 M34.2 31.35 L33.0 32.45 32.9 32.65 32.8 32.75 32.5 33.25 32.8 32.75 32.9 32.65 33.0 32.45 34.2 31.35 M32.25 33.7 L31.65 34.75 32.25 33.7" fill="#e3e8ee" fill-rule="evenodd" stroke="none"/>
      <path d="M50.9 28.8 L52.6 28.7 52.25 29.05 49.85 30.95 48.4 32.25 46.65 33.8 44.7 35.8 43.6 36.85 42.9 37.25 42.65 37.3 41.35 37.35 39.2 37.4 39.55 36.95 40.15 36.15 40.45 36.2 42.0 36.6 42.1 36.45 42.65 36.55 43.7 35.1 44.8 33.7 45.2 33.3 45.2 33.25 45.95 32.5 47.9 30.7 48.25 30.5 48.35 30.4 49.4 29.6 Q50.15 29.15 50.9 28.8 M32.1 40.55 L31.1 40.45 31.5 39.65 31.55 39.6 30.45 39.45 30.55 39.1 30.65 38.25 31.35 38.3 31.9 38.15 33.0 37.9 33.2 38.7 33.25 38.85 33.5 38.65 33.75 38.4 33.6 38.35 33.5 37.9 33.4 37.75 34.1 37.5 34.15 37.6 34.8 38.0 35.1 38.05 35.15 38.05 34.8 38.35 34.8 38.4 34.7 39.05 33.0 40.05 32.25 40.5 32.1 40.55 M22.1 40.5 L21.7 39.85 20.65 39.6 20.9 39.4 21.35 39.0 21.7 38.7 23.1 37.6 24.95 36.35 26.95 35.1 29.35 33.95 29.9 33.7 29.95 33.65 30.0 33.5 30.15 32.65 30.2 32.25 30.75 29.95 31.65 27.1 32.4 25.3 32.75 24.6 33.95 22.5 34.5 21.45 34.6 21.35 34.75 21.0 35.0 20.65 35.5 19.7 35.5 19.65 35.75 19.25 36.25 18.3 37.1 17.4 37.95 16.5 38.5 16.15 40.35 14.9 42.5 13.55 42.75 13.4 42.8 13.4 43.6 12.95 42.9 14.05 42.75 14.3 42.1 15.3 40.95 17.2 40.75 17.35 40.6 17.5 40.4 17.7 40.25 18.2 40.25 18.25 40.25 18.35 39.45 19.6 39.2 20.0 37.9 22.2 36.75 24.15 35.7 25.95 34.8 27.55 34.05 29.0 32.8 31.1 31.85 32.8 31.8 32.95 31.7 33.05 30.95 34.35 30.5 35.15 30.55 34.85 29.9 35.1 29.75 35.15 29.2 35.4 29.1 35.9 29.0 36.25 28.9 36.6 27.75 39.35 27.7 39.5 Q26.65 41.3 25.05 42.5 L25.85 41.35 26.75 39.55 26.05 39.55 25.25 39.45 24.9 39.35 24.7 39.35 24.5 39.3 24.4 39.3 23.9 39.75 23.05 40.6 22.95 40.65 22.15 40.5 22.1 40.5 M19.15 31.4 L19.05 31.1 18.95 30.75 18.3 28.35 17.8 25.7 17.75 25.15 17.6 24.35 17.5 23.3 18.05 22.35 18.2 22.1 Q18.3 21.0 18.55 19.8 L19.3 17.3 20.1 15.15 20.75 13.6 20.85 13.7 20.85 13.75 20.85 14.05 20.75 16.1 20.75 16.55 20.75 18.2 20.8 18.75 20.75 18.7 20.75 18.75 20.15 20.9 20.05 21.2 19.7 22.75 19.6 23.05 19.6 23.15 19.3 24.35 19.3 25.45 19.3 25.75 Q19.45 26.95 20.05 28.15 L20.3 27.1 20.55 26.05 20.6 25.75 21.05 24.3 21.35 23.3 21.35 23.25 21.7 22.4 22.05 21.5 22.4 20.6 22.7 19.95 22.7 19.9 23.15 19.1 23.55 18.35 24.0 17.55 24.25 17.15 24.3 17.05 24.35 17.0 Q25.25 15.55 26.3 14.25 L27.25 13.1 26.6 14.55 26.2 15.7 25.25 18.05 24.7 19.45 24.3 20.55 23.6 22.55 23.35 23.35 23.15 24.05 22.95 24.5 22.85 24.95 22.85 25.05 22.6 25.1 21.85 25.4 Q21.7 25.45 21.6 25.6 L21.25 25.9 20.45 27.35 20.25 27.6 20.05 28.15 Q19.45 29.6 19.2 31.0 L19.15 31.4 M40.7 29.55 L39.9 30.1 38.25 31.35 38.2 31.15 Q38.0 30.6 37.5 30.4 L36.9 30.25 36.0 30.4 35.65 30.5 36.3 30.0 38.35 28.55 39.65 27.7 41.05 26.95 41.8 26.6 41.45 27.4 40.7 29.55 M34.7 35.7 L36.4 35.75 36.8 35.8 38.55 35.95 39.45 36.1 38.4 37.4 38.35 37.4 37.05 37.35 34.9 37.2 34.75 37.3 34.7 37.2 34.6 37.05 Q34.45 36.6 34.65 35.8 L34.7 35.7 M20.7 35.5 L20.7 35.65 20.65 36.15 20.65 36.25 20.65 36.45 20.65 36.55 20.6 37.5 20.6 37.85 20.6 38.9 20.2 38.35 20.1 38.1 19.65 37.2 19.55 36.95 19.35 36.3 19.2 35.35 19.1 34.1 19.6 34.9 20.15 35.35 20.15 35.4 20.4 35.45 20.6 35.55 20.65 35.55 20.7 35.5 M18.85 36.15 L18.4 35.95 18.15 35.5 17.65 34.75 17.25 34.1 16.95 33.55 16.75 33.15 16.7 33.05 17.2 33.4 17.55 33.65 18.35 34.2 18.75 34.5 18.85 36.15 M33.35 34.85 L33.25 35.25 33.1 35.8 33.05 35.8 32.7 35.7 32.6 35.65 32.7 34.75 32.75 34.65 33.15 34.8 33.35 34.85 M32.4 34.65 L32.4 34.85 32.35 35.15 32.25 35.75 32.25 36.4 32.4 36.35 32.8 36.35 32.85 36.35 32.95 36.4 32.85 36.8 32.95 37.65 30.7 37.8 30.85 37.2 31.5 35.2 31.5 35.15 31.55 35.1 31.65 34.75 32.3 34.65 32.4 34.65 M33.4 37.45 L33.35 36.9 33.4 36.5 33.5 35.95 33.5 35.8 33.55 35.6 33.8 35.25 33.85 35.25 34.2 35.45 34.25 35.45 34.2 36.0 34.1 36.7 34.1 37.15 34.1 37.25 33.95 37.3 33.4 37.45 M28.45 36.2 L28.65 35.65 27.6 36.15 Q26.4 36.8 25.35 37.5 L24.45 38.1 24.8 38.3 25.0 38.4 25.25 38.5 25.7 38.65 26.9 38.55 28.1 37.1 28.3 36.55 28.45 36.2 M29.2 35.4 L28.7 35.6 28.65 35.65 28.7 35.6 29.2 35.4 M21.7 39.85 L22.35 39.95 23.6 38.8 24.45 38.1 23.6 38.8 22.35 39.95 21.7 39.85 M34.8 38.35 L34.45 38.5 34.25 38.55 33.75 38.4 34.25 38.55 34.45 38.5 34.8 38.35 M33.25 38.85 L32.1 39.45 31.55 39.6 32.1 39.45 33.25 38.85" fill="#bcc1d7" fill-rule="evenodd" stroke="none"/>
      <path d="M38.3 32.05 L38.95 31.8 40.1 31.45 43.2 30.3 42.15 31.75 41.65 31.9 38.7 32.8 36.55 33.6 35.65 33.95 35.6 33.8 35.9 33.3 36.1 33.0 36.15 32.9 37.3 32.4 37.65 32.3 38.3 32.05 M43.7 30.2 L44.25 30.05 45.85 29.6 48.1 29.15 50.9 28.8 Q50.15 29.15 49.4 29.6 L48.35 30.4 47.05 30.6 45.15 31.0 44.5 31.15 43.3 31.45 42.85 31.55 42.85 31.5 42.95 31.4 43.7 30.2 M15.8 30.5 L15.7 29.75 Q17.0 30.0 18.35 30.85 L19.15 31.4 19.15 31.45 19.05 31.95 19.0 32.3 18.75 32.2 16.5 30.85 15.8 30.5 M27.25 13.1 L27.4 12.95 28.25 14.5 Q29.65 17.35 30.25 20.4 L30.0 20.6 29.65 19.55 Q29.2 18.2 28.45 17.05 L27.45 15.55 27.2 15.9 Q26.45 16.95 25.85 18.15 L24.9 20.1 23.9 22.55 23.4 23.9 24.05 25.0 24.2 25.65 24.4 26.55 24.55 29.35 24.55 29.4 24.5 29.8 24.1 31.95 23.55 33.05 23.3 33.6 23.35 33.3 23.65 32.05 23.7 32.0 23.75 31.75 Q24.15 29.05 23.8 27.3 L23.75 27.1 23.45 26.05 23.05 25.15 22.95 25.1 22.85 25.05 22.85 24.95 22.95 24.5 23.15 24.05 23.35 23.35 23.6 22.55 24.3 20.55 24.7 19.45 25.25 18.05 26.2 15.7 26.6 14.55 27.25 13.1 M43.7 23.3 L42.45 25.35 41.9 26.2 41.8 26.6 41.05 26.95 39.65 27.7 38.35 28.55 36.3 30.0 35.65 30.5 35.65 30.55 35.8 30.9 35.9 31.25 34.8 32.1 34.3 31.45 34.25 31.45 34.2 31.35 34.4 31.2 34.55 30.95 35.6 29.8 37.4 28.0 38.7 26.85 40.35 25.6 42.1 24.35 43.7 23.3 M20.7 35.65 L20.7 35.8 20.75 36.5 20.85 37.2 20.9 37.6 21.95 36.95 22.6 36.65 24.0 35.95 26.5 34.8 29.25 33.75 30.0 33.5 29.95 33.65 29.9 33.7 29.25 33.9 27.0 34.9 Q25.85 35.45 24.8 36.1 23.8 36.7 22.85 37.4 L21.35 38.55 21.25 38.65 20.7 39.1 20.55 39.25 20.5 39.25 20.6 38.9 20.6 37.85 20.6 37.5 20.65 36.55 20.65 36.45 20.65 36.25 20.65 36.15 20.7 35.65 M20.8 18.75 L20.75 18.2 20.75 16.55 20.75 16.1 20.85 14.05 20.85 13.75 21.7 14.8 21.8 14.95 21.65 16.15 21.55 17.75 21.55 19.65 21.4 19.45 21.1 19.15 20.8 18.75 M34.4 31.2 Q34.95 30.8 35.5 30.55 L35.55 30.55 35.65 30.5 35.55 30.55 35.5 30.55 Q34.95 30.8 34.4 31.2 M35.05 32.55 L36.05 31.8 36.1 32.3 36.1 32.5 36.0 32.5 35.45 33.2 35.1 32.6 35.05 32.55" fill="#f5fcff" fill-rule="evenodd" stroke="none"/>
      <path d="M52.25 29.05 L51.5 29.85 50.7 30.65 Q46.65 34.8 43.8 36.7 L43.75 36.75 43.6 36.85 44.7 35.8 46.65 33.8 48.4 32.25 49.85 30.95 52.25 29.05 M42.9 37.25 L41.9 37.75 41.55 37.8 40.9 37.85 38.85 37.9 39.2 37.4 41.35 37.35 42.65 37.3 42.9 37.25 M38.0 37.85 L35.65 37.6 34.95 37.45 34.75 37.3 34.9 37.2 37.05 37.35 38.35 37.4 38.4 37.4 38.0 37.85 M20.55 39.55 L20.5 39.55 20.4 39.45 20.35 39.35 19.7 38.4 18.95 36.6 18.3 36.35 17.8 35.6 17.2 34.6 16.35 32.8 16.65 33.05 16.7 33.05 16.75 33.15 16.95 33.55 17.25 34.1 17.65 34.75 18.15 35.5 18.4 35.95 18.85 36.15 18.75 34.5 Q18.75 33.5 19.0 32.45 L18.95 33.45 19.1 34.1 19.2 35.35 19.35 36.3 19.55 36.95 19.65 37.2 20.1 38.1 20.2 38.35 20.6 38.9 20.5 39.25 20.55 39.25 20.55 39.55 M18.95 36.6 L18.85 36.15 18.95 36.6 M32.95 37.65 L33.0 37.9 31.9 38.15 31.35 38.3 30.65 38.25 30.7 37.8 32.95 37.65 M33.4 37.75 L33.4 37.45 33.95 37.3 34.1 37.25 34.1 37.5 33.4 37.75" fill="#51c2de" fill-rule="evenodd" stroke="none"/>
      <path d="M43.2 30.3 L43.7 30.2 42.95 31.4 42.85 31.5 42.85 31.55 42.25 32.45 42.15 32.65 41.4 32.8 42.15 31.75 43.2 30.3 M38.85 37.9 L38.0 37.85 38.4 37.4 39.45 36.1 39.95 35.5 41.25 35.85 Q41.8 35.95 42.15 35.6 L45.2 32.4 45.25 32.6 45.25 33.0 45.05 33.2 43.5 34.9 42.1 36.45 42.0 36.6 40.45 36.2 40.15 36.1 40.15 36.15 39.55 36.95 39.2 37.4 38.85 37.9 M35.65 37.6 L35.5 37.6 35.15 38.05 35.1 38.05 34.8 38.0 34.15 37.6 34.1 37.5 34.1 37.25 34.1 37.15 34.1 36.7 34.2 36.0 34.25 35.45 34.4 34.95 34.5 34.75 34.7 34.35 34.9 34.0 35.45 33.2 36.0 32.5 36.1 32.5 36.6 32.3 37.25 32.25 37.3 32.15 37.25 32.1 Q37.2 31.75 36.95 31.7 L36.05 31.8 35.05 32.55 34.95 32.7 Q34.35 33.4 33.9 34.5 L33.7 35.15 33.6 35.35 33.55 35.6 33.5 35.8 33.5 35.95 33.4 36.5 33.35 36.9 33.4 37.45 33.4 37.75 33.5 37.9 33.6 38.35 33.75 38.4 33.5 38.65 33.25 38.85 33.2 38.7 33.0 37.9 32.95 37.65 32.85 36.8 32.95 36.4 32.85 36.35 32.8 36.35 32.4 36.35 32.25 36.4 32.25 35.75 32.35 35.15 32.4 34.85 32.4 34.65 32.6 33.95 32.6 33.9 32.25 33.7 32.5 33.25 32.75 33.3 Q33.05 33.35 33.0 33.65 L32.75 34.65 32.7 34.75 32.6 35.65 32.7 35.7 33.05 35.8 33.1 35.8 33.25 35.25 33.35 34.85 34.1 33.05 34.2 32.85 34.4 32.55 34.8 32.1 35.9 31.25 36.0 31.2 36.7 31.15 37.15 31.1 37.45 31.6 37.6 32.0 37.65 32.3 37.3 32.4 37.25 32.25 37.3 32.4 36.15 32.9 36.1 33.0 35.9 33.3 35.6 33.8 35.5 34.0 34.7 35.7 34.65 35.8 Q34.45 36.6 34.6 37.05 L34.7 37.2 34.75 37.3 34.95 37.45 35.65 37.6 M20.65 39.6 L20.55 39.55 20.55 39.25 20.7 39.1 21.25 38.65 21.35 38.55 22.85 37.4 Q23.8 36.7 24.8 36.1 25.85 35.45 27.0 34.9 L29.25 33.9 29.9 33.7 29.35 33.95 26.95 35.1 24.95 36.35 23.1 37.6 21.7 38.7 21.35 39.0 20.9 39.4 20.65 39.6 M27.75 24.3 L26.7 23.05 26.1 22.2 25.85 21.8 26.0 21.2 26.1 20.65 26.85 18.2 27.05 18.4 26.4 21.1 26.25 21.6 27.35 22.95 28.0 23.65 Q27.8 24.0 27.75 24.3" fill="#9297bd" fill-rule="evenodd" stroke="none"/>
      <path d="M21.45 19.9 L21.55 19.9 21.65 19.8 22.15 19.45 22.35 19.4 22.6 19.6 22.7 19.9 22.7 19.95 22.4 20.6 Q22.1 21.0 21.6 20.9 L21.55 20.85 21.45 20.85 Q21.2 20.75 21.25 20.5 L21.45 19.9 M20.75 21.45 L21.2 21.4 21.3 21.4 21.3 21.5 21.0 21.95 20.9 22.0 20.65 22.25 20.45 22.5 20.45 22.35 20.65 21.55 20.75 21.45 M30.15 21.05 L30.2 21.0 30.4 20.75 Q30.7 20.45 31.05 20.25 L31.15 20.25 31.65 20.35 31.8 20.4 Q32.25 20.55 32.0 21.05 L31.9 21.25 31.0 22.0 30.7 22.1 30.65 22.1 30.45 22.1 30.05 21.95 29.95 21.6 30.15 21.05 M29.85 23.2 L29.7 23.3 29.65 23.4 28.8 24.5 28.85 24.1 28.9 23.9 29.0 23.35 29.15 22.95 29.2 22.75 Q29.4 22.3 29.95 22.5 L29.95 22.7 29.85 23.2" fill="#fff0d2" fill-rule="evenodd" stroke="none"/>
      <path d="M24.65 43.5 L24.4 43.65 23.75 42.4 24.45 42.9 25.05 42.5 Q26.65 41.3 27.7 39.5 L27.75 39.5 29.0 39.35 Q27.5 41.9 24.65 43.5 M30.25 20.4 L30.85 20.0 31.05 19.85 31.25 19.85 33.6 20.15 33.6 20.2 32.4 21.75 32.25 21.9 31.45 23.1 30.9 24.0 30.6 24.5 30.25 25.05 29.65 25.7 29.65 25.75 29.55 25.85 28.8 26.55 28.5 25.85 28.5 25.7 28.45 25.6 28.3 25.0 28.3 24.9 28.3 24.05 28.45 23.3 28.5 23.0 28.85 21.95 29.0 21.75 30.0 20.6 30.25 20.4 M21.45 19.9 L21.25 20.5 Q21.2 20.75 21.45 20.85 L21.55 20.85 21.6 20.9 Q22.1 21.0 22.4 20.6 L22.05 21.5 21.3 22.3 21.2 22.45 20.1 24.0 20.05 23.7 20.0 23.3 20.0 22.3 20.0 22.0 20.65 20.8 20.9 20.55 20.95 20.5 20.95 20.45 21.45 19.9 M22.7 19.9 L22.6 19.6 22.35 19.4 Q22.7 19.2 23.15 19.1 L22.7 19.9 M20.75 21.45 L20.65 21.55 20.45 22.35 20.45 22.5 20.65 22.25 20.9 22.0 21.0 21.95 21.3 21.5 21.3 21.4 21.2 21.4 20.75 21.45 M30.15 21.05 L29.95 21.6 30.05 21.95 30.45 22.1 30.65 22.1 30.7 22.1 31.0 22.0 31.9 21.25 32.0 21.05 Q32.25 20.55 31.8 20.4 L31.65 20.35 31.15 20.25 31.05 20.25 Q30.7 20.45 30.4 20.75 L30.2 21.0 30.15 21.05 M29.85 23.2 L29.95 22.7 29.95 22.5 Q29.4 22.3 29.2 22.75 L29.15 22.95 29.0 23.35 28.9 23.9 28.85 24.1 28.8 24.5 29.65 23.4 29.7 23.3 29.85 23.2" fill="#f8e259" fill-rule="evenodd" stroke="none"/>
      <path d="M31.05 19.85 L31.3 19.7 Q32.6 19.05 34.2 19.35 L34.3 19.35 34.35 19.35 34.5 19.4 35.1 19.55 35.5 19.7 35.0 20.65 34.75 21.0 34.6 21.35 34.5 21.45 32.1 25.35 30.35 27.55 29.55 28.15 29.25 28.4 28.15 28.65 27.9 27.3 27.75 26.25 27.75 25.9 27.75 25.4 Q27.8 24.3 28.2 23.2 L28.2 23.1 28.25 23.05 28.85 21.95 28.5 23.0 28.45 23.3 28.3 24.05 28.3 24.9 28.3 25.0 28.45 25.6 28.5 25.7 28.5 25.85 28.8 26.55 29.55 25.85 29.65 25.75 29.65 25.7 30.25 25.05 30.6 24.5 30.9 24.0 31.45 23.1 32.25 21.9 32.4 21.75 33.6 20.2 33.6 20.15 31.25 19.85 31.05 19.85 M22.05 21.5 L21.7 22.4 21.35 23.25 21.35 23.3 21.05 24.3 20.6 25.75 20.55 26.05 20.3 27.1 19.95 26.0 19.85 25.6 19.75 24.45 Q19.7 23.55 19.9 22.7 L20.0 22.3 20.0 23.3 20.05 23.7 20.1 24.0 21.2 22.45 21.3 22.3 22.05 21.5 M27.7 39.5 L27.75 39.35 28.9 36.6 29.0 36.25 29.1 35.9 29.2 35.4 29.75 35.15 29.9 35.1 30.55 34.85 30.5 35.15 30.45 35.4 30.4 35.65 29.85 37.55 29.45 38.4 29.35 38.75 29.0 39.35 27.75 39.5 27.7 39.5" fill="#ffaa00" fill-rule="evenodd" stroke="none"/>
      <path d="M28.0 23.65 L28.15 23.25 28.2 23.2 Q27.8 24.3 27.75 25.4 L27.75 25.9 27.75 26.25 27.9 27.3 28.15 28.65 29.25 28.4 28.3 29.1 27.8 29.35 27.8 29.2 27.65 28.6 27.6 28.55 27.45 27.6 27.4 25.95 Q27.5 25.1 27.75 24.3 27.8 24.0 28.0 23.65 M20.0 22.3 L19.9 22.7 Q19.7 23.55 19.75 24.45 L19.85 25.6 19.95 26.0 20.3 27.1 20.05 28.15 Q19.45 26.95 19.3 25.75 L19.3 25.45 19.3 24.35 19.6 23.15 19.6 23.05 19.7 22.75 20.0 22.0 20.0 22.3" fill="#ded090" fill-rule="evenodd" stroke="none"/>
      <path d="M23.3 33.6 L23.25 33.75 22.3 35.2 21.75 35.45 21.6 35.5 21.2 35.55 20.7 35.5 20.65 35.55 20.6 35.55 20.4 35.45 20.15 35.4 20.15 35.35 19.6 34.9 19.1 34.1 18.95 33.45 19.0 32.45 19.0 32.3 19.05 31.95 19.15 31.45 19.15 31.4 19.2 31.0 Q19.45 29.6 20.05 28.15 L20.25 27.6 20.45 27.35 21.25 25.9 21.6 25.6 21.45 25.9 21.15 26.4 20.55 27.55 20.05 28.9 19.75 29.85 Q19.45 30.95 19.45 32.05 L19.45 32.25 19.45 32.55 19.45 33.35 19.5 33.45 20.2 34.7 20.5 34.85 20.65 34.9 20.75 34.9 21.6 34.85 22.05 34.6 22.15 34.5 22.7 33.45 22.95 32.95 23.35 32.05 23.75 31.75 23.7 32.0 23.65 32.05 23.35 33.3 23.3 33.6" fill="#b1d0ff" fill-rule="evenodd" stroke="none"/>
      <path d="M21.05 33.75 L21.0 33.75 20.85 33.85 20.8 33.8 Q20.55 33.9 20.35 33.65 L20.2 33.45 20.05 32.95 20.0 32.7 19.95 32.25 20.0 32.25 19.95 31.55 Q19.95 30.85 20.1 30.1 L20.6 28.35 20.8 28.0 21.1 27.6 21.25 27.45 21.3 27.4 21.6 27.2 22.15 27.05 22.1 27.15 22.05 27.7 22.1 28.1 22.1 28.35 22.15 28.45 22.15 28.65 22.4 28.85 22.55 28.85 22.55 28.95 22.1 29.65 21.85 30.05 Q21.45 30.75 21.35 31.6 L21.35 31.85 21.35 32.1 21.5 32.8 21.55 32.8 21.55 32.9 21.4 33.45 21.25 33.6 21.15 33.7 21.05 33.75" fill="#3b527c" fill-rule="evenodd" stroke="none"/>
      <path d="M22.55 28.85 L22.4 28.85 22.15 28.65 22.15 28.45 22.1 28.35 22.1 28.1 22.05 27.7 22.1 27.15 22.15 27.05 Q22.3 26.75 22.6 26.6 L22.75 26.6 Q23.1 26.6 23.2 26.9 L23.3 27.1 23.1 28.35 23.1 28.4 22.85 28.75 22.55 28.85 M23.0 29.8 L23.05 29.9 23.15 30.25 23.1 30.7 23.05 30.95 22.75 32.1 22.65 32.45 22.7 32.15 22.7 31.3 22.65 30.9 22.7 30.8 22.4 30.2 22.35 30.15 22.25 29.85 22.95 29.8 23.0 29.8" fill="#cdf2ff" fill-rule="evenodd" stroke="none"/>
      <path d="M23.8 27.3 Q24.15 29.05 23.75 31.75 L23.35 32.05 22.95 32.95 22.7 33.45 22.15 34.5 22.05 34.6 21.6 34.85 21.75 34.65 22.3 33.25 22.3 33.15 22.25 33.2 21.8 33.65 21.45 33.75 21.2 33.75 21.05 33.75 21.15 33.7 21.25 33.6 21.4 33.45 21.55 32.9 21.55 32.8 21.5 32.8 21.35 32.1 21.35 31.85 21.35 31.6 Q21.45 30.75 21.85 30.05 L22.1 29.65 22.55 28.95 22.55 28.85 22.85 28.75 22.95 29.65 23.0 29.8 22.95 29.8 22.25 29.85 22.35 30.15 22.4 30.2 22.7 30.8 22.65 30.9 22.7 31.3 22.7 32.15 22.65 32.45 22.75 32.1 23.05 30.95 23.1 30.7 23.4 29.85 23.4 29.75 23.5 29.2 23.5 29.15 23.8 27.3" fill="#2bb3e0" fill-rule="evenodd" stroke="none"/>
      <path d="M27.25 37.1 L27.3 36.95 27.4 36.7 28.45 36.2 28.3 36.55 27.7 36.85 27.25 37.1 M24.8 38.3 L24.85 38.25 25.55 37.75 25.85 37.9 25.55 38.05 25.0 38.4 24.8 38.3" fill="#5d9dff" fill-rule="evenodd" stroke="none"/>
      <path d="M25.85 37.9 L26.0 37.95 26.2 38.0 Q26.6 38.1 26.85 37.8 L26.9 37.8 26.9 37.7 27.5 37.2 27.55 37.15 27.4 37.2 27.2 37.3 27.25 37.1 27.7 36.85 28.3 36.55 28.1 37.1 27.2 37.65 25.7 38.65 25.25 38.5 25.0 38.4 25.55 38.05 25.85 37.9" fill="#79ddff" fill-rule="evenodd" stroke="none"/>
      <path d="M28.45 36.2 L27.4 36.7 27.3 36.95 27.25 37.1 27.2 37.3 27.05 37.35 26.75 37.4 26.7 37.4 26.6 37.55 26.6 37.65 26.8 37.8 26.85 37.8 Q26.6 38.1 26.2 38.0 L26.0 37.95 25.85 37.9 25.55 37.75 24.85 38.25 24.8 38.3 24.45 38.1 25.35 37.5 Q26.4 36.8 27.6 36.15 L28.65 35.65 28.45 36.2 M26.15 37.55 L26.1 37.45 25.85 37.45 25.7 37.6 25.7 37.75 25.8 37.85 26.05 37.75 26.15 37.55 M26.35 37.85 L26.25 37.7 26.2 37.75 26.15 37.9 26.25 37.9 26.35 37.85" fill="#284f98" fill-rule="evenodd" stroke="none"/>
      <path d="M26.85 37.8 L26.8 37.8 26.6 37.65 26.6 37.55 26.7 37.4 26.75 37.4 27.05 37.35 27.2 37.3 27.4 37.2 27.55 37.15 27.5 37.2 26.9 37.7 26.9 37.8 26.85 37.8 M26.35 37.85 L26.25 37.9 26.15 37.9 26.2 37.75 26.25 37.7 26.35 37.85 M26.15 37.55 L26.05 37.75 25.8 37.85 25.7 37.75 25.7 37.6 25.85 37.45 26.1 37.45 26.15 37.55" fill="#ecf2ff" fill-rule="evenodd" stroke="none"/>
      <path d="M28.1 37.1 L26.9 38.55 25.7 38.65 27.2 37.65 28.1 37.1" fill="#d0f4ff" fill-rule="evenodd" stroke="none"/>
      <path d="M35.5 37.6 L35.1 39.2 34.55 39.75 32.75 40.55 32.1 40.55 32.25 40.5 33.0 40.05 34.7 39.05 34.8 38.4 34.8 38.35 35.15 38.05 35.5 37.6" fill="#51acde" fill-rule="evenodd" stroke="none"/>
      <path d="M50.75 2.05 L51.2 1.6 51.25 1.85 Q51.85 5.1 51.1 10.1 L50.3 15.7 50.3 15.75 50.3 16.0 50.25 16.15 50.15 16.6 49.85 17.75 49.3 20.2 49.1 20.85 48.8 22.05 48.7 22.45 48.35 23.7 48.3 23.75 46.1 26.15 45.75 26.5 45.1 27.1 40.4 30.35 38.3 31.5 38.3 31.9 38.3 32.05 38.95 31.8 40.1 31.45 43.2 30.3 43.7 30.2 44.25 30.05 45.85 29.6 48.1 29.15 50.9 28.8 52.6 28.7 52.25 29.05 51.5 29.85 50.7 30.65 Q46.65 34.8 43.8 36.7 L43.75 36.75 43.6 36.85 42.9 37.25 41.9 37.75 41.55 37.8 40.9 37.85 38.85 37.9 38.0 37.85 35.65 37.6 35.5 37.6 35.1 39.2 34.55 39.75 32.75 40.55 32.1 40.55 31.1 40.45 31.1 40.5 Q28.65 41.25 28.2 42.8 L24.65 43.5 Q27.5 41.9 29.0 39.35 L29.35 38.75 29.45 38.4 29.85 37.55 30.4 35.65 30.45 35.4 30.5 35.15 30.55 34.85 29.9 35.1 29.75 35.15 29.2 35.4 29.1 35.9 29.0 36.25 28.9 36.6 27.75 39.35 27.7 39.5 Q26.65 41.3 25.05 42.5 L24.45 42.9 23.75 42.4 23.7 42.4 22.5 41.15 22.1 40.5 21.7 39.85 20.65 39.6 20.55 39.55 20.5 39.55 20.4 39.45 20.35 39.35 19.7 38.4 18.95 36.6 18.3 36.35 17.8 35.6 17.2 34.6 16.35 32.8 16.3 32.5 15.85 30.9 15.8 30.5 15.7 29.75 Q17.0 30.0 18.35 30.85 L19.15 31.4 19.05 31.1 18.5 29.6 18.45 29.35 17.55 26.15 17.3 25.0 17.15 24.3 17.1 24.0 16.95 23.25 16.5 20.9 Q17.45 15.25 18.7 11.3 L19.85 8.35 19.9 8.2 Q21.0 5.65 22.35 4.15 L22.7 3.75 22.75 3.95 22.9 4.45 23.4 7.0 Q24.35 11.95 24.25 16.65 L24.25 16.85 24.25 16.95 24.25 17.15 24.3 17.05 24.35 17.0 Q25.25 15.55 26.3 14.25 L27.25 13.1 27.4 12.95 28.25 14.5 Q29.65 17.35 30.25 20.4 M35.5 19.7 L35.5 19.65 35.75 19.25 36.25 18.3 36.8 17.5 37.6 16.25 38.15 15.5 41.25 11.65 42.3 10.55 Q45.5 7.0 49.9 2.8 L50.75 2.05 M50.25 15.95 L50.3 15.75 M50.25 15.95 L50.3 16.0 M42.15 32.65 L44.75 32.05 45.1 31.95 45.25 32.3 45.2 32.4 42.15 35.6 Q41.8 35.95 41.25 35.85 L39.95 35.5 39.45 36.1 38.4 37.4 38.0 37.85 M38.25 31.35 L38.3 31.5 M35.65 30.5 L36.0 30.4 36.9 30.25 37.5 30.4 Q38.0 30.6 38.2 31.15 L38.25 31.35 M35.6 33.8 L35.5 34.0 34.7 35.7 34.65 35.8 Q34.45 36.6 34.6 37.05 L34.7 37.2 34.75 37.3 34.95 37.45 35.65 37.6 M42.15 32.65 L41.4 32.8 42.15 31.75 43.2 30.3 M23.3 33.6 L23.25 33.75 22.3 35.2 21.75 35.45 21.6 35.5 21.2 35.55 20.7 35.5 20.65 35.55 20.6 35.55 20.4 35.45 M34.5 21.45 L32.1 25.35 30.35 27.55 29.55 28.15 29.25 28.4 28.3 29.1 27.8 29.35 27.65 29.5 26.95 29.8 M24.0 17.55 L24.25 17.15 M23.15 19.1 L23.55 18.35 24.0 17.55 M22.4 20.6 L22.7 19.95 M22.05 21.5 L22.4 20.6 M20.3 27.1 L20.55 26.05 20.6 25.75 21.05 24.3 21.35 23.3 21.35 23.25 21.7 22.4 22.05 21.5 M20.3 27.1 L20.05 28.15 20.25 27.6 20.45 27.35 21.25 25.9 21.6 25.6 Q21.7 25.45 21.85 25.4 L22.6 25.1 22.85 25.05 22.95 25.1 23.05 25.15 23.45 26.05 23.75 27.1 23.8 27.3 Q24.15 29.05 23.75 31.75 L23.7 32.0 23.65 32.05 23.35 33.3 23.3 33.6 M22.7 19.9 L23.15 19.1 M34.6 21.35 L34.75 21.0 35.0 20.65 35.5 19.7 M19.15 31.4 L19.15 31.45 19.05 31.95 19.0 32.3 19.0 32.45 18.95 33.45 19.1 34.1 19.6 34.9 20.15 35.35 20.15 35.4 M20.05 28.15 Q19.45 29.6 19.2 31.0 L19.15 31.4 M18.85 36.15 L18.75 34.5 Q18.75 33.5 19.0 32.45 M18.85 36.15 L18.95 36.6 M35.65 30.5 L35.55 30.55 35.5 30.55 Q34.95 30.8 34.4 31.2 L34.2 31.35 33.0 32.45 32.9 32.65 32.8 32.75 32.5 33.25 32.25 33.7 31.65 34.75 31.55 35.1 31.5 35.15 31.5 35.2 30.85 37.2 30.7 37.8 30.65 38.25 30.55 39.1 30.45 39.45 31.55 39.6 32.1 39.45 33.25 38.85 33.5 38.65 33.75 38.4 33.6 38.35 33.5 37.9 33.4 37.75 33.4 37.45 33.35 36.9 33.4 36.5 33.5 35.95 33.5 35.8 33.55 35.6 33.6 35.35 33.7 35.15 33.9 34.5 Q34.35 33.4 34.95 32.7 L35.05 32.55 36.05 31.8 36.95 31.7 Q37.2 31.75 37.25 32.1 L37.3 32.15 37.25 32.25 37.3 32.4 37.65 32.3 38.3 32.05 M35.15 38.05 L35.5 37.6 M35.6 33.8 L35.9 33.3 36.1 33.0 36.15 32.9 37.3 32.4 M28.45 36.2 L28.65 35.65 27.6 36.15 Q26.4 36.8 25.35 37.5 L24.45 38.1 24.8 38.3 25.0 38.4 25.25 38.5 25.7 38.65 26.9 38.55 28.1 37.1 28.3 36.55 28.45 36.2 M28.65 35.65 L28.7 35.6 29.2 35.4 M24.45 38.1 L23.6 38.8 22.35 39.95 21.7 39.85 M33.75 38.4 L34.25 38.55 34.45 38.5 34.8 38.35 35.15 38.05 M31.1 40.45 L31.5 39.65 31.55 39.6" fill="none" stroke="#4b5b6f" stroke-linecap="round" stroke-linejoin="round" stroke-width="0.5"/>
      <path d="M30.25 20.4 L30.85 20.0 M31.05 19.85 L31.3 19.7 Q32.6 19.05 34.2 19.35 L34.3 19.35 34.35 19.35 34.5 19.4 35.1 19.55 35.5 19.7 M28.0 23.65 L28.15 23.25 28.2 23.2 28.2 23.1 28.25 23.05 28.85 21.95 29.0 21.75 30.0 20.6 30.25 20.4 M21.65 19.8 L21.55 19.9 21.45 19.9 20.95 20.45 20.95 20.5 20.9 20.55 20.65 20.8 20.0 22.0 19.7 22.75 19.6 23.05 19.6 23.15 19.3 24.35 19.3 25.45 19.3 25.75 Q19.45 26.95 20.05 28.15 M22.35 19.4 L22.15 19.45 21.65 19.8 M23.15 19.1 Q22.7 19.2 22.35 19.4 M28.0 23.65 Q27.8 24.0 27.75 24.3 27.5 25.1 27.4 25.95 L27.45 27.6 27.6 28.55 27.65 28.6 27.8 29.2 27.8 29.35" fill="none" stroke="#725743" stroke-linecap="round" stroke-linejoin="round" stroke-width="0.5"/>
      <path d="M24.65 43.5 L24.4 43.65 23.75 42.4" fill="none" stroke="#183064" stroke-linecap="round" stroke-linejoin="round" stroke-width="0.5"/>
    </g>
  </defs>
</svg>
