<?xml version="1.0" encoding="UTF-8" standalone="no"?>
<svg xmlns:ffdec="https://www.free-decompiler.com/flash" xmlns:xlink="http://www.w3.org/1999/xlink" ffdec:objectType="frame" height="30.0px" width="30.0px" xmlns="http://www.w3.org/2000/svg">
  <g transform="matrix(1.0, 0.0, 0.0, 1.0, 0.0, 0.0)">
    <use ffdec:characterId="1" height="30.0" transform="matrix(1.0, 0.0, 0.0, 1.0, 0.0, 0.0)" width="30.0" xlink:href="#shape0"/>
    <filter id="filter0">
      <feColorMatrix in="SourceGraphic" result="filterResult0" type="matrix" values="0 0 0 0 0.4,0 0 0 0 1.0,0 0 0 0 1.0,0 0 0 1 0"/>
      <feConvolveMatrix divisor="100.0" in="filterResult0" kernelMatrix="1 1 1 1 1 1 1 1 1 1 1 1 1 1 1 1 1 1 1 1 1 1 1 1 1 1 1 1 1 1 1 1 1 1 1 1 1 1 1 1 1 1 1 1 1 1 1 1 1 1 1 1 1 1 1 1 1 1 1 1 1 1 1 1 1 1 1 1 1 1 1 1 1 1 1 1 1 1 1 1 1 1 1 1 1 1 1 1 1 1 1 1 1 1 1 1 1 1 1 1" order="10 10" result="filterResult1"/>
      <feComposite in="SourceGraphic" in2="filterResult1" operator="over" result="filterResult2"/>
    </filter>
    <use ffdec:characterId="3" filter="url(#filter0)" height="49.55" transform="matrix(0.4078, 0.0, 0.0, 0.4078, 4.8981, 5.0981)" width="49.55" xlink:href="#sprite0"/>
  </g>
  <defs>
    <g id="shape0" transform="matrix(1.0, 0.0, 0.0, 1.0, 0.0, 0.0)">
      <path d="M0.0 0.0 L30.0 0.0 30.0 30.0 0.0 30.0 0.0 0.0" fill="#33cc66" fill-opacity="0.0" fill-rule="evenodd" stroke="none"/>
    </g>
    <g id="sprite0" transform="matrix(1.0, 0.0, 0.0, 1.0, 0.25, 0.25)">
      <use ffdec:characterId="2" height="49.55" transform="matrix(1.0, 0.0, 0.0, 1.0, -0.25, -0.25)" width="49.55" xlink:href="#shape1"/>
    </g>
    <g id="shape1" transform="matrix(1.0, 0.0, 0.0, 1.0, 0.25, 0.25)">
      <path d="M32.75 0.05 L35.5 2.95 36.7 5.05 Q37.45 6.55 37.5 7.4 37.55 8.7 38.4 9.05 39.6 9.55 39.95 10.3 41.35 13.55 44.6 15.65 45.25 16.1 45.65 17.3 L45.95 19.0 32.85 28.75 32.6 27.6 32.45 26.9 32.4 26.75 30.6 16.9 Q29.4 9.75 27.35 5.55 L30.45 1.3 30.75 0.95 31.4 0.05 32.75 0.05 M19.0 43.1 L19.25 43.55 21.9 49.05 21.15 48.75 19.5 46.0 18.45 44.0 17.2 41.1 Q12.1 43.75 9.35 39.9 6.55 35.9 4.7 33.95 L5.1 33.4 5.4 33.0 6.45 34.2 Q8.25 36.15 8.65 37.15 9.15 38.25 10.65 39.5 12.35 40.85 13.7 40.85 14.65 40.85 15.4 40.2 16.15 39.55 16.9 39.55 17.3 39.55 19.0 43.1 M32.6 29.25 L32.85 28.75 Q35.05 38.2 36.5 47.95 L36.5 48.0 36.25 48.2 36.2 48.2 35.9 48.35 35.15 48.5 34.45 48.5 32.65 48.25 31.1 47.9 29.45 48.35 26.45 48.15 25.25 48.55 23.8 48.8 23.0 49.05 22.15 49.05 Q27.2 45.35 33.85 44.1 L32.6 29.25" fill="#223c5d" fill-rule="evenodd" stroke="none"/>
      <path d="M45.95 19.0 L45.65 17.3 Q45.25 16.1 44.6 15.65 41.35 13.55 39.95 10.3 39.6 9.55 38.4 9.05 37.55 8.7 37.5 7.4 37.45 6.55 36.7 5.05 L35.5 2.95 32.75 0.05 Q34.95 0.4 37.0 2.7 43.65 10.3 47.8 17.65 L45.95 19.0" fill="#0d4f83" fill-rule="evenodd" stroke="none"/>
      <path d="M45.95 19.0 L47.8 17.65 47.95 18.9 47.95 23.05 Q47.5 24.25 47.5 28.3 L47.95 36.4 Q47.95 38.95 46.0 40.4 45.2 43.1 43.3 43.7 41.45 44.2 40.75 45.5 40.0 46.8 39.1 46.25 38.35 45.85 37.3 47.85 L36.85 47.8 36.7 47.85 Q37.75 44.65 38.8 43.55 L42.6 41.4 Q45.75 39.65 45.75 38.4 L45.5 37.4 45.3 36.3 Q45.3 35.85 45.95 35.25 46.6 34.6 46.6 33.65 46.6 32.35 45.65 31.05 44.6 29.75 44.6 28.95 44.6 28.7 45.3 27.6 L45.95 26.45 47.3 24.35 Q47.3 23.5 46.6 22.65 45.85 21.85 45.95 20.35 L45.95 19.0 M22.55 11.35 L23.35 10.3 23.45 10.1 23.5 10.15 Q24.3 11.55 26.15 18.65 L26.55 20.2 22.7 26.5 22.1 27.55 Q24.5 26.7 28.1 27.55 L28.1 27.7 Q28.1 30.4 26.75 32.2 L23.2 36.2 Q22.45 37.1 20.6 40.5 L19.0 43.1 Q17.3 39.55 16.9 39.55 16.15 39.55 15.4 40.2 14.65 40.85 13.7 40.85 12.35 40.85 10.65 39.5 9.15 38.25 8.65 37.15 8.25 36.15 6.45 34.2 L5.4 33.0 8.95 28.55 8.95 28.5 22.55 11.35" fill="#0ca7d7" fill-rule="evenodd" stroke="none"/>
      <path d="M36.7 47.85 L36.85 47.8 37.3 47.85 Q38.35 45.85 39.1 46.25 40.0 46.8 40.75 45.5 41.45 44.2 43.3 43.7 45.2 43.1 46.0 40.4 47.95 38.95 47.95 36.4 L47.5 28.3 Q47.5 24.25 47.95 23.05 L47.95 18.9 Q49.8 31.9 48.6 40.6 43.9 44.95 38.25 48.2 L36.75 49.0 36.7 49.05 36.65 49.05 36.65 49.0 36.55 48.3 36.65 49.0 36.65 49.05 23.0 49.05 23.8 48.8 25.25 48.55 26.45 48.15 29.45 48.35 31.1 47.9 32.65 48.25 34.45 48.5 35.15 48.5 35.9 48.35 36.2 48.2 36.25 48.2 36.5 48.0 36.55 48.3 36.7 47.85" fill="#000033" fill-rule="evenodd" stroke="none"/>
      <path d="M32.85 28.75 L45.95 19.0 45.95 20.35 Q45.85 21.85 46.6 22.65 47.3 23.5 47.3 24.35 L45.95 26.45 45.3 27.6 Q44.6 28.7 44.6 28.95 44.6 29.75 45.65 31.05 46.6 32.35 46.6 33.65 46.6 34.6 45.95 35.25 45.3 35.85 45.3 36.3 L45.5 37.4 45.75 38.4 Q45.75 39.65 42.6 41.4 L38.8 43.55 Q37.75 44.65 36.7 47.85 L36.55 48.3 36.5 48.0 36.5 47.95 Q35.05 38.2 32.85 28.75 M22.15 49.05 Q26.15 42.45 32.6 29.25 L33.85 44.1 Q27.2 45.35 22.15 49.05" fill="#0d5b9b" fill-rule="evenodd" stroke="none"/>
      <path d="M31.4 0.05 L30.75 0.95 30.45 1.3 22.95 5.35 24.05 4.3 Q28.35 0.4 31.4 0.05 M22.7 26.5 L27.8 26.8 28.1 27.55 Q24.5 26.7 22.1 27.55 L22.7 26.5 M21.05 12.35 L21.05 12.55 Q21.05 13.05 17.75 16.45 14.45 19.85 13.6 19.85 12.6 19.85 12.15 19.05 L11.95 18.15 15.55 13.9 16.5 12.75 Q21.0 8.3 21.05 12.35 M2.95 28.15 L3.0 27.65 Q3.0 24.7 4.7 24.9 6.35 25.1 6.35 27.6 L6.25 29.15 5.9 29.85 Q5.45 30.35 4.7 30.35 L4.35 30.35 Q3.3 30.15 3.05 29.1 L3.0 29.0 2.95 28.15" fill="#a8dcf4" fill-rule="evenodd" stroke="none"/>
      <path d="M30.45 1.3 L27.35 5.55 26.95 5.75 30.45 1.3" fill="#925854" fill-rule="evenodd" stroke="none"/>
      <path d="M27.35 5.55 Q29.4 9.75 30.6 16.9 L32.4 26.75 32.45 26.9 32.6 27.6 32.85 28.75 32.6 29.25 Q26.15 42.45 22.15 49.05 L21.9 49.05 19.25 43.55 19.0 43.1 20.6 40.5 Q22.45 37.1 23.2 36.2 L26.75 32.2 Q28.1 30.4 28.1 27.7 L28.1 27.55 27.8 26.8 22.7 26.5 26.55 20.2 26.15 18.65 Q24.3 11.55 23.5 10.15 L23.45 10.1 23.35 10.3 22.55 11.35 21.05 12.35 Q21.0 8.3 16.5 12.75 L15.55 13.9 13.95 13.8 Q20.3 8.65 26.95 5.75 L27.35 5.55" fill="#0a68a5" fill-rule="evenodd" stroke="none"/>
      <path d="M21.05 12.35 L22.55 11.35 8.95 28.5 8.95 28.55 Q7.85 29.25 5.9 29.85 L6.25 29.15 6.35 27.6 Q6.35 25.1 4.7 24.9 3.0 24.7 3.0 27.65 L2.95 28.15 2.7 25.6 2.85 25.15 11.95 15.45 12.15 15.3 13.95 13.8 15.55 13.9 11.95 18.15 12.15 19.05 Q12.6 19.85 13.6 19.85 14.45 19.85 17.75 16.45 21.05 13.05 21.05 12.55 L21.05 12.35" fill="#5dbfec" fill-rule="evenodd" stroke="none"/>
      <path d="M22.95 5.35 L30.45 1.3 26.95 5.75 Q20.3 8.65 13.95 13.8 L12.15 15.3 22.95 5.35" fill="#172c3f" fill-rule="evenodd" stroke="none"/>
      <path d="M2.7 25.6 L2.95 28.15 3.0 29.0 3.05 29.1 3.15 30.6 3.6 30.5 4.35 30.35 4.7 30.35 Q5.45 30.35 5.9 29.85 7.85 29.25 8.95 28.55 L5.4 33.0 5.1 33.4 4.7 33.95 Q6.55 35.9 9.35 39.9 12.1 43.75 17.2 41.1 L18.45 44.0 19.5 46.0 21.15 48.75 16.2 47.0 Q6.2 43.3 0.9 39.15 L0.65 39.0 0.0 38.45 0.9 32.9 Q1.65 29.2 2.7 25.6" fill="#2582bd" fill-rule="evenodd" stroke="none"/>
      <path d="M4.35 30.35 L3.6 30.5 3.15 30.6 3.05 29.1 Q3.3 30.15 4.35 30.35" fill="#d48f68" fill-rule="evenodd" stroke="none"/>
      <path d="M32.75 0.05 L31.4 0.05 30.75 0.95 M30.45 1.3 L27.35 5.55 Q29.4 9.75 30.6 16.9 L32.4 26.75 32.45 26.9 32.6 27.6 32.85 28.75 45.95 19.0 47.8 17.65 Q43.65 10.3 37.0 2.7 34.95 0.4 32.75 0.05 M47.95 18.9 L47.8 17.65 M36.55 48.3 L36.65 49.0 36.65 49.05 36.7 49.05 36.75 49.0 38.25 48.2 Q43.9 44.95 48.6 40.6 49.8 31.9 47.95 18.9 M21.9 49.05 L22.15 49.05 Q26.15 42.45 32.6 29.25 L32.85 28.75 Q35.05 38.2 36.5 47.95 L36.5 48.0 36.55 48.3 M31.4 0.05 Q28.35 0.4 24.05 4.3 L22.95 5.35 12.15 15.3 11.95 15.45 2.85 25.15 2.7 25.6 Q1.65 29.2 0.9 32.9 L0.0 38.45 0.65 39.0 0.9 39.15 Q6.2 43.3 16.2 47.0 L21.15 48.75 21.9 49.05 M26.95 5.75 L27.35 5.55 M13.95 13.8 L12.15 15.3 M22.15 49.05 L23.0 49.05 36.65 49.05 M26.95 5.75 Q20.3 8.65 13.95 13.8" fill="none" stroke="#00ffff" stroke-linecap="round" stroke-linejoin="round" stroke-width="0.5"/>
      <path d="M21.9 20.1 L22.45 20.1 25.5 23.4 25.45 26.25 27.45 19.05 31.0 15.8 31.4 15.8 25.45 29.65 25.4 31.25 25.8 31.6 25.85 31.9 26.0 33.75 26.0 33.85 26.0 33.95 26.0 34.5 26.0 34.6 25.95 34.65 25.8 34.8 25.5 35.0 25.25 34.85 24.8 34.7 24.55 35.6 24.5 35.7 24.35 36.2 24.2 36.6 24.05 37.05 23.5 37.55 23.05 38.0 23.0 38.0 22.8 38.2 22.3 38.7 21.5 39.4 21.3 39.6 Q21.0 39.8 20.85 40.0 L20.8 39.95 20.5 39.65 20.15 39.25 19.8 38.85 19.8 38.8 19.95 38.45 20.2 37.9 19.7 37.1 19.3 36.5 19.05 36.2 18.75 36.6 18.3 37.1 18.0 37.05 16.75 36.9 16.4 37.1 15.7 37.45 15.25 37.5 14.9 37.5 13.55 37.5 13.4 37.5 13.25 37.5 12.15 37.45 11.55 37.4 10.7 37.25 9.6 37.05 8.7 35.85 8.55 35.6 8.2 35.0 7.45 33.35 7.6 33.25 7.9 32.9 8.55 32.25 Q9.3 31.55 10.45 30.8 L10.6 30.7 10.7 30.65 11.6 30.1 10.95 29.7 9.9 28.95 8.95 28.2 8.5 27.4 8.5 27.35 8.45 27.25 8.5 27.0 8.7 26.95 8.75 26.95 10.8 26.5 12.7 26.15 13.2 26.05 13.45 26.0 13.8 25.95 14.15 25.9 15.85 25.65 16.6 25.8 17.65 26.25 17.75 26.3 18.2 26.5 13.85 17.25 14.15 15.7 14.4 14.45 14.5 13.75 14.55 13.6 15.15 13.6 15.2 13.75 15.3 14.0 15.95 16.05 17.6 20.8 17.65 20.95 19.55 25.75 19.8 26.35 22.0 26.75 22.3 28.45 21.85 28.55 21.95 28.65 22.15 28.75 22.6 29.1 22.85 28.85 23.15 28.85 23.8 29.35 23.65 28.7 23.6 28.6 23.25 27.5 23.1 27.1 23.0 26.8 22.55 25.65 22.55 25.5 21.9 24.0 21.9 23.95 21.55 23.2 21.3 22.6 21.05 22.1 20.9 21.75 21.85 20.15 21.9 20.1 M10.95 36.0 L10.75 35.95 10.8 36.0 10.95 36.0 11.2 36.0 11.15 35.9 10.95 36.0 M17.5 35.45 L17.85 35.45 18.3 35.35 18.3 35.3 17.55 34.5 17.0 34.0 16.75 34.1 16.7 34.1 16.5 34.35 16.45 34.55 16.35 34.75 16.2 35.35 16.6 35.4 16.7 35.4 17.5 35.45 M19.3 26.6 L19.3 26.55 19.25 26.6 19.3 26.6" fill="#000033" fill-opacity="0.9882353" fill-rule="evenodd" stroke="none"/>
    </g>
  </defs>
</svg>
